<svg xmlns="http://www.w3.org/2000/svg" viewBox="0 0 137.19 139.52"><defs><style>.cls-1{fill:#814114;}.cls-2{fill:#db7a1c;}.cls-3{fill:#f39200;}.cls-4{fill:#a85318;}.cls-5{fill:#fff;}.cls-6,.cls-7{fill:none;stroke-linecap:round;}.cls-6{stroke:#000;stroke-width:0.64px;}.cls-7{stroke:#db7a1c;stroke-width:0.91px;}</style></defs><title>grillo</title><g id="Layer_2" data-name="Layer 2"><g id="Layer_1-2" data-name="Layer 1"><path d="M91.83,28.07c.72.26,1.22-1.31,1.73-2.25-5.2-8.28-12.65-15.38-22.29-14.67,5.25,1.78,9.37,3.61,13.36,7.59A53.16,53.16,0,0,1,91.83,28.07Z"/><path d="M100.33,22.89C99.41,15.23,95.54,3.67,87.89,0A52.55,52.55,0,0,1,94.2,10.68c1.73,3.9,2.94,10.53,3.21,13.68C98.65,23.74,100.33,24.42,100.33,22.89Z"/><path class="cls-1" d="M50,78.12c-3.62,7.42-4.68,39.21-5.24,44.92-.62,6.35,0,7.71-3.12,7.9-5.33.32-8.7,2.94-1.74,3.16,2.63.23,5.63.83,8.08-.36,1.18-6.65,2-16.59,3-26.14.44-4.14.21-21.76,3.38-23.92,6.56-4.94,16.38,13.31,20,16.86,3,2.78,8.57,6.76,8.28.44-.18-3.44-4.18-7.71-6.26-10.32C74.6,88.58,56,65.44,50,78.12Z"/><path class="cls-1" d="M45.45,114.23a13,13,0,0,0-3.15,1.23,5.33,5.33,0,0,0-1.13.89,9,9,0,0,1,2.14-.5c.79,0,.71.44.71.44a10,10,0,0,0-2,.81,7.52,7.52,0,0,0-1.57,1.6,27.64,27.64,0,0,1,2.75-1c.85-.2,1,.28,1,.28a10.32,10.32,0,0,0-3.1,1.89,7.53,7.53,0,0,0-1,1.39,7.37,7.37,0,0,1,3.19-1.51c2.05-.45,2.3.14,2.3.14Z"/><path class="cls-1" d="M26.19,105.71c-7.58-1.09-15-3.07-21.13-8,3.67,9.8,13.37,10.56,21.34,11.78-5,3.48-19.94.55-26.4-1.36,4.14,5.22,12.41,6.14,16.7,6.14,3.06,0,8.57-.3,11-2.15C30.8,109.7,30.49,106.33,26.19,105.71Z"/><path class="cls-1" d="M128.3,58.1c-4.18,3.1-7.06,3.22-11.26,4.24-2.08.52-1.15.2-1.83,2.27-1,3.94-4.25,12.45-5.34,16.47-1.86,6.94-4,15.7-8.92,22.21-2.57,3.6-13.62,11.53-18.07,13.59-6.18,2.91-18.36,5.74-27,4.89A58.75,58.75,0,0,1,28.8,111.65c-1.88-1.38-4.25-3.67-4.77-6.24-.86-3.08,6.36-6.12,8.58-7.66C35,95.86,46,89.92,47.67,88.55c4.64-4,19.69-18.53,22.77-22.82C73.7,61.44,75.24,56,78,51.33c2.4-3.95,4.29-8.06,7-11.83A12.41,12.41,0,0,1,88.16,36c1.51-10.84,7.67-13.65,12.27-14.57,6.44-1.37,15.25,4,20.67,6.89C134.84,35.72,145,52.63,128.3,58.1Z"/><path class="cls-2" d="M93.57,62.49c-3.17,8.25-15,32.49-30,41.07-6.13,3.37-13.48,4.92-20.83,5.52-4,.3-15.93,1.53-19.29-2.15C20.06,102.64,35.37,95,39,92.22c7.65-6.14,21.15-15.37,27.25-23.3,7.91-10.28,11-18,13.18-20.18C81.93,46.25,95.3,58,93.57,62.49Z"/><path class="cls-3" d="M116.07,65.67A161.75,161.75,0,0,1,86.21,45.26c-.86-.69-1.72-1.89-2.56-2.41-1.89-1.19-1.2-1-2.92.35-2.4,1.89-4.1,4.46-3.08,7,1.2,2.56,4.56,4,6.51,5.83,5.45,5.09,24,15.11,26.55,15.79,2.24.68,2.42.86,3.27-.85A18,18,0,0,0,116.07,65.67Z"/><path class="cls-4" d="M43.38,80.48c-4.9,7.35-10.56,40.93-12,46.88-1.57,6.64-1.07,8.18-4.44,7.94-5.71-.43-9.65,1.87-2.29,3.09,2.74.62,5.84,1.69,8.62.77,2.18-6.89,4.45-17.31,6.88-27.3,1.06-4.34,3.32-23,7-24.89,7.66-4.29,15.46,16.47,18.84,20.76,2.75,3.37,8.13,8.39,8.73,1.65.3-3.67-3.34-8.78-5.16-11.83C68,95.12,51.66,67.92,43.38,80.48Z"/><path class="cls-4" d="M105.4,81.05c9.27,0,13.78-3.07,21.44-8.28,4-2.75,5-4.44,8.09-.15,1.83,2.45,4.29,8-.62,6.74-1.22-.3-.92-3.37-2.76-3.67-1.53-.31-11.32,6.73-15,7.66a29.12,29.12,0,0,1-10.4,1.22C102.76,84,99.57,81.05,105.4,81.05Z"/><path class="cls-5" d="M104.13,28.07c7.2,6.68-.89,17.41-9,9.75C88.19,31.34,98.09,22.48,104.13,28.07Z"/><path class="cls-4" d="M94.18,98.67c3,6.28,11.84,11.72,22.87,8,4-1.52,8.75-3.28,10.75,2.3,2.07,5.74.82,6.68-.34,7.19-1.91.85-2.66-1.66-4.49-6.8-4.32.38-9.13,2.62-14,2.72-11.38.23-23.11-13.43-20.74-17.47C90.35,91,92.54,95.24,94.18,98.67Z"/><path class="cls-6" d="M127.34,58a11.21,11.21,0,0,1-5-1.1c-3.44-1.6-4.38-6.44-4.38-6.44"/><path d="M102.14,30.66a1.4,1.4,0,0,1,1.25,1.15A1.11,1.11,0,0,1,102.23,33a1.37,1.37,0,0,1-1.3-1.47A.94.94,0,0,1,102.14,30.66Z"/><path class="cls-4" d="M33.44,118.14a14.6,14.6,0,0,0-3.52.85,5.62,5.62,0,0,0-1.33.79,9.37,9.37,0,0,1,2.34-.21c.83.09.7.56.7.56a11,11,0,0,0-2.19.58,7.85,7.85,0,0,0-1.89,1.49,31.19,31.19,0,0,1,3.06-.7c.94-.09,1,.44,1,.44a11.15,11.15,0,0,0-3.55,1.55,7.39,7.39,0,0,0-1.27,1.33,7.85,7.85,0,0,1,3.61-1.13c2.23-.18,2.43.47,2.43.47Z"/><path class="cls-7" d="M107.57,90.1C97.82,90.58,89.1,85.42,83.09,79"/><path class="cls-7" d="M92.3,110.91C81.78,111,72.93,103.52,69,95.22"/><path class="cls-7" d="M63,121.77c-6.47-2.28-12-12.72-12-21.8"/></g></g></svg>