<svg xmlns="http://www.w3.org/2000/svg" viewBox="0 0 467 55.54"><defs><style>.cls-1{fill:#2fac66;}</style></defs><title>titulo</title><g id="Layer_2" data-name="Layer 2"><g id="Layer_1-2" data-name="Layer 1"><path class="cls-1" d="M0,53.43A11.41,11.41,0,0,1,.26,50.2,22.87,22.87,0,0,0,.73,47c.11-.75.18-1.53.24-2.29s.1-1.54.18-2.29a.23.23,0,0,1,0-.18V42l.57-3.77a3,3,0,0,1,0-1.85,12.1,12.1,0,0,0,.44-1.75c0-.39.1-1.12.23-2.21s.26-2.32.47-3.72.39-2.87.6-4.4.42-3,.65-4.3.44-2.42.65-3.33.42-1.41.6-1.51a4.1,4.1,0,0,1,2-.58c.75,0,1.43-.07,2.08-.1a9.53,9.53,0,0,1,1.1,0c.26,0,.67,0,1.19,0A2.64,2.64,0,0,1,12.79,16,38.49,38.49,0,0,0,14,22c.55,1.9,1.09,3.85,1.64,5.88a2.49,2.49,0,0,1,.18.65c.08.37.16.76.26,1.17s.19.81.29,1.17a3.18,3.18,0,0,1,.13.66,9.18,9.18,0,0,1,.31,1c.13.47.21.79.26,1a.12.12,0,0,0,.06.1.09.09,0,0,0,.1,0h.05c.24,0,.42-.49.55-1.45s.26-2.19.34-3.65.18-3,.28-4.69.21-3.25.34-4.68a30.9,30.9,0,0,1,.52-3.65c.21-1,.5-1.48.84-1.51l6-.47a.85.85,0,0,1,.47.26,1.14,1.14,0,0,1,.34.5l1.09,8.25c.08.31.16.63.26,1s.18.67.26,1,.11,1.07.24,2,.26,1.9.39,3,.31,2.3.47,3.52.31,2.39.46,3.51.29,2.14.42,3,.24,1.54.31,2,.13,1,.29,1.95.31,1.91.52,3,.37,2,.55,2.94.28,1.56.36,2v.18a2,2,0,0,1,0,.76.71.71,0,0,1-.37.57L27,53.09,23.67,27.78l-.23-1L20.23,53l-3.43.28L9.92,27,5.68,54.91a2,2,0,0,0,0,.5c0,.05-.07.08-.26.08s0,0,0,0,0,0,0,0h0L4,55.41a10.4,10.4,0,0,1-1.69-.31,7.11,7.11,0,0,1-1.49-.6A1.38,1.38,0,0,1,0,53.43Z"/><path class="cls-1" d="M55.78,53.06a2,2,0,0,1-.57-.36,1,1,0,0,1-.34-.55L53.49,40a.48.48,0,0,0-.21-.39c-.13-.11-.26-.16-.36-.11l-6.64.63,1.09,10a5.42,5.42,0,0,0,.52,1.7,5.24,5.24,0,0,1,.52,1.64c0,.23,0,.36,0,.41a1.12,1.12,0,0,1-.52.13,1.28,1.28,0,0,0-.31,0,1,1,0,0,1-.26,0h-.73c-.32,0-.65,0-1,0s-.65,0-.94,0a4.87,4.87,0,0,1-.54,0A5.12,5.12,0,0,1,42.37,54a2.06,2.06,0,0,1-1-.68,3,3,0,0,1-.5-1.12c-.1-.44-.18-.94-.26-1.51-.18-2.11-.34-4.19-.47-6.28S40,40.2,39.9,38.07c0,0,0-.24,0-.63s0-.81-.08-1.33-.08-1-.1-1.45-.08-.86-.11-1.12a18.42,18.42,0,0,1,.21-4c.21-1.23.45-2.56.71-4a2.66,2.66,0,0,1,.13-2.06q.46-1.09.78-1.95a3.6,3.6,0,0,0,.13-.86,3.18,3.18,0,0,1,.21-.91,1.12,1.12,0,0,1,0-.21c.05-.11.08-.13.1-.13A22.23,22.23,0,0,0,43,17.08a11.43,11.43,0,0,1,1.25-2.32,9.74,9.74,0,0,1,1.24-1.4A17.92,17.92,0,0,1,47.11,12a10.78,10.78,0,0,1,1.8-1,7.27,7.27,0,0,1,1.87-.52,6.24,6.24,0,0,1,4,.7,6.76,6.76,0,0,1,2.27,2.45,13.17,13.17,0,0,1,1.27,3.31,33.33,33.33,0,0,0,1,3.36,4.67,4.67,0,0,0,.08.62,9.47,9.47,0,0,1,.13,1c0,.33.08.65.13.93a4.71,4.71,0,0,1,.08.6c.26,2.53.44,5.05.49,7.63s.13,5.1.26,7.63a17.06,17.06,0,0,1-.13,2,8.52,8.52,0,0,0-.07,2c0,.08,0,.29,0,.6s.08.68.1,1.07.08.72.13,1.06.08.52.08.6v1.9a6,6,0,0,0,0,.6c0,.34.05.68.05,1.07s0,.73,0,1.07,0,.54,0,.65-.06.57-.11,1a.89.89,0,0,1-.75.81h-.11l-.36-.06L59.16,53c-.1,0-.33,0-.67,0s-.71,0-1.07,0-.7,0-1,0A5.26,5.26,0,0,0,55.78,53.06ZM42.47,8.67c0-.1.16-.34.5-.68s.68-.73,1.09-1.12.81-.78,1.2-1.14.7-.63.89-.78.23-.19.49-.39a2.86,2.86,0,0,0,.44-.47c.11-.11.29-.29.52-.55s.47-.49.76-.78L49.14,2l.49-.5a2.83,2.83,0,0,1,.89-.93A2.08,2.08,0,0,1,51.69,0a1.11,1.11,0,0,1,.57.23A6.8,6.8,0,0,1,53,.78a8.07,8.07,0,0,1,.65.6,3,3,0,0,1,.34.39V2.92a.73.73,0,0,1-.29.52c-.1.13-.34.28-.62.54l-.63.5c-1.25.88-2.52,1.77-3.8,2.71S46,9,44.77,9.89a.61.61,0,0,1-.29.08c-.08,0-.18,0-.34,0A1.72,1.72,0,0,1,43,9.56,1.15,1.15,0,0,1,42.47,8.67Zm3.91,23.77a1.11,1.11,0,0,0,.81,1,6.36,6.36,0,0,0,1.72.36,15.87,15.87,0,0,0,2,0c.65,0,1.14,0,1.48-.08.08,0,.24,0,.47,0a3.5,3.5,0,0,1,.47,0,1.65,1.65,0,0,0,.18-.31,1.92,1.92,0,0,0,.11-.31c0-.24,0-.6-.06-1.12s-.07-1.07-.07-1.69,0-1.18-.06-1.7,0-.88,0-1.12a1.26,1.26,0,0,0,0-.52v-.57l-.57-5.57a3,3,0,0,0-.29-.91,4.71,4.71,0,0,0-.57-.94,2.6,2.6,0,0,0-.84-.68,1.79,1.79,0,0,0-1-.21,2,2,0,0,0-.86.29,8.36,8.36,0,0,0-2.34,4.06A24.47,24.47,0,0,0,46.41,27c0,.91,0,1.82-.06,2.68A16.56,16.56,0,0,0,46.38,32.44Z"/><path class="cls-1" d="M66,44.32a2.13,2.13,0,0,1,1.46-1.41,6.88,6.88,0,0,1,2.52-.18,27.12,27.12,0,0,1,3.28.54c1.2.26,2.45.53,3.75.76a3.46,3.46,0,0,0,1.41-.39,5.16,5.16,0,0,0,1.12-.89,9.94,9.94,0,0,0,1-1.22c.31-.47.62-.91,1-1.38a1.3,1.3,0,0,0,.16-.52l-.23-3.39a5,5,0,0,1-.73-.57c-.42-.34-.73-.6-.94-.81a3,3,0,0,0-.42-.31,1.49,1.49,0,0,0-.41-.21A33.11,33.11,0,0,0,75.1,33a22.73,22.73,0,0,1-3.26-1.22,9.64,9.64,0,0,1-2.76-1.95,10.94,10.94,0,0,1-2.16-3.52,4,4,0,0,0,0-.52c0-.23,0-.47-.07-.7a2.91,2.91,0,0,1-.08-.68,2.71,2.71,0,0,1,0-.42c0-.54-.08-1.09-.15-1.71a3.77,3.77,0,0,1,.2-1.72,7.37,7.37,0,0,1,.24-.84c.1-.39.26-.8.39-1.22s.29-.83.44-1.2l.26-.8v-.34a8.63,8.63,0,0,1,.63-.81c.18-.18.36-.39.54-.6s.32-.36.42-.49A15.75,15.75,0,0,1,73.43,11,11.6,11.6,0,0,1,78,9.63a11.23,11.23,0,0,1,2.18.19,18.74,18.74,0,0,1,2.87.7,10.66,10.66,0,0,1,2.52,1.17,2.1,2.1,0,0,1,1.15,1.56,5.63,5.63,0,0,1,0,1.38,12.86,12.86,0,0,1-.37,1.72,6,6,0,0,1-.68,1.51,1.3,1.3,0,0,1-1,.7,16.37,16.37,0,0,1-3,0,15.51,15.51,0,0,0-3,0,10.58,10.58,0,0,0-1.17.11c-.6.07-1,.1-1.17.1a2.38,2.38,0,0,1-.55.26,5.21,5.21,0,0,0-.75.37,4.78,4.78,0,0,0-.63.44.62.62,0,0,0-.26.47l.29,3.43a.75.75,0,0,0,.36.55c.24.18.52.34.81.52a5.81,5.81,0,0,0,.89.47l.62.26c1.54.73,2.92,1.41,4.19,2.06a13.57,13.57,0,0,1,3.26,2.29A10.76,10.76,0,0,1,86.76,33a13.84,13.84,0,0,1,1.07,4.51,14.11,14.11,0,0,1-.31,4.63,12.59,12.59,0,0,1-1.77,4.09,10.39,10.39,0,0,1-3.13,3,9.8,9.8,0,0,1-4.3,1.44,20.08,20.08,0,0,1-4.11.05,12.71,12.71,0,0,1-3.85-.86,7.71,7.71,0,0,1-2.94-2A5.16,5.16,0,0,1,66,44.32Z"/><path class="cls-1" d="M115.92,44.32a2.13,2.13,0,0,1,1.46-1.41,6.88,6.88,0,0,1,2.52-.18,27.12,27.12,0,0,1,3.28.54c1.2.26,2.45.53,3.75.76a3.46,3.46,0,0,0,1.41-.39,5.16,5.16,0,0,0,1.12-.89,9.06,9.06,0,0,0,1-1.22c.31-.47.63-.91,1-1.38.06,0,.08-.13.11-.26s0-.21,0-.26l-.23-3.39a4.34,4.34,0,0,1-.71-.57l-.93-.81a2.29,2.29,0,0,0-.45-.31,1.49,1.49,0,0,0-.41-.21A33.11,33.11,0,0,0,125.06,33a22.73,22.73,0,0,1-3.26-1.22A9.78,9.78,0,0,1,119,29.79a10.94,10.94,0,0,1-2.16-3.52,4,4,0,0,0,0-.52l-.07-.7a2.91,2.91,0,0,1-.08-.68,2.71,2.71,0,0,1,0-.42c0-.54-.08-1.09-.15-1.71a3.77,3.77,0,0,1,.2-1.72,7.37,7.37,0,0,1,.24-.84c.1-.39.26-.8.39-1.22s.29-.83.44-1.2.21-.65.26-.8v-.34c.24-.34.45-.6.63-.81s.36-.39.54-.6.32-.36.42-.49A15.75,15.75,0,0,1,123.39,11,11.6,11.6,0,0,1,128,9.63a11.23,11.23,0,0,1,2.18.19,18.74,18.74,0,0,1,2.87.7,10.66,10.66,0,0,1,2.52,1.17,2.1,2.1,0,0,1,1.15,1.56,5.17,5.17,0,0,1,0,1.38,12.86,12.86,0,0,1-.37,1.72,6.33,6.33,0,0,1-.67,1.51,1.33,1.33,0,0,1-1,.7,16.37,16.37,0,0,1-3,0,15.51,15.51,0,0,0-3,0,10.58,10.58,0,0,0-1.17.11c-.6.07-1,.1-1.17.1a2.38,2.38,0,0,1-.55.26,5.21,5.21,0,0,0-.75.37,4.78,4.78,0,0,0-.63.44.62.62,0,0,0-.26.47l.29,3.43a.75.75,0,0,0,.36.55c.24.18.52.34.81.52a5.81,5.81,0,0,0,.89.47l.62.26c1.54.73,2.92,1.41,4.19,2.06a13.57,13.57,0,0,1,3.26,2.29A10.76,10.76,0,0,1,136.72,33a13.84,13.84,0,0,1,1.07,4.51,13.84,13.84,0,0,1-.31,4.63,12.59,12.59,0,0,1-1.77,4.09,10.39,10.39,0,0,1-3.13,3,9.8,9.8,0,0,1-4.29,1.44,20.19,20.19,0,0,1-4.12.05,12.78,12.78,0,0,1-3.85-.86,7.71,7.71,0,0,1-2.94-2A5,5,0,0,1,115.92,44.32Z"/><path class="cls-1" d="M143.81,43.74a5.34,5.34,0,0,1-.08-.62,7.34,7.34,0,0,1,0-.81c0-.26,0-.49-.06-.7s0-.37,0-.44c0-.73-.08-1.67-.11-2.84s-.07-2.32-.1-3.47-.08-2.16-.1-3-.06-1.38-.06-1.49c0-1.14,0-2.39.08-3.75s.18-2.73.37-4.11a21.37,21.37,0,0,1,.93-4.06,13.31,13.31,0,0,1,1.75-3.52,8.42,8.42,0,0,1,2.78-2.52,9.39,9.39,0,0,1,4.09-1.15h1.15a17.5,17.5,0,0,1,3.1.73,9.2,9.2,0,0,1,2.68,1.33,9.31,9.31,0,0,1,2.08,2A8.1,8.1,0,0,1,163.6,18l.15,1.12c.05.6.08,1,.08,1.17s0,.75,0,1.35,0,.94,0,1c0,.39,0,1.22,0,2.5s.05,2.68.08,4.19.07,3,.07,4.4,0,2.5,0,3.18c0,1,0,2,0,3.3s0,2.53-.11,3.86a33,33,0,0,1-.52,4,11.73,11.73,0,0,1-1.22,3.48A7.93,7.93,0,0,1,160,54.11a6.38,6.38,0,0,1-3.49,1.12,12.65,12.65,0,0,1-3.46-.24c-1.1-.23-2.22-.55-3.36-.91a6.7,6.7,0,0,1-2.81-1.59A8.56,8.56,0,0,1,145.16,50a13.71,13.71,0,0,1-1-3A20.23,20.23,0,0,1,143.81,43.74Zm7.63-.41a5,5,0,0,0,.7,2.16,2,2,0,0,0,2,.83,2,2,0,0,0,1.38-.55,2.82,2.82,0,0,0,.65-1.19,6.71,6.71,0,0,0,.23-1.51c0-.55.05-1,.08-1.49v-.49a7.59,7.59,0,0,1,0-.81c0-.29,0-.55,0-.81V39c.11-2,.19-3.72.19-5.36s-.06-3.41-.19-5.37c0-.23,0-.6,0-1.12s-.08-1.06-.1-1.66-.08-1.15-.11-1.67a10.79,10.79,0,0,1-.05-1.12,5.17,5.17,0,0,0-.44-.94c-.21-.39-.44-.78-.68-1.14a4.89,4.89,0,0,0-.86-.94,1.45,1.45,0,0,0-.94-.39,1.56,1.56,0,0,0-1,.55,3.47,3.47,0,0,0-.68,1.17,7.53,7.53,0,0,0-.39,1.4c-.1.47-.15.86-.21,1.18a2.45,2.45,0,0,0-.1.57c0,.31-.08.65-.13,1s-.11.76-.18,1.09a4.53,4.53,0,0,0-.08.63v2.34c0,.57,0,1.15,0,1.69s0,1,0,1.28v.47a.47.47,0,0,0,0,.18.34.34,0,0,1,0,.18v.24c0,.39.1,1,.21,2s.2,2,.31,3,.21,2.05.29,3A16.39,16.39,0,0,0,151.44,43.33Z"/><path class="cls-1" d="M172.45,53.53a4.32,4.32,0,0,1,0-.75,6.14,6.14,0,0,1,.1-.76l-.05-12a66.71,66.71,0,0,1-.68-8.86c-.05-3-.13-5.93-.23-8.8-.11-1.33-.21-2.68-.32-4a33.55,33.55,0,0,1-.07-4,2.75,2.75,0,0,0-.08-.65,1,1,0,0,1,.08-.65,2.29,2.29,0,0,1,1-.81,6.26,6.26,0,0,1,1.43-.41,10.22,10.22,0,0,1,1.51-.19l1.28-.07a7.1,7.1,0,0,1,2.58.23,8.73,8.73,0,0,1,2.24,1,10.8,10.8,0,0,1,1.9,1.56,10.67,10.67,0,0,1,1.48,2,3.84,3.84,0,0,1,.37,1.07,3.67,3.67,0,0,0,.36,1l.39,3.77a3,3,0,0,0-.1.63,4.39,4.39,0,0,0,0,.68,11,11,0,0,1-.45,1.87,3.7,3.7,0,0,0-.23,1.8,2.06,2.06,0,0,0,.7,1.35,14.74,14.74,0,0,1,1.12,1.12c.11.1.31.34.63.68l.62.67c0,.13.05.34.26.71s.47.73.76,1.17a11.81,11.81,0,0,1,.75,1.33,2,2,0,0,1,.26,1,6.32,6.32,0,0,0,.26.62q.2.47.39,1c.13.34.24.66.34.94s.16.5.21.6,0,.29.05.73a4.75,4.75,0,0,0,.18,1,16.94,16.94,0,0,1-.13,4.94,35.81,35.81,0,0,1-1.22,4.79.48.48,0,0,1,0,.29,1.43,1.43,0,0,0-.1.29,15.88,15.88,0,0,1-1.28,2,4,4,0,0,1-2,1.35c-.16,0-.39,0-.73,0s-.68.08-1.07.16-.73.1-1.07.13l-.7.05c-.23,0-.54,0-.91,0s-.75.08-1.15.11-.72.08-1,.08l-.5,0a1.45,1.45,0,0,0-.28,0,4.35,4.35,0,0,1-.52,0,5.72,5.72,0,0,1-.58,0,2.33,2.33,0,0,0-.39,0,14.92,14.92,0,0,1-1.58-.08c-.55-.05-1.1-.07-1.64-.07s-1,.07-1.38.1S172.53,54.13,172.45,53.53Zm5.21-29a.3.3,0,0,0,.26.23.79.79,0,0,0,.31.05c.18-.05.31-.13.34-.28a6.08,6.08,0,0,0,.62-2,8.76,8.76,0,0,0,0-2.05c0-.19-.08-.42-.13-.66a1.91,1.91,0,0,0-.28-.67,1.55,1.55,0,0,0-.5-.52.86.86,0,0,0-.7-.13l-.21.05a1.91,1.91,0,0,1-.21.05l-.18.34Zm.28,23.38c0,.39.29.65.78.8a3.09,3.09,0,0,0,1.18.19,5.38,5.38,0,0,0,2.47-.81,3.82,3.82,0,0,0,1.33-1.54,6.49,6.49,0,0,0,.47-2,13.63,13.63,0,0,0-.11-2.3,17.46,17.46,0,0,0-1-4.37,7.54,7.54,0,0,0-2.81-3.59,4.45,4.45,0,0,0-.71-.37,1.29,1.29,0,0,0-.78-.08.61.61,0,0,0-.52.29,2.49,2.49,0,0,0-.23.65,4,4,0,0,0-.05.78v5.39a4,4,0,0,1,.1.65,4.64,4.64,0,0,1,0,.65A24.5,24.5,0,0,1,178,45,14.81,14.81,0,0,0,177.94,47.86Z"/><path class="cls-1" d="M214.16,54.86a25.67,25.67,0,0,1-1.72-2.73c-.42-.78-.91-1.64-1.43-2.55a4.43,4.43,0,0,0-.39-.5l-.55-.65a3.45,3.45,0,0,1-.41-.65.72.72,0,0,1-.06-.6c-.47-.65-.91-1.33-1.35-2s-.86-1.36-1.28-2h-.1a.14.14,0,0,1-.1-.05c-.34-.08-.47.08-.4.47s.08,1.06.11,2,.08,2.06.13,3.18.13,2.19.18,3.2.11,1.72.13,2.09l.05.18a4.51,4.51,0,0,1-.34.44c-.15.18-.26.24-.28.21l-5.83.39a.87.87,0,0,1-.86-.42,1.83,1.83,0,0,1-.39-.88c0-.05,0-.08,0-.08a.18.18,0,0,0,0-.13v-.18s0-.13.05-.32.08-.36.1-.54.08-.37.11-.52,0-.26,0-.29,0-.36-.08-.78-.1-.83-.15-1.25-.08-.86-.11-1.22a5.5,5.5,0,0,1,0-.76v-1.4c0-.76,0-1.54,0-2.37s0-1.64-.05-2.37,0-1.23,0-1.41,0-.55-.06-1-.07-1-.1-1.62-.08-1.09-.1-1.61a7.93,7.93,0,0,1-.06-1,1.09,1.09,0,0,0,.06-.52v-.52c.1-3.34.13-6.62.05-9.85s-.18-6.5-.29-9.79c0-.1,0-.33,0-.62s-.06-.63-.08-1-.08-.68-.08-1a6.44,6.44,0,0,1,0-.65c.08-.23.19-.36.32-.39a2.87,2.87,0,0,1,.41-.05c1.54-.1,3-.18,4.48-.21a15.84,15.84,0,0,1,4.09.45,9.37,9.37,0,0,1,3.46,1.64,8.4,8.4,0,0,1,2.58,3.25c.49,1,1,2,1.48,2.89a7.56,7.56,0,0,1,.86,3.07,12.48,12.48,0,0,1-1.17,6.38,17.86,17.86,0,0,1-4,5.37.91.91,0,0,0-.24.62,2.58,2.58,0,0,0,.42,1,1.22,1.22,0,0,1,.21,1l2.34,4.69V41L216,44.76a8,8,0,0,0,.5.94c.31.59.7,1.25,1.12,2s.81,1.48,1.14,2.24a5.86,5.86,0,0,1,.58,1.69,1.83,1.83,0,0,1-.37,1.15,4.74,4.74,0,0,1-1.06,1.14,9.07,9.07,0,0,1-1.33.89,2.86,2.86,0,0,1-1.2.36A1.25,1.25,0,0,1,214.16,54.86Zm-9.63-27.29c.15.19.26.34.36.45a1,1,0,0,0,.5.2,2.89,2.89,0,0,0,1.84-.83,5.17,5.17,0,0,0,1.1-1.66,8.57,8.57,0,0,0,.49-2,15.31,15.31,0,0,0,.11-1.77,7.22,7.22,0,0,0-.29-1.41A8.63,8.63,0,0,0,208,19a3.56,3.56,0,0,0-1-1.22,2.18,2.18,0,0,0-1.46-.45,1.17,1.17,0,0,0-.88.63,3.52,3.52,0,0,0-.42,1.33,9.11,9.11,0,0,0-.1,1.46v1c0,.05,0,.18,0,.39s0,.5.05.81,0,.62.06.94,0,.57.07.78a4.82,4.82,0,0,0,0,.57,7.94,7.94,0,0,1,0,.89c0,.33,0,.62.05.88A2.58,2.58,0,0,1,204.53,27.57Z"/><path class="cls-1" d="M225.2,53.43c-.16-.11-.31-.24-.47-.37a.58.58,0,0,1-.23-.49,25.75,25.75,0,0,1,0-5.55,49.78,49.78,0,0,0,.31-5.57c0-2.29-.07-4.58-.2-6.9s-.29-4.61-.45-6.92-.28-4.61-.36-6.9-.1-4.56,0-6.83a1.7,1.7,0,0,1,.21-.73.82.82,0,0,1,.6-.46,4.5,4.5,0,0,1,1.35,0,4.43,4.43,0,0,0,1.28.05c.16,0,.44,0,.86,0s.86,0,1.35,0,.94-.05,1.36-.05.7,0,.86,0l.47-.05c.26,0,.54-.08.85-.1l.84-.13.49,0c.24,0,.6,0,1.12-.06a7.92,7.92,0,0,1,1.54,0,5.75,5.75,0,0,1,1.4.24c.42.1.66.34.68.67l.39,4.82a.83.83,0,0,1-.39.78,2,2,0,0,1-.86.37,8.39,8.39,0,0,1-2.29-.08,8.67,8.67,0,0,0-2.34-.08c-.18,0-.45,0-.76,0s-.62.08-.93.13a3.27,3.27,0,0,0-.84.34.76.76,0,0,0-.34.67,34.51,34.51,0,0,1,0,4.77,29.6,29.6,0,0,0,.06,4.81c0,.19,0,.45.05.76a1.17,1.17,0,0,0,.34.75,1.79,1.79,0,0,0,.7.27,6.67,6.67,0,0,0,1,.07c.34,0,.68,0,1,0a6.36,6.36,0,0,1,.67,0l.86-.05c.42,0,.86-.08,1.33-.13s.91-.11,1.33-.13a6.74,6.74,0,0,1,.86,0,.36.36,0,0,1,.29.21.68.68,0,0,1,.1.31l.39,3.72a1.72,1.72,0,0,1-.26,1,1.07,1.07,0,0,1-.78.58,9.33,9.33,0,0,1-2.53,0,10.46,10.46,0,0,0-2.57-.08,2.15,2.15,0,0,0-1.15.42,1.34,1.34,0,0,0-.44.78,4.15,4.15,0,0,0-.11,1v1.2c0,.1,0,.39-.05.83s-.08.91-.16,1.41-.1,1-.13,1.38a4.13,4.13,0,0,1-.1.8c.08.06.1.16,0,.34a.7.7,0,0,0,.05.45,6,6,0,0,0,.11.83.57.57,0,0,0,.62.49h6.64a6.66,6.66,0,0,1,1.67.19c.49.1.83.54,1,1.25a4.86,4.86,0,0,0,.08.54c.05.29.1.6.18,1s.11.72.18,1.09.11.65.16.83v.34c.08.55-.05.83-.39.91l-1.15.24a27.63,27.63,0,0,1-4.81.13c-1.62-.08-3.21-.16-4.82-.21a3.11,3.11,0,0,0-.86,0c-.47.06-.73.08-.81.08s-.41,0-.83,0l-1.25.08-1.22.07A4.72,4.72,0,0,0,225.2,53.43Z"/><path class="cls-1" d="M274.7,48.38a1.24,1.24,0,0,0-.08-.52c-.11-.26-.21-.58-.34-.89s-.26-.62-.39-.91a6.13,6.13,0,0,1-.26-.65v-4c0-.23,0-.73,0-1.51s0-1.61.06-2.52,0-1.75.05-2.53,0-1.28,0-1.51V29.84a6.76,6.76,0,0,0,.08-1.3c0-.6.05-1.2.08-1.83S274,25.49,274,25s.05-.89.08-1.09,0-.32,0-.71a2.28,2.28,0,0,1,.18-.83c.11-.65.18-1.33.24-2.06a8.45,8.45,0,0,1,.33-2.05A17.14,17.14,0,0,1,276,16a12.57,12.57,0,0,1,1.8-2.37,12.4,12.4,0,0,1,2.31-1.93,4.76,4.76,0,0,1,2.63-.8c.68,0,1.23,0,1.62.05a2.78,2.78,0,0,1,1,.23,2,2,0,0,1,.78.55,11.55,11.55,0,0,1,.86,1.07.33.33,0,0,0,.11.23l.1.1v5.26l-.44.34a8.2,8.2,0,0,0-4.09,1.1,4.76,4.76,0,0,0-2,3c-.05.32-.08.81-.16,1.51s-.13,1.46-.2,2.24-.16,1.54-.24,2.24a13.62,13.62,0,0,0-.1,1.46V32.6c0,1.46,0,2.81,0,4.06s.08,2.66.13,4.19a6.6,6.6,0,0,0,.68,2.68,5.38,5.38,0,0,0,1.38,1.65,7,7,0,0,0,1.72.91c.6.2,1.17.39,1.72.52a9.4,9.4,0,0,1,1.38.44,1,1,0,0,1,.67.73v1.54c0,.31,0,.67,0,1.11a7.37,7.37,0,0,1,0,1.33,3,3,0,0,1-.37,1.17,1.39,1.39,0,0,1-1,.68h-1.54a14.49,14.49,0,0,1-6.09-1.2A8.09,8.09,0,0,1,274.7,48.38Z"/><path class="cls-1" d="M292.92,51a1.47,1.47,0,0,1,.05-.26c.06-.11.06-.16,0-.21.06-.5.11-1.1.19-1.8a6.23,6.23,0,0,1,.39-1.74,1.28,1.28,0,0,1,.57-.6A7.59,7.59,0,0,1,295,46l.84-.29a1.3,1.3,0,0,0,.62-.49s.08,0,.08-.19a1,1,0,0,0,0-.28c0-.08,0-.24,0-.47a6,6,0,0,0,0-.78,7.77,7.77,0,0,0,0-.83V42.1q-.15-4.65-.08-9.21c0-3.05,0-6.12-.21-9.17,0-.08,0-.23-.05-.47a5.39,5.39,0,0,1-.08-.75c0-.26-.05-.52-.05-.73a4,4,0,0,1,0-.52.76.76,0,0,0-.54-.63l-.94-.23a3.1,3.1,0,0,1-.91-.37,1.23,1.23,0,0,1-.47-.93.15.15,0,0,0,0-.11.24.24,0,0,1,0-.1V17.71c0-.55,0-1.15,0-1.78s0-1.22,0-1.77V13c.08-.31.18-.67.29-1.14s.33-.73.62-.81l.11.05h.1a11.48,11.48,0,0,0,2.39.13c1.05,0,2.09,0,3.16.06a17.42,17.42,0,0,1,3,.39,3.12,3.12,0,0,1,2,1.12,1.78,1.78,0,0,1,.29,1.09,10.81,10.81,0,0,0,.05,1.15,10.62,10.62,0,0,1-.16,3.43,2.8,2.8,0,0,1-.73,1.33,1.88,1.88,0,0,1-.88.44c-.32.08-.5.39-.58.91a37.59,37.59,0,0,0-.46,4.82c-.06,1.62,0,3.2,0,4.82s.13,3.2.26,4.79.21,3.18.29,4.79v1.67c0,.39,0,.73,0,1.06s0,.52,0,.6v.47a1,1,0,0,0,.52.91c.31.16.65.29,1,.45a5,5,0,0,1,1.07.52,1.59,1.59,0,0,1,.6,1.17c0,.26,0,.65,0,1.17a7.88,7.88,0,0,1-.07,1.54,4.59,4.59,0,0,1-.42,1.4,1.15,1.15,0,0,1-1,.68,9.21,9.21,0,0,1-2.61.1,14.06,14.06,0,0,0-2.6,0c-.11,0-.39,0-.84.08l-1.38.18c-.46.06-.93.11-1.38.13a5.67,5.67,0,0,1-.83.06,2.81,2.81,0,0,1-1.48-.32A1.62,1.62,0,0,1,292.92,51Z"/><path class="cls-1" d="M329.69,51.71a1,1,0,0,0-.55.18l-.63.37a5,5,0,0,0-.54.39c-.16.13-.24.23-.29.26a5.14,5.14,0,0,1-1.77.47c-.65,0-1.25,0-1.82,0a7,7,0,0,1-3.75-.91,11.3,11.3,0,0,1-3.13-2.58A15.24,15.24,0,0,1,315,46.35a14.37,14.37,0,0,1-1.17-3.86,28.32,28.32,0,0,1-.37-4.55c0-1.54-.05-3.08-.08-4.61a34.16,34.16,0,0,1,.39-6.25,23.63,23.63,0,0,1,1.72-6,17.77,17.77,0,0,1,1.38-2.42,16.76,16.76,0,0,1,2-2.42,18.17,18.17,0,0,1,2.37-2A7.1,7.1,0,0,1,323.7,13l.91-.06a7.86,7.86,0,0,1,.91-.05,12.73,12.73,0,0,1,4,.45,4.76,4.76,0,0,1,2.37,1.56A6.18,6.18,0,0,1,333,17.68a31,31,0,0,1,.34,4.19v.55c0,.26,0,.52,0,.81a7.86,7.86,0,0,1,0,.83v.57c-.05.31-.08.63-.11,1a6,6,0,0,1-.2,1,2.29,2.29,0,0,1-.45.81,1,1,0,0,1-.8.34,10.24,10.24,0,0,1-2.11-.29,7.67,7.67,0,0,1-1.49-.44c-.47-.18-.67-.42-.67-.73l-.06-4.17a1.73,1.73,0,0,0-.7-1.38,2.25,2.25,0,0,0-1.46-.57,3.93,3.93,0,0,0-3.07,1.64,12.82,12.82,0,0,0-2,3.75,24.36,24.36,0,0,0-1.07,4.48,31,31,0,0,0-.31,3.83,29.78,29.78,0,0,0,.37,3.41,18,18,0,0,0,1,3.93,9.48,9.48,0,0,0,1.9,3.2,3.78,3.78,0,0,0,3,1.3,2.26,2.26,0,0,0,1.67-.75,2.17,2.17,0,0,0,.52-1.72,1.41,1.41,0,0,0,0-.29c0-.15,0-.31-.05-.49a3.25,3.25,0,0,0-.1-.47c-.06-.13-.14-.21-.21-.21l-2.69,0a.58.58,0,0,1-.36-.2,2,2,0,0,1-.37-.5,5.68,5.68,0,0,1-.28-.55,1,1,0,0,1-.11-.44l-.05-3.72a1.13,1.13,0,0,1,.47-.94,1.46,1.46,0,0,1,1-.36h.23c.19,0,.53.1,1,.23l.89.24,7.39-.24c.08,0,.18.11.31.31s.24.37.31.5a.49.49,0,0,0,.08.1l.08.11c0,.07.08.13.11.18s0,.34-.06.68a3.28,3.28,0,0,1-.1.67l.29,15.13a.91.91,0,0,1-.32.73.93.93,0,0,1-.59.26,5.65,5.65,0,0,1-1.7-.16,4.77,4.77,0,0,1-1.51-.67,1.35,1.35,0,0,1-.57-.86C330.26,51.92,330,51.71,329.69,51.71Z"/><path class="cls-1" d="M358.23,53.06a2,2,0,0,1-.58-.36,1.07,1.07,0,0,1-.34-.55L355.93,40a.47.47,0,0,0-.2-.39.36.36,0,0,0-.37-.11l-6.64.63,1.1,10a5.17,5.17,0,0,0,.52,1.7,5.24,5.24,0,0,1,.52,1.64c0,.23,0,.36-.05.41a1.13,1.13,0,0,1-.53.13,1.32,1.32,0,0,0-.31,0,1,1,0,0,1-.26,0H349c-.31,0-.65,0-1,0s-.65,0-.93,0a5,5,0,0,1-.55,0,5.12,5.12,0,0,1-1.67-.23,2.12,2.12,0,0,1-1-.68,3,3,0,0,1-.5-1.12c-.1-.44-.18-.94-.26-1.51-.18-2.11-.33-4.19-.46-6.28s-.21-4.19-.29-6.32c0,0,0-.24,0-.63s0-.81-.07-1.33-.08-1-.11-1.45-.08-.86-.1-1.12a17.81,17.81,0,0,1,.21-4c.2-1.23.44-2.56.7-4a2.71,2.71,0,0,1,.13-2.06q.47-1.09.78-1.95a3.6,3.6,0,0,0,.13-.86,3.56,3.56,0,0,1,.21-.91,1.12,1.12,0,0,1,0-.21c0-.11.08-.13.1-.13a20.37,20.37,0,0,0,1.1-2.32,11.06,11.06,0,0,1,1.27-2.32,10.5,10.5,0,0,1,1.25-1.4A16.63,16.63,0,0,1,349.61,12a11.11,11.11,0,0,1,1.79-1,7.48,7.48,0,0,1,1.85-.52,6.24,6.24,0,0,1,4,.7,6.67,6.67,0,0,1,2.27,2.45,12.8,12.8,0,0,1,1.27,3.31,33.29,33.29,0,0,0,1.05,3.36,4.19,4.19,0,0,0,.07.62,6.9,6.9,0,0,1,.13,1c.06.33.08.65.13.93a3.35,3.35,0,0,1,.08.6c.26,2.53.42,5.05.5,7.63s.13,5.1.26,7.63a13.7,13.7,0,0,1-.16,2,9.1,9.1,0,0,0-.08,2c0,.08,0,.29.05.6s.08.68.11,1.07a6.76,6.76,0,0,0,.15,1.06,2.43,2.43,0,0,1,.08.6v1.9a6,6,0,0,0,0,.6c0,.34.05.68.05,1.07s0,.73.05,1.07,0,.54,0,.65a7.56,7.56,0,0,1-.1,1,.89.89,0,0,1-.76.81h-.1l-.37-.06-.36-.05c-.11,0-.34,0-.68,0s-.7,0-1.07,0-.7,0-1,0A6.06,6.06,0,0,0,358.23,53.06Zm-9.4-20.62a1.07,1.07,0,0,0,.8,1,6.53,6.53,0,0,0,1.72.36,15.87,15.87,0,0,0,1.95,0c.66,0,1.15,0,1.49-.08l.47,0a3.42,3.42,0,0,1,.47,0,2.48,2.48,0,0,0,.18-.31c0-.1.08-.21.1-.31s0-.6-.05-1.12-.08-1.07-.08-1.69,0-1.18-.05-1.7,0-.88,0-1.12a1.66,1.66,0,0,0,.06-.52v-.57l-.58-5.57a4.18,4.18,0,0,0-.28-.91,4.33,4.33,0,0,0-.58-.94,2.56,2.56,0,0,0-.83-.68,1.78,1.78,0,0,0-1-.21,2,2,0,0,0-.86.29,8.44,8.44,0,0,0-2.34,4.06,25.31,25.31,0,0,0-.52,4.64c0,.91,0,1.82-.05,2.68A13.11,13.11,0,0,0,348.83,32.44Z"/><path class="cls-1" d="M384.79,54.86a25.67,25.67,0,0,1-1.72-2.73c-.42-.78-.89-1.64-1.43-2.55a4.43,4.43,0,0,0-.39-.5l-.55-.65a6.79,6.79,0,0,1-.44-.65.68.68,0,0,1-.05-.6c-.47-.65-.91-1.33-1.36-2s-.86-1.36-1.27-2h-.11a.24.24,0,0,1-.1-.05c-.34-.08-.47.08-.39.47s.08,1.06.1,2,.08,2.06.13,3.18.11,2.19.18,3.2.11,1.72.13,2.09l.06.18c-.08.1-.19.26-.34.44s-.26.24-.29.21l-5.83.39a.87.87,0,0,1-.86-.42,2.05,2.05,0,0,1-.39-.88c0-.05,0-.08,0-.08a.25.25,0,0,0,0-.13v-.18s0-.13.05-.32.08-.36.11-.54.08-.37.1-.52.05-.26.05-.29,0-.36-.07-.78a12.28,12.28,0,0,1-.13-1.25c-.06-.44-.08-.86-.11-1.22s-.05-.63-.05-.76v-1.4c0-.76,0-1.54,0-2.37s0-1.64,0-2.37,0-1.23,0-1.41,0-.55-.06-1-.08-1-.1-1.62-.08-1.09-.11-1.61-.05-.83-.05-1a1.82,1.82,0,0,0,.05-.52v-.52q.17-5,.06-9.85c-.08-3.25-.19-6.5-.29-9.79a5.85,5.85,0,0,0,0-.62c0-.31-.05-.63-.07-1a5.84,5.84,0,0,1-.08-1,6.44,6.44,0,0,1,0-.65c.08-.23.18-.36.31-.39a2.94,2.94,0,0,1,.45-.05c1.53-.1,3-.18,4.48-.21a15.76,15.76,0,0,1,4.08.45,9.42,9.42,0,0,1,3.47,1.64,8.29,8.29,0,0,1,2.57,3.25c.5,1,1,2,1.49,2.89a7.72,7.72,0,0,1,.86,3.07,12.69,12.69,0,0,1-1.17,6.38,17.89,17.89,0,0,1-4,5.37,1,1,0,0,0-.23.62,2.33,2.33,0,0,0,.44,1,1.22,1.22,0,0,1,.21,1l2.34,4.69V41l2.35,3.78a6.92,6.92,0,0,0,.49.94c.31.59.7,1.25,1.12,2s.81,1.48,1.15,2.24a6.86,6.86,0,0,1,.57,1.69,1.83,1.83,0,0,1-.37,1.15,5.42,5.42,0,0,1-1.06,1.14,9.07,9.07,0,0,1-1.33.89,2.86,2.86,0,0,1-1.2.36A1.35,1.35,0,0,1,384.79,54.86Zm-9.61-27.29c.16.19.29.34.37.45a1,1,0,0,0,.49.2,3,3,0,0,0,1.87-.83,5.17,5.17,0,0,0,1.1-1.66,7.28,7.28,0,0,0,.49-2,15.31,15.31,0,0,0,.11-1.77,7.22,7.22,0,0,0-.29-1.41A9.35,9.35,0,0,0,378.7,19a3.58,3.58,0,0,0-1-1.22,2.16,2.16,0,0,0-1.46-.45,1.18,1.18,0,0,0-.88.63,4.17,4.17,0,0,0-.45,1.33,10.44,10.44,0,0,0-.1,1.46v1a2.62,2.62,0,0,0,0,.39c0,.24.05.5.05.81s.05.62.05.94.05.57.08.78,0,.31,0,.57a7.8,7.8,0,0,1,.06.89c0,.33,0,.62.05.88S375.18,27.47,375.18,27.57Z"/><path class="cls-1" d="M410.23,54.86a24.14,24.14,0,0,1-1.72-2.73c-.42-.78-.91-1.64-1.43-2.55a4.43,4.43,0,0,0-.39-.5c-.19-.21-.37-.44-.55-.65a4.16,4.16,0,0,1-.42-.65.71.71,0,0,1-.05-.6c-.47-.65-.91-1.33-1.35-2l-1.28-2h-.1a.16.16,0,0,1-.11-.05c-.34-.08-.47.08-.39.47s.08,1.06.11,2,.07,2.06.13,3.18.13,2.19.18,3.2.1,1.72.13,2.09l.05.18c-.08.1-.18.26-.34.44s-.26.24-.29.21l-5.83.39a.88.88,0,0,1-.86-.42,2.05,2.05,0,0,1-.39-.88c0-.05,0-.08,0-.08a.25.25,0,0,0,0-.13v-.18s0-.13.06-.32.08-.36.1-.54.08-.37.11-.52.05-.26.05-.29,0-.36-.08-.78-.1-.83-.16-1.25-.08-.86-.1-1.22a5.5,5.5,0,0,1-.05-.76v-1.4c0-.76,0-1.54,0-2.37s0-1.64,0-2.37,0-1.23,0-1.41,0-.55-.05-1-.08-1-.1-1.62-.08-1.09-.11-1.61a9.5,9.5,0,0,1-.05-1,1.29,1.29,0,0,0,.05-.52v-.52q.17-5,.05-9.85c-.07-3.25-.18-6.5-.28-9.79a5.85,5.85,0,0,0,0-.62c0-.31-.05-.63-.08-1s-.07-.68-.07-1a6.44,6.44,0,0,1,0-.65c.08-.23.18-.36.31-.39a3,3,0,0,1,.42-.05c1.54-.1,3-.18,4.48-.21a15.84,15.84,0,0,1,4.09.45,9.45,9.45,0,0,1,3.46,1.64,8.4,8.4,0,0,1,2.58,3.25c.49,1,1,2,1.48,2.89a7.72,7.72,0,0,1,.86,3.07A12.58,12.58,0,0,1,411,28.17a17.89,17.89,0,0,1-4,5.37,1,1,0,0,0-.23.62,2.58,2.58,0,0,0,.42,1,1.26,1.26,0,0,1,.2,1l2.35,4.69V41l2.34,3.78a8,8,0,0,0,.5.94c.31.59.7,1.25,1.12,2s.8,1.48,1.14,2.24a5.48,5.48,0,0,1,.57,1.69,1.75,1.75,0,0,1-.36,1.15A5,5,0,0,1,414,53.92a8.57,8.57,0,0,1-1.33.89,2.82,2.82,0,0,1-1.19.36A1.26,1.26,0,0,1,410.23,54.86Zm-9.64-27.29c.16.19.26.34.37.45a1,1,0,0,0,.49.2,2.92,2.92,0,0,0,1.85-.83,5.15,5.15,0,0,0,1.09-1.66,8.1,8.1,0,0,0,.5-2A15.06,15.06,0,0,0,405,22a7.1,7.1,0,0,0-.28-1.41,9.39,9.39,0,0,0-.63-1.59,3.67,3.67,0,0,0-1-1.22,2.18,2.18,0,0,0-1.46-.45,1.2,1.2,0,0,0-.89.63,3.7,3.7,0,0,0-.41,1.33,9.14,9.14,0,0,0-.11,1.46v1a2.62,2.62,0,0,0,0,.39c0,.24,0,.5,0,.81s0,.62.05.94.05.57.08.78a4.82,4.82,0,0,0,0,.57c0,.26.05.57.05.89s0,.62.05.88A3.08,3.08,0,0,1,400.59,27.57Z"/><path class="cls-1" d="M436.1,53.06a2,2,0,0,1-.57-.36,1.07,1.07,0,0,1-.34-.55L433.81,40a.47.47,0,0,0-.2-.39c-.14-.11-.27-.16-.37-.11l-6.64.63,1.09,10a5.44,5.44,0,0,0,.53,1.7,5.24,5.24,0,0,1,.52,1.64c0,.23,0,.36-.06.41a1.08,1.08,0,0,1-.52.13,1.32,1.32,0,0,0-.31,0,1,1,0,0,1-.26,0h-.7c-.31,0-.65,0-1,0s-.65,0-.94,0a4.77,4.77,0,0,1-.54,0,5.12,5.12,0,0,1-1.67-.23,2.06,2.06,0,0,1-1-.68,3,3,0,0,1-.5-1.12c-.1-.44-.18-.94-.26-1.51-.18-2.11-.34-4.19-.47-6.28s-.2-4.19-.28-6.32c0,0,0-.24,0-.63s-.05-.81-.08-1.33-.07-1-.1-1.45-.08-.86-.1-1.12a18.45,18.45,0,0,1,.2-4c.21-1.23.45-2.56.71-4a2.66,2.66,0,0,1,.13-2.06q.47-1.09.78-1.95a3.6,3.6,0,0,0,.13-.86,3.18,3.18,0,0,1,.21-.91,1.12,1.12,0,0,1,0-.21c0-.11.08-.13.1-.13a22.23,22.23,0,0,0,1.1-2.32,11.06,11.06,0,0,1,1.27-2.32,10.5,10.5,0,0,1,1.25-1.4A16.63,16.63,0,0,1,427.49,12a11.11,11.11,0,0,1,1.79-1,7.48,7.48,0,0,1,1.85-.52,6.24,6.24,0,0,1,4,.7,6.76,6.76,0,0,1,2.27,2.45,12.8,12.8,0,0,1,1.27,3.31,33.33,33.33,0,0,0,1,3.36,4.67,4.67,0,0,0,.08.62,8.77,8.77,0,0,1,.13,1c.05.33.08.65.13.93a4.71,4.71,0,0,1,.08.6c.26,2.53.42,5.05.5,7.63s.13,5.1.26,7.63a13.7,13.7,0,0,1-.16,2,9.1,9.1,0,0,0-.08,2c0,.08,0,.29,0,.6s.08.68.11,1.07a6.76,6.76,0,0,0,.15,1.06,2.43,2.43,0,0,1,.08.6v1.9a6,6,0,0,0,0,.6c0,.34.05.68.05,1.07s0,.73.05,1.07,0,.54,0,.65a6.51,6.51,0,0,1-.11,1,.88.88,0,0,1-.75.81h-.11l-.36-.06-.36-.05c-.11,0-.34,0-.68,0s-.7,0-1.07,0-.7,0-1,0A5.72,5.72,0,0,0,436.1,53.06Zm-9.37-20.62a1.08,1.08,0,0,0,.81,1,6.44,6.44,0,0,0,1.72.36,15.87,15.87,0,0,0,1.95,0c.65,0,1.15,0,1.48-.08.08,0,.24,0,.47,0a3.5,3.5,0,0,1,.47,0,1.65,1.65,0,0,0,.18-.31c0-.1.08-.21.11-.31s0-.6-.05-1.12a14.74,14.74,0,0,1-.08-1.69c0-.6,0-1.18-.05-1.7s0-.88,0-1.12a1.77,1.77,0,0,0,.05-.52v-.57l-.57-5.57a3.76,3.76,0,0,0-.29-.91,4.29,4.29,0,0,0-.57-.94,2.67,2.67,0,0,0-.83-.68,1.78,1.78,0,0,0-1-.21,2,2,0,0,0-.86.29,8.46,8.46,0,0,0-2.35,4.06,26.21,26.21,0,0,0-.52,4.64c0,.91,0,1.82,0,2.68A13.83,13.83,0,0,0,426.73,32.44Z"/><path class="cls-1" d="M445.06,44.32a2.13,2.13,0,0,1,1.46-1.41,6.88,6.88,0,0,1,2.52-.18,25.94,25.94,0,0,1,3.26.54c1.19.26,2.44.53,3.75.76a3.5,3.5,0,0,0,1.4-.39,5.16,5.16,0,0,0,1.12-.89,8.33,8.33,0,0,0,1-1.22c.32-.47.63-.91,1-1.38a.68.68,0,0,0,.1-.26.65.65,0,0,0,0-.26l-.23-3.39a4.5,4.5,0,0,1-.7-.57c-.39-.34-.73-.6-.94-.81a2.47,2.47,0,0,0-.44-.31,1.48,1.48,0,0,0-.42-.21A33.11,33.11,0,0,0,454.17,33a22.6,22.6,0,0,1-3.25-1.22,9.5,9.5,0,0,1-2.76-1.95A10.26,10.26,0,0,1,446,26.27c0-.1,0-.28,0-.52l-.08-.7a6.51,6.51,0,0,1-.08-.68,2.71,2.71,0,0,1,0-.42c-.05-.54-.07-1.09-.15-1.71a3.64,3.64,0,0,1,.21-1.72,5.32,5.32,0,0,1,.23-.84c.1-.39.26-.8.39-1.22s.29-.83.44-1.2.21-.65.26-.8v-.34c.24-.34.45-.6.63-.81s.36-.39.54-.6.32-.36.42-.49A15.75,15.75,0,0,1,452.53,11a11.6,11.6,0,0,1,4.56-1.38,11.23,11.23,0,0,1,2.18.19,18.46,18.46,0,0,1,2.87.7,10.48,10.48,0,0,1,2.52,1.17,2.1,2.1,0,0,1,1.15,1.56,5.17,5.17,0,0,1-.05,1.38,12.86,12.86,0,0,1-.37,1.72,6.33,6.33,0,0,1-.67,1.51,1.33,1.33,0,0,1-1,.7,16.37,16.37,0,0,1-3,0,15.42,15.42,0,0,0-3,0,10.48,10.48,0,0,0-1.18.11c-.6.07-1,.1-1.17.1a2.38,2.38,0,0,1-.55.26,5.21,5.21,0,0,0-.75.37,4.78,4.78,0,0,0-.63.44.62.62,0,0,0-.26.47l.29,3.43a.75.75,0,0,0,.36.55c.24.18.53.34.81.52a6.32,6.32,0,0,0,.89.47l.62.26c1.54.73,2.92,1.41,4.19,2.06a13.57,13.57,0,0,1,3.26,2.29A10.76,10.76,0,0,1,465.86,33a13.84,13.84,0,0,1,1.07,4.51,13.84,13.84,0,0,1-.31,4.63,12.59,12.59,0,0,1-1.77,4.09,10.39,10.39,0,0,1-3.13,3,9.8,9.8,0,0,1-4.29,1.44,20.19,20.19,0,0,1-4.12.05,12.78,12.78,0,0,1-3.85-.86,7.71,7.71,0,0,1-2.94-2A5,5,0,0,1,445.06,44.32Z"/></g></g></svg>