<svg xmlns="http://www.w3.org/2000/svg" viewBox="0 0 774.32 44.72"><defs><style>.cls-1{fill:#2fac66;}</style></defs><title>titulo</title><g id="Layer_2" data-name="Layer 2"><g id="Layer_1-2" data-name="Layer 1"><path class="cls-1" d="M1.4,42.57a5.07,5.07,0,0,1-.46-.35.61.61,0,0,1-.23-.49,26.25,26.25,0,0,1,0-5.39A49.37,49.37,0,0,0,1,31c0-2.23-.07-4.46-.2-6.71S.59,19.73.43,17.48.18,13,.08,10.77,0,6.34.05,4.13A1.78,1.78,0,0,1,.26,3.4a.81.81,0,0,1,.58-.46A6.82,6.82,0,0,1,2.16,3,4,4,0,0,0,3.42,3c.15,0,.43,0,.84,0A11.61,11.61,0,0,0,5.55,3C6,3,6.43,3,6.84,2.94s.68,0,.84,0,.17,0,.45,0A6.46,6.46,0,0,1,9,2.77c.3,0,.55-.08.81-.11a2.25,2.25,0,0,1,.48-.05c.23,0,.58,0,1.09,0s1,0,1.49,0a9.76,9.76,0,0,1,1.37.23.76.76,0,0,1,.66.66l.38,4.68a.84.84,0,0,1-.38.76A2.41,2.41,0,0,1,14,9.2a8.39,8.39,0,0,1-2.23-.08,8.23,8.23,0,0,0-2.28-.07c-.17,0-.43,0-.73,0l-.91.13a2.48,2.48,0,0,0-.81.35.72.72,0,0,0-.33.66,35.76,35.76,0,0,1,0,4.63,29.32,29.32,0,0,0,0,4.69c0,.18,0,.43,0,.73a1.26,1.26,0,0,0,.35.71,1.81,1.81,0,0,0,.71.25,5,5,0,0,0,1,.08c.32,0,.65,0,.93,0a6.2,6.2,0,0,1,.66,0l.84-.05c.4,0,.83-.08,1.29-.13l1.29-.15.83-.05a.3.3,0,0,1,.28.2.46.46,0,0,1,.1.28L15.47,25a1.69,1.69,0,0,1-.25,1,1,1,0,0,1-.76.56,9.14,9.14,0,0,1-2.45,0,10,10,0,0,0-2.51-.08,2.1,2.1,0,0,0-1.12.41,1.44,1.44,0,0,0-.45.76,3.93,3.93,0,0,0-.1,1v1.16c0,.1,0,.38,0,.81s-.08.89-.16,1.37-.07.91-.1,1.32a4.22,4.22,0,0,1-.1.78c.08,0,.1.15,0,.33a.64.64,0,0,0,0,.43,3.64,3.64,0,0,0,.1.81.56.56,0,0,0,.61.48h6.48a6.41,6.41,0,0,1,1.63.18c.48.1.81.53,1,1.22a3.93,3.93,0,0,0,.07.53c0,.28.11.58.18.93s.1.71.18,1.07a8.14,8.14,0,0,0,.15.81v.33c.08.53-.05.81-.38.88s-.71.16-1.11.23a26.27,26.27,0,0,1-4.69.13c-1.62-.08-3.16-.13-4.73-.18a3.71,3.71,0,0,0-.84,0l-.78.07c-.16,0-.43,0-.81,0l-1.22.07c-.43.05-.83.08-1.19.1S1.55,42.57,1.4,42.57Z"/><path class="cls-1" d="M25.67,39.46a38.8,38.8,0,0,1-.22-6.41c.1-2.2.12-4.36.05-6.46s-.18-4-.33-5.87S25,16.84,25,14.84c0-2.15,0-4.15,0-6a38.5,38.5,0,0,0-.43-5.9,1.83,1.83,0,0,1,.91-1.37A4,4,0,0,1,27.09,1a8.18,8.18,0,0,1,2,0,2.86,2.86,0,0,1,1.8.83c0,.08,0,.23,0,.46a3.21,3.21,0,0,1,0,.43,18.83,18.83,0,0,1-.05,4.23,21.59,21.59,0,0,0-.16,4.18c0,.15,0,.71.08,1.69s.13,2.1.2,3.37.15,2.53.23,3.82.13,2.31.18,3c.1,1.8.17,3.52.2,5.22s.13,3.42.3,5.16c.1.71.43,1.12.91,1.22a7.17,7.17,0,0,0,1.65.13c.58,0,1.14,0,1.65,0s.78.36.86.94c0,1.19,0,2.15-.08,2.86a19.15,19.15,0,0,1-.25,2c-.1.61-.31.89-.56.89a.28.28,0,0,1-.2,0H35.7c-1.42-.08-2.86-.13-4.35-.2s-3-.15-4.46-.31a1,1,0,0,1-.91-.4A3.13,3.13,0,0,1,25.67,39.46Z"/><path class="cls-1" d="M72.74,42.47a3.55,3.55,0,0,0,0-.91c0-.46-.08-.76-.08-.91a19.26,19.26,0,0,1,0-3.32c.1-1.07.2-2.18.35-3.37a.51.51,0,0,0,0-.3,1.54,1.54,0,0,1,0-.26,20.39,20.39,0,0,1,.2-2.73c.13-.89.2-1.8.26-2.74a48.84,48.84,0,0,0-.06-5.14c-.1-1.67-.15-3.36-.1-5.06a5.92,5.92,0,0,1,0-.66c0-.3,0-.58,0-.88s0-.56.05-.81a3.92,3.92,0,0,0,0-.49c0-.07,0-.25,0-.5s.07-.53.1-.81.07-.53.1-.79a2.25,2.25,0,0,0,0-.48v-.15a.67.67,0,0,0-.28-.58,1.76,1.76,0,0,0-.56-.26,26.28,26.28,0,0,1-3.19,0,28.44,28.44,0,0,0-3.19,0,2.06,2.06,0,0,1-.83-.4c0-.18,0-.53-.05-1s-.08-.83-.1-1c0-.32-.11-.86-.21-1.57a18.71,18.71,0,0,1-.17-2.15,6.61,6.61,0,0,1,.2-1.95,1.16,1.16,0,0,1,.93-1h.23l18.56.18a.74.74,0,0,1,.61.26A1.56,1.56,0,0,1,86,3.3a2.78,2.78,0,0,1,.21.71c0,.25.05.43.05.58s0,.18,0,.43,0,.53.08.84.08.63.1.93.05.58.05.81a4.59,4.59,0,0,0,0,.56c0,.25,0,.56.05.86s0,.61,0,.89,0,.48,0,.58a1,1,0,0,1-.17.56.63.63,0,0,1-.46.32,16.41,16.41,0,0,1-2.79.23,20.06,20.06,0,0,0-2.78.18,1.29,1.29,0,0,1-.51,0,.6.6,0,0,0-.5.25,1.9,1.9,0,0,0-.43.94A8.71,8.71,0,0,0,79,14.13c0,.38,0,.79,0,1.17s0,.73,0,1c-.18,4.15-.28,8.33-.28,12.51a96,96,0,0,0,.79,12.38,5.25,5.25,0,0,1-.15,1.11.88.88,0,0,1-.76.74h0a3.3,3.3,0,0,1-.46,0L77.4,43a4.15,4.15,0,0,0-.76,0h-.38a2.46,2.46,0,0,0-.86,0c-.35,0-.71,0-1.06,0a6.65,6.65,0,0,1-1-.1A1,1,0,0,1,72.74,42.47Z"/><path class="cls-1" d="M92.11,42.57c-.15-.1-.3-.23-.46-.35a.6.6,0,0,1-.22-.49,25.56,25.56,0,0,1,0-5.39A49.4,49.4,0,0,0,91.76,31c0-2.23-.08-4.46-.21-6.71s-.28-4.48-.4-6.74-.28-4.48-.36-6.71-.1-4.43,0-6.63a1.75,1.75,0,0,1,.2-.74A.82.82,0,0,1,91.55,3a5.53,5.53,0,0,1,1.32,0,4.33,4.33,0,0,0,1.27,0c.15,0,.43,0,.83,0s.84,0,1.32,0,.88-.05,1.31-.05.69,0,.84,0,.18,0,.46,0a6.51,6.51,0,0,1,.83-.1c.31,0,.56-.08.81-.11a2.36,2.36,0,0,1,.48-.05c.23,0,.59,0,1.09,0s1,0,1.5,0a9.6,9.6,0,0,1,1.36.23c.41.1.64.33.66.66L106,8.13a.8.8,0,0,1-.38.76,1.89,1.89,0,0,1-.83.36,8.33,8.33,0,0,1-2.23-.08,8.66,8.66,0,0,0-2.28-.07c-.18,0-.43,0-.74,0s-.6.08-.91.13a2.3,2.3,0,0,0-.81.33.74.74,0,0,0-.33.66,35.75,35.75,0,0,1,0,4.63,29.16,29.16,0,0,0,0,4.68c0,.18,0,.43,0,.74a1.3,1.3,0,0,0,.33.73,2,2,0,0,0,.71.26,6.41,6.41,0,0,0,1,.07c.33,0,.66,0,.94,0a6,6,0,0,1,.66,0l.83-.05c.41,0,.84-.08,1.29-.13l1.29-.15.84,0a.31.31,0,0,1,.28.2.68.68,0,0,1,.1.31l.38,3.62a1.76,1.76,0,0,1-.25,1,1.06,1.06,0,0,1-.76.56,8.82,8.82,0,0,1-2.46,0,10.48,10.48,0,0,0-2.51-.07,2.07,2.07,0,0,0-1.11.4,1.49,1.49,0,0,0-.46.76,4.49,4.49,0,0,0-.1,1v1.17c0,.1,0,.38,0,.81A11.68,11.68,0,0,1,98.39,32c0,.48-.1.93-.15,1.34a7.46,7.46,0,0,1-.1.78c.07,0,.1.16,0,.33a.54.54,0,0,0,0,.43,3.13,3.13,0,0,0,.1.81.56.56,0,0,0,.61.48h6.48a6.33,6.33,0,0,1,1.62.18c.48.1.81.53,1,1.22a4.82,4.82,0,0,0,.08.53c0,.28.1.58.18.94s.1.7.17,1.06a8.14,8.14,0,0,0,.15.81v.33c.08.53,0,.81-.38.88s-.7.16-1.11.23a26.16,26.16,0,0,1-4.68.13c-1.57-.1-3.12-.15-4.69-.2a2.9,2.9,0,0,0-.83,0l-.79.08c-.15,0-.43,0-.81,0l-1.21.08c-.43,0-.84.07-1.19.07S92.26,42.57,92.11,42.57Z"/><path class="cls-1" d="M114.12,38.34a32.38,32.38,0,0,1,1.65-2.91c.76-1.24,1.54-2.56,2.3-3.93s1.47-2.68,2.05-3.95a7.87,7.87,0,0,0,.89-3.06,2.41,2.41,0,0,0-.25-1.11c-.18-.33-.36-.66-.54-.94-.07-.08-.2-.28-.43-.58s-.43-.66-.71-1l-.7-1a2.86,2.86,0,0,1-.36-.63c-.07-.15-.25-.51-.56-1.09s-.6-1.19-.93-1.87-.64-1.3-.91-1.88a11.38,11.38,0,0,0-.59-1.09,3.21,3.21,0,0,0-.4-.6,9.79,9.79,0,0,1-.63-.89,6.49,6.49,0,0,1-.61-1.06,2.55,2.55,0,0,1-.28-1.07,3.11,3.11,0,0,1,.53-1.92c.36-.46.73-1,1.14-1.55.1-.1.33-.33.61-.65s.61-.69.91-1.07.61-.73.89-1.06.48-.58.58-.74H118a.93.93,0,0,1,.58.31c.2.2.35.38.48.53.53.86,1,1.72,1.52,2.61s1,1.77,1.57,2.63,1.09,1.72,1.67,2.53a18.11,18.11,0,0,0,1.92,2.28c.18-.33.48-1,.91-1.95s.92-2,1.42-3,1-2.07,1.42-3,.76-1.65.94-2a2.12,2.12,0,0,0,.28-.46c.1-.23.2-.36.27-.38l0-.05.18.05a1.08,1.08,0,0,1,.33.25c.18.18.31.28.38.36s.41.33.79.66.76.68,1.19,1.06L135,6c.38.33.63.56.78.66s.18.25.2.28a.82.82,0,0,1,0,.33,1.78,1.78,0,0,1,0,.48,1.94,1.94,0,0,1-.2.4c-1,2.13-2,4.23-2.91,6.36a64.54,64.54,0,0,0-2.53,6.68v.64c0,.1.12.38.25.83a6.55,6.55,0,0,0,.3.89c.11.25.33.68.69,1.32s.73,1.26,1.11,2,.76,1.34,1.14,1.95.63,1,.79,1.31a2.46,2.46,0,0,0,.2.48c.13.28.28.59.4.91s.31.69.46,1,.25.64.33.81a7.1,7.1,0,0,0,.33.84c.15.33.3.66.45,1s.33.81.51,1.17V37c-.4.54-.81,1-1.16,1.45s-.64.83-1,1.26-.63.79-.86,1.09c-.1.13-.31.33-.56.63s-.53.66-.81,1-.56.68-.81,1-.43.53-.51.63l-.28-.33c-.81-2-1.64-3.87-2.45-5.64s-1.72-3.62-2.69-5.6c-.17-.3-.35-.56-.5-.81a2.25,2.25,0,0,0-.56-.63c-.15.38-.43,1-.86,1.95s-.89,1.92-1.34,3-.91,2-1.34,3-.71,1.57-.86,1.9-.26.51-.46.91-.38.86-.58,1.32a9.48,9.48,0,0,1-.64,1.17c-.22.32-.45.5-.65.5h-.11a.05.05,0,0,1,0,0c-.15-.15-.4-.43-.78-.81l-1.19-1.21-1.22-1.22c-.38-.38-.65-.68-.81-.86a.46.46,0,0,1-.2-.23,1.52,1.52,0,0,0-.2-.33c-.1-.15-.2-.28-.28-.38Z"/><path class="cls-1" d="M147.06,42.47a4.33,4.33,0,0,0,0-.91c-.05-.46-.07-.76-.07-.91a20.36,20.36,0,0,1,0-3.32c.1-1.07.2-2.18.36-3.37a.75.75,0,0,0,0-.3,1.54,1.54,0,0,1-.05-.26,16.4,16.4,0,0,1,.2-2.73c.12-.89.2-1.8.25-2.74a48.86,48.86,0,0,0-.05-5.14c-.1-1.67-.15-3.36-.1-5.06,0-.15,0-.38,0-.66s0-.58.06-.88,0-.56.05-.81,0-.41,0-.49,0-.25,0-.5.08-.53.1-.81.08-.53.1-.79,0-.4,0-.48v-.15a.69.69,0,0,0-.27-.58,1.76,1.76,0,0,0-.56-.26,26.3,26.3,0,0,1-3.19,0,28.42,28.42,0,0,0-3.19,0A2.1,2.1,0,0,1,140,11c0-.18,0-.53-.05-1a7,7,0,0,0-.1-1c0-.32-.1-.86-.2-1.57a21.24,21.24,0,0,1-.18-2.15,7,7,0,0,1,.2-1.95,1.18,1.18,0,0,1,.94-1h.23l18.53.18a.74.74,0,0,1,.61.26,1.72,1.72,0,0,1,.36.58,3.23,3.23,0,0,1,.2.71c0,.25.05.43.05.58s0,.18,0,.43.05.53.08.84.08.63.1.93.05.58.05.81a4.59,4.59,0,0,0,0,.56c0,.25,0,.56,0,.86s0,.61.05.89,0,.48,0,.58a1,1,0,0,1-.17.56.61.61,0,0,1-.46.32,16.38,16.38,0,0,1-2.78.23,20.11,20.11,0,0,0-2.79.18,1.28,1.28,0,0,1-.51,0,.6.6,0,0,0-.5.25,1.72,1.72,0,0,0-.41.94,8.68,8.68,0,0,0-.07,1.13c0,.38,0,.79.05,1.17s0,.73,0,1c-.18,4.15-.28,8.33-.28,12.51a96,96,0,0,0,.78,12.38,5.25,5.25,0,0,1-.15,1.11.86.86,0,0,1-.76.74h0a3.19,3.19,0,0,1-.45,0l-.76-.08a4.2,4.2,0,0,0-.76,0h-.38a2.46,2.46,0,0,0-.86,0c-.36,0-.71,0-1.07,0a6.65,6.65,0,0,1-1-.1A1,1,0,0,1,147.06,42.47Z"/><path class="cls-1" d="M165.64,33.15a3.82,3.82,0,0,1-.07-.61c0-.25,0-.53,0-.78s0-.48-.05-.69a2.75,2.75,0,0,1,0-.43c0-.71-.08-1.62-.1-2.76s-.08-2.25-.1-3.36-.08-2.11-.1-3,0-1.34,0-1.44c0-1.11,0-2.33.07-3.65s.18-2.65.36-4a20.4,20.4,0,0,1,.91-4,12.49,12.49,0,0,1,1.69-3.41,8.44,8.44,0,0,1,2.71-2.46,9.07,9.07,0,0,1,4-1.11h1.11a17.69,17.69,0,0,1,3,.7,9.59,9.59,0,0,1,2.6,1.3,9,9,0,0,1,2,1.92,8,8,0,0,1,1.32,2.68c0,.16.07.51.15,1.09s.05.91.05,1.09,0,.74,0,1.32,0,.91,0,1c0,.38,0,1.19,0,2.43s.06,2.6.08,4.07.08,2.89.08,4.28,0,2.43,0,3.09c0,.94,0,2,0,3.19s0,2.46-.1,3.77a34.93,34.93,0,0,1-.51,3.85,11.29,11.29,0,0,1-1.19,3.4,7.68,7.68,0,0,1-2.18,2.48A6.13,6.13,0,0,1,178,44.27a12.39,12.39,0,0,1-3.37-.23c-1.06-.23-2.15-.53-3.27-.89a6.34,6.34,0,0,1-2.73-1.57,8.41,8.41,0,0,1-1.7-2.45,13,13,0,0,1-.93-3A24.66,24.66,0,0,1,165.64,33.15Zm7.42-.38a5.05,5.05,0,0,0,.68,2.1,1.9,1.9,0,0,0,1.93.81,1.78,1.78,0,0,0,1.34-.53,2.48,2.48,0,0,0,.63-1.16,6.45,6.45,0,0,0,.23-1.47c0-.51,0-1,.08-1.45v-.48c0-.25,0-.5,0-.78a7.13,7.13,0,0,0,0-.79v-.4c.1-1.9.18-3.62.18-5.22s-.05-3.31-.18-5.21c0-.23,0-.59-.05-1.09s-.08-1-.1-1.62-.08-1.12-.1-1.62-.06-.86-.06-1.09a5.51,5.51,0,0,0-.4-.91c-.2-.38-.43-.76-.66-1.12a4.86,4.86,0,0,0-.83-.91,1.23,1.23,0,0,0-1.9.15,3.38,3.38,0,0,0-.66,1.14,6.37,6.37,0,0,0-.38,1.37c-.1.45-.15.83-.2,1.14a2.13,2.13,0,0,0-.11.56c0,.3-.07.63-.12,1a10.15,10.15,0,0,1-.18,1.06,5.37,5.37,0,0,0-.07.61v2.28c0,.56,0,1.11,0,1.64s0,1,0,1.24v.46a.32.32,0,0,0,0,.18.32.32,0,0,1,0,.18v.22c0,.38.1,1,.2,1.95s.2,1.9.3,2.91.2,2,.28,2.92A15.24,15.24,0,0,0,173.06,32.77Z"/><path class="cls-1" d="M214.19,33.71a2.06,2.06,0,0,1,1.41-1.37,7,7,0,0,1,2.46-.18,31.21,31.21,0,0,1,3.17.53c1.16.26,2.38.51,3.64.74a3.43,3.43,0,0,0,1.37-.41,4.58,4.58,0,0,0,1.09-.86,8.64,8.64,0,0,0,.94-1.19c.3-.45.6-.88.93-1.34a.67.67,0,0,0,.1-.25,1.38,1.38,0,0,0,0-.26l-.22-3.29a5.67,5.67,0,0,1-.71-.55l-.91-.79a2.49,2.49,0,0,0-.43-.3,1.49,1.49,0,0,0-.41-.21A32.52,32.52,0,0,0,223,22.64a21.8,21.8,0,0,1-3.16-1.19,9.29,9.29,0,0,1-2.69-1.9,10,10,0,0,1-2.07-3.41,3.68,3.68,0,0,0,0-.51c0-.23,0-.46-.07-.68a6.1,6.1,0,0,1-.08-.69,3.94,3.94,0,0,1,0-.4c0-.54-.08-1.09-.16-1.67a3.63,3.63,0,0,1,.21-1.68,7.32,7.32,0,0,0,.22-.78c.11-.38.26-.79.38-1.19s.28-.81.43-1.17.21-.63.26-.78V6.31a8,8,0,0,1,.61-.78l.53-.59c.17-.2.3-.35.4-.48a15.52,15.52,0,0,1,3.65-3.11A11.16,11.16,0,0,1,225.86,0,10.39,10.39,0,0,1,228,.18a23.8,23.8,0,0,1,2.78.66A11,11,0,0,1,233.23,2a2,2,0,0,1,1.11,1.55,5.84,5.84,0,0,1-.05,1.34,12.74,12.74,0,0,1-.35,1.67A6,6,0,0,1,233.28,8a1.28,1.28,0,0,1-1,.68,15.51,15.51,0,0,1-2.89,0,14.87,14.87,0,0,0-2.91,0c-.17,0-.55,0-1.14.1a9.08,9.08,0,0,1-1.14.1,2.57,2.57,0,0,1-.53.26,4.85,4.85,0,0,0-.73.35,3.92,3.92,0,0,0-.61.43.6.6,0,0,0-.25.46l.28,3.34a.72.72,0,0,0,.35.53c.23.18.51.33.78.51a6.66,6.66,0,0,0,.87.48l.6.25c1.5.71,2.84,1.37,4.08,2a13.31,13.31,0,0,1,3.17,2.23,10.58,10.58,0,0,1,2.15,3,13.62,13.62,0,0,1,1,4.38,13.39,13.39,0,0,1-.31,4.51,12,12,0,0,1-1.72,4,10.53,10.53,0,0,1-3,2.94,9.22,9.22,0,0,1-4.18,1.39,19,19,0,0,1-4,.05,12.83,12.83,0,0,1-3.77-.83,7.65,7.65,0,0,1-2.86-2A5.58,5.58,0,0,1,214.19,33.71Z"/><path class="cls-1" d="M241.3,33.15a2.83,2.83,0,0,1-.08-.61c0-.25,0-.53-.05-.78s0-.48,0-.69a4.1,4.1,0,0,1,0-.43c0-.71-.08-1.62-.11-2.76s-.07-2.25-.1-3.36-.07-2.11-.1-3,0-1.34,0-1.44c0-1.11,0-2.33.08-3.65s.17-2.65.35-4a21.17,21.17,0,0,1,.91-4,12.51,12.51,0,0,1,1.7-3.41,8.44,8.44,0,0,1,2.71-2.46,9.06,9.06,0,0,1,4-1.11h1.12a17.36,17.36,0,0,1,3,.7,9.66,9.66,0,0,1,2.61,1.3,9.49,9.49,0,0,1,2,1.92,7.8,7.8,0,0,1,1.31,2.68c0,.16.08.51.15,1.09s.08,1,.08,1.14,0,.74,0,1.32,0,.91,0,1c0,.38,0,1.19,0,2.43s0,2.61.07,4.07.08,2.89.08,4.28,0,2.43,0,3.09c0,.94,0,2,0,3.19s0,2.46-.1,3.77a32.68,32.68,0,0,1-.51,3.85,11.29,11.29,0,0,1-1.19,3.4,7.68,7.68,0,0,1-2.18,2.48,6.13,6.13,0,0,1-3.39,1.09,12.42,12.42,0,0,1-3.37-.23c-1.06-.23-2.15-.53-3.26-.89a6.32,6.32,0,0,1-2.74-1.57,8.37,8.37,0,0,1-1.69-2.45,12.54,12.54,0,0,1-.94-3A16.09,16.09,0,0,1,241.3,33.15Zm7.39-.38a4.92,4.92,0,0,0,.69,2.1,1.89,1.89,0,0,0,1.92.81,1.78,1.78,0,0,0,1.34-.53,2.58,2.58,0,0,0,.64-1.16,7,7,0,0,0,.22-1.47c0-.51.05-1,.08-1.45v-.48a7,7,0,0,1,0-.78c0-.28,0-.53,0-.79v-.4c.1-1.9.18-3.62.18-5.22s-.05-3.31-.18-5.21c0-.23,0-.59,0-1.09s-.08-1-.1-1.62-.08-1.12-.1-1.62,0-.86,0-1.09a6.82,6.82,0,0,0-.41-.91c-.2-.38-.43-.76-.66-1.12a4.86,4.86,0,0,0-.83-.91,1.46,1.46,0,0,0-.91-.38,1.48,1.48,0,0,0-1,.53,3.38,3.38,0,0,0-.66,1.14,7,7,0,0,0-.38,1.37c-.1.45-.15.83-.2,1.14-.08,0-.1.23-.15.53s-.08.63-.13,1a10.36,10.36,0,0,1-.18,1.07,5.56,5.56,0,0,0-.07.6v2.28c0,.56,0,1.12,0,1.65s0,1,0,1.24v.46a.31.31,0,0,0,0,.17.32.32,0,0,1,0,.18v.23c0,.38.1,1,.2,1.95s.2,1.9.3,2.91.2,2,.28,2.91S248.67,32.39,248.69,32.77Z"/><path class="cls-1" d="M269.16,42.7c0-.31-.05-.54-.05-.74a2.84,2.84,0,0,1,.1-.73l0-11.65A62.76,62.76,0,0,1,268.5,21c-.05-2.91-.1-5.77-.23-8.56l-.3-3.9a31.7,31.7,0,0,1-.08-3.9,2.59,2.59,0,0,0-.08-.63.93.93,0,0,1,.08-.63,2.48,2.48,0,0,1,1-.79,7.81,7.81,0,0,1,1.39-.43A9.61,9.61,0,0,1,271.74,2L273,1.88a6.72,6.72,0,0,1,2.51.23,8.2,8.2,0,0,1,2.17,1,10.63,10.63,0,0,1,1.85,1.51A11.8,11.8,0,0,1,281,6.51a4.23,4.23,0,0,1,.35,1,4.09,4.09,0,0,0,.36,1l.37,3.67a3.79,3.79,0,0,0-.1.61c0,.33-.05.56-.05.66a8.19,8.19,0,0,1-.45,1.82,3.5,3.5,0,0,0-.23,1.75,2,2,0,0,0,.68,1.31A14,14,0,0,1,283,19.45l.61.66c.3.33.5.56.61.66s.05.33.25.66.46.71.73,1.14a10.63,10.63,0,0,1,.74,1.29,2,2,0,0,1,.25,1c0,.1.13.32.25.6s.26.61.38.94.23.63.33.91.16.48.21.58,0,.28.05.69a3.8,3.8,0,0,0,.17,1,16.81,16.81,0,0,1-.12,4.82A37.37,37.37,0,0,1,286.25,39a.66.66,0,0,1,0,.28c0,.1-.08.21-.1.28a16.2,16.2,0,0,1-1.24,2,3.94,3.94,0,0,1-2,1.31c-.15,0-.38,0-.71.05a8.82,8.82,0,0,0-1,.16c-.38.05-.71.1-1,.12a4.21,4.21,0,0,1-.7,0c-.23,0-.54,0-.89,0l-1.11.11a7.63,7.63,0,0,1-1,.07,4.3,4.3,0,0,1-.48,0l-.28,0a2.74,2.74,0,0,1-.51,0,3.32,3.32,0,0,1-.55,0,3.43,3.43,0,0,0-.38,0c-.48,0-1,0-1.55-.08s-1.06-.08-1.59-.08-1,.08-1.35.11S269.23,43.28,269.16,42.7Zm5.06-28.26a.41.41,0,0,0,.25.23,2.75,2.75,0,0,0,.31.05.38.38,0,0,0,.33-.28,5.71,5.71,0,0,0,.6-1.9,8.34,8.34,0,0,0,0-2,6.22,6.22,0,0,0-.12-.63,2,2,0,0,0-.28-.66,1.67,1.67,0,0,0-.48-.51.83.83,0,0,0-.66-.12l-.2.05a.4.4,0,0,1-.2.05l-.18.33Zm.28,22.74c0,.38.28.63.76.78a3,3,0,0,0,1.14.18,5.08,5.08,0,0,0,2.4-.79,3.52,3.52,0,0,0,1.29-1.49,5.93,5.93,0,0,0,.46-2,12.86,12.86,0,0,0-.1-2.23,17.27,17.27,0,0,0-1-4.25,7.45,7.45,0,0,0-2.74-3.5c-.25-.15-.48-.25-.68-.35a1.24,1.24,0,0,0-.76-.08.59.59,0,0,0-.51.28,2.93,2.93,0,0,0-.23.63,3.69,3.69,0,0,0,0,.76v5.25a2.44,2.44,0,0,1,.11.63c0,.35.05.56.05.63a25.48,25.48,0,0,1-.08,2.79A12,12,0,0,0,274.5,37.18Z"/><path class="cls-1" d="M309.69,44A23.85,23.85,0,0,1,308,41.3c-.4-.76-.88-1.59-1.39-2.48l-.38-.48c-.18-.2-.36-.43-.53-.63a3.71,3.71,0,0,1-.41-.63.69.69,0,0,1-.05-.59c-.46-.63-.89-1.29-1.32-2s-.83-1.31-1.24-1.95h-.1a.19.19,0,0,1-.1-.05c-.33-.07-.45.08-.38.46s.08,1,.1,2,.08,2,.13,3.09.1,2.12.18,3.11.1,1.67.12,2l.05.18a4.2,4.2,0,0,1-.33.43c-.15.17-.25.22-.27.2l-5.68.38a.88.88,0,0,1-.83-.43,1.85,1.85,0,0,1-.38-.86c0-.05,0-.08,0-.08s0-.08,0-.13v-.17s0-.13.05-.31.08-.35.1-.53.08-.35.1-.51a2,2,0,0,0,.05-.27c0-.1,0-.36-.07-.76s-.1-.81-.16-1.22-.07-.83-.1-1.19-.05-.61-.05-.73V35.86c0-.73,0-1.49,0-2.3s0-1.6-.05-2.31,0-1.19,0-1.37,0-.5-.05-1-.08-1-.1-1.57-.08-1.06-.1-1.57-.05-.81-.05-1a2,2,0,0,0,.05-.51v-.5q.15-4.87.05-9.58c-.08-3.16-.18-6.33-.28-9.52,0-.1,0-.3,0-.6s-.06-.61-.08-.94-.08-.66-.08-1,0-.53,0-.63a.6.6,0,0,1,.3-.41,2.87,2.87,0,0,1,.41-.05c1.49-.1,2.94-.17,4.35-.2a14.59,14.59,0,0,1,4,.46,8.84,8.84,0,0,1,3.36,1.59A8.2,8.2,0,0,1,309.31,6c.48,1,1,1.9,1.44,2.81a7.18,7.18,0,0,1,.84,3,12.24,12.24,0,0,1-1.14,6.2,17.17,17.17,0,0,1-3.87,5.21.93.93,0,0,0-.23.61,2.5,2.5,0,0,0,.43,1,1.16,1.16,0,0,1,.2.94l2.28,4.56v.18l2.28,3.67a5.28,5.28,0,0,0,.48.91c.31.58.68,1.21,1.09,2s.78,1.44,1.11,2.18a5.4,5.4,0,0,1,.56,1.64,1.78,1.78,0,0,1-.35,1.12,5.72,5.72,0,0,1-1,1.11,7.62,7.62,0,0,1-1.29.86,2.49,2.49,0,0,1-1.17.36A1.23,1.23,0,0,1,309.69,44Zm-9.34-26.51a3.52,3.52,0,0,0,.35.41,1,1,0,0,0,.48.2,3.09,3.09,0,0,0,1.83-.81,5.05,5.05,0,0,0,1.06-1.62,7.1,7.1,0,0,0,.48-1.93,14.07,14.07,0,0,0,.1-1.72,6,6,0,0,0-.28-1.36,8.87,8.87,0,0,0-.6-1.55,3.63,3.63,0,0,0-1-1.19,2.11,2.11,0,0,0-1.42-.43,1.06,1.06,0,0,0-.86.61,3.76,3.76,0,0,0-.41,1.29,9.88,9.88,0,0,0-.1,1.42v1a2.37,2.37,0,0,0,0,.38c0,.23,0,.49.05.79s0,.61.05.91.05.58.08.76,0,.3,0,.56a7.39,7.39,0,0,1,0,.86c0,.3,0,.61.05.86S300.35,17.35,300.35,17.45Z"/><path class="cls-1" d="M320.45,42.57c-.15-.1-.3-.23-.45-.35a.61.61,0,0,1-.23-.49,24.92,24.92,0,0,1,0-5.39,49.37,49.37,0,0,0,.3-5.39c0-2.23-.08-4.46-.2-6.71s-.28-4.48-.41-6.74-.28-4.48-.35-6.71-.1-4.43,0-6.63a1.91,1.91,0,0,1,.2-.74A.82.82,0,0,1,319.9,3a5.43,5.43,0,0,1,1.31,0,4.16,4.16,0,0,0,1.24,0c.16,0,.44,0,.84,0s.84,0,1.32,0,.88-.05,1.31-.05.69,0,.84,0l.45,0a6.91,6.91,0,0,1,.84-.1c.31,0,.56-.08.81-.11a2.3,2.3,0,0,1,.48-.05c.23,0,.58,0,1.09,0s1,0,1.49,0a9.51,9.51,0,0,1,1.37.23.75.75,0,0,1,.66.66l.38,4.68a.8.8,0,0,1-.38.76,1.87,1.87,0,0,1-.84.36,8.27,8.27,0,0,1-2.22-.08,8.66,8.66,0,0,0-2.28-.07c-.18,0-.43,0-.74,0s-.6.08-.91.13a2.3,2.3,0,0,0-.81.33.74.74,0,0,0-.33.66,35.75,35.75,0,0,1,0,4.63,29.16,29.16,0,0,0,.05,4.68c0,.18,0,.43.05.74a1.3,1.3,0,0,0,.33.73,1.91,1.91,0,0,0,.69.26,6.28,6.28,0,0,0,1,.07c.33,0,.66,0,.94,0a6.4,6.4,0,0,1,.66,0l.84-.05c.4,0,.83-.08,1.29-.13l1.29-.15.83,0a.3.3,0,0,1,.28.2.58.58,0,0,1,.1.31l.38,3.62a1.69,1.69,0,0,1-.25,1,1,1,0,0,1-.76.56,8.82,8.82,0,0,1-2.46,0,10.39,10.39,0,0,0-2.5-.07,2.07,2.07,0,0,0-1.12.4,1.41,1.41,0,0,0-.45.76,4,4,0,0,0-.1,1v1.17c0,.1,0,.38-.06.81a11.68,11.68,0,0,1-.15,1.37c-.05.48-.1.93-.12,1.34a7.46,7.46,0,0,1-.1.78c.07,0,.1.16.05.33a.54.54,0,0,0,.05.43,3.13,3.13,0,0,0,.1.81.56.56,0,0,0,.61.48h6.48a6.33,6.33,0,0,1,1.62.18c.48.1.81.53,1,1.22a4.82,4.82,0,0,0,.08.53c.05.28.1.58.17.94s.11.7.18,1.06A8.14,8.14,0,0,0,337,41v.33c.08.53,0,.81-.38.88s-.71.16-1.11.23a26.24,26.24,0,0,1-4.69.13c-1.56-.1-3.11-.15-4.68-.2a2.9,2.9,0,0,0-.83,0l-.79.08c-.15,0-.43,0-.81,0l-1.22.08c-.43,0-.83.07-1.18.07S320.61,42.57,320.45,42.57Z"/><path class="cls-1" d="M368.59,39.46a38.79,38.79,0,0,1-.23-6.41c.1-2.2.13-4.36.05-6.46s-.18-3.95-.33-5.87-.2-3.88-.18-5.88c0-2.15,0-4.15,0-6a37.28,37.28,0,0,0-.43-5.9,1.85,1.85,0,0,1,.91-1.37A3.94,3.94,0,0,1,370,1a8.1,8.1,0,0,1,2,0,2.81,2.81,0,0,1,1.8.83c0,.08,0,.23,0,.46a3.21,3.21,0,0,1,0,.43,18.26,18.26,0,0,1-.05,4.23,21.53,21.53,0,0,0-.15,4.18c0,.15,0,.71.07,1.69s.13,2.1.21,3.37.15,2.53.22,3.82.13,2.31.18,3c.1,1.8.18,3.52.2,5.22s.13,3.42.31,5.16c.1.71.43,1.12.91,1.22a7.09,7.09,0,0,0,1.64.13c.59,0,1.14,0,1.65,0a.92.92,0,0,1,.86.94c0,1.19,0,2.15-.07,2.86s-.16,1.39-.26,2-.3.89-.56.89a.28.28,0,0,1-.2,0h-.2c-1.42-.08-2.86-.13-4.36-.2s-3-.15-4.45-.31a1,1,0,0,1-.91-.4A4.2,4.2,0,0,1,368.59,39.46Z"/><path class="cls-1" d="M387.24,33.15a3.82,3.82,0,0,1-.07-.61c0-.25,0-.53-.05-.78s0-.48-.05-.69a2.75,2.75,0,0,1,0-.43c0-.71-.07-1.62-.1-2.76s-.08-2.25-.1-3.36-.08-2.11-.1-3-.05-1.34-.05-1.44c0-1.11,0-2.33.07-3.65s.18-2.65.36-4a21.17,21.17,0,0,1,.91-4,12.51,12.51,0,0,1,1.7-3.41,8.3,8.3,0,0,1,2.7-2.46,9.11,9.11,0,0,1,4-1.11h1.11a17.47,17.47,0,0,1,3,.7,9.66,9.66,0,0,1,2.61,1.3,9.21,9.21,0,0,1,2,1.92,8,8,0,0,1,1.32,2.68c0,.16.07.51.15,1.09s.08,1,.08,1.14,0,.74,0,1.32,0,.91,0,1c0,.38,0,1.19,0,2.43s0,2.61.08,4.07.07,2.89.07,4.28,0,2.43,0,3.09c0,.94,0,2,0,3.19s0,2.46-.1,3.77a32.67,32.67,0,0,1-.5,3.85,11.87,11.87,0,0,1-1.19,3.4A7.8,7.8,0,0,1,403,43.23a6.18,6.18,0,0,1-3.39,1.09,12.39,12.39,0,0,1-3.37-.23c-1.07-.23-2.15-.53-3.27-.89a6.34,6.34,0,0,1-2.73-1.57,8.41,8.41,0,0,1-1.7-2.45,13.53,13.53,0,0,1-.94-3A17.88,17.88,0,0,1,387.24,33.15Zm7.4-.38a4.78,4.78,0,0,0,.68,2.1,1.9,1.9,0,0,0,1.93.81,1.82,1.82,0,0,0,1.34-.53,2.67,2.67,0,0,0,.63-1.16,7,7,0,0,0,.23-1.47c0-.51.05-1,.07-1.45v-.48a7,7,0,0,1,0-.78,7.13,7.13,0,0,0,0-.79v-.4c.1-1.9.17-3.62.17-5.22s-.05-3.31-.17-5.21c0-.23,0-.59-.06-1.09s-.07-1-.1-1.62-.07-1.12-.1-1.62-.05-.86-.05-1.09a5.51,5.51,0,0,0-.4-.91c-.21-.38-.43-.76-.66-1.12a4.91,4.91,0,0,0-.84-.91,1.42,1.42,0,0,0-.91-.38,1.48,1.48,0,0,0-1,.53,3.56,3.56,0,0,0-.66,1.14,7.78,7.78,0,0,0-.38,1.37c-.1.45-.15.83-.2,1.14a3,3,0,0,0-.1.56c0,.3-.07.63-.13,1s-.1.73-.17,1.06-.08.53-.08.61v2.28c0,.56,0,1.11,0,1.64s0,1,0,1.24v.46a.32.32,0,0,0,0,.18.47.47,0,0,1,0,.18v.22c0,.38.1,1,.2,1.95s.21,1.9.31,2.91.2,2,.28,2.92S394.61,32.39,394.64,32.77Z"/><path class="cls-1" d="M411.91,33.71a2.06,2.06,0,0,1,1.42-1.37,7,7,0,0,1,2.45-.18,31.21,31.21,0,0,1,3.17.53c1.16.26,2.38.51,3.64.74A3.38,3.38,0,0,0,424,33a4.58,4.58,0,0,0,1.09-.86A8.64,8.64,0,0,0,426,31c.3-.45.61-.88.93-1.34a.86.86,0,0,0,.11-.25c0-.13.05-.2.05-.26l-.23-3.29a6.62,6.62,0,0,1-.71-.55l-.91-.79a2.49,2.49,0,0,0-.43-.3,1.36,1.36,0,0,0-.41-.21,32.4,32.4,0,0,0-3.64-1.34,21.93,21.93,0,0,1-3.17-1.19,9.12,9.12,0,0,1-2.68-1.9,10,10,0,0,1-2.08-3.41c0-.11,0-.28,0-.51s-.05-.46-.08-.68a6.1,6.1,0,0,1-.08-.69,3.94,3.94,0,0,1,0-.4c0-.54-.08-1.09-.15-1.67a3.77,3.77,0,0,1,.2-1.68c.05-.12.13-.38.25-.78s.26-.79.38-1.19.28-.81.43-1.17l.26-.78V6.31a8.07,8.07,0,0,1,.6-.78c.18-.18.36-.38.54-.59s.3-.35.4-.48a15.52,15.52,0,0,1,3.65-3.11A11.16,11.16,0,0,1,423.61,0a10.26,10.26,0,0,1,2.12.17,23.48,23.48,0,0,1,2.79.66A11,11,0,0,1,431,2a2,2,0,0,1,1.11,1.55,5.84,5.84,0,0,1,0,1.34,12.8,12.8,0,0,1-.36,1.67A6,6,0,0,1,431,8a1.28,1.28,0,0,1-1,.68,15.5,15.5,0,0,1-2.89,0,14.87,14.87,0,0,0-2.91,0c-.18,0-.56,0-1.14.1a9.08,9.08,0,0,1-1.14.1,2.87,2.87,0,0,1-.53.26,4.85,4.85,0,0,0-.73.35,3.92,3.92,0,0,0-.61.43.61.61,0,0,0-.26.46l.28,3.34c0,.18.13.35.36.53s.5.33.78.51a5.87,5.87,0,0,0,.86.45l.61.26c1.5.71,2.84,1.36,4.08,2A13.22,13.22,0,0,1,430,19.65a10.69,10.69,0,0,1,2.16,3,13.5,13.5,0,0,1,1,4.38,13.39,13.39,0,0,1-.3,4.51,12.1,12.1,0,0,1-1.72,4,10.49,10.49,0,0,1-3,2.93,9.27,9.27,0,0,1-4.18,1.4,19.73,19.73,0,0,1-4,0,12.76,12.76,0,0,1-3.77-.84,7.63,7.63,0,0,1-2.86-2A5.56,5.56,0,0,1,411.91,33.71Z"/><path class="cls-1" d="M478.24,40.9a1,1,0,0,0-.53.18c-.2.1-.4.22-.61.35a4.86,4.86,0,0,0-.53.38,2.14,2.14,0,0,0-.28.25,4.66,4.66,0,0,1-1.72.46c-.63,0-1.21,0-1.77,0a6.8,6.8,0,0,1-3.65-.89,11.13,11.13,0,0,1-3-2.5,14.79,14.79,0,0,1-2.2-3.5,14.09,14.09,0,0,1-1.14-3.77,28,28,0,0,1-.35-4.43c0-1.5-.05-3-.08-4.48a32.28,32.28,0,0,1,.38-6.08,22.82,22.82,0,0,1,1.67-5.85,16.09,16.09,0,0,1,1.34-2.35A17.09,17.09,0,0,1,470,4.36a7.07,7.07,0,0,1,2.46-1.19l.88,0,.89-.05a12.09,12.09,0,0,1,3.9.43A4.73,4.73,0,0,1,480.39,5a6.27,6.27,0,0,1,1.09,2.73,28.14,28.14,0,0,1,.33,4.08v.53a7.41,7.41,0,0,0,0,.79c0,.28,0,.55,0,.81v.55c-.05.31-.07.64-.12,1a4.81,4.81,0,0,1-.21,1,2,2,0,0,1-.43.78,1,1,0,0,1-.78.33,9.78,9.78,0,0,1-2.05-.27,7.63,7.63,0,0,1-1.44-.44c-.46-.17-.66-.4-.66-.68l-.05-4.08a1.67,1.67,0,0,0-.69-1.34,2.18,2.18,0,0,0-1.42-.55,3.72,3.72,0,0,0-3,1.59,12.27,12.27,0,0,0-1.93,3.65,23.77,23.77,0,0,0-1,4.35,29.16,29.16,0,0,0-.3,3.72c.05.89.15,2,.35,3.32a18.56,18.56,0,0,0,1,3.82A9.1,9.1,0,0,0,471,33.81a3.68,3.68,0,0,0,2.91,1.29,2.32,2.32,0,0,0,1.62-.71,2.08,2.08,0,0,0,.51-1.67,1.28,1.28,0,0,0,0-.28c0-.15,0-.3-.05-.48a2.44,2.44,0,0,0-.1-.46c0-.12-.13-.2-.2-.2l-2.61.05a.58.58,0,0,1-.36-.2,2.05,2.05,0,0,1-.35-.48,5.48,5.48,0,0,1-.28-.53,1,1,0,0,1-.1-.43l-.05-3.62a1.11,1.11,0,0,1,.45-.92,1.45,1.45,0,0,1,1-.35h.23c.18,0,.51.1,1,.23a5.37,5.37,0,0,1,.86.23l7.19-.23c.08,0,.18.1.31.3l.3.48c.05.05.08.08.08.1a.52.52,0,0,0,.07.11.82.82,0,0,1,.1.17c0,.1,0,.33-.05.69a3,3,0,0,1-.1.65l.28,14.72a.87.87,0,0,1-.3.7.93.93,0,0,1-.59.26,5.68,5.68,0,0,1-1.64-.18,4.52,4.52,0,0,1-1.47-.66,1.43,1.43,0,0,1-.56-.83C478.8,41.1,478.6,40.9,478.24,40.9Z"/><path class="cls-1" d="M505.55,44a22.46,22.46,0,0,1-1.67-2.66c-.41-.76-.89-1.59-1.4-2.48-.07-.1-.2-.25-.38-.48s-.35-.43-.53-.63-.3-.43-.43-.63a.73.73,0,0,1-.05-.59c-.45-.63-.88-1.29-1.32-2s-.83-1.31-1.24-1.95h-.1a.19.19,0,0,1-.1-.05c-.33-.07-.46.08-.38.46s.08,1,.1,2,.08,2,.13,3.09.1,2.12.18,3.11.1,1.67.12,2l0,.18a4.2,4.2,0,0,1-.33.43c-.15.17-.25.22-.27.2l-5.68.38a.88.88,0,0,1-.83-.43,1.85,1.85,0,0,1-.38-.86c0-.05,0-.08,0-.08s0-.08,0-.13v-.17s0-.13.05-.31.08-.35.1-.53.08-.35.1-.51a2,2,0,0,0,.05-.27c0-.1,0-.36-.07-.76s-.1-.81-.13-1.22-.08-.83-.1-1.19,0-.61,0-.73V35.86c0-.73,0-1.49,0-2.3s0-1.6-.05-2.31,0-1.19,0-1.37,0-.5-.05-1-.08-1-.1-1.57-.08-1.06-.11-1.57a9,9,0,0,1-.05-1,1.18,1.18,0,0,0,.05-.51v-.5q.17-4.87.05-9.58c-.07-3.16-.17-6.33-.27-9.52a5.65,5.65,0,0,0,0-.6c0-.31-.05-.61-.07-.94a5.51,5.51,0,0,1-.08-1c0-.33,0-.53,0-.63a.61.61,0,0,1,.31-.41A2.73,2.73,0,0,1,491,1c1.5-.1,2.94-.17,4.36-.2a14.51,14.51,0,0,1,4,.46,9,9,0,0,1,3.37,1.59A8.29,8.29,0,0,1,505.17,6c.48,1,1,1.9,1.44,2.81a7.49,7.49,0,0,1,.84,3,12.24,12.24,0,0,1-1.14,6.2,17.21,17.21,0,0,1-3.88,5.21.92.92,0,0,0-.22.61,2.36,2.36,0,0,0,.43,1,1.12,1.12,0,0,1,.2.94l2.28,4.56v.18l2.28,3.67a5.28,5.28,0,0,0,.48.91c.3.58.68,1.21,1.09,2s.78,1.44,1.11,2.18a6.4,6.4,0,0,1,.56,1.64,1.8,1.8,0,0,1-.36,1.12,4.93,4.93,0,0,1-1,1.11,6.9,6.9,0,0,1-1.29.86,2.43,2.43,0,0,1-1.16.36A1.23,1.23,0,0,1,505.55,44ZM496.2,17.45a4.64,4.64,0,0,0,.36.41.94.94,0,0,0,.48.2,3,3,0,0,0,1.8-.81,5.05,5.05,0,0,0,1.06-1.62,7.1,7.1,0,0,0,.48-1.93,14.07,14.07,0,0,0,.1-1.72,6.48,6.48,0,0,0-.27-1.36,9.78,9.78,0,0,0-.61-1.55,3.51,3.51,0,0,0-1-1.19,2.11,2.11,0,0,0-1.42-.43,1.06,1.06,0,0,0-.86.61,4.26,4.26,0,0,0-.43,1.29,8.63,8.63,0,0,0-.1,1.42v1a3.53,3.53,0,0,0,0,.38c0,.23,0,.49.05.79s0,.61.06.91.05.58.07.76a4.68,4.68,0,0,0,0,.56c0,.25.05.55.05.86s0,.61.05.86A3.83,3.83,0,0,1,496.2,17.45Z"/><path class="cls-1" d="M514.91,40.19a.85.85,0,0,1,.05-.25c0-.11,0-.16,0-.21,0-.48.1-1.06.18-1.74a6.14,6.14,0,0,1,.38-1.7,1.09,1.09,0,0,1,.56-.58,6.53,6.53,0,0,1,.81-.33c.27-.1.55-.18.8-.28a1.21,1.21,0,0,0,.61-.48s.05,0,.08-.18a1.42,1.42,0,0,0,0-.28,3.26,3.26,0,0,1,0-.45c0-.23,0-.48.05-.76a7.59,7.59,0,0,0,0-.81v-.56c-.11-3-.13-6-.08-9s0-5.95-.2-8.92c0-.07,0-.22-.05-.45a5.31,5.31,0,0,1-.08-.71c0-.25,0-.51-.05-.73s0-.38,0-.51a.76.76,0,0,0-.54-.61l-.91-.23a3.06,3.06,0,0,1-.89-.35,1.23,1.23,0,0,1-.45-.91s0-.08,0-.1a.22.22,0,0,1,0-.11V7.86c0-.54,0-1.12,0-1.73s0-1.19,0-1.72V3.3c.07-.31.18-.66.28-1.12a.92.92,0,0,1,.61-.78l.1.05h.1a12.42,12.42,0,0,0,2.33.13c1,0,2,0,3.06,0a16.38,16.38,0,0,1,2.91.38,3,3,0,0,1,1.93,1.09,1.75,1.75,0,0,1,.28,1.06,10,10,0,0,0,0,1.11,10.15,10.15,0,0,1-.16,3.35A2.58,2.58,0,0,1,526,9.91a1.94,1.94,0,0,1-.86.43c-.3.07-.48.38-.56.88a37.2,37.2,0,0,0-.45,4.69c0,1.54,0,3.11,0,4.68s.13,3.12.26,4.66.2,3.09.27,4.66v1.62c0,.38,0,.71,0,1s0,.5,0,.58v.46a1,1,0,0,0,.51.88,8.14,8.14,0,0,0,1,.41,4.75,4.75,0,0,1,1,.5,1.53,1.53,0,0,1,.58,1.14c0,.26,0,.64,0,1.14a7.43,7.43,0,0,1-.08,1.5,4.4,4.4,0,0,1-.4,1.36,1.09,1.09,0,0,1-1,.66,9,9,0,0,1-2.53.1,15.21,15.21,0,0,0-2.53,0l-.81.08c-.43,0-.89.1-1.34.18s-.92.1-1.35.12a6.45,6.45,0,0,1-.81,0,2.5,2.5,0,0,1-1.44-.3A1.48,1.48,0,0,1,514.91,40.19Z"/><path class="cls-1" d="M535.75,39.46a37.74,37.74,0,0,1-.22-6.41c.1-2.2.12-4.36.05-6.46s-.18-3.95-.33-5.87-.21-3.88-.18-5.88c0-2.15,0-4.15,0-6a36.13,36.13,0,0,0-.43-5.9,1.84,1.84,0,0,1,.92-1.37A4,4,0,0,1,537.17,1a8.18,8.18,0,0,1,2,0,2.81,2.81,0,0,1,1.79.83,3.3,3.3,0,0,0,0,.46c0,.23,0,.38,0,.43a17.72,17.72,0,0,1,0,4.23,24.34,24.34,0,0,0-.17,4.18c0,.15,0,.71.07,1.69s.13,2.1.2,3.37.16,2.53.23,3.82.13,2.31.18,3c.1,1.8.18,3.52.2,5.22s.13,3.42.31,5.16c.1.71.43,1.12.91,1.22a7.09,7.09,0,0,0,1.64.13c.59,0,1.14,0,1.65,0s.78.36.86.94c0,1.19,0,2.15-.08,2.86a13.36,13.36,0,0,1-.25,2c-.1.61-.3.89-.56.89a.28.28,0,0,1-.2,0h-.2c-1.42-.08-2.86-.13-4.36-.2s-3-.15-4.45-.31a1,1,0,0,1-.91-.4A5.51,5.51,0,0,1,535.75,39.46Z"/><path class="cls-1" d="M554.84,39.46a38.79,38.79,0,0,1-.23-6.41c.1-2.2.13-4.36,0-6.46s-.18-3.95-.33-5.87-.2-3.88-.17-5.88c0-2.15,0-4.15,0-6a37.28,37.28,0,0,0-.43-5.9,1.85,1.85,0,0,1,.91-1.37,3.94,3.94,0,0,1,1.6-.58,8.1,8.1,0,0,1,2,0,2.81,2.81,0,0,1,1.8.83c0,.08,0,.23,0,.46a3.21,3.21,0,0,1,0,.43A18.26,18.26,0,0,1,560,6.92a24.4,24.4,0,0,0-.18,4.18c0,.15,0,.71.08,1.69s.12,2.1.2,3.37.15,2.53.23,3.82.12,2.31.18,3c.1,1.8.17,3.52.2,5.22s.12,3.42.3,5.16c.1.71.43,1.12.91,1.22a7.17,7.17,0,0,0,1.65.13c.58,0,1.14,0,1.64,0s.79.36.87.94c0,1.19,0,2.15-.08,2.86a14.86,14.86,0,0,1-.25,2c-.1.61-.31.89-.56.89a.3.3,0,0,1-.2,0h-.21c-1.41-.08-2.86-.13-4.35-.2s-3-.15-4.46-.31a1,1,0,0,1-.91-.4A5.7,5.7,0,0,1,554.84,39.46Z"/><path class="cls-1" d="M573.51,33.15a2.83,2.83,0,0,1-.08-.61c0-.25,0-.53,0-.78s0-.48,0-.69a4.1,4.1,0,0,1,0-.43c0-.71-.08-1.62-.1-2.76s-.08-2.25-.11-3.36-.07-2.11-.1-3,0-1.34,0-1.44c0-1.11,0-2.33.08-3.65s.18-2.65.35-4a21.17,21.17,0,0,1,.91-4A12.8,12.8,0,0,1,576,5.1a8.44,8.44,0,0,1,2.71-2.46,9.07,9.07,0,0,1,4-1.11h1.11a17.36,17.36,0,0,1,3,.7,9.51,9.51,0,0,1,2.61,1.3,9.26,9.26,0,0,1,2,1.92,7.8,7.8,0,0,1,1.31,2.68c0,.16.08.51.16,1.09s.07,1,.07,1.14,0,.74,0,1.32,0,.91,0,1c0,.38,0,1.19,0,2.43s.05,2.61.07,4.07.08,2.89.08,4.28,0,2.43,0,3.09c0,.94,0,2,0,3.19s0,2.46-.1,3.77a30.71,30.71,0,0,1-.51,3.85,11.29,11.29,0,0,1-1.19,3.4,7.56,7.56,0,0,1-2.18,2.48,6.13,6.13,0,0,1-3.39,1.09,12.42,12.42,0,0,1-3.37-.23c-1.06-.23-2.15-.53-3.26-.89a6.32,6.32,0,0,1-2.74-1.57,8.37,8.37,0,0,1-1.69-2.45,13,13,0,0,1-.94-3A18.93,18.93,0,0,1,573.51,33.15Zm7.42-.38a4.78,4.78,0,0,0,.68,2.1,1.9,1.9,0,0,0,1.93.81,1.83,1.83,0,0,0,1.34-.53,2.57,2.57,0,0,0,.63-1.16,6.45,6.45,0,0,0,.23-1.47c0-.51,0-1,.08-1.45v-.48c0-.25,0-.5,0-.78a7.13,7.13,0,0,0,0-.79v-.4c.1-1.9.17-3.62.17-5.22s0-3.31-.17-5.21c0-.23,0-.59,0-1.09s-.08-1-.1-1.62-.08-1.12-.11-1.62a10.3,10.3,0,0,1-.05-1.09,4.11,4.11,0,0,0-.43-.91c-.2-.38-.43-.76-.66-1.12a4.86,4.86,0,0,0-.83-.91,1.46,1.46,0,0,0-.91-.38,1.53,1.53,0,0,0-1,.53,3.38,3.38,0,0,0-.66,1.14,7,7,0,0,0-.38,1.37c-.1.45-.15.83-.2,1.14a1.89,1.89,0,0,0-.1.56c0,.3-.08.63-.13,1a10.15,10.15,0,0,1-.18,1.06,5.37,5.37,0,0,0-.07.61v2.28c0,.56,0,1.11,0,1.64s0,1,0,1.24v.46a.47.47,0,0,0,0,.18.32.32,0,0,1,0,.18v.22c.05.38.1,1,.2,1.95s.2,1.9.3,2.91.21,2,.28,2.92S580.88,32.39,580.93,32.77Z"/><path class="cls-1" d="M598.19,33.71a2.06,2.06,0,0,1,1.41-1.37,7,7,0,0,1,2.46-.18c.94.1,2,.28,3.19.53s2.38.51,3.65.74a3.47,3.47,0,0,0,1.37-.41,4.35,4.35,0,0,0,1.08-.86,8.64,8.64,0,0,0,.94-1.19c.3-.45.61-.88.94-1.34a1.4,1.4,0,0,0,.1-.25.63.63,0,0,0,0-.26l-.23-3.29a8,8,0,0,1-.71-.55l-.91-.79a2.14,2.14,0,0,0-.43-.3,1.12,1.12,0,0,0-.43-.21A32.52,32.52,0,0,0,607,22.64a22.25,22.25,0,0,1-3.16-1.19,9.29,9.29,0,0,1-2.69-1.9,10,10,0,0,1-2.07-3.41,3.68,3.68,0,0,0,0-.51c0-.23-.05-.46-.07-.68a3.48,3.48,0,0,1-.08-.69,3.94,3.94,0,0,1,0-.4c0-.54-.08-1.09-.16-1.67a3.63,3.63,0,0,1,.21-1.68,7.78,7.78,0,0,1,.22-.81c.11-.38.26-.78.38-1.19s.28-.81.43-1.16.21-.63.26-.79V6.31a8,8,0,0,1,.61-.78l.53-.59c.17-.2.3-.35.43-.48a15.49,15.49,0,0,1,3.64-3.11A11.26,11.26,0,0,1,609.89,0,10.26,10.26,0,0,1,612,.18a23.48,23.48,0,0,1,2.79.66A11.1,11.1,0,0,1,617.25,2a2,2,0,0,1,1.12,1.55,7.28,7.28,0,0,1,0,1.34A14.68,14.68,0,0,1,618,6.54,6,6,0,0,1,617.3,8a1.25,1.25,0,0,1-1,.68,15.5,15.5,0,0,1-2.89,0,14.68,14.68,0,0,0-2.89,0c-.17,0-.55,0-1.14.1a9.12,9.12,0,0,1-1.13.1,3,3,0,0,1-.54.26,4.85,4.85,0,0,0-.73.35,4.47,4.47,0,0,0-.61.43.6.6,0,0,0-.25.46l.28,3.34a.72.72,0,0,0,.35.53c.25.18.51.33.79.51a5.41,5.41,0,0,0,.86.45l.61.26c1.49.71,2.83,1.36,4.07,2a13.28,13.28,0,0,1,3.17,2.22,10.86,10.86,0,0,1,2.15,3,13.75,13.75,0,0,1,1,4.38,13.39,13.39,0,0,1-.31,4.51,11.9,11.9,0,0,1-1.72,4,10.49,10.49,0,0,1-3,2.93,9.23,9.23,0,0,1-4.17,1.4,19.84,19.84,0,0,1-4,0,12.83,12.83,0,0,1-3.77-.84,7.63,7.63,0,0,1-2.86-2A5.25,5.25,0,0,1,598.19,33.71Z"/><path class="cls-1" d="M650.61,43.08c-.08,0-.13-.21-.18-.49a2.74,2.74,0,0,1,0-.53,13.58,13.58,0,0,1-.1-4,28.92,28.92,0,0,0,.17-3.93,39.48,39.48,0,0,0-.53-5c-.28-1.65-.5-3.32-.63-5,0-1.29,0-2.56,0-3.75s.05-2.46.05-3.77,0-2.38-.1-3.6-.2-2.4-.28-3.59V7.6a4.86,4.86,0,0,1-.1-.93c-.05-.46-.08-.92-.1-1.42s-.08-1-.1-1.42-.06-.76-.06-.94a4.36,4.36,0,0,1,.23-.68,1,1,0,0,1,.43-.38,2.93,2.93,0,0,1,.64-.15,6.42,6.42,0,0,1,.71-.08,14.1,14.1,0,0,1,5.52.28,10.93,10.93,0,0,1,4.25,2.18,12.45,12.45,0,0,1,3,3.69,16.91,16.91,0,0,1,1.6,4.84,34.81,34.81,0,0,1,.28,4.13c0,1.34-.06,2.73-.18,4.18a5.67,5.67,0,0,1,.05,2.17,8.82,8.82,0,0,0-.05,2.18c0,1.19.1,2.58.23,4.15a30,30,0,0,1-.08,4.74,15.1,15.1,0,0,1-1.16,4.4,6.59,6.59,0,0,1-3,3.14A13.76,13.76,0,0,1,656.78,43c-1.49.22-3,.43-4.48.6l-.53,0-.53,0-.31-.25A.59.59,0,0,1,650.61,43.08Zm5.29-7.35a.67.67,0,0,0,.73.38,1.22,1.22,0,0,0,1-.66,4.86,4.86,0,0,0,.56-1.36,13.93,13.93,0,0,0,.28-1.52c0-.51.1-.94.15-1.22s.07-.63.1-1.09.07-.91.1-1.34.05-.81.08-1.11,0-.48,0-.53l0-.46c0-2.05,0-4.15,0-6.33a36.07,36.07,0,0,0-.45-6.43,15,15,0,0,0-.64-2.56,6.34,6.34,0,0,0-1.59-2.13,5.35,5.35,0,0,1-.31-.45.57.57,0,0,0-.53-.1c-.18,0-.25.2-.2.48s.08.43.08.48c.1,2.25.17,4.53.22,6.79s.1,4.53.18,6.78c0,1.85,0,3.75-.18,5.65a23.58,23.58,0,0,0,.23,5.64,4.54,4.54,0,0,0,.08.54A3.38,3.38,0,0,1,655.9,35.73Z"/><path class="cls-1" d="M671.94,40.19a.9.9,0,0,1,.06-.25.36.36,0,0,0,0-.21c0-.48.1-1.06.17-1.74a7,7,0,0,1,.38-1.7,1.13,1.13,0,0,1,.56-.58,6.53,6.53,0,0,1,.81-.33c.28-.1.56-.18.81-.28a1.26,1.26,0,0,0,.61-.48s0,0,.07-.18a1,1,0,0,0,0-.28,3.26,3.26,0,0,1,0-.45c0-.23,0-.48,0-.76s0-.56,0-.81v-.56c-.1-3-.13-6-.07-9s0-5.95-.21-8.92c0-.07,0-.22,0-.45s-.07-.46-.07-.71,0-.51,0-.73a3.54,3.54,0,0,1,0-.51.75.75,0,0,0-.53-.61l-.91-.23a3,3,0,0,1-.89-.35,1.27,1.27,0,0,1-.46-.91s0-.08,0-.1a.15.15,0,0,1,0-.11V7.86c0-.54,0-1.12,0-1.73s0-1.19,0-1.72V3.3c.08-.31.18-.66.28-1.12a.92.92,0,0,1,.61-.78l.1.05h.1a12.48,12.48,0,0,0,2.33.13c1,0,2,0,3.07,0a16.5,16.5,0,0,1,2.91.38,3,3,0,0,1,1.92,1.09,1.68,1.68,0,0,1,.28,1.06c0,.48,0,.86,0,1.11a10.52,10.52,0,0,1-.15,3.35A2.58,2.58,0,0,1,683,9.91a1.92,1.92,0,0,1-.87.43c-.3.07-.48.38-.55.88a35.46,35.46,0,0,0-.46,4.69c0,1.54,0,3.11,0,4.68s.12,3.12.25,4.66.2,3.09.28,4.66v1.62c0,.38,0,.71,0,1s0,.5,0,.58v.46a.93.93,0,0,0,.51.88,8.14,8.14,0,0,0,1,.41,4.75,4.75,0,0,1,1,.5,1.6,1.6,0,0,1,.58,1.14c0,.26,0,.64,0,1.14a7.44,7.44,0,0,1-.07,1.5,4.41,4.41,0,0,1-.41,1.36,1.09,1.09,0,0,1-1,.66,9.08,9.08,0,0,1-2.54.1,15.22,15.22,0,0,0-2.53,0l-.81.08c-.43,0-.88.1-1.34.18s-.91.1-1.34.12a6.54,6.54,0,0,1-.81,0,2.55,2.55,0,0,1-1.45-.3A1.48,1.48,0,0,1,671.94,40.19Z"/><path class="cls-1" d="M692.77,37.68a1.13,1.13,0,0,0-.08-.5c-.1-.26-.2-.54-.33-.86s-.25-.61-.38-.89a2.74,2.74,0,0,1-.25-.63V31c0-.23,0-.71,0-1.47s0-1.57,0-2.46.05-1.69.05-2.45,0-1.24,0-1.47V19.63a7.38,7.38,0,0,0,.07-1.24c0-.58,0-1.17.08-1.77s.05-1.19.08-1.7,0-.86.07-1.06,0-.31.05-.71a2.26,2.26,0,0,1,.18-.81c.1-.64.18-1.29.23-2a8,8,0,0,1,.33-2A15.39,15.39,0,0,1,694,6.21a12,12,0,0,1,1.75-2.3A13,13,0,0,1,698,2a4.6,4.6,0,0,1,2.56-.78c.66,0,1.19,0,1.57.05a2.82,2.82,0,0,1,1,.23,1.88,1.88,0,0,1,.76.53,9.08,9.08,0,0,1,.83,1,.43.43,0,0,0,.1.22l.1.1V8.54l-.43.33a7.83,7.83,0,0,0-4,1.06,4.65,4.65,0,0,0-2,3c0,.31-.07.79-.15,1.47s-.13,1.42-.2,2.18-.15,1.49-.23,2.18-.1,1.16-.1,1.42v2.17c0,1.42,0,2.74,0,4s.07,2.59.15,4.08a6.27,6.27,0,0,0,.66,2.61,4.81,4.81,0,0,0,1.34,1.59,5.71,5.71,0,0,0,1.67.89c.58.2,1.14.38,1.67.51a6.78,6.78,0,0,1,1.34.45,1.1,1.1,0,0,1,.68.71v1.49c0,.31,0,.66.05,1.09a7,7,0,0,1,0,1.29,3.31,3.31,0,0,1-.35,1.14,1.44,1.44,0,0,1-1,.66h-1.49a14.26,14.26,0,0,1-5.93-1.16A7.84,7.84,0,0,1,692.77,37.68Z"/><path class="cls-1" d="M711.89,42.57a5.07,5.07,0,0,1-.46-.35.61.61,0,0,1-.23-.49,26.25,26.25,0,0,1,0-5.39,49.37,49.37,0,0,0,.3-5.39c0-2.23-.07-4.46-.2-6.71s-.28-4.48-.43-6.74-.28-4.48-.36-6.71-.1-4.43,0-6.63a1.5,1.5,0,0,1,.2-.74A.82.82,0,0,1,711.3,3a5.53,5.53,0,0,1,1.32,0,4.16,4.16,0,0,0,1.24,0c.15,0,.43,0,.84,0s.83,0,1.31,0,.91-.05,1.32-.05.68,0,.84,0,.17,0,.45,0a6.46,6.46,0,0,1,.84-.1c.3,0,.55-.08.81-.11a2.25,2.25,0,0,1,.48-.05c.23,0,.58,0,1.09,0s1,0,1.49,0a9.76,9.76,0,0,1,1.37.23.76.76,0,0,1,.66.66l.38,4.68a.82.82,0,0,1-.38.76,2,2,0,0,1-.84.36,8.36,8.36,0,0,1-2.23-.08A8.63,8.63,0,0,0,720,9.1c-.17,0-.43,0-.73,0s-.61.08-.91.13a2.3,2.3,0,0,0-.81.33.74.74,0,0,0-.33.66,35.75,35.75,0,0,1,0,4.63,29.16,29.16,0,0,0,0,4.68c0,.18,0,.43.05.74a1.18,1.18,0,0,0,.33.73,1.93,1.93,0,0,0,.68.26,6.41,6.41,0,0,0,1,.07c.33,0,.66,0,.94,0a6,6,0,0,1,.66,0l.83-.05c.41,0,.84-.08,1.29-.13l1.29-.15.84,0a.31.31,0,0,1,.28.2.68.68,0,0,1,.1.31l.38,3.62a1.56,1.56,0,0,1-.25,1,1.06,1.06,0,0,1-.76.56,8.82,8.82,0,0,1-2.46,0,10.48,10.48,0,0,0-2.51-.07,2.07,2.07,0,0,0-1.11.4,1.49,1.49,0,0,0-.46.76,4.49,4.49,0,0,0-.1,1v1.17c0,.1,0,.38,0,.81s-.07.89-.15,1.37-.1.93-.13,1.34a4.22,4.22,0,0,1-.1.78c.08,0,.1.16,0,.33a.64.64,0,0,0,.05.43,5.39,5.39,0,0,0,.1.81.56.56,0,0,0,.61.48h6.48a6.41,6.41,0,0,1,1.63.18c.48.1.81.53,1,1.22a3.93,3.93,0,0,0,.07.53c0,.28.11.58.18.94s.1.7.18,1.06a8.14,8.14,0,0,0,.15.81v.33c.08.53,0,.81-.38.88s-.71.16-1.11.23a26.27,26.27,0,0,1-4.69.13c-1.57-.1-3.11-.15-4.68-.2a3,3,0,0,0-.84,0l-.78.08c-.16,0-.43,0-.81,0l-1.22.08c-.43,0-.83.07-1.19.07S712,42.57,711.89,42.57Z"/><path class="cls-1" d="M733.22,39.28a4.49,4.49,0,0,1,.25-1.5,4.38,4.38,0,0,1,.76-1.41,4,4,0,0,1,1.27-1.07,3.88,3.88,0,0,1,1.85-.4c.32,0,.65,0,1,.05a2.19,2.19,0,0,1,.94.28c.73.71,1.47,1.41,2.15,2.17a3.58,3.58,0,0,1,1,2.51,3.21,3.21,0,0,1-.35,1.32,6.06,6.06,0,0,1-1,1.29,5.08,5.08,0,0,1-1.39.94,4.18,4.18,0,0,1-1.62.35,5.36,5.36,0,0,1-2-.38,5,5,0,0,1-1.57-1,4.6,4.6,0,0,1-1-1.44A4.36,4.36,0,0,1,733.22,39.28Z"/><path class="cls-1" d="M749.16,39.28a4.49,4.49,0,0,1,.25-1.5,4.19,4.19,0,0,1,.76-1.41,4.1,4.1,0,0,1,1.26-1.07,3.91,3.91,0,0,1,1.85-.4c.33,0,.66,0,1,.05a2.19,2.19,0,0,1,.94.28c.73.71,1.47,1.41,2.15,2.17a3.62,3.62,0,0,1,1,2.51,3.09,3.09,0,0,1-.36,1.32,5.69,5.69,0,0,1-1,1.29,5.24,5.24,0,0,1-1.39.94,4.22,4.22,0,0,1-1.62.35,5.32,5.32,0,0,1-2-.38,4.78,4.78,0,0,1-1.57-1,4.64,4.64,0,0,1-1-1.44A4.54,4.54,0,0,1,749.16,39.28Z"/><path class="cls-1" d="M765.07,39.28a4.51,4.51,0,0,1,.26-1.5,4,4,0,0,1,.76-1.41,4.1,4.1,0,0,1,1.26-1.07,3.91,3.91,0,0,1,1.85-.4c.33,0,.66,0,1,.05a2.19,2.19,0,0,1,.94.28c.73.71,1.46,1.41,2.15,2.17a3.62,3.62,0,0,1,1,2.51,3.09,3.09,0,0,1-.36,1.32,5.69,5.69,0,0,1-1,1.29,5.41,5.41,0,0,1-1.39.94,4.22,4.22,0,0,1-1.62.35,5.32,5.32,0,0,1-2-.38,4.78,4.78,0,0,1-1.57-1,4.64,4.64,0,0,1-1-1.44A4.55,4.55,0,0,1,765.07,39.28Z"/></g></g></svg>