<svg xmlns="http://www.w3.org/2000/svg" viewBox="0 0 158.42 148.39"><defs><style>.cls-1{fill:#007572;}.cls-2{fill:#00a0a4;}.cls-3{fill:#e30613;}.cls-4{fill:none;stroke:#f39200;stroke-miterlimit:10;stroke-width:0.85px;}.cls-5{fill:#f39200;}.cls-6{fill:#fff;}</style></defs><title>maracas</title><g id="Layer_2" data-name="Layer 2"><g id="Layer_1-2" data-name="Layer 1"><path class="cls-1" d="M101.18,44.69A55,55,0,0,0,88.43,50C69.7,60.53,36,80.58,32.92,83c-3.9,3.07-7.13,5.24-3.37,9.42,7.29,8.09,61.15-31.64,66.86-34.14,2.09-.92,4-3.58,6-4.94,3.45-2.33,5.77-2.46,5.77-2.46Z"/><path class="cls-2" d="M91.35,55.19c2,2.39,3.51,3.22,4.34,3.5l13.21-7.95-7.15-8.36-12.7,7.3S88.76,52.13,91.35,55.19Z"/><path class="cls-3" d="M151.46,10.15c11.42,12.63,4.95,28.75-.11,36-2,2.88-5.27,5.6-8.41,8.15-2.55,2.07-23.43,13.24-38.93-6.75-12.19-15.7-5.3-31.34,4.49-40.36a25.09,25.09,0,0,1,5.43-3.84C124.81-2.73,141.79-.53,151.46,10.15Z"/><path class="cls-4" d="M144,3a13.81,13.81,0,0,0-2.19,6.2c-.53,13.18,13.38,14.75,16.51,14.08"/><path class="cls-4" d="M157.56,18.66c-2.23.54-8.77.67-11.41-5.86-1.07-2.6.26-6.92,1.12-8"/><path class="cls-5" d="M140,42.82l3-11.9-12.59,4.37A40.31,40.31,0,0,0,140,42.82Z"/><path class="cls-5" d="M125.69,28.82a44.6,44.6,0,0,0,4.76,5.93l4.72-11.24L123.38,25C124.09,26.29,124.85,27.56,125.69,28.82Z"/><path class="cls-5" d="M151.34,46.12l.72-10L139.47,43C143.08,45,147.72,45.69,151.34,46.12Z"/><path class="cls-5" d="M123.39,25l7.51-9.86-11.8-1.43A42.17,42.17,0,0,0,123.39,25Z"/><path class="cls-5" d="M119.1,13.73l9-9.28-9.49-2.57A32.76,32.76,0,0,0,119.1,13.73Z"/><path class="cls-5" d="M115.51,37.11c-6.94-10.32-8.86-22.07-6-30.92-.65.6-7,15-7,15l6.44.66L104,32.92l9.38.71-2.6,11.93,10.66-1.28L120,52.58l10.35-1.8-1.19,5.94,13.5-2.26-.4,0C133.1,53.91,122.34,47.26,115.51,37.11Z"/><path class="cls-2" d="M151.34,46.12c-9.23-.76-18.53-6.92-25.43-17.2-6.11-9.1-8.57-19.34-7.08-27.68a22.54,22.54,0,0,0-9.36,4.94c-2.82,8.85-.88,20.56,6,30.87,7.48,11.13,17.23,16.88,27.15,17.4A31.27,31.27,0,0,0,151.34,46.12Z"/><path class="cls-6" d="M114.86,9a1.49,1.49,0,1,1-1.29-1.65A1.5,1.5,0,0,1,114.86,9Z"/><path class="cls-6" d="M115.71,17.05a1.67,1.67,0,1,1-1.46-1.86A1.67,1.67,0,0,1,115.71,17.05Z"/><path class="cls-6" d="M118.08,26A1.86,1.86,0,0,1,116,27.63a1.87,1.87,0,0,1-1.63-2.08,1.86,1.86,0,0,1,3.69.45Z"/><path class="cls-6" d="M122.77,33.53A2,2,0,1,1,121,31.26,2,2,0,0,1,122.77,33.53Z"/><path class="cls-6" d="M128.7,40.85a2,2,0,0,1-4-.5,2,2,0,1,1,4,.5Z"/><path class="cls-6" d="M136.11,46.57a1.86,1.86,0,1,1-1.63-2.07A1.84,1.84,0,0,1,136.11,46.57Z"/><path class="cls-6" d="M144,49.9a1.64,1.64,0,1,1-3.26-.41,1.62,1.62,0,0,1,1.82-1.42A1.65,1.65,0,0,1,144,49.9Z"/><path class="cls-1" d="M85.54,113.91a55.53,55.53,0,0,0-13.19-4.15c-21.08-4.07-59.72-10.5-63.69-10.63-4.95-.16-8.83-.58-8.65,5C.34,115,67.12,119.46,73.1,121.24c2.2.66,5.36-.16,7.76.1,4.15.45,6,1.84,6,1.84Z"/><path class="cls-2" d="M71.27,115.6c0,3.14.6,4.71,1,5.47l15.21,2.45-.06-11-14.4-2.62S71.25,111.58,71.27,115.6Z"/><path class="cls-3" d="M146.24,120c.56,17-14.81,25.17-23.33,27.41-3.4.9-7.63.88-11.69.79-3.28-.07-26.44-5-25.35-30.28C86.71,98,102.08,90.54,115.37,90a25.85,25.85,0,0,1,6.63.56C134.22,93,145.75,105.59,146.24,120Z"/><path class="cls-4" d="M145.19,109.68a14,14,0,0,0-5.67,3.32c-8.91,9.73.68,19.91,3.5,21.41"/><path class="cls-4" d="M145.4,130.43c-2.05-1-7.12-5.15-4.92-11.84.87-2.66,4.67-5.12,6-5.37"/><path class="cls-5" d="M116.36,137.52l10-7.15-12.44-4.78A40.34,40.34,0,0,0,116.36,137.52Z"/><path class="cls-5" d="M114.51,117.61a46.57,46.57,0,0,0-.21,7.62l10.89-5.55-10-6.47C114.93,114.65,114.68,116.11,114.51,117.61Z"/><path class="cls-5" d="M122.91,147.38l7-7.16-14.05-2.87C117.32,141.2,120.42,144.7,122.91,147.38Z"/><path class="cls-5" d="M115.21,113.22l12.09-2.68-8.08-8.71A43.34,43.34,0,0,0,115.21,113.22Z"/><path class="cls-5" d="M119.22,101.83l12.88-1.26-5.59-8.08A33,33,0,0,0,119.22,101.83Z"/><path class="cls-5" d="M101.39,117.37c1.37-12.35,7.5-22.56,15.37-27.5-.89,0-15,6.92-15,6.92l4.5,4.67-11,5.29,6.7,6.59-9.7,7.44,9,5.9-6.46,5.42,9,5.3-4.74,3.77,11.75,7-.29-.29C104,141.56,100,129.54,101.39,117.37Z"/><path class="cls-2" d="M122.91,147.38c-6.54-6.54-9.67-17.24-8.3-29.54,1.21-10.89,6-20.3,12.48-25.7a22.54,22.54,0,0,0-10.33-2.27c-7.87,4.94-14,15.15-15.31,27.5-1.48,13.31,2.24,24,9.48,30.81A31.91,31.91,0,0,0,122.91,147.38Z"/><path class="cls-6" d="M119.06,95.47a1.49,1.49,0,0,1-2.1-.09,1.48,1.48,0,1,1,2.1.09Z"/><path class="cls-6" d="M114.5,102.17a1.68,1.68,0,1,1,.07-2.37A1.68,1.68,0,0,1,114.5,102.17Z"/><path class="cls-6" d="M110.53,110.56a1.85,1.85,0,1,1,.11-2.61A1.87,1.87,0,0,1,110.53,110.56Z"/><path class="cls-6" d="M109.23,119.32a2,2,0,0,1-2.78-3,2.06,2.06,0,0,1,2.89.11A2,2,0,0,1,109.23,119.32Z"/><path class="cls-6" d="M109,128.74a2,2,0,0,1-2.78-3,2.07,2.07,0,0,1,2.89.11A2,2,0,0,1,109,128.74Z"/><path class="cls-6" d="M111,137.89a1.86,1.86,0,1,1,.1-2.63A1.86,1.86,0,0,1,111,137.89Z"/><path class="cls-6" d="M114.83,145.51a1.63,1.63,0,1,1-2.22-2.39,1.62,1.62,0,0,1,2.31.1A1.6,1.6,0,0,1,114.83,145.51Z"/></g></g></svg>