<svg xmlns="http://www.w3.org/2000/svg" viewBox="0 0 139.6 139.03"><defs><style>.cls-1{fill:#dad8cc;}.cls-2{fill:#e30613;}.cls-3{fill:#f39200;}.cls-4{fill:#b91919;}.cls-5{fill:none;stroke:#b91919;stroke-linecap:round;stroke-linejoin:round;stroke-width:1.46px;}.cls-6{fill:#db7a1c;}</style></defs><title>pandereta</title><g id="Layer_2" data-name="Layer 2"><g id="Layer_1-2" data-name="Layer 1"><path class="cls-1" d="M121.12,127.15c5.15,4.24,10.9,7,14.07,2.93,2.7-3.5-3.09-10.24-3.74-9.43S121.12,127.15,121.12,127.15Z"/><path class="cls-1" d="M8.31,7c-4.61.84-4.83,5.25-2,11.6C8.43,23.31,16.58,11,16.58,11S11.27,6.41,8.31,7Z"/><path class="cls-2" d="M34.37,5S31.2-.59,27.41.4,1.44,23.49.12,26.14s7.28,38,51,76.81S110,140,112.89,138.31s22.2-16.32,24.54-21.53c.89-2,2.18-3.61,2-5.34C139.24,108,34.37,5,34.37,5Z"/><path class="cls-3" d="M78.37,53.85c-.11,0,59.58,55.4,61.11,57.6.33,1.28-1.27,6.08-3.64,7.68-7.73-1.65-25.55-3.55-62.4-37.43C32.51,44.07,23.05,11.91,21.55,4.47c-.16-.8,4.09-3.14,5.85-4.06C28.12,0,78.37,53.85,78.37,53.85Z"/><path class="cls-1" d="M95.62,112.17c-2.72-2.43-1,10.19,6.27,15.45s13-4.13,12.87-5.48S103.93,119.55,95.62,112.17Z"/><path class="cls-1" d="M64.25,89.64c-1.85,2.83-1,8.52,6.08,14.44s8.5-.26,8.63-3Z"/><path class="cls-1" d="M35.68,58c-2.83.94-10.87,3-3.6,12.6S46.33,78.09,48.2,75Z"/><path class="cls-1" d="M15,22.05C10.69,24,4.71,25.72,9.64,34.67s11.26,8.11,14.8,5.89Z"/><path class="cls-4" d="M16.93,27.55c-1.88.64-3.7,1.08-2.57,4.23s5.87,1.82,5.54.5S16.93,27.55,16.93,27.55Z"/><path class="cls-4" d="M38.54,63.53c-2.14,1-3.1,1.89-1.74,4.61s4.21,2.21,5.38.15S39.34,63.15,38.54,63.53Z"/><path class="cls-4" d="M68.52,94.06c-.85,2.16-.49,2.79.89,4.69s3.9,2.1,4.75-.19S68.52,94.06,68.52,94.06Z"/><path class="cls-4" d="M101.48,116.08c-.85,2.17-.49,2.8.89,4.7s3.91,2.11,4.75-.19S101.48,116.08,101.48,116.08Z"/><path d="M41.21,37.51a1.92,1.92,0,1,1,.25-2.58A1.83,1.83,0,0,1,41.21,37.51Z"/><path d="M30,16.94a1.84,1.84,0,0,1-2.56-.47,1.77,1.77,0,1,1,2.8-2.14A1.87,1.87,0,0,1,30,16.94Z"/><path d="M56.86,58.57A1.93,1.93,0,1,1,57.09,56,1.84,1.84,0,0,1,56.86,58.57Z"/><path d="M74.64,78.48A1.84,1.84,0,0,1,72.08,78a1.86,1.86,0,0,1,.25-2.6,1.83,1.83,0,0,1,2.56.47A1.85,1.85,0,0,1,74.64,78.48Z"/><path d="M90.33,91.64a1.84,1.84,0,0,1-2.57-.46A1.78,1.78,0,1,1,90.58,89,1.88,1.88,0,0,1,90.33,91.64Z"/><path d="M110.42,105.85a1.84,1.84,0,0,1-2.57-.46,1.87,1.87,0,0,1,.25-2.6,1.82,1.82,0,0,1,2.55.46A1.85,1.85,0,0,1,110.42,105.85Z"/><path d="M129,114.45a1.92,1.92,0,1,1,.25-2.59A1.84,1.84,0,0,1,129,114.45Z"/><path class="cls-5" d="M14.65,18.38s-1.6,6.87,12.65,26.16"/><path class="cls-5" d="M33.22,54.17C34.93,57.34,48,75.68,52.52,79.51"/><path class="cls-5" d="M61.53,86.07c3.06,4,16,14.46,19.46,16.26"/><path class="cls-5" d="M92.65,109.93c2.83,2.78,19.19,12.22,24.6,12.81"/><path class="cls-6" d="M27.4.41C25.57,2.13,43.2,42.56,79,76s58.59,37.34,60.43,35.45-16.39-36-50.83-70.57S30.06-2.1,27.4.41Z"/></g></g></svg>