<svg xmlns="http://www.w3.org/2000/svg" viewBox="0 0 131.41 227.68"><defs><style>.cls-1{fill:#010202;}.cls-2{fill:#db7a1c;}.cls-3{fill:#f59b1a;}</style></defs><title>trompeta</title><g id="Layer_2" data-name="Layer 2"><g id="Layer_1-2" data-name="Layer 1"><path class="cls-1" d="M87.8,81s-5.52-.61-5,1.58,1.2,6,1.2,6l-12.3,3.17.55,2L84.55,91s.5,4.41,1.32,5.17,7.35-.67,7.06-2.77S90.6,82.28,87.8,81Z"/><path class="cls-1" d="M81.25,59.13c-2-.18-4.37,1-4.31,2.53a20.08,20.08,0,0,0,1.16,4.43L66.87,69.92l.36,1.91,11.7-2.75s.4,5.24,2.47,5.61,5.51-.51,5.31-2.81S84.24,59.4,81.25,59.13Z"/><path class="cls-1" d="M75.09,37.45c-1.72-.66-5.7.44-5.66,2a32,32,0,0,0,1.23,5.35L59.44,48.63,60,51.26l11.25-2.71S71.52,54,73.74,54s5.4-.78,5.26-3.26S77.2,38.27,75.09,37.45Z"/><path class="cls-2" d="M72.45,88.49c-4.21.56-38.29,10.8-39.81,11.32S30.21,103,31,105.25c1.05,3,.91,4.39,5.7,3.2,5-1.23,33.82-11,35.54-11.4s2.69-2.94,2.4-6.17S72.45,88.49,72.45,88.49Z"/><path class="cls-2" d="M67.45,67.25C64,68.74,25.78,78.7,24.29,79.66s-.46,9.12,2.19,8.6,42-13.32,43.1-14S68.78,66.67,67.45,67.25Z"/><path class="cls-2" d="M62.7,53.88C61.83,54.19,22.19,65,21,65.52c-2.8,1-4.92-7.82-1.18-8.88C22.1,56,59,45.33,60,44.87S64.5,53.25,62.7,53.88Z"/><path class="cls-2" d="M40.43,28.75s-3.61-13.48-5-15.11-4.38-1.26-4.8-3-1.25-4.48-1.09-5.8C30.38,4.5,34,2.13,32.35.62s-7.58.13-9.46,1-4.15,2.43-3.55,4c.48,1.23,3.06,1.33,5.06,1.14.28,1,1.88,5.28,1.54,6.34-1.33,2.69-2.54,3.21-1.58,6.46s4.18,13,4.18,13Z"/><path class="cls-3" d="M54,227.23c6.65-18.9,18.12-57.45,9.58-89.8S38.67,41.14,36,38.16c-3.66-4.14-11.27-.43-15.53,1-5.78,1.9-10.17,5-9.88,9.8S29.8,113,30.88,116c1.4,3.82,4.49,3.69,13.55,1.4,5.56-1.4,13.2-3.16,13.2-3.16l2.77,10.14s-12.94,4-17.82,4.56-16.08,4.47-21.14-6.45S1.6,59.65.29,51.2c-1.6-10.06,3.53-17.32,14-21.49,10.66-4.27,17.06-5.18,21.28-4.95s9.37,3.2,12.77,15c3,10.51,26.21,94.45,30.25,104.27s36.61,47.62,52.8,55.7Z"/><path class="cls-2" d="M96.8,206.65c-23.09,9-43.09,18.66-42.78,20.59s28.69-2.79,42.9-8,35.19-16.74,34.47-19.52S101.87,204.69,96.8,206.65Z"/></g></g></svg>