<svg xmlns="http://www.w3.org/2000/svg" viewBox="0 0 178.68 245.68"><defs><style>.cls-1{fill:#3c3c3b;}.cls-2{fill:#814114;}.cls-3{fill:#a85318;}.cls-4{fill:#010202;}.cls-5{fill:none;stroke:#dad8cc;stroke-width:0.32px;}.cls-6{fill:#dad8cc;}</style></defs><title>violin</title><g id="Layer_2" data-name="Layer 2"><g id="Layer_1-2" data-name="Layer 1"><path class="cls-1" d="M59.78,142.2C65.37,128.62,108.23,49.28,124.36,18c-11.6-6.63-2.07-11.12,5.42-8.85,1.72-14.89,17.41-6.28,8.94,6,12.42,2.91,5.62,13.41-6,8.26-15.34,45.23-47.83,110-57.38,130.3C71,151.09,64.11,147.09,59.78,142.2Z"/><path class="cls-2" d="M99.38,184.28c-2.95-5-5.53-8.26-4.09-15.93,1-5.2,5.84-10.24,6-15.6.34-11.64-8.25-21.91-19.44-27.4-22-10.81-47.8,27.15-54.53,45.12C19.18,192.16-1.54,236,25.36,243.3c30.82,8.4,51.8-6.84,64-23.8C72.2,210.56,83.54,184.13,99.38,184.28Z"/><path class="cls-3" d="M4.64,175.92c13.64,8.85,30-12.34,16.11-28.56,22.76-1.22,22.12-42.52,53.71-26.34,8.48,4.06,20.28,15.63,19.4,26.14s-20.72,25.56-7.06,36.31c-16,1.27-22.35,13.31-22.87,20.46-.43,5.84,5.09,18.69,8.65,19.4-4,6.24-17.84,17.8-25.64,20.17C6.09,253.91-8.39,206.47,4.64,175.92Z"/><path d="M57.34,141c5.57-13.6,48.43-92.94,64.57-124.23-11.62-6.63-2.08-11.12,5.43-8.85,1.72-14.88,17.4-6.28,8.94,6,12.41,2.89,5.61,13.39-6,8.26C115,67.35,82.47,132.15,72.92,152.41,68.5,149.85,61.66,145.84,57.34,141Z"/><path class="cls-4" d="M103,27.44s3.73,3.68,5,1.87,3-4.12,3-4.12l10.4,6.8,1.05-1.72-10.11-7.14s2.5-3.88,2.51-5-4.47-4.07-5.79-2.47S102.05,24.54,103,27.44Z"/><path class="cls-4" d="M93.47,46.78c1.15,1.14,3.86,1.74,4.63.7a29.83,29.83,0,0,0,2.07-3.94l9.2,3.52.77-1.43-8.93-4.46s2.49-3.58,1.35-4.92-4.34-2.63-5.4-1S91.7,45,93.47,46.78Z"/><path class="cls-4" d="M134.29,53.09s-3.21-3.23-4.44-1.45-2.66,4.45-2.66,4.45l-10.42-6.8-1,1.71,10.11,7.14s-2,4.38-2,5.48,3.66,2.88,5,1.27S135.21,56,134.29,53.09Z"/><path class="cls-4" d="M143.43,35.43c-1.15-1.52-3.57-2.5-4.66-1.42a18.9,18.9,0,0,0-2.4,3.78L126.22,32.2l-1.13,1.52,9.71,6.64a15,15,0,0,0-2.36,5.51c1.11,1.75,4,3.64,5.51,2S145.21,37.79,143.43,35.43Z"/><path d="M51.4,194.18c-4.91,8.66,4.16,17.22,9.54,10.3-4.25-.06-5.29-.18-6.23-3.49-.8-1.78,1.84-5.92,2.46-7.52,1.93-5.13,3.94-12.47-2.56-14.62C56.46,184.41,55.49,187,51.4,194.18Z"/><path d="M42,172.79c-4.26.28-6.08,5.13-7.94,8.43-1.58,2.67-2.66,6.72-5.84,7.89-3.61,1.33-7.65-.55-6.43-4.89,4.33,6.19,7.65-3.64,9.39-6.62C32.65,175.23,37.23,169,42,172.79Z"/><path class="cls-5" d="M117.84,48.08,34.29,219.18"/><path class="cls-5" d="M122.28,30.6,31.39,218.31"/><path class="cls-5" d="M119.38,29.72,28.47,217.44"/><path class="cls-5" d="M110.19,44.69s-36.73,67-49.63,97.53c-12.22,29-34.45,73.18-34.45,73.18"/><path d="M17.3,240.73c2.78-8.9,7.73-17.47,8.38-26.82,3.52,1.37,6.83,3.88,10.35,5.25-6.08,6.47-9.49,15.37-12.92,24.45A16.86,16.86,0,0,1,17.3,240.73Z"/><path class="cls-6" d="M165,76.13S103.12,109.58,75.15,125C49,139.41,9.06,165.88,9.06,165.88l-1.06-2s52.58-33.18,67.44-41.16,88.32-48.89,88.32-48.89Z"/><path d="M8.89,165.57l2.71,5.07s41.5-26.14,69.67-42.3c31.18-17.91,86.28-47.41,86.28-47.41L165,76.13l-4.52,2.41a2.79,2.79,0,0,1-.12,2.93c-1,1.23-54.36,30.23-77.76,43-23,12.51-60.68,36.71-68,41.47a4.51,4.51,0,0,1-2.12.77c-.84,0-1.79-2.07-1.79-2.07Z"/><path d="M177.42,72.62,165,79.29l1.25,2.35L178.68,75Z"/></g></g></svg>