<svg xmlns="http://www.w3.org/2000/svg" viewBox="0 0 109.87 299.2"><defs><style>.cls-1{fill:#1b8a4f;}.cls-1,.cls-2{fill-rule:evenodd;}.cls-2{fill:#814114;}</style></defs><title>arbol</title><g id="Layer_2" data-name="Layer 2"><g id="Layer_1-2" data-name="Layer 1"><path class="cls-1" d="M62.69,240.51c7.52,0,35.36-10.37,43.42-32.39s1.47-69.78-3.81-89.89S62.93,0,62.93,0,52.4,22.48,43.56,37.71,8.29,113.88,3.21,136.77s-5.27,63.85,7.92,81.5C27.74,240.51,40.67,236.27,62.69,240.51Z"/><path class="cls-2" d="M60.54,299.2s-.39-28.18-.39-39.75-1.94-34.35.39-36,7.07-2.82,12.68-5.16a58.9,58.9,0,0,1,16.93-3.71l5.34-.46-1.08-5s-.77-.25-4.67,0-5.07.47-7,.66c-3.66.36-6,2.1-5.85,0s.77-10.67-1.17-9.82a25.67,25.67,0,0,1-3.14,1.2,31.45,31.45,0,0,0-1.4,6.22A22.09,22.09,0,0,0,71,211.8s-4.58,1.57-7.28,2.12c-2.35.47-3.17.1-3.21-4.83-.05-6.77-1.58-23.88-.41-28.24a10.38,10.38,0,0,1,7.15-7.75c2.33-.84,7.88-2,11.85-3.91a18,18,0,0,1,6.7-2l-.39-3.78a72.94,72.94,0,0,0-7.38,1.6c-1.86.67-8.41,2.8-8.41,2.8s3.33-8,3.33-9,.39-5.72.39-5.72h-3l-.9,4.93H63.63l-1.17,1.77,4.66,2.05-2.63,6.09L59.33,170s.78-20.54,1.57-27.21l.77-6.68s5.06-2.72,7.79-3.88,9.65-3.1,9.65-3.1l-.1-3.66-9.33,2.91a19.11,19.11,0,0,0,2.5-3.64c1.17-2.21.19-2.15.19-2.15l-2.71-.87-7.61,9.62s.4-27.46.78-30S73,91.36,73,91.36l-1.44-2-2.06.89c-4.28,2.33-7,5.16-8.17,5.69S50.92,77.35,48.9,76.17l-2-1.17c-3.9,1.94-3.11,4.34-3.11,4.34a36,36,0,0,1,5.14,6.17C51.15,89,52,90.3,52,90.3L45.7,95.88l1.16,1.8s5.24-5.09,6.71-4.78c1.06.23,1.86,8.39,1.86,8.39s-3.5,19-3.5,24.16-1.4,11.43-3,12.79-3.59,0-3.59,0l2.38-6.92H43.75l-3.44,6.92s-10.13-4.87-12.47-6S22,136.65,22,136.65s1.55.61,4.67,1.59,10.9,3,14.41,4.53S49,147.05,49,148.64c0,2.78-1.67,26.23-2.11,32.47s-.19,18.77-.19,18.77-5.36-3.61-9.55-6.24-10.41-6.35-10.41-6.35l-1.56,2.57,6.22,5.82s-1.17,2.8-2.34,3.73l-1.17.94,2.34,2.77a30.4,30.4,0,0,0,3.68-3.69l1-1.4,11.29,11.05-3.51,90.11h17.9Z"/></g></g></svg>