<svg xmlns="http://www.w3.org/2000/svg" viewBox="0 0 902 354.84"><defs><style>.cls-1,.cls-9{fill:#e3d7c2;}.cls-2{fill:#92c131;}.cls-3{fill:none;stroke:#1b8a4f;stroke-linecap:round;stroke-width:1.14px;}.cls-4{fill:#1b8a4f;}.cls-5{fill:#2fac66;}.cls-6{fill:#a85318;}.cls-7{fill:#00a0a4;stroke:#00a0a4;}.cls-8{fill:#4fbcc1;}.cls-9{fill-rule:evenodd;}</style></defs><title>piso</title><g id="Layer_2" data-name="Layer 2"><g id="Layer_1-2" data-name="Layer 1"><path class="cls-1" d="M24.24,267.7c-73.55-83.87,53.08-17.6,153.57-22.63s177.57-22,234.14-22,117.8-27.19,173.77-27.25,17.8,90.13-16.25,90.16S302.11,312.31,286,310.26,97.79,351.57,24.24,267.7Z"/><path class="cls-2" d="M98.34,167.43C94.7,246,152.27,291.8,194.68,309.36s160.08-41.51,205.71-48,337,108.26,354.08,16.66-176-86-285.83-174.22-170.37-69.73-235-57.38S102,88.88,98.34,167.43Z"/><path class="cls-3" d="M203.11,183.27s-1.33-51.5,10.8-93.89C228.85,37.2,247.58.57,247.58.57"/><path class="cls-4" d="M184.81,185.45c10.33-.47,21.38-.7,33.16-.59-.11-1-4-37.86,6.58-77.39a437,437,0,0,1,22-61.72,202.4,202.4,0,0,0-29.63,56.62c-8.38,25.75-12.8,77.35-12.8,77.35s-6.2-6.28-5.87-32.75,9.85-93.2,9.85-93.2-13.63,37.14-18.14,70C186.73,147.1,185.18,177.25,184.81,185.45Z"/><path class="cls-4" d="M257.88,186.46c3.19-9.36,8.71-26.17,12.84-42.36,6.18-24.17,32-80.51,32-80.51s-16.22,15.24-28.87,42.67c-9.05,19.59-35.31,74.47-35.31,74.47s14-59.91,23.64-87.81S299.8,15,299.8,15s-26.6,27.75-42.51,60.61c-12,24.72-38.69,107.29-39.31,109.25C230.47,185,243.77,185.48,257.88,186.46Z"/><path class="cls-5" d="M157.55,187.41c6-.58,12.24-1.1,18.83-1.5-2.84-17.32-4.93-40.28-1.76-62.4A479.81,479.81,0,0,1,190,55s-17,28.72-24.14,64.8C160.45,147.27,157.72,185,157.55,187.41Z"/><path class="cls-5" d="M116.84,193.36c6.78-1.35,14.34-2.65,22.67-3.8-3.8-14.05-8.37-31.18-11.25-43.09-5.71-23.59-9.09-85.73-9.09-85.73s-7.14,22.64-5.6,53C114.53,132.37,116.35,180.38,116.84,193.36Z"/><path class="cls-5" d="M141.45,189.29q7.53-1,15.91-1.85c-.77-.62-3.8-4.52-6.44-28.42-3-27.53,3.62-124.81,3.62-124.81S138.12,87,139.44,137.56C139.84,152.72,140.71,173.22,141.45,189.29Z"/><path class="cls-5" d="M72.73,205.89s.64-.29,1.89-.79c-2.29-2.28-6.26-7.46-12.68-19.23C50.07,164.1,23.58,79.7,23.58,79.7s3,51.37,21,93.16C51.12,188,60.84,209.3,67.08,222.93Z"/><path class="cls-5" d="M76.55,204.35c6-2.28,19.1-6.73,39.38-10.8-2.82-8.62-10.69-33.79-14.26-57.2-4.38-28.79-2.88-87.21-2.88-87.21s-10.48,39.37-9.28,76.17c.92,28,6.34,72.51,6.34,72.51S79.51,182.37,70.52,143A364.14,364.14,0,0,1,62,81.66s-5.56,31.48.15,64.81C65.91,168.47,74,196,76.55,204.35Z"/><path class="cls-6" d="M227.85,35.34c.54-1.22,9.46-24.55,11.48-27.91,2.89-4.77,8.92-1.7,7.31,2.92-1.18,3.42-9.25,24.74-11.15,28.72C233,44.24,225,42,227.85,35.34Z"/><path class="cls-7" d="M49.59,194.94c-47.34,8.32-64.92,41.79-22.86,50.91s43.5,11.07,41.43,13.79-3.36,4.33-9.32,7.53l-45.62,6.57C-24.36,288.86,42.89,314,42.89,314s55.2,4.17,151.76,7.34S684,337.84,684,337.84c125.4-.26,161-50.18,86-50-36.18.08,28-47.66-167.15-49.08-41.76-.3-59.48-11.75-83.19-33.77-31.58-17.21-46.13-18.94-90.58-23.27,0,0-14.34-3.55-112.73-8S147.05,171.39,49.59,194.94Z"/><path class="cls-8" d="M264.15,180.26c-2.12,1.07-5.23.35-7.6,1.09-.3.06,0-.51-.62-.34-2.32.86-6.15.59-9.12.17L247,181c-.58-.08-1.21.43-1.8.38,0-.09.18-.14,0-.26-.11.3-1.05.18-1.29.41-.23-.1-.23-.33-.54-.45l-.31.34c-.88.8-2.29,0-3.54.46.06-.08.18-.14.08-.21a52.31,52.31,0,0,1-6.9.78c.09-.12.16-.33,0-.45-.08.34-.79.45-1.41.55-.3-.35-1,.35-1.77.17l.06-.08c-.52.38-.81-.2-1.22.26l-.35-.27c-.21.5-.8-.25-1.22,0v.1c-.41.13-.64-.11-1,0l-.05-.06c-.89.15-1.44-.11-1.39.27-.34-.3.86-.16.35-.61a66.25,66.25,0,0,1-9,.55c-.35-.15-.57-.19-.64-.33a5.55,5.55,0,0,0-1.4.3c.11,0-.2-.19-.36-.21-.56-.13-.58.43-1.19.28.23-.11.3-.23.22-.38a5.14,5.14,0,0,1-1.78.39c.09-.07.24-.11.21-.23-.65.35-1.21,0-1.78.18l.21-.23c-.94-.26-.25.47-1.08.33.19-.07.12-.16.15-.25a9.69,9.69,0,0,1-2.7.47l0-.09a19.36,19.36,0,0,0-2.57.16c-.34-.09.07-.54-.78-.44.06.44-1.45.22-.92.71a9.34,9.34,0,0,0-2.41,0c.32-.18-.38-.53.22-.59l-.48-.26c.06-.19.48.05.32-.18a7.63,7.63,0,0,1-1.47.17,4.57,4.57,0,0,1-2,.89c.42-.18-.28-.48,0-.57l-1.23.89c-.31,0-.09-.36-.53-.22,0,.12-.16.2-.3.3s-1.26.15-1.42-.28c-.15-.18.5-.12.15-.26-.57,0-.59.17-1.15.2v-.06c-.38-.05-1.09.23-.68.46.27,0-.11-.26.28-.15a2.46,2.46,0,0,1-1.47.38c.19-.08.17-.19.22-.32a9.68,9.68,0,0,1-2.37.68c0,.22.29-.39.42-.29-1.11-.25-2.21.49-3.15.09.14,0,.1.29.08.24-.52,0-.52-.31-.85-.19,0-.18-.42.07-.77.14-.18.13-.11-.08.2-.11a10.14,10.14,0,0,1-3.57.32c0,.11-.66.46-.91.46l.08-.28c-.25-.15-.87.06-.94-.17-.53.36,2.11-.39,1.38-.1-.22-.22-1,.49-.88.11-.52,0-1,.36-1.53.13.15,0,.38-.41,0-.37-.73.08-.19.14-.79.27l-.37.13c0,.27-.67,0-.36.28-.12-.22-1.08.18-1-.26l.07-.36c-.32,0-.48.4-.72.56l-.13-.15c0,.54-.78,0-1.1.42-.69-.15-1.72.06-2.07-.26a3.1,3.1,0,0,1-1.54.32c.1-.06.26-.08.29-.2-.38-.13-.47,0-.79.12.07-.08-.78-.27-1.2-.43-.5.19-.28.47-.31.65-.53-.5-1.41.44-2.06,0,.18-.08.72-.31.28-.41-.54-.51-.89.45-1.69.24l.25.43c-.36-.26-1.07.32-1.05-.14-.24.18-.92-.09-.77.34-1.29-.29-3,.4-3.86-.32-.16.08-.61,0-.5.26.34.22.38-.2.52,0a.18.18,0,0,0-.18.2c-.4-.07-.7-.08-.4-.47-.89-.2-.76.8-1.87.73,0-.18-.08-.24-.39-.18l-.55.35c-.72,0-.47-.37-.53-.66-.37.08-.84.11-1,.35l-.51-.33c.38.24-.28.21-.44.29l.16-.09c-.09-.12-.52,0-.72,0,.09.18.54.21.79.25-.16.15-.47.14-.69.32,0-.3-.65-.15-.95-.16s-.34.29-.45.29c0-.15-.55,0-.33-.21.1-.06.29.12.45,0-.25-.09-.26-.36-.7-.13s.2.58-.5.45c.16-.1.16-.22.28-.33l-.66-.1,0,.27c-.11-.06-.05-.09-.09-.12-.13.3-.94.17-1,.5a7.11,7.11,0,0,1-1-.13l.06,0a1.37,1.37,0,0,0-1.14.22v-.06a1.49,1.49,0,0,0-.88.27c-.55-.14-.38-1-.88-.59-.52.08-.69.59-.46.73-.95-.07-1.91.49-2.85.17-.1.12,0,.18-.26.27-1.38.06-2.76.65-4,.25.37-.15,0-.27-.09-.42-.26.28-.45-.2-.47.23.11.23.11.35.5.4a5.66,5.66,0,0,1-2.49.19c.25.08.1.18-.06.27,0-.39-.66-.37-1.06-.16v.24L132,189c-.15.1,0,.52-.54.37l-.21-.24a2.14,2.14,0,0,1-1.51.57l-.51-.27c-.21.07-.5.32-.09.37-.91-.07-1.47,0-1.84-.26-1.23.94-3.33,1.29-5.05,1.5v-.18c-.51-.09-.13.33-.48.26.08-.19-.47-.29-.2-.55-.71-.05-.71.46-1.1.62,0,.24.28-.21.31.09,0,.09-1,0-.92.37-.22-.11-.19-.38-.15-.54l-.32.24c-.63-.3.82-.93.11-1.32l-.35.13c-.48-.28.81-.59-.16-.53-.34.25-.48.8-.06.89-.79.26-.06.88-.95,1-.32-.15.69-.19.41-.43-.53-.19-.78.32-1.18.3.47,0,.27.46,0,.58-.51-.07.16-.38-.49-.29,0,.22-.54.48,0,.51,0,.5-.71,0-.91.42-.34-.27.34-.84-.43-.86.24.27-.67.57-.11.95-.31,0-.44-.27-.33-.49-.47-.11-.7.74-1.1.17v.34c-.16-.08-.38-.12-.64-.25-.36.06-.91.64-1.1.17-.09.08-.89.21-.43.47.57.09.45-.34.92,0-.51-.28-.67.18-.91.36l-.13-.17c-.13.1-.54.14-.56.35.08-.13,0-.23-.19-.25l0,.31c-.59.31-.38-.43-1-.19l.38-.33c-.09.07-.43-.12-.69,0,0,.27-.07.63-.09.85-.31.2-.31-.23-.53.11l.33-.41c0-.11-.52-.33-1-.2-.27.16-.56.64,0,.65-.23.07-.66,0-.56-.22-.5.22.21.24-.19.51-.27-.11-1-.18-1.49-.32l.28-.54-.34.08c.25-.43-.35-.19-.3-.59a1.09,1.09,0,0,0-.64.34c1,.38-.34.94.15,1.39-.83.37-1.25-1.06-1.75,0,.23.1,0,.59.48.3-.58.09-.09.59-.86.56.36-.33-.82-.36-.28-.85,0,.18.47,0,.56-.05-.34-.13-.24-.51-.83-.36-.32.14-.8.27-.58.52s.51-.18.47.18c-.65.28-1-.12-1,.45a.66.66,0,0,1,.81.3l-.44.26,0-.22c-.9.07,0,.41-.87.56l-.58-.26c0-.4,1.23-.16.77-.66-.52.12-.55.4-1.09.43l.29-.22c-.19,0-.79-.58-1.26,0-.27.28,0,.22.13.42-.76.32-.88.59-1.37.79-.14-.41-.92.27-.61-.3.41.13,1.54-.27,1.6-.73-.58-.35.67-.14.55-.65-.64.2-.89-.25-1.18-.51-.2,0-.3.23-.37.3.1.29.32.21.53.49a2.42,2.42,0,0,0-1.59.94c-.34,0-.44-.34-.16-.46a13.82,13.82,0,0,1-2.63.81c.84.27-.83.41-.22.65.52,0,1.1.14,1,.41-.29.06-.13-.19-.31-.25-.17.35-.81-.2-.88.28.68-.39-.23-.57-.34-1-.42.38-.14-.25-.71-.06a7.5,7.5,0,0,1-1.59,1c-1.06-.09-2,.72-2.6,1-.48,0-.56-.49-1-.39s.66.26-.14.37v-.1c-.13.17-1.43.26-1.16.87l-.15-.49c-.16,0-.19.16-.25.25-.12-.13-.37-.19-.23-.36-.65-.1-.83.41-1.27.61l.5.11c-.58.5-1.3.48-2,.87l-.19-.23-.31.32c-.11-.26-.63-.23-.69,0l.63-1c.44,0-.09.42.31.55s1-.22.88-.48c-.28.08-.25.14-.38.3-.39-.28,0-.43,0-.72-.14.07-.42.06-.36.17a1.54,1.54,0,0,1,.82-.61c-.19.25.34.13.31.27-.22-.29.15-.56.77-.71.69.16.86-.65,1.6-.84a1.54,1.54,0,0,1-.46,1c.53,0,.44-.19,1-.22,0-.29-.12-.69.31-1l.2.2c.4-.31.13-.62.8-.83,1.13-.35,2.32-.66,3.17-.93l.19.21c.11-.63,1.44-.69,1.92-1.11,1.23-.14,2.2-1,3-.79a22.38,22.38,0,0,1,5.49-1.91l-.14.43c.22-.35.35.13.67,0-.57-.16.3-.48.44-.75a5.08,5.08,0,0,0,2.76-1l.15.22c.59-.64,1.77-.51,2.83-.7a1,1,0,0,0,.75.13c.37-.53.69-.55,1.41-1a12.37,12.37,0,0,1,2.32-.2c2-1,4.53-1.12,6.79-1.92l.28.24c2.1-1,5.2-.87,7.09-1.5l0,.51c.68.05,1.38-.34,1.12-.66.67.05,1.5-.48,2-.14.68,0,.72-.35,1.24-.5a13.53,13.53,0,0,0,3-.32h-.3c-.11.12-.06.33.25.32.42-.19,1.71-.06,1.1-.59,1.39.18,3-.63,4.36-.33-.15-.15.17-.21.28-.33a14.1,14.1,0,0,0,3.28-.33c.19.06-.23.3.24.27.26-.09,0-.21.28-.33,1.8-.49,3.84,0,5.52-.25a82.9,82.9,0,0,1,9-.94V183c.91-.52,2.33.31,3-.41.25.11.88,0,.75.24.73-.37,2.2.16,3.26-.32l-.28.08c1.16.2,2.11-.23,3.33-.07-.11.06-.33.12-.35.24.48.2,1-.57,1.35,0a.14.14,0,1,0,0-.28,63.64,63.64,0,0,0,8.07-.63c2,.25.21,1,1.71.46.13.1.07-.22.1-.1.57-.18,1,.6,1.36.27-.19-.34.27-.21.25-.42,1.21.17,1.47.49,2.38.19l-.06.18c1.06-.55,2.35-.31,3.23-.94,6-.33,11.83-.8,17.73-1,5.83,0,11.52-.42,17.44-.25a4.56,4.56,0,0,0,3,.21c-.06.08-.15.1-.05.17.06-.41,1.08-.07,1.19-.45,2.19,0,4.19-.13,6.43-.2-.35,0-.51.38-.09.34l.43-.26.07.11c.28-.07.59-.27.28-.39,5.59-.52,11.19.11,16.66-.27a27.58,27.58,0,0,0,4.57-.29,53,53,0,0,0,12.27-.21A3.15,3.15,0,0,1,264.15,180.26Z"/><path class="cls-8" d="M185.42,206.18c2.41-1.22,5.92-1.05,8.65-1.93.32-.08,0,.46.71.24,2.63-1,7-1.24,10.4-1.1l-.18.16c.64,0,1.37-.49,2.05-.5,0,.08-.2.14,0,.24.14-.27,1.21-.26,1.48-.48.27.07.27.27.62.35l.36-.32c1-.77,2.62-.17,4.05-.65-.07.08-.21.14-.08.19a53.32,53.32,0,0,1,7.91-1c-.1.1-.19.3,0,.4.12-.31.93-.43,1.63-.53.34.29,1.2-.37,2-.22l-.07.07c.6-.34.92.17,1.41-.23l.41.23c.25-.45.89.21,1.39,0l0-.09c.47-.12.73.1,1.18,0l0,.05c1-.14,1.65.08,1.62-.26.37.27-1,.15-.42.54a73.59,73.59,0,0,1,10.4-.25c.39.15.64.2.73.33a8.54,8.54,0,0,0,1.61-.18c-.11,0,.22.18.41.2.62.16.7-.35,1.38-.17-.28.08-.37.19-.29.32a7.06,7.06,0,0,1,2.09-.24c-.11.06-.29.07-.26.19.77-.26,1.37.15,2.05,0l-.25.18c1.06.31.33-.39,1.25-.19-.23,0-.15.13-.2.2a14.48,14.48,0,0,1,3.15-.16.07.07,0,0,0,0,.08c.94,0,1.92.21,3,.16.37.12-.16.47.83.48,0-.39,1.69,0,1.15-.5a12.82,12.82,0,0,0,2.74.32c-.39.12.37.53-.34.49l.51.3c-.09.15-.54-.11-.38.12a9.35,9.35,0,0,1,1.69.08,6.32,6.32,0,0,1,2.38-.46c-.51.09.23.47-.11.49l1.56-.58c.35,0,0,.33.56.29,0-.11.22-.15.38-.21s1.48.1,1.58.51c.13.18-.58,0-.21.2.64.09.69-.05,1.33,0v.06c.41.12,1.28,0,.85-.27-.3,0,.08.25-.35.07a3.64,3.64,0,0,1,1.74,0c-.23,0-.22.13-.33.23a12.75,12.75,0,0,1,2.85-.11c0-.18-.41.26-.54.15,1.2.46,2.62.09,3.59.63-.18,0-.05-.27,0-.22.59.12.52.38.92.35,0,.16.5,0,.91.06.23-.08.09.08-.26,0a13.28,13.28,0,0,1,4.1.62c0-.1.86-.22,1.16-.15l-.16.21c.24.2,1,.17,1,.39.69-.17-2.48-.23-1.58-.29.18.25,1.26-.15,1,.14.59.11,1.22-.05,1.74.29-.16-.07-.54.24-.07.31.85.12.27-.06,1,0h.45c.08-.23.75.2.49-.13.06.21,1.25.14,1.08.52l-.18.27c.37.06.66-.19,1-.26.05,0,.13.12.1.16.16-.45.86.23,1.37,0,.73.32,1.93.43,2.22.82a4.3,4.3,0,0,1,1.83.21c-.14,0-.32,0-.39.07.39.24.52.15.92.15-.1,0,.77.47,1.2.75.6,0,.47-.3.57-.44.42.58,1.7.1,2.26.69-.22,0-.9,0-.45.25.41.58,1.15-.07,1.94.36l-.12-.43c.33.33,1.31.1,1.12.46.32-.06,1,.38,1,0,1.32.66,3.44.71,4.12,1.6.21,0,.69.19.64,0-.27-.3-.5,0-.58-.15a.24.24,0,0,0,.28-.1c.4.19.73.31.25.51.9.49,1.16-.36,2.35.12-.09.14,0,.22.34.29l.75-.07c.78.28.35.46.31.73.43.07.94.23,1.19.1l.43.46c-.31-.33.39-.06.61-.06h-.22c.05.14.56.2.81.24,0-.17-.5-.37-.76-.5.25-.05.58.07.9,0-.16.22.64.37,1,.48s.5-.1.61-.06.63.2.27.29c-.14,0-.26-.21-.51-.15.22.17.13.38.71.36.42,0,0-.52.74-.14-.21,0-.28.1-.46.14l.66.33.1-.22c.08.08,0,.08,0,.13.27-.19,1.09.23,1.33,0a10.67,10.67,0,0,1,1,.49h-.07a2.08,2.08,0,0,0,1.34.27l0,.05a2.82,2.82,0,0,0,1.09.15c.51.33-.07.91.64.81.58.16,1-.15.85-.37,1,.46,2.28.44,3.14,1.08.17-.05.1-.13.42-.1,1.49.54,3.29.68,4.38,1.49-.47,0-.1.21-.13.35.42-.09.37.35.61,0,0-.21.09-.31-.31-.52a8.54,8.54,0,0,1,2.77.91c-.22-.17,0-.18.21-.17-.16.3.5.56,1,.59l.14-.18.27.3c.22,0,.34-.35.78,0a.41.41,0,0,0,.09.26,3.57,3.57,0,0,1,1.91.26l.38.43c.25,0,.72,0,.31-.23.92.46,1.54.66,1.77,1a19.3,19.3,0,0,1,6.22,1.15l-.11.14c.49.29.35-.18.68,0-.21.1.31.43-.15.49.71.37,1,0,1.54.08.14-.18-.42,0-.26-.21.11-.05,1,.45,1.19.19.16.17-.05.34-.19.43h.5c.46.51-1.45.26-1,.86l.44.07c.31.43-1.22,0-.19.45.5,0,1-.34.64-.59,1,.18.64-.59,1.66-.28.23.26-.83-.19-.7.12.41.38,1,.13,1.41.34-.45-.25,0-.43.37-.41.48.29-.42.19.31.43.17-.14.89-.08.34-.36.38-.32.74.32,1.22.12.17.34-.94.43-.16.79-.06-.3,1.1-.09.78-.6.3.16.28.38,0,.48.41.29,1.25-.18,1.25.39l.19-.23c.12.13.31.25.5.47.4.11,1.4,0,1.25.38.14,0,1.06.25.78-.13-.52-.33-.72,0-.94-.43.32.41.84.17,1.2.16v.16c.21,0,.66.15.82,0-.17,0-.12.18,0,.26l.26-.18c.83.09.08.47.88.61l-.64,0c.14,0,.34.29.74.31.2-.18.54-.38.71-.52.47,0,.14.31.63.19l-.64.13c-.11.05.29.46.88.61.39,0,1.05-.15.5-.42.3.07.67.31.4.41.69.1,0-.25.59-.25.19.2.87.6,1.26.92l-.7.22.41.11c-.59.17.2.29-.17.53a2,2,0,0,0,.91.08c-.67-.71,1.07-.47.94-1,1.13.14.41,1.28,1.73.85-.16-.16.46-.38-.26-.42.66.22.57-.35,1.33,0-.64,0,.52.62-.4.68.09-.14-.45-.23-.6-.22.24.24-.17.45.53.62.43.06,1,.2,1-.06s-.66-.13-.32-.33c.86.12.92.55,1.38.16-.55-.09-.62-.39-.57-.57l.65,0-.16.14c1,.36.37-.25,1.32,0l.38.45c-.3.24-1.38-.46-1.33.06.63.16.9,0,1.46.24h-.47c.23.07.3.76,1.29.59.5,0,.16-.15.22-.33,1,.18,1.37.07,2,.19-.21.32,1.15.3.34.5a3.08,3.08,0,0,0-2.18-.35c.27.51-.78-.24-1.1.13.81.2.67.6.75.91a1.37,1.37,0,0,0,.61,0c.16-.23-.14-.3-.1-.56A4.87,4.87,0,0,0,378,230c.28.19.13.43-.24.37a25.41,25.41,0,0,1,3.26.73c-.57-.56,1.17.15.79-.3-.53-.21-.94-.61-.6-.73.34.1-.05.18.08.29.49-.13.6.51,1.11.24-1-.07-.3.48-.55.76.75,0-.08.23.63.38a14.75,14.75,0,0,1,2.46.11,12.76,12.76,0,0,0,3.41.66c.44.25.05.56.54.73s-.36-.49.48-.15l-.1.06c.29,0,1.57.56,1.92.08l-.34.35a.83.83,0,0,0,.47,0c0,.13.16.29-.12.33.49.38,1.15.16,1.74.24l-.34-.3a23,23,0,0,1,2.68.43l-.07.23.61,0c-.18.2.33.44.67.31l-1.62.3c-.39-.21.51-.2.28-.48a1.39,1.39,0,0,0-1.29-.13,1.07,1.07,0,0,0,.64,0c.06.34-.46.24-.75.41.18,0,.42.17.47.07a3.13,3.13,0,0,1-1.35,0c.43-.06-.18-.24,0-.31-.1.28-.69.27-1.41.06-.46-.43-1.42-.06-2.25-.31a3.18,3.18,0,0,1,1.42-.39c-.5-.25-.6-.11-1.1-.36a2,2,0,0,1-1.27.46v-.22c-.65,0-.71.3-1.5.08-1.37-.37-2.78-.64-3.82-.9v-.23c-.69.34-2-.24-2.81-.21-1.29-.49-2.94-.42-3.54-.95a63.81,63.81,0,0,1-6.88-1.36l.48-.21c-.49.12-.24-.25-.68-.3.44.37-.66.17-1,.28a8.77,8.77,0,0,0-3.48-.61v-.22c-1.07.16-2.12-.5-3.31-.88a1.23,1.23,0,0,0-.65-.45,6.56,6.56,0,0,1-2.09,0,15.26,15.26,0,0,1-2.47-.9c-2.75-.24-5.34-1.28-8.12-1.77l-.12-.31c-2.79-.21-5.87-1.64-8.18-2l.34-.35c-.66-.33-1.63-.35-1.54,0-.67-.33-1.81-.31-2.16-.78-.7-.29-.94-.07-1.55-.19a16.57,16.57,0,0,0-3.31-1l.33.13c.17-.05.24-.22-.09-.35-.54,0-1.82-.66-1.47,0-1.36-.72-3.44-.77-4.73-1.57.08.17-.28.09-.46.14a21.28,21.28,0,0,0-3.6-1.1c-.18-.12.39-.14-.12-.3-.32,0-.06.18-.47.14-2.13-.33-4.08-1.46-6-1.93-3.4-.67-6.83-1.78-10-2.57l.07-.09c-1.17.09-2.41-1.06-3.41-.7-.23-.17-1-.29-.72-.44-.93.06-2.32-.87-3.65-.82l.32,0c-1.2-.52-2.37-.48-3.65-1,.15,0,.39,0,.46-.08-.46-.32-1.3.14-1.47-.41-.29-.07-.27.19-.08.22a72.73,72.73,0,0,0-9.07-1.72c-2.11-.72,0-.86-1.75-.82-.13-.13-.14.16-.14.06-.69,0-.93-.75-1.44-.59.13.34-.34.11-.39.29-1.29-.46-1.51-.76-2.61-.71l.11-.15c-1.31.24-2.7-.25-3.83.1-6.82-1-13.4-1.51-20.08-2s-13.09-.67-19.83-.89a6,6,0,0,0-3.43-.21c.07-.07.18-.09.06-.15-.07.35-1.22.06-1.38.41-2.48,0-4.78.13-7.33.3.4-.06.58-.36.11-.31l-.49.26-.09-.1c-.33.07-.67.27-.32.36-6.4.6-12.76.53-19,1.35a32.48,32.48,0,0,0-5.2.76,67,67,0,0,0-14,1.7S183.45,206.73,185.42,206.18Z"/><path class="cls-8" d="M301.7,277.62c-1.61,1.63-4.5,1.84-6.54,3-.25.12-.09-.5-.63-.2-1.89,1.45-5.48,1.88-8.23,1.95l.13-.17c-.52,0-1,.64-1.6.65,0-.09.15-.16,0-.27-.08.31-.95.3-1.14.54-.24-.07-.25-.29-.55-.36l-.26.37c-.74.9-2.11.3-3.22.9,0-.09.15-.16,0-.22a38.16,38.16,0,0,1-6.38,1.24c.08-.12.15-.33,0-.45-.09.34-.74.46-1.32.56-.27-.34-1,.36-1.65.2l.05-.07c-.49.38-.75-.17-1.14.28l-.33-.26c-.21.49-.73-.22-1.14.05v.1c-.39.14-.59-.12-1,0l0-.05c-.85.13-1.35-.14-1.32.24-.3-.31.82-.14.35-.59a40.46,40.46,0,0,1-8.45.15c-.31-.17-.51-.22-.58-.37a5.94,5.94,0,0,0-1.32.2c.11,0-.16-.21-.31-.24-.5-.18-.58.38-1.12.16.22-.08.31-.2.24-.35a4.33,4.33,0,0,1-1.7.22c.1-.05.23-.08.22-.2-.65.29-1.12-.16-1.67,0l.22-.2c-.84-.33-.29.44-1,.23.18-.06.13-.15.17-.24a7.7,7.7,0,0,1-2.56.17l0-.09a16.74,16.74,0,0,0-2.39-.13c-.29-.13.15-.53-.66-.53,0,.45-1.39.05-1,.6a7.8,7.8,0,0,0-2.22-.34c.33-.13-.27-.58.3-.56l-.4-.31c.08-.18.43.11.31-.13a6.3,6.3,0,0,1-1.38,0,4.13,4.13,0,0,1-2,.63c.42-.13-.18-.51.11-.56l-1.3.71c-.29,0,0-.35-.44-.29,0,.12-.18.17-.31.25s-1.21,0-1.28-.48c-.1-.19.48,0,.18-.23-.53-.06-.57.09-1.09,0v-.06c-.34-.1-1,.06-.7.36.24,0-.06-.28.29-.1a2.25,2.25,0,0,1-1.42.16c.18-.05.18-.17.27-.28a9,9,0,0,1-2.32.33c0,.21.34-.35.44-.22-1-.41-2.13.16-2.92-.36.14,0,0,.3,0,.24-.49-.08-.43-.38-.76-.3,0-.18-.4,0-.73,0s-.07-.1.21-.09a9,9,0,0,1-3.35-.2c0,.12-.68.35-.92.32l.12-.27c-.21-.18-.81-.06-.83-.29-.55.27,2-.07,1.28.11-.15-.26-1,.33-.83,0-.49-.05-1,.21-1.42-.09.13.06.44-.33,0-.36-.7,0-.21.11-.78.14l-.37.07c0,.26-.61-.09-.38.23-.07-.23-1,.05-.91-.4l.13-.34c-.3,0-.52.33-.77.46,0,0-.11-.11-.09-.17-.09.53-.7-.1-1.1.28-.6-.24-1.58-.16-1.85-.52a2.65,2.65,0,0,1-1.48.11c.11,0,.26-.05.3-.16-.32-.18-.43,0-.75,0,.07-.08-.67-.36-1-.57-.49.12-.34.42-.41.6-.4-.55-1.37.26-1.88-.26.17-.06.71-.21.32-.37-.4-.55-.9.33-1.59,0l.15.45c-.3-.29-1,.19-1-.25-.24.13-.83-.18-.77.24-1.14-.41-2.82.11-3.51-.68-.16.07-.58,0-.5.2.27.25.39-.16.49,0a.23.23,0,0,0-.21.18c-.35-.12-.64-.16-.28-.49-.79-.3-.85.69-1.87.48,0-.18,0-.24-.32-.23l-.57.29c-.66-.09-.37-.41-.38-.71-.35,0-.78,0-.95.25l-.42-.38c.31.28-.3.18-.46.25l.16-.07c-.06-.13-.47-.07-.67,0,0,.18.46.27.69.33-.19.13-.47.09-.71.24.08-.3-.58-.22-.86-.26s-.37.26-.46.25-.52,0-.27-.25c.11,0,.25.16.43,0-.21-.12-.18-.38-.63-.19s.08.57-.55.38c.17-.07.2-.19.33-.29l-.58-.16,0,.27c-.08-.07,0-.09-.07-.13-.18.28-.89.07-1,.39-.29,0-.62-.18-.9-.21l.05,0a1.29,1.29,0,0,0-1.1.14v-.06a1.7,1.7,0,0,0-.87.18c-.48-.2-.16-1-.7-.67-.48,0-.75.49-.55.66-.88-.17-1.87.26-2.68-.13-.13.11,0,.18-.3.25-1.28-.08-2.69.39-3.72-.12.37-.12,0-.26,0-.42-.3.25-.38-.23-.47.18,0,.24,0,.36.36.45a5.35,5.35,0,0,1-2.34,0c.21.1.06.18-.11.26,0-.39-.52-.42-.94-.27l0,.24-.28-.23c-.16.08-.16.5-.59.29l-.14-.25c-.42.21-1,.57-1.52.39l-.41-.32c-.2,0-.53.27-.16.35-.83-.17-1.35-.14-1.63-.42a11.49,11.49,0,0,1-5,1.07l0-.18c-.45-.12-.2.32-.52.23.13-.18-.37-.33,0-.56-.64-.13-.78.38-1.18.49,0,.24.32-.18.27.12-.06.08-.88-.1-.94.25-.17-.12-.08-.38,0-.54l-.37.21c-.51-.37,1-.83.46-1.28l-.35.08c-.36-.33.9-.5,0-.54-.36.21-.65.74-.29.86-.79.17-.29.86-1.15.92-.26-.18.67-.12.48-.38-.43-.24-.8.22-1.16.17.41.09.1.48-.14.57-.46-.11.24-.36-.37-.33-.09.22-.63.43-.13.52-.17.47-.65-.06-.94.33-.24-.3.54-.81-.15-.89.14.3-.79.52-.37.93-.28-.06-.34-.3-.16-.52-.4-.14-.86.67-1.05.07l-.09.34c-.14-.09-.31-.16-.52-.3-.33,0-1,.56-1.05.08-.1.06-.86.14-.53.43.5.14.51-.31.84.1-.38-.32-.68.14-.94.3l-.07-.18c-.15.09-.53.11-.6.32.11-.12,0-.24-.1-.27l-.13.31c-.64.22-.22-.47-.85-.3l.46-.28c-.11.06-.35-.17-.65-.05-.09.28-.27.6-.34.82-.34.16-.2-.26-.52,0l.42-.37c.06-.09-.37-.37-.86-.31-.3.13-.72.58-.21.64-.24,0-.6-.06-.44-.28-.54.17.11.26-.34.5-.22-.14-.86-.29-1.26-.48l.43-.5-.34,0c.38-.4-.25-.22-.06-.62a1.27,1.27,0,0,0-.7.27c.75.48-.61.9-.33,1.39-.87.28-.77-1.18-1.57-.22.17.12-.2.58.34.35-.58,0-.29.59-1,.48.45-.3-.61-.44,0-.87,0,.18.42.06.51,0-.26-.16,0-.54-.61-.44-.34.11-.81.21-.7.47s.53-.13.35.21c-.67.23-.86-.21-1.06.38a.45.45,0,0,1,.62.37l-.49.22.07-.22c-.84,0-.18.4-1,.49l-.44-.33c.12-.37,1.17-.05.93-.58-.52.06-.64.38-1.15.32l.35-.17c-.18,0-.51-.69-1.17-.12-.34.23-.06.21,0,.41-.81.23-1,.48-1.54.62,0-.42-.94.15-.44-.38a1.82,1.82,0,0,0,1.72-.52c-.39-.41.66-.05.75-.57-.67.11-.71-.36-.88-.65a1,1,0,0,0-.45.25c0,.31.21.26.28.55a2.88,2.88,0,0,0-1.78.73c-.28-.1-.26-.4,0-.48a14,14,0,0,1-2.66.49c.64.36-.91.31-.45.62.47,0,.92.27.71.53-.28,0,0-.21-.17-.28-.3.33-.63-.29-.9.18.76-.32,0-.6.1-1-.53.34,0-.26-.6-.14a9,9,0,0,1-1.83.85c-.88-.16-2,.45-2.74.63-.41-.1-.26-.57-.68-.55s.45.36-.3.34l.05-.09c-.19.13-1.37,0-1.43.66l.12-.5c-.14,0-.24.12-.34.19,0-.14-.22-.23,0-.38-.51-.2-.91.27-1.38.4l.36.19a15.46,15.46,0,0,1-2.12.56l0-.27-.43.28c0-.28-.42-.33-.61-.07l1.06-.93c.37.07-.29.4,0,.61a.84.84,0,0,0,1-.35c-.28,0-.29.1-.48.25-.17-.33.24-.42.4-.72-.14.05-.38,0-.37.12a1.94,1.94,0,0,1,1-.46c-.29.22.23.17.13.31,0-.33.4-.54,1-.59.51.27,1.06-.49,1.76-.56a2.54,2.54,0,0,1-.87,1c.46.06.47-.12.94-.07a1.67,1.67,0,0,1,.74-1l.08.24c.48-.24.4-.59,1.07-.67,1.14-.15,2.28-.4,3.14-.54l.08.23c.36-.61,1.54-.53,2.13-.89,1.13,0,2.32-.69,2.95-.39a35,35,0,0,1,5.55-1.29l-.28.41c.32-.31.27.16.61.05-.44-.22.42-.44.64-.7a5.32,5.32,0,0,0,2.79-.71l.06.23c.73-.58,1.76-.32,2.76-.38a.82.82,0,0,0,.64.23,4.29,4.29,0,0,1,1.54-.83,9.09,9.09,0,0,1,2.15,0c2.13-.81,4.41-.7,6.67-1.23l.19.28c2.16-.84,4.94-.43,6.82-.89l-.16.5c.61.11,1.35-.21,1.17-.55.6.13,1.47-.31,1.88.08.62.07.73-.26,1.24-.34a10.65,10.65,0,0,0,2.83-.07l-.29,0c-.12.11-.12.32.16.34.42-.14,1.58.09,1.13-.48,1.24.31,2.86-.34,4.07.08-.09-.16.2-.2.33-.31a11.75,11.75,0,0,0,3.07,0c.18.08-.27.27.17.3.27-.07,0-.22.32-.3,1.76-.31,3.54.29,5.13.26a70.47,70.47,0,0,1,8.48,0l0,.12c.92-.42,2.1.54,2.85-.1.2.11.82.09.65.31.74-.27,2,.43,3.07.09l-.26.05c1,.33,2,0,3.08.35-.11,0-.32.06-.36.18.41.25,1.05-.41,1.24.17a.14.14,0,1,0,.05-.27,64.4,64.4,0,0,0,7.56.44c1.76.53,0,1,1.47.69.1.12.11-.2.12-.09.57-.1.78.72,1.2.47-.12-.36.27-.17.31-.37,1.07.33,1.25.67,2.15.52l-.09.17c1.08-.4,2.23,0,3.15-.46,5.62.54,11,.89,16.43,1.35,5.35.66,10.59.73,16,1.13a3.89,3.89,0,0,0,2.76.27c-.06.08-.15.09-.06.17.07-.4,1-.05,1.12-.42,2,0,3.83-.21,5.87-.3-.32.06-.47.39-.07.35l.38-.27.07.1c.26-.06.53-.3.25-.39,5.05-.86,10.19-.67,15.06-2.08a15.25,15.25,0,0,0,4-1.16,32.58,32.58,0,0,0,10.78-3.31C303.21,275.67,303.14,276.8,301.7,277.62Z"/><path class="cls-9" d="M783.52,286.26s-91.73-28-485.4,12.59C57.33,323.69,0,286.26,0,286.26v68.58H902C895.83,332.44,908.92,301.52,783.52,286.26Z"/><path class="cls-8" d="M218,255.55c.23-.12.17.16.21.18C218,255.76,218.27,255.51,218,255.55Z"/><path class="cls-8" d="M226.18,204.87c.07-.17,1-.25,1.5-.24Z"/><path class="cls-8" d="M222.31,204c-.33-.16-.24-.24.22-.22C222.56,203.87,222.41,203.91,222.31,204Z"/><path class="cls-8" d="M222,204.38a1.12,1.12,0,0,1-.64-.22C221.39,204.3,222.14,204.09,222,204.38Z"/></g></g></svg>