<svg xmlns="http://www.w3.org/2000/svg" viewBox="0 0 271.75 276.08"><defs><style>.cls-1{fill:#4fbcc1;}.cls-2{fill:#393830;fill-opacity:0.49;}.cls-3{fill:#e1759d;}.cls-4{fill:#fff;}.cls-5{fill:none;stroke:#000;stroke-linecap:round;stroke-miterlimit:10;stroke-width:1.25px;}.cls-6{fill:#b91919;}.cls-7{fill:#e30613;}</style></defs><title>tero</title><g id="Layer_2" data-name="Layer 2"><g id="Layer_1-2" data-name="Layer 1"><path class="cls-1" d="M195.06,118.94c-.88.17.51.26-.57.19A.47.47,0,0,1,195.06,118.94Z"/><path class="cls-1" d="M196.13,118.79c.21.18.85.22.38.53C196.42,119.15,196.08,119,196.13,118.79Z"/><path class="cls-1" d="M212.92,119.44c0-.06.24.07.3.09-.2,0-.39.2-.56.11C212.86,119.62,212.83,119.53,212.92,119.44Z"/><path class="cls-1" d="M217.17,119.32c-.06.18-1,.37-1.49.42Z"/><path class="cls-1" d="M221.16,119.86c.35.13.26.22-.2.23C220.92,120,221.07,120,221.16,119.86Z"/><path class="cls-1" d="M221.42,119.46a1,1,0,0,1,.66.17C222.07,119.48,221.32,119.75,221.42,119.46Z"/><path class="cls-1" d="M230,119.69c.21,0,.65-.17.85,0C230.66,119.58,229.88,120,230,119.69Z"/><path class="cls-1" d="M234,119.35a.62.62,0,0,0,.33,0c.24.08,0,.21-.21.23Z"/><path class="cls-1" d="M.07,184.46H0v-.36Z"/><path class="cls-1" d="M206.9,155.64c.7,0-.32-.36.47-.07A.31.31,0,0,1,206.9,155.64Z"/><path class="cls-1" d="M24.92,188.41c2.21-.92,5.21-.25,7.6-1.09.28-.06,0,.51.62.33,2.28-1,6-1.12,9-1.21l-.14.17c.57,0,1.13-.6,1.72-.65,0,.09-.16.17,0,.27.09-.29,1-.35,1.2-.62.25,0,.28.28.6.33l.25-.39c.73-1,2.22-.49,3.35-1.18,0,.09-.15.17,0,.22,1.85-1,4.33-1.58,6.45-2.43-.05.14-.07.36.09.44,0-.36.65-.65,1.21-.9.37.25.9-.62,1.64-.65l0,.09c.39-.51.82,0,1.08-.58l.4.15c.06-.54.81,0,1.14-.39l0-.09c.35-.25.63-.08,1-.29l.05,0c.8-.41,1.39-.32,1.24-.68.4.19-.77.41-.16.68a88,88,0,0,1,8.31-3.36c.37,0,.59,0,.71.1.25-.18,1-.46,1.2-.74-.09,0,.25.12.4.08.56-.05.4-.6,1-.65-.18.18-.22.32-.09.43a5.14,5.14,0,0,1,1.54-1c-.06.09-.18.18-.12.29.49-.55,1.14-.36,1.6-.76l-.12.28c1-.08.09-.53.89-.67-.15.13-.06.19-.06.29A9.31,9.31,0,0,1,80.75,173v.1a17.12,17.12,0,0,0,2.34-1c.34,0,.09.54.86.16-.19-.4,1.29-.69.65-1a9.48,9.48,0,0,0,2.26-.75c-.25.27.52.39,0,.63l.52.09c0,.19-.46.11-.25.27a8.89,8.89,0,0,1,1.33-.63c.43-.45.74-1.11,1.58-1.48-.34.31.4.38.15.55l.91-1.24c.28-.12.18.31.56.05-.06-.1.09-.24.19-.37s1.16-.53,1.43-.16c.18.12-.44.25-.07.29.53-.19.5-.34,1-.54l0,0c.37-.06,1-.55.51-.64-.25.07.18.22-.22.22a2.37,2.37,0,0,1,1.29-.8c-.16.13-.1.23-.13.37a9,9,0,0,1,2.09-1.33c0-.2-.18.46-.33.4,1.12-.07,2-1.1,3-1-.13.08-.17-.26-.14-.2.51-.14.58.16.87,0,.09.16.39-.18.71-.34.13-.18.11.06-.17.16a9.75,9.75,0,0,1,3.37-1.21,1.44,1.44,0,0,1,.87-.69l0,.29c.27.1.84-.22.93,0,.49-.49-2,.82-1.38.39.23.15,1-.72.88-.31.5-.13.92-.55,1.46-.41-.15,0-.32.47.08.35.71-.22.17-.18.73-.41l.34-.2c0-.27.65-.12.32-.35.14.19,1-.38,1,.07l0,.36c.3-.1.42-.48.63-.69,0,0,.15.07.14.13-.07-.53.75-.13,1-.63.69,0,1.66-.37,2-.12a3,3,0,0,1,1.48-.59c-.1.08-.26.13-.26.25.39.07.45-.09.76-.25,0,.09.79.13,1.23.23.46-.27.23-.51.23-.7.57.4,1.33-.66,2-.32-.16.11-.67.42-.23.45.57.41.83-.59,1.63-.51l-.28-.39c.39.19,1-.49,1,0,.21-.21.9-.06.72-.45,1.29.08,2.9-.88,3.81-.28.16-.11.61-.13.47-.32-.34-.17-.37.25-.51.12a.24.24,0,0,0,.17-.23c.4,0,.7,0,.42.4.89.08.71-.89,1.82-1,0,.18.08.23.39.14l.53-.42c.7-.08.48.31.55.6.36-.13.81-.21.93-.47l.52.28c-.38-.2.27-.24.43-.34l-.16.1c.09.11.51,0,.72-.13-.09-.17-.54-.16-.79-.16.16-.17.46-.19.68-.4,0,.3.64.08.94.06s.33-.33.43-.35c0,.15.55-.08.33.18-.11.07-.29-.09-.46.08.24.07.27.33.69.05s-.2-.55.49-.5c-.16.11-.17.23-.28.36l.65,0,0-.27c.1,0,0,.08.09.11.13-.31.93-.27,1-.61a5.57,5.57,0,0,1,1,0l-.05,0a1.42,1.42,0,0,0,1.13-.34v.06a1.9,1.9,0,0,0,.89-.34c.54.11.35,1,.85.53.51-.1.71-.63.48-.76.95,0,1.92-.61,2.84-.36.11-.13,0-.18.28-.29,1.37-.11,2.82-.77,4-.43-.38.17,0,.27,0,.42.29-.29.43.18.48-.24-.07-.23-.05-.35-.45-.39a5.6,5.6,0,0,1,2.51-.3c-.24-.08-.08-.18.09-.27,0,.39.61.37,1,.17l0-.24.33.2c.16-.1.12-.51.6-.35l.17.23a2.44,2.44,0,0,1,1.6-.54l.46.28c.21-.07.55-.32.16-.37.9.09,1.46,0,1.77.3a12.79,12.79,0,0,1,5.36-1.29l0,.18c.49.11.21-.33.55-.25-.14.18.39.33,0,.57.69.13.84-.37,1.27-.49.05-.24-.34.18-.28-.12.07-.09,1,.1,1-.25.18.12.07.39,0,.54l.4-.2c.54.37-1.08.82-.51,1.28l.37-.09c.39.34-1,.49,0,.54.4-.21.71-.74.33-.86.85-.17.33-.86,1.26-.91.27.18-.74.11-.54.38.46.25.86-.23,1.26-.16-.44-.1-.1-.48.17-.56.48.13-.28.35.39.34.1-.21.7-.41.16-.51.21-.47.7.07,1-.31.24.31-.64.79.1.9-.14-.3.88-.46.46-.9a.29.29,0,0,1,.14.52c.42.17,1-.61,1.14,0l.12-.32c.14.1.32.16.54.32.36,0,1.15-.48,1.14,0,.11,0,.94-.07.61-.39-.52-.18-.58.27-.89-.16.38.35.74-.08,1-.22l.06.18c.17-.08.58-.06.69-.26-.13.11-.06.23.09.27l.18-.29c.72-.17.19.49.89.37l-.53.24c.12-.05.36.19.69.1.12-.26.36-.57.47-.77.39-.12.19.29.57,0l-.5.32c-.08.08.35.42.88.4.33-.09.85-.47.32-.6.27,0,.64.14.43.33.6-.1-.08-.28.43-.44.22.17.88.4,1.28.65l-.53.44H179c-.46.35.24.26,0,.63a1.46,1.46,0,0,0,.78-.17c-.72-.57.8-.8.59-1.33,1-.15.61,1.26,1.64.45-.17-.14.32-.53-.3-.39.61.07.42-.52,1.14-.29-.54.21.57.55-.21.85,0-.18-.43-.14-.55-.1.25.21-.06.53.57.55.38,0,.9,0,.83-.32s-.58,0-.33-.28c.76-.09.88.38,1.21-.16-.48,0-.6-.28-.58-.49l.56-.11-.11.2c.9.17.27-.36,1.15-.29l.4.41c-.22.34-1.26-.18-1.12.38.56,0,.76-.24,1.29-.09l-.4.1c.2,0,.38.77,1.2.35.42-.16.12-.2.13-.4.91,0,1.19-.25,1.78-.24-.14.4,1,.1.37.48a2,2,0,0,0-1.93.09c.31.49-.71-.09-.92.4.73,0,.67.5.78.82a1,1,0,0,0,.52-.15c.1-.29-.17-.29-.17-.6a3.68,3.68,0,0,0,2-.27c.26.16.16.45-.16.46a16.12,16.12,0,0,1,2.89.22c-.56-.52,1,0,.65-.47-.48-.14-.88-.5-.6-.7.31,0,0,.21.1.32.41-.24.58.46,1,.07-.89.1-.21.57-.4.93.65-.17,0,.27.58.3a8.29,8.29,0,0,1,2.13-.28c.84.44,2.22.23,3,.3.39.23.07.62.5.74s-.33-.5.41-.22l-.08.08c.24-.07,1.38.43,1.68-.15l-.3.43a.71.71,0,0,0,.41-.06c0,.15.14.31-.11.37.43.38,1,.09,1.51.15l-.3-.32a15.81,15.81,0,0,1,2.32.3l-.06.26.53-.08c-.16.24.28.47.58.29l-1.41.45c-.34-.21.44-.26.25-.55a.93.93,0,0,0-1.12-.06.84.84,0,0,0,.57,0c.05.38-.41.3-.67.51.16,0,.37.15.42,0a2.18,2.18,0,0,1-1.16,0c.37-.09-.16-.26,0-.34-.08.32-.59.35-1.21.16-.4-.45-1.22.1-1.95-.08a2.57,2.57,0,0,1,1.22-.61c-.45-.21-.52,0-1-.26a1.82,1.82,0,0,1-1.08.67v-.24c-.56.07-.6.43-1.29.29-1.18-.24-2.41-.38-3.32-.48l0-.24c-.55.49-1.71.09-2.41.27-1.15-.31-2.54.08-3.12-.38a49.81,49.81,0,0,1-6,.13l.36-.35c-.38.25-.25-.21-.62-.17.43.3-.52.35-.79.57a6,6,0,0,0-3,.31l0-.24c-.84.47-1.86.08-2.93,0a.81.81,0,0,0-.64-.28,4.81,4.81,0,0,1-1.69.69,11.48,11.48,0,0,1-2.25-.14c-2.28.63-4.65.54-7,1l-.2-.27c-2.26.82-5.17.61-7.11,1.14l.13-.51c-.64-.07-1.4.32-1.19.64-.64-.06-1.52.45-2,.1-.65,0-.74.33-1.26.47a9.42,9.42,0,0,0-2.94.38l.3,0c.12-.13.1-.33-.21-.32-.42.21-1.66.13-1.12.64-1.33-.13-2.92.74-4.24.51.13.14-.18.23-.29.35a13.26,13.26,0,0,0-3.18.53c-.19-.05.23-.32-.22-.25-.26.11,0,.21-.28.35-1.75.61-3.71.4-5.33.8-2.85.86-5.91,1.39-8.68,2v-.12c-.83.64-2.28,0-2.88.87-.24-.06-.85.14-.74-.12-.67.48-2.14.18-3.12.81l.25-.12c-1.14,0-2,.57-3.21.61.11-.08.31-.16.32-.28-.49-.11-.93.73-1.3.23-.25.06-.12.32,0,.26a57.36,57.36,0,0,0-7.7,2.11c-1.94.14-.24-1-1.62-.11-.15-.07,0,.23-.08.13-.51.32-1.05-.34-1.35.06.26.28-.2.26-.15.47-1.18.13-1.49-.1-2.29.42V167c-.88.79-2.14,1-2.81,1.8-5.6,2-10.81,4.29-16.23,6.43-5.42,1.94-10.6,4.25-16.26,5.94a4.69,4.69,0,0,0-2.92.74c0-.09.12-.14,0-.18.06.4-1,.38-1,.79-2.08.66-4,1.36-6.12,2,.33-.15.4-.51,0-.36l-.35.37-.1-.08c-.26.14-.5.43-.18.46-5.35,2-11,2.62-16.44,3.71a34.3,34.3,0,0,0-4.6.78c-4.32.07-8.15-.14-12.48.31A3.18,3.18,0,0,1,24.92,188.41Z"/><path class="cls-1" d="M206.07,155.56c-.12-.22-.58-.39-.16-.6C205.93,155.16,206.14,155.4,206.07,155.56Z"/><path class="cls-1" d="M193.36,152c0,.06-.18-.09-.22-.13.16,0,.33-.16.45,0C193.42,151.87,193.44,152,193.36,152Z"/><path class="cls-1" d="M190,151.72c.06-.17.78-.27,1.21-.26Z"/><path class="cls-1" d="M186.92,150.85c-.27-.15-.19-.23.18-.22C187.12,150.72,187,150.76,186.92,150.85Z"/><path class="cls-1" d="M186.68,151.24a.71.71,0,0,1-.51-.21C186.18,151.18,186.78,151,186.68,151.24Z"/><path class="cls-1" d="M179.88,150.63c-.16,0-.52.17-.67,0C179.38,150.74,180,150.38,179.88,150.63Z"/><path class="cls-1" d="M176.72,150.94a.39.39,0,0,0-.26,0c-.19-.08,0-.21.16-.23Z"/><path class="cls-1" d="M120.24,159.82l.31-.16v.18Z"/><path class="cls-1" d="M96.05,166.37c-.29.21-.28-.08-.34-.09C96,166.17,95.67,166.52,96.05,166.37Z"/><path class="cls-1" d="M83.69,171.81l.09,0,.1.35Z"/><path class="cls-1" d="M20.31,139c.88,0-.43-.35.58-.07A.46.46,0,0,1,20.31,139Z"/><path class="cls-1" d="M19.26,138.93c-.16-.22-.76-.39-.24-.6C19.06,138.53,19.35,138.76,19.26,138.93Z"/><path class="cls-1" d="M3.21,135.43c0,.06-.23-.09-.28-.13.2,0,.4-.15.56,0C3.28,135.25,3.31,135.35,3.21,135.43Z"/><path class="cls-1" d="M167.15,164.13c-.6.28.43.19-.37.26C166.83,164.23,166.91,164.09,167.15,164.13Z"/><path class="cls-1" d="M167.89,163.85c.19.15.66.11.4.47C168.19,164.16,167.9,164,167.89,163.85Z"/><path class="cls-1" d="M180.18,162.22c0-.06.19,0,.23.05-.14,0-.23.25-.37.19C180.19,162.4,180.14,162.32,180.18,162.22Z"/><path class="cls-1" d="M183.21,161.49c0,.18-.61.49-1,.61Z"/><path class="cls-1" d="M186.2,161.44c.28.08.23.18-.1.26C186.06,161.62,186.15,161.54,186.2,161.44Z"/><path class="cls-1" d="M186.3,161a.64.64,0,0,1,.51.08C186.76,160.94,186.29,161.31,186.3,161Z"/><path class="cls-1" d="M192.52,160c.14-.05.43-.26.61-.1C193,159.83,192.46,160.3,192.52,160Z"/><path class="cls-1" d="M195.31,159.13c.09,0,.14,0,.24,0s0,.2-.11.25Z"/><path class="cls-1" d="M248.11,152.86l-.32.09.05-.18Z"/><path class="cls-1" d="M271.49,153.5c.32-.09.21.18.26.2C271.47,153.71,271.88,153.5,271.49,153.5Z"/><path class="cls-2" d="M125.83,261.47c-1.58,0,.79.58-1,.12A.87.87,0,0,1,125.83,261.47Z"/><path class="cls-2" d="M127.72,261.59c.31.35,1.39.63.47,1C128.11,262.25,127.58,261.86,127.72,261.59Z"/><path class="cls-2" d="M157.18,266c0-.1.42.13.52.18-.37,0-.71.29-1,.13C157.07,266.32,157,266.17,157.18,266Z"/><path class="cls-2" d="M164.76,266.24c-.11.28-1.73.51-2.69.55Z"/><path class="cls-2" d="M171.85,267.37c.63.23.46.37-.39.37C171.41,267.59,171.68,267.51,171.85,267.37Z"/><path class="cls-2" d="M172.36,266.72a2.07,2.07,0,0,1,1.19.31C173.53,266.79,172.17,267.2,172.36,266.72Z"/><path class="cls-2" d="M187.92,266.68c.37-.05,1.15-.35,1.52-.07C189,266.43,187.67,267.12,187.92,266.68Z"/><path class="cls-2" d="M195,265.6a1.23,1.23,0,0,0,.59-.06c.43.09,0,.34-.34.4Z"/><path class="cls-2" d="M132,267.85l.77-.15-.11.28Z"/><path class="cls-2" d="M116,266.56c.73-.27.56.2.69.23C116.05,266.9,116.94,266.4,116,266.56Z"/><path class="cls-2" d="M146.29,262.13l-.23,0,0-.59Z"/><path class="cls-3" d="M119.28,172.71a109.76,109.76,0,0,0-4.87,17c-1.54,8.78-5,19.46-4.68,28.3.45,10.7,4.94,16.48,8.72,26.27,1,2.3,3.84,7.44,5,9.53,1.54,2.93,1.51,5.23,4.79,5.55,3.49.12,18.73.63,21.5,2.05a2.1,2.1,0,0,1,1,1.06c-4.57,1-15-.71-19.76-.67,3.36,2.41,12,5.13,14.71,10.15-2.89.31-7.23-2.53-9.85-3.86-3-1.34-5.91-3.88-9-5,1.71,4,7.31,8.27,6.94,13-8-6.1-14.6-23.32-16.91-27.71-2.32-4.19-7-16.89-8.73-21.06-1.9-4.59-6.23-4-3.38-9.23,2.19-3.83,2.75-10.81,3.25-15.38,1-8.7,2.14-15.6,3.06-24.19.22-2.28.44-4.56.8-6.83.16-1,6.17,1.7,6.39.71"/><path class="cls-3" d="M136.48,164.36c.7,15.44,7.62,40.13,8.5,43.6,2.09,8.26,6.42,20.83,10.89,28.17,2.33,3.78,4.31,7.56,5.6,8.2a53.55,53.55,0,0,0,13.67,3.48c2.05.28,10.69,1.42,11,4.11-2.5.94-7.08-1.13-9.74-1.43-3.68-.54-6.69-1.38-10.45-2,2.87,2.68,13.73,6.14,14.58,11.51-5.07-1.43-13.1-7.44-17.3-10.67.88,4.14,8.55,10,7.11,14.12-1.74-2.11-4.86-4.63-7.48-8.19a34.59,34.59,0,0,1-5-10.41c-3.16-3.81-6.84-10.9-9.14-15.5-1.92-4-3.55-11.65-6.09-15.23-1.17-1.68-2.77-1.61-3.55-3.44-.69-1.61.18-2.71.66-4.95.74-3.68-1.95-10.72-3.07-14.25-2.79-8.52-4-14.44-6.21-23.15-.54-2.28-1.69-3.43-2-5.7,2.28-.54,5,2.44,7.06,3.53"/><path class="cls-4" d="M184.2,72.48c.33,4.52,1,9,1.7,13.55,1,6.71,2.06,14.62,1.73,21.34-.58,11.73-5.41,24.28-10.09,35-4.53,10.41-11.23,21.12-22.49,25.08-14.67,5.16-35.29,9.8-50.63,7.06-11.89-2.3-23.75-5.24-35.32-7.84-5.63-1.14-17.47-4.7-22.76-6.46-2.85-1-10.92-1.07-11.62-4.57,3-.2,6-.61,9-1,9.22-1.11,14.87-6.18,22.8-10.65,3.16-1.78,6.22-2.72,9.19-5,13.17-9.91,26.2-21.58,43.07-24.23,8.23-1.29,14-2.66,21-7.14,10-6.27,3.92-13.09,1.41-22.31a177.23,177.23,0,0,0-8.92-24.56c-3.23-6.72-6.48-12.82-7.79-20.43-2.4-12.68,5.18-31.31,19.44-34,16.16-2.9,41.36,6.16,46.15,22.39.29,1-.46,3.32-.57,4.36-.39,3.7-.67,7.42-.94,11.13-.43,5.89-3.8,11.1-4.35,17.12A65.44,65.44,0,0,0,184.2,72.48Z"/><path d="M136.14,12c-2.55-4.36-9.91-10.68-14.57-12,1.67,1.41,7.4,7.57,8.84,11.4A21.37,21.37,0,0,0,119,7.68c8.4,3.12,10.42,7.78,14.24,15.79.7-2.18,5.37-1.79,5.74-3.35C139.35,18.26,137.4,14.2,136.14,12Z"/><path d="M134.28,110.73a45.87,45.87,0,0,0,5.51-3c10-6.27,3.92-13.09,1.4-22.31a177.17,177.17,0,0,0-8.91-24.56c-3.23-6.72-6.48-12.82-7.79-20.43-1.4-7.39.62-16.78,5.34-23.88,1.7,3.58,13.5,1.88,20.72,3.73,2.41.62,1,5.23,2.95,5.76,4.48,1.21,10.43,5.49,7.51,5.85-11.94,1.46-16.8,6.92-17.41,12.49-2.33,21.52,47.43,50.94,33.58,74.73C168.47,133.5,147.51,121.09,134.28,110.73Z"/><path d="M162.25,38.25C155,39.41,149.86,34,149.53,26.58c-.38-8.46,5.29-11.63,11.12-10.92C172.85,17.13,178.46,35.65,162.25,38.25Z"/><path class="cls-5" d="M177.28,53c-1.7,2.14-7.48.24-8.75-2.26"/><path d="M34.71,155.67c3-.19,6-.6,9-1,9.22-1.11,14.87-6.18,22.8-10.64,3.16-1.78,6.21-2.72,9.19-5,13.17-9.91,26.19-21.58,43.06-24.23l.5-.08a31.36,31.36,0,0,1,2.56,2.71c4.55,4.88,11.24,11.73,10.67,19.27-.59,7.85-7.64,11.38-14.06,14.95C104.76,159.59,86.12,165,70.24,167l-1.15-.26c-5.63-1.14-17.47-4.7-22.76-6.46C43.48,159.29,35.41,159.17,34.71,155.67Z"/><path d="M207.56,49.66c-3.85-1-7.71-2.06-11.58-3q-2.72-.66-5.45-1.28a3.38,3.38,0,0,1-3-2.63,14.72,14.72,0,0,1-.94-4.28,11.08,11.08,0,0,1,1.5-6c.33-.59,1.09-2.2,1.77-2.42s1.59.62,2.23,1c2.79,1.53,5.62,3,8.46,4.42,6.21,3.11,12.51,6.05,18.82,9,13.3,6.1,26.79,11.88,39.73,18.73C243.79,58.68,227.39,55,207.56,49.66Z"/><path class="cls-4" d="M162.5,17.7c7.57,2.13,13.53,17.14-1.17,18.88-5.58.66-10.45-4.52-10.12-11.25S157.06,16.17,162.5,17.7Z"/><path d="M155.69,26.35c-2.22.33-2.79-3-.57-3.37C156.78,22.73,157.91,26,155.69,26.35Z"/><path class="cls-6" d="M170.53,139.94l-8.82-30.2-1.58-5.39,84,36.59,6.89,7.55L179.9,207.34l-4.81-8.87.23-31.86L10.2,203.06l-1.1-6.59L24,175.67,3.84,164.81,2.11,160Z"/><path class="cls-7" d="M177.07,144.07l-9.43-32.25L251,148.49,179.9,207.34l.27-36.31-170,32,18.69-23-25-15.29Z"/><path d="M70.12,177.06c2.58-1.48,5.14-4.17,7.69-5.81,7.79-5,12.11-14.12,13.81-17.44,7.48-14.68,13-28.93,27-38.71l.42-.29a31.44,31.44,0,0,1,3.49,1.31c6.23,2.39,15.75,8.62,18.54,15.64,2.92,7.32-8.12,17.33-12.32,23.35-8.83,13.06-35.89,28.84-36.21,29.06-3.79,2.65-6,3-9.79,3.14,2.83-1.57,5.08-6.17,5.74-7.23.76-1.23-7.1,4.54-12.15,2.18,2.49-1.8,8.07-7.44,6.27-7.19C79.62,175.46,72.27,179.89,70.12,177.06Z"/></g></g></svg>