<svg xmlns="http://www.w3.org/2000/svg" viewBox="0 0 127.68 90.39"><defs><style>.cls-1,.cls-3,.cls-5,.cls-6{fill:none;}.cls-1,.cls-6{stroke:#000;}.cls-1,.cls-5,.cls-6{stroke-linecap:round;}.cls-1{stroke-miterlimit:10;stroke-width:0.72px;}.cls-2{fill:#fff;}.cls-3{stroke:#dad8cc;stroke-width:0.31px;}.cls-4{fill:#a85318;}.cls-5{stroke:#814114;}.cls-5,.cls-6{stroke-linejoin:round;stroke-width:0.54px;}</style></defs><title>Beetle</title><g id="Layer_2" data-name="Layer 2"><g id="Layer_1-2" data-name="Layer 1"><path class="cls-1" d="M60,67.39C60,68.69,59.63,90,58.93,90s-7.24-.6-7.24-.6"/><path class="cls-1" d="M80.9,64.06c.35,1.19,5.58,21.81,4.76,22.54s-6.52,2.48-7.47,2.48"/><path class="cls-1" d="M99.17,58.36c4.38,7.12,7.34,22.29,7.34,23.48s9.6-2.48,9.95-2.73"/><path class="cls-2" d="M6.07,45.05a8.57,8.57,0,0,1,8.74-8.4,8.43,8.43,0,1,1,0,16.84A8.59,8.59,0,0,1,6.07,45.05Z"/><path class="cls-3" d="M6.07,45.05a8.57,8.57,0,0,1,8.74-8.4,8.43,8.43,0,1,1,0,16.84A8.59,8.59,0,0,1,6.07,45.05Z"/><path class="cls-4" d="M30.68,25.33S43.25,3,76.85.2s53.35,24.36,50.54,38.21S84.56,73,57.88,70.45s-7.19-20-7.19-20Z"/><path class="cls-4" d="M41.63,33.54,39.19,36l11.5,14.43s-19.48,17.44,7.19,20,66.69-18.21,69.53-32.06a18,18,0,0,0-.65-8.59C99.22-16.07,41.63,33.54,41.63,33.54Z"/><path d="M20.48,64.06c-4.38,0-17.34.37-16.8,14.35.13,3.34-3.58.1-3.68-4.82S5.33,59.28,18.44,60.73c16.77,1.84,9.61,6.41,9.61,6.41s.42,10.08-5.63,15.33C19.56,85,13.89,86.25,9.53,85.25c-2.66-.59-3.31-2.46-1.47-2.39a20.15,20.15,0,0,0,6.7-1.41C21.43,79,25.48,70.73,26.25,58.66S20.48,64.06,20.48,64.06Z"/><path class="cls-4" d="M27.1,37.64s-5.4-2.06-7.44.52S7.34,55.6,14.28,65.33s21.55,9.5,29.77,1.29S27.1,37.64,27.1,37.64Z"/><path d="M32.23,21c4.2,1.2,39.94,14.78,34.61,49.23-.5,3.34-18.79,2.44-27.17.53-3.34-.78,7.39-17.82-20-32.57C16.32,36.35,30.41,20.45,32.23,21Z"/><path class="cls-2" d="M43.33,53.49c0,5.52-4.26,9.2-9.76,9.2-5.75,0-9.26-4.28-9.26-9.8s3.56-8.78,9-9.5C38.52,42.69,43.33,48,43.33,53.49Z"/><path d="M13,43.59a1.35,1.35,0,1,1-1.35-1.32A1.3,1.3,0,0,1,13,43.59Z"/><path d="M31.53,53a1.41,1.41,0,0,1-1.39,1.42,1.42,1.42,0,0,1,0-2.83A1.4,1.4,0,0,1,31.53,53Z"/><path class="cls-5" d="M62.14,30.28s25-15.92,49.92-10"/><path class="cls-6" d="M47,27.69S71.7,0,112.06,15.3"/><path class="cls-5" d="M68.81,40.2c3.43-1.37,26.82-14.08,46-13.55"/><path class="cls-5" d="M73.76,51.82s25.38-10.42,44.3-18.11"/><path class="cls-5" d="M76.85,60.73S106.14,53,119.6,41.4"/><path class="cls-5" d="M48.48,17.29S65.42,3.21,85.85,4.58"/><path d="M51,33.41s-1.72-8.41.87-9.35c-3.21-.18-3.93,1.37-7.71,2.56S51,33.41,51,33.41Z"/></g></g></svg>