<svg xmlns="http://www.w3.org/2000/svg" viewBox="0 0 152.27 119.54"><defs><style>.cls-1{fill:#c9691b;}.cls-2{fill:#db7a1c;}.cls-3{fill:#f39200;}.cls-4{fill:#fff;}.cls-5,.cls-6{fill:none;stroke-linejoin:round;}.cls-5{stroke:#db7a1c;stroke-width:2.14px;}.cls-6{stroke:#000;stroke-linecap:round;stroke-width:0.54px;}</style></defs><title>Cat</title><g id="Layer_2" data-name="Layer 2"><g id="Layer_1-2" data-name="Layer 1"><path class="cls-1" d="M121.89,76.16h-84c2.67,7.85,1.5,28.07,1.09,30.44-1.41.14-4.77.64-4.77,2.44,0,2.51,5.12,1.24,5.12,1.24s-3.42,2.34-.95,3.9c2.2,1.4,3.78-.71,4.34-1.62-.44.87-1.21,2.86,1.26,2.74,1.8-.07,2.75-3,3.25-5.45a8.22,8.22,0,0,0,.47-3.46c-.24-3.11.89-20.23.89-20.23a88.31,88.31,0,0,0,31.29,3.07,123.62,123.62,0,0,0,32.2-7.4s1.66,17,1.78,23.31l-.42,0s-4.92.24-5.38,2.47,5.46,1.51,5.46,1.51-4.25,2.31-1.26,3.65c2.37,1.07,3.85-.83,4.35-1.66-.44.85-1.25,2.89,1.24,2.77,3.15-.14,3.88-7.93,3.88-7.93.73-5.57.38-15.16.26-27.52C121.93,77.7,121.91,76.93,121.89,76.16Z"/><path class="cls-2" d="M152.25,8.84c-.24-1.9-4.53-1.68-8.35.71s-16.46,12.87-21,23.84,1,14.06-10.71,15-37.45,2.87-37.45,2.87L69.28,67.48,53.53,72.72,37.24,79.56a10.69,10.69,0,0,1,5.85,6.52c1.21,8.33-.59,16.33-.2,24.74-1.4.14-4.74.63-4.76,2.43,0,2.49,5.14,1.24,5.14,1.24s-3.42,2.34-1,3.92c2.19,1.4,3.78-.71,4.33-1.62-.44.87-1.21,2.86,1.27,2.75,1.8-.08,2.74-3,3.24-5.48.39-1,1.36-23.69,1.36-23.69a88.36,88.36,0,0,0,31.29,3.07A123.49,123.49,0,0,0,116,86s1.66,17,1.76,23.31l-.41,0s-5,.24-5.38,2.47,5.46,1.49,5.46,1.49-4.26,2.31-1.27,3.66c2.37,1.06,3.86-.83,4.37-1.66-.43.84-1.24,2.88,1.25,2.76,3.12-.13,3.87-7.93,3.87-7.93.72-5.57.38-15.16.26-27.52-.18-17.85-3.7-41.62,10.84-54.7S152.48,10.74,152.25,8.84Z"/><path class="cls-3" d="M60.83,70.29l-7.3,2.43-.67.1c-.18,6.34-.34,12.93-.34,17.57a83.46,83.46,0,0,0,8.9,2C61.5,87.13,61.17,78,60.83,70.29Z"/><path class="cls-3" d="M123.92,31.22c-.37.71-.71,1.44-1,2.17a33.81,33.81,0,0,0-2.29,9.24c1.72.77,4,1.74,6,2.53a37.74,37.74,0,0,1,4.53-10.64C128.71,33.43,125.8,32.19,123.92,31.22Z"/><path class="cls-3" d="M135.16,16.79a69.43,69.43,0,0,0-6.29,6.9l7.24,4.82c.21-.2.41-.41.63-.61,2.08-1.88,3.84-3.54,5.4-5.06C140.12,21.06,137.33,18.58,135.16,16.79Z"/><path class="cls-3" d="M112.2,48.4c-2.32.2-5.2.42-8.31.65-.34,10.68-.89,32.19-1.13,41.21,4.26-1.09,7.48-2.16,9.32-2.81C112.16,77.27,112.18,57.87,112.2,48.4Z"/><path class="cls-3" d="M77.5,93.72c-.06-9.42-.69-29.92-.55-42.61l-2.22.16L69.26,67.48l-.14,0c-.26,8.48-.4,19.39-.26,25.82C71.57,93.58,74.48,93.72,77.5,93.72Z"/><path class="cls-3" d="M95.17,91.92c.18-9.44.37-29.52.57-42.24l-9,.7c0,11.13.14,32.38.18,42.78C89.83,92.83,92.6,92.39,95.17,91.92Z"/><path class="cls-3" d="M31.74,18.19S27.11,5.56,23.79.89A74.49,74.49,0,0,0,16,19.38c-2,5-6.27,22.93-2.65,36.81C22.46,91,69.69,86.26,79.5,64.89c6.92-15.07,4.45-28.75-.81-45.3C77.11,11,75.76,4.07,73.25,0c-3.62,6.07-8.8,14.45-10.11,17.7C51.32,15.34,31.74,18.19,31.74,18.19Z"/><path class="cls-4" d="M63.21,35.13c-2.36,3.82-.1,11.73,7.61,11,7.34-.72,6.29-10.28,3.05-12.9A7.13,7.13,0,0,0,63.21,35.13Z"/><path class="cls-4" d="M29.07,45.53c4.07-2.13,4.21-10.38.59-12.71s-7.22-1.76-9.35.38S17.4,41,19.38,43.81C21.45,46.86,27,46.66,29.07,45.53Z"/><path d="M26,40.08a1.58,1.58,0,0,0,.1-2.4,1.36,1.36,0,0,0-1.76.08,1.89,1.89,0,0,0-.18,2A1.73,1.73,0,0,0,26,40.08Z"/><path d="M70.05,40.08a1.59,1.59,0,0,0,.1-2.4,1.36,1.36,0,0,0-1.76.08,1.85,1.85,0,0,0-.18,2A1.68,1.68,0,0,0,70.05,40.08Z"/><path d="M40.68,52.35C39,54,44.89,63.45,48,64.34s8-6.88,8.64-8.21,1.78-4.88-1.54-4.88S42.89,50.14,40.68,52.35Z"/><path class="cls-5" d="M39.63,40.43c2.57-.55,9.28-1.22,13.88,0"/><path class="cls-5" d="M38.31,33.45c2.76-.69,12.36-1.38,17.08.28"/><path class="cls-5" d="M37.18,26.39c5.75-1.1,14.71-1.24,20.41,0"/><path class="cls-6" d="M22.46,54.57.27,58.33"/><path class="cls-6" d="M24.76,58.33s-13.39,5.63-21.6,8"/><path class="cls-6" d="M25.57,63c-3.32,2.22-12.88,7.55-18.41,8.88"/><path class="cls-6" d="M39.12,66.55s3.26,6.17,6.6,6S48.89,63,48.89,63s.89,10.2,6,9.55S58.66,65,58.66,65"/><path class="cls-6" d="M76.61,55c2.46-.21,10.9-1.93,18.87-3.87"/><path class="cls-6" d="M76.61,60s14.44.37,18.87,0"/><path class="cls-6" d="M74.85,65.44S92.16,67,95.48,66.57"/><path class="cls-2" d="M21,17.73c.2-1,2.87-7.86,2.87-7.86L27,17.73Z"/><path class="cls-2" d="M67.64,17.73l3.69-7.86S73.79,16.73,74,18A46.42,46.42,0,0,1,67.64,17.73Z"/></g></g></svg>