<svg xmlns="http://www.w3.org/2000/svg" viewBox="0 0 186 104.1"><defs><style>.cls-1{fill:#cb98c5;}.cls-2{fill:#85557c;}.cls-3{fill:#dad8cc;}.cls-4{fill:#b780b1;}.cls-5{fill:#fff;}.cls-6{fill:none;stroke:#000;stroke-linecap:round;stroke-linejoin:round;stroke-width:0.5px;}</style></defs><title>Hipo</title><g id="Layer_2" data-name="Layer 2"><g id="Layer_1-2" data-name="Layer 1"><path class="cls-1" d="M8.8,26.64s2.92-4.58-.21-7.49-7-.5-7.9,2c-.44,1.16-1.73,4.66,1,6.38s5.58.79,6.25-.25S8.8,26.64,8.8,26.64Z"/><path class="cls-2" d="M3,22.82A1.42,1.42,0,0,1,5,24a1.94,1.94,0,0,1-1.2,2.32,1.59,1.59,0,0,1-2-1.35A2.22,2.22,0,0,1,3,22.82Z"/><path class="cls-3" d="M35.06,62.45s-1.39,6.87-.6,7.12,6.42,1,6.54.58.66-7.86.66-7.86Z"/><path class="cls-2" d="M96.17,83.1S95,100.55,94.26,100.73c-4,1.11-6.8.25-7.83-.73s1.74-17.29,1.74-17.29S94.05,81.88,96.17,83.1Z"/><path class="cls-4" d="M47.31,63.84s3.78.89,7.79,1.79S66.91,72.54,68.25,77s.88,21.6,1.79,23.39,1.11,2.89,3.79,3.33,12.92.68,14.94-.22,3.11-19.83,3.11-19.83,10,4.9,27.18,5.8S144,88.12,144,88.12s-2,13.81,2.46,14.69,11.36,1.56,14.7-.67,2.9-17.59,2.9-19.38,10-12.22,7.35-33.86c-3.41-28-19.53-34.82-35-36.3-23-2.21-36.44,4.94-38.55,6.23-.65-1.11-4.11-5.44-6.2-6.38,0,0,1.93-.53,3-3.74.74-2.28-.32-4.4-3.36-6-2.05-1.07-6.16-.49-6.94,2A7.58,7.58,0,0,0,84,9,23.3,23.3,0,0,0,77,7.49c-2.22-.09-6.59.18-7.83.18a6.22,6.22,0,0,0,.68-4.61c-.76-3.18-6.56-4.47-9.6-1-1.79,2.07-.12,6.1-.12,6.1s-12,1.06-14,1.06-18.41.16-27,3.27c-8.27,3-19.62,14.11-17.53,31.63,1.37,11.7,10.39,22.9,29,22.58C39.13,66.6,41.07,65,47.31,63.84Z"/><path class="cls-4" d="M178.54,53.19c1.82,3.36,3.68,6.24,7.46,8.29-4.75.88-7.37.05-9.93-1.7-2.35-1.61-7.39-8.44-6.56-10.63C170.87,45.54,176,48.47,178.54,53.19Z"/><path class="cls-5" d="M72.05,14.68c4.12,0,6.65,4.75,5.11,8.3-2.07,4.77-8.25,6.24-11.24,1.7S65.46,14.68,72.05,14.68Z"/><path d="M70.21,19a1.09,1.09,0,0,1,.92,1.52A1.17,1.17,0,1,1,70.21,19Z"/><path class="cls-1" d="M22.55,34.91c1.4-1.2,3.48-5.58.8-8.71s-7-.23-8.7,2.33-1.71,5.62,1,7.14A6.37,6.37,0,0,0,22.55,34.91Z"/><path class="cls-2" d="M16.77,30.21A1.74,1.74,0,0,1,19.07,32a2.16,2.16,0,0,1-2.53,2C15,33.78,14.64,30.83,16.77,30.21Z"/><path class="cls-3" d="M47.31,63.84l-.25,0s-.51,5.95-.21,6.32c.51.64,7.17,0,7.53-.9.24-.62-.22-3.87-.55-7A56.27,56.27,0,0,1,47.31,63.84Z"/><path class="cls-2" d="M65.14,3.82c1.77,0,2,2.8,1.26,4.15a5.2,5.2,0,0,1-3.52-.13C62.6,6.54,62.58,3.82,65.14,3.82Z"/><path class="cls-2" d="M89.37,7.08c1.66.55,1.11,3,0,4.08A5.13,5.13,0,0,1,86.06,10C86.22,8.62,86.93,6.29,89.37,7.08Z"/><path class="cls-6" d="M64.15,55s-3,6.82-16.86,8.88"/><path class="cls-2" d="M159.65,98c-1.39-.53-2.79,3.5-2.79,3.5a23.33,23.33,0,0,1-.78-2.76c-.12-.86-1.85-2-2.75-.62s-2.44,3.56-2.44,3.56a27,27,0,0,0-1.28-3.18c-.65-1.28-1.23-2.72-3-.75a16.11,16.11,0,0,0-2.09,3.24,2.88,2.88,0,0,0,1.95,1.85c4.45.88,11.36,1.56,14.7-.67a3.59,3.59,0,0,0,1.13-1.5A5.37,5.37,0,0,0,159.65,98Z"/></g></g></svg>