<svg xmlns="http://www.w3.org/2000/svg" viewBox="0 0 185.53 118.37"><defs><style>.cls-1{fill:#c4c0b4;}.cls-2{fill:#a4a098;}.cls-3{fill:#dad8cc;}.cls-4{fill:#bab6aa;}.cls-5{fill:#575756;}.cls-6,.cls-7{fill:none;stroke-linecap:round;stroke-linejoin:round;stroke-width:0.63px;}.cls-6{stroke:#000;}.cls-7{stroke:#575756;}.cls-8{fill:#fff;}.cls-9{fill:#010202;}</style></defs><title>Rino</title><g id="Layer_2" data-name="Layer 2"><g id="Layer_1-2" data-name="Layer 1"><path class="cls-1" d="M175.92,67.17s-1.18,19.11,6.31,22.47.23,2-2.15.78-6-6.83-8.85-18.61S175.92,67.17,175.92,67.17Z"/><path class="cls-2" d="M66,25.1s.16-12.77,5.19-18.32S85.07.6,87,0c0,0-6.27,6.85-7.67,14.26s-9.13,13.41-9.13,13.41Z"/><path class="cls-3" d="M19.49,32.64S13.1,24,13.1,17.72,16.46,3.6,16.46,3.6A23.79,23.79,0,0,0,4.67,18.17C1.93,28.51,3.51,39.07,8,44.14Z"/><path class="cls-3" d="M43.64,27.94s-5.86-3.4-6.56-8.8c-.5-3.75,1.54-8.32,1.54-8.32a13.44,13.44,0,0,0-8,10c-.81,4.88.32,10.42,2,12.17S43.64,27.94,43.64,27.94Z"/><path class="cls-1" d="M13.66,83.86c1.24-1.88,4.17-4.1,7.22-6,3.78-2.33,11-3.53,17.05-3.41,5,.1,25.1-.22,31.74-3.39,0,0,9.51,16.17,9.22,24.26s-2.26,20-.57,20.74c2.45,1,14.17,2.33,20-1.41,1.31-.85.61-5,1.83-13,.63-4.23,1.27-9.88,1.27-9.88s16.06,12,46,4.33a50.83,50.83,0,0,1,1.94,10.19c.26,3.86-.38,9.83.86,10.5,3,1.61,13.12,2.22,20.79-1.34,1.87-.87,0-18,.63-21.33,2.32-12.76,5.47-20,3.94-34.76S162.13,32.05,140.84,33s-30,3.16-41-.29C94.18,30.91,85,29.23,85,29.23s8.45-8.68,9.54-12.37S99.32,6.23,102.2,5.68c0,0-12.13-1.67-16.56.33S72.43,14.83,71.78,24.4c0,0-6.37-4-10.81-3.61S43,27,36.48,27.6,6.66,32,2.89,37s-4,15.63.1,25.5S10.58,79.77,13.66,83.86Z"/><path class="cls-4" d="M13.66,84.12c1.24-1.88,4.17-4.11,7.22-6,3.78-2.33,11-3.53,17.05-3.41,5,.1,25.1-.22,31.74-3.41,0,0,9.51,16.16,9.22,24.26s-2.26,20-.57,20.74c2.45,1,14.17,2.33,20-1.41,1.31-.85.61-5,1.83-13,.63-4.23,1.27-9.88,1.27-9.88s16.06,12,46,4.32a50.64,50.64,0,0,1,1.94,10.2c.26,3.85-.38,9.83.86,10.5,3,1.59,13.12,2.23,20.79-1.34,1.87-.87,0-18,.63-21.33,2.32-12.76,5.47-20,3.94-34.76s-13.48-27.38-34.77-26.45-30,3.17-41-.29C94.18,31.16,85,29.47,85,29.47s8.45-8.68,9.54-12.36S99.32,6.47,102.2,5.92c0,0-12.13-1.69-16.56.33S72.43,15.07,71.78,24.64c0,0-6.37-4-10.81-3.61s-18,6.21-24.49,6.81S6.66,32.26,2.89,37.22s-4,15.64.1,25.5S10.58,80,13.66,84.12Z"/><path class="cls-5" d="M79.73,25.22c.68,1.75,8.27-6,9.81-8.39s-.31-4.13-3.11-2.24S78.15,21.32,79.73,25.22Z"/><path class="cls-6" d="M12.14,57.15a7.13,7.13,0,0,0,7.37,5.72c6.3-.19,5.51-8.08,5.51-8.08"/><path class="cls-7" d="M53.47,49.09A11.33,11.33,0,0,0,64.26,43"/><path class="cls-8" d="M52.58,43.52c4.83,3,9.76-1.42,9.61-5.83a6,6,0,0,0-6.73-5.43C51.35,32.77,46.74,39.88,52.58,43.52Z"/><path class="cls-7" d="M155.59,75.54s.36,18-8.2,20.4"/><path class="cls-7" d="M92.05,86.36a38.34,38.34,0,0,0,11,6.13"/><path class="cls-7" d="M79.68,64.79a66.34,66.34,0,0,1-10.07,6.06"/><path class="cls-3" d="M80.12,108.73c-.82-.79-1.54-1-2.27,0-.45.53-.86,6.21-.21,7.31a17.74,17.74,0,0,0,4,.84C81.82,113.32,81.78,110.34,80.12,108.73Z"/><path class="cls-3" d="M94.55,116.35c0-7.38-4.19-9.4-6.12-7-1.58,2-1.71,4.65-2.23,7.91A30.6,30.6,0,0,0,94.55,116.35Z"/><path class="cls-3" d="M150.4,108.35a1.07,1.07,0,0,0-.92-.27c-.71,3.57-.46,8.8.73,9.24a14,14,0,0,0,3.72.65C153.23,114.86,152.29,109.75,150.4,108.35Z"/><path class="cls-3" d="M167.34,117.08a32.55,32.55,0,0,0-.62-3.39c-1.23-5.36-4.09-6.85-6.14-3.73-1.46,2.21-1.62,5.87-1.84,8.27A53.64,53.64,0,0,0,167.34,117.08Z"/><path class="cls-9" d="M56.47,38.42a1.08,1.08,0,0,0,.72-1.54A1.17,1.17,0,0,0,55.13,38,1.07,1.07,0,0,0,56.47,38.42Z"/></g></g></svg>