<svg xmlns="http://www.w3.org/2000/svg" viewBox="0 0 165.22 142.09"><defs><style>.cls-1{fill:#85557c;}.cls-2{fill:#b780b1;}.cls-3{fill:#fff;}.cls-4{fill:#f3a5c2;}.cls-5{fill:none;stroke:#000;stroke-linecap:round;stroke-linejoin:round;stroke-width:0.5px;}</style></defs><title>bat</title><g id="Layer_2" data-name="Layer 2"><g id="Layer_1-2" data-name="Layer 1"><path class="cls-1" d="M32,134.05c-3.34-8.81-4-18.35,2.43-17.14,0,0-9.16-22,5.31-25.66-5.29-6.73-6.18.65-.94.29l-19.75-6L6.5,80.88,1.77,92.16,7,107.63,18.45,123.1Z"/><path class="cls-2" d="M37.25,91.65S15.06,86.68,9,82.53c-2.58-1.76-3.45-5-1.53-4.3s29.81,9.16,36.08,12.26C49,93.19,37.25,91.65,37.25,91.65Z"/><path class="cls-2" d="M42.62,79.7c1.85.63,2.37-2.76,3.19-3.54,0,0-8.2-5.37-25.06-6.71C4.85,68.2-3,81.46,1.06,99.07s23.32,33.8,31,35c0,0-20.72-17.86-24.53-32.61s-.71-17.61-.71-17.61a71.78,71.78,0,0,1,5.62,7c3.9,6.15,14.2,22.51,22,26.08A284.18,284.18,0,0,0,17.49,90.51c-6.22-8.62-6.22-8.62-7.07-11.59C11.72,76.54,14.1,70.05,42.62,79.7Z"/><path class="cls-1" d="M158.8,38.87s-10.24,18.07,6.42,38.07c0,0-13.33,6.66-9.52,21.89l-19-9.27-29.53-19,4.75-6.18,29-20Z"/><path class="cls-2" d="M76.18,82.89s13.09,5.71,31.42-10c0,0,32.76,21.63,38.54,23.65,6.51,2.3,9.56,2.3,9.56,2.3S139.51,87,131.89,82.67s-18.33-9.77-18.33-9.77,39.76,4.75,51.66,4c0,0-11.44-7.38-53.34-8.56,0,0,21.9-21.67,46.9-29.51,0,0-16.19-3.57-50,26.17,0,0-4.06-4.06-6.2-4.28s1.67,7.13,1.67,7.13S96.63,81.46,77.12,78.37,76.18,82.89,76.18,82.89Z"/><path class="cls-1" d="M42.11,71.23c-1.81,3.57-10.17,26-6.36,43.07,1.94,8.74,44.49,9.67,44.49-2.14,0-15.76.69-33.79-5.91-43.31S42.11,71.23,42.11,71.23Z"/><path class="cls-2" d="M54.24,26.78S50.94,10.91,44.7,5.39,32.3-.83,26.43.73c0,0,9.68,4,12.31,10.54s11.4,17.9,11.4,17.9Z"/><path class="cls-1" d="M90.19,50.75a26.29,26.29,0,0,0,16.94-2.28c5.29-2.67,7-8.6,14.72-16.71,0,0-11.51-5.8-22.16-2S85.57,44.28,85.57,44.28Z"/><path class="cls-2" d="M84.41,40.47l2.81,3s12.6-16.77,34.65-11.64c0,0-4.93-10.34-22.05-5.13C89,30,84.41,40.47,84.41,40.47Z"/><path class="cls-1" d="M40.46,34.36S30.15,30,28,20.92,28.48,5.36,26.45.73c0,0,10,4,13.9,8.82s10.3,17.06,11.14,17.7S40.46,34.36,40.46,34.36Z"/><path class="cls-2" d="M49.29,77.65C59.73,80.39,80,79.55,87.62,66.24S95,38.4,75.49,28.39s-37.84.25-43.57,14.29S34.77,73.84,49.29,77.65Z"/><path class="cls-1" d="M36.67,109.77s.24,18.06,1.43,23.27c0,0-6.92,1.21-6.92,3.35s7.85-.72,7.85-.72-6.22,2.43-5.22,4c1.16,1.76,3.64.74,6.61-1.58,0,0-2,4.48-.09,4s3.65-5.37,2.72-7.8c0,0-1.48-3.3-1.63-23.52C41.26,87.59,36.67,109.77,36.67,109.77Z"/><path class="cls-1" d="M75.24,112.4s1.88,24.14,2.39,25.19c1,2.07,3.48,3.12,8,3.61s1.74-1.74-2.56-3.39c0,0,7.36,2.21,7.67.49.4-2.27-6.33-2.07-6.33-2.07,1.51-.07,6.46-.6,6.46-1.69,0-2.63-7.27-1.7-9.43,0,0,0-.47-19.71-3.1-25.66S75.24,112.4,75.24,112.4Z"/><path class="cls-3" d="M42.27,44.64c5.21,2.45,11.08-1.29,10.28-8.16-.67-5.91-8.86-6.35-11.71-3S38.23,42.75,42.27,44.64Z"/><path class="cls-3" d="M74.87,53c5.15,1.92,9.79-5,8.45-8.87a6.7,6.7,0,0,0-9.52-3.39C70.23,42.9,67.91,50.44,74.87,53Z"/><path class="cls-4" d="M54.91,57.52C59.5,59,66.82,54,66.19,50.46S60.82,48.3,59,47.58C57.52,47,56,43,52.86,45.06,50.34,46.69,50.79,56.16,54.91,57.52Z"/><path class="cls-3" d="M46.81,70.05l5-4.19L48.71,64Z"/><path class="cls-3" d="M62.65,71.59l-.09-5.4L59.3,67.31Z"/><path class="cls-1" d="M54.26,50.41a1.43,1.43,0,0,0,1.56-2.07,1.4,1.4,0,0,0-2.38-.09A1.28,1.28,0,0,0,54.26,50.41Z"/><path d="M43.83,38.53a1.26,1.26,0,1,0-.74-1.94A1.15,1.15,0,0,0,43.83,38.53Z"/><path class="cls-1" d="M62.6,52.87a1.43,1.43,0,0,0-1-2.43c-1.27,0-1.52.89-1.36,1.8A1.32,1.32,0,0,0,62.6,52.87Z"/><path d="M76,46.09a1.32,1.32,0,0,0,.07-2.41c-1.07-.47-1.6.2-1.8,1A1.2,1.2,0,0,0,76,46.09Z"/><path class="cls-5" d="M45.79,61s1.85,4,7.8,5.64a13.36,13.36,0,0,0,12.6-2.61"/></g></g></svg>