<svg xmlns="http://www.w3.org/2000/svg" viewBox="0 0 196.69 65.38"><defs><style>.cls-1,.cls-7{fill:none;stroke-linecap:round;stroke-linejoin:round;}.cls-1{stroke:#dad8cc;stroke-width:0.3px;}.cls-2{fill:#8db72b;}.cls-3{fill:#eac500;}.cls-4{fill:#ffde00;}.cls-5{fill:#1b8a4f;}.cls-6{fill:#92c131;}.cls-7{stroke:#1b8a4f;stroke-width:0.51px;}.cls-8{fill:#fff;}</style></defs><title>crocodile</title><g id="Layer_2" data-name="Layer 2"><g id="Layer_1-2" data-name="Layer 1"><path class="cls-1" d="M12,41.31l2.84,5.11L17,41.36l2.21,5.3,2.24-4.14,2.21,4.18,2.59-4,2.45,3.61L31,42.62l2,3.23,2.28-3.33L37.58,46l2.07-3.73,2.26,3.21L44,42.12l2.41,3.33L47.8,42l1.84,3.28,2.16-3.4L54,45.45l2.13-3.67L57.82,45l1.8-3.2,1.88,2.76L63.12,41,65,44l2.74-6.52Z"/><path class="cls-2" d="M85.8,61s2.5-.16,4-.43,3.62-1,2.81-3.88c-.43-1.56-1.19-7.25-.07-10.13s-9.42-.33-8.31,9.09S85.8,61,85.8,61Z"/><path class="cls-2" d="M158.63,59.1a17.29,17.29,0,0,0-4.74.93c-1.92.79-3.21-.88-2.43-2,.6-.89,1.39-1.31,3.12-2.08-.29-1.33-.73-7.9-2.81-9.34s5.59-4.15,5.59-4.15L162.14,55Z"/><path class="cls-3" d="M86,45.61s-1.19,2.9,4.47,4.62c7.49,2.3,51.56,7,69.65-1.27,14.85-6.77-31.95-7.18-31.95-7.18Z"/><path class="cls-4" d="M161.17,48.42a57.36,57.36,0,0,0-9.73-1.88l.62,5a39.73,39.73,0,0,0,8-2.54C160.48,48.78,160.84,48.59,161.17,48.42Z"/><path class="cls-4" d="M102.53,46.82,94,47.59l.57,3.56c2.35.41,5.38.82,8.89,1.2Z"/><path class="cls-4" d="M139.82,45.32c-6.28-.54-11.44-.82-11.7-.83l1.9,9.12c3.37,0,6.73-.17,10-.43Z"/><path class="cls-4" d="M120.12,45.21l-9.61.88,1.14,7c2.83.21,5.81.36,8.85.47Z"/><path class="cls-5" d="M88.18,23.89l4.64-7.5,3.35,6.86,3.67-6.38,3.35,6.23,3.52-6.23,4,5.92,3.83-6.25,3.36,6.88,4.16-6.71,2.71,6.87,3.52-7.5,4.47,7.34,1.92-6.71,4.15,7.18,3.2-7.35,3.34,7.2,3-6.87,3.19,6.87,3.2-7.66,3.52,8.14L161,17l3.36,6.71,2.4-7.35L170,24.22,172,16.87l3.68,6.38L177,16.87,180.52,22l.31-6.06,4.15,4-1.27-5.75,5.9,2.07-4.14-4.79,4.47-1.28L184.5,6.81l3.68-2.7L191,7l.81,12.78-12,5.26L125.4,26.62Z"/><path class="cls-6" d="M76,51.37s.59,5.24.24,6.62c0,0-3.59,1.54-3.59,3.06,0,2.15,5.18-.64,5.18-.64s-2.35,1.29-2.12,2.78c.24,1.64,5.48-.56,6.28-1.35,0,0-2.45,1.78-2.11,3s8.13-1.55,8.82-3.13c.43-1,.62-1.79,0-3.7s-1-7.73-.46-9.3c1.88-.16,19.32,1.19,33.59,1.19,8.32,0,33.77-1.47,36.21-1.83.15,1.61.26,8.26.41,8.75s-4.67,1.6-4.74,4.05,5.76-.26,5.76-.26-2.52,2-1.57,3.45,7-2.15,7-2.15S163,64.1,164,65c1.45,1.28,8.32-.93,8-3.81s-1.73-17.61.19-21,18.22-3.43,23.26-17.19c3.76-10.3-1.69-18.25-8.25-23,0,0,3,10.64,2.66,13.83s-5.37,10-21.66,10.46-88.11-.26-91.46-2c-1.12-2.83-3.19-5.59-8-5.42-4.68.17-7.34,5.35-7.79,6.61C43.74,27.27,9,30.19,7.92,29.86s-4.49-1.33-6.71,1c-3,3.08,0,12.6,4.62,12.6s11.22,0,16.65-.36,37.41-.57,42.85-1.38,9.11-1.58,10.37-5.26c0,0,4,5-6.38,7.82s-31.94,4.6-37,5.4-9,1-8.2,4.1c.69,2.81,22.55-.55,33.1-1S76,51.37,76,51.37Z"/><path class="cls-7" d="M102.07,34l3-5.66,3.59,5.5L112,27.77l3.35,5.92,3-5.28,3.22,5.69,3.64-5.21,3.58,5.47,3.34-5.67,4.13,5.95,2.83-6.21,3.23,6.21"/><path class="cls-8" d="M64.83,30a5.75,5.75,0,0,0,9.23-2.81c1.76-4.92-3.33-8-6.26-7a6.69,6.69,0,0,0-4.51,5.15A4.84,4.84,0,0,0,64.83,30Z"/><path class="cls-5" d="M5.52,37c2-.76.83-3.09-.45-3.73S2.48,34,2.64,35.16A2,2,0,0,0,5.52,37Z"/><path d="M69.54,24.34a1.06,1.06,0,1,1-2.11,0,1.1,1.1,0,0,1,1.07-1.12A1.06,1.06,0,0,1,69.54,24.34Z"/></g></g></svg>