<svg xmlns="http://www.w3.org/2000/svg" viewBox="0 0 126.83 121.69"><defs><style>.cls-1{fill:#fbba00;}.cls-2{fill:#2fac66;}.cls-3{fill:#c2bfb5;}.cls-4{fill:#fff;}.cls-5{fill:#dad8cc;}.cls-6{fill:none;stroke:#000;stroke-linecap:round;stroke-width:0.5px;}</style></defs><title>duck</title><g id="Layer_2" data-name="Layer 2"><g id="Layer_1-2" data-name="Layer 1"><path class="cls-1" d="M104.13,24.57c-.23-2.85-1.89-11.39-1.89-11.39s10.07,2.18,13.63,1,11-7.24,10.95-1S121.08,26,118.53,28.07C110.16,34.71,104,34.65,104,34.65S104.34,27.1,104.13,24.57Z"/><path class="cls-1" d="M46.68,92.24s-3,5.84-6,8.85c-2.61,2.64-6.3,4.73-5.48,5.15,1.73.88,14.33,7.13,13.91,7.76s-3.12-.72-4.22,1.2-1.89,3.18-2.55,3-3.81-1.35-4.4.21-.53,4.45-1.83,2.72-7.87-13.64-7.57-16c.15-1.18,5.16-3.68,8.62-7.1a28.66,28.66,0,0,0,5.4-7.76Z"/><path class="cls-1" d="M68.89,92.89a30.6,30.6,0,0,1,3.17,8.22c1,4.66.94,10.28,1.79,9.83,1.71-.91,12.73-7,13-6.32s-1.09,2.61-.15,4.61,1.59,2.24,1.06,2.72-3.27,2.34-2.34,3.71,3.35,3,1.18,3-13.4-.57-15.47-1.69c-3-1.62-2.15-8.6-3.92-15a54.63,54.63,0,0,0-3.58-9.21Z"/><path class="cls-2" d="M103.29,13.46C99.1-5,62.88-7.67,62.25,25.9,62,39.61,57.89,41.82,57.89,41.82l43.82,13.69S107,29.84,103.29,13.46Z"/><path class="cls-3" d="M102.17,52.51S110.4,80,84.57,92.07c-18.18,8.52-42.83,8.24-58.38-3.88S-2.2,48.33.32,47.75s6.24,2.63,6.24,2.63-4.93-7.61-3-7.57S11,47.91,11,47.91s-4.51-5.82-1.81-5c3.29,1,7.63,6.77,16.29,8,19.16,2.72,33.41-9.24,33.41-9.24Z"/><path class="cls-4" d="M103.33,48.84l-.12,9S86.13,55,78.84,53.46c-16.48-3.5-21-11.64-21-11.64l2-6.43S61.05,40.72,75.4,45C81.75,46.88,103.33,48.84,103.33,48.84Z"/><path class="cls-4" d="M82.19,23.9c3.67.56,6.16-1.75,6.71-5.42a6,6,0,0,0-5.23-7.21c-3.69-.55-6.35,2.12-6.91,5.79S78.5,23.33,82.19,23.9Z"/><path d="M84.34,18.75a1.06,1.06,0,0,0,1.27-1,1.12,1.12,0,0,0-2.22-.34A1.17,1.17,0,0,0,84.34,18.75Z"/><path class="cls-5" d="M40.08,56.92c-11.87.55-19.6-8.63-17.79-2.57s8.73,25.53,26,22.94,21.33-15.65,14-22S48.83,56.5,40.08,56.92Z"/><path class="cls-6" d="M99.67,27.31s-1,2-2.51,2.3a3,3,0,0,1-3-1.22"/></g></g></svg>