<svg xmlns="http://www.w3.org/2000/svg" viewBox="0 0 193.17 114.24"><defs><style>.cls-1{fill:#c4c0b4;}.cls-2{fill:#dad8cc;}.cls-3{fill:#a4a098;}.cls-4{fill:#bebaae;}.cls-5{fill:#fff;}.cls-6{fill:none;stroke:#575756;stroke-linecap:round;stroke-linejoin:round;stroke-width:0.65px;}.cls-7{fill:#ece9da;}</style></defs><title>elephant</title><g id="Layer_2" data-name="Layer 2"><g id="Layer_1-2" data-name="Layer 1"><path class="cls-1" d="M107.55,105.26c-1.32-.8-3.4,1.09-3.9,2.74-.25.82-.61,2.11-.91,3.17,3,.07,5.33.07,6.8-.42.06,0,.12-.1.16-.26C109.24,108.58,108.42,105.78,107.55,105.26Z"/><path class="cls-2" d="M102.08,108.92c-.48-1.41-1.84-2.1-3-1s-2.73,5-2.73,5-.33-1-1.19-3.78-2.54-2.46-3.3-1.6-2,4.93-2,4.93-.36-2.46-.8-4.93-2.89-1.81-3.7,0a21.69,21.69,0,0,0-1.28,4.69c1.47,1.91,4,1.67,4.64,1.84,1.09.32,12.88.36,14.87-.58l.06,0C103.07,111.78,102.35,109.73,102.08,108.92Z"/><path class="cls-2" d="M172.71,105.78c-1.48,1.33-1.89,5.64-1.89,5.64-1-2.86-1.08-6.33-4.47-5.87-2.5.35-2.81,6-2.81,6-.7-1.41-2.74-6.77-4.77-4.58-1.3,1.4-1.67,4-2.29,6.38a1.92,1.92,0,0,0,.46.21c2.54.64,19.32.67,19.94-.25a3.36,3.36,0,0,0,.2-1.51,30.1,30.1,0,0,1-1.2-3.11C175.1,106.76,174.2,104.46,172.71,105.78Z"/><path class="cls-3" d="M110.64,85.64s-.14,9.74-.5,15.73,0,9.4-.59,9.4-14.45,1.3-15.52-.35.71-24.78.71-24.78Z"/><path class="cls-4" d="M103.59,9.24C105.73,9,115.92,0,132.55,0c31.83,0,46.62,19.06,50.54,32.34,1.69,5.73,5.23,22.17,3.39,28.64s-8.94,23.42-9.24,26.81.27,24.56-.35,25.49-17.4.89-19.93.24-2-6.63-1.85-14.57-.26-10.37-.26-10.37a73.31,73.31,0,0,1-16.92,4.85c-9.24,1.42-25.69-1.61-31.48-4.38,0,0-.11,6.27-.48,10-.48,4.85-.4,13.47-2.39,14.41s-14.24.83-15.34.52-5.78-.25-6-7.21c-.37-9.7-.11-24.52-6.62-31.67-4.79-5.26-13.16-8.47-18-8-9.24.93-10.17,4.07-17.86,10.33-6.38,5.21-23.64,12.12-30.38,14-5,1.37-6.46-.81-6.62-2.84a9.09,9.09,0,0,0-2-4.88c-1.1-1.57-1.26-4.08,2.19-5.16s19-8.3,25.53-20.52S43,29.71,54.58,19.06,76.36,3.56,86.06,4.19,102,9.44,103.59,9.24Z"/><path class="cls-2" d="M85.66,26.69c.58-3.79,5.32-10.35,13.28-11.1,9.65-.91,20.13,2.62,23.72,12.42,4.31,11.75,8.91,14.92,8.91,14.92S125.37,49,113,50.1c-11.23,1-18.18-1.34-25-10.56C84.84,35.33,85.2,29.83,85.66,26.69Z"/><path class="cls-5" d="M62.57,58.72s6.9,1.7,12,.12a16.7,16.7,0,0,0,7.49-4.43,13.36,13.36,0,0,1,2,2.61A6.08,6.08,0,0,1,84.78,60,11,11,0,0,1,77,64C72.31,64.27,66,63.13,62.57,58.72Z"/><path class="cls-6" d="M8.94,83.27s-2.74-3.93-3.2-6"/><path class="cls-6" d="M16.24,79.6c-2.51-2.51-3.17-3.86-3.81-5.85"/><path class="cls-6" d="M22.76,74.89a10.6,10.6,0,0,1-4.42-5.18"/><path class="cls-6" d="M29.08,70.09a13.42,13.42,0,0,1-5.17-5.48"/><path class="cls-6" d="M33.78,64.36A13.63,13.63,0,0,1,28,59.12"/><path class="cls-6" d="M38,56.46a13.55,13.55,0,0,1-7.07-3.33"/><path class="cls-5" d="M61.14,39.51c2.82,1.53,6.54.84,8.14-3.31,2.18-5.61-2.4-8.16-5.5-8.16-3.42,0-5.73,4.5-5.73,6.41A5.26,5.26,0,0,0,61.14,39.51Z"/><path d="M62,34.68A1,1,0,1,0,61.7,33,.91.91,0,0,0,62,34.68Z"/><path class="cls-1" d="M184.4,59.47c1.88,2.41,4.77,6.86,5.52,9.13s1.85,7.76.31,11.43.85,2.43.85,2.43,2.48-2.86,2-8.47-1-9.13-4.7-15.16S184.4,59.47,184.4,59.47Z"/><path class="cls-7" d="M186.54,81.93c-.81,1.71-1.61,6.47-3.8,10.14,4.45-.23,6.55-1.71,8.38-4.11,1.66-2.2,2.69-4.92,1.59-7.11S188.24,78.39,186.54,81.93Z"/></g></g></svg>