<svg xmlns="http://www.w3.org/2000/svg" viewBox="0 0 340.83 342.23"><defs><style>.cls-1{fill:#219959;}.cls-1,.cls-3{fill-rule:evenodd;}.cls-2{fill:#814114;}.cls-3{fill:#1b8a4f;}.cls-4{fill:#a85318;}.cls-5{fill:#2fac66;}</style></defs><title>arboles</title><g id="Layer_2" data-name="Layer 2"><g id="Layer_1-2" data-name="Layer 1"><path class="cls-1" d="M177.8,259.5s-1.23-2.6-16,0c-55.47,9.75-97.68-16-91.66-16.9,33.13-5.09,59.6-12.24,55.6-14.66s-55.93-7-46.1-8.26c13.3-1.75,51.34-18.05,47-19.23-4.67-1.27-49-2.84-40.37-6.22,31.67-12.41,44.15-25.22,40.2-23.89s-35.88,5.07-30,.92c19.51-13.79,35.88-39.89,35.88-39.89s-18.72,5.57-25.42,7.09-2.75-2,9.92-12.89c12-10.3,22.35-25.33,22.35-25.33s-3.71-.48-13.8,0-9,1.7,0-8.67,32.48-33,27.7-34.8-28.7,12.74-24.19,7.91c12.56-13.47,43-68.16,44.38-64.51s14.89,38.46,24.17,50.65S225,73.4,216.2,72.8s-24.5-8.12-24.5-8.12S199.89,87.44,206,92.94s13,11.59,4.1,11-24.58-7.94-20.49-2.44,34.56,27.59,28.88,28.44-25.47-4.35-25.47-4.35S210.66,150.3,216.2,154s12.36,7,6.22,8.08-25-3.47-25-3.47,14.41,24.67,33.87,36.18c2.36,1.4-16.38,1.74-25.27,0s-12.29-3.75-11.61,0,33.46,17.82,46.42,25.8c9,5.5-40.27-1.46-43.42,0-3.43,1.58,28.48,25.14,56.87,28,8.49.85-14.82,7.26-31.89,10.95S177.8,259.5,177.8,259.5Z"/><path class="cls-2" d="M152.47,238.27c-.25-14.18,1-42,1-42l-21.62-20.94,2.82-3.47s2.27.51,8.09,4.89,13.11,8.66,13.11,8.66.4-24.28.84-29.85c.81-10.4-2.85-13.58-2.85-13.58s-3.27-2.35-7.82-5.56-8.23-6.16-8.23-6.16l3.58-3.82a85.08,85.08,0,0,1,9,4.88,7.42,7.42,0,0,0,7.14.36s.09-3,.41-12c.29-8.3,1.62-18.76.2-23.25s-10.49-18.21-10.49-18.21l2.4-4.31a18.41,18.41,0,0,1,4.42,4.54c2.14,3.06,8.36,10.82,8.36,10.82s2.65-5.92,5.87-11.84c3.91-7.2,1.84-8.23,6-7.17,4.57,1.17,3.23,1.85,1.07,7.67-2.42,6.53-3.34,9.07-5,12.72-1.34,2.88-.38,44.46-.38,44.46s-.33,27.24.81,27.66c5.11,1.84,19.38-1.45,19.38-1.45l-.14,4.1-19.82,6.25-.44,46.53s6.73-.23,10.41-1.94,4.3-1.13,4.3-1.13l1.49,3.68s-4.17,3.37-7.81,4.15c-2.62.56-6.47,1.55-8.45,2l2.44,92.31L151,316.61S152.71,252,152.47,238.27Z"/><path class="cls-3" d="M231.17,278.89s1.24-2.64,16.22,0c56.2,9.88,99-16.18,92.86-17.13-33.57-5.17-60.38-12.39-56.32-14.85s56.66-7.06,46.71-8.36c-13.48-1.78-52-18.29-47.61-19.48,4.73-1.28,49.64-2.88,40.9-6.3-32.09-12.57-44.72-25.54-40.72-24.21s36.34,5.15,30.38.93c-19.77-14-36.36-40.42-36.36-40.42s19,5.64,25.76,7.19,2.8-2.08-10-13.06c-12.19-10.43-22.64-25.66-22.64-25.66s3.77-.49,14,0,9.14,1.71,0-8.79S251.4,75.36,256.25,73.51s29.06,12.9,24.51,8c-12.73-13.64-43.57-69-45-65.34s-15.09,39-24.49,51.3-27.93,22.88-19,22.26,24.83-8.22,24.83-8.22-8.31,23.07-14.53,28.63-13.14,11.74-4.15,11.13,24.9-8,20.75-2.48-35,28-29.27,28.82,25.81-4.42,25.81-4.42S197.91,168.25,192.3,172s-12.52,7.09-6.29,8.18,25.31-3.5,25.31-3.5-14.6,25-34.3,36.64c-2.39,1.42,16.61,1.76,25.59,0s12.46-3.79,11.76,0-33.89,18.06-47,26.14c-9.06,5.57,40.81-1.47,44,0,3.48,1.61-28.85,25.48-57.61,28.36-8.6.87,15,7.37,32.3,11.1S231.17,278.89,231.17,278.89Z"/><path class="cls-4" d="M256.83,257.38c.25-14.36-1-42.52-1-42.52l21.9-21.21-2.87-3.53s-2.31.52-8.2,5-13.28,8.76-13.28,8.76-.4-24.59-.85-30.24c-.83-10.53,2.88-13.75,2.88-13.75s3.32-2.38,7.92-5.63,8.33-6.25,8.33-6.25L268,144.09a88.77,88.77,0,0,0-9.1,4.95,7.54,7.54,0,0,1-7.24.35s-.07-3-.4-12.12c-.3-8.41-1.65-19-.21-23.56s10.64-18.44,10.64-18.44l-2.44-4.38a18.21,18.21,0,0,0-4.48,4.61c-2.17,3.1-8.47,11-8.47,11s-2.68-6-5.94-12c-4-7.29-1.87-8.35-6.12-7.26-4.63,1.18-3.28,1.87-1.09,7.76,2.45,6.61,3.37,9.19,5.1,12.89,1.36,2.91.39,45,.39,45s.33,27.59-.83,28c-5.18,1.87-19.64-1.45-19.64-1.45l.15,4.14,20.08,6.33.45,47.15s-6.83-.25-10.54-2-4.36-1.15-4.36-1.15l-1.51,3.72s4.24,3.42,7.93,4.21c2.65.57,6.54,1.58,8.55,2.1l-2.47,93.5,21.93-.8S256.58,271.28,256.83,257.38Z"/><path class="cls-5" d="M88.51,80.29c-11.56-.4-34.6,3.52-53.15,16.47C13.47,112,7.44,122.05,1.83,147.91s2.35,46,14.11,63.54S35.36,247.3,89.15,256C119.61,261,169,241.63,178,201.53s-1.72-68.08-11.94-78.49S139.27,82.07,88.51,80.29Z"/><path class="cls-4" d="M22.68,156.61l13.79,7.71s6.86,1.31,10.47,2c3.33.59,11.57,2.32,11.57,2.32l2.87-15.19h3.2s-1.91,15.47,0,16.59c1.52.91,11.58,4.08,17.82,5.62,1.42-14.07,3-29.67,3-31.51s-4.94-4.93-8.91-6.64-12.78-4-16.31-5.12-5.29-1.8-5.29-1.8,4-6.37,6.62-5,14.11,6.82,14.11,6.82l3.9-7.84h4.53l-2.7,7.84s2.2,1.55,4.06,0,3.44-8.6,3.44-14.47-.06-8.53-.06-8.53c-1.65-.36-8.46,2.9-8.46,2.9L79,110.16l8.2-5.17s-2-2.61-4.58-6.58-2.41-3.79,2-6c0,0,2.84,4.31,5,7.78,1.42,2.23,5.53,9.73,7,10s2-.08,5.89-1.44l3.72-.94,1.48,3.23s-8.9,2.4-9.33,5.3-.89,25.19-.89,25.19l8.62-10.89,3.06,1s1.1-.06-.22,2.44a21.68,21.68,0,0,1-2.84,4.12l10.57-3.28.11,4.14s-7.83,2.18-10.93,3.51-8.81,4.4-8.81,4.4l-.87,7.54c-.89,7.56-1.77,30.82-1.77,30.82l11.12-4.13,3-6.91-5.28-2.32,1.32-2h6.61l5.37-7.91,3.4,1.67s-4.79,5.92-4.79,7.14-3.78,10.26-3.78,10.26,7.42-2.42,9.52-3.17,27.8-6.64,27.8-6.64l.44,6s-16.36,5.76-20.87,7.92l-.64.29a11.4,11.4,0,0,1,1.12.87,32.91,32.91,0,0,0,9.55,5.31L136.25,197l-14.85-9.26c-2.67.79-11.29,4-12.68,4.55-4,1.45-12.07,4.72-13.38,9.66s.4,19.91.46,27.57c0,5.58,1,6,3.63,5.47,3-.62,8.25-2.4,8.25-2.4a25.24,25.24,0,0,1,.16-5.07,36.53,36.53,0,0,1,1.59-7l3.54-1.35a34.69,34.69,0,0,1,.61,8.39c-.1,2.41,5.88,1.09,8.6-.41A80.57,80.57,0,0,1,135,221.3c4.16-1.45,9.87-3,9.87-3l2.19,5.11a127.28,127.28,0,0,0-14.91,6.63l-1.87,1,7.78,1.75-2,3.48a36.59,36.59,0,0,1-4.85-1,54.29,54.29,0,0,0-6.73-1.49c-5.11,2.32-9.28,3.83-14.31,6.16-6.26,2.89-11.71,4-14.36,5.85s-.45,56.28-.45,69.39.45,27,.45,27H75.53l4-112.68L63.18,215.27l-1.12,1.58A35,35,0,0,1,57.89,221l-2.65-3.13,1.33-1.06c1.32-1,2.65-4.23,2.65-4.23l-7-6.59,1.76-2.91s7,4.21,11.79,7.19l.52.34V196.82s-.92-3,0-3.36a5.54,5.54,0,0,1,2.65,0s.6,2.77,1.12,5.9c.4,2.4,1.39,10.92,1.83,14.76,4.15,2.56,8.23,5,8.23,5s-.28-14.21.21-21.25c.13-1.78.51-5.86,1-11-7.76-2.38-19.86-7.07-26.79-8.92-8.9-2.36-10.81-4.51-13.66-3.12S38.28,188.56,37.39,190l-3.8-1.39v-8.32H25.5l-1.28-2.77,9.37-1.38v-8.31s-12.51-6.6-12.76-8.11S22.68,156.61,22.68,156.61Z"/></g></g></svg>