<svg xmlns="http://www.w3.org/2000/svg" viewBox="0 0 106 126.52"><defs><style>.cls-1{fill:#814114;}.cls-2{fill:#db7a1c;}.cls-3{fill:#f39200;}.cls-4{fill:#a85318;}.cls-5{fill:#fff;}.cls-6,.cls-7{fill:none;stroke-linecap:round;}.cls-6{stroke:#000;stroke-width:0.64px;}.cls-7{stroke:#db7a1c;stroke-width:0.91px;}</style></defs><title>grillo</title><g id="Layer_2" data-name="Layer 2"><g id="Layer_1-2" data-name="Layer 1"><path d="M71,25.46c.56.23,1-1.19,1.34-2-4-7.51-9.77-13.95-17.22-13.31,4,1.62,7.24,3.28,10.32,6.88A47.59,47.59,0,0,1,71,25.46Z"/><path d="M77.52,20.76c-.71-7-3.7-17.43-9.61-20.76a49.35,49.35,0,0,1,4.87,9.69,54.23,54.23,0,0,1,2.49,12.4C76.23,21.53,77.52,22.14,77.52,20.76Z"/><path class="cls-1" d="M38.6,70.84c-2.8,6.73-3.62,35.56-4.05,40.74-.48,5.75,0,7-2.42,7.16-4.11.29-6.71,2.66-1.34,2.87,2,.2,4.35.75,6.24-.33.91-6,1.52-15,2.3-23.71.34-3.75.16-19.73,2.61-21.69C47,71.4,54.6,88,57.42,91.17c2.3,2.53,6.63,6.13,6.41.4-.14-3.12-3.23-7-4.85-9.36C57.64,80.32,43.3,59.34,38.6,70.84Z"/><path class="cls-1" d="M35.12,103.59a9.53,9.53,0,0,0-2.44,1.11,4.66,4.66,0,0,0-.87.81,6.47,6.47,0,0,1,1.65-.46c.61,0,.55.4.55.4a7.07,7.07,0,0,0-1.5.74,6.34,6.34,0,0,0-1.21,1.45,19.55,19.55,0,0,1,2.12-.93c.65-.18.75.26.75.26a7.74,7.74,0,0,0-2.4,1.71A6.74,6.74,0,0,0,31,110a5.48,5.48,0,0,1,2.46-1.37c1.59-.41,1.79.12,1.79.12Z"/><path class="cls-1" d="M20.24,95.86c-5.86-1-11.6-2.78-16.33-7.22,2.83,8.89,10.33,9.58,16.49,10.69C16.52,102.48,5,99.82,0,98.09c3.2,4.73,9.59,5.57,12.9,5.57,2.37,0,6.63-.28,8.52-2C23.8,99.48,23.56,96.42,20.24,95.86Z"/><path class="cls-1" d="M99.13,52.68c-3.23,2.81-5.46,2.92-8.7,3.86-1.61.46-.88.17-1.41,2.05-.79,3.58-3.29,11.29-4.13,14.94-1.43,6.29-3,14.23-6.89,20.14C76,96.93,67.48,104.12,64,106c-4.77,2.64-14.19,5.2-20.86,4.44-8.07-.94-15-4.51-20.92-9.19C20.8,100,19,97.92,18.57,95.59c-.67-2.8,4.91-5.55,6.63-7,1.85-1.71,10.32-7.1,11.63-8.34,3.59-3.58,15.22-16.8,17.59-20.7s3.71-8.86,5.82-13.05c1.86-3.58,3.32-7.31,5.43-10.73a10.94,10.94,0,0,1,2.45-3.19C69.29,22.8,74,20.25,77.6,19.42c5-1.25,11.78,3.6,16,6.24C104.18,32.39,112,47.73,99.13,52.68Z"/><path class="cls-2" d="M72.29,56.67C69.85,64.15,60.7,86.13,49.11,93.92c-4.74,3-10.42,4.45-16.1,5-3.08.27-12.31,1.38-14.91-2-2.6-3.89,9.23-10.84,12.06-13.35,5.92-5.56,16.35-13.93,21.06-21.12,6.11-9.32,8.51-16.28,10.18-18.3C63.3,41.94,73.64,52.62,72.29,56.67Z"/><path class="cls-3" d="M89.69,59.55A126.17,126.17,0,0,1,66.61,41c-.66-.62-1.33-1.71-2-2.18-1.46-1.08-.92-.93-2.25.31-1.86,1.72-3.17,4-2.38,6.38s3.52,3.63,5,5.28c4.21,4.62,18.53,13.71,20.52,14.32,1.72.62,1.86.78,2.51-.76A17.86,17.86,0,0,0,89.69,59.55Z"/><path class="cls-4" d="M33.52,73c-3.79,6.67-8.16,37.12-9.26,42.51-1.21,6-.83,7.42-3.43,7.2-4.41-.39-7.45,1.7-1.77,2.81,2.12.56,4.51,1.53,6.66.7,1.69-6.25,3.44-15.71,5.32-24.76.81-3.93,2.56-20.9,5.41-22.57C42.36,75,48.39,93.8,51,97.7c2.12,3,6.27,7.6,6.74,1.49.23-3.33-2.58-8-4-10.73C52.57,86.26,39.91,61.59,33.52,73Z"/><path class="cls-4" d="M81.44,73.5C88.6,73.5,92.09,70.72,98,66c3.08-2.49,3.89-4,6.25-.14,1.42,2.22,3.32,7.22-.48,6.11-.94-.27-.71-3-2.13-3.33-1.18-.27-8.75,6.11-11.59,7a19.32,19.32,0,0,1-8,1.11C79.4,76.13,76.94,73.5,81.44,73.5Z"/><path class="cls-5" d="M80.46,25.46c5.56,6.06-.69,15.78-7,8.84C68.14,28.42,75.79,20.39,80.46,25.46Z"/><path class="cls-4" d="M72.77,89.48a13.33,13.33,0,0,0,17.67,7.3c3.08-1.39,6.76-3,8.31,2.08s.63,6.06-.27,6.52c-1.47.77-2-1.5-3.46-6.16-3.34.34-7.06,2.37-10.85,2.46-8.8.21-17.86-12.18-16-15.84C69.81,82.49,71.5,86.36,72.77,89.48Z"/><path class="cls-6" d="M98.39,52.56a7.64,7.64,0,0,1-3.84-1c-2.66-1.45-3.38-5.84-3.38-5.84"/><path d="M78.92,27.8a1.19,1.19,0,0,1,1,1,1,1,0,0,1-.9,1.07,1.17,1.17,0,0,1-1-1.33A.75.75,0,0,1,78.92,27.8Z"/><path class="cls-4" d="M25.84,107.14a10,10,0,0,0-2.72.76,4.58,4.58,0,0,0-1,.72,6.49,6.49,0,0,1,1.81-.2c.64.09.54.51.54.51a7.2,7.2,0,0,0-1.7.54,6.34,6.34,0,0,0-1.45,1.34,19.18,19.18,0,0,1,2.36-.63c.73-.08.76.4.76.4A8,8,0,0,0,21.67,112a6.62,6.62,0,0,0-1,1.2,5.5,5.5,0,0,1,2.79-1c1.73-.17,1.88.42,1.88.42Z"/><path class="cls-7" d="M83.12,81.71c-7.54.43-14.28-4.25-18.92-10.09"/><path class="cls-7" d="M71.31,100.57c-8.13.07-15-6.7-18-14.22"/><path class="cls-7" d="M48.67,110.43c-5-2.07-9.27-11.54-9.27-19.78"/></g></g></svg>