<svg xmlns="http://www.w3.org/2000/svg" viewBox="0 0 138.65 85.14"><defs><style>.cls-1{fill:#e30613;}.cls-2{fill:#fff;}.cls-3{fill:#b91919;}.cls-4{fill:none;stroke:#000;stroke-linecap:round;stroke-width:0.64px;}</style></defs><title>guitarrero</title><g id="Layer_2" data-name="Layer 2"><g id="Layer_1-2" data-name="Layer 1"><path class="cls-1" d="M16.32,12A25.17,25.17,0,0,1,25.25,2.8a10.28,10.28,0,0,1,10.26-.34c2.85,1.61,2.92,5.87,3.14,8.69.9,11.36-3,23.22-4.33,34.29a.63.63,0,0,0,1.25.12c.92-7.76,3.51-16.84,4.28-24.65.45-4.72,1.37-13.51-1.8-17.58C34.7-1,29.2-.6,24.72,1.66c-3.44,1.72-8.35,6.76-9.59,10.46a.67.67,0,0,0,.22.74C15.43,12.93,15.81,13,16.32,12Z"/><path class="cls-1" d="M1.27,40.67C1.78,31.64,17,10.69,27,21c3.6,3.74,4.91,10.31,4.48,15.3-.19,2.16-1.27,8-.29,10.06.36.72,1.5.19,1.14-.53-1-2,.3-8.29.48-10.36a21.66,21.66,0,0,0-1.17-8.17c-1.16-3.81-3.66-9-8-9.91C17.86,16.24,14,18.81,10,22.69,5.63,27,.37,34.22,0,40.56,0,41.35,1.21,41.48,1.27,40.67Z"/><path d="M36.06,2.61A7,7,0,0,0,32.46,7C31.25,10.56,35,14.41,38,14.43c4.55,0,8-3.28,6.94-8.19S38.53,1.23,36.06,2.61Z"/><path d="M10.57,19c-5,.52-8.36,6.93-5.1,11.5,2.47,3.47,6.84,2.64,9.23,1.34s2.87-4,2.86-6.78A6.68,6.68,0,0,0,10.57,19Z"/><path class="cls-1" d="M59.82,46.07a96.16,96.16,0,0,0-9.76-.21c-3,.07-5.8.83-8.81.54-3.68-.33-5.86-2.21-9.47-3.23-8.23-2.1-13.34,2.17-17.35,9.22C12,56.88,6.83,65.53,8,71.36c1.19,5.51,2.77,2.94,5.41-.18,3-3.11,3.74-4.05,8.17-4.65A132.83,132.83,0,0,1,41.91,65c8.55-.29,17.06.73,25.57,1.37,5.16.38,10.34.47,15.48.94,3.59.32,7.21.45,10.8.58,4.33.15,8.67.08,13,.23,2.63.08,5.28,0,7.92,0,2.13,0,4.21-.18,6.31-.37,3.56-.35,16.19.21,17.56-4s-10.22-8.39-13.44-9.71c-9.4-3.89-19.8-4.5-29.86-5.08-11.75-.4-24.81-1.25-35.71-3.59"/><path class="cls-2" d="M28.41,45.23c-5.35-.81-10.39,6.26-5.66,10.36,3.09,2.83,7.4,1.15,9.14-2.2C34.16,49.44,30.29,45.36,28.41,45.23Z"/><path d="M25.81,49.73c-1.17-.18-2.28,1.37-1.24,2.27a1.29,1.29,0,0,0,2-.49A1.27,1.27,0,0,0,25.81,49.73Z"/><path d="M56.59,46.28c.23,6.76,1.35,11.51,8.47,12.83,7.29,1.34,20,3.87,27.22,3.52,8.79-.38,17.37,2.15,26.21,1.44a195.09,195.09,0,0,1,20.13-.87c-1.33-3.82-5.15-6.37-8-9-2.81-2.44-5.64-4.72-8.79-7-7.11-5.19-15-5.75-23.26-7.34-8.44-1.62-16.65-2.19-25.21-.61-5,.9-14.11,1.42-16.76,6.4l-.46.11Z"/><path class="cls-3" d="M46.06,75.91A37.44,37.44,0,0,1,48.75,64c.45-.83,1.28-3.21,2.59-2.73,1,.34.39,2.5,1.17,3.3,1.11,1.34,2.28.71,2.67-.87.23-1.2-.51-2.5-1-3.66-2.93-7-7.25-.16-8.48,3.91-1.26,4.33-1.94,9.06-3.54,13.24-1.5-1.13-3.94-1.48-5.31.13-1.92,2.17,1,2.18,2.75,2.22C42.28,79.63,45.55,80.9,46.06,75.91Z"/><path class="cls-3" d="M79.24,58.36c-.86,1.4-7,11-2,10,2.76-.5,3-4.41,4.15-6.28s4.2-5.67,6.9-4.06c3.27,2,1.09,10.18.57,13.2-.45,2.3-.69,8.1-.59,5.77,0,0-1.43,5.1,1.9,6.55,1.71.72,6.59,2.54,7.11-.49.48-2.67-3.76-2.62-5.47-2.77.08-3.44.63-5.49.69-7.7.1-2.45.09-5,.33-7.61.42-4.65-1.2-12.68-7.78-10.69A17.23,17.23,0,0,0,79.24,58.36Z"/><path class="cls-3" d="M117,49.59c7.17,1,5.23,10.21,4.18,14.93a108.18,108.18,0,0,0-2.63,15.42c2.06.31,5.56-1.59,7,.5,2,3-3.14,4.77-5.22,4.7-3.2-.17-5.41-.12-5.58-3.71a70.13,70.13,0,0,1,.66-8.7,102.84,102.84,0,0,1,1.79-10.19c.28-1.71,2.21-6.71.23-8-2.22-1.31-6.57,3.1-7.93,4.59-1.9,2-3,5-4.81,7-3.14,3.42-3.22-2.52-2.3-4.53a17.25,17.25,0,0,1,4-5.94C109.43,52.83,114.1,49.18,117,49.59Z"/><path class="cls-4" d="M17.38,67.23c3.58-3.16,2.47-6,2.47-6"/></g></g></svg>