<svg xmlns="http://www.w3.org/2000/svg" viewBox="0 0 973.77 522.74"><defs><style>.cls-1{fill:#92c131;}.cls-2{fill:none;stroke:#1b8a4f;stroke-linecap:round;stroke-width:1.14px;}.cls-3{fill:#1b8a4f;}.cls-4{fill:#2fac66;}.cls-5{fill:#a85318;}.cls-6{fill:#00a0a4;stroke:#00a0a4;}.cls-7{fill:#4fbcc1;}.cls-8{fill:#e3d7c2;fill-rule:evenodd;}.cls-9{fill:#9d978e;}.cls-10{fill:#dad8cc;}</style></defs><title>lago</title><g id="Layer_2" data-name="Layer 2"><g id="Layer_1-2" data-name="Layer 1"><path class="cls-1" d="M126.34,234.34c-3.64,78.55,53.93,124.37,96.34,141.92s160.08-41.51,205.71-48,337,108.26,354.08,16.66S593.29,236.71,496.64,170.73s-170.37-69.74-235-57.38S130,155.79,126.34,234.34Z"/><path class="cls-1" d="M942.6,260.42c4.66-78.49-46.6-97.89-97.6-103.68s11.62,5.79-203.19,5.79S306.29,49.87,288,141.25,462.83,229.54,571.5,319.18s169.44,72,234.24,60.45S937.94,338.92,942.6,260.42Z"/><path class="cls-2" d="M163.26,173.64S163.41,125.2,175,85C189.17,35.52,206.28.57,206.28.57"/><path class="cls-3" d="M224.16,176.06a55.31,55.31,0,0,0,4.24-6.39c9.9-17.44,33.74-62.67,33.74-62.67a233.32,233.32,0,0,0-22.68,22.87c-5.5,6.31-20.42,32.68-27.53,45.44C215.93,175.53,220,175.77,224.16,176.06Z"/><path class="cls-3" d="M147.39,176.16c8.94-.71,18.49-1.21,28.67-1.39a241.61,241.61,0,0,1,7.64-73,457.12,457.12,0,0,1,20.54-58.65,209.62,209.62,0,0,0-27,54c-7.89,24.45-13,73.12-13,73.12S159,164.52,160,139.6s10.86-88,10.86-88S158.1,86.94,153.38,118C150,140,147.92,168.43,147.39,176.16Z"/><path class="cls-3" d="M210.5,175.27c3-8.89,8.18-24.86,12.16-40.19,6-22.91,29.64-76.58,29.64-76.58s-14.39,14.75-26,40.89c-8.3,18.66-32.37,71-32.37,71s13.59-56.74,22.63-83.23S251,12.85,251,12.85,227.36,39.63,212.79,71c-11,23.57-36.13,102-36.72,103.81C186.86,174.57,198.33,174.7,210.5,175.27Z"/><path class="cls-4" d="M123.79,178.69q7.76-1.06,16.31-1.89c-2-16.23-3.25-37.79.05-58.68a502.15,502.15,0,0,1,15-64.89,239.32,239.32,0,0,0-22.49,61.59C127.31,140.83,124,176.37,123.79,178.69Z"/><path class="cls-4" d="M88.47,185.3c5.89-1.43,12.45-2.84,19.69-4.15-2.94-13.12-6.45-29.12-8.65-40.26-4.33-22.06-5.69-80.46-5.69-80.46a172.78,172.78,0,0,0-6.17,50C88,128,88.38,173.1,88.47,185.3Z"/><path class="cls-4" d="M109.83,180.86c4.36-.77,9-1.49,13.8-2.15-.65-.56-3.17-4.15-4.85-26.58-1.93-25.84,6.27-117.56,6.27-117.56s-15.52,50.1-15.65,97.65C109.37,146.48,109.6,165.75,109.83,180.86Z"/><path class="cls-4" d="M50.05,198.21s.55-.29,1.65-.79c-1.92-2.09-5.22-6.86-10.48-17.78-9.7-20.2-30.46-99-30.46-99s1.3,48.27,15.82,87.15c5.24,14.06,13.1,33.89,18.16,46.56Z"/><path class="cls-4" d="M53.38,196.67c5.24-2.3,16.68-6.82,34.3-11.16C85.46,177.47,79.3,154,76.8,132c-3.06-27-.3-82-.3-82s-10,37.32-9.93,71.93C66.66,148.3,70.23,190,70.23,190S56.5,175.9,49.72,139a365,365,0,0,1-5.84-57.47s-5.59,29.77-1.49,61C45.09,163.16,51.4,188.86,53.38,196.67Z"/><path class="cls-5" d="M188.36,33.8c.49-1.17,8.79-23.35,10.62-26.56,2.61-4.57,7.74-1.83,6.24,2.56-1.11,3.25-8.62,23.51-10.36,27.31C192.61,42,185.68,40.17,188.36,33.8Z"/><path class="cls-6" d="M36,330.74c-55-102-39.06-131.85,13-146,78.24-21.26,153.74-25,232-25s196.08,15.88,233.12,39.59c28.72,31,114,30.38,160.39,35.61C797,248.74,846.13,260.79,865,270c61,29.67,117.11,196-23,201.77,0,0-408.77-19.52-517-20s-191-37-191-37-39,37-77,7c-18-27,6,4.46,42-28,3.14-2.82,5.68-4.86,7.65-6.3C95.26,390.68,67.42,389,36,330.74Z"/><path class="cls-7" d="M533.73,259.48c1.83-1.39,4.72-1.18,6.91-2.05.26-.08,0,.51.59.29,2.08-1.16,5.69-1.07,8.43-.75l-.16.15c.52.06,1.12-.48,1.68-.41,0,.09-.17.14,0,.27.13-.29,1-.16,1.21-.37.22.1.2.33.49.44l.31-.33c.86-.79,2.13,0,3.32-.43-.06.08-.18.14-.09.21a38,38,0,0,1,6.49-.31c-.09.11-.19.31-.07.45.13-.33.79-.35,1.38-.37.22.38,1-.22,1.67,0l-.07.06c.54-.31.72.28,1.17-.11l.29.31c.28-.46.69.32,1.14.11v-.1c.4-.09.57.2.94.17l0,.06c.85,0,1.31.33,1.34-.05.25.35-.83,0-.43.53a41.62,41.62,0,0,1,8.38,1.07c.28.22.47.3.52.45a5.38,5.38,0,0,0,1.33,0c-.1,0,.13.24.28.29.46.25.62-.3,1.13,0-.24.05-.34.15-.29.31a4.29,4.29,0,0,1,1.71,0c-.1,0-.23.05-.24.17.68-.2,1.08.31,1.65.21l-.24.18c.78.44.35-.4,1-.08-.19,0-.15.13-.2.21a7.77,7.77,0,0,1,2.56.19l0,.09a17.73,17.73,0,0,0,2.35.48c.27.17-.23.5.57.61.09-.44,1.38.16,1-.45a8.08,8.08,0,0,0,2.15.66c-.34.08.19.61-.37.5l.35.38c-.11.16-.42-.18-.34.08a6.33,6.33,0,0,1,1.36.23,4.35,4.35,0,0,1,2-.34c-.43.07.1.54-.19.54l1.38-.51c.29.05,0,.35.4.35,0-.12.2-.14.35-.2s1.18.2,1.19.65c.07.21-.48,0-.21.2.51.14.57,0,1.09.13v.06c.33.15,1,.09.74-.25-.22-.08,0,.28-.3.06a2.3,2.3,0,0,1,1.44,0c-.19,0-.21.14-.31.24a8.73,8.73,0,0,1,2.34,0c.06-.2-.39.29-.47.15.9.54,2.14.15,2.84.78-.15,0,0-.31,0-.24.47.15.37.43.7.4,0,.18.4.05.73.08s.06.1-.22,0a9,9,0,0,1,3.28.68c0-.12.73-.25,1-.18l-.15.25c.18.21.79.18.78.41.58-.19-2-.22-1.26-.29.12.27,1-.18.82.14.48.12,1-.07,1.39.3-.12-.08-.48.26-.09.34.69.13.22-.07.8,0l.37,0c.08-.25.59.18.41-.17,0,.24,1,.1.84.52l-.18.32c.3.05.57-.24.83-.34,0,0,.1.12.07.18.17-.51.68.21,1.13-.12.56.33,1.54.39,1.75.78a2.78,2.78,0,0,1,1.48.11c-.12,0-.27,0-.32.11.3.23.42.11.75.09-.09.07.61.45.94.72.5-.06.4-.37.48-.54.32.6,1.4-.06,1.83.53-.18,0-.74.11-.37.32.32.6.94-.2,1.58.2l-.08-.47c.25.33,1.06,0,.9.39.26-.1.8.29.8-.13,1.07.57,2.81.3,3.38,1.18.17-.05.57.1.53-.12-.24-.29-.41.09-.49-.09a.22.22,0,0,0,.23-.14c.33.16.61.24.21.52.74.41.94-.56,1.92-.21-.08.17,0,.25.29.28l.61-.2c.63.17.3.45.26.75.36,0,.78.09,1-.11l.36.44c-.27-.32.32-.14.49-.18l-.17,0c0,.14.46.14.67.13,0-.19-.42-.34-.64-.43.2-.1.48,0,.74-.13-.13.28.54.3.81.38s.4-.2.49-.18.51.11.23.28c-.12,0-.22-.19-.42-.08.19.15.12.41.59.28s0-.58.6-.3c-.18.05-.22.16-.37.24l.56.25.07-.27c.06.08,0,.1,0,.14.22-.25.9.06,1.08-.24.3,0,.6.27.87.34l0,0a1.27,1.27,0,0,0,1.11,0l0,.06a1.66,1.66,0,0,0,.9-.05c.44.27,0,1,.59.76.48.06.81-.37.64-.57.84.29,1.88,0,2.63.51.15-.09.07-.17.34-.2,1.25.26,2.71,0,3.66.65-.38.07-.06.26-.07.42.33-.21.34.28.49-.11s0-.36-.3-.5a5.32,5.32,0,0,1,2.32.35c-.2-.13,0-.19.15-.24-.1.38.45.48.89.39l.08-.22.25.27c.17-.06.23-.48.63-.21l.09.27c.46-.15,1.11-.42,1.56-.16l.36.37c.21,0,.57-.19.22-.32.79.28,1.31.34,1.54.65a11.67,11.67,0,0,1,5.11-.34l-.06.18c.43.18.25-.3.55-.16-.15.16.31.38,0,.56.62.22.82-.26,1.23-.31.07-.23-.33.13-.24-.16.07-.08.85.23,1-.12.15.15,0,.4-.08.54L668,274c.45.43-1.1.67-.64,1.2l.36,0c.31.38-1,.36-.08.53.39-.15.76-.63.41-.81.81-.05.42-.81,1.28-.74.23.22-.69,0-.54.31.4.3.82-.11,1.18,0-.4-.15,0-.49.22-.55.43.18-.29.33.32.38.11-.2.68-.34.2-.49.24-.45.64.15,1-.2.19.33-.66.73,0,.9-.1-.31.85-.39.5-.86.27.1.29.34.08.53.38.2,1-.53,1.05.08l.14-.31c.12.11.28.19.47.37.34,0,1.09-.41,1.05.07.11-.05.87,0,.59-.35-.48-.21-.55.23-.81-.22.33.37.68,0,1-.16l0,.18c.17-.06.54,0,.65-.23a.15.15,0,0,0,.06.28l.17-.28c.66-.13.15.5.8.42l-.49.21c.11-.05.32.22.63.14.13-.26.36-.56.45-.76.36-.11.17.29.53,0l-.48.31c-.07.08.32.42.81.43.32-.09.79-.46.3-.6.25,0,.59.14.4.34.55-.1-.07-.27.4-.45.2.17.81.42,1.18.66l-.49.43H681c-.44.34.21.26,0,.63a1.27,1.27,0,0,0,.72-.18c-.67-.57.74-.8.54-1.32.9-.16.59,1.28,1.52.44-.16-.14.28-.54-.29-.39.58.05.38-.54,1-.34-.49.23.54.53-.17.86,0-.18-.4-.12-.5-.07.23.19,0,.53.54.52.35-.06.84-.09.76-.36s-.54.05-.32-.26c.7-.13.83.33,1.11-.22a.46.46,0,0,1-.56-.46l.51-.15-.1.21c.84.11.24-.37,1-.34l.39.39c-.18.35-1.18-.12-1,.43.52,0,.69-.28,1.18-.15l-.37.13c.19,0,.4.75,1.14.28.38-.18.1-.2.1-.41.84-.1,1.07-.33,1.62-.38-.09.41,1,0,.37.44a1.8,1.8,0,0,0-1.77.26c.33.47-.66,0-.83.45.68,0,.66.46.79.78a1,1,0,0,0,.48-.19c.06-.3-.18-.28-.21-.58a2.92,2.92,0,0,0,1.88-.47c.25.14.19.43-.11.47a15.47,15.47,0,0,1,2.71-.1c-.58-.44.94-.17.53-.55-.46-.08-.87-.39-.63-.62.29,0,0,.21.13.3.35-.28.59.38.92-.05-.8.21-.11.59-.25,1,.58-.25,0,.27.57.23a9.46,9.46,0,0,1,1.94-.57c.85.28,2.08-.16,2.8-.23.4.15.18.6.6.64s-.4-.43.34-.3l-.06.09c.21-.11,1.36.17,1.51-.45l-.19.48c.14,0,.26-.09.36-.15,0,.15.19.27,0,.39.47.27.94-.14,1.42-.2l-.33-.24a13.71,13.71,0,0,1,2.18-.24v.26l.47-.21c-.09.27.36.39.59.15l-1.18.77c-.36-.12.34-.35.11-.6a.85.85,0,0,0-1,.21c.29,0,.3-.06.51-.18.13.36-.3.39-.5.65.15,0,.38.06.4-.06a1.88,1.88,0,0,1-1.06.31c.31-.17-.21-.2-.09-.32,0,.32-.47.47-1.07.43-.47-.34-1.12.34-1.83.3a2.45,2.45,0,0,1,1-.82c-.45-.13-.49,0-1-.08-.19.27-.31.65-.87.85l0-.25c-.5.17-.48.52-1.15.51-1.14,0-2.31.06-3.18.08l0-.24c-.44.55-1.6.3-2.23.57-1.12-.17-2.4.35-3,0a33.32,33.32,0,0,1-5.68.48l.34-.37c-.36.27-.25-.19-.6-.13.41.28-.48.38-.73.6a5.3,5.3,0,0,0-2.86.3l0-.24c-.81.47-1.79.07-2.79,0a.78.78,0,0,0-.6-.31,4.26,4.26,0,0,1-1.64.59,9.18,9.18,0,0,1-2.13-.29c-2.22.49-4.46.05-6.77.25l-.15-.3c-2.26.51-5-.29-6.88-.11l.23-.47c-.58-.19-1.37,0-1.24.37-.58-.2-1.5.1-1.85-.35-.6-.15-.76.16-1.27.17a10.19,10.19,0,0,0-2.81-.34l.28.06c.14-.1.17-.3-.1-.36-.44.08-1.56-.32-1.2.31-1.18-.48-2.88-.07-4-.66.08.17-.22.16-.36.26a11.79,11.79,0,0,0-3-.48c-.16-.11.31-.23-.13-.31-.27,0,0,.2-.36.25-1.78.05-3.46-.8-5-1a72.2,72.2,0,0,1-8.38-1.25l0-.12c-1,.28-2-.83-2.84-.3-.18-.15-.79-.22-.6-.41-.77.16-1.92-.71-3-.53l.27,0c-1-.46-2-.32-3-.78.12,0,.34,0,.39-.13-.37-.31-1.1.25-1.2-.34-.25-.06-.24.23-.09.25a68.57,68.57,0,0,0-7.42-1.52c-1.67-.78.14-.95-1.36-.9-.08-.13-.13.19-.12.08-.58,0-.68-.83-1.13-.64.07.38-.29.12-.35.33-1-.49-1.15-.86-2.06-.83l.11-.16c-1.12.24-2.19-.34-3.18,0-5.48-1.35-10.75-2.47-16.06-3.71-5.21-1.42-10.38-2.24-15.67-3.42a3.86,3.86,0,0,0-2.69-.67c.06-.06.16-.06.07-.15-.12.38-1-.1-1.16.25-2-.33-3.82-.35-5.85-.56.33,0,.52-.31.12-.33l-.41.22-.06-.11c-.27,0-.57.22-.3.35-5.12.12-10.18-.8-15.2-.11a15.14,15.14,0,0,0-4.16.56A32.58,32.58,0,0,0,532,261.14C532,261.19,532.18,260.09,533.73,259.48Z"/><path class="cls-8" d="M885,285.74s165,150-603,96c-244.79-17.21-282-144-282-144l7,285,751-9c167,0,210-70,215.77-101C964,364.74,950,336.26,885,285.74Z"/><path class="cls-2" d="M669.88,414.63s-3-48.35,6-89.21c11-50.3,25.83-86.27,25.83-86.27"/><path class="cls-3" d="M730.81,413.11a55.73,55.73,0,0,0,3.82-6.64c8.75-18,29.64-64.72,29.64-64.72A233.56,233.56,0,0,0,743.1,366C738,372.7,724.82,400,718.56,413.16Q724.56,413.1,730.81,413.11Z"/><path class="cls-3" d="M654.21,418.16c8.87-1.28,18.37-2.4,28.51-3.24a241.5,241.5,0,0,1,2.93-73.34,457.83,457.83,0,0,1,16.72-59.85,209.68,209.68,0,0,0-23.49,55.67c-6.3,24.9-8.28,73.8-8.28,73.8s-5.55-5.41-6.21-30.34,5.18-88.47,5.18-88.47-10.42,36-13.13,67.33C654.5,381.91,654.23,410.41,654.21,418.16Z"/><path class="cls-3" d="M717.13,413.21c2.41-9.07,6.56-25.33,9.54-40.89,4.47-23.24,24.65-78.33,24.65-78.33S737.91,309.64,728,336.47c-7.09,19.16-27.74,72.91-27.74,72.91s9.92-57.5,17.23-84.52,29.65-76.34,29.65-76.34S725.22,276.77,712.69,309c-9.43,24.22-29.49,104.06-30,106C693.49,414,705,413.42,717.13,413.21Z"/><path class="cls-5" d="M685.92,273.45c.42-1.19,7.27-23.86,8.89-27.18,2.32-4.73,7.61-2.33,6.4,2.15-.9,3.32-7.09,24-8.58,27.92C690.7,281.4,683.66,280,685.92,273.45Z"/><path class="cls-9" d="M442.67,278.67c-4.15-34.3-20.75-110.08-101.87-95-72.59,13.54-86.8,53.6-86.8,89.46a45.63,45.63,0,0,0,.34,5.5Z"/><path class="cls-10" d="M467,278.67c-3.87-31-22.12-67.86-88.21-63.74-48.1,3-87.34,26.31-87.34,58.75a41.1,41.1,0,0,0,.32,5H467Z"/></g></g></svg>