<svg xmlns="http://www.w3.org/2000/svg" viewBox="0 0 185 356.14"><defs><style>.cls-1{fill:#3f3c29;fill-opacity:0.38;}.cls-2{fill:#814114;}.cls-3{fill:#a85318;}.cls-4{fill:#f39200;}.cls-5{fill:#fff;}.cls-6{fill:#fbba00;}.cls-7{fill:#e30613;}.cls-8{fill:#f0eedf;}.cls-11,.cls-12,.cls-9{fill:none;stroke:#dad8cc;stroke-linecap:round;}.cls-9{stroke-width:0.25px;}.cls-10{fill:#c4c0b4;}.cls-11{stroke-width:0.26px;}.cls-12{stroke-width:0.9px;}</style></defs><title>pajaro</title><g id="Layer_2" data-name="Layer 2"><g id="Layer_1-2" data-name="Layer 1"><path class="cls-1" d="M41.31,123c1.9-.12-1-.63,1.24-.25A1,1,0,0,1,41.31,123Z"/><path class="cls-1" d="M39,123.07c-.41-.4-1.72-.67-.66-1.17C38.48,122.29,39.16,122.72,39,123.07Z"/><path class="cls-1" d="M39.53,113.65c-.89.27-.65-.3-.8-.35C39.55,113.22,38.45,113.75,39.53,113.65Z"/><path class="cls-1" d="M117.24,120.77c1.89-.12-1-.55,1.24-.22A1.1,1.1,0,0,1,117.24,120.77Z"/><path class="cls-1" d="M115,120.82c-.4-.35-1.72-.58-.65-1C114.42,120.14,115.09,120.51,115,120.82Z"/><path class="cls-1" d="M80,115.42c-.06.1-.5-.18-.61-.24.44,0,.87-.26,1.2-.06C80.11,115.12,80.17,115.29,80,115.42Z"/><path class="cls-1" d="M71,114.6c.16-.3,2.09-.41,3.23-.38Z"/><path class="cls-1" d="M62.72,112.72c-.71-.32-.5-.45.47-.37C63.25,112.53,62.92,112.59,62.72,112.72Z"/><path class="cls-1" d="M62.07,113.38a2.49,2.49,0,0,1-1.36-.45C60.72,113.2,62.35,112.89,62.07,113.38Z"/><path class="cls-1" d="M43.92,111.24c-.46,0-1.27.21-1.72-.16C42.66,111.35,44.22,110.8,43.92,111.24Z"/><path class="cls-1" d="M35.46,111.19a1.66,1.66,0,0,0-.71,0c-.5-.18,0-.37.47-.37Z"/><path class="cls-1" d="M77.39,110l-.92.1.14-.29Z"/><path class="cls-1" d="M115.73,112.29c-.89.28-.65-.23-.8-.27C115.74,111.93,114.66,112.42,115.73,112.29Z"/><path class="cls-1" d="M79.54,115.49h.29l-.1.63Z"/><path class="cls-2" d="M102.69,356.14,91,355.28l9.59-221.14,13.41.75Z"/><path class="cls-3" d="M28.36,144.11l-5.87,5.23,155.25,70.48,4.24-7.39,3-60.49Z"/><path class="cls-4" d="M22.51,149.34,20,212.56l157.74,7.26,2-62.08Z"/><path class="cls-5" d="M77.13,177.2a.18.18,0,0,1-.19-.2l.61-12.83a.19.19,0,0,1,.2-.19l4.71.22c2.54.12,4.12,1.76,4,4.14s-1.83,3.88-4.39,3.76L79,172c-.08,0-.12,0-.12.1l-.24,5a.19.19,0,0,1-.2.19Zm7.63-8.94a2.28,2.28,0,0,0-2.47-2.46l-3-.14c-.08,0-.13,0-.13.11l-.2,4.44c0,.08,0,.13.11.13l3,.14C83.7,170.55,84.7,169.7,84.76,168.26Z"/><path class="cls-5" d="M89.06,164.71a.18.18,0,0,1,.2-.18l1.34.06a.19.19,0,0,1,.19.2l-.53,11.29c0,.08,0,.13.11.13l6.3.29a.2.2,0,0,1,.19.21l-.06,1.22a.19.19,0,0,1-.2.19l-8-.37a.19.19,0,0,1-.19-.2Z"/><path class="cls-5" d="M102.94,165.35a.25.25,0,0,1,.25-.19l1.26.07a.28.28,0,0,1,.25.2l3.92,13c0,.13,0,.19-.14.19l-1.35-.06a.23.23,0,0,1-.25-.21l-.87-2.92-5.35-.25-1.13,2.83c-.07.14-.14.19-.27.19l-1.35-.07c-.11,0-.18-.07-.13-.2Zm2.57,8.51-1.79-6.11h0l-2.38,5.9Z"/><path class="cls-5" d="M112.39,178.85a.19.19,0,0,1-.19-.2l.25-5.22-3.55-7.78c0-.13,0-.22.17-.21l1.39.07a.3.3,0,0,1,.28.2l2.69,5.79h0l3.21-5.51a.27.27,0,0,1,.28-.19l1.34.07c.15,0,.18.1.15.21l-4.26,7.42-.25,5.21a.19.19,0,0,1-.21.19Z"/><path class="cls-5" d="M122.68,166.29a.26.26,0,0,1,.25-.19l1.27.06a.23.23,0,0,1,.23.2l3.92,13.06c0,.12,0,.18-.14.18l-1.37-.06a.23.23,0,0,1-.25-.2l-.87-2.93-5.34-.25L119.23,179c-.07.15-.14.19-.27.19l-1.35-.06c-.13,0-.17-.08-.13-.2Zm2.56,8.5-1.79-6.11h0L121,174.6Z"/><path class="cls-5" d="M46.38,183.48a.23.23,0,0,1,.25-.22l9.55.45a.22.22,0,0,1,.22.25l-.06,1.47a.23.23,0,0,1-.25.22l-7.57-.36c-.1,0-.14,0-.14.14l-.22,4.65c0,.1,0,.14.14.16l6.42.3a.21.21,0,0,1,.21.25l-.06,1.47a.21.21,0,0,1-.25.22l-6.41-.29c-.1,0-.14,0-.14.14l-.24,4.82c0,.1,0,.15.14.15l7.56.35a.21.21,0,0,1,.21.25l-.06,1.47a.22.22,0,0,1-.25.22l-9.54-.46a.21.21,0,0,1-.22-.25Z"/><path class="cls-5" d="M59.51,184.09a.21.21,0,0,1,.25-.22l1.61.08a.22.22,0,0,1,.22.25L61,197.75c0,.09,0,.14.14.14l7.57.35c.14,0,.21.11.21.25L68.81,200a.22.22,0,0,1-.25.22L59,199.73c-.15,0-.24-.11-.22-.25Z"/><path class="cls-5" d="M77.94,198.9a.24.24,0,0,1,0-.36L79,197.37a.2.2,0,0,1,.32,0,7.3,7.3,0,0,0,4.37,1.84c2.19.11,3.55-.93,3.62-2.54.07-1.35-.65-2.3-3.19-2.74l-.79-.16c-3.07-.56-4.58-2.11-4.47-4.6.14-2.82,2.24-4.55,5.4-4.4a8.56,8.56,0,0,1,4.77,1.7.22.22,0,0,1,0,.33L88.23,188a.23.23,0,0,1-.32,0,7.06,7.06,0,0,0-3.77-1.38c-1.93-.09-3.06.91-3.13,2.43-.07,1.33.77,2.26,3.22,2.7L85,192c3.09.57,4.58,2.06,4.46,4.66-.13,2.77-2.18,4.69-6,4.52A8.87,8.87,0,0,1,77.94,198.9Z"/><path class="cls-5" d="M97.09,185.85c.07-.14.13-.22.3-.22l1.51.06a.33.33,0,0,1,.3.25l4.72,15.65c0,.14,0,.24-.18.24l-1.63-.08a.3.3,0,0,1-.3-.25l-1-3.5-6.42-.3L93,201.1c-.08.15-.17.23-.31.21L91,201.24c-.14,0-.2-.11-.16-.25Zm3.07,10.22L98,188.74h0l-2.86,7.09Z"/><path class="cls-5" d="M106.21,196.41l.46-10.11a.23.23,0,0,1,.25-.22l1.61.08a.23.23,0,0,1,.22.25l-.47,10.08c-.13,2.56,1.25,3.94,3.36,4s3.58-1.14,3.71-3.71l.47-10.07a.21.21,0,0,1,.25-.22l1.6.08a.21.21,0,0,1,.22.24L117.41,197c-.18,3.74-2.39,5.69-5.88,5.53S106,200.15,106.21,196.41Z"/><path class="cls-5" d="M120.4,202.62a.21.21,0,0,1-.22-.25l.06-1.46a.35.35,0,0,1,.11-.25l8.32-11.59v0l-7.32-.34a.24.24,0,0,1-.24-.25l.08-1.47a.21.21,0,0,1,.25-.21l9.47.45a.22.22,0,0,1,.22.25l-.07,1.46a.38.38,0,0,1-.1.25l-8.34,11.59h0l7.63.36a.23.23,0,0,1,.24.25l-.08,1.47a.21.21,0,0,1-.25.21Z"/><path class="cls-5" d="M138.32,187.79c.07-.14.13-.23.3-.21l1.51.06a.32.32,0,0,1,.3.25l4.72,15.65a.17.17,0,0,1-.18.23l-1.63-.07a.3.3,0,0,1-.3-.25L142,199.94l-6.41-.29L134.2,203c-.08.16-.17.24-.31.22l-1.64-.08a.16.16,0,0,1-.16-.23ZM141.41,198l-2.17-7.32h0l-2.87,7.08Z"/><path class="cls-5" d="M148.38,188.26a.23.23,0,0,1,.25-.22l1.61.08a.22.22,0,0,1,.22.25l-.64,13.55c0,.09,0,.14.14.14l7.55.36a.22.22,0,0,1,.22.25l-.06,1.46c0,.14-.11.24-.25.22l-9.55-.45a.22.22,0,0,1-.22-.25Z"/><path class="cls-6" d="M85.08,128.51c-1,6.63,1,14.87,1.77,21.56.12,1-1.52,1-1.63,0-.75-6.82-3-15.23-1.72-22C83.69,127,85.22,127.52,85.08,128.51Z"/><path class="cls-6" d="M83.36,141.65c-.71,1.25-1.43,2.51-2.16,3.75-.51.86-2.23,3.27-2.34,3.63-.23.71,0,1.87,1,1.22a6.76,6.76,0,0,0,1.6-2.17c1.14-1.85,2.22-3.72,3.29-5.63A.81.81,0,0,0,83.36,141.65Z"/><path class="cls-6" d="M84.2,141.07a41.09,41.09,0,0,0-7.49,3c-.9.42-.51,2,.4,1.54a41.28,41.28,0,0,1,7.48-3C85.54,142.32,85.13,140.78,84.2,141.07Z"/><path class="cls-6" d="M69.81,127.13a88.35,88.35,0,0,0,.46,14.64c.12,1,1.72.71,1.6-.33a87.57,87.57,0,0,1-.43-14.21A.82.82,0,0,0,69.81,127.13Z"/><path class="cls-6" d="M70.2,140.06c-1.33.45-6.45,1.6-7.16,2-1.07.64-1,1.89,0,1.76a16.85,16.85,0,0,0,2.8-.69c1.66-.45,3.29-1,4.92-1.56A.81.81,0,0,0,70.2,140.06Z"/><path class="cls-6" d="M70.21,140.75c-1.14,1.73-5,5.51-5.45,6.06a1.41,1.41,0,0,0-.14.18.82.82,0,0,0,1.22,1,28.46,28.46,0,0,0,5.75-6.39A.82.82,0,0,0,70.21,140.75Z"/><path class="cls-6" d="M70.46,142c0,1.2.2,6,.39,7.48.13,1,1.76,1,1.63-.06-.2-1.63-.12-7-.91-8.62C71.11,139.86,70.27,140.79,70.46,142Z"/><path class="cls-7" d="M21.46,44c4.79,6.54,8.38,8,5.33,16.67C32.45,65,30.6,83.2,32.34,90.17c2.61,9.15,5.65,19.6,13,26.14,1.32,1.3,10.88,8.71,11.76,8.27,3.5-.44,3.05-10,3.5-12.63.86-10.88-.44-21.78.43-32.67C62,65.77,80.83,50.53,59.84,37.42,60,32.5,64.12,27.74,70,24.82c-7.76-.1-13.59,4.63-17.57,9.22,2.61-9.58,10.89-14.88,20-18.35C62,13.94,49.77,21.79,44.54,30.92,50.2,14.37,66.32,10.9,77.64,0c-12.19,7-24.81,10.45-34,21.34-4.36,4.79-6.11,10.88-11.33,14.81-2.18,1.74-12.48,7-11.18,8.34"/><path class="cls-8" d="M68.78,46.7c2.79,5.39,7.1,24.93,9.3,28.94,8.71,16.55,25.26,25.26,37,39.2-9.58,5.65-15.69,10.44-27.45,13-8.71,1.75-17.41.87-26.13-1.31-17-3.92-26.13-33.1-18.73-48.34,2.18-4.36,7-6.1,9.58-10S55,59.08,57.59,55.17C59.51,52.12,68.34,45.85,68.78,46.7Z"/><path class="cls-5" d="M57.6,55.18c1.91-3,10.74-9.33,11.19-8.48Z"/><path class="cls-9" d="M106.59,120a59.14,59.14,0,0,1-18.93,7.89c-8.72,1.74-17.42.86-26.13-1.31a20,20,0,0,1-8.73-4.67"/><path class="cls-9" d="M68.78,46.7c1.4,2.69,3.18,8.93,4.88,15"/><path class="cls-10" d="M74.44,63.78c-6.53,2.61-6.81,21.44-5.51,28,3,10.45,15.08,16.77,23.74,21.67,8.24,4.68,15.88,7.51,25,10.55,12.63,4.79,29.18,7,42.68,7-7.83-5.22-17-8.71-24.38-14.8-7.41-6.54-35.27-31.36-42.24-38.33C87.21,70.85,82.28,68.14,74.44,63.78Z"/><path class="cls-6" d="M21.46,43C14.2,47.52,8.27,50.26,0,55.92c11.33,1.74,16.75,4.47,28.08,6.2C29,56.46,26.67,39.74,21.46,43Z"/><path class="cls-5" d="M41.7,40.69c-3.85-1.09-10.07,3.11-8.51,8.52s8.28,7,11.24,1.93C47.91,45.09,44.24,41.42,41.7,40.69Z"/><path d="M37.23,48.47a1.31,1.31,0,0,0,0-2.61A1.31,1.31,0,0,0,37.23,48.47Z"/><path class="cls-11" d="M68.57,46.84c1.66,3.2,3.84,9.76,5.8,16.74"/><path class="cls-12" d="M77.56,85.25A14.79,14.79,0,0,0,83.13,91"/><path class="cls-12" d="M93,94.46a21.16,21.16,0,0,0,6.52,5"/><path class="cls-12" d="M77.7,73.88c1.65,2.64,2.79,4.86,5.41,6.84"/><path class="cls-12" d="M106.11,96.25a19.71,19.71,0,0,0,6.25,5.48"/><path class="cls-12" d="M84.05,99a27.44,27.44,0,0,0,7.3,6.58"/><path class="cls-12" d="M91.35,84.85a15.37,15.37,0,0,0,4.86,4.93"/><path class="cls-12" d="M115.88,118.6a15.25,15.25,0,0,0,6.86,1"/><path class="cls-12" d="M108.14,107a15.9,15.9,0,0,0,6.49,3.75"/><path class="cls-12" d="M99.49,109.87c2.48,2,4.58,3.15,8.89,4.08"/><path class="cls-12" d="M130.1,120.94a36.11,36.11,0,0,0,7.74,2.36"/><path class="cls-12" d="M120.61,109.87a36.1,36.1,0,0,0,6.34,5"/></g></g></svg>