<svg xmlns="http://www.w3.org/2000/svg" xmlns:xlink="http://www.w3.org/1999/xlink" viewBox="0 0 106.74 109.53"><defs><style>.cls-1{fill:#7dc327;}.cls-2{fill:#96ce17;}.cls-3{mask:url(#mask);}.cls-4{fill:red;}.cls-5{fill:#fff;}.cls-6{fill:#ffe610;}.cls-7{mask:url(#mask-2);}.cls-8{fill:#fd0706;}.cls-9{fill:none;stroke:#000;stroke-linecap:round;stroke-width:0.67px;}.cls-10{mask:url(#mask-3);}</style><mask id="mask" x="65.18" y="53.78" width="38.57" height="36.24" maskUnits="userSpaceOnUse"><g id="mask0"><path class="cls-1" d="M69.06,53.78s9.52,18.14,13.3,20.85c3.07,2.2,4.4,1.05,4.4,1.05s8.84-3,7.57-1S87.22,78,87.22,78s10.49.5,9.07,1.8-10.12,1.43-10.12,1.43,11.06,3,8.48,3.55C91,85.55,81.71,84.1,80.39,82S68.75,65.31,65.93,62.07,69.06,53.78,69.06,53.78Z"/></g></mask><mask id="mask-2" x="52.56" y="58.82" width="36.05" height="40.24" maskUnits="userSpaceOnUse"><g id="mask1"><path class="cls-1" d="M59.16,58.82S65.87,79.74,69,83.14c2.56,2.77,4.09,1.92,4.09,1.92s9.26-1.14,7.62.57-7.62,1.74-7.62,1.74S83.31,90,81.67,90.94s-10.22-.62-10.22-.62,10.26,5.12,7.6,5.17c-3.69.09-12.54-3.2-13.42-5.49S55.15,67.68,53,63.94C50.44,59.59,59.16,58.82,59.16,58.82Z"/></g></mask><mask id="mask-3" x="6.39" y="63.84" width="58.36" height="45.68" maskUnits="userSpaceOnUse"><g id="mask2"><path class="cls-2" d="M19.8,72.19c6.94-3.3,21.74-13.14,27.45-5.52S36.82,93.05,36.82,93.05s26.94.3,25.41,2.1-13.42.63-13.42.63,14.49,2.71,14.09,4.35-14.84-2-14.84-2,11.47,6.41,10.26,7.68S46.9,102.3,38.75,99.54s-13.57,1-13-2.48,9.9-13.29,9.9-13.29S21.25,92.07,14.14,92C-3.39,92,13.42,75.22,19.8,72.19Z"/></g></mask></defs><title>rana</title><g id="Layer_2" data-name="Layer 2"><g id="Layer_1-2" data-name="Layer 1"><path class="cls-1" d="M86,9.76a9.45,9.45,0,1,1-18.89,0A9.45,9.45,0,1,1,86,9.76Z"/><path class="cls-1" d="M60.15,13.15c.66,6.1-4.36,10.06-9.72,10.06s-9.28-4.07-9.73-10.06c-.41-5.54,4.38-9.55,9.73-10C56.13,2.57,59.54,7.63,60.15,13.15Z"/><path class="cls-1" d="M69.06,53.78s9.52,18.14,13.3,20.85c3.07,2.2,4.4,1.05,4.4,1.05s8.84-3,7.57-1S87.22,78,87.22,78s10.49.5,9.07,1.8-10.12,1.43-10.12,1.43,11.06,3,8.48,3.55C91,85.55,81.71,84.1,80.39,82S68.75,65.31,65.93,62.07,69.06,53.78,69.06,53.78Z"/><g class="cls-3"><path class="cls-4" d="M86.05,73.13A28.82,28.82,0,0,1,87.22,78a17.22,17.22,0,0,1-1.37,4.47l-1.19,2.85s1.65,3.28,2.44,3.48,5,2.1,8,.85,7.75-3,8.54-6.81-1.79-10.54-1.79-10.54l-9.14-.81Z"/></g><path class="cls-5" d="M84.08,9.76a7.52,7.52,0,1,1-15,0,7.52,7.52,0,1,1,15,0Z"/><path class="cls-1" d="M54.59,7.38c19-2.78,52.24,15.81,52.15,26C106.6,48,79.91,47.42,79.91,47.42s-9.78,7.25-14,14.65c-13,15.12-46,30.37-58.06,28.45-7.94-1.26-9.65-7.43-6.12-30.93C5.39,35.35,33.48,25.16,33.48,25.16A25.35,25.35,0,0,1,54.59,7.38Z"/><path class="cls-5" d="M57.94,13.15c.51,4.71-3.37,7.77-7.51,7.77s-7.16-3.15-7.51-7.77c-.32-4.28,3.38-7.38,7.51-7.76C54.84,5,57.47,8.89,57.94,13.15Z"/><path d="M51.84,13.16a1.35,1.35,0,0,1-1.43,1.47,1.47,1.47,0,0,1,0-2.94C51.26,11.61,51.76,12.35,51.84,13.16Z"/><path d="M79.56,8.28a1.19,1.19,0,0,1-1.27,1.31,1.31,1.31,0,0,1,0-2.62C79,6.9,79.48,7.56,79.56,8.28Z"/><path class="cls-6" d="M79.91,47.42s-8.09.55-20.8-6.59C34.32,77.16,10,83.7,7.87,90.53c-.26.8,31.35-4,49.69-19.82C65.15,64.17,79.91,47.42,79.91,47.42Z"/><path d="M98.85,33.6a.88.88,0,1,1-.88-.88A.87.87,0,0,1,98.85,33.6Z"/><path d="M104,32.17a1,1,0,1,1-1-1A1,1,0,0,1,104,32.17Z"/><path class="cls-1" d="M59.16,58.82S65.87,79.74,69,83.14c2.56,2.77,4.09,1.92,4.09,1.92s9.26-1.14,7.62.57-7.62,1.74-7.62,1.74S83.31,90,81.67,90.94s-10.22-.62-10.22-.62,10.26,5.12,7.6,5.17c-3.69.09-12.54-3.2-13.42-5.49S55.15,67.68,53,63.94C50.44,59.59,59.16,58.82,59.16,58.82Z"/><g class="cls-7"><path class="cls-4" d="M72.33,81.17a29.26,29.26,0,0,1,.33,5,17.63,17.63,0,0,1-2.12,4.17l-1.66,2.6s1.06,3.52,1.81,3.85,4.54,2.92,7.69,2.19,8.15-1.66,9.58-5.25S88,83,88,83l-8.87-2.36Z"/></g><path class="cls-8" d="M93.39,73.71a1.52,1.52,0,1,0,1.52-1.52A1.52,1.52,0,0,0,93.39,73.71Z"/><path class="cls-8" d="M95.36,79.54A1.52,1.52,0,1,0,96.88,78,1.51,1.51,0,0,0,95.36,79.54Z"/><path class="cls-8" d="M93.85,84.69a1.52,1.52,0,1,0,1.51-1.51A1.51,1.51,0,0,0,93.85,84.69Z"/><path class="cls-8" d="M79.74,85a1.52,1.52,0,1,0,1.52-1.52A1.52,1.52,0,0,0,79.74,85Z"/><path class="cls-8" d="M80.33,90.53A1.52,1.52,0,1,0,81.85,89,1.52,1.52,0,0,0,80.33,90.53Z"/><path class="cls-8" d="M77.62,95.21a1.52,1.52,0,1,0,1.51-1.52A1.52,1.52,0,0,0,77.62,95.21Z"/><path class="cls-9" d="M79.91,46.94C58.2,46.94,58.2,36.41,58.2,36.41"/><path class="cls-2" d="M19.8,72.19c6.94-3.3,21.74-13.14,27.45-5.52S36.82,93.05,36.82,93.05s26.94.3,25.41,2.1-13.42.63-13.42.63,14.49,2.71,14.09,4.35-14.84-2-14.84-2,11.47,6.41,10.26,7.68S46.9,102.3,38.75,99.54s-13.57,1-13-2.48,9.9-13.29,9.9-13.29S21.25,92.07,14.14,92C-3.39,92,13.42,75.22,19.8,72.19Z"/><g class="cls-10"><path class="cls-4" d="M49.1,91.27s.18,3.37-.3,4.51a23.28,23.28,0,0,1-2.24,4.44l-1.86,2.45s.76,3.6,1.48,4,4.28,3.28,7.48,2.82,8.27-1,10-4.45.91-10.64.91-10.64l-8.64-3.08Z"/></g><path class="cls-8" d="M60.61,95a1.52,1.52,0,1,0,1.63-1.39A1.51,1.51,0,0,0,60.61,95Z"/><path class="cls-8" d="M61.05,99.7a1.52,1.52,0,1,0,1.64-1.39A1.51,1.51,0,0,0,61.05,99.7Z"/><path class="cls-8" d="M56.69,105.67a1.52,1.52,0,1,0,1.63-1.39A1.51,1.51,0,0,0,56.69,105.67Z"/><path class="cls-4" d="M18.43,65.07a3,3,0,1,0-2,3.78A3,3,0,0,0,18.43,65.07Z"/><path class="cls-4" d="M7.64,69.93A1.74,1.74,0,1,0,6.47,72.1,1.74,1.74,0,0,0,7.64,69.93Z"/><path class="cls-4" d="M28.69,56.56A1.34,1.34,0,0,0,27,55.67a1.33,1.33,0,0,0,.77,2.55A1.34,1.34,0,0,0,28.69,56.56Z"/><path class="cls-4" d="M12.61,73.77a1.33,1.33,0,1,0-.89,1.66A1.33,1.33,0,0,0,12.61,73.77Z"/><path class="cls-4" d="M5.91,62A2.45,2.45,0,1,0,7.55,59,2.45,2.45,0,0,0,5.91,62Z"/><path class="cls-4" d="M19.94,49.48a2.45,2.45,0,1,0,2.21-2.67A2.45,2.45,0,0,0,19.94,49.48Z"/><path class="cls-4" d="M9.89,52.63a2.94,2.94,0,1,0,2.65-3.19A2.93,2.93,0,0,0,9.89,52.63Z"/><path class="cls-4" d="M21.29,58a1.74,1.74,0,1,0-1.16,2.17A1.74,1.74,0,0,0,21.29,58Z"/></g></g></svg>