<svg xmlns="http://www.w3.org/2000/svg" viewBox="0 0 184 222.66"><defs><style>.cls-1{fill:#f3a5c2;}.cls-2{fill:#e2e1d7;}.cls-3,.cls-4{fill:none;stroke-linecap:round;}.cls-3{stroke:#dad8cc;stroke-width:0.25px;}.cls-4{stroke:#000;stroke-miterlimit:10;stroke-width:0.6px;}.cls-5{fill:#fff;}</style></defs><title>tero</title><g id="Layer_2" data-name="Layer 2"><g id="Layer_1-2" data-name="Layer 1"><path class="cls-1" d="M70.86,140.42a91.07,91.07,0,0,0-3.56,14.32c-1,7.36-3.59,16.35-3.07,23.7.69,8.91,2.87,10.15,6.29,18.19.85,1.89,3.41,6.09,4.43,7.8,1.37,2.39,1.4,4.32,4.13,4.49,2.91,0,15.6,0,18,1.08a1.83,1.83,0,0,1,.86.86c-3.78.95-12.54-.15-16.45,0,2.87,1.91,10.13,3.92,12.52,8-2.39.34-6.08-1.91-8.31-2.94-2.56-1-5-3.06-7.6-3.92,1.55,3.25,6.32,6.67,6.15,10.61-6.8-4.85-12.81-19-14.87-22.59-2.06-3.42-4.6-10.42-6.15-13.84-1.7-3.76-5.29-3.14-3.07-7.6,1.71-3.24,2-9.07,2.25-12.89.55-7.27,1.34-13,1.85-20.23.12-1.91.24-3.82.47-5.71.1-.84,5.18,1.24,5.34.42"/><path class="cls-1" d="M87.57,137.05c1,12.84,7.5,33.19,8.33,36.07,2,6.8,4.22,13.71,8.16,19.7,2,3.07,3.79,6.17,4.89,6.66a43.45,43.45,0,0,0,11.47,2.5c1.72.17,8.93.87,9.28,3.09-2,.86-5.93-.74-8.14-.91-3.08-.34-5.6-1-8.76-1.36,2.47,2.15,11.61,4.71,12.45,9.16-4.26-1.05-11.11-5.82-14.7-8.38.86,3.42,7.4,8.11,6.32,11.55-1.51-1.71-4.19-3.72-6.46-6.6A28.82,28.82,0,0,1,106,200c-2.75-3.08-6-8.87-8.06-12.63-1.72-3.25-1.56-6.16-3.79-9.06-1-1.38-2.36-1.26-3.06-2.77-.62-1.32.07-2.27.41-4.14.52-3.08-1.94-8.87-3-11.78-2.56-7-3.78-11.91-5.84-19.1-.51-1.89-1.51-2.8-1.85-4.69,1.89-.51,4.26,1.89,6,2.74"/><path class="cls-2" d="M96.31,86C94.47,77.87,72.63,14,79.67,8.18a16.3,16.3,0,0,1,6.9-3.45c13.36-2.89,34.59,3.93,39,17.31a2.62,2.62,0,0,1,0,1c-.07.91-.36,2.08-.41,2.68-.23,3.09-.35,6.21-.47,9.3-.19,4.92-2.83,9.35-3.12,14.39a58.1,58.1,0,0,0,.29,9.16"/><path class="cls-2" d="M122,58.53c.41,3.77,1.1,7.48,1.8,11.23,1,5.56,2.13,12.11,2.06,17.72-.14,9.78-3.79,20.37-7.38,29.46-3.47,8.8-8.74,17.91-18,21.54-12.06,4.73-29.08,9.18-41.92,7.34-9.46-1.5-18.93-3.46-28.17-5.23l-1.44-.27c-4.72-.79-14.67-3.41-19.13-4.73C7.38,134.89.67,135,0,132.12c2.46-.24,5-.67,7.45-1.07,7.65-1.18,12.2-5.57,18.67-9.52,2.58-1.58,5.1-2.44,7.51-4.4C44.29,108.5,54.8,98.41,68.75,95.71,75.56,94.4,80.27,93.1,86,89.16"/><path class="cls-3" d="M124.8,35c-.19,4.92-2.83,9.35-3.12,14.39a54.71,54.71,0,0,0,.29,9.16"/><path class="cls-3" d="M79.43,8.39a16.39,16.39,0,0,1,7.14-3.66c13.36-2.89,34.59,3.93,39,17.31a2.22,2.22,0,0,1,.07.77"/><path class="cls-3" d="M69.18,95.64c5-1,8.34-1.77,12.38-3.81"/><path class="cls-3" d="M122,58.53c.41,3.77,1.1,7.48,1.8,11.23,1,5.56,2.13,12.11,2.06,17.72-.14,9.78-3.79,20.37-7.38,29.46-3.47,8.8-8.74,17.91-18,21.54-12.06,4.73-29.08,9.18-41.92,7.34-9.53-1.51-19.05-3.49-28.34-5.26"/><path d="M80.25,9.59C78,6,71.7,1,67.79,0c1.42,1.12,6.37,6.08,7.67,9.23a17.71,17.71,0,0,0-9.6-2.77c7.08,2.36,8.9,6.17,12.3,12.74.53-1.84,4.41-1.63,4.69-3C83.1,14.68,81.37,11.35,80.25,9.59Z"/><path d="M81.56,91.83a39.51,39.51,0,0,0,4.5-2.65c8.12-5.5,2.88-11,.51-18.62a148.2,148.2,0,0,0-8.12-20.2c-2.89-5.5-5.75-10.48-7.08-16.77-1.37-6.1,0-14,3.76-20,1.52,2.94,11.29,1.19,17.35,2.51,2,.45,1,4.33,2.61,4.71,3.76.88,8.83,4.27,6.42,4.66C91.62,27,87.74,31.68,87.4,36.34c-1.33,18,40.92,41.05,30.09,61.26C110.65,109.79,92.86,100.06,81.56,91.83Z"/><path d="M102.73,30.67c-6,1.16-10.42-3.15-10.9-9.35-.55-7,4.07-9.84,8.94-9.43C110.94,12.77,116.15,28,102.73,30.67Z"/><path class="cls-4" d="M114.62,39.61c2.63,4.72-4.45,8.12-6.29,1.3"/><path d="M0,132.12c2.45-.24,5-.67,7.45-1.07,7.64-1.18,12.19-5.57,18.65-9.52,2.58-1.58,5.1-2.44,7.51-4.4,10.66-8.63,21.15-18.72,35.12-21.42l.41-.08a25.22,25.22,0,0,1,2.21,2.18c3.94,3.93,9.69,9.43,9.43,15.73-.26,6.56-6,9.69-11.26,12.86-11.15,6.94-26.49,12-39.64,14.07-.31-.05-.65-.12-1-.19-4.73-.79-14.67-3.4-19.13-4.72C7.42,134.89.7,135,0,132.12Z"/><path d="M140.76,38.85c-3.23-.76-6.48-1.5-9.72-2.17-1.53-.31-3-.62-4.57-.91a2.82,2.82,0,0,1-2.61-2.1,11.9,11.9,0,0,1-.9-3.54,9.21,9.21,0,0,1,1.09-5c.25-.5.84-1.86,1.39-2.07s1.34.49,1.89.76c2.37,1.19,4.75,2.32,7.16,3.44,5.25,2.41,10.58,4.67,15.92,6.91C161.64,38.83,173,43.25,184,48.6,171.14,45.33,157.4,42.75,140.76,38.85Z"/><path class="cls-5" d="M102.34,13.55c6.35,1.56,11.75,13.88-.43,15.74-4.62.71-8.83-3.47-8.74-9.08S97.77,12.43,102.34,13.55Z"/><path d="M104,22.17c-2.41.47-3.14-3.26-.74-3.73C105.05,18.08,106.37,21.69,104,22.17Z"/></g></g></svg>