<svg xmlns="http://www.w3.org/2000/svg" viewBox="0 0 589 87"><defs><style>.cls-1{fill:#ee1d23;}.cls-2{fill:#fff;}</style></defs><title>titulo</title><g id="Layer_2" data-name="Layer 2"><g id="Layer_1-2" data-name="Layer 1"><path class="cls-1" d="M81.72.68C172.62-1.57,501.88,2.14,555,6.4c51,4.09,41.29,81.14-6.64,80.6-76.74-.87-404-2.66-456.33-1.83C4.47,80.57-1.08,72.79.13,45.93,2.34-3.36,20.82,2.19,81.72.68Z"/><path class="cls-2" d="M20.18,56.58A37,37,0,0,1,20,50.32q.15-3.24.05-6.31c-.08-2-.18-3.89-.32-5.75s-.2-3.79-.18-5.74c0-2.11,0-4.06,0-5.9a36.78,36.78,0,0,0-.4-5.77A1.76,1.76,0,0,1,20,19.52,4.29,4.29,0,0,1,21.59,19a7.78,7.78,0,0,1,1.93,0,2.84,2.84,0,0,1,1.79.81c0,.08,0,.23,0,.45s0,.35,0,.42a18.62,18.62,0,0,1-.05,4.14,20.51,20.51,0,0,0-.15,4.08c0,.15,0,.69.07,1.66s.1,2.08.18,3.29.14,2.48.22,3.74.12,2.26.15,3c.1,1.74.17,3.45.19,5.1s.13,3.35.3,5.06c.1.69.42,1.09.89,1.18a6.87,6.87,0,0,0,1.61.13c.57,0,1.12,0,1.61,0s.77.35.84.92c0,1.16,0,2.1-.07,2.8a18.29,18.29,0,0,1-.25,1.93c-.1.57-.3.86-.54.86,0,.05-.1.05-.2.05H30l-4.26-.19a42.81,42.81,0,0,1-4.36-.25c-.47,0-.77-.17-.89-.42A3.3,3.3,0,0,1,20.18,56.58Z"/><path class="cls-2" d="M38.43,50.42a3.82,3.82,0,0,1-.07-.6c0-.24,0-.52,0-.76s0-.47-.05-.67a1.65,1.65,0,0,1,0-.42c0-.7-.07-1.59-.1-2.7S38,43.06,38,42s-.1-2-.12-2.87,0-1.31,0-1.41c0-1.09,0-2.28.07-3.56s.18-2.6.35-3.94a20,20,0,0,1,.89-3.86A12.52,12.52,0,0,1,40.83,23a8,8,0,0,1,2.65-2.4,8.87,8.87,0,0,1,3.89-1.09h1.09a15.86,15.86,0,0,1,2.95.7A10,10,0,0,1,54,21.42a8.85,8.85,0,0,1,2,1.88,7.7,7.7,0,0,1,1.29,2.63c0,.15.07.49.14,1.06s.08,1,.08,1.12,0,.72,0,1.29,0,.89,0,1c0,.37,0,1.17,0,2.38s0,2.55.08,4,.07,2.82.07,4.18,0,2.38,0,3c0,.92,0,2,0,3.15s0,2.4-.1,3.66a33.61,33.61,0,0,1-.49,3.76A11,11,0,0,1,56,57.82a7.46,7.46,0,0,1-2.13,2.43,6,6,0,0,1-3.31,1.06,11.89,11.89,0,0,1-3.3-.22A32.47,32.47,0,0,1,44,60.22a6.44,6.44,0,0,1-2.68-1.51,8.08,8.08,0,0,1-1.65-2.4,12.27,12.27,0,0,1-.92-2.9A19.23,19.23,0,0,1,38.43,50.42Zm7.23-.37a4.92,4.92,0,0,0,.67,2.05,1.84,1.84,0,0,0,1.88.79,1.87,1.87,0,0,0,1.32-.52,2.7,2.7,0,0,0,.61-1.13,6.77,6.77,0,0,0,.23-1.44c0-.52.05-1,.07-1.41v-.47a6.78,6.78,0,0,1,0-.77c0-.27,0-.52,0-.77V46c.1-1.86.17-3.54.17-5.1s0-3.24-.17-5.1c0-.22,0-.57-.05-1.07s-.07-1-.1-1.58-.07-1.09-.1-1.58a10,10,0,0,1-.05-1.07,3.92,3.92,0,0,0-.42-.89c-.2-.37-.42-.74-.64-1.09a4.69,4.69,0,0,0-.82-.89,1.38,1.38,0,0,0-.89-.37,1.49,1.49,0,0,0-1,.52,3.27,3.27,0,0,0-.64,1.11,6.7,6.7,0,0,0-.37,1.34c-.1.44-.15.82-.2,1.11a3.23,3.23,0,0,0-.1.55c0,.29-.07.62-.12,1s-.1.72-.17,1-.08.52-.08.59V36.7c0,.55,0,1.09,0,1.61s0,.94,0,1.21V40a.31.31,0,0,0,0,.17.47.47,0,0,1,0,.18v.22c0,.37.1,1,.2,1.91s.2,1.85.3,2.84.19,2,.27,2.87S45.64,49.68,45.66,50.05Z"/><path class="cls-2" d="M62.54,51a2,2,0,0,1,1.39-1.33,6.69,6.69,0,0,1,2.4-.18,25,25,0,0,1,3.1.52c1.14.25,2.33.5,3.56.72a3.21,3.21,0,0,0,1.34-.37,5.2,5.2,0,0,0,1.07-.84,8.9,8.9,0,0,0,.91-1.17c.3-.44.6-.86.92-1.31a.71.71,0,0,0,.1-.25c0-.12,0-.19,0-.24l-.23-3.22c-.07,0-.29-.23-.69-.55a11.27,11.27,0,0,1-.89-.77,1.88,1.88,0,0,0-.42-.29,1.1,1.1,0,0,0-.42-.2,29.32,29.32,0,0,0-3.57-1.31A20.85,20.85,0,0,1,68.07,39a8.91,8.91,0,0,1-2.63-1.85,10.21,10.21,0,0,1-2-3.35,3.43,3.43,0,0,0,0-.49c0-.22,0-.45-.07-.67a6.18,6.18,0,0,1-.08-.64,3.73,3.73,0,0,1,0-.4c0-.52-.08-1-.15-1.63a3.58,3.58,0,0,1,.2-1.64,2.53,2.53,0,0,0,.3-.82c.09-.37.24-.76.37-1.16s.27-.79.42-1.14l.25-.77v-.27a9.34,9.34,0,0,1,.59-.77c.17-.17.35-.37.52-.57s.3-.34.4-.47a14.84,14.84,0,0,1,3.56-3A11,11,0,0,1,74,18a9.83,9.83,0,0,1,2.08.17,18.11,18.11,0,0,1,2.73.67A10.65,10.65,0,0,1,81.19,20a2,2,0,0,1,1.09,1.49,6.93,6.93,0,0,1,0,1.31,11.86,11.86,0,0,1-.35,1.63,5.76,5.76,0,0,1-.64,1.44,1.27,1.27,0,0,1-1,.67,15.63,15.63,0,0,1-2.82,0,16.6,16.6,0,0,0-2.82,0,8.87,8.87,0,0,0-1.12.1c-.57.07-.94.1-1.11.1a2.82,2.82,0,0,1-.52.25,3.9,3.9,0,0,0-.72.34,5.16,5.16,0,0,0-.59.42.58.58,0,0,0-.25.45l.27,3.27c0,.17.13.34.35.52a8.61,8.61,0,0,0,.77.49,5.21,5.21,0,0,0,.84.45l.59.25c1.46.69,2.78,1.33,4,1.95a12.94,12.94,0,0,1,3.09,2.18,10.26,10.26,0,0,1,2.11,3,13,13,0,0,1,1,4.29,13.26,13.26,0,0,1-.29,4.4,11.78,11.78,0,0,1-1.69,3.89,9.58,9.58,0,0,1-7,4.21,19,19,0,0,1-3.92.05,12.23,12.23,0,0,1-3.68-.82,7.32,7.32,0,0,1-2.8-1.93A5.17,5.17,0,0,1,62.54,51Z"/><path class="cls-2" d="M127.27,59.31a2.36,2.36,0,0,1-.54-.35.93.93,0,0,1-.32-.52L125.09,46.9a.47.47,0,0,0-.19-.37c-.13-.1-.25-.15-.35-.1l-6.32.6,1,9.53a5.21,5.21,0,0,0,.5,1.61,5,5,0,0,1,.5,1.56c0,.22,0,.34,0,.39a1.37,1.37,0,0,1-.5.13,1.85,1.85,0,0,0-.3,0,.88.88,0,0,1-.24,0h-.7c-.29,0-.62,0-.94,0s-.62,0-.89,0a4.5,4.5,0,0,1-.52,0,4.59,4.59,0,0,1-1.58-.23,1.93,1.93,0,0,1-.92-.64,2.86,2.86,0,0,1-.47-1.06c-.1-.43-.17-.9-.25-1.44-.17-2-.32-4-.44-6s-.2-4-.28-6c0,0,0-.22,0-.59s0-.77-.08-1.26-.07-.94-.1-1.39-.07-.82-.09-1.06a17.4,17.4,0,0,1,.19-3.82c.2-1.16.42-2.42.67-3.81a2.51,2.51,0,0,1,.15-2c.3-.69.55-1.31.74-1.85a4.63,4.63,0,0,0,.15-.82,3.79,3.79,0,0,1,.2-.87s0-.1,0-.19.07-.13.1-.13a20,20,0,0,0,1-2.2,10.24,10.24,0,0,1,1.21-2.21,9.5,9.5,0,0,1,1.19-1.33,15,15,0,0,1,1.54-1.29,9.41,9.41,0,0,1,1.7-1,7.21,7.21,0,0,1,1.76-.5,6,6,0,0,1,3.82.67,6.33,6.33,0,0,1,2.15,2.33,12.13,12.13,0,0,1,1.21,3.14c.3,1.14.62,2.21,1,3.2a4.21,4.21,0,0,0,.08.59c0,.3.1.6.15.92a7.16,7.16,0,0,0,.15.89,5.5,5.5,0,0,1,.07.57c.25,2.4.42,4.8.47,7.25s.15,4.86.25,7.26a12.58,12.58,0,0,1-.15,1.91,8.7,8.7,0,0,0-.08,1.9c0,.08,0,.28.05.57s.08.65.1,1a7.41,7.41,0,0,0,.15,1c.05.32.08.5.08.57v1.81c0,.07,0,.27,0,.57s0,.64.05,1,0,.7,0,1,0,.52,0,.62a6.53,6.53,0,0,1-.09,1,.87.87,0,0,1-.72.77h-.1l-.35,0-.34-.05c-.1,0-.33,0-.65,0s-.67,0-1,0-.67,0-1,0ZM118.33,39.7a1,1,0,0,0,.77.91,5.93,5.93,0,0,0,1.64.35,16.27,16.27,0,0,0,1.85,0c.62,0,1.09,0,1.41-.08.08,0,.23,0,.45,0s.37,0,.45,0a2.28,2.28,0,0,0,.17-.3,3,3,0,0,1,.07-.3c0-.22,0-.57,0-1.06a16.06,16.06,0,0,1-.07-1.61c0-.57,0-1.12,0-1.61s0-.84,0-1.07a1.57,1.57,0,0,0,0-.49v-.52l-.54-5.3a2.94,2.94,0,0,0-.27-.87,3.89,3.89,0,0,0-.55-.89,2.24,2.24,0,0,0-.79-.64,1.58,1.58,0,0,0-1-.2,1.81,1.81,0,0,0-.81.27,8,8,0,0,0-2.23,3.86,23.86,23.86,0,0,0-.5,4.41c0,.87,0,1.73,0,2.55A18.61,18.61,0,0,0,118.33,39.7Z"/><path class="cls-2" d="M137.57,59.63a11,11,0,0,1,.22-3.07,20.87,20.87,0,0,0,.45-3.07c.1-.72.17-1.46.22-2.18s.1-1.46.18-2.18a.31.31,0,0,1,0-.17v-.23l.54-3.59a2.83,2.83,0,0,1,0-1.75,12.24,12.24,0,0,0,.42-1.66c0-.37.1-1.07.22-2.11s.25-2.2.45-3.54.37-2.72.56-4.18.43-2.83.62-4.09.42-2.3.62-3.17.4-1.34.57-1.43a3.9,3.9,0,0,1,1.88-.55c.72,0,1.37-.07,2-.1a8.44,8.44,0,0,1,1,0c.24,0,.64,0,1.13,0a2.47,2.47,0,0,1,1,1.46,37.09,37.09,0,0,0,1.17,5.7c.52,1.81,1,3.66,1.56,5.59a6.08,6.08,0,0,1,.17.62c.08.35.15.72.25,1.12s.17.76.27,1.11a3.81,3.81,0,0,1,.15.62c.07.17.17.5.3.94s.19.74.24.92,0,.07.05.1a.11.11,0,0,0,.1,0h0c.23,0,.4-.47.52-1.39s.25-2.08.32-3.47.18-2.87.28-4.45.19-3.1.32-4.46a30.71,30.71,0,0,1,.49-3.47c.2-.91.47-1.41.8-1.43l5.72-.45a.83.83,0,0,1,.44.25.9.9,0,0,1,.32.47l1,7.85c.08.3.15.59.25.91s.17.65.25.92.1,1,.22,1.88.25,1.81.37,2.9.3,2.18.45,3.34.3,2.28.44,3.34.28,2,.4,2.85.22,1.46.3,1.86.12,1,.27,1.86.3,1.8.5,2.79.34,1.94.52,2.8.27,1.49.34,1.86v.17a2.23,2.23,0,0,1,0,.72.68.68,0,0,1-.35.55l-4.95.32-3.17-24.07-.3-.94-3,24.93-3.27.28-6.54-25-4,26.57a2.11,2.11,0,0,0,0,.47c0,.05-.07.08-.25.08,0,0-.05,0-.05,0s0,0,0,0h-.05l-1.23-.12a9.46,9.46,0,0,1-1.61-.3,5.39,5.39,0,0,1-1.41-.57A1.22,1.22,0,0,1,137.57,59.63Z"/><path class="cls-2" d="M175.09,57.3a.92.92,0,0,1,0-.25.3.3,0,0,0,0-.19c0-.47.1-1,.17-1.71a6.51,6.51,0,0,1,.37-1.66,1.09,1.09,0,0,1,.55-.57,8.13,8.13,0,0,1,.79-.32l.79-.28a1.1,1.1,0,0,0,.59-.47s0-.05.08-.17a1.37,1.37,0,0,0,0-.27,3.19,3.19,0,0,1,0-.45c0-.22,0-.47.05-.74s0-.52,0-.79v-.55c-.1-2.94-.12-5.87-.07-8.76s0-5.82-.2-8.72c0-.07,0-.22-.05-.44s-.07-.45-.07-.72,0-.5-.05-.7a3.43,3.43,0,0,1,0-.49.71.71,0,0,0-.52-.59c-.27-.08-.57-.15-.89-.23a2.45,2.45,0,0,1-.87-.32,1.21,1.21,0,0,1-.44-.89s0-.08,0-.1a.22.22,0,0,1,0-.1V25.68c0-.52,0-1.09,0-1.68s0-1.17,0-1.69V21.23c.07-.3.17-.65.27-1.09a.91.91,0,0,1,.59-.77l.1.05h.1a11.31,11.31,0,0,0,2.28.12c1,0,2,0,3,.05a16.67,16.67,0,0,1,2.84.37A3,3,0,0,1,186.48,21a1.7,1.7,0,0,1,.27,1,9.69,9.69,0,0,0,.05,1.09,9.93,9.93,0,0,1-.15,3.26,2.79,2.79,0,0,1-.72,1.27,1.81,1.81,0,0,1-.84.42c-.3.07-.47.37-.54.87a35.33,35.33,0,0,0-.45,4.58c0,1.53,0,3,0,4.58s.13,3,.25,4.55.2,3,.27,4.56v1.58c0,.37,0,.7,0,1s0,.49,0,.57v.44a.94.94,0,0,0,.5.87c.3.15.62.27,1,.42a5,5,0,0,1,1,.5,1.47,1.47,0,0,1,.57,1.11c0,.25,0,.62,0,1.12a7.08,7.08,0,0,1-.08,1.46,5.18,5.18,0,0,1-.39,1.33,1.1,1.1,0,0,1-1,.65,9,9,0,0,1-2.47.1,12.8,12.8,0,0,0-2.48,0c-.1,0-.37,0-.79.07s-.87.1-1.31.17-.9.1-1.32.13a6.2,6.2,0,0,1-.79.05,2.76,2.76,0,0,1-1.41-.3A1.56,1.56,0,0,1,175.09,57.3Z"/><path class="cls-2" d="M210.08,58a.93.93,0,0,0-.52.18l-.6.34a4.68,4.68,0,0,0-.52.38,3.31,3.31,0,0,0-.27.24,4.69,4.69,0,0,1-1.69.45c-.61.05-1.18.05-1.73.05a6.65,6.65,0,0,1-3.56-.87,10.69,10.69,0,0,1-3-2.45,14.24,14.24,0,0,1-2.15-3.42A13.5,13.5,0,0,1,195,49.23a26.82,26.82,0,0,1-.35-4.33c0-1.46,0-2.93-.07-4.39a30.07,30.07,0,0,1,.37-5.94,21.93,21.93,0,0,1,1.63-5.72,16.46,16.46,0,0,1,1.31-2.3,14.72,14.72,0,0,1,1.89-2.3A16.48,16.48,0,0,1,202,22.31a7.08,7.08,0,0,1,2.4-1.16l.87,0,.86-.05a12.24,12.24,0,0,1,3.82.42A4.63,4.63,0,0,1,212.18,23a6.12,6.12,0,0,1,1.06,2.67,28.21,28.21,0,0,1,.33,4v.52c0,.25,0,.49,0,.77a7.13,7.13,0,0,1,0,.79v.54c-.05.3-.08.6-.13,1a3.55,3.55,0,0,1-.2,1,1.93,1.93,0,0,1-.42.77.89.89,0,0,1-.76.32,9.39,9.39,0,0,1-2-.27,7.55,7.55,0,0,1-1.41-.42c-.45-.17-.65-.4-.65-.69l0-4a1.69,1.69,0,0,0-.67-1.32,2.16,2.16,0,0,0-1.39-.54A3.74,3.74,0,0,0,203,29.62a12.14,12.14,0,0,0-1.88,3.56,23,23,0,0,0-1,4.26,27.81,27.81,0,0,0-.3,3.64,28.45,28.45,0,0,0,.35,3.25,18.1,18.1,0,0,0,1,3.74,9.17,9.17,0,0,0,1.81,3,3.59,3.59,0,0,0,2.85,1.24,2.18,2.18,0,0,0,1.58-.72,2,2,0,0,0,.5-1.63,1.28,1.28,0,0,0,0-.28c0-.14,0-.29-.05-.47a2,2,0,0,0-.1-.44c-.05-.13-.12-.2-.2-.2l-2.55,0a.54.54,0,0,1-.34-.2,1.6,1.6,0,0,1-.35-.47,4.3,4.3,0,0,1-.27-.52.94.94,0,0,1-.1-.42l0-3.54a1.05,1.05,0,0,1,.45-.89,1.36,1.36,0,0,1,.94-.35h.22c.17,0,.49.1,1,.22l.84.23,7-.23q.1,0,.3.3l.29.47c0,.05.08.08.08.1a.29.29,0,0,0,.07.1c0,.07.08.12.1.17s0,.33-.05.65a3,3,0,0,1-.1.64l.27,14.39A.85.85,0,0,1,215,60a.91.91,0,0,1-.57.25,5.32,5.32,0,0,1-1.61-.15,4.65,4.65,0,0,1-1.44-.64,1.33,1.33,0,0,1-.54-.82C210.62,58.19,210.4,58,210.08,58Z"/><path class="cls-2" d="M222.33,50.42a2.81,2.81,0,0,1-.08-.6c0-.24,0-.52-.05-.76s0-.47,0-.67a2.71,2.71,0,0,1,0-.42c0-.7-.07-1.59-.1-2.7s-.07-2.21-.1-3.3-.07-2-.1-2.89-.05-1.31-.05-1.41c0-1.09,0-2.28.08-3.57s.17-2.6.34-3.91a20.84,20.84,0,0,1,.9-3.86A12.19,12.19,0,0,1,224.76,23a7.92,7.92,0,0,1,2.64-2.4,8.87,8.87,0,0,1,3.89-1.09h1.09a15.86,15.86,0,0,1,3,.7,8.44,8.44,0,0,1,2.55,1.26,8.84,8.84,0,0,1,2,1.88A7.74,7.74,0,0,1,241.15,26L241.3,27c0,.57.07.94.07,1.11s0,.72,0,1.29,0,.89,0,1c0,.37,0,1.16,0,2.37s.05,2.55.08,4,.07,2.82.07,4.18,0,2.38,0,3c0,.91,0,1.95,0,3.14s0,2.4-.1,3.66a31.6,31.6,0,0,1-.49,3.77,11.14,11.14,0,0,1-1.17,3.32,7.32,7.32,0,0,1-2.13,2.42,6,6,0,0,1-3.31,1.07,11.88,11.88,0,0,1-3.3-.23c-1-.22-2.1-.52-3.19-.86a6.44,6.44,0,0,1-2.68-1.51,8.34,8.34,0,0,1-1.65-2.4,13.07,13.07,0,0,1-.92-2.9A16.9,16.9,0,0,1,222.33,50.42Zm7.23-.37a4.78,4.78,0,0,0,.67,2.05,1.84,1.84,0,0,0,1.88.79,1.86,1.86,0,0,0,1.31-.52,2.61,2.61,0,0,0,.62-1.13,6.76,6.76,0,0,0,.22-1.44c0-.52.05-1,.08-1.41v-.47c0-.25,0-.5,0-.77a6.78,6.78,0,0,0,0-.77V46c.1-1.86.17-3.54.17-5.1s-.05-3.24-.17-5.1c0-.22,0-.57,0-1.07s-.08-1-.1-1.58-.08-1.09-.1-1.58,0-.85,0-1.07a5.45,5.45,0,0,0-.4-.89c-.19-.37-.42-.74-.64-1.09a4.69,4.69,0,0,0-.82-.89,1.36,1.36,0,0,0-.89-.37,1.45,1.45,0,0,0-1,.52,3.13,3.13,0,0,0-.65,1.11,6.7,6.7,0,0,0-.37,1.34c-.1.44-.15.82-.2,1.11a3.23,3.23,0,0,0-.1.55c0,.29-.07.62-.12,1s-.1.72-.17,1-.08.52-.08.59V36.7c0,.55,0,1.09,0,1.61s0,.94,0,1.21V40a.31.31,0,0,0,0,.17.47.47,0,0,1,0,.18v.22c0,.37.1,1,.2,1.91s.2,1.85.3,2.84.2,2,.27,2.87S229.53,49.68,229.56,50.05Z"/><path class="cls-2" d="M246.45,51a2,2,0,0,1,1.38-1.33,6.74,6.74,0,0,1,2.41-.18,25.21,25.21,0,0,1,3.09.52c1.14.25,2.33.5,3.57.72a3.21,3.21,0,0,0,1.33-.37,4.72,4.72,0,0,0,1.07-.84,8.9,8.9,0,0,0,.91-1.17c.3-.44.6-.86.92-1.31a.46.46,0,0,0,.1-.25c0-.12,0-.19,0-.24l-.22-3.22a7.57,7.57,0,0,1-.7-.55l-.89-.77a1.85,1.85,0,0,0-.74-.49,28.73,28.73,0,0,0-3.57-1.31A20.85,20.85,0,0,1,252.07,39a9,9,0,0,1-2.65-1.83,9.82,9.82,0,0,1-2-3.34,3.63,3.63,0,0,0,0-.5c0-.22-.05-.44-.07-.67a5.42,5.42,0,0,1-.07-.64,2.43,2.43,0,0,1,0-.4c0-.52-.07-1-.15-1.63a3.55,3.55,0,0,1,.2-1.63,3,3,0,0,1,.2-.85c.1-.37.25-.76.37-1.16s.27-.79.42-1.14l.25-.77v-.27a9.34,9.34,0,0,1,.59-.77,7.19,7.19,0,0,0,.52-.57,5.69,5.69,0,0,0,.4-.47,15.23,15.23,0,0,1,3.56-3A11,11,0,0,1,257.89,18a9.92,9.92,0,0,1,2.08.17,18.28,18.28,0,0,1,2.72.67,10.45,10.45,0,0,1,2.4,1.11,2,2,0,0,1,1.09,1.49,5.57,5.57,0,0,1-.05,1.31,13.5,13.5,0,0,1-.34,1.63,6.16,6.16,0,0,1-.65,1.44,1.27,1.27,0,0,1-1,.67,15.74,15.74,0,0,1-2.83,0,16.82,16.82,0,0,0-2.84,0,8.72,8.72,0,0,0-1.12.1c-.57.07-.94.1-1.11.1a2.82,2.82,0,0,1-.52.25,3.9,3.9,0,0,0-.72.34,4.4,4.4,0,0,0-.59.42.58.58,0,0,0-.25.45l.27,3.27c0,.17.12.34.35.52s.49.32.76.49a4,4,0,0,0,.85.47l.59.25c1.46.69,2.77,1.34,4,2a12.67,12.67,0,0,1,3.09,2.18,10.26,10.26,0,0,1,2.11,3,13.14,13.14,0,0,1,1,4.28,13.32,13.32,0,0,1-.29,4.41,11.78,11.78,0,0,1-1.69,3.89,10,10,0,0,1-3,2.84A8.87,8.87,0,0,1,258.18,57a18.19,18.19,0,0,1-3.91,0,12.36,12.36,0,0,1-3.69-.81,7.59,7.59,0,0,1-2.8-1.93A5.41,5.41,0,0,1,246.45,51Z"/><path class="cls-2" d="M297.06,59.63a4.58,4.58,0,0,1-.45-.35.56.56,0,0,1-.22-.47,25.1,25.1,0,0,1,0-5.27,49.82,49.82,0,0,0,.29-5.3c0-2.18-.07-4.36-.2-6.56s-.27-4.39-.39-6.59-.27-4.38-.35-6.56-.1-4.33,0-6.49a1.6,1.6,0,0,1,.19-.69.82.82,0,0,1,.57-.45,4.8,4.8,0,0,1,1.29.05A4,4,0,0,0,299,21c.14,0,.42,0,.81,0s.82-.05,1.29-.05.87-.05,1.29-.05.67,0,.81,0l.45-.05c.25,0,.52-.07.82-.09l.79-.13.47,0c.22,0,.57,0,1.06-.05a7.22,7.22,0,0,1,1.47,0,5.27,5.27,0,0,1,1.33.23.73.73,0,0,1,.65.64l.37,4.58a.81.81,0,0,1-.37.74,2,2,0,0,1-.82.35,8,8,0,0,1-2.18-.08,8.7,8.7,0,0,0-2.23-.07,6.92,6.92,0,0,0-.72,0c-.29,0-.59.07-.89.12a2.89,2.89,0,0,0-.79.32.73.73,0,0,0-.32.64,34.38,34.38,0,0,1,0,4.54,27.93,27.93,0,0,0,.05,4.58c0,.17,0,.42.05.71a1.2,1.2,0,0,0,.32.72,1.71,1.71,0,0,0,.67.25,6,6,0,0,0,1,.07c.33,0,.65,0,.92,0s.52,0,.64,0l.82-.05c.4,0,.82-.08,1.26-.13s.87-.1,1.27-.12a5.94,5.94,0,0,1,.81,0,.35.35,0,0,1,.28.2.58.58,0,0,1,.09.29l.38,3.54a1.73,1.73,0,0,1-.25,1,1,1,0,0,1-.74.54,8.84,8.84,0,0,1-2.41,0,10,10,0,0,0-2.45-.08,2.11,2.11,0,0,0-1.09.4,1.41,1.41,0,0,0-.44.74,3.82,3.82,0,0,0-.1,1V47.2c0,.1,0,.37-.05.79s-.08.87-.15,1.34-.1.91-.12,1.31a6.42,6.42,0,0,1-.1.77c.07.05.1.15.05.32a.52.52,0,0,0,0,.42,3,3,0,0,0,.1.79.54.54,0,0,0,.59.47h6.36a6.09,6.09,0,0,1,1.59.18c.47.1.79.52,1,1.19a3.86,3.86,0,0,0,.07.52c0,.27.1.57.18.91s.1.7.17,1a6.25,6.25,0,0,0,.15.79v.33c.07.52-.05.79-.37.86s-.7.15-1.09.23a26,26,0,0,1-4.58.12c-1.54-.07-3.05-.15-4.58-.2a3.53,3.53,0,0,0-.82,0l-.77.07c-.15,0-.42,0-.79,0l-1.19.07-1.16.07Z"/><path class="cls-2" d="M326.92,45.42a.88.88,0,0,0-.15-.77.72.72,0,0,0-.67-.42h-.17c0,.3,0,.79,0,1.48s0,1.46-.05,2.26,0,1.56-.05,2.27,0,1.22,0,1.47v1.13A15.84,15.84,0,0,0,326,55c.09.69.17,1.44.22,2.15a2.23,2.23,0,0,1-.13.8c-.09.19-.34.29-.74.29a12.36,12.36,0,0,1-2.18,0,14.45,14.45,0,0,0-2.23.1.88.88,0,0,1-.37-.44l-.22-.45c0-.07,0-.27-.07-.62s-.08-.57-.08-.67a31.56,31.56,0,0,1,0-3.37c.05-1.11.12-2.25.19-3.39,0-1.85,0-3.66-.07-5.44a28.84,28.84,0,0,1,.35-5.45l-.77-15.3c0-.18,0-.43,0-.7a3.31,3.31,0,0,1,.18-.84,2.66,2.66,0,0,1,.37-.69.78.78,0,0,1,.62-.3h.22c.87.07,1.59.15,2.15.22s.95.5,1.17,1.27.62,1.58.94,2.4l1,2.28s.05.09.05.19v.2a17.17,17.17,0,0,0,.87,3c.4,1,.79,2,1.14,2.85a2.07,2.07,0,0,0,.22,1.26,14,14,0,0,0,.77,1.41c.3.47.54.92.79,1.37a1.49,1.49,0,0,1,.25,1.09,6.36,6.36,0,0,0,.27.69c.15.35.27.72.42,1.11s.25.77.37,1.12.23.59.3.74.08.27.15.47a6.61,6.61,0,0,0,.2.64,6.81,6.81,0,0,0,.2.67,2.46,2.46,0,0,1,.07.45,6.36,6.36,0,0,1,.37,1.36,1.58,1.58,0,0,0,.77,1.14,2.84,2.84,0,0,0,.27-1.19,84.45,84.45,0,0,0,.7-11.88c-.05-3.89-.13-7.85-.2-11.94a2.53,2.53,0,0,1,.27-.44c.15-.23.25-.33.32-.33l4.36-.32c.32,0,.5.1.5.27a.36.36,0,0,0,.32.38,38.76,38.76,0,0,0,0,4.82,31.21,31.21,0,0,1-.05,4.83c-.25,2.35-.5,4.68-.7,6.91a45.11,45.11,0,0,0,0,7l-.45,12a3.65,3.65,0,0,1-.54,1.33,2.22,2.22,0,0,1-1.09,1.07l-.57,0a5.52,5.52,0,0,1-.57,0,19.34,19.34,0,0,1-2.62.05,20.84,20.84,0,0,1-2.63-.28c-.47,0-.84-.37-1.09-1a10.49,10.49,0,0,1-.57-2.13c-.12-.79-.22-1.53-.27-2.23s-.1-1.16-.12-1.38-.1-.45-.23-1a6.54,6.54,0,0,0-.27-1c-.07-.17-.17-.49-.32-1s-.3-1-.47-1.48-.32-1-.47-1.49S327,45.59,326.92,45.42Z"/><path class="cls-2" d="M371.19,56.58a37,37,0,0,1-.22-6.26q.15-3.24,0-6.31c-.08-2-.17-3.89-.32-5.75s-.2-3.79-.18-5.74c0-2.11,0-4.06,0-5.9a38.16,38.16,0,0,0-.42-5.77,1.76,1.76,0,0,1,.89-1.33,4.29,4.29,0,0,1,1.56-.57,7.77,7.77,0,0,1,1.93,0,2.76,2.76,0,0,1,1.76.81c0,.08,0,.23,0,.45a3.11,3.11,0,0,1,0,.45,18,18,0,0,1-.05,4.13,20.63,20.63,0,0,0-.15,4.09c0,.14,0,.69.07,1.66s.13,2.05.2,3.29.15,2.47.22,3.74.13,2.25.18,3c.1,1.73.17,3.44.2,5.1s.12,3.34.29,5c.1.69.42,1.09.89,1.19a6.39,6.39,0,0,0,1.61.12c.57,0,1.12,0,1.61,0s.77.34.85.91c0,1.17,0,2.11-.08,2.8a18.29,18.29,0,0,1-.25,1.93c-.1.57-.29.87-.54.87,0,.05-.1.05-.2.05H381c-1.38-.08-2.8-.12-4.26-.2s-2.89-.15-4.35-.3a1,1,0,0,1-.9-.42A4.66,4.66,0,0,1,371.19,56.58Z"/><path class="cls-2" d="M404.32,59.31a2.36,2.36,0,0,1-.54-.35,1,1,0,0,1-.33-.52L402.14,46.9a.45.45,0,0,0-.2-.37c-.12-.1-.24-.15-.34-.1l-6.32.6,1,9.53a5.21,5.21,0,0,0,.5,1.61,4.73,4.73,0,0,1,.49,1.56c0,.22,0,.34-.05.39a1.24,1.24,0,0,1-.49.13,1.79,1.79,0,0,0-.3,0,.94.94,0,0,1-.25,0h-.71c-.3,0-.62,0-.95,0s-.61,0-.89,0a4.4,4.4,0,0,1-.52,0,4.59,4.59,0,0,1-1.58-.23,1.93,1.93,0,0,1-.92-.64,2.86,2.86,0,0,1-.47-1.06c-.1-.43-.17-.9-.25-1.44-.17-2-.32-4-.44-6s-.2-4-.27-6c0,0,0-.22,0-.59s-.05-.77-.07-1.26-.08-.94-.1-1.39-.08-.82-.1-1.06a17.37,17.37,0,0,1,.2-3.82c.2-1.16.42-2.42.67-3.81a2.55,2.55,0,0,1,.12-2c.3-.69.54-1.31.74-1.85a3.23,3.23,0,0,0,.13-.82,3.27,3.27,0,0,1,.19-.87s0-.1,0-.19.08-.13.1-.13a18.3,18.3,0,0,0,1-2.2,10.29,10.29,0,0,1,1.22-2.21,9.4,9.4,0,0,1,1.18-1.33,17.52,17.52,0,0,1,1.54-1.29,9.15,9.15,0,0,1,1.71-1,7.08,7.08,0,0,1,1.76-.5,6,6,0,0,1,3.81.67,6.25,6.25,0,0,1,2.15,2.33,12.52,12.52,0,0,1,1.22,3.14,31,31,0,0,0,1,3.2,3.79,3.79,0,0,0,.07.59c.05.28.1.6.13.92s.07.62.14.89a4,4,0,0,1,.08.57c.25,2.4.39,4.8.47,7.25s.12,4.86.25,7.26a12.58,12.58,0,0,1-.15,1.91,8.12,8.12,0,0,0-.08,1.9c0,.08,0,.28.05.57s.08.65.1,1a7.41,7.41,0,0,0,.15,1c.05.32.08.5.08.57v1.81c0,.07,0,.27,0,.57s0,.64.05,1,0,.7,0,1,0,.52,0,.62a5.67,5.67,0,0,1-.1,1,.85.85,0,0,1-.71.77h-.1l-.35,0-.35-.05-.64,0c-.32,0-.67,0-1,0s-.67,0-1,0S404.42,59.31,404.32,59.31ZM395.38,39.7a1,1,0,0,0,.77.91,5.85,5.85,0,0,0,1.63.35,16.51,16.51,0,0,0,1.86,0c.62,0,1.09,0,1.41-.08.08,0,.23,0,.45,0l.44,0a1.59,1.59,0,0,0,.18-.3c0-.1.07-.2.1-.3s0-.57-.05-1.06a15.9,15.9,0,0,1-.08-1.61c0-.57,0-1.12,0-1.61s0-.84,0-1.07a2,2,0,0,0,.05-.49v-.52l-.55-5.3a2.67,2.67,0,0,0-.27-.87,4.23,4.23,0,0,0-.54-.89,2.27,2.27,0,0,0-.8-.64A1.54,1.54,0,0,0,399,26a1.77,1.77,0,0,0-.81.27,8,8,0,0,0-2.23,3.86,23.86,23.86,0,0,0-.5,4.41c0,.87,0,1.73-.05,2.55A13.08,13.08,0,0,0,395.38,39.7Z"/><path class="cls-2" d="M439.68,58.76a55.36,55.36,0,0,1-.52-7c0-2.31,0-4.64,0-6.94-.07-4.13-.22-8.24-.42-12.33s-.47-8.22-.84-12.38a1.44,1.44,0,0,1,.35-.57,1.49,1.49,0,0,1,.66-.35h.23c2.47.08,4.73.25,6.81.52a16.66,16.66,0,0,1,5.42,1.61,10.4,10.4,0,0,1,3.81,3.35,13,13,0,0,1,2,5.69,14.19,14.19,0,0,1,0,3.57,11.12,11.12,0,0,1-1,3.64,8.82,8.82,0,0,1-2.3,3A6.61,6.61,0,0,1,450,42a8,8,0,0,1-2.13-.07c-.7-.13-1.39-.23-2.08-.3a.88.88,0,0,0-.57.42,1.33,1.33,0,0,0-.15.67c0,.17,0,.52,0,1s0,1,.05,1.46,0,1,.05,1.46,0,.79.08,1,0,.27,0,.59a3.36,3.36,0,0,0,.08.6l.1,9.9a4.23,4.23,0,0,0-.2.8.69.69,0,0,1-.52.61l-.89.05a3.1,3.1,0,0,0-.85.13,9.1,9.1,0,0,1-1.31.12,3.09,3.09,0,0,1-1-.1,1.61,1.61,0,0,1-.74-.49A5.45,5.45,0,0,1,439.68,58.76Zm6.81-25.55a2.26,2.26,0,0,0,.44,1.16c.22.28.65.37,1.31.3a1.64,1.64,0,0,0,1.17-.54A3.81,3.81,0,0,0,450,33a4.09,4.09,0,0,0,.22-1.34c0-.45,0-.84-.05-1.16a8.81,8.81,0,0,0-.3-1.37,14.79,14.79,0,0,0-.64-1.95,6,6,0,0,0-1-1.69,1.53,1.53,0,0,0-1.39-.59c-.15,0-.24.2-.32.59a12.61,12.61,0,0,0-.15,1.49c0,.59,0,1.26,0,2s0,1.36,0,1.95.05,1.12.08,1.56S446.49,33.13,446.49,33.21Z"/><path class="cls-2" d="M464,56.58a37,37,0,0,1-.22-6.26q.15-3.24.05-6.31c-.08-2-.18-3.89-.32-5.75s-.2-3.79-.18-5.74c0-2.11,0-4.06,0-5.9a38.16,38.16,0,0,0-.42-5.77,1.76,1.76,0,0,1,.89-1.33,4.29,4.29,0,0,1,1.56-.57,7.77,7.77,0,0,1,1.93,0,2.76,2.76,0,0,1,1.76.81c0,.08,0,.23,0,.45a3.11,3.11,0,0,1,0,.45,18,18,0,0,1-.05,4.13,20.63,20.63,0,0,0-.15,4.09c0,.14,0,.69.07,1.66s.13,2.05.2,3.29.15,2.47.22,3.74.13,2.25.18,3c.1,1.73.17,3.44.2,5.1s.12,3.34.29,5c.1.69.42,1.09.89,1.19a6.39,6.39,0,0,0,1.61.12c.57,0,1.12,0,1.61,0s.77.34.84.91c0,1.17,0,2.11-.07,2.8a12.79,12.79,0,0,1-.25,1.93c-.1.57-.29.87-.54.87,0,.05-.1.05-.2.05h-.2c-1.38-.08-2.8-.12-4.26-.2s-2.89-.15-4.35-.3a1,1,0,0,1-.9-.42A4.2,4.2,0,0,1,464,56.58Z"/><path class="cls-2" d="M497.08,59.31a2.41,2.41,0,0,1-.55-.35,1.06,1.06,0,0,1-.32-.52L494.9,46.9a.48.48,0,0,0-.2-.37.34.34,0,0,0-.35-.1L488,47l1,9.53a5.19,5.19,0,0,0,.49,1.61,4.75,4.75,0,0,1,.5,1.56c0,.22,0,.34-.05.39a1.3,1.3,0,0,1-.49.13,1.73,1.73,0,0,0-.3,0,1,1,0,0,1-.25,0h-.67c-.3,0-.62,0-1,0s-.62,0-.9,0a4.4,4.4,0,0,1-.52,0,4.63,4.63,0,0,1-1.58-.23,1.93,1.93,0,0,1-.92-.64,2.86,2.86,0,0,1-.47-1.06c-.1-.43-.17-.9-.24-1.44-.18-2-.33-4-.45-6s-.2-4-.27-6c0,0,0-.22,0-.59s-.05-.77-.07-1.26-.08-.94-.1-1.39-.08-.82-.1-1.06a17.37,17.37,0,0,1,.2-3.82c.2-1.16.42-2.42.67-3.81a2.55,2.55,0,0,1,.12-2c.3-.69.55-1.31.74-1.85a3.23,3.23,0,0,0,.13-.82,3,3,0,0,1,.2-.87,1.06,1.06,0,0,1,.05-.19c0-.1.07-.13.09-.13a18.3,18.3,0,0,0,1-2.2,11.6,11.6,0,0,1,1.19-2.21,9.5,9.5,0,0,1,1.19-1.33,15,15,0,0,1,1.54-1.29,9.15,9.15,0,0,1,1.71-1,7,7,0,0,1,1.75-.5,6,6,0,0,1,3.82.67,6.33,6.33,0,0,1,2.15,2.33,12.13,12.13,0,0,1,1.21,3.14c.3,1.14.62,2.21,1,3.2a4.21,4.21,0,0,0,.08.59,8.22,8.22,0,0,1,.12.92c.05.32.08.62.15.89a3.61,3.61,0,0,1,.07.57c.25,2.4.43,4.8.48,7.25s.12,4.86.24,7.26a12.58,12.58,0,0,1-.15,1.91,8.68,8.68,0,0,0-.07,1.9c0,.08,0,.28,0,.57s.07.65.1,1a9.66,9.66,0,0,0,.12,1c.05.32.08.5.08.57v1.81c0,.07,0,.27,0,.57s0,.64.05,1,0,.7.05,1a6.17,6.17,0,0,1,0,.62,6.88,6.88,0,0,1-.1,1,.87.87,0,0,1-.72.77H501l-.35,0-.34-.05c-.1,0-.33,0-.65,0s-.67,0-1,0-.67,0-1,0S497.2,59.31,497.08,59.31ZM488.16,39.7a1,1,0,0,0,.77.91,5.93,5.93,0,0,0,1.64.35,16.27,16.27,0,0,0,1.85,0c.62,0,1.09,0,1.41-.08.08,0,.23,0,.45,0l.44,0a1.59,1.59,0,0,0,.18-.3c0-.1.07-.2.1-.3s0-.57-.05-1.06a15.9,15.9,0,0,1-.08-1.61c0-.57,0-1.12-.05-1.61s0-.84,0-1.07a2,2,0,0,0,.05-.49v-.52l-.55-5.3a3.69,3.69,0,0,0-.27-.87,4.23,4.23,0,0,0-.54-.89,2.27,2.27,0,0,0-.8-.64,1.52,1.52,0,0,0-.94-.2,1.77,1.77,0,0,0-.81.27,8,8,0,0,0-2.23,3.86,23.86,23.86,0,0,0-.5,4.41c0,.87,0,1.73,0,2.55A13.08,13.08,0,0,0,488.16,39.7Z"/><path class="cls-2" d="M514.78,61c0-.15,0-.42,0-.82s0-.81,0-1.26,0-.84-.05-1.21,0-.65,0-.79c-.1-2.55-.17-5.06-.19-7.58s-.13-5-.3-7.53a4,4,0,0,0-.27-1.43c-.15-.33-.4-.8-.77-1.44v-.15c-.55-.72-1.07-1.46-1.56-2.2s-1-1.46-1.56-2.16c-.17-.25-.47-.72-.84-1.36s-.8-1.34-1.19-2.08-.82-1.41-1.17-2.05-.62-1.09-.76-1.39a2.53,2.53,0,0,0-.13-.35c-.1-.2-.2-.42-.32-.69l-.37-.77c-.12-.25-.22-.44-.3-.59l-.34-.89a2.79,2.79,0,0,1-.2-.85,1.11,1.11,0,0,1,.47-.79,7.17,7.17,0,0,1,1.11-.77,11.76,11.76,0,0,1,1.31-.61c.45-.18.77-.33,1-.43l.09-.05a.85.85,0,0,1,.65.43,6.13,6.13,0,0,1,.62,1c.2.37.37.72.54,1.09a8.31,8.31,0,0,0,.42.82c1.27,1.85,2.58,3.66,3.89,5.42A41.22,41.22,0,0,1,518,35.12c0,.07,0,.17.17.32a1.63,1.63,0,0,0,.22.17h.1a.45.45,0,0,0,.17,0,1.15,1.15,0,0,1,.23-.1,5.58,5.58,0,0,0,.47-.69c.25-.37.39-.62.47-.74.69-1.24,1.34-2.45,1.9-3.67s1.19-2.42,1.86-3.61c0,0,.08-.05.13-.13a.29.29,0,0,0,.07-.17,2.8,2.8,0,0,0,.2-.5c.1-.24.2-.52.3-.79s.19-.54.29-.79.15-.42.2-.5a3.25,3.25,0,0,1,.25-.61,5.93,5.93,0,0,1,.44-.82,4.69,4.69,0,0,1,.57-.74,1,1,0,0,1,.65-.33.91.91,0,0,1,.34,0l.3.15.4.27.76.47.77.47a3.86,3.86,0,0,0,.47.27,8.67,8.67,0,0,1,1,.52,1,1,0,0,1,.39.89,1.73,1.73,0,0,1-.24,1.12,10.69,10.69,0,0,0-.67,1.06c-.55,1.09-1.07,2.21-1.56,3.32A26.67,26.67,0,0,1,527,33.21a5.41,5.41,0,0,0-.47.62c-.25.34-.5.72-.77,1.11s-.52.77-.77,1.12a5.71,5.71,0,0,0-.42.67A27,27,0,0,1,523,39.08a7.29,7.29,0,0,0-1.29,2.5,6.45,6.45,0,0,0-.17,2.13,11.54,11.54,0,0,1,0,2.13c0,1.93-.17,3.76-.37,5.52s-.42,3.61-.59,5.52a7.81,7.81,0,0,0,0,1.19,8.64,8.64,0,0,1,0,1.44,6,6,0,0,1-.22,1.38,1.8,1.8,0,0,1-.74,1h-1.09c-.3,0-.62,0-1,0a6.86,6.86,0,0,1-1.11,0,3.41,3.41,0,0,1-1-.27A1.21,1.21,0,0,1,514.78,61Z"/><path class="cls-2" d="M549.87,59.31a2.21,2.21,0,0,1-.55-.35,1,1,0,0,1-.32-.52L547.69,46.9a.48.48,0,0,0-.2-.37.34.34,0,0,0-.35-.1l-6.31.6,1,9.53a5.19,5.19,0,0,0,.49,1.61,5,5,0,0,1,.5,1.56c0,.22,0,.34-.05.39a1.31,1.31,0,0,1-.5.13,1.68,1.68,0,0,0-.29,0,1,1,0,0,1-.25,0h-.67c-.3,0-.62,0-1,0s-.62,0-.9,0a4.4,4.4,0,0,1-.52,0,4.59,4.59,0,0,1-1.58-.23,1.93,1.93,0,0,1-.92-.64,2.86,2.86,0,0,1-.47-1.06c-.1-.43-.17-.9-.25-1.44-.17-2-.32-4-.44-6s-.2-4-.27-6c0,0,0-.22,0-.59s0-.77-.07-1.26-.08-.94-.1-1.39-.08-.82-.1-1.06a16.78,16.78,0,0,1,.2-3.82c.2-1.16.42-2.42.67-3.81a2.55,2.55,0,0,1,.12-2c.3-.69.54-1.31.74-1.85a3.23,3.23,0,0,0,.13-.82,3.27,3.27,0,0,1,.19-.87s0-.1.05-.19.08-.13.1-.13a18.3,18.3,0,0,0,1-2.2,11.6,11.6,0,0,1,1.19-2.21,9.5,9.5,0,0,1,1.19-1.33,15,15,0,0,1,1.54-1.29,9.41,9.41,0,0,1,1.7-1,7.21,7.21,0,0,1,1.76-.5,6,6,0,0,1,3.82.67,6.33,6.33,0,0,1,2.15,2.33,12.13,12.13,0,0,1,1.21,3.14c.3,1.14.62,2.21,1,3.2a4.21,4.21,0,0,0,.08.59,8.22,8.22,0,0,1,.12.92c0,.32.08.62.15.89a3.61,3.61,0,0,1,.07.57c.25,2.4.43,4.8.47,7.25s.13,4.86.25,7.26a12.58,12.58,0,0,1-.15,1.91,8.11,8.11,0,0,0-.07,1.9c0,.08,0,.28,0,.57s.07.65.1,1a9.66,9.66,0,0,0,.12,1c0,.32.08.5.08.57v1.81c0,.07,0,.27,0,.57s0,.64,0,1,0,.7,0,1,0,.52,0,.62a5.67,5.67,0,0,1-.1,1,.85.85,0,0,1-.71.77h-.1l-.35,0-.34-.05c-.1,0-.33,0-.65,0s-.67,0-1,0-.67,0-1,0S550,59.31,549.87,59.31ZM540.93,39.7a1,1,0,0,0,.77.91,5.78,5.78,0,0,0,1.63.35,16.51,16.51,0,0,0,1.86,0c.62,0,1.09,0,1.41-.08.07,0,.22,0,.44,0l.45,0a2.28,2.28,0,0,0,.17-.3c0-.1.08-.2.1-.3s0-.57,0-1.06a16.06,16.06,0,0,1-.07-1.61c0-.57,0-1.12,0-1.61s0-.84,0-1.07a1.57,1.57,0,0,0,.05-.49v-.52l-.54-5.3a3.88,3.88,0,0,0-.82-1.76,2.24,2.24,0,0,0-.79-.64,1.54,1.54,0,0,0-.94-.2,1.81,1.81,0,0,0-.82.27,8,8,0,0,0-2.23,3.86,24.78,24.78,0,0,0-.49,4.41c0,.87,0,1.73-.05,2.55A13.9,13.9,0,0,0,540.93,39.7Z"/></g></g></svg>