<svg xmlns="http://www.w3.org/2000/svg" viewBox="0 0 119.76 105.92"><defs><style>.cls-1{fill:#007572;}.cls-2{fill:#00a0a4;}.cls-3{fill:#008e8c;}.cls-4{fill:#51bcbd;}.cls-5{fill:#f39200;}.cls-6{fill:#fbba00;}</style></defs><title>ring</title><g id="Layer_2" data-name="Layer 2"><g id="Layer_1-2" data-name="Layer 1"><path class="cls-1" d="M118.22,16.16c-2.37-3.32-5.33-7.08-8.33-10.84-1.76-1.27-3.56-2.37-4.25-2.88-2.25-1-23.58-3.09-25.4-2.24-.19,3-8,20.74-7.71,22.69s-2.94,19.53,1.52,24.67c5.33,2.27,41.67-2.66,42.12-3.66s3.51-20.25,3.59-22.22A56.46,56.46,0,0,0,118.22,16.16Z"/><path class="cls-2" d="M110.79,27.07c-1.1-3.44-11.5-15.88-14.88-18.48A92.71,92.71,0,0,0,80.24.22c-2.3,3.57-14.67,39.1-14.37,40.87,2.58,3.17,3,2.16,8.43,8,8,0,39.75-4.19,41.76-5.1C114,37.84,112.44,32.25,110.79,27.07Z"/><path class="cls-3" d="M110.79,27.07c1.15-.76,4.66-7.08,7.43-10.91-2-2.91-5.1-7-8.33-10.84-5.21.78-13.13,2.77-14,3.27-1.14.66-18.31,24.05-22.16,29.86.32.63.64,1.25,1,1.88C81.93,39.59,107.75,28.19,110.79,27.07Z"/><path class="cls-4" d="M70.2,43.21c.32.63,2.28,1.12,2.28,1.12,10.07-3.41,36.73-16.24,38.29-17.25-3.65-5.69-11.5-15.88-14.88-18.47C94.75,9.23,70.2,43.21,70.2,43.21Z"/><path class="cls-5" d="M78.74,57.14c-4.52-20.82-27.27-33.57-48.08-29A38.83,38.83,0,0,0,.87,74C6,97.61,26.94,109.75,49.61,104.84,70.45,100.34,83.25,78,78.74,57.14ZM10.81,71.86A30.94,30.94,0,1,1,47.6,95.54,30.95,30.95,0,0,1,10.81,71.86Z"/><path class="cls-6" d="M73.63,40.86a47.69,47.69,0,0,0-10.07-9.64L58.87,40s4.12,4.18,6.45,7.1a54.49,54.49,0,0,1,5.2,8.82l10.12-1.86A49.33,49.33,0,0,0,73.63,40.86Z"/></g></g></svg>