<svg xmlns="http://www.w3.org/2000/svg" viewBox="0 0 122.02 81.22"><defs><style>.cls-1{fill:#007572;}.cls-2{fill:#00a0a4;}.cls-3{fill:#db7a1c;}.cls-4{fill:#f59b1a;}.cls-5{fill:#fab857;}.cls-6{fill:none;stroke:#000;stroke-linecap:round;stroke-width:1.3px;}</style></defs><title>budin</title><g id="Layer_2" data-name="Layer 2"><g id="Layer_1-2" data-name="Layer 1"><path class="cls-1" d="M58.89,62.81S23.17,38,6.68,46.55c-5.2,2.7-7.7,3.24-6.29,9.5C3.75,71.13,33.58,81.18,64.74,81.22c27,0,55.48-11.77,57.1-24.15.49-3.72.16-6.41-3-8.68C106.06,39.21,67.34,62,58.89,62.81Z"/><path class="cls-2" d="M64.68,36.2S-1.11,34,.16,53.25C1.12,67.84,38,77.45,64.48,77.5s55.26-10.8,56.74-23.42C122.92,39.45,75,35.21,64.68,36.2Z"/><path class="cls-1" d="M63.59,43.15s-47.92-1.48-47,11.28c.69,9.66,27.59,16,46.85,16.05S103.7,63.34,104.78,55C106,45.3,71.1,42.5,63.59,43.15Z"/><path class="cls-3" d="M23.1,49.9s-.55,7.53,8.64,10.16a20.78,20.78,0,0,0,12.1,0L54,13.88l-3.54-5L36.59,7.72Z"/><path class="cls-4" d="M51.36,10.79,43.82,60.05s14.61,15.86,33.64,1.42c1.35-26.7-5.67-52.18-5.67-52.18Z"/><path class="cls-3" d="M70.7,7.3l6.77,54.17s15.71,3.64,20.81-10.26c.57-1.57-3.27-14.57-4.71-20.57-3.69-15.4-6.3-24.72-6.3-24.72Z"/><path class="cls-5" d="M62.28,0C68.59,0,69,3.15,71.45,2.54,80.14.4,86.25,3.94,87.27,5.75c.74,2.13.15,6.6-6,7.62-5.15.85-5-1.44-8.77-1.31-3,.1-4.31,4.28-11.73,4-7.14-.92-6.05-3.91-10.65-4-2.64,0-6.31,1.83-10.7-1.08a5.76,5.76,0,0,1-2.84-3.43c.45-1.67,2.55-4,6.16-5,4.78-1.41,7.28,0,10.69.27C56.23,3.05,55.41,0,62.28,0Z"/><path class="cls-6" d="M16.31,2.77S62.19,38.37,68,43.41s48.69,36.27,48.69,36.27"/><path class="cls-6" d="M3.29,70.54S54.92,43.92,61.9,40.79s53.42-28.87,53.42-28.87"/></g></g></svg>