<svg xmlns="http://www.w3.org/2000/svg" viewBox="0 0 122.96 74.09"><defs><style>.cls-1,.cls-8{fill:none;stroke:#000;stroke-linecap:round;}.cls-1{stroke-width:0.68px;}.cls-2{fill:#814114;}.cls-3{fill:#998d32;}.cls-4{fill:#b1b841;}.cls-5,.cls-6{opacity:0.6;}.cls-6{fill:#dad8cc;isolation:isolate;}.cls-7{fill:#fff;}.cls-8{stroke-width:0.55px;}</style></defs><title>chicharra</title><g id="Layer_2" data-name="Layer 2"><g id="Layer_1-2" data-name="Layer 1"><path class="cls-1" d="M29.23,9.52c1-3.26.36-7.31-1.25-9.18"/><path class="cls-2" d="M53,55.54c0,2.31-.07,5.84.54,7.51,3.54-.91,4.53,1.41,2.84,1.89-2.69.74-4.66,1.22-5-.66C50.91,62.09,50.21,52.68,53,55.54Z"/><path class="cls-3" d="M35.8,12.6C34.45,8.5,28,6.53,23.11,8.9a92.7,92.7,0,0,0-11.56,7C7.71,18.65,2.93,20.78.72,25.5-1,29.64,2.17,34.49,5.54,37a23.45,23.45,0,0,0,13.51,4.27c1.07,1,2.17,3.1,3.24,4.39,4.56,5.51,13.06,10.6,18.51,12.22a75.54,75.54,0,0,0,11.25,2.21c3.7.44,10.73,1.38,14.43.49,6-1.33,20.56-5.82,11-14.27C73.67,43,64.67,36,62.16,34.25,60.25,33.06,47.53,21.49,45,19.59,41.33,16.82,37.61,14.15,35.8,12.6Z"/><path class="cls-4" d="M45,19.56a1.88,1.88,0,0,1-.24-.18c0,.13-.07.25-.12.39-1.74,6.66-17.43,17.35-25,22.17.88,1.12,1.77,2.66,2.64,3.7a32.55,32.55,0,0,0,5.22,4.94,45.22,45.22,0,0,0,14.72-6.21,59.24,59.24,0,0,0,15-14.23C52.7,26.25,46.64,20.83,45,19.56Z"/><path class="cls-4" d="M75.07,44.31c-3.95-3.26-9.74-7.74-12.3-9.62l0,.13c-1.75,6.72-18.35,17.76-25,22a28.57,28.57,0,0,0,3,1.11A75.66,75.66,0,0,0,52,60.09c1.21.15,2.8.34,4.5.51a41.66,41.66,0,0,0,3.93-2.28A57.43,57.43,0,0,0,75.07,44.31Z"/><g class="cls-5"><g class="cls-5"><path class="cls-6" d="M100,35.36c-6.21-2.22-18.73-6.8-27.44-9.9a229.54,229.54,0,0,0-32.68-9.63c0,3.1-1.25,7.21,3.74,15.54C44.55,33,54.42,45.45,61.43,51.65c1.63,1.45,14.78,13.22,23.65,17.09C96.36,73.68,114,76.06,121.5,71c1.59-1.06,1.39-5.89.54-7.91A9.07,9.07,0,0,0,122,58,9,9,0,0,0,120,55c-.88-1-.3,0-.6-1.3a8.32,8.32,0,0,0-1.4-4.08c-1.33-1.92-2.44-1.84-4.21-3.17C111.24,44.53,106.94,37.85,100,35.36Z"/></g></g><path class="cls-7" d="M26.85,10.66c-3.39.65-4.93,2.79-5.43,5.71-.56,3.27,2.83,5.87,5.63,5.7A6.58,6.58,0,0,0,33.3,15C33.14,11.88,29.65,9.91,26.85,10.66Z"/><path d="M28.86,15.85a1.2,1.2,0,0,0-1.07,1,1,1,0,0,0,1,1,1.16,1.16,0,0,0,1.1-1.24A.8.8,0,0,0,28.86,15.85Z"/><path class="cls-2" d="M36.63,53.18c-1.18-1.77-2.06-3.55-4.28-3-1.77.45-3.71,3.55-4.74,4.88-1.18,1.48-2.5,3.79-3.68,5.13-2.07,2.36-2.24-1.72-4.58-.45-.93.5,2.51,4,4.13,3.85,1-.15,2.8-2.93,3.64-4.15,1.82-2.67,5.37-7.29,6.25-7.1C34.54,52.62,35,54.42,36.63,53.18Z"/><path class="cls-2" d="M43,55.9c5.15-2.79,5.5-.25,4.7,3.54C47,63,45.22,67.69,45.39,67.83a4.91,4.91,0,0,1,3.46,1.66c.53.85-.18,1.74-1.31,1.37-2.47-.81-5.14-.32-4.33-3a105.39,105.39,0,0,0,2.6-10.48C46,56.21,42.77,58.41,43,55.9Z"/><path class="cls-2" d="M27.16,45.85c-1.31-7.4-6.55-2.21-8.89.74-2.13,2.67-2.85,4-4.18,4.26-1.18.3-3.61-2.54-4.24-.5C9.37,51.91,12.55,54,14,53.56c1.77-.45,2.68-1.87,3.7-3.1a47.08,47.08,0,0,1,4.13-4.68c.84-.79,1.56-1.76,2.59-1.46S25.84,47.18,27.16,45.85Z"/><path class="cls-1" d="M31.52,9.88c1.9-2.77,7.63-6.48,10-6.93"/><path class="cls-8" d="M100,35.36c-6.21-2.22-18.73-6.8-27.44-9.9a229.54,229.54,0,0,0-32.68-9.63c0,3.1-1.25,7.21,3.74,15.54C44.55,33,54.42,45.45,61.43,51.65c1.63,1.45,14.78,13.22,23.65,17.09C96.36,73.68,114,76.06,121.5,71c1.59-1.06,1.39-5.89.54-7.91A9.07,9.07,0,0,0,122,58,9,9,0,0,0,120,55c-.88-1-.3,0-.6-1.3a8.32,8.32,0,0,0-1.4-4.08c-1.33-1.92-2.44-1.84-4.21-3.17C111.24,44.53,106.94,37.85,100,35.36Z"/><path class="cls-8" d="M119.72,54.77c-3.1.73-15.88.39-18.24-.5-4.73-1.92-24.59-12.36-29.31-15.62C66.86,35.1,44.55,19.77,40.42,15.93"/><path class="cls-8" d="M122,63.1c-4.58,2.07-14.82,1.41-19.69.67a37.51,37.51,0,0,1-13.11-4C85,57.55,76.84,53.63,70.58,49,62,42.66,51.25,34.43,39.72,19.36"/><path class="cls-8" d="M114.48,47c-10.41-.61-28.19-.61-38.27,5.52"/><path class="cls-8" d="M100.06,46.72c-3.1-1.48-6.09-4.65-8-7.31a22.3,22.3,0,0,1-3.9-8.36"/><path class="cls-8" d="M89.12,48.06A31.91,31.91,0,0,1,82,37.62a61.36,61.36,0,0,1-3.34-10"/><path class="cls-8" d="M79.85,31.8C74.43,34.57,69,35.05,66,34.49"/><path class="cls-8" d="M67.23,23.56a22,22,0,0,1-13.56,2.31"/><path class="cls-8" d="M97.71,63.1c-2.67,3.57-10.71,5-14,5"/><path class="cls-8" d="M67.23,46.72a22.47,22.47,0,0,1-8.89,2"/><path class="cls-8" d="M102.44,54.72c1.63,2,1.44,6.22-.1,9"/><path class="cls-8" d="M60.63,31.05c0,2.45-.65,6.8-2.69,7.65"/><path class="cls-1" d="M14.15,36.07a2.92,2.92,0,0,0,3.47,1.59,4.44,4.44,0,0,0,3.38-3"/><path class="cls-4" d="M8.11,18.18s.47,10.85-4.62,10A7.2,7.2,0,0,1,.24,26.9a5.49,5.49,0,0,1,1.7-5.81A12.84,12.84,0,0,1,8.11,18.18Z"/></g></g></svg>