<svg xmlns="http://www.w3.org/2000/svg" viewBox="0 0 119.47 82.37"><defs><style>.cls-1{fill:#b91919;}.cls-1,.cls-2,.cls-3{fill-rule:evenodd;}.cls-2{fill:#d81120;}.cls-3{fill:#e30613;}</style></defs><title>ovillo</title><g id="Layer_2" data-name="Layer 2"><g id="Layer_1-2" data-name="Layer 1"><path class="cls-1" d="M107.15,47.78c13.09,8.95,3.26,25.79,10.21,31.72s-5.27,1.9-8.22-5.08S111.71,56.15,101,53,78.61,61.37,68.52,62s-14.65-4.86-13.18-4.84C72.71,57.31,94.05,38.83,107.15,47.78Z"/><path class="cls-1" d="M.42,46.19c2.9,22.87,24,35.23,45.44,30.21S80.27,51.85,76.06,31A38.57,38.57,0,0,0,30.62.77C9.73,5-2.47,23.32.42,46.19Z"/><path class="cls-2" d="M76.74,41.16A38.63,38.63,0,0,0,76.06,31a38.12,38.12,0,0,0-2.42-7.72c-9.75,2.3-16,11.69-14.11,21.26v.1Z"/><path class="cls-2" d="M47.17,1.05A38.34,38.34,0,0,0,34.44.2a28,28,0,0,0-3.92,20.65c0,.19.08.38.13.55A51.34,51.34,0,0,1,47.17,1.05Z"/><path class="cls-3" d="M68,14a38,38,0,0,0-9-7.89A40.33,40.33,0,0,0,37.74,34.65a29.67,29.67,0,0,0,10.6,7A29.15,29.15,0,0,1,68,14Z"/><path class="cls-2" d="M52.62,74.39A38.22,38.22,0,0,0,67,64.36C35.09,70.47,6.07,47.78,8,14.67A38.56,38.56,0,0,0,.26,31.8C4.43,59.43,25.1,76.39,52.62,74.39Z"/><path class="cls-3" d="M74.14,52.73A38.41,38.41,0,0,0,76.83,38,30.28,30.28,0,0,1,65.11,43c-16,3.23-31.47-6.71-34.59-22.17A28,28,0,0,1,34.44.2l-.8.1-.16,0c-.28,0-.58.08-.88.13h-.06c-.63.1-1.28.21-1.91.33-.95.19-1.91.43-2.84.68h0l0,0-.86.25,0,0h0l-.87.29h0l0,0-.85.3H25l-.82.32-.11,0-.76.32-.14.06-.75.33-.14.06-.7.33L21.37,4l-.66.33-.22.11,0,0C14,48.31,45.84,61.78,74.14,52.73Z"/></g></g></svg>