<svg xmlns="http://www.w3.org/2000/svg" viewBox="0 0 136.78 168.55"><defs><style>.cls-1{fill:#3c3c3b;}.cls-2{fill:#814114;}.cls-3{fill:#a85318;}.cls-4{fill:#010202;}.cls-5{fill:none;stroke:#dad8cc;stroke-width:0.32px;}.cls-6{fill:#dad8cc;}</style></defs><title>violin</title><g id="Layer_2" data-name="Layer 2"><g id="Layer_1-2" data-name="Layer 1"><path class="cls-1" d="M47.09,95.9c5-9.26,41.39-62.62,55.2-83.73-7.77-5.59-.65-8.08,4.52-5.91,2.33-10.48,12.87-3.18,5.93,4.93,8.63,3,3,10-4.87,5.44C93.59,47.72,65.65,91.49,57.35,105.22,54.39,103.06,49.81,99.7,47.09,95.9Z"/><path class="cls-2" d="M72.19,128.81c-1.73-3.78-3.33-6.29-1.74-11.65,1.07-3.63,4.92-6.86,5.43-10.67,1.1-8.27-4.26-16.22-11.83-21C49.16,76.2,28,101.34,21.86,113.64c-7.4,14.85-25.4,44.53-6.77,51.75,21.33,8.27,37.4-1,47.38-12.22C50.88,145.53,60.92,127.54,72.19,128.81Z"/><path class="cls-3" d="M5.31,115.85c9.06,7.31,22.29-6.57,13.59-19.16C35.2,97.51,37.8,68,59.12,81.9,64.85,85.42,72.41,94.54,71,102s-16.66,16.68-7.71,25.34c-11.48-.27-16.91,7.84-17.81,12.89-.74,4.13,2.24,13.7,4.72,14.47-3.28,4.15-14,11.36-19.75,12.47C.57,171.52-6.24,136.65,5.31,115.85Z"/><path d="M45.44,94.84c5-9.28,41.39-62.64,55.2-83.74C92.85,5.52,100,3,105.16,5.2,107.49-5.27,118,2,111.09,10.12c8.63,3,3,10-4.87,5.45C92,46.66,64,90.42,55.7,104.15,52.74,102,48.16,98.64,45.44,94.84Z"/><path class="cls-4" d="M86.36,17.33s2.38,2.9,3.4,1.7,2.42-2.72,2.42-2.72l6.91,5.62.88-1.15L93.29,15s2.07-2.58,2.16-3.36-2.89-3.23-4-2.18S85.91,15.2,86.36,17.33Z"/><path class="cls-4" d="M78.15,30.41c.74.9,2.62,1.52,3.25.84a22.11,22.11,0,0,0,1.77-2.65l6.29,3.19.65-1-6-3.84s2-2.36,1.33-3.4-2.9-2.2-3.77-1.15S77,29,78.15,30.41Z"/><path class="cls-4" d="M106.77,37.93s-2-2.55-3-1.37-2.23,3-2.23,3l-6.92-5.61-.87,1.15,6.68,5.83a21.55,21.55,0,0,0-1.87,3.75c-.08.78,2.4,2.32,3.45,1.27S107.21,40.06,106.77,37.93Z"/><path class="cls-4" d="M114.59,26c-.71-1.17-2.36-2.05-3.22-1.36a13.31,13.31,0,0,0-2,2.52l-6.82-4.74-.92,1,6.43,5.45A10.57,10.57,0,0,0,106,32.64c.66,1.33,2.58,2.89,3.77,1.82S115.68,27.83,114.59,26Z"/><path d="M37.27,132.32c-4.14,5.81,1.69,12.58,6,8-3-.35-3.75-.52-4.18-2.94-.43-1.33,1.76-4.08,2.32-5.18,1.75-3.52,3.73-8.6-.75-10.61C41.6,125.73,40.72,127.49,37.27,132.32Z"/><path d="M32.17,116.39c-3.06-.12-4.71,3.2-6.28,5.41-1.33,1.79-2.39,4.59-4.74,5.19-2.68.69-5.42-.95-4.23-4,2.64,4.73,5.73-2,7.18-4C25.32,117.43,29,113.34,32.17,116.39Z"/><path class="cls-5" d="M95.42,33.14,23.23,148.87"/><path class="cls-5" d="M99.88,21,21.23,148"/><path class="cls-5" d="M97.88,20.17l-78.67,127"/><path class="cls-5" d="M90.22,30.16S59.1,75.14,47.64,96c-10.85,19.77-30,49.59-30,49.59"/><path d="M9.53,163c2.64-6.14,6.8-11.88,8-18.5,2.4,1.24,4.57,3.27,7,4.51-4.81,4.16-7.89,10.25-11,16.47A12.45,12.45,0,0,1,9.53,163Z"/><path class="cls-6" d="M126.93,56.61S80.38,75.86,59.31,84.8C39.64,93.12,9.2,109,9.2,109l-.61-1.49s39.92-19.76,51.1-24.34,66.54-28.3,66.54-28.3Z"/><path d="M9.1,108.79l1.56,3.81s31.5-15.56,52.76-25c23.54-10.44,65-27.39,65-27.39l-1.49-3.61L123.52,58a2,2,0,0,1-.3,2.08c-.84.8-41,17.52-58.59,24.86C47.31,92.14,18.68,106.6,13.1,109.44a3.25,3.25,0,0,1-1.56.4c-.6-.1-1.13-1.62-1.13-1.62Z"/><path d="M136.06,55l-9.36,3.83.73,1.77,9.35-3.83Z"/></g></g></svg>