<svg xmlns="http://www.w3.org/2000/svg" viewBox="0 0 82.86 161.85"><defs><style>.cls-1{fill:#814114;}.cls-2{fill:#db7a1c;}.cls-3{fill:#593219;}.cls-4{fill:#fff;}</style></defs><title>bear</title><g id="Layer_2" data-name="Layer 2"><g id="Layer_1-2" data-name="Layer 1"><path class="cls-1" d="M13.07,9.4c-.44-2-1.18-6.33-3.16-8.27S2.28-.78.76,5.6s8.76,8.92,8.76,8.92Z"/><path class="cls-2" d="M10.72,9.82a19.6,19.6,0,0,0-2-3.73c-1-1.42-4.86-.3-2.65,2.17a21,21,0,0,0,4.13,3.64Z"/><path class="cls-1" d="M45.08,10.4a8.36,8.36,0,0,1,1.86-6.79C49.62.49,54.21.08,56.4,2.32s2.85,7.23-1.17,8.86a34.27,34.27,0,0,0-6.42,3.32Z"/><path class="cls-2" d="M49.38,8.73c.66.66,2,.24,2.48-.2s1.58-1.79.24-3.08S49.18,6,49,6.91A1.92,1.92,0,0,0,49.38,8.73Z"/><path class="cls-3" d="M40.91,139.69c-.15.63.78,5.25,1.47,7.29s6.1,10.26-2.42,11.45c-2.25.31-.84-3.63-1.05-3.67s-1.52,5.45-5.31,4.36.69-5,.42-5.25-5,5.2-6.77,3.31-.15-6.42,9.09-6.88c1-.06-1.69-7.6-.89-10.13S40.91,139.69,40.91,139.69Z"/><path class="cls-1" d="M55.56,43c.17.77,25.45,16.3,27.18,55.88S65.34,142.09,63,142.09s-1.09,15.45-2.18,16.53-3.93,2.84-5.27,2.15-.31-2.62-.48-2.78-2.89,5-5.63,3.64,1.12-4.29.86-4.5-3.7,3.64-5.25,2.57-.45-5.58,8.08-6.46c1-.11-1.46-9.28-1.57-10.26s-14.68,4-29.36-7.07S14.49,80.37,16,75.43s2.76-16.52,2-17.11S-.43,54.26,0,30.92,22.63-5,44.08,6.14,55.28,41.64,55.56,43Z"/><path class="cls-2" d="M41.42,101.43c-2.83-28.7-11.85-34.75-17.51-34.67-4,.06-6.2,3.26-7.4,6.49-.18.8-.36,1.54-.54,2.15s-.48,2-.81,3.93c-.05.43-.07.69-.07.69l-.49,2.89c-2.06,14.4-4.08,44.19,7.57,53a36.25,36.25,0,0,0,8,4.6C37.18,142,44,127.94,41.42,101.43Z"/><path class="cls-4" d="M42.77,22.05c0-3.05-1.74-5.86-4.61-5.86a5.58,5.58,0,0,0-5.83,5.5,4.94,4.94,0,0,0,5.21,5.53A5.1,5.1,0,0,0,42.77,22.05Z"/><path class="cls-4" d="M17,21.37c0-3.09-1.81-5.82-5.37-6C8.7,15.25,6.37,17.9,6.37,21a5.43,5.43,0,0,0,5.27,5.58A5.17,5.17,0,0,0,17,21.37Z"/><path d="M12.6,20.89c0-.61-.18-1.19-.95-1.22A1.15,1.15,0,0,0,10.48,21a1.05,1.05,0,0,0,1.17,1A.93.93,0,0,0,12.6,20.89Z"/><path d="M38.43,22a1.15,1.15,0,0,0-1.12-1.14c-.81.07-1,.63-1,1.26a1,1,0,0,0,1,1C38.05,23.16,38.43,22.83,38.43,22Z"/><path class="cls-2" d="M10,39.82c.68,4.46,3.33,13,13.33,13.85S37.6,49.45,38.41,41.75,37.6,30.06,31,28.91s-15.9.15-19.1,2.73C9.35,33.72,9.78,38.25,10,39.82Z"/><path d="M20.9,42.62c1,.48,5.39-4.62,6.11-6.06s1-4.24-2.12-4.9-8,.24-8.47.92S15.74,40.05,20.9,42.62Z"/><path d="M20.8,41.18s1.05,6.25,1,6.78-1.2,2.16-1.24,2.65.84.13,1.83-1.3c.56-.81,1.6,1,2.12,1.25s1.18-.75-1-2.28c-1.26-.82-1.94-7.58-1.94-7.58S20.75,39.45,20.8,41.18Z"/><path class="cls-1" d="M38,74.86c-1.49,1-11.47,12.54-13.13,21.19s.14,13.29,1.76,13.56c5.27.88,1.46-5.68,1.93-5.8s.93,5.67,4.57,4.84-.69-5.74-.36-6.22,3.83,4.67,5.63,1.29-.59-4.6-6.56-6c-.74-.17,7-15.47,11.16-18C45.86,78.12,42.34,72.06,38,74.86Z"/></g></g></svg>