<svg xmlns="http://www.w3.org/2000/svg" viewBox="0 0 168.02 100.83"><defs><style>.cls-1,.cls-8{fill:none;stroke:#000;stroke-linecap:round;}.cls-1{stroke-width:0.51px;}.cls-2{fill:#814114;}.cls-3{fill:#998d32;}.cls-4{fill:#b1b841;}.cls-5,.cls-6{opacity:0.6;}.cls-6{fill:#dad8cc;isolation:isolate;}.cls-7{fill:#fff;}.cls-8{stroke-width:0.41px;}</style></defs><title>cricket</title><g id="Layer_2" data-name="Layer 2"><g id="Layer_1-2" data-name="Layer 1"><path class="cls-1" d="M128,12.79c-1.33-4.46-.49-10,1.72-12.54"/><path class="cls-2" d="M95.57,75.66c0,3.16.08,8-.74,10.27-4.84-1.25-6.2,1.93-3.89,2.56,3.68,1,6.37,1.68,6.86-.9C98.37,84.62,99.33,71.75,95.57,75.66Z"/><path class="cls-3" d="M119.07,17c1.85-5.59,10.68-8.28,17.35-5a125.85,125.85,0,0,1,15.82,9.48c5.26,3.85,11.8,6.73,14.83,13.19,2.42,5.65-2,12.28-6.58,15.72-7.05,5.28-15.91,5.94-18.49,5.83-1.45,1.45-3,4.23-4.42,6-6.25,7.53-17.86,14.49-25.35,16.7a101.88,101.88,0,0,1-15.38,3c-5,.61-14.68,1.87-19.73.67-8.29-1.81-28.12-8-15-19.51C67.3,58.52,79.6,49,83,46.56c2.63-1.62,20-17.43,23.48-20C111.47,22.78,116.56,19.12,119.07,17Z"/><path class="cls-4" d="M106.49,26.52l.31-.25c0,.16.11.35.15.52,2.38,9.11,23.85,23.7,34.18,30.3-1.2,1.52-2.42,3.62-3.59,5a45.36,45.36,0,0,1-7.14,6.75,61.32,61.32,0,0,1-20.13-8.49A81.37,81.37,0,0,1,89.76,41C95.93,35.64,104.21,28.24,106.49,26.52Z"/><path class="cls-4" d="M65.34,60.33c5.41-4.46,13.32-10.57,16.81-13.14a.59.59,0,0,0,0,.17c2.4,9.19,25.1,24.26,34.16,30a36.72,36.72,0,0,1-4.12,1.53,101.88,101.88,0,0,1-15.38,3c-1.66.21-3.83.46-6.16.69a60.74,60.74,0,0,1-5.39-3.11A78.39,78.39,0,0,1,65.34,60.33Z"/><g class="cls-5"><g class="cls-5"><path class="cls-6" d="M31.26,48.09c8.5-3,25.6-9.29,37.53-13.54,13.74-5,30.38-10.32,44.72-13.14,0,4.25,1.73,9.84-5.13,21.24C107.08,44.81,93.59,61.87,84,70.34c-2.23,2-20.24,18-32.33,23.34-15.44,6.75-39.53,10-49.84,3.12C-.36,95.35-.06,88.74,1.1,86a12.29,12.29,0,0,1,0-7c.56-1.77,1.83-2.91,2.84-4.12,1.22-1.41.39,0,.79-1.79.4-2.23.51-3.56,1.92-5.57C8.46,64.92,10,65,12.41,63.21,15.86,60.63,21.73,51.5,31.26,48.09Z"/></g></g><path class="cls-7" d="M131.29,14.34c4.65.91,6.75,3.81,7.42,7.8.76,4.48-3.87,8-7.7,7.78a9,9,0,0,1-8.56-9.67C122.68,16,127.46,13.33,131.29,14.34Z"/><path d="M128.53,21.45A1.61,1.61,0,0,1,130,22.78a1.28,1.28,0,0,1-1.34,1.36,1.59,1.59,0,0,1-1.52-1.7A1.11,1.11,0,0,1,128.53,21.45Z"/><path class="cls-2" d="M117.91,72.44c1.62-2.41,2.82-4.83,5.85-4,2.42.61,5.07,4.85,6.48,6.69,1.62,2,3.42,5.17,5,7,2.82,3.24,3.05-2.34,6.27-.61,1.27.69-3.43,5.44-5.66,5.26-1.4-.22-3.82-4-5-5.66-2.48-3.64-7.34-10-8.56-9.72C120.77,71.67,120.14,74.15,117.91,72.44Z"/><path class="cls-2" d="M109.2,76.17c-7-3.81-7.51-.36-6.44,4.83,1,4.84,3.39,11.27,3.16,11.46a6.74,6.74,0,0,0-4.73,2.25c-.72,1.16.23,2.4,1.78,1.88,3.39-1.12,7-.45,5.92-4.13a137.28,137.28,0,0,1-3.54-14.32C105.06,76.59,109.52,79.6,109.2,76.17Z"/><path class="cls-2" d="M130.87,62.44c1.79-10.1,9-3,12.16,1,2.9,3.66,3.89,5.43,5.7,5.83,1.62.4,4.94-3.47,5.8-.67.66,2.12-3.7,5-5.72,4.37-2.42-.61-3.66-2.56-5.05-4.25a64.44,64.44,0,0,0-5.66-6.39c-1.13-1.09-2.12-2.4-3.55-2C133.35,60.75,132.68,64.24,130.87,62.44Z"/><path class="cls-1" d="M124.91,13.27c-2.58-3.78-10.41-8.85-13.65-9.46"/><path class="cls-8" d="M31.26,48.09c8.5-3,25.6-9.29,37.53-13.54,13.74-5,30.38-10.32,44.72-13.14,0,4.25,1.73,9.84-5.13,21.24C107.08,44.81,93.59,61.87,84,70.34c-2.23,2-20.24,18-32.33,23.34-15.44,6.75-39.53,10-49.84,3.12C-.36,95.35-.06,88.74,1.1,86a12.29,12.29,0,0,1,0-7c.56-1.77,1.83-2.91,2.84-4.12,1.22-1.41.39,0,.79-1.79.4-2.23.51-3.56,1.92-5.57C8.46,64.92,10,65,12.41,63.21,15.86,60.63,21.73,51.5,31.26,48.09Z"/><path class="cls-8" d="M4.23,74.61c4.25,1,21.71.55,25-.67C35.66,71.31,62.82,57,69.28,52.59c7.27-4.83,37.78-25.78,43.44-31"/><path class="cls-8" d="M1.09,86c6.27,2.84,20.26,1.93,27,.92C35.72,85.69,38.9,84.85,46,81.42c5.85-3,16.94-8.36,25.52-14.74C83.16,58,97.92,46.79,113.68,26.2"/><path class="cls-8" d="M11.4,64c14.24-.84,38.56-.84,52.34,7.55"/><path class="cls-8" d="M31.16,63.61c4.25-2,8.31-6.37,10.94-10a30.1,30.1,0,0,0,5.34-11.39"/><path class="cls-8" d="M46.11,65.44a43.56,43.56,0,0,0,9.72-14.26,87.43,87.43,0,0,0,4.59-13.6"/><path class="cls-8" d="M58.8,43.24C66.22,47,73.69,47.7,77.69,46.92"/><path class="cls-8" d="M76.07,32a30,30,0,0,0,18.55,3.16"/><path class="cls-8" d="M34.35,86C38,90.87,49,92.88,53.45,92.88"/><path class="cls-8" d="M76.07,63.61a30.75,30.75,0,0,0,12.16,2.7"/><path class="cls-8" d="M27.9,74.55c-2.23,2.75-2,8.49.14,12.36"/><path class="cls-8" d="M85.09,42.21c0,3.34.89,9.29,3.66,10.45"/><path class="cls-1" d="M148.66,49.08c-.35,1.14-2,2.65-4.75,2.17a6,6,0,0,1-4.61-4"/><path class="cls-4" d="M156.93,24.63s-.63,14.82,6.31,13.62a9.93,9.93,0,0,0,4.44-1.7,7.46,7.46,0,0,0-2.31-7.93A17.38,17.38,0,0,0,156.93,24.63Z"/></g></g></svg>