<svg xmlns="http://www.w3.org/2000/svg" viewBox="0 0 137 80.24"><defs><style>.cls-1{fill:#a85318;}.cls-2{fill:#814114;}.cls-3{fill:#fff;}</style></defs><title>spider</title><g id="Layer_2" data-name="Layer 2"><g id="Layer_1-2" data-name="Layer 1"><path d="M38.69,36.36c-4.28-3.82-7.31-7.92-11.8-10.93a2.78,2.78,0,0,0-3.33.47c-5.37,5.93-10,11.43-15.92,16.75-.38-.34-.77-.71-1.18-1C4.66,40,2,42.65,3.8,44.26c.84.76,1.67,1.49,2.51,2.26a1.92,1.92,0,0,0,2.67,0c5.93-5.39,15.21-16.73,16.62-17.29,1.23-.49,7,7.26,12.1,10.76C39.4,41.15,41.12,38.55,38.69,36.36Z"/><path d="M42.9,23.54C41.12,21.89,31.36,7.48,27,9.13c-3.57,1.33-6.23,5.2-8.62,8-3.61,4.21-8.29,7-12.63,10.39a19,19,0,0,0-2.9-1.93c-2.11-1.2-4,2-1.89,3.24a15.3,15.3,0,0,1,3.37,2.47,1.94,1.94,0,0,0,2.67,0C10.87,28.07,15.46,25.6,19,22c2.6-2.62,4.75-5.6,7.48-8.09,3.82-3.5,11.58,11,14.5,12.9C43.05,28.11,44.68,25.19,42.9,23.54Z"/><path d="M133.35,16.39c-.13.9-.28,1.8-.46,2.68-3.6-2.57-6.53-5.82-9.81-8.82A125.31,125.31,0,0,1,113.54,1,2.5,2.5,0,0,0,110,.78c-4.57,4.81-8,10.3-11.49,15.39-1.4,2,1.87,3.87,3.24,1.89,2.88-4.12,8.47-13.27,9.48-13.59,1.22-.39,6.89,6.31,10.35,9.45,3.85,3.48,7.11,7.19,11.67,9.81A1.9,1.9,0,0,0,136,22.62c.43-1.74.73-3.48,1-5.27C137.32,15,133.69,14,133.35,16.39Z"/><path d="M130.57,34.6c-.62.77-1.22,1.55-1.82,2.34-4.41-5.3-7.35-11.68-12.81-16.11-1.44-1.16-3.54-2.47-5.45-1.52-3,1.48-6.15,5.48-8.23,8-1.53,1.87,1.14,4.53,2.66,2.66,1.68-2.06,3.78-3.71,5.52-5.77,2.62-3.07,7,3.24,8.38,5.17,2.94,4,5.33,8.27,8.75,11.88a1.9,1.9,0,0,0,2.94-.39,34.93,34.93,0,0,1,2.71-3.63C134.72,35.39,132.08,32.71,130.57,34.6Z"/><path class="cls-1" d="M69.22,4.13C42.32,5.5,37.55,25.06,37.57,36.86c0,3.67,2.86,18.94,16.39,25.32,8.17,3.84,28.56,6,38.5-4C99.51,51.14,104.6,42,104.6,32.11c0-18.34-15.9-28-31.84-28Z"/><path d="M49.47,56.1c-7.5.92-14.28,5-21,8.27a1.84,1.84,0,0,0-.86,2.12c1.23,3.05,3,5.76,4.49,8.68-1.8,1.39-4.38,3.76-2.85,4.7,2.12,1.35,4.57-1.37,6.14-2.51a2,2,0,0,0,.69-2.58c-1.2-2.75-2.9-5.24-4.21-7.92,5.58-2.82,11.41-6.27,17.61-7C51.86,59.56,51.88,55.8,49.47,56.1Z"/><path d="M40.84,48a43.74,43.74,0,0,1-6.53-3.65c-1.74-1-4.19-3-6.36-2.71-3.25.5-4.34,3.44-5.22,6.25A99.61,99.61,0,0,1,17.29,62.3a20.18,20.18,0,0,0-3-1,1.84,1.84,0,0,0-2-.19,3.45,3.45,0,0,1-.47.24c-1.74.9-.82,3.41.94,3.5a14.45,14.45,0,0,1,4.54,1.5,1.9,1.9,0,0,0,2.57-.69,116.34,116.34,0,0,0,5.59-13.46c.73-2,1-4,1.93-5.91s3.08.09,4.28.8c2.1,1.22,9.71,7,11.21,3.58C43.46,49.14,42.34,48.52,40.84,48Z"/><path d="M126.69,57.86c-.82.62-1.66,1.24-2.48,1.87-1.35-2.79-5.24-16.58-6.78-21.52-.89-2.84-2.37-3.61-3.31-3.31A39.61,39.61,0,0,0,99,43.64c-1.78,1.66.88,4.32,2.67,2.66a35.27,35.27,0,0,1,11.64-7.15c1.27,4.3,6.3,20.88,8.7,24.31a1.92,1.92,0,0,0,2.58.69c1.33-1,2.69-2,4-3C130.49,59.64,128.62,56.38,126.69,57.86Z"/><path d="M113.11,75.13c-1.07,0-2.11,0-3.14.12,1.38-4.63,2.8-9.25,4.62-13.76.65-1.63,1.7-6.34-.88-7.07a43.62,43.62,0,0,0-20.15-1c-2.36.5-1.35,4.12,1,3.63a37.57,37.57,0,0,1,16.28.49l.54.18a17.08,17.08,0,0,1-1.57,5.52c-1.82,4.4-2.94,9.21-4.27,13.78a1.91,1.91,0,0,0,2.32,2.32,25.77,25.77,0,0,1,5.26-.43C115.54,78.86,115.54,75.1,113.11,75.13Z"/><path d="M71.41.45c-.26,1.4-.28,2.84-.5,4.26-.12.79,1.1,1.13,1.21.32.21-1.42.23-2.86.49-4.25C72.78,0,71.56-.34,71.41.45Z"/><path d="M51.94,6.94a7.12,7.12,0,0,0,3.63,3.28c.76.28,1.1-.92.33-1.2A5.92,5.92,0,0,1,53,6.29C52.61,5.63,51.51,6.25,51.94,6.94Z"/><path d="M95.27,5.93a13,13,0,0,1-3.54,3.54c-.67.45,0,1.53.62,1.08a15.14,15.14,0,0,0,4-4C96.82,5.89,95.73,5.26,95.27,5.93Z"/><path d="M89.11,15.44c-1.12,1.16-1.76,2.71-3,3.76-.62.52.28,1.4.91.88,1.24-1,1.89-2.6,3-3.76C90.55,15.74,89.67,14.86,89.11,15.44Z"/><path d="M77.25,11.81a22.81,22.81,0,0,0-1.76,3.27c-.37.71.73,1.35,1.07.62a20.94,20.94,0,0,1,1.77-3.26C78.8,11.79,77.7,11.17,77.25,11.81Z"/><path d="M60.71,14.71a17.32,17.32,0,0,1,1.7,4.36c.15.8,1.35.45,1.2-.34a18.44,18.44,0,0,0-1.83-4.66C61.42,13.36,60.34,14,60.71,14.71Z"/><path d="M95.77,37.63A6.91,6.91,0,0,0,99.85,39a.63.63,0,0,0,0-1.25,5.77,5.77,0,0,1-3.44-1.16C95.75,36.06,95.12,37.16,95.77,37.63Z"/><path d="M45.65,20.45a12.61,12.61,0,0,1,2.88,2.14c.58.56,1.46-.32.88-.88a13.54,13.54,0,0,0-3.14-2.36C45.56,19,44.92,20.06,45.65,20.45Z"/><path d="M48.1,51.57a29,29,0,0,1-4.49,3.26.63.63,0,0,0,.6,1.1A31.51,31.51,0,0,0,49,52.47C49.58,52,48.7,51.05,48.1,51.57Z"/><path d="M88.7,55.63c.32,2.06,1.74,3.62,2.49,5.51.3.76,1.51.43,1.21-.32-.76-1.87-2.17-3.48-2.52-5.52C89.77,54.51,88.57,54.83,88.7,55.63Z"/><path d="M99.92,48.8a32,32,0,0,0,5,1.24c.8.13,1.14-1.09.32-1.2a31,31,0,0,1-5-1.25C99.47,47.34,99.14,48.56,99.92,48.8Z"/><path d="M99.38,27.21c-.86.88-1.64,1.87-2.52,2.75-.56.58.33,1.46.88.88.89-.88,1.64-1.87,2.52-2.75A.62.62,0,0,0,99.38,27.21Z"/><path d="M42.12,36.12l.24.41v0l-.22.58c-.06,0-.17.09-.06,0l.32-.06.9-.17c.59-.11,1.19-.2,1.79-.32.77-.18.58-1.42-.22-1.23s-1.65.3-2.47.45a6,6,0,0,0-.86.22.64.64,0,0,0-.13,1.11C42.08,37.56,42.81,36.55,42.12,36.12Z"/><path d="M79.83,68.81a40.09,40.09,0,0,1-1.7,9.94c6.3-7.08,6.17-17.11,6-18.49-.13-.86-.58-2.55-.58-2.55L79,59.3A61.13,61.13,0,0,1,79.83,68.81Z"/><path d="M57.66,58.67c-1,1.85-.88,11.9,4.47,20.08-1.14-6.14-1.76-13.78.94-19Z"/><path class="cls-2" d="M86.83,32.47a20.67,20.67,0,0,0-11.9-8,21.75,21.75,0,0,0-16.39,2.28c-5.18,3-8.53,8.74-9.39,14.84a17.28,17.28,0,0,0,3.09,13.29c3.2,4.79,10.81,5.89,10.81,5.89,3.63.53,12,.53,15.9-.45,0,0,4.94-1.38,7.17-3.8A14,14,0,0,0,89.22,52a23.72,23.72,0,0,0,1.5-8.16A22.9,22.9,0,0,0,86.83,32.47Z"/><path class="cls-3" d="M76,33a10,10,0,0,0,1,10.4C80,47,86.3,46.24,87.78,45.51a6.55,6.55,0,0,0,2.9-2.94c1.61-3,1.18-6.62-.11-9.73-1.09-2.62-3.67-3.67-6.27-3.91C80.88,28.59,77.51,29.64,76,33Z"/><path class="cls-3" d="M59.25,30.41a9.08,9.08,0,0,0-4.77,0,8.78,8.78,0,0,0-6.28,6.64c-1.11,6,3.51,11.27,9.78,9.64C65.76,44.82,67.52,32.3,59.25,30.41Z"/><path d="M55.62,37.69c-1.42.75-.86,2.88.43,2.75C58.73,40.21,57.7,36.58,55.62,37.69Z"/><path d="M83.14,40.23c1.42-.75.86-2.86-.43-2.75C80,37.69,81.05,41.34,83.14,40.23Z"/></g></g></svg>