<svg xmlns="http://www.w3.org/2000/svg" viewBox="0 0 375.79 132.37"><defs><style>.cls-1{fill:#f7931d;}.cls-2{fill:#fff;}</style></defs><title>burbuja</title><g id="Layer_2" data-name="Layer 2"><g id="Layer_1-2" data-name="Layer 1"><path class="cls-1" d="M123.4,58S115,79.45,103,93.58c-22.85,26.57-60.41,38.79-60.41,38.79s50.36-42.91,48.2-69.94C89.84,51.29,86.31,52,86.31,52Z"/><path class="cls-1" d="M51.06,3.3C109-.23,319.24-1.36,353.22,2.06c32.64,3.29,28.17,79.25-2.43,79.42-49,.26-257.86,3.25-291.27,4.83C3.55,83.05-.17,75.47,0,49,.31.48,12.23,5.67,51.06,3.3Z"/><path class="cls-2" d="M283.44,63.72c-.06,0-.11-.17-.15-.41s-.05-.39-.05-.45a12.34,12.34,0,0,1-.09-3.43,22.73,22.73,0,0,0,.14-3.39,34.68,34.68,0,0,0-.45-4.29c-.24-1.43-.42-2.85-.56-4.29q0-1.68,0-3.24c0-1,.05-2.12.05-3.24a24.65,24.65,0,0,0-.09-3.09c-.1-1-.18-2.08-.24-3.1V33.16a7.82,7.82,0,0,1-.1-.82c0-.38-.06-.79-.1-1.22s-.06-.84-.09-1.22,0-.66,0-.82a3.11,3.11,0,0,1,.19-.57.74.74,0,0,1,.39-.34,2.31,2.31,0,0,1,.55-.12,4.3,4.3,0,0,1,.6-.07,11.93,11.93,0,0,1,4.75.24,9.75,9.75,0,0,1,3.67,1.87,10.24,10.24,0,0,1,2.54,3.19,13.79,13.79,0,0,1,1.37,4.15A29,29,0,0,1,296,41q0,1.73-.15,3.6a4.92,4.92,0,0,1,.05,1.87,7.78,7.78,0,0,0-.05,1.87c0,1,.1,2.22.2,3.57a23.16,23.16,0,0,1-.08,4.08,12.31,12.31,0,0,1-1,3.79,5.63,5.63,0,0,1-2.57,2.71,12,12,0,0,1-3.67,1.15c-1.3.2-2.58.38-3.86.53a3.21,3.21,0,0,0-.46,0,3.13,3.13,0,0,1-.45,0c-.06-.06-.16-.13-.27-.22A.5.5,0,0,1,283.44,63.72ZM288,57.39a.62.62,0,0,0,.63.33,1.06,1.06,0,0,0,.84-.57,5.21,5.21,0,0,0,.48-1.18,11.38,11.38,0,0,0,.24-1.32c0-.44.08-.8.12-1s.06-.54.09-.94.06-.78.1-1.15.06-.68.07-1,0-.42,0-.45l0-.39c0-1.76,0-3.57,0-5.44a31,31,0,0,0-.38-5.54,12.83,12.83,0,0,0-.55-2.21,5.35,5.35,0,0,0-1.37-1.82,2.92,2.92,0,0,0-.26-.39.5.5,0,0,0-.46-.09c-.15,0-.21.16-.17.4s.08.38.08.41c.09,2,.15,3.9.19,5.85s.08,3.9.14,5.86a47.07,47.07,0,0,1-.14,4.87,20.84,20.84,0,0,0,.19,4.87,2.89,2.89,0,0,0,.07.45A2.79,2.79,0,0,1,288,57.39Z"/><path class="cls-2" d="M26.51,63.29,26.13,63a.52.52,0,0,1-.19-.41,21.27,21.27,0,0,1,0-4.65,40.94,40.94,0,0,0,.26-4.66c0-1.92-.06-3.85-.16-5.78s-.23-3.87-.36-5.8-.23-3.87-.32-5.79-.08-3.82,0-5.7a1.45,1.45,0,0,1,.17-.63.61.61,0,0,1,.5-.38,4.46,4.46,0,0,1,1.13.05,4.09,4.09,0,0,0,1.08,0l.72,0,1.13-.05,1.12-.05.72,0a2.87,2.87,0,0,0,.39-.05L33,29c.25,0,.49-.06.69-.1a2.44,2.44,0,0,1,.41-.05c.19,0,.5,0,.94-.05a9.26,9.26,0,0,1,1.29,0,6.58,6.58,0,0,1,1.18.2.67.67,0,0,1,.57.57l.34,4a.69.69,0,0,1-.34.65,1.59,1.59,0,0,1-.72.31,7.29,7.29,0,0,1-1.92-.07,7.51,7.51,0,0,0-2-.07l-.63,0a4.74,4.74,0,0,0-.79.12,2,2,0,0,0-.69.29.64.64,0,0,0-.29.58,29.36,29.36,0,0,1,0,4,22.52,22.52,0,0,0,.05,4,5.4,5.4,0,0,0,0,.62,1,1,0,0,0,.29.62,1.42,1.42,0,0,0,.6.22,4.68,4.68,0,0,0,.84.07l.82,0,.57,0c.13,0,.37,0,.72,0l1.11-.12,1.1-.12a6.67,6.67,0,0,1,.72-.05.29.29,0,0,1,.24.17.57.57,0,0,1,.09.26l.34,3.12a1.27,1.27,0,0,1-.22.86.89.89,0,0,1-.64.48,7.1,7.1,0,0,1-2.11,0,9.16,9.16,0,0,0-2.16-.07,1.72,1.72,0,0,0-1,.36,1.3,1.3,0,0,0-.39.64,3.81,3.81,0,0,0-.09.87v1c0,.1,0,.33,0,.7s-.07.76-.12,1.18-.08.8-.12,1.15a4,4,0,0,1-.1.67c.06,0,.09.13,0,.29a.53.53,0,0,0,.05.38,3.54,3.54,0,0,0,.1.7.48.48,0,0,0,.52.4H38a6,6,0,0,1,1.39.15c.42.09.71.44.86,1.05a3.6,3.6,0,0,0,.08.46c0,.24.09.51.14.81s.09.62.14.92.09.54.12.69v.29c.06.44-.05.71-.33.77l-1,.19a22.66,22.66,0,0,1-4,.12c-1.35-.08-2.69-.13-4-.17a2.33,2.33,0,0,0-.72,0L30,63.1l-.7,0c-.34,0-.68,0-1.05.07s-.71.06-1,.08Z"/><path class="cls-2" d="M47.43,60.6a30.46,30.46,0,0,1-.19-5.51c.09-1.89.11-3.75,0-5.57s-.16-3.42-.29-5.06-.18-3.34-.15-5.06,0-3.59,0-5.18a35.3,35.3,0,0,0-.36-5.09A1.51,1.51,0,0,1,47.31,28a3.75,3.75,0,0,1,1.37-.5,8,8,0,0,1,1.7,0,2.47,2.47,0,0,1,1.56.72c0,.06,0,.19,0,.38s0,.33,0,.39a15.4,15.4,0,0,1-.05,3.64,20.47,20.47,0,0,0-.14,3.6c0,.13,0,.61.07,1.47s.11,1.81.17,2.9.13,2.18.19,3.28.11,2,.14,2.62c.1,1.53.16,3,.17,4.49s.11,2.93.26,4.43c.1.61.36,1,.79,1.06a6.37,6.37,0,0,0,1.42.12c.52,0,1,0,1.42,0s.68.3.74.82c0,1,0,1.85-.07,2.47a15.36,15.36,0,0,1-.22,1.7c-.1.52-.25.77-.48.77,0,0-.08.05-.17.05h-.16l-3.75-.17c-1.28-.05-2.55-.13-3.83-.26-.42,0-.69-.16-.8-.36A3.91,3.91,0,0,1,47.43,60.6Z"/><path class="cls-2" d="M86.23,65.11a2.45,2.45,0,0,1-1.06-.36,1.92,1.92,0,0,1-.62-.93,7.81,7.81,0,0,1-.29-1.59A8.33,8.33,0,0,0,84,60.6c-.34-1.63-.68-3.26-1-4.92s-.6-3.28-.89-4.91a26.39,26.39,0,0,0-.89-3.19,25.45,25.45,0,0,1-.88-3.1A14.62,14.62,0,0,1,80,42.61a11.29,11.29,0,0,0-.38-1.87c-.42-1.4-.89-2.9-1.39-4.49a17,17,0,0,1-.87-4.62s0-.14,0-.29a1.76,1.76,0,0,1,0-.46,2.26,2.26,0,0,1,.15-.41.35.35,0,0,1,.33-.19c.06,0,.23.11.48.22a2.81,2.81,0,0,0,.43.17,17.64,17.64,0,0,0,2.31.24c.82,0,1.58,0,2.25,0l.63.39a56.62,56.62,0,0,0,1.51,8.23q1,3.9,1.94,8v.7a4.62,4.62,0,0,0,0,.76,2.42,2.42,0,0,0,.19.7.87.87,0,0,0,.48.48.93.93,0,0,0,.41-.6,1,1,0,0,0,0-.74l1.2-5.57c-.06-.13-.08-.21,0-.26l.12-.15a.27.27,0,0,0,.1-.16.78.78,0,0,0,0-.29L91,37.14l0-.38.19-.65c.1-.3.19-.63.29-1s.18-.69.26-1,.14-.52.17-.65a11.39,11.39,0,0,0,.22-1.23,4,4,0,0,1,.29-1.1,2.1,2.1,0,0,1,.64-.84,2.18,2.18,0,0,1,1.25-.38,1.58,1.58,0,0,1,.46,0h.31a1.78,1.78,0,0,1,.36,0L96,30c.19,0,.37.06.53.08l.33,0a15.43,15.43,0,0,1,1.63.24c.48.1.74.49.77,1.2a5.62,5.62,0,0,1-.41,2.52A21.9,21.9,0,0,0,98,36.42c-.63,2.63-1.22,5.27-1.75,7.92a51.94,51.94,0,0,1-2.23,7.87v.14c0,.16-.11.44-.22.84s-.22.83-.36,1.27l-.36,1.27a6.89,6.89,0,0,1-.26.84,2,2,0,0,0-.1,1.06l-.16.5c-.09.24-.16.49-.24.77s-.16.54-.24.79a1.72,1.72,0,0,0-.12.53,3.36,3.36,0,0,0-.12.53c-.05.25-.11.54-.17.86s-.12.62-.17.91-.08.49-.12.63c-.06.38-.13.8-.21,1.24a.82.82,0,0,1-.84.72l-.34,0-.24,0H88l-1.08,0C86.59,65.11,86.35,65.11,86.23,65.11Z"/><path class="cls-2" d="M105,61.23a.64.64,0,0,1,0-.22c0-.08,0-.13,0-.17,0-.42.09-.92.15-1.51a5.55,5.55,0,0,1,.33-1.46,1,1,0,0,1,.48-.51,7.29,7.29,0,0,1,.7-.28l.7-.24a1.11,1.11,0,0,0,.52-.41s.06,0,.08-.15,0-.18,0-.24,0-.19,0-.38,0-.41,0-.65,0-.46,0-.69v-.48c-.1-2.59-.12-5.17-.08-7.73s0-5.12-.16-7.67c0-.06,0-.19,0-.39a3.78,3.78,0,0,1-.07-.62c0-.23,0-.43,0-.62s0-.34,0-.44a.61.61,0,0,0-.45-.52l-.79-.19a2.2,2.2,0,0,1-.77-.32,1,1,0,0,1-.39-.79.29.29,0,0,0,0-.09.36.36,0,0,1,0-.1v-1c0-.47,0-1,0-1.49s0-1,0-1.49v-.93c.06-.26.15-.58.24-1s.28-.62.53-.68l.1.05h.09a10.14,10.14,0,0,0,2,.12c.86,0,1.74,0,2.64.05a14.89,14.89,0,0,1,2.52.34,2.7,2.7,0,0,1,1.65.93,1.4,1.4,0,0,1,.24.91,6,6,0,0,0,.05,1,8.46,8.46,0,0,1-.12,2.88,2.45,2.45,0,0,1-.62,1.11,2,2,0,0,1-.75.38c-.25.06-.42.32-.48.77a27.34,27.34,0,0,0-.38,4c0,1.34,0,2.68,0,4s.12,2.67.22,4,.18,2.67.24,4v1.39c0,.32,0,.61,0,.89s0,.44,0,.5v.38a.87.87,0,0,0,.43.77,6.37,6.37,0,0,0,.86.36,3.86,3.86,0,0,1,.89.43,1.28,1.28,0,0,1,.5,1c0,.23,0,.55,0,1a8.16,8.16,0,0,1-.07,1.3,3.64,3.64,0,0,1-.36,1.17,1,1,0,0,1-.84.58,8.13,8.13,0,0,1-2.19.09,13.18,13.18,0,0,0-2.18,0c-.1,0-.32,0-.7.08l-1.15.14-1.15.12c-.37,0-.6,0-.69,0a2.23,2.23,0,0,1-1.25-.27A1.33,1.33,0,0,1,105,61.23Z"/><path class="cls-2" d="M122.6,55.18a2.72,2.72,0,0,1-.08-.53c0-.22,0-.44,0-.67s0-.42,0-.6,0-.3,0-.36q0-.92-.09-2.37c0-1-.06-1.95-.1-2.91s-.06-1.81-.09-2.54-.05-1.15-.05-1.25c0-1,0-2,.07-3.14s.16-2.29.31-3.45a18.76,18.76,0,0,1,.79-3.41,11.62,11.62,0,0,1,1.47-3A7.23,7.23,0,0,1,127,28.89a8.07,8.07,0,0,1,3.43-1h1a14.38,14.38,0,0,1,2.59.6,9.12,9.12,0,0,1,2.26,1.1A7.89,7.89,0,0,1,138,31.29a6.6,6.6,0,0,1,1.13,2.3c0,.13.07.45.12.94s.07.83.07,1,0,.64,0,1.13,0,.78,0,.84c0,.32,0,1,0,2.09s0,2.24.07,3.5.06,2.49.08,3.69,0,2.09,0,2.66c0,.81,0,1.72,0,2.76s0,2.13-.09,3.24a32.9,32.9,0,0,1-.43,3.31,9.88,9.88,0,0,1-1,2.93,6.52,6.52,0,0,1-1.87,2.13,5.21,5.21,0,0,1-2.92.94,11.12,11.12,0,0,1-2.91-.19,27.45,27.45,0,0,1-2.8-.77,5.48,5.48,0,0,1-2.35-1.34,7.32,7.32,0,0,1-1.47-2.12,11.25,11.25,0,0,1-.81-2.54A15.08,15.08,0,0,1,122.6,55.18Zm6.38-.33a3.85,3.85,0,0,0,.6,1.79,2,2,0,0,0,2.8.24,2.33,2.33,0,0,0,.55-1,5.81,5.81,0,0,0,.2-1.27c0-.45,0-.87.07-1.25V53c0-.2,0-.43,0-.67s0-.47,0-.67v-.36c.09-1.63.14-3.13.14-4.49s0-2.85-.14-4.48c0-.2,0-.51-.05-.94s-.06-.9-.1-1.39-.06-1-.09-1.39,0-.75,0-.94a5.22,5.22,0,0,0-.36-.79,9.05,9.05,0,0,0-.58-1,3.6,3.6,0,0,0-.72-.79,1.24,1.24,0,0,0-.79-.34,1.27,1.27,0,0,0-.84.46,3.16,3.16,0,0,0-.57,1,7.19,7.19,0,0,0-.34,1.18c-.08.39-.13.73-.17,1a2.09,2.09,0,0,0-.09.48c0,.25-.07.54-.12.87s-.1.62-.15.91-.07.46-.07.52v2c0,.48,0,.95,0,1.42s0,.82,0,1.08V46a.42.42,0,0,0,0,.14.61.61,0,0,1,0,.15v.19c0,.32.09.88.17,1.68s.17,1.64.26,2.52.18,1.71.24,2.52S128.94,54.52,129,54.85Z"/><path class="cls-2" d="M146.3,60.6a31.39,31.39,0,0,1-.2-5.51c.1-1.89.11-3.75.05-5.57s-.15-3.42-.29-5.06a49.64,49.64,0,0,1-.14-5.06c0-1.86,0-3.59,0-5.18a32.66,32.66,0,0,0-.36-5.09,1.52,1.52,0,0,1,.8-1.18,3.71,3.71,0,0,1,1.36-.5,8.13,8.13,0,0,1,1.71,0,2.47,2.47,0,0,1,1.56.72c0,.06,0,.19,0,.38s0,.33,0,.39a15.37,15.37,0,0,1,0,3.64,20.54,20.54,0,0,0-.15,3.6c0,.13,0,.61.07,1.47s.11,1.81.17,2.9.13,2.18.19,3.28.11,2,.15,2.62c.09,1.53.15,3,.17,4.49s.1,2.93.26,4.43c.1.61.36,1,.79,1.06a6.32,6.32,0,0,0,1.42.12c.51,0,1,0,1.41,0a.8.8,0,0,1,.75.82c0,1,0,1.85-.08,2.47a15.48,15.48,0,0,1-.21,1.7c-.1.52-.25.77-.48.77a.22.22,0,0,1-.17.05h-.17l-3.74-.17c-1.28-.05-2.55-.13-3.84-.26-.42,0-.68-.16-.79-.36A3,3,0,0,1,146.3,60.6Z"/><path class="cls-2" d="M161.65,24.28c0-.09.13-.28.41-.57s.57-.6.91-.94.67-.64,1-1,.58-.51.74-.64a4.38,4.38,0,0,0,.41-.34,3.13,3.13,0,0,0,.36-.38l.43-.46c.19-.2.39-.42.62-.65l.65-.64.41-.41a2.24,2.24,0,0,1,.74-.79,1.86,1.86,0,0,1,1-.46.87.87,0,0,1,.48.19,4.8,4.8,0,0,1,.6.46l.56.5a2.08,2.08,0,0,1,.28.34v1a.56.56,0,0,1-.24.43c-.09.09-.27.25-.52.45l-.53.41c-1.06.73-2.12,1.5-3.19,2.28s-2.15,1.55-3.24,2.28a1.16,1.16,0,0,1-.24.07,1.6,1.6,0,0,1-.29,0,1.35,1.35,0,0,1-.93-.39A1.06,1.06,0,0,1,161.65,24.28Zm.19,36.95a.49.49,0,0,1,0-.22.24.24,0,0,0,0-.17c0-.42.08-.92.14-1.51a5.15,5.15,0,0,1,.34-1.46.92.92,0,0,1,.48-.51,6.2,6.2,0,0,1,.69-.28l.7-.24a1.09,1.09,0,0,0,.53-.41s.06,0,.07-.15,0-.18,0-.24,0-.19,0-.38,0-.41,0-.65,0-.46,0-.69v-.48q-.15-3.89-.07-7.73c0-2.55,0-5.12-.17-7.67a2.18,2.18,0,0,0-.05-.39,5.32,5.32,0,0,1-.07-.62c0-.23,0-.43,0-.62s0-.34,0-.44a.62.62,0,0,0-.46-.52l-.79-.19a2.2,2.2,0,0,1-.77-.32.93.93,0,0,1-.38-.79.16.16,0,0,0,0-.09.36.36,0,0,1,0-.1v-1c0-.47,0-1,0-1.49s0-1,0-1.49v-.93q.09-.39.24-1c.09-.39.27-.62.53-.68l.09.05h.1a10,10,0,0,0,2,.12c.87,0,1.74,0,2.64.05a14.89,14.89,0,0,1,2.52.34,2.76,2.76,0,0,1,1.66.93,1.46,1.46,0,0,1,.24.91,7.85,7.85,0,0,0,0,1,8.46,8.46,0,0,1-.12,2.88,2.45,2.45,0,0,1-.62,1.11,1.94,1.94,0,0,1-.74.38c-.26.06-.42.32-.48.77a28.78,28.78,0,0,0-.39,4c0,1.34,0,2.68,0,4s.12,2.67.21,4,.18,2.67.24,4v1.39c0,.32,0,.61,0,.89s0,.44,0,.5v.38a.89.89,0,0,0,.43.77,6,6,0,0,0,.87.36,3.78,3.78,0,0,1,.88.43,1.29,1.29,0,0,1,.51,1c0,.23,0,.55,0,1a8.16,8.16,0,0,1-.07,1.3,3.64,3.64,0,0,1-.36,1.17,1,1,0,0,1-.84.58,8.07,8.07,0,0,1-2.18.09,13.29,13.29,0,0,0-2.19,0c-.09,0-.32,0-.69.08l-1.15.14-1.15.12c-.38,0-.6,0-.7,0a2.27,2.27,0,0,1-1.25-.27A1.36,1.36,0,0,1,161.84,61.23Z"/><path class="cls-2" d="M185.16,50.77a.86.86,0,0,0-.12-.67.68.68,0,0,0-.6-.39h-.15c0,.25,0,.7,0,1.32s0,1.28-.05,2,0,1.38-.05,2,0,1.06,0,1.29v1c0,.65.1,1.27.19,1.9a16.8,16.8,0,0,1,.19,1.89,1.57,1.57,0,0,1-.12.7c-.08.18-.3.26-.64.26a14,14,0,0,1-1.92,0,10.32,10.32,0,0,0-2,.09.81.81,0,0,1-.34-.38l-.19-.38a4.79,4.79,0,0,0-.07-.56,4.3,4.3,0,0,1-.07-.6,29.4,29.4,0,0,1,0-3c0-1,.1-2,.17-3,0-1.64,0-3.23-.07-4.8a26.15,26.15,0,0,1,.31-4.8l-.67-13.48c0-.16,0-.37,0-.62a2.7,2.7,0,0,1,.15-.75,2,2,0,0,1,.33-.62A.69.69,0,0,1,180,29h.19c.76.06,1.4.14,1.89.2s.84.43,1,1.1.54,1.4.84,2.11.6,1.38.89,2a.19.19,0,0,1,.05.16v.17a14.15,14.15,0,0,0,.77,2.66c.34.92.68,1.76,1,2.52a1.8,1.8,0,0,0,.2,1.11,12.55,12.55,0,0,0,.67,1.24c.25.42.49.82.69,1.2a1.41,1.41,0,0,1,.22,1c0,.1.11.3.24.6a10.31,10.31,0,0,1,.36,1c.11.34.21.68.33,1s.21.52.27.65.07.24.12.4l.17.58c.06.2.12.41.16.6a2.11,2.11,0,0,1,.08.38,5.47,5.47,0,0,1,.33,1.2,1.42,1.42,0,0,0,.67,1,2.31,2.31,0,0,0,.24-1,74.49,74.49,0,0,0,.6-10.46c0-3.42-.1-6.92-.16-10.51a2.63,2.63,0,0,1,.24-.38c.13-.2.21-.29.28-.29l3.84-.29c.29,0,.43.08.43.24a.36.36,0,0,0,.29.34,30,30,0,0,0,0,4.24,26.29,26.29,0,0,1,0,4.25c-.22,2.07-.43,4.11-.6,6.09a37,37,0,0,0,0,6.14l-.38,10.6a3.61,3.61,0,0,1-.48,1.18,2.14,2.14,0,0,1-1,.94l-.51,0-.5,0a17.93,17.93,0,0,1-2.3,0,19.5,19.5,0,0,1-2.31-.24c-.42,0-.73-.32-1-.89a8.94,8.94,0,0,1-.5-1.87c-.11-.68-.19-1.34-.24-2s-.08-1-.12-1.23-.1-.39-.19-.81-.18-.71-.24-.87-.16-.44-.29-.86-.26-.85-.41-1.32-.27-.9-.41-1.32S185.22,50.92,185.16,50.77Z"/><path class="cls-2" d="M218.67,62.52a46.22,46.22,0,0,1-.46-6.16q0-3,0-6.12-.09-5.48-.36-10.87c-.18-3.6-.42-7.23-.75-10.91a1.26,1.26,0,0,1,.32-.51,1.22,1.22,0,0,1,.6-.31h.19a58.69,58.69,0,0,1,6,.46A14.51,14.51,0,0,1,229,29.51a9.44,9.44,0,0,1,3.36,2.95,11.6,11.6,0,0,1,1.75,5,12.67,12.67,0,0,1,0,3.14,10,10,0,0,1-.91,3.21,7.69,7.69,0,0,1-2,2.62,5.79,5.79,0,0,1-3.31,1.29,6.47,6.47,0,0,1-1.87-.07c-.61-.1-1.21-.2-1.82-.26a1,1,0,0,0-.51.36,1.25,1.25,0,0,0-.12.6c0,.15,0,.44,0,.86s0,.85.05,1.3,0,.87,0,1.29a5.54,5.54,0,0,0,.08.87c0,.06,0,.24,0,.52a1.73,1.73,0,0,0,.07.53l.1,8.73a6,6,0,0,0-.17.7.7.7,0,0,1-.46.55c-.13,0-.39,0-.79.05a4.66,4.66,0,0,0-.74.09,10.73,10.73,0,0,1-1.15.12,2.56,2.56,0,0,1-.91-.09,1.52,1.52,0,0,1-.65-.43A1.89,1.89,0,0,1,218.67,62.52Zm6-22.5a2,2,0,0,0,.38,1c.19.24.57.33,1.15.27a1.48,1.48,0,0,0,1-.48,3.18,3.18,0,0,0,.55-1,3.4,3.4,0,0,0,.2-1.18c0-.39,0-.74,0-1s-.12-.62-.27-1.2a11.55,11.55,0,0,0-.57-1.72,5.5,5.5,0,0,0-.91-1.49,1.38,1.38,0,0,0-1.23-.53c-.13,0-.23.18-.28.53a8.79,8.79,0,0,0-.12,1.32c0,.53,0,1.1,0,1.72s0,1.2,0,1.73,0,1,.07,1.37S224.67,40,224.67,40Z"/><path class="cls-2" d="M240.35,63.29,240,63a.52.52,0,0,1-.19-.41,21.27,21.27,0,0,1,0-4.65,41,41,0,0,0,.27-4.66c0-1.92-.06-3.85-.17-5.78s-.23-3.87-.36-5.8-.23-3.87-.31-5.79-.09-3.82,0-5.7a1.45,1.45,0,0,1,.17-.63.62.62,0,0,1,.5-.38,4.46,4.46,0,0,1,1.13.05,4.09,4.09,0,0,0,1.08,0l.72,0,1.13-.05,1.12-.05.72,0a2.87,2.87,0,0,0,.39-.05l.72-.09c.25,0,.49-.06.69-.1a2.44,2.44,0,0,1,.41-.05c.19,0,.51,0,.94-.05a9.26,9.26,0,0,1,1.29,0,6.58,6.58,0,0,1,1.18.2.66.66,0,0,1,.57.57l.34,4a.65.65,0,0,1-.34.65,1.59,1.59,0,0,1-.72.31,7.29,7.29,0,0,1-1.92-.07,7.51,7.51,0,0,0-2-.07l-.63,0a4.74,4.74,0,0,0-.79.12,2,2,0,0,0-.69.29.64.64,0,0,0-.29.58,29.36,29.36,0,0,1,0,4,23.49,23.49,0,0,0,0,4,5.4,5.4,0,0,0,0,.62,1.12,1.12,0,0,0,.29.62,1.42,1.42,0,0,0,.6.22,4.68,4.68,0,0,0,.84.07l.82,0,.57,0c.14,0,.38,0,.72,0l1.11-.12,1.1-.12a6.67,6.67,0,0,1,.72-.05.28.28,0,0,1,.24.17.61.61,0,0,1,.1.26l.33,3.12a1.26,1.26,0,0,1-.21.86.91.91,0,0,1-.65.48,7.1,7.1,0,0,1-2.11,0,9.16,9.16,0,0,0-2.16-.07,1.72,1.72,0,0,0-1,.36,1.3,1.3,0,0,0-.39.64,3.81,3.81,0,0,0-.09.87v1c0,.1,0,.33,0,.7s-.07.76-.12,1.18-.08.8-.12,1.15a4,4,0,0,1-.1.67c.06,0,.09.13.05.29a.53.53,0,0,0,0,.38,3.54,3.54,0,0,0,.1.7.48.48,0,0,0,.52.4h5.57a5.92,5.92,0,0,1,1.39.15c.42.09.71.44.86,1.05a3.6,3.6,0,0,0,.08.46c0,.24.09.51.14.81s.1.62.14.92.09.54.12.69v.29c.06.44,0,.71-.33.77l-1,.19a22.63,22.63,0,0,1-4,.12c-1.34-.08-2.69-.13-4-.17a2.33,2.33,0,0,0-.72,0l-.67.07-.7,0c-.33,0-.68,0-1.05.07s-.71.06-1,.08Z"/><path class="cls-2" d="M274.44,62.11A16.89,16.89,0,0,1,273.1,60c-.33-.61-.71-1.28-1.13-2-.06-.09-.17-.22-.31-.39s-.29-.33-.43-.51a2.88,2.88,0,0,1-.34-.52.61.61,0,0,1-.05-.47c-.36-.5-.71-1-1-1.57l-1-1.57h-.08a.1.1,0,0,1-.09-.05c-.26-.06-.37.06-.31.36s.06.84.08,1.62.08,1.61.11,2.5.09,1.71.13,2.51.09,1.34.11,1.65l0,.13c-.06.08-.14.2-.26.34s-.2.19-.23.15l-4.58.31a.69.69,0,0,1-.68-.33,1.82,1.82,0,0,1-.31-.7.08.08,0,0,1,0-.07.23.23,0,0,0,0-.11v-.13a1,1,0,0,1,.05-.25c0-.15.06-.28.08-.43s.06-.28.09-.41,0-.19,0-.23a5.14,5.14,0,0,0-.07-.61c0-.31-.08-.64-.11-1s-.06-.66-.08-1a4.9,4.9,0,0,1,0-.59V55.56c0-.58,0-1.19,0-1.85s0-1.29-.05-1.86,0-1,0-1.11,0-.42-.05-.8-.06-.8-.09-1.26-.06-.86-.08-1.26-.05-.66-.05-.8a.9.9,0,0,0,.05-.41V45.8q.12-3.9,0-7.72c-.06-2.54-.13-5.11-.23-7.68,0-.08,0-.26,0-.49s0-.49-.08-.77-.06-.53-.07-.79,0-.43,0-.52a.43.43,0,0,1,.25-.31,1.27,1.27,0,0,1,.34,0c1.2-.09,2.36-.15,3.5-.16a12.29,12.29,0,0,1,3.21.36A7.69,7.69,0,0,1,272.05,29a6.7,6.7,0,0,1,2,2.56c.39.78.78,1.53,1.16,2.26a5.82,5.82,0,0,1,.67,2.4,9.9,9.9,0,0,1-.92,5,14,14,0,0,1-3.12,4.2.76.76,0,0,0-.18.49,2.12,2.12,0,0,0,.34.77.92.92,0,0,1,.15.77L274,51.09v.13l1.83,3a5.45,5.45,0,0,0,.39.74c.26.46.55,1,.87,1.57s.63,1.16.9,1.75a4.71,4.71,0,0,1,.45,1.32,1.44,1.44,0,0,1-.29.9,5.37,5.37,0,0,1-.83.9,7.18,7.18,0,0,1-1,.7,2.06,2.06,0,0,1-.95.28A.89.89,0,0,1,274.44,62.11ZM266.9,40.74l.28.34a.74.74,0,0,0,.39.15,2.3,2.3,0,0,0,1.46-.65,3.67,3.67,0,0,0,.85-1.3,6.18,6.18,0,0,0,.39-1.55,12.52,12.52,0,0,0,.08-1.39,7,7,0,0,0-.23-1.1,5.34,5.34,0,0,0-.49-1.24,3,3,0,0,0-.79-1,1.61,1.61,0,0,0-1.14-.34.9.9,0,0,0-.7.5,3.12,3.12,0,0,0-.33,1,7.59,7.59,0,0,0-.09,1.14v.79s0,.13,0,.31,0,.4.05.62,0,.48,0,.75a3.8,3.8,0,0,0,.08.61c0,.08,0,.24,0,.44s0,.45.05.7,0,.48,0,.69A3.42,3.42,0,0,0,266.9,40.74Z"/><path class="cls-2" d="M300.84,59.06a.48.48,0,0,1,.05-.21c0-.08,0-.12,0-.15,0-.4.08-.87.13-1.42a5.46,5.46,0,0,1,.31-1.37.83.83,0,0,1,.44-.46,6,6,0,0,1,.65-.27c.23-.08.45-.14.65-.23a.94.94,0,0,0,.49-.38s.06,0,.07-.13a1.11,1.11,0,0,0,0-.23c0-.06,0-.18,0-.36s0-.38.05-.61,0-.45,0-.65v-.44q-.12-3.65-.07-7.24c.05-2.38,0-4.79-.15-7.18a3.12,3.12,0,0,0,0-.36,3.41,3.41,0,0,1-.07-.59c0-.21,0-.41-.05-.59s0-.31,0-.4a.56.56,0,0,0-.43-.49l-.74-.18a2.31,2.31,0,0,1-.72-.29.89.89,0,0,1-.36-.75.11.11,0,0,0,0-.08.45.45,0,0,1,0-.08V33c0-.44,0-.9,0-1.39s0-1,0-1.39v-.88c.06-.24.13-.54.23-.9s.26-.57.49-.62l.08.05H302a10.47,10.47,0,0,0,1.88.11c.8,0,1.63,0,2.47,0a14.15,14.15,0,0,1,2.36.32,2.47,2.47,0,0,1,1.55.87,1.37,1.37,0,0,1,.23.85,5.24,5.24,0,0,0,.05.9,8.27,8.27,0,0,1-.11,2.7,2.16,2.16,0,0,1-.59,1,1.87,1.87,0,0,1-.7.36c-.23.06-.39.3-.44.72a28.44,28.44,0,0,0-.36,3.77c0,1.26,0,2.52,0,3.77s.1,2.5.2,3.75.17,2.49.23,3.75v1.3c0,.3,0,.57,0,.83s0,.42,0,.46v.36a.8.8,0,0,0,.4.72,6.17,6.17,0,0,0,.81.34,3.31,3.31,0,0,1,.82.41,1.13,1.13,0,0,1,.47.92c0,.22,0,.52,0,.92a7.15,7.15,0,0,1-.08,1.22,3.45,3.45,0,0,1-.33,1.1,1,1,0,0,1-.79.54,7.49,7.49,0,0,1-2,.08,11.53,11.53,0,0,0-2,0l-.65.07-1.08.14c-.37,0-.73.08-1.08.1a6.46,6.46,0,0,1-.65,0,2,2,0,0,1-1.16-.25A1.29,1.29,0,0,1,300.84,59.06Z"/><path class="cls-2" d="M320.62,63.72c-.06,0-.11-.17-.15-.41a4.44,4.44,0,0,1,0-.45,12,12,0,0,1-.1-3.43,22.73,22.73,0,0,0,.14-3.39,34.68,34.68,0,0,0-.45-4.29c-.24-1.43-.42-2.85-.55-4.29q-.06-1.68,0-3.24c0-1,0-2.12,0-3.24a24.65,24.65,0,0,0-.09-3.09c-.1-1-.18-2.08-.24-3.1V33.16a7.82,7.82,0,0,1-.1-.82c0-.38-.06-.79-.09-1.22s-.06-.84-.1-1.22-.05-.66-.05-.82a3.11,3.11,0,0,1,.19-.57.79.79,0,0,1,.39-.34,2.31,2.31,0,0,1,.55-.12,4.3,4.3,0,0,1,.6-.07,11.92,11.92,0,0,1,4.75.24A9.67,9.67,0,0,1,329,30.09a10.24,10.24,0,0,1,2.54,3.19,13.79,13.79,0,0,1,1.37,4.15,27.15,27.15,0,0,1,.24,3.55c0,1.15-.05,2.35-.14,3.6a5.12,5.12,0,0,1,0,1.87,7.78,7.78,0,0,0,0,1.87c0,1,.09,2.22.19,3.57a23.16,23.16,0,0,1-.08,4.08,12,12,0,0,1-1,3.79,5.63,5.63,0,0,1-2.57,2.71,11.9,11.9,0,0,1-3.67,1.15c-1.29.2-2.58.38-3.86.53a3.21,3.21,0,0,0-.46,0,3.13,3.13,0,0,1-.45,0c-.06-.06-.16-.13-.27-.22A.5.5,0,0,1,320.62,63.72Zm4.55-6.33a.62.62,0,0,0,.63.33,1.06,1.06,0,0,0,.84-.57,5.21,5.21,0,0,0,.48-1.18,9.59,9.59,0,0,0,.24-1.32c.05-.44.08-.8.12-1s.06-.54.09-.94.06-.78.1-1.15.06-.68.07-1,0-.42,0-.45l0-.39c0-1.76,0-3.57,0-5.44a31.92,31.92,0,0,0-.39-5.54,12,12,0,0,0-.55-2.21,5.22,5.22,0,0,0-1.37-1.82,2.92,2.92,0,0,0-.26-.39.5.5,0,0,0-.46-.09c-.15,0-.21.16-.16.4s.07.38.07.41c.09,2,.15,3.9.19,5.85s.08,3.9.14,5.86a47.07,47.07,0,0,1-.14,4.87,20.84,20.84,0,0,0,.19,4.87c0,.06,0,.21.07.45A2.79,2.79,0,0,1,325.17,57.39Z"/><path class="cls-2" d="M339.52,55.18a2.19,2.19,0,0,1-.07-.53c0-.22,0-.44-.05-.67s0-.42,0-.6,0-.3,0-.36c0-.61-.06-1.4-.1-2.37s-.06-1.95-.09-2.91-.06-1.81-.1-2.54S339,44.05,339,44c0-1,0-2,.07-3.14s.16-2.29.32-3.45a18,18,0,0,1,.79-3.41,11.28,11.28,0,0,1,1.46-3A7.16,7.16,0,0,1,344,28.89a8,8,0,0,1,3.43-1h1a14.58,14.58,0,0,1,2.59.6,9.05,9.05,0,0,1,2.25,1.1,7.89,7.89,0,0,1,1.75,1.66,6.43,6.43,0,0,1,1.13,2.3,7.72,7.72,0,0,1,.12.94c.05.49.07.83.07,1s0,.64,0,1.13,0,.78,0,.84c0,.32,0,1,0,2.09s0,2.24.07,3.5.06,2.49.07,3.69,0,2.09,0,2.66c0,.81,0,1.72,0,2.76s0,2.13-.1,3.24a30.25,30.25,0,0,1-.43,3.31,9.59,9.59,0,0,1-1,2.93,6.63,6.63,0,0,1-1.87,2.13,5.24,5.24,0,0,1-2.93.94,11,11,0,0,1-2.9-.19,27.61,27.61,0,0,1-2.81-.77,5.48,5.48,0,0,1-2.35-1.34,7.29,7.29,0,0,1-1.46-2.12,11.26,11.26,0,0,1-.82-2.54A17.37,17.37,0,0,1,339.52,55.18Zm6.38-.33a3.85,3.85,0,0,0,.6,1.79,1.65,1.65,0,0,0,1.66.7,1.67,1.67,0,0,0,1.15-.46,2.44,2.44,0,0,0,.55-1,5.26,5.26,0,0,0,.19-1.27c0-.45,0-.87.07-1.25V53c0-.2,0-.43,0-.67s0-.47,0-.67v-.36c.1-1.63.14-3.13.14-4.49s0-2.85-.14-4.48c0-.2,0-.51-.05-.94s-.06-.9-.09-1.39-.06-1-.1-1.39-.05-.75-.05-.94a5.22,5.22,0,0,0-.36-.79,11,11,0,0,0-.57-1,4.18,4.18,0,0,0-.72-.79,1,1,0,0,0-1.63.12,3.18,3.18,0,0,0-.58,1,9.9,9.9,0,0,0-.34,1.18c-.08.39-.13.73-.16,1a1.91,1.91,0,0,0-.1.48c0,.25-.07.54-.12.87s-.1.62-.14.91a5.19,5.19,0,0,0-.08.52v2c0,.48,0,.95,0,1.42s0,.82,0,1.08V46a.46.46,0,0,0,0,.14.61.61,0,0,1,0,.15v.19c0,.32.09.88.17,1.68s.17,1.64.27,2.52.18,1.71.24,2.52S345.86,54.52,345.9,54.85Z"/></g></g></svg>