<svg xmlns="http://www.w3.org/2000/svg" viewBox="0 0 148.73 167.19"><defs><style>.cls-1{fill:#2f2e29;fill-opacity:0.42;}.cls-2{fill:#814114;}.cls-3{fill:#fff;}.cls-4{fill:#bee2e4;}.cls-5{fill:#a85318;}.cls-6{fill:#db7a1c;}.cls-7{fill:#f39200;}.cls-8{fill:none;stroke:#db7a1c;stroke-linecap:round;stroke-width:1.39px;}</style></defs><title>grillo</title><g id="Layer_2" data-name="Layer 2"><g id="Layer_1-2" data-name="Layer 1"><path class="cls-1" d="M126.12,156.3c.38-.05,1.2-.36,1.58,0C127.29,156.05,125.85,156.79,126.12,156.3Z"/><path d="M66.15,30.73c-.67.7-2.14-.8-3.23-1.58C64.19,16.84,68.67,4.61,80,0c-5,5-8.64,9.35-10.91,16.11C68,18.62,66.45,26.43,66.15,30.73Z"/><path class="cls-2" d="M122.05,131.47c8.64,4.32,17.57,7.8,26.68,8-9.07,5.47-19.79-.57-28.91-5,3.52,6.27,20.94,14.14,28.81,17-7.14,1.41-16.43-3.52-21-6.45-3.26-2.1-9-6.14-10.6-9.31C115.07,131.57,117.17,129,122.05,131.47Z"/><path d="M52.87,28.24C51.86,23.41,52.73,7,33.39,0c5.79,5.39,11.9,8.86,14.27,17.71,1,2.87,1.31,11.34,2.28,14C51.65,36.25,54,33.61,52.87,28.24Z"/><path class="cls-2" d="M89.59,43.68c0-.1-.13-.19-.19-.29,2.21-6.4.06-14.76-7.47-17.88-5.24-2.17-9.55,0-12.3,3.89-.82-.24-1.63-.48-2.41-.63a45.66,45.66,0,0,0-21.5,1.07C40.1,24.67,30.53,25.58,27,34.77a13.57,13.57,0,0,0,.28,10.62,24.5,24.5,0,0,0-2.64,18.22c2.86,10.83,16.11,14,21.62,15.06,6.39,1.17,24.88,1.31,33.58-3.76,4.53-2.54,10.93-5.68,13-10.44C95.63,57.36,93.08,49.58,89.59,43.68Z"/><path class="cls-3" d="M80.83,29.24C90.69,33.31,86.74,50.91,74,45.5,66.62,42.35,71.5,25.36,80.83,29.24Z"/><path class="cls-3" d="M30.22,36.34A9.59,9.59,0,0,0,35.31,48.9c4.7,1.88,11-.24,11.88-6.31C49,29.87,34.27,25.81,30.22,36.34Z"/><path class="cls-4" d="M92.13,42.94s7.22-2,8.75.57-.46,3.5-2.76,2.34S92.13,42.94,92.13,42.94Z"/><path class="cls-5" d="M45.31,85.05C42.82,82.63,15.92,71.38,16.2,68.91c.61-5.36,9.75-8.38,10.42-13,.31-3.11-4.6-12.8-7.73-9.55-1.58,1.63,1.95,6.75,2.7,8.58C22.25,56.54,8.88,65.3,9.25,70.56c.34,3.65,29.38,17.51,33.66,19.7,3.22,1.55,4.48,2.71,5,.19C48.43,88.15,46.94,86.62,45.31,85.05Z"/><path class="cls-5" d="M35.52,90.7c-6.32-3.93-13.57-9-18.16-3.49-4.24,5-6.58,10.81-11,15.68-1.1-1.59-2.36-7.6-5.14-6.16-3.14,1,.83,7.55,1.54,9.14,3.09,6.91,8.94-1.28,13.2-8.05,5.7-9.07,7.06-9,15.52-2.93,1.83,1.32,14.38,8.94,17.6,8.2C53.35,102.08,38.18,92.35,35.52,90.7Z"/><path class="cls-5" d="M39.66,103.74c-9.58-7.89-16.32-9.1-16.4,4.14-.21,5.38,8.18,36.83,8.69,48-2.1.76-8.65-1.26-9.61,2-1,4.93,6.5,2.87,9,3.14,9.89,1.08,5.49-8.17,5-17.29-.18-6.22-7.08-31.34-5.21-37,3.25,1.77,26.69,25,29.12,18.58C62,120.74,44.31,107.56,39.66,103.74Z"/><path class="cls-2" d="M38.69,79.12c.64,37.34,21.1,58,41.85,64.31,23.15,7.09,52.19,3,38.71-20-4.36-7.93-19.92-17-25.91-22.71-7.13-6.49-7-20.06-13.78-25.37-4.53-3.66-17-2.19-22.44-2C49.73,73.87,38.54,70.46,38.69,79.12Z"/><path class="cls-6" d="M73,85.24c4,17.62,20,47.83,52.47,49,13.45.46-13.62-21.82-17.65-26.43C93.2,91.07,90.4,80.33,85.12,76.25,79.06,72.14,69,77.72,73.33,86.41"/><path d="M46,74.4c4.25-10.22,19.41-16.64,23.67-3.11-4.75-.37-6.43-.9-12.64.32C53.25,72.37,50,72.8,46,74.4Z"/><path class="cls-4" d="M82.47,54.06s6,1.77,6,4.79-2.24,2.67-3.67.53A22,22,0,0,1,82.47,54.06Z"/><path class="cls-4" d="M96.36,55.1s7.49.47,8.06,3.44-2.53,3.37-4.08,1.32C99,58.06,96.36,55.1,96.36,55.1Z"/><path class="cls-7" d="M36.71,75.9c15.47,4.28,34.8,2.89,50-5,1.61,1,3.22,7.36,3.74,10.54-3.1,1.81-15,5.62-18.38,6.12-9.34,1.38-16,2.26-31.11-.18-2.92-.46-4.44-1-4.7-3.69C36.05,81.76,35.48,78.4,36.71,75.9Z"/><path class="cls-5" d="M91.89,95.13c3-3.63,11.82-15.61,17.29-16.56,7-.89,6.65,3.9,11.1,6.91,5.64-3.59,6.75.26,2.22,3.58-4,2.93-3.73,2.31-6.18-.63-4.69-5.61-4.83-7.89-11.66-1.56-4.84,4.48-6,9.1-9.76,13.95C90.18,106.9,87.15,100.81,91.89,95.13Z"/><path class="cls-5" d="M84.5,131.28c-5.52-5.2,27.28-27.59,36.74-34.74,3.43-2.38,12.9-10.19,16.1-6.31,1.56,2.56-11.19,64-9,71.56,3.9.39,9.34.36,9.88,4.35.26,2-11.78.76-13.86-.5-3.67-2.24-.45-18.94-.23-24.77.94-13.74,2.39-27.46,4.35-40.51C123.79,103.12,93.87,140.1,84.5,131.28Z"/><path class="cls-4" d="M23.14,41.59s-7.39-1.35-8.66,1.4.79,3.43,2.95,2.07S23.14,41.59,23.14,41.59Z"/><path class="cls-4" d="M33.29,52.79S28,56.11,28.83,59s2.89,2,3.67-.49A22.43,22.43,0,0,0,33.29,52.79Z"/><path class="cls-4" d="M22.44,51.46s-7.51-.1-8.3,2.82,2.27,3.56,4,1.63C19.6,54.21,22.44,51.46,22.44,51.46Z"/><path d="M76.71,41.87a1.65,1.65,0,0,0-1.46,1.45,1.4,1.4,0,0,0,1.42,1.54c1,0,1.68-.48,1.68-1.45C78.33,42.59,77.44,41.7,76.71,41.87Z"/><path d="M36.91,44.75a1.53,1.53,0,0,0-1.28,1.64,1.44,1.44,0,0,0,1.42,1.54,1.73,1.73,0,0,0,1.71-1.79A1.69,1.69,0,0,0,36.91,44.75Z"/><path class="cls-5" d="M129.36,136a18.66,18.66,0,0,1,4.42,1.24,6.62,6.62,0,0,1,1.63,1.06,12.53,12.53,0,0,0-2.94-.39c-1.07.07-.9.67-.9.67a13.27,13.27,0,0,1,2.73.85,10.47,10.47,0,0,1,2.32,1.95,34.37,34.37,0,0,0-3.84-1c-1.18-.16-1.27.51-1.27.51a14,14,0,0,1,4.43,2.13,10,10,0,0,1,1.54,1.73,9.91,9.91,0,0,0-4.51-1.6c-2.82-.35-3.09.47-3.09.47Z"/><path class="cls-5" d="M28.72,132.78a18.69,18.69,0,0,0-4,2.23,7.52,7.52,0,0,0-1.35,1.4,13,13,0,0,1,2.78-1.07c1.05-.17,1,.44,1,.44a14.69,14.69,0,0,0-2.47,1.46,10,10,0,0,0-1.79,2.44,34.83,34.83,0,0,1,3.49-1.88c1.11-.44,1.35.19,1.35.19a13.69,13.69,0,0,0-3.8,3.1,9.34,9.34,0,0,0-1.08,2,10,10,0,0,1,4-2.62c2.67-1,3.11-.26,3.11-.26Z"/><path class="cls-8" d="M60.09,131.92c11.85-.68,23.63-7.71,29-18"/><path class="cls-8" d="M91.61,145.78c10.9-4.68,16.37-12.24,17.86-23.74"/><path class="cls-8" d="M44.08,108.24c11,1.86,26.67,1.39,34.81-6.87"/><path class="cls-5" d="M79.81,97.5c-8.75,10.09-8.58-8.07-11.89-15-.77-1.6-7.74-6.41-9.8-2.28-1.13,2.27,4.69,2.21,6.8,4.55,1.31,6.26,3.59,26.4,13.8,19.92,3.09-2,3.91-2.31,6.14-5C88.67,95.09,84.1,92.54,79.81,97.5Z"/></g></g></svg>