<svg xmlns="http://www.w3.org/2000/svg" viewBox="0 0 948 449.51"><defs><style>.cls-1{fill:#92c131;}.cls-2{fill:none;stroke:#1b8a4f;stroke-linecap:round;stroke-width:1.14px;}.cls-3{fill:#a85318;}.cls-4{fill:#1b8a4f;}.cls-5{fill:#00a0a4;}.cls-5,.cls-7{fill-rule:evenodd;}.cls-6{fill:#4fbcc1;}.cls-7{fill:#e3d7c2;}</style></defs><title>piso</title><g id="Layer_2" data-name="Layer 2"><g id="Layer_1-2" data-name="Layer 1"><path class="cls-1" d="M852.48,348.91C870,309.36,586,287.51,537,224.51s-182.37-46.37-265.58-45.23S246.71,260.64,139,264.05s-67,47.81,5.6,60.35S402.47,352,521.05,348.19,835,388.45,852.48,348.91Z"/><path class="cls-1" d="M57,279.52c-5.85,63,63.59,98.84,115,112.3S368.17,356.32,424,350.5s1.64-81.45,73.53-91.26,36.07-59.91-15.21-70.77-178.86-18.55-258-7.75S62.86,216.57,57,279.52Z"/><path class="cls-2" d="M215.6,260.28s2.35-80.1,20.28-132.77c22.06-64.83,48-109.84,48-109.84"/><path class="cls-3" d="M256.81,60.27c.75-1.52,13.44-30.36,16.2-34.46,3.93-5.84,11.35-1.6,9,4.14-1.71,4.25-13.2,30.6-15.84,35.5C262.76,71.8,252.72,68.52,256.81,60.27Z"/><path class="cls-2" d="M245.3,259.05s1.51-72.37,27.05-144.58C296.91,45.06,332.58.57,332.58.57"/><path class="cls-3" d="M298.38,43.16c1-1.5,18.89-30.27,22.44-34.23,5.06-5.62,11.32.07,9,5.78-1.87,4.55-19.24,31.23-22.94,35.95C301.79,57.15,292.79,51.34,298.38,43.16Z"/><path class="cls-4" d="M307.78,94.19s-34.8,49.09-47.93,103.1c-4.54,18.65-10.9,45-14.83,63,14.46-.43,30.37-2,45.51-2,1.89-18.83,5.56-40.78,15.07-61.37a447.93,447.93,0,0,1,38.15-66.15s-28.53,23.39-47.44,58.62c-14.91,27.77-29.56,68.26-29.56,68.26s-4-2.49.45-32.88S307.78,94.19,307.78,94.19Z"/><path class="cls-4" d="M151,266.16c29.63-2.66,60.89-4.88,94-5.88-.49-17.45-1.07-42-1-58.17.11-27.28,14.18-94.38,14.18-94.38s-15,21-22,53.73c-5,23.35-20.1,89.08-20.1,89.08s-3.75-37.79-.57-70,21.94-93.42,21.94-93.42-23.86,37.35-33.13,76.74c-7.07,30-13.58,79.31-13.58,79.31s-14.87-23.06-14-68.44a363.14,363.14,0,0,1,7.72-68.33s-15.75,31-18.67,68.6c-2.32,29.63.41,70.13.41,70.13s-4.37-.65-12.1-28.55-14.56-128-14.56-128-11.39,55.57-2.2,107.17C141.18,217.63,147.9,250.8,151,266.16Z"/><path class="cls-5" d="M130,265.5s-56.17-38.42,175.76-19.09C458,259.09,451,293.41,561,274.7c102-28.23,202-5.11,240,11.05,64,27.22,112,87.76,112,87.76,27.5,0,6-6.95-16-6.95s-41.22,4.38-203.5-4.55C563.84,349,556,349.89,438.21,349.89,316.5,361.51,373,403.13,153,403.13,65,392.92,26.79,364,10,342.74S-8,287.45,59,281.5C183.29,286,150.47,278.18,130,265.5Z"/><path class="cls-6" d="M413.59,288.58c-1.44.9-3.56.29-5.18.92-.2.05,0-.44-.42-.29-1.58.72-4.19.49-6.21.14l.11-.12c-.39-.07-.82.35-1.22.32,0-.08.12-.12,0-.22-.08.25-.72.15-.88.34-.16-.09-.16-.27-.37-.38l-.21.29c-.6.68-1.56,0-2.41.39,0-.07.12-.12.05-.18a28.62,28.62,0,0,1-4.7.66c.06-.1.11-.28,0-.38-.06.29-.54.38-1,.46-.21-.29-.71.3-1.21.14l0-.07c-.35.33-.55-.16-.83.23l-.24-.23c-.14.42-.54-.21-.83,0v.09c-.28.11-.44-.1-.7,0l0-.05c-.61.13-1-.1-.95.23-.23-.26.59-.14.24-.51a37.21,37.21,0,0,1-6.15.46c-.24-.13-.39-.16-.44-.28-.2.06-.77.08-.95.25.07,0-.14-.16-.25-.18-.38-.11-.39.37-.81.24.16-.09.21-.19.15-.32a2.91,2.91,0,0,1-1.21.33c.06-.06.16-.09.14-.2-.44.3-.82,0-1.21.16l.14-.2c-.64-.21-.17.4-.73.28.13-.06.08-.13.1-.21-.5.36-1.33.26-1.84.4l0-.08a10.83,10.83,0,0,0-1.75.14c-.23-.08.05-.46-.53-.37,0,.37-1,.18-.63.6a5.37,5.37,0,0,0-1.64,0c.22-.15-.26-.45.15-.5l-.33-.22c0-.15.33,0,.22-.14a5.08,5.08,0,0,1-1,.13c-.38.25-.71.69-1.34.76.29-.15-.19-.41,0-.49l-.84.75c-.21,0-.06-.3-.36-.18,0,.1-.11.16-.2.25s-.86.13-1-.24c-.1-.14.34-.09.1-.21s-.4.14-.78.17v-.05c-.26,0-.74.19-.46.38.18,0-.08-.22.19-.13a1.46,1.46,0,0,1-1,.33c.13-.07.11-.16.15-.28a5.41,5.41,0,0,1-1.62.58c0,.18.2-.33.29-.24-.76-.22-1.51.4-2.15.07.1,0,.07.25.06.21-.36,0-.36-.27-.58-.16,0-.16-.29.06-.53.11s-.07-.06.14-.09a5.57,5.57,0,0,1-2.43.26c0,.1-.45.4-.62.4l0-.24c-.17-.13-.59.05-.64-.15-.36.31,1.44-.32.94-.07-.15-.19-.69.41-.6.08-.35,0-.68.31-1,.11.1,0,.26-.34,0-.3-.5.06-.13.11-.54.22l-.25.11c0,.23-.46,0-.25.24-.08-.19-.73.15-.7-.23l.05-.29c-.22,0-.33.33-.49.47l-.09-.13c0,.46-.53,0-.75.35-.47-.12-1.17.06-1.41-.22a1.77,1.77,0,0,1-1.05.28c.07-.06.18-.07.2-.17-.26-.11-.32,0-.54.1.05-.07-.53-.23-.82-.37-.34.16-.19.4-.21.55-.36-.42-1,.37-1.4,0,.12-.07.49-.27.19-.35-.37-.43-.61.38-1.15.2l.17.36c-.25-.21-.73.27-.72-.11-.16.14-.62-.08-.52.28-.88-.24-2,.34-2.63-.26-.11.06-.42,0-.34.21s.26-.16.35,0a.15.15,0,0,0-.12.17c-.27-.06-.48-.06-.27-.39-.61-.17-.52.68-1.28.61,0-.15,0-.2-.26-.15l-.38.3c-.49,0-.32-.32-.36-.56-.25.07-.57.09-.66.3l-.35-.28c.26.2-.19.17-.3.24l.11-.07c-.06-.11-.35,0-.49,0,.06.15.37.18.54.21-.11.13-.32.12-.47.27,0-.25-.44-.12-.65-.13s-.23.24-.3.24-.38,0-.23-.17.2.1.31,0c-.17-.08-.18-.31-.48-.11s.14.48-.34.37c.11-.08.11-.18.19-.27l-.45-.08,0,.22c-.07-.05,0-.07-.06-.1-.09.25-.64.15-.69.42-.21,0-.48-.11-.69-.11l0,0a.82.82,0,0,0-.78.19v-.05a.89.89,0,0,0-.6.23c-.37-.12-.26-.83-.6-.5-.35.06-.47.5-.31.62-.65-.06-1.3.41-1.94.14-.07.1,0,.16-.18.23-.94,0-1.88.55-2.71.21.25-.13,0-.22-.06-.35-.18.23-.31-.17-.32.18s.07.3.34.34a3.17,3.17,0,0,1-1.7.17c.17.06.07.15,0,.23,0-.34-.45-.32-.72-.14v.2l-.24-.16c-.1.09,0,.44-.37.31L323,296c-.27.22-.65.58-1,.48l-.35-.23c-.14.06-.34.27-.06.31-.62-.05-1,0-1.25-.22a6.65,6.65,0,0,1-3.44,1.27v-.15c-.35-.08-.09.28-.33.22.06-.16-.32-.25-.13-.47-.49,0-.49.39-.75.53,0,.2.19-.18.21.08,0,.07-.65,0-.63.3-.15-.08-.13-.31-.1-.45l-.22.2c-.43-.25.56-.78.08-1.11l-.24.11c-.33-.24.55-.5-.11-.45-.23.21-.33.68,0,.75-.54.22,0,.75-.65.87-.22-.12.47-.16.28-.36-.36-.16-.53.27-.8.25.32,0,.18.39,0,.49-.35-.06.11-.33-.33-.25,0,.19-.37.41,0,.44,0,.41-.48,0-.62.35-.23-.23.23-.71-.29-.73.16.23-.46.49-.08.8a.28.28,0,0,1-.22-.41c-.32-.09-.48.62-.75.15v.28c-.11-.06-.26-.1-.44-.21-.24.05-.62.54-.75.15-.06.06-.6.17-.29.39s.31-.29.63,0c-.35-.23-.46.16-.62.31l-.09-.14c-.09.08-.37.12-.38.29.05-.11,0-.19-.13-.21l0,.26c-.4.26-.26-.36-.67-.16l.26-.28c-.06.06-.29-.1-.47,0,0,.23-.05.52-.06.71-.21.17-.21-.19-.36.1L308,300c0-.09-.35-.28-.68-.16s-.38.53,0,.54c-.16.06-.45,0-.38-.19-.34.19.14.21-.13.44-.19-.1-.68-.16-1-.28l.19-.45-.23.07c.17-.37-.24-.16-.2-.5a.72.72,0,0,0-.44.29c.66.31-.23.79.1,1.17-.56.31-.85-.9-1.19,0,.16.08,0,.49.33.25-.4.07-.06.5-.59.47.25-.28-.56-.31-.19-.71,0,.14.32,0,.38,0-.23-.11-.16-.43-.56-.3-.22.12-.55.23-.4.43s.35-.14.32.16c-.44.23-.69-.11-.68.38a.41.41,0,0,1,.55.25l-.3.21v-.17c-.61.06,0,.34-.59.47l-.4-.23c0-.33.84-.13.53-.55-.36.1-.38.34-.75.37l.2-.19c-.13,0-.54-.49-.86,0-.18.23,0,.18.09.35-.52.27-.6.5-.93.67-.1-.35-.63.22-.42-.25.28.11,1-.23,1.09-.62-.39-.29.46-.11.38-.55-.44.17-.61-.21-.81-.42-.13,0-.2.18-.25.24.07.25.22.18.36.42a1.66,1.66,0,0,0-1.08.79c-.23,0-.3-.29-.11-.39a7.8,7.8,0,0,1-1.79.69c.57.22-.57.34-.15.54.35,0,.75.12.68.35-.2,0-.09-.16-.21-.21-.12.3-.55-.17-.6.24.46-.33-.16-.49-.23-.81-.29.31-.1-.21-.49-.05a5.49,5.49,0,0,1-1.08.87c-.72-.08-1.33.6-1.77.85-.33,0-.38-.42-.68-.34s.45.23-.1.32v-.09c-.09.15-1,.23-.79.74l-.1-.41c-.11,0-.13.13-.17.2-.08-.11-.25-.15-.16-.3-.44-.08-.56.34-.86.51l.34.1c-.4.42-.89.41-1.34.73l-.13-.2-.21.28a.25.25,0,0,0-.47,0l.43-.87c.3,0-.06.36.21.47s.66-.19.6-.41c-.19.07-.17.12-.26.26-.26-.24,0-.37,0-.61-.09.05-.28.05-.24.14.09-.22.26-.34.56-.51-.13.21.23.11.21.23-.15-.25.1-.48.52-.61.47.14.59-.54,1.09-.7a1.4,1.4,0,0,1-.31.88c.36,0,.3-.16.66-.18a1.09,1.09,0,0,1,.21-.88l.14.17c.27-.26.09-.53.54-.7.77-.29,1.58-.56,2.16-.79l.13.18c.08-.53,1-.58,1.31-.93.84-.12,1.5-.84,2.06-.67a13.48,13.48,0,0,1,3.74-1.61l-.1.36c.15-.29.24.11.46,0-.39-.13.2-.4.3-.63a3.12,3.12,0,0,0,1.88-.85l.1.19c.4-.55,1.21-.43,1.93-.6.11.06.31.21.51.11.25-.44.47-.45,1-.79a6.28,6.28,0,0,1,1.58-.17c1.4-.84,3.09-1,4.63-1.62l.19.2c1.43-.86,3.54-.74,4.83-1.26l0,.43c.46,0,.94-.29.76-.56.46,0,1-.4,1.38-.12.46,0,.49-.29.84-.42a7.47,7.47,0,0,0,2.05-.27h-.21a.17.17,0,0,0,.17.27c.29-.16,1.17-.05.75-.5,1,.15,2-.53,3-.27-.1-.13.12-.18.19-.28a8,8,0,0,0,2.24-.28c.13.05-.16.25.16.23s0-.18.19-.29c1.23-.4,2.62,0,3.76-.21a47.28,47.28,0,0,1,6.15-.79v.1c.62-.43,1.59.27,2.06-.34.17.09.6,0,.51.2.5-.31,1.5.13,2.22-.27l-.19.07c.79.16,1.44-.19,2.27-.06-.08.05-.23.1-.24.2.33.17.7-.48.92,0,.18,0,.11-.25,0-.23a33.58,33.58,0,0,0,5.5-.54c1.34.22.14.81,1.16.4.09.08.05-.19.07-.09.39-.15.66.5.93.23-.13-.29.18-.18.17-.36.82.15,1,.42,1.62.17l0,.15c.72-.47,1.6-.27,2.2-.8,4.12-.27,8.06-.67,12.08-.85,4,0,7.85-.35,11.88-.21a2.53,2.53,0,0,0,2,.17c0,.07-.1.09,0,.15,0-.34.73-.06.81-.38,1.49,0,2.85-.11,4.38-.17-.24.05-.35.33-.06.29l.29-.22,0,.1c.19-.06.4-.23.19-.34,3.81-.44,7.62.1,11.35-.23a15.85,15.85,0,0,0,3.11-.23,30,30,0,0,0,8.36-.18A2.26,2.26,0,0,1,413.59,288.58Z"/><path class="cls-6" d="M249.24,349.43c-1.67,1-4,.22-5.9.89-.23.05,0-.48-.48-.34-1.78.81-4.72.66-7,.3l.12-.15c-.43-.06-.91.43-1.37.4,0-.09.14-.13,0-.25-.08.28-.81.2-1,.41-.2-.09-.2-.31-.45-.41l-.22.33c-.62.81-1.76.13-2.7.6,0-.07.13-.15,0-.2a31.67,31.67,0,0,1-5.25,1.05.39.39,0,0,0,0-.44c0,.34-.58.46-1,.58-.26-.31-.76.39-1.34.26l0-.07c-.36.39-.62-.14-.9.31l-.3-.24c-.11.5-.63-.18-.93.09l0,.11c-.3.14-.5-.07-.78,0l0-.05c-.68.19-1.11,0-1.05.34-.29-.27.65-.21.21-.59a44.35,44.35,0,0,1-6.88,1.07c-.28-.12-.45-.14-.53-.28-.22.1-.85.17-1,.38.08,0-.17-.17-.29-.18-.44-.1-.39.45-.88.34.16-.12.22-.24.13-.37a3.18,3.18,0,0,1-1.32.48c.06-.07.16-.12.13-.23-.46.38-.94,0-1.35.29l.14-.23c-.75-.17-.14.47-.79.38.13-.08.07-.16.08-.25-.52.45-1.47.42-2,.61v-.08a10.66,10.66,0,0,0-2,.31c-.27-.08,0-.53-.65-.38.09.43-1.09.3-.63.74a5.93,5.93,0,0,0-1.85.11c.24-.18-.35-.48.11-.57l-.39-.23c0-.18.37,0,.23-.19a5.15,5.15,0,0,1-1.11.24c-.4.31-.72.84-1.43,1,.31-.2-.25-.45,0-.54l-.87.92c-.24.05-.11-.33-.43-.18,0,.11-.1.19-.19.29s-1,.21-1.13-.21c-.13-.15.38-.12.1-.25-.44.05-.44.19-.87.25l0-.06c-.29,0-.81.26-.47.46.2,0-.11-.25.2-.15a1.57,1.57,0,0,1-1.1.43c.14-.07.11-.19.15-.31a6.25,6.25,0,0,1-1.78.76c0,.2.2-.39.31-.29-.88-.19-1.68.57-2.43.23.11-.05.1.27.09.22-.41,0-.42-.28-.68-.14-.05-.17-.33.08-.59.17s-.08-.08.15-.13a5.68,5.68,0,0,1-2.74.41c0,.12-.49.46-.69.47l0-.28c-.2-.14-.67.08-.73-.14-.39.35,1.62-.41,1.07-.11-.17-.21-.77.49-.68.12-.41,0-.76.37-1.17.16.12,0,.29-.4,0-.35-.56.1-.14.14-.6.27l-.28.13c0,.26-.52,0-.27.27-.09-.2-.82.2-.82-.22l0-.35c-.25.05-.37.39-.54.56l-.1-.15c0,.52-.6,0-.85.42-.53-.13-1.33.1-1.6-.2a1.86,1.86,0,0,1-1.2.32c.09-.05.21-.08.22-.18-.31-.14-.36,0-.61.1,0-.07-.61-.26-.94-.42-.38.17-.22.44-.24.61-.41-.49-1.1.4-1.59,0,.13-.08.55-.28.21-.39-.41-.48-.7.42-1.31.21l.17.41c-.28-.23-.84.31-.81-.13-.18.16-.71-.1-.61.31-1-.28-2.34.35-3-.34-.13.07-.47,0-.4.23.25.22.32-.18.41,0a.2.2,0,0,0-.16.19c-.3-.07-.54-.09-.28-.44-.69-.22-.65.72-1.51.59,0-.17,0-.23-.29-.2l-.46.31c-.55,0-.33-.37-.36-.66-.29.06-.65.06-.78.28l-.37-.35c.27.25-.23.18-.37.26l.13-.07c-.06-.12-.39,0-.56,0,0,.17.39.24.6.28-.15.14-.38.11-.57.27.05-.29-.49-.19-.73-.21s-.28.26-.36.26c0-.15-.44,0-.25-.23.09-.05.22.14.37,0-.18-.1-.18-.36-.54-.16s.1.55-.44.39c.13-.07.15-.19.26-.29l-.49-.14,0,.26c-.06-.07,0-.09-.05-.12-.14.27-.75.12-.85.42-.24,0-.52-.16-.77-.18l.05,0a1,1,0,0,0-.92.15V359a1.33,1.33,0,0,0-.73.19c-.41-.2-.15-1-.59-.65-.4,0-.62.47-.46.63-.73-.17-1.56.24-2.24-.16-.1.1,0,.17-.26.23-1.07-.1-2.28.3-3.11-.21.3-.1,0-.26,0-.4-.26.23-.29-.24-.4.15,0,.23,0,.34.3.44a3.73,3.73,0,0,1-2-.1c.18.11,0,.18-.1.24.06-.37-.41-.43-.77-.32l-.06.23L147,359c-.14.06-.17.46-.52.23l-.1-.24c-.37.17-.91.45-1.3.24l-.31-.34c-.18,0-.48.21-.18.32-.68-.23-1.12-.28-1.31-.57a8.24,8.24,0,0,1-4.33.46L139,359c-.35-.18-.22.29-.47.15.13-.15-.25-.37.07-.54-.51-.23-.71.22-1.07.26-.07.22.3-.11.2.16-.07.08-.71-.25-.83.08-.11-.15,0-.38.11-.51l-.34.13c-.34-.43,1-.61.62-1.13l-.3,0c-.24-.37.82-.32.1-.51-.34.13-.67.58-.41.77-.68,0-.4.76-1.13.66-.17-.22.59,0,.49-.28-.3-.3-.7.09-1,0,.31.15,0,.46-.24.51-.35-.2.28-.29-.23-.38-.11.19-.62.28-.22.45-.25.42-.52-.17-.86.14-.13-.33.64-.65.09-.87,0,.31-.77.33-.53.8-.21-.11-.19-.34,0-.51-.3-.21-.87.46-.88-.14l-.16.29a5.07,5.07,0,0,1-.34-.38c-.28,0-1,.32-.88-.14-.1,0-.74,0-.55.29.37.24.5-.18.65.27-.22-.38-.58,0-.84.08v-.19c-.15.06-.46,0-.58.17.12-.1.09-.22,0-.27l-.21.24c-.58,0,0-.49-.6-.5l.45-.13c-.09,0-.22-.25-.5-.21-.15.23-.39.48-.52.66-.34.05-.09-.29-.44-.1l.49-.22c.08-.08-.19-.45-.58-.51s-.77.32-.38.53c-.21,0-.46-.23-.26-.38-.49,0,0,.27-.43.35-.13-.19-.58-.5-.84-.79l.51-.34-.27-.05c.43-.27-.12-.28.14-.59a.9.9,0,0,0-.62.05c.42.64-.8.65-.76,1.17-.8,0-.18-1.29-1.15-.65.09.16-.37.48.14.4-.46-.13-.45.45-1,.15.47-.13-.31-.58.36-.78-.09.16.31.18.41.15-.15-.22.16-.49-.31-.58-.31,0-.71-.06-.72.21s.45,0,.19.3c-.61,0-.6-.45-1,0a.36.36,0,0,1,.33.52l-.46,0,.14-.18c-.65-.25-.3.32-1,.15l-.2-.44c.24-.27.93.31,1-.22-.43-.11-.65.16-1-.08l.33,0c-.15-.06-.1-.79-.82-.53-.36.08-.13.16-.2.36-.71-.11-1,0-1.43,0,.21-.36-.78-.23-.16-.5a1.39,1.39,0,0,0,1.51.2c-.12-.52.52.2.8-.22-.54-.14-.38-.59-.39-.9-.15-.06-.32,0-.43.06-.14.25,0,.3,0,.58a2.27,2.27,0,0,0-1.64,0,.25.25,0,0,1,.25-.41,9.35,9.35,0,0,1-2.17-.58c.29.56-.8-.09-.63.35.34.2.54.59.26.73-.22-.08.08-.18,0-.3-.38.16-.32-.5-.75-.19.71,0,.33-.5.58-.82-.55.07.11-.24-.36-.36a7.24,7.24,0,0,1-1.74,0,6.79,6.79,0,0,0-2.24-.67c-.22-.27.15-.59-.15-.76s.11.51-.37.14l.08-.05c-.21,0-.91-.62-1.33-.13l.36-.34c-.08-.08-.22,0-.34,0,.06-.13,0-.3.21-.33-.22-.4-.74-.2-1.13-.32l.13.32c-.74,0-1.06-.42-1.72-.55l.14-.22h-.45c.2-.19-.05-.45-.35-.34l1.26-.24c.19.23-.43.18-.39.47s.65.39.85.19c-.2-.1-.24-.06-.45,0,.09-.35.42-.23.69-.39-.12,0-.23-.19-.31-.09a1.63,1.63,0,0,1,.93.09c-.32,0,0,.25-.11.32.17-.28.57-.25,1,0,.17.46,1,.08,1.45.36a2.13,2.13,0,0,1-1.11.37c.27.27.37.12.64.39a1.64,1.64,0,0,1,1-.45l-.07.23c.45,0,.58-.31,1.06-.07a14.19,14.19,0,0,0,2.42.8l-.06.22c.56-.37,1.33.14,1.92.05.79.44,1.95.26,2.28.75,1.57.25,3,.34,4.58.66l-.36.29c.35-.2.14.22.44.22-.26-.32.48-.28.73-.45a3.68,3.68,0,0,0,2.34.13l0,.24c.73-.33,1.43.19,2.22.39.08.11.18.35.43.37a4,4,0,0,1,1.43-.43,6.78,6.78,0,0,1,1.68.42c1.86-.35,3.62.17,5.51.05l.1.29c1.86-.45,4,.15,5.59-.06l-.18.47c.48.16,1.11-.07,1-.41.47.17,1.22-.17,1.5.23.5.11.61-.18,1-.24a5.57,5.57,0,0,0,2.29.09l-.23,0c-.1.11-.13.31.11.34.35-.13,1.29.13.95-.43,1,.33,2.32-.26,3.3.19-.08-.15.17-.19.27-.29a8.42,8.42,0,0,0,2.49,0c.14.08-.21.26.14.28s0-.2.26-.28c1.42-.32,2.89.21,4.18.09,2.29-.39,4.69-.27,6.9-.47l0,.12c.71-.48,1.77.33,2.31-.35.19.09.67,0,.56.23.56-.34,1.67.18,2.49-.25l-.2.07c.88.2,1.61-.19,2.53,0-.09.06-.25.1-.27.22.38.19.78-.53,1,0,.2,0,.12-.29,0-.26a38.46,38.46,0,0,0,6.14-.77c1.52.19.2.9,1.31.4.12.09.05-.22.08-.11.43-.18.78.54,1.06.24-.17-.32.19-.2.18-.41.93.15,1.15.41,1.83.1l0,.18c.77-.58,1.78-.41,2.4-1,4.6-.54,9-1.33,13.46-1.9,4.46-.37,8.78-1.13,13.34-1.32a3,3,0,0,0,2.35,0c0,.07-.1.1,0,.16,0-.38.82-.13.87-.49,1.69-.11,3.2-.39,4.94-.57-.27.07-.37.39,0,.34l.31-.27.06.1c.21-.08.44-.29.19-.39,4.3-.75,8.68-.44,12.94-.85a18.27,18.27,0,0,0,3.56-.35,38.24,38.24,0,0,0,9.62,0A2.45,2.45,0,0,1,249.24,349.43Z"/><path class="cls-6" d="M264.93,269.82c-2.82.5-6.41-.31-9.44.19-.36,0,.08-.43-.72-.32-2.92.71-7.5.64-11.14.67l.2-.15c-.7,0-1.45.49-2.17.57,0-.08.2-.15,0-.23-.13.27-1.26.33-1.53.55-.3-.05-.32-.23-.7-.28l-.35.34c-1,.81-2.75.42-4.18,1.11.05-.08.2-.16.05-.19-2.34.88-5.37,1.56-8,2.45.08-.13.11-.32-.08-.38,0,.32-.85.58-1.52.87-.44-.18-1.12.62-2,.72l0-.08c-.49.48-1,.11-1.33.61l-.49-.1c-.1.49-1,.06-1.39.44l.05.07c-.43.25-.77.14-1.17.35l-.06,0c-1,.45-1.68.44-1.51.74-.48-.13.94-.45.22-.62-3.26,1.43-6.72,2.65-10.08,3.91-.44,0-.7.08-.84,0a8.81,8.81,0,0,0-1.46.79c.11-.05-.29-.07-.48,0-.67.11-.5.58-1.24.7.23-.19.27-.31.12-.39a7.91,7.91,0,0,1-1.86,1.05c.07-.1.23-.19.15-.27-.6.54-1.38.46-1.93.87l.15-.26c-1.14.18-.12.48-1.09.7.19-.14.08-.18.08-.26a16,16,0,0,1-2.88,1.48v-.09a28.91,28.91,0,0,0-2.83,1.18c-.41.06-.09-.47-1-.05.2.33-1.58.76-.81.94a14.64,14.64,0,0,0-2.73.93c.32-.27-.61-.28.07-.56l-.62,0c0-.17.56-.15.3-.27a12,12,0,0,1-1.61.71,6.55,6.55,0,0,1-2,1.46c.42-.32-.47-.29-.16-.47l-1.15,1.18c-.34.14-.2-.24-.66,0,.07.09-.12.22-.23.35s-1.42.58-1.72.28c-.23-.09.53-.26.09-.26-.64.22-.62.35-1.27.57l0-.05c-.45.09-1.2.56-.65.6.3-.09-.21-.17.28-.21a4.06,4.06,0,0,1-1.6.82c.2-.13.13-.22.18-.34a12.67,12.67,0,0,1-2.59,1.36c.06.17.25-.41.43-.37-1.36.15-2.47,1.11-3.65,1.09.16-.07.18.22.16.17-.62.17-.69-.09-1,.13-.11-.13-.49.2-.88.36-.16.17-.13,0,.22-.16a15.15,15.15,0,0,1-4.12,1.33c.07.09-.67.57-1,.65l0-.25c-.33-.06-1,.3-1.13.13-.55.45,2.41-.94,1.62-.49-.3-.12-1.09.7-1,.35-.61.18-1.1.61-1.77.55.18,0,.39-.44-.11-.29-.86.26-.2.17-.89.43l-.42.21c0,.23-.79.18-.38.34-.17-.16-1.23.44-1.26.06v-.32c-.37.12-.51.47-.77.67-.05,0-.17,0-.17-.1.09.46-.92.2-1.25.66a11.44,11.44,0,0,1-2.49.31,5.15,5.15,0,0,1-1.8.65c.12-.08.31-.13.32-.24-.48,0-.55.12-.94.29a7.87,7.87,0,0,0-1.49-.09c-.57.27-.28.46-.3.62-.69-.31-1.65.67-2.47.42.19-.11.83-.41.29-.4-.69-.31-1,.58-2,.57l.32.31c-.46-.13-1.27.5-1.29.11-.26.19-1.1.1-.9.43-1.57,0-3.58.93-4.66.45-.21.1-.76.14-.6.3.4.13.47-.23.63-.13-.19.05-.21.16-.22.21-.49,0-.86,0-.5-.33-1.09,0-.91.8-2.27.9,0-.16-.08-.2-.46-.11l-.71.39c-.87.1-.56-.25-.63-.5-.46.12-1,.2-1.18.42l-.63-.23c.46.16-.35.22-.55.31l.2-.09c-.1-.09-.62.06-.88.13.1.14.65.12,1,.12-.21.14-.58.18-.86.36,0-.26-.79-.05-1.15,0s-.43.3-.55.31-.69.08-.4-.15c.13-.06.35.08.57-.06-.3-.05-.31-.28-.86,0-.4.18.21.47-.65.43.21-.09.22-.2.38-.31l-.8,0,0,.23c-.12,0,0-.07-.1-.1-.19.27-1.16.25-1.29.53a8.27,8.27,0,0,1-1.22,0l.07,0a2.43,2.43,0,0,0-1.41.3v-.06a3.57,3.57,0,0,0-1.12.29c-.66-.09-.35-.82-1-.45-.62.09-.93.54-.65.65-1.16,0-2.41.49-3.52.26-.15.11,0,.15-.37.25-1.69.1-3.52.6-4.92.29.48-.14,0-.23,0-.36-.38.24-.51-.17-.61.19.07.2,0,.31.52.35a10.44,10.44,0,0,1-3.1.17c.29.07.08.14-.13.23,0-.34-.71-.32-1.26-.17l-.07.2-.38-.18c-.21.08-.2.44-.77.28a.37.37,0,0,0-.19-.2,4.15,4.15,0,0,1-2,.4l-.54-.26c-.27.05-.7.25-.22.3a6.55,6.55,0,0,1-2.15-.32,20.44,20.44,0,0,1-6.67.89l.06-.15c-.59-.12-.29.26-.7.18.19-.15-.46-.29,0-.49-.84-.13-1.06.3-1.6.38-.08.2.43-.14.34.12-.09.07-1.16-.12-1.28.18-.21-.11-.06-.33,0-.46l-.51.16c-.63-.33,1.4-.66.73-1.08l-.47.07c-.45-.3,1.22-.39,0-.46-.5.16-.92.61-.47.72-1.06.11-.47.73-1.62.73-.31-.17.91-.06.69-.3-.54-.22-1.07.14-1.55.06.54.11.09.42-.25.47-.59-.14.37-.28-.46-.31-.13.17-.89.3-.23.41-.3.39-.86-.1-1.31.2-.27-.28.84-.64-.06-.77.14.26-1.12.36-.64.75-.36-.08-.4-.28-.13-.44-.5-.16-1.23.48-1.39-.05l-.18.27c-.16-.09-.38-.15-.64-.3-.44,0-1.45.35-1.39,0-.14,0-1.17,0-.78.28.63.19.73-.18,1.08.2-.44-.32-.92,0-1.29.11l-.06-.15c-.22.05-.72,0-.86.17.17-.09.09-.19-.09-.23l-.24.23c-.89.1-.19-.42-1.06-.38l.66-.16c-.14,0-.43-.2-.85-.14-.17.22-.48.47-.63.64-.48.08-.21-.26-.69,0l.63-.24c.1-.08-.41-.38-1.06-.39-.41.06-1.07.36-.43.5-.33,0-.78-.16-.51-.31-.75.05.08.24-.57.36-.25-.16-1-.41-1.52-.65l.68-.32-.44,0c.58-.27-.27-.24.07-.54a2.4,2.4,0,0,0-1,.09c.84.54-1,.62-.81,1.09-1.21.05-.66-1.14-2-.5.19.13-.43.44.35.35-.74-.1-.55.42-1.42.19.67-.15-.67-.5.3-.71-.08.14.52.14.66.1-.29-.19.1-.44-.67-.49-.47,0-1.11,0-1,.24s.72,0,.4.25c-.94.05-1.06-.36-1.49.06.59,0,.71.29.69.46l-.69.06.15-.17c-1.09-.21-.36.28-1.42.15l-.47-.38c.28-.27,1.53.25,1.39-.23-.68-.08-.94.14-1.58,0l.5-.06c-.25,0-.43-.68-1.45-.39-.52.1-.15.15-.18.33-1.12,0-1.47.12-2.18.09.18-.34-1.27-.14-.43-.42a3.62,3.62,0,0,0,2.37,0c-.36-.45.87.12,1.14-.28-.88-.08-.8-.48-.91-.75a1.69,1.69,0,0,0-.64.08c-.14.24.19.26.18.52a5.82,5.82,0,0,0-2.53.11c-.31-.15-.18-.39.21-.38a23.69,23.69,0,0,1-3.53-.38c.67.48-1.26,0-.81.36.58.15,1.07.49.71.63-.37-.07,0-.18-.11-.27-.5.17-.69-.44-1.2-.14,1.09,0,.27-.47.52-.77-.8.11.06-.21-.7-.3a18.79,18.79,0,0,1-2.63.12,15.14,15.14,0,0,0-3.67-.44c-.47-.21-.08-.54-.61-.66s.41.44-.51.16l.1-.06c-.3,0-1.68-.45-2.05,0l.36-.35a1,1,0,0,0-.51,0c0-.13-.17-.26.13-.32-.53-.33-1.22-.11-1.86-.19l.37.29c-1.12,0-1.79-.31-2.85-.37l.07-.22-.64.05c.19-.2-.35-.42-.71-.28l1.71-.32c.42.19-.54.19-.3.46a1.6,1.6,0,0,0,1.38.1,1.43,1.43,0,0,0-.69,0c-.07-.33.49-.25.81-.41-.2,0-.45-.15-.51-.06a3.83,3.83,0,0,1,1.43,0c-.45.06.19.23,0,.29.09-.27.71-.27,1.48-.09.51.39,1.51,0,2.4.18a3.62,3.62,0,0,1-1.49.44c.55.21.63.07,1.18.28a2.29,2.29,0,0,1,1.33-.5v.21c.69,0,.74-.32,1.58-.16,1.45.29,3,.46,4.08.58l0,.21c.69-.38,2.1,0,3-.06,1.4.35,3.13.11,3.82.51,2.55,0,4.78.11,7.4.31l-.47.28c.48-.19.29.19.75.17-.51-.27.67-.28,1-.44a10.09,10.09,0,0,0,3.72,0l0,.2c1.07-.34,2.3,0,3.6.13a1.24,1.24,0,0,0,.77.29,7.71,7.71,0,0,1,2.14-.46,25.92,25.92,0,0,1,2.75.23c2.85-.46,5.77-.14,8.72-.55l.22.23c2.84-.58,6.4-.28,8.84-.69l-.2.43c.78.08,1.75-.21,1.53-.5.78.09,1.9-.32,2.42,0,.79,0,1-.26,1.6-.36a18.58,18.58,0,0,0,3.63-.23h-.37c-.16.1-.15.28.22.28.54-.16,2-.06,1.44-.51,1.61.13,3.65-.56,5.23-.35-.15-.12.23-.18.38-.3a20.54,20.54,0,0,0,3.93-.41c.24,0-.31.27.26.21.32-.09,0-.18.37-.31,2.19-.5,4.55-.35,6.56-.7,3.54-.82,7.29-1.34,10.68-2v.1c1-.6,2.77-.17,3.53-.91.29,0,1-.16.89.07.83-.46,2.6-.32,3.8-.94l-.31.13c1.38-.08,2.45-.63,3.9-.79-.14.08-.38.17-.38.27.59.05,1.13-.71,1.57-.32.31-.08.15-.28,0-.22a80.37,80.37,0,0,0,9.29-2.65c2.33-.35.41.74,2.05-.11.18.05,0-.2.1-.11.63-.33,1.25.21,1.63-.17-.3-.23.25-.24.21-.42,1.44-.2,1.81,0,2.79-.57l0,.17c1.09-.79,2.63-1,3.5-1.82,6.85-2.21,13.18-4.8,19.71-7.34,6.53-2.36,12.77-5.1,19.63-7.22a8.11,8.11,0,0,0,3.55-1c0,.09-.15.14,0,.16,0-.35,1.22-.45,1.25-.8,2.54-.79,4.87-1.57,7.5-2.34-.41.15-.52.46,0,.3l.45-.34.12.06c.32-.14.65-.4.25-.41,6.6-2.14,13.58-2.87,20.42-3.6,1.64-.09,3.95-.28,5.74-.46,5.31.17,10,.77,15.33.89C267.93,269,267.11,269.77,264.93,269.82Z"/><path class="cls-7" d="M823.47,324.67s-96.4-51-510.15,22.92C60.25,392.82,0,324.67,0,324.67V449.51H948C941.51,408.73,955.27,352.44,823.47,324.67Z"/></g></g></svg>