<?xml version="1.0" encoding="UTF-8" standalone="no"?>
<svg
   viewBox="0 0 249.99999 150"
   version="1.1"
   id="svg48"
   sodipodi:docname="guitarrero.svg"
   width="250"
   height="150"
   inkscape:version="1.2.1 (9c6d41e410, 2022-07-14)"
   xmlns:inkscape="http://www.inkscape.org/namespaces/inkscape"
   xmlns:sodipodi="http://sodipodi.sourceforge.net/DTD/sodipodi-0.dtd"
   xmlns="http://www.w3.org/2000/svg"
   xmlns:svg="http://www.w3.org/2000/svg"
   xmlns:rdf="http://www.w3.org/1999/02/22-rdf-syntax-ns#"
   xmlns:cc="http://creativecommons.org/ns#"
   xmlns:dc="http://purl.org/dc/elements/1.1/">
  <sodipodi:namedview
     id="namedview50"
     pagecolor="#ffffff"
     bordercolor="#000000"
     borderopacity="0.25"
     inkscape:showpageshadow="2"
     inkscape:pageopacity="0.0"
     inkscape:pagecheckerboard="0"
     inkscape:deskcolor="#d1d1d1"
     showgrid="false"
     inkscape:zoom="4.1658148"
     inkscape:cx="65.533398"
     inkscape:cy="72.374797"
     inkscape:window-width="1920"
     inkscape:window-height="1018"
     inkscape:window-x="-8"
     inkscape:window-y="-8"
     inkscape:window-maximized="1"
     inkscape:current-layer="svg48" />
  <defs
     id="defs18">
    <style
       id="style16">.cls-1{fill:#e30613;}.cls-2{fill:#fff;}.cls-3{fill:#b91919;}.cls-4{fill:none;stroke:#000;stroke-linecap:round;stroke-width:0.64px;}</style>
  </defs>
  <title
     id="title20">guitarrero</title>
  <g
     id="Layer_2"
     data-name="Layer 2"
     transform="matrix(0.94267935,0,0,0.86613806,46.249865,30.447439)">
    <g
       id="Layer_1-2"
       data-name="Layer 1">
      <path
         class="cls-1"
         d="m 18.39,14.51 a 29.47,29.47 0 0 1 10.23,-11.06 12.08,12.08 0 0 1 12,-0.68 c 3.4,1.81 3.58,6.81 3.93,10.12 1.35,13.31 -2.91,27.33 -4.16,40.36 a 0.73206899,0.73206899 0 0 0 1.46,0.11 c 0.87,-9.13 3.68,-19.85 4.36,-29 0.41,-5.55 1.25,-15.89 -2.58,-20.59 -4,-5 -10.5,-4.37 -15.7,-1.6 -4,2.12 -9.62,8.17 -11,12.55 a 0.76,0.76 0 0 0 0.28,0.85 c 0.15,0.03 0.6,0.15 1.18,-1.06 z"
         id="path22" />
      <path
         class="cls-1"
         d="M 1.5,48.55 C 1.85,37.93 19.18,12.93 31.11,24.81 c 4.33,4.3 6,12 5.67,17.84 -0.16,2.54 -1.28,9.42 -0.07,11.82 A 0.74,0.74 0 0 0 38,53.81 c -1.17,-2.27 0.12,-9.74 0.28,-12.17 A 25.74,25.74 0 0 0 36.69,32.09 C 35.23,27.65 32.14,21.61 26.99,20.67 20.26,19.42 15.8,22.55 11.25,27.21 6.24,32.38 0.27,41 0,48.45 c 0,0.94 1.45,1.04 1.5,0.1 z"
         id="path24" />
      <path
         d="M 41.31,2.93 A 8.26,8.26 0 0 0 37.2,8.18 c -1.33,4.21 3.14,8.64 6.71,8.57 5.34,-0.08 9.25,-4.06 7.92,-9.8 C 50.5,1.21 44.17,1.25 41.31,2.93 Z"
         id="path26" />
      <path
         d="M 11.82,22.86 C 6,23.61 2.2,31.21 6.15,36.5 c 3,4 8.1,2.91 10.87,1.32 2.77,-1.59 3.25,-4.78 3.17,-8 -0.09,-3.59 -4.11,-7.5 -8.37,-6.96 z"
         id="path28" />
      <path
         class="cls-1"
         d="m 70.36,53.31 a 112.34,112.34 0 0 0 -11.46,0 c -3.56,0.15 -6.79,1.12 -10.32,0.87 -4.33,-0.29 -6.95,-2.45 -11.21,-3.54 -9.72,-2.24 -15.6,2.9 -20.12,11.29 -2.72,5.34 -8.56,15.63 -7,22.44 1.54,6.43 3.33,3.38 6.34,-0.36 C 20,80.3 20.82,79.18 26,78.36 A 155.18,155.18 0 0 1 49.86,76 c 10,-0.56 20,0.4 30,0.92 6.08,0.31 12.15,0.28 18.21,0.68 4.22,0.28 8.47,0.35 12.69,0.39 5.09,0.07 10.18,-0.14 15.25,-0.07 3.09,0 6.2,-0.13 9.3,-0.24 2.49,-0.08 4.93,-0.33 7.39,-0.61 4.18,-0.49 19,-0.18 20.51,-5.14 1.51,-4.96 -12.22,-9.57 -16,-11 C 136.06,56.61 123.84,56.18 112.03,55.77 98.21,55.6 82.86,55 70,52.5"
         id="path30" />
      <path
         class="cls-2"
         d="m 33.48,53.17 c -6.31,-0.81 -12,7.62 -6.37,12.31 3.7,3.25 8.72,1.16 10.66,-2.83 2.57,-4.65 -2.08,-9.38 -4.29,-9.48 z"
         id="path32" />
      <path
         d="m 30.55,58.52 c -1.39,-0.17 -2.65,1.67 -1.4,2.69 a 1.51,1.51 0 0 0 2.35,-0.62 1.5,1.5 0 0 0 -0.95,-2.07 z"
         id="path34" />
      <path
         d="m 66.58,53.64 c 0.45,7.93 1.9,13.48 10.29,14.84 8.59,1.37 23.52,4 32,3.39 10.31,-0.68 20.46,2.06 30.81,1 a 228.08,228.08 0 0 1 23.61,-1.56 c -1.67,-4.46 -6.22,-7.34 -9.58,-10.34 -3.36,-2.78 -6.74,-5.39 -10.51,-8 -8.48,-5.91 -17.73,-6.34 -27.49,-8 -10,-1.67 -19.61,-2.12 -29.62,0 -5.81,1.19 -16.52,2 -19.49,8 l -0.55,0.14 z"
         id="path36" />
      <path
         class="cls-3"
         d="m 55,88.7 c 0.33,-4.75 0.94,-9.61 2.84,-14.1 0.5,-1 1.41,-3.8 3,-3.27 1.13,0.37 0.53,2.93 1.46,3.85 1.34,1.54 2.69,0.76 3.11,-1.09 0.24,-1.42 -0.67,-2.93 -1.29,-4.27 -3.63,-8.2 -8.52,0 -9.85,4.81 -1.36,5.11 -2,10.69 -3.8,15.63 -1.79,-1.28 -4.66,-1.62 -6.23,0.3 -2.24,2.6 1.26,2.54 3.26,2.54 3.18,0.08 7.06,1.48 7.5,-4.4 z"
         id="path38" />
      <path
         class="cls-3"
         d="m 93.5,67.21 c -1,1.67 -8,13.05 -2.11,11.85 3.23,-0.66 3.4,-5.25 4.71,-7.48 1.16,-2.39 4.78,-6.77 8,-5 3.9,2.29 1.56,11.92 1,15.49 -0.47,2.71 -0.59,9.52 -0.54,6.78 0,0 -1.54,6 2.41,7.64 2,0.81 7.8,2.8 8.33,-0.77 0.5,-3.14 -4.48,-3 -6.49,-3.1 0,-4 0.59,-6.46 0.6,-9 0,-2.88 0,-5.92 0.18,-9 0.37,-5.47 -1.75,-14.85 -9.42,-12.34 -1.32,0.38 -5.3,3.16 -6.67,4.93 z"
         id="path40" />
      <path
         class="cls-3"
         d="m 137.56,55.9 c 8.44,1 6.41,11.84 5.31,17.41 -1.12,5.84 -2.42,12.11 -2.68,18.17 2.43,0.31 6.49,-2 8.21,0.4 2.36,3.49 -3.57,5.69 -6,5.66 -3.76,-0.11 -6.36,0 -6.65,-4.21 -0.21,-3.33 0.31,-6.76 0.54,-10.22 a 121.49,121.49 0 0 1 1.82,-12 c 0.28,-2 2.42,-7.93 0.07,-9.38 -2.65,-1.48 -7.63,3.82 -9.19,5.6 -2.18,2.46 -3.44,6 -5.47,8.3 -3.59,4.1 -3.84,-2.86 -2.81,-5.25 a 20,20 0 0 1 4.5,-7.09 c 3.57,-3.39 8.95,-7.8 12.35,-7.39 z"
         id="path42" />
      <path
         class="cls-4"
         d="m 21.11,79.29 c 4.13,-3.8 2.74,-7.06 2.74,-7.06"
         id="path44" />
    </g>
  </g>
  <metadata
     id="metadata171">
    <rdf:RDF>
      <cc:Work
         rdf:about="">
        <dc:title>guitarrero</dc:title>
      </cc:Work>
    </rdf:RDF>
  </metadata>
</svg>
