<?xml version="1.0" encoding="UTF-8" standalone="no"?>
<svg
   viewBox="0 0 250.00001 150"
   version="1.1"
   id="svg42"
   sodipodi:docname="tero.svg"
   width="250"
   height="150"
   inkscape:version="1.2.1 (9c6d41e410, 2022-07-14)"
   xmlns:inkscape="http://www.inkscape.org/namespaces/inkscape"
   xmlns:sodipodi="http://sodipodi.sourceforge.net/DTD/sodipodi-0.dtd"
   xmlns="http://www.w3.org/2000/svg"
   xmlns:svg="http://www.w3.org/2000/svg"
   xmlns:rdf="http://www.w3.org/1999/02/22-rdf-syntax-ns#"
   xmlns:cc="http://creativecommons.org/ns#"
   xmlns:dc="http://purl.org/dc/elements/1.1/">
  <sodipodi:namedview
     id="namedview44"
     pagecolor="#ffffff"
     bordercolor="#000000"
     borderopacity="0.25"
     inkscape:showpageshadow="2"
     inkscape:pageopacity="0.0"
     inkscape:pagecheckerboard="0"
     inkscape:deskcolor="#d1d1d1"
     showgrid="false"
     inkscape:zoom="2.2140203"
     inkscape:cx="67.750056"
     inkscape:cy="31.842526"
     inkscape:window-width="1920"
     inkscape:window-height="1018"
     inkscape:window-x="-8"
     inkscape:window-y="-8"
     inkscape:window-maximized="1"
     inkscape:current-layer="svg42" />
  <defs
     id="defs4">
    <style
       id="style2">.cls-1{fill:#f3a5c2;}.cls-2{fill:#f0efe5;}.cls-3,.cls-4{fill:none;stroke-linecap:round;}.cls-3{stroke:#dad8cc;stroke-width:0.25px;}.cls-4{stroke:#000;stroke-miterlimit:10;stroke-width:0.6px;}.cls-5{fill:#fff;}</style>
  </defs>
  <title
     id="title6">tero</title>
  <g
     id="Layer_2"
     data-name="Layer 2"
     transform="matrix(0.82017742,0,0,0.72503628,66.704294,17.724607)">
    <g
       id="Layer_1-2"
       data-name="Layer 1">
      <path
         class="cls-1"
         d="M 83.34,103.43 A 66.06,66.06 0 0 1 86,114 c 0.76,5.42 2.65,12 2.27,17.46 -0.51,6.55 -2.12,7.47 -4.63,13.39 -0.63,1.39 -2.52,4.48 -3.26,5.75 -1,1.76 -1,3.18 -3,3.3 -2,0.12 -11.49,0 -13.22,0.8 a 1.35,1.35 0 0 0 -0.64,0.63 c 2.79,0.7 9.24,-0.11 12.12,0 -2.11,1.4 -7.46,2.88 -9.22,5.91 1.76,0.25 4.48,-1.41 6.12,-2.16 1.89,-0.76 3.71,-2.26 5.59,-2.89 -1.13,2.39 -4.65,4.91 -4.52,7.81 5,-3.57 9.43,-14 10.95,-16.64 1.52,-2.64 3.39,-7.67 4.53,-10.19 1.25,-2.77 3.9,-2.32 2.26,-5.59 -1.26,-2.4 -1.45,-6.69 -1.65,-9.5 -0.41,-5.36 -1,-9.61 -1.37,-14.9 -0.09,-1.41 -0.18,-2.81 -0.34,-4.21 -0.08,-0.62 -3.82,0.92 -3.93,0.31"
         id="path8" />
      <path
         class="cls-1"
         d="m 71,101 c -0.76,9.46 -5.53,24.45 -6.14,26.56 -1.45,5 -3.11,10.1 -6,14.51 -1.5,2.27 -2.79,4.55 -3.6,4.91 a 31.8,31.8 0 0 1 -8.45,1.84 c -1.27,0.13 -6.58,0.64 -6.83,2.28 1.5,0.63 4.36,-0.55 6,-0.67 2.27,-0.26 4.13,-0.71 6.46,-1 -1.83,1.58 -8.56,3.46 -9.18,6.75 3.14,-0.78 8.19,-4.3 10.83,-6.18 -0.63,2.52 -5.45,6 -4.65,8.5 1.11,-1.25 3.08,-2.73 4.75,-4.86 a 21.26,21.26 0 0 0 3.29,-6.28 c 2,-2.26 4.43,-6.53 5.93,-9.3 1.27,-2.4 1.16,-4.54 2.8,-6.68 0.76,-1 1.73,-0.92 2.25,-2 0.52,-1.08 0,-1.68 -0.3,-3.06 -0.38,-2.26 1.43,-6.53 2.19,-8.67 1.88,-5.16 2.78,-8.77 4.3,-14.06 0.38,-1.4 1.11,-2.07 1.36,-3.46 -1.39,-0.38 -3.13,1.39 -4.4,2"
         id="path10" />
      <path
         class="cls-2"
         d="m 64.59,63.37 c 1.35,-6 17.44,-53 12.25,-57.34 A 12,12 0 0 0 71.76,3.48 C 61.92,1.36 46.28,6.38 43,16.23 a 1.6,1.6 0 0 0 0,0.71 c 0.05,0.67 0.26,1.53 0.3,2 0.17,2.28 0.26,4.57 0.34,6.85 0.14,3.62 2.09,6.88 2.31,10.59 a 43.24,43.24 0 0 1 -0.22,6.75"
         id="path12" />
      <path
         class="cls-2"
         d="m 45.69,43.11 c -0.3,2.77 -0.81,5.51 -1.33,8.27 a 70.49,70.49 0 0 0 -1.52,13.05 c 0.1,7.21 2.8,15 5.44,21.7 2.56,6.49 6.44,13.2 13.26,15.87 8.88,3.48 21.42,6.76 30.88,5.41 7,-1.11 13.94,-2.55 20.74,-3.85 l 1.06,-0.21 c 3.48,-0.58 10.81,-2.5 14.1,-3.48 1.77,-0.52 6.71,-0.43 7.21,-2.56 -1.81,-0.17 -3.66,-0.49 -5.49,-0.78 -5.63,-0.87 -9,-4.1 -13.75,-7 -1.9,-1.16 -3.76,-1.79 -5.53,-3.24 -7.86,-6.35 -15.6,-13.79 -25.87,-15.77 -5,-1 -8.49,-1.93 -12.74,-4.83"
         id="path14" />
      <path
         class="cls-3"
         d="m 43.6,25.77 c 0.14,3.62 2.09,6.88 2.31,10.59 a 42.09,42.09 0 0 1 -0.22,6.75"
         id="path16" />
      <path
         class="cls-3"
         d="M 77,6.18 A 12,12 0 0 0 71.74,3.48 C 61.92,1.36 46.28,6.38 43,16.23 a 1.63,1.63 0 0 0 0,0.57"
         id="path18" />
      <path
         class="cls-3"
         d="M 84.57,70.45 A 32,32 0 0 1 75.45,67.64"
         id="path20" />
      <path
         class="cls-3"
         d="m 45.69,43.11 c -0.3,2.77 -0.81,5.51 -1.33,8.27 a 70.49,70.49 0 0 0 -1.52,13.05 c 0.1,7.21 2.8,15 5.44,21.7 2.56,6.49 6.44,13.2 13.26,15.87 8.88,3.48 21.42,6.76 30.88,5.41 7,-1.12 14,-2.58 20.87,-3.88"
         id="path22" />
      <path
         d="M 76.41,7.07 C 78.07,4.44 82.71,0.72 85.6,0 c -1,0.82 -4.69,4.48 -5.66,6.8 a 13.06,13.06 0 0 1 7.08,-2 C 81.8,6.49 80.46,9.31 78,14.14 c -0.39,-1.35 -3.25,-1.2 -3.45,-2.18 -0.23,-1.15 1.04,-3.6 1.86,-4.89 z"
         id="path24" />
      <path
         d="m 75.45,67.64 a 30.24,30.24 0 0 1 -3.31,-2 c -6,-4 -2.12,-8.12 -0.38,-13.72 a 109.18,109.18 0 0 1 6,-14.87 C 79.87,33.05 82,29.37 83,24.74 A 20.94,20.94 0 0 0 80.18,10 c -1.11,2.16 -8.31,0.87 -12.77,1.85 -1.49,0.33 -0.72,3.19 -1.92,3.47 -2.77,0.64 -6.51,3.14 -4.73,3.43 7.28,1.14 10.14,4.59 10.39,8 C 72.13,40 41,57 49,71.89 c 5,8.98 18.13,1.81 26.45,-4.25 z"
         id="path26" />
      <path
         d="m 59.86,22.59 c 4.43,0.86 7.68,-2.32 8,-6.89 0.41,-5.18 -3,-7.24 -6.59,-6.94 C 53.81,9.41 50,20.65 59.86,22.59 Z"
         id="path28" />
      <path
         class="cls-4"
         d="m 51.1,29.17 c -1.93,3.48 3.28,6 4.63,1"
         id="path30" />
      <path
         d="m 135.51,97.31 c -1.8,-0.17 -3.65,-0.49 -5.48,-0.78 -5.63,-0.87 -9,-4.1 -13.74,-7 -1.9,-1.16 -3.76,-1.79 -5.53,-3.24 C 102.9,79.92 95.17,72.48 84.89,70.5 l -0.3,-0.07 A 19,19 0 0 0 83,72 c -2.94,2.94 -7.18,7 -7,11.63 0.19,4.83 4.44,7.14 8.3,9.47 8.21,5.11 19.51,8.83 29.19,10.37 l 0.71,-0.14 c 3.48,-0.59 10.81,-2.51 14.09,-3.48 1.77,-0.5 6.71,-0.41 7.22,-2.54 z"
         id="path32" />
      <path
         d="m 31.85,28.61 c 2.38,-0.55 4.77,-1.1 7.16,-1.59 1.13,-0.23 2.24,-0.46 3.37,-0.67 A 2.08,2.08 0 0 0 44.3,24.8 9,9 0 0 0 45,22.2 6.91,6.91 0 0 0 44.2,18.48 c -0.19,-0.36 -0.62,-1.36 -1,-1.51 -0.38,-0.15 -1,0.35 -1.4,0.55 -1.74,0.88 -3.5,1.71 -5.27,2.53 -3.87,1.78 -7.79,3.45 -11.73,5.1 -8.33,3.45 -16.73,6.7 -24.8,10.64 9.47,-2.4 19.59,-4.3 31.85,-7.18 z"
         id="path34" />
      <path
         class="cls-5"
         d="m 60.15,10 c -4.68,1.15 -8.65,10.23 0.31,11.6 3.41,0.51 6.51,-2.56 6.44,-6.69 C 66.83,10.78 63.51,9.15 60.15,10 Z"
         id="path36" />
      <path
         d="m 59,16.33 a 1.4012584,1.4012584 0 0 0 0.54,-2.75 C 58.15,13.32 57.18,16 59,16.33 Z"
         id="path38" />
    </g>
  </g>
  <metadata
     id="metadata150">
    <rdf:RDF>
      <cc:Work
         rdf:about="">
        <dc:title>tero</dc:title>
      </cc:Work>
    </rdf:RDF>
  </metadata>
</svg>
