<svg xmlns="http://www.w3.org/2000/svg" viewBox="0 0 412 54.03"><defs><style>.cls-1{fill:#2bb673;}</style></defs><title>titulo</title><g id="Layer_2" data-name="Layer 2"><g id="Layer_1-2" data-name="Layer 1"><path class="cls-1" d="M14.64,22.6a28.42,28.42,0,0,1,.18,3.12,30.54,30.54,0,0,1-.23,3.64A23.44,23.44,0,0,1,13.87,33a13,13,0,0,1-1.2,3.07,15.68,15.68,0,0,1-2.19,2.76c-.87.88-1.71,1.73-2.53,2.53a4,4,0,0,0-.66,2.74A2.68,2.68,0,0,0,8.13,46a2.86,2.86,0,0,0,2.2.55,6,6,0,0,0,3.72-1.68,3.84,3.84,0,0,0,1.1-3.38c-.08-.67-.18-1.37-.33-2.09a20.11,20.11,0,0,1-.33-2.22,1.94,1.94,0,0,1,.25-1,7.91,7.91,0,0,1,.77-1.18,6.69,6.69,0,0,1,1-1,1.63,1.63,0,0,1,.92-.44h.28a4.67,4.67,0,0,1,.92,0c.46,0,.76,0,.92,0a6.64,6.64,0,0,1,2.14,3.2,26.05,26.05,0,0,1,.84,3.72,7.16,7.16,0,0,1,0,1.85,11.37,11.37,0,0,1-.38,1.84,11.73,11.73,0,0,1-3.93,6.68c-1.94,1.57-4.75,2.5-8.43,2.81a9.75,9.75,0,0,1-3.85-.41A8.16,8.16,0,0,1,3,51.5,8.64,8.64,0,0,1,1,49a8.56,8.56,0,0,1-.92-3.07A10,10,0,0,1,0,43.55,8.68,8.68,0,0,1,.5,41.23a6.82,6.82,0,0,1,1.12-2.11,6.89,6.89,0,0,1,2-1.73c.54-.34,1.12-.73,1.79-1.11A4.91,4.91,0,0,0,7,34.88a8.1,8.1,0,0,0,1.07-2.65,21.91,21.91,0,0,0,.44-3.15c0-1.19,0-2.25,0-3.28s-.08-2-.1-2.81-.13-1.32-.15-1.83A2.06,2.06,0,0,1,8.46,20a2.16,2.16,0,0,1,1-.72,7.57,7.57,0,0,1,2.22-.41,2.49,2.49,0,0,1,1.48.28,2.49,2.49,0,0,1,.84.9,4.07,4.07,0,0,1,.44,1.27C14.54,21.78,14.61,22.22,14.64,22.6Zm.18-10.68a11.73,11.73,0,0,1,0,1.57A3.48,3.48,0,0,1,14.33,15a2.89,2.89,0,0,1-1.07,1.16,4.25,4.25,0,0,1-1.81.56,3.26,3.26,0,0,1-1.51-.2,4.46,4.46,0,0,1-1.35-.75,4.58,4.58,0,0,1-1-1.06,2.51,2.51,0,0,1-.48-1.16,3.51,3.51,0,0,1,.18-1.39A3.47,3.47,0,0,1,8,10.84a4.48,4.48,0,0,1,1.23-1,3.83,3.83,0,0,1,1.55-.46,4.63,4.63,0,0,1,2.71.57A2.63,2.63,0,0,1,14.82,11.92Z"/><path class="cls-1" d="M43.51,49.72a3.35,3.35,0,0,0-1.3.59c-.38.29-.74.57-1.1.88A9,9,0,0,1,40,52a2.79,2.79,0,0,1-1.4.44,4.89,4.89,0,0,1-2.2-.28,13.76,13.76,0,0,1-2-1,8.65,8.65,0,0,1-2.91-2.34,13.54,13.54,0,0,1-1.94-3.18,17.33,17.33,0,0,1-1.15-3.64,26.08,26.08,0,0,1-.51-3.76,1.47,1.47,0,0,0-.05-.26,1,1,0,0,1-.05-.21c0-2.19-.13-4.41-.26-6.68a36.83,36.83,0,0,1,.18-6.58,21.17,21.17,0,0,1,1.63-6.09,13.86,13.86,0,0,1,4.24-5.24,18.2,18.2,0,0,1,2.63-1.7,7.25,7.25,0,0,1,2.91-1,6.35,6.35,0,0,1,2.38.34,6.86,6.86,0,0,1,1.88,1.11,9.83,9.83,0,0,1,1.56,1.65c.46.62.9,1.24,1.33,1.83a20.91,20.91,0,0,0,1.38,2,4.86,4.86,0,0,1,1,2.09c0,.23,0,.62.08,1.16s.1,1.14.15,1.73A17,17,0,0,0,49,24.2c.05.54.07.91.07,1.09,0,.38.08.87.11,1.47s.07,1.21.1,1.83.07,1.13.1,1.62,0,.73,0,.78c0,.54.05,1.13.05,1.86s0,1.44,0,2.22-.08,1.52-.16,2.27-.18,1.39-.28,2a3.3,3.3,0,0,1-.07.49c-.06.25-.11.51-.18.8s-.11.54-.18.8-.08.38-.08.41a.34.34,0,0,1,0,.13.24.24,0,0,0,0,.13,2.1,2.1,0,0,0,.77,1.42c.46.46,1,.93,1.53,1.42s1.07,1,1.56,1.47a2.71,2.71,0,0,1,.76,1.6,3.83,3.83,0,0,1-.48,1.26,18.28,18.28,0,0,1-1.13,2c-.43.7-.87,1.31-1.3,1.91s-.77.85-1,.85A.32.32,0,0,1,49,54a.22.22,0,0,0-.11,0L43.92,49.9c0-.08-.1-.13-.23-.18A.19.19,0,0,0,43.51,49.72Zm-9-15.89c.07.8.15,1.7.25,2.73a17.44,17.44,0,0,0,.56,3,10.06,10.06,0,0,0,1.2,2.66A4.49,4.49,0,0,0,38.69,44a1.28,1.28,0,0,0,.46-.64,2.7,2.7,0,0,1,.23-.6v-.1a.43.43,0,0,0-.05-.18c-.49-.62-1.08-1.32-1.77-2.12a4.93,4.93,0,0,1-1.2-2.52,2.44,2.44,0,0,1,.23-1,3.5,3.5,0,0,1,.59-.85,3.62,3.62,0,0,1,.87-.62,2.52,2.52,0,0,1,1-.31,1.31,1.31,0,0,1,.92.21,9.29,9.29,0,0,1,.79.56c.23.21.46.39.64.57a.67.67,0,0,0,.56.21c.31-.11.51-.49.64-1.11a15.24,15.24,0,0,0,.25-2.07c0-.74,0-1.49,0-2.19s-.07-1.21-.1-1.5,0-.59-.07-1.18-.13-1.29-.23-2.07-.21-1.57-.36-2.45a16.8,16.8,0,0,0-.56-2.32A6.48,6.48,0,0,0,40.73,20a1.22,1.22,0,0,0-1.1-.62,2.6,2.6,0,0,0-1.84,1,8.45,8.45,0,0,0-1.37,2.27,15.29,15.29,0,0,0-1,3c-.25,1.11-.43,2.19-.59,3.28s-.23,2-.28,2.91A11.36,11.36,0,0,0,34.53,33.83Z"/><path class="cls-1" d="M75.07,52.56a1.15,1.15,0,0,1-.77-.62,7.24,7.24,0,0,1-.38-1.08c-.1-.39-.18-.73-.23-1s-.15-.41-.31-.41a2.1,2.1,0,0,0-.87.51l-1.2,1a12.54,12.54,0,0,1-1.5,1.08,3.85,3.85,0,0,1-1.74.57,7.21,7.21,0,0,1-2.22-.11,5.55,5.55,0,0,1-2-.8,9.58,9.58,0,0,1-3.17-2.94A14.66,14.66,0,0,1,58.91,45a21.4,21.4,0,0,1-.9-4.31c-.17-1.49-.33-2.94-.48-4.33a49.68,49.68,0,0,1-.15-7.9c.17-2.6.33-5.26.53-7.94v-.55c0-.28,0-.59.05-.9s0-.62,0-.9V17.6c0-.6.05-1.14.05-1.6a2.63,2.63,0,0,1,.23-1.16,2.16,2.16,0,0,1,.77-.83,4.77,4.77,0,0,1,1.66-.52,3.46,3.46,0,0,1,.82,0,10.51,10.51,0,0,1,1.12.26,7.06,7.06,0,0,1,1.12.39,1.93,1.93,0,0,1,.72.46,2.91,2.91,0,0,0,0,.39c0,.18,0,.33,0,.38A17.32,17.32,0,0,1,64.65,18a23.88,23.88,0,0,1-.23,2.76c-.1.93-.23,1.83-.3,2.76s-.16,1.78-.21,2.61a33.27,33.27,0,0,0,.05,5c.16,1.63.31,3.31.51,5A33.31,33.31,0,0,0,65,39.58a5,5,0,0,0,1.71,2.92c.07.07.28.25.61.51a6.18,6.18,0,0,1,.61.52l.21,0a.8.8,0,0,0,.2.05h.16a3.4,3.4,0,0,1,.45-.23.79.79,0,0,0,.46-.47A21.16,21.16,0,0,0,71,38.34a27.27,27.27,0,0,0,.61-4.51,43.32,43.32,0,0,0,.08-4.57c0-1.55,0-3.15,0-4.83V24.1a5.16,5.16,0,0,1,0-.67c0-.26,0-.49,0-.7s0-.39,0-.51,0-.19,0-.44.08-.57.11-.88.07-.59.1-.85,0-.41,0-.49A19.37,19.37,0,0,0,72,17,6.11,6.11,0,0,1,72,15a1.89,1.89,0,0,1,.89-1.27,5.78,5.78,0,0,1,2.58-.64c.23,0,.54-.08.89-.11a4.52,4.52,0,0,1,1.13-.1,3.52,3.52,0,0,1,1,.23,1.28,1.28,0,0,1,.69.73,6.53,6.53,0,0,0,.1,1,8.93,8.93,0,0,0,.18.93,31.84,31.84,0,0,1,.08,5.34c-.13,1.76-.23,3.51-.31,5.34a9.67,9.67,0,0,0,0,1.76,6.57,6.57,0,0,1,0,1.88c.26,1.73.43,3.48.54,5.19s.15,3.45.2,5.18.08,3.49.1,5.22.1,3.48.23,5.21c-.08.31-.18.62-.28.9a.74.74,0,0,1-.66.52,12.66,12.66,0,0,1-2.1.05A9.81,9.81,0,0,0,75.07,52.56Z"/><path class="cls-1" d="M87.09,49.54a1.66,1.66,0,0,1,0-.26c0-.1,0-.15,0-.2,0-.49.1-1.09.18-1.78a7,7,0,0,1,.38-1.73,1.21,1.21,0,0,1,.56-.6,7.38,7.38,0,0,1,.82-.33c.28-.11.56-.21.82-.29a1.22,1.22,0,0,0,.61-.49s.08,0,.08-.18a1.42,1.42,0,0,0,0-.28,3.5,3.5,0,0,1,0-.47c0-.23,0-.49,0-.77a7.58,7.58,0,0,0,0-.83v-.56c-.11-3.07-.13-6.12-.08-9.14s0-6.06-.21-9.08c0-.08,0-.23-.05-.46s-.07-.47-.07-.75,0-.52,0-.72a4,4,0,0,1,0-.52.74.74,0,0,0-.54-.62l-.91-.23a3.32,3.32,0,0,1-.9-.36,1.26,1.26,0,0,1-.46-.93s0-.08,0-.1a.2.2,0,0,1,0-.11V16.59c0-.54,0-1.13,0-1.75s0-1.22,0-1.76V12c.08-.31.18-.67.28-1.13s.34-.73.62-.8l.1.05h.1a12.6,12.6,0,0,0,2.35.13c1,0,2,0,3.09,0a16.34,16.34,0,0,1,2.93.39,3,3,0,0,1,1.94,1.11,1.74,1.74,0,0,1,.29,1.08,10.25,10.25,0,0,0,0,1.13A10.48,10.48,0,0,1,99,17.39a2.26,2.26,0,0,1-.66,1.34,1.85,1.85,0,0,1-.87.44c-.31.08-.48.39-.56.93a36.66,36.66,0,0,0-.46,4.77c0,1.6,0,3.18,0,4.78s.12,3.17.25,4.74.2,3.15.28,4.75v1.65c0,.39,0,.73,0,1.06s0,.52,0,.59v.47a1,1,0,0,0,.51.9c.31.16.64.29,1,.44a4.67,4.67,0,0,1,1.05.52,1.56,1.56,0,0,1,.59,1.16c0,.26,0,.64,0,1.16a7.67,7.67,0,0,1-.07,1.52A4.53,4.53,0,0,1,99.75,50a1.11,1.11,0,0,1-1,.68,9.21,9.21,0,0,1-2.56.1,13.53,13.53,0,0,0-2.55,0,7.65,7.65,0,0,0-.82.08c-.43,0-.89.1-1.35.18s-.92.1-1.35.13a6.66,6.66,0,0,1-.82,0,2.81,2.81,0,0,1-1.45-.31A1.72,1.72,0,0,1,87.09,49.54Z"/><path class="cls-1" d="M108.43,52a2.93,2.93,0,0,1-.43-.36.61.61,0,0,1-.23-.49,26.62,26.62,0,0,1,0-5.5,48.89,48.89,0,0,0,.31-5.52c0-2.27-.08-4.54-.2-6.84s-.28-4.56-.44-6.86-.25-4.57-.35-6.84-.11-4.51,0-6.76a1.91,1.91,0,0,1,.2-.74.84.84,0,0,1,.59-.47,5.13,5.13,0,0,1,1.33.05,3.91,3.91,0,0,0,1.25.05c.15,0,.43,0,.84,0s.84,0,1.33,0,.92,0,1.33-.05.69,0,.84,0,.18,0,.46-.05l.84-.11c.31-.05.56-.07.82-.1l.48-.05c.23,0,.59,0,1.1-.05a7.62,7.62,0,0,1,1.51,0,5.24,5.24,0,0,1,1.38.23.76.76,0,0,1,.66.67l.38,4.77a.84.84,0,0,1-.38.78,2,2,0,0,1-.84.36,9.37,9.37,0,0,1-2.25-.1,8.41,8.41,0,0,0-2.3-.08,7.37,7.37,0,0,0-.74,0A6,6,0,0,0,115,18a2.1,2.1,0,0,0-.81.37.75.75,0,0,0-.34.67,33.79,33.79,0,0,1,0,4.72,29.12,29.12,0,0,0,.06,4.77c0,.18,0,.44,0,.75a1.23,1.23,0,0,0,.33.75,1.89,1.89,0,0,0,.71.26,6.54,6.54,0,0,0,1,.07c.33,0,.64,0,.94,0a6.36,6.36,0,0,1,.67,0l.84-.05c.41,0,.84-.08,1.3-.13L121,30a6.53,6.53,0,0,1,.85-.05.37.37,0,0,1,.28.21.68.68,0,0,1,.1.31l.38,3.69a1.76,1.76,0,0,1-.25,1,1.15,1.15,0,0,1-.77.57,9,9,0,0,1-2.48,0,10.54,10.54,0,0,0-2.52-.08,1.89,1.89,0,0,0-1.12.44,1.5,1.5,0,0,0-.47.78,4.55,4.55,0,0,0-.1,1v1.18c0,.11,0,.39,0,.83s-.08.9-.15,1.39-.1,1-.15,1.37a4.74,4.74,0,0,1-.11.8c.08,0,.11.16,0,.34a.58.58,0,0,0,.06.43,3.28,3.28,0,0,0,.1.83.56.56,0,0,0,.61.49h6.54a6.31,6.31,0,0,1,1.63.18c.48.1.82.54,1,1.24a4.54,4.54,0,0,0,.08.54c.05.29.1.6.18,1s.1.72.17,1.08.11.65.16.83v.33c.07.54,0,.83-.38.9l-1.13.24a26.6,26.6,0,0,1-4.72.13c-1.58-.11-3.14-.16-4.72-.21a3.05,3.05,0,0,0-.85,0c-.46.06-.71.08-.79.08s-.41,0-.82,0l-1.22.08a10.49,10.49,0,0,1-1.2.07A6.15,6.15,0,0,0,108.43,52Zm-.28-43.42c0-.11.15-.34.49-.67s.66-.7,1.07-1.11.79-.78,1.17-1.14.69-.62.87-.77a4.14,4.14,0,0,0,.49-.39,2.68,2.68,0,0,0,.41-.46c.1-.11.28-.29.51-.55s.46-.49.74-.77l.76-.77c.26-.24.41-.42.49-.5A2.86,2.86,0,0,1,116,.52,2,2,0,0,1,117.14,0a1.12,1.12,0,0,1,.56.23c.23.16.46.34.71.54s.46.42.64.6a2.16,2.16,0,0,1,.33.38V2.89a.72.72,0,0,1-.28.52c-.1.1-.33.28-.61.54s-.51.41-.61.49c-1.25.88-2.48,1.75-3.73,2.68S111.62,9,110.35,9.8a.57.57,0,0,1-.28.08c-.08,0-.18,0-.34,0a1.66,1.66,0,0,1-1.09-.44A1.17,1.17,0,0,1,108.15,8.57Z"/><path class="cls-1" d="M139.22,37.18a1,1,0,0,0-.15-.8.78.78,0,0,0-.72-.44h-.18c0,.31,0,.83,0,1.55s0,1.52-.05,2.35,0,1.62,0,2.37,0,1.27,0,1.52v1.19a17.16,17.16,0,0,0,.23,2.25c.1.72.18,1.49.23,2.24a2,2,0,0,1-.15.83c-.1.2-.36.31-.77.31a14.17,14.17,0,0,1-2.24.05,14.08,14.08,0,0,0-2.3.1,1,1,0,0,1-.39-.46l-.23-.47a6.39,6.39,0,0,0-.07-.64c-.05-.36-.08-.6-.08-.7a34.25,34.25,0,0,1,0-3.51c.05-1.16.12-2.35.2-3.53,0-1.94,0-3.82-.08-5.68a33.35,33.35,0,0,1,.36-5.68l-.79-15.94a6.64,6.64,0,0,1,0-.72,3.19,3.19,0,0,1,.17-.88,2.58,2.58,0,0,1,.39-.72.76.76,0,0,1,.64-.31h.23c.89.07,1.63.15,2.22.23s1,.51,1.2,1.31.63,1.66,1,2.51.71,1.62,1,2.37a.32.32,0,0,1,.05.21v.2a17.74,17.74,0,0,0,.9,3.15c.41,1.09.81,2.07,1.17,3a2.16,2.16,0,0,0,.23,1.31A15.2,15.2,0,0,0,142,27.2c.31.49.56.95.82,1.41a1.59,1.59,0,0,1,.26,1.14,5.05,5.05,0,0,0,.28.72c.15.36.28.75.43,1.16s.26.8.38,1.16a7.28,7.28,0,0,0,.31.78c0,.1.08.28.15.49s.13.44.21.67.12.49.2.7a2.89,2.89,0,0,1,.08.46,7.1,7.1,0,0,1,.38,1.42,1.67,1.67,0,0,0,.79,1.19,2.92,2.92,0,0,0,.28-1.24,88.66,88.66,0,0,0,.72-12.39c-.05-4.05-.13-8.18-.21-12.43a3.54,3.54,0,0,1,.28-.47c.16-.23.26-.33.34-.33l4.49-.34c.33,0,.51.1.51.29A.37.37,0,0,0,153,12a42.2,42.2,0,0,0,0,5,33.85,33.85,0,0,1,0,5c-.25,2.46-.51,4.88-.71,7.2a45.29,45.29,0,0,0,0,7.28l-.46,12.54a4,4,0,0,1-.56,1.39,2.28,2.28,0,0,1-1.12,1.11,5.71,5.71,0,0,0-.59,0l-.59,0a19,19,0,0,1-2.7.06,20.34,20.34,0,0,1-2.71-.29c-.48,0-.87-.38-1.12-1.06a10.63,10.63,0,0,1-.59-2.21c-.13-.83-.23-1.6-.28-2.33s-.1-1.21-.13-1.44-.1-.47-.23-1a6.43,6.43,0,0,0-.28-1c-.08-.19-.18-.52-.33-1s-.31-1-.49-1.54-.33-1.06-.48-1.55A8.21,8.21,0,0,0,139.22,37.18Z"/><path class="cls-1" d="M197.4,53.23c0-.1,0-.34-.05-.65a10,10,0,0,0-.13-1c-.05-.36-.1-.69-.15-1s0-.54,0-.64c-.1-1.11-.18-2.2-.2-3.31s0-2.19,0-3.33,0-2.21,0-3.32a28.24,28.24,0,0,0-.18-3.31c0-.31-.07-.64-.15-1s-.31-.6-.77-.6a8.77,8.77,0,0,0-.89.08c-.41.05-.87.1-1.35.18s-.95.1-1.38.18-.74.08-.92.08a.37.37,0,0,1-.23.08,1.42,1.42,0,0,1-.28,0,1,1,0,0,0-.82.88,9,9,0,0,0-.23,1.75,12.34,12.34,0,0,0,.08,1.94,10.94,10.94,0,0,1,.1,1.39c0,1,.08,1.81.1,2.61a22.93,22.93,0,0,0,.21,2.37c.1.8.18,1.6.28,2.45s.2,1.73.36,2.74l-.51,2.16-5.95-.28c-.16,0-.28-.13-.39-.39s-.12-.31-.18-.46a24.21,24.21,0,0,0,.13-4.57,43.16,43.16,0,0,1-.07-4.56c.07-2.12.18-4.24.33-6.33s.25-4.2.28-6.27c0-1.47.05-2.94,0-4.36s-.05-2.86-.07-4.31c0-.1,0-.38-.05-.82a12.25,12.25,0,0,0,0-1.34c0-.47-.05-.93-.08-1.37s0-.7,0-.83c0-.31,0-.82-.05-1.54s0-1.5,0-2.27a11,11,0,0,1,.31-2.12c.18-.62.46-1,.87-1.06h.23a.31.31,0,0,0,.17-.05l.26.08a2.44,2.44,0,0,1,.41.18,3.35,3.35,0,0,1,.46.18,1.27,1.27,0,0,0,.28.08,5,5,0,0,0,1.1.1,5.93,5.93,0,0,1,1.22.13,3.56,3.56,0,0,1,1.05.46,1.28,1.28,0,0,1,.51,1,.58.58,0,0,1,.05.28c-.1,1.83-.23,3.62-.36,5.37a24.87,24.87,0,0,0,.21,5.42c0,.1,0,.33,0,.62s.07.62.1,1,.08.67.1,1,0,.52,0,.62a2.14,2.14,0,0,0,1.41.21c.53-.11,1-.18,1.45-.26a1.19,1.19,0,0,0,.85-.49,1.62,1.62,0,0,0,.23-.88,9.48,9.48,0,0,0-.08-1.11,8.79,8.79,0,0,1-.08-1.11c0-1,0-2.06.1-3.12a25.11,25.11,0,0,0,.06-3.12s0-.21,0-.54-.05-.7-.05-1.14S195,15,195,14.5s0-.8,0-1.08a1.18,1.18,0,0,1,.28-1,1.77,1.77,0,0,1,.95-.46,7.81,7.81,0,0,1,1.66-.13,13.78,13.78,0,0,1,2.37.13,8.63,8.63,0,0,1,2.2.57,1.52,1.52,0,0,1,1.07,1.13,30.82,30.82,0,0,1,.18,5.5c-.1,1.8-.21,3.63-.28,5.44,0,.08,0,.28,0,.59a3.2,3.2,0,0,0,.08.6l.66,17c0,.1-.08.31-.15.56s-.1.57-.13.88-.08.62-.08.91,0,.49,0,.59a9.14,9.14,0,0,0,0,1.83c.08.83.1,1.65.1,2.48a8.68,8.68,0,0,1-.25,2.24c-.18.67-.51,1.06-1.05,1.16-.26,0-.64.08-1.15.11s-1,.05-1.58.05a13.83,13.83,0,0,1-1.51-.1A1.1,1.1,0,0,1,197.4,53.23Z"/><path class="cls-1" d="M226.76,51.66a2.26,2.26,0,0,1-.56-.37,1,1,0,0,1-.33-.54l-1.33-12a.5.5,0,0,0-.2-.38c-.13-.11-.26-.16-.36-.11l-6.51.62,1.07,9.94a5.5,5.5,0,0,0,.51,1.67,5,5,0,0,1,.51,1.63c0,.23,0,.36-.05.41a1.38,1.38,0,0,1-.51.13,1.28,1.28,0,0,0-.31,0,1.4,1.4,0,0,1-.25,0h-.69c-.31,0-.64,0-1,0s-.64.05-.92.05a4.77,4.77,0,0,1-.54,0,4.64,4.64,0,0,1-1.63-.24,1.92,1.92,0,0,1-.94-.67,2.89,2.89,0,0,1-.49-1.11c-.1-.44-.18-.93-.25-1.49-.18-2.09-.34-4.16-.46-6.22s-.21-4.16-.29-6.27c0,0,0-.23,0-.62s-.05-.8-.08-1.32-.07-1-.1-1.44-.08-.85-.1-1.11a18.2,18.2,0,0,1,.2-4c.21-1.21.44-2.52.69-4a2.71,2.71,0,0,1,.13-2c.31-.72.56-1.36.77-1.93a4,4,0,0,0,.12-.85,3.65,3.65,0,0,1,.21-.91,1.32,1.32,0,0,1,0-.2c0-.11.07-.13.1-.13A19.11,19.11,0,0,0,214.3,16a11,11,0,0,1,1.25-2.29,10.28,10.28,0,0,1,1.23-1.4,15.93,15.93,0,0,1,1.58-1.34,10.11,10.11,0,0,1,1.76-1,7.27,7.27,0,0,1,1.82-.52,6.09,6.09,0,0,1,3.93.7,6.62,6.62,0,0,1,2.22,2.42,13.07,13.07,0,0,1,1.25,3.28c.31,1.19.64,2.3,1,3.33a4.88,4.88,0,0,0,.08.62,8.48,8.48,0,0,1,.12,1c.06.34.08.65.16.93a4.5,4.5,0,0,1,.08.6c.25,2.5.4,5,.48,7.56s.13,5,.26,7.56a13.54,13.54,0,0,1-.16,2,8.33,8.33,0,0,0-.07,2c0,.08,0,.28.05.59s.07.67.1,1.06a6.76,6.76,0,0,0,.15,1.06c0,.33.08.51.08.59V46.5c0,.07,0,.28,0,.59s0,.67.06,1.06,0,.72,0,1.05,0,.55,0,.65a6,6,0,0,1-.1,1,.87.87,0,0,1-.74.8h-.1l-.36,0-.36-.05c-.1,0-.33,0-.66,0s-.74,0-1.1,0-.69,0-1,0A6.07,6.07,0,0,1,226.76,51.66Zm-9.19-20.44a1.09,1.09,0,0,0,.79,1,6.71,6.71,0,0,0,1.69.36,17.34,17.34,0,0,0,1.91.05c.64,0,1.13-.05,1.46-.08a3.38,3.38,0,0,0,.46,0l.46,0a2.38,2.38,0,0,0,.17-.31c0-.1.08-.21.11-.31s0-.59-.05-1.11a14.56,14.56,0,0,1-.08-1.68c0-.59,0-1.16-.05-1.67s0-.88,0-1.11a1.82,1.82,0,0,0,.05-.52v-.54l-.56-5.52a3,3,0,0,0-.28-.91,4.42,4.42,0,0,0-.56-.93,2.42,2.42,0,0,0-.82-.67,1.63,1.63,0,0,0-1-.2,1.9,1.9,0,0,0-.84.28,8.3,8.3,0,0,0-2.3,4,25.66,25.66,0,0,0-.51,4.59c0,.9,0,1.81-.05,2.66A13.33,13.33,0,0,0,217.57,31.22Z"/><path class="cls-1" d="M238.4,47a1.17,1.17,0,0,0-.07-.52c-.11-.26-.21-.57-.34-.88s-.25-.62-.38-.9a2.65,2.65,0,0,1-.25-.65V40.12c0-.23,0-.72,0-1.49s0-1.6,0-2.51,0-1.73.05-2.5,0-1.26,0-1.5V28.61a10.36,10.36,0,0,0,.08-1.29c0-.59.05-1.18.08-1.8s.07-1.21.07-1.73,0-.88.08-1.08,0-.31.05-.7a2.28,2.28,0,0,1,.18-.83c.1-.64.18-1.31.23-2a8.29,8.29,0,0,1,.33-2,17,17,0,0,1,1.07-2.17,12.81,12.81,0,0,1,1.77-2.35,11.74,11.74,0,0,1,2.27-1.91,4.58,4.58,0,0,1,2.58-.8c.66,0,1.19,0,1.58,0a2.88,2.88,0,0,1,1,.24,1.87,1.87,0,0,1,.77.54,11.54,11.54,0,0,1,.84,1.06.36.36,0,0,0,.1.23l.11.1v5.21l-.44.34a8,8,0,0,0-4,1.08,4.77,4.77,0,0,0-2,3c-.05.31-.07.8-.15,1.5s-.13,1.44-.2,2.22-.16,1.52-.23,2.22a14,14,0,0,0-.11,1.44v2.22c0,1.44,0,2.79,0,4s.08,2.64.15,4.16a6.76,6.76,0,0,0,.67,2.66,5.17,5.17,0,0,0,1.35,1.62,6.89,6.89,0,0,0,1.68.91c.59.2,1.15.38,1.69.51a8.57,8.57,0,0,1,1.35.44,1.05,1.05,0,0,1,.67.72v1.52c0,.31,0,.68,0,1.11a8.32,8.32,0,0,1,0,1.32,3.16,3.16,0,0,1-.36,1.16,1.38,1.38,0,0,1-1,.67h-1.5a14.16,14.16,0,0,1-6-1.19A8,8,0,0,1,238.4,47Z"/><path class="cls-1" d="M257.68,52a3.82,3.82,0,0,1-.46-.36.58.58,0,0,1-.23-.49,26.61,26.61,0,0,1,0-5.5,48.89,48.89,0,0,0,.31-5.52c0-2.27-.08-4.54-.2-6.84s-.29-4.56-.41-6.86-.28-4.57-.36-6.84-.1-4.51,0-6.76a1.6,1.6,0,0,1,.2-.72.81.81,0,0,1,.59-.46,4.65,4.65,0,0,1,1.32,0,4.22,4.22,0,0,0,1.25.05c.16,0,.44,0,.85,0s.84-.05,1.32-.05.9-.05,1.33-.05.69,0,.84,0l.46-.06c.26,0,.54-.07.85-.1l.81-.13.49-.05c.23,0,.59,0,1.1-.05a7.52,7.52,0,0,1,1.5,0,5.24,5.24,0,0,1,1.38.23.77.77,0,0,1,.67.67l.38,4.77a.88.88,0,0,1-.38.78,2.08,2.08,0,0,1-.85.36,8,8,0,0,1-2.24-.08,8.81,8.81,0,0,0-2.3-.08,7.18,7.18,0,0,0-.74,0c-.31,0-.61.08-.92.13a3.11,3.11,0,0,0-.82.34.74.74,0,0,0-.33.67,37.16,37.16,0,0,1,0,4.72,30.3,30.3,0,0,0,.05,4.77c0,.18,0,.44.05.75a1.29,1.29,0,0,0,.33.75,2.08,2.08,0,0,0,.69.26,6.54,6.54,0,0,0,1,.07c.33,0,.66,0,.94,0a6.56,6.56,0,0,1,.67,0l.84-.05c.41,0,.84-.08,1.3-.13l1.3-.13a6.53,6.53,0,0,1,.85-.05.37.37,0,0,1,.28.21.68.68,0,0,1,.1.31l.38,3.69a1.76,1.76,0,0,1-.25,1,1.07,1.07,0,0,1-.77.57,9,9,0,0,1-2.48,0,10.55,10.55,0,0,0-2.52-.08,2.1,2.1,0,0,0-1.13.42,1.48,1.48,0,0,0-.46.77,4.61,4.61,0,0,0-.1,1V39c0,.1,0,.39-.05.82s-.08.91-.15,1.4-.1,1-.13,1.37a6.68,6.68,0,0,1-.1.79c.07.06.1.16,0,.34a.57.57,0,0,0,.05.44,3.72,3.72,0,0,0,.1.82.57.57,0,0,0,.62.49h6.53a6.34,6.34,0,0,1,1.63.19c.49.1.82.54,1,1.23a4.9,4.9,0,0,0,.08.55c.05.28.1.59.18,1s.1.72.18,1.08a6.83,6.83,0,0,0,.15.83v.34c.08.54-.05.82-.38.9s-.71.15-1.12.23a26.72,26.72,0,0,1-4.73.13c-1.58-.08-3.14-.16-4.72-.21a3.71,3.71,0,0,0-.84,0l-.79.08c-.16,0-.44,0-.82,0l-1.23.08-1.2.08C258.09,52,257.8,52,257.68,52Z"/><path class="cls-1" d="M321.24,49.72a3.42,3.42,0,0,0-1.3.59c-.38.29-.74.57-1.1.88a9.65,9.65,0,0,1-1.14.85,2.86,2.86,0,0,1-1.41.44,4.83,4.83,0,0,1-2.19-.28,13.4,13.4,0,0,1-2-1,8.65,8.65,0,0,1-2.91-2.34,13.54,13.54,0,0,1-1.94-3.18,17.94,17.94,0,0,1-1.15-3.64,29.22,29.22,0,0,1-.51-3.76,1.47,1.47,0,0,0-.05-.26,1,1,0,0,1,0-.21c0-2.19-.13-4.41-.26-6.68a37.79,37.79,0,0,1,.18-6.58A21.49,21.49,0,0,1,307,18.5a13.86,13.86,0,0,1,4.24-5.24,18.2,18.2,0,0,1,2.63-1.7,7.25,7.25,0,0,1,2.91-1,6.32,6.32,0,0,1,2.38.34,6.91,6.91,0,0,1,1.89,1.11,9.3,9.3,0,0,1,1.53,1.65c.46.62.89,1.24,1.32,1.83a20.91,20.91,0,0,0,1.38,2,4.88,4.88,0,0,1,1,2.09c0,.23,0,.62.08,1.16s.1,1.14.15,1.73.08,1.16.13,1.7.07.91.07,1.09c0,.38.08.87.1,1.47s.08,1.21.11,1.83.07,1.13.1,1.62,0,.73,0,.78c0,.54.05,1.13.05,1.86s0,1.44,0,2.22-.08,1.52-.13,2.27-.18,1.39-.28,2a4,4,0,0,1-.08.49c-.05.25-.1.51-.18.8a6.66,6.66,0,0,1-.18.8,3.93,3.93,0,0,0-.07.41.24.24,0,0,1,0,.13.34.34,0,0,0,0,.13,2.08,2.08,0,0,0,.76,1.42c.46.46,1,.93,1.53,1.42s1.08,1,1.56,1.47a2.67,2.67,0,0,1,.77,1.6,4,4,0,0,1-.49,1.26,18.14,18.14,0,0,1-1.12,2c-.43.7-.87,1.31-1.3,1.91s-.77.85-1,.85a.32.32,0,0,1-.18,0s-.07,0-.1,0l-4.95-4.08c0-.08-.11-.13-.23-.18A.15.15,0,0,0,321.24,49.72Zm-9-15.89c.07.8.15,1.7.25,2.73a17.47,17.47,0,0,0,.57,3,10.37,10.37,0,0,0,1.19,2.66A4.63,4.63,0,0,0,316.42,44a1.28,1.28,0,0,0,.46-.64,2.7,2.7,0,0,1,.23-.6v-.1a.43.43,0,0,0-.05-.18c-.49-.62-1.07-1.32-1.76-2.12a4.78,4.78,0,0,1-1.2-2.52,2.29,2.29,0,0,1,.23-1,3.21,3.21,0,0,1,.58-.85,3.62,3.62,0,0,1,.87-.62,2.56,2.56,0,0,1,1-.31,1.37,1.37,0,0,1,.92.21,9.29,9.29,0,0,1,.79.56c.23.21.46.39.64.57a.67.67,0,0,0,.56.21c.31-.11.51-.49.64-1.11a16.92,16.92,0,0,0,.26-2.07c0-.74,0-1.49,0-2.19s-.08-1.21-.11-1.5,0-.59-.07-1.18-.13-1.29-.23-2.07S320,24.9,319.84,24a16.8,16.8,0,0,0-.56-2.32,7.15,7.15,0,0,0-.82-1.73,1.22,1.22,0,0,0-1.1-.62,2.56,2.56,0,0,0-1.83,1,8.22,8.22,0,0,0-1.38,2.27,16,16,0,0,0-.95,3c-.25,1.11-.43,2.19-.58,3.28s-.23,2-.29,2.91A8.5,8.5,0,0,0,312.26,33.83Z"/><path class="cls-1" d="M352.8,52.56a1.15,1.15,0,0,1-.77-.62,4.08,4.08,0,0,1-.38-1.08c-.1-.39-.18-.73-.23-1s-.15-.41-.31-.41a2.1,2.1,0,0,0-.87.51c-.35.31-.76.65-1.19,1a12.68,12.68,0,0,1-1.51,1.08,3.85,3.85,0,0,1-1.74.57,7.21,7.21,0,0,1-2.22-.11,5.55,5.55,0,0,1-2-.8,9.58,9.58,0,0,1-3.17-2.94A14.66,14.66,0,0,1,336.64,45a21.4,21.4,0,0,1-.9-4.31c-.17-1.49-.33-2.94-.48-4.33a49.68,49.68,0,0,1-.15-7.9c.18-2.6.33-5.26.53-7.94v-.55c0-.28,0-.59.05-.9s.05-.62.05-.9V17.6c0-.6.06-1.14.06-1.6a2.64,2.64,0,0,1,.22-1.16,2.16,2.16,0,0,1,.77-.83,4.56,4.56,0,0,1,1.66-.52,3.46,3.46,0,0,1,.82,0,10.51,10.51,0,0,1,1.12.26,7.06,7.06,0,0,1,1.12.39,1.93,1.93,0,0,1,.72.46,2.91,2.91,0,0,0,0,.39c0,.18.05.33.05.38a17.32,17.32,0,0,1,.05,2.61,23.88,23.88,0,0,1-.23,2.76c-.1.93-.23,1.83-.3,2.76s-.16,1.78-.21,2.61a33.27,33.27,0,0,0,.05,5c.16,1.63.31,3.31.51,5a33.31,33.31,0,0,0,.49,3.43,5,5,0,0,0,1.71,2.92c.08.07.28.25.61.51a6.18,6.18,0,0,1,.61.52l.21,0a.8.8,0,0,0,.2.05h.16a3.4,3.4,0,0,1,.45-.23.83.83,0,0,0,.47-.47,21.66,21.66,0,0,0,1.6-4.59,27.3,27.3,0,0,0,.62-4.51c.1-1.5.12-3,.07-4.57s0-3.15,0-4.83V24.1a5.16,5.16,0,0,1,0-.67c0-.26,0-.49.05-.7a3.4,3.4,0,0,0,0-.51s0-.19.05-.44.07-.57.1-.88.07-.59.1-.85.05-.41.05-.49a19.37,19.37,0,0,0-.08-2.61,6.11,6.11,0,0,1,0-1.93,1.89,1.89,0,0,1,.89-1.27,5.78,5.78,0,0,1,2.58-.64c.23,0,.54-.08.89-.11a4.52,4.52,0,0,1,1.13-.1,3.52,3.52,0,0,1,1,.23,1.25,1.25,0,0,1,.69.73,6.53,6.53,0,0,0,.1,1,8.93,8.93,0,0,0,.18.93,31.84,31.84,0,0,1,.08,5.34c-.13,1.73-.23,3.51-.31,5.34a9.67,9.67,0,0,0,.05,1.76,6.57,6.57,0,0,1-.05,1.88c.26,1.73.43,3.48.54,5.19s.15,3.45.2,5.18.08,3.49.1,5.22.1,3.48.23,5.21a7.89,7.89,0,0,1-.28.9.79.79,0,0,1-.66.52,12.66,12.66,0,0,1-2.1.05A9.85,9.85,0,0,0,352.8,52.56Z"/><path class="cls-1" d="M366.23,52a2.56,2.56,0,0,1-.44-.36.61.61,0,0,1-.23-.49,26,26,0,0,1,0-5.5,51.32,51.32,0,0,0,.3-5.52c0-2.27-.07-4.54-.2-6.84s-.28-4.56-.41-6.86-.28-4.57-.36-6.84-.1-4.51,0-6.76a1.91,1.91,0,0,1,.2-.74.82.82,0,0,1,.59-.47,5.13,5.13,0,0,1,1.33.05,3.91,3.91,0,0,0,1.25.05c.15,0,.43,0,.84,0s.84,0,1.33,0,.89,0,1.33-.05.69,0,.84,0,.18,0,.46-.05l.84-.11c.31-.05.56-.07.82-.1l.48-.05c.23,0,.59,0,1.1-.05a7.62,7.62,0,0,1,1.51,0,5.24,5.24,0,0,1,1.38.23.77.77,0,0,1,.66.67l.38,4.77a.84.84,0,0,1-.38.78A2,2,0,0,1,379,18a8.09,8.09,0,0,1-2.25-.08,8.41,8.41,0,0,0-2.3-.07c-.18,0-.43,0-.74,0a6,6,0,0,0-.92.13,3.52,3.52,0,0,0-.81.34.74.74,0,0,0-.33.67,37.16,37.16,0,0,1,0,4.72,28.07,28.07,0,0,0,.05,4.77c0,.18,0,.44,0,.75a1.23,1.23,0,0,0,.33.75,1.91,1.91,0,0,0,.69.26,6.41,6.41,0,0,0,1,.07c.33,0,.67,0,1,0a6.1,6.1,0,0,1,.66,0l.84-.05c.41,0,.85-.08,1.31-.13s.89-.1,1.3-.13a6.48,6.48,0,0,1,.84-.05.35.35,0,0,1,.28.21.58.58,0,0,1,.1.31l.39,3.69a1.86,1.86,0,0,1-.26,1,1.13,1.13,0,0,1-.77.57,8.89,8.89,0,0,1-2.47,0,10.64,10.64,0,0,0-2.53-.08,2,2,0,0,0-1.12.44,1.55,1.55,0,0,0-.46.78,4,4,0,0,0-.1,1v1.18c0,.11,0,.39-.05.83s-.08.9-.16,1.39-.1,1-.13,1.37a4.13,4.13,0,0,1-.1.8c.08,0,.1.16.05.34a.64.64,0,0,0,0,.43,3.33,3.33,0,0,0,.11.83.56.56,0,0,0,.61.49h6.53a6.34,6.34,0,0,1,1.64.18c.48.1.82.54,1,1.24a4.54,4.54,0,0,0,.08.54c.05.29.1.6.17,1s.11.72.18,1.08.11.65.16.83v.33c.07.54,0,.83-.39.9l-1.12.24a26.6,26.6,0,0,1-4.72.13c-1.59-.11-3.14-.16-4.72-.21a3.05,3.05,0,0,0-.85,0c-.46.06-.71.08-.79.08s-.41,0-.82,0l-1.22.08a10.62,10.62,0,0,1-1.2.07A6.65,6.65,0,0,0,366.23,52ZM366,8.57c0-.11.15-.34.48-.67s.66-.7,1.07-1.11.8-.78,1.18-1.14.69-.62.87-.77a5.77,5.77,0,0,0,.48-.39,2.68,2.68,0,0,0,.41-.46c.1-.11.28-.29.51-.55s.46-.49.74-.77l.77-.77c.25-.24.4-.42.48-.5a2.8,2.8,0,0,1,.87-.92A2,2,0,0,1,374.93,0a1.12,1.12,0,0,1,.56.23c.23.16.46.34.72.54s.46.42.64.6a2.76,2.76,0,0,1,.33.38V2.89a.72.72,0,0,1-.28.52c-.1.1-.33.28-.61.54s-.52.41-.62.49c-1.25.88-2.47,1.75-3.72,2.68S369.42,9,368.14,9.8a.55.55,0,0,1-.28.08,1,1,0,0,1-.33,0,1.67,1.67,0,0,1-1.1-.44A1.18,1.18,0,0,1,366,8.57Z"/><path class="cls-1" d="M397.4,40.35a27.83,27.83,0,0,1-.18-3.12,30.8,30.8,0,0,1,.23-3.64,33.18,33.18,0,0,1,.66-3.63,12.45,12.45,0,0,1,1.23-3.07,16.16,16.16,0,0,1,2.19-2.76c.87-.88,1.71-1.73,2.53-2.53a4,4,0,0,0,.66-2.74,2.71,2.71,0,0,0-.84-1.86,2.85,2.85,0,0,0-2.19-.54A6,6,0,0,0,398,18.14a3.83,3.83,0,0,0-1.1,3.38c.08.67.18,1.37.33,2.09a18,18,0,0,1,.33,2.22,1.89,1.89,0,0,1-.25,1A8,8,0,0,1,396.5,28a7.2,7.2,0,0,1-1,1,1.63,1.63,0,0,1-.92.44h-.28a4.6,4.6,0,0,1-.91,0l-.92,0a6.59,6.59,0,0,1-2.15-3.2,26.68,26.68,0,0,1-.84-3.72,7,7,0,0,1,0-1.83,12.55,12.55,0,0,1,.38-1.86,11.7,11.7,0,0,1,3.93-6.68c1.94-1.58,4.75-2.5,8.43-2.81a9.57,9.57,0,0,1,3.85.41A8,8,0,0,1,409,11.46,8.64,8.64,0,0,1,411,14a8.31,8.31,0,0,1,.92,3.07A11.88,11.88,0,0,1,412,19.4a9.16,9.16,0,0,1-.45,2.33,7.74,7.74,0,0,1-1.13,2.14,6.89,6.89,0,0,1-2,1.73c-.54.33-1.12.72-1.79,1.11A4.89,4.89,0,0,0,405,28.1,8.38,8.38,0,0,0,404,30.76a18.11,18.11,0,0,0-.41,3.14c-.05,1.09-.08,2.15,0,3.18s.08,2,.11,2.81.07,1.32.1,1.81a1.91,1.91,0,0,1-.23,1.18,2,2,0,0,1-1.05.75,7,7,0,0,1-2.22.39,2.06,2.06,0,0,1-1.5-.26,2.42,2.42,0,0,1-.85-.93,4.06,4.06,0,0,1-.38-1.24C397.5,41.21,397.42,40.77,397.4,40.35ZM397.22,51a5,5,0,0,1,0-1.55,4.33,4.33,0,0,1,.48-1.5,3.33,3.33,0,0,1,1.08-1.13,4,4,0,0,1,1.83-.57,3.24,3.24,0,0,1,1.48.23,5.81,5.81,0,0,1,1.38.72,4.46,4.46,0,0,1,1,1.06,3.39,3.39,0,0,1,.52,1.16,4,4,0,0,1-.18,1.4,3.36,3.36,0,0,1-.74,1.26,4.66,4.66,0,0,1-1.2,1,4,4,0,0,1-1.56.46,4.63,4.63,0,0,1-2.71-.57A2.63,2.63,0,0,1,397.22,51Z"/></g></g></svg>