<svg xmlns="http://www.w3.org/2000/svg" viewBox="0 0 187.59 227"><defs><style>.cls-1{fill:#f3a5c2;}.cls-2{fill:#f0efe5;}.cls-3,.cls-4{fill:none;stroke-linecap:round;}.cls-3{stroke:#dad8cc;stroke-width:0.25px;}.cls-4{stroke:#000;stroke-miterlimit:10;stroke-width:0.6px;}.cls-5{fill:#fff;}</style></defs><title>tero</title><g id="Layer_2" data-name="Layer 2"><g id="Layer_1-2" data-name="Layer 1"><path class="cls-1" d="M115.35,143.16a92.38,92.38,0,0,1,3.62,14.6c1,7.5,3.66,16.66,3.14,24.17-.7,9.07-2.93,10.34-6.41,18.54-.88,1.92-3.49,6.2-4.52,7.95-1.4,2.44-1.44,4.4-4.22,4.58-3,0-15.9,0-18.3,1.1a1.85,1.85,0,0,0-.87.88c3.85,1,12.78-.16,16.77,0-2.92,1.95-10.33,4-12.76,8.19,2.43.35,6.2-2,8.47-3,2.61-1.05,5.13-3.12,7.74-4-1.57,3.31-6.44,6.8-6.27,10.81,6.94-4.94,13.06-19.36,15.17-23,2.1-3.49,4.69-10.62,6.26-14.11,1.74-3.83,5.4-3.2,3.14-7.74-1.75-3.31-2-9.25-2.3-13.14-.56-7.42-1.36-13.31-1.89-20.63-.12-1.95-.24-3.89-.47-5.82-.1-.86-5.29,1.26-5.44.42"/><path class="cls-1" d="M98.31,139.73c-1,13.09-7.65,33.84-8.49,36.76-2,6.94-4.31,14-8.32,20.09-2.08,3.13-3.87,6.29-5,6.8a44.61,44.61,0,0,1-11.69,2.54c-1.75.17-9.11.89-9.46,3.15,2.09.88,6-.75,8.3-.93,3.13-.35,5.71-1,8.93-1.38-2.52,2.19-11.83,4.8-12.69,9.34,4.34-1.07,11.32-5.94,15-8.55-.87,3.49-7.54,8.27-6.44,11.77,1.54-1.73,4.27-3.78,6.58-6.73a29.69,29.69,0,0,0,4.56-8.69c2.8-3.13,6.12-9,8.21-12.88,1.75-3.31,1.59-6.27,3.87-9.23,1-1.41,2.4-1.28,3.11-2.83.63-1.35-.07-2.31-.42-4.22-.52-3.14,2-9,3-12,2.61-7.15,3.85-12.15,6-19.47.52-1.93,1.54-2.86,1.89-4.79-1.93-.52-4.35,1.93-6.1,2.79"/><path class="cls-2" d="M89.4,87.71c1.87-8.32,24.14-73.39,17-79.37a16.63,16.63,0,0,0-7-3.52c-13.63-2.94-35.27,4-39.8,17.65a2.33,2.33,0,0,0-.05,1c.07.93.36,2.12.42,2.73.22,3.16.35,6.33.47,9.48.19,5,2.89,9.54,3.18,14.67a59.18,59.18,0,0,1-.29,9.34"/><path class="cls-2" d="M63.24,59.67c-.42,3.84-1.12,7.63-1.84,11.45-1.07,5.67-2.17,12.35-2.1,18.06.14,10,3.87,20.77,7.53,30,3.54,9,8.91,18.26,18.35,22,12.29,4.82,29.64,9.36,42.74,7.48,9.65-1.52,19.29-3.52,28.71-5.32.49-.09,1-.2,1.47-.28,4.82-.81,15-3.47,19.51-4.82,2.45-.72,9.29-.6,10-3.54-2.51-.25-5.06-.69-7.6-1.09-7.79-1.21-12.43-5.68-19-9.71-2.63-1.61-5.2-2.49-7.65-4.48-10.88-8.8-21.59-19.09-35.81-21.84-7-1.33-11.75-2.66-17.63-6.68"/><path class="cls-3" d="M60.35,35.66c.2,5,2.89,9.54,3.19,14.67a58,58,0,0,1-.3,9.34"/><path class="cls-3" d="M106.61,8.55a16.65,16.65,0,0,0-7.28-3.73c-13.62-2.94-35.26,4-39.8,17.65a2.11,2.11,0,0,0-.07.79"/><path class="cls-3" d="M117.06,97.51c-5.15-1-8.51-1.81-12.62-3.89"/><path class="cls-3" d="M63.24,59.67c-.42,3.84-1.12,7.63-1.84,11.45-1.07,5.67-2.17,12.35-2.1,18.06.14,10,3.87,20.77,7.53,30,3.54,9,8.91,18.26,18.35,22,12.29,4.82,29.64,9.36,42.74,7.48,9.71-1.54,19.41-3.55,28.89-5.36"/><path d="M105.77,9.78C108.06,6.15,114.49,1,118.48,0,117,1.14,112,6.2,110.65,9.41a18.14,18.14,0,0,1,9.79-2.82c-7.21,2.4-9.07,6.29-12.53,13-.55-1.87-4.5-1.66-4.78-3C102.86,15,104.63,11.57,105.77,9.78Z"/><path d="M104.44,93.62a39.58,39.58,0,0,1-4.59-2.7c-8.28-5.61-2.94-11.23-.52-19a149.07,149.07,0,0,1,8.28-20.59c2.94-5.61,5.86-10.69,7.21-17.11,1.4-6.22,0-14.26-3.83-20.41-1.54,3-11.51,1.21-17.69,2.56-2.06.45-1,4.41-2.66,4.8-3.83.89-9,4.34-6.55,4.75,10.09,1.57,14,6.36,14.4,11.11C99.83,55.38,56.76,78.9,67.81,99.51,74.78,111.93,92.92,102,104.44,93.62Z"/><path d="M82.85,31.26C89,32.46,93.48,28.06,94,21.73c.56-7.17-4.15-10-9.12-9.6C74.48,13,69.18,28.58,82.85,31.26Z"/><path class="cls-4" d="M70.74,40.38c-2.68,4.82,4.53,8.29,6.4,1.33"/><path d="M187.57,134.7c-2.5-.25-5.06-.69-7.6-1.09-7.79-1.21-12.43-5.68-19-9.71-2.63-1.61-5.2-2.49-7.65-4.48-10.88-8.8-21.57-19.09-35.81-21.84-.14,0-.28,0-.42-.09a26.38,26.38,0,0,0-2.26,2.23c-4,4-9.87,9.62-9.61,16,.26,6.7,6.15,9.89,11.49,13.11,11.36,7.08,27,12.23,40.41,14.35.31-.05.66-.12,1-.19,4.81-.81,14.95-3.47,19.5-4.82C180,137.52,186.87,137.64,187.57,134.7Z"/><path d="M44.09,39.61c3.29-.77,6.6-1.53,9.91-2.21l4.65-.93a2.91,2.91,0,0,0,2.67-2.14,12.36,12.36,0,0,0,.91-3.61,9.37,9.37,0,0,0-1.11-5.13c-.26-.51-.86-1.9-1.42-2.11s-1.36.49-1.92.77c-2.42,1.21-4.85,2.37-7.3,3.51-5.36,2.45-10.79,4.77-16.23,7C22.8,39.59,11.17,44.09,0,49.54,13.11,46.21,27.12,43.58,44.09,39.61Z"/><path class="cls-5" d="M83.25,13.81c-6.48,1.59-12,14.16.44,16,4.71.72,9-3.54,8.91-9.25S87.91,12.67,83.25,13.81Z"/><path d="M81.59,22.61c2.45.47,3.21-3.33.75-3.81C80.49,18.44,79.14,22.12,81.59,22.61Z"/></g></g></svg>