<?xml version="1.0" encoding="utf-8"?>
<!-- Generator: Adobe Illustrator 15.1.0, SVG Export Plug-In . SVG Version: 6.00 Build 0)  -->
<!DOCTYPE svg PUBLIC "-//W3C//DTD SVG 1.1//EN" "http://www.w3.org/Graphics/SVG/1.1/DTD/svg11.dtd">
<svg version="1.1" id="Capa_1" xmlns="http://www.w3.org/2000/svg" xmlns:xlink="http://www.w3.org/1999/xlink" x="0px" y="0px"
	 width="841.89px" height="595.28px" viewBox="0 0 841.89 595.28" enable-background="new 0 0 841.89 595.28" xml:space="preserve">
<g>
	<path fill="#33AD69" d="M287.11,484.621c0,0,280.308-24.979,413.5-28.732c115.619-3.158,135.958,131.219,135.958,131.219h-82.642
		l-480.936-39.791L287.11,484.621z"/>
	<path fill="#1E8C51" d="M724.406,536.26c0,0-109.496-38.902-242.591-43.641c-133.094-4.741-191.842,7.108-191.842,7.108v88.367
		H820.18C816.329,546.33,801.419,564.793,724.406,536.26z"/>
	<g>
		<path fill="#FFDE11" d="M462.364,440.684c0.098,0.099,0.692,2.665-0.396,4.937c-0.69,1.581-2.073,2.766-3.652,3.357
			c-0.494-1.579-0.396-3.357,0.396-4.937C459.798,441.771,462.266,440.586,462.364,440.684z"/>
		<path fill="#FFDE11" d="M452.193,441.475c-0.099,0.098-0.393,2.765,1.089,4.837c0.986,1.383,2.468,2.468,4.145,2.765
			c0.2-1.678-0.098-3.356-1.085-4.837C455.354,442.855,453.873,441.771,452.193,441.475z"/>
		<path fill="#FFDE11" d="M456.737,434.169c0.099,0,1.975,1.874,2.171,4.54c0.099,1.679-0.396,3.356-1.481,4.74
			c-1.281-1.186-1.974-2.766-2.171-4.542C455.058,436.438,456.538,434.267,456.737,434.169z"/>
		<path fill="#FFDE11" d="M462.857,446.509c0.098,0.1,0.692,2.666-0.396,4.937c-0.69,1.581-2.073,2.767-3.652,3.357
			c-0.493-1.579-0.395-3.357,0.396-4.937C460.291,447.597,462.661,446.411,462.857,446.509z"/>
		<path fill="#FFDE11" d="M452.688,447.299c-0.099,0.1-0.393,2.766,1.088,4.839c0.987,1.382,2.469,2.468,4.146,2.764
			c0.199-1.678-0.099-3.356-1.085-4.837C455.354,447.99,452.788,447.201,452.688,447.299z"/>
		<path fill="#FFDE11" d="M463.253,452.433c0.099,0.101,0.689,2.667-0.396,4.938c-0.69,1.58-2.073,2.765-3.652,3.356
			c-0.493-1.578-0.396-3.356,0.396-4.937C460.687,453.421,463.154,452.335,463.253,452.433z"/>
		<path fill="#FFDE11" d="M453.082,453.124c-0.098,0.1-0.395,2.765,1.089,4.839c0.987,1.383,2.468,2.369,4.146,2.764
			c0.196-1.679-0.099-3.356-1.085-4.838C455.849,453.816,453.282,453.124,453.082,453.124z"/>
		<path fill="#FFDE11" d="M459.304,429.231h-0.396l0.592,8.292h0.396L459.304,429.231z"/>
		<path fill="#FFDE11" d="M460.784,430.909h-0.396l0.693,8.293l0.393-0.098L460.784,430.909z"/>
		<path fill="#FFDE11" d="M462.167,432.688h-0.396l0.593,7.404l0.396-0.098L462.167,432.688z"/>
		<path fill="#FFDE11" d="M454.367,437.919l-0.592-8.293h0.396l0.592,8.293H454.367z"/>
		<path fill="#FFDE11" d="M453.082,431.502h-0.395l0.692,8.294h0.396L453.082,431.502z"/>
		<path fill="#FFDE11" d="M452.095,440.882l-0.591-7.405l0.396-0.1l0.591,7.405h-0.396V440.882z"/>
		<path fill="#FFDE11" d="M457.921,427.453l-0.396,0.101l0.494,7.008h0.396L457.921,427.453z"/>
		<path fill="#FFDE11" d="M455.354,427.554h-0.396l0.494,7.008l0.396-0.098L455.354,427.554z"/>
		<path fill="#FFDE11" d="M456.439,425.677h-0.396l0.494,7.011h0.396L456.439,425.677z"/>
		<path fill="#F3920D" d="M459.107,461.715h-0.595l1.582,20.536l0.592-0.098L459.107,461.715z"/>
		<path fill="#F3920D" d="M459.699,472.378c-0.199-0.69,1.775-8.096,3.851-9.479C462.857,467.835,461.278,470.699,459.699,472.378z"
			/>
		<path fill="#F3920D" d="M459.896,475.241c0.098-0.69-3.06-7.701-5.231-8.787C456.044,471.192,458.02,473.761,459.896,475.241z"/>
		<path fill="#F3920D" d="M460.291,460.332c0,0.1,0.098,0.1,0.098,0.297c0.099,0.789-0.591,1.579-1.382,1.579
			c-0.789,0.1-1.58-0.493-1.58-1.283l0,0c0-0.098,0-0.098,0-0.296L460.291,460.332z"/>
		<path fill="#FFDE11" d="M445.776,441.968c0.101,0.098,0.692,2.664-0.393,4.937c-0.693,1.58-2.076,2.765-3.655,3.357
			c-0.494-1.58-0.396-3.357,0.396-4.938C443.308,443.054,445.678,441.869,445.776,441.968z"/>
		<path fill="#FFDE11" d="M435.608,442.658c-0.101,0.1-0.396,2.766,1.086,4.838c0.987,1.384,2.468,2.468,4.146,2.765
			c0.199-1.678-0.099-3.356-1.086-4.837C438.371,443.449,435.805,442.658,435.608,442.658z"/>
		<path fill="#FFDE11" d="M440.149,435.55c0.099,0,1.975,1.876,2.172,4.542c0.098,1.679-0.396,3.357-1.481,4.738
			c-1.282-1.185-1.975-2.765-2.172-4.541C438.57,437.722,440.052,435.55,440.149,435.55z"/>
		<path fill="#FFDE11" d="M446.27,447.792c0.102,0.1,0.692,2.667-0.393,4.938c-0.693,1.579-2.075,2.765-3.654,3.355
			c-0.494-1.579-0.396-3.355,0.395-4.937C443.703,448.88,445.975,447.694,446.27,447.792z"/>
		<path fill="#FFDE11" d="M436.103,448.583c-0.102,0.099-0.396,2.765,1.085,4.838c0.987,1.382,2.469,2.468,4.146,2.765
			c0.199-1.679-0.099-3.357-1.085-4.838C438.767,449.273,436.299,448.484,436.103,448.583z"/>
		<path fill="#FFDE11" d="M446.665,453.717c0.099,0.1,0.692,2.667-0.396,4.937c-0.69,1.58-2.072,2.765-3.652,3.357
			c-0.493-1.579-0.395-3.357,0.396-4.938C443.703,455.495,445.086,454.31,446.665,453.717z"/>
		<path fill="#FFDE11" d="M436.495,454.407c-0.099,0.1-0.393,2.766,1.088,4.839c0.987,1.383,2.469,2.369,4.146,2.765
			c0.196-1.679-0.099-3.357-1.085-4.838C439.261,455.198,436.694,454.31,436.495,454.407z"/>
		<path fill="#FFDE11" d="M442.814,430.415h-0.396l0.692,8.294h0.396L442.814,430.415z"/>
		<path fill="#FFDE11" d="M444.197,432.193h-0.396l0.692,8.294h0.396L444.197,432.193z"/>
		<path fill="#FFDE11" d="M445.579,433.871h-0.396l0.593,7.406h0.396L445.579,433.871z"/>
		<path fill="#FFDE11" d="M437.583,430.811h-0.396l0.69,8.294h0.396L437.583,430.811z"/>
		<path fill="#FFDE11" d="M436.495,432.785h-0.393l0.689,8.392h0.396L436.495,432.785z"/>
		<path fill="#FFDE11" d="M435.409,434.76h-0.396l0.595,7.405h0.393L435.409,434.76z"/>
		<path fill="#FFDE11" d="M441.333,428.638h-0.396l0.494,7.011h0.396L441.333,428.638z"/>
		<path fill="#FFDE11" d="M438.668,428.935h-0.395l0.493,7.011h0.396L438.668,428.935z"/>
		<path fill="#FFDE11" d="M440.052,433.971l-0.494-7.011h0.393l0.494,7.011H440.052z"/>
		<path fill="#F3920D" d="M442.52,462.999l-0.595,0.098l1.582,20.537l0.592-0.099L442.52,462.999z"/>
		<path fill="#F3920D" d="M443.111,473.661c-0.199-0.69,1.778-8.096,3.851-9.479C446.27,469.119,444.69,471.982,443.111,473.661z"/>
		<path fill="#F3920D" d="M443.308,476.426c0.099-0.691-3.06-7.701-5.23-8.786C439.457,472.378,441.432,475.044,443.308,476.426z"/>
		<path fill="#F3920D" d="M443.703,461.615c0,0.1,0,0.1,0,0.297c0.099,0.789-0.493,1.58-1.284,1.58l0,0
			c-0.789,0.098-1.579-0.493-1.579-1.284c0,0,0,0,0-0.098c0-0.1,0-0.1,0-0.297L443.703,461.615z"/>
		<path fill="#FFDE11" d="M429.188,443.251c0.101,0.098,0.692,2.667-0.393,4.937c-0.693,1.58-2.076,2.765-3.655,3.357
			c-0.493-1.581-0.396-3.357,0.396-4.937C426.72,444.337,429.09,443.152,429.188,443.251z"/>
		<path fill="#FFDE11" d="M419.118,444.041c-0.098,0.098-0.395,2.765,1.086,4.839c0.988,1.381,2.469,2.468,4.148,2.763
			c0.196-1.679-0.101-3.356-1.087-4.837C421.685,444.732,419.217,443.844,419.118,444.041z"/>
		<path fill="#FFDE11" d="M423.563,436.734c0.098,0,1.974,1.876,2.171,4.543c0.101,1.679-0.394,3.354-1.481,4.838
			c-1.282-1.186-1.975-2.767-2.171-4.543C422.081,439.696,422.574,438.018,423.563,436.734z"/>
		<path fill="#FFDE11" d="M429.683,449.076c0.101,0.099,0.692,2.667-0.394,4.938c-0.692,1.579-2.075,2.765-3.654,3.356
			c-0.494-1.58-0.396-3.356,0.396-4.938C427.115,450.162,429.485,448.978,429.683,449.076z"/>
		<path fill="#FFDE11" d="M419.415,449.866c-0.099,0.098-0.395,2.765,1.086,4.839c0.988,1.381,2.469,2.468,4.146,2.764
			c0.199-1.679-0.099-3.357-1.085-4.838C422.18,450.558,419.711,449.669,419.415,449.866z"/>
		<path fill="#FFDE11" d="M430.078,454.901c0.098,0.1,0.691,2.666-0.396,4.938c-0.69,1.579-2.073,2.765-3.652,3.356
			c-0.494-1.58-0.396-3.356,0.396-4.938C427.609,456.086,429.979,454.901,430.078,454.901z"/>
		<path fill="#FFDE11" d="M420.008,455.691c-0.099,0.099-0.396,2.765,1.085,4.838c0.988,1.383,2.469,2.47,4.146,2.765
			c0.199-1.679-0.099-3.357-1.086-4.838C422.673,456.383,420.106,455.593,420.008,455.691z"/>
		<path fill="#FFDE11" d="M426.129,431.7h-0.396l0.692,8.294l0.396-0.101L426.129,431.7z"/>
		<path fill="#FFDE11" d="M427.609,433.377h-0.396l0.693,8.293h0.395L427.609,433.377z"/>
		<path fill="#FFDE11" d="M428.992,435.155h-0.396l0.592,7.405h0.396L428.992,435.155z"/>
		<path fill="#FFDE11" d="M420.995,432.094h-0.396l0.692,8.294h0.493L420.995,432.094z"/>
		<path fill="#FFDE11" d="M419.909,433.971h-0.395l0.69,8.293l0.395-0.099L419.909,433.971z"/>
		<path fill="#FFDE11" d="M418.921,443.449l-0.593-7.406h0.395l0.592,7.406H418.921z"/>
		<path fill="#FFDE11" d="M424.745,429.921h-0.393l0.494,7.011h0.393L424.745,429.921z"/>
		<path fill="#FFDE11" d="M422.18,430.119h-0.495l0.495,7.011l0.395-0.1L422.18,430.119z"/>
		<path fill="#FFDE11" d="M423.464,435.254l-0.494-7.011h0.396l0.494,7.011H423.464z"/>
		<path fill="#F3920D" d="M425.932,464.182l-0.592,0.101l1.579,20.536l0.593-0.099L425.932,464.182z"/>
		<path fill="#F3920D" d="M426.523,474.944c-0.196-0.689,1.778-8.096,3.949-9.478C429.683,470.304,428.103,473.267,426.523,474.944z
			"/>
		<path fill="#F3920D" d="M426.72,477.71c0.102-0.692-3.06-7.701-5.231-8.787C422.87,473.661,424.944,476.327,426.72,477.71z"/>
		<path fill="#F3920D" d="M427.018,462.801c0,0.098,0,0.098,0,0.296c0.098,0.79-0.592,1.58-1.383,1.58
			c-0.788,0.099-1.579-0.593-1.579-1.383l0,0c0-0.099,0-0.099,0-0.295L427.018,462.801z"/>
		<path fill="#FFDE11" d="M412.602,444.437c0.099,0.098,0.691,2.666-0.395,4.937c-0.691,1.579-2.074,2.765-3.654,3.357
			c-0.493-1.581-0.394-3.357,0.395-4.938C410.134,445.522,412.503,444.437,412.602,444.437z"/>
		<path fill="#FFDE11" d="M402.532,445.324c-0.099,0.1-0.396,2.766,1.086,4.838c0.987,1.383,2.468,2.469,4.147,2.764
			c0.197-1.676-0.099-3.354-1.086-4.836C405.197,445.918,402.63,445.127,402.532,445.324z"/>
		<path fill="#FFDE11" d="M406.974,438.018c0.099,0,1.975,1.876,2.172,4.543c0.099,1.679-0.395,3.357-1.481,4.738
			c-1.284-1.184-1.974-2.765-2.172-4.541C405.395,440.289,406.875,438.018,406.974,438.018z"/>
		<path fill="#FFDE11" d="M412.997,450.359c0.099,0.1,0.691,2.667-0.395,4.938c-0.691,1.58-2.073,2.765-3.653,3.356
			c-0.494-1.58-0.395-3.356,0.395-4.937C410.529,451.445,412.898,450.262,412.997,450.359z"/>
		<path fill="#FFDE11" d="M402.926,451.149c-0.099,0.101-0.394,2.765,1.087,4.839c0.987,1.382,2.468,2.37,4.147,2.764
			c0.196-1.679-0.099-3.357-1.087-4.838C405.592,451.743,403.124,451.052,402.926,451.149z"/>
		<path fill="#FFDE11" d="M413.49,456.186c0.1,0.099,0.692,2.666-0.395,4.937c-0.691,1.579-2.074,2.765-3.653,3.357
			c-0.395-1.581-0.395-3.357,0.394-4.938C411.022,457.271,413.293,456.086,413.49,456.186z"/>
		<path fill="#FFDE11" d="M403.42,456.975c-0.099,0.099-0.395,2.765,1.086,4.839c0.988,1.382,2.468,2.368,4.147,2.764
			c0.197-1.679-0.099-3.357-1.086-4.838C406.086,457.667,403.519,456.877,403.42,456.975z"/>
		<path fill="#FFDE11" d="M409.541,432.983h-0.395l0.69,8.294h0.396L409.541,432.983z"/>
		<path fill="#FFDE11" d="M411.022,434.662h-0.395l0.691,8.294h0.395L411.022,434.662z"/>
		<path fill="#FFDE11" d="M412.404,436.438l-0.395,0.098l0.592,7.406h0.395L412.404,436.438z"/>
		<path fill="#FFDE11" d="M404.605,441.771l-0.592-8.294h0.394l0.692,8.294H404.605z"/>
		<path fill="#FFDE11" d="M403.321,435.254h-0.395l0.692,8.293h0.395L403.321,435.254z"/>
		<path fill="#FFDE11" d="M402.235,437.229h-0.395l0.593,7.403h0.395L402.235,437.229z"/>
		<path fill="#FFDE11" d="M408.16,438.215l-0.494-7.009h0.395l0.493,7.009H408.16z"/>
		<path fill="#FFDE11" d="M405.592,431.402h-0.395l0.495,7.011l0.395-0.099L405.592,431.402z"/>
		<path fill="#FFDE11" d="M406.678,429.428h-0.396l0.494,7.011h0.396L406.678,429.428z"/>
		<path fill="#F3920D" d="M409.443,465.467l-0.593,0.099l1.58,20.536l0.592-0.098L409.443,465.467z"/>
		<path fill="#F3920D" d="M409.936,476.229c-0.197-0.691,1.778-8.097,3.851-9.479C413.096,471.588,411.516,474.45,409.936,476.229z"
			/>
		<path fill="#F3920D" d="M410.134,478.993c0.099-0.692-3.061-7.7-5.233-8.787C406.283,474.944,408.356,477.61,410.134,478.993z"/>
		<path fill="#F3920D" d="M410.43,464.182c0,0.101,0.099,0.101,0.099,0.298c0.099,0.789-0.593,1.579-1.382,1.579
			c-0.791,0.098-1.58-0.592-1.58-1.382c0-0.1,0-0.1,0-0.297L410.43,464.182z"/>
		<path fill="#FFDE11" d="M396.014,445.72c0.099,0.098,0.691,2.666-0.395,4.937c-0.691,1.58-2.074,2.765-3.653,3.357
			c-0.494-1.581-0.395-3.357,0.395-4.938C393.546,446.806,395.817,445.62,396.014,445.72z"/>
		<path fill="#FFDE11" d="M385.944,446.509c-0.099,0.1-0.395,2.765,1.086,4.839c0.988,1.383,2.468,2.469,4.147,2.764
			c0.197-1.679-0.099-3.356-1.086-4.838C388.511,447.201,386.042,446.411,385.944,446.509z"/>
		<path fill="#FFDE11" d="M390.387,439.303c0.198,0,1.975,1.874,2.172,4.541c0.099,1.679-0.395,3.357-1.481,4.838
			c-1.283-1.186-1.974-2.764-2.172-4.543C388.807,441.475,390.289,439.303,390.387,439.303z"/>
		<path fill="#FFDE11" d="M396.41,451.643c0.098,0.101,0.691,2.667-0.396,4.938c-0.69,1.58-2.073,2.766-3.652,3.356
			c-0.495-1.578-0.395-3.356,0.395-4.936C393.941,452.631,396.311,451.445,396.41,451.643z"/>
		<path fill="#FFDE11" d="M386.339,452.335c-0.099,0.098-0.395,2.765,1.086,4.838c0.987,1.382,2.468,2.368,4.147,2.764
			c0.198-1.679-0.099-3.356-1.086-4.837C389.004,453.026,386.537,452.236,386.339,452.335z"/>
		<path fill="#FFDE11" d="M396.904,457.469c0.098,0.099,0.69,2.666-0.396,4.937c-0.69,1.58-2.073,2.765-3.652,3.357
			c-0.494-1.581-0.396-3.357,0.395-4.936C394.336,458.555,396.706,457.37,396.904,457.469z"/>
		<path fill="#FFDE11" d="M386.832,458.16c-0.098,0.098-0.395,2.765,1.086,4.839c0.988,1.381,2.469,2.368,4.147,2.764
			c0.198-1.679-0.098-3.357-1.086-4.838C389.399,458.95,386.931,458.062,386.832,458.16z"/>
		<path fill="#FFDE11" d="M392.954,434.169h-0.395l0.691,8.292h0.395L392.954,434.169z"/>
		<path fill="#FFDE11" d="M394.633,444.337l-0.692-8.294h0.396l0.69,8.294H394.633z"/>
		<path fill="#FFDE11" d="M395.817,437.722h-0.395l0.494,7.405l0.395-0.099L395.817,437.722z"/>
		<path fill="#FFDE11" d="M387.918,434.562l-0.395,0.101l0.691,8.294l0.395-0.101L387.918,434.562z"/>
		<path fill="#FFDE11" d="M386.931,444.93l-0.592-8.294l0.394-0.1l0.593,8.294L386.931,444.93z"/>
		<path fill="#FFDE11" d="M385.647,438.512h-0.493l0.592,7.406l0.396-0.101L385.647,438.512z"/>
		<path fill="#FFDE11" d="M391.473,432.488h-0.395l0.494,7.012h0.395L391.473,432.488z"/>
		<path fill="#FFDE11" d="M389.104,439.696l-0.494-7.009h0.395l0.494,7.009H389.104z"/>
		<path fill="#FFDE11" d="M390.091,430.712h-0.395l0.494,7.01h0.395L390.091,430.712z"/>
		<path fill="#F3920D" d="M393.843,487.287l-1.58-20.537l0.593-0.098l1.579,20.535L393.843,487.287z"/>
		<path fill="#F3920D" d="M393.349,477.413c-0.198-0.69,1.777-8.097,3.851-9.478C396.508,472.871,394.928,475.734,393.349,477.413z"
			/>
		<path fill="#F3920D" d="M393.546,480.276c0.099-0.69-3.06-7.7-5.233-8.788C389.696,476.229,391.77,478.796,393.546,480.276z"/>
		<path fill="#F3920D" d="M393.843,465.367c0,0.1,0.098,0.1,0.098,0.296c0.099,0.791-0.592,1.581-1.382,1.581
			c-0.79,0.098-1.58-0.594-1.58-1.383l0,0c0-0.099,0-0.099,0-0.296L393.843,465.367z"/>
		<path fill="#FFDE11" d="M379.427,447.003c0.099,0.1,0.691,2.666-0.396,4.937c-0.69,1.58-2.072,2.766-3.652,3.357
			c-0.494-1.58-0.396-3.357,0.395-4.938C376.86,448.09,379.23,446.904,379.427,447.003z"/>
		<path fill="#FFDE11" d="M369.356,447.792c-0.098,0.1-0.395,2.766,1.086,4.839c0.988,1.383,2.469,2.469,4.147,2.764
			c0.198-1.678-0.099-3.356-1.086-4.837C371.923,448.484,369.455,447.597,369.356,447.792z"/>
		<path fill="#FFDE11" d="M373.898,440.586c0.099,0,1.975,1.875,2.172,4.541c0.099,1.679-0.395,3.357-1.481,4.739
			c-1.283-1.185-1.974-2.764-2.172-4.542C372.22,442.758,373.701,440.586,373.898,440.586z"/>
		<path fill="#FFDE11" d="M379.822,452.828c0.099,0.098,0.691,2.667-0.395,4.937c-0.691,1.581-2.073,2.765-3.653,3.357
			c-0.494-1.581-0.395-3.357,0.395-4.937C377.354,453.914,379.724,452.828,379.822,452.828z"/>
		<path fill="#FFDE11" d="M369.751,453.618c-0.099,0.099-0.396,2.765,1.086,4.838c0.988,1.383,2.468,2.469,4.146,2.764
			c0.198-1.679-0.098-3.355-1.086-4.837C372.417,454.31,369.85,453.52,369.751,453.618z"/>
		<path fill="#FFDE11" d="M380.415,458.653c0.099,0.099,0.692,2.667-0.395,4.937c-0.691,1.58-2.073,2.765-3.653,3.357
			c-0.494-1.58-0.395-3.357,0.395-4.937C377.749,459.839,380.118,458.653,380.415,458.653z"/>
		<path fill="#FFDE11" d="M370.146,459.443c-0.099,0.098-0.395,2.765,1.086,4.839c0.987,1.381,2.468,2.368,4.147,2.764
			c0.197-1.679-0.099-3.357-1.086-4.838C372.813,460.135,370.344,459.346,370.146,459.443z"/>
		<path fill="#FFDE11" d="M376.367,435.452h-0.395l0.69,8.292h0.395L376.367,435.452z"/>
		<path fill="#FFDE11" d="M378.045,445.522l-0.69-8.294h0.394l0.692,8.294H378.045z"/>
		<path fill="#FFDE11" d="M379.23,438.907h-0.395l0.592,7.404h0.395L379.23,438.907z"/>
		<path fill="#FFDE11" d="M371.332,435.847h-0.396l0.691,8.292h0.395L371.332,435.847z"/>
		<path fill="#FFDE11" d="M370.146,437.821h-0.395l0.69,8.294h0.396L370.146,437.821z"/>
		<path fill="#FFDE11" d="M369.159,447.201l-0.593-7.405l0.395-0.1l0.592,7.406h-0.395V447.201z"/>
		<path fill="#FFDE11" d="M374.984,433.674h-0.494l0.494,7.01h0.396L374.984,433.674z"/>
		<path fill="#FFDE11" d="M372.417,433.871h-0.395l0.494,7.011h0.395L372.417,433.871z"/>
		<path fill="#FFDE11" d="M373.701,439.005l-0.493-7.01l0.394-0.099l0.494,7.011L373.701,439.005z"/>
		<path fill="#F3920D" d="M376.268,468.033l-0.592,0.1l1.58,20.536l0.593-0.099L376.268,468.033z"/>
		<path fill="#F3920D" d="M376.762,478.796c-0.198-0.691,1.776-8.097,3.85-9.479C379.921,474.154,378.341,477.018,376.762,478.796z"
			/>
		<path fill="#F3920D" d="M376.959,481.56c0.098-0.689-3.062-7.7-5.233-8.786C373.108,477.413,375.182,480.079,376.959,481.56z"/>
		<path fill="#F3920D" d="M377.354,466.652c0,0.098,0,0.098,0,0.295c0.098,0.79-0.494,1.58-1.382,1.58
			c-0.791,0.099-1.58-0.494-1.58-1.382l0,0c0-0.1,0-0.1,0-0.297L377.354,466.652z"/>
		<path fill="#FFDE11" d="M362.938,448.188c0.099,0.099,0.692,2.667-0.395,4.937c-0.691,1.581-2.073,2.765-3.653,3.357
			c-0.494-1.58-0.395-3.357,0.395-4.937C360.272,449.373,362.642,448.188,362.938,448.188z"/>
		<path fill="#FFDE11" d="M352.67,449.076c-0.099,0.099-0.395,2.765,1.086,4.838c0.987,1.383,2.468,2.37,4.147,2.766
			c0.197-1.679-0.099-3.358-1.086-4.839C355.929,450.359,354.447,449.373,352.67,449.076z"/>
		<path fill="#FFDE11" d="M357.311,441.771c0.099,0,1.975,1.875,2.173,4.541c0.098,1.679-0.396,3.357-1.482,4.74
			c-1.283-1.186-1.975-2.766-2.172-4.543C355.632,444.041,357.113,441.771,357.311,441.771z"/>
		<path fill="#FFDE11" d="M363.333,454.111c0.099,0.101,0.691,2.667-0.395,4.937c-0.691,1.581-2.073,2.766-3.653,3.357
			c-0.494-1.578-0.395-3.357,0.395-4.937C360.767,455.198,363.136,454.014,363.333,454.111z"/>
		<path fill="#FFDE11" d="M353.164,454.901c-0.099,0.1-0.395,2.766,1.087,4.838c0.987,1.383,2.468,2.469,4.146,2.767
			c0.197-1.679-0.098-3.357-1.086-4.839C355.83,455.495,353.263,454.803,353.164,454.901z"/>
		<path fill="#FFDE11" d="M363.728,459.937c0.099,0.099,0.691,2.667-0.395,4.937c-0.691,1.581-2.074,2.767-3.653,3.357
			c-0.494-1.58-0.395-3.357,0.394-4.937C361.161,461.024,363.531,459.839,363.728,459.937z"/>
		<path fill="#FFDE11" d="M353.559,460.727c-0.099,0.101-0.395,2.766,1.086,4.839c0.987,1.382,2.468,2.468,4.147,2.764
			c0.198-1.679-0.099-3.355-1.086-4.837C356.225,461.418,353.756,460.629,353.559,460.727z"/>
		<path fill="#FFDE11" d="M359.977,445.028l-0.691-8.294h0.395l0.691,8.294H359.977z"/>
		<path fill="#FFDE11" d="M361.458,446.806l-0.691-8.294h0.395l0.691,8.294H361.458z"/>
		<path fill="#FFDE11" d="M362.642,447.597l-0.592-7.406h0.395l0.592,7.406H362.642z"/>
		<path fill="#FFDE11" d="M354.842,445.522l-0.691-8.294h0.395l0.691,8.294H354.842z"/>
		<path fill="#FFDE11" d="M353.559,439.005h-0.395l0.692,8.294l0.395-0.098L353.559,439.005z"/>
		<path fill="#FFDE11" d="M352.374,440.98l-0.395,0.099l0.592,7.405h0.395L352.374,440.98z"/>
		<path fill="#FFDE11" d="M358.396,434.957h-0.395l0.495,7.011l0.395-0.099L358.396,434.957z"/>
		<path fill="#FFDE11" d="M355.83,435.155l-0.395,0.099l0.494,7.01h0.395L355.83,435.155z"/>
		<path fill="#FFDE11" d="M357.113,440.289l-0.493-7.011h0.395l0.493,7.011H357.113z"/>
		<path fill="#F3920D" d="M360.569,489.854l-1.58-20.537h0.592l1.58,20.537H360.569z"/>
		<path fill="#F3920D" d="M360.174,479.979c-0.197-0.69,1.778-8.096,3.851-9.478C363.333,475.34,361.753,478.203,360.174,479.979z"
			/>
		<path fill="#F3920D" d="M360.372,482.844c0.099-0.69-3.061-7.701-5.233-8.787C356.521,478.696,358.496,481.363,360.372,482.844z"
			/>
		<path fill="#F3920D" d="M360.767,467.936c0,0.098,0,0.098,0,0.197c0.099,0.79-0.494,1.579-1.283,1.579c0,0,0,0-0.099,0
			c-0.791,0.099-1.58-0.593-1.58-1.383v-0.296L360.767,467.936z"/>
		<path fill="#FFDE11" d="M346.252,449.471c0.099,0.101,0.691,2.667-0.395,4.937c-0.691,1.581-2.074,2.766-3.654,3.357
			c-0.493-1.579-0.394-3.357,0.396-5.034C343.685,450.558,346.055,449.373,346.252,449.471z"/>
		<path fill="#FFDE11" d="M336.083,450.262c-0.099,0.098-0.395,2.765,1.086,4.838c0.987,1.382,2.468,2.468,4.147,2.765
			c0.198-1.679-0.099-3.357-1.086-4.838C338.848,450.952,336.28,450.162,336.083,450.262z"/>
		<path fill="#FFDE11" d="M340.723,443.054c0.1,0,1.975,1.876,2.173,4.543c0.099,1.677-0.395,3.355-1.481,4.738
			c-1.284-1.186-1.975-2.764-2.172-4.543C338.946,445.324,340.427,443.054,340.723,443.054z"/>
		<path fill="#FFDE11" d="M346.746,455.395c0.099,0.101,0.692,2.667-0.395,4.938c-0.69,1.58-2.073,2.765-3.653,3.356
			c-0.494-1.578-0.395-3.356,0.396-4.937C344.179,456.383,346.549,455.297,346.746,455.395z"/>
		<path fill="#FFDE11" d="M336.577,456.086c-0.099,0.1-0.395,2.766,1.086,4.839c0.987,1.383,2.468,2.469,4.147,2.764
			c0.198-1.678-0.099-3.356-1.087-4.837C339.242,456.778,336.675,456.086,336.577,456.086z"/>
		<path fill="#FFDE11" d="M347.141,461.22c0.099,0.101,0.691,2.667-0.396,4.937c-0.69,1.581-2.072,2.767-3.652,3.357
			c-0.494-1.578-0.396-3.357,0.395-4.937C344.574,462.308,346.943,461.122,347.141,461.22z"/>
		<path fill="#FFDE11" d="M336.972,462.011c-0.099,0.1-0.297,2.765,1.085,4.838c0.987,1.382,2.469,2.468,4.146,2.766
			c0.198-1.679-0.098-3.357-1.086-4.839C340.131,463.394,338.749,462.405,336.972,462.011z"/>
		<path fill="#FFDE11" d="M343.291,438.018h-0.494l0.692,8.294h0.395L343.291,438.018z"/>
		<path fill="#FFDE11" d="M344.673,439.696l-0.396,0.1l0.691,8.294h0.395L344.673,439.696z"/>
		<path fill="#FFDE11" d="M346.154,448.88l-0.593-7.405l0.395-0.1l0.592,7.404h-0.395V448.88z"/>
		<path fill="#FFDE11" d="M338.156,438.314h-0.395l0.691,8.294h0.395L338.156,438.314z"/>
		<path fill="#FFDE11" d="M336.972,440.289l-0.396,0.099l0.691,8.294l0.395-0.099L336.972,440.289z"/>
		<path fill="#FFDE11" d="M335.984,449.669l-0.592-7.405h0.395l0.593,7.405H335.984z"/>
		<path fill="#FFDE11" d="M341.908,443.251l-0.593-7.011l0.395-0.098l0.493,7.01L341.908,443.251z"/>
		<path fill="#FFDE11" d="M339.242,443.449l-0.494-7.011h0.395l0.493,7.011H339.242z"/>
		<path fill="#FFDE11" d="M340.329,434.464h-0.395l0.494,7.011h0.395L340.329,434.464z"/>
		<path fill="#F3920D" d="M343.093,470.502l-0.593,0.099l1.58,20.537l0.593-0.1L343.093,470.502z"/>
		<path fill="#F3920D" d="M343.587,481.264c-0.198-0.691,1.777-8.097,3.851-9.478C346.746,476.623,345.167,479.486,343.587,481.264z
			"/>
		<path fill="#F3920D" d="M343.784,484.028c0.099-0.69-3.061-7.701-5.233-8.787C339.934,479.979,341.908,482.549,343.784,484.028z"
			/>
		<path fill="#F3920D" d="M344.179,469.219c0,0.098,0,0.098,0.099,0.295c0.099,0.79-0.593,1.581-1.382,1.581
			c-0.79,0.098-1.58-0.593-1.58-1.383c0-0.098,0-0.098,0-0.296L344.179,469.219z"/>
	</g>
	<g id="Layer_2_00000011724372785370826290000008534721217664910267_">
		<g id="Layer_1-2_00000154420224873122426960000003957512691756046211_">
			<path fill="#9E988F" d="M341.71,588.688c-7.405-72.373-36.828-232.225-180.586-200.335
				C32.473,416.889,7.296,501.406,7.296,577.037c0,3.948,0.198,7.7,0.593,11.551L341.71,588.688L341.71,588.688z"/>
			<path fill="#DCD9CD" d="M384.858,588.688c-6.813-65.463-39.198-143.166-156.396-134.477
				C143.253,460.529,73.646,509.7,73.646,578.223c0,3.553,0.198,7.008,0.592,10.466H384.858L384.858,588.688z"/>
			<path fill="#ACA89D" d="M201.508,589.182c-2.37-25.178-13.33-55.293-53.12-51.836c-29.027,2.468-52.625,21.425-52.625,47.787
				c0,1.384,0.099,2.765,0.099,4.049H201.508L201.508,589.182z"/>
			<path fill="#C5C1B5" d="M166.752,589.182c3.357-31.497,18.859-68.918,75.236-64.771c41.073,3.061,74.544,26.658,74.544,59.637
				c0,1.677-0.098,3.356-0.295,5.134H166.752L166.752,589.182z"/>
		</g>
	</g>
	<g id="Layer_2_00000099625685034365378710000007200006357025793204_">
		<g id="Layer_1-2_00000047762980737767559340000000803372795650658456_">
			<path fill="#1E8C51" d="M737.934,388.158c0,0,0.69-1.481,8.887,0c30.605,5.43,53.908-8.888,50.551-9.382
				c-18.266-2.763-32.878-6.813-30.707-8.095c2.173-1.283,30.906-3.852,25.473-4.542c-7.405-0.989-28.435-9.973-25.967-10.664
				c2.569-0.69,27.055-1.58,22.315-3.455c-17.478-6.813-24.388-13.921-22.215-13.23c2.171,0.691,19.845,2.765,16.588,0.494
				c-10.763-7.603-19.847-22.018-19.847-22.018s10.366,3.06,14.021,3.948c3.652,0.79,1.579-1.087-5.431-7.108
				c-6.616-5.728-12.344-14.021-12.344-14.021c2.468-0.098,5.136-0.098,7.702,0c5.528,0.198,5.035,0.988,0-4.836
				c-5.034-5.826-17.97-18.167-15.205-19.155c2.766-0.987,15.895,7.01,13.328,4.344c-6.91-7.405-23.793-37.618-24.485-35.643
				c-0.69,1.974-8.294,21.227-13.328,27.941c-5.136,6.714-15.304,12.44-10.367,12.145c4.838-0.396,13.525-4.542,13.525-4.542
				s-4.542,12.639-7.899,15.6c-3.356,3.062-7.107,6.419-2.269,6.024c4.835-0.396,13.524-4.345,11.256-1.283
				c-2.272,3.06-19.056,15.303-15.897,15.698c3.06,0.395,14.12-2.469,14.12-2.469s-9.775,13.626-12.737,15.699
				c-3.061,1.975-6.813,3.851-3.455,4.443c3.356,0.592,13.821-1.876,13.821-1.876s-7.996,13.625-18.759,19.943
				c-1.284,0.79,9.082,0.988,13.92,0c4.839-0.986,6.813-2.072,6.418,0c-0.396,2.074-18.563,9.875-25.67,14.218
				c-4.937,3.063,22.313-0.789,23.993,0c1.876,0.89-15.699,13.824-31.397,15.503c-4.642,0.395,8.193,3.948,17.674,6.021
				C722.729,390.133,737.934,388.158,737.934,388.158z"/>
			<path fill="#33AD69" d="M691.528,281.623c7.107-0.198,21.128,2.172,32.483,10.071c13.429,9.38,17.081,15.5,20.536,31.299
				c3.455,15.798-1.383,28.14-8.588,38.901c-7.209,10.763-11.851,21.919-44.729,27.251c-18.661,3.062-48.875-8.787-54.403-33.373
				c-5.527-24.584,0.988-41.665,7.308-47.984C650.356,301.369,660.523,282.609,691.528,281.623z"/>
			<path fill="#AA551A" d="M731.811,328.225l-8.392,4.739c0,0-4.246,0.79-6.417,1.186c-2.073,0.395-7.11,1.381-7.11,1.381
				l-1.775-9.28h-1.975c0,0,1.184,9.479,0,10.171c-0.988,0.591-7.11,2.467-10.962,3.455c-0.889-8.59-1.876-18.167-1.876-19.253
				c0-1.087,3.063-3.062,5.433-4.048c2.469-0.987,7.798-2.469,10.069-3.16c2.175-0.69,3.26-1.086,3.26-1.086
				s-2.469-3.95-4.051-3.062c-1.579,0.79-8.588,4.245-8.588,4.245l-2.37-4.838h-2.766l1.582,4.838c0,0-1.285,0.988-2.469,0
				c-1.088-0.987-2.075-5.231-2.075-8.886c0-3.653,0-5.231,0-5.231c0.987-0.198,5.136,1.776,5.136,1.776l0.788-1.283l-5.035-3.16
				c0,0,1.284-1.581,2.766-4.049c1.58-2.467,1.481-2.369-1.284-3.652c0,0-1.678,2.666-3.06,4.837
				c-0.89,1.283-3.358,6.023-4.247,6.122c-0.889,0.098-1.185-0.099-3.651-0.89l-2.272-0.592l-0.889,1.975
				c0,0,5.43,1.481,5.728,3.258c0.196,1.778,0.493,15.403,0.493,15.403l-5.234-6.616l-1.873,0.594c0,0-0.692,0,0.098,1.48
				c0.396,0.888,0.988,1.777,1.678,2.469l-6.515-1.975l-0.1,2.468c0,0,4.839,1.283,6.712,2.174c1.877,0.788,5.431,2.763,5.431,2.763
				l0.493,4.641c0.497,4.641,1.089,18.859,1.089,18.859l-6.813-2.469l-1.877-4.245l3.259-1.383l-0.791-1.283h-4.046l-3.357-4.839
				l-2.073,0.988c0,0,2.962,3.653,2.962,4.344c0,0.691,2.269,6.22,2.269,6.22s-4.541-1.48-5.825-1.875
				c-1.282-0.395-16.981-4.049-16.981-4.049l-0.297,3.654c0,0,10.072,3.553,12.737,4.837l0.396,0.1
				c-0.196,0.099-0.396,0.396-0.693,0.493c-1.775,1.382-3.75,2.469-5.822,3.257l1.281,3.26l9.085-5.727
				c1.579,0.493,6.911,2.467,7.702,2.765c2.469,0.888,7.405,2.862,8.192,5.925c0.791,3.06-0.196,12.145-0.294,16.883
				c0,3.356-0.595,3.653-2.174,3.356c-1.876-0.395-5.035-1.479-5.035-1.479c0.1-0.988,0-2.074-0.098-3.063
				c-0.099-1.48-0.494-2.863-0.987-4.245l-2.174-0.789c-0.395,1.677-0.395,3.456-0.395,5.132c0.101,1.483-3.652,0.692-5.232-0.195
				c-2.468-1.383-5.135-2.567-7.898-3.556c-2.568-0.888-6.023-1.875-6.023-1.875l-1.282,3.06c3.06,1.186,6.218,2.469,9.18,4.05
				c0.396,0.195,0.692,0.394,1.188,0.592l-4.839,1.085l1.184,2.172c0.987-0.098,1.975-0.394,2.962-0.591
				c1.284-0.396,2.765-0.691,4.148-0.889c3.06,1.382,5.728,2.369,8.787,3.752c3.851,1.777,7.107,2.469,8.787,3.654
				c1.58,1.183,0.298,34.456,0.298,42.455c0,7.997-0.298,41.765-0.298,41.765h12.342l-2.37-94.192l9.974-8.689l0.69,0.986
				c0.689,0.987,1.579,1.778,2.566,2.567l1.582-1.875l-0.791-0.692c-0.69-0.691-1.285-1.579-1.579-2.566l4.243-4.049l-1.086-1.776
				c0,0-4.246,2.566-7.208,4.443c-0.098,0.1-0.195,0.1-0.294,0.197v-8.59c0,0,0.592-1.876,0-2.074c-0.494-0.099-1.086-0.099-1.579,0
				c0,0-0.396,1.679-0.693,3.653c-0.195,1.481-0.889,6.714-1.086,8.985c-2.566,1.581-5.034,3.062-5.034,3.062
				s0.099-8.689-0.099-12.935c-0.1-1.087-0.297-3.653-0.692-6.715c4.74-1.481,12.146-4.345,16.392-5.43
				c5.431-1.481,6.614-2.765,8.294-1.877c1.678,0.89,1.579,8.395,2.171,9.184l2.37-0.789v-5.136h4.938l0.79-1.679l-5.728-0.789
				v-5.134c0,0,7.702-4.049,7.8-4.938C733.194,329.213,731.811,328.225,731.811,328.225z"/>
			<path fill="#33AD69" d="M595.951,441.277c0,0-0.69-1.581-9.775,0c-33.963,6.021-59.733-9.775-56.078-10.368
				c20.238-3.16,36.431-7.503,33.963-8.984c-2.469-1.48-34.261-4.246-28.138-5.134c8.095-1.087,31.396-11.06,28.73-11.85
				c-2.862-0.691-30.015-1.776-24.683-3.751c19.35-7.603,26.953-15.403,24.583-14.613c-2.369,0.79-22.017,3.063-18.362,0.594
				c11.945-8.395,22.017-24.389,22.017-24.389s-11.453,3.357-15.6,4.345c-4.048,0.988-1.68-1.284,6.021-7.899
				c7.405-6.319,13.626-15.501,13.626-15.501c-2.766-0.197-5.629-0.197-8.489,0c-6.222,0.296-5.532,0.988,0-5.332
				c5.528-6.319,19.844-20.141,16.979-21.229c-2.863-1.085-17.574,7.801-14.809,4.839c7.701-8.294,26.361-41.765,27.152-39.493
				c0.789,2.271,9.181,23.499,14.712,31.001c5.725,7.406,16.882,13.824,11.55,13.429c-5.43-0.395-15.006-4.937-15.006-4.937
				s5.035,13.921,8.789,17.279c3.749,3.355,7.996,7.109,2.467,6.714c-5.433-0.395-15.009-4.839-12.54-1.481
				c2.469,3.356,21.129,16.884,17.674,17.377c-3.456,0.494-15.601-2.666-15.601-2.666s10.762,15.107,14.119,17.377
				c3.357,2.272,7.604,4.246,3.851,4.937c-3.753,0.692-15.303-2.171-15.303-2.171s8.886,15.105,20.732,22.116
				c1.481,0.889-10.071,1.085-15.501,0c-5.431-0.986-7.503-2.271-7.108,0c0.396,2.271,20.537,10.959,28.436,15.798
				c5.43,3.356-24.685-0.889-26.559,0c-2.174,0.987,17.376,15.403,34.853,17.08c5.133,0.494-9.085,4.444-19.452,6.715
				C612.737,443.547,595.951,441.277,595.951,441.277z"/>
			<path fill="#AA551A" d="M580.351,428.342c-0.098-8.689,0.693-25.67,0.693-25.67l-13.231-12.837l1.678-2.171
				c0,0,1.384,0.296,4.937,3.061c3.557,2.665,8,5.332,8,5.332s0.196-14.812,0.494-18.267c0.493-6.319-1.681-8.294-1.681-8.294
				s-1.975-1.481-4.838-3.356c-2.764-1.876-5.035-3.752-5.035-3.752l2.174-2.371c1.873,0.89,3.75,1.877,5.529,3.063
				c1.28,0.788,2.961,0.889,4.344,0.197c0,0,0.098-1.776,0.196-7.306c0.098-5.136,0.987-11.553,0.098-14.219
				c-0.787-2.764-6.417-11.157-6.417-11.157l1.481-2.666c0.987,0.691,1.974,1.679,2.765,2.766c1.285,1.875,5.134,6.615,5.134,6.615
				s1.582-3.653,3.654-7.209c2.369-4.442,1.085-5.035,3.651-4.344c2.766,0.691,1.975,1.087,0.693,4.64
				c-1.481,3.951-2.073,5.529-3.061,7.801c-0.79,1.777-0.199,27.251-0.199,27.251s-0.195,16.686,0.494,16.884
				c3.06,1.085,11.848-0.889,11.848-0.889l-0.099,2.469l-12.145,3.851l-0.294,28.435c0,0,4.145-0.098,6.318-1.186
				c2.171-0.986,2.664-0.689,2.664-0.689l0.89,2.171c0,0-2.566,2.074-4.838,2.568c-1.579,0.395-3.95,0.987-5.133,1.282l1.48,56.478
				l-13.232-0.395C579.464,476.229,580.55,436.734,580.351,428.342z"/>
			<path fill="#1E8C51" d="M643.147,436.834c5.529,0,26.065-7.702,31.989-23.895c6.025-16.191,1.086-51.439-2.763-66.35
				c-3.949-14.811-29.029-87.184-29.029-87.184s-7.699,16.588-14.315,27.844c-6.517,11.255-26.065,56.181-29.721,73.064
				c-3.652,16.783-3.949,47.096,5.826,60.13C617.377,436.834,626.956,433.771,643.147,436.834z"/>
			<path fill="#814316" d="M641.667,476.821c0,0-0.297-20.833-0.297-29.325c0-8.491-1.383-25.275,0.297-26.559
				c1.678-1.285,5.234-2.073,9.379-3.852c3.95-1.579,8.196-2.468,12.439-2.764c3.459-0.297,3.952-0.395,3.952-0.395l-0.791-3.654
				c0,0-0.591-0.098-3.455,0c-2.863,0.099-3.754,0.396-5.136,0.494c-2.763,0.296-4.443,1.579-4.345,0
				c0.101-1.579,0.594-7.898-0.886-7.207c-0.693,0.395-1.582,0.689-2.272,0.888c-0.494,1.481-0.791,3.061-0.987,4.542
				c-0.098,1.086-0.098,2.172-0.098,3.356c-1.779,0.593-3.555,1.087-5.332,1.581c-1.68,0.395-2.37,0.098-2.37-3.556
				c0-5.035-1.185-17.673-0.298-20.833c0.595-2.764,2.569-4.937,5.234-5.727c1.68-0.69,5.825-1.48,8.787-2.862
				c1.579-0.79,3.259-1.283,4.937-1.481l-0.295-2.765c-1.876,0.296-3.654,0.691-5.433,1.185c-1.38,0.494-6.219,2.073-6.219,2.073
				s2.469-5.924,2.469-6.713c0-0.791,0.295-4.246,0.295-4.246h-2.171l-0.69,3.653h-4.246l-0.889,1.283l3.455,1.481l-1.877,4.541
				l-3.749,1.581c0,0,0.591-15.106,1.183-20.043l0.593-4.938c0,0,3.752-1.975,5.727-2.862c1.975-0.889,7.107-2.271,7.107-2.271
				l-0.099-2.665l-6.813,2.171c0.693-0.789,1.284-1.677,1.876-2.665c0.891-1.58,0.1-1.58,0.1-1.58l-1.976-0.69l-5.627,7.108
				c0,0,0.295-20.24,0.593-22.116c0.297-1.877,7.403-7.404,7.403-7.404l-1.085-1.481l-1.579,0.69
				c-3.161,1.679-5.135,3.851-6.023,4.246c-0.887,0.395-7.7-13.626-9.181-14.516l-1.481-0.888c-2.864,1.481-2.271,3.16-2.271,3.16
				c1.383,1.382,2.765,2.862,3.753,4.542c1.678,2.567,2.269,3.554,2.269,3.554l-4.639,4.147l0.889,1.283
				c0,0,3.852-3.752,4.937-3.556c0.789,0.101,1.383,6.222,1.383,6.222s-2.569,14.02-2.569,17.871c0,3.851-0.986,8.393-2.171,9.479
				c-1.187,0.987-2.668,0-2.668,0l1.779-5.134h-2.962l-2.468,5.134c0,0-7.405-3.652-9.184-4.442
				c-1.677-0.791-4.345,3.257-4.345,3.257s1.086,0.395,3.455,1.186c2.37,0.691,8,2.173,10.664,3.355
				c2.566,1.087,5.826,3.16,5.826,4.346c0,2.074-1.285,19.351-1.58,23.991c-0.296,4.543-0.098,13.824-0.098,13.824
				s-3.949-2.666-7.11-4.542c-3.06-1.876-7.702-4.739-7.702-4.739l-1.183,1.877l4.54,4.244c0,0-0.889,2.073-1.677,2.765l-0.89,0.691
				l1.678,2.073c0.987-0.79,1.877-1.777,2.766-2.765l0.69-0.987l8.293,8.097l-2.566,66.447L641.667,476.821L641.667,476.821z"/>
			<path fill="#814316" d="M730.922,333.952l0.102,2.271l10.958,3.455l0.196,25.771c0,0-3.651-0.1-5.725-1.086
				c-2.076-0.988-2.37-0.692-2.37-0.692l-0.791,2.074c0,0,2.272,1.877,4.344,2.271c1.481,0.296,3.555,0.89,4.644,1.087
				l-1.286,104.264l14.712-2.863c-1.579-30.015-3.752-89.454-3.652-94.193c0.099-7.8-0.594-23.202-0.594-23.202l11.947-11.552
				l-1.578-1.877c0,0-1.284,0.297-4.543,2.766c-3.257,2.469-7.207,4.838-7.207,4.838s-0.198-13.43-0.395-16.489
				c-0.396-5.727,1.578-7.504,1.578-7.504s1.877-1.283,4.346-3.06c2.469-1.779,4.54-3.357,4.54-3.357l-1.974-2.173
				c-1.678,0.789-3.357,1.679-4.937,2.765c-1.185,0.691-2.665,0.791-3.95,0.197c0,0-0.098-1.579-0.198-6.614
				c-0.098-4.542-0.887-10.367-0.098-12.835c0.791-2.468,5.825-10.072,5.825-10.072l-1.282-2.369
				c-0.987,0.69-1.778,1.58-2.468,2.468c-1.187,1.679-4.642,6.023-4.642,6.023s-1.481-3.259-3.26-6.516
				c-2.172-3.95-0.987-4.542-3.354-3.95c-2.471,0.69-1.779,0.988-0.595,4.245c1.284,3.654,1.877,5.036,2.766,7.011
				c0.689,1.58,0.196,24.584,0.196,24.584s0.102,15.008-0.393,15.305C738.82,335.631,730.922,333.952,730.922,333.952z"/>
		</g>
	</g>
</g>
<g id="Layer_2">
	<g id="Layer_1-2">
		<path fill="#6D6A55" fill-opacity="0.42" d="M249.69,536.95c1.382-0.197-0.79-0.396,0.888-0.296
			C250.381,536.95,249.986,537.148,249.69,536.95z"/>
		<path fill="#6D6A55" fill-opacity="0.42" d="M247.912,537.148c-0.295-0.297-1.381-0.396-0.592-0.889
			C247.419,536.654,248.011,536.852,247.912,537.148z"/>
		<path fill="#6D6A55" fill-opacity="0.42" d="M221.353,534.481c0,0.1-0.395-0.098-0.494-0.197c0.296,0,0.592-0.296,0.889-0.098
			C221.452,534.187,221.452,534.383,221.353,534.481z"/>
		<path fill="#6D6A55" fill-opacity="0.42" d="M214.54,534.284c0.099-0.296,1.58-0.493,2.371-0.493L214.54,534.284z"/>
		<path fill="#6D6A55" fill-opacity="0.42" d="M208.222,533.1c-0.494-0.197-0.396-0.395,0.296-0.297
			C208.617,532.902,208.419,533.001,208.222,533.1z"/>
		<path fill="#6D6A55" fill-opacity="0.42" d="M207.826,533.693c-0.395,0-0.79-0.101-1.086-0.298
			C206.741,533.593,208.024,533.298,207.826,533.693z"/>
		<path fill="#6D6A55" fill-opacity="0.42" d="M194.102,532.803c-0.296,0-1.086,0.297-1.382-0.098
			C193.016,532.902,194.3,532.407,194.102,532.803z"/>
		<path fill="#6D6A55" fill-opacity="0.42" d="M187.685,533.198c-0.198,0-0.396,0-0.493,0c-0.396-0.099,0-0.296,0.295-0.396
			L187.685,533.198z"/>
		<path fill="#6D6A55" fill-opacity="0.42" d="M193.708,528.459l-0.691,0.197l0.099-0.295L193.708,528.459z"/>
		<path fill="#6D6A55" fill-opacity="0.42" d="M236.657,526.386c-0.395,0.493-0.494,0-0.593,0.099
			C236.558,526.09,236.064,526.879,236.657,526.386z"/>
		<path fill="#6D6A55" fill-opacity="0.42" d="M211.479,534.778h0.198v0.593L211.479,534.778z"/>
		<path fill="#E2131B" d="M195.09,310.651c13.527,5.726,31.693,10.07,36.532,19.252c3.554,6.122-0.988,7.801-7.8,4.938
			c-3.653-0.889-5.825,1.185-10.269,1.085c-8.294,9.678-9.38,9.479-19.253,13.133c-0.691,5.727,1.283,16.784,0.296,25.571
			c-15.6,0.494-34.754,11.552-36.038,1.283c-0.494-3.651,0.889-14.612-0.494-17.969c-1.975-4.838-5.332-9.677-7.701-14.02
			c-4.838-7.209-11.058-15.107-7.208-24.29C151.844,300.776,181.662,304.924,195.09,310.651z"/>
		<path fill="#030304" d="M158.657,366.83c-15.007,29.127-22.907,60.031-22.413,92.318c0.494,13.032,4.74,28.532,12.638,38.802
			c5.332,6.911,15.699,9.676,30.806,8.097c4.345-9.183,1.975-21.722,1.975-30.806c-0.494-11.06,0.493-55.391,1.481-67.93
			c0.494-7.207,0.296-19.944-0.494-35.445C164.186,371.272,158.657,366.83,158.657,366.83z"/>
		<path fill="#E2131B" d="M194.398,367.027c1.58,7.208,1.382,22.414,3.258,29.522c1.58,6.516,1.284,12.737,3.061,19.353
			c2.765,10.86,4.344,22.708,6.22,34.26c2.765,16.785,11.947,35.544-3.259,48.874c-4.64,4.345-11.75,6.122-25.177,7.208
			c2.074-3.851,3.652-18.464,3.357-23.104c-0.296-7.8-2.567-15.896-1.876-23.4c1.58-25.57,0.79-58.351,2.666-84.22
			C182.945,369.989,188.178,365.843,194.398,367.027z"/>
		<path fill="#FFFFFF" d="M154.905,326.349c0,6.517,5.035,10.961,11.749,10.961s11.749-4.444,11.749-10.961
			c-0.099-6.613-5.529-11.848-12.145-11.749l0,0c-6.22,0-11.354,5.035-11.453,11.256
			C154.905,326.054,154.905,326.152,154.905,326.349z"/>
		<path fill="#030304" d="M164.383,324.769c0.1,1.285,1.186,2.173,2.469,2.075c1.086-0.101,2.073-0.988,2.073-2.075
			c0-1.283-1.086-2.271-2.369-2.271C165.469,322.498,164.482,323.485,164.383,324.769L164.383,324.769z"/>
		<path fill="#E2131B" d="M149.869,496.667c0,8.293,1.284,25.079,2.074,31.2c0.494,3.652,11.158,2.764,14.218,2.369
			c3.159-0.396,3.357-3.554,0.395-4.146c-2.962-0.593-9.676-1.383-9.676-1.383s-1.58-19.647-1.679-26.164
			C155.299,494.198,149.869,492.421,149.869,496.667z"/>
		<path fill="#E2131B" d="M190.746,502.59c0,0,18.167,17.279,23.005,21.131c2.863,2.369,9.972-5.728,11.947-8.196
			c1.975-2.468-0.099-4.937-2.567-3.258c-2.567,1.58-7.899,5.727-7.899,5.727l-19.253-17.772L190.746,502.59z"/>
		<path fill="none" stroke="#E2131B" stroke-width="1.88" stroke-linecap="round" d="M143.253,322.795
			c0,0-13.526-11.749-26.164-15.304s-39.691-14.316-42.653-32.385c-3.851-23.895,27.349-22.314,27.349-22.314"/>
		<path fill="none" stroke="#E2131B" stroke-width="1.88" stroke-linecap="round" d="M151.942,310.058
			c0,0-16.686-20.932-24.092-30.312c-6.417-7.997-15.797-31.396-0.987-37.815c28.042-12.045,41.962,14.613,41.962,14.613"/>
		<path fill="#030304" d="M131.406,240.154c0.396,5.923,5.431,10.465,11.454,10.169c5.43-0.296,9.873-4.64,10.169-10.169
			c-0.395-5.925-5.43-10.466-11.452-10.169C136.145,230.28,131.702,234.625,131.406,240.154z"/>
		<path fill="#030304" d="M63.18,268.788c0,5.726,4.542,10.367,10.268,10.367c5.727,0,10.367-4.542,10.367-10.269
			c0-5.727-4.542-10.367-10.269-10.367h-0.099C67.82,258.519,63.18,263.06,63.18,268.788L63.18,268.788z"/>
		<path fill="#E2131B" d="M196.077,401.389c12.835-5.629,22.61-10.073,36.334-11.651c7.208-0.79,10.071,0.098,9.281-7.701
			c-0.296-4.543-2.962-13.231-7.306-7.011c-1.087,1.579,2.27,4.739,0.493,6.813c-1.481,1.875-18.76,4.541-23.993,6.615
			c-4.344,1.679-13.921,5.332-17.476,8.294C189.363,400.104,188.178,404.941,196.077,401.389z"/>
		<path fill="#E2131B" d="M149.178,452.433c1.283,9.775,8.491,21.427,19.647,27.449c5.332,2.862,11.454,0.69,10.861,9.282
			c-0.592,8.786-2.666,9.577-4.443,9.675c-2.961,0.098-1.875-3.653-1.284-11.552c-5.923-2.074-11.354-5.134-16.192-9.084
			c-12.736-10.071-18.364-31.101-14.217-34.459C148.388,439.894,148.487,447.003,149.178,452.433z"/>
		<path fill="#AA551A" d="M241.791,408.497c-6.516-5.728-19.648-11.355-30.41-1.679c-5.135,4.641-6.418,11.551-9.972,14.909
			c-6.418,5.924-10.663,1.185-23.104,8.491c-13.724,8.194-30.312,26.854-4.542,51.145c19.647,18.562,44.134,16.29,52.625-1.481
			c8.492-17.771,1.778-22.117,7.899-29.027c3.653-4.147,11.157-4.839,15.698-16.49C253.935,424.394,248.011,414.025,241.791,408.497
			z"/>
		<path fill="#F3920D" d="M235.176,402.672c-6.516-5.728-19.648-11.356-30.411-1.679c-5.134,4.641-6.417,11.551-9.972,14.909
			c-6.418,5.924-10.762,1.184-23.104,8.491c-13.724,8.194-30.311,26.856-4.542,51.145c19.55,18.562,44.135,16.29,52.625-1.384
			c8.492-17.673,1.778-22.116,7.899-29.027c3.653-4.146,11.157-4.838,15.6-16.489C247.32,418.47,241.297,408.102,235.176,402.672z"
			/>
		<path fill="#AA551A" d="M188.475,436.932c0,7.603,6.615,13.823,14.711,13.823c8.097,0,14.712-6.221,14.712-13.823
			c0-7.602-6.615-13.921-14.712-13.921C195.09,423.011,188.475,429.33,188.475,436.932z"/>
		<path fill="#030304" d="M192.029,436.932c-0.395,6.122,4.345,11.454,10.466,11.848c6.122,0.396,11.453-4.343,11.848-10.465
			c0.395-6.121-4.344-11.453-10.466-11.849c-0.198,0-0.494,0-0.691,0C197.262,426.268,192.227,430.909,192.029,436.932z"/>
		<path fill="#030304" d="M264.5,355.871c0.593-0.593,0.099-1.976,0.692-2.567c7.404-8.491,12.539-14.416,13.131-14.909
			c2.863,0.493,5.727,0.493,8.49,0l0.89,0.79c-0.099,2.961,0.789,7.011,1.975,8.492c-0.593,0.69-6.122,7.206-13.922,16.389
			c-0.593,0.79-2.172,0.396-2.765,1.283c-23.104,26.955-63.19,73.656-63.19,73.656l-9.28-8.786
			C200.521,430.415,241.692,382.233,264.5,355.871z M274.374,357.45l0.987,0.79c0.197,0.1,0.395,0.1,0.494-0.098l9.577-11.651
			c0.099-0.098,0.099-0.296,0-0.493l0,0l-1.086-0.79c-0.198-0.098-0.395-0.098-0.494,0.098l-9.577,11.651
			C274.176,357.154,274.176,357.353,274.374,357.45L274.374,357.45z M270.326,354.489l0.987,0.789c0.197,0.1,0.395,0.1,0.494-0.098
			l9.577-11.651c0.099-0.099,0.099-0.296,0-0.494l0,0l-0.987-0.789c-0.197-0.101-0.395-0.101-0.494,0.098l-9.577,11.651
			C270.227,354.094,270.227,354.29,270.326,354.489z"/>
		<path fill="#DCD9CD" d="M290.566,355.971c0,0-1.975-0.593-1.481-1.283c0.494-0.692,1.283-1.877,1.283-1.877l-3.652-2.864
			l0.493-0.591l3.751,2.763c0,0,0.791-1.381,1.285-1.578c0.394-0.101,2.369,1.283,1.974,1.974
			C293.726,353.304,291.652,355.971,290.566,355.971z"/>
		<path fill="#DCD9CD" d="M285.925,360.709c-0.691-0.198-1.382-0.987-1.086-1.481c0.296-0.494,0.691-0.888,1.086-1.283l-3.258-3.061
			l0.395-0.594l3.555,2.667c0,0,0.888-1.679,1.677-1.579c0.791,0.197,1.778,0.987,1.383,1.776
			C289.184,358.042,286.913,361.006,285.925,360.709z"/>
		<path fill="#DCD9CD" d="M281.976,366.336c-0.691,0-1.876-0.987-1.58-1.48c0.395-0.592,0.79-1.086,1.283-1.579l-3.258-2.962
			l0.593-0.791l3.356,2.567c0,0,0.888-1.776,1.679-1.48c0.79,0.296,1.678,1.085,1.283,1.876
			C284.938,363.276,282.766,366.336,281.976,366.336z"/>
		<path fill="#DCD9CD" d="M264.895,344.912c0,0,1.975,0.591,1.481,1.283c-0.494,0.691-1.283,1.877-1.283,1.877l3.653,2.861
			l-0.494,0.594l-3.752-2.766c0,0-0.79,1.383-1.284,1.58c-0.395,0.098-2.369-1.283-1.975-1.975
			C261.735,347.677,263.809,345.01,264.895,344.912z"/>
		<path fill="#DCD9CD" d="M269.535,340.271c0.692,0.197,1.382,0.986,1.087,1.48c-0.296,0.494-0.692,0.888-1.087,1.283l3.259,2.963
			l-0.396,0.592l-3.554-2.665c0,0-0.888,1.679-1.678,1.578c-0.691-0.197-1.778-0.986-1.383-1.776
			C266.277,342.937,268.548,339.876,269.535,340.271z"/>
		<path fill="#DCD9CD" d="M273.484,334.643c0.692,0,1.876,0.988,1.58,1.481c-0.395,0.592-0.79,1.085-1.185,1.58l3.258,2.962
			l-0.593,0.79l-3.356-2.568c0,0-0.888,1.778-1.679,1.481c-0.79-0.296-1.679-1.085-1.283-1.877
			C270.721,337.803,272.695,334.643,273.484,334.643z"/>
		<path fill="none" stroke="#DCD9CD" stroke-width="0.27" d="M277.336,357.648c0,0-36.236,41.765-52.724,60.919
			c-16.489,19.154-40.778,47.394-40.778,47.394"/>
		<path fill="none" stroke="#DCD9CD" stroke-width="0.27" d="M280.593,351.329c0,0-40.185,45.419-56.673,64.671l-40.679,47.394"/>
		<path fill="none" stroke="#DCD9CD" stroke-width="0.27" d="M276.25,348.17c0,0-40.186,45.418-56.675,64.77
			c-16.488,19.254-40.678,47.294-40.678,47.294"/>
		<path fill="none" stroke="#DCD9CD" stroke-width="0.27" d="M283.457,345.01c0,0-45.319,51.738-61.808,70.99
			c-16.488,19.254-40.678,47.394-40.678,47.394"/>
		<path fill="none" stroke="#DCD9CD" stroke-width="0.27" d="M281.778,343.925c0,0-44.529,51.342-61.018,70.594
			c-16.489,19.253-41.962,47.196-41.962,47.196"/>
		<path fill="none" stroke="#DCD9CD" stroke-width="0.27" d="M270.523,352.118c0,0-36.235,41.766-52.724,61.02
			C201.31,432.39,177.12,458.95,177.12,458.95"/>
		<path fill="#030304" d="M172.479,456.383l0.296-0.395c0.889-1.087,2.468-1.283,3.555-0.396c0.099,0,0.099,0.099,0.196,0.099
			l9.874,8.985c1.086,0.986,1.185,2.765,0.296,3.851l-0.296,0.396L172.479,456.383z"/>
		<path fill="#E2131B" d="M162.31,404.351c0.297,10.366,9.182,23.203,26.461,24.781c6.319,0.296,13.921,0.789,13.33,9.577
			c-0.592,9.083-2.863,9.577-4.739,9.577c-3.16,0-2.666-3.85-2.073-12.046c-6.122-2.071-14.12-1.876-20.834-4.738
			c-15.698-6.518-23.598-32.287-17.871-36.335C161.717,391.514,162.112,398.722,162.31,404.351z"/>
	</g>
</g>
<g id="Layer_2_00000028289030347217766340000012031964343186619021_">
	<g id="Layer_1-2_00000034088998590554678800000013528451129460778394_">
		<path fill="#FFDE11" d="M322.853,74.872c0,36.828,29.62,66.646,66.251,66.646c36.63,0,66.251-29.818,66.251-66.646
			c0-36.828-29.72-66.646-66.251-66.646C352.571,8.226,322.853,38.044,322.853,74.872z"/>
	</g>
</g>
<g id="Layer_2_00000138566945838864960930000009467047025808804007_">
	<g id="Layer_1-2_00000168818770732222906070000002798772775963393709_">
		<path fill="#DBD0BF" d="M328.48,171.435c-0.099-5.431-2.074-50.848-35.644-65.066c-33.57-14.218-62.104,19.352-62.104,19.352
			s-4.048-62.598-44.727-55.193c-40.679,7.405-39.691,43.048-39.691,43.048s-13.329-21.524-35.643-14.218
			c-24.684,8.097-20.339,30.805-20.339,30.805s-13.625-16.587-33.866-4.442c-20.241,12.144-31.201,33.569-26.165,56.871
			c5.035,23.301,25.177,53.81,148.99,42.653C303.106,214.088,329.072,210.04,328.48,171.435z"/>
	</g>
</g>
<g id="Layer_2_00000040548942392511362990000001429898183582056374_">
	<g id="Layer_1-2_00000008855595808439794470000011634709504437966472_">
		<path fill="#EAE7E2" d="M613.628,184.467c0,0,83.232,5.431,83.232-34.656c0-40.086-18.366-69.904-51.934-67.436
			c-33.571,2.468-42.163,14.416-42.163,14.416s10.763-34.656-21.622-41.074c-32.384-6.516-34.558,26.757-34.558,26.757
			s-21.623-28.929-46.503-9.479c-24.883,19.451-28.139,46.8-28.139,46.8s-25.968-33.273-49.763,0s-16.193,67.93,17.277,70.102
			C472.93,192.071,613.628,184.467,613.628,184.467z"/>
		<path fill="#CAC2B8" d="M809.613,117.229c-0.098-5.825-2.171-53.909-37.813-69.016c-35.644-15.105-65.956,20.438-65.956,20.438
			S701.5,2.204,658.255,10.102c-43.247,7.899-42.061,45.615-42.061,45.615s-14.218-22.906-37.817-15.106
			c-26.164,8.59-21.622,32.681-21.622,32.681s-14.513-17.575-36.037-4.641c-21.523,12.935-33.176,35.545-27.745,60.327
			s26.855,57.167,158.271,45.319C782.66,162.449,810.206,158.105,809.613,117.229z"/>
	</g>
</g>
</svg>
