<?xml version="1.0" encoding="utf-8"?>
<!-- Generator: Adobe Illustrator 26.5.0, SVG Export Plug-In . SVG Version: 6.00 Build 0)  -->
<svg version="1.1" id="Capa_1" xmlns="http://www.w3.org/2000/svg" xmlns:xlink="http://www.w3.org/1999/xlink" x="0px" y="0px"
	 viewBox="0 0 841.9 595.3" style="enable-background:new 0 0 841.9 595.3;" xml:space="preserve">
<style type="text/css">
	.st0{fill-rule:evenodd;clip-rule:evenodd;fill:#31AD68;}
	.st1{fill-rule:evenodd;clip-rule:evenodd;fill:#1C8B50;}
	.st2{fill-rule:evenodd;clip-rule:evenodd;fill:#FFDE0D;}
	.st3{fill:#FFDE0D;}
	.st4{fill:#F39208;}
	.st5{fill-rule:evenodd;clip-rule:evenodd;fill:#F39208;}
	.st6{fill:#9E978E;}
	.st7{fill:#DBD9CD;}
	.st8{fill:#ACA89D;}
	.st9{fill:#C5C0B4;}
	.st10{fill:#31AD68;}
	.st11{fill:#A95419;}
	.st12{fill-rule:evenodd;clip-rule:evenodd;fill:#814215;}
	.st13{fill:#814215;}
	.st14{fill:#6C6954;fill-opacity:0.42;}
	.st15{fill:#E20E18;}
	.st16{fill:#020203;}
	.st17{fill:#FFFFFF;}
	.st18{fill:none;stroke:#E20E18;stroke-width:1.88;stroke-linecap:round;}
	.st19{fill:none;stroke:#DBD9CD;stroke-width:0.27;}
	.st20{fill-rule:evenodd;clip-rule:evenodd;fill:#DBD0BF;}
	.st21{fill-rule:evenodd;clip-rule:evenodd;fill:#EAE7E1;}
	.st22{fill-rule:evenodd;clip-rule:evenodd;fill:#C9C2B8;}
</style>
<g>
	<path class="st0" d="M283.7,491.4c0,0,283.9-25.3,418.8-29.1c117.1-3.2,137.7,132.9,137.7,132.9h-83.7l-487.1-40.3L283.7,491.4z"/>
	<path class="st1" d="M726.6,543.7c0,0-110.9-39.4-245.7-44.2s-194.3,7.2-194.3,7.2v89.5h537C819.7,553.9,804.6,572.6,726.6,543.7z"
		/>
	<g>
		<path class="st2" d="M461.2,446.9c0.1,0.1,0.7,2.7-0.4,5c-0.7,1.6-2.1,2.8-3.7,3.4c-0.5-1.6-0.4-3.4,0.4-5
			C458.6,448,461.1,446.8,461.2,446.9z"/>
		<path class="st2" d="M450.9,447.7c-0.1,0.1-0.4,2.8,1.1,4.9c1,1.4,2.5,2.5,4.2,2.8c0.2-1.7-0.1-3.4-1.1-4.9
			C454.1,449.1,452.6,448,450.9,447.7z"/>
		<path class="st2" d="M455.5,440.3c0.1,0,2,1.9,2.2,4.6c0.1,1.7-0.4,3.4-1.5,4.8c-1.3-1.2-2-2.8-2.2-4.6
			C453.8,442.6,455.3,440.4,455.5,440.3z"/>
		<path class="st2" d="M461.7,452.8c0.1,0.1,0.7,2.7-0.4,5c-0.7,1.6-2.1,2.8-3.7,3.4c-0.5-1.6-0.4-3.4,0.4-5
			C459.1,453.9,461.5,452.7,461.7,452.8z"/>
		<path class="st2" d="M451.4,453.6c-0.1,0.1-0.4,2.8,1.1,4.9c1,1.4,2.5,2.5,4.2,2.8c0.2-1.7-0.1-3.4-1.1-4.9
			C454.1,454.3,451.5,453.5,451.4,453.6z"/>
		<path class="st2" d="M462.1,458.8c0.1,0.1,0.7,2.7-0.4,5c-0.7,1.6-2.1,2.8-3.7,3.4c-0.5-1.6-0.4-3.4,0.4-5
			C459.5,459.8,462,458.7,462.1,458.8z"/>
		<path class="st2" d="M451.8,459.5c-0.1,0.1-0.4,2.8,1.1,4.9c1,1.4,2.5,2.4,4.2,2.8c0.2-1.7-0.1-3.4-1.1-4.9
			C454.6,460.2,452,459.5,451.8,459.5z"/>
		<path class="st3" d="M458.1,435.3h-0.4l0.6,8.4h0.4L458.1,435.3z"/>
		<path class="st3" d="M459.6,437h-0.4l0.7,8.4l0.4-0.1L459.6,437z"/>
		<path class="st3" d="M461,438.8h-0.4l0.6,7.5l0.4-0.1L461,438.8z"/>
		<path class="st3" d="M453.1,444.1l-0.6-8.4h0.4l0.6,8.4H453.1z"/>
		<path class="st3" d="M451.8,437.6h-0.4l0.7,8.4h0.4L451.8,437.6z"/>
		<path class="st3" d="M450.8,447.1l-0.6-7.5l0.4-0.1l0.6,7.5H450.8z"/>
		<path class="st3" d="M456.7,433.5l-0.4,0.1l0.5,7.1h0.4L456.7,433.5z"/>
		<path class="st3" d="M454.1,433.6h-0.4l0.5,7.1l0.4-0.1L454.1,433.6z"/>
		<path class="st3" d="M455.2,431.7h-0.4l0.5,7.1h0.4L455.2,431.7z"/>
		<path class="st4" d="M457.9,468.2h-0.6l1.6,20.8l0.6-0.1L457.9,468.2z"/>
		<path class="st5" d="M458.5,479c-0.2-0.7,1.8-8.2,3.9-9.6C461.7,474.4,460.1,477.3,458.5,479z"/>
		<path class="st5" d="M458.7,481.9c0.1-0.7-3.1-7.8-5.3-8.9C454.8,477.8,456.8,480.4,458.7,481.9z"/>
		<path class="st5" d="M459.1,466.8c0,0.1,0.1,0.1,0.1,0.3c0.1,0.8-0.6,1.6-1.4,1.6c-0.8,0.1-1.6-0.5-1.6-1.3l0,0c0-0.1,0-0.1,0-0.3
			L459.1,466.8z"/>
		<path class="st2" d="M444.4,448.2c0.1,0.1,0.7,2.7-0.4,5c-0.7,1.6-2.1,2.8-3.7,3.4c-0.5-1.6-0.4-3.4,0.4-5
			C441.9,449.3,444.3,448.1,444.4,448.2z"/>
		<path class="st2" d="M434.1,448.9c-0.1,0.1-0.4,2.8,1.1,4.9c1,1.4,2.5,2.5,4.2,2.8c0.2-1.7-0.1-3.4-1.1-4.9
			C436.9,449.7,434.3,448.9,434.1,448.9z"/>
		<path class="st2" d="M438.7,441.7c0.1,0,2,1.9,2.2,4.6c0.1,1.7-0.4,3.4-1.5,4.8c-1.3-1.2-2-2.8-2.2-4.6
			C437.1,443.9,438.6,441.7,438.7,441.7z"/>
		<path class="st2" d="M444.9,454.1c0.1,0.1,0.7,2.7-0.4,5c-0.7,1.6-2.1,2.8-3.7,3.4c-0.5-1.6-0.4-3.4,0.4-5
			C442.3,455.2,444.6,454,444.9,454.1z"/>
		<path class="st2" d="M434.6,454.9c-0.1,0.1-0.4,2.8,1.1,4.9c1,1.4,2.5,2.5,4.2,2.8c0.2-1.7-0.1-3.4-1.1-4.9
			C437.3,455.6,434.8,454.8,434.6,454.9z"/>
		<path class="st2" d="M445.3,460.1c0.1,0.1,0.7,2.7-0.4,5c-0.7,1.6-2.1,2.8-3.7,3.4c-0.5-1.6-0.4-3.4,0.4-5
			C442.3,461.9,443.7,460.7,445.3,460.1z"/>
		<path class="st2" d="M435,460.8c-0.1,0.1-0.4,2.8,1.1,4.9c1,1.4,2.5,2.4,4.2,2.8c0.2-1.7-0.1-3.4-1.1-4.9
			C437.8,461.6,435.2,460.7,435,460.8z"/>
		<path class="st3" d="M441.4,436.5h-0.4l0.7,8.4h0.4L441.4,436.5z"/>
		<path class="st3" d="M442.8,438.3h-0.4l0.7,8.4h0.4L442.8,438.3z"/>
		<path class="st3" d="M444.2,440h-0.4l0.6,7.5h0.4L444.2,440z"/>
		<path class="st3" d="M436.1,436.9h-0.4l0.7,8.4h0.4L436.1,436.9z"/>
		<path class="st3" d="M435,438.9h-0.4l0.7,8.5h0.4L435,438.9z"/>
		<path class="st3" d="M433.9,440.9h-0.4l0.6,7.5h0.4L433.9,440.9z"/>
		<path class="st3" d="M439.9,434.7h-0.4l0.5,7.1h0.4L439.9,434.7z"/>
		<path class="st3" d="M437.2,435h-0.4l0.5,7.1h0.4L437.2,435z"/>
		<path class="st3" d="M438.6,440.1l-0.5-7.1h0.4l0.5,7.1H438.6z"/>
		<path class="st4" d="M441.1,469.5l-0.6,0.1l1.6,20.8l0.6-0.1L441.1,469.5z"/>
		<path class="st5" d="M441.7,480.3c-0.2-0.7,1.8-8.2,3.9-9.6C444.9,475.7,443.3,478.6,441.7,480.3z"/>
		<path class="st5" d="M441.9,483.1c0.1-0.7-3.1-7.8-5.3-8.9C438,479,440,481.7,441.9,483.1z"/>
		<path class="st5" d="M442.3,468.1c0,0.1,0,0.1,0,0.3c0.1,0.8-0.5,1.6-1.3,1.6l0,0c-0.8,0.1-1.6-0.5-1.6-1.3c0,0,0,0,0-0.1
			s0-0.1,0-0.3L442.3,468.1z"/>
		<path class="st2" d="M427.6,449.5c0.1,0.1,0.7,2.7-0.4,5c-0.7,1.6-2.1,2.8-3.7,3.4c-0.5-1.6-0.4-3.4,0.4-5
			C425.1,450.6,427.5,449.4,427.6,449.5z"/>
		<path class="st2" d="M417.4,450.3c-0.1,0.1-0.4,2.8,1.1,4.9c1,1.4,2.5,2.5,4.2,2.8c0.2-1.7-0.1-3.4-1.1-4.9
			C420,451,417.5,450.1,417.4,450.3z"/>
		<path class="st2" d="M421.9,442.9c0.1,0,2,1.9,2.2,4.6c0.1,1.7-0.4,3.4-1.5,4.9c-1.3-1.2-2-2.8-2.2-4.6
			C420.4,445.9,420.9,444.2,421.9,442.9z"/>
		<path class="st2" d="M428.1,455.4c0.1,0.1,0.7,2.7-0.4,5c-0.7,1.6-2.1,2.8-3.7,3.4c-0.5-1.6-0.4-3.4,0.4-5
			C425.5,456.5,427.9,455.3,428.1,455.4z"/>
		<path class="st2" d="M417.7,456.2c-0.1,0.1-0.4,2.8,1.1,4.9c1,1.4,2.5,2.5,4.2,2.8c0.2-1.7-0.1-3.4-1.1-4.9
			C420.5,456.9,418,456,417.7,456.2z"/>
		<path class="st2" d="M428.5,461.3c0.1,0.1,0.7,2.7-0.4,5c-0.7,1.6-2.1,2.8-3.7,3.4c-0.5-1.6-0.4-3.4,0.4-5
			C426,462.5,428.4,461.3,428.5,461.3z"/>
		<path class="st2" d="M418.3,462.1c-0.1,0.1-0.4,2.8,1.1,4.9c1,1.4,2.5,2.5,4.2,2.8c0.2-1.7-0.1-3.4-1.1-4.9
			C421,462.8,418.4,462,418.3,462.1z"/>
		<path class="st3" d="M424.5,437.8h-0.4l0.7,8.4l0.4-0.1L424.5,437.8z"/>
		<path class="st3" d="M426,439.5h-0.4l0.7,8.4h0.4L426,439.5z"/>
		<path class="st3" d="M427.4,441.3h-0.4l0.6,7.5h0.4L427.4,441.3z"/>
		<path class="st3" d="M419.3,438.2h-0.4l0.7,8.4h0.5L419.3,438.2z"/>
		<path class="st3" d="M418.2,440.1h-0.4l0.7,8.4l0.4-0.1L418.2,440.1z"/>
		<path class="st3" d="M417.2,449.7l-0.6-7.5h0.4l0.6,7.5L417.2,449.7z"/>
		<path class="st3" d="M423.1,436h-0.4l0.5,7.1h0.4L423.1,436z"/>
		<path class="st3" d="M420.5,436.2H420l0.5,7.1l0.4-0.1L420.5,436.2z"/>
		<path class="st3" d="M421.8,441.4l-0.5-7.1h0.4l0.5,7.1H421.8z"/>
		<path class="st4" d="M424.3,470.7l-0.6,0.1l1.6,20.8l0.6-0.1L424.3,470.7z"/>
		<path class="st5" d="M424.9,481.6c-0.2-0.7,1.8-8.2,4-9.6C428.1,476.9,426.5,479.9,424.9,481.6z"/>
		<path class="st5" d="M425.1,484.4c0.1-0.7-3.1-7.8-5.3-8.9C421.2,480.3,423.3,483,425.1,484.4z"/>
		<path class="st5" d="M425.4,469.3c0,0.1,0,0.1,0,0.3c0.1,0.8-0.6,1.6-1.4,1.6c-0.8,0.1-1.6-0.6-1.6-1.4l0,0c0-0.1,0-0.1,0-0.3
			L425.4,469.3z"/>
		<path class="st2" d="M410.8,450.7c0.1,0.1,0.7,2.7-0.4,5c-0.7,1.6-2.1,2.8-3.7,3.4c-0.5-1.6-0.4-3.4,0.4-5
			C408.3,451.8,410.7,450.7,410.8,450.7z"/>
		<path class="st2" d="M400.6,451.6c-0.1,0.1-0.4,2.8,1.1,4.9c1,1.4,2.5,2.5,4.2,2.8c0.2-1.7-0.1-3.4-1.1-4.9
			C403.3,452.2,400.7,451.4,400.6,451.6z"/>
		<path class="st2" d="M405.1,444.2c0.1,0,2,1.9,2.2,4.6c0.1,1.7-0.4,3.4-1.5,4.8c-1.3-1.2-2-2.8-2.2-4.6
			C403.5,446.5,405,444.2,405.1,444.2z"/>
		<path class="st2" d="M411.2,456.7c0.1,0.1,0.7,2.7-0.4,5c-0.7,1.6-2.1,2.8-3.7,3.4c-0.5-1.6-0.4-3.4,0.4-5
			C408.7,457.8,411.1,456.6,411.2,456.7z"/>
		<path class="st2" d="M401,457.5c-0.1,0.1-0.4,2.8,1.1,4.9c1,1.4,2.5,2.4,4.2,2.8c0.2-1.7-0.1-3.4-1.1-4.9
			C403.7,458.1,401.2,457.4,401,457.5z"/>
		<path class="st2" d="M411.7,462.6c0.1,0.1,0.7,2.7-0.4,5c-0.7,1.6-2.1,2.8-3.7,3.4c-0.4-1.6-0.4-3.4,0.4-5
			C409.2,463.7,411.5,462.5,411.7,462.6z"/>
		<path class="st2" d="M401.5,463.4c-0.1,0.1-0.4,2.8,1.1,4.9c1,1.4,2.5,2.4,4.2,2.8c0.2-1.7-0.1-3.4-1.1-4.9
			C404.2,464.1,401.6,463.3,401.5,463.4z"/>
		<path class="st3" d="M407.7,439.1h-0.4l0.7,8.4h0.4L407.7,439.1z"/>
		<path class="st3" d="M409.2,440.8h-0.4l0.7,8.4h0.4L409.2,440.8z"/>
		<path class="st3" d="M410.6,442.6l-0.4,0.1l0.6,7.5h0.4L410.6,442.6z"/>
		<path class="st3" d="M402.7,448l-0.6-8.4h0.4l0.7,8.4H402.7z"/>
		<path class="st3" d="M401.4,441.4h-0.4l0.7,8.4h0.4L401.4,441.4z"/>
		<path class="st3" d="M400.3,443.4h-0.4l0.6,7.5h0.4L400.3,443.4z"/>
		<path class="st3" d="M406.3,444.4l-0.5-7.1h0.4l0.5,7.1H406.3z"/>
		<path class="st3" d="M403.7,437.5h-0.4l0.5,7.1l0.4-0.1L403.7,437.5z"/>
		<path class="st3" d="M404.8,435.5h-0.4l0.5,7.1h0.4L404.8,435.5z"/>
		<path class="st4" d="M407.6,472l-0.6,0.1l1.6,20.8l0.6-0.1L407.6,472z"/>
		<path class="st5" d="M408.1,482.9c-0.2-0.7,1.8-8.2,3.9-9.6C411.3,478.2,409.7,481.1,408.1,482.9z"/>
		<path class="st5" d="M408.3,485.7c0.1-0.7-3.1-7.8-5.3-8.9C404.4,481.6,406.5,484.3,408.3,485.7z"/>
		<path class="st5" d="M408.6,470.7c0,0.1,0.1,0.1,0.1,0.3c0.1,0.8-0.6,1.6-1.4,1.6c-0.8,0.1-1.6-0.6-1.6-1.4c0-0.1,0-0.1,0-0.3
			L408.6,470.7z"/>
		<path class="st2" d="M394,452c0.1,0.1,0.7,2.7-0.4,5c-0.7,1.6-2.1,2.8-3.7,3.4c-0.5-1.6-0.4-3.4,0.4-5
			C391.5,453.1,393.8,451.9,394,452z"/>
		<path class="st2" d="M383.8,452.8c-0.1,0.1-0.4,2.8,1.1,4.9c1,1.4,2.5,2.5,4.2,2.8c0.2-1.7-0.1-3.4-1.1-4.9
			C386.4,453.5,383.9,452.7,383.8,452.8z"/>
		<path class="st2" d="M388.3,445.5c0.2,0,2,1.9,2.2,4.6c0.1,1.7-0.4,3.4-1.5,4.9c-1.3-1.2-2-2.8-2.2-4.6
			C386.7,447.7,388.2,445.5,388.3,445.5z"/>
		<path class="st2" d="M394.4,458c0.1,0.1,0.7,2.7-0.4,5c-0.7,1.6-2.1,2.8-3.7,3.4c-0.5-1.6-0.4-3.4,0.4-5
			C391.9,459,394.3,457.8,394.4,458z"/>
		<path class="st2" d="M384.2,458.7c-0.1,0.1-0.4,2.8,1.1,4.9c1,1.4,2.5,2.4,4.2,2.8c0.2-1.7-0.1-3.4-1.1-4.9
			C386.9,459.4,384.4,458.6,384.2,458.7z"/>
		<path class="st2" d="M394.9,463.9c0.1,0.1,0.7,2.7-0.4,5c-0.7,1.6-2.1,2.8-3.7,3.4c-0.5-1.6-0.4-3.4,0.4-5
			C392.3,465,394.7,463.8,394.9,463.9z"/>
		<path class="st2" d="M384.7,464.6c-0.1,0.1-0.4,2.8,1.1,4.9c1,1.4,2.5,2.4,4.2,2.8c0.2-1.7-0.1-3.4-1.1-4.9
			C387.3,465.4,384.8,464.5,384.7,464.6z"/>
		<path class="st3" d="M390.9,440.3h-0.4l0.7,8.4h0.4L390.9,440.3z"/>
		<path class="st3" d="M392.6,450.6l-0.7-8.4h0.4l0.7,8.4H392.6z"/>
		<path class="st3" d="M393.8,443.9h-0.4l0.5,7.5l0.4-0.1L393.8,443.9z"/>
		<path class="st3" d="M385.8,440.7l-0.4,0.1l0.7,8.4l0.4-0.1L385.8,440.7z"/>
		<path class="st3" d="M384.8,451.2l-0.6-8.4l0.4-0.1l0.6,8.4L384.8,451.2z"/>
		<path class="st3" d="M383.5,444.7H383l0.6,7.5l0.4-0.1L383.5,444.7z"/>
		<path class="st3" d="M389.4,438.6H389l0.5,7.1h0.4L389.4,438.6z"/>
		<path class="st3" d="M387,445.9l-0.5-7.1h0.4l0.5,7.1H387z"/>
		<path class="st3" d="M388,436.8h-0.4l0.5,7.1h0.4L388,436.8z"/>
		<path class="st4" d="M391.8,494.1l-1.6-20.8l0.6-0.1l1.6,20.8L391.8,494.1z"/>
		<path class="st5" d="M391.3,484.1c-0.2-0.7,1.8-8.2,3.9-9.6C394.5,479.5,392.9,482.4,391.3,484.1z"/>
		<path class="st5" d="M391.5,487c0.1-0.7-3.1-7.8-5.3-8.9C387.6,482.9,389.7,485.5,391.5,487z"/>
		<path class="st5" d="M391.8,471.9c0,0.1,0.1,0.1,0.1,0.3c0.1,0.8-0.6,1.6-1.4,1.6c-0.8,0.1-1.6-0.6-1.6-1.4l0,0c0-0.1,0-0.1,0-0.3
			L391.8,471.9z"/>
		<path class="st2" d="M377.2,453.3c0.1,0.1,0.7,2.7-0.4,5c-0.7,1.6-2.1,2.8-3.7,3.4c-0.5-1.6-0.4-3.4,0.4-5
			C374.6,454.4,377,453.2,377.2,453.3z"/>
		<path class="st2" d="M367,454.1c-0.1,0.1-0.4,2.8,1.1,4.9c1,1.4,2.5,2.5,4.2,2.8c0.2-1.7-0.1-3.4-1.1-4.9
			C369.6,454.8,367.1,453.9,367,454.1z"/>
		<path class="st2" d="M371.6,446.8c0.1,0,2,1.9,2.2,4.6c0.1,1.7-0.4,3.4-1.5,4.8c-1.3-1.2-2-2.8-2.2-4.6
			C369.9,449,371.4,446.8,371.6,446.8z"/>
		<path class="st2" d="M377.6,459.2c0.1,0.1,0.7,2.7-0.4,5c-0.7,1.6-2.1,2.8-3.7,3.4c-0.5-1.6-0.4-3.4,0.4-5
			C375.1,460.3,377.5,459.2,377.6,459.2z"/>
		<path class="st2" d="M367.4,460c-0.1,0.1-0.4,2.8,1.1,4.9c1,1.4,2.5,2.5,4.2,2.8c0.2-1.7-0.1-3.4-1.1-4.9
			C370.1,460.7,367.5,459.9,367.4,460z"/>
		<path class="st2" d="M378.2,465.1c0.1,0.1,0.7,2.7-0.4,5c-0.7,1.6-2.1,2.8-3.7,3.4c-0.5-1.6-0.4-3.4,0.4-5
			C375.5,466.3,377.9,465.1,378.2,465.1z"/>
		<path class="st2" d="M367.8,465.9c-0.1,0.1-0.4,2.8,1.1,4.9c1,1.4,2.5,2.4,4.2,2.8c0.2-1.7-0.1-3.4-1.1-4.9
			C370.5,466.6,368,465.8,367.8,465.9z"/>
		<path class="st3" d="M374.1,441.6h-0.4l0.7,8.4h0.4L374.1,441.6z"/>
		<path class="st3" d="M375.8,451.8l-0.7-8.4h0.4l0.7,8.4H375.8z"/>
		<path class="st3" d="M377,445.1h-0.4l0.6,7.5h0.4L377,445.1z"/>
		<path class="st3" d="M369,442h-0.4l0.7,8.4h0.4L369,442z"/>
		<path class="st3" d="M367.8,444h-0.4l0.7,8.4h0.4L367.8,444z"/>
		<path class="st3" d="M366.8,453.5l-0.6-7.5l0.4-0.1l0.6,7.5H366.8z"/>
		<path class="st3" d="M372.7,439.8h-0.5l0.5,7.1h0.4L372.7,439.8z"/>
		<path class="st3" d="M370.1,440h-0.4l0.5,7.1h0.4L370.1,440z"/>
		<path class="st3" d="M371.4,445.2l-0.5-7.1l0.4-0.1l0.5,7.1L371.4,445.2z"/>
		<path class="st4" d="M374,474.6l-0.6,0.1l1.6,20.8l0.6-0.1L374,474.6z"/>
		<path class="st5" d="M374.5,485.5c-0.2-0.7,1.8-8.2,3.9-9.6C377.7,480.8,376.1,483.7,374.5,485.5z"/>
		<path class="st5" d="M374.7,488.3c0.1-0.7-3.1-7.8-5.3-8.9C370.8,484.1,372.9,486.8,374.7,488.3z"/>
		<path class="st5" d="M375.1,473.2c0,0.1,0,0.1,0,0.3c0.1,0.8-0.5,1.6-1.4,1.6c-0.8,0.1-1.6-0.5-1.6-1.4l0,0c0-0.1,0-0.1,0-0.3
			L375.1,473.2z"/>
		<path class="st2" d="M360.5,454.5c0.1,0.1,0.7,2.7-0.4,5c-0.7,1.6-2.1,2.8-3.7,3.4c-0.5-1.6-0.4-3.4,0.4-5
			C357.8,455.7,360.2,454.5,360.5,454.5z"/>
		<path class="st2" d="M350.1,455.4c-0.1,0.1-0.4,2.8,1.1,4.9c1,1.4,2.5,2.4,4.2,2.8c0.2-1.7-0.1-3.4-1.1-4.9
			C353.4,456.7,351.9,455.7,350.1,455.4z"/>
		<path class="st2" d="M354.8,448c0.1,0,2,1.9,2.2,4.6c0.1,1.7-0.4,3.4-1.5,4.8c-1.3-1.2-2-2.8-2.2-4.6
			C353.1,450.3,354.6,448,354.8,448z"/>
		<path class="st2" d="M360.9,460.5c0.1,0.1,0.7,2.7-0.4,5c-0.7,1.6-2.1,2.8-3.7,3.4c-0.5-1.6-0.4-3.4,0.4-5
			C358.3,461.6,360.7,460.4,360.9,460.5z"/>
		<path class="st2" d="M350.6,461.3c-0.1,0.1-0.4,2.8,1.1,4.9c1,1.4,2.5,2.5,4.2,2.8c0.2-1.7-0.1-3.4-1.1-4.9
			C353.3,461.9,350.7,461.2,350.6,461.3z"/>
		<path class="st2" d="M361.3,466.4c0.1,0.1,0.7,2.7-0.4,5c-0.7,1.6-2.1,2.8-3.7,3.4c-0.5-1.6-0.4-3.4,0.4-5
			C358.7,467.5,361.1,466.3,361.3,466.4z"/>
		<path class="st2" d="M351,467.2c-0.1,0.1-0.4,2.8,1.1,4.9c1,1.4,2.5,2.5,4.2,2.8c0.2-1.7-0.1-3.4-1.1-4.9
			C353.7,467.9,351.2,467.1,351,467.2z"/>
		<path class="st3" d="M357.5,451.3l-0.7-8.4h0.4l0.7,8.4H357.5z"/>
		<path class="st3" d="M359,453.1l-0.7-8.4h0.4l0.7,8.4H359z"/>
		<path class="st3" d="M360.2,453.9l-0.6-7.5h0.4l0.6,7.5H360.2z"/>
		<path class="st3" d="M352.3,451.8l-0.7-8.4h0.4l0.7,8.4H352.3z"/>
		<path class="st3" d="M351,445.2h-0.4l0.7,8.4l0.4-0.1L351,445.2z"/>
		<path class="st3" d="M349.8,447.2l-0.4,0.1l0.6,7.5h0.4L349.8,447.2z"/>
		<path class="st3" d="M355.9,441.1h-0.4l0.5,7.1l0.4-0.1L355.9,441.1z"/>
		<path class="st3" d="M353.3,441.3l-0.4,0.1l0.5,7.1h0.4L353.3,441.3z"/>
		<path class="st3" d="M354.6,446.5l-0.5-7.1h0.4l0.5,7.1H354.6z"/>
		<path class="st4" d="M358.1,496.7l-1.6-20.8h0.6l1.6,20.8H358.1z"/>
		<path class="st5" d="M357.7,486.7c-0.2-0.7,1.8-8.2,3.9-9.6C360.9,482,359.3,484.9,357.7,486.7z"/>
		<path class="st5" d="M357.9,489.6c0.1-0.7-3.1-7.8-5.3-8.9C354,485.4,356,488.1,357.9,489.6z"/>
		<path class="st5" d="M358.3,474.5c0,0.1,0,0.1,0,0.2c0.1,0.8-0.5,1.6-1.3,1.6c0,0,0,0-0.1,0c-0.8,0.1-1.6-0.6-1.6-1.4v-0.3
			L358.3,474.5z"/>
		<path class="st2" d="M343.6,455.8c0.1,0.1,0.7,2.7-0.4,5c-0.7,1.6-2.1,2.8-3.7,3.4c-0.5-1.6-0.4-3.4,0.4-5.1
			C341,456.9,343.4,455.7,343.6,455.8z"/>
		<path class="st2" d="M333.3,456.6c-0.1,0.1-0.4,2.8,1.1,4.9c1,1.4,2.5,2.5,4.2,2.8c0.2-1.7-0.1-3.4-1.1-4.9
			C336.1,457.3,333.5,456.5,333.3,456.6z"/>
		<path class="st2" d="M338,449.3c0.1,0,2,1.9,2.2,4.6c0.1,1.7-0.4,3.4-1.5,4.8c-1.3-1.2-2-2.8-2.2-4.6
			C336.2,451.6,337.7,449.3,338,449.3z"/>
		<path class="st2" d="M344.1,461.8c0.1,0.1,0.7,2.7-0.4,5c-0.7,1.6-2.1,2.8-3.7,3.4c-0.5-1.6-0.4-3.4,0.4-5
			C341.5,462.8,343.9,461.7,344.1,461.8z"/>
		<path class="st2" d="M333.8,462.5c-0.1,0.1-0.4,2.8,1.1,4.9c1,1.4,2.5,2.5,4.2,2.8c0.2-1.7-0.1-3.4-1.1-4.9
			C336.5,463.2,333.9,462.5,333.8,462.5z"/>
		<path class="st2" d="M344.5,467.7c0.1,0.1,0.7,2.7-0.4,5c-0.7,1.6-2.1,2.8-3.7,3.4c-0.5-1.6-0.4-3.4,0.4-5
			C341.9,468.8,344.3,467.6,344.5,467.7z"/>
		<path class="st2" d="M334.2,468.5c-0.1,0.1-0.3,2.8,1.1,4.9c1,1.4,2.5,2.5,4.2,2.8c0.2-1.7-0.1-3.4-1.1-4.9
			C337.4,469.9,336,468.9,334.2,468.5z"/>
		<path class="st3" d="M340.6,444.2h-0.5l0.7,8.4h0.4L340.6,444.2z"/>
		<path class="st3" d="M342,445.9l-0.4,0.1l0.7,8.4h0.4L342,445.9z"/>
		<path class="st3" d="M343.5,455.2l-0.6-7.5l0.4-0.1l0.6,7.5H343.5z"/>
		<path class="st3" d="M335.4,444.5h-0.4l0.7,8.4h0.4L335.4,444.5z"/>
		<path class="st3" d="M334.2,446.5l-0.4,0.1l0.7,8.4l0.4-0.1L334.2,446.5z"/>
		<path class="st3" d="M333.2,456l-0.6-7.5h0.4l0.6,7.5H333.2z"/>
		<path class="st3" d="M339.2,449.5l-0.6-7.1l0.4-0.1l0.5,7.1L339.2,449.5z"/>
		<path class="st3" d="M336.5,449.7l-0.5-7.1h0.4l0.5,7.1H336.5z"/>
		<path class="st3" d="M337.6,440.6h-0.4l0.5,7.1h0.4L337.6,440.6z"/>
		<path class="st4" d="M340.4,477.1l-0.6,0.1l1.6,20.8l0.6-0.1L340.4,477.1z"/>
		<path class="st5" d="M340.9,488c-0.2-0.7,1.8-8.2,3.9-9.6C344.1,483.3,342.5,486.2,340.9,488z"/>
		<path class="st5" d="M341.1,490.8c0.1-0.7-3.1-7.8-5.3-8.9C337.2,486.7,339.2,489.3,341.1,490.8z"/>
		<path class="st5" d="M341.5,475.8c0,0.1,0,0.1,0.1,0.3c0.1,0.8-0.6,1.6-1.4,1.6c-0.8,0.1-1.6-0.6-1.6-1.4c0-0.1,0-0.1,0-0.3
			L341.5,475.8z"/>
	</g>
	<g id="Layer_2_00000011724372785370826290000008534721217664910267_">
		<g id="Layer_1-2_00000154420224873122426960000003957512691756046211_">
			<path class="st6" d="M339,596.8c-7.5-73.3-37.3-235.2-182.9-202.9C25.8,422.8,0.3,508.4,0.3,585c0,4,0.2,7.8,0.6,11.7L339,596.8
				L339,596.8z"/>
			<path class="st7" d="M382.7,596.8c-6.9-66.3-39.7-145-158.4-136.2C138,467,67.5,516.8,67.5,586.2c0,3.6,0.2,7.1,0.6,10.6
				L382.7,596.8L382.7,596.8z"/>
			<path class="st8" d="M197,597.3c-2.4-25.5-13.5-56-53.8-52.5c-29.4,2.5-53.3,21.7-53.3,48.4c0,1.4,0.1,2.8,0.1,4.1L197,597.3
				L197,597.3z"/>
			<path class="st9" d="M161.8,597.3c3.4-31.9,19.1-69.8,76.2-65.6c41.6,3.1,75.5,27,75.5,60.4c0,1.7-0.1,3.4-0.3,5.2L161.8,597.3
				L161.8,597.3z"/>
		</g>
	</g>
	<g id="Layer_2_00000099625685034365378710000007200006357025793204_">
		<g id="Layer_1-2_00000047762980737767559340000000803372795650658456_">
			<path class="st1" d="M740.3,393.7c0,0,0.7-1.5,9,0c31,5.5,54.6-9,51.2-9.5c-18.5-2.8-33.3-6.9-31.1-8.2
				c2.2-1.3,31.3-3.9,25.8-4.6c-7.5-1-28.8-10.1-26.3-10.8c2.6-0.7,27.4-1.6,22.6-3.5c-17.7-6.9-24.7-14.1-22.5-13.4
				c2.2,0.7,20.1,2.8,16.8,0.5c-10.9-7.7-20.1-22.3-20.1-22.3s10.5,3.1,14.2,4c3.7,0.8,1.6-1.1-5.5-7.2
				c-6.7-5.8-12.5-14.2-12.5-14.2c2.5-0.1,5.2-0.1,7.8,0c5.6,0.2,5.1,1,0-4.9s-18.2-18.4-15.4-19.4c2.8-1,16.1,7.1,13.5,4.4
				c-7-7.5-24.1-38.1-24.8-36.1c-0.7,2-8.4,21.5-13.5,28.3c-5.2,6.8-15.5,12.6-10.5,12.3c4.9-0.4,13.7-4.6,13.7-4.6
				s-4.6,12.8-8,15.8c-3.4,3.1-7.2,6.5-2.3,6.1c4.9-0.4,13.7-4.4,11.4-1.3c-2.3,3.1-19.3,15.5-16.1,15.9c3.1,0.4,14.3-2.5,14.3-2.5
				s-9.9,13.8-12.9,15.9c-3.1,2-6.9,3.9-3.5,4.5c3.4,0.6,14-1.9,14-1.9s-8.1,13.8-19,20.2c-1.3,0.8,9.2,1,14.1,0
				c4.9-1,6.9-2.1,6.5,0c-0.4,2.1-18.8,10-26,14.4c-5,3.1,22.6-0.8,24.3,0c1.9,0.9-15.9,14-31.8,15.7c-4.7,0.4,8.3,4,17.9,6.1
				C724.9,395.7,740.3,393.7,740.3,393.7z"/>
			<path class="st10" d="M693.3,285.8c7.2-0.2,21.4,2.2,32.9,10.2c13.6,9.5,17.3,15.7,20.8,31.7c3.5,16-1.4,28.5-8.7,39.4
				c-7.3,10.9-12,22.2-45.3,27.6c-18.9,3.1-49.5-8.9-55.1-33.8s1-42.2,7.4-48.6C651.6,305.8,661.9,286.8,693.3,285.8z"/>
			<path class="st11" d="M734.1,333l-8.5,4.8c0,0-4.3,0.8-6.5,1.2c-2.1,0.4-7.2,1.4-7.2,1.4l-1.8-9.4h-2c0,0,1.2,9.6,0,10.3
				c-1,0.6-7.2,2.5-11.1,3.5c-0.9-8.7-1.9-18.4-1.9-19.5c0-1.1,3.1-3.1,5.5-4.1c2.5-1,7.9-2.5,10.2-3.2c2.2-0.7,3.3-1.1,3.3-1.1
				s-2.5-4-4.1-3.1c-1.6,0.8-8.7,4.3-8.7,4.3l-2.4-4.9h-2.8l1.6,4.9c0,0-1.3,1-2.5,0c-1.1-1-2.1-5.3-2.1-9c0-3.7,0-5.3,0-5.3
				c1-0.2,5.2,1.8,5.2,1.8l0.8-1.3l-5.1-3.2c0,0,1.3-1.6,2.8-4.1c1.6-2.5,1.5-2.4-1.3-3.7c0,0-1.7,2.7-3.1,4.9
				c-0.9,1.3-3.4,6.1-4.3,6.2c-0.9,0.1-1.2-0.1-3.7-0.9l-2.3-0.6l-0.9,2c0,0,5.5,1.5,5.8,3.3c0.2,1.8,0.5,15.6,0.5,15.6l-5.3-6.7
				l-1.9,0.6c0,0-0.7,0,0.1,1.5c0.4,0.9,1,1.8,1.7,2.5l-6.6-2l-0.1,2.5c0,0,4.9,1.3,6.8,2.2c1.9,0.8,5.5,2.8,5.5,2.8l0.5,4.7
				c0.5,4.7,1.1,19.1,1.1,19.1l-6.9-2.5l-1.9-4.3l3.3-1.4l-0.8-1.3h-4.1l-3.4-4.9l-2.1,1c0,0,3,3.7,3,4.4s2.3,6.3,2.3,6.3
				s-4.6-1.5-5.9-1.9s-17.2-4.1-17.2-4.1l-0.3,3.7c0,0,10.2,3.6,12.9,4.9l0.4,0.1c-0.2,0.1-0.4,0.4-0.7,0.5
				c-1.8,1.4-3.8,2.5-5.9,3.3l1.3,3.3l9.2-5.8c1.6,0.5,7,2.5,7.8,2.8c2.5,0.9,7.5,2.9,8.3,6c0.8,3.1-0.2,12.3-0.3,17.1
				c0,3.4-0.6,3.7-2.2,3.4c-1.9-0.4-5.1-1.5-5.1-1.5c0.1-1,0-2.1-0.1-3.1c-0.1-1.5-0.5-2.9-1-4.3l-2.2-0.8c-0.4,1.7-0.4,3.5-0.4,5.2
				c0.1,1.5-3.7,0.7-5.3-0.2c-2.5-1.4-5.2-2.6-8-3.6c-2.6-0.9-6.1-1.9-6.1-1.9l-1.3,3.1c3.1,1.2,6.3,2.5,9.3,4.1
				c0.4,0.2,0.7,0.4,1.2,0.6l-4.9,1.1l1.2,2.2c1-0.1,2-0.4,3-0.6c1.3-0.4,2.8-0.7,4.2-0.9c3.1,1.4,5.8,2.4,8.9,3.8
				c3.9,1.8,7.2,2.5,8.9,3.7c1.6,1.2,0.3,34.9,0.3,43c0,8.1-0.3,42.3-0.3,42.3h12.5l-2.4-95.4l10.1-8.8l0.7,1c0.7,1,1.6,1.8,2.6,2.6
				l1.6-1.9l-0.8-0.7c-0.7-0.7-1.3-1.6-1.6-2.6l4.3-4.1l-1.1-1.8c0,0-4.3,2.6-7.3,4.5c-0.1,0.1-0.2,0.1-0.3,0.2v-8.7
				c0,0,0.6-1.9,0-2.1c-0.5-0.1-1.1-0.1-1.6,0c0,0-0.4,1.7-0.7,3.7c-0.2,1.5-0.9,6.8-1.1,9.1c-2.6,1.6-5.1,3.1-5.1,3.1
				s0.1-8.8-0.1-13.1c-0.1-1.1-0.3-3.7-0.7-6.8c4.8-1.5,12.3-4.4,16.6-5.5c5.5-1.5,6.7-2.8,8.4-1.9s1.6,8.5,2.2,9.3l2.4-0.8v-5.2h5
				l0.8-1.7l-5.8-0.8v-5.2c0,0,7.8-4.1,7.9-5C735.5,334,734.1,333,734.1,333z"/>
			<path class="st0" d="M596.5,447.5c0,0-0.7-1.6-9.9,0c-34.4,6.1-60.5-9.9-56.8-10.5c20.5-3.2,36.9-7.6,34.4-9.1
				c-2.5-1.5-34.7-4.3-28.5-5.2c8.2-1.1,31.8-11.2,29.1-12c-2.9-0.7-30.4-1.8-25-3.8c19.6-7.7,27.3-15.6,24.9-14.8
				s-22.3,3.1-18.6,0.6c12.1-8.5,22.3-24.7,22.3-24.7s-11.6,3.4-15.8,4.4c-4.1,1-1.7-1.3,6.1-8c7.5-6.4,13.8-15.7,13.8-15.7
				c-2.8-0.2-5.7-0.2-8.6,0c-6.3,0.3-5.6,1,0-5.4c5.6-6.4,20.1-20.4,17.2-21.5c-2.9-1.1-17.8,7.9-15,4.9c7.8-8.4,26.7-42.3,27.5-40
				c0.8,2.3,9.3,23.8,14.9,31.4c5.8,7.5,17.1,14,11.7,13.6c-5.5-0.4-15.2-5-15.2-5s5.1,14.1,8.9,17.5c3.8,3.4,8.1,7.2,2.5,6.8
				c-5.5-0.4-15.2-4.9-12.7-1.5c2.5,3.4,21.4,17.1,17.9,17.6s-15.8-2.7-15.8-2.7s10.9,15.3,14.3,17.6c3.4,2.3,7.7,4.3,3.9,5
				c-3.8,0.7-15.5-2.2-15.5-2.2s9,15.3,21,22.4c1.5,0.9-10.2,1.1-15.7,0c-5.5-1-7.6-2.3-7.2,0s20.8,11.1,28.8,16
				c5.5,3.4-25-0.9-26.9,0c-2.2,1,17.6,15.6,35.3,17.3c5.2,0.5-9.2,4.5-19.7,6.8C613.5,449.8,596.5,447.5,596.5,447.5z"/>
			<path class="st11" d="M580.7,434.4c-0.1-8.8,0.7-26,0.7-26l-13.4-13l1.7-2.2c0,0,1.4,0.3,5,3.1c3.6,2.7,8.1,5.4,8.1,5.4
				s0.2-15,0.5-18.5c0.5-6.4-1.7-8.4-1.7-8.4s-2-1.5-4.9-3.4c-2.8-1.9-5.1-3.8-5.1-3.8l2.2-2.4c1.9,0.9,3.8,1.9,5.6,3.1
				c1.3,0.8,3,0.9,4.4,0.2c0,0,0.1-1.8,0.2-7.4c0.1-5.2,1-11.7,0.1-14.4c-0.8-2.8-6.5-11.3-6.5-11.3l1.5-2.7c1,0.7,2,1.7,2.8,2.8
				c1.3,1.9,5.2,6.7,5.2,6.7s1.6-3.7,3.7-7.3c2.4-4.5,1.1-5.1,3.7-4.4c2.8,0.7,2,1.1,0.7,4.7c-1.5,4-2.1,5.6-3.1,7.9
				c-0.8,1.8-0.2,27.6-0.2,27.6s-0.2,16.9,0.5,17.1c3.1,1.1,12-0.9,12-0.9l-0.1,2.5l-12.3,3.9l-0.3,28.8c0,0,4.2-0.1,6.4-1.2
				c2.2-1,2.7-0.7,2.7-0.7l0.9,2.2c0,0-2.6,2.1-4.9,2.6c-1.6,0.4-4,1-5.2,1.3l1.5,57.2l-13.4-0.4
				C579.8,482.9,580.9,442.9,580.7,434.4z"/>
			<path class="st1" d="M644.3,443c5.6,0,26.4-7.8,32.4-24.2c6.1-16.4,1.1-52.1-2.8-67.2c-4-15-29.4-88.3-29.4-88.3
				s-7.8,16.8-14.5,28.2c-6.6,11.4-26.4,56.9-30.1,74c-3.7,17-4,47.7,5.9,60.9C618.2,443,627.9,439.9,644.3,443z"/>
			<path class="st12" d="M642.8,483.5c0,0-0.3-21.1-0.3-29.7s-1.4-25.6,0.3-26.9c1.7-1.3,5.3-2.1,9.5-3.9c4-1.6,8.3-2.5,12.6-2.8
				c3.5-0.3,4-0.4,4-0.4l-0.8-3.7c0,0-0.6-0.1-3.5,0s-3.8,0.4-5.2,0.5c-2.8,0.3-4.5,1.6-4.4,0c0.1-1.6,0.6-8-0.9-7.3
				c-0.7,0.4-1.6,0.7-2.3,0.9c-0.5,1.5-0.8,3.1-1,4.6c-0.1,1.1-0.1,2.2-0.1,3.4c-1.8,0.6-3.6,1.1-5.4,1.6c-1.7,0.4-2.4,0.1-2.4-3.6
				c0-5.1-1.2-17.9-0.3-21.1c0.6-2.8,2.6-5,5.3-5.8c1.7-0.7,5.9-1.5,8.9-2.9c1.6-0.8,3.3-1.3,5-1.5l-0.3-2.8
				c-1.9,0.3-3.7,0.7-5.5,1.2c-1.4,0.5-6.3,2.1-6.3,2.1s2.5-6,2.5-6.8s0.3-4.3,0.3-4.3h-2.2l-0.7,3.7h-4.3l-0.9,1.3l3.5,1.5
				l-1.9,4.6l-3.8,1.6c0,0,0.6-15.3,1.2-20.3l0.6-5c0,0,3.8-2,5.8-2.9s7.2-2.3,7.2-2.3l-0.1-2.7l-6.9,2.2c0.7-0.8,1.3-1.7,1.9-2.7
				c0.9-1.6,0.1-1.6,0.1-1.6l-2-0.7l-5.7,7.2c0,0,0.3-20.5,0.6-22.4c0.3-1.9,7.5-7.5,7.5-7.5l-1.1-1.5l-1.6,0.7
				c-3.2,1.7-5.2,3.9-6.1,4.3c-0.9,0.4-7.8-13.8-9.3-14.7l-1.5-0.9c-2.9,1.5-2.3,3.2-2.3,3.2c1.4,1.4,2.8,2.9,3.8,4.6
				c1.7,2.6,2.3,3.6,2.3,3.6l-4.7,4.2l0.9,1.3c0,0,3.9-3.8,5-3.6c0.8,0.1,1.4,6.3,1.4,6.3s-2.6,14.2-2.6,18.1s-1,8.5-2.2,9.6
				c-1.2,1-2.7,0-2.7,0l1.8-5.2h-3l-2.5,5.2c0,0-7.5-3.7-9.3-4.5c-1.7-0.8-4.4,3.3-4.4,3.3s1.1,0.4,3.5,1.2
				c2.4,0.7,8.1,2.2,10.8,3.4c2.6,1.1,5.9,3.2,5.9,4.4c0,2.1-1.3,19.6-1.6,24.3c-0.3,4.6-0.1,14-0.1,14s-4-2.7-7.2-4.6
				c-3.1-1.9-7.8-4.8-7.8-4.8l-1.2,1.9l4.6,4.3c0,0-0.9,2.1-1.7,2.8l-0.9,0.7l1.7,2.1c1-0.8,1.9-1.8,2.8-2.8l0.7-1l8.4,8.2
				l-2.6,67.3L642.8,483.5L642.8,483.5z"/>
			<path class="st13" d="M733.2,338.8l0.1,2.3l11.1,3.5l0.2,26.1c0,0-3.7-0.1-5.8-1.1c-2.1-1-2.4-0.7-2.4-0.7l-0.8,2.1
				c0,0,2.3,1.9,4.4,2.3c1.5,0.3,3.6,0.9,4.7,1.1L743.4,480l14.9-2.9c-1.6-30.4-3.8-90.6-3.7-95.4c0.1-7.9-0.6-23.5-0.6-23.5
				l12.1-11.7l-1.6-1.9c0,0-1.3,0.3-4.6,2.8c-3.3,2.5-7.3,4.9-7.3,4.9s-0.2-13.6-0.4-16.7c-0.4-5.8,1.6-7.6,1.6-7.6s1.9-1.3,4.4-3.1
				c2.5-1.8,4.6-3.4,4.6-3.4l-2-2.2c-1.7,0.8-3.4,1.7-5,2.8c-1.2,0.7-2.7,0.8-4,0.2c0,0-0.1-1.6-0.2-6.7c-0.1-4.6-0.9-10.5-0.1-13
				c0.8-2.5,5.9-10.2,5.9-10.2l-1.3-2.4c-1,0.7-1.8,1.6-2.5,2.5c-1.2,1.7-4.7,6.1-4.7,6.1s-1.5-3.3-3.3-6.6c-2.2-4-1-4.6-3.4-4
				c-2.5,0.7-1.8,1-0.6,4.3c1.3,3.7,1.9,5.1,2.8,7.1c0.7,1.6,0.2,24.9,0.2,24.9s0.1,15.2-0.4,15.5
				C741.2,340.5,733.2,338.8,733.2,338.8z"/>
		</g>
	</g>
</g>
<g id="Layer_2">
	<g id="Layer_1-2">
		<path class="st14" d="M245.8,544.4c1.4-0.2-0.8-0.4,0.9-0.3C246.5,544.4,246.1,544.6,245.8,544.4z"/>
		<path class="st14" d="M244,544.6c-0.3-0.3-1.4-0.4-0.6-0.9C243.5,544.1,244.1,544.3,244,544.6z"/>
		<path class="st14" d="M217.1,541.9c0,0.1-0.4-0.1-0.5-0.2c0.3,0,0.6-0.3,0.9-0.1C217.2,541.6,217.2,541.8,217.1,541.9z"/>
		<path class="st14" d="M210.2,541.7c0.1-0.3,1.6-0.5,2.4-0.5L210.2,541.7z"/>
		<path class="st14" d="M203.8,540.5c-0.5-0.2-0.4-0.4,0.3-0.3C204.2,540.3,204,540.4,203.8,540.5z"/>
		<path class="st14" d="M203.4,541.1c-0.4,0-0.8-0.1-1.1-0.3C202.3,541,203.6,540.7,203.4,541.1z"/>
		<path class="st14" d="M189.5,540.2c-0.3,0-1.1,0.3-1.4-0.1C188.4,540.3,189.7,539.8,189.5,540.2z"/>
		<path class="st14" d="M183,540.6c-0.2,0-0.4,0-0.5,0c-0.4-0.1,0-0.3,0.3-0.4L183,540.6z"/>
		<path class="st14" d="M189.1,535.8l-0.7,0.2l0.1-0.3L189.1,535.8z"/>
		<path class="st14" d="M232.6,533.7c-0.4,0.5-0.5,0-0.6,0.1C232.5,533.4,232,534.2,232.6,533.7z"/>
		<path class="st14" d="M207.1,542.2h0.2v0.6L207.1,542.2z"/>
		<path class="st15" d="M190.5,315.2c13.7,5.8,32.1,10.2,37,19.5c3.6,6.2-1,7.9-7.9,5c-3.7-0.9-5.9,1.2-10.4,1.1
			c-8.4,9.8-9.5,9.6-19.5,13.3c-0.7,5.8,1.3,17,0.3,25.9c-15.8,0.5-35.2,11.7-36.5,1.3c-0.5-3.7,0.9-14.8-0.5-18.2
			c-2-4.9-5.4-9.8-7.8-14.2c-4.9-7.3-11.2-15.3-7.3-24.6C146.7,305.2,176.9,309.4,190.5,315.2z"/>
		<path class="st16" d="M153.6,372.1c-15.2,29.5-23.2,60.8-22.7,93.5c0.5,13.2,4.8,28.9,12.8,39.3c5.4,7,15.9,9.8,31.2,8.2
			c4.4-9.3,2-22,2-31.2c-0.5-11.2,0.5-56.1,1.5-68.8c0.5-7.3,0.3-20.2-0.5-35.9C159.2,376.6,153.6,372.1,153.6,372.1z"/>
		<path class="st15" d="M189.8,372.3c1.6,7.3,1.4,22.7,3.3,29.9c1.6,6.6,1.3,12.9,3.1,19.6c2.8,11,4.4,23,6.3,34.7
			c2.8,17,12.1,36-3.3,49.5c-4.7,4.4-11.9,6.2-25.5,7.3c2.1-3.9,3.7-18.7,3.4-23.4c-0.3-7.9-2.6-16.1-1.9-23.7
			c1.6-25.9,0.8-59.1,2.7-85.3C178.2,375.3,183.5,371.1,189.8,372.3z"/>
		<path class="st17" d="M149.8,331.1c0,6.6,5.1,11.1,11.9,11.1s11.9-4.5,11.9-11.1c-0.1-6.7-5.6-12-12.3-11.9c0,0,0,0,0,0
			c-6.3,0-11.5,5.1-11.6,11.4C149.8,330.8,149.8,330.9,149.8,331.1z"/>
		<path class="st16" d="M159.4,329.5c0.1,1.3,1.2,2.2,2.5,2.1c1.1-0.1,2.1-1,2.1-2.1c0-1.3-1.1-2.3-2.4-2.3
			C160.5,327.2,159.5,328.2,159.4,329.5C159.4,329.5,159.4,329.5,159.4,329.5z"/>
		<path class="st15" d="M144.7,503.6c0,8.4,1.3,25.4,2.1,31.6c0.5,3.7,11.3,2.8,14.4,2.4c3.2-0.4,3.4-3.6,0.4-4.2
			c-3-0.6-9.8-1.4-9.8-1.4s-1.6-19.9-1.7-26.5C150.2,501.1,144.7,499.3,144.7,503.6z"/>
		<path class="st15" d="M186.1,509.6c0,0,18.4,17.5,23.3,21.4c2.9,2.4,10.1-5.8,12.1-8.3s-0.1-5-2.6-3.3c-2.6,1.6-8,5.8-8,5.8
			l-19.5-18L186.1,509.6z"/>
		<path class="st18" d="M138,327.5c0,0-13.7-11.9-26.5-15.5s-40.2-14.5-43.2-32.8C64.4,255,96,256.6,96,256.6"/>
		<path class="st18" d="M146.8,314.6c0,0-16.9-21.2-24.4-30.7c-6.5-8.1-16-31.8-1-38.3c28.4-12.2,42.5,14.8,42.5,14.8"/>
		<path class="st16" d="M126,243.8c0.4,6,5.5,10.6,11.6,10.3c5.5-0.3,10-4.7,10.3-10.3c-0.4-6-5.5-10.6-11.6-10.3
			C130.8,233.8,126.3,238.2,126,243.8z"/>
		<path class="st16" d="M56.9,272.8c0,5.8,4.6,10.5,10.4,10.5s10.5-4.6,10.5-10.4c0-5.8-4.6-10.5-10.4-10.5c0,0-0.1,0-0.1,0
			C61.6,262.4,56.9,267,56.9,272.8C56.9,272.8,56.9,272.8,56.9,272.8z"/>
		<path class="st15" d="M191.5,407.1c13-5.7,22.9-10.2,36.8-11.8c7.3-0.8,10.2,0.1,9.4-7.8c-0.3-4.6-3-13.4-7.4-7.1
			c-1.1,1.6,2.3,4.8,0.5,6.9c-1.5,1.9-19,4.6-24.3,6.7c-4.4,1.7-14.1,5.4-17.7,8.4C184.7,405.8,183.5,410.7,191.5,407.1z"/>
		<path class="st15" d="M144,458.8c1.3,9.9,8.6,21.7,19.9,27.8c5.4,2.9,11.6,0.7,11,9.4c-0.6,8.9-2.7,9.7-4.5,9.8
			c-3,0.1-1.9-3.7-1.3-11.7c-6-2.1-11.5-5.2-16.4-9.2c-12.9-10.2-18.6-31.5-14.4-34.9C143.2,446.1,143.3,453.3,144,458.8z"/>
		<path class="st11" d="M237.8,414.3c-6.6-5.8-19.9-11.5-30.8-1.7c-5.2,4.7-6.5,11.7-10.1,15.1c-6.5,6-10.8,1.2-23.4,8.6
			c-13.9,8.3-30.7,27.2-4.6,51.8c19.9,18.8,44.7,16.5,53.3-1.5c8.6-18,1.8-22.4,8-29.4c3.7-4.2,11.3-4.9,15.9-16.7
			C250.1,430.4,244.1,419.9,237.8,414.3z"/>
		<path class="st4" d="M231.1,408.4c-6.6-5.8-19.9-11.5-30.8-1.7c-5.2,4.7-6.5,11.7-10.1,15.1c-6.5,6-10.9,1.2-23.4,8.6
			c-13.9,8.3-30.7,27.2-4.6,51.8c19.8,18.8,44.7,16.5,53.3-1.4s1.8-22.4,8-29.4c3.7-4.2,11.3-4.9,15.8-16.7
			C243.4,424.4,237.3,413.9,231.1,408.4z"/>
		<path class="st11" d="M183.8,443.1c0,7.7,6.7,14,14.9,14s14.9-6.3,14.9-14c0-7.7-6.7-14.1-14.9-14.1S183.8,435.4,183.8,443.1z"/>
		<path class="st16" d="M187.4,443.1c-0.4,6.2,4.4,11.6,10.6,12c6.2,0.4,11.6-4.4,12-10.6s-4.4-11.6-10.6-12c-0.2,0-0.5,0-0.7,0
			C192.7,432.3,187.6,437,187.4,443.1z"/>
		<path class="st16" d="M260.8,361c0.6-0.6,0.1-2,0.7-2.6c7.5-8.6,12.7-14.6,13.3-15.1c2.9,0.5,5.8,0.5,8.6,0l0.9,0.8
			c-0.1,3,0.8,7.1,2,8.6c-0.6,0.7-6.2,7.3-14.1,16.6c-0.6,0.8-2.2,0.4-2.8,1.3c-23.4,27.3-64,74.6-64,74.6l-9.4-8.9
			C196,436.5,237.7,387.7,260.8,361z M270.8,362.6l1,0.8c0.2,0.1,0.4,0.1,0.5-0.1l9.7-11.8c0.1-0.1,0.1-0.3,0-0.5c0,0,0,0,0,0
			l-1.1-0.8c-0.2-0.1-0.4-0.1-0.5,0.1l-9.7,11.8C270.6,362.3,270.6,362.5,270.8,362.6L270.8,362.6z M266.7,359.6l1,0.8
			c0.2,0.1,0.4,0.1,0.5-0.1l9.7-11.8c0.1-0.1,0.1-0.3,0-0.5c0,0,0,0,0,0l-1-0.8c-0.2-0.1-0.4-0.1-0.5,0.1l-9.7,11.8
			C266.6,359.2,266.6,359.4,266.7,359.6z"/>
		<path class="st7" d="M287.2,361.1c0,0-2-0.6-1.5-1.3c0.5-0.7,1.3-1.9,1.3-1.9l-3.7-2.9l0.5-0.6l3.8,2.8c0,0,0.8-1.4,1.3-1.6
			c0.4-0.1,2.4,1.3,2,2C290.4,358.4,288.3,361.1,287.2,361.1z"/>
		<path class="st7" d="M282.5,365.9c-0.7-0.2-1.4-1-1.1-1.5c0.3-0.5,0.7-0.9,1.1-1.3l-3.3-3.1l0.4-0.6l3.6,2.7c0,0,0.9-1.7,1.7-1.6
			c0.8,0.2,1.8,1,1.4,1.8C285.8,363.2,283.5,366.2,282.5,365.9z"/>
		<path class="st7" d="M278.5,371.6c-0.7,0-1.9-1-1.6-1.5c0.4-0.6,0.8-1.1,1.3-1.6l-3.3-3l0.6-0.8l3.4,2.6c0,0,0.9-1.8,1.7-1.5
			c0.8,0.3,1.7,1.1,1.3,1.9S279.3,371.6,278.5,371.6z"/>
		<path class="st7" d="M261.2,349.9c0,0,2,0.6,1.5,1.3c-0.5,0.7-1.3,1.9-1.3,1.9l3.7,2.9l-0.5,0.6l-3.8-2.8c0,0-0.8,1.4-1.3,1.6
			c-0.4,0.1-2.4-1.3-2-2C258,352.7,260.1,350,261.2,349.9z"/>
		<path class="st7" d="M265.9,345.2c0.7,0.2,1.4,1,1.1,1.5c-0.3,0.5-0.7,0.9-1.1,1.3l3.3,3l-0.4,0.6l-3.6-2.7c0,0-0.9,1.7-1.7,1.6
			c-0.7-0.2-1.8-1-1.4-1.8C262.6,347.9,264.9,344.8,265.9,345.2z"/>
		<path class="st7" d="M269.9,339.5c0.7,0,1.9,1,1.6,1.5c-0.4,0.6-0.8,1.1-1.2,1.6l3.3,3l-0.6,0.8l-3.4-2.6c0,0-0.9,1.8-1.7,1.5
			c-0.8-0.3-1.7-1.1-1.3-1.9C267.1,342.7,269.1,339.5,269.9,339.5z"/>
		<path class="st19" d="M273.8,362.8c0,0-36.7,42.3-53.4,61.7s-41.3,48-41.3,48"/>
		<path class="st19" d="M277.1,356.4c0,0-40.7,46-57.4,65.5l-41.2,48"/>
		<path class="st19" d="M272.7,353.2c0,0-40.7,46-57.4,65.6c-16.7,19.5-41.2,47.9-41.2,47.9"/>
		<path class="st19" d="M280,350c0,0-45.9,52.4-62.6,71.9c-16.7,19.5-41.2,48-41.2,48"/>
		<path class="st19" d="M278.3,348.9c0,0-45.1,52-61.8,71.5c-16.7,19.5-42.5,47.8-42.5,47.8"/>
		<path class="st19" d="M266.9,357.2c0,0-36.7,42.3-53.4,61.8c-16.7,19.5-41.2,46.4-41.2,46.4"/>
		<path class="st16" d="M167.6,462.8l0.3-0.4c0.9-1.1,2.5-1.3,3.6-0.4c0.1,0,0.1,0.1,0.2,0.1l10,9.1c1.1,1,1.2,2.8,0.3,3.9l-0.3,0.4
			L167.6,462.8z"/>
		<path class="st15" d="M157.3,410.1c0.3,10.5,9.3,23.5,26.8,25.1c6.4,0.3,14.1,0.8,13.5,9.7c-0.6,9.2-2.9,9.7-4.8,9.7
			c-3.2,0-2.7-3.9-2.1-12.2c-6.2-2.1-14.3-1.9-21.1-4.8c-15.9-6.6-23.9-32.7-18.1-36.8C156.7,397.1,157.1,404.4,157.3,410.1z"/>
	</g>
</g>
<g id="Layer_2_00000028289030347217766340000012031964343186619021_">
	<g id="Layer_1-2_00000034088998590554678800000013528451129460778394_">
		<path class="st3" d="M319.9,76.4c0,37.3,30,67.5,67.1,67.5s67.1-30.2,67.1-67.5S424,8.9,387,8.9S319.9,39.1,319.9,76.4z"/>
	</g>
</g>
<g id="Layer_2_00000138566945838864960930000009467047025808804007_">
	<g id="Layer_1-2_00000168818770732222906070000002798772775963393709_">
		<path class="st20" d="M325.6,174.2c-0.1-5.5-2.1-51.5-36.1-65.9s-62.9,19.6-62.9,19.6s-4.1-63.4-45.3-55.9s-40.2,43.6-40.2,43.6
			s-13.5-21.8-36.1-14.4c-25,8.2-20.6,31.2-20.6,31.2s-13.8-16.8-34.3-4.5s-31.6,34-26.5,57.6s25.5,54.5,150.9,43.2
			S326.2,213.3,325.6,174.2z"/>
	</g>
</g>
<g id="Layer_2_00000040548942392511362990000001429898183582056374_">
	<g id="Layer_1-2_00000008855595808439794470000011634709504437966472_">
		<path class="st21" d="M614.4,187.4c0,0,84.3,5.5,84.3-35.1s-18.6-70.8-52.6-68.3s-42.7,14.6-42.7,14.6s10.9-35.1-21.9-41.6
			c-32.8-6.6-35,27.1-35,27.1s-21.9-29.3-47.1-9.6c-25.2,19.7-28.5,47.4-28.5,47.4s-26.3-33.7-50.4,0s-16.4,68.8,17.5,71
			S614.4,187.4,614.4,187.4z"/>
		<path class="st22" d="M812.9,119.3c-0.1-5.9-2.2-54.6-38.3-69.9s-66.8,20.7-66.8,20.7s-4.4-67.3-48.2-59.3S617,57,617,57
			s-14.4-23.2-38.3-15.3c-26.5,8.7-21.9,33.1-21.9,33.1s-14.7-17.8-36.5-4.7c-21.8,13.1-33.6,36-28.1,61.1s27.2,57.9,160.3,45.9
			S813.5,160.7,812.9,119.3z"/>
	</g>
</g>
</svg>
