<?xml version="1.0" encoding="utf-8"?>
<!-- Generator: Adobe Illustrator 23.0.1, SVG Export Plug-In . SVG Version: 6.00 Build 0)  -->
<svg version="1.1" id="Layer_1" xmlns="http://www.w3.org/2000/svg" xmlns:xlink="http://www.w3.org/1999/xlink" x="0px" y="0px"
	 viewBox="0 0 879 635" style="enable-background:new 0 0 879 635;" xml:space="preserve">
<style type="text/css">
	.st0{fill-rule:evenodd;clip-rule:evenodd;fill:#1B8A4F;}
	.st1{fill-rule:evenodd;clip-rule:evenodd;fill:#1F4B34;}
	.st2{fill:#814114;}
	.st3{fill:#DB7A1C;}
	.st4{fill:#F39200;}
	.st5{fill:#A85318;}
	.st6{fill:#FFFFFF;}
	.st7{fill:none;stroke:#000000;stroke-width:0.9453;stroke-linecap:round;}
	.st8{fill:none;stroke:#DB7A1C;stroke-width:1.3383;stroke-linecap:round;}
	.st9{fill:#DAD8CC;}
	.st10{fill:#ACA89D;}
	.st11{fill:#C4C0B4;}
</style>
<path class="st0" d="M752.8,572.5c0,0-110.6-26.7-244.9-30.1c-134.4-3.3-193.7,4.9-193.7,4.9v88h535.3
	C845.7,606.6,830.6,592.1,752.8,572.5z"/>
<path class="st1" d="M370.2,546.3c0,0-16.3-1.1-36-2c-19.8-0.8-28.5,1.3-28.5,1.3v16.8h78.8C394.1,562.3,390.7,550.9,370.2,546.3z"
	/>
<path d="M240.3,557.5c-10.6,4.9-21.9-25-17.8-34.3C223.4,535.2,229.2,547.3,240.3,557.5z"/>
<path d="M230.4,568c-10.6-3.6-25.8-12.6-28.7-24.6c5.8,7.4,19.8,17.8,31.7,20.9C232.1,565.9,232.6,568.5,230.4,568z"/>
<path class="st2" d="M347.2,528.6c15.1-10.9,59.8-17,72.5-25.5c0-3.8-0.3-17.5,3.9-5.6c11.6,37.1-132,14.6-32.3,63.2
	C406.3,585.3,324.6,542.4,347.2,528.6z"/>
<path class="st2" d="M376.6,517.5c0.5-0.4,1-2.8,4.3-5.5c-0.6,3.1-4.3,6.6,3.5-0.2c-2.1,4.5-5,6.3,3.7,0.2c0.4-0.5-4.6,4.6-3.6,7.4
	L376.6,517.5z"/>
<path class="st2" d="M370.3,487.6c0.7-11.1,0.2-22.3-4.9-32.4c12.8,8.2,10.9,22.2,10.3,33.9c6.4-6.1,6.8-28.2,6-37.9
	C393.6,462.2,379.2,509.6,370.3,487.6z"/>
<path class="st2" d="M272,618.4c11.9-29.5,50.2-12.7,74.4-26.4c57.1-34.7,38.2-113.8,19.5-106.6c-71.9,79.6-90.6,45.6-136.5,80.2
	C217.9,585.9,249.4,652.4,272,618.4z"/>
<path class="st3" d="M288.7,570.3c96.2-13.5,91.4-97.4,78.8-86.7C284.7,564,249,535.7,288.7,570.3z"/>
<path class="st4" d="M286.4,603.3c-4.5-30.3-32-52.6-17.6-59.4C282.4,535,309.9,613.1,286.4,603.3z"/>
<path class="st5" d="M338.6,500.6c19.6,3.8,57.5,36.1,72.7,38.7c3.1-3.3,13.3-12.3,7-0.8c-19.3,36.2-107.4-93.1-73.2,19.1
	C337.7,590.6,310.5,492.5,338.6,500.6z"/>
<path class="st6" d="M236.7,575c7.3,12.2,25,4,16.5-9.9C246.1,553.3,230.5,564.7,236.7,575z"/>
<path class="st7" d="M272,617c2.6-1.5-3.9-16.7-7.9-15.5"/>
<path d="M240.9,572.9C241.6,571.3,242.5,571.5,240.9,572.9C239.6,574.6,246.9,576.8,240.9,572.9z"/>
<path class="st8" d="M323.6,598.6c3.6-13.7-1.1-27.7-8.4-38.1"/>
<path class="st8" d="M357.7,583.1c3.3-14.9-4.7-29.8-15.2-37.8"/>
<path class="st8" d="M382,544.7c-1.3-9.9-14.4-20.9-27.3-23.6"/>
<path class="st7" d="M323.6,494.6c0,0,5.9-8.4,19.4-7.6"/>
<path class="st7" d="M421.6,481.4c0,0,10.1,1.8,15,14.4"/>
<path class="st7" d="M427.1,474.8c0,0,10.1,1.8,15,14.4"/>
<path class="st7" d="M319.6,488.2c0,0,9.6-8.2,23-6.1"/>
<path class="st7" d="M330.6,549.7c0,0-9.9-2.5-14-15.4"/>
<path class="st7" d="M325.9,555.7c0,0-11.1-6.1-13.9-19.3"/>
<path class="st0" d="M407.2,557c0,0-20,1.1-39.5,0c-19.5-1.1-24.3-8-24.3-8v28h77.9C420.7,567.8,418.5,563.2,407.2,557z"/>
<path class="st9" d="M390.8,636.6c-8-76.1-45.5-166.3-181.6-156.2c-99,7.4-179.8,64.5-179.8,144c0,4.1,0.2,8.2,0.6,12.2L390.8,636.6
	L390.8,636.6z"/>
<path class="st10" d="M177.9,636.6c-2.7-29.5-15.5-64.4-61.7-60.5C82.5,578.9,55,601,55,631.8c0,1.6,0.1,3.2,0.2,4.7L177.9,636.6
	L177.9,636.6z"/>
<path class="st11" d="M126.8,636.6c6.2-60.7,35.7-132.8,142.4-124.7c77.7,5.9,141,51.5,141,114.9c0,3.3-0.2,6.5-0.5,9.7H126.8z"/>
</svg>
