<svg width="871" height="548" viewBox="0 0 871 548" fill="none" xmlns="http://www.w3.org/2000/svg">
<path d="M24.6934 11.4424H27.6421L19.1504 35H16.4434L8 11.4424H10.9004L16.3145 26.6855C16.9375 28.4365 17.4316 30.1392 17.7969 31.7935C18.1836 30.0532 18.6885 28.3184 19.3115 26.5889L24.6934 11.4424ZM30.897 35V11.4424H33.6362V35H30.897ZM60.5615 23.189C60.5615 26.9595 59.6055 29.9243 57.6934 32.0835C55.792 34.2427 53.144 35.3223 49.7495 35.3223C46.2798 35.3223 43.5996 34.2642 41.709 32.1479C39.8291 30.021 38.8892 27.0239 38.8892 23.1567C38.8892 19.3218 39.8345 16.3516 41.7251 14.2461C43.6157 12.1299 46.3013 11.0718 49.7817 11.0718C53.1655 11.0718 55.8081 12.146 57.7095 14.2944C59.6108 16.4429 60.5615 19.4077 60.5615 23.189ZM41.7896 23.189C41.7896 26.3794 42.4663 28.8018 43.8198 30.4561C45.1841 32.0996 47.1606 32.9214 49.7495 32.9214C52.3599 32.9214 54.3311 32.0996 55.6631 30.4561C56.9951 28.8125 57.6611 26.3901 57.6611 23.189C57.6611 20.02 56.9951 17.6191 55.6631 15.9863C54.3418 14.3428 52.3813 13.521 49.7817 13.521C47.1714 13.521 45.1841 14.3481 43.8198 16.0024C42.4663 17.646 41.7896 20.0415 41.7896 23.189ZM65.8306 35V11.4424H68.5698V32.5186H78.9629V35H65.8306ZM96.1074 35H82.9751V11.4424H96.1074V13.8755H85.7144V21.4648H95.479V23.8818H85.7144V32.5508H96.1074V35ZM108.595 35H105.856V13.8755H98.3955V11.4424H116.056V13.8755H108.595V35ZM134.425 35L131.492 27.5073H122.05L119.149 35H116.378L125.691 11.3457H127.996L137.261 35H134.425ZM130.638 25.042L127.899 17.7427C127.544 16.8188 127.179 15.6855 126.803 14.3428C126.567 15.374 126.229 16.5073 125.788 17.7427L123.017 25.042H130.638Z" fill="black"/>
<path d="M24.6934 65.4424H27.6421L19.1504 89H16.4434L8 65.4424H10.9004L16.3145 80.6855C16.9375 82.4365 17.4316 84.1392 17.7969 85.7935C18.1836 84.0532 18.6885 82.3184 19.3115 80.5889L24.6934 65.4424ZM30.897 89V65.4424H33.6362V89H30.897ZM60.5615 77.189C60.5615 80.9595 59.6055 83.9243 57.6934 86.0835C55.792 88.2427 53.144 89.3223 49.7495 89.3223C46.2798 89.3223 43.5996 88.2642 41.709 86.1479C39.8291 84.021 38.8892 81.0239 38.8892 77.1567C38.8892 73.3218 39.8345 70.3516 41.7251 68.2461C43.6157 66.1299 46.3013 65.0718 49.7817 65.0718C53.1655 65.0718 55.8081 66.146 57.7095 68.2944C59.6108 70.4429 60.5615 73.4077 60.5615 77.189ZM41.7896 77.189C41.7896 80.3794 42.4663 82.8018 43.8198 84.4561C45.1841 86.0996 47.1606 86.9214 49.7495 86.9214C52.3599 86.9214 54.3311 86.0996 55.6631 84.4561C56.9951 82.8125 57.6611 80.3901 57.6611 77.189C57.6611 74.02 56.9951 71.6191 55.6631 69.9863C54.3418 68.3428 52.3813 67.521 49.7817 67.521C47.1714 67.521 45.1841 68.3481 43.8198 70.0024C42.4663 71.646 41.7896 74.0415 41.7896 77.189ZM65.8306 89V65.4424H68.5698V86.5186H78.9629V89H65.8306ZM82.9751 89V65.4424H85.7144V89H82.9751ZM82.6206 63.1543C83.1362 62.4883 83.6895 61.6826 84.2803 60.7373C84.8818 59.792 85.3545 58.9702 85.6982 58.272H88.9531V58.6104C88.4805 59.3086 87.7769 60.168 86.8423 61.1885C85.9077 62.209 85.0967 62.9985 84.4092 63.5571H82.6206V63.1543ZM110.593 89H107.467L94.5928 69.229H94.4639C94.6357 71.5493 94.7217 73.6763 94.7217 75.6099V89H92.1919V65.4424H95.2856L108.128 85.1328H108.257C108.235 84.8428 108.187 83.9136 108.112 82.3452C108.037 80.7661 108.01 79.6382 108.031 78.9614V65.4424H110.593V89Z" fill="black"/>
<path d="M24.6934 118.442H27.6421L19.1504 142H16.4434L8 118.442H10.9004L16.3145 133.686C16.9375 135.437 17.4316 137.139 17.7969 138.793C18.1836 137.053 18.6885 135.318 19.3115 133.589L24.6934 118.442ZM30.897 142V118.442H33.6362V142H30.897ZM58.5151 142H55.3892L42.5146 122.229H42.3857C42.5576 124.549 42.6436 126.676 42.6436 128.61V142H40.1138V118.442H43.2075L56.0498 138.133H56.1787C56.1572 137.843 56.1089 136.914 56.0337 135.345C55.9585 133.766 55.9316 132.638 55.9531 131.961V118.442H58.5151V142ZM75.0796 120.553C72.4907 120.553 70.4443 121.418 68.9404 123.147C67.4473 124.866 66.7007 127.224 66.7007 130.221C66.7007 133.304 67.4204 135.689 68.8599 137.375C70.3101 139.051 72.3726 139.889 75.0474 139.889C76.6909 139.889 78.5654 139.594 80.6709 139.003V141.404C79.0381 142.016 77.0239 142.322 74.6284 142.322C71.1587 142.322 68.4785 141.27 66.5879 139.164C64.708 137.059 63.7681 134.067 63.7681 130.189C63.7681 127.761 64.2192 125.634 65.1216 123.808C66.0347 121.982 67.3452 120.575 69.0532 119.586C70.772 118.598 72.7915 118.104 75.1118 118.104C77.5825 118.104 79.7417 118.555 81.5894 119.458L80.4292 121.81C78.646 120.972 76.8628 120.553 75.0796 120.553ZM103.697 142H100.958V130.914H88.5503V142H85.811V118.442H88.5503V128.465H100.958V118.442H103.697V142ZM124.982 142L122.05 134.507H112.607L109.707 142H106.936L116.249 118.346H118.553L127.818 142H124.982ZM121.196 132.042L118.457 124.743C118.102 123.819 117.737 122.686 117.361 121.343C117.125 122.374 116.786 123.507 116.346 124.743L113.574 132.042H121.196Z" fill="black"/>
<path d="M24.6934 172.442H27.6421L19.1504 196H16.4434L8 172.442H10.9004L16.3145 187.686C16.9375 189.437 17.4316 191.139 17.7969 192.793C18.1836 191.053 18.6885 189.318 19.3115 187.589L24.6934 172.442ZM30.897 196V172.442H33.6362V196H30.897ZM60.5615 184.189C60.5615 187.959 59.6055 190.924 57.6934 193.083C55.792 195.243 53.144 196.322 49.7495 196.322C46.2798 196.322 43.5996 195.264 41.709 193.148C39.8291 191.021 38.8892 188.024 38.8892 184.157C38.8892 180.322 39.8345 177.352 41.7251 175.246C43.6157 173.13 46.3013 172.072 49.7817 172.072C53.1655 172.072 55.8081 173.146 57.7095 175.294C59.6108 177.443 60.5615 180.408 60.5615 184.189ZM41.7896 184.189C41.7896 187.379 42.4663 189.802 43.8198 191.456C45.1841 193.1 47.1606 193.921 49.7495 193.921C52.3599 193.921 54.3311 193.1 55.6631 191.456C56.9951 189.812 57.6611 187.39 57.6611 184.189C57.6611 181.02 56.9951 178.619 55.6631 176.986C54.3418 175.343 52.3813 174.521 49.7817 174.521C47.1714 174.521 45.1841 175.348 43.8198 177.002C42.4663 178.646 41.7896 181.042 41.7896 184.189ZM65.8306 196V172.442H68.5698V193.519H78.9629V196H65.8306ZM82.9751 196V172.442H85.7144V196H82.9751ZM82.6206 170.154C83.1362 169.488 83.6895 168.683 84.2803 167.737C84.8818 166.792 85.3545 165.97 85.6982 165.272H88.9531V165.61C88.4805 166.309 87.7769 167.168 86.8423 168.188C85.9077 169.209 85.0967 169.999 84.4092 170.557H82.6206V170.154ZM110.593 196H107.467L94.5928 176.229H94.4639C94.6357 178.549 94.7217 180.676 94.7217 182.61V196H92.1919V172.442H95.2856L108.128 192.133H108.257C108.235 191.843 108.187 190.914 108.112 189.345C108.037 187.766 108.01 186.638 108.031 185.961V172.442H110.593V196Z" fill="black"/>
<circle cx="207.446" cy="23.3108" r="21.4459" fill="#D2D1C2"/>
<circle cx="207.446" cy="77.3919" r="21.4459" fill="#D2D1C2"/>
<circle cx="207.446" cy="130.541" r="21.4459" fill="#D2D1C2"/>
<circle cx="207.446" cy="184.622" r="21.4459" fill="#D2D1C2"/>
<path d="M240 238H2V546H240V238Z" stroke="#D3D2C2" stroke-width="3"/>
<path d="M17 306H229" stroke="#231F20" stroke-width="3" stroke-linecap="round" stroke-linejoin="round" stroke-dasharray="6 6"/>
<path d="M553 238H315V546H553V238Z" stroke="#D3D2C2" stroke-width="3"/>
<path d="M869 238H631V546H869V238Z" stroke="#D3D2C2" stroke-width="3"/>
<path d="M344.047 35L341.114 27.5073H331.672L328.771 35H326L335.313 11.3457H337.618L346.883 35H344.047ZM340.26 25.042L337.521 17.7427C337.167 16.8188 336.801 15.6855 336.425 14.3428C336.189 15.374 335.851 16.5073 335.41 17.7427L332.639 25.042H340.26ZM352.861 25.2031V35H350.122V11.4424H356.583C359.473 11.4424 361.605 11.9956 362.98 13.1021C364.366 14.2085 365.059 15.8735 365.059 18.0972C365.059 21.2124 363.479 23.3179 360.321 24.4136L366.718 35H363.479L357.775 25.2031H352.861ZM352.861 22.8506H356.615C358.549 22.8506 359.967 22.4692 360.869 21.7065C361.771 20.9331 362.223 19.7783 362.223 18.2422C362.223 16.6846 361.761 15.562 360.837 14.8745C359.924 14.187 358.452 13.8433 356.422 13.8433H352.861V22.8506ZM385.329 35L382.396 27.5073H372.954L370.054 35H367.282L376.596 11.3457H378.9L388.165 35H385.329ZM381.542 25.042L378.803 17.7427C378.449 16.8188 378.083 15.6855 377.708 14.3428C377.471 15.374 377.133 16.5073 376.692 17.7427L373.921 25.042H381.542ZM409.805 35H406.679L393.805 15.229H393.676C393.848 17.5493 393.934 19.6763 393.934 21.6099V35H391.404V11.4424H394.498L407.34 31.1328H407.469C407.447 30.8428 407.399 29.9136 407.324 28.3452C407.249 26.7661 407.222 25.6382 407.243 24.9614V11.4424H409.805V35ZM403.231 9.5249C402.769 9.5249 402.318 9.42822 401.877 9.23486C401.437 9.03076 401.002 8.81055 400.572 8.57422C400.153 8.32715 399.745 8.10693 399.348 7.91357C398.961 7.70947 398.585 7.60742 398.22 7.60742C397.683 7.60742 397.274 7.76855 396.995 8.09082C396.727 8.41309 396.517 8.90186 396.367 9.55713H394.788C394.927 8.25732 395.303 7.24219 395.916 6.51172C396.539 5.77051 397.339 5.3999 398.316 5.3999C398.811 5.3999 399.289 5.50195 399.75 5.70605C400.212 5.89941 400.653 6.11963 401.072 6.3667C401.491 6.60303 401.894 6.82324 402.28 7.02734C402.667 7.2207 403.032 7.31738 403.376 7.31738C403.902 7.31738 404.294 7.16162 404.552 6.8501C404.81 6.52783 405.02 6.03369 405.181 5.36768H406.776C406.636 6.66748 406.26 7.68799 405.648 8.4292C405.046 9.15967 404.241 9.5249 403.231 9.5249ZM431.091 35L428.158 27.5073H418.716L415.815 35H413.044L422.357 11.3457H424.662L433.927 35H431.091ZM427.304 25.042L424.565 17.7427C424.21 16.8188 423.845 15.6855 423.469 14.3428C423.233 15.374 422.895 16.5073 422.454 17.7427L419.683 25.042H427.304Z" fill="black"/>
<path d="M344.176 72.3066C344.176 74.6914 343.359 76.5283 341.727 77.8174C340.104 79.0957 337.779 79.7349 334.75 79.7349H331.978V89H329.239V65.4424H335.346C341.232 65.4424 344.176 67.7305 344.176 72.3066ZM331.978 77.3823H334.443C336.871 77.3823 338.627 76.9902 339.712 76.2061C340.797 75.4219 341.34 74.165 341.34 72.4355C341.34 70.8779 340.83 69.7178 339.809 68.9551C338.789 68.1924 337.199 67.811 335.04 67.811H331.978V77.3823ZM362.255 89H349.123V65.4424H362.255V67.8755H351.862V75.4648H361.626V77.8818H351.862V86.5508H362.255V89ZM380.785 82.7319C380.785 84.8052 380.033 86.4219 378.529 87.582C377.025 88.7422 374.984 89.3223 372.406 89.3223C369.613 89.3223 367.465 88.9624 365.961 88.2427V85.6001C366.928 86.0083 367.98 86.3306 369.119 86.5669C370.258 86.8032 371.386 86.9214 372.503 86.9214C374.329 86.9214 375.704 86.5776 376.628 85.8901C377.552 85.1919 378.014 84.2251 378.014 82.9897C378.014 82.1733 377.847 81.5073 377.514 80.9917C377.192 80.4653 376.644 79.9819 375.871 79.5415C375.108 79.1011 373.942 78.6016 372.374 78.043C370.183 77.2588 368.614 76.3296 367.669 75.2554C366.734 74.1812 366.267 72.7793 366.267 71.0498C366.267 69.2344 366.949 67.7896 368.313 66.7153C369.678 65.6411 371.482 65.104 373.728 65.104C376.069 65.104 378.223 65.5337 380.189 66.3931L379.335 68.7778C377.391 67.9614 375.5 67.5532 373.663 67.5532C372.213 67.5532 371.08 67.8647 370.263 68.4878C369.447 69.1108 369.039 69.9756 369.039 71.082C369.039 71.8984 369.189 72.5698 369.49 73.0962C369.791 73.6118 370.295 74.0898 371.004 74.5303C371.724 74.96 372.82 75.438 374.292 75.9644C376.762 76.8452 378.459 77.7905 379.383 78.8003C380.318 79.8101 380.785 81.1206 380.785 82.7319ZM392.854 89H390.115V67.8755H382.654V65.4424H400.314V67.8755H392.854V89ZM418.684 89L415.751 81.5073H406.309L403.408 89H400.637L409.95 65.3457H412.254L421.52 89H418.684ZM414.897 79.042L412.158 71.7427C411.803 70.8188 411.438 69.6855 411.062 68.3428C410.826 69.374 410.487 70.5073 410.047 71.7427L407.275 79.042H414.897ZM443.16 89H440.034L427.159 69.229H427.03C427.202 71.5493 427.288 73.6763 427.288 75.6099V89H424.758V65.4424H427.852L440.694 85.1328H440.823C440.802 84.8428 440.753 83.9136 440.678 82.3452C440.603 80.7661 440.576 79.6382 440.598 78.9614V65.4424H443.16V89ZM436.585 63.5249C436.124 63.5249 435.672 63.4282 435.232 63.2349C434.792 63.0308 434.356 62.8105 433.927 62.5742C433.508 62.3271 433.1 62.1069 432.702 61.9136C432.315 61.7095 431.939 61.6074 431.574 61.6074C431.037 61.6074 430.629 61.7686 430.35 62.0908C430.081 62.4131 429.872 62.9019 429.721 63.5571H428.142C428.282 62.2573 428.658 61.2422 429.27 60.5117C429.893 59.7705 430.693 59.3999 431.671 59.3999C432.165 59.3999 432.643 59.502 433.105 59.7061C433.567 59.8994 434.007 60.1196 434.426 60.3667C434.845 60.603 435.248 60.8232 435.635 61.0273C436.021 61.2207 436.387 61.3174 436.73 61.3174C437.257 61.3174 437.649 61.1616 437.907 60.8501C438.165 60.5278 438.374 60.0337 438.535 59.3677H440.13C439.991 60.6675 439.615 61.688 439.002 62.4292C438.401 63.1597 437.595 63.5249 436.585 63.5249ZM464.445 89L461.513 81.5073H452.07L449.17 89H446.398L455.712 65.3457H458.016L467.281 89H464.445ZM460.659 79.042L457.919 71.7427C457.565 70.8188 457.2 69.6855 456.824 68.3428C456.587 69.374 456.249 70.5073 455.809 71.7427L453.037 79.042H460.659Z" fill="black"/>
<path d="M344.047 142L341.114 134.507H331.672L328.771 142H326L335.313 118.346H337.618L346.883 142H344.047ZM340.26 132.042L337.521 124.743C337.167 123.819 336.801 122.686 336.425 121.343C336.189 122.374 335.851 123.507 335.41 124.743L332.639 132.042H340.26ZM352.861 132.203V142H350.122V118.442H356.583C359.473 118.442 361.605 118.996 362.98 120.102C364.366 121.208 365.059 122.874 365.059 125.097C365.059 128.212 363.479 130.318 360.321 131.414L366.718 142H363.479L357.775 132.203H352.861ZM352.861 129.851H356.615C358.549 129.851 359.967 129.469 360.869 128.707C361.771 127.933 362.223 126.778 362.223 125.242C362.223 123.685 361.761 122.562 360.837 121.875C359.924 121.187 358.452 120.843 356.422 120.843H352.861V129.851ZM385.329 142L382.396 134.507H372.954L370.054 142H367.282L376.596 118.346H378.9L388.165 142H385.329ZM381.542 132.042L378.803 124.743C378.449 123.819 378.083 122.686 377.708 121.343C377.471 122.374 377.133 123.507 376.692 124.743L373.921 132.042H381.542ZM409.805 142H406.679L393.805 122.229H393.676C393.848 124.549 393.934 126.676 393.934 128.61V142H391.404V118.442H394.498L407.34 138.133H407.469C407.447 137.843 407.399 136.914 407.324 135.345C407.249 133.766 407.222 132.638 407.243 131.961V118.442H409.805V142ZM403.231 116.525C402.769 116.525 402.318 116.428 401.877 116.235C401.437 116.031 401.002 115.811 400.572 115.574C400.153 115.327 399.745 115.107 399.348 114.914C398.961 114.709 398.585 114.607 398.22 114.607C397.683 114.607 397.274 114.769 396.995 115.091C396.727 115.413 396.517 115.902 396.367 116.557H394.788C394.927 115.257 395.303 114.242 395.916 113.512C396.539 112.771 397.339 112.4 398.316 112.4C398.811 112.4 399.289 112.502 399.75 112.706C400.212 112.899 400.653 113.12 401.072 113.367C401.491 113.603 401.894 113.823 402.28 114.027C402.667 114.221 403.032 114.317 403.376 114.317C403.902 114.317 404.294 114.162 404.552 113.85C404.81 113.528 405.02 113.034 405.181 112.368H406.776C406.636 113.667 406.26 114.688 405.648 115.429C405.046 116.16 404.241 116.525 403.231 116.525ZM431.091 142L428.158 134.507H418.716L415.815 142H413.044L422.357 118.346H424.662L433.927 142H431.091ZM427.304 132.042L424.565 124.743C424.21 123.819 423.845 122.686 423.469 121.343C423.233 122.374 422.895 123.507 422.454 124.743L419.683 132.042H427.304Z" fill="black"/>
<path d="M339.326 174.553C336.737 174.553 334.69 175.418 333.187 177.147C331.693 178.866 330.947 181.224 330.947 184.221C330.947 187.304 331.667 189.689 333.106 191.375C334.556 193.051 336.619 193.889 339.293 193.889C340.937 193.889 342.812 193.594 344.917 193.003V195.404C343.284 196.016 341.27 196.322 338.875 196.322C335.405 196.322 332.725 195.27 330.834 193.164C328.954 191.059 328.014 188.067 328.014 184.189C328.014 181.761 328.465 179.634 329.368 177.808C330.281 175.982 331.591 174.575 333.299 173.586C335.018 172.598 337.038 172.104 339.358 172.104C341.829 172.104 343.988 172.555 345.835 173.458L344.675 175.81C342.892 174.972 341.109 174.553 339.326 174.553ZM364.865 196L361.933 188.507H352.49L349.59 196H346.818L356.132 172.346H358.436L367.701 196H364.865ZM361.079 186.042L358.339 178.743C357.985 177.819 357.62 176.686 357.244 175.343C357.007 176.374 356.669 177.507 356.229 178.743L353.457 186.042H361.079ZM389.341 196H386.215L373.341 176.229H373.212C373.384 178.549 373.47 180.676 373.47 182.61V196H370.94V172.442H374.034L386.876 192.133H387.005C386.983 191.843 386.935 190.914 386.86 189.345C386.785 187.766 386.758 186.638 386.779 185.961V172.442H389.341V196ZM382.767 170.525C382.305 170.525 381.854 170.428 381.414 170.235C380.973 170.031 380.538 169.811 380.108 169.574C379.689 169.327 379.281 169.107 378.884 168.914C378.497 168.709 378.121 168.607 377.756 168.607C377.219 168.607 376.811 168.769 376.531 169.091C376.263 169.413 376.053 169.902 375.903 170.557H374.324C374.463 169.257 374.839 168.242 375.452 167.512C376.075 166.771 376.875 166.4 377.853 166.4C378.347 166.4 378.825 166.502 379.287 166.706C379.749 166.899 380.189 167.12 380.608 167.367C381.027 167.603 381.43 167.823 381.816 168.027C382.203 168.221 382.568 168.317 382.912 168.317C383.438 168.317 383.831 168.162 384.088 167.85C384.346 167.528 384.556 167.034 384.717 166.368H386.312C386.172 167.667 385.796 168.688 385.184 169.429C384.583 170.16 383.777 170.525 382.767 170.525ZM410.627 196L407.694 188.507H398.252L395.352 196H392.58L401.894 172.346H404.198L413.463 196H410.627ZM406.84 186.042L404.101 178.743C403.747 177.819 403.381 176.686 403.005 175.343C402.769 176.374 402.431 177.507 401.99 178.743L399.219 186.042H406.84Z" fill="black"/>
<circle cx="521.446" cy="23.3108" r="21.4459" fill="#D2D1C2"/>
<circle cx="521.446" cy="77.3919" r="21.4459" fill="#D2D1C2"/>
<circle cx="521.446" cy="130.541" r="21.4459" fill="#D2D1C2"/>
<circle cx="521.446" cy="184.622" r="21.4459" fill="#D2D1C2"/>
<path d="M656.326 13.5532C653.737 13.5532 651.69 14.418 650.187 16.1475C648.693 17.8662 647.947 20.2241 647.947 23.2212C647.947 26.3042 648.667 28.689 650.106 30.3755C651.556 32.0513 653.619 32.8892 656.293 32.8892C657.937 32.8892 659.812 32.5938 661.917 32.0029V34.4038C660.284 35.0161 658.27 35.3223 655.875 35.3223C652.405 35.3223 649.725 34.2695 647.834 32.1641C645.954 30.0586 645.014 27.0669 645.014 23.189C645.014 20.7612 645.465 18.6343 646.368 16.8081C647.281 14.9819 648.591 13.5747 650.299 12.5864C652.018 11.5981 654.038 11.104 656.358 11.104C658.829 11.104 660.988 11.5552 662.835 12.4575L661.675 14.8101C659.892 13.9722 658.109 13.5532 656.326 13.5532ZM681.865 35L678.933 27.5073H669.49L666.59 35H663.818L673.132 11.3457H675.436L684.701 35H681.865ZM678.079 25.042L675.339 17.7427C674.985 16.8188 674.62 15.6855 674.244 14.3428C674.007 15.374 673.669 16.5073 673.229 17.7427L670.457 25.042H678.079ZM690.679 25.2031V35H687.94V11.4424H694.401C697.291 11.4424 699.423 11.9956 700.798 13.1021C702.184 14.2085 702.877 15.8735 702.877 18.0972C702.877 21.2124 701.298 23.3179 698.14 24.4136L704.537 35H701.298L695.594 25.2031H690.679ZM690.679 22.8506H694.434C696.367 22.8506 697.785 22.4692 698.688 21.7065C699.59 20.9331 700.041 19.7783 700.041 18.2422C700.041 16.6846 699.579 15.562 698.655 14.8745C697.742 14.187 696.271 13.8433 694.24 13.8433H690.679V22.8506ZM727.144 22.9956C727.144 26.8843 726.085 29.8599 723.969 31.9224C721.864 33.9741 718.829 35 714.865 35H708.339V11.4424H715.558C719.221 11.4424 722.068 12.4575 724.098 14.4878C726.128 16.5181 727.144 19.354 727.144 22.9956ZM724.243 23.0923C724.243 20.02 723.47 17.7051 721.923 16.1475C720.387 14.5898 718.099 13.811 715.059 13.811H711.079V32.6313H714.414C717.68 32.6313 720.134 31.8311 721.778 30.2305C723.421 28.6191 724.243 26.2397 724.243 23.0923ZM745.545 35H732.413V11.4424H745.545V13.8755H735.152V21.4648H744.917V23.8818H735.152V32.5508H745.545V35ZM769.183 35H766.057L753.183 15.229H753.054C753.226 17.5493 753.312 19.6763 753.312 21.6099V35H750.782V11.4424H753.875L766.718 31.1328H766.847C766.825 30.8428 766.777 29.9136 766.702 28.3452C766.626 26.7661 766.6 25.6382 766.621 24.9614V11.4424H769.183V35ZM790.469 35L787.536 27.5073H778.094L775.193 35H772.422L781.735 11.3457H784.04L793.305 35H790.469ZM786.682 25.042L783.943 17.7427C783.588 16.8188 783.223 15.6855 782.847 14.3428C782.611 15.374 782.272 16.5073 781.832 17.7427L779.061 25.042H786.682ZM796.543 35V11.4424H799.283V32.5186H809.676V35H796.543Z" fill="black"/>
<path d="M656.326 67.5532C653.737 67.5532 651.69 68.418 650.187 70.1475C648.693 71.8662 647.947 74.2241 647.947 77.2212C647.947 80.3042 648.667 82.689 650.106 84.3755C651.556 86.0513 653.619 86.8892 656.293 86.8892C657.937 86.8892 659.812 86.5938 661.917 86.0029V88.4038C660.284 89.0161 658.27 89.3223 655.875 89.3223C652.405 89.3223 649.725 88.2695 647.834 86.1641C645.954 84.0586 645.014 81.0669 645.014 77.189C645.014 74.7612 645.465 72.6343 646.368 70.8081C647.281 68.9819 648.591 67.5747 650.299 66.5864C652.018 65.5981 654.038 65.104 656.358 65.104C658.829 65.104 660.988 65.5552 662.835 66.4575L661.675 68.8101C659.892 67.9722 658.109 67.5532 656.326 67.5532ZM681.865 89L678.933 81.5073H669.49L666.59 89H663.818L673.132 65.3457H675.436L684.701 89H681.865ZM678.079 79.042L675.339 71.7427C674.985 70.8188 674.62 69.6855 674.244 68.3428C674.007 69.374 673.669 70.5073 673.229 71.7427L670.457 79.042H678.079ZM690.679 79.2031V89H687.94V65.4424H694.401C697.291 65.4424 699.423 65.9956 700.798 67.1021C702.184 68.2085 702.877 69.8735 702.877 72.0972C702.877 75.2124 701.298 77.3179 698.14 78.4136L704.537 89H701.298L695.594 79.2031H690.679ZM690.679 76.8506H694.434C696.367 76.8506 697.785 76.4692 698.688 75.7065C699.59 74.9331 700.041 73.7783 700.041 72.2422C700.041 70.6846 699.579 69.562 698.655 68.8745C697.742 68.187 696.271 67.8433 694.24 67.8433H690.679V76.8506ZM723.147 89L720.215 81.5073H710.772L707.872 89H705.101L714.414 65.3457H716.718L725.983 89H723.147ZM719.361 79.042L716.622 71.7427C716.267 70.8188 715.902 69.6855 715.526 68.3428C715.29 69.374 714.951 70.5073 714.511 71.7427L711.739 79.042H719.361ZM739.309 67.5532C736.72 67.5532 734.674 68.418 733.17 70.1475C731.677 71.8662 730.93 74.2241 730.93 77.2212C730.93 80.3042 731.65 82.689 733.089 84.3755C734.54 86.0513 736.602 86.8892 739.277 86.8892C740.92 86.8892 742.795 86.5938 744.9 86.0029V88.4038C743.268 89.0161 741.253 89.3223 738.858 89.3223C735.388 89.3223 732.708 88.2695 730.817 86.1641C728.938 84.0586 727.998 81.0669 727.998 77.189C727.998 74.7612 728.449 72.6343 729.351 70.8081C730.264 68.9819 731.575 67.5747 733.283 66.5864C735.001 65.5981 737.021 65.104 739.341 65.104C741.812 65.104 743.971 65.5552 745.819 66.4575L744.659 68.8101C742.875 67.9722 741.092 67.5532 739.309 67.5532ZM770.488 77.189C770.488 80.9595 769.532 83.9243 767.62 86.0835C765.719 88.2427 763.071 89.3223 759.676 89.3223C756.207 89.3223 753.526 88.2642 751.636 86.1479C749.756 84.021 748.816 81.0239 748.816 77.1567C748.816 73.3218 749.761 70.3516 751.652 68.2461C753.542 66.1299 756.228 65.0718 759.708 65.0718C763.092 65.0718 765.735 66.146 767.636 68.2944C769.538 70.4429 770.488 73.4077 770.488 77.189ZM751.716 77.189C751.716 80.3794 752.393 82.8018 753.747 84.4561C755.111 86.0996 757.087 86.9214 759.676 86.9214C762.287 86.9214 764.258 86.0996 765.59 84.4561C766.922 82.8125 767.588 80.3901 767.588 77.189C767.588 74.02 766.922 71.6191 765.59 69.9863C764.269 68.3428 762.308 67.521 759.708 67.521C757.098 67.521 755.111 68.3481 753.747 70.0024C752.393 71.646 751.716 74.0415 751.716 77.189ZM775.757 89V65.4424H778.497V86.5186H788.89V89H775.757Z" fill="black"/>
<path d="M656.326 120.553C653.737 120.553 651.69 121.418 650.187 123.147C648.693 124.866 647.947 127.224 647.947 130.221C647.947 133.304 648.667 135.689 650.106 137.375C651.556 139.051 653.619 139.889 656.293 139.889C657.937 139.889 659.812 139.594 661.917 139.003V141.404C660.284 142.016 658.27 142.322 655.875 142.322C652.405 142.322 649.725 141.27 647.834 139.164C645.954 137.059 645.014 134.067 645.014 130.189C645.014 127.761 645.465 125.634 646.368 123.808C647.281 121.982 648.591 120.575 650.299 119.586C652.018 118.598 654.038 118.104 656.358 118.104C658.829 118.104 660.988 118.555 662.835 119.458L661.675 121.81C659.892 120.972 658.109 120.553 656.326 120.553ZM681.865 142L678.933 134.507H669.49L666.59 142H663.818L673.132 118.346H675.436L684.701 142H681.865ZM678.079 132.042L675.339 124.743C674.985 123.819 674.62 122.686 674.244 121.343C674.007 122.374 673.669 123.507 673.229 124.743L670.457 132.042H678.079ZM690.679 132.203V142H687.94V118.442H694.401C697.291 118.442 699.423 118.996 700.798 120.102C702.184 121.208 702.877 122.874 702.877 125.097C702.877 128.212 701.298 130.318 698.14 131.414L704.537 142H701.298L695.594 132.203H690.679ZM690.679 129.851H694.434C696.367 129.851 697.785 129.469 698.688 128.707C699.59 127.933 700.041 126.778 700.041 125.242C700.041 123.685 699.579 122.562 698.655 121.875C697.742 121.187 696.271 120.843 694.24 120.843H690.679V129.851ZM715.59 142H712.851V120.875H705.391V118.442H723.051V120.875H715.59V142ZM739.744 142H726.612V118.442H739.744V120.875H729.351V128.465H739.116V130.882H729.351V139.551H739.744V142ZM747.72 132.203V142H744.981V118.442H751.442C754.332 118.442 756.464 118.996 757.839 120.102C759.225 121.208 759.918 122.874 759.918 125.097C759.918 128.212 758.339 130.318 755.181 131.414L761.578 142H758.339L752.635 132.203H747.72ZM747.72 129.851H751.475C753.408 129.851 754.826 129.469 755.729 128.707C756.631 127.933 757.082 126.778 757.082 125.242C757.082 123.685 756.62 122.562 755.696 121.875C754.783 121.187 753.312 120.843 751.281 120.843H747.72V129.851ZM785.828 130.189C785.828 133.959 784.872 136.924 782.96 139.083C781.059 141.243 778.411 142.322 775.016 142.322C771.546 142.322 768.866 141.264 766.976 139.148C765.096 137.021 764.156 134.024 764.156 130.157C764.156 126.322 765.101 123.352 766.992 121.246C768.882 119.13 771.568 118.072 775.048 118.072C778.432 118.072 781.075 119.146 782.976 121.294C784.877 123.443 785.828 126.408 785.828 130.189ZM767.056 130.189C767.056 133.379 767.733 135.802 769.086 137.456C770.451 139.1 772.427 139.921 775.016 139.921C777.626 139.921 779.598 139.1 780.93 137.456C782.262 135.812 782.928 133.39 782.928 130.189C782.928 127.02 782.262 124.619 780.93 122.986C779.608 121.343 777.648 120.521 775.048 120.521C772.438 120.521 770.451 121.348 769.086 123.002C767.733 124.646 767.056 127.042 767.056 130.189Z" fill="black"/>
<path d="M656.326 174.553C653.737 174.553 651.69 175.418 650.187 177.147C648.693 178.866 647.947 181.224 647.947 184.221C647.947 187.304 648.667 189.689 650.106 191.375C651.556 193.051 653.619 193.889 656.293 193.889C657.937 193.889 659.812 193.594 661.917 193.003V195.404C660.284 196.016 658.27 196.322 655.875 196.322C652.405 196.322 649.725 195.27 647.834 193.164C645.954 191.059 645.014 188.067 645.014 184.189C645.014 181.761 645.465 179.634 646.368 177.808C647.281 175.982 648.591 174.575 650.299 173.586C652.018 172.598 654.038 172.104 656.358 172.104C658.829 172.104 660.988 172.555 662.835 173.458L661.675 175.81C659.892 174.972 658.109 174.553 656.326 174.553ZM681.865 196L678.933 188.507H669.49L666.59 196H663.818L673.132 172.346H675.436L684.701 196H681.865ZM678.079 186.042L675.339 178.743C674.985 177.819 674.62 176.686 674.244 175.343C674.007 176.374 673.669 177.507 673.229 178.743L670.457 186.042H678.079ZM690.679 186.203V196H687.94V172.442H694.401C697.291 172.442 699.423 172.996 700.798 174.102C702.184 175.208 702.877 176.874 702.877 179.097C702.877 182.212 701.298 184.318 698.14 185.414L704.537 196H701.298L695.594 186.203H690.679ZM690.679 183.851H694.434C696.367 183.851 697.785 183.469 698.688 182.707C699.59 181.933 700.041 180.778 700.041 179.242C700.041 177.685 699.579 176.562 698.655 175.875C697.742 175.187 696.271 174.843 694.24 174.843H690.679V183.851ZM723.147 196L720.215 188.507H710.772L707.872 196H705.101L714.414 172.346H716.718L725.983 196H723.147ZM719.361 186.042L716.622 178.743C716.267 177.819 715.902 176.686 715.526 175.343C715.29 176.374 714.951 177.507 714.511 178.743L711.739 186.042H719.361ZM739.309 174.553C736.72 174.553 734.674 175.418 733.17 177.147C731.677 178.866 730.93 181.224 730.93 184.221C730.93 187.304 731.65 189.689 733.089 191.375C734.54 193.051 736.602 193.889 739.277 193.889C740.92 193.889 742.795 193.594 744.9 193.003V195.404C743.268 196.016 741.253 196.322 738.858 196.322C735.388 196.322 732.708 195.27 730.817 193.164C728.938 191.059 727.998 188.067 727.998 184.189C727.998 181.761 728.449 179.634 729.351 177.808C730.264 175.982 731.575 174.575 733.283 173.586C735.001 172.598 737.021 172.104 739.341 172.104C741.812 172.104 743.971 172.555 745.819 173.458L744.659 175.81C742.875 174.972 741.092 174.553 739.309 174.553ZM770.488 184.189C770.488 187.959 769.532 190.924 767.62 193.083C765.719 195.243 763.071 196.322 759.676 196.322C756.207 196.322 753.526 195.264 751.636 193.148C749.756 191.021 748.816 188.024 748.816 184.157C748.816 180.322 749.761 177.352 751.652 175.246C753.542 173.13 756.228 172.072 759.708 172.072C763.092 172.072 765.735 173.146 767.636 175.294C769.538 177.443 770.488 180.408 770.488 184.189ZM751.716 184.189C751.716 187.379 752.393 189.802 753.747 191.456C755.111 193.1 757.087 193.921 759.676 193.921C762.287 193.921 764.258 193.1 765.59 191.456C766.922 189.812 767.588 187.39 767.588 184.189C767.588 181.02 766.922 178.619 765.59 176.986C764.269 175.343 762.308 174.521 759.708 174.521C757.098 174.521 755.111 175.348 753.747 177.002C752.393 178.646 751.716 181.042 751.716 184.189ZM775.757 196V172.442H778.497V193.519H788.89V196H775.757Z" fill="black"/>
<circle cx="845.446" cy="23.3108" r="21.4459" fill="#D2D1C2"/>
<circle cx="845.446" cy="77.3919" r="21.4459" fill="#D2D1C2"/>
<circle cx="845.446" cy="130.541" r="21.4459" fill="#D2D1C2"/>
<circle cx="845.446" cy="184.622" r="21.4459" fill="#D2D1C2"/>
<path d="M327 306H539" stroke="#231F20" stroke-width="3" stroke-linecap="round" stroke-linejoin="round" stroke-dasharray="6 6"/>
<path d="M645 306H857" stroke="#231F20" stroke-width="3" stroke-linecap="round" stroke-linejoin="round" stroke-dasharray="6 6"/>
</svg>
