<?xml version="1.0" encoding="utf-8"?>
<!-- Generator: Adobe Illustrator 23.0.1, SVG Export Plug-In . SVG Version: 6.00 Build 0)  -->
<svg version="1.1" id="Layer_1" xmlns="http://www.w3.org/2000/svg" xmlns:xlink="http://www.w3.org/1999/xlink" x="0px" y="0px"
	 viewBox="0 0 950 691" style="enable-background:new 0 0 950 691;" xml:space="preserve">
<style type="text/css">
	.st0{fill:#79A637;}
	.st1{fill-rule:evenodd;clip-rule:evenodd;fill:#00A0A4;}
	.st2{fill:#4FBCC1;}
	.st3{fill-rule:evenodd;clip-rule:evenodd;fill:#E3D7C2;}
	.st4{fill:#2FAC66;}
	.st5{fill:#010202;}
	.st6{fill:#DAD8CC;}
	.st7{fill:#A85318;}
	.st8{fill:#92C131;}
	.st9{fill:#3C3C3B;}
	.st10{fill:#814114;}
	.st11{fill:none;stroke:#DAD8CC;stroke-width:0.479;}
	.st12{fill:#1B8A4F;}
</style>
<path class="st0" d="M45.7,575.3c-6.1,41.4,11.1,23.9,54.8,37.8c43.8,13.9,197.9-8,249-7c51.1,0.9,158.2-24.6,361.9-18.2
	c203.7,6.4,19-63.3-51.1-82.5c-70.2-19.2-334.9-39.3-435.6-31.3C124,482.2,51.8,534,45.7,575.3z"/>
<path class="st1" d="M196.3,551.4c0,0-51.7-25.6,161.8-12.7c140.1,8.5,139.6,20.7,240.9,8.2c96-27,163-0.6,193,10.1
	c49.2,17.5,164.3,117.1,103,80.6c-61.3-36.6-86.1-44.6-117.4-46.9c-119.4-8.7-117.8-7-184.4,0c-108.5,11.4-22.7,46.9-362.7,46.9
	C130,632.5,41.9,615.2,26.5,601C11,586.8-7.2,551.4,130.9,562.1C245.3,565.1,215.1,559.9,196.3,551.4z"/>
<path class="st2" d="M251.3,576.3c2-0.8,5.3-1,7.6-1.7c0.3-0.1,0.1,0.2,0.7,0c2.3-0.7,6.2-1.2,9.4-1.5l-0.1,0.1
	c0.6,0,1.2-0.3,1.8-0.4c0,0-0.2,0.1,0,0.1c0.1-0.1,1.1-0.2,1.3-0.4c0.3,0,0.3,0.1,0.6,0.1l0.3-0.2c0.8-0.4,2.4-0.3,3.6-0.7
	c-0.1,0-0.2,0.1,0,0.1c2-0.5,4.7-0.8,7.1-1.2c-0.1,0.1-0.1,0.2,0,0.2c0.1-0.2,0.8-0.3,1.4-0.4c0.4,0.1,1-0.3,1.8-0.3l-0.1,0
	c0.5-0.2,0.9,0,1.3-0.2l0.4,0.1c0.2-0.2,0.9,0,1.3-0.1l0,0c0.4-0.1,0.7,0,1.1-0.1l0,0c0.9-0.2,1.5-0.1,1.4-0.3
	c0.4,0.1-0.9,0.2-0.3,0.3c3.1-0.5,6.3-0.8,9.5-1.1c0.4,0,0.6,0,0.7,0.1c0.3-0.1,1.2-0.1,1.5-0.2c-0.1,0,0.2,0.1,0.4,0.1
	c0.6,0,0.6-0.2,1.2-0.2c-0.2,0.1-0.3,0.1-0.2,0.2c0.5-0.2,1.2-0.2,1.9-0.3c-0.1,0-0.2,0.1-0.2,0.1c0.7-0.2,1.3-0.1,1.9-0.2l-0.2,0.1
	c1,0,0.2-0.2,1.1-0.2c-0.2,0-0.1,0.1-0.1,0.1c0.8-0.2,2.1-0.3,2.9-0.4c0,0,0,0,0,0c0.9-0.1,1.8-0.1,2.7-0.2c0.4,0-0.1,0.2,0.8,0.1
	c-0.1-0.2,1.5-0.2,1-0.3c0.8,0,2,0,2.6-0.1c-0.3,0.1,0.4,0.2-0.2,0.3l0.5,0.1c-0.1,0.1-0.5,0-0.3,0.1c0.3,0,1.3-0.1,1.6-0.1
	c0.6-0.1,1.1-0.4,2.1-0.4c-0.5,0.1,0.3,0.2,0,0.2l1.3-0.4c0.3,0,0.1,0.1,0.6,0.1c0,0,0.2-0.1,0.3-0.1c0.1,0,1.4-0.1,1.5,0.1
	c0.1,0.1-0.5,0.1-0.2,0.1c0.6,0,0.6-0.1,1.2-0.1l0,0c0.4,0,1.2-0.1,0.7-0.2c-0.3,0,0.1,0.1-0.3,0.1c0.3-0.1,1-0.2,1.6-0.2
	c-0.2,0-0.2,0.1-0.3,0.1c0.8-0.2,1.7-0.2,2.6-0.3c0-0.1-0.3,0.2-0.5,0.1c1.2,0.1,2.4-0.2,3.4,0c-0.2,0-0.1-0.1-0.1-0.1
	c0.6,0,0.5,0.1,0.9,0.1c0,0.1,0.5,0,0.8-0.1c0.2-0.1,0.1,0-0.2,0c0.5-0.1,2.6-0.2,3.8-0.1c0,0,0.8-0.2,1-0.2l-0.1,0.1
	c0.3,0.1,0.9,0,1,0.1c0.6-0.1-2.3,0.1-1.5,0c0.2,0.1,1.1-0.2,1,0c0.6,0,1.1-0.1,1.6,0c-0.2,0-0.5,0.2,0,0.2c0.8,0,0.2-0.1,0.9-0.1
	l0.4,0c0-0.1,0.7,0,0.4-0.1c0.1,0.1,1.2,0,1.1,0.1l-0.1,0.1c0.3,0,0.6-0.1,0.9-0.2c0,0,0.1,0,0.1,0.1c0.1-0.2,0.8,0,1.2-0.1
	c0.7,0.1,1.8,0,2.2,0.2c0.6-0.1,1.1-0.1,1.7-0.1c-0.1,0-0.3,0-0.3,0.1c0.4,0.1,0.5,0,0.9,0c-0.1,0,0.8,0.1,1.2,0.2
	c0.6-0.1,0.4-0.2,0.5-0.3c0.5,0.2,1.6-0.1,2.2,0.1c-0.2,0-0.8,0.1-0.4,0.2c0.5,0.2,1-0.1,1.8,0l-0.2-0.2c0.3,0.1,1.2-0.1,1.1,0.1
	c0.3-0.1,1,0.1,0.9-0.1c1.3,0.2,3.3,0,4,0.4c0.2,0,0.7,0,0.6-0.1c-0.3-0.1-0.5,0.1-0.6,0c0.2,0,0.2,0,0.2-0.1
	c0.4,0.1,0.7,0.1,0.3,0.2c0.9,0.1,1-0.3,2.2-0.2c-0.1,0.1,0,0.1,0.4,0.1l0.7-0.1c0.8,0.1,0.4,0.2,0.4,0.3c0.4,0,0.9,0,1.1-0.1
	l0.5,0.2c-0.3-0.1,0.3-0.1,0.5-0.1l-0.2,0c0.1,0.1,0.5,0,0.8,0c0-0.1-0.5-0.1-0.8-0.2c0.2,0,0.5,0,0.8-0.1c-0.1,0.1,0.6,0.1,1,0.1
	c0.4,0,0.4-0.1,0.5-0.1c0,0.1,0.6,0,0.3,0.1c-0.1,0-0.3-0.1-0.5,0c0.2,0.1,0.2,0.2,0.7,0.1c0.4,0,0-0.2,0.7-0.1
	c-0.2,0-0.2,0.1-0.4,0.1l0.7,0.1l0.1-0.1c0.1,0,0,0,0.1,0.1c0.2-0.1,1,0,1.2-0.1c0.3,0,0.7,0.1,1,0.1l-0.1,0c0.4,0.1,0.9,0.1,1.3,0
	l0,0c0.2,0,0.7,0,1,0c0.5,0.1,0.1,0.4,0.7,0.3c0.6,0,0.9-0.2,0.7-0.2c1,0.1,2.2,0,3,0.2c0.2,0,0.1-0.1,0.4-0.1
	c1.5,0.1,3.1,0,4.2,0.3c-0.4,0-0.1,0.1-0.1,0.2c0.4-0.1,0.4,0.1,0.6,0c0-0.1,0-0.2-0.4-0.2c0.9,0,2.2,0,2.7,0.2
	c-0.2-0.1,0-0.1,0.2-0.1c-0.1,0.2,0.5,0.2,1,0.2l0.1-0.1l0.3,0.1c0.2,0,0.3-0.2,0.7-0.1c0,0,0,0.1,0.1,0.1c0.5-0.1,1.3-0.2,1.8-0.1
	l0.4,0.2c0.2,0,0.7-0.1,0.3-0.1c0.9,0.1,1.5,0.2,1.8,0.3c1.7-0.2,4-0.1,5.9,0l-0.1,0.1c0.5,0.1,0.3-0.1,0.6-0.1
	c-0.2,0.1,0.3,0.2-0.1,0.2c0.7,0.1,1-0.1,1.4-0.1c0.1-0.1-0.4,0-0.3-0.1c0.1,0,1,0.1,1.1,0c0.2,0.1,0,0.2-0.1,0.2l0.4-0.1
	c0.5,0.2-1.3,0.3-0.8,0.5l0.4,0c0.4,0.2-1.1,0.1-0.1,0.2c0.5-0.1,0.9-0.3,0.5-0.3c0.9,0,0.5-0.3,1.5-0.3c0.3,0.1-0.8,0-0.6,0.1
	c0.4,0.1,0.9,0,1.4,0c-0.4-0.1,0-0.2,0.3-0.2c0.5,0.1-0.4,0.1,0.4,0.2c0.1-0.1,0.8-0.1,0.3-0.2c0.3-0.2,0.7,0.1,1.1-0.1
	c0.2,0.1-0.8,0.3,0,0.4c-0.1-0.1,1-0.1,0.6-0.3c0.3,0,0.3,0.2,0.1,0.2c0.4,0.1,1.1-0.2,1.2,0.1l0.1-0.1c0.1,0,0.3,0.1,0.5,0.2
	c0.4,0,1.3-0.1,1.2,0.1c0.1,0,1,0,0.7-0.1c-0.5-0.1-0.6,0.1-0.9-0.1c0.4,0.2,0.8,0,1.1,0l0,0.1c0.2,0,0.6,0,0.8-0.1
	c-0.2,0-0.1,0.1,0.1,0.1l0.2-0.1c0.8,0,0.1,0.2,0.9,0.2l-0.6,0.1c0.1,0,0.4,0.1,0.7,0.1c0.2-0.1,0.4-0.2,0.6-0.3
	c0.4,0,0.2,0.1,0.6,0l-0.6,0.1c-0.1,0,0.3,0.2,0.9,0.2c0.4,0,0.9-0.2,0.4-0.2c0.3,0,0.7,0.1,0.4,0.2c0.6,0-0.1-0.1,0.5-0.2
	c0.2,0.1,0.9,0.2,1.3,0.3l-0.6,0.2l0.4,0c-0.5,0.1,0.2,0.1-0.1,0.3c0.3,0,0.6,0,0.8,0c-0.7-0.3,0.9-0.3,0.7-0.5
	c1.1,0,0.6,0.6,1.7,0.2c-0.2-0.1,0.4-0.2-0.3-0.2c0.6,0,0.5-0.2,1.2-0.1c-0.6,0.1,0.6,0.2-0.3,0.4c0.1-0.1-0.4-0.1-0.6,0
	c0.3,0.1-0.1,0.2,0.6,0.2c0.4,0,1,0,0.9-0.1c0-0.1-0.6,0-0.3-0.1c0.8,0,0.9,0.2,1.3-0.1c-0.5,0-0.6-0.1-0.6-0.2l0.6,0l-0.1,0.1
	c0.9,0.1,0.3-0.1,1.2-0.1l0.4,0.2c-0.2,0.1-1.3-0.1-1.2,0.1c0.6,0,0.8-0.1,1.4,0l-0.4,0c0.2,0,0.4,0.3,1.3,0.2
	c0.4-0.1,0.1-0.1,0.2-0.2c1,0,1.3-0.1,1.9-0.1c-0.1,0.2,1.1,0,0.4,0.2c-0.3-0.1-1.7-0.1-2.1,0c0.3,0.2-0.7,0-1,0.2
	c0.8,0,0.7,0.2,0.8,0.4c0.2,0,0.4,0,0.6-0.1c0.1-0.1-0.2-0.1-0.2-0.3c0.9,0,1.7,0,2.2-0.1c0.3,0.1,0.2,0.2-0.2,0.2c1,0,2.1,0,3.1,0
	c-0.6-0.2,1.1,0,0.7-0.2c-0.5,0-1-0.2-0.7-0.3c0.3,0,0,0.1,0.1,0.1c0.4-0.1,0.6,0.2,1.1,0c-0.9,0.1-0.2,0.2-0.4,0.4
	c0.7-0.1,0,0.1,0.6,0.1c0.7-0.1,1.5-0.1,2.3-0.2c0.9,0.1,2.4,0,3.2,0c0.4,0.1,0.1,0.3,0.6,0.3c0.6,0-0.4-0.2,0.4-0.1l-0.1,0
	c0.3,0,1.5,0.1,1.8-0.1l-0.3,0.2c0.2,0,0.3,0,0.4,0c0,0.1,0.2,0.1-0.1,0.2c0.5,0.1,1.1,0,1.6,0l-0.4-0.1c1-0.1,1.6,0,2.5,0l0,0.1
	l0.6-0.1c-0.1,0.1,0.4,0.2,0.7,0.1l-1.4,0.3c-0.4-0.1,0.4-0.1,0.2-0.2c-0.2-0.1-1.1-0.1-1.2,0.1c0.3,0,0.3,0,0.6-0.1
	c0.1,0.2-0.4,0.2-0.6,0.3c0.2,0,0.4,0,0.4,0c-0.3,0.1-0.7,0.1-1.2,0.1c0.4-0.1-0.2-0.1-0.1-0.1c0,0.1-0.6,0.2-1.3,0.2
	c-0.5-0.2-1.3,0.1-2.1,0.1c0.3-0.1,0.7-0.3,1.2-0.3c-0.5-0.1-0.6,0-1.1-0.1c-0.2,0.1-0.4,0.3-1.1,0.3l0-0.1
	c-0.6,0.1-0.6,0.2-1.4,0.2c-1.3,0-2.6,0-3.6-0.1l0-0.1c-0.6,0.2-1.8,0.1-2.6,0.2c-1.3-0.1-2.8,0.1-3.4-0.1c-2.2,0-4.2,0.1-6.5,0
	l0.4-0.1c-0.4,0.1-0.3-0.1-0.7-0.1c0.5,0.1-0.6,0.1-0.9,0.2c-1-0.1-2.3,0-3.3,0l0-0.1c-1,0.2-2,0-3.2-0.1c-0.1,0-0.3-0.1-0.7-0.1
	c-0.7,0.1-1,0.1-1.9,0.2c-0.7,0-1.7-0.1-2.4-0.2c-2.6,0.1-5.1-0.1-7.7-0.1l-0.2-0.1c-2.6,0.2-5.6-0.2-7.8-0.2l0.3-0.2
	c-0.7-0.1-1.5,0-1.4,0.1c-0.7-0.1-1.7,0-2.1-0.2c-0.7-0.1-0.9,0.1-1.5,0.1c-1.4-0.1-1.9-0.1-3.2-0.2l0.3,0c0.2,0,0.2-0.1-0.1-0.2
	c-0.5,0-1.8-0.1-1.3,0.1c-1.4-0.2-3.3,0-4.6-0.3c0.1,0.1-0.2,0.1-0.4,0.1c-1.2-0.1-2.5-0.2-3.5-0.2c-0.2,0,0.3-0.1-0.2-0.1
	c-0.3,0,0,0.1-0.4,0.1c-2,0-4-0.3-5.8-0.3c-3.2,0-6.5-0.2-9.6-0.3l0,0c-1.1,0.2-2.4-0.3-3.2,0c-0.2-0.1-0.9,0-0.7-0.1
	c-0.8,0.1-2.3-0.2-3.5,0l0.3,0c-1.2-0.1-2.2,0-3.5-0.1c0.1,0,0.4,0,0.4-0.1c-0.5-0.1-1.2,0.2-1.4-0.1c-0.3,0-0.2,0.1,0,0.1
	c-2.7-0.1-5.7,0-8.6,0c-2-0.1-0.1-0.4-1.7-0.2c-0.1,0-0.1,0.1-0.1,0c-0.6,0.1-1-0.3-1.4-0.1c0.2,0.1-0.3,0.1-0.3,0.2
	c-1.3-0.1-1.5-0.2-2.5-0.1l0.1-0.1c-1.2,0.2-2.5,0.1-3.5,0.4c-6.4,0.2-12.5,0.5-18.7,0.9c-6.1,0.3-12.1,0.9-18.3,1.4
	c-1.5-0.1-1.6,0-3.2,0.2c0,0,0.1-0.1,0-0.1c0,0.2-1.1,0.1-1.2,0.3c-2.3,0.2-4.4,0.5-6.7,0.8c0.4-0.1,0.5-0.2,0.1-0.1l-0.4,0.2
	l-0.1,0c-0.3,0.1-0.6,0.2-0.2,0.2c-5.8,0.9-11.6,1.4-17.2,2.4c-1.4,0.1-3.2,0.5-4.6,0.8c-4.4,0.5-8.3,1.1-12.5,2.1
	C249.3,577.2,249.6,576.7,251.3,576.3z"/>
<path class="st2" d="M355.3,554.6c-1.5,0.4-3.3-0.1-4.9,0.1c-0.2,0,0.1-0.2-0.3-0.2c-1.6,0.3-3.9-0.1-5.7-0.4l0.1-0.1
	c-0.3-0.1-0.8,0.1-1.2,0.1c0,0,0.1-0.1,0.1-0.1c-0.1,0.1-0.7,0-0.9,0.1c-0.1-0.1-0.1-0.2-0.3-0.2l-0.2,0.1c-0.7,0.3-1.4-0.1-2.3,0
	c0,0,0.1-0.1,0.1-0.1c-1.3,0.1-3,0-4.4,0c0.1-0.1,0.1-0.1,0.1-0.2c-0.1,0.2-0.6,0.2-1,0.2c-0.1-0.2-0.7,0.1-1.1,0l0,0
	c-0.4,0.1-0.5-0.1-0.8,0.1l-0.2-0.1c-0.2,0.2-0.5-0.2-0.8-0.1l0,0c-0.3,0-0.4-0.1-0.6-0.1l0,0c-0.6,0-0.9-0.1-0.9,0
	c-0.2-0.2,0.6,0,0.3-0.3c-1.9,0.1-3.8-0.1-5.7-0.2c-0.2-0.1-0.3-0.1-0.4-0.2c-0.2,0-0.7,0-0.9,0.1c0.1,0-0.1-0.1-0.2-0.1
	c-0.3-0.1-0.4,0.2-0.8,0.1c0.2,0,0.2-0.1,0.2-0.2c-0.4,0.1-0.8,0.1-1.2,0.1c0.1,0,0.2,0,0.2-0.1c-0.5,0.1-0.7-0.1-1.1,0l0.2-0.1
	c-0.6-0.2-0.2,0.2-0.7,0.1c0.1,0,0.1-0.1,0.1-0.1c-0.5,0.2-1.3,0-1.8,0.1l0,0c-0.5,0-1-0.1-1.6-0.1c-0.2-0.1,0.1-0.2-0.4-0.2
	c0,0.2-0.9,0-0.7,0.3c-0.5-0.1-1.2-0.2-1.5-0.1c0.2-0.1-0.2-0.3,0.2-0.3l-0.3-0.1c0.1-0.1,0.3,0,0.2-0.1c-0.2,0-0.8,0-0.9,0
	c-0.4,0.1-0.8,0.3-1.4,0.3c0.3-0.1-0.1-0.2,0.1-0.3l-0.9,0.3c-0.2,0,0-0.2-0.3-0.1c0,0.1-0.1,0.1-0.2,0.1c-0.1,0-0.8,0-0.9-0.2
	c-0.1-0.1,0.3,0,0.1-0.1c-0.4,0-0.4,0-0.7,0l0,0c-0.2,0-0.7,0-0.5,0.2c0.2,0,0-0.1,0.2-0.1c-0.2,0.1-0.6,0.1-1,0.1
	c0.1,0,0.1-0.1,0.2-0.1c-0.5,0.1-1,0.1-1.6,0.2c0,0.1,0.2-0.2,0.3-0.1c-0.7-0.2-1.5,0.1-2-0.1c0.1,0,0,0.1,0,0.1
	c-0.3,0-0.3-0.2-0.5-0.1c0-0.1-0.3,0-0.5,0c-0.1,0-0.1,0,0.1,0c-0.3,0-1.6,0.1-2.3-0.1c0,0.1-0.5,0.2-0.6,0.2l0.1-0.1
	c-0.1-0.1-0.6,0-0.6-0.1c-0.4,0.1,1.4-0.1,0.9,0c-0.1-0.1-0.7,0.2-0.6,0c-0.3,0-0.7,0.1-1,0c0.1,0,0.3-0.2,0-0.2
	c-0.5,0-0.1,0.1-0.5,0.1l-0.2,0c0,0.1-0.4,0-0.3,0.1c0-0.1-0.7,0-0.6-0.2l0.1-0.2c-0.2,0-0.4,0.2-0.5,0.2l-0.1-0.1
	c-0.1,0.3-0.5,0-0.7,0.1c-0.4-0.1-1.1-0.1-1.3-0.2c-0.3,0.1-0.7,0.1-1,0.1c0.1,0,0.2,0,0.2-0.1c-0.2-0.1-0.3,0-0.5,0
	c0.1,0-0.5-0.2-0.7-0.3c-0.3,0.1-0.2,0.2-0.3,0.3c-0.3-0.3-0.9,0.1-1.3-0.1c0.1,0,0.5-0.1,0.2-0.2c-0.3-0.3-0.6,0.2-1.1,0l0.1,0.2
	c-0.2-0.1-0.7,0.1-0.6-0.1c-0.2,0.1-0.6-0.1-0.5,0.1c-0.8-0.2-1.9,0-2.4-0.4c-0.1,0-0.4,0-0.3,0.1c0.2,0.1,0.3-0.1,0.3,0
	c-0.1,0-0.1,0.1-0.1,0.1c-0.2-0.1-0.4-0.1-0.2-0.2c-0.5-0.1-0.6,0.3-1.3,0.2c0-0.1,0-0.1-0.2-0.1l-0.4,0.1c-0.5,0-0.2-0.2-0.2-0.3
	c-0.2,0-0.5,0-0.7,0.1l-0.3-0.2c0.2,0.1-0.2,0.1-0.3,0.1l0.1,0c0-0.1-0.3,0-0.5,0c0,0.1,0.3,0.1,0.5,0.2c-0.1,0.1-0.3,0-0.5,0.1
	c0.1-0.1-0.4-0.1-0.6-0.1c-0.2,0-0.3,0.1-0.3,0.1c0-0.1-0.4,0-0.2-0.1c0.1,0,0.2,0.1,0.3,0c-0.1-0.1-0.1-0.2-0.4-0.1
	c-0.2,0.1,0.1,0.3-0.4,0.2c0.1,0,0.1-0.1,0.2-0.1l-0.4-0.1l0,0.1c-0.1,0,0,0,0-0.1c-0.1,0.1-0.6,0-0.7,0.2c-0.2,0-0.4-0.1-0.6-0.1
	l0,0c-0.2-0.1-0.5,0-0.7,0l0,0c-0.1,0-0.4,0-0.6,0.1c-0.3-0.1-0.1-0.5-0.5-0.3c-0.3,0-0.5,0.2-0.4,0.3c-0.6-0.1-1.3,0.1-1.8-0.1
	c-0.1,0.1,0,0.1-0.2,0.1c-0.9-0.1-1.8,0.1-2.5-0.1c0.3,0,0-0.1,0-0.2c-0.2,0.1-0.3-0.1-0.3,0.1c0,0.1,0,0.2,0.3,0.2
	c-0.5,0.1-1.3,0.1-1.6,0c0.1,0.1,0,0.1-0.1,0.1c0-0.2-0.4-0.2-0.6-0.1l0,0.1l-0.2-0.1c-0.1,0-0.1,0.2-0.4,0.1l-0.1-0.1
	c-0.3,0.1-0.7,0.3-1,0.2l-0.3-0.2c-0.1,0-0.4,0.1-0.1,0.2c-0.6-0.1-0.9-0.1-1.1-0.2c-0.9,0.4-2.3,0.4-3.4,0.4l0-0.1
	c-0.3-0.1-0.1,0.1-0.3,0.1c0.1-0.1-0.3-0.2,0-0.3c-0.4-0.1-0.5,0.2-0.8,0.2c0,0.1,0.2-0.1,0.2,0.1c0,0-0.6-0.1-0.6,0.1
	c-0.1-0.1-0.1-0.2,0-0.3l-0.2,0.1c-0.4-0.2,0.6-0.4,0.2-0.6l-0.2,0c-0.3-0.2,0.6-0.2,0-0.3c-0.2,0.1-0.4,0.3-0.2,0.4
	c-0.5,0.1-0.2,0.4-0.7,0.4c-0.2-0.1,0.5-0.1,0.3-0.2c-0.3-0.1-0.5,0.1-0.8,0.1c0.3,0,0.1,0.2-0.1,0.3c-0.3-0.1,0.2-0.2-0.3-0.2
	c0,0.1-0.4,0.2-0.1,0.2c-0.1,0.2-0.4,0-0.6,0.1c-0.2-0.1,0.3-0.4-0.2-0.4c0.1,0.1-0.5,0.2-0.2,0.4c-0.2,0-0.2-0.1-0.1-0.2
	c-0.3-0.1-0.5,0.3-0.7,0l0,0.2c-0.1,0-0.2-0.1-0.4-0.1c-0.2,0-0.7,0.2-0.7,0c-0.1,0-0.6,0-0.3,0.2c0.3,0.1,0.3-0.1,0.6,0.1
	c-0.3-0.2-0.4,0-0.6,0.1l-0.1-0.1c-0.1,0-0.4,0-0.4,0.1c0.1-0.1,0-0.1-0.1-0.1l-0.1,0.1c-0.4,0.1-0.2-0.2-0.6-0.1l0.3-0.1
	c-0.1,0-0.3-0.1-0.4,0c0,0.1-0.1,0.3-0.2,0.4c-0.2,0.1-0.2-0.1-0.3,0l0.3-0.2c0,0-0.3-0.2-0.6-0.1c-0.2,0.1-0.4,0.3-0.1,0.3
	c-0.2,0-0.4,0-0.3-0.1c-0.3,0.1,0.1,0.1-0.2,0.2c-0.2-0.1-0.6-0.1-0.9-0.2l0.2-0.2l-0.2,0c0.2-0.2-0.2-0.1-0.1-0.3
	c-0.2,0-0.3,0.1-0.4,0.1c0.6,0.2-0.3,0.4-0.1,0.6c-0.6,0.1-0.6-0.6-1.1-0.1c0.1,0.1-0.1,0.3,0.3,0.2c-0.4,0-0.1,0.3-0.6,0.2
	c0.3-0.1-0.5-0.2-0.1-0.4c0,0.1,0.3,0,0.4,0c-0.2-0.1-0.1-0.3-0.5-0.2c-0.2,0-0.5,0.1-0.4,0.2c0.1,0.1,0.3-0.1,0.3,0.1
	c-0.4,0.1-0.6-0.1-0.7,0.2c0.3,0,0.4,0.1,0.5,0.2l-0.3,0.1l0-0.1c-0.6,0-0.1,0.2-0.6,0.2l-0.3-0.2c0-0.2,0.8,0,0.6-0.3
	c-0.3,0-0.4,0.2-0.7,0.1l0.2-0.1c-0.1,0-0.4-0.3-0.8,0c-0.2,0.1,0,0.1,0,0.2c-0.5,0.1-0.6,0.2-1,0.3c0-0.2-0.6,0.1-0.3-0.2
	c0.2,0.1,1,0,1.1-0.2c-0.3-0.2,0.4,0,0.4-0.3c-0.4,0.1-0.5-0.2-0.7-0.3c-0.1,0-0.2,0.1-0.3,0.1c0,0.1,0.2,0.1,0.3,0.3
	c-0.5,0-0.9,0.2-1.1,0.3c-0.2,0-0.2-0.2,0-0.2c-0.6,0.1-1.2,0.2-1.8,0.2c0.5,0.2-0.6,0.1-0.2,0.3c0.3,0,0.7,0.1,0.6,0.2
	c-0.2,0-0.1-0.1-0.2-0.1c-0.2,0.2-0.5-0.1-0.6,0.1c0.5-0.1-0.1-0.3-0.1-0.5c-0.3,0.1-0.1-0.1-0.4-0.1c-0.3,0.1-0.7,0.3-1.1,0.4
	c-0.7-0.1-1.3,0.2-1.8,0.3c-0.3,0-0.3-0.3-0.6-0.2c-0.3,0.1,0.4,0.2-0.1,0.2l0,0c-0.1,0.1-0.9,0-0.8,0.3l0-0.2
	c-0.1,0-0.1,0.1-0.2,0.1c-0.1-0.1-0.2-0.1-0.1-0.2c-0.4-0.1-0.6,0.1-0.9,0.2l0.3,0.1c-0.4,0.2-0.9,0.2-1.3,0.3l-0.1-0.1l-0.2,0.1
	c0-0.1-0.4-0.1-0.4,0l0.5-0.4c0.3,0-0.1,0.2,0.1,0.3c0.2,0.1,0.6,0,0.6-0.2c-0.2,0-0.2,0.1-0.3,0.1c-0.2-0.2,0.1-0.2,0.1-0.3
	c-0.1,0-0.3,0-0.2,0.1c0.1-0.1,0.3-0.2,0.6-0.2c-0.2,0.1,0.2,0.1,0.2,0.1c-0.1-0.1,0.2-0.3,0.6-0.3c0.4,0.1,0.6-0.2,1.1-0.3
	c-0.1,0.2-0.2,0.3-0.4,0.5c0.3,0,0.3-0.1,0.6,0c0-0.1,0-0.3,0.3-0.5l0.1,0.1c0.3-0.1,0.2-0.3,0.6-0.3c0.8-0.1,1.5-0.2,2.1-0.3
	l0.1,0.1c0.2-0.3,1-0.2,1.4-0.4c0.8,0,1.5-0.3,2-0.2c1.2-0.3,2.3-0.5,3.7-0.6l-0.1,0.2c0.2-0.1,0.2,0.1,0.4,0
	c-0.3-0.1,0.2-0.2,0.4-0.3c0.7,0.1,1.4-0.1,1.9-0.3l0.1,0.1c0.5-0.3,1.2-0.1,1.9-0.2c0.1,0,0.3,0.1,0.5,0.1c0.3-0.2,0.5-0.2,1-0.4
	c0.4,0,1.1,0,1.5,0c1.4-0.3,3-0.3,4.5-0.5l0.1,0.1c1.4-0.4,3.4-0.1,4.6-0.3l-0.1,0.2c0.4,0.1,0.9-0.1,0.8-0.2c0.4,0.1,1-0.1,1.3,0
	c0.4,0,0.5-0.1,0.8-0.2c0.8,0.1,1.2,0.1,1.9,0l-0.2,0c-0.1,0-0.1,0.1,0.1,0.2c0.3-0.1,1.1,0.1,0.8-0.2c0.8,0.2,1.9-0.1,2.8,0.1
	c-0.1-0.1,0.1-0.1,0.2-0.1c0.7,0,1.5,0.2,2.1,0c0.1,0-0.2,0.1,0.1,0.1c0.2,0,0-0.1,0.2-0.1c1.2-0.1,2.4,0.2,3.5,0.2
	c1.9-0.1,3.9,0,5.8,0.1l0,0.1c0.6-0.2,1.4,0.3,1.9,0c0.1,0.1,0.6,0,0.4,0.1c0.5-0.1,1.4,0.2,2.1,0l-0.2,0c0.7,0.2,1.4,0,2.1,0.1
	c-0.1,0-0.2,0-0.3,0.1c0.3,0.1,0.7-0.2,0.8,0.1c0.2,0,0.1-0.1,0-0.1c1.6,0.2,3.4,0.1,5.1,0.1c1.2,0.2,0,0.5,1,0.3
	c0.1,0.1,0.1-0.1,0.1,0c0.4-0.1,0.5,0.3,0.8,0.2c-0.1-0.2,0.2-0.1,0.2-0.2c0.7,0.1,0.9,0.3,1.5,0.2l-0.1,0.1c0.7-0.2,1.5,0,2.1-0.3
	c3.8,0.2,7.5,0.3,11.2,0.5c3.7,0.3,7.3,0.4,11,0.8c0.8,0.3,0.9,0.3,1.9,0.3c0,0-0.1,0,0,0.1c0.1-0.2,0.7,0,0.8-0.1
	c1.4,0.1,2.6,0.2,4.1,0.3c-0.2,0-0.4,0.1-0.1,0.2l0.3-0.1l0,0.1c0.2,0,0.4-0.1,0.2-0.2c3.6,0.1,7,0.7,10.5,0.8
	c0.8,0.1,2,0.1,2.9,0.1c2.6,0.4,5,0.6,7.7,0.6C356.8,554,356.4,554.5,355.3,554.6z"/>
<path class="st2" d="M134.6,599.1c0.5-0.5,1.4-0.3,2.1-0.6c0.1,0,0,0.2,0.2,0.1c0.6-0.4,1.7-0.4,2.6-0.2l0,0.1
	c0.2,0,0.3-0.2,0.5-0.2c0,0,0,0.1,0,0.1c0-0.1,0.3-0.1,0.3-0.2c0.1,0,0.1,0.1,0.2,0.2l0.1-0.2c0.2-0.4,0.6,0,1-0.3c0,0,0,0.1,0,0.1
	c0.5-0.3,1.3-0.3,1.9-0.5c0,0.1,0,0.2,0,0.2c0-0.2,0.2-0.2,0.3-0.3c0.1,0.2,0.3-0.2,0.5-0.1l0,0c0.1-0.2,0.2,0.1,0.3-0.1l0.1,0.1
	c0-0.2,0.2,0.1,0.3,0l0,0c0.1-0.1,0.2,0,0.3,0l0,0c0.2-0.1,0.4,0,0.4-0.2c0.1,0.1-0.2,0.1,0,0.3c0.8-0.3,1.7-0.3,2.5-0.4
	c0.1,0.1,0.2,0.1,0.2,0.1c0.1,0,0.3-0.1,0.4-0.2c0,0,0.1,0.1,0.1,0.1c0.2,0,0.1-0.2,0.3-0.2c-0.1,0.1-0.1,0.1,0,0.2
	c0.1-0.2,0.3-0.2,0.5-0.2c0,0-0.1,0.1,0,0.1c0.2-0.2,0.3,0,0.5-0.1l0,0.1c0.3,0.1,0-0.2,0.3-0.2c0,0,0,0.1,0,0.1
	c0.2-0.2,0.5-0.2,0.7-0.3v0c0.2,0,0.5,0,0.7-0.1c0.1,0,0,0.3,0.3,0.2c-0.1-0.2,0.4-0.1,0.2-0.3c0.2,0,0.6,0.1,0.7,0
	c-0.1,0.1,0.2,0.2,0,0.3l0.2,0.1c0,0.1-0.1,0-0.1,0.1c0.1,0,0.3-0.1,0.4-0.1c0.1-0.1,0.2-0.4,0.5-0.5c-0.1,0.1,0.1,0.2,0.1,0.3
	l0.3-0.4c0.1,0,0.1,0.2,0.2,0.1c0-0.1,0-0.1,0.1-0.1c0,0,0.3-0.1,0.4,0.1c0.1,0.1-0.1,0.1,0,0.1c0.2,0,0.1-0.1,0.3-0.1l0,0
	c0.1,0,0.3-0.1,0.1-0.2c-0.1,0,0.1,0.1-0.1,0.1c0-0.1,0.2-0.2,0.4-0.2c0,0,0,0.1,0,0.2c0.2-0.2,0.4-0.3,0.6-0.4c0-0.1,0,0.2-0.1,0.1
	c0.3,0.1,0.6-0.3,0.9-0.1c0,0-0.1-0.1,0-0.1c0.2,0,0.2,0.1,0.3,0.1c0,0.1,0.1,0,0.2-0.1c0-0.1,0,0,0,0.1c0.1-0.1,0.6-0.3,1-0.2
	c0,0,0.1-0.2,0.2-0.2l0,0.1c0.1,0.1,0.2,0,0.3,0.1c0.1-0.2-0.6,0.2-0.4,0.1c0.1,0.1,0.2-0.2,0.2-0.1c0.1,0,0.2-0.2,0.4-0.1
	c0,0-0.1,0.2,0,0.2c0.2,0,0-0.1,0.2-0.1l0.1-0.1c0-0.1,0.2,0,0.1-0.1c0.1,0.1,0.3-0.1,0.3,0.1l0,0.2c0.1,0,0.1-0.2,0.2-0.3l0.1,0.1
	c-0.1-0.3,0.2,0,0.3-0.2c0.2,0.1,0.5-0.1,0.6,0.1c0.1-0.1,0.2-0.2,0.4-0.2c0,0-0.1,0-0.1,0.1c0.1,0.1,0.1,0,0.2-0.1
	c0,0,0.2,0.1,0.4,0.2c0.1-0.1,0-0.2,0-0.3c0.2,0.2,0.4-0.2,0.6,0c0,0-0.2,0.2,0,0.2c0.2,0.2,0.2-0.2,0.5-0.1l-0.1-0.2
	c0.1,0.1,0.3-0.2,0.3,0c0.1-0.1,0.3,0,0.2-0.2c0.4,0.1,0.8-0.2,1.1,0.1c0,0,0.2,0,0.1-0.1c-0.1-0.1-0.1,0.1-0.1,0c0,0,0-0.1,0-0.1
	c0.1,0,0.2,0,0.2,0.2c0.3,0.1,0.1-0.4,0.5-0.4c0,0.1,0,0.1,0.1,0.1l0.1-0.2c0.2,0,0.2,0.2,0.2,0.3c0.1,0,0.2-0.1,0.2-0.2l0.2,0.1
	c-0.1-0.1,0.1-0.1,0.1-0.1l0,0c0,0.1,0.1,0,0.2,0c0-0.1-0.2-0.1-0.2-0.1c0-0.1,0.1-0.1,0.2-0.2c0,0.1,0.2,0.1,0.3,0.1
	c0.1,0,0.1-0.1,0.1-0.1c0,0.1,0.2,0,0.1,0.1c0,0-0.1-0.1-0.1,0c0.1,0,0.1,0.2,0.2,0c0.1-0.1-0.1-0.3,0.1-0.2c0,0,0,0.1,0,0.2l0.2,0
	l0-0.1c0,0,0,0,0,0.1c0-0.1,0.3-0.1,0.2-0.2c0.1,0,0.2,0,0.3,0l0,0c0.1,0,0.2,0,0.3-0.1l0,0c0.1,0,0.2,0,0.2-0.1
	c0.2,0.1,0.2,0.5,0.3,0.3c0.1,0,0.1-0.3,0.1-0.3c0.3,0,0.5-0.3,0.8-0.1c0-0.1,0-0.1,0-0.1c0.4,0,0.7-0.3,1.1-0.2
	c-0.1,0.1,0,0.1,0.1,0.2c0-0.1,0.1,0.1,0.1-0.1c-0.1-0.1-0.1-0.2-0.2-0.2c0.2-0.1,0.5-0.2,0.7-0.1c-0.1,0,0-0.1,0-0.1
	c0.1,0.2,0.2,0.2,0.3,0.1l0-0.1l0.1,0.1c0,0,0-0.2,0.1-0.2l0.1,0.1c0.1-0.1,0.2-0.3,0.4-0.3l0.2,0.1c0.1,0,0.1-0.2,0-0.2
	c0.3,0,0.4,0,0.5,0.1c0.3-0.5,0.8-0.7,1.3-0.8l0,0.1c0.2,0,0-0.2,0.1-0.1c0,0.1,0.2,0.1,0.1,0.3c0.2,0,0.2-0.2,0.3-0.3
	c0-0.1-0.1,0.1-0.1,0c0,0,0.3,0,0.2-0.2c0.1,0,0.1,0.2,0.1,0.2l0.1-0.1c0.2,0.1-0.1,0.4,0.1,0.6l0.1-0.1c0.2,0.1-0.2,0.3,0.1,0.2
	c0.1-0.1,0.1-0.4-0.1-0.4c0.2-0.1-0.1-0.4,0.2-0.5c0.1,0.1-0.2,0.1-0.1,0.2c0.2,0.1,0.2-0.2,0.3-0.2c-0.1,0-0.1-0.2-0.1-0.3
	c0.2,0,0,0.2,0.2,0.1c0-0.1,0.1-0.2-0.1-0.2c0-0.2,0.2,0,0.2-0.2c0.1,0.1,0,0.4,0.2,0.4c-0.1-0.1,0.1-0.3-0.1-0.4
	c0.1,0,0.2,0.1,0.1,0.2c0.1,0,0.1-0.4,0.3-0.1l0-0.2c0.1,0,0.1,0,0.2,0.1c0.1,0,0.2-0.3,0.3-0.1c0,0,0.2-0.1,0.1-0.2
	c-0.2,0-0.1,0.2-0.3,0c0.2,0.1,0.2-0.1,0.2-0.2l0.1,0.1c0,0,0.1-0.1,0.1-0.2c0,0.1,0,0.1,0.1,0.1l0-0.1c0.1-0.2,0.1,0.2,0.3,0.1
	l-0.1,0.2c0,0,0.1,0,0.2,0c0-0.1,0-0.3-0.1-0.4c0.1-0.1,0.1,0.1,0.1-0.1l-0.1,0.2c0,0,0.2,0.1,0.3,0.1c0.1-0.1,0.1-0.3-0.1-0.3
	c0.1,0,0.2,0,0.2,0.1c0.1-0.1-0.1-0.1,0-0.2c0.1,0,0.3,0.1,0.5,0.1l0,0.3l0.1,0c0,0.2,0.1,0.1,0.1,0.3c0.1,0,0.1-0.1,0.2-0.2
	c-0.3-0.2,0-0.4-0.2-0.6c0.2-0.2,0.5,0.5,0.5,0c-0.1,0-0.1-0.3-0.2-0.1c0.2-0.1,0-0.3,0.2-0.3c-0.1,0.2,0.3,0.2,0.2,0.4
	c0-0.1-0.1,0-0.2,0c0.1,0.1,0.1,0.2,0.3,0.2c0.1-0.1,0.2-0.1,0.1-0.2c-0.1-0.1-0.1,0.1-0.2-0.1c0.2-0.1,0.3,0,0.2-0.2
	c-0.1,0.1-0.2,0-0.3-0.1l0.1-0.1l0,0.1c0.2,0,0-0.2,0.2-0.3l0.2,0.1c0,0.2-0.3,0.1-0.2,0.3c0.1-0.1,0.1-0.2,0.3-0.2l-0.1,0.1
	c0.1,0,0.3,0.3,0.4,0c0-0.1,0-0.1-0.1-0.2c0.2-0.2,0.2-0.3,0.3-0.4c0.1,0.2,0.2-0.1,0.2,0.1c-0.1-0.1-0.4,0.2-0.4,0.4
	c0.2,0.2-0.2,0.1-0.1,0.3c0.2-0.1,0.3,0.1,0.4,0.2c0.1,0,0.1-0.1,0.1-0.1c-0.1-0.1-0.1-0.1-0.2-0.2c0.2-0.1,0.3-0.3,0.4-0.5
	c0.1,0,0.2,0.2,0.1,0.2c0.2-0.2,0.4-0.3,0.7-0.4c-0.3-0.1,0.2-0.2,0-0.3c-0.1,0-0.3,0-0.3-0.2c0.1,0,0.1,0.1,0.1,0.1
	c0-0.2,0.2,0.1,0.2-0.1c-0.2,0.2,0.1,0.3,0.2,0.4c0.1-0.2,0.1,0.1,0.2,0c0.1-0.2,0.2-0.4,0.4-0.5c0.3,0,0.5-0.4,0.6-0.5
	c0.1,0,0.2,0.2,0.3,0.2c0.1-0.1-0.2-0.1,0-0.2l0,0c0-0.1,0.4-0.1,0.2-0.4l0.1,0.2c0,0,0-0.1,0-0.1c0,0.1,0.1,0.1,0.1,0.2
	c0.2,0,0.2-0.2,0.3-0.3l-0.2,0c0.1-0.2,0.3-0.2,0.5-0.4l0.1,0.1l0.1-0.2c0.1,0.1,0.2,0.1,0.2,0l-0.1,0.5c-0.1,0,0-0.2-0.1-0.3
	c-0.1,0-0.3,0.1-0.2,0.2c0.1,0,0.1-0.1,0.1-0.1c0.1,0.1,0,0.2,0.1,0.3c0,0,0.1,0,0.1-0.1c0,0.1-0.1,0.2-0.2,0.3
	c0-0.1-0.1-0.1-0.1-0.1c0.1,0.1,0,0.3-0.1,0.3c-0.2-0.1-0.2,0.3-0.4,0.4c0-0.2,0-0.4,0-0.5c-0.1,0-0.1,0.1-0.3,0.1
	c0,0.1,0.1,0.3,0,0.5l-0.1-0.1c-0.1,0.2,0,0.3-0.1,0.4c-0.3,0.2-0.6,0.3-0.8,0.5l-0.1-0.1c0,0.3-0.3,0.3-0.4,0.5
	c-0.3,0.1-0.5,0.5-0.8,0.4c-0.4,0.4-0.8,0.8-1.4,1l0-0.2c0,0.2-0.1-0.1-0.2,0c0.2,0.1,0,0.2-0.1,0.4c-0.3,0-0.5,0.3-0.7,0.5
	l-0.1-0.1c-0.1,0.3-0.5,0.3-0.7,0.4c-0.1,0-0.2-0.1-0.2,0c-0.1,0.2-0.1,0.3-0.3,0.5c-0.2,0.1-0.4,0.1-0.6,0.1
	c-0.5,0.5-1.2,0.6-1.7,1l-0.1-0.1c-0.5,0.5-1.4,0.5-1.9,0.8l0-0.2c-0.2,0-0.4,0.2-0.3,0.3c-0.2,0-0.4,0.2-0.6,0.1
	c-0.2,0-0.2,0.2-0.3,0.3c-0.4,0-0.5,0.1-0.8,0.2l0.1,0c0-0.1,0-0.2-0.1-0.1c-0.1,0.1-0.5,0.1-0.3,0.3c-0.4-0.1-0.8,0.3-1.2,0.2
	c0.1,0.1,0,0.1,0,0.2c-0.3,0.1-0.7,0-0.9,0.2c-0.1,0,0-0.1-0.1-0.1c-0.1,0,0,0.1,0,0.2c-0.5,0.3-1.1,0.1-1.5,0.2
	c-0.8,0.3-1.7,0.4-2.5,0.6l0-0.1c-0.2,0.3-0.7-0.1-0.8,0.2c-0.1,0-0.3,0-0.2-0.1c-0.2,0.2-0.6,0-0.9,0.2l0.1,0
	c-0.3-0.1-0.6,0.1-0.9,0.1c0,0,0.1-0.1,0.1-0.1c-0.2-0.1-0.2,0.3-0.4,0c-0.1,0,0,0.1,0,0.1c-0.8,0-1.5,0.3-2.2,0.4
	c-0.6-0.1-0.1-0.4-0.5-0.2c0,0,0,0.1,0,0c-0.1,0.1-0.3-0.3-0.4-0.1c0.1,0.2-0.1,0.1,0,0.2c-0.4-0.1-0.5-0.2-0.7,0v-0.1
	c-0.2,0.3-0.6,0.2-0.8,0.5c-1.7,0.3-3.3,0.6-4.9,0.8c-1.7,0.1-3.2,0.4-4.9,0.4c-0.4-0.2-0.5-0.2-0.9,0c0,0,0,0,0-0.1
	c0,0.2-0.3,0.1-0.3,0.2c-0.6,0-1.2,0.1-1.8,0.2c0.1,0,0.1-0.2,0-0.2l-0.1,0.1l0,0c-0.1,0-0.1,0.1,0,0.2c-1.5,0.3-3.2,0.1-4.7,0.4
	c-0.4,0-0.9,0.1-1.3,0.2c-1.2-0.1-2.3-0.1-3.5,0.3C134.1,599.8,134.1,599.3,134.6,599.1z"/>
<path class="st2" d="M346.1,602.7c-1.6,0.5-3.8,0.1-5.5,0.5c-0.2,0,0-0.3-0.4-0.2c-1.7,0.4-4.4,0.4-6.5,0.2l0.1-0.1
	c-0.4,0-0.9,0.2-1.3,0.2c0-0.1,0.1-0.1,0-0.1c-0.1,0.2-0.8,0.1-0.9,0.2c-0.2,0-0.2-0.2-0.4-0.2l-0.2,0.2c-0.6,0.4-1.6,0.1-2.5,0.3
	c0,0,0.1-0.1,0-0.1c-1.4,0.3-3.3,0.4-4.9,0.6c0.1-0.1,0.1-0.2,0-0.2c0,0.2-0.5,0.3-1,0.3c-0.2-0.2-0.7,0.2-1.3,0.1l0,0
	c-0.3,0.2-0.6-0.1-0.8,0.2l-0.3-0.1c-0.1,0.3-0.6-0.1-0.9,0.1l0,0.1c-0.3,0.1-0.5,0-0.7,0l0,0c-0.6,0.1-1,0-1,0.2
	c-0.3-0.1,0.6-0.1,0.2-0.3c-2.1,0.3-4.3,0.4-6.4,0.6c-0.3-0.1-0.4-0.1-0.5-0.2c-0.2,0.1-0.8,0.1-1,0.2c0.1,0-0.2-0.1-0.3-0.1
	c-0.4-0.1-0.4,0.2-0.8,0.2c0.2-0.1,0.2-0.1,0.1-0.2c-0.3,0.2-0.8,0.2-1.2,0.3c0.1,0,0.2-0.1,0.1-0.1c-0.4,0.2-0.9,0-1.2,0.2l0.1-0.1
	c-0.7-0.1-0.1,0.3-0.7,0.2c0.1,0,0.1-0.1,0.1-0.1c-0.5,0.2-1.4,0.2-1.9,0.3l0-0.1c-0.6,0.1-1.2,0-1.8,0.2c-0.2,0,0-0.3-0.6-0.2
	c0.1,0.2-1,0.2-0.6,0.4c-0.5,0-1.4,0-1.7,0.1c0.2-0.1-0.3-0.3,0.1-0.3l-0.4-0.1c0-0.1,0.3,0,0.2-0.1c-0.2,0-0.8,0.2-1,0.1
	c-0.4,0.2-0.7,0.5-1.3,0.5c0.3-0.1-0.2-0.2,0-0.3l-0.8,0.5c-0.2,0-0.1-0.2-0.4-0.1c0,0.1-0.1,0.1-0.2,0.2c-0.1,0-0.9,0.1-1-0.1
	c-0.1-0.1,0.3-0.1,0.1-0.1c-0.4,0-0.4,0.1-0.8,0.1l0,0c-0.3,0-0.8,0.1-0.4,0.3c0.2,0-0.1-0.1,0.2-0.1c-0.2,0.1-0.6,0.2-1,0.2
	c0.1,0,0.1-0.1,0.1-0.2c-0.5,0.2-1.1,0.3-1.7,0.4c0,0.1,0.2-0.2,0.3-0.2c-0.8-0.1-1.6,0.3-2.3,0.1c0.1,0,0.1,0.2,0.1,0.1
	c-0.4,0-0.4-0.2-0.6-0.1c0-0.1-0.3,0-0.5,0.1c-0.1,0.1-0.1,0,0.1-0.1c-0.3,0.1-1.7,0.3-2.6,0.2c0,0.1-0.5,0.3-0.6,0.3l0-0.2
	c-0.2-0.1-0.6,0-0.7-0.1c-0.4,0.2,1.5-0.2,1-0.1c-0.2-0.1-0.7,0.3-0.6,0.1c-0.4,0-0.7,0.2-1.1,0.1c0.1,0,0.3-0.2,0-0.2
	c-0.5,0.1-0.1,0.1-0.6,0.1l-0.3,0.1c0,0.1-0.5,0-0.2,0.2c-0.1-0.1-0.8,0.1-0.8-0.1l0-0.2c-0.2,0-0.3,0.2-0.5,0.3l-0.1-0.1
	c0,0.3-0.6,0-0.8,0.2c-0.5-0.1-1.2,0.1-1.5-0.1c-0.4,0.1-0.7,0.2-1.1,0.2c0.1,0,0.2,0,0.2-0.1c-0.3-0.1-0.3,0-0.6,0.1
	c0,0-0.6-0.1-0.9-0.2c-0.4,0.1-0.2,0.2-0.2,0.3c-0.4-0.3-1,0.2-1.5,0c0.1,0,0.5-0.2,0.2-0.2c-0.4-0.3-0.7,0.2-1.2,0.1l0.2,0.2
	c-0.3-0.1-0.8,0.2-0.8-0.1c-0.2,0.1-0.7-0.1-0.6,0.2c-0.9-0.2-2.2,0.2-2.8-0.2c-0.1,0-0.4,0-0.4,0.1c0.2,0.1,0.3-0.1,0.4,0
	c-0.1,0-0.1,0.1-0.1,0.1c-0.3,0-0.5,0-0.3-0.2c-0.6-0.1-0.6,0.4-1.4,0.3c0-0.1,0-0.1-0.3-0.1l-0.4,0.2c-0.5,0-0.3-0.2-0.3-0.4
	c-0.3,0-0.6,0-0.7,0.2l-0.3-0.2c0.3,0.1-0.2,0.1-0.3,0.1l0.1,0c-0.1-0.1-0.4,0-0.5,0c0,0.1,0.4,0.1,0.6,0.2
	c-0.1,0.1-0.4,0.1-0.5,0.1c0.1-0.2-0.5-0.1-0.7-0.1c-0.2,0-0.3,0.1-0.3,0.1c0-0.1-0.4,0-0.2-0.1c0.1,0,0.2,0.1,0.3,0
	c-0.2-0.1-0.2-0.2-0.5-0.1c-0.3,0.1,0.1,0.3-0.4,0.2c0.1,0,0.1-0.1,0.2-0.2l-0.5-0.1l0,0.1c-0.1,0,0,0,0-0.1
	c-0.1,0.2-0.7,0.1-0.8,0.2c-0.2,0-0.5-0.1-0.7-0.1l0,0c-0.3-0.1-0.6,0-0.9,0.1l0,0c-0.1,0-0.5,0-0.7,0.1c-0.4-0.1-0.1-0.5-0.5-0.4
	c-0.4,0-0.6,0.3-0.4,0.3c-0.7-0.1-1.5,0.1-2.1-0.1c-0.1,0.1,0,0.1-0.2,0.1c-1-0.1-2.1,0.2-2.9-0.1c0.3-0.1,0-0.1,0-0.2
	c-0.2,0.1-0.3-0.1-0.4,0.1c0,0.1,0,0.2,0.3,0.2c-0.6,0.1-1.5,0.1-1.8-0.1c0.2,0.1,0,0.1-0.1,0.1c0.1-0.2-0.4-0.2-0.7-0.2l-0.1,0.1
	L251,608c-0.1,0-0.2,0.3-0.5,0.1l-0.1-0.1c-0.3,0.1-0.9,0.2-1.2,0.1l-0.3-0.2c-0.2,0-0.4,0.1-0.2,0.2c-0.6-0.1-1-0.2-1.2-0.3
	c-1.1,0.4-2.8,0.3-4,0.3l0.1-0.1c-0.3-0.1-0.2,0.2-0.4,0.1c0.1-0.1-0.2-0.2,0.1-0.3c-0.5-0.1-0.7,0.1-1,0.1
	c-0.1,0.1,0.3-0.1,0.2,0.1c-0.1,0-0.7-0.1-0.8,0c-0.1-0.1,0-0.2,0.1-0.3l-0.3,0.1c-0.3-0.2,0.9-0.3,0.6-0.6l-0.3,0
	c-0.2-0.2,0.8-0.2,0.1-0.3c-0.3,0.1-0.6,0.3-0.4,0.4c-0.6,0-0.4,0.4-1.1,0.4c-0.2-0.1,0.5,0,0.5-0.2c-0.3-0.2-0.6,0-0.9,0
	c0.3,0.1,0,0.3-0.2,0.3c-0.3-0.1,0.3-0.2-0.2-0.2c-0.1,0.1-0.6,0.2-0.2,0.3c-0.2,0.2-0.5-0.1-0.8,0.1c-0.1-0.2,0.6-0.4,0.1-0.5
	c0,0.2-0.7,0.2-0.5,0.4c-0.2-0.1-0.2-0.2,0-0.3c-0.3-0.1-0.8,0.3-0.8-0.1l-0.1,0.2c-0.1-0.1-0.2-0.1-0.3-0.2c-0.3,0-0.9,0.2-0.8-0.1
	c-0.1,0-0.7,0-0.5,0.2c0.3,0.1,0.5-0.1,0.6,0.1c-0.2-0.2-0.5,0-0.8,0l0-0.1c-0.1,0-0.4,0-0.5,0.1c0.1,0,0.1-0.1,0-0.1l-0.2,0.1
	c-0.5,0,0-0.3-0.6-0.3l0.4-0.1c-0.1,0-0.2-0.1-0.5-0.1c-0.1,0.1-0.4,0.3-0.5,0.4c-0.3,0-0.1-0.2-0.4-0.1l0.5-0.1
	c0.1,0-0.2-0.2-0.5-0.3c-0.3,0-0.7,0.2-0.4,0.3c-0.2,0-0.4-0.1-0.2-0.2c-0.5,0,0,0.1-0.4,0.2c-0.1-0.1-0.5-0.3-0.8-0.4l0.5-0.2
	l-0.3,0c0.4-0.1-0.1-0.2,0.1-0.3c-0.2,0-0.4,0-0.6,0c0.4,0.4-0.7,0.4-0.7,0.6c-0.7,0-0.2-0.7-1.1-0.4c0.1,0.1-0.3,0.3,0.1,0.2
	c-0.4-0.1-0.4,0.2-0.9,0.1c0.4-0.1-0.3-0.3,0.3-0.4c-0.1,0.1,0.3,0.1,0.4,0.1c-0.1-0.1,0.2-0.3-0.3-0.3c-0.3,0-0.7,0-0.7,0.1
	c-0.1,0.2,0.4,0,0.2,0.2c-0.6,0-0.6-0.2-0.9,0c0.4,0,0.4,0.2,0.3,0.3l-0.4,0l0.1-0.1c-0.6-0.1-0.3,0.2-0.9,0.1l-0.2-0.2
	c0.2-0.1,0.9,0.2,0.9-0.1c-0.4-0.1-0.6,0.1-0.9,0l0.3,0c-0.1,0-0.1-0.4-0.8-0.3c-0.3,0-0.1,0.1-0.2,0.2c-0.7-0.1-0.9,0-1.3,0
	c0.2-0.2-0.7-0.1-0.1-0.3c0.1,0.2,1.1,0.3,1.4,0.1c-0.1-0.3,0.5,0.1,0.7-0.1c-0.5-0.1-0.3-0.3-0.4-0.5c-0.1,0-0.3,0-0.4,0
	c-0.1,0.1,0,0.2,0,0.3c-0.5-0.1-1.1-0.1-1.5,0c-0.1-0.1,0-0.2,0.2-0.2c-0.7-0.1-1.4-0.2-2-0.3c0.3,0.3-0.7,0-0.6,0.2
	c0.3,0.1,0.5,0.3,0.2,0.4c-0.2,0,0.1-0.1,0-0.2c-0.4,0.1-0.3-0.3-0.7-0.1c0.7,0,0.3-0.3,0.5-0.5c-0.5,0,0.1-0.1-0.3-0.2
	c-0.5,0-1.1,0-1.6,0c-0.5-0.3-1.5-0.3-2.1-0.4c-0.2-0.2,0.1-0.3-0.1-0.4c-0.4-0.1,0.1,0.3-0.4,0.1l0.1,0c-0.2,0-0.8-0.3-1.2-0.1
	l0.3-0.2c-0.1,0-0.2,0-0.3,0c0.1-0.1,0-0.2,0.2-0.2c-0.2-0.2-0.7-0.1-1.1-0.2l0.1,0.2c-0.7,0-1-0.2-1.6-0.3l0.1-0.1l-0.4,0
	c0.2-0.1-0.1-0.3-0.3-0.2l1.2-0.1c0.2,0.1-0.4,0.1-0.4,0.3c0,0.1,0.6,0.2,0.8,0.1c-0.2-0.1-0.2,0-0.4,0c0.1-0.2,0.4-0.1,0.6-0.2
	c-0.1,0-0.2-0.1-0.3,0c0.3,0,0.5,0,0.9,0.1c-0.3,0,0,0.1-0.1,0.2c0.2-0.2,0.5-0.1,0.9,0c0.2,0.3,0.9,0,1.4,0.2
	c-0.3,0.1-0.7,0.2-1,0.2c0.3,0.1,0.3,0.1,0.6,0.2c0.2-0.1,0.5-0.3,1-0.2l-0.1,0.1c0.4,0,0.5-0.2,1,0c0.8,0.2,1.6,0.3,2.2,0.4
	l-0.1,0.1c0.5-0.2,1.2,0.1,1.8,0c0.7,0.2,1.8,0.1,2.1,0.4c1.5,0.1,2.8,0.2,4.3,0.4l-0.3,0.2c0.3-0.1,0.1,0.1,0.4,0.1
	c-0.2-0.2,0.5-0.2,0.7-0.2c0.6,0.2,1.5,0.1,2.2,0.1l0,0.1c0.7-0.2,1.3,0.1,2.1,0.2c0.1,0.1,0.2,0.2,0.4,0.2c0.5-0.2,0.7-0.1,1.3-0.2
	c0.4,0,1.1,0.1,1.6,0.2c1.7-0.2,3.4,0.1,5.1,0l0.1,0.2c1.7-0.2,3.7,0.1,5.2,0l-0.2,0.3c0.4,0.1,1,0,0.9-0.2c0.4,0.1,1.1-0.1,1.4,0.1
	c0.5,0.1,0.6-0.1,1-0.1c0.9,0.1,1.3,0.1,2.1,0l-0.2,0c-0.1,0.1-0.1,0.2,0.1,0.2c0.3-0.1,1.2,0.1,0.9-0.2c0.9,0.2,2.2-0.1,3.1,0.1
	c-0.1-0.1,0.2-0.1,0.2-0.2c0.8,0,1.7,0.2,2.3,0c0.1,0-0.2,0.1,0.1,0.2c0.2,0,0-0.1,0.2-0.2c1.3-0.2,2.7,0.1,3.9,0.1
	c2.1-0.2,4.4-0.1,6.4-0.3l0,0.1c0.7-0.3,1.6,0.2,2.1-0.2c0.2,0.1,0.6,0,0.5,0.1c0.5-0.2,1.6,0.1,2.3-0.1l-0.2,0
	c0.8,0.1,1.5-0.1,2.4,0c-0.1,0-0.2,0.1-0.3,0.1c0.4,0.1,0.7-0.3,1,0c0.2,0,0.1-0.2,0-0.1c1.9,0,3.8-0.3,5.7-0.4
	c1.4,0.1,0.2,0.5,1.2,0.2c0.1,0.1,0-0.1,0.1-0.1c0.4-0.1,0.7,0.3,1,0.1c-0.2-0.2,0.2-0.1,0.2-0.2c0.9,0.1,1.1,0.2,1.7,0.1l0,0.1
	c0.7-0.3,1.7-0.2,2.2-0.6c4.3-0.3,8.3-0.7,12.5-1c4.2-0.2,8.2-0.6,12.4-0.7c1,0.2,1.1,0.2,2.2,0c0,0-0.1,0.1,0,0.1
	c0-0.2,0.8-0.1,0.8-0.3c1.6-0.1,3-0.2,4.6-0.3c-0.3,0-0.3,0.2,0,0.2l0.3-0.1l0.1,0.1c0.2,0,0.4-0.2,0.2-0.2c4-0.4,8.1-0.2,12-0.5
	c1,0,2.3-0.1,3.3-0.2c3.1,0.2,5.9,0.3,9,0C347.7,602,347.3,602.5,346.1,602.7z"/>
<path class="st2" d="M167.7,575.4c-1.1,0.8-3.1,0.9-4.5,1.5c-0.2,0.1-0.1-0.2-0.4-0.1c-1.3,0.7-3.8,1-5.6,1l0.1-0.1
	c-0.4,0-0.7,0.3-1.1,0.3c0,0,0.1-0.1,0-0.1c-0.1,0.1-0.7,0.2-0.8,0.3c-0.2,0-0.2-0.1-0.4-0.2l-0.2,0.2c-0.5,0.4-1.4,0.2-2.2,0.5
	c0,0,0.1-0.1,0-0.1c-1.3,0.4-2.9,0.5-4.4,0.7c0.1-0.1,0.1-0.2,0-0.2c-0.1,0.2-0.5,0.2-0.9,0.3c-0.2-0.2-0.7,0.2-1.1,0.1l0,0
	c-0.3,0.2-0.5-0.1-0.8,0.1l-0.2-0.1c-0.1,0.2-0.5-0.1-0.8,0l0,0c-0.3,0.1-0.4,0-0.7,0l0,0c-0.6,0.1-0.9,0-0.9,0.1
	c-0.2-0.1,0.6-0.1,0.2-0.3c-1.9,0.2-3.9,0.2-5.8,0.2c-0.2-0.1-0.3-0.1-0.4-0.2c-0.2,0-0.7,0-0.9,0.1c0.1,0-0.1-0.1-0.2-0.1
	c-0.3-0.1-0.4,0.2-0.8,0.1c0.2,0,0.2-0.1,0.2-0.2c-0.3,0.1-0.8,0.1-1.2,0.1c0.1,0,0.2,0,0.1-0.1c-0.4,0.1-0.8-0.1-1.1,0l0.1-0.1
	c-0.6-0.1-0.2,0.2-0.7,0.1c0.1,0,0.1-0.1,0.1-0.1c-0.5,0.2-1.3,0.1-1.8,0.1l0,0c-0.5,0-1.1-0.1-1.6,0c-0.2-0.1,0.1-0.3-0.5-0.2
	c0,0.2-1,0-0.7,0.3c-0.5-0.1-1.2-0.2-1.5-0.1c0.2-0.1-0.2-0.3,0.2-0.3l-0.3-0.1c0.1-0.1,0.3,0,0.2-0.1c-0.2,0-0.8,0-0.9,0
	c-0.4,0.1-0.8,0.3-1.3,0.3c0.3-0.1-0.1-0.2,0.1-0.3l-0.9,0.4c-0.2,0,0-0.2-0.3-0.1c0,0.1-0.1,0.1-0.2,0.1c-0.1,0-0.8,0-0.9-0.2
	c-0.1-0.1,0.3,0,0.1-0.1c-0.4,0-0.4,0.1-0.8,0l0,0c-0.2,0-0.7,0-0.5,0.2c0.2,0,0-0.1,0.2-0.1c-0.2,0.1-0.6,0.1-1,0.1
	c0.1,0,0.1-0.1,0.2-0.1c-0.5,0.1-1,0.2-1.6,0.2c0,0.1,0.2-0.2,0.3-0.1c-0.7-0.2-1.5,0.1-2-0.1c0.1,0,0,0.1,0,0.1
	c-0.3,0-0.3-0.2-0.5-0.1c0-0.1-0.3,0-0.5,0c-0.1,0.1-0.1,0,0.1,0c-0.3,0-1.6,0.1-2.3,0c0,0.1-0.5,0.2-0.6,0.2l0.1-0.1
	c-0.1-0.1-0.6,0-0.6-0.1c-0.4,0.1,1.4-0.1,0.9,0c-0.1-0.1-0.7,0.2-0.6,0c-0.3,0-0.7,0.1-1,0c0.1,0,0.3-0.2,0-0.2
	c-0.5,0-0.1,0.1-0.5,0.1l-0.3,0c0,0.1-0.4,0-0.3,0.1c0-0.1-0.7,0-0.6-0.2l0.1-0.2c-0.2,0-0.4,0.2-0.5,0.2c0,0-0.1,0-0.1-0.1
	c-0.1,0.2-0.5,0-0.8,0.1c-0.4-0.1-1.1-0.1-1.3-0.2c-0.3,0.1-0.7,0.1-1,0.1c0.1,0,0.2,0,0.2-0.1c-0.2-0.1-0.3,0-0.5,0
	c0.1,0-0.5-0.2-0.7-0.3c-0.3,0.1-0.2,0.2-0.3,0.3c-0.3-0.3-0.9,0.1-1.3-0.1c0.1,0,0.5-0.1,0.2-0.2c-0.3-0.3-0.6,0.2-1.1,0l0.1,0.2
	c-0.2-0.1-0.7,0.1-0.7-0.1c-0.2,0.1-0.6-0.1-0.5,0.1c-0.8-0.2-1.9,0.1-2.4-0.3c-0.1,0-0.4,0-0.3,0.1c0.2,0.1,0.3-0.1,0.3,0
	c-0.1,0-0.1,0.1-0.1,0.1c-0.2,0-0.4-0.1-0.2-0.2c-0.5-0.1-0.6,0.3-1.3,0.3c0-0.1,0-0.1-0.2-0.1l-0.4,0.1c-0.5,0-0.3-0.2-0.3-0.3
	c-0.2,0-0.5,0-0.7,0.1l-0.3-0.2c0.2,0.1-0.2,0.1-0.3,0.1l0.1,0c0-0.1-0.3,0-0.5,0c0,0.1,0.3,0.1,0.5,0.1c-0.1,0.1-0.3,0-0.5,0.1
	c0.1-0.1-0.4-0.1-0.6-0.1c-0.2,0-0.3,0.1-0.3,0.1c0-0.1-0.4,0-0.2-0.1c0.1,0,0.2,0.1,0.3,0c-0.1-0.1-0.1-0.2-0.4-0.1
	c-0.2,0.1,0.1,0.3-0.4,0.2c0.1,0,0.1-0.1,0.2-0.1l-0.4-0.1l0,0.1c-0.1,0,0,0,0-0.1c-0.1,0.1-0.6,0-0.7,0.2c-0.2,0-0.4-0.1-0.6-0.1
	l0,0c-0.2-0.1-0.6,0-0.8,0.1l0,0c-0.1,0-0.4,0-0.6,0.1c-0.3-0.1-0.1-0.5-0.5-0.3c-0.3,0-0.5,0.2-0.4,0.3c-0.6-0.1-1.3,0.1-1.8,0
	c-0.1,0.1,0,0.1-0.2,0.1c-0.9,0-1.8,0.2-2.6,0c0.3-0.1,0-0.1,0-0.2c-0.2,0.1-0.3-0.1-0.3,0.1c0,0.1,0,0.2,0.3,0.2
	c-0.5,0.1-1.3,0.1-1.6,0c0.1,0,0,0.1-0.1,0.1c0-0.2-0.4-0.2-0.7-0.1l0,0.1l-0.2-0.1c-0.1,0-0.1,0.2-0.4,0.1l-0.1-0.1
	c-0.3,0.1-0.7,0.3-1,0.2l-0.3-0.1c-0.1,0-0.4,0.1-0.1,0.2c-0.6-0.1-0.9,0-1.1-0.2c-0.9,0.4-2.3,0.5-3.4,0.6l0-0.1
	c-0.3,0-0.1,0.2-0.4,0.1c0.1-0.1-0.3-0.2,0-0.3c-0.4,0-0.5,0.2-0.8,0.2c0,0.1,0.2-0.1,0.2,0.1c0,0-0.6,0-0.6,0.1
	c-0.1-0.1-0.1-0.2,0-0.3l-0.2,0.1c-0.4-0.2,0.7-0.4,0.3-0.6l-0.2,0c-0.3-0.2,0.6-0.2,0-0.3c-0.2,0.1-0.4,0.4-0.2,0.4
	c-0.5,0.1-0.2,0.4-0.8,0.4c-0.2-0.1,0.5-0.1,0.3-0.2c-0.3-0.1-0.5,0.1-0.8,0.1c0.3,0,0.1,0.2-0.1,0.3c-0.3,0,0.2-0.2-0.3-0.1
	c-0.1,0.1-0.4,0.2-0.1,0.2c-0.1,0.2-0.5,0-0.6,0.2c-0.2-0.1,0.4-0.4-0.1-0.4c0.1,0.1-0.5,0.3-0.3,0.4c-0.2,0-0.2-0.1-0.1-0.2
	c-0.3-0.1-0.6,0.3-0.7,0l-0.1,0.2c-0.1,0-0.2-0.1-0.4-0.1c-0.2,0-0.7,0.3-0.7,0.1c-0.1,0-0.6,0.1-0.4,0.2c0.3,0.1,0.4-0.2,0.6,0
	c-0.3-0.1-0.5,0.1-0.6,0.2l0-0.1c-0.1,0-0.4,0.1-0.4,0.2c0.1-0.1,0-0.1-0.1-0.1l-0.1,0.1c-0.4,0.1-0.2-0.2-0.6-0.1l0.3-0.1
	c-0.1,0-0.2-0.1-0.4,0c-0.1,0.1-0.2,0.3-0.2,0.4c-0.2,0.1-0.1-0.1-0.4,0l0.3-0.2c0,0-0.3-0.2-0.6-0.1c-0.2,0.1-0.5,0.3-0.1,0.3
	c-0.2,0-0.4,0-0.3-0.1c-0.4,0.1,0.1,0.1-0.2,0.2c-0.2-0.1-0.6-0.1-0.9-0.2l0.3-0.2l-0.2,0c0.3-0.2-0.2-0.1-0.1-0.3
	c-0.2,0-0.3,0.1-0.5,0.1c0.5,0.2-0.4,0.4-0.2,0.7c-0.6,0.1-0.5-0.5-1.1-0.1c0.1,0-0.1,0.3,0.2,0.2c-0.4,0-0.2,0.3-0.7,0.2
	c0.3-0.1-0.4-0.2,0-0.4c0,0.1,0.3,0,0.4,0c-0.2-0.1,0-0.3-0.4-0.2c-0.2,0.1-0.6,0.1-0.5,0.2c0.1,0.1,0.4-0.1,0.2,0.1
	c-0.5,0.1-0.6-0.1-0.7,0.2c0.3-0.1,0.4,0.1,0.4,0.2l-0.3,0.1l0-0.1c-0.6,0-0.1,0.2-0.7,0.2l-0.3-0.1c0.1-0.2,0.8,0,0.6-0.3
	c-0.4,0-0.4,0.2-0.8,0.2l0.2-0.1c-0.1,0-0.4-0.3-0.8,0c-0.2,0.1,0,0.1,0,0.2c-0.6,0.1-0.7,0.2-1.1,0.3c0-0.2-0.6,0.1-0.3-0.2
	c0.2,0.1,1-0.1,1.2-0.3c-0.3-0.2,0.5,0,0.5-0.3c-0.5,0.1-0.5-0.2-0.6-0.3c-0.1,0-0.2,0.1-0.3,0.1c0,0.1,0.1,0.1,0.2,0.3
	c-0.5,0-1,0.2-1.2,0.4c-0.2,0-0.2-0.2,0-0.2c-0.6,0.1-1.2,0.2-1.8,0.3c0.4,0.2-0.6,0.2-0.3,0.3c0.3,0,0.6,0.1,0.5,0.2
	c-0.2,0,0-0.1-0.1-0.1c-0.2,0.2-0.4-0.1-0.6,0.1c0.5-0.2,0-0.3,0.1-0.5c-0.4,0.2,0-0.1-0.4-0.1c-0.4,0.2-0.8,0.3-1.3,0.4
	c-0.6-0.1-1.4,0.2-1.9,0.3c-0.3,0-0.2-0.3-0.5-0.2c-0.3,0.1,0.3,0.2-0.2,0.2l0,0c-0.1,0.1-0.9,0-1,0.3l0.1-0.2
	c-0.1,0-0.2,0.1-0.2,0.1c0-0.1-0.2-0.1,0-0.2c-0.4-0.1-0.6,0.1-0.9,0.2l0.3,0.1c-0.5,0.2-0.9,0.1-1.5,0.3l0-0.1l-0.3,0.1
	c0-0.1-0.3-0.1-0.4,0l0.7-0.5c0.3,0-0.2,0.2,0,0.3c0.2,0.1,0.6,0,0.7-0.2c-0.2,0-0.2,0.1-0.3,0.1c-0.1-0.2,0.2-0.2,0.3-0.3
	c-0.1,0-0.3,0-0.3,0.1c0.2-0.1,0.4-0.2,0.7-0.2c-0.2,0.1,0.2,0.1,0.1,0.1c0-0.2,0.3-0.3,0.7-0.3c0.4,0.1,0.7-0.2,1.2-0.3
	c-0.1,0.2-0.3,0.3-0.6,0.5c0.3,0,0.3-0.1,0.7,0c0.1-0.1,0.1-0.3,0.5-0.5l0.1,0.1c0.3-0.1,0.3-0.3,0.7-0.3c0.8-0.1,1.6-0.2,2.2-0.3
	l0.1,0.1c0.2-0.3,1.1-0.3,1.5-0.4c0.8,0,1.6-0.4,2-0.2c1.3-0.3,2.4-0.5,3.8-0.7l-0.2,0.2c0.2-0.2,0.2,0.1,0.4,0
	c-0.3-0.1,0.3-0.2,0.4-0.3c0.6,0,1.4-0.2,1.9-0.4l0,0.1c0.5-0.3,1.2-0.2,1.9-0.2c0.1,0,0.2,0.1,0.4,0.1c0.3-0.2,0.5-0.2,1.1-0.4
	c0.4-0.1,1.1-0.1,1.5,0c1.5-0.4,3-0.4,4.6-0.7l0.1,0.1c1.5-0.4,3.4-0.3,4.7-0.5l-0.1,0.2c0.4,0,0.9-0.1,0.8-0.3c0.4,0,1-0.2,1.3,0
	c0.4,0,0.5-0.1,0.8-0.2c0.8,0,1.2,0,1.9-0.1l-0.2,0c-0.1,0.1-0.1,0.2,0.1,0.2c0.3-0.1,1.1,0,0.8-0.2c0.9,0.1,2-0.2,2.8,0
	c-0.1-0.1,0.1-0.1,0.2-0.2c0.7,0,1.5,0.1,2.1,0c0.1,0-0.2,0.1,0.1,0.1c0.2,0,0-0.1,0.2-0.1c1.2-0.2,2.4,0.1,3.5,0
	c1.9-0.2,4-0.1,5.8-0.1l0,0.1c0.6-0.2,1.4,0.2,2-0.1c0.1,0,0.6,0,0.4,0.1c0.5-0.1,1.4,0.2,2.1,0l-0.2,0c0.7,0.1,1.4,0,2.1,0.1
	c-0.1,0-0.2,0-0.2,0.1c0.3,0.1,0.7-0.2,0.9,0.1c0.2,0,0.1-0.1,0-0.1c1.7,0.2,3.5,0.1,5.2,0.1c1.2,0.2,0,0.5,1,0.3
	c0.1,0.1,0.1-0.1,0.1,0c0.4-0.1,0.5,0.3,0.8,0.2c-0.1-0.2,0.2-0.1,0.2-0.2c0.7,0.1,0.9,0.3,1.5,0.2l-0.1,0.1c0.7-0.2,1.5,0,2.2-0.3
	c3.9,0.2,7.6,0.3,11.3,0.4c3.7,0.2,7.3,0.2,11,0.3c0.9,0.2,0.9,0.2,1.9,0.1c0,0-0.1,0,0,0.1c0-0.2,0.7,0,0.8-0.2
	c1.4,0,2.6-0.2,4-0.2c-0.2,0-0.3,0.2,0,0.2l0.3-0.1l0.1,0c0.2,0,0.4-0.2,0.2-0.2c3.5-0.5,7-0.5,10.3-1.2c0.8-0.1,1.9-0.3,2.8-0.6
	c2.6-0.3,5-0.8,7.4-1.7C168.7,574.5,168.7,575,167.7,575.4z"/>
<path class="st3" d="M818,591.1c0,0-92-76.8-370,0c-276.2,76.3-432-6.8-432-6.8v109.5l929,5.1C938.8,668.7,944.5,611.8,818,591.1z"
	/>
<path class="st4" d="M751.5,461.1c15.4,8.1,49.1,17.6,82.8,11.8c39.8-6.9,54.6-16.9,79.4-49.1c24.8-32.2,27.5-65.2,23.4-97.3
	c-4.1-32-2.3-62.3-69.2-109.4c-37.9-26.7-117.5-32-156.4,17.7c-38.9,49.8-43.1,95.5-36.3,116.6C682.1,372.4,684.1,425.6,751.5,461.1
	z"/>
<path class="st5" d="M837,507.8c0,0-2.7,1.7-3.2,0.5c-0.6-1.1-1.3-2.6-1.3-2.6l-7,2.9l-0.5-1.1l6.8-3.1c0,0-0.9-2.7-0.7-3.3
	c0.1-0.6,3.2-1.8,3.9-0.7C835.6,501.5,837.9,506.2,837,507.8z"/>
<path class="st5" d="M840.4,519.8c-0.9,0.6-2.9,1-3.4,0.3c-0.4-0.7-1.1-2.3-1.1-2.3l-6.1,1.2l-0.4-1l6.1-1.8c0,0-0.8-2.7,0.1-3.4
	c0.9-0.7,2.9-1.3,3.4-0.1C839.6,513.8,841.3,519,840.4,519.8z"/>
<path class="st6" d="M849,593.8l-0.2-0.5c-0.1-0.4-0.2-0.8-0.4-1.2c-0.2-0.5-0.3-0.8-0.4-1.2c-0.1-0.3-0.4-0.8-0.7-1.5
	c-0.3-0.6-0.6-1.4-0.9-2.1c-0.1-0.1-0.1-0.2-0.2-0.4c0.1,0,0.1,0,0.1,0l0.3,0.1l0.1,0c0.5,0,1.2-0.1,1.8-0.6
	c0.5-0.4,0.7-0.9,0.7-1.4c0-0.6-0.2-1.1-0.6-1.6c-0.4-0.5-1-0.8-1.7-0.9l-0.1,0l-0.4-0.1l-0.1,0c-0.3,0-0.9,0-1.8,0
	c-0.1,0-0.2,0-0.3,0c-0.2-0.4-0.3-0.9-0.5-1.3c-0.4-1.2-0.8-2.2-1.1-3.1c-0.3-0.9-0.6-1.7-0.8-2.3c-0.2-0.7-0.5-1.3-0.7-1.9
	c-0.2-0.7-0.5-1.3-0.8-1.9c-0.4-0.7-0.7-1.2-1-1.6c-0.5-0.6-1.2-1-2-1.1c-0.2-0.2-0.4-0.3-0.7-0.4l-0.1,0c-0.7-0.2-1.4-0.2-2.1,0
	c-0.6,0.2-1.1,0.7-1.2,1.2l-0.7,1.9c-0.5,1.2-0.9,2.4-1.3,3.4c-0.4,1-1.1,2.7-2,5c-0.9,2.3-1.5,4.1-1.9,5.2
	c-0.2,0.7-0.4,1.4-0.6,2.1c-0.4,0.3-0.6,0.6-0.7,1.1c-0.1,0.4-0.1,0.8,0,1.2c-0.1,0.4-0.2,0.7-0.2,1c-0.1,0.5-0.2,1.1-0.3,1.8
	c-0.2,0.1-0.3,0.3-0.3,0.5c-0.1,0.2-0.1,0.4-0.1,0.6c0,0.3,0.1,0.5,0.3,0.9c0.2,0.3,0.5,0.7,0.8,0.9c0.6,0.5,1.1,0.8,1.7,0.9
	c0,0,0.1,0,0.1,0c0.7,0.1,1.2-0.1,1.4-0.2c0.3-0.2,0.5-0.4,0.7-0.8c0.2-0.3,0.2-0.5,0.3-0.6c0-0.1,0.1-0.2,0.1-0.3
	c0.2-0.5,0.7-1.8,1.4-4c0-0.1,0.1-0.2,0.1-0.3c0.5-0.2,1.2-0.4,2.1-0.7c1.3-0.4,2.3-0.8,3.2-1.1c0.8-0.3,1.9-0.5,3.2-0.7
	c0.2,0,0.3-0.1,0.4-0.1c0.2,0.4,0.3,0.8,0.5,1.2c0.3,0.8,0.6,1.5,0.9,2.2c0.3,0.6,0.5,1.1,0.6,1.3c0.1,0.3,0.2,0.6,0.4,1
	c0.1,0.4,0.2,0.7,0.3,1l0.1,0.5c0.2,0.6,0.5,1.1,1.1,1.4c0.3,0.2,0.7,0.3,1.1,0.4c0.3,0.1,0.7,0,1,0c0.7-0.1,1.1-0.5,1.5-1
	C849.1,595,849.2,594.4,849,593.8z M839.5,583.1C839.5,583.1,839.5,583.1,839.5,583.1c-1.5,0.3-2.8,0.6-3.8,0.9
	c-0.5,0.1-1,0.3-1.6,0.5c0.3-0.9,0.6-1.7,0.8-2.6c0.4-1.1,0.7-2.1,1.1-3.1c0.3-0.9,0.6-1.7,0.9-2.4c0-0.1,0.1-0.2,0.1-0.3
	c0.1,0.2,0.2,0.5,0.2,0.7c0.2,0.6,0.5,1.4,0.8,2.4c0.3,0.9,0.7,2,1.1,3.2L839.5,583.1z"/>
<path class="st7" d="M705,330.1l21.7,11.5c0,0,10.8,2,16.5,2.9c5.2,0.9,18.2,3.5,18.2,3.5l4.5-22.7h5c0,0-3,23.1,0,24.8
	c2.4,1.4,18.2,6.1,28.1,8.4c2.2-21.1,4.7-44.4,4.7-47.2c0-2.7-7.8-7.4-14-9.9c-6.2-2.6-20.1-6-25.7-7.7c-5.5-1.7-8.3-2.7-8.3-2.7
	s6.2-9.5,10.4-7.5c4.2,2,22.2,10.2,22.2,10.2l6.1-11.7h7.1l-4.2,11.7c0,0,3.5,2.3,6.4,0c2.9-2.3,5.4-12.9,5.4-21.7
	c0-8.8-0.1-12.8-0.1-12.8c-2.6-0.5-13.3,4.3-13.3,4.3l-2.1-3.1l12.9-7.7c0,0-3.2-3.9-7.2-9.8c-4-5.9-3.8-5.7,3.1-9
	c0,0,4.5,6.5,8,11.6c2.2,3.3,8.7,14.6,11,14.9c2.3,0.4,3.1-0.1,9.3-2.2l5.9-1.4l2.3,4.8c0,0-14,3.6-14.7,7.9
	c-0.7,4.3-1.4,37.7-1.4,37.7l13.6-16.3l4.8,1.5c0,0,1.7-0.1-0.4,3.6c-2.1,3.7-4.5,6.2-4.5,6.2l16.6-4.9l0.2,6.2
	c0,0-12.3,3.3-17.2,5.3c-4.9,2-13.9,6.6-13.9,6.6l-1.4,11.3c-1.4,11.3-2.8,46.1-2.8,46.1l17.5-6.2l4.7-10.3l-8.3-3.5l2.1-3h10.4
	l8.4-11.8l5.3,2.5c0,0-7.5,8.9-7.5,10.7c0,1.8-5.9,15.4-5.9,15.4s11.7-3.6,15-4.7c3.3-1.1,43.7-9.9,43.7-9.9l0.7,9
	c0,0-25.7,8.6-32.8,11.8c-0.3,0.1-0.7,0.3-1,0.4c0.6,0.4,1.1,0.8,1.7,1.3c6.1,5.1,15,7.9,15,7.9l-3.3,7.9c0,0-16.1-9.5-23.4-13.9
	c-4.2,1.2-17.8,6.1-20,6.8c-6.3,2.2-19,7.1-21.1,14.5s0.6,29.8,0.7,41.3c0.1,8.4,1.5,9,5.7,8.2c4.8-0.9,13-3.6,13-3.6
	s-0.3-1.7,0.3-7.6c0.4-4.8,2.5-10.5,2.5-10.5l5.6-2c0.9,2.9,1.1,9,0.9,12.6c-0.2,3.6,9.3,1.6,13.5-0.6c3-1.6,10.1-5.4,20.2-8.7
	c6.6-2.2,15.5-4.4,15.5-4.4l3.4,7.7c0,0-13.9,4.8-23.5,9.9c-0.9,0.5-1.9,1-2.9,1.5l12.2,2.6l-3.2,5.2c-0.7-0.3-4-0.3-7.6-1.5
	c-4.3-1.4-8.4-1.7-10.6-2.2c-8.1,3.5-14.6,5.7-22.5,9.2c-9.8,4.3-18.4,5.9-22.6,8.7c-4.2,2.8-0.7,84.2-0.7,103.9
	c0,19.6,0.7,78.5,0.7,78.5h-31.9l6.3-206.7l-25.7-21.4l-1.8,2.4c-1.8,2.4-6.6,6.3-6.6,6.3l-4.2-4.7l2.1-1.6c2.1-1.6,4.2-6.3,4.2-6.3
	l-11.1-9.9l2.8-4.4c0,0,11.1,6.3,18.6,10.8c0.3,0.2,0.5,0.3,0.8,0.5v-20.7c0,0-1.4-4.4,0-5c1.4-0.6,4.2,0,4.2,0s0.9,4.1,1.8,8.8
	c0.6,3.6,2.2,16.3,2.9,22.1c6.5,3.8,13,7.5,13,7.5s-0.4-21.3,0.3-31.8c0.2-2.7,0.8-8.8,1.6-16.5C785,371.8,766,364.7,755,362
	c-14-3.5-17-6.8-21.5-4.7c-4.5,2.1-4.1,20.6-5.5,22.6l-6-2.1v-12.5h-12.7l-2-4.1l14.7-2.1v-12.4c0,0-19.7-9.9-20.1-12.1
	C701.6,332.3,705,330.1,705,330.1z"/>
<path class="st8" d="M751.1,318.9c0,0,4.1,8.7,8.2,12c7,5.6,15,2.1,15,2.1s0.1-11.1-7.9-14.3C758.4,315.5,751.1,318.9,751.1,318.9z"
	/>
<path class="st8" d="M727.9,399c0,0,8.7,7.9,14.9,9.8c10.5,3.2,17.6-4.1,17.6-4.1s-5.2-12.4-15.6-12.5
	C734.4,392.1,727.9,399,727.9,399z"/>
<path class="st8" d="M856.3,319.8c0,0,5.5,4.5,7.1,7.9c2.6,5.8-1.5,10.2-1.5,10.2s-8.1-2.2-8.8-8.1
	C852.3,323.9,856.3,319.8,856.3,319.8z"/>
<path class="st8" d="M693.1,344.7c0,0,7.2,0.9,10.9-0.3c6.3-2,7-7.9,7-7.9s-7.1-4.2-12.2-0.8C693.6,339.2,693.1,344.7,693.1,344.7z"
	/>
<path class="st8" d="M786.1,233.8c0,0,5,4.9,8.7,6.2c6.2,2.1,10.7-2.1,10.7-2.1s-2.8-7.5-9.1-7.8
	C790.1,229.8,786.1,233.8,786.1,233.8z"/>
<path class="st8" d="M770.1,447.6c0,0-3.9-5.8-4.4-9.4c-0.8-6.2,4.5-9.4,4.5-9.4s7.1,4.3,6,10.2
	C775.1,444.7,770.1,447.6,770.1,447.6z"/>
<path class="st8" d="M753.9,258.1c0,0,1.3,11.4,4.8,16.6c5.9,8.9,16.3,7.6,16.3,7.6s3.6-11.5-4.3-18
	C762.8,257.8,753.9,258.1,753.9,258.1z"/>
<path class="st8" d="M905.3,324.9c0,0,4.3,11.4,2.7,17.4c-2.6,10.2-14.6,12-14.6,12s-7.3-9.9-1.9-18.4
	C896.9,327.4,905.3,324.9,905.3,324.9z"/>
<path class="st8" d="M863.9,270.2c0,0-8.6,3.4-12,7c-5.7,6.1-2.4,13.2-2.4,13.2s9.8,0,13.1-7C866,276.4,863.9,270.2,863.9,270.2z"/>
<path class="st5" d="M815.3,519.2c0,0,2.6-1.8,3.2-0.6c0.6,1.1,1.4,2.7,1.4,2.7l7-2.9l0.5,1.1l-6.8,3.1c0,0,0.9,2.3,0.7,3
	c-0.1,0.6-3.2,2.1-3.9,1C816.7,525.6,814.1,519.7,815.3,519.2z"/>
<path class="st5" d="M812.5,508.2c0.9-0.8,2.4-1.1,3-0.4c0.5,0.7,1.1,2.4,1.1,2.4l6.7-2.2l0.5,1l-6.6,2.9c0,0,1.7,2.5,0.9,3.4
	c-0.9,0.9-2.8,1.7-3.5,0.6C813.8,514.8,811.2,509.4,812.5,508.2z"/>
<path class="st9" d="M849.1,578.2c-2-8.4-17.5-58.4-24-77.9c7.7-2.7,2.4-6.2-2.4-5.6c0.5-8.7-9.9-5.3-6,2.6
	c-7.8,0.5-4.8,7.2,2.8,5.3c4.6,27.5,15.3,68.1,19,80.7C841.4,582.2,846,580.6,849.1,578.2z"/>
<path class="st10" d="M820.8,598.6c2.3-2.6,4.2-4.2,4.1-8.8c-0.1-3.1-2.5-6.5-2-9.6c1-6.7,7.2-11.8,14.6-13.9
	c14.4-4.1,26.1,20.3,28.3,31.3c2.7,13.3,10.7,40.5-6.3,42.1c-19.5,1.8-30.6-9-36.3-19.9C834.6,616.3,830.4,600,820.8,598.6z"/>
<path class="st7" d="M879,603c-9.2,3.8-16.9-10-6.8-18c-13.6-2.9-9-26.6-29.8-20.4c-5.5,1.5-13.9,7-14.4,13.1
	c-0.6,6.1,9.9,16.7,0.5,21.6c9.5,2.3,12.1,9.8,11.7,14c-0.3,3.4-5,10.2-7.2,10.3c1.8,4,9,12,13.4,14.1
	C870.1,647.7,883.7,621.8,879,603z"/>
<path d="M850.7,577.7c-2-8.4-17.4-58.4-24-77.9c7.7-2.7,2.4-6.2-2.4-5.6c0.5-8.7-9.9-5.3-6,2.6c-7.8,0.5-4.8,7.2,2.8,5.3
	c4.6,27.5,15.3,68.1,19,80.7C843,581.8,847.6,580.1,850.7,577.7z"/>
<path d="M848.8,608.9c2.1,5.5-4.3,9.5-6.8,5c2.6,0.4,3.2,0.4,4.1-1.4c0.7-0.9-0.5-3.6-0.7-4.6c-0.6-3.1-1.1-7.6,3-8.2
	C846.8,602.8,847.1,604.4,848.8,608.9z"/>
<path d="M856.7,597.5c2.5,0.6,3.1,3.5,3.9,5.6c0.7,1.7,0.9,4.1,2.7,5.1c2,1.1,4.7,0.4,4.4-2.2c-3.3,3.1-4.3-2.8-5-4.7
	C862.1,599.9,860,595.8,856.7,597.5z"/>
<path class="st11" d="M826,518.2L856.6,625"/>
<path class="st11" d="M825.1,507.7l33.4,117"/>
<path class="st11" d="M826.9,507.5l33.4,117"/>
<path class="st11" d="M830.9,517c0,0,13,42.3,17.7,61.1c4.4,17.9,13.3,45.4,13.3,45.4"/>
<path d="M864.7,639c-0.8-5.4-2.9-10.8-2.3-16.2c-2.3,0.4-4.5,1.6-6.8,2c3,4.3,4.2,9.8,5.3,15.3C862.5,640,863.8,639.4,864.7,639z"/>
<path class="st6" d="M841.1,543.6c0,0,24.4,33.8,35.4,49.2c10.2,14.4,24.7,38.7,24.7,38.7l1.1-0.7c0,0-19.5-31.2-25.3-39.3
	c-5.9-8.1-34.6-48.8-34.6-48.8L841.1,543.6z"/>
<path d="M901.4,631.5l-2.9,1.9c0,0-15.4-24.6-26.2-40.4c-12-17.6-33.9-47.5-33.9-47.5l2.7-1.8l1.8,2.5c0,0-1,0.6-0.7,1.6
	c0.2,0.9,21.3,30.1,30.5,42.9c9.1,12.6,22.9,35.2,25.6,39.6c0.3,0.5,0.7,0.9,0.9,1c0.5,0.2,1.6-0.6,1.6-0.6L901.4,631.5z"/>
<path d="M835.3,538.5l-1.3,0.9l4.9,6.8l1.3-0.9L835.3,538.5z"/>
<path class="st8" d="M838.6,408.5c0,0,6.6,2.9,9,5.8c4.2,4.9,1.4,10.3,1.4,10.3s-8.4-0.1-10.7-5.6
	C835.9,413.5,838.6,408.5,838.6,408.5z"/>
<path class="st12" d="M710,635c0,0,6.1-65.5,7.9-79.9c3.1-25.1,16.5-49.1,16.5-49.1s-11.2,47.2-11.6,61.1c-0.4,14,1.5,14.9,1.5,14.9
	s4.6-19.1,9.9-32.4c6.8-16.9,18.6-29,18.6-29s-7.6,12.9-13.4,30.4c-6.9,20.8-3.3,33.6-3.3,33.6s10.1-21.8,17.8-34.7
	c10-16.9,26.5-30.7,26.5-30.7s-17.6,25.6-23.7,40c-6.1,14.4-9.8,32.4-9.8,32.4s16.5-28.2,22.2-38.3C777,539.3,789,532,789,532
	s-17.6,28.9-22.1,41.3C756.7,601.3,789,635,789,635H710z"/>
<path class="st4" d="M759,651c0,0,3.2-17.7,8.5-35.2c2.5-8.3,6.4-19,13-32c8.4-16.6,21.4-27.7,21.4-27.7s-8.9,12.4-16.3,29.7
	c-8.9,20.5-6.5,33.8-6.5,33.8s12.2-21.2,21.1-33.6c11.6-16.2,29.5-28.7,29.5-28.7s-20,24.3-27.5,38.4c-7.5,14.1-12.9,32-12.9,32
	s19.2-27.1,25.9-36.8c9.3-13.6,22-19.9,22-19.9s-20.4,27.8-26,39.9c-12.9,27.6-10.8,40.1-10.8,40.1H759z"/>
</svg>
