<svg width="890" height="692" viewBox="0 0 890 692" fill="none" xmlns="http://www.w3.org/2000/svg">
<path d="M8.78416 28.6914V21.6028L2.7316 25.1842C2.33509 25.504 1.85416 25.3428 1.61626 24.9489L0.419044 22.7156C0.183695 22.3165 0.262997 21.8407 0.738811 21.6028L6.79649 18.2593L0.738811 14.7521C0.262997 14.5116 0.183695 14.0358 0.419044 13.6368L1.61626 11.4035C1.85416 11.0096 2.33509 10.8484 2.7316 11.1681L8.78416 14.8314V7.66096C8.78416 7.18003 9.10392 6.86792 9.58229 6.86792H11.9716C12.4525 6.86792 12.7672 7.18258 12.7672 7.66096L12.6853 14.8314L18.8223 11.1681C19.2188 10.8484 19.6972 11.0096 19.9351 11.4035L21.1297 13.6368C21.3702 14.0358 21.2909 14.5116 20.81 14.7521L14.76 18.2593L20.81 21.6028C21.2909 21.8407 21.3702 22.3165 21.1297 22.7156L19.9351 24.9489C19.6972 25.3428 19.2188 25.504 18.8223 25.1842L12.6853 21.6028L12.7672 28.6914C12.7672 29.1672 12.4525 29.487 11.9716 29.487H9.58229C9.10392 29.487 8.78416 29.1672 8.78416 28.6914Z" fill="#2BB673"/>
<path d="M49.6914 10.4023C47.8086 10.4023 46.3203 11.0312 45.2266 12.2891C44.1406 13.5391 43.5977 15.2539 43.5977 17.4336C43.5977 19.6758 44.1211 21.4102 45.168 22.6367C46.2227 23.8555 47.7227 24.4648 49.668 24.4648C50.8633 24.4648 52.2266 24.25 53.7578 23.8203V25.5664C52.5703 26.0117 51.1055 26.2344 49.3633 26.2344C46.8398 26.2344 44.8906 25.4688 43.5156 23.9375C42.1484 22.4062 41.4648 20.2305 41.4648 17.4102C41.4648 15.6445 41.793 14.0977 42.4492 12.7695C43.1133 11.4414 44.0664 10.418 45.3086 9.69922C46.5586 8.98047 48.0273 8.62109 49.7148 8.62109C51.5117 8.62109 53.082 8.94922 54.4258 9.60547L53.582 11.3164C52.2852 10.707 50.9883 10.4023 49.6914 10.4023ZM68.2891 19.5664C68.2891 21.6602 67.7617 23.2969 66.707 24.4766C65.6523 25.6484 64.1953 26.2344 62.3359 26.2344C61.1875 26.2344 60.168 25.9648 59.2773 25.4258C58.3867 24.8867 57.6992 24.1133 57.2148 23.1055C56.7305 22.0977 56.4883 20.918 56.4883 19.5664C56.4883 17.4727 57.0117 15.8438 58.0586 14.6797C59.1055 13.5078 60.5586 12.9219 62.418 12.9219C64.2148 12.9219 65.6406 13.5195 66.6953 14.7148C67.7578 15.9102 68.2891 17.5273 68.2891 19.5664ZM58.5039 19.5664C58.5039 21.207 58.832 22.457 59.4883 23.3164C60.1445 24.1758 61.1094 24.6055 62.3828 24.6055C63.6562 24.6055 64.6211 24.1797 65.2773 23.3281C65.9414 22.4688 66.2734 21.2148 66.2734 19.5664C66.2734 17.9336 65.9414 16.6953 65.2773 15.8516C64.6211 15 63.6484 14.5742 62.3594 14.5742C61.0859 14.5742 60.125 14.9922 59.4766 15.8281C58.8281 16.6641 58.5039 17.9102 58.5039 19.5664ZM88.082 26V17.6445C88.082 16.6211 87.8633 15.8555 87.4258 15.3477C86.9883 14.832 86.3086 14.5742 85.3867 14.5742C84.1758 14.5742 83.2812 14.9219 82.7031 15.6172C82.125 16.3125 81.8359 17.3828 81.8359 18.8281V26H79.8906V17.6445C79.8906 16.6211 79.6719 15.8555 79.2344 15.3477C78.7969 14.832 78.1133 14.5742 77.1836 14.5742C75.9648 14.5742 75.0703 14.9414 74.5 15.6758C73.9375 16.4023 73.6562 17.5977 73.6562 19.2617V26H71.7109V13.1562H73.293L73.6094 14.9141H73.7031C74.0703 14.2891 74.5859 13.8008 75.25 13.4492C75.9219 13.0977 76.6719 12.9219 77.5 12.9219C79.5078 12.9219 80.8203 13.6484 81.4375 15.1016H81.5312C81.9141 14.4297 82.4688 13.8984 83.1953 13.5078C83.9219 13.1172 84.75 12.9219 85.6797 12.9219C87.1328 12.9219 88.2188 13.2969 88.9375 14.0469C89.6641 14.7891 90.0273 15.9805 90.0273 17.6211V26H88.082ZM100.023 26.2344C99.1875 26.2344 98.4219 26.082 97.7266 25.7773C97.0391 25.4648 96.4609 24.9883 95.9922 24.3477H95.8516C95.9453 25.0977 95.9922 25.8086 95.9922 26.4805V31.7656H94.0469V13.1562H95.6289L95.8984 14.9141H95.9922C96.4922 14.2109 97.0742 13.7031 97.7383 13.3906C98.4023 13.0781 99.1641 12.9219 100.023 12.9219C101.727 12.9219 103.039 13.5039 103.961 14.668C104.891 15.832 105.355 17.4648 105.355 19.5664C105.355 21.6758 104.883 23.3164 103.938 24.4883C103 25.6523 101.695 26.2344 100.023 26.2344ZM99.7422 14.5742C98.4297 14.5742 97.4805 14.9375 96.8945 15.6641C96.3086 16.3906 96.0078 17.5469 95.9922 19.1328V19.5664C95.9922 21.3711 96.293 22.6641 96.8945 23.4453C97.4961 24.2188 98.4609 24.6055 99.7891 24.6055C100.898 24.6055 101.766 24.1562 102.391 23.2578C103.023 22.3594 103.34 21.1211 103.34 19.543C103.34 17.9414 103.023 16.7148 102.391 15.8633C101.766 15.0039 100.883 14.5742 99.7422 14.5742ZM110.711 26H108.766V7.76562H110.711V26ZM120.262 26.2344C118.363 26.2344 116.863 25.6562 115.762 24.5C114.668 23.3438 114.121 21.7383 114.121 19.6836C114.121 17.6133 114.629 15.9688 115.645 14.75C116.668 13.5312 118.039 12.9219 119.758 12.9219C121.367 12.9219 122.641 13.4531 123.578 14.5156C124.516 15.5703 124.984 16.9648 124.984 18.6992V19.9297H116.137C116.176 21.4375 116.555 22.582 117.273 23.3633C118 24.1445 119.02 24.5352 120.332 24.5352C121.715 24.5352 123.082 24.2461 124.434 23.668V25.4023C123.746 25.6992 123.094 25.9102 122.477 26.0352C121.867 26.168 121.129 26.2344 120.262 26.2344ZM119.734 14.5508C118.703 14.5508 117.879 14.8867 117.262 15.5586C116.652 16.2305 116.293 17.1602 116.184 18.3477H122.898C122.898 17.1211 122.625 16.1836 122.078 15.5352C121.531 14.8789 120.75 14.5508 119.734 14.5508ZM132.461 24.6289C132.805 24.6289 133.137 24.6055 133.457 24.5586C133.777 24.5039 134.031 24.4492 134.219 24.3945V25.8828C134.008 25.9844 133.695 26.0664 133.281 26.1289C132.875 26.1992 132.508 26.2344 132.18 26.2344C129.695 26.2344 128.453 24.9258 128.453 22.3086V14.668H126.613V13.7305L128.453 12.9219L129.273 10.1797H130.398V13.1562H134.125V14.668H130.398V22.2266C130.398 23 130.582 23.5938 130.949 24.0078C131.316 24.4219 131.82 24.6289 132.461 24.6289ZM144.695 26L144.309 24.1719H144.215C143.574 24.9766 142.934 25.5234 142.293 25.8125C141.66 26.0938 140.867 26.2344 139.914 26.2344C138.641 26.2344 137.641 25.9062 136.914 25.25C136.195 24.5938 135.836 23.6602 135.836 22.4492C135.836 19.8555 137.91 18.4961 142.059 18.3711L144.238 18.3008V17.5039C144.238 16.4961 144.02 15.7539 143.582 15.2773C143.152 14.793 142.461 14.5508 141.508 14.5508C140.438 14.5508 139.227 14.8789 137.875 15.5352L137.277 14.0469C137.91 13.7031 138.602 13.4336 139.352 13.2383C140.109 13.043 140.867 12.9453 141.625 12.9453C143.156 12.9453 144.289 13.2852 145.023 13.9648C145.766 14.6445 146.137 15.7344 146.137 17.2344V26H144.695ZM140.301 24.6289C141.512 24.6289 142.461 24.2969 143.148 23.6328C143.844 22.9688 144.191 22.0391 144.191 20.8438V19.6836L142.246 19.7656C140.699 19.8203 139.582 20.0625 138.895 20.4922C138.215 20.9141 137.875 21.5742 137.875 22.4727C137.875 23.1758 138.086 23.7109 138.508 24.0781C138.938 24.4453 139.535 24.6289 140.301 24.6289ZM158.336 26H156.391V7.76562H158.336V26ZM173.547 19.5664C173.547 21.6602 173.02 23.2969 171.965 24.4766C170.91 25.6484 169.453 26.2344 167.594 26.2344C166.445 26.2344 165.426 25.9648 164.535 25.4258C163.645 24.8867 162.957 24.1133 162.473 23.1055C161.988 22.0977 161.746 20.918 161.746 19.5664C161.746 17.4727 162.27 15.8438 163.316 14.6797C164.363 13.5078 165.816 12.9219 167.676 12.9219C169.473 12.9219 170.898 13.5195 171.953 14.7148C173.016 15.9102 173.547 17.5273 173.547 19.5664ZM163.762 19.5664C163.762 21.207 164.09 22.457 164.746 23.3164C165.402 24.1758 166.367 24.6055 167.641 24.6055C168.914 24.6055 169.879 24.1797 170.535 23.3281C171.199 22.4688 171.531 21.2148 171.531 19.5664C171.531 17.9336 171.199 16.6953 170.535 15.8516C169.879 15 168.906 14.5742 167.617 14.5742C166.344 14.5742 165.383 14.9922 164.734 15.8281C164.086 16.6641 163.762 17.9102 163.762 19.5664ZM185.254 22.4961C185.254 23.6914 184.809 24.6133 183.918 25.2617C183.027 25.9102 181.777 26.2344 180.168 26.2344C178.465 26.2344 177.137 25.9648 176.184 25.4258V23.6211C176.801 23.9336 177.461 24.1797 178.164 24.3594C178.875 24.5391 179.559 24.6289 180.215 24.6289C181.23 24.6289 182.012 24.4688 182.559 24.1484C183.105 23.8203 183.379 23.3242 183.379 22.6602C183.379 22.1602 183.16 21.7344 182.723 21.3828C182.293 21.0234 181.449 20.6016 180.191 20.1172C178.996 19.6719 178.145 19.2852 177.637 18.957C177.137 18.6211 176.762 18.2422 176.512 17.8203C176.27 17.3984 176.148 16.8945 176.148 16.3086C176.148 15.2617 176.574 14.4375 177.426 13.8359C178.277 13.2266 179.445 12.9219 180.93 12.9219C182.312 12.9219 183.664 13.2031 184.984 13.7656L184.293 15.3477C183.004 14.8164 181.836 14.5508 180.789 14.5508C179.867 14.5508 179.172 14.6953 178.703 14.9844C178.234 15.2734 178 15.6719 178 16.1797C178 16.5234 178.086 16.8164 178.258 17.0586C178.438 17.3008 178.723 17.5312 179.113 17.75C179.504 17.9688 180.254 18.2852 181.363 18.6992C182.887 19.2539 183.914 19.8125 184.445 20.375C184.984 20.9375 185.254 21.6445 185.254 22.4961ZM203.453 26V17.6914C203.453 16.6445 203.215 15.8633 202.738 15.3477C202.262 14.832 201.516 14.5742 200.5 14.5742C199.156 14.5742 198.172 14.9375 197.547 15.6641C196.922 16.3906 196.609 17.5898 196.609 19.2617V26H194.664V13.1562H196.246L196.562 14.9141H196.656C197.055 14.2812 197.613 13.793 198.332 13.4492C199.051 13.0977 199.852 12.9219 200.734 12.9219C202.281 12.9219 203.445 13.2969 204.227 14.0469C205.008 14.7891 205.398 15.9805 205.398 17.6211V26H203.453ZM220.492 19.5664C220.492 21.6602 219.965 23.2969 218.91 24.4766C217.855 25.6484 216.398 26.2344 214.539 26.2344C213.391 26.2344 212.371 25.9648 211.48 25.4258C210.59 24.8867 209.902 24.1133 209.418 23.1055C208.934 22.0977 208.691 20.918 208.691 19.5664C208.691 17.4727 209.215 15.8438 210.262 14.6797C211.309 13.5078 212.762 12.9219 214.621 12.9219C216.418 12.9219 217.844 13.5195 218.898 14.7148C219.961 15.9102 220.492 17.5273 220.492 19.5664ZM210.707 19.5664C210.707 21.207 211.035 22.457 211.691 23.3164C212.348 24.1758 213.312 24.6055 214.586 24.6055C215.859 24.6055 216.824 24.1797 217.48 23.3281C218.145 22.4688 218.477 21.2148 218.477 19.5664C218.477 17.9336 218.145 16.6953 217.48 15.8516C216.824 15 215.852 14.5742 214.562 14.5742C213.289 14.5742 212.328 14.9922 211.68 15.8281C211.031 16.6641 210.707 17.9102 210.707 19.5664ZM240.285 26V17.6445C240.285 16.6211 240.066 15.8555 239.629 15.3477C239.191 14.832 238.512 14.5742 237.59 14.5742C236.379 14.5742 235.484 14.9219 234.906 15.6172C234.328 16.3125 234.039 17.3828 234.039 18.8281V26H232.094V17.6445C232.094 16.6211 231.875 15.8555 231.438 15.3477C231 14.832 230.316 14.5742 229.387 14.5742C228.168 14.5742 227.273 14.9414 226.703 15.6758C226.141 16.4023 225.859 17.5977 225.859 19.2617V26H223.914V13.1562H225.496L225.812 14.9141H225.906C226.273 14.2891 226.789 13.8008 227.453 13.4492C228.125 13.0977 228.875 12.9219 229.703 12.9219C231.711 12.9219 233.023 13.6484 233.641 15.1016H233.734C234.117 14.4297 234.672 13.8984 235.398 13.5078C236.125 13.1172 236.953 12.9219 237.883 12.9219C239.336 12.9219 240.422 13.2969 241.141 14.0469C241.867 14.7891 242.23 15.9805 242.23 17.6211V26H240.285ZM252.227 12.9453C253.914 12.9453 255.223 13.5234 256.152 14.6797C257.09 15.8281 257.559 17.457 257.559 19.5664C257.559 21.6758 257.086 23.3164 256.141 24.4883C255.203 25.6523 253.898 26.2344 252.227 26.2344C251.391 26.2344 250.625 26.082 249.93 25.7773C249.242 25.4648 248.664 24.9883 248.195 24.3477H248.055L247.645 26H246.25V7.76562H248.195V12.1953C248.195 13.1875 248.164 14.0781 248.102 14.8672H248.195C249.102 13.5859 250.445 12.9453 252.227 12.9453ZM251.945 14.5742C250.617 14.5742 249.66 14.957 249.074 15.7227C248.488 16.4805 248.195 17.7617 248.195 19.5664C248.195 21.3711 248.496 22.6641 249.098 23.4453C249.699 24.2188 250.664 24.6055 251.992 24.6055C253.188 24.6055 254.078 24.1719 254.664 23.3047C255.25 22.4297 255.543 21.1758 255.543 19.543C255.543 17.8711 255.25 16.625 254.664 15.8047C254.078 14.9844 253.172 14.5742 251.945 14.5742ZM266.828 12.9219C267.398 12.9219 267.91 12.9688 268.363 13.0625L268.094 14.8672C267.562 14.75 267.094 14.6914 266.688 14.6914C265.648 14.6914 264.758 15.1133 264.016 15.957C263.281 16.8008 262.914 17.8516 262.914 19.1094V26H260.969V13.1562H262.574L262.797 15.5352H262.891C263.367 14.6992 263.941 14.0547 264.613 13.6016C265.285 13.1484 266.023 12.9219 266.828 12.9219ZM276.191 26.2344C274.293 26.2344 272.793 25.6562 271.691 24.5C270.598 23.3438 270.051 21.7383 270.051 19.6836C270.051 17.6133 270.559 15.9688 271.574 14.75C272.598 13.5312 273.969 12.9219 275.688 12.9219C277.297 12.9219 278.57 13.4531 279.508 14.5156C280.445 15.5703 280.914 16.9648 280.914 18.6992V19.9297H272.066C272.105 21.4375 272.484 22.582 273.203 23.3633C273.93 24.1445 274.949 24.5352 276.262 24.5352C277.645 24.5352 279.012 24.2461 280.363 23.668V25.4023C279.676 25.6992 279.023 25.9102 278.406 26.0352C277.797 26.168 277.059 26.2344 276.191 26.2344ZM275.664 14.5508C274.633 14.5508 273.809 14.8867 273.191 15.5586C272.582 16.2305 272.223 17.1602 272.113 18.3477H278.828C278.828 17.1211 278.555 16.1836 278.008 15.5352C277.461 14.8789 276.68 14.5508 275.664 14.5508ZM292.527 22.4961C292.527 23.6914 292.082 24.6133 291.191 25.2617C290.301 25.9102 289.051 26.2344 287.441 26.2344C285.738 26.2344 284.41 25.9648 283.457 25.4258V23.6211C284.074 23.9336 284.734 24.1797 285.438 24.3594C286.148 24.5391 286.832 24.6289 287.488 24.6289C288.504 24.6289 289.285 24.4688 289.832 24.1484C290.379 23.8203 290.652 23.3242 290.652 22.6602C290.652 22.1602 290.434 21.7344 289.996 21.3828C289.566 21.0234 288.723 20.6016 287.465 20.1172C286.27 19.6719 285.418 19.2852 284.91 18.957C284.41 18.6211 284.035 18.2422 283.785 17.8203C283.543 17.3984 283.422 16.8945 283.422 16.3086C283.422 15.2617 283.848 14.4375 284.699 13.8359C285.551 13.2266 286.719 12.9219 288.203 12.9219C289.586 12.9219 290.938 13.2031 292.258 13.7656L291.566 15.3477C290.277 14.8164 289.109 14.5508 288.062 14.5508C287.141 14.5508 286.445 14.6953 285.977 14.9844C285.508 15.2734 285.273 15.6719 285.273 16.1797C285.273 16.5234 285.359 16.8164 285.531 17.0586C285.711 17.3008 285.996 17.5312 286.387 17.75C286.777 17.9688 287.527 18.2852 288.637 18.6992C290.16 19.2539 291.188 19.8125 291.719 20.375C292.258 20.9375 292.527 21.6445 292.527 22.4961ZM307.07 26.2344C305.211 26.2344 303.77 25.6641 302.746 24.5234C301.73 23.375 301.223 21.7539 301.223 19.6602C301.223 17.5117 301.738 15.8516 302.77 14.6797C303.809 13.5078 305.285 12.9219 307.199 12.9219C307.816 12.9219 308.434 12.9883 309.051 13.1211C309.668 13.2539 310.152 13.4102 310.504 13.5898L309.906 15.2422C309.477 15.0703 309.008 14.9297 308.5 14.8203C307.992 14.7031 307.543 14.6445 307.152 14.6445C304.543 14.6445 303.238 16.3086 303.238 19.6367C303.238 21.2148 303.555 22.4258 304.188 23.2695C304.828 24.1133 305.773 24.5352 307.023 24.5352C308.094 24.5352 309.191 24.3047 310.316 23.8438V25.5664C309.457 26.0117 308.375 26.2344 307.07 26.2344ZM324.461 19.5664C324.461 21.6602 323.934 23.2969 322.879 24.4766C321.824 25.6484 320.367 26.2344 318.508 26.2344C317.359 26.2344 316.34 25.9648 315.449 25.4258C314.559 24.8867 313.871 24.1133 313.387 23.1055C312.902 22.0977 312.66 20.918 312.66 19.5664C312.66 17.4727 313.184 15.8438 314.23 14.6797C315.277 13.5078 316.73 12.9219 318.59 12.9219C320.387 12.9219 321.812 13.5195 322.867 14.7148C323.93 15.9102 324.461 17.5273 324.461 19.5664ZM314.676 19.5664C314.676 21.207 315.004 22.457 315.66 23.3164C316.316 24.1758 317.281 24.6055 318.555 24.6055C319.828 24.6055 320.793 24.1797 321.449 23.3281C322.113 22.4688 322.445 21.2148 322.445 19.5664C322.445 17.9336 322.113 16.6953 321.449 15.8516C320.793 15 319.82 14.5742 318.531 14.5742C317.258 14.5742 316.297 14.9922 315.648 15.8281C315 16.6641 314.676 17.9102 314.676 19.5664ZM336.672 26V17.6914C336.672 16.6445 336.434 15.8633 335.957 15.3477C335.48 14.832 334.734 14.5742 333.719 14.5742C332.375 14.5742 331.391 14.9375 330.766 15.6641C330.141 16.3906 329.828 17.5898 329.828 19.2617V26H327.883V13.1562H329.465L329.781 14.9141H329.875C330.273 14.2812 330.832 13.793 331.551 13.4492C332.27 13.0977 333.07 12.9219 333.953 12.9219C335.5 12.9219 336.664 13.2969 337.445 14.0469C338.227 14.7891 338.617 15.9805 338.617 17.6211V26H336.672ZM350.805 26H348.859V7.76562H350.805V26ZM362.828 26L362.441 24.1719H362.348C361.707 24.9766 361.066 25.5234 360.426 25.8125C359.793 26.0938 359 26.2344 358.047 26.2344C356.773 26.2344 355.773 25.9062 355.047 25.25C354.328 24.5938 353.969 23.6602 353.969 22.4492C353.969 19.8555 356.043 18.4961 360.191 18.3711L362.371 18.3008V17.5039C362.371 16.4961 362.152 15.7539 361.715 15.2773C361.285 14.793 360.594 14.5508 359.641 14.5508C358.57 14.5508 357.359 14.8789 356.008 15.5352L355.41 14.0469C356.043 13.7031 356.734 13.4336 357.484 13.2383C358.242 13.043 359 12.9453 359.758 12.9453C361.289 12.9453 362.422 13.2852 363.156 13.9648C363.898 14.6445 364.27 15.7344 364.27 17.2344V26H362.828ZM358.434 24.6289C359.645 24.6289 360.594 24.2969 361.281 23.6328C361.977 22.9688 362.324 22.0391 362.324 20.8438V19.6836L360.379 19.7656C358.832 19.8203 357.715 20.0625 357.027 20.4922C356.348 20.9141 356.008 21.5742 356.008 22.4727C356.008 23.1758 356.219 23.7109 356.641 24.0781C357.07 24.4453 357.668 24.6289 358.434 24.6289ZM376.574 22.4961C376.574 23.6914 376.129 24.6133 375.238 25.2617C374.348 25.9102 373.098 26.2344 371.488 26.2344C369.785 26.2344 368.457 25.9648 367.504 25.4258V23.6211C368.121 23.9336 368.781 24.1797 369.484 24.3594C370.195 24.5391 370.879 24.6289 371.535 24.6289C372.551 24.6289 373.332 24.4688 373.879 24.1484C374.426 23.8203 374.699 23.3242 374.699 22.6602C374.699 22.1602 374.48 21.7344 374.043 21.3828C373.613 21.0234 372.77 20.6016 371.512 20.1172C370.316 19.6719 369.465 19.2852 368.957 18.957C368.457 18.6211 368.082 18.2422 367.832 17.8203C367.59 17.3984 367.469 16.8945 367.469 16.3086C367.469 15.2617 367.895 14.4375 368.746 13.8359C369.598 13.2266 370.766 12.9219 372.25 12.9219C373.633 12.9219 374.984 13.2031 376.305 13.7656L375.613 15.3477C374.324 14.8164 373.156 14.5508 372.109 14.5508C371.188 14.5508 370.492 14.6953 370.023 14.9844C369.555 15.2734 369.32 15.6719 369.32 16.1797C369.32 16.5234 369.406 16.8164 369.578 17.0586C369.758 17.3008 370.043 17.5312 370.434 17.75C370.824 17.9688 371.574 18.2852 372.684 18.6992C374.207 19.2539 375.234 19.8125 375.766 20.375C376.305 20.9375 376.574 21.6445 376.574 22.4961ZM394.27 22.4961C394.27 23.6914 393.824 24.6133 392.934 25.2617C392.043 25.9102 390.793 26.2344 389.184 26.2344C387.48 26.2344 386.152 25.9648 385.199 25.4258V23.6211C385.816 23.9336 386.477 24.1797 387.18 24.3594C387.891 24.5391 388.574 24.6289 389.23 24.6289C390.246 24.6289 391.027 24.4688 391.574 24.1484C392.121 23.8203 392.395 23.3242 392.395 22.6602C392.395 22.1602 392.176 21.7344 391.738 21.3828C391.309 21.0234 390.465 20.6016 389.207 20.1172C388.012 19.6719 387.16 19.2852 386.652 18.957C386.152 18.6211 385.777 18.2422 385.527 17.8203C385.285 17.3984 385.164 16.8945 385.164 16.3086C385.164 15.2617 385.59 14.4375 386.441 13.8359C387.293 13.2266 388.461 12.9219 389.945 12.9219C391.328 12.9219 392.68 13.2031 394 13.7656L393.309 15.3477C392.02 14.8164 390.852 14.5508 389.805 14.5508C388.883 14.5508 388.188 14.6953 387.719 14.9844C387.25 15.2734 387.016 15.6719 387.016 16.1797C387.016 16.5234 387.102 16.8164 387.273 17.0586C387.453 17.3008 387.738 17.5312 388.129 17.75C388.52 17.9688 389.27 18.2852 390.379 18.6992C391.902 19.2539 392.93 19.8125 393.461 20.375C394 20.9375 394.27 21.6445 394.27 22.4961ZM399.391 26H397.445V13.1562H399.391V26ZM397.363 11.1641C397.738 10.6797 398.141 10.0938 398.57 9.40625C399.008 8.71875 399.352 8.12109 399.602 7.61328H401.969V7.85938C401.625 8.36719 401.113 8.99219 400.434 9.73438C399.754 10.4766 399.164 11.0508 398.664 11.457H397.363V11.1641ZM405.461 26H403.516V7.76562H405.461V26ZM417.484 26L417.098 24.1719H417.004C416.363 24.9766 415.723 25.5234 415.082 25.8125C414.449 26.0938 413.656 26.2344 412.703 26.2344C411.43 26.2344 410.43 25.9062 409.703 25.25C408.984 24.5938 408.625 23.6602 408.625 22.4492C408.625 19.8555 410.699 18.4961 414.848 18.3711L417.027 18.3008V17.5039C417.027 16.4961 416.809 15.7539 416.371 15.2773C415.941 14.793 415.25 14.5508 414.297 14.5508C413.227 14.5508 412.016 14.8789 410.664 15.5352L410.066 14.0469C410.699 13.7031 411.391 13.4336 412.141 13.2383C412.898 13.043 413.656 12.9453 414.414 12.9453C415.945 12.9453 417.078 13.2852 417.812 13.9648C418.555 14.6445 418.926 15.7344 418.926 17.2344V26H417.484ZM413.09 24.6289C414.301 24.6289 415.25 24.2969 415.938 23.6328C416.633 22.9688 416.98 22.0391 416.98 20.8438V19.6836L415.035 19.7656C413.488 19.8203 412.371 20.0625 411.684 20.4922C411.004 20.9141 410.664 21.5742 410.664 22.4727C410.664 23.1758 410.875 23.7109 411.297 24.0781C411.727 24.4453 412.324 24.6289 413.09 24.6289ZM428.922 12.9453C430.609 12.9453 431.918 13.5234 432.848 14.6797C433.785 15.8281 434.254 17.457 434.254 19.5664C434.254 21.6758 433.781 23.3164 432.836 24.4883C431.898 25.6523 430.594 26.2344 428.922 26.2344C428.086 26.2344 427.32 26.082 426.625 25.7773C425.938 25.4648 425.359 24.9883 424.891 24.3477H424.75L424.34 26H422.945V7.76562H424.891V12.1953C424.891 13.1875 424.859 14.0781 424.797 14.8672H424.891C425.797 13.5859 427.141 12.9453 428.922 12.9453ZM428.641 14.5742C427.312 14.5742 426.355 14.957 425.77 15.7227C425.184 16.4805 424.891 17.7617 424.891 19.5664C424.891 21.3711 425.191 22.6641 425.793 23.4453C426.395 24.2188 427.359 24.6055 428.688 24.6055C429.883 24.6055 430.773 24.1719 431.359 23.3047C431.945 22.4297 432.238 21.1758 432.238 19.543C432.238 17.8711 431.945 16.625 431.359 15.8047C430.773 14.9844 429.867 14.5742 428.641 14.5742ZM445.562 26L445.176 24.1719H445.082C444.441 24.9766 443.801 25.5234 443.16 25.8125C442.527 26.0938 441.734 26.2344 440.781 26.2344C439.508 26.2344 438.508 25.9062 437.781 25.25C437.062 24.5938 436.703 23.6602 436.703 22.4492C436.703 19.8555 438.777 18.4961 442.926 18.3711L445.105 18.3008V17.5039C445.105 16.4961 444.887 15.7539 444.449 15.2773C444.02 14.793 443.328 14.5508 442.375 14.5508C441.305 14.5508 440.094 14.8789 438.742 15.5352L438.145 14.0469C438.777 13.7031 439.469 13.4336 440.219 13.2383C440.977 13.043 441.734 12.9453 442.492 12.9453C444.023 12.9453 445.156 13.2852 445.891 13.9648C446.633 14.6445 447.004 15.7344 447.004 17.2344V26H445.562ZM441.168 24.6289C442.379 24.6289 443.328 24.2969 444.016 23.6328C444.711 22.9688 445.059 22.0391 445.059 20.8438V19.6836L443.113 19.7656C441.566 19.8203 440.449 20.0625 439.762 20.4922C439.082 20.9141 438.742 21.5742 438.742 22.4727C438.742 23.1758 438.953 23.7109 439.375 24.0781C439.805 24.4453 440.402 24.6289 441.168 24.6289ZM459.309 22.4961C459.309 23.6914 458.863 24.6133 457.973 25.2617C457.082 25.9102 455.832 26.2344 454.223 26.2344C452.52 26.2344 451.191 25.9648 450.238 25.4258V23.6211C450.855 23.9336 451.516 24.1797 452.219 24.3594C452.93 24.5391 453.613 24.6289 454.27 24.6289C455.285 24.6289 456.066 24.4688 456.613 24.1484C457.16 23.8203 457.434 23.3242 457.434 22.6602C457.434 22.1602 457.215 21.7344 456.777 21.3828C456.348 21.0234 455.504 20.6016 454.246 20.1172C453.051 19.6719 452.199 19.2852 451.691 18.957C451.191 18.6211 450.816 18.2422 450.566 17.8203C450.324 17.3984 450.203 16.8945 450.203 16.3086C450.203 15.2617 450.629 14.4375 451.48 13.8359C452.332 13.2266 453.5 12.9219 454.984 12.9219C456.367 12.9219 457.719 13.2031 459.039 13.7656L458.348 15.3477C457.059 14.8164 455.891 14.5508 454.844 14.5508C453.922 14.5508 453.227 14.6953 452.758 14.9844C452.289 15.2734 452.055 15.6719 452.055 16.1797C452.055 16.5234 452.141 16.8164 452.312 17.0586C452.492 17.3008 452.777 17.5312 453.168 17.75C453.559 17.9688 454.309 18.2852 455.418 18.6992C456.941 19.2539 457.969 19.8125 458.5 20.375C459.039 20.9375 459.309 21.6445 459.309 22.4961ZM473.57 24.6055C474.867 24.6055 475.812 24.2578 476.406 23.5625C477 22.8672 477.316 21.6953 477.355 20.0469V19.6133C477.355 17.8164 477.051 16.5234 476.441 15.7344C475.832 14.9453 474.867 14.5508 473.547 14.5508C472.406 14.5508 471.531 14.9961 470.922 15.8867C470.32 16.7695 470.02 18.0195 470.02 19.6367C470.02 21.2539 470.316 22.4883 470.91 23.3398C471.512 24.1836 472.398 24.6055 473.57 24.6055ZM473.277 26.2344C471.621 26.2344 470.328 25.6523 469.398 24.4883C468.469 23.3242 468.004 21.6992 468.004 19.6133C468.004 17.5117 468.473 15.8711 469.41 14.6914C470.348 13.5117 471.652 12.9219 473.324 12.9219C475.082 12.9219 476.434 13.5859 477.379 14.9141H477.484L477.766 13.1562H479.301V31.7656H477.355V26.2695C477.355 25.4883 477.398 24.8242 477.484 24.2773H477.332C476.434 25.582 475.082 26.2344 473.277 26.2344ZM485.266 13.1562V21.4883C485.266 22.5352 485.504 23.3164 485.98 23.832C486.457 24.3477 487.203 24.6055 488.219 24.6055C489.562 24.6055 490.543 24.2383 491.16 23.5039C491.785 22.7695 492.098 21.5703 492.098 19.9062V13.1562H494.043V26H492.438L492.156 24.2773H492.051C491.652 24.9102 491.098 25.3945 490.387 25.7305C489.684 26.0664 488.879 26.2344 487.973 26.2344C486.41 26.2344 485.238 25.8633 484.457 25.1211C483.684 24.3789 483.297 23.1914 483.297 21.5586V13.1562H485.266ZM503.605 26.2344C501.707 26.2344 500.207 25.6562 499.105 24.5C498.012 23.3438 497.465 21.7383 497.465 19.6836C497.465 17.6133 497.973 15.9688 498.988 14.75C500.012 13.5312 501.383 12.9219 503.102 12.9219C504.711 12.9219 505.984 13.4531 506.922 14.5156C507.859 15.5703 508.328 16.9648 508.328 18.6992V19.9297H499.48C499.52 21.4375 499.898 22.582 500.617 23.3633C501.344 24.1445 502.363 24.5352 503.676 24.5352C505.059 24.5352 506.426 24.2461 507.777 23.668V25.4023C507.09 25.6992 506.438 25.9102 505.82 26.0352C505.211 26.168 504.473 26.2344 503.605 26.2344ZM503.078 14.5508C502.047 14.5508 501.223 14.8867 500.605 15.5586C499.996 16.2305 499.637 17.1602 499.527 18.3477H506.242C506.242 17.1211 505.969 16.1836 505.422 15.5352C504.875 14.8789 504.094 14.5508 503.078 14.5508ZM523.316 26.2344C521.418 26.2344 519.918 25.6562 518.816 24.5C517.723 23.3438 517.176 21.7383 517.176 19.6836C517.176 17.6133 517.684 15.9688 518.699 14.75C519.723 13.5312 521.094 12.9219 522.812 12.9219C524.422 12.9219 525.695 13.4531 526.633 14.5156C527.57 15.5703 528.039 16.9648 528.039 18.6992V19.9297H519.191C519.23 21.4375 519.609 22.582 520.328 23.3633C521.055 24.1445 522.074 24.5352 523.387 24.5352C524.77 24.5352 526.137 24.2461 527.488 23.668V25.4023C526.801 25.6992 526.148 25.9102 525.531 26.0352C524.922 26.168 524.184 26.2344 523.316 26.2344ZM522.789 14.5508C521.758 14.5508 520.934 14.8867 520.316 15.5586C519.707 16.2305 519.348 17.1602 519.238 18.3477H525.953C525.953 17.1211 525.68 16.1836 525.133 15.5352C524.586 14.8789 523.805 14.5508 522.789 14.5508ZM539.652 22.4961C539.652 23.6914 539.207 24.6133 538.316 25.2617C537.426 25.9102 536.176 26.2344 534.566 26.2344C532.863 26.2344 531.535 25.9648 530.582 25.4258V23.6211C531.199 23.9336 531.859 24.1797 532.562 24.3594C533.273 24.5391 533.957 24.6289 534.613 24.6289C535.629 24.6289 536.41 24.4688 536.957 24.1484C537.504 23.8203 537.777 23.3242 537.777 22.6602C537.777 22.1602 537.559 21.7344 537.121 21.3828C536.691 21.0234 535.848 20.6016 534.59 20.1172C533.395 19.6719 532.543 19.2852 532.035 18.957C531.535 18.6211 531.16 18.2422 530.91 17.8203C530.668 17.3984 530.547 16.8945 530.547 16.3086C530.547 15.2617 530.973 14.4375 531.824 13.8359C532.676 13.2266 533.844 12.9219 535.328 12.9219C536.711 12.9219 538.062 13.2031 539.383 13.7656L538.691 15.3477C537.402 14.8164 536.234 14.5508 535.188 14.5508C534.266 14.5508 533.57 14.6953 533.102 14.9844C532.633 15.2734 532.398 15.6719 532.398 16.1797C532.398 16.5234 532.484 16.8164 532.656 17.0586C532.836 17.3008 533.121 17.5312 533.512 17.75C533.902 17.9688 534.652 18.2852 535.762 18.6992C537.285 19.2539 538.312 19.8125 538.844 20.375C539.383 20.9375 539.652 21.6445 539.652 22.4961ZM546.977 24.6289C547.32 24.6289 547.652 24.6055 547.973 24.5586C548.293 24.5039 548.547 24.4492 548.734 24.3945V25.8828C548.523 25.9844 548.211 26.0664 547.797 26.1289C547.391 26.1992 547.023 26.2344 546.695 26.2344C544.211 26.2344 542.969 24.9258 542.969 22.3086V14.668H541.129V13.7305L542.969 12.9219L543.789 10.1797H544.914V13.1562H548.641V14.668H544.914V22.2266C544.914 23 545.098 23.5938 545.465 24.0078C545.832 24.4219 546.336 24.6289 546.977 24.6289ZM559.211 26L558.824 24.1719H558.73C558.09 24.9766 557.449 25.5234 556.809 25.8125C556.176 26.0938 555.383 26.2344 554.43 26.2344C553.156 26.2344 552.156 25.9062 551.43 25.25C550.711 24.5938 550.352 23.6602 550.352 22.4492C550.352 19.8555 552.426 18.4961 556.574 18.3711L558.754 18.3008V17.5039C558.754 16.4961 558.535 15.7539 558.098 15.2773C557.668 14.793 556.977 14.5508 556.023 14.5508C554.953 14.5508 553.742 14.8789 552.391 15.5352L551.793 14.0469C552.426 13.7031 553.117 13.4336 553.867 13.2383C554.625 13.043 555.383 12.9453 556.141 12.9453C557.672 12.9453 558.805 13.2852 559.539 13.9648C560.281 14.6445 560.652 15.7344 560.652 17.2344V26H559.211ZM554.816 24.6289C556.027 24.6289 556.977 24.2969 557.664 23.6328C558.359 22.9688 558.707 22.0391 558.707 20.8438V19.6836L556.762 19.7656C555.215 19.8203 554.098 20.0625 553.41 20.4922C552.73 20.9141 552.391 21.5742 552.391 22.4727C552.391 23.1758 552.602 23.7109 553.023 24.0781C553.453 24.4453 554.051 24.6289 554.816 24.6289ZM554.359 11.1641C554.734 10.6797 555.137 10.0938 555.566 9.40625C556.004 8.71875 556.348 8.12109 556.598 7.61328H558.965V7.85938C558.621 8.36719 558.109 8.99219 557.43 9.73438C556.75 10.4766 556.16 11.0508 555.66 11.457H554.359V11.1641ZM573.461 26V17.6914C573.461 16.6445 573.223 15.8633 572.746 15.3477C572.27 14.832 571.523 14.5742 570.508 14.5742C569.164 14.5742 568.18 14.9375 567.555 15.6641C566.93 16.3906 566.617 17.5898 566.617 19.2617V26H564.672V13.1562H566.254L566.57 14.9141H566.664C567.062 14.2812 567.621 13.793 568.34 13.4492C569.059 13.0977 569.859 12.9219 570.742 12.9219C572.289 12.9219 573.453 13.2969 574.234 14.0469C575.016 14.7891 575.406 15.9805 575.406 17.6211V26H573.461ZM591.074 26.2344C589.176 26.2344 587.676 25.6562 586.574 24.5C585.48 23.3438 584.934 21.7383 584.934 19.6836C584.934 17.6133 585.441 15.9688 586.457 14.75C587.48 13.5312 588.852 12.9219 590.57 12.9219C592.18 12.9219 593.453 13.4531 594.391 14.5156C595.328 15.5703 595.797 16.9648 595.797 18.6992V19.9297H586.949C586.988 21.4375 587.367 22.582 588.086 23.3633C588.812 24.1445 589.832 24.5352 591.145 24.5352C592.527 24.5352 593.895 24.2461 595.246 23.668V25.4023C594.559 25.6992 593.906 25.9102 593.289 26.0352C592.68 26.168 591.941 26.2344 591.074 26.2344ZM590.547 14.5508C589.516 14.5508 588.691 14.8867 588.074 15.5586C587.465 16.2305 587.105 17.1602 586.996 18.3477H593.711C593.711 17.1211 593.438 16.1836 592.891 15.5352C592.344 14.8789 591.562 14.5508 590.547 14.5508ZM607.914 26V17.6914C607.914 16.6445 607.676 15.8633 607.199 15.3477C606.723 14.832 605.977 14.5742 604.961 14.5742C603.617 14.5742 602.633 14.9375 602.008 15.6641C601.383 16.3906 601.07 17.5898 601.07 19.2617V26H599.125V13.1562H600.707L601.023 14.9141H601.117C601.516 14.2812 602.074 13.793 602.793 13.4492C603.512 13.0977 604.312 12.9219 605.195 12.9219C606.742 12.9219 607.906 13.2969 608.688 14.0469C609.469 14.7891 609.859 15.9805 609.859 17.6211V26H607.914ZM622.047 26H620.102V7.76562H622.047V26ZM637.258 19.5664C637.258 21.6602 636.73 23.2969 635.676 24.4766C634.621 25.6484 633.164 26.2344 631.305 26.2344C630.156 26.2344 629.137 25.9648 628.246 25.4258C627.355 24.8867 626.668 24.1133 626.184 23.1055C625.699 22.0977 625.457 20.918 625.457 19.5664C625.457 17.4727 625.98 15.8438 627.027 14.6797C628.074 13.5078 629.527 12.9219 631.387 12.9219C633.184 12.9219 634.609 13.5195 635.664 14.7148C636.727 15.9102 637.258 17.5273 637.258 19.5664ZM627.473 19.5664C627.473 21.207 627.801 22.457 628.457 23.3164C629.113 24.1758 630.078 24.6055 631.352 24.6055C632.625 24.6055 633.59 24.1797 634.246 23.3281C634.91 22.4688 635.242 21.2148 635.242 19.5664C635.242 17.9336 634.91 16.6953 634.246 15.8516C633.59 15 632.617 14.5742 631.328 14.5742C630.055 14.5742 629.094 14.9922 628.445 15.8281C627.797 16.6641 627.473 17.9102 627.473 19.5664ZM648.965 22.4961C648.965 23.6914 648.52 24.6133 647.629 25.2617C646.738 25.9102 645.488 26.2344 643.879 26.2344C642.176 26.2344 640.848 25.9648 639.895 25.4258V23.6211C640.512 23.9336 641.172 24.1797 641.875 24.3594C642.586 24.5391 643.27 24.6289 643.926 24.6289C644.941 24.6289 645.723 24.4688 646.27 24.1484C646.816 23.8203 647.09 23.3242 647.09 22.6602C647.09 22.1602 646.871 21.7344 646.434 21.3828C646.004 21.0234 645.16 20.6016 643.902 20.1172C642.707 19.6719 641.855 19.2852 641.348 18.957C640.848 18.6211 640.473 18.2422 640.223 17.8203C639.98 17.3984 639.859 16.8945 639.859 16.3086C639.859 15.2617 640.285 14.4375 641.137 13.8359C641.988 13.2266 643.156 12.9219 644.641 12.9219C646.023 12.9219 647.375 13.2031 648.695 13.7656L648.004 15.3477C646.715 14.8164 645.547 14.5508 644.5 14.5508C643.578 14.5508 642.883 14.6953 642.414 14.9844C641.945 15.2734 641.711 15.6719 641.711 16.1797C641.711 16.5234 641.797 16.8164 641.969 17.0586C642.148 17.3008 642.434 17.5312 642.824 17.75C643.215 17.9688 643.965 18.2852 645.074 18.6992C646.598 19.2539 647.625 19.8125 648.156 20.375C648.695 20.9375 648.965 21.6445 648.965 22.4961ZM663.508 26.2344C661.648 26.2344 660.207 25.6641 659.184 24.5234C658.168 23.375 657.66 21.7539 657.66 19.6602C657.66 17.5117 658.176 15.8516 659.207 14.6797C660.246 13.5078 661.723 12.9219 663.637 12.9219C664.254 12.9219 664.871 12.9883 665.488 13.1211C666.105 13.2539 666.59 13.4102 666.941 13.5898L666.344 15.2422C665.914 15.0703 665.445 14.9297 664.938 14.8203C664.43 14.7031 663.98 14.6445 663.59 14.6445C660.98 14.6445 659.676 16.3086 659.676 19.6367C659.676 21.2148 659.992 22.4258 660.625 23.2695C661.266 24.1133 662.211 24.5352 663.461 24.5352C664.531 24.5352 665.629 24.3047 666.754 23.8438V25.5664C665.895 26.0117 664.812 26.2344 663.508 26.2344ZM671.758 26H669.812V13.1562H671.758V26ZM669.73 11.1641C670.105 10.6797 670.508 10.0938 670.938 9.40625C671.375 8.71875 671.719 8.12109 671.969 7.61328H674.336V7.85938C673.992 8.36719 673.48 8.99219 672.801 9.73438C672.121 10.4766 671.531 11.0508 671.031 11.457H669.73V11.1641ZM681.742 12.9219C682.312 12.9219 682.824 12.9688 683.277 13.0625L683.008 14.8672C682.477 14.75 682.008 14.6914 681.602 14.6914C680.562 14.6914 679.672 15.1133 678.93 15.957C678.195 16.8008 677.828 17.8516 677.828 19.1094V26H675.883V13.1562H677.488L677.711 15.5352H677.805C678.281 14.6992 678.855 14.0547 679.527 13.6016C680.199 13.1484 680.938 12.9219 681.742 12.9219ZM690.812 26.2344C688.953 26.2344 687.512 25.6641 686.488 24.5234C685.473 23.375 684.965 21.7539 684.965 19.6602C684.965 17.5117 685.48 15.8516 686.512 14.6797C687.551 13.5078 689.027 12.9219 690.941 12.9219C691.559 12.9219 692.176 12.9883 692.793 13.1211C693.41 13.2539 693.895 13.4102 694.246 13.5898L693.648 15.2422C693.219 15.0703 692.75 14.9297 692.242 14.8203C691.734 14.7031 691.285 14.6445 690.895 14.6445C688.285 14.6445 686.98 16.3086 686.98 19.6367C686.98 21.2148 687.297 22.4258 687.93 23.2695C688.57 24.1133 689.516 24.5352 690.766 24.5352C691.836 24.5352 692.934 24.3047 694.059 23.8438V25.5664C693.199 26.0117 692.117 26.2344 690.812 26.2344ZM698.945 13.1562V21.4883C698.945 22.5352 699.184 23.3164 699.66 23.832C700.137 24.3477 700.883 24.6055 701.898 24.6055C703.242 24.6055 704.223 24.2383 704.84 23.5039C705.465 22.7695 705.777 21.5703 705.777 19.9062V13.1562H707.723V26H706.117L705.836 24.2773H705.73C705.332 24.9102 704.777 25.3945 704.066 25.7305C703.363 26.0664 702.559 26.2344 701.652 26.2344C700.09 26.2344 698.918 25.8633 698.137 25.1211C697.363 24.3789 696.977 23.1914 696.977 21.5586V13.1562H698.945ZM713.805 26H711.859V7.76562H713.805V26ZM729.016 19.5664C729.016 21.6602 728.488 23.2969 727.434 24.4766C726.379 25.6484 724.922 26.2344 723.062 26.2344C721.914 26.2344 720.895 25.9648 720.004 25.4258C719.113 24.8867 718.426 24.1133 717.941 23.1055C717.457 22.0977 717.215 20.918 717.215 19.5664C717.215 17.4727 717.738 15.8438 718.785 14.6797C719.832 13.5078 721.285 12.9219 723.145 12.9219C724.941 12.9219 726.367 13.5195 727.422 14.7148C728.484 15.9102 729.016 17.5273 729.016 19.5664ZM719.23 19.5664C719.23 21.207 719.559 22.457 720.215 23.3164C720.871 24.1758 721.836 24.6055 723.109 24.6055C724.383 24.6055 725.348 24.1797 726.004 23.3281C726.668 22.4688 727 21.2148 727 19.5664C727 17.9336 726.668 16.6953 726.004 15.8516C725.348 15 724.375 14.5742 723.086 14.5742C721.812 14.5742 720.852 14.9922 720.203 15.8281C719.555 16.6641 719.23 17.9102 719.23 19.5664ZM740.723 22.4961C740.723 23.6914 740.277 24.6133 739.387 25.2617C738.496 25.9102 737.246 26.2344 735.637 26.2344C733.934 26.2344 732.605 25.9648 731.652 25.4258V23.6211C732.27 23.9336 732.93 24.1797 733.633 24.3594C734.344 24.5391 735.027 24.6289 735.684 24.6289C736.699 24.6289 737.48 24.4688 738.027 24.1484C738.574 23.8203 738.848 23.3242 738.848 22.6602C738.848 22.1602 738.629 21.7344 738.191 21.3828C737.762 21.0234 736.918 20.6016 735.66 20.1172C734.465 19.6719 733.613 19.2852 733.105 18.957C732.605 18.6211 732.23 18.2422 731.98 17.8203C731.738 17.3984 731.617 16.8945 731.617 16.3086C731.617 15.2617 732.043 14.4375 732.895 13.8359C733.746 13.2266 734.914 12.9219 736.398 12.9219C737.781 12.9219 739.133 13.2031 740.453 13.7656L739.762 15.3477C738.473 14.8164 737.305 14.5508 736.258 14.5508C735.336 14.5508 734.641 14.6953 734.172 14.9844C733.703 15.2734 733.469 15.6719 733.469 16.1797C733.469 16.5234 733.555 16.8164 733.727 17.0586C733.906 17.3008 734.191 17.5312 734.582 17.75C734.973 17.9688 735.723 18.2852 736.832 18.6992C738.355 19.2539 739.383 19.8125 739.914 20.375C740.453 20.9375 740.723 21.6445 740.723 22.4961ZM743.617 24.7578C743.617 24.2344 743.734 23.8398 743.969 23.5742C744.211 23.3008 744.555 23.1641 745 23.1641C745.453 23.1641 745.805 23.3008 746.055 23.5742C746.312 23.8398 746.441 24.2344 746.441 24.7578C746.441 25.2656 746.312 25.6562 746.055 25.9297C745.797 26.2031 745.445 26.3398 745 26.3398C744.602 26.3398 744.27 26.2188 744.004 25.9766C743.746 25.7266 743.617 25.3203 743.617 24.7578Z" fill="black"/>
<path d="M649.348 426.161C650.889 430.858 652.272 436.045 652.972 440.759C654.023 448.26 656.632 457.425 656.106 464.926C655.406 474.004 653.182 475.266 649.698 483.467C648.823 485.395 646.214 489.671 645.181 491.424C643.78 493.86 643.745 495.822 640.961 495.998C638.002 495.998 625.063 495.98 622.665 497.102C622.227 497.312 621.964 497.627 621.789 497.978C625.641 498.942 634.57 497.82 638.562 497.995C635.639 499.941 628.232 501.991 625.799 506.18C628.232 506.53 631.997 504.234 634.273 503.183C636.882 502.131 639.403 500.063 642.012 499.187C640.436 502.499 635.568 505.987 635.744 510C642.677 505.058 648.805 490.635 650.906 486.972C653.007 483.485 655.599 476.352 657.174 472.865C658.908 469.027 662.567 469.658 660.308 465.119C658.558 461.807 658.295 455.866 658.015 451.975C657.455 444.562 656.649 438.674 656.124 431.348C656.001 429.403 655.879 427.458 655.651 425.53C655.546 424.671 650.363 426.792 650.206 425.951" fill="#F3A5C2"/>
<path d="M632.311 422.726C631.261 435.817 624.66 456.567 623.82 459.493C621.806 466.433 619.512 473.478 615.503 479.577C613.419 482.714 611.634 485.868 610.513 486.376C607.029 487.603 602.476 488.76 598.817 488.917C597.066 489.093 589.712 489.811 589.362 492.072C591.446 492.948 595.403 491.318 597.661 491.143C600.796 490.793 603.369 490.162 606.591 489.759C604.07 491.949 594.755 494.56 593.897 499.099C598.239 498.03 605.225 493.158 608.885 490.547C608.009 494.035 601.338 498.819 602.441 502.324C603.982 500.589 606.714 498.539 609.025 495.594C611.528 492.405 613.069 488.549 613.577 486.902C616.378 483.765 619.705 477.859 621.789 474.021C623.539 470.709 623.382 467.747 625.658 464.786C626.709 463.384 628.057 463.506 628.775 461.964C629.405 460.615 628.705 459.651 628.354 457.741C627.829 454.604 630.333 448.698 631.383 445.736C633.992 438.586 635.235 433.591 637.336 426.266C637.862 424.338 638.877 423.409 639.227 421.482C637.301 420.956 634.885 423.409 633.134 424.268" fill="#F3A5C2"/>
<path d="M623.4 370.714C625.273 362.39 647.543 297.318 640.365 291.342C638.334 289.659 635.987 288.415 633.326 287.819C619.704 284.875 598.063 291.833 593.529 305.467C593.441 305.712 593.441 306.063 593.476 306.448C593.546 307.377 593.844 308.569 593.896 309.182C594.124 312.337 594.246 315.509 594.369 318.663C594.562 323.675 597.258 328.197 597.556 333.331C597.731 336.504 597.573 339.588 597.258 342.672" fill="#F0EFE5"/>
<path d="M597.241 342.672C596.82 346.51 596.12 350.296 595.402 354.116C594.334 359.794 593.231 366.471 593.301 372.184C593.441 382.156 597.17 392.951 600.83 402.222C604.367 411.195 609.742 420.483 619.179 424.181C631.47 429 648.821 433.539 661.918 431.664C671.565 430.139 681.213 428.141 690.632 426.336C691.123 426.248 691.613 426.143 692.103 426.056C696.918 425.25 707.056 422.586 711.608 421.236C714.059 420.518 720.905 420.641 721.588 417.696C719.084 417.451 716.528 417.013 713.989 416.61C706.198 415.401 701.558 410.932 694.957 406.901C692.331 405.289 689.757 404.412 687.306 402.415C676.433 393.617 665.717 383.33 651.5 380.579C644.549 379.247 639.752 377.915 633.869 373.902" fill="#F0EFE5"/>
<path d="M594.354 318.663C594.546 323.675 597.242 328.197 597.54 333.331C597.715 336.503 597.575 339.588 597.242 342.672" stroke="#DAD8CC" stroke-width="0.245" stroke-linecap="round"/>
<path d="M640.612 291.552C638.528 289.765 636.094 288.433 633.328 287.819C619.706 284.875 598.065 291.833 593.53 305.467C593.46 305.677 593.443 305.94 593.46 306.256" stroke="#DAD8CC" stroke-width="0.245" stroke-linecap="round"/>
<path d="M651.063 380.509C645.916 379.51 642.554 378.703 638.439 376.618" stroke="#DAD8CC" stroke-width="0.245" stroke-linecap="round"/>
<path d="M597.241 342.672C596.82 346.51 596.12 350.296 595.402 354.116C594.334 359.794 593.231 366.471 593.301 372.184C593.441 382.156 597.17 392.951 600.83 402.222C604.367 411.195 609.742 420.483 619.179 424.181C631.47 429 648.821 433.539 661.918 431.664C671.635 430.121 681.335 428.106 690.808 426.301" stroke="#DAD8CC" stroke-width="0.245" stroke-linecap="round"/>
<path d="M639.77 292.779C642.063 289.151 648.489 283.999 652.481 283C651.028 284.139 645.985 289.204 644.655 292.411C647.859 290.536 650.695 289.589 654.442 289.589C647.228 291.99 645.373 295.881 641.906 302.575C641.363 300.7 637.406 300.91 637.126 299.561C636.863 297.966 638.632 294.566 639.77 292.779Z" fill="black"/>
<path d="M638.439 376.618C636.951 375.864 635.427 375.006 633.852 373.919C625.57 368.311 630.91 362.686 633.326 354.94C635.725 347.719 638.141 341.305 641.608 334.348C644.55 328.74 647.473 323.658 648.822 317.244C650.222 311.022 648.787 302.978 644.987 296.827C643.446 299.824 633.484 298.036 627.303 299.386C625.237 299.841 626.305 303.802 624.642 304.188C620.808 305.081 615.642 308.534 618.094 308.937C628.179 310.514 632.136 315.298 632.486 320.048C633.834 338.379 590.762 361.897 601.811 382.506C608.779 394.932 626.918 385.012 638.439 376.618Z" fill="black"/>
<path d="M616.853 314.264C622.981 315.456 627.481 311.057 627.971 304.731C628.531 297.563 623.821 294.707 618.849 295.127C608.484 296.021 603.178 311.583 616.853 314.264Z" fill="black"/>
<path d="M604.736 323.377C602.057 328.197 609.271 331.667 611.144 324.709" stroke="black" stroke-width="0.604" stroke-miterlimit="10" stroke-linecap="round"/>
<path d="M721.572 417.696C719.068 417.451 716.512 417.013 713.973 416.61C706.182 415.401 701.542 410.932 694.959 406.901C692.332 405.289 689.759 404.412 687.307 402.415C676.434 393.617 665.737 383.33 651.502 380.579C651.362 380.544 651.222 380.526 651.082 380.491C650.294 381.192 649.541 381.911 648.823 382.717C644.813 386.73 638.948 392.338 639.211 398.752C639.473 405.446 645.356 408.636 650.696 411.861C662.06 418.941 677.695 424.093 691.107 426.213C691.422 426.161 691.772 426.091 692.087 426.021C696.902 425.215 707.04 422.551 711.592 421.201C714.026 420.518 720.872 420.641 721.572 417.696Z" fill="black"/>
<path d="M578.087 322.606C581.379 321.835 584.688 321.082 587.997 320.398C589.555 320.083 591.096 319.767 592.654 319.469C594.178 319.189 594.686 318.803 595.316 317.331C595.789 316.21 596.121 314.948 596.226 313.721C596.384 311.951 595.946 310.164 595.123 308.586C594.861 308.078 594.265 306.694 593.705 306.483C593.04 306.238 592.339 306.974 591.779 307.254C589.363 308.464 586.929 309.62 584.478 310.759C579.12 313.213 573.692 315.526 568.247 317.804C556.796 322.589 545.171 327.093 534 332.543C547.114 329.213 561.121 326.584 578.087 322.606Z" fill="black"/>
<path d="M617.254 296.81C610.775 298.404 605.278 310.97 617.691 312.862C622.401 313.581 626.691 309.322 626.603 303.609C626.516 297.844 621.911 295.67 617.254 296.81Z" fill="white"/>
<path d="M615.592 305.607C618.043 306.08 618.796 302.277 616.345 301.804C614.489 301.436 613.141 305.116 615.592 305.607Z" fill="black"/>
<path d="M600.985 551.621C600.985 559.039 606.818 565.058 613.981 565.058C621.156 565.058 626.984 559.039 626.984 551.621C626.984 544.196 621.156 538.188 613.981 538.188C606.818 538.188 600.985 544.196 600.985 551.621Z" fill="#7DC327"/>
<path d="M636.569 556.283C635.666 564.677 642.566 570.122 649.941 570.122C657.324 570.122 662.706 564.524 663.323 556.286C663.894 548.664 657.3 543.142 649.941 542.454C642.096 541.723 637.408 548.692 636.569 556.283Z" fill="#7DC327"/>
<path d="M624.317 612.176C624.317 612.176 611.215 637.134 606.007 640.86C601.792 643.884 599.961 642.314 599.961 642.314C599.961 642.314 587.799 638.232 589.544 640.988C591.29 643.754 599.321 645.428 599.321 645.428C599.321 645.428 584.891 646.118 586.846 647.904C588.787 649.672 600.77 649.87 600.77 649.87C600.77 649.87 585.553 653.953 589.108 654.761C594.074 655.889 606.911 653.89 608.724 651.033C610.54 648.169 624.735 628.044 628.619 623.58C632.478 619.12 624.317 612.176 624.317 612.176Z" fill="#7DC327"/>
<mask id="mask0" mask-type="alpha" maskUnits="userSpaceOnUse" x="586" y="612" width="44" height="44">
<path d="M624.317 612.176C624.317 612.176 611.215 637.134 606.007 640.86C601.792 643.884 599.961 642.314 599.961 642.314C599.961 642.314 587.799 638.232 589.544 640.988C591.29 643.754 599.321 645.428 599.321 645.428C599.321 645.428 584.891 646.118 586.846 647.904C588.787 649.672 600.77 649.87 600.77 649.87C600.77 649.87 585.553 653.953 589.108 654.761C594.074 655.889 606.911 653.89 608.724 651.033C610.54 648.169 624.735 628.044 628.619 623.58C632.478 619.12 624.317 612.176 624.317 612.176Z" fill="#7DC327"/>
</mask>
<g mask="url(#mask0)">
<path d="M600.938 638.794C600.938 638.794 599.355 643.718 599.321 645.428C599.291 646.847 600.677 650.272 601.216 651.585C601.693 652.739 602.853 655.497 602.853 655.497C602.853 655.497 600.584 660.017 599.491 660.286C598.398 660.56 592.656 663.172 588.556 661.457C584.455 659.739 577.896 657.282 576.802 652.085C575.707 646.888 579.263 637.591 579.263 637.591L591.838 636.478L600.938 638.794Z" fill="#FF0000"/>
</g>
<path d="M603.65 551.621C603.65 557.519 608.289 562.304 613.981 562.304C619.689 562.304 624.321 557.519 624.321 551.621C624.321 545.719 619.691 540.94 613.981 540.94C608.291 540.94 603.65 545.719 603.65 551.621Z" fill="white"/>
<path d="M644.222 548.341C618.02 544.52 572.35 570.096 572.477 584.07C572.667 604.167 609.387 603.432 609.387 603.432C609.387 603.432 622.838 613.395 628.617 623.58C646.499 644.382 691.846 665.372 708.498 662.73C719.421 660.998 721.776 652.504 716.92 620.177C711.905 586.826 673.255 572.805 673.255 572.805C673.255 572.805 668.077 551.822 644.222 548.341Z" fill="#7DC327"/>
<path d="M639.605 556.279C638.911 562.759 644.241 566.965 649.936 566.965C655.639 566.965 659.797 562.643 660.276 556.279C660.713 550.394 655.622 546.128 649.936 545.598C643.875 545.028 640.258 550.415 639.605 556.279Z" fill="white"/>
<path d="M647.995 556.294C647.857 557.519 648.875 558.313 649.966 558.313C651.044 558.313 651.829 557.502 651.926 556.294C651.997 555.179 651.04 554.362 649.966 554.265C648.799 554.159 648.111 555.186 647.995 556.294Z" fill="black"/>
<path d="M609.871 549.581C609.744 550.674 610.641 551.386 611.618 551.386C612.571 551.386 613.281 550.653 613.358 549.581C613.432 548.587 612.565 547.86 611.618 547.776C610.592 547.681 609.973 548.587 609.871 549.581Z" fill="black"/>
<path d="M609.387 603.432C609.387 603.432 620.511 604.189 637.995 594.366C672.108 644.345 705.531 653.338 708.5 662.732C708.853 663.845 665.36 657.168 640.138 635.467C629.691 626.474 609.387 603.432 609.387 603.432Z" fill="#FFE610"/>
<path d="M583.32 584.413C583.32 585.071 583.855 585.612 584.53 585.612C585.203 585.612 585.744 585.071 585.744 584.413C585.744 583.738 585.203 583.206 584.53 583.206C583.857 583.208 583.32 583.74 583.32 584.413Z" fill="black"/>
<path d="M576.259 582.451C576.259 583.214 576.878 583.837 577.641 583.837C578.413 583.837 579.032 583.216 579.032 582.451C579.032 581.687 578.415 581.073 577.641 581.073C576.878 581.075 576.259 581.69 576.259 582.451Z" fill="black"/>
<path d="M637.936 619.116C637.936 619.116 628.703 647.888 624.341 652.577C620.813 656.385 618.711 655.214 618.711 655.214C618.711 655.214 605.973 653.64 608.235 655.993C610.504 658.356 618.711 658.384 618.711 658.384C618.711 658.384 604.703 661.938 606.967 663.299C609.225 664.651 621.018 662.452 621.018 662.452C621.018 662.452 606.913 669.495 610.568 669.566C615.64 669.689 627.823 665.16 629.029 662.005C630.243 658.829 643.45 631.305 646.357 626.153C649.923 620.177 637.936 619.116 637.936 619.116Z" fill="#7DC327"/>
<mask id="mask1" mask-type="alpha" maskUnits="userSpaceOnUse" x="606" y="619" width="42" height="51">
<path d="M637.936 619.116C637.936 619.116 628.703 647.888 624.341 652.577C620.813 656.385 618.711 655.214 618.711 655.214C618.711 655.214 605.973 653.64 608.235 655.993C610.504 658.356 618.711 658.384 618.711 658.384C618.711 658.384 604.703 661.938 606.967 663.299C609.225 664.651 621.018 662.452 621.018 662.452C621.018 662.452 606.913 669.495 610.568 669.566C615.64 669.689 627.823 665.16 629.029 662.005C630.243 658.829 643.45 631.305 646.357 626.153C649.923 620.177 637.936 619.116 637.936 619.116Z" fill="#7DC327"/>
</mask>
<g mask="url(#mask1)">
<path d="M619.818 649.855C619.818 649.855 619.098 654.981 619.359 656.67C619.575 658.072 621.524 661.214 622.279 662.411C622.949 663.467 624.562 665.982 624.562 665.982C624.562 665.982 623.098 670.825 622.072 671.28C621.039 671.74 615.827 675.294 611.495 674.3C607.163 673.31 600.278 672.011 598.313 667.075C596.349 662.143 598.262 652.376 598.262 652.376L610.464 649.133L619.818 649.855Z" fill="#FF0000"/>
</g>
<path d="M590.836 639.594C590.836 640.744 589.9 641.68 588.75 641.68C587.597 641.68 586.663 640.744 586.663 639.594C586.663 638.441 587.597 637.505 588.75 637.505C589.9 637.505 590.836 638.441 590.836 639.594Z" fill="#FD0706"/>
<path d="M588.129 647.615C588.129 648.768 587.195 649.7 586.044 649.7C584.892 649.7 583.954 648.768 583.954 647.615C583.954 646.465 584.892 645.529 586.044 645.529C587.195 645.529 588.129 646.463 588.129 647.615Z" fill="#FD0706"/>
<path d="M590.212 654.707C590.212 655.857 589.281 656.793 588.129 656.793C586.978 656.793 586.042 655.857 586.042 654.707C586.042 653.554 586.978 652.622 588.129 652.622C589.281 652.622 590.212 653.554 590.212 654.707Z" fill="#FD0706"/>
<path d="M609.615 655.085C609.615 656.234 608.683 657.166 607.532 657.166C606.38 657.166 605.444 656.234 605.444 655.085C605.444 653.931 606.38 652.995 607.532 652.995C608.683 652.995 609.615 653.931 609.615 655.085Z" fill="#FD0706"/>
<path d="M608.802 662.734C608.802 663.883 607.871 664.815 606.719 664.815C605.568 664.815 604.632 663.883 604.632 662.734C604.632 661.58 605.568 660.644 606.719 660.644C607.871 660.644 608.802 661.58 608.802 662.734Z" fill="#FD0706"/>
<path d="M612.533 669.171C612.533 670.321 611.599 671.257 610.45 671.257C609.298 671.257 608.362 670.321 608.362 669.171C608.362 668.017 609.298 667.082 610.45 667.082C611.601 667.082 612.533 668.017 612.533 669.171Z" fill="#FD0706"/>
<path d="M609.387 602.77C639.256 602.77 639.256 588.278 639.256 588.278" stroke="black" stroke-width="0.665" stroke-linecap="round"/>
<path d="M692.081 637.505C682.529 632.968 662.171 619.427 654.32 629.914C646.482 640.401 668.668 666.204 668.668 666.204C668.668 666.204 631.609 666.616 633.714 669.094C635.801 671.574 652.176 669.961 652.176 669.961C652.176 669.961 632.239 673.691 632.78 675.949C633.319 678.216 653.203 673.223 653.203 673.223C653.203 673.223 637.423 682.039 639.09 683.79C640.741 685.544 654.796 678.934 666.007 675.13C677.209 671.321 684.677 676.553 683.902 671.727C683.111 666.905 670.279 653.439 670.279 653.439C670.279 653.439 690.091 664.858 699.874 664.811C723.993 664.709 700.864 641.68 692.081 637.505Z" fill="#96CE17"/>
<mask id="mask2" mask-type="alpha" maskUnits="userSpaceOnUse" x="632" y="626" width="79" height="59">
<path d="M692.081 637.505C682.529 632.968 662.171 619.427 654.32 629.914C646.482 640.401 668.668 666.204 668.668 666.204C668.668 666.204 631.609 666.616 633.714 669.094C635.801 671.574 652.176 669.961 652.176 669.961C652.176 669.961 632.239 673.691 632.78 675.949C633.319 678.216 653.203 673.223 653.203 673.223C653.203 673.223 637.423 682.039 639.09 683.79C640.741 685.544 654.796 678.934 666.007 675.13C677.209 671.321 684.677 676.553 683.902 671.727C683.111 666.905 670.279 653.439 670.279 653.439C670.279 653.439 690.091 664.858 699.874 664.811C723.993 664.709 700.864 641.68 692.081 637.505Z" fill="#96CE17"/>
</mask>
<g mask="url(#mask2)">
<path d="M651.777 663.758C651.777 663.758 651.521 668.386 652.179 669.963C653.341 672.734 654.415 674.938 655.266 676.066C656.017 677.068 657.83 679.443 657.83 679.443C657.83 679.443 656.774 684.388 655.784 684.927C654.79 685.466 649.895 689.438 645.494 688.807C641.093 688.175 634.124 687.446 631.76 682.691C629.397 677.935 630.497 668.046 630.497 668.046L642.393 663.808L651.777 663.758Z" fill="#FF0000"/>
</g>
<path d="M635.937 668.91C636.034 670.06 635.176 671.063 634.033 671.16C632.881 671.257 631.877 670.401 631.782 669.255C631.687 668.106 632.538 667.099 633.688 667.002C634.835 666.909 635.844 667.759 635.937 668.91Z" fill="#FD0706"/>
<path d="M635.333 675.35C635.425 676.499 634.569 677.506 633.422 677.599C632.279 677.696 631.27 676.84 631.173 675.695C631.078 674.545 631.932 673.538 633.082 673.441C634.227 673.349 635.234 674.2 635.333 675.35Z" fill="#FD0706"/>
<path d="M641.332 683.564C641.425 684.709 640.573 685.716 639.426 685.809C638.275 685.906 637.272 685.05 637.175 683.905C637.082 682.755 637.934 681.748 639.083 681.655C640.228 681.558 641.237 682.412 641.332 683.564Z" fill="#FD0706"/>
<path d="M693.968 627.708C694.639 625.497 696.972 624.247 699.182 624.911C701.388 625.581 702.643 627.915 701.975 630.121C701.308 632.331 698.975 633.582 696.765 632.914C694.555 632.249 693.304 629.916 693.968 627.708Z" fill="#FF0000"/>
<path d="M708.809 634.402C709.193 633.134 710.532 632.418 711.8 632.801C713.064 633.185 713.78 634.52 713.396 635.788C713.012 637.052 711.682 637.768 710.414 637.384C709.148 637.005 708.43 635.67 708.809 634.402Z" fill="#FF0000"/>
<path d="M679.857 616.006C680.152 615.038 681.174 614.488 682.14 614.781C683.109 615.077 683.661 616.095 683.361 617.067C683.074 618.031 682.052 618.579 681.082 618.288C680.113 617.995 679.57 616.977 679.857 616.006Z" fill="#FF0000"/>
<path d="M701.97 639.679C702.261 638.71 703.283 638.163 704.253 638.458C705.221 638.749 705.769 639.771 705.474 640.742C705.178 641.706 704.161 642.253 703.194 641.962C702.224 641.667 701.676 640.647 701.97 639.679Z" fill="#FF0000"/>
<path d="M711.191 623.496C710.647 625.282 708.769 626.293 706.984 625.75C705.203 625.215 704.196 623.328 704.73 621.546C705.269 619.77 707.156 618.754 708.933 619.297C710.718 619.832 711.725 621.715 711.191 623.496Z" fill="#FF0000"/>
<path d="M691.889 606.261C691.717 608.116 690.074 609.483 688.222 609.306C686.369 609.136 685.004 607.488 685.177 605.633C685.345 603.783 686.992 602.42 688.845 602.593C690.697 602.763 692.062 604.409 691.889 606.261Z" fill="#FF0000"/>
<path d="M705.721 610.602C705.514 612.83 703.543 614.471 701.315 614.262C699.088 614.053 697.453 612.081 697.66 609.849C697.867 607.633 699.842 605.991 702.07 606.201C704.293 606.408 705.93 608.383 705.721 610.602Z" fill="#FF0000"/>
<path d="M690.026 617.973C690.41 616.705 691.749 615.989 693.013 616.369C694.281 616.752 694.997 618.092 694.613 619.36C694.233 620.623 692.894 621.339 691.626 620.956C690.365 620.57 689.649 619.237 690.026 617.973Z" fill="#FF0000"/>
<path d="M8.78416 84.6914V77.6028L2.7316 81.1842C2.33509 81.504 1.85416 81.3428 1.61626 80.9489L0.419044 78.7156C0.183695 78.3165 0.262997 77.8407 0.738811 77.6028L6.79649 74.2593L0.738811 70.7521C0.262997 70.5116 0.183695 70.0358 0.419044 69.6368L1.61626 67.4035C1.85416 67.0096 2.33509 66.8484 2.7316 67.1681L8.78416 70.8314V63.661C8.78416 63.18 9.10392 62.8679 9.58229 62.8679H11.9716C12.4525 62.8679 12.7672 63.1826 12.7672 63.661L12.6853 70.8314L18.8223 67.1681C19.2188 66.8484 19.6972 67.0096 19.9351 67.4035L21.1297 69.6368C21.3702 70.0358 21.2909 70.5116 20.81 70.7521L14.76 74.2593L20.81 77.6028C21.2909 77.8407 21.3702 78.3165 21.1297 78.7156L19.9351 80.9489C19.6972 81.3428 19.2188 81.504 18.8223 81.1842L12.6853 77.6028L12.7672 84.6914C12.7672 85.1672 12.4525 85.487 11.9716 85.487H9.58229C9.10392 85.487 8.78416 85.1672 8.78416 84.6914Z" fill="#2BB673"/>
<path d="M49.6914 66.4023C47.8086 66.4023 46.3203 67.0312 45.2266 68.2891C44.1406 69.5391 43.5977 71.2539 43.5977 73.4336C43.5977 75.6758 44.1211 77.4102 45.168 78.6367C46.2227 79.8555 47.7227 80.4648 49.668 80.4648C50.8633 80.4648 52.2266 80.25 53.7578 79.8203V81.5664C52.5703 82.0117 51.1055 82.2344 49.3633 82.2344C46.8398 82.2344 44.8906 81.4688 43.5156 79.9375C42.1484 78.4062 41.4648 76.2305 41.4648 73.4102C41.4648 71.6445 41.793 70.0977 42.4492 68.7695C43.1133 67.4414 44.0664 66.418 45.3086 65.6992C46.5586 64.9805 48.0273 64.6211 49.7148 64.6211C51.5117 64.6211 53.082 64.9492 54.4258 65.6055L53.582 67.3164C52.2852 66.707 50.9883 66.4023 49.6914 66.4023ZM68.2891 75.5664C68.2891 77.6602 67.7617 79.2969 66.707 80.4766C65.6523 81.6484 64.1953 82.2344 62.3359 82.2344C61.1875 82.2344 60.168 81.9648 59.2773 81.4258C58.3867 80.8867 57.6992 80.1133 57.2148 79.1055C56.7305 78.0977 56.4883 76.918 56.4883 75.5664C56.4883 73.4727 57.0117 71.8438 58.0586 70.6797C59.1055 69.5078 60.5586 68.9219 62.418 68.9219C64.2148 68.9219 65.6406 69.5195 66.6953 70.7148C67.7578 71.9102 68.2891 73.5273 68.2891 75.5664ZM58.5039 75.5664C58.5039 77.207 58.832 78.457 59.4883 79.3164C60.1445 80.1758 61.1094 80.6055 62.3828 80.6055C63.6562 80.6055 64.6211 80.1797 65.2773 79.3281C65.9414 78.4688 66.2734 77.2148 66.2734 75.5664C66.2734 73.9336 65.9414 72.6953 65.2773 71.8516C64.6211 71 63.6484 70.5742 62.3594 70.5742C61.0859 70.5742 60.125 70.9922 59.4766 71.8281C58.8281 72.6641 58.5039 73.9102 58.5039 75.5664ZM77.6875 82.2344C76.8516 82.2344 76.0859 82.082 75.3906 81.7773C74.7031 81.4648 74.125 80.9883 73.6562 80.3477H73.5156C73.6094 81.0977 73.6562 81.8086 73.6562 82.4805V87.7656H71.7109V69.1562H73.293L73.5625 70.9141H73.6562C74.1562 70.2109 74.7383 69.7031 75.4023 69.3906C76.0664 69.0781 76.8281 68.9219 77.6875 68.9219C79.3906 68.9219 80.7031 69.5039 81.625 70.668C82.5547 71.832 83.0195 73.4648 83.0195 75.5664C83.0195 77.6758 82.5469 79.3164 81.6016 80.4883C80.6641 81.6523 79.3594 82.2344 77.6875 82.2344ZM77.4062 70.5742C76.0938 70.5742 75.1445 70.9375 74.5586 71.6641C73.9727 72.3906 73.6719 73.5469 73.6562 75.1328V75.5664C73.6562 77.3711 73.957 78.6641 74.5586 79.4453C75.1602 80.2188 76.125 80.6055 77.4531 80.6055C78.5625 80.6055 79.4297 80.1562 80.0547 79.2578C80.6875 78.3594 81.0039 77.1211 81.0039 75.543C81.0039 73.9414 80.6875 72.7148 80.0547 71.8633C79.4297 71.0039 78.5469 70.5742 77.4062 70.5742ZM88.375 82H86.4297V69.1562H88.375V82ZM86.2656 65.6758C86.2656 65.2305 86.375 64.9062 86.5938 64.7031C86.8125 64.4922 87.0859 64.3867 87.4141 64.3867C87.7266 64.3867 87.9961 64.4922 88.2227 64.7031C88.4492 64.9141 88.5625 65.2383 88.5625 65.6758C88.5625 66.1133 88.4492 66.4414 88.2227 66.6602C87.9961 66.8711 87.7266 66.9766 87.4141 66.9766C87.0859 66.9766 86.8125 66.8711 86.5938 66.6602C86.375 66.4414 86.2656 66.1133 86.2656 65.6758ZM100.398 82L100.012 80.1719H99.918C99.2773 80.9766 98.6367 81.5234 97.9961 81.8125C97.3633 82.0938 96.5703 82.2344 95.6172 82.2344C94.3438 82.2344 93.3438 81.9062 92.6172 81.25C91.8984 80.5938 91.5391 79.6602 91.5391 78.4492C91.5391 75.8555 93.6133 74.4961 97.7617 74.3711L99.9414 74.3008V73.5039C99.9414 72.4961 99.7227 71.7539 99.2852 71.2773C98.8555 70.793 98.1641 70.5508 97.2109 70.5508C96.1406 70.5508 94.9297 70.8789 93.5781 71.5352L92.9805 70.0469C93.6133 69.7031 94.3047 69.4336 95.0547 69.2383C95.8125 69.043 96.5703 68.9453 97.3281 68.9453C98.8594 68.9453 99.9922 69.2852 100.727 69.9648C101.469 70.6445 101.84 71.7344 101.84 73.2344V82H100.398ZM96.0039 80.6289C97.2148 80.6289 98.1641 80.2969 98.8516 79.6328C99.5469 78.9688 99.8945 78.0391 99.8945 76.8438V75.6836L97.9492 75.7656C96.4023 75.8203 95.2852 76.0625 94.5977 76.4922C93.918 76.9141 93.5781 77.5742 93.5781 78.4727C93.5781 79.1758 93.7891 79.7109 94.2109 80.0781C94.6406 80.4453 95.2383 80.6289 96.0039 80.6289ZM114.039 82H112.094V63.7656H114.039V82ZM129.25 75.5664C129.25 77.6602 128.723 79.2969 127.668 80.4766C126.613 81.6484 125.156 82.2344 123.297 82.2344C122.148 82.2344 121.129 81.9648 120.238 81.4258C119.348 80.8867 118.66 80.1133 118.176 79.1055C117.691 78.0977 117.449 76.918 117.449 75.5664C117.449 73.4727 117.973 71.8438 119.02 70.6797C120.066 69.5078 121.52 68.9219 123.379 68.9219C125.176 68.9219 126.602 69.5195 127.656 70.7148C128.719 71.9102 129.25 73.5273 129.25 75.5664ZM119.465 75.5664C119.465 77.207 119.793 78.457 120.449 79.3164C121.105 80.1758 122.07 80.6055 123.344 80.6055C124.617 80.6055 125.582 80.1797 126.238 79.3281C126.902 78.4688 127.234 77.2148 127.234 75.5664C127.234 73.9336 126.902 72.6953 126.238 71.8516C125.582 71 124.609 70.5742 123.32 70.5742C122.047 70.5742 121.086 70.9922 120.438 71.8281C119.789 72.6641 119.465 73.9102 119.465 75.5664ZM140.957 78.4961C140.957 79.6914 140.512 80.6133 139.621 81.2617C138.73 81.9102 137.48 82.2344 135.871 82.2344C134.168 82.2344 132.84 81.9648 131.887 81.4258V79.6211C132.504 79.9336 133.164 80.1797 133.867 80.3594C134.578 80.5391 135.262 80.6289 135.918 80.6289C136.934 80.6289 137.715 80.4688 138.262 80.1484C138.809 79.8203 139.082 79.3242 139.082 78.6602C139.082 78.1602 138.863 77.7344 138.426 77.3828C137.996 77.0234 137.152 76.6016 135.895 76.1172C134.699 75.6719 133.848 75.2852 133.34 74.957C132.84 74.6211 132.465 74.2422 132.215 73.8203C131.973 73.3984 131.852 72.8945 131.852 72.3086C131.852 71.2617 132.277 70.4375 133.129 69.8359C133.98 69.2266 135.148 68.9219 136.633 68.9219C138.016 68.9219 139.367 69.2031 140.688 69.7656L139.996 71.3477C138.707 70.8164 137.539 70.5508 136.492 70.5508C135.57 70.5508 134.875 70.6953 134.406 70.9844C133.938 71.2734 133.703 71.6719 133.703 72.1797C133.703 72.5234 133.789 72.8164 133.961 73.0586C134.141 73.3008 134.426 73.5312 134.816 73.75C135.207 73.9688 135.957 74.2852 137.066 74.6992C138.59 75.2539 139.617 75.8125 140.148 76.375C140.688 76.9375 140.957 77.6445 140.957 78.4961ZM159.156 82V73.6914C159.156 72.6445 158.918 71.8633 158.441 71.3477C157.965 70.832 157.219 70.5742 156.203 70.5742C154.859 70.5742 153.875 70.9375 153.25 71.6641C152.625 72.3906 152.312 73.5898 152.312 75.2617V82H150.367V69.1562H151.949L152.266 70.9141H152.359C152.758 70.2812 153.316 69.793 154.035 69.4492C154.754 69.0977 155.555 68.9219 156.438 68.9219C157.984 68.9219 159.148 69.2969 159.93 70.0469C160.711 70.7891 161.102 71.9805 161.102 73.6211V82H159.156ZM176.195 75.5664C176.195 77.6602 175.668 79.2969 174.613 80.4766C173.559 81.6484 172.102 82.2344 170.242 82.2344C169.094 82.2344 168.074 81.9648 167.184 81.4258C166.293 80.8867 165.605 80.1133 165.121 79.1055C164.637 78.0977 164.395 76.918 164.395 75.5664C164.395 73.4727 164.918 71.8438 165.965 70.6797C167.012 69.5078 168.465 68.9219 170.324 68.9219C172.121 68.9219 173.547 69.5195 174.602 70.7148C175.664 71.9102 176.195 73.5273 176.195 75.5664ZM166.41 75.5664C166.41 77.207 166.738 78.457 167.395 79.3164C168.051 80.1758 169.016 80.6055 170.289 80.6055C171.562 80.6055 172.527 80.1797 173.184 79.3281C173.848 78.4688 174.18 77.2148 174.18 75.5664C174.18 73.9336 173.848 72.6953 173.184 71.8516C172.527 71 171.555 70.5742 170.266 70.5742C168.992 70.5742 168.031 70.9922 167.383 71.8281C166.734 72.6641 166.41 73.9102 166.41 75.5664ZM195.988 82V73.6445C195.988 72.6211 195.77 71.8555 195.332 71.3477C194.895 70.832 194.215 70.5742 193.293 70.5742C192.082 70.5742 191.188 70.9219 190.609 71.6172C190.031 72.3125 189.742 73.3828 189.742 74.8281V82H187.797V73.6445C187.797 72.6211 187.578 71.8555 187.141 71.3477C186.703 70.832 186.02 70.5742 185.09 70.5742C183.871 70.5742 182.977 70.9414 182.406 71.6758C181.844 72.4023 181.562 73.5977 181.562 75.2617V82H179.617V69.1562H181.199L181.516 70.9141H181.609C181.977 70.2891 182.492 69.8008 183.156 69.4492C183.828 69.0977 184.578 68.9219 185.406 68.9219C187.414 68.9219 188.727 69.6484 189.344 71.1016H189.438C189.82 70.4297 190.375 69.8984 191.102 69.5078C191.828 69.1172 192.656 68.9219 193.586 68.9219C195.039 68.9219 196.125 69.2969 196.844 70.0469C197.57 70.7891 197.934 71.9805 197.934 73.6211V82H195.988ZM207.93 68.9453C209.617 68.9453 210.926 69.5234 211.855 70.6797C212.793 71.8281 213.262 73.457 213.262 75.5664C213.262 77.6758 212.789 79.3164 211.844 80.4883C210.906 81.6523 209.602 82.2344 207.93 82.2344C207.094 82.2344 206.328 82.082 205.633 81.7773C204.945 81.4648 204.367 80.9883 203.898 80.3477H203.758L203.348 82H201.953V63.7656H203.898V68.1953C203.898 69.1875 203.867 70.0781 203.805 70.8672H203.898C204.805 69.5859 206.148 68.9453 207.93 68.9453ZM207.648 70.5742C206.32 70.5742 205.363 70.957 204.777 71.7227C204.191 72.4805 203.898 73.7617 203.898 75.5664C203.898 77.3711 204.199 78.6641 204.801 79.4453C205.402 80.2188 206.367 80.6055 207.695 80.6055C208.891 80.6055 209.781 80.1719 210.367 79.3047C210.953 78.4297 211.246 77.1758 211.246 75.543C211.246 73.8711 210.953 72.625 210.367 71.8047C209.781 70.9844 208.875 70.5742 207.648 70.5742ZM222.531 68.9219C223.102 68.9219 223.613 68.9688 224.066 69.0625L223.797 70.8672C223.266 70.75 222.797 70.6914 222.391 70.6914C221.352 70.6914 220.461 71.1133 219.719 71.957C218.984 72.8008 218.617 73.8516 218.617 75.1094V82H216.672V69.1562H218.277L218.5 71.5352H218.594C219.07 70.6992 219.645 70.0547 220.316 69.6016C220.988 69.1484 221.727 68.9219 222.531 68.9219ZM231.895 82.2344C229.996 82.2344 228.496 81.6562 227.395 80.5C226.301 79.3438 225.754 77.7383 225.754 75.6836C225.754 73.6133 226.262 71.9688 227.277 70.75C228.301 69.5312 229.672 68.9219 231.391 68.9219C233 68.9219 234.273 69.4531 235.211 70.5156C236.148 71.5703 236.617 72.9648 236.617 74.6992V75.9297H227.77C227.809 77.4375 228.188 78.582 228.906 79.3633C229.633 80.1445 230.652 80.5352 231.965 80.5352C233.348 80.5352 234.715 80.2461 236.066 79.668V81.4023C235.379 81.6992 234.727 81.9102 234.109 82.0352C233.5 82.168 232.762 82.2344 231.895 82.2344ZM231.367 70.5508C230.336 70.5508 229.512 70.8867 228.895 71.5586C228.285 72.2305 227.926 73.1602 227.816 74.3477H234.531C234.531 73.1211 234.258 72.1836 233.711 71.5352C233.164 70.8789 232.383 70.5508 231.367 70.5508ZM248.23 78.4961C248.23 79.6914 247.785 80.6133 246.895 81.2617C246.004 81.9102 244.754 82.2344 243.145 82.2344C241.441 82.2344 240.113 81.9648 239.16 81.4258V79.6211C239.777 79.9336 240.438 80.1797 241.141 80.3594C241.852 80.5391 242.535 80.6289 243.191 80.6289C244.207 80.6289 244.988 80.4688 245.535 80.1484C246.082 79.8203 246.355 79.3242 246.355 78.6602C246.355 78.1602 246.137 77.7344 245.699 77.3828C245.27 77.0234 244.426 76.6016 243.168 76.1172C241.973 75.6719 241.121 75.2852 240.613 74.957C240.113 74.6211 239.738 74.2422 239.488 73.8203C239.246 73.3984 239.125 72.8945 239.125 72.3086C239.125 71.2617 239.551 70.4375 240.402 69.8359C241.254 69.2266 242.422 68.9219 243.906 68.9219C245.289 68.9219 246.641 69.2031 247.961 69.7656L247.27 71.3477C245.98 70.8164 244.812 70.5508 243.766 70.5508C242.844 70.5508 242.148 70.6953 241.68 70.9844C241.211 71.2734 240.977 71.6719 240.977 72.1797C240.977 72.5234 241.062 72.8164 241.234 73.0586C241.414 73.3008 241.699 73.5312 242.09 73.75C242.48 73.9688 243.23 74.2852 244.34 74.6992C245.863 75.2539 246.891 75.8125 247.422 76.375C247.961 76.9375 248.23 77.6445 248.23 78.4961ZM265.539 82L265.152 80.1719H265.059C264.418 80.9766 263.777 81.5234 263.137 81.8125C262.504 82.0938 261.711 82.2344 260.758 82.2344C259.484 82.2344 258.484 81.9062 257.758 81.25C257.039 80.5938 256.68 79.6602 256.68 78.4492C256.68 75.8555 258.754 74.4961 262.902 74.3711L265.082 74.3008V73.5039C265.082 72.4961 264.863 71.7539 264.426 71.2773C263.996 70.793 263.305 70.5508 262.352 70.5508C261.281 70.5508 260.07 70.8789 258.719 71.5352L258.121 70.0469C258.754 69.7031 259.445 69.4336 260.195 69.2383C260.953 69.043 261.711 68.9453 262.469 68.9453C264 68.9453 265.133 69.2852 265.867 69.9648C266.609 70.6445 266.98 71.7344 266.98 73.2344V82H265.539ZM261.145 80.6289C262.355 80.6289 263.305 80.2969 263.992 79.6328C264.688 78.9688 265.035 78.0391 265.035 76.8438V75.6836L263.09 75.7656C261.543 75.8203 260.426 76.0625 259.738 76.4922C259.059 76.9141 258.719 77.5742 258.719 78.4727C258.719 79.1758 258.93 79.7109 259.352 80.0781C259.781 80.4453 260.379 80.6289 261.145 80.6289ZM276.977 68.9453C278.664 68.9453 279.973 69.5234 280.902 70.6797C281.84 71.8281 282.309 73.457 282.309 75.5664C282.309 77.6758 281.836 79.3164 280.891 80.4883C279.953 81.6523 278.648 82.2344 276.977 82.2344C276.141 82.2344 275.375 82.082 274.68 81.7773C273.992 81.4648 273.414 80.9883 272.945 80.3477H272.805L272.395 82H271V63.7656H272.945V68.1953C272.945 69.1875 272.914 70.0781 272.852 70.8672H272.945C273.852 69.5859 275.195 68.9453 276.977 68.9453ZM276.695 70.5742C275.367 70.5742 274.41 70.957 273.824 71.7227C273.238 72.4805 272.945 73.7617 272.945 75.5664C272.945 77.3711 273.246 78.6641 273.848 79.4453C274.449 80.2188 275.414 80.6055 276.742 80.6055C277.938 80.6055 278.828 80.1719 279.414 79.3047C280 78.4297 280.293 77.1758 280.293 75.543C280.293 73.8711 280 72.625 279.414 71.8047C278.828 70.9844 277.922 70.5742 276.695 70.5742ZM293.617 82L293.23 80.1719H293.137C292.496 80.9766 291.855 81.5234 291.215 81.8125C290.582 82.0938 289.789 82.2344 288.836 82.2344C287.562 82.2344 286.562 81.9062 285.836 81.25C285.117 80.5938 284.758 79.6602 284.758 78.4492C284.758 75.8555 286.832 74.4961 290.98 74.3711L293.16 74.3008V73.5039C293.16 72.4961 292.941 71.7539 292.504 71.2773C292.074 70.793 291.383 70.5508 290.43 70.5508C289.359 70.5508 288.148 70.8789 286.797 71.5352L286.199 70.0469C286.832 69.7031 287.523 69.4336 288.273 69.2383C289.031 69.043 289.789 68.9453 290.547 68.9453C292.078 68.9453 293.211 69.2852 293.945 69.9648C294.688 70.6445 295.059 71.7344 295.059 73.2344V82H293.617ZM289.223 80.6289C290.434 80.6289 291.383 80.2969 292.07 79.6328C292.766 78.9688 293.113 78.0391 293.113 76.8438V75.6836L291.168 75.7656C289.621 75.8203 288.504 76.0625 287.816 76.4922C287.137 76.9141 286.797 77.5742 286.797 78.4727C286.797 79.1758 287.008 79.7109 287.43 80.0781C287.859 80.4453 288.457 80.6289 289.223 80.6289ZM297.52 87.7656C296.777 87.7656 296.176 87.668 295.715 87.4727V85.8906C296.254 86.0469 296.785 86.125 297.309 86.125C297.918 86.125 298.363 85.957 298.645 85.6211C298.934 85.293 299.078 84.7891 299.078 84.1094V69.1562H301.023V83.9688C301.023 86.5 299.855 87.7656 297.52 87.7656ZM298.914 65.6758C298.914 65.2305 299.023 64.9062 299.242 64.7031C299.461 64.4922 299.734 64.3867 300.062 64.3867C300.375 64.3867 300.645 64.4922 300.871 64.7031C301.098 64.9141 301.211 65.2383 301.211 65.6758C301.211 66.1133 301.098 66.4414 300.871 66.6602C300.645 66.8711 300.375 66.9766 300.062 66.9766C299.734 66.9766 299.461 66.8711 299.242 66.6602C299.023 66.4414 298.914 66.1133 298.914 65.6758ZM316.234 75.5664C316.234 77.6602 315.707 79.2969 314.652 80.4766C313.598 81.6484 312.141 82.2344 310.281 82.2344C309.133 82.2344 308.113 81.9648 307.223 81.4258C306.332 80.8867 305.645 80.1133 305.16 79.1055C304.676 78.0977 304.434 76.918 304.434 75.5664C304.434 73.4727 304.957 71.8438 306.004 70.6797C307.051 69.5078 308.504 68.9219 310.363 68.9219C312.16 68.9219 313.586 69.5195 314.641 70.7148C315.703 71.9102 316.234 73.5273 316.234 75.5664ZM306.449 75.5664C306.449 77.207 306.777 78.457 307.434 79.3164C308.09 80.1758 309.055 80.6055 310.328 80.6055C311.602 80.6055 312.566 80.1797 313.223 79.3281C313.887 78.4688 314.219 77.2148 314.219 75.5664C314.219 73.9336 313.887 72.6953 313.223 71.8516C312.566 71 311.594 70.5742 310.305 70.5742C309.031 70.5742 308.07 70.9922 307.422 71.8281C306.773 72.6641 306.449 73.9102 306.449 75.5664ZM319.375 80.7578C319.375 80.2344 319.492 79.8398 319.727 79.5742C319.969 79.3008 320.312 79.1641 320.758 79.1641C321.211 79.1641 321.562 79.3008 321.812 79.5742C322.07 79.8398 322.199 80.2344 322.199 80.7578C322.199 81.2656 322.07 81.6562 321.812 81.9297C321.555 82.2031 321.203 82.3398 320.758 82.3398C320.359 82.3398 320.027 82.2188 319.762 81.9766C319.504 81.7266 319.375 81.3203 319.375 80.7578Z" fill="black"/>
<path d="M88 447H520" stroke="#231F20" stroke-width="3" stroke-linecap="round" stroke-linejoin="round" stroke-dasharray="6 6"/>
<path d="M231 369H276" stroke="#231F20" stroke-width="3" stroke-linecap="round" stroke-linejoin="round" stroke-dasharray="6 6"/>
<path d="M288.526 349.669V359H287.032V337.584H292.13C294.786 337.584 296.749 338.077 298.019 339.063C299.288 340.04 299.923 341.515 299.923 343.487C299.923 344.923 299.542 346.134 298.78 347.12C298.028 348.106 296.881 348.814 295.338 349.244L301.153 359H299.366L293.844 349.669H288.526ZM288.526 348.38H292.613C294.42 348.38 295.821 347.979 296.817 347.179C297.813 346.368 298.312 345.177 298.312 343.604C298.312 341.974 297.823 340.787 296.847 340.045C295.87 339.303 294.278 338.932 292.071 338.932H288.526V348.38ZM304.874 359V337.584H306.368V359H304.874ZM318.014 359H316.505V338.99H309.547V337.584H324.972V338.99H318.014V359ZM346.168 348.263C346.168 351.661 345.318 354.352 343.619 356.334C341.92 358.307 339.576 359.293 336.588 359.293C333.609 359.293 331.271 358.307 329.571 356.334C327.872 354.352 327.022 351.651 327.022 348.233C327.022 344.825 327.877 342.145 329.586 340.191C331.305 338.229 333.648 337.247 336.617 337.247C339.605 337.247 341.944 338.233 343.634 340.206C345.323 342.169 346.168 344.854 346.168 348.263ZM328.648 348.263C328.648 351.329 329.332 353.702 330.699 355.382C332.066 357.052 334.029 357.887 336.588 357.887C339.166 357.887 341.134 357.057 342.491 355.396C343.858 353.736 344.542 351.358 344.542 348.263C344.542 345.177 343.858 342.813 342.491 341.173C341.134 339.522 339.176 338.697 336.617 338.697C334.068 338.697 332.101 339.527 330.714 341.188C329.337 342.848 328.648 345.206 328.648 348.263ZM360.392 349.669V359H358.897V337.584H363.995C366.651 337.584 368.614 338.077 369.884 339.063C371.153 340.04 371.788 341.515 371.788 343.487C371.788 344.923 371.407 346.134 370.646 347.12C369.894 348.106 368.746 348.814 367.203 349.244L373.019 359H371.231L365.709 349.669H360.392ZM360.392 348.38H364.479C366.285 348.38 367.687 347.979 368.683 347.179C369.679 346.368 370.177 345.177 370.177 343.604C370.177 341.974 369.688 340.787 368.712 340.045C367.735 339.303 366.144 338.932 363.937 338.932H360.392V348.38ZM388.443 359H376.739V337.584H388.443V338.961H378.233V347.062H387.872V348.438H378.233V357.623H388.443V359ZM403.604 351.441H394.903L391.915 359H390.26L398.873 337.496H399.825L408.263 359H406.578L403.604 351.441ZM395.445 350.094H403.106L400.191 342.374C399.947 341.769 399.654 340.929 399.312 339.854C399.049 340.792 398.761 341.642 398.448 342.403L395.445 350.094ZM411.31 359V337.584H412.804V357.594H423.014V359H411.31Z" fill="black"/>
<path d="M246.443 359H243.455V335.955H235.316V333.301H254.582V335.955H246.443V359ZM276.393 359H262.067V333.301H276.393V335.955H265.055V344.234H275.707V346.871H265.055V356.328H276.393V359Z" fill="#2BB673"/>
<path d="M197.443 435H194.455V411.955H186.316V409.301H205.582V411.955H197.443V435ZM227.393 435H213.067V409.301H227.393V411.955H216.055V420.234H226.707V422.871H216.055V432.328H227.393V435ZM239.694 424.312V435H236.706V409.301H243.755C246.907 409.301 249.233 409.904 250.733 411.111C252.245 412.318 253.001 414.135 253.001 416.561C253.001 419.959 251.278 422.256 247.833 423.451L254.811 435H251.278L245.055 424.312H239.694ZM239.694 421.746H243.79C245.899 421.746 247.446 421.33 248.43 420.498C249.415 419.654 249.907 418.395 249.907 416.719C249.907 415.02 249.403 413.795 248.395 413.045C247.399 412.295 245.794 411.92 243.579 411.92H239.694V421.746ZM262.56 435V409.301H265.548V435H262.56ZM284.125 435H281.136V411.955H272.998V409.301H292.263V411.955H284.125V435ZM322.055 422.115C322.055 426.229 321.012 429.463 318.926 431.818C316.852 434.174 313.963 435.352 310.26 435.352C306.475 435.352 303.551 434.197 301.488 431.889C299.438 429.568 298.412 426.299 298.412 422.08C298.412 417.896 299.443 414.656 301.506 412.359C303.568 410.051 306.498 408.896 310.295 408.896C313.986 408.896 316.869 410.068 318.943 412.412C321.018 414.756 322.055 417.99 322.055 422.115ZM301.576 422.115C301.576 425.596 302.314 428.238 303.791 430.043C305.279 431.836 307.436 432.732 310.26 432.732C313.107 432.732 315.258 431.836 316.711 430.043C318.164 428.25 318.891 425.607 318.891 422.115C318.891 418.658 318.164 416.039 316.711 414.258C315.27 412.465 313.131 411.568 310.295 411.568C307.447 411.568 305.279 412.471 303.791 414.275C302.314 416.068 301.576 418.682 301.576 422.115ZM347.343 424.312V435H344.354V409.301H351.403C354.555 409.301 356.882 409.904 358.382 411.111C359.893 412.318 360.649 414.135 360.649 416.561C360.649 419.959 358.927 422.256 355.481 423.451L362.46 435H358.927L352.704 424.312H347.343ZM347.343 421.746H351.438C353.548 421.746 355.095 421.33 356.079 420.498C357.063 419.654 357.555 418.395 357.555 416.719C357.555 415.02 357.052 413.795 356.044 413.045C355.048 412.295 353.442 411.92 351.227 411.92H347.343V421.746ZM384.534 435H370.208V409.301H384.534V411.955H373.196V420.234H383.849V422.871H373.196V432.328H384.534V435ZM410.002 435L406.802 426.826H396.502L393.337 435H390.314L400.474 409.195H402.988L413.095 435H410.002ZM405.871 424.137L402.882 416.174C402.496 415.166 402.097 413.93 401.687 412.465C401.429 413.59 401.06 414.826 400.58 416.174L397.556 424.137H405.871ZM420.229 435V409.301H423.217V432.293H434.555V435H420.229Z" fill="#2BB673"/>
<path d="M88 642H520" stroke="#231F20" stroke-width="3" stroke-linecap="round" stroke-linejoin="round" stroke-dasharray="6 6"/>
<path d="M231 564H276" stroke="#231F20" stroke-width="3" stroke-linecap="round" stroke-linejoin="round" stroke-dasharray="6 6"/>
<path d="M302.604 554H301.095L288.409 534.986H288.292C288.409 537.252 288.468 538.961 288.468 540.113V554H287.032V532.584H288.526L301.197 551.568H301.285C301.197 549.811 301.153 548.141 301.153 546.559V532.584H302.604V554ZM308.683 554V532.584H310.177V554H308.683ZM321.822 554H320.313V533.99H313.355V532.584H328.78V533.99H321.822V554ZM342.286 546.441H333.585L330.597 554H328.941L337.555 532.496H338.507L346.944 554H345.26L342.286 546.441ZM334.127 545.094H341.788L338.873 537.374C338.629 536.769 338.336 535.929 337.994 534.854C337.73 535.792 337.442 536.642 337.13 537.403L334.127 545.094Z" fill="black"/>
<path d="M97.5265 155.376C97.5265 172.145 83.9798 185.753 67.2566 185.753C50.5467 185.739 37 172.145 37 155.376C37 138.594 50.5467 125 67.2699 125C83.9798 125 97.5265 138.594 97.5265 155.376Z" fill="#2FAC66"/>
<path d="M49.8936 155.818C49.8936 153.1 50.0137 152.149 50.3206 151.211C51.1348 148.626 53.0834 147.354 55.7527 147.354C58.1817 147.354 60.0503 148.559 60.9845 150.662C61.0379 150.782 61.0112 150.903 60.8911 150.97L59.4497 151.666C59.3029 151.733 59.156 151.666 59.116 151.546C58.462 150.273 57.461 149.349 55.7527 149.349C53.9776 149.349 52.8965 150.22 52.3627 151.76C52.1491 152.43 52.0557 153.233 52.0557 155.805C52.0557 158.39 52.1491 159.18 52.3627 159.863C52.8965 161.403 53.9776 162.274 55.7527 162.274C57.461 162.274 58.462 161.363 59.116 160.078C59.1694 159.957 59.3162 159.877 59.4497 159.957L60.8911 160.653C61.0112 160.72 61.0379 160.854 60.9845 160.961C60.0503 163.064 58.1684 164.27 55.7527 164.27C53.0834 164.27 51.1348 162.997 50.3206 160.412C50.0137 159.488 49.8936 158.551 49.8936 155.818Z" fill="white"/>
<path d="M64.7871 147.863C64.7871 147.715 64.8805 147.622 65.0273 147.622H66.6823C66.8291 147.622 66.9226 147.715 66.9226 147.863V154.586C66.9226 154.68 66.9759 154.734 67.0694 154.734H74.1564C74.2498 154.734 74.3032 154.68 74.3032 154.586V147.863C74.3032 147.715 74.3966 147.622 74.5434 147.622H76.1984C76.3452 147.622 76.4386 147.715 76.4386 147.863V163.774C76.4386 163.922 76.3452 164.015 76.1984 164.015H74.5434C74.3966 164.015 74.3032 163.922 74.3032 163.774V156.877C74.3032 156.783 74.2498 156.729 74.1564 156.729H67.0694C66.9759 156.729 66.9226 156.783 66.9226 156.877V163.774C66.9226 163.922 66.8291 164.015 66.6823 164.015H65.0273C64.8805 164.015 64.7871 163.922 64.7871 163.774V147.863Z" fill="white"/>
<path d="M81.2031 147.863C81.2031 147.715 81.2966 147.622 81.4434 147.622H83.0983C83.2451 147.622 83.3386 147.715 83.3386 147.863V163.774C83.3386 163.922 83.2451 164.015 83.0983 164.015H81.4434C81.2966 164.015 81.2031 163.922 81.2031 163.774V147.863Z" fill="white"/>
<path d="M207.299 155.376C207.299 172.145 193.752 185.753 177.029 185.753C160.319 185.753 146.759 172.158 146.759 155.376C146.759 138.608 160.306 125 177.029 125C193.739 125 207.299 138.594 207.299 155.376Z" fill="#2FAC66"/>
<path d="M159.184 155.818C159.184 153.113 159.33 152.135 159.611 151.184C160.425 148.653 162.453 147.354 165.216 147.354C168.072 147.354 169.834 148.8 170.648 150.608C170.715 150.756 170.702 150.876 170.568 150.943L169.127 151.64C168.98 151.707 168.86 151.666 168.793 151.519C168.006 150.046 166.938 149.349 165.216 149.349C163.361 149.349 162.187 150.22 161.679 151.787C161.466 152.39 161.346 153.314 161.346 155.818C161.346 158.323 161.466 159.247 161.679 159.85C162.187 161.417 163.361 162.287 165.216 162.287C166.871 162.287 168.219 161.47 168.726 159.93C168.9 159.381 169.047 158.577 169.047 157.345C169.047 157.251 168.993 157.198 168.9 157.198H165.723C165.577 157.198 165.483 157.104 165.483 156.957V155.55C165.483 155.403 165.577 155.309 165.723 155.309H170.942C171.089 155.309 171.182 155.403 171.182 155.55V156.783C171.182 158.256 171.009 159.609 170.768 160.399C169.981 162.877 167.926 164.283 165.216 164.283C162.453 164.283 160.438 162.984 159.611 160.452C159.33 159.515 159.184 158.524 159.184 155.818Z" fill="white"/>
<path d="M175.24 158.31V147.863C175.24 147.715 175.334 147.622 175.48 147.622H177.135C177.282 147.622 177.376 147.715 177.376 147.863V158.283C177.376 160.935 178.844 162.287 181.033 162.287C183.195 162.287 184.663 160.935 184.663 158.283V147.863C184.663 147.715 184.756 147.622 184.903 147.622H186.558C186.705 147.622 186.798 147.715 186.798 147.863V158.31C186.798 162.167 184.609 164.296 181.033 164.296C177.429 164.283 175.24 162.167 175.24 158.31Z" fill="white"/>
<path d="M191.43 147.863C191.43 147.715 191.523 147.622 191.67 147.622H193.325C193.472 147.622 193.565 147.715 193.565 147.863V163.774C193.565 163.921 193.472 164.015 193.325 164.015H191.67C191.523 164.015 191.43 163.921 191.43 163.774V147.863Z" fill="white"/>
<path d="M317.211 155.376C317.211 172.145 303.664 185.753 286.941 185.753C270.218 185.753 256.671 172.145 256.671 155.376C256.671 138.608 270.218 125 286.941 125C303.664 125 317.211 138.594 317.211 155.376Z" stroke="#2FAC66" stroke-dasharray="2 2"/>
<path d="M278.626 164.029C278.479 164.029 278.385 163.935 278.385 163.788V149.765C278.385 149.671 278.332 149.617 278.239 149.617H273.768C273.621 149.617 273.527 149.524 273.527 149.376V147.863C273.527 147.715 273.621 147.622 273.768 147.622H285.139C285.286 147.622 285.379 147.715 285.379 147.863V149.376C285.379 149.524 285.286 149.617 285.139 149.617H280.668C280.574 149.617 280.521 149.671 280.521 149.765V163.774C280.521 163.921 280.428 164.015 280.281 164.015H278.626V164.029Z" fill="#2FAC66"/>
<path d="M288.649 147.863C288.649 147.715 288.743 147.622 288.89 147.622H298.713C298.86 147.622 298.953 147.715 298.953 147.863V149.376C298.953 149.524 298.86 149.617 298.713 149.617H290.932C290.838 149.617 290.785 149.671 290.785 149.765V154.586C290.785 154.68 290.838 154.734 290.932 154.734H297.538C297.685 154.734 297.778 154.827 297.778 154.975V156.488C297.778 156.635 297.685 156.729 297.538 156.729H290.932C290.838 156.729 290.785 156.783 290.785 156.877V161.872C290.785 161.966 290.838 162.02 290.932 162.02H298.713C298.86 162.02 298.953 162.113 298.953 162.261V163.788C298.953 163.935 298.86 164.029 298.713 164.029H288.89C288.743 164.029 288.649 163.935 288.649 163.788V147.863Z" fill="#2FAC66"/>
<path d="M427.562 155.376C427.562 172.145 414.016 185.753 397.292 185.753C380.583 185.753 367.022 172.158 367.022 155.376C367.022 138.608 380.569 125 397.292 125C414.016 125 427.562 138.594 427.562 155.376Z" fill="#2FAC66"/>
<path d="M393.354 164.029C393.181 164.029 393.114 163.962 393.047 163.787L389.777 157.077H386.174C386.08 157.077 386.027 157.131 386.027 157.225V163.787C386.027 163.935 385.934 164.029 385.787 164.029H384.132C383.985 164.029 383.892 163.935 383.892 163.787V147.863C383.892 147.715 383.985 147.622 384.132 147.622H390.044C393.101 147.622 395.169 149.51 395.169 152.349C395.169 154.573 393.915 156.18 391.953 156.809L395.436 163.734C395.53 163.881 395.463 164.029 395.29 164.029H393.354ZM393.021 152.349C393.021 150.635 391.886 149.631 389.991 149.631H386.174C386.08 149.631 386.027 149.684 386.027 149.778V154.934C386.027 155.028 386.08 155.082 386.174 155.082H389.991C391.9 155.082 393.021 154.064 393.021 152.349Z" fill="white"/>
<path d="M403.672 147.863C403.725 147.715 403.792 147.622 403.952 147.622H405.513C405.687 147.622 405.78 147.715 405.82 147.863L411.426 163.774C411.479 163.921 411.399 164.015 411.252 164.015H409.571C409.397 164.015 409.304 163.948 409.264 163.774L408.009 160.211H401.403L400.148 163.774C400.081 163.948 399.975 164.015 399.841 164.015H398.16C398.013 164.015 397.946 163.921 397.986 163.774L403.672 147.863ZM407.315 158.229L404.739 150.782H404.686L402.083 158.229H407.315Z" fill="white"/>
<path d="M535 155.376C535 172.145 521.453 185.753 504.73 185.753C488.02 185.753 474.474 172.158 474.474 155.376C474.474 138.608 488.02 125 504.73 125C521.453 125 535 138.594 535 155.376Z" fill="#2FAC66"/>
<path d="M483.604 155.818C483.604 153.099 483.724 152.148 484.031 151.211C484.845 148.626 486.793 147.354 489.463 147.354C491.892 147.354 493.76 148.559 494.695 150.662C494.748 150.782 494.721 150.903 494.601 150.97L493.16 151.666C493.013 151.733 492.879 151.666 492.826 151.546C492.172 150.273 491.171 149.349 489.463 149.349C487.688 149.349 486.606 150.22 486.073 151.76C485.859 152.43 485.766 153.233 485.766 155.805C485.766 158.39 485.859 159.18 486.073 159.863C486.606 161.403 487.688 162.274 489.463 162.274C491.171 162.274 492.172 161.363 492.826 160.077C492.879 159.957 493.026 159.876 493.16 159.957L494.601 160.653C494.721 160.72 494.748 160.854 494.695 160.961C493.76 163.064 491.878 164.27 489.463 164.27C486.793 164.27 484.845 162.997 484.031 160.412C483.724 159.488 483.604 158.551 483.604 155.818Z" fill="white"/>
<path d="M502.729 147.863C502.782 147.715 502.849 147.622 503.009 147.622H504.57C504.744 147.622 504.837 147.715 504.891 147.863L510.483 163.774C510.536 163.921 510.456 164.015 510.309 164.015H508.628C508.454 164.015 508.361 163.948 508.321 163.774L507.066 160.211H500.46L499.218 163.774C499.152 163.948 499.045 164.015 498.912 164.015H497.23C497.083 164.015 497.016 163.921 497.056 163.774L502.729 147.863ZM506.372 158.229L503.796 150.782H503.743L501.14 158.229H506.372Z" fill="white"/>
<path d="M523.268 164.029C523.095 164.029 523.028 163.962 522.961 163.787L519.691 157.077H516.088C515.995 157.077 515.941 157.131 515.941 157.225V163.787C515.941 163.935 515.848 164.029 515.701 164.029H514.046C513.899 164.029 513.806 163.935 513.806 163.787V147.863C513.806 147.715 513.899 147.622 514.046 147.622H519.958C523.015 147.622 525.07 149.51 525.07 152.349C525.07 154.573 523.816 156.18 521.854 156.809L525.337 163.734C525.431 163.881 525.364 164.029 525.19 164.029H523.268ZM522.935 152.349C522.935 150.635 521.8 149.631 519.905 149.631H516.088C515.995 149.631 515.941 149.684 515.941 149.778V154.934C515.941 155.028 515.995 155.082 516.088 155.082H519.905C521.8 155.082 522.935 154.064 522.935 152.349Z" fill="white"/>
<path d="M97.5265 155.376C97.5265 172.145 83.9798 185.753 67.2566 185.753C50.5467 185.739 37 172.145 37 155.376C37 138.594 50.5467 125 67.2699 125C83.9798 125 97.5265 138.594 97.5265 155.376Z" fill="#2FAC66"/>
<path d="M49.8936 155.818C49.8936 153.1 50.0137 152.149 50.3206 151.211C51.1348 148.626 53.0834 147.354 55.7527 147.354C58.1817 147.354 60.0503 148.559 60.9845 150.662C61.0379 150.782 61.0112 150.903 60.8911 150.97L59.4497 151.666C59.3029 151.733 59.156 151.666 59.116 151.546C58.462 150.273 57.461 149.349 55.7527 149.349C53.9776 149.349 52.8965 150.22 52.3627 151.76C52.1491 152.43 52.0557 153.233 52.0557 155.805C52.0557 158.39 52.1491 159.18 52.3627 159.863C52.8965 161.403 53.9776 162.274 55.7527 162.274C57.461 162.274 58.462 161.363 59.116 160.078C59.1694 159.957 59.3162 159.877 59.4497 159.957L60.8911 160.653C61.0112 160.72 61.0379 160.854 60.9845 160.961C60.0503 163.064 58.1684 164.27 55.7527 164.27C53.0834 164.27 51.1348 162.997 50.3206 160.412C50.0137 159.488 49.8936 158.551 49.8936 155.818Z" fill="white"/>
<path d="M64.7871 147.863C64.7871 147.715 64.8805 147.622 65.0273 147.622H66.6823C66.8291 147.622 66.9226 147.715 66.9226 147.863V154.586C66.9226 154.68 66.9759 154.734 67.0694 154.734H74.1564C74.2498 154.734 74.3032 154.68 74.3032 154.586V147.863C74.3032 147.715 74.3966 147.622 74.5434 147.622H76.1984C76.3452 147.622 76.4386 147.715 76.4386 147.863V163.774C76.4386 163.922 76.3452 164.015 76.1984 164.015H74.5434C74.3966 164.015 74.3032 163.922 74.3032 163.774V156.877C74.3032 156.783 74.2498 156.729 74.1564 156.729H67.0694C66.9759 156.729 66.9226 156.783 66.9226 156.877V163.774C66.9226 163.922 66.8291 164.015 66.6823 164.015H65.0273C64.8805 164.015 64.7871 163.922 64.7871 163.774V147.863Z" fill="white"/>
<path d="M81.2031 147.863C81.2031 147.715 81.2966 147.622 81.4434 147.622H83.0983C83.2451 147.622 83.3386 147.715 83.3386 147.863V163.774C83.3386 163.922 83.2451 164.015 83.0983 164.015H81.4434C81.2966 164.015 81.2031 163.922 81.2031 163.774V147.863Z" fill="white"/>
<path d="M207.299 155.376C207.299 172.145 193.752 185.753 177.029 185.753C160.319 185.753 146.759 172.158 146.759 155.376C146.759 138.608 160.306 125 177.029 125C193.739 125 207.299 138.594 207.299 155.376Z" fill="#2FAC66"/>
<path d="M159.184 155.818C159.184 153.113 159.33 152.135 159.611 151.184C160.425 148.653 162.453 147.354 165.216 147.354C168.072 147.354 169.834 148.8 170.648 150.608C170.715 150.756 170.702 150.876 170.568 150.943L169.127 151.64C168.98 151.707 168.86 151.666 168.793 151.519C168.006 150.046 166.938 149.349 165.216 149.349C163.361 149.349 162.187 150.22 161.679 151.787C161.466 152.39 161.346 153.314 161.346 155.818C161.346 158.323 161.466 159.247 161.679 159.85C162.187 161.417 163.361 162.287 165.216 162.287C166.871 162.287 168.219 161.47 168.726 159.93C168.9 159.381 169.047 158.577 169.047 157.345C169.047 157.251 168.993 157.198 168.9 157.198H165.723C165.577 157.198 165.483 157.104 165.483 156.957V155.55C165.483 155.403 165.577 155.309 165.723 155.309H170.942C171.089 155.309 171.182 155.403 171.182 155.55V156.783C171.182 158.256 171.009 159.609 170.768 160.399C169.981 162.877 167.926 164.283 165.216 164.283C162.453 164.283 160.438 162.984 159.611 160.452C159.33 159.515 159.184 158.524 159.184 155.818Z" fill="white"/>
<path d="M175.24 158.31V147.863C175.24 147.715 175.334 147.622 175.48 147.622H177.135C177.282 147.622 177.376 147.715 177.376 147.863V158.283C177.376 160.935 178.844 162.287 181.033 162.287C183.195 162.287 184.663 160.935 184.663 158.283V147.863C184.663 147.715 184.756 147.622 184.903 147.622H186.558C186.705 147.622 186.798 147.715 186.798 147.863V158.31C186.798 162.167 184.609 164.296 181.033 164.296C177.429 164.283 175.24 162.167 175.24 158.31Z" fill="white"/>
<path d="M191.43 147.863C191.43 147.715 191.523 147.622 191.67 147.622H193.325C193.472 147.622 193.565 147.715 193.565 147.863V163.774C193.565 163.921 193.472 164.015 193.325 164.015H191.67C191.523 164.015 191.43 163.921 191.43 163.774V147.863Z" fill="white"/>
<path d="M317.211 155.376C317.211 172.145 303.664 185.753 286.941 185.753C270.218 185.753 256.671 172.145 256.671 155.376C256.671 138.608 270.218 125 286.941 125C303.664 125 317.211 138.594 317.211 155.376Z" stroke="#2FAC66" stroke-dasharray="2 2"/>
<path d="M278.626 164.029C278.479 164.029 278.385 163.935 278.385 163.788V149.765C278.385 149.671 278.332 149.617 278.239 149.617H273.768C273.621 149.617 273.527 149.524 273.527 149.376V147.863C273.527 147.715 273.621 147.622 273.768 147.622H285.139C285.286 147.622 285.379 147.715 285.379 147.863V149.376C285.379 149.524 285.286 149.617 285.139 149.617H280.668C280.574 149.617 280.521 149.671 280.521 149.765V163.774C280.521 163.921 280.428 164.015 280.281 164.015H278.626V164.029Z" fill="#2FAC66"/>
<path d="M288.649 147.863C288.649 147.715 288.743 147.622 288.89 147.622H298.713C298.86 147.622 298.953 147.715 298.953 147.863V149.376C298.953 149.524 298.86 149.617 298.713 149.617H290.932C290.838 149.617 290.785 149.671 290.785 149.765V154.586C290.785 154.68 290.838 154.734 290.932 154.734H297.538C297.685 154.734 297.778 154.827 297.778 154.975V156.488C297.778 156.635 297.685 156.729 297.538 156.729H290.932C290.838 156.729 290.785 156.783 290.785 156.877V161.872C290.785 161.966 290.838 162.02 290.932 162.02H298.713C298.86 162.02 298.953 162.113 298.953 162.261V163.788C298.953 163.935 298.86 164.029 298.713 164.029H288.89C288.743 164.029 288.649 163.935 288.649 163.788V147.863Z" fill="#2FAC66"/>
<path d="M427.562 155.376C427.562 172.145 414.016 185.753 397.292 185.753C380.583 185.753 367.022 172.158 367.022 155.376C367.022 138.608 380.569 125 397.292 125C414.016 125 427.562 138.594 427.562 155.376Z" fill="#2FAC66"/>
<path d="M393.354 164.029C393.181 164.029 393.114 163.962 393.047 163.787L389.777 157.077H386.174C386.08 157.077 386.027 157.131 386.027 157.225V163.787C386.027 163.935 385.934 164.029 385.787 164.029H384.132C383.985 164.029 383.892 163.935 383.892 163.787V147.863C383.892 147.715 383.985 147.622 384.132 147.622H390.044C393.101 147.622 395.169 149.51 395.169 152.349C395.169 154.573 393.915 156.18 391.953 156.809L395.436 163.734C395.53 163.881 395.463 164.029 395.29 164.029H393.354ZM393.021 152.349C393.021 150.635 391.886 149.631 389.991 149.631H386.174C386.08 149.631 386.027 149.684 386.027 149.778V154.934C386.027 155.028 386.08 155.082 386.174 155.082H389.991C391.9 155.082 393.021 154.064 393.021 152.349Z" fill="white"/>
<path d="M403.672 147.863C403.725 147.715 403.792 147.622 403.952 147.622H405.513C405.687 147.622 405.78 147.715 405.82 147.863L411.426 163.774C411.479 163.921 411.399 164.015 411.252 164.015H409.571C409.397 164.015 409.304 163.948 409.264 163.774L408.009 160.211H401.403L400.148 163.774C400.081 163.948 399.975 164.015 399.841 164.015H398.16C398.013 164.015 397.946 163.921 397.986 163.774L403.672 147.863ZM407.315 158.229L404.739 150.782H404.686L402.083 158.229H407.315Z" fill="white"/>
<path d="M535 155.376C535 172.145 521.453 185.753 504.73 185.753C488.02 185.753 474.474 172.158 474.474 155.376C474.474 138.608 488.02 125 504.73 125C521.453 125 535 138.594 535 155.376Z" fill="#2FAC66"/>
<path d="M483.604 155.818C483.604 153.099 483.724 152.148 484.031 151.211C484.845 148.626 486.793 147.354 489.463 147.354C491.892 147.354 493.76 148.559 494.695 150.662C494.748 150.782 494.721 150.903 494.601 150.97L493.16 151.666C493.013 151.733 492.879 151.666 492.826 151.546C492.172 150.273 491.171 149.349 489.463 149.349C487.688 149.349 486.606 150.22 486.073 151.76C485.859 152.43 485.766 153.233 485.766 155.805C485.766 158.39 485.859 159.18 486.073 159.863C486.606 161.403 487.688 162.274 489.463 162.274C491.171 162.274 492.172 161.363 492.826 160.077C492.879 159.957 493.026 159.876 493.16 159.957L494.601 160.653C494.721 160.72 494.748 160.854 494.695 160.961C493.76 163.064 491.878 164.27 489.463 164.27C486.793 164.27 484.845 162.997 484.031 160.412C483.724 159.488 483.604 158.551 483.604 155.818Z" fill="white"/>
<path d="M502.729 147.863C502.782 147.715 502.849 147.622 503.009 147.622H504.57C504.744 147.622 504.837 147.715 504.891 147.863L510.483 163.774C510.536 163.921 510.456 164.015 510.309 164.015H508.628C508.454 164.015 508.361 163.948 508.321 163.774L507.066 160.211H500.46L499.218 163.774C499.152 163.948 499.045 164.015 498.912 164.015H497.23C497.083 164.015 497.016 163.921 497.056 163.774L502.729 147.863ZM506.372 158.229L503.796 150.782H503.743L501.14 158.229H506.372Z" fill="white"/>
<path d="M523.268 164.029C523.095 164.029 523.028 163.962 522.961 163.787L519.691 157.077H516.088C515.995 157.077 515.941 157.131 515.941 157.225V163.787C515.941 163.935 515.848 164.029 515.701 164.029H514.046C513.899 164.029 513.806 163.935 513.806 163.787V147.863C513.806 147.715 513.899 147.622 514.046 147.622H519.958C523.015 147.622 525.07 149.51 525.07 152.349C525.07 154.573 523.816 156.18 521.854 156.809L525.337 163.734C525.431 163.881 525.364 164.029 525.19 164.029H523.268ZM522.935 152.349C522.935 150.635 521.8 149.631 519.905 149.631H516.088C515.995 149.631 515.941 149.684 515.941 149.778V154.934C515.941 155.028 515.995 155.082 516.088 155.082H519.905C521.8 155.082 522.935 154.064 522.935 152.349Z" fill="white"/>
</svg>
