<svg width="825" height="545" viewBox="0 0 825 545" fill="none" xmlns="http://www.w3.org/2000/svg">
<path d="M264.28 92H26V143H264.28V92Z" fill="#ED1C24"/>
<path d="M266 223H28V543H266V223Z" stroke="#D3D2C2" stroke-width="3"/>
<path d="M539.28 92H301V143H539.28V92Z" fill="#ED1C24"/>
<path d="M541 223H303V543H541V223Z" stroke="#D3D2C2" stroke-width="3"/>
<path d="M821.28 92H583V143H821.28V92Z" fill="#ED1C24"/>
<path d="M823 223H585V543H823V223Z" stroke="#D3D2C2" stroke-width="3"/>
<path d="M265.28 155H27V207H265.28V155Z" stroke="#D3D2C2" stroke-width="3"/>
<path d="M39 195H251" stroke="#231F20" stroke-width="3" stroke-linecap="round" stroke-linejoin="round" stroke-dasharray="6 6"/>
<path d="M315 193H527" stroke="#231F20" stroke-width="3" stroke-linecap="round" stroke-linejoin="round" stroke-dasharray="6 6"/>
<path d="M597 194H809" stroke="#231F20" stroke-width="3" stroke-linecap="round" stroke-linejoin="round" stroke-dasharray="6 6"/>
<path d="M539.796 155H301.516V207H539.796V155Z" stroke="#D3D2C2" stroke-width="3"/>
<path d="M821.999 155H583.719V207H821.999V155Z" stroke="#D3D2C2" stroke-width="3"/>
<path d="M8.10018 21.2614V14.6802L2.32766 18.0052C1.94949 18.3021 1.49082 18.1525 1.26392 17.7867L0.122104 15.7133C-0.102355 15.3428 -0.0267219 14.901 0.427076 14.6802L6.20447 11.576L0.427076 8.31983C-0.0267219 8.09658 -0.102355 7.65483 0.122104 7.28433L1.26392 5.21093C1.49082 4.84517 1.94949 4.69554 2.32766 4.99242L8.10018 8.39347V1.73627C8.10018 1.28977 8.40514 1 8.86138 1H11.1401C11.5988 1 11.8989 1.29214 11.8989 1.73627L11.8208 8.39347L17.6738 4.99242C18.052 4.69554 18.5083 4.84517 18.7352 5.21093L19.8745 7.28433C20.1039 7.65483 20.0282 8.09658 19.5696 8.31983L13.7995 11.576L19.5696 14.6802C20.0282 14.901 20.1039 15.3428 19.8745 15.7133L18.7352 17.7867C18.5083 18.1525 18.052 18.3021 17.6738 18.0052L11.8208 14.6802L11.8989 21.2614C11.8989 21.7031 11.5988 22 11.1401 22H8.86138C8.40514 22 8.10018 21.7031 8.10018 21.2614Z" fill="#2BB673"/>
<path d="M8.10018 56.2614V49.6802L2.32766 53.0052C1.94949 53.3021 1.49082 53.1525 1.26392 52.7867L0.122104 50.7133C-0.102355 50.3428 -0.0267219 49.901 0.427076 49.6802L6.20447 46.576L0.427076 43.3198C-0.0267219 43.0966 -0.102355 42.6548 0.122104 42.2843L1.26392 40.2109C1.49082 39.8452 1.94949 39.6955 2.32766 39.9924L8.10018 43.3935V36.7363C8.10018 36.2898 8.40514 36 8.86138 36H11.1401C11.5988 36 11.8989 36.2921 11.8989 36.7363L11.8208 43.3935L17.6738 39.9924C18.052 39.6955 18.5083 39.8452 18.7352 40.2109L19.8745 42.2843C20.1039 42.6548 20.0282 43.0966 19.5696 43.3198L13.7995 46.576L19.5696 49.6802C20.0282 49.901 20.1039 50.3428 19.8745 50.7133L18.7352 52.7867C18.5083 53.1525 18.052 53.3021 17.6738 53.0052L11.8208 49.6802L11.8989 56.2614C11.8989 56.7031 11.5988 57 11.1401 57H8.86138C8.40514 57 8.10018 56.7031 8.10018 56.2614Z" fill="#2BB673"/>
<path d="M44.8984 20H34.5518V1.43945H44.8984V3.35645H36.71V9.33594H44.4033V11.2402H36.71V18.0703H44.8984V20ZM57.6826 16.2041C57.6826 17.499 57.2002 18.4977 56.2354 19.2002C55.2705 19.9027 53.9163 20.2539 52.1729 20.2539C50.3278 20.2539 48.889 19.9619 47.8564 19.3779V17.4229C48.5251 17.7614 49.2402 18.028 50.002 18.2227C50.7721 18.4173 51.5127 18.5146 52.2236 18.5146C53.3239 18.5146 54.1702 18.3411 54.7627 17.9941C55.3551 17.6387 55.6514 17.1012 55.6514 16.3818C55.6514 15.8402 55.4144 15.3789 54.9404 14.998C54.4749 14.6087 53.5609 14.1517 52.1982 13.627C50.9033 13.1445 49.9808 12.7256 49.4307 12.3701C48.889 12.0062 48.4827 11.5957 48.2119 11.1387C47.9495 10.6816 47.8184 10.1357 47.8184 9.50098C47.8184 8.36686 48.2796 7.47396 49.2021 6.82227C50.1247 6.16211 51.39 5.83203 52.998 5.83203C54.4961 5.83203 55.9603 6.13672 57.3906 6.74609L56.6416 8.45996C55.2451 7.88444 53.9798 7.59668 52.8457 7.59668C51.847 7.59668 51.0938 7.75326 50.5859 8.06641C50.0781 8.37956 49.8242 8.8112 49.8242 9.36133C49.8242 9.73372 49.9173 10.0511 50.1035 10.3135C50.2982 10.5758 50.6071 10.8255 51.0303 11.0625C51.4535 11.2995 52.266 11.6423 53.4678 12.0908C55.1182 12.6917 56.2311 13.2969 56.8066 13.9062C57.3906 14.5156 57.6826 15.2816 57.6826 16.2041ZM66.6836 20.2539C64.6693 20.2539 63.1077 19.6361 61.999 18.4004C60.8988 17.1562 60.3486 15.4001 60.3486 13.1318C60.3486 10.8044 60.9072 9.00586 62.0244 7.73633C63.1501 6.4668 64.7497 5.83203 66.8232 5.83203C67.4919 5.83203 68.1605 5.90397 68.8291 6.04785C69.4977 6.19173 70.0225 6.361 70.4033 6.55566L69.7559 8.3457C69.2904 8.15951 68.7826 8.00716 68.2324 7.88867C67.6823 7.76172 67.1956 7.69824 66.7725 7.69824C63.9456 7.69824 62.5322 9.50098 62.5322 13.1064C62.5322 14.8161 62.875 16.1279 63.5605 17.042C64.2546 17.9561 65.2786 18.4131 66.6328 18.4131C67.7923 18.4131 68.9814 18.1634 70.2002 17.6641V19.5303C69.2692 20.0127 68.097 20.2539 66.6836 20.2539ZM79.8613 5.83203C80.4792 5.83203 81.0335 5.88281 81.5244 5.98438L81.2324 7.93945C80.6569 7.8125 80.1491 7.74902 79.709 7.74902C78.5833 7.74902 77.6185 8.20605 76.8145 9.12012C76.0189 10.0342 75.6211 11.1725 75.6211 12.5352V20H73.5137V6.08594H75.2529L75.4941 8.66309H75.5957C76.112 7.75749 76.734 7.05924 77.4619 6.56836C78.1898 6.07747 78.9896 5.83203 79.8613 5.83203ZM86.2344 20H84.127V6.08594H86.2344V20ZM83.9492 2.31543C83.9492 1.83301 84.0677 1.48177 84.3047 1.26172C84.5417 1.0332 84.8379 0.918945 85.1934 0.918945C85.5319 0.918945 85.8239 1.0332 86.0693 1.26172C86.3148 1.49023 86.4375 1.84147 86.4375 2.31543C86.4375 2.78939 86.3148 3.14486 86.0693 3.38184C85.8239 3.61035 85.5319 3.72461 85.1934 3.72461C84.8379 3.72461 84.5417 3.61035 84.3047 3.38184C84.0677 3.14486 83.9492 2.78939 83.9492 2.31543ZM97.1777 5.85742C99.0059 5.85742 100.424 6.48372 101.431 7.73633C102.446 8.98047 102.954 10.7451 102.954 13.0303C102.954 15.3154 102.442 17.0928 101.418 18.3623C100.402 19.6234 98.9889 20.2539 97.1777 20.2539C96.2721 20.2539 95.4427 20.0889 94.6895 19.7588C93.9447 19.4202 93.3184 18.904 92.8105 18.21H92.6582L92.2139 20H90.7031V0.246094H92.8105V5.04492C92.8105 6.11979 92.7767 7.08464 92.709 7.93945H92.8105C93.7923 6.55143 95.248 5.85742 97.1777 5.85742ZM96.873 7.62207C95.4342 7.62207 94.3975 8.03678 93.7627 8.86621C93.1279 9.68717 92.8105 11.0752 92.8105 13.0303C92.8105 14.9854 93.1364 16.3861 93.7881 17.2324C94.4398 18.0703 95.485 18.4893 96.9238 18.4893C98.2188 18.4893 99.1836 18.0195 99.8184 17.0801C100.453 16.1322 100.771 14.7738 100.771 13.0049C100.771 11.1937 100.453 9.84375 99.8184 8.95508C99.1836 8.06641 98.2018 7.62207 96.873 7.62207ZM112.526 20.2539C110.47 20.2539 108.845 19.6276 107.651 18.375C106.466 17.1224 105.874 15.3831 105.874 13.1572C105.874 10.9144 106.424 9.13281 107.524 7.8125C108.633 6.49219 110.118 5.83203 111.98 5.83203C113.724 5.83203 115.104 6.40755 116.119 7.55859C117.135 8.70117 117.643 10.2119 117.643 12.0908V13.4238H108.058C108.1 15.0573 108.51 16.2972 109.289 17.1436C110.076 17.9899 111.181 18.4131 112.603 18.4131C114.101 18.4131 115.582 18.0999 117.046 17.4736V19.3525C116.301 19.6742 115.594 19.9027 114.926 20.0381C114.266 20.182 113.466 20.2539 112.526 20.2539ZM111.955 7.59668C110.838 7.59668 109.945 7.96061 109.276 8.68848C108.616 9.41634 108.227 10.4235 108.108 11.71H115.383C115.383 10.3812 115.087 9.36556 114.494 8.66309C113.902 7.95215 113.055 7.59668 111.955 7.59668ZM140.012 13.0303C140.012 15.2985 139.44 17.0716 138.298 18.3496C137.155 19.6191 135.577 20.2539 133.562 20.2539C132.318 20.2539 131.214 19.9619 130.249 19.3779C129.284 18.7939 128.539 17.9561 128.015 16.8643C127.49 15.7725 127.228 14.4945 127.228 13.0303C127.228 10.762 127.795 8.9974 128.929 7.73633C130.063 6.4668 131.637 5.83203 133.651 5.83203C135.598 5.83203 137.143 6.47949 138.285 7.77441C139.436 9.06934 140.012 10.8213 140.012 13.0303ZM129.411 13.0303C129.411 14.8076 129.767 16.1618 130.478 17.0928C131.188 18.0238 132.234 18.4893 133.613 18.4893C134.993 18.4893 136.038 18.028 136.749 17.1055C137.468 16.1745 137.828 14.8161 137.828 13.0303C137.828 11.2614 137.468 9.91992 136.749 9.00586C136.038 8.08333 134.984 7.62207 133.588 7.62207C132.208 7.62207 131.167 8.07487 130.465 8.98047C129.762 9.88607 129.411 11.236 129.411 13.0303ZM148.213 18.5146C148.585 18.5146 148.945 18.4893 149.292 18.4385C149.639 18.3792 149.914 18.32 150.117 18.2607V19.873C149.889 19.9831 149.55 20.0719 149.102 20.1396C148.661 20.2158 148.264 20.2539 147.908 20.2539C145.217 20.2539 143.871 18.8363 143.871 16.001V7.72363H141.878V6.70801L143.871 5.83203L144.76 2.86133H145.979V6.08594H150.016V7.72363H145.979V15.9121C145.979 16.75 146.177 17.3932 146.575 17.8418C146.973 18.2904 147.519 18.5146 148.213 18.5146ZM159.258 5.83203C159.876 5.83203 160.43 5.88281 160.921 5.98438L160.629 7.93945C160.053 7.8125 159.546 7.74902 159.105 7.74902C157.98 7.74902 157.015 8.20605 156.211 9.12012C155.415 10.0342 155.018 11.1725 155.018 12.5352V20H152.91V6.08594H154.649L154.891 8.66309H154.992C155.508 7.75749 156.131 7.05924 156.858 6.56836C157.586 6.07747 158.386 5.83203 159.258 5.83203ZM172.08 20L171.661 18.0195H171.56C170.866 18.8913 170.172 19.4837 169.478 19.7969C168.792 20.1016 167.933 20.2539 166.9 20.2539C165.521 20.2539 164.438 19.8984 163.65 19.1875C162.872 18.4766 162.482 17.4652 162.482 16.1533C162.482 13.3434 164.729 11.8708 169.224 11.7354L171.585 11.6592V10.7959C171.585 9.7041 171.348 8.90007 170.874 8.38379C170.409 7.85905 169.66 7.59668 168.627 7.59668C167.467 7.59668 166.156 7.95215 164.691 8.66309L164.044 7.05078C164.729 6.67839 165.479 6.38639 166.291 6.1748C167.112 5.96322 167.933 5.85742 168.754 5.85742C170.413 5.85742 171.64 6.22559 172.436 6.96191C173.24 7.69824 173.642 8.87891 173.642 10.5039V20H172.08ZM167.319 18.5146C168.631 18.5146 169.66 18.1549 170.404 17.4355C171.158 16.7161 171.534 15.709 171.534 14.4141V13.1572L169.427 13.2461C167.751 13.3053 166.541 13.5677 165.796 14.0332C165.06 14.4902 164.691 15.2054 164.691 16.1787C164.691 16.9404 164.92 17.5202 165.377 17.918C165.842 18.3158 166.49 18.5146 167.319 18.5146ZM191.225 20.2539C190.319 20.2539 189.49 20.0889 188.736 19.7588C187.992 19.4202 187.365 18.904 186.857 18.21H186.705C186.807 19.0225 186.857 19.7926 186.857 20.5205V26.2461H184.75V6.08594H186.464L186.756 7.99023H186.857C187.399 7.22852 188.03 6.67839 188.749 6.33984C189.468 6.0013 190.294 5.83203 191.225 5.83203C193.07 5.83203 194.492 6.46257 195.49 7.72363C196.497 8.9847 197.001 10.7536 197.001 13.0303C197.001 15.3154 196.489 17.0928 195.465 18.3623C194.449 19.6234 193.036 20.2539 191.225 20.2539ZM190.92 7.62207C189.498 7.62207 188.47 8.01562 187.835 8.80273C187.2 9.58984 186.874 10.8424 186.857 12.5605V13.0303C186.857 14.9854 187.183 16.3861 187.835 17.2324C188.487 18.0703 189.532 18.4893 190.971 18.4893C192.173 18.4893 193.112 18.0026 193.789 17.0293C194.475 16.056 194.817 14.7145 194.817 13.0049C194.817 11.2699 194.475 9.94108 193.789 9.01855C193.112 8.08757 192.156 7.62207 190.92 7.62207ZM209.252 20L208.833 18.0195H208.731C208.037 18.8913 207.343 19.4837 206.649 19.7969C205.964 20.1016 205.105 20.2539 204.072 20.2539C202.693 20.2539 201.609 19.8984 200.822 19.1875C200.044 18.4766 199.654 17.4652 199.654 16.1533C199.654 13.3434 201.901 11.8708 206.396 11.7354L208.757 11.6592V10.7959C208.757 9.7041 208.52 8.90007 208.046 8.38379C207.58 7.85905 206.831 7.59668 205.799 7.59668C204.639 7.59668 203.327 7.95215 201.863 8.66309L201.216 7.05078C201.901 6.67839 202.65 6.38639 203.463 6.1748C204.284 5.96322 205.105 5.85742 205.926 5.85742C207.585 5.85742 208.812 6.22559 209.607 6.96191C210.411 7.69824 210.813 8.87891 210.813 10.5039V20H209.252ZM204.491 18.5146C205.803 18.5146 206.831 18.1549 207.576 17.4355C208.329 16.7161 208.706 15.709 208.706 14.4141V13.1572L206.599 13.2461C204.923 13.3053 203.713 13.5677 202.968 14.0332C202.231 14.4902 201.863 15.2054 201.863 16.1787C201.863 16.9404 202.092 17.5202 202.549 17.918C203.014 18.3158 203.662 18.5146 204.491 18.5146ZM217.275 20H215.168V0.246094H217.275V20ZM230.301 20L229.882 18.0195H229.78C229.086 18.8913 228.392 19.4837 227.698 19.7969C227.013 20.1016 226.154 20.2539 225.121 20.2539C223.742 20.2539 222.658 19.8984 221.871 19.1875C221.092 18.4766 220.703 17.4652 220.703 16.1533C220.703 13.3434 222.95 11.8708 227.444 11.7354L229.806 11.6592V10.7959C229.806 9.7041 229.569 8.90007 229.095 8.38379C228.629 7.85905 227.88 7.59668 226.848 7.59668C225.688 7.59668 224.376 7.95215 222.912 8.66309L222.265 7.05078C222.95 6.67839 223.699 6.38639 224.512 6.1748C225.333 5.96322 226.154 5.85742 226.975 5.85742C228.633 5.85742 229.861 6.22559 230.656 6.96191C231.46 7.69824 231.862 8.87891 231.862 10.5039V20H230.301ZM225.54 18.5146C226.852 18.5146 227.88 18.1549 228.625 17.4355C229.378 16.7161 229.755 15.709 229.755 14.4141V13.1572L227.647 13.2461C225.972 13.3053 224.761 13.5677 224.017 14.0332C223.28 14.4902 222.912 15.2054 222.912 16.1787C222.912 16.9404 223.141 17.5202 223.598 17.918C224.063 18.3158 224.711 18.5146 225.54 18.5146ZM242.691 5.85742C244.52 5.85742 245.937 6.48372 246.944 7.73633C247.96 8.98047 248.468 10.7451 248.468 13.0303C248.468 15.3154 247.956 17.0928 246.932 18.3623C245.916 19.6234 244.503 20.2539 242.691 20.2539C241.786 20.2539 240.956 20.0889 240.203 19.7588C239.458 19.4202 238.832 18.904 238.324 18.21H238.172L237.728 20H236.217V0.246094H238.324V5.04492C238.324 6.11979 238.29 7.08464 238.223 7.93945H238.324C239.306 6.55143 240.762 5.85742 242.691 5.85742ZM242.387 7.62207C240.948 7.62207 239.911 8.03678 239.276 8.86621C238.642 9.68717 238.324 11.0752 238.324 13.0303C238.324 14.9854 238.65 16.3861 239.302 17.2324C239.953 18.0703 240.999 18.4893 242.438 18.4893C243.732 18.4893 244.697 18.0195 245.332 17.0801C245.967 16.1322 246.284 14.7738 246.284 13.0049C246.284 11.1937 245.967 9.84375 245.332 8.95508C244.697 8.06641 243.715 7.62207 242.387 7.62207ZM258.51 5.83203C259.128 5.83203 259.682 5.88281 260.173 5.98438L259.881 7.93945C259.305 7.8125 258.798 7.74902 258.357 7.74902C257.232 7.74902 256.267 8.20605 255.463 9.12012C254.667 10.0342 254.27 11.1725 254.27 12.5352V20H252.162V6.08594H253.901L254.143 8.66309H254.244C254.76 7.75749 255.382 7.05924 256.11 6.56836C256.838 6.07747 257.638 5.83203 258.51 5.83203ZM271.332 20L270.913 18.0195H270.812C270.118 18.8913 269.424 19.4837 268.729 19.7969C268.044 20.1016 267.185 20.2539 266.152 20.2539C264.773 20.2539 263.689 19.8984 262.902 19.1875C262.124 18.4766 261.734 17.4652 261.734 16.1533C261.734 13.3434 263.981 11.8708 268.476 11.7354L270.837 11.6592V10.7959C270.837 9.7041 270.6 8.90007 270.126 8.38379C269.66 7.85905 268.911 7.59668 267.879 7.59668C266.719 7.59668 265.408 7.95215 263.943 8.66309L263.296 7.05078C263.981 6.67839 264.73 6.38639 265.543 6.1748C266.364 5.96322 267.185 5.85742 268.006 5.85742C269.665 5.85742 270.892 6.22559 271.688 6.96191C272.492 7.69824 272.894 8.87891 272.894 10.5039V20H271.332ZM266.571 18.5146C267.883 18.5146 268.911 18.1549 269.656 17.4355C270.41 16.7161 270.786 15.709 270.786 14.4141V13.1572L268.679 13.2461C267.003 13.3053 265.793 13.5677 265.048 14.0332C264.312 14.4902 263.943 15.2054 263.943 16.1787C263.943 16.9404 264.172 17.5202 264.629 17.918C265.094 18.3158 265.742 18.5146 266.571 18.5146ZM289.258 18.4893C290.663 18.4893 291.687 18.1126 292.33 17.3594C292.973 16.6061 293.316 15.3366 293.358 13.5508V13.0811C293.358 11.1344 293.028 9.73372 292.368 8.87891C291.708 8.02409 290.663 7.59668 289.232 7.59668C287.997 7.59668 287.049 8.0791 286.389 9.04395C285.737 10.0003 285.411 11.3545 285.411 13.1064C285.411 14.8584 285.733 16.1956 286.376 17.1182C287.028 18.0322 287.988 18.4893 289.258 18.4893ZM288.94 20.2539C287.146 20.2539 285.745 19.6234 284.738 18.3623C283.731 17.1012 283.228 15.3408 283.228 13.0811C283.228 10.8044 283.735 9.02702 284.751 7.74902C285.767 6.47103 287.18 5.83203 288.991 5.83203C290.896 5.83203 292.36 6.55143 293.384 7.99023H293.498L293.803 6.08594H295.466V26.2461H293.358V20.292C293.358 19.4456 293.405 18.7262 293.498 18.1338H293.333C292.36 19.5472 290.896 20.2539 288.94 20.2539ZM301.928 6.08594V15.1123C301.928 16.2464 302.186 17.0928 302.702 17.6514C303.218 18.21 304.027 18.4893 305.127 18.4893C306.583 18.4893 307.645 18.0915 308.313 17.2959C308.991 16.5003 309.329 15.2012 309.329 13.3984V6.08594H311.437V20H309.697L309.393 18.1338H309.278C308.847 18.8193 308.246 19.3441 307.476 19.708C306.714 20.0719 305.842 20.2539 304.86 20.2539C303.168 20.2539 301.898 19.8519 301.052 19.0479C300.214 18.2438 299.795 16.9574 299.795 15.1885V6.08594H301.928ZM321.796 20.2539C319.739 20.2539 318.114 19.6276 316.921 18.375C315.736 17.1224 315.144 15.3831 315.144 13.1572C315.144 10.9144 315.694 9.13281 316.794 7.8125C317.903 6.49219 319.388 5.83203 321.25 5.83203C322.993 5.83203 324.373 6.40755 325.389 7.55859C326.404 8.70117 326.912 10.2119 326.912 12.0908V13.4238H317.327C317.369 15.0573 317.78 16.2972 318.559 17.1436C319.346 17.9899 320.45 18.4131 321.872 18.4131C323.37 18.4131 324.851 18.0999 326.315 17.4736V19.3525C325.571 19.6742 324.864 19.9027 324.195 20.0381C323.535 20.182 322.735 20.2539 321.796 20.2539ZM321.225 7.59668C320.107 7.59668 319.215 7.96061 318.546 8.68848C317.886 9.41634 317.496 10.4235 317.378 11.71H324.652C324.652 10.3812 324.356 9.36556 323.764 8.66309C323.171 7.95215 322.325 7.59668 321.225 7.59668ZM343.619 5.83203C344.237 5.83203 344.791 5.88281 345.282 5.98438L344.99 7.93945C344.415 7.8125 343.907 7.74902 343.467 7.74902C342.341 7.74902 341.376 8.20605 340.572 9.12012C339.777 10.0342 339.379 11.1725 339.379 12.5352V20H337.271V6.08594H339.011L339.252 8.66309H339.354C339.87 7.75749 340.492 7.05924 341.22 6.56836C341.948 6.07747 342.747 5.83203 343.619 5.83203ZM349.992 20H347.885V6.08594H349.992V20ZM347.707 2.31543C347.707 1.83301 347.826 1.48177 348.062 1.26172C348.299 1.0332 348.596 0.918945 348.951 0.918945C349.29 0.918945 349.582 1.0332 349.827 1.26172C350.073 1.49023 350.195 1.84147 350.195 2.31543C350.195 2.78939 350.073 3.14486 349.827 3.38184C349.582 3.61035 349.29 3.72461 348.951 3.72461C348.596 3.72461 348.299 3.61035 348.062 3.38184C347.826 3.14486 347.707 2.78939 347.707 2.31543ZM372.196 20V10.9482C372.196 9.83952 371.959 9.01009 371.485 8.45996C371.011 7.90137 370.275 7.62207 369.276 7.62207C367.965 7.62207 366.995 7.9987 366.369 8.75195C365.743 9.50521 365.43 10.6647 365.43 12.2305V20H363.322V10.9482C363.322 9.83952 363.085 9.01009 362.611 8.45996C362.137 7.90137 361.397 7.62207 360.39 7.62207C359.069 7.62207 358.1 8.01986 357.482 8.81543C356.873 9.60254 356.568 10.8975 356.568 12.7002V20H354.461V6.08594H356.175L356.518 7.99023H356.619C357.017 7.31315 357.576 6.78418 358.295 6.40332C359.023 6.02246 359.835 5.83203 360.732 5.83203C362.908 5.83203 364.329 6.61914 364.998 8.19336H365.1C365.514 7.46549 366.115 6.88997 366.902 6.4668C367.689 6.04362 368.587 5.83203 369.594 5.83203C371.168 5.83203 372.344 6.23828 373.123 7.05078C373.91 7.85482 374.304 9.14551 374.304 10.9229V20H372.196ZM384.536 20.2539C382.479 20.2539 380.854 19.6276 379.661 18.375C378.476 17.1224 377.884 15.3831 377.884 13.1572C377.884 10.9144 378.434 9.13281 379.534 7.8125C380.643 6.49219 382.128 5.83203 383.99 5.83203C385.734 5.83203 387.113 6.40755 388.129 7.55859C389.145 8.70117 389.652 10.2119 389.652 12.0908V13.4238H380.067C380.11 15.0573 380.52 16.2972 381.299 17.1436C382.086 17.9899 383.19 18.4131 384.612 18.4131C386.11 18.4131 387.591 18.0999 389.056 17.4736V19.3525C388.311 19.6742 387.604 19.9027 386.936 20.0381C386.275 20.182 385.476 20.2539 384.536 20.2539ZM383.965 7.59668C382.848 7.59668 381.955 7.96061 381.286 8.68848C380.626 9.41634 380.237 10.4235 380.118 11.71H387.393C387.393 10.3812 387.096 9.36556 386.504 8.66309C385.911 7.95215 385.065 7.59668 383.965 7.59668ZM397.803 6.08594H400.062L403.109 14.0205C403.778 15.8317 404.193 17.1393 404.354 17.9434H404.455C404.565 17.5117 404.794 16.7754 405.141 15.7344C405.496 14.6849 406.647 11.4688 408.594 6.08594H410.854L404.874 21.9297C404.282 23.4954 403.588 24.6042 402.792 25.2559C402.005 25.916 401.036 26.2461 399.885 26.2461C399.242 26.2461 398.607 26.1742 397.98 26.0303V24.3418C398.446 24.4434 398.966 24.4941 399.542 24.4941C400.989 24.4941 402.022 23.6816 402.64 22.0566L403.414 20.0762L397.803 6.08594ZM421.975 20H419.867V0.246094H421.975V20ZM428.424 6.08594V15.1123C428.424 16.2464 428.682 17.0928 429.198 17.6514C429.715 18.21 430.523 18.4893 431.623 18.4893C433.079 18.4893 434.141 18.0915 434.81 17.2959C435.487 16.5003 435.825 15.2012 435.825 13.3984V6.08594H437.933V20H436.193L435.889 18.1338H435.774C435.343 18.8193 434.742 19.3441 433.972 19.708C433.21 20.0719 432.338 20.2539 431.356 20.2539C429.664 20.2539 428.394 19.8519 427.548 19.0479C426.71 18.2438 426.291 16.9574 426.291 15.1885V6.08594H428.424ZM448.292 20.2539C446.235 20.2539 444.61 19.6276 443.417 18.375C442.232 17.1224 441.64 15.3831 441.64 13.1572C441.64 10.9144 442.19 9.13281 443.29 7.8125C444.399 6.49219 445.884 5.83203 447.746 5.83203C449.49 5.83203 450.869 6.40755 451.885 7.55859C452.9 8.70117 453.408 10.2119 453.408 12.0908V13.4238H443.823C443.866 15.0573 444.276 16.2972 445.055 17.1436C445.842 17.9899 446.946 18.4131 448.368 18.4131C449.866 18.4131 451.347 18.0999 452.812 17.4736V19.3525C452.067 19.6742 451.36 19.9027 450.691 20.0381C450.031 20.182 449.231 20.2539 448.292 20.2539ZM447.721 7.59668C446.604 7.59668 445.711 7.96061 445.042 8.68848C444.382 9.41634 443.993 10.4235 443.874 11.71H451.148C451.148 10.3812 450.852 9.36556 450.26 8.66309C449.667 7.95215 448.821 7.59668 447.721 7.59668ZM468.401 6.08594V7.41895L465.824 7.72363C466.061 8.01986 466.273 8.40918 466.459 8.8916C466.645 9.36556 466.738 9.90299 466.738 10.5039C466.738 11.8665 466.273 12.9541 465.342 13.7666C464.411 14.5791 463.133 14.9854 461.508 14.9854C461.093 14.9854 460.704 14.9515 460.34 14.8838C459.443 15.3577 458.994 15.9544 458.994 16.6738C458.994 17.0547 459.151 17.3382 459.464 17.5244C459.777 17.7021 460.314 17.791 461.076 17.791H463.539C465.046 17.791 466.201 18.1084 467.005 18.7432C467.817 19.3779 468.224 20.3005 468.224 21.5107C468.224 23.0511 467.606 24.2233 466.37 25.0273C465.134 25.8398 463.332 26.2461 460.962 26.2461C459.142 26.2461 457.737 25.9076 456.747 25.2305C455.765 24.5534 455.274 23.597 455.274 22.3613C455.274 21.515 455.545 20.7829 456.087 20.165C456.629 19.5472 457.39 19.1283 458.372 18.9082C458.017 18.7474 457.716 18.4977 457.471 18.1592C457.234 17.8206 457.115 17.4271 457.115 16.9785C457.115 16.4707 457.251 16.0264 457.521 15.6455C457.792 15.2646 458.22 14.8965 458.804 14.541C458.084 14.2448 457.496 13.7412 457.039 13.0303C456.59 12.3193 456.366 11.5068 456.366 10.5928C456.366 9.06934 456.823 7.89714 457.737 7.07617C458.651 6.24674 459.946 5.83203 461.622 5.83203C462.35 5.83203 463.006 5.91667 463.59 6.08594H468.401ZM457.306 22.3359C457.306 23.0892 457.623 23.6605 458.258 24.0498C458.893 24.4391 459.802 24.6338 460.987 24.6338C462.756 24.6338 464.064 24.3672 464.91 23.834C465.765 23.3092 466.192 22.5941 466.192 21.6885C466.192 20.9352 465.96 20.4105 465.494 20.1143C465.029 19.8265 464.153 19.6826 462.866 19.6826H460.34C459.383 19.6826 458.639 19.9111 458.105 20.3682C457.572 20.8252 457.306 21.4811 457.306 22.3359ZM458.448 10.542C458.448 11.5153 458.723 12.2516 459.273 12.751C459.824 13.2503 460.59 13.5 461.571 13.5C463.628 13.5 464.656 12.5013 464.656 10.5039C464.656 8.41341 463.615 7.36816 461.533 7.36816C460.543 7.36816 459.781 7.63477 459.248 8.16797C458.715 8.70117 458.448 9.49251 458.448 10.542ZM483.268 13.0303C483.268 15.2985 482.696 17.0716 481.554 18.3496C480.411 19.6191 478.833 20.2539 476.818 20.2539C475.574 20.2539 474.47 19.9619 473.505 19.3779C472.54 18.7939 471.795 17.9561 471.271 16.8643C470.746 15.7725 470.483 14.4945 470.483 13.0303C470.483 10.762 471.05 8.9974 472.185 7.73633C473.319 6.4668 474.893 5.83203 476.907 5.83203C478.854 5.83203 480.398 6.47949 481.541 7.77441C482.692 9.06934 483.268 10.8213 483.268 13.0303ZM472.667 13.0303C472.667 14.8076 473.022 16.1618 473.733 17.0928C474.444 18.0238 475.49 18.4893 476.869 18.4893C478.249 18.4893 479.294 18.028 480.005 17.1055C480.724 16.1745 481.084 14.8161 481.084 13.0303C481.084 11.2614 480.724 9.91992 480.005 9.00586C479.294 8.08333 478.24 7.62207 476.844 7.62207C475.464 7.62207 474.423 8.07487 473.721 8.98047C473.018 9.88607 472.667 11.236 472.667 13.0303ZM503.199 18.1338H503.085C502.112 19.5472 500.656 20.2539 498.718 20.2539C496.898 20.2539 495.48 19.6318 494.465 18.3877C493.458 17.1436 492.954 15.3747 492.954 13.0811C492.954 10.7874 493.462 9.00586 494.478 7.73633C495.493 6.4668 496.907 5.83203 498.718 5.83203C500.605 5.83203 502.052 6.51758 503.06 7.88867H503.225L503.136 6.88574L503.085 5.9082V0.246094H505.192V20H503.479L503.199 18.1338ZM498.984 18.4893C500.423 18.4893 501.464 18.0999 502.107 17.3213C502.759 16.5342 503.085 15.2689 503.085 13.5254V13.0811C503.085 11.109 502.755 9.7041 502.095 8.86621C501.443 8.01986 500.398 7.59668 498.959 7.59668C497.723 7.59668 496.775 8.0791 496.115 9.04395C495.464 10.0003 495.138 11.3545 495.138 13.1064C495.138 14.8838 495.464 16.2253 496.115 17.1309C496.767 18.0365 497.723 18.4893 498.984 18.4893ZM511.781 20H509.674V6.08594H511.781V20ZM509.496 2.31543C509.496 1.83301 509.615 1.48177 509.852 1.26172C510.089 1.0332 510.385 0.918945 510.74 0.918945C511.079 0.918945 511.371 1.0332 511.616 1.26172C511.862 1.49023 511.984 1.84147 511.984 2.31543C511.984 2.78939 511.862 3.14486 511.616 3.38184C511.371 3.61035 511.079 3.72461 510.74 3.72461C510.385 3.72461 510.089 3.61035 509.852 3.38184C509.615 3.14486 509.496 2.78939 509.496 2.31543ZM522.725 5.85742C524.553 5.85742 525.97 6.48372 526.978 7.73633C527.993 8.98047 528.501 10.7451 528.501 13.0303C528.501 15.3154 527.989 17.0928 526.965 18.3623C525.949 19.6234 524.536 20.2539 522.725 20.2539C521.819 20.2539 520.99 20.0889 520.236 19.7588C519.492 19.4202 518.865 18.904 518.357 18.21H518.205L517.761 20H516.25V0.246094H518.357V5.04492C518.357 6.11979 518.324 7.08464 518.256 7.93945H518.357C519.339 6.55143 520.795 5.85742 522.725 5.85742ZM522.42 7.62207C520.981 7.62207 519.944 8.03678 519.31 8.86621C518.675 9.68717 518.357 11.0752 518.357 13.0303C518.357 14.9854 518.683 16.3861 519.335 17.2324C519.987 18.0703 521.032 18.4893 522.471 18.4893C523.766 18.4893 524.73 18.0195 525.365 17.0801C526 16.1322 526.317 14.7738 526.317 13.0049C526.317 11.1937 526 9.84375 525.365 8.95508C524.73 8.06641 523.749 7.62207 522.42 7.62207ZM534.176 6.08594V15.1123C534.176 16.2464 534.434 17.0928 534.95 17.6514C535.466 18.21 536.275 18.4893 537.375 18.4893C538.831 18.4893 539.893 18.0915 540.562 17.2959C541.239 16.5003 541.577 15.2012 541.577 13.3984V6.08594H543.685V20H541.945L541.641 18.1338H541.526C541.095 18.8193 540.494 19.3441 539.724 19.708C538.962 20.0719 538.09 20.2539 537.108 20.2539C535.416 20.2539 534.146 19.8519 533.3 19.0479C532.462 18.2438 532.043 16.9574 532.043 15.1885V6.08594H534.176ZM536.385 3.92773C536.791 3.40299 537.227 2.76823 537.692 2.02344C538.166 1.27865 538.539 0.631185 538.81 0.0810547H541.374V0.347656C541.002 0.897786 540.447 1.57487 539.711 2.37891C538.975 3.18294 538.336 3.80501 537.794 4.24512H536.385V3.92773ZM546.478 26.2461C545.674 26.2461 545.022 26.1403 544.522 25.9287V24.2148C545.106 24.3841 545.682 24.4688 546.249 24.4688C546.909 24.4688 547.392 24.2868 547.696 23.9229C548.009 23.5674 548.166 23.0215 548.166 22.2852V6.08594H550.273V22.1328C550.273 24.875 549.008 26.2461 546.478 26.2461ZM547.988 2.31543C547.988 1.83301 548.107 1.48177 548.344 1.26172C548.581 1.0332 548.877 0.918945 549.232 0.918945C549.571 0.918945 549.863 1.0332 550.108 1.26172C550.354 1.49023 550.477 1.84147 550.477 2.31543C550.477 2.78939 550.354 3.14486 550.108 3.38184C549.863 3.61035 549.571 3.72461 549.232 3.72461C548.877 3.72461 548.581 3.61035 548.344 3.38184C548.107 3.14486 547.988 2.78939 547.988 2.31543ZM563.299 20L562.88 18.0195H562.778C562.084 18.8913 561.39 19.4837 560.696 19.7969C560.011 20.1016 559.152 20.2539 558.119 20.2539C556.74 20.2539 555.656 19.8984 554.869 19.1875C554.09 18.4766 553.701 17.4652 553.701 16.1533C553.701 13.3434 555.948 11.8708 560.442 11.7354L562.804 11.6592V10.7959C562.804 9.7041 562.567 8.90007 562.093 8.38379C561.627 7.85905 560.878 7.59668 559.846 7.59668C558.686 7.59668 557.374 7.95215 555.91 8.66309L555.263 7.05078C555.948 6.67839 556.697 6.38639 557.51 6.1748C558.331 5.96322 559.152 5.85742 559.973 5.85742C561.632 5.85742 562.859 6.22559 563.654 6.96191C564.458 7.69824 564.86 8.87891 564.86 10.5039V20H563.299ZM558.538 18.5146C559.85 18.5146 560.878 18.1549 561.623 17.4355C562.376 16.7161 562.753 15.709 562.753 14.4141V13.1572L560.646 13.2461C558.97 13.3053 557.759 13.5677 557.015 14.0332C556.278 14.4902 555.91 15.2054 555.91 16.1787C555.91 16.9404 556.139 17.5202 556.596 17.918C557.061 18.3158 557.709 18.5146 558.538 18.5146ZM571.322 20H569.215V0.246094H571.322V20ZM584.348 20L583.929 18.0195H583.827C583.133 18.8913 582.439 19.4837 581.745 19.7969C581.06 20.1016 580.201 20.2539 579.168 20.2539C577.788 20.2539 576.705 19.8984 575.918 19.1875C575.139 18.4766 574.75 17.4652 574.75 16.1533C574.75 13.3434 576.997 11.8708 581.491 11.7354L583.853 11.6592V10.7959C583.853 9.7041 583.616 8.90007 583.142 8.38379C582.676 7.85905 581.927 7.59668 580.895 7.59668C579.735 7.59668 578.423 7.95215 576.959 8.66309L576.312 7.05078C576.997 6.67839 577.746 6.38639 578.559 6.1748C579.38 5.96322 580.201 5.85742 581.021 5.85742C582.68 5.85742 583.908 6.22559 584.703 6.96191C585.507 7.69824 585.909 8.87891 585.909 10.5039V20H584.348ZM579.587 18.5146C580.899 18.5146 581.927 18.1549 582.672 17.4355C583.425 16.7161 583.802 15.709 583.802 14.4141V13.1572L581.694 13.2461C580.019 13.3053 578.808 13.5677 578.063 14.0332C577.327 14.4902 576.959 15.2054 576.959 16.1787C576.959 16.9404 577.188 17.5202 577.645 17.918C578.11 18.3158 578.757 18.5146 579.587 18.5146ZM589.959 18.6543C589.959 18.0872 590.086 17.6598 590.34 17.3721C590.602 17.0758 590.975 16.9277 591.457 16.9277C591.948 16.9277 592.329 17.0758 592.6 17.3721C592.879 17.6598 593.019 18.0872 593.019 18.6543C593.019 19.2044 592.879 19.6276 592.6 19.9238C592.32 20.2201 591.939 20.3682 591.457 20.3682C591.025 20.3682 590.666 20.237 590.378 19.9746C590.099 19.7038 589.959 19.2637 589.959 18.6543Z" fill="#050505"/>
<path d="M45.0254 52.0615C45.0254 53.695 44.4329 54.9688 43.248 55.8828C42.0632 56.7969 40.4551 57.2539 38.4238 57.2539C36.2233 57.2539 34.5306 56.9704 33.3457 56.4033V54.3213C34.1074 54.6429 34.9368 54.8968 35.834 55.083C36.7311 55.2692 37.6198 55.3623 38.5 55.3623C39.9388 55.3623 41.0221 55.0915 41.75 54.5498C42.4779 53.9997 42.8418 53.238 42.8418 52.2646C42.8418 51.6214 42.7106 51.0967 42.4482 50.6904C42.1943 50.2757 41.7627 49.8949 41.1533 49.5479C40.5524 49.2008 39.6341 48.8073 38.3984 48.3672C36.6719 47.7493 35.4362 47.0173 34.6914 46.1709C33.9551 45.3245 33.5869 44.2201 33.5869 42.8574C33.5869 41.4271 34.1243 40.2887 35.1992 39.4424C36.2741 38.596 37.696 38.1729 39.4648 38.1729C41.3099 38.1729 43.0068 38.5114 44.5557 39.1885L43.8828 41.0674C42.3509 40.4242 40.8613 40.1025 39.4141 40.1025C38.2715 40.1025 37.3786 40.348 36.7354 40.8389C36.0921 41.3298 35.7705 42.0111 35.7705 42.8828C35.7705 43.526 35.889 44.055 36.126 44.4697C36.363 44.876 36.7607 45.2526 37.3193 45.5996C37.8864 45.9382 38.7497 46.3148 39.9092 46.7295C41.8558 47.4235 43.193 48.1683 43.9209 48.9639C44.6572 49.7594 45.0254 50.792 45.0254 52.0615ZM50.4844 43.0859V52.1123C50.4844 53.2464 50.7425 54.0928 51.2588 54.6514C51.7751 55.21 52.5833 55.4893 53.6836 55.4893C55.1393 55.4893 56.2015 55.0915 56.8701 54.2959C57.5472 53.5003 57.8857 52.2012 57.8857 50.3984V43.0859H59.9932V57H58.2539L57.9492 55.1338H57.835C57.4033 55.8193 56.8024 56.3441 56.0322 56.708C55.2705 57.0719 54.3988 57.2539 53.417 57.2539C51.7243 57.2539 50.4548 56.8519 49.6084 56.0479C48.7705 55.2438 48.3516 53.9574 48.3516 52.1885V43.0859H50.4844ZM70.9492 42.8574C72.7773 42.8574 74.195 43.4837 75.2021 44.7363C76.2178 45.9805 76.7256 47.7451 76.7256 50.0303C76.7256 52.3154 76.2135 54.0928 75.1895 55.3623C74.1738 56.6234 72.7604 57.2539 70.9492 57.2539C70.0436 57.2539 69.2142 57.0889 68.4609 56.7588C67.7161 56.4202 67.0898 55.904 66.582 55.21H66.4297L65.9854 57H64.4746V37.2461H66.582V42.0449C66.582 43.1198 66.5482 44.0846 66.4805 44.9395H66.582C67.5638 43.5514 69.0195 42.8574 70.9492 42.8574ZM70.6445 44.6221C69.2057 44.6221 68.1689 45.0368 67.5342 45.8662C66.8994 46.6872 66.582 48.0752 66.582 50.0303C66.582 51.9854 66.9079 53.3861 67.5596 54.2324C68.2113 55.0703 69.2565 55.4893 70.6953 55.4893C71.9902 55.4893 72.9551 55.0195 73.5898 54.0801C74.2246 53.1322 74.542 51.7738 74.542 50.0049C74.542 48.1937 74.2246 46.8438 73.5898 45.9551C72.9551 45.0664 71.9733 44.6221 70.6445 44.6221ZM86.2979 57.2539C84.2412 57.2539 82.6162 56.6276 81.4229 55.375C80.238 54.1224 79.6455 52.3831 79.6455 50.1572C79.6455 47.9144 80.1956 46.1328 81.2959 44.8125C82.4046 43.4922 83.89 42.832 85.752 42.832C87.4954 42.832 88.875 43.4076 89.8906 44.5586C90.9062 45.7012 91.4141 47.2119 91.4141 49.0908V50.4238H81.8291C81.8714 52.0573 82.2819 53.2972 83.0605 54.1436C83.8477 54.9899 84.9521 55.4131 86.374 55.4131C87.8721 55.4131 89.3532 55.0999 90.8174 54.4736V56.3525C90.0726 56.6742 89.3659 56.9027 88.6973 57.0381C88.0371 57.182 87.2373 57.2539 86.2979 57.2539ZM85.7266 44.5967C84.6094 44.5967 83.7165 44.9606 83.0479 45.6885C82.3877 46.4163 81.9984 47.4235 81.8799 48.71H89.1543C89.1543 47.3812 88.8581 46.3656 88.2656 45.6631C87.6732 44.9521 86.8268 44.5967 85.7266 44.5967ZM108.045 44.7236H104.503V57H102.396V44.7236H99.9072V43.7715L102.396 43.0098V42.2354C102.396 38.8161 103.889 37.1064 106.877 37.1064C107.613 37.1064 108.477 37.2546 109.467 37.5508L108.921 39.2393C108.108 38.9769 107.414 38.8457 106.839 38.8457C106.043 38.8457 105.455 39.1123 105.074 39.6455C104.693 40.1702 104.503 41.0166 104.503 42.1846V43.0859H108.045V44.7236ZM122.594 50.0303C122.594 52.2985 122.022 54.0716 120.88 55.3496C119.737 56.6191 118.159 57.2539 116.145 57.2539C114.9 57.2539 113.796 56.9619 112.831 56.3779C111.866 55.7939 111.121 54.9561 110.597 53.8643C110.072 52.7725 109.81 51.4945 109.81 50.0303C109.81 47.762 110.377 45.9974 111.511 44.7363C112.645 43.4668 114.219 42.832 116.233 42.832C118.18 42.832 119.725 43.4795 120.867 44.7744C122.018 46.0693 122.594 47.8213 122.594 50.0303ZM111.993 50.0303C111.993 51.8076 112.349 53.1618 113.06 54.0928C113.771 55.0238 114.816 55.4893 116.195 55.4893C117.575 55.4893 118.62 55.028 119.331 54.1055C120.05 53.1745 120.41 51.8161 120.41 50.0303C120.41 48.2614 120.05 46.9199 119.331 46.0059C118.62 45.0833 117.566 44.6221 116.17 44.6221C114.79 44.6221 113.749 45.0749 113.047 45.9805C112.344 46.8861 111.993 48.236 111.993 50.0303ZM130.795 55.5146C131.167 55.5146 131.527 55.4893 131.874 55.4385C132.221 55.3792 132.496 55.32 132.699 55.2607V56.873C132.471 56.9831 132.132 57.0719 131.684 57.1396C131.243 57.2158 130.846 57.2539 130.49 57.2539C127.799 57.2539 126.453 55.8363 126.453 53.001V44.7236H124.46V43.708L126.453 42.832L127.342 39.8613H128.561V43.0859H132.598V44.7236H128.561V52.9121C128.561 53.75 128.759 54.3932 129.157 54.8418C129.555 55.2904 130.101 55.5146 130.795 55.5146ZM147.502 50.0303C147.502 52.2985 146.931 54.0716 145.788 55.3496C144.646 56.6191 143.067 57.2539 141.053 57.2539C139.809 57.2539 138.704 56.9619 137.739 56.3779C136.774 55.7939 136.03 54.9561 135.505 53.8643C134.98 52.7725 134.718 51.4945 134.718 50.0303C134.718 47.762 135.285 45.9974 136.419 44.7363C137.553 43.4668 139.127 42.832 141.142 42.832C143.088 42.832 144.633 43.4795 145.775 44.7744C146.926 46.0693 147.502 47.8213 147.502 50.0303ZM136.901 50.0303C136.901 51.8076 137.257 53.1618 137.968 54.0928C138.679 55.0238 139.724 55.4893 141.104 55.4893C142.483 55.4893 143.528 55.028 144.239 54.1055C144.959 53.1745 145.318 51.8161 145.318 50.0303C145.318 48.2614 144.959 46.9199 144.239 46.0059C143.528 45.0833 142.475 44.6221 141.078 44.6221C139.699 44.6221 138.658 45.0749 137.955 45.9805C137.253 46.8861 136.901 48.236 136.901 50.0303ZM160.185 53.2041C160.185 54.499 159.702 55.4977 158.737 56.2002C157.772 56.9027 156.418 57.2539 154.675 57.2539C152.83 57.2539 151.391 56.9619 150.358 56.3779V54.4229C151.027 54.7614 151.742 55.028 152.504 55.2227C153.274 55.4173 154.015 55.5146 154.726 55.5146C155.826 55.5146 156.672 55.3411 157.265 54.9941C157.857 54.6387 158.153 54.1012 158.153 53.3818C158.153 52.8402 157.916 52.3789 157.442 51.998C156.977 51.6087 156.063 51.1517 154.7 50.627C153.405 50.1445 152.483 49.7256 151.933 49.3701C151.391 49.0062 150.985 48.5957 150.714 48.1387C150.451 47.6816 150.32 47.1357 150.32 46.501C150.32 45.3669 150.782 44.474 151.704 43.8223C152.627 43.1621 153.892 42.832 155.5 42.832C156.998 42.832 158.462 43.1367 159.893 43.7461L159.144 45.46C157.747 44.8844 156.482 44.5967 155.348 44.5967C154.349 44.5967 153.596 44.7533 153.088 45.0664C152.58 45.3796 152.326 45.8112 152.326 46.3613C152.326 46.7337 152.419 47.0511 152.605 47.3135C152.8 47.5758 153.109 47.8255 153.532 48.0625C153.955 48.2995 154.768 48.6423 155.97 49.0908C157.62 49.6917 158.733 50.2969 159.309 50.9062C159.893 51.5156 160.185 52.2816 160.185 53.2041ZM179.85 55.1338H179.735C178.762 56.5472 177.306 57.2539 175.368 57.2539C173.549 57.2539 172.131 56.6318 171.115 55.3877C170.108 54.1436 169.604 52.3747 169.604 50.0811C169.604 47.7874 170.112 46.0059 171.128 44.7363C172.144 43.4668 173.557 42.832 175.368 42.832C177.256 42.832 178.703 43.5176 179.71 44.8887H179.875L179.786 43.8857L179.735 42.9082V37.2461H181.843V57H180.129L179.85 55.1338ZM175.635 55.4893C177.074 55.4893 178.115 55.0999 178.758 54.3213C179.41 53.5342 179.735 52.2689 179.735 50.5254V50.0811C179.735 48.109 179.405 46.7041 178.745 45.8662C178.093 45.0199 177.048 44.5967 175.609 44.5967C174.374 44.5967 173.426 45.0791 172.766 46.0439C172.114 47.0003 171.788 48.3545 171.788 50.1064C171.788 51.8838 172.114 53.2253 172.766 54.1309C173.417 55.0365 174.374 55.4893 175.635 55.4893ZM192.202 57.2539C190.146 57.2539 188.521 56.6276 187.327 55.375C186.142 54.1224 185.55 52.3831 185.55 50.1572C185.55 47.9144 186.1 46.1328 187.2 44.8125C188.309 43.4922 189.794 42.832 191.656 42.832C193.4 42.832 194.779 43.4076 195.795 44.5586C196.811 45.7012 197.318 47.2119 197.318 49.0908V50.4238H187.733C187.776 52.0573 188.186 53.2972 188.965 54.1436C189.752 54.9899 190.856 55.4131 192.278 55.4131C193.776 55.4131 195.257 55.0999 196.722 54.4736V56.3525C195.977 56.6742 195.27 56.9027 194.602 57.0381C193.941 57.182 193.142 57.2539 192.202 57.2539ZM191.631 44.5967C190.514 44.5967 189.621 44.9606 188.952 45.6885C188.292 46.4163 187.903 47.4235 187.784 48.71H195.059C195.059 47.3812 194.762 46.3656 194.17 45.6631C193.577 44.9521 192.731 44.5967 191.631 44.5967ZM212.172 55.5146C212.544 55.5146 212.904 55.4893 213.251 55.4385C213.598 55.3792 213.873 55.32 214.076 55.2607V56.873C213.848 56.9831 213.509 57.0719 213.061 57.1396C212.62 57.2158 212.223 57.2539 211.867 57.2539C209.176 57.2539 207.83 55.8363 207.83 53.001V44.7236H205.837V43.708L207.83 42.832L208.719 39.8613H209.938V43.0859H213.975V44.7236H209.938V52.9121C209.938 53.75 210.136 54.3932 210.534 54.8418C210.932 55.2904 211.478 55.5146 212.172 55.5146ZM218.85 43.0859V52.1123C218.85 53.2464 219.108 54.0928 219.624 54.6514C220.14 55.21 220.949 55.4893 222.049 55.4893C223.505 55.4893 224.567 55.0915 225.235 54.2959C225.912 53.5003 226.251 52.2012 226.251 50.3984V43.0859H228.358V57H226.619L226.314 55.1338H226.2C225.769 55.8193 225.168 56.3441 224.397 56.708C223.636 57.0719 222.764 57.2539 221.782 57.2539C220.09 57.2539 218.82 56.8519 217.974 56.0479C217.136 55.2438 216.717 53.9574 216.717 52.1885V43.0859H218.85ZM241.815 53.2041C241.815 54.499 241.333 55.4977 240.368 56.2002C239.403 56.9027 238.049 57.2539 236.306 57.2539C234.461 57.2539 233.022 56.9619 231.989 56.3779V54.4229C232.658 54.7614 233.373 55.028 234.135 55.2227C234.905 55.4173 235.646 55.5146 236.356 55.5146C237.457 55.5146 238.303 55.3411 238.896 54.9941C239.488 54.6387 239.784 54.1012 239.784 53.3818C239.784 52.8402 239.547 52.3789 239.073 51.998C238.608 51.6087 237.694 51.1517 236.331 50.627C235.036 50.1445 234.114 49.7256 233.563 49.3701C233.022 49.0062 232.616 48.5957 232.345 48.1387C232.082 47.6816 231.951 47.1357 231.951 46.501C231.951 45.3669 232.412 44.474 233.335 43.8223C234.257 43.1621 235.523 42.832 237.131 42.832C238.629 42.832 240.093 43.1367 241.523 43.7461L240.774 45.46C239.378 44.8844 238.113 44.5967 236.979 44.5967C235.98 44.5967 235.227 44.7533 234.719 45.0664C234.211 45.3796 233.957 45.8112 233.957 46.3613C233.957 46.7337 234.05 47.0511 234.236 47.3135C234.431 47.5758 234.74 47.8255 235.163 48.0625C235.586 48.2995 236.399 48.6423 237.601 49.0908C239.251 49.6917 240.364 50.2969 240.939 50.9062C241.523 51.5156 241.815 52.2816 241.815 53.2041ZM261.48 55.1338H261.366C260.393 56.5472 258.937 57.2539 256.999 57.2539C255.179 57.2539 253.762 56.6318 252.746 55.3877C251.739 54.1436 251.235 52.3747 251.235 50.0811C251.235 47.7874 251.743 46.0059 252.759 44.7363C253.774 43.4668 255.188 42.832 256.999 42.832C258.886 42.832 260.334 43.5176 261.341 44.8887H261.506L261.417 43.8857L261.366 42.9082V37.2461H263.474V57H261.76L261.48 55.1338ZM257.266 55.4893C258.704 55.4893 259.745 55.0999 260.389 54.3213C261.04 53.5342 261.366 52.2689 261.366 50.5254V50.0811C261.366 48.109 261.036 46.7041 260.376 45.8662C259.724 45.0199 258.679 44.5967 257.24 44.5967C256.005 44.5967 255.057 45.0791 254.396 46.0439C253.745 47.0003 253.419 48.3545 253.419 50.1064C253.419 51.8838 253.745 53.2253 254.396 54.1309C255.048 55.0365 256.005 55.4893 257.266 55.4893ZM270.062 57H267.955V43.0859H270.062V57ZM267.777 39.3154C267.777 38.833 267.896 38.4818 268.133 38.2617C268.37 38.0332 268.666 37.9189 269.021 37.9189C269.36 37.9189 269.652 38.0332 269.897 38.2617C270.143 38.4902 270.266 38.8415 270.266 39.3154C270.266 39.7894 270.143 40.1449 269.897 40.3818C269.652 40.6104 269.36 40.7246 269.021 40.7246C268.666 40.7246 268.37 40.6104 268.133 40.3818C267.896 40.1449 267.777 39.7894 267.777 39.3154ZM281.006 42.8574C282.834 42.8574 284.252 43.4837 285.259 44.7363C286.274 45.9805 286.782 47.7451 286.782 50.0303C286.782 52.3154 286.27 54.0928 285.246 55.3623C284.23 56.6234 282.817 57.2539 281.006 57.2539C280.1 57.2539 279.271 57.0889 278.518 56.7588C277.773 56.4202 277.146 55.904 276.639 55.21H276.486L276.042 57H274.531V37.2461H276.639V42.0449C276.639 43.1198 276.605 44.0846 276.537 44.9395H276.639C277.62 43.5514 279.076 42.8574 281.006 42.8574ZM280.701 44.6221C279.262 44.6221 278.226 45.0368 277.591 45.8662C276.956 46.6872 276.639 48.0752 276.639 50.0303C276.639 51.9854 276.965 53.3861 277.616 54.2324C278.268 55.0703 279.313 55.4893 280.752 55.4893C282.047 55.4893 283.012 55.0195 283.646 54.0801C284.281 53.1322 284.599 51.7738 284.599 50.0049C284.599 48.1937 284.281 46.8438 283.646 45.9551C283.012 45.0664 282.03 44.6221 280.701 44.6221ZM292.457 43.0859V52.1123C292.457 53.2464 292.715 54.0928 293.231 54.6514C293.748 55.21 294.556 55.4893 295.656 55.4893C297.112 55.4893 298.174 55.0915 298.843 54.2959C299.52 53.5003 299.858 52.2012 299.858 50.3984V43.0859H301.966V57H300.227L299.922 55.1338H299.808C299.376 55.8193 298.775 56.3441 298.005 56.708C297.243 57.0719 296.371 57.2539 295.39 57.2539C293.697 57.2539 292.427 56.8519 291.581 56.0479C290.743 55.2438 290.324 53.9574 290.324 52.1885V43.0859H292.457ZM304.759 63.2461C303.955 63.2461 303.303 63.1403 302.804 62.9287V61.2148C303.388 61.3841 303.963 61.4688 304.53 61.4688C305.19 61.4688 305.673 61.2868 305.978 60.9229C306.291 60.5674 306.447 60.0215 306.447 59.2852V43.0859H308.555V59.1328C308.555 61.875 307.289 63.2461 304.759 63.2461ZM306.27 39.3154C306.27 38.833 306.388 38.4818 306.625 38.2617C306.862 38.0332 307.158 37.9189 307.514 37.9189C307.852 37.9189 308.144 38.0332 308.39 38.2617C308.635 38.4902 308.758 38.8415 308.758 39.3154C308.758 39.7894 308.635 40.1449 308.39 40.3818C308.144 40.6104 307.852 40.7246 307.514 40.7246C307.158 40.7246 306.862 40.6104 306.625 40.3818C306.388 40.1449 306.27 39.7894 306.27 39.3154ZM325.033 50.0303C325.033 52.2985 324.462 54.0716 323.319 55.3496C322.177 56.6191 320.598 57.2539 318.584 57.2539C317.34 57.2539 316.235 56.9619 315.271 56.3779C314.306 55.7939 313.561 54.9561 313.036 53.8643C312.511 52.7725 312.249 51.4945 312.249 50.0303C312.249 47.762 312.816 45.9974 313.95 44.7363C315.084 43.4668 316.659 42.832 318.673 42.832C320.619 42.832 322.164 43.4795 323.307 44.7744C324.458 46.0693 325.033 47.8213 325.033 50.0303ZM314.433 50.0303C314.433 51.8076 314.788 53.1618 315.499 54.0928C316.21 55.0238 317.255 55.4893 318.635 55.4893C320.014 55.4893 321.06 55.028 321.771 54.1055C322.49 53.1745 322.85 51.8161 322.85 50.0303C322.85 48.2614 322.49 46.9199 321.771 46.0059C321.06 45.0833 320.006 44.6221 318.609 44.6221C317.23 44.6221 316.189 45.0749 315.486 45.9805C314.784 46.8861 314.433 48.236 314.433 50.0303ZM337.716 53.2041C337.716 54.499 337.233 55.4977 336.269 56.2002C335.304 56.9027 333.95 57.2539 332.206 57.2539C330.361 57.2539 328.922 56.9619 327.89 56.3779V54.4229C328.558 54.7614 329.273 55.028 330.035 55.2227C330.805 55.4173 331.546 55.5146 332.257 55.5146C333.357 55.5146 334.203 55.3411 334.796 54.9941C335.388 54.6387 335.685 54.1012 335.685 53.3818C335.685 52.8402 335.448 52.3789 334.974 51.998C334.508 51.6087 333.594 51.1517 332.231 50.627C330.937 50.1445 330.014 49.7256 329.464 49.3701C328.922 49.0062 328.516 48.5957 328.245 48.1387C327.983 47.6816 327.852 47.1357 327.852 46.501C327.852 45.3669 328.313 44.474 329.235 43.8223C330.158 43.1621 331.423 42.832 333.031 42.832C334.529 42.832 335.993 43.1367 337.424 43.7461L336.675 45.46C335.278 44.8844 334.013 44.5967 332.879 44.5967C331.88 44.5967 331.127 44.7533 330.619 45.0664C330.111 45.3796 329.857 45.8112 329.857 46.3613C329.857 46.7337 329.951 47.0511 330.137 47.3135C330.331 47.5758 330.64 47.8255 331.063 48.0625C331.487 48.2995 332.299 48.6423 333.501 49.0908C335.151 49.6917 336.264 50.2969 336.84 50.9062C337.424 51.5156 337.716 52.2816 337.716 53.2041Z" fill="#050505"/>
<path d="M59.7534 107.553C57.1646 107.553 55.1182 108.418 53.6143 110.147C52.1211 111.866 51.3745 114.224 51.3745 117.221C51.3745 120.304 52.0942 122.689 53.5337 124.375C54.9839 126.051 57.0464 126.889 59.7212 126.889C61.3647 126.889 63.2393 126.594 65.3447 126.003V128.404C63.7119 129.016 61.6978 129.322 59.3022 129.322C55.8325 129.322 53.1523 128.27 51.2617 126.164C49.3818 124.059 48.4419 121.067 48.4419 117.189C48.4419 114.761 48.8931 112.634 49.7954 110.808C50.7085 108.982 52.019 107.575 53.7271 106.586C55.4458 105.598 57.4653 105.104 59.7856 105.104C62.2563 105.104 64.4155 105.555 66.2632 106.458L65.103 108.81C63.3198 107.972 61.5366 107.553 59.7534 107.553ZM88.3706 129H85.6313V117.914H73.2241V129H70.4849V105.442H73.2241V115.465H85.6313V105.442H88.3706V129ZM94.8481 129V105.442H97.5874V129H94.8481ZM114.152 107.553C111.563 107.553 109.517 108.418 108.013 110.147C106.52 111.866 105.773 114.224 105.773 117.221C105.773 120.304 106.493 122.689 107.932 124.375C109.382 126.051 111.445 126.889 114.12 126.889C115.763 126.889 117.638 126.594 119.743 126.003V128.404C118.11 129.016 116.096 129.322 113.701 129.322C110.231 129.322 107.551 128.27 105.66 126.164C103.78 124.059 102.84 121.067 102.84 117.189C102.84 114.761 103.292 112.634 104.194 110.808C105.107 108.982 106.417 107.575 108.125 106.586C109.844 105.598 111.864 105.104 114.184 105.104C116.655 105.104 118.814 105.555 120.662 106.458L119.501 108.81C117.718 107.972 115.935 107.553 114.152 107.553ZM142.769 129H140.03V117.914H127.623V129H124.883V105.442H127.623V115.465H140.03V105.442H142.769V129ZM164.055 129L161.122 121.507H151.68L148.779 129H146.008L155.321 105.346H157.625L166.891 129H164.055ZM160.268 119.042L157.529 111.743C157.174 110.819 156.809 109.686 156.433 108.343C156.197 109.374 155.858 110.507 155.418 111.743L152.646 119.042H160.268ZM172.869 119.203V129H170.129V105.442H176.591C179.48 105.442 181.613 105.996 182.988 107.102C184.374 108.208 185.066 109.874 185.066 112.097C185.066 115.212 183.487 117.318 180.329 118.414L186.726 129H183.487L177.783 119.203H172.869ZM172.869 116.851H176.623C178.557 116.851 179.975 116.469 180.877 115.707C181.779 114.933 182.23 113.778 182.23 112.242C182.23 110.685 181.769 109.562 180.845 108.875C179.932 108.187 178.46 107.843 176.43 107.843H172.869V116.851ZM193.268 119.203V129H190.529V105.442H196.99C199.88 105.442 202.012 105.996 203.387 107.102C204.773 108.208 205.466 109.874 205.466 112.097C205.466 115.212 203.887 117.318 200.729 118.414L207.125 129H203.887L198.183 119.203H193.268ZM193.268 116.851H197.022C198.956 116.851 200.374 116.469 201.276 115.707C202.179 114.933 202.63 113.778 202.63 112.242C202.63 110.685 202.168 109.562 201.244 108.875C200.331 108.187 198.859 107.843 196.829 107.843H193.268V116.851ZM225.736 129L222.804 121.507H213.361L210.461 129H207.689L217.003 105.346H219.307L228.572 129H225.736ZM221.95 119.042L219.21 111.743C218.856 110.819 218.491 109.686 218.115 108.343C217.878 109.374 217.54 110.507 217.1 111.743L214.328 119.042H221.95Z" fill="#FFFCFC"/>
<path d="M386.888 117.189C386.888 120.959 385.932 123.924 384.02 126.083C382.118 128.243 379.47 129.322 376.076 129.322C372.606 129.322 369.926 128.264 368.035 126.148C366.155 124.021 365.215 121.024 365.215 117.157C365.215 113.322 366.161 110.352 368.051 108.246C369.942 106.13 372.627 105.072 376.108 105.072C379.492 105.072 382.134 106.146 384.036 108.294C385.937 110.443 386.888 113.408 386.888 117.189ZM368.116 117.189C368.116 120.379 368.792 122.802 370.146 124.456C371.51 126.1 373.487 126.921 376.076 126.921C378.686 126.921 380.657 126.1 381.989 124.456C383.321 122.812 383.987 120.39 383.987 117.189C383.987 114.02 383.321 111.619 381.989 109.986C380.668 108.343 378.708 107.521 376.108 107.521C373.498 107.521 371.51 108.348 370.146 110.002C368.792 111.646 368.116 114.042 368.116 117.189ZM405.611 105.442H408.56L400.068 129H397.361L388.918 105.442H391.818L397.232 120.686C397.855 122.437 398.35 124.139 398.715 125.793C399.102 124.053 399.606 122.318 400.229 120.589L405.611 105.442ZM411.815 129V105.442H414.554V129H411.815ZM421.032 129V105.442H423.771V126.519H434.164V129H421.032ZM438.176 129V105.442H440.916V126.519H451.309V129H438.176ZM475.769 117.189C475.769 120.959 474.812 123.924 472.9 126.083C470.999 128.243 468.351 129.322 464.957 129.322C461.487 129.322 458.807 128.264 456.916 126.148C455.036 124.021 454.096 121.024 454.096 117.157C454.096 113.322 455.042 110.352 456.932 108.246C458.823 106.13 461.508 105.072 464.989 105.072C468.373 105.072 471.015 106.146 472.917 108.294C474.818 110.443 475.769 113.408 475.769 117.189ZM456.997 117.189C456.997 120.379 457.673 122.802 459.027 124.456C460.391 126.1 462.368 126.921 464.957 126.921C467.567 126.921 469.538 126.1 470.87 124.456C472.202 122.812 472.868 120.39 472.868 117.189C472.868 114.02 472.202 111.619 470.87 109.986C469.549 108.343 467.588 107.521 464.989 107.521C462.378 107.521 460.391 108.348 459.027 110.002C457.673 111.646 456.997 114.042 456.997 117.189Z" fill="#FFFCFC"/>
<path d="M653.935 105.442H660.589C663.715 105.442 665.977 105.91 667.373 106.844C668.77 107.779 669.468 109.256 669.468 111.275C669.468 112.672 669.076 113.827 668.292 114.74C667.518 115.642 666.385 116.228 664.892 116.496V116.657C668.469 117.27 670.257 119.149 670.257 122.297C670.257 124.402 669.543 126.046 668.114 127.228C666.696 128.409 664.709 129 662.152 129H653.935V105.442ZM656.674 115.529H661.186C663.119 115.529 664.51 115.229 665.359 114.627C666.208 114.015 666.632 112.989 666.632 111.549C666.632 110.228 666.159 109.277 665.214 108.697C664.269 108.106 662.765 107.811 660.702 107.811H656.674V115.529ZM656.674 117.85V126.664H661.588C663.49 126.664 664.918 126.298 665.875 125.568C666.841 124.827 667.325 123.672 667.325 122.104C667.325 120.643 666.831 119.568 665.842 118.881C664.865 118.193 663.372 117.85 661.363 117.85H656.674ZM693.122 105.442V120.686C693.122 123.371 692.311 125.482 690.689 127.018C689.067 128.554 686.838 129.322 684.002 129.322C681.166 129.322 678.969 128.549 677.412 127.002C675.865 125.455 675.091 123.328 675.091 120.621V105.442H677.831V120.814C677.831 122.78 678.368 124.29 679.442 125.342C680.516 126.395 682.095 126.921 684.179 126.921C686.167 126.921 687.697 126.395 688.771 125.342C689.846 124.279 690.383 122.759 690.383 120.782V105.442H693.122ZM718.178 116.996C718.178 120.884 717.12 123.86 715.004 125.922C712.898 127.974 709.864 129 705.9 129H699.374V105.442H706.593C710.256 105.442 713.103 106.458 715.133 108.488C717.163 110.518 718.178 113.354 718.178 116.996ZM715.278 117.092C715.278 114.02 714.504 111.705 712.958 110.147C711.421 108.59 709.133 107.811 706.093 107.811H702.113V126.631H705.449C708.714 126.631 711.169 125.831 712.812 124.23C714.456 122.619 715.278 120.24 715.278 117.092ZM723.447 129V105.442H726.187V129H723.447ZM723.093 103.154C723.608 102.488 724.162 101.683 724.752 100.737C725.354 99.792 725.827 98.9702 726.17 98.272H729.425V98.6104C728.953 99.3086 728.249 100.168 727.314 101.188C726.38 102.209 725.569 102.999 724.881 103.557H723.093V103.154ZM751.065 129H747.939L735.065 109.229H734.936C735.108 111.549 735.194 113.676 735.194 115.61V129H732.664V105.442H735.758L748.6 125.133H748.729C748.708 124.843 748.659 123.914 748.584 122.345C748.509 120.766 748.482 119.638 748.503 118.961V105.442H751.065V129Z" fill="#FFFCFC"/>
</svg>
