<svg width="896" height="638" viewBox="0 0 896 638" fill="none" xmlns="http://www.w3.org/2000/svg">
<path d="M285.176 129.307C285.176 131.691 284.359 133.528 282.727 134.817C281.104 136.096 278.779 136.735 275.75 136.735H272.978V146H270.239V122.442H276.346C282.232 122.442 285.176 124.73 285.176 129.307ZM272.978 134.382H275.443C277.871 134.382 279.627 133.99 280.712 133.206C281.797 132.422 282.34 131.165 282.34 129.436C282.34 127.878 281.83 126.718 280.809 125.955C279.789 125.192 278.199 124.811 276.04 124.811H272.978V134.382ZM290.123 146V122.442H292.862V146H290.123ZM314.147 146L311.215 138.507H301.772L298.872 146H296.101L305.414 122.346H307.718L316.983 146H314.147ZM310.361 136.042L307.622 128.743C307.267 127.819 306.902 126.686 306.526 125.343C306.29 126.374 305.951 127.507 305.511 128.743L302.739 136.042H310.361ZM338.624 146H335.498L322.623 126.229H322.494C322.666 128.549 322.752 130.676 322.752 132.61V146H320.222V122.442H323.316L336.158 142.133H336.287C336.266 141.843 336.217 140.914 336.142 139.345C336.067 137.766 336.04 136.638 336.062 135.961V122.442H338.624V146ZM365.549 134.189C365.549 137.959 364.593 140.924 362.681 143.083C360.779 145.243 358.131 146.322 354.737 146.322C351.267 146.322 348.587 145.264 346.696 143.148C344.816 141.021 343.876 138.024 343.876 134.157C343.876 130.322 344.822 127.352 346.712 125.246C348.603 123.13 351.289 122.072 354.769 122.072C358.153 122.072 360.795 123.146 362.697 125.294C364.598 127.443 365.549 130.408 365.549 134.189ZM346.777 134.189C346.777 137.379 347.454 139.802 348.807 141.456C350.171 143.1 352.148 143.921 354.737 143.921C357.347 143.921 359.318 143.1 360.65 141.456C361.982 139.812 362.648 137.39 362.648 134.189C362.648 131.02 361.982 128.619 360.65 126.986C359.329 125.343 357.369 124.521 354.769 124.521C352.159 124.521 350.171 125.348 348.807 127.002C347.454 128.646 346.777 131.042 346.777 134.189Z" fill="black"/>
<path d="M285.176 183.307C285.176 185.691 284.359 187.528 282.727 188.817C281.104 190.096 278.779 190.735 275.75 190.735H272.978V200H270.239V176.442H276.346C282.232 176.442 285.176 178.73 285.176 183.307ZM272.978 188.382H275.443C277.871 188.382 279.627 187.99 280.712 187.206C281.797 186.422 282.34 185.165 282.34 183.436C282.34 181.878 281.83 180.718 280.809 179.955C279.789 179.192 278.199 178.811 276.04 178.811H272.978V188.382ZM290.123 200V176.442H292.862V200H290.123ZM319.787 188.189C319.787 191.959 318.831 194.924 316.919 197.083C315.018 199.243 312.37 200.322 308.975 200.322C305.505 200.322 302.825 199.264 300.935 197.148C299.055 195.021 298.115 192.024 298.115 188.157C298.115 184.322 299.06 181.352 300.951 179.246C302.841 177.13 305.527 176.072 309.007 176.072C312.391 176.072 315.034 177.146 316.935 179.294C318.836 181.443 319.787 184.408 319.787 188.189ZM301.015 188.189C301.015 191.379 301.692 193.802 303.045 195.456C304.41 197.1 306.386 197.921 308.975 197.921C311.585 197.921 313.557 197.1 314.889 195.456C316.221 193.812 316.887 191.39 316.887 188.189C316.887 185.02 316.221 182.619 314.889 180.986C313.567 179.343 311.607 178.521 309.007 178.521C306.397 178.521 304.41 179.348 303.045 181.002C301.692 182.646 301.015 185.042 301.015 188.189ZM325.056 200V176.442H327.795V197.519H338.188V200H325.056ZM357.009 200L354.076 192.507H344.634L341.733 200H338.962L348.275 176.346H350.58L359.845 200H357.009ZM353.222 190.042L350.483 182.743C350.128 181.819 349.763 180.686 349.387 179.343C349.151 180.374 348.812 181.507 348.372 182.743L345.601 190.042H353.222Z" fill="black"/>
<path d="M285.176 236.307C285.176 238.691 284.359 240.528 282.727 241.817C281.104 243.096 278.779 243.735 275.75 243.735H272.978V253H270.239V229.442H276.346C282.232 229.442 285.176 231.73 285.176 236.307ZM272.978 241.382H275.443C277.871 241.382 279.627 240.99 280.712 240.206C281.797 239.422 282.34 238.165 282.34 236.436C282.34 234.878 281.83 233.718 280.809 232.955C279.789 232.192 278.199 231.811 276.04 231.811H272.978V241.382ZM290.123 253V229.442H292.862V253H290.123ZM317.741 253H314.615L301.74 233.229H301.611C301.783 235.549 301.869 237.676 301.869 239.61V253H299.339V229.442H302.433L315.275 249.133H315.404C315.383 248.843 315.334 247.914 315.259 246.345C315.184 244.766 315.157 243.638 315.179 242.961V229.442H317.741V253ZM344.666 241.189C344.666 244.959 343.71 247.924 341.798 250.083C339.896 252.243 337.249 253.322 333.854 253.322C330.384 253.322 327.704 252.264 325.813 250.148C323.934 248.021 322.994 245.024 322.994 241.157C322.994 237.322 323.939 234.352 325.83 232.246C327.72 230.13 330.406 229.072 333.886 229.072C337.27 229.072 339.913 230.146 341.814 232.294C343.715 234.443 344.666 237.408 344.666 241.189ZM325.894 241.189C325.894 244.379 326.571 246.802 327.924 248.456C329.289 250.1 331.265 250.921 333.854 250.921C336.464 250.921 338.436 250.1 339.768 248.456C341.1 246.812 341.766 244.39 341.766 241.189C341.766 238.02 341.1 235.619 339.768 233.986C338.446 232.343 336.486 231.521 333.886 231.521C331.276 231.521 329.289 232.348 327.924 234.002C326.571 235.646 325.894 238.042 325.894 241.189Z" fill="black"/>
<circle cx="222.446" cy="134.311" r="21.4459" fill="#3E3D3C"/>
<circle cx="222.446" cy="188.392" r="21.4459" fill="#D2D1C2"/>
<circle cx="222.446" cy="241.54" r="21.4459" fill="#D2D1C2"/>
<path d="M65.9942 201.503C65.6473 207.565 63.4986 248.781 62.1892 254.966C60.9022 261.14 58.955 261.196 58.0597 248.054C57.1644 234.923 54.2099 195.329 55.0157 191.257C55.8214 187.197 66.1845 198.293 65.9942 201.503Z" fill="#625E58"/>
<path d="M164.163 175.889C164.163 175.889 163.715 216.434 162.205 221.77C160.694 227.105 160.638 224.163 159.463 219.175C158.288 214.186 154.785 178.126 154.83 175.721C154.874 173.305 164.163 175.889 164.163 175.889Z" fill="#403C38"/>
<path d="M160.164 164.652C160.164 164.652 174.198 172.683 175.239 173.511C176.28 174.338 176.806 178.745 176.257 180.289C145.985 196.563 84.6461 220.901 81.4678 221.114C78.2895 221.326 65.6323 213.351 64.4124 211.025C63.1926 208.709 64.5915 201.227 64.5915 201.227L160.164 164.652Z" fill="#DAD8CC"/>
<path d="M65.2783 202.99C65.2783 202.99 80.1962 214.667 81.7853 214.678C83.3745 214.69 147.211 190.335 175.11 173.457" stroke="black" stroke-width="0.476" stroke-linecap="round"/>
<path d="M160.28 167.624C160.28 167.624 172.781 172.59 173.833 174.704C174.874 176.829 173.766 184.043 173.766 184.043" stroke="black" stroke-width="0.476" stroke-linecap="round"/>
<path d="M154.27 170.219C156.922 171.538 164.823 176.146 166.927 177.768C169.031 179.39 167.677 186.671 167.677 186.671" stroke="black" stroke-width="0.476" stroke-linecap="round"/>
<path d="M145.575 173.563C149.235 174.916 158.938 178.831 160.404 181.605C161.87 184.39 160.359 188.405 160.359 188.405" stroke="black" stroke-width="0.476" stroke-linecap="round"/>
<path d="M139.565 175.99C142.587 178.093 152.357 182.678 153.252 184.848C154.17 187.018 153.207 192.398 153.207 192.398" stroke="black" stroke-width="0.476" stroke-linecap="round"/>
<path d="M133.165 178.562C136.231 180.732 145.072 186 146.572 187.823C148.072 189.658 146.516 195.094 146.516 195.094" stroke="black" stroke-width="0.476" stroke-linecap="round"/>
<path d="M126.125 181.381C129.863 184.177 138.346 187.913 140.159 190.642C141.961 193.371 140.114 197.677 140.114 197.677" stroke="black" stroke-width="0.476" stroke-linecap="round"/>
<path d="M118.549 184.401C122.701 187.074 132.113 191.693 133.064 193.707C134.015 195.72 133.444 200.339 133.444 200.339" stroke="black" stroke-width="0.476" stroke-linecap="round"/>
<path d="M110.972 187.499C113.881 189.703 122.163 195.183 124.2 197.577C126.236 199.97 124.155 204.12 124.155 204.12" stroke="black" stroke-width="0.476" stroke-linecap="round"/>
<path d="M99.8145 189.255C105.455 191.906 117.508 198.158 117.799 200.239C118.101 202.319 117.754 206.581 117.754 206.581" stroke="black" stroke-width="0.476" stroke-linecap="round"/>
<path d="M93.5703 192.174C96.8493 194.378 109.876 201.368 110.67 203.158C111.465 204.948 110.626 209.377 110.626 209.377" stroke="black" stroke-width="0.476" stroke-linecap="round"/>
<path d="M87.7051 196.704C91.4206 198.404 102.701 205.115 103.238 206.491C103.776 207.867 103.194 212.296 103.194 212.296" stroke="black" stroke-width="0.476" stroke-linecap="round"/>
<path d="M80.7666 199.489C83.7323 201.301 95.9978 207.52 97.1057 208.739C98.2137 209.97 97.061 214.667 97.061 214.667" stroke="black" stroke-width="0.476" stroke-linecap="round"/>
<path d="M70.6494 199.713C73.1003 201.514 88.3539 210.775 88.7903 212.564C89.2268 214.354 88.7568 218.358 88.7568 218.358" stroke="black" stroke-width="0.476" stroke-linecap="round"/>
<path d="M13.4509 182.421C13.395 188.495 11.1791 226.098 10.1831 232.339C9.18708 238.58 7.251 238.715 5.72899 225.651C4.20699 212.564 1.36443 178.059 1.96875 173.954C2.57308 169.861 13.4845 179.2 13.4509 182.421Z" fill="#625E58"/>
<path d="M8.45933 147.625C8.45933 147.625 2.12511 143.006 0.569536 146.238C-0.986041 149.471 1.03957 168.239 1.95724 174.469C4.20668 176.885 25.1566 192.924 36.9745 197.756C48.7812 202.588 65.4337 212.24 65.4337 212.24L65.6799 203.874L69.3618 176.426L8.45933 147.625Z" fill="#625E58"/>
<path d="M158.735 168.339C159.642 168.832 165.013 171.863 165.316 172.321C165.618 172.769 161.533 175.386 160.224 175.475C158.914 175.565 151.147 170.711 151.483 169.648C151.83 168.585 156.396 167.087 158.735 168.339Z" fill="black"/>
<path d="M149.849 172.019C150.756 172.5 157.168 176.784 156.15 177.757C155.758 178.137 153.542 179.222 152.233 179.334C150.924 179.435 142.284 174.469 142.62 173.406C142.956 172.332 147.51 170.789 149.849 172.019Z" fill="black"/>
<path d="M111.676 185.877C112.594 186.358 118.995 190.642 117.977 191.615C117.585 191.984 115.369 193.08 114.06 193.192C112.75 193.293 104.122 188.327 104.446 187.264C104.771 186.19 109.326 184.647 111.676 185.877Z" fill="black"/>
<path d="M119.867 182.365C120.774 182.846 127.186 187.13 126.168 188.103C125.776 188.472 123.56 189.58 122.251 189.68C120.942 189.781 112.313 184.815 112.638 183.752C112.962 182.678 117.517 181.135 119.867 182.365Z" fill="black"/>
<path d="M128.318 179.658C129.235 180.139 134.338 183.92 134.641 184.367C134.943 184.815 132.011 186.862 130.701 186.962C129.392 187.063 120.763 182.097 121.088 181.034C121.424 179.972 125.967 178.439 128.318 179.658Z" fill="black"/>
<path d="M86.8871 193.237C88.8903 195.038 95.6722 198.483 96.1534 200.831C95.1798 202.397 93.087 203.516 91.095 203.471C89.4947 203.214 82.1309 195.776 82.1309 195.776L86.8871 193.237Z" fill="black"/>
<path d="M79.96 196.939C79.96 196.939 88.275 202.565 88.7451 203.762C89.2151 204.959 85.6675 207.397 84.235 206.748C82.8025 206.1 74.0286 199.758 74.0734 199.445C74.1182 199.154 77.8001 198.102 79.96 196.939Z" fill="black"/>
<path d="M9.44406 243.401C4.90044 244.844 1.92358 240.404 2.56148 234.52C3.19937 228.637 7.37369 229.99 10.3617 230.762C13.3386 231.534 16.8974 241.041 9.44406 243.401Z" fill="#DB7A1C"/>
<path d="M60.8124 263.265C54.8027 264.272 54.8587 258.154 54.9034 255.47C54.9482 252.785 57.1529 251.018 61.0138 252.002C64.8636 252.987 66.5199 256.577 66.117 259.25C65.7141 261.923 63.6997 262.785 60.8124 263.265Z" fill="#DB7A1C"/>
<path d="M161.376 218.817C157.907 218.906 155.523 221.781 155.534 224.521C155.545 227.261 157.661 231.221 161.152 230.762C164.633 230.304 166.703 226.892 166.692 223.884C166.681 220.875 164.275 218.738 161.376 218.817Z" fill="#DB7A1C"/>
<path d="M161.096 224.801C161.085 225.393 161.555 225.606 162.125 225.617C162.976 225.628 163.177 225.147 163.2 224.555C163.211 223.962 162.752 223.503 162.17 223.459C161.118 223.38 161.107 224.208 161.096 224.801Z" fill="black"/>
<path d="M58.9878 257.561C58.9655 258.355 59.6369 258.635 60.4539 258.657C61.6625 258.68 61.9535 258.042 61.9647 257.237C61.9759 256.443 61.3156 255.828 60.5099 255.76C59.0214 255.649 58.999 256.767 58.9878 257.561Z" fill="black"/>
<path d="M6.55718 236.791C6.5348 237.585 7.20627 237.865 8.02323 237.887C9.23188 237.909 9.52285 237.272 9.53404 236.467C9.54524 235.672 8.89615 235.057 8.068 234.99C6.60195 234.878 6.57957 235.986 6.55718 236.791Z" fill="black"/>
<path d="M165.461 165.208C160.749 169.48 67.851 202.487 65.6799 203.863C56.2346 200.026 57.8013 181.661 57.8013 181.661L165.214 145.981L165.461 165.208Z" fill="#403C38"/>
<path d="M165.214 145.992C164.476 146.786 57.8013 181.672 57.8013 181.672C57.8013 181.672 34.781 172.344 17.5913 163.698C0.70383 155.197 -7.70076 143.956 10.8878 140.333C38.8546 134.897 54.1642 137.503 61.5392 138.878C87.4916 143.71 88.9017 133.588 111.9 134.013C134.897 134.449 165.953 145.198 165.214 145.992Z" fill="black"/>
<path d="M127.489 154.246C127.433 153.173 126.325 150.645 125.541 149.034C124.579 150.377 114.406 154.493 109.784 155.22C106.874 157.602 93.098 160.029 89.707 160.253C91.0612 166.058 97.082 183.215 97.082 183.215L127.489 154.246Z" fill="#2FAC66"/>
<path d="M126.93 150.421C121.301 154.045 112.303 156.551 109.774 155.622C107.771 158.966 94.1845 161.517 90.6816 161.416C91.6441 164.704 96.613 181.258 97.5866 182.074C98.5602 182.902 116.231 175.263 117.596 175.285C118.973 175.308 132.727 170.375 133.768 168.787C132.358 165.096 128.172 153.195 126.93 150.421Z" fill="white"/>
<path d="M128.239 166.024C127.836 166.528 121.144 169.659 119.6 169.704" stroke="black" stroke-width="0.476" stroke-linecap="round"/>
<path d="M126.997 162.523C125.598 163.138 119.566 166.304 118.581 166.304" stroke="black" stroke-width="0.476" stroke-linecap="round"/>
<path d="M125.631 159.246C123.975 160.085 118.01 162.087 117.271 162.344" stroke="black" stroke-width="0.476" stroke-linecap="round"/>
<path d="M124.837 155.756C123.248 156.662 118.088 158.732 116.275 159.078" stroke="black" stroke-width="0.476" stroke-linecap="round"/>
<path d="M107.054 162.199C106.002 162.065 96.9481 165.476 96.6348 165.398" stroke="black" stroke-width="0.476" stroke-linecap="round"/>
<path d="M108.205 165.868C106.236 166.203 98.2788 168.686 97.8535 168.832" stroke="black" stroke-width="0.476" stroke-linecap="round"/>
<path d="M109.293 169.793C106.808 170.543 99.9367 172.657 98.8623 172.881" stroke="black" stroke-width="0.476" stroke-linecap="round"/>
<path d="M111.173 172.881C109.427 173.417 101.873 176.605 100.955 176.281" stroke="black" stroke-width="0.476" stroke-linecap="round"/>
<path d="M116.532 174.894C116.532 174.894 111.004 159.615 110.053 156.506" stroke="#DAD8CC" stroke-width="0.476" stroke-linecap="round"/>
<path d="M137.147 167.612C135.692 168.127 93.6242 182.891 92.729 183.596C91.8337 184.289 92.4268 187.052 94.1726 187.756C95.9073 188.472 137.382 172.142 138.221 171.035C139.06 169.916 138.926 166.986 137.147 167.612Z" fill="black"/>
<path d="M15.7646 473.985L14.7773 486.771L94.6925 495.457L137.327 473.971L135.617 463.117L101.395 458.002L47.6083 462.324L15.7646 473.985Z" fill="#DAD8CC"/>
<path d="M13.0947 483.727C13.0947 483.727 16.6823 530.979 16.9048 532.438C17.1412 533.911 82.5529 536.469 90.2705 535.857C98.002 535.232 144.766 520.903 146.157 518.277C147.547 515.65 141.86 474.151 141.693 471.163C141.526 468.175 123.088 475.305 114.633 476.959C106.165 478.599 60.1233 486.201 50.6119 484.992C41.1005 483.81 14.8051 483.157 13.0947 483.727Z" fill="#2FAC66"/>
<path d="M19.3389 485.144L44.0629 534.759L67.6745 484.408L93.6223 532.327L111.227 482.017L130.847 522.21L142.278 472.887L79.7445 482.796L19.3389 485.144Z" fill="#007572"/>
<path d="M12.8583 482.268C12.8583 482.268 24.3303 474.04 41.3924 468.884C57.4951 464.02 96.0968 460.657 111.365 463.95C126.633 467.244 136.506 469.482 137.285 470.566C138.064 471.65 142.931 468.217 142.931 468.217C142.931 468.217 144.738 464.006 141.804 462.978C137.897 461.63 111.574 448.065 59.5809 456.209C11.1618 463.798 10.0633 475.736 10.397 477.195C10.6751 478.39 12.8583 482.268 12.8583 482.268Z" fill="#B91919"/>
<path d="M10.5224 475.11C10.8005 476.848 45.6756 484.283 87.4062 477.973C129.137 471.664 140.79 465.938 142.222 463.603C143.654 461.268 145.684 473.401 144.892 474.138C144.099 474.86 107.222 488.299 75.0581 490.398C42.8806 492.482 13.5121 489.105 11.3985 486.423C10.8284 485.798 9.15968 475.305 10.5224 475.11Z" fill="#E30613"/>
<path d="M14.8199 524.642C15.7794 525.781 42.186 538.067 92.385 530.103C142.584 522.154 143.724 513.246 145.949 510.188C148.174 507.131 148.897 521.153 147.562 522.265C146.241 523.377 134.491 539.498 80.7461 543.987C31.0199 548.143 16.1131 536.441 14.5418 534.843C13.9021 534.217 13.7075 523.321 14.8199 524.642Z" fill="#E30613"/>
<path d="M62.5838 456.307C63.6545 460.782 70.0371 461.505 72.9017 457.724C75.1683 454.736 73.9029 452.263 72.7904 450.095C73.1242 449.149 105.872 403.329 107.054 401.744C109.306 398.715 103.73 396.547 102.381 399.187C101.033 401.828 72.1647 446.231 70.9966 449.01C65.0451 446.884 61.6104 452.249 62.5838 456.307Z" fill="black"/>
<path d="M74.5152 462.45C73.8338 467.008 79.4934 470.052 83.5538 467.619C86.766 465.688 86.5157 462.922 86.3071 460.504C86.9606 459.753 134.462 429.456 136.131 428.414C139.357 426.455 134.99 422.355 132.752 424.3C130.513 426.246 87.1553 456.668 85.0278 458.822C80.3138 454.625 75.127 458.322 74.5152 462.45Z" fill="black"/>
<path d="M18.2681 492.371C19.4918 492.552 24.7203 491.927 24.6507 486.493C24.5673 481.059 19.1024 482.212 17.6841 482.796C16.2657 483.366 12.539 491.482 18.2681 492.371Z" fill="#FFDE00"/>
<path d="M67.5908 491.537C70.7613 491.357 72.4717 488.16 71.985 485.728C71.4983 483.296 69.5098 480.808 67.2154 480.975C64.9349 481.142 62.112 483.588 62.3901 485.951C62.6683 488.299 63.6277 491.76 67.5908 491.537Z" fill="#FFDE00"/>
<path d="M111.352 487.215C113.118 487.035 116.664 485.27 114.856 480.85C113.048 476.431 108.974 477.876 107.389 479.321C105.817 480.781 106.179 484.324 106.805 485.728C107.416 487.132 109.669 487.382 111.352 487.215Z" fill="#FFDE00"/>
<path d="M143.404 477.417C144.711 476.875 146.157 472.664 143.794 471.038C141.43 469.412 138.718 470.635 137.772 472.289C136.827 473.943 138.217 477.028 139.26 477.264C140.303 477.515 141.416 478.237 143.404 477.417Z" fill="#FFDE00"/>
<path d="M130.541 526.573C132.349 526.587 134.407 525.656 134.212 521.876C134.004 518.096 131.626 517.568 129.748 517.776C127.871 517.971 125.827 521.501 126.703 523.266C127.579 525.045 128.719 526.56 130.541 526.573Z" fill="#FFDE00"/>
<path d="M92.482 535.218C94.2619 535.107 99.7546 533.661 97.5992 528.297C95.4438 522.918 90.1319 524.864 89.3532 527.505C88.5606 530.117 88.4076 535.454 92.482 535.218Z" fill="#FFDE00"/>
<path d="M43.2285 537.108C45.1057 537.275 48.2623 536.608 47.7895 532.369C47.3167 528.13 44.4521 527.783 42.0882 528.658C39.7242 529.534 39.2376 532.216 39.8633 533.62C40.4891 535.023 41.6015 536.955 43.2285 537.108Z" fill="#FFDE00"/>
<path d="M14.6113 530.604C16.6416 530.993 20.2431 529.409 19.0889 524.683C17.9487 519.958 14.5557 521.39 12.5533 522.71C10.5509 524.03 10.4814 527.949 11.6077 528.783C12.748 529.603 13.4711 530.395 14.6113 530.604Z" fill="#FFDE00"/>
<path d="M540.302 155.558C531.37 162.604 520.854 178.387 530.83 194.575C535.639 202.368 544.318 205.654 547.778 211.072C553.953 220.752 546.708 225.239 553.354 243.081C560.748 262.91 580.958 288.713 618.608 261.129C647.315 240.109 650.258 207.685 629.264 192.466C608.269 177.247 600.996 184.88 593.535 175.376C589.063 169.686 589.909 159.766 575.887 151.147C563.698 143.626 548.843 148.815 540.302 155.558Z" fill="#A85318"/>
<path d="M531.04 162.839C522.108 169.885 511.592 185.668 521.572 201.843C526.377 209.649 535.06 212.922 538.52 218.341C544.692 228.033 537.45 232.507 544.096 250.349C551.489 270.179 571.699 295.981 609.363 268.401C638.067 247.394 641.013 214.957 620.032 199.741C599.05 184.526 591.768 192.142 584.306 182.638C579.835 176.948 580.68 167.028 566.659 158.409C554.423 150.903 539.581 156.096 531.04 162.839Z" fill="#F39200"/>
<path d="M564.458 231.509C574.363 233.323 583.945 226.268 585.884 215.74C587.805 205.222 581.352 195.215 571.447 193.401C561.541 191.587 551.946 198.638 550.025 209.156C548.086 219.684 554.553 229.694 564.458 231.509Z" fill="#A85318"/>
<path d="M565.295 226.92C572.81 228.304 580.093 222.94 581.559 214.96C583.025 206.979 578.121 199.386 570.593 197.999C563.075 196.629 555.795 201.979 554.329 209.96C552.877 217.944 557.781 225.537 565.295 226.92Z" fill="black"/>
<path d="M485.201 122.713C484.516 121.853 482.718 122.102 482.052 121.276C472.759 109.677 466.375 101.616 465.853 100.73C466.734 99.3339 468.059 92.4557 467.896 89.6534L469.154 88.6399C473.019 89.4523 478.465 89.3094 480.692 88.1479C481.475 89.0616 488.534 97.7539 498.602 110.139C499.407 111.129 498.671 113.028 499.505 114.068C529.041 150.453 572.321 204.416 572.321 204.416L558.801 214.34C558.797 214.353 513.978 158.569 485.201 122.713ZM489.576 110.348L490.869 109.203C491.033 109.064 491.024 108.78 490.853 108.58L478.006 93.3802C477.835 93.1794 477.565 93.1351 477.401 93.2741L476.091 94.4285C475.924 94.5805 475.936 94.8511 476.107 95.0519L488.954 110.251C489.125 110.452 489.395 110.496 489.576 110.348ZM484.68 114.79L485.99 113.636C486.154 113.497 486.145 113.213 485.974 113.012L473.127 97.8128C472.956 97.612 472.686 97.5677 472.522 97.7067L471.212 98.8611C471.045 99.0131 471.057 99.2837 471.228 99.4845L484.071 114.697C484.243 114.898 484.513 114.942 484.68 114.79Z" fill="black"/>
<path d="M491.553 89.0223C491.553 89.0223 490.292 91.414 489.533 90.6194C488.788 89.8283 487.442 88.4959 487.442 88.4959L482.806 92.5997L482.156 91.8201L486.629 87.5882C486.629 87.5882 484.994 86.1782 484.911 85.6492C484.814 85.1167 487.179 82.8661 487.952 83.5522C488.722 84.2514 491.787 87.5228 491.553 89.0223Z" fill="#DAD8CC"/>
<path d="M496.542 96.1455C496.079 96.9782 494.973 97.6383 494.347 97.1889C493.734 96.743 492.868 95.5112 492.868 95.5112L488.272 98.9925L487.591 98.3311L491.895 94.3634C491.895 94.3634 489.886 92.7689 490.305 91.8397C490.727 90.8974 492.02 89.7526 492.885 90.4634C493.747 91.1872 497.25 94.8718 496.542 96.1455Z" fill="#DAD8CC"/>
<path d="M502.875 102.56C502.669 103.433 501.136 104.739 500.523 104.293C499.91 103.847 498.699 102.326 498.699 102.326L494.087 105.817L493.17 104.881L497.328 101.085C497.328 101.085 495.225 99.4791 495.831 98.5862C496.45 97.6968 497.609 96.6288 498.593 97.3713C499.554 98.0936 503.108 101.482 502.875 102.56Z" fill="#DAD8CC"/>
<path d="M471.057 119.536C471.057 119.536 472.318 117.144 473.077 117.939C473.822 118.73 475.168 120.062 475.168 120.062L479.817 115.962L480.47 116.728L476.01 120.964C476.01 120.964 477.649 122.361 477.729 122.903C477.812 123.432 475.448 125.682 474.675 124.996C473.888 124.307 470.823 121.035 471.057 119.536Z" fill="#DAD8CC"/>
<path d="M466.068 112.413C466.531 111.58 467.651 110.923 468.263 111.369C468.889 111.819 469.742 113.047 469.742 113.047L474.351 109.569L475.029 110.244L470.725 114.211C470.725 114.211 472.737 115.793 472.315 116.735C471.893 117.677 470.6 118.822 469.735 118.111C468.863 117.371 465.373 113.69 466.068 112.413Z" fill="#DAD8CC"/>
<path d="M459.748 106.002C459.942 105.125 461.488 103.823 462.101 104.269C462.726 104.718 463.924 106.236 463.924 106.236L468.536 102.745L469.471 103.671L465.312 107.467C465.312 107.467 467.415 109.073 466.806 109.979C466.191 110.855 465.014 111.933 464.057 111.197C463.057 110.464 459.503 107.076 459.748 106.002Z" fill="#DAD8CC"/>
<path d="M490.508 106.559C490.508 106.559 528.234 154.402 549.289 180.417C570.343 206.433 601.078 244.49 601.078 244.49" stroke="#DAD8CC" stroke-width="0.42"/>
<path d="M483.103 100.786C483.103 100.786 524.762 154.596 545.829 180.614C566.884 206.63 597.615 244.7 597.615 244.7" stroke="#DAD8CC" stroke-width="0.42"/>
<path d="M477.907 105.555C477.907 105.555 519.563 159.379 540.634 185.384C561.688 211.4 592.42 249.47 592.42 249.47" stroke="#DAD8CC" stroke-width="0.42"/>
<path d="M475.581 95.544C475.581 95.544 524.22 157.504 545.278 183.506C566.349 209.512 597.064 247.592 597.064 247.592" stroke="#DAD8CC" stroke-width="0.42"/>
<path d="M473.724 97.424C473.724 97.424 521.952 158.289 543.01 184.291C564.065 210.307 594.261 249.95 594.261 249.95" stroke="#DAD8CC" stroke-width="0.42"/>
<path d="M481.714 114.036C481.714 114.036 519.547 161.851 540.604 187.854C561.659 213.869 590.448 251.516 590.448 251.516" stroke="#DAD8CC" stroke-width="0.42"/>
<path d="M585.896 256.881L585.469 256.372C584.208 254.88 584.444 252.691 585.981 251.528L600.003 240.837C601.557 239.664 603.826 239.921 605.083 241.427L605.51 241.935L585.896 256.881Z" fill="black"/>
<path d="M560.012 329.467C519 329.467 519 362.697 519 362.697C519 362.697 519 508.789 519 548.878C519 588.967 555.904 582.466 555.904 582.466L707.5 582.466L859.096 582.466C896 582.466 896 548.878 896 548.878L896 362.697C896 322.467 835.589 329.467 835.589 329.467L560.012 329.467Z" fill="#2BB572"/>
<path d="M560.012 329.467C519 329.467 519 362.697 519 362.697C519 362.697 519 508.789 519 548.878C519 588.967 555.904 582.466 555.904 582.466L707.5 582.466L859.096 582.466C896 582.466 896 548.878 896 548.878L896 362.697C896 322.467 835.589 329.467 835.589 329.467L560.012 329.467Z" stroke="#FFFF00"/>
<path d="M685.185 576.69C685.185 576.69 687.564 597.532 695.9 608.549C711.542 629.234 727.298 637.966 727.298 637.966C727.298 637.966 721.062 624.549 714.9 600.549C711.9 588.865 711.9 572.908 711.9 572.908L698.542 574.799L685.185 576.69Z" fill="#2BB572"/>
<path d="M572.648 383.607H575.452L576.273 399.978H571.81L572.648 383.607ZM576.467 378.451C576.467 379.246 576.263 379.853 575.854 380.271C575.457 380.69 574.861 380.9 574.066 380.9C573.292 380.9 572.702 380.69 572.293 380.271C571.885 379.842 571.681 379.235 571.681 378.451C571.681 377.709 571.885 377.113 572.293 376.662C572.702 376.211 573.292 375.985 574.066 375.985C574.839 375.985 575.43 376.206 575.838 376.646C576.257 377.076 576.467 377.677 576.467 378.451ZM597.366 377.564C597.366 380.024 596.56 381.91 594.949 383.22C593.337 384.531 591.044 385.186 588.068 385.186H585.619V394H581.768V370.442H588.552C591.495 370.442 593.697 371.044 595.158 372.247C596.63 373.45 597.366 375.223 597.366 377.564ZM585.619 381.947H587.666C589.642 381.947 591.092 381.604 592.016 380.916C592.94 380.229 593.402 379.154 593.402 377.693C593.402 376.34 592.988 375.33 592.161 374.664C591.334 373.998 590.045 373.665 588.294 373.665H585.619V381.947ZM610.708 375.856C611.47 375.856 612.099 375.91 612.593 376.018L612.222 379.546C611.685 379.417 611.126 379.353 610.546 379.353C609.032 379.353 607.802 379.847 606.856 380.835C605.922 381.824 605.455 383.107 605.455 384.687V394H601.668V376.179H604.633L605.132 379.321H605.326C605.917 378.257 606.685 377.414 607.63 376.791C608.586 376.168 609.612 375.856 610.708 375.856ZM623.695 394.322C620.923 394.322 618.753 393.517 617.185 391.905C615.627 390.283 614.849 388.054 614.849 385.218C614.849 382.307 615.574 380.019 617.024 378.354C618.474 376.689 620.467 375.856 623.002 375.856C625.354 375.856 627.213 376.571 628.577 378C629.941 379.428 630.624 381.394 630.624 383.897V385.943H618.748C618.802 387.673 619.269 389.005 620.15 389.939C621.031 390.863 622.271 391.325 623.872 391.325C624.925 391.325 625.902 391.229 626.805 391.035C627.718 390.831 628.695 390.498 629.737 390.036V393.114C628.813 393.554 627.879 393.866 626.934 394.048C625.988 394.231 624.909 394.322 623.695 394.322ZM623.002 378.725C621.799 378.725 620.832 379.106 620.102 379.869C619.382 380.631 618.952 381.743 618.812 383.204H626.901C626.88 381.732 626.525 380.621 625.838 379.869C625.15 379.106 624.205 378.725 623.002 378.725ZM646.898 388.924C646.898 390.665 646.264 392.002 644.997 392.937C643.729 393.86 641.914 394.322 639.55 394.322C637.176 394.322 635.27 393.962 633.83 393.243V389.972C635.925 390.938 637.875 391.422 639.679 391.422C642.01 391.422 643.176 390.718 643.176 389.311C643.176 388.86 643.047 388.484 642.789 388.183C642.531 387.882 642.107 387.571 641.516 387.249C640.925 386.926 640.104 386.561 639.051 386.153C636.999 385.358 635.608 384.563 634.877 383.768C634.158 382.973 633.798 381.942 633.798 380.674C633.798 379.149 634.41 377.967 635.635 377.129C636.87 376.281 638.546 375.856 640.662 375.856C642.757 375.856 644.739 376.281 646.608 377.129L645.383 379.981C643.46 379.187 641.844 378.789 640.533 378.789C638.535 378.789 637.536 379.358 637.536 380.497C637.536 381.056 637.794 381.528 638.31 381.915C638.836 382.302 639.975 382.833 641.726 383.51C643.197 384.08 644.266 384.601 644.932 385.073C645.598 385.546 646.092 386.094 646.415 386.717C646.737 387.329 646.898 388.065 646.898 388.924ZM657.646 391.261C658.569 391.261 659.493 391.116 660.417 390.826V393.678C659.998 393.86 659.456 394.011 658.79 394.129C658.134 394.258 657.452 394.322 656.743 394.322C653.155 394.322 651.361 392.432 651.361 388.65V379.047H648.928V377.371L651.539 375.985L652.828 372.215H655.164V376.179H660.24V379.047H655.164V388.586C655.164 389.499 655.39 390.176 655.841 390.616C656.303 391.046 656.904 391.261 657.646 391.261ZM675.145 394L674.387 391.519H674.258C673.399 392.604 672.534 393.345 671.664 393.742C670.794 394.129 669.677 394.322 668.312 394.322C666.562 394.322 665.192 393.85 664.204 392.904C663.226 391.959 662.737 390.622 662.737 388.892C662.737 387.055 663.419 385.669 664.784 384.735C666.148 383.8 668.227 383.29 671.02 383.204L674.097 383.107V382.157C674.097 381.018 673.829 380.169 673.292 379.611C672.765 379.042 671.943 378.757 670.826 378.757C669.913 378.757 669.038 378.891 668.2 379.16C667.362 379.428 666.556 379.745 665.783 380.11L664.558 377.403C665.525 376.898 666.583 376.517 667.732 376.259C668.882 375.991 669.967 375.856 670.987 375.856C673.254 375.856 674.962 376.351 676.111 377.339C677.271 378.327 677.852 379.879 677.852 381.996V394H675.145ZM669.505 391.422C670.88 391.422 671.981 391.041 672.808 390.278C673.646 389.504 674.065 388.425 674.065 387.039V385.492L671.777 385.589C669.994 385.653 668.694 385.954 667.877 386.491C667.072 387.018 666.669 387.829 666.669 388.924C666.669 389.719 666.905 390.337 667.378 390.777C667.851 391.207 668.56 391.422 669.505 391.422ZM702.859 394L702.102 391.519H701.973C701.114 392.604 700.249 393.345 699.379 393.742C698.509 394.129 697.392 394.322 696.027 394.322C694.276 394.322 692.907 393.85 691.918 392.904C690.941 391.959 690.452 390.622 690.452 388.892C690.452 387.055 691.134 385.669 692.499 384.735C693.863 383.8 695.941 383.29 698.734 383.204L701.812 383.107V382.157C701.812 381.018 701.543 380.169 701.006 379.611C700.48 379.042 699.658 378.757 698.541 378.757C697.628 378.757 696.752 378.891 695.915 379.16C695.077 379.428 694.271 379.745 693.498 380.11L692.273 377.403C693.24 376.898 694.298 376.517 695.447 376.259C696.597 375.991 697.682 375.856 698.702 375.856C700.969 375.856 702.677 376.351 703.826 377.339C704.986 378.327 705.566 379.879 705.566 381.996V394H702.859ZM697.22 391.422C698.595 391.422 699.696 391.041 700.523 390.278C701.361 389.504 701.78 388.425 701.78 387.039V385.492L699.492 385.589C697.708 385.653 696.409 385.954 695.592 386.491C694.787 387.018 694.384 387.829 694.384 388.924C694.384 389.719 694.62 390.337 695.093 390.777C695.565 391.207 696.274 391.422 697.22 391.422ZM717.49 391.261C718.414 391.261 719.338 391.116 720.262 390.826V393.678C719.843 393.86 719.3 394.011 718.634 394.129C717.979 394.258 717.297 394.322 716.588 394.322C713 394.322 711.206 392.432 711.206 388.65V379.047H708.773V377.371L711.383 375.985L712.672 372.215H715.009V376.179H720.084V379.047H715.009V388.586C715.009 389.499 715.234 390.176 715.686 390.616C716.147 391.046 716.749 391.261 717.49 391.261ZM731.622 394.322C728.85 394.322 726.68 393.517 725.112 391.905C723.554 390.283 722.775 388.054 722.775 385.218C722.775 382.307 723.5 380.019 724.951 378.354C726.401 376.689 728.394 375.856 730.929 375.856C733.281 375.856 735.14 376.571 736.504 378C737.868 379.428 738.55 381.394 738.55 383.897V385.943H726.675C726.729 387.673 727.196 389.005 728.077 389.939C728.958 390.863 730.198 391.325 731.799 391.325C732.852 391.325 733.829 391.229 734.731 391.035C735.645 390.831 736.622 390.498 737.664 390.036V393.114C736.74 393.554 735.806 393.866 734.86 394.048C733.915 394.231 732.835 394.322 731.622 394.322ZM730.929 378.725C729.726 378.725 728.759 379.106 728.028 379.869C727.309 380.631 726.879 381.743 726.739 383.204H734.828C734.807 381.732 734.452 380.621 733.765 379.869C733.077 379.106 732.132 378.725 730.929 378.725ZM758.531 394H754.728V383.043C754.728 381.668 754.449 380.642 753.89 379.965C753.342 379.289 752.467 378.95 751.264 378.95C749.663 378.95 748.492 379.423 747.751 380.368C747.01 381.313 746.639 382.898 746.639 385.122V394H742.853V376.179H745.817L746.349 378.515H746.542C747.08 377.667 747.842 377.011 748.831 376.549C749.819 376.087 750.915 375.856 752.118 375.856C756.393 375.856 758.531 378.032 758.531 382.382V394ZM770.986 394.322C768.29 394.322 766.238 393.538 764.831 391.97C763.435 390.391 762.736 388.129 762.736 385.186C762.736 382.189 763.467 379.885 764.928 378.273C766.399 376.662 768.521 375.856 771.292 375.856C773.172 375.856 774.864 376.206 776.368 376.904L775.224 379.949C773.624 379.326 772.302 379.015 771.26 379.015C768.177 379.015 766.636 381.061 766.636 385.154C766.636 387.152 767.017 388.656 767.78 389.666C768.553 390.665 769.681 391.164 771.164 391.164C772.85 391.164 774.445 390.745 775.949 389.907V393.21C775.272 393.608 774.547 393.893 773.774 394.064C773.011 394.236 772.082 394.322 770.986 394.322ZM783.925 394H780.139V376.179H783.925V394ZM779.913 371.458C779.913 370.781 780.096 370.26 780.461 369.895C780.837 369.529 781.369 369.347 782.056 369.347C782.722 369.347 783.238 369.529 783.603 369.895C783.979 370.26 784.167 370.781 784.167 371.458C784.167 372.102 783.979 372.612 783.603 372.988C783.238 373.354 782.722 373.536 782.056 373.536C781.369 373.536 780.837 373.354 780.461 372.988C780.096 372.612 779.913 372.102 779.913 371.458ZM805.163 385.057C805.163 387.968 804.416 390.24 802.923 391.873C801.43 393.506 799.351 394.322 796.687 394.322C795.022 394.322 793.55 393.946 792.272 393.194C790.994 392.442 790.011 391.363 789.323 389.956C788.636 388.548 788.292 386.916 788.292 385.057C788.292 382.167 789.033 379.912 790.516 378.29C791.998 376.667 794.087 375.856 796.784 375.856C799.362 375.856 801.403 376.689 802.907 378.354C804.411 380.008 805.163 382.243 805.163 385.057ZM792.191 385.057C792.191 389.171 793.711 391.229 796.751 391.229C799.759 391.229 801.263 389.171 801.263 385.057C801.263 380.986 799.749 378.95 796.719 378.95C795.129 378.95 793.975 379.477 793.255 380.529C792.546 381.582 792.191 383.091 792.191 385.057ZM794.27 374.003V373.601C794.882 372.849 795.511 372.011 796.155 371.087C796.811 370.163 797.326 369.374 797.702 368.718H802.101V369.057C801.542 369.712 800.705 370.561 799.587 371.603C798.481 372.634 797.546 373.434 796.784 374.003H794.27ZM825.208 394H821.405V383.043C821.405 381.668 821.125 380.642 820.567 379.965C820.019 379.289 819.144 378.95 817.94 378.95C816.34 378.95 815.169 379.423 814.428 380.368C813.687 381.313 813.316 382.898 813.316 385.122V394H809.529V376.179H812.494L813.026 378.515H813.219C813.756 377.667 814.519 377.011 815.507 376.549C816.496 376.087 817.591 375.856 818.794 375.856C823.07 375.856 825.208 378.032 825.208 382.382V394ZM833.748 386.846H830.944L830.106 370.442H834.569L833.748 386.846ZM829.913 391.986C829.913 391.191 830.122 390.589 830.541 390.181C830.96 389.762 831.556 389.553 832.33 389.553C833.092 389.553 833.678 389.768 834.086 390.197C834.494 390.627 834.698 391.223 834.698 391.986C834.698 392.749 834.489 393.355 834.07 393.807C833.662 394.247 833.082 394.467 832.33 394.467C831.567 394.467 830.971 394.252 830.541 393.823C830.122 393.393 829.913 392.781 829.913 391.986ZM538.456 454V430.442H542.307V450.697H552.281V454H538.456ZM567.089 454L566.332 451.519H566.203C565.343 452.604 564.479 453.345 563.608 453.742C562.738 454.129 561.621 454.322 560.257 454.322C558.506 454.322 557.136 453.85 556.148 452.904C555.17 451.959 554.682 450.622 554.682 448.892C554.682 447.055 555.364 445.669 556.728 444.735C558.092 443.8 560.171 443.29 562.964 443.204L566.042 443.107V442.157C566.042 441.018 565.773 440.169 565.236 439.611C564.709 439.042 563.888 438.757 562.771 438.757C561.857 438.757 560.982 438.891 560.144 439.16C559.306 439.428 558.5 439.745 557.727 440.11L556.502 437.403C557.469 436.898 558.527 436.517 559.677 436.259C560.826 435.991 561.911 435.856 562.932 435.856C565.198 435.856 566.906 436.351 568.056 437.339C569.216 438.327 569.796 439.879 569.796 441.996V454H567.089ZM561.449 451.422C562.824 451.422 563.925 451.041 564.752 450.278C565.59 449.504 566.009 448.425 566.009 447.039V445.492L563.721 445.589C561.938 445.653 560.638 445.954 559.822 446.491C559.016 447.018 558.613 447.829 558.613 448.924C558.613 449.719 558.85 450.337 559.322 450.777C559.795 451.207 560.504 451.422 561.449 451.422ZM587.053 448.924C587.053 450.665 586.419 452.002 585.152 452.937C583.884 453.86 582.069 454.322 579.706 454.322C577.332 454.322 575.425 453.962 573.985 453.243V449.972C576.08 450.938 578.03 451.422 579.834 451.422C582.166 451.422 583.331 450.718 583.331 449.311C583.331 448.86 583.202 448.484 582.944 448.183C582.687 447.882 582.262 447.571 581.671 447.249C581.081 446.926 580.259 446.561 579.206 446.153C577.154 445.358 575.763 444.563 575.033 443.768C574.313 442.973 573.953 441.942 573.953 440.674C573.953 439.149 574.565 437.967 575.79 437.129C577.025 436.281 578.701 435.856 580.817 435.856C582.912 435.856 584.894 436.281 586.763 437.129L585.539 439.981C583.616 439.187 581.999 438.789 580.688 438.789C578.69 438.789 577.691 439.358 577.691 440.497C577.691 441.056 577.949 441.528 578.465 441.915C578.991 442.302 580.13 442.833 581.881 443.51C583.353 444.08 584.421 444.601 585.087 445.073C585.753 445.546 586.248 446.094 586.57 446.717C586.892 447.329 587.053 448.065 587.053 448.924ZM608.774 454.322C606.518 454.322 604.767 453.511 603.521 451.889H603.295C603.446 453.393 603.521 454.306 603.521 454.628V461.928H599.734V436.179H602.796C602.882 436.512 603.059 437.307 603.328 438.563H603.521C604.703 436.759 606.475 435.856 608.838 435.856C611.062 435.856 612.792 436.662 614.027 438.273C615.273 439.885 615.896 442.146 615.896 445.057C615.896 447.968 615.262 450.24 613.995 451.873C612.738 453.506 610.998 454.322 608.774 454.322ZM607.855 438.95C606.352 438.95 605.25 439.391 604.552 440.271C603.865 441.152 603.521 442.56 603.521 444.493V445.057C603.521 447.227 603.865 448.801 604.552 449.778C605.24 450.745 606.362 451.229 607.92 451.229C609.23 451.229 610.24 450.691 610.949 449.617C611.658 448.543 612.013 447.012 612.013 445.025C612.013 443.027 611.658 441.518 610.949 440.497C610.251 439.466 609.22 438.95 607.855 438.95ZM631.445 454L630.688 451.519H630.559C629.7 452.604 628.835 453.345 627.965 453.742C627.095 454.129 625.978 454.322 624.613 454.322C622.862 454.322 621.493 453.85 620.504 452.904C619.527 451.959 619.038 450.622 619.038 448.892C619.038 447.055 619.72 445.669 621.084 444.735C622.449 443.8 624.527 443.29 627.32 443.204L630.398 443.107V442.157C630.398 441.018 630.129 440.169 629.592 439.611C629.066 439.042 628.244 438.757 627.127 438.757C626.214 438.757 625.338 438.891 624.5 439.16C623.663 439.428 622.857 439.745 622.083 440.11L620.859 437.403C621.826 436.898 622.884 436.517 624.033 436.259C625.183 435.991 626.268 435.856 627.288 435.856C629.555 435.856 631.263 436.351 632.412 437.339C633.572 438.327 634.152 439.879 634.152 441.996V454H631.445ZM625.806 451.422C627.181 451.422 628.282 451.041 629.109 450.278C629.947 449.504 630.366 448.425 630.366 447.039V445.492L628.078 445.589C626.294 445.653 624.995 445.954 624.178 446.491C623.373 447.018 622.97 447.829 622.97 448.924C622.97 449.719 623.206 450.337 623.679 450.777C624.151 451.207 624.86 451.422 625.806 451.422ZM643.224 454H639.438V428.928H643.224V454ZM659.805 454L659.047 451.519H658.918C658.059 452.604 657.194 453.345 656.324 453.742C655.454 454.129 654.337 454.322 652.973 454.322C651.222 454.322 649.852 453.85 648.864 452.904C647.886 451.959 647.397 450.622 647.397 448.892C647.397 447.055 648.08 445.669 649.444 444.735C650.808 443.8 652.887 443.29 655.68 443.204L658.757 443.107V442.157C658.757 441.018 658.489 440.169 657.952 439.611C657.425 439.042 656.604 438.757 655.486 438.757C654.573 438.757 653.698 438.891 652.86 439.16C652.022 439.428 651.216 439.745 650.443 440.11L649.218 437.403C650.185 436.898 651.243 436.517 652.393 436.259C653.542 435.991 654.627 435.856 655.647 435.856C657.914 435.856 659.622 436.351 660.771 437.339C661.932 438.327 662.512 439.879 662.512 441.996V454H659.805ZM654.165 451.422C655.54 451.422 656.641 451.041 657.468 450.278C658.306 449.504 658.725 448.425 658.725 447.039V445.492L656.437 445.589C654.654 445.653 653.354 445.954 652.538 446.491C651.732 447.018 651.329 447.829 651.329 448.924C651.329 449.719 651.565 450.337 652.038 450.777C652.511 451.207 653.22 451.422 654.165 451.422ZM676.901 435.856C679.125 435.856 680.854 436.662 682.089 438.273C683.335 439.885 683.958 442.146 683.958 445.057C683.958 447.979 683.33 450.256 682.073 451.889C680.816 453.511 679.071 454.322 676.836 454.322C674.581 454.322 672.83 453.511 671.583 451.889H671.326L670.633 454H667.797V428.928H671.583V434.89C671.583 435.33 671.562 435.985 671.519 436.855C671.476 437.726 671.444 438.279 671.422 438.515H671.583C672.787 436.743 674.559 435.856 676.901 435.856ZM675.918 438.95C674.393 438.95 673.292 439.401 672.615 440.304C671.949 441.195 671.605 442.694 671.583 444.799V445.057C671.583 447.227 671.927 448.801 672.615 449.778C673.302 450.745 674.425 451.229 675.982 451.229C677.325 451.229 678.34 450.697 679.028 449.633C679.726 448.57 680.075 447.034 680.075 445.025C680.075 440.975 678.689 438.95 675.918 438.95ZM697.397 435.856C698.16 435.856 698.788 435.91 699.282 436.018L698.912 439.546C698.375 439.417 697.816 439.353 697.236 439.353C695.721 439.353 694.491 439.847 693.546 440.835C692.611 441.824 692.144 443.107 692.144 444.687V454H688.357V436.179H691.322L691.822 439.321H692.015C692.606 438.257 693.374 437.414 694.319 436.791C695.275 436.168 696.301 435.856 697.397 435.856ZM713.752 454L712.995 451.519H712.866C712.006 452.604 711.142 453.345 710.271 453.742C709.401 454.129 708.284 454.322 706.92 454.322C705.169 454.322 703.799 453.85 702.811 452.904C701.833 451.959 701.345 450.622 701.345 448.892C701.345 447.055 702.027 445.669 703.391 444.735C704.755 443.8 706.834 443.29 709.627 443.204L712.705 443.107V442.157C712.705 441.018 712.436 440.169 711.899 439.611C711.373 439.042 710.551 438.757 709.434 438.757C708.521 438.757 707.645 438.891 706.807 439.16C705.969 439.428 705.164 439.745 704.39 440.11L703.166 437.403C704.132 436.898 705.19 436.517 706.34 436.259C707.489 435.991 708.574 435.856 709.595 435.856C711.861 435.856 713.569 436.351 714.719 437.339C715.879 438.327 716.459 439.879 716.459 441.996V454H713.752ZM708.112 451.422C709.487 451.422 710.588 451.041 711.416 450.278C712.253 449.504 712.672 448.425 712.672 447.039V445.492L710.384 445.589C708.601 445.653 707.301 445.954 706.485 446.491C705.679 447.018 705.276 447.829 705.276 448.924C705.276 449.719 705.513 450.337 705.985 450.777C706.458 451.207 707.167 451.422 708.112 451.422ZM733.716 448.924C733.716 450.665 733.083 452.002 731.815 452.937C730.547 453.86 728.732 454.322 726.369 454.322C723.995 454.322 722.088 453.962 720.648 453.243V449.972C722.743 450.938 724.693 451.422 726.498 451.422C728.829 451.422 729.994 450.718 729.994 449.311C729.994 448.86 729.865 448.484 729.607 448.183C729.35 447.882 728.925 447.571 728.334 447.249C727.744 446.926 726.922 446.561 725.869 446.153C723.817 445.358 722.426 444.563 721.696 443.768C720.976 442.973 720.616 441.942 720.616 440.674C720.616 439.149 721.229 437.967 722.453 437.129C723.688 436.281 725.364 435.856 727.48 435.856C729.575 435.856 731.557 436.281 733.426 437.129L732.202 439.981C730.279 439.187 728.662 438.789 727.352 438.789C725.354 438.789 724.354 439.358 724.354 440.497C724.354 441.056 724.612 441.528 725.128 441.915C725.654 442.302 726.793 442.833 728.544 443.51C730.016 444.08 731.084 444.601 731.75 445.073C732.417 445.546 732.911 446.094 733.233 446.717C733.555 447.329 733.716 448.065 733.716 448.924ZM758.37 448.924C758.37 450.665 757.736 452.002 756.468 452.937C755.201 453.86 753.385 454.322 751.022 454.322C748.648 454.322 746.741 453.962 745.302 453.243V449.972C747.396 450.938 749.346 451.422 751.151 451.422C753.482 451.422 754.647 450.718 754.647 449.311C754.647 448.86 754.519 448.484 754.261 448.183C754.003 447.882 753.579 447.571 752.988 447.249C752.397 446.926 751.575 446.561 750.522 446.153C748.471 445.358 747.08 444.563 746.349 443.768C745.629 442.973 745.27 441.942 745.27 440.674C745.27 439.149 745.882 437.967 747.106 437.129C748.342 436.281 750.018 435.856 752.134 435.856C754.229 435.856 756.21 436.281 758.08 437.129L756.855 439.981C754.932 439.187 753.315 438.789 752.005 438.789C750.007 438.789 749.008 439.358 749.008 440.497C749.008 441.056 749.266 441.528 749.781 441.915C750.308 442.302 751.446 442.833 753.197 443.51C754.669 444.08 755.738 444.601 756.404 445.073C757.07 445.546 757.564 446.094 757.886 446.717C758.208 447.329 758.37 448.065 758.37 448.924ZM778.286 445.057C778.286 447.968 777.539 450.24 776.046 451.873C774.553 453.506 772.474 454.322 769.81 454.322C768.145 454.322 766.673 453.946 765.395 453.194C764.117 452.442 763.134 451.363 762.446 449.956C761.759 448.548 761.415 446.916 761.415 445.057C761.415 442.167 762.156 439.912 763.639 438.29C765.121 436.667 767.21 435.856 769.907 435.856C772.485 435.856 774.526 436.689 776.03 438.354C777.534 440.008 778.286 442.243 778.286 445.057ZM765.314 445.057C765.314 449.171 766.834 451.229 769.875 451.229C772.882 451.229 774.386 449.171 774.386 445.057C774.386 440.986 772.872 438.95 769.842 438.95C768.252 438.95 767.098 439.477 766.378 440.529C765.669 441.582 765.314 443.091 765.314 445.057ZM798.331 454H794.528V443.043C794.528 441.668 794.249 440.642 793.69 439.965C793.142 439.289 792.267 438.95 791.063 438.95C789.463 438.95 788.292 439.423 787.551 440.368C786.81 441.313 786.439 442.898 786.439 445.122V454H782.652V436.179H785.617L786.149 438.515H786.342C786.879 437.667 787.642 437.011 788.63 436.549C789.619 436.087 790.714 435.856 791.917 435.856C796.193 435.856 798.331 438.032 798.331 442.382V454ZM827.189 454H823.387V443.011C823.387 441.646 823.129 440.631 822.613 439.965C822.098 439.289 821.292 438.95 820.196 438.95C818.735 438.95 817.661 439.428 816.974 440.384C816.297 441.33 815.958 442.909 815.958 445.122V454H812.172V436.179H815.137L815.668 438.515H815.862C816.356 437.667 817.07 437.011 818.005 436.549C818.95 436.087 819.987 435.856 821.115 435.856C823.854 435.856 825.669 436.791 826.561 438.66H826.819C827.345 437.779 828.086 437.092 829.042 436.598C829.999 436.104 831.094 435.856 832.33 435.856C834.457 435.856 836.003 436.394 836.97 437.468C837.948 438.542 838.437 440.18 838.437 442.382V454H834.65V443.011C834.65 441.646 834.387 440.631 833.86 439.965C833.345 439.289 832.539 438.95 831.443 438.95C829.972 438.95 828.892 439.412 828.205 440.336C827.528 441.249 827.189 442.656 827.189 444.558V454ZM856.29 454L855.758 451.664H855.565C855.039 452.491 854.287 453.141 853.309 453.613C852.342 454.086 851.236 454.322 849.99 454.322C847.831 454.322 846.219 453.785 845.156 452.711C844.092 451.637 843.561 450.009 843.561 447.829V436.179H847.379V447.168C847.379 448.532 847.659 449.558 848.217 450.246C848.776 450.922 849.651 451.261 850.844 451.261C852.434 451.261 853.599 450.788 854.34 449.843C855.092 448.887 855.468 447.292 855.468 445.057V436.179H859.271V454H856.29ZM861.962 436.179H866.087L869.712 446.282C870.26 447.721 870.625 449.075 870.808 450.342H870.937C871.034 449.751 871.211 449.037 871.469 448.199C871.727 447.351 873.091 443.344 875.562 436.179H879.654L872.033 456.369C870.647 460.075 868.337 461.928 865.104 461.928C864.266 461.928 863.45 461.836 862.655 461.654V458.657C863.224 458.786 863.874 458.85 864.604 458.85C866.431 458.85 867.714 457.792 868.456 455.676L869.116 454L861.962 436.179ZM548.285 493.924C548.285 495.665 547.651 497.002 546.383 497.937C545.116 498.86 543.3 499.322 540.937 499.322C538.563 499.322 536.656 498.962 535.217 498.243V494.972C537.312 495.938 539.261 496.422 541.066 496.422C543.397 496.422 544.562 495.718 544.562 494.311C544.562 493.86 544.434 493.484 544.176 493.183C543.918 492.882 543.494 492.571 542.903 492.249C542.312 491.926 541.49 491.561 540.438 491.153C538.386 490.358 536.995 489.563 536.264 488.768C535.544 487.973 535.185 486.942 535.185 485.674C535.185 484.149 535.797 482.967 537.021 482.129C538.257 481.281 539.933 480.856 542.049 480.856C544.144 480.856 546.125 481.281 547.995 482.129L546.77 484.981C544.847 484.187 543.23 483.789 541.92 483.789C539.922 483.789 538.923 484.358 538.923 485.497C538.923 486.056 539.181 486.528 539.696 486.915C540.223 487.302 541.361 487.833 543.112 488.51C544.584 489.08 545.653 489.601 546.319 490.073C546.985 490.546 547.479 491.094 547.801 491.717C548.124 492.329 548.285 493.065 548.285 493.924ZM556.18 499H552.394V481.179H556.18V499ZM552.168 476.458C552.168 475.781 552.351 475.26 552.716 474.895C553.092 474.529 553.624 474.347 554.311 474.347C554.977 474.347 555.493 474.529 555.858 474.895C556.234 475.26 556.422 475.781 556.422 476.458C556.422 477.102 556.234 477.612 555.858 477.988C555.493 478.354 554.977 478.536 554.311 478.536C553.624 478.536 553.092 478.354 552.716 477.988C552.351 477.612 552.168 477.102 552.168 476.458ZM576.628 499H572.825V488.011C572.825 486.646 572.567 485.631 572.052 484.965C571.536 484.289 570.73 483.95 569.635 483.95C568.174 483.95 567.1 484.428 566.412 485.384C565.735 486.33 565.397 487.909 565.397 490.122V499H561.61V481.179H564.575L565.107 483.515H565.3C565.794 482.667 566.509 482.011 567.443 481.549C568.389 481.087 569.425 480.856 570.553 480.856C573.292 480.856 575.108 481.791 576 483.66H576.257C576.784 482.779 577.525 482.092 578.481 481.598C579.437 481.104 580.533 480.856 581.768 480.856C583.895 480.856 585.442 481.394 586.409 482.468C587.386 483.542 587.875 485.18 587.875 487.382V499H584.088V488.011C584.088 486.646 583.825 485.631 583.299 484.965C582.783 484.289 581.978 483.95 580.882 483.95C579.41 483.95 578.331 484.412 577.643 485.336C576.966 486.249 576.628 487.656 576.628 489.558V499ZM596.947 499H593.16V481.179H596.947V499ZM592.935 476.458C592.935 475.781 593.117 475.26 593.482 474.895C593.858 474.529 594.39 474.347 595.078 474.347C595.744 474.347 596.259 474.529 596.625 474.895C597 475.26 597.188 475.781 597.188 476.458C597.188 477.102 597 477.612 596.625 477.988C596.259 478.354 595.744 478.536 595.078 478.536C594.39 478.536 593.858 478.354 593.482 477.988C593.117 477.612 592.935 477.102 592.935 476.458ZM606.164 499H602.377V473.928H606.164V499ZM622.744 499L621.987 496.519H621.858C620.999 497.604 620.134 498.345 619.264 498.742C618.394 499.129 617.276 499.322 615.912 499.322C614.161 499.322 612.792 498.85 611.803 497.904C610.826 496.959 610.337 495.622 610.337 493.892C610.337 492.055 611.019 490.669 612.383 489.735C613.748 488.8 615.826 488.29 618.619 488.204L621.697 488.107V487.157C621.697 486.018 621.428 485.169 620.891 484.611C620.365 484.042 619.543 483.757 618.426 483.757C617.513 483.757 616.637 483.891 615.799 484.16C614.961 484.428 614.156 484.745 613.382 485.11L612.158 482.403C613.125 481.898 614.183 481.517 615.332 481.259C616.481 480.991 617.566 480.856 618.587 480.856C620.854 480.856 622.562 481.351 623.711 482.339C624.871 483.327 625.451 484.879 625.451 486.996V499H622.744ZM617.104 496.422C618.479 496.422 619.581 496.041 620.408 495.278C621.246 494.504 621.665 493.425 621.665 492.039V490.492L619.376 490.589C617.593 490.653 616.293 490.954 615.477 491.491C614.671 492.018 614.269 492.829 614.269 493.924C614.269 494.719 614.505 495.337 614.978 495.777C615.45 496.207 616.159 496.422 617.104 496.422ZM639.776 480.856C640.539 480.856 641.167 480.91 641.661 481.018L641.291 484.546C640.753 484.417 640.195 484.353 639.615 484.353C638.1 484.353 636.87 484.847 635.925 485.835C634.99 486.824 634.523 488.107 634.523 489.687V499H630.736V481.179H633.701L634.201 484.321H634.394C634.985 483.257 635.753 482.414 636.698 481.791C637.654 481.168 638.68 480.856 639.776 480.856ZM652.763 499.322C649.992 499.322 647.822 498.517 646.253 496.905C644.696 495.283 643.917 493.054 643.917 490.218C643.917 487.307 644.642 485.019 646.092 483.354C647.542 481.689 649.535 480.856 652.07 480.856C654.423 480.856 656.281 481.571 657.646 483C659.01 484.428 659.692 486.394 659.692 488.897V490.943H647.816C647.87 492.673 648.337 494.005 649.218 494.939C650.099 495.863 651.34 496.325 652.94 496.325C653.993 496.325 654.971 496.229 655.873 496.035C656.786 495.831 657.764 495.498 658.806 495.036V498.114C657.882 498.554 656.947 498.866 656.002 499.048C655.057 499.231 653.977 499.322 652.763 499.322ZM652.07 483.725C650.867 483.725 649.9 484.106 649.17 484.869C648.45 485.631 648.021 486.743 647.881 488.204H655.97C655.948 486.732 655.594 485.621 654.906 484.869C654.219 484.106 653.273 483.725 652.07 483.725ZM675.966 493.924C675.966 495.665 675.333 497.002 674.065 497.937C672.797 498.86 670.982 499.322 668.619 499.322C666.245 499.322 664.338 498.962 662.898 498.243V494.972C664.993 495.938 666.943 496.422 668.748 496.422C671.079 496.422 672.244 495.718 672.244 494.311C672.244 493.86 672.115 493.484 671.857 493.183C671.6 492.882 671.175 492.571 670.584 492.249C669.994 491.926 669.172 491.561 668.119 491.153C666.067 490.358 664.676 489.563 663.946 488.768C663.226 487.973 662.866 486.942 662.866 485.674C662.866 484.149 663.479 482.967 664.703 482.129C665.938 481.281 667.614 480.856 669.73 480.856C671.825 480.856 673.807 481.281 675.676 482.129L674.452 484.981C672.529 484.187 670.912 483.789 669.602 483.789C667.604 483.789 666.604 484.358 666.604 485.497C666.604 486.056 666.862 486.528 667.378 486.915C667.904 487.302 669.043 487.833 670.794 488.51C672.266 489.08 673.334 489.601 674 490.073C674.667 490.546 675.161 491.094 675.483 491.717C675.805 492.329 675.966 493.065 675.966 493.924ZM685.94 481.179H690.065L693.691 491.282C694.239 492.721 694.604 494.075 694.787 495.342H694.916C695.012 494.751 695.189 494.037 695.447 493.199C695.705 492.351 697.069 488.344 699.54 481.179H703.633L696.011 501.369C694.625 505.075 692.316 506.928 689.083 506.928C688.245 506.928 687.428 506.836 686.633 506.654V503.657C687.203 503.786 687.853 503.85 688.583 503.85C690.409 503.85 691.693 502.792 692.434 500.676L693.095 499L685.94 481.179ZM718.699 499H714.912V473.928H718.699V499ZM735.279 499L734.522 496.519H734.393C733.534 497.604 732.669 498.345 731.799 498.742C730.929 499.129 729.812 499.322 728.447 499.322C726.696 499.322 725.327 498.85 724.338 497.904C723.361 496.959 722.872 495.622 722.872 493.892C722.872 492.055 723.554 490.669 724.918 489.735C726.283 488.8 728.361 488.29 731.154 488.204L734.232 488.107V487.157C734.232 486.018 733.963 485.169 733.426 484.611C732.9 484.042 732.078 483.757 730.961 483.757C730.048 483.757 729.172 483.891 728.334 484.16C727.497 484.428 726.691 484.745 725.917 485.11L724.693 482.403C725.66 481.898 726.718 481.517 727.867 481.259C729.017 480.991 730.102 480.856 731.122 480.856C733.389 480.856 735.097 481.351 736.246 482.339C737.406 483.327 737.986 484.879 737.986 486.996V499H735.279ZM729.64 496.422C731.015 496.422 732.116 496.041 732.943 495.278C733.781 494.504 734.2 493.425 734.2 492.039V490.492L731.912 490.589C730.128 490.653 728.829 490.954 728.012 491.491C727.207 492.018 726.804 492.829 726.804 493.924C726.804 494.719 727.04 495.337 727.513 495.777C727.985 496.207 728.694 496.422 729.64 496.422ZM755.244 493.924C755.244 495.665 754.61 497.002 753.342 497.937C752.075 498.86 750.259 499.322 747.896 499.322C745.522 499.322 743.615 498.962 742.176 498.243V494.972C744.271 495.938 746.22 496.422 748.025 496.422C750.356 496.422 751.521 495.718 751.521 494.311C751.521 493.86 751.393 493.484 751.135 493.183C750.877 492.882 750.453 492.571 749.862 492.249C749.271 491.926 748.449 491.561 747.396 491.153C745.345 490.358 743.954 489.563 743.223 488.768C742.503 487.973 742.144 486.942 742.144 485.674C742.144 484.149 742.756 482.967 743.98 482.129C745.216 481.281 746.892 480.856 749.008 480.856C751.103 480.856 753.084 481.281 754.954 482.129L753.729 484.981C751.806 484.187 750.189 483.789 748.879 483.789C746.881 483.789 745.882 484.358 745.882 485.497C745.882 486.056 746.14 486.528 746.655 486.915C747.182 487.302 748.32 487.833 750.071 488.51C751.543 489.08 752.612 489.601 753.278 490.073C753.944 490.546 754.438 491.094 754.76 491.717C755.083 492.329 755.244 493.065 755.244 493.924ZM776.964 499.322C774.708 499.322 772.958 498.511 771.711 496.889H771.486C771.636 498.393 771.711 499.306 771.711 499.628V506.928H767.925V481.179H770.986C771.072 481.512 771.25 482.307 771.518 483.563H771.711C772.893 481.759 774.666 480.856 777.029 480.856C779.252 480.856 780.982 481.662 782.217 483.273C783.463 484.885 784.086 487.146 784.086 490.057C784.086 492.968 783.453 495.24 782.185 496.873C780.928 498.506 779.188 499.322 776.964 499.322ZM776.046 483.95C774.542 483.95 773.441 484.391 772.743 485.271C772.055 486.152 771.711 487.56 771.711 489.493V490.057C771.711 492.227 772.055 493.801 772.743 494.778C773.43 495.745 774.553 496.229 776.11 496.229C777.421 496.229 778.431 495.691 779.14 494.617C779.849 493.543 780.203 492.012 780.203 490.025C780.203 488.027 779.849 486.518 779.14 485.497C778.441 484.466 777.41 483.95 776.046 483.95ZM801.054 499L800.522 496.664H800.329C799.802 497.491 799.05 498.141 798.073 498.613C797.106 499.086 796 499.322 794.753 499.322C792.594 499.322 790.983 498.785 789.919 497.711C788.856 496.637 788.324 495.009 788.324 492.829V481.179H792.143V492.168C792.143 493.532 792.422 494.558 792.981 495.246C793.54 495.922 794.415 496.261 795.607 496.261C797.197 496.261 798.363 495.788 799.104 494.843C799.856 493.887 800.232 492.292 800.232 490.057V481.179H804.035V499H801.054ZM817.215 499.322C814.444 499.322 812.274 498.517 810.706 496.905C809.148 495.283 808.369 493.054 808.369 490.218C808.369 487.307 809.094 485.019 810.544 483.354C811.995 481.689 813.987 480.856 816.522 480.856C818.875 480.856 820.733 481.571 822.098 483C823.462 484.428 824.144 486.394 824.144 488.897V490.943H812.269C812.322 492.673 812.79 494.005 813.67 494.939C814.551 495.863 815.792 496.325 817.393 496.325C818.445 496.325 819.423 496.229 820.325 496.035C821.238 495.831 822.216 495.498 823.258 495.036V498.114C822.334 498.554 821.399 498.866 820.454 499.048C819.509 499.231 818.429 499.322 817.215 499.322ZM816.522 483.725C815.319 483.725 814.353 484.106 813.622 484.869C812.902 485.631 812.473 486.743 812.333 488.204H820.422C820.4 486.732 820.046 485.621 819.358 484.869C818.671 484.106 817.726 483.725 816.522 483.725ZM834.457 499.322C832.233 499.322 830.498 498.517 829.252 496.905C828.006 495.294 827.383 493.033 827.383 490.122C827.383 487.2 828.011 484.928 829.268 483.306C830.536 481.673 832.287 480.856 834.521 480.856C836.863 480.856 838.646 481.721 839.871 483.451H840.064C839.881 482.172 839.79 481.163 839.79 480.421V473.928H843.593V499H840.628L839.967 496.664H839.79C838.576 498.436 836.798 499.322 834.457 499.322ZM835.472 496.261C837.029 496.261 838.163 495.826 838.872 494.956C839.581 494.075 839.946 492.651 839.967 490.686V490.154C839.967 487.909 839.602 486.313 838.872 485.368C838.141 484.423 836.997 483.95 835.439 483.95C834.107 483.95 833.082 484.493 832.362 485.578C831.642 486.652 831.282 488.188 831.282 490.186C831.282 492.163 831.631 493.672 832.33 494.714C833.028 495.745 834.075 496.261 835.472 496.261ZM856.79 499.322C854.018 499.322 851.848 498.517 850.28 496.905C848.722 495.283 847.943 493.054 847.943 490.218C847.943 487.307 848.668 485.019 850.119 483.354C851.569 481.689 853.562 480.856 856.097 480.856C858.449 480.856 860.308 481.571 861.672 483C863.036 484.428 863.718 486.394 863.718 488.897V490.943H851.843C851.896 492.673 852.364 494.005 853.245 494.939C854.125 495.863 855.366 496.325 856.967 496.325C858.02 496.325 858.997 496.229 859.899 496.035C860.812 495.831 861.79 495.498 862.832 495.036V498.114C861.908 498.554 860.974 498.866 860.028 499.048C859.083 499.231 858.003 499.322 856.79 499.322ZM856.097 483.725C854.894 483.725 853.927 484.106 853.196 484.869C852.477 485.631 852.047 486.743 851.907 488.204H859.996C859.975 486.732 859.62 485.621 858.933 484.869C858.245 484.106 857.3 483.725 856.097 483.725ZM879.993 493.924C879.993 495.665 879.359 497.002 878.091 497.937C876.824 498.86 875.008 499.322 872.645 499.322C870.271 499.322 868.364 498.962 866.925 498.243V494.972C869.02 495.938 870.969 496.422 872.774 496.422C875.105 496.422 876.271 495.718 876.271 494.311C876.271 493.86 876.142 493.484 875.884 493.183C875.626 492.882 875.202 492.571 874.611 492.249C874.02 491.926 873.198 491.561 872.146 491.153C870.094 490.358 868.703 489.563 867.972 488.768C867.252 487.973 866.893 486.942 866.893 485.674C866.893 484.149 867.505 482.967 868.729 482.129C869.965 481.281 871.641 480.856 873.757 480.856C875.852 480.856 877.833 481.281 879.703 482.129L878.478 484.981C876.555 484.187 874.938 483.789 873.628 483.789C871.63 483.789 870.631 484.358 870.631 485.497C870.631 486.056 870.889 486.528 871.404 486.915C871.931 487.302 873.069 487.833 874.82 488.51C876.292 489.08 877.361 489.601 878.027 490.073C878.693 490.546 879.187 491.094 879.509 491.717C879.832 492.329 879.993 493.065 879.993 493.924ZM635.167 544.322C632.471 544.322 630.419 543.538 629.012 541.97C627.616 540.391 626.917 538.129 626.917 535.186C626.917 532.189 627.648 529.885 629.109 528.273C630.581 526.662 632.702 525.856 635.474 525.856C637.354 525.856 639.045 526.206 640.549 526.904L639.405 529.949C637.805 529.326 636.483 529.015 635.441 529.015C632.358 529.015 630.817 531.061 630.817 535.154C630.817 537.152 631.198 538.656 631.961 539.666C632.734 540.665 633.862 541.164 635.345 541.164C637.031 541.164 638.626 540.745 640.13 539.907V543.21C639.454 543.608 638.729 543.893 637.955 544.064C637.192 544.236 636.263 544.322 635.167 544.322ZM660.127 535.057C660.127 537.968 659.38 540.24 657.887 541.873C656.394 543.506 654.315 544.322 651.651 544.322C649.986 544.322 648.515 543.946 647.236 543.194C645.958 542.442 644.975 541.363 644.288 539.956C643.6 538.548 643.256 536.916 643.256 535.057C643.256 532.167 643.998 529.912 645.48 528.29C646.962 526.667 649.052 525.856 651.748 525.856C654.326 525.856 656.367 526.689 657.871 528.354C659.375 530.008 660.127 532.243 660.127 535.057ZM647.156 535.057C647.156 539.171 648.676 541.229 651.716 541.229C654.724 541.229 656.228 539.171 656.228 535.057C656.228 530.986 654.713 528.95 651.684 528.95C650.094 528.95 648.939 529.477 648.219 530.529C647.51 531.582 647.156 533.091 647.156 535.057ZM680.172 544H676.369V533.043C676.369 531.668 676.09 530.642 675.531 529.965C674.983 529.289 674.108 528.95 672.905 528.95C671.304 528.95 670.133 529.423 669.392 530.368C668.651 531.313 668.28 532.898 668.28 535.122V544H664.494V526.179H667.458L667.99 528.515H668.184C668.721 527.667 669.483 527.011 670.472 526.549C671.46 526.087 672.556 525.856 673.759 525.856C678.034 525.856 680.172 528.032 680.172 532.382V544ZM694.384 529.047H690.033V544H686.23V529.047H683.298V527.274L686.23 526.114V524.954C686.23 522.849 686.725 521.291 687.713 520.281C688.701 519.261 690.21 518.75 692.241 518.75C693.573 518.75 694.883 518.971 696.172 519.411L695.173 522.279C694.239 521.979 693.347 521.828 692.499 521.828C691.639 521.828 691.011 522.097 690.613 522.634C690.227 523.16 690.033 523.955 690.033 525.019V526.179H694.384V529.047ZM709.998 544L709.466 541.664H709.272C708.746 542.491 707.994 543.141 707.017 543.613C706.05 544.086 704.943 544.322 703.697 544.322C701.538 544.322 699.927 543.785 698.863 542.711C697.8 541.637 697.268 540.009 697.268 537.829V526.179H701.087V537.168C701.087 538.532 701.366 539.558 701.925 540.246C702.483 540.922 703.359 541.261 704.551 541.261C706.141 541.261 707.307 540.788 708.048 539.843C708.8 538.887 709.176 537.292 709.176 535.057V526.179H712.979V544H709.998ZM734.055 544H730.252V533.043C730.252 531.668 729.973 530.642 729.414 529.965C728.866 529.289 727.991 528.95 726.788 528.95C725.187 528.95 724.016 529.423 723.275 530.368C722.534 531.313 722.163 532.898 722.163 535.122V544H718.376V526.179H721.341L721.873 528.515H722.066C722.604 527.667 723.366 527.011 724.354 526.549C725.343 526.087 726.438 525.856 727.642 525.856C731.917 525.856 734.055 528.032 734.055 532.382V544ZM745.334 544.322C743.11 544.322 741.375 543.517 740.129 541.905C738.883 540.294 738.26 538.033 738.26 535.122C738.26 532.2 738.889 529.928 740.146 528.306C741.413 526.673 743.164 525.856 745.398 525.856C747.74 525.856 749.523 526.721 750.748 528.451H750.941C750.759 527.172 750.667 526.163 750.667 525.421V518.928H754.47V544H751.505L750.845 541.664H750.667C749.454 543.436 747.676 544.322 745.334 544.322ZM746.349 541.261C747.907 541.261 749.04 540.826 749.749 539.956C750.458 539.075 750.823 537.651 750.845 535.686V535.154C750.845 532.909 750.479 531.313 749.749 530.368C749.019 529.423 747.875 528.95 746.317 528.95C744.985 528.95 743.959 529.493 743.239 530.578C742.52 531.652 742.16 533.188 742.16 535.186C742.16 537.163 742.509 538.672 743.207 539.714C743.905 540.745 744.953 541.261 746.349 541.261ZM763.671 544H759.884V526.179H763.671V544ZM759.659 521.458C759.659 520.781 759.841 520.26 760.207 519.895C760.583 519.529 761.114 519.347 761.802 519.347C762.468 519.347 762.983 519.529 763.349 519.895C763.725 520.26 763.913 520.781 763.913 521.458C763.913 522.102 763.725 522.612 763.349 522.988C762.983 523.354 762.468 523.536 761.802 523.536C761.114 523.536 760.583 523.354 760.207 522.988C759.841 522.612 759.659 522.102 759.659 521.458ZM778.141 525.856C778.903 525.856 779.532 525.91 780.026 526.018L779.655 529.546C779.118 529.417 778.56 529.353 777.979 529.353C776.465 529.353 775.235 529.847 774.29 530.835C773.355 531.824 772.888 533.107 772.888 534.687V544H769.101V526.179H772.066L772.565 529.321H772.759C773.35 528.257 774.118 527.414 775.063 526.791C776.019 526.168 777.045 525.856 778.141 525.856ZM782.781 541.986C782.781 541.202 782.985 540.6 783.394 540.181C783.802 539.762 784.393 539.553 785.166 539.553C785.95 539.553 786.546 539.773 786.955 540.213C787.363 540.643 787.567 541.234 787.567 541.986C787.567 542.749 787.357 543.355 786.938 543.807C786.53 544.247 785.939 544.467 785.166 544.467C784.393 544.467 783.802 544.247 783.394 543.807C782.985 543.366 782.781 542.759 782.781 541.986Z" fill="white"/>
<path d="M73.7842 22.6914V15.6028L67.7316 19.1842C67.3351 19.504 66.8542 19.3428 66.6163 18.9489L65.419 16.7156C65.1837 16.3165 65.263 15.8407 65.7388 15.6028L71.7965 12.2593L65.7388 8.7521C65.263 8.51163 65.1837 8.03583 65.419 7.63676L66.6163 5.4035C66.8542 5.00955 67.3351 4.84838 67.7316 5.16815L73.7842 8.83142V1.66096C73.7842 1.18003 74.1039 0.86792 74.5823 0.86792H76.9716C77.4525 0.86792 77.7672 1.18258 77.7672 1.66096L77.6853 8.83142L83.8223 5.16815C84.2188 4.84838 84.6972 5.00955 84.9351 5.4035L86.1297 7.63676C86.3702 8.03583 86.2909 8.51163 85.81 8.7521L79.76 12.2593L85.81 15.6028C86.2909 15.8407 86.3702 16.3165 86.1297 16.7156L84.9351 18.9489C84.6972 19.3428 84.2188 19.504 83.8223 19.1842L77.6853 15.6028L77.7672 22.6914C77.7672 23.1672 77.4525 23.487 76.9716 23.487H74.5823C74.1039 23.487 73.7842 23.1672 73.7842 22.6914Z" fill="#2BB673"/>
<path d="M117.023 15.4414C117.023 16.9492 116.477 18.125 115.383 18.9688C114.289 19.8125 112.805 20.2344 110.93 20.2344C108.898 20.2344 107.336 19.9727 106.242 19.4492V17.5273C106.945 17.8242 107.711 18.0586 108.539 18.2305C109.367 18.4023 110.188 18.4883 111 18.4883C112.328 18.4883 113.328 18.2383 114 17.7383C114.672 17.2305 115.008 16.5273 115.008 15.6289C115.008 15.0352 114.887 14.5508 114.645 14.1758C114.41 13.793 114.012 13.4414 113.449 13.1211C112.895 12.8008 112.047 12.4375 110.906 12.0312C109.312 11.4609 108.172 10.7852 107.484 10.0039C106.805 9.22266 106.465 8.20312 106.465 6.94531C106.465 5.625 106.961 4.57422 107.953 3.79297C108.945 3.01172 110.258 2.62109 111.891 2.62109C113.594 2.62109 115.16 2.93359 116.59 3.55859L115.969 5.29297C114.555 4.69922 113.18 4.40234 111.844 4.40234C110.789 4.40234 109.965 4.62891 109.371 5.08203C108.777 5.53516 108.48 6.16406 108.48 6.96875C108.48 7.5625 108.59 8.05078 108.809 8.43359C109.027 8.80859 109.395 9.15625 109.91 9.47656C110.434 9.78906 111.23 10.1367 112.301 10.5195C114.098 11.1602 115.332 11.8477 116.004 12.582C116.684 13.3164 117.023 14.2695 117.023 15.4414ZM125.66 20.2344C123.762 20.2344 122.262 19.6562 121.16 18.5C120.066 17.3438 119.52 15.7383 119.52 13.6836C119.52 11.6133 120.027 9.96875 121.043 8.75C122.066 7.53125 123.438 6.92188 125.156 6.92188C126.766 6.92188 128.039 7.45312 128.977 8.51562C129.914 9.57031 130.383 10.9648 130.383 12.6992V13.9297H121.535C121.574 15.4375 121.953 16.582 122.672 17.3633C123.398 18.1445 124.418 18.5352 125.73 18.5352C127.113 18.5352 128.48 18.2461 129.832 17.668V19.4023C129.145 19.6992 128.492 19.9102 127.875 20.0352C127.266 20.168 126.527 20.2344 125.66 20.2344ZM125.133 8.55078C124.102 8.55078 123.277 8.88672 122.66 9.55859C122.051 10.2305 121.691 11.1602 121.582 12.3477H128.297C128.297 11.1211 128.023 10.1836 127.477 9.53516C126.93 8.87891 126.148 8.55078 125.133 8.55078ZM142.5 20V11.6914C142.5 10.6445 142.262 9.86328 141.785 9.34766C141.309 8.83203 140.562 8.57422 139.547 8.57422C138.203 8.57422 137.219 8.9375 136.594 9.66406C135.969 10.3906 135.656 11.5898 135.656 13.2617V20H133.711V7.15625H135.293L135.609 8.91406H135.703C136.102 8.28125 136.66 7.79297 137.379 7.44922C138.098 7.09766 138.898 6.92188 139.781 6.92188C141.328 6.92188 142.492 7.29688 143.273 8.04688C144.055 8.78906 144.445 9.98047 144.445 11.6211V20H142.5ZM141.047 5.43359C140.711 5.43359 140.383 5.36328 140.062 5.22266C139.742 5.07422 139.426 4.91406 139.113 4.74219C138.809 4.5625 138.512 4.40234 138.223 4.26172C137.941 4.11328 137.668 4.03906 137.402 4.03906C137.012 4.03906 136.715 4.15625 136.512 4.39062C136.316 4.625 136.164 4.98047 136.055 5.45703H134.906C135.008 4.51172 135.281 3.77344 135.727 3.24219C136.18 2.70312 136.762 2.43359 137.473 2.43359C137.832 2.43359 138.18 2.50781 138.516 2.65625C138.852 2.79688 139.172 2.95703 139.477 3.13672C139.781 3.30859 140.074 3.46875 140.355 3.61719C140.637 3.75781 140.902 3.82812 141.152 3.82812C141.535 3.82812 141.82 3.71484 142.008 3.48828C142.195 3.25391 142.348 2.89453 142.465 2.41016H143.625C143.523 3.35547 143.25 4.09766 142.805 4.63672C142.367 5.16797 141.781 5.43359 141.047 5.43359ZM156.352 20L155.965 18.1719H155.871C155.23 18.9766 154.59 19.5234 153.949 19.8125C153.316 20.0938 152.523 20.2344 151.57 20.2344C150.297 20.2344 149.297 19.9062 148.57 19.25C147.852 18.5938 147.492 17.6602 147.492 16.4492C147.492 13.8555 149.566 12.4961 153.715 12.3711L155.895 12.3008V11.5039C155.895 10.4961 155.676 9.75391 155.238 9.27734C154.809 8.79297 154.117 8.55078 153.164 8.55078C152.094 8.55078 150.883 8.87891 149.531 9.53516L148.934 8.04688C149.566 7.70312 150.258 7.43359 151.008 7.23828C151.766 7.04297 152.523 6.94531 153.281 6.94531C154.812 6.94531 155.945 7.28516 156.68 7.96484C157.422 8.64453 157.793 9.73438 157.793 11.2344V20H156.352ZM151.957 18.6289C153.168 18.6289 154.117 18.2969 154.805 17.6328C155.5 16.9688 155.848 16.0391 155.848 14.8438V13.6836L153.902 13.7656C152.355 13.8203 151.238 14.0625 150.551 14.4922C149.871 14.9141 149.531 15.5742 149.531 16.4727C149.531 17.1758 149.742 17.7109 150.164 18.0781C150.594 18.4453 151.191 18.6289 151.957 18.6289ZM163.758 20H161.812V1.76562H163.758V20ZM175.781 20L175.395 18.1719H175.301C174.66 18.9766 174.02 19.5234 173.379 19.8125C172.746 20.0938 171.953 20.2344 171 20.2344C169.727 20.2344 168.727 19.9062 168 19.25C167.281 18.5938 166.922 17.6602 166.922 16.4492C166.922 13.8555 168.996 12.4961 173.145 12.3711L175.324 12.3008V11.5039C175.324 10.4961 175.105 9.75391 174.668 9.27734C174.238 8.79297 173.547 8.55078 172.594 8.55078C171.523 8.55078 170.312 8.87891 168.961 9.53516L168.363 8.04688C168.996 7.70312 169.688 7.43359 170.438 7.23828C171.195 7.04297 171.953 6.94531 172.711 6.94531C174.242 6.94531 175.375 7.28516 176.109 7.96484C176.852 8.64453 177.223 9.73438 177.223 11.2344V20H175.781ZM171.387 18.6289C172.598 18.6289 173.547 18.2969 174.234 17.6328C174.93 16.9688 175.277 16.0391 175.277 14.8438V13.6836L173.332 13.7656C171.785 13.8203 170.668 14.0625 169.98 14.4922C169.301 14.9141 168.961 15.5742 168.961 16.4727C168.961 17.1758 169.172 17.7109 169.594 18.0781C170.023 18.4453 170.621 18.6289 171.387 18.6289ZM196.219 18.2773H196.113C195.215 19.582 193.871 20.2344 192.082 20.2344C190.402 20.2344 189.094 19.6602 188.156 18.5117C187.227 17.3633 186.762 15.7305 186.762 13.6133C186.762 11.4961 187.23 9.85156 188.168 8.67969C189.105 7.50781 190.41 6.92188 192.082 6.92188C193.824 6.92188 195.16 7.55469 196.09 8.82031H196.242L196.16 7.89453L196.113 6.99219V1.76562H198.059V20H196.477L196.219 18.2773ZM192.328 18.6055C193.656 18.6055 194.617 18.2461 195.211 17.5273C195.812 16.8008 196.113 15.6328 196.113 14.0234V13.6133C196.113 11.793 195.809 10.4961 195.199 9.72266C194.598 8.94141 193.633 8.55078 192.305 8.55078C191.164 8.55078 190.289 8.99609 189.68 9.88672C189.078 10.7695 188.777 12.0195 188.777 13.6367C188.777 15.2773 189.078 16.5156 189.68 17.3516C190.281 18.1875 191.164 18.6055 192.328 18.6055ZM213.281 13.5664C213.281 15.6602 212.754 17.2969 211.699 18.4766C210.645 19.6484 209.188 20.2344 207.328 20.2344C206.18 20.2344 205.16 19.9648 204.27 19.4258C203.379 18.8867 202.691 18.1133 202.207 17.1055C201.723 16.0977 201.48 14.918 201.48 13.5664C201.48 11.4727 202.004 9.84375 203.051 8.67969C204.098 7.50781 205.551 6.92188 207.41 6.92188C209.207 6.92188 210.633 7.51953 211.688 8.71484C212.75 9.91016 213.281 11.5273 213.281 13.5664ZM203.496 13.5664C203.496 15.207 203.824 16.457 204.48 17.3164C205.137 18.1758 206.102 18.6055 207.375 18.6055C208.648 18.6055 209.613 18.1797 210.27 17.3281C210.934 16.4688 211.266 15.2148 211.266 13.5664C211.266 11.9336 210.934 10.6953 210.27 9.85156C209.613 9 208.641 8.57422 207.352 8.57422C206.078 8.57422 205.117 8.99219 204.469 9.82812C203.82 10.6641 203.496 11.9102 203.496 13.5664ZM205.746 5.16406C206.121 4.67969 206.523 4.09375 206.953 3.40625C207.391 2.71875 207.734 2.12109 207.984 1.61328H210.352V1.85938C210.008 2.36719 209.496 2.99219 208.816 3.73438C208.137 4.47656 207.547 5.05078 207.047 5.45703H205.746V5.16406ZM225.492 20V11.6914C225.492 10.6445 225.254 9.86328 224.777 9.34766C224.301 8.83203 223.555 8.57422 222.539 8.57422C221.195 8.57422 220.211 8.9375 219.586 9.66406C218.961 10.3906 218.648 11.5898 218.648 13.2617V20H216.703V7.15625H218.285L218.602 8.91406H218.695C219.094 8.28125 219.652 7.79297 220.371 7.44922C221.09 7.09766 221.891 6.92188 222.773 6.92188C224.32 6.92188 225.484 7.29688 226.266 8.04688C227.047 8.78906 227.438 9.98047 227.438 11.6211V20H225.492ZM240.188 18.2773H240.082C239.184 19.582 237.84 20.2344 236.051 20.2344C234.371 20.2344 233.062 19.6602 232.125 18.5117C231.195 17.3633 230.73 15.7305 230.73 13.6133C230.73 11.4961 231.199 9.85156 232.137 8.67969C233.074 7.50781 234.379 6.92188 236.051 6.92188C237.793 6.92188 239.129 7.55469 240.059 8.82031H240.211L240.129 7.89453L240.082 6.99219V1.76562H242.027V20H240.445L240.188 18.2773ZM236.297 18.6055C237.625 18.6055 238.586 18.2461 239.18 17.5273C239.781 16.8008 240.082 15.6328 240.082 14.0234V13.6133C240.082 11.793 239.777 10.4961 239.168 9.72266C238.566 8.94141 237.602 8.55078 236.273 8.55078C235.133 8.55078 234.258 8.99609 233.648 9.88672C233.047 10.7695 232.746 12.0195 232.746 13.6367C232.746 15.2773 233.047 16.5156 233.648 17.3516C234.25 18.1875 235.133 18.6055 236.297 18.6055ZM251.59 20.2344C249.691 20.2344 248.191 19.6562 247.09 18.5C245.996 17.3438 245.449 15.7383 245.449 13.6836C245.449 11.6133 245.957 9.96875 246.973 8.75C247.996 7.53125 249.367 6.92188 251.086 6.92188C252.695 6.92188 253.969 7.45312 254.906 8.51562C255.844 9.57031 256.312 10.9648 256.312 12.6992V13.9297H247.465C247.504 15.4375 247.883 16.582 248.602 17.3633C249.328 18.1445 250.348 18.5352 251.66 18.5352C253.043 18.5352 254.41 18.2461 255.762 17.668V19.4023C255.074 19.6992 254.422 19.9102 253.805 20.0352C253.195 20.168 252.457 20.2344 251.59 20.2344ZM251.062 8.55078C250.031 8.55078 249.207 8.88672 248.59 9.55859C247.98 10.2305 247.621 11.1602 247.512 12.3477H254.227C254.227 11.1211 253.953 10.1836 253.406 9.53516C252.859 8.87891 252.078 8.55078 251.062 8.55078ZM271.301 20.2344C269.402 20.2344 267.902 19.6562 266.801 18.5C265.707 17.3438 265.16 15.7383 265.16 13.6836C265.16 11.6133 265.668 9.96875 266.684 8.75C267.707 7.53125 269.078 6.92188 270.797 6.92188C272.406 6.92188 273.68 7.45312 274.617 8.51562C275.555 9.57031 276.023 10.9648 276.023 12.6992V13.9297H267.176C267.215 15.4375 267.594 16.582 268.312 17.3633C269.039 18.1445 270.059 18.5352 271.371 18.5352C272.754 18.5352 274.121 18.2461 275.473 17.668V19.4023C274.785 19.6992 274.133 19.9102 273.516 20.0352C272.906 20.168 272.168 20.2344 271.301 20.2344ZM270.773 8.55078C269.742 8.55078 268.918 8.88672 268.301 9.55859C267.691 10.2305 267.332 11.1602 267.223 12.3477H273.938C273.938 11.1211 273.664 10.1836 273.117 9.53516C272.57 8.87891 271.789 8.55078 270.773 8.55078ZM287.637 16.4961C287.637 17.6914 287.191 18.6133 286.301 19.2617C285.41 19.9102 284.16 20.2344 282.551 20.2344C280.848 20.2344 279.52 19.9648 278.566 19.4258V17.6211C279.184 17.9336 279.844 18.1797 280.547 18.3594C281.258 18.5391 281.941 18.6289 282.598 18.6289C283.613 18.6289 284.395 18.4688 284.941 18.1484C285.488 17.8203 285.762 17.3242 285.762 16.6602C285.762 16.1602 285.543 15.7344 285.105 15.3828C284.676 15.0234 283.832 14.6016 282.574 14.1172C281.379 13.6719 280.527 13.2852 280.02 12.957C279.52 12.6211 279.145 12.2422 278.895 11.8203C278.652 11.3984 278.531 10.8945 278.531 10.3086C278.531 9.26172 278.957 8.4375 279.809 7.83594C280.66 7.22656 281.828 6.92188 283.312 6.92188C284.695 6.92188 286.047 7.20312 287.367 7.76562L286.676 9.34766C285.387 8.81641 284.219 8.55078 283.172 8.55078C282.25 8.55078 281.555 8.69531 281.086 8.98438C280.617 9.27344 280.383 9.67188 280.383 10.1797C280.383 10.5234 280.469 10.8164 280.641 11.0586C280.82 11.3008 281.105 11.5312 281.496 11.75C281.887 11.9688 282.637 12.2852 283.746 12.6992C285.27 13.2539 286.297 13.8125 286.828 14.375C287.367 14.9375 287.637 15.6445 287.637 16.4961ZM294.961 18.6289C295.305 18.6289 295.637 18.6055 295.957 18.5586C296.277 18.5039 296.531 18.4492 296.719 18.3945V19.8828C296.508 19.9844 296.195 20.0664 295.781 20.1289C295.375 20.1992 295.008 20.2344 294.68 20.2344C292.195 20.2344 290.953 18.9258 290.953 16.3086V8.66797H289.113V7.73047L290.953 6.92188L291.773 4.17969H292.898V7.15625H296.625V8.66797H292.898V16.2266C292.898 17 293.082 17.5938 293.449 18.0078C293.816 18.4219 294.32 18.6289 294.961 18.6289ZM307.195 20L306.809 18.1719H306.715C306.074 18.9766 305.434 19.5234 304.793 19.8125C304.16 20.0938 303.367 20.2344 302.414 20.2344C301.141 20.2344 300.141 19.9062 299.414 19.25C298.695 18.5938 298.336 17.6602 298.336 16.4492C298.336 13.8555 300.41 12.4961 304.559 12.3711L306.738 12.3008V11.5039C306.738 10.4961 306.52 9.75391 306.082 9.27734C305.652 8.79297 304.961 8.55078 304.008 8.55078C302.938 8.55078 301.727 8.87891 300.375 9.53516L299.777 8.04688C300.41 7.70312 301.102 7.43359 301.852 7.23828C302.609 7.04297 303.367 6.94531 304.125 6.94531C305.656 6.94531 306.789 7.28516 307.523 7.96484C308.266 8.64453 308.637 9.73438 308.637 11.2344V20H307.195ZM302.801 18.6289C304.012 18.6289 304.961 18.2969 305.648 17.6328C306.344 16.9688 306.691 16.0391 306.691 14.8438V13.6836L304.746 13.7656C303.199 13.8203 302.082 14.0625 301.395 14.4922C300.715 14.9141 300.375 15.5742 300.375 16.4727C300.375 17.1758 300.586 17.7109 301.008 18.0781C301.438 18.4453 302.035 18.6289 302.801 18.6289ZM302.344 5.16406C302.719 4.67969 303.121 4.09375 303.551 3.40625C303.988 2.71875 304.332 2.12109 304.582 1.61328H306.949V1.85938C306.605 2.36719 306.094 2.99219 305.414 3.73438C304.734 4.47656 304.145 5.05078 303.645 5.45703H302.344V5.16406ZM324.316 20.2344C322.418 20.2344 320.918 19.6562 319.816 18.5C318.723 17.3438 318.176 15.7383 318.176 13.6836C318.176 11.6133 318.684 9.96875 319.699 8.75C320.723 7.53125 322.094 6.92188 323.812 6.92188C325.422 6.92188 326.695 7.45312 327.633 8.51562C328.57 9.57031 329.039 10.9648 329.039 12.6992V13.9297H320.191C320.23 15.4375 320.609 16.582 321.328 17.3633C322.055 18.1445 323.074 18.5352 324.387 18.5352C325.77 18.5352 327.137 18.2461 328.488 17.668V19.4023C327.801 19.6992 327.148 19.9102 326.531 20.0352C325.922 20.168 325.184 20.2344 324.316 20.2344ZM323.789 8.55078C322.758 8.55078 321.934 8.88672 321.316 9.55859C320.707 10.2305 320.348 11.1602 320.238 12.3477H326.953C326.953 11.1211 326.68 10.1836 326.133 9.53516C325.586 8.87891 324.805 8.55078 323.789 8.55078ZM340.652 16.4961C340.652 17.6914 340.207 18.6133 339.316 19.2617C338.426 19.9102 337.176 20.2344 335.566 20.2344C333.863 20.2344 332.535 19.9648 331.582 19.4258V17.6211C332.199 17.9336 332.859 18.1797 333.562 18.3594C334.273 18.5391 334.957 18.6289 335.613 18.6289C336.629 18.6289 337.41 18.4688 337.957 18.1484C338.504 17.8203 338.777 17.3242 338.777 16.6602C338.777 16.1602 338.559 15.7344 338.121 15.3828C337.691 15.0234 336.848 14.6016 335.59 14.1172C334.395 13.6719 333.543 13.2852 333.035 12.957C332.535 12.6211 332.16 12.2422 331.91 11.8203C331.668 11.3984 331.547 10.8945 331.547 10.3086C331.547 9.26172 331.973 8.4375 332.824 7.83594C333.676 7.22656 334.844 6.92188 336.328 6.92188C337.711 6.92188 339.062 7.20312 340.383 7.76562L339.691 9.34766C338.402 8.81641 337.234 8.55078 336.188 8.55078C335.266 8.55078 334.57 8.69531 334.102 8.98438C333.633 9.27344 333.398 9.67188 333.398 10.1797C333.398 10.5234 333.484 10.8164 333.656 11.0586C333.836 11.3008 334.121 11.5312 334.512 11.75C334.902 11.9688 335.652 12.2852 336.762 12.6992C338.285 13.2539 339.312 13.8125 339.844 14.375C340.383 14.9375 340.652 15.6445 340.652 16.4961ZM348.961 20.2344C347.102 20.2344 345.66 19.6641 344.637 18.5234C343.621 17.375 343.113 15.7539 343.113 13.6602C343.113 11.5117 343.629 9.85156 344.66 8.67969C345.699 7.50781 347.176 6.92188 349.09 6.92188C349.707 6.92188 350.324 6.98828 350.941 7.12109C351.559 7.25391 352.043 7.41016 352.395 7.58984L351.797 9.24219C351.367 9.07031 350.898 8.92969 350.391 8.82031C349.883 8.70312 349.434 8.64453 349.043 8.64453C346.434 8.64453 345.129 10.3086 345.129 13.6367C345.129 15.2148 345.445 16.4258 346.078 17.2695C346.719 18.1133 347.664 18.5352 348.914 18.5352C349.984 18.5352 351.082 18.3047 352.207 17.8438V19.5664C351.348 20.0117 350.266 20.2344 348.961 20.2344ZM361.125 6.92188C361.695 6.92188 362.207 6.96875 362.66 7.0625L362.391 8.86719C361.859 8.75 361.391 8.69141 360.984 8.69141C359.945 8.69141 359.055 9.11328 358.312 9.95703C357.578 10.8008 357.211 11.8516 357.211 13.1094V20H355.266V7.15625H356.871L357.094 9.53516H357.188C357.664 8.69922 358.238 8.05469 358.91 7.60156C359.582 7.14844 360.32 6.92188 361.125 6.92188ZM367.008 20H365.062V7.15625H367.008V20ZM364.898 3.67578C364.898 3.23047 365.008 2.90625 365.227 2.70312C365.445 2.49219 365.719 2.38672 366.047 2.38672C366.359 2.38672 366.629 2.49219 366.855 2.70312C367.082 2.91406 367.195 3.23828 367.195 3.67578C367.195 4.11328 367.082 4.44141 366.855 4.66016C366.629 4.87109 366.359 4.97656 366.047 4.97656C365.719 4.97656 365.445 4.87109 365.227 4.66016C365.008 4.44141 364.898 4.11328 364.898 3.67578ZM375.281 18.6289C375.625 18.6289 375.957 18.6055 376.277 18.5586C376.598 18.5039 376.852 18.4492 377.039 18.3945V19.8828C376.828 19.9844 376.516 20.0664 376.102 20.1289C375.695 20.1992 375.328 20.2344 375 20.2344C372.516 20.2344 371.273 18.9258 371.273 16.3086V8.66797H369.434V7.73047L371.273 6.92188L372.094 4.17969H373.219V7.15625H376.945V8.66797H373.219V16.2266C373.219 17 373.402 17.5938 373.77 18.0078C374.137 18.4219 374.641 18.6289 375.281 18.6289ZM390.703 13.5664C390.703 15.6602 390.176 17.2969 389.121 18.4766C388.066 19.6484 386.609 20.2344 384.75 20.2344C383.602 20.2344 382.582 19.9648 381.691 19.4258C380.801 18.8867 380.113 18.1133 379.629 17.1055C379.145 16.0977 378.902 14.918 378.902 13.5664C378.902 11.4727 379.426 9.84375 380.473 8.67969C381.52 7.50781 382.973 6.92188 384.832 6.92188C386.629 6.92188 388.055 7.51953 389.109 8.71484C390.172 9.91016 390.703 11.5273 390.703 13.5664ZM380.918 13.5664C380.918 15.207 381.246 16.457 381.902 17.3164C382.559 18.1758 383.523 18.6055 384.797 18.6055C386.07 18.6055 387.035 18.1797 387.691 17.3281C388.355 16.4688 388.688 15.2148 388.688 13.5664C388.688 11.9336 388.355 10.6953 387.691 9.85156C387.035 9 386.062 8.57422 384.773 8.57422C383.5 8.57422 382.539 8.99219 381.891 9.82812C381.242 10.6641 380.918 11.9102 380.918 13.5664ZM405.785 20.2344C403.887 20.2344 402.387 19.6562 401.285 18.5C400.191 17.3438 399.645 15.7383 399.645 13.6836C399.645 11.6133 400.152 9.96875 401.168 8.75C402.191 7.53125 403.562 6.92188 405.281 6.92188C406.891 6.92188 408.164 7.45312 409.102 8.51562C410.039 9.57031 410.508 10.9648 410.508 12.6992V13.9297H401.66C401.699 15.4375 402.078 16.582 402.797 17.3633C403.523 18.1445 404.543 18.5352 405.855 18.5352C407.238 18.5352 408.605 18.2461 409.957 17.668V19.4023C409.27 19.6992 408.617 19.9102 408 20.0352C407.391 20.168 406.652 20.2344 405.785 20.2344ZM405.258 8.55078C404.227 8.55078 403.402 8.88672 402.785 9.55859C402.176 10.2305 401.816 11.1602 401.707 12.3477H408.422C408.422 11.1211 408.148 10.1836 407.602 9.53516C407.055 8.87891 406.273 8.55078 405.258 8.55078ZM415.781 20H413.836V1.76562H415.781V20ZM434.93 20V11.6914C434.93 10.6445 434.691 9.86328 434.215 9.34766C433.738 8.83203 432.992 8.57422 431.977 8.57422C430.633 8.57422 429.648 8.9375 429.023 9.66406C428.398 10.3906 428.086 11.5898 428.086 13.2617V20H426.141V7.15625H427.723L428.039 8.91406H428.133C428.531 8.28125 429.09 7.79297 429.809 7.44922C430.527 7.09766 431.328 6.92188 432.211 6.92188C433.758 6.92188 434.922 7.29688 435.703 8.04688C436.484 8.78906 436.875 9.98047 436.875 11.6211V20H434.93ZM451.969 13.5664C451.969 15.6602 451.441 17.2969 450.387 18.4766C449.332 19.6484 447.875 20.2344 446.016 20.2344C444.867 20.2344 443.848 19.9648 442.957 19.4258C442.066 18.8867 441.379 18.1133 440.895 17.1055C440.41 16.0977 440.168 14.918 440.168 13.5664C440.168 11.4727 440.691 9.84375 441.738 8.67969C442.785 7.50781 444.238 6.92188 446.098 6.92188C447.895 6.92188 449.32 7.51953 450.375 8.71484C451.438 9.91016 451.969 11.5273 451.969 13.5664ZM442.184 13.5664C442.184 15.207 442.512 16.457 443.168 17.3164C443.824 18.1758 444.789 18.6055 446.062 18.6055C447.336 18.6055 448.301 18.1797 448.957 17.3281C449.621 16.4688 449.953 15.2148 449.953 13.5664C449.953 11.9336 449.621 10.6953 448.957 9.85156C448.301 9 447.328 8.57422 446.039 8.57422C444.766 8.57422 443.805 8.99219 443.156 9.82812C442.508 10.6641 442.184 11.9102 442.184 13.5664ZM471.762 20V11.6445C471.762 10.6211 471.543 9.85547 471.105 9.34766C470.668 8.83203 469.988 8.57422 469.066 8.57422C467.855 8.57422 466.961 8.92188 466.383 9.61719C465.805 10.3125 465.516 11.3828 465.516 12.8281V20H463.57V11.6445C463.57 10.6211 463.352 9.85547 462.914 9.34766C462.477 8.83203 461.793 8.57422 460.863 8.57422C459.645 8.57422 458.75 8.94141 458.18 9.67578C457.617 10.4023 457.336 11.5977 457.336 13.2617V20H455.391V7.15625H456.973L457.289 8.91406H457.383C457.75 8.28906 458.266 7.80078 458.93 7.44922C459.602 7.09766 460.352 6.92188 461.18 6.92188C463.188 6.92188 464.5 7.64844 465.117 9.10156H465.211C465.594 8.42969 466.148 7.89844 466.875 7.50781C467.602 7.11719 468.43 6.92188 469.359 6.92188C470.812 6.92188 471.898 7.29688 472.617 8.04688C473.344 8.78906 473.707 9.98047 473.707 11.6211V20H471.762ZM483.703 6.94531C485.391 6.94531 486.699 7.52344 487.629 8.67969C488.566 9.82812 489.035 11.457 489.035 13.5664C489.035 15.6758 488.562 17.3164 487.617 18.4883C486.68 19.6523 485.375 20.2344 483.703 20.2344C482.867 20.2344 482.102 20.082 481.406 19.7773C480.719 19.4648 480.141 18.9883 479.672 18.3477H479.531L479.121 20H477.727V1.76562H479.672V6.19531C479.672 7.1875 479.641 8.07812 479.578 8.86719H479.672C480.578 7.58594 481.922 6.94531 483.703 6.94531ZM483.422 8.57422C482.094 8.57422 481.137 8.95703 480.551 9.72266C479.965 10.4805 479.672 11.7617 479.672 13.5664C479.672 15.3711 479.973 16.6641 480.574 17.4453C481.176 18.2188 482.141 18.6055 483.469 18.6055C484.664 18.6055 485.555 18.1719 486.141 17.3047C486.727 16.4297 487.02 15.1758 487.02 13.543C487.02 11.8711 486.727 10.625 486.141 9.80469C485.555 8.98438 484.648 8.57422 483.422 8.57422ZM498.305 6.92188C498.875 6.92188 499.387 6.96875 499.84 7.0625L499.57 8.86719C499.039 8.75 498.57 8.69141 498.164 8.69141C497.125 8.69141 496.234 9.11328 495.492 9.95703C494.758 10.8008 494.391 11.8516 494.391 13.1094V20H492.445V7.15625H494.051L494.273 9.53516H494.367C494.844 8.69922 495.418 8.05469 496.09 7.60156C496.762 7.14844 497.5 6.92188 498.305 6.92188ZM507.668 20.2344C505.77 20.2344 504.27 19.6562 503.168 18.5C502.074 17.3438 501.527 15.7383 501.527 13.6836C501.527 11.6133 502.035 9.96875 503.051 8.75C504.074 7.53125 505.445 6.92188 507.164 6.92188C508.773 6.92188 510.047 7.45312 510.984 8.51562C511.922 9.57031 512.391 10.9648 512.391 12.6992V13.9297H503.543C503.582 15.4375 503.961 16.582 504.68 17.3633C505.406 18.1445 506.426 18.5352 507.738 18.5352C509.121 18.5352 510.488 18.2461 511.84 17.668V19.4023C511.152 19.6992 510.5 19.9102 509.883 20.0352C509.273 20.168 508.535 20.2344 507.668 20.2344ZM507.141 8.55078C506.109 8.55078 505.285 8.88672 504.668 9.55859C504.059 10.2305 503.699 11.1602 503.59 12.3477H510.305C510.305 11.1211 510.031 10.1836 509.484 9.53516C508.938 8.87891 508.156 8.55078 507.141 8.55078ZM530.695 18.2773H530.59C529.691 19.582 528.348 20.2344 526.559 20.2344C524.879 20.2344 523.57 19.6602 522.633 18.5117C521.703 17.3633 521.238 15.7305 521.238 13.6133C521.238 11.4961 521.707 9.85156 522.645 8.67969C523.582 7.50781 524.887 6.92188 526.559 6.92188C528.301 6.92188 529.637 7.55469 530.566 8.82031H530.719L530.637 7.89453L530.59 6.99219V1.76562H532.535V20H530.953L530.695 18.2773ZM526.805 18.6055C528.133 18.6055 529.094 18.2461 529.688 17.5273C530.289 16.8008 530.59 15.6328 530.59 14.0234V13.6133C530.59 11.793 530.285 10.4961 529.676 9.72266C529.074 8.94141 528.109 8.55078 526.781 8.55078C525.641 8.55078 524.766 8.99609 524.156 9.88672C523.555 10.7695 523.254 12.0195 523.254 13.6367C523.254 15.2773 523.555 16.5156 524.156 17.3516C524.758 18.1875 525.641 18.6055 526.805 18.6055ZM542.098 20.2344C540.199 20.2344 538.699 19.6562 537.598 18.5C536.504 17.3438 535.957 15.7383 535.957 13.6836C535.957 11.6133 536.465 9.96875 537.48 8.75C538.504 7.53125 539.875 6.92188 541.594 6.92188C543.203 6.92188 544.477 7.45312 545.414 8.51562C546.352 9.57031 546.82 10.9648 546.82 12.6992V13.9297H537.973C538.012 15.4375 538.391 16.582 539.109 17.3633C539.836 18.1445 540.855 18.5352 542.168 18.5352C543.551 18.5352 544.918 18.2461 546.27 17.668V19.4023C545.582 19.6992 544.93 19.9102 544.312 20.0352C543.703 20.168 542.965 20.2344 542.098 20.2344ZM541.57 8.55078C540.539 8.55078 539.715 8.88672 539.098 9.55859C538.488 10.2305 538.129 11.1602 538.02 12.3477H544.734C544.734 11.1211 544.461 10.1836 543.914 9.53516C543.367 8.87891 542.586 8.55078 541.57 8.55078ZM552.094 20H550.148V1.76562H552.094V20ZM564.398 20H562.453V7.15625H564.398V20ZM562.289 3.67578C562.289 3.23047 562.398 2.90625 562.617 2.70312C562.836 2.49219 563.109 2.38672 563.438 2.38672C563.75 2.38672 564.02 2.49219 564.246 2.70312C564.473 2.91406 564.586 3.23828 564.586 3.67578C564.586 4.11328 564.473 4.44141 564.246 4.66016C564.02 4.87109 563.75 4.97656 563.438 4.97656C563.109 4.97656 562.836 4.87109 562.617 4.66016C562.398 4.44141 562.289 4.11328 562.289 3.67578ZM577.312 20V11.6914C577.312 10.6445 577.074 9.86328 576.598 9.34766C576.121 8.83203 575.375 8.57422 574.359 8.57422C573.016 8.57422 572.031 8.9375 571.406 9.66406C570.781 10.3906 570.469 11.5898 570.469 13.2617V20H568.523V7.15625H570.105L570.422 8.91406H570.516C570.914 8.28125 571.473 7.79297 572.191 7.44922C572.91 7.09766 573.711 6.92188 574.594 6.92188C576.141 6.92188 577.305 7.29688 578.086 8.04688C578.867 8.78906 579.258 9.98047 579.258 11.6211V20H577.312ZM591.551 16.4961C591.551 17.6914 591.105 18.6133 590.215 19.2617C589.324 19.9102 588.074 20.2344 586.465 20.2344C584.762 20.2344 583.434 19.9648 582.48 19.4258V17.6211C583.098 17.9336 583.758 18.1797 584.461 18.3594C585.172 18.5391 585.855 18.6289 586.512 18.6289C587.527 18.6289 588.309 18.4688 588.855 18.1484C589.402 17.8203 589.676 17.3242 589.676 16.6602C589.676 16.1602 589.457 15.7344 589.02 15.3828C588.59 15.0234 587.746 14.6016 586.488 14.1172C585.293 13.6719 584.441 13.2852 583.934 12.957C583.434 12.6211 583.059 12.2422 582.809 11.8203C582.566 11.3984 582.445 10.8945 582.445 10.3086C582.445 9.26172 582.871 8.4375 583.723 7.83594C584.574 7.22656 585.742 6.92188 587.227 6.92188C588.609 6.92188 589.961 7.20312 591.281 7.76562L590.59 9.34766C589.301 8.81641 588.133 8.55078 587.086 8.55078C586.164 8.55078 585.469 8.69531 585 8.98438C584.531 9.27344 584.297 9.67188 584.297 10.1797C584.297 10.5234 584.383 10.8164 584.555 11.0586C584.734 11.3008 585.02 11.5312 585.41 11.75C585.801 11.9688 586.551 12.2852 587.66 12.6992C589.184 13.2539 590.211 13.8125 590.742 14.375C591.281 14.9375 591.551 15.6445 591.551 16.4961ZM598.875 18.6289C599.219 18.6289 599.551 18.6055 599.871 18.5586C600.191 18.5039 600.445 18.4492 600.633 18.3945V19.8828C600.422 19.9844 600.109 20.0664 599.695 20.1289C599.289 20.1992 598.922 20.2344 598.594 20.2344C596.109 20.2344 594.867 18.9258 594.867 16.3086V8.66797H593.027V7.73047L594.867 6.92188L595.688 4.17969H596.812V7.15625H600.539V8.66797H596.812V16.2266C596.812 17 596.996 17.5938 597.363 18.0078C597.73 18.4219 598.234 18.6289 598.875 18.6289ZM609.07 6.92188C609.641 6.92188 610.152 6.96875 610.605 7.0625L610.336 8.86719C609.805 8.75 609.336 8.69141 608.93 8.69141C607.891 8.69141 607 9.11328 606.258 9.95703C605.523 10.8008 605.156 11.8516 605.156 13.1094V20H603.211V7.15625H604.816L605.039 9.53516H605.133C605.609 8.69922 606.184 8.05469 606.855 7.60156C607.527 7.14844 608.266 6.92188 609.07 6.92188ZM614.836 7.15625V15.4883C614.836 16.5352 615.074 17.3164 615.551 17.832C616.027 18.3477 616.773 18.6055 617.789 18.6055C619.133 18.6055 620.113 18.2383 620.73 17.5039C621.355 16.7695 621.668 15.5703 621.668 13.9062V7.15625H623.613V20H622.008L621.727 18.2773H621.621C621.223 18.9102 620.668 19.3945 619.957 19.7305C619.254 20.0664 618.449 20.2344 617.543 20.2344C615.98 20.2344 614.809 19.8633 614.027 19.1211C613.254 18.3789 612.867 17.1914 612.867 15.5586V7.15625H614.836ZM644.121 20V11.6445C644.121 10.6211 643.902 9.85547 643.465 9.34766C643.027 8.83203 642.348 8.57422 641.426 8.57422C640.215 8.57422 639.32 8.92188 638.742 9.61719C638.164 10.3125 637.875 11.3828 637.875 12.8281V20H635.93V11.6445C635.93 10.6211 635.711 9.85547 635.273 9.34766C634.836 8.83203 634.152 8.57422 633.223 8.57422C632.004 8.57422 631.109 8.94141 630.539 9.67578C629.977 10.4023 629.695 11.5977 629.695 13.2617V20H627.75V7.15625H629.332L629.648 8.91406H629.742C630.109 8.28906 630.625 7.80078 631.289 7.44922C631.961 7.09766 632.711 6.92188 633.539 6.92188C635.547 6.92188 636.859 7.64844 637.477 9.10156H637.57C637.953 8.42969 638.508 7.89844 639.234 7.50781C639.961 7.11719 640.789 6.92188 641.719 6.92188C643.172 6.92188 644.258 7.29688 644.977 8.04688C645.703 8.78906 646.066 9.98047 646.066 11.6211V20H644.121ZM655.512 20.2344C653.613 20.2344 652.113 19.6562 651.012 18.5C649.918 17.3438 649.371 15.7383 649.371 13.6836C649.371 11.6133 649.879 9.96875 650.895 8.75C651.918 7.53125 653.289 6.92188 655.008 6.92188C656.617 6.92188 657.891 7.45312 658.828 8.51562C659.766 9.57031 660.234 10.9648 660.234 12.6992V13.9297H651.387C651.426 15.4375 651.805 16.582 652.523 17.3633C653.25 18.1445 654.27 18.5352 655.582 18.5352C656.965 18.5352 658.332 18.2461 659.684 17.668V19.4023C658.996 19.6992 658.344 19.9102 657.727 20.0352C657.117 20.168 656.379 20.2344 655.512 20.2344ZM654.984 8.55078C653.953 8.55078 653.129 8.88672 652.512 9.55859C651.902 10.2305 651.543 11.1602 651.434 12.3477H658.148C658.148 11.1211 657.875 10.1836 657.328 9.53516C656.781 8.87891 656 8.55078 654.984 8.55078ZM672.352 20V11.6914C672.352 10.6445 672.113 9.86328 671.637 9.34766C671.16 8.83203 670.414 8.57422 669.398 8.57422C668.055 8.57422 667.07 8.9375 666.445 9.66406C665.82 10.3906 665.508 11.5898 665.508 13.2617V20H663.562V7.15625H665.145L665.461 8.91406H665.555C665.953 8.28125 666.512 7.79297 667.23 7.44922C667.949 7.09766 668.75 6.92188 669.633 6.92188C671.18 6.92188 672.344 7.29688 673.125 8.04688C673.906 8.78906 674.297 9.98047 674.297 11.6211V20H672.352ZM682.453 18.6289C682.797 18.6289 683.129 18.6055 683.449 18.5586C683.77 18.5039 684.023 18.4492 684.211 18.3945V19.8828C684 19.9844 683.688 20.0664 683.273 20.1289C682.867 20.1992 682.5 20.2344 682.172 20.2344C679.688 20.2344 678.445 18.9258 678.445 16.3086V8.66797H676.605V7.73047L678.445 6.92188L679.266 4.17969H680.391V7.15625H684.117V8.66797H680.391V16.2266C680.391 17 680.574 17.5938 680.941 18.0078C681.309 18.4219 681.812 18.6289 682.453 18.6289ZM697.875 13.5664C697.875 15.6602 697.348 17.2969 696.293 18.4766C695.238 19.6484 693.781 20.2344 691.922 20.2344C690.773 20.2344 689.754 19.9648 688.863 19.4258C687.973 18.8867 687.285 18.1133 686.801 17.1055C686.316 16.0977 686.074 14.918 686.074 13.5664C686.074 11.4727 686.598 9.84375 687.645 8.67969C688.691 7.50781 690.145 6.92188 692.004 6.92188C693.801 6.92188 695.227 7.51953 696.281 8.71484C697.344 9.91016 697.875 11.5273 697.875 13.5664ZM688.09 13.5664C688.09 15.207 688.418 16.457 689.074 17.3164C689.73 18.1758 690.695 18.6055 691.969 18.6055C693.242 18.6055 694.207 18.1797 694.863 17.3281C695.527 16.4688 695.859 15.2148 695.859 13.5664C695.859 11.9336 695.527 10.6953 694.863 9.85156C694.207 9 693.234 8.57422 691.945 8.57422C690.672 8.57422 689.711 8.99219 689.062 9.82812C688.414 10.6641 688.09 11.9102 688.09 13.5664ZM701.016 18.7578C701.016 18.2344 701.133 17.8398 701.367 17.5742C701.609 17.3008 701.953 17.1641 702.398 17.1641C702.852 17.1641 703.203 17.3008 703.453 17.5742C703.711 17.8398 703.84 18.2344 703.84 18.7578C703.84 19.2656 703.711 19.6562 703.453 19.9297C703.195 20.2031 702.844 20.3398 702.398 20.3398C702 20.3398 701.668 20.2188 701.402 19.9766C701.145 19.7266 701.016 19.3203 701.016 18.7578Z" fill="black"/>
</svg>
