<svg width="755" height="661" viewBox="0 0 755 661" fill="none" xmlns="http://www.w3.org/2000/svg">
<path d="M199 102.143C199 98.6057 199.177 97.3675 199.53 96.1294C200.591 92.7687 203.241 91 206.776 91C209.957 91 212.431 92.5919 213.668 95.4219C213.668 95.5988 213.668 95.7757 213.492 95.7757L211.548 96.6601C211.371 96.837 211.194 96.66 211.018 96.4832C210.134 94.7144 208.897 93.6532 206.599 93.6532C204.302 93.6532 202.888 94.7144 202.181 96.8369C201.828 97.7213 201.828 98.7826 201.828 102.143C201.828 105.504 202.004 106.565 202.181 107.45C202.888 109.572 204.302 110.633 206.599 110.633C208.897 110.633 210.134 109.395 211.018 107.803C211.018 107.627 211.194 107.626 211.548 107.626L213.492 108.511C213.668 108.688 213.668 108.688 213.668 108.865C212.431 111.695 209.957 113.287 206.776 113.287C203.241 113.287 200.591 111.518 199.53 108.157C199 107.096 199 105.858 199 102.143Z" fill="white"/>
<path d="M61 252H493" stroke="#231F20" stroke-width="3" stroke-linecap="round" stroke-linejoin="round" stroke-dasharray="6 6"/>
<path d="M204 174H249" stroke="#231F20" stroke-width="3" stroke-linecap="round" stroke-linejoin="round" stroke-dasharray="6 6"/>
<path d="M269.173 143.624C266.487 143.624 264.373 144.483 262.83 146.202C261.287 147.921 260.516 150.274 260.516 153.263C260.516 156.319 261.243 158.692 262.698 160.382C264.153 162.071 266.233 162.916 268.938 162.916C270.735 162.916 272.386 162.687 273.89 162.228V163.546C272.474 164.044 270.706 164.293 268.587 164.293C265.579 164.293 263.211 163.321 261.482 161.378C259.754 159.435 258.89 156.72 258.89 153.233C258.89 151.056 259.3 149.137 260.12 147.477C260.95 145.816 262.137 144.537 263.68 143.639C265.232 142.73 267.034 142.276 269.085 142.276C271.175 142.276 273.045 142.667 274.695 143.448L274.095 144.796C272.532 144.015 270.892 143.624 269.173 143.624ZM294.178 164H292.669V153.468H280.159V164H278.665V142.584H280.159V152.091H292.669V142.584H294.178V164ZM310.569 156.441H301.868L298.88 164H297.225L305.838 142.496H306.79L315.228 164H313.543L310.569 156.441ZM302.41 155.094H310.071L307.156 147.374C306.912 146.769 306.619 145.929 306.277 144.854C306.014 145.792 305.726 146.642 305.413 147.403L302.41 155.094ZM319.769 154.669V164H318.274V142.584H323.372C326.028 142.584 327.991 143.077 329.261 144.063C330.53 145.04 331.165 146.515 331.165 148.487C331.165 149.923 330.784 151.134 330.022 152.12C329.271 153.106 328.123 153.814 326.58 154.244L332.396 164H330.608L325.086 154.669H319.769ZM319.769 153.38H323.855C325.662 153.38 327.063 152.979 328.06 152.179C329.056 151.368 329.554 150.177 329.554 148.604C329.554 146.974 329.065 145.787 328.089 145.045C327.112 144.303 325.521 143.932 323.313 143.932H319.769V153.38ZM337.61 154.669V164H336.116V142.584H341.214C343.87 142.584 345.833 143.077 347.103 144.063C348.372 145.04 349.007 146.515 349.007 148.487C349.007 149.923 348.626 151.134 347.864 152.12C347.112 153.106 345.965 153.814 344.422 154.244L350.237 164H348.45L342.928 154.669H337.61ZM337.61 153.38H341.697C343.504 153.38 344.905 152.979 345.901 152.179C346.897 151.368 347.396 150.177 347.396 148.604C347.396 146.974 346.907 145.787 345.931 145.045C344.954 144.303 343.362 143.932 341.155 143.932H337.61V153.38ZM364.271 156.441H355.569L352.581 164H350.926L359.539 142.496H360.491L368.929 164H367.244L364.271 156.441ZM356.111 155.094H363.772L360.857 147.374C360.613 146.769 360.32 145.929 359.979 144.854C359.715 145.792 359.427 146.642 359.114 147.403L356.111 155.094Z" fill="black"/>
<path d="M61 447H493" stroke="#231F20" stroke-width="3" stroke-linecap="round" stroke-linejoin="round" stroke-dasharray="6 6"/>
<path d="M204 369H249" stroke="#231F20" stroke-width="3" stroke-linecap="round" stroke-linejoin="round" stroke-dasharray="6 6"/>
<path d="M276.292 348.087C276.292 351.681 275.35 354.4 273.465 356.246C271.58 358.082 268.812 359 265.159 359H260.032V337.584H265.818C269.236 337.584 271.834 338.478 273.611 340.265C275.398 342.052 276.292 344.659 276.292 348.087ZM274.666 348.146C274.666 345.079 273.885 342.774 272.322 341.231C270.77 339.679 268.484 338.902 265.467 338.902H261.526V357.682H265.071C271.468 357.682 274.666 354.503 274.666 348.146ZM292.918 359H281.214V337.584H292.918V338.961H282.708V347.062H292.347V348.438H282.708V357.623H292.918V359ZM313.338 359H311.829L299.144 339.986H299.026C299.144 342.252 299.202 343.961 299.202 345.113V359H297.767V337.584H299.261L311.932 356.568H312.02C311.932 354.811 311.888 353.141 311.888 351.559V337.584H313.338V359ZM329.729 351.441H321.028L318.04 359H316.385L324.998 337.496H325.95L334.388 359H332.703L329.729 351.441ZM321.57 350.094H329.231L326.316 342.374C326.072 341.769 325.779 340.929 325.438 339.854C325.174 340.792 324.886 341.642 324.573 342.403L321.57 350.094ZM337.435 359V337.584H338.929V357.594H349.139V359H337.435Z" fill="black"/>
<path d="M62 642H494" stroke="#231F20" stroke-width="3" stroke-linecap="round" stroke-linejoin="round" stroke-dasharray="6 6"/>
<path d="M205 564H250" stroke="#231F20" stroke-width="3" stroke-linecap="round" stroke-linejoin="round" stroke-dasharray="6 6"/>
<path d="M266.613 554H265.104V533.99H258.146V532.584H273.571V533.99H266.613V554ZM287.077 546.441H278.376L275.388 554H273.732L282.346 532.496H283.298L291.735 554H290.051L287.077 546.441ZM278.918 545.094H286.579L283.664 537.374C283.42 536.769 283.127 535.929 282.785 534.854C282.521 535.792 282.233 536.642 281.921 537.403L278.918 545.094ZM296.276 544.669V554H294.782V532.584H299.88C302.536 532.584 304.499 533.077 305.769 534.063C307.038 535.04 307.673 536.515 307.673 538.487C307.673 539.923 307.292 541.134 306.53 542.12C305.778 543.106 304.631 543.814 303.088 544.244L308.903 554H307.116L301.594 544.669H296.276ZM296.276 543.38H300.363C302.17 543.38 303.571 542.979 304.567 542.179C305.563 541.368 306.062 540.177 306.062 538.604C306.062 536.974 305.573 535.787 304.597 535.045C303.62 534.303 302.028 533.932 299.821 533.932H296.276V543.38ZM314.118 544.669V554H312.624V532.584H317.722C320.378 532.584 322.341 533.077 323.61 534.063C324.88 535.04 325.515 536.515 325.515 538.487C325.515 539.923 325.134 541.134 324.372 542.12C323.62 543.106 322.473 543.814 320.93 544.244L326.745 554H324.958L319.436 544.669H314.118ZM314.118 543.38H318.205C320.012 543.38 321.413 542.979 322.409 542.179C323.405 541.368 323.903 540.177 323.903 538.604C323.903 536.974 323.415 535.787 322.438 535.045C321.462 534.303 319.87 533.932 317.663 533.932H314.118V543.38ZM342.17 554H330.466V532.584H342.17V533.961H331.96V542.062H341.599V543.438H331.96V552.623H342.17V554ZM348.513 544.669V554H347.019V532.584H352.116C354.772 532.584 356.735 533.077 358.005 534.063C359.274 535.04 359.909 536.515 359.909 538.487C359.909 539.923 359.528 541.134 358.767 542.12C358.015 543.106 356.867 543.814 355.324 544.244L361.14 554H359.353L353.83 544.669H348.513ZM348.513 543.38H352.6C354.406 543.38 355.808 542.979 356.804 542.179C357.8 541.368 358.298 540.177 358.298 538.604C358.298 536.974 357.81 535.787 356.833 535.045C355.856 534.303 354.265 533.932 352.058 533.932H348.513V543.38ZM382.863 543.263C382.863 546.661 382.014 549.352 380.314 551.334C378.615 553.307 376.271 554.293 373.283 554.293C370.305 554.293 367.966 553.307 366.267 551.334C364.567 549.352 363.718 546.651 363.718 543.233C363.718 539.825 364.572 537.145 366.281 535.191C368 533.229 370.344 532.247 373.312 532.247C376.301 532.247 378.64 533.233 380.329 535.206C382.019 537.169 382.863 539.854 382.863 543.263ZM365.344 543.263C365.344 546.329 366.027 548.702 367.395 550.382C368.762 552.052 370.725 552.887 373.283 552.887C375.861 552.887 377.829 552.057 379.187 550.396C380.554 548.736 381.237 546.358 381.237 543.263C381.237 540.177 380.554 537.813 379.187 536.173C377.829 534.522 375.871 533.697 373.312 533.697C370.764 533.697 368.796 534.527 367.409 536.188C366.032 537.848 365.344 540.206 365.344 543.263Z" fill="black"/>
<path d="M60.5265 31.3764C60.5265 48.145 46.9798 61.7527 30.2566 61.7527C13.5467 61.7393 0 48.145 0 31.3764C0 14.5944 13.5467 1 30.2699 1C46.9798 1 60.5265 14.5944 60.5265 31.3764Z" fill="#2FAC66"/>
<path d="M12.8936 31.8184C12.8936 29.0995 13.0137 28.1486 13.3206 27.211C14.1348 24.6261 16.0834 23.3537 18.7527 23.3537C21.1817 23.3537 23.0503 24.5591 23.9845 26.6619C24.0379 26.7825 24.0112 26.903 23.8911 26.97L22.4497 27.6664C22.3029 27.7334 22.156 27.6664 22.116 27.5459C21.462 26.2735 20.461 25.3494 18.7527 25.3494C16.9776 25.3494 15.8965 26.2199 15.3627 27.7602C15.1491 28.4298 15.0557 29.2335 15.0557 31.805C15.0557 34.3899 15.1491 35.1802 15.3627 35.8632C15.8965 37.4035 16.9776 38.274 18.7527 38.274C20.461 38.274 21.462 37.3633 22.116 36.0775C22.1694 35.957 22.3162 35.8766 22.4497 35.957L23.8911 36.6534C24.0112 36.7204 24.0379 36.8543 23.9845 36.9615C23.0503 39.0643 21.1684 40.2697 18.7527 40.2697C16.0834 40.2697 14.1348 38.9973 13.3206 36.4124C13.0137 35.4882 12.8936 34.5507 12.8936 31.8184Z" fill="white"/>
<path d="M27.7871 23.8628C27.7871 23.7154 27.8805 23.6217 28.0273 23.6217H29.6823C29.8291 23.6217 29.9226 23.7154 29.9226 23.8628V30.5863C29.9226 30.68 29.9759 30.7336 30.0694 30.7336H37.1564C37.2498 30.7336 37.3032 30.68 37.3032 30.5863V23.8628C37.3032 23.7154 37.3966 23.6217 37.5434 23.6217H39.1984C39.3452 23.6217 39.4386 23.7154 39.4386 23.8628V39.7742C39.4386 39.9215 39.3452 40.0153 39.1984 40.0153H37.5434C37.3966 40.0153 37.3032 39.9215 37.3032 39.7742V32.8766C37.3032 32.7828 37.2498 32.7292 37.1564 32.7292H30.0694C29.9759 32.7292 29.9226 32.7828 29.9226 32.8766V39.7742C29.9226 39.9215 29.8291 40.0153 29.6823 40.0153H28.0273C27.8805 40.0153 27.7871 39.9215 27.7871 39.7742V23.8628Z" fill="white"/>
<path d="M44.2031 23.8628C44.2031 23.7154 44.2966 23.6217 44.4434 23.6217H46.0983C46.2451 23.6217 46.3386 23.7154 46.3386 23.8628V39.7742C46.3386 39.9215 46.2451 40.0153 46.0983 40.0153H44.4434C44.2966 40.0153 44.2031 39.9215 44.2031 39.7742V23.8628Z" fill="white"/>
<path d="M170.299 31.3764C170.299 48.145 156.752 61.7527 140.029 61.7527C123.319 61.7527 109.759 48.1584 109.759 31.3764C109.759 14.6078 123.306 1 140.029 1C156.739 1 170.299 14.5944 170.299 31.3764Z" fill="#2FAC66"/>
<path d="M122.184 31.8183C122.184 29.1129 122.33 28.1351 122.611 27.1842C123.425 24.6528 125.453 23.3537 128.216 23.3537C131.072 23.3537 132.834 24.8002 133.648 26.6083C133.715 26.7556 133.702 26.8761 133.568 26.9431L132.127 27.6396C131.98 27.7065 131.86 27.6664 131.793 27.519C131.006 26.0458 129.938 25.3493 128.216 25.3493C126.361 25.3493 125.187 26.2199 124.679 27.7869C124.466 28.3896 124.346 29.3138 124.346 31.8183C124.346 34.3229 124.466 35.2471 124.679 35.8498C125.187 37.4168 126.361 38.2874 128.216 38.2874C129.871 38.2874 131.219 37.4704 131.726 35.9301C131.9 35.381 132.047 34.5774 132.047 33.3452C132.047 33.2514 131.993 33.1979 131.9 33.1979H128.723C128.577 33.1979 128.483 33.1041 128.483 32.9568V31.5505C128.483 31.4031 128.577 31.3094 128.723 31.3094H133.942C134.089 31.3094 134.182 31.4031 134.182 31.5505V32.7827C134.182 34.2559 134.009 35.6087 133.768 36.3989C132.981 38.8767 130.926 40.283 128.216 40.283C125.453 40.283 123.438 38.9838 122.611 36.4525C122.33 35.5149 122.184 34.5238 122.184 31.8183Z" fill="white"/>
<path d="M138.24 34.3096V23.8627C138.24 23.7154 138.334 23.6216 138.48 23.6216H140.135C140.282 23.6216 140.376 23.7154 140.376 23.8627V34.2828C140.376 36.9347 141.844 38.2875 144.033 38.2875C146.195 38.2875 147.663 36.9347 147.663 34.2828V23.8627C147.663 23.7154 147.756 23.6216 147.903 23.6216H149.558C149.705 23.6216 149.798 23.7154 149.798 23.8627V34.3096C149.798 38.1669 147.609 40.2965 144.033 40.2965C140.429 40.2831 138.24 38.1669 138.24 34.3096Z" fill="white"/>
<path d="M154.43 23.8627C154.43 23.7154 154.523 23.6216 154.67 23.6216H156.325C156.472 23.6216 156.565 23.7154 156.565 23.8627V39.7741C156.565 39.9215 156.472 40.0152 156.325 40.0152H154.67C154.523 40.0152 154.43 39.9215 154.43 39.7741V23.8627Z" fill="white"/>
<path d="M280.211 31.3764C280.211 48.145 266.664 61.7527 249.941 61.7527C233.218 61.7527 219.671 48.145 219.671 31.3764C219.671 14.6078 233.218 1 249.941 1C266.664 1 280.211 14.5944 280.211 31.3764Z" stroke="#2FAC66" stroke-dasharray="2 2"/>
<path d="M241.626 40.0286C241.479 40.0286 241.385 39.9348 241.385 39.7875V25.7646C241.385 25.6708 241.332 25.6172 241.239 25.6172H236.768C236.621 25.6172 236.527 25.5235 236.527 25.3762V23.8627C236.527 23.7154 236.621 23.6216 236.768 23.6216H248.139C248.286 23.6216 248.379 23.7154 248.379 23.8627V25.3762C248.379 25.5235 248.286 25.6172 248.139 25.6172H243.668C243.574 25.6172 243.521 25.6708 243.521 25.7646V39.7741C243.521 39.9215 243.428 40.0152 243.281 40.0152H241.626V40.0286Z" fill="#2FAC66"/>
<path d="M251.649 23.8627C251.649 23.7154 251.743 23.6216 251.89 23.6216H261.713C261.86 23.6216 261.953 23.7154 261.953 23.8627V25.3762C261.953 25.5235 261.86 25.6172 261.713 25.6172H253.932C253.838 25.6172 253.785 25.6708 253.785 25.7646V30.5862C253.785 30.68 253.838 30.7335 253.932 30.7335H260.538C260.685 30.7335 260.778 30.8273 260.778 30.9746V32.4881C260.778 32.6354 260.685 32.7292 260.538 32.7292H253.932C253.838 32.7292 253.785 32.7827 253.785 32.8765V37.8723C253.785 37.966 253.838 38.0196 253.932 38.0196H261.713C261.86 38.0196 261.953 38.1133 261.953 38.2607V39.7875C261.953 39.9348 261.86 40.0286 261.713 40.0286H251.89C251.743 40.0286 251.649 39.9348 251.649 39.7875V23.8627Z" fill="#2FAC66"/>
<path d="M390.562 31.3764C390.562 48.145 377.016 61.7527 360.292 61.7527C343.583 61.7527 330.022 48.1584 330.022 31.3764C330.022 14.6078 343.569 1 360.292 1C377.016 1 390.562 14.5944 390.562 31.3764Z" fill="#2FAC66"/>
<path d="M356.354 40.0285C356.181 40.0285 356.114 39.9616 356.047 39.7875L352.777 33.0773H349.174C349.08 33.0773 349.027 33.1309 349.027 33.2247V39.7875C349.027 39.9348 348.934 40.0285 348.787 40.0285H347.132C346.985 40.0285 346.892 39.9348 346.892 39.7875V23.8626C346.892 23.7153 346.985 23.6216 347.132 23.6216H353.044C356.101 23.6216 358.169 25.51 358.169 28.3494C358.169 30.5728 356.915 32.18 354.953 32.8095L358.436 39.7339C358.53 39.8812 358.463 40.0285 358.29 40.0285H356.354ZM356.021 28.3494C356.021 26.6351 354.886 25.6306 352.991 25.6306H349.174C349.08 25.6306 349.027 25.6841 349.027 25.7779V30.9344C349.027 31.0281 349.08 31.0817 349.174 31.0817H352.991C354.9 31.0817 356.021 30.0638 356.021 28.3494Z" fill="white"/>
<path d="M366.672 23.8626C366.725 23.7153 366.792 23.6216 366.952 23.6216H368.513C368.687 23.6216 368.78 23.7153 368.82 23.8626L374.426 39.7741C374.479 39.9214 374.399 40.0151 374.252 40.0151H372.571C372.397 40.0151 372.304 39.9482 372.264 39.7741L371.009 36.2114H364.403L363.148 39.7741C363.081 39.9482 362.975 40.0151 362.841 40.0151H361.16C361.013 40.0151 360.946 39.9214 360.986 39.7741L366.672 23.8626ZM370.315 34.2292L367.739 26.7824H367.686L365.083 34.2292H370.315Z" fill="white"/>
<path d="M498 31.3764C498 48.145 484.453 61.7527 467.73 61.7527C451.02 61.7527 437.474 48.1584 437.474 31.3764C437.474 14.6078 451.02 1 467.73 1C484.453 1 498 14.5944 498 31.3764Z" fill="#2FAC66"/>
<path d="M446.604 31.8183C446.604 29.0994 446.724 28.1485 447.031 27.2109C447.845 24.626 449.793 23.3536 452.463 23.3536C454.892 23.3536 456.76 24.559 457.695 26.6618C457.748 26.7823 457.721 26.9029 457.601 26.9698L456.16 27.6663C456.013 27.7333 455.879 27.6663 455.826 27.5458C455.172 26.2734 454.171 25.3492 452.463 25.3492C450.688 25.3492 449.606 26.2198 449.073 27.7601C448.859 28.4297 448.766 29.2333 448.766 31.8049C448.766 34.3898 448.859 35.18 449.073 35.8631C449.606 37.4033 450.688 38.2739 452.463 38.2739C454.171 38.2739 455.172 37.3632 455.826 36.0774C455.879 35.9569 456.026 35.8765 456.16 35.9569L457.601 36.6533C457.721 36.7203 457.748 36.8542 457.695 36.9614C456.76 39.0641 454.878 40.2695 452.463 40.2695C449.793 40.2695 447.845 38.9972 447.031 36.4122C446.724 35.4881 446.604 34.5505 446.604 31.8183Z" fill="white"/>
<path d="M465.729 23.8626C465.782 23.7153 465.849 23.6216 466.009 23.6216H467.57C467.744 23.6216 467.837 23.7153 467.891 23.8626L473.483 39.7741C473.536 39.9214 473.456 40.0151 473.309 40.0151H471.628C471.454 40.0151 471.361 39.9482 471.321 39.7741L470.066 36.2114H463.46L462.218 39.7741C462.152 39.9482 462.045 40.0151 461.912 40.0151H460.23C460.083 40.0151 460.016 39.9214 460.056 39.7741L465.729 23.8626ZM469.372 34.2292L466.796 26.7824H466.743L464.14 34.2292H469.372Z" fill="white"/>
<path d="M486.268 40.0285C486.095 40.0285 486.028 39.9616 485.961 39.7875L482.691 33.0773H479.088C478.995 33.0773 478.941 33.1309 478.941 33.2247V39.7875C478.941 39.9348 478.848 40.0285 478.701 40.0285H477.046C476.899 40.0285 476.806 39.9348 476.806 39.7875V23.8626C476.806 23.7153 476.899 23.6216 477.046 23.6216H482.958C486.015 23.6216 488.07 25.51 488.07 28.3494C488.07 30.5728 486.816 32.18 484.854 32.8095L488.337 39.7339C488.431 39.8812 488.364 40.0285 488.19 40.0285H486.268ZM485.935 28.3494C485.935 26.6351 484.8 25.6306 482.905 25.6306H479.088C478.995 25.6306 478.941 25.6841 478.941 25.7779V30.9344C478.941 31.0281 478.995 31.0817 479.088 31.0817H482.905C484.8 31.0817 485.935 30.0638 485.935 28.3494Z" fill="white"/>
<path d="M606.936 169.428C608.452 164.299 607.495 157.943 604.97 155" stroke="black" stroke-width="0.681" stroke-linecap="round"/>
<path d="M644.225 241.746C644.207 245.376 644.117 250.937 645.073 253.556C650.648 252.129 652.199 255.777 649.547 256.517C645.308 257.691 642.223 258.449 641.664 255.488C641.014 252.039 639.914 237.25 644.225 241.746Z" fill="#814114"/>
<path d="M617.255 174.267C615.145 167.821 604.988 164.733 597.321 168.453C591.295 171.468 584.71 175.423 579.154 179.377C573.11 183.783 565.605 187.124 562.124 194.545C559.345 201.046 564.415 208.666 569.701 212.62C577.783 218.687 587.976 219.446 590.934 219.319C592.612 220.981 594.344 224.195 596.022 226.217C603.202 234.885 616.552 242.884 625.121 245.43C629.757 246.82 638.146 248.427 642.801 248.897C648.61 249.601 659.669 251.064 665.478 249.673C674.985 247.579 697.788 240.518 682.688 227.246C676.771 222.046 662.627 211.067 658.694 208.286C655.682 206.427 635.693 188.243 631.706 185.246C625.951 180.894 620.106 176.705 617.255 174.267Z" fill="#998D32"/>
<path d="M631.688 185.209C631.562 185.119 631.435 185.029 631.309 184.921C631.255 185.119 631.201 185.318 631.129 185.534C628.387 196.008 603.725 212.801 591.854 220.385C593.226 222.136 594.633 224.556 596.004 226.199C598.241 228.908 601.073 231.544 604.194 233.964C610.256 232.627 618.554 229.865 627.34 224.195C638.742 216.827 646.77 207.42 650.901 201.84C643.829 195.719 634.304 187.196 631.688 185.209Z" fill="#B1B841"/>
<path d="M678.972 224.104C672.766 218.976 663.674 211.934 659.651 208.991C659.633 209.063 659.615 209.117 659.597 209.189C656.854 219.753 630.768 237.106 620.358 243.678C622.036 244.401 623.642 244.997 625.103 245.43C629.739 246.82 638.128 248.427 642.765 248.897C644.677 249.132 647.167 249.439 649.837 249.709C651.857 248.68 653.932 247.488 656.024 246.116C667.354 238.767 675.184 229.323 678.972 224.104Z" fill="#B1B841"/>
<g opacity="0.6">
<g opacity="0.6">
<path opacity="0.6" d="M718.12 210.038C708.36 206.553 688.696 199.348 675.003 194.473C659.218 188.658 640.113 182.591 623.642 179.341C623.642 184.216 621.676 190.681 629.523 203.772C631.021 206.264 646.517 225.892 657.54 235.643C660.102 237.918 680.776 256.409 694.704 262.494C712.437 270.258 740.112 273.996 751.946 266.087C754.454 264.408 754.129 256.824 752.794 253.646C753.263 252.021 753.822 248.897 752.794 245.647C752.145 243.606 750.683 242.306 749.529 240.898C748.14 239.272 749.06 240.952 748.591 238.857C748.122 236.293 748.013 234.776 746.39 232.447C744.297 229.431 742.547 229.558 739.769 227.463C735.818 224.448 729.071 213.956 718.12 210.038Z" fill="#DAD8CC"/>
</g>
</g>
<path d="M603.202 171.215C597.862 172.244 595.444 175.603 594.668 180.19C593.784 185.336 599.106 189.417 603.508 189.146C609.642 188.785 613.575 183.819 613.34 178.023C613.088 173.129 607.604 170.042 603.202 171.215Z" fill="white"/>
<path d="M606.358 179.377C605.42 179.558 604.806 180.099 604.68 180.912C604.536 181.815 605.456 182.537 606.232 182.483C607.314 182.411 608 181.544 607.963 180.533C607.927 179.684 607.134 179.178 606.358 179.377Z" fill="black"/>
<path d="M618.572 238.045C616.713 235.264 615.324 232.465 611.842 233.404C609.064 234.108 606.015 238.984 604.392 241.078C602.534 243.408 600.459 247.037 598.601 249.132C595.353 252.851 595.083 246.441 591.403 248.427C589.941 249.222 595.353 254.693 597.897 254.477C599.521 254.242 602.299 249.872 603.616 247.958C606.484 243.769 612.059 236.51 613.448 236.799C615.288 237.16 616.01 239.995 618.572 238.045Z" fill="#814114"/>
<path d="M628.585 242.324C636.667 237.936 637.226 241.927 635.963 247.886C634.791 253.429 632.066 260.851 632.337 261.067C635.169 261.212 637.316 262.945 637.767 263.668C638.597 265.004 637.497 266.412 635.711 265.834C631.832 264.552 627.628 265.329 628.909 261.085C629.865 257.943 631.363 252.761 632.987 244.617C633.347 242.812 628.224 246.261 628.585 242.324Z" fill="#814114"/>
<path d="M603.689 226.524C601.632 214.895 593.388 223.057 589.707 227.68C586.37 231.887 585.233 233.928 583.141 234.379C581.282 234.848 577.476 230.388 576.484 233.602C575.726 236.04 580.723 239.345 583.05 238.64C585.829 237.936 587.254 235.697 588.859 233.765C591.151 231.02 592.63 228.998 595.354 226.416C596.671 225.17 597.808 223.653 599.431 224.122C600.838 224.592 601.614 228.619 603.689 226.524Z" fill="#814114"/>
<path d="M610.544 169.987C613.521 165.636 622.523 159.803 626.221 159.099" stroke="black" stroke-width="0.681" stroke-linecap="round"/>
<path d="M718.12 210.038C708.36 206.553 688.696 199.348 675.003 194.473C659.218 188.658 640.113 182.591 623.642 179.341C623.642 184.216 621.676 190.681 629.523 203.772C631.021 206.264 646.517 225.892 657.54 235.643C660.102 237.918 680.776 256.409 694.704 262.494C712.437 270.258 740.112 273.996 751.946 266.087C754.454 264.408 754.129 256.824 752.794 253.646C753.263 252.021 753.822 248.897 752.794 245.647C752.145 243.606 750.683 242.306 749.529 240.898C748.14 239.272 749.06 240.952 748.591 238.857C748.122 236.293 748.013 234.776 746.39 232.447C744.297 229.431 742.547 229.558 739.769 227.463C735.818 224.448 729.071 213.956 718.12 210.038Z" stroke="black" stroke-width="0.545" stroke-linecap="round"/>
<path d="M749.149 240.536C744.278 241.692 724.199 241.15 720.483 239.76C713.05 236.744 681.84 220.331 674.425 215.202C666.073 209.623 631.02 185.534 624.525 179.503" stroke="black" stroke-width="0.545" stroke-linecap="round"/>
<path d="M752.775 253.628C745.577 256.878 729.485 255.849 721.836 254.693C713.014 253.303 709.37 252.328 701.234 248.391C694.504 244.906 681.768 238.749 671.918 231.454C658.496 221.504 641.537 208.575 623.425 184.884" stroke="black" stroke-width="0.545" stroke-linecap="round"/>
<path d="M740.922 228.294C724.56 227.337 696.615 227.337 680.775 236.979" stroke="black" stroke-width="0.545" stroke-linecap="round"/>
<path d="M718.247 227.896C713.376 225.567 708.686 220.583 705.673 216.394C702.191 211.988 700.694 207.492 699.539 203.267" stroke="black" stroke-width="0.545" stroke-linecap="round"/>
<path d="M701.053 229.991C699.555 228.601 693.548 222.479 689.886 213.595C688.009 209.045 685.556 202.58 684.636 197.94" stroke="black" stroke-width="0.545" stroke-linecap="round"/>
<path d="M686.495 204.44C677.98 208.792 669.392 209.55 664.792 208.666" stroke="black" stroke-width="0.545" stroke-linecap="round"/>
<path d="M666.651 191.493C658.135 195.845 649.945 196.008 645.345 195.123" stroke="black" stroke-width="0.545" stroke-linecap="round"/>
<path d="M714.565 253.628C710.362 259.243 697.733 261.555 692.628 261.555" stroke="black" stroke-width="0.545" stroke-linecap="round"/>
<path d="M666.65 227.896C661.833 230.045 657.882 230.749 652.687 230.984" stroke="black" stroke-width="0.545" stroke-linecap="round"/>
<path d="M721.997 240.464C724.559 243.642 724.252 250.233 721.835 254.675" stroke="black" stroke-width="0.545" stroke-linecap="round"/>
<path d="M656.277 203.267C656.277 207.113 655.267 213.956 652.056 215.293" stroke="black" stroke-width="0.545" stroke-linecap="round"/>
<path d="M583.23 211.157C583.645 212.476 585.54 214.209 588.697 213.649C591.655 213.126 593.423 210.796 594.001 208.991" stroke="black" stroke-width="0.681" stroke-linecap="round"/>
<path d="M573.741 183.043C573.741 183.043 574.481 200.089 566.489 198.716C563.007 198.12 561.384 196.748 561.384 196.748C561.384 196.748 559.507 191.548 564.054 187.611C568.582 183.675 573.741 183.043 573.741 183.043Z" fill="#B1B841"/>
<path d="M655.173 469.361C653.954 477.471 656.445 487.56 657.346 495.759C657.488 497.031 655.491 497.031 655.35 495.759C654.431 487.401 651.728 477.1 653.247 468.831C653.477 467.559 655.35 468.142 655.173 469.361Z" fill="#FBBA00"/>
<path d="M653.071 485.44C652.205 486.977 651.322 488.514 650.421 490.034C649.802 491.094 647.7 494.045 647.558 494.487C647.276 495.352 647.594 496.766 648.795 495.971C649.661 495.388 650.226 494.186 650.756 493.32C652.152 491.059 653.477 488.762 654.785 486.429C655.421 485.334 653.707 484.327 653.071 485.44Z" fill="#FBBA00"/>
<path d="M654.095 484.733C650.014 485.952 648.812 486.536 644.925 488.356C643.83 488.868 644.307 490.776 645.42 490.246C649.307 488.409 650.491 487.843 654.572 486.624C655.739 486.271 655.244 484.38 654.095 484.733Z" fill="#FBBA00"/>
<path d="M636.48 467.665C636.162 473.672 636.374 479.627 637.045 485.599C637.187 486.871 639.148 486.465 639.007 485.193C638.353 479.397 638.176 473.619 638.477 467.789C638.547 466.499 636.551 466.375 636.48 467.665Z" fill="#FBBA00"/>
<path d="M636.957 483.496C635.331 484.044 629.059 485.458 628.193 485.988C626.886 486.765 626.974 488.302 628.158 488.143C629.554 487.967 630.278 487.649 631.586 487.295C633.617 486.748 635.614 486.058 637.611 485.387C638.812 484.963 638.176 483.072 636.957 483.496Z" fill="#FBBA00"/>
<path d="M636.975 484.345C635.579 486.465 630.791 491.094 630.296 491.766C630.243 491.836 630.173 491.889 630.119 491.978C629.483 492.95 630.773 493.974 631.621 493.268C634.378 491.024 636.692 488.409 638.653 485.44C639.36 484.362 637.682 483.284 636.975 484.345Z" fill="#FBBA00"/>
<path d="M637.275 485.864C637.24 487.331 637.523 493.267 637.752 495.017C637.911 496.289 639.908 496.236 639.749 494.946C639.501 492.949 639.607 486.359 638.636 484.398C638.07 483.249 637.045 484.398 637.275 485.864Z" fill="#FBBA00"/>
<path d="M577.273 365.891C583.139 373.895 587.538 375.626 583.81 386.299C590.736 391.635 588.474 413.88 590.595 422.414C593.793 433.617 597.521 446.409 606.585 454.413C608.192 456.003 619.907 465.085 620.984 464.537C625.26 464.007 624.712 452.275 625.26 449.077C626.32 435.754 624.73 422.414 625.79 409.074C626.868 392.536 649.978 373.877 624.271 357.816C624.447 351.791 629.518 345.96 636.656 342.391C627.151 342.267 620.013 348.063 615.136 353.681C618.334 341.949 628.476 335.465 639.677 331.206C626.886 329.068 611.938 338.68 605.542 349.865C612.468 329.598 632.204 325.34 646.073 312C631.144 320.534 615.684 324.792 604.482 338.133C599.146 343.999 597.008 351.455 590.612 356.261C587.944 358.399 575.329 364.884 576.919 366.474" fill="#E30613"/>
<path d="M635.225 369.177C638.635 375.786 643.918 399.71 646.603 404.622C657.275 424.888 677.541 435.542 691.923 452.611C680.191 459.537 672.717 465.403 658.318 468.601C647.646 470.739 636.992 469.662 626.32 466.994C605.524 462.188 594.323 426.461 603.387 407.802C606.054 402.466 611.92 400.328 615.118 395.54C618.316 390.751 618.316 384.337 621.514 379.549C623.864 375.821 634.677 368.135 635.225 369.177Z" fill="#F0EEDF"/>
<path d="M621.532 379.567C623.864 375.839 634.678 368.135 635.225 369.177L621.532 379.567Z" fill="white"/>
<path d="M681.516 458.954C674.643 463.071 668.088 466.463 658.335 468.619C647.664 470.757 637.01 469.679 626.338 467.011C622.398 466.11 618.811 464.096 615.648 461.304" stroke="#DAD8CC" stroke-width="0.251" stroke-linecap="round"/>
<path d="M635.225 369.177C636.938 372.481 639.112 380.114 641.197 387.535" stroke="#DAD8CC" stroke-width="0.251" stroke-linecap="round"/>
<path d="M642.15 390.097C634.147 393.296 633.811 416.354 635.401 424.358C639.129 437.15 653.865 444.889 664.466 450.897C674.554 456.622 683.918 460.085 695.12 463.813C710.58 469.679 730.846 472.347 747.383 472.347C737.79 465.951 726.588 461.675 717.524 454.219C708.46 446.215 674.342 415.824 665.808 407.29C657.787 398.755 651.744 395.434 642.15 390.097Z" fill="#C4C0B4"/>
<path d="M577.273 364.619C568.386 370.184 561.124 373.542 551 380.468C564.87 382.606 571.513 385.945 585.383 388.066C586.443 381.139 583.651 360.661 577.273 364.619Z" fill="#FBBA00"/>
<path d="M602.062 361.827C597.345 360.484 589.729 365.626 591.638 372.252C593.528 378.895 601.779 380.892 605.401 374.619C609.659 367.216 605.172 362.71 602.062 361.827Z" fill="white"/>
<path d="M596.585 371.351C598.652 371.351 598.652 368.152 596.585 368.152C594.517 368.152 594.517 371.351 596.585 371.351Z" fill="black"/>
<path d="M634.96 369.354C636.992 373.276 639.66 381.298 642.063 389.85" stroke="#DAD8CC" stroke-width="0.261" stroke-linecap="round"/>
<path d="M645.968 416.389C647.894 419.605 649.466 421.266 652.788 423.368" stroke="#DAD8CC" stroke-width="0.9" stroke-linecap="round"/>
<path d="M664.837 427.662C667.646 430.736 669.413 431.885 672.823 433.758" stroke="#DAD8CC" stroke-width="0.9" stroke-linecap="round"/>
<path d="M646.144 402.466C648.158 405.699 649.554 408.42 652.769 410.841" stroke="#DAD8CC" stroke-width="0.9" stroke-linecap="round"/>
<path d="M680.934 429.853C683.354 432.804 685.086 434.588 688.584 436.567" stroke="#DAD8CC" stroke-width="0.9" stroke-linecap="round"/>
<path d="M653.918 433.21C656.339 436.161 659.342 439.288 662.858 441.267" stroke="#DAD8CC" stroke-width="0.9" stroke-linecap="round"/>
<path d="M662.858 415.894C664.873 419.128 666.268 420.011 668.813 421.937" stroke="#DAD8CC" stroke-width="0.9" stroke-linecap="round"/>
<path d="M692.895 457.223C696.446 458.601 698.089 458.477 701.287 458.495" stroke="#DAD8CC" stroke-width="0.9" stroke-linecap="round"/>
<path d="M683.407 442.981C686.305 445.455 687.542 446.25 691.358 447.575" stroke="#DAD8CC" stroke-width="0.9" stroke-linecap="round"/>
<path d="M672.824 446.533C675.863 449.042 678.425 450.385 683.708 451.533" stroke="#DAD8CC" stroke-width="0.9" stroke-linecap="round"/>
<path d="M710.299 460.085C714.221 461.604 716.253 462.346 719.787 462.983" stroke="#DAD8CC" stroke-width="0.9" stroke-linecap="round"/>
<path d="M698.69 446.533C701.782 449.395 703.39 450.826 706.447 452.717" stroke="#DAD8CC" stroke-width="0.9" stroke-linecap="round"/>
<path d="M583.527 564.734C583.994 563.746 587.747 556.7 595.325 551.973C599.509 549.367 604.824 548.863 609.206 551.2C613.121 553.285 613.336 559.054 613.731 562.865C615.294 578.214 610.373 594.391 608.937 609.417C608.829 610.513 610.535 610.621 610.625 609.543C611.63 599.01 614.863 586.644 615.653 576.04C616.12 569.641 617.089 557.706 612.672 552.296C608.003 546.545 600.569 547.246 594.571 550.445C589.974 552.889 583.473 559.863 581.911 564.914C581.803 565.291 581.929 565.669 582.234 565.902C582.342 565.992 582.863 566.136 583.527 564.734Z" fill="#E30613"/>
<path d="M564.044 603.989C564.457 591.749 584.444 562.919 598.199 576.615C603.191 581.575 605.166 590.419 604.735 597.195C604.556 600.124 603.263 608.051 604.664 610.819C605.166 611.789 606.693 611.034 606.19 610.064C604.843 607.44 606.334 598.83 606.513 596.026C606.747 592.252 605.849 588.567 604.682 585.008C602.994 579.886 599.438 572.93 593.494 571.834C585.737 570.396 580.583 574.009 575.339 579.383C569.521 585.35 562.626 595.289 562.32 603.881C562.302 604.959 563.99 605.085 564.044 603.989Z" fill="#E30613"/>
<path d="M609.961 551.38C607.789 552.656 606.298 554.094 605.221 557.437C603.694 562.29 608.848 567.394 612.96 567.322C619.12 567.232 623.627 562.631 622.101 556.017C620.574 549.492 613.266 549.438 609.961 551.38Z" fill="black"/>
<path d="M575.951 574.368C569.199 575.231 564.853 584.002 569.414 590.095C572.862 594.714 578.752 593.456 581.948 591.623C584.983 589.771 585.701 586.105 585.612 582.348C585.504 578.25 580.871 573.739 575.951 574.368Z" fill="black"/>
<path d="M643.47 609.489C638.927 609.183 634.832 609.363 630.253 609.507C626.141 609.686 622.424 610.801 618.348 610.513C613.356 610.172 610.339 607.691 605.418 606.433C594.213 603.845 587.425 609.776 582.218 619.446C579.075 625.611 572.341 637.474 574.083 645.328C575.861 652.752 577.926 649.229 581.392 644.915C585.324 640.619 586.33 639.325 592.31 638.373C601.073 636.683 610.68 635.982 619.82 635.676C631.385 635.029 642.931 636.144 654.478 636.737C661.481 637.096 668.484 637.06 675.47 637.528C680.336 637.851 685.238 637.923 690.105 637.977C695.977 638.049 701.849 637.815 707.703 637.887C711.258 637.923 714.85 637.743 718.423 637.618C721.297 637.528 724.116 637.24 726.953 636.917C731.766 636.341 748.879 636.701 750.603 630.985C752.327 625.234 736.506 619.949 732.107 618.26C719.249 613.281 705.153 612.778 691.523 612.311C675.595 612.131 657.89 611.394 643.057 608.554" fill="#E30613"/>
<path d="M600.928 609.327C593.656 608.392 587.048 618.116 593.584 623.526C597.858 627.265 603.64 624.856 605.885 620.255C608.848 614.845 603.478 609.435 600.928 609.327Z" fill="white"/>
<path d="M597.552 615.492C595.954 615.294 594.499 617.415 595.936 618.601C596.87 619.428 598.145 618.889 598.648 617.882C599.294 616.696 598.109 615.51 597.552 615.492Z" fill="black"/>
<path d="M639.106 609.866C639.627 619.015 641.297 625.413 650.976 626.977C660.889 628.559 678.11 631.596 687.932 630.895C699.82 630.105 711.528 633.268 723.47 632.028C732.43 630.806 741.553 630.518 750.693 630.23C748.771 625.09 743.528 621.765 739.649 618.314C735.77 615.097 731.874 612.095 727.528 609.057C717.741 602.245 707.075 601.742 695.815 599.837C684.341 597.914 673.207 597.392 661.661 599.801C654.963 601.167 642.608 602.155 639.178 608.985L638.55 609.147L639.106 609.866Z" fill="black"/>
<path d="M625.781 650.307C626.158 644.825 626.859 639.217 629.049 634.041C629.624 632.909 630.684 629.655 632.461 630.266C633.772 630.698 633.072 633.645 634.149 634.706C635.694 636.485 637.256 635.587 637.741 633.448C638.01 631.812 636.969 630.069 636.25 628.523C632.066 619.069 626.428 628.523 624.883 634.077C623.321 639.972 622.549 646.407 620.502 652.105C618.437 650.631 615.133 650.235 613.319 652.446C610.787 655.448 614.791 655.376 617.108 655.376C620.771 655.466 625.242 657.083 625.781 650.307Z" fill="#B91919"/>
<path d="M670.154 625.521C669.023 627.444 660.978 640.565 667.73 639.181C671.447 638.426 671.645 633.124 673.153 630.554C674.5 627.804 678.666 622.753 682.365 624.838C686.854 627.48 684.161 638.588 683.55 642.704C683.012 645.832 682.868 653.686 682.922 650.523C682.922 650.505 681.144 657.479 685.705 659.33C688.04 660.265 694.702 662.565 695.312 658.449C695.887 654.818 690.141 655.016 687.824 654.872C687.824 650.217 688.507 647.413 688.525 644.43C688.578 641.105 688.489 637.6 688.722 634.113C689.153 627.804 686.711 616.984 677.858 619.878C676.332 620.273 671.734 623.472 670.154 625.521Z" fill="#B91919"/>
<path d="M720.973 612.472C730.706 613.641 728.371 626.132 727.096 632.549C725.803 639.289 724.313 646.515 724.008 653.506C726.809 653.866 731.496 651.188 733.471 653.974C736.201 658 729.359 660.534 726.54 660.498C722.212 660.372 719.213 660.498 718.872 655.645C718.638 651.799 719.231 647.845 719.5 643.855C719.824 639.217 720.775 634.778 721.601 629.997C721.925 627.678 724.385 620.848 721.673 619.177C718.62 617.469 712.874 623.58 711.078 625.629C708.564 628.469 707.11 632.531 704.775 635.209C700.627 639.936 700.34 631.902 701.525 629.152C702.351 626.869 704.255 623.311 706.715 620.974C710.845 617.092 717.058 612.005 720.973 612.472Z" fill="#B91919"/>
<path d="M586.671 639.451C591.43 635.065 589.831 631.309 589.831 631.309" stroke="black" stroke-width="0.645" stroke-linecap="round"/>
</svg>
