<svg width="928" height="553" viewBox="0 0 928 553" fill="none" xmlns="http://www.w3.org/2000/svg">
<path d="M258 120H690" stroke="#231F20" stroke-width="3" stroke-linecap="round" stroke-linejoin="round" stroke-dasharray="6 6"/>
<path d="M779.936 448.658C781.452 443.53 780.495 437.174 777.97 434.231" stroke="black" stroke-width="0.681" stroke-linecap="round"/>
<path d="M817.225 520.977C817.207 524.607 817.117 530.168 818.073 532.786C823.648 531.36 825.199 535.007 822.547 535.748C818.308 536.921 815.223 537.68 814.664 534.719C814.014 531.27 812.914 516.481 817.225 520.977Z" fill="#814114"/>
<path d="M790.255 453.498C788.145 447.051 777.988 443.964 770.321 447.683C764.295 450.699 757.71 454.653 752.154 458.608C746.11 463.014 738.605 466.354 735.124 473.776C732.345 480.276 737.415 487.896 742.701 491.851C750.783 497.918 760.976 498.677 763.934 498.55C765.612 500.211 767.344 503.426 769.022 505.448C776.202 514.115 789.552 522.115 798.121 524.661C802.757 526.051 811.146 527.658 815.801 528.128C821.61 528.832 832.669 530.295 838.478 528.904C847.985 526.81 870.788 519.749 855.688 506.477C849.771 501.277 835.627 490.298 831.694 487.517C828.682 485.657 808.693 467.474 804.706 464.476C798.951 460.125 793.106 455.935 790.255 453.498Z" fill="#998D32"/>
<path d="M804.688 464.44C804.562 464.35 804.435 464.26 804.309 464.151C804.255 464.35 804.201 464.549 804.129 464.765C801.387 475.238 776.725 492.032 764.854 499.616C766.226 501.367 767.633 503.787 769.004 505.43C771.241 508.138 774.073 510.775 777.194 513.194C783.256 511.858 791.554 509.095 800.34 503.426C811.742 496.058 819.77 486.65 823.901 481.071C816.829 474.949 807.304 466.427 804.688 464.44Z" fill="#B1B841"/>
<path d="M851.972 503.335C845.766 498.207 836.674 491.165 832.651 488.222C832.633 488.294 832.615 488.348 832.597 488.42C829.854 498.984 803.768 516.336 793.358 522.909C795.036 523.631 796.642 524.227 798.103 524.661C802.739 526.051 811.128 527.658 815.765 528.128C817.677 528.362 820.167 528.669 822.837 528.94C824.857 527.911 826.932 526.719 829.024 525.347C840.354 517.998 848.184 508.554 851.972 503.335Z" fill="#B1B841"/>
<g opacity="0.6">
<g opacity="0.6">
<path opacity="0.6" d="M891.12 489.269C881.36 485.784 861.696 478.579 848.003 473.704C832.218 467.889 813.113 461.822 796.642 458.572C796.642 463.447 794.676 469.912 802.523 483.003C804.021 485.495 819.517 505.123 830.54 514.874C833.102 517.149 853.776 535.639 867.704 541.725C885.437 549.489 913.112 553.227 924.946 545.318C927.454 543.639 927.129 536.055 925.794 532.877C926.263 531.252 926.822 528.128 925.794 524.877C925.145 522.837 923.683 521.537 922.529 520.128C921.14 518.503 922.06 520.183 921.591 518.088C921.122 515.524 921.013 514.007 919.39 511.678C917.297 508.662 915.547 508.789 912.769 506.694C908.818 503.678 902.071 493.187 891.12 489.269Z" fill="#DAD8CC"/>
</g>
</g>
<path d="M776.202 450.446C770.862 451.475 768.444 454.834 767.668 459.42C766.784 464.567 772.106 468.648 776.508 468.377C782.642 468.016 786.575 463.05 786.34 457.254C786.088 452.36 780.604 449.272 776.202 450.446Z" fill="white"/>
<path d="M779.358 458.608C778.42 458.788 777.806 459.33 777.68 460.143C777.536 461.046 778.456 461.768 779.232 461.714C780.314 461.641 781 460.775 780.963 459.764C780.927 458.915 780.134 458.409 779.358 458.608Z" fill="black"/>
<path d="M791.572 517.275C789.713 514.495 788.324 511.696 784.842 512.635C782.064 513.339 779.015 518.214 777.392 520.309C775.534 522.638 773.459 526.268 771.601 528.362C768.353 532.082 768.083 525.672 764.403 527.658C762.941 528.453 768.353 533.924 770.897 533.707C772.521 533.473 775.299 529.103 776.616 527.189C779.484 523 785.059 515.741 786.448 516.03C788.288 516.391 789.01 519.226 791.572 517.275Z" fill="#814114"/>
<path d="M801.585 521.555C809.667 517.167 810.226 521.158 808.963 527.116C807.791 532.66 805.066 540.081 805.337 540.298C808.169 540.443 810.316 542.176 810.767 542.898C811.597 544.235 810.497 545.643 808.711 545.065C804.832 543.783 800.628 544.56 801.909 540.316C802.865 537.174 804.363 531.992 805.987 523.848C806.347 522.042 801.224 525.491 801.585 521.555Z" fill="#814114"/>
<path d="M776.689 505.755C774.632 494.126 766.388 502.288 762.707 506.911C759.37 511.118 758.233 513.158 756.141 513.61C754.282 514.079 750.476 509.619 749.484 512.833C748.726 515.271 753.723 518.575 756.05 517.871C758.829 517.167 760.254 514.928 761.859 512.996C764.151 510.251 765.63 508.229 768.354 505.647C769.671 504.401 770.808 502.884 772.431 503.353C773.838 503.823 774.614 507.85 776.689 505.755Z" fill="#814114"/>
<path d="M783.544 449.218C786.521 444.866 795.523 439.034 799.221 438.33" stroke="black" stroke-width="0.681" stroke-linecap="round"/>
<path d="M891.12 489.269C881.36 485.784 861.696 478.579 848.003 473.704C832.218 467.889 813.113 461.822 796.642 458.572C796.642 463.447 794.676 469.912 802.523 483.003C804.021 485.495 819.517 505.123 830.54 514.874C833.102 517.149 853.776 535.639 867.704 541.725C885.437 549.489 913.112 553.227 924.946 545.318C927.454 543.639 927.129 536.055 925.794 532.877C926.263 531.252 926.822 528.128 925.794 524.877C925.145 522.837 923.683 521.537 922.529 520.128C921.14 518.503 922.06 520.183 921.591 518.088C921.122 515.524 921.013 514.007 919.39 511.678C917.297 508.662 915.547 508.789 912.769 506.694C908.818 503.678 902.071 493.187 891.12 489.269Z" stroke="black" stroke-width="0.545" stroke-linecap="round"/>
<path d="M922.149 519.767C917.278 520.923 897.199 520.381 893.483 518.991C886.05 515.975 854.84 499.561 847.425 494.433C839.073 488.854 804.02 464.765 797.525 458.734" stroke="black" stroke-width="0.545" stroke-linecap="round"/>
<path d="M925.775 532.859C918.577 536.109 902.485 535.08 894.836 533.924C886.014 532.534 882.37 531.559 874.234 527.622C867.504 524.137 854.768 517.98 844.918 510.685C831.496 500.735 814.537 487.806 796.425 464.115" stroke="black" stroke-width="0.545" stroke-linecap="round"/>
<path d="M913.922 507.524C897.56 506.567 869.615 506.567 853.775 516.21" stroke="black" stroke-width="0.545" stroke-linecap="round"/>
<path d="M891.247 507.127C886.376 504.798 881.686 499.814 878.673 495.625C875.191 491.219 873.694 486.723 872.539 482.497" stroke="black" stroke-width="0.545" stroke-linecap="round"/>
<path d="M874.053 509.222C872.555 507.831 866.548 501.71 862.886 492.826C861.009 488.276 858.556 481.811 857.636 477.171" stroke="black" stroke-width="0.545" stroke-linecap="round"/>
<path d="M859.495 483.671C850.98 488.023 842.392 488.781 837.792 487.896" stroke="black" stroke-width="0.545" stroke-linecap="round"/>
<path d="M839.651 470.724C831.135 475.076 822.945 475.238 818.345 474.354" stroke="black" stroke-width="0.545" stroke-linecap="round"/>
<path d="M887.565 532.859C883.362 538.474 870.733 540.786 865.628 540.786" stroke="black" stroke-width="0.545" stroke-linecap="round"/>
<path d="M839.65 507.127C834.833 509.276 830.882 509.98 825.687 510.215" stroke="black" stroke-width="0.545" stroke-linecap="round"/>
<path d="M894.997 519.695C897.559 522.873 897.252 529.464 894.835 533.906" stroke="black" stroke-width="0.545" stroke-linecap="round"/>
<path d="M829.277 482.497C829.277 486.344 828.267 493.187 825.056 494.523" stroke="black" stroke-width="0.545" stroke-linecap="round"/>
<path d="M756.23 490.388C756.645 491.706 758.54 493.44 761.697 492.88C764.655 492.357 766.423 490.027 767.001 488.222" stroke="black" stroke-width="0.681" stroke-linecap="round"/>
<path d="M746.741 462.274C746.741 462.274 747.481 479.319 739.489 477.947C736.007 477.351 734.384 475.979 734.384 475.979C734.384 475.979 732.507 470.778 737.054 466.842C741.582 462.905 746.741 462.274 746.741 462.274Z" fill="#B1B841"/>
<path d="M826.399 334.161C827.939 338.858 829.323 344.045 830.023 348.759C831.074 356.26 833.682 365.425 833.157 372.926C832.457 382.004 830.233 383.266 826.749 391.467C825.873 393.395 823.265 397.671 822.232 399.424C820.831 401.86 820.796 403.822 818.012 403.998C815.053 403.998 802.114 403.98 799.715 405.102C799.278 405.312 799.015 405.627 798.84 405.978C802.692 406.942 811.621 405.82 815.613 405.995C812.689 407.941 805.283 409.991 802.849 414.18C805.283 414.53 809.047 412.234 811.324 411.183C813.932 410.131 816.454 408.063 819.063 407.187C817.487 410.499 812.619 413.987 812.794 418C819.728 413.058 825.856 398.635 827.957 394.972C830.058 391.485 832.649 384.352 834.225 380.865C835.959 377.027 839.618 377.658 837.359 373.119C835.608 369.807 835.346 363.866 835.066 359.975C834.505 352.562 833.7 346.674 833.175 339.348C833.052 337.403 832.929 335.458 832.702 333.53C832.597 332.671 827.414 334.792 827.257 333.951" fill="#F3A5C2"/>
<path d="M809.362 330.726C808.312 343.817 801.711 364.567 800.87 367.493C798.857 374.433 796.563 381.478 792.554 387.577C790.47 390.714 788.684 393.868 787.564 394.376C784.079 395.603 779.527 396.76 775.868 396.917C774.117 397.093 766.763 397.811 766.413 400.072C768.497 400.948 772.454 399.318 774.712 399.143C777.846 398.793 780.42 398.162 783.642 397.759C781.12 399.949 771.806 402.56 770.948 407.099C775.29 406.03 782.276 401.158 785.935 398.547C785.06 402.035 778.389 406.819 779.492 410.324C781.033 408.589 783.764 406.539 786.075 403.594C788.579 400.405 790.12 396.549 790.628 394.902C793.429 391.765 796.756 385.859 798.839 382.021C800.59 378.709 800.433 375.747 802.709 372.786C803.759 371.384 805.108 371.506 805.825 369.964C806.456 368.615 805.755 367.651 805.405 365.741C804.88 362.604 807.384 356.698 808.434 353.736C811.043 346.586 812.286 341.591 814.387 334.266C814.912 332.338 815.928 331.409 816.278 329.482C814.352 328.956 811.936 331.409 810.185 332.268" fill="#F3A5C2"/>
<path d="M800.451 278.714C802.324 270.39 824.594 205.318 817.415 199.342C815.384 197.659 813.038 196.415 810.377 195.819C796.755 192.875 775.114 199.833 770.579 213.467C770.492 213.712 770.492 214.063 770.527 214.448C770.597 215.377 770.894 216.569 770.947 217.182C771.175 220.337 771.297 223.509 771.42 226.663C771.612 231.675 774.309 236.197 774.606 241.331C774.781 244.504 774.624 247.588 774.309 250.672" fill="#F0EFE5"/>
<path d="M774.291 250.672C773.871 254.51 773.171 258.296 772.453 262.116C771.385 267.794 770.282 274.471 770.352 280.184C770.492 290.156 774.221 300.951 777.881 310.222C781.417 319.195 786.793 328.483 796.23 332.181C808.521 337 825.872 341.539 838.969 339.664C848.616 338.139 858.264 336.141 867.683 334.336C868.174 334.248 868.664 334.143 869.154 334.056C873.969 333.25 884.107 330.586 888.659 329.236C891.11 328.518 897.956 328.641 898.639 325.696C896.135 325.451 893.579 325.013 891.04 324.61C883.249 323.401 878.609 318.932 872.008 314.901C869.382 313.289 866.808 312.412 864.357 310.415C853.484 301.617 842.768 291.33 828.551 288.579C821.6 287.247 816.803 285.915 810.92 281.902" fill="#F0EFE5"/>
<path d="M771.404 226.663C771.597 231.675 774.293 236.197 774.591 241.331C774.766 244.503 774.626 247.588 774.293 250.672" stroke="#DAD8CC" stroke-width="0.245" stroke-linecap="round"/>
<path d="M817.662 199.552C815.579 197.765 813.145 196.433 810.379 195.819C796.757 192.875 775.116 199.833 770.581 213.467C770.511 213.677 770.494 213.94 770.511 214.256" stroke="#DAD8CC" stroke-width="0.245" stroke-linecap="round"/>
<path d="M828.114 288.509C822.966 287.51 819.605 286.703 815.49 284.618" stroke="#DAD8CC" stroke-width="0.245" stroke-linecap="round"/>
<path d="M774.291 250.672C773.871 254.51 773.171 258.296 772.453 262.116C771.385 267.794 770.282 274.471 770.352 280.184C770.492 290.156 774.221 300.951 777.881 310.222C781.417 319.195 786.793 328.483 796.23 332.181C808.521 337 825.872 341.539 838.969 339.664C848.686 338.121 858.386 336.106 867.858 334.301" stroke="#DAD8CC" stroke-width="0.245" stroke-linecap="round"/>
<path d="M816.82 200.779C819.114 197.151 825.54 191.999 829.532 191C828.079 192.139 823.036 197.204 821.705 200.411C824.91 198.536 827.746 197.589 831.493 197.589C824.279 199.99 822.423 203.881 818.957 210.575C818.414 208.7 814.457 208.91 814.177 207.561C813.914 205.966 815.682 202.566 816.82 200.779Z" fill="black"/>
<path d="M815.49 284.618C814.001 283.864 812.478 283.006 810.902 281.919C802.621 276.311 807.961 270.686 810.377 262.94C812.776 255.719 815.192 249.305 818.659 242.348C821.6 236.74 824.524 231.658 825.872 225.244C827.273 219.022 825.837 210.978 822.038 204.827C820.497 207.824 810.535 206.036 804.354 207.386C802.288 207.841 803.356 211.802 801.693 212.188C797.858 213.081 792.693 216.534 795.144 216.937C805.23 218.514 809.187 223.298 809.537 228.048C810.885 246.379 767.813 269.897 778.861 290.506C785.83 302.932 803.969 293.012 815.49 284.618Z" fill="black"/>
<path d="M793.904 222.264C800.032 223.456 804.531 219.057 805.022 212.731C805.582 205.563 800.872 202.707 795.9 203.127C785.534 204.021 780.229 219.583 793.904 222.264Z" fill="black"/>
<path d="M781.787 231.377C779.108 236.197 786.321 239.667 788.195 232.709" stroke="black" stroke-width="0.604" stroke-miterlimit="10" stroke-linecap="round"/>
<path d="M898.623 325.696C896.119 325.451 893.563 325.013 891.024 324.61C883.233 323.401 878.593 318.932 872.009 314.901C869.383 313.289 866.809 312.412 864.358 310.415C853.485 301.617 842.787 291.33 828.553 288.579C828.413 288.544 828.272 288.526 828.132 288.491C827.345 289.192 826.592 289.911 825.874 290.717C821.864 294.73 815.999 300.338 816.261 306.752C816.524 313.446 822.407 316.636 827.747 319.861C839.11 326.941 854.746 332.093 868.158 334.213C868.473 334.161 868.823 334.091 869.138 334.021C873.953 333.215 884.091 330.551 888.643 329.201C891.077 328.518 897.923 328.641 898.623 325.696Z" fill="black"/>
<path d="M755.138 230.606C758.43 229.835 761.739 229.082 765.048 228.398C766.606 228.083 768.147 227.767 769.705 227.469C771.229 227.189 771.736 226.803 772.367 225.331C772.839 224.21 773.172 222.948 773.277 221.721C773.435 219.951 772.997 218.164 772.174 216.586C771.911 216.078 771.316 214.694 770.756 214.483C770.09 214.238 769.39 214.974 768.83 215.254C766.414 216.464 763.98 217.62 761.529 218.759C756.171 221.213 750.743 223.526 745.298 225.804C733.847 230.589 722.221 235.093 711.051 240.543C724.165 237.213 738.172 234.584 755.138 230.606Z" fill="black"/>
<path d="M794.304 204.81C787.826 206.404 782.328 218.97 794.742 220.862C799.452 221.581 803.742 217.322 803.654 211.609C803.567 205.844 798.962 203.67 794.304 204.81Z" fill="white"/>
<path d="M792.643 213.607C795.094 214.08 795.847 210.277 793.396 209.804C791.54 209.436 790.192 213.116 792.643 213.607Z" fill="black"/>
<path d="M769.985 17.621C769.985 25.0395 775.818 31.0584 782.981 31.0584C790.156 31.0584 795.984 25.0395 795.984 17.621C795.984 10.1961 790.156 4.18799 782.981 4.18799C775.818 4.18799 769.985 10.1961 769.985 17.621Z" fill="#7DC327"/>
<path d="M805.569 22.2834C804.666 30.6766 811.566 36.1219 818.941 36.1219C826.324 36.1219 831.706 30.5235 832.323 22.2856C832.894 14.6644 826.3 9.14152 818.941 8.45359C811.096 7.72253 806.408 14.6924 805.569 22.2834Z" fill="#7DC327"/>
<path d="M793.317 78.1763C793.317 78.1763 780.215 103.134 775.007 106.86C770.792 109.884 768.961 108.314 768.961 108.314C768.961 108.314 756.799 104.231 758.544 106.988C760.29 109.754 768.321 111.428 768.321 111.428C768.321 111.428 753.891 112.118 755.846 113.904C757.787 115.672 769.77 115.87 769.77 115.87C769.77 115.87 754.553 119.953 758.108 120.761C763.074 121.889 775.911 119.89 777.724 117.033C779.54 114.169 793.735 94.0441 797.619 89.58C801.478 85.1203 793.317 78.1763 793.317 78.1763Z" fill="#7DC327"/>
<mask id="mask0" mask-type="alpha" maskUnits="userSpaceOnUse" x="755" y="78" width="44" height="44">
<path d="M793.317 78.1764C793.317 78.1764 780.215 103.134 775.007 106.86C770.792 109.884 768.961 108.314 768.961 108.314C768.961 108.314 756.799 104.232 758.544 106.988C760.29 109.754 768.321 111.428 768.321 111.428C768.321 111.428 753.891 112.118 755.846 113.904C757.787 115.672 769.77 115.87 769.77 115.87C769.77 115.87 754.553 119.953 758.108 120.761C763.074 121.889 775.911 119.89 777.724 117.033C779.54 114.169 793.735 94.0441 797.619 89.5801C801.478 85.1204 793.317 78.1764 793.317 78.1764Z" fill="#7DC327"/>
</mask>
<g mask="url(#mask0)">
<path d="M769.938 104.794C769.938 104.794 768.355 109.718 768.321 111.428C768.291 112.847 769.677 116.271 770.216 117.585C770.693 118.739 771.853 121.497 771.853 121.497C771.853 121.497 769.584 126.017 768.491 126.286C767.398 126.56 761.656 129.172 757.556 127.457C753.455 125.739 746.896 123.282 745.802 118.085C744.707 112.888 748.263 103.591 748.263 103.591L760.838 102.478L769.938 104.794Z" fill="#FF0000"/>
</g>
<path d="M772.65 17.621C772.65 23.5191 777.289 28.3045 782.981 28.3045C788.689 28.3045 793.321 23.5191 793.321 17.621C793.321 11.7186 788.691 6.93973 782.981 6.93973C777.291 6.93973 772.65 11.7186 772.65 17.621Z" fill="white"/>
<path d="M813.222 14.341C787.02 10.5196 741.35 36.096 741.477 50.0704C741.667 70.1671 778.387 69.4317 778.387 69.4317C778.387 69.4317 791.838 79.3949 797.617 89.5801C815.499 110.382 860.846 131.372 877.498 128.73C888.421 126.998 890.776 118.504 885.92 86.1771C880.905 52.8264 842.255 38.8047 842.255 38.8047C842.255 38.8047 837.077 17.8216 813.222 14.341Z" fill="#7DC327"/>
<path d="M808.605 22.2791C807.911 28.7595 813.241 32.9647 818.936 32.9647C824.639 32.9647 828.797 28.643 829.276 22.2791C829.713 16.3939 824.622 12.1283 818.936 11.5978C812.875 11.0285 809.258 16.4155 808.605 22.2791Z" fill="white"/>
<path d="M816.995 22.2942C816.857 23.5191 817.875 24.3127 818.966 24.3127C820.044 24.3127 820.829 23.5018 820.926 22.2942C820.997 21.1792 820.04 20.3619 818.966 20.2649C817.799 20.1592 817.111 21.1857 816.995 22.2942Z" fill="black"/>
<path d="M778.871 15.5809C778.744 16.6743 779.641 17.386 780.618 17.386C781.571 17.386 782.281 16.6527 782.358 15.5809C782.432 14.5868 781.565 13.86 780.618 13.7759C779.592 13.681 778.973 14.5868 778.871 15.5809Z" fill="black"/>
<path d="M778.387 69.4316C778.387 69.4316 789.511 70.1886 806.995 60.3656C841.108 110.345 874.531 119.338 877.5 128.732C877.853 129.845 834.36 123.168 809.138 101.467C798.691 92.4741 778.387 69.4316 778.387 69.4316Z" fill="#FFE610"/>
<path d="M752.32 50.4132C752.32 51.0709 752.855 51.6122 753.53 51.6122C754.203 51.6122 754.744 51.0709 754.744 50.4132C754.744 49.7382 754.203 49.2055 753.53 49.2055C752.857 49.2076 752.32 49.7403 752.32 50.4132Z" fill="black"/>
<path d="M745.259 48.4508C745.259 49.2142 745.878 49.8374 746.641 49.8374C747.413 49.8374 748.032 49.2163 748.032 48.4508C748.032 47.6873 747.415 47.0727 746.641 47.0727C745.878 47.0749 745.259 47.6895 745.259 48.4508Z" fill="black"/>
<path d="M806.936 85.1161C806.936 85.1161 797.703 113.888 793.341 118.577C789.813 122.385 787.711 121.214 787.711 121.214C787.711 121.214 774.973 119.64 777.235 121.993C779.504 124.356 787.711 124.384 787.711 124.384C787.711 124.384 773.703 127.938 775.967 129.299C778.225 130.651 790.018 128.452 790.018 128.452C790.018 128.452 775.913 135.495 779.568 135.566C784.64 135.689 796.823 131.16 798.029 128.005C799.243 124.829 812.45 97.3048 815.357 92.1528C818.923 86.1771 806.936 85.1161 806.936 85.1161Z" fill="#7DC327"/>
<mask id="mask1" mask-type="alpha" maskUnits="userSpaceOnUse" x="775" y="85" width="42" height="51">
<path d="M806.936 85.1161C806.936 85.1161 797.703 113.888 793.341 118.577C789.813 122.385 787.711 121.214 787.711 121.214C787.711 121.214 774.973 119.64 777.235 121.993C779.504 124.356 787.711 124.384 787.711 124.384C787.711 124.384 773.703 127.938 775.967 129.299C778.225 130.651 790.018 128.452 790.018 128.452C790.018 128.452 775.913 135.495 779.568 135.566C784.64 135.689 796.823 131.16 798.029 128.005C799.243 124.829 812.45 97.3048 815.357 92.1528C818.923 86.1771 806.936 85.1161 806.936 85.1161Z" fill="#7DC327"/>
</mask>
<g mask="url(#mask1)">
<path d="M788.818 115.855C788.818 115.855 788.098 120.981 788.359 122.67C788.575 124.072 790.524 127.214 791.279 128.411C791.949 129.467 793.562 131.982 793.562 131.982C793.562 131.982 792.098 136.825 791.072 137.28C790.039 137.74 784.827 141.294 780.495 140.3C776.163 139.31 769.278 138.011 767.313 133.075C765.349 128.143 767.262 118.376 767.262 118.376L779.464 115.133L788.818 115.855Z" fill="#FF0000"/>
</g>
<path d="M759.836 105.594C759.836 106.744 758.9 107.68 757.75 107.68C756.597 107.68 755.663 106.744 755.663 105.594C755.663 104.441 756.597 103.505 757.75 103.505C758.9 103.505 759.836 104.441 759.836 105.594Z" fill="#FD0706"/>
<path d="M757.129 113.615C757.129 114.768 756.195 115.7 755.044 115.7C753.892 115.7 752.954 114.768 752.954 113.615C752.954 112.465 753.892 111.529 755.044 111.529C756.195 111.529 757.129 112.463 757.129 113.615Z" fill="#FD0706"/>
<path d="M759.212 120.707C759.212 121.857 758.281 122.793 757.129 122.793C755.978 122.793 755.042 121.857 755.042 120.707C755.042 119.554 755.978 118.622 757.129 118.622C758.281 118.622 759.212 119.554 759.212 120.707Z" fill="#FD0706"/>
<path d="M778.615 121.085C778.615 122.234 777.683 123.166 776.532 123.166C775.38 123.166 774.444 122.234 774.444 121.085C774.444 119.931 775.38 118.995 776.532 118.995C777.683 118.995 778.615 119.931 778.615 121.085Z" fill="#FD0706"/>
<path d="M777.802 128.734C777.802 129.883 776.871 130.815 775.719 130.815C774.568 130.815 773.632 129.883 773.632 128.734C773.632 127.58 774.568 126.644 775.719 126.644C776.871 126.644 777.802 127.58 777.802 128.734Z" fill="#FD0706"/>
<path d="M781.533 135.171C781.533 136.321 780.599 137.257 779.45 137.257C778.298 137.257 777.362 136.321 777.362 135.171C777.362 134.017 778.298 133.082 779.45 133.082C780.601 133.082 781.533 134.017 781.533 135.171Z" fill="#FD0706"/>
<path d="M778.387 68.7696C808.256 68.7696 808.256 54.2777 808.256 54.2777" stroke="black" stroke-width="0.665" stroke-linecap="round"/>
<path d="M861.081 103.505C851.529 98.9675 831.171 85.4267 823.32 95.9139C815.482 106.401 837.668 132.204 837.668 132.204C837.668 132.204 800.609 132.616 802.714 135.094C804.801 137.574 821.176 135.961 821.176 135.961C821.176 135.961 801.239 139.691 801.78 141.949C802.319 144.216 822.203 139.223 822.203 139.223C822.203 139.223 806.423 148.039 808.09 149.79C809.741 151.544 823.796 144.934 835.007 141.13C846.209 137.321 853.677 142.553 852.902 137.727C852.111 132.905 839.279 119.439 839.279 119.439C839.279 119.439 859.091 130.858 868.874 130.811C892.993 130.709 869.864 107.68 861.081 103.505Z" fill="#96CE17"/>
<mask id="mask2" mask-type="alpha" maskUnits="userSpaceOnUse" x="801" y="92" width="79" height="59">
<path d="M861.081 103.505C851.529 98.9675 831.171 85.4267 823.32 95.9139C815.482 106.401 837.668 132.204 837.668 132.204C837.668 132.204 800.609 132.616 802.714 135.094C804.801 137.574 821.176 135.961 821.176 135.961C821.176 135.961 801.239 139.691 801.78 141.949C802.319 144.216 822.203 139.223 822.203 139.223C822.203 139.223 806.423 148.039 808.09 149.79C809.741 151.544 823.796 144.934 835.007 141.13C846.209 137.321 853.677 142.553 852.902 137.727C852.111 132.905 839.279 119.439 839.279 119.439C839.279 119.439 859.091 130.858 868.874 130.811C892.993 130.709 869.864 107.68 861.081 103.505Z" fill="#96CE17"/>
</mask>
<g mask="url(#mask2)">
<path d="M820.777 129.758C820.777 129.758 820.521 134.386 821.179 135.963C822.341 138.734 823.415 140.938 824.266 142.066C825.017 143.068 826.83 145.443 826.83 145.443C826.83 145.443 825.774 150.388 824.784 150.927C823.79 151.466 818.895 155.438 814.494 154.807C810.093 154.175 803.124 153.446 800.76 148.691C798.397 143.935 799.497 134.046 799.497 134.046L811.393 129.808L820.777 129.758Z" fill="#FF0000"/>
</g>
<path d="M804.937 134.91C805.034 136.06 804.176 137.063 803.033 137.16C801.881 137.257 800.877 136.401 800.782 135.255C800.687 134.106 801.538 133.099 802.688 133.002C803.835 132.909 804.844 133.759 804.937 134.91Z" fill="#FD0706"/>
<path d="M804.333 141.35C804.425 142.499 803.569 143.506 802.422 143.599C801.279 143.696 800.27 142.84 800.173 141.695C800.078 140.545 800.932 139.538 802.082 139.441C803.227 139.348 804.234 140.2 804.333 141.35Z" fill="#FD0706"/>
<path d="M810.332 149.564C810.425 150.709 809.573 151.716 808.426 151.809C807.275 151.906 806.272 151.05 806.175 149.905C806.082 148.755 806.934 147.748 808.083 147.655C809.228 147.558 810.237 148.412 810.332 149.564Z" fill="#FD0706"/>
<path d="M862.968 93.7077C863.639 91.4973 865.972 90.2465 868.182 90.9107C870.388 91.5814 871.643 93.9148 870.975 96.1209C870.308 98.3313 867.975 99.5821 865.765 98.9136C863.555 98.2494 862.304 95.916 862.968 93.7077Z" fill="#FF0000"/>
<path d="M877.809 100.402C878.193 99.1335 879.532 98.4176 880.8 98.8014C882.064 99.1853 882.78 100.52 882.396 101.788C882.012 103.052 880.682 103.768 879.414 103.384C878.148 103.005 877.43 101.67 877.809 100.402Z" fill="#FF0000"/>
<path d="M848.857 82.0064C849.152 81.0381 850.174 80.4882 851.14 80.7815C852.109 81.0769 852.661 82.0948 852.361 83.0674C852.074 84.0314 851.052 84.5791 850.082 84.288C849.113 83.9947 848.57 82.9768 848.857 82.0064Z" fill="#FF0000"/>
<path d="M870.97 105.679C871.261 104.71 872.283 104.163 873.253 104.458C874.221 104.749 874.769 105.771 874.474 106.742C874.178 107.706 873.161 108.253 872.194 107.962C871.224 107.667 870.676 106.647 870.97 105.679Z" fill="#FF0000"/>
<path d="M880.191 89.496C879.647 91.2816 877.769 92.293 875.984 91.7496C874.203 91.2147 873.196 89.3278 873.73 87.5465C874.269 85.7695 876.156 84.7538 877.933 85.2972C879.718 85.832 880.725 87.7147 880.191 89.496Z" fill="#FF0000"/>
<path d="M860.889 72.261C860.717 74.1156 859.074 75.4828 857.222 75.306C855.369 75.1356 854.004 73.488 854.177 71.6334C854.345 69.7831 855.992 68.4202 857.845 68.5927C859.697 68.7631 861.062 70.4085 860.889 72.261Z" fill="#FF0000"/>
<path d="M874.721 76.6021C874.514 78.8298 872.543 80.4709 870.315 80.2617C868.088 80.0525 866.453 78.0815 866.66 75.8495C866.867 73.6326 868.842 71.9914 871.07 72.2006C873.293 72.4076 874.93 74.383 874.721 76.6021Z" fill="#FF0000"/>
<path d="M859.026 83.9731C859.41 82.705 860.749 81.9891 862.013 82.3686C863.281 82.7525 863.997 84.0917 863.613 85.3598C863.233 86.6235 861.894 87.3394 860.626 86.9556C859.365 86.5696 858.649 85.2368 859.026 83.9731Z" fill="#FF0000"/>
<path d="M50.459 288.01C50.459 301.806 39.2713 312.977 25.4937 312.977C11.716 312.977 0.52832 301.789 0.52832 288.01C0.52832 274.215 11.6984 263.044 25.4937 263.044C39.2889 263.044 50.459 274.215 50.459 288.01Z" fill="#2FAC66"/>
<path d="M106.062 269.246C106.062 283.042 94.8738 294.212 81.0962 294.212C67.3186 294.212 56.1309 283.024 56.1309 269.246C56.1309 255.45 67.301 244.28 81.0962 244.28C94.8914 244.28 106.062 255.45 106.062 269.246Z" fill="#2FAC66"/>
<path d="M163.641 263.044C163.641 276.84 152.453 288.01 138.675 288.01C124.898 288.01 113.71 276.822 113.71 263.044C113.71 249.248 124.88 238.078 138.675 238.078C152.471 238.078 163.641 249.248 163.641 263.044Z" fill="#2FAC66"/>
<path d="M143.396 317.241C143.396 331.036 132.209 342.207 118.431 342.207C104.636 342.207 93.4658 331.019 93.4658 317.241C93.4658 303.445 104.654 292.274 118.431 292.274C132.209 292.257 143.396 303.445 143.396 317.241Z" fill="#2FAC66"/>
<path d="M18.8701 277.069C18.8701 276.875 18.9934 276.752 19.1872 276.752H32.1544C32.3482 276.752 32.4716 276.875 32.4716 277.069V279.06C32.4716 279.254 32.3482 279.377 32.1544 279.377H21.8829C21.7595 279.377 21.6891 279.447 21.6891 279.571V285.914C21.6891 286.037 21.7595 286.107 21.8829 286.107H30.604C30.7978 286.107 30.9211 286.231 30.9211 286.425V288.416C30.9211 288.609 30.7978 288.733 30.604 288.733H21.8829C21.7595 288.733 21.6891 288.803 21.6891 288.926V295.498C21.6891 295.622 21.7595 295.692 21.8829 295.692H32.1544C32.3482 295.692 32.4716 295.816 32.4716 296.009V298C32.4716 298.194 32.3482 298.318 32.1544 298.318H19.1872C18.9934 298.318 18.8701 298.194 18.8701 298V277.069Z" fill="white"/>
<path d="M79.8113 279.447C79.6175 279.447 79.4942 279.324 79.4942 279.13V260.701C79.4942 260.577 79.4237 260.507 79.3004 260.507H73.3982C73.2044 260.507 73.0811 260.384 73.0811 260.19V258.199C73.0811 258.005 73.2044 257.882 73.3982 257.882H88.4091C88.6029 257.882 88.7262 258.005 88.7262 258.199V260.19C88.7262 260.384 88.6029 260.507 88.4091 260.507H82.5069C82.3836 260.507 82.3131 260.577 82.3131 260.701V279.13C82.3131 279.324 82.1898 279.447 81.996 279.447H79.8113Z" fill="white"/>
<path d="M144.049 274.673C143.82 274.673 143.732 274.585 143.644 274.356L139.327 265.528H134.57C134.447 265.528 134.377 265.599 134.377 265.722V274.356C134.377 274.549 134.253 274.673 134.059 274.673H131.875C131.681 274.673 131.558 274.549 131.558 274.356V253.424C131.558 253.23 131.681 253.107 131.875 253.107H139.68C143.714 253.107 146.445 255.574 146.445 259.326C146.445 262.251 144.789 264.366 142.199 265.194L146.798 274.303C146.921 274.497 146.833 274.69 146.604 274.69H144.049V274.673ZM143.609 259.309C143.609 257.054 142.111 255.732 139.609 255.732H134.57C134.447 255.732 134.377 255.803 134.377 255.926V262.709C134.377 262.833 134.447 262.903 134.57 262.903H139.609C142.111 262.903 143.609 261.564 143.609 259.309Z" fill="white"/>
<path d="M116.668 306.669C116.668 306.475 116.791 306.352 116.985 306.352H119.17C119.364 306.352 119.487 306.475 119.487 306.669V327.601C119.487 327.794 119.364 327.918 119.17 327.918H116.985C116.791 327.918 116.668 327.794 116.668 327.601V306.669Z" fill="white"/>
<path d="M203.158 308.801C203.158 322.597 191.97 333.767 178.193 333.767C164.398 333.767 153.228 322.579 153.228 308.801C153.228 295.005 164.415 283.835 178.193 283.835C191.97 283.817 203.158 295.005 203.158 308.801Z" fill="#2FAC66"/>
<path d="M170.529 315.725C170.123 314.492 169.965 313.188 169.965 309.629C169.965 306.07 170.123 304.766 170.529 303.533C171.639 300.203 174.246 298.494 177.858 298.494C181.505 298.494 184.112 300.203 185.222 303.533C185.628 304.766 185.786 306.07 185.786 309.629C185.786 313.188 185.628 314.474 185.222 315.725C184.112 319.055 181.505 320.764 177.858 320.764C174.246 320.782 171.639 319.055 170.529 315.725ZM182.456 314.933C182.703 314.14 182.932 312.748 182.932 309.629C182.932 306.528 182.703 305.119 182.456 304.326C181.787 302.264 180.272 301.119 177.858 301.119C175.479 301.119 173.964 302.264 173.295 304.326C173.048 305.119 172.819 306.511 172.819 309.629C172.819 312.73 173.048 314.14 173.295 314.933C173.964 316.994 175.479 318.139 177.858 318.139C180.272 318.139 181.787 316.994 182.456 314.933Z" fill="white"/>
<path d="M87.1934 333.767C87.1934 347.563 76.0056 358.734 62.228 358.734C48.4328 358.734 37.2627 347.546 37.2627 333.767C37.2627 319.972 48.4504 308.801 62.228 308.801C76.0056 308.801 87.1934 319.972 87.1934 333.767Z" fill="#2FAC66"/>
<path d="M60.9412 344.462C60.7474 344.462 60.6241 344.339 60.6241 344.145V325.715C60.6241 325.592 60.5536 325.522 60.4302 325.522H54.5281C54.3343 325.522 54.2109 325.398 54.2109 325.204V323.213C54.2109 323.02 54.3343 322.896 54.5281 322.896H69.539C69.7328 322.896 69.8561 323.02 69.8561 323.213V325.204C69.8561 325.398 69.7328 325.522 69.539 325.522H63.6368C63.5135 325.522 63.443 325.592 63.443 325.715V344.145C63.443 344.339 63.3197 344.462 63.1259 344.462H60.9412Z" fill="white"/>
<path d="M49.9483 482.387C49.9483 496.183 38.7606 507.353 24.9829 507.353C11.2053 507.353 0 496.165 0 482.387C0 468.591 11.1701 457.421 24.9653 457.421C38.7606 457.421 49.9483 468.591 49.9483 482.387Z" fill="#C4C0B4"/>
<path d="M110.238 474.388C110.238 488.184 99.0506 499.354 85.2554 499.354C71.4601 499.354 60.29 488.166 60.29 474.388C60.29 460.592 71.4601 449.422 85.2554 449.422C99.0506 449.422 110.238 460.592 110.238 474.388Z" fill="#C4C0B4"/>
<path d="M78.7197 428.349C78.7197 442.145 67.532 453.315 53.7544 453.315C39.9768 453.315 28.7891 442.127 28.7891 428.349C28.7891 414.553 39.9768 403.383 53.7544 403.383C67.532 403.383 78.7197 414.553 78.7197 428.349Z" fill="#C4C0B4"/>
<path d="M90.5059 527.95C90.5059 541.746 79.3181 552.917 65.5405 552.917C51.7453 552.917 40.5752 541.728 40.5752 527.95C40.5752 514.154 51.7453 502.984 65.5405 502.984C79.3358 502.966 90.5059 514.154 90.5059 527.95Z" fill="#C4C0B4"/>
<path d="M210.188 505.591C210.188 519.387 199 530.558 185.222 530.558C171.445 530.558 160.257 519.37 160.257 505.591C160.257 491.796 171.427 480.625 185.222 480.625C199.017 480.625 210.188 491.796 210.188 505.591Z" fill="#C4C0B4"/>
<path d="M152.224 521.484C152.224 535.28 141.036 546.45 127.258 546.45C113.481 546.45 102.293 535.262 102.293 521.484C102.293 507.688 113.481 496.518 127.258 496.518C141.036 496.518 152.224 507.688 152.224 521.484Z" fill="#C4C0B4"/>
<path d="M168.467 464.909C168.467 478.705 157.279 489.875 143.501 489.875C129.724 489.875 118.536 478.687 118.536 464.909C118.536 451.113 129.724 439.942 143.501 439.942C157.279 439.942 168.467 451.113 168.467 464.909Z" fill="#C4C0B4"/>
<path d="M138.2 414.87C138.2 428.666 127.012 439.837 113.235 439.837C99.4572 439.837 88.2695 428.649 88.2695 414.87C88.2695 401.075 99.4396 389.904 113.235 389.904C127.03 389.904 138.2 401.075 138.2 414.87Z" fill="#C4C0B4"/>
<path d="M199.617 414.87C199.617 428.666 188.429 439.837 174.652 439.837C160.857 439.837 149.687 428.649 149.687 414.87C149.687 401.075 160.857 389.904 174.652 389.904C188.447 389.904 199.617 401.075 199.617 414.87Z" fill="#C4C0B4"/>
<path d="M17.248 471.639C17.248 471.446 17.3714 471.322 17.5652 471.322H19.7499C19.9437 471.322 20.067 471.446 20.067 471.639V480.484C20.067 480.607 20.1375 480.678 20.2608 480.678H29.6162C29.7395 480.678 29.81 480.607 29.81 480.484V471.639C29.81 471.446 29.9333 471.322 30.1271 471.322H32.3118C32.5056 471.322 32.6289 471.446 32.6289 471.639V492.571C32.6289 492.765 32.5056 492.888 32.3118 492.888H30.1271C29.9333 492.888 29.81 492.765 29.81 492.571V483.497C29.81 483.374 29.7395 483.303 29.6162 483.303H20.2608C20.1375 483.303 20.067 483.374 20.067 483.497V492.571C20.067 492.765 19.9437 492.888 19.7499 492.888H17.5652C17.3714 492.888 17.248 492.765 17.248 492.571V471.639Z" fill="white"/>
<path d="M83.8458 463.658C83.9162 463.464 84.0043 463.341 84.2334 463.341H86.2947C86.5238 463.341 86.6471 463.464 86.7176 463.658L94.0997 484.589C94.1702 484.783 94.0644 484.907 93.8706 484.907H91.6507C91.4217 484.907 91.2984 484.818 91.2455 484.589L89.5894 479.903H80.8682L79.2121 484.589C79.124 484.818 78.9831 484.907 78.7893 484.907H76.5693C76.3755 484.907 76.2874 484.783 76.3403 484.589L83.8458 463.658ZM88.6732 477.313L85.2729 467.516H85.2024L81.7844 477.313H88.6732Z" fill="white"/>
<path d="M59.4632 439.396C59.2341 439.396 59.146 439.308 59.0579 439.079L54.7414 430.252H49.9844C49.8611 430.252 49.7906 430.323 49.7906 430.446V439.079C49.7906 439.273 49.6673 439.396 49.4735 439.396H47.2888C47.095 439.396 46.9717 439.273 46.9717 439.079V418.148C46.9717 417.954 47.095 417.83 47.2888 417.83H55.0938C59.1108 417.83 61.8416 420.315 61.8416 424.05C61.8416 426.975 60.1855 429.089 57.5956 429.917L62.194 439.026C62.3173 439.22 62.2293 439.414 62.0002 439.414H59.4632V439.396ZM59.0051 424.05C59.0051 421.795 57.5075 420.473 55.0057 420.473H49.9668C49.8435 420.473 49.773 420.544 49.773 420.667V427.451C49.773 427.574 49.8435 427.644 49.9668 427.644H55.0057C57.5251 427.627 59.0051 426.305 59.0051 424.05Z" fill="white"/>
<path d="M58.4404 527.686C58.4404 524.109 58.599 522.858 59.0042 521.625C60.079 518.225 62.6512 516.551 66.1749 516.551C69.3815 516.551 71.8481 518.136 73.0814 520.903C73.1518 521.061 73.1166 521.22 72.958 521.308L71.0552 522.224C70.8614 522.312 70.6676 522.224 70.6148 522.065C69.7515 520.392 68.4301 519.176 66.1749 519.176C63.8317 519.176 62.4046 520.321 61.6998 522.347C61.4179 523.228 61.2946 524.285 61.2946 527.668C61.2946 531.051 61.4179 532.108 61.6998 533.007C62.4046 535.033 63.8317 536.178 66.1749 536.178C68.4301 536.178 69.7515 534.98 70.6148 533.289C70.6852 533.13 70.8791 533.025 71.0552 533.13L72.958 534.047C73.1166 534.135 73.1518 534.311 73.0814 534.452C71.8481 537.218 69.3639 538.804 66.1749 538.804C62.6512 538.804 60.079 537.13 59.0042 533.729C58.599 532.496 58.4404 531.263 58.4404 527.686Z" fill="white"/>
<path d="M167.551 414.606C167.551 411.03 167.709 409.779 168.115 408.545C169.189 405.145 171.762 403.471 175.285 403.471C178.492 403.471 180.958 405.057 182.192 407.823C182.262 407.981 182.227 408.14 182.068 408.228L180.166 409.144C179.972 409.232 179.778 409.144 179.725 408.986C178.862 407.312 177.54 406.096 175.285 406.096C172.942 406.096 171.515 407.241 170.81 409.268C170.528 410.148 170.405 411.206 170.405 414.589C170.405 417.989 170.528 419.029 170.81 419.927C171.515 421.953 172.942 423.099 175.285 423.099C177.54 423.099 178.862 421.901 179.725 420.209C179.796 420.051 179.989 419.945 180.166 420.05L182.068 420.967C182.227 421.055 182.262 421.231 182.192 421.372C180.958 424.138 178.474 425.724 175.285 425.724C171.762 425.724 169.189 424.05 168.115 420.65C167.709 419.434 167.551 418.183 167.551 414.606Z" fill="white"/>
<path d="M190.561 516.11C190.332 516.11 190.244 516.022 190.156 515.793L185.839 506.966H181.082C180.959 506.966 180.888 507.036 180.888 507.16V515.793C180.888 515.987 180.765 516.11 180.571 516.11H178.386C178.193 516.11 178.069 515.987 178.069 515.793V494.861C178.069 494.668 178.193 494.544 178.386 494.544H186.191C190.226 494.544 192.957 497.029 192.957 500.764C192.957 503.689 191.301 505.803 188.711 506.631L193.309 515.74C193.433 515.934 193.345 516.128 193.115 516.128H190.561V516.11ZM190.12 500.764C190.12 498.509 188.623 497.187 186.121 497.187H181.082C180.959 497.187 180.888 497.258 180.888 497.381V504.164C180.888 504.288 180.959 504.358 181.082 504.358H186.121C188.623 504.341 190.12 503.001 190.12 500.764Z" fill="white"/>
<path d="M125.812 510.736C125.812 510.542 125.935 510.419 126.129 510.419H128.313C128.507 510.419 128.63 510.542 128.63 510.736V531.668C128.63 531.862 128.507 531.985 128.313 531.985H126.129C125.935 531.985 125.812 531.862 125.812 531.668V510.736Z" fill="white"/>
<path d="M142.075 453.386C142.146 453.192 142.234 453.069 142.463 453.069H144.524C144.753 453.069 144.877 453.192 144.947 453.386L152.329 474.317C152.4 474.511 152.294 474.635 152.1 474.635H149.88C149.651 474.635 149.528 474.546 149.475 474.317L147.819 469.631H139.098L137.442 474.317C137.354 474.546 137.213 474.635 137.019 474.635H134.799C134.605 474.635 134.517 474.511 134.57 474.317L142.075 453.386ZM146.903 467.041L143.502 457.244H143.432L140.014 467.041H146.903Z" fill="white"/>
<path d="M105.517 404.14C105.517 403.947 105.64 403.823 105.834 403.823H108.018C108.212 403.823 108.336 403.947 108.336 404.14V412.985C108.336 413.108 108.406 413.179 108.529 413.179H117.885C118.008 413.179 118.079 413.108 118.079 412.985V404.14C118.079 403.947 118.202 403.823 118.396 403.823H120.58C120.774 403.823 120.898 403.947 120.898 404.14V425.072C120.898 425.266 120.774 425.389 120.58 425.389H118.396C118.202 425.389 118.079 425.266 118.079 425.072V415.998C118.079 415.875 118.008 415.804 117.885 415.804H108.529C108.406 415.804 108.336 415.875 108.336 415.998V425.072C108.336 425.266 108.212 425.389 108.018 425.389H105.834C105.64 425.389 105.517 425.266 105.517 425.072V404.14Z" fill="white"/>
<path d="M74.4541 80.7832C74.4541 94.579 63.2664 105.75 49.4888 105.75C35.7111 105.75 24.5234 94.5613 24.5234 80.7832C24.5234 66.9874 35.6935 55.8168 49.4888 55.8168C63.284 55.8168 74.4541 66.9874 74.4541 80.7832Z" fill="#C4C0B4"/>
<path d="M54.511 91.2841C54.282 91.2841 54.1939 91.196 54.1058 90.967L49.7893 82.1398H45.0323C44.909 82.1398 44.8385 82.2103 44.8385 82.3336V90.967C44.8385 91.1608 44.7152 91.2841 44.5213 91.2841H42.3367C42.1429 91.2841 42.0195 91.1608 42.0195 90.967V70.0354C42.0195 69.8416 42.1429 69.7183 42.3367 69.7183H50.1416C54.1763 69.7183 56.9071 72.1849 56.9071 75.9378C56.9071 78.8626 55.251 80.9769 52.6435 81.805L57.2419 90.9141C57.3652 91.1079 57.2771 91.3018 57.0481 91.3018H54.511V91.2841ZM54.0705 75.9202C54.0705 73.6649 52.573 72.3435 50.0712 72.3435H45.0323C44.909 72.3435 44.8385 72.414 44.8385 72.5373V79.3207C44.8385 79.4441 44.909 79.5145 45.0323 79.5145H50.0712C52.573 79.5145 54.0705 78.1754 54.0705 75.9202Z" fill="white"/>
<path d="M183.228 86.668C183.228 100.464 172.041 111.634 158.263 111.634C144.486 111.634 133.298 100.446 133.298 86.668C133.298 72.8722 144.468 61.7017 158.263 61.7017C172.058 61.7017 183.228 72.8722 183.228 86.668Z" fill="#C4C0B4"/>
<path d="M156.996 98.8428C156.802 98.8428 156.679 98.7195 156.679 98.5257V80.0961C156.679 79.9727 156.608 79.9022 156.485 79.9022H150.583C150.389 79.9022 150.266 79.7789 150.266 79.5851V77.5941C150.266 77.4003 150.389 77.277 150.583 77.277H165.594C165.787 77.277 165.911 77.4003 165.911 77.5941V79.5851C165.911 79.7789 165.787 79.9022 165.594 79.9022H159.691C159.568 79.9022 159.498 79.9727 159.498 80.0961V98.5257C159.498 98.7195 159.374 98.8428 159.181 98.8428H156.996Z" fill="white"/>
<path d="M123.238 116.303C123.238 130.099 112.051 141.27 98.2729 141.27C84.4953 141.27 73.3076 130.082 73.3076 116.303C73.3076 102.508 84.4777 91.337 98.2729 91.337C112.068 91.337 123.238 102.508 123.238 116.303Z" fill="#C4C0B4"/>
<path d="M96.4941 106.86C96.4941 106.666 96.6175 106.542 96.8113 106.542H98.996C99.1898 106.542 99.3131 106.666 99.3131 106.86V127.791C99.3131 127.985 99.1898 128.108 98.996 128.108H96.8113C96.6175 128.108 96.4941 127.985 96.4941 127.791V106.86Z" fill="white"/>
<path d="M175.441 146.08C175.441 159.875 164.254 171.046 150.476 171.046C136.698 171.046 125.511 159.858 125.511 146.08C125.511 132.284 136.698 121.113 150.476 121.113C164.254 121.113 175.441 132.284 175.441 146.08Z" fill="#C4C0B4"/>
<path d="M148.731 135.085C148.802 134.892 148.89 134.768 149.119 134.768H151.18C151.409 134.768 151.533 134.892 151.603 135.085L158.985 156.017C159.056 156.211 158.95 156.334 158.756 156.334H156.536C156.307 156.334 156.184 156.246 156.131 156.017L154.475 151.313H145.754L144.098 156.017C144.01 156.246 143.869 156.334 143.675 156.334H141.455C141.261 156.334 141.173 156.211 141.226 156.017L148.731 135.085ZM153.559 148.723L150.159 138.926H150.088L146.67 148.723H153.559Z" fill="white"/>
<path d="M67.459 140.459C67.459 154.255 56.2713 165.426 42.4937 165.426C28.6984 165.426 17.5283 154.237 17.5283 140.459C17.5283 126.663 28.716 115.493 42.4937 115.493C56.2889 115.475 67.459 126.663 67.459 140.459Z" fill="#C4C0B4"/>
<path d="M34.4404 129.694C34.4404 129.5 34.5638 129.377 34.7576 129.377H36.7837C37.048 129.377 37.1889 129.447 37.3299 129.694L47.0905 145.868H47.2138V129.694C47.2138 129.5 47.3371 129.377 47.5309 129.377H49.5218C49.7156 129.377 49.8389 129.5 49.8389 129.694V150.625C49.8389 150.819 49.7156 150.943 49.5218 150.943H47.4957C47.2667 150.943 47.0905 150.872 46.9495 150.625L37.1537 134.504H37.0656V150.625C37.0656 150.819 36.9422 150.943 36.7484 150.943H34.7576C34.5638 150.943 34.4404 150.819 34.4404 150.625V129.694Z" fill="white"/>
<path d="M131.661 57.9663C131.661 71.7621 120.473 82.9326 106.696 82.9326C92.9182 82.9326 81.7305 71.7444 81.7305 57.9663C81.7305 44.1705 92.9006 33 106.696 33C120.491 33 131.661 44.1881 131.661 57.9663Z" fill="#C4C0B4"/>
<path d="M104.969 46.972C105.039 46.7782 105.127 46.6549 105.339 46.6549H107.4C107.629 46.6549 107.752 46.7782 107.823 46.972L115.205 67.9035C115.276 68.0974 115.17 68.2207 114.976 68.2207H112.756C112.527 68.2207 112.404 68.1326 112.351 67.9035L110.695 63.1992H101.974L100.317 67.9035C100.229 68.1326 100.088 68.2207 99.8947 68.2207H97.71C97.5162 68.2207 97.4281 68.0974 97.4809 67.9035L104.969 46.972ZM109.796 60.6092L106.396 50.813H106.325L102.907 60.6092H109.796Z" fill="white"/>
<path d="M258 295H690" stroke="#231F20" stroke-width="3" stroke-linecap="round" stroke-linejoin="round" stroke-dasharray="6 6"/>
<path d="M258 469H690" stroke="#231F20" stroke-width="3" stroke-linecap="round" stroke-linejoin="round" stroke-dasharray="6 6"/>
</svg>
