<svg width="954" height="667" viewBox="0 0 954 667" fill="none" xmlns="http://www.w3.org/2000/svg">
<path d="M38.7822 116.691V109.603L32.7296 113.184C32.3331 113.504 31.8522 113.343 31.6143 112.949L30.4171 110.716C30.1817 110.317 30.261 109.841 30.7369 109.603L36.7945 106.259L30.7369 102.752C30.261 102.512 30.1817 102.036 30.4171 101.637L31.6143 99.4035C31.8522 99.0096 32.3331 98.8484 32.7296 99.1681L38.7822 102.831V95.661C38.7822 95.18 39.102 94.8679 39.5803 94.8679H41.9696C42.4506 94.8679 42.7652 95.1826 42.7652 95.661L42.6834 102.831L48.8203 99.1681C49.2168 98.8484 49.6952 99.0096 49.9331 99.4035L51.1278 101.637C51.3682 102.036 51.2889 102.512 50.808 102.752L44.758 106.259L50.808 109.603C51.2889 109.841 51.3682 110.317 51.1278 110.716L49.9331 112.949C49.6952 113.343 49.2168 113.504 48.8203 113.184L42.6834 109.603L42.7652 116.691C42.7652 117.167 42.4506 117.487 41.9696 117.487H39.5803C39.102 117.487 38.7822 117.167 38.7822 116.691Z" fill="#2BB673"/>
<path d="M78.6914 98.4023C76.8086 98.4023 75.3203 99.0312 74.2266 100.289C73.1406 101.539 72.5977 103.254 72.5977 105.434C72.5977 107.676 73.1211 109.41 74.168 110.637C75.2227 111.855 76.7227 112.465 78.668 112.465C79.8633 112.465 81.2266 112.25 82.7578 111.82V113.566C81.5703 114.012 80.1055 114.234 78.3633 114.234C75.8398 114.234 73.8906 113.469 72.5156 111.938C71.1484 110.406 70.4648 108.23 70.4648 105.41C70.4648 103.645 70.793 102.098 71.4492 100.77C72.1133 99.4414 73.0664 98.418 74.3086 97.6992C75.5586 96.9805 77.0273 96.6211 78.7148 96.6211C80.5117 96.6211 82.082 96.9492 83.4258 97.6055L82.582 99.3164C81.2852 98.707 79.9883 98.4023 78.6914 98.4023ZM97.2891 107.566C97.2891 109.66 96.7617 111.297 95.707 112.477C94.6523 113.648 93.1953 114.234 91.3359 114.234C90.1875 114.234 89.168 113.965 88.2773 113.426C87.3867 112.887 86.6992 112.113 86.2148 111.105C85.7305 110.098 85.4883 108.918 85.4883 107.566C85.4883 105.473 86.0117 103.844 87.0586 102.68C88.1055 101.508 89.5586 100.922 91.418 100.922C93.2148 100.922 94.6406 101.52 95.6953 102.715C96.7578 103.91 97.2891 105.527 97.2891 107.566ZM87.5039 107.566C87.5039 109.207 87.832 110.457 88.4883 111.316C89.1445 112.176 90.1094 112.605 91.3828 112.605C92.6562 112.605 93.6211 112.18 94.2773 111.328C94.9414 110.469 95.2734 109.215 95.2734 107.566C95.2734 105.934 94.9414 104.695 94.2773 103.852C93.6211 103 92.6484 102.574 91.3594 102.574C90.0859 102.574 89.125 102.992 88.4766 103.828C87.8281 104.664 87.5039 105.91 87.5039 107.566ZM106.688 114.234C105.852 114.234 105.086 114.082 104.391 113.777C103.703 113.465 103.125 112.988 102.656 112.348H102.516C102.609 113.098 102.656 113.809 102.656 114.48V119.766H100.711V101.156H102.293L102.562 102.914H102.656C103.156 102.211 103.738 101.703 104.402 101.391C105.066 101.078 105.828 100.922 106.688 100.922C108.391 100.922 109.703 101.504 110.625 102.668C111.555 103.832 112.02 105.465 112.02 107.566C112.02 109.676 111.547 111.316 110.602 112.488C109.664 113.652 108.359 114.234 106.688 114.234ZM106.406 102.574C105.094 102.574 104.145 102.938 103.559 103.664C102.973 104.391 102.672 105.547 102.656 107.133V107.566C102.656 109.371 102.957 110.664 103.559 111.445C104.16 112.219 105.125 112.605 106.453 112.605C107.562 112.605 108.43 112.156 109.055 111.258C109.688 110.359 110.004 109.121 110.004 107.543C110.004 105.941 109.688 104.715 109.055 103.863C108.43 103.004 107.547 102.574 106.406 102.574ZM117.375 114H115.43V101.156H117.375V114ZM115.266 97.6758C115.266 97.2305 115.375 96.9062 115.594 96.7031C115.812 96.4922 116.086 96.3867 116.414 96.3867C116.727 96.3867 116.996 96.4922 117.223 96.7031C117.449 96.9141 117.562 97.2383 117.562 97.6758C117.562 98.1133 117.449 98.4414 117.223 98.6602C116.996 98.8711 116.727 98.9766 116.414 98.9766C116.086 98.9766 115.812 98.8711 115.594 98.6602C115.375 98.4414 115.266 98.1133 115.266 97.6758ZM129.398 114L129.012 112.172H128.918C128.277 112.977 127.637 113.523 126.996 113.812C126.363 114.094 125.57 114.234 124.617 114.234C123.344 114.234 122.344 113.906 121.617 113.25C120.898 112.594 120.539 111.66 120.539 110.449C120.539 107.855 122.613 106.496 126.762 106.371L128.941 106.301V105.504C128.941 104.496 128.723 103.754 128.285 103.277C127.855 102.793 127.164 102.551 126.211 102.551C125.141 102.551 123.93 102.879 122.578 103.535L121.98 102.047C122.613 101.703 123.305 101.434 124.055 101.238C124.812 101.043 125.57 100.945 126.328 100.945C127.859 100.945 128.992 101.285 129.727 101.965C130.469 102.645 130.84 103.734 130.84 105.234V114H129.398ZM125.004 112.629C126.215 112.629 127.164 112.297 127.852 111.633C128.547 110.969 128.895 110.039 128.895 108.844V107.684L126.949 107.766C125.402 107.82 124.285 108.062 123.598 108.492C122.918 108.914 122.578 109.574 122.578 110.473C122.578 111.176 122.789 111.711 123.211 112.078C123.641 112.445 124.238 112.629 125.004 112.629ZM148.992 114L148.605 112.172H148.512C147.871 112.977 147.23 113.523 146.59 113.812C145.957 114.094 145.164 114.234 144.211 114.234C142.938 114.234 141.938 113.906 141.211 113.25C140.492 112.594 140.133 111.66 140.133 110.449C140.133 107.855 142.207 106.496 146.355 106.371L148.535 106.301V105.504C148.535 104.496 148.316 103.754 147.879 103.277C147.449 102.793 146.758 102.551 145.805 102.551C144.734 102.551 143.523 102.879 142.172 103.535L141.574 102.047C142.207 101.703 142.898 101.434 143.648 101.238C144.406 101.043 145.164 100.945 145.922 100.945C147.453 100.945 148.586 101.285 149.32 101.965C150.062 102.645 150.434 103.734 150.434 105.234V114H148.992ZM144.598 112.629C145.809 112.629 146.758 112.297 147.445 111.633C148.141 110.969 148.488 110.039 148.488 108.844V107.684L146.543 107.766C144.996 107.82 143.879 108.062 143.191 108.492C142.512 108.914 142.172 109.574 142.172 110.473C142.172 111.176 142.383 111.711 142.805 112.078C143.234 112.445 143.832 112.629 144.598 112.629ZM159.305 112.605C160.602 112.605 161.547 112.258 162.141 111.562C162.734 110.867 163.051 109.695 163.09 108.047V107.613C163.09 105.816 162.785 104.523 162.176 103.734C161.566 102.945 160.602 102.551 159.281 102.551C158.141 102.551 157.266 102.996 156.656 103.887C156.055 104.77 155.754 106.02 155.754 107.637C155.754 109.254 156.051 110.488 156.645 111.34C157.246 112.184 158.133 112.605 159.305 112.605ZM159.012 114.234C157.355 114.234 156.062 113.652 155.133 112.488C154.203 111.324 153.738 109.699 153.738 107.613C153.738 105.512 154.207 103.871 155.145 102.691C156.082 101.512 157.387 100.922 159.059 100.922C160.816 100.922 162.168 101.586 163.113 102.914H163.219L163.5 101.156H165.035V119.766H163.09V114.27C163.09 113.488 163.133 112.824 163.219 112.277H163.066C162.168 113.582 160.816 114.234 159.012 114.234ZM171 101.156V109.488C171 110.535 171.238 111.316 171.715 111.832C172.191 112.348 172.938 112.605 173.953 112.605C175.297 112.605 176.277 112.238 176.895 111.504C177.52 110.77 177.832 109.57 177.832 107.906V101.156H179.777V114H178.172L177.891 112.277H177.785C177.387 112.91 176.832 113.395 176.121 113.73C175.418 114.066 174.613 114.234 173.707 114.234C172.145 114.234 170.973 113.863 170.191 113.121C169.418 112.379 169.031 111.191 169.031 109.559V101.156H171ZM185.859 114H183.914V101.156H185.859V114ZM183.832 99.1641C184.207 98.6797 184.609 98.0938 185.039 97.4062C185.477 96.7188 185.82 96.1211 186.07 95.6133H188.438V95.8594C188.094 96.3672 187.582 96.9922 186.902 97.7344C186.223 98.4766 185.633 99.0508 185.133 99.457H183.832V99.1641ZM201.645 114.234C199.746 114.234 198.246 113.656 197.145 112.5C196.051 111.344 195.504 109.738 195.504 107.684C195.504 105.613 196.012 103.969 197.027 102.75C198.051 101.531 199.422 100.922 201.141 100.922C202.75 100.922 204.023 101.453 204.961 102.516C205.898 103.57 206.367 104.965 206.367 106.699V107.93H197.52C197.559 109.438 197.938 110.582 198.656 111.363C199.383 112.145 200.402 112.535 201.715 112.535C203.098 112.535 204.465 112.246 205.816 111.668V113.402C205.129 113.699 204.477 113.91 203.859 114.035C203.25 114.168 202.512 114.234 201.645 114.234ZM201.117 102.551C200.086 102.551 199.262 102.887 198.645 103.559C198.035 104.23 197.676 105.16 197.566 106.348H204.281C204.281 105.121 204.008 104.184 203.461 103.535C202.914 102.879 202.133 102.551 201.117 102.551ZM211.641 114H209.695V95.7656H211.641V114ZM226.148 112.629C226.492 112.629 226.824 112.605 227.145 112.559C227.465 112.504 227.719 112.449 227.906 112.395V113.883C227.695 113.984 227.383 114.066 226.969 114.129C226.562 114.199 226.195 114.234 225.867 114.234C223.383 114.234 222.141 112.926 222.141 110.309V102.668H220.301V101.73L222.141 100.922L222.961 98.1797H224.086V101.156H227.812V102.668H224.086V110.227C224.086 111 224.27 111.594 224.637 112.008C225.004 112.422 225.508 112.629 226.148 112.629ZM235.91 114.234C234.012 114.234 232.512 113.656 231.41 112.5C230.316 111.344 229.77 109.738 229.77 107.684C229.77 105.613 230.277 103.969 231.293 102.75C232.316 101.531 233.688 100.922 235.406 100.922C237.016 100.922 238.289 101.453 239.227 102.516C240.164 103.57 240.633 104.965 240.633 106.699V107.93H231.785C231.824 109.438 232.203 110.582 232.922 111.363C233.648 112.145 234.668 112.535 235.98 112.535C237.363 112.535 238.73 112.246 240.082 111.668V113.402C239.395 113.699 238.742 113.91 238.125 114.035C237.516 114.168 236.777 114.234 235.91 114.234ZM235.383 102.551C234.352 102.551 233.527 102.887 232.91 103.559C232.301 104.23 231.941 105.16 231.832 106.348H238.547C238.547 105.121 238.273 104.184 237.727 103.535C237.18 102.879 236.398 102.551 235.383 102.551ZM247.055 107.426L242.59 101.156H244.805L248.191 106.078L251.566 101.156H253.758L249.293 107.426L253.992 114H251.789L248.191 108.797L244.559 114H242.355L247.055 107.426ZM260.695 112.629C261.039 112.629 261.371 112.605 261.691 112.559C262.012 112.504 262.266 112.449 262.453 112.395V113.883C262.242 113.984 261.93 114.066 261.516 114.129C261.109 114.199 260.742 114.234 260.414 114.234C257.93 114.234 256.688 112.926 256.688 110.309V102.668H254.848V101.73L256.688 100.922L257.508 98.1797H258.633V101.156H262.359V102.668H258.633V110.227C258.633 111 258.816 111.594 259.184 112.008C259.551 112.422 260.055 112.629 260.695 112.629ZM276.117 107.566C276.117 109.66 275.59 111.297 274.535 112.477C273.48 113.648 272.023 114.234 270.164 114.234C269.016 114.234 267.996 113.965 267.105 113.426C266.215 112.887 265.527 112.113 265.043 111.105C264.559 110.098 264.316 108.918 264.316 107.566C264.316 105.473 264.84 103.844 265.887 102.68C266.934 101.508 268.387 100.922 270.246 100.922C272.043 100.922 273.469 101.52 274.523 102.715C275.586 103.91 276.117 105.527 276.117 107.566ZM266.332 107.566C266.332 109.207 266.66 110.457 267.316 111.316C267.973 112.176 268.938 112.605 270.211 112.605C271.484 112.605 272.449 112.18 273.105 111.328C273.77 110.469 274.102 109.215 274.102 107.566C274.102 105.934 273.77 104.695 273.105 103.852C272.449 103 271.477 102.574 270.188 102.574C268.914 102.574 267.953 102.992 267.305 103.828C266.656 104.664 266.332 105.91 266.332 107.566ZM290.906 114.234C289.047 114.234 287.605 113.664 286.582 112.523C285.566 111.375 285.059 109.754 285.059 107.66C285.059 105.512 285.574 103.852 286.605 102.68C287.645 101.508 289.121 100.922 291.035 100.922C291.652 100.922 292.27 100.988 292.887 101.121C293.504 101.254 293.988 101.41 294.34 101.59L293.742 103.242C293.312 103.07 292.844 102.93 292.336 102.82C291.828 102.703 291.379 102.645 290.988 102.645C288.379 102.645 287.074 104.309 287.074 107.637C287.074 109.215 287.391 110.426 288.023 111.27C288.664 112.113 289.609 112.535 290.859 112.535C291.93 112.535 293.027 112.305 294.152 111.844V113.566C293.293 114.012 292.211 114.234 290.906 114.234ZM308.297 107.566C308.297 109.66 307.77 111.297 306.715 112.477C305.66 113.648 304.203 114.234 302.344 114.234C301.195 114.234 300.176 113.965 299.285 113.426C298.395 112.887 297.707 112.113 297.223 111.105C296.738 110.098 296.496 108.918 296.496 107.566C296.496 105.473 297.02 103.844 298.066 102.68C299.113 101.508 300.566 100.922 302.426 100.922C304.223 100.922 305.648 101.52 306.703 102.715C307.766 103.91 308.297 105.527 308.297 107.566ZM298.512 107.566C298.512 109.207 298.84 110.457 299.496 111.316C300.152 112.176 301.117 112.605 302.391 112.605C303.664 112.605 304.629 112.18 305.285 111.328C305.949 110.469 306.281 109.215 306.281 107.566C306.281 105.934 305.949 104.695 305.285 103.852C304.629 103 303.656 102.574 302.367 102.574C301.094 102.574 300.133 102.992 299.484 103.828C298.836 104.664 298.512 105.91 298.512 107.566ZM317.578 100.922C318.148 100.922 318.66 100.969 319.113 101.062L318.844 102.867C318.312 102.75 317.844 102.691 317.438 102.691C316.398 102.691 315.508 103.113 314.766 103.957C314.031 104.801 313.664 105.852 313.664 107.109V114H311.719V101.156H313.324L313.547 103.535H313.641C314.117 102.699 314.691 102.055 315.363 101.602C316.035 101.148 316.773 100.922 317.578 100.922ZM327.375 100.922C327.945 100.922 328.457 100.969 328.91 101.062L328.641 102.867C328.109 102.75 327.641 102.691 327.234 102.691C326.195 102.691 325.305 103.113 324.562 103.957C323.828 104.801 323.461 105.852 323.461 107.109V114H321.516V101.156H323.121L323.344 103.535H323.438C323.914 102.699 324.488 102.055 325.16 101.602C325.832 101.148 326.57 100.922 327.375 100.922ZM336.738 114.234C334.84 114.234 333.34 113.656 332.238 112.5C331.145 111.344 330.598 109.738 330.598 107.684C330.598 105.613 331.105 103.969 332.121 102.75C333.145 101.531 334.516 100.922 336.234 100.922C337.844 100.922 339.117 101.453 340.055 102.516C340.992 103.57 341.461 104.965 341.461 106.699V107.93H332.613C332.652 109.438 333.031 110.582 333.75 111.363C334.477 112.145 335.496 112.535 336.809 112.535C338.191 112.535 339.559 112.246 340.91 111.668V113.402C340.223 113.699 339.57 113.91 338.953 114.035C338.344 114.168 337.605 114.234 336.738 114.234ZM336.211 102.551C335.18 102.551 334.355 102.887 333.738 103.559C333.129 104.23 332.77 105.16 332.66 106.348H339.375C339.375 105.121 339.102 104.184 338.555 103.535C338.008 102.879 337.227 102.551 336.211 102.551ZM355.301 101.156V102.387L352.922 102.668C353.141 102.941 353.336 103.301 353.508 103.746C353.68 104.184 353.766 104.68 353.766 105.234C353.766 106.492 353.336 107.496 352.477 108.246C351.617 108.996 350.438 109.371 348.938 109.371C348.555 109.371 348.195 109.34 347.859 109.277C347.031 109.715 346.617 110.266 346.617 110.93C346.617 111.281 346.762 111.543 347.051 111.715C347.34 111.879 347.836 111.961 348.539 111.961H350.812C352.203 111.961 353.27 112.254 354.012 112.84C354.762 113.426 355.137 114.277 355.137 115.395C355.137 116.816 354.566 117.898 353.426 118.641C352.285 119.391 350.621 119.766 348.434 119.766C346.754 119.766 345.457 119.453 344.543 118.828C343.637 118.203 343.184 117.32 343.184 116.18C343.184 115.398 343.434 114.723 343.934 114.152C344.434 113.582 345.137 113.195 346.043 112.992C345.715 112.844 345.438 112.613 345.211 112.301C344.992 111.988 344.883 111.625 344.883 111.211C344.883 110.742 345.008 110.332 345.258 109.98C345.508 109.629 345.902 109.289 346.441 108.961C345.777 108.688 345.234 108.223 344.812 107.566C344.398 106.91 344.191 106.16 344.191 105.316C344.191 103.91 344.613 102.828 345.457 102.07C346.301 101.305 347.496 100.922 349.043 100.922C349.715 100.922 350.32 101 350.859 101.156H355.301ZM345.059 116.156C345.059 116.852 345.352 117.379 345.938 117.738C346.523 118.098 347.363 118.277 348.457 118.277C350.09 118.277 351.297 118.031 352.078 117.539C352.867 117.055 353.262 116.395 353.262 115.559C353.262 114.863 353.047 114.379 352.617 114.105C352.188 113.84 351.379 113.707 350.191 113.707H347.859C346.977 113.707 346.289 113.918 345.797 114.34C345.305 114.762 345.059 115.367 345.059 116.156ZM346.113 105.27C346.113 106.168 346.367 106.848 346.875 107.309C347.383 107.77 348.09 108 348.996 108C350.895 108 351.844 107.078 351.844 105.234C351.844 103.305 350.883 102.34 348.961 102.34C348.047 102.34 347.344 102.586 346.852 103.078C346.359 103.57 346.113 104.301 346.113 105.27ZM359.883 114H357.938V101.156H359.883V114ZM357.773 97.6758C357.773 97.2305 357.883 96.9062 358.102 96.7031C358.32 96.4922 358.594 96.3867 358.922 96.3867C359.234 96.3867 359.504 96.4922 359.73 96.7031C359.957 96.9141 360.07 97.2383 360.07 97.6758C360.07 98.1133 359.957 98.4414 359.73 98.6602C359.504 98.8711 359.234 98.9766 358.922 98.9766C358.594 98.9766 358.32 98.8711 358.102 98.6602C357.883 98.4414 357.773 98.1133 357.773 97.6758ZM372.75 112.277H372.645C371.746 113.582 370.402 114.234 368.613 114.234C366.934 114.234 365.625 113.66 364.688 112.512C363.758 111.363 363.293 109.73 363.293 107.613C363.293 105.496 363.762 103.852 364.699 102.68C365.637 101.508 366.941 100.922 368.613 100.922C370.355 100.922 371.691 101.555 372.621 102.82H372.773L372.691 101.895L372.645 100.992V95.7656H374.59V114H373.008L372.75 112.277ZM368.859 112.605C370.188 112.605 371.148 112.246 371.742 111.527C372.344 110.801 372.645 109.633 372.645 108.023V107.613C372.645 105.793 372.34 104.496 371.73 103.723C371.129 102.941 370.164 102.551 368.836 102.551C367.695 102.551 366.82 102.996 366.211 103.887C365.609 104.77 365.309 106.02 365.309 107.637C365.309 109.277 365.609 110.516 366.211 111.352C366.812 112.188 367.695 112.605 368.859 112.605ZM389.812 107.566C389.812 109.66 389.285 111.297 388.23 112.477C387.176 113.648 385.719 114.234 383.859 114.234C382.711 114.234 381.691 113.965 380.801 113.426C379.91 112.887 379.223 112.113 378.738 111.105C378.254 110.098 378.012 108.918 378.012 107.566C378.012 105.473 378.535 103.844 379.582 102.68C380.629 101.508 382.082 100.922 383.941 100.922C385.738 100.922 387.164 101.52 388.219 102.715C389.281 103.91 389.812 105.527 389.812 107.566ZM380.027 107.566C380.027 109.207 380.355 110.457 381.012 111.316C381.668 112.176 382.633 112.605 383.906 112.605C385.18 112.605 386.145 112.18 386.801 111.328C387.465 110.469 387.797 109.215 387.797 107.566C387.797 105.934 387.465 104.695 386.801 103.852C386.145 103 385.172 102.574 383.883 102.574C382.609 102.574 381.648 102.992 381 103.828C380.352 104.664 380.027 105.91 380.027 107.566ZM392.953 112.758C392.953 112.234 393.07 111.84 393.305 111.574C393.547 111.301 393.891 111.164 394.336 111.164C394.789 111.164 395.141 111.301 395.391 111.574C395.648 111.84 395.777 112.234 395.777 112.758C395.777 113.266 395.648 113.656 395.391 113.93C395.133 114.203 394.781 114.34 394.336 114.34C393.938 114.34 393.605 114.219 393.34 113.977C393.082 113.727 392.953 113.32 392.953 112.758Z" fill="black"/>
<path d="M50 604L865 604" stroke="#231F20" stroke-width="3" stroke-linecap="round" stroke-linejoin="round" stroke-dasharray="6 6"/>
<path d="M50 456L865 456" stroke="#231F20" stroke-width="3" stroke-linecap="round" stroke-linejoin="round" stroke-dasharray="6 6"/>
<path d="M50 382L865 382" stroke="#231F20" stroke-width="3" stroke-linecap="round" stroke-linejoin="round" stroke-dasharray="6 6"/>
<path d="M50 308L865 308" stroke="#231F20" stroke-width="3" stroke-linecap="round" stroke-linejoin="round" stroke-dasharray="6 6"/>
<path d="M50 234L865 234" stroke="#231F20" stroke-width="3" stroke-linecap="round" stroke-linejoin="round" stroke-dasharray="6 6"/>
<path d="M50 530L865 530" stroke="#231F20" stroke-width="3" stroke-linecap="round" stroke-linejoin="round" stroke-dasharray="6 6"/>
<rect x="0.5" y="145.5" width="953" height="521" stroke="black"/>
<path d="M32.0293 53.8909C31.9512 52.8234 32.0293 51.7559 32.2636 50.6623C32.498 49.5687 32.6542 48.5012 32.7323 47.4337C32.8365 46.6786 32.9146 45.8974 32.9666 45.1423C32.9927 44.3873 33.0708 43.6061 33.1489 42.8511C33.0968 42.799 33.0968 42.7469 33.0968 42.6688V42.4345L33.6697 38.659C33.4874 38.0602 33.4874 37.4353 33.6957 36.8104C33.904 36.1855 34.0602 35.5866 34.1383 35.0658C34.1644 34.6753 34.2425 33.9462 34.3727 32.8526C34.4768 31.7591 34.633 30.5353 34.8413 29.1293C35.0236 27.7233 35.2319 26.2652 35.4402 24.729C35.6485 23.1927 35.8568 21.7607 36.0911 20.4328C36.3255 19.1049 36.5338 18.0113 36.7421 17.1C36.9504 16.2147 37.1587 15.6939 37.3409 15.5898C37.9138 15.2513 38.5647 15.043 39.3198 15.017C40.0749 14.9909 40.7519 14.9389 41.4028 14.9128C41.8715 14.8607 42.21 14.8607 42.4964 14.8607C42.7567 14.8607 43.1733 14.8868 43.6941 14.9128C44.1628 15.1732 44.5273 15.6939 44.7877 16.449C45.048 18.5581 45.4646 20.5369 46.0114 22.4376C46.5582 24.3384 47.105 26.2912 47.6518 28.3221C47.7039 28.4002 47.7559 28.6085 47.8341 28.9731C47.9122 29.3376 47.9903 29.7282 48.0944 30.1448C48.1986 30.5613 48.2767 30.9519 48.3808 31.3164C48.485 31.681 48.511 31.8893 48.511 31.9674C48.5891 32.1496 48.6933 32.4881 48.8235 32.9568C48.9537 33.4255 49.0318 33.7379 49.0839 33.9202C49.0839 33.9723 49.1099 33.9983 49.1359 34.0243C49.162 34.0764 49.214 34.0764 49.2401 34.0764H49.2922C49.5265 34.0764 49.7088 33.5817 49.8389 32.6183C49.9691 31.6549 50.0993 30.4312 50.1774 28.9731C50.2816 27.515 50.3597 25.9527 50.4638 24.2863C50.568 22.5939 50.6721 21.0316 50.8023 19.5996C50.9325 18.1415 51.1148 16.9437 51.3231 15.9543C51.5314 14.9909 51.8178 14.4702 52.1563 14.4441L58.1709 13.9755C58.2751 13.9755 58.4313 14.0536 58.6396 14.2358C58.8219 14.4181 58.9521 14.5743 58.9781 14.7306L60.0717 22.9844C60.1498 23.2969 60.2279 23.6093 60.3321 23.9478C60.4362 24.2863 60.5143 24.6248 60.5924 24.9112C60.6185 25.3278 60.6966 25.9788 60.8268 26.8901C60.9309 27.8014 61.0871 28.7908 61.2173 29.9365C61.3736 31.0561 61.5298 32.2278 61.686 33.4515C61.8422 34.6753 61.9985 35.847 62.1547 36.9666C62.3109 38.0862 62.4411 39.1017 62.5713 39.9609C62.7015 40.8462 62.8056 41.4971 62.8837 41.9137C62.9098 42.3043 63.0139 42.9552 63.1701 43.8665C63.3264 44.7778 63.4826 45.7672 63.6909 46.8087C63.8732 47.8502 64.0554 48.8397 64.2377 49.751C64.4199 50.6623 64.5241 51.3132 64.6022 51.7038V51.8861C64.6543 52.0944 64.6282 52.3287 64.5762 52.6412C64.5241 52.9536 64.3939 53.1359 64.2116 53.214L59.0041 53.5525L55.6713 28.244L55.437 27.2806L52.2344 53.5004L48.7974 53.7868L41.9235 27.4369L37.6794 55.3751C37.6534 55.6355 37.6274 55.8177 37.6534 55.8698C37.6794 55.9219 37.5753 55.9479 37.393 55.9479C37.3409 55.9479 37.3409 55.9479 37.3409 55.9739C37.3409 56 37.3149 56 37.2889 56H37.2368C36.9243 55.9739 36.5077 55.9219 35.961 55.8698C35.4142 55.8177 34.8413 55.7136 34.2685 55.5574C33.6957 55.4011 33.201 55.1928 32.7844 54.9585C32.3157 54.6981 32.0814 54.3336 32.0293 53.8909Z" fill="#2FAC66"/>
<path d="M87.7797 53.5264C87.5975 53.4483 87.3892 53.3181 87.2069 53.1619C87.0246 52.9796 86.8944 52.7974 86.8684 52.6151L85.4884 40.4816C85.4884 40.3254 85.4103 40.1952 85.2801 40.0911C85.1499 39.9869 85.0197 39.9349 84.9156 39.9869L78.276 40.6118L79.3696 50.6363C79.4477 51.2351 79.63 51.808 79.8904 52.3287C80.1507 52.8495 80.333 53.3962 80.4111 53.9691C80.4372 54.2034 80.4372 54.3336 80.359 54.3857C80.2809 54.4377 80.0987 54.4898 79.8383 54.5159C79.7602 54.5159 79.656 54.5159 79.5258 54.5419C79.3957 54.5679 79.3175 54.5679 79.2655 54.5679H78.5364C78.224 54.5679 77.8855 54.5679 77.5209 54.594C77.1825 54.62 76.87 54.646 76.5836 54.646C76.2972 54.6721 76.1149 54.6721 76.0368 54.6721C75.3598 54.6721 74.787 54.594 74.3704 54.4377C73.9538 54.2815 73.6153 54.0472 73.407 53.7608C73.1727 53.4483 73.0165 53.0838 72.9123 52.6412C72.8082 52.1985 72.73 51.7038 72.6519 51.131C72.4697 49.0219 72.3135 46.9389 72.1833 44.8559C72.0531 42.7729 71.975 40.6639 71.8968 38.5288C71.8968 38.5028 71.8969 38.2945 71.8708 37.9039C71.8448 37.5134 71.8187 37.0968 71.7927 36.576C71.7406 36.0813 71.7146 35.5866 71.6885 35.1179C71.6365 34.6492 71.6104 34.2587 71.5844 33.9983C71.5063 32.5402 71.5844 31.2123 71.7927 29.9885C72.001 28.7648 72.2353 27.4369 72.4957 25.9788C72.2614 25.3278 72.3135 24.6508 72.6259 23.9218C72.9384 23.1927 73.1987 22.5418 73.407 21.969C73.4851 21.6565 73.5372 21.3701 73.5372 21.1097C73.5632 20.8494 73.6153 20.5369 73.7455 20.1984C73.7455 20.1724 73.7715 20.0943 73.7976 19.9901C73.8497 19.886 73.8757 19.8599 73.9017 19.8599C74.3183 19.1049 74.6829 18.3237 74.9953 17.5426C75.3078 16.7615 75.7244 15.9804 76.2451 15.2253C76.5836 14.7566 77.0002 14.2879 77.4949 13.8192C77.9896 13.3506 78.5364 12.8819 79.1092 12.4653C79.6821 12.0487 80.2809 11.7102 80.9058 11.4238C81.5307 11.1634 82.1556 10.9812 82.7805 10.903C84.499 10.7468 85.8269 10.9812 86.7903 11.6061C87.7537 12.231 88.5088 13.0381 89.0556 14.0536C89.6024 15.043 90.045 16.1366 90.3314 17.3603C90.6438 18.5581 90.9823 19.6777 91.3729 20.7192C91.3729 20.8233 91.3989 21.0577 91.451 21.3441C91.5031 21.6565 91.5552 21.969 91.5812 22.3075C91.6072 22.646 91.6593 22.9584 91.7114 23.2448C91.7635 23.5312 91.7895 23.7395 91.7895 23.8437C92.0499 26.3693 92.2321 28.895 92.2842 31.4727C92.3363 34.0243 92.4144 36.576 92.5446 39.1017C92.5446 39.7526 92.4925 40.4296 92.4144 41.1065C92.3103 41.7835 92.2842 42.4605 92.3363 43.1114C92.3363 43.1895 92.3623 43.3978 92.3884 43.7103C92.4144 44.0488 92.4665 44.3873 92.4925 44.7778C92.5185 45.1684 92.5706 45.5069 92.6227 45.8454C92.6748 46.1839 92.7008 46.3661 92.7008 46.4442V48.345C92.7008 48.4231 92.7008 48.6314 92.7269 48.9438C92.7529 49.2823 92.7789 49.6208 92.7789 50.0114C92.805 50.4019 92.805 50.7404 92.831 51.0789C92.857 51.4174 92.857 51.6257 92.857 51.7298C92.857 51.9642 92.805 52.3027 92.7529 52.7713C92.6748 53.24 92.4144 53.5004 91.9978 53.5785H91.8937C91.8676 53.5785 91.7374 53.5525 91.5291 53.5264C91.3208 53.5004 91.1906 53.4744 91.1646 53.4744C91.0604 53.4744 90.8261 53.4744 90.4876 53.5004C90.1491 53.5264 89.7846 53.5264 89.4201 53.5264C89.0556 53.5264 88.7171 53.5264 88.3786 53.5525C88.1182 53.5264 87.8839 53.5264 87.7797 53.5264ZM74.4746 9.13249C74.4746 9.02834 74.6308 8.79401 74.9693 8.45552C75.2817 8.11703 75.6463 7.72647 76.0629 7.33591C76.4534 6.94534 76.87 6.55478 77.2606 6.19026C77.6511 5.82573 77.9636 5.56536 78.1458 5.40913C78.224 5.38309 78.3802 5.22687 78.6406 5.01857C78.9009 4.78423 79.0311 4.62801 79.0832 4.54989C79.1874 4.44574 79.3696 4.26348 79.604 4.00311C79.8383 3.76877 80.0726 3.50839 80.359 3.22198C80.6194 2.96161 80.8798 2.70123 81.1402 2.44086L81.6349 1.94614C81.739 1.68577 82.0515 1.37332 82.5201 1.00879C82.9888 0.644268 83.3794 0.462006 83.6918 0.462006C83.8481 0.462006 84.0303 0.540118 84.2647 0.696343C84.499 0.852568 84.7333 1.03483 84.9677 1.24313C85.2281 1.45143 85.4363 1.65973 85.6186 1.84199C85.8009 2.02426 85.9311 2.18048 85.9571 2.23256V2.80538V3.37821C85.9571 3.56047 85.853 3.74273 85.6707 3.89896C85.5665 4.02914 85.3322 4.18537 85.0458 4.44574C84.7333 4.70612 84.525 4.86234 84.4209 4.94046C83.1711 5.82573 81.8953 6.71101 80.6194 7.64836C79.3436 8.58571 78.0417 9.49702 76.7659 10.3563C76.6617 10.4083 76.5576 10.4344 76.4794 10.4344C76.4013 10.4344 76.2972 10.4604 76.141 10.4604C75.7244 10.4604 75.3598 10.3042 75.0214 10.0178C74.6568 9.75739 74.4746 9.44494 74.4746 9.13249ZM78.3802 32.9047C78.4323 33.3734 78.6926 33.6859 79.1874 33.8681C79.6821 34.0504 80.2549 34.1806 80.9058 34.2326C81.5568 34.2847 82.2077 34.3108 82.8586 34.2847C83.5096 34.2587 84.0043 34.2326 84.3428 34.2066C84.4209 34.2066 84.5771 34.2066 84.8115 34.1806C85.0458 34.1545 85.202 34.1545 85.2801 34.1545C85.3582 34.0504 85.4103 33.9462 85.4624 33.8421C85.5145 33.7379 85.5405 33.6338 85.5665 33.5296C85.5665 33.2953 85.5405 32.9308 85.5145 32.41C85.4624 31.8893 85.4364 31.3425 85.4364 30.7176C85.4103 30.1187 85.4103 29.5459 85.3843 29.0251C85.3582 28.5044 85.3582 28.1399 85.3582 27.9055C85.4103 27.8274 85.4103 27.6452 85.4103 27.3848V26.812L84.8375 21.2399C84.8115 20.9796 84.7073 20.6671 84.5511 20.3286C84.3949 19.9901 84.2126 19.6777 83.9782 19.3913C83.7439 19.1049 83.4575 18.8705 83.145 18.7143C82.8066 18.532 82.4941 18.48 82.1296 18.506C81.8171 18.532 81.5307 18.6362 81.2704 18.7924C80.0206 20.0943 79.2134 21.4482 78.927 22.8543C78.6145 24.2603 78.4583 25.8225 78.4062 27.4889C78.4062 28.4002 78.3802 29.3116 78.3541 30.1708C78.276 31.1081 78.3021 31.9934 78.3802 32.9047Z" fill="#2FAC66"/>
<path d="M97.957 44.7778C98.2174 44.0488 98.7121 43.5801 99.4151 43.3718C100.118 43.1635 100.951 43.1114 101.941 43.1895C102.904 43.2937 103.998 43.4499 105.221 43.7363C106.419 43.9967 107.669 44.2571 108.971 44.4914C109.518 44.4654 109.96 44.3091 110.377 44.1008C110.767 43.8665 111.158 43.5801 111.497 43.2156C111.835 42.851 112.174 42.4344 112.46 41.9918C112.772 41.5231 113.085 41.0805 113.423 40.6118C113.449 40.5858 113.501 40.4816 113.527 40.3514C113.58 40.2213 113.58 40.1431 113.58 40.0911L113.345 36.7062C113.267 36.6802 113.033 36.4719 112.616 36.1334C112.2 35.7949 111.887 35.5345 111.679 35.3262C111.601 35.2481 111.47 35.1439 111.262 35.0138C111.054 34.8836 110.898 34.8055 110.846 34.8055C109.518 34.2326 108.268 33.764 107.096 33.4255C105.925 33.087 104.857 32.6704 103.842 32.2017C102.826 31.733 101.915 31.0821 101.082 30.2489C100.248 29.4157 99.5453 28.244 98.9204 26.7338C98.9204 26.6297 98.9204 26.4474 98.8944 26.2131C98.8683 25.9787 98.8423 25.7444 98.8163 25.5101C98.7642 25.2497 98.7382 25.0414 98.7382 24.8331C98.7121 24.6248 98.7121 24.4946 98.7121 24.4165C98.66 23.8697 98.634 23.3229 98.5559 22.698C98.5038 22.0731 98.5559 21.5263 98.7642 20.9795C98.7902 20.8233 98.8683 20.5369 98.9985 20.1463C99.1027 19.7558 99.2589 19.3392 99.3891 18.9226C99.5453 18.506 99.6755 18.0894 99.8317 17.7249C99.9619 17.3343 100.04 17.0739 100.092 16.9177V16.5792C100.326 16.2407 100.535 15.9803 100.717 15.772C100.899 15.5898 101.082 15.3815 101.264 15.1732C101.446 14.9649 101.576 14.8087 101.68 14.6785C102.93 13.2724 104.18 12.2049 105.43 11.4759C106.68 10.7468 108.19 10.3042 109.986 10.0959C110.481 10.0698 111.21 10.1219 112.174 10.2781C113.137 10.4344 114.074 10.6687 115.038 10.9811C116.001 11.2936 116.834 11.6842 117.563 12.1528C118.292 12.6215 118.683 13.1423 118.709 13.7151C118.761 14.0536 118.735 14.5222 118.657 15.0951C118.579 15.6679 118.449 16.2407 118.292 16.8135C118.11 17.3864 117.902 17.8811 117.615 18.3237C117.329 18.7664 116.99 19.0007 116.6 19.0267C115.61 19.1048 114.621 19.1048 113.632 19.0007C112.642 18.8965 111.653 18.8965 110.663 18.9747C110.481 18.9747 110.091 19.0007 109.492 19.0788C108.893 19.1569 108.502 19.183 108.32 19.183C108.216 19.2611 108.034 19.3392 107.773 19.4433C107.513 19.5475 107.278 19.6516 107.018 19.8079C106.758 19.9641 106.549 20.1203 106.393 20.2505C106.211 20.4067 106.133 20.5629 106.133 20.7192L106.419 24.1561C106.419 24.3384 106.549 24.5206 106.784 24.7029C107.018 24.8852 107.304 25.0414 107.591 25.2237C107.877 25.4059 108.164 25.5621 108.476 25.6923C108.789 25.8225 108.997 25.9006 109.101 25.9527C110.637 26.6818 112.017 27.3587 113.293 28.0097C114.543 28.6606 115.636 29.4157 116.548 30.301C117.459 31.1862 118.188 32.2277 118.761 33.4255C119.308 34.6232 119.672 36.1334 119.829 37.93C119.985 39.4922 119.881 41.0545 119.516 42.5646C119.152 44.1008 118.553 45.4548 117.746 46.6525C116.912 47.8502 115.897 48.8657 114.621 49.6468C113.345 50.428 111.939 50.9227 110.325 51.0789C108.997 51.2351 107.617 51.2612 106.211 51.131C104.805 51.0268 103.503 50.7404 102.357 50.2717C101.186 49.8031 100.196 49.1261 99.4151 48.2408C98.5299 47.4076 98.0872 46.2359 97.957 44.7778Z" fill="#2FAC66"/>
<path d="M147.918 44.7778C148.178 44.0488 148.673 43.5801 149.376 43.3718C150.079 43.1635 150.912 43.1114 151.902 43.1895C152.865 43.2937 153.959 43.4499 155.182 43.7363C156.38 43.9967 157.63 44.2571 158.932 44.4914C159.479 44.4654 159.921 44.3091 160.338 44.1008C160.728 43.8665 161.119 43.5801 161.457 43.2156C161.796 42.851 162.134 42.4344 162.421 41.9918C162.733 41.5231 163.046 41.0805 163.384 40.6118C163.436 40.5858 163.462 40.4816 163.488 40.3514C163.514 40.2213 163.54 40.1431 163.54 40.0911L163.306 36.7062C163.228 36.6802 162.994 36.4719 162.603 36.1334C162.213 35.7949 161.9 35.5345 161.666 35.3262C161.588 35.2481 161.457 35.1439 161.223 35.0138C161.015 34.8836 160.859 34.8055 160.807 34.8055C159.479 34.2326 158.229 33.764 157.057 33.4255C155.885 33.087 154.818 32.6704 153.802 32.2017C152.787 31.733 151.876 31.0821 151.042 30.2489C150.209 29.4157 149.506 28.244 148.881 26.7338C148.881 26.6297 148.881 26.4474 148.855 26.2131C148.829 25.9787 148.803 25.7444 148.777 25.5101C148.725 25.2497 148.699 25.0414 148.699 24.8331C148.673 24.6248 148.673 24.4946 148.673 24.4165C148.621 23.8697 148.595 23.3229 148.517 22.698C148.465 22.0731 148.517 21.5263 148.725 20.9795C148.751 20.8233 148.829 20.5369 148.959 20.1463C149.064 19.7558 149.22 19.3392 149.35 18.9226C149.506 18.506 149.636 18.0894 149.793 17.7249C149.923 17.3343 150.001 17.0739 150.053 16.9177V16.5792C150.287 16.2407 150.496 15.9803 150.678 15.772C150.86 15.5898 151.042 15.3815 151.225 15.1732C151.407 14.9649 151.537 14.8087 151.641 14.6785C152.891 13.2724 154.141 12.2049 155.391 11.4759C156.641 10.7468 158.151 10.3042 159.947 10.0959C160.442 10.0698 161.171 10.1219 162.134 10.2781C163.098 10.4344 164.035 10.6687 164.999 10.9811C165.962 11.2936 166.795 11.6842 167.524 12.1528C168.253 12.6215 168.644 13.1423 168.67 13.7151C168.722 14.0536 168.696 14.5222 168.618 15.0951C168.54 15.6679 168.409 16.2407 168.253 16.8135C168.071 17.3864 167.863 17.8811 167.576 18.3237C167.29 18.7664 166.951 19.0007 166.561 19.0267C165.571 19.1048 164.582 19.1048 163.593 19.0007C162.603 18.8965 161.614 18.8965 160.624 18.9747C160.442 18.9747 160.051 19.0007 159.453 19.0788C158.854 19.1569 158.463 19.183 158.281 19.183C158.177 19.2611 157.994 19.3392 157.734 19.4433C157.474 19.5475 157.239 19.6516 156.979 19.8079C156.719 19.9641 156.51 20.1203 156.354 20.2505C156.172 20.4067 156.094 20.5629 156.094 20.7192L156.38 24.1561C156.38 24.3384 156.51 24.5206 156.745 24.7029C156.979 24.8852 157.265 25.0414 157.552 25.2237C157.838 25.4059 158.125 25.5621 158.437 25.6923C158.75 25.8225 158.958 25.9006 159.062 25.9527C160.598 26.6818 161.978 27.3587 163.254 28.0097C164.504 28.6606 165.597 29.4157 166.509 30.301C167.42 31.1862 168.149 32.2277 168.722 33.4255C169.269 34.6232 169.633 36.1334 169.789 37.93C169.946 39.4922 169.842 41.0545 169.477 42.5646C169.112 44.1008 168.514 45.4548 167.706 46.6525C166.873 47.8502 165.858 48.8657 164.582 49.6468C163.306 50.428 161.9 50.9227 160.286 51.0789C158.958 51.2351 157.578 51.2612 156.172 51.131C154.766 51.0268 153.464 50.7404 152.318 50.2717C151.147 49.8031 150.157 49.1261 149.376 48.2408C148.491 47.4076 148.022 46.2359 147.918 44.7778Z" fill="#2FAC66"/>
<path d="M175.807 44.205C175.781 44.0488 175.755 43.8405 175.729 43.5801C175.703 43.3197 175.677 43.0333 175.677 42.7729C175.651 42.5126 175.651 42.2782 175.625 42.0699C175.599 41.8616 175.599 41.7054 175.599 41.6273C175.573 40.8982 175.521 39.9609 175.495 38.7892C175.469 37.6175 175.417 36.4719 175.391 35.3262C175.365 34.1806 175.312 33.1651 175.286 32.2798C175.26 31.3946 175.234 30.8998 175.234 30.7957C175.234 29.65 175.26 28.4002 175.312 27.0463C175.365 25.6923 175.495 24.3124 175.677 22.9324C175.859 21.5263 176.172 20.1984 176.614 18.8705C177.057 17.5426 177.63 16.3709 178.359 15.3555C179.088 14.314 179.999 13.4808 181.145 12.8298C182.265 12.1789 183.644 11.7883 185.233 11.6842H186.378C187.446 11.8404 188.487 12.0747 189.477 12.4132C190.466 12.7257 191.378 13.1683 192.159 13.7411C192.966 14.2879 193.643 14.9649 194.242 15.72C194.841 16.4751 195.283 17.4124 195.596 18.48C195.622 18.6362 195.674 19.0007 195.752 19.5996C195.804 20.1984 195.83 20.589 195.83 20.7713C195.83 21.0837 195.83 21.5263 195.856 22.1252C195.882 22.7241 195.882 23.0626 195.882 23.1407C195.882 23.5312 195.882 24.3644 195.908 25.6403C195.934 26.9161 195.96 28.3221 195.986 29.8323C196.038 31.3425 196.064 32.8006 196.064 34.2326C196.09 35.6647 196.09 36.7322 196.09 37.4092C196.09 38.3726 196.09 39.4662 196.116 40.716C196.142 41.9658 196.09 43.2416 196.012 44.5695C195.908 45.8974 195.752 47.2254 195.492 48.5272C195.231 49.8291 194.841 51.0008 194.268 52.0163C193.695 53.0578 192.94 53.891 192.029 54.5679C191.117 55.2449 189.946 55.6094 188.54 55.6875C187.316 55.7657 186.17 55.6875 185.077 55.4532C183.983 55.2189 182.863 54.9064 181.718 54.5419C180.572 54.2034 179.635 53.6566 178.906 52.9536C178.177 52.2246 177.604 51.3914 177.161 50.428C176.719 49.4646 176.406 48.4491 176.198 47.3816C175.963 46.2359 175.859 45.1944 175.807 44.205ZM183.436 43.7884C183.514 44.5956 183.749 45.2986 184.139 45.9495C184.53 46.5744 185.207 46.8608 186.118 46.7827C186.717 46.7306 187.186 46.5744 187.498 46.2359C187.81 45.8974 188.019 45.5069 188.149 45.0382C188.279 44.5695 188.357 44.0488 188.383 43.528C188.409 42.9812 188.435 42.4865 188.461 42.0439V41.5492C188.461 41.2888 188.461 41.0284 188.487 40.742C188.514 40.4556 188.514 40.1952 188.514 39.9349V39.4922C188.618 37.5394 188.696 35.7689 188.696 34.1285C188.696 32.4881 188.644 30.7176 188.514 28.7648C188.514 28.5304 188.487 28.1659 188.461 27.6452C188.409 27.1244 188.383 26.5776 188.357 25.9788C188.305 25.3799 188.279 24.8331 188.253 24.3124C188.201 23.7916 188.201 23.4271 188.201 23.1927C188.123 22.9584 187.993 22.646 187.758 22.2554C187.55 21.8648 187.316 21.4743 187.081 21.1097C186.821 20.7452 186.535 20.4328 186.222 20.1724C185.91 19.912 185.597 19.7818 185.285 19.7818C184.894 19.8339 184.582 19.9901 184.269 20.3286C183.983 20.6411 183.749 21.0577 183.592 21.5003C183.41 21.969 183.28 22.4377 183.202 22.9063C183.098 23.375 183.046 23.7656 182.994 24.078C182.968 24.1561 182.915 24.3384 182.889 24.6508C182.863 24.9633 182.811 25.3018 182.759 25.6923C182.707 26.0829 182.655 26.4474 182.577 26.7859C182.525 27.1244 182.499 27.3327 182.499 27.4108V28.218V29.7542C182.499 30.327 182.499 30.8998 182.473 31.4466C182.447 31.9934 182.447 32.4361 182.447 32.7225V33.1911C182.447 33.2693 182.447 33.3213 182.473 33.3734C182.499 33.4255 182.499 33.4776 182.499 33.5557V33.79C182.525 34.1806 182.603 34.8315 182.707 35.7949C182.811 36.7583 182.915 37.7477 183.02 38.7892C183.124 39.8307 183.228 40.8462 183.306 41.8096C183.332 42.7469 183.384 43.4239 183.436 43.7884Z" fill="#2FAC66"/>
<path d="M204.449 53.9951C204.397 53.6827 204.397 53.4483 204.397 53.24C204.397 53.0578 204.449 52.7974 204.501 52.4849L204.449 40.5077C204.032 37.5915 203.798 34.6493 203.772 31.6549C203.72 28.6606 203.642 25.7184 203.538 22.8543C203.434 21.5264 203.329 20.1724 203.225 18.8445C203.121 17.5166 203.095 16.1626 203.147 14.8347C203.147 14.6004 203.121 14.3921 203.069 14.1838C203.017 13.9755 203.043 13.7672 203.147 13.5328C203.381 13.1944 203.72 12.9079 204.163 12.7257C204.605 12.5434 205.074 12.3872 205.595 12.3091C206.115 12.2049 206.61 12.1529 207.105 12.1268C207.6 12.1008 208.016 12.0747 208.381 12.0487C209.292 11.9706 210.151 12.0487 210.958 12.283C211.766 12.5174 212.495 12.8559 213.198 13.2985C213.875 13.7411 214.526 14.2619 215.098 14.8608C215.671 15.4596 216.166 16.1106 216.582 16.8136C216.739 17.126 216.869 17.4645 216.947 17.8811C217.051 18.2717 217.155 18.6102 217.312 18.8705L217.702 22.646C217.676 22.7241 217.624 22.9324 217.598 23.2709C217.546 23.6094 217.546 23.8437 217.546 23.9478C217.468 24.5467 217.312 25.1716 217.103 25.8225C216.869 26.4474 216.791 27.0463 216.869 27.6191C216.895 28.1138 217.155 28.5565 217.572 28.9731C218.015 29.3636 218.379 29.7542 218.692 30.0927C218.796 30.1968 219.004 30.4312 219.316 30.7697C219.629 31.1082 219.837 31.3425 219.941 31.4466C219.915 31.5768 219.993 31.7851 220.202 32.1497C220.41 32.4881 220.67 32.8787 220.957 33.3213C221.243 33.764 221.504 34.2066 221.712 34.6493C221.92 35.0919 221.998 35.4304 221.972 35.6387C221.998 35.7428 222.102 35.9772 222.233 36.2636C222.363 36.576 222.493 36.8885 222.623 37.227C222.753 37.5655 222.858 37.8779 222.962 38.1643C223.066 38.4507 223.118 38.659 223.17 38.7632C223.17 38.7892 223.196 39.0496 223.222 39.4922C223.248 39.9349 223.326 40.2734 223.404 40.5077C223.587 42.2262 223.561 43.8665 223.274 45.4548C222.988 47.0431 222.571 48.6314 222.05 50.2457C222.076 50.3238 222.076 50.428 222.05 50.5321C221.998 50.6363 221.972 50.7404 221.946 50.8185C221.556 51.5476 221.139 52.2246 220.67 52.8495C220.202 53.4744 219.525 53.917 218.639 54.2034C218.483 54.2034 218.249 54.2295 217.91 54.2555C217.572 54.3076 217.233 54.3336 216.843 54.4117C216.452 54.4638 216.114 54.5159 215.775 54.5419C215.437 54.5679 215.202 54.594 215.072 54.594C214.838 54.594 214.526 54.62 214.161 54.6461C213.77 54.6981 213.406 54.7242 213.015 54.7502C212.625 54.7762 212.286 54.8283 212 54.8283C211.713 54.8544 211.557 54.8544 211.505 54.8544C211.479 54.8544 211.375 54.8544 211.219 54.8804C211.063 54.9064 210.88 54.9064 210.698 54.9064C210.516 54.9064 210.307 54.9064 210.125 54.8804C209.943 54.8544 209.787 54.8544 209.735 54.8544C209.24 54.8544 208.719 54.8283 208.146 54.7762C207.6 54.7242 207.053 54.6981 206.506 54.6981C205.933 54.7242 205.49 54.7762 205.126 54.8023C204.735 54.8804 204.527 54.594 204.449 53.9951ZM209.657 24.9373C209.683 25.0675 209.787 25.1456 209.917 25.1716C210.047 25.2237 210.151 25.2237 210.229 25.2237C210.412 25.1716 210.542 25.0935 210.568 24.9373C210.906 24.2603 211.115 23.6094 211.193 22.9845C211.271 22.3856 211.271 21.6826 211.193 20.9275C211.167 20.7452 211.115 20.5109 211.063 20.2766C211.01 20.0162 210.906 19.8079 210.776 19.5996C210.646 19.3913 210.49 19.209 210.281 19.0788C210.099 18.9486 209.865 18.8966 209.578 18.9486C209.552 18.9486 209.474 18.9747 209.37 19.0007C209.266 19.0268 209.214 19.0528 209.162 19.0528L208.98 19.3913L209.657 24.9373ZM209.943 48.3189C209.969 48.7095 210.229 48.9699 210.724 49.1261C211.193 49.2823 211.583 49.3344 211.896 49.3084C212.937 49.2042 213.744 48.9178 214.369 48.5012C214.994 48.0846 215.411 47.5639 215.697 46.965C215.958 46.3661 216.114 45.6631 216.166 44.908C216.192 44.1529 216.166 43.3718 216.062 42.6167C215.906 41.1586 215.567 39.7005 215.02 38.2424C214.473 36.7843 213.536 35.5866 212.208 34.6493C211.948 34.493 211.713 34.3628 211.505 34.2847C211.297 34.1806 211.036 34.1545 210.724 34.2066C210.49 34.2066 210.333 34.3108 210.203 34.493C210.099 34.6753 210.021 34.9096 209.969 35.144C209.917 35.4043 209.917 35.6387 209.917 35.9251V36.55V41.3148C209.943 41.393 209.995 41.6013 210.021 41.9658C210.073 42.3303 210.073 42.5386 210.073 42.6167C210.099 43.6062 210.073 44.5695 209.995 45.4809C209.891 46.3661 209.865 47.3295 209.943 48.3189Z" fill="#2FAC66"/>
<path d="M246.16 55.323C245.431 54.2815 244.858 53.3963 244.442 52.5891C244.025 51.808 243.53 50.9487 243.01 50.0374C242.932 49.9072 242.801 49.751 242.619 49.5427C242.437 49.3344 242.255 49.1001 242.072 48.8918C241.89 48.6574 241.76 48.4491 241.656 48.2408C241.552 48.0325 241.526 47.8242 241.604 47.642C241.135 46.991 240.692 46.3141 240.25 45.6371C239.807 44.9341 239.39 44.2831 238.974 43.6322H238.87C238.818 43.6322 238.792 43.6062 238.766 43.5801C238.427 43.502 238.297 43.6582 238.375 44.0488C238.401 44.4394 238.453 45.1163 238.479 46.1058C238.505 47.0952 238.557 48.1627 238.609 49.2823C238.661 50.4019 238.74 51.4695 238.792 52.4849C238.844 53.5004 238.896 54.2034 238.922 54.5679L238.974 54.7502C238.896 54.8544 238.792 55.0106 238.635 55.1928C238.479 55.3751 238.375 55.4272 238.349 55.4011L232.517 55.7917C232.178 55.8438 231.892 55.6876 231.657 55.3751C231.423 55.0366 231.293 54.7502 231.267 54.4898C231.267 54.4378 231.267 54.4117 231.293 54.4117C231.319 54.3857 231.319 54.3336 231.319 54.2815V54.0993C231.319 54.0732 231.345 53.9691 231.371 53.7868C231.397 53.6046 231.449 53.4223 231.475 53.24C231.501 53.0578 231.553 52.8755 231.579 52.7193C231.605 52.5631 231.631 52.4589 231.631 52.4329C231.631 52.3287 231.605 52.0683 231.553 51.6517C231.501 51.2612 231.449 50.8185 231.397 50.4019C231.371 49.9593 231.319 49.5427 231.293 49.1782C231.241 48.7876 231.241 48.5533 231.241 48.4231V47.0171C231.241 46.262 231.241 45.4809 231.215 44.6477C231.189 43.8145 231.189 43.0073 231.163 42.2782C231.137 41.5492 231.137 41.0545 231.137 40.8722C231.137 40.69 231.111 40.3254 231.085 39.8307C231.032 39.336 231.006 38.7892 230.98 38.2164C230.928 37.6436 230.902 37.1228 230.876 36.6021C230.824 36.1074 230.824 35.7689 230.824 35.5606C230.876 35.4825 230.876 35.3002 230.876 35.0398V34.5191C230.98 31.1863 231.006 27.9055 230.928 24.6769C230.85 21.4222 230.746 18.1675 230.642 14.8868C230.642 14.7826 230.642 14.5483 230.616 14.2619C230.59 13.9494 230.564 13.637 230.538 13.2725C230.512 12.934 230.46 12.5955 230.46 12.257C230.434 11.9446 230.434 11.7102 230.434 11.6061C230.512 11.3717 230.616 11.2415 230.746 11.2155C230.876 11.1895 231.032 11.1634 231.163 11.1634C232.699 11.0593 234.183 10.9812 235.641 10.9551C237.099 10.9291 238.453 11.0853 239.729 11.3978C241.005 11.7363 242.177 12.257 243.192 13.0381C244.233 13.7932 245.093 14.8868 245.77 16.2928C246.264 17.2822 246.759 18.2456 247.254 19.183C247.749 20.1203 248.035 21.1358 248.113 22.2554C248.269 24.5467 247.879 26.6818 246.941 28.6346C246.004 30.6134 244.676 32.384 242.958 33.9983C242.801 34.1806 242.723 34.3889 242.723 34.6232C242.801 34.9617 242.932 35.3002 243.14 35.5866C243.348 35.8991 243.426 36.2115 243.348 36.576L245.692 41.2628V41.445L248.035 45.2205C248.035 45.2465 248.191 45.585 248.53 46.1578C248.842 46.7567 249.233 47.4076 249.649 48.1627C250.066 48.9178 250.456 49.6469 250.795 50.4019C251.133 51.157 251.342 51.7038 251.368 52.0944C251.394 52.4329 251.29 52.8234 251.003 53.24C250.717 53.6566 250.378 54.0472 249.936 54.3857C249.519 54.7242 249.076 55.0106 248.608 55.271C248.139 55.5053 247.749 55.6355 247.41 55.6355C246.811 55.7396 246.421 55.6094 246.16 55.323ZM236.526 28.0357C236.683 28.218 236.787 28.3742 236.891 28.4784C236.995 28.5825 237.151 28.6346 237.386 28.6867C238.141 28.6086 238.766 28.3221 239.234 27.8535C239.703 27.3848 240.067 26.812 240.328 26.1871C240.562 25.5622 240.744 24.9112 240.823 24.2082C240.901 23.5312 240.927 22.9324 240.927 22.4377C240.901 22.0471 240.797 21.5784 240.64 21.0316C240.484 20.4849 240.276 19.9641 240.015 19.4434C239.755 18.9486 239.417 18.532 239 18.2196C238.609 17.9071 238.115 17.7509 237.542 17.777C237.151 17.829 236.865 18.0373 236.657 18.4019C236.448 18.7924 236.292 19.2351 236.24 19.7298C236.162 20.2245 236.136 20.7192 236.136 21.1879V22.2033C236.136 22.2554 236.136 22.3856 236.162 22.5939C236.188 22.8282 236.188 23.0886 236.214 23.4011C236.24 23.7135 236.24 24.026 236.266 24.3384C236.292 24.6769 236.318 24.9112 236.344 25.1195C236.344 25.2237 236.344 25.432 236.37 25.6924C236.396 25.9527 236.422 26.2652 236.422 26.5776C236.448 26.9161 236.448 27.2025 236.474 27.4629C236.526 27.7493 236.526 27.9316 236.526 28.0357Z" fill="#2FAC66"/>
<path d="M257.2 53.891C257.044 53.7868 256.888 53.6566 256.731 53.5264C256.575 53.3962 256.497 53.24 256.497 53.0317C256.315 51.2091 256.315 49.3344 256.523 47.4857C256.731 45.611 256.835 43.7624 256.835 41.9137C256.835 39.6224 256.757 37.3311 256.627 35.0138C256.497 32.6964 256.341 30.4051 256.185 28.0878C256.028 25.7705 255.898 23.4792 255.82 21.1879C255.716 18.8966 255.716 16.6313 255.794 14.366C255.794 14.1317 255.872 13.8974 256.002 13.637C256.132 13.3766 256.341 13.2204 256.601 13.1683C256.992 13.1162 257.434 13.1423 257.955 13.2204C258.476 13.2985 258.892 13.3245 259.231 13.2725C259.387 13.2725 259.674 13.2725 260.09 13.2464C260.507 13.2204 260.949 13.1943 261.444 13.1943C261.913 13.1683 262.381 13.1423 262.798 13.1423C263.215 13.1162 263.501 13.1162 263.657 13.1162C263.683 13.1162 263.84 13.0902 264.126 13.0642C264.386 13.0381 264.673 12.986 264.985 12.96C265.298 12.9079 265.558 12.8819 265.818 12.8298C266.079 12.8038 266.235 12.7777 266.313 12.7777C266.547 12.7777 266.912 12.7517 267.433 12.7257C267.953 12.6736 268.474 12.6736 268.969 12.7257C269.49 12.7517 269.958 12.8298 270.375 12.96C270.792 13.0642 271.026 13.2985 271.052 13.637L271.443 18.4539C271.469 18.7664 271.338 19.0267 271.052 19.235C270.739 19.4433 270.453 19.5735 270.193 19.5996C269.438 19.6777 268.656 19.6516 267.901 19.5215C267.146 19.3913 266.365 19.3652 265.558 19.4433C265.376 19.4433 265.115 19.4433 264.803 19.4694C264.491 19.4954 264.178 19.5475 263.866 19.5996C263.527 19.6777 263.267 19.8079 263.032 19.9381C262.798 20.0943 262.694 20.3286 262.694 20.615C262.798 22.1512 262.798 23.7395 262.694 25.3799C262.59 27.0203 262.59 28.6346 262.746 30.1968C262.746 30.3791 262.772 30.6395 262.798 30.9519C262.824 31.2644 262.954 31.4987 263.137 31.707C263.293 31.8112 263.527 31.9153 263.84 31.9674C264.178 32.0195 264.49 32.0455 264.855 32.0455C265.194 32.0455 265.532 32.0455 265.818 32.0195C266.131 31.9934 266.339 31.9934 266.495 31.9934C266.652 31.9934 266.938 31.9674 267.355 31.9413C267.771 31.9153 268.214 31.8632 268.683 31.8112C269.151 31.7591 269.594 31.707 270.01 31.681C270.427 31.6289 270.713 31.6289 270.87 31.6289C270.974 31.6289 271.078 31.707 271.156 31.8372C271.234 31.9674 271.26 32.0715 271.26 32.1496L271.651 35.873C271.677 36.2115 271.599 36.55 271.39 36.9145C271.182 37.253 270.922 37.4613 270.609 37.4873C269.776 37.5915 268.917 37.5915 268.084 37.4613C267.25 37.3311 266.391 37.3051 265.506 37.3832C264.959 37.4613 264.595 37.5915 264.36 37.7998C264.126 38.0081 263.97 38.2685 263.918 38.5809C263.84 38.8934 263.814 39.2318 263.814 39.6224V40.8201C263.814 40.9243 263.787 41.2107 263.761 41.6533C263.735 42.096 263.683 42.5646 263.605 43.0594C263.553 43.5541 263.501 44.0227 263.475 44.4393C263.449 44.8559 263.397 45.1424 263.371 45.2465C263.449 45.2986 263.475 45.4027 263.423 45.585C263.397 45.7673 263.397 45.9235 263.475 46.0276C263.475 46.262 263.527 46.5484 263.579 46.8608C263.657 47.1993 263.866 47.3555 264.204 47.3555H265.558H267.563H269.568H270.844C271.443 47.3555 272.015 47.4076 272.51 47.5378C273.005 47.642 273.343 48.0846 273.552 48.7876C273.552 48.8657 273.578 49.048 273.63 49.3344C273.682 49.6208 273.734 49.9333 273.812 50.2978C273.864 50.6623 273.916 51.0268 273.994 51.3914C274.046 51.7559 274.098 52.0423 274.15 52.2246V52.563C274.229 53.1098 274.098 53.3962 273.76 53.4744C273.421 53.5525 273.031 53.6306 272.614 53.7087C271 53.891 269.412 53.943 267.797 53.8389C266.183 53.7608 264.595 53.6827 262.98 53.6306C262.876 53.6045 262.59 53.6045 262.121 53.6566C261.652 53.7087 261.392 53.7347 261.314 53.7347C261.158 53.7347 260.897 53.7347 260.481 53.7608C260.09 53.7868 259.648 53.8128 259.231 53.8389C258.788 53.8649 258.372 53.891 258.007 53.917C257.617 53.8649 257.356 53.891 257.2 53.891Z" fill="#2FAC66"/>
<path d="M306.696 48.8397C306.722 48.7616 306.696 48.6054 306.618 48.319C306.514 48.0586 306.41 47.7462 306.28 47.4337C306.15 47.1213 306.019 46.8088 305.889 46.5224C305.759 46.236 305.681 46.0277 305.629 45.8714V43.8666V41.9137C305.629 41.6794 305.629 41.1847 305.655 40.4036C305.681 39.6224 305.681 38.7892 305.707 37.8779C305.733 36.9927 305.733 36.1334 305.759 35.3523C305.785 34.5712 305.785 34.0765 305.785 33.8421V30.301C305.837 30.0406 305.863 29.598 305.863 28.9991C305.889 28.4003 305.915 27.8014 305.941 27.1765C305.967 26.5516 305.993 25.9528 306.019 25.432C306.046 24.9113 306.072 24.5467 306.098 24.3384C306.098 24.2603 306.124 24.026 306.15 23.6354C306.176 23.2188 306.254 22.9584 306.332 22.8022C306.436 22.1513 306.514 21.4743 306.566 20.7453C306.592 20.0162 306.722 19.3392 306.905 18.6883C307.139 18.0894 307.504 17.3604 307.998 16.5011C308.493 15.6679 309.092 14.8608 309.795 14.1317C310.498 13.3766 311.279 12.7517 312.112 12.205C312.945 11.6582 313.831 11.3978 314.742 11.3978C315.419 11.3978 315.966 11.4238 316.356 11.4499C316.747 11.4759 317.085 11.554 317.372 11.6842C317.658 11.7884 317.919 11.9706 318.153 12.231C318.387 12.4914 318.674 12.8299 319.012 13.2985C319.012 13.3766 319.038 13.4548 319.116 13.5329L319.22 13.637V18.8966L318.778 19.2351C317.059 19.3132 315.705 19.6777 314.69 20.3287C313.675 20.9796 312.998 21.9951 312.659 23.375C312.607 23.6875 312.581 24.1822 312.503 24.8852C312.451 25.5882 312.373 26.3433 312.295 27.1244C312.216 27.9056 312.138 28.6607 312.06 29.3637C311.982 30.0667 311.956 30.5614 311.956 30.8218V33.061C311.956 34.5191 311.956 35.873 311.982 37.1228C312.008 38.3726 312.06 39.7787 312.112 41.3149C312.19 42.4085 312.425 43.3198 312.789 43.9967C313.18 44.6737 313.622 45.2205 314.169 45.6371C314.716 46.0277 315.289 46.3401 315.888 46.5484C316.487 46.7567 317.059 46.939 317.606 47.0692C318.153 47.1994 318.596 47.3556 318.986 47.5118C319.377 47.6941 319.611 47.9284 319.663 48.2409V49.7771C319.663 50.0895 319.689 50.454 319.715 50.8967C319.741 51.3393 319.741 51.782 319.689 52.2246C319.637 52.6672 319.507 53.0578 319.325 53.3963C319.142 53.7348 318.804 53.9691 318.309 54.0733H316.773C314.482 54.0733 312.451 53.6827 310.68 52.8755C308.91 52.0423 307.582 50.7144 306.696 48.8397Z" fill="#2FAC66"/>
<path d="M324.922 51.4174C324.922 51.3393 324.948 51.2612 324.974 51.1571C325.026 51.0529 325.026 51.0008 324.974 50.9487C325.026 50.454 325.078 49.8552 325.156 49.1522C325.234 48.4492 325.365 47.8763 325.547 47.4077C325.677 47.1473 325.859 46.939 326.12 46.8088C326.38 46.6786 326.666 46.5745 326.953 46.4703C327.239 46.3662 327.526 46.262 327.786 46.1839C328.046 46.0797 328.255 45.9235 328.411 45.6892C328.437 45.6892 328.489 45.6371 328.489 45.5069C328.515 45.4028 328.515 45.2986 328.515 45.2205C328.515 45.1424 328.515 44.9862 328.541 44.7518C328.567 44.5175 328.593 44.2571 328.593 43.9707C328.619 43.6843 328.619 43.4239 328.619 43.1375V42.5647C328.515 39.4662 328.489 36.3938 328.541 33.3474C328.593 30.301 328.541 27.2286 328.333 24.1822C328.333 24.1041 328.307 23.9479 328.281 23.7135C328.255 23.4792 328.203 23.2449 328.203 22.9584C328.177 22.6981 328.151 22.4377 328.151 22.2294C328.124 21.9951 328.124 21.8128 328.124 21.7086C328.046 21.3702 327.864 21.1619 327.578 21.0837C327.291 21.0056 326.979 20.9275 326.64 20.8494C326.302 20.7713 325.989 20.6411 325.729 20.4849C325.469 20.3026 325.312 19.9902 325.26 19.5475C325.26 19.5215 325.26 19.4694 325.234 19.4434C325.208 19.3913 325.208 19.3653 325.208 19.3392V18.1675C325.208 17.6208 325.208 17.0219 325.234 16.397C325.26 15.7721 325.26 15.1732 325.26 14.6264V13.5068C325.338 13.1944 325.443 12.8299 325.547 12.3612C325.677 11.8925 325.885 11.6321 326.172 11.554L326.276 11.6061H326.38C326.953 11.7102 327.76 11.7623 328.775 11.7363C329.817 11.7102 330.858 11.7363 331.926 11.7884C332.994 11.8404 333.983 11.9706 334.92 12.1789C335.858 12.3872 336.509 12.7517 336.899 13.2985C337.081 13.5329 337.186 13.8974 337.186 14.3921C337.186 14.8868 337.212 15.2774 337.238 15.5378C337.342 17.1781 337.29 18.3238 337.081 18.9747C336.873 19.6256 336.639 20.0683 336.352 20.3026C336.066 20.537 335.78 20.6932 335.467 20.7453C335.155 20.8234 334.972 21.1358 334.894 21.6566C334.634 23.2709 334.478 24.8592 334.426 26.4735C334.373 28.0878 334.4 29.6761 334.452 31.2904C334.504 32.9048 334.582 34.4931 334.712 36.0813C334.842 37.6696 334.92 39.2579 334.998 40.8722V41.4711V42.5386C334.998 42.9292 334.998 43.2677 335.024 43.6062C335.05 43.9447 335.05 44.1269 335.05 44.205V44.6737C335.076 45.1424 335.259 45.4288 335.571 45.585C335.884 45.7413 336.222 45.8714 336.613 46.0277C337.003 46.1579 337.342 46.3401 337.68 46.5484C337.993 46.7567 338.201 47.1473 338.279 47.7201C338.279 47.9805 338.279 48.371 338.305 48.8918C338.331 49.4125 338.305 49.9333 338.227 50.428C338.149 50.9488 338.019 51.4174 337.81 51.834C337.602 52.2506 337.264 52.485 336.795 52.511C336.04 52.6672 335.155 52.6933 334.191 52.6152C333.228 52.537 332.343 52.537 331.587 52.6152C331.483 52.6152 331.197 52.6412 330.754 52.6933C330.312 52.7453 329.843 52.7974 329.374 52.8755C328.906 52.9276 328.437 52.9797 327.994 53.0057C327.552 53.0578 327.291 53.0578 327.161 53.0578C326.614 53.0838 326.12 52.9797 325.677 52.7453C325.26 52.511 325 52.0684 324.922 51.4174Z" fill="#2FAC66"/>
<path d="M361.686 52.1724C361.53 52.1724 361.348 52.2245 361.139 52.3547C360.931 52.4849 360.723 52.589 360.514 52.7192C360.306 52.8494 360.124 52.9796 359.968 53.1098C359.811 53.24 359.733 53.3441 359.681 53.3702C359.134 53.6305 358.562 53.7868 357.911 53.8388C357.26 53.8909 356.661 53.8909 356.088 53.8909C354.76 53.943 353.51 53.6305 352.339 52.9796C351.167 52.3287 350.125 51.4694 349.214 50.4019C348.303 49.3343 347.548 48.1366 346.949 46.8087C346.35 45.4808 345.959 44.205 345.777 42.9552C345.543 41.471 345.413 39.9608 345.413 38.3986C345.387 36.8624 345.361 35.3262 345.334 33.79C345.256 31.8371 345.387 29.7541 345.725 27.541C346.064 25.3278 346.636 23.3229 347.444 21.5263C347.782 20.7712 348.251 19.964 348.824 19.1048C349.396 18.2456 350.047 17.4384 350.802 16.6833C351.531 15.9282 352.339 15.2513 353.172 14.6524C354.005 14.0535 354.838 13.6369 355.697 13.4286C355.854 13.4286 356.166 13.4026 356.609 13.3766C357.077 13.3245 357.364 13.3245 357.52 13.3245C359.16 13.2984 360.488 13.4286 361.53 13.7671C362.545 14.1056 363.352 14.6264 363.899 15.3294C364.446 16.0584 364.837 16.9958 365.019 18.1414C365.201 19.2871 365.331 20.6931 365.357 22.3335V22.8802C365.357 23.1406 365.357 23.401 365.383 23.6874C365.409 23.9738 365.409 24.2602 365.409 24.5206V25.0934C365.357 25.4059 365.331 25.7183 365.305 26.1089C365.253 26.4734 365.201 26.8119 365.097 27.1244C364.993 27.4368 364.863 27.6972 364.654 27.9315C364.472 28.1659 364.186 28.27 363.847 28.27C363.092 28.244 362.363 28.1398 361.738 27.9836C361.191 27.8794 360.697 27.7232 360.254 27.541C359.785 27.3587 359.577 27.1244 359.577 26.8119L359.525 22.6459C359.525 22.0991 359.291 21.6565 358.822 21.2659C358.353 20.8754 357.859 20.6931 357.364 20.6931C356.14 20.7452 355.125 21.2659 354.291 22.3335C353.484 23.375 352.807 24.6248 352.313 26.0829C351.818 27.541 351.453 29.0251 351.245 30.5613C351.037 32.0975 350.933 33.3734 350.933 34.3888C350.959 35.3001 351.089 36.4458 351.297 37.7997C351.505 39.1537 351.844 40.4556 352.339 41.7314C352.807 42.9812 353.432 44.0748 354.239 44.934C355.02 45.8193 356.01 46.2359 357.26 46.2359C357.937 46.2098 358.509 45.9495 358.926 45.4808C359.343 45.0121 359.525 44.4393 359.447 43.7623C359.447 43.7102 359.447 43.6321 359.421 43.4759C359.395 43.3197 359.395 43.1635 359.369 42.9812C359.343 42.7989 359.317 42.6687 359.265 42.5125C359.212 42.3823 359.134 42.3042 359.056 42.3042L356.374 42.3563C356.27 42.3563 356.14 42.2782 356.01 42.148C355.88 42.0178 355.749 41.8616 355.645 41.6533C355.541 41.471 355.437 41.2888 355.359 41.1065C355.281 40.9242 355.255 40.794 355.255 40.6639L355.203 36.9405C355.203 36.5499 355.359 36.2375 355.671 36.0031C355.984 35.7428 356.296 35.6386 356.661 35.6386H356.895C357.077 35.6907 357.416 35.7428 357.911 35.873C358.379 36.0031 358.692 36.0813 358.796 36.1073L366.191 35.873C366.269 35.873 366.373 35.9771 366.503 36.1854C366.633 36.3937 366.737 36.5499 366.815 36.6801C366.841 36.7322 366.867 36.7582 366.894 36.7843C366.92 36.8363 366.946 36.8624 366.972 36.8884C367.024 36.9665 367.05 37.0186 367.076 37.0707C367.076 37.1748 367.05 37.4092 367.024 37.7477C366.998 38.0861 366.946 38.3205 366.92 38.4246L367.206 53.5524C367.206 53.8649 367.102 54.0992 366.894 54.2815C366.685 54.4637 366.477 54.5418 366.295 54.5418C365.774 54.5939 365.201 54.5158 364.602 54.3856C364.003 54.2294 363.509 53.9951 363.092 53.7086C362.832 53.5524 362.623 53.266 362.519 52.8494C362.259 52.3807 362.025 52.1724 361.686 52.1724Z" fill="#2FAC66"/>
<path d="M390.226 53.5264C390.044 53.4483 389.836 53.3181 389.654 53.1619C389.471 52.9796 389.341 52.7974 389.315 52.6151L387.935 40.4816C387.935 40.3254 387.857 40.1952 387.727 40.0911C387.597 39.9869 387.466 39.9349 387.362 39.9869L380.723 40.6118L381.816 50.6363C381.894 51.2351 382.077 51.8079 382.337 52.3287C382.597 52.8494 382.78 53.3962 382.858 53.9691C382.884 54.2034 382.884 54.3336 382.806 54.3857C382.728 54.4377 382.545 54.4898 382.285 54.5159C382.207 54.5159 382.103 54.5159 381.972 54.5419C381.842 54.5679 381.764 54.5679 381.712 54.5679H381.009C380.697 54.5679 380.358 54.5679 379.994 54.594C379.655 54.62 379.343 54.646 379.056 54.646C378.77 54.6721 378.588 54.6721 378.509 54.6721C377.833 54.6721 377.26 54.594 376.843 54.4377C376.426 54.2815 376.088 54.0472 375.88 53.7608C375.645 53.4483 375.489 53.0838 375.385 52.6412C375.281 52.1985 375.203 51.7038 375.125 51.131C374.942 49.0219 374.786 46.9389 374.656 44.8559C374.526 42.7729 374.448 40.6639 374.37 38.5288C374.37 38.5028 374.37 38.2945 374.343 37.9039C374.317 37.5134 374.291 37.0968 374.265 36.576C374.213 36.0813 374.187 35.5866 374.161 35.1179C374.135 34.6492 374.083 34.2587 374.057 33.9983C373.979 32.5402 374.057 31.2123 374.265 29.9885C374.474 28.7648 374.708 27.4369 374.968 25.9788C374.734 25.3278 374.786 24.6508 375.099 23.9218C375.411 23.1927 375.671 22.5418 375.88 21.969C375.958 21.6565 376.01 21.3701 376.01 21.1097C376.036 20.8494 376.088 20.5369 376.218 20.1984C376.218 20.1724 376.244 20.0943 376.27 19.9901C376.296 19.886 376.348 19.8599 376.374 19.8599C376.791 19.1048 377.156 18.3237 377.468 17.5426C377.78 16.7615 378.197 15.9804 378.744 15.2253C379.082 14.7566 379.499 14.2879 379.994 13.8192C380.488 13.3506 381.035 12.8819 381.608 12.4653C382.181 12.0487 382.78 11.7102 383.405 11.4238C384.029 11.1634 384.654 10.9812 385.253 10.903C386.972 10.7468 388.3 10.9812 389.263 11.6061C390.226 12.231 390.981 13.0381 391.528 14.0536C392.075 15.043 392.518 16.1366 392.804 17.3603C393.117 18.5581 393.455 19.6777 393.846 20.7192C393.846 20.8233 393.872 21.0577 393.924 21.3441C393.976 21.6305 394.028 21.969 394.054 22.3075C394.106 22.646 394.132 22.9584 394.184 23.2448C394.236 23.5312 394.262 23.7395 394.262 23.8437C394.523 26.3693 394.679 28.8949 394.757 31.4727C394.809 34.0243 394.887 36.576 395.017 39.1017C395.017 39.7526 394.965 40.4296 394.861 41.1065C394.757 41.7835 394.731 42.4605 394.783 43.1114C394.783 43.1895 394.809 43.3978 394.835 43.7103C394.861 44.0488 394.913 44.3873 394.939 44.7778C394.965 45.1684 395.017 45.5069 395.095 45.8454C395.173 46.1838 395.173 46.3661 395.173 46.4442V48.345C395.173 48.4231 395.173 48.6314 395.2 48.9438C395.226 49.2823 395.252 49.6208 395.252 50.0114C395.278 50.4019 395.278 50.7404 395.304 51.0789C395.33 51.4174 395.33 51.6257 395.33 51.7298C395.33 51.9642 395.304 52.3027 395.226 52.7713C395.147 53.24 394.887 53.5004 394.47 53.5785H394.366C394.314 53.5785 394.21 53.5525 394.002 53.5264C393.793 53.5004 393.663 53.4743 393.637 53.4743C393.533 53.4743 393.299 53.4743 392.96 53.5004C392.622 53.5264 392.257 53.5264 391.893 53.5264C391.528 53.5264 391.19 53.5264 390.851 53.5525C390.539 53.5264 390.331 53.5264 390.226 53.5264ZM380.827 32.9047C380.853 33.3734 381.139 33.6858 381.634 33.8681C382.129 34.0504 382.702 34.1806 383.352 34.2326C384.003 34.2847 384.654 34.3107 385.305 34.2847C385.956 34.2587 386.451 34.2326 386.789 34.2066C386.868 34.2066 387.024 34.2066 387.258 34.1806C387.492 34.1545 387.649 34.1545 387.727 34.1545C387.805 34.0504 387.857 33.9462 387.909 33.8421C387.935 33.7379 387.987 33.6338 388.013 33.5296C388.013 33.2953 387.987 32.9308 387.961 32.41C387.909 31.8893 387.883 31.3425 387.883 30.7176C387.857 30.1187 387.857 29.5459 387.831 29.0251C387.805 28.5044 387.805 28.1399 387.805 27.9055C387.831 27.8274 387.857 27.6452 387.857 27.3848V26.8119L387.284 21.2399C387.232 20.9795 387.154 20.6671 386.998 20.3286C386.841 19.9901 386.659 19.6777 386.425 19.3913C386.191 19.1048 385.904 18.8705 385.592 18.7143C385.253 18.532 384.941 18.4799 384.602 18.506C384.29 18.532 384.003 18.6362 383.743 18.7924C382.493 20.0943 381.686 21.4482 381.4 22.8543C381.087 24.2603 380.931 25.8225 380.879 27.4889C380.879 28.4002 380.853 29.3116 380.827 30.1708C380.723 31.1081 380.749 31.9934 380.827 32.9047Z" fill="#2FAC66"/>
<path d="M416.789 55.323C416.06 54.2815 415.487 53.3963 415.071 52.5891C414.654 51.808 414.185 50.9487 413.639 50.0374C413.561 49.9072 413.43 49.751 413.248 49.5427C413.066 49.3344 412.884 49.1001 412.701 48.8918C412.519 48.6574 412.389 48.4491 412.259 48.2408C412.154 48.0325 412.128 47.8242 412.207 47.642C411.738 46.991 411.295 46.3141 410.853 45.6371C410.41 44.9341 409.993 44.2831 409.577 43.6322H409.473C409.447 43.6322 409.394 43.6062 409.368 43.5801C409.03 43.502 408.9 43.6582 408.978 44.0488C409.004 44.4394 409.056 45.1163 409.082 46.1058C409.108 47.0952 409.16 48.1627 409.212 49.2823C409.264 50.4019 409.316 51.4695 409.394 52.4849C409.447 53.5004 409.499 54.2034 409.525 54.5679L409.577 54.7502C409.499 54.8544 409.394 55.0106 409.238 55.1928C409.082 55.3751 408.978 55.4272 408.952 55.4011L403.119 55.7917C402.781 55.8438 402.495 55.6876 402.26 55.3751C402.026 55.0366 401.896 54.7502 401.87 54.4898C401.87 54.4378 401.87 54.4117 401.896 54.4117C401.922 54.3857 401.922 54.3336 401.922 54.2815V54.0993C401.922 54.0732 401.948 53.9691 401.974 53.7868C402 53.6046 402.052 53.4223 402.078 53.24C402.104 53.0578 402.156 52.8755 402.182 52.7193C402.208 52.5631 402.234 52.4589 402.234 52.4329C402.234 52.3287 402.208 52.0683 402.156 51.6517C402.104 51.2612 402.052 50.8185 402.026 50.4019C401.974 49.9593 401.948 49.5427 401.922 49.1782C401.896 48.7876 401.87 48.5533 401.87 48.4231V47.0171C401.87 46.262 401.87 45.4809 401.844 44.6477C401.818 43.8145 401.818 43.0073 401.792 42.2782C401.766 41.5492 401.765 41.0545 401.765 40.8722C401.765 40.69 401.739 40.3254 401.713 39.8307C401.687 39.336 401.635 38.7892 401.609 38.2164C401.583 37.6436 401.531 37.1228 401.505 36.6021C401.479 36.1074 401.453 35.7689 401.453 35.5606C401.479 35.4825 401.505 35.3002 401.505 35.0398V34.5191C401.609 31.1863 401.635 27.9055 401.557 24.6769C401.479 21.4222 401.375 18.1675 401.271 14.8868C401.271 14.7826 401.271 14.5483 401.245 14.2619C401.219 13.9494 401.193 13.637 401.167 13.2725C401.115 12.934 401.089 12.5955 401.089 12.257C401.062 11.9446 401.063 11.7102 401.063 11.6061C401.141 11.3717 401.245 11.2415 401.375 11.2155C401.505 11.1895 401.661 11.1634 401.818 11.1634C403.354 11.0593 404.838 10.9812 406.296 10.9551C407.754 10.9291 409.108 11.0853 410.384 11.3978C411.66 11.7363 412.831 12.257 413.847 13.0381C414.888 13.7932 415.748 14.8868 416.425 16.2928C416.919 17.2822 417.414 18.2456 417.909 19.183C418.403 20.1203 418.69 21.1358 418.768 22.2554C418.924 24.5467 418.534 26.6818 417.596 28.6346C416.659 30.6134 415.331 32.384 413.613 33.9983C413.456 34.1806 413.378 34.3889 413.378 34.6232C413.456 34.9617 413.587 35.3002 413.821 35.5866C414.029 35.8991 414.107 36.2115 414.029 36.576L416.373 41.2628V41.445L418.716 45.2205C418.716 45.2465 418.872 45.585 419.211 46.1578C419.523 46.7567 419.914 47.4076 420.33 48.1627C420.747 48.9178 421.137 49.6469 421.476 50.4019C421.814 51.157 421.997 51.7038 422.049 52.0944C422.075 52.4329 421.971 52.8234 421.684 53.24C421.398 53.6566 421.033 54.0472 420.617 54.3857C420.2 54.7242 419.757 55.0106 419.289 55.271C418.82 55.5053 418.429 55.6355 418.091 55.6355C417.466 55.7396 417.076 55.6094 416.789 55.323ZM407.181 28.0357C407.338 28.218 407.468 28.3742 407.546 28.4784C407.65 28.5825 407.806 28.6346 408.041 28.6867C408.796 28.6086 409.421 28.3221 409.915 27.8535C410.384 27.3848 410.748 26.812 411.009 26.1871C411.269 25.5622 411.425 24.9112 411.504 24.2082C411.582 23.5312 411.608 22.9324 411.608 22.4377C411.582 22.0471 411.477 21.5784 411.321 21.0316C411.165 20.4849 410.957 19.9641 410.696 19.4434C410.436 18.9486 410.098 18.532 409.681 18.2196C409.29 17.9071 408.796 17.7509 408.223 17.777C407.832 17.829 407.546 18.0373 407.338 18.4019C407.129 18.7924 406.973 19.2351 406.895 19.7298C406.817 20.2245 406.791 20.7192 406.791 21.1879V22.2033C406.791 22.2554 406.791 22.3856 406.817 22.5939C406.843 22.8282 406.869 23.0886 406.869 23.4011C406.895 23.7135 406.921 24.026 406.921 24.3384C406.947 24.6769 406.973 24.9112 406.999 25.1195C406.999 25.2237 406.999 25.432 407.025 25.6924C407.051 25.9527 407.077 26.2652 407.077 26.5776C407.103 26.9161 407.103 27.2025 407.129 27.4629C407.155 27.7493 407.181 27.9316 407.181 28.0357Z" fill="#2FAC66"/>
<path d="M442.227 55.323C441.498 54.2815 440.925 53.3963 440.508 52.5891C440.092 51.808 439.597 50.9487 439.076 50.0374C438.998 49.9072 438.868 49.751 438.686 49.5427C438.503 49.3344 438.321 49.1001 438.139 48.8918C437.957 48.6574 437.826 48.4491 437.722 48.2408C437.618 48.0325 437.592 47.8242 437.67 47.642C437.201 46.991 436.759 46.3141 436.316 45.6371C435.874 44.9341 435.457 44.2831 435.04 43.6322H434.936C434.884 43.6322 434.858 43.6062 434.832 43.5801C434.494 43.502 434.363 43.6582 434.441 44.0488C434.467 44.4394 434.52 45.1163 434.546 46.1058C434.572 47.0952 434.624 48.1627 434.676 49.2823C434.728 50.4019 434.806 51.4695 434.858 52.4849C434.91 53.5004 434.962 54.2034 434.988 54.5679L435.04 54.7502C434.962 54.8544 434.858 55.0106 434.702 55.1928C434.546 55.3751 434.441 55.4272 434.415 55.4011L428.583 55.7917C428.245 55.8438 427.958 55.6876 427.724 55.3751C427.489 55.0366 427.359 54.7502 427.333 54.4898C427.333 54.4378 427.333 54.4117 427.359 54.4117C427.385 54.3857 427.385 54.3336 427.385 54.2815V54.0993C427.385 54.0732 427.411 53.9691 427.437 53.7868C427.463 53.6046 427.515 53.4223 427.542 53.24C427.568 53.0578 427.62 52.8755 427.646 52.7193C427.672 52.5631 427.698 52.4589 427.698 52.4329C427.698 52.3287 427.672 52.0683 427.62 51.6517C427.568 51.2612 427.515 50.8185 427.463 50.4019C427.437 49.9593 427.385 49.5427 427.359 49.1782C427.307 48.7876 427.307 48.5533 427.307 48.4231V47.0171C427.307 46.262 427.307 45.4809 427.281 44.6477C427.255 43.8145 427.255 43.0073 427.229 42.2782C427.203 41.5492 427.203 41.0545 427.203 40.8722C427.203 40.69 427.177 40.3254 427.151 39.8307C427.099 39.336 427.073 38.7892 427.047 38.2164C426.995 37.6436 426.969 37.1228 426.943 36.6021C426.891 36.1074 426.891 35.7689 426.891 35.5606C426.943 35.4825 426.943 35.3002 426.943 35.0398V34.5191C427.047 31.1863 427.073 27.9055 426.995 24.6769C426.917 21.4222 426.812 18.1675 426.708 14.8868C426.708 14.7826 426.708 14.5483 426.682 14.2619C426.656 13.9494 426.63 13.637 426.604 13.2725C426.578 12.934 426.526 12.5955 426.526 12.257C426.5 11.9446 426.5 11.7102 426.5 11.6061C426.578 11.3717 426.682 11.2415 426.812 11.2155C426.943 11.1895 427.099 11.1634 427.229 11.1634C428.765 11.0593 430.249 10.9812 431.707 10.9551C433.166 10.9291 434.52 11.0853 435.795 11.3978C437.071 11.7363 438.243 12.257 439.258 13.0381C440.3 13.7932 441.159 14.8868 441.836 16.2928C442.331 17.2822 442.826 18.2456 443.32 19.183C443.815 20.1203 444.101 21.1358 444.179 22.2554C444.336 24.5467 443.945 26.6818 443.008 28.6346C442.07 30.6134 440.743 32.384 439.024 33.9983C438.868 34.1806 438.79 34.3889 438.79 34.6232C438.868 34.9617 438.998 35.3002 439.206 35.5866C439.415 35.8991 439.493 36.2115 439.415 36.576L441.758 41.2628V41.445L444.101 45.2205C444.101 45.2465 444.258 45.585 444.596 46.1578C444.909 46.7567 445.299 47.4076 445.716 48.1627C446.132 48.9178 446.523 49.6469 446.861 50.4019C447.2 51.157 447.408 51.7038 447.434 52.0944C447.46 52.4329 447.356 52.8234 447.07 53.24C446.783 53.6566 446.445 54.0472 446.002 54.3857C445.586 54.7242 445.143 55.0106 444.674 55.271C444.206 55.5053 443.815 55.6355 443.476 55.6355C442.904 55.7396 442.487 55.6094 442.227 55.323ZM432.593 28.0357C432.749 28.218 432.853 28.3742 432.957 28.4784C433.061 28.5825 433.218 28.6346 433.452 28.6867C434.207 28.6086 434.832 28.3221 435.301 27.8535C435.769 27.3848 436.134 26.812 436.394 26.1871C436.629 25.5622 436.811 24.9112 436.889 24.2082C436.967 23.5312 436.993 22.9324 436.993 22.4377C436.967 22.0471 436.863 21.5784 436.707 21.0316C436.55 20.4849 436.342 19.9641 436.082 19.4434C435.821 18.9486 435.483 18.532 435.066 18.2196C434.676 17.9071 434.181 17.7509 433.608 17.777C433.218 17.829 432.931 18.0373 432.723 18.4019C432.515 18.7924 432.358 19.2351 432.306 19.7298C432.228 20.2245 432.202 20.7192 432.202 21.1879V22.2033C432.202 22.2554 432.202 22.3856 432.228 22.5939C432.254 22.8282 432.254 23.0886 432.28 23.4011C432.306 23.7135 432.306 24.026 432.332 24.3384C432.358 24.6769 432.384 24.9112 432.411 25.1195C432.411 25.2237 432.411 25.432 432.437 25.6924C432.463 25.9527 432.489 26.2652 432.489 26.5776C432.515 26.9161 432.515 27.2025 432.541 27.4629C432.593 27.7493 432.593 27.9316 432.593 28.0357Z" fill="#2FAC66"/>
<path d="M468.105 53.5264C467.923 53.4483 467.715 53.3181 467.532 53.1619C467.35 52.9796 467.22 52.7974 467.194 52.6151L465.814 40.4816C465.814 40.3254 465.736 40.1952 465.606 40.0911C465.475 39.9869 465.345 39.9349 465.241 39.9869L458.602 40.6118L459.695 50.6363C459.773 51.2351 459.956 51.8079 460.216 52.3287C460.476 52.8494 460.659 53.3962 460.737 53.9691C460.763 54.2034 460.763 54.3336 460.685 54.3857C460.606 54.4377 460.424 54.4898 460.164 54.5159C460.086 54.5159 459.982 54.5159 459.851 54.5419C459.721 54.5679 459.643 54.5679 459.591 54.5679H458.888C458.576 54.5679 458.237 54.5679 457.873 54.594C457.534 54.62 457.222 54.646 456.935 54.646C456.649 54.6721 456.467 54.6721 456.388 54.6721C455.711 54.6721 455.139 54.594 454.722 54.4377C454.305 54.2815 453.967 54.0472 453.759 53.7608C453.524 53.4483 453.368 53.0838 453.264 52.6412C453.16 52.1985 453.082 51.7038 453.004 51.131C452.821 49.0219 452.665 46.9389 452.535 44.8559C452.405 42.7729 452.327 40.6639 452.248 38.5288C452.248 38.5028 452.248 38.2945 452.222 37.9039C452.196 37.5134 452.17 37.0968 452.144 36.576C452.092 36.0813 452.066 35.5866 452.04 35.1179C452.014 34.6492 451.962 34.2587 451.936 33.9983C451.858 32.5402 451.936 31.2123 452.144 29.9885C452.353 28.7648 452.587 27.4369 452.847 25.9788C452.613 25.3278 452.665 24.6508 452.977 23.9218C453.29 23.1927 453.55 22.5418 453.759 21.969C453.837 21.6565 453.889 21.3701 453.889 21.1097C453.915 20.8494 453.967 20.5369 454.097 20.1984C454.097 20.1724 454.123 20.0943 454.149 19.9901C454.175 19.886 454.227 19.8599 454.253 19.8599C454.67 19.1048 455.034 18.3237 455.347 17.5426C455.659 16.7615 456.076 15.9804 456.623 15.2253C456.961 14.7566 457.378 14.2879 457.873 13.8192C458.367 13.3506 458.914 12.8819 459.487 12.4653C460.06 12.0487 460.659 11.7102 461.283 11.4238C461.908 11.1634 462.533 10.9812 463.132 10.903C464.851 10.7468 466.178 10.9812 467.142 11.6061C468.105 12.231 468.86 13.0381 469.407 14.0536C469.954 15.043 470.397 16.1366 470.683 17.3603C470.995 18.5581 471.334 19.6777 471.724 20.7192C471.724 20.8233 471.751 21.0577 471.803 21.3441C471.855 21.6305 471.907 21.969 471.933 22.3075C471.985 22.646 472.011 22.9584 472.063 23.2448C472.115 23.5312 472.141 23.7395 472.141 23.8437C472.401 26.3693 472.558 28.8949 472.636 31.4727C472.688 34.0243 472.766 36.576 472.896 39.1017C472.896 39.7526 472.844 40.4296 472.74 41.1065C472.636 41.7835 472.61 42.4605 472.662 43.1114C472.662 43.1895 472.688 43.3978 472.714 43.7103C472.74 44.0488 472.792 44.3873 472.818 44.7778C472.844 45.1684 472.896 45.5069 472.974 45.8454C473.052 46.1838 473.052 46.3661 473.052 46.4442V48.345C473.052 48.4231 473.052 48.6314 473.078 48.9438C473.104 49.2823 473.13 49.6208 473.13 50.0114C473.157 50.4019 473.157 50.7404 473.183 51.0789C473.209 51.4174 473.209 51.6257 473.209 51.7298C473.209 51.9642 473.183 52.3027 473.104 52.7713C473.026 53.24 472.766 53.5004 472.349 53.5785H472.245C472.193 53.5785 472.089 53.5525 471.881 53.5264C471.672 53.5004 471.542 53.4743 471.516 53.4743C471.412 53.4743 471.178 53.4743 470.839 53.5004C470.501 53.5264 470.136 53.5264 469.772 53.5264C469.407 53.5264 469.069 53.5264 468.73 53.5525C468.444 53.5264 468.235 53.5264 468.105 53.5264ZM458.732 32.9047C458.758 33.3734 459.044 33.6858 459.539 33.8681C460.034 34.0504 460.606 34.1806 461.257 34.2326C461.908 34.2847 462.559 34.3107 463.21 34.2847C463.861 34.2587 464.356 34.2326 464.694 34.2066C464.772 34.2066 464.929 34.2066 465.163 34.1806C465.397 34.1545 465.554 34.1545 465.632 34.1545C465.71 34.0504 465.762 33.9462 465.814 33.8421C465.84 33.7379 465.892 33.6338 465.918 33.5296C465.918 33.2953 465.892 32.9308 465.866 32.41C465.814 31.8893 465.788 31.3425 465.788 30.7176C465.762 30.1187 465.762 29.5459 465.736 29.0251C465.71 28.5044 465.71 28.1399 465.71 27.9055C465.736 27.8274 465.762 27.6452 465.762 27.3848V26.8119L465.189 21.2399C465.137 20.9795 465.059 20.6671 464.903 20.3286C464.746 19.9901 464.564 19.6777 464.33 19.3913C464.095 19.1048 463.809 18.8705 463.497 18.7143C463.158 18.532 462.846 18.4799 462.507 18.506C462.195 18.532 461.908 18.6362 461.648 18.7924C460.398 20.0943 459.591 21.4482 459.305 22.8543C458.992 24.2603 458.836 25.8225 458.784 27.4889C458.784 28.4002 458.758 29.3116 458.732 30.1708C458.628 31.1081 458.654 31.9934 458.732 32.9047Z" fill="#2FAC66"/>
<path d="M477.059 44.7778C477.319 44.0488 477.814 43.5801 478.517 43.3718C479.22 43.1635 480.053 43.1114 481.042 43.1895C482.006 43.2937 483.099 43.4499 484.297 43.7363C485.495 43.9967 486.745 44.2571 488.046 44.4914C488.567 44.4654 489.036 44.3091 489.452 44.1008C489.843 43.8665 490.234 43.5801 490.572 43.2156C490.911 42.851 491.249 42.4344 491.535 41.9918C491.848 41.5231 492.16 41.0805 492.499 40.6118C492.525 40.5858 492.577 40.4816 492.603 40.3514C492.655 40.2213 492.655 40.1431 492.655 40.0911L492.421 36.7062C492.343 36.6802 492.108 36.4719 491.718 36.1334C491.327 35.7949 490.989 35.5345 490.78 35.3262C490.702 35.2481 490.572 35.1439 490.338 35.0138C490.129 34.8836 489.973 34.8055 489.921 34.8055C488.593 34.2326 487.343 33.764 486.172 33.4255C485 33.087 483.932 32.6704 482.917 32.2017C481.902 31.733 480.99 31.0821 480.157 30.2489C479.324 29.4157 478.621 28.244 478.022 26.7338C478.022 26.6297 478.022 26.4474 477.996 26.2131C477.97 25.9787 477.944 25.7444 477.918 25.5101C477.892 25.2497 477.84 25.0414 477.84 24.8331C477.814 24.6248 477.814 24.4946 477.814 24.4165C477.762 23.8697 477.736 23.3229 477.657 22.698C477.605 22.0731 477.657 21.5263 477.866 20.9795C477.892 20.8233 477.97 20.5369 478.1 20.1463C478.204 19.7558 478.36 19.3392 478.491 18.9226C478.647 18.506 478.777 18.0894 478.933 17.7249C479.063 17.3343 479.142 17.0739 479.194 16.9177V16.5792C479.428 16.2407 479.636 15.9803 479.819 15.772C480.001 15.5898 480.183 15.3815 480.365 15.1732C480.548 14.9649 480.678 14.8087 480.782 14.6785C482.032 13.2724 483.282 12.2049 484.531 11.4759C485.781 10.7468 487.291 10.3042 489.088 10.0959C489.583 10.0698 490.312 10.1219 491.275 10.2781C492.238 10.4344 493.176 10.6687 494.139 10.9811C495.103 11.2936 495.936 11.6842 496.665 12.1528C497.394 12.6215 497.784 13.1423 497.81 13.7151C497.863 14.0536 497.837 14.5222 497.758 15.0951C497.68 15.6679 497.55 16.2407 497.394 16.8135C497.212 17.3864 497.003 17.8811 496.717 18.3237C496.431 18.7664 496.092 19.0007 495.701 19.0267C494.712 19.1048 493.723 19.1048 492.733 19.0007C491.744 18.8965 490.754 18.8965 489.765 18.9747C489.583 18.9747 489.192 19.0007 488.593 19.0788C487.994 19.1569 487.604 19.183 487.422 19.183C487.317 19.2611 487.135 19.3392 486.875 19.4433C486.614 19.5475 486.38 19.6516 486.12 19.8079C485.859 19.9641 485.651 20.1203 485.495 20.2505C485.312 20.4067 485.234 20.5629 485.234 20.7192L485.521 24.1561C485.521 24.3384 485.651 24.5206 485.885 24.7029C486.12 24.8852 486.406 25.0414 486.693 25.2237C486.979 25.4059 487.265 25.5621 487.578 25.6923C487.89 25.8225 488.099 25.9006 488.203 25.9527C489.739 26.6818 491.119 27.3587 492.395 28.0097C493.645 28.6606 494.738 29.4157 495.649 30.301C496.561 31.1862 497.29 32.2277 497.863 33.4255C498.409 34.6232 498.774 36.1334 498.93 37.93C499.086 39.4922 498.982 41.0545 498.618 42.5646C498.253 44.1008 497.654 45.4548 496.847 46.6525C496.014 47.8502 494.998 48.8657 493.723 49.6468C492.447 50.428 491.041 50.9227 489.426 51.0789C488.098 51.2351 486.719 51.2612 485.313 51.131C483.906 51.0268 482.605 50.7404 481.459 50.2717C480.287 49.8031 479.298 49.1261 478.517 48.2408C477.631 47.4076 477.163 46.2359 477.059 44.7778Z" fill="#2FAC66"/>
</svg>
