<svg width="962" height="671" viewBox="0 0 962 671" fill="none" xmlns="http://www.w3.org/2000/svg">
<rect x="1" y="1" width="300" height="404" rx="17" stroke="black" stroke-opacity="0.3" stroke-width="2"/>
<rect x="331" y="1" width="300" height="404" rx="17" stroke="black" stroke-opacity="0.3" stroke-width="2"/>
<rect x="661" y="1" width="300" height="404" rx="17" stroke="black" stroke-opacity="0.3" stroke-width="2"/>
<rect x="366" y="426" width="578" height="149" rx="26" fill="#2BB572"/>
<path d="M125.521 157.795C138.6 145.297 226.545 77.4398 260.37 50.2722C250.632 36.9958 263.609 36.7089 270.907 43.0194C280.296 27.1204 293.641 44.6584 277.979 54.2265C290.505 63.7126 277.59 72.1333 267.114 60.5369C227.221 103.767 158.218 160.459 137.329 178.488C133.639 173.387 127.94 165.458 125.521 157.795Z" fill="#3C3C3B"/>
<path d="M149.034 224.976C148.214 217.867 146.943 212.909 152.396 205C156.086 199.632 164.102 196.395 166.951 190.433C173.163 177.505 168.632 161.647 158.772 149.866C139.399 126.673 91.3885 156.504 74.8246 173.366C54.8166 193.711 9.57327 232.66 36.1822 254.377C66.6656 279.25 97.9075 272.591 120.17 259.622C105.287 240.957 131.281 216.884 149.034 224.976Z" fill="#814114"/>
<path d="M46.5757 168.162C57.5022 184.942 86.5301 169.289 79.0066 144.068C105.226 154.087 125.173 107.271 152.642 141.302C160.145 150.112 167.648 169.043 161.396 180.435C155.164 191.806 125.275 198.833 135.279 217.765C116.665 211.208 103.463 221.575 99.3016 229.361C95.8986 235.712 95.6731 252.943 99.3221 255.525C91.7371 260.565 70.3352 266.629 60.3722 265.4C9.18385 256.672 16.6253 196.026 46.5757 168.162Z" fill="#A85318"/>
<path d="M123.389 155.173C136.468 142.654 224.412 74.7968 258.237 47.6497C248.479 34.3732 261.456 34.0864 268.774 40.3968C278.163 24.5184 291.509 42.0359 275.847 51.604C288.372 61.0696 275.457 69.4903 264.982 57.9144C225.109 101.165 156.086 157.836 135.197 175.866C131.507 170.764 125.808 162.835 123.389 155.173Z" fill="black"/>
<path d="M231.567 50.2312C231.567 50.2312 233.924 56.2343 236.22 54.8206C238.496 53.4274 241.632 51.6654 241.632 51.6654L249.935 64.5321L251.985 63.1184L244.174 50.0263C244.174 50.0263 248.93 46.9121 249.484 45.6828C250.037 44.4535 246.491 38.8602 244.195 40.0075C241.94 41.1754 231.977 46.5024 231.567 50.2312Z" fill="#010202"/>
<path d="M211.19 67.2365C211.908 69.101 214.655 71.1293 216.049 70.3508C217.443 69.5722 220.354 66.9497 220.354 66.9497L228.943 75.5138L230.522 74.2845L222.711 64.7984C222.711 64.7984 227.303 62.012 226.688 59.9427C226.094 57.8733 223.121 54.8001 221.133 56.0499C219.103 57.2997 210.083 64.3681 211.19 67.2365Z" fill="#010202"/>
<path d="M253.973 94.7729C253.973 94.7729 251.985 89.5279 249.709 90.9211C247.413 92.3143 244.482 94.5885 244.482 94.5885L236.159 81.7218L234.129 83.1355L241.94 96.2276C241.94 96.2276 237.45 100.141 236.897 101.37C236.343 102.599 239.582 106.451 241.858 105.283C244.113 104.136 253.563 98.5018 253.973 94.7729Z" fill="#010202"/>
<path d="M273.1 79.4681C272.567 77.1734 270.332 74.8582 268.569 75.5343C266.806 76.2105 263.977 78.5871 263.977 78.5871L255.347 67.2161L253.317 68.3634L260.923 80.6974C260.923 80.6974 257.192 82.9306 255.511 85.7171C255.88 88.2371 258.196 91.8226 260.718 90.6957C263.26 89.5484 273.92 83.0126 273.1 79.4681Z" fill="#010202"/>
<path d="M90.0767 212.11C80.2162 219.403 86.1407 233.581 95.6527 228.48C90.8967 226.288 89.7897 225.632 90.3842 221.432C90.3842 219.035 95.4272 215.695 96.9237 214.199C101.659 209.385 107.604 202.132 101.352 196.457C100.655 203.648 98.2767 206.045 90.0767 212.11Z" fill="black"/>
<path d="M90.2204 183.344C85.28 181.521 80.811 186.069 77.0595 188.855C73.9435 191.068 70.7045 195.084 66.543 194.818C61.8075 194.51 58.1995 190.372 61.746 186.09C63.5295 195.227 72.1805 185.823 75.6245 183.344C78.4535 181.398 86.715 176.685 90.2204 183.344Z" fill="black"/>
<path d="M237.963 80.9023L58.3018 231.697" stroke="#DAD8CC" stroke-width="0.322"/>
<path d="M251.719 63.4463L55.4731 229.259" stroke="#DAD8CC" stroke-width="0.322"/>
<path d="M248.89 61.0081L52.6235 226.82" stroke="#DAD8CC" stroke-width="0.322"/>
<path d="M231.055 73.2602C231.055 73.2602 156.21 130.238 126.382 158.205C98.1128 184.737 50.9834 223.337 50.9834 223.337" stroke="#DAD8CC" stroke-width="0.322"/>
<path d="M28.3926 247.452C35.9776 238.827 45.838 231.656 51.25 221.452C54.53 224.751 56.99 229.238 60.27 232.537C50.184 236.778 41.902 245.096 33.4971 253.599C30.8116 251.529 29.3561 249.03 28.3926 247.452Z" fill="black"/>
<path d="M276.995 136.057C276.995 136.057 190.629 142.757 151.412 146.137C114.82 149.272 56.5795 159.065 56.5795 159.065L56.3745 156.3C56.3745 156.3 132.163 145.256 152.888 143.72C173.614 142.183 276.769 132.881 276.769 132.881L276.995 136.057Z" fill="#DAD8CC"/>
<path d="M56.5386 158.635L57.0511 165.704C57.0511 165.704 116.849 157.037 156.64 152.939C200.694 148.391 277.487 142.757 277.487 142.757L276.974 136.057L270.681 136.508C270.681 136.508 270.886 138.864 269.082 139.745C267.278 140.605 192.761 146.567 160.043 149.19C127.878 151.751 73.369 160.151 62.7296 161.831C61.5406 162.016 60.3721 161.852 59.9621 161.647C59.0396 161.176 58.9781 158.41 58.9781 158.41L56.5386 158.635Z" fill="black"/>
<path d="M292.758 138.343L275.421 139.623L275.663 142.893L293 141.612L292.758 138.343Z" fill="black"/>
<path d="M502.618 134.156C502.618 134.156 495.732 135.791 486.917 140.741C463.845 153.663 422.366 178.359 418.531 181.388C413.733 185.172 409.757 187.849 414.385 192.995C423.368 202.961 489.716 154.025 496.743 150.937C499.324 149.805 501.649 146.533 504.123 144.857C508.373 141.985 511.228 141.822 511.228 141.822L502.618 134.156Z" fill="#007572"/>
<path d="M490.512 147.086C493.017 150.035 494.834 151.054 495.858 151.403L512.138 141.608L503.319 131.305L487.686 140.295C487.71 140.306 487.321 143.311 490.512 147.086Z" fill="#00A0A4"/>
<path d="M564.56 91.5985C578.626 107.155 570.664 127.024 564.43 135.9C561.94 139.449 557.935 142.798 554.06 145.942C550.923 148.49 525.207 162.245 506.105 137.629C491.093 118.284 499.584 99.0158 511.635 87.911C513.924 85.8161 515.766 84.5781 518.333 83.1703C531.732 75.7351 552.65 78.4488 564.56 91.5985Z" fill="#E30613"/>
<path d="M555.378 82.7458C554.108 84.7096 552.785 87.856 552.691 90.3771C552.033 106.621 569.167 108.554 573.019 107.726" stroke="#F39200" stroke-width="0.851" stroke-miterlimit="10"/>
<path d="M572.077 102.09C569.335 102.756 561.274 102.909 558.015 94.8617C556.708 91.6597 558.345 86.3378 559.4 85.0303" stroke="#F39200" stroke-width="0.851" stroke-miterlimit="10"/>
<path d="M550.4 131.852L554.112 117.183L538.603 122.577C542.233 126.402 546.246 129.532 550.4 131.852Z" fill="#F39200"/>
<path d="M532.818 114.599C534.604 117.274 536.587 119.7 538.675 121.91L544.497 108.058L529.971 109.902C530.84 111.488 531.781 113.05 532.818 114.599Z" fill="#F39200"/>
<path d="M564.412 135.906L565.304 123.596L549.791 132.062C554.241 134.54 559.953 135.378 564.412 135.906Z" fill="#F39200"/>
<path d="M529.989 109.895L539.232 97.7529L524.704 95.984C525.677 100.606 527.51 105.332 529.989 109.895Z" fill="#F39200"/>
<path d="M524.693 96.0082L535.811 84.5835L524.114 81.4159C523.417 85.9716 523.601 90.9258 524.693 96.0082Z" fill="#F39200"/>
<path d="M520.276 124.809C511.733 112.103 509.366 97.6261 512.854 86.7279C512.045 87.4687 504.27 105.146 504.27 105.146L512.203 105.96L506.127 119.658L517.674 120.529L514.473 135.222L527.602 133.64L525.831 143.866L538.582 141.652L537.11 148.964L553.745 146.192L553.252 146.161C541.942 145.51 528.691 137.319 520.276 124.809Z" fill="#F39200"/>
<path d="M564.413 135.906C553.045 134.973 541.59 127.387 533.084 114.728C525.558 103.517 522.527 90.8952 524.364 80.6269C520.067 81.9095 516.529 83.4118 512.83 86.716C509.361 97.608 511.751 112.037 520.294 124.743C529.502 138.444 541.51 145.538 553.739 146.174C558.066 143.175 561.784 139.925 564.413 135.906Z" fill="#00A0A4"/>
<path d="M519.475 90.1424C519.359 91.1457 518.442 91.8637 517.432 91.7306C516.429 91.6154 515.711 90.6992 515.844 89.6897C515.96 88.6864 516.877 87.9684 517.886 88.1015C518.878 88.2408 519.59 89.1391 519.475 90.1424Z" fill="white"/>
<path d="M520.521 100.098C520.389 101.227 519.359 102.024 518.229 101.892C517.099 101.761 516.302 100.731 516.434 99.6017C516.566 98.4722 517.596 97.6751 518.726 97.8069C519.856 97.9386 520.653 98.9681 520.521 100.098Z" fill="white"/>
<path d="M523.447 111.13C523.298 112.386 522.16 113.28 520.904 113.132C519.648 112.983 518.748 111.829 518.897 110.573C519.045 109.318 520.183 108.423 521.445 108.59C522.725 108.75 523.62 109.886 523.447 111.13Z" fill="white"/>
<path d="M529.216 120.398C529.051 121.78 527.782 122.76 526.418 122.589C525.035 122.424 524.056 121.156 524.228 119.792C524.393 118.41 525.644 117.437 527.026 117.602C528.408 117.767 529.382 119.016 529.216 120.398Z" fill="white"/>
<path d="M536.526 129.416C536.361 130.797 535.11 131.771 533.728 131.606C532.346 131.441 531.372 130.191 531.538 128.81C531.703 127.428 532.972 126.448 534.354 126.613C535.718 126.784 536.698 128.052 536.526 129.416Z" fill="white"/>
<path d="M545.647 136.463C545.498 137.719 544.361 138.613 543.098 138.447C541.842 138.298 540.948 137.162 541.097 135.906C541.245 134.651 542.383 133.756 543.645 133.923C544.919 134.065 545.796 135.207 545.647 136.463Z" fill="white"/>
<path d="M555.319 140.57C555.181 141.682 554.186 142.467 553.075 142.329C551.963 142.191 551.172 141.179 551.31 140.068C551.448 138.956 552.443 138.171 553.555 138.309C554.673 138.465 555.458 139.459 555.319 140.57Z" fill="white"/>
<path d="M483.354 219.424C483.354 219.424 477.029 216.229 467.11 214.314C441.137 209.291 393.541 201.375 388.647 201.218C382.552 201.014 377.774 200.496 377.99 207.406C378.401 220.812 460.668 226.252 468.033 228.446C470.743 229.257 474.634 228.255 477.597 228.577C482.705 229.122 484.986 230.843 484.986 230.843L483.354 219.424Z" fill="#007572"/>
<path d="M465.774 221.499C465.785 225.369 466.513 227.305 467.075 228.235L485.812 231.26L485.736 217.719L467.994 214.49C467.994 214.49 465.752 216.549 465.774 221.499Z" fill="#00A0A4"/>
<path d="M558.126 226.89C558.82 247.865 539.89 257.892 529.396 260.652C525.199 261.76 519.988 261.732 514.993 261.63C510.946 261.542 482.422 255.472 483.759 224.322C484.793 199.86 503.738 190.631 520.1 189.92C523.19 189.796 525.402 190.036 528.271 190.611C543.322 193.605 557.532 209.172 558.126 226.89Z" fill="#E30613"/>
<path d="M556.839 214.207C554.607 214.898 551.562 216.431 549.859 218.303C538.873 230.285 550.692 242.823 554.163 244.676" stroke="#F39200" stroke-width="0.851" stroke-miterlimit="10"/>
<path d="M557.09 239.772C554.568 238.515 548.331 233.422 551.03 225.185C552.106 221.903 556.787 218.882 558.447 218.57" stroke="#F39200" stroke-width="0.851" stroke-miterlimit="10"/>
<path d="M521.326 248.505L533.63 239.701L518.303 233.813C518.599 239.09 519.647 244.047 521.326 248.505Z" fill="#F39200"/>
<path d="M519.046 223.982C518.684 227.179 518.62 230.311 518.791 233.364L532.195 226.528L519.926 218.561C519.554 220.335 519.249 222.126 519.046 223.982Z" fill="#F39200"/>
<path d="M529.396 260.652L538.038 251.828L520.73 248.289C522.509 253.034 526.33 257.355 529.396 260.652Z" fill="#F39200"/>
<path d="M519.908 218.567L534.797 215.274L524.846 204.539C522.626 208.697 520.983 213.479 519.908 218.567Z" fill="#F39200"/>
<path d="M524.846 204.539L540.719 202.993L533.825 193.029C530.369 196.049 527.301 199.958 524.846 204.539Z" fill="#F39200"/>
<path d="M502.878 223.683C504.573 208.466 512.119 195.886 521.81 189.811C520.718 189.847 503.362 198.327 503.362 198.327L508.903 204.081L495.411 210.606L503.654 218.719L491.714 227.878L502.758 235.145L494.802 241.826L505.952 248.353L500.105 253.001L514.591 261.628L514.227 261.272C506.035 253.482 501.204 238.672 502.878 223.683Z" fill="#F39200"/>
<path d="M529.396 260.652C521.334 252.597 517.486 239.414 519.164 224.263C520.656 210.842 526.495 199.253 534.542 192.601C530.429 190.81 526.761 189.668 521.81 189.811C512.119 195.886 504.633 208.466 502.956 223.676C501.129 240.083 505.715 253.252 514.633 261.634C519.836 262.105 524.788 262.022 529.396 260.652Z" fill="#00A0A4"/>
<path d="M524.649 196.699C523.9 197.379 522.741 197.338 522.061 196.589C521.363 195.846 521.423 194.682 522.154 194.008C522.903 193.328 524.062 193.369 524.736 194.1C525.434 194.842 525.392 196.001 524.649 196.699Z" fill="white"/>
<path d="M519.027 204.962C518.189 205.733 516.886 205.681 516.115 204.843C515.344 204.006 515.396 202.703 516.216 201.938C517.055 201.167 518.352 201.201 519.123 202.039C519.9 202.894 519.866 204.191 519.027 204.962Z" fill="white"/>
<path d="M514.141 215.299C513.214 216.161 511.767 216.099 510.911 215.19C510.049 214.263 510.111 212.817 511.039 211.955C511.966 211.092 513.414 211.155 514.276 212.082C515.114 212.996 515.051 214.443 514.141 215.299Z" fill="white"/>
<path d="M512.543 226.087C511.527 227.04 509.917 226.973 508.982 225.951C508.029 224.936 508.102 223.345 509.119 222.392C510.141 221.457 511.727 221.511 512.68 222.527C513.633 223.543 513.56 225.134 512.543 226.087Z" fill="white"/>
<path d="M512.293 237.694C511.277 238.647 509.685 238.574 508.732 237.559C507.779 236.543 507.852 234.952 508.869 233.999C509.891 233.064 511.477 233.119 512.43 234.134C513.383 235.15 513.316 236.759 512.293 237.694Z" fill="white"/>
<path d="M514.717 248.96C513.789 249.822 512.342 249.76 511.48 248.833C510.618 247.907 510.68 246.46 511.608 245.598C512.535 244.736 513.983 244.798 514.845 245.725C515.689 246.658 515.644 248.098 514.717 248.96Z" fill="white"/>
<path d="M519.443 258.348C518.622 259.113 517.337 259.054 516.596 258.246C515.831 257.427 515.89 256.142 516.698 255.401C517.519 254.636 518.786 254.701 519.551 255.52C520.31 256.322 520.263 257.583 519.443 258.348Z" fill="white"/>
<path d="M892.099 174.802C899.857 172.072 906.476 167.806 904.162 161.835C902.189 156.755 891.397 158.574 891.833 159.769C892.269 160.982 892.099 174.802 892.099 174.802Z" fill="#DAD8CC"/>
<path d="M693.49 217.094C691.441 222.478 695.956 225.53 704.453 226.591C710.807 227.388 703.049 210.971 703.049 210.971C703.049 210.971 694.799 213.625 693.49 217.094Z" fill="#DAD8CC"/>
<path d="M708.038 188.375C708.038 188.375 700.129 188.147 698.763 192.773C697.397 197.417 706.54 234.876 708.493 237.947C710.447 241.018 753.219 254.515 821.957 233.188C890.695 211.881 898.605 194.744 898.624 190.592C898.643 186.441 895.57 156.792 891.568 150.992C890.069 148.812 889.159 146.404 887.243 145.437C883.488 143.504 708.038 188.375 708.038 188.375Z" fill="#E30613"/>
<path d="M787.588 173.133C787.474 173.228 883.962 145.646 887.262 145.437C888.818 145.911 892.858 150.651 893.029 154.176C886.371 161.266 872.999 178.839 813.801 196.09C748.041 215.236 708.114 204.715 699.313 201.55C698.365 201.208 698.611 195.237 698.763 192.791C698.82 191.787 787.588 173.133 787.588 173.133Z" fill="#F39200"/>
<path d="M860.063 192.128C855.757 193.455 870.135 199.73 880.339 195.37C890.544 191.029 884.303 178.991 882.767 178.309C881.212 177.645 873.131 188.071 860.063 192.128Z" fill="#DAD8CC"/>
<path d="M816.305 210.838C818.107 214.592 824.65 217.322 835.405 213.625C846.16 209.947 840.545 204.507 837.738 202.611L816.305 210.838Z" fill="#DAD8CC"/>
<path d="M764.732 220.772C763.917 224.355 761.014 234.174 775.714 232.601C790.395 231.027 792.709 222.364 790.68 218.44L764.732 220.772Z" fill="#DAD8CC"/>
<path d="M713.671 219.653C712.95 225.435 710.978 232.847 723.553 233.359C736.147 233.871 739.277 226.648 739.201 221.511L713.671 219.653Z" fill="#DAD8CC"/>
<path d="M720.69 221.132C720.178 223.521 719.476 225.72 723.516 226.535C727.556 227.35 729.168 221.511 727.575 221.018C725.963 220.525 720.69 221.132 720.69 221.132Z" fill="#B91919"/>
<path d="M772.395 221.284C772.11 224.203 772.414 225.757 776.15 226.061C779.906 226.364 781.158 223.028 779.735 220.487C778.312 217.947 772.508 220.203 772.395 221.284Z" fill="#B91919"/>
<path d="M823.683 209.151C825.428 211.426 826.32 211.445 829.203 211.199C832.105 210.952 833.907 208.431 832.029 206.08C830.17 203.73 823.683 209.151 823.683 209.151Z" fill="#B91919"/>
<path d="M867.916 188.45C869.661 190.725 870.552 190.744 873.435 190.498C876.337 190.251 878.158 187.73 876.261 185.379C874.402 183.029 867.916 188.45 867.916 188.45Z" fill="#B91919"/>
<path d="M746.675 201.891C746.808 203.085 745.859 204.166 744.57 204.298C743.28 204.431 742.123 203.578 741.99 202.384C741.857 201.189 742.806 200.109 744.114 199.976C745.404 199.843 746.561 200.697 746.675 201.891Z" fill="black"/>
<path d="M717.807 200.64C717.939 201.834 716.991 202.914 715.682 203.047C714.393 203.18 713.236 202.327 713.103 201.132C712.97 199.938 713.918 198.858 715.208 198.725C716.517 198.592 717.674 199.445 717.807 200.64Z" fill="black"/>
<path d="M778.844 198.82C778.977 200.014 778.028 201.095 776.719 201.227C775.43 201.379 774.273 200.507 774.14 199.332C774.007 198.137 774.955 197.057 776.264 196.924C777.573 196.772 778.73 197.625 778.844 198.82Z" fill="black"/>
<path d="M811.165 192.773C811.297 193.967 810.349 195.047 809.059 195.18C807.77 195.313 806.612 194.46 806.48 193.266C806.347 192.071 807.295 190.991 808.604 190.858C809.875 190.725 811.032 191.578 811.165 192.773Z" fill="black"/>
<path d="M835.045 184.621C835.178 185.815 834.229 186.896 832.921 187.029C831.612 187.161 830.474 186.308 830.341 185.114C830.208 183.92 831.157 182.839 832.465 182.707C833.755 182.593 834.912 183.427 835.045 184.621Z" fill="black"/>
<path d="M862.832 172.508C862.965 173.702 862.016 174.783 860.708 174.915C859.418 175.048 858.261 174.195 858.128 173.001C857.995 171.806 858.944 170.726 860.233 170.593C861.542 170.46 862.699 171.313 862.832 172.508Z" fill="black"/>
<path d="M883.754 158.366C883.886 159.56 882.938 160.641 881.648 160.773C880.339 160.925 879.201 160.053 879.069 158.859C878.936 157.665 879.884 156.584 881.193 156.451C882.464 156.319 883.621 157.172 883.754 158.366Z" fill="black"/>
<path d="M709.574 217.682C709.574 217.682 715.796 223.748 745.214 221.037" stroke="#B91919" stroke-width="1.46" stroke-miterlimit="10" stroke-linecap="round" stroke-linejoin="round"/>
<path d="M759.136 220.923C763.575 221.151 791.21 219.104 798.152 216.734" stroke="#B91919" stroke-width="1.46" stroke-miterlimit="10" stroke-linecap="round" stroke-linejoin="round"/>
<path d="M810.804 211.426C817.007 210.763 836.221 203.824 840.356 201.284" stroke="#B91919" stroke-width="1.46" stroke-miterlimit="10" stroke-linecap="round" stroke-linejoin="round"/>
<path d="M855.795 193.834C860.537 192.621 880.908 181.399 884.986 176.072" stroke="#B91919" stroke-width="1.46" stroke-miterlimit="10" stroke-linecap="round" stroke-linejoin="round"/>
<path d="M698.763 192.792C699.408 195.825 753.257 203.009 811.373 186.555C869.49 170.1 888.078 148.603 887.262 145.456C886.466 142.291 838.838 139.769 780.475 154.044C722.112 168.318 697.815 188.394 698.763 192.792Z" fill="#DB7A1C"/>
<rect x="34" y="316" width="233.887" height="60.8485" rx="8" fill="#D2D1C2"/>
<path d="M115.195 336.95H118.143L109.652 360.508H106.945L98.5013 336.95H101.402L106.816 352.193C107.439 353.944 107.933 355.647 108.298 357.301C108.685 355.561 109.19 353.826 109.813 352.097L115.195 336.95ZM121.398 360.508V336.95H124.137V360.508H121.398ZM151.063 348.697C151.063 352.467 150.107 355.432 148.195 357.591C146.293 359.75 143.645 360.83 140.251 360.83C136.781 360.83 134.101 359.772 132.21 357.656C130.33 355.529 129.39 352.532 129.39 348.665C129.39 344.83 130.336 341.859 132.226 339.754C134.117 337.638 136.803 336.58 140.283 336.58C143.667 336.58 146.309 337.654 148.211 339.802C150.112 341.951 151.063 344.916 151.063 348.697ZM132.291 348.697C132.291 351.887 132.968 354.31 134.321 355.964C135.685 357.607 137.662 358.429 140.251 358.429C142.861 358.429 144.832 357.607 146.164 355.964C147.496 354.32 148.162 351.898 148.162 348.697C148.162 345.528 147.496 343.127 146.164 341.494C144.843 339.851 142.883 339.029 140.283 339.029C137.673 339.029 135.685 339.856 134.321 341.51C132.968 343.154 132.291 345.549 132.291 348.697ZM156.332 360.508V336.95H159.071V358.026H169.464V360.508H156.332ZM173.476 360.508V336.95H176.216V360.508H173.476ZM173.122 334.662C173.637 333.996 174.191 333.19 174.782 332.245C175.383 331.3 175.856 330.478 176.2 329.78H179.454V330.118C178.982 330.816 178.278 331.676 177.344 332.696C176.409 333.717 175.598 334.506 174.91 335.065H173.122V334.662ZM201.095 360.508H197.969L185.094 340.737H184.965C185.137 343.057 185.223 345.184 185.223 347.118V360.508H182.693V336.95H185.787L198.629 356.641H198.758C198.737 356.351 198.688 355.421 198.613 353.853C198.538 352.274 198.511 351.146 198.533 350.469V336.95H201.095V360.508Z" fill="black"/>
<rect x="363" y="314" width="233.887" height="60.8485" rx="8" fill="#D2D1C2"/>
<path d="M418.188 358.508L410.196 337.625H410.067C410.217 339.279 410.292 341.245 410.292 343.522V358.508H407.762V334.95H411.887L419.348 354.383H419.477L427.002 334.95H431.095V358.508H428.355V343.329C428.355 341.589 428.43 339.698 428.581 337.657H428.452L420.395 358.508H418.188ZM452.38 358.508L449.448 351.015H440.005L437.105 358.508H434.333L443.647 334.854H445.951L455.216 358.508H452.38ZM448.594 348.55L445.854 341.25C445.5 340.327 445.135 339.193 444.759 337.851C444.522 338.882 444.184 340.015 443.743 341.25L440.972 348.55H448.594ZM461.194 348.711V358.508H458.455V334.95H464.916C467.806 334.95 469.938 335.503 471.313 336.61C472.699 337.716 473.392 339.381 473.392 341.605C473.392 344.72 471.813 346.826 468.655 347.921L475.052 358.508H471.813L466.109 348.711H461.194ZM461.194 346.358H464.949C466.882 346.358 468.3 345.977 469.202 345.214C470.105 344.441 470.556 343.286 470.556 341.75C470.556 340.192 470.094 339.07 469.17 338.382C468.257 337.695 466.785 337.351 464.755 337.351H461.194V346.358ZM493.662 358.508L490.73 351.015H481.287L478.387 358.508H475.616L484.929 334.854H487.233L496.498 358.508H493.662ZM489.876 348.55L487.137 341.25C486.782 340.327 486.417 339.193 486.041 337.851C485.804 338.882 485.466 340.015 485.026 341.25L482.254 348.55H489.876ZM509.824 337.061C507.235 337.061 505.189 337.926 503.685 339.655C502.192 341.374 501.445 343.732 501.445 346.729C501.445 349.812 502.165 352.197 503.604 353.883C505.054 355.559 507.117 356.397 509.792 356.397C511.435 356.397 513.31 356.102 515.415 355.511V357.912C513.783 358.524 511.768 358.83 509.373 358.83C505.903 358.83 503.223 357.777 501.332 355.672C499.452 353.566 498.512 350.575 498.512 346.697C498.512 344.269 498.964 342.142 499.866 340.316C500.779 338.49 502.09 337.083 503.798 336.094C505.516 335.106 507.536 334.612 509.856 334.612C512.327 334.612 514.486 335.063 516.334 335.965L515.174 338.318C513.39 337.48 511.607 337.061 509.824 337.061ZM535.364 358.508L532.431 351.015H522.989L520.088 358.508H517.317L526.63 334.854H528.934L538.2 358.508H535.364ZM531.577 348.55L528.838 341.25C528.483 340.327 528.118 339.193 527.742 337.851C527.506 338.882 527.167 340.015 526.727 341.25L523.955 348.55H531.577ZM554.732 352.24C554.732 354.313 553.98 355.93 552.476 357.09C550.972 358.25 548.931 358.83 546.353 358.83C543.56 358.83 541.411 358.47 539.908 357.75V355.108C540.874 355.516 541.927 355.838 543.066 356.075C544.204 356.311 545.332 356.429 546.45 356.429C548.276 356.429 549.651 356.085 550.575 355.398C551.498 354.7 551.96 353.733 551.96 352.498C551.96 351.681 551.794 351.015 551.461 350.5C551.138 349.973 550.591 349.49 549.817 349.049C549.054 348.609 547.889 348.109 546.321 347.551C544.129 346.767 542.561 345.837 541.616 344.763C540.681 343.689 540.214 342.287 540.214 340.558C540.214 338.742 540.896 337.297 542.26 336.223C543.624 335.149 545.429 334.612 547.674 334.612C550.016 334.612 552.17 335.042 554.136 335.901L553.282 338.286C551.337 337.469 549.447 337.061 547.61 337.061C546.159 337.061 545.026 337.373 544.21 337.996C543.393 338.619 542.985 339.483 542.985 340.59C542.985 341.406 543.136 342.078 543.436 342.604C543.737 343.12 544.242 343.598 544.951 344.038C545.671 344.468 546.766 344.946 548.238 345.472C550.709 346.353 552.406 347.298 553.33 348.308C554.264 349.318 554.732 350.628 554.732 352.24Z" fill="black"/>
<rect x="695" y="315" width="233.887" height="60.8485" rx="8" fill="#D2D1C2"/>
<path d="M737.587 342.814C737.587 345.199 736.771 347.036 735.138 348.325C733.516 349.604 731.19 350.243 728.161 350.243H725.389V359.508H722.65V335.95H728.757C734.644 335.95 737.587 338.238 737.587 342.814ZM725.389 347.89H727.855C730.283 347.89 732.039 347.498 733.124 346.714C734.209 345.93 734.751 344.673 734.751 342.943C734.751 341.386 734.241 340.226 733.221 339.463C732.2 338.7 730.61 338.319 728.451 338.319H725.389V347.89ZM757.342 359.508L754.409 352.015H744.967L742.067 359.508H739.295L748.609 335.854H750.913L760.178 359.508H757.342ZM753.555 349.55L750.816 342.25C750.462 341.327 750.096 340.193 749.721 338.851C749.484 339.882 749.146 341.015 748.705 342.25L745.934 349.55H753.555ZM781.818 359.508H778.692L765.818 339.737H765.689C765.861 342.057 765.947 344.184 765.947 346.118V359.508H763.417V335.95H766.511L779.353 355.641H779.482C779.46 355.351 779.412 354.421 779.337 352.853C779.262 351.274 779.235 350.146 779.256 349.469V335.95H781.818V359.508ZM807.1 347.503C807.1 351.392 806.042 354.368 803.926 356.43C801.82 358.482 798.785 359.508 794.822 359.508H788.296V335.95H795.514C799.178 335.95 802.024 336.965 804.054 338.996C806.085 341.026 807.1 343.862 807.1 347.503ZM804.2 347.6C804.2 344.528 803.426 342.213 801.879 340.655C800.343 339.098 798.055 338.319 795.015 338.319H791.035V357.139H794.37C797.636 357.139 800.091 356.339 801.734 354.738C803.378 353.127 804.2 350.748 804.2 347.6ZM825.501 359.508H812.369V335.95H825.501V338.383H815.108V345.973H824.873V348.39H815.108V357.059H825.501V359.508ZM833.477 349.711V359.508H830.738V335.95H837.2C840.089 335.95 842.221 336.503 843.596 337.61C844.982 338.716 845.675 340.381 845.675 342.605C845.675 345.72 844.096 347.826 840.938 348.921L847.335 359.508H844.096L838.392 349.711H833.477ZM833.477 347.358H837.232C839.165 347.358 840.583 346.977 841.486 346.214C842.388 345.441 842.839 344.286 842.839 342.75C842.839 341.192 842.377 340.07 841.453 339.382C840.54 338.695 839.069 338.351 837.038 338.351H833.477V347.358ZM864.27 359.508H851.137V335.95H864.27V338.383H853.877V345.973H863.641V348.39H853.877V357.059H864.27V359.508ZM876.758 359.508H874.018V338.383H866.558V335.95H884.218V338.383H876.758V359.508ZM902.587 359.508L899.655 352.015H890.212L887.312 359.508H884.54L893.854 335.854H896.158L905.423 359.508H902.587ZM898.801 349.55L896.061 342.25C895.707 341.327 895.342 340.193 894.966 338.851C894.729 339.882 894.391 341.015 893.95 342.25L891.179 349.55H898.801Z" fill="black"/>
<path d="M725.814 559.69C725.814 559.69 729.392 580.532 741.929 591.549C765.455 612.234 789.151 620.966 789.151 620.966C789.151 620.966 779.772 607.549 770.505 583.549C765.993 571.865 765.993 555.908 765.993 555.908L745.903 557.799L725.814 559.69Z" fill="#2BB572"/>
<path d="M386 669L739 669" stroke="#231F20" stroke-width="3" stroke-linecap="round" stroke-linejoin="round" stroke-dasharray="6 6"/>
<path d="M57.7363 669H46.0322V647.584H57.7363V648.961H47.5264V657.062H57.165V658.438H47.5264V667.623H57.7363V669ZM62.585 669V647.584H64.0791V667.594H74.2891V669H62.585ZM94.2109 658.204H102.106V667.975C100.036 668.854 97.707 669.293 95.1191 669.293C91.7402 669.293 89.1475 668.341 87.3408 666.437C85.5439 664.522 84.6455 661.817 84.6455 658.321C84.6455 656.144 85.0898 654.215 85.9785 652.535C86.877 650.846 88.1562 649.542 89.8164 648.624C91.4863 647.706 93.4004 647.247 95.5586 647.247C97.8926 647.247 99.9873 647.677 101.843 648.536L101.242 649.884C99.3867 649.024 97.4629 648.595 95.4707 648.595C92.6484 648.595 90.4072 649.469 88.7471 651.217C87.0967 652.955 86.2715 655.304 86.2715 658.263C86.2715 661.485 87.0576 663.912 88.6299 665.543C90.2021 667.164 92.5117 667.975 95.5586 667.975C97.5312 667.975 99.2061 667.696 100.583 667.14V659.61H94.2109V658.204ZM108.991 659.669V669H107.497V647.584H112.595C115.251 647.584 117.214 648.077 118.483 649.063C119.753 650.04 120.388 651.515 120.388 653.487C120.388 654.923 120.007 656.134 119.245 657.12C118.493 658.106 117.346 658.814 115.803 659.244L121.618 669H119.831L114.309 659.669H108.991ZM108.991 658.38H113.078C114.885 658.38 116.286 657.979 117.282 657.179C118.278 656.368 118.776 655.177 118.776 653.604C118.776 651.974 118.288 650.787 117.312 650.045C116.335 649.303 114.743 648.932 112.536 648.932H108.991V658.38ZM125.339 669V647.584H126.833V669H125.339ZM132.897 669V647.584H134.392V667.594H144.602V669H132.897ZM148.308 669V647.584H149.802V667.594H160.012V669H148.308ZM163.718 669V647.584H165.212V669H163.718ZM176.857 669H175.349V648.99H168.391V647.584H183.815V648.99H176.857V669ZM205.012 658.263C205.012 661.661 204.162 664.352 202.463 666.334C200.764 668.307 198.42 669.293 195.432 669.293C192.453 669.293 190.114 668.307 188.415 666.334C186.716 664.352 185.866 661.651 185.866 658.233C185.866 654.825 186.721 652.145 188.43 650.191C190.148 648.229 192.492 647.247 195.461 647.247C198.449 647.247 200.788 648.233 202.478 650.206C204.167 652.169 205.012 654.854 205.012 658.263ZM187.492 658.263C187.492 661.329 188.176 663.702 189.543 665.382C190.91 667.052 192.873 667.887 195.432 667.887C198.01 667.887 199.978 667.057 201.335 665.396C202.702 663.736 203.386 661.358 203.386 658.263C203.386 655.177 202.702 652.813 201.335 651.173C199.978 649.522 198.02 648.697 195.461 648.697C192.912 648.697 190.944 649.527 189.558 651.188C188.181 652.848 187.492 655.206 187.492 658.263ZM230.632 653.736C230.632 655.807 229.929 657.394 228.522 658.497C227.116 659.601 225.124 660.152 222.546 660.152H219.235V669H217.741V647.584H222.985C228.083 647.584 230.632 649.635 230.632 653.736ZM219.235 658.863H222.18C224.592 658.863 226.335 658.468 227.409 657.677C228.483 656.876 229.021 655.582 229.021 653.795C229.021 652.145 228.513 650.924 227.497 650.133C226.481 649.332 224.909 648.932 222.78 648.932H219.235V658.863ZM246.994 669H235.29V647.584H246.994V648.961H236.784V657.062H246.423V658.438H236.784V667.623H246.994V669ZM253.337 659.669V669H251.843V647.584H256.94C259.597 647.584 261.56 648.077 262.829 649.063C264.099 650.04 264.733 651.515 264.733 653.487C264.733 654.923 264.353 656.134 263.591 657.12C262.839 658.106 261.691 658.814 260.148 659.244L265.964 669H264.177L258.654 659.669H253.337ZM253.337 658.38H257.424C259.23 658.38 260.632 657.979 261.628 657.179C262.624 656.368 263.122 655.177 263.122 653.604C263.122 651.974 262.634 650.787 261.657 650.045C260.681 649.303 259.089 648.932 256.882 648.932H253.337V658.38ZM285.944 658.087C285.944 661.681 285.002 664.4 283.117 666.246C281.232 668.082 278.464 669 274.812 669H269.685V647.584H275.471C278.889 647.584 281.486 648.478 283.264 650.265C285.051 652.052 285.944 654.659 285.944 658.087ZM284.318 658.146C284.318 655.079 283.537 652.774 281.975 651.231C280.422 649.679 278.137 648.902 275.119 648.902H271.179V667.682H274.724C281.12 667.682 284.318 664.503 284.318 658.146ZM290.866 669V647.584H292.36V669H290.866ZM316.428 658.263C316.428 661.661 315.578 664.352 313.879 666.334C312.18 668.307 309.836 669.293 306.848 669.293C303.869 669.293 301.53 668.307 299.831 666.334C298.132 664.352 297.282 661.651 297.282 658.233C297.282 654.825 298.137 652.145 299.846 650.191C301.564 648.229 303.908 647.247 306.877 647.247C309.865 647.247 312.204 648.233 313.894 650.206C315.583 652.169 316.428 654.854 316.428 658.263ZM298.908 658.263C298.908 661.329 299.592 663.702 300.959 665.382C302.326 667.052 304.289 667.887 306.848 667.887C309.426 667.887 311.394 667.057 312.751 665.396C314.118 663.736 314.802 661.358 314.802 658.263C314.802 655.177 314.118 652.813 312.751 651.173C311.394 649.522 309.436 648.697 306.877 648.697C304.328 648.697 302.36 649.527 300.974 651.188C299.597 652.848 298.908 655.206 298.908 658.263ZM305.441 645.636C306.154 644.864 306.857 644.029 307.551 643.131C308.254 642.223 308.732 641.534 308.986 641.065H311.052V641.314C310.7 641.822 310.1 642.496 309.25 643.336C308.41 644.176 307.482 645.021 306.467 645.87H305.441V645.636ZM340.861 669H329.157V647.584H340.861V648.961H330.651V657.062H340.29V658.438H330.651V667.623H340.861V669ZM345.71 669V647.584H347.204V667.594H357.414V669H345.71Z" fill="black"/>
<path d="M430.604 476.407C428.391 476.407 426.65 477.191 425.383 478.76C424.115 480.328 423.481 482.493 423.481 485.253C423.481 488.143 424.088 490.329 425.302 491.812C426.527 493.294 428.294 494.035 430.604 494.035C431.603 494.035 432.569 493.939 433.504 493.745C434.438 493.541 435.411 493.283 436.42 492.972V496.275C434.573 496.973 432.478 497.322 430.136 497.322C426.688 497.322 424.04 496.28 422.192 494.196C420.345 492.102 419.421 489.11 419.421 485.221C419.421 482.772 419.867 480.629 420.758 478.792C421.661 476.955 422.96 475.548 424.658 474.57C426.355 473.593 428.348 473.104 430.636 473.104C433.042 473.104 435.266 473.609 437.307 474.619L435.921 477.825C435.126 477.449 434.283 477.122 433.391 476.842C432.51 476.552 431.581 476.407 430.604 476.407ZM456.9 488.057C456.9 490.968 456.154 493.24 454.661 494.873C453.167 496.506 451.089 497.322 448.425 497.322C446.76 497.322 445.288 496.946 444.01 496.194C442.731 495.442 441.749 494.363 441.061 492.956C440.374 491.548 440.03 489.916 440.03 488.057C440.03 485.168 440.771 482.912 442.253 481.29C443.736 479.668 445.825 478.857 448.521 478.857C451.1 478.857 453.141 479.689 454.645 481.354C456.148 483.008 456.9 485.243 456.9 488.057ZM443.929 488.057C443.929 492.171 445.449 494.229 448.489 494.229C451.497 494.229 453.001 492.171 453.001 488.057C453.001 483.986 451.486 481.95 448.457 481.95C446.867 481.95 445.712 482.477 444.993 483.529C444.284 484.582 443.929 486.091 443.929 488.057ZM476.285 497H472.482V486.011C472.482 484.647 472.224 483.631 471.708 482.965C471.193 482.289 470.387 481.95 469.292 481.95C467.831 481.95 466.756 482.428 466.069 483.384C465.392 484.33 465.054 485.909 465.054 488.122V497H461.267V479.179H464.232L464.764 481.515H464.957C465.451 480.667 466.166 480.011 467.1 479.549C468.045 479.087 469.082 478.857 470.21 478.857C472.949 478.857 474.765 479.791 475.656 481.66H475.914C476.44 480.779 477.182 480.092 478.138 479.598C479.094 479.104 480.189 478.857 481.425 478.857C483.552 478.857 485.099 479.394 486.065 480.468C487.043 481.542 487.532 483.18 487.532 485.382V497H483.745V486.011C483.745 484.647 483.482 483.631 482.956 482.965C482.44 482.289 481.634 481.95 480.539 481.95C479.067 481.95 477.987 482.412 477.3 483.336C476.623 484.249 476.285 485.656 476.285 487.558V497ZM501.856 497.322C499.601 497.322 497.85 496.511 496.604 494.889H496.378C496.528 496.393 496.604 497.306 496.604 497.628V504.928H492.817V479.179H495.878C495.964 479.512 496.142 480.307 496.41 481.564H496.604C497.785 479.759 499.558 478.857 501.921 478.857C504.145 478.857 505.874 479.662 507.109 481.273C508.355 482.885 508.979 485.146 508.979 488.057C508.979 490.968 508.345 493.24 507.077 494.873C505.82 496.506 504.08 497.322 501.856 497.322ZM500.938 481.95C499.434 481.95 498.333 482.391 497.635 483.272C496.947 484.152 496.604 485.56 496.604 487.493V488.057C496.604 490.227 496.947 491.801 497.635 492.778C498.322 493.745 499.445 494.229 501.002 494.229C502.313 494.229 503.323 493.691 504.032 492.617C504.741 491.543 505.095 490.012 505.095 488.025C505.095 486.027 504.741 484.518 504.032 483.497C503.333 482.466 502.302 481.95 500.938 481.95ZM517.164 497H513.377V471.928H517.164V497ZM530.377 497.322C527.605 497.322 525.436 496.517 523.867 494.905C522.31 493.283 521.531 491.054 521.531 488.218C521.531 485.307 522.256 483.019 523.706 481.354C525.156 479.689 527.149 478.857 529.684 478.857C532.037 478.857 533.895 479.571 535.259 481C536.624 482.428 537.306 484.394 537.306 486.897V488.943H525.43C525.484 490.673 525.951 492.005 526.832 492.94C527.713 493.863 528.954 494.325 530.554 494.325C531.607 494.325 532.584 494.229 533.487 494.035C534.4 493.831 535.377 493.498 536.419 493.036V496.114C535.496 496.554 534.561 496.866 533.616 497.048C532.67 497.231 531.591 497.322 530.377 497.322ZM529.684 481.725C528.481 481.725 527.514 482.106 526.784 482.869C526.064 483.631 525.634 484.743 525.495 486.204H533.583C533.562 484.732 533.208 483.621 532.52 482.869C531.833 482.106 530.887 481.725 529.684 481.725ZM548.247 494.261C549.17 494.261 550.094 494.116 551.018 493.826V496.678C550.599 496.86 550.057 497.011 549.391 497.129C548.735 497.258 548.053 497.322 547.344 497.322C543.756 497.322 541.962 495.432 541.962 491.65V482.047H539.529V480.371L542.14 478.985L543.429 475.215H545.765V479.179H550.841V482.047H545.765V491.586C545.765 492.499 545.991 493.176 546.442 493.616C546.904 494.046 547.505 494.261 548.247 494.261ZM565.746 497L564.988 494.519H564.859C564 495.604 563.135 496.345 562.265 496.742C561.395 497.129 560.278 497.322 558.914 497.322C557.163 497.322 555.793 496.85 554.805 495.904C553.827 494.959 553.338 493.622 553.338 491.892C553.338 490.055 554.021 488.669 555.385 487.735C556.749 486.8 558.828 486.29 561.621 486.204L564.698 486.107V485.157C564.698 484.018 564.43 483.169 563.893 482.611C563.366 482.042 562.544 481.757 561.427 481.757C560.514 481.757 559.639 481.891 558.801 482.16C557.963 482.428 557.157 482.745 556.384 483.11L555.159 480.403C556.126 479.898 557.184 479.517 558.333 479.259C559.483 478.991 560.568 478.857 561.588 478.857C563.855 478.857 565.563 479.351 566.712 480.339C567.873 481.327 568.453 482.879 568.453 484.996V497H565.746ZM560.106 494.422C561.481 494.422 562.582 494.041 563.409 493.278C564.247 492.504 564.666 491.425 564.666 490.039V488.492L562.378 488.589C560.595 488.653 559.295 488.954 558.479 489.491C557.673 490.018 557.27 490.829 557.27 491.924C557.27 492.719 557.506 493.337 557.979 493.777C558.452 494.207 559.161 494.422 560.106 494.422ZM590.093 497.322C587.321 497.322 585.151 496.517 583.583 494.905C582.025 493.283 581.247 491.054 581.247 488.218C581.247 485.307 581.972 483.019 583.422 481.354C584.872 479.689 586.865 478.857 589.4 478.857C591.752 478.857 593.611 479.571 594.975 481C596.339 482.428 597.021 484.394 597.021 486.897V488.943H585.146C585.2 490.673 585.667 492.005 586.548 492.94C587.429 493.863 588.669 494.325 590.27 494.325C591.323 494.325 592.3 494.229 593.203 494.035C594.116 493.831 595.093 493.498 596.135 493.036V496.114C595.211 496.554 594.277 496.866 593.332 497.048C592.386 497.231 591.307 497.322 590.093 497.322ZM589.4 481.725C588.197 481.725 587.23 482.106 586.5 482.869C585.78 483.631 585.35 484.743 585.21 486.204H593.299C593.278 484.732 592.923 483.621 592.236 482.869C591.548 482.106 590.603 481.725 589.4 481.725ZM605.11 497H601.324V471.928H605.11V497ZM626.896 497.322C624.124 497.322 621.954 496.517 620.386 494.905C618.828 493.283 618.049 491.054 618.049 488.218C618.049 485.307 618.774 483.019 620.225 481.354C621.675 479.689 623.667 478.857 626.203 478.857C628.555 478.857 630.414 479.571 631.778 481C633.142 482.428 633.824 484.394 633.824 486.897V488.943H621.949C622.002 490.673 622.47 492.005 623.351 492.94C624.231 493.863 625.472 494.325 627.073 494.325C628.125 494.325 629.103 494.229 630.005 494.035C630.918 493.831 631.896 493.498 632.938 493.036V496.114C632.014 496.554 631.08 496.866 630.134 497.048C629.189 497.231 628.109 497.322 626.896 497.322ZM626.203 481.725C625 481.725 624.033 482.106 623.302 482.869C622.583 483.631 622.153 484.743 622.013 486.204H630.102C630.081 484.732 629.726 483.621 629.039 482.869C628.351 482.106 627.406 481.725 626.203 481.725ZM653.805 497H650.002V486.043C650.002 484.668 649.723 483.642 649.164 482.965C648.616 482.289 647.741 481.95 646.538 481.95C644.937 481.95 643.766 482.423 643.025 483.368C642.284 484.314 641.913 485.898 641.913 488.122V497H638.126V479.179H641.091L641.623 481.515H641.816C642.354 480.667 643.116 480.011 644.104 479.549C645.093 479.087 646.188 478.857 647.392 478.857C651.667 478.857 653.805 481.032 653.805 485.382V497ZM671.642 497L671.11 494.664H670.917C670.391 495.491 669.639 496.141 668.661 496.613C667.694 497.086 666.588 497.322 665.342 497.322C663.183 497.322 661.571 496.785 660.508 495.711C659.444 494.637 658.913 493.009 658.913 490.829V479.179H662.731V490.168C662.731 491.532 663.011 492.558 663.569 493.246C664.128 493.922 665.003 494.261 666.196 494.261C667.786 494.261 668.951 493.788 669.692 492.843C670.444 491.887 670.82 490.292 670.82 488.057V479.179H674.623V497H671.642ZM695.699 497H691.896V486.043C691.896 484.668 691.617 483.642 691.059 482.965C690.511 482.289 689.635 481.95 688.432 481.95C686.832 481.95 685.661 482.423 684.919 483.368C684.178 484.314 683.808 485.898 683.808 488.122V497H680.021V479.179H682.986L683.518 481.515H683.711C684.248 480.667 685.011 480.011 685.999 479.549C686.987 479.087 688.083 478.857 689.286 478.857C693.562 478.857 695.699 481.032 695.699 485.382V497ZM708.155 497.322C705.458 497.322 703.407 496.538 702 494.97C700.603 493.391 699.905 491.129 699.905 488.186C699.905 485.189 700.635 482.885 702.096 481.273C703.568 479.662 705.689 478.857 708.461 478.857C710.341 478.857 712.033 479.206 713.537 479.904L712.393 482.949C710.792 482.326 709.471 482.015 708.429 482.015C705.346 482.015 703.804 484.061 703.804 488.154C703.804 490.152 704.186 491.656 704.948 492.666C705.722 493.665 706.85 494.164 708.332 494.164C710.019 494.164 711.614 493.745 713.118 492.907V496.211C712.441 496.608 711.716 496.893 710.942 497.065C710.18 497.236 709.25 497.322 708.155 497.322ZM721.094 497H717.307V479.179H721.094V497ZM717.082 474.458C717.082 473.781 717.264 473.26 717.629 472.895C718.005 472.529 718.537 472.347 719.225 472.347C719.891 472.347 720.406 472.529 720.771 472.895C721.147 473.26 721.335 473.781 721.335 474.458C721.335 475.102 721.147 475.612 720.771 475.988C720.406 476.354 719.891 476.536 719.225 476.536C718.537 476.536 718.005 476.354 717.629 475.988C717.264 475.612 717.082 475.102 717.082 474.458ZM737.674 497L736.917 494.519H736.788C735.929 495.604 735.064 496.345 734.194 496.742C733.324 497.129 732.207 497.322 730.842 497.322C729.091 497.322 727.722 496.85 726.733 495.904C725.756 494.959 725.267 493.622 725.267 491.892C725.267 490.055 725.949 488.669 727.313 487.735C728.678 486.8 730.756 486.29 733.549 486.204L736.627 486.107V485.157C736.627 484.018 736.358 483.169 735.821 482.611C735.295 482.042 734.473 481.757 733.356 481.757C732.443 481.757 731.567 481.891 730.729 482.16C729.892 482.428 729.086 482.745 728.312 483.11L727.088 480.403C728.055 479.898 729.113 479.517 730.262 479.259C731.412 478.991 732.497 478.857 733.517 478.857C735.784 478.857 737.492 479.351 738.641 480.339C739.801 481.327 740.381 482.879 740.381 484.996V497H737.674ZM732.035 494.422C733.41 494.422 734.511 494.041 735.338 493.278C736.176 492.504 736.595 491.425 736.595 490.039V488.492L734.307 488.589C732.523 488.653 731.224 488.954 730.407 489.491C729.602 490.018 729.199 490.829 729.199 491.924C729.199 492.719 729.435 493.337 729.908 493.777C730.38 494.207 731.089 494.422 732.035 494.422ZM751.677 497.322C749.453 497.322 747.718 496.517 746.472 494.905C745.226 493.294 744.603 491.033 744.603 488.122C744.603 485.2 745.231 482.928 746.488 481.306C747.756 479.673 749.507 478.857 751.741 478.857C754.083 478.857 755.866 479.721 757.091 481.451H757.284C757.102 480.172 757.01 479.163 757.01 478.421V471.928H760.813V497H757.848L757.188 494.664H757.01C755.796 496.436 754.019 497.322 751.677 497.322ZM752.692 494.261C754.25 494.261 755.383 493.826 756.092 492.956C756.801 492.075 757.166 490.651 757.188 488.686V488.154C757.188 485.909 756.822 484.314 756.092 483.368C755.361 482.423 754.217 481.95 752.66 481.95C751.328 481.95 750.302 482.493 749.582 483.578C748.862 484.652 748.502 486.188 748.502 488.186C748.502 490.163 748.852 491.672 749.55 492.714C750.248 493.745 751.295 494.261 752.692 494.261ZM782.034 488.057C782.034 490.968 781.288 493.24 779.794 494.873C778.301 496.506 776.223 497.322 773.559 497.322C771.894 497.322 770.422 496.946 769.144 496.194C767.865 495.442 766.882 494.363 766.195 492.956C765.507 491.548 765.164 489.916 765.164 488.057C765.164 485.168 765.905 482.912 767.387 481.29C768.87 479.668 770.959 478.857 773.655 478.857C776.233 478.857 778.274 479.689 779.778 481.354C781.282 483.008 782.034 485.243 782.034 488.057ZM769.063 488.057C769.063 492.171 770.583 494.229 773.623 494.229C776.631 494.229 778.135 492.171 778.135 488.057C778.135 483.986 776.62 481.95 773.591 481.95C772.001 481.95 770.846 482.477 770.126 483.529C769.417 484.582 769.063 486.091 769.063 488.057ZM802.16 497.322C799.463 497.322 797.412 496.538 796.004 494.97C794.608 493.391 793.91 491.129 793.91 488.186C793.91 485.189 794.64 482.885 796.101 481.273C797.573 479.662 799.694 478.857 802.466 478.857C804.346 478.857 806.038 479.206 807.542 479.904L806.397 482.949C804.797 482.326 803.476 482.015 802.434 482.015C799.351 482.015 797.809 484.061 797.809 488.154C797.809 490.152 798.19 491.656 798.953 492.666C799.727 493.665 800.854 494.164 802.337 494.164C804.023 494.164 805.619 493.745 807.123 492.907V496.211C806.446 496.608 805.721 496.893 804.947 497.065C804.185 497.236 803.255 497.322 802.16 497.322ZM827.119 488.057C827.119 490.968 826.373 493.24 824.879 494.873C823.386 496.506 821.308 497.322 818.644 497.322C816.979 497.322 815.507 496.946 814.229 496.194C812.95 495.442 811.967 494.363 811.28 492.956C810.592 491.548 810.249 489.916 810.249 488.057C810.249 485.168 810.99 482.912 812.472 481.29C813.955 479.668 816.044 478.857 818.74 478.857C821.318 478.857 823.359 479.689 824.863 481.354C826.367 483.008 827.119 485.243 827.119 488.057ZM814.148 488.057C814.148 492.171 815.668 494.229 818.708 494.229C821.716 494.229 823.22 492.171 823.22 488.057C823.22 483.986 821.705 481.95 818.676 481.95C817.086 481.95 815.931 482.477 815.211 483.529C814.502 484.582 814.148 486.091 814.148 488.057ZM847.164 497H843.361V486.043C843.361 484.668 843.082 483.642 842.523 482.965C841.976 482.289 841.1 481.95 839.897 481.95C838.296 481.95 837.125 482.423 836.384 483.368C835.643 484.314 835.272 485.898 835.272 488.122V497H831.486V479.179H834.451L834.982 481.515H835.176C835.713 480.667 836.476 480.011 837.464 479.549C838.452 479.087 839.548 478.857 840.751 478.857C845.026 478.857 847.164 481.032 847.164 485.382V497ZM868.788 497.322C866.017 497.322 863.847 496.517 862.278 494.905C860.721 493.283 859.942 491.054 859.942 488.218C859.942 485.307 860.667 483.019 862.117 481.354C863.567 479.689 865.56 478.857 868.095 478.857C870.448 478.857 872.306 479.571 873.67 481C875.035 482.428 875.717 484.394 875.717 486.897V488.943H863.841C863.895 490.673 864.362 492.005 865.243 492.94C866.124 493.863 867.365 494.325 868.965 494.325C870.018 494.325 870.996 494.229 871.898 494.035C872.811 493.831 873.789 493.498 874.831 493.036V496.114C873.907 496.554 872.972 496.866 872.027 497.048C871.082 497.231 870.002 497.322 868.788 497.322ZM868.095 481.725C866.892 481.725 865.925 482.106 865.195 482.869C864.475 483.631 864.045 484.743 863.906 486.204H871.995C871.973 484.732 871.619 483.621 870.931 482.869C870.244 482.106 869.298 481.725 868.095 481.725ZM883.806 497H880.019V471.928H883.806V497ZM408.174 542H404.371V531.043C404.371 529.668 404.092 528.642 403.533 527.965C402.985 527.289 402.11 526.95 400.907 526.95C399.306 526.95 398.135 527.423 397.394 528.368C396.653 529.314 396.282 530.898 396.282 533.122V542H392.496V524.179H395.46L395.992 526.515H396.186C396.723 525.667 397.485 525.011 398.474 524.549C399.462 524.087 400.558 523.857 401.761 523.857C406.036 523.857 408.174 526.032 408.174 530.382V542ZM429.25 533.057C429.25 535.968 428.503 538.24 427.01 539.873C425.517 541.506 423.438 542.322 420.774 542.322C419.109 542.322 417.638 541.946 416.359 541.194C415.081 540.442 414.098 539.363 413.411 537.956C412.723 536.548 412.379 534.916 412.379 533.057C412.379 530.168 413.121 527.912 414.603 526.29C416.085 524.668 418.175 523.857 420.871 523.857C423.449 523.857 425.49 524.689 426.994 526.354C428.498 528.008 429.25 530.243 429.25 533.057ZM416.279 533.057C416.279 537.171 417.799 539.229 420.839 539.229C423.847 539.229 425.351 537.171 425.351 533.057C425.351 528.986 423.836 526.95 420.807 526.95C419.217 526.95 418.062 527.477 417.342 528.529C416.633 529.582 416.279 531.091 416.279 533.057ZM448.634 542H444.832V531.011C444.832 529.647 444.574 528.631 444.058 527.965C443.542 527.289 442.737 526.95 441.641 526.95C440.18 526.95 439.106 527.428 438.418 528.384C437.742 529.33 437.403 530.909 437.403 533.122V542H433.617V524.179H436.582L437.113 526.515H437.307C437.801 525.667 438.515 525.011 439.45 524.549C440.395 524.087 441.432 523.857 442.56 523.857C445.299 523.857 447.114 524.791 448.006 526.66H448.264C448.79 525.779 449.531 525.092 450.487 524.598C451.443 524.104 452.539 523.857 453.774 523.857C455.901 523.857 457.448 524.394 458.415 525.468C459.393 526.542 459.881 528.18 459.881 530.382V542H456.095V531.011C456.095 529.647 455.832 528.631 455.305 527.965C454.79 527.289 453.984 526.95 452.888 526.95C451.417 526.95 450.337 527.412 449.649 528.336C448.973 529.249 448.634 530.656 448.634 532.558V542ZM474.271 523.857C476.494 523.857 478.224 524.662 479.459 526.273C480.705 527.885 481.328 530.146 481.328 533.057C481.328 535.979 480.7 538.256 479.443 539.889C478.186 541.511 476.44 542.322 474.206 542.322C471.95 542.322 470.199 541.511 468.953 539.889H468.695L468.002 542H465.167V516.928H468.953V522.89C468.953 523.33 468.932 523.985 468.889 524.856C468.846 525.726 468.813 526.279 468.792 526.515H468.953C470.156 524.743 471.929 523.857 474.271 523.857ZM473.288 526.95C471.762 526.95 470.661 527.401 469.984 528.304C469.318 529.195 468.975 530.694 468.953 532.799V533.057C468.953 535.227 469.297 536.801 469.984 537.778C470.672 538.745 471.794 539.229 473.352 539.229C474.695 539.229 475.71 538.697 476.397 537.633C477.096 536.57 477.445 535.034 477.445 533.025C477.445 528.975 476.059 526.95 473.288 526.95ZM494.767 523.857C495.529 523.857 496.158 523.91 496.652 524.018L496.281 527.546C495.744 527.418 495.186 527.353 494.605 527.353C493.091 527.353 491.861 527.847 490.916 528.836C489.981 529.824 489.514 531.107 489.514 532.687V542H485.727V524.179H488.692L489.191 527.321H489.385C489.976 526.257 490.744 525.414 491.689 524.791C492.645 524.168 493.671 523.857 494.767 523.857ZM507.754 542.322C504.982 542.322 502.812 541.517 501.244 539.905C499.687 538.283 498.908 536.054 498.908 533.218C498.908 530.307 499.633 528.019 501.083 526.354C502.533 524.689 504.526 523.857 507.061 523.857C509.414 523.857 511.272 524.571 512.636 526C514 527.428 514.683 529.394 514.683 531.897V533.943H502.807C502.861 535.673 503.328 537.005 504.209 537.94C505.09 538.863 506.331 539.325 507.931 539.325C508.984 539.325 509.961 539.229 510.864 539.035C511.777 538.831 512.754 538.498 513.796 538.036V541.114C512.873 541.554 511.938 541.866 510.993 542.048C510.047 542.231 508.968 542.322 507.754 542.322ZM507.061 526.725C505.858 526.725 504.891 527.106 504.161 527.869C503.441 528.631 503.011 529.743 502.872 531.204H510.96C510.939 529.732 510.584 528.621 509.897 527.869C509.209 527.106 508.264 526.725 507.061 526.725ZM533.567 542.322C531.344 542.322 529.609 541.517 528.363 539.905C527.117 538.294 526.494 536.033 526.494 533.122C526.494 530.2 527.122 527.928 528.379 526.306C529.646 524.673 531.397 523.857 533.632 523.857C535.974 523.857 537.757 524.721 538.981 526.451H539.175C538.992 525.172 538.901 524.163 538.901 523.421V516.928H542.704V542H539.739L539.078 539.664H538.901C537.687 541.436 535.909 542.322 533.567 542.322ZM534.583 539.261C536.14 539.261 537.273 538.826 537.982 537.956C538.691 537.075 539.057 535.651 539.078 533.686V533.154C539.078 530.909 538.713 529.314 537.982 528.368C537.252 527.423 536.108 526.95 534.55 526.95C533.218 526.95 532.192 527.493 531.473 528.578C530.753 529.652 530.393 531.188 530.393 533.186C530.393 535.163 530.742 536.672 531.44 537.714C532.139 538.745 533.186 539.261 534.583 539.261ZM555.9 542.322C553.129 542.322 550.959 541.517 549.391 539.905C547.833 538.283 547.054 536.054 547.054 533.218C547.054 530.307 547.779 528.019 549.229 526.354C550.68 524.689 552.672 523.857 555.208 523.857C557.56 523.857 559.418 524.571 560.783 526C562.147 527.428 562.829 529.394 562.829 531.897V533.943H550.954C551.007 535.673 551.475 537.005 552.355 537.94C553.236 538.863 554.477 539.325 556.078 539.325C557.13 539.325 558.108 539.229 559.01 539.035C559.923 538.831 560.901 538.498 561.943 538.036V541.114C561.019 541.554 560.084 541.866 559.139 542.048C558.194 542.231 557.114 542.322 555.9 542.322ZM555.208 526.725C554.004 526.725 553.038 527.106 552.307 527.869C551.587 528.631 551.158 529.743 551.018 531.204H559.107C559.085 529.732 558.731 528.621 558.043 527.869C557.356 527.106 556.411 526.725 555.208 526.725ZM570.918 542H567.131V516.928H570.918V542ZM588.707 542H584.92V524.179H588.707V542ZM584.695 519.458C584.695 518.781 584.877 518.26 585.243 517.895C585.619 517.529 586.15 517.347 586.838 517.347C587.504 517.347 588.02 517.529 588.385 517.895C588.761 518.26 588.949 518.781 588.949 519.458C588.949 520.102 588.761 520.612 588.385 520.988C588.02 521.354 587.504 521.536 586.838 521.536C586.15 521.536 585.619 521.354 585.243 520.988C584.877 520.612 584.695 520.102 584.695 519.458ZM609.815 542H606.013V531.043C606.013 529.668 605.733 528.642 605.175 527.965C604.627 527.289 603.751 526.95 602.548 526.95C600.948 526.95 599.777 527.423 599.036 528.368C598.294 529.314 597.924 530.898 597.924 533.122V542H594.137V524.179H597.102L597.634 526.515H597.827C598.364 525.667 599.127 525.011 600.115 524.549C601.104 524.087 602.199 523.857 603.402 523.857C607.678 523.857 609.815 526.032 609.815 530.382V542ZM627.057 536.924C627.057 538.665 626.423 540.002 625.155 540.937C623.888 541.86 622.072 542.322 619.709 542.322C617.335 542.322 615.428 541.962 613.989 541.243V537.972C616.083 538.939 618.033 539.422 619.838 539.422C622.169 539.422 623.334 538.718 623.334 537.311C623.334 536.86 623.206 536.484 622.948 536.183C622.69 535.882 622.266 535.571 621.675 535.249C621.084 534.926 620.262 534.561 619.209 534.153C617.158 533.358 615.767 532.563 615.036 531.768C614.316 530.973 613.957 529.942 613.957 528.674C613.957 527.149 614.569 525.967 615.793 525.129C617.029 524.281 618.705 523.857 620.821 523.857C622.916 523.857 624.897 524.281 626.767 525.129L625.542 527.982C623.619 527.187 622.002 526.789 620.692 526.789C618.694 526.789 617.695 527.358 617.695 528.497C617.695 529.056 617.953 529.528 618.468 529.915C618.995 530.302 620.133 530.834 621.884 531.51C623.356 532.08 624.425 532.601 625.091 533.073C625.757 533.546 626.251 534.094 626.573 534.717C626.896 535.329 627.057 536.065 627.057 536.924ZM637.804 539.261C638.728 539.261 639.652 539.116 640.576 538.826V541.678C640.157 541.86 639.614 542.011 638.948 542.129C638.293 542.258 637.611 542.322 636.902 542.322C633.314 542.322 631.52 540.432 631.52 536.65V527.047H629.087V525.371L631.697 523.985L632.986 520.215H635.323V524.179H640.398V527.047H635.323V536.586C635.323 537.499 635.548 538.176 636 538.616C636.461 539.046 637.063 539.261 637.804 539.261ZM653.192 523.857C653.955 523.857 654.583 523.91 655.078 524.018L654.707 527.546C654.17 527.418 653.611 527.353 653.031 527.353C651.517 527.353 650.287 527.847 649.341 528.836C648.407 529.824 647.939 531.107 647.939 532.687V542H644.153V524.179H647.118L647.617 527.321H647.811C648.401 526.257 649.169 525.414 650.115 524.791C651.071 524.168 652.097 523.857 653.192 523.857ZM670.965 542L670.434 539.664H670.24C669.714 540.491 668.962 541.141 667.984 541.613C667.018 542.086 665.911 542.322 664.665 542.322C662.506 542.322 660.895 541.785 659.831 540.711C658.768 539.637 658.236 538.009 658.236 535.829V524.179H662.055V535.168C662.055 536.532 662.334 537.558 662.893 538.246C663.451 538.922 664.327 539.261 665.519 539.261C667.109 539.261 668.274 538.788 669.016 537.843C669.768 536.887 670.144 535.292 670.144 533.057V524.179H673.946V542H670.965ZM694.362 542H690.559V531.011C690.559 529.647 690.301 528.631 689.786 527.965C689.27 527.289 688.464 526.95 687.369 526.95C685.908 526.95 684.833 527.428 684.146 528.384C683.469 529.33 683.131 530.909 683.131 533.122V542H679.344V524.179H682.309L682.841 526.515H683.034C683.528 525.667 684.243 525.011 685.177 524.549C686.123 524.087 687.159 523.857 688.287 523.857C691.026 523.857 692.842 524.791 693.733 526.66H693.991C694.518 525.779 695.259 525.092 696.215 524.598C697.171 524.104 698.267 523.857 699.502 523.857C701.629 523.857 703.176 524.394 704.143 525.468C705.12 526.542 705.609 528.18 705.609 530.382V542H701.822V531.011C701.822 529.647 701.559 528.631 701.033 527.965C700.517 527.289 699.711 526.95 698.616 526.95C697.144 526.95 696.064 527.412 695.377 528.336C694.7 529.249 694.362 530.656 694.362 532.558V542ZM718.677 542.322C715.905 542.322 713.735 541.517 712.167 539.905C710.609 538.283 709.831 536.054 709.831 533.218C709.831 530.307 710.556 528.019 712.006 526.354C713.456 524.689 715.449 523.857 717.984 523.857C720.336 523.857 722.195 524.571 723.559 526C724.923 527.428 725.605 529.394 725.605 531.897V533.943H713.73C713.784 535.673 714.251 537.005 715.132 537.94C716.013 538.863 717.253 539.325 718.854 539.325C719.907 539.325 720.884 539.229 721.787 539.035C722.7 538.831 723.677 538.498 724.719 538.036V541.114C723.795 541.554 722.861 541.866 721.916 542.048C720.97 542.231 719.891 542.322 718.677 542.322ZM717.984 526.725C716.781 526.725 715.814 527.106 715.083 527.869C714.364 528.631 713.934 529.743 713.794 531.204H721.883C721.862 529.732 721.507 528.621 720.82 527.869C720.132 527.106 719.187 526.725 717.984 526.725ZM745.586 542H741.783V531.043C741.783 529.668 741.504 528.642 740.945 527.965C740.397 527.289 739.522 526.95 738.319 526.95C736.718 526.95 735.547 527.423 734.806 528.368C734.065 529.314 733.694 530.898 733.694 533.122V542H729.908V524.179H732.873L733.404 526.515H733.598C734.135 525.667 734.897 525.011 735.886 524.549C736.874 524.087 737.97 523.857 739.173 523.857C743.448 523.857 745.586 526.032 745.586 530.382V542ZM757.494 539.261C758.417 539.261 759.341 539.116 760.265 538.826V541.678C759.846 541.86 759.304 542.011 758.638 542.129C757.982 542.258 757.3 542.322 756.591 542.322C753.003 542.322 751.209 540.432 751.209 536.65V527.047H748.776V525.371L751.387 523.985L752.676 520.215H755.012V524.179H760.088V527.047H755.012V536.586C755.012 537.499 755.238 538.176 755.689 538.616C756.151 539.046 756.752 539.261 757.494 539.261ZM779.649 533.057C779.649 535.968 778.903 538.24 777.41 539.873C775.917 541.506 773.838 542.322 771.174 542.322C769.509 542.322 768.037 541.946 766.759 541.194C765.48 540.442 764.498 539.363 763.81 537.956C763.123 536.548 762.779 534.916 762.779 533.057C762.779 530.168 763.52 527.912 765.002 526.29C766.485 524.668 768.574 523.857 771.271 523.857C773.849 523.857 775.89 524.689 777.394 526.354C778.897 528.008 779.649 530.243 779.649 533.057ZM766.678 533.057C766.678 537.171 768.198 539.229 771.238 539.229C774.246 539.229 775.75 537.171 775.75 533.057C775.75 528.986 774.235 526.95 771.206 526.95C769.616 526.95 768.461 527.477 767.742 528.529C767.033 529.582 766.678 531.091 766.678 533.057ZM801.628 542.322C799.372 542.322 797.621 541.511 796.375 539.889H796.149C796.3 541.393 796.375 542.306 796.375 542.628V549.928H792.588V524.179H795.65C795.736 524.512 795.913 525.307 796.182 526.564H796.375C797.557 524.759 799.329 523.857 801.692 523.857C803.916 523.857 805.646 524.662 806.881 526.273C808.127 527.885 808.75 530.146 808.75 533.057C808.75 535.968 808.116 538.24 806.849 539.873C805.592 541.506 803.852 542.322 801.628 542.322ZM800.709 526.95C799.206 526.95 798.104 527.391 797.406 528.272C796.719 529.152 796.375 530.56 796.375 532.493V533.057C796.375 535.227 796.719 536.801 797.406 537.778C798.094 538.745 799.216 539.229 800.774 539.229C802.084 539.229 803.094 538.691 803.803 537.617C804.512 536.543 804.867 535.012 804.867 533.025C804.867 531.027 804.512 529.518 803.803 528.497C803.105 527.466 802.074 526.95 800.709 526.95ZM820.932 542.322C818.16 542.322 815.99 541.517 814.422 539.905C812.864 538.283 812.085 536.054 812.085 533.218C812.085 530.307 812.811 528.019 814.261 526.354C815.711 524.689 817.704 523.857 820.239 523.857C822.591 523.857 824.45 524.571 825.814 526C827.178 527.428 827.86 529.394 827.86 531.897V533.943H815.985C816.039 535.673 816.506 537.005 817.387 537.94C818.268 538.863 819.508 539.325 821.109 539.325C822.162 539.325 823.139 539.229 824.042 539.035C824.955 538.831 825.932 538.498 826.974 538.036V541.114C826.05 541.554 825.116 541.866 824.17 542.048C823.225 542.231 822.146 542.322 820.932 542.322ZM820.239 526.725C819.036 526.725 818.069 527.106 817.338 527.869C816.619 528.631 816.189 529.743 816.049 531.204H824.138C824.117 529.732 823.762 528.621 823.075 527.869C822.387 527.106 821.442 526.725 820.239 526.725ZM841.202 523.857C841.965 523.857 842.593 523.91 843.087 524.018L842.717 527.546C842.18 527.418 841.621 527.353 841.041 527.353C839.526 527.353 838.296 527.847 837.351 528.836C836.417 529.824 835.949 531.107 835.949 532.687V542H832.163V524.179H835.127L835.627 527.321H835.82C836.411 526.257 837.179 525.414 838.125 524.791C839.081 524.168 840.106 523.857 841.202 523.857ZM852.417 542.322C850.193 542.322 848.458 541.517 847.212 539.905C845.966 538.294 845.343 536.033 845.343 533.122C845.343 530.2 845.972 527.928 847.229 526.306C848.496 524.673 850.247 523.857 852.481 523.857C854.823 523.857 856.606 524.721 857.831 526.451H858.024C857.842 525.172 857.75 524.163 857.75 523.421V516.928H861.553V542H858.588L857.928 539.664H857.75C856.537 541.436 854.759 542.322 852.417 542.322ZM853.432 539.261C854.99 539.261 856.123 538.826 856.832 537.956C857.541 537.075 857.906 535.651 857.928 533.686V533.154C857.928 530.909 857.562 529.314 856.832 528.368C856.102 527.423 854.958 526.95 853.4 526.95C852.068 526.95 851.042 527.493 850.322 528.578C849.603 529.652 849.243 531.188 849.243 533.186C849.243 535.163 849.592 536.672 850.29 537.714C850.988 538.745 852.036 539.261 853.432 539.261ZM870.754 542H866.967V524.179H870.754V542ZM866.742 519.458C866.742 518.781 866.924 518.26 867.29 517.895C867.666 517.529 868.197 517.347 868.885 517.347C869.551 517.347 870.066 517.529 870.432 517.895C870.808 518.26 870.996 518.781 870.996 519.458C870.996 520.102 870.808 520.612 870.432 520.988C870.066 521.354 869.551 521.536 868.885 521.536C868.197 521.536 867.666 521.354 867.29 520.988C866.924 520.612 866.742 520.102 866.742 519.458ZM882.194 542.322C879.971 542.322 878.236 541.517 876.99 539.905C875.744 538.294 875.121 536.033 875.121 533.122C875.121 530.2 875.749 527.928 877.006 526.306C878.273 524.673 880.024 523.857 882.259 523.857C884.601 523.857 886.384 524.721 887.608 526.451H887.802C887.619 525.172 887.528 524.163 887.528 523.421V516.928H891.331V542H888.366L887.705 539.664H887.528C886.314 541.436 884.536 542.322 882.194 542.322ZM883.209 539.261C884.767 539.261 885.9 538.826 886.609 537.956C887.318 537.075 887.684 535.651 887.705 533.686V533.154C887.705 530.909 887.34 529.314 886.609 528.368C885.879 527.423 884.735 526.95 883.177 526.95C881.845 526.95 880.819 527.493 880.1 528.578C879.38 529.652 879.02 531.188 879.02 533.186C879.02 535.163 879.369 536.672 880.067 537.714C880.766 538.745 881.813 539.261 883.209 539.261ZM912.552 533.057C912.552 535.968 911.805 538.24 910.312 539.873C908.819 541.506 906.74 542.322 904.076 542.322C902.411 542.322 900.939 541.946 899.661 541.194C898.383 540.442 897.4 539.363 896.712 537.956C896.025 536.548 895.681 534.916 895.681 533.057C895.681 530.168 896.422 527.912 897.905 526.29C899.387 524.668 901.477 523.857 904.173 523.857C906.751 523.857 908.792 524.689 910.296 526.354C911.8 528.008 912.552 530.243 912.552 533.057ZM899.581 533.057C899.581 537.171 901.101 539.229 904.141 539.229C907.148 539.229 908.652 537.171 908.652 533.057C908.652 528.986 907.138 526.95 904.108 526.95C902.519 526.95 901.364 527.477 900.644 528.529C899.935 529.582 899.581 531.091 899.581 533.057Z" fill="white"/>
</svg>
