<?xml version="1.0" encoding="utf-8"?>
<!-- Generator: Adobe Illustrator 23.0.1, SVG Export Plug-In . SVG Version: 6.00 Build 0)  -->
<svg version="1.1" id="Layer_1" xmlns="http://www.w3.org/2000/svg" xmlns:xlink="http://www.w3.org/1999/xlink" x="0px" y="0px"
	 viewBox="0 0 945 609" style="enable-background:new 0 0 945 609;" xml:space="preserve">
<style type="text/css">
	.st0{fill-rule:evenodd;clip-rule:evenodd;fill:#1B8A4F;}
	.st1{fill:none;stroke:#000000;stroke-width:0.786;stroke-linecap:round;}
	.st2{fill:#0C0C0C;fill-opacity:0.31;}
	.st3{fill:#814114;}
	.st4{fill:#FFFFFF;}
	.st5{fill:#DB7A1C;}
	.st6{fill:#F39200;}
	.st7{fill:#A85318;}
	.st8{fill:none;stroke:#000000;stroke-width:0.736;stroke-linecap:round;}
	.st9{fill:none;stroke:#DB7A1C;stroke-width:1.042;stroke-linecap:round;}
	.st10{fill-rule:evenodd;clip-rule:evenodd;fill:#B780B1;}
	.st11{fill-rule:evenodd;clip-rule:evenodd;fill:#85557C;}
	.st12{fill:#ACA89D;}
	.st13{fill:#C4C0B4;}
	.st14{fill:#E30613;}
</style>
<path class="st0" d="M795.9,560.1c0,0-45.8-20-101.6-22.5c-55.7-2.5-80.3,3.7-80.3,3.7V607h222C834.4,585.5,828.2,574.7,795.9,560.1
	z"/>
<path class="st1" d="M254.7,368.3c2.3-1,6.2-2.2,9.7-6.7"/>
<path class="st1" d="M252,367.1c1.8-1.7,5.1-4.2,6.8-9.6"/>
<path class="st1" d="M249.2,367.2c1.1-2.2,3.3-5.7,3.1-11.4"/>
<path class="st2" d="M106,476.9c-1.2,0.1,0.6,0.3-0.8,0.1C105.4,476.9,105.6,476.8,106,476.9z"/>
<path class="st2" d="M128.9,483.6c-14.3,3.3,6.2,3.7,15.7,4.3l-0.3,0.2c2.5,0,6.3-1,12.8-1.7c1.4,0.2,6-1.3,11.4-2.5
	c-0.1,0.2-0.2,0.4,0,0.5c0.5-0.6-0.3,0.2,5-2.3l-0.1,0.1c-0.1-0.3,3.8-2,2.3-1.2v0.1c-1,0-1.6-0.8-4.1-0.6
	c0.5-1.2-11.4-0.8-18.2-0.7c-0.9-0.2-0.7-0.4-2.6,0.2c0.4-0.5,0.5-0.3-2.7,0.1c0.2-0.1,0.4-0.1,0.4-0.3c-1.1,0.4-2.1,0-3,0.3
	l0.4-0.3c-1.6-0.2-0.4,0.5-1.8,0.4c0.3-0.1,0.2-0.2,0.3-0.3c-1.3,0.5-3.3,0.4-4.6,0.6l0-0.1c-1.3-0.3-0.2,0.8-5.7-0.3
	c0.1,0.5-2.5,0.3-1.6,0.8c-1.3,0-3.3-0.1-4.1,0.1c0.6-0.2-0.6-0.5,0.4-0.6l-0.8-0.2c0.4-0.1,1.3-1-5.3,1.2c0.7-0.2-0.5-0.5,0-0.6
	c-0.4-0.1-1.4,1.4-3,0.9c-1.2,0.7-5.4-0.1-5.2,0.9c-0.3,0.3-1.5,0.7-1.9,1c0.1-0.1,0-0.3,0.1-0.4c-0.7,0.6,0.4,0.1-0.3-0.3
	c-0.5,0.2,3.5-0.2,1.3,0.3c1.8,0.6,3.8,0.2,5.3,0.9c-0.7-0.4,2.8,0.4,2.2,0.3c0.9-0.1,4.2-0.1,6.1,0.3c0-0.1,1.2-0.4,1.6-0.3
	l-0.2,0.3c0.4,0.2,1.5,0.1,1.5,0.3c0.2-0.3-4.6,0-0.9-0.1c0.9,0.1,1.8-0.2,2.6,0.1c0.1,0.6,1.1,0.3,2.7-0.2
	c-0.4,0.4,1.2-0.4,1.5,0.7c0.5,0.2,0.1-0.5,1.5-0.3c1.5-0.9,3.9,0.5,8.2-0.1c-0.2,0-0.5,0.1-0.5,0.2c0.6,0.2,0.8,0,1.4,0
	c-0.8-0.4,1.8,1.3,2.6-0.1c0.8,0.6,2.5-0.3,3.5,0.2c-0.4,0.5-1.1,0.8,2.4,0.3l-0.3-0.5c0.6,0.3,1.9-0.2,1.8,0.2
	c0.4-0.2,1.5,0.2,1.4-0.3c0,0.1,8,0.7,6.5,0.4c0.8-0.2,0.5-0.3,0.9,0.3c1.5,0.3,1.5-0.7,3.4-0.6c1.5,0.4,1.9,0.1,4.9,0.7
	c-0.6-0.3,0.5-0.2,0.8-0.3l-0.3,0.1c0.1,0.1,0.9,0,1.2,0c-0.1-0.2-0.9-0.3-1.3-0.3c0.3-0.1,0.9-0.1,1.3-0.3c-1,0.4,4.7,0,2.1,0.2
	c0.3,0,1,0.5,2.1-0.3c-0.3,0.1-0.3,0.2-0.6,0.3c-0.3-0.3,0.7,0.5,1.1-0.1c0.6,0.4-0.3-0.6,3.7-0.1l-0.1,0c0.6,0.1,1.5,0,2-0.2l0,0.1
	c0.5-0.8,3,1.2,3.9-0.3c3.2,0.1,5.6-0.4,12-1c-0.6,0.2,0,0.3,0.1,0.4c0.2-0.4,1.3-0.3,0-0.7c0.5-0.2,1.5-0.6,1.2-0.4
	c0.2-0.1-1.2,1.5,1.1,2c-0.3,0-0.6-0.1-0.8-0.2c0.4,0.1,0.1,0.2-0.2,0.3c0.3-0.1-0.4-0.5-1.8-0.2c-0.7-0.3-1.3-0.4-5.7-0.2
	c-3.5-1.1-6.1,0.2-12.3-0.3l0.1-0.2c-0.8-0.2-0.4,0.3-1,0.2c0.3-0.2-0.6-0.4,0-0.6c-1.3-0.6-2.4,1.8-3.5,0.1c-1.5,0.6,1-3.2-0.9-0.8
	c-3.3,0.6,0.2,0.5-3.5,0.4c0.8,0.7-1.5-0.2-1.3,0.6c0.2,0.2-2.5,0.8-1.9-0.8c0.2,0.3-1.6,0.4-0.9,0.9c-0.5-0.1-0.5-0.4-0.2-0.6
	c-0.7-0.2-1.7,0.5-1.9-0.1c-0.9,0.7-0.1-0.3-3.1-0.2c-0.1,0.1-1.9,0.5,0.4,0.6c-0.5-0.3-0.6,0-3.1,0.1c-0.2-0.6-0.8,0.5-1.9-0.6
	l0.9-0.2c-0.3-0.5-1.7,0.5-3.1,0.4c0.9,0.4,1.2-1.5-1.1-0.2c-0.5,0-1.1-0.2-0.7-0.4c-1.6,0.2,0.1,0.7-2.9-0.5l1-0.3l-0.6,0
	c0.8-0.3-0.4-0.3,0.1-0.6c-0.4-0.1-0.9,0-1.3,0.1c1.2,0.7-1.4,0.7-1.1,1.3c-1.7,0-0.9-1.4-2.8-0.7c0.3,0.2-0.6,0.5,0.5,0.4
	c-1-0.1-0.8,0.5-2,0.2c0.9-0.1-0.9-0.6,0.4-0.9c-0.1,0.2,0.7,0.2,0.9,0.2c-1.9-1.1,0-0.4-3.9-0.1c0.4-0.1,1.9,0.8,0,0.6l0.2-0.2
	c-1.5-0.7-0.1,0.9-2.6-0.3c0.7-0.2,3.4-0.3-0.3-0.3l0.7-0.1c-1.7-0.4-2-0.2-5.3,0c-0.9-0.9-0.5,0,2.7-0.4c-0.5-0.6,1.2,0.2,1.6-0.3
	c-0.6,0.2-2.3-2.1-1.9-0.2c-1.1-0.7-0.5,0.9-3.2-0.4c-1.7,0-3.4-0.2-5-0.5c-1.3,0.4,1.2,1.5-1.9,0.7c1.5,0,0.3-0.6,0.6-0.9
	c-1.6-0.4-8.5-0.3-11.4-1.1l0.1-0.1c-0.4,0.1-2.4-0.5-2.9,0.1l0.4-0.4c-0.2-0.1-0.5,0-0.7,0.1c0-0.2-0.3-0.3,0.1-0.4
	c-0.8-0.4-1.7-0.1-2.6-0.1l0.6,0.3c-1.5,0.1-2.5-0.2-4-0.2l0.1-0.3l-0.9,0.1c0.2-0.3-0.6-0.5-1-0.3c2.5-0.9,0.7,0.2,3.9,0
	c-0.5-0.1-1.9,0.2,0.1-0.5c-0.3,0-0.7-0.1-0.7,0c0.6-0.2,1.1-0.2,2-0.1c-0.6,0.1,0.3,0.3,0.1,0.3c0.6-0.4,0.1,0.1,5.4-0.1
	c-0.6,0.3-1.2,0.5-2,0.6c3.4,0.5,6.5-1.3,11.5,0.5c5.2-0.5,11.6,0.9,20,1.2l-0.6,0.3c0.7-0.2,0.4,0.3,1.1,0.3
	c0.5-0.6,3.9-0.4,6.7-0.1c9.6,0.7,24.1,0.5,38.1,0.9l-0.4,0.5c1.1,0.2,2.5,0,2.2-0.4c-0.3,0.8,17-1.5,8.6,5.5
	c1.9-0.8-0.7-0.4-2.1,0.7c-2.4,0.1-5.4,1-7.6,0.7c-8.1,1.3-18.3,0.6-32,0.8l0.1-0.1c-1.3,0-3.2,0.6-6.4-0.2c-1.3,0.3-3.7-0.4-5.6,0
	l0.5,0c-1.9-0.3-3.6,0-5.6-0.3c0.2,0,0.6-0.1,0.6-0.2c-0.1,0-1.5-0.5-2.3,0.2c-3.7-0.5-13.3,0.7-19.1-1.3c0.3,0.4-0.5,0.2-0.5,0.4
	c-2-0.4-2.4-0.7-4-0.6l0.1-0.2c-40-5.6,40.6-12.8,52.4-8.7c-0.1,0.1-0.3,0.1-0.1,0.2c0.9-0.5,2.5,0,5.2,0.6
	c-0.6-3.8,0.8,5.2,0.7,4.3c-1,0.6-3.9,2.3-8.4,3.5c0.9-0.3-0.7-0.5-1.2,0.5c-14.3,2.6-30.8,5.5-47.4,0.3c0.3,2.7-0.4-3.7-0.4-3
	c3.4-1.3,6.6-1.6,12.4-2C133.1,481.9,131.6,482.8,128.9,483.6z"/>
<path class="st2" d="M107.5,476.9c0.3,0.2,1.1,0.4,0.4,0.6C107.8,477.3,107.4,477,107.5,476.9z"/>
<path class="st2" d="M129.7,480.5c0-0.1,0.3,0.1,0.4,0.1c-0.3,0-0.6,0.1-0.8,0C129.7,480.6,129.6,480.5,129.7,480.5z"/>
<path class="st2" d="M135.5,481.1c-0.1,0.2-1.3,0.2-2.1,0.2L135.5,481.1z"/>
<path class="st2" d="M140.7,482.3c0.4,0.2,0.3,0.3-0.3,0.2C140.4,482.4,140.6,482.3,140.7,482.3z"/>
<path class="st2" d="M141.1,481.9c0.4,0,0.6,0.2,0.9,0.3C142,482,141,482.2,141.1,481.9z"/>
<path class="st2" d="M152.7,483.4c0.3,0,0.9-0.1,1.1,0.1C153.5,483.4,152.4,483.6,152.7,483.4z"/>
<path class="st2" d="M158.1,483.5C158.3,483.8,158.3,483.8,158.1,483.5C158.3,483.6,159,483.5,158.1,483.5z"/>
<path class="st2" d="M153.9,485.2l0.6-0.1C154.4,485.3,154.6,485.4,153.9,485.2z"/>
<path class="st2" d="M112.9,483.4c-0.6,0.6,0.1,0.3,0,0.5C112.8,483.8,112.4,484.1,112.9,483.4z"/>
<path class="st2" d="M134.3,480.6l-0.2,0l0-0.4L134.3,480.6z"/>
<path class="st3" d="M257.8,367.7c5.4,12.4-10.7,21.5-16.8,7.3C235.9,363,253.3,357.3,257.8,367.7z"/>
<path class="st4" d="M256.2,368.5c4.4,10.1-8.7,17.4-13.6,5.9C238.5,364.8,252.6,360.1,256.2,368.5z"/>
<path d="M252.4,370.5C251,370.2,250.7,370.9,252.4,370.5C254.2,370.4,252.1,376.4,252.4,370.5z"/>
<path d="M221.4,370.2c6.5-7-13.8-23.6-22.2-22.8C208.5,351.1,216.4,358.8,221.4,370.2z"/>
<path d="M231,365.6c-0.6-9.2,1.4-23.6,9.6-29.6c-3.8,6.7-7.2,20.7-5.8,30.7C233.2,366.3,231.3,367.4,231,365.6z"/>
<path class="st3" d="M140.2,410.5c-5,13.5-5.1,44.8-6.8,60.2c0.6,5.2-19.7,4.3-2,7c26.8-6.7-12.5-106.4,42.1-37.1
	C195.8,448.5,147.5,389.9,140.2,410.5z"/>
<path class="st3" d="M134.9,453.6c-0.3,0.3-2.7,0.5-5.1,2.5c2.6-0.2,4.6-1.3-0.8,2.8c3.9-1,5.9-2.9-0.5,3c-0.5,0.3,4.5-3,6.5-1.6
	L134.9,453.6z"/>
<path class="st3" d="M105.8,423.4c-7.8-4.8-14.9-10.5-19.3-18.9c-0.7,12.5,9.6,18,17.7,23.1c-7.2,1.4-22.1-9-28.2-14.1
	C77.6,426.8,116.1,440,105.8,423.4z"/>
<path class="st3" d="M240.2,420.2c-23.6-5.3-29.7,20.5-47.9,34.1c-29.4,19.3-75.9,4.7-88.7-29.1c-1-4.6,1.7-6.3,8.4-6.9
	c64.1-5.7,67.2-28.6,111-53.2C259.7,349.9,267.2,423.2,240.2,420.2z"/>
<path class="st5" d="M200.1,408.4c-54.9,57.9-108.6,14.8-95.5,11.2C197.3,402.7,196.1,365.3,200.1,408.4z"/>
<path class="st6" d="M223.2,422.6c-11.2-10.1-17.5-34.2-27.9-41.5C175.9,382.5,217.9,443.8,223.2,422.6z"/>
<path class="st7" d="M203.9,425.8c5.2,11.6,23.4,12.3,29,20.5c-2.8,11.7-8.8,10-6.9,0.9C214.9,445.2,190.4,421.5,203.9,425.8z"/>
<path class="st7" d="M182.2,440.9c-13.4,18.3,32,42.5,4.4,43.4c10.6-13.9-11.7-13.7-11.5-31.9C173.1,430.2,190.5,426.5,182.2,440.9z
	"/>
<path class="st8" d="M239.2,419.6c-2.2,0.8-9.3-10-6.6-12.7"/>
<path class="st7" d="M117.4,458.3c-0.5,0.3-2.6,0-5.8,1.9c5.6,0,5-1.3-1.2,2.9c4.3-0.5,6.7-2.3-0.9,3.1c-0.3,0.3,4.6-2.5,7.2-0.8
	L117.4,458.3z"/>
<path class="st9" d="M202.2,445.3c-10.9-4.1-18-14-21.5-23.9"/>
<path class="st9" d="M175.6,460.8c-11.5-5-17.6-17.4-18-28.3"/>
<path class="st9" d="M138.4,458.6c-6-5.6-7-19.7-2.7-29.6"/>
<path class="st7" d="M129.2,413.3c-8.6,13.9-11.1,53.7-17.7,65.4c-3.3,0.2-15.4,0.9-4.7,3.8c33.1,8.2,4.3-117.1,53.3-32.5
	C182.8,461.6,139.9,392.5,129.2,413.3z"/>
<path class="st10" d="M215.2,367.8c24.5,4.3,1.4-25.6-2.8-3.8c-4-1.3-9.3-0.6-14.3,1.2C204.2,381.5,207.9,382.3,215.2,367.8z"/>
<path class="st11" d="M216,370.5c-2.3,3-11.5-8.3-2.5-9.4C215.8,362.6,219,365,216,370.5z"/>
<path class="st1" d="M214,379.3c-2.3,0.9-6,2.8-11.6,2"/>
<path class="st1" d="M215.1,376.6c-2.4,0.1-6.6,0.6-11.6-2"/>
<path class="st1" d="M217.2,374.7c-2.3-0.8-6.4-1.7-10.2-6"/>
<path class="st4" d="M228.1,375.7c4.7,10.8-9.3,18.6-14.5,6.3C209.1,371.7,224.1,366.7,228.1,375.7z"/>
<path d="M224.6,377.6C223.3,377.3,222.9,378,224.6,377.6C226.4,377.5,224.3,383.5,224.6,377.6z"/>
<path class="st12" d="M299.8,609c9.3-100.8,53.4-220.4,212.9-207c116.1,9.8,210.8,85.4,210.8,190.8c0,5.5-0.3,10.8-0.8,16.2
	L299.8,609L299.8,609z"/>
<path class="st13" d="M599.5,608.9c-13.2-126-65.8-220.2-390-168.2C47.4,489.6,0,457,0,588.7c0,6.8,0.4,13.6,1.1,20.2H599.5z"/>
<path class="st14" d="M863,418c0,0-73.2-59.1-49.2-68.9c24.1-9.8,39.7,12.9,39.7,12.9s13.3-32.1,30.9-24.9
	C902.1,344.3,863,418,863,418z"/>
<path class="st14" d="M922.7,439.2c0,0-30.7-38.7-17.2-40.9c13.5-2.2,18.8,11.2,18.8,11.2s10.5-14.9,18.7-9.2
	C951.2,406,922.7,439.2,922.7,439.2z"/>
</svg>
