<?xml version="1.0" encoding="utf-8"?>
<!-- Generator: Adobe Illustrator 23.0.1, SVG Export Plug-In . SVG Version: 6.00 Build 0)  -->
<svg version="1.1" id="Layer_1" xmlns="http://www.w3.org/2000/svg" xmlns:xlink="http://www.w3.org/1999/xlink" x="0px" y="0px"
	 viewBox="0 0 862 626" style="enable-background:new 0 0 862 626;" xml:space="preserve">
<style type="text/css">
	.st0{fill-rule:evenodd;clip-rule:evenodd;fill:#2FAC66;}
	.st1{fill-rule:evenodd;clip-rule:evenodd;fill:#1B8A4F;}
	.st2{fill:#DAD8CC;}
	.st3{fill:#6A6963;fill-opacity:0.61;}
	.st4{fill:#E30613;}
	.st5{fill:#814114;}
	.st6{fill:#DB7A1C;}
	.st7{fill:#F39200;}
	.st8{fill:#A85318;}
	.st9{fill:#FFFFFF;}
	.st10{fill:none;stroke:#000000;stroke-width:0.777;stroke-linecap:round;}
	.st11{fill:none;stroke:#DB7A1C;stroke-width:1.1;stroke-linecap:round;}
	.st12{fill:none;stroke:#000000;stroke-width:0.786;stroke-linecap:round;}
	.st13{fill:#0C0C0C;fill-opacity:0.31;}
	.st14{fill:none;stroke:#000000;stroke-width:0.736;stroke-linecap:round;}
	.st15{fill:none;stroke:#DB7A1C;stroke-width:1.042;stroke-linecap:round;}
	.st16{fill-rule:evenodd;clip-rule:evenodd;fill:#B780B1;}
	.st17{fill-rule:evenodd;clip-rule:evenodd;fill:#85557C;}
	.st18{fill:#FF0000;}
</style>
<g>
	<path class="st0" d="M577,517.9c0,0-294.3-15.5-433.8-15.5c-121.1,0-137,120-137,120l86.4-2l501.6-47.1L577,517.9z"/>
	<path class="st1" d="M110.2,551.9c0,0,114.6-29.4,253.9-33c139.3-3.6,200.8,5.4,200.8,5.4v96.7H9.9
		C13.9,589.3,29.5,573.4,110.2,551.9z"/>
	<path class="st2" d="M327,626c11.8-82.4,67.4-180.1,268.8-169.2c146.6,8,266.2,69.8,266.2,155.9c0,4.5-0.3,8.9-1,13.2L327,626
		L327,626z"/>
	<path class="st3" d="M813,569.7c1.1-0.1-0.6-0.4,0.7-0.2C813.6,569.7,813.4,569.8,813,569.7z"/>
	<path class="st3" d="M789.3,561.1c13.6-3.5-1.9-5-12-5.7l0.3-0.2c-2.3,0-5.7,1.2-11.6,2.2c-1.3-0.3-5.4,1.7-10.4,3.2
		c0.1-0.2,0.2-0.5-0.1-0.6c-0.5,0.8,0.3-0.2-4.5,2.8l0-0.1c-0.6,0.6,0.1,0.6-2.2,1.3c-0.9,0.3-2,0.5,2.4,1.1
		c-0.6,1.6,10.4,1.3,16.5,0.9c0.8,0.3,0.6,0.5,2.4-0.2c-0.3,0.7-0.5,0.4,2.4-0.2c-0.1,0.1-0.4,0.2-0.3,0.3c1-0.5,1.9,0,2.8-0.4
		l-0.3,0.3c1.5,0.3,0.4-0.7,1.7-0.5c-0.3,0.1-0.2,0.2-0.2,0.3c1.1-0.6,3.1-0.6,4.2-0.7l0,0.1c1.2,0.4,0.3-1,5.2,0.2
		c-0.1-0.6,2.3-0.4,1.5-1c1.2,0,3,0.1,3.7-0.2c-0.5,0.3,0.6,0.7-0.4,0.8l0.7,0.3c-0.3,0.1-1.2,1.3,4.8-1.6c-0.7,0.3,0.4,0.6,0,0.8
		c0.3,0.2,1.3-1.8,2.7-1.2c0.7-0.8,5.2,0.1,4.8-1c0.4-0.4,1.3-0.7,2.1-1c-0.3,0.2-0.2,0.3-0.3,0.5c0.1,0.6,2.1-3.2,1.4,0.4
		c-0.2,0.1,0.2,0.1-0.3,0.1c0.1,0.3,0.4-0.5,0.4-0.3c-0.8-0.6-3.3-0.1-4.4-1c0.6,0.6-2.5-0.6-2-0.4c-0.8,0-3.8-0.2-5.5-0.6
		c0,0.2-1.1,0.5-1.5,0.4l0.2-0.3c-0.4-0.2-1.3-0.1-1.4-0.4c-0.2,0.4,4.2,0,0.8,0.1c-0.8-0.1-1.6,0.3-2.4-0.1c0-0.7-1-0.5-2.5,0.1
		c0.4-0.6-1.2,0.5-1.4-0.9c-0.4-0.3-0.1,0.6-1.4,0.4c-0.5,1-0.2-0.2-7.4,0.1c0.2-0.1,0.4-0.1,0.5-0.2c-0.6-0.2-0.7,0-1.3,0.1
		c0.7,0.6-1.7-1.7-2.4,0.1c-0.7-0.7-2.3,0.4-3.2-0.3c0.4-0.6,1.1-1.1-2.2-0.4l0.3,0.6c-0.5-0.4-1.7,0.3-1.6-0.3
		c-0.4,0.2-1.4-0.2-1.3,0.3c0-0.1-7.3-1.1-5.9-0.7c-0.7,0.2-0.5,0.4-0.8-0.4c-1.3-0.4-1.4,0.9-3.1,0.7c0.3-0.9-2.2,1.1-2.1-0.9
		c-0.6-0.4-0.2,1-2.3-0.2c0.5,0.4-0.5,0.2-0.8,0.3l0.3-0.1c-0.1-0.2-0.8-0.1-1.1,0c0.1,0.2,0.8,0.3,1.2,0.4
		c-0.3,0.2-0.8,0.1-1.2,0.3c0.9-0.5-4.3,0-1.9-0.3c-0.3,0-0.9-0.6-1.9,0.3c0.3-0.1,0.3-0.3,0.5-0.4l-1-0.2l0,0.3
		c-0.6-0.5,0.3,0.8-3.3,0.3l0.1,0c-0.6-0.2-1.3,0-1.8,0.3l0-0.1c-0.5,1-2.8-1.4-3.5,0.6c-0.9-0.2-2.6,0.2-10.8,2.4
		c0.5-0.4,0-0.3-0.1-0.6c-0.2,0.5-1.3,0.5,0,0.9c-1.4,1.7-2.1-0.7-2.3-2c-0.1-0.2,0-0.2,0.2-0.3c-0.5,0.1,0.4,0.7,1.3,0.4
		c0.5,0.4,3.2,0.6,5.1,0.2c3.7,1.3,4.2-0.2,11.2,0l-0.1,0.2c0.7,0.2,0.4-0.4,0.9-0.2c-0.2,0.2,0.6,0.5,0,0.8
		c1.3,0.5-0.1-0.7,3.3-0.9c0.3,0.2,0,0.5-0.1,0.7c1.3-0.8-0.9,4.2,0.8,1c3-0.8-0.2-0.6,3.2-0.7c-0.7-0.8,1.3,0.2,1.2-0.9
		c-0.2-0.2,2.3-1,1.7,1c-0.2-0.4,1.4-0.5,0.8-1.1c0.4,0.1,0.5,0.5,0.2,0.7c0.6,0.3,1.6-0.7,1.8,0.2c0.8-0.9,0,0.3,2.9,0.3
		c0.1-0.1,1.8-0.6-0.4-0.8c0.5,0.4,0.5,0,2.8,0c0.2,0.8,0.7-0.7,1.7,0.7l-0.8,0.2c0.3,0.6,1.5-0.7,2.8-0.6c-0.8-0.5-1.1,1.9,1.1,0.3
		c0.4,0,1,0.3,0.6,0.5c1.4-0.3-0.1-1,2.6,0.6l-0.9,0.5l0.6,0.1c-0.8,0.4,0.3,0.4-0.1,0.8c0.4,0.1,0.9,0,1.2-0.1
		c-1.1-0.9,1.3-0.9,1-1.7c1.5,0,0.9,1.8,2.5,0.9c-0.2-0.2,0.5-0.7-0.4-0.6c0.9,0.2,0.7-0.6,1.8-0.2c-0.9,0.2,0.8,0.8-0.4,1.1
		c0.1-0.2-0.7-0.2-0.9-0.2c1.7,1.7,0.5,0.1,3.5,0c-0.1,0.2-1.8-0.9,0-0.8l-0.2,0.2c1.4,0.9,0.1-1.2,2.4,0.4
		c-0.1,0.4-3.3,0.4,0.2,0.4l-0.6,0.1c1.5,0.5,1.8,0.2,4.8,0c0.8,1.2,0.5,0.1-2.5,0.6c0.5,0.7-1.1-0.2-1.4,0.4
		c0.5-0.3,2.1,2.7,1.7,0.3c0.5,0.8,1.4-1.1,3,0.5c1.5,0,3.1,0.3,4.5,0.5c1.2-0.5-1.1-1.9,1.8-1c-1.4,0.1-0.3,0.8-0.6,1.2
		c1.4,0.5,7.9,0.3,10.4,1.3l-0.1,0.1c0.4-0.1,2.2,0.6,2.6-0.2l-0.4,0.6c0.2,0.1,0.4,0,0.6-0.1c0,0.2,0.3,0.4-0.1,0.5
		c0.7,0.5,1.6,0.1,2.4,0.1l-0.5-0.4c1.4-0.2,2.3,0.2,3.7,0.2l0,0.3l0.8-0.2c-0.2,0.3,0.5,0.6,1,0.3c-2.4,1.2-0.6-0.3-3.6,0
		c0.5,0.1,1.7-0.2-0.1,0.6c0.3,0,0.6,0.2,0.7,0c-0.5,0.2-1,0.2-1.8,0.2c0.6-0.2-0.3-0.3-0.1-0.5c-0.5,0.6-0.1-0.1-5,0.2
		c0.5-0.4,1.1-0.7,1.8-0.8c-3.2-0.6-6,1.7-10.5-0.5c-5.9,0.7-7.2-0.8-18.2-1.3l0.6-0.4c-0.6,0.3-0.4-0.3-1-0.3
		c-0.4,0.8-3.6,0.6-6.1,0.2c-6.7-0.9-23.2-0.8-34.7-0.7l0.3-0.7c-1-0.2-2.3,0.1-2,0.6c-2.3,0.9-14.4-2.2-6.6-7
		c-1.2,0.5,1,0.5,1.7-0.9c2.1-0.6,4.8-1.8,6.9-1.7c7.2-2.4,16.9-1.5,29.4-1.4l0,0.2c1.2,0,2.9-0.7,5.8,0.3c1.2-0.4,3.3,0.5,5.1,0
		l-0.4,0.1c1.7,0.4,3.3,0,5.1,0.3c-0.2,0.1-0.5,0.1-0.6,0.3c0.1,0,1.4,0.6,2.1-0.2c3.4,0.6,12.2-0.6,17.5,1.8
		c-0.2-0.5,0.4-0.2,0.5-0.5c1.8,0.6,2.2,1.1,3.7,1.1l-0.1,0.2c34.2,6.3-40.3,15.9-50.8,10.6c0.1-0.1,0.3-0.1,0.1-0.2
		c0.7,2.1-13.3-4.6,3.7-10.9c-0.9,0.5,0.7,0.7,1.1-0.6c13.4-3.2,26.2-7.2,42.1-0.3c-0.3-3.6,0.5,4.9,0.4,4.1
		c-3.2,2-6.1,1.5-12.7,2.6C785.3,563.2,786.9,562,789.3,561.1z"/>
	<path class="st3" d="M811.7,569.7c-0.2-0.3-1-0.5-0.4-0.8C811.4,569.2,811.8,569.5,811.7,569.7z"/>
	<path class="st3" d="M791.4,565.3c0,0.1-0.3-0.1-0.4-0.2c0.3,0,0.5-0.2,0.7,0C791.5,565.1,791.5,565.2,791.4,565.3z"/>
	<path class="st3" d="M786.2,564.6c0.1-0.2,1.2-0.3,1.9-0.2L786.2,564.6z"/>
	<path class="st3" d="M781.4,563.1c-0.4-0.2-0.3-0.3,0.3-0.3C781.7,563,781.5,563,781.4,563.1z"/>
	<path class="st3" d="M781,563.6c-0.4,0-0.6-0.2-0.8-0.3C780.2,563.5,781.2,563.2,781,563.6z"/>
	<path class="st3" d="M770.5,561.8c-0.3,0-0.8,0.1-1-0.2C769.7,561.8,770.7,561.4,770.5,561.8z"/>
	<path class="st3" d="M765.6,561.6C765.5,561.3,765.5,561.3,765.6,561.6C765.5,561.6,764.6,561.6,765.6,561.6z"/>
	<path class="st3" d="M770.4,559.1l-0.5,0.1C770,559,769.8,558.8,770.4,559.1z"/>
	<path class="st3" d="M805.9,560.7c-0.4,0.3-0.3-0.1-0.4-0.1C805.9,560.4,805.4,560.9,805.9,560.7z"/>
	<path class="st3" d="M785.3,564.6l0.2,0l0,0.5L785.3,564.6z"/>
	<path class="st4" d="M769.5,413.8c-10.9-9.5-25-50.2,1.9-22.4C803.6,366.3,774.2,412.2,769.5,413.8z"/>
	<path class="st4" d="M820.5,382c0,0-17.7-43.2-4.9-41.8c12.8,1.5,14.2,15.1,14.2,15.1s13.5-10.9,19.4-3.5
		C855.1,359.1,820.5,382,820.5,382z"/>
	<path class="st4" d="M768.9,335.1c0,0-48.3-39-32.4-45.5c15.9-6.5,26.2,8.5,26.2,8.5s8.8-21.2,20.4-16.5
		C794.7,286.5,768.9,335.1,768.9,335.1z"/>
	<path d="M682,382c-7.9-10.5,22.4-29.9,33.7-27.7C702.6,358,690.7,367.3,682,382z"/>
	<path d="M668.1,373.5c1.5-12.5,7.8-31.4,20.4-37.4c-6.8,8.1-15,26-15.6,39.8C670.9,374.9,668.1,376,668.1,373.5z"/>
	<path class="st5" d="M750.6,463.7c8.5,19.1,4.9,69.9,11.3,85.8c4.2,0.8,19.4,3.7,5.3,5.6c-43.6,4.1,14.6-148.9-62.2-50.3
		C674.3,515.7,740.6,435.5,750.6,463.7z"/>
	<path class="st5" d="M758,522.8c0.6,0.5,3.3,0.5,7,3.4c-3.6,0.1-8.2-3.2,1.1,3.9c-5.4-1.3-8.1-4,0.6,4.1c0.6,0.4-6.2-4-9-2.3
		L758,522.8z"/>
	<path class="st5" d="M789.5,508.8c12.4-1.8,24.6-5,34.6-13c-6,16-21.9,17.3-34.9,19.3c8.2,5.7,32.7,0.9,43.2-2.2
		C822.9,528.7,767.3,523.8,789.5,508.8z"/>
	<path class="st5" d="M622.3,431c35.3,6.2,25.7,52.4,46.4,75.8c51.6,54.8,134.3,15.5,122.1-3.4c-104.5-60.6-71.4-89.2-120.3-131.7
		C645.5,363.9,579.6,414.2,622.3,431z"/>
	<path class="st6" d="M679.2,438.2c37.4,102.9,128.7,78,114,66.5C685.3,432.4,708.1,386.4,679.2,438.2z"/>
	<path class="st7" d="M642.3,443.4c32.3-12.1,50.6-47.6,61.3-33.3C716.7,423.1,637.1,471.6,642.3,443.4z"/>
	<path class="st8" d="M761.3,467.6c12.1,19,14.9,75,24.6,89.5c5.1,0,20.3,1.3,6.1,5.1c-44.6,12.2-6.9-160-72.3-45.2
		C687,536.6,746.2,438.4,761.3,467.6z"/>
	<path class="st8" d="M659.8,468.5c-22.4,4.5-47-36.4-51.8-3.8c6.6,6.4,6.3-10.5,15.2-2.2C639.6,478,676.2,475.2,659.8,468.5z"/>
	<path class="st9" d="M661.9,382c-11.8,10.9,1.5,28.4,14.8,15.9C688,387.3,671.8,372.8,661.9,382z"/>
	<path class="st8" d="M678.2,497.3c-10.6,29.3-73-3.3-52.4,28.7c7.2-22.8,24.1,2.5,45-11.7C697.3,499.4,688,476.8,678.2,497.3z"/>
	<path class="st10" d="M623.9,430.8c2.3,2.5,17.5-8.2,15.3-12.3"/>
	<path d="M665.2,386.2C667.1,386.6,667.1,387.6,665.2,386.2C663,385.1,662.3,393.7,665.2,386.2z"/>
	<path class="st8" d="M777.6,529.2c0.7,0.4,3.6,0,7.9,2.7c-7.7-0.1-6.7-1.7,1.7,3.9c-5.9-0.6-9.2-3.1,1.3,4.3
		c0.4,0.4-6.4-3.4-9.9-1.1L777.6,529.2z"/>
	<path class="st11" d="M656.2,483.3c16,0.8,30.3-7.7,40.1-18.2"/>
	<path class="st11" d="M681.3,517.3c17.2,0.1,31.7-12.1,38.1-25.6"/>
	<path class="st11" d="M729.2,535.1c10.6-3.7,19.6-20.8,19.6-35.6"/>
	<path class="st10" d="M770.8,459c0,0,10.6,4.5,12.9,19.6"/>
	<path class="st10" d="M777,453.2c0,0,11.3,8.7,12.1,23.9"/>
	<path class="st10" d="M711.7,479.6c0,0,0.4-11.5,13.7-19"/>
	<path class="st10" d="M704,475.8c0,0,4.1-13.6,18-19.9"/>
	<path class="st12" d="M265.7,406.3c2.3-1,6.2-2.2,9.7-6.7"/>
	<path class="st12" d="M263,405.1c1.8-1.7,5.1-4.2,6.8-9.6"/>
	<path class="st12" d="M260.2,405.2c1.1-2.2,3.3-5.7,3.1-11.4"/>
	<path class="st13" d="M117,514.9c-1.2,0.1,0.6,0.3-0.8,0.1C116.4,514.9,116.6,514.8,117,514.9z"/>
	<path class="st13" d="M139.9,521.6c-14.3,3.3,6.2,3.7,15.7,4.3l-0.3,0.2c2.5,0,6.3-1,12.8-1.7c1.4,0.2,6-1.3,11.4-2.5
		c-0.1,0.2-0.2,0.4,0,0.5c0.5-0.6-0.3,0.2,5-2.3l-0.1,0.1c-0.1-0.3,3.8-2,2.3-1.2v0.1c-1,0-1.6-0.8-4.1-0.6
		c0.5-1.2-11.4-0.8-18.2-0.7c-0.9-0.2-0.7-0.4-2.6,0.2c0.4-0.5,0.5-0.3-2.7,0.1c0.2-0.1,0.4-0.1,0.4-0.3c-1.1,0.4-2.1,0-3,0.3
		l0.4-0.3c-1.6-0.2-0.4,0.5-1.8,0.4c0.3-0.1,0.2-0.2,0.3-0.3c-1.3,0.5-3.3,0.4-4.6,0.6l0-0.1c-1.3-0.3-0.2,0.8-5.7-0.3
		c0.1,0.5-2.5,0.3-1.6,0.8c-1.3,0-3.3-0.1-4.1,0.1c0.6-0.2-0.6-0.5,0.4-0.6l-0.8-0.2c0.4-0.1,1.3-1-5.3,1.2c0.7-0.2-0.5-0.5,0-0.6
		c-0.4-0.1-1.4,1.4-3,0.9c-1.2,0.7-5.4-0.1-5.2,0.9c-0.3,0.3-1.5,0.7-1.9,1c0.1-0.1,0-0.3,0.1-0.4c-0.7,0.6,0.4,0.1-0.3-0.3
		c-0.5,0.2,3.5-0.2,1.3,0.3c1.8,0.6,3.8,0.2,5.3,0.9c-0.7-0.4,2.8,0.4,2.2,0.3c0.9-0.1,4.2-0.1,6.1,0.3c0-0.1,1.2-0.4,1.6-0.3
		l-0.2,0.3c0.4,0.2,1.5,0.1,1.5,0.3c0.2-0.3-4.6,0-0.9-0.1c0.9,0.1,1.8-0.2,2.6,0.1c0.1,0.6,1.1,0.3,2.7-0.2
		c-0.4,0.4,1.2-0.4,1.5,0.7c0.5,0.2,0.1-0.5,1.5-0.3c1.5-0.9,3.9,0.5,8.2-0.1c-0.2,0-0.5,0.1-0.5,0.2c0.6,0.2,0.8,0,1.4,0
		c-0.8-0.4,1.8,1.3,2.6-0.1c0.8,0.6,2.5-0.3,3.5,0.2c-0.4,0.5-1.1,0.8,2.4,0.3l-0.3-0.5c0.6,0.3,1.9-0.2,1.8,0.2
		c0.4-0.2,1.5,0.2,1.4-0.3c0,0.1,8,0.7,6.5,0.4c0.8-0.2,0.5-0.3,0.9,0.3c1.5,0.3,1.5-0.7,3.4-0.6c1.5,0.4,1.9,0.1,4.9,0.7
		c-0.6-0.3,0.5-0.2,0.8-0.3l-0.3,0.1c0.1,0.1,0.9,0,1.2,0c-0.1-0.2-0.9-0.3-1.3-0.3c0.3-0.1,0.9-0.1,1.3-0.3c-1,0.4,4.7,0,2.1,0.2
		c0.3,0,1,0.5,2.1-0.3c-0.3,0.1-0.3,0.2-0.6,0.3c-0.3-0.3,0.7,0.5,1.1-0.1c0.6,0.4-0.3-0.6,3.7-0.1l-0.1,0c0.6,0.1,1.5,0,2-0.2
		l0,0.1c0.5-0.8,3,1.2,3.9-0.3c3.2,0.1,5.6-0.4,12-1c-0.6,0.2,0,0.3,0.1,0.4c0.2-0.4,1.3-0.3,0-0.7c0.5-0.2,1.5-0.6,1.2-0.4
		c0.2-0.1-1.2,1.5,1.1,2c-0.3,0-0.6-0.1-0.8-0.2c0.4,0.1,0.1,0.2-0.2,0.3c0.3-0.1-0.4-0.5-1.8-0.2c-0.7-0.3-1.3-0.4-5.7-0.2
		c-3.5-1.1-6.1,0.2-12.3-0.3l0.1-0.2c-0.8-0.2-0.4,0.3-1,0.2c0.3-0.2-0.6-0.4,0-0.6c-1.3-0.6-2.4,1.8-3.5,0.1
		c-1.5,0.6,1-3.2-0.9-0.8c-3.3,0.6,0.2,0.5-3.5,0.4c0.8,0.7-1.5-0.2-1.3,0.6c0.2,0.2-2.5,0.8-1.9-0.8c0.2,0.3-1.6,0.4-0.9,0.9
		c-0.5-0.1-0.5-0.4-0.2-0.6c-0.7-0.2-1.7,0.5-1.9-0.1c-0.9,0.7-0.1-0.3-3.1-0.2c-0.1,0.1-1.9,0.5,0.4,0.6c-0.5-0.3-0.6,0-3.1,0.1
		c-0.2-0.6-0.8,0.5-1.9-0.6l0.9-0.2c-0.3-0.5-1.7,0.5-3.1,0.4c0.9,0.4,1.2-1.5-1.1-0.2c-0.5,0-1.1-0.2-0.7-0.4
		c-1.6,0.2,0.1,0.7-2.9-0.5l1-0.3l-0.6,0c0.8-0.3-0.4-0.3,0.1-0.6c-0.4-0.1-0.9,0-1.3,0.1c1.2,0.7-1.4,0.7-1.1,1.3
		c-1.7,0-0.9-1.4-2.8-0.7c0.3,0.2-0.6,0.5,0.5,0.4c-1-0.1-0.8,0.5-2,0.2c0.9-0.1-0.9-0.6,0.4-0.9c-0.1,0.2,0.7,0.2,0.9,0.2
		c-1.9-1.1,0-0.4-3.9-0.1c0.4-0.1,1.9,0.8,0,0.6l0.2-0.2c-1.5-0.7-0.1,0.9-2.6-0.3c0.7-0.2,3.4-0.3-0.3-0.3l0.7-0.1
		c-1.7-0.4-2-0.2-5.3,0c-0.9-0.9-0.5,0,2.7-0.4c-0.5-0.6,1.2,0.2,1.6-0.3c-0.6,0.2-2.3-2.1-1.9-0.2c-1.1-0.7-0.5,0.9-3.2-0.4
		c-1.7,0-3.4-0.2-5-0.5c-1.3,0.4,1.2,1.5-1.9,0.7c1.5,0,0.3-0.6,0.6-0.9c-1.6-0.4-8.5-0.3-11.4-1.1l0.1-0.1
		c-0.4,0.1-2.4-0.5-2.9,0.1l0.4-0.4c-0.2-0.1-0.5,0-0.7,0.1c0-0.2-0.3-0.3,0.1-0.4c-0.8-0.4-1.7-0.1-2.6-0.1l0.6,0.3
		c-1.5,0.1-2.5-0.2-4-0.2l0.1-0.3l-0.9,0.1c0.2-0.3-0.6-0.5-1-0.3c2.5-0.9,0.7,0.2,3.9,0c-0.5-0.1-1.9,0.2,0.1-0.5
		c-0.3,0-0.7-0.1-0.7,0c0.6-0.2,1.1-0.2,2-0.1c-0.6,0.1,0.3,0.3,0.1,0.3c0.6-0.4,0.1,0.1,5.4-0.1c-0.6,0.3-1.2,0.5-2,0.6
		c3.4,0.5,6.5-1.3,11.5,0.5c5.2-0.5,11.6,0.9,20,1.2l-0.6,0.3c0.7-0.2,0.4,0.3,1.1,0.3c0.5-0.6,3.9-0.4,6.7-0.1
		c9.6,0.7,24.1,0.5,38.1,0.9l-0.4,0.5c1.1,0.2,2.5,0,2.2-0.4c-0.3,0.8,17-1.5,8.6,5.5c1.9-0.8-0.7-0.4-2.1,0.7
		c-2.4,0.1-5.4,1-7.6,0.7c-8.1,1.3-18.3,0.6-32,0.8l0.1-0.1c-1.3,0-3.2,0.6-6.4-0.2c-1.3,0.3-3.7-0.4-5.6,0l0.5,0
		c-1.9-0.3-3.6,0-5.6-0.3c0.2,0,0.6-0.1,0.6-0.2c-0.1,0-1.5-0.5-2.3,0.2c-3.7-0.5-13.3,0.7-19.1-1.3c0.3,0.4-0.5,0.2-0.5,0.4
		c-2-0.4-2.4-0.7-4-0.6l0.1-0.2c-40-5.6,40.6-12.8,52.4-8.7c-0.1,0.1-0.3,0.1-0.1,0.2c0.9-0.5,2.5,0,5.2,0.6
		c-0.6-3.8,0.8,5.2,0.7,4.3c-1,0.6-3.9,2.3-8.4,3.5c0.9-0.3-0.7-0.5-1.2,0.5c-14.3,2.6-30.8,5.5-47.4,0.3c0.3,2.7-0.4-3.7-0.4-3
		c3.4-1.3,6.6-1.6,12.4-2C144.1,519.9,142.6,520.8,139.9,521.6z"/>
	<path class="st13" d="M118.5,514.9c0.3,0.2,1.1,0.4,0.4,0.6C118.8,515.3,118.4,515,118.5,514.9z"/>
	<path class="st13" d="M140.7,518.5c0-0.1,0.3,0.1,0.4,0.1c-0.3,0-0.6,0.1-0.8,0C140.7,518.6,140.6,518.5,140.7,518.5z"/>
	<path class="st13" d="M146.5,519.1c-0.1,0.2-1.3,0.2-2.1,0.2L146.5,519.1z"/>
	<path class="st13" d="M151.7,520.3c0.4,0.2,0.3,0.3-0.3,0.2C151.4,520.4,151.6,520.3,151.7,520.3z"/>
	<path class="st13" d="M152.1,519.9c0.4,0,0.6,0.2,0.9,0.3C153,520,152,520.2,152.1,519.9z"/>
	<path class="st13" d="M163.7,521.4c0.3,0,0.9-0.1,1.1,0.1C164.5,521.4,163.4,521.6,163.7,521.4z"/>
	<path class="st13" d="M169.1,521.5C169.3,521.8,169.3,521.8,169.1,521.5C169.3,521.6,170,521.5,169.1,521.5z"/>
	<path class="st13" d="M164.9,523.2l0.6-0.1C165.4,523.3,165.6,523.3,164.9,523.2z"/>
	<path class="st13" d="M123.9,521.4c-0.6,0.6,0.1,0.3,0,0.5C123.8,521.8,123.4,522.1,123.9,521.4z"/>
	<path class="st13" d="M145.3,518.6l-0.2,0l0-0.4L145.3,518.6z"/>
	<path class="st5" d="M268.8,405.7c5.4,12.4-10.7,21.5-16.8,7.3C246.9,401,264.3,395.3,268.8,405.7z"/>
	<path class="st9" d="M267.2,406.5c4.4,10.1-8.7,17.4-13.6,5.9C249.5,402.8,263.6,398.1,267.2,406.5z"/>
	<path d="M263.4,408.5C262,408.2,261.7,408.9,263.4,408.5C265.2,408.4,263.1,414.4,263.4,408.5z"/>
	<path d="M232.4,408.2c6.5-7-13.8-23.6-22.2-22.8C219.5,389.1,227.4,396.8,232.4,408.2z"/>
	<path d="M242,403.6c-0.6-9.2,1.4-23.6,9.6-29.6c-3.8,6.7-7.2,20.7-5.8,30.7C244.2,404.3,242.3,405.4,242,403.6z"/>
	<path class="st5" d="M151.2,448.5c-5,13.5-5.1,44.8-6.8,60.2c0.6,5.2-19.7,4.3-2,7c26.8-6.7-12.5-106.4,42.1-37.1
		C206.8,486.5,158.5,427.9,151.2,448.5z"/>
	<path class="st5" d="M145.9,491.6c-0.3,0.3-2.7,0.5-5.1,2.5c2.6-0.2,4.6-1.3-0.8,2.8c3.9-1,5.9-2.9-0.5,3c-0.5,0.3,4.5-3,6.5-1.6
		L145.9,491.6z"/>
	<path class="st5" d="M116.8,461.4c-7.8-4.8-14.9-10.5-19.3-18.9c-0.7,12.5,9.6,18,17.7,23.1c-7.2,1.4-22.1-9-28.2-14.1
		C88.6,464.8,127.1,478,116.8,461.4z"/>
	<path class="st5" d="M251.2,458.2c-23.6-5.3-29.7,20.5-47.9,34.1c-29.4,19.3-75.9,4.7-88.7-29.1c-1-4.6,1.7-6.3,8.4-6.9
		c64.1-5.7,67.2-28.6,111-53.2C270.7,387.9,278.2,461.2,251.2,458.2z"/>
	<path class="st6" d="M211.1,446.4c-54.9,57.9-108.6,14.8-95.5,11.2C208.3,440.7,207.1,403.3,211.1,446.4z"/>
	<path class="st7" d="M234.2,460.6c-11.2-10.1-17.5-34.2-27.9-41.5C186.9,420.5,228.9,481.8,234.2,460.6z"/>
	<path class="st8" d="M214.9,463.8c5.2,11.6,23.4,12.3,29,20.5c-2.8,11.7-8.8,10-6.9,0.9C225.9,483.2,201.4,459.5,214.9,463.8z"/>
	<path class="st8" d="M193.2,478.9c-13.4,18.3,32,42.5,4.4,43.4c10.6-13.9-11.7-13.7-11.5-31.9C184.1,468.2,201.5,464.5,193.2,478.9
		z"/>
	<path class="st14" d="M250.2,457.6c-2.2,0.8-9.3-10-6.6-12.7"/>
	<path class="st8" d="M128.4,496.3c-0.5,0.3-2.6,0-5.8,1.9c5.6,0,5-1.3-1.2,2.9c4.3-0.5,6.7-2.3-0.9,3.1c-0.3,0.3,4.6-2.5,7.2-0.8
		L128.4,496.3z"/>
	<path class="st15" d="M213.2,483.3c-10.9-4.1-18-14-21.5-23.9"/>
	<path class="st15" d="M186.6,498.8c-11.5-5-17.6-17.4-18-28.3"/>
	<path class="st15" d="M149.4,496.6c-6-5.6-7-19.7-2.7-29.6"/>
	<path class="st8" d="M140.2,451.3c-8.6,13.9-11.1,53.7-17.7,65.4c-3.3,0.2-15.4,0.9-4.7,3.8c33.1,8.2,4.3-117.1,53.3-32.5
		C193.8,499.6,150.9,430.5,140.2,451.3z"/>
	<path class="st16" d="M226.2,405.8c24.5,4.3,1.4-25.6-2.8-3.8c-4-1.3-9.3-0.6-14.3,1.2C215.2,419.5,218.9,420.3,226.2,405.8z"/>
	<path class="st17" d="M227,408.5c-2.3,3-11.5-8.3-2.5-9.4C226.8,400.6,230,403,227,408.5z"/>
	<path class="st12" d="M225,417.3c-2.3,0.9-6,2.8-11.6,2"/>
	<path class="st12" d="M226.1,414.6c-2.4,0.1-6.6,0.6-11.6-2"/>
	<path class="st12" d="M228.2,412.7c-2.3-0.8-6.4-1.7-10.2-6"/>
	<path class="st9" d="M239.1,413.7c4.7,10.8-9.3,18.6-14.5,6.3C220.1,409.7,235.1,404.7,239.1,413.7z"/>
	<path d="M235.6,415.6C234.3,415.3,233.9,416,235.6,415.6C237.4,415.5,235.3,421.5,235.6,415.6z"/>
	<path class="st18" d="M496.8,371.7c0,0,9.1,14.8,16.6,21.4c8.6,7.6,32.7,13.2,32.7,13.2s-31-19.7-32-34.6c-0.4-6.2,1.5-6,1.5-6
		L496.8,371.7z"/>
	<path class="st18" d="M358,339c-0.7-26.8,10.2-40.5,47.3-41.8c41.5-1.5,97.1-4.3,141.1,0.6c33.7,3.7,36.9,72-4.1,75.8
		c-44.5,4.2-101.3,7.2-154.6-0.5C361.5,369.3,358.4,354.4,358,339z"/>
	<path class="st9" d="M410.7,353.7c-0.5-0.8-0.9-1.4-1.2-2c-0.3-0.6-0.7-1.2-1-1.9c-0.1-0.1-0.2-0.2-0.3-0.4
		c-0.1-0.2-0.3-0.3-0.4-0.5c-0.1-0.2-0.2-0.3-0.3-0.5c-0.1-0.2-0.1-0.3,0-0.4c-0.3-0.5-0.7-1-1-1.5c-0.3-0.5-0.6-1-0.9-1.5h-0.1
		c0,0-0.1,0-0.1,0c-0.2-0.1-0.3,0.1-0.3,0.3c0,0.3,0.1,0.8,0.1,1.5c0,0.7,0.1,1.5,0.1,2.3c0,0.8,0.1,1.6,0.1,2.3
		c0,0.7,0.1,1.3,0.1,1.5l0,0.1c-0.1,0.1-0.1,0.2-0.2,0.3c-0.1,0.1-0.2,0.2-0.2,0.2l-4.3,0.3c-0.2,0-0.5-0.1-0.6-0.3
		c-0.2-0.2-0.3-0.5-0.3-0.6c0,0,0-0.1,0-0.1c0,0,0-0.1,0-0.1v-0.1c0,0,0-0.1,0-0.2c0-0.1,0.1-0.3,0.1-0.4c0-0.1,0.1-0.3,0.1-0.4
		c0-0.1,0-0.2,0-0.2c0-0.1,0-0.3-0.1-0.6c0-0.3-0.1-0.6-0.1-0.9c0-0.3-0.1-0.6-0.1-0.9c0-0.3,0-0.5,0-0.6v-1c0-0.6,0-1.1,0-1.7
		c0-0.6,0-1.2,0-1.7c0-0.5,0-0.9,0-1s0-0.4,0-0.8c0-0.4-0.1-0.8-0.1-1.2c0-0.4-0.1-0.8-0.1-1.2c0-0.4,0-0.6,0-0.8c0-0.1,0-0.2,0-0.4
		v-0.4c0.1-2.4,0.1-4.8,0-7.2c-0.1-2.4-0.1-4.8-0.2-7.1c0-0.1,0-0.2,0-0.5c0-0.2,0-0.5-0.1-0.7c0-0.2-0.1-0.5-0.1-0.7
		c0-0.2,0-0.4,0-0.5c0.1-0.2,0.1-0.3,0.2-0.3c0.1,0,0.2,0,0.3,0c1.1-0.1,2.2-0.1,3.3-0.2c1.1,0,2,0.1,3,0.3c0.9,0.2,1.8,0.6,2.5,1.2
		c0.8,0.6,1.4,1.4,1.9,2.4c0.4,0.7,0.7,1.4,1.1,2.1c0.4,0.7,0.6,1.4,0.6,2.2c0.1,1.7-0.2,3.2-0.9,4.7c-0.7,1.4-1.6,2.7-2.9,3.9
		c-0.1,0.1-0.2,0.3-0.2,0.5c0.1,0.2,0.2,0.5,0.3,0.7c0.2,0.2,0.2,0.5,0.2,0.7l1.7,3.4v0.1l1.7,2.8c0,0,0.1,0.3,0.4,0.7
		c0.2,0.4,0.5,0.9,0.8,1.5c0.3,0.6,0.6,1.1,0.8,1.6c0.2,0.6,0.4,1,0.4,1.2c0,0.2-0.1,0.5-0.3,0.8c-0.2,0.3-0.5,0.6-0.8,0.8
		c-0.3,0.2-0.6,0.5-1,0.6c-0.3,0.2-0.6,0.3-0.9,0.3C411.1,354,410.8,353.9,410.7,353.7z M403.7,333.8c0.1,0.1,0.2,0.2,0.3,0.3
		c0.1,0.1,0.2,0.1,0.4,0.2c0.5-0.1,1-0.3,1.4-0.6c0.3-0.3,0.6-0.8,0.8-1.2c0.2-0.5,0.3-0.9,0.4-1.4c0.1-0.5,0.1-0.9,0.1-1.3
		c0-0.3-0.1-0.6-0.2-1c-0.1-0.4-0.3-0.8-0.5-1.2c-0.2-0.4-0.4-0.7-0.7-0.9c-0.3-0.2-0.6-0.3-1.1-0.3c-0.3,0-0.5,0.2-0.6,0.5
		c-0.2,0.3-0.3,0.6-0.3,1c-0.1,0.4-0.1,0.7-0.1,1.1v0.7c0,0,0,0.1,0,0.3c0,0.2,0,0.4,0,0.6c0,0.2,0,0.5,0,0.7c0,0.2,0,0.4,0.1,0.6
		c0,0.1,0,0.2,0,0.4c0,0.2,0,0.4,0,0.6c0,0.2,0,0.5,0,0.6C403.7,333.6,403.7,333.7,403.7,333.8z"/>
	<path class="st9" d="M417.6,350.9c0-0.1,0-0.1,0-0.2c0-0.1,0-0.1,0-0.2c0-0.4,0.1-0.8,0.1-1.3c0.1-0.5,0.2-0.9,0.3-1.3
		c0.1-0.2,0.2-0.3,0.4-0.4c0.2-0.1,0.4-0.2,0.6-0.2c0.2-0.1,0.4-0.2,0.6-0.2c0.2-0.1,0.3-0.2,0.5-0.4c0,0,0.1,0,0.1-0.1
		c0-0.1,0-0.2,0-0.2c0-0.1,0-0.2,0-0.3c0-0.2,0-0.4,0-0.6c0-0.2,0-0.4,0-0.6v-0.4c-0.1-2.3-0.1-4.5-0.1-6.7s0-4.5-0.2-6.7
		c0-0.1,0-0.2,0-0.3c0-0.2-0.1-0.3-0.1-0.6c0-0.2,0-0.4,0-0.5c0-0.2,0-0.3,0-0.4c-0.1-0.2-0.2-0.4-0.4-0.5c-0.2-0.1-0.4-0.1-0.7-0.2
		c-0.2,0-0.5-0.1-0.7-0.2c-0.2-0.1-0.3-0.4-0.3-0.7c0,0,0-0.1,0-0.1c0,0,0-0.1,0-0.1v-0.9c0-0.4,0-0.8,0-1.3c0-0.5,0-0.9,0-1.3v-0.8
		c0.1-0.2,0.1-0.5,0.2-0.8c0.1-0.3,0.2-0.5,0.5-0.6l0.1,0.1h0.1c0.4,0.1,1,0.1,1.7,0.1c0.8,0,1.5,0,2.3,0c0.8,0,1.5,0.1,2.2,0.3
		c0.7,0.2,1.2,0.4,1.4,0.8c0.1,0.2,0.2,0.4,0.2,0.8s0,0.6,0,0.8c0.1,1.2,0,2-0.1,2.5c-0.2,0.5-0.3,0.8-0.5,1
		c-0.2,0.2-0.4,0.3-0.6,0.3c-0.2,0.1-0.4,0.3-0.4,0.7c-0.2,1.2-0.3,2.3-0.3,3.5c0,1.2,0,2.3,0,3.5c0,1.2,0.1,2.3,0.2,3.5
		c0.1,1.2,0.2,2.3,0.2,3.5v0.4v0.8c0,0.3,0,0.5,0,0.8c0,0.2,0,0.4,0,0.4v0.3c0,0.3,0.2,0.6,0.4,0.7c0.2,0.1,0.5,0.2,0.8,0.3
		c0.3,0.1,0.5,0.2,0.8,0.4c0.2,0.2,0.4,0.4,0.4,0.9c0,0.2,0,0.5,0,0.9c0,0.4,0,0.8-0.1,1.1c-0.1,0.4-0.2,0.7-0.3,1
		c-0.2,0.3-0.4,0.5-0.7,0.5c-0.5,0.1-1.2,0.1-1.9,0.1c-0.7-0.1-1.3-0.1-1.9,0c-0.1,0-0.3,0-0.6,0.1c-0.3,0-0.7,0.1-1,0.1
		c-0.3,0-0.7,0.1-1,0.1c-0.3,0-0.5,0-0.6,0c-0.4,0-0.8-0.1-1.1-0.2C417.9,351.7,417.7,351.4,417.6,350.9z"/>
	<path class="st9" d="M385.7,349.4c0-0.1,0-0.2-0.1-0.4c-0.1-0.2-0.2-0.4-0.2-0.6c-0.1-0.2-0.2-0.5-0.3-0.7
		c-0.1-0.2-0.2-0.4-0.2-0.5v-1.5v-1.4c0-0.2,0-0.5,0-1.1c0-0.6,0-1.2,0-1.8c0-0.6,0-1.3,0-1.8c0-0.6,0-0.9,0-1.1v-2.6
		c0-0.2,0.1-0.5,0.1-1c0-0.4,0-0.9,0.1-1.3c0-0.5,0.1-0.9,0.1-1.3c0-0.4,0-0.6,0.1-0.8c0-0.1,0-0.2,0-0.5c0-0.3,0.1-0.5,0.1-0.6
		c0.1-0.5,0.1-1,0.2-1.5c0-0.5,0.1-1,0.2-1.5c0.2-0.4,0.4-1,0.8-1.6c0.4-0.6,0.8-1.2,1.3-1.7c0.5-0.6,1.1-1,1.7-1.4
		c0.6-0.4,1.2-0.6,1.9-0.6c0.5,0,0.9,0,1.2,0c0.3,0,0.5,0.1,0.7,0.2c0.2,0.1,0.4,0.2,0.6,0.4c0.2,0.2,0.4,0.4,0.6,0.8
		c0,0.1,0,0.1,0.1,0.2l0.1,0.1v3.8l-0.3,0.2c-1.2,0.1-2.3,0.3-3,0.8c-0.7,0.5-1.2,1.2-1.5,2.2c0,0.2-0.1,0.6-0.1,1.1
		c0,0.5-0.1,1.1-0.2,1.6c-0.1,0.6-0.1,1.1-0.2,1.6c-0.1,0.5-0.1,0.9-0.1,1.1v1.6c0,1.1,0,2.1,0,3c0,0.9,0.1,1.9,0.1,3.1
		c0.1,0.8,0.2,1.5,0.5,2c0.3,0.5,0.6,0.9,1,1.2c0.4,0.3,0.8,0.5,1.2,0.7c0.4,0.2,0.9,0.3,1.2,0.4c0.4,0.1,0.7,0.2,1,0.3
		c0.3,0.1,0.5,0.3,0.5,0.5v1.1c0,0.2,0,0.5,0,0.8c0,0.3,0,0.6,0,1c0,0.3-0.1,0.6-0.3,0.9c-0.1,0.2-0.4,0.4-0.8,0.5H393
		c-1.7,0-3.1-0.3-4.4-0.9C387.3,351.8,386.3,350.8,385.7,349.4z"/>
	<path class="st9" d="M467.7,353.7c-0.5-0.8-0.9-1.4-1.2-2c-0.3-0.6-0.7-1.2-1-1.9c-0.1-0.1-0.2-0.2-0.3-0.4
		c-0.1-0.2-0.3-0.3-0.4-0.5c-0.1-0.2-0.2-0.3-0.3-0.5c-0.1-0.2-0.1-0.3,0-0.4c-0.3-0.5-0.7-1-1-1.5c-0.3-0.5-0.6-1-0.9-1.5h-0.1
		c0,0-0.1,0-0.1,0c-0.2-0.1-0.3,0.1-0.3,0.3c0,0.3,0.1,0.8,0.1,1.5c0,0.7,0.1,1.5,0.1,2.3c0,0.8,0.1,1.6,0.1,2.3
		c0,0.7,0.1,1.3,0.1,1.5l0,0.1c-0.1,0.1-0.1,0.2-0.2,0.3c-0.1,0.1-0.2,0.2-0.2,0.2l-4.3,0.3c-0.2,0-0.5-0.1-0.6-0.3
		c-0.2-0.2-0.3-0.5-0.3-0.6c0,0,0-0.1,0-0.1c0,0,0-0.1,0-0.1v-0.1c0,0,0-0.1,0-0.2c0-0.1,0.1-0.3,0.1-0.4c0-0.1,0.1-0.3,0.1-0.4
		c0-0.1,0-0.2,0-0.2c0-0.1,0-0.3-0.1-0.6c0-0.3-0.1-0.6-0.1-0.9c0-0.3-0.1-0.6-0.1-0.9c0-0.3,0-0.5,0-0.6v-1c0-0.6,0-1.1,0-1.7
		c0-0.6,0-1.2,0-1.7c0-0.5,0-0.9,0-1s0-0.4,0-0.8c0-0.4-0.1-0.8-0.1-1.2c0-0.4-0.1-0.8-0.1-1.2c0-0.4,0-0.6,0-0.8c0-0.1,0-0.2,0-0.4
		v-0.4c0.1-2.4,0.1-4.8,0-7.2c-0.1-2.4-0.1-4.8-0.2-7.1c0-0.1,0-0.2,0-0.5c0-0.2,0-0.5-0.1-0.7c0-0.2-0.1-0.5-0.1-0.7
		c0-0.2,0-0.4,0-0.5c0.1-0.2,0.1-0.3,0.2-0.3c0.1,0,0.2,0,0.3,0c1.1-0.1,2.2-0.1,3.3-0.2c1.1,0,2,0.1,3,0.3c0.9,0.2,1.8,0.6,2.5,1.2
		c0.8,0.6,1.4,1.4,1.9,2.4c0.4,0.7,0.7,1.4,1.1,2.1c0.4,0.7,0.6,1.4,0.6,2.2c0.1,1.7-0.2,3.2-0.9,4.7c-0.7,1.4-1.6,2.7-2.9,3.9
		c-0.1,0.1-0.2,0.3-0.2,0.5c0.1,0.2,0.2,0.5,0.3,0.7c0.2,0.2,0.2,0.5,0.2,0.7l1.7,3.4v0.1l1.7,2.8c0,0,0.1,0.3,0.4,0.7
		c0.2,0.4,0.5,0.9,0.8,1.5c0.3,0.6,0.6,1.1,0.8,1.6c0.2,0.6,0.4,1,0.4,1.2c0,0.2-0.1,0.5-0.3,0.8c-0.2,0.3-0.5,0.6-0.8,0.8
		c-0.3,0.2-0.6,0.5-1,0.6c-0.3,0.2-0.6,0.3-0.9,0.3C468.1,354,467.8,353.9,467.7,353.7z M460.7,333.8c0.1,0.1,0.2,0.2,0.3,0.3
		c0.1,0.1,0.2,0.1,0.4,0.2c0.5-0.1,1-0.3,1.4-0.6c0.3-0.3,0.6-0.8,0.8-1.2c0.2-0.5,0.3-0.9,0.4-1.4c0.1-0.5,0.1-0.9,0.1-1.3
		c0-0.3-0.1-0.6-0.2-1c-0.1-0.4-0.3-0.8-0.5-1.2c-0.2-0.4-0.4-0.7-0.7-0.9c-0.3-0.2-0.6-0.3-1.1-0.3c-0.3,0-0.5,0.2-0.6,0.5
		c-0.2,0.3-0.3,0.6-0.3,1c-0.1,0.4-0.1,0.7-0.1,1.1v0.7c0,0,0,0.1,0,0.3c0,0.2,0,0.4,0,0.6c0,0.2,0,0.5,0,0.7c0,0.2,0,0.4,0.1,0.6
		c0,0.1,0,0.2,0,0.4c0,0.2,0,0.4,0,0.6c0,0.2,0,0.5,0,0.6C460.7,333.6,460.7,333.7,460.7,333.8z"/>
	<path class="st9" d="M474.6,350.9c0-0.1,0-0.1,0-0.2c0-0.1,0-0.1,0-0.2c0-0.4,0.1-0.8,0.1-1.3c0.1-0.5,0.2-0.9,0.3-1.3
		c0.1-0.2,0.2-0.3,0.4-0.4c0.2-0.1,0.4-0.2,0.6-0.2c0.2-0.1,0.4-0.2,0.6-0.2c0.2-0.1,0.3-0.2,0.5-0.4c0,0,0.1,0,0.1-0.1
		c0-0.1,0-0.2,0-0.2c0-0.1,0-0.2,0-0.3c0-0.2,0-0.4,0-0.6c0-0.2,0-0.4,0-0.6v-0.4c-0.1-2.3-0.1-4.5-0.1-6.7s0-4.5-0.2-6.7
		c0-0.1,0-0.2,0-0.3c0-0.2-0.1-0.3-0.1-0.6c0-0.2,0-0.4,0-0.5c0-0.2,0-0.3,0-0.4c-0.1-0.2-0.2-0.4-0.4-0.5c-0.2-0.1-0.4-0.1-0.7-0.2
		c-0.2,0-0.5-0.1-0.7-0.2c-0.2-0.1-0.3-0.4-0.3-0.7c0,0,0-0.1,0-0.1c0,0,0-0.1,0-0.1v-0.9c0-0.4,0-0.8,0-1.3c0-0.5,0-0.9,0-1.3v-0.8
		c0.1-0.2,0.1-0.5,0.2-0.8c0.1-0.3,0.2-0.5,0.5-0.6l0.1,0.1h0.1c0.4,0.1,1,0.1,1.7,0.1c0.8,0,1.5,0,2.3,0c0.8,0,1.5,0.1,2.2,0.3
		c0.7,0.2,1.2,0.4,1.4,0.8c0.1,0.2,0.2,0.4,0.2,0.8s0,0.6,0,0.8c0.1,1.2,0,2-0.1,2.5c-0.2,0.5-0.3,0.8-0.5,1
		c-0.2,0.2-0.4,0.3-0.6,0.3c-0.2,0.1-0.4,0.3-0.4,0.7c-0.2,1.2-0.3,2.3-0.3,3.5c0,1.2,0,2.3,0,3.5c0,1.2,0.1,2.3,0.2,3.5
		c0.1,1.2,0.2,2.3,0.2,3.5v0.4v0.8c0,0.3,0,0.5,0,0.8c0,0.2,0,0.4,0,0.4v0.3c0,0.3,0.2,0.6,0.4,0.7c0.2,0.1,0.5,0.2,0.8,0.3
		c0.3,0.1,0.5,0.2,0.8,0.4c0.2,0.2,0.4,0.4,0.4,0.9c0,0.2,0,0.5,0,0.9c0,0.4,0,0.8-0.1,1.1c-0.1,0.4-0.2,0.7-0.3,1
		c-0.2,0.3-0.4,0.5-0.7,0.5c-0.5,0.1-1.2,0.1-1.9,0.1c-0.7-0.1-1.3-0.1-1.9,0c-0.1,0-0.3,0-0.6,0.1c-0.3,0-0.7,0.1-1,0.1
		c-0.3,0-0.7,0.1-1,0.1c-0.3,0-0.5,0-0.6,0c-0.4,0-0.8-0.1-1.1-0.2C474.9,351.7,474.7,351.4,474.6,350.9z"/>
	<path class="st9" d="M442.7,349.4c0-0.1,0-0.2-0.1-0.4c-0.1-0.2-0.2-0.4-0.2-0.6c-0.1-0.2-0.2-0.5-0.3-0.7
		c-0.1-0.2-0.2-0.4-0.2-0.5v-1.5v-1.4c0-0.2,0-0.5,0-1.1c0-0.6,0-1.2,0-1.8c0-0.6,0-1.3,0-1.8c0-0.6,0-0.9,0-1.1v-2.6
		c0-0.2,0.1-0.5,0.1-1c0-0.4,0-0.9,0.1-1.3c0-0.5,0.1-0.9,0.1-1.3c0-0.4,0-0.6,0.1-0.8c0-0.1,0-0.2,0-0.5c0-0.3,0.1-0.5,0.1-0.6
		c0.1-0.5,0.1-1,0.2-1.5c0-0.5,0.1-1,0.2-1.5c0.2-0.4,0.4-1,0.8-1.6c0.4-0.6,0.8-1.2,1.3-1.7c0.5-0.6,1.1-1,1.7-1.4
		c0.6-0.4,1.2-0.6,1.9-0.6c0.5,0,0.9,0,1.2,0c0.3,0,0.5,0.1,0.7,0.2c0.2,0.1,0.4,0.2,0.6,0.4c0.2,0.2,0.4,0.4,0.6,0.8
		c0,0.1,0,0.1,0.1,0.2l0.1,0.1v3.8l-0.3,0.2c-1.2,0.1-2.3,0.3-3,0.8c-0.7,0.5-1.2,1.2-1.5,2.2c0,0.2-0.1,0.6-0.1,1.1
		c0,0.5-0.1,1.1-0.2,1.6c-0.1,0.6-0.1,1.1-0.2,1.6c-0.1,0.5-0.1,0.9-0.1,1.1v1.6c0,1.1,0,2.1,0,3c0,0.9,0.1,1.9,0.1,3.1
		c0.1,0.8,0.2,1.5,0.5,2c0.3,0.5,0.6,0.9,1,1.2c0.4,0.3,0.8,0.5,1.2,0.7c0.4,0.2,0.9,0.3,1.2,0.4c0.4,0.1,0.7,0.2,1,0.3
		c0.3,0.1,0.5,0.3,0.5,0.5v1.1c0,0.2,0,0.5,0,0.8c0,0.3,0,0.6,0,1c0,0.3-0.1,0.6-0.3,0.9c-0.1,0.2-0.4,0.4-0.8,0.5H450
		c-1.7,0-3.1-0.3-4.4-0.9C444.3,351.8,443.3,350.8,442.7,349.4z"/>
	<path class="st9" d="M524.7,353.7c-0.5-0.8-0.9-1.4-1.2-2c-0.3-0.6-0.7-1.2-1-1.9c-0.1-0.1-0.2-0.2-0.3-0.4
		c-0.1-0.2-0.3-0.3-0.4-0.5c-0.1-0.2-0.2-0.3-0.3-0.5c-0.1-0.2-0.1-0.3,0-0.4c-0.3-0.5-0.7-1-1-1.5c-0.3-0.5-0.6-1-0.9-1.5h-0.1
		c0,0-0.1,0-0.1,0c-0.2-0.1-0.3,0.1-0.3,0.3c0,0.3,0.1,0.8,0.1,1.5c0,0.7,0.1,1.5,0.1,2.3c0,0.8,0.1,1.6,0.1,2.3
		c0,0.7,0.1,1.3,0.1,1.5l0,0.1c-0.1,0.1-0.1,0.2-0.2,0.3c-0.1,0.1-0.2,0.2-0.2,0.2l-4.3,0.3c-0.2,0-0.5-0.1-0.6-0.3
		c-0.2-0.2-0.3-0.5-0.3-0.6c0,0,0-0.1,0-0.1c0,0,0-0.1,0-0.1v-0.1c0,0,0-0.1,0-0.2c0-0.1,0.1-0.3,0.1-0.4s0.1-0.3,0.1-0.4
		c0-0.1,0-0.2,0-0.2c0-0.1,0-0.3-0.1-0.6c0-0.3-0.1-0.6-0.1-0.9c0-0.3-0.1-0.6-0.1-0.9c0-0.3,0-0.5,0-0.6v-1c0-0.6,0-1.1,0-1.7
		c0-0.6,0-1.2,0-1.7c0-0.5,0-0.9,0-1s0-0.4,0-0.8c0-0.4-0.1-0.8-0.1-1.2c0-0.4-0.1-0.8-0.1-1.2c0-0.4,0-0.6,0-0.8c0-0.1,0-0.2,0-0.4
		v-0.4c0.1-2.4,0.1-4.8,0-7.2c-0.1-2.4-0.1-4.8-0.2-7.1c0-0.1,0-0.2,0-0.5c0-0.2,0-0.5-0.1-0.7c0-0.2-0.1-0.5-0.1-0.7
		c0-0.2,0-0.4,0-0.5c0.1-0.2,0.1-0.3,0.2-0.3c0.1,0,0.2,0,0.3,0c1.1-0.1,2.2-0.1,3.3-0.2c1.1,0,2,0.1,3,0.3s1.8,0.6,2.5,1.2
		c0.8,0.6,1.4,1.4,1.9,2.4c0.4,0.7,0.7,1.4,1.1,2.1c0.4,0.7,0.6,1.4,0.6,2.2c0.1,1.7-0.2,3.2-0.9,4.7c-0.7,1.4-1.6,2.7-2.9,3.9
		c-0.1,0.1-0.2,0.3-0.2,0.5c0.1,0.2,0.2,0.5,0.3,0.7c0.2,0.2,0.2,0.5,0.2,0.7l1.7,3.4v0.1l1.7,2.8c0,0,0.1,0.3,0.4,0.7
		c0.2,0.4,0.5,0.9,0.8,1.5c0.3,0.6,0.6,1.1,0.8,1.6c0.2,0.6,0.4,1,0.4,1.2c0,0.2-0.1,0.5-0.3,0.8s-0.5,0.6-0.8,0.8
		c-0.3,0.2-0.6,0.5-1,0.6c-0.3,0.2-0.6,0.3-0.9,0.3C525.1,354,524.8,353.9,524.7,353.7z M517.7,333.8c0.1,0.1,0.2,0.2,0.3,0.3
		c0.1,0.1,0.2,0.1,0.4,0.2c0.5-0.1,1-0.3,1.4-0.6c0.3-0.3,0.6-0.8,0.8-1.2c0.2-0.5,0.3-0.9,0.4-1.4c0.1-0.5,0.1-0.9,0.1-1.3
		c0-0.3-0.1-0.6-0.2-1c-0.1-0.4-0.3-0.8-0.5-1.2c-0.2-0.4-0.4-0.7-0.7-0.9c-0.3-0.2-0.6-0.3-1.1-0.3c-0.3,0-0.5,0.2-0.6,0.5
		c-0.2,0.3-0.3,0.6-0.3,1c-0.1,0.4-0.1,0.7-0.1,1.1v0.7c0,0,0,0.1,0,0.3c0,0.2,0,0.4,0,0.6c0,0.2,0,0.5,0,0.7c0,0.2,0,0.4,0.1,0.6
		c0,0.1,0,0.2,0,0.4c0,0.2,0,0.4,0,0.6c0,0.2,0,0.5,0,0.6C517.7,333.6,517.7,333.7,517.7,333.8z"/>
	<path class="st9" d="M531.6,350.9c0-0.1,0-0.1,0-0.2c0-0.1,0-0.1,0-0.2c0-0.4,0.1-0.8,0.1-1.3c0.1-0.5,0.2-0.9,0.3-1.3
		c0.1-0.2,0.2-0.3,0.4-0.4c0.2-0.1,0.4-0.2,0.6-0.2c0.2-0.1,0.4-0.2,0.6-0.2c0.2-0.1,0.3-0.2,0.5-0.4c0,0,0.1,0,0.1-0.1
		c0-0.1,0-0.2,0-0.2c0-0.1,0-0.2,0-0.3c0-0.2,0-0.4,0-0.6c0-0.2,0-0.4,0-0.6v-0.4c-0.1-2.3-0.1-4.5-0.1-6.7s0-4.5-0.2-6.7
		c0-0.1,0-0.2,0-0.3c0-0.2-0.1-0.3-0.1-0.6c0-0.2,0-0.4,0-0.5c0-0.2,0-0.3,0-0.4c-0.1-0.2-0.2-0.4-0.4-0.5s-0.4-0.1-0.7-0.2
		c-0.2,0-0.5-0.1-0.7-0.2c-0.2-0.1-0.3-0.4-0.3-0.7c0,0,0-0.1,0-0.1c0,0,0-0.1,0-0.1v-0.9c0-0.4,0-0.8,0-1.3c0-0.5,0-0.9,0-1.3v-0.8
		c0.1-0.2,0.1-0.5,0.2-0.8c0.1-0.3,0.2-0.5,0.5-0.6l0.1,0.1h0.1c0.4,0.1,1,0.1,1.7,0.1c0.8,0,1.5,0,2.3,0c0.8,0,1.5,0.1,2.2,0.3
		c0.7,0.2,1.2,0.4,1.4,0.8c0.1,0.2,0.2,0.4,0.2,0.8s0,0.6,0,0.8c0.1,1.2,0,2-0.1,2.5c-0.2,0.5-0.3,0.8-0.5,1
		c-0.2,0.2-0.4,0.3-0.6,0.3c-0.2,0.1-0.4,0.3-0.4,0.7c-0.2,1.2-0.3,2.3-0.3,3.5c0,1.2,0,2.3,0,3.5c0,1.2,0.1,2.3,0.2,3.5
		c0.1,1.2,0.2,2.3,0.2,3.5v0.4v0.8c0,0.3,0,0.5,0,0.8s0,0.4,0,0.4v0.3c0,0.3,0.2,0.6,0.4,0.7c0.2,0.1,0.5,0.2,0.8,0.3
		c0.3,0.1,0.5,0.2,0.8,0.4c0.2,0.2,0.4,0.4,0.4,0.9c0,0.2,0,0.5,0,0.9c0,0.4,0,0.8-0.1,1.1c-0.1,0.4-0.2,0.7-0.3,1
		c-0.2,0.3-0.4,0.5-0.7,0.5c-0.5,0.1-1.2,0.1-1.9,0.1c-0.7-0.1-1.3-0.1-1.9,0c-0.1,0-0.3,0-0.6,0.1c-0.3,0-0.7,0.1-1,0.1
		c-0.3,0-0.7,0.1-1,0.1c-0.3,0-0.5,0-0.6,0c-0.4,0-0.8-0.1-1.1-0.2C531.9,351.7,531.7,351.4,531.6,350.9z"/>
	<path class="st9" d="M499.7,349.4c0-0.1,0-0.2-0.1-0.4c-0.1-0.2-0.2-0.4-0.2-0.6c-0.1-0.2-0.2-0.5-0.3-0.7
		c-0.1-0.2-0.2-0.4-0.2-0.5v-1.5v-1.4c0-0.2,0-0.5,0-1.1c0-0.6,0-1.2,0-1.8c0-0.6,0-1.3,0-1.8c0-0.6,0-0.9,0-1.1v-2.6
		c0-0.2,0.1-0.5,0.1-1c0-0.4,0-0.9,0.1-1.3c0-0.5,0.1-0.9,0.1-1.3c0-0.4,0-0.6,0.1-0.8c0-0.1,0-0.2,0-0.5c0-0.3,0.1-0.5,0.1-0.6
		c0.1-0.5,0.1-1,0.2-1.5c0-0.5,0.1-1,0.2-1.5c0.2-0.4,0.4-1,0.8-1.6c0.4-0.6,0.8-1.2,1.3-1.7c0.5-0.6,1.1-1,1.7-1.4
		c0.6-0.4,1.2-0.6,1.9-0.6c0.5,0,0.9,0,1.2,0c0.3,0,0.5,0.1,0.7,0.2c0.2,0.1,0.4,0.2,0.6,0.4c0.2,0.2,0.4,0.4,0.6,0.8
		c0,0.1,0,0.1,0.1,0.2l0.1,0.1v3.8l-0.3,0.2c-1.2,0.1-2.3,0.3-3,0.8c-0.7,0.5-1.2,1.2-1.5,2.2c0,0.2-0.1,0.6-0.1,1.1
		c0,0.5-0.1,1.1-0.2,1.6c-0.1,0.6-0.1,1.1-0.2,1.6c-0.1,0.5-0.1,0.9-0.1,1.1v1.6c0,1.1,0,2.1,0,3c0,0.9,0.1,1.9,0.1,3.1
		c0.1,0.8,0.2,1.5,0.5,2c0.3,0.5,0.6,0.9,1,1.2c0.4,0.3,0.8,0.5,1.2,0.7c0.4,0.2,0.9,0.3,1.2,0.4c0.4,0.1,0.7,0.2,1,0.3
		c0.3,0.1,0.5,0.3,0.5,0.5v1.1c0,0.2,0,0.5,0,0.8c0,0.3,0,0.6,0,1c0,0.3-0.1,0.6-0.3,0.9c-0.1,0.2-0.4,0.4-0.8,0.5H507
		c-1.7,0-3.1-0.3-4.4-0.9C501.3,351.8,500.3,350.8,499.7,349.4z"/>
</g>
</svg>
