<svg width="931" height="617" viewBox="0 0 931 617" fill="none" xmlns="http://www.w3.org/2000/svg">
<path d="M2 192L929 192" stroke="#231F20" stroke-width="3" stroke-linecap="round" stroke-linejoin="round" stroke-dasharray="6 6"/>
<path d="M2 432L929 432" stroke="#231F20" stroke-width="3" stroke-linecap="round" stroke-linejoin="round" stroke-dasharray="6 6"/>
<path d="M708.448 252.643C794.928 252.643 813.519 252.643 900 252.643V376.1H684.089L678.553 280.324L708.448 252.643Z" fill="#D2D1C2"/>
<ellipse cx="794.814" cy="267.037" rx="17.7158" ry="17.7157" transform="rotate(90 794.814 267.037)" fill="#0DBEBE"/>
<ellipse cx="795.366" cy="258.733" rx="12.7332" ry="12.7332" transform="rotate(90 795.366 258.733)" fill="#00A5A5"/>
<path d="M708.448 280.878L678 280.878L708.448 252.643L708.448 280.878Z" fill="#C4C4C4"/>
<path d="M714 354.6H867" stroke="#231F20" stroke-width="3" stroke-linecap="round" stroke-linejoin="round" stroke-dasharray="6 6"/>
<path d="M151.145 17.621C151.145 25.0395 145.312 31.0584 138.148 31.0584C130.974 31.0584 125.146 25.0395 125.146 17.621C125.146 10.1961 130.974 4.18799 138.148 4.18799C145.312 4.18799 151.145 10.1961 151.145 17.621Z" fill="#7DC327"/>
<path d="M115.561 22.2834C116.464 30.6766 109.564 36.1219 102.189 36.1219C94.8061 36.1219 89.4239 30.5235 88.8072 22.2856C88.2358 14.6644 94.8298 9.14152 102.189 8.45359C110.034 7.72253 114.722 14.6924 115.561 22.2834Z" fill="#7DC327"/>
<path d="M127.812 78.1763C127.812 78.1763 140.914 103.134 146.122 106.86C150.337 109.884 152.168 108.314 152.168 108.314C152.168 108.314 164.329 104.231 162.585 106.988C160.838 109.754 152.808 111.428 152.808 111.428C152.808 111.428 167.238 112.118 165.283 113.904C163.342 115.672 151.359 115.87 151.359 115.87C151.359 115.87 166.576 119.953 163.021 120.761C158.055 121.889 145.218 119.89 143.405 117.033C141.589 114.169 127.394 94.0441 123.51 89.58C119.651 85.1203 127.812 78.1763 127.812 78.1763Z" fill="#7DC327"/>
<mask id="mask0" mask-type="alpha" maskUnits="userSpaceOnUse" x="122" y="78" width="44" height="44">
<path d="M127.812 78.1764C127.812 78.1764 140.914 103.134 146.122 106.86C150.337 109.884 152.168 108.314 152.168 108.314C152.168 108.314 164.329 104.232 162.585 106.988C160.838 109.754 152.808 111.428 152.808 111.428C152.808 111.428 167.238 112.118 165.283 113.904C163.342 115.672 151.359 115.87 151.359 115.87C151.359 115.87 166.576 119.953 163.021 120.761C158.055 121.889 145.218 119.89 143.405 117.033C141.589 114.169 127.394 94.0441 123.51 89.5801C119.651 85.1204 127.812 78.1764 127.812 78.1764Z" fill="#7DC327"/>
</mask>
<g mask="url(#mask0)">
<path d="M151.192 104.794C151.192 104.794 152.775 109.718 152.809 111.428C152.839 112.847 151.453 116.271 150.914 117.585C150.437 118.739 149.277 121.497 149.277 121.497C149.277 121.497 151.545 126.017 152.639 126.286C153.732 126.56 159.474 129.172 163.573 127.457C167.675 125.739 174.234 123.282 175.328 118.085C176.423 112.888 172.867 103.591 172.867 103.591L160.292 102.478L151.192 104.794Z" fill="#FF0000"/>
</g>
<path d="M148.479 17.621C148.479 23.5191 143.84 28.3045 138.148 28.3045C132.44 28.3045 127.808 23.5191 127.808 17.621C127.808 11.7186 132.438 6.93973 138.148 6.93973C143.838 6.93973 148.479 11.7186 148.479 17.621Z" fill="white"/>
<path d="M107.907 14.341C134.108 10.5196 179.779 36.096 179.652 50.0704C179.462 70.1671 142.742 69.4317 142.742 69.4317C142.742 69.4317 129.291 79.3949 123.512 89.5801C105.63 110.382 60.2825 131.372 43.6314 128.73C32.7074 126.998 30.3527 118.504 35.2088 86.1771C40.2244 52.8264 78.8743 38.8047 78.8743 38.8047C78.8743 38.8047 84.0516 17.8216 107.907 14.341Z" fill="#7DC327"/>
<path d="M112.525 22.2791C113.219 28.7595 107.889 32.9647 102.194 32.9647C96.4904 32.9647 92.333 28.643 91.8543 22.2791C91.4166 16.3939 96.5076 12.1283 102.194 11.5978C108.255 11.0285 111.871 16.4155 112.525 22.2791Z" fill="white"/>
<path d="M104.134 22.2942C104.272 23.5191 103.254 24.3127 102.163 24.3127C101.085 24.3127 100.3 23.5018 100.203 22.2942C100.132 21.1793 101.089 20.3619 102.163 20.2649C103.33 20.1592 104.017 21.1857 104.134 22.2942Z" fill="black"/>
<path d="M142.257 15.5809C142.385 16.6743 141.488 17.386 140.511 17.386C139.558 17.386 138.848 16.6527 138.771 15.5809C138.697 14.5868 139.564 13.86 140.511 13.7759C141.537 13.681 142.156 14.5868 142.257 15.5809Z" fill="black"/>
<path d="M142.742 69.4316C142.742 69.4316 131.618 70.1886 114.134 60.3656C80.0213 110.345 46.5983 119.338 43.6291 128.732C43.2754 129.845 86.7684 123.168 111.991 101.467C122.438 92.4741 142.742 69.4316 142.742 69.4316Z" fill="#FFE610"/>
<path d="M168.809 50.4132C168.809 51.0709 168.274 51.6122 167.599 51.6122C166.926 51.6122 166.385 51.0709 166.385 50.4132C166.385 49.7382 166.926 49.2055 167.599 49.2055C168.272 49.2077 168.809 49.7403 168.809 50.4132Z" fill="black"/>
<path d="M175.871 48.4508C175.871 49.2142 175.252 49.8374 174.489 49.8374C173.717 49.8374 173.098 49.2163 173.098 48.4508C173.098 47.6874 173.715 47.0728 174.489 47.0728C175.252 47.0749 175.871 47.6895 175.871 48.4508Z" fill="black"/>
<path d="M114.193 85.1161C114.193 85.1161 123.427 113.888 127.789 118.577C131.317 122.385 133.419 121.214 133.419 121.214C133.419 121.214 146.157 119.64 143.895 121.993C141.626 124.356 133.419 124.384 133.419 124.384C133.419 124.384 147.427 127.938 145.163 129.299C142.905 130.651 131.112 128.452 131.112 128.452C131.112 128.452 145.216 135.495 141.561 135.566C136.49 135.689 124.307 131.16 123.101 128.005C121.887 124.829 108.68 97.3048 105.773 92.1528C102.206 86.1771 114.193 85.1161 114.193 85.1161Z" fill="#7DC327"/>
<mask id="mask1" mask-type="alpha" maskUnits="userSpaceOnUse" x="105" y="85" width="41" height="51">
<path d="M114.193 85.1161C114.193 85.1161 123.427 113.888 127.789 118.577C131.317 122.385 133.419 121.214 133.419 121.214C133.419 121.214 146.157 119.64 143.895 121.993C141.626 124.356 133.419 124.384 133.419 124.384C133.419 124.384 147.427 127.938 145.163 129.299C142.905 130.651 131.112 128.452 131.112 128.452C131.112 128.452 145.216 135.495 141.561 135.566C136.49 135.689 124.307 131.16 123.101 128.005C121.887 124.829 108.68 97.3048 105.773 92.1528C102.206 86.1771 114.193 85.1161 114.193 85.1161Z" fill="#7DC327"/>
</mask>
<g mask="url(#mask1)">
<path d="M132.311 115.855C132.311 115.855 133.032 120.981 132.771 122.67C132.555 124.072 130.606 127.214 129.851 128.411C129.18 129.467 127.568 131.982 127.568 131.982C127.568 131.982 129.032 136.825 130.058 137.28C131.091 137.74 136.303 141.294 140.635 140.3C144.967 139.31 151.852 138.011 153.816 133.075C155.781 128.143 153.868 118.376 153.868 118.376L141.666 115.133L132.311 115.855Z" fill="#FF0000"/>
</g>
<path d="M161.294 105.594C161.294 106.744 162.23 107.68 163.379 107.68C164.533 107.68 165.467 106.744 165.467 105.594C165.467 104.441 164.533 103.505 163.379 103.505C162.23 103.505 161.294 104.441 161.294 105.594Z" fill="#FD0706"/>
<path d="M163.999 113.615C163.999 114.768 164.933 115.7 166.084 115.7C167.236 115.7 168.174 114.768 168.174 113.615C168.174 112.465 167.236 111.529 166.084 111.529C164.933 111.529 163.999 112.463 163.999 113.615Z" fill="#FD0706"/>
<path d="M161.916 120.707C161.916 121.857 162.847 122.793 163.999 122.793C165.15 122.793 166.086 121.857 166.086 120.707C166.086 119.554 165.15 118.622 163.999 118.622C162.847 118.622 161.916 119.554 161.916 120.707Z" fill="#FD0706"/>
<path d="M142.513 121.085C142.513 122.234 143.445 123.166 144.596 123.166C145.748 123.166 146.684 122.234 146.684 121.085C146.684 119.931 145.748 118.995 144.596 118.995C143.445 118.995 142.513 119.931 142.513 121.085Z" fill="#FD0706"/>
<path d="M143.328 128.734C143.328 129.883 144.259 130.815 145.411 130.815C146.562 130.815 147.498 129.883 147.498 128.734C147.498 127.58 146.562 126.644 145.411 126.644C144.259 126.644 143.328 127.58 143.328 128.734Z" fill="#FD0706"/>
<path d="M139.597 135.171C139.597 136.321 140.531 137.257 141.68 137.257C142.832 137.257 143.768 136.321 143.768 135.171C143.768 134.017 142.832 133.082 141.68 133.082C140.529 133.082 139.597 134.017 139.597 135.171Z" fill="#FD0706"/>
<path d="M142.742 68.7696C112.873 68.7696 112.873 54.2777 112.873 54.2777" stroke="black" stroke-width="0.665" stroke-linecap="round"/>
<path d="M60.0476 103.505C69.6001 98.9675 89.9579 85.4267 97.8091 95.9139C105.647 106.401 83.4609 132.204 83.4609 132.204C83.4609 132.204 120.519 132.616 118.415 135.094C116.328 137.574 99.9524 135.961 99.9524 135.961C99.9524 135.961 119.89 139.691 119.349 141.949C118.809 144.216 98.926 139.223 98.926 139.223C98.926 139.223 114.706 148.039 113.039 149.79C111.387 151.544 97.3325 144.934 86.1218 141.13C74.9197 137.321 67.4524 142.553 68.2265 137.727C69.0179 132.905 81.8501 119.439 81.8501 119.439C81.8501 119.439 62.0378 130.858 52.2546 130.811C28.1362 130.709 51.2649 107.68 60.0476 103.505Z" fill="#96CE17"/>
<mask id="mask2" mask-type="alpha" maskUnits="userSpaceOnUse" x="41" y="92" width="79" height="59">
<path d="M60.0476 103.505C69.6001 98.9675 89.9579 85.4267 97.8091 95.9139C105.647 106.401 83.4609 132.204 83.4609 132.204C83.4609 132.204 120.519 132.616 118.415 135.094C116.328 137.574 99.9524 135.961 99.9524 135.961C99.9524 135.961 119.89 139.691 119.349 141.949C118.809 144.216 98.926 139.223 98.926 139.223C98.926 139.223 114.706 148.039 113.039 149.79C111.387 151.544 97.3325 144.934 86.1218 141.13C74.9197 137.321 67.4524 142.553 68.2265 137.727C69.0178 132.905 81.8501 119.439 81.8501 119.439C81.8501 119.439 62.0378 130.858 52.2546 130.811C28.1361 130.709 51.2649 107.68 60.0476 103.505Z" fill="#96CE17"/>
</mask>
<g mask="url(#mask2)">
<path d="M100.35 129.758C100.35 129.758 100.607 134.386 99.9494 135.963C98.7871 138.734 97.7133 140.938 96.8615 142.066C96.1111 143.068 94.2977 145.443 94.2977 145.443C94.2977 145.443 95.3543 150.388 96.344 150.927C97.3381 151.466 102.233 155.438 106.634 154.807C111.035 154.175 118.004 153.446 120.368 148.691C122.731 143.935 121.631 134.046 121.631 134.046L109.735 129.808L100.35 129.758Z" fill="#FF0000"/>
</g>
<path d="M116.191 134.91C116.094 136.06 116.952 137.063 118.095 137.16C119.247 137.257 120.251 136.401 120.346 135.255C120.441 134.106 119.589 133.099 118.44 133.002C117.293 132.909 116.284 133.759 116.191 134.91Z" fill="#FD0706"/>
<path d="M116.796 141.35C116.703 142.499 117.559 143.506 118.707 143.599C119.849 143.696 120.859 142.84 120.956 141.695C121.051 140.545 120.197 139.538 119.047 139.441C117.902 139.348 116.895 140.2 116.796 141.35Z" fill="#FD0706"/>
<path d="M110.797 149.564C110.704 150.709 111.556 151.716 112.703 151.809C113.854 151.906 114.857 151.05 114.954 149.905C115.047 148.755 114.195 147.748 113.046 147.655C111.901 147.558 110.892 148.412 110.797 149.564Z" fill="#FD0706"/>
<path d="M58.1617 93.7077C57.4911 91.4973 55.158 90.2465 52.9478 90.9107C50.7418 91.5814 49.4869 93.9148 50.1553 96.1209C50.8216 98.3313 53.1548 99.5821 55.365 98.9136C57.5752 98.2494 58.8259 95.916 58.1617 93.7077Z" fill="#FF0000"/>
<path d="M43.3185 100.402C42.9346 99.1335 41.5956 98.4176 40.3276 98.8014C39.064 99.1853 38.3481 100.52 38.732 101.788C39.1158 103.052 40.4463 103.768 41.7142 103.384C42.9799 103.005 43.698 101.67 43.3185 100.402Z" fill="#FF0000"/>
<path d="M72.2711 82.0064C71.9757 81.0381 70.9536 80.4882 69.9876 80.7815C69.0194 81.0769 68.4673 82.0948 68.7671 83.0674C69.0539 84.0314 70.076 84.5791 71.0463 84.288C72.0145 83.9947 72.5579 82.9768 72.2711 82.0064Z" fill="#FF0000"/>
<path d="M50.1592 105.679C49.8681 104.71 48.846 104.163 47.8757 104.458C46.9075 104.749 46.3598 105.771 46.6552 106.742C46.9506 107.706 47.9684 108.253 48.9344 107.962C49.9048 107.667 50.4525 106.647 50.1592 105.679Z" fill="#FF0000"/>
<path d="M40.9392 89.496C41.4826 91.2816 43.3608 92.293 45.1462 91.7496C46.9273 91.2147 47.9343 89.3278 47.3996 87.5465C46.8605 85.7695 44.9737 84.7538 43.1969 85.2972C41.4115 85.832 40.4045 87.7147 40.9392 89.496Z" fill="#FF0000"/>
<path d="M60.2395 72.261C60.412 74.1156 62.0551 75.4828 63.9074 75.306C65.7596 75.1356 67.1246 73.488 66.9521 71.6334C66.7839 69.7831 65.1365 68.4202 63.2842 68.5927C61.4319 68.7631 60.067 70.4085 60.2395 72.261Z" fill="#FF0000"/>
<path d="M46.4083 76.6021C46.6153 78.8298 48.5862 80.4709 50.8137 80.2617C53.0412 80.0525 54.6757 78.0815 54.4686 75.8495C54.2616 73.6326 52.2865 71.9914 50.059 72.2006C47.8358 72.4076 46.1992 74.383 46.4083 76.6021Z" fill="#FF0000"/>
<path d="M62.1024 83.9731C61.7186 82.705 60.3795 81.9891 59.1159 82.3686C57.848 82.7525 57.1321 84.0917 57.5159 85.3598C57.8954 86.6235 59.2345 87.3394 60.5024 86.9556C61.7639 86.5696 62.4798 85.2368 62.1024 83.9731Z" fill="#FF0000"/>
<path d="M98.2097 364.361C99.4288 372.471 96.9376 382.56 96.0365 390.759C95.8952 392.031 97.8917 392.031 98.033 390.759C98.9518 382.401 101.655 372.1 100.136 363.831C99.9059 362.559 98.033 363.142 98.2097 364.361Z" fill="#FBBA00"/>
<path d="M100.313 380.44C101.179 381.977 102.062 383.514 102.963 385.034C103.582 386.094 105.684 389.045 105.826 389.487C106.108 390.352 105.79 391.766 104.589 390.971C103.723 390.388 103.158 389.186 102.628 388.32C101.232 386.059 99.9066 383.762 98.5991 381.429C97.9631 380.334 99.6769 379.327 100.313 380.44Z" fill="#FBBA00"/>
<path d="M99.2865 379.733C103.368 380.952 104.569 381.536 108.456 383.356C109.552 383.868 109.075 385.776 107.962 385.246C104.075 383.409 102.891 382.843 98.8094 381.624C97.6433 381.271 98.138 379.38 99.2865 379.733Z" fill="#FBBA00"/>
<path d="M116.904 362.665C117.222 368.672 117.01 374.627 116.338 380.599C116.197 381.871 114.236 381.465 114.377 380.193C115.031 374.397 115.208 368.619 114.907 362.789C114.837 361.499 116.833 361.375 116.904 362.665Z" fill="#FBBA00"/>
<path d="M116.425 378.496C118.051 379.044 124.323 380.458 125.189 380.988C126.496 381.765 126.408 383.302 125.224 383.143C123.828 382.967 123.104 382.649 121.796 382.295C119.764 381.748 117.768 381.058 115.771 380.387C114.57 379.963 115.206 378.072 116.425 378.496Z" fill="#FBBA00"/>
<path d="M116.408 379.345C117.804 381.465 122.592 386.094 123.087 386.766C123.14 386.836 123.21 386.889 123.263 386.978C123.899 387.95 122.61 388.974 121.761 388.268C119.005 386.024 116.691 383.409 114.729 380.44C114.023 379.362 115.701 378.284 116.408 379.345Z" fill="#FBBA00"/>
<path d="M116.108 380.864C116.143 382.331 115.86 388.267 115.631 390.017C115.472 391.289 113.475 391.236 113.634 389.946C113.881 387.949 113.775 381.359 114.747 379.398C115.313 378.249 116.337 379.398 116.108 380.864Z" fill="#FBBA00"/>
<path d="M176.11 260.891C170.244 268.895 165.845 270.626 169.573 281.299C162.647 286.635 164.908 308.88 162.788 317.414C159.59 328.617 155.862 341.409 146.798 349.413C145.19 351.003 133.476 360.085 132.399 359.537C128.123 359.007 128.671 347.275 128.123 344.077C127.063 330.754 128.653 317.414 127.593 304.074C126.515 287.536 103.405 268.877 129.112 252.816C128.936 246.791 123.865 240.96 116.727 237.391C126.232 237.267 133.37 243.063 138.247 248.681C135.049 236.949 124.907 230.465 113.705 226.206C126.497 224.068 141.445 233.68 147.841 244.865C140.915 224.598 121.179 220.34 107.309 207C122.239 215.534 137.699 219.792 148.901 233.133C154.237 238.999 156.375 246.455 162.77 251.261C165.438 253.399 178.054 259.884 176.463 261.474" fill="#E30613"/>
<path d="M118.158 264.177C114.748 270.786 109.465 294.71 106.779 299.622C96.1077 319.888 75.842 330.542 61.4599 347.611C73.1917 354.537 80.6655 360.403 95.0652 363.601C105.737 365.739 116.391 364.662 127.063 361.994C147.858 357.188 159.06 321.461 149.996 302.802C147.328 297.466 141.462 295.328 138.264 290.54C135.066 285.751 135.066 279.337 131.869 274.549C129.519 270.821 118.706 263.135 118.158 264.177Z" fill="#F0EEDF"/>
<path d="M131.85 274.567C129.517 270.839 118.704 263.135 118.157 264.177L131.85 274.567Z" fill="white"/>
<path d="M71.8666 353.954C78.7396 358.071 85.2946 361.463 95.0476 363.619C105.719 365.757 116.373 364.679 127.045 362.011C130.985 361.11 134.572 359.096 137.734 356.304" stroke="#DAD8CC" stroke-width="0.251" stroke-linecap="round"/>
<path d="M118.158 264.177C116.444 267.481 114.271 275.114 112.186 282.535" stroke="#DAD8CC" stroke-width="0.251" stroke-linecap="round"/>
<path d="M111.231 285.097C119.235 288.296 119.571 311.354 117.981 319.358C114.253 332.15 99.5173 339.889 88.9163 345.897C78.8276 351.622 69.4633 355.085 58.2616 358.813C42.8017 364.679 22.536 367.347 5.99838 367.347C15.5923 360.951 26.7941 356.675 35.858 349.219C44.9219 341.215 79.0396 310.824 87.5735 302.29C95.5949 293.755 101.637 290.434 111.231 285.097Z" fill="#C4C0B4"/>
<path d="M176.11 259.619C184.997 265.184 192.259 268.542 202.383 275.468C188.513 277.606 181.87 280.945 168 283.066C166.94 276.139 169.732 255.661 176.11 259.619Z" fill="#FBBA00"/>
<path d="M151.322 256.827C156.039 255.484 163.654 260.626 161.746 267.252C159.856 273.895 151.605 275.892 147.983 269.619C143.724 262.216 148.212 257.71 151.322 256.827Z" fill="white"/>
<path d="M156.797 266.351C154.73 266.351 154.73 263.152 156.797 263.152C158.864 263.152 158.864 266.351 156.797 266.351Z" fill="black"/>
<path d="M118.422 264.354C116.39 268.276 113.722 276.298 111.319 284.85" stroke="#DAD8CC" stroke-width="0.261" stroke-linecap="round"/>
<path d="M107.416 311.389C105.49 314.605 103.918 316.266 100.596 318.368" stroke="#DAD8CC" stroke-width="0.9" stroke-linecap="round"/>
<path d="M88.5449 322.662C85.7356 325.736 83.9688 326.885 80.5588 328.758" stroke="#DAD8CC" stroke-width="0.9" stroke-linecap="round"/>
<path d="M107.238 297.466C105.224 300.699 103.828 303.42 100.613 305.841" stroke="#DAD8CC" stroke-width="0.9" stroke-linecap="round"/>
<path d="M72.4492 324.853C70.0287 327.804 68.2971 329.588 64.7988 331.567" stroke="#DAD8CC" stroke-width="0.9" stroke-linecap="round"/>
<path d="M99.4648 328.21C97.0442 331.161 94.0405 334.288 90.5245 336.267" stroke="#DAD8CC" stroke-width="0.9" stroke-linecap="round"/>
<path d="M90.5254 310.894C88.5112 314.128 87.1154 315.011 84.5711 316.937" stroke="#DAD8CC" stroke-width="0.9" stroke-linecap="round"/>
<path d="M60.4883 352.223C56.9369 353.601 55.2938 353.477 52.0958 353.495" stroke="#DAD8CC" stroke-width="0.9" stroke-linecap="round"/>
<path d="M69.9746 337.981C67.077 340.455 65.8402 341.25 62.0238 342.575" stroke="#DAD8CC" stroke-width="0.9" stroke-linecap="round"/>
<path d="M80.5586 341.533C77.5196 344.042 74.9577 345.385 69.6749 346.533" stroke="#DAD8CC" stroke-width="0.9" stroke-linecap="round"/>
<path d="M43.084 355.085C39.1616 356.604 37.1298 357.346 33.5962 357.983" stroke="#DAD8CC" stroke-width="0.9" stroke-linecap="round"/>
<path d="M54.6934 341.533C51.6014 344.395 49.9936 345.826 46.937 347.717" stroke="#DAD8CC" stroke-width="0.9" stroke-linecap="round"/>
<path d="M179.207 501.734C178.74 500.746 174.987 493.7 167.409 488.973C163.225 486.367 157.91 485.863 153.528 488.2C149.614 490.285 149.398 496.054 149.003 499.865C147.441 515.214 152.361 531.391 153.798 546.417C153.905 547.513 152.199 547.621 152.11 546.543C151.104 536.01 147.872 523.644 147.082 513.04C146.615 506.641 145.645 494.706 150.063 489.296C154.731 483.545 162.166 484.246 168.163 487.445C172.761 489.889 179.261 496.863 180.823 501.914C180.931 502.291 180.805 502.669 180.5 502.902C180.392 502.992 179.872 503.136 179.207 501.734Z" fill="#E30613"/>
<path d="M198.69 540.989C198.277 528.749 178.291 499.919 164.535 513.615C159.543 518.575 157.568 527.419 157.999 534.195C158.178 537.124 159.471 545.051 158.071 547.819C157.568 548.789 156.042 548.034 156.544 547.064C157.891 544.44 156.401 535.83 156.221 533.026C155.988 529.252 156.886 525.567 158.053 522.008C159.741 516.886 163.296 509.93 169.24 508.834C176.998 507.396 182.151 511.009 187.395 516.383C193.213 522.35 200.109 532.289 200.414 540.881C200.432 541.959 198.744 542.085 198.69 540.989Z" fill="#E30613"/>
<path d="M152.774 488.38C154.947 489.656 156.437 491.094 157.515 494.437C159.041 499.29 153.887 504.394 149.775 504.322C143.616 504.232 139.108 499.631 140.635 493.017C142.161 486.492 149.47 486.438 152.774 488.38Z" fill="black"/>
<path d="M186.785 511.368C193.537 512.231 197.882 521.002 193.321 527.095C189.873 531.714 183.983 530.456 180.787 528.623C177.752 526.771 177.034 523.105 177.124 519.348C177.232 515.25 181.865 510.739 186.785 511.368Z" fill="black"/>
<path d="M119.264 546.489C123.807 546.183 127.901 546.363 132.48 546.507C136.592 546.686 140.309 547.801 144.386 547.513C149.378 547.172 152.395 544.691 157.315 543.433C168.52 540.845 175.308 546.776 180.516 556.446C183.658 562.611 190.392 574.474 188.65 582.328C186.873 589.752 184.807 586.229 181.342 581.915C177.409 577.619 176.403 576.325 170.424 575.373C161.661 573.683 152.053 572.982 142.913 572.676C131.349 572.029 119.802 573.144 108.256 573.737C101.252 574.096 94.2491 574.06 87.2637 574.528C82.3973 574.851 77.495 574.923 72.6286 574.977C66.7565 575.049 60.8845 574.815 55.0305 574.887C51.4749 574.923 47.8835 574.743 44.31 574.618C41.4368 574.528 38.6175 574.24 35.7803 573.917C30.9677 573.341 13.8545 573.701 12.1306 567.985C10.4067 562.234 26.227 556.949 30.6266 555.26C43.4839 550.281 57.5804 549.778 71.2099 549.311C87.138 549.131 104.844 548.394 119.677 545.554" fill="#E30613"/>
<path d="M161.805 546.327C169.078 545.392 175.686 555.116 169.149 560.526C164.876 564.265 159.093 561.856 156.849 557.255C153.886 551.845 159.255 546.435 161.805 546.327Z" fill="white"/>
<path d="M165.183 552.492C166.781 552.294 168.236 554.415 166.799 555.601C165.866 556.428 164.591 555.889 164.088 554.882C163.441 553.696 164.626 552.51 165.183 552.492Z" fill="black"/>
<path d="M123.629 546.866C123.108 556.015 121.438 562.413 111.759 563.977C101.847 565.559 84.6257 568.596 74.8031 567.895C62.9154 567.105 51.2073 570.268 39.2657 569.028C30.305 567.806 21.1827 567.518 12.0425 567.23C13.9639 562.09 19.2075 558.765 23.0862 555.314C26.965 552.097 30.8617 549.095 35.2074 546.057C44.9941 539.245 55.6607 538.742 66.9199 536.837C78.3945 534.914 89.528 534.392 101.075 536.801C107.773 538.167 120.127 539.155 123.557 545.985L124.186 546.147L123.629 546.866Z" fill="black"/>
<path d="M136.954 587.307C136.577 581.825 135.877 576.217 133.686 571.041C133.111 569.909 132.052 566.655 130.274 567.266C128.963 567.698 129.664 570.645 128.586 571.706C127.042 573.485 125.479 572.587 124.995 570.448C124.725 568.812 125.767 567.069 126.485 565.523C130.669 556.069 136.308 565.523 137.852 571.077C139.414 576.972 140.186 583.407 142.234 589.105C144.299 587.631 147.603 587.235 149.417 589.446C151.948 592.448 147.944 592.376 145.628 592.376C141.964 592.466 137.493 594.083 136.954 587.307Z" fill="#B91919"/>
<path d="M92.5811 562.521C93.7124 564.444 101.757 577.565 95.0053 576.181C91.2882 575.426 91.0907 570.124 89.5822 567.554C88.2355 564.804 84.0694 559.753 80.3702 561.838C75.8809 564.48 78.5744 575.588 79.185 579.704C79.7237 582.832 79.8674 590.686 79.8135 587.523C79.8135 587.505 81.5913 594.479 77.0301 596.33C74.6957 597.265 68.0335 599.565 67.423 595.449C66.8484 591.818 72.5947 592.016 74.9112 591.872C74.9112 587.217 74.2288 584.413 74.2108 581.43C74.157 578.105 74.2468 574.6 74.0133 571.113C73.5823 564.804 76.0245 553.984 84.8774 556.878C86.4038 557.273 91.0009 560.472 92.5811 562.521Z" fill="#B91919"/>
<path d="M41.7615 549.472C32.0287 550.641 34.3631 563.132 35.6381 569.549C36.931 576.289 38.4215 583.515 38.7268 590.506C35.9254 590.866 31.2386 588.188 29.2633 590.974C26.5338 595 33.3755 597.534 36.1948 597.498C40.5225 597.372 43.5213 597.498 43.8625 592.645C44.096 588.799 43.5034 584.845 43.234 580.855C42.9108 576.217 41.9591 571.778 41.133 566.997C40.8098 564.678 38.3496 557.848 41.0612 556.177C44.1139 554.469 49.8603 560.58 51.656 562.629C54.17 565.469 55.6245 569.531 57.959 572.209C62.1071 576.936 62.3944 568.902 61.2092 566.152C60.3832 563.869 58.4797 560.311 56.0196 557.974C51.8894 554.092 45.6762 549.005 41.7615 549.472Z" fill="#B91919"/>
<path d="M176.062 576.451C171.304 572.065 172.902 568.309 172.902 568.309" stroke="black" stroke-width="0.645" stroke-linecap="round"/>
<path d="M708.448 492.643C794.928 492.643 813.519 492.643 900 492.643V616.1H684.089L678.553 520.324L708.448 492.643Z" fill="#D2D1C2"/>
<ellipse cx="794.814" cy="507.037" rx="17.7158" ry="17.7157" transform="rotate(90 794.814 507.037)" fill="#0DBEBE"/>
<ellipse cx="795.366" cy="498.733" rx="12.7332" ry="12.7332" transform="rotate(90 795.366 498.733)" fill="#00A5A5"/>
<path d="M708.448 520.878L678 520.878L708.448 492.643L708.448 520.878Z" fill="#C4C4C4"/>
<path d="M714 594.6H867" stroke="#231F20" stroke-width="3" stroke-linecap="round" stroke-linejoin="round" stroke-dasharray="6 6"/>
<path d="M708.448 12.6434C794.928 12.6434 813.519 12.6434 900 12.6434V136.1H684.089L678.553 40.3243L708.448 12.6434Z" fill="#D2D1C2"/>
<ellipse cx="794.814" cy="27.0375" rx="17.7158" ry="17.7157" transform="rotate(90 794.814 27.0375)" fill="#0DBEBE"/>
<ellipse cx="795.366" cy="18.7332" rx="12.7332" ry="12.7332" transform="rotate(90 795.366 18.7332)" fill="#00A5A5"/>
<path d="M708.448 40.8779L678 40.8779L708.448 12.6434L708.448 40.8779Z" fill="#C4C4C4"/>
<path d="M714 114.6H867" stroke="#231F20" stroke-width="3" stroke-linecap="round" stroke-linejoin="round" stroke-dasharray="6 6"/>
</svg>
