<svg width="739" height="574" viewBox="0 0 739 574" fill="none" xmlns="http://www.w3.org/2000/svg">
<path d="M576.87 147.056C582.451 133.473 625.311 54.137 641.443 22.8306C629.842 16.1933 639.373 11.7015 646.867 13.976C648.589 -0.913681 664.272 7.69509 655.809 19.9571C668.229 22.8635 661.425 33.3686 649.831 28.2208C634.494 73.4433 602.003 138.25 592.453 158.512C588.033 155.945 581.191 151.943 576.87 147.056Z" fill="#3C3C3B"/>
<path d="M616.466 189.136C613.513 184.133 610.935 180.874 612.373 173.21C613.34 168.011 618.218 162.967 618.366 157.604C618.71 145.966 610.12 135.697 598.921 130.21C576.903 119.394 551.126 157.354 544.4 175.324C536.267 197.013 515.549 240.823 542.449 248.159C573.263 256.557 594.242 241.316 606.479 224.354C589.285 215.416 600.628 188.987 616.466 189.136Z" fill="#814114"/>
<path d="M521.729 180.779C535.367 189.623 551.738 168.439 537.84 152.212C560.593 150.998 559.952 109.693 591.55 125.878C600.021 129.939 611.829 141.508 610.948 152.02C610.074 162.51 590.221 177.579 603.884 188.323C587.914 189.597 581.54 201.641 581.02 208.788C580.59 214.622 586.105 227.478 589.663 228.189C585.699 234.429 571.823 245.985 564.027 248.359C523.178 258.764 508.7 211.324 521.729 180.779Z" fill="#A85318"/>
<path d="M574.424 145.814C579.998 132.215 622.858 52.8794 638.997 21.5883C627.38 14.9577 636.911 10.4659 644.421 12.7336C646.15 -2.14084 661.826 6.45273 653.363 18.7147C665.775 21.6059 658.972 32.111 647.384 26.9785C632.07 72.2094 599.556 137.008 590.006 157.27C585.587 154.703 578.745 150.7 574.424 145.814Z" fill="black"/>
<path d="M620.065 32.2978C620.065 32.2978 623.793 35.9734 625.03 34.1677C626.258 32.3838 628.004 30.0426 628.004 30.0426L638.406 36.8491L639.46 35.1245L629.349 27.9885C629.349 27.9885 631.85 24.1101 631.855 23.0157C631.861 21.9213 627.385 18.9417 626.061 20.5499C624.773 22.1598 619.139 29.3966 620.065 32.2978Z" fill="#010202"/>
<path d="M610.557 51.6313C611.704 52.7777 614.411 53.3765 615.188 52.3393C615.965 51.3021 617.26 48.3968 617.26 48.3968L626.455 51.9172L627.221 50.4848L618.299 46.0237C618.299 46.0237 620.787 42.4425 619.648 41.1103C618.525 39.7714 615.306 38.4719 614.243 40.0547C613.15 41.651 608.79 49.8686 610.557 51.6313Z" fill="#010202"/>
<path d="M651.373 57.9495C651.373 57.9495 648.169 54.7145 646.94 56.4983C645.696 58.2889 644.272 60.9426 644.272 60.9426L633.855 54.1427L632.816 55.8606L642.927 62.9966C642.927 62.9966 640.887 67.3799 640.882 68.4742C640.876 69.5686 644.549 71.3578 645.852 69.7412C647.146 68.1465 652.299 60.8507 651.373 57.9495Z" fill="#010202"/>
<path d="M660.514 40.2897C659.362 38.7633 656.941 37.7828 655.856 38.8657C654.772 39.9486 653.457 42.6444 653.457 42.6444L643.305 37.0554L642.178 38.5758L651.887 45.217C651.887 45.217 649.856 48.1039 649.528 50.7251C650.632 52.4728 653.533 54.3686 655.032 52.7012C656.539 51.0119 662.291 42.6486 660.514 40.2897Z" fill="#010202"/>
<path d="M568.489 199.034C563.579 207.696 572.649 216.259 578.023 209.338C573.772 209.28 572.735 209.159 571.791 205.847C571 204.069 573.64 199.929 574.257 198.326C576.182 193.193 578.2 185.853 571.691 183.705C573.545 189.269 572.572 191.831 568.489 199.034Z" fill="black"/>
<path d="M559.11 177.648C554.844 177.925 553.029 182.772 551.165 186.076C549.583 188.745 548.505 192.792 545.33 193.967C541.716 195.3 537.675 193.42 538.894 189.074C543.23 195.264 546.546 185.436 548.283 182.461C549.74 180.085 554.314 173.865 559.11 177.648Z" fill="black"/>
<path d="M634.923 52.9401L551.377 224.041" stroke="#DAD8CC" stroke-width="0.322"/>
<path d="M639.37 35.4557L548.475 223.165" stroke="#DAD8CC" stroke-width="0.322"/>
<path d="M636.467 34.5797L545.557 222.296" stroke="#DAD8CC" stroke-width="0.322"/>
<path d="M627.278 49.5491C627.278 49.5491 590.548 116.495 577.645 147.076C565.424 176.079 543.192 220.253 543.192 220.253" stroke="#DAD8CC" stroke-width="0.322"/>
<path d="M534.386 245.591C537.168 236.691 542.118 228.121 542.768 218.767C546.289 220.133 549.593 222.65 553.114 224.015C547.031 230.487 543.63 239.388 540.199 248.467C537.525 247.818 535.621 246.443 534.386 245.591Z" fill="black"/>
<path d="M682.062 80.9825C682.062 80.9825 620.206 114.432 592.231 129.871C566.121 144.263 526.149 170.732 526.149 170.732L525.085 168.748C525.085 168.748 577.662 135.565 592.529 127.591C607.396 119.617 680.848 78.7011 680.848 78.7011L682.062 80.9825Z" fill="#DAD8CC"/>
<path d="M525.977 170.426L528.688 175.5C528.688 175.5 570.188 149.353 598.353 133.192C629.532 115.291 684.638 85.7894 684.638 85.7894L682.048 80.9886L677.529 83.3983C677.529 83.3983 678.458 85.0784 677.41 86.3268C676.355 87.56 623.046 116.555 599.641 129.289C576.626 141.795 538.962 166.001 531.624 170.755C530.803 171.284 529.882 171.548 529.51 171.531C528.67 171.486 527.713 169.454 527.713 169.454L525.977 170.426Z" fill="black"/>
<path d="M694.51 77.4798L682.072 84.1465L683.33 86.4919L695.768 79.8251L694.51 77.4798Z" fill="black"/>
<path d="M120.392 98.5853C120.392 98.5853 114.802 99.9123 107.647 103.93C88.9176 114.42 55.2455 134.468 52.133 136.927C48.2375 139.999 45.01 142.172 48.767 146.35C56.059 154.439 109.919 114.714 115.623 112.207C117.719 111.288 119.606 108.633 121.614 107.272C125.064 104.94 127.382 104.808 127.382 104.808L120.392 98.5853Z" fill="#007572"/>
<path d="M110.566 109.081C112.599 111.475 114.074 112.302 114.905 112.585L128.121 104.634L120.962 96.2706L108.271 103.568C108.291 103.578 107.975 106.016 110.566 109.081Z" fill="#00A0A4"/>
<path d="M170.675 64.0378C182.093 76.6662 175.63 92.7953 170.57 100C168.548 102.882 165.297 105.601 162.152 108.153C159.605 110.221 138.729 121.387 123.223 101.404C111.037 85.7008 117.929 70.059 127.712 61.0443C129.571 59.3438 131.066 58.3388 133.149 57.196C144.026 51.1602 161.007 53.3632 170.675 64.0378Z" fill="#E30613"/>
<path d="M163.222 56.8514C162.191 58.4456 161.116 60.9998 161.04 63.0464C160.506 76.2327 174.416 77.8016 177.542 77.1297" stroke="#F39200" stroke-width="0.851" stroke-miterlimit="10"/>
<path d="M176.777 72.5545C174.551 73.0949 168.008 73.2192 165.362 66.6868C164.301 64.0875 165.63 59.7673 166.487 58.7059" stroke="#F39200" stroke-width="0.851" stroke-miterlimit="10"/>
<path d="M159.18 96.7143L162.194 84.8065L149.604 89.1852C152.55 92.2902 155.808 94.8316 159.18 96.7143Z" fill="#F39200"/>
<path d="M144.907 82.709C146.358 84.8803 147.967 86.8502 149.662 88.6438L154.388 77.3995L142.597 78.8958C143.302 80.1838 144.066 81.4517 144.907 82.709Z" fill="#F39200"/>
<path d="M170.555 100.006L171.279 90.0124L158.686 96.8851C162.298 98.8967 166.935 99.5772 170.555 100.006Z" fill="#F39200"/>
<path d="M142.611 78.8908L150.114 69.0338L138.321 67.5978C139.111 71.3496 140.598 75.1864 142.611 78.8908Z" fill="#F39200"/>
<path d="M138.313 67.6175L147.338 58.3431L137.842 55.7718C137.277 59.47 137.426 63.4917 138.313 67.6175Z" fill="#F39200"/>
<path d="M134.727 90.9974C127.791 80.6829 125.87 68.9308 128.701 60.084C128.045 60.6853 121.734 75.035 121.734 75.035L128.173 75.6959L123.241 86.8159L132.614 87.523L130.015 99.4506L140.674 98.1663L139.236 106.467L149.587 104.67L148.392 110.606L161.896 108.355L161.496 108.331C152.314 107.802 141.558 101.152 134.727 90.9974Z" fill="#F39200"/>
<path d="M170.556 100.006C161.328 99.2481 152.029 93.0897 145.123 82.8138C139.015 73.7129 136.554 63.4669 138.045 55.1313C134.557 56.1724 131.685 57.392 128.682 60.0743C125.866 68.9161 127.806 80.629 134.741 90.9435C142.216 102.066 151.964 107.825 161.891 108.341C165.403 105.906 168.421 103.268 170.556 100.006Z" fill="#00A0A4"/>
<path d="M134.076 62.8557C133.982 63.6702 133.238 64.253 132.418 64.145C131.603 64.0515 131.02 63.3077 131.129 62.4882C131.222 61.6738 131.967 61.091 132.787 61.199C133.592 61.3121 134.17 62.0413 134.076 62.8557Z" fill="white"/>
<path d="M134.926 70.9371C134.818 71.854 133.982 72.5011 133.065 72.3941C132.148 72.2872 131.5 71.4515 131.608 70.5346C131.715 69.6177 132.551 68.9706 133.469 69.0776C134.386 69.1846 135.033 70.0202 134.926 70.9371Z" fill="white"/>
<path d="M137.3 79.8931C137.179 80.9124 136.256 81.6384 135.236 81.518C134.217 81.3975 133.486 80.4604 133.607 79.4411C133.727 78.4218 134.651 77.6957 135.675 77.8308C136.715 77.9608 137.441 78.8833 137.3 79.8931Z" fill="white"/>
<path d="M141.985 87.4167C141.85 88.5384 140.821 89.3338 139.713 89.1948C138.591 89.0608 137.795 88.0319 137.935 86.9247C138.069 85.803 139.084 85.0127 140.207 85.1466C141.329 85.2806 142.119 86.2949 141.985 87.4167Z" fill="white"/>
<path d="M147.918 94.7368C147.784 95.8585 146.768 96.6489 145.646 96.5149C144.524 96.3809 143.734 95.3666 143.868 94.2448C144.003 93.1231 145.032 92.3277 146.154 92.4617C147.262 92.6007 148.057 93.6296 147.918 94.7368Z" fill="white"/>
<path d="M155.323 100.458C155.202 101.477 154.279 102.203 153.254 102.068C152.235 101.948 151.509 101.025 151.629 100.006C151.75 98.9866 152.673 98.2605 153.698 98.3956C154.733 98.511 155.444 99.4385 155.323 100.458Z" fill="white"/>
<path d="M163.173 103.792C163.061 104.694 162.254 105.331 161.351 105.219C160.449 105.107 159.807 104.286 159.919 103.384C160.031 102.482 160.838 101.845 161.741 101.957C162.649 102.083 163.286 102.89 163.173 103.792Z" fill="white"/>
<path d="M104.754 167.804C104.754 167.804 99.6195 165.21 91.5675 163.655C70.483 159.578 31.8455 153.152 27.8726 153.025C22.9247 152.859 19.0462 152.438 19.2219 158.048C19.5553 168.93 86.338 173.346 92.3164 175.128C94.5162 175.786 97.6751 174.972 100.08 175.234C104.227 175.676 106.079 177.073 106.079 177.073L104.754 167.804Z" fill="#007572"/>
<path d="M90.4818 169.488C90.4904 172.629 91.0819 174.201 91.5381 174.956L106.748 177.412L106.687 166.419L92.2837 163.799C92.2837 163.799 90.4641 165.47 90.4818 169.488Z" fill="#00A0A4"/>
<path d="M165.452 173.864C166.016 190.892 150.649 199.031 142.13 201.272C138.723 202.171 134.493 202.148 130.438 202.065C127.153 201.994 103.998 197.067 105.083 171.78C105.922 151.922 121.301 144.43 134.584 143.853C137.092 143.753 138.888 143.947 141.217 144.414C153.435 146.844 164.97 159.481 165.452 173.864Z" fill="#E30613"/>
<path d="M164.407 163.569C162.595 164.13 160.123 165.374 158.74 166.894C149.822 176.62 159.417 186.799 162.235 188.303" stroke="#F39200" stroke-width="0.851" stroke-miterlimit="10"/>
<path d="M164.612 184.321C162.564 183.301 157.501 179.167 159.692 172.48C160.566 169.816 164.366 167.364 165.713 167.11" stroke="#F39200" stroke-width="0.851" stroke-miterlimit="10"/>
<path d="M135.58 191.411L145.568 184.264L133.126 179.484C133.366 183.768 134.217 187.792 135.58 191.411Z" fill="#F39200"/>
<path d="M133.729 171.504C133.435 174.099 133.383 176.642 133.521 179.119L144.403 173.571L134.443 167.103C134.142 168.543 133.894 169.997 133.729 171.504Z" fill="#F39200"/>
<path d="M142.13 201.271L149.145 194.108L135.095 191.236C136.539 195.088 139.641 198.595 142.13 201.271Z" fill="#F39200"/>
<path d="M134.427 167.108L146.514 164.435L138.435 155.72C136.634 159.096 135.3 162.978 134.427 167.108Z" fill="#F39200"/>
<path d="M138.435 155.72L151.321 154.465L145.725 146.377C142.92 148.828 140.429 152.002 138.435 155.72Z" fill="#F39200"/>
<path d="M120.603 171.261C121.979 158.909 128.105 148.696 135.972 143.765C135.085 143.794 120.996 150.678 120.996 150.678L125.494 155.349L114.541 160.645L121.233 167.231L111.54 174.667L120.505 180.566L114.047 185.989L123.098 191.288L118.352 195.06L130.111 202.064L129.816 201.775C123.166 195.452 119.244 183.429 120.603 171.261Z" fill="#F39200"/>
<path d="M142.13 201.271C135.585 194.733 132.461 184.031 133.823 171.732C135.035 160.837 139.775 151.429 146.307 146.03C142.968 144.575 139.991 143.648 135.972 143.764C128.105 148.696 122.028 158.908 120.666 171.256C119.183 184.574 122.906 195.264 130.145 202.068C134.369 202.451 138.389 202.384 142.13 201.271Z" fill="#00A0A4"/>
<path d="M138.277 149.356C137.669 149.908 136.728 149.874 136.176 149.267C135.609 148.664 135.658 147.718 136.252 147.171C136.86 146.619 137.801 146.653 138.348 147.246C138.914 147.849 138.88 148.789 138.277 149.356Z" fill="white"/>
<path d="M133.713 156.064C133.033 156.689 131.975 156.647 131.349 155.967C130.723 155.287 130.765 154.23 131.431 153.609C132.112 152.983 133.165 153.011 133.791 153.691C134.422 154.385 134.394 155.438 133.713 156.064Z" fill="white"/>
<path d="M129.746 164.455C128.993 165.155 127.818 165.104 127.124 164.367C126.424 163.614 126.475 162.44 127.228 161.74C127.981 161.04 129.155 161.091 129.855 161.843C130.536 162.586 130.485 163.76 129.746 164.455Z" fill="white"/>
<path d="M128.449 173.212C127.624 173.986 126.317 173.932 125.558 173.102C124.784 172.278 124.844 170.986 125.669 170.213C126.499 169.454 127.786 169.498 128.56 170.323C129.334 171.147 129.274 172.439 128.449 173.212Z" fill="white"/>
<path d="M128.246 182.635C127.421 183.408 126.129 183.349 125.355 182.525C124.581 181.7 124.641 180.409 125.466 179.635C126.296 178.876 127.583 178.921 128.357 179.745C129.13 180.57 129.076 181.876 128.246 182.635Z" fill="white"/>
<path d="M130.213 191.78C129.46 192.48 128.285 192.43 127.585 191.677C126.885 190.925 126.937 189.751 127.689 189.051C128.442 188.351 129.617 188.402 130.317 189.154C131.002 189.911 130.966 191.081 130.213 191.78Z" fill="white"/>
<path d="M134.05 199.401C133.384 200.022 132.341 199.975 131.74 199.319C131.119 198.653 131.166 197.61 131.823 197.009C132.489 196.388 133.518 196.44 134.138 197.106C134.754 197.757 134.716 198.78 134.05 199.401Z" fill="white"/>
<path d="M626.392 507.658C631.547 511.9 637.291 514.706 640.467 510.59C643.167 507.086 637.369 500.354 636.723 501.158C636.063 501.971 626.392 507.658 626.392 507.658Z" fill="#DAD8CC"/>
<path d="M513.579 387.467C508.978 388.306 508.755 392.724 511.587 399.073C513.704 403.821 521.848 391.535 521.848 391.535C521.848 391.535 516.538 386.919 513.579 387.467Z" fill="#DAD8CC"/>
<path d="M539.639 385.507C539.639 385.507 536.474 379.918 532.688 380.912C528.888 381.915 506.709 404.002 505.397 406.649C504.084 409.296 512.677 444.676 556.368 483.464C600.046 522.26 615.273 520.554 618.164 518.824C621.056 517.093 640.359 502.503 642.708 497.286C643.592 495.329 644.882 493.685 644.749 491.949C644.514 488.528 539.639 385.507 539.639 385.507Z" fill="#E30613"/>
<path d="M583.646 434.362C583.532 434.322 643.226 489.757 644.757 491.962C645.081 493.242 643.487 498.039 641.109 499.639C633.388 497.993 615.563 496.087 578.712 462.214C537.786 424.579 528.321 392.425 526.823 384.982C526.661 384.18 530.913 381.842 532.675 380.92C533.397 380.538 583.646 434.362 583.646 434.362Z" fill="#F39200"/>
<path d="M600.898 492.684C598.168 490.25 599.849 502.873 607.165 508.13C614.467 513.394 620.207 504.003 620.036 502.649C619.843 501.29 609.206 500.057 600.898 492.684Z" fill="#DAD8CC"/>
<path d="M569.519 470.149C567.668 472.978 568.521 478.67 575.607 484.587C582.68 490.513 584.1 484.327 584.238 481.581L569.519 470.149Z" fill="#DAD8CC"/>
<path d="M540.953 438.498C538.122 439.437 530.082 441.546 537.35 451.096C544.61 460.633 551.6 458.601 553.473 455.542L540.953 438.498Z" fill="#DAD8CC"/>
<path d="M520.278 402.56C515.96 404.489 509.982 406.232 514.91 415.183C519.845 424.146 526.177 423.286 529.713 421.075L520.278 402.56Z" fill="#DAD8CC"/>
<path d="M522.201 408.058C520.326 408.705 518.504 409.142 519.635 412.29C520.766 415.439 525.499 414.106 525.172 412.792C524.837 411.465 522.201 408.058 522.201 408.058Z" fill="#B91919"/>
<path d="M543.817 444.037C541.669 445.065 540.717 445.929 542.076 448.652C543.443 451.388 546.286 450.856 547.453 448.801C548.62 446.746 544.615 443.662 543.817 444.037Z" fill="#B91919"/>
<path d="M573.79 474.566C572.943 476.734 573.305 477.361 574.687 479.26C576.077 481.172 578.586 481.365 579.43 479.073C580.282 476.794 573.79 474.566 573.79 474.566Z" fill="#B91919"/>
<path d="M606.751 496.593C605.904 498.761 606.266 499.388 607.648 501.287C609.038 503.2 611.555 503.405 612.391 501.1C613.242 498.822 606.751 496.593 606.751 496.593Z" fill="#B91919"/>
<path d="M546.483 418.024C545.709 418.618 544.56 418.413 543.926 417.573C543.292 416.733 543.398 415.571 544.172 414.977C544.946 414.383 546.095 414.588 546.737 415.441C547.371 416.281 547.264 417.443 546.483 418.024Z" fill="black"/>
<path d="M535.224 397.446C534.45 398.04 533.301 397.835 532.659 396.981C532.025 396.141 532.132 394.979 532.905 394.385C533.679 393.791 534.828 393.996 535.462 394.836C536.104 395.69 535.998 396.852 535.224 397.446Z" fill="black"/>
<path d="M562.129 439.078C561.355 439.672 560.206 439.468 559.564 438.614C558.917 437.782 559.037 436.612 559.797 436.026C560.571 435.432 561.72 435.637 562.362 436.49C563.017 437.336 562.911 438.498 562.129 439.078Z" fill="black"/>
<path d="M579.908 458.989C579.135 459.583 577.986 459.378 577.352 458.538C576.718 457.698 576.824 456.536 577.598 455.942C578.372 455.348 579.521 455.553 580.163 456.406C580.789 457.233 580.682 458.395 579.908 458.989Z" fill="black"/>
<path d="M595.602 472.152C594.828 472.746 593.679 472.541 593.037 471.687C592.395 470.834 592.51 469.685 593.284 469.091C594.058 468.497 595.206 468.702 595.848 469.555C596.469 470.404 596.376 471.558 595.602 472.152Z" fill="black"/>
<path d="M615.69 486.365C614.916 486.959 613.767 486.754 613.125 485.901C612.491 485.06 612.598 483.898 613.371 483.304C614.145 482.711 615.294 482.915 615.928 483.756C616.57 484.609 616.464 485.771 615.69 486.365Z" fill="black"/>
<path d="M634.302 494.956C633.528 495.55 632.379 495.345 631.745 494.505C631.09 493.659 631.218 492.502 631.991 491.909C632.765 491.315 633.914 491.519 634.556 492.373C635.182 493.2 635.076 494.362 634.302 494.956Z" fill="black"/>
<path d="M519.927 398.887C519.927 398.887 518.327 405.757 532.569 425.052" stroke="#B91919" stroke-width="1.46" stroke-miterlimit="10" stroke-linecap="round" stroke-linejoin="round"/>
<path d="M538.497 434.676C540.204 437.854 553.236 456.191 557.798 460.017" stroke="#B91919" stroke-width="1.46" stroke-miterlimit="10" stroke-linecap="round" stroke-linejoin="round"/>
<path d="M566.8 466.576C569.867 470.605 582.758 481.037 586.259 482.842" stroke="#B91919" stroke-width="1.46" stroke-miterlimit="10" stroke-linecap="round" stroke-linejoin="round"/>
<path d="M597.921 490.436C600.755 493.22 617.109 502.656 622.522 503.251" stroke="#B91919" stroke-width="1.46" stroke-miterlimit="10" stroke-linecap="round" stroke-linejoin="round"/>
<path d="M532.675 380.921C530.839 382.643 548.471 423.066 584.315 456.522C620.16 489.978 642.901 493.859 644.744 491.97C646.608 490.087 628.351 455.945 593.917 421.401C559.484 386.858 535.332 378.414 532.675 380.921Z" fill="#DB7A1C"/>
<path d="M131.885 402.319C131.885 402.319 126.364 401.712 126.844 403.898C127.324 406.083 128.046 409.897 128.046 409.897L115.745 413.069L116.293 415.06L128.636 412.338C128.636 412.338 129.131 416.743 129.951 417.506C130.77 418.268 137.303 416.835 137.01 414.734C136.724 412.617 134.687 403.635 131.885 402.319Z" fill="#010202"/>
<path d="M125.333 380.484C123.388 380.304 120.963 381.446 121.027 383.013C121.091 384.58 122.181 387.452 122.181 387.452L110.955 391.277L111.316 393.183L123.015 390.434C123.015 390.434 123.414 395.678 125.481 396.045C127.547 396.411 130.995 395.541 130.793 393.237C130.569 390.942 128.322 380.759 125.333 380.484Z" fill="#010202"/>
<path d="M119.177 358.809C117.451 358.145 113.469 359.244 113.518 360.804C113.566 362.364 114.748 366.159 114.748 366.159L103.521 369.983L104.043 372.618L115.292 369.911C115.292 369.911 115.599 375.357 117.826 375.327C120.045 375.312 123.221 374.545 123.081 372.063C122.941 369.58 121.285 359.626 119.177 358.809Z" fill="#010202"/>
<path d="M116.538 409.843C112.328 410.408 78.246 420.65 76.7208 421.165C75.1955 421.679 74.2961 424.389 75.0608 426.608C76.1086 429.574 75.9755 430.996 80.765 429.811C85.7439 428.579 114.579 418.829 116.307 418.406C118.02 417.975 118.996 415.469 118.703 412.242C118.41 409.016 116.538 409.843 116.538 409.843Z" fill="#DB7A1C"/>
<path d="M111.534 388.611C108.128 390.099 69.8619 400.054 68.3781 401.019C66.8943 401.984 67.9174 410.134 70.5679 409.619C73.2028 409.097 112.523 396.296 113.66 395.644C114.819 394.984 112.865 388.028 111.534 388.611Z" fill="#DB7A1C"/>
<path d="M106.783 375.239C105.916 375.543 66.2706 386.397 65.0424 386.877C62.2454 387.926 60.1211 379.056 63.8593 377.998C66.1823 377.336 103.034 366.688 104.102 366.23C105.162 365.75 108.587 374.606 106.783 375.239Z" fill="#DB7A1C"/>
<path d="M84.5181 350.109C84.5181 350.109 80.9034 336.63 79.5579 334.993C78.2054 333.372 75.1735 333.734 74.7505 332.006C74.3049 330.286 73.5028 327.525 73.6631 326.209C74.4601 325.854 78.0375 323.486 76.4292 321.975C74.8053 320.457 68.8485 322.112 66.9763 322.94C65.1041 323.767 62.8273 325.37 63.4265 326.915C63.9056 328.143 66.4821 328.251 68.48 328.061C68.7656 329.053 70.3651 333.336 70.0182 334.399C68.6969 337.087 67.486 337.612 68.4458 340.857C69.3829 344.111 72.6234 353.877 72.6234 353.877L84.5181 350.109Z" fill="#DB7A1C"/>
<path d="M98.0899 548.586C104.748 529.69 116.212 491.14 107.675 458.79C99.1603 426.432 82.7525 362.501 80.1192 359.517C76.4665 355.38 68.8561 359.086 64.5954 360.471C58.8095 362.371 54.4212 365.5 54.7161 370.266C55.004 375.047 73.8861 434.351 74.9651 437.331C76.3617 441.147 79.4568 441.02 88.5109 438.732C94.0724 437.331 101.709 435.569 101.709 435.569L104.482 445.707C104.482 445.707 91.5465 449.663 86.6641 450.263C81.7818 450.862 70.5881 454.739 65.5242 443.815C60.4673 432.875 45.687 381.006 44.3683 372.554C42.7771 362.497 47.8992 355.234 58.3613 351.066C69.0184 346.797 75.4268 345.89 79.6387 346.114C83.842 346.316 89.0175 349.318 92.4104 361.123C95.4287 371.633 118.628 455.574 122.667 465.4C126.728 475.217 159.274 513.015 175.459 521.099L98.0899 548.586Z" fill="#F59B1A"/>
<path d="M140.888 528.009C117.792 536.963 97.789 546.67 98.1052 548.594C98.437 550.525 126.79 545.81 141.006 540.591C155.199 535.381 176.191 523.849 175.473 521.069C174.77 518.295 145.952 526.046 140.888 528.009Z" fill="#DB7A1C"/>
</svg>
