<?xml version="1.0" encoding="utf-8"?>
<!-- Generator: Adobe Illustrator 15.1.0, SVG Export Plug-In . SVG Version: 6.00 Build 0)  -->
<!DOCTYPE svg PUBLIC "-//W3C//DTD SVG 1.1//EN" "http://www.w3.org/Graphics/SVG/1.1/DTD/svg11.dtd">
<svg version="1.1" id="Capa_1" xmlns="http://www.w3.org/2000/svg" xmlns:xlink="http://www.w3.org/1999/xlink" x="0px" y="0px"
	 width="841.89px" height="595.276px" viewBox="0 0 841.89 595.276" enable-background="new 0 0 841.89 595.276"
	 xml:space="preserve">
<path fill-rule="evenodd" clip-rule="evenodd" fill="#E7E5D0" d="M323.951,168.896c0,0-68.87,12.65-72.93-23.79
	c-4.06-36.44,8.25-65.29,36.45-66.15c28.2-0.86,36.61,9.17,36.61,9.17s-12.51-30.51,13.87-39.44c26.38-8.93,31.55,21.14,31.55,21.14
	s15.11-28.32,37.77-12.9s28.18,40,28.18,40s18.26-32.72,41.461-4.61c23.199,28.11,20.399,60.32-7.32,65.4
	C441.871,162.797,323.951,168.896,323.951,168.896"/>
<g>
	<path fill="#E3D7C2" d="M30.548,509.96c-67.985-77.524,49.064-16.269,141.95-20.918c92.886-4.649,164.133-20.335,216.422-20.335
		c52.29,0,108.887-25.133,160.622-25.188c51.734-0.055,16.453,83.31-15.021,83.338c-31.473,0.028-247.128,24.337-262.02,22.443
		C257.61,547.405,98.533,587.484,30.548,509.96"/>
	<path fill="#93C132" d="M99.041,417.278c-3.365,72.625,49.849,114.959,89.05,131.189c39.201,16.232,147.967-38.369,190.144-44.368
		c42.178-5.998,311.5,100.069,327.288,15.4S542.84,440.006,441.321,358.462c-101.52-81.545-157.479-64.454-217.218-53.038
		C164.363,316.839,102.424,344.671,99.041,417.278"/>
	<path fill="none" stroke="#1C8B50" stroke-width="1.14" stroke-linecap="round" d="M195.883,431.918c0,0-1.229-47.603,9.983-86.784
		c13.809-48.232,31.122-82.091,31.122-82.091"/>
	<path fill="#1C8B50" d="M178.968,433.934c9.548-0.435,19.762-0.647,30.651-0.545c-0.102-0.925-3.697-34.996,6.082-71.534
		c5.341-19.499,12.139-38.569,20.335-57.05c-11.843,15.885-21.087,33.55-27.388,52.336c-7.746,23.801-11.831,71.497-11.831,71.497
		s-5.731-5.806-5.426-30.272c0.305-24.467,9.105-86.147,9.105-86.147s-12.599,34.33-16.768,64.702
		C180.743,398.486,179.31,426.354,178.968,433.934"/>
	<path fill="#1C8B50" d="M246.509,434.868c2.949-8.652,8.051-24.19,11.868-39.155c5.713-22.341,29.579-74.418,29.579-74.418
		s-14.993,14.087-26.685,39.442c-8.366,18.106-32.639,68.835-32.639,68.835s12.941-55.377,21.852-81.166
		c8.91-25.789,34.773-72.024,34.773-72.024s-24.587,25.65-39.293,56.024c-11.092,22.849-35.763,99.171-36.336,100.982
		C221.173,433.517,233.467,433.961,246.509,434.868"/>
	<path fill="#31AD68" d="M153.771,435.746c5.546-0.536,11.314-1.017,17.405-1.387c-2.625-16.01-4.557-37.232-1.627-57.679
		c3.186-21.427,7.938-42.593,14.217-63.325c0,0-15.714,26.547-22.314,59.896C156.452,398.643,153.928,433.518,153.771,435.746"/>
	<path fill="#31AD68" d="M116.141,441.246c6.267-1.248,13.255-2.449,20.955-3.513c-3.513-12.986-7.737-28.82-10.399-39.829
		c-5.278-21.806-8.402-79.243-8.402-79.243s-6.6,20.927-5.177,48.989C114.006,384.871,115.688,429.248,116.141,441.246"/>
	<path fill="#31AD68" d="M138.889,437.483c4.64-0.615,9.542-1.186,14.706-1.71c-0.712-0.572-3.512-4.178-5.953-26.27
		c-2.773-25.446,3.346-115.365,3.346-115.365s-15.177,48.795-13.957,95.529C137.401,403.68,138.205,422.629,138.889,437.483"/>
	<path fill="#31AD68" d="M75.369,452.828c0,0,0.592-0.269,1.747-0.73c-2.117-2.108-5.786-6.896-11.721-17.775
		c-10.971-20.123-35.457-98.136-35.457-98.136s2.773,47.483,19.411,86.11c6.045,13.995,15.03,33.683,20.798,46.282L75.369,452.828z"
		/>
	<path fill="#31AD68" d="M78.9,451.404c5.546-2.107,17.655-6.221,36.4-9.983c-2.606-7.968-9.881-31.232-13.181-52.872
		c-4.048-26.61-2.662-80.609-2.662-80.609s-9.687,36.39-8.578,70.406c0.851,25.881,5.861,67.022,5.861,67.022
		s-15.104-14.281-23.414-50.672c-4.23-18.641-6.865-37.609-7.875-56.698c0,0-5.139,29.099,0.139,59.906
		C69.065,418.239,76.543,443.686,78.9,451.404"/>
	<path fill="#A95419" d="M218.751,295.182c0.499-1.127,8.744-22.691,10.611-25.798c2.672-4.409,8.245-1.571,6.757,2.699
		c-1.091,3.161-8.55,22.868-10.306,26.547C223.511,303.41,216.117,301.338,218.751,295.182"/>
	<path fill="#04A0A4" d="M53.98,442.706c-43.758,7.69-60.008,38.628-21.13,47.059c38.877,8.43,40.208,10.231,38.295,12.746
		c-1.914,2.514-3.106,4.003-8.615,6.96l-42.168,6.072c-34.736,13.977,27.425,37.214,27.425,37.214s51.023,3.854,140.276,6.784
		c89.254,2.932,452.322,15.252,452.322,15.252c115.911-0.239,148.817-46.383,79.492-46.217
		c-33.442,0.074,25.882-44.053-154.501-45.366c-38.602-0.276-54.98-10.86-76.896-31.214c-29.189-15.908-42.639-17.507-83.726-21.51
		c0,0-13.254-3.281-104.199-7.395S144.065,420.938,53.98,442.706"/>
	<path fill="none" stroke="#04A0A4" d="M53.98,442.706c-43.758,7.69-60.008,38.628-21.13,47.059
		c38.877,8.43,40.208,10.231,38.295,12.746c-1.914,2.514-3.106,4.003-8.615,6.96l-42.168,6.072
		c-34.736,13.977,27.425,37.214,27.425,37.214s51.023,3.854,140.276,6.784c89.254,2.932,452.322,15.252,452.322,15.252
		c115.911-0.239,148.817-46.383,79.492-46.217c-33.442,0.074,25.882-44.053-154.501-45.366c-38.602-0.276-54.98-10.86-76.896-31.214
		c-29.189-15.908-42.639-17.507-83.726-21.51c0,0-13.254-3.281-104.199-7.395S144.065,420.938,53.98,442.706z"/>
	<path fill="#50BDC1" d="M252.304,429.136c-1.96,0.989-4.834,0.324-7.025,1.009c-0.277,0.055,0-0.473-0.573-0.315
		c-2.144,0.795-5.685,0.546-8.43,0.157l0.176-0.166c-0.536-0.074-1.119,0.396-1.664,0.351c0-0.083,0.166-0.129,0-0.24
		c-0.102,0.277-0.971,0.166-1.192,0.38c-0.213-0.094-0.213-0.306-0.5-0.416l-0.286,0.313c-0.814,0.74-2.117,0-3.272,0.425
		c0.055-0.073,0.166-0.129,0.074-0.193c-2.108,0.382-4.239,0.623-6.378,0.721c0.083-0.111,0.148-0.305,0-0.416
		c-0.074,0.315-0.73,0.416-1.303,0.509c-0.278-0.324-0.925,0.323-1.637,0.157l0.056-0.074c-0.481,0.352-0.749-0.185-1.128,0.24
		l-0.323-0.249c-0.194,0.462-0.74-0.231-1.128,0v0.092c-0.379,0.12-0.592-0.102-0.924,0l-0.047-0.055
		c-0.822,0.138-1.331-0.103-1.284,0.249c-0.315-0.277,0.795-0.148,0.323-0.564c-2.758,0.359-5.538,0.528-8.319,0.51
		c-0.323-0.14-0.527-0.177-0.591-0.306c-0.442,0.036-0.877,0.129-1.294,0.277c0.101,0-0.185-0.176-0.333-0.194
		c-0.518-0.12-0.536,0.397-1.1,0.259c0.212-0.102,0.277-0.213,0.203-0.352c-0.522,0.218-1.08,0.34-1.645,0.361
		c0.083-0.065,0.222-0.103,0.194-0.214c-0.601,0.324-1.118,0-1.645,0.168l0.194-0.214c-0.869-0.239-0.231,0.436-0.998,0.306
		c0.175-0.065,0.11-0.148,0.138-0.231c-0.807,0.262-1.647,0.409-2.496,0.436v-0.084c-0.794-0.003-1.587,0.046-2.375,0.147
		c-0.314-0.083,0.065-0.499-0.721-0.406c0.055,0.406-1.34,0.203-0.85,0.656c-0.74-0.096-1.489-0.096-2.228,0
		c0.296-0.167-0.351-0.49,0.203-0.546l-0.443-0.24c0.055-0.175,0.443,0.046,0.295-0.166c-0.446,0.097-0.901,0.149-1.358,0.157
		c-0.541,0.42-1.175,0.702-1.849,0.823c0.388-0.167-0.259-0.444,0-0.527l-1.137,0.822c-0.286,0-0.083-0.332-0.49-0.203
		c0,0.111-0.148,0.185-0.277,0.277c-0.13,0.093-1.165,0.139-1.313-0.26c-0.138-0.166,0.462-0.109,0.139-0.239
		c-0.527,0-0.545,0.156-1.063,0.185v-0.055c-0.351-0.047-1.008,0.212-0.629,0.425c0.25,0-0.101-0.241,0.259-0.139
		c-0.404,0.258-0.88,0.38-1.359,0.351c0.176-0.074,0.158-0.175,0.204-0.295c-0.701,0.302-1.437,0.513-2.191,0.628
		c0,0.203,0.268-0.36,0.388-0.268c-1.026-0.231-2.042,0.453-2.911,0.083c0.129,0,0.092,0.268,0.074,0.222
		c-0.481,0-0.481-0.286-0.786-0.176c0-0.166-0.388,0.064-0.712,0.13c-0.166,0.12-0.101-0.074,0.185-0.103
		c-1.074,0.294-2.191,0.395-3.3,0.297c0,0.102-0.61,0.425-0.841,0.425l0.074-0.259c-0.231-0.139-0.804,0.056-0.869-0.157
		c-0.49,0.333,1.951-0.36,1.276-0.092c-0.204-0.204-0.925,0.452-0.814,0.101c-0.48,0-0.924,0.333-1.414,0.121
		c0.139,0,0.351-0.379,0-0.342c-0.675,0.073-0.175,0.129-0.73,0.249l-0.342,0.12c0,0.25-0.619,0-0.333,0.259
		c-0.111-0.203-0.998,0.167-0.924-0.24l0.065-0.333c-0.296,0-0.444,0.37-0.666,0.518l-0.12-0.139c0,0.499-0.721,0-1.017,0.388
		c-0.638-0.138-1.59,0.057-1.913-0.239c-0.441,0.219-0.932,0.32-1.424,0.296c0.093-0.057,0.241-0.074,0.268-0.186
		c-0.351-0.12-0.434,0-0.73,0.111c0.065-0.074-0.721-0.25-1.109-0.398c-0.462,0.177-0.259,0.436-0.287,0.602
		c-0.49-0.462-1.303,0.407-1.904,0c0.167-0.074,0.666-0.286,0.259-0.379c-0.499-0.472-0.823,0.416-1.562,0.222l0.231,0.398
		c-0.333-0.241-0.989,0.295-0.971-0.131c-0.221,0.166-0.85-0.082-0.711,0.314c-1.193-0.268-2.773,0.37-3.568-0.295
		c-0.148,0.074-0.564,0-0.462,0.24c0.314,0.203,0.351-0.186,0.48,0c-0.092-0.001-0.167,0.072-0.167,0.165
		c0,0.007,0,0.013,0.001,0.02c-0.37-0.064-0.647-0.074-0.37-0.435c-0.822-0.186-0.702,0.739-1.728,0.675
		c0-0.166-0.074-0.222-0.361-0.166l-0.508,0.323c-0.666,0-0.435-0.343-0.49-0.61c-0.342,0.074-0.777,0.102-0.924,0.324l-0.472-0.306
		c0.351,0.223-0.259,0.194-0.407,0.269l0.148-0.083c-0.083-0.111-0.48,0-0.665,0c0.083,0.166,0.499,0.194,0.73,0.23
		c-0.148,0.139-0.434,0.13-0.638,0.296c0-0.277-0.601-0.139-0.878-0.147c-0.277-0.01-0.314,0.268-0.416,0.268
		c0-0.139-0.508,0-0.305-0.194c0.093-0.056,0.268,0.11,0.416,0c-0.231-0.083-0.24-0.332-0.647-0.12
		c-0.407,0.213,0.185,0.536-0.462,0.416c0.148-0.092,0.148-0.203,0.259-0.305l-0.61-0.093v0.249
		c-0.102-0.055-0.047-0.083-0.084-0.11c-0.12,0.277-0.868,0.157-0.924,0.463c-0.31-0.02-0.619-0.06-0.924-0.121h0.055
		c-0.364-0.091-0.75-0.018-1.053,0.204v-0.057c-0.291-0.004-0.576,0.083-0.814,0.25c-0.508-0.13-0.351-0.924-0.813-0.545
		c-0.481,0.073-0.638,0.545-0.425,0.675c-0.879-0.064-1.766,0.452-2.635,0.156c-0.092,0.111,0,0.167-0.24,0.25
		c-1.276,0.056-2.551,0.602-3.697,0.231c0.342-0.139,0-0.249-0.084-0.388c-0.24,0.259-0.416-0.186-0.434,0.212
		c0.102,0.213,0.102,0.323,0.462,0.369c-0.744,0.229-1.531,0.289-2.302,0.177c0.232,0.073,0.093,0.166-0.055,0.249
		c0-0.36-0.61-0.343-0.98-0.147v0.221l-0.249-0.175c-0.139,0.092,0,0.48-0.5,0.342l-0.194-0.222
		c-0.378,0.352-0.879,0.54-1.395,0.527l-0.472-0.25c-0.194,0.064-0.462,0.296-0.083,0.342c-0.841-0.065-1.359,0-1.701-0.24
		c-1.137,0.869-3.078,1.192-4.668,1.386v-0.165c-0.471-0.083-0.12,0.305-0.443,0.239c0.074-0.175-0.435-0.268-0.185-0.508
		c-0.656-0.046-0.656,0.425-1.017,0.573c0,0.222,0.259-0.194,0.287,0.083c0,0.083-0.925,0-0.851,0.342
		c-0.203-0.102-0.175-0.351-0.138-0.499l-0.296,0.222c-0.583-0.276,0.758-0.859,0.102-1.22l-0.324,0.12
		c-0.444-0.259,0.749-0.545-0.148-0.49c-0.314,0.231-0.444,0.739-0.055,0.823c-0.731,0.24-0.056,0.813-0.878,0.924
		c-0.296-0.139,0.637-0.176,0.379-0.396c-0.49-0.177-0.721,0.295-1.091,0.276c0.434,0,0.249,0.425,0,0.536
		c-0.472-0.064,0.148-0.351-0.453-0.268c0,0.203-0.499,0.443,0,0.471c0,0.462-0.656,0-0.841,0.388
		c-0.315-0.249,0.314-0.775-0.398-0.794c0.222,0.249-0.619,0.526-0.101,0.878c-0.287,0-0.407-0.25-0.305-0.453
		c-0.435-0.102-0.647,0.685-1.017,0.157v0.314c-0.148-0.074-0.351-0.111-0.592-0.231c-0.333,0.057-0.841,0.592-1.017,0.157
		c-0.083,0.074-0.822,0.194-0.397,0.435c0.527,0.083,0.416-0.314,0.85,0c-0.471-0.259-0.619,0.166-0.841,0.332l-0.12-0.156
		c-0.12,0.093-0.499,0.13-0.518,0.323c0.074-0.119,0-0.213-0.175-0.23v0.286c-0.546,0.287-0.351-0.397-0.925-0.175l0.352-0.306
		c-0.083,0.064-0.398-0.11-0.638,0c0,0.249-0.065,0.582-0.083,0.785c-0.287,0.186-0.287-0.212-0.49,0.102l0.305-0.379
		c0-0.102-0.481-0.305-0.924-0.185c-0.25,0.148-0.518,0.592,0,0.601c-0.213,0.065-0.61,0-0.518-0.202
		c-0.462,0.202,0.194,0.221-0.176,0.471c-0.249-0.103-0.924-0.166-1.377-0.296l0.259-0.499l-0.314,0.074
		c0.231-0.397-0.324-0.177-0.278-0.546c-0.227,0.034-0.436,0.146-0.591,0.314c0.924,0.351-0.315,0.869,0.138,1.285
		c-0.767,0.342-1.155-0.98-1.617,0c0.212,0.092,0,0.545,0.443,0.276c-0.536,0.083-0.083,0.546-0.794,0.519
		c0.332-0.305-0.758-0.333-0.259-0.786c0,0.166,0.434,0,0.517-0.046c-0.314-0.12-0.221-0.472-0.767-0.333
		c-0.296,0.129-0.739,0.25-0.536,0.48c0.203,0.231,0.471-0.167,0.434,0.166c-0.6,0.26-0.924-0.11-0.924,0.416
		c0.284-0.105,0.603,0.013,0.749,0.277l-0.407,0.241v-0.204c-0.832,0.065,0,0.379-0.804,0.518l-0.536-0.239
		c0-0.37,1.137-0.148,0.712-0.611c-0.481,0.111-0.509,0.37-1.008,0.398l0.268-0.203c-0.175,0-0.73-0.537-1.165,0
		c-0.249,0.258,0,0.203,0.121,0.388c-0.703,0.296-0.814,0.545-1.267,0.729c-0.129-0.379-0.85,0.25-0.564-0.276
		c0.379,0.12,1.424-0.25,1.479-0.675c-0.536-0.324,0.62-0.129,0.509-0.602c-0.592,0.186-0.823-0.23-1.091-0.471
		c-0.185,0-0.277,0.212-0.342,0.277c0.093,0.268,0.296,0.193,0.49,0.452c-0.586,0.084-1.114,0.396-1.47,0.869
		c-0.314,0-0.406-0.313-0.148-0.425c-0.783,0.329-1.597,0.58-2.431,0.748c0.777,0.25-0.767,0.379-0.203,0.601
		c0.481,0,1.017,0.131,0.924,0.38c-0.268,0.056-0.12-0.176-0.286-0.231c-0.157,0.324-0.749-0.185-0.814,0.259
		c0.629-0.36-0.212-0.526-0.314-0.924c-0.388,0.352-0.129-0.232-0.656-0.056c-0.449,0.369-0.943,0.679-1.47,0.924
		c-0.98-0.083-1.848,0.666-2.403,0.925c-0.444,0-0.518-0.453-0.924-0.361c-0.407,0.094,0.61,0.241-0.13,0.343v-0.093
		c-0.12,0.157-1.322,0.24-1.072,0.805l-0.139-0.453c-0.148,0-0.175,0.147-0.231,0.23c-0.111-0.119-0.342-0.175-0.212-0.333
		c-0.601-0.092-0.768,0.38-1.174,0.564l0.462,0.102c-0.536,0.462-1.202,0.444-1.849,0.805l-0.175-0.213l-0.287,0.296
		c-0.102-0.24-0.582-0.212-0.638,0l0.583-0.924c0.406,0-0.084,0.388,0.286,0.508c0.37,0.12,0.924-0.203,0.814-0.443
		c-0.259,0.074-0.232,0.129-0.352,0.277c-0.36-0.26,0-0.398,0-0.666c-0.129,0.064-0.388,0.056-0.332,0.158
		c0.181-0.27,0.448-0.469,0.758-0.564c-0.176,0.231,0.314,0.12,0.286,0.249c-0.203-0.268,0.139-0.517,0.712-0.656
		c0.638,0.148,0.795-0.601,1.479-0.775c-0.023,0.35-0.175,0.679-0.425,0.924c0.489,0,0.406-0.176,0.924-0.203
		c0-0.269-0.111-0.638,0.286-0.925l0.185,0.185c0.37-0.286,0.12-0.573,0.74-0.767c1.044-0.324,2.144-0.61,2.93-0.86l0.175,0.194
		c0.102-0.582,1.332-0.638,1.775-1.026c1.137-0.129,2.034-0.924,2.773-0.729c1.608-0.807,3.314-1.4,5.075-1.766l-0.13,0.397
		c0.204-0.323,0.324,0.12,0.62,0c-0.527-0.148,0.277-0.444,0.406-0.693c0.923-0.05,1.811-0.372,2.552-0.924l0.138,0.203
		c0.546-0.592,1.636-0.471,2.616-0.647c0.206,0.13,0.455,0.173,0.693,0.12c0.342-0.49,0.638-0.508,1.304-0.924
		c0.707-0.129,1.425-0.191,2.144-0.185c1.849-0.925,4.187-1.035,6.276-1.775l0.259,0.222c1.941-0.924,4.807-0.804,6.554-1.387v0.472
		c0.628,0.046,1.275-0.313,1.035-0.609c0.619,0.046,1.386-0.444,1.848-0.13c0.629,0,0.666-0.323,1.147-0.462
		c0.932,0.005,1.862-0.095,2.773-0.297h-0.278c-0.101,0.111-0.055,0.306,0.231,0.297c0.389-0.176,1.581-0.056,1.017-0.546
		c1.285,0.166,2.773-0.582,4.03-0.305c-0.138-0.139,0.157-0.194,0.259-0.305c1.019,0.017,2.037-0.085,3.032-0.306
		c0.176,0.056-0.213,0.277,0.222,0.249c0.24-0.083,0-0.193,0.259-0.305c1.663-0.453,3.549,0,5.102-0.23
		c2.755-0.441,5.532-0.731,8.319-0.869v0.352c0.841-0.48,2.154,0.286,2.773-0.379c0.231,0.101,0.813,0,0.693,0.222
		c0.675-0.342,2.034,0.147,3.013-0.296l-0.258,0.074c1.072,0.185,1.95-0.213,3.078-0.065c-0.102,0.056-0.305,0.111-0.324,0.223
		c0.444,0.185,0.924-0.527,1.248,0c0.071,0,0.13-0.059,0.13-0.129c0-0.072-0.058-0.13-0.129-0.13h-0.001
		c2.496-0.036,4.988-0.23,7.459-0.582c1.849,0.23,0.194,0.924,1.581,0.425c0.12,0.092,0.065-0.203,0.092-0.093
		c0.527-0.166,0.925,0.555,1.257,0.25c-0.175-0.314,0.25-0.194,0.232-0.389c1.118,0.157,1.358,0.453,2.199,0.175l-0.055,0.168
		c0.98-0.51,2.172-0.287,2.986-0.869c5.546-0.306,10.934-0.74,16.388-0.925c5.389,0,10.648-0.389,16.12-0.23
		c0.876,0.376,1.854,0.444,2.773,0.194c-0.055,0.073-0.138,0.092-0.046,0.156c0.056-0.379,0.998-0.064,1.1-0.416
		c2.024,0,3.873-0.119,5.943-0.185c-0.323,0-0.471,0.351-0.083,0.313l0.398-0.239l0.064,0.102c0.259-0.064,0.546-0.25,0.259-0.36
		c5.167-0.481,10.344,0.102,15.4-0.249c1.413,0.026,2.826-0.063,4.224-0.27c3.775,0.375,7.581,0.31,11.341-0.194
		C253.789,428.609,253.085,429.029,252.304,429.136"/>
	<path fill="#50BDC1" d="M179.532,453.095c2.228-1.128,5.472-0.971,7.995-1.784c0.296-0.074,0,0.425,0.657,0.223
		c2.431-0.925,6.47-1.146,9.613-1.018l-0.167,0.148c0.592,0,1.267-0.453,1.895-0.462c0,0.073-0.185,0.129,0,0.222
		c0.13-0.25,1.119-0.241,1.368-0.444c0.25,0.065,0.25,0.25,0.573,0.324l0.333-0.296c0.924-0.712,2.422-0.157,3.744-0.601
		c-0.065,0.073-0.194,0.129-0.074,0.176c2.41-0.491,4.854-0.8,7.311-0.925c-0.092,0.093-0.175,0.277,0,0.369
		c0.111-0.286,0.86-0.396,1.507-0.489c0.314,0.268,1.109-0.343,1.849-0.203l-0.065,0.063c0.554-0.313,0.85,0.158,1.303-0.212
		l0.379,0.212c0.231-0.416,0.823,0.195,1.285,0v-0.083c0.434-0.11,0.675,0.094,1.091,0v0.046c0.924-0.129,1.525,0.074,1.497-0.239
		c0.342,0.25-0.924,0.139-0.388,0.499c3.195-0.304,6.407-0.381,9.613-0.231c0.36,0.139,0.591,0.186,0.675,0.305
		c0.5-0.008,0.998-0.063,1.488-0.166c-0.102,0,0.203,0.166,0.379,0.186c0.573,0.147,0.647-0.324,1.275-0.157
		c-0.258,0.074-0.342,0.175-0.268,0.295c0.63-0.17,1.281-0.244,1.932-0.221c-0.102,0.055-0.268,0.063-0.24,0.175
		c0.712-0.24,1.266,0.139,1.895,0l-0.231,0.167c0.979,0.286,0.305-0.361,1.155-0.176c-0.213,0-0.139,0.12-0.185,0.185
		c0.962-0.154,1.939-0.205,2.912-0.147c-0.016,0.021-0.016,0.052,0,0.074c0.869,0,1.775,0.193,2.773,0.147
		c0.342,0.111-0.148,0.435,0.767,0.443c0-0.36,1.562,0,1.063-0.462c0.831,0.189,1.68,0.289,2.533,0.296
		c-0.361,0.11,0.342,0.49-0.315,0.453l0.472,0.276c-0.083,0.14-0.499-0.101-0.351,0.111c0.521-0.022,1.044,0.002,1.562,0.074
		c0.699-0.282,1.446-0.428,2.2-0.425c-0.472,0.083,0.212,0.434-0.102,0.452l1.442-0.535c0.323,0,0,0.305,0.517,0.268
		c0-0.102,0.204-0.139,0.352-0.194s1.368,0.093,1.46,0.472c0.12,0.166-0.536,0-0.194,0.185c0.592,0.083,0.638-0.046,1.229,0v0.055
		c0.379,0.111,1.184,0,0.786-0.249c-0.277,0,0.074,0.231-0.323,0.065c0.528-0.131,1.08-0.131,1.608,0
		c-0.213,0-0.203,0.12-0.305,0.212c0.871-0.132,1.755-0.166,2.634-0.102c0-0.166-0.379,0.24-0.499,0.139
		c1.109,0.425,2.422,0.083,3.318,0.582c-0.166,0-0.046-0.249,0-0.203c0.546,0.111,0.481,0.351,0.851,0.324
		c0,0.146,0.462,0,0.841,0.055c0.213-0.074,0.083,0.074-0.24,0c1.285-0.009,2.564,0.186,3.789,0.573
		c0-0.092,0.795-0.203,1.073-0.139l-0.148,0.194c0.222,0.185,0.924,0.157,0.924,0.36c0.638-0.157-2.292-0.213-1.46-0.269
		c0.166,0.231,1.164-0.139,0.924,0.13c0.545,0.102,1.128-0.047,1.608,0.268c-0.148-0.064-0.499,0.222-0.064,0.287
		c0.785,0.111,0.249-0.055,0.924,0h0.416c0.074-0.213,0.693,0.185,0.453-0.12c0.055,0.194,1.155,0.129,0.998,0.481l-0.166,0.249
		c0.342,0.056,0.61-0.177,0.924-0.24c0.046,0,0.12,0.11,0.092,0.147c0.148-0.416,0.795,0.212,1.267,0
		c0.675,0.295,1.784,0.397,2.052,0.758c0.571-0.059,1.148,0.009,1.691,0.194c-0.129,0-0.295,0-0.36,0.064
		c0.36,0.222,0.48,0.139,0.85,0.139c-0.092,0,0.712,0.435,1.109,0.693c0.555,0,0.435-0.277,0.527-0.406
		c0.389,0.536,1.572,0.092,2.089,0.637c-0.203,0-0.832,0-0.416,0.231c0.379,0.537,1.063-0.064,1.794,0.333l-0.111-0.397
		c0.305,0.306,1.211,0.092,1.035,0.425c0.296-0.055,0.924,0.352,0.924,0c1.22,0.61,3.18,0.656,3.808,1.479
		c0.195,0,0.638,0.176,0.592,0c-0.25-0.277-0.462,0-0.536-0.139c0.097,0.032,0.204-0.006,0.259-0.093
		c0.369,0.176,0.675,0.286,0.231,0.472c0.832,0.453,1.072-0.333,2.172,0.11c-0.083,0.13,0,0.204,0.314,0.269l0.694-0.064
		c0.721,0.258,0.323,0.425,0.286,0.674c0.398,0.065,0.869,0.214,1.1,0.094l0.397,0.425c-0.286-0.305,0.361-0.057,0.564-0.057h-0.203
		c0.046,0.131,0.518,0.186,0.749,0.223c0-0.157-0.463-0.342-0.703-0.462c0.231-0.046,0.536,0.064,0.832,0
		c-0.148,0.203,0.592,0.342,0.924,0.443c0.333,0.102,0.463-0.093,0.564-0.056c0.102,0.037,0.583,0.185,0.25,0.268
		c-0.13,0-0.241-0.193-0.472-0.138c0.204,0.157,0.121,0.352,0.657,0.333c0.388,0,0-0.48,0.684-0.13c-0.194,0-0.259,0.093-0.426,0.13
		l0.61,0.305l0.093-0.203c0.074,0.073,0,0.073,0,0.119c0.25-0.175,1.007,0.214,1.229,0c0.316,0.136,0.625,0.286,0.925,0.453h-0.065
		c0.373,0.222,0.809,0.31,1.239,0.25v0.046c0.323,0.112,0.665,0.159,1.007,0.14c0.471,0.305-0.065,0.841,0.592,0.748
		c0.536,0.147,0.924-0.139,0.785-0.342c0.925,0.426,2.108,0.406,2.903,0.998c0.157-0.047,0.092-0.119,0.388-0.093
		c1.377,0.499,3.041,0.629,4.049,1.378c-0.435,0-0.093,0.194-0.121,0.323c0.389-0.083,0.342,0.324,0.564,0
		c0-0.194,0.083-0.286-0.286-0.48c0.895,0.132,1.761,0.416,2.56,0.842c-0.203-0.158,0-0.167,0.194-0.158
		c-0.148,0.278,0.462,0.518,0.924,0.546l0.13-0.167l0.249,0.278c0.204,0,0.315-0.324,0.721,0c0,0.087,0.029,0.172,0.084,0.239
		c0.599-0.083,1.21,0,1.765,0.24l0.351,0.398c0.231,0,0.666,0,0.287-0.213c0.85,0.425,1.423,0.609,1.636,0.925
		c1.962,0.035,3.904,0.394,5.749,1.062l-0.101,0.13c0.453,0.269,0.323-0.166,0.628,0c-0.194,0.093,0.287,0.397-0.139,0.453
		c0.657,0.343,0.925,0,1.424,0.074c0.129-0.167-0.388,0-0.24-0.194c0.101-0.047,0.924,0.416,1.1,0.176
		c0.147,0.156-0.047,0.314-0.176,0.397h0.462c0.425,0.472-1.34,0.24-0.924,0.795l0.407,0.064c0.286,0.397-1.128,0-0.176,0.416
		c0.462,0,0.924-0.314,0.591-0.545c0.925,0.166,0.592-0.545,1.535-0.259c0.212,0.239-0.767-0.176-0.647,0.11
		c0.379,0.352,0.924,0.12,1.303,0.314c-0.416-0.231,0-0.397,0.342-0.379c0.444,0.268-0.388,0.176,0.287,0.397
		c0.157-0.13,0.822-0.074,0.314-0.333c0.351-0.296,0.684,0.296,1.128,0.111c0.157,0.313-0.869,0.396-0.148,0.729
		c-0.056-0.276,1.017-0.083,0.721-0.554c0.277,0.147,0.259,0.352,0,0.443c0.379,0.268,1.155-0.166,1.155,0.36l0.176-0.213
		c0.111,0.12,0.286,0.231,0.462,0.436c0.37,0.101,1.294,0,1.155,0.351c0.13,0,0.98,0.231,0.721-0.12
		c-0.48-0.305-0.665,0-0.869-0.397c0.296,0.379,0.777,0.156,1.11,0.147v0.148c0.194,0,0.61,0.139,0.758,0
		c-0.158,0-0.111,0.166,0,0.24l0.24-0.166c0.767,0.083,0.074,0.434,0.813,0.563h-0.591c0.129,0,0.314,0.269,0.684,0.286
		c0.185-0.166,0.499-0.351,0.656-0.48c0.434,0,0.129,0.286,0.582,0.176l-0.591,0.12c-0.102,0.047,0.268,0.426,0.813,0.563
		c0.361,0,0.971-0.138,0.462-0.388c0.278,0.064,0.62,0.287,0.37,0.379c0.638,0.093,0-0.231,0.545-0.231
		c0.176,0.186,0.805,0.556,1.165,0.851l-0.647,0.204l0.379,0.101c-0.545,0.158,0.185,0.268-0.157,0.49
		c0.271,0.09,0.559,0.115,0.841,0.074c-0.619-0.656,0.989-0.435,0.869-0.925c1.044,0.129,0.379,1.184,1.599,0.786
		c-0.148-0.147,0.425-0.352-0.24-0.389c0.61,0.204,0.527-0.323,1.229,0c-0.592,0,0.481,0.573-0.37,0.629
		c0.083-0.129-0.416-0.213-0.554-0.203c0.222,0.221-0.157,0.416,0.49,0.573c0.397,0.055,0.924,0.185,0.924-0.056
		s-0.61-0.12-0.296-0.306c0.795,0.111,0.851,0.509,1.276,0.148c-0.509-0.083-0.573-0.36-0.527-0.527h0.601l-0.148,0.13
		c0.924,0.332,0.342-0.23,1.22,0l0.351,0.416c-0.277,0.222-1.275-0.426-1.229,0.056c0.582,0.147,0.832,0,1.349,0.222h-0.434
		c0.212,0.064,0.277,0.702,1.192,0.545c0.462,0,0.148-0.138,0.204-0.305c0.924,0.167,1.266,0.064,1.848,0.176
		c-0.194,0.296,1.063,0.277,0.315,0.462c-0.609-0.354-1.327-0.468-2.015-0.324c0.249,0.473-0.721-0.221-1.017,0.121
		c0.748,0.185,0.619,0.554,0.693,0.841c0.186,0.042,0.378,0.042,0.564,0c0.148-0.213-0.13-0.277-0.093-0.518
		c0.65,0.281,1.356,0.404,2.062,0.361c0.259,0.175,0.12,0.396-0.222,0.342c1.018,0.158,2.025,0.384,3.013,0.674
		c-0.527-0.518,1.082,0.139,0.73-0.277c-0.489-0.193-0.868-0.563-0.554-0.675c0.314,0.093-0.046,0.167,0.074,0.268
		c0.453-0.119,0.554,0.473,1.026,0.223c-0.925-0.065-0.278,0.443-0.509,0.703c0.694,0-0.074,0.212,0.583,0.351
		c0.759-0.03,1.52,0.004,2.274,0.103c1.018,0.346,2.078,0.551,3.152,0.609c0.406,0.231,0.046,0.518,0.499,0.674
		c0.453,0.158-0.333-0.453,0.443-0.138l-0.092,0.055c0.268,0,1.451,0.519,1.775,0.074l-0.315,0.324c0.142,0.042,0.293,0.042,0.435,0
		c0,0.12,0.148,0.268-0.111,0.305c0.453,0.352,1.063,0.148,1.608,0.223l-0.314-0.278c0.833,0.084,1.66,0.217,2.477,0.397
		l-0.065,0.213h0.564c-0.166,0.185,0.305,0.406,0.62,0.286l-1.498,0.277c-0.36-0.194,0.472-0.185,0.259-0.444
		c-0.353-0.233-0.799-0.278-1.192-0.119c0.192,0.061,0.399,0.061,0.591,0c0.056,0.314-0.425,0.222-0.693,0.379
		c0.166,0,0.388,0.156,0.434,0.064c-0.411,0.091-0.836,0.091-1.247,0c0.397-0.055-0.167-0.222,0-0.287
		c-0.093,0.26-0.638,0.25-1.304,0.057c-0.425-0.398-1.312-0.057-2.08-0.287c0.404-0.222,0.853-0.344,1.313-0.36
		c-0.462-0.23-0.555-0.102-1.017-0.333c-0.33,0.274-0.745,0.424-1.174,0.425v-0.203c-0.6,0-0.656,0.277-1.386,0.074
		c-1.266-0.342-2.57-0.592-3.531-0.832v-0.213c-0.638,0.315-1.849-0.221-2.597-0.194c-1.193-0.452-2.718-0.388-3.273-0.878
		c-2.141-0.302-4.264-0.722-6.359-1.257l0.444-0.193c-0.453,0.11-0.222-0.231-0.629-0.277c0.407,0.342-0.61,0.157-0.924,0.259
		c-1.023-0.405-2.117-0.597-3.217-0.563v-0.204c-0.989,0.147-1.959-0.462-3.059-0.813c-0.149-0.201-0.361-0.347-0.601-0.416
		c-0.64,0.104-1.292,0.104-1.932,0c-0.784-0.211-1.547-0.488-2.283-0.832c-2.542-0.222-4.936-1.183-7.506-1.636l-0.111-0.287
		c-2.578-0.194-5.425-1.515-7.561-1.848l0.315-0.324c-0.61-0.305-1.507-0.323-1.424,0c-0.619-0.305-1.673-0.286-1.996-0.721
		c-0.647-0.269-0.869-0.064-1.433-0.176c-0.985-0.413-2.01-0.724-3.06-0.925l0.305,0.12c0.158-0.046,0.222-0.203-0.083-0.323
		c-0.499,0-1.682-0.609-1.359,0c-1.257-0.666-3.179-0.712-4.372-1.45c0.074,0.156-0.258,0.083-0.425,0.129
		c-1.077-0.437-2.19-0.777-3.327-1.018c-0.167-0.11,0.36-0.129-0.111-0.276c-0.296,0-0.056,0.166-0.435,0.13
		c-1.969-0.307-3.771-1.351-5.546-1.784c-3.143-0.62-6.313-1.646-9.243-2.376l0.065-0.083c-1.082,0.083-2.228-0.98-3.152-0.647
		c-0.213-0.156-0.925-0.268-0.666-0.406c-0.859,0.056-2.144-0.805-3.374-0.759h0.296c-1.109-0.48-2.191-0.443-3.374-0.924
		c0.139,0,0.361,0,0.425-0.074c-0.425-0.296-1.201,0.13-1.358-0.379c-0.268-0.064-0.25,0.176-0.074,0.203
		c-2.758-0.707-5.558-1.237-8.384-1.59c-1.95-0.665,0-0.795-1.617-0.758c-0.121-0.12-0.13,0.147-0.13,0.056
		c-0.638,0-0.86-0.692-1.331-0.545c0.12,0.314-0.314,0.102-0.36,0.269c-1.193-0.427-1.396-0.703-2.413-0.657l0.102-0.138
		c-1.211,0.221-2.496-0.231-3.54,0.092c-6.304-0.924-12.386-1.396-18.561-1.85c-6.175-0.451-12.1-0.619-18.33-0.821
		c-1.015-0.373-2.117-0.44-3.17-0.194c0.065-0.065,0.166-0.084,0.055-0.139c-0.064,0.323-1.127,0.055-1.275,0.379
		c-2.292,0-4.418,0.12-6.775,0.276c0.369-0.055,0.536-0.332,0.101-0.285l-0.453,0.239l-0.083-0.092
		c-0.305,0.064-0.619,0.249-0.296,0.332c-5.915,0.555-11.794,0.49-17.562,1.248c-1.618,0.104-3.226,0.339-4.806,0.703
		c-4.357,0.066-8.695,0.594-12.941,1.571C177.323,454.658,177.71,453.603,179.532,453.095"/>
	<path fill="#50BDC1" d="M287.013,519.129c-1.488,1.507-4.159,1.701-6.045,2.773c-0.231,0.11-0.083-0.462-0.582-0.186
		c-1.747,1.34-5.066,1.738-7.608,1.803l0.12-0.157c-0.48,0-0.924,0.592-1.478,0.601c0-0.083,0.138-0.147,0-0.249
		c-0.074,0.286-0.879,0.277-1.054,0.499c-0.222-0.064-0.231-0.268-0.509-0.333l-0.24,0.342c-0.684,0.832-1.95,0.277-2.976,0.832
		c0-0.083,0.138-0.147,0-0.203c-1.93,0.55-3.903,0.933-5.898,1.146c0.074-0.111,0.139-0.305,0-0.416
		c-0.083,0.313-0.684,0.425-1.22,0.517c-0.249-0.313-0.924,0.333-1.525,0.186l0.046-0.064c-0.452,0.352-0.693-0.158-1.053,0.258
		l-0.305-0.239c-0.194,0.453-0.675-0.203-1.054,0.046v0.093c-0.361,0.129-0.545-0.111-0.924,0v-0.046
		c-0.786,0.12-1.248-0.13-1.221,0.221c-0.277-0.286,0.758-0.129,0.324-0.545c-2.592,0.319-5.209,0.365-7.811,0.139
		c-0.286-0.157-0.471-0.203-0.536-0.342c-0.412,0.016-0.821,0.077-1.22,0.186c0.102,0-0.148-0.195-0.286-0.223
		c-0.463-0.167-0.537,0.352-1.036,0.148c0.204-0.074,0.287-0.186,0.222-0.324c-0.505,0.172-1.039,0.241-1.571,0.203
		c0.092-0.046,0.212-0.074,0.203-0.184c-0.601,0.268-1.035-0.148-1.543,0l0.203-0.186c-0.777-0.305-0.268,0.406-0.924,0.212
		c0.166-0.055,0.12-0.138,0.157-0.222c-0.775,0.185-1.575,0.238-2.367,0.158v-0.084c-0.732-0.092-1.47-0.132-2.209-0.12
		c-0.268-0.12,0.139-0.49-0.61-0.49c0,0.416-1.285,0.047-0.924,0.555c-0.665-0.202-1.357-0.309-2.052-0.313
		c0.305-0.12-0.25-0.536,0.277-0.519l-0.37-0.285c0.074-0.167,0.398,0.101,0.287-0.121c-0.424,0.047-0.852,0.047-1.276,0
		c-0.555,0.35-1.192,0.551-1.848,0.583c0.388-0.12-0.167-0.473,0.101-0.519l-1.201,0.656c-0.268,0,0-0.323-0.407-0.268
		c0,0.11-0.166,0.156-0.286,0.23c-0.121,0.074-1.119,0-1.184-0.443c-0.092-0.176,0.444,0,0.167-0.213
		c-0.49-0.055-0.527,0.083-1.008,0v-0.055c-0.314-0.093-0.924,0.055-0.647,0.332c0.222,0-0.055-0.258,0.268-0.092
		c-0.41,0.189-0.87,0.242-1.312,0.147c0.166-0.046,0.166-0.156,0.249-0.259c-0.698,0.195-1.419,0.297-2.144,0.305
		c0,0.194,0.314-0.323,0.407-0.202c-0.925-0.38-1.969,0.147-2.7-0.333c0.13,0,0,0.276,0,0.222c-0.452-0.074-0.397-0.353-0.702-0.278
		c0-0.166-0.37,0-0.675,0s-0.064-0.092,0.194-0.083c-1.034,0.133-2.085,0.071-3.096-0.185c0,0.11-0.629,0.324-0.851,0.296
		l0.111-0.249c-0.194-0.167-0.748-0.056-0.767-0.269c-0.508,0.249,1.849-0.064,1.183,0.102c-0.138-0.24-0.924,0.305-0.767,0
		c-0.453-0.046-0.924,0.194-1.312-0.083c0.12,0.055,0.406-0.305,0-0.333c-0.647,0-0.195,0.102-0.721,0.13l-0.342,0.064
		c0,0.24-0.564-0.083-0.352,0.213c-0.064-0.213-0.924,0.046-0.841-0.37l0.12-0.314c-0.277,0-0.48,0.306-0.711,0.425
		c0,0-0.102-0.101-0.084-0.156c-0.083,0.489-0.647-0.093-1.016,0.259c-0.555-0.222-1.461-0.148-1.71-0.481
		c-0.437,0.164-0.912,0.199-1.368,0.103c0.101,0,0.24-0.046,0.277-0.148c-0.296-0.166-0.397,0-0.693,0
		c0.064-0.074-0.62-0.333-0.925-0.526c-0.453,0.11-0.314,0.388-0.379,0.555c-0.369-0.509-1.266,0.24-1.737-0.241
		c0.157-0.055,0.656-0.193,0.295-0.342c-0.369-0.508-0.831,0.305-1.469,0l0.138,0.416c-0.277-0.268-0.924,0.176-0.924-0.231
		c-0.222,0.12-0.767-0.166-0.712,0.223c-1.053-0.379-2.606,0.102-3.244-0.628c-0.148,0.063-0.536,0-0.462,0.184
		c0.249,0.232,0.36-0.146,0.453,0c-0.095,0.006-0.174,0.074-0.194,0.167c-0.324-0.111-0.592-0.147-0.259-0.453
		c-0.73-0.276-0.786,0.639-1.729,0.444c0-0.167,0-0.222-0.296-0.213l-0.526,0.268c-0.61-0.083-0.342-0.379-0.352-0.656
		c-0.323,0-0.721,0-0.878,0.231l-0.388-0.351c0.287,0.258-0.277,0.166-0.425,0.23l0.148-0.064c-0.056-0.12-0.435-0.065-0.62,0
		c0,0.166,0.426,0.25,0.638,0.305c-0.175,0.12-0.434,0.083-0.656,0.222c0.074-0.276-0.536-0.204-0.795-0.241
		c-0.259-0.035-0.342,0.241-0.425,0.232c-0.083-0.01-0.481,0-0.25-0.232c0.102,0,0.231,0.148,0.398,0
		c-0.194-0.109-0.167-0.351-0.583-0.175c-0.416,0.175,0.074,0.527-0.508,0.352c0.157-0.065,0.185-0.177,0.305-0.269l-0.536-0.147
		v0.25c-0.074-0.065,0-0.083-0.065-0.12c-0.166,0.258-0.822,0.063-0.924,0.359c-0.268,0-0.573-0.166-0.832-0.193h0.046
		c-0.341-0.112-0.714-0.065-1.017,0.129v-0.055c-0.278-0.018-0.555,0.041-0.804,0.166c-0.443-0.186-0.148-0.925-0.647-0.619
		c-0.443,0-0.693,0.453-0.508,0.609c-0.814-0.156-1.729,0.24-2.477-0.12c-0.121,0.103,0,0.166-0.278,0.231
		c-1.183-0.074-2.486,0.36-3.438-0.111c0.342-0.11,0-0.239,0-0.388c-0.277,0.231-0.351-0.213-0.435,0.166
		c0,0.222,0,0.333,0.333,0.416c-0.712,0.16-1.451,0.16-2.163,0c0.194,0.093,0.056,0.166-0.101,0.24c0-0.36-0.481-0.389-0.869-0.249
		v0.222l-0.259-0.213c-0.148,0.074-0.148,0.462-0.546,0.268l-0.129-0.23c-0.388,0.193-0.924,0.526-1.405,0.36l-0.379-0.296
		c-0.185,0-0.49,0.249-0.148,0.323c-0.767-0.157-1.248-0.129-1.506-0.388c-1.447,0.673-3.027,1.011-4.622,0.989v-0.166
		c-0.416-0.111-0.185,0.296-0.481,0.212c0.12-0.166-0.342-0.306,0-0.518c-0.591-0.12-0.721,0.352-1.09,0.453
		c0,0.222,0.295-0.167,0.249,0.111c-0.055,0.074-0.813-0.093-0.869,0.23c-0.157-0.11-0.074-0.352,0-0.499l-0.342,0.194
		c-0.471-0.342,0.925-0.768,0.425-1.184l-0.323,0.073c-0.333-0.305,0.832-0.462,0-0.499c-0.333,0.194-0.601,0.685-0.268,0.795
		c-0.73,0.157-0.268,0.796-1.063,0.852c-0.24-0.167,0.619-0.111,0.444-0.353c-0.398-0.222-0.74,0.204-1.073,0.157
		c0.379,0.084,0.093,0.444-0.129,0.527c-0.425-0.102,0.222-0.332-0.342-0.305c-0.083,0.203-0.582,0.397-0.12,0.48
		c-0.157,0.435-0.601-0.055-0.869,0.305c-0.222-0.276,0.499-0.749-0.139-0.822c0.13,0.277-0.73,0.48-0.342,0.859
		c-0.259-0.056-0.314-0.276-0.148-0.48c-0.369-0.129-0.795,0.62-0.97,0.064l-0.083,0.314c-0.13-0.083-0.287-0.148-0.481-0.277
		c-0.305,0-0.924,0.519-0.971,0.074c-0.092,0.055-0.795,0.129-0.489,0.397c0.462,0.13,0.471-0.286,0.776,0.093
		c-0.351-0.296-0.629,0.129-0.869,0.276l-0.065-0.166c-0.138,0.083-0.49,0.102-0.554,0.297c0.101-0.111,0-0.223-0.093-0.25
		l-0.12,0.286c-0.591,0.203-0.203-0.435-0.786-0.277l0.426-0.259c-0.102,0.056-0.324-0.157-0.601-0.047
		c-0.083,0.26-0.25,0.556-0.314,0.759c-0.315,0.147-0.185-0.24-0.481,0l0.388-0.343c0.056-0.083-0.342-0.342-0.795-0.285
		c-0.277,0.119-0.665,0.535-0.194,0.591c-0.222,0-0.554-0.056-0.407-0.259c-0.499,0.157,0.102,0.24-0.314,0.463
		c-0.203-0.131-0.795-0.269-1.165-0.444l0.398-0.462h-0.314c0.351-0.37-0.231-0.204-0.056-0.573
		c-0.236,0.017-0.461,0.104-0.647,0.249c0.693,0.444-0.564,0.832-0.305,1.285c-0.804,0.259-0.712-1.091-1.451-0.203
		c0.157,0.111-0.185,0.536,0.314,0.323c-0.536,0-0.268,0.546-0.924,0.443c0.416-0.276-0.564-0.406,0-0.804
		c0,0.166,0.388,0.055,0.471,0c-0.24-0.147,0-0.499-0.564-0.407c-0.314,0.103-0.748,0.194-0.647,0.435
		c0.102,0.241,0.49-0.12,0.324,0.195c-0.619,0.212-0.795-0.195-0.98,0.351c0.212-0.088,0.456,0.013,0.544,0.225
		c0.015,0.037,0.025,0.077,0.029,0.117l-0.453,0.203l0.065-0.203c-0.776,0-0.166,0.37-0.924,0.453l-0.407-0.305
		c0.111-0.343,1.081-0.047,0.86-0.536c-0.481,0.055-0.592,0.351-1.063,0.295l0.323-0.157c-0.166,0-0.471-0.638-1.081-0.111
		c-0.315,0.214-0.056,0.194,0,0.38c-0.749,0.213-0.925,0.443-1.424,0.572c0-0.388-0.869,0.14-0.406-0.351
		c0.577,0.131,1.181-0.052,1.589-0.481c-0.36-0.378,0.61-0.046,0.694-0.525c-0.62,0.101-0.657-0.333-0.814-0.602
		c-0.156,0.039-0.3,0.119-0.416,0.231c0,0.286,0.194,0.24,0.259,0.508c-0.61,0.03-1.19,0.268-1.645,0.675
		c-0.259-0.092-0.241-0.37,0-0.443c-0.803,0.229-1.627,0.382-2.459,0.452c0.592,0.333-0.841,0.287-0.416,0.573
		c0.435,0,0.85,0.25,0.656,0.49c-0.258,0,0-0.194-0.157-0.259c-0.277,0.305-0.582-0.269-0.832,0.167
		c0.703-0.296,0-0.556,0.093-0.925c-0.49,0.314,0-0.24-0.555-0.13c-0.532,0.325-1.1,0.589-1.691,0.786
		c-0.814-0.147-1.849,0.416-2.533,0.582c-0.379-0.092-0.24-0.526-0.629-0.508c-0.388,0.019,0.416,0.332-0.277,0.314l0.046-0.083
		c-0.175,0.12-1.266,0-1.321,0.609l0.11-0.462c-0.129,0-0.221,0.111-0.314,0.175c0-0.129-0.203-0.212,0-0.351
		c-0.471-0.185-0.841,0.25-1.275,0.37l0.332,0.175c-0.64,0.219-1.295,0.392-1.959,0.518v-0.25l-0.398,0.26
		c0-0.26-0.388-0.306-0.564-0.064l0.98-0.859c0.342,0.064-0.268,0.369,0,0.563c0.346,0.124,0.732-0.011,0.925-0.324
		c-0.259,0-0.268,0.094-0.444,0.231c-0.157-0.305,0.222-0.388,0.37-0.665c-0.13,0.046-0.352,0-0.342,0.111
		c0.26-0.229,0.581-0.376,0.924-0.426c-0.268,0.203,0.213,0.157,0.12,0.286c0-0.305,0.37-0.499,0.925-0.545
		c0.471,0.249,0.979-0.453,1.626-0.518c-0.181,0.374-0.459,0.692-0.804,0.924c0.425,0.056,0.435-0.11,0.869-0.064
		c0.1-0.385,0.345-0.716,0.684-0.925l0.074,0.222c0.444-0.222,0.37-0.545,0.989-0.618c1.054-0.14,2.108-0.37,2.902-0.499
		l0.074,0.212c0.333-0.563,1.424-0.49,1.969-0.822c1.045,0,2.145-0.638,2.727-0.361c1.675-0.536,3.39-0.935,5.13-1.191l-0.259,0.379
		c0.296-0.287,0.25,0.147,0.564,0.046c-0.407-0.203,0.388-0.407,0.592-0.647c0.903,0.022,1.796-0.205,2.578-0.655l0.056,0.212
		c0.675-0.536,1.627-0.296,2.551-0.352c0.157,0.153,0.373,0.231,0.592,0.213c0.416-0.351,0.901-0.611,1.423-0.768
		c0.66-0.078,1.327-0.078,1.987,0c1.969-0.748,4.077-0.647,6.166-1.136l0.175,0.258c1.997-0.776,4.567-0.397,6.304-0.822
		l-0.148,0.462c0.564,0.102,1.248-0.193,1.082-0.509c0.554,0.121,1.359-0.286,1.738,0.074c0.573,0.064,0.674-0.24,1.146-0.314
		c0.871,0.096,1.75,0.073,2.616-0.064h-0.268c-0.111,0.102-0.111,0.296,0.148,0.314c0.388-0.13,1.46,0.083,1.044-0.443
		c1.146,0.287,2.644-0.314,3.762,0.073c-0.083-0.147,0.185-0.185,0.305-0.286c0.942,0.125,1.896,0.125,2.838,0
		c0.166,0.073-0.25,0.25,0.157,0.277c0.249-0.064,0-0.204,0.296-0.277c1.627-0.286,3.272,0.268,4.742,0.24
		c2.61-0.157,5.227-0.157,7.838,0v0.111c0.85-0.389,1.941,0.499,2.634-0.093c0.185,0.102,0.758,0.083,0.601,0.287
		c0.684-0.25,1.849,0.396,2.838,0.083l-0.241,0.046c0.925,0.305,1.849,0,2.847,0.324c-0.101,0-0.295,0.055-0.332,0.165
		c0.379,0.231,0.97-0.379,1.146,0.157c0.066,0.027,0.141-0.006,0.168-0.071c0.026-0.066-0.006-0.143-0.072-0.169
		c-0.016-0.006-0.033-0.01-0.05-0.009c2.319,0.272,4.653,0.408,6.988,0.406c1.627,0.49,0,0.925,1.359,0.638
		c0.092,0.111,0.101-0.185,0.111-0.083c0.526-0.093,0.721,0.665,1.109,0.435c-0.111-0.332,0.249-0.157,0.286-0.342
		c0.989,0.305,1.156,0.619,1.988,0.48l-0.084,0.157c0.999-0.37,2.062,0,2.912-0.425c5.195,0.499,10.168,0.822,15.187,1.248
		c4.945,0.609,9.789,0.675,14.789,1.044c0.791,0.394,1.699,0.482,2.551,0.25c-0.055,0.073-0.138,0.083-0.055,0.156
		c0.065-0.369,0.924-0.046,1.035-0.388c1.849,0,3.54-0.194,5.426-0.277c-0.296,0.056-0.434,0.36-0.065,0.323l0.351-0.25l0.065,0.093
		c0.241-0.056,0.49-0.276,0.231-0.36c4.668-0.794,9.419-0.619,13.921-1.922c1.275-0.188,2.519-0.548,3.697-1.072
		c3.474-0.433,6.846-1.469,9.964-3.06C288.409,517.328,288.344,518.372,287.013,519.129"/>
	<path fill-rule="evenodd" clip-rule="evenodd" fill="#E3D7C2" d="M732.374,527.116c0,0-84.789-25.881-448.67,11.637
		C61.134,561.713,8.142,527.116,8.142,527.116v63.391H841.89C836.187,569.801,848.285,541.22,732.374,527.116"/>
	<path fill="#50BDC1" d="M209.646,498.729c0.213-0.11,0.157,0.148,0.194,0.166C209.646,498.923,209.896,498.693,209.646,498.729"/>
	<path fill="#50BDC1" d="M217.208,451.884c0.065-0.157,0.924-0.23,1.387-0.222L217.208,451.884z"/>
	<path fill="#50BDC1" d="M213.63,451.081c-0.305-0.148-0.222-0.223,0.203-0.203C213.861,450.96,213.722,450.998,213.63,451.081"/>
	<path fill="#50BDC1" d="M213.344,451.431c-0.213-0.005-0.42-0.075-0.592-0.203C212.78,451.358,213.473,451.164,213.344,451.431"/>
	<polygon fill="#50BDC1" points="310.524,337.697 310.455,337.697 310.455,337.337 	"/>
</g>
<g opacity="0.49">
	<g>
		<defs>
			<rect id="SVGID_1_" x="431.729" y="419.602" width="1" height="0.402"/>
		</defs>
		<clipPath id="SVGID_2_">
			<use xlink:href="#SVGID_1_"  overflow="visible"/>
		</clipPath>
		<path clip-path="url(#SVGID_2_)" fill="#393830" d="M432.729,419.708c-1.58,0,0.79,0.579-1,0.119
			C432.003,419.578,432.404,419.53,432.729,419.708"/>
	</g>
</g>
<g opacity="0.49">
	<g>
		<defs>
			<rect id="SVGID_3_" x="434.595" y="419.827" width="0.857" height="1"/>
		</defs>
		<clipPath id="SVGID_4_">
			<use xlink:href="#SVGID_3_"  overflow="visible"/>
		</clipPath>
		<path clip-path="url(#SVGID_4_)" fill="#393830" d="M434.619,419.827c0.31,0.351,1.39,0.631,0.47,1
			C435.009,420.487,434.479,420.097,434.619,419.827"/>
	</g>
</g>
<g opacity="0.49">
	<g>
		<defs>
			<rect id="SVGID_5_" x="463.599" y="424.211" width="1" height="0.384"/>
		</defs>
		<clipPath id="SVGID_6_">
			<use xlink:href="#SVGID_5_"  overflow="visible"/>
		</clipPath>
		<path clip-path="url(#SVGID_6_)" fill="#393830" d="M464.079,424.237c0-0.1,0.42,0.13,0.52,0.181c-0.37,0-0.71,0.29-1,0.13
			C463.969,424.557,463.898,424.407,464.079,424.237"/>
	</g>
</g>
<g opacity="0.49">
	<g>
		<defs>
			<rect id="SVGID_7_" x="468.969" y="424.477" width="2.69" height="0.55"/>
		</defs>
		<clipPath id="SVGID_8_">
			<use xlink:href="#SVGID_7_"  overflow="visible"/>
		</clipPath>
		<path clip-path="url(#SVGID_8_)" fill="#393830" d="M471.659,424.477c-0.11,0.28-1.73,0.51-2.69,0.55L471.659,424.477z"/>
	</g>
</g>
<g opacity="0.49">
	<g>
		<defs>
			<rect id="SVGID_9_" x="478.353" y="425.607" width="0.776" height="0.37"/>
		</defs>
		<clipPath id="SVGID_10_">
			<use xlink:href="#SVGID_9_"  overflow="visible"/>
		</clipPath>
		<path clip-path="url(#SVGID_10_)" fill="#393830" d="M478.749,425.607c0.63,0.23,0.46,0.37-0.39,0.37
			C478.309,425.827,478.579,425.748,478.749,425.607"/>
	</g>
</g>
<g opacity="0.49">
	<g>
		<defs>
			<rect id="SVGID_11_" x="479.241" y="424.955" width="1.208" height="0.313"/>
		</defs>
		<clipPath id="SVGID_12_">
			<use xlink:href="#SVGID_11_"  overflow="visible"/>
		</clipPath>
		<path clip-path="url(#SVGID_12_)" fill="#393830" d="M479.259,424.958c0.419-0.021,0.834,0.089,1.19,0.31
			C480.429,425.027,479.069,425.437,479.259,424.958"/>
	</g>
</g>
<g opacity="0.49">
	<g>
		<defs>
			<rect id="SVGID_13_" x="494.788" y="424.729" width="1.551" height="0.338"/>
		</defs>
		<clipPath id="SVGID_14_">
			<use xlink:href="#SVGID_13_"  overflow="visible"/>
		</clipPath>
		<path clip-path="url(#SVGID_14_)" fill="#393830" d="M494.819,424.917c0.369-0.051,1.149-0.351,1.52-0.07
			C495.898,424.667,494.569,425.357,494.819,424.917"/>
	</g>
</g>
<g opacity="0.49">
	<g>
		<defs>
			<rect id="SVGID_15_" x="501.899" y="423.777" width="0.77" height="0.4"/>
		</defs>
		<clipPath id="SVGID_16_">
			<use xlink:href="#SVGID_15_"  overflow="visible"/>
		</clipPath>
		<path clip-path="url(#SVGID_16_)" fill="#393830" d="M501.898,423.837c0.199,0.027,0.401,0.008,0.591-0.061
			c0.43,0.09,0,0.34-0.341,0.4L501.898,423.837z"/>
	</g>
</g>
<g opacity="0.49">
	<g>
		<defs>
			<rect id="SVGID_17_" x="438.899" y="425.937" width="0.77" height="0.28"/>
		</defs>
		<clipPath id="SVGID_18_">
			<use xlink:href="#SVGID_17_"  overflow="visible"/>
		</clipPath>
		<polygon clip-path="url(#SVGID_18_)" fill="#393830" points="438.898,426.087 439.669,425.937 439.559,426.217 		"/>
	</g>
</g>
<g opacity="0.49">
	<g>
		<defs>
			<rect id="SVGID_19_" x="422.899" y="424.714" width="0.689" height="0.328"/>
		</defs>
		<clipPath id="SVGID_20_">
			<use xlink:href="#SVGID_19_"  overflow="visible"/>
		</clipPath>
		<path clip-path="url(#SVGID_20_)" fill="#393830" d="M422.898,424.797c0.73-0.271,0.561,0.2,0.69,0.229
			C422.949,425.137,423.839,424.637,422.898,424.797"/>
	</g>
</g>
<g opacity="0.49">
	<g>
		<defs>
			<rect id="SVGID_21_" x="452.959" y="419.777" width="0.23" height="0.59"/>
		</defs>
		<clipPath id="SVGID_22_">
			<use xlink:href="#SVGID_21_"  overflow="visible"/>
		</clipPath>
		<polygon clip-path="url(#SVGID_22_)" fill="#393830" points="453.188,420.367 452.959,420.367 452.959,419.777 		"/>
	</g>
</g>
<g>
	<path fill="#50BDC1" d="M476.959,393.177c-0.88,0.17,0.51,0.26-0.57,0.19C476.508,393.175,476.748,393.095,476.959,393.177"/>
	<path fill="#50BDC1" d="M478.029,393.027c0.21,0.181,0.85,0.22,0.38,0.53C478.319,393.387,477.979,393.237,478.029,393.027"/>
	<path fill="#50BDC1" d="M494.819,393.677c0-0.06,0.239,0.069,0.3,0.09c-0.2,0-0.391,0.2-0.561,0.11
		C494.759,393.857,494.729,393.767,494.819,393.677"/>
	<path fill="#50BDC1" d="M499.069,393.557c-0.061,0.18-1,0.37-1.49,0.42L499.069,393.557z"/>
	<path fill="#50BDC1" d="M503.059,394.097c0.351,0.13,0.26,0.22-0.199,0.229C502.818,394.237,502.969,394.237,503.059,394.097"/>
	<path fill="#50BDC1" d="M503.319,393.698c0.232-0.022,0.467,0.037,0.659,0.17C503.969,393.717,503.219,393.987,503.319,393.698"/>
	<path fill="#50BDC1" d="M511.898,393.927c0.211,0,0.65-0.17,0.851,0C512.559,393.817,511.779,394.237,511.898,393.927"/>
	<path fill="#50BDC1" d="M515.898,393.586c0.108,0.031,0.223,0.031,0.33,0c0.24,0.08,0,0.211-0.21,0.23L515.898,393.586z"/>
	<path fill="#50BDC1" d="M488.799,429.877c0.7,0-0.32-0.36,0.47-0.07c-0.089,0.146-0.279,0.192-0.426,0.102
		C488.827,429.9,488.813,429.889,488.799,429.877"/>
	<path fill="#50BDC1" d="M306.819,462.647c2.21-0.92,5.21-0.25,7.6-1.09c0.28-0.06,0,0.51,0.62,0.33c2.28-1,6-1.12,9-1.21
		l-0.14,0.17c0.57,0,1.13-0.6,1.72-0.65c0,0.09-0.16,0.17,0,0.271c0.09-0.29,1-0.351,1.2-0.62c0.25,0,0.28,0.28,0.6,0.33l0.25-0.391
		c0.73-1,2.22-0.489,3.35-1.18c0,0.09-0.15,0.17,0,0.22c1.85-1,4.33-1.579,6.45-2.43c-0.05,0.14-0.07,0.36,0.09,0.44
		c0-0.36,0.65-0.65,1.21-0.9c0.37,0.25,0.9-0.62,1.64-0.65v0.091c0.39-0.511,0.82,0,1.08-0.58l0.4,0.149c0.06-0.54,0.81,0,1.14-0.39
		v-0.09c0.35-0.25,0.63-0.08,1-0.29h0.05c0.8-0.41,1.39-0.32,1.24-0.68c0.4,0.189-0.77,0.409-0.16,0.68
		c2.711-1.26,5.485-2.382,8.31-3.36c0.37,0,0.59,0,0.71,0.101c0.25-0.181,1-0.46,1.2-0.74c-0.09,0,0.25,0.12,0.4,0.08
		c0.56-0.05,0.4-0.601,1-0.65c-0.18,0.181-0.22,0.32-0.09,0.431c0.449-0.424,0.971-0.763,1.54-1c-0.06,0.09-0.18,0.18-0.12,0.289
		c0.49-0.55,1.14-0.359,1.6-0.76l-0.12,0.28c1-0.08,0.09-0.53,0.89-0.67c-0.15,0.13-0.06,0.189-0.06,0.29
		c0.683-0.51,1.435-0.924,2.229-1.23v0.101c0.805-0.275,1.586-0.609,2.34-1c0.341,0,0.091,0.54,0.861,0.16
		c-0.191-0.4,1.289-0.69,0.649-1c0.782-0.154,1.541-0.406,2.26-0.75c-0.25,0.27,0.521,0.39,0,0.63l0.521,0.09
		c0,0.189-0.461,0.109-0.25,0.27c0.425-0.246,0.869-0.457,1.33-0.63c0.43-0.45,0.74-1.109,1.58-1.479
		c-0.34,0.31,0.399,0.38,0.149,0.55l0.91-1.24c0.28-0.12,0.18,0.311,0.56,0.05c-0.06-0.1,0.09-0.239,0.19-0.37
		c0.101-0.13,1.159-0.529,1.43-0.159c0.181,0.119-0.44,0.25-0.069,0.29c0.529-0.19,0.5-0.341,1-0.54c0.369-0.061,1-0.551,0.51-0.641
		c-0.25,0.07,0.18,0.22-0.221,0.22c0.332-0.4,0.785-0.682,1.291-0.8c-0.16,0.13-0.101,0.23-0.131,0.37
		c0.633-0.538,1.336-0.984,2.09-1.33c0-0.2-0.18,0.46-0.33,0.4c1.121-0.07,2-1.101,3-1c-0.129,0.08-0.17-0.26-0.14-0.2
		c0.511-0.14,0.58,0.16,0.87,0c0.09,0.16,0.391-0.18,0.71-0.34c0.13-0.18,0.11,0.06-0.17,0.16c1.039-0.608,2.183-1.019,3.37-1.21
		c0.186-0.337,0.499-0.586,0.87-0.69v0.29c0.271,0.1,0.84-0.22,0.93,0c0.49-0.49-2,0.82-1.38,0.39c0.23,0.15,1-0.72,0.88-0.31
		c0.5-0.13,0.92-0.55,1.46-0.41c-0.15,0-0.32,0.47,0.08,0.351c0.71-0.221,0.17-0.181,0.73-0.41l0.34-0.2
		c0-0.271,0.65-0.12,0.32-0.35c0.14,0.189,1-0.381,1,0.069v0.36c0.299-0.101,0.42-0.48,0.629-0.69c0,0,0.15,0.07,0.141,0.13
		c-0.07-0.529,0.75-0.13,1-0.63c0.689,0,1.66-0.37,2-0.12c0.431-0.325,0.943-0.529,1.479-0.59c-0.1,0.08-0.26,0.13-0.26,0.25
		c0.391,0.07,0.45-0.09,0.76-0.25c0,0.09,0.79,0.13,1.23,0.23c0.46-0.271,0.229-0.51,0.229-0.7c0.57,0.4,1.33-0.66,2-0.32
		c-0.159,0.11-0.67,0.42-0.229,0.45c0.57,0.41,0.83-0.59,1.63-0.51l-0.28-0.391c0.391,0.19,1-0.489,1,0
		c0.21-0.21,0.9-0.06,0.721-0.449c1.29,0.08,2.899-0.88,3.81-0.28c0.16-0.11,0.61-0.13,0.47-0.32c-0.34-0.17-0.37,0.25-0.51,0.12
		c0.102-0.031,0.17-0.124,0.17-0.229c0.4,0,0.7,0,0.42,0.399c0.891,0.08,0.71-0.89,1.82-1c0,0.181,0.08,0.23,0.39,0.141l0.53-0.42
		c0.7-0.08,0.48,0.31,0.55,0.6c0.36-0.13,0.811-0.21,0.931-0.47l0.52,0.279c-0.38-0.199,0.271-0.239,0.43-0.34l-0.159,0.101
		c0.09,0.109,0.51,0,0.72-0.131c-0.09-0.17-0.54-0.159-0.79-0.159c0.16-0.17,0.46-0.19,0.68-0.4c0,0.3,0.641,0.08,0.94,0.06
		c0.3-0.02,0.33-0.329,0.43-0.35c0,0.15,0.55-0.08,0.33,0.18c-0.11,0.07-0.29-0.09-0.46,0.08c0.24,0.07,0.27,0.33,0.689,0.051
		c0.421-0.28-0.199-0.551,0.49-0.5c-0.16,0.109-0.17,0.229-0.279,0.359h0.649v-0.27c0.101,0,0,0.08,0.09,0.109
		c0.13-0.31,0.931-0.27,1-0.609c0.333-0.03,0.667-0.03,1,0h-0.05c0.408,0.056,0.82-0.068,1.13-0.34v0.06
		c0.321-0.036,0.627-0.153,0.891-0.34c0.54,0.109,0.35,1,0.85,0.53c0.51-0.101,0.71-0.631,0.479-0.761
		c0.95,0,1.921-0.609,2.841-0.359c0.109-0.13,0-0.181,0.279-0.29c1.37-0.11,2.82-0.771,4-0.431c-0.38,0.17,0,0.271,0,0.42
		c0.29-0.29,0.431,0.181,0.48-0.239c-0.07-0.23-0.05-0.351-0.45-0.391c0.803-0.29,1.661-0.393,2.51-0.3
		c-0.239-0.08-0.08-0.18,0.09-0.27c0,0.39,0.61,0.37,1,0.17v-0.24l0.33,0.2c0.16-0.101,0.12-0.51,0.601-0.351l0.17,0.23
		c0.452-0.365,1.019-0.556,1.6-0.54l0.46,0.28c0.21-0.07,0.551-0.32,0.16-0.37c0.9,0.09,1.46,0,1.771,0.3
		c1.672-0.815,3.501-1.255,5.359-1.29v0.18c0.49,0.11,0.21-0.33,0.55-0.25c-0.14,0.181,0.391,0.33,0,0.57
		c0.69,0.13,0.841-0.37,1.271-0.49c0.05-0.24-0.34,0.181-0.28-0.12c0.07-0.09,1,0.101,1-0.25c0.181,0.12,0.07,0.391,0,0.54
		l0.4-0.199c0.54,0.369-1.08,0.819-0.51,1.279l0.369-0.09c0.391,0.34-1,0.49,0,0.54c0.4-0.21,0.711-0.74,0.33-0.86
		c0.851-0.17,0.33-0.859,1.261-0.909c0.27,0.18-0.74,0.109-0.54,0.38c0.46,0.25,0.859-0.23,1.26-0.16
		c-0.44-0.101-0.1-0.48,0.17-0.561c0.48,0.131-0.28,0.351,0.39,0.341c0.101-0.21,0.7-0.41,0.16-0.511c0.21-0.47,0.7,0.07,1-0.31
		c0.24,0.31-0.64,0.79,0.101,0.899c-0.141-0.3,0.88-0.46,0.46-0.899c0.158,0.019,0.272,0.163,0.254,0.322
		c-0.009,0.078-0.05,0.149-0.114,0.197c0.42,0.17,1-0.609,1.14,0l0.12-0.319c0.141,0.1,0.32,0.16,0.54,0.319
		c0.36,0,1.15-0.479,1.141,0c0.109,0,0.939-0.069,0.609-0.39c-0.52-0.18-0.58,0.27-0.89-0.16c0.38,0.351,0.74-0.08,1-0.22l0.06,0.18
		c0.17-0.08,0.58-0.06,0.69-0.26c-0.13,0.11-0.061,0.229,0.09,0.27l0.18-0.29c0.721-0.17,0.19,0.49,0.891,0.37l-0.53,0.24
		c0.12-0.05,0.36,0.19,0.69,0.101c0.119-0.261,0.359-0.57,0.47-0.771c0.39-0.12,0.189,0.29,0.569,0l-0.5,0.32
		c-0.079,0.08,0.351,0.42,0.881,0.399c0.33-0.09,0.85-0.47,0.319-0.6c0.271,0,0.641,0.14,0.431,0.33c0.6-0.101-0.08-0.28,0.43-0.44
		c0.22,0.17,0.88,0.4,1.28,0.65l-0.53,0.439h0.689c-0.46,0.351,0.24,0.261,0,0.631c0.271,0.017,0.541-0.042,0.78-0.171
		c-0.72-0.569,0.8-0.8,0.59-1.329c1-0.15,0.61,1.26,1.641,0.449c-0.17-0.14,0.319-0.529-0.3-0.39c0.609,0.07,0.42-0.52,1.14-0.29
		c-0.54,0.21,0.57,0.55-0.21,0.85c0-0.18-0.43-0.14-0.55-0.1c0.25,0.21-0.061,0.53,0.569,0.55c0.38,0,0.9,0,0.83-0.319
		c-0.069-0.32-0.58,0-0.33-0.28c0.761-0.09,0.88,0.38,1.21-0.16c-0.479,0-0.6-0.28-0.58-0.49l0.561-0.109l-0.11,0.199
		c0.9,0.17,0.271-0.359,1.15-0.29l0.399,0.41c-0.22,0.34-1.26-0.18-1.119,0.38c0.56,0,0.76-0.239,1.29-0.09l-0.4,0.101
		c0.2,0,0.38,0.77,1.2,0.35c0.42-0.16,0.12-0.2,0.13-0.4c0.91,0,1.189-0.25,1.78-0.239c-0.141,0.399,1,0.1,0.369,0.479
		c-0.615-0.303-1.345-0.269-1.93,0.09c0.311,0.49-0.71-0.09-0.92,0.4c0.73,0,0.67,0.5,0.78,0.82c0.184-0.001,0.363-0.054,0.52-0.15
		c0.101-0.29-0.17-0.29-0.17-0.6c0.679,0.098,1.372,0.005,2-0.271c0.26,0.16,0.16,0.45-0.16,0.46
		c0.969-0.014,1.936,0.061,2.891,0.22c-0.561-0.52,1,0,0.649-0.47c-0.479-0.14-0.88-0.5-0.6-0.7c0.31,0,0,0.21,0.1,0.32
		c0.41-0.24,0.58,0.46,1,0.07c-0.89,0.1-0.21,0.569-0.399,0.93c0.649-0.17,0,0.271,0.58,0.3c0.694-0.185,1.41-0.278,2.13-0.279
		c0.84,0.439,2.22,0.229,3,0.3c0.39,0.229,0.069,0.62,0.5,0.74c0.43,0.119-0.33-0.5,0.41-0.221l-0.08,0.08
		c0.239-0.07,1.38,0.43,1.68-0.149l-0.3,0.43c0.14,0.021,0.282,0,0.41-0.061c0,0.15,0.14,0.311-0.11,0.37
		c0.43,0.38,1,0.09,1.51,0.15l-0.3-0.32c0.78,0.043,1.555,0.144,2.32,0.3l-0.061,0.261l0.53-0.08c-0.16,0.24,0.28,0.47,0.58,0.29
		l-1.41,0.45c-0.34-0.211,0.44-0.261,0.25-0.551c-0.318-0.268-0.775-0.293-1.12-0.06c0.185,0.065,0.386,0.065,0.57,0
		c0.05,0.38-0.41,0.3-0.67,0.51c0.16,0,0.37,0.15,0.42,0c-0.38,0.105-0.78,0.105-1.16,0c0.37-0.09-0.16-0.26,0-0.34
		c-0.08,0.32-0.59,0.35-1.21,0.16c-0.4-0.45-1.22,0.1-1.95-0.08c0.344-0.311,0.767-0.521,1.22-0.61c-0.449-0.21-0.52,0-1-0.26
		c-0.268,0.346-0.65,0.584-1.079,0.67v-0.24c-0.561,0.07-0.601,0.431-1.29,0.29c-1.181-0.239-2.41-0.38-3.32-0.479v-0.24
		c-0.55,0.49-1.71,0.09-2.41,0.27c-1.15-0.31-2.54,0.08-3.12-0.38c-1.996,0.164-3.999,0.207-6,0.13l0.36-0.35
		c-0.38,0.25-0.25-0.21-0.62-0.17c0.43,0.3-0.521,0.35-0.79,0.57c-1.01-0.154-2.043-0.047-3,0.31v-0.24
		c-0.84,0.471-1.86,0.08-2.93,0c-0.16-0.185-0.396-0.288-0.641-0.279c-0.514,0.336-1.088,0.569-1.689,0.689
		c-0.753,0.027-1.506-0.02-2.25-0.14c-2.28,0.63-4.65,0.54-7,1l-0.2-0.271c-2.26,0.82-5.17,0.61-7.11,1.141l0.13-0.511
		c-0.64-0.069-1.399,0.32-1.189,0.641c-0.641-0.061-1.521,0.45-2,0.1c-0.65,0-0.74,0.33-1.26,0.471
		c-0.994-0.029-1.986,0.099-2.94,0.38h0.3c0.12-0.13,0.101-0.33-0.21-0.32c-0.42,0.21-1.66,0.13-1.12,0.64
		c-1.33-0.13-2.92,0.74-4.239,0.511c0.13,0.14-0.181,0.229-0.29,0.35c-1.078,0.047-2.146,0.225-3.181,0.53
		c-0.189-0.051,0.23-0.32-0.22-0.25c-0.26,0.109,0,0.21-0.28,0.35c-1.75,0.61-3.71,0.4-5.33,0.8c-2.85,0.86-5.909,1.391-8.68,2
		v-0.12c-0.83,0.641-2.28,0-2.88,0.87c-0.24-0.06-0.85,0.141-0.74-0.12c-0.67,0.48-2.14,0.181-3.12,0.811l0.25-0.12
		c-1.14,0-2,0.57-3.21,0.61c0.11-0.08,0.311-0.16,0.32-0.28c-0.49-0.11-0.93,0.729-1.3,0.229c-0.25,0.061-0.12,0.32,0,0.261
		c-2.613,0.523-5.185,1.229-7.7,2.109c-1.939,0.141-0.24-1-1.62-0.109c-0.149-0.07,0,0.229-0.08,0.13
		c-0.51,0.319-1.05-0.34-1.351,0.06c0.261,0.28-0.199,0.26-0.149,0.47c-1.18,0.131-1.489-0.1-2.29,0.421v0.029
		c-0.88,0.79-2.14,1-2.811,1.8c-5.6,2-10.809,4.29-16.229,6.431c-5.42,1.939-10.6,4.25-16.26,5.939
		c-1.028-0.081-2.054,0.18-2.92,0.74c0-0.09,0.12-0.14,0-0.18c0.06,0.399-1,0.38-1,0.79c-2.08,0.66-4,1.359-6.12,2
		c0.33-0.15,0.4-0.51,0-0.36l-0.35,0.37l-0.1-0.08c-0.26,0.14-0.5,0.43-0.18,0.46c-5.35,2-11,2.62-16.44,3.71
		c-1.549,0.155-3.086,0.416-4.6,0.78c-4.32,0.07-8.15-0.14-12.48,0.31C305.03,463.191,305.886,462.715,306.819,462.647"/>
	<path fill="#50BDC1" d="M487.969,429.797c-0.12-0.221-0.58-0.391-0.16-0.601C487.829,429.397,488.039,429.637,487.969,429.797"/>
	<path fill="#50BDC1" d="M475.259,426.237c0,0.061-0.18-0.09-0.22-0.13c0.16,0,0.33-0.16,0.45,0
		C475.319,426.107,475.339,426.237,475.259,426.237"/>
	<path fill="#50BDC1" d="M471.898,425.958c0.061-0.17,0.78-0.271,1.211-0.261L471.898,425.958z"/>
	<path fill="#50BDC1" d="M468.819,425.087c-0.271-0.15-0.19-0.23,0.18-0.221C469.019,424.958,468.898,424.997,468.819,425.087"/>
	<path fill="#50BDC1" d="M468.579,425.477c-0.191,0.002-0.375-0.074-0.51-0.21C468.079,425.417,468.679,425.237,468.579,425.477"/>
	<path fill="#50BDC1" d="M461.779,424.867c-0.16,0-0.521,0.17-0.67,0C461.279,424.977,461.898,424.617,461.779,424.867"/>
	<path fill="#50BDC1" d="M458.619,425.177c-0.084-0.03-0.176-0.03-0.26,0c-0.19-0.08,0-0.21,0.159-0.23L458.619,425.177z"/>
	<polygon fill="#50BDC1" points="402.139,434.057 402.449,433.897 402.449,434.078 	"/>
	<path fill="#50BDC1" d="M377.949,440.607c-0.291,0.21-0.28-0.08-0.34-0.09C377.898,440.407,377.568,440.757,377.949,440.607"/>
	<polygon fill="#50BDC1" points="365.589,446.047 365.679,446.047 365.779,446.397 	"/>
	<path fill="#50BDC1" d="M302.209,413.237c0.88,0-0.43-0.35,0.58-0.07C302.637,413.327,302.394,413.355,302.209,413.237"/>
	<path fill="#50BDC1" d="M301.159,413.167c-0.16-0.219-0.76-0.39-0.24-0.6C300.959,412.767,301.249,412.997,301.159,413.167"/>
	<path fill="#50BDC1" d="M285.109,409.667c0,0.061-0.23-0.09-0.28-0.129c0.2,0,0.4-0.15,0.56,0
		C285.179,409.487,285.209,409.586,285.109,409.667"/>
	<path fill="#50BDC1" d="M449.049,438.367c-0.6,0.28,0.43,0.19-0.37,0.261C448.729,438.467,448.809,438.327,449.049,438.367"/>
	<path fill="#50BDC1" d="M449.789,438.087c0.189,0.149,0.66,0.109,0.399,0.47C450.089,438.397,449.799,438.237,449.789,438.087"/>
	<path fill="#50BDC1" d="M462.079,436.458c0-0.061,0.189,0,0.229,0.05c-0.14,0-0.229,0.25-0.37,0.189
		C462.089,436.637,462.039,436.557,462.079,436.458"/>
	<path fill="#50BDC1" d="M465.109,435.727c0,0.18-0.61,0.49-1,0.61L465.109,435.727z"/>
	<path fill="#50BDC1" d="M468.099,435.677c0.28,0.08,0.23,0.18-0.1,0.26C467.959,435.857,468.049,435.777,468.099,435.677"/>
	<path fill="#50BDC1" d="M468.199,435.237c0.174-0.046,0.358-0.017,0.51,0.08C468.659,435.177,468.188,435.547,468.199,435.237"/>
	<path fill="#50BDC1" d="M474.419,434.237c0.14-0.05,0.43-0.26,0.61-0.1C474.898,434.067,474.359,434.538,474.419,434.237"/>
	<path fill="#50BDC1" d="M477.209,433.367h0.24c0.1,0,0,0.2-0.11,0.25L477.209,433.367z"/>
	<polygon fill="#50BDC1" points="530.009,427.097 529.688,427.187 529.739,427.007 	"/>
	<path fill="#50BDC1" d="M553.389,427.737c0.32-0.09,0.21,0.181,0.26,0.2C553.369,427.947,553.779,427.737,553.389,427.737"/>
	<path fill="#E2769E" d="M401.179,446.947c-2.078,5.526-3.707,11.212-4.87,17c-1.539,8.78-5,19.46-4.68,28.301
		c0.45,10.699,4.94,16.479,8.72,26.27c1,2.3,3.84,7.44,5,9.53c1.54,2.93,1.511,5.229,4.79,5.55c3.49,0.12,18.73,0.63,21.5,2.05
		c0.449,0.223,0.805,0.6,1,1.061c-4.569,1-15-0.71-19.76-0.671c3.36,2.41,12,5.131,14.71,10.15c-2.89,0.311-7.229-2.53-9.85-3.86
		c-3-1.34-5.91-3.88-9-5c1.71,4,7.31,8.271,6.939,13c-8-6.1-14.6-23.319-16.91-27.71c-2.319-4.189-6.999-16.89-8.729-21.06
		c-1.9-4.59-6.23-4-3.381-9.23c2.19-3.829,2.75-10.81,3.25-15.38c1-8.699,2.141-15.6,3.061-24.189
		c0.221-2.28,0.439-4.561,0.801-6.83c0.159-1,6.169,1.7,6.39,0.71"/>
	<path fill="#E2769E" d="M418.379,438.597c0.7,15.439,7.62,40.13,8.5,43.6c2.09,8.261,6.42,20.83,10.89,28.17
		c2.33,3.78,4.311,7.561,5.601,8.2c4.383,1.758,8.979,2.928,13.67,3.48c2.05,0.279,10.689,1.42,11,4.109
		c-2.5,0.94-7.08-1.13-9.74-1.43c-3.68-0.54-6.689-1.38-10.45-2c2.87,2.68,13.73,6.14,14.58,11.51
		c-5.069-1.43-13.1-7.439-17.3-10.67c0.88,4.141,8.55,10,7.11,14.12c-1.74-2.11-4.86-4.63-7.48-8.189
		c-2.238-3.165-3.928-6.685-5-10.41c-3.16-3.811-6.84-10.9-9.14-15.5c-1.92-4-3.55-11.65-6.09-15.23
		c-1.17-1.68-2.771-1.609-3.551-3.439c-0.689-1.61,0.181-2.71,0.66-4.95c0.74-3.681-1.95-10.72-3.069-14.25
		c-2.79-8.521-4-14.44-6.21-23.15c-0.54-2.28-1.69-3.43-2-5.7c2.279-0.54,5,2.44,7.06,3.53"/>
	<path fill="#E2E2E1" d="M466.099,346.717c0.33,4.52,1,9,1.7,13.55c1,6.71,2.061,14.62,1.73,21.34
		c-0.58,11.729-5.41,24.28-10.091,35c-4.529,10.41-11.229,21.12-22.489,25.08c-14.67,5.16-35.29,9.8-50.631,7.06
		c-11.89-2.3-23.75-5.239-35.319-7.84c-5.63-1.14-17.47-4.699-22.76-6.46c-2.85-1-10.92-1.069-11.62-4.569c3-0.2,6-0.61,9-1
		c9.22-1.11,14.87-6.181,22.8-10.65c3.16-1.78,6.22-2.72,9.19-5c13.17-9.91,26.2-21.58,43.07-24.23c8.23-1.289,14-2.66,21-7.14
		c10-6.271,3.92-13.09,1.41-22.31c-2.365-8.396-5.346-16.604-8.92-24.561c-3.23-6.72-6.48-12.82-7.79-20.43
		c-2.4-12.68,5.18-31.311,19.44-34c16.159-2.9,41.359,6.16,46.149,22.391c0.29,1-0.46,3.319-0.57,4.359
		c-0.39,3.7-0.67,7.42-0.939,11.13c-0.43,5.89-3.8,11.101-4.35,17.12C465.788,339.27,465.785,343.004,466.099,346.717"/>
	<path fill="#020203" d="M418.039,286.237c-2.55-4.359-9.91-10.68-14.57-12c1.67,1.41,7.4,7.57,8.84,11.4
		c-3.37-2.305-7.329-3.596-11.41-3.721c8.4,3.121,10.421,7.781,14.24,15.791c0.7-2.181,5.37-1.791,5.74-3.351
		C421.249,292.497,419.299,288.437,418.039,286.237"/>
	<path fill="#020203" d="M416.179,384.967c1.903-0.873,3.744-1.875,5.51-3c10-6.27,3.921-13.09,1.4-22.311
		c-2.362-8.395-5.34-16.604-8.91-24.56c-3.229-6.72-6.479-12.82-7.79-20.431c-1.399-7.39,0.62-16.779,5.34-23.879
		c1.7,3.58,13.5,1.879,20.721,3.729c2.41,0.62,1,5.229,2.949,5.76c4.48,1.21,10.431,5.49,7.511,5.851
		c-11.94,1.459-16.8,6.92-17.41,12.49c-2.33,21.52,47.43,50.939,33.58,74.729C450.369,407.737,429.409,395.327,416.179,384.967"/>
	<path fill="#020203" d="M444.148,312.487c-7.25,1.16-12.39-4.25-12.72-11.67c-0.38-8.46,5.29-11.63,11.12-10.92
		C454.749,291.368,460.359,309.887,444.148,312.487"/>
	<path fill="none" stroke="#020203" stroke-width="1.25" stroke-linecap="round" stroke-miterlimit="10" d="M459.179,327.237
		c-1.7,2.141-7.479,0.24-8.75-2.26"/>
	<path fill="#020203" d="M316.609,429.907c3-0.189,6-0.6,9-1c9.22-1.109,14.87-6.18,22.8-10.64c3.16-1.78,6.21-2.72,9.19-5
		c13.171-9.91,26.19-21.58,43.061-24.229l0.5-0.08c0.905,0.852,1.761,1.756,2.56,2.709c4.55,4.881,11.24,11.73,10.67,19.271
		c-0.59,7.85-7.64,11.38-14.06,14.95c-13.671,7.939-32.31,13.35-48.19,15.35l-1.15-0.26c-5.63-1.14-17.47-4.7-22.76-6.46
		C325.379,433.527,317.309,433.407,316.609,429.907"/>
	<path fill="#020203" d="M489.459,323.897c-3.85-1-7.71-2.061-11.58-3c-1.813-0.439-3.63-0.867-5.45-1.279
		c-1.466-0.131-2.679-1.195-3-2.631c-0.524-1.371-0.842-2.814-0.939-4.279c-0.08-2.103,0.44-4.184,1.5-6
		c0.33-0.59,1.09-2.2,1.77-2.42c0.68-0.221,1.59,0.619,2.23,1c2.79,1.529,5.62,3,8.46,4.42c6.21,3.109,12.51,6.05,18.819,9
		c13.301,6.1,26.79,11.879,39.73,18.729C525.688,332.917,509.289,329.237,489.459,323.897"/>
	<path fill="#FFFFFF" d="M444.398,291.937c7.57,2.13,13.53,17.14-1.17,18.88c-5.58,0.66-10.449-4.52-10.119-11.25
		C433.438,292.836,438.959,290.407,444.398,291.937"/>
	<path fill="#020203" d="M437.589,300.586c-2.22,0.33-2.79-3-0.57-3.369C438.679,296.967,439.809,300.237,437.589,300.586"/>
	<polygon fill="#B91D1C" points="452.429,414.177 443.609,383.977 442.029,378.586 526.029,415.177 532.919,422.727 
		461.799,481.577 456.989,472.708 457.219,440.847 292.099,477.297 290.999,470.708 305.899,449.907 285.739,439.047 
		284.009,434.237 	"/>
	<polygon fill="#E20E18" points="458.969,418.307 449.539,386.057 532.898,422.727 461.799,481.578 462.069,445.267 
		292.069,477.267 310.759,454.267 285.759,438.977 	"/>
	<path fill="#020203" d="M352.019,451.297c2.58-1.48,5.14-4.17,7.69-5.811c7.79-5,12.109-14.12,13.811-17.439
		c7.479-14.68,13-28.93,26.999-38.711l0.42-0.289c1.188,0.367,2.354,0.805,3.49,1.31c6.23,2.39,15.75,8.62,18.54,15.64
		c2.92,7.32-8.12,17.33-12.32,23.351c-8.829,13.06-35.89,28.84-36.209,29.06c-3.791,2.65-6,3-9.791,3.141
		c2.83-1.57,5.08-6.17,5.74-7.23c0.76-1.229-7.1,4.54-12.15,2.181c2.49-1.801,8.07-7.44,6.27-7.19
		C361.52,449.697,354.169,454.127,352.019,451.297"/>
</g>
<g>
	<path fill-rule="evenodd" clip-rule="evenodd" fill="#1C8B50" d="M323.234,264.399c6.791,0,31.933-9.364,39.211-29.25
		s1.327-63.017-3.441-81.178c-4.768-18.161-35.554-106.771-35.554-106.771s-9.509,20.301-17.493,34.055
		c-7.983,13.754-31.852,68.788-36.439,89.459c-4.588,20.671-4.759,57.661,7.152,73.601
		C291.672,264.399,303.349,260.57,323.234,264.399"/>
	<path fill-rule="evenodd" clip-rule="evenodd" fill="#814215" d="M321.292,317.401c0,0-0.352-25.449-0.352-35.897
		s-1.752-31.021,0.352-32.51c2.104-1.491,6.385-2.547,11.451-4.66c4.904-1.865,10.056-2.994,15.289-3.351l4.822-0.415l-0.975-4.516
		c0,0-0.695-0.226-4.217,0c-3.522,0.226-4.579,0.424-6.322,0.596c-3.305,0.326-5.418,1.896-5.283,0
		c0.136-1.896,0.696-9.636-1.056-8.868c-0.92,0.423-1.868,0.785-2.836,1.084c-0.61,1.825-1.034,3.707-1.264,5.617
		c-0.188,1.322-0.242,2.659-0.162,3.991c0,0-4.136,1.418-6.575,1.915c-2.123,0.425-2.863,0.091-2.899-4.362
		c-0.045-6.114-1.427-21.565-0.371-25.502c0.719-3.334,3.192-6.015,6.458-6.999c2.104-0.759,7.116-1.806,10.701-3.531
		c1.879-0.992,3.935-1.605,6.051-1.806l-0.353-3.413c-2.245,0.366-4.469,0.849-6.665,1.444c-1.68,0.605-7.595,2.529-7.595,2.529
		s3.007-7.225,3.007-8.127c0-0.903,0.352-5.166,0.352-5.166h-2.709l-0.813,4.453h-5.247l-1.057,1.598l4.208,1.851l-2.375,5.5
		l-4.66,1.87c0,0,0.705-18.549,1.418-24.573l0.696-6.033c0,0,4.569-2.456,7.035-3.504s8.715-2.8,8.715-2.8l-0.09-3.305l-8.426,2.627
		c0.877-1.005,1.634-2.107,2.257-3.287c1.057-1.997,0.172-1.942,0.172-1.942l-2.447-0.786l-6.873,8.688
		c0,0,0.361-24.798,0.704-27.092c0.344-2.294,9.185-9.013,9.185-9.013l-1.301-1.806l-1.86,0.804
		c-3.865,2.104-6.321,4.66-7.378,5.139c-1.057,0.479-9.4-16.788-11.225-17.854l-1.807-1.057c-3.521,1.752-2.809,3.919-2.809,3.919
		c1.75,1.679,3.307,3.547,4.642,5.572c2.005,3.152,2.772,4.326,2.772,4.326l-5.689,5.04l1.047,1.625c0,0,4.732-4.597,6.06-4.317
		c0.958,0.208,1.68,7.577,1.68,7.577s-3.161,17.158-3.161,21.818c0,4.66-1.264,10.322-2.709,11.55c-1.445,1.228-3.242,0-3.242,0
		l2.149-6.25h-3.585l-3.107,6.25c0,0-9.148-4.398-11.261-5.418c-2.113-1.021-5.274,3.982-5.274,3.982s1.4,0.551,4.217,1.436
		c2.817,0.885,9.844,2.709,13.013,4.091c3.17,1.381,7.153,3.865,7.153,5.301c0,2.51-1.509,23.688-1.906,29.322
		c-0.397,5.636-0.172,16.951-0.172,16.951s-4.84-3.26-8.624-5.635c-3.784-2.375-9.401-5.735-9.401-5.735l-1.409,2.321l5.617,5.256
		c0,0-1.056,2.528-2.113,3.369l-1.057,0.849l2.114,2.501c1.201-1.013,2.313-2.128,3.323-3.332l0.903-1.265l10.196,9.979
		l-3.17,81.376h16.165L321.292,317.401z"/>
</g>
<path fill-rule="evenodd" clip-rule="evenodd" fill="#C7D7CD" d="M192.694,129.925c0,0,75.62,4.92,75.62-31.493
	c0-36.413-16.69-63.542-47.137-61.294c-30.447,2.248-38.295,13.071-38.295,13.071s9.812-31.493-19.642-37.4
	c-29.453-5.909-31.446,24.33-31.446,24.33s-19.618-26.299-42.205-8.581C67.004,46.276,64.058,71.093,64.058,71.093
	s-23.568-30.29-45.173,0c-21.605,30.29-14.727,61.783,15.714,63.752C65.04,136.814,192.694,129.925,192.694,129.925"/>
</svg>
