<?xml version="1.0" encoding="utf-8"?>
<!-- Generator: Adobe Illustrator 15.1.0, SVG Export Plug-In . SVG Version: 6.00 Build 0)  -->
<!DOCTYPE svg PUBLIC "-//W3C//DTD SVG 1.1//EN" "http://www.w3.org/Graphics/SVG/1.1/DTD/svg11.dtd">
<svg version="1.1" id="Capa_1" xmlns="http://www.w3.org/2000/svg" xmlns:xlink="http://www.w3.org/1999/xlink" x="0px" y="0px"
	 width="841.89px" height="595.276px" viewBox="0 0 841.89 595.276" enable-background="new 0 0 841.89 595.276"
	 xml:space="preserve">
<path fill-rule="evenodd" clip-rule="evenodd" fill="#C9C3B8" d="M152.03,75.222c0.061-3.59,1.34-33.39,23.38-42.73
	c22.04-9.34,40.75,12.67,40.75,12.67s2.67-41.15,29.391-36.27c26.72,4.88,26.05,28.26,26.05,28.26s8.78-14.17,23.38-9.35
	c16.19,5.34,13.36,20.26,13.36,20.26s9-10.88,22.26-2.9s20.49,22,17.149,37.41c-3.34,15.41-16.55,35.4-97.779,28.05
	C168.74,103.271,151.671,100.611,152.03,75.222"/>
<g>
	<path fill="#79A637" d="M35.221,410.442c-5.432,43.562,9.832,25.186,48.727,39.773c38.894,14.589,175.962-8.383,221.364-7.405
		c45.402,0.979,140.677-25.879,321.724-19.122c181.049,6.757,16.937-66.632-45.464-86.83
		c-62.398-20.198-297.721-41.393-387.244-32.982C104.804,312.286,40.662,366.818,35.221,410.442"/>
	<path fill-rule="evenodd" clip-rule="evenodd" fill="#04A0A4" d="M169.079,385.194c0,0-45.98-26.99,143.851-13.415
		c124.586,8.89,124.133,21.78,214.163,8.632c85.346-28.448,144.909-0.578,171.579,10.668
		c43.74,18.474,146.057,123.377,91.569,84.848c-54.488-38.529-76.544-46.994-104.45-49.394c-106.122-9.121-104.761-7.379-163.97,0
		c-96.466,12.027-20.18,49.394-322.462,49.394c-89.213-5.334-167.508-23.55-181.243-38.495
		c-13.735-14.943-29.898-52.237,92.848-40.991C212.685,399.623,185.828,394.101,169.079,385.194"/>
	<path fill="#50BDC1" d="M218.001,411.331c1.778-0.827,4.676-1.085,6.783-1.778c0.249-0.062,0.054,0.231,0.614,0.054
		c2.703-0.826,5.492-1.346,8.312-1.548l-0.125,0.09c0.525,0,1.049-0.364,1.601-0.436c0,0-0.143,0.089,0,0.115
		c0.08-0.143,0.942-0.24,1.138-0.373c0.231,0,0.257,0.107,0.551,0.107l0.249-0.188c0.711-0.471,2.107-0.338,3.209-0.702
		c-0.044,0-0.151,0.08-0.044,0.098c1.778-0.542,4.196-0.89,6.303-1.271c-0.063,0.062-0.116,0.169,0,0.205
		c0.044-0.169,0.693-0.303,1.244-0.418c0.32,0.105,0.934-0.294,1.636-0.312h-0.044c0.444-0.223,0.773,0,1.111-0.249l0.364,0.071
		c0.143-0.24,0.756,0,1.129-0.15c0.365-0.107,0.605,0,0.961-0.116h0.044c0.827-0.169,1.351-0.124,1.28-0.284
		c0.338,0.088-0.8,0.169-0.267,0.302c2.712-0.534,5.61-0.827,8.428-1.129c0.217,0.001,0.432,0.031,0.64,0.089
		c0.435-0.055,0.866-0.138,1.289-0.249c-0.097,0,0.196,0.071,0.356,0.063c0.525,0,0.516-0.24,1.102-0.223
		c-0.213,0.071-0.275,0.134-0.195,0.187c0.546-0.156,1.105-0.261,1.671-0.312c-0.089,0-0.222,0.063-0.186,0.116
		c0.595-0.205,1.137-0.062,1.671-0.205L268.64,403c0.889,0.044,0.222-0.222,0.996-0.213c-0.178,0-0.107,0.08-0.134,0.115
		c0.835-0.187,1.682-0.313,2.534-0.382c0.765-0.099,1.583-0.09,2.418-0.214c0.32,0-0.062,0.248,0.747,0.151
		c-0.053-0.187,1.378-0.16,0.889-0.355c0.76,0.015,1.521-0.021,2.276-0.107c-0.311,0.098,0.364,0.223-0.213,0.276l0.462,0.089
		c-0.062,0.08-0.462,0-0.302,0.098c0.459-0.067,0.922-0.109,1.386-0.125c0.604-0.229,1.234-0.381,1.876-0.453
		c-0.409,0.089,0.249,0.204,0,0.249l1.183-0.436c0.293,0,0.071,0.16,0.497,0.089c0-0.053,0.161-0.099,0.285-0.143
		c0.124-0.045,1.218-0.098,1.351,0.099c0.134,0.194-0.471,0.053-0.142,0.115c0.533,0,0.56-0.09,1.094-0.107
		c0.355,0,1.049-0.115,0.657-0.213c-0.249,0,0.098,0.116-0.275,0.071c0.46-0.131,0.936-0.192,1.413-0.187
		c-0.186,0-0.16,0.088-0.24,0.142c0.76-0.159,1.529-0.269,2.303-0.328c0-0.099-0.294,0.169-0.418,0.124
		c1.04,0.106,2.151-0.214,3.014,0c-0.151,0-0.08-0.124-0.071-0.106c0.506,0,0.48,0.142,0.8,0.088c0,0.072,0.418,0,0.747-0.062
		c0.177-0.063,0.088,0-0.205,0c1.136-0.137,2.281-0.169,3.423-0.099c0.284-0.107,0.584-0.171,0.889-0.186l-0.107,0.124
		c0.231,0.071,0.836,0,0.889,0.089c0.534-0.151-2.054,0.133-1.325,0c0.187,0.098,1.005-0.204,0.845,0
		c0.484-0.057,0.974-0.057,1.458,0c-0.133,0-0.409,0.169,0,0.16c0.702,0,0.205-0.063,0.782-0.099l0.365-0.044
		c0-0.125,0.631,0,0.373-0.115c0.08,0.098,1.04,0,0.952,0.15l-0.107,0.152c0.261-0.04,0.515-0.115,0.756-0.223
		c0.044,0,0.115,0,0.097,0.07c0.071-0.24,0.729,0,1.112-0.15c0.644,0.002,1.286,0.062,1.92,0.178
		c0.502-0.087,1.012-0.111,1.52-0.071c-0.116,0-0.267,0-0.302,0.071c0.251,0.058,0.513,0.058,0.764,0
		c0.352,0.11,0.712,0.193,1.076,0.249c0.489-0.063,0.347-0.188,0.4-0.268c0.427,0.24,1.405-0.114,1.938,0.116
		c-0.178,0-0.729,0.089-0.329,0.16c0.409,0.249,0.889-0.142,1.627,0l-0.16-0.196c0.311,0.125,1.076-0.08,0.978,0.116
		c0.249-0.062,0.845,0.089,0.791-0.098c1.165,0.187,2.889,0,3.556,0.374c0.178,0,0.596,0,0.516-0.08c-0.258-0.116-0.4,0.062-0.498,0
		c0.083,0.01,0.165-0.02,0.222-0.08c0.356,0.053,0.64,0.08,0.276,0.222c0.791,0.151,0.889-0.285,1.929-0.169
		c-0.062,0.08,0,0.107,0.311,0.107l0.605-0.107c0.675,0.063,0.346,0.195,0.346,0.329c0.331,0.023,0.663-0.001,0.987-0.071
		l0.409,0.187c-0.293-0.133,0.311-0.063,0.489-0.089h-0.178c0.23,0.031,0.464,0.031,0.694,0c-0.045-0.08-0.463-0.133-0.685-0.168
		c0.196-0.055,0.48,0,0.729-0.08c-0.098,0.124,0.578,0.115,0.889,0.142s0.391-0.098,0.489-0.089c0.098,0.009,0.534,0,0.258,0.115
		c-0.116,0-0.24-0.08-0.436,0c0.205,0.063,0.151,0.169,0.623,0.106c0.471-0.062,0-0.258,0.586-0.142
		c-0.122,0.026-0.241,0.065-0.355,0.115l0.578,0.098l0.053-0.124c0.071,0,0,0.044,0.044,0.063c0.205-0.116,0.889,0,1.085-0.124
		c0.311,0,0.622,0.114,0.889,0.142h-0.062c0.373,0.071,0.756,0.071,1.129,0c0.295,0.033,0.593,0.033,0.889,0
		c0.462,0.115,0.071,0.453,0.64,0.338c0.569-0.116,0.809-0.178,0.631-0.267c0.893,0.019,1.784,0.093,2.667,0.222
		c0.134,0,0.062-0.08,0.329-0.089c1.262,0.002,2.522,0.1,3.77,0.294c-0.392,0-0.054,0.115-0.054,0.186
		c0.329-0.089,0.347,0.135,0.498-0.044c0-0.106,0-0.159-0.32-0.222c0.795-0.029,1.591,0.027,2.374,0.169
		c-0.205-0.063,0-0.08,0.151-0.098c-0.089,0.16,0.471,0.222,0.889,0.186l0.089-0.105l0.258,0.124c0.177,0,0.231-0.204,0.64-0.08
		c0.013,0.055,0.053,0.099,0.106,0.116c0.524-0.105,1.061-0.127,1.592-0.063l0.364,0.177c0.205,0,0.578-0.08,0.222-0.142
		c0.54,0.038,1.071,0.145,1.583,0.32c1.732-0.171,3.477-0.171,5.209,0l-0.062,0.079c0.436,0.09,0.258-0.124,0.551-0.062
		c-0.16,0.071,0.312,0.178-0.053,0.258c0.427,0.033,0.857-0.006,1.271-0.116c0.08-0.098-0.346,0.055-0.249-0.07
		c0.098-0.124,0.889,0.115,0.996,0c0.151,0.07,0,0.169-0.089,0.23l0.4-0.053c0.445,0.195-1.147,0.267-0.693,0.507h0.373
		c0.311,0.177-0.987,0.133-0.098,0.231c0.409-0.055,0.783-0.259,0.445-0.348c0.827,0,0.444-0.347,1.316-0.293
		c0.222,0.098-0.703,0-0.56,0.124c0.382,0.143,0.844,0,1.2,0c-0.4-0.08,0-0.213,0.24-0.23c0.435,0.089-0.311,0.133,0.311,0.178
		c0.124-0.089,0.711-0.134,0.222-0.214c0.267-0.195,0.649,0.089,1.014-0.053c0.186,0.142-0.703,0.293,0,0.391
		c-0.089-0.142,0.889-0.142,0.551-0.364c0.267,0.054,0.275,0.16,0.071,0.231c0.365,0.106,0.978-0.205,1.067,0.07l0.124-0.123
		c0.107,0,0.285,0.088,0.472,0.168c0.337,0,1.129-0.143,1.066,0.071c0.116,0,0.889,0,0.614-0.143
		c-0.471-0.106-0.578,0.089-0.818-0.115c0.311,0.169,0.702,0,0.996,0v0.08c0.227,0.009,0.455-0.015,0.675-0.071
		c-0.133,0-0.08,0.098,0.054,0.124l0.186-0.114c0.694,0,0.134,0.222,0.8,0.213l-0.515,0.07c0.21,0.045,0.425,0.071,0.64,0.08
		c0.142-0.106,0.391-0.23,0.515-0.319c0.383,0,0.152,0.142,0.534,0l-0.498,0.115c-0.08,0.044,0.293,0.204,0.791,0.213
		c0.329,0,0.836-0.169,0.347-0.249c0.258,0,0.596,0.09,0.391,0.16c0.569,0-0.062-0.115,0.436-0.178
		c0.195,0.08,0.8,0.205,1.164,0.329l-0.542,0.169h0.338c-0.454,0.133,0.204,0.125-0.062,0.276c0.253,0.013,0.507-0.005,0.755-0.055
		c-0.64-0.274,0.8-0.329,0.631-0.568c0.89,0,0.507,0.587,1.521,0.249c-0.151-0.063,0.329-0.231-0.267-0.179
		c0.569,0,0.418-0.222,1.093-0.114c-0.515,0.089,0.507,0.258-0.24,0.373c0.063-0.08-0.4-0.071-0.515-0.054
		c0.222,0.099-0.071,0.24,0.515,0.259c0.356,0,0.889,0,0.801-0.135c-0.089-0.133-0.561,0-0.312-0.124
		c0.721,0,0.827,0.179,1.147-0.062c-0.462,0-0.551-0.125-0.542-0.224h0.533l-0.106,0.09c0.835,0.08,0.266-0.151,1.075-0.115
		l0.374,0.187c-0.214,0.143-1.183-0.089-1.067,0.16c0.402-0.031,0.807-0.031,1.209,0h-0.382c0.336,0.212,0.745,0.273,1.129,0.168
		c0.4-0.07,0.115-0.088,0.133-0.186c0.889,0,1.129-0.099,1.671-0.107c-0.124,0.178,0.978,0,0.347,0.213
		c-0.6-0.137-1.223-0.137-1.822,0c0.293,0.224-0.667,0-0.889,0.169c0.693,0,0.631,0.231,0.738,0.374
		c0.168-0.001,0.335-0.024,0.497-0.07c0.089-0.125-0.16-0.125-0.16-0.259c0.649,0.051,1.302,0.009,1.938-0.125
		c0.249,0.063,0.16,0.196-0.151,0.196h2.756c-0.542-0.222,0.969,0,0.596-0.222c-0.373-0.224-0.845-0.205-0.578-0.303
		s0,0.098,0.098,0.143c0.382-0.116,0.56,0.186,0.933,0c-0.827,0.062-0.178,0.257-0.338,0.417c0.605-0.088,0,0.116,0.561,0.125
		c0.56,0.009,1.342-0.151,2.018-0.188c0.955,0.08,1.916,0.08,2.871,0c0.382,0.08,0.116,0.268,0.534,0.304
		c0.417,0.035-0.365-0.205,0.373-0.116h-0.071c0.222,0,1.342,0.124,1.573-0.151l-0.231,0.204c0.127,0.02,0.256,0.02,0.382,0
		c0,0.063,0.169,0.125-0.063,0.169c0.486,0.058,0.978,0.039,1.458-0.053l-0.32-0.116c0.889-0.105,1.414,0,2.24-0.044v0.115
		l0.489-0.08c-0.115,0.116,0.329,0.188,0.587,0.089l-1.271,0.303c-0.347-0.063,0.382-0.151,0.16-0.258
		c-0.354-0.089-0.726-0.067-1.067,0.063c0.177,0.005,0.354-0.017,0.525-0.063c0.089,0.16-0.347,0.16-0.569,0.267h0.4
		c-0.362,0.082-0.732,0.117-1.103,0.106c0.347-0.062-0.186-0.098-0.053-0.142c-0.044,0.142-0.525,0.194-1.138,0.16
		c-0.436-0.16-1.165,0.114-1.876,0.07c0.347-0.169,0.72-0.279,1.103-0.329c-0.445-0.07-0.498,0-0.943-0.07
		c-0.286,0.2-0.621,0.318-0.969,0.347v-0.107c-0.533,0.063-0.542,0.223-1.218,0.188c-1.155,0-2.347,0-3.227-0.071v-0.106
		c-0.763,0.128-1.537,0.185-2.311,0.169c-1.006,0.015-2.013-0.026-3.014-0.125c-1.983,0.045-3.734,0.106-5.779,0l0.356-0.143
		c-0.382,0.107-0.231-0.098-0.587-0.08c0.4,0.134-0.524,0.143-0.791,0.231c-0.968-0.12-1.948-0.12-2.916,0v-0.106
		c-0.94,0.082-1.888,0.043-2.818-0.115c-0.181-0.096-0.382-0.147-0.587-0.151c-0.558,0.122-1.127,0.191-1.698,0.204
		c-0.714-0.025-1.427-0.09-2.134-0.195c-2.275,0.151-4.525-0.106-6.854-0.07l-0.142-0.135c-2.294,0.16-4.996-0.239-6.934-0.194
		l0.231-0.205c-0.587-0.099-1.378,0-1.254,0.15c-0.626-0.003-1.251-0.063-1.867-0.177c-0.43-0.017-0.862,0.003-1.289,0.063
		c-0.94-0.124-1.887-0.185-2.836-0.179h0.294c0.133,0,0.16-0.124-0.116-0.16c-0.453,0-1.582-0.142-1.2,0.134
		c-1.209-0.213-2.907,0-4.063-0.303c0.08,0.08-0.213,0.071-0.355,0.116c-1.025-0.119-2.054-0.181-3.085-0.187
		c-0.16,0,0.293-0.107-0.143-0.133c-0.257,0,0,0.097-0.355,0.114c-1.778,0-3.556-0.319-5.121-0.363
		c-2.862,0-5.805-0.196-8.525-0.276l0.044-0.053c-0.942,0.159-2.107-0.276-2.872,0c-0.213-0.063-0.817-0.055-0.649-0.151
		c-0.737,0.124-2.009-0.196-3.076,0h0.267c-1.049-0.143-2,0-3.111-0.134c0.115,0,0.32,0,0.364-0.08
		c-0.418-0.106-1.04,0.196-1.253-0.053c-0.249,0-0.187,0.114,0,0.114c-2.436-0.142-5.068,0-7.619,0
		c-1.778-0.142-0.089-0.426-1.538-0.23c-0.116-0.053-0.089,0.089-0.107,0c-0.551,0.071-0.889-0.275-1.245-0.151
		c0.152,0.16-0.257,0.089-0.275,0.188c-0.732-0.145-1.481-0.177-2.223-0.099l0.071-0.08c-1.04,0.24-2.24,0.134-3.102,0.418
		c-5.69,0.179-11.122,0.569-16.625,0.979s-10.739,0.951-16.251,1.493c-0.948-0.085-1.905-0.007-2.827,0.231
		c0.045,0,0.133-0.063,0-0.081c0,0.179-0.978,0.152-1.067,0.329c-2.018,0.249-3.876,0.534-5.929,0.89
		c0.32-0.071,0.435-0.231,0.053-0.16l-0.365,0.169h-0.089c-0.257,0.063-0.506,0.196-0.213,0.205
		c-5.121,0.889-10.312,1.502-15.282,2.507c-1.393,0.222-2.773,0.519-4.134,0.889c-3.761,0.479-7.485,1.21-11.148,2.188
		C216.313,412.238,216.473,411.829,218.001,411.331"/>
	<path fill="#50BDC1" d="M310.405,388.527c-1.307,0.392-2.952-0.142-4.365,0.08c-0.169,0,0.071-0.239-0.302-0.195
		c-1.711,0.167-3.438,0.016-5.094-0.444l0.106-0.062c-0.311-0.071-0.72,0.133-1.04,0.079c0,0,0.116-0.063,0-0.125
		c-0.098,0.135-0.604,0-0.764,0.116c-0.116-0.062-0.089-0.169-0.249-0.239l-0.214,0.142c-0.586,0.338-1.271-0.124-2.018,0
		c0,0,0.116-0.053,0.063-0.098c-1.309,0.075-2.621,0.075-3.93,0c0.062-0.054,0.125-0.151,0.062-0.223
		c-0.097,0.169-0.498,0.179-0.889,0.188c-0.133-0.188-0.622,0.105-1.004,0c-0.329,0.15-0.427-0.144-0.703,0.053l-0.169-0.151
		c-0.168,0.231-0.408-0.159-0.684-0.053v0.044c-0.249,0-0.347-0.089-0.569-0.062c-0.516,0-0.791-0.135-0.809,0.053
		c-0.151-0.169,0.498,0,0.267-0.275c-1.699,0.017-3.397-0.069-5.086-0.258c-0.177-0.089-0.302-0.125-0.32-0.196
		c-0.274-0.011-0.548,0.011-0.817,0.063c0.062,0-0.089-0.106-0.178-0.124c-0.294-0.089-0.374,0.178-0.694,0.071
		c0.143-0.044,0.196-0.099,0.169-0.179c-0.34,0.084-0.691,0.114-1.04,0.09c0.062,0,0.142,0,0.142-0.099
		c-0.4,0.134-0.666-0.089-1.004,0l0.142-0.097c-0.498-0.178-0.196,0.213-0.64,0.097c0.115,0,0.089-0.071,0.115-0.105
		c-0.516,0.085-1.042,0.108-1.564,0.07c-0.454,0-0.889-0.106-1.449-0.07c-0.178-0.063,0.106-0.259-0.383-0.259
		c0,0.214-0.835,0-0.595,0.293c-0.437-0.104-0.885-0.155-1.334-0.15c0.196-0.071-0.151-0.284,0.187-0.276l-0.24-0.16
		c0.062-0.08,0.267,0.055,0.204-0.062c-0.278,0.022-0.557,0.022-0.835,0c-0.373,0.19-0.782,0.3-1.2,0.32
		c0.257-0.063-0.098-0.249,0.071-0.275l-0.792,0.354c-0.168,0,0-0.169-0.266-0.133c0,0.063-0.116,0.089-0.196,0.124
		c-0.08,0.036-0.72,0-0.764-0.213c-0.063-0.089,0.293,0,0.115-0.116c-0.32,0-0.347,0.055-0.658,0c-0.204-0.044-0.622,0-0.426,0.188
		c0.195,0.187,0-0.133,0.177-0.063c-0.28,0.117-0.589,0.151-0.889,0.099c0.116,0,0.107-0.08,0.16-0.144
		c-0.459,0.12-0.93,0.186-1.404,0.196c0,0.107,0.204-0.169,0.266-0.116c-0.586-0.186-1.289,0.107-1.778-0.133
		c0.089,0,0,0.142,0,0.116c-0.293,0-0.257-0.178-0.453-0.144c0-0.088-0.249,0-0.453,0c-0.205,0-0.045-0.044,0.133-0.044
		c-0.674,0.086-1.358,0.068-2.027-0.053c0,0.053-0.418,0.187-0.56,0.169l0.071-0.125c-0.115-0.089-0.489,0-0.498-0.142
		c-0.338,0.142,1.218-0.063,0.774,0c-0.089-0.116-0.614,0.178-0.498,0c-0.294,0-0.596,0.114-0.889,0c0.071,0,0.258-0.169,0-0.179
		c-0.418,0-0.125,0.063-0.471,0.08h-0.223c0,0.134-0.373,0-0.24,0.116c0-0.116-0.622,0-0.542-0.187l0.08-0.169
		c-0.178,0-0.311,0.169-0.462,0.23l-0.054-0.08c-0.062,0.258-0.435-0.053-0.666,0.143c-0.365-0.115-0.96-0.071-1.12-0.249
		c-0.288,0.09-0.592,0.113-0.889,0.071c0.062,0,0.16,0,0.186-0.089c-0.195-0.08-0.258,0-0.453,0c0.053,0-0.4-0.178-0.614-0.285
		c-0.302,0.071-0.213,0.215-0.249,0.303c-0.24-0.275-0.835,0.134-1.146-0.124c0.106,0,0.435-0.107,0.204-0.179
		c-0.24-0.274-0.551,0.16-0.969,0l0.089,0.215c-0.178-0.144-0.631,0.097-0.569-0.125c-0.151,0.07-0.498-0.09-0.471,0.125
		c-0.685-0.215-1.707,0-2.107-0.384c-0.098,0-0.347,0-0.311,0.099c0.035,0.098,0.24-0.071,0.293,0
		c-0.058-0.006-0.111,0.031-0.124,0.089c-0.214-0.053-0.383-0.08-0.169-0.249c-0.471-0.151-0.516,0.347-1.129,0.24
		c0-0.08,0-0.115-0.187-0.107l-0.356,0.143c-0.4-0.054-0.213-0.214-0.213-0.355c-0.213,0-0.48,0-0.587,0.116l-0.24-0.196
		c0.178,0.142-0.178,0.089-0.284,0.125h0.106c0-0.072-0.284,0-0.408,0c0,0.088,0.275,0.133,0.408,0.168
		c-0.106,0.063-0.275,0-0.417,0.116c0.053-0.151-0.347-0.116-0.516-0.133c-0.169-0.019-0.222,0.114-0.276,0.114
		c-0.053,0-0.32,0-0.168-0.124c0.151-0.125,0.151,0.08,0.257,0c-0.124-0.062-0.106-0.195-0.373-0.106s0.044,0.293-0.329,0.187
		c0.098,0,0.116-0.089,0.187-0.142l-0.356-0.08v0.133c-0.053,0,0-0.053,0-0.07c-0.115,0.133-0.542,0-0.622,0.186
		c-0.186-0.032-0.37-0.073-0.551-0.124c-0.215-0.08-0.452-0.08-0.667,0c-0.179-0.02-0.36,0.008-0.525,0.08
		c-0.284-0.098-0.089-0.498-0.418-0.329c-0.293,0-0.453,0.24-0.337,0.32c-0.525-0.089-1.121,0.125-1.609-0.08
		c-0.072,0.053,0,0.089-0.178,0.116c-0.748,0.068-1.503,0.033-2.241-0.107c0.223-0.053,0-0.133,0-0.213
		c-0.177,0.124-0.231-0.125-0.284,0.08c-0.053,0.204,0,0.177,0.222,0.23c-0.467,0.071-0.944,0.054-1.404-0.054
		c0.124,0.054,0,0.089-0.072,0.125c0-0.187-0.32-0.213-0.569-0.133v0.115l-0.168-0.115c-0.098,0.044-0.089,0.248-0.347,0.142
		l-0.089-0.125c-0.268,0.159-0.58,0.226-0.889,0.188l-0.258-0.16c-0.124,0-0.311,0.133-0.089,0.178
		c-0.343-0.012-0.682-0.091-0.995-0.23c-0.891,0.297-1.828,0.43-2.765,0.391v-0.089c-0.276-0.071-0.116,0.151-0.303,0.098
		c0.072-0.089-0.231-0.169,0-0.285c-0.391-0.062-0.453,0.188-0.684,0.24c0,0.125,0.178-0.08,0.16,0.063s-0.533-0.054-0.56,0.125
		c-0.107-0.063-0.062-0.188,0-0.268l-0.205,0.099c-0.32-0.179,0.569-0.4,0.223-0.632l-0.214,0.045c-0.24-0.17,0.516-0.24,0-0.267
		c-0.222,0.097-0.364,0.355-0.133,0.426c-0.48,0.08-0.142,0.428-0.658,0.445c-0.16-0.089,0.409-0.054,0.276-0.187
		c-0.134-0.134-0.472,0.115-0.685,0.079c0.258,0.046,0.089,0.231-0.062,0.276c-0.151,0.044,0.133-0.178-0.231-0.169
		c0,0.106-0.365,0.204-0.054,0.249c-0.08,0.24-0.391,0-0.56,0.151c-0.151-0.151,0.294-0.392-0.133-0.445
		c0.098,0.151-0.445,0.24-0.178,0.454c-0.169,0-0.213-0.151-0.124-0.249c-0.249-0.08-0.471,0.311-0.631,0v0.16
		c-0.113-0.044-0.223-0.096-0.329-0.151c-0.205,0-0.587,0.249-0.64,0c-0.054,0-0.516,0-0.285,0.195s0.293-0.133,0.507,0.07
		c-0.249-0.168-0.4,0.055-0.551,0.125l-0.054-0.089c-0.08,0-0.32,0-0.346,0.134c0.053-0.054,0-0.115-0.08-0.134l-0.063,0.151
		c-0.364,0.116-0.16-0.231-0.524-0.151l0.249-0.133c-0.054,0-0.223-0.089-0.383,0c-0.16,0.089-0.115,0.302-0.151,0.409
		c-0.195,0.08-0.142-0.134-0.311,0l0.231-0.188c0,0-0.249-0.187-0.533-0.15c-0.285,0.035-0.382,0.274-0.08,0.311
		c-0.142,0-0.374,0-0.285-0.133c-0.311,0.071,0.08,0.124-0.169,0.231c-0.142-0.071-0.533-0.144-0.8-0.24l0.223-0.24h-0.196
		c0.187-0.196-0.178-0.116-0.098-0.303c-0.143,0.001-0.282,0.044-0.4,0.125c0.498,0.24-0.293,0.435-0.08,0.684
		c-0.498,0.125-0.569-0.586-0.969-0.124c0.125,0.063-0.071,0.284,0.24,0.169c-0.338,0-0.124,0.284-0.551,0.223
		c0.24-0.134-0.418-0.223-0.053-0.418c0,0.08,0.257,0,0.311,0c-0.169-0.08-0.071-0.259-0.409-0.223
		c-0.338,0.036-0.489,0.089-0.391,0.213c0.097,0.125,0.302-0.053,0.24,0.116c-0.391,0.107-0.551-0.116-0.614,0.169
		c0.167-0.056,0.349,0.025,0.418,0.188l-0.275,0.097v-0.097c-0.507,0-0.063,0.186-0.552,0.213l-0.293-0.16
		c0-0.196,0.702,0,0.507-0.276c-0.303,0-0.356,0.169-0.658,0.151l0.187-0.088c-0.107,0-0.374-0.329-0.712-0.054
		c-0.177,0.115,0,0.106,0,0.214c-0.462,0.105-0.56,0.23-0.889,0.302c0-0.205-0.542,0.071-0.302-0.178
		c0.213,0.089,0.889,0,0.969-0.258c-0.276-0.204,0.4,0,0.391-0.293c-0.382,0.062-0.471-0.17-0.604-0.312
		c-0.09,0.02-0.173,0.063-0.24,0.124c0,0.142,0.16,0.116,0.24,0.267c-0.363,0.01-0.713,0.138-0.996,0.364
		c-0.178,0-0.204-0.195,0-0.23c-0.511,0.121-1.032,0.2-1.556,0.239c0.436,0.179-0.515,0.151-0.195,0.303
		c0.284,0,0.595,0.134,0.506,0.258c-0.088,0.125-0.053-0.106-0.142-0.143c-0.142,0.16-0.427-0.142-0.524,0.09
		c0.418-0.151-0.063-0.293-0.08-0.489c-0.276,0.16-0.054-0.124-0.392-0.071c-0.319,0.171-0.656,0.309-1.004,0.409
		c-0.541-0.011-1.077,0.104-1.565,0.338c-0.266,0-0.249-0.267-0.506-0.249c-0.258,0.017,0.337,0.169-0.125,0.177v-0.025
		c-0.098,0.08-0.827,0-0.747,0.354v-0.248c-0.068,0.012-0.129,0.049-0.169,0.106c-0.044-0.071-0.177-0.106-0.089-0.187
		c-0.346-0.08-0.506,0.151-0.773,0.223l0.267,0.08c-0.391,0.136-0.793,0.239-1.2,0.311l-0.08-0.125l-0.205,0.134
		c0-0.125-0.329-0.142-0.391,0l0.471-0.462c0.249,0-0.098,0.204,0.107,0.284c0.204,0.08,0.569-0.044,0.551-0.178
		c-0.169,0-0.16,0.054-0.249,0.125c-0.178-0.16,0.062-0.214,0.098-0.356c-0.08,0-0.231,0-0.214,0.071
		c0.145-0.135,0.329-0.222,0.525-0.249c-0.133,0.106,0.178,0.08,0.142,0.151c-0.089-0.16,0.151-0.267,0.507-0.303
		c0.364,0.116,0.56-0.267,0.996-0.311c-0.067,0.2-0.202,0.37-0.383,0.479c0.303,0,0.267-0.07,0.569-0.053
		c0.045-0.143,0-0.338,0.294-0.489l0.089,0.115c0.257-0.133,0.151-0.302,0.542-0.354c0.667-0.107,1.369-0.188,1.876-0.276
		l0.08,0.116c0.142-0.294,0.889-0.249,1.2-0.428c0.702,0,1.342-0.347,1.778-0.204c1.068-0.321,2.168-0.523,3.28-0.604l-0.133,0.196
		c0.16-0.152,0.178,0.08,0.373,0c-0.293-0.116,0.223-0.214,0.338-0.338c0.57,0.023,1.137-0.089,1.654-0.329l0.053,0.115
		c0.409-0.275,1.049-0.143,1.663-0.178c0.115,0.084,0.258,0.122,0.4,0.106c0.266-0.231,0.453-0.223,0.889-0.373
		c0.437-0.04,0.878-0.04,1.315,0c1.263-0.365,2.667-0.285,4.01-0.542l0.124,0.133c1.289-0.365,2.996-0.125,4.125-0.311l-0.08,0.239
		c0.374,0.071,0.809-0.08,0.703-0.258c0.373,0.071,0.889-0.142,1.146,0.053c0.374,0,0.436-0.124,0.747-0.169
		c0.568,0.059,1.14,0.059,1.707,0h-0.302c-0.071,0.055-0.071,0.152,0.098,0.169c0.169,0.019,0.969,0.071,0.684-0.222
		c0.756,0.16,1.778-0.133,2.463,0.089c-0.063-0.08,0.124-0.089,0.195-0.142c0.624,0.065,1.253,0.065,1.876,0
		c0.098,0-0.169,0.133,0.098,0.15c0.267,0.019,0-0.106,0.195-0.15c1.035,0.008,2.067,0.074,3.094,0.195
		c1.716-0.09,3.503,0,5.139,0.07v0.055c0.56-0.196,1.262,0.293,1.724,0c0.134,0.062,0.498,0.053,0.392,0.159
		c0.453-0.134,1.209,0.204,1.849,0h-0.16c0.622,0.16,1.2,0,1.858,0.16c-0.071,0-0.196,0-0.223,0.089
		c0.249,0.134,0.641-0.214,0.756,0.08c0.151,0,0.125-0.134,0-0.134c1.519,0.135,3.045,0.189,4.57,0.16
		c1.058,0.231,0,0.472,0.889,0.32c0.062,0.054,0.071-0.106,0.071-0.045c0.338-0.053,0.471,0.348,0.729,0.214
		c-0.071-0.178,0.169-0.09,0.186-0.195c0.649,0.16,0.756,0.329,1.298,0.23l-0.053,0.09c0.658-0.205,1.342,0,1.911-0.276
		c3.405,0.196,6.677,0.302,9.993,0.534c3.316,0.23,6.463,0.471,9.735,0.889c0.511,0.253,1.088,0.346,1.653,0.267
		c-0.044,0-0.098,0-0.044,0.079c0.08-0.186,0.604,0,0.711-0.142c1.218,0.133,2.347,0.178,3.6,0.267c-0.204,0-0.328,0.16-0.088,0.169
		l0.266-0.106v0.062c0.169,0,0.365-0.098,0.205-0.178c3.174,0.072,6.223,0.703,9.308,0.827c0.855,0.105,1.716,0.149,2.578,0.134
		c2.259,0.431,4.555,0.632,6.854,0.604C311.345,388.225,310.894,388.458,310.405,388.527"/>
	<path fill="#50BDC1" d="M114.201,435.441c0.445-0.561,1.289-0.259,1.778-0.667c0.071,0,0,0.249,0.187,0.15
		c0.693-0.397,1.522-0.487,2.284-0.249v0.072c0.152,0,0.267-0.223,0.418-0.214v0.125c0-0.144,0.249-0.107,0.294-0.224
		c0.062,0,0.089,0.16,0.169,0.215l0.053-0.169c0.151-0.409,0.578-0.054,0.889-0.294v0.106c0.532-0.244,1.094-0.418,1.671-0.515
		c-0.026,0.07-0.026,0.149,0,0.222c0-0.169,0.16-0.24,0.311-0.294c0.107,0.16,0.232-0.186,0.436-0.115v0.044
		c0.098-0.194,0.222,0.071,0.285-0.15l0.115,0.125c0-0.249,0.214,0.105,0.302,0v-0.055c0.098-0.07,0.178,0,0.267,0
		c0.213-0.089,0.373,0,0.329-0.15c0.107,0.134-0.204,0.089,0,0.294c0.722-0.24,1.472-0.383,2.231-0.427
		c0.107,0.062,0.16,0.079,0.196,0.15s0.276-0.071,0.329-0.178c0.053-0.107,0.062,0.089,0.107,0.098
		c0.044,0.009,0.106-0.222,0.275-0.16c-0.039,0.06-0.039,0.137,0,0.195c0.107-0.168,0.276-0.16,0.418-0.23c0,0-0.044,0.063,0,0.115
		c0.133-0.178,0.302,0,0.427-0.115v0.115c0.258,0.107,0-0.239,0.24-0.187c-0.045,0.045,0,0.08,0,0.134
		c0.151-0.223,0.471-0.196,0.64-0.285c0.217-0.016,0.432-0.058,0.64-0.124c0.089,0,0,0.267,0.231,0.195
		c-0.053-0.213,0.347-0.133,0.169-0.364c0.196,0,0.507,0.063,0.613,0c-0.062,0.099,0.143,0.249,0,0.293l0.152,0.116
		c0,0.089-0.134,0-0.072,0.089c0.063,0.088,0.285-0.125,0.356-0.106c0.116-0.151,0.196-0.409,0.427-0.472
		c-0.098,0.099,0.106,0.231,0.044,0.284l0.231-0.453c0.08,0,0.054,0.169,0.152,0.099c0.097-0.072,0-0.107,0.053-0.16
		c0.053-0.055,0.302-0.099,0.382,0.114c0.053,0.08-0.115,0.063,0,0.125c0.116,0.063,0.133-0.098,0.276-0.115
		c0.098,0,0.249-0.133,0.124-0.231c-0.124-0.098,0.054,0.124-0.053,0.071c0.069-0.124,0.196-0.204,0.338-0.213
		c-0.045,0,0,0.097,0,0.169c0.15-0.166,0.335-0.297,0.542-0.383c0-0.106,0,0.195-0.089,0.15c0.311,0.099,0.525-0.274,0.791-0.105
		c0,0-0.044-0.135-0.044-0.116c0.142,0,0.16,0.142,0.231,0.08c0,0.089,0.107,0,0.187-0.08c0.08-0.08,0,0-0.045,0.054
		c0.262-0.175,0.577-0.25,0.889-0.214c0-0.053,0.125-0.24,0.187-0.249v0.143c0.071,0.071,0.213-0.045,0.249,0.063
		c0.098-0.187-0.498,0.231-0.338,0.071c0.071,0.106,0.213-0.249,0.213-0.063c0.125,0,0.223-0.195,0.374-0.098
		c-0.045,0-0.062,0.204,0,0.178s0-0.071,0.178-0.143l0.08-0.071c0-0.133,0.169,0,0.071-0.142c0.044,0.106,0.258-0.107,0.284,0.106
		v0.177c0.08,0,0.089-0.203,0.134-0.283v0.07c0-0.267,0.195,0,0.24-0.23c0.186,0.062,0.435-0.063,0.551,0.089
		c0.106-0.098,0.204-0.213,0.355-0.178c0,0-0.053,0-0.053,0.098s0.116,0,0.187-0.071c0.071-0.07,0.222,0.115,0.346,0.187
		c0.107-0.098,0-0.231,0-0.32c0.178,0.232,0.32-0.24,0.525,0c0,0.045-0.16,0.16,0,0.205c0.178,0.24,0.187-0.24,0.4-0.151
		l-0.098-0.195c0.116,0.115,0.24-0.179,0.276,0.045c0-0.089,0.24,0,0.169-0.179c0.346,0.115,0.72-0.258,0.995,0.08
		c0,0,0.152,0,0.107-0.134c-0.044-0.133-0.08,0.099-0.124,0c-0.045-0.097,0-0.071,0-0.097c0-0.027,0.186,0,0.142,0.213
		c0.24,0.089,0.124-0.4,0.409-0.382c0,0.089,0,0.115,0.115,0.08l0.107-0.188c0.187,0,0.151,0.178,0.187,0.32
		c0.089,0,0.204-0.071,0.222-0.195l0.151,0.16c-0.115-0.116,0.053-0.116,0.089-0.152c0,0.055,0.133,0,0.178,0
		c0.044,0-0.151-0.097-0.222-0.114c-0.072-0.019,0.106-0.071,0.151-0.169c0,0.15,0.178,0.062,0.249,0.062
		c0.071,0,0.062-0.151,0.089-0.151c0.026,0,0.142,0,0.106,0.099c-0.035,0.098-0.089-0.053-0.115,0
		c-0.027,0.053,0.097,0.178,0.186,0.053c0.089-0.124-0.097-0.275,0.089-0.222v0.16h0.178v-0.134v0.063
		c0-0.151,0.222-0.107,0.213-0.268c-0.008-0.159,0.196,0.054,0.267,0c0.108,0.036,0.225-0.018,0.267-0.123
		c0.088-0.012,0.163-0.069,0.195-0.151c0.152,0.062,0.187,0.479,0.276,0.266c0.124,0,0.124-0.293,0.053-0.354
		c0.249,0,0.445-0.276,0.703-0.144c0-0.053,0-0.089,0.044-0.133c0.347-0.053,0.64-0.364,0.987-0.196c-0.08,0.08,0,0.135,0.053,0.205
		c0.045-0.142,0.134,0.089,0.098-0.115c-0.035-0.204-0.053-0.169-0.16-0.187c0.174-0.135,0.398-0.187,0.613-0.143
		c-0.062,0,0-0.088,0-0.134c0,0.188,0.205,0.17,0.285,0.054v-0.115l0.107,0.089c0-0.054,0-0.249,0.097-0.187l0.08,0.106
		c0.072-0.134,0.178-0.347,0.329-0.303l0.152,0.125c0.044,0,0.097-0.169,0-0.188c0.24,0,0.373,0,0.488,0.099
		c0.252-0.422,0.667-0.723,1.147-0.827v0.089c0.134,0,0-0.169,0.098-0.133c0.098,0.035,0.142,0.133,0.098,0.267
		c0.187,0,0.142-0.24,0.222-0.329s-0.053,0.106-0.08,0s0.24,0,0.196-0.195c0.071,0,0.08,0.178,0.089,0.258l0.062-0.125
		c0.178,0.134-0.133,0.463,0.08,0.64l0.071-0.062c0.151,0.125-0.151,0.302,0.089,0.258c0.062-0.133,0.053-0.409-0.062-0.437
		c0.177-0.142-0.054-0.435,0.16-0.523c0.089,0.062-0.16,0.106-0.071,0.213c0.088,0.107,0.168-0.169,0.275-0.169
		c-0.124,0-0.107-0.213-0.053-0.275c0.053-0.062,0,0.187,0.142,0.134c0-0.107,0.098-0.249-0.044-0.249c0-0.24,0.177,0,0.195-0.223
		c0.107,0.124,0,0.418,0.178,0.409c-0.08-0.125,0.124-0.294-0.053-0.462c0.08,0,0.133,0.124,0.124,0.231
		c-0.009,0.105,0.116-0.374,0.267-0.107v-0.16c0,0,0.098,0.044,0.178,0.107c0.08,0.062,0.177-0.329,0.266-0.107
		c0,0,0.205-0.116,0.071-0.23c-0.133-0.116-0.088,0.178-0.24,0c0.152,0.133,0.152-0.099,0.196-0.188l0.053,0.08
		c0-0.053,0.125-0.08,0.107-0.187c-0.008,0.053,0.021,0.104,0.071,0.125v-0.16c0.125-0.151,0.133,0.204,0.267,0.08l-0.071,0.169
		c0,0,0.124,0.053,0.177,0c0.054-0.054,0-0.303-0.053-0.409c-0.053-0.107,0.098,0.106,0.125-0.071v0.213
		c0.054,0.093,0.173,0.125,0.266,0.071c0.054-0.08,0.089-0.32-0.053-0.312c0.04-0.035,0.102-0.032,0.138,0.008
		c0.022,0.024,0.031,0.059,0.022,0.091c0.107-0.116-0.071-0.116,0-0.258c0.08,0.053,0.267,0.07,0.4,0.133v0.267l0.08-0.053
		c0,0.222,0.107,0.089,0.125,0.284c0.071,0,0.106-0.098,0.133-0.178c-0.276-0.16,0-0.463-0.151-0.676c0.178-0.187,0.4,0.498,0.444,0
		c-0.071-0.045-0.053-0.285-0.151-0.134c0.142-0.053,0-0.293,0.178-0.293c-0.071,0.169,0.231,0.16,0.142,0.409
		c0-0.08-0.124,0-0.142,0s0.107,0.249,0.24,0.16c0.133-0.089,0.178-0.151,0.107-0.258c-0.071-0.106-0.116,0.089-0.134-0.08
		c0.134-0.151,0.267,0,0.214-0.24c-0.098,0.08-0.187,0-0.231-0.133l0.088-0.134v0.106c0.223-0.053,0-0.195,0.178-0.293l0.169,0.124
		c0,0.187-0.302,0.098-0.142,0.329c0.124-0.071,0.107-0.204,0.24-0.231l-0.053,0.116c0.044,0,0.249,0.266,0.311-0.054
		c0-0.133,0-0.098-0.062-0.195c0.16-0.169,0.168-0.302,0.275-0.409c0.071,0.195,0.213-0.15,0.178,0.133
		c-0.116-0.053-0.365,0.16-0.338,0.383c0.169,0.16-0.16,0.08-0.089,0.329c0.142-0.106,0.249,0.106,0.347,0.223
		c0,0,0.053-0.116,0.062-0.152c0.009-0.035-0.098-0.088-0.169-0.23c0.178-0.1,0.297-0.277,0.32-0.48
		c0.079,0.027,0.122,0.113,0.095,0.192c-0.004,0.011-0.009,0.021-0.015,0.031c0.166-0.185,0.365-0.335,0.587-0.445
		c-0.231-0.116,0.178-0.213,0-0.32c-0.123,0.036-0.251-0.034-0.287-0.157c-0.003-0.01-0.005-0.02-0.006-0.029
		c0.071,0,0.053,0.089,0.097,0.115c0-0.169,0.223,0.09,0.205-0.15c-0.142,0.204,0.107,0.274,0.16,0.462
		c0.08-0.188,0.062,0.116,0.187,0c0.08-0.193,0.187-0.372,0.32-0.533c0.275,0,0.426-0.383,0.569-0.543
		c0.124,0,0.177,0.231,0.284,0.178c0.107-0.053-0.187-0.114,0-0.187v0.054c0-0.089,0.329-0.16,0.213-0.444l0.08,0.23
		c0,0,0-0.08,0.045-0.124c0.044-0.045,0.107,0.08,0.089,0.169c0.169,0,0.169-0.214,0.267-0.32l-0.134-0.045
		c0.107-0.257,0.285-0.257,0.418-0.462l0.071,0.116l0.054-0.169c0.044,0.133,0.177,0.106,0.168,0l-0.071,0.506
		c-0.115,0,0-0.204-0.124-0.257c-0.125-0.054-0.231,0.124-0.187,0.249c0.062-0.045,0.053-0.072,0.071-0.152
		c0.125,0.125,0,0.214,0.054,0.356c0-0.044,0.097-0.044,0.08-0.098c-0.015,0.119-0.072,0.229-0.16,0.311
		c0-0.124-0.098-0.053-0.098-0.124c0.08,0.142,0,0.276-0.134,0.364c-0.186-0.071-0.168,0.329-0.337,0.436
		c-0.037-0.17-0.037-0.346,0-0.516c-0.125,0-0.089,0.098-0.223,0.125c0.05,0.165,0.05,0.341,0,0.507l-0.071-0.089
		c-0.071,0.16,0,0.302-0.124,0.418c-0.125,0.115-0.534,0.364-0.729,0.515l-0.062-0.098c0,0.303-0.303,0.355-0.392,0.569
		c-0.302,0.098-0.471,0.524-0.693,0.444c-0.332,0.426-0.75,0.777-1.227,1.031v-0.213c0,0.169-0.098-0.054-0.169,0
		c0.16,0.071,0,0.24-0.053,0.373c-0.267,0-0.471,0.311-0.605,0.542l-0.062-0.106c-0.089,0.329-0.4,0.284-0.649,0.4
		c-0.053,0-0.133-0.116-0.204-0.054c-0.045,0.267-0.125,0.275-0.276,0.488c-0.178,0.085-0.372,0.134-0.569,0.144
		c-0.436,0.515-1.049,0.631-1.547,1.058l-0.098-0.116c-0.444,0.533-1.235,0.525-1.662,0.89v-0.249
		c-0.133-0.004-0.243,0.1-0.247,0.232c-0.001,0.039,0.007,0.078,0.025,0.114c-0.178,0-0.338,0.258-0.498,0.107
		c-0.169,0-0.151,0.177-0.276,0.266c-0.256,0.015-0.505,0.088-0.729,0.214h0.08c0-0.054,0-0.16-0.089-0.152
		c-0.089,0.01-0.435,0.063-0.231,0.313c-0.364-0.063-0.702,0.364-1.075,0.24c0.053,0.07,0,0.105,0,0.169
		c-0.285,0.088-0.623,0-0.809,0.222c-0.054,0,0-0.15-0.08-0.134c-0.08,0.018,0,0.106-0.045,0.169
		c-0.409,0.267-0.96,0.089-1.369,0.232c-0.709,0.281-1.445,0.489-2.196,0.621v-0.062c-0.187,0.266-0.613-0.107-0.729,0.257
		c-0.071,0-0.222,0-0.204-0.105c-0.16,0.194-0.569,0-0.8,0.213h0.062c-0.302-0.071-0.507,0.15-0.836,0.098
		c0,0,0.08-0.062,0.071-0.116c-0.009-0.053-0.213,0.294-0.338,0c-0.062,0,0,0.144,0,0.134c-0.68,0.068-1.35,0.224-1.991,0.463
		c-0.516-0.09-0.124-0.463-0.462-0.196c-0.045,0,0,0.106,0,0.054c-0.134,0.098-0.294-0.275-0.374-0.116
		c0.08,0.169-0.044,0.116,0,0.214c-0.311-0.063-0.409-0.214-0.613-0.045v-0.089c-0.222,0.285-0.569,0.196-0.738,0.517
		c-1.493,0.274-2.916,0.612-4.383,0.827c-1.467,0.213-2.871,0.407-4.383,0.435c-0.223-0.173-0.531-0.191-0.773-0.044v-0.08
		c0,0.195-0.258,0.053-0.258,0.24c-0.551,0-1.049,0.142-1.609,0.213c0.089,0,0.098-0.195,0-0.169l-0.08,0.142v-0.053
		c-0.071,0-0.124,0.142,0,0.196c-1.369,0.354-2.836,0.15-4.187,0.435c-0.385,0.02-0.766,0.094-1.129,0.223
		c-1.038-0.117-2.089-0.003-3.076,0.338C114.139,436.063,113.8,435.645,114.201,435.441"/>
	<path fill="#50BDC1" d="M302.253,439.174c-1.387,0.569-3.352,0.124-4.881,0.516c-0.186,0,0-0.275-0.4-0.195
		c-1.915,0.403-3.887,0.465-5.823,0.178l0.098-0.089c-0.364,0-0.756,0.249-1.129,0.23c0-0.053,0.116-0.08,0-0.142
		c-0.062,0.16-0.667,0.107-0.809,0.231c-0.16,0-0.169-0.179-0.373-0.231l-0.178,0.187c-0.516,0.472-1.458,0.071-2.232,0.347
		c0,0,0.107-0.08,0-0.115c-1.432,0.292-2.881,0.497-4.338,0.613c0.071-0.068,0.074-0.181,0.006-0.251
		c-0.002-0.002-0.004-0.005-0.006-0.007c0,0.195-0.471,0.267-0.889,0.338c-0.213-0.188-0.631,0.222-1.111,0.15v-0.044
		c-0.303,0.231-0.525-0.08-0.756,0.187l-0.249-0.143c-0.089,0.285-0.516-0.105-0.764,0.055v0.062c-0.249,0.08-0.418-0.045-0.649,0
		c-0.561,0.115-0.889,0-0.889,0.204c-0.24-0.16,0.533-0.124,0.168-0.346c-1.883,0.314-3.782,0.521-5.689,0.622
		c-0.231-0.071-0.374-0.08-0.436-0.16c-0.304,0.035-0.602,0.106-0.889,0.213c0.062,0-0.142-0.099-0.24-0.099
		c-0.364-0.053-0.329,0.259-0.729,0.196c0.134-0.071,0.178-0.142,0.107-0.213c-0.346,0.154-0.716,0.247-1.094,0.275
		c0.045,0,0.134-0.071,0.107-0.134c-0.382,0.223-0.773,0-1.111,0.17l0.106-0.135c-0.622-0.097-0.115,0.276-0.649,0.224
		c0.107-0.055,0.063-0.089,0.072-0.144c-0.541,0.188-1.102,0.309-1.672,0.356v-0.053c-0.539,0.025-1.077,0.085-1.609,0.178
		c-0.222,0,0-0.303-0.533-0.214c0.071,0.249-0.889,0.178-0.525,0.427c-0.511-0.034-1.024-0.011-1.529,0.071
		c0.196-0.116-0.293-0.284,0.089-0.339l-0.329-0.133c0-0.098,0.311,0,0.196-0.106c-0.293,0.066-0.59,0.114-0.889,0.142
		c-0.344,0.274-0.745,0.465-1.174,0.561c0.249-0.115-0.213-0.267,0-0.32l-0.72,0.543c-0.196,0-0.089-0.196-0.356-0.116
		c0,0.071-0.088,0.116-0.16,0.178c-0.071,0.063-0.8,0.116-0.933-0.124c-0.107-0.089,0.311-0.071,0.08-0.143
		s-0.365,0.107-0.711,0.143c-0.249,0-0.676,0.151-0.4,0.267c0.275,0.116-0.08-0.143,0.169-0.089
		c-0.264,0.173-0.574,0.263-0.889,0.258c0.115-0.044,0.088-0.115,0.124-0.188c-0.472,0.208-0.968,0.357-1.476,0.445
		c0,0.116,0.169-0.23,0.258-0.169c-0.72-0.116-1.396,0.329-2.009,0.133c0.098,0,0.08,0.16,0.071,0.125
		c-0.338,0-0.347-0.16-0.56-0.08c-0.044-0.098-0.267,0-0.489,0.099c-0.222,0.097-0.071-0.045,0.124-0.072
		c-0.735,0.212-1.503,0.294-2.266,0.241c0,0.062-0.401,0.266-0.569,0.266v-0.16c-0.169-0.08-0.561,0.045-0.614-0.08
		c-0.32,0.205,1.343-0.239,0.889-0.062c-0.142-0.124-0.631,0.275-0.56,0.062c-0.338,0-0.631,0.223-0.969,0.099
		c0.098,0,0.24-0.231,0-0.204c-0.471,0.062-0.124,0.08-0.498,0.16l-0.24,0.07c0,0.151-0.427,0-0.222,0.16
		c-0.071-0.116-0.676,0.115-0.676-0.134v-0.195c-0.213,0-0.311,0.223-0.453,0.32l-0.08-0.08c0,0.293-0.498,0-0.702,0.24
		c-0.445-0.08-1.094,0.053-1.325-0.116c-0.311,0.146-0.653,0.21-0.996,0.187c0.071,0,0.178,0,0.187-0.106
		c-0.258-0.08-0.302,0-0.507,0.063c0.045-0.045-0.498-0.151-0.782-0.249c-0.311,0.098-0.178,0.258-0.196,0.355
		c-0.338-0.284-0.889,0.231-1.316,0c0.107-0.053,0.463-0.169,0.178-0.231c-0.338-0.283-0.586,0.24-1.084,0.125l0.142,0.24
		c-0.231-0.143-0.702,0.177-0.676-0.08c-0.151,0.088-0.578-0.054-0.506,0.178c-0.818-0.16-1.93,0.204-2.463-0.195
		c-0.116,0-0.4,0-0.338,0.133c0.205,0.125,0.258-0.107,0.338,0c-0.107,0-0.124,0.08-0.124,0.116
		c-0.258-0.045-0.454-0.054-0.241-0.258c-0.568-0.134-0.533,0.418-1.244,0.338c0-0.099,0-0.134-0.24-0.116l-0.382,0.187
		c-0.454,0-0.276-0.222-0.303-0.391c-0.24,0-0.542,0-0.64,0.16l-0.311-0.196c0.231,0.143-0.187,0.107-0.302,0.151l0.106-0.044
		c-0.053-0.071-0.32,0-0.462,0c0,0.098,0.329,0.142,0.489,0.169c-0.115,0.071-0.311,0.062-0.471,0.15c0-0.169-0.4-0.106-0.596-0.125
		c-0.195-0.017-0.24,0.16-0.302,0.151c-0.062-0.008-0.364,0-0.204-0.124s0.186,0.08,0.302,0c-0.142-0.062-0.142-0.213-0.445-0.098
		c-0.302,0.116,0.08,0.319-0.364,0.23c0.115,0,0.133-0.114,0.213-0.169l-0.409-0.08v0.152c-0.053,0,0-0.054,0-0.072
		c-0.115,0.16-0.613,0.072-0.702,0.249c-0.212-0.022-0.423-0.059-0.631-0.105c-0.257-0.066-0.53-0.034-0.765,0.089
		c-0.207-0.006-0.413,0.034-0.604,0.115c-0.329-0.115-0.125-0.569-0.48-0.383c-0.338,0-0.516,0.275-0.383,0.373
		c-0.604-0.105-1.289,0.135-1.858-0.098c-0.08,0.063,0,0.098-0.213,0.134c-0.889-0.054-1.885,0.178-2.578-0.125
		c0.258-0.062,0-0.142,0-0.23c-0.214,0.134-0.249-0.143-0.329,0.089c-0.08,0.23,0,0.196,0.24,0.249
		c-0.544,0.09-1.099,0.07-1.636-0.053c0.142,0.062,0,0.105-0.08,0.142c0.045-0.213-0.347-0.249-0.64-0.188l-0.053,0.135
		l-0.187-0.144c-0.116,0-0.142,0.276-0.427,0.134l-0.08-0.134c-0.339,0.154-0.718,0.2-1.084,0.134l-0.258-0.195
		c-0.142,0-0.4,0.125-0.151,0.187c-0.56-0.134-0.889-0.16-1.076-0.329c-1.158,0.311-2.364,0.401-3.556,0.268l0.053-0.099
		c-0.293-0.098-0.186,0.169-0.4,0.09c0.116-0.09-0.204-0.215,0.063-0.312c-0.418-0.134-0.587,0.124-0.889,0.151
		c-0.063,0.124,0.248-0.071,0.16,0.089c-0.089,0.16-0.587-0.144-0.685,0c-0.089-0.08,0-0.214,0.089-0.294l-0.276,0.08
		c-0.284-0.259,0.8-0.355,0.507-0.658h-0.249c-0.195-0.213,0.676-0.187,0.08-0.293c-0.275,0.071-0.551,0.338-0.329,0.443
		c-0.569,0-0.338,0.445-0.933,0.384c-0.151-0.125,0.48,0,0.4-0.16c-0.249-0.178-0.578,0-0.827,0c0.267,0.089,0,0.266-0.196,0.293
		c-0.284-0.107,0.24-0.16-0.186-0.213c-0.089,0.105-0.516,0.16-0.178,0.258c-0.213,0.248-0.436-0.098-0.72,0.08
		c-0.098-0.188,0.533-0.374,0.08-0.498c0,0.178-0.64,0.186-0.436,0.462c-0.178-0.071-0.16-0.204,0-0.302
		c-0.24-0.116-0.711,0.266-0.729-0.08l-0.124,0.169c-0.071-0.063-0.178-0.116-0.285-0.214c-0.106-0.098-0.809,0.178-0.729-0.08
		c-0.08,0-0.613,0-0.453,0.16c0.302,0.143,0.418-0.106,0.542,0.16c-0.187-0.223-0.489,0-0.702,0v-0.106
		c-0.125,0-0.382,0-0.471,0.097c0.097-0.053,0.071-0.133,0-0.16l-0.169,0.144c-0.48,0,0-0.285-0.498-0.294l0.373-0.071
		c-0.08,0-0.186-0.15-0.418-0.124c-0.231,0.026-0.32,0.275-0.426,0.382c-0.276,0-0.071-0.169-0.365-0.053l0.409-0.134
		c0.062-0.044-0.16-0.258-0.489-0.293c-0.329-0.036-0.631,0.187-0.311,0.302c-0.169,0-0.382-0.133-0.213-0.213
		c-0.4,0,0,0.151-0.347,0.204c-0.116-0.115-0.489-0.293-0.702-0.462l0.426-0.196h-0.231c0.356-0.151-0.098-0.16,0.125-0.337
		c-0.172-0.044-0.353-0.044-0.525,0c0.356,0.373-0.658,0.382-0.622,0.684c-0.658,0-0.151-0.756-0.951-0.382
		c0.071,0.089-0.312,0.275,0.115,0.231c-0.382-0.071-0.373,0.267-0.791,0.089c0.382-0.08-0.258-0.338,0.293-0.454
		c-0.071,0.098,0.249,0.107,0.338,0.089c-0.124-0.133,0.134-0.293-0.258-0.337c-0.257,0-0.586,0-0.595,0.115
		c-0.009,0.116,0.373,0,0.16,0.178c-0.507,0-0.498-0.258-0.809,0c0.311,0,0.329,0.196,0.275,0.302h-0.382l0.116-0.098
		c-0.543-0.151-0.249,0.178-0.792,0.08l-0.168-0.257c0.195-0.152,0.773,0.186,0.782-0.125c-0.356-0.063-0.534,0.089-0.836-0.044
		h0.276c-0.125,0-0.08-0.463-0.676-0.312c-0.302,0-0.107,0.098-0.169,0.213c-0.586-0.07-0.809,0-1.182,0
		c0.178-0.205-0.64-0.133-0.133-0.285c0.381,0.211,0.833,0.249,1.244,0.107c-0.089-0.293,0.427,0.116,0.667-0.124
		c-0.454-0.08-0.311-0.338-0.32-0.525c-0.118-0.02-0.238-0.02-0.356,0c-0.115,0.151,0,0.179,0,0.339
		c-0.443-0.116-0.908-0.116-1.351,0c-0.133-0.107,0-0.249,0.196-0.231c-0.602-0.066-1.197-0.182-1.779-0.347
		c0.232,0.329-0.666-0.044-0.524,0.213c0.276,0.106,0.444,0.338,0.213,0.418s0.063-0.106,0-0.177
		c-0.32,0.097-0.266-0.285-0.622-0.107c0.596,0,0.276-0.294,0.48-0.479c-0.453,0,0.089-0.135-0.302-0.205
		c-0.479,0.04-0.961,0.04-1.44,0c-0.595-0.206-1.213-0.334-1.841-0.383c-0.186-0.159,0.116-0.347-0.124-0.443
		c-0.24-0.099,0.08,0.293-0.32,0.08h0.08c-0.178,0-0.756-0.356-1.102-0.072l0.293-0.195c-0.071-0.045-0.187,0-0.276,0
		c0.045-0.08,0-0.178,0.169-0.195c-0.178-0.231-0.613-0.115-0.942-0.187l0.107,0.187c-0.482-0.071-0.957-0.179-1.423-0.32
		l0.116-0.124h-0.365c0.169-0.116,0-0.258-0.284-0.196l1.04-0.142c0.16,0.133-0.356,0.106-0.32,0.275
		c0.035,0.168,0.533,0.223,0.702,0.106c-0.123-0.045-0.259-0.045-0.382,0c0.08-0.204,0.347-0.133,0.578-0.231
		c-0.098,0-0.196-0.106-0.258-0.044c0.255-0.043,0.517-0.024,0.764,0.054c-0.257,0,0,0.142-0.088,0.178
		c0.142-0.16,0.471-0.144,0.817,0c0.143,0.266,0.801,0,1.201,0.204c-0.278,0.134-0.581,0.207-0.889,0.214
		c0.222,0.16,0.311,0.071,0.533,0.231c0.265-0.172,0.573-0.265,0.889-0.268l-0.062,0.133c0.373,0,0.48-0.177,0.889,0
		c0.655,0.201,1.323,0.355,2,0.463l-0.053,0.134c0.462-0.223,1.102,0.08,1.591,0c0.649,0.249,1.609,0.15,1.885,0.436
		c1.307,0.142,2.462,0.195,3.787,0.382l-0.302,0.169c0.293-0.116,0.124,0.133,0.373,0.124c-0.213-0.178,0.4-0.16,0.605-0.258
		c0.631,0.174,1.294,0.201,1.938,0.08v0.134c0.623-0.075,1.255,0.004,1.84,0.231c0.08,0.12,0.212,0.194,0.355,0.204
		c0.383-0.129,0.78-0.209,1.183-0.24c0.472,0.036,0.939,0.117,1.396,0.24c1.538-0.195,2.996,0.098,4.56,0l0.08,0.169
		c1.538-0.258,3.334,0.089,4.623,0l-0.142,0.267c0.391,0.098,0.889-0.044,0.827-0.24c0.391,0.099,1.013-0.098,1.244,0.143
		c0.409,0.062,0.507-0.115,0.889-0.143c0.626,0.106,1.263,0.124,1.894,0.054h-0.187c-0.089,0.063-0.107,0.178,0.089,0.195
		c0.196,0.019,1.067,0.071,0.782-0.249c0.827,0.188,1.921-0.15,2.739,0.107c-0.072-0.089,0.133-0.107,0.213-0.169
		c0.685,0.074,1.377,0.074,2.062,0c0.125,0-0.177,0.15,0.116,0.16c0.293,0.009,0-0.125,0.222-0.169
		c1.174-0.179,2.392,0.124,3.459,0.053c1.884-0.222,3.876-0.151,5.698-0.267v0.063c0.587-0.276,1.467,0.195,1.911-0.205
		c0.152,0.063,0.561,0,0.463,0.143c0.462-0.195,1.387,0.106,2.062-0.151l-0.169,0.045c0.729,0.115,1.325-0.116,2.098,0
		c-0.08,0-0.213,0.053-0.231,0.124c0.32,0.116,0.649-0.302,0.889,0c0.16,0,0.089-0.169,0-0.151c1.7-0.056,3.394-0.207,5.077-0.453
		c1.253,0.115,0.16,0.524,1.084,0.231c0.098,0.062,0-0.125,0.062-0.063c0.356-0.106,0.649,0.32,0.889,0.143
		c-0.142-0.188,0.16-0.116,0.143-0.24c0.773,0.089,0.951,0.24,1.52,0.063v0.106c0.64-0.338,1.476-0.24,1.991-0.604
		c3.796-0.32,7.423-0.782,11.131-1.103c3.707-0.319,7.263-0.658,11.041-0.773c0.632,0.191,1.306,0.191,1.938,0
		c0,0-0.08,0.063,0,0.098c0-0.222,0.676-0.071,0.711-0.284c1.396-0.063,2.667-0.23,4.09-0.329c-0.222,0-0.302,0.223,0,0.195
		l0.258-0.16l0.053,0.063c0.178-0.055,0.365-0.169,0.151-0.232c3.556-0.435,7.183-0.248,10.713-0.488
		c0.984-0.004,1.967-0.071,2.942-0.205c2.647,0.236,5.31,0.236,7.957,0C303.516,439.001,302.888,439.243,302.253,439.174"/>
	<path fill="#50BDC1" d="M143.662,410.495c-0.978,0.836-2.747,0.987-3.983,1.591c-0.151,0.071-0.053-0.239-0.382-0.08
		c-1.147,0.738-3.343,1.006-5.023,1.086l0.08-0.09c-0.32,0-0.631,0.338-0.969,0.348c0,0,0.089-0.08,0-0.135
		c0,0.152-0.578,0.16-0.693,0.285c-0.143,0-0.152-0.142-0.338-0.169l-0.16,0.188c-0.436,0.453-1.28,0.186-1.956,0.497
		c0,0,0.089-0.08,0-0.106c-1.28,0.323-2.581,0.559-3.894,0.702c0.061-0.056,0.065-0.152,0.009-0.213
		c-0.003-0.003-0.006-0.006-0.009-0.009c-0.053,0.178-0.444,0.239-0.8,0.302c-0.169-0.169-0.587,0.196-1.014,0.125
		c-0.293,0.195-0.462-0.08-0.693,0.151l-0.204-0.125c-0.125,0.249-0.454-0.099-0.703,0v0.045c-0.231,0.07-0.355-0.055-0.586,0
		c-0.516,0.08-0.827,0-0.809,0.142c-0.187-0.151,0.506-0.08,0.213-0.293c-1.713,0.21-3.441,0.278-5.165,0.204
		c-0.187-0.08-0.311-0.107-0.356-0.178c-0.27,0.014-0.538,0.056-0.8,0.125c0.062,0-0.107-0.107-0.196-0.116
		c-0.311-0.089-0.355,0.196-0.684,0.098c0.133,0,0.187-0.106,0.142-0.178c-0.335,0.095-0.683,0.14-1.031,0.133
		c0.053,0,0.133,0,0.124-0.105c-0.391,0.159-0.675-0.063-1.013,0l0.124-0.099c-0.515-0.15-0.169,0.223-0.622,0.124
		c0.107,0,0.08-0.071,0.098-0.115c-0.514,0.111-1.04,0.153-1.565,0.124v-0.044c-0.488-0.031-0.978-0.031-1.467,0
		c-0.178-0.062,0.089-0.267-0.409-0.258c0,0.222-0.889,0-0.586,0.312c-0.447-0.097-0.904-0.141-1.361-0.134
		c0.205-0.07-0.169-0.284,0.178-0.275l-0.24-0.151c0.045-0.089,0.267,0,0.196-0.071c-0.296,0.025-0.593,0.025-0.889,0
		c-0.375,0.188-0.783,0.303-1.2,0.339c0.257-0.071-0.116-0.249,0.062-0.285l-0.783,0.374c-0.177,0,0-0.169-0.275-0.135
		c0,0.055-0.107,0.08-0.196,0.125c-0.089,0.045-0.729,0-0.773-0.213c-0.045-0.214,0.284,0,0.107-0.115c-0.329,0-0.347,0.053-0.676,0
		c-0.213,0-0.64,0-0.427,0.187c0.214,0.187,0-0.134,0.178-0.054c-0.281,0.115-0.589,0.148-0.889,0.098
		c0.116,0,0.116-0.08,0.16-0.142c-0.462,0.119-0.936,0.187-1.414,0.204c0,0.098,0.214-0.178,0.276-0.115
		c-0.605-0.188-1.307,0.105-1.778-0.134c0.08,0,0,0.143,0,0.115c-0.293,0-0.258-0.178-0.462-0.133c0-0.089-0.24,0-0.445,0
		c-0.204,0,0-0.054,0.125-0.054c-0.678,0.104-1.368,0.104-2.045,0c0,0.063-0.418,0.187-0.569,0.169l0.071-0.133
		c-0.124-0.08-0.489,0-0.507-0.133c-0.337,0.142,1.236-0.063,0.783,0c-0.089-0.125-0.614,0.177-0.507,0
		c-0.293,0-0.596,0.124-0.889,0c0.071,0,0.258-0.169,0-0.179c-0.427,0-0.125,0.054-0.48,0.08h-0.222c0,0.133-0.374,0-0.232,0.124
		c-0.044-0.114-0.622,0-0.56-0.187l0.08-0.168c-0.186,0-0.32,0.168-0.471,0.24c0,0-0.071-0.055-0.053-0.08
		c-0.053,0.257-0.427,0-0.676,0.15c-0.364-0.106-0.96-0.054-1.129-0.23c-0.286,0.095-0.59,0.122-0.889,0.08
		c0.071,0,0.16,0,0.187-0.08c-0.205-0.089-0.267,0-0.462,0c0,0-0.409-0.169-0.632-0.268c-0.302,0.071-0.213,0.213-0.249,0.303
		c-0.248-0.268-0.835,0.15-1.155-0.099c0.106,0,0.435-0.115,0.204-0.186c-0.258-0.268-0.551,0.177-0.978,0l0.089,0.222
		c-0.178-0.142-0.631,0.107-0.578-0.107c-0.151,0.063-0.515-0.079-0.471,0.135c-0.702-0.188-1.725,0.088-2.151-0.285
		c-0.098,0-0.356,0-0.311,0.106c0.044,0.106,0.24-0.089,0.302,0c-0.06-0.002-0.112,0.039-0.125,0.099
		c-0.213-0.055-0.391-0.072-0.177-0.24c-0.489-0.134-0.516,0.355-1.138,0.266c0-0.089,0-0.124-0.196-0.105l-0.355,0.15
		c-0.401,0-0.223-0.195-0.232-0.347c-0.213,0-0.48,0-0.577,0.133l-0.258-0.177c0.186,0.133-0.178,0.088-0.285,0.133l0.107-0.045
		c0-0.053-0.293,0-0.418,0c0,0.089,0.285,0.125,0.427,0.152c-0.116,0.071-0.285,0.053-0.436,0.133c0-0.151-0.355-0.098-0.524-0.116
		c-0.169-0.017-0.223,0.134-0.276,0.134c-0.053,0-0.329,0-0.169-0.125c0.16-0.124,0.151,0.071,0.258,0
		c-0.125-0.062-0.116-0.186-0.382-0.089c-0.267,0.099,0.053,0.285-0.329,0.196c0.098,0,0.115-0.098,0.195-0.142l-0.364-0.071v0.133
		c-0.054,0,0,0,0-0.062c-0.107,0.142-0.542,0.044-0.631,0.204c-0.186-0.017-0.37-0.046-0.552-0.09
		c-0.228-0.061-0.471-0.028-0.675,0.09c-0.184-0.005-0.366,0.031-0.534,0.106c-0.293-0.089-0.097-0.498-0.426-0.32
		c-0.294,0-0.463,0.249-0.338,0.339c-0.534-0.072-1.138,0.15-1.636,0c-0.08,0.053,0,0.089-0.178,0.123
		c-0.755,0.107-1.521,0.107-2.276,0c0.223-0.062,0-0.133,0-0.203c-0.177,0.124-0.231-0.107-0.284,0.097
		c-0.053,0.205,0,0.178,0.222,0.214c-0.473,0.088-0.958,0.088-1.431,0c0.133,0.053,0,0.089-0.062,0.133
		c0-0.194-0.32-0.194-0.578-0.115v0.115l-0.178-0.106c-0.098,0-0.089,0.249-0.356,0.151l-0.089-0.125
		c-0.266,0.163-0.577,0.24-0.889,0.223l-0.248-0.151c-0.125,0-0.329,0.142-0.098,0.169c-0.516-0.071-0.836,0-1.005-0.178
		c-0.972,0.383-2.005,0.588-3.049,0.604v-0.089c-0.276-0.053-0.125,0.16-0.311,0.124c0.071-0.097-0.231-0.16,0-0.284
		c-0.391,0-0.472,0.204-0.712,0.268c0,0.115,0.187-0.099,0.16,0.053c-0.026,0.151-0.533,0-0.568,0.142
		c-0.107-0.062-0.054-0.194,0-0.266l-0.223,0.106c-0.311-0.179,0.605-0.428,0.276-0.641l-0.213,0.045
		c-0.232-0.16,0.542-0.258,0-0.267c-0.223,0.106-0.392,0.373-0.169,0.427c-0.48,0.097-0.169,0.436-0.703,0.471
		c-0.16-0.079,0.418-0.062,0.294-0.195c-0.267-0.107-0.48,0.125-0.712,0.106c0.258,0,0.072,0.231-0.08,0.284
		c-0.151,0.054,0.152-0.186-0.222-0.16c-0.053,0.107-0.382,0.224-0.08,0.258c-0.098,0.24-0.4,0-0.569,0.179
		c-0.151-0.143,0.329-0.409-0.098-0.437c0.089,0.144-0.48,0.268-0.222,0.463c-0.169,0-0.204-0.143-0.098-0.249
		c-0.249-0.07-0.524,0.339-0.64,0l-0.053,0.169c-0.089,0-0.196-0.071-0.32-0.134c-0.125-0.062-0.622,0.294-0.64,0.055
		c-0.071,0-0.534,0.079-0.329,0.222c0.204,0.142,0.311-0.169,0.515,0c-0.231-0.151-0.408,0.08-0.568,0.16l-0.045-0.089
		c-0.098,0.053-0.32,0.062-0.364,0.169c0.062-0.063,0-0.116-0.063-0.134l-0.08,0.151c-0.391,0.124-0.142-0.223-0.524-0.134
		l0.284-0.143c-0.071,0-0.222-0.079-0.4,0c-0.178,0.08-0.16,0.294-0.204,0.409c-0.205,0.08-0.125-0.133-0.32,0l0.258-0.187
		c0-0.053-0.232-0.187-0.525-0.143c-0.293,0.045-0.436,0.293-0.124,0.32c-0.152,0-0.365,0-0.276-0.133
		c-0.32,0.089,0.071,0.124-0.205,0.249c-0.133-0.063-0.524-0.134-0.773-0.214l0.258-0.258l-0.134,0.143
		c0.232-0.205-0.151-0.107-0.044-0.303c-0.149,0.012-0.293,0.061-0.418,0.143c0.462,0.222-0.373,0.453-0.195,0.693
		c-0.534,0.15-0.48-0.578-0.961-0.089c0.107,0.054-0.115,0.294,0.205,0.169c-0.347,0-0.169,0.294-0.596,0.249
		c0.276-0.151-0.373-0.204,0-0.428c0,0.09,0.258,0,0.311,0c-0.16-0.07,0-0.266-0.373-0.203c-0.204,0.053-0.498,0.114-0.427,0.239
		c0.071,0.124,0.32-0.07,0.214,0.099c-0.409,0.124-0.525-0.09-0.649,0.203c0.266-0.062,0.364,0.071,0.382,0.179l-0.293,0.116v-0.116
		c-0.516,0-0.107,0.204-0.596,0.258l-0.276-0.16c0.08-0.178,0.72,0,0.569-0.294c-0.311,0-0.391,0.196-0.693,0.178l0.284-0.044
		c-0.106,0-0.311-0.329-0.711,0c-0.213,0.115,0,0.106,0,0.204c-0.498,0.125-0.613,0.249-0.889,0.329c0-0.213-0.578,0.08-0.275-0.187
		c0.363,0.027,0.721-0.098,0.986-0.347c-0.24-0.205,0.4,0,0.454-0.294c-0.4,0.063-0.436-0.169-0.543-0.311
		c-0.1,0.024-0.194,0.069-0.275,0.134c0,0.151,0.133,0.124,0.178,0.266c-0.391,0.021-0.767,0.154-1.085,0.384
		c-0.169-0.046-0.16-0.188,0-0.232c-0.535,0.134-1.078,0.229-1.627,0.285c0.391,0.16-0.542,0.16-0.266,0.311
		c0.284,0,0.56,0.116,0.435,0.249c-0.124,0.133,0-0.106-0.107-0.133c-0.177,0.16-0.382-0.143-0.551,0.097
		c0.463-0.168,0-0.293,0.062-0.497c-0.328,0.178,0-0.125-0.373-0.063c-0.354,0.186-0.727,0.335-1.111,0.445
		c-0.573,0.028-1.137,0.148-1.672,0.354c-0.248,0-0.16-0.274-0.417-0.257c-0.258,0.017,0.275,0.169-0.178,0.177v-0.053
		c-0.116,0.071-0.836,0-0.889,0.347l0.071-0.249c-0.089,0-0.151,0.071-0.204,0.107c-0.054,0.035-0.143-0.116,0-0.188
		c-0.312-0.098-0.552,0.143-0.836,0.214l0.222,0.089c-0.426,0.129-0.86,0.232-1.298,0.311v-0.133l-0.258,0.142
		c0-0.142-0.257-0.159-0.373,0l0.64-0.479c0.231,0-0.169,0.205,0,0.302c0.169,0.098,0.569-0.053,0.605-0.186
		c-0.169,0-0.169,0.053-0.285,0.124c-0.116-0.16,0.142-0.214,0.24-0.355c-0.089,0-0.24,0-0.231,0.063
		c0.177-0.133,0.385-0.216,0.604-0.24c-0.168,0.105,0.143,0.08,0.08,0.142c0-0.15,0.241-0.267,0.614-0.302
		c0.311,0.124,0.64-0.258,1.076-0.303c-0.133,0.207-0.317,0.375-0.534,0.488c0.285,0,0.294-0.062,0.578,0
		c0.08-0.214,0.239-0.389,0.445-0.488l0.053,0.115c0.293-0.124,0.24-0.293,0.649-0.347c0.693-0.089,1.396-0.23,1.911-0.311
		l0.054,0.106c0.222-0.302,0.942-0.275,1.298-0.462c0.693,0,1.413-0.383,1.778-0.24c1.107-0.32,2.236-0.561,3.378-0.721l-0.16,0.205
		c0.187-0.16,0.16,0.071,0.364,0c-0.266-0.098,0.258-0.222,0.391-0.356c0.589,0.004,1.17-0.131,1.698-0.391v0.116
		c0.536-0.213,1.116-0.293,1.69-0.231c0.113,0.081,0.253,0.116,0.391,0.098c0.286-0.229,0.611-0.402,0.96-0.516
		c0.438-0.04,0.878-0.04,1.316,0c1.344-0.306,2.703-0.54,4.071-0.703l0.116,0.135c1.316-0.445,3.023-0.294,4.16-0.543l-0.088,0.249
		c0.373,0,0.826-0.134,0.711-0.293c0.373,0.053,0.889-0.17,1.147,0c0.382,0,0.444-0.134,0.755-0.188
		c0.594,0.039,1.19,0.015,1.778-0.071h-0.178c-0.071,0.055-0.071,0.16,0.098,0.169c0.169,0.01,0.969,0,0.694-0.258
		c0.755,0.134,1.778-0.213,2.489,0c-0.062-0.071,0.116-0.098,0.196-0.15c0.623,0.063,1.252,0.063,1.875,0
		c0.116,0-0.16,0.142,0.107,0.142s0-0.106,0.196-0.151c1.044-0.071,2.093-0.071,3.138,0c1.725-0.169,3.556-0.105,5.183-0.105v0.053
		c0.56-0.222,1.289,0.231,1.778-0.089c0.124,0,0.498,0,0.4,0.142c0.444-0.142,1.227,0.179,1.876,0h-0.16
		c0.631,0.143,1.218,0,1.884,0.125c-0.071,0-0.195,0-0.222,0.099c0.258,0.114,0.64-0.224,0.765,0.062c0.151,0,0.115-0.134,0-0.134
		c1.475,0.178,3.076,0.054,4.623,0.098c1.084,0.24,0,0.48,0.889,0.32c0.062,0.054,0.062-0.098,0.071-0.044
		c0.346-0.063,0.48,0.338,0.738,0.204c-0.072-0.169,0.16-0.08,0.186-0.187c0.658,0.151,0.774,0.32,1.325,0.231l-0.062,0.08
		c0.657-0.214,1.36,0,1.929-0.276c3.431,0.188,6.721,0.276,10.046,0.418c3.325,0.143,6.481,0.196,9.779,0.312
		c0.542,0.194,1.129,0.226,1.689,0.089c0,0-0.089,0,0,0.089c0-0.205,0.604,0,0.676-0.222c1.226,0,2.347-0.169,3.556-0.24
		c-0.196,0-0.285,0.195-0.045,0.169l0.231-0.143l0.045,0.054c0.16,0,0.32-0.16,0.151-0.196c3.076-0.498,6.223-0.489,9.192-1.262
		c0.84-0.114,1.663-0.326,2.454-0.632c2.261-0.276,4.47-0.874,6.561-1.778C144.569,409.57,144.533,410.068,143.662,410.495"/>
	<path fill-rule="evenodd" clip-rule="evenodd" fill="#E3D7C2" d="M721.787,427.031c0,0-81.789-80.9-328.934,0
		c-245.581,80.393-384.054-7.112-384.054-7.112v167.943l825.893,5.414C829.162,561.386,834.229,448.75,721.787,427.031"/>
</g>
<rect y="-4" fill="none" width="841.89" height="595.276"/>
<g>
	<path fill="#31AD68" d="M757.523,320.61c12.22-7.103,33.368-26.306,43.772-52.266c12.288-30.633,11.754-45.285,0.063-76.658
		c-11.691-31.371-33.471-47.709-57.512-58.896c-24.042-11.187-44.283-25.766-105.738-0.062
		C603.316,147.28,565.331,200.167,583.144,249c17.813,48.832,47.801,71.825,65.387,76.323
		C666.116,329.823,703.903,351.765,757.523,320.61"/>
	<path fill="#030304" d="M734.23,364.7c0,0-2.088,1.315-2.523,0.42c-0.438-0.897-1.05-2.042-1.05-2.042l-5.48,2.269l-0.352-0.851
		l5.355-2.44c0,0-0.664-2.099-0.567-2.592c0.097-0.494,2.524-1.379,3.018-0.566C733.125,359.708,734.899,363.458,734.23,364.7"/>
	<path fill="#030304" d="M736.88,374.071c-0.703,0.482-2.303,0.801-2.621,0.21c-0.317-0.59-0.896-1.798-0.896-1.798l-4.782,0.913
		l-0.278-0.783l4.771-1.378c0,0-0.659-2.104,0.062-2.678s2.229-0.987,2.655-0.102C736.216,369.34,737.538,373.447,736.88,374.071"/>
	<path fill="#DBD9CD" d="M743.591,432.054l-0.119-0.369c-0.085-0.283-0.187-0.601-0.312-0.964s-0.228-0.653-0.318-0.902
		c-0.09-0.25-0.283-0.653-0.521-1.18c-0.238-0.528-0.442-1.062-0.687-1.702c-0.045-0.097-0.091-0.193-0.13-0.289h0.113l0.261,0.051
		h0.068c0.518,0.029,1.028-0.132,1.435-0.454c0.343-0.279,0.549-0.692,0.568-1.135c0.023-0.454-0.144-0.898-0.46-1.225
		c-0.352-0.384-0.828-0.632-1.344-0.698h-0.047l-0.312-0.062h-0.068h-1.44h-0.204c-0.125-0.353-0.255-0.688-0.392-1.017
		c-0.323-0.907-0.606-1.702-0.851-2.416c-0.244-0.715-0.443-1.345-0.613-1.833s-0.362-1.032-0.527-1.52
		c-0.181-0.516-0.391-1.02-0.629-1.51c-0.216-0.438-0.482-0.85-0.796-1.225c-0.411-0.46-0.961-0.776-1.564-0.902
		c-0.16-0.14-0.34-0.254-0.534-0.341l-0.085-0.039c-0.523-0.185-1.093-0.185-1.616,0c-0.445,0.146-0.803,0.486-0.97,0.924
		l-0.568,1.465c-0.378,0.976-0.726,1.851-1.044,2.626c-0.316,0.775-0.821,2.101-1.514,3.977c-0.67,1.815-1.135,3.188-1.458,4.085
		c-0.188,0.567-0.341,1.134-0.482,1.605c-0.282,0.195-0.484,0.488-0.567,0.822c-0.085,0.315-0.075,0.648,0.028,0.958
		c-0.063,0.295-0.118,0.568-0.152,0.762c-0.086,0.401-0.176,0.867-0.268,1.418c-0.119,0.104-0.209,0.238-0.255,0.391
		c-0.056,0.159-0.083,0.326-0.08,0.494c0.021,0.243,0.096,0.478,0.222,0.686c0.17,0.283,0.391,0.532,0.652,0.732
		c0.366,0.34,0.813,0.581,1.299,0.698h0.113c0.39,0.081,0.793,0.014,1.135-0.188c0.219-0.145,0.399-0.339,0.528-0.566
		c0.096-0.154,0.172-0.32,0.227-0.493c0.028-0.086,0.045-0.176,0.046-0.268c0.164-0.425,0.516-1.446,1.065-3.126
		c0-0.085,0.046-0.159,0.074-0.244c0.374-0.141,0.93-0.334,1.64-0.566c0.981-0.335,1.832-0.618,2.535-0.834
		c0.809-0.247,1.633-0.438,2.468-0.567l0.335-0.074c0.144,0.341,0.269,0.653,0.374,0.937c0.244,0.613,0.488,1.19,0.738,1.747
		c0.249,0.556,0.392,0.84,0.471,1.039c0.079,0.198,0.176,0.453,0.277,0.771c0.104,0.318,0.188,0.567,0.239,0.794l0.113,0.353
		c0.125,0.484,0.445,0.896,0.885,1.135c0.259,0.162,0.549,0.27,0.851,0.317c0.259,0.046,0.524,0.046,0.783,0
		c0.469-0.097,0.878-0.379,1.135-0.783C743.618,432.977,743.71,432.501,743.591,432.054 M736.171,423.658h-0.074
		c-0.985,0.165-1.961,0.388-2.921,0.664c-0.38,0.108-0.806,0.244-1.276,0.397c0.216-0.675,0.437-1.356,0.664-2.031
		c0.295-0.874,0.566-1.702,0.856-2.417c0.289-0.715,0.482-1.367,0.72-1.912c0.04-0.085,0.068-0.17,0.103-0.249
		c0.063,0.181,0.131,0.369,0.187,0.567c0.165,0.505,0.375,1.135,0.613,1.86c0.238,0.727,0.567,1.577,0.896,2.479L736.171,423.658z"
		/>
	<path fill="#A95419" d="M630.842,225.503l17.02,9.037c0,0,8.452,1.543,12.899,2.269c4.107,0.688,14.263,2.712,14.263,2.712
		l3.545-17.808h3.926c0,0-2.343,18.154,0,19.459c1.889,1.065,14.272,4.788,21.971,6.586c1.753-16.497,3.71-34.781,3.71-36.938
		c0-2.154-6.087-5.785-10.971-7.782c-4.885-1.997-15.76-4.72-20.105-6.013s-6.518-2.105-6.518-2.105s4.884-7.448,8.146-5.9
		c3.263,1.549,17.389,8.005,17.389,8.005l4.805-9.185h5.576l-3.319,9.185c0,0,2.719,1.81,4.998,0
		c2.281-1.81,4.243-10.069,4.243-16.973s-0.073-9.99-0.073-9.99c-2.048-0.415-10.427,3.403-10.427,3.403l-1.623-2.405l10.093-6.047
		c0,0-2.484-3.064-5.634-7.715c-3.147-4.652-2.972-4.454,2.462-7.041c0,0,3.501,5.055,6.241,9.122
		c1.753,2.616,6.807,11.409,8.588,11.681c1.782,0.272,2.451-0.091,7.262-1.702l4.583-1.089l1.821,3.778
		c0,0-10.954,2.837-11.499,6.206c-0.544,3.37-1.083,29.499-1.083,29.499l10.574-12.747l3.772,1.135c0,0,1.356-0.062-0.277,2.836
		c-0.969,1.746-2.143,3.37-3.495,4.839l13.048-3.862l0.136,4.855c0,0-9.644,2.56-13.467,4.119
		c-3.824,1.56-10.858,5.156-10.858,5.156l-1.09,8.855c-1.105,8.906-2.178,36.17-2.178,36.17L733,254.276l3.687-8.095l-6.523-2.712
		l1.634-2.348h8.142l6.586-9.281l4.187,1.951c0,0-5.889,6.943-5.889,8.368c0,1.424-4.641,12.021-4.641,12.021
		s9.145-2.837,11.737-3.716c2.593-0.88,34.259-7.772,34.259-7.772l0.567,7.074c0,0-20.162,6.751-25.71,9.271l-0.8,0.34
		c0.475,0.312,0.931,0.651,1.367,1.015c4.806,3.971,11.777,6.241,11.777,6.241l-2.57,6.24l-18.307-10.848
		c-3.279,0.926-13.904,4.748-15.629,5.338c-4.935,1.702-14.868,5.526-16.496,11.347c-1.629,5.82,0.493,23.321,0.567,32.336
		c0.051,6.546,1.186,7.028,4.476,6.405c3.768-0.722,10.16-2.838,10.16-2.838s-0.227-1.355,0.199-5.934
		c0.365-2.813,1.021-5.581,1.957-8.259l4.379-1.578c0.691,2.27,0.863,7.029,0.738,9.837s7.243,1.271,10.597-0.482
		c5.063-2.708,10.347-4.984,15.793-6.807c5.14-1.702,12.18-3.484,12.18-3.484l2.689,5.997c0,0-10.927,3.71-18.409,7.676
		c-0.743,0.396-1.515,0.782-2.303,1.169l9.582,2.053l-2.469,4.073c-0.566-0.222-3.108-0.255-5.974-1.181
		c-3.341-1.077-6.558-1.338-8.288-1.747c-6.325,2.729-11.431,4.499-17.637,7.223c-7.709,3.403-14.443,4.646-17.699,6.847
		c-3.257,2.201-0.568,65.97-0.568,81.338s0.568,61.495,0.568,61.495h-24.995l4.896-161.888l-20.1-16.725l-1.39,1.861
		c-1.396,1.86-5.105,4.912-5.105,4.912l-3.256-3.676l1.628-1.236c1.628-1.237,3.263-4.964,3.263-4.964l-8.755-7.721l2.174-3.404
		c0,0,8.69,4.936,14.533,8.43l0.642,0.386v-16.213c0,0-1.135-3.482,0-3.971s3.268,0,3.268,0s0.731,3.25,1.367,6.921
		c0.499,2.836,1.702,12.798,2.27,17.296c5.105,2.99,10.143,5.9,10.143,5.9s-0.346-16.65,0.255-24.915
		c0.159-2.076,0.63-6.864,1.266-12.917c-9.559-2.791-24.479-8.288-33.017-10.456c-10.971-2.779-13.337-5.298-16.837-3.67
		s-3.183,16.1-4.277,17.717l-4.686-1.623v-9.74h-9.945l-1.57-3.244l11.55-1.623v-9.74c0,0-15.425-7.727-15.709-9.502
		C628.244,227.267,630.842,225.503,630.842,225.503"/>
	<path fill="#93C132" d="M666.916,216.745c0,0,3.211,6.807,6.45,9.423c5.509,4.391,11.709,1.639,11.709,1.639
		s0.057-8.691-6.206-11.204C675.011,215.133,670.738,215.183,666.916,216.745"/>
	<path fill="#93C132" d="M648.769,279.532c0,0,6.807,6.206,11.669,7.675c8.22,2.503,13.791-3.232,13.791-3.232
		s-4.09-9.678-12.248-9.763C657.055,274.208,652.318,276.116,648.769,279.532"/>
	<path fill="#93C132" d="M749.275,217.464c0,0,4.306,3.5,5.525,6.155c2.07,4.51-1.197,8.016-1.197,8.016s-6.319-1.701-6.869-6.354
		C746.467,222.438,747.387,219.609,749.275,217.464"/>
	<path fill="#93C132" d="M621.481,236.951c0,0,5.616,0.716,8.51-0.198c2.852-0.865,4.972-3.265,5.479-6.2
		c0,0-5.576-3.313-9.558-0.618C623.537,231.567,621.935,234.104,621.481,236.951"/>
	<path fill="#93C132" d="M681.796,317.541c0,0-3.075-4.538-3.449-7.375c-0.63-4.884,3.545-7.375,3.545-7.375
		s5.537,3.376,4.676,7.943C685.705,315.299,681.796,317.541,681.796,317.541"/>
	<path fill="#93C132" d="M669.134,169.126c0,0,1.044,8.929,3.755,13.014c4.607,6.938,12.754,5.945,12.754,5.945
		s2.837-9.043-3.404-14.092C678.521,170.982,673.917,169.273,669.134,169.126"/>
	<path fill="#93C132" d="M787.71,221.487c0,0,3.353,8.901,2.144,13.615c-2.042,7.976-11.442,9.377-11.442,9.377
		s-5.673-7.727-1.52-14.386C779.428,226.09,783.238,223.059,787.71,221.487"/>
	<path fill="#93C132" d="M755.255,178.628c0,0-6.756,2.678-9.36,5.48c-4.425,4.76-1.878,10.308-1.878,10.308s7.675,0,10.274-5.446
		C755.847,185.751,756.188,182.079,755.255,178.628"/>
	<path fill="#030304" d="M717.184,373.651c0,0,2.048-1.39,2.485-0.487c0.437,0.901,1.089,2.104,1.089,2.104l5.474-2.269l0.358,0.855
		l-5.361,2.445c0,0,0.669,1.833,0.567,2.326c-0.103,0.494-2.53,1.64-3.019,0.811C718.29,378.609,716.275,374.008,717.184,373.651"/>
	<path fill="#030304" d="M715.011,365.04c0.676-0.596,1.896-0.856,2.32-0.284c0.354,0.59,0.632,1.221,0.828,1.879l5.254-1.736
		l0.408,0.771l-5.106,2.27c0,0,1.339,1.963,0.676,2.66c-0.664,0.697-2.189,1.334-2.763,0.471
		C716.055,370.208,713.979,365.958,715.011,365.04"/>
	<path fill="#3D3D3B" d="M743.688,419.834c-1.549-6.541-13.666-45.707-18.783-61.029c6.03-2.104,1.878-4.855-1.854-4.401
		c0.386-6.836-7.728-4.159-4.709,2.008c-6.115,0.356-3.732,5.61,2.162,4.175c3.619,21.557,11.998,53.359,14.891,63.219
		C737.657,422.983,741.22,421.701,743.688,419.834"/>
	<path fill="#814215" d="M721.563,435.764c1.798-2.031,3.279-3.296,3.217-6.859c-0.04-2.416-1.935-5.06-1.583-7.487
		c0.771-5.26,5.673-9.23,11.408-10.847c11.295-3.188,20.423,15.884,22.181,24.474c2.1,10.392,8.385,31.699-4.94,32.947
		c-15.261,1.43-23.957-7.028-28.365-15.601C732.285,449.668,729.04,436.91,721.563,435.764"/>
	<path fill="#A95419" d="M767.049,439.224c-7.171,2.944-13.207-7.846-5.327-14.097c-10.671-2.269-7.046-20.831-23.299-15.958
		c-4.346,1.187-10.858,5.491-11.289,10.285c-0.432,4.794,7.755,13.093,0.426,16.888c7.454,1.793,9.508,7.698,9.179,10.966
		c-0.272,2.661-3.909,8.021-5.673,8.078c1.373,3.109,7.018,9.366,10.523,11.034C760.083,474.233,770.753,453.98,767.049,439.224"/>
	<path fill="#020203" d="M744.919,419.46c-1.549-6.547-13.66-45.701-18.783-61.029c6.03-2.099,1.883-4.856-1.855-4.402
		c0.374-6.836-7.731-4.152-4.714,2.009c-6.109,0.352-3.727,5.604,2.167,4.175c3.613,21.557,11.998,53.358,14.887,63.213
		C738.917,422.608,742.474,421.355,744.919,419.46"/>
	<path fill="#020203" d="M743.443,443.882c1.628,4.276-3.357,7.437-5.338,3.908c2.015,0.301,2.514,0.329,3.233-1.095
		c0.517-0.738-0.402-2.803-0.567-3.574c-0.499-2.462-0.868-5.917,2.389-6.394C741.844,439.1,742.094,440.325,743.443,443.882"/>
	<path fill="#020203" d="M749.604,434.97c1.991,0.453,2.462,2.773,3.086,4.396c0.539,1.322,0.721,3.229,2.122,3.972
		c1.604,0.88,3.67,0.334,3.443-1.701c-2.554,2.449-3.337-2.225-3.914-3.699C753.848,436.78,752.197,433.63,749.604,434.97"/>
	<line fill="none" stroke="#DBD9CD" stroke-width="0.48" x1="725.534" y1="372.863" x2="749.53" y2="456.448"/>
	<line fill="none" stroke="#DBD9CD" stroke-width="0.48" x1="724.843" y1="364.625" x2="750.978" y2="456.249"/>
	<line fill="none" stroke="#DBD9CD" stroke-width="0.48" x1="726.289" y1="364.472" x2="752.424" y2="456.101"/>
	<path fill="none" stroke="#DBD9CD" stroke-width="0.48" d="M729.432,371.916c0,0,10.211,33.106,13.858,47.868
		c3.455,13.988,10.422,35.575,10.422,35.575"/>
	<path fill="#020203" d="M755.845,467.453c-0.602-4.221-2.27-8.464-1.811-12.719c-1.774,0.346-3.551,1.226-5.32,1.577
		c2.359,3.404,3.256,7.646,4.141,11.993C753.895,468.2,754.906,467.912,755.845,467.453"/>
	<path fill="#DBD9CD" d="M737.396,392.741c0,0,19.14,26.447,27.729,38.536c8.022,11.278,19.322,30.355,19.322,30.355l0.891-0.566
		c0,0-15.231-24.422-19.854-30.742c-4.624-6.32-27.071-38.224-27.071-38.224L737.396,392.741z"/>
	<path fill="#020203" d="M784.589,461.525l-2.269,1.503c0,0-12.032-19.248-20.536-31.677c-9.423-13.751-26.538-37.198-26.538-37.198
		l2.15-1.412l1.4,1.917c0,0-0.766,0.494-0.566,1.214c0.198,0.721,16.639,23.583,23.86,33.618
		c7.091,9.871,17.903,27.531,20.003,31.008c0.179,0.31,0.433,0.569,0.736,0.755c0.369,0.159,1.227-0.477,1.227-0.477
		L784.589,461.525z"/>
	<polygon fill="#020203" points="732.853,388.742 731.804,389.433 735.66,394.726 736.71,394.028 	"/>
	<path fill="#93C132" d="M735.422,286.958c0,0,5.134,2.27,7.058,4.538c1.914,2.228,2.356,5.364,1.135,8.033
		c0,0-6.581-0.062-8.408-4.374C734.13,292.513,734.208,289.54,735.422,286.958"/>
	<path fill="#1C8B50" d="M621.481,464.316c0,0,4.737-51.277,6.121-62.517c2.417-19.655,12.707-38.462,12.707-38.462
		s-8.668,36.932-8.979,47.863c-0.313,10.931,1.196,11.652,1.196,11.652s3.523-14.938,7.647-25.375
		c5.236-13.252,14.37-22.692,14.37-22.692c-4.207,7.596-7.684,15.574-10.382,23.826c-5.345,16.299-2.535,26.277-2.535,26.277
		s7.828-17.075,13.717-27.128c7.732-13.218,20.502-24.059,20.502-24.059s-13.576,20.002-18.313,31.303
		c-4.736,11.301-7.584,25.363-7.584,25.363s12.765-22.062,17.155-29.936c3.78-6.698,9.047-12.438,15.396-16.78
		c0,0-13.615,22.64-17.081,32.335c-7.874,21.96,17.081,48.317,17.081,48.317L621.481,464.316z"/>
	<path fill="#31AD68" d="M673.105,477.085c1.733-9.26,3.965-18.42,6.683-27.44c2.658-8.6,6.062-16.951,10.171-24.961
		c6.569-12.923,16.73-21.618,16.73-21.618c-4.989,7.29-9.273,15.037-12.793,23.14c-6.966,15.997-5.077,26.379-5.077,26.379
		s9.559-16.548,16.485-26.169c9.076-12.64,23.066-22.391,23.066-22.391s-15.658,18.964-21.558,29.964s-10.109,24.961-10.109,24.961
		s15.039-21.126,20.253-28.688c4.47-6.426,10.354-11.738,17.2-15.533c0,0-15.941,21.638-20.389,31.134
		c-10.069,21.488-8.481,31.234-8.481,31.234L673.105,477.085z"/>
</g>
<path fill-rule="evenodd" clip-rule="evenodd" fill="#E7E5D0" d="M26.65,105.577c0.06-3.59,1.34-33.39,23.38-42.73
	s40.75,12.67,40.75,12.67s2.67-41.15,29.39-36.27c26.72,4.88,26.05,28.26,26.05,28.26s8.771-14.17,23.38-9.35
	c16.189,5.34,13.359,20.26,13.359,20.26s9.001-10.88,22.261-2.9s20.49,22,17.15,37.41c-3.341,15.41-16.551,35.4-97.78,28.05
	C43.36,133.627,26.29,130.957,26.65,105.577"/>
<g>
	<path fill-rule="evenodd" clip-rule="evenodd" fill="#249959" d="M273.063,277.433c0,0-0.87-1.86-11.4,0
		c-39.48,6.93-69.52-11.38-65.24-12c23.58-3.63,42.42-8.71,39.57-10.44c-2.85-1.729-39.8-5-32.81-5.88
		c9.47-1.24,36.54-12.84,33.45-13.68c-3.33-0.9-34.88-2-28.73-4.431c22.54-8.83,31.42-17.949,28.61-17
		c-2.81,0.95-25.54,3.61-21.35,0.66c13.89-9.819,25.54-28.4,25.54-28.4s-13.33,4-18.09,5c-4.76,1.001-2-1.449,7-9.17
		c8.57-7.33,15.91-18,15.91-18c-3.269-0.242-6.551-0.242-9.82,0c-7.18,0.34-6.42,1.211,0-6.17c6.42-7.379,23.13-23.47,19.73-24.8
		c-3.4-1.33-20.37,9.091-17.21,5.66c8.94-9.59,30.61-48.51,31.58-45.91c0.97,2.6,10.6,27.36,17.21,36
		c6.61,8.64,19.62,16.07,13.36,15.64c-6.26-0.43-17.45-5.77-17.45-5.77s5.84,16.189,10.21,20.1c4.37,3.91,9.23,8.28,2.93,7.86
		c-6.3-0.42-17.49-5.64-14.58-1.729c2.91,3.91,24.58,19.64,20.58,20.24c-4,0.6-18.17-3.091-18.17-3.091s12.53,17.59,16.48,20.2
		c3.95,2.61,8.79,5,4.42,5.75c-4.37,0.75-17.73-2.47-17.73-2.47s10.25,17.56,24.09,25.75c1.69,1-11.65,1.24-18,0
		c-6.35-1.24-8.74-2.67-8.26,0s23.81,12.689,33,18.359c6.37,3.91-28.66-1-30.9,0c-2.44,1.131,20.27,17.891,40.47,19.92
		c6,0.61-10.55,5.171-22.7,7.801S273.063,277.433,273.063,277.433"/>
	<path fill="#814215" d="M255.002,262.323c-0.17-10.09,0.74-29.88,0.74-29.88l-15.38-14.89l2-2.48c0,0,1.62,0.36,5.76,3.48
		c4.14,3.119,9.32,6.17,9.32,6.17s0.29-17.28,0.6-21.25c0.58-7.4-2-9.66-2-9.66s-2.32-1.681-5.56-4
		c-3.24-2.32-5.86-4.381-5.86-4.381l2.55-2.719c2.201,1.027,4.338,2.186,6.4,3.469c1.537,0.951,3.454,1.049,5.08,0.261
		c0,0,0.06-2.101,0.29-8.521c0.21-5.91,1.15-13.35,0.14-16.55c-1.01-3.2-7.47-13-7.47-13l1.71-3.079
		c1.23,0.885,2.296,1.978,3.15,3.229c1.53,2.19,6,7.71,6,7.71s1.89-4.221,4.18-8.43c2.78-5.121,1.31-5.86,4.3-5.101
		c3.25,0.83,2.3,1.31,0.76,5.46c-1.72,4.641-2.38,6.45-3.58,9.051c-0.95,2-0.27,31.64-0.27,31.64s-0.24,19.39,0.57,19.68
		c3.64,1.32,13.8-1,13.8-1l-0.1,2.91l-14.11,4.45l-0.38,33.229c0,0,4.79-0.16,7.41-1.37c2.62-1.21,3.06-0.81,3.06-0.81l1.06,2.61
		c-1.647,1.343-3.533,2.36-5.56,3c-1.86,0.399-4.61,1.1-6,1.46l1.73,65.689l-15.4-0.54
		C253.942,318.163,255.183,272.123,255.002,262.323"/>
	<path fill-rule="evenodd" clip-rule="evenodd" fill="#1C8B50" d="M159.533,284.462c-6.45,0-30.34-8.89-37.24-27.779
		c-6.9-18.891-1.23-59.86,3.26-77.12c4.49-17.26,33.77-101.44,33.77-101.44s9,19.28,16.62,32.36c7.62,13.08,30.25,65.35,34.62,85
		c4.37,19.649,4.52,54.78-6.79,69.92C189.513,284.462,178.413,280.813,159.533,284.462"/>
	<path fill-rule="evenodd" clip-rule="evenodd" fill="#814215" d="M161.343,330.953c0,0,0.32-24.16,0.32-34.1
		c0-9.94,1.68-29.46-0.32-30.891c-2-1.43-6.07-2.42-10.89-4.42c-4.657-1.772-9.549-2.847-14.52-3.189c-4-0.33-4.59-0.391-4.59-0.391
		l0.93-4.31c1.328-0.171,2.672-0.171,4,0c3.34,0.21,4.35,0.41,6,0.57c3.14,0.3,5.1,1.79,5,0s-0.66-9.16,1-8.42
		c0.873,0.395,1.771,0.729,2.69,1c0.578,1.731,0.98,3.518,1.2,5.329c0.171,1.273,0.214,2.56,0.13,3.841
		c2.048,0.713,4.13,1.319,6.24,1.819c2,0.4,2.72,0.08,2.76-4.14c0-5.82,1.35-20.49,0.34-24.24c-0.685-3.165-3.031-5.71-6.13-6.649
		c-2-0.721-6.76-1.721-10.16-3.351c-1.789-0.927-3.743-1.494-5.75-1.67l0.33-3.24c2.132,0.351,4.245,0.812,6.33,1.38
		c1.6,0.57,7.23,2.4,7.23,2.4s-2.86-6.85-2.86-7.77c0-0.921-0.33-4.91-0.33-4.91h2.57l0.78,4.239h5l1,1.521l-4,1.75l2.26,5.24
		l4.46,1.77c0,0-0.67-17.6-1.3-23.319l-0.7-5.681c0,0-4.34-2.329-6.68-3.329s-8.28-2.671-8.28-2.671l0.09-3.14l8,2.49
		c-0.832-0.957-1.553-2.002-2.15-3.12c-1-1.89-0.16-1.841-0.16-1.841l2.31-0.75l6.57,8.221c0,0-0.33-23.57-0.66-25.76
		c-0.33-2.19-8.69-8.551-8.69-8.551l1.24-1.76l1.77,0.76c3.67,2,6,4.44,7,4.891c1,0.449,8.89-15.91,10.62-16.91l1.73-1
		c3.35,1.67,2.68,3.72,2.68,3.72c-1.66,1.597-3.139,3.37-4.41,5.29c-1.94,3-2.67,4.12-2.67,4.12l5.39,4.771l-1,1.569
		c0,0-4.49-4.37-5.76-4.1c-0.91,0.2-1.6,7.2-1.6,7.2s3,16.27,3,20.729s1.2,9.8,2.61,11c0.918,0.656,2.152,0.656,3.07,0l-2-5.94h3.43
		l3,5.94c0,0,8.69-4.18,10.69-5.18s5,3.81,5,3.81s-1.34,0.53-4,1.36c-2.66,0.83-9.44,2.55-12.44,3.85s-6.74,3.67-6.74,5
		c0,2.4,1.43,22.511,1.8,27.851s0.16,16.109,0.16,16.109s4.6-3.09,8.2-5.359c3.6-2.271,8.94-5.44,8.94-5.44l1.34,2.2l-5.35,5
		c0.467,1.182,1.145,2.269,2,3.21l1,0.8l-2,2.37c-1.144-0.963-2.201-2.022-3.16-3.17l-0.85-1.2l-9.68,9.48l3,77.31H161.343z"/>
	<path fill-rule="evenodd" clip-rule="evenodd" fill="#1C8B50" d="M311.593,291.382c0,0,0.89-1.869,11.55,0
		c40,7,70.43-11.51,66.09-12.189c-23.89-3.67-43-8.82-40.09-10.57s40.33-5,33.24-5.95c-9.58-1.26-37-13-33.88-13.859
		c3.37-0.91,35.33-2.05,29.11-4.48c-22.83-9-31.82-18.18-29-17.229c2.82,0.95,25.87,3.66,21.62,0.66
		c-14.07-9.94-25.87-28.771-25.87-28.771s13.5,4,18.33,5.12c4.83,1.12,2-1.48-7.14-9.29c-8.68-7.43-16.11-18.27-16.11-18.27
		c3.312-0.244,6.638-0.244,9.95,0c7.28,0.35,6.51,1.22,0-6.25c-6.51-7.471-23.41-23.76-20-25.08s20.68,9.18,17.44,5.699
		c-9.06-9.709-31-49.14-32-46.5s-10.68,27.7-17.37,36.509c-6.69,8.811-19.87,16.281-13.53,15.841s17.67-5.851,17.67-5.851
		s-5.91,16.42-10.33,20.371c-4.42,3.949-9.36,8.359-3,7.92c6.36-0.44,17.79-5.711,14.79-1.761s-24.92,19.9-20.83,20.51
		c4.09,0.61,18.37-3.14,18.37-3.14s-12.7,17.83-16.69,20.46c-3.99,2.63-8.85,5.05-4.45,5.84c4.4,0.79,18-2.5,18-2.5
		s-10.4,17.78-24.4,26.07c-1.7,1,11.82,1.26,18.21,0c6.39-1.26,8.87-2.7,8.37,0s-24.11,12.85-33.47,18.6c-6.44,4,29-1,31.31,0
		c2.47,1.15-20.53,18.13-41,20.19c-6.12,0.61,10.68,5.24,23,7.89C291.803,294.023,311.593,291.382,311.593,291.382"/>
	<path fill="#A95419" d="M329.863,276.123c0.18-10.22-0.75-30.26-0.75-30.26l15.59-15.09l-2-2.51c0,0-1.64,0.369-5.83,3.529
		s-9.45,6.23-9.45,6.23s-0.29-17.5-0.61-21.521c-0.59-7.489,2.06-9.79,2.06-9.79s2.35-1.689,5.63-4c3.28-2.31,5.93-4.449,5.93-4.449
		l-2.58-2.761c-2.227,1.047-4.39,2.223-6.48,3.521c-1.564,0.961-3.511,1.056-5.16,0.25c0,0,0-2.13-0.28-8.63
		c-0.21-6-1.17-13.521-0.15-16.76c1.02-3.24,7.57-13.131,7.57-13.131l-1.73-3.109c-1.248,0.896-2.328,2.007-3.19,3.279
		c-1.54,2.211-6,7.801-6,7.801s-1.91-4.271-4.22-8.541c-2.82-5.189-1.33-5.939-4.36-5.17c-3.3,0.841-2.34,1.33-0.78,5.521
		c1.74,4.71,2.4,6.54,3.63,9.181c1,2.069,0.28,32.05,0.28,32.05s0.23,19.64-0.59,19.939c-3.69,1.33-14-1-14-1l0.11,2.94l14.23,4.479
		l0.32,33.55c0,0-4.86-0.18-7.5-1.399c-2.64-1.22-3.11-0.82-3.11-0.82l-1.07,2.67c1.674,1.348,3.587,2.365,5.64,3
		c1.89,0.41,4.66,1.12,6.09,1.49l-1.76,66.51l15.61-0.56C330.953,332.563,329.683,285.973,329.863,276.123"/>
	<path fill="#31AD68" d="M237.962,149.893c-8.23-0.29-24.63,2.5-37.83,11.71c-15.58,10.88-19.87,18-23.86,36.41
		c-3.99,18.409,1.67,32.699,10,45.22c8.33,12.52,13.82,25.51,52.1,31.71c21.68,3.51,56.85-10.23,63.24-38.771
		c6.39-28.539-1.23-48.459-8.5-55.859S274.063,151.123,237.962,149.893"/>
	<path fill="#A95419" d="M191.113,204.193l9.81,5.49c0,0,4.88,0.939,7.45,1.39c2.37,0.42,8.23,1.65,8.23,1.65l2-10.811h2.27
		c0,0-1.35,11,0,11.811c1.09,0.649,8.24,2.909,12.69,4c1-10,2.14-21.12,2.14-22.42c0-1.301-3.51-3.511-6.33-4.73
		s-9.1-2.859-11.61-3.65c-2.51-0.789-3.7-1.279-3.7-1.279s2.81-4.53,4.7-3.58c1.89,0.949,10,4.85,10,4.85l2.78-5.58h3.22l-1.92,5.58
		c0.863,0.622,2.027,0.622,2.89,0c1.31-1.1,2.45-6.109,2.45-10.3v-6.069c-1.18-0.25-6,2.069-6,2.069l-0.97-1.49l5.85-3.659
		c0,0-1.44-1.86-3.26-4.681c-1.82-2.819-1.74-2.66,1.41-4.271c0,0,2,3.07,3.59,5.541c1,1.58,3.94,6.92,5,7.09s1.41-0.061,4.19-1
		l2.64-0.66l1.06,2.3c0,0-6.33,1.71-6.65,3.771c-0.32,2.06-0.63,17.93-0.63,17.93l6.14-7.76l2.18,0.699c0,0,0.78,0-0.16,1.74
		c-0.55,1.053-1.221,2.035-2,2.93l7.49-2.369l0.08,3c0,0-5.57,1.56-7.78,2.5c-2.21,0.939-6.27,3.13-6.27,3.13l-0.62,5.37
		c-0.63,5.38-1.26,21.93-1.26,21.93l7.92-2.94l2.13-4.909l-3.8-1.681l0.95-1.43h4.7l3.82-5.63l2.42,1.189c0,0-3.41,4.221-3.41,5.08
		c0,0.86-2.69,7.3-2.69,7.3s5.28-1.72,6.78-2.25c1.5-0.529,19.78-4.729,19.78-4.729l0.31,4.3c0,0-11.64,4.09-14.85,5.63l-0.45,0.21
		c0.274,0.189,0.538,0.394,0.79,0.61c2.038,1.633,4.337,2.911,6.8,3.78l-1.48,3.779l-10.57-6.59c-1.89,0.561-8,2.88-9,3.24
		c-2.85,1-8.59,3.36-9.52,6.88c-0.93,3.521,0.28,14.16,0.32,19.62c0,4,0.69,4.27,2.59,3.89c2.17-0.439,5.86-1.71,5.86-1.71
		c-0.078-1.201-0.038-2.406,0.12-3.6c0.208-1.7,0.587-3.375,1.13-5l2.53-1c0.381,1.976,0.525,3.99,0.43,6
		c-0.07,1.71,4.18,0.78,6.11-0.29c2.916-1.646,5.971-3.03,9.13-4.14c3-1,7-2.11,7-2.11l1.55,3.63
		c-3.612,1.343-7.136,2.913-10.55,4.7c-0.43,0.229-0.87,0.47-1.33,0.7l5.54,1.25l-1.42,2.47c-1.165-0.154-2.318-0.392-3.45-0.71
		c-1.588-0.463-3.205-0.82-4.84-1.07c-3.64,1.65-6.61,2.721-10.19,4.38c-4.45,2.061-8.33,2.83-10.22,4.16
		c-1.89,1.33-0.32,40.061-0.32,49.391c0,9.329,0.32,19.239,0.32,19.239h-14.43l2.82-80.199l-11.61-10.15l-0.8,1.12
		c-0.913,1.083-1.917,2.087-3,3l-1.89-2.23l0.94-0.75c0.806-0.878,1.446-1.894,1.89-3l-5-4.689l1.26-2.07c0,0,5,3,8.39,5.12
		l0.37,0.229v-9.85c0,0-0.66-2.12,0-2.4c0.618-0.148,1.262-0.148,1.88,0c0,0,0.43,2,0.8,4.2c0.28,1.71,1,7.771,1.3,10.51
		c3,1.82,5.86,3.58,5.86,3.58s-0.2-10.109,0.15-15.13c0.09-1.26,0.36-4.17,0.73-7.84c-5.52-1.7-14.13-5-19.06-6.35
		c-6.34-1.681-7.7-3.221-9.72-2.221s-1.84,9.771-2.48,10.75l-2.7-1v-5.93h-5.74l-0.91-2l6.67-1v-5.87c0,0-8.91-4.7-9.08-5.77
		C189.623,205.283,191.113,204.193,191.113,204.193"/>
</g>
<g>
	<g opacity="0.38">
		<g>
			<defs>
				<rect id="SVGID_1_" x="547.4" y="334.758" width="1" height="0.704"/>
			</defs>
			<clipPath id="SVGID_2_">
				<use xlink:href="#SVGID_1_"  overflow="visible"/>
			</clipPath>
			<path clip-path="url(#SVGID_2_)" fill="#403C29" d="M547.4,334.886c1.51,0.26-0.86,0.87,1,0.41
				C548.189,334.875,547.87,334.576,547.4,334.886"/>
		</g>
	</g>
	<g opacity="0.38">
		<g>
			<defs>
				<rect id="SVGID_3_" x="544.663" y="334.726" width="0.917" height="1.66"/>
			</defs>
			<clipPath id="SVGID_4_">
				<use xlink:href="#SVGID_3_"  overflow="visible"/>
			</clipPath>
			<path clip-path="url(#SVGID_4_)" fill="#403C29" d="M545.57,334.726c-0.35,0.57-1.43,0.89-0.6,1.66
				C545.09,335.836,545.66,335.236,545.57,334.726"/>
		</g>
	</g>
	<g opacity="0.38">
		<g>
			<defs>
				<rect id="SVGID_5_" x="516.5" y="342.293" width="1" height="0.655"/>
			</defs>
			<clipPath id="SVGID_6_">
				<use xlink:href="#SVGID_5_"  overflow="visible"/>
			</clipPath>
			<path clip-path="url(#SVGID_6_)" fill="#403C29" d="M517,342.336c0-0.181-0.41,0.27-0.5,0.359c0.35,0,0.68,0.46,1,0.141
				C517.109,342.816,517.17,342.556,517,342.336"/>
		</g>
	</g>
	<g opacity="0.38">
		<g>
			<defs>
				<rect id="SVGID_7_" x="509.74" y="343.346" width="2.57" height="0.741"/>
			</defs>
			<clipPath id="SVGID_8_">
				<use xlink:href="#SVGID_7_"  overflow="visible"/>
			</clipPath>
			<path clip-path="url(#SVGID_8_)" fill="#403C29" d="M509.74,343.346c0.1,0.49,1.65,0.76,2.57,0.74L509.74,343.346z"/>
		</g>
	</g>
	<g opacity="0.38">
		<g>
			<defs>
				<rect id="SVGID_9_" x="502.579" y="346.106" width="0.72" height="0.637"/>
			</defs>
			<clipPath id="SVGID_10_">
				<use xlink:href="#SVGID_9_"  overflow="visible"/>
			</clipPath>
			<path clip-path="url(#SVGID_10_)" fill="#403C29" d="M502.939,346.106c-0.6,0.49-0.43,0.72,0.351,0.61
				C503.35,346.466,503.09,346.356,502.939,346.106"/>
		</g>
	</g>
	<g opacity="0.38">
		<g>
			<defs>
				<rect id="SVGID_11_" x="501.33" y="345.026" width="1.148" height="0.69"/>
			</defs>
			<clipPath id="SVGID_12_">
				<use xlink:href="#SVGID_11_"  overflow="visible"/>
			</clipPath>
			<path clip-path="url(#SVGID_12_)" fill="#403C29" d="M502.46,345.026c-0.46,0.053-0.873,0.306-1.13,0.69
				C501.36,345.266,502.65,345.846,502.46,345.026"/>
		</g>
	</g>
	<g opacity="0.38">
		<g>
			<defs>
				<rect id="SVGID_13_" x="486.3" y="347.761" width="1.409" height="0.411"/>
			</defs>
			<clipPath id="SVGID_14_">
				<use xlink:href="#SVGID_13_"  overflow="visible"/>
			</clipPath>
			<path clip-path="url(#SVGID_14_)" fill="#403C29" d="M487.689,347.886c-0.369,0-1-0.391-1.389,0.21
				C486.689,347.666,487.87,348.616,487.689,347.886"/>
		</g>
	</g>
	<g opacity="0.38">
		<g>
			<defs>
				<rect id="SVGID_15_" x="480.129" y="347.656" width="0.741" height="0.62"/>
			</defs>
			<clipPath id="SVGID_16_">
				<use xlink:href="#SVGID_15_"  overflow="visible"/>
			</clipPath>
			<path clip-path="url(#SVGID_16_)" fill="#403C29" d="M480.87,347.656c-0.22,0-0.31,0.17-0.569,0c-0.41,0.271,0,0.601,0.35,0.62
				L480.87,347.656z"/>
		</g>
	</g>
	<g opacity="0.38">
		<g>
			<defs>
				<rect id="SVGID_17_" x="513.811" y="350.906" width="0.729" height="0.49"/>
			</defs>
			<clipPath id="SVGID_18_">
				<use xlink:href="#SVGID_17_"  overflow="visible"/>
			</clipPath>
			<polygon clip-path="url(#SVGID_18_)" fill="#403C29" points="514.54,351.106 513.811,350.906 513.9,351.396 			"/>
		</g>
	</g>
	<g opacity="0.38">
		<g>
			<defs>
				<rect id="SVGID_19_" x="544.91" y="348.57" width="0.67" height="0.592"/>
			</defs>
			<clipPath id="SVGID_20_">
				<use xlink:href="#SVGID_19_"  overflow="visible"/>
			</clipPath>
			<path clip-path="url(#SVGID_20_)" fill="#403C29" d="M545.58,348.716c-0.7-0.48-0.54,0.37-0.67,0.42
				C545.561,349.316,544.721,348.466,545.58,348.716"/>
		</g>
	</g>
	<g opacity="0.38">
		<g>
			<defs>
				<rect id="SVGID_21_" x="516.68" y="341.156" width="0.221" height="1.05"/>
			</defs>
			<clipPath id="SVGID_22_">
				<use xlink:href="#SVGID_21_"  overflow="visible"/>
			</clipPath>
			<polygon clip-path="url(#SVGID_22_)" fill="#403C29" points="516.68,342.206 516.9,342.206 516.9,341.156 			"/>
		</g>
	</g>
	<path fill="#93C132" d="M481.16,282.766c-0.061,4.16,3.25,7.588,7.41,7.67c4.166-0.071,7.486-3.504,7.42-7.67
		c0.061-4.162-3.258-7.589-7.42-7.66c-4.158,0.066-7.477,3.49-7.41,7.648C481.16,282.758,481.16,282.762,481.16,282.766"/>
	<path fill="#93C132" d="M501.46,285.426c-0.53,4.79,3.42,7.899,7.63,7.899c4.211,0,7.28-3.189,7.641-7.899
		c0.32-4.34-3.44-7.49-7.641-7.891C504.62,277.106,501.93,281.106,501.46,285.426"/>
	<path fill="#93C132" d="M494.46,317.306c0,0-7.489,14.24-10.46,16.35c-2.4,1.72-3.46,0.84-3.46,0.84s-6.93-2.34-5.94-0.76
		c0.99,1.58,5.58,2.53,5.58,2.53s-8.22,0.41-7.109,1.42c1.109,1.01,7.939,1.12,7.939,1.12s-8.68,2.3-6.649,2.79
		c2.829,0.649,10.159-0.5,11.2-2.13c1.039-1.63,9.129-13.12,11.359-15.66S494.46,317.306,494.46,317.306"/>
	<path fill="#E20E18" d="M481.87,341.106c-0.21-0.48-0.431-1-0.569-1.36c-0.141-0.359-0.24-0.569-0.381-1
		c-1.05,0.36-8.449,2.41-6.57,2.851C476.865,341.904,479.416,341.737,481.87,341.106"/>
	<path fill="#E20E18" d="M480.189,336.276c0.053-0.604,0.17-1.201,0.351-1.78c-0.25-0.08-6.899-2.29-5.92-0.739
		C475.6,335.306,480.189,336.276,480.189,336.276s-8.229,0.4-7.119,1.42c1.109,1.021,6.9,1.11,7.8,1.12
		C480.531,338.004,480.303,337.149,480.189,336.276"/>
	<path fill="#FFFFFF" d="M482.67,282.766c-0.001,3.258,2.639,5.9,5.898,5.901c3.258,0.003,5.9-2.639,5.902-5.896v-0.005
		c0-3.258-2.64-5.901-5.898-5.902c-3.258-0.002-5.901,2.64-5.902,5.897V282.766z"/>
	<path fill="#93C132" d="M505.87,280.896c-15-2.18-41.06,12.41-41,20.38c0.11,11.47,21.069,11,21.069,11s7.681,5.69,11,11.5
		c10.19,11.9,36.08,23.87,45.57,22.33c6.24-1,7.58-5.84,4.801-24.28c-2.86-19-24.92-27-24.92-27
		C520.115,287.33,513.643,281.873,505.87,280.896"/>
	<path fill="#FFFFFF" d="M503.189,285.426c-0.389,3.699,2.66,6.1,5.9,6.1s5.62-2.47,5.9-6.1c0.26-3.36-2.65-5.79-5.9-6.09
		C505.63,279.006,503.561,282.106,503.189,285.426"/>
	<path fill="#020203" d="M504.57,285.386c-0.051,0.583,0.381,1.097,0.964,1.147c0.052,0.004,0.104,0.005,0.155,0.002
		c0.627-0.011,1.127-0.523,1.121-1.149c0.017-0.618-0.472-1.133-1.09-1.15c-0.011,0-0.021,0-0.031,0
		C505.03,284.166,504.65,284.746,504.57,285.386"/>
	<path fill="#020203" d="M483.939,281.606c-0.033,0.518,0.358,0.966,0.877,1c0.041,0.003,0.082,0.003,0.123,0c0.553,0,1-0.448,1-1
		s-0.447-1-1-1C484.35,280.526,484,281.046,483.939,281.606"/>
	<path fill="#FFDE0D" d="M485.939,312.336c0,0,6.351,0.42,16.341-5.181c19.46,28.51,38.59,33.641,40.229,38.95
		c0.211,0.63-24.63-3.17-39-15.55C497.54,325.466,485.939,312.336,485.939,312.336"/>
	<path fill="#020203" d="M471.061,301.466c-0.006,0.37,0.289,0.674,0.66,0.68c0.006,0,0.012,0,0.02,0
		c0.378,0.046,0.722-0.224,0.768-0.602c0.047-0.379-0.224-0.723-0.602-0.769c-0.055-0.007-0.111-0.007-0.166,0
		C471.363,300.781,471.061,301.089,471.061,301.466"/>
	<path fill="#020203" d="M467.03,300.346c0.001,0.436,0.354,0.789,0.792,0.788c0.436,0,0.789-0.355,0.787-0.791
		c0-0.416-0.324-0.762-0.739-0.787c-0.447-0.018-0.823,0.332-0.84,0.779C467.03,300.339,467.03,300.342,467.03,300.346"/>
	<path fill="#93C132" d="M502.25,321.266c0,0-5.279,16.42-7.76,19.09c-2,2.16-3.221,1.49-3.221,1.49s-7.27-0.891-6,0.45
		c1.271,1.34,6,1.359,6,1.359s-8,2-6.699,2.811c1.3,0.81,8-0.5,8-0.5s-8,4-6,4.06c2.89,0.08,9.859-2.51,10.539-4.31
		c0.681-1.801,8.23-17.5,9.891-20.44C509.09,321.875,502.25,321.266,502.25,321.266"/>
	<path fill="#E20E18" d="M493.301,345.966c-0.695-1.012-1.256-2.106-1.671-3.261c-0.017-0.245-0.017-0.493,0-0.739
		c-0.12-0.009-0.237-0.035-0.35-0.08c0,0-7.271-0.9-6,0.439s6,1.36,6,1.36s-8,2-6.7,2.79s8-0.49,8-0.49s-8.061,4-6,4.061
		c1.859,0,5.38-1,7.859-2.24C494.221,347.396,493.6,346.426,493.301,345.966"/>
	<path fill="#E20E18" d="M534.221,326.176c0.396-1.253,1.734-1.947,2.987-1.551c1.253,0.397,1.947,1.735,1.55,2.988
		c-0.392,1.237-1.703,1.933-2.947,1.563c-1.265-0.382-1.979-1.717-1.597-2.979C534.216,326.19,534.219,326.183,534.221,326.176"/>
	<path fill="#E20E18" d="M542.689,329.976c0.222-0.724,0.986-1.131,1.711-0.911c0.724,0.221,1.132,0.987,0.91,1.711
		c-0.221,0.723-0.986,1.131-1.709,0.91H543.6C542.885,331.456,542.48,330.698,542.689,329.976"/>
	<path fill="#E20E18" d="M526.16,319.496c0.213-0.539,0.824-0.803,1.363-0.59c0.481,0.191,0.752,0.705,0.637,1.21
		c-0.141,0.534-0.686,0.854-1.221,0.714c-0.026-0.007-0.053-0.015-0.08-0.023C526.313,320.629,526.003,320.05,526.16,319.496"/>
	<path fill="#E20E18" d="M538.78,332.996c0.167-0.555,0.753-0.87,1.308-0.703s0.87,0.754,0.703,1.309
		c-0.166,0.552-0.747,0.867-1.301,0.705C538.938,334.133,538.624,333.553,538.78,332.996"/>
	<path fill="#E20E18" d="M544.04,323.756c-0.293,1.008-1.349,1.587-2.354,1.294c-0.016-0.005-0.03-0.01-0.045-0.015
		c-1.021-0.307-1.601-1.383-1.293-2.403c0.307-1.021,1.383-1.6,2.403-1.293s1.601,1.383,1.293,2.403
		C544.043,323.748,544.041,323.752,544.04,323.756"/>
	<path fill="#E20E18" d="M533.03,313.936c-0.104,1.055-1.044,1.826-2.099,1.722c-1.057-0.104-1.828-1.044-1.723-2.099
		c0.104-1.052,1.038-1.823,2.092-1.723c1.055,0.1,1.83,1.036,1.73,2.092C533.031,313.931,533.03,313.933,533.03,313.936"/>
	<path fill="#E20E18" d="M540.93,316.416c-0.121,1.265-1.246,2.19-2.511,2.068c-1.264-0.122-2.19-1.247-2.067-2.511
		c0.123-1.265,1.246-2.19,2.511-2.068c0.003,0,0.005,0.001,0.008,0.001C540.128,314.038,541.046,315.156,540.93,316.416"/>
	<path fill="#E20E18" d="M531.98,320.616c0.254-0.712,1.039-1.084,1.75-0.829c0.662,0.237,1.039,0.937,0.869,1.619
		c-0.221,0.725-0.983,1.134-1.709,0.92c-0.717-0.207-1.129-0.956-0.922-1.672C531.973,320.641,531.977,320.629,531.98,320.616"/>
	<path fill="#93C132" d="M533.141,331.766c-4-1.9-11.311-6.55-16.681-6.55c-1.889-0.119-3.713,0.714-4.86,2.22
		c-4.47,6,8.201,20.7,8.201,20.7s-4.791,0-9.671,0.27c-0.018,0.633,0.067,1.265,0.25,1.87c0.468,1.215,1.054,2.38,1.75,3.48
		c0.261,0.33,0.7,0.909,1,1.359c1.71-0.67,3.46-1.33,5.12-1.88c2.372-0.77,4.879-1.036,7.359-0.78c2,0.15,3.08,0.29,2.841-1.159
		c-0.45-2.75-7.78-10.44-7.78-10.44s11.311,6.51,16.9,6.49C551.359,347.286,538.17,334.106,533.141,331.766"/>
	<path fill="#E20E18" d="M510.36,350.266c-3.337,0.603-6.628,1.435-9.851,2.49c0.131,0.172,0.211,0.376,0.23,0.59
		c0.021,0.238-0.039,0.479-0.17,0.68c3,0,10.38-1.88,10.38-1.88s-5.58,3.11-7.49,4.96c0.403,0.176,0.677,0.561,0.71,1
		c0.01,0.073,0.01,0.147,0,0.22c3.067-0.852,6.074-1.908,9-3.16l-1-1.359C511.441,352.695,510.834,351.508,510.36,350.266"/>
	<path fill="#E20E18" d="M501.09,349.666c0.012,0.213-0.037,0.425-0.14,0.61c2.81,0.64,9.399,0,9.399,0
		c-0.182-0.609-0.267-1.244-0.25-1.88c-3.078,0.071-6.151,0.328-9.199,0.77C501.008,349.312,501.073,349.485,501.09,349.666"/>
	<path fill="#E20E18" d="M500.92,349.156c-0.227-0.39-0.662-0.608-1.109-0.56c-0.652,0.052-1.138,0.623-1.086,1.274
		c0.053,0.652,0.623,1.138,1.275,1.085c0.413-0.03,0.777-0.283,0.95-0.659c-0.42-0.055-0.815-0.229-1.14-0.5
		C499.62,349.536,500.07,349.336,500.92,349.156"/>
	<path fill="#E20E18" d="M500.92,349.156c-0.85,0.181-1.3,0.38-1.09,0.62c0.324,0.272,0.721,0.446,1.141,0.5
		c0.098-0.188,0.146-0.397,0.139-0.61C501.079,349.486,501.014,349.313,500.92,349.156"/>
	<path fill="#E20E18" d="M499.471,352.256c-0.65,0.047-1.14,0.611-1.092,1.262c0,0.006,0,0.012,0.001,0.018
		c0.043,0.646,0.601,1.132,1.246,1.089c0.396-0.026,0.751-0.252,0.944-0.599c-0.74,0-1.23-0.08-1.28-0.34s0.431-0.6,1.22-0.91
		C500.286,352.424,499.887,352.224,499.471,352.256"/>
	<path fill="#E20E18" d="M499.29,353.686c0.069,0.26,0.55,0.35,1.28,0.34c0.119-0.206,0.182-0.441,0.18-0.68
		c-0.029-0.214-0.111-0.417-0.24-0.59C499.73,353.106,499.23,353.406,499.29,353.686"/>
	<path fill="#E20E18" d="M501.801,358.226c0.072,0.649,0.646,1.127,1.299,1.08c0.543-0.046,0.983-0.46,1.061-1
		c-0.63,0.109-1.08,0.09-1.25-0.101c-0.17-0.189,0.061-0.609,0.58-1.1c-0.178-0.098-0.38-0.137-0.58-0.11
		C502.268,357.039,501.777,357.583,501.801,358.226"/>
	<path fill="#E20E18" d="M502.87,358.156c0.181,0.19,0.62,0.21,1.25,0.101c0.01-0.073,0.01-0.147,0-0.221
		c-0.029-0.44-0.304-0.827-0.71-1C502.96,357.546,502.689,357.956,502.87,358.156"/>
</g>
</svg>
