<?xml version="1.0" encoding="UTF-8" standalone="no"?>
<!-- Generator: Adobe Illustrator 27.0.0, SVG Export Plug-In . SVG Version: 6.00 Build 0)  -->

<svg
   version="1.1"
   id="Capa_1"
   x="0px"
   y="0px"
   viewBox="0 0 1024 599.99997"
   xml:space="preserve"
   sodipodi:docname="vio-presentacion6.svg"
   inkscape:version="1.2.1 (9c6d41e410, 2022-07-14)"
   width="1024"
   height="600"
   xmlns:inkscape="http://www.inkscape.org/namespaces/inkscape"
   xmlns:sodipodi="http://sodipodi.sourceforge.net/DTD/sodipodi-0.dtd"
   xmlns="http://www.w3.org/2000/svg"
   xmlns:svg="http://www.w3.org/2000/svg"><defs
   id="defs689">
		
		
		
		
		
		
		
		
		
		
		
		
		
		
		
		
		
		
		
		
		
		
	
	

	
</defs><sodipodi:namedview
   id="namedview687"
   pagecolor="#ffffff"
   bordercolor="#000000"
   borderopacity="0.25"
   inkscape:showpageshadow="2"
   inkscape:pageopacity="0.0"
   inkscape:pagecheckerboard="0"
   inkscape:deskcolor="#d1d1d1"
   showgrid="false"
   inkscape:zoom="0.96810244"
   inkscape:cx="215.88624"
   inkscape:cy="521.12254"
   inkscape:window-width="1920"
   inkscape:window-height="1018"
   inkscape:window-x="-8"
   inkscape:window-y="-8"
   inkscape:window-maximized="1"
   inkscape:current-layer="Capa_1" />
<style
   type="text/css"
   id="style350">
	.st0{fill:#93C132;}
	.st1{fill:none;stroke:#1C8B50;stroke-width:1.14;stroke-linecap:round;}
	.st2{fill:#1C8B50;}
	.st3{fill:#31AD68;}
	.st4{fill:#A95419;}
	.st5{fill:#03A0A4;stroke:#03A0A4;}
	.st6{fill:#50BDC1;}
	.st7{fill-rule:evenodd;clip-rule:evenodd;fill:#E3D7C2;}
	.st8{fill:#9E978E;}
	.st9{fill:#DBD9CD;}
	.st10{fill:#F3A5C2;}
	.st11{fill:#E3E1D7;}
	.st12{fill:none;stroke:#DBD9CD;stroke-width:0.25;stroke-linecap:round;}
	.st13{fill:#020203;}
	.st14{fill:none;stroke:#020203;stroke-width:0.6;stroke-linecap:round;stroke-miterlimit:10;}
	.st15{fill:#FFFFFF;}
	.st16{fill-rule:evenodd;clip-rule:evenodd;fill:#24995A;}
	.st17{fill:#814215;}
	.st18{fill-rule:evenodd;clip-rule:evenodd;fill:#1C8B50;}
	.st19{fill:none;stroke:#020203;stroke-width:0.51;stroke-linecap:round;}
	.st20{fill:#998D31;}
	.st21{fill:#B2B941;}
	.st22{opacity:0.6;}
	.st23{opacity:0.6;fill:#DBD9CD;enable-background:new    ;}
	.st24{fill:none;stroke:#020203;stroke-width:0.41;stroke-linecap:round;}
	.st25{fill:#DC7B1B;}
	.st26{fill:#F39208;}
	.st27{fill:none;stroke:#020203;stroke-width:0.64;stroke-linecap:round;}
	.st28{fill:none;stroke:#DC7B1B;stroke-width:0.91;stroke-linecap:round;}
	.st29{fill:#E20E18;}
	.st30{fill:#B91D1C;}
	.st31{fill:#3F3C29;fill-opacity:0.38;}
	.st32{fill:#FBBA09;}
	.st33{fill:#F0EEDF;}
	.st34{fill:#C5C0B4;}
	.st35{fill:none;stroke:#DBD9CD;stroke-width:0.26;stroke-linecap:round;}
	.st36{fill:none;stroke:#DBD9CD;stroke-width:0.9;stroke-linecap:round;}
</style>
<path
   class="st0"
   d="m 147.0606,338.45935 c -3.70995,68.97276 54.946,109.20077 98.15596,124.61281 43.20996,15.41203 163.09214,-36.44554 209.58771,-42.1506 46.48344,-5.69462 343.33975,95.0635 360.74983,14.62837 C 832.95205,355.11479 622.80663,340.53867 524.34757,282.59988 425.88851,224.66109 350.76817,221.35926 284.92268,232.2156 219.0772,243.07194 150.79479,269.48659 147.0606,338.45935 Z"
   id="path352"
   style="stroke-width:1.12553" /><path
   class="st0"
   d="m 970.43112,367.55044 c 4.7526,-68.92052 -47.4776,-85.95212 -99.4411,-91.0407 -51.9635,-5.08858 11.8331,5.08858 -207.0174,5.08858 -218.85045,0 -341.83638,-98.91912 -360.47098,-18.68252 -18.63459,80.23661 178.12592,77.51991 288.84238,156.23098 110.7164,78.71108 172.6337,63.21546 238.6489,53.08009 66.0152,-10.13537 134.6977,-35.74547 139.4382,-104.67643 z"
   id="path354"
   style="stroke-width:1.12553" /><g
   id="Layer_2_00000165930710753106440990000000753111963188928181_"
   transform="translate(76.438189,-28.92256)">
	<g
   id="Layer_1-2_00000087394568269647127960000009942273988090009222_">
		<path
   class="st16"
   d="m 660.2,263.93 c 0,0 -1.11,-2.35 -14.44,0 -50.05,8.8 -88.14,-14.44 -82.71,-15.25 29.89,-4.59 53.78,-11.04 50.17,-13.23 -3.61,-2.18 -50.47,-6.32 -41.6,-7.45 12,-1.58 46.33,-16.29 42.41,-17.35 -4.21,-1.15 -44.21,-2.56 -36.43,-5.61 28.58,-11.2 39.84,-22.76 36.27,-21.56 -3.57,1.2 -32.38,4.57 -27.07,0.83 17.6,-12.44 32.38,-35.99 32.38,-35.99 0,0 -16.89,5.03 -22.94,6.4 -6.05,1.37 -2.48,-1.8 8.95,-11.63 10.83,-9.29 20.17,-22.86 20.17,-22.86 0,0 -3.35,-0.43 -12.45,0 -9.1,0.43 -8.12,1.53 0,-7.82 8.12,-9.36 29.31,-29.78 24.99,-31.4 -4.31,-1.62 -25.9,11.5 -21.83,7.14 11.33,-12.15 38.8,-61.5 40.05,-58.21 1.25,3.29 13.44,34.7 21.81,45.7 8.37,11 24.85,20.37 16.91,19.83 -7.94,-0.54 -22.11,-7.33 -22.11,-7.33 0,0 7.39,20.54 12.9,25.5 5.51,4.96 11.73,10.46 3.7,9.93 -8.03,-0.53 -22.18,-7.16 -18.49,-2.2 3.69,4.96 31.18,24.9 26.06,25.66 -5.13,0.77 -22.98,-3.93 -22.98,-3.93 0,0 15.92,22.3 20.92,25.64 5,3.34 11.15,6.32 5.61,7.29 -5.54,0.97 -22.56,-3.13 -22.56,-3.13 0,0 13,22.26 30.56,32.65 2.13,1.26 -14.78,1.57 -22.8,0 -8.02,-1.57 -11.09,-3.38 -10.48,0 0.61,3.38 30.19,16.08 41.89,23.28 8.12,4.96 -36.34,-1.32 -39.18,0 -3.09,1.43 25.7,22.68 51.32,25.27 7.66,0.77 -13.37,6.55 -28.78,9.88 -15.39,3.32 -40.22,-0.05 -40.22,-0.05 z"
   id="path432" />
		<path
   class="st17"
   d="m 637.34,244.78 c -0.23,-12.8 0.9,-37.9 0.9,-37.9 l -19.51,-18.89 2.54,-3.13 c 0,0 2.05,0.46 7.3,4.41 5.25,3.95 11.83,7.81 11.83,7.81 0,0 0.36,-21.91 0.76,-26.93 0.73,-9.38 -2.57,-12.25 -2.57,-12.25 0,0 -2.95,-2.12 -7.06,-5.02 -4.11,-2.9 -7.43,-5.56 -7.43,-5.56 l 3.23,-3.45 c 2.79,1.3 5.5,2.77 8.12,4.4 1.95,1.2 4.38,1.33 6.44,0.32 0,0 0.08,-2.71 0.37,-10.83 0.26,-7.49 1.46,-16.93 0.18,-20.98 -1.28,-4.05 -9.47,-16.43 -9.47,-16.43 l 2.17,-3.89 c 1.56,1.12 2.91,2.51 3.99,4.1 1.93,2.76 7.54,9.76 7.54,9.76 0,0 2.39,-5.34 5.3,-10.68 3.53,-6.5 1.66,-7.43 5.41,-6.47 4.12,1.06 2.91,1.67 0.97,6.92 -2.18,5.89 -3.01,8.18 -4.51,11.48 -1.21,2.6 -0.34,40.12 -0.34,40.12 0,0 -0.3,24.58 0.73,24.96 4.61,1.66 17.49,-1.31 17.49,-1.31 l -0.13,3.7 -17.88,5.64 -0.4,41.99 c 0,0 6.07,-0.21 9.39,-1.75 3.32,-1.54 3.88,-1.02 3.88,-1.02 l 1.34,3.32 c 0,0 -3.76,3.04 -7.05,3.74 -2.36,0.51 -5.84,1.4 -7.62,1.8 l 2.2,83.29 -19.45,-0.6 c 0.01,0.02 1.56,-58.28 1.34,-70.67 z"
   id="path434" />
		<path
   class="st18"
   d="m 708.35,281.43 c 0,0 1.12,-2.38 14.64,0 50.71,8.92 89.33,-14.6 83.79,-15.46 -30.29,-4.67 -54.48,-11.18 -50.82,-13.4 3.66,-2.22 51.13,-6.37 42.15,-7.54 -12.16,-1.61 -46.92,-16.5 -42.96,-17.58 4.27,-1.15 44.79,-2.6 36.91,-5.68 -28.96,-11.34 -40.35,-23.05 -36.74,-21.85 3.61,1.2 32.79,4.65 27.41,0.84 -17.84,-12.63 -32.81,-36.47 -32.81,-36.47 0,0 17.14,5.09 23.24,6.49 6.1,1.4 2.53,-1.88 -9.02,-11.78 -11,-9.41 -20.43,-23.15 -20.43,-23.15 0,0 3.4,-0.44 12.63,0 9.23,0.44 8.25,1.54 0,-7.93 -8.25,-9.47 -29.73,-30.13 -25.36,-31.8 4.38,-1.67 26.22,11.64 22.12,7.22 -11.49,-12.31 -39.31,-62.26 -40.6,-58.96 -1.29,3.3 -13.62,35.19 -22.1,46.29 -8.48,11.1 -25.2,20.65 -17.14,20.09 8.06,-0.56 22.4,-7.42 22.4,-7.42 0,0 -7.5,20.82 -13.11,25.83 -5.61,5.02 -11.86,10.59 -3.74,10.04 8.11,-0.55 22.47,-7.22 18.72,-2.24 -3.75,4.98 -31.58,25.27 -26.41,26.01 5.17,0.74 23.29,-3.99 23.29,-3.99 0,0 -16.06,22.61 -21.12,26 -5.06,3.39 -11.3,6.4 -5.68,7.38 5.62,0.98 22.84,-3.16 22.84,-3.16 0,0 -13.17,22.56 -30.95,33.06 -2.16,1.28 14.99,1.59 23.09,0 8.1,-1.59 11.24,-3.42 10.61,0 -0.63,3.42 -30.58,16.3 -42.41,23.59 -8.18,5.03 36.82,-1.33 39.7,0 3.14,1.45 -26.03,22.99 -51.98,25.59 -7.76,0.79 13.53,6.65 29.15,10.02 15.6,3.35 40.69,-0.04 40.69,-0.04 z"
   id="path436" />
		<path
   class="st4"
   d="m 731.51,262.02 c 0.23,-12.96 -0.9,-38.37 -0.9,-38.37 l 19.76,-19.14 -2.59,-3.19 c 0,0 -2.08,0.47 -7.4,4.51 -5.31,4.04 -11.98,7.9 -11.98,7.9 0,0 -0.36,-22.19 -0.77,-27.29 -0.75,-9.5 2.6,-12.41 2.6,-12.41 0,0 3,-2.15 7.15,-5.08 4.15,-2.93 7.52,-5.64 7.52,-5.64 l -3.3,-3.54 c -2.82,1.33 -5.56,2.82 -8.21,4.47 -1.98,1.21 -4.44,1.33 -6.53,0.32 0,0 -0.06,-2.71 -0.36,-10.94 -0.27,-7.59 -1.49,-17.14 -0.19,-21.26 1.3,-4.11 9.6,-16.64 9.6,-16.64 l -2.2,-3.95 c -1.58,1.14 -2.95,2.54 -4.04,4.16 -1.96,2.8 -7.64,9.93 -7.64,9.93 0,0 -2.42,-5.41 -5.36,-10.83 -3.61,-6.58 -1.69,-7.53 -5.52,-6.55 -4.18,1.06 -2.96,1.69 -0.98,7 2.21,5.96 3.04,8.29 4.6,11.63 1.23,2.63 0.35,40.6 0.35,40.6 0,0 0.3,24.9 -0.75,25.27 -4.67,1.69 -17.72,-1.31 -17.72,-1.31 l 0.14,3.74 18.12,5.71 0.41,42.54 c 0,0 -6.16,-0.23 -9.51,-1.8 -3.35,-1.57 -3.93,-1.04 -3.93,-1.04 l -1.36,3.36 c 0,0 3.83,3.09 7.16,3.8 2.39,0.51 5.9,1.43 7.71,1.89 l -2.23,84.37 19.79,-0.72 c -0.04,0.02 -1.67,-58.96 -1.44,-71.5 z"
   id="path438" />
		<path
   class="st3"
   d="m 579.63,102.23 c -10.43,-0.36 -31.22,3.18 -47.96,14.86 -19.75,13.75 -25.19,22.82 -30.26,46.15 -5.06,23.33 2.12,41.51 12.73,57.33 10.61,15.83 17.52,32.35 66.06,40.2 27.49,4.51 72.05,-12.97 80.17,-49.15 8.12,-36.18 -1.55,-61.43 -10.77,-70.82 -9.22,-9.39 -24.17,-36.97 -69.97,-38.57 z"
   id="path440" />
		<path
   class="st4"
   d="m 520.23,171.09 12.44,6.96 c 0,0 6.19,1.18 9.45,1.8 3,0.53 10.44,2.09 10.44,2.09 l 2.59,-13.71 h 2.89 c 0,0 -1.72,13.96 0,14.97 1.37,0.82 10.45,3.68 16.08,5.07 1.28,-12.7 2.71,-26.77 2.71,-28.43 0,-1.66 -4.46,-4.45 -8.04,-5.99 -3.58,-1.54 -11.53,-3.61 -14.72,-4.62 -3.19,-1.01 -4.77,-1.62 -4.77,-1.62 0,0 3.61,-5.75 5.97,-4.51 2.36,1.24 12.73,6.15 12.73,6.15 l 3.52,-7.07 h 4.09 l -2.44,7.07 c 0,0 1.99,1.4 3.66,0 1.68,-1.4 3.1,-7.76 3.1,-13.06 0,-5.3 -0.05,-7.7 -0.05,-7.7 -1.49,-0.32 -7.63,2.62 -7.63,2.62 l -1.2,-1.94 7.4,-4.67 c 0,0 -1.8,-2.36 -4.13,-5.94 -2.33,-3.58 -2.17,-3.42 1.8,-5.41 0,0 2.56,3.89 4.51,7.02 1.28,2.01 4.99,8.78 6.32,9.02 1.33,0.24 1.8,-0.07 5.31,-1.3 l 3.36,-0.85 1.34,2.91 c 0,0 -8.03,2.17 -8.42,4.78 -0.39,2.62 -0.8,22.73 -0.8,22.73 l 7.78,-9.83 2.76,0.9 c 0,0 0.99,-0.05 -0.2,2.2 -0.71,1.33 -1.57,2.58 -2.56,3.72 l 9.54,-2.96 0.1,3.74 c 0,0 -7.07,1.97 -9.86,3.17 -2.8,1.2 -7.95,3.97 -7.95,3.97 l -0.79,6.8 c -0.8,6.82 -1.6,27.81 -1.6,27.81 l 10.03,-3.73 2.71,-6.24 -4.76,-2.09 1.19,-1.8 h 5.96 l 4.85,-7.14 3.07,1.51 c 0,0 -4.32,5.34 -4.32,6.44 0,1.1 -3.41,9.26 -3.41,9.26 0,0 6.7,-2.18 8.59,-2.86 1.89,-0.68 25.08,-5.99 25.08,-5.99 l 0.4,5.41 c 0,0 -14.76,5.2 -18.83,7.15 l -0.58,0.26 c 0.35,0.24 0.69,0.5 1.01,0.79 2.59,2.07 5.5,3.69 8.62,4.79 l -1.85,4.77 -13.4,-8.36 c -2.41,0.71 -10.19,3.61 -11.44,4.11 -3.61,1.31 -10.89,4.26 -12.07,8.72 -1.18,4.46 0.36,17.97 0.42,24.88 0,5.04 0.9,5.41 3.28,4.94 2.71,-0.56 7.44,-2.17 7.44,-2.17 -0.11,-1.53 -0.06,-3.06 0.14,-4.57 0.27,-2.15 0.75,-4.26 1.43,-6.32 l 3.19,-1.22 c 0.49,2.49 0.67,5.03 0.55,7.57 -0.09,2.17 5.31,0.98 7.76,-0.37 3.69,-2.09 7.57,-3.86 11.57,-5.28 3.75,-1.31 8.91,-2.71 8.91,-2.71 l 1.98,4.61 c -4.61,1.7 -9.1,3.7 -13.45,5.98 l -1.69,0.9 7.02,1.58 -1.8,3.14 c -1.48,-0.2 -2.94,-0.5 -4.38,-0.9 -1.99,-0.58 -4.02,-1.03 -6.07,-1.34 -4.61,2.09 -8.37,3.46 -12.91,5.56 -5.65,2.61 -10.57,3.61 -12.96,5.28 -2.39,1.67 -0.41,50.78 -0.41,62.61 0,11.83 0.41,24.36 0.41,24.36 h -18.3 L 571.55,236.84 556.8,224 l -1.01,1.43 c -1.15,1.35 -2.41,2.6 -3.76,3.74 l -2.39,-2.82 1.2,-0.96 c 1.19,-0.9 2.39,-3.82 2.39,-3.82 l -6.32,-5.95 1.59,-2.63 c 0,0 6.32,3.8 10.64,6.49 l 0.47,0.31 v -12.44 c 0,0 -0.83,-2.71 0,-3.03 0.79,-0.19 1.61,-0.19 2.39,0 0,0 0.54,2.5 1.01,5.32 0.36,2.17 1.25,9.85 1.65,13.32 3.74,2.31 7.43,4.51 7.43,4.51 0,0 -0.25,-12.82 0.19,-19.17 0.12,-1.61 0.46,-5.29 0.9,-9.93 -7,-2.15 -17.92,-6.38 -24.17,-8.05 -8.03,-2.13 -9.75,-4.07 -12.33,-2.82 -2.57,1.25 -2.35,12.39 -3.15,13.69 l -3.43,-1.25 v -7.51 h -7.3 l -1.16,-2.5 8.45,-1.25 v -7.5 c 0,0 -11.29,-5.96 -11.51,-7.32 -0.22,-1.36 1.65,-2.77 1.65,-2.77 z"
   id="path442" />
	</g>
</g><path
   class="st1"
   d="m 184.68139,285.15984 c 0,0 0.15762,-42.5372 11.9664,-77.83337 14.43969,-43.44625 31.87401,-74.13448 31.87401,-74.13448"
   id="path356" /><path
   class="st2"
   d="m 246.73206,287.28096 c 1.58825,-1.78675 3.031,-3.6571 4.31615,-5.61103 10.08717,-15.31799 34.37156,-55.02356 34.37156,-55.02356 -8.2322,6.2275 -15.9552,12.93565 -23.10836,20.08266 -5.60129,5.53788 -20.8048,28.6925 -28.04283,39.9041 4.07367,0.18808 8.22008,0.39705 12.46348,0.64783 z"
   id="path358"
   style="stroke-width:1.12553" /><path
   class="st2"
   d="m 168.50797,287.375 c 9.10513,-0.62693 18.84071,-1.06579 29.20673,-1.22252 -1.2124,-21.58729 1.41851,-43.19548 7.78361,-64.09315 5.61342,-17.55404 12.60897,-34.76328 20.92604,-51.50231 -11.77241,14.57613 -21.04728,30.55239 -27.50937,47.41681 -8.03822,21.47236 -13.23942,64.20809 -13.23942,64.20809 0,0 -5.33456,-5.02588 -4.31614,-26.90575 1.01841,-21.87986 11.06921,-77.26913 11.06921,-77.26913 0,0 -12.99693,31.03304 -17.81016,58.3045 -3.44322,19.30945 -5.56492,44.27171 -6.1105,51.06346 z"
   id="path360"
   style="stroke-width:1.12553" /><path
   class="st2"
   d="m 232.8137,286.59133 c 3.05525,-7.80528 8.32919,-21.82761 12.39074,-35.28571 6.1105,-20.11401 30.2009,-67.23826 30.2009,-67.23826 0,0 -14.65793,12.95656 -26.49096,35.9022 -8.45043,16.38377 -32.9773,62.33775 -32.9773,62.33775 0,0 13.84562,-49.82004 23.05986,-73.07915 9.21425,-23.25911 35.08688,-65.25298 35.08688,-65.25298 0,0 -24.0904,23.50988 -38.93019,51.06346 -11.20258,20.69914 -36.80848,89.55697 -37.41468,91.15564 10.98435,-0.21943 22.67189,-0.10449 35.07475,0.39705 z"
   id="path362"
   style="stroke-width:1.12553" /><path
   class="st3"
   d="m 144.46606,289.59015 c 5.27395,-0.61648 10.81462,-1.17027 16.62202,-1.66137 -2.03684,-14.25221 -3.30986,-33.1855 0.0485,-51.5232 3.62508,-19.26765 8.72929,-38.29498 15.28837,-56.9775 -10.47514,17.0316 -18.18601,35.23347 -22.91437,54.08317 -5.4558,22.84115 -8.82628,54.04138 -9.04451,56.0789 z"
   id="path364"
   style="stroke-width:1.12553" /><path
   class="st3"
   d="m 108.48201,295.3997 c 6.00138,-1.25386 12.68171,-2.49727 20.06523,-3.64664 -2.99463,-11.52507 -6.57121,-25.5683 -8.81415,-35.34841 -4.41314,-19.37214 -5.79528,-70.64457 -5.79528,-70.64457 -4.57075,14.294 -6.69245,29.0791 -6.28023,43.906 0.35159,15.42248 0.72744,55.02357 0.82443,65.73362 z"
   id="path366"
   style="stroke-width:1.12553" /><path
   class="st3"
   d="m 130.2446,291.50229 c 4.43739,-0.67918 9.16575,-1.30611 14.06385,-1.89124 -0.66682,-0.4911 -3.22499,-3.64665 -4.94659,-23.3427 -1.96409,-22.68442 6.38935,-103.22404 6.38935,-103.22404 0,0 -15.80971,43.98959 -15.94307,85.74314 -0.0364,12.52815 0.20611,29.44482 0.43646,42.71484 z"
   id="path368"
   style="stroke-width:1.12553" /><path
   class="st3"
   d="m 69.333591,306.73669 c 0,0 0.557704,-0.25077 1.685237,-0.68963 -1.951965,-1.83899 -5.322439,-6.01852 -10.68125,-15.61056 -9.881066,-17.73167 -31.037458,-86.92385 -31.037458,-86.92385 0,0 1.321517,42.38047 16.112805,76.52726 5.334563,12.35053 13.348532,29.75829 18.501235,40.8863 z"
   id="path370"
   style="stroke-width:1.12553" /><path
   class="st3"
   d="m 72.728313,305.37834 c 5.334563,-2.01663 16.997858,-5.98718 34.941387,-9.80101 -2.26719,-7.06341 -8.5353,-27.66851 -11.081341,-46.98841 -3.11587,-23.70841 -0.3031,-72.00292 -0.3031,-72.00292 0,0 -10.184166,32.76754 -10.111422,63.16321 0.09699,23.15461 3.734194,59.76733 3.734194,59.76733 0,0 -13.991104,-12.38187 -20.901788,-44.7837 -3.528086,-16.65545 -5.516423,-33.53032 -5.952888,-50.45743 0,0 -5.698283,26.14299 -1.515501,53.56073 2.75215,18.11828 9.177874,40.68776 11.190459,47.5422 z"
   id="path372"
   style="stroke-width:1.12553" /><path
   class="st4"
   d="m 210.25092,162.37558 c 0.49709,-1.02398 8.95965,-20.50061 10.81462,-23.3218 2.65516,-4.01235 7.8806,-1.60912 6.35298,2.2465 -1.12753,2.85253 -8.77778,20.6469 -10.56001,23.98008 -2.27932,4.29447 -9.33549,2.68535 -6.60759,-2.90478 z"
   id="path374"
   style="stroke-width:1.12553" /><g
   id="Layer_1-2_00000036228939851233655020000013215952781439919237_"
   transform="translate(164.68449,-123.0981)">
		<path
   class="st31"
   d="m 679.65,287 c 1.9,-0.12 -1,-0.63 1.24,-0.25 -0.3,0.37 -0.82,0.47 -1.24,0.25 z"
   id="path568" />
		<path
   class="st31"
   d="m 677.34,287.07 c -0.41,-0.4 -1.72,-0.67 -0.66,-1.17 0.14,0.39 0.82,0.82 0.66,1.17 z"
   id="path570" />
		<path
   class="st31"
   d="m 677.87,277.65 c -0.89,0.27 -0.65,-0.3 -0.8,-0.35 0.82,-0.08 -0.28,0.45 0.8,0.35 z"
   id="path572" />
		<path
   class="st31"
   d="m 755.58,284.77 c 1.89,-0.12 -1,-0.55 1.24,-0.22 -0.32,0.33 -0.82,0.41 -1.24,0.22 z"
   id="path574" />
		<path
   class="st31"
   d="m 753.34,284.82 c -0.4,-0.35 -1.72,-0.58 -0.65,-1 0.07,0.32 0.74,0.69 0.65,1 z"
   id="path576" />
		<path
   class="st31"
   d="m 718.34,279.42 c -0.06,0.1 -0.5,-0.18 -0.61,-0.24 0.44,0 0.87,-0.26 1.2,-0.06 -0.48,0 -0.42,0.17 -0.59,0.3 z"
   id="path578" />
		<path
   class="st31"
   d="m 709.34,278.6 c 0.16,-0.3 2.09,-0.41 3.23,-0.38 z"
   id="path580" />
		<path
   class="st31"
   d="m 701.06,276.72 c -0.71,-0.32 -0.5,-0.45 0.47,-0.37 0.06,0.18 -0.27,0.24 -0.47,0.37 z"
   id="path582" />
		<path
   class="st31"
   d="m 700.41,277.38 c -0.49,-0.01 -0.96,-0.17 -1.36,-0.45 0.01,0.27 1.64,-0.04 1.36,0.45 z"
   id="path584" />
		<path
   class="st31"
   d="m 682.26,275.24 c -0.46,0 -1.27,0.21 -1.72,-0.16 0.46,0.27 2.02,-0.28 1.72,0.16 z"
   id="path586" />
		<path
   class="st31"
   d="m 673.8,275.19 c -0.23,-0.05 -0.48,-0.05 -0.71,0 -0.5,-0.18 0,-0.37 0.47,-0.37 z"
   id="path588" />
		<path
   class="st31"
   d="m 715.73,274 -0.92,0.1 0.14,-0.29 z"
   id="path590" />
		<path
   class="st31"
   d="m 754.07,276.29 c -0.89,0.28 -0.65,-0.23 -0.8,-0.27 0.81,-0.09 -0.27,0.4 0.8,0.27 z"
   id="path592" />
		<path
   class="st31"
   d="m 717.88,279.49 h 0.29 l -0.1,0.63 z"
   id="path594" />
		<path
   class="st17"
   d="m 741.03,520.14 -11.69,-0.86 9.59,-221.14 13.41,0.75 z"
   id="path596" />
		<path
   class="st4"
   d="m 666.7,308.11 -5.87,5.23 155.25,70.48 4.24,-7.39 3,-60.49 z"
   id="path598" />
		<path
   class="st26"
   d="m 660.85,313.34 -2.51,63.22 157.74,7.26 2,-62.08 z"
   id="path600" />
		<path
   class="st15"
   d="m 715.47,341.2 c -0.1,0.01 -0.18,-0.07 -0.19,-0.17 0,-0.01 0,-0.02 0,-0.03 l 0.61,-12.83 c 0,-0.1 0.08,-0.19 0.19,-0.19 0,0 0.01,0 0.01,0 l 4.71,0.22 c 2.54,0.12 4.12,1.76 4,4.14 -0.12,2.38 -1.83,3.88 -4.39,3.76 l -3.07,-0.1 c -0.08,0 -0.12,0 -0.12,0.1 l -0.24,5 c 0,0.1 -0.08,0.19 -0.19,0.19 0,0 -0.01,0 -0.01,0 z m 7.63,-8.94 c 0.1,-1.25 -0.83,-2.36 -2.08,-2.46 -0.13,-0.01 -0.26,-0.01 -0.39,0 l -3,-0.14 c -0.08,0 -0.13,0 -0.13,0.11 l -0.2,4.44 c 0,0.08 0,0.13 0.11,0.13 l 3,0.14 c 1.63,0.07 2.63,-0.78 2.69,-2.22 z"
   id="path602" />
		<path
   class="st15"
   d="m 727.4,328.71 c 0,-0.1 0.08,-0.18 0.18,-0.18 0.01,0 0.01,0 0.02,0 l 1.34,0.06 c 0.1,0 0.19,0.08 0.19,0.19 0,0 0,0.01 0,0.01 l -0.53,11.29 c 0,0.08 0,0.13 0.11,0.13 l 6.3,0.29 c 0.11,0.01 0.2,0.1 0.19,0.21 0,0 0,0 0,0 l -0.06,1.22 c 0,0.1 -0.08,0.19 -0.19,0.19 0,0 -0.01,0 -0.01,0 l -8,-0.37 c -0.1,0 -0.19,-0.08 -0.19,-0.19 0,0 0,-0.01 0,-0.01 z"
   id="path604" />
		<path
   class="st15"
   d="m 741.28,329.35 c 0.03,-0.11 0.13,-0.19 0.25,-0.19 l 1.26,0.07 c 0.12,0.01 0.22,0.09 0.25,0.2 l 3.92,13 c 0,0.13 0,0.19 -0.14,0.19 l -1.35,-0.06 c -0.13,0.01 -0.24,-0.08 -0.25,-0.21 0,0 0,0 0,0 l -0.87,-2.92 -5.35,-0.25 -1.13,2.83 c -0.07,0.14 -0.14,0.19 -0.27,0.19 l -1.35,-0.07 c -0.11,0 -0.18,-0.07 -0.13,-0.2 z m 2.57,8.51 -1.79,-6.11 v 0 l -2.38,5.9 z"
   id="path606" />
		<path
   class="st15"
   d="m 750.73,342.85 c -0.1,0 -0.19,-0.08 -0.19,-0.19 0,0 0,-0.01 0,-0.01 l 0.25,-5.22 -3.55,-7.78 c 0,-0.13 0,-0.22 0.17,-0.21 l 1.39,0.07 c 0.13,0 0.24,0.08 0.28,0.2 l 2.69,5.79 v 0 l 3.21,-5.51 c 0.04,-0.12 0.15,-0.2 0.28,-0.19 l 1.34,0.07 c 0.15,0 0.18,0.1 0.15,0.21 l -4.26,7.42 -0.25,5.21 c 0,0.1 -0.08,0.19 -0.19,0.19 -0.01,0 -0.01,0 -0.02,0 z"
   id="path608" />
		<path
   class="st15"
   d="m 761.02,330.29 c 0.03,-0.11 0.13,-0.19 0.25,-0.19 l 1.27,0.06 c 0.12,0 0.21,0.08 0.23,0.2 l 3.92,13.06 c 0,0.12 0,0.18 -0.14,0.18 l -1.37,-0.06 c -0.12,0.01 -0.23,-0.08 -0.25,-0.2 l -0.87,-2.93 -5.34,-0.25 -1.15,2.84 c -0.07,0.15 -0.14,0.19 -0.27,0.19 l -1.35,-0.06 c -0.13,0 -0.17,-0.08 -0.13,-0.2 z m 2.56,8.5 -1.79,-6.11 v 0 l -2.45,5.92 z"
   id="path610" />
		<path
   class="st15"
   d="m 684.72,347.48 c 0.01,-0.13 0.11,-0.23 0.24,-0.22 0,0 0.01,0 0.01,0 l 9.55,0.45 c 0.12,0 0.22,0.1 0.22,0.22 0,0.01 0,0.02 0,0.03 l -0.06,1.47 c -0.01,0.13 -0.11,0.23 -0.24,0.22 0,0 -0.01,0 -0.01,0 l -7.57,-0.36 c -0.1,0 -0.14,0 -0.14,0.14 l -0.22,4.65 c 0,0.1 0,0.14 0.14,0.16 l 6.42,0.3 c 0.12,0 0.21,0.09 0.21,0.21 0,0.01 0,0.03 0,0.04 l -0.06,1.47 c 0.01,0.12 -0.08,0.22 -0.2,0.22 -0.02,0 -0.04,0 -0.05,0 l -6.41,-0.29 c -0.1,0 -0.14,0 -0.14,0.14 l -0.24,4.82 c 0,0.1 0,0.15 0.14,0.15 l 7.56,0.35 c 0.12,0 0.21,0.09 0.21,0.21 0,0.01 0,0.03 0,0.04 l -0.06,1.47 c 0,0.12 -0.1,0.22 -0.22,0.22 -0.01,0 -0.02,0 -0.03,0 l -9.54,-0.46 c -0.12,0.01 -0.22,-0.08 -0.22,-0.2 0,-0.02 0,-0.04 0,-0.05 z"
   id="path612" />
		<path
   class="st15"
   d="m 697.85,348.09 c -0.01,-0.12 0.08,-0.22 0.2,-0.22 0.02,0 0.04,0 0.05,0 l 1.61,0.08 c 0.12,0 0.22,0.1 0.22,0.22 0,0.01 0,0.02 0,0.03 l -0.59,13.55 c 0,0.09 0,0.14 0.14,0.14 l 7.57,0.35 c 0.14,0 0.21,0.11 0.21,0.25 l -0.11,1.51 c 0,0.12 -0.1,0.22 -0.22,0.22 -0.01,0 -0.02,0 -0.03,0 l -9.56,-0.49 c -0.15,0 -0.24,-0.11 -0.22,-0.25 z"
   id="path614" />
		<path
   class="st15"
   d="m 716.28,362.9 c -0.1,-0.09 -0.11,-0.24 -0.02,-0.34 0.01,-0.01 0.01,-0.01 0.02,-0.02 l 1.06,-1.17 c 0.07,-0.09 0.19,-0.11 0.28,-0.04 0.02,0.01 0.03,0.02 0.04,0.04 1.21,1.08 2.75,1.73 4.37,1.84 2.19,0.11 3.55,-0.93 3.62,-2.54 0.07,-1.35 -0.65,-2.3 -3.19,-2.74 l -0.79,-0.16 c -3.07,-0.56 -4.58,-2.11 -4.47,-4.6 0.14,-2.82 2.24,-4.55 5.4,-4.4 1.73,0.07 3.39,0.67 4.77,1.7 0.09,0.08 0.1,0.22 0.02,0.31 -0.01,0.01 -0.01,0.01 -0.02,0.02 l -0.8,1.2 c -0.09,0.09 -0.23,0.09 -0.32,0 -1.1,-0.82 -2.41,-1.29 -3.77,-1.38 -1.93,-0.09 -3.06,0.91 -3.13,2.43 -0.07,1.33 0.77,2.26 3.22,2.7 l 0.77,0.25 c 3.09,0.57 4.58,2.06 4.46,4.66 -0.13,2.77 -2.18,4.69 -6,4.52 -2.04,-0.1 -4,-0.9 -5.52,-2.28 z"
   id="path616" />
		<path
   class="st15"
   d="m 735.43,349.85 c 0.07,-0.14 0.13,-0.22 0.3,-0.22 l 1.51,0.06 c 0.14,0.01 0.27,0.11 0.3,0.25 l 4.72,15.65 c 0,0.14 0,0.24 -0.18,0.24 l -1.63,-0.08 c -0.15,0 -0.28,-0.1 -0.3,-0.25 l -1,-3.5 -6.42,-0.3 -1.39,3.4 c -0.08,0.15 -0.17,0.23 -0.31,0.21 l -1.69,-0.07 c -0.14,0 -0.2,-0.11 -0.16,-0.25 z m 3.07,10.22 -2.16,-7.33 v 0 l -2.86,7.09 z"
   id="path618" />
		<path
   class="st15"
   d="m 744.55,360.41 0.46,-10.11 c 0.01,-0.13 0.11,-0.23 0.24,-0.22 0,0 0.01,0 0.01,0 l 1.61,0.08 c 0.13,0.01 0.23,0.11 0.22,0.24 0,0 0,0.01 0,0.01 l -0.47,10.08 c -0.13,2.56 1.25,3.94 3.36,4 2.11,0.06 3.58,-1.14 3.71,-3.71 l 0.47,-10.07 c -0.01,-0.12 0.08,-0.22 0.2,-0.22 0.02,0 0.04,0 0.05,0 l 1.6,0.08 c 0.12,-0.01 0.22,0.08 0.22,0.2 0,0.01 0,0.03 0,0.04 L 755.75,361 c -0.18,3.74 -2.39,5.69 -5.88,5.53 -3.49,-0.16 -5.53,-2.38 -5.32,-6.12 z"
   id="path620" />
		<path
   class="st15"
   d="m 758.74,366.62 c -0.12,0.01 -0.22,-0.08 -0.22,-0.2 0,-0.02 0,-0.04 0,-0.05 l 0.06,-1.46 c 0,-0.09 0.04,-0.18 0.11,-0.25 l 8.32,-11.59 v 0 l -7.32,-0.34 c -0.13,0 -0.24,-0.11 -0.24,-0.24 0,0 0,-0.01 0,-0.01 l 0.08,-1.47 c 0,-0.12 0.09,-0.21 0.21,-0.21 0.01,0 0.03,0 0.04,0 l 9.47,0.45 c 0.12,0 0.22,0.1 0.22,0.22 0,0.01 0,0.02 0,0.03 l -0.07,1.46 c 0,0.09 -0.04,0.18 -0.1,0.25 l -8.34,11.59 v 0 l 7.63,0.36 c 0.13,-0.01 0.23,0.09 0.24,0.22 0,0.01 0,0.02 0,0.03 l -0.08,1.47 c 0,0.12 -0.09,0.21 -0.21,0.21 -0.01,0 -0.03,0 -0.04,0 z"
   id="path622" />
		<path
   class="st15"
   d="m 776.66,351.79 c 0.07,-0.14 0.13,-0.23 0.3,-0.21 l 1.51,0.06 c 0.15,0.01 0.27,0.11 0.3,0.25 l 4.72,15.65 c 0.03,0.09 -0.01,0.19 -0.1,0.22 -0.03,0.01 -0.05,0.01 -0.08,0.01 l -1.63,-0.07 c -0.15,0 -0.28,-0.1 -0.3,-0.25 l -1.04,-3.51 -6.41,-0.29 -1.39,3.35 c -0.08,0.16 -0.17,0.24 -0.31,0.22 l -1.64,-0.08 c -0.09,0.01 -0.17,-0.05 -0.18,-0.14 0,-0.03 0,-0.06 0.02,-0.09 z m 3.09,10.21 -2.17,-7.32 v 0 l -2.87,7.08 z"
   id="path624" />
		<path
   class="st15"
   d="m 786.72,352.26 c 0.01,-0.13 0.11,-0.23 0.24,-0.22 0,0 0.01,0 0.01,0 l 1.61,0.08 c 0.12,0 0.22,0.1 0.22,0.22 0,0.01 0,0.02 0,0.03 l -0.64,13.55 c 0,0.09 0,0.14 0.14,0.14 l 7.55,0.36 c 0.12,0 0.22,0.1 0.22,0.22 0,0.01 0,0.02 0,0.03 l -0.06,1.46 c 0,0.14 -0.11,0.24 -0.25,0.22 l -9.55,-0.45 c -0.12,0 -0.22,-0.1 -0.22,-0.22 0,-0.01 0,-0.02 0,-0.03 z"
   id="path626" />
		<path
   class="st32"
   d="m 723.42,292.51 c -1,6.63 1,14.87 1.77,21.56 0.12,1 -1.52,1 -1.63,0 -0.75,-6.82 -3,-15.23 -1.72,-22 0.19,-1.07 1.72,-0.55 1.58,0.44 z"
   id="path628" />
		<path
   class="st32"
   d="m 721.7,305.65 c -0.71,1.25 -1.43,2.51 -2.16,3.75 -0.51,0.86 -2.23,3.27 -2.34,3.63 -0.23,0.71 0,1.87 1,1.22 0.67,-0.61 1.22,-1.35 1.6,-2.17 1.14,-1.85 2.22,-3.72 3.29,-5.63 0.17,-0.42 -0.04,-0.89 -0.45,-1.05 -0.33,-0.14 -0.71,-0.03 -0.94,0.25 z"
   id="path630" />
		<path
   class="st32"
   d="m 722.54,305.07 c -2.59,0.75 -5.1,1.76 -7.49,3 -0.9,0.42 -0.51,2 0.4,1.54 2.39,-1.24 4.89,-2.25 7.48,-3 0.95,-0.29 0.54,-1.83 -0.39,-1.54 z"
   id="path632" />
		<path
   class="st32"
   d="m 708.15,291.13 c -0.25,4.88 -0.1,9.78 0.46,14.64 0.12,1 1.72,0.71 1.6,-0.33 -0.53,-4.72 -0.67,-9.47 -0.43,-14.21 -0.01,-0.45 -0.39,-0.81 -0.84,-0.79 -0.4,0.01 -0.73,0.3 -0.79,0.69 z"
   id="path634" />
		<path
   class="st32"
   d="m 708.54,304.06 c -1.33,0.45 -6.45,1.6 -7.16,2 -1.07,0.64 -1,1.89 0,1.76 0.95,-0.15 1.89,-0.38 2.8,-0.69 1.66,-0.45 3.29,-1 4.92,-1.56 0.4,-0.2 0.56,-0.69 0.36,-1.09 -0.16,-0.34 -0.55,-0.51 -0.92,-0.42 z"
   id="path636" />
		<path
   class="st32"
   d="m 708.55,304.75 c -1.14,1.73 -5,5.51 -5.45,6.06 -0.05,0.06 -0.1,0.12 -0.14,0.18 -0.18,0.42 0.01,0.9 0.43,1.08 0.26,0.11 0.56,0.08 0.79,-0.08 2.23,-1.83 4.17,-3.98 5.75,-6.39 0.18,-0.42 -0.02,-0.9 -0.44,-1.07 -0.32,-0.14 -0.7,-0.05 -0.94,0.22 z"
   id="path638" />
		<path
   class="st32"
   d="m 708.8,306 c 0,1.2 0.2,6 0.39,7.48 0.13,1 1.76,1 1.63,-0.06 -0.2,-1.63 -0.12,-7 -0.91,-8.62 -0.46,-0.94 -1.3,-0.01 -1.11,1.2 z"
   id="path640" />
		<path
   class="st29"
   d="m 659.8,208 c 4.79,6.54 8.38,8 5.33,16.67 5.66,4.33 3.81,22.53 5.55,29.5 2.61,9.15 5.65,19.6 13,26.14 1.32,1.3 10.88,8.71 11.76,8.27 3.5,-0.44 3.05,-10 3.5,-12.63 0.86,-10.88 -0.44,-21.78 0.43,-32.67 0.97,-13.51 19.8,-28.75 -1.19,-41.86 0.16,-4.92 4.28,-9.68 10.16,-12.6 -7.76,-0.1 -13.59,4.63 -17.57,9.22 2.61,-9.58 10.89,-14.88 20,-18.35 -10.43,-1.75 -22.66,6.1 -27.89,15.23 5.66,-16.55 21.78,-20.02 33.1,-30.92 -12.19,7 -24.81,10.45 -34,21.34 -4.36,4.79 -6.11,10.88 -11.33,14.81 -2.18,1.74 -12.48,7 -11.18,8.34"
   id="path642" />
		<path
   class="st33"
   d="m 707.12,210.7 c 2.79,5.39 7.1,24.93 9.3,28.94 8.71,16.55 25.26,25.26 37,39.2 -9.58,5.65 -15.69,10.44 -27.45,13 -8.71,1.75 -17.41,0.87 -26.13,-1.31 -17,-3.92 -26.13,-33.1 -18.73,-48.34 2.18,-4.36 7,-6.1 9.58,-10 2.58,-3.9 2.65,-9.11 5.24,-13.02 1.92,-3.05 10.75,-9.32 11.19,-8.47 z"
   id="path644" />
		<path
   class="st15"
   d="m 695.94,219.18 c 1.91,-3 10.74,-9.33 11.19,-8.48 z"
   id="path646" />
		<path
   class="st12"
   d="m 744.93,284 c -5.8,3.71 -12.21,6.38 -18.93,7.89 -8.72,1.74 -17.42,0.86 -26.13,-1.31 -3.26,-0.8 -6.26,-2.41 -8.73,-4.67"
   id="path648" />
		<path
   class="st12"
   d="m 707.12,210.7 c 1.4,2.69 3.18,8.93 4.88,15"
   id="path650" />
		<path
   class="st34"
   d="m 712.78,227.78 c -6.53,2.61 -6.81,21.44 -5.51,28 3,10.45 15.08,16.77 23.74,21.67 8.24,4.68 15.88,7.51 25,10.55 12.63,4.79 29.18,7 42.68,7 -7.83,-5.22 -17,-8.71 -24.38,-14.8 -7.41,-6.54 -35.27,-31.36 -42.24,-38.33 -6.52,-7.02 -11.45,-9.73 -19.29,-14.09 z"
   id="path652" />
		<path
   class="st32"
   d="m 659.8,207 c -7.26,4.52 -13.19,7.26 -21.46,12.92 11.33,1.74 16.75,4.47 28.08,6.2 0.92,-5.66 -1.41,-22.38 -6.62,-19.12 z"
   id="path654" />
		<path
   class="st15"
   d="m 680.04,204.69 c -3.85,-1.09 -10.07,3.11 -8.51,8.52 1.56,5.41 8.28,7 11.24,1.93 3.48,-6.05 -0.19,-9.72 -2.73,-10.45 z"
   id="path656" />
		<path
   class="st13"
   d="m 675.57,212.47 c 0.72,-0.06 1.25,-0.7 1.19,-1.42 -0.06,-0.63 -0.56,-1.14 -1.19,-1.19 -0.72,0.06 -1.25,0.7 -1.19,1.42 0.06,0.63 0.56,1.14 1.19,1.19 z"
   id="path658" />
		<path
   class="st35"
   d="m 706.91,210.84 c 1.66,3.2 3.84,9.76 5.8,16.74"
   id="path660" />
		<path
   class="st36"
   d="m 715.9,249.25 c 1.29,2.39 3.22,4.38 5.57,5.75"
   id="path662" />
		<path
   class="st36"
   d="m 731.34,258.46 c 1.83,2.08 4.04,3.78 6.52,5"
   id="path664" />
		<path
   class="st36"
   d="m 716.04,237.88 c 1.65,2.64 2.79,4.86 5.41,6.84"
   id="path666" />
		<path
   class="st36"
   d="m 744.45,260.25 c 1.67,2.25 3.8,4.12 6.25,5.48"
   id="path668" />
		<path
   class="st36"
   d="m 722.39,263 c 2.02,2.61 4.49,4.84 7.3,6.58"
   id="path670" />
		<path
   class="st36"
   d="m 729.69,248.85 c 1.22,1.99 2.89,3.68 4.86,4.93"
   id="path672" />
		<path
   class="st36"
   d="m 754.22,282.6 c 2.18,0.86 4.53,1.2 6.86,1"
   id="path674" />
		<path
   class="st36"
   d="m 746.48,271 c 1.83,1.75 4.06,3.04 6.49,3.75"
   id="path676" />
		<path
   class="st36"
   d="m 737.83,273.87 c 2.48,2 4.58,3.15 8.89,4.08"
   id="path678" />
		<path
   class="st36"
   d="m 768.44,284.94 c 2.48,1.07 5.08,1.87 7.74,2.36"
   id="path680" />
		<path
   class="st36"
   d="m 758.95,273.87 c 1.92,1.9 4.05,3.58 6.34,5"
   id="path682" />
	</g><path
   class="st5"
   d="M 55.027263,431.36895 C -1.0098976,341.81198 15.236272,315.59586 68.266678,303.17219 c 79.715342,-18.67207 156.630042,-21.953 236.369642,-21.953 79.73959,0 199.76726,13.93875 237.5093,34.76327 29.25522,27.21922 116.14798,26.67588 163.40736,31.26292 124.79241,12.12065 174.85243,22.69487 194.08111,30.78227 62.14766,26.04894 119.31231,172.10276 -23.43571,177.17044 0,0 -416.47176,-17.13609 -526.73961,-17.56449 C 239.19093,537.21565 154.85634,505.14817 154.85634,505.14817 128.01032,492.48672 82.090251,473.2729 55.027263,431.36895 Z"
   id="path376"
   style="stroke-width:1.12553"
   sodipodi:nodetypes="ccsccccccc" /><path
   class="st6"
   d="m 562.12598,360.52729 c 1.8671,-1.22251 4.81323,-1.03443 7.04405,-1.7972 0.26673,-0.0731 0,0.4493 0.6062,0.25077 2.1217,-1.01353 5.79527,-0.94039 8.58379,-0.65827 l -0.15761,0.13583 c 0.53346,0.0522 1.13966,-0.41795 1.70949,-0.35526 0,0.0836 -0.16974,0.12539 0,0.24032 0.13336,-0.25077 1.01841,-0.13583 1.23665,-0.32391 0.21823,0.0836 0.2061,0.29257 0.49708,0.38661 l 0.31522,-0.29257 c 0.87293,-0.68962 2.1702,0 3.3826,-0.37616 -0.0606,0.0731 -0.18186,0.12539 -0.097,0.18808 2.19445,-0.25077 4.40102,-0.34481 6.60758,-0.27167 -0.097,0.094 -0.19398,0.27167 -0.0727,0.39706 0.13336,-0.29257 0.80019,-0.30302 1.40639,-0.32392 0.21823,0.33436 1.01841,-0.18808 1.69736,0 l -0.0727,0.0523 c 0.54558,-0.27167 0.73957,0.25077 1.18816,-0.094 l 0.29097,0.27167 c 0.29098,-0.40751 0.70319,0.28211 1.16391,0.094 v -0.0836 c 0.41221,-0.0836 0.58195,0.17763 0.95779,0.14628 v 0.0522 c 0.86081,0 1.33364,0.29257 1.37002,-0.0418 0.2546,0.30301 -0.84869,0 -0.43647,0.4702 2.87339,0.0627 5.73466,0.37615 8.5353,0.94039 0.29098,0.18808 0.47284,0.26122 0.53346,0.39706 0.44859,0.0522 0.9093,0.0522 1.35789,0 -0.097,0 0.13336,0.20897 0.29097,0.25077 0.47284,0.21942 0.63045,-0.26122 1.15178,0 -0.24248,0.0418 -0.35159,0.13583 -0.29097,0.27167 0.56983,-0.10449 1.1639,-0.10449 1.74585,0 -0.097,0 -0.23035,0.0418 -0.24248,0.14628 0.69107,-0.17763 1.10329,0.27167 1.68524,0.18808 l -0.24248,0.15673 c 0.80019,0.38661 0.3516,-0.35526 1.01842,-0.0731 -0.19399,0 -0.15761,0.11494 -0.20611,0.18808 0.87293,-0.0731 1.75798,-0.0104 2.60666,0.16718 v 0.0836 c 0.78806,0.18808 1.58825,0.32392 2.38843,0.41796 0.27885,0.14628 -0.23036,0.43885 0.58195,0.53289 0.097,-0.38661 1.40639,0.13583 1.01842,-0.39706 0.69107,0.28212 1.43063,0.4702 2.19444,0.57469 -0.35159,0.0731 0.19399,0.53289 -0.37584,0.43885 l 0.3516,0.33436 c -0.10912,0.13584 -0.42434,-0.15673 -0.3516,0.0731 0.47284,0.0209 0.93355,0.094 1.38214,0.19853 0.64257,-0.24032 1.34576,-0.33436 2.03683,-0.30302 -0.43646,0.0627 0.097,0.4702 -0.19398,0.4702 l 1.40638,-0.4493 c 0.29098,0.0418 0,0.30302 0.41222,0.30302 0,-0.10449 0.20611,-0.12539 0.35159,-0.17763 0.15762,-0.0523 1.20028,0.17763 1.2124,0.57468 0.0727,0.18808 -0.48496,0 -0.21823,0.17763 0.52133,0.12539 0.58195,0 1.11541,0.11494 v 0.0522 c 0.33947,0.13583 1.01842,0.0836 0.75169,-0.21943 -0.21823,-0.0731 0,0.25077 -0.3031,0.0522 0.47284,-0.13583 0.99417,-0.13583 1.467,0 -0.19398,0 -0.21823,0.12539 -0.31522,0.20898 0.78806,-0.094 1.58824,-0.094 2.38843,0 0.0606,-0.17763 -0.40009,0.25077 -0.47284,0.13584 0.92143,0.47019 2.18232,0.13583 2.89764,0.68962 -0.15761,0 0,-0.27167 0,-0.20898 0.47284,0.13584 0.37584,0.37616 0.71532,0.35526 0,0.15673 0.41221,0.0418 0.73956,0.0731 0.32735,0.0313 0.0606,0.0836 -0.21823,0 1.15178,0.0209 2.27931,0.21943 3.34623,0.59559 0,-0.10449 0.73956,-0.21943 1.01841,-0.15674 l -0.15761,0.21943 c 0.18186,0.18808 0.80018,0.15673 0.80018,0.35526 0.59408,-0.16718 -2.03683,-0.18808 -1.28514,-0.25077 0.12124,0.24032 1.01842,-0.15673 0.83656,0.12538 0.48496,0.10449 1.01841,-0.0627 1.4185,0.26123 -0.12124,-0.0731 -0.48496,0.22987 -0.097,0.30301 0.7032,0.11494 0.21823,-0.0627 0.81231,0 h 0.37585 c 0.0849,-0.21942 0.6062,0.15673 0.41221,-0.14628 0,0.20897 1.01842,0.0836 0.86081,0.45975 l -0.18186,0.28212 c 0.3031,0.0418 0.58195,-0.20898 0.84868,-0.30302 0,0 0.097,0.10449 0.0727,0.15673 0.16974,-0.4493 0.69107,0.18808 1.15178,-0.10449 0.56983,0.29257 1.564,0.34482 1.78223,0.68963 0.50921,-0.0836 1.03054,-0.0523 1.50338,0.094 -0.12124,0 -0.27885,0 -0.32735,0.094 0.3031,0.19852 0.42434,0.094 0.76381,0.0836 -0.097,0.0627 0.61833,0.39705 0.9578,0.63738 0.50921,-0.0522 0.41221,-0.32392 0.48496,-0.4702 0.32735,0.52244 1.43063,-0.0523 1.8671,0.4702 -0.18186,0 -0.75169,0.094 -0.37585,0.28211 0.32735,0.52245 0.9578,-0.17763 1.61249,0.17763 l -0.0849,-0.4075 c 0.2546,0.29257 1.07903,0 0.92142,0.34481 0.26673,-0.0836 0.81231,0.25077 0.81231,-0.11494 1.09116,0.50155 2.86126,0.26122 3.44322,1.03444 0.16973,-0.0418 0.58195,0.0836 0.54558,-0.10449 -0.24248,-0.25077 -0.41222,0.0836 -0.49709,-0.0836 0.097,0.0105 0.19399,-0.0418 0.23036,-0.12539 0.33947,0.13584 0.61832,0.20898 0.21823,0.45975 0.75169,0.35526 0.9578,-0.49109 1.95197,-0.18808 -0.0849,0.14629 0,0.21943 0.29097,0.25078 l 0.61833,-0.17764 c 0.64257,0.14629 0.3031,0.39706 0.26673,0.65828 0.36372,0 0.80018,0.0836 1.01841,-0.094 l 0.36372,0.38661 c -0.27885,-0.28212 0.32735,-0.12539 0.49709,-0.15673 h -0.16974 c 0,0.12538 0.47284,0.12538 0.67894,0.11493 0,-0.16718 -0.42434,-0.30301 -0.65469,-0.37615 0.20611,-0.0836 0.48496,0 0.75169,-0.11494 -0.13337,0.25077 0.54558,0.26122 0.82443,0.33436 0.27885,0.0731 0.41222,-0.17763 0.49708,-0.15673 0.097,0.0209 0.52134,0.094 0.23036,0.25077 -0.12124,0 -0.21823,-0.16718 -0.42434,-0.0731 0.19398,0.13583 0.12124,0.35526 0.6062,0.25077 0.48496,-0.11494 0,-0.51199 0.6062,-0.26122 -0.18186,0.0418 -0.21823,0.13583 -0.37584,0.20898 l 0.56982,0.21942 0.0727,-0.24032 c 0.0606,0.0731 0,0.0836 0,0.12538 0.21823,-0.21942 0.92142,0.0523 1.10328,-0.20897 0.3031,0 0.6062,0.24032 0.88506,0.30301 v 0 c 0.35159,0.14629 0.77593,0.14629 1.12753,0 v 0.0523 c 0.3031,0.0627 0.61832,0.0418 0.92142,-0.0418 0.44859,0.24033 0,0.87771 0.6062,0.66873 0.48496,0.0522 0.82444,-0.32392 0.6547,-0.50155 0.8608,0.25078 1.91559,0 2.6794,0.4493 0.15762,-0.0836 0.0727,-0.14628 0.3516,-0.17763 1.27302,0.22988 2.76427,0 3.7342,0.57469 -0.38797,0.0627 -0.0606,0.22987 -0.0728,0.36571 0.33947,-0.18808 0.3516,0.25077 0.49709,-0.094 0.15761,-0.34481 0,-0.31347 -0.3031,-0.43885 0.80018,-0.0523 1.61249,0.0522 2.36418,0.30302 -0.20611,-0.11494 0,-0.16719 0.15761,-0.20898 -0.097,0.33436 0.46071,0.41795 0.9093,0.34481 l 0.0849,-0.18808 0.2546,0.24032 c 0.16974,-0.0522 0.23036,-0.41795 0.64257,-0.18807 l 0.097,0.24032 c 0.47283,-0.13584 1.12753,-0.36571 1.58824,-0.13584 l 0.36372,0.32392 c 0.21823,0 0.58195,-0.16718 0.21823,-0.28212 0.80019,0.25077 1.33364,0.30302 1.564,0.57468 1.68524,-0.4284 3.46747,-0.53289 5.2012,-0.30301 l -0.0606,0.15673 c 0.43646,0.15673 0.2546,-0.26122 0.5577,-0.13583 -0.15761,0.13583 0.31523,0.33436 0,0.49109 0.63045,0.18808 0.83656,-0.22987 1.24878,-0.27167 0.0727,-0.19853 -0.33948,0.11494 -0.24248,-0.13583 0.0727,-0.0731 0.8608,0.19852 1.01841,-0.10449 0.15761,0.13583 0,0.35526 -0.0849,0.4702 l 0.3031,0.0731 c 0.46072,0.37616 -1.1154,0.58513 -0.65469,1.05533 h 0.36372 c 0.31522,0.33436 -1.01842,0.31347 -0.0849,0.4702 0.40009,-0.13584 0.77594,-0.55379 0.41222,-0.71052 0.82443,-0.0418 0.42434,-0.71052 1.30939,-0.64783 0.23036,0.18808 -0.70319,0 -0.54558,0.27167 0.41222,0.26122 0.83656,-0.094 1.20028,0 -0.41222,-0.13584 0,-0.4284 0.21823,-0.48065 0.43646,0.15674 -0.29098,0.29257 0.32735,0.33437 0.10911,-0.17763 0.69106,-0.30302 0.2061,-0.42841 0.24248,-0.39705 0.6547,0.13584 1.01842,-0.17763 0.19398,0.29257 -0.66682,0.63738 0,0.79411 -0.097,-0.27167 0.86081,-0.34481 0.50921,-0.75231 0.27885,0.0836 0.29098,0.30301 0.0849,0.4702 0.38797,0.17763 1.01841,-0.4702 1.06691,0.0731 l 0.14549,-0.27167 c 0.12124,0.094 0.29097,0.16718 0.47283,0.32391 0.3516,0 1.11541,-0.35526 1.06692,0.0627 0.10911,-0.0418 0.88505,0 0.6062,-0.30301 -0.48496,-0.18808 -0.55771,0.19853 -0.82444,-0.18808 0.33948,0.32391 0.69107,0 1.01842,-0.13584 v 0.15674 c 0.16974,-0.0523 0.54558,0 0.66682,-0.19853 -0.0727,0.0313 -0.097,0.11494 -0.0606,0.17763 0.0242,0.0418 0.0727,0.0627 0.12124,0.0627 l 0.16974,-0.25077 c 0.66682,-0.11494 0.15761,0.43885 0.81231,0.36571 l -0.49709,0.18808 c 0.10912,-0.0418 0.32735,0.18808 0.64257,0.12538 0.13337,-0.22987 0.36372,-0.49109 0.46072,-0.66872 0.36372,-0.094 0.16973,0.25077 0.54558,0 l -0.48496,0.27167 c -0.0727,0.0731 0.32734,0.36571 0.82443,0.37616 0.32735,-0.0836 0.80018,-0.40751 0.3031,-0.52244 0.2546,0 0.6062,0.12538 0.41222,0.30301 0.5577,-0.0836 -0.0727,-0.24032 0.41221,-0.39705 0.20611,0.14628 0.82443,0.36571 1.20028,0.57468 l -0.49709,0.37616 h 0.3031 c -0.44858,0.30302 0.21824,0.22987 0,0.55379 0.25461,0.0104 0.50921,-0.0418 0.72744,-0.15673 -0.67894,-0.50155 0.75169,-0.70008 0.54558,-1.15983 0.92143,-0.13583 0.60621,1.12848 1.55188,0.38661 -0.15761,-0.12538 0.29097,-0.4702 -0.29098,-0.34481 0.59408,0.0418 0.38797,-0.4702 1.01842,-0.30302 -0.49709,0.19853 0.54558,0.4702 -0.16974,0.75232 0,-0.15673 -0.41221,-0.10449 -0.50921,-0.0627 0.23036,0.16718 0,0.47019 0.54558,0.45975 0.3516,-0.0523 0.86081,-0.0836 0.77594,-0.31347 -0.0849,-0.24032 -0.54558,0.0418 -0.32735,-0.22987 0.71532,-0.11494 0.84868,0.29256 1.12754,-0.18808 -0.25461,0.0522 -0.49709,-0.0836 -0.55771,-0.30302 -0.0121,-0.0313 -0.0121,-0.0627 -0.0121,-0.094 l 0.52133,-0.13583 -0.097,0.18808 c 0.8608,0.094 0.24248,-0.32392 1.01841,-0.30302 l 0.4001,0.34481 c -0.18186,0.30302 -1.20028,-0.10449 -1.01842,0.37616 0.53346,0 0.70319,-0.25077 1.20028,-0.13584 l -0.37585,0.11494 c 0.19399,0 0.41222,0.65828 1.16391,0.25077 0.38796,-0.15673 0.097,-0.17763 0.097,-0.35526 0.8608,-0.0836 1.09116,-0.29256 1.64886,-0.33436 -0.097,0.35526 1.01842,0 0.37585,0.38661 -0.6062,-0.20898 -1.29727,-0.11494 -1.80648,0.22987 0.33947,0.40751 -0.66682,0 -0.84868,0.39706 0.69107,0 0.66682,0.4075 0.80018,0.68962 0.18186,-0.0209 0.3516,-0.0731 0.48496,-0.16718 0.0606,-0.26122 -0.18186,-0.25077 -0.21823,-0.51199 0.67895,0.0522 1.34577,-0.094 1.9156,-0.40751 0.2546,0.12539 0.19398,0.37616 -0.10912,0.40751 0.92142,-0.094 1.84285,-0.12539 2.76427,-0.0836 -0.59407,-0.38661 0.9578,-0.14629 0.54558,-0.48065 -0.47283,-0.0731 -0.88505,-0.34481 -0.64257,-0.54334 0.29098,0 0,0.18808 0.13337,0.26122 0.35159,-0.25077 0.6062,0.33436 0.93354,-0.0418 -0.8123,0.18807 -0.10911,0.52244 -0.2546,0.8777 0.59408,-0.21943 0,0.24032 0.58195,0.19853 0.63045,-0.22988 1.29727,-0.39706 1.97622,-0.50155 0.8608,0.25077 2.1217,-0.13583 2.84914,-0.19853 0.41221,0.13584 0.18186,0.52245 0.6062,0.56424 0.42434,0.0313 -0.41222,-0.37616 0.35159,-0.26122 l -0.0606,0.0836 c 0.21824,-0.094 1.38214,0.14628 1.53975,-0.39706 l -0.19398,0.41796 c 0.14549,0 0.26673,-0.0836 0.36372,-0.13584 0,0.13584 0.19398,0.24033 0,0.34481 0.47283,0.24033 0.95779,-0.12538 1.44276,-0.17763 l -0.33948,-0.20897 c 0.72744,-0.12539 1.47913,-0.18808 2.2187,-0.20898 v 0.22988 l 0.47283,-0.18808 c -0.097,0.24032 0.36372,0.34481 0.6062,0.13583 l -1.20027,0.67918 c -0.36372,-0.10449 0.35159,-0.30302 0.10911,-0.52245 -0.35159,-0.13583 -0.76381,-0.0627 -1.01841,0.18808 0.29097,0 0.3031,-0.0522 0.52133,-0.15673 0.13336,0.31347 -0.3031,0.34481 -0.50921,0.57469 0.15761,0 0.38797,0.0522 0.41222,-0.0522 -0.31523,0.17763 -0.69107,0.27167 -1.07904,0.27167 0.31522,-0.14628 -0.21823,-0.17763 -0.097,-0.28212 0,0.28212 -0.47284,0.40751 -1.09116,0.37616 -0.47284,-0.30301 -1.13966,0.30302 -1.8671,0.26122 0.2546,-0.31346 0.6062,-0.56423 1.01842,-0.72097 -0.46072,-0.11493 -0.49709,0 -1.01842,-0.0731 -0.19398,0.24032 -0.31522,0.57469 -0.88505,0.74187 v -0.21943 c -0.50921,0.14629 -0.48496,0.45975 -1.17603,0.4493 -1.16391,0 -2.35206,0.0523 -3.23711,0.0731 v -0.20897 c -0.44859,0.48064 -1.62462,0.26122 -2.26719,0.50154 -1.13966,-0.14628 -2.44905,0.30302 -3.05525,0 -1.91559,0.28212 -3.84331,0.4284 -5.78315,0.41796 l 0.35159,-0.32392 c -0.36372,0.24032 -0.2546,-0.16718 -0.6062,-0.11494 0.41222,0.25078 -0.48496,0.33437 -0.73956,0.52245 -0.98205,-0.14629 -1.98834,-0.0523 -2.90976,0.26122 v -0.20898 c -0.82443,0.4075 -1.8186,0.0627 -2.83702,0 -0.14549,-0.16718 -0.37584,-0.26122 -0.6062,-0.27167 -0.50921,0.27167 -1.07904,0.4493 -1.67311,0.52244 -0.72744,-0.0104 -1.45488,-0.094 -2.1702,-0.25077 -2.26719,0.4284 -4.5465,0.0418 -6.89856,0.21943 l -0.15761,-0.26123 c -2.30356,0.4493 -5.09209,-0.25077 -7.00768,-0.094 l 0.23036,-0.40751 c -0.59408,-0.16718 -1.39426,0 -1.2609,0.32391 -0.59408,-0.17763 -1.52762,0.0836 -1.87922,-0.30301 -0.6062,-0.13584 -0.77594,0.13583 -1.29727,0.14628 -0.93355,-0.20897 -1.89134,-0.31346 -2.86126,-0.30301 l 0.29097,0.0522 c 0.14549,-0.0836 0.16974,-0.26122 -0.097,-0.31347 -0.44859,0.0731 -1.58825,-0.28211 -1.22453,0.27167 -1.20027,-0.41795 -2.934,-0.0627 -4.07366,-0.57468 0.0849,0.14628 -0.21823,0.13583 -0.36372,0.22987 -0.99417,-0.25077 -2.02471,-0.39705 -3.05525,-0.41795 -0.15761,-0.094 0.31522,-0.19853 -0.13337,-0.27167 -0.27885,0 0,0.17763 -0.36372,0.21943 -1.8186,0.0418 -3.52808,-0.70008 -5.09208,-0.87771 -2.87339,-0.21942 -5.72253,-0.58513 -8.5353,-1.09712 v -0.10449 c -1.01842,0.25077 -2.03683,-0.73142 -2.89764,-0.26122 -0.18186,-0.13584 -0.80018,-0.18808 -0.6062,-0.35526 -0.78806,0.13583 -1.95196,-0.62693 -3.05525,-0.4702 h 0.27885 c -1.01841,-0.40751 -2.03683,-0.28212 -3.05525,-0.68962 0.12124,0 0.3516,0 0.4001,-0.11494 -0.37585,-0.27167 -1.11541,0.21942 -1.22453,-0.30302 -0.2546,-0.0522 -0.24248,0.19853 -0.097,0.21943 -2.48542,-0.56424 -5.00721,-1.01354 -7.56538,-1.33745 -1.69736,-0.68963 0.14549,-0.83591 -1.38214,-0.79411 -0.0849,-0.11494 -0.13336,0.16718 -0.12124,0.0731 -0.59407,0 -0.69107,-0.73142 -1.15178,-0.56424 0.0727,0.33436 -0.29097,0.10449 -0.35159,0.29257 -1.01842,-0.42841 -1.17603,-0.75232 -2.09746,-0.73142 l 0.10912,-0.13584 c -1.13966,0.20898 -2.23082,-0.30301 -3.23711,0 -5.58917,-1.18071 -10.94798,-2.17335 -16.36741,-3.26003 -5.31032,-1.24341 -10.57213,-1.96438 -15.96732,-2.99882 -0.80018,-0.48064 -1.7701,-0.68962 -2.74002,-0.58513 0.0606,-0.0522 0.15761,-0.0522 0.0727,-0.13584 -0.12124,0.33436 -1.01842,-0.0836 -1.17603,0.21943 -2.03683,-0.29257 -3.8918,-0.30302 -5.96501,-0.4911 0.33947,0 0.53346,-0.27167 0.12124,-0.29256 l -0.41222,0.18807 -0.0606,-0.094 c -0.27885,0 -0.58195,0.18808 -0.3031,0.30302 -5.21332,0.10449 -10.36602,-0.70007 -15.48235,-0.094 -1.43064,-0.0104 -2.86127,0.15673 -4.2434,0.4911 -3.89181,-0.11494 -7.77149,0.36571 -11.46932,1.41059 -0.0485,-0.11494 0.13337,-1.07623 1.70949,-1.61957 z"
   id="path378"
   style="stroke-width:1.12553" /><path
   class="st1"
   d="m 724.59456,549.43958 c 0,0 -3.05525,-42.45362 6.1105,-78.33492 11.20259,-44.16722 26.32122,-75.75405 26.32122,-75.75405"
   id="path382" /><path
   class="st2"
   d="m 769.12147,551.21142 c 1.45488,-1.85989 2.75215,-3.81383 3.89181,-5.83045 8.91114,-15.80909 30.2009,-56.83122 30.2009,-56.83122 -7.74724,6.66636 -14.96102,13.77157 -21.56861,21.29473 -5.2012,5.88269 -18.62247,29.85232 -24.9997,41.40873 4.06154,-0.0418 8.22008,-0.0522 12.4756,-0.0418 z"
   id="path384"
   style="stroke-width:1.12553" /><path
   class="st2"
   d="m 709.67231,551.50993 c 9.03239,-1.12847 18.71947,-2.11066 29.04912,-2.84208 -2.81277,-21.47235 -1.80648,-43.18503 2.98251,-64.39617 4.2919,-17.82571 9.97805,-35.3902 17.03423,-52.54719 -10.66913,15.2135 -18.73159,31.68087 -23.93279,48.87965 -6.4136,21.85896 -8.43831,64.80367 -8.43831,64.80367 0,0 -5.64979,-4.75422 -6.32873,-26.64452 -0.66682,-21.89031 5.27394,-77.67664 5.27394,-77.67664 0,0 -10.62063,31.60772 -13.37278,59.1195 -1.97621,19.47663 -2.25507,44.50159 -2.26719,51.30378 z"
   id="path386"
   style="stroke-width:1.12553" /><path
   class="st2"
   d="m 761.37656,549.22912 c 2.46117,-7.96201 6.68032,-22.24557 9.72345,-35.9022 4.55863,-20.40657 25.10882,-68.77423 25.10882,-68.77423 0,0 -13.66376,13.74022 -23.76306,37.30234 -7.2259,16.82263 -28.26106,64.02001 -28.26106,64.02001 0,0 10.11143,-50.48877 17.55557,-74.21807 7.44414,-23.72931 30.21302,-67.02928 30.21302,-67.02928 0,0 -22.33242,24.80554 -35.099,53.10098 -9.60221,21.26338 -30.04329,91.37506 -30.56462,93.07822 10.99647,-0.88815 22.73251,-1.38969 35.08688,-1.57777 z"
   id="path388"
   style="stroke-width:1.12553" /><path
   class="st4"
   d="m 741.97067,424.44165 c 0.42434,-1.04488 7.40776,-20.94991 9.05663,-23.86514 2.36418,-4.14818 7.74724,-2.04797 6.52271,1.89124 -0.92142,2.91523 -7.2259,21.0753 -8.74141,24.51297 -1.96408,4.4512 -9.1415,3.21824 -6.83793,-2.53907 z"
   id="path390"
   style="stroke-width:1.12553" /><path
   class="st8"
   d="m 372.82885,331.58998 c -4.23128,-30.11354 -21.14427,-96.65172 -103.79362,-83.41305 -73.95645,11.89078 -88.43251,47.06156 -88.43251,78.55434 0,1.60913 0.12124,3.22869 0.3516,4.82737 z"
   id="path392"
   style="stroke-width:1.12553" /><path
   class="st9"
   d="m 397.61032,331.58998 c -3.9403,-27.21921 -22.53853,-59.5897 -89.87526,-55.96396 -49.00524,2.63311 -88.99021,23.10238 -88.99021,51.5859 0,1.46284 0.10911,2.93612 0.32734,4.38851 z"
   id="path394"
   style="stroke-width:1.12553" />
<g
   id="Layer_2_00000111874029852034286780000011711378118949670805_"
   transform="matrix(0.93078781,0,0,0.9606694,47.085345,-3.6387124)">
	<g
   id="Layer_1-2_00000022553462961175439370000014579408557323039120_">
		<path
   class="st10"
   d="m 115.2,501.71 c -1.44,4.28 -2.54,8.68 -3.27,13.14 -0.92,6.75 -3.29,15 -2.82,21.75 0.63,8.18 2.63,9.31 5.77,16.69 0.78,1.73 3.13,5.59 4.07,7.16 1.26,2.19 1.28,3.96 3.79,4.12 2.67,0 14.32,0 16.52,0.99 0.35,0.17 0.62,0.44 0.79,0.79 -3.47,0.87 -11.51,-0.14 -15.1,0 2.63,1.75 9.3,3.6 11.49,7.34 -2.19,0.31 -5.58,-1.75 -7.63,-2.7 -2.35,-0.92 -4.59,-2.81 -6.97,-3.6 1.42,2.98 5.8,6.12 5.64,9.74 -6.24,-4.45 -11.76,-17.44 -13.65,-20.73 -1.89,-3.14 -4.22,-9.56 -5.64,-12.7 -1.56,-3.45 -4.85,-2.88 -2.82,-6.97 1.57,-2.97 1.84,-8.32 2.06,-11.83 0.5,-6.67 1.23,-11.93 1.7,-18.56 0.11,-1.75 0.22,-3.51 0.43,-5.24 0.09,-0.77 4.75,1.14 4.9,0.39"
   id="path398" />
		<path
   class="st10"
   d="m 130.54,498.61 c 0.92,11.78 6.88,30.46 7.64,33.1 1.84,6.24 3.87,12.58 7.49,18.08 1.84,2.82 3.48,5.66 4.49,6.11 3.39,1.24 6.93,2.01 10.53,2.29 1.58,0.16 8.19,0.8 8.52,2.84 -1.84,0.79 -5.44,-0.68 -7.47,-0.84 -2.83,-0.31 -5.14,-0.92 -8.04,-1.25 2.27,1.97 10.65,4.32 11.43,8.41 -3.91,-0.96 -10.2,-5.34 -13.49,-7.69 0.79,3.14 6.79,7.44 5.8,10.6 -1.39,-1.57 -3.85,-3.41 -5.93,-6.06 -1.78,-2.36 -3.15,-5.01 -4.05,-7.83 -2.52,-2.83 -5.51,-8.14 -7.4,-11.59 -1.58,-2.98 -1.43,-5.65 -3.48,-8.31 -0.92,-1.27 -2.17,-1.16 -2.81,-2.54 -0.57,-1.21 0.06,-2.08 0.38,-3.8 0.48,-2.83 -1.78,-8.14 -2.75,-10.81 -2.35,-6.42 -3.47,-10.93 -5.36,-17.53 -0.47,-1.73 -1.39,-2.57 -1.7,-4.3 1.73,-0.47 3.91,1.73 5.51,2.51"
   id="path400" />
		<path
   class="st11"
   d="m 138.56,451.77 c -1.69,-7.46 -21.73,-66.07 -15.27,-71.41 1.83,-1.55 4,-2.63 6.33,-3.17 12.26,-2.65 31.74,3.61 35.79,15.88 0.06,0.3 0.06,0.61 0,0.92 -0.06,0.84 -0.33,1.91 -0.38,2.46 -0.21,2.84 -0.32,5.7 -0.43,8.53 -0.17,4.51 -2.6,8.58 -2.86,13.21 -0.13,2.8 -0.04,5.62 0.27,8.41"
   id="path402" />
		<path
   class="st11"
   d="m 162.13,426.56 c 0.38,3.46 1.01,6.86 1.65,10.31 0.92,5.1 1.95,11.11 1.89,16.26 -0.13,8.97 -3.48,18.69 -6.77,27.03 -3.18,8.08 -8.02,16.44 -16.52,19.77 -11.07,4.34 -26.69,8.42 -38.47,6.74 -8.68,-1.38 -17.37,-3.18 -25.85,-4.8 l -1.32,-0.25 c -4.33,-0.72 -13.46,-3.13 -17.56,-4.34 -2.24,-0.64 -8.4,-0.54 -9.01,-3.18 2.26,-0.22 4.59,-0.61 6.84,-0.98 7.02,-1.08 11.2,-5.11 17.13,-8.74 2.37,-1.45 4.68,-2.24 6.89,-4.04 9.78,-7.92 19.43,-17.18 32.23,-19.66 6.25,-1.2 10.57,-2.4 15.83,-6.01"
   id="path404" />
		<path
   class="st12"
   d="m 164.7,404.96 c -0.17,4.51 -2.6,8.58 -2.86,13.21 -0.15,2.8 -0.06,5.62 0.27,8.41"
   id="path406" />
		<path
   class="st12"
   d="m 123.07,380.55 c 1.87,-1.65 4.12,-2.8 6.55,-3.36 12.26,-2.65 31.74,3.61 35.79,15.88 0.06,0.23 0.08,0.47 0.06,0.71"
   id="path408" />
		<path
   class="st12"
   d="m 113.66,460.61 c 4.59,-0.92 7.65,-1.62 11.36,-3.5"
   id="path410" />
		<path
   class="st12"
   d="m 162.13,426.56 c 0.38,3.46 1.01,6.86 1.65,10.31 0.92,5.1 1.95,11.11 1.89,16.26 -0.13,8.97 -3.48,18.69 -6.77,27.03 -3.18,8.08 -8.02,16.44 -16.52,19.77 -11.07,4.34 -26.69,8.42 -38.47,6.74 -8.75,-1.39 -17.48,-3.2 -26.01,-4.83"
   id="path412" />
		<path
   class="st13"
   d="m 123.82,381.65 c -2.06,-3.29 -7.85,-7.88 -11.43,-8.8 1.3,1.03 5.85,5.58 7.04,8.47 -2.63,-1.68 -5.69,-2.56 -8.81,-2.54 6.5,2.17 8.17,5.66 11.29,11.69 0.49,-1.69 4.05,-1.5 4.3,-2.75 0.22,-1.4 -1.36,-4.46 -2.39,-6.07 z"
   id="path414" />
		<path
   class="st13"
   d="m 125.02,457.12 c 1.43,-0.72 2.81,-1.53 4.13,-2.43 7.45,-5.05 2.64,-10.09 0.47,-17.09 -2.03,-6.35 -4.52,-12.55 -7.45,-18.54 -2.65,-5.05 -5.28,-9.62 -6.5,-15.39 -1.26,-5.6 0,-12.85 3.45,-18.35 1.39,2.7 10.36,1.09 15.92,2.3 1.84,0.41 0.92,3.97 2.4,4.32 3.45,0.81 8.1,3.92 5.89,4.28 -9.08,1.4 -12.64,5.7 -12.95,9.98 -1.22,16.52 37.55,37.67 27.61,56.22 -6.27,11.18 -22.6,2.25 -32.97,-5.3 z"
   id="path416" />
		<path
   class="st13"
   d="m 144.45,400.99 c -5.51,1.06 -9.56,-2.89 -10,-8.58 -0.5,-6.42 3.73,-9.03 8.2,-8.65 9.33,0.8 14.11,14.78 1.8,17.23 z"
   id="path418" />
		<path
   class="st14"
   d="m 155.36,409.19 c 2.41,4.33 -4.08,7.45 -5.77,1.19"
   id="path420" />
		<path
   class="st13"
   d="m 50.17,494.09 c 2.25,-0.22 4.59,-0.61 6.84,-0.98 7.01,-1.08 11.19,-5.11 17.11,-8.74 2.37,-1.45 4.68,-2.24 6.89,-4.04 9.78,-7.92 19.41,-17.18 32.23,-19.66 l 0.38,-0.07 c 0.72,0.62 1.39,1.29 2.03,2 3.62,3.61 8.89,8.65 8.65,14.43 -0.24,6.02 -5.51,8.89 -10.33,11.8 -10.23,6.37 -24.31,11.01 -36.38,12.91 -0.28,-0.05 -0.6,-0.11 -0.92,-0.17 -4.34,-0.72 -13.46,-3.12 -17.56,-4.33 -2.13,-0.61 -8.29,-0.51 -8.94,-3.15 z"
   id="path422" />
		<path
   class="st13"
   d="m 179.35,408.5 c -2.96,-0.7 -5.95,-1.38 -8.92,-1.99 -1.4,-0.28 -2.75,-0.57 -4.19,-0.84 -1.13,-0.05 -2.11,-0.83 -2.4,-1.93 -0.44,-1.03 -0.72,-2.13 -0.83,-3.25 -0.11,-1.59 0.24,-3.18 1,-4.59 0.23,-0.46 0.77,-1.71 1.28,-1.9 0.5,-0.19 1.23,0.45 1.73,0.7 2.17,1.09 4.36,2.13 6.57,3.16 4.82,2.21 9.71,4.29 14.61,6.34 10.31,4.28 20.73,8.33 30.82,13.24 -11.79,-3 -24.4,-5.36 -39.67,-8.94 z"
   id="path424" />
		<path
   class="st15"
   d="m 144.09,385.28 c 5.83,1.43 10.78,12.74 -0.39,14.44 -4.24,0.65 -8.1,-3.18 -8.02,-8.33 0.08,-5.15 4.22,-7.14 8.41,-6.11 z"
   id="path426" />
		<path
   class="st13"
   d="m 145.61,393.19 c -2.21,0.43 -2.88,-2.99 -0.68,-3.42 1.65,-0.33 2.86,2.98 0.68,3.42 z"
   id="path428" />
	</g>
</g>

<g
   id="Layer_2_00000090257077045443885030000004350090180245935287_"
   transform="translate(16.527177,37.186147)">
	<g
   id="Layer_1-2_00000149373507157533977220000009152060747957914011_">
		<path
   class="st19"
   d="m 520.39,444.81 c -1.09,-3.66 -0.4,-8.2 1.41,-10.29"
   id="path446" />
		<path
   class="st17"
   d="m 493.75,496.41 c 0,2.59 0.07,6.56 -0.61,8.42 -4,-1 -5.09,1.59 -3.19,2.11 3,0.84 5.23,1.38 5.63,-0.74 0.46,-2.44 1.26,-13 -1.83,-9.79 z"
   id="path448" />
		<path
   class="st20"
   d="m 513.03,448.27 c 1.52,-4.59 8.77,-6.8 14.24,-4.14 4.52,2.27 8.86,4.87 13,7.78 4.31,3.16 9.68,5.52 12.17,10.82 2,4.64 -1.64,10.08 -5.41,12.91 -4.44,3.12 -9.74,4.79 -15.17,4.78 -1.19,1.19 -2.44,3.47 -3.63,4.92 -5.12,6.18 -14.65,11.89 -20.8,13.7 -4.14,1.14 -8.36,1.97 -12.62,2.47 -4.14,0.5 -12,1.53 -16.19,0.55 -6.81,-1.48 -23.09,-6.54 -12.3,-16 4.23,-3.72 14.33,-11.55 17.15,-13.54 2.15,-1.32 16.42,-14.25 19.25,-16.44 4.08,-3.07 8.26,-6.08 10.31,-7.81 z"
   id="path450" />
		<path
   class="st21"
   d="m 502.71,456.08 0.26,-0.21 c 0,0.14 0.08,0.29 0.12,0.43 2,7.47 19.57,19.45 28.05,24.87 -1,1.24 -2,3 -3,4.14 -1.75,2.05 -3.71,3.91 -5.85,5.54 -5.89,-1.32 -11.48,-3.69 -16.53,-7 -6.48,-4.29 -12.15,-9.67 -16.78,-15.91 5.06,-4.37 11.86,-10.45 13.73,-11.86 z"
   id="path452" />
		<path
   class="st21"
   d="m 468.94,483.83 c 4.44,-3.66 10.93,-8.68 13.79,-10.79 -0.01,0.05 -0.01,0.09 0,0.14 2,7.54 20.59,19.92 28,24.61 -1.1,0.49 -2.23,0.91 -3.38,1.26 -4.14,1.14 -8.36,1.97 -12.62,2.47 -1.36,0.17 -3.14,0.38 -5.06,0.57 -1.39,-0.75 -2.85,-1.59 -4.39,-2.56 -6.34,-4.22 -11.87,-9.54 -16.34,-15.7 z"
   id="path454" />
		<g
   class="st22"
   id="g460">
			<g
   class="st22"
   id="g458">
				<path
   class="st23"
   d="m 440.97,473.78 c 7,-2.48 21,-7.62 30.8,-11.11 11.27,-4.14 24.93,-8.47 36.7,-10.79 0,3.49 1.42,8.08 -4.21,17.44 -1.07,1.77 -12.14,15.77 -20,22.72 -1.83,1.62 -16.61,14.81 -26.53,19.16 -12.68,5.54 -32.45,8.21 -40.91,2.55 -1.8,-1.19 -1.54,-6.61 -0.6,-8.87 -0.55,-1.86 -0.55,-3.85 0,-5.71 0.54,-1.27 1.33,-2.42 2.33,-3.38 1,-1.16 0.32,0 0.65,-1.47 0.12,-1.63 0.66,-3.21 1.57,-4.57 1.49,-2.16 2.75,-2.06 4.73,-3.56 2.83,-2.12 7.65,-9.61 15.47,-12.41 z"
   id="path456" />
			</g>
		</g>
		<path
   class="st15"
   d="m 523.06,446.09 c 3.81,0.74 5.54,3.12 6.09,6.4 0.62,3.67 -3.17,6.57 -6.32,6.38 -4.07,-0.2 -7.21,-3.66 -7.01,-7.73 0,-0.07 0.01,-0.13 0.01,-0.2 0.17,-3.47 4.09,-5.67 7.23,-4.85 z"
   id="path462" />
		<path
   class="st13"
   d="m 520.8,451.92 c 0.6,0.05 1.08,0.5 1.19,1.09 0.03,0.58 -0.41,1.09 -1,1.12 -0.03,0 -0.07,0 -0.1,0 -0.72,-0.03 -1.28,-0.64 -1.25,-1.37 0,-0.01 0,-0.02 0,-0.03 0.04,-0.51 0.49,-0.88 0.99,-0.84 0.06,0 0.12,0.01 0.17,0.03 z"
   id="path464" />
		<path
   class="st17"
   d="m 512.08,493.77 c 1.33,-2 2.31,-4 4.8,-3.31 2,0.5 4.16,4 5.32,5.48 1.33,1.66 2.81,4.25 4.14,5.75 2.31,2.66 2.5,-1.92 5.15,-0.5 1,0.57 -2.82,4.47 -4.65,4.31 -1.15,-0.17 -3.14,-3.28 -4.07,-4.64 -2,-3 -6,-8.16 -7,-8 -1.34,0.27 -1.86,2.31 -3.69,0.91 z"
   id="path466" />
		<path
   class="st17"
   d="m 504.93,496.82 c -5.78,-3.12 -6.16,-0.29 -5.28,4 0.83,4 2.78,9.25 2.59,9.41 -1.49,0.06 -2.89,0.73 -3.88,1.84 -0.59,1 0.19,2 1.46,1.54 2.78,-0.91 5.79,-0.36 4.85,-3.38 -1.17,-3.86 -2.14,-7.79 -2.9,-11.75 -0.24,-1.31 3.42,1.16 3.16,-1.66 z"
   id="path468" />
		<path
   class="st17"
   d="m 522.72,485.56 c 1.46,-8.29 7.35,-2.47 10,0.82 2.39,3 3.2,4.45 4.68,4.78 1.33,0.33 4.06,-2.84 4.77,-0.55 0.53,1.74 -3,4.09 -4.7,3.59 -2,-0.5 -3,-2.11 -4.14,-3.49 -1.43,-1.85 -2.98,-3.6 -4.65,-5.24 -0.93,-0.9 -1.74,-2 -2.91,-1.64 -1.02,0.34 -1.57,3.21 -3.05,1.73 z"
   id="path470" />
		<path
   class="st19"
   d="m 517.83,445.21 c -2.13,-3.11 -8.55,-7.27 -11.21,-7.77"
   id="path472" />
		<path
   class="st24"
   d="m 440.97,473.78 c 7,-2.48 21,-7.62 30.8,-11.11 11.27,-4.14 24.93,-8.47 36.7,-10.79 0,3.49 1.42,8.08 -4.21,17.44 -1.07,1.77 -12.14,15.77 -20,22.72 -1.83,1.62 -16.61,14.81 -26.53,19.16 -12.68,5.54 -32.45,8.21 -40.91,2.55 -1.8,-1.19 -1.54,-6.61 -0.6,-8.87 -0.55,-1.86 -0.55,-3.85 0,-5.71 0.54,-1.27 1.33,-2.42 2.33,-3.38 1,-1.16 0.32,0 0.65,-1.47 0.12,-1.63 0.66,-3.21 1.57,-4.57 1.49,-2.16 2.75,-2.06 4.73,-3.56 2.83,-2.12 7.65,-9.61 15.47,-12.41 z"
   id="path474" />
		<path
   class="st24"
   d="m 418.79,495.55 c 3.49,0.83 17.81,0.45 20.47,-0.56 5.32,-2.15 27.61,-13.87 32.91,-17.51 6,-4 31,-21.16 35.65,-25.47"
   id="path476" />
		<path
   class="st24"
   d="m 416.21,504.88 c 5.15,2.33 16.63,1.59 22.12,0.76 6.3,-1 8.91,-1.69 14.71,-4.5 4.8,-2.49 13.9,-6.87 20.94,-12.1 9.58,-7.09 21.7,-16.33 34.63,-33.22"
   id="path478" />
		<path
   class="st24"
   d="m 424.67,486.81 c 11.69,-0.69 31.65,-0.69 43,6.2"
   id="path480" />
		<path
   class="st24"
   d="m 440.89,486.52 c 3.48,-1.66 6.82,-5.23 9,-8.21 2.11,-2.77 3.61,-5.96 4.39,-9.36"
   id="path482" />
		<path
   class="st24"
   d="m 453.16,488.02 c 3.42,-3.33 6.14,-7.31 8,-11.7 1.56,-3.61 2.82,-7.34 3.76,-11.16"
   id="path484" />
		<path
   class="st24"
   d="m 463.57,469.8 c 6.09,3.1 12.22,3.66 15.5,3"
   id="path486" />
		<path
   class="st24"
   d="m 477.74,460.55 c 4.67,2.47 10.01,3.37 15.23,2.59"
   id="path488" />
		<path
   class="st24"
   d="m 443.51,504.88 c 3,4 12,5.66 15.67,5.66"
   id="path490" />
		<path
   class="st24"
   d="m 477.74,486.52 c 3.15,1.41 6.55,2.16 10,2.21"
   id="path492" />
		<path
   class="st24"
   d="m 438.21,495.5 c -1.83,2.26 -1.62,7 0.12,10.14"
   id="path494" />
		<path
   class="st24"
   d="m 485.15,468.95 c 0,2.75 0.73,7.63 3,8.58"
   id="path496" />
		<path
   class="st19"
   d="m 537.28,474.6 c -0.29,0.93 -1.66,2.17 -3.9,1.77 -1.77,-0.32 -3.23,-1.59 -3.78,-3.31"
   id="path498" />
		<path
   class="st21"
   d="m 544.11,454.53 c 0,0 -0.52,12.16 5.17,11.18 1.31,-0.17 2.56,-0.65 3.65,-1.4 0.73,-2.35 -0.02,-4.92 -1.9,-6.51 -1.97,-1.7 -4.36,-2.83 -6.92,-3.27 z"
   id="path500" />
	</g>
</g>
<g
   id="Layer_2_00000179620504358190754980000002801280825154288795_"
   transform="matrix(0.88975225,0,0,0.88455963,23.924433,-28.45088)">
	<g
   id="Layer_1-2_00000067209527656394081470000005258754102228145591_">
		<path
   class="st13"
   d="m 314.15,241.97 c 0.56,0.23 1,-1.19 1.34,-2 -4,-7.51 -9.77,-13.95 -17.22,-13.31 4,1.62 7.24,3.28 10.32,6.88 2.15,2.6 4.01,5.43 5.56,8.43 z"
   id="path504" />
		<path
   class="st13"
   d="m 320.67,237.27 c -0.71,-7 -3.7,-17.43 -9.61,-20.76 1.97,3.04 3.61,6.29 4.87,9.69 1.31,4.02 2.15,8.18 2.49,12.4 0.96,-0.56 2.25,0.05 2.25,-1.33 z"
   id="path506" />
		<path
   class="st17"
   d="m 281.75,287.35 c -2.8,6.73 -3.62,35.56 -4.05,40.74 -0.48,5.75 0,7 -2.42,7.16 -4.11,0.29 -6.71,2.66 -1.34,2.87 2,0.2 4.35,0.75 6.24,-0.33 0.91,-6 1.52,-15 2.3,-23.71 0.34,-3.75 0.16,-19.73 2.61,-21.69 5.06,-4.48 12.66,12.12 15.48,15.29 2.3,2.53 6.63,6.13 6.41,0.4 -0.14,-3.12 -3.23,-7 -4.85,-9.36 -1.34,-1.89 -15.68,-22.87 -20.38,-11.37 z"
   id="path508" />
		<path
   class="st17"
   d="m 278.27,320.1 c -0.86,0.25 -1.68,0.63 -2.44,1.11 -0.32,0.23 -0.62,0.5 -0.87,0.81 0.53,-0.23 1.08,-0.38 1.65,-0.46 0.61,0 0.55,0.4 0.55,0.4 -0.53,0.19 -1.03,0.43 -1.5,0.74 -0.47,0.42 -0.88,0.91 -1.21,1.45 0.69,-0.35 1.4,-0.66 2.12,-0.93 0.65,-0.18 0.75,0.26 0.75,0.26 -0.9,0.41 -1.72,0.99 -2.4,1.71 -0.31,0.41 -0.56,0.85 -0.77,1.32 0.69,-0.66 1.53,-1.14 2.46,-1.37 1.59,-0.41 1.79,0.12 1.79,0.12 z"
   id="path510" />
		<path
   class="st17"
   d="m 263.39,312.37 c -5.86,-1 -11.6,-2.78 -16.33,-7.22 2.83,8.89 10.33,9.58 16.49,10.69 -3.88,3.15 -15.4,0.49 -20.4,-1.24 3.2,4.73 9.59,5.57 12.9,5.57 2.37,0 6.63,-0.28 8.52,-2 2.38,-2.18 2.14,-5.24 -1.18,-5.8 z"
   id="path512" />
		<path
   class="st17"
   d="m 342.28,269.19 c -3.23,2.81 -5.46,2.92 -8.7,3.86 -1.61,0.46 -0.88,0.17 -1.41,2.05 -0.79,3.58 -3.29,11.29 -4.13,14.94 -1.43,6.29 -3,14.23 -6.89,20.14 -2,3.26 -10.52,10.45 -14,12.33 -4.77,2.64 -14.19,5.2 -20.86,4.44 -8.07,-0.94 -15,-4.51 -20.92,-9.19 -1.42,-1.25 -3.22,-3.33 -3.65,-5.66 -0.67,-2.8 4.91,-5.55 6.63,-7 1.85,-1.71 10.32,-7.1 11.63,-8.34 3.59,-3.58 15.22,-16.8 17.59,-20.7 2.37,-3.9 3.71,-8.86 5.82,-13.05 1.86,-3.58 3.32,-7.31 5.43,-10.73 0.61,-1.21 1.44,-2.29 2.45,-3.19 1.17,-9.78 5.88,-12.33 9.48,-13.16 5,-1.25 11.78,3.6 16,6.24 10.58,6.73 18.4,22.07 5.53,27.02 z"
   id="path514" />
		<path
   class="st25"
   d="m 315.44,273.18 c -2.44,7.48 -11.59,29.46 -23.18,37.25 -4.74,3 -10.42,4.45 -16.1,5 -3.08,0.27 -12.31,1.38 -14.91,-2 -2.6,-3.89 9.23,-10.84 12.06,-13.35 5.92,-5.56 16.35,-13.93 21.06,-21.12 6.11,-9.32 8.51,-16.28 10.18,-18.3 1.9,-2.21 12.24,8.47 10.89,12.52 z"
   id="path516" />
		<path
   class="st26"
   d="m 332.84,276.06 c -8.39,-5.26 -16.14,-11.48 -23.08,-18.55 -0.66,-0.62 -1.33,-1.71 -2,-2.18 -1.46,-1.08 -0.92,-0.93 -2.25,0.31 -1.86,1.72 -3.17,4 -2.38,6.38 0.79,2.38 3.52,3.63 5,5.28 4.21,4.62 18.53,13.71 20.52,14.32 1.72,0.62 1.86,0.78 2.51,-0.76 0.79,-1.51 1.35,-3.13 1.68,-4.8 z"
   id="path518" />
		<path
   class="st4"
   d="m 276.67,289.51 c -3.79,6.67 -8.16,37.12 -9.26,42.51 -1.21,6 -0.83,7.42 -3.43,7.2 -4.41,-0.39 -7.45,1.7 -1.77,2.81 2.12,0.56 4.51,1.53 6.66,0.7 1.69,-6.25 3.44,-15.71 5.32,-24.76 0.81,-3.93 2.56,-20.9 5.41,-22.57 5.91,-3.89 11.94,14.91 14.55,18.81 2.12,3 6.27,7.6 6.74,1.49 0.23,-3.33 -2.58,-8 -4,-10.73 -1.17,-2.2 -13.83,-26.87 -20.22,-15.46 z"
   id="path520" />
		<path
   class="st4"
   d="m 324.59,290.01 c 7.16,0 10.65,-2.78 16.56,-7.5 3.08,-2.49 3.89,-4 6.25,-0.14 1.42,2.22 3.32,7.22 -0.48,6.11 -0.94,-0.27 -0.71,-3 -2.13,-3.33 -1.18,-0.27 -8.75,6.11 -11.59,7 -2.56,0.93 -5.28,1.31 -8,1.11 -2.65,-0.62 -5.11,-3.25 -0.61,-3.25 z"
   id="path522" />
		<path
   class="st15"
   d="m 323.61,241.97 c 5.56,6.06 -0.69,15.78 -7,8.84 -5.32,-5.88 2.33,-13.91 7,-8.84 z"
   id="path524" />
		<path
   class="st4"
   d="m 315.92,305.99 c 2.73,6.84 10.48,10.17 17.32,7.45 0.12,-0.05 0.23,-0.1 0.35,-0.15 3.08,-1.39 6.76,-3 8.31,2.08 1.55,5.08 0.63,6.06 -0.27,6.52 -1.47,0.77 -2,-1.5 -3.46,-6.16 -3.34,0.34 -7.06,2.37 -10.85,2.46 -8.8,0.21 -17.86,-12.18 -16,-15.84 1.64,-3.35 3.33,0.52 4.6,3.64 z"
   id="path526" />
		<path
   class="st27"
   d="m 341.54,269.07 c -1.35,0.01 -2.67,-0.33 -3.84,-1 -2.66,-1.45 -3.38,-5.84 -3.38,-5.84"
   id="path528" />
		<path
   class="st13"
   d="m 322.07,244.31 c 0.52,0.08 0.92,0.48 1,1 0.04,0.54 -0.36,1.02 -0.9,1.07 -0.64,-0.09 -1.09,-0.68 -1,-1.32 0,0 0,-0.01 0,-0.01 0,-0.41 0.33,-0.75 0.74,-0.76 0.06,0 0.11,0.01 0.16,0.02 z"
   id="path530" />
		<path
   class="st4"
   d="m 268.99,323.65 c -0.94,0.12 -1.85,0.38 -2.72,0.76 -0.36,0.19 -0.7,0.44 -1,0.72 0.59,-0.15 1.2,-0.22 1.81,-0.2 0.64,0.09 0.54,0.51 0.54,0.51 -0.59,0.11 -1.16,0.29 -1.7,0.54 -0.55,0.37 -1.04,0.82 -1.45,1.34 0.77,-0.26 1.56,-0.47 2.36,-0.63 0.73,-0.08 0.76,0.4 0.76,0.4 -1.01,0.29 -1.95,0.77 -2.77,1.42 -0.38,0.36 -0.72,0.76 -1,1.2 0.82,-0.58 1.79,-0.93 2.79,-1 1.73,-0.17 1.88,0.42 1.88,0.42 z"
   id="path532" />
		<path
   class="st28"
   d="m 326.27,298.22 c -7.54,0.43 -14.28,-4.25 -18.92,-10.09"
   id="path534" />
		<path
   class="st28"
   d="m 314.46,317.08 c -8.13,0.07 -15,-6.7 -18,-14.22"
   id="path536" />
		<path
   class="st28"
   d="m 291.82,326.94 c -5,-2.07 -9.27,-11.54 -9.27,-19.78"
   id="path538" />
	</g>
</g>
<g
   id="Layer_2_00000110468990496106525270000013813786604266136754_"
   transform="translate(42.610431,-26.670529)">
	<g
   id="Layer_1-2_00000097457989784739307300000017766683811731490961_">
		<path
   class="st29"
   d="m 426.06,238.5 c 2.13,-3.79 5.21,-6.96 8.93,-9.2 3.11,-1.94 7.02,-2.06 10.26,-0.34 2.85,1.61 2.92,5.87 3.14,8.69 0.9,11.36 -3,23.22 -4.33,34.29 0,0.35 0.27,0.63 0.62,0.64 0.31,0 0.57,-0.22 0.63,-0.52 0.92,-7.76 3.51,-16.84 4.28,-24.65 0.45,-4.72 1.37,-13.51 -1.8,-17.58 -3.35,-4.33 -8.85,-3.93 -13.33,-1.67 -3.44,1.72 -8.35,6.76 -9.59,10.46 -0.09,0.27 0,0.56 0.22,0.74 0.08,0.07 0.46,0.14 0.97,-0.86 z"
   id="path542" />
		<path
   class="st29"
   d="m 411.01,267.17 c 0.51,-9.03 15.73,-29.98 25.73,-19.67 3.6,3.74 4.91,10.31 4.48,15.3 -0.19,2.16 -1.27,8 -0.29,10.06 0.36,0.72 1.5,0.19 1.14,-0.53 -1,-2 0.3,-8.29 0.48,-10.36 0.14,-2.77 -0.26,-5.55 -1.17,-8.17 -1.16,-3.81 -3.66,-9 -8,-9.91 -5.78,-1.15 -9.64,1.42 -13.64,5.3 -4.37,4.31 -9.63,11.53 -10,17.87 0,0.79 1.21,0.92 1.27,0.11 z"
   id="path544" />
		<path
   class="st13"
   d="m 445.8,229.11 c -1.77,0.89 -3.07,2.48 -3.6,4.39 -1.21,3.56 2.54,7.41 5.54,7.43 4.55,0 8,-3.28 6.94,-8.19 -1.06,-4.91 -6.41,-5.01 -8.88,-3.63 z"
   id="path546" />
		<path
   class="st13"
   d="m 420.31,245.5 c -5,0.52 -8.36,6.93 -5.1,11.5 2.47,3.47 6.84,2.64 9.23,1.34 2.39,-1.3 2.87,-4 2.86,-6.78 -0.33,-3.57 -3.41,-6.25 -6.99,-6.06 z"
   id="path548" />
		<path
   class="st29"
   d="m 469.56,272.57 c -3.25,-0.24 -6.51,-0.31 -9.76,-0.21 -3,0.07 -5.8,0.83 -8.81,0.54 -3.68,-0.33 -5.86,-2.21 -9.47,-3.23 -8.23,-2.1 -13.34,2.17 -17.35,9.22 -2.43,4.49 -7.6,13.14 -6.43,18.97 1.19,5.51 2.77,2.94 5.41,-0.18 3,-3.11 3.74,-4.05 8.17,-4.65 6.73,-1.03 13.52,-1.54 20.33,-1.53 8.55,-0.29 17.06,0.73 25.57,1.37 5.16,0.38 10.34,0.47 15.48,0.94 3.59,0.32 7.21,0.45 10.8,0.58 4.33,0.15 8.67,0.08 13,0.23 2.63,0.08 5.28,0 7.92,0 2.13,0 4.21,-0.18 6.31,-0.37 3.56,-0.35 16.19,0.21 17.56,-4 1.37,-4.21 -10.22,-8.39 -13.44,-9.71 -9.4,-3.89 -19.8,-4.5 -29.86,-5.08 -11.75,-0.4 -24.81,-1.25 -35.71,-3.59"
   id="path550" />
		<path
   class="st15"
   d="m 438.15,271.73 c -5.35,-0.81 -10.39,6.26 -5.66,10.36 3.09,2.83 7.4,1.15 9.14,-2.2 2.27,-3.95 -1.6,-8.03 -3.48,-8.16 z"
   id="path552" />
		<path
   class="st13"
   d="m 435.55,276.23 c -1.17,-0.18 -2.28,1.37 -1.24,2.27 0.55,0.45 1.36,0.37 1.81,-0.18 0.08,-0.09 0.14,-0.2 0.19,-0.31 0.31,-0.63 0.06,-1.39 -0.57,-1.7 -0.06,-0.04 -0.13,-0.06 -0.19,-0.08 z"
   id="path554" />
		<path
   class="st13"
   d="m 466.33,272.78 c 0.23,6.76 1.35,11.51 8.47,12.83 7.29,1.34 20,3.87 27.22,3.52 8.79,-0.38 17.37,2.15 26.21,1.44 6.69,-0.64 13.41,-0.93 20.13,-0.87 -1.33,-3.82 -5.15,-6.37 -8,-9 -2.81,-2.44 -5.64,-4.72 -8.79,-7 -7.11,-5.19 -15,-5.75 -23.26,-7.34 -8.44,-1.62 -16.65,-2.19 -25.21,-0.61 -5,0.9 -14.11,1.42 -16.76,6.4 l -0.46,0.11 z"
   id="path556" />
		<path
   class="st30"
   d="m 455.8,302.41 c 0.24,-4.09 1.15,-8.11 2.69,-11.91 0.45,-0.83 1.28,-3.21 2.59,-2.73 1,0.34 0.39,2.5 1.17,3.3 1.11,1.34 2.28,0.71 2.67,-0.87 0.23,-1.2 -0.51,-2.5 -1,-3.66 -2.93,-7 -7.25,-0.16 -8.48,3.91 -1.26,4.33 -1.94,9.06 -3.54,13.24 -1.5,-1.13 -3.94,-1.48 -5.31,0.13 -1.92,2.17 1,2.18 2.75,2.22 2.68,0.09 5.95,1.36 6.46,-3.63 z"
   id="path558" />
		<path
   class="st30"
   d="m 488.98,284.86 c -0.86,1.4 -7,11 -2,10 2.76,-0.5 3,-4.41 4.15,-6.28 1.15,-1.87 4.2,-5.67 6.9,-4.06 3.27,2 1.09,10.18 0.57,13.2 -0.45,2.3 -0.69,8.1 -0.59,5.77 0,0 -1.43,5.1 1.9,6.55 1.71,0.72 6.59,2.54 7.11,-0.49 0.48,-2.67 -3.76,-2.62 -5.47,-2.77 0.08,-3.44 0.63,-5.49 0.69,-7.7 0.1,-2.45 0.09,-5 0.33,-7.61 0.42,-4.65 -1.2,-12.68 -7.78,-10.69 -2.2,0.94 -4.18,2.33 -5.81,4.08 z"
   id="path560" />
		<path
   class="st30"
   d="m 526.74,276.09 c 7.17,1 5.23,10.21 4.18,14.93 -1.25,5.07 -2.13,10.22 -2.63,15.42 2.06,0.31 5.56,-1.59 7,0.5 2,3 -3.14,4.77 -5.22,4.7 -3.2,-0.17 -5.41,-0.12 -5.58,-3.71 0.04,-2.91 0.26,-5.82 0.66,-8.7 0.43,-3.42 1.02,-6.83 1.79,-10.19 0.28,-1.71 2.21,-6.71 0.23,-8 -2.22,-1.31 -6.57,3.1 -7.93,4.59 -1.9,2 -3,5 -4.81,7 -3.14,3.42 -3.22,-2.52 -2.3,-4.53 0.9,-2.24 2.27,-4.26 4,-5.94 3.04,-2.83 7.71,-6.48 10.61,-6.07 z"
   id="path562" />
		<path
   class="st27"
   d="m 427.12,293.73 c 3.58,-3.16 2.47,-6 2.47,-6"
   id="path564" />
	</g>
</g>

</svg>
