<?xml version="1.0" encoding="utf-8"?>
<!-- Generator: Adobe Illustrator 26.2.1, SVG Export Plug-In . SVG Version: 6.00 Build 0)  -->
<svg version="1.0" id="Capa_1" xmlns="http://www.w3.org/2000/svg" xmlns:xlink="http://www.w3.org/1999/xlink" x="0px" y="0px"
	 viewBox="0 0 1024 652.7" style="enable-background:new 0 0 1024 652.7;" xml:space="preserve">
<style type="text/css">
	.st0{fill:#EAE7E2;}
	.st1{fill:#CAC2B8;}
	.st2{fill:#33AD69;}
	.st3{fill:#1E8C51;}
	.st4{fill:#FFDE11;}
	.st5{fill:#F3920D;}
	.st6{fill:#9E988F;}
	.st7{fill:#DCD9CD;}
	.st8{fill:#ACA89D;}
	.st9{fill:#C5C1B5;}
	.st10{fill:#AA551A;}
	.st11{fill:#814316;}
	.st12{fill:#6D6A55;fill-opacity:0.42;}
	.st13{fill:#E2131B;}
	.st14{fill:#030304;}
	.st15{fill:#FFFFFF;}
	.st16{fill:none;stroke:#E2131B;stroke-width:1.9436;stroke-linecap:round;}
	.st17{fill:none;stroke:#DCD9CD;stroke-width:0.2791;}
	.st18{fill:#DBD0BF;}
	.st19{fill:#04A0A4;}
	.st20{fill:#E20E18;}
	.st21{fill:none;stroke:#F39208;stroke-width:0.8994;stroke-miterlimit:10;}
	.st22{fill:#F39208;}
	.st23{fill:none;stroke:#A95419;stroke-width:0.4962;}
	.st24{opacity:0.49;}
	.st25{clip-path:url(#SVGID_00000101800540754520191460000016173562824489665153_);fill:#4A493E;}
	.st26{clip-path:url(#SVGID_00000018231752668547886900000017936450662571127208_);fill:#4A493E;}
	.st27{clip-path:url(#SVGID_00000032626827337441002400000011603284956990563259_);fill:#4A493E;}
	.st28{clip-path:url(#SVGID_00000163792320232011618300000006312092432727717544_);fill:#4A493E;}
	.st29{clip-path:url(#SVGID_00000155853883393461246470000000734492272514273978_);fill:#4A493E;}
	.st30{clip-path:url(#SVGID_00000170980762702952109450000015059861507108932784_);fill:#4A493E;}
	.st31{clip-path:url(#SVGID_00000170277840529444791060000003102603378263172248_);fill:#4A493E;}
	.st32{clip-path:url(#SVGID_00000054227154994050057900000005274745233607695258_);fill:#4A493E;}
	.st33{clip-path:url(#SVGID_00000072276414604047105300000009909087340702624668_);fill:#4A493E;}
	.st34{clip-path:url(#SVGID_00000138546572084622620760000005272176239927202488_);fill:#4A493E;}
	.st35{clip-path:url(#SVGID_00000140729734464697415370000007566034231717675407_);fill:#4A493E;}
	.st36{fill:#E4830A;}
	.st37{fill:#020203;}
	.st38{fill:#464545;}
	.st39{fill:#FAB51C;}
</style>
<g id="Layer_2_00000040548942392511362990000001429898183582056374_">
	<g id="Layer_1-2_00000008855595808439794470000011634709504437966472_">
		<path class="st0" d="M802.5,219.3c0,0,86,5.6,86-35.9s-19-72.3-53.7-69.7c-34.7,2.6-43.6,14.9-43.6,14.9s11.2-35.9-22.3-42.5
			c-33.5-6.7-35.8,27.7-35.8,27.7s-22.2-30-48-9.8c-25.7,20.2-29,48.4-29,48.4s-26.9-34.4-51.5,0c-24.6,34.4-16.7,70.2,17.9,72.5
			C657,227.2,802.5,219.3,802.5,219.3z"/>
		<path class="st1" d="M1005.1,149.7c-0.1-6-2.3-55.7-39.1-71.3s-68.2,21.1-68.2,21.1s-4.4-68.6-49.2-60.5
			c-44.7,8.2-43.4,47.1-43.4,47.1s-14.7-23.7-39.1-15.6c-27.1,8.9-22.3,33.8-22.3,33.8s-15-18.2-37.2-4.8
			c-22.2,13.3-34.3,36.7-28.6,62.3s27.8,59.1,163.7,46.8C977.3,196.5,1005.7,192,1005.1,149.7z"/>
	</g>
</g>
<g>
	<path class="st2" d="M-9.1,596.8c0,0,502.8-129.5,744-176.3c209.5-40.5,286.9,198.1,286.9,198.1l-150.4,24.8l-887.4,71.9
		L-9.1,596.8z"/>
	<path class="st3" d="M940.3,511.9c0,0-132.6-25.9-272.8-31.9C527.2,474,268,540.3,268,540.3l-5.3,119.2H1024
		C1020,606.4,1021.6,548.3,940.3,511.9z"/>
	<g>
		<path class="st4" d="M627.9,441.6c0.1,0.1,0.7,2.8-0.4,5.2c-0.7,1.7-2.2,3-3.9,3.6c-0.5-1.7-0.4-3.6,0.4-5.2
			C625.1,442.8,627.7,441.5,627.9,441.6z"/>
		<path class="st4" d="M617.1,442.4c-0.1,0.1-0.4,3,1.2,5.1c1.1,1.5,2.6,2.6,4.3,3c0.2-1.8-0.1-3.6-1.2-5.1
			C620.5,443.9,618.9,442.8,617.1,442.4z"/>
		<path class="st4" d="M622,434.8c0.1,0,2.1,2,2.3,4.7c0.1,1.8-0.4,3.6-1.6,5c-1.4-1.3-2.1-3-2.3-4.7
			C620.2,437.2,621.7,434.9,622,434.8z"/>
		<path class="st4" d="M628.4,447.8c0.1,0.1,0.7,2.8-0.4,5.2c-0.7,1.7-2.2,3-3.9,3.6c-0.5-1.7-0.4-3.6,0.4-5.2
			C625.6,449,628.2,447.7,628.4,447.8z"/>
		<path class="st4" d="M617.6,448.7c-0.1,0.1-0.4,3,1.2,5.1c1.1,1.5,2.6,2.6,4.3,3c0.2-1.8-0.1-3.6-1.2-5.1
			C620.5,449.3,617.7,448.6,617.6,448.7z"/>
		<path class="st4" d="M628.8,454c0.1,0.1,0.7,2.8-0.4,5.2c-0.7,1.7-2.2,3-3.9,3.6c-0.5-1.7-0.4-3.6,0.4-5.2
			C626.1,455.1,628.7,453.9,628.8,454z"/>
		<path class="st4" d="M618.1,454.8c-0.1,0.1-0.4,3,1.2,5.1c1.1,1.5,2.6,2.5,4.3,3c0.2-1.8-0.1-3.6-1.2-5.1
			C621,455.5,618.3,454.8,618.1,454.8z"/>
		<path class="st4" d="M624.7,429.6h-0.4l0.6,8.7h0.4L624.7,429.6z"/>
		<path class="st4" d="M626.2,431.4h-0.4l0.7,8.7l0.4-0.1L626.2,431.4z"/>
		<path class="st4" d="M627.6,433.2h-0.4l0.6,7.8l0.4-0.1L627.6,433.2z"/>
		<path class="st4" d="M619.4,438.8l-0.6-8.7h0.4l0.6,8.7H619.4z"/>
		<path class="st4" d="M618.1,432h-0.4l0.7,8.7h0.4L618.1,432z"/>
		<path class="st4" d="M617,441.8l-0.6-7.8l0.4-0.1l0.6,7.8H617V441.8z"/>
		<path class="st4" d="M623.2,427.7l-0.4,0.1l0.5,7.4h0.4L623.2,427.7z"/>
		<path class="st4" d="M620.5,427.8h-0.4l0.5,7.4l0.4-0.1L620.5,427.8z"/>
		<path class="st4" d="M621.6,425.8h-0.4l0.5,7.4h0.4L621.6,425.8z"/>
		<path class="st5" d="M624.5,463.8h-0.6l1.7,21.6l0.6-0.1L624.5,463.8z"/>
		<path class="st5" d="M625,475c-0.2-0.7,1.9-8.5,4.1-10C628.4,470.3,626.7,473.3,625,475z"/>
		<path class="st5" d="M625.2,478.1c0.1-0.7-3.3-8.1-5.5-9.3C621.2,473.7,623.3,476.5,625.2,478.1z"/>
		<path class="st5" d="M625.6,462.4c0,0.1,0.1,0.1,0.1,0.3c0.1,0.8-0.6,1.7-1.5,1.7c-0.8,0.1-1.7-0.5-1.7-1.4l0,0c0-0.1,0-0.1,0-0.3
			L625.6,462.4z"/>
		<path class="st4" d="M610.4,443c0.1,0.1,0.7,2.8-0.4,5.2c-0.7,1.7-2.2,3-3.9,3.6c-0.5-1.7-0.4-3.6,0.4-5.2
			C607.8,444.1,610.3,442.9,610.4,443z"/>
		<path class="st4" d="M599.7,443.7c-0.1,0.1-0.4,3,1.2,5.1c1.1,1.5,2.6,2.6,4.3,3c0.2-1.8-0.1-3.6-1.2-5.1
			C602.6,444.6,599.9,443.7,599.7,443.7z"/>
		<path class="st4" d="M604.5,436.2c0.1,0,2.1,2,2.3,4.7c0.1,1.8-0.4,3.6-1.6,5c-1.4-1.3-2.1-3-2.3-4.7
			C602.8,438.5,604.4,436.2,604.5,436.2z"/>
		<path class="st4" d="M610.9,449.1c0.1,0.1,0.7,2.8-0.4,5.2c-0.7,1.7-2.2,3-3.9,3.6c-0.5-1.7-0.4-3.6,0.4-5.2
			C608.3,450.2,610.6,449.1,610.9,449.1z"/>
		<path class="st4" d="M600.2,449.9c-0.1,0.1-0.4,3,1.2,5.1c1.1,1.5,2.6,2.6,4.3,3c0.2-1.8-0.1-3.6-1.2-5.1
			C603,450.7,600.3,449.8,600.2,449.9z"/>
		<path class="st4" d="M611.3,455.4c0.1,0.1,0.7,2.8-0.4,5.2c-0.7,1.7-2.2,3-3.9,3.6c-0.5-1.7-0.4-3.6,0.4-5.2
			C608.3,457.3,609.6,456,611.3,455.4z"/>
		<path class="st4" d="M600.6,456.1c-0.1,0.1-0.4,3,1.2,5.1c1.1,1.5,2.6,2.5,4.3,3c0.2-1.8-0.1-3.6-1.2-5.1
			C603.5,457,600.8,456,600.6,456.1z"/>
		<path class="st4" d="M607.3,430.9h-0.4l0.7,8.7h0.4L607.3,430.9z"/>
		<path class="st4" d="M608.7,432.6h-0.4l0.7,8.7h0.4L608.7,432.6z"/>
		<path class="st4" d="M610.1,434.4h-0.4l0.6,7.8h0.4L610.1,434.4z"/>
		<path class="st4" d="M601.7,431.3h-0.4l0.7,8.7h0.4L601.7,431.3z"/>
		<path class="st4" d="M600.6,433.3h-0.4l0.7,8.9h0.4L600.6,433.3z"/>
		<path class="st4" d="M599.5,435.4h-0.4l0.6,7.8h0.4L599.5,435.4z"/>
		<path class="st4" d="M605.7,429h-0.4l0.5,7.4h0.4L605.7,429z"/>
		<path class="st4" d="M602.9,429.3h-0.4l0.5,7.4h0.4L602.9,429.3z"/>
		<path class="st4" d="M604.4,434.5l-0.5-7.4h0.4l0.5,7.4H604.4z"/>
		<path class="st5" d="M607,465.2l-0.6,0.1l1.7,21.6l0.6-0.1L607,465.2z"/>
		<path class="st5" d="M607.6,476.4c-0.2-0.7,1.9-8.5,4.1-10C610.9,471.6,609.2,474.6,607.6,476.4z"/>
		<path class="st5" d="M607.8,479.3c0.1-0.7-3.3-8.1-5.5-9.3C603.7,475,605.8,477.9,607.8,479.3z"/>
		<path class="st5" d="M608.3,463.7c0,0.1,0,0.1,0,0.3c0.1,0.8-0.5,1.7-1.4,1.7l0,0c-0.8,0.1-1.7-0.5-1.7-1.4c0,0,0,0,0-0.1
			c0-0.1,0-0.1,0-0.3L608.3,463.7z"/>
		<path class="st4" d="M592.9,444.3c0.1,0.1,0.7,2.8-0.4,5.2c-0.7,1.7-2.2,3-3.9,3.6c-0.5-1.7-0.4-3.6,0.4-5.2
			C590.3,445.5,592.8,444.2,592.9,444.3z"/>
		<path class="st4" d="M582.3,445.2c-0.1,0.1-0.4,3,1.2,5.1c1.1,1.5,2.6,2.6,4.3,3c0.2-1.8-0.1-3.6-1.2-5.1
			C585,445.9,582.4,445,582.3,445.2z"/>
		<path class="st4" d="M587,437.5c0.1,0,2.1,2,2.3,4.7c0.1,1.8-0.4,3.6-1.6,5.1c-1.4-1.3-2.1-3-2.3-4.7
			C585.4,440.7,585.9,438.9,587,437.5z"/>
		<path class="st4" d="M593.4,450.5c0.1,0.1,0.7,2.8-0.4,5.2c-0.7,1.7-2.2,3-3.9,3.6c-0.5-1.7-0.4-3.6,0.4-5.2
			C590.8,451.6,593.2,450.3,593.4,450.5z"/>
		<path class="st4" d="M582.6,451.3c-0.1,0.1-0.4,3,1.2,5.1c1.1,1.5,2.6,2.6,4.3,3c0.2-1.8-0.1-3.6-1.2-5.1
			C585.5,452,583,451.1,582.6,451.3z"/>
		<path class="st4" d="M593.8,456.7c0.1,0.1,0.7,2.8-0.4,5.2c-0.7,1.7-2.2,3-3.9,3.6c-0.5-1.7-0.4-3.6,0.4-5.2
			C591.3,457.8,593.7,456.7,593.8,456.7z"/>
		<path class="st4" d="M583.3,457.4c-0.1,0.1-0.4,3,1.2,5.1c1.1,1.5,2.6,2.6,4.3,3c0.2-1.8-0.1-3.6-1.2-5.1
			C586,458.1,583.4,457.3,583.3,457.4z"/>
		<path class="st4" d="M589.7,432.2h-0.4l0.7,8.7l0.4-0.1L589.7,432.2z"/>
		<path class="st4" d="M591.3,433.9h-0.4l0.7,8.7h0.4L591.3,433.9z"/>
		<path class="st4" d="M592.7,435.8h-0.4l0.6,7.8h0.4L592.7,435.8z"/>
		<path class="st4" d="M584.2,432.5h-0.4l0.7,8.7h0.5L584.2,432.5z"/>
		<path class="st4" d="M583.2,434.5h-0.4l0.7,8.7l0.4-0.1L583.2,434.5z"/>
		<path class="st4" d="M582.1,444.6l-0.6-7.8h0.4l0.6,7.8H582.1z"/>
		<path class="st4" d="M588.2,430.3h-0.4l0.5,7.4h0.4L588.2,430.3z"/>
		<path class="st4" d="M585.5,430.5H585l0.5,7.4l0.4-0.1L585.5,430.5z"/>
		<path class="st4" d="M586.9,435.9l-0.5-7.4h0.4l0.5,7.4H586.9z"/>
		<path class="st5" d="M589.5,466.4l-0.6,0.1l1.7,21.6l0.6-0.1L589.5,466.4z"/>
		<path class="st5" d="M590.1,477.7c-0.2-0.7,1.9-8.5,4.1-10C593.4,472.9,591.8,476,590.1,477.7z"/>
		<path class="st5" d="M590.3,480.7c0.1-0.7-3.3-8.1-5.5-9.3C586.2,476.4,588.4,479.2,590.3,480.7z"/>
		<path class="st5" d="M590.7,465c0,0.1,0,0.1,0,0.3c0.1,0.8-0.6,1.7-1.5,1.7c-0.8,0.1-1.7-0.6-1.7-1.5l0,0c0-0.1,0-0.1,0-0.3
			L590.7,465z"/>
		<path class="st4" d="M575.4,445.6c0.1,0.1,0.7,2.8-0.4,5.2c-0.7,1.7-2.2,3-3.9,3.6c-0.5-1.7-0.4-3.6,0.4-5.2
			C572.8,446.8,575.4,445.6,575.4,445.6z"/>
		<path class="st4" d="M564.8,446.6c-0.1,0.1-0.4,3,1.2,5.1c1.1,1.5,2.6,2.6,4.3,3c0.2-1.8-0.1-3.6-1.2-5.1
			C567.6,447.2,564.9,446.3,564.8,446.6z"/>
		<path class="st4" d="M569.5,438.9c0.1,0,2.1,2,2.3,4.7c0.1,1.8-0.4,3.6-1.6,5c-1.4-1.3-2.1-3-2.3-4.7
			C567.8,441.2,569.4,438.9,569.5,438.9z"/>
		<path class="st4" d="M575.8,451.8c0.1,0.1,0.7,2.8-0.4,5.2c-0.7,1.7-2.2,3-3.9,3.6c-0.5-1.7-0.4-3.6,0.4-5.2
			C573.3,453,575.7,451.7,575.8,451.8z"/>
		<path class="st4" d="M565.3,452.7c-0.1,0.1-0.4,3,1.2,5.1c1.1,1.5,2.6,2.5,4.3,3c0.2-1.8-0.1-3.6-1.2-5.1
			C568,453.3,565.5,452.6,565.3,452.7z"/>
		<path class="st4" d="M576.3,457.9c0.1,0.1,0.7,2.8-0.4,5.2c-0.7,1.7-2.2,3-3.9,3.6c-0.4-1.7-0.4-3.6,0.4-5.2
			C573.8,459.1,576.1,457.8,576.3,457.9z"/>
		<path class="st4" d="M565.8,458.8c-0.1,0.1-0.4,3,1.2,5.1c1.1,1.5,2.6,2.5,4.3,3c0.2-1.8-0.1-3.6-1.2-5.1
			C568.5,459.5,565.9,458.7,565.8,458.8z"/>
		<path class="st4" d="M572.2,433.5h-0.4l0.7,8.7h0.4L572.2,433.5z"/>
		<path class="st4" d="M573.8,435.3h-0.4l0.7,8.7h0.4L573.8,435.3z"/>
		<path class="st4" d="M575.3,437.2l-0.4,0.1l0.6,7.8h0.4L575.3,437.2z"/>
		<path class="st4" d="M567,442.8l-0.6-8.7h0.4l0.7,8.7H567z"/>
		<path class="st4" d="M565.7,435.9h-0.4l0.7,8.7h0.4L565.7,435.9z"/>
		<path class="st4" d="M564.5,438h-0.4l0.6,7.8h0.4L564.5,438z"/>
		<path class="st4" d="M570.7,439.1l-0.5-7.4h0.4l0.5,7.4H570.7z"/>
		<path class="st4" d="M568,431.9h-0.4l0.5,7.4l0.4-0.1L568,431.9z"/>
		<path class="st4" d="M569.2,429.8h-0.4l0.5,7.4h0.4L569.2,429.8z"/>
		<path class="st5" d="M572.1,467.7l-0.6,0.1l1.7,21.6l0.6-0.1L572.1,467.7z"/>
		<path class="st5" d="M572.6,479.1c-0.2-0.7,1.9-8.5,4.1-10C575.9,474.2,574.3,477.2,572.6,479.1z"/>
		<path class="st5" d="M572.8,482.1c0.1-0.7-3.3-8.1-5.5-9.3C568.7,477.7,570.9,480.6,572.8,482.1z"/>
		<path class="st5" d="M573.2,466.4c0,0.1,0.1,0.1,0.1,0.3c0.1,0.8-0.6,1.7-1.5,1.7c-0.8,0.1-1.7-0.6-1.7-1.5c0-0.1,0-0.1,0-0.3
			L573.2,466.4z"/>
		<path class="st4" d="M558,447c0.1,0.1,0.7,2.8-0.4,5.2c-0.7,1.7-2.2,3-3.9,3.6c-0.5-1.7-0.4-3.6,0.4-5.2
			C555.3,448.1,557.8,446.9,558,447z"/>
		<path class="st4" d="M547.3,447.8c-0.1,0.1-0.4,3,1.2,5.1c1.1,1.5,2.6,2.6,4.3,3c0.2-1.8-0.1-3.6-1.2-5.1
			C550.1,448.6,547.4,447.7,547.3,447.8z"/>
		<path class="st4" d="M552,440.2c0.2,0,2.1,2,2.3,4.7c0.1,1.8-0.4,3.6-1.6,5.1c-1.4-1.3-2.1-3-2.3-4.7
			C550.4,442.4,551.9,440.2,552,440.2z"/>
		<path class="st4" d="M558.4,453.2c0.1,0.1,0.7,2.8-0.4,5.2c-0.7,1.7-2.2,3-3.9,3.6c-0.5-1.7-0.4-3.6,0.4-5.2
			C555.8,454.2,558.3,453,558.4,453.2z"/>
		<path class="st4" d="M547.8,453.9c-0.1,0.1-0.4,3,1.2,5.1c1.1,1.5,2.6,2.5,4.3,3c0.2-1.8-0.1-3.6-1.2-5.1
			C550.6,454.7,548,453.8,547.8,453.9z"/>
		<path class="st4" d="M558.9,459.3c0.1,0.1,0.7,2.8-0.4,5.2c-0.7,1.7-2.2,3-3.9,3.6c-0.5-1.7-0.4-3.6,0.4-5.2
			C556.2,460.5,558.7,459.2,558.9,459.3z"/>
		<path class="st4" d="M548.3,460c-0.1,0.1-0.4,3,1.2,5.1c1.1,1.5,2.6,2.5,4.3,3c0.2-1.8-0.1-3.6-1.2-5.1
			C550.9,460.9,548.4,459.9,548.3,460z"/>
		<path class="st4" d="M554.7,434.8h-0.4l0.7,8.7h0.4L554.7,434.8z"/>
		<path class="st4" d="M556.5,445.5l-0.7-8.7h0.4l0.7,8.7H556.5z"/>
		<path class="st4" d="M557.8,438.5h-0.4l0.5,7.8l0.4-0.1L557.8,438.5z"/>
		<path class="st4" d="M549.4,435.2l-0.4,0.1l0.7,8.7l0.4-0.1L549.4,435.2z"/>
		<path class="st4" d="M548.4,446.1l-0.6-8.7l0.4-0.1l0.6,8.7L548.4,446.1z"/>
		<path class="st4" d="M547,439.4h-0.5l0.6,7.8l0.4-0.1L547,439.4z"/>
		<path class="st4" d="M553.1,433h-0.4l0.5,7.4h0.4L553.1,433z"/>
		<path class="st4" d="M550.7,440.7l-0.5-7.4h0.4l0.5,7.4H550.7z"/>
		<path class="st4" d="M551.7,431.2h-0.4l0.5,7.4h0.4L551.7,431.2z"/>
		<path class="st5" d="M555.7,490.7l-1.7-21.6l0.6-0.1l1.7,21.6L555.7,490.7z"/>
		<path class="st5" d="M555.1,480.4c-0.2-0.7,1.9-8.5,4.1-10C558.5,475.5,556.8,478.6,555.1,480.4z"/>
		<path class="st5" d="M555.3,483.3c0.1-0.7-3.3-8.1-5.5-9.3C551.2,479.1,553.5,481.9,555.3,483.3z"/>
		<path class="st5" d="M555.7,467.6c0,0.1,0.1,0.1,0.1,0.3c0.1,0.8-0.6,1.7-1.5,1.7c-0.8,0.1-1.7-0.6-1.7-1.5l0,0c0-0.1,0-0.1,0-0.3
			L555.7,467.6z"/>
		<path class="st4" d="M540.5,448.3c0.1,0.1,0.7,2.8-0.4,5.2c-0.7,1.7-2.2,3-3.9,3.6c-0.5-1.7-0.4-3.6,0.4-5.2
			C537.7,449.4,540.3,448.2,540.5,448.3z"/>
		<path class="st4" d="M529.8,449.1c-0.1,0.1-0.4,3,1.2,5.1c1.1,1.5,2.6,2.6,4.3,3c0.2-1.8-0.1-3.6-1.2-5.1
			C532.6,449.8,530,449,529.8,449.1z"/>
		<path class="st4" d="M534.6,441.5c0.1,0,2.1,2,2.3,4.7c0.1,1.8-0.4,3.6-1.6,5c-1.4-1.3-2.1-3-2.3-4.7
			C532.9,443.8,534.4,441.5,534.6,441.5z"/>
		<path class="st4" d="M540.9,454.5c0.1,0.1,0.7,2.8-0.4,5.2c-0.7,1.7-2.2,3-3.9,3.6c-0.5-1.7-0.4-3.6,0.4-5.2
			C538.3,455.6,540.8,454.5,540.9,454.5z"/>
		<path class="st4" d="M530.3,455.3c-0.1,0.1-0.4,3,1.2,5.1c1.1,1.5,2.6,2.6,4.3,3c0.2-1.8-0.1-3.6-1.2-5.1
			C533.1,456,530.4,455.2,530.3,455.3z"/>
		<path class="st4" d="M541.5,460.6c0.1,0.1,0.7,2.8-0.4,5.2c-0.7,1.7-2.2,3-3.9,3.6c-0.5-1.7-0.4-3.6,0.4-5.2
			C538.7,461.8,541.2,460.6,541.5,460.6z"/>
		<path class="st4" d="M530.7,461.4c-0.1,0.1-0.4,3,1.2,5.1c1.1,1.5,2.6,2.5,4.3,3c0.2-1.8-0.1-3.6-1.2-5.1
			C533.5,462.2,530.9,461.3,530.7,461.4z"/>
		<path class="st4" d="M537.2,436.1h-0.4l0.7,8.7h0.4L537.2,436.1z"/>
		<path class="st4" d="M539,446.8l-0.7-8.7h0.4l0.7,8.7H539z"/>
		<path class="st4" d="M540.3,439.8h-0.4l0.6,7.8h0.4L540.3,439.8z"/>
		<path class="st4" d="M532,436.5h-0.4l0.7,8.7h0.4L532,436.5z"/>
		<path class="st4" d="M530.7,438.7h-0.4l0.7,8.7h0.4L530.7,438.7z"/>
		<path class="st4" d="M529.6,448.6l-0.6-7.8l0.4-0.1l0.6,7.8h-0.4V448.6L529.6,448.6z"/>
		<path class="st4" d="M535.7,434.2h-0.5l0.5,7.4h0.4L535.7,434.2z"/>
		<path class="st4" d="M533.1,434.4h-0.4l0.5,7.4h0.4L533.1,434.4z"/>
		<path class="st4" d="M534.4,439.9l-0.5-7.4l0.4-0.1l0.5,7.4L534.4,439.9z"/>
		<path class="st5" d="M537.1,470.5l-0.6,0.1l1.7,21.6l0.6-0.1L537.1,470.5z"/>
		<path class="st5" d="M537.6,481.9c-0.2-0.7,1.9-8.5,4.1-10C541,476.9,539.3,480,537.6,481.9z"/>
		<path class="st5" d="M537.9,484.7c0.1-0.7-3.3-8.1-5.5-9.3C533.8,480.4,536,483.1,537.9,484.7z"/>
		<path class="st5" d="M538.3,469c0,0.1,0,0.1,0,0.3c0.1,0.8-0.5,1.7-1.5,1.7c-0.8,0.1-1.7-0.5-1.7-1.5l0,0c0-0.1,0-0.1,0-0.3
			L538.3,469z"/>
		<path class="st4" d="M523.1,449.5c0.1,0.1,0.7,2.8-0.4,5.2c-0.7,1.7-2.2,3-3.9,3.6c-0.5-1.7-0.4-3.6,0.4-5.2
			C520.3,450.8,522.8,449.5,523.1,449.5z"/>
		<path class="st4" d="M512.2,450.5c-0.1,0.1-0.4,3,1.2,5.1c1.1,1.5,2.6,2.5,4.3,3c0.2-1.8-0.1-3.6-1.2-5.1
			C515.7,451.8,514.1,450.8,512.2,450.5z"/>
		<path class="st4" d="M517.2,442.8c0.1,0,2.1,2,2.3,4.7c0.1,1.8-0.4,3.6-1.6,5c-1.4-1.3-2.1-3-2.3-4.7
			C515.4,445.2,517,442.8,517.2,442.8z"/>
		<path class="st4" d="M523.5,455.8c0.1,0.1,0.7,2.8-0.4,5.2c-0.7,1.7-2.2,3-3.9,3.6c-0.5-1.7-0.4-3.6,0.4-5.2
			C520.8,457,523.3,455.7,523.5,455.8z"/>
		<path class="st4" d="M512.8,456.7c-0.1,0.1-0.4,3,1.2,5.1c1.1,1.5,2.6,2.6,4.3,3c0.2-1.8-0.1-3.6-1.2-5.1
			C515.6,457.3,512.9,456.6,512.8,456.7z"/>
		<path class="st4" d="M523.9,461.9c0.1,0.1,0.7,2.8-0.4,5.2c-0.7,1.7-2.2,3-3.9,3.6c-0.5-1.7-0.4-3.6,0.4-5.2
			C521.2,463.1,523.7,461.8,523.9,461.9z"/>
		<path class="st4" d="M513.2,462.8c-0.1,0.1-0.4,3,1.2,5.1c1.1,1.5,2.6,2.6,4.3,3c0.2-1.8-0.1-3.6-1.2-5.1
			C516,463.5,513.4,462.7,513.2,462.8z"/>
		<path class="st4" d="M519.9,446.2l-0.7-8.7h0.4l0.7,8.7H519.9z"/>
		<path class="st4" d="M521.5,448.1l-0.7-8.7h0.4l0.7,8.7H521.5z"/>
		<path class="st4" d="M522.8,449l-0.6-7.8h0.4l0.6,7.8H522.8z"/>
		<path class="st4" d="M514.6,446.8l-0.7-8.7h0.4l0.7,8.7H514.6z"/>
		<path class="st4" d="M513.2,439.9h-0.4l0.7,8.7l0.4-0.1L513.2,439.9z"/>
		<path class="st4" d="M511.9,441.9l-0.4,0.1l0.6,7.8h0.4L511.9,441.9z"/>
		<path class="st4" d="M518.3,435.6h-0.4l0.5,7.4l0.4-0.1L518.3,435.6z"/>
		<path class="st4" d="M515.6,435.8l-0.4,0.1l0.5,7.4h0.4L515.6,435.8z"/>
		<path class="st4" d="M517,441.2l-0.5-7.4h0.4l0.5,7.4H517z"/>
		<path class="st5" d="M520.6,493.5l-1.7-21.6h0.6l1.7,21.6H520.6z"/>
		<path class="st5" d="M520.1,483c-0.2-0.7,1.9-8.5,4.1-10C523.5,478.2,521.8,481.2,520.1,483z"/>
		<path class="st5" d="M520.4,486.1c0.1-0.7-3.3-8.1-5.5-9.3C516.4,481.8,518.4,484.5,520.4,486.1z"/>
		<path class="st5" d="M520.8,470.4c0,0.1,0,0.1,0,0.2c0.1,0.8-0.5,1.7-1.4,1.7c0,0,0,0-0.1,0c-0.8,0.1-1.7-0.6-1.7-1.5v-0.3
			L520.8,470.4z"/>
		<path class="st4" d="M505.5,450.9c0.1,0.1,0.7,2.8-0.4,5.2c-0.7,1.7-2.2,3-3.9,3.6c-0.5-1.7-0.4-3.6,0.4-5.3
			C502.8,452,505.3,450.8,505.5,450.9z"/>
		<path class="st4" d="M494.8,451.7c-0.1,0.1-0.4,3,1.2,5.1c1.1,1.5,2.6,2.6,4.3,3c0.2-1.8-0.1-3.6-1.2-5.1
			C497.7,452.5,495,451.6,494.8,451.7z"/>
		<path class="st4" d="M499.7,444.1c0.1,0,2.1,2,2.3,4.7c0.1,1.8-0.4,3.6-1.6,5c-1.4-1.3-2.1-3-2.3-4.7
			C497.8,446.6,499.4,444.1,499.7,444.1z"/>
		<path class="st4" d="M506,457.1c0.1,0.1,0.7,2.8-0.4,5.2c-0.7,1.7-2.2,3-3.9,3.6c-0.5-1.7-0.4-3.6,0.4-5.2
			C503.3,458.1,505.8,457.1,506,457.1z"/>
		<path class="st4" d="M495.3,457.8c-0.1,0.1-0.4,3,1.2,5.1c1.1,1.5,2.6,2.6,4.3,3c0.2-1.8-0.1-3.6-1.2-5.1
			C498.1,458.6,495.4,457.8,495.3,457.8z"/>
		<path class="st4" d="M506.4,463.3c0.1,0.1,0.7,2.8-0.4,5.2c-0.7,1.7-2.2,3-3.9,3.6c-0.5-1.7-0.4-3.6,0.4-5.2
			C503.7,464.5,506.2,463.2,506.4,463.3z"/>
		<path class="st4" d="M495.7,464.2c-0.1,0.1-0.3,3,1.2,5.1c1.1,1.5,2.6,2.6,4.3,3c0.2-1.8-0.1-3.6-1.2-5.1
			C499.1,465.5,497.6,464.6,495.7,464.2z"/>
		<path class="st4" d="M502.3,438.9h-0.5l0.7,8.7h0.4L502.3,438.9z"/>
		<path class="st4" d="M503.8,440.7l-0.4,0.1l0.7,8.7h0.4L503.8,440.7z"/>
		<path class="st4" d="M505.4,450.2l-0.6-7.8l0.4-0.1l0.6,7.8h-0.4V450.2L505.4,450.2z"/>
		<path class="st4" d="M497,439.2h-0.4l0.7,8.7h0.4L497,439.2z"/>
		<path class="st4" d="M495.7,441.2l-0.4,0.1l0.7,8.7l0.4-0.1L495.7,441.2z"/>
		<path class="st4" d="M494.6,451.1l-0.6-7.8h0.4l0.6,7.8H494.6z"/>
		<path class="st4" d="M501,444.3l-0.6-7.4l0.4-0.1l0.5,7.4L501,444.3z"/>
		<path class="st4" d="M498.1,444.6l-0.5-7.4h0.4l0.5,7.4H498.1z"/>
		<path class="st4" d="M499.3,435.1h-0.4l0.5,7.4h0.4L499.3,435.1z"/>
		<path class="st5" d="M502.1,473.1l-0.6,0.1l1.7,21.6l0.6-0.1L502.1,473.1z"/>
		<path class="st5" d="M502.7,484.4c-0.2-0.7,1.9-8.5,4.1-10C506,479.5,504.3,482.5,502.7,484.4z"/>
		<path class="st5" d="M502.9,487.3c0.1-0.7-3.3-8.1-5.5-9.3C498.9,483,501,485.8,502.9,487.3z"/>
		<path class="st5" d="M503.3,471.7c0,0.1,0,0.1,0.1,0.3c0.1,0.8-0.6,1.7-1.5,1.7c-0.8,0.1-1.7-0.6-1.7-1.5c0-0.1,0-0.1,0-0.3
			L503.3,471.7z"/>
	</g>
	<g id="Layer_2_00000011724372785370826290000008534721217664910267_">
		<g id="Layer_1-2_00000154420224873122426960000003957512691756046211_">
			<path class="st6" d="M429.7,662.3c-7.3-67.3-35.9-216-176.2-186.3C128,502.5,103.5,581.1,103.5,651.5c0,3.7,0.2,7.2,0.5,10.7
				H429.7L429.7,662.3z"/>
			<path class="st7" d="M471.9,662.3c-6.6-60.9-38.3-133.2-152.6-125.1c-83.1,5.9-151,51.6-151,115.3c0,3.3,0.2,6.5,0.5,9.7
				L471.9,662.3L471.9,662.3z"/>
			<path class="st8" d="M292.9,662.8c-2.3-23.4-13-51.4-51.8-48.2c-28.3,2.3-51.3,19.9-51.3,44.5c0,1.3,0.1,2.5,0.1,3.8h103.1V662.8
				z"/>
			<path class="st9" d="M259,662.8c3.3-29.3,18.4-64.1,73.5-60.3c40,2.8,72.7,24.8,72.7,55.4c0,1.6-0.1,3.2-0.3,4.7H259V662.8z"/>
		</g>
	</g>
	<g id="Layer_2_00000099625685034365378710000007200006357025793204_">
		<g id="Layer_1-2_00000047762980737767559340000000803372795650658456_">
			<path class="st3" d="M832.5,353.9c0,0,0.7-1.6,9.4,0c32.2,5.7,56.8-9.4,53.3-9.9c-19.3-3-34.7-7.2-32.4-8.5
				c2.3-1.4,32.6-4.1,26.9-4.7c-7.8-1.1-29.9-10.5-27.4-11.3c2.7-0.7,28.6-1.7,23.5-3.7c-18.4-7.2-25.7-14.6-23.4-13.9
				c2.3,0.7,20.9,3,17.5,0.5c-11.4-8-20.9-23.2-20.9-23.2s11,3.3,14.8,4.1c3.9,0.8,1.7-1.2-5.7-7.5c-7-6-13-14.8-13-14.8
				c2.6-0.1,5.4-0.1,8.1,0c5.8,0.2,5.3,1.1,0-5.1c-5.3-6.1-19-19.2-16-20.2s16.8,7.4,14,4.5c-7.3-7.8-25.1-39.6-25.8-37.5
				c-0.7,2.1-8.7,22.3-14,29.4c-5.4,7.1-16.1,13.1-11,12.8c5.1-0.4,14.2-4.7,14.2-4.7s-4.7,13.3-8.3,16.4c-3.6,3.3-7.5,6.7-2.4,6.3
				c5.1-0.4,14.2-4.5,11.9-1.4c-2.4,3.3-20.1,16.1-16.8,16.5c3.3,0.4,14.9-2.6,14.9-2.6s-10.3,14.3-13.4,16.5
				c-3.3,2.1-7.2,4.1-3.7,4.6c3.6,0.6,14.5-2,14.5-2s-8.4,14.3-19.8,21c-1.4,0.8,9.6,1.1,14.6,0c5.1-1.1,7.2-2.2,6.7,0
				c-0.4,2.2-19.6,10.4-27.1,15c-5.2,3.3,23.5-0.8,25.3,0c2,0.9-16.5,14.5-33.1,16.3c-4.8,0.4,8.6,4.1,18.7,6.3
				C816.5,356,832.5,353.9,832.5,353.9z"/>
			<path class="st2" d="M783.6,241.7c7.5-0.2,22.2,2.3,34.3,10.6c14.1,9.9,18,16.3,21.6,33c3.7,16.7-1.5,29.6-9.1,41
				c-7.6,11.4-12.5,23.1-47.1,28.7c-19.7,3.3-51.5-9.3-57.3-35.2c-5.8-25.9,1.1-43.9,7.7-50.6C740.2,262.4,750.9,242.6,783.6,241.7z
				"/>
			<path class="st10" d="M826.1,290.8l-8.9,5c0,0-4.4,0.8-6.7,1.3c-2.2,0.4-7.5,1.5-7.5,1.5l-1.9-9.8H799c0,0,1.3,10,0,10.7
				c-1.1,0.6-7.5,2.6-11.6,3.7c-0.9-9.1-2-19.2-2-20.3c0-1.2,3.3-3.3,5.7-4.2c2.6-1.1,8.2-2.6,10.6-3.4c2.3-0.7,3.5-1.2,3.5-1.2
				s-2.6-4.1-4.3-3.3s-9.1,4.4-9.1,4.4l-2.5-5.1h-3l1.7,5.1c0,0-1.4,1.1-2.6,0c-1.2-1.1-2.2-5.5-2.2-9.4c0-3.9,0-5.5,0-5.5
				c1.1-0.2,5.4,1.9,5.4,1.9l0.8-1.4l-5.3-3.4c0,0,1.4-1.7,3-4.2c1.7-2.6,1.6-2.5-1.4-3.9c0,0-1.8,2.8-3.3,5.1
				c-0.9,1.4-3.6,6.3-4.4,6.4c-0.9,0.1-1.3-0.1-3.9-0.9l-2.4-0.6l-0.9,2.1c0,0,5.7,1.6,6,3.5c0.2,1.9,0.5,16.2,0.5,16.2l-5.5-7
				l-2,0.6c0,0-0.7,0,0.1,1.6c0.4,0.9,1.1,1.9,1.8,2.6l-6.9-2.1l-0.1,2.6c0,0,5.1,1.4,7.1,2.3c2,0.8,5.7,3,5.7,3l0.5,4.8
				c0.5,4.8,1.2,19.9,1.2,19.9l-7.2-2.6l-2-4.4l3.5-1.5l-0.8-1.4h-4.2l-3.6-5.1l-2.2,1.1c0,0,3.2,3.9,3.2,4.5s2.4,6.5,2.4,6.5
				s-4.7-1.6-6.1-2c-1.4-0.4-17.9-4.2-17.9-4.2l-0.3,3.9c0,0,10.6,3.8,13.4,5.1l0.4,0.1c-0.2,0.1-0.4,0.4-0.7,0.5
				c-1.9,1.5-4,2.6-6.1,3.5l1.4,3.5l9.6-6c1.7,0.5,7.3,2.6,8.1,3c2.6,0.9,7.8,3.1,8.6,6.2c0.8,3.3-0.2,12.8-0.3,17.8
				c0,3.6-0.6,3.9-2.3,3.6c-2-0.4-5.3-1.6-5.3-1.6c0.1-1.1,0-2.2-0.1-3.3c-0.1-1.6-0.5-3.1-1.1-4.4l-2.3-0.8
				c-0.4,1.8-0.4,3.7-0.4,5.4c0.1,1.6-3.9,0.7-5.5-0.2c-2.6-1.5-5.4-2.7-8.3-3.8c-2.7-0.9-6.3-2-6.3-2l-1.4,3.3
				c3.3,1.3,6.5,2.6,9.7,4.2c0.4,0.2,0.7,0.4,1.3,0.6l-5,1.1l1.3,2.3c1.1-0.1,2.1-0.4,3.2-0.6c1.4-0.4,3-0.7,4.3-0.9
				c3.3,1.5,6,2.5,9.3,4c4.1,1.9,7.5,2.6,9.3,3.9c1.7,1.3,0.3,36.4,0.3,44.8c0,8.4-0.3,44.1-0.3,44.1h13l-2.5-99.3l10.5-9.2l0.7,1.1
				c0.7,1.1,1.7,1.9,2.7,2.7l1.7-2l-0.8-0.7c-0.7-0.7-1.4-1.7-1.7-2.7l4.4-4.2l-1.2-1.9c0,0-4.4,2.7-7.6,4.6
				c-0.1,0.1-0.2,0.1-0.3,0.2v-9.3c0,0,0.6-2,0-2.2c-0.5-0.1-1.2-0.1-1.7,0c0,0-0.4,1.8-0.7,3.9c-0.2,1.6-0.9,7.1-1.2,9.5
				c-2.7,1.7-5.3,3.3-5.3,3.3s0.1-9.2-0.1-13.6c-0.1-1.2-0.3-3.9-0.7-7.1c5-1.6,12.8-4.5,17.3-5.7c5.7-1.6,7-3,8.7-2
				c1.8,0.9,1.7,8.9,2.3,9.7l2.5-0.8v-5.5h5.2l0.8-1.8l-6-0.8v-5.4c0,0,8.1-4.2,8.2-5.2C827.6,291.7,826.1,290.8,826.1,290.8z"/>
			<path class="st2" d="M682.9,409.9c0,0-0.7-1.7-10.3,0c-35.8,6.3-62.9-10.3-59.1-11c21.3-3.4,38.4-7.9,35.8-9.5
				c-2.6-1.6-36.1-4.4-29.6-5.4c8.5-1.2,33.1-11.7,30.2-12.5c-3.1-0.7-31.6-1.9-26-4c20.3-8,28.5-16.2,25.9-15.4s-23.2,3.3-19.4,0.6
				c12.5-8.9,23.2-25.7,23.2-25.7s-12.1,3.6-16.4,4.5c-4.2,1.1-1.8-1.4,6.3-8.3c7.8-6.6,14.3-16.3,14.3-16.3c-3-0.2-5.9-0.2-9,0
				c-6.5,0.3-5.8,1.1,0-5.6c5.8-6.6,20.9-21.2,17.9-22.3c-3.1-1.2-18.5,8.2-15.6,5.1c8.1-8.7,27.8-44.1,28.7-41.6
				c0.8,2.4,9.7,24.8,15.5,32.7c6,7.8,17.8,14.5,12.1,14.1s-15.8-5.2-15.8-5.2s5.3,14.6,9.3,18.2c3.9,3.6,8.4,7.5,2.6,7.1
				c-5.7-0.4-15.8-5.1-13.2-1.6c2.6,3.6,22.2,17.8,18.7,18.3c-3.7,0.5-16.4-2.8-16.4-2.8s11.4,15.9,14.9,18.3c3.6,2.4,8,4.4,4.1,5.2
				c-3.9,0.7-16.1-2.3-16.1-2.3s9.4,15.9,21.8,23.3c1.6,0.9-10.6,1.2-16.3,0c-5.7-1.1-7.9-2.4-7.5,0c0.4,2.4,21.6,11.6,29.9,16.7
				c5.7,3.6-26-0.9-28,0c-2.3,1.1,18.3,16.2,36.8,18c5.4,0.5-9.6,4.6-20.6,7.1C700.6,412.3,682.9,409.9,682.9,409.9z"/>
			<path class="st10" d="M666.4,396.3c-0.1-9.2,0.7-27.1,0.7-27.1l-13.9-13.5l1.8-2.3c0,0,1.5,0.3,5.2,3.3c3.8,2.8,8.4,5.6,8.4,5.6
				s0.2-15.6,0.5-19.3c0.5-6.6-1.8-8.7-1.8-8.7s-2.1-1.6-5.1-3.6c-3-2-5.3-4-5.3-4l2.3-2.5c2,0.9,4,2,5.8,3.3
				c1.4,0.8,3.2,0.9,4.5,0.2c0,0,0.1-1.9,0.2-7.7c0.1-5.4,1.1-12.2,0.1-15c-0.8-3-6.7-11.8-6.7-11.8l1.6-2.8c1.1,0.7,2.1,1.8,3,3
				c1.4,2,5.4,7,5.4,7s1.7-3.9,3.9-7.6c2.5-4.6,1.2-5.3,3.9-4.5c3,0.7,2.1,1.2,0.7,4.8c-1.6,4.2-2.2,5.8-3.3,8.2
				c-0.8,1.9-0.2,28.7-0.2,28.7s-0.2,17.6,0.5,17.8c3.3,1.2,12.4-0.9,12.4-0.9l-0.1,2.6l-12.8,4.1l-0.3,29.9c0,0,4.3-0.1,6.6-1.3
				c2.3-1.1,2.8-0.7,2.8-0.7l0.9,2.3c0,0-2.7,2.2-5.1,2.7c-1.7,0.4-4.2,1.1-5.4,1.4l1.6,59.5l-13.9-0.4
				C665.5,446.8,666.6,405.1,666.4,396.3z"/>
			<path class="st3" d="M732.6,405.2c5.8,0,27.5-8.1,33.7-25.2c6.3-17.1,1.2-54.2-3-70c-4.1-15.6-30.6-91.9-30.6-91.9
				s-8.1,17.5-15.1,29.3c-6.9,11.9-27.5,59.2-31.3,77c-3.9,17.7-4.1,49.6,6.1,63.3C705.4,405.2,715.5,402,732.6,405.2z"/>
			<path class="st11" d="M731,447.4c0,0-0.3-21.9-0.3-30.9c0-9-1.5-26.7,0.3-28c1.8-1.4,5.5-2.2,9.9-4.1c4.1-1.7,8.6-2.6,13.1-3
				c3.7-0.3,4.2-0.4,4.2-0.4l-0.8-3.9c0,0-0.6-0.1-3.7,0c-3.1,0.1-4,0.4-5.4,0.5c-3,0.3-4.6,1.7-4.5,0c0.1-1.7,0.6-8.3-0.9-7.6
				c-0.7,0.4-1.7,0.7-2.4,0.9c-0.5,1.6-0.8,3.3-1.1,4.7c-0.1,1.2-0.1,2.3-0.1,3.6c-1.9,0.6-3.8,1.2-5.6,1.7
				c-1.8,0.4-2.5,0.1-2.5-3.8c0-5.3-1.3-18.7-0.3-21.9c0.6-3,2.7-5.2,5.5-6c1.8-0.7,6.1-1.6,9.3-3.1c1.7-0.8,3.5-1.4,5.2-1.6l-0.3-3
				c-2,0.3-3.9,0.7-5.7,1.3c-1.5,0.5-6.5,2.2-6.5,2.2s2.6-6.2,2.6-7.1c0-0.8,0.3-4.4,0.3-4.4h-2.3l-0.7,3.9h-4.4l-0.9,1.4l3.7,1.6
				l-2,4.7l-4,1.7c0,0,0.6-15.9,1.3-21.1l0.6-5.2c0,0,4-2.1,6-3.1c2.1-0.9,7.5-2.4,7.5-2.4l-0.1-2.8l-7.2,2.3c0.7-0.8,1.4-1.8,2-2.8
				c0.9-1.7,0.1-1.7,0.1-1.7l-2.1-0.7l-5.9,7.5c0,0,0.3-21.3,0.6-23.3s7.8-7.8,7.8-7.8l-1.2-1.6l-1.7,0.7c-3.4,1.8-5.4,4.1-6.3,4.4
				c-0.9,0.4-8.1-14.3-9.7-15.3l-1.6-0.9c-3.1,1.6-2.4,3.4-2.4,3.4c1.5,1.5,3,3.1,4,4.7c1.8,2.7,2.4,3.8,2.4,3.8l-4.8,4.3l0.9,1.4
				c0,0,4.1-4,5.2-3.8c0.8,0.1,1.5,6.5,1.5,6.5s-2.7,14.8-2.7,18.9s-1.1,8.9-2.3,10c-1.3,1.1-2.8,0-2.8,0l1.9-5.4h-3.2l-2.6,5.4
				c0,0-7.8-3.9-9.7-4.6c-1.8-0.8-4.5,3.5-4.5,3.5s1.2,0.4,3.7,1.3c2.5,0.7,8.4,2.3,11.3,3.6c2.7,1.2,6.1,3.4,6.1,4.5
				c0,2.2-1.4,20.4-1.7,25.3c-0.3,4.7-0.1,14.5-0.1,14.5s-4.1-2.8-7.5-4.7c-3.3-2-8.1-5-8.1-5l-1.3,2l4.7,4.4c0,0-0.9,2.2-1.8,3
				l-0.9,0.7l1.8,2.2c1.1-0.8,2-1.9,3-3l0.7-1.1l8.7,8.5l-2.7,70L731,447.4L731,447.4z"/>
			<path class="st11" d="M825.1,296.8l0.1,2.4l11.6,3.7l0.2,27.2c0,0-3.9-0.1-6-1.2c-2.2-1.1-2.5-0.7-2.5-0.7l-0.8,2.2
				c0,0,2.4,2,4.5,2.4c1.6,0.3,3.8,0.9,4.8,1.2l-1.4,109.9l15.5-3.1c-1.7-31.6-4-94.3-3.9-99.3c0.1-8.2-0.6-24.4-0.6-24.4l12.5-12.2
				l-1.7-2c0,0-1.4,0.3-4.7,3c-3.5,2.6-7.6,5.1-7.6,5.1s-0.2-14.1-0.4-17.4c-0.4-6,1.7-7.9,1.7-7.9s2-1.4,4.5-3.3
				c2.6-1.9,4.7-3.6,4.7-3.6l-2.1-2.3c-1.8,0.8-3.6,1.8-5.2,3c-1.3,0.7-2.8,0.8-4.2,0.2c0,0-0.1-1.7-0.2-7c-0.1-4.7-0.9-11-0.1-13.5
				c0.8-2.6,6.1-10.6,6.1-10.6l-1.4-2.5c-1.1,0.7-1.9,1.7-2.6,2.6c-1.3,1.8-4.8,6.3-4.8,6.3s-1.6-3.5-3.5-6.9
				c-2.3-4.1-1.1-4.7-3.6-4.1c-2.6,0.7-1.9,1.1-0.6,4.4c1.4,3.9,2,5.3,3,7.4c0.7,1.7,0.2,25.9,0.2,25.9s0.1,15.8-0.4,16.1
				C833.5,298.6,825.1,296.8,825.1,296.8z"/>
		</g>
	</g>
</g>
<g id="Layer_2">
	<g id="Layer_1-2">
		<path class="st12" d="M316.4,629.8c1-0.1-0.6-0.3,0.7-0.2C316.9,629.8,316.6,630,316.4,629.8z"/>
		<path class="st12" d="M314.9,630c-0.2-0.2-1-0.3-0.4-0.7C314.6,629.5,315,629.8,314.9,630z"/>
		<path class="st12" d="M294.5,627.9c0,0.1-0.3-0.1-0.4-0.1c0.2,0,0.4-0.2,0.7-0.1C294.6,627.7,294.6,627.8,294.5,627.9z"/>
		<path class="st12" d="M289.3,627.8c0.1-0.2,1.2-0.4,1.9-0.4L289.3,627.8z"/>
		<path class="st12" d="M284.5,626.9c-0.4-0.1-0.3-0.3,0.2-0.2C284.7,626.8,284.6,626.8,284.5,626.9z"/>
		<path class="st12" d="M284.2,627.3c-0.3,0-0.6-0.1-0.8-0.2C283.4,627.3,284.3,627,284.2,627.3z"/>
		<path class="st12" d="M273.7,626.7c-0.2,0-0.8,0.2-1-0.1C272.8,626.8,273.8,626.3,273.7,626.7z"/>
		<path class="st12" d="M268.7,627c-0.1,0-0.3,0-0.4,0c-0.3-0.1,0-0.2,0.2-0.3L268.7,627z"/>
		<path class="st12" d="M273.4,623.3l-0.5,0.1l0.1-0.2L273.4,623.3z"/>
		<path class="st12" d="M306.3,621.7c-0.3,0.4-0.4,0-0.4,0.1C306.2,621.5,305.8,622.1,306.3,621.7z"/>
		<path class="st12" d="M287,628.1h0.1v0.4L287,628.1z"/>
		<path class="st13" d="M274.4,456.8c10.4,4.3,24.3,7.7,28,14.7c2.7,4.7-0.7,6-6,3.8c-2.8-0.7-4.4,0.9-7.9,0.8
			c-6.4,7.4-7.2,7.2-14.8,10c-0.5,4.3,1,12.8,0.2,19.5c-12,0.4-26.7,8.8-27.7,0.9c-0.4-2.8,0.7-11.2-0.4-13.7
			c-1.6-3.7-4.1-7.4-5.9-10.8c-3.7-5.5-8.5-11.6-5.6-18.6C241.2,449.3,264,452.4,274.4,456.8z"/>
		<path class="st14" d="M246.4,499.7c-11.5,22.2-17.6,45.9-17.3,70.6c0.4,9.9,3.6,21.8,9.7,29.7c4.1,5.3,12.1,7.4,23.7,6.2
			c3.3-7,1.6-16.6,1.6-23.6c-0.4-8.5,0.4-42.4,1.1-51.9c0.4-5.5,0.2-15.3-0.4-27.1C250.6,503.1,246.4,499.7,246.4,499.7z"/>
		<path class="st13" d="M273.9,499.9c1.2,5.5,1,17.2,2.5,22.5c1.2,5,1,9.7,2.4,14.8c2.2,8.3,3.3,17.4,4.8,26.2
			c2.2,12.8,9.2,27.2-2.5,37.3c-3.5,3.3-9,4.7-19.3,5.5c1.6-2.9,2.8-14.2,2.6-17.7c-0.2-6-2-12.2-1.4-17.9
			c1.2-19.5,0.6-44.7,2.1-64.4C265.1,502.2,269.1,499,273.9,499.9z"/>
		<path class="st15" d="M243.5,468.8c0,5,3.8,8.4,9,8.4c5.2,0,9-3.4,9-8.4c-0.1-5.1-4.2-9.1-9.3-9l0,0c-4.8,0-8.7,3.8-8.8,8.6
			C243.5,468.6,243.5,468.6,243.5,468.8z"/>
		<path class="st14" d="M250.8,467.6c0.1,1,0.9,1.7,1.9,1.6c0.8-0.1,1.6-0.7,1.6-1.6c0-1-0.8-1.8-1.9-1.8
			C251.6,465.8,250.9,466.6,250.8,467.6L250.8,467.6z"/>
		<path class="st13" d="M239.6,599.1c0,6.3,1,19.1,1.6,23.9c0.4,2.8,8.6,2.1,11,1.9c2.4-0.3,2.6-2.7,0.3-3.2c-2.3-0.5-7.4-1-7.4-1
			s-1.2-15-1.2-20C243.8,597.1,239.6,595.7,239.6,599.1z"/>
		<path class="st13" d="M271.1,603.5c0,0,14,13.2,17.7,16.1c2.2,1.9,7.7-4.3,9.2-6.3c1.6-1.9-0.1-3.8-2-2.5c-2,1.2-6.1,4.3-6.1,4.3
			l-14.8-13.5L271.1,603.5z"/>
		<path class="st16" d="M234.6,466.1c0,0-10.3-9-20.1-11.7c-9.7-2.7-30.5-11-32.8-24.8c-3-18.3,21-17.1,21-17.1"/>
		<path class="st16" d="M241.2,456.3c0,0-12.8-16-18.5-23.2c-5-6.1-12.1-24-0.7-28.9c21.5-9.2,32.3,11.2,32.3,11.2"/>
		<path class="st14" d="M225.5,402.8c0.3,4.5,4.1,8,8.8,7.8c4.1-0.2,7.5-3.5,7.9-7.8c-0.3-4.5-4.1-8-8.8-7.8
			C229.1,395.3,225.7,398.7,225.5,402.8z"/>
		<path class="st14" d="M173.1,424.8c0,4.3,3.5,8,7.9,8c4.4,0,8-3.5,8-7.9c0-4.3-3.5-8-7.9-8h-0.1
			C176.6,416.9,173.1,420.4,173.1,424.8L173.1,424.8z"/>
		<path class="st13" d="M275.1,526.2c9.8-4.3,17.4-7.8,27.9-8.9c5.6-0.6,7.8,0.1,7.1-5.9c-0.2-3.5-2.3-10.1-5.6-5.4
			c-0.8,1.2,1.8,3.6,0.4,5.2c-1.1,1.4-14.4,3.5-18.4,5.1c-3.3,1.2-10.6,4-13.4,6.3C269.9,525.1,269.1,528.9,275.1,526.2z"/>
		<path class="st13" d="M239.1,565.1c1,7.4,6.5,16.3,15.1,21c4.1,2.2,8.8,0.5,8.4,7.1c-0.4,6.7-2.1,7.3-3.4,7.4
			c-2.3,0.1-1.4-2.8-1-8.8c-4.5-1.6-8.7-3.9-12.4-6.9c-9.8-7.7-14.1-23.8-11-26.4C238.5,555.6,238.6,561,239.1,565.1z"/>
		<path class="st10" d="M310.3,531.5c-5-4.3-15.1-8.7-23.4-1.2c-3.9,3.5-5,8.8-7.7,11.4c-5,4.5-8.2,0.9-17.8,6.5
			c-10.5,6.3-23.3,20.6-3.5,39.1c15.1,14.2,33.9,12.4,40.4-1.1c6.5-13.5,1.3-17,6.1-22.2c2.8-3.2,8.6-3.7,12.1-12.6
			C319.6,543.7,315,535.8,310.3,531.5z"/>
		<path class="st5" d="M305.2,527.1c-5-4.3-15.1-8.7-23.4-1.2c-3.9,3.5-5,8.8-7.7,11.4c-5,4.5-8.3,0.9-17.8,6.5
			c-10.5,6.3-23.3,20.6-3.5,39.1c15,14.2,33.9,12.4,40.4-1c6.5-13.5,1.3-17,6.1-22.2c2.8-3.2,8.6-3.7,12-12.6
			C314.5,539.2,309.8,531.3,305.2,527.1z"/>
		<path class="st10" d="M269.3,553.4c0,5.8,5.1,10.5,11.3,10.5s11.3-4.8,11.3-10.5s-5.1-10.6-11.3-10.6S269.3,547.6,269.3,553.4z"/>
		<path class="st14" d="M272,553.4c-0.3,4.7,3.3,8.8,8.1,9.1c4.7,0.3,8.8-3.3,9.1-8c0.3-4.7-3.3-8.8-8.1-9.1c-0.1,0-0.4,0-0.5,0
			C276,545.2,272.2,548.7,272,553.4z"/>
		<path class="st14" d="M327.7,491.3c0.4-0.4,0.1-1.6,0.5-2c5.7-6.5,9.6-11.1,10.1-11.4c2.2,0.4,4.4,0.4,6.5,0l0.7,0.6
			c-0.1,2.3,0.6,5.4,1.6,6.5c-0.4,0.5-4.7,5.5-10.6,12.5c-0.4,0.6-1.7,0.3-2.2,0.9c-17.8,20.6-48.5,56.3-48.5,56.3l-7.1-6.7
			C278.5,548.4,310.2,511.5,327.7,491.3z M335.3,492.6l0.7,0.6c0.1,0.1,0.3,0.1,0.4-0.1l7.3-8.9c0.1-0.1,0.1-0.2,0-0.4l0,0l-0.8-0.6
			c-0.1-0.1-0.3-0.1-0.4,0.1l-7.3,8.9C335.2,492.4,335.2,492.5,335.3,492.6L335.3,492.6z M332.2,490.3l0.7,0.6
			c0.1,0.1,0.3,0.1,0.4-0.1l7.3-8.9c0.1-0.1,0.1-0.2,0-0.4l0,0l-0.7-0.6c-0.1-0.1-0.3-0.1-0.4,0.1l-7.3,8.9
			C332.1,490,332.1,490.2,332.2,490.3z"/>
		<path class="st7" d="M347.7,491.4c0,0-1.6-0.4-1.1-0.9c0.4-0.5,1-1.4,1-1.4l-2.8-2.2l0.4-0.4l2.9,2.1c0,0,0.6-1,1-1.2
			c0.3-0.1,1.9,0.9,1.6,1.6C350.2,489.4,348.5,491.4,347.7,491.4z"/>
		<path class="st7" d="M344.2,495.1c-0.5-0.1-1-0.7-0.8-1.1s0.5-0.7,0.8-0.9l-2.5-2.4l0.3-0.4l2.7,2.1c0,0,0.7-1.2,1.2-1.2
			c0.6,0.1,1.3,0.7,1,1.3C346.6,493,344.9,495.3,344.2,495.1z"/>
		<path class="st7" d="M341.2,499.4c-0.5,0-1.4-0.7-1.2-1.1c0.3-0.4,0.6-0.8,1-1.2l-2.5-2.3l0.4-0.6l2.6,2c0,0,0.7-1.3,1.2-1.1
			c0.6,0.2,1.2,0.8,1,1.4C343.4,497,341.7,499.4,341.2,499.4z"/>
		<path class="st7" d="M328,483c0,0,1.6,0.4,1.1,0.9s-1,1.4-1,1.4l2.8,2.2l-0.4,0.4l-2.9-2.1c0,0-0.6,1-1,1.2
			c-0.3,0.1-1.9-0.9-1.6-1.6C325.6,485.1,327.2,483.1,328,483z"/>
		<path class="st7" d="M331.6,479.4c0.5,0.1,1,0.7,0.8,1.1c-0.2,0.4-0.5,0.7-0.8,1l2.5,2.3l-0.3,0.4l-2.7-2.1c0,0-0.7,1.2-1.2,1.2
			c-0.5-0.1-1.3-0.7-1-1.3C329.1,481.5,330.8,479.1,331.6,479.4z"/>
		<path class="st7" d="M334.6,475.1c0.5,0,1.4,0.7,1.2,1.1c-0.3,0.4-0.6,0.8-0.9,1.2l2.5,2.3l-0.4,0.6l-2.6-2c0,0-0.7,1.3-1.2,1.1
			c-0.5-0.2-1.2-0.8-1-1.4C332.5,477.6,334,475.1,334.6,475.1z"/>
		<path class="st17" d="M337.5,492.7c0,0-27.8,31.9-40.5,46.6c-12.7,14.7-31.3,36.2-31.3,36.2"/>
		<path class="st17" d="M340,487.9c0,0-30.9,34.7-43.5,49.4l-31.2,36.3"/>
		<path class="st17" d="M336.7,485.4c0,0-30.9,34.7-43.5,49.5c-12.6,14.7-31.2,36.2-31.2,36.2"/>
		<path class="st17" d="M342.3,483.1c0,0-34.8,39.6-47.5,54.3c-12.6,14.7-31.2,36.3-31.2,36.3"/>
		<path class="st17" d="M341,482.2c0,0-34.2,39.3-46.8,54c-12.7,14.7-32.3,36.1-32.3,36.1"/>
		<path class="st17" d="M332.3,488.4c0,0-27.8,31.9-40.5,46.6c-12.6,14.7-31.2,35-31.2,35"/>
		<path class="st14" d="M257,568.2l0.2-0.3c0.7-0.8,1.9-0.9,2.7-0.3c0.1,0,0.1,0.1,0.1,0.1l7.5,6.8c0.8,0.7,0.9,2.1,0.2,2.9
			l-0.2,0.3L257,568.2z"/>
		<path class="st13" d="M249.2,528.4c0.2,8,7,17.8,20.4,18.9c4.9,0.2,10.6,0.6,10.2,7.3c-0.4,6.9-2.2,7.3-3.6,7.3
			c-2.4,0-2.1-2.9-1.6-9.2c-4.7-1.6-10.9-1.4-16-3.6c-12.1-5-18.1-24.7-13.7-27.8C248.7,518.6,249.1,524.1,249.2,528.4z"/>
	</g>
</g>
<g id="Layer_2_00000028289030347217766340000012031964343186619021_">
	<g id="Layer_1-2_00000034088998590554678800000013528451129460778394_">
		<path class="st4" d="M292.9,254.9c0,38,30.6,68.9,68.5,68.9c37.8,0,68.5-30.8,68.5-68.9s-30.7-68.9-68.5-68.9
			C323.6,185.9,292.9,216.8,292.9,254.9z"/>
	</g>
</g>
<g id="Layer_2_00000138566945838864960930000009467047025808804007_">
	<g id="Layer_1-2_00000168818770732222906070000002798772775963393709_">
		<path class="st18" d="M538.3,312.5c-0.1-3.3-1.2-31.1-21.8-39.9c-20.6-8.7-38,11.9-38,11.9s-2.5-38.4-27.4-33.8
			s-24.3,26.4-24.3,26.4s-8.2-13.2-21.8-8.7c-15.1,5-12.5,18.9-12.5,18.9s-8.4-10.1-20.8-2.7s-19.1,20.6-16,34.8
			c3.1,14.3,15.4,33,91.3,26.2C522.7,338.6,538.6,336.1,538.3,312.5z"/>
	</g>
</g>
<g>
	<path class="st19" d="M684.6,448.7c0.8-1.1,1.4-2.5,1.7-3.9l-8.6-7.9l-4.5,6.9l8,7.7C681.1,451.5,682.9,451.2,684.6,448.7"/>
	<path class="st20" d="M639.1,414.6c6.7-11,19.8-9.7,26.2-7.5c2.8,1.1,5.4,2.6,7.8,4.3c2.1,1.4,14.6,14.2,3.4,29.7
		c-8.8,12.2-21.6,10.5-30.3,5.3c-1.4-0.8-2.8-1.9-3.9-3.1C635.5,436.7,633.4,423.9,639.1,414.6"/>
	<path class="st21" d="M635.5,421.5c1.7,0.5,3.3,0.6,5,0.3c9.7-2.4,7.9-12.8,6.7-15"/>
	<path class="st21" d="M644.1,408.4c1.9,3.2,1,7.2-1.9,9.5c-1.7,1.3-5.1,1.2-6.1,0.9"/>
	<path class="st22" d="M665.3,416.1l-9.3,0.4l5.9,8.2C663.5,422,664.6,419.1,665.3,416.1"/>
	<path class="st22" d="M658.1,429.4c1.2-1.4,2.4-3.1,3.3-4.8l-9.2-1l3.6,8.3C656.7,431.1,657.4,430.2,658.1,429.4"/>
	<path class="st22" d="M665.3,407.1l-7.4,1.6l7.7,7.7C666.2,413.3,665.8,409.8,665.3,407.1"/>
	<path class="st22" d="M655.9,431.9l-8.8-3.3l1.4,8.9C651.3,435.9,653.8,434.1,655.9,431.9"/>
	<path class="st22" d="M648.6,437.4l-8.7-4.5l0.1,7.4C643.1,439.8,645.9,438.8,648.6,437.4"/>
	<path class="st22" d="M666.4,435c-6,7.2-14.2,11.2-21.2,11c0.6,0.3,12.3,1.9,12.3,1.9l-0.9-4.9l9.1,1.2l-1.4-6.9l9.2-0.6l-3.2-7.4
		l6.4-0.7l-3.5-7.1l4.5-0.4l-4.5-9.3l0.1,0.3C674.8,418.7,672.3,427.9,666.4,435"/>
	<path class="st19" d="M665.3,407.1c1.4,6.8-1,14.9-7.1,22.1c-5.3,6.4-12.2,10.3-18.6,11.1c1.3,2.4,3.3,4.3,5.6,5.8
		c7,0.2,15.1-3.7,21.1-11c6.5-7.8,8.6-16.1,6.8-23.5C670.8,409.6,668.2,408,665.3,407.1"/>
	<path class="st15" d="M646,441.5c0.6-0.1,1.2,0.3,1.3,0.9c0.1,0.6-0.3,1.1-0.9,1.3c-0.6,0.1-1.2-0.3-1.3-0.9l0,0
		c-0.1-0.6,0.2-1.1,0.8-1.2C646,441.5,646,441.5,646,441.5"/>
	<path class="st15" d="M651.7,439.1c0.7-0.2,1.3,0.2,1.6,0.9s-0.2,1.3-0.9,1.6c-0.1,0-0.1,0-0.2,0c-0.7,0.1-1.3-0.4-1.4-1
		C650.6,439.8,651.1,439.2,651.7,439.1"/>
	<path class="st15" d="M657.7,435.5c0.7-0.1,1.4,0.4,1.7,1.1c0.1,0.7-0.4,1.4-1.1,1.7c-0.7,0.1-1.4-0.4-1.7-1.1
		C656.5,436.3,657,435.6,657.7,435.5L657.7,435.5"/>
	<path class="st15" d="M662.2,430.5c0.8-0.1,1.7,0.4,1.8,1.2c0.1,0.8-0.4,1.7-1.2,1.8s-1.7-0.4-1.8-1.2
		C660.8,431.5,661.3,430.6,662.2,430.5L662.2,430.5"/>
	<path class="st15" d="M666.3,424.5c0.8-0.1,1.7,0.4,1.8,1.2l0,0c0.1,0.8-0.4,1.7-1.2,1.8c-0.8,0.1-1.7-0.4-1.8-1.2
		C664.9,425.5,665.5,424.8,666.3,424.5"/>
	<path class="st15" d="M668.9,418c0.7-0.1,1.4,0.4,1.7,1.1c0.1,0.7-0.4,1.4-1.1,1.7c-0.7,0.2-1.4-0.4-1.7-1.1l0,0
		C667.5,418.9,668.1,418.1,668.9,418"/>
	<path class="st15" d="M669.6,411.6c0.7-0.1,1.2,0.4,1.3,1c0.1,0.6-0.4,1.2-1,1.3c-0.6,0.1-1.2-0.4-1.3-1
		C668.5,412.3,668.9,411.7,669.6,411.6L669.6,411.6"/>
	<path class="st23" d="M868.8,571.9c4.5,2.6,9.4,4.7,14.4,6.2"/>
	<path class="st23" d="M862.3,564.5c5.2,2.1,10.4,3.8,15.8,5.2"/>
	<path class="st23" d="M874.3,562.8c2.7,0.8,5.5,1.4,8.3,1.9"/>
	<path class="st23" d="M882.2,571.2c3.5,0.7,7,1,10.5,0.9"/>
	<path class="st23" d="M882.2,573.9c5.3,1.8,11.3,2.2,16.9,2.2"/>
	<path class="st23" d="M877.2,580.1c7.3,2.8,17.7,3.2,24.6,2.9"/>
	<path class="st23" d="M863,574.3c4.3,1.8,8.8,3.2,13.3,4.4"/>
	<path class="st23" d="M880.4,569.1c6.1,0.7,12.3,0.3,18.3-1.1"/>
	<path class="st23" d="M867,564c3.5,0.5,7,0.9,10.6,1.1"/>
	<path class="st23" d="M880.1,560.6c3.5,0.3,7,0.2,10.4-0.5"/>
	<path class="st23" d="M884,564.3c4,0.4,8.2,0.2,12.2-0.5"/>
	<path class="st23" d="M877.5,566.7c2.6,0.5,5.3,0.9,7.9,1.1"/>
	<path class="st23" d="M881.3,590c3.8,0.4,7.8,0.5,11.7,0.3"/>
	<path class="st23" d="M868.4,557c2.6,1.1,5.5,2.2,8.4,3.1"/>
	<path class="st23" d="M861.5,567.8c2.3,1.3,4.5,2.7,6.8,3.9"/>
	<path class="st23" d="M872.1,570.7c2.9,1.1,5.9,2.2,8.9,3.1"/>
	<path class="st23" d="M886,580.1c2.7-0.1,5.4-0.4,8.1-0.8"/>
	<path class="st23" d="M894.3,572.6c2.3,0.1,4.8,0,7.1,0"/>
	<path class="st23" d="M863.4,579.8c6.3,2.1,12.8,3.5,19.4,4.2"/>
	<path class="st23" d="M852.4,571c2.3,1.1,4.5,2.5,6.7,3.4"/>
	<path class="st23" d="M896.4,579.1c6.2-0.7,13.2-1,20.5-4.4"/>
	<path class="st23" d="M901.1,569.4c3.4,0.1,6.8-0.2,10.1-0.8"/>
	<path class="st23" d="M901.6,563.8c2.1-0.2,4.1-0.5,6.2-1"/>
	<path class="st23" d="M893.7,561.1c1.6,0,5-0.3,7-0.5"/>
	<path class="st23" d="M890.2,557.9c1.6,0.5,3.2,0.8,4.9,1"/>
	<path class="st23" d="M898.8,581.2c4.4-0.5,8.8-1.2,13-2.4"/>
	<path class="st23" d="M888,587.4c4.7,0.8,9.8,0.5,13.1,0.6"/>
	<path class="st23" d="M871.4,585.4c3.5,0.8,7,1.4,10.6,1.9"/>
	<path class="st23" d="M875.1,555.5c2,0.6,5,1.8,6.2,2"/>
	<path class="st23" d="M857.1,568.7c2.5,1,5.1,2.1,7.5,2.9"/>
	<path class="st23" d="M861.7,558c2.3,1,4.5,1.9,6.8,2.6"/>
	<path class="st23" d="M882.9,555c3,0.6,6.1,0.9,9.2,0.7"/>
	<path class="st23" d="M860.3,582.7c5.1,2.9,10.4,5.3,15.9,7.3"/>
	<g class="st24">
		<g>
			<g>
				<g>
					<g>
						<defs>
							<rect id="SVGID_1_" x="845.3" y="629.8" width="1" height="0.3"/>
						</defs>
						<clipPath id="SVGID_00000060029638580541240580000004748928869818906772_">
							<use xlink:href="#SVGID_1_"  style="overflow:visible;"/>
						</clipPath>
						<path style="clip-path:url(#SVGID_00000060029638580541240580000004748928869818906772_);fill:#4A493E;" d="M845.3,630
							c1.7-0.1-0.9-0.4,1-0.2C846.1,630.1,845.7,630.2,845.3,630"/>
					</g>
				</g>
			</g>
		</g>
	</g>
	<g class="st24">
		<g>
			<g>
				<g>
					<g>
						<defs>
							<rect id="SVGID_00000077310903051332287850000004241021738993270146_" x="842.4" y="629.2" width="0.9" height="0.8"/>
						</defs>
						<clipPath id="SVGID_00000083782634919625855500000014269182850606136732_">
							<use xlink:href="#SVGID_00000077310903051332287850000004241021738993270146_"  style="overflow:visible;"/>
						</clipPath>
						<path style="clip-path:url(#SVGID_00000083782634919625855500000014269182850606136732_);fill:#4A493E;" d="M843.3,630.1
							c-0.3-0.3-1.6-0.5-0.6-0.8C842.8,629.4,843.4,629.8,843.3,630.1"/>
					</g>
				</g>
			</g>
		</g>
	</g>
	<g class="st24">
		<g>
			<g>
				<g>
					<g>
						<defs>
							<rect id="SVGID_00000158026742518791730200000011702903670337544374_" x="811.7" y="625.3" width="1" height="0.3"/>
						</defs>
						<clipPath id="SVGID_00000020384682018599276790000011913227449112563900_">
							<use xlink:href="#SVGID_00000158026742518791730200000011702903670337544374_"  style="overflow:visible;"/>
						</clipPath>
						<path style="clip-path:url(#SVGID_00000020384682018599276790000011913227449112563900_);fill:#4A493E;" d="M812.2,625.5
							c0,0.1-0.4-0.1-0.5-0.2c0.4,0,0.7-0.2,1,0C812.3,625.3,812.4,625.4,812.2,625.5"/>
					</g>
				</g>
			</g>
		</g>
	</g>
	<g class="st24">
		<g>
			<g>
				<g>
					<g>
						<defs>
							<rect id="SVGID_00000129903993919779828000000018342682656575949499_" x="804.2" y="624.6" width="2.9" height="0.3"/>
						</defs>
						<clipPath id="SVGID_00000101070473031937600610000016957442822595472309_">
							<use xlink:href="#SVGID_00000129903993919779828000000018342682656575949499_"  style="overflow:visible;"/>
						</clipPath>
						<path style="clip-path:url(#SVGID_00000101070473031937600610000016957442822595472309_);fill:#4A493E;" d="M804.2,624.9
							c0.9-0.3,1.9-0.4,2.9-0.3L804.2,624.9z"/>
					</g>
				</g>
			</g>
		</g>
	</g>
	<g class="st24">
		<g>
			<g>
				<g>
					<g>
						<defs>
							<rect id="SVGID_00000100351397622442663900000003214806969225036961_" x="796.5" y="623" width="0.8" height="0.3"/>
						</defs>
						<clipPath id="SVGID_00000031194228360357251880000001443977584652994200_">
							<use xlink:href="#SVGID_00000100351397622442663900000003214806969225036961_"  style="overflow:visible;"/>
						</clipPath>
						<path style="clip-path:url(#SVGID_00000031194228360357251880000001443977584652994200_);fill:#4A493E;" d="M796.8,623.3
							c-0.6-0.2-0.4-0.3,0.4-0.3C797.3,623.2,797,623.2,796.8,623.3"/>
					</g>
				</g>
			</g>
		</g>
	</g>
	<g class="st24">
		<g>
			<g>
				<g>
					<g>
						<defs>
							<rect id="SVGID_00000078765666219752529020000008065402323757368967_" x="795" y="623.6" width="1.2" height="0.3"/>
						</defs>
						<clipPath id="SVGID_00000058564087114554367330000014503071201978743962_">
							<use xlink:href="#SVGID_00000078765666219752529020000008065402323757368967_"  style="overflow:visible;"/>
						</clipPath>
						<path style="clip-path:url(#SVGID_00000058564087114554367330000014503071201978743962_);fill:#4A493E;" d="M796.2,623.9
							c-0.4,0-0.8-0.1-1.2-0.3C795,623.8,796.5,623.4,796.2,623.9"/>
					</g>
				</g>
			</g>
		</g>
	</g>
	<g class="st24">
		<g>
			<g>
				<g>
					<g>
						<defs>
							<rect id="SVGID_00000109737186369500926130000008577407336544915377_" x="778.6" y="621.9" width="1.7" height="0.2"/>
						</defs>
						<clipPath id="SVGID_00000031196661314610677190000015472018181511292825_">
							<use xlink:href="#SVGID_00000109737186369500926130000008577407336544915377_"  style="overflow:visible;"/>
						</clipPath>
						<path style="clip-path:url(#SVGID_00000031196661314610677190000015472018181511292825_);fill:#4A493E;" d="M780.1,622.1
							c-0.4,0-1.2,0.1-1.7-0.2C779,622.1,780.4,621.7,780.1,622.1"/>
					</g>
				</g>
			</g>
		</g>
	</g>
	<g class="st24">
		<g>
			<g>
				<g>
					<g>
						<defs>
							<rect id="SVGID_00000173842463459810631310000006062519709335409798_" x="771.7" y="621.7" width="0.8" height="0.3"/>
						</defs>
						<clipPath id="SVGID_00000057126375114219277630000018046572572331541425_">
							<use xlink:href="#SVGID_00000173842463459810631310000006062519709335409798_"  style="overflow:visible;"/>
						</clipPath>
						<path style="clip-path:url(#SVGID_00000057126375114219277630000018046572572331541425_);fill:#4A493E;" d="M772.6,622
							c-0.2,0-0.4,0-0.6,0c-0.4-0.1,0-0.3,0.4-0.3L772.6,622z"/>
					</g>
				</g>
			</g>
		</g>
	</g>
	<g class="st24">
		<g>
			<g>
				<g>
					<g>
						<defs>
							<rect id="SVGID_00000110455359718670875730000018421163450593218182_" x="777.8" y="619.9" width="0.8" height="0.2"/>
						</defs>
						<clipPath id="SVGID_00000114068302140789442690000002795355612786757309_">
							<use xlink:href="#SVGID_00000110455359718670875730000018421163450593218182_"  style="overflow:visible;"/>
						</clipPath>
						<polygon style="clip-path:url(#SVGID_00000114068302140789442690000002795355612786757309_);fill:#4A493E;" points="
							778.7,620.1 777.8,620.2 778.1,619.9 						"/>
					</g>
				</g>
			</g>
		</g>
	</g>
	<g class="st24">
		<g>
			<g>
				<g>
					<g>
						<defs>
							<rect id="SVGID_00000061435657449040123820000005469887906296134333_" x="834.4" y="619.7" width="0.7" height="0.2"/>
						</defs>
						<clipPath id="SVGID_00000163050640551144620350000002023686573699544762_">
							<use xlink:href="#SVGID_00000061435657449040123820000005469887906296134333_"  style="overflow:visible;"/>
						</clipPath>
						<path style="clip-path:url(#SVGID_00000163050640551144620350000002023686573699544762_);fill:#4A493E;" d="M835.1,619.8
							c-0.7,0.4-0.6-0.1-0.7,0C835.1,619.5,834.3,620.1,835.1,619.8"/>
					</g>
				</g>
			</g>
		</g>
	</g>
	<g class="st24">
		<g>
			<g>
				<g>
					<g>
						<defs>
							<rect id="SVGID_00000036952879285845556010000006691600279115859895_" x="803.9" y="625.3" width="0.2" height="0.5"/>
						</defs>
						<clipPath id="SVGID_00000102524773791150358920000007197448499859076496_">
							<use xlink:href="#SVGID_00000036952879285845556010000006691600279115859895_"  style="overflow:visible;"/>
						</clipPath>
						<polygon style="clip-path:url(#SVGID_00000102524773791150358920000007197448499859076496_);fill:#4A493E;" points="
							803.9,625.3 804.2,625.3 804.1,625.8 						"/>
					</g>
				</g>
			</g>
		</g>
	</g>
	<path class="st22" d="M986.7,527.9c-31.8,8.2-57,3.8-73.1-0.9c-12-3.5-28.4-8.6-45.6-4.5c-12,2.9-28,14.8-32.8,18.4v30.8
		c8.4,8.7,23.6,20.1,45,20.2c42.8,0.2,99.2-36,117.6-55.3C1016.9,516.7,1009.6,522,986.7,527.9"/>
	<path class="st22" d="M828,576.4h-14.3l1.7,32.9c0,0-20.1,2.7-18,6.8c2.8,5.6,10.9,0.7,10.9,0.7s-9,6.7-3.4,8.4s11-3.7,11-3.7
		c-2.9,12.5,14,5.5,11-5.7L828,576.4z"/>
	<path class="st22" d="M750.1,575.1c1.9-3.7,16.2-11,16.2-11l-21.9-4c0,0-9.2,11.4-9,15.3c0.3,5.2,4.9,31.2,4.9,31.2s-21.8-1-18.2,6
		c2,3.9,9.1-0.4,9.1-0.4s-5.2,5.4-2.3,7.9c2.9,2.5,12-4.7,12-4.7s-7,6.2,0.3,7c7.4,0.8,12.4-4.4,10.6-12.7
		C750.3,602.9,749.6,576.1,750.1,575.1"/>
	<path class="st22" d="M733.7,457.7c0,0-8.6,11.7-13.4,11.7c-5.5,0-22.4-11.8-22.4-11.8s2.8-10.3-1.2-11.3c-4-0.9-5.4,5-5.4,5
		l-5,8.1c0,0,1,5.4,2.5,6.4c11.3,7.3,28.5,18.3,33,18.3c8.9,0,19.6-16.3,19.6-16.3L733.7,457.7z"/>
	<path class="st36" d="M748.9,331.5c0,0,5.3-16.2,8.2-24.7c2.8-8.5,11.7-29.4,12.8-28.5c1.1,0.8,6,13.6,11,28
		c4.5,13.2,3.7,22.1,3.7,22.1L748.9,331.5z"/>
	<path class="st15" d="M764.9,306.2c1.1-1.2,2.3,0.7,3.6,4.4c1.3,3.7,4.8,13.9,4.8,13.9L758,326C758,326.1,763.8,307.5,764.9,306.2"
		/>
	<path class="st22" d="M788.6,324.6c-21.5-3-20.4-2.2-42,4.7c-30.4,7.9-26.4,8.7-57,15.5c-51.6,11.4-109.7,20.2-67.6,37.7
		c26.6,11.4,66.3,21,94.9,31.3c11.2,4,11.1,5.1,19.6,12c3.6,2.9,17.1,44.8,17.1,54.7c0.1,22.2-4.8,42.9-5.8,51.7
		c-2,15.7,5.1,5.1,23.7,9c13.7,2.9,61.9,11.2,64.9-3c7.3-35.7,1.1-76.9-4.7-93.6c-3.1-9.7-6.8-12.5-10.1-24
		c3.6-8.3,3.8-12.6,5.9-21.2c2.9,0.9,10.1,1.6,13.1,3.5c-1.8-5.4-7.9-9.8-12.7-14.7c5.9,0,12.7,2.9,19.5,4.9
		c-4.3-8-10.6-14.7-18.2-19.6c6.8-2,13.3,0,20.2,0c-7-8.8-12-12-20.2-16.2c-0.7-2.5-0.6-8.5-1.8-12.5c0.4-7.4,3.1-17.1,3.2-21.5
		c0.3-13.1,4.4-20.7,2.6-34.4C817.6,298.5,803.3,312.8,788.6,324.6"/>
	<path class="st20" d="M674.9,443.8c1.9,3,4,5.7,6.6,8.2c11.6,11.4,33.3,31.5,35.8,33.3c3.1,2.2,5.3,4,7.5,0.4
		c4.3-7-36-37.6-39-41.2c-1-1.3-3.4-2.2-4.9-3.3c-1.3-0.9-2.4-2.2-3-3.6L674.9,443.8z"/>
	<path class="st15" d="M693.3,405.9c0,0,57.6,0.7,78.3,52.5c6.7,16.9,15.3,28.1,16.5,53.1c1.2,25-4.1,42.6-4.1,42.6L744.7,543
		c0,0,5.6-42.5,4-63.8C744.7,428.5,699.7,409,693.3,405.9"/>
	<path class="st15" d="M779,365.6c-3,7.9-13.2,11.6-22.5,8.1c-6.9-2.6-12.1-13-4.1-22.1c7.3-8.3,13.9-8.2,20.8-4.4
		C779.6,350.6,782,357.8,779,365.6"/>
	<path class="st37" d="M757.9,357.7c-0.4,1.3,0.2,2.8,1.6,3.3c1.2,0.4,2.7-0.2,3.2-1.4c0.5-1.3-0.2-2.8-1.6-3.3
		C759.9,355.7,758.3,356.3,757.9,357.7L757.9,357.7z"/>
	<path class="st37" d="M751.4,404c6.4-0.9,11.6-7,11.6-7s1.6,21-10.8,21c-9.6,0-13.5-16.1-13.5-16.1S746.5,404.7,751.4,404"/>
	<polygon class="st15" points="797.7,326.9 820.2,309.9 815.3,336.8 	"/>
	<path class="st19" d="M746.1,527c0,0,45.2,5.7,61.1,4.9c10.6-0.7,21.1-2.7,31.3-5.7c0,0,0.6,15.9,0,28.8
		c-0.4,9.1-1.4,18.1-3.2,27.1c0,0-26.1-3.8-30.9-3.2l-1.6-8.3l-33.8-3l-6.7,7.5l-32.8-9.6L746.1,527z"/>
	<path class="st37" d="M796.7,534c0,0,2.4-58.5,14-74.5c11.4-15.7,21.6-15.4,21.6-15.4L830,439c0,0-13.3-1.2-27.7,19
		c-12.4,17.6-16,73.8-16,73.8L796.7,534z"/>
	<polygon class="st38" points="785.4,536.4 796.5,537.9 797,531.4 785.8,530.2 	"/>
	<path class="st20" d="M759.3,472.8c-0.2,3.5,0.1,7,0.8,10.4c3.1,15.9,9.4,44.9,10.4,47.8c1.2,3.5,2.2,6.4,6,4.7
		c7.5-3.3-8.2-51.5-8.6-56.1c-0.2-1.8-1.7-3.7-2.2-5.5c-0.5-1.6-0.6-3.1-0.4-4.8L759.3,472.8z"/>
	<path class="st19" d="M764.6,482.3c1.3-0.4,2.6-1.2,3.5-2.3l-2.6-11.4l-7.8,3.2l2.2,10.9C761.5,483.3,763.2,483.1,764.6,482.3"/>
	<path class="st20" d="M746.5,428.5c11.8-5.2,21.8,3.3,25.8,8.7c1.7,2.5,2.9,5.2,3.8,8c0.8,2.3,3.9,20-14.2,26.4
		c-14.2,5-23.8-3.7-27.9-12.8c-0.7-1.6-1.2-3.1-1.4-4.8C730.9,444.6,736.6,432.9,746.5,428.5"/>
	<path class="st21" d="M739.6,432.2c1,1.3,2.5,2.4,4,3c9.3,3.5,13.7-6.1,14.1-8.5"/>
	<path class="st21" d="M754.1,426.2c-0.3,3.7-3.2,6.6-6.9,6.8c-2.2,0.1-5-1.9-5.5-2.7"/>
	<path class="st22" d="M767.3,444.6l-7.9-5l0.1,10C762.3,448.3,764.9,446.7,767.3,444.6"/>
	<path class="st22" d="M753.9,451.4c1.9-0.5,3.6-1.1,5.4-2l-6.9-6.1l-1.8,8.8C751.6,452,752.7,451.7,753.9,451.4"/>
	<path class="st22" d="M772.4,437.2l-7-2.9l2,10.6C769.6,442.8,771.1,439.6,772.4,437.2"/>
	<path class="st22" d="M750.6,452.1l-5.3-7.8l-3.8,8.2C744.5,452.9,747.5,452.8,750.6,452.1"/>
	<path class="st22" d="M741.4,452.6l-4.5-8.7l-4.1,6.2C735.5,451.4,738.4,452.4,741.4,452.6"/>
	<path class="st22" d="M757.4,460.7c-9.1,2.5-18,1-23.7-3c0.3,0.6,9.1,8.6,9.1,8.6l2-4.4l6.8,6.2l2.8-6.6l8,4.8l1.7-8l5.7,3l1.1-7.9
		l3.9,2.3l1.6-10.2l-0.1,0.3C773.6,452.1,766.3,458.2,757.4,460.7"/>
	<path class="st19" d="M772.4,437.2c-2.7,6.4-9.4,11.7-18.4,14.2c-8,2.3-15.9,1.6-21.5-1.6c-0.2,2.7,0.2,5.4,1.3,7.9
		c5.7,4.1,14.6,5.5,23.7,3c9.7-2.7,16.2-8.4,18.9-15.3C775.5,442.4,774.1,439.6,772.4,437.2"/>
	<path class="st15" d="M737,454.5c0.5,0.3,0.8,0.9,0.5,1.6c-0.3,0.5-0.9,0.8-1.6,0.5c-0.5-0.3-0.8-0.9-0.5-1.4
		C735.8,454.5,736.4,454.2,737,454.5L737,454.5"/>
	<path class="st15" d="M743,455.9c0.6,0.3,0.9,1,0.6,1.7c-0.3,0.6-1,0.9-1.7,0.6c-0.6-0.3-0.9-1-0.6-1.7
		C741.6,455.8,742.3,455.6,743,455.9"/>
	<path class="st15" d="M749.9,456.3c0.7,0.3,1,1.1,0.7,1.9c-0.3,0.7-1.1,1-1.9,0.7c-0.7-0.3-1-1.1-0.7-1.9
		C748.4,456.2,749.2,455.9,749.9,456.3L749.9,456.3"/>
	<path class="st15" d="M756.4,454.7c0.8,0.4,1.1,1.2,0.7,2.1c-0.3,0.8-1.2,1.1-2.1,0.7c-0.7-0.4-1.1-1.2-0.7-2.1l0,0
		C754.8,454.6,755.7,454.3,756.4,454.7"/>
	<path class="st15" d="M763.2,452.1c0.8,0.4,1.1,1.2,0.7,2.1c-0.3,0.8-1.2,1.1-2.1,0.7s-1.1-1.2-0.7-2.1l0,0
		C761.5,452.1,762.3,451.8,763.2,452.1L763.2,452.1"/>
	<path class="st15" d="M769.1,448.2c0.7,0.3,1,1.1,0.7,1.9s-1.1,1-1.9,0.7c-0.7-0.3-1-1.1-0.7-1.9l0,0
		C767.5,448.2,768.3,447.9,769.1,448.2"/>
	<path class="st15" d="M773.3,443.4c0.6,0.3,0.8,1.1,0.5,1.7c-0.3,0.5-0.9,0.8-1.6,0.5c-0.6-0.3-0.9-1-0.6-1.7
		C772,443.4,772.7,443.1,773.3,443.4L773.3,443.4"/>
	<path class="st39" d="M768.2,482.5c-1.1-1.9-0.7-4.3,0.8-5.9c3.8-3.6,6.5,8.9,6.5,8.9s23.3,9.5,24.6,7.4c5.3-8.5,6.9-14.9,9.1-21.5
		c0.9-2.8,5.1-9.4,9.5-5.2c4.4,4.2,0.9,10.6,0.1,13.6c-2.6,9.5-7.8,25.7-17.7,26.5c-9.9,0.8-28.2-10-28.2-10s-8.5,5.6-11.8,1.9
		c-2.5-2.8-0.2-4-0.2-4c-1.7,0.6-6-3.3-2.7-6.5c-1.4-0.1-4-1.1-1-5.2S768.2,482.5,768.2,482.5"/>
	<path class="st22" d="M676.1,456.9c-0.5-3.8,3.4-15.4,7.7-13.4s0,10.4,0,10.4s3.2-8.3,8.1-6s-2.5,10.9-2.5,10.9s5.3-5,7.1-2
		c1.9,3-5.3,14.6-11.4,10.1C679.1,462.7,676.6,460.3,676.1,456.9"/>
	<path class="st37" d="M624.4,359.1c-15.3,3-28.1,5.9-16.1,15.7c11.2,9.1,33.2,15.1,33.2,15.1s2.9-25.9,0-34.4
		C641.5,355.5,628.7,358.3,624.4,359.1"/>
</g>
</svg>
