<?xml version="1.0" encoding="utf-8"?>
<!-- Generator: Adobe Illustrator 26.2.1, SVG Export Plug-In . SVG Version: 6.00 Build 0)  -->
<svg version="1.1" id="Capa_1" xmlns="http://www.w3.org/2000/svg" xmlns:xlink="http://www.w3.org/1999/xlink" x="0px" y="0px"
width="842" height="595"	 viewBox="0 0 842 595" style="enable-background:new 0 0 842 595;" xml:space="preserve">
<style type="text/css">
	.st0{fill:#94C133;}
	.st1{fill:#0CA0A4;}
	.st2{fill:#53BDC1;}
	.st3{fill:#E3D7C2;}
	.st4{fill:none;stroke:#1E8C51;stroke-width:1.14;stroke-linecap:round;}
	.st5{fill:#AA551A;}
	.st6{fill:#1E8C51;}
	.st7{opacity:0.42;}
	.st8{clip-path:url(#SVGID_00000155131776236879219350000000532772813696734654_);fill:#31302B;}
	.st9{fill:#030304;}
	.st10{fill:#814316;}
	.st11{fill:#FFFFFF;}
	.st12{fill:#C0E3E5;}
	.st13{fill:#DC7D1B;}
	.st14{fill:#F3920D;}
	.st15{fill:none;stroke:#DC7D1B;stroke-width:1.39;stroke-linecap:round;}
	.st16{opacity:0.67;fill:#C7D7CD;}
</style>
<g>
	<path class="st0" d="M909.7,508.2c15.5-31.4-235.2-48.7-278.5-98.7s-161-36.8-234.5-35.9s-21.8,64.6-116.9,67.3s-59.1,38,4.9,47.9
		c64.1,10,397.5,123.6,502.2,120.6C891.7,606.3,894.2,539.5,909.7,508.2"/>
	<path class="st0" d="M-182.4,467.3c-8.4,55.6,90.7,87.3,164.1,99.1s280-31.3,359.7-36.5s2.3-71.9,104.9-80.6s51.4-52.9-21.7-62.5
		S169.4,370.4,56.4,380C-56.5,389.6-174,411.7-182.4,467.3"/>
	<path class="st1" d="M41.9,432.9c0,0-49.6-33.9,155.2-16.9c134.4,11.2,128.2,41.5,225.3,25c90-24.9,178.3-4.5,211.9,9.8
		c56.5,24,98.9,77.5,98.9,77.5c24.3,0,5.3-6.1-14.1-6.1s-36.4,3.9-179.6-4c-114.5-11.5-121.4-10.7-225.4-10.7
		c-107.4,10.3-57.6,47-251.8,47c-77.7-9-111.4-34.5-126.2-53.3s-15.9-48.8,43.3-54.1C88.9,451,60,444.1,41.9,432.9"/>
	<path class="st2" d="M292.2,453.3c-1.3,0.8-3.1,0.3-4.6,0.8c-0.2,0,0-0.4-0.4-0.3c-1.4,0.6-3.7,0.4-5.5,0.1l0.1-0.1
		c-0.3-0.1-0.7,0.3-1.1,0.3c0-0.1,0.1-0.1,0-0.2c-0.1,0.2-0.6,0.1-0.8,0.3c-0.1-0.1-0.1-0.2-0.3-0.3l-0.2,0.3
		c-0.5,0.6-1.4,0-2.1,0.3c0-0.1,0.1-0.1,0-0.2c-1.4,0.3-2.8,0.5-4.1,0.6c0.1-0.1,0.1-0.2,0-0.3c-0.1,0.3-0.5,0.3-0.9,0.4
		c-0.2-0.3-0.6,0.3-1.1,0.1V455c-0.3,0.3-0.5-0.1-0.7,0.2l-0.2-0.2c-0.1,0.4-0.5-0.2-0.7,0v0.1c-0.2,0.1-0.4-0.1-0.6,0l0,0
		c-0.5,0.1-0.9-0.1-0.8,0.2c-0.2-0.2,0.5-0.1,0.2-0.4c-1.8,0.3-3.6,0.4-5.4,0.4c-0.2-0.1-0.3-0.1-0.4-0.2c-0.2,0.1-0.7,0.1-0.8,0.2
		c0.1,0-0.1-0.1-0.2-0.2c-0.3-0.1-0.3,0.3-0.7,0.2c0.1-0.1,0.2-0.2,0.1-0.3c-0.3,0.2-0.7,0.3-1.1,0.3c0.1-0.1,0.1-0.1,0.1-0.2
		c-0.4,0.3-0.7,0-1.1,0.1l0.1-0.2c-0.6-0.2-0.1,0.4-0.6,0.2c0.1-0.1,0.1-0.1,0.1-0.2c-0.4,0.3-1.2,0.2-1.6,0.4v-0.1
		c-0.5,0-1,0-1.5,0.1c-0.2-0.1,0-0.4-0.5-0.3c0,0.3-0.9,0.2-0.6,0.5c-0.5-0.1-1-0.1-1.4,0c0.2-0.1-0.2-0.4,0.1-0.4l-0.3-0.2
		c0-0.1,0.3,0,0.2-0.1c-0.3,0.1-0.6,0.1-0.9,0.1c-0.3,0.2-0.6,0.6-1.2,0.7c0.3-0.1-0.2-0.4,0-0.4l-0.7,0.7c-0.2,0-0.1-0.3-0.3-0.2
		c0,0.1-0.1,0.1-0.2,0.2c-0.1,0.1-0.8,0.1-0.9-0.2c-0.1-0.1,0.3-0.1,0.1-0.2s-0.4,0.1-0.7,0.1l0,0c-0.2,0-0.7,0.2-0.4,0.3
		c0.2,0-0.1-0.2,0.2-0.1c-0.2,0.2-0.6,0.3-0.9,0.3c0.1-0.1,0.1-0.1,0.1-0.2c-0.4,0.2-0.9,0.4-1.4,0.5c0,0.2,0.2-0.3,0.3-0.2
		c-0.7-0.2-1.3,0.4-1.9,0.1c0.1,0,0.1,0.2,0.1,0.2c-0.3,0-0.3-0.2-0.5-0.1c0-0.1-0.3,0.1-0.5,0.1s-0.1-0.1,0.1-0.1
		c-0.7,0.2-1.4,0.3-2.1,0.2c0,0.1-0.4,0.4-0.5,0.4v-0.3c-0.1-0.1-0.5,0-0.6-0.1c-0.3,0.3,1.3-0.3,0.8-0.1c-0.1-0.2-0.6,0.4-0.5,0.1
		c-0.3,0-0.6,0.3-0.9,0.1c0.1,0,0.2-0.3,0-0.3c-0.4,0.1-0.1,0.1-0.5,0.2l-0.2,0.1c0,0.2-0.4,0-0.2,0.2c-0.1-0.2-0.6,0.1-0.6-0.2
		v-0.3c-0.2,0-0.3,0.3-0.4,0.4l-0.1-0.1c0,0.4-0.5,0-0.7,0.3c-0.4-0.1-1,0.1-1.2-0.2c-0.3,0.2-0.6,0.3-0.9,0.2
		c0.1-0.1,0.2-0.1,0.2-0.1c-0.2-0.1-0.3,0-0.5,0.1c0-0.1-0.5-0.2-0.7-0.3c-0.3,0.1-0.2,0.4-0.2,0.5c-0.3-0.4-0.9,0.3-1.2,0
		c0.1-0.1,0.4-0.2,0.2-0.3c-0.3-0.4-0.5,0.3-1,0.2l0.1,0.3c-0.2-0.2-0.6,0.2-0.6-0.1c-0.1,0.1-0.5-0.1-0.5,0.2
		c-0.8-0.2-1.8,0.3-2.3-0.2c-0.1,0.1-0.4,0-0.3,0.2c0.1,0.2,0.2-0.1,0.3,0c-0.1,0-0.1,0.1-0.1,0.1c-0.2-0.1-0.4-0.1-0.2-0.3
		c-0.5-0.2-0.5,0.6-1.1,0.5c0-0.1,0-0.2-0.2-0.1l-0.3,0.3c-0.4,0-0.3-0.3-0.3-0.5c-0.2,0.1-0.5,0.1-0.6,0.3l-0.3-0.2
		c0.2,0.2-0.2,0.1-0.3,0.2l0.1-0.1c-0.1-0.1-0.3,0-0.4,0c0.1,0.1,0.3,0.2,0.5,0.2c-0.1,0.1-0.3,0.1-0.4,0.2c0-0.2-0.4-0.1-0.6-0.1
		s-0.2,0.2-0.3,0.2s-0.3,0-0.2-0.1s0.2,0.1,0.3,0c-0.1-0.1-0.2-0.3-0.4-0.1c-0.3,0.2,0.1,0.4-0.3,0.3c0.1-0.1,0.1-0.2,0.2-0.2
		l-0.4-0.1v0.2c-0.1,0,0-0.1-0.1-0.1c-0.1,0.2-0.6,0.1-0.6,0.4c-0.2,0-0.4-0.1-0.6-0.1c-0.2-0.1-0.5,0-0.7,0.2l0,0
		c-0.2,0-0.4,0.1-0.5,0.2c-0.3-0.1-0.2-0.7-0.5-0.4c-0.3,0.1-0.4,0.4-0.3,0.5c-0.6-0.1-1.1,0.4-1.7,0.1c-0.1,0.1,0,0.1-0.2,0.2
		c-0.8,0-1.7,0.5-2.4,0.2c0.2-0.1,0-0.2-0.1-0.3c-0.2,0.2-0.3-0.1-0.3,0.2c0,0.3,0.1,0.3,0.3,0.3c-0.5,0.2-1,0.2-1.5,0.1
		c0.1,0.1,0.1,0.1,0,0.2c0-0.3-0.4-0.3-0.6-0.1v0.2l-0.2-0.1c-0.1,0.1,0,0.4-0.3,0.3V460c-0.2,0.2-0.6,0.5-0.9,0.4l-0.3-0.2
		c-0.1,0.1-0.3,0.2-0.1,0.3c-0.5,0-0.9,0-1.1-0.2c-0.9,0.7-1.9,1-3,1.1v-0.1c-0.3-0.1-0.1,0.2-0.3,0.2c0.1-0.1-0.3-0.2-0.1-0.4
		c-0.4,0-0.4,0.3-0.7,0.5c0,0.2,0.2-0.2,0.2,0.1c0,0.1-0.6,0-0.6,0.3c-0.1-0.1-0.1-0.3-0.1-0.4l-0.2,0.2c-0.4-0.2,0.5-0.7,0.1-1
		l-0.2,0.1c-0.3-0.2,0.5-0.4-0.1-0.4c-0.2,0.2-0.3,0.6,0,0.7c-0.5,0.2,0,0.7-0.6,0.8c-0.2-0.1,0.4-0.1,0.2-0.3
		c-0.3-0.1-0.5,0.2-0.7,0.2c0.3,0,0.2,0.3,0,0.4c-0.3-0.1,0.1-0.3-0.3-0.2c0,0.2-0.3,0.4,0,0.4c0,0.4-0.4,0-0.5,0.3
		c-0.2-0.2,0.2-0.6-0.3-0.6c0.1,0.2-0.4,0.4-0.1,0.7c-0.1,0-0.2-0.1-0.2-0.3v-0.1c-0.3-0.1-0.4,0.5-0.7,0.1v0.2
		c-0.1-0.1-0.2-0.1-0.4-0.2c-0.2,0-0.5,0.5-0.7,0.1c-0.1,0.1-0.5,0.1-0.3,0.3c0.3,0.2,0.3-0.3,0.6,0c-0.3-0.2-0.4,0.1-0.5,0.3
		l-0.1-0.1c-0.1,0.1-0.3,0.1-0.3,0.3c0-0.1,0-0.2-0.1-0.2v0.2c-0.4,0.2-0.2-0.3-0.6-0.1l0.2-0.2c-0.1,0.1-0.3-0.1-0.4,0
		c0,0.2,0,0.5-0.1,0.6c-0.2,0.1-0.2-0.2-0.3,0.1l0.1-0.2c0-0.1-0.3-0.2-0.6-0.1s-0.3,0.5,0,0.5c-0.1,0.1-0.4,0-0.3-0.2
		c-0.3,0.2,0.1,0.2-0.1,0.4c-0.2-0.1-0.6-0.1-0.9-0.2l0.2-0.4l-0.2,0.1c0.1-0.3-0.2-0.1-0.2-0.4c-0.2,0-0.3,0.1-0.4,0.3
		c0.6,0.3-0.2,0.7,0.1,1c-0.5,0.3-0.8-0.8-1.1,0c0.1,0.1,0,0.4,0.3,0.2c-0.4,0.1-0.1,0.4-0.5,0.4c0.2-0.2-0.5-0.3-0.2-0.6
		c0,0.1,0.3,0,0.3,0c-0.2-0.1-0.1-0.4-0.5-0.3c-0.2,0.1-0.5,0.2-0.4,0.4c0.1,0.2,0.3-0.1,0.3,0.1c-0.4,0.2-0.6-0.1-0.6,0.3
		c0.2-0.1,0.4,0,0.5,0.2l0,0l-0.3,0.2v-0.2c-0.5,0.1,0,0.3-0.5,0.4l-0.4-0.2c0-0.3,0.7-0.1,0.5-0.5c-0.3,0.1-0.3,0.3-0.7,0.3
		l0.2-0.2c-0.1,0-0.5-0.4-0.8,0c-0.2,0.2,0,0.2,0.1,0.3c-0.5,0.2-0.5,0.4-0.8,0.6c-0.1-0.3-0.6,0.2-0.4-0.2c0.2,0.1,0.9-0.2,1-0.5
		c-0.3-0.3,0.4-0.1,0.3-0.5c-0.4,0.1-0.5-0.2-0.7-0.4c-0.1,0-0.2,0.2-0.2,0.2c0.1,0.2,0.2,0.2,0.3,0.4c-0.4,0.1-0.7,0.3-1,0.7
		c-0.2,0-0.3-0.3-0.1-0.3c-0.5,0.3-1,0.5-1.6,0.6c0.5,0.2-0.5,0.3-0.1,0.5c0.3,0,0.7,0.1,0.6,0.3c-0.2,0-0.1-0.1-0.2-0.2
		c-0.1,0.3-0.5-0.1-0.5,0.2c0.4-0.3-0.1-0.4-0.2-0.7c-0.3,0.3-0.1-0.2-0.4,0c-0.3,0.3-0.6,0.6-1,0.8c-0.6-0.1-1.2,0.5-1.6,0.8
		c-0.3,0-0.3-0.4-0.6-0.3s0.4,0.2-0.1,0.3v-0.1c-0.1,0.1-0.9,0.2-0.7,0.7l-0.1-0.4c-0.1,0-0.1,0.1-0.1,0.2c-0.1-0.1-0.2-0.1-0.1-0.3
		c-0.4-0.1-0.5,0.3-0.8,0.4l0.3,0.1c-0.4,0.4-0.8,0.4-1.2,0.6l-0.1-0.2l-0.2,0.2c0-0.1-0.2-0.2-0.3-0.1c-0.1,0-0.1,0.1-0.1,0.1
		l0.4-0.8c0.3,0-0.1,0.3,0.2,0.4c0.2,0.1,0.6-0.2,0.5-0.4c-0.2,0.1-0.1,0.1-0.2,0.2c-0.2-0.2,0-0.3,0-0.5c-0.1,0-0.2,0-0.2,0.1
		c0.1-0.2,0.2-0.3,0.5-0.5c-0.1,0.2,0.2,0.1,0.2,0.2c-0.1-0.2,0.1-0.4,0.5-0.5c0.4,0.1,0.5-0.5,1-0.6c0,0.3-0.1,0.6-0.3,0.8
		c0.3,0,0.3-0.1,0.6-0.2c-0.1-0.3,0-0.6,0.2-0.8l0.1,0.1c0.2-0.2,0.1-0.5,0.5-0.6c0.7-0.3,1.4-0.5,1.9-0.7l0.1,0.2
		c0.1-0.5,0.9-0.5,1.2-0.8c0.7-0.1,1.3-0.7,1.8-0.6c1-0.6,2.1-1.1,3.3-1.4l-0.1,0.3c0.1-0.3,0.2,0.1,0.4,0c-0.3-0.1,0.2-0.4,0.3-0.6
		c0.6-0.1,1.2-0.3,1.7-0.8l0.1,0.2c0.4-0.5,1.1-0.4,1.7-0.5c0.1,0.1,0.3,0.2,0.5,0.1c0.2-0.4,0.4-0.4,0.9-0.7
		c0.5-0.1,0.9-0.2,1.4-0.1c1.2-0.7,2.7-0.9,4.1-1.4l0.2,0.2c1.3-0.8,3.1-0.7,4.3-1.1v0.4c0.4,0,0.8-0.3,0.7-0.5
		c0.4,0,0.9-0.4,1.2-0.1c0.4,0,0.4-0.3,0.7-0.4c0.6,0,1.2-0.1,1.8-0.2H214c-0.1,0.1,0,0.2,0,0.2h0.1c0.3-0.1,1,0,0.7-0.4
		c0.9,0.1,1.8-0.5,2.6-0.2c-0.1-0.1,0.1-0.2,0.2-0.2c0.7,0,1.3-0.1,2-0.2c0.1,0-0.1,0.2,0.1,0.2c0.3,0,0-0.2,0.2-0.3
		c1.1-0.4,2.3,0,3.3-0.2c1.8-0.4,3.6-0.6,5.4-0.7v0.1c0.5-0.4,1.4,0.2,1.8-0.3c0.1,0.1,0.5,0,0.5,0.2c0.4-0.3,1.3,0.1,2-0.2
		l-0.2,0.1c0.7,0.1,1.3-0.2,2-0.1c-0.1,0-0.2,0.1-0.2,0.2c0.3,0.1,0.6-0.4,0.8,0c0.2,0,0.1-0.2,0-0.2c1.6,0,3.3-0.2,4.9-0.5
		c1.2,0.2,0.1,0.7,1,0.4c0.1,0.1,0-0.2,0.1-0.1c0.3-0.1,0.6,0.4,0.8,0.2c-0.1-0.3,0.2-0.2,0.1-0.3c0.7,0.1,0.9,0.4,1.4,0.1v0.1
		c0.6-0.4,1.4-0.2,1.9-0.7c3.6-0.2,7.1-0.6,10.7-0.8c3.5,0,6.9-0.3,10.5-0.2c0.5,0.3,1.2,0.3,1.8,0.1c0,0.1-0.1,0.1,0,0.1
		c0-0.3,0.6-0.1,0.7-0.3c1.3,0,2.5-0.1,3.9-0.1c-0.2,0-0.3,0.3-0.1,0.3l0.3-0.2v0.1c0.2-0.1,0.4-0.2,0.2-0.3c3.4-0.4,6.7,0.1,10-0.2
		c0.9,0,1.8,0,2.7-0.2c2.5,0.3,4.9,0.2,7.4-0.2C293.3,452.8,292.8,453.1,292.2,453.3"/>
	<path class="st2" d="M147.1,507c-1.5,0.9-3.5,0.2-5.2,0.8c-0.2,0,0-0.4-0.4-0.3c-1.6,0.7-4.2,0.6-6.2,0.3l0.1-0.1
		c-0.4-0.1-0.8,0.4-1.2,0.4c0-0.1,0.1-0.1,0-0.2c-0.1,0.2-0.7,0.2-0.9,0.4c-0.2-0.1-0.2-0.3-0.4-0.4l-0.2,0.3
		c-0.5,0.7-1.6,0.1-2.4,0.5c0-0.1,0.1-0.1,0-0.2c-1.5,0.4-3.1,0.7-4.6,0.9c0.1-0.1,0.1-0.3,0-0.4c0,0.3-0.5,0.4-0.9,0.5
		c-0.2-0.3-0.7,0.3-1.2,0.2v-0.1c-0.3,0.3-0.5-0.1-0.8,0.3l-0.3-0.2c-0.1,0.4-0.6-0.2-0.8,0.1v0.1c-0.3,0.1-0.4-0.1-0.7,0l0,0
		c-0.6,0.2-1,0-0.9,0.3c-0.3-0.2,0.6-0.2,0.2-0.5c-2,0.5-4,0.8-6.1,0.9c-0.2-0.1-0.4-0.1-0.5-0.2c-0.2,0.1-0.8,0.1-0.9,0.3
		c0.1,0-0.1-0.1-0.3-0.2c-0.4-0.1-0.3,0.4-0.8,0.3c0.1-0.1,0.2-0.2,0.1-0.3c-0.4,0.2-0.8,0.4-1.2,0.4c0.1-0.1,0.1-0.1,0.1-0.2
		c-0.4,0.3-0.8,0-1.2,0.3l0.1-0.2c-0.7-0.1-0.1,0.4-0.7,0.3c0.1-0.1,0.1-0.1,0.1-0.2c-0.5,0.4-1.3,0.4-1.8,0.5v-0.1
		c-0.6,0-1.2,0.1-1.8,0.3c-0.2-0.1,0-0.5-0.6-0.3c0.1,0.4-1,0.3-0.6,0.7c-0.5-0.1-1.1,0-1.6,0.1c0.2-0.2-0.3-0.4,0.1-0.5l-0.3-0.2
		c0-0.2,0.3,0,0.2-0.2c-0.3,0.1-0.6,0.2-1,0.2c-0.4,0.3-0.6,0.7-1.3,0.9c0.3-0.2-0.2-0.4,0-0.5l-0.8,0.8c-0.2,0-0.1-0.3-0.4-0.2
		c0,0.1-0.1,0.2-0.2,0.3s-0.9,0.2-1-0.2c-0.1-0.1,0.3-0.1,0.1-0.2c-0.4,0-0.4,0.2-0.8,0.2v-0.1c-0.3,0-0.7,0.2-0.4,0.4
		c0.2,0-0.1-0.2,0.2-0.1c-0.3,0.2-0.6,0.4-1,0.4c0.1-0.1,0.1-0.2,0.1-0.3c-0.5,0.3-1,0.5-1.6,0.7c0,0.2,0.2-0.3,0.3-0.3
		c-0.8-0.2-1.5,0.5-2.1,0.2c0.1,0,0.1,0.2,0.1,0.2c-0.4,0-0.4-0.2-0.6-0.1c0-0.1-0.3,0.1-0.5,0.2c-0.2,0.1-0.1-0.1,0.1-0.1
		c-0.8,0.3-1.6,0.4-2.4,0.4c0,0.1-0.4,0.4-0.6,0.4v-0.2c-0.2-0.1-0.6,0.1-0.6-0.1c-0.3,0.3,1.4-0.4,0.9-0.1
		c-0.1-0.2-0.7,0.4-0.6,0.1c-0.4,0-0.7,0.3-1,0.1c0.1,0,0.3-0.4,0-0.3c-0.5,0.1-0.1,0.1-0.5,0.2l-0.2,0.1c0,0.2-0.5,0-0.2,0.2
		c-0.1-0.2-0.7,0.2-0.7-0.2v-0.4c-0.2,0-0.3,0.3-0.5,0.5l-0.1-0.1c0,0.5-0.5,0-0.8,0.4c-0.5-0.1-1.2,0.1-1.4-0.2
		c-0.3,0.2-0.7,0.3-1.1,0.3c0.1,0,0.2-0.1,0.2-0.2c-0.3-0.1-0.3,0-0.5,0.1c0-0.1-0.5-0.2-0.8-0.4c-0.3,0.1-0.2,0.4-0.2,0.5
		c-0.4-0.4-1,0.4-1.4,0c0.1-0.1,0.5-0.2,0.2-0.3c-0.4-0.4-0.6,0.4-1.2,0.2l0.1,0.4c-0.2-0.2-0.7,0.3-0.7-0.1
		c-0.2,0.1-0.6-0.1-0.5,0.3c-0.9-0.2-2.1,0.3-2.6-0.3c-0.1,0.1-0.4,0-0.4,0.2c0.2,0.2,0.3-0.2,0.4,0c-0.1,0-0.1,0.1-0.1,0.2
		c-0.3-0.1-0.5-0.1-0.2-0.4c-0.6-0.2-0.6,0.6-1.3,0.5c0-0.2,0-0.2-0.3-0.2l-0.4,0.3c-0.5,0-0.3-0.3-0.3-0.6
		c-0.3,0.1-0.6,0.1-0.7,0.2l-0.3-0.3c0.2,0.2-0.2,0.2-0.3,0.2l0.1-0.1c-0.1-0.1-0.3,0-0.5,0c0,0.2,0.3,0.2,0.5,0.2
		c-0.1,0.1-0.3,0.1-0.5,0.2c0-0.3-0.4-0.2-0.6-0.2s-0.2,0.2-0.3,0.2c0-0.1-0.4,0-0.2-0.2c0.1,0,0.2,0.1,0.3,0
		c-0.2-0.1-0.2-0.3-0.5-0.1s0.1,0.5-0.4,0.3c0.1-0.1,0.1-0.2,0.2-0.3l-0.4-0.1v0.2c-0.1-0.1,0-0.1,0-0.1c-0.1,0.2-0.7,0.1-0.8,0.4
		c-0.2,0-0.5-0.1-0.7-0.2l0,0c-0.3-0.1-0.6,0-0.8,0.1v-0.1c-0.2,0-0.4,0.1-0.6,0.2c-0.4-0.2-0.1-0.9-0.5-0.6c-0.4,0-0.5,0.4-0.4,0.6
		c-0.6-0.2-1.4,0.2-2-0.1c-0.1,0.1,0,0.2-0.2,0.2c-0.9-0.1-2,0.3-2.7-0.2c0.3-0.1,0-0.2,0-0.4c-0.2,0.2-0.3-0.2-0.4,0.1
		c0,0.2,0,0.3,0.3,0.4c-0.6,0.1-1.2,0.1-1.8-0.1c0.2,0.1,0,0.2-0.1,0.2c0.1-0.3-0.4-0.4-0.7-0.3l-0.1,0.2l-0.2-0.2
		c-0.1,0.1-0.1,0.4-0.5,0.2l-0.1-0.2c-0.3,0.2-0.8,0.4-1.1,0.2l-0.3-0.3c-0.2,0-0.4,0.2-0.2,0.3c-0.6-0.2-1-0.2-1.2-0.5
		c-1.2,0.5-2.5,0.6-3.8,0.4v-0.1c-0.3-0.2-0.2,0.3-0.4,0.1c0.1-0.1-0.2-0.3,0.1-0.5c-0.4-0.2-0.6,0.2-0.9,0.2
		c-0.1,0.2,0.3-0.1,0.2,0.1c-0.1,0.1-0.6-0.2-0.7,0.1c-0.1-0.1,0-0.3,0.1-0.5l-0.3,0.1c-0.3-0.4,0.9-0.5,0.5-1h-0.3
		c-0.2-0.3,0.7-0.3,0.1-0.4c-0.3,0.1-0.6,0.5-0.4,0.7c-0.6,0-0.4,0.7-1,0.6c-0.2-0.2,0.5,0,0.4-0.2c-0.3-0.3-0.6,0.1-0.9,0
		c0.3,0.1,0,0.4-0.2,0.5c-0.3-0.2,0.2-0.3-0.2-0.3c-0.1,0.2-0.5,0.2-0.2,0.4c-0.2,0.4-0.5-0.2-0.8,0.1c-0.1-0.3,0.6-0.6,0.1-0.8
		c0,0.3-0.7,0.3-0.5,0.7c-0.2-0.1-0.2-0.3,0-0.5c-0.3-0.2-0.8,0.4-0.8-0.1l-0.1,0.3c-0.1-0.1-0.2-0.2-0.3-0.3
		c-0.2,0-0.9,0.3-0.8-0.1c-0.1,0-0.7,0-0.5,0.3c0.3,0.2,0.4-0.2,0.6,0.2c-0.2-0.3-0.5,0-0.7,0.1v-0.2c-0.1,0.1-0.4,0-0.5,0.1
		c0.1-0.1,0.1-0.2,0-0.2l-0.2,0.2c-0.5,0,0-0.4-0.5-0.4l0.4-0.1c-0.1,0-0.2-0.2-0.4-0.2c-0.1,0.2-0.3,0.4-0.5,0.6
		c-0.3,0-0.1-0.3-0.4-0.1l0.4-0.2c0.1-0.1-0.2-0.4-0.5-0.5s-0.7,0.3-0.3,0.5c-0.2,0-0.4-0.2-0.2-0.3c-0.4,0,0,0.2-0.4,0.3
		c-0.1-0.2-0.5-0.4-0.7-0.7l0.4-0.3H38c0.4-0.2-0.1-0.2,0.1-0.5c-0.2-0.1-0.4,0-0.5,0c0.4,0.6-0.7,0.6-0.7,1c-0.7,0-0.2-1.1-1-0.6
		c0.1,0.1-0.3,0.4,0.1,0.4c-0.4-0.1-0.4,0.4-0.9,0.1c0.4-0.1-0.3-0.5,0.3-0.7c-0.1,0.1,0.3,0.2,0.4,0.1c-0.1-0.2,0.1-0.4-0.3-0.5
		c-0.3,0-0.6-0.1-0.6,0.2c0,0.2,0.4,0,0.2,0.3c-0.5,0-0.5-0.4-0.9,0c0.2,0,0.3,0.1,0.3,0.3c0,0.1,0,0.1,0,0.1h-0.4l0.1-0.2
		c-0.6-0.2-0.3,0.3-0.9,0.1l-0.2-0.4c0.2-0.2,0.8,0.3,0.9-0.2c-0.4-0.1-0.6,0.1-0.9-0.1h0.3c-0.1-0.1-0.1-0.7-0.7-0.5
		c-0.3,0.1-0.1,0.1-0.2,0.3c-0.6-0.1-0.9,0-1.3,0c0.2-0.3-0.7-0.2-0.1-0.4c0.4,0.3,0.9,0.4,1.3,0.2c-0.1-0.5,0.5,0.2,0.7-0.2
		c-0.5-0.1-0.3-0.5-0.3-0.8c-0.1-0.1-0.3,0-0.4,0.1c-0.1,0.2,0,0.3,0,0.5c-0.5-0.2-1-0.2-1.4,0c-0.1-0.1-0.1-0.2,0-0.3
		c0.1-0.1,0.1-0.1,0.2-0.1c-0.7-0.1-1.3-0.3-1.9-0.5c0.3,0.5-0.7-0.1-0.6,0.3c0.3,0.2,0.5,0.5,0.2,0.6c-0.2-0.1,0.1-0.2,0-0.3
		c-0.3,0.1-0.3-0.4-0.7-0.2c0.6,0,0.3-0.4,0.5-0.7c-0.5,0.1,0.1-0.2-0.3-0.3c-0.5,0.1-1,0.1-1.5,0c-0.6-0.3-1.3-0.5-2-0.6
		c-0.2-0.2,0.1-0.5-0.1-0.7c-0.3-0.1,0.1,0.4-0.3,0.1h0.1c-0.2,0-0.8-0.5-1.2-0.1l0.3-0.3c-0.1-0.1-0.2,0-0.3,0
		c0.1-0.1,0-0.3,0.2-0.3c-0.2-0.4-0.7-0.2-1-0.3l0.1,0.3c-0.7,0-0.9-0.4-1.5-0.5l0.1-0.2h-0.4c0.2-0.2,0-0.4-0.3-0.3l1.1-0.2
		c0.2,0.2-0.4,0.2-0.3,0.4c0,0.3,0.6,0.3,0.8,0.2c-0.2-0.1-0.2-0.1-0.4,0c0.1-0.3,0.4-0.2,0.6-0.3c-0.1,0-0.2-0.2-0.3-0.1
		c0.3-0.1,0.6,0,0.8,0.1c-0.3,0,0,0.2-0.1,0.3c0.2-0.2,0.5-0.2,0.9,0c0.1,0.4,0.9,0.1,1.3,0.3c-0.3,0.2-0.6,0.3-1,0.3
		c0.2,0.2,0.3,0.1,0.6,0.3c0.2-0.2,0.6-0.4,0.9-0.4l-0.1,0.2c0.4,0,0.5-0.3,0.9-0.1c0.7,0.3,1.4,0.5,2.1,0.7l-0.1,0.2
		c0.5-0.3,1.2,0.1,1.7,0c0.7,0.4,1.7,0.2,2,0.7c1.4,0.2,2.6,0.3,4,0.6l-0.3,0.3c0.3-0.2,0.1,0.2,0.4,0.2c-0.2-0.3,0.4-0.2,0.6-0.4
		c0.7,0.3,1.4,0.3,2.1,0.1v0.2c0.6-0.3,1.3,0.2,2,0.3c0.1,0.1,0.2,0.3,0.4,0.3c0.4-0.2,0.8-0.3,1.3-0.4c0.5,0.1,1,0.2,1.5,0.4
		c1.6-0.3,3.2,0.1,4.9,0l0.1,0.3c1.6-0.4,3.5,0.1,4.9-0.1l-0.2,0.4c0.4,0.1,1-0.1,0.9-0.4c0.4,0.1,1.1-0.2,1.3,0.2
		c0.4,0.1,0.5-0.2,0.9-0.2c0.7,0.2,1.3,0.2,2,0.1h-0.2c-0.1,0.1-0.1,0.3,0.1,0.3c0.3-0.1,1.1,0.1,0.8-0.4c0.9,0.3,2-0.2,2.9,0.2
		c-0.1-0.1,0.1-0.2,0.2-0.3c0.7,0.1,1.5,0.1,2.2,0c0.1,0.1-0.2,0.2,0.1,0.2s0-0.2,0.2-0.2c1.3-0.3,2.6,0.2,3.7,0.1
		c2-0.3,4.1-0.2,6.1-0.4v0.1c0.6-0.4,1.6,0.3,2-0.3c0.2,0.1,0.6,0,0.5,0.2c0.5-0.3,1.5,0.2,2.2-0.2l-0.2,0.1c0.8,0.2,1.4-0.2,2.2,0
		c-0.1,0.1-0.2,0.1-0.2,0.2c0.3,0.2,0.7-0.5,0.9,0c0.2,0,0.1-0.3,0-0.2c1.8-0.1,3.6-0.3,5.4-0.7c1.3,0.2,0.2,0.8,1.2,0.4
		c0.1,0.1,0-0.2,0.1-0.1c0.4-0.2,0.7,0.5,0.9,0.2c-0.1-0.3,0.2-0.2,0.2-0.4c0.8,0.1,1,0.4,1.6,0.1v0.2c0.7-0.5,1.6-0.4,2.1-0.9
		c4.1-0.5,7.9-1.2,11.9-1.7c3.9-0.3,7.8-1,11.8-1.2c0.7,0.3,1.4,0.3,2.1,0c0,0.1-0.1,0.1,0,0.1c0-0.3,0.7-0.1,0.8-0.4
		c1.5-0.1,2.8-0.3,4.4-0.5c-0.2,0.1-0.3,0.3,0,0.3l0.3-0.2l0.1,0.1c0.2-0.1,0.4-0.3,0.2-0.3c3.8-0.7,7.7-0.4,11.4-0.8
		c1.1,0,2.1-0.1,3.1-0.3c2.8,0.4,5.7,0.4,8.5,0C148.3,506.5,147.8,506.9,147.1,507"/>
	<path class="st2" d="M161,436.7c-2.5,0.4-5.7-0.3-8.3,0.2c-0.3,0,0.1-0.4-0.6-0.3c-2.6,0.6-6.6,0.6-9.8,0.6l0.2-0.1
		c-0.6,0-1.3,0.4-1.9,0.5c0-0.1,0.2-0.1,0-0.2c-0.1,0.2-1.1,0.3-1.4,0.5c-0.3,0-0.3-0.2-0.6-0.2l-0.3,0.3c-0.9,0.7-2.4,0.4-3.7,1
		c0-0.1,0.2-0.1,0-0.2c-2.1,0.8-4.7,1.4-7.1,2.2c0.1-0.1,0.1-0.3-0.1-0.3c0,0.3-0.8,0.5-1.3,0.8c-0.4-0.2-1,0.5-1.8,0.6v-0.3
		c-0.4,0.4-0.9,0.1-1.2,0.5l-0.4-0.1c-0.1,0.4-0.9,0.1-1.2,0.4v0.1c-0.4,0.2-0.7,0.1-1,0.3h-0.1c-0.9,0.4-1.5,0.4-1.3,0.7
		c-0.4-0.1,0.8-0.4,0.2-0.5c-2.9,1.3-5.9,2.3-8.9,3.5c-0.4,0-0.6,0.1-0.7,0c-0.4,0.2-0.9,0.4-1.3,0.7c0.1,0-0.3-0.1-0.4,0
		c-0.6,0.1-0.4,0.5-1.1,0.6c0.2-0.2,0.2-0.3,0.1-0.3c-0.5,0.4-1.1,0.7-1.6,0.9c0.1-0.1,0.2-0.2,0.1-0.2c-0.5,0.5-1.2,0.4-1.7,0.8
		l0.1-0.2c-1,0.2-0.1,0.4-1,0.6c0.2-0.1,0.1-0.2,0.1-0.2c-0.8,0.5-1.7,1-2.5,1.3v-0.1c-0.9,0.3-1.7,0.7-2.5,1
		c-0.4,0.1-0.1-0.4-0.9,0c0.2,0.3-1.4,0.7-0.7,0.8c-0.8,0.2-1.6,0.5-2.4,0.8c0.3-0.2-0.5-0.2,0.1-0.5h-0.5c0-0.1,0.5-0.1,0.3-0.2
		c-0.5,0.2-0.9,0.5-1.4,0.6c-0.5,0.5-1.1,1-1.8,1.3c0.4-0.3-0.4-0.3-0.1-0.4l-1,1c-0.3,0.1-0.2-0.2-0.6,0c0.1,0.1-0.1,0.2-0.2,0.3
		c-0.1,0.1-1.3,0.5-1.5,0.2c-0.2-0.1,0.5-0.2,0.1-0.2c-0.6,0.2-0.5,0.3-1.1,0.5l0,0c-0.4,0.1-1.1,0.5-0.6,0.5
		c0.3-0.1-0.2-0.1,0.2-0.2c-0.4,0.3-0.9,0.6-1.4,0.7c0.2-0.1,0.1-0.2,0.2-0.3c-0.7,0.5-1.5,0.9-2.3,1.2c0.1,0.1,0.2-0.4,0.4-0.3
		c-1.2,0.1-2.2,1-3.2,1c0.1-0.1,0.2,0.2,0.1,0.1c-0.5,0.1-0.6-0.1-0.9,0.1c-0.1-0.1-0.4,0.2-0.8,0.3c-0.1,0.1-0.1,0,0.2-0.1
		c-1.1,0.6-2.4,1-3.6,1.2c0.1,0.1-0.6,0.5-0.9,0.6v-0.2c-0.3-0.1-0.9,0.3-1,0.1c-0.5,0.4,2.1-0.8,1.4-0.4c-0.3-0.1-1,0.6-0.9,0.3
		c-0.5,0.2-1,0.5-1.6,0.5c0.2,0,0.3-0.4-0.1-0.3c-0.8,0.2-0.2,0.1-0.8,0.4l-0.4,0.2c0,0.2-0.7,0.2-0.3,0.3c-0.1-0.1-1.1,0.4-1.1,0.1
		v-0.3c-0.3,0.1-0.4,0.4-0.7,0.6c0,0-0.1,0-0.1-0.1c0.1,0.4-0.8,0.2-1.1,0.6c-0.7,0.2-1.5,0.3-2.2,0.3c-0.5,0.3-1,0.5-1.6,0.6
		c0.1-0.1,0.3-0.1,0.3-0.2c-0.4,0-0.5,0.1-0.8,0.3c-0.4-0.1-0.9-0.1-1.3-0.1c-0.5,0.2-0.2,0.4-0.3,0.5c-0.6-0.3-1.5,0.6-2.2,0.4
		c0.2-0.1,0.7-0.4,0.3-0.4c-0.6-0.3-0.9,0.5-1.8,0.5l0.3,0.3c-0.4-0.1-1.1,0.4-1.1,0.1c-0.2,0.2-1,0.1-0.8,0.4
		c-1.4,0-3.2,0.8-4.1,0.4c-0.2,0.1-0.7,0.1-0.5,0.3c0.4,0.1,0.4-0.2,0.6-0.1c-0.2,0-0.2,0.1-0.2,0.2c-0.4,0-0.8,0-0.4-0.3
		c-1,0-0.8,0.7-2,0.8c0-0.1-0.1-0.2-0.4-0.1l-0.6,0.3c-0.8,0.1-0.5-0.2-0.6-0.4c-0.4,0.1-0.9,0.2-1,0.4l-0.6-0.2
		c0.4,0.1-0.3,0.2-0.5,0.3l0.2-0.1c-0.1-0.1-0.5,0.1-0.8,0.1c0.1,0.1,0.6,0.1,0.9,0.1c-0.2,0.1-0.5,0.2-0.8,0.3c0-0.2-0.7,0-1,0
		s-0.4,0.3-0.5,0.3s-0.6,0.1-0.4-0.1c0.1-0.1,0.3,0.1,0.5-0.1c-0.3,0-0.3-0.2-0.8,0c-0.4,0.2,0.2,0.4-0.6,0.4
		c0.2-0.1,0.2-0.2,0.3-0.3h-0.7v0.2c-0.1,0,0-0.1-0.1-0.1c-0.2,0.2-1,0.2-1.1,0.5c-0.4,0-0.7,0-1.1,0h0.1c-0.4,0-0.9,0.1-1.2,0.3
		v-0.1c-0.3,0-0.7,0.1-1,0.3c-0.6-0.1-0.3-0.7-0.9-0.4c-0.5,0.1-0.8,0.5-0.6,0.6c-1,0-2.1,0.4-3.1,0.2c-0.1,0.1,0,0.1-0.3,0.2
		c-1.5,0.1-3.1,0.5-4.3,0.3c0.4-0.1,0-0.2,0-0.3c-0.3,0.2-0.4-0.1-0.5,0.2c0.1,0.2,0,0.3,0.5,0.3c-0.9,0.2-1.8,0.2-2.7,0.1
		c0.3,0.1,0.1,0.1-0.1,0.2c0-0.3-0.6-0.3-1.1-0.1l-0.1,0.2l-0.3-0.2c-0.2,0.1-0.2,0.4-0.7,0.2c0-0.1-0.1-0.1-0.2-0.2
		c-0.5,0.3-1.2,0.4-1.8,0.4l-0.5-0.2c-0.2,0-0.6,0.2-0.2,0.3c-0.6,0-1.3-0.1-1.9-0.3c-1.9,0.6-3.9,0.9-5.9,0.8l0.1-0.1
		c-0.5-0.1-0.3,0.2-0.6,0.2c0.2-0.1-0.4-0.3,0-0.4c-0.7-0.1-0.9,0.3-1.4,0.3c-0.1,0.2,0.4-0.1,0.3,0.1c-0.1,0.1-1-0.1-1.1,0.2
		c-0.2-0.1-0.1-0.3,0-0.4l-0.5,0.1c-0.6-0.3,1.2-0.6,0.6-1l-0.4,0.1c-0.4-0.3,1.1-0.3,0-0.4c-0.4,0.1-0.8,0.5-0.4,0.6
		c-0.9,0.1-0.4,0.6-1.4,0.6c-0.3-0.1,0.8-0.1,0.6-0.3c-0.5-0.2-0.9,0.1-1.4,0.1c0.5,0.1,0.1,0.4-0.2,0.4c-0.5-0.1,0.3-0.2-0.4-0.3
		c-0.1,0.1-0.8,0.3-0.2,0.4c-0.3,0.3-0.8-0.1-1.2,0.2c-0.2-0.2,0.7-0.6-0.1-0.7c0.1,0.2-1,0.3-0.6,0.7c-0.3-0.1-0.4-0.2-0.1-0.4
		c-0.4-0.1-1.1,0.4-1.2,0l-0.2,0.2c-0.1-0.1-0.3-0.1-0.6-0.3c-0.4,0-1.3,0.3-1.2,0c-0.1,0-1,0-0.7,0.2c0.6,0.2,0.6-0.2,1,0.2
		c-0.4-0.3-0.8,0-1.1,0.1L0.2,471c-0.2,0-0.6,0-0.8,0.1c0.2-0.1,0.1-0.2-0.1-0.2l-0.2,0.2c-0.8,0.1-0.2-0.4-0.9-0.3l0.6-0.1
		c-0.1,0-0.4-0.2-0.7-0.1c-0.2,0.2-0.4,0.4-0.6,0.6c-0.4,0.1-0.2-0.2-0.6,0l0.6-0.2c0.1-0.1-0.4-0.3-0.9-0.3
		c-0.4,0.1-0.9,0.3-0.4,0.4c-0.3,0-0.7-0.1-0.4-0.3c-0.7,0,0.1,0.2-0.5,0.3c-0.2-0.1-0.9-0.4-1.3-0.6l0.6-0.3h-0.4
		c0.5-0.2-0.2-0.2,0.1-0.5c-0.3,0-0.6,0-0.9,0.1c0.7,0.5-0.9,0.5-0.7,1c-1.1,0-0.6-1-1.8-0.4c0.2,0.1-0.4,0.4,0.3,0.3
		c-0.7-0.1-0.5,0.4-1.3,0.2c0.6-0.1-0.6-0.4,0.3-0.6c-0.1,0.1,0.5,0.1,0.6,0.1c-0.3-0.2,0.1-0.4-0.6-0.4c-0.4,0-1,0-0.9,0.2
		s0.6,0,0.4,0.2c-0.8,0-0.9-0.3-1.3,0.1c0.5,0,0.6,0.3,0.6,0.4l-0.6,0.1l0.1-0.1c-1-0.2-0.3,0.2-1.3,0.1l-0.4-0.3
		c0.2-0.2,1.4,0.2,1.2-0.2c-0.6-0.1-0.8,0.1-1.4,0l0.4-0.1c-0.2,0-0.4-0.6-1.3-0.3c-0.5,0.1-0.1,0.1-0.2,0.3c-1,0-1.3,0.1-1.9,0.1
		c0.2-0.3-1.1-0.1-0.4-0.4c0.7,0.2,1.4,0.2,2.1,0c-0.3-0.4,0.8,0.1,1-0.2c-0.8-0.1-0.7-0.4-0.8-0.7c-0.2,0-0.4,0-0.6,0.1
		c-0.1,0.2,0.2,0.2,0.2,0.5c-0.7-0.1-1.5-0.1-2.2,0.1c-0.3-0.1-0.2-0.3,0.2-0.3c-1,0-2.1-0.1-3.1-0.3c0.6,0.4-1.1,0-0.7,0.3
		c0.5,0.1,0.9,0.4,0.6,0.6c-0.3-0.1,0-0.2-0.1-0.2c-0.4,0.2-0.6-0.4-1.1-0.1c1,0,0.2-0.4,0.5-0.7c-0.7,0.1,0.1-0.2-0.6-0.3
		c-0.8,0.1-1.5,0.1-2.3,0.1c-1.1-0.3-2.1-0.4-3.2-0.4c-0.4-0.2-0.1-0.5-0.5-0.6c-0.5-0.1,0.4,0.4-0.5,0.1l0.1-0.1
		c-0.3,0-1.5-0.4-1.8,0l0.3-0.3c-0.1,0-0.3,0-0.5,0c0-0.1-0.2-0.2,0.1-0.3c-0.5-0.3-1.1-0.1-1.6-0.2l0.3,0.3c-1,0-1.6-0.3-2.5-0.3
		l0.1-0.2H-34c0.2-0.2-0.3-0.4-0.6-0.2l1.5-0.3c0.4,0.2-0.5,0.2-0.3,0.4c0.4,0.2,0.8,0.2,1.2,0.1c-0.2,0-0.4,0-0.6,0
		c-0.1-0.3,0.4-0.2,0.7-0.4c-0.2,0-0.4-0.1-0.5-0.1c0.4-0.1,0.8-0.1,1.3,0c-0.4,0.1,0.2,0.2,0,0.3c0.1-0.2,0.6-0.2,1.3-0.1
		c0.5,0.3,1.3,0,2.1,0.2c-0.4,0.2-0.9,0.4-1.3,0.4c0.5,0.2,0.6,0.1,1,0.2c0.3-0.3,0.7-0.4,1.2-0.4v0.2c0.6,0,0.7-0.3,1.4-0.1
		c1.3,0.3,2.6,0.4,3.6,0.5v0.2c0.6-0.3,1.9,0,2.6-0.1c1.2,0.3,2.8,0.1,3.4,0.4c2.2,0,4.2,0.1,6.5,0.3l-0.4,0.2
		c0.4-0.2,0.3,0.2,0.7,0.1c-0.5-0.2,0.6-0.2,0.9-0.4c1.1,0.2,2.2,0.2,3.3,0v0.2c0.9-0.3,2,0,3.2,0.1c0.2,0.2,0.4,0.3,0.7,0.3
		c0.6-0.2,1.2-0.4,1.9-0.4c0.8,0,1.6,0.1,2.4,0.2c2.5-0.4,5.1-0.1,7.7-0.5l0.2,0.2c2.5-0.5,5.7-0.2,7.8-0.6l-0.2,0.4
		c0.7,0.1,1.5-0.2,1.3-0.4c0.7,0.1,1.7-0.3,2.1,0c0.7,0,0.9-0.2,1.4-0.3c1.1,0,2.1,0,3.2-0.2h-0.3c-0.1,0.1-0.1,0.2,0.2,0.2
		c0.5-0.1,1.8-0.1,1.3-0.4c1.4,0.1,3.2-0.5,4.6-0.3c-0.1-0.1,0.2-0.2,0.3-0.3c1.2,0,2.3-0.1,3.5-0.4c0.2,0-0.3,0.2,0.2,0.2
		c0.3-0.1,0-0.2,0.3-0.3c1.9-0.4,4-0.3,5.8-0.6c3.1-0.7,6.4-1.2,9.4-1.8v0.1c0.9-0.5,2.4-0.1,3.1-0.8c0.3,0,0.9-0.1,0.8,0.1
		c0.7-0.4,2.3-0.3,3.4-0.8l-0.3,0.1c1.2-0.1,2.2-0.6,3.4-0.7c-0.1,0.1-0.3,0.1-0.3,0.2c0.5,0,1-0.6,1.4-0.3c0.3-0.1,0.1-0.2,0-0.2
		c2.8-0.6,5.5-1.4,8.2-2.3c2.1-0.3,0.4,0.7,1.8-0.1c0.2,0,0-0.2,0.1-0.1c0.6-0.3,1.1,0.2,1.4-0.2c-0.3-0.2,0.2-0.2,0.2-0.4
		c1.3-0.2,1.6,0,2.5-0.5v0.1c1-0.7,2.3-0.9,3.1-1.6c6-2,11.6-4.2,17.4-6.5c5.8-2.1,11.3-4.5,17.3-6.4c1.1,0,2.2-0.4,3.1-0.9
		c0,0.1-0.1,0.1,0,0.1c0-0.3,1.1-0.4,1.1-0.7c2.2-0.7,4.3-1.4,6.6-2.1c-0.4,0.1-0.5,0.4,0,0.3l0.4-0.3l0.1,0.1
		c0.3-0.1,0.6-0.4,0.2-0.4c5.8-1.9,12-2.5,18-3.2c1.4-0.1,3.5-0.2,5.1-0.4c4.7,0.1,8.8,0.7,13.5,0.8
		C163.6,436,162.9,436.6,161,436.7"/>
	<path class="st3" d="M654.1,485.1c0,0-85.1-45-450.4,20.2c-223.4,39.9-276.6-20.2-276.6-20.2v110.2H764
		C758.3,559.3,770.4,509.6,654.1,485.1"/>
	<g>
		<path class="st4" d="M577.6,549.23c0,0,1.5-51.3,13-85c14.1-41.5,30.7-70.3,30.7-70.3"/>
		<path class="st5" d="M604,421.13c0.5-0.9,8.6-19.4,10.4-22c2.5-3.8,7.2-1,5.7,2.7c-1.1,2.8-8.5,19.6-10.2,22.7
			C607.9,428.53,601.4,426.43,604,421.13"/>
		<path class="st4" d="M596.7,548.43c0,0,0.9-46.3,17.3-92.5c15.7-44.4,38.6-72.9,38.6-72.9"/>
		<path class="st5" d="M630.6,410.23c0.7-0.9,12.1-19.4,14.4-21.9c3.3-3.6,7.2,0.1,5.7,3.7c-1.2,2.9-12.3,20-14.7,23
			C632.8,419.13,627.1,415.43,630.6,410.23"/>
		<path class="st6" d="M636.7,442.83c0,0-22.3,31.4-30.7,66c-2.9,12-7,28.8-9.5,40.3c9.3-0.3,19.4-1.3,29.1-1.3
			c1.2-12,3.6-26.1,9.6-39.3c6.9-14.8,15.1-28.9,24.4-42.3c0,0-18.3,14.9-30.4,37.5c-9.6,17.8-18.9,43.7-18.9,43.7s-2.5-1.6,0.3-21
			C613.5,506.93,636.7,442.83,636.7,442.83"/>
		<path class="st6" d="M536.3,553.03c19-1.7,39-3.1,60.2-3.8c-0.3-11.2-0.7-26.9-0.7-37.3c0.1-17.5,9.1-60.4,9.1-60.4
			s-9.6,13.4-14.1,34.4c-3.2,14.9-12.8,57-12.8,57s-2.4-24.2-0.4-44.8c2-20.6,14.1-59.8,14.1-59.8s-15.3,23.9-21.2,49.1
			c-4.5,19.2-8.7,50.8-8.7,50.8s-9.6-14.6-9.1-43.7c0.3-14.7,1.9-29.4,4.9-43.7c0,0-10.1,19.9-12,43.9c-1.5,19,0.3,44.9,0.3,44.9
			s-2.8-0.4-7.8-18.3c-5-17.9-9.4-81.9-9.4-81.9s-7.3,35.6-1.4,68.6C530.1,521.93,534.3,543.13,536.3,553.03"/>
	</g>
</g>
<g>
	<g class="st7">
		<g>
			<g>
				<g>
					<g>
						<g>
							<defs>
								
									<rect id="SVGID_1_" x="780.16" y="476.84" transform="matrix(0.156 -0.9878 0.9878 0.156 186.795 1173.881)" width="0.3" height="1.6"/>
							</defs>
							<clipPath id="SVGID_00000041297519365900339750000001339943258657733053_">
								<use xlink:href="#SVGID_1_"  style="overflow:visible;"/>
							</clipPath>
							<path style="clip-path:url(#SVGID_00000041297519365900339750000001339943258657733053_);fill:#31302B;" d="M779.6,477.5
								c0.4,0,1.2-0.2,1.6,0.2C780.8,477.4,779.3,477.9,779.6,477.5"/>
						</g>
					</g>
				</g>
			</g>
		</g>
	</g>
	<path class="st9" d="M739.7,344.2c-0.8,0.6-2-1.1-2.9-2.1c3.2-12,9.5-23.4,21.4-26.2c-5.7,4.2-10,7.9-13.3,14.2
		C743.4,332.5,740.7,340,739.7,344.2"/>
	<path class="st10" d="M779.4,452.3c7.9,5.6,16.2,10.4,25.1,12c-9.8,4-19.5-3.6-27.8-9.4c2.5,6.7,18.5,17.2,25.8,21.2
		c-7.3,0.3-15.7-6-19.8-9.6c-2.9-2.6-7.9-7.5-9-10.8C772.5,451.4,775,449.1,779.4,452.3"/>
	<path class="st9" d="M727,339.7c-0.3-4.9,3.1-21-14.9-30.9c4.9,6.2,10.4,10.6,11.4,19.7c0.5,3-0.5,11.4,0.1,14.2
		C724.6,347.4,727.3,345.2,727,339.7"/>
	<path class="st10" d="M760.9,360.6c0-0.1-0.1-0.2-0.1-0.3c3.2-6,2.3-14.6-4.6-18.8c-4.8-3-9.4-1.5-12.8,1.9c-0.8-0.4-1.5-0.7-2.3-1
		c-6.9-2.4-14.2-3.2-21.4-2.3c-4.8-6-14.4-6.6-19.3,2c-1.9,3.2-2.4,7-1.4,10.5c-4,4.9-6,11.2-5.4,17.6c1.2,11.1,13.8,16.3,19,18.2
		c6.1,2.1,24.4,5.1,33.8,1.5c4.9-1.8,11.7-3.9,14.5-8.3C764.8,375,763.4,367,760.9,360.6"/>
	<path class="st11" d="M754.5,345c9.1,5.5,2.5,22.3-9.3,15C738.4,355.7,745.9,339.7,754.5,345"/>
	<path class="st11" d="M703.4,344.2c-2.8,4.5-1.4,10.4,3.1,13.2c4.4,2.6,10.9,1.5,12.7-4.4C722.9,340.7,709,334.4,703.4,344.2"/>
	<path class="st12" d="M763.5,360.3c0,0,7.4-0.9,8.6,1.9c1.2,2.8-1,3.4-3.1,1.9S763.5,360.3,763.5,360.3"/>
	<path class="st5" d="M710.8,394.6c-2.1-2.8-26.9-18-26.3-20.4c1.4-5.2,10.9-6.8,12.3-11.2c0.8-3-2.6-13.4-6.2-10.6
		c-1.8,1.4,0.9,7,1.3,8.9c0.4,1.7-14.2,8.3-14.6,13.5c-0.2,3.7,26.3,21.8,30.2,24.7c2.9,2,4,3.4,4.9,1
		C713.4,398.2,712.1,396.4,710.8,394.6"/>
	<path class="st5" d="M700.2,398.7c-5.6-4.9-12-11-17.4-6.2c-5,4.3-8.2,9.7-13.3,13.8c-0.8-1.7-1.2-7.9-4.1-6.9
		c-3.3,0.5-0.3,7.6,0.1,9.3c2,7.3,9,0.1,14.3-5.9c7-8.1,8.4-7.8,15.8-0.5c1.6,1.6,12.8,11.1,16.1,10.8
		C716.1,412.7,702.6,400.7,700.2,398.7"/>
	<path class="st5" d="M702.3,412.2c-8.2-9.3-14.7-11.5-16.8,1.6c-1,5.3,2.4,37.7,1.2,48.8c-2.2,0.4-8.4-2.6-9.8,0.5
		c-1.7,4.7,6,3.8,8.4,4.5c9.6,2.6,6.7-7.2,7.6-16.3c0.8-6.2-2.2-32.1,0.6-37.4c2.9,2.3,22.5,28.8,25.9,22.8
		C721.8,432.5,706.3,416.7,702.3,412.2"/>
	<path class="st10" d="M705.2,387.8c-5.1,37,11.9,60.6,31.4,70c21.8,10.6,51.1,11,41.3-13.8c-3.1-8.5-17.1-19.9-22.1-26.4
		c-6-7.5-3.8-20.9-9.7-27.2c-3.9-4.3-16.5-4.8-21.9-5.4C716.9,384.3,706.3,379.2,705.2,387.8"/>
	<path class="st13" d="M738.1,399.1c1.2,18,12.4,50.3,44.3,56.5c13.2,2.5-10.1-23.7-13.4-28.8c-11.9-18.8-13-29.8-17.6-34.7
		c-5.4-5-16.2-1-13.2,8.2"/>
	<path class="st9" d="M713.1,384.2c5.8-9.4,21.7-13.4,23.9,0.6c-4.6-1.1-6.2-1.9-12.5-1.6C720.6,383.3,717.3,383.3,713.1,384.2"/>
	<path class="st12" d="M752.3,369.7c0,0,5.7,2.7,5.2,5.7s-2.6,2.3-3.7,0C753,373.6,752.5,371.7,752.3,369.7"/>
	<path class="st12" d="M765.8,372.9c0,0,7.3,1.6,7.4,4.6c0.1,3-3,2.9-4.2,0.7C768,376.3,765.8,372.9,765.8,372.9"/>
	<path class="st14" d="M703.7,384.3c14.6,6.6,33.9,8.2,50.2,2.8c1.4,1.2,2,7.8,2.1,11c-3.3,1.3-15.7,3.2-19.1,3.2
		c-9.4-0.1-16.2-0.2-30.7-5c-2.8-0.9-4.2-1.7-4.1-4.4C702.1,390,702.1,386.6,703.7,384.3"/>
	<path class="st5" d="M755.2,411.8c3.5-3.1,14.1-13.6,19.6-13.7c7.1,0.2,6,4.9,9.9,8.5c6.1-2.7,6.6,1.3,1.6,3.9
		c-4.4,2.3-4,1.7-6-1.6c-3.8-6.3-3.6-8.5-11.3-3.3c-5.5,3.7-7.3,8.1-11.8,12.3C751.7,423.1,749.7,416.7,755.2,411.8"/>
	<path class="st5" d="M742.4,446.4c-4.7-6,31.2-23.1,41.7-28.7c3.8-1.8,14.3-8.1,16.9-3.8c1.1,2.8-20.9,61.5-19.9,69.3
		c3.8,1,9.2,1.8,9.1,5.8c-0.1,2-11.8-1.1-13.6-2.6c-3.3-2.8,2.5-18.8,3.6-24.5c3-13.4,6.6-26.8,10.5-39.4
		C785.5,424.6,750.3,456.5,742.4,446.4"/>
	<path class="st12" d="M695.6,348.3c0,0-7.1-2.5-8.8,0s0.3,3.5,2.6,2.5S695.6,348.3,695.6,348.3"/>
	<path class="st12" d="M703.9,360.9c0,0-5.7,2.5-5.4,5.4c0.4,3,2.5,2.4,3.7,0.1C703,364.7,703.6,362.8,703.9,360.9"/>
	<path class="st12" d="M693.4,357.9c0,0-7.4-1.3-8.6,1.5c-1.2,2.8,1.7,3.9,3.7,2.2C690.1,360.2,693.4,357.9,693.4,357.9"/>
	<path class="st9" d="M748.5,356.8c-0.8,0-1.5,0.5-1.7,1.2s0.3,1.5,1,1.7c0.1,0,0.1,0,0.2,0c1,0.2,1.7-0.2,1.9-1.2
		C750,357.8,749.2,356.8,748.5,356.8"/>
	<path class="st9" d="M708.7,353.5c-0.8,0-1.5,0.6-1.5,1.4c-0.2,0.8,0.3,1.5,1.1,1.7h0.1c0.9,0.1,1.8-0.5,2-1.5l0,0
		C710.3,354.3,709.6,353.6,708.7,353.5"/>
	<path class="st5" d="M786,457.9c1.5,0.5,2.9,1.1,4.2,1.9c0.5,0.4,1,0.8,1.4,1.3c-0.9-0.4-1.9-0.7-2.8-0.8c-1.1-0.1-1,0.5-1,0.5
		c0.9,0.3,1.8,0.7,2.6,1.3c0.8,0.7,1.4,1.4,2,2.3c-1.2-0.6-2.4-1.1-3.6-1.6c-1.1-0.3-1.3,0.3-1.3,0.3c1.5,0.7,2.9,1.6,4,2.8
		c0.5,0.6,0.9,1.3,1.3,1.9c-1.2-1.1-2.6-1.9-4.2-2.3c-2.7-0.8-3.1,0-3.1,0L786,457.9z"/>
	<path class="st5" d="M687,439.2c-1.5,0.4-2.9,0.9-4.3,1.6c-0.6,0.3-1.1,0.7-1.5,1.2c0.9-0.3,1.9-0.5,2.9-0.6c1.1,0,0.9,0.6,0.9,0.6
		c-0.9,0.3-1.8,0.6-2.7,1.1c-0.8,0.6-1.5,1.3-2.1,2.1c1.2-0.5,2.5-0.9,3.7-1.3c1.2-0.3,1.3,0.4,1.3,0.4c-1.5,0.6-3,1.4-4.2,2.5
		c-0.5,0.5-1,1.2-1.4,1.8c1.3-1,2.8-1.7,4.4-2c2.8-0.6,3.1,0.2,3.1,0.2L687,439.2z"/>
	<path class="st15" d="M718.2,443.2c11.8,1.2,24.5-4,31.4-13.3"/>
	<path class="st15" d="M747.2,461.8c11.5-2.9,18.1-9.6,21.3-20.7"/>
	<path class="st15" d="M706,417.4c10.6,3.5,26.1,5.5,35.5-1.4"/>
	<path class="st5" d="M742.9,412.3c-10.2,8.6-7.2-9.3-9.4-16.7c-0.5-1.7-6.7-7.5-9.3-3.8c-1.5,2.1,4.3,2.9,6,5.5
		c0.3,6.4-0.5,26.6,10.6,21.8c3.4-1.5,4.2-1.7,6.8-4C752.1,411.2,747.9,408,742.9,412.3"/>
</g>
<path class="st16" d="M732.96,303.44c0,0,76.2,4.9,76.2-31.7c0-36.7-16.8-64-47.5-61.7s-38.6,13.2-38.6,13.2s9.9-31.7-19.8-37.7
	s-31.6,24.5-31.6,24.5s-19.8-26.5-42.5-8.6c-13.5,10.6-22.7,25.9-25.7,42.8c0,0-23.7-30.5-45.4,0s-14.8,62.2,15.8,64.2
	C604.46,310.44,732.96,303.44,732.96,303.44"/>
</svg>
