<?xml version="1.0" encoding="utf-8"?>
<!-- Generator: Adobe Illustrator 23.0.1, SVG Export Plug-In . SVG Version: 6.00 Build 0)  -->
<svg version="1.1" id="Layer_1" xmlns="http://www.w3.org/2000/svg" xmlns:xlink="http://www.w3.org/1999/xlink" x="0px" y="0px"
	 viewBox="0 0 395.2 359.1" style="enable-background:new 0 0 395.2 359.1;" xml:space="preserve">
<style type="text/css">
	.st0{fill:#FFFFFF;}
	.st1{fill:#EFEEE3;}
	.st2{fill:#D9D7CB;}
	.st3{clip-path:url(#SVGID_2_);}
	.st4{fill:#F29100;}
	.st5{clip-path:url(#SVGID_4_);}
	.st6{fill:#C6C6C5;}
	.st7{fill:none;stroke:#1D1D1B;stroke-width:1.11;stroke-linecap:round;stroke-linejoin:round;}
	.st8{fill:#39A935;}
	.st9{fill:#93C01F;}
	.st10{fill:#008D36;}
	.st11{fill:#925F36;}
	.st12{fill:#1D1D1B;}
	.st13{fill:#D9D9D9;}
	.st14{clip-path:url(#SVGID_6_);}
	.st15{opacity:0.4;}
	.st16{clip-path:url(#SVGID_8_);}
	.st17{clip-path:url(#SVGID_10_);}
	.st18{clip-path:url(#SVGID_12_);}
	.st19{fill:none;stroke:#EFEEE3;stroke-linecap:round;}
	.st20{fill:none;stroke:#D9D7CB;stroke-linecap:round;}
</style>
<title>libro</title>
<g>
	<g id="Layer_1-2">
		<path class="st0" d="M384.4,66.6c0,0.3-348.6-2.4-348.6-2.4c-0.3,0-23.3-30.7-23.3-31L35.2,6.8c0-0.3,0.3-0.6,0.6-0.6l0,0l348,1
			C384.1,7.2,384.3,66.6,384.4,66.6"/>
		<path class="st1" d="M379.7,321.2L379.7,321.2c0,0,0.3-298.4-0.2-303.6c-4.7,1.6-9.1,4-13,7c-6,4.8-9.2,13.9-10,16
			c0,1.5,0,302.8,0,302.8s5.7-9.9,11.7-15.3c3.3-3.1,7.3-5.5,11.6-7L379.7,321.2z"/>
		<path class="st2" d="M387.6,3l-336-2.9c0,0-15.6-2-30.7,11.3C13.7,17.7,7,29.2,5.7,32c-0.2,0.1-0.2,0.3-0.3,0.5
			c-2,113.9-0.7,152.7,0,307c0,0.4,1.3,7.9,10.6,9.3l339.9,3.6c0.4,0,0.7-0.3,0.7-0.7c0,0,0,0,0,0l0.5-315.3c0-0.4-0.3-0.7-0.7-0.7
			L21.4,32c1.7-3.2,3.5-8.2,8.2-12.5c6-5.3,13.4-8.6,21.3-9.4l1.4-0.2l326.6,2c0.4,0,0.7,0.3,0.8,0.7c0,0,0,0,0,0l0.2,303.6l7.9-0.1
			c0.4,0,0.7-0.3,0.7-0.7c0,0,0,0,0,0V3.7C388.3,3.3,388,2.9,387.6,3"/>
		<g>
			<defs>
				<path id="SVGID_1_" d="M20.8,11.4C13.7,17.7,7,29.2,5.7,32c-0.2,0.1-0.2,0.3-0.3,0.5c-2,113.9-0.7,152.7,0,307
					c0,0.4,1.3,7.9,10.6,9.3l339.9,3.6c0.4,0,0.7-0.3,0.7-0.7c0,0,0,0,0,0l0.5-315.3c0-0.4-0.3-0.7-0.7-0.7L21.4,32
					c1.7-3.2,3.5-8.2,8.2-12.5c6-5.3,13.4-8.6,21.3-9.4l1.4-0.2l326.5,2c0.4,0,0.7,0.3,0.8,0.7c0,0,0,0,0,0l0.2,303.6l7.9-0.1
					c0.4,0,0.7-0.3,0.7-0.7V3.7c0-0.4-0.3-0.7-0.7-0.7l0,0L51.5,0.1C50.8,0,50,0,49.2,0C44.4,0,32.4,1.2,20.8,11.4"/>
			</defs>
			<clipPath id="SVGID_2_">
				<use xlink:href="#SVGID_1_"  style="overflow:visible;"/>
			</clipPath>
			<g class="st3">
				<polygon class="st4" points="375.7,351.6 4.5,350 5.4,31.2 376.6,33.9 				"/>
			</g>
		</g>
		<g>
			<defs>
				<path id="SVGID_3_" d="M5.7,32c-0.2,0.1-0.2,0.3-0.3,0.5c-2,113.9-0.7,152.7,0,307c0,0.4,1.3,7.9,10.6,9.3l339.9,3.6
					c0.4,0,0.7-0.3,0.7-0.7c0,0,0,0,0,0l0.5-315.3c0-0.4-0.3-0.7-0.7-0.7L21.4,32l0.2-0.3L5.9,31.6L5.7,32"/>
			</defs>
			<clipPath id="SVGID_4_">
				<use xlink:href="#SVGID_3_"  style="overflow:visible;"/>
			</clipPath>
			<g class="st5">
				<path class="st0" d="M236.1,182.5c-0.2,62.3-49.8,112.7-110.8,112.4S15.1,244,15.3,181.7S65.1,69.1,126,69.3
					S236.3,120.2,236.1,182.5"/>
				<path class="st6" d="M126.4,210.4c0,0,38.3-8.6,42-12.5s11.4-14.2,8.8-14.4s-51.8,24.2-52.4,26S126.3,210.3,126.4,210.4"/>
				<path class="st7" d="M133.1,224.3c0,0,25.1-19,26.9-17.6s-20.6,44.9-23,47.5"/>
				<path class="st7" d="M136.1,225.9c0,0,27.5-16,29.3-15.4s-25.6,45.7-25.6,45.7"/>
				<path class="st7" d="M122,218.6c0,0-10.6,3.8-11.6,7.1s-3.1,13.4-3.1,13.4"/>
				<path class="st7" d="M123.4,220.8c0,2.6-0.6,11.6-1.8,13.4s-7.4,9.3-7.4,9.3"/>
				<polyline class="st7" points="114.2,171.7 114.5,202.2 107.4,175.6 				"/>
				<path class="st8" d="M252,312.7c0,0,12.9,4.8,18.9,17.7s4.9,23.8,6,25.3c0,0-10.1-2.8-16.4-7.1S241.1,324,248,311.8
					C249.1,309.8,252.1,312.7,252,312.7"/>
				<path class="st9" d="M229,315.7c2.7,0.3,16.7,2.6,21.6,16.6s2.4,22.4,4,24.7c0,0-16.4-6.2-21-16.9S229,315.7,229,315.7"/>
				<path class="st8" d="M207.5,314.3c0,0-10.2-13.1-22.3-13.2s-23.4,8.9-26.7,8.1c0,0,17.9,18,27.4,15.8S207.5,314.3,207.5,314.3"
					/>
				<path class="st9" d="M309.7,255.6c-0.4-4.1,2.6-7.5-4.7-10.5s-44.6-1.3-37.9-40.9s7.1-42.6,7.1-42.6s25.2,16.9,32.5,22.5
					s16.4,30.3,17.4,41.2S309.7,255.6,309.7,255.6"/>
				<path class="st10" d="M307.5,239.9c0,0-14.9-15.4-13.8-29.9s9.2-24.3,17.6-30.6s9.9-11.2,9.9-11.2s-0.1,26.1,1.4,34.8
					s1.4,25.4,1.4,25.4L307.5,239.9z"/>
				<path class="st8" d="M300.6,248.5c0,0,12.6-41.8,32.7-46.2s22-5.1,22-5.1s-6.3,29.1-10.7,35.8s-32.2,20.8-32.2,20.8L300.6,248.5
					z"/>
				<path class="st9" d="M303.5,252.2c0,0,11-16.4,22.7-19.7s23.8-5.5,32.5-0.6s10.2,11.6,10.2,11.6l-18.7,10.8l-27.8,0.3
					L303.5,252.2z"/>
				<path class="st11" d="M74.4,224.9c4.9,0,12.1,1.7,34.5,14.7s43.8,28.2,90.4,23.9s39.5-13.3,37.9-15.6s-8.2-11.8-17-14.1
					s-25.8-4-37.8-2.4s-17.6,5-17.6,5s7.7-9.5,25.8-10s26.3,2.9,29.6,2.4s3.3-4.5-5.5-6.2s-17.5-4.6-21.9-4.6s6-3.3,15.4-2.2
					s14.2,5.1,17,6.8s22.5,3.4,30.2-1c0,0-5,6.1-21.4,6.6s6.5,16.8,10.9,18s12.6,4,19.2,4.6s34-6,44.4-4.3s51.5-2.6,71.3-12.6
					s11.1,130.6,11.1,130.6l-91-0.9c0,0,9.4-16.2,5-18.5s-17,6.1-23.6,15.6s-22.5,6.1-22.5,6.1s36.8-27.9,33.5-32.4
					s-16.9-16.3-42.8-20.9s-29.1,14.5-28.6,19s3.8,12.4,3.2,19.6s-1.1,8.4-7.2,16.2s-29.1,1.6-29.1,1.6s28-15,28.6-24
					s3.9-12.9-1.6-13.5s-20.3,10-25.8,11.7s-8.8,8.9-16.5,13.4s-23,5-23,5s23-8.9,26.4-16.2s-17,1.1-31.8-0.1s-26.9,3.8-36.8,2.7
					c-8.7-1.1-17.3-2.8-25.8-5.1c-3.8-1.1,19.2,2.3,24.7,2.3s20.9-4.4,31.8-4.4s19.2,0.6,19.2,0.6s-14.2-7.3-19.7-7.9
					s-17.5-2.9-21.9-6.8s7.7,1.7,10.4,2.3s13.7,0.6,16.4,2.3s14.2,7.3,17.5,7.4c3.3,0,5.5-7.8,13.2-7.8s23.6-6.6,32.4-7.2
					s18.1-15.1,24.7-15s37.8-1.5,42.8-4.3s-5.4-26.9-2.6-30.8s-14.8-1.2-21.9-0.6s-15.4-2.9-18.6,1.6s-3.9,16.8-8.3,20.7
					s-2.8,16.2-8.3,19s-15.4,1.6-8.8-0.6s11-9.5,11-16.2s4.4-4.5,6.1-10.6s6.1-15.7,0.6-15.7s-24.7-0.1-25.8,2.7
					s-9.4,24.6-26.4,27.9s-24.7,1-24.7,1s3.3,6.2,6,7.9c1.8,1.1,3.4,2.5,4.9,3.9c0,0-2.7-1.7-9.9-0.6s-0.6-1.1-0.5-3.4
					s-2.7-8.4-6-6.8s-22.5,10.6-31.8,9.4s0.6-1.7,7.1-3.9s22.5-11.1,30.2-11.1s31.8-1.6,37.3-9.4s9.4-16.8,1.1-17.9
					S134,255.9,127.4,257c-4.9,1-9.7,2.5-14.3,4.4c0,0,2.7,22.4-2.3,29.1s-5.5-0.6-5.5-0.6s3.3,5.1,5.5-11.8s-1-15.1-1-15.1
					l-15.4,7.8c0,0,8.8-9.5,19.8-12.8c11-3.3,5.5-6.1,5.5-6.1s-29-18-34.5-20.9S70,229.3,70,229.3L74.4,224.9z"/>
				<path class="st0" d="M353.4,304c0,0-4.7-19.4-3.2-32.1s11.4-19.8,21.6-13.8s8,23.9,3.9,29.2s-18.3,17.9-18.3,17.9l0.4,2.6
					c0,0,18-16,26-19s-1.7,71.7-1.7,71.7s-16.5,4.4-21.6-2.7s-13.8-28.4-13.4-38.9S353.4,304,353.4,304"/>
				<path class="st0" d="M350.1,302.1c0,0-3.9-26.2-4.3-32.1s-8.4-1.5-13.2,16.8s-7.1,40.7-0.9,42.6s15-4.4,15-4.4
					s-15.7,5.5-13.6,15.6s18.2,18.4,18.2,18.4l5.1-3.7C356.5,355.2,339.1,317.4,350.1,302.1"/>
				<path class="st4" d="M360.1,316.9c-2.2,10.6-10.2,17.1-15.9,15.8s-8.4-9.6-6.1-20.2s10.8-17.3,16.5-16S362.3,306.3,360.1,316.9"
					/>
				<path class="st9" d="M78.8,227.2c0,0-8.6,15.9-17.2,18.4s-25.2,3.7-25.2,3.7s10.6-12.3,17.8-17.1S71.6,220.1,78.8,227.2"/>
				<path class="st9" d="M102.4,264.8c0,0-14.8-5-27.5,2.1s-23,27.6-23,33.8c0,0,8.6-6.8,22.6-8.5S100.1,277.4,102.4,264.8"/>
				<path class="st9" d="M110.9,285c-1.1-3.9-21.3,5.4-21.9,20.7s-3.3,22-4.4,22.5c0,0,18.1-11.6,22.2-20.5S112.4,290.1,110.9,285"
					/>
				<path class="st9" d="M51.5,331.1c0,0,10.4-2.8,20.3,0.4s16.8,13.1,16.8,13.1s-7.7,5-15.4,3.9S57.6,333.2,51.5,331.1"/>
				<path class="st8" d="M260.1,261.4c0,0-0.6,23.3-4.8,30.3s-25.3,19-25.3,19s-4.3-18,2.3-28.3S256,267.1,260.1,261.4"/>
				<path class="st9" d="M290.5,280c0,0,0.5,24.7-22,26.3s-25.8,2.1-25.8,2.1s6.9-20.7,19-25.1S286.1,283.1,290.5,280"/>
				<path class="st9" d="M204.6,314.5c0,0-3.3,15.1-10.7,20.3s-20.5,7.4-20.9,9.3s-1.9-17.5,5.9-25.4
					C187.8,309.7,192.9,309,204.6,314.5"/>
				<path class="st12" d="M115.3,211.6c4.3,6.7,28.8,34.7,31.9,36.9s9.2,2.5,6.6-3.6s-28.1-39.6-32.5-42.6s-7.6-3.3-8-1.1
					S113.6,209.2,115.3,211.6"/>
				<path class="st7" d="M130.7,226.7c-1.2,1-9.4,18.9-9.4,20.3"/>
				<path class="st7" d="M133.3,230.4c0,0-5.8,19.9-7,20.5"/>
				<path class="st13" d="M124,207.8l37.7-29.2c3.4-2.6,8.6-7.1,7.2-2.8s-17.6,25.8-25.8,28.6s-16.5,6-18.9,5.2S124,207.8,124,207.8
					"/>
			</g>
		</g>
		<g>
			<defs>
				<path id="SVGID_5_" d="M20.8,11.4C13.7,17.7,7,29.2,5.7,32c-0.2,0.1-0.2,0.3-0.3,0.5c-2,113.9-0.7,152.7,0,307
					c0,0.4,1.3,7.9,10.6,9.3l339.9,3.6c0.4,0,0.7-0.3,0.7-0.7c0,0,0,0,0,0l0.5-315.3c0-0.4-0.3-0.7-0.7-0.7L21.4,32
					c1.7-3.2,3.5-8.2,8.2-12.5c6-5.3,13.4-8.6,21.3-9.4l1.4-0.2l326.5,2c0.4,0,0.7,0.3,0.8,0.7c0,0,0,0,0,0l0.2,303.6l7.9-0.1
					c0.4,0,0.7-0.3,0.7-0.7V3.7c0-0.4-0.3-0.7-0.7-0.7l0,0L51.5,0.1C50.8,0,50,0,49.2,0C44.4,0,32.4,1.2,20.8,11.4"/>
			</defs>
			<clipPath id="SVGID_6_">
				<use xlink:href="#SVGID_5_"  style="overflow:visible;"/>
			</clipPath>
			<g class="st14">
				<g class="st15">
					<g>
						<defs>
							<rect id="SVGID_7_" x="-98.6" y="10.3" width="493.8" height="354.7"/>
						</defs>
						<clipPath id="SVGID_8_">
							<use xlink:href="#SVGID_7_"  style="overflow:visible;"/>
						</clipPath>
						<g class="st16">
							<g>
								<defs>
									
										<rect id="SVGID_9_" x="-13.8" y="-37.1" transform="matrix(3.665167e-03 -1 1 3.665167e-03 -44.3742 338.3295)" width="322.8" height="457"/>
								</defs>
								<clipPath id="SVGID_10_">
									<use xlink:href="#SVGID_9_"  style="overflow:visible;"/>
								</clipPath>
								<g class="st17">
									<g>
										<defs>
											
												<rect id="SVGID_11_" x="-28.2" y="-58.7" transform="matrix(3.665167e-03 -1 1 3.665167e-03 -39.8751 335.2269)" width="352.9" height="492.7"/>
										</defs>
										<clipPath id="SVGID_12_">
											<use xlink:href="#SVGID_11_"  style="overflow:visible;"/>
										</clipPath>
										<g class="st18">
											
												<image style="overflow:visible;enable-background:new    ;" width="936" height="656" xlink:href="FFA5B147.png"  transform="matrix(0.53 0 0 0.54 -97.5274 10.2499)">
											</image>
										</g>
									</g>
								</g>
							</g>
						</g>
					</g>
				</g>
			</g>
		</g>
		<path class="st0" d="M34.7,300.4h3l-2.3,11.1c-0.1,0.6-0.3,1.1-0.7,1.6c-0.3,0.4-0.7,0.8-1.2,1.1c-0.5,0.3-1,0.5-1.5,0.7
			c-0.5,0.1-1.1,0.2-1.6,0.2c-0.8,0-1.5-0.1-2.3-0.3c-0.5-0.1-0.9-0.4-1.1-0.8c-0.2-0.4-0.4-0.9-0.3-1.4c0-0.4,0-0.7,0.1-1.1
			c0.1-0.4,0.2-0.9,0.3-1.5h3.1c-0.1,0.2-0.1,0.5-0.2,0.7s-0.1,0.4-0.1,0.6c0,0.2,0,0.4,0,0.6c0,0.3,0.1,0.6,0.2,0.8
			c0.2,0.2,0.5,0.3,0.8,0.3c0.3,0,0.7-0.1,0.9-0.4c0.3-0.2,0.5-0.5,0.5-0.9L34.7,300.4z"/>
		<path class="st0" d="M40.8,315c-0.7,0-1.4-0.1-2-0.3c-0.4-0.2-0.8-0.6-1-1c-0.2-0.5-0.3-1-0.3-1.5c0-0.9,0.1-1.7,0.3-2.5
			c0.2-0.9,0.5-1.8,0.9-2.7c0.3-0.7,0.9-1.3,1.6-1.8c0.8-0.5,1.8-0.7,2.8-0.7c0.9-0.1,1.9,0.2,2.6,0.7c0.5,0.6,0.8,1.3,0.8,2.1
			c0,0.8-0.1,1.6-0.3,2.3c-0.2,0.8-0.4,1.5-0.6,2.3c-0.2,0.6-0.5,1.1-0.9,1.6c-0.4,0.5-0.9,0.9-1.5,1.1
			C42.3,314.9,41.5,315,40.8,315 M41.1,313.2c0.3,0,0.6-0.1,0.9-0.3c0.3-0.3,0.5-0.7,0.6-1.1c0.3-0.8,0.5-1.6,0.6-2.4
			c0.1-0.6,0.2-1,0.2-1.3c0.1-0.3,0.1-0.5,0.1-0.8c0-0.3-0.1-0.6-0.2-0.8c-0.2-0.2-0.5-0.3-0.7-0.3c-0.3,0-0.7,0.1-0.9,0.3
			c-0.3,0.3-0.4,0.6-0.6,1c-0.2,0.6-0.3,1.2-0.5,1.9c-0.2,0.9-0.3,1.8-0.4,2.7c0,0.2,0,0.4,0.1,0.6c0.1,0.1,0.2,0.3,0.3,0.3
			C40.8,313.1,41,313.2,41.1,313.2"/>
		<path class="st0" d="M49.1,304.7h2.7l-0.3,1.3l0,0c0.6-1,1.7-1.6,2.9-1.5l-0.5,2.5c-0.5,0-1,0.1-1.5,0.2c-0.3,0.1-0.6,0.3-0.9,0.5
			c-0.2,0.2-0.3,0.4-0.4,0.6c-0.1,0.2-0.2,0.5-0.3,0.9l-1.2,5.5h-2.8L49.1,304.7z"/>
		<path class="st0" d="M60.8,304.7h2.7l-2.2,10.5c-0.2,0.9-0.6,1.7-1.2,2.4c-0.6,0.7-1.7,1.1-3.4,1.1c-0.9,0-1.7-0.1-2.5-0.5
			c-0.6-0.3-1-1-0.9-1.7c0-0.3,0-0.5,0.1-0.8h2.8c-0.1,0.3-0.1,0.5-0.1,0.6c0,0.2,0,0.3,0.1,0.4c0.1,0.3,0.4,0.4,0.9,0.4
			c0.3,0,0.7-0.2,0.9-0.5c0.3-0.4,0.4-0.8,0.5-1.2l0.4-1.9l0,0c-0.3,0.4-0.6,0.7-1,0.9c-0.4,0.2-0.9,0.3-1.4,0.3
			c-0.7,0.1-1.3-0.1-1.8-0.6c-0.4-0.5-0.5-1.1-0.5-1.6c0-0.4,0-0.8,0.1-1.1c0.1-0.3,0.2-0.9,0.4-1.8c0.2-0.9,0.4-1.7,0.7-2.5
			c0.2-0.7,0.6-1.3,1.2-1.8c0.6-0.5,1.4-0.8,2.2-0.7c0.3,0,0.6,0,0.9,0.1c0.3,0.1,0.5,0.3,0.7,0.5c0.2,0.2,0.3,0.5,0.4,0.8l0,0
			L60.8,304.7z M57.1,310.1c0,0.1,0,0.2-0.1,0.4s-0.1,0.3-0.1,0.5c0,0.2-0.1,0.3-0.1,0.5c0,0.1,0,0.3,0,0.4c0,0.8,0.3,1.1,0.9,1.1
			c0.3,0,0.6-0.1,0.8-0.3c0.2-0.3,0.4-0.6,0.5-1c0.2-0.6,0.4-1.2,0.5-1.9c0.2-0.8,0.3-1.6,0.4-2.4c0-0.7-0.3-1.1-0.8-1.1
			c-0.3,0-0.6,0.1-0.9,0.3c-0.3,0.3-0.5,0.7-0.6,1.1C57.5,308.5,57.3,309.3,57.1,310.1"/>
		<path class="st0" d="M72.5,310.2h-5.4c-0.1,0.6-0.2,1.2-0.2,1.8c0,0.8,0.3,1.2,0.9,1.2c0.8,0,1.3-0.6,1.6-1.8h2.9
			c-0.2,1-0.8,2-1.6,2.6c-0.9,0.7-2,1-3.2,1c-0.7,0-1.4-0.1-2-0.3c-0.4-0.2-0.8-0.6-1-1c-0.2-0.5-0.3-1-0.3-1.5
			c0-0.9,0.1-1.7,0.3-2.5c0.2-0.9,0.5-1.8,0.9-2.7c0.3-0.7,0.9-1.3,1.6-1.8c0.8-0.5,1.8-0.7,2.8-0.7c0.7,0,1.4,0.1,2,0.3
			c0.5,0.2,0.8,0.5,1.1,1c0.2,0.5,0.3,1,0.3,1.5C73,308.3,72.8,309.3,72.5,310.2 M67.5,308.6h2.6c0-0.2,0.1-0.4,0.1-0.5
			s0-0.3,0.1-0.4c0-0.1,0-0.3,0-0.4c0-0.7-0.3-1.1-1-1.1c-0.5,0-1,0.2-1.2,0.6C67.8,307.5,67.6,308,67.5,308.6"/>
		<polygon class="st0" points="86.2,314.8 78.2,314.8 81.2,300.4 89.1,300.4 88.6,302.6 83.8,302.6 83,306.2 87.5,306.2 87,308.4 
			82.5,308.4 81.7,312.6 86.7,312.6 		"/>
		<path class="st0" d="M97.4,308.3h-2.8c0.1-0.3,0.1-0.7,0.1-1c0-0.3-0.1-0.6-0.2-0.8c-0.2-0.2-0.5-0.2-0.7-0.2
			c-0.3,0-0.7,0.1-0.9,0.3c-0.3,0.3-0.4,0.6-0.6,1c-0.1,0.4-0.3,1-0.5,1.9c-0.2,0.9-0.3,1.8-0.4,2.7c0,0.2,0,0.4,0.1,0.6
			c0.1,0.1,0.2,0.3,0.3,0.3c0.2,0.1,0.3,0.1,0.5,0.1c0.4,0,0.8-0.2,1.1-0.6c0.3-0.5,0.6-1,0.6-1.6h2.8c-0.2,1.2-0.8,2.2-1.7,3
			c-1,0.7-2.1,1-3.3,0.9c-0.7,0-1.4-0.1-2-0.3c-0.4-0.2-0.8-0.6-1-1c-0.2-0.5-0.3-1-0.3-1.5c0-0.9,0.1-1.7,0.3-2.5
			c0.2-0.9,0.5-1.8,0.9-2.7c0.3-0.7,0.9-1.3,1.6-1.8c0.8-0.5,1.8-0.7,2.8-0.7c0.9-0.1,1.8,0.2,2.5,0.6c0.6,0.5,0.9,1.2,0.9,2
			C97.5,307.5,97.5,307.9,97.4,308.3"/>
		<path class="st0" d="M105.8,314.8H103l1.5-7c0.1-0.2,0.1-0.5,0.1-0.8c0.1-0.4-0.2-0.8-0.6-0.8c-0.1,0-0.1,0-0.2,0
			c-0.4,0-0.7,0.1-0.9,0.4c-0.2,0.4-0.4,0.8-0.5,1.2l-1.5,7H98l3.1-14.4h2.8l-1.1,5.4l0,0c0.3-0.4,0.7-0.7,1.2-0.9
			c0.5-0.2,1-0.3,1.4-0.3c0.5,0,1.1,0.1,1.5,0.5c0.4,0.3,0.6,0.8,0.6,1.3c0,0.2,0,0.3-0.1,0.5L105.8,314.8z"/>
		<path class="st0" d="M117,310.2h-5.4c-0.1,0.6-0.2,1.2-0.2,1.8c0,0.8,0.3,1.2,0.9,1.2c0.8,0,1.3-0.6,1.6-1.8h2.9
			c-0.2,1-0.8,2-1.6,2.6c-0.9,0.7-2,1-3.2,1c-0.7,0-1.4-0.1-2-0.3c-0.4-0.2-0.8-0.6-1-1c-0.2-0.5-0.3-1-0.3-1.5
			c0-0.9,0.1-1.7,0.3-2.5c0.2-0.9,0.5-1.8,0.9-2.7c0.3-0.7,0.9-1.3,1.6-1.8c0.8-0.5,1.8-0.7,2.8-0.7c0.7,0,1.4,0.1,2,0.3
			c0.5,0.2,0.8,0.6,1.1,1c0.2,0.5,0.3,1,0.3,1.5C117.4,308.4,117.3,309.3,117,310.2 M112,308.7h2.6c0-0.2,0.1-0.4,0.1-0.5
			c0-0.1,0.1-0.3,0.1-0.4c0-0.1,0-0.3,0-0.4c0-0.7-0.3-1.1-1-1.1c-0.5,0-1,0.2-1.2,0.6C112.3,307.5,112.1,308.1,112,308.7"/>
		<path class="st0" d="M123,304.7l-0.2,1l0,0c0.3-0.4,0.7-0.7,1.2-0.9c0.5-0.2,1-0.3,1.4-0.3c0.5,0,1.1,0.1,1.5,0.5
			c0.4,0.3,0.6,0.8,0.6,1.3c0,0.2,0,0.3-0.1,0.5l-1.7,8.1H123l1.5-7c0.1-0.2,0.1-0.5,0.1-0.8c0.1-0.4-0.2-0.8-0.6-0.8
			c-0.1,0-0.1,0-0.2,0c-0.4,0-0.7,0.1-0.9,0.4c-0.2,0.4-0.4,0.8-0.5,1.2l-1.5,7H118l2.1-10.1L123,304.7z"/>
		<path class="st0" d="M133.2,304.7l-2.1,10.1h-2.8l2.1-10.1H133.2z M131.4,300.4h2.8l-0.5,2.2h-2.8L131.4,300.4z"/>
		<path class="st0" d="M143.5,304.7l-3,14.4h-2.8l1.1-5.3l0,0c-0.2,0.3-0.5,0.5-0.8,0.7c-0.2,0.2-0.5,0.3-0.8,0.4
			c-0.3,0.1-0.7,0.1-1,0.1c-1.4,0-2.1-0.8-2.1-2.3c0-0.3,0-0.6,0.1-0.9c0-0.3,0.1-0.7,0.2-1.1s0.1-0.7,0.2-0.9
			c0.2-1,0.4-1.6,0.5-2.1c0.1-0.5,0.3-1,0.6-1.4c0.3-0.5,0.7-0.9,1.1-1.3c0.5-0.4,1.1-0.5,1.7-0.5c0.5,0,0.9,0.1,1.4,0.3
			c0.4,0.2,0.6,0.6,0.7,1l0,0l0.3-1.1L143.5,304.7z M137.7,313.3c0.5,0,0.9-0.3,1.1-0.8c0.4-0.9,0.7-1.8,0.8-2.8l0.3-1.4
			c0.1-0.3,0.1-0.7,0.1-1.1c0-0.7-0.3-1-0.8-1c-0.4,0-0.7,0.1-0.9,0.4c-0.3,0.3-0.4,0.7-0.6,1.1c-0.1,0.5-0.3,1.1-0.4,1.9
			c-0.2,0.8-0.3,1.7-0.4,2.5c0,0.3,0,0.6,0.2,0.8C137.2,313.2,137.5,313.3,137.7,313.3"/>
		<path class="st0" d="M148.5,314.8l0.2-1l0,0c-0.3,0.4-0.7,0.7-1.2,0.9c-0.5,0.2-1,0.3-1.4,0.3c-0.5,0-1.1-0.1-1.5-0.5
			c-0.4-0.3-0.6-0.8-0.6-1.3c0-0.2,0-0.3,0.1-0.5l1.7-8.1h2.8l-1.5,7c-0.1,0.2-0.1,0.5-0.1,0.8c0,0.4,0.2,0.8,0.6,0.8
			c0.1,0,0.1,0,0.2,0c0.4,0,0.7-0.1,0.9-0.4c0.2-0.3,0.4-0.7,0.5-1.2l1.5-7h2.8l-1.7,8.1c-0.1,0.6-0.2,1.3-0.3,2L148.5,314.8z"/>
		<path class="st0" d="M162.5,310.2h-5.4c-0.1,0.6-0.2,1.2-0.2,1.8c0,0.8,0.3,1.2,0.9,1.2c0.8,0,1.3-0.6,1.6-1.8h2.9
			c-0.2,1-0.8,2-1.6,2.6c-0.9,0.7-2,1-3.2,1c-0.7,0-1.4-0.1-2-0.3c-0.4-0.2-0.8-0.6-1-1c-0.2-0.5-0.3-1-0.3-1.5
			c0-0.9,0.1-1.7,0.3-2.5c0.2-0.9,0.5-1.8,0.9-2.7c0.3-0.7,0.9-1.3,1.6-1.8c0.8-0.5,1.8-0.7,2.8-0.7c0.7,0,1.4,0.1,2,0.3
			c0.5,0.2,0.8,0.5,1.1,1c0.2,0.5,0.3,1,0.3,1.5C163,308.3,162.8,309.3,162.5,310.2 M157.5,308.6h2.6c0-0.2,0.1-0.4,0.1-0.5
			s0-0.3,0.1-0.4c0-0.1,0-0.3,0-0.4c0-0.7-0.3-1.1-1-1.1c-0.5,0-1,0.2-1.2,0.6C157.8,307.5,157.6,308,157.5,308.6"/>
		<polygon class="st0" points="171.1,314.8 168.1,314.8 171.2,300.4 178.7,300.4 178.2,302.6 173.7,302.6 172.9,306.3 177.2,306.3 
			176.7,308.5 172.5,308.5 		"/>
		<polygon class="st0" points="180.2,300.4 183,300.4 180,314.8 177.1,314.8 		"/>
		<path class="st0" d="M186.3,315c-0.7,0-1.4-0.1-2-0.3c-0.4-0.2-0.8-0.6-1-1c-0.2-0.5-0.3-1-0.3-1.5c0-0.9,0.1-1.7,0.3-2.5
			c0.2-0.9,0.5-1.8,0.9-2.7c0.3-0.7,0.9-1.3,1.5-1.8c0.8-0.5,1.8-0.7,2.8-0.7c0.9-0.1,1.9,0.2,2.6,0.7c0.5,0.6,0.8,1.3,0.7,2.1
			c0,0.8-0.1,1.6-0.3,2.3c-0.2,0.8-0.4,1.5-0.6,2.3c-0.2,0.6-0.5,1.1-0.9,1.6c-0.4,0.5-0.9,0.8-1.5,1.1
			C187.8,314.9,187.1,315,186.3,315 M186.7,313.2c0.3,0,0.6-0.1,0.9-0.3c0.3-0.3,0.5-0.7,0.6-1.1c0.2-0.8,0.5-1.6,0.6-2.4
			c0.1-0.6,0.2-1,0.2-1.3c0-0.3,0.1-0.5,0.1-0.8c0-0.3-0.1-0.6-0.2-0.8c-0.2-0.2-0.5-0.3-0.8-0.3c-0.3,0-0.7,0.1-0.9,0.3
			c-0.3,0.3-0.4,0.6-0.5,1c-0.2,0.6-0.3,1.2-0.5,1.9c-0.2,0.9-0.3,1.8-0.4,2.7c0,0.2,0,0.4,0.1,0.6c0.1,0.1,0.2,0.3,0.3,0.3
			C186.3,313.1,186.5,313.2,186.7,313.2"/>
		<path class="st0" d="M194.6,304.7h2.7L197,306l0,0c0.6-1,1.7-1.6,2.9-1.5l-0.5,2.5c-0.5,0-1,0.1-1.5,0.2c-0.3,0.1-0.6,0.3-0.9,0.5
			c-0.2,0.2-0.3,0.4-0.4,0.6c-0.1,0.2-0.2,0.5-0.3,0.9l-1.2,5.5h-2.8L194.6,304.7z"/>
		<path class="st0" d="M208.1,310.2h-5.4c-0.1,0.6-0.2,1.2-0.2,1.8c0,0.8,0.3,1.2,0.9,1.2c0.8,0,1.3-0.6,1.6-1.8h2.9
			c-0.2,1-0.8,2-1.6,2.6c-0.9,0.7-2,1-3.2,1c-0.7,0-1.4-0.1-2-0.3c-0.4-0.2-0.8-0.6-1-1c-0.2-0.5-0.3-1-0.3-1.5
			c0-0.9,0.1-1.7,0.3-2.5c0.2-0.9,0.5-1.8,0.9-2.7c0.3-0.7,0.9-1.3,1.5-1.8c0.8-0.5,1.8-0.7,2.8-0.7c0.7,0,1.4,0.1,2,0.3
			c0.5,0.2,0.8,0.5,1.1,1c0.2,0.5,0.3,1,0.3,1.5C208.5,308.3,208.4,309.3,208.1,310.2 M203.1,308.6h2.6l0.1-0.5c0-0.1,0-0.3,0.1-0.4
			c0-0.1,0-0.3,0-0.4c0-0.7-0.3-1.1-1-1.1c-0.5,0-1,0.2-1.2,0.6C203.4,307.5,203.2,308,203.1,308.6"/>
		<path class="st0" d="M209.2,311.6h2.8c-0.1,0.4-0.1,0.8-0.1,1.2c0.1,0.3,0.4,0.5,0.9,0.5c0.3,0,0.6-0.1,0.8-0.3
			c0.2-0.2,0.4-0.5,0.5-0.8c0-0.1,0-0.2,0-0.3c0-0.4-0.2-0.7-0.5-0.9c-0.5-0.3-1-0.6-1.5-0.8c-0.6-0.3-1.1-0.6-1.5-1
			c-0.4-0.4-0.5-0.8-0.5-1.3c0-0.2,0-0.4,0-0.6c0.1-0.6,0.5-1.2,0.9-1.7c0.5-0.4,1.1-0.7,1.7-0.9c0.7-0.2,1.3-0.3,2-0.3
			c0.5,0,1,0.1,1.5,0.2c0.4,0.1,0.8,0.4,1.1,0.7c0.3,0.4,0.4,0.8,0.4,1.2c0,0.3,0,0.6-0.1,0.9h-2.8c0.1-0.3,0.1-0.5,0.1-0.8
			c0-0.2,0-0.3-0.1-0.5c-0.2-0.2-0.4-0.3-0.6-0.2c-0.3,0-0.6,0.1-0.8,0.3c-0.2,0.2-0.4,0.5-0.4,0.8c0,0.3,0.1,0.6,0.3,0.7
			c0.2,0.2,0.7,0.5,1.5,0.9c0.6,0.3,1.2,0.7,1.7,1.2c0.4,0.4,0.6,0.9,0.5,1.4c0,0.2,0,0.4-0.1,0.6c-0.1,0.6-0.4,1.1-0.8,1.6
			c-0.4,0.5-1,0.9-1.5,1.1c-0.7,0.3-1.4,0.4-2.1,0.4c-0.6,0-1.2-0.1-1.8-0.2c-0.4-0.1-0.9-0.3-1.2-0.7c-0.3-0.4-0.4-0.8-0.4-1.3
			C209,312.4,209.1,312,209.2,311.6"/>
		<path class="st0" d="M27.4,323.1c0-0.1,0.1-0.1,0.1-0.1h0.6c0,0,0.1,0,0.1,0.1c0,0,0,0,0,0l-1.2,6.6c0,0.1,0,0.1-0.1,0.1h-0.6
			c0,0-0.1,0-0.1-0.1c0,0,0,0,0,0L27.4,323.1z"/>
		<path class="st0" d="M31.6,329.8C31.6,329.8,31.5,329.8,31.6,329.8c-0.1-0.1-0.1-0.1-0.1-0.1l0.5-2.8c0.1-0.8-0.1-1.3-0.8-1.3
			c-0.7,0-1.2,0.5-1.3,1.2l-0.5,2.9c0,0.1,0,0.1-0.1,0.1h-0.6c0,0-0.1,0-0.1-0.1c0,0,0,0,0,0l0.8-4.6c0-0.1,0.1-0.1,0.1-0.1h0.6
			c0,0,0.1,0,0.1,0.1c0,0,0,0,0,0l-0.1,0.5l0,0c0.3-0.4,0.9-0.7,1.4-0.7c1,0,1.5,0.7,1.3,1.8l-0.5,3c0,0.1-0.1,0.1-0.1,0.1
			L31.6,329.8z"/>
		<path class="st0" d="M33.6,329.2c0,0,0-0.1,0-0.1l0.4-0.4c0,0,0.1,0,0.1,0c0,0,0,0,0,0c0.4,0.3,0.8,0.5,1.3,0.5
			c0.8,0,1.2-0.4,1.2-0.9s-0.2-0.5-0.8-0.5l-0.5,0c-0.8-0.1-1.2-0.5-1.2-1.1c0-1,0.8-1.6,2-1.6c0.6,0,1.1,0.2,1.6,0.5
			c0,0,0,0.1,0,0.1c0,0,0,0,0,0l-0.4,0.4c0,0-0.1,0.1-0.1,0c0,0,0,0,0,0c-0.3-0.2-0.7-0.4-1.2-0.4c-0.6,0-1,0.4-1,0.8
			c0,0.3,0.2,0.5,0.8,0.5l0.5,0.1c0.8,0.1,1.2,0.5,1.2,1.1c0,1.1-0.8,1.8-2.1,1.8C34.7,330,34.1,329.7,33.6,329.2"/>
		<path class="st0" d="M38.2,331.6C38.2,331.6,38.1,331.6,38.2,331.6c-0.1-0.1-0.1-0.1-0.1-0.1l1.1-6.4c0-0.1,0.1-0.1,0.1-0.1H40
			c0,0,0.1,0,0.1,0.1c0,0,0,0,0,0l-0.1,0.5l0,0c0.3-0.4,0.9-0.7,1.4-0.7c0.9,0,1.4,0.6,1.4,1.6c0,0.8-0.2,1.6-0.5,2.3
			c-0.3,0.7-1,1.1-1.8,1.1c-0.5,0.1-1-0.2-1.2-0.7l0,0l-0.4,2.3c0,0.1,0,0.1-0.1,0.1L38.2,331.6z M41.6,328.4
			c0.2-0.6,0.4-1.2,0.4-1.8c0-0.6-0.2-1-0.9-1c-0.5,0-1,0.3-1.2,0.8c-0.2,0.6-0.3,1.2-0.4,1.8c0,0.6,0.3,1,0.9,1
			C41,329.2,41.4,328.9,41.6,328.4"/>
		<path class="st0" d="M43.6,328.3c0-0.7,0.1-1.4,0.4-2.1c0.3-0.8,1.1-1.3,2-1.3c0.8-0.1,1.5,0.6,1.6,1.4c0,0.1,0,0.2,0,0.2
			c0,0.3,0,0.7-0.1,1c0,0.1-0.1,0.1-0.1,0.1h-2.9c0,0-0.1,0-0.1,0.1c0,0.1,0,0.3,0,0.4c0,0.7,0.3,1.1,1,1.1c0.5,0,1-0.2,1.3-0.6
			c0,0,0.1,0,0.1,0l0.3,0.4c0,0,0,0.1,0,0.1c0,0,0,0,0,0c-0.5,0.5-1.2,0.8-1.9,0.8c-0.8,0.1-1.6-0.5-1.7-1.3
			C43.6,328.5,43.6,328.4,43.6,328.3 M46.7,327.1C46.8,327.1,46.8,327,46.7,327.1c0.1-0.2,0.1-0.3,0.1-0.5c0.1-0.5-0.3-0.9-0.7-0.9
			c-0.1,0-0.1,0-0.2,0c-0.5,0-1,0.3-1.2,0.8c-0.1,0.2-0.1,0.4-0.2,0.6v0.1L46.7,327.1z"/>
		<path class="st0" d="M48.4,328.3c0-0.7,0.2-1.4,0.4-2.1c0.4-0.8,1.1-1.3,2-1.2c0.6-0.1,1.2,0.3,1.4,0.9c0,0,0,0.1,0,0.1l-0.4,0.3
			c0,0-0.1,0-0.1,0c0,0,0,0,0,0c-0.1-0.4-0.5-0.6-0.9-0.6c-0.5,0-1,0.3-1.2,0.8c-0.2,0.5-0.4,1.1-0.4,1.7c0,0.7,0.3,1.1,0.9,1.1
			c0.4,0,0.9-0.2,1.1-0.6c0,0,0.1-0.1,0.1,0l0.4,0.4c0,0,0,0.1,0,0.1c-0.4,0.5-1.1,0.8-1.7,0.8c-0.8,0.1-1.5-0.5-1.6-1.4
			C48.4,328.5,48.4,328.4,48.4,328.3"/>
		<path class="st0" d="M52.8,328.3c0-0.7,0.2-1.4,0.4-2.1c0.4-0.8,1.1-1.3,2-1.2c0.6,0,1.2,0.3,1.4,0.9c0,0,0,0.1,0,0.1l-0.4,0.3
			c0,0-0.1,0-0.1,0c-0.1-0.4-0.5-0.6-0.9-0.6c-0.5,0-1,0.3-1.2,0.8c-0.2,0.5-0.4,1.1-0.4,1.7c0,0.7,0.3,1.1,0.9,1.1
			c0.4,0,0.9-0.2,1.1-0.6c0,0,0.1-0.1,0.1,0l0.4,0.4c0,0,0,0.1,0,0.1c-0.4,0.5-1.1,0.8-1.7,0.8c-0.8,0.1-1.5-0.5-1.6-1.4
			C52.9,328.5,52.9,328.4,52.8,328.3"/>
		<path class="st0" d="M57.4,329.8C57.3,329.8,57.3,329.8,57.4,329.8c-0.1-0.1-0.1-0.1-0.1-0.1l0.8-4.6c0-0.1,0.1-0.1,0.1-0.1h0.6
			c0,0,0.1,0,0.1,0.1c0,0,0,0,0,0l-0.8,4.6c0,0.1,0,0.1-0.1,0.1H57.4z M58.4,323.9C58.3,323.9,58.3,323.9,58.4,323.9
			c-0.1-0.1-0.1-0.1-0.1-0.1l0.1-0.7c0-0.1,0.1-0.1,0.1-0.1h0.7c0,0,0.1,0,0.1,0.1c0,0,0,0,0,0l-0.1,0.7c0,0.1-0.1,0.1-0.1,0.1
			c0,0,0,0,0,0H58.4z"/>
		<path class="st0" d="M59.6,328.3c0-0.7,0.2-1.5,0.5-2.1c0.4-0.8,1.1-1.3,2-1.2c0.8-0.1,1.6,0.5,1.6,1.4c0,0.1,0,0.2,0,0.3
			c0,0.7-0.2,1.5-0.5,2.1c-0.4,0.8-1.1,1.3-2,1.2c-0.8,0.1-1.6-0.5-1.6-1.4C59.6,328.5,59.6,328.4,59.6,328.3 M62.5,328.4
			c0.2-0.5,0.3-1.1,0.4-1.7c0-0.7-0.3-1-0.9-1c-0.5,0-1,0.3-1.2,0.8c-0.2,0.5-0.4,1.1-0.4,1.7c0,0.7,0.3,1,0.9,1
			C61.8,329.2,62.3,328.9,62.5,328.4 M61.9,324.3c-0.1,0-0.1,0-0.1-0.1l0.9-1.2c0-0.1,0.1-0.1,0.2-0.1h0.6c0.1,0,0.1,0.1,0,0.1
			l-1.1,1.2c0,0.1-0.1,0.1-0.2,0.1L61.9,324.3z"/>
		<path class="st0" d="M67.4,329.8C67.4,329.8,67.4,329.8,67.4,329.8c-0.1-0.1-0.1-0.1-0.1-0.1l0.5-2.8c0.1-0.8-0.1-1.3-0.8-1.3
			c-0.7,0-1.2,0.5-1.3,1.2l-0.5,2.9c0,0.1,0,0.1-0.1,0.1h-0.6c0,0-0.1,0-0.1-0.1c0,0,0,0,0,0l0.8-4.6c0-0.1,0.1-0.1,0.1-0.1H66
			c0,0,0.1,0,0.1,0.1c0,0,0,0,0,0l-0.1,0.5l0,0c0.3-0.4,0.9-0.7,1.4-0.7c1,0,1.5,0.7,1.3,1.8l-0.5,3c0,0.1-0.1,0.1-0.1,0.1
			L67.4,329.8z"/>
		<path class="st0" d="M73.1,323.1c0-0.1,0.1-0.1,0.1-0.1h2.2c0.9-0.1,1.7,0.5,1.8,1.4c0,0.1,0,0.3,0,0.4c0,1.2-0.3,2.5-0.7,3.6
			c-0.4,0.9-1.3,1.4-2.3,1.3H72c0,0-0.1,0-0.1-0.1c0,0,0,0,0,0L73.1,323.1z M72.9,329h1.2c0.7,0.1,1.4-0.3,1.7-1
			c0.3-1,0.6-2,0.6-3.1c0-0.9-0.5-1.2-1.3-1.2h-1.2c0,0-0.1,0-0.1,0.1l-0.9,5.1C72.9,328.9,72.9,329,72.9,329"/>
		<path class="st0" d="M77.9,328.3c0-0.7,0.1-1.4,0.4-2.1c0.3-0.8,1.1-1.3,2-1.3c0.8-0.1,1.5,0.6,1.6,1.4c0,0.1,0,0.2,0,0.3
			c0,0.3,0,0.7-0.1,1c0,0.1-0.1,0.1-0.1,0.1h-2.9c0,0-0.1,0-0.1,0.1c0,0.1,0,0.3,0,0.4c0,0.7,0.3,1.1,1,1.1c0.5,0,1-0.2,1.3-0.6
			c0,0,0.1,0,0.2,0l0.3,0.4c0,0,0,0.1,0,0.1c-0.5,0.5-1.2,0.8-1.9,0.8c-0.8,0.1-1.6-0.5-1.7-1.3C77.9,328.5,77.9,328.4,77.9,328.3
			 M81.1,327.1C81.1,327.1,81.1,327.1,81.1,327.1c0.1-0.2,0.1-0.3,0.1-0.5c0.1-0.5-0.2-0.9-0.7-0.9c-0.1,0-0.2,0-0.2,0
			c-0.5,0-1,0.3-1.2,0.8c-0.1,0.2-0.1,0.4-0.2,0.6v0.1L81.1,327.1z"/>
		<path class="st0" d="M82.4,331.6C82.4,331.6,82.4,331.6,82.4,331.6c-0.1-0.1-0.1-0.1-0.1-0.1l1.1-6.4c0-0.1,0-0.1,0.1-0.1
			c0,0,0,0,0,0h0.6c0,0,0.1,0,0.1,0.1c0,0,0,0,0,0l-0.1,0.5l0,0c0.3-0.4,0.9-0.7,1.4-0.7c0.9,0,1.4,0.6,1.4,1.6
			c0,0.8-0.2,1.6-0.5,2.3c-0.3,0.7-1,1.1-1.8,1.1c-0.5,0-1-0.2-1.2-0.7l0,0l-0.4,2.3c0,0.1,0,0.1-0.1,0.1L82.4,331.6z M85.8,328.4
			c0.2-0.6,0.4-1.2,0.4-1.8c0-0.6-0.2-1-0.9-1c-0.5,0-1,0.3-1.2,0.8c-0.2,0.6-0.3,1.2-0.4,1.8c0,0.6,0.3,1,0.9,1
			C85.2,329.2,85.6,328.9,85.8,328.4"/>
		<path class="st0" d="M90.5,329.8C90.5,329.8,90.5,329.8,90.5,329.8c-0.1-0.1-0.1-0.1-0.1-0.1l0.1-0.4l0,0
			c-0.4,0.4-0.9,0.7-1.5,0.6c-0.7,0.1-1.2-0.4-1.3-1.1c0,0,0-0.1,0-0.1c0-1.1,0.8-1.7,2.1-1.7h1.1c0,0,0.1,0,0.1-0.1l0.1-0.4
			c0.1-0.7-0.1-1-0.9-1c-0.4,0-0.8,0.1-1.2,0.4c-0.1,0-0.1,0-0.1,0l-0.2-0.5c0,0,0-0.1,0-0.1c0.5-0.3,1.1-0.5,1.6-0.5
			c1.3,0,1.7,0.5,1.5,1.6l-0.6,3.2c0,0.1-0.1,0.1-0.1,0.1L90.5,329.8z M90.7,328.3l0.1-0.6c0,0,0-0.1-0.1-0.1h-0.9
			c-0.9,0-1.3,0.4-1.3,1c0,0.4,0.3,0.6,0.8,0.6C90,329.3,90.6,328.9,90.7,328.3"/>
		<path class="st0" d="M92.8,329.8C92.7,329.8,92.7,329.8,92.8,329.8c-0.1-0.1-0.1-0.1-0.1-0.1l0.8-4.6c0-0.1,0-0.1,0.1-0.1
			c0,0,0,0,0,0h0.6c0.1,0,0.1,0,0.1,0.1l-0.1,0.5l0,0c0.3-0.5,0.8-0.7,1.3-0.7c0.3,0,0.7,0.1,0.9,0.4c0,0,0,0.1,0,0.1l-0.4,0.4
			c0,0-0.1,0-0.1,0c-0.2-0.2-0.4-0.2-0.7-0.2c-0.7,0-1.1,0.6-1.2,1.4l-0.5,2.6c0,0.1,0,0.1-0.1,0.1L92.8,329.8z"/>
		<path class="st0" d="M97.9,329.9c-0.9,0-1.2-0.4-1-1.4l0.5-2.8c0,0,0-0.1-0.1-0.1H97c0,0-0.1,0-0.1-0.1c0,0,0,0,0,0l0.1-0.4
			c0-0.1,0-0.1,0.1-0.1c0,0,0,0,0,0h0.4c0,0,0.1,0,0.1-0.1l0.2-1.4c0-0.1,0.1-0.1,0.1-0.1h0.6c0,0,0.1,0,0.1,0.1c0,0,0,0,0,0
			l-0.2,1.4v0.1h0.8c0,0,0.1,0,0.1,0.1c0,0,0,0,0,0l-0.1,0.4c0,0.1-0.1,0.1-0.1,0.1h-0.8c0,0,0,0-0.1,0.1l-0.5,2.7
			c-0.1,0.5,0,0.6,0.5,0.6h0.2c0,0,0.1,0,0.1,0.1c0,0,0,0,0,0l-0.1,0.5c0,0.1-0.1,0.1-0.1,0.1L97.9,329.9z"/>
		<path class="st0" d="M102.4,329.8C102.3,329.8,102.3,329.8,102.4,329.8c-0.1-0.1-0.1-0.1-0.1-0.1l0.1-0.4l0,0
			c-0.4,0.4-0.9,0.7-1.5,0.6c-0.7,0.1-1.2-0.4-1.3-1.1c0,0,0-0.1,0-0.1c0-1.1,0.8-1.7,2.1-1.7h1c0,0,0.1,0,0.1-0.1l0.1-0.4
			c0.1-0.7-0.1-1-0.9-1c-0.4,0-0.8,0.1-1.2,0.4c-0.1,0-0.1,0-0.1,0l-0.2-0.5c0,0,0-0.1,0-0.1c0.5-0.3,1.1-0.5,1.6-0.5
			c1.3,0,1.7,0.5,1.5,1.6l-0.6,3.2c0,0.1,0,0.1-0.1,0.1L102.4,329.8z M102.5,328.3l0.1-0.6v-0.1h-0.9c-0.9,0-1.3,0.4-1.3,1
			c0,0.4,0.3,0.6,0.8,0.6C101.9,329.3,102.4,328.9,102.5,328.3"/>
		<path class="st0" d="M110.4,329.8C110.3,329.8,110.3,329.8,110.4,329.8c-0.1-0.1-0.1-0.1-0.1-0.1l0.5-2.8c0.1-0.8-0.1-1.3-0.8-1.3
			c-0.7,0-1.2,0.5-1.3,1.2l-0.5,2.9c0,0.1-0.1,0.1-0.1,0.1h-0.6c0,0-0.1,0-0.1-0.1c0,0,0,0,0,0l0.5-2.8c0.1-0.8-0.1-1.3-0.8-1.3
			c-0.7,0-1.2,0.5-1.3,1.2l-0.5,2.9c0,0.1,0,0.1-0.1,0.1h-0.6c0,0-0.1,0-0.1-0.1c0,0,0,0,0,0l0.8-4.6c0-0.1,0.1-0.1,0.1-0.1h0.6
			c0,0,0.1,0,0.1,0.1c0,0,0,0,0,0l-0.1,0.5l0,0c0.3-0.4,0.9-0.7,1.4-0.7c0.5-0.1,1,0.3,1.2,0.8l0,0c0.4-0.5,1-0.8,1.6-0.8
			c1.1,0,1.5,0.7,1.3,1.8l-0.5,3c0,0.1-0.1,0.1-0.1,0.1L110.4,329.8z"/>
		<path class="st0" d="M112.6,328.3c0-0.7,0.1-1.4,0.4-2.1c0.3-0.8,1.1-1.3,2-1.3c0.8-0.1,1.5,0.6,1.6,1.4c0,0.1,0,0.2,0,0.2
			c0,0.3,0,0.7-0.1,1c0,0.1-0.1,0.1-0.1,0.1h-2.9c0,0-0.1,0-0.1,0.1c0,0.1,0,0.3,0,0.4c0,0.7,0.3,1.1,1,1.1c0.5,0,1-0.2,1.3-0.6
			c0,0,0.1,0,0.1,0l0.3,0.4c0,0,0,0.1,0,0.1c0,0,0,0,0,0c-0.5,0.5-1.2,0.8-1.9,0.8c-0.8,0.1-1.6-0.5-1.7-1.3
			C112.6,328.5,112.6,328.4,112.6,328.3 M115.7,327.1C115.8,327.1,115.8,327,115.7,327.1c0.1-0.2,0.1-0.3,0.1-0.5
			c0.1-0.5-0.3-0.9-0.7-0.9c-0.1,0-0.1,0-0.2,0c-0.5,0-1,0.3-1.2,0.8c-0.1,0.2-0.1,0.4-0.2,0.6v0.1L115.7,327.1z"/>
		<path class="st0" d="M120.4,329.8C120.3,329.8,120.3,329.8,120.4,329.8c-0.1-0.1-0.1-0.1-0.1-0.1l0.5-2.8c0.1-0.8-0.1-1.3-0.8-1.3
			c-0.7,0-1.2,0.5-1.3,1.2l-0.5,2.9c0,0.1-0.1,0.1-0.1,0.1h-0.6c0,0-0.1,0-0.1-0.1c0,0,0,0,0,0l0.8-4.6c0-0.1,0.1-0.1,0.1-0.1h0.6
			c0,0,0.1,0,0.1,0.1c0,0,0,0,0,0l-0.1,0.5l0,0c0.3-0.4,0.9-0.7,1.4-0.7c1,0,1.5,0.7,1.3,1.8l-0.5,3c0,0.1-0.1,0.1-0.1,0.1
			L120.4,329.8z"/>
		<path class="st0" d="M123.8,329.9c-0.9,0-1.2-0.4-1-1.4l0.5-2.8c0,0,0-0.1,0-0.1c0,0,0,0,0,0h-0.4c0,0-0.1,0-0.1-0.1c0,0,0,0,0,0
			l0.1-0.4c0-0.1,0.1-0.1,0.1-0.1c0,0,0,0,0,0h0.4c0,0,0.1,0,0.1-0.1l0.2-1.4c0-0.1,0.1-0.1,0.1-0.1h0.6c0,0,0.1,0,0.1,0.1
			c0,0,0,0,0,0l-0.2,1.4v0.1h0.8c0,0,0.1,0,0.1,0.1c0,0,0,0,0,0l-0.1,0.4c0,0.1-0.1,0.1-0.1,0.1h-0.8c0,0-0.1,0-0.1,0.1l-0.5,2.7
			c-0.1,0.5,0,0.6,0.5,0.6h0.2c0,0,0.1,0,0.1,0.1c0,0,0,0,0,0l-0.1,0.5c0,0.1-0.1,0.1-0.1,0.1H123.8z"/>
		<path class="st0" d="M128.3,329.8C128.2,329.8,128.2,329.8,128.3,329.8c-0.1-0.1-0.1-0.1-0.1-0.1l0.1-0.4l0,0
			c-0.4,0.4-0.9,0.7-1.5,0.6c-0.7,0.1-1.2-0.4-1.3-1.1c0,0,0-0.1,0-0.1c0-1.1,0.8-1.7,2.1-1.7h1.1c0,0,0.1,0,0.1-0.1l0.1-0.4
			c0.1-0.7-0.1-1-0.9-1c-0.4,0-0.8,0.1-1.2,0.4c-0.1,0-0.1,0-0.1,0l-0.2-0.5c0,0,0-0.1,0-0.1c0.5-0.3,1.1-0.5,1.6-0.5
			c1.3,0,1.7,0.5,1.5,1.6l-0.6,3.2c0,0.1-0.1,0.1-0.1,0.1L128.3,329.8z M128.4,328.3l0.1-0.6c0,0,0-0.1-0.1-0.1h-0.9
			c-0.9,0-1.3,0.4-1.3,1c0,0.4,0.3,0.6,0.8,0.6C127.7,329.3,128.3,328.9,128.4,328.3"/>
		<path class="st0" d="M131.5,329.9c-0.8,0-1-0.4-0.9-1.2l1-5.5c0-0.1,0.1-0.1,0.1-0.1h0.6c0,0,0.1,0,0.1,0.1c0,0,0,0,0,0l-1,5.5
			c-0.1,0.4,0,0.5,0.4,0.5h0.2c0,0,0.1,0,0.1,0.1c0,0,0,0,0,0l-0.1,0.5c0,0.1-0.1,0.1-0.1,0.1L131.5,329.9z"/>
		<path class="st0" d="M138.1,329.8C138.1,329.8,138.1,329.8,138.1,329.8c-0.1-0.1-0.1-0.1-0.1-0.1l0.1-0.5l0,0
			c-0.3,0.4-0.9,0.7-1.4,0.7c-0.9,0-1.4-0.6-1.4-1.6c0-0.8,0.2-1.6,0.5-2.3c0.3-0.7,1-1.1,1.8-1.1c0.5,0,1,0.2,1.2,0.7l0,0l0.4-2.5
			c0-0.1,0.1-0.1,0.1-0.1h0.6c0,0,0.1,0,0.1,0.1c0,0,0,0,0,0l-1.2,6.6c0,0.1-0.1,0.1-0.1,0.1L138.1,329.8z M138.2,328.4
			c0.2-0.6,0.3-1.2,0.4-1.8c0-0.6-0.3-1-0.9-1c-0.5,0-1,0.3-1.2,0.8c-0.2,0.6-0.4,1.2-0.4,1.8c0,0.6,0.2,1,0.9,1
			C137.5,329.2,138,328.9,138.2,328.4"/>
		<path class="st0" d="M140.4,328.3c0-0.7,0.1-1.4,0.4-2.1c0.3-0.8,1.1-1.3,2-1.3c0.8-0.1,1.5,0.6,1.6,1.4c0,0.1,0,0.2,0,0.2
			c0,0.3,0,0.7-0.1,1c0,0.1-0.1,0.1-0.1,0.1h-2.9c0,0-0.1,0-0.1,0.1c0,0.1,0,0.3,0,0.4c0,0.7,0.3,1.1,1,1.1c0.5,0,1-0.2,1.3-0.6
			c0,0,0.1,0,0.1,0l0.3,0.4c0,0,0,0.1,0,0.1c0,0,0,0,0,0c-0.5,0.5-1.2,0.8-1.9,0.8c-0.8,0.1-1.6-0.5-1.7-1.3
			C140.4,328.5,140.4,328.4,140.4,328.3 M143.6,327.1C143.6,327.1,143.6,327,143.6,327.1c0.1-0.2,0.1-0.3,0.1-0.5
			c0.1-0.5-0.3-0.9-0.7-0.9c-0.1,0-0.1,0-0.2,0c-0.5,0-1,0.3-1.2,0.8c-0.1,0.2-0.1,0.4-0.2,0.6v0.1L143.6,327.1z"/>
		<path class="st0" d="M148.7,323.1c0-0.1,0.1-0.1,0.1-0.1h3.9c0,0,0.1,0,0.1,0.1c0,0,0,0,0,0l-0.1,0.6c0,0.1-0.1,0.1-0.1,0.1h-3.1
			c0,0-0.1,0-0.1,0.1l-0.4,2.1c0,0,0,0.1,0.1,0.1h2.6c0,0,0.1,0,0.1,0.1c0,0,0,0,0,0l-0.1,0.6c0,0.1-0.1,0.1-0.1,0.1h-2.6
			c0,0-0.1,0-0.1,0.1l-0.4,2.1v0.1h3.1c0,0,0.1,0,0.1,0.1c0,0,0,0,0,0l-0.1,0.6c0,0.1-0.1,0.1-0.1,0.1h-3.9c0,0-0.1,0-0.1-0.1
			c0,0,0,0,0,0L148.7,323.1z"/>
		<path class="st0" d="M155.8,329.8C155.7,329.8,155.7,329.8,155.8,329.8c-0.1-0.1-0.1-0.1-0.1-0.1l0.5-2.8c0.1-0.8-0.1-1.3-0.8-1.3
			c-0.7,0-1.2,0.5-1.3,1.2l-0.5,2.9c0,0.1-0.1,0.1-0.1,0.1h-0.6c0,0-0.1,0-0.1-0.1c0,0,0,0,0,0l0.8-4.6c0-0.1,0.1-0.1,0.1-0.1h0.6
			c0,0,0.1,0,0.1,0.1c0,0,0,0,0,0l-0.1,0.5l0,0c0.3-0.4,0.9-0.7,1.4-0.7c1,0,1.5,0.7,1.3,1.8l-0.5,3c0,0.1-0.1,0.1-0.1,0.1
			L155.8,329.8z"/>
		<path class="st0" d="M157.8,329.2c0,0,0-0.1,0-0.1l0.4-0.4c0,0,0.1,0,0.1,0c0.4,0.3,0.8,0.5,1.3,0.5c0.8,0,1.2-0.4,1.2-0.9
			s-0.2-0.5-0.8-0.5l-0.5,0c-0.8-0.1-1.2-0.5-1.2-1.1c0-1,0.8-1.6,2-1.6c0.6,0,1.1,0.2,1.5,0.5c0,0,0,0.1,0,0.1c0,0,0,0,0,0
			l-0.4,0.4c0,0-0.1,0.1-0.1,0c0,0,0,0,0,0c-0.3-0.2-0.7-0.4-1.2-0.4c-0.6,0-1,0.4-1,0.8c0,0.3,0.2,0.5,0.8,0.5l0.5,0.1
			c0.8,0.1,1.2,0.5,1.2,1.1c0,1.1-0.8,1.8-2.1,1.8C158.9,329.9,158.3,329.7,157.8,329.2"/>
		<path class="st0" d="M162.7,328.3c0-0.7,0.1-1.4,0.4-2.1c0.3-0.8,1.1-1.3,2-1.3c0.8-0.1,1.5,0.6,1.6,1.4c0,0.1,0,0.2,0,0.2
			c0,0.3,0,0.7-0.1,1c0,0.1-0.1,0.1-0.1,0.1h-2.9c0,0-0.1,0-0.1,0.1c0,0.1,0,0.3,0,0.4c0,0.7,0.3,1.1,1,1.1c0.5,0,1-0.2,1.3-0.6
			c0,0,0.1,0,0.1,0l0.3,0.4c0,0,0,0.1,0,0.1c0,0,0,0,0,0c-0.5,0.5-1.2,0.8-1.9,0.8c-0.8,0.1-1.6-0.5-1.7-1.3
			C162.7,328.5,162.7,328.4,162.7,328.3 M165.8,327.1C165.9,327.1,165.9,327,165.8,327.1c0.1-0.2,0.1-0.3,0.1-0.5
			c0.1-0.5-0.3-0.9-0.7-0.9c-0.1,0-0.1,0-0.2,0c-0.5,0-1,0.3-1.2,0.8c-0.1,0.2-0.1,0.4-0.2,0.6v0.1L165.8,327.1z"/>
		<path class="st0" d="M170.4,329.8C170.4,329.8,170.3,329.8,170.4,329.8c-0.1-0.1-0.1-0.1-0.1-0.1l0.5-2.8c0.1-0.8-0.1-1.3-0.8-1.3
			c-0.7,0-1.2,0.5-1.3,1.2l-0.5,2.9c0,0.1,0,0.1-0.1,0.1h-0.6c0,0-0.1,0-0.1-0.1c0,0,0,0,0,0l0.8-4.6c0-0.1,0.1-0.1,0.1-0.1h0.6
			c0,0,0.1,0,0.1,0.1c0,0,0,0,0,0l-0.1,0.5l0,0c0.3-0.4,0.9-0.7,1.4-0.7c1,0,1.5,0.7,1.3,1.8l-0.5,3c0,0.1-0.1,0.1-0.1,0.1
			L170.4,329.8z M170.1,323.8c-0.1-0.1-0.3-0.2-0.5-0.2c-0.3,0-0.5,0.1-0.6,0.3c0,0-0.1,0-0.1,0l0.1-0.5c0-0.1,0.1-0.1,0.1-0.2
			c0.2-0.2,0.4-0.3,0.7-0.3c0.2,0,0.4,0.1,0.6,0.2c0.1,0.1,0.3,0.2,0.5,0.2c0.2,0,0.5-0.1,0.6-0.3c0,0,0.1,0,0.1,0l-0.1,0.5
			c0,0.1-0.1,0.1-0.1,0.2c-0.2,0.2-0.4,0.3-0.7,0.3C170.5,324,170.2,324,170.1,323.8"/>
		<path class="st0" d="M175.4,329.8C175.3,329.8,175.3,329.8,175.4,329.8c-0.1-0.1-0.1-0.1-0.1-0.1l0.1-0.4l0,0
			c-0.4,0.4-0.9,0.7-1.5,0.6c-0.7,0.1-1.2-0.4-1.3-1.1c0,0,0-0.1,0-0.1c0-1.1,0.8-1.7,2.1-1.7h1c0,0,0.1,0,0.1-0.1l0.1-0.4
			c0.1-0.7-0.1-1-0.9-1c-0.4,0-0.8,0.1-1.2,0.4c-0.1,0-0.1,0-0.1,0l-0.2-0.5c0,0,0-0.1,0-0.1c0.5-0.3,1.1-0.5,1.6-0.5
			c1.3,0,1.7,0.5,1.5,1.6l-0.6,3.2c0,0.1-0.1,0.1-0.1,0.1L175.4,329.8z M175.5,328.3l0.1-0.6v-0.1h-0.9c-0.9,0-1.3,0.4-1.3,1
			c0,0.4,0.3,0.6,0.8,0.6C174.9,329.3,175.4,328.9,175.5,328.3"/>
		<path class="st0" d="M180.5,329.8C180.5,329.8,180.4,329.8,180.5,329.8c-0.1-0.1-0.1-0.1-0.1-0.1l0.5-2.8c0.1-0.8-0.1-1.3-0.8-1.3
			c-0.7,0-1.2,0.5-1.3,1.2l-0.5,2.9c0,0.1,0,0.1-0.1,0.1h-0.6c0,0-0.1,0-0.1-0.1c0,0,0,0,0,0l0.8-4.6c0-0.1,0.1-0.1,0.1-0.1h0.6
			c0,0,0.1,0,0.1,0.1c0,0,0,0,0,0l-0.1,0.5l0,0c0.3-0.4,0.9-0.7,1.4-0.7c1,0,1.5,0.7,1.3,1.8l-0.5,3c0,0.1-0.1,0.1-0.1,0.1
			L180.5,329.8z"/>
		<path class="st0" d="M182.5,329.8C182.5,329.8,182.4,329.8,182.5,329.8c-0.1-0.1-0.1-0.1-0.1-0.1l0.1-0.5c0,0,0-0.1,0.1-0.1
			l3.1-3.4h-2.3c0,0-0.1,0-0.1-0.1c0,0,0,0,0,0l0.1-0.5c0-0.1,0.1-0.1,0.1-0.1h3.2c0,0,0.1,0,0.1,0.1c0,0,0,0,0,0l-0.1,0.5
			c0,0,0,0.1-0.1,0.1l-3.1,3.3l0,0h2.4c0,0,0.1,0,0.1,0.1c0,0,0,0,0,0l-0.1,0.5c0,0.1,0,0.1-0.1,0.1c0,0,0,0,0,0L182.5,329.8z"/>
		<path class="st0" d="M190,329.8C190,329.8,189.9,329.8,190,329.8c-0.1-0.1-0.1-0.1-0.1-0.1l0.1-0.4l0,0c-0.4,0.4-0.9,0.7-1.5,0.6
			c-0.7,0.1-1.2-0.4-1.3-1.1c0,0,0-0.1,0-0.1c0-1.1,0.8-1.7,2.1-1.7h1.1c0,0,0.1,0,0.1-0.1l0.1-0.4c0.1-0.7-0.1-1-0.9-1
			c-0.4,0-0.9,0.1-1.2,0.4c-0.1,0-0.1,0-0.1,0l-0.2-0.5c0,0,0-0.1,0-0.1c0.5-0.3,1.1-0.5,1.6-0.5c1.3,0,1.7,0.5,1.5,1.6l-0.6,3.2
			c0,0.1-0.1,0.1-0.1,0.1L190,329.8z M190.2,328.3l0.1-0.6c0,0,0-0.1,0-0.1h-0.9c-0.9,0-1.3,0.4-1.3,1c0,0.4,0.3,0.6,0.8,0.6
			C189.5,329.3,190,328.9,190.2,328.3"/>
		<path class="st0" d="M194.5,329.8C194.5,329.8,194.5,329.8,194.5,329.8c-0.1-0.1-0.1-0.1-0.1-0.1l1.2-6.6c0-0.1,0.1-0.1,0.1-0.1
			h2.3c0.8-0.1,1.6,0.5,1.7,1.3c0,0.1,0,0.2,0,0.3c0.1,1.2-0.8,2.3-2.1,2.4c-0.1,0-0.3,0-0.4,0h-1.5c0,0-0.1,0-0.1,0l-0.5,2.6
			c0,0.1-0.1,0.1-0.1,0.1L194.5,329.8z M199,324.8c0-0.6-0.4-0.9-1.1-0.9h-1.5c0,0-0.1,0-0.1,0.1l-0.4,2.4v0.1h1.5
			c0.8,0.1,1.5-0.5,1.6-1.3C198.9,324.9,198.9,324.8,199,324.8"/>
		<path class="st0" d="M200.1,329.8C200.1,329.8,200.1,329.8,200.1,329.8c-0.1-0.1-0.1-0.1-0.1-0.1l0.8-4.6c0-0.1,0.1-0.1,0.1-0.1
			h0.6c0,0,0.1,0,0.1,0.1c0,0,0,0,0,0l-0.1,0.5l0,0c0.3-0.5,0.8-0.7,1.3-0.7c0.3,0,0.7,0.1,0.9,0.4c0,0,0,0.1,0,0.1l-0.4,0.4
			c0,0-0.1,0-0.1,0c-0.2-0.2-0.4-0.2-0.7-0.2c-0.7,0-1.1,0.6-1.3,1.4l-0.5,2.6c0,0.1,0,0.1-0.1,0.1L200.1,329.8z"/>
		<path class="st0" d="M204,329.8C204,329.8,203.9,329.8,204,329.8c-0.1-0.1-0.1-0.1-0.1-0.1l0.8-4.6c0-0.1,0.1-0.1,0.1-0.1h0.6
			c0,0,0.1,0,0.1,0.1c0,0,0,0,0,0l-0.8,4.6c0,0.1,0,0.1-0.1,0.1H204z M205,323.9C205,323.9,205,323.9,205,323.9
			c-0.1-0.1-0.1-0.1-0.1-0.1l0.1-0.7c0-0.1,0.1-0.1,0.1-0.1h0.7c0,0,0.1,0,0.1,0.1c0,0,0,0,0,0l-0.1,0.7c0,0.1-0.1,0.1-0.1,0.1
			c0,0,0,0,0,0H205z"/>
		<path class="st0" d="M212.2,329.8C212.1,329.8,212.1,329.8,212.2,329.8c-0.1-0.1-0.1-0.1-0.1-0.1l0.5-2.8c0.1-0.8-0.1-1.3-0.8-1.3
			c-0.7,0-1.2,0.5-1.3,1.2l-0.5,2.9c0,0.1-0.1,0.1-0.1,0.1h-0.6c0,0-0.1,0-0.1-0.1c0,0,0,0,0,0l0.5-2.8c0.1-0.8-0.1-1.3-0.8-1.3
			c-0.7,0-1.2,0.5-1.3,1.2l-0.5,2.9c0,0.1,0,0.1-0.1,0.1h-0.6c0,0-0.1,0-0.1-0.1c0,0,0,0,0,0l0.8-4.6c0-0.1,0.1-0.1,0.1-0.1h0.6
			c0,0,0.1,0,0.1,0.1c0,0,0,0,0,0l-0.1,0.5l0,0c0.3-0.4,0.9-0.7,1.4-0.7c0.5-0.1,1,0.3,1.2,0.8l0,0c0.4-0.5,1-0.8,1.6-0.8
			c1.1,0,1.5,0.7,1.3,1.8l-0.5,3c0,0.1-0.1,0.1-0.1,0.1L212.2,329.8z"/>
		<path class="st0" d="M217.1,329.8C217.1,329.8,217,329.8,217.1,329.8c-0.1-0.1-0.1-0.1-0.1-0.1l0.1-0.4l0,0
			c-0.4,0.4-0.9,0.7-1.5,0.6c-0.7,0.1-1.2-0.4-1.3-1.1c0,0,0-0.1,0-0.1c0-1.1,0.8-1.7,2.1-1.7h1c0,0,0.1,0,0.1-0.1l0.1-0.4
			c0.1-0.7-0.1-1-0.9-1c-0.4,0-0.8,0.1-1.2,0.4c-0.1,0-0.1,0-0.1,0l-0.2-0.5c0,0,0-0.1,0-0.1c0.5-0.3,1.1-0.5,1.6-0.5
			c1.3,0,1.7,0.5,1.5,1.6l-0.6,3.2c0,0.1-0.1,0.1-0.1,0.1L217.1,329.8z M217.3,328.3l0.1-0.6c0,0,0-0.1,0-0.1h-1
			c-0.9,0-1.3,0.4-1.3,1c0,0.4,0.3,0.6,0.8,0.6C216.5,329.3,217.1,328.9,217.3,328.3"/>
		<path class="st0" d="M219.4,329.8C219.3,329.8,219.3,329.8,219.4,329.8c-0.1-0.1-0.1-0.1-0.1-0.1l0.8-4.6c0-0.1,0.1-0.1,0.1-0.1
			h0.6c0,0,0.1,0,0.1,0.1c0,0,0,0,0,0l-0.1,0.5l0,0c0.3-0.5,0.8-0.7,1.3-0.7c0.3,0,0.7,0.1,0.9,0.4c0,0,0,0.1,0,0.1l-0.4,0.4
			c0,0-0.1,0-0.1,0c-0.2-0.2-0.4-0.2-0.7-0.2c-0.7,0-1.1,0.6-1.3,1.4l-0.5,2.6c0,0.1,0,0.1-0.1,0.1L219.4,329.8z"/>
		<path class="st0" d="M223.2,329.8C223.2,329.8,223.2,329.8,223.2,329.8c-0.1-0.1-0.1-0.1-0.1-0.1l0.8-4.6c0-0.1,0.1-0.1,0.1-0.1
			h0.6c0,0,0.1,0,0.1,0.1c0,0,0,0,0,0l-0.8,4.6c0,0.1,0,0.1-0.1,0.1H223.2z M224.2,323.9C224.2,323.9,224.2,323.9,224.2,323.9
			c-0.1-0.1-0.1-0.1-0.1-0.1l0.1-0.7c0-0.1,0.1-0.1,0.1-0.1h0.7c0,0,0.1,0,0.1,0.1c0,0,0,0,0,0l-0.1,0.7c0,0.1-0.1,0.1-0.1,0.1
			c0,0,0,0,0,0H224.2z"/>
		<path class="st0" d="M228.3,329.8C228.2,329.8,228.2,329.8,228.3,329.8c-0.1-0.1-0.1-0.1-0.1-0.1l0.1-0.4l0,0
			c-0.4,0.4-0.9,0.7-1.5,0.6c-0.7,0.1-1.2-0.4-1.3-1.1c0,0,0-0.1,0-0.1c0-1.1,0.8-1.7,2.1-1.7h1c0,0,0.1,0,0.1-0.1l0.1-0.4
			c0.1-0.7-0.1-1-0.9-1c-0.4,0-0.8,0.1-1.2,0.4c-0.1,0-0.1,0-0.1,0l-0.2-0.5c0,0,0-0.1,0-0.1c0.5-0.3,1.1-0.5,1.6-0.5
			c1.3,0,1.7,0.5,1.5,1.6l-0.6,3.2c0,0.1-0.1,0.1-0.1,0.1L228.3,329.8z M228.4,328.3l0.1-0.6v-0.1h-0.9c-0.9,0-1.3,0.4-1.3,1
			c0,0.4,0.3,0.6,0.8,0.6C227.8,329.3,228.3,328.9,228.4,328.3"/>
		<path class="st0" d="M230.5,328.9c0-0.1,0.1-0.1,0.1-0.1h0.6c0,0,0.1,0,0.1,0.1c0,0,0,0,0,0l-0.1,0.9c0,0.1,0,0.2-0.1,0.2
			l-0.7,0.8c0,0-0.1,0.1-0.1,0.1c0,0-0.1,0-0.1-0.1c0,0,0,0,0,0L230.5,328.9z"/>
		<path class="st0" d="M235.8,323.1c0-0.1,0.1-0.1,0.1-0.1h2.2c0.9-0.1,1.7,0.5,1.8,1.4c0,0.1,0,0.3,0,0.4c0,1.2-0.3,2.5-0.7,3.6
			c-0.4,0.9-1.3,1.4-2.3,1.3h-2.2c0,0-0.1,0-0.1-0.1c0,0,0,0,0,0L235.8,323.1z M235.7,329h1.2c0.7,0.1,1.4-0.3,1.7-1
			c0.4-1,0.6-2,0.6-3.1c0-0.9-0.5-1.2-1.4-1.2h-1.2c0,0-0.1,0-0.1,0.1l-0.9,5.1C235.6,328.9,235.6,329,235.7,329"/>
		<path class="st0" d="M242.1,325C242.1,325,242.2,325,242.1,325c0.1,0.1,0.1,0.1,0.1,0.1l-0.5,2.8c-0.1,0.8,0.1,1.3,0.8,1.3
			c0.7,0,1.2-0.5,1.3-1.2l0.5-2.9c0-0.1,0.1-0.1,0.1-0.1h0.6c0,0,0.1,0,0.1,0.1c0,0,0,0,0,0l-0.8,4.6c0,0.1-0.1,0.1-0.1,0.1h-0.6
			c0,0-0.1,0-0.1-0.1c0,0,0,0,0,0l0.1-0.5l0,0c-0.3,0.4-0.8,0.7-1.4,0.7c-1,0-1.5-0.7-1.3-1.8l0.5-3c0-0.1,0-0.1,0.1-0.1L242.1,325z
			"/>
		<path class="st0" d="M245.8,329.8C245.8,329.8,245.8,329.8,245.8,329.8c-0.1-0.1-0.1-0.1-0.1-0.1l0.8-4.6c0-0.1,0.1-0.1,0.1-0.1
			h0.6c0,0,0.1,0,0.1,0.1c0,0,0,0,0,0l-0.1,0.5l0,0c0.3-0.5,0.8-0.7,1.3-0.7c0.3,0,0.7,0.1,0.9,0.4c0,0,0,0.1,0,0.1l-0.4,0.4
			c0,0-0.1,0-0.1,0c-0.2-0.2-0.4-0.2-0.7-0.2c-0.7,0-1.1,0.6-1.3,1.4l-0.5,2.6c0,0.1,0,0.1-0.1,0.1L245.8,329.8z"/>
		<path class="st0" d="M252.2,329.8C252.1,329.8,252.1,329.8,252.2,329.8c-0.1-0.1-0.1-0.1-0.1-0.1l0.1-0.4l0,0
			c-0.4,0.4-0.9,0.7-1.5,0.6c-0.7,0.1-1.2-0.4-1.3-1.1c0,0,0-0.1,0-0.1c0-1.1,0.8-1.7,2.1-1.7h1c0,0,0.1,0,0.1-0.1l0.1-0.4
			c0.1-0.7-0.1-1-0.9-1c-0.4,0-0.8,0.1-1.2,0.4c-0.1,0-0.1,0-0.1,0l-0.2-0.5c0,0,0-0.1,0-0.1c0.5-0.3,1.1-0.5,1.6-0.5
			c1.3,0,1.7,0.5,1.5,1.6l-0.6,3.2c0,0.1-0.1,0.1-0.1,0.1L252.2,329.8z M252.3,328.3l0.1-0.6c0,0,0-0.1,0-0.1h-0.9
			c-0.9,0-1.3,0.4-1.3,1c0,0.4,0.3,0.6,0.8,0.6C251.6,329.3,252.2,328.9,252.3,328.3"/>
		<path class="st0" d="M254.2,329.8C254.1,329.8,254.1,329.8,254.2,329.8c-0.1-0.1-0.1-0.1-0.1-0.1l0.1-0.5c0,0,0-0.1,0.1-0.1
			l3.1-3.4H255c0,0-0.1,0-0.1-0.1c0,0,0,0,0,0l0.1-0.5c0-0.1,0.1-0.1,0.1-0.1h3.3c0,0,0.1,0,0.1,0.1c0,0,0,0,0,0l-0.1,0.5
			c0,0,0,0.1-0.1,0.1l-3.1,3.3l0,0h2.4c0,0,0.1,0,0.1,0.1c0,0,0,0,0,0l-0.1,0.5c0,0.1,0,0.1-0.1,0.1c0,0,0,0,0,0L254.2,329.8z"/>
		<path class="st0" d="M261.8,329.8C261.8,329.8,261.8,329.8,261.8,329.8c-0.1-0.1-0.1-0.1-0.1-0.1l0.5-2.8c0.1-0.8-0.1-1.3-0.8-1.3
			c-0.7,0-1.2,0.5-1.3,1.2l-0.5,2.9c0,0.1,0,0.1-0.1,0.1h-0.6c0,0-0.1,0-0.1-0.1c0,0,0,0,0,0l0.8-4.6c0-0.1,0.1-0.1,0.1-0.1h0.6
			c0,0,0.1,0,0.1,0.1c0,0,0,0,0,0l-0.1,0.5l0,0c0.3-0.4,0.9-0.7,1.4-0.7c1,0,1.5,0.7,1.3,1.8l-0.5,3c0,0.1-0.1,0.1-0.1,0.1
			L261.8,329.8z"/>
		<path class="st0" d="M264.1,328.3c0-0.7,0.2-1.5,0.5-2.1c0.4-0.8,1.1-1.3,2-1.2c0.8-0.1,1.6,0.5,1.6,1.4c0,0.1,0,0.2,0,0.3
			c0,0.7-0.2,1.5-0.5,2.1c-0.4,0.8-1.1,1.3-2,1.2c-0.8,0.1-1.6-0.5-1.6-1.4C264,328.5,264,328.4,264.1,328.3 M267,328.4
			c0.2-0.6,0.3-1.1,0.4-1.7c0-0.7-0.3-1-0.9-1c-0.5,0-1,0.3-1.2,0.8c-0.2,0.5-0.4,1.1-0.4,1.7c0,0.7,0.3,1,0.9,1
			C266.3,329.2,266.8,328.9,267,328.4"/>
		<line class="st19" x1="44.3" y1="14.6" x2="363.1" y2="15.9"/>
		<line class="st19" x1="37.3" y1="17.9" x2="357.1" y2="21.1"/>
		<line class="st19" x1="32.8" y1="23.1" x2="354" y2="26.2"/>
		<line class="st19" x1="29.4" y1="28.2" x2="351.2" y2="31.3"/>
		<line class="st20" x1="361.1" y1="40.8" x2="360.4" y2="328.5"/>
		<line class="st20" x1="364.4" y1="33.7" x2="365.5" y2="322.5"/>
		<line class="st20" x1="369.5" y1="29.2" x2="370.7" y2="319.4"/>
		<line class="st20" x1="374.7" y1="25.8" x2="375.8" y2="316.7"/>
	</g>
</g>
</svg>
