<svg xmlns="http://www.w3.org/2000/svg" viewBox="0 0 183.69 109.91"><defs><style>.cls-1,.cls-5,.cls-6,.cls-7,.cls-8,.cls-9{fill:none;stroke:#000;stroke-linecap:round;}.cls-1,.cls-5{stroke-width:0.46px;}.cls-2{fill:#814114;}.cls-3{fill:#a85318;}.cls-4{fill:#fff;}.cls-5,.cls-7,.cls-9{stroke-linejoin:round;}.cls-6{stroke-width:0.55px;}.cls-7{stroke-width:0.57px;}.cls-8{stroke-width:0.53px;}.cls-9{stroke-width:0.53px;}</style></defs><title>ants</title><g id="Layer_2" data-name="Layer 2"><g id="Layer_1-2" data-name="Layer 1"><path class="cls-1" d="M129,95.34s.91,11.32,1.7,12.31,3.82.21,3.82.21"/><path class="cls-1" d="M143.05,93.52s1,11.6,1.8,12.56,4.51.1,4.51.1"/><path class="cls-1" d="M156.35,92.17s1.6,11.35,2.49,12.25,4.76-.36,4.76-.36"/><path class="cls-1" d="M166.57,65.06S162.31,51.85,163,50.79s5.49-.52,5.49-.52"/><path class="cls-1" d="M172.79,64.62s-.18-13.89.79-14.7S179,51,179,51"/><path class="cls-2" d="M159.9,81c-1.8-4.19-10.71-1-13.28,4.21A22.46,22.46,0,0,0,132.54,84c-3.55.6-10.67,3.49-10.07,8.28.27,4.09,7.79,6.35,11.34,7,3.94.76,12.39-1,14.49-5.49C154.57,99.93,169,87.58,159.9,81Z"/><path class="cls-3" d="M158.68,65.06c-11.36,11.25,5.08,28.85,17.69,22.15,3-1.58,11-10.65,5.35-19.73C178,61.51,167.11,56.73,158.68,65.06Z"/><path class="cls-4" d="M176,68.38c-5.68-.83-8.67,9-1.18,9.75,3.22.34,5.15-1.78,5.17-4.73S178.4,68.75,176,68.38Z"/><path d="M177.36,72.7c-1-.28-1.66,1.7-.23,1.86a.83.83,0,0,0,1-.93A.87.87,0,0,0,177.36,72.7Z"/><path class="cls-5" d="M171.7,83a3.84,3.84,0,0,0,3.9,2.31"/><path class="cls-6" d="M74.27,88s-1.39,17.44-.42,19.12,7.21,1.24,7.21,1.24"/><path class="cls-6" d="M91.58,84.9s-1.31,17.86-.35,19.52,7.26,1.24,7.26,1.24"/><path class="cls-6" d="M110.41,73.94S124.05,85.09,126,85.21s4.57-4.69,4.57-4.69"/><path class="cls-6" d="M107.15,23.37s-2.33-21.26-1-22.65,8.47.93,8.47.93"/><path class="cls-6" d="M120.17,26.36s4-21,5.75-21.92,7.81,3.38,7.81,3.38"/><path class="cls-2" d="M71,69.5A34.68,34.68,0,0,1,91.17,67c.74-7.82,7.82-15.48,19-10.71,3,1.41,6.62,3.74,7.06,7.35,0,0,.5,5.15-1.08,8.66-3,6.6-8,8.12-15,7.37a12.46,12.46,0,0,1-3.3-.83c-1.14,7.87-14,13.33-20.41,13.37-5.56.1-17.58-1.08-19.2-7.19C55.89,78,65.78,71.47,71,69.5Z"/><path class="cls-3" d="M134.12,51.25c-8,15.78-27.93,11-36-1.23-4.88-7.63-5.19-15.5.93-23,6.54-7.68,18-6.43,20.7-5.81C122.22,21.79,145.22,29.58,134.12,51.25Z"/><path class="cls-4" d="M133.91,28.85c5.5,3.38,2.26,11.58-3.32,11-3.88-.41-6.17-5-4.61-8.68C127.77,27.54,131.48,27,133.91,28.85Z"/><path class="cls-4" d="M112.92,40.58c-7.16-.54-7.49-5.5-7.22-8.1.7-6.81,10.34-7.58,12.79-1.29C120,35.1,117.36,40.75,112.92,40.58Z"/><path d="M130.94,33.15a1.09,1.09,0,0,1-1.08,1.53,1.09,1.09,0,1,1,1.08-1.53Z"/><path d="M110.33,34a1.24,1.24,0,0,1-1.81-.94c-.15-1,.89-1.28,1.39-1.18A1.19,1.19,0,0,1,110.33,34Z"/><path class="cls-7" d="M126,50.29c-4.84,5.84-10.27,1.23-10.42-2.51"/><path class="cls-8" d="M8.85,94.47s-.52,13.1.25,14.33,4.36.76,4.36.76"/><path class="cls-8" d="M22.9,93.18s-.47,13.4.3,14.64,5.16.73,5.16.73"/><path class="cls-8" d="M40.34,90.24s5.94,11.79,7.23,12.47,5.08-2.16,5.08-2.16"/><path class="cls-8" d="M49.79,58.56s-5.46-15.07-4.73-16.32,6.33-.83,6.33-.83"/><path class="cls-8" d="M56.93,57.81s-.77-16,.31-17,6.29,1.08,6.29,1.08"/><path class="cls-2" d="M42.75,77.24c-2.24-4.77-12.37-.68-15.13,5.4a26,26,0,0,0-16.28-.89c-4.07.83-12.18,4.46-11.27,10,.48,4.71,9.24,7,13.37,7.58,4.57.7,14.24-1.64,16.48-6.93C37.38,99.25,53.57,84.42,42.75,77.24Z"/><path class="cls-3" d="M41.2,58.1C28.57,71.53,47.74,91.94,62,83.7c3.36-2,12.27-12.73,5.35-23C62.81,54,50.56,48.14,41.2,58.1Z"/><path class="cls-4" d="M61.35,61.36c-6.58-.71-9.63,10.67-1,11.29,3.72.25,5.89-2.26,5.77-5.68S64.12,61.67,61.35,61.36Z"/><path d="M59.34,65.72c-1.08-.29-1.74,1.93-.19,2a.89.89,0,0,0,1-1A.92.92,0,0,0,59.34,65.72Z"/><path class="cls-9" d="M56.45,79c.4,2.26,3,3.09,5.21,1.32"/></g></g></svg>