<svg xmlns="http://www.w3.org/2000/svg" viewBox="0 0 178.16 112.94"><defs><style>.cls-1,.cls-2{opacity:0.6;}.cls-2{fill:#dad8cc;isolation:isolate;}.cls-3{fill:#ffde00;}.cls-4,.cls-6,.cls-7{fill:none;stroke:#000;stroke-linecap:round;stroke-linejoin:round;}.cls-4{stroke-width:0.37px;}.cls-5{fill:#fff;}.cls-6{stroke-width:0.47px;}.cls-7{stroke-width:0.58px;}</style></defs><title>bees</title><g id="Layer_2" data-name="Layer 2"><g id="Layer_1-2" data-name="Layer 1"><path d="M48.14,43.9c-.82,1.51-6.86,3.39-8.91,4.79a40.6,40.6,0,0,0,7.22-.79c1.57-.26,2.92-.8,4.48-.95C51.19,47,49.09,44,48.14,43.9Z"/><g class="cls-1"><g class="cls-1"><g class="cls-1"><path class="cls-2" d="M69.14,31c.38-3.09-1.82-12.54-15.34-23.53-3-2.41-15.45-9.13-17.74-7.09-1.08,1-5,6.6,9,19.89,5.45,5.17,15.54,9,22.74,10.47C68.62,30.87,69,31.13,69.14,31Z"/></g></g></g><path class="cls-3" d="M67,34.58c-3.45-8.34-10.92-13.18-16.68-10.8s-7.64,11.06-4.21,19.41S57,56.37,62.78,54,70.42,42.91,67,34.58Z"/><path d="M71.61,35.07c-3.12-7.58-10.34-11.8-16.1-9.42s-7.91,10.45-4.78,18S61.07,55.5,66.85,53.12,74.74,42.65,71.61,35.07Z"/><path class="cls-3" d="M77.07,31.67c-3.45-8.33-10.91-13.18-16.67-10.8s-7.65,11.06-4.22,19.42,10.9,13.17,16.67,10.79S80.5,40,77.07,31.67Z"/><path d="M83.7,28.16C80.25,19.82,72.8,15,67,17.36s-7.67,11.06-4.22,19.41S73.72,50,79.48,47.57,87.14,36.5,83.7,28.16Z"/><path class="cls-4" d="M77.92,19.64S75.59,10.4,76.1,9.72s3.79-.12,3.79-.12"/><path class="cls-4" d="M83.86,20.17s.49-9.5,1.2-10,3.66,1,3.66,1"/><g class="cls-1"><g class="cls-1"><g class="cls-1"><path class="cls-2" d="M67.08,31.06c.39,0-1.84-2.88-2.23-3.54a43.93,43.93,0,0,0-11-9.3c-6.55-4.07-13.92-7.08-21.65-6.81-2.23,0-9-.45-9.14,2C22.08,29.23,51.09,35.53,67.08,31.06Z"/></g></g></g><path class="cls-3" d="M69.21,29.82c.26-6.4,2.69-8.91,6.24-10.62C80,16.84,89.2,17,93,22.55c6.32,9.35,2.43,21-10,21.92C72.71,45.29,69.08,33,69.21,29.82Z"/><path class="cls-5" d="M88.49,29.65c-2.63,1.38-5,.23-5.81-1.87a3.88,3.88,0,0,1,3.2-5.2C89.33,22.15,91.92,27.86,88.49,29.65Z"/><path d="M87.88,26.09a.73.73,0,0,1-1.18-.23.76.76,0,0,1,.64-1A.72.72,0,0,1,87.88,26.09Z"/><path class="cls-4" d="M91.74,39.1a3.57,3.57,0,0,1-2.9.28,3.33,3.33,0,0,1-2.3-3.61"/><path class="cls-4" d="M72.47,46.31s-1.37,3-2,4.53A7.14,7.14,0,0,1,68.19,54"/><path class="cls-4" d="M65.66,48.15A32.49,32.49,0,0,1,64.5,51.8a7.89,7.89,0,0,1-2.94,3.45"/><path class="cls-4" d="M59.61,48.52A33.31,33.31,0,0,1,57.87,52a7.91,7.91,0,0,1-3.44,2.94"/><path d="M117.48,69.77c-1,1.91-8.69,4.32-11.3,6.07,2.61.18,6.63-.62,9.16-1,2-.34,3.7-1,5.67-1.21C121.36,73.69,118.7,69.85,117.48,69.77Z"/><g class="cls-1"><g class="cls-1"><g class="cls-1"><path class="cls-2" d="M144.15,53.41c.47-3.9-2.3-15.91-19.48-29.85-3.77-3-19.59-11.56-22.51-9-1.37,1.22-6.32,8.37,11.45,25.24,6.91,6.56,19.72,11.45,28.86,13.29C143.48,53.25,144,53.58,144.15,53.41Z"/></g></g></g><path class="cls-3" d="M141.41,57.94c-4.37-10.58-13.84-16.72-21.15-13.7s-9.72,14-5.35,24.63,13.83,16.72,21.15,13.7S145.77,68.53,141.41,57.94Z"/><path d="M147.27,58.57c-4-9.64-13.13-15-20.43-12s-10,13.28-6.07,22.89,13.11,15,20.43,12S151.24,68.18,147.27,58.57Z"/><path class="cls-3" d="M154.19,54.27C149.82,43.68,140.36,37.56,133,40.56s-9.72,14-5.35,24.63S141.52,81.9,148.84,78.9,158.55,64.83,154.19,54.27Z"/><path d="M162.61,49.8c-4.37-10.58-13.84-16.72-21.15-13.7s-9.72,14-5.35,24.63,13.83,16.71,21.15,13.7S167,60.39,162.61,49.8Z"/><path class="cls-6" d="M155.29,39S152.34,27.29,153,26.4s4.8-.14,4.8-.14"/><path class="cls-6" d="M162.82,39.66s.63-12.06,1.51-12.71S169,28.23,169,28.23"/><g class="cls-1"><g class="cls-1"><g class="cls-1"><path class="cls-2" d="M141.53,53.49c.49,0-2.33-3.65-2.83-4.49a55.77,55.77,0,0,0-14-11.8c-8.32-5.15-17.66-9-27.47-8.65-2.82,0-11.4-.55-11.6,2.5C84.44,51.16,121.24,59.16,141.53,53.49Z"/></g></g></g><path class="cls-3" d="M144.23,51.92c.33-8.11,3.43-11.32,7.91-13.47,5.81-3,17.46-2.84,22.23,4.25,8,11.86,3.09,26.58-12.66,27.81C148.66,71.53,144.07,55.91,144.23,51.92Z"/><path class="cls-5" d="M168.68,51.71c-3.33,1.74-6.37.29-7.37-2.38a4.92,4.92,0,0,1,4.06-6.6C169.76,42.19,173,49.43,168.68,51.71Z"/><path d="M167.93,47.19a1,1,0,0,1-1.53-.29,1,1,0,0,1,.82-1.33A.92.92,0,0,1,167.93,47.19Z"/><path class="cls-6" d="M172.8,63.68a4.55,4.55,0,0,1-3.68.37,4.24,4.24,0,0,1-2.92-4.6"/><path class="cls-6" d="M148.37,72.82s-1.74,3.86-2.52,5.75a8.94,8.94,0,0,1-2.9,4"/><path class="cls-6" d="M139.73,75.17a42.91,42.91,0,0,1-1.47,4.64,10,10,0,0,1-3.73,4.37"/><path class="cls-6" d="M132,75.65a41.12,41.12,0,0,1-2.2,4.35,10.09,10.09,0,0,1-4.38,3.72"/><path d="M37.51,95c-1.28,2.35-10.69,5.3-13.89,7.47,3.2.23,8.14-.77,11.26-1.25,2.46-.41,4.55-1.25,7-1.49C42.28,99.77,39,95.06,37.51,95Z"/><g class="cls-1"><g class="cls-1"><g class="cls-1"><path class="cls-2" d="M67.37,80.77c1.77-4.5,2.13-19.63-14-41.47-3.55-4.79-19.77-19.76-24-17.59-2,1-10.07,8,5.89,33.52,6.21,9.92,20,19.66,30.26,24.65C66.62,80.37,67.13,80.91,67.37,80.77Z"/></g></g></g><path class="cls-3" d="M66.9,80.42c-5.37-13-17-20.53-26-16.82S29,80.85,34.36,93.84s17,20.53,26,16.82S72.25,93.42,66.9,80.42Z"/><path d="M74.1,81.19C69.22,69.38,58,62.8,49,66.51S36.69,82.8,41.56,94.62,57.67,113,66.65,109.3,79,93,74.1,81.19Z"/><path class="cls-3" d="M82.6,75.89c-5.35-13-17-20.52-26-16.82S44.7,76.32,50,89.32s17,20.52,26,16.82S88,88.89,82.6,75.89Z"/><path d="M92.94,70.43c-5.37-13-17-20.53-26-16.82S55,70.86,60.38,83.85s17,20.53,26,16.82S98.29,83.42,92.94,70.43Z"/><path class="cls-7" d="M82.6,58.14S76.13,44.8,76.69,43.57s5.75-1.36,5.75-1.36"/><path class="cls-7" d="M91.82,57.06s-2.25-14.67-1.34-15.67,5.89.39,5.89.39"/><g class="cls-1"><g class="cls-1"><g class="cls-1"><path class="cls-2" d="M65.06,79c.6.08-2.3-4.81-2.78-5.89A68.39,68.39,0,0,0,47,56.66C37.65,49.15,26.84,43.09,14.83,42,11.38,41.61,1,39.65.32,43.35-4.19,67.67,39.49,82.88,65.06,79Z"/></g></g></g><path class="cls-3" d="M70.36,73c.41-10,4.2-13.9,9.71-16.54,7.14-3.67,21.43-3.49,27.32,5.22,9.83,14.57,3.79,32.64-15.55,34.15C75.81,97.11,70.16,77.93,70.36,73Z"/><path class="cls-5" d="M85.44,73.2a6.38,6.38,0,0,1-9-3.07,5.62,5.62,0,0,1,4.64-7.54C86.09,62,90.43,70.59,85.44,73.2Z"/><path d="M81.35,69.28a1.28,1.28,0,0,1-1.82-.62,1.13,1.13,0,0,1,.94-1.53C81.48,67,82.35,68.76,81.35,69.28Z"/><path class="cls-5" d="M104.13,69.72a5.39,5.39,0,1,1-3.37-10.06C105.47,59.07,108.79,67.28,104.13,69.72Z"/><path d="M101,65.93a1.13,1.13,0,0,1-1.69-.57,1.07,1.07,0,0,1,.87-1.43A1.16,1.16,0,0,1,101,65.93Z"/><path class="cls-7" d="M98.12,80.06a5.5,5.5,0,0,1-3.82,5.32c-4.27,1.46-6.39-4.32-6.39-4.32"/><path class="cls-7" d="M75.45,98.7s-2.14,4.74-3.09,7.06a11.14,11.14,0,0,1-3.58,4.9"/><path class="cls-7" d="M64.84,101.57A53.14,53.14,0,0,1,63,107.28a12.35,12.35,0,0,1-4.58,5.37"/><path class="cls-7" d="M55.39,102.16a50.36,50.36,0,0,1-2.71,5.35,12.28,12.28,0,0,1-5.38,4.57"/></g></g></svg>