<svg xmlns="http://www.w3.org/2000/svg" viewBox="0 0 199.91 112.97"><defs><style>.cls-1,.cls-3{fill:#f39200;}.cls-2{fill:#ffde00;}.cls-2,.cls-3,.cls-4{fill-rule:evenodd;}.cls-4{fill:#ffe971;}.cls-5{fill:#fff;}.cls-6{fill:#fbba00;}.cls-7{fill:#2fac66;}.cls-8{fill:#c4c0b4;}.cls-9{fill:#dad8cc;}.cls-10{fill:none;stroke:#000;stroke-width:0.61px;}</style></defs><title>ducks</title><g id="Layer_2" data-name="Layer 2"><g id="Layer_1-2" data-name="Layer 1"><path class="cls-1" d="M22.21,93.82s2.21,4.33,1,6.43c-1,1.83-2.72,3.54-2.23,3.64,1.08.23,8.92,1.75,8.78,2.15s-1.82.07-2.13,1.29-.54,2-.94,2-2.29-.18-2.38.76.37,2.52-.59,1.77-6.37-6.29-6.56-7.61c-.09-.67,2.25-2.78,3.64-5.19s-1.39-5.92-1.39-5.92Z"/><path class="cls-1" d="M33.45,92.81a18,18,0,0,1,2.29,4.45c.85,2.57-.07,6.15.38,5.83.91-.61,6.78-4.71,7-4.33s-.46,1.54.17,2.62,1,1.19.77,1.48-1.71,1.51-1.1,2.24,2.06,1.5.86,1.66-7.6.47-8.84-.06c-1.76-.73-.5-5.11-1.88-8.62a30.16,30.16,0,0,0-2.57-5Z"/><path class="cls-2" d="M47.07,62.26C48.74,52.17,32.61,45.64,26.12,56c-2.94,4.71,1.74,13.51-11.3,14A26.43,26.43,0,0,1,.66,66.27S-7,101.24,29.56,97c17.66-2,18.82-16.57,17-26.58C45.53,65,47.07,62.26,47.07,62.26Z"/><path class="cls-3" d="M46.72,57.86s1.5,2.51,7.21,2.3c3-.12,2.77,2.06,1.57,3.25-2.6,2.51-9.18,5.52-9.18,5.52a6.43,6.43,0,0,1-1.19-4A14.77,14.77,0,0,1,46.72,57.86Z"/><path class="cls-4" d="M20.3,86.59c13.32.81,13.06-7.92,9.8-10.52s-5.55,0-11.63,0A25.49,25.49,0,0,1,7,73.55S7.65,85.81,20.3,86.59Z"/><path class="cls-5" d="M37.25,64a3.64,3.64,0,0,0,4.68-2.81,3.69,3.69,0,0,0-2.88-4.73,3.91,3.91,0,0,0-4.82,3C33.64,61.66,34.93,63.41,37.25,64Z"/><path d="M39,61.05a.7.7,0,0,0,.89-.52.69.69,0,0,0-.53-.84A.7.7,0,1,0,39,61.05Z"/><path class="cls-6" d="M152.81,22.82c-.21-2.64-1.74-10.56-1.74-10.56s9.34,2,12.64,1,10.24-6.74,10.17-1-5.32,11.94-7.7,13.83c-7.77,6.16-13.53,6.11-13.53,6.11S153,25.16,152.81,22.82Z"/><path class="cls-6" d="M99.49,85.63s-2.83,5.43-5.57,8.21c-2.41,2.44-5.83,4.4-5.09,4.78,1.6.82,13.3,6.62,12.92,7.21s-2.9-.66-3.92,1.12-1.74,3-2.37,2.81-3.53-1.26-4.07.19-.5,4.14-1.69,2.52-7.32-12.66-7-14.83c.14-1.08,4.79-3.4,8-6.58a27,27,0,0,0,5-7.21Z"/><path class="cls-6" d="M120.11,86.24a28.71,28.71,0,0,1,3,7.63c1,4.33.88,9.57,1.66,9.13,1.59-.85,11.8-6.51,12.07-5.86s-1,2.42-.14,4.28,1.48,2.09,1,2.53-3,2.16-2.18,3.44,3.11,2.77,1.1,2.82-12.43-.52-14.35-1.57c-2.76-1.5-2-8-3.63-13.93a49.69,49.69,0,0,0-3.32-8.54Z"/><path class="cls-7" d="M152,12.5C148.17-4.63,114.52-7.12,114,24c-.25,12.73-4,14.79-4,14.79l40.66,12.72S155.48,27.71,152,12.5Z"/><path class="cls-8" d="M151,48.74s7.63,25.48-16.34,36.72c-16.86,7.91-39.73,7.64-54.17-3.62s-26.34-37-24-37.55,5.79,2.43,5.79,2.43-4.57-7-2.83-7,6.93,4.73,6.93,4.73S62.18,39,64.68,39.75c3.06.91,7.07,6.29,15.12,7.44,17.77,2.53,31-8.59,31-8.59Z"/><path class="cls-5" d="M152.06,45.36,152,53.67s-15.85-2.59-22.6-4c-15.3-3.25-19.45-10.81-19.45-10.81l1.87-6s1.06,4.94,14.36,8.91C132.05,43.52,152.06,45.36,152.06,45.36Z"/><path class="cls-5" d="M132.44,22.19c3.42.51,5.72-1.62,6.23-5.05a5.56,5.56,0,0,0-4.85-6.68c-3.42-.51-5.9,1.95-6.41,5.37S129,21.67,132.44,22.19Z"/><path d="M134.43,17.41a1,1,0,0,0,1.19-.95,1,1,0,0,0-.88-1.18,1,1,0,0,0-1.17.87A1.11,1.11,0,0,0,134.43,17.41Z"/><path class="cls-9" d="M93.37,52.85c-11,.5-18.18-8-16.52-2.38S85,74.16,101,71.77s19.8-14.54,13-20.39S101.48,52.46,93.37,52.85Z"/><path class="cls-10" d="M148.67,25.35s-.87,1.88-2.34,2.15a2.84,2.84,0,0,1-2.81-1.14"/><path class="cls-1" d="M164,94a29,29,0,0,1-3.7,5.48c-1.61,1.64-3.89,2.93-3.41,3.19,1.07.54,8.87,4.42,8.61,4.8s-1.92-.43-2.62.75-1.17,2-1.59,1.87-2.35-.84-2.7.12-.33,2.76-1.14,1.68-4.88-8.43-4.69-9.9c.08-.71,3.17-2.27,5.32-4.38a17.68,17.68,0,0,0,3.35-4.82Z"/><path class="cls-1" d="M173.1,93.47a19.5,19.5,0,0,1,2,5.08c.63,2.88.58,6.37,1.12,6.09,1.05-.57,7.87-4.34,8.05-3.91s-.68,1.61-.09,2.85,1,1.4.66,1.69-2,1.45-1.44,2.29,2.07,1.85.73,1.89-8.3-.35-9.57-1c-1.83-1-1.33-5.33-2.43-9.29a31.53,31.53,0,0,0-2.21-5.69Z"/><path class="cls-2" d="M189.84,59.55c1.83-11-15.75-18.12-22.84-6.81-3.19,5.13,1.91,14.72-12.29,15.21a28.71,28.71,0,0,1-15.43-4S131,102,170.77,97.42c19.26-2.24,20.52-18.07,18.51-28.95C188.15,62.5,189.84,59.55,189.84,59.55Z"/><path class="cls-3" d="M189.44,54.75s1.64,2.74,7.86,2.5c3.22-.14,3,2.25,1.71,3.52-2.83,2.74-10,6-10,6a7.1,7.1,0,0,1-1.29-4.4A16.15,16.15,0,0,1,189.44,54.75Z"/><path class="cls-4" d="M160.65,86.07c14.53.89,14.23-8.64,10.67-11.47s-6.06,0-12.68,0a27.63,27.63,0,0,1-12.53-2.68S146.86,85.21,160.65,86.07Z"/><path class="cls-5" d="M179.14,61.45a4.22,4.22,0,1,0,2-8.2,4.25,4.25,0,0,0-5.25,3.28C175.19,58.9,176.59,60.81,179.14,61.45Z"/><path d="M181,58.22a.73.73,0,0,0,1-.57.74.74,0,0,0-.58-.91.78.78,0,0,0-1,.52A.82.82,0,0,0,181,58.22Z"/></g></g></svg>