<svg xmlns="http://www.w3.org/2000/svg" viewBox="0 0 84.45 132.9"><defs><style>.cls-1{fill:#db7a1c;}.cls-2{fill:#f39200;}</style></defs><title>key</title><g id="Layer_2" data-name="Layer 2"><g id="Layer_1-2" data-name="Layer 1"><path class="cls-1" d="M70.73,116.27c12-6.75.75-16.56-4.23-17.12-5.62-.55-14.16,1.83-17.86,6.45-4.2,5.24-4.46,15.59,3.06,18.59a6.24,6.24,0,0,0,6-2c-1-.33-3.44-2.36-2.68-4.7.93-2.81,3.53-4,6.94-2.56,2.88,1.23,3.93,5.49,4,8.38.07,4.18-3.22,7.26-6.92,8.63-7.56,2.67-15.81,0-19.29-7.53-3-6.5-3.36-13-.45-19.51,3-6.72,11.59-10.83,18.25-12.64,5.75-1.57,12.23-2,17.57,1.35C81.27,97.38,86,104.78,84,112.37c-1.58,6-9.59,13.5-16.35,10.32-2.36-1-6.56-5-5.86-8.1.85-4.4,3.92-4.41,6.54-3.42A3.81,3.81,0,0,1,70.73,116.27Z"/><path class="cls-1" d="M44.89,94.55C36.42,78.3,19.41,49.05,17.26,43.74c1-.39,7-4.7,7.66-4.64,1.08.16,30.42,50.41,29.6,51.54-.43.67-2.57,1-3.33,1.46A19.42,19.42,0,0,0,48.33,94c-.92.66-2.86,2.4-3,.42"/><path class="cls-1" d="M27,41.63c-.86-.6-3.21.47-4,.78a11.56,11.56,0,0,0-3.06,1.78c-.77.59-1.34.9-2.13.17-1-.94-1.57-2.39-2.37-3.49a73.16,73.16,0,0,1-4.52-7.5C8.09,28.59,5.74,23.7,2.94,19c-.32-.6-.71-1.1-1-1.61,2.36-1.16,6.56-7.3,8.51-4.34A155.85,155.85,0,0,1,18,26.89c.53,1.11,3.18,5.34,3.84,6.48.53,1,3.5,5.77,3.82,6.28S26.41,41.22,27,41.63Z"/><path class="cls-1" d="M20.77,35.06c1.42-.7,2.49-1.68,4-2.32,2-.84,10.05-5.14,12.35-6.05a31.83,31.83,0,0,1-2.3-3.53,23,23,0,0,1,4.41-2.36c.87.95,2.24,3.37,3.22,4.47,3.41-1.85,11.82-5.61,12.24-6.37-1.11-1.6-4.38-7.14-5.2-7.82-1.53.87-8,4.2-10,5a9.94,9.94,0,0,1-2.39,1,18.79,18.79,0,0,1-1.68-2.55c2.69-1.41,5.42-2.61,8-4.11l3.07-1.78c1.3-.75,1.3-.75.43-2.1C46.16,5.4,43.55.25,42.92,0,40.6,1.29,38.5,2.4,37.27,3.06c-2.4,1.27-4.34,2.68-7.21,4.19.49,1.29,2.6,3.45,2.74,4.6-.62.53-1.77,1.1-3.15,2.05-.82-1.05-2-2.47-2.93-3.48C24.68,11.49,16,16.6,15,17.28c-.38.26-2.28,1.45-3.39,2.06C11.16,19.59,20.8,35.11,20.77,35.06Z"/><path class="cls-2" d="M47.06,98.11c-2.28,1.15-3.65-2.19-1.72-4.16,1.51-1.53,5.72-3.17,7.73-4,2.19-.92,5.42,2,2.76,3.81A96.5,96.5,0,0,1,47.06,98.11Z"/><path class="cls-2" d="M19.94,50.67c-1.07-.7-3-4.48-3.16-6,.57-.66,9.43-5.1,9.89-5.16,1,.59,3.63,5.06,3.63,6.16C28.6,46.76,21.1,50.76,19.94,50.67Z"/><path class="cls-2" d="M.18,16.75c-1-2.45,2.4-4.6,4.45-5.4C6.83,10.4,9.92,9,11,11.18c1.4,2.92-1.57,4.35-4,5.64C5.19,17.73,1.4,19.68.18,16.75Z"/><path class="cls-1" d="M1.6,14.49c-.95-1.77-1.54-4.89.57-6s4.45-1.38,6.36,2.88C7.82,13.32,2.71,15.46,1.6,14.49Z"/><path class="cls-2" d="M1.14,8.72a1.47,1.47,0,0,0,.8.94c.7,0,2-.61,2-1.06a2,2,0,0,0-.3-1.25C3,6.1.51,7.3,1.14,8.72Z"/></g></g></svg>