<svg xmlns="http://www.w3.org/2000/svg" viewBox="0 0 159.56 123.91"><defs><style>.cls-1{fill:#2fac66;}.cls-2{fill:#fff;}</style></defs><title>letrasHormigas</title><g id="Layer_2" data-name="Layer 2"><g id="Layer_1-2" data-name="Layer 1"><path class="cls-1" d="M85,19.45A19.46,19.46,0,1,1,65.52,0,19.46,19.46,0,0,1,85,19.45Z"/><path class="cls-1" d="M63.45,60.82A19.46,19.46,0,1,1,44,41.36,19.46,19.46,0,0,1,63.45,60.82Z"/><path class="cls-1" d="M38.91,25A19.46,19.46,0,1,1,19.45,5.49,19.46,19.46,0,0,1,38.91,25Z"/><path class="cls-1" d="M131.54,19.77A19.45,19.45,0,1,1,112.09.31,19.45,19.45,0,0,1,131.54,19.77Z"/><path class="cls-1" d="M110.25,58.37A19.45,19.45,0,1,1,90.8,38.92,19.46,19.46,0,0,1,110.25,58.37Z"/><path class="cls-1" d="M86.54,104.45A19.45,19.45,0,1,1,67.09,85,19.45,19.45,0,0,1,86.54,104.45Z"/><path class="cls-1" d="M132.54,103.45A19.45,19.45,0,1,1,113.09,84,19.45,19.45,0,0,1,132.54,103.45Z"/><path class="cls-1" d="M159.56,61.77a19.46,19.46,0,1,1-19.47-19.46A19.46,19.46,0,0,1,159.56,61.77Z"/><path class="cls-2" d="M64.61,11.59c0-.15.12-.25.28-.25H66.5a.31.31,0,0,1,.32.25L72.58,27.9c.06.15,0,.24-.18.24H70.67a.27.27,0,0,1-.31-.24l-1.29-3.67h-6.8L61,27.9a.32.32,0,0,1-.31.24H58.93c-.15,0-.21-.09-.17-.24Zm3.76,10.62-2.65-7.63h-.06L63,22.21Z"/><path class="cls-2" d="M38.16,53.36a.24.24,0,0,1,.25-.25h1.7a.23.23,0,0,1,.25.25v6.89a.14.14,0,0,0,.15.16H47.8a.14.14,0,0,0,.15-.16V53.36a.24.24,0,0,1,.25-.25h1.7a.24.24,0,0,1,.25.25V69.67a.24.24,0,0,1-.25.25H48.2a.24.24,0,0,1-.25-.25V62.6a.14.14,0,0,0-.15-.15H40.51a.14.14,0,0,0-.15.15v7.07a.23.23,0,0,1-.25.25h-1.7a.24.24,0,0,1-.25-.25Z"/><path class="cls-2" d="M12.34,17.49a.24.24,0,0,1,.25-.25H14.2a.4.4,0,0,1,.39.25l5,11.33h.07l4.92-11.33a.37.37,0,0,1,.4-.25h1.6a.24.24,0,0,1,.25.25V33.8a.24.24,0,0,1-.25.25H25a.24.24,0,0,1-.25-.25V22.1h-.06l-4.18,9.24a.43.43,0,0,1-.44.3h-1a.41.41,0,0,1-.46-.3L14.48,22.1h-.06V33.8a.24.24,0,0,1-.25.25H12.62a.23.23,0,0,1-.25-.25V17.49Z"/><path class="cls-2" d="M106.08,20.48a15.54,15.54,0,0,1,.44-4.75c.83-2.59,2.92-3.93,5.76-3.93a5.76,5.76,0,0,1,5.59,3.34c.07.15,0,.27-.07.34l-1.48.72a.23.23,0,0,1-.34-.13,3.78,3.78,0,0,0-3.68-2.22,3.47,3.47,0,0,0-3.64,2.5,13.35,13.35,0,0,0-.34,4.13,13.35,13.35,0,0,0,.34,4.13,3.47,3.47,0,0,0,3.64,2.5,3.57,3.57,0,0,0,3.61-2.41,9.09,9.09,0,0,0,.33-2.65.14.14,0,0,0-.16-.15h-3.26a.24.24,0,0,1-.25-.25V20.21a.23.23,0,0,1,.25-.25h5.37a.22.22,0,0,1,.24.25v1.26a14.45,14.45,0,0,1-.42,3.71,5.63,5.63,0,0,1-5.71,4c-2.85,0-4.92-1.33-5.77-3.93A15.1,15.1,0,0,1,106.08,20.48Z"/><path class="cls-2" d="M84.91,65.77a.27.27,0,0,1,0-.37L86,64.11a.22.22,0,0,1,.34,0A7.7,7.7,0,0,0,91,65.81c2.32,0,3.7-1.16,3.7-2.86,0-1.43-.81-2.41-3.51-2.75l-.84-.12c-3.27-.44-4.94-2-4.94-4.65,0-3,2.15-4.91,5.49-4.91A9,9,0,0,1,96,52.07a.22.22,0,0,1,0,.34l-.83,1.36a.25.25,0,0,1-.35.06,7.41,7.41,0,0,0-4.05-1.26c-2,0-3.18,1.11-3.18,2.71,0,1.42.93,2.35,3.53,2.69l.82.13c3.28.44,4.94,1.95,4.94,4.69,0,2.94-2.07,5.07-6.12,5.07A9.16,9.16,0,0,1,84.91,65.77Z"/><path class="cls-2" d="M66.47,97a.23.23,0,0,1,.25-.24h1.7a.23.23,0,0,1,.25.24v16.31a.24.24,0,0,1-.25.25h-1.7a.24.24,0,0,1-.25-.25Z"/><path class="cls-2" d="M107.52,108.9a14.47,14.47,0,0,1-.44-4.75,14.51,14.51,0,0,1,.44-4.75,6.14,6.14,0,0,1,11.45,0,14.92,14.92,0,0,1,.43,4.75,14.92,14.92,0,0,1-.43,4.75,6.13,6.13,0,0,1-11.45,0Zm9.29-.61a14.81,14.81,0,0,0,.37-4.14,14.83,14.83,0,0,0-.37-4.13,3.8,3.8,0,0,0-7.14,0,14.72,14.72,0,0,0-.37,4.13,14.87,14.87,0,0,0,.37,4.14,3.8,3.8,0,0,0,7.14,0Z"/><path class="cls-2" d="M144.43,70.87c-.18,0-.25-.07-.32-.25l-3.36-6.88H137a.14.14,0,0,0-.15.16v6.72a.24.24,0,0,1-.25.25h-1.7a.24.24,0,0,1-.25-.25V54.31a.23.23,0,0,1,.25-.24H141c3.15,0,5.27,1.93,5.27,4.84A4.57,4.57,0,0,1,143,63.48l3.59,7.1c.1.15,0,.3-.15.3h-2Zm-.35-12c0-1.76-1.16-2.78-3.11-2.78H137a.14.14,0,0,0-.15.15v5.28a.14.14,0,0,0,.15.15H141C142.93,61.7,144.08,60.67,144.08,58.91Z"/></g></g></svg>