<svg xmlns="http://www.w3.org/2000/svg" viewBox="0 0 164.56 87.33"><defs><style>.cls-1{fill:#2fac66;}.cls-2{fill:#fff;}.cls-3{fill:none;stroke:#000;stroke-linecap:round;stroke-width:1.3px;}</style></defs><title>letrasAbejas</title><g id="Layer_2" data-name="Layer 2"><g id="Layer_1-2" data-name="Layer 1"><path class="cls-1" d="M60.05,25.4A19.45,19.45,0,1,1,40.6,5.94,19.45,19.45,0,0,1,60.05,25.4Z"/><path class="cls-1" d="M106.17,20.45A19.46,19.46,0,1,1,86.71,1,19.46,19.46,0,0,1,106.17,20.45Z"/><path class="cls-1" d="M86.7,62.68A19.46,19.46,0,1,1,67.25,43.23,19.46,19.46,0,0,1,86.7,62.68Z"/><path class="cls-1" d="M131.94,57.85A19.46,19.46,0,1,1,112.48,38.4,19.45,19.45,0,0,1,131.94,57.85Z"/><path class="cls-1" d="M164.56,19.45A19.46,19.46,0,1,1,145.1,0,19.46,19.46,0,0,1,164.56,19.45Z"/><path class="cls-1" d="M40.6,66.88A19.46,19.46,0,1,1,21.13,47.43,19.47,19.47,0,0,1,40.6,66.88Z"/><path class="cls-2" d="M35.22,17.25a.22.22,0,0,1,.24-.24h6c3.38,0,5.07,1.73,5.07,4.42a3.63,3.63,0,0,1-2.25,3.66v0A3.89,3.89,0,0,1,46.79,29c0,3.14-2,4.79-5.49,4.79H35.46a.23.23,0,0,1-.24-.25Zm6.15,7c1.85,0,2.94-1.07,2.94-2.62S43.22,19,41.37,19h-3.8a.14.14,0,0,0-.16.15v5a.14.14,0,0,0,.16.15Zm-3.8,7.54h3.92c2,0,3.09-1.09,3.09-2.78s-1.08-2.77-3.09-2.77H37.57c-.1,0-.16,0-.16.15v5.25A.14.14,0,0,0,37.57,31.81Z"/><path class="cls-2" d="M107.6,49.71a.23.23,0,0,1,.24-.25H118a.23.23,0,0,1,.24.25v1.55a.23.23,0,0,1-.24.25h-8a.14.14,0,0,0-.15.15V56.6a.14.14,0,0,0,.15.15h6.8A.24.24,0,0,1,117,57v1.55a.24.24,0,0,1-.25.25h-6.8a.14.14,0,0,0-.15.15v5.12a.14.14,0,0,0,.15.15h8a.23.23,0,0,1,.24.25V66a.23.23,0,0,1-.24.25H107.84a.23.23,0,0,1-.24-.25Z"/><path class="cls-2" d="M14.52,73.49l1.23-1.06a.25.25,0,0,1,.37,0,3.66,3.66,0,0,0,2.44,1c2,0,3.12-1.14,3.12-3.61V58.74a.24.24,0,0,1,.25-.25h1.7a.24.24,0,0,1,.25.25V69.92c0,3.73-2.1,5.65-5.4,5.65a5.33,5.33,0,0,1-4-1.73A.26.26,0,0,1,14.52,73.49Z"/><path class="cls-2" d="M66.17,54.54c.06-.15.13-.25.29-.25h1.61a.3.3,0,0,1,.31.25l5.77,16.31c.06.15,0,.25-.18.25H72.24a.28.28,0,0,1-.31-.25L70.64,67.2h-6.8l-1.29,3.65a.33.33,0,0,1-.33.25H60.49c-.15,0-.22-.1-.18-.25Zm3.77,10.63-2.65-7.64h-.06l-2.68,7.64Z"/><path class="cls-2" d="M144,11.31c0-.15.12-.24.29-.24h1.6a.32.32,0,0,1,.33.24L152,27.62a.17.17,0,0,1-.18.25H150.1a.27.27,0,0,1-.31-.25L148.49,24H141.7l-1.29,3.66a.33.33,0,0,1-.33.25h-1.73c-.15,0-.22-.1-.18-.25Zm3.76,10.63-2.65-7.64h0l-2.68,7.64Z"/><path class="cls-2" d="M80.66,27.8a.28.28,0,0,1,0-.37l1.09-1.29a.21.21,0,0,1,.34,0,7.76,7.76,0,0,0,4.7,1.73c2.32,0,3.7-1.17,3.7-2.87,0-1.43-.81-2.4-3.51-2.75l-.84-.12c-3.27-.44-4.94-2-4.94-4.64,0-3,2.15-4.91,5.49-4.91a9,9,0,0,1,5.12,1.55.22.22,0,0,1,0,.34L91,15.8a.25.25,0,0,1-.35,0,7.52,7.52,0,0,0-4.05-1.26c-2,0-3.18,1.11-3.18,2.72,0,1.41.93,2.35,3.53,2.69l.82.12c3.28.44,4.94,1.95,4.94,4.7,0,2.94-2.07,5.06-6.12,5.06A9.25,9.25,0,0,1,80.66,27.8Z"/><path class="cls-3" d="M70.17,8s11.48,10.3,17.28,14.75,14.43,11.89,14.43,11.89"/><path class="cls-3" d="M73.23,37.75s9-11.48,13.47-17.28S99.34,5.59,99.34,5.59"/><path class="cls-3" d="M33.9,5.59s4.61,14.71,7.35,21.49,6.35,17.6,6.35,17.6"/><path class="cls-3" d="M21.38,32.7s13.62-5.27,20.4-8,18.47-6.36,18.47-6.36"/><path class="cls-3" d="M57.65,42.89s7,13.75,10.78,20S77.58,79.2,77.58,79.2"/><path class="cls-3" d="M49.77,71.69s12.56-7.44,18.81-11.25,17.16-9.3,17.16-9.3"/><path class="cls-3" d="M94.43,47.11S107.77,54.83,114.38,58,131,66.65,131,66.65"/><path class="cls-3" d="M103.53,75.55s6.47-13.09,9.62-19.69,9.31-17.16,9.31-17.16"/><path class="cls-3" d="M126.75,4.91S138.23,15.21,144,19.66s14.43,11.89,14.43,11.89"/><path class="cls-3" d="M129.8,34.61s9-11.48,13.46-17.29S155.91,2.44,155.91,2.44"/><path class="cls-3" d="M.65,68.65S15.83,66,22.92,64.12s18.26-4,18.26-4"/><path class="cls-3" d="M26,86.68S22.55,72.5,20.72,65.41,16.8,46.29,16.8,46.29"/></g></g></svg>