<svg xmlns="http://www.w3.org/2000/svg" viewBox="0 0 134.34 96.73"><defs><style>.cls-1{fill:#c4c0b4;}.cls-2{fill:#fff;}</style></defs><title>letrasPatos</title><g id="Layer_2" data-name="Layer 2"><g id="Layer_1-2" data-name="Layer 1"><path class="cls-1" d="M61.91,34.06A19.46,19.46,0,1,1,42.45,14.61,19.45,19.45,0,0,1,61.91,34.06Z"/><path class="cls-1" d="M105.23,19.45A19.45,19.45,0,1,1,85.78,0,19.45,19.45,0,0,1,105.23,19.45Z"/><path class="cls-1" d="M38.91,77.28A19.46,19.46,0,1,1,19.45,57.82,19.46,19.46,0,0,1,38.91,77.28Z"/><path class="cls-1" d="M134.34,56.84a19.46,19.46,0,1,1-19.46-19.46A19.46,19.46,0,0,1,134.34,56.84Z"/><path class="cls-1" d="M90.53,69.71A19.46,19.46,0,1,1,71.08,50.26,19.46,19.46,0,0,1,90.53,69.71Z"/><path class="cls-2" d="M36.14,40.39a.28.28,0,0,1,0-.37l1.09-1.29a.21.21,0,0,1,.34,0,7.69,7.69,0,0,0,4.69,1.73c2.32,0,3.71-1.17,3.71-2.87,0-1.44-.81-2.4-3.51-2.74l-.84-.13c-3.27-.44-4.94-2-4.94-4.64,0-3,2.15-4.91,5.49-4.91a9,9,0,0,1,5.12,1.55.22.22,0,0,1,.05.34l-.83,1.36a.26.26,0,0,1-.35.06,7.45,7.45,0,0,0-4.05-1.27c-2,0-3.18,1.11-3.18,2.72,0,1.42.93,2.35,3.53,2.69l.82.12c3.28.44,4.94,1.95,4.94,4.7,0,2.94-2.07,5.07-6.13,5.07A9.17,9.17,0,0,1,36.14,40.39Z"/><path class="cls-2" d="M85.07,29.05a.24.24,0,0,1-.25-.25V14.44a.14.14,0,0,0-.15-.15h-4.6a.23.23,0,0,1-.25-.25V12.49a.23.23,0,0,1,.25-.24h11.7a.22.22,0,0,1,.24.24V14a.22.22,0,0,1-.24.25h-4.6a.14.14,0,0,0-.15.15V28.8a.24.24,0,0,1-.25.25Z"/><path class="cls-2" d="M18.12,68.87c.05-.15.12-.24.29-.24H20a.32.32,0,0,1,.33.24L26.1,85.18a.17.17,0,0,1-.18.25H24.19a.28.28,0,0,1-.32-.25l-1.29-3.66H15.79l-1.28,3.66c-.08.18-.18.25-.33.25H12.45c-.15,0-.22-.1-.18-.25ZM21.88,79.5l-2.65-7.63h-.05L16.51,79.5Z"/><path class="cls-2" d="M109.16,61.56a14.51,14.51,0,0,1-.44-4.75,14.51,14.51,0,0,1,.44-4.75,6.13,6.13,0,0,1,11.45,0,14.71,14.71,0,0,1,.45,4.75,14.13,14.13,0,0,1-.45,4.75,6.14,6.14,0,0,1-11.45,0Zm9.29-.62a14.16,14.16,0,0,0,.38-4.13,14.16,14.16,0,0,0-.38-4.13,3.79,3.79,0,0,0-7.13,0,14.26,14.26,0,0,0-.37,4.13,14.32,14.32,0,0,0,.37,4.13,3.79,3.79,0,0,0,7.13,0Z"/><path class="cls-2" d="M66.9,78.42a.23.23,0,0,1-.24-.25V61.86a.23.23,0,0,1,.24-.25h6c3.24,0,5.34,2,5.34,5s-2.1,5-5.34,5H69a.14.14,0,0,0-.15.15v6.38a.23.23,0,0,1-.24.25H66.9Zm9.16-11.8c0-1.82-1.21-3-3.29-3H69a.14.14,0,0,0-.15.15v5.64a.14.14,0,0,0,.15.15h3.77C74.84,69.59,76.06,68.45,76.06,66.62Z"/></g></g></svg>