<svg xmlns="http://www.w3.org/2000/svg" viewBox="0 0 157.61 104.83"><defs><style>.cls-1{fill:#dac5a7;}.cls-2{fill:#f3a5c2;}.cls-3{fill:#d18faa;}.cls-4{fill:#e99fbc;}.cls-5{fill:#f6bcd4;}.cls-6{fill:#ebd6b6;}.cls-7{fill:#efe6de;}.cls-8{fill:#fff;}.cls-9{fill:#f8efe6;}</style></defs><title>pearl</title><g id="Layer_2" data-name="Layer 2"><g id="Layer_1-2" data-name="Layer 1"><path class="cls-1" d="M121.65,58.66s8.59,24.23,3.36,32.69c-4.84,7.84-14,3.51-14,3.51s-2.13,11.26-16.79,9.85C86.93,104,84,96.91,82.8,94.86c-12.26,0-22.19,0-23.22-9.66-.35-3.38,2-5.54.76-7S56,77.37,51.21,75.5C45.48,73.25,41.87,64.63,44.85,59s9.25-1.46,5.73-5-3.82-7.48-1.75-12c2.35-5.09,12.32,1,12.32,1Z"/><path class="cls-2" d="M101.88,37s-1.7,7.32-6,6.66C94,43.39,77.48,35.61,62.75,37S49,41.68,48.44,43.68s3.43,7,3.22,7.84S41.17,57.77,45.1,65.63s12,6.46,12.81,7.87,0,13.3,4.24,15.73,17.34,1.21,19.36,2.21,5.65,10.92,15.43,9.49,11.38-10.3,12.79-10.3,11.51,6.13,15.53-5.43c3.21-9.24-2.49-24-1.87-25.15s3.09-6.92,1.87-8.13S101.88,37,101.88,37Z"/><path class="cls-3" d="M116.4,51.33c-9.65-6.22-32.66-24.2-36.29-33.26s5.84-8.68,7-8.48,6.45,3.83,7.26,3.83,1.82-4.77,8.68-3.89,12.7,7.33,15.12,9.54,7.66-1.81,10.88,1.62,2.62,9.28,4,11.09S144,35.21,145,40s-4,5.08-3.77,6.09,6.59,2.78,8,6.41,1,6.88-9.88,6S120.62,54.05,116.4,51.33Z"/><path class="cls-4" d="M106.71,44.44c-.57-20.22-23-34.69-23-34.69s16.93-1.32,19.57,0c2.58,3.87,18.47,21.57,9.06,38.85C110.54,47.39,106.86,44.19,106.71,44.44Z"/><path class="cls-4" d="M120.7,53.77C134.5,54,138.89,39.69,138.52,34c0-.23-11.9-20.51-11.9-14.65,0,0,6,22.48-9.73,32.52C116.87,51.86,119.89,53.48,120.7,53.77Z"/><path class="cls-1" d="M149.26,52.54c-1.42-3.63-7.32-5.47-7.53-6.47s4.3-1.19,3.3-6-10.49-6.45-11.9-8.26-.81-7.66-4-11.09-8.47.6-10.89-1.61-8.26-8.66-15.11-9.55-7.87,3.89-8.66,3.89-3.64-3.83-7.27-3.83c-1.08,0-8.48-.5-7.84,5.55-.78-2.92-5.45-16.24,22.16-14,3.32.28,6.5.63,9.52,1.1,8.67.27,16.62,2.25,22.87,7.15a38.55,38.55,0,0,1,15.62,14.71c2.4,2.32,6.74,13,6.77,17.44,3.46,15.2-3.58,16.22-8.18,16.23h0C150.27,56.7,150.09,54.69,149.26,52.54Z"/><path class="cls-5" d="M97,100.94c-8.65,1.27-12.49-6.34-14.66-8.81,19-7.85,27.88-40.27,27.88-40.27s3.8,3,6,4.37c-.11,5.33-1,24.23-6.44,34.4C108.33,90.65,106.71,99.52,97,100.94Z"/><path class="cls-5" d="M51.67,51.52a1.69,1.69,0,0,0-.28-.88c19.27,6.54,50.08-3.92,50.08-3.92s4,2.54,5.9,3.63C104.68,54.27,84.2,75,58.1,74a1.89,1.89,0,0,0-.16-.52c-.8-1.41-8.87,0-12.81-7.87S51.47,52.33,51.67,51.52Z"/><path class="cls-6" d="M141.25,46.11c-.2-1,8.24-8.56,15-4.56,4.63,16.23-3.63,16.22-8.18,16.23h0c2.25-1.1,2.07-3.1,1.23-5.26C147.86,48.91,141.46,47.13,141.25,46.11Z"/><path class="cls-6" d="M149.49,24.11c-9.31-3.37-15.17,3.29-17.05,5.94a29.64,29.64,0,0,0-3.34-9.38c-3.22-3.43-8.47.61-10.88-1.62-.25-.22-1-1-1.33-1.26.42-1.08,2.21-4.5,4-5.56,4.28-2.53,7.59-2.83,13.78-2.42C140.47,12.63,145.45,17.09,149.49,24.11Z"/><path class="cls-6" d="M85.08,9.84c-1.87.1-4.67.74-5.47,2.83h0a3.67,3.67,0,0,0-.2.74l-.11,2.12s-.73-2.17-.75-2.2c-.67-3-3.78-15.47,23-13,6.22.57,8.08,1.72,9.5,1.94-4.37.69-9.24,1.63-11.34,3.16a6.66,6.66,0,0,0-2.5,5.2c-1.73,1.18-2.28,2.8-2.75,2.8C93.61,13.42,90,9.58,85.08,9.84Z"/><path class="cls-7" d="M16.69,85.54c3.24,5.72,13,11.49,22.09,3.82,8.32-7,5.48-15.6.17-20.72a14.38,14.38,0,0,0-19.23-.7C14,72.51,14,80.82,16.69,85.54Z"/><path class="cls-8" d="M22.91,71.26s-3,3.65-2.14,6,2.38,2.68,2.38,2.68a14.67,14.67,0,0,1,.19-3.67,6.26,6.26,0,0,1,2.24-3.45Z"/><path class="cls-9" d="M1.1,94.53c2.36,4.78,10,9.9,17.71,4.11,7.06-5.3,5.15-12.37,1.08-16.77A11.67,11.67,0,0,0,4.35,80.42C-.47,83.85-.85,90.59,1.1,94.53Z"/><path class="cls-8" d="M8.09,83s-2.57,2.81-2,4.75A3,3,0,0,0,7.88,90a12.67,12.67,0,0,1,.32-3,5,5,0,0,1,2-2.67Z"/><path class="cls-3" d="M107.36,50.37c-4.59-3.12-10.26-6.07-10.42-6.7,1.14-.78,3.13-2.4,2.29-5.16,5.51,3.54,14.87,8.43,26.5,16.83-.44,2.35-1.23,4-2.38,4.93C119,57.51,111.64,53.26,107.36,50.37Z"/><path class="cls-9" d="M84.39,60c3.73,5.41,14.09,10.16,22.35,1.85,6.92-7,4.08-16-1.67-20.65a14.39,14.39,0,0,0-19.22,1C80.6,47.25,81.31,55.54,84.39,60Z"/><path class="cls-8" d="M89.44,45.23s-2.63,3.9-1.6,6.15,2.6,2.46,2.6,2.46a15.32,15.32,0,0,1-.13-3.66,6.26,6.26,0,0,1,1.92-3.63Z"/></g></g></svg>