<svg xmlns="http://www.w3.org/2000/svg" viewBox="0 0 161.52 145.06"><defs><style>.cls-1{fill:#f39200;}.cls-2{fill:#d5c2a2;}.cls-3{fill:#2fac66;}.cls-4{fill:#b780b1;}.cls-5{fill:#85557c;}.cls-11,.cls-15,.cls-18,.cls-19,.cls-6{fill:none;stroke-linecap:round;}.cls-6{stroke:#1b8a4f;}.cls-15,.cls-6{stroke-width:0.57px;}.cls-7{fill:#e4d5b8;}.cls-8{fill:#ffde00;}.cls-9{fill:#e30613;}.cls-10{fill:#f3a5c2;}.cls-11,.cls-19{stroke:#000;}.cls-11{stroke-width:0.43px;}.cls-12{fill:#fff;}.cls-12,.cls-13{fill-rule:evenodd;}.cls-14{fill:#1b8a4f;}.cls-15{stroke:#85557c;}.cls-16{fill:#00a0a4;}.cls-17{fill:#007572;}.cls-18{stroke:#e67fa4;stroke-width:0.58px;}.cls-19{stroke-width:0.44px;}</style></defs><title>princesses</title><g id="Layer_2" data-name="Layer 2"><g id="Layer_1-2" data-name="Layer 1"><path class="cls-1" d="M47.94,27.69S48.61,39.85,49,43.37c.46,3.93.87,7,1.76,9.35,1.64,4.33,6.32,8.5,6.32,8.5S52.82,62.38,50,59.54a41.11,41.11,0,0,1-4.26-4.82s1.8,7.63,3.64,9.7c2.15,2.39,6,3.42,6,3.42a7.35,7.35,0,0,1-7.38.32,39.19,39.19,0,0,1-7.34-4.53l-19.33-.52s-1.6,7.5-3.66,9.31c-2.25,2-7.07,2.13-7.07,2.13S14.18,72,15.47,69a9.69,9.69,0,0,0,.2-6.2s-2,4.17-5.1,6.17-7.41,1.45-7.41,1.45,5.69-4.21,6.7-6.84a8.55,8.55,0,0,0,.48-4.77S7.78,63.76,5.5,64.7a7.24,7.24,0,0,1-4.95-.21A30.09,30.09,0,0,0,5.17,58.3c3.17-6.37,3.39-27.62,5.69-29.51S21,19.3,31.29,21.48A54.55,54.55,0,0,1,47.94,27.69Z"/><path class="cls-2" d="M35.9,49.1,20.35,50.39,22,70.05l15.54-1.29Z"/><path class="cls-3" d="M19.65,71.13c0,5.1.12,10.91.12,10.91a62.9,62.9,0,0,1,11.08-1.49c5.39-.16,8.65-.18,8.65-.18s-.9-6.69-1-10.39a38.87,38.87,0,0,0-1.56-10.49c-3.89-.79-7.71,3.36-7.71,3.36s-3.72-3.36-8.44-3.29A55.51,55.51,0,0,0,19.65,71.13Z"/><path class="cls-3" d="M18.28,81.73a175.12,175.12,0,0,0-8.52,19.21C5.24,113,.4,132.37,0,133.06c4.67,2.32,12.78,4.19,30.78,2.85,23.67-1.76,32.58-6.26,32.58-6.26s-6.48-16.69-12-27C45.52,91.62,40,81.4,40,81.4Z"/><path class="cls-4" d="M27.77,82.72S28.54,100,7,104.07a32.65,32.65,0,0,1,3.74-12.54,60.13,60.13,0,0,1,7-9.67Z"/><path class="cls-4" d="M31.21,82.55s-.75,18.59,21.12,20.14a61,61,0,0,0-4.86-11.48,42.16,42.16,0,0,0-7.62-9.46Z"/><path class="cls-5" d="M18.45,78.67a47.38,47.38,0,0,0,9.44.68c7.19-.1,7.2,0,11.93-1.27l.57,3.54s-8.3,1.24-11.71,1.24c-8.08,0-10.92-1-10.92-1Z"/><path class="cls-6" d="M18.21,103.39s-2.33,6.16-4,12.39c-1.9,7.18-2.85,12.1-2.85,12.1"/><path class="cls-6" d="M30.32,98.3s2,19.14.33,32.38"/><path class="cls-6" d="M41.64,102.51s2.27,5.23,3.81,10.08c2,6.26,3.58,12.73,3.58,12.73"/><path class="cls-7" d="M42.08,65.21s1.18,15-4.21,23.1c-2.17,3.27-3.15,5-4,4.47S35,89.6,35,89.6,32.2,93,31.46,91.79s1.95-3.52,1.95-3.52-4,2.28-3.82.87,3.21-2.83,3.21-2.83-2.45-1-1.3-2c1-1,4,.84,4,.84a14.59,14.59,0,0,0,2.05-6.27c.32-3.66.79-14.33.79-14.33Z"/><path class="cls-7" d="M16.37,65.5s-1.2,15,4.19,23.11c2.17,3.28,3.16,5,4.06,4.48s-1.22-3.18-1.22-3.18S26.22,93.33,27,92.1,25,88.58,25,88.58s4,2.29,3.81.88-3.22-2.84-3.22-2.84,2.47-1,1.31-2.05c-1-1-4,.82-4,.82a14.82,14.82,0,0,1-2-6.27c-.31-3.67-.77-14.34-.77-14.34Z"/><path class="cls-4" d="M36.55,57.84a2.36,2.36,0,0,1,2-3.06c2.79-.64,6.13,2,5.34,6.21a25.59,25.59,0,0,1-1.37,4.67L38,66Z"/><path class="cls-4" d="M21.5,57.81a2.37,2.37,0,0,0-2.16-3c-2.83-.51-6,2.32-5,6.46a26.27,26.27,0,0,0,1.58,4.6l4.57.07Z"/><path class="cls-8" d="M17.92,20.32,16.18,8.9s4.48,5.76,6.53,4.38S25.5,7.81,25.5,7.81s2.3,6,4.28,5.48,3.6-6.35,3.6-6.35-.84,5.72,2.28,5.86,6.52-4.34,6.52-4.34L39.45,19.61a106.06,106.06,0,0,0-12.17-.72A42.3,42.3,0,0,0,17.92,20.32Z"/><path class="cls-9" d="M25.39,7.11c0-.18-3.4-4.3-2.28-5s2,.81,2,.81.93-1.82,2-1.32C28.49,2.23,25.39,7.11,25.39,7.11Z"/><path class="cls-9" d="M16.25,8.62c0-.19-4.22-3.5-3.29-4.41s2.14.38,2.14.38.52-2,1.68-1.72C18.24,3.19,16.25,8.62,16.25,8.62Z"/><path class="cls-9" d="M33.22,7.09c.05-.17-2-5.11-.71-5.45S34.18,3,34.18,3s1.42-1.47,2.3-.68C37.6,3.34,33.22,7.09,33.22,7.09Z"/><path class="cls-9" d="M42.15,8.32c.07-.15-1.28-5.32,0-5.49s1.47,1.59,1.47,1.59,1.6-1.27,2.37-.37C47,5.21,42.15,8.32,42.15,8.32Z"/><path class="cls-7" d="M14.46,24.26s-3.69,11.3-2.29,19.57c1.95,11.33,12,15.72,19.92,14,12.15-2.68,13.66-14.2,14.13-19.6.65-7.28-3.7-15.17-3.7-15.17s-6.2-2-12.38-3.77S14.46,24.26,14.46,24.26Z"/><path class="cls-10" d="M46.47,45.52a3.59,3.59,0,1,1-3.88-3.28A3.6,3.6,0,0,1,46.47,45.52Z"/><path class="cls-11" d="M31.27,39.74a32.06,32.06,0,0,0,3,2.35c.93.64,1.95,2.25-.64,2.95s-3.23-.11-3.23-.11"/><path class="cls-12" d="M39.73,32.3a3.54,3.54,0,0,0-3.65,3.81c0,2.32,1.45,4,3.42,4a3.67,3.67,0,0,0,3.75-4C43,33.84,41.89,32.18,39.73,32.3Z"/><path class="cls-13" d="M41,34.76c-.42,0-.62.28-.63.69a.65.65,0,0,0,.66.73.71.71,0,1,0,0-1.42Z"/><path class="cls-12" d="M22.34,32.33A3.69,3.69,0,0,0,19,36.7c.26,2.41,1.76,4,4,3.77a3.92,3.92,0,0,0,3.41-4.58C26.16,33.51,24.56,32,22.34,32.33Z"/><path class="cls-13" d="M24.07,34.93a.6.6,0,0,0-.55.75.67.67,0,0,0,.74.66.7.7,0,0,0,.65-.8A.73.73,0,0,0,24.07,34.93Z"/><path class="cls-11" d="M28.38,49.68s.38,2.42,2.44,2.53a2.41,2.41,0,0,0,2.52-1.73"/><path class="cls-1" d="M22.14,24.88S25,28.73,27.06,30s5,2.15,3.28-.81-1.13-3-1.13-3,9.84,7.21,10.64,4.91c.61-1.73-3-4.8-3-4.8s9.53,6.32,12,5.73c2-.51-1.42-6.49-3.85-8.84a17.68,17.68,0,0,0-5.51-3.78c-4.08-1.91-11.13-3-18-1.33S7.9,28.81,8.89,30.56s8.59-3.81,8.59-3.81-3.57,6.08-.38,5.09S22.14,24.88,22.14,24.88Z"/><path class="cls-10" d="M21.73,44.7a3.59,3.59,0,1,1-3.88-3.27A3.6,3.6,0,0,1,21.73,44.7Z"/><path class="cls-7" d="M115.29,90.21c-.85.2-.69-.92-1-2.38-.21,1.56-1,3-2.25,2.53-.77-.28.23-2,.71-3.22-.57.72-1.54,1.66-2.43,1.58s-.29-2,1-3.51c-3.73-.5-1.13-2.56,1.36-1.87,2.62-4.48,3.09-12.6,3-14.84,0,0-.4-3.82-.42-3.84.24-1.24,3.86-1.31,3.94,0,.52,9.15-.07,15.79-3.22,19.32C116.6,86.27,116.29,90,115.29,90.21Z"/><path class="cls-1" d="M105,27.83s.33,12.18.22,15.72a42,42,0,0,1-1,9.46c-1.28,4.45-5.61,9-5.61,9s4.37.79,7-2.27a40,40,0,0,0,3.85-5.16s-1.16,7.76-2.83,10A14.31,14.31,0,0,1,101,68.46a7.38,7.38,0,0,0,7.39-.29,39,39,0,0,0,6.93-5.12l19.23-2.13s2.21,7.34,4.42,9c2.41,1.79,7.23,1.54,7.23,1.54s-3.77-2.23-5.3-5.08a9.68,9.68,0,0,1-.72-6.17s2.31,4,5.6,5.73,7.51.84,7.51.84-6-3.74-7.25-6.28a8.71,8.71,0,0,1-.87-4.72s3,4.69,5.32,5.44a7.2,7.2,0,0,0,4.91-.62,29.38,29.38,0,0,1-5.12-5.79c-3.69-6.09-5.66-27.24-8.12-28.94s-10.85-8.63-21-5.6A55.06,55.06,0,0,0,105,27.83Z"/><path class="cls-3" d="M119.81,56.93A2.37,2.37,0,0,0,117.54,54c-2.84-.41-6,2.54-4.81,6.64a27,27,0,0,0,1.75,4.53l4.58-.1Z"/><path class="cls-2" d="M134.4,48.13H118.79V67.85H134.4Z"/><path class="cls-4" d="M136.81,68.77a106.14,106.14,0,0,0,1.76,10.89,80.56,80.56,0,0,0-12.15-.58c-5.37.29-8.63.53-8.63.53s.34-6.73.14-10.43a39.22,39.22,0,0,1,.69-10.58c3.8-1.1,8,2.72,8,2.72a13.8,13.8,0,0,1,8.13-4A54.28,54.28,0,0,1,136.81,68.77Z"/><path class="cls-4" d="M139.06,79.23a177.39,177.39,0,0,1,10.07,18.43c5.5,11.61,11.92,30.54,12.39,31.2-4.46,2.7-12.39,5.23-30.45,5.39-23.73.21-33-3.54-33-3.54s5.09-17.18,9.68-27.86c5-11.52,10-22.43,10-22.43Z"/><path class="cls-3" d="M127.84,81s-1.83,19.54,24.33,19.56a32.66,32.66,0,0,0-4.76-12.19,60.08,60.08,0,0,0-7.79-9.06Z"/><path class="cls-3" d="M124.41,81.12s4.12,18.46-17.54,21.81a60.7,60.7,0,0,1,3.9-11.84,52,52,0,0,1,6.82-10.58Z"/><path class="cls-14" d="M138.25,76.2s-1.86,1.07-7.88,1.56a50.26,50.26,0,0,1-12.55-.28l-.22,3.06s7.82,1,11.23.69c8.06-.69,10.8-1.89,10.8-1.89Z"/><path class="cls-15" d="M140.77,100.55s2.45,6.11,4.21,12.3c2,7.15,3.09,12,3.09,12"/><path class="cls-15" d="M125.8,127.21s2.93-19,2-32.33"/><path class="cls-15" d="M116.59,102.79s-1.83,5.39-3,10.36c-1.46,6.4-2.53,13-2.53,13"/><path class="cls-7" d="M136.47,62.94s-.35,15,5.49,22.83c2.36,3.15,3.44,4.79,4.3,4.25s-1.4-3.11-1.4-3.11,3,3.25,3.68,2-2.14-3.41-2.14-3.41,4.13,2.05,3.86.65-3.36-2.64-3.36-2.64,2.4-1.09,1.19-2.13c-1.06-.89-3.61.85-3.61.85a11.71,11.71,0,0,1-2.71-5.94c-.53-3.63-1.58-14.27-1.58-14.27Z"/><path class="cls-3" d="M133.89,55.67a2.37,2.37,0,0,1,1.9-3.14c2.77-.74,6.21,1.81,5.56,6a17.23,17.23,0,0,0-.19,4.22l-5.09.95Z"/><path class="cls-8" d="M134.35,18l.79-11.53s-4,6.1-6.16,4.9-3.24-5.21-3.24-5.21S124,12.28,121.93,12s-4.11-6-4.11-6,1.31,5.63-1.79,6-6.84-3.8-6.84-3.8l3.65,10.89a107.42,107.42,0,0,1,12.07-1.73A42.89,42.89,0,0,1,134.35,18Z"/><path class="cls-9" d="M125.79,5.46c0-.18,3-4.56,1.86-5.17s-1.93,1-1.93,1-1.07-1.73-2.1-1.15C122.32.85,125.79,5.46,125.79,5.46Z"/><path class="cls-9" d="M135,6.2c0-.18,3.92-3.84,2.9-4.66s-2.1.55-2.1.55S135.16.17,134,.52C132.6,1,135,6.2,135,6.2Z"/><path class="cls-9" d="M118,6.08c-.06-.17,1.55-5.26.25-5.49S116.7,2.1,116.7,2.1s-1.54-1.35-2.36-.49C113.33,2.7,118,6.08,118,6.08Z"/><path class="cls-9" d="M109.2,8.06c-.09-.16.82-5.42-.49-5.48s-1.33,1.7-1.33,1.7-1.7-1.13-2.39-.17C104.11,5.34,109.2,8.06,109.2,8.06Z"/><path class="cls-7" d="M138.11,21.64s4.62,11,3.9,19.31c-1,11.45-10.61,16.66-18.69,15.56-12.34-1.67-14.79-13-15.71-18.36-1.24-7.19,2.44-15.42,2.44-15.42s6-2.53,12-4.79S138.11,21.64,138.11,21.64Z"/><path class="cls-10" d="M109.82,45.47a3.59,3.59,0,1,0,3.59-3.59A3.58,3.58,0,0,0,109.82,45.47Z"/><path class="cls-11" d="M125.14,38.43a37,37,0,0,1-2.58,2.83c-.81.77-1.54,2.53,1.13,2.8s3.17-.64,3.17-.64"/><path class="cls-12" d="M115.44,31.75a3.54,3.54,0,0,1,3.94,3.51c.2,2.31-1.13,4.08-3.08,4.29a3.67,3.67,0,0,1-4.07-3.68C112.26,33.56,113.28,31.8,115.44,31.75Z"/><path class="cls-13" d="M114.37,35.24c.42,0,.64.21.69.64a.66.66,0,0,1-.59.78.71.71,0,0,1-.79-.67A.68.68,0,0,1,114.37,35.24Z"/><path class="cls-12" d="M132.77,30.34a3.69,3.69,0,0,1,3.69,4.08c-.06,2.42-1.42,4.14-3.69,4.08A3.9,3.9,0,0,1,129,34.23C129.06,31.84,130.54,30.15,132.77,30.34Z"/><path class="cls-13" d="M131.27,34a.59.59,0,0,1,.6.7.66.66,0,0,1-.68.72.7.7,0,0,1-.7-.75A.69.69,0,0,1,131.27,34Z"/><path d="M128.74,46.84s-.21,3.29-2.78,3.56c-1.49.15-2.7-1.74-3-1.95C127.35,48.09,128.74,46.84,128.74,46.84Z"/><path class="cls-1" d="M130.51,22.89S128,27,126,28.4s-4.79,2.55-3.33-.53.88-3,.88-3-9.21,8-10.19,5.77c-.74-1.66,2.59-5,2.59-5s-9,7.1-11.45,6.7c-2.07-.32.87-6.59,3.09-9.11a17.7,17.7,0,0,1,5.18-4.24c3.91-2.24,10.86-3.92,17.81-2.81S145,25.62,144.2,27.46s-8.89-3.09-8.89-3.09,4.05,5.77.79,5S130.51,22.89,130.51,22.89Z"/><path class="cls-10" d="M134.4,42.62A3.59,3.59,0,1,0,138,39,3.58,3.58,0,0,0,134.4,42.62Z"/><path class="cls-7" d="M68,99.83c-.88.2-.71-1-1-2.44-.22,1.6-1,3.07-2.31,2.59-.8-.29.24-2.07.72-3.3-.58.73-1.58,1.71-2.49,1.62s-.3-2,1-3.61c-3.82-.51-1.16-2.63,1.4-1.93,2.69-4.6,3.18-12.94,3.07-15.25,0,0-.41-3.9-.43-3.93.25-1.26,4-1.35,4,0,.53,9.4-.06,16.22-3.3,19.84C69.4,95.77,69.07,99.58,68,99.83Z"/><path class="cls-1" d="M57.51,35.78s.34,12.5.22,16.13c-.13,4.07-.3,7.28-1,9.72C55.41,66.19,51,70.87,51,70.87s4.49.82,7.17-2.33a41,41,0,0,0,4-5.29s-1.19,8-2.9,10.23c-2,2.64-5.89,4-5.89,4a7.57,7.57,0,0,0,7.59-.3A40,40,0,0,0,68,71.94l19.74-2.18S90,77.3,92.27,79c2.47,1.83,7.42,1.58,7.42,1.58s-3.87-2.28-5.45-5.22A10,10,0,0,1,93.5,69s2.36,4.12,5.74,5.89,7.71.86,7.71.86-6.19-3.82-7.44-6.43a8.88,8.88,0,0,1-.9-4.84s3,4.8,5.45,5.58a7.34,7.34,0,0,0,5-.64,30.85,30.85,0,0,1-5.25-5.94c-3.79-6.25-5.82-27.95-8.34-29.7S84.39,24.91,74,28A55.87,55.87,0,0,0,57.51,35.78Z"/><path class="cls-16" d="M72.67,65.66a2.43,2.43,0,0,0-2.33-3c-2.91-.42-6.1,2.6-4.93,6.81a27.52,27.52,0,0,0,1.8,4.65l4.7-.1Z"/><path class="cls-2" d="M87.65,56.62h-16V76.87h16Z"/><path class="cls-10" d="M90.14,77.82c.49,5.21,1.15,9.72,1.15,9.72s-6.28.56-11.81.86-8.86.55-8.86.55S71,82,70.76,78.23a40,40,0,0,1,.7-10.86c3.91-1.13,8.17,2.78,8.17,2.78S83.14,66.4,88,66.07A56.69,56.69,0,0,1,90.14,77.82Z"/><path class="cls-10" d="M92.16,88.77a140.07,140.07,0,0,1,10.63,18.71c5.64,11.92,12.23,31.36,12.71,32-4.58,2.75-12.71,5.36-31.26,5.53-24.36.22-33.85-3.64-33.85-3.64s5.22-17.62,9.93-28.6c5.08-11.82,10.3-23,10.3-23Z"/><path class="cls-16" d="M80.93,90.38s-1.88,20.07,25,20.07A33.46,33.46,0,0,0,101,97.94a46.81,46.81,0,0,0-8.85-9.17Z"/><path class="cls-16" d="M77.41,90.49s4.23,19-18,22.4a62.69,62.69,0,0,1,4-12.17,53.37,53.37,0,0,1,7-10.85Z"/><path class="cls-17" d="M91.31,85.71s-1.61.82-7.8,1.33a50.42,50.42,0,0,1-12.89-.29l-.23,3.13s8,1,11.52.71c8.27-.71,10.23-1.82,10.23-1.82Z"/><path class="cls-18" d="M94.19,110.45s2.52,6.26,4.33,12.62c2.08,7.33,3.16,12.36,3.16,12.36"/><path class="cls-18" d="M80.93,104.62s-3,19.52-2,33.19"/><path class="cls-18" d="M69.37,112.73s-1.88,5.53-3,10.64c-1.5,6.57-2.59,13.32-2.59,13.32"/><path class="cls-7" d="M93.6,70.66s5.2,14.5,2,24c-1.28,3.83-1.8,5.79-2.82,5.53s.35-3.48.35-3.48-1.88,4.15-2.93,3.13,1-4,1-4-3.36,3.33-3.55,1.89,2.42-3.68,2.42-3.68-2.69-.28-1.85-1.69c.75-1.21,4.17-.24,4.17-.24a15.23,15.23,0,0,0,.35-6.76C92.08,81.67,89.68,71,89.68,71Z"/><path class="cls-16" d="M87.13,64.36a2.42,2.42,0,0,1,2-3.22c2.84-.77,6.36,1.86,5.7,6.18a18.19,18.19,0,0,0-.21,4.32l-5.21,1Z"/><path class="cls-8" d="M87.61,25.69l.81-11.83s-4.09,6.28-6.32,5-3.32-5.36-3.32-5.36-1.83,6.28-3.91,6-4.22-6.19-4.22-6.19S72,19.1,68.81,19.52s-7-3.9-7-3.9L65.52,26.8A111.85,111.85,0,0,1,77.92,25,43.77,43.77,0,0,1,87.61,25.69Z"/><path class="cls-9" d="M78.83,12.82c0-.19,3.1-4.69,1.91-5.32s-2,1-2,1-1.11-1.79-2.16-1.19C75.26,8.08,78.83,12.82,78.83,12.82Z"/><path class="cls-9" d="M88.32,13.58c0-.18,4-3.93,3-4.79s-2.15.57-2.15.57-.71-2-1.86-1.62C85.82,8.2,88.32,13.58,88.32,13.58Z"/><path class="cls-9" d="M70.83,13.46c-.06-.17,1.59-5.4.26-5.65s-1.6,1.56-1.6,1.56S67.91,8,67.08,8.87C66,10,70.83,13.46,70.83,13.46Z"/><path class="cls-9" d="M61.8,15.49c-.09-.17.85-5.56-.5-5.62s-1.37,1.74-1.37,1.74-1.75-1.15-2.45-.17C56.57,12.69,61.8,15.49,61.8,15.49Z"/><path class="cls-7" d="M91.48,29.43s4.74,11.26,4,19.84c-1,11.75-10.89,17.1-19.19,16C63.62,63.53,61.11,51.87,60.16,46.39c-1.27-7.38,2.5-15.83,2.5-15.83S68.83,28,75,25.65,91.48,29.43,91.48,29.43Z"/><path class="cls-10" d="M62.42,53.89a3.68,3.68,0,1,0,3.67-3.69A3.68,3.68,0,0,0,62.42,53.89Z"/><path class="cls-19" d="M77.64,46.67A36.12,36.12,0,0,1,75.48,50c-.7.91-1.16,2.83,1.6,2.66s3.11-1.17,3.11-1.17"/><path class="cls-12" d="M68.19,39.81a3.64,3.64,0,0,1,4.06,3.6c.2,2.36-1.16,4.18-3.16,4.4A3.75,3.75,0,0,1,64.92,44C64.93,41.66,66,39.86,68.19,39.81Z"/><path class="cls-13" d="M69,42.43a.63.63,0,0,1,.71.66.68.68,0,0,1-.61.8.71.71,0,0,1-.8-.68A.73.73,0,0,1,69,42.43Z"/><path class="cls-12" d="M86,38.37a3.79,3.79,0,0,1,3.79,4.19C89.72,45,88.32,46.8,86,46.74a4,4,0,0,1-3.89-4.39C82.18,39.88,83.7,38.16,86,38.37Z"/><path class="cls-13" d="M86.33,41.16c.42,0,.63.3.62.73a.68.68,0,0,1-.69.73.73.73,0,1,1,.07-1.46Z"/><path class="cls-19" d="M78.91,58.64c-2.12-.06-2.64-.79-2.64-.79"/><path class="cls-1" d="M83.67,30.72s-2.58,4.18-4.59,5.66-4.93,2.62-3.42-.56.9-3.11.9-3.11-9.46,8.21-10.48,5.92c-.76-1.71,2.67-5.15,2.67-5.15S59.54,40.76,57,40.35c-2.13-.34.9-6.76,3.18-9.36a18.22,18.22,0,0,1,5.31-4.35c4-2.3,11.14-4,18.27-2.89s14.81,9.77,14,11.66-9.11-3.17-9.11-3.17,4.16,5.92.81,5.17S83.67,30.72,83.67,30.72Z"/><path class="cls-10" d="M87.66,51a3.69,3.69,0,1,0,3.68-3.69A3.7,3.7,0,0,0,87.66,51Z"/></g></g></svg>