<svg xmlns="http://www.w3.org/2000/svg" viewBox="0 0 446 50.54"><defs><style>.cls-1{fill:#2bb673;}</style></defs><title>title</title><g id="Layer_2" data-name="Layer 2"><g id="Layer_1-2" data-name="Layer 1"><path class="cls-1" d="M1.24,44.89A42.8,42.8,0,0,1,1,37.6c.11-2.51.14-5,.06-7.35s-.2-4.52-.38-6.68-.23-4.41-.2-6.68c0-2.45,0-4.73,0-6.86A41.93,41.93,0,0,0,0,3.32,2.1,2.1,0,0,1,1,1.76,6,6,0,0,1,2.88,1.1a10.55,10.55,0,0,1,2.25,0,3.28,3.28,0,0,1,2,.95,4.22,4.22,0,0,0,0,.52,4.22,4.22,0,0,1,0,.52A21.07,21.07,0,0,1,7.17,7.9,24.34,24.34,0,0,0,7,12.65c0,.18,0,.81.09,1.93s.14,2.39.23,3.81.17,2.88.26,4.35.14,2.62.17,3.45c.11,2,.2,4,.23,5.94S8.12,36,8.33,38c.11.81.48,1.27,1,1.39a7.94,7.94,0,0,0,1.87.14c.67,0,1.3,0,1.88,0a1.05,1.05,0,0,1,1,1.06c0,1.36,0,2.45-.09,3.26a21.42,21.42,0,0,1-.29,2.25c-.11.66-.34,1-.63,1,0,.06-.12.06-.23.06h-.2c-1.62-.08-3.26-.14-5-.23a48.33,48.33,0,0,1-5.07-.29,1.14,1.14,0,0,1-1-.49A4.28,4.28,0,0,1,1.24,44.89Z"/><path class="cls-1" d="M39.75,48.06a2.5,2.5,0,0,1-.63-.41,1.19,1.19,0,0,1-.38-.6L37.22,33.62a.57.57,0,0,0-.23-.43c-.15-.11-.29-.17-.41-.11l-7.34.69,1.21,11.09A6.25,6.25,0,0,0,31,46.73a5.86,5.86,0,0,1,.58,1.82c0,.25,0,.4-.06.46a1.56,1.56,0,0,1-.57.14,1.64,1.64,0,0,0-.35,0,1.26,1.26,0,0,1-.29,0h-.8c-.35,0-.72,0-1.1,0s-.72,0-1,0-.52,0-.61,0A5.24,5.24,0,0,1,25,49.06a2.33,2.33,0,0,1-1.07-.74,3.35,3.35,0,0,1-.55-1.24c-.11-.49-.2-1-.28-1.67-.21-2.34-.38-4.64-.52-6.95s-.23-4.63-.32-7c0,0,0-.26,0-.69s-.06-.92-.09-1.47S22,28.21,22,27.69s-.09-1-.11-1.24A19.85,19.85,0,0,1,22.07,22c.2-1.35.49-2.82.77-4.43A3,3,0,0,1,23,15.3c.34-.8.63-1.52.86-2.16a5.17,5.17,0,0,0,.17-1,3.74,3.74,0,0,1,.24-1,2,2,0,0,1,0-.23c0-.11.09-.14.12-.14a24.77,24.77,0,0,0,1.21-2.56,11.44,11.44,0,0,1,1.41-2.57,10.19,10.19,0,0,1,1.38-1.55,17.53,17.53,0,0,1,1.79-1.5,10.71,10.71,0,0,1,2-1.15,8.17,8.17,0,0,1,2-.58,6.94,6.94,0,0,1,4.44.78,7.24,7.24,0,0,1,2.5,2.71A14.08,14.08,0,0,1,42.61,8a36.32,36.32,0,0,0,1.15,3.72,5.75,5.75,0,0,0,.08.69c.06.35.12.69.18,1.07a7.38,7.38,0,0,0,.17,1,4.4,4.4,0,0,1,.09.67c.28,2.79.49,5.59.54,8.44s.18,5.64.29,8.44a15.41,15.41,0,0,1-.17,2.22,9.14,9.14,0,0,0-.09,2.21c0,.09,0,.32.06.67s.09.74.11,1.18a7.11,7.11,0,0,0,.18,1.18,5.11,5.11,0,0,1,.08.66v2.1c0,.09,0,.32,0,.67s0,.75.06,1.18,0,.8.06,1.18,0,.6,0,.72a6.92,6.92,0,0,1-.12,1.15,1,1,0,0,1-.83.89h-.12l-.4,0L43.58,48c-.11,0-.37,0-.74,0s-.78,0-1.19,0-.77,0-1.15,0S39.9,48.06,39.75,48.06ZM29.38,25.24a1.19,1.19,0,0,0,.9,1.07,7.23,7.23,0,0,0,1.9.4,17.32,17.32,0,0,0,2.16.06L36,26.68a4.22,4.22,0,0,0,.52,0,4.22,4.22,0,0,1,.52,0,3,3,0,0,0,.2-.34c0-.12.08-.23.11-.35s0-.66,0-1.24a17.76,17.76,0,0,1-.09-1.87c0-.66,0-1.29-.06-1.87s0-1,0-1.24a2.12,2.12,0,0,0,.06-.58v-.6l-.63-6.17a3.46,3.46,0,0,0-.32-1,4.58,4.58,0,0,0-.63-1,2.51,2.51,0,0,0-.93-.75,1.93,1.93,0,0,0-1.12-.23,2.15,2.15,0,0,0-1,.32A9.27,9.27,0,0,0,30,14.15a27.72,27.72,0,0,0-.58,5.13c0,1,0,2-.06,3A18.7,18.7,0,0,0,29.38,25.24Z"/><path class="cls-1" d="M49.66,38.35a2.37,2.37,0,0,1,1.62-1.56,7.64,7.64,0,0,1,2.79-.2,28.53,28.53,0,0,1,3.6.61c1.33.28,2.71.57,4.15.83a4,4,0,0,0,1.56-.43,5.64,5.64,0,0,0,1.23-1,9.63,9.63,0,0,0,1.07-1.35c.35-.52.69-1,1.07-1.53a.9.9,0,0,0,.11-.29,2.12,2.12,0,0,0,.06-.29l-.26-3.74a6.8,6.8,0,0,1-.81-.64,13.61,13.61,0,0,1-1-.89,2.71,2.71,0,0,0-.49-.34,1.27,1.27,0,0,0-.49-.23,34.1,34.1,0,0,0-4.15-1.53,25.39,25.39,0,0,1-3.6-1.36A10.28,10.28,0,0,1,53,22.27a11.78,11.78,0,0,1-2.39-3.88,4.79,4.79,0,0,0,0-.58L50.53,17c0-.29-.09-.52-.09-.75a3.22,3.22,0,0,1,0-.46c0-.6-.08-1.21-.17-1.9a4.14,4.14,0,0,1,.23-1.9,4.41,4.41,0,0,0,.32-.95c.11-.43.28-.89.43-1.36s.32-.92.49-1.32.23-.72.29-.89V7.18a10.92,10.92,0,0,1,.69-.89c.2-.2.4-.44.6-.67s.35-.4.46-.54A17.67,17.67,0,0,1,57.9,1.53a12.94,12.94,0,0,1,5-1.52,12.2,12.2,0,0,1,2.42.2A20.36,20.36,0,0,1,68.53,1a11.41,11.41,0,0,1,2.79,1.29A2.31,2.31,0,0,1,72.59,4a7.59,7.59,0,0,1,0,1.53,14.33,14.33,0,0,1-.41,1.9,6.72,6.72,0,0,1-.75,1.67,1.47,1.47,0,0,1-1.12.78,18.91,18.91,0,0,1-3.28,0,17.22,17.22,0,0,0-3.29,0,11.33,11.33,0,0,0-1.3.12,12.76,12.76,0,0,1-1.29.11,3.21,3.21,0,0,1-.61.29,5.7,5.7,0,0,0-.83.4,5.26,5.26,0,0,0-.69.49.7.7,0,0,0-.29.52l.32,3.8a.84.84,0,0,0,.4.61c.26.2.58.37.89.57a5.77,5.77,0,0,0,1,.52c.35.15.58.23.69.29,1.7.81,3.23,1.56,4.64,2.28a15.24,15.24,0,0,1,3.6,2.53,11.79,11.79,0,0,1,2.45,3.46,15.25,15.25,0,0,1,1.18,5,15.49,15.49,0,0,1-.34,5.13,13.78,13.78,0,0,1-2,4.52,11.17,11.17,0,0,1-3.46,3.31,10.85,10.85,0,0,1-4.75,1.59,22.25,22.25,0,0,1-4.55.06,14.87,14.87,0,0,1-4.3-.95,8.71,8.71,0,0,1-3.25-2.25A6,6,0,0,1,49.66,38.35Z"/><path class="cls-1" d="M112.83,48.32a4.24,4.24,0,0,0,0-1c0-.52-.08-.87-.08-1a22.52,22.52,0,0,1,0-3.77c.11-1.21.23-2.48.4-3.83a.68.68,0,0,0,0-.35,2.12,2.12,0,0,1-.06-.29,22.65,22.65,0,0,1,.23-3.11c.15-1,.23-2,.29-3.11a53.57,53.57,0,0,0-.06-5.82c-.11-1.9-.17-3.83-.11-5.76,0-.17,0-.43,0-.75s0-.66,0-1,0-.63.06-.92a4.91,4.91,0,0,0,0-.55c0-.08,0-.26.06-.57s.09-.61.11-.92.09-.61.12-.9A2.42,2.42,0,0,0,114,14v-.21a.8.8,0,0,0-.32-.66,2.22,2.22,0,0,0-.63-.29,29.49,29.49,0,0,1-3.63,0,29.48,29.48,0,0,0-3.63,0,2.92,2.92,0,0,1-1-.43c0-.2,0-.61-.06-1.18a9.5,9.5,0,0,0-.12-1.13c0-.37-.11-1-.23-1.75s-.17-1.62-.2-2.45a7.77,7.77,0,0,1,.23-2.22c.18-.66.52-1,1.07-1.12h.26l21.08.23a.82.82,0,0,1,.69.29,1.88,1.88,0,0,1,.41.66,4.32,4.32,0,0,1,.23.8,6.58,6.58,0,0,1,.06.67s0,.2,0,.49.06.6.09,1,.09.72.12,1.06.06.67.06.93c0,.11,0,.34,0,.63s0,.63.06,1,0,.69.06,1a2,2,0,0,1,.09.63,1.06,1.06,0,0,1-.21.63A.68.68,0,0,1,128,13a19.81,19.81,0,0,1-3.16.26,24,24,0,0,0-3.17.2,1.93,1.93,0,0,1-.58,0,.73.73,0,0,0-.58.29,2.25,2.25,0,0,0-.48,1.06,9.47,9.47,0,0,0-.09,1.3c0,.43,0,.89.06,1.32s0,.84,0,1.18q-.3,7.09-.31,14.24A110.45,110.45,0,0,0,120.64,47a6.27,6.27,0,0,1-.17,1.27.94.94,0,0,1-.87.83h0a4.22,4.22,0,0,1-.52,0l-.87-.08a4.4,4.4,0,0,0-.86-.06h-.43a5.29,5.29,0,0,0-1,0,8.24,8.24,0,0,1-1.21.06,7.23,7.23,0,0,1-1.16-.12A2,2,0,0,1,112.83,48.32Z"/><path class="cls-1" d="M150.8,50a26.73,26.73,0,0,1-1.9-3c-.46-.86-1-1.81-1.58-2.82a3.71,3.71,0,0,0-.44-.55l-.6-.72a7.71,7.71,0,0,1-.49-.72.78.78,0,0,1-.06-.66c-.52-.72-1-1.47-1.5-2.22s-.95-1.5-1.44-2.22h-.11a.23.23,0,0,1-.12-.06c-.37-.08-.52.09-.43.52s.09,1.18.12,2.28.08,2.27.14,3.51.12,2.42.2,3.54.12,1.91.15,2.31l0,.2a5.22,5.22,0,0,1-.37.49c-.17.2-.29.26-.32.23l-6.48.43a1,1,0,0,1-1-.46,2.14,2.14,0,0,1-.43-1c0-.05,0-.08,0-.08a.22.22,0,0,0,0-.15v-.2s0-.14,0-.34.09-.41.12-.61.08-.4.11-.58.06-.28.06-.31,0-.41-.09-.87-.11-.92-.17-1.38-.08-1-.11-1.35-.06-.69-.06-.84V40.83c0-.84,0-1.7,0-2.63s0-1.81-.06-2.62,0-1.35,0-1.55,0-.61-.05-1.16-.09-1.15-.12-1.78-.08-1.21-.11-1.79-.06-.92-.06-1.15a1.34,1.34,0,0,0,.06-.58V27c.11-3.69.14-7.32.05-10.89s-.2-7.2-.31-10.83c0-.12,0-.38,0-.69s-.06-.69-.09-1.1-.08-.75-.08-1.12,0-.61,0-.72.2-.4.34-.43a2.53,2.53,0,0,1,.49-.06c1.7-.12,3.34-.2,5-.23a17.32,17.32,0,0,1,4.52.49,10.18,10.18,0,0,1,3.83,1.81,9.43,9.43,0,0,1,2.85,3.6c.55,1.1,1.1,2.16,1.64,3.2a8.3,8.3,0,0,1,1,3.4,13.77,13.77,0,0,1-1.29,7.06,19.64,19.64,0,0,1-4.41,5.93,1,1,0,0,0-.26.69,2.6,2.6,0,0,0,.49,1.07,1.34,1.34,0,0,1,.23,1.09l2.6,5.19v.2l2.59,4.18a7.31,7.31,0,0,0,.54,1c.35.67.78,1.39,1.24,2.22s.9,1.65,1.27,2.48a6.27,6.27,0,0,1,.63,1.87,2,2,0,0,1-.4,1.27A6.41,6.41,0,0,1,155,49a10.44,10.44,0,0,1-1.47,1,3.08,3.08,0,0,1-1.32.4A1.3,1.3,0,0,1,150.8,50ZM140.14,19.85c.18.21.29.38.41.49a1,1,0,0,0,.54.23,3.44,3.44,0,0,0,2.08-.95,5.61,5.61,0,0,0,1.21-1.84,7.91,7.91,0,0,0,.55-2.19,18.61,18.61,0,0,0,.11-2,7.38,7.38,0,0,0-.32-1.55,9.73,9.73,0,0,0-.69-1.76A3.92,3.92,0,0,0,142.91,9a2.31,2.31,0,0,0-1.61-.49,1.23,1.23,0,0,0-1,.69,4,4,0,0,0-.47,1.47,11.08,11.08,0,0,0-.11,1.61v1.12a3.32,3.32,0,0,0,0,.44c0,.25,0,.54.06.89s0,.69,0,1,.06.63.09.86a5.81,5.81,0,0,0,0,.63,9.73,9.73,0,0,1,.06,1c0,.38,0,.69.06,1S140.14,19.74,140.14,19.85Z"/><path class="cls-1" d="M163,48.43a4.81,4.81,0,0,1-.52-.4.66.66,0,0,1-.26-.55,29.32,29.32,0,0,1,0-6.14,55.69,55.69,0,0,0,.34-6.16c0-2.54-.08-5.07-.23-7.63s-.31-5.1-.46-7.67-.32-5.1-.4-7.63-.12-5,0-7.55a1.81,1.81,0,0,1,.23-.8.89.89,0,0,1,.66-.52,7.13,7.13,0,0,1,1.5.05,4.84,4.84,0,0,0,1.44.06c.17,0,.49,0,1,0s.95,0,1.5,0,1-.06,1.5-.06.77,0,.95,0l.52-.06c.28,0,.6-.08.95-.11s.63-.09.92-.15l.55,0c.25,0,.66,0,1.24-.06a8,8,0,0,1,1.69,0,6.05,6.05,0,0,1,1.56.26.85.85,0,0,1,.75.75l.43,5.33a.92.92,0,0,1-.43.86,2.87,2.87,0,0,1-1,.37,9.41,9.41,0,0,1-2.54-.08,9.3,9.3,0,0,0-2.59-.09c-.2,0-.49,0-.83,0s-.7.09-1,.14a3.27,3.27,0,0,0-.92.38.84.84,0,0,0-.38.75,38.61,38.61,0,0,1,0,5.27,33.77,33.77,0,0,0,.06,5.33c0,.2,0,.49.06.83a1.41,1.41,0,0,0,.37.84,2.13,2.13,0,0,0,.81.29,8.09,8.09,0,0,0,1.12.08c.38,0,.75,0,1.07,0s.57,0,.75,0,.49,0,.95-.06.95-.09,1.47-.15,1-.11,1.47-.14a6.8,6.8,0,0,1,.95-.06.4.4,0,0,1,.31.23.69.69,0,0,1,.12.35l.43,4.12a2,2,0,0,1-.29,1.15,1.16,1.16,0,0,1-.86.63,9.66,9.66,0,0,1-2.79,0,11.84,11.84,0,0,0-2.86-.08,2.4,2.4,0,0,0-1.27.46,1.68,1.68,0,0,0-.51.86,4.6,4.6,0,0,0-.12,1.16v1.32c0,.12,0,.43-.06.92a15.44,15.44,0,0,1-.17,1.56c-.06.55-.11,1.06-.17,1.52a5.46,5.46,0,0,1-.12.9c.09.06.12.17.06.37a.64.64,0,0,0,.06.49,4.08,4.08,0,0,0,.11.92.64.64,0,0,0,.69.55h7.38a7.52,7.52,0,0,1,1.84.2c.55.12.92.61,1.15,1.39a4.7,4.7,0,0,0,.09.6c.06.32.12.66.2,1.07s.12.8.21,1.21a6.17,6.17,0,0,0,.17.92v.37c.08.61-.06.92-.43,1s-.81.17-1.27.26a29.71,29.71,0,0,1-5.33.14c-1.79-.08-3.54-.17-5.33-.23a3.52,3.52,0,0,0-.95,0l-.89.09c-.18,0-.49,0-.93,0l-1.38.08-1.35.09Z"/><path class="cls-1" d="M187.41,38.35A2.37,2.37,0,0,1,189,36.79a7.64,7.64,0,0,1,2.79-.2,28.53,28.53,0,0,1,3.6.61c1.33.28,2.71.57,4.15.83a4,4,0,0,0,1.56-.43,5.64,5.64,0,0,0,1.23-1,9.63,9.63,0,0,0,1.07-1.35c.34-.52.69-1,1.06-1.53a.68.68,0,0,0,.12-.29,2.12,2.12,0,0,0,.06-.29l-.26-3.74a6.8,6.8,0,0,1-.81-.64c-.43-.37-.78-.66-1-.89a3.38,3.38,0,0,0-.5-.34,1.37,1.37,0,0,0-.45-.23,34.1,34.1,0,0,0-4.15-1.53,25.39,25.39,0,0,1-3.6-1.36,10.16,10.16,0,0,1-3.06-2.16,11.27,11.27,0,0,1-2.36-3.88,4.79,4.79,0,0,0,0-.58c0-.26-.06-.52-.08-.78s-.09-.52-.09-.75a3.22,3.22,0,0,1,0-.46c0-.6-.09-1.21-.17-1.9a4.14,4.14,0,0,1,.23-1.9c.06-.2.14-.49.29-.95s.28-.89.43-1.36.31-.92.49-1.32.23-.72.28-.89V7.18a9,9,0,0,1,.7-.89c.2-.2.4-.44.6-.67s.35-.4.46-.54a17.47,17.47,0,0,1,4.15-3.55,12.89,12.89,0,0,1,5-1.52,12.2,12.2,0,0,1,2.42.2,20.36,20.36,0,0,1,3.17.78,11.41,11.41,0,0,1,2.79,1.29A2.31,2.31,0,0,1,210.37,4a7,7,0,0,1-.06,1.53,14.28,14.28,0,0,1-.4,1.9,6.72,6.72,0,0,1-.75,1.67,1.47,1.47,0,0,1-1.12.78,19,19,0,0,1-3.29,0,20.69,20.69,0,0,0-3.34,0,12.76,12.76,0,0,0-1.29.11,10.8,10.8,0,0,1-1.3.12,2.92,2.92,0,0,1-.61.29,5.7,5.7,0,0,0-.83.4,5.26,5.26,0,0,0-.69.49.7.7,0,0,0-.29.52l.32,3.8a.86.86,0,0,0,.4.61c.26.2.58.37.89.57a8.82,8.82,0,0,0,1,.52c.35.14.58.23.69.29,1.7.81,3.23,1.55,4.64,2.27a15.27,15.27,0,0,1,3.6,2.54,11.79,11.79,0,0,1,2.45,3.46,15,15,0,0,1,1.18,5,15.49,15.49,0,0,1-.34,5.13,13.87,13.87,0,0,1-2,4.52,11.39,11.39,0,0,1-3.46,3.31,10.48,10.48,0,0,1-4.75,1.59,21.57,21.57,0,0,1-4.55,0,14.24,14.24,0,0,1-4.3-1A8.57,8.57,0,0,1,189,42.24,6.33,6.33,0,0,1,187.41,38.35Z"/><path class="cls-1" d="M246.81,47.42a66,66,0,0,1-.6-8.15c0-2.68,0-5.39,0-8.07Q246,24,245.69,16.86c-.23-4.75-.55-9.56-1-14.4a1.87,1.87,0,0,1,.4-.67,1.75,1.75,0,0,1,.78-.4h.26c2.88.09,5.5.29,7.92.6a18.47,18.47,0,0,1,6.31,1.82,12,12,0,0,1,4.44,3.89,15.2,15.2,0,0,1,2.3,6.62,16.92,16.92,0,0,1,0,4.15,13.09,13.09,0,0,1-1.21,4.24,10.26,10.26,0,0,1-2.68,3.45,7.63,7.63,0,0,1-4.38,1.7,8.86,8.86,0,0,1-2.47-.08c-.81-.15-1.62-.26-2.42-.35a1.07,1.07,0,0,0-.67.49,1.61,1.61,0,0,0-.17.78c0,.2,0,.6,0,1.15s0,1.12.06,1.7,0,1.18.06,1.7,0,.92.08,1.15,0,.32,0,.69a3.74,3.74,0,0,0,.09.69l.11,11.53a6.14,6.14,0,0,0-.23.92.85.85,0,0,1-.6.72c-.18,0-.52,0-1,.06a3.47,3.47,0,0,0-1,.14,9.55,9.55,0,0,1-1.53.14,3.81,3.81,0,0,1-1.21-.11,1.81,1.81,0,0,1-.86-.58A4.29,4.29,0,0,1,246.81,47.42Zm7.92-29.73a2.71,2.71,0,0,0,.52,1.36c.26.31.75.43,1.53.34a1.85,1.85,0,0,0,1.35-.63,4.07,4.07,0,0,0,.72-1.33,4.51,4.51,0,0,0,.26-1.55c0-.52,0-1-.05-1.35a12.52,12.52,0,0,0-.35-1.59,16.29,16.29,0,0,0-.75-2.27,7,7,0,0,0-1.21-2A1.76,1.76,0,0,0,255.14,8c-.18,0-.29.23-.38.69a13.63,13.63,0,0,0-.17,1.73c0,.69,0,1.46,0,2.27s0,1.59,0,2.28.06,1.29.09,1.81S254.73,17.61,254.73,17.69Z"/><path class="cls-1" d="M291.35,50a26.73,26.73,0,0,1-1.9-3c-.47-.86-1-1.81-1.59-2.82a4.27,4.27,0,0,0-.43-.55l-.61-.72a4.74,4.74,0,0,1-.46-.72.82.82,0,0,1-.06-.66c-.51-.72-1-1.47-1.49-2.22l-1.41-2.22h-.12a.17.17,0,0,1-.11-.06c-.38-.08-.52.09-.44.52s.09,1.18.12,2.28.08,2.27.14,3.51.12,2.42.2,3.54.12,1.91.15,2.31l.06.2c-.09.12-.21.29-.38.49s-.29.26-.32.23l-6.45.43a1,1,0,0,1-.95-.46,2.14,2.14,0,0,1-.43-1c0-.05,0-.08,0-.08a.22.22,0,0,0,0-.15v-.2s0-.14.05-.34.09-.41.12-.61.09-.4.11-.58.06-.28.06-.31,0-.41-.08-.87-.12-.92-.18-1.38-.08-1-.11-1.35-.06-.69-.06-.84V40.83c0-.84,0-1.7,0-2.63s0-1.81-.06-2.62,0-1.35,0-1.55,0-.61-.06-1.16-.09-1.15-.12-1.78-.08-1.21-.11-1.79-.06-.92-.06-1.15a2.12,2.12,0,0,0,.06-.58V27c.11-3.69.14-7.32.05-10.89s-.2-7.2-.31-10.83c0-.12,0-.38,0-.69s-.06-.69-.09-1.1S274,2.74,274,2.37s0-.61,0-.72.2-.4.34-.43a2.53,2.53,0,0,1,.46-.06c1.7-.12,3.35-.2,5-.23a17.32,17.32,0,0,1,4.52.49,10.18,10.18,0,0,1,3.83,1.81,9.34,9.34,0,0,1,2.85,3.6c.55,1.1,1.1,2.16,1.65,3.2a8.62,8.62,0,0,1,.95,3.4,13.88,13.88,0,0,1-1.3,7.06,19.64,19.64,0,0,1-4.41,5.93,1,1,0,0,0-.26.69,2.6,2.6,0,0,0,.49,1.07,1.34,1.34,0,0,1,.23,1.09l2.6,5.19v.2l2.59,4.18a6.87,6.87,0,0,0,.55,1c.34.67.77,1.39,1.23,2.22s.9,1.65,1.27,2.48a6.37,6.37,0,0,1,.64,1.87,2,2,0,0,1-.41,1.27A6.12,6.12,0,0,1,295.55,49a10.44,10.44,0,0,1-1.47,1,3.08,3.08,0,0,1-1.32.4A1.37,1.37,0,0,1,291.35,50ZM280.72,19.85c.17.21.29.38.4.49a1,1,0,0,0,.55.23,3.28,3.28,0,0,0,2-.95,5.61,5.61,0,0,0,1.21-1.84,7.91,7.91,0,0,0,.55-2.19,16.25,16.25,0,0,0,.11-2,7.28,7.28,0,0,0-.31-1.55,10.53,10.53,0,0,0-.69-1.76A3.94,3.94,0,0,0,283.45,9a2.31,2.31,0,0,0-1.61-.49,1.25,1.25,0,0,0-1,.69,4,4,0,0,0-.46,1.47,9.83,9.83,0,0,0-.11,1.61v1.12c0,.06,0,.2,0,.44s0,.54.06.89,0,.69.06,1,.06.63.09.86,0,.35,0,.63a9.73,9.73,0,0,1,.06,1c0,.38,0,.69.06,1S280.72,19.74,280.72,19.85Z"/><path class="cls-1" d="M322.08,49.06a1.25,1.25,0,0,1-.86-.69,4.35,4.35,0,0,1-.43-1.21c-.12-.43-.2-.8-.26-1.12s-.17-.46-.35-.46a2.52,2.52,0,0,0-1,.57c-.4.35-.86.72-1.35,1.16a13.9,13.9,0,0,1-1.7,1.21,4.3,4.3,0,0,1-2,.63,8.16,8.16,0,0,1-2.51-.11,6.63,6.63,0,0,1-2.24-.9,10.6,10.6,0,0,1-3.57-3.28,16,16,0,0,1-2-4.26,24.25,24.25,0,0,1-1-4.82c-.2-1.67-.37-3.28-.55-4.83a57.81,57.81,0,0,1-.17-8.82c.2-2.91.38-5.88.61-8.87v-.61c0-.31,0-.66,0-1s.06-.69.06-1V10c0-.66.06-1.27.06-1.78a3,3,0,0,1,.26-1.3A2.34,2.34,0,0,1,304,6a5.28,5.28,0,0,1,1.87-.58,3.38,3.38,0,0,1,.93,0,10.77,10.77,0,0,1,1.26.29,8.62,8.62,0,0,1,1.27.43,2.08,2.08,0,0,1,.81.52,4.17,4.17,0,0,0,.06.43c0,.2,0,.38,0,.43a18.65,18.65,0,0,1,.06,2.91,27,27,0,0,1-.26,3.08c-.11,1-.26,2-.34,3.09s-.18,2-.23,2.91a35.88,35.88,0,0,0,.05,5.59c.18,1.81.35,3.68.58,5.58a37.54,37.54,0,0,0,.55,3.83,5.56,5.56,0,0,0,1.93,3.26,6.19,6.19,0,0,0,.69.58c.37.28.6.49.69.57l.23.06a1.3,1.3,0,0,0,.23.06h.17a3.42,3.42,0,0,1,.52-.26,1,1,0,0,0,.52-.52,23.94,23.94,0,0,0,1.82-5.13,31.61,31.61,0,0,0,.69-5,50.77,50.77,0,0,0,.08-5.1c0-1.73,0-3.51,0-5.38v-.38a6.53,6.53,0,0,1,0-.75c0-.29,0-.55.06-.78a4.25,4.25,0,0,0,0-.57s0-.2.06-.49.08-.64.11-1,.09-.66.12-1,0-.46,0-.55a24.1,24.1,0,0,0-.08-2.91,6.41,6.41,0,0,1,0-2.16,2.09,2.09,0,0,1,1-1.41,6.4,6.4,0,0,1,2.9-.72c.26,0,.61-.09,1-.12a6.46,6.46,0,0,1,1.24,0,3.76,3.76,0,0,1,1.15.25,1.45,1.45,0,0,1,.78.81,7.53,7.53,0,0,0,.12,1.12,7.57,7.57,0,0,0,.2,1,34,34,0,0,1,.08,6c-.14,1.93-.26,3.92-.34,6a11,11,0,0,0,.06,2,7.75,7.75,0,0,1-.06,2.1c.29,1.93.49,3.89.6,5.79s.18,3.86.23,5.79.09,3.89.12,5.82.11,3.89.26,5.82c-.09.34-.2.69-.32,1a.88.88,0,0,1-.75.57,12.8,12.8,0,0,1-2.36.06A7.59,7.59,0,0,0,322.08,49.06Z"/><path class="cls-1" d="M337.24,48.43a4.81,4.81,0,0,1-.52-.4.66.66,0,0,1-.26-.55,29.32,29.32,0,0,1,0-6.14,55.69,55.69,0,0,0,.34-6.16c0-2.54-.08-5.07-.23-7.63s-.31-5.1-.46-7.67-.32-5.1-.4-7.63-.12-5,0-7.55a1.81,1.81,0,0,1,.23-.8.89.89,0,0,1,.66-.52,5.56,5.56,0,0,1,1.5.05,4.68,4.68,0,0,0,1.41.06c.17,0,.49,0,.95,0s1,0,1.5,0,1-.06,1.5-.06.78,0,1,0l.52-.06c.28,0,.6-.08.95-.11s.63-.09.92-.15l.55,0c.26,0,.66,0,1.23-.06a8.14,8.14,0,0,1,1.71,0,6,6,0,0,1,1.55.26.85.85,0,0,1,.75.75L353,9.23a.92.92,0,0,1-.43.86,2.21,2.21,0,0,1-.95.4,9.41,9.41,0,0,1-2.54-.08,9.3,9.3,0,0,0-2.59-.09c-.2,0-.49,0-.83,0s-.7.08-1,.14a3.4,3.4,0,0,0-.92.38.84.84,0,0,0-.38.75,38.61,38.61,0,0,1,0,5.27,33.77,33.77,0,0,0,.06,5.33c0,.2,0,.49.06.83a1.41,1.41,0,0,0,.37.84,2.24,2.24,0,0,0,.78.29,8.09,8.09,0,0,0,1.12.08c.38,0,.75,0,1.07,0s.6,0,.75,0l.95-.05c.46,0,.95-.09,1.47-.15s1-.11,1.47-.14a6.8,6.8,0,0,1,.95-.06.4.4,0,0,1,.31.23.69.69,0,0,1,.12.35l.43,4.12a2,2,0,0,1-.29,1.15,1.16,1.16,0,0,1-.86.63,9.66,9.66,0,0,1-2.79,0,11.84,11.84,0,0,0-2.86-.08,2.33,2.33,0,0,0-1.26.46,1.64,1.64,0,0,0-.52.86,4.56,4.56,0,0,0-.12,1.15V34c0,.11,0,.43-.06.92a13,13,0,0,1-.17,1.56c-.08.54-.11,1.06-.14,1.52a5.65,5.65,0,0,1-.12.9c.09.05.12.17.06.37a.64.64,0,0,0,.06.49,4.08,4.08,0,0,0,.11.92.64.64,0,0,0,.69.55h7.38a7.58,7.58,0,0,1,1.84.2c.55.12.93.61,1.16,1.38a3.92,3.92,0,0,0,.08.61c.06.32.12.66.2,1.07s.12.8.21,1.21a6.17,6.17,0,0,0,.17.92V47c.08.61-.06.92-.44,1s-.8.17-1.26.26a29.71,29.71,0,0,1-5.33.14c-1.79-.08-3.54-.17-5.33-.23a3.52,3.52,0,0,0-1,0l-.89.09c-.18,0-.49,0-.93,0l-1.38.08-1.35.09C337.7,48.43,337.41,48.43,337.24,48.43Z"/><path class="cls-1" d="M365.23,48.57c0-.34-.05-.6-.05-.83a3.93,3.93,0,0,1,.11-.84l-.06-13.25a73.85,73.85,0,0,1-.74-9.79c-.06-3.31-.12-6.57-.26-9.74-.12-1.47-.23-3-.35-4.43a38.7,38.7,0,0,1-.08-4.44,2.78,2.78,0,0,0-.09-.72,1,1,0,0,1,.09-.72,2.46,2.46,0,0,1,1.12-.89,6.16,6.16,0,0,1,1.58-.46,11.21,11.21,0,0,1,1.67-.21c.55,0,1,0,1.41-.08a7.73,7.73,0,0,1,2.86.26,9.51,9.51,0,0,1,2.47,1.12A12.37,12.37,0,0,1,377,5.28a11.83,11.83,0,0,1,1.64,2.16,4.19,4.19,0,0,1,.4,1.18,4.14,4.14,0,0,0,.41,1.09l.43,4.18a3.12,3.12,0,0,0-.12.69c0,.38,0,.64,0,.75a10.21,10.21,0,0,1-.52,2.08,4,4,0,0,0-.26,2,2.28,2.28,0,0,0,.78,1.5c.48.43.89.87,1.23,1.24q.18.18.69.75l.7.75c0,.14,0,.37.28.78s.52.8.84,1.29a10.92,10.92,0,0,1,.83,1.47,2.16,2.16,0,0,1,.29,1.1c0,.11.15.37.29.69s.29.69.43,1.06.26.72.38,1,.17.55.23.66,0,.32.06.81a4.27,4.27,0,0,0,.2,1.12,19.22,19.22,0,0,1-.15,5.48,39.64,39.64,0,0,1-1.35,5.3.54.54,0,0,1,0,.31c0,.12-.09.23-.12.32a16.81,16.81,0,0,1-1.41,2.25,4.4,4.4,0,0,1-2.24,1.5c-.18,0-.44,0-.81,0s-.75.09-1.18.18-.81.11-1.18.14-.64.06-.81.06-.6,0-1,0-.83.09-1.27.12-.8.09-1.12.09-.49,0-.55,0l-.31,0a3.63,3.63,0,0,1-.58,0,4.43,4.43,0,0,1-.63,0c-.2,0-.38,0-.44,0-.54,0-1.12,0-1.75-.09s-1.21-.09-1.82-.09-1.15.09-1.52.12S365.32,49.24,365.23,48.57ZM371,16.43a.33.33,0,0,0,.29.26.93.93,0,0,0,.34,0c.2,0,.35-.14.38-.31a6.93,6.93,0,0,0,.69-2.16,10.83,10.83,0,0,0,0-2.28c0-.2-.09-.46-.15-.72a2.1,2.1,0,0,0-.32-.75,1.64,1.64,0,0,0-.54-.57.91.91,0,0,0-.75-.15l-.23.06a1.3,1.3,0,0,1-.23.06l-.2.37Zm.31,25.86c0,.44.32.72.87.9a3.33,3.33,0,0,0,1.29.2,6,6,0,0,0,2.74-.89,4.17,4.17,0,0,0,1.47-1.7,7,7,0,0,0,.52-2.28,14.3,14.3,0,0,0-.12-2.53,19.24,19.24,0,0,0-1.15-4.84,8.35,8.35,0,0,0-3.11-4,4.84,4.84,0,0,0-.78-.4,1.34,1.34,0,0,0-.86-.09.67.67,0,0,0-.58.32,2.91,2.91,0,0,0-.26.72,4.85,4.85,0,0,0,0,.86v6a3.93,3.93,0,0,1,.11.72c0,.4.06.63.06.72a27.2,27.2,0,0,1-.09,3.16A17.14,17.14,0,0,0,371.31,42.29Z"/><path class="cls-1" d="M411.87,48.06a2.5,2.5,0,0,1-.63-.41,1.19,1.19,0,0,1-.38-.6l-1.52-13.43a.57.57,0,0,0-.23-.43c-.15-.11-.29-.17-.41-.11l-7.34.69,1.21,11.09a6,6,0,0,0,.57,1.87,5.61,5.61,0,0,1,.58,1.82c0,.25,0,.4-.06.46a1.56,1.56,0,0,1-.57.14,1.64,1.64,0,0,0-.35,0,1.26,1.26,0,0,1-.29,0h-.77c-.35,0-.72,0-1.1,0s-.72,0-1,0a5.86,5.86,0,0,1-.6,0,5.24,5.24,0,0,1-1.84-.26,2.33,2.33,0,0,1-1.07-.74,3.35,3.35,0,0,1-.55-1.24c-.11-.49-.2-1-.29-1.67-.2-2.34-.37-4.64-.51-6.95s-.23-4.63-.32-7c0,0,0-.26,0-.69s-.06-.89-.09-1.47-.08-1.09-.11-1.61-.09-1-.12-1.24a20.46,20.46,0,0,1,.23-4.44c.23-1.35.49-2.82.78-4.43a3,3,0,0,1,.15-2.28c.34-.8.63-1.52.86-2.16a3.77,3.77,0,0,0,.14-1,4.09,4.09,0,0,1,.23-1s0-.11.06-.23.09-.14.12-.14a24.77,24.77,0,0,0,1.21-2.56,11.44,11.44,0,0,1,1.41-2.57,10.19,10.19,0,0,1,1.38-1.55,17.53,17.53,0,0,1,1.79-1.5,10.71,10.71,0,0,1,2-1.15,8.17,8.17,0,0,1,2-.58,6.94,6.94,0,0,1,4.44.78,7.24,7.24,0,0,1,2.5,2.71A13.72,13.72,0,0,1,414.75,8a36.28,36.28,0,0,0,1.16,3.72,4.19,4.19,0,0,0,.08.69,10.22,10.22,0,0,1,.15,1.07,7.38,7.38,0,0,0,.17,1,4.4,4.4,0,0,1,.09.67c.28,2.79.46,5.59.54,8.44s.15,5.64.29,8.44a15.41,15.41,0,0,1-.17,2.22,9.14,9.14,0,0,0-.09,2.21c0,.09,0,.32.06.67s.09.74.11,1.18a7.11,7.11,0,0,0,.18,1.18,5.11,5.11,0,0,1,.08.66v2.1c0,.09,0,.32,0,.67s0,.75.06,1.18,0,.8.06,1.18,0,.6,0,.72a6.92,6.92,0,0,1-.12,1.15,1,1,0,0,1-.83.89h-.12l-.4,0L415.7,48c-.11,0-.37,0-.74,0s-.78,0-1.19,0-.77,0-1.15,0S412,48.06,411.87,48.06ZM401.5,25.24a1.19,1.19,0,0,0,.9,1.07,7.23,7.23,0,0,0,1.9.4,17.32,17.32,0,0,0,2.16.06l1.64-.09a4.22,4.22,0,0,0,.52,0,4.22,4.22,0,0,1,.52,0,3,3,0,0,0,.2-.34c0-.12.08-.23.11-.35s0-.66-.05-1.24a17.76,17.76,0,0,1-.09-1.87c0-.66,0-1.29-.06-1.87s0-1,0-1.24a2.12,2.12,0,0,0,.06-.58v-.6l-.63-6.17a3.46,3.46,0,0,0-.32-1,4.58,4.58,0,0,0-.63-1,2.51,2.51,0,0,0-.93-.75,1.88,1.88,0,0,0-1.09-.23,2.11,2.11,0,0,0-.95.32,9.27,9.27,0,0,0-2.59,4.49,27.72,27.72,0,0,0-.58,5.13c0,1,0,2-.06,3A15.72,15.72,0,0,0,401.5,25.24Z"/><path class="cls-1" d="M421.78,38.35a2.37,2.37,0,0,1,1.61-1.56,7.72,7.72,0,0,1,2.8-.2,28.83,28.83,0,0,1,3.6.61c1.32.28,2.71.57,4.15.83a3.88,3.88,0,0,0,1.55-.43,5.46,5.46,0,0,0,1.24-1,9.63,9.63,0,0,0,1.07-1.35c.34-.52.69-1,1.06-1.53a.68.68,0,0,0,.12-.29,2.12,2.12,0,0,0,.06-.29l-.26-3.74a6.8,6.8,0,0,1-.81-.64l-1-.89a3.48,3.48,0,0,0-.48-.34,1.48,1.48,0,0,0-.47-.23,33.39,33.39,0,0,0-4.14-1.53,26,26,0,0,1-3.61-1.36,10.24,10.24,0,0,1-3.05-2.16,11.27,11.27,0,0,1-2.36-3.88,4.79,4.79,0,0,0,0-.58L422.7,17c0-.29-.08-.52-.08-.75a3.22,3.22,0,0,1,0-.46c0-.6-.09-1.21-.17-1.9a4.14,4.14,0,0,1,.23-1.9,5.33,5.33,0,0,1,.26-.92c.11-.43.28-.9.43-1.36s.31-.92.49-1.32.23-.72.29-.89V7.18a10.92,10.92,0,0,1,.69-.89c.2-.2.4-.44.6-.67s.35-.4.46-.54A17.67,17.67,0,0,1,430,1.53a12.89,12.89,0,0,1,5-1.52,12.2,12.2,0,0,1,2.42.2,20.36,20.36,0,0,1,3.17.78,11.67,11.67,0,0,1,2.8,1.29A2.32,2.32,0,0,1,444.71,4a7,7,0,0,1-.06,1.53,14.28,14.28,0,0,1-.4,1.9,6.72,6.72,0,0,1-.75,1.67,1.48,1.48,0,0,1-1.12.78,18.9,18.9,0,0,1-3.28,0,17.51,17.51,0,0,0-3.32,0,11,11,0,0,0-1.29.12c-.67.08-1.1.11-1.3.11a3.21,3.21,0,0,1-.61.29,5.7,5.7,0,0,0-.83.4,5.26,5.26,0,0,0-.69.49.7.7,0,0,0-.29.52l.32,3.8a.84.84,0,0,0,.4.61c.26.2.58.37.89.57a5.77,5.77,0,0,0,1,.52c.35.15.58.23.69.29,1.7.81,3.23,1.56,4.64,2.28a15.24,15.24,0,0,1,3.6,2.53,11.79,11.79,0,0,1,2.45,3.46,15,15,0,0,1,1.18,5,15.23,15.23,0,0,1-.34,5.13,13.78,13.78,0,0,1-2,4.52,11.39,11.39,0,0,1-3.46,3.31,10.36,10.36,0,0,1-4.75,1.59,22.25,22.25,0,0,1-4.55.06,14.87,14.87,0,0,1-4.3-.95,8.71,8.71,0,0,1-3.25-2.25A6.15,6.15,0,0,1,421.78,38.35Z"/></g></g></svg>