<svg xmlns="http://www.w3.org/2000/svg" viewBox="0 0 193.39 188.01"><defs><style>.cls-1{fill:#3f3c29;fill-opacity:0.38;}.cls-2{fill:#219959;}.cls-2,.cls-4,.cls-5{fill-rule:evenodd;}.cls-3,.cls-5{fill:#814114;}.cls-4{fill:#1b8a4f;}.cls-6{fill:#a85318;}.cls-7{fill:#2fac66;}</style></defs><title>arboles</title><g id="Layer_2" data-name="Layer 2"><g id="Layer_1-2" data-name="Layer 1"><path class="cls-1" d="M111.69,176.3c1-.1-.5-.3.7-.1A.82.82,0,0,1,111.69,176.3Z"/><path class="cls-1" d="M110.39,176.4c-.2-.2-.9-.2-.4-.5C110.19,176.1,110.49,176.2,110.39,176.4Z"/><path class="cls-1" d="M91.59,175.7c0,.1-.3-.1-.3-.1.2,0,.4-.2.6-.1C91.59,175.5,91.69,175.6,91.59,175.7Z"/><path class="cls-1" d="M86.69,175.9a3.23,3.23,0,0,1,1.7-.4Z"/><path class="cls-1" d="M82.19,175.6c-.4-.1-.3-.2.2-.2C82.49,175.5,82.29,175.5,82.19,175.6Z"/><path class="cls-1" d="M81.89,176a1.72,1.72,0,0,1-.8-.1C81.19,176,82,175.7,81.89,176Z"/><path class="cls-1" d="M72.19,176.3c-.2,0-.7.2-1,0C71.49,176.4,72.39,176.1,72.19,176.3Z"/><path class="cls-1" d="M67.69,176.9h-.4c-.3-.1,0-.2.2-.2Z"/><path class="cls-1" d="M76.69,184.2l-.5.1.1-.2Z"/><path class="cls-1" d="M108.09,178.6c-.5,0-.3-.2-.4-.2C108.19,178.4,107.49,178.5,108.09,178.6Z"/><path class="cls-1" d="M88.59,177.8h.2l-.1.3Z"/><path class="cls-1" d="M148.39,187.9c1-.1-.5-.3.6-.1C148.89,188,148.69,188.1,148.39,187.9Z"/><path class="cls-1" d="M147.29,188c-.2-.2-.9-.3-.3-.6C147,187.6,147.29,187.8,147.29,188Z"/><path class="cls-1" d="M129.49,184.6c0,.1-.2-.1-.3-.1.2,0,.4-.1.6,0C129.59,184.4,129.59,184.5,129.49,184.6Z"/><path class="cls-1" d="M124.89,184.1c.1-.2,1.1-.2,1.7-.2Z"/><path class="cls-1" d="M120.79,182.9c-.4-.2-.2-.3.3-.2C121,182.8,120.89,182.8,120.79,182.9Z"/><path class="cls-1" d="M120.39,183.3a.78.78,0,0,1-.7-.3C119.69,183.2,120.59,183,120.39,183.3Z"/><path class="cls-1" d="M111.19,181.9a1.48,1.48,0,0,1-.9-.1C110.49,182,111.29,181.7,111.19,181.9Z"/><path class="cls-1" d="M106.79,181.9c-.1,0-.2-.1-.4,0-.3-.1,0-.2.2-.2Z"/><path class="cls-1" d="M128.19,181.8l-.5.1.1-.2Z"/><path class="cls-1" d="M147.49,183.2c-.5.1-.3-.2-.4-.2C147.49,183,147,183.2,147.49,183.2Z"/><path class="cls-1" d="M129,184.6h.1v.4Z"/><path class="cls-1" d="M187,186.8c1-.1-.5-.3.6-.1C187.49,186.8,187.39,186.9,187,186.8Z"/><path class="cls-1" d="M185.89,186.8c-.2-.2-.9-.3-.3-.5C185.59,186.5,186,186.7,185.89,186.8Z"/><path class="cls-1" d="M168.09,184.1c0,.1-.3-.1-.3-.1.2,0,.4-.1.6,0C168.19,183.9,168.19,184,168.09,184.1Z"/><path class="cls-1" d="M163.49,183.7a5.67,5.67,0,0,1,1.6-.2Z"/><path class="cls-1" d="M159.29,182.7c-.4-.2-.3-.2.2-.2C159.59,182.6,159.39,182.6,159.29,182.7Z"/><path class="cls-1" d="M159,183a1.17,1.17,0,0,1-.7-.2C158.29,182.9,159.09,182.8,159,183Z"/><path class="cls-1" d="M149.79,181.9a1.48,1.48,0,0,1-.9-.1C149.09,182,149.89,181.7,149.79,181.9Z"/><path class="cls-1" d="M145.39,181.9c-.1,0-.2-.1-.4,0-.3-.1,0-.2.2-.2Z"/><path class="cls-1" d="M166.79,181.3l-.5.1.1-.2Z"/><path class="cls-1" d="M186.29,182.5c-.5.1-.3-.1-.4-.1C186.29,182.3,185.69,182.5,186.29,182.5Z"/><path class="cls-1" d="M167.89,184.1h.1v.3Z"/><path class="cls-1" d="M165.79,178.8c1-.1-.5-.3.6-.1A.56.56,0,0,1,165.79,178.8Z"/><path class="cls-1" d="M164.59,178.8c-.2-.2-.9-.3-.3-.6C164.39,178.5,164.69,178.7,164.59,178.8Z"/><path class="cls-1" d="M146.89,175.3c0,.1-.2-.1-.3-.1.2,0,.4-.1.6,0C147,175.1,147,175.2,146.89,175.3Z"/><path class="cls-1" d="M142.29,174.6c.1-.2,1.1-.2,1.7-.2Z"/><path class="cls-1" d="M138.19,173.4c-.3-.2-.2-.3.3-.2C138.39,173.3,138.29,173.3,138.19,173.4Z"/><path class="cls-1" d="M137.79,173.8c-.4,0-.5-.2-.7-.3C137.09,173.7,138,173.5,137.79,173.8Z"/><path class="cls-1" d="M128.49,172.3a1.48,1.48,0,0,1-.9-.1C127.89,172.4,128.69,172.1,128.49,172.3Z"/><path class="cls-1" d="M124.09,172.3h-.4c-.3-.1,0-.2.2-.2Z"/><path class="cls-1" d="M145.69,174.1l-.5.1.1-.2Z"/><path class="cls-1" d="M164.89,173.2c-.4.2-.3-.1-.4-.1C164.89,173,164.29,173.3,164.89,173.2Z"/><path class="cls-1" d="M146.49,175.6h.1v.4Z"/><path class="cls-2" d="M110.09,142.5s-.6-1.3-8.2,0c-28.2,5-49.7-8.1-46.6-8.6,16.9-2.6,30.3-6.2,28.3-7.5s-28.5-3.5-23.5-4.2c6.8-.9,26.1-9.2,23.9-9.8-2.4-.6-24.9-1.4-20.5-3.2C79.59,102.9,86,96.4,84,97s-18.3,2.6-15.3.5c9.9-7,18.3-20.3,18.3-20.3s-9.5,2.8-12.9,3.6-1.4-1,5-6.6a77.42,77.42,0,0,0,11.4-12.9,57.35,57.35,0,0,0-7,0c-5.1.2-4.6.9,0-4.4S100,40.1,97.59,39.2s-14.6,6.5-12.3,4c6.4-6.9,21.9-34.7,22.6-32.8s7.6,19.6,12.3,25.8,14,11.5,9.5,11.2-12.5-4.1-12.5-4.1,4.2,11.6,7.3,14.4,6.6,5.9,2.1,5.6-12.5-4-10.4-1.2,17.6,14,14.7,14.5-13-2.2-13-2.2,9,12.6,11.8,14.4,6.3,3.6,3.2,4.1-12.7-1.8-12.7-1.8,7.3,12.6,17.2,18.4c1.2.7-8.3.9-12.9,0s-6.3-1.9-5.9,0,17,9.1,23.6,13.1c4.6,2.8-20.5-.7-22.1,0s14.5,12.8,28.9,14.2c4.3.4-7.5,3.7-16.2,5.6S110.09,142.5,110.09,142.5Z"/><path class="cls-3" d="M97.19,131.7c-.1-7.2.5-21.4.5-21.4l-11-10.6,1.4-1.8s1.2.3,4.1,2.5a76.75,76.75,0,0,0,6.7,4.4s.2-12.4.4-15.2c.4-5.3-1.4-6.9-1.4-6.9s-1.7-1.2-4-2.8-4.2-3.1-4.2-3.1l1.8-1.9a43.19,43.19,0,0,1,4.6,2.5,3.63,3.63,0,0,0,3.6.2s0-1.5.2-6.1c.2-4.2.8-9.5.1-11.8s-5.3-9.3-5.3-9.3l1.2-2.2a10.3,10.3,0,0,1,2.3,2.3c1.1,1.6,4.3,5.5,4.3,5.5s1.3-3,3-6c2-3.7.9-4.2,3.1-3.6s1.6.9.5,3.9a66.17,66.17,0,0,1-2.6,6.5c-.7,1.5-.2,22.6-.2,22.6s-.2,13.9.4,14.1c2.6.9,9.9-.7,9.9-.7l-.1,2.1-10.1,3.2-.2,23.7a16.88,16.88,0,0,0,5.3-1c1.9-.9,2.2-.6,2.2-.6l.8,1.9a11.74,11.74,0,0,1-4,2.1c-1.3.3-3.3.8-4.3,1l1.2,47-11-.4C96.39,171.5,97.29,138.6,97.19,131.7Z"/><path class="cls-4" d="M28.89,147.5c-4.6,0-21.7-6.4-26.6-19.9s-.9-42.8,2.3-55.1S28.79,0,28.79,0s6.5,13.8,11.9,23.1,21.6,46.7,24.7,60.7,3.2,39.2-4.9,50C50.39,147.5,42.39,144.9,28.89,147.5Z"/><path class="cls-5" d="M30.19,180.7s.2-17.3.2-24.4,1.2-21.1-.2-22.1-4.3-1.7-7.8-3.2A39.22,39.22,0,0,0,12,128.7a32.79,32.79,0,0,1-3.3-.3l.7-3.1a8.7,8.7,0,0,1,2.9,0c2.4.2,3.1.3,4.3.4,2.3.2,3.6,1.3,3.6,0s-.5-6.5.7-6a19.35,19.35,0,0,0,1.9.7,23.08,23.08,0,0,1,.9,3.8,13.16,13.16,0,0,1,.1,2.7,36.86,36.86,0,0,0,4.5,1.3c1.4.3,1.9.1,2-3,0-4.2,1-14.6.2-17.3a6.35,6.35,0,0,0-4.4-4.8,60.37,60.37,0,0,1-7.3-2.4,10.14,10.14,0,0,0-4.1-1.2l.2-2.3a45,45,0,0,1,4.5,1c1.1.4,5.2,1.7,5.2,1.7a49.76,49.76,0,0,1-2-5.6c0-.7-.2-3.5-.2-3.5h1.8l.6,3h3.6l.7,1.1-2.9,1.3,1.6,3.7,3.2,1.3s-.5-12.6-1-16.7l-.5-4.1s-3.1-1.7-4.8-2.4-5.9-1.9-5.9-1.9l.1-2.2,5.7,1.8a12.76,12.76,0,0,1-1.5-2.2c-.7-1.3-.1-1.3-.1-1.3l1.7-.5,4.7,5.9s-.2-16.8-.5-18.4-6.2-6.1-6.2-6.1l.9-1.3,1.3.5c2.6,1.4,4.3,3.2,5,3.5s6.4-11.4,7.6-12.1l1.2-.7c2.4,1.2,1.9,2.7,1.9,2.7a20.23,20.23,0,0,0-3.2,3.8c-1.4,2.1-1.9,2.9-1.9,2.9l3.9,3.4-.7,1.1s-3.2-3.1-4.1-2.9c-.6.1-1.1,5.1-1.1,5.1s2.1,11.6,2.1,14.8.9,7,1.9,7.8a2,2,0,0,0,2.2,0l-1.5-4.2h2.5l2.1,4.2s6.2-3,7.6-3.7S54,80.7,54,80.7s-1,.4-2.9,1-6.7,1.9-8.8,2.8-4.8,2.6-4.8,3.6c0,1.7,1,16.1,1.3,19.9s.1,11.5.1,11.5,3.3-2.2,5.9-3.8,6.4-3.9,6.4-3.9l1,1.6-3.8,3.6a8,8,0,0,0,1.4,2.3l.7.6-1.4,1.7a23.27,23.27,0,0,1-2.3-2.3l-.6-.9-6.9,6.8,2.1,55.3-11.2.2Z"/><path class="cls-4" d="M137.59,152.4s.6-1.3,8.3,0c28.6,5,50.3-8.2,47.2-8.7-17.1-2.6-30.7-6.3-28.7-7.6s28.8-3.6,23.8-4.3c-6.9-.9-26.5-9.3-24.2-9.9s25.3-1.5,20.8-3.2c-16.3-6.4-22.7-13-20.7-12.3s18.5,2.6,15.5.5c-10.1-7.1-18.5-20.6-18.5-20.6s9.7,2.9,13.1,3.7,1.4-1.1-5.1-6.6a76.87,76.87,0,0,1-11.5-13.1,58.74,58.74,0,0,1,7.1,0c5.2.2,4.7.9,0-4.5s-16.7-17-14.3-17.9,14.8,6.6,12.5,4.1c-6.5-6.9-22.2-35.1-22.9-33.2s-7.7,19.8-12.5,26.1-14.2,11.6-9.7,11.3,12.6-4.2,12.6-4.2-4.2,11.7-7.4,14.6-6.7,6-2.1,5.7,12.7-4.1,10.6-1.3-17.8,14.2-14.9,14.7,13.1-2.2,13.1-2.2-9.1,12.7-11.9,14.6-6.4,3.6-3.2,4.2,12.9-1.8,12.9-1.8-7.4,12.7-17.4,18.6c-1.2.7,8.4.9,13,0s6.3-1.9,6,0-17.2,9.2-23.9,13.3c-4.6,2.8,20.8-.7,22.4,0,1.8.8-14.7,13-29.3,14.4-4.4.4,7.6,3.7,16.4,5.6S137.59,152.4,137.59,152.4Z"/><path class="cls-6" d="M150.69,141.5c.1-7.3-.5-21.6-.5-21.6l11.1-10.8-1.5-1.8s-1.2.3-4.2,2.5-6.8,4.5-6.8,4.5-.2-12.5-.4-15.4c-.4-5.4,1.5-7,1.5-7s1.7-1.2,4-2.9,4.2-3.2,4.2-3.2l-1.8-2a43.19,43.19,0,0,0-4.6,2.5,3.84,3.84,0,0,1-3.7.2s0-1.5-.2-6.2c-.2-4.3-.8-9.7-.1-12s5.4-9.4,5.4-9.4l-1.2-2.2a10.3,10.3,0,0,0-2.3,2.3c-1.1,1.6-4.3,5.6-4.3,5.6s-1.4-3.1-3-6.1c-2-3.7-.9-4.2-3.1-3.7-2.4.6-1.7,1-.6,3.9a60.45,60.45,0,0,0,2.6,6.6c.7,1.5.2,22.9.2,22.9s.2,14-.4,14.3c-2.6,1-10-.7-10-.7l.1,2.1,10.2,3.2.2,24a17.33,17.33,0,0,1-5.4-1c-1.9-.9-2.2-.6-2.2-.6l-.8,1.9a13,13,0,0,0,4,2.1c1.3.3,3.3.8,4.4,1.1l-1.3,47.6,11.2-.4C151.49,181.9,150.59,148.6,150.69,141.5Z"/><path class="cls-7" d="M85,51.3c-5.9-.2-17.6,1.8-27,8.4-11.1,7.8-14.2,12.9-17.1,26s1.2,23.4,7.2,32.3,9.9,18.2,37.2,22.7c15.5,2.5,40.6-7.3,45.2-27.7s-.9-34.6-6.1-39.9S110.79,52.2,85,51.3Z"/><path class="cls-6" d="M51.49,90.1l7,3.9s3.5.7,5.3,1,5.9,1.2,5.9,1.2l1.5-7.7h1.6s-1,7.9,0,8.4a66.35,66.35,0,0,0,9.1,2.9c.7-7.2,1.5-15.1,1.5-16s-2.5-2.5-4.5-3.4-6.5-2-8.3-2.6l-2.7-.9s2-3.2,3.4-2.6,7.2,3.5,7.2,3.5l2-4h2.3l-1.4,4a1.79,1.79,0,0,0,2.1,0c.9-.8,1.8-4.4,1.8-7.4V66.1c-.8-.2-4.3,1.5-4.3,1.5l-.7-1,4.2-2.6s-1-1.3-2.3-3.3-1.2-1.9,1-3.1c0,0,1.4,2.2,2.6,4,.7,1.1,2.8,5,3.5,5.1s1,0,3-.7l1.9-.5.8,1.6s-4.5,1.2-4.7,2.7-.5,12.8-.5,12.8l4.4-5.5,1.6.5s.6,0-.1,1.2a12.43,12.43,0,0,1-1.4,2.1l5.4-1.7.1,2.1s-4,1.1-5.6,1.8-4.5,2.2-4.5,2.2l-.4,3.8c-.5,3.8-.9,15.7-.9,15.7l5.7-2.1,1.5-3.5L92.89,98l.7-1H97l2.7-4,1.7.8s-2.4,3-2.4,3.6a49.37,49.37,0,0,1-1.9,5.2s3.8-1.2,4.8-1.6S116,97.6,116,97.6l.2,3.1s-8.3,2.9-10.6,4c-.1,0-.2.1-.3.2.2.1.4.3.6.4a17.68,17.68,0,0,0,4.9,2.7l-1.1,2.7s-5.2-3.2-7.6-4.7c-1.4.4-5.7,2.1-6.4,2.3-2,.7-6.1,2.4-6.8,4.9s.2,10.1.2,14c0,2.8.5,3.1,1.8,2.8a38.87,38.87,0,0,0,4.2-1.2,12.26,12.26,0,0,1,.1-2.6,16.34,16.34,0,0,1,.8-3.6l1.8-.7a15.06,15.06,0,0,1,.3,4.3c0,1.2,3,.6,4.4-.2a56.28,56.28,0,0,1,6.5-3c2.1-.7,5-1.5,5-1.5l1.1,2.6a55,55,0,0,0-7.6,3.4c-.3.2-.6.3-.9.5l4,.9-1,1.8a20.05,20.05,0,0,1-2.5-.5,30.1,30.1,0,0,0-3.4-.8c-2.6,1.2-4.7,1.9-7.3,3.1-3.2,1.5-6,2-7.3,3s-.2,28.6-.2,35.3.2,13.8.2,13.8H78.79l2-57.3-8.3-7.3-.6.8a19.52,19.52,0,0,1-2.1,2.1l-1.3-1.6.7-.5a6,6,0,0,0,1.3-2.2l-3.6-3.4.9-1.5s3.6,2.1,6,3.7c.1.1.2.1.3.2v-7s-.5-1.5,0-1.7a2.63,2.63,0,0,1,1.3,0s.3,1.4.6,3c.2,1.2.7,5.6.9,7.5l4.2,2.6s-.1-7.2.1-10.8c.1-.9.3-3,.5-5.6-3.9-1.2-10.1-3.6-13.6-4.5-4.5-1.2-5.5-2.3-6.9-1.6s-1.3,7-1.8,7.7l-1.9-.7v-4.2h-4.1l-.7-1.4,4.8-.7V96s-6.4-3.4-6.5-4.1C50.39,90.9,51.49,90.1,51.49,90.1Z"/></g></g></svg>