<svg xmlns="http://www.w3.org/2000/svg" viewBox="0 0 185 344.2"><defs><style>.cls-1{fill:#814114;}.cls-2{fill:#a85318;}.cls-3{fill:#f39200;}.cls-4{fill:#fff;}.cls-5{fill:#fbba00;}.cls-6{fill:#e30613;}.cls-7{fill:#f0eedf;}.cls-10,.cls-11,.cls-8{fill:none;stroke:#dad8cc;stroke-linecap:round;}.cls-8{stroke-width:0.25px;}.cls-9{fill:#c4c0b4;}.cls-10{stroke-width:0.26px;}.cls-11{stroke-width:0.9px;}</style></defs><title>cartel</title><g id="Layer_2" data-name="Layer 2"><g id="Layer_1-2" data-name="Layer 1"><path class="cls-1" d="M102.7,344.2,91,343.3l9.6-221.1,13.4.7Z"/><path class="cls-2" d="M28.4,132.2l-5.9,5.2,155.3,70.5,4.2-7.4,3-60.5Z"/><path class="cls-3" d="M22.5,137.4,20,200.6l157.7,7.3,2-62.1Z"/><path class="cls-4" d="M77.1,165.3a.22.22,0,0,1-.2-.2l.6-12.8a.22.22,0,0,1,.2-.2l4.7.2a3.85,3.85,0,0,1,4,4.1c-.1,2.4-1.8,3.9-4.4,3.8l-3-.1c-.1,0-.1,0-.1.1l-.2,5a.22.22,0,0,1-.2.2Zm7.7-8.9c.1-1.4-.8-2.4-2.5-2.5l-3-.1c-.1,0-.1,0-.1.1l-.2,4.4c0,.1,0,.1.1.1l3,.1A2.19,2.19,0,0,0,84.8,156.4Z"/><path class="cls-4" d="M89.1,152.8a.22.22,0,0,1,.2-.2l1.3.1a.22.22,0,0,1,.2.2l-.5,11.3c0,.1,0,.1.1.1l6.3.3a.22.22,0,0,1,.2.2l-.1,1.2a.22.22,0,0,1-.2.2l-8-.4a.22.22,0,0,1-.2-.2Z"/><path class="cls-4" d="M102.9,153.5a.22.22,0,0,1,.2-.2l1.3.1c.1,0,.2.1.3.2l3.9,13.1c0,.1,0,.2-.1.2l-1.4-.1a.22.22,0,0,1-.2-.2l-.9-2.9-5.3-.2-1.1,2.8c-.1.1-.1.2-.3.2l-1.4-.1c-.1,0-.2-.1-.1-.2Zm2.6,8.5-1.8-6.1h0l-2.4,5.9Z"/><path class="cls-4" d="M112.4,167a.22.22,0,0,1-.2-.2l.3-5.2-3.6-7.8c0-.1,0-.2.2-.2l1.4.1c.1,0,.2.1.3.2l2.7,5.8h0l3.2-5.5c.1-.1.1-.2.3-.2l1.3.1c.2,0,.2.1.2.2l-4.3,7.4-.2,5.2a.22.22,0,0,1-.2.2Z"/><path class="cls-4" d="M122.7,154.4a.22.22,0,0,1,.2-.2l1.3.1a.22.22,0,0,1,.2.2l3.9,13.1c0,.1,0,.2-.1.2l-1.4-.1a.22.22,0,0,1-.2-.2l-.9-2.9-5.3-.3-1.2,2.8c-.1.1-.1.2-.3.2l-1.4-.1c-.1,0-.2-.1-.1-.2Zm2.5,8.5-1.8-6.1h0l-2.4,5.9Z"/><path class="cls-4" d="M46.4,171.6a.22.22,0,0,1,.2-.2l9.5.5a.22.22,0,0,1,.2.2l-.1,1.5a.22.22,0,0,1-.2.2l-7.6-.4c-.1,0-.1,0-.1.1l-.2,4.7c0,.1,0,.1.1.2l6.4.3a.22.22,0,0,1,.2.2l-.1,1.5a.22.22,0,0,1-.2.2l-6.4-.3c-.1,0-.1,0-.1.1l-.2,4.8c0,.1,0,.1.1.1l7.6.4a.22.22,0,0,1,.2.2l-.1,1.5a.22.22,0,0,1-.2.2l-9.5-.5a.22.22,0,0,1-.2-.2Z"/><path class="cls-4" d="M59.5,172.2a.22.22,0,0,1,.2-.2l1.6.1a.22.22,0,0,1,.2.2l-.6,13.6c0,.1,0,.1.1.1l7.6.4a.22.22,0,0,1,.2.2l-.1,1.5a.22.22,0,0,1-.2.2l-9.5-.5a.22.22,0,0,1-.2-.2Z"/><path class="cls-4" d="M77.9,187c-.1-.1-.1-.2,0-.4l1.1-1.2a.19.19,0,0,1,.3,0,6.6,6.6,0,0,0,4.4,1.8c2.2.1,3.6-.9,3.6-2.5.1-1.4-.7-2.3-3.2-2.7l-.8-.2c-3.1-.6-4.6-2.1-4.5-4.6.1-2.8,2.2-4.5,5.4-4.4a8.91,8.91,0,0,1,4.8,1.7.19.19,0,0,1,0,.3l-.9,1.2a.19.19,0,0,1-.3,0,6.82,6.82,0,0,0-3.8-1.4c-1.9-.1-3.1.9-3.1,2.4-.1,1.3.8,2.3,3.2,2.7l.8.2c3.1.6,4.6,2.1,4.5,4.7-.1,2.8-2.2,4.7-6,4.5A8.35,8.35,0,0,1,77.9,187Z"/><path class="cls-4" d="M97.1,173.9c.1-.1.1-.2.3-.2l1.5.1c.2,0,.2.1.3.2l4.7,15.7c0,.1,0,.2-.2.2l-1.6-.1c-.2,0-.2-.1-.3-.2l-1.1-3.5-6.4-.3-1.4,3.4c-.1.2-.2.2-.3.2l-1.6-.1a.22.22,0,0,1-.2-.2Zm3.1,10.3L98,176.9h0L95.1,184Z"/><path class="cls-4" d="M106.2,184.5l.5-10.1a.22.22,0,0,1,.2-.2l1.6.1a.22.22,0,0,1,.2.2l-.5,10.1c-.1,2.6,1.2,3.9,3.4,4s3.6-1.1,3.7-3.7l.5-10.1a.22.22,0,0,1,.2-.2l1.6.1a.22.22,0,0,1,.2.2l-.5,10.1c-.2,3.7-2.4,5.7-5.9,5.5C108.1,190.4,106,188.2,106.2,184.5Z"/><path class="cls-4" d="M120.4,190.7a.22.22,0,0,1-.2-.2l.1-1.5c0-.1,0-.2.1-.2l8.3-11.6h0l-7.3-.3a.22.22,0,0,1-.2-.2l.1-1.5a.22.22,0,0,1,.2-.2l9.5.5a.22.22,0,0,1,.2.2l-.1,1.5c0,.1,0,.2-.1.2L122.7,189h0l7.6.4a.22.22,0,0,1,.2.2l-.1,1.5a.22.22,0,0,1-.2.2Z"/><path class="cls-4" d="M138.3,175.9c.1-.1.1-.2.3-.2l1.5.1c.2,0,.2.1.3.2l4.7,15.7c0,.1,0,.2-.2.2l-1.6-.1c-.2,0-.3-.1-.3-.2l-1.1-3.5-6.4-.3-1.4,3.4c-.1.2-.2.2-.3.2l-1.6-.1a.22.22,0,0,1-.2-.2Zm3.1,10.2-2.2-7.3h0l-2.9,7.1Z"/><path class="cls-4" d="M148.4,176.4a.22.22,0,0,1,.2-.2l1.6.1a.22.22,0,0,1,.2.2l-.6,13.6c0,.1,0,.1.1.1l7.6.4a.22.22,0,0,1,.2.2l-.1,1.5a.22.22,0,0,1-.2.2l-9.5-.5a.22.22,0,0,1-.2-.2Z"/><path class="cls-5" d="M78.3,118.4c-.9,6.1,1,13.7,1.6,19.8.1,1-1.4,1-1.5,0-.7-6.3-2.7-14-1.6-20.2C77,117,78.4,117.5,78.3,118.4Z"/><path class="cls-5" d="M76.7,130.5c-.7,1.2-1.3,2.3-2,3.5-.5.8-2,3-2.2,3.3-.2.7,0,1.7.9,1.1a5,5,0,0,0,1.5-2c1-1.7,2-3.4,3-5.2C78.5,130.4,77.2,129.6,76.7,130.5Z"/><path class="cls-5" d="M77.5,129.9a41.17,41.17,0,0,0-6.9,2.7c-.8.4-.5,1.8.4,1.4a34.08,34.08,0,0,1,6.9-2.7C78.7,131.1,78.4,129.7,77.5,129.9Z"/><path class="cls-5" d="M64.3,117.1a87,87,0,0,0,.4,13.5c.1,1,1.6.7,1.5-.3a82,82,0,0,1-.4-13.1C65.8,116.2,64.3,116.1,64.3,117.1Z"/><path class="cls-5" d="M64.6,129c-1.2.4-5.9,1.5-6.6,1.9-1,.6-.9,1.7,0,1.6a24.37,24.37,0,0,0,2.6-.6c1.5-.4,3-.9,4.5-1.4C66,130.1,65.5,128.7,64.6,129Z"/><path class="cls-5" d="M64.6,129.7c-1,1.6-4.6,5.1-5,5.6,0,.1-.1.1-.1.2-.5.7.5,1.5,1.1,1a27,27,0,0,0,5.3-5.9A.79.79,0,0,0,64.6,129.7Z"/><path class="cls-5" d="M64.9,130.8c0,1.1.2,5.6.4,6.9a.75.75,0,1,0,1.5-.1c-.2-1.5-.1-6.5-.8-7.9C65.5,128.8,64.7,129.7,64.9,130.8Z"/><path class="cls-6" d="M19.7,40.6c4.4,6,7.7,7.3,4.9,15.3,5.2,4,3.5,20.7,5.1,27.1,2.4,8.4,5.2,18,12,24.1,1.2,1.2,10,8,10.8,7.6,3.2-.4,2.8-9.2,3.2-11.6.8-10-.4-20,.4-30.1.8-12.4,18.2-26.5-1.1-38.5.1-4.5,3.9-8.9,9.3-11.6-7.1-.1-12.5,4.3-16.2,8.5,2.4-8.8,10-13.7,18.4-16.9-9.6-1.6-20.9,5.6-25.7,14C46,13.3,60.8,10.1,71.3,0,60.1,6.4,48.5,9.6,40,19.6c-4,4.4-5.6,10-10.4,13.6-2,1.6-11.5,6.5-10.3,7.7"/><path class="cls-7" d="M63.3,43.1c2.6,5,6.5,23,8.6,26.6,8,15.2,23.3,23.2,34.1,36.1-8.8,5.2-14.4,9.6-25.3,12-8,1.6-16,.8-24.1-1.2C41,113,32.6,86.1,39.4,72.1c2-4,6.4-5.6,8.8-9.2s2.4-8.4,4.8-12C54.8,48.1,62.9,42.3,63.3,43.1Z"/><path class="cls-4" d="M53,50.9c1.8-2.8,9.9-8.6,10.3-7.8Z"/><path class="cls-8" d="M98.1,110.6a56.65,56.65,0,0,1-17.4,7.3c-8,1.6-16,.8-24.1-1.2a17.87,17.87,0,0,1-8-4.3"/><path class="cls-8" d="M63.3,43.1c1.3,2.5,2.9,8.2,4.5,13.8"/><path class="cls-9" d="M68.5,58.8c-6,2.4-6.3,19.7-5.1,25.8,2.8,9.6,13.9,15.4,21.8,20,7.6,4.3,14.6,6.9,23,9.7,11.6,4.4,26.9,6.4,39.3,6.4-7.2-4.8-15.6-8-22.4-13.6-6.8-6-32.5-28.9-38.9-35.3C80.3,65.3,75.7,62.8,68.5,58.8Z"/><path class="cls-5" d="M19.8,39.7C13.1,43.9,7.7,46.4,0,51.6c10.4,1.6,15.4,4.1,25.8,5.7C26.6,52.1,24.5,36.7,19.8,39.7Z"/><path class="cls-4" d="M38.4,37.6c-3.5-1-9.3,2.9-7.8,7.8s7.6,6.5,10.3,1.8C44.1,41.6,40.7,38.2,38.4,37.6Z"/><path d="M34.3,44.7a1.2,1.2,0,0,0,0-2.4A1.2,1.2,0,1,0,34.3,44.7Z"/><path class="cls-10" d="M63.1,43.2c1.5,2.9,3.5,9,5.3,15.4"/><path class="cls-11" d="M71.4,78.6a12.76,12.76,0,0,0,5.1,5.2"/><path class="cls-11" d="M85.6,87a18.89,18.89,0,0,0,6,4.6"/><path class="cls-11" d="M71.5,68.1c1.5,2.4,2.6,4.5,5,6.3"/><path class="cls-11" d="M97.7,88.7a16.6,16.6,0,0,0,5.8,5"/><path class="cls-11" d="M77.4,91.2a26.11,26.11,0,0,0,6.7,6.1"/><path class="cls-11" d="M84.1,78.2a13.79,13.79,0,0,0,4.5,4.5"/><path class="cls-11" d="M106.7,109.3a16.23,16.23,0,0,0,6.3,1"/><path class="cls-11" d="M99.5,98.6a14.44,14.44,0,0,0,6,3.5"/><path class="cls-11" d="M91.6,101.2a17,17,0,0,0,8.2,3.8"/><path class="cls-11" d="M119.7,111.4a38,38,0,0,0,7.1,2.2"/><path class="cls-11" d="M111,101.2a29.19,29.19,0,0,0,5.8,4.6"/></g></g></svg>