<svg xmlns="http://www.w3.org/2000/svg" viewBox="0 0 137.82 82.85"><defs><style>.cls-1,.cls-8{fill:none;stroke:#000;stroke-linecap:round;}.cls-1{stroke-width:0.51px;}.cls-2{fill:#814114;}.cls-3{fill:#998d32;}.cls-4{fill:#b1b841;}.cls-5,.cls-6{opacity:0.6;}.cls-6{fill:#dad8cc;isolation:isolate;}.cls-7{fill:#fff;}.cls-8{stroke-width:0.41px;}</style></defs><title>chicharra</title><g id="Layer_2" data-name="Layer 2"><g id="Layer_1-2" data-name="Layer 1"><path class="cls-1" d="M105.06,10.55c-1.1-3.7-.4-8.2,1.4-10.3"/><path class="cls-2" d="M78.46,62.15c0,2.6.1,6.6-.6,8.4-4-1-5.1,1.6-3.2,2.1,3,.8,5.2,1.4,5.6-.7C80.76,69.45,81.56,59,78.46,62.15Z"/><path class="cls-3" d="M97.66,14.05c1.5-4.6,8.8-6.8,14.2-4.1a114.67,114.67,0,0,1,13,7.8c4.3,3.2,9.7,5.5,12.2,10.8,2,4.6-1.6,10.1-5.4,12.9a26.69,26.69,0,0,1-15.2,4.8c-1.2,1.2-2.4,3.5-3.6,4.9-5.1,6.2-14.7,11.9-20.8,13.7a93.57,93.57,0,0,1-12.6,2.5c-4.1.5-12,1.5-16.2.6-6.8-1.5-23.1-6.5-12.3-16,4.3-3.9,14.4-11.7,17.2-13.7,2.2-1.3,16.4-14.3,19.3-16.4C91.46,18.75,95.66,15.75,97.66,14.05Z"/><path class="cls-4" d="M87.36,21.85c.1-.1.2-.1.3-.2,0,.1.1.3.1.4,2,7.5,19.6,19.4,28.1,24.9-1,1.2-2,3-3,4.1a34.85,34.85,0,0,1-5.9,5.5,50.34,50.34,0,0,1-16.5-7,68.59,68.59,0,0,1-16.8-15.9C78.76,29.25,85.56,23.25,87.36,21.85Z"/><path class="cls-4" d="M53.66,49.55c4.4-3.7,10.9-8.7,13.8-10.8v.1c2,7.5,20.6,19.9,28,24.6-1.2.5-2.3.9-3.4,1.3a93.57,93.57,0,0,1-12.6,2.5q-2.1.3-5.1.6a33.74,33.74,0,0,1-4.4-2.6A64.56,64.56,0,0,1,53.66,49.55Z"/><g class="cls-5"><g class="cls-5"><path class="cls-6" d="M25.66,39.55c7-2.5,21-7.6,30.8-11.1,11.3-4.1,24.9-8.5,36.7-10.8,0,3.5,1.4,8.1-4.2,17.4-1.1,1.8-12.1,15.8-20,22.7-1.8,1.6-16.6,14.8-26.5,19.2-12.7,5.5-32.4,8.2-40.9,2.6C-.24,78.35,0,73,1,70.65A10.8,10.8,0,0,1,1,65a10.7,10.7,0,0,1,2.3-3.4c1-1.2.3,0,.7-1.5a9.11,9.11,0,0,1,1.6-4.6c1.5-2.2,2.7-2.1,4.7-3.6C13.06,49.75,17.86,42.35,25.66,39.55Z"/></g></g><path class="cls-7" d="M107.76,11.85c3.8.7,5.5,3.1,6.1,6.4.6,3.7-3.2,6.6-6.3,6.4a7.34,7.34,0,0,1-7-7.9C100.66,13.15,104.56,11,107.76,11.85Z"/><path d="M105.46,17.65a1.28,1.28,0,0,1,1.2,1.1,1,1,0,0,1-1.1,1.1,1.25,1.25,0,0,1-1.2-1.4A.88.88,0,0,1,105.46,17.65Z"/><path class="cls-2" d="M96.76,59.45c1.3-2,2.3-4,4.8-3.3,2,.5,4.2,4,5.3,5.5,1.3,1.7,2.8,4.2,4.1,5.7,2.3,2.7,2.5-1.9,5.1-.5,1,.6-2.8,4.5-4.6,4.3-1.2-.2-3.1-3.3-4.1-4.6-2-3-6-8.2-7-8C99.06,58.85,98.56,60.85,96.76,59.45Z"/><path class="cls-2" d="M89.56,62.55c-5.8-3.1-6.2-.3-5.3,4,.8,4,2.8,9.3,2.6,9.4a5.61,5.61,0,0,0-3.9,1.8c-.6.9.2,2,1.5,1.5,2.8-.9,5.8-.4,4.9-3.4a117.4,117.4,0,0,1-2.9-11.8C86.16,62.85,89.86,65.35,89.56,62.55Z"/><path class="cls-2" d="M107.36,51.25c1.5-8.3,7.4-2.5,10,.8,2.4,3,3.2,4.5,4.7,4.8,1.3.3,4.1-2.8,4.8-.6.5,1.7-3,4.1-4.7,3.6-2-.5-3-2.1-4.1-3.5a45,45,0,0,0-4.6-5.2c-.9-.9-1.7-2-2.9-1.6S108.86,52.75,107.36,51.25Z"/><path class="cls-1" d="M102.46,11c-2.1-3.1-8.5-7.3-11.2-7.8"/><path class="cls-8" d="M25.66,39.55c7-2.5,21-7.6,30.8-11.1,11.3-4.1,24.9-8.5,36.7-10.8,0,3.5,1.4,8.1-4.2,17.4-1.1,1.8-12.1,15.8-20,22.7-1.8,1.6-16.6,14.8-26.5,19.2-12.7,5.5-32.4,8.2-40.9,2.6C-.24,78.35,0,73,1,70.65A10.8,10.8,0,0,1,1,65a10.7,10.7,0,0,1,2.3-3.4c1-1.2.3,0,.7-1.5a9.11,9.11,0,0,1,1.6-4.6c1.5-2.2,2.7-2.1,4.7-3.6C13.06,49.75,17.86,42.35,25.66,39.55Z"/><path class="cls-8" d="M3.46,61.25c3.5.8,17.8.4,20.5-.6,5.3-2.2,27.6-13.9,32.9-17.5,6-4,31-21.2,35.6-25.5"/><path class="cls-8" d="M.86,70.65c5.1,2.3,16.6,1.6,22.1.8A42.53,42.53,0,0,0,37.66,67c4.8-2.5,13.9-6.9,20.9-12.1,9.6-7.1,21.7-16.3,34.6-33.2"/><path class="cls-8" d="M9.36,52.55c11.7-.7,31.6-.7,43,6.2"/><path class="cls-8" d="M25.56,52.25c3.5-1.7,6.8-5.2,9-8.2a24.18,24.18,0,0,0,4.4-9.4"/><path class="cls-8" d="M37.86,53.75a34.48,34.48,0,0,0,8-11.7,77.78,77.78,0,0,0,3.8-11.2"/><path class="cls-8" d="M48.26,35.55c6.1,3.1,12.2,3.7,15.5,3"/><path class="cls-8" d="M62.46,26.25a24.92,24.92,0,0,0,15.2,2.6"/><path class="cls-8" d="M28.16,70.65c3,4,12,5.7,15.7,5.7"/><path class="cls-8" d="M62.46,52.25a26.87,26.87,0,0,0,10,2.2"/><path class="cls-8" d="M22.86,61.25c-1.8,2.3-1.6,7,.1,10.1"/><path class="cls-8" d="M69.86,34.65c0,2.7.7,7.6,3,8.6"/><path class="cls-1" d="M122,40.35a3.38,3.38,0,0,1-3.9,1.8,5,5,0,0,1-3.8-3.3"/><path class="cls-4" d="M128.76,20.25s-.5,12.2,5.2,11.2a7.33,7.33,0,0,0,3.6-1.4,6.21,6.21,0,0,0-1.9-6.5A14.58,14.58,0,0,0,128.76,20.25Z"/></g></g></svg>