<svg xmlns="http://www.w3.org/2000/svg" viewBox="0 0 106.03 126.52"><defs><style>.cls-1{fill:#814114;}.cls-2{fill:#db7a1c;}.cls-3{fill:#f39200;}.cls-4{fill:#a85318;}.cls-5{fill:#fff;}.cls-6,.cls-7{fill:none;stroke-linecap:round;}.cls-6{stroke:#000;stroke-width:0.64px;}.cls-7{stroke:#db7a1c;stroke-width:0.91px;}</style></defs><title>grillo</title><g id="Layer_2" data-name="Layer 2"><g id="Layer_1-2" data-name="Layer 1"><path d="M71,25.5c.6.2.9-1.2,1.3-2-4-7.5-9.8-13.9-17.2-13.3,4.1,1.6,7.2,3.3,10.3,6.9C66.7,18.3,69.6,22.8,71,25.5Z"/><path d="M77.5,20.8C76.8,13.9,73.8,3.4,67.9,0a54.59,54.59,0,0,1,4.9,9.7,56.76,56.76,0,0,1,2.5,12.4C76.2,21.5,77.5,22.1,77.5,20.8Z"/><path class="cls-1" d="M38.6,70.8c-2.8,6.7-3.6,35.6-4,40.7-.5,5.8,0,7-2.4,7.2-4.1.3-6.7,2.7-1.3,2.9,2,.2,4.4.8,6.2-.3.9-6,1.5-15,2.3-23.7.3-3.8.2-19.7,2.6-21.7C47.1,71.4,54.7,88,57.5,91.2c2.3,2.5,6.6,6.1,6.4.4-.1-3.1-3.2-7-4.8-9.4C57.6,80.3,43.3,59.3,38.6,70.8Z"/><path class="cls-1" d="M35.1,103.6a8.63,8.63,0,0,0-2.4,1.1c-.7.6-.9.8-.9.8a9.42,9.42,0,0,1,1.7-.5c.6,0,.5.4.5.4a7.55,7.55,0,0,0-1.5.7,5.27,5.27,0,0,0-1.2,1.5s1.5-.7,2.1-.9.7.3.7.3a7.43,7.43,0,0,0-2.4,1.7,6,6,0,0,0-.8,1.3,5.34,5.34,0,0,1,2.5-1.4c1.6-.4,1.8.1,1.8.1Z"/><path class="cls-1" d="M20.2,95.9c-5.9-1-11.6-2.8-16.3-7.2,2.8,8.9,10.3,9.6,16.5,10.7C16.5,102.6,5,99.9,0,98.2c3.2,4.7,9.6,5.6,12.9,5.6,2.4,0,6.6-.3,8.5-1.9C23.8,99.5,23.6,96.4,20.2,95.9Z"/><path class="cls-1" d="M99.1,52.7c-3.2,2.8-5.5,2.9-8.7,3.9-1.6.5-.9.2-1.4,2.1-.8,3.6-3.3,11.3-4.1,14.9-1.4,6.3-3.1,14.2-6.9,20.1C76,97,67.5,104.2,64,106c-4.8,2.6-14.2,5.2-20.9,4.4-8.1-.9-15-4.5-20.9-9.2a10,10,0,0,1-3.7-5.7c-.7-2.8,4.9-5.5,6.6-6.9,1.9-1.7,10.3-7.1,11.6-8.3,3.6-3.6,15.2-16.8,17.6-20.7s3.7-8.9,5.8-13.1c1.9-3.6,3.3-7.3,5.4-10.7A10.09,10.09,0,0,1,68,32.6c1.2-9.8,5.9-12.4,9.5-13.2,5-1.2,11.8,3.6,16,6.2C104.2,32.4,112,47.7,99.1,52.7Z"/><path class="cls-2" d="M72.3,56.7c-2.4,7.5-11.6,29.5-23.2,37.2-4.7,3.1-10.4,4.5-16.1,5-3.1.3-12.3,1.4-14.9-1.9-2.6-3.9,9.2-10.8,12.1-13.3,5.9-5.6,16.3-13.9,21.1-21.1,6.1-9.3,8.5-16.3,10.2-18.3C63.3,41.9,73.6,52.6,72.3,56.7Z"/><path class="cls-3" d="M89.7,59.5A126.75,126.75,0,0,1,66.6,41c-.7-.6-1.3-1.7-2-2.2-1.5-1.1-.9-.9-2.3.3-1.9,1.7-3.2,4-2.4,6.4s3.5,3.6,5,5.3c4.2,4.6,18.5,13.7,20.5,14.3,1.7.6,1.9.8,2.5-.8A13.38,13.38,0,0,0,89.7,59.5Z"/><path class="cls-4" d="M33.5,73c-3.8,6.7-8.2,37.1-9.3,42.5-1.2,6-.8,7.4-3.4,7.2-4.4-.4-7.5,1.7-1.8,2.8,2.1.6,4.5,1.5,6.7.7,1.7-6.2,3.4-15.7,5.3-24.8.8-3.9,2.6-20.9,5.4-22.6C42.3,74.9,48.3,93.7,51,97.6c2.1,3.1,6.3,7.6,6.7,1.5.2-3.3-2.6-8-4-10.7C52.6,86.3,39.9,61.6,33.5,73Z"/><path class="cls-4" d="M81.4,73.5C88.6,73.5,92,70.7,98,66c3.1-2.5,3.9-4,6.3-.1,1.4,2.2,3.3,7.2-.5,6.1-.9-.3-.7-3.1-2.1-3.3-1.2-.3-8.7,6.1-11.6,6.9a19.67,19.67,0,0,1-8,1.1C79.4,76.1,76.9,73.5,81.4,73.5Z"/><path class="cls-5" d="M80.5,25.5c5.6,6.1-.7,15.8-7,8.8C68.1,28.4,75.8,20.4,80.5,25.5Z"/><path class="cls-4" d="M72.8,89.5c2.3,5.7,9.1,10.6,17.7,7.3,3.1-1.4,6.8-3,8.3,2.1s.6,6.1-.3,6.5c-1.5.8-2.1-1.5-3.5-6.2-3.3.3-7.1,2.4-10.8,2.5-8.8.2-17.9-12.2-16-15.8C69.8,82.5,71.5,86.4,72.8,89.5Z"/><path class="cls-6" d="M98.4,52.6a6.73,6.73,0,0,1-3.8-1c-2.7-1.5-3.4-5.8-3.4-5.8"/><path d="M78.9,27.8a1.28,1.28,0,0,1,1,1,1,1,0,0,1-.9,1.1c-.6,0-1-.6-1-1.3A.76.76,0,0,1,78.9,27.8Z"/><path class="cls-4" d="M25.8,107.1a9.92,9.92,0,0,0-2.7.8c-.9.5-1,.7-1,.7a6.25,6.25,0,0,1,1.8-.2c.6.1.5.5.5.5a10.43,10.43,0,0,0-1.7.5,5.29,5.29,0,0,0-1.5,1.3,19.81,19.81,0,0,1,2.4-.6c.7-.1.8.4.8.4a7.38,7.38,0,0,0-2.7,1.4,8.86,8.86,0,0,0-1,1.2,5.25,5.25,0,0,1,2.8-1c1.7-.2,1.9.4,1.9.4Z"/><path class="cls-7" d="M83.1,81.7c-7.5.4-14.3-4.2-18.9-10.1"/><path class="cls-7" d="M71.3,100.6c-8.1.1-15-6.7-18-14.2"/><path class="cls-7" d="M48.7,110.4c-5-2.1-9.3-11.5-9.3-19.8"/></g></g></svg>