<svg xmlns="http://www.w3.org/2000/svg" viewBox="0 0 158.3 97.19"><defs><style>.cls-1{fill:#e30613;}.cls-2{fill:#fff;}.cls-3{fill:#b91919;}.cls-4{fill:none;stroke:#000;stroke-linecap:round;stroke-width:0.64px;}</style></defs><title>guitarrero</title><g id="Layer_2" data-name="Layer 2"><g id="Layer_1-2" data-name="Layer 1"><path class="cls-1" d="M18.6,13.79A28.43,28.43,0,0,1,28.8,3.29a11.92,11.92,0,0,1,11.7-.4c3.3,1.8,3.3,6.7,3.6,9.9,1,13-3.4,26.5-4.9,39.1-.1.9,1.3,1,1.4.1,1.1-8.9,4-19.2,4.9-28.1.5-5.4,1.6-15.4-2.1-20.1-3.8-4.9-10.1-4.5-15.2-1.9-3.9,2-9.5,7.7-10.9,11.9a.67.67,0,0,0,.3.8C17.6,14.79,18,14.89,18.6,13.79Z"/><path class="cls-1" d="M1.4,46.49c.6-10.3,18-34.2,29.3-22.4,4.1,4.3,5.6,11.8,5.1,17.5-.2,2.5-1.5,9.1-.3,11.5.4.8,1.7.2,1.3-.6-1.1-2.2.3-9.5.5-11.8a24.4,24.4,0,0,0-1.3-9.3c-1.3-4.3-4.2-10.3-9.2-11.3-6.5-1.4-10.9,1.6-15.4,6C6.4,31,.4,39.29,0,46.49,0,47.19,1.4,47.39,1.4,46.49Z"/><path d="M41.1,3A7.87,7.87,0,0,0,37,8c-1.4,4.1,2.9,8.5,6.3,8.5,5.2,0,9.1-3.7,7.9-9.3S44,1.49,41.1,3Z"/><path d="M12.1,21.69c-5.7.6-9.5,7.9-5.8,13.1,2.8,4,7.8,3,10.5,1.5s3.3-4.6,3.3-7.7C20,25.19,16.2,21.29,12.1,21.69Z"/><path class="cls-1" d="M68.2,52.59a102.8,102.8,0,0,0-11.1-.2c-3.5.1-6.6.9-10,.6-4.2-.4-6.7-2.5-10.8-3.7-9.4-2.4-15.2,2.5-19.8,10.5-2.8,5.1-8.7,15-7.4,21.6,1.4,6.3,3.2,3.4,6.2-.2,3.4-3.5,4.3-4.6,9.3-5.3a137.05,137.05,0,0,1,23.2-1.7c9.8-.3,19.5.8,29.2,1.6,5.9.4,11.8.5,17.7,1.1,4.1.4,8.2.5,12.3.7,4.9.2,9.9.1,14.8.3,3,.1,6,0,9,0,2.4,0,4.8-.2,7.2-.4,4.1-.4,18.5.2,20-4.5s-11.7-9.6-15.3-11.1c-10.7-4.4-22.6-5.1-34.1-5.8-13.4-.5-28.3-1.4-40.8-4.1"/><path class="cls-2" d="M32.4,51.69c-6.1-.9-11.9,7.1-6.5,11.8,3.5,3.2,8.4,1.3,10.4-2.5C39,56.49,34.6,51.79,32.4,51.69Z"/><path d="M29.5,56.79c-1.3-.2-2.6,1.6-1.4,2.6a1.45,1.45,0,0,0,2.3-.6A1.5,1.5,0,0,0,29.5,56.79Z"/><path d="M64.6,52.89c.3,7.7,1.5,13.1,9.7,14.6s22.8,4.4,31.1,4c10-.4,19.8,2.5,29.9,1.6a220,220,0,0,1,23-1c-1.5-4.4-5.9-7.3-9.1-10.3-3.2-2.8-6.4-5.4-10-8-8.1-5.9-17.1-6.6-26.5-8.4-9.6-1.8-19-2.5-28.8-.7-5.7,1-16.1,1.6-19.1,7.3l-.5.1Z"/><path class="cls-3" d="M52.6,86.69c.4-4.6,1.1-9.3,3.1-13.6.5-.9,1.5-3.7,2.9-3.1,1.1.4.4,2.9,1.3,3.8,1.3,1.5,2.6.8,3-1,.3-1.4-.6-2.9-1.2-4.2-3.3-8-8.3-.2-9.7,4.5-1.4,4.9-2.2,10.3-4,15.1-1.7-1.3-4.5-1.7-6.1.1-2.2,2.5,1.2,2.5,3.1,2.5C48.2,90.89,52,92.39,52.6,86.69Z"/><path class="cls-3" d="M90.4,66.59c-1,1.6-8,12.5-2.3,11.5,3.1-.6,3.4-5,4.7-7.2s4.8-6.5,7.9-4.6c3.7,2.3,1.2,11.6.7,15.1-.5,2.6-.8,9.2-.7,6.6,0,0-1.6,5.8,2.2,7.5,1.9.8,7.5,2.9,8.1-.6.6-3-4.3-3-6.2-3.2.1-3.9.7-6.3.8-8.8.1-2.8.1-5.8.4-8.7.5-5.3-1.4-14.5-8.9-12.2C95.7,62.29,91.8,65,90.4,66.59Z"/><path class="cls-3" d="M133.5,56.59c8.2,1.2,6,11.6,4.8,17-1.2,5.7-2.6,11.7-3,17.6,2.4.4,6.4-1.8,8,.6,2.2,3.4-3.6,5.4-6,5.4-3.6-.2-6.2-.1-6.4-4.2a84.24,84.24,0,0,1,.8-9.9c.4-3.9,1.2-7.6,2-11.6.3-1.9,2.5-7.7.3-9.1-2.5-1.5-7.5,3.5-9,5.2-2.2,2.3-3.5,5.7-5.5,7.9-3.6,3.9-3.7-2.9-2.6-5.2a19.11,19.11,0,0,1,4.5-6.8C124.8,60.29,130.2,56.19,133.5,56.59Z"/><path class="cls-4" d="M19.8,76.79c4.1-3.6,2.8-6.8,2.8-6.8"/></g></g></svg>