<?xml version="1.0" encoding="utf-8"?>
<!-- Generator: Adobe Illustrator 25.3.1, SVG Export Plug-In . SVG Version: 6.00 Build 0)  -->
<svg version="1.1" id="Layer_1" xmlns="http://www.w3.org/2000/svg" xmlns:xlink="http://www.w3.org/1999/xlink" x="0px" y="0px"
	 viewBox="0 0 954.7 250.3" style="enable-background:new 0 0 954.7 250.3;" xml:space="preserve">
<style type="text/css">
	.st0{fill:#79A637;}
	.st1{fill-rule:evenodd;clip-rule:evenodd;fill:#00A0A4;}
	.st2{fill:#4FBCC1;}
	.st3{fill-rule:evenodd;clip-rule:evenodd;fill:#E3D7C2;}
	.st4{fill:#9D978E;}
	.st5{fill:#DAD8CC;}
	.st6{fill:none;stroke:#1B8A4F;stroke-width:1.14;stroke-linecap:round;}
	.st7{fill:#1B8A4F;}
	.st8{fill:#A85318;}
</style>
<g id="Layer_2_1_">
	<g id="Layer_1-2">
		<path class="st0" d="M1.7,124.8c-6.1,49,11.1,28.3,54.8,44.7s197.9-9.4,249-8.3s158.2-29.1,361.9-21.5s19-75-51.1-97.7
			S281.4-4.5,180.7,5S7.8,75.8,1.7,124.8z"/>
		<path class="st1" d="M180.3,103.5c0,0-51.7-30.4,161.8-15.1c140.1,10,114.7-9.2,173.9-24.3c84.5-21.5,190,14,224,35
			c52.7,32.5,200.3,149.7,139,106.4s-86.1-52.9-117.4-55.6c-119.4-10.3-117.8-8.3-184.4,0c-108.5,13.5-22.7,55.6-362.7,55.6
			c-100.5-6-188.6-26.4-204-43.3s-33.6-58.8,104.4-46.1C229.4,119.7,199.1,113.5,180.3,103.5z"/>
		<path class="st2" d="M235.3,132.9c2-0.9,5.3-1.2,7.6-2c0.3-0.1,0.1,0.3,0.7,0.1c2.2-0.9,6.2-1.4,9.4-1.7l-0.1,0.1
			c0.6-0.1,1.2-0.4,1.8-0.5c0,0-0.2,0.1,0,0.1c0.1-0.2,1.1-0.3,1.3-0.4c0.2-0.1,0.3,0.1,0.6,0.1l0.3-0.2c0.8-0.5,2.4-0.4,3.6-0.8
			c-0.1,0-0.2,0.1,0,0.1c2.3-0.6,4.7-1.1,7.1-1.4c-0.1,0.1-0.1,0.2,0,0.2c0.1-0.2,0.8-0.3,1.4-0.5c0.4,0.1,1-0.3,1.8-0.3l0,0
			c0.5-0.3,0.9,0,1.3-0.3l0.4,0.1c0.2-0.3,0.9,0,1.3-0.2l0,0c0.4-0.1,0.7,0,1.1-0.1l0,0c0.9-0.2,1.5-0.1,1.4-0.3
			c0.4,0.1-0.9,0.2-0.3,0.3c3.1-0.6,6.3-0.9,9.5-1.3c0.4,0,0.6,0,0.7,0.1c0.3-0.1,1.2-0.2,1.5-0.3c-0.1,0,0.2,0.1,0.4,0.1
			c0.6,0,0.6-0.3,1.2-0.2c-0.2,0.1-0.3,0.1-0.2,0.2c0.6-0.2,1.3-0.3,1.9-0.4c-0.1,0-0.1,0-0.2,0.1c0.6-0.1,1.3-0.2,1.9-0.2l-0.2,0.1
			c1,0.1,0.2-0.2,1.1-0.2c-0.2,0.1-0.1,0.1-0.1,0.1c1-0.2,1.9-0.4,2.9-0.4l0,0c0.9-0.1,1.8-0.1,2.7-0.2c0.4,0-0.1,0.3,0.8,0.2
			c-0.1-0.2,1.5-0.2,1-0.4c0.9,0,1.7,0,2.6-0.1c-0.3,0.1,0.4,0.2-0.2,0.3l0.5,0.1c-0.1,0.1-0.5,0-0.3,0.1c0.5-0.1,1.1-0.1,1.6-0.1
			c0.7-0.3,1.4-0.4,2.1-0.5c-0.5,0.1,0.3,0.2,0,0.3l1.3-0.5c0.3,0,0.1,0.2,0.6,0.1c0-0.1,0.2-0.1,0.3-0.2s1.4-0.1,1.5,0.1
			s-0.5,0.1-0.2,0.1c0.6,0,0.6-0.1,1.2-0.1l0,0c0.4,0,1.2-0.1,0.7-0.2c-0.3,0,0.1,0.1-0.3,0.1c0.5-0.1,1.1-0.2,1.6-0.2
			c-0.2,0-0.2,0.1-0.3,0.2c0.9-0.2,1.7-0.3,2.6-0.4c0-0.1-0.3,0.2-0.5,0.1c1.2,0.1,2.4-0.2,3.4,0c-0.2,0-0.1-0.1-0.1-0.1
			c0.6,0,0.5,0.2,0.9,0.1c0,0.1,0.5,0,0.8-0.1s0.1,0-0.2,0.1c1.3-0.1,2.5-0.2,3.8-0.1c0-0.1,0.8-0.2,1-0.2l-0.1,0.1
			c0.3,0.1,0.9,0,1,0.1c0.6-0.2-2.3,0.1-1.5,0c0.2,0.1,1.1-0.2,1,0c0.6,0,1.1-0.2,1.6,0c-0.2,0-0.5,0.2,0,0.2c0.8,0,0.2-0.1,0.9-0.1
			l0.4-0.1c0-0.1,0.7,0,0.4-0.1c0.1,0.1,1.2-0.1,1.1,0.2L330,122c0.3,0,0.6-0.2,0.9-0.2c0.1,0,0.1,0,0.1,0.1c0,0,0,0,0,0
			c0.1-0.3,0.8,0,1.3-0.2c0.7,0,1.5,0.1,2.2,0.2c0.6-0.1,1.1-0.2,1.7-0.1c-0.1,0-0.3,0-0.3,0.1c0.3,0,0.6,0,0.9,0
			c-0.1,0,0.8,0.2,1.2,0.3c0.6-0.1,0.4-0.2,0.5-0.3c0.5,0.3,1.6-0.1,2.2,0.1c-0.2,0-0.8,0.1-0.4,0.2c0.5,0.3,1-0.2,1.8,0l-0.2-0.2
			c0.3,0.1,1.2-0.1,1.1,0.1c0.3-0.1,1,0.1,0.9-0.1c1.3,0.2,3.3,0,4,0.4c0.2,0,0.7,0,0.6-0.1c-0.3-0.1-0.5,0.1-0.6,0
			c0.2,0,0.2-0.1,0.2-0.1c0.4,0.1,0.7,0.1,0.3,0.3c0.9,0.2,1-0.3,2.2-0.2c-0.1,0.1,0,0.1,0.4,0.1l0.7-0.1c0.8,0.1,0.4,0.2,0.4,0.4
			c0.4,0,0.7,0,1.1-0.1l0.5,0.2c-0.3-0.1,0.4-0.1,0.5-0.1H354c0.1,0.1,0.5,0,0.8,0c0-0.1-0.5-0.2-0.8-0.2c0.2-0.1,0.5,0,0.8-0.1
			c-0.1,0.1,0.6,0.1,1,0.2s0.4-0.1,0.5-0.1s0.6,0,0.3,0.1c-0.1,0-0.3-0.1-0.5,0c0.2,0.1,0.2,0.2,0.7,0.1s0-0.3,0.7-0.2
			c-0.2,0-0.2,0.1-0.4,0.1l0.7,0.1l0.1-0.1c0.1,0,0,0,0.1,0.1c0.2-0.1,1,0,1.2-0.1c0.3,0,0.7,0.1,1,0.2h-0.1c0.4,0.1,0.9,0.1,1.3,0
			h1c0.5,0.1,0.1,0.5,0.7,0.4s0.9-0.2,0.7-0.3c1,0,2,0.1,3,0.2c0.1,0,0.1-0.1,0.4-0.1c1.4,0,2.8,0.1,4.2,0.3c-0.4,0-0.1,0.1-0.1,0.2
			c0.4-0.1,0.4,0.1,0.6-0.1c0-0.1,0-0.2-0.4-0.3c0.9,0,1.8,0.1,2.7,0.2c-0.2-0.1,0-0.1,0.2-0.1c-0.1,0.2,0.5,0.3,1,0.2l0.1-0.1
			l0.3,0.1c0.2,0,0.3-0.2,0.7-0.1c0,0.1,0,0.1,0.1,0.1l0,0c0.6-0.1,1.2-0.2,1.8-0.1l0.4,0.2c0.2,0,0.7-0.1,0.3-0.2
			c0.6,0.1,1.2,0.2,1.8,0.4c2-0.3,3.9-0.3,5.9,0l-0.1,0.1c0.5,0.1,0.3-0.1,0.6-0.1c-0.2,0.1,0.3,0.2-0.1,0.3c0.5,0,0.9,0,1.4-0.1
			c0.1-0.1-0.4,0.1-0.3-0.1c0.4,0.1,0.7,0.1,1.1,0c0.2,0.1,0,0.2-0.1,0.3l0.4-0.1c0.5,0.2-1.3,0.3-0.8,0.6h0.4
			c0.4,0.2-1.1,0.2-0.1,0.3c0.5-0.1,0.9-0.3,0.5-0.4c0.9,0,0.5-0.4,1.5-0.3c0.2,0.1-0.8,0-0.6,0.1c0.4,0.2,0.9,0,1.4,0
			c-0.4-0.1,0-0.2,0.3-0.3c0.5,0.1-0.4,0.1,0.4,0.2c0.1-0.1,0.8-0.1,0.3-0.2c0.3-0.2,0.7,0.1,1.1-0.1c0.2,0.2-0.8,0.3,0,0.4
			c-0.1-0.2,1-0.2,0.6-0.4c0.3,0.1,0.3,0.2,0.1,0.3c0.4,0.1,1.1-0.2,1.2,0.1l0.1-0.1c0.1,0.1,0.3,0.1,0.5,0.2c0.4,0,1.3-0.2,1.2,0.1
			c0.1,0,1,0,0.7-0.2c-0.5-0.1-0.6,0.1-0.9-0.1c0.4,0.2,0.8,0,1.1,0v0.1c0.3,0,0.5,0,0.8-0.1c-0.2,0-0.1,0.1,0.1,0.1l0.2-0.1
			c0.8,0,0.1,0.3,0.9,0.2l-0.6,0.1c0.2,0,0.5,0.1,0.7,0.1c0.2-0.1,0.4-0.3,0.6-0.4c0.4,0,0.2,0.2,0.6,0l-0.6,0.1
			c-0.1,0,0.3,0.2,0.9,0.2c0.4,0,0.9-0.2,0.4-0.3c0.3,0,0.7,0.1,0.4,0.2c0.6,0-0.1-0.1,0.5-0.2c0.2,0.1,0.9,0.2,1.3,0.4l-0.6,0.2
			h0.4c-0.5,0.2,0.2,0.1-0.1,0.3c0.3,0,0.5,0,0.8-0.1c-0.7-0.3,0.9-0.4,0.7-0.6c1.1,0,0.6,0.7,1.7,0.3c-0.2-0.1,0.4-0.3-0.3-0.2
			c0.6,0,0.5-0.3,1.2-0.1c-0.6,0.1,0.6,0.3-0.3,0.4c0.1-0.1-0.5-0.1-0.6-0.1c0.3,0.1-0.1,0.3,0.6,0.3c0.4,0,1,0,0.9-0.1
			s-0.6,0-0.3-0.1c0.8,0,0.9,0.2,1.3-0.1c-0.5,0-0.6-0.1-0.6-0.3l0.6-0.1l-0.1,0.1c0.9,0.1,0.3-0.2,1.2-0.1l0.4,0.2
			c-0.2,0.2-1.3-0.1-1.2,0.2c0.5-0.1,0.9-0.1,1.4,0h-0.4c0.2,0,0.4,0.4,1.3,0.2c0.5-0.1,0.1-0.1,0.2-0.2c1,0,1.3-0.1,1.9-0.1
			c-0.1,0.2,1.1,0,0.4,0.2c-0.7-0.1-1.4-0.1-2.1,0c0.3,0.2-0.8,0-1,0.2c0.8,0,0.7,0.3,0.8,0.4c0.2,0,0.4,0,0.6-0.1
			c0.1-0.1-0.2-0.1-0.2-0.3c0.7,0.1,1.5,0,2.2-0.1c0.3,0.1,0.2,0.2-0.2,0.2h3.1c-0.6-0.2,1.1,0,0.7-0.3c-0.5-0.1-1-0.2-0.7-0.3
			s0,0.1,0.1,0.2c0.4-0.1,0.6,0.2,1,0c-0.9,0.1-0.2,0.3-0.4,0.5c0.7-0.1,0,0.1,0.6,0.1c0.8-0.1,1.5-0.2,2.3-0.2
			c1.1,0.1,2.1,0.1,3.2,0c0.4,0.1,0.1,0.3,0.6,0.3s-0.4-0.2,0.4-0.1h-0.1c0.3,0,1.5,0.1,1.8-0.2l-0.3,0.2c0.2,0,0.3,0,0.4-0.1
			c0,0.1,0.2,0.1-0.1,0.2c0.5,0.1,1.1,0.1,1.6-0.1l-0.4-0.1c1-0.1,1.6,0,2.5-0.1v0.1l0.6-0.1c-0.1,0.1,0.4,0.2,0.7,0.1l-1.4,0.3
			c-0.4-0.1,0.4-0.2,0.2-0.3s-1.1-0.1-1.2,0.1c0.2,0,0.4,0,0.6-0.1c0.1,0.2-0.4,0.2-0.6,0.3h0.4c-0.4,0.1-0.8,0.1-1.2,0.1
			c0.4-0.1-0.2-0.1-0.1-0.2c0,0.2-0.6,0.2-1.3,0.2c-0.5-0.2-1.3,0.1-2.1,0.1c0.4-0.2,0.8-0.3,1.2-0.4c-0.5-0.1-0.6,0-1.1-0.1
			c-0.3,0.2-0.7,0.4-1.1,0.4v-0.1c-0.5,0.1-0.9,0.2-1.4,0.2c-1.3-0.1-2.6,0-3.6-0.1v-0.1c-0.9,0.2-1.7,0.2-2.6,0.2
			c-1.1,0-2.3,0-3.4-0.1c-2.2,0-4.2,0.1-6.5,0l0.4-0.2c-0.4,0.1-0.3-0.1-0.7-0.1c0.5,0.2-0.6,0.2-0.9,0.3c-1.1-0.1-2.2-0.1-3.3,0
			v-0.1c-1.1,0.1-2.1,0.1-3.2-0.1c-0.2-0.2-0.4-0.2-0.7-0.2c-0.6,0.1-1.3,0.2-1.9,0.2c-0.8,0-1.6-0.1-2.4-0.2
			c-2.6,0.2-5.1-0.1-7.7-0.1l-0.2-0.2c-2.6,0.2-5.6-0.3-7.8-0.2l0.3-0.2c-0.7-0.1-1.5,0-1.4,0.2c-0.7,0-1.4-0.1-2.1-0.2
			c-0.5,0-1,0-1.5,0.1c-1.1-0.2-2.1-0.2-3.2-0.2h0.3c0.2,0,0.2-0.1-0.1-0.2c-0.5,0-1.8-0.2-1.3,0.2c-1.4-0.2-3.3,0-4.6-0.3
			c0.1,0.1-0.2,0.1-0.4,0.1c-1.2-0.2-2.3-0.2-3.5-0.2c-0.2,0,0.3-0.1-0.2-0.2c-0.3,0,0,0.1-0.4,0.1c-2,0-4-0.4-5.8-0.4
			c-3.2,0-6.5-0.2-9.6-0.3v-0.1c-1.1,0.2-2.4-0.3-3.2,0c-0.2-0.1-0.9-0.1-0.7-0.2c-0.8,0.1-2.3-0.2-3.5-0.1h0.3
			c-1.2-0.2-2.2,0-3.5-0.1c0.1,0,0.4,0,0.4-0.1c-0.5-0.1-1.2,0.2-1.4-0.1c-0.3,0-0.2,0.1,0,0.1c-2.7-0.2-5.7,0-8.6,0
			c-2-0.2-0.1-0.5-1.7-0.3c-0.1-0.1-0.1,0.1-0.1,0.1c-0.6,0.1-1-0.3-1.4-0.2c0.2,0.2-0.3,0.1-0.3,0.2c-0.8-0.1-1.7-0.2-2.5-0.1
			l0.1-0.1c-1.2,0.3-2.5,0.2-3.5,0.5c-6.4,0.2-12.5,0.6-18.7,1.1s-12.1,1.1-18.3,1.7c-1.1-0.1-2.2,0-3.2,0.3c0.1,0,0.1-0.1,0-0.1
			c0,0.2-1.1,0.2-1.2,0.4c-2.3,0.3-4.4,0.6-6.7,1c0.4-0.1,0.5-0.3,0.1-0.2l-0.4,0.2h-0.1c-0.3,0.1-0.6,0.2-0.2,0.2
			c-5.8,1-11.6,1.7-17.2,2.8c-1.6,0.2-3.1,0.6-4.6,1c-4.2,0.5-8.4,1.4-12.5,2.5C233.3,134,233.6,133.4,235.3,132.9z"/>
		<path class="st2" d="M339.3,107.2c-1.5,0.4-3.3-0.2-4.9,0.1c-0.2,0,0.1-0.3-0.3-0.2c-1.9,0.2-3.8,0-5.7-0.5l0.1-0.1
			c-0.3-0.1-0.8,0.2-1.2,0.1c0-0.1,0-0.1,0.1-0.1l0,0c-0.1,0.2-0.7,0-0.9,0.1c-0.1-0.1-0.1-0.2-0.3-0.3l-0.2,0.2
			c-0.7,0.4-1.4-0.1-2.3,0l0.1-0.1c-1.5,0.1-2.9,0.1-4.4,0c0.1,0,0.1-0.1,0.1-0.2c-0.1,0.2-0.6,0.2-1,0.2c-0.1-0.2-0.7,0.1-1.1,0
			l0,0c-0.4,0.2-0.5-0.2-0.8,0.1l-0.2-0.2c-0.2,0.3-0.5-0.2-0.8-0.1v0.1c-0.3,0-0.4-0.1-0.6-0.1l0,0c-0.6,0-0.9-0.2-0.9,0.1
			c-0.2-0.2,0.6,0,0.3-0.3c-1.9,0-3.8-0.1-5.7-0.3c-0.2-0.1-0.3-0.1-0.4-0.2c-0.3,0-0.6,0-0.9,0.1c0.1,0-0.1-0.1-0.2-0.1
			c-0.3-0.1-0.4,0.2-0.8,0.1c0.2,0,0.2-0.1,0.2-0.2c-0.4,0.1-0.8,0.1-1.2,0.1c0.1,0,0.2,0,0.2-0.1c-0.5,0.2-0.7-0.1-1.1,0l0.2-0.1
			c-0.6-0.2-0.2,0.2-0.7,0.1c0.1,0,0.1,0,0.1-0.1c0,0,0,0,0,0c-0.5,0.2-1.3,0-1.8,0.1l0,0c-0.5,0-1-0.1-1.6-0.1
			c-0.2-0.1,0.1-0.3-0.4-0.3c0,0.2-0.9,0-0.7,0.3c-0.5-0.1-1-0.2-1.5-0.2c0.2-0.1-0.2-0.3,0.2-0.3l-0.3-0.2c0.1-0.1,0.3,0.1,0.2-0.1
			h-0.9c-0.4,0.2-0.9,0.3-1.4,0.4c0.3-0.1-0.1-0.3,0.1-0.3l-0.9,0.4c-0.2,0,0-0.2-0.3-0.2c0,0.1-0.1,0.1-0.2,0.1s-0.8,0-0.9-0.2
			s0.3,0,0.1-0.1c-0.4,0-0.4,0.1-0.7,0l0,0c-0.2-0.1-0.7,0-0.5,0.2c0.2,0,0-0.1,0.2-0.1c-0.3,0.1-0.7,0.1-1,0.1
			c0.1,0,0.1-0.1,0.2-0.2c-0.5,0.2-1.1,0.2-1.6,0.2c0,0.1,0.2-0.2,0.3-0.1c-0.7-0.2-1.5,0.1-2-0.2c0.1,0,0,0.2,0,0.1
			c-0.3,0-0.3-0.2-0.5-0.2c0-0.1-0.3,0-0.5,0s-0.1-0.1,0.1,0c-0.8,0.1-1.5,0.1-2.3-0.1c0,0.1-0.5,0.2-0.6,0.2l0.1-0.1
			c-0.1-0.1-0.6,0-0.6-0.2c-0.4,0.2,1.4-0.1,0.9,0c-0.1-0.1-0.7,0.2-0.6,0c-0.3,0.1-0.7,0.1-1,0c0.1,0,0.3-0.2,0-0.2
			c-0.5,0-0.1,0.1-0.5,0.1H283c0,0.1-0.4-0.1-0.3,0.1c0-0.1-0.7,0-0.6-0.2l0.1-0.2c-0.2,0-0.4,0.1-0.5,0.3l-0.1-0.1
			c-0.1,0.3-0.5-0.1-0.7,0.2c-0.4-0.1-1.1-0.1-1.3-0.3c-0.3,0.1-0.7,0.2-1,0.1c0.1,0,0.2,0,0.2-0.1c-0.2-0.1-0.3,0-0.5,0
			c0.1,0-0.5-0.2-0.7-0.3c-0.3,0.1-0.2,0.2-0.3,0.3c-0.3-0.3-0.9,0.1-1.3-0.1c0.1,0,0.5-0.1,0.2-0.2c-0.3-0.3-0.6,0.2-1.1,0l0.1,0.2
			c-0.2-0.2-0.7,0.1-0.6-0.1c-0.2,0.1-0.6-0.1-0.5,0.1c-0.8-0.2-1.9,0-2.4-0.4c-0.1,0-0.4,0-0.3,0.1s0.3-0.1,0.3,0
			c-0.1,0-0.1,0-0.1,0.1c0,0,0,0,0,0c-0.2-0.1-0.4-0.1-0.2-0.3c-0.5-0.2-0.6,0.4-1.3,0.3c0-0.1,0-0.1-0.2-0.1l-0.4,0.2
			c-0.4-0.1-0.2-0.2-0.2-0.4c-0.2,0-0.5,0-0.7,0.1l-0.3-0.2c0.2,0.2-0.2,0.1-0.3,0.1h0.1c0-0.1-0.3,0-0.5,0c0,0.1,0.3,0.1,0.5,0.2
			c-0.1,0.1-0.3,0-0.5,0.1c0.1-0.2-0.4-0.1-0.6-0.1c-0.1,0-0.2,0-0.3,0.1c0-0.1-0.4,0-0.2-0.1s0.2,0.1,0.3,0
			c-0.1-0.1-0.1-0.2-0.4-0.1s0.1,0.3-0.4,0.2c0.1,0,0.1-0.1,0.2-0.2l-0.4-0.1v0.1c-0.1,0,0-0.1,0-0.1s-0.6,0-0.7,0.2
			c-0.2,0-0.4-0.1-0.6-0.1l0,0c-0.2-0.1-0.5,0-0.7,0l0,0c-0.2,0-0.4,0-0.6,0.1c-0.3-0.1-0.1-0.6-0.5-0.4c-0.3,0-0.5,0.3-0.4,0.4
			c-0.6-0.1-1.3,0.1-1.8-0.1c-0.1,0.1,0,0.1-0.2,0.1c-0.9-0.1-1.8,0.2-2.5-0.1c0.2-0.1,0-0.1,0-0.2c-0.2,0.1-0.3-0.1-0.3,0.1
			s0,0.2,0.3,0.3c-0.5,0.1-1.1,0.1-1.6-0.1c0.1,0.1,0,0.1-0.1,0.1c0-0.2-0.4-0.2-0.6-0.2v0.1l-0.2-0.1c-0.1,0-0.1,0.3-0.4,0.2
			l-0.1-0.1c-0.3,0.1-0.7,0.3-1,0.2l-0.3-0.2c-0.1,0-0.4,0.1-0.1,0.2c-0.6-0.1-0.9-0.1-1.1-0.3c-1.1,0.4-2.2,0.5-3.4,0.5v-0.1
			c-0.3-0.1-0.1,0.2-0.3,0.1c0.1-0.1-0.3-0.2,0-0.3c-0.4-0.1-0.5,0.2-0.8,0.3c0,0.1,0.2-0.1,0.2,0.1c0,0-0.6-0.1-0.6,0.1
			c-0.1-0.1-0.1-0.2,0-0.3c0,0,0,0,0,0l-0.2,0.1c-0.4-0.2,0.6-0.5,0.2-0.7h-0.2c-0.3-0.2,0.6-0.3,0-0.3c-0.2,0.1-0.4,0.4-0.2,0.5
			c-0.5,0.1-0.2,0.5-0.7,0.5c-0.2-0.1,0.5-0.1,0.3-0.2s-0.5,0.1-0.8,0.1c0.3,0.1,0.1,0.3-0.1,0.3s0.2-0.2-0.3-0.2
			c0,0.1-0.4,0.2-0.1,0.3c-0.1,0.3-0.4,0-0.6,0.2c-0.2-0.2,0.3-0.4-0.2-0.5c0.1,0.2-0.5,0.3-0.2,0.5c-0.2,0-0.2-0.2-0.1-0.3
			c-0.3-0.1-0.5,0.4-0.7,0v0.2c-0.1,0-0.2-0.1-0.4-0.2s-0.7,0.3-0.7,0c-0.1,0-0.6,0.1-0.3,0.2s0.3-0.2,0.6,0.1
			c-0.3-0.2-0.4,0.1-0.6,0.1l-0.1-0.1c-0.1,0-0.4,0-0.4,0.2c0.1-0.1,0-0.1-0.1-0.2l-0.1,0.2c-0.4,0.1-0.2-0.3-0.6-0.2l0.3-0.2
			c-0.1,0-0.3-0.1-0.4,0c0,0.2-0.1,0.3-0.2,0.5c-0.2,0.1-0.2-0.1-0.3,0l0.3-0.2c0-0.1-0.3-0.2-0.6-0.2s-0.4,0.3-0.1,0.4
			c-0.2,0-0.4,0-0.3-0.2c-0.3,0.1,0.1,0.1-0.2,0.3c-0.3-0.1-0.6-0.2-0.9-0.3l0.2-0.3h-0.2c0.2-0.2-0.2-0.1-0.1-0.3
			c-0.2,0-0.3,0.1-0.4,0.1c0.6,0.3-0.3,0.5-0.1,0.8c-0.6,0.1-0.6-0.7-1.1-0.1c0.1,0.1-0.1,0.3,0.3,0.2c-0.4,0-0.1,0.3-0.6,0.3
			c0.3-0.2-0.5-0.3-0.1-0.5c0,0.1,0.3,0,0.4,0c-0.2-0.1-0.1-0.3-0.5-0.3c-0.2,0.1-0.5,0.1-0.4,0.2s0.3-0.1,0.3,0.1
			c-0.4,0.1-0.6-0.1-0.7,0.2c0.3-0.1,0.4,0.1,0.5,0.2l-0.3,0.1v-0.1c-0.6,0-0.1,0.2-0.6,0.2l-0.3-0.2c0-0.2,0.8,0,0.6-0.3
			c-0.3,0-0.4,0.2-0.7,0.2l0.2-0.1c-0.1,0-0.4-0.4-0.8-0.1c-0.2,0.1,0,0.1,0,0.2c-0.5,0.1-0.6,0.3-1,0.3c0-0.2-0.6,0.1-0.3-0.2
			c0.2,0.1,1,0,1.1-0.3c-0.3-0.2,0.4,0,0.4-0.3c-0.4,0.1-0.5-0.2-0.7-0.4c-0.1,0-0.2,0.1-0.3,0.1c0,0.2,0.2,0.1,0.3,0.3
			c-0.4,0-0.8,0.1-1.1,0.4c-0.2,0-0.2-0.2,0-0.3l-1.8,0.3c0.5,0.2-0.6,0.2-0.2,0.3s0.7,0.1,0.6,0.3c-0.2,0-0.1-0.1-0.2-0.2
			c-0.2,0.2-0.5-0.2-0.6,0.1c0.5-0.2-0.1-0.3-0.1-0.5c-0.3,0.2-0.1-0.1-0.4-0.1c-0.4,0.2-0.7,0.4-1.1,0.5c-0.6,0-1.2,0.2-1.8,0.4
			c-0.3,0-0.3-0.3-0.6-0.3s0.4,0.2-0.1,0.2v-0.1c-0.1,0.1-0.9,0-0.8,0.4v-0.3c-0.1,0-0.1,0.1-0.2,0.1s-0.2-0.1-0.1-0.2
			c-0.4-0.1-0.6,0.2-0.9,0.2l0.3,0.1c-0.4,0.1-0.9,0.2-1.3,0.3L223,106l-0.2,0.2c0-0.1-0.4-0.2-0.4,0l0.5-0.5c0.3,0-0.1,0.2,0.1,0.3
			c0.2,0.1,0.5,0,0.6-0.2c-0.2,0-0.2,0.1-0.3,0.1c-0.2-0.2,0.1-0.2,0.1-0.4c-0.1,0-0.3,0-0.2,0.1c0.2-0.1,0.4-0.2,0.6-0.3
			c-0.2,0.1,0.2,0.1,0.2,0.2c-0.1-0.2,0.2-0.3,0.6-0.3s0.6-0.3,1.1-0.4c-0.1,0.2-0.2,0.4-0.4,0.5c0.3,0,0.3-0.1,0.6-0.1
			c0-0.2,0-0.4,0.3-0.5l0.1,0.1c0.3-0.1,0.2-0.3,0.6-0.4c0.8-0.1,1.5-0.2,2.1-0.3l0.1,0.1c0.2-0.3,1-0.3,1.4-0.5
			c0.8,0,1.5-0.4,2-0.2c1.2-0.3,2.4-0.6,3.7-0.7l-0.1,0.2c0.2-0.2,0.2,0.1,0.4,0c-0.3-0.1,0.2-0.2,0.4-0.4c0.7,0,1.3-0.1,1.9-0.4
			l0.1,0.1c0.6-0.2,1.3-0.3,1.9-0.2c0.1,0,0.3,0.2,0.5,0.1c0.3-0.3,0.5-0.3,1-0.4h1.5c1.4-0.4,3-0.3,4.5-0.6l0.1,0.1
			c1.4-0.4,3.4-0.1,4.6-0.4l-0.1,0.3c0.4,0.1,0.9-0.1,0.8-0.3c0.4,0.1,1-0.2,1.3,0.1c0.3,0,0.6-0.1,0.8-0.2c0.6,0.1,1.3,0.1,1.9,0
			h-0.2c-0.1,0.1-0.1,0.2,0.1,0.2s1.1,0.1,0.8-0.3c0.9,0.2,1.9-0.1,2.8,0.1c-0.1-0.1,0.1-0.1,0.2-0.2c0.7,0.1,1.4,0.1,2.1,0
			c0.1,0-0.2,0.1,0.1,0.2s0-0.1,0.2-0.2c1.2-0.1,2.4,0.2,3.5,0.2c1.9-0.1,3.9,0,5.8,0.1v0.1c0.6-0.2,1.4,0.3,1.9,0
			c0.1,0.1,0.6,0.1,0.4,0.2c0.5-0.2,1.4,0.2,2.1,0h-0.2c0.7,0.2,1.4,0,2.1,0.2c-0.1,0-0.2,0-0.3,0.1c0.3,0.1,0.7-0.2,0.8,0.1
			c0.2,0,0.1-0.1,0-0.1c1.6,0.2,3.4,0.1,5.1,0.2c1.2,0.3,0,0.5,1,0.4c0.1,0.1,0.1-0.1,0.1,0c0.4-0.1,0.5,0.4,0.8,0.2
			c-0.1-0.2,0.2-0.1,0.2-0.2c0.7,0.2,0.9,0.4,1.5,0.3l-0.1,0.1c0.7-0.2,1.5,0,2.1-0.3c3.8,0.2,7.5,0.3,11.2,0.6s7.3,0.5,11,1
			c0.6,0.3,1.3,0.4,1.9,0.3c-0.1,0-0.1,0-0.1,0.1c0,0,0,0,0,0c0.1-0.2,0.7,0,0.8-0.2c1.4,0.2,2.6,0.2,4.1,0.3
			c-0.2,0-0.4,0.2-0.1,0.2l0.3-0.1v0.1c0.2,0,0.4-0.1,0.2-0.2c3.6,0.1,7,0.8,10.5,0.9c1,0.1,1.9,0.1,2.9,0.1
			c2.5,0.5,5.1,0.7,7.7,0.7C340.8,106.7,340.1,107.2,339.3,107.2z"/>
		<path class="st2" d="M118.6,160c0.5-0.6,1.5-0.3,2.1-0.8c0.1,0,0,0.3,0.2,0.2c0.8-0.4,1.7-0.5,2.6-0.3v0.1c0.2,0,0.3-0.3,0.5-0.2
			v0.1c0-0.2,0.3-0.1,0.3-0.2c0.1,0.1,0.1,0.2,0.2,0.2l0.1-0.2c0.2-0.5,0.6-0.1,1-0.3v0.1c0.6-0.3,1.2-0.5,1.9-0.6v0.2
			c0-0.2,0.1-0.3,0.3-0.3c0.1,0.2,0.3-0.2,0.5-0.1l0,0c0.1-0.2,0.2,0.1,0.3-0.2l0.1,0.1c0-0.3,0.2,0.1,0.3,0v-0.1
			c0.1-0.1,0.2,0,0.3,0l0,0c0.2-0.1,0.4,0,0.4-0.2c0.1,0.2-0.2,0.1,0,0.3c0.8-0.3,1.7-0.4,2.5-0.5c0.1,0.1,0.2,0.1,0.2,0.2
			c0.2,0,0.3-0.1,0.4-0.2l0.1,0.1c0.2,0.1,0.1-0.3,0.3-0.2c-0.1,0.1-0.1,0.1,0,0.2c0.1-0.2,0.3-0.2,0.5-0.3c0,0-0.1,0.1,0,0.1
			c0.1-0.2,0.3,0,0.5-0.1v0.1c0.3,0.1,0-0.3,0.3-0.2v0.1c0.2-0.2,0.5-0.2,0.7-0.3v0.1c0.2-0.1,0.5,0,0.7-0.1s0,0.3,0.3,0.2
			c-0.1-0.2,0.4-0.2,0.2-0.4c0.2,0,0.6,0.1,0.7,0c-0.1,0.1,0.2,0.3,0,0.3l0.2,0.1c0,0.1-0.1,0-0.1,0.1s0.3-0.1,0.4-0.1
			c0.1-0.2,0.2-0.5,0.5-0.5c-0.1,0.1,0.1,0.3,0.1,0.3l0.3-0.5c0.1,0,0.1,0.2,0.2,0.1s0-0.1,0.1-0.2s0.3-0.1,0.4,0.1s-0.1,0.1,0,0.1
			s0.2-0.1,0.3-0.1l0,0c0.1,0,0.3-0.1,0.1-0.3c-0.1,0,0.1,0.1-0.1,0.1c0-0.1,0.2-0.2,0.4-0.2v0.2c0.2-0.2,0.4-0.3,0.6-0.4
			c0-0.1,0,0.2-0.1,0.2c0.3,0.1,0.6-0.3,0.9-0.1c0,0-0.1-0.2,0-0.1s0.2,0.2,0.3,0.1c0,0.1,0.1,0,0.2-0.1v0.1c0.3-0.2,0.7-0.3,1-0.2
			c0-0.1,0.1-0.3,0.2-0.3v0.2c0.1,0.1,0.2-0.1,0.3,0.1c0.1-0.2-0.6,0.3-0.4,0.1c0.1,0.1,0.2-0.3,0.2-0.1c0.1,0,0.2-0.2,0.4-0.1
			c0,0-0.1,0.2,0,0.2s0-0.1,0.2-0.2l0.1-0.1c0-0.1,0.2,0,0.1-0.2c0.1,0.1,0.3-0.1,0.3,0.1v0.2c0.1,0,0.1-0.2,0.2-0.3l0.1,0.1
			c-0.1-0.3,0.2,0,0.3-0.3c0.2,0.1,0.5-0.1,0.6,0.1c0.1-0.1,0.2-0.2,0.4-0.2c-0.1,0-0.1,0-0.1,0.1v0c0.1,0.1,0.1,0,0.2-0.1l0.4,0.2
			c0.1-0.1,0-0.3,0-0.4c0.2,0.3,0.4-0.3,0.6,0c0,0-0.2,0.2,0,0.2c0.2,0.3,0.2-0.3,0.5-0.2l-0.1-0.2c0.1,0.1,0.3-0.2,0.3,0
			c0.1-0.1,0.3,0,0.2-0.2c0.4,0.1,0.8-0.3,1.1,0.1c0,0,0.2,0,0.1-0.1s-0.1,0.1-0.1,0v-0.1c0.1,0,0.2,0,0.2,0.2
			c0.3,0.1,0.1-0.5,0.5-0.4c0,0.1,0,0.1,0.1,0.1l0.1-0.2c0.2,0,0.2,0.2,0.2,0.4c0.1-0.1,0.2-0.1,0.2-0.2l0.2,0.2
			c-0.1-0.1,0.1-0.1,0.1-0.2v0.1c0,0.1,0.1,0,0.2,0s-0.2-0.1-0.2-0.1s0.1-0.1,0.2-0.2c0,0.2,0.2,0.1,0.3,0.1s0.1-0.2,0.1-0.2
			s0.2,0,0.1,0.1s-0.1-0.1-0.1,0s0.1,0.2,0.2,0.1s-0.1-0.3,0.1-0.3v0.2h0.2l0,0c0-0.2,0.3-0.1,0.2-0.3c0.1,0,0.2,0.1,0.3,0.1l0,0
			c0.1,0.1,0.2,0,0.3-0.1l0,0c0.1,0,0.2-0.1,0.2-0.2c0.2,0.1,0.2,0.5,0.3,0.3c0.1,0,0.1-0.3,0.1-0.4c0.3,0,0.5-0.3,0.8-0.2v-0.2
			c0.4-0.1,0.7-0.4,1.1-0.2c-0.1,0.1,0,0.1,0.1,0.2c0-0.2,0.1,0.1,0.1-0.1s-0.1-0.2-0.2-0.2c0.2-0.1,0.5-0.2,0.7-0.2
			c-0.1,0,0-0.1,0-0.1c0,0.2,0.2,0.2,0.3,0.1v-0.1l0.1,0.1c0-0.1,0-0.3,0.1-0.2l0.1,0.1c0.1-0.2,0.2-0.4,0.4-0.3l0.2,0.1
			c0.1,0,0.1-0.2,0-0.2c0.3,0,0.4,0,0.5,0.1c0.3-0.5,0.8-0.8,1.3-0.9v0.1c0.2,0,0-0.2,0.1-0.2s0.2,0.2,0.1,0.3
			c0.2,0,0.2-0.3,0.3-0.4s-0.1,0.1-0.1,0s0.3,0,0.2-0.2c0.1,0.1,0.1,0.2,0.1,0.3l0.1-0.1c0.2,0.2-0.1,0.5,0.1,0.7l0.1-0.1
			c0.2,0.1-0.2,0.3,0.1,0.3c0.1-0.1,0.1-0.5-0.1-0.5c0.2-0.2-0.1-0.5,0.2-0.6c0.1,0.1-0.2,0.1-0.1,0.2s0.2-0.2,0.3-0.2
			c-0.1,0-0.1-0.2-0.1-0.3c0.2,0,0,0.2,0.2,0.2c0-0.1,0.1-0.3-0.1-0.3c0-0.3,0.2,0,0.2-0.3c0.1,0.1,0,0.5,0.2,0.5
			c-0.1-0.1,0.1-0.3-0.1-0.5c0.1,0,0.1,0.1,0.1,0.3s0.1-0.4,0.3-0.1V150c0.1,0,0.1,0.1,0.2,0.1s0.2-0.4,0.3-0.1
			c0.1-0.1,0.2-0.2,0.1-0.3c0,0,0,0,0,0c-0.2,0-0.1,0.2-0.3,0c0.2,0.1,0.2-0.1,0.2-0.2l0.1,0.1c0-0.1,0.1-0.1,0.1-0.2
			c0,0.1,0,0.1,0.1,0.1v-0.2c0.1-0.2,0.1,0.2,0.3,0.1l-0.1,0.2c0.1,0.1,0.1,0.1,0.2,0c0,0,0,0,0,0c0-0.2,0-0.3-0.1-0.5
			c0.1-0.1,0.1,0.1,0.1-0.1l-0.1,0.2c0,0.1,0.1,0.2,0.2,0.1c0,0,0,0,0.1,0c0.1-0.1,0.1-0.4-0.1-0.4c0.1,0,0.2,0,0.2,0.1
			c0.1-0.1-0.1-0.1,0-0.3c0.1,0.1,0.3,0.1,0.5,0.1v0.3l0.1-0.1c0,0.2,0.1,0.1,0.1,0.3c0.1,0,0.1-0.1,0.2-0.2c-0.3-0.2,0-0.5-0.2-0.8
			c0.2-0.2,0.5,0.6,0.5,0c-0.1,0-0.1-0.3-0.2-0.1c0.2-0.1,0-0.3,0.2-0.3c-0.1,0.2,0.3,0.2,0.2,0.5c0-0.1-0.1,0-0.2,0
			c0.1,0.1,0.1,0.3,0.3,0.2s0.2-0.2,0.1-0.3s-0.1,0.1-0.1-0.1c0.2-0.2,0.3,0,0.2-0.3c-0.1,0.1-0.2,0-0.3-0.1l0.1-0.1v0.1
			c0.2-0.1,0-0.2,0.2-0.3l0.2,0.1c0,0.2-0.3,0.1-0.2,0.4c0.1-0.1,0.1-0.2,0.3-0.3l-0.1,0.1c0,0,0.3,0.3,0.4-0.1c0-0.2,0-0.1-0.1-0.2
			c0.1-0.1,0.2-0.3,0.3-0.5c0.1,0.2,0.2-0.2,0.2,0.2c-0.1-0.1-0.4,0.2-0.4,0.4c0.2,0.2-0.2,0.1-0.1,0.4c0.2-0.1,0.3,0.1,0.4,0.3
			c0.1,0,0.1-0.1,0.1-0.2s-0.1-0.1-0.2-0.3c0.2-0.1,0.3-0.3,0.4-0.5c0.1,0,0.2,0.1,0.1,0.2c0,0,0,0,0,0.1c0.2-0.2,0.4-0.4,0.7-0.5
			c-0.3-0.1,0.2-0.2,0-0.4c-0.1,0-0.3-0.1-0.3-0.2c0.1,0,0.1,0,0.1,0.1v0c0-0.2,0.2,0.1,0.2-0.2c-0.2,0.2,0.1,0.3,0.2,0.5
			c0.1-0.2,0.1,0.1,0.2,0c0.1-0.2,0.2-0.4,0.4-0.6c0.3,0,0.5-0.4,0.6-0.6c0.1,0,0.2,0.3,0.3,0.2s-0.2-0.1,0-0.2v0.1
			c0-0.1,0.4-0.2,0.2-0.5l0.1,0.3v-0.1c0,0.1,0.1,0.1,0.1,0.2c0.2,0,0.2-0.2,0.3-0.4l-0.2-0.1c0.1-0.3,0.3-0.3,0.5-0.5l0.1,0.1
			l0.1-0.2c0.1,0.1,0.2,0.1,0.2,0l-0.1,0.6c-0.1,0,0-0.2-0.1-0.3s-0.3,0.1-0.2,0.3c0.1-0.1,0.1-0.1,0.1-0.2c0.1,0.1,0,0.2,0.1,0.4
			c0.1,0,0.1,0,0.1-0.1v0c0,0.1-0.1,0.2-0.2,0.3c0-0.1,0-0.1-0.1-0.1h0c0.1,0.2,0,0.3-0.1,0.4c-0.2-0.1-0.2,0.4-0.4,0.5v-0.6
			c-0.1,0-0.1,0.1-0.3,0.1c0,0.2,0.1,0.4,0,0.6l-0.1-0.1c-0.1,0.2,0,0.3-0.1,0.5c-0.3,0.2-0.6,0.4-0.8,0.6l-0.1-0.1
			c0,0.3-0.3,0.4-0.4,0.6c-0.3,0.1-0.5,0.6-0.8,0.5c-0.4,0.5-0.8,0.9-1.4,1.2v-0.2c0,0.2-0.1-0.1-0.2,0c0.2,0.1,0,0.3-0.1,0.4
			c-0.3,0-0.5,0.3-0.7,0.6l-0.1-0.1c-0.1,0.4-0.5,0.3-0.7,0.4c-0.1,0-0.1,0-0.2-0.1c0,0.2-0.1,0.4-0.3,0.5c-0.2,0.1-0.4,0.2-0.6,0.2
			c-0.5,0.6-1.2,0.7-1.7,1.2l-0.1-0.1c-0.5,0.6-1.4,0.6-1.9,1v-0.3c-0.2,0-0.4,0.2-0.3,0.4c-0.2,0-0.4,0.3-0.6,0.1
			c-0.2,0-0.2,0.2-0.3,0.3c-0.3,0-0.6,0.1-0.8,0.2h0.1c0-0.1,0-0.2-0.1-0.2s-0.5,0.1-0.3,0.3c-0.4-0.1-0.8,0.4-1.2,0.3
			c0.1,0.1,0,0.1,0,0.2c-0.3,0.1-0.7,0-0.9,0.3c-0.1,0,0-0.2-0.1-0.1s0,0.1,0,0.2c-0.5,0.3-1.1,0.1-1.5,0.3
			c-0.8,0.3-1.6,0.6-2.5,0.7v-0.1c-0.2,0.3-0.7-0.1-0.8,0.3c-0.1,0-0.3,0-0.2-0.1c-0.2,0.2-0.6,0-0.9,0.2l0.1-0.1
			c-0.3-0.1-0.6,0.2-0.9,0.1l0.1-0.1c-0.2-0.1-0.2,0.3-0.4,0c-0.1,0,0,0.2,0,0.1c-0.8,0.1-1.5,0.2-2.2,0.5c-0.6-0.1-0.1-0.5-0.5-0.2
			v0.1c-0.1,0.1-0.3-0.3-0.4-0.1c0.1,0.2-0.1,0.1,0,0.2c-0.4-0.1-0.5-0.2-0.7-0.1v-0.1c-0.2,0.3-0.6,0.2-0.8,0.6
			c-1.7,0.3-3.3,0.7-4.9,0.9s-3.2,0.5-4.9,0.5c-0.3-0.2-0.6-0.2-0.9,0v-0.1c0,0.2-0.3,0.1-0.3,0.3c-0.6,0-1.2,0.2-1.8,0.2
			c0.1,0,0.1-0.2,0-0.2l-0.1,0.2v-0.1c-0.1,0-0.1,0.2,0,0.2c-1.5,0.4-3.2,0.2-4.7,0.5c-0.5,0-0.9,0.1-1.3,0.3
			c-1.2-0.2-2.4,0-3.5,0.4C118.1,160.8,118.1,160.2,118.6,160z"/>
		<path class="st2" d="M330.1,164.2c-1.6,0.6-3.8,0.1-5.5,0.6c-0.2,0,0-0.3-0.4-0.2c-2.1,0.4-4.3,0.5-6.5,0.2l0.1-0.1
			c-0.4,0-0.8,0.3-1.3,0.3c0-0.1,0.1-0.1,0-0.2c-0.1,0.2-0.8,0.1-0.9,0.3c-0.2-0.1-0.2-0.2-0.4-0.3L315,165
			c-0.6,0.5-1.6,0.1-2.5,0.4c0,0,0.1-0.1,0-0.1c-1.6,0.3-3.3,0.6-4.9,0.7c0.1-0.1,0.1-0.2,0-0.3c0,0,0,0,0,0c0,0.2-0.5,0.3-1,0.4
			c-0.2-0.2-0.7,0.3-1.3,0.2l0,0c-0.3,0.3-0.6-0.1-0.8,0.2l-0.3-0.2c-0.1,0.3-0.6-0.1-0.9,0.1v0.1c-0.2,0.1-0.5,0.1-0.7,0l0,0
			c-0.6,0.1-1,0-1,0.2c-0.3-0.2,0.6-0.1,0.2-0.4c-2.1,0.4-4.3,0.5-6.4,0.7c-0.3-0.1-0.4-0.1-0.5-0.2c-0.2,0.1-0.8,0.1-1,0.2
			c0.1,0-0.2-0.1-0.3-0.1c-0.4-0.1-0.4,0.3-0.8,0.2c0.2-0.1,0.2-0.2,0.1-0.2c-0.4,0.2-0.8,0.3-1.2,0.3c0.1,0,0.2-0.1,0.1-0.1
			c-0.4,0.2-0.9,0-1.2,0.2l0.1-0.1c-0.7-0.1-0.1,0.3-0.7,0.2c0.1-0.1,0.1-0.1,0.1-0.2c-0.6,0.2-1.3,0.4-1.9,0.4v-0.1
			c-0.6,0-1.2,0.1-1.8,0.2c-0.2,0,0-0.3-0.6-0.2c0.1,0.3-1,0.2-0.6,0.5c-0.6,0-1.1,0-1.7,0.1c0.2-0.1-0.3-0.3,0.1-0.4l-0.4-0.1
			c0-0.1,0.3,0,0.2-0.1s-0.8,0.2-1,0.2c-0.4,0.3-0.8,0.5-1.3,0.6c0.3-0.1-0.2-0.3,0-0.4l-0.8,0.6c-0.2,0-0.1-0.2-0.4-0.1
			c0,0.1-0.1,0.1-0.2,0.2s-0.9,0.1-1-0.1s0.3-0.1,0.1-0.2c-0.4,0-0.4,0.1-0.8,0.2l0,0c-0.3,0-0.8,0.2-0.4,0.3c0.2,0-0.1-0.2,0.2-0.1
			c-0.3,0.2-0.6,0.3-1,0.3c0.1-0.1,0.1-0.1,0.1-0.2c-0.5,0.3-1.1,0.4-1.7,0.5c0,0.1,0.2-0.3,0.3-0.2c-0.8-0.1-1.6,0.4-2.3,0.1
			c0.1,0,0.1,0.2,0.1,0.1c-0.4,0-0.4-0.2-0.6-0.1c0-0.1-0.3,0.1-0.5,0.1s-0.1-0.1,0.1-0.1c-0.8,0.2-1.7,0.3-2.6,0.3
			c0,0.1-0.5,0.3-0.6,0.3v-0.2c-0.2-0.1-0.6,0.1-0.7-0.1c-0.4,0.2,1.5-0.3,1-0.1c-0.2-0.1-0.7,0.3-0.6,0.1c-0.4,0-0.7,0.2-1.1,0.1
			c0.1,0,0.3-0.3,0-0.2c-0.5,0.1-0.1,0.1-0.6,0.2l-0.3,0.1c0,0.2-0.5,0-0.3,0.2c-0.1-0.1-0.8,0.1-0.8-0.1v-0.2
			c-0.2,0-0.3,0.3-0.5,0.4l-0.1-0.1c0,0.3-0.6,0-0.8,0.3c-0.5-0.1-1.2,0.1-1.5-0.1c-0.4,0.1-0.7,0.3-1.1,0.2c0.1,0,0.1,0,0.2-0.1
			c-0.3-0.1-0.3,0-0.6,0.1l-0.9-0.3c-0.4,0.1-0.2,0.3-0.2,0.4c-0.4-0.3-1,0.3-1.5,0c0.1-0.1,0.5-0.2,0.2-0.3
			c-0.4-0.3-0.7,0.3-1.2,0.1l0.2,0.3c-0.3-0.2-0.8,0.2-0.8-0.1c-0.2,0.1-0.7-0.1-0.6,0.2c-0.9-0.2-2.2,0.2-2.8-0.2
			c-0.1,0-0.4,0-0.4,0.2c0.2,0.1,0.3-0.1,0.4,0c-0.1,0-0.1,0-0.1,0.1v0c-0.3,0-0.5-0.1-0.3-0.3c-0.6-0.1-0.6,0.5-1.4,0.4
			c0-0.1,0-0.1-0.3-0.1l-0.4,0.2c-0.5,0-0.3-0.2-0.3-0.4c-0.3,0-0.6,0-0.7,0.2l-0.3-0.2c0.3,0.2-0.2,0.1-0.3,0.2h0.1
			c-0.1-0.1-0.4,0-0.5,0s0.4,0.2,0.6,0.2c-0.1,0.1-0.4,0.1-0.5,0.2c0.1-0.2-0.5-0.1-0.7-0.1c-0.1,0-0.2,0.1-0.3,0.2
			c0-0.1-0.4,0-0.2-0.1s0.2,0.1,0.3,0c-0.2-0.1-0.2-0.2-0.5-0.1s0.1,0.4-0.4,0.3c0.1,0,0.1-0.1,0.2-0.2l-0.5-0.1v0.2
			c-0.1,0,0-0.1,0-0.1c-0.1,0.2-0.7,0.1-0.8,0.3c-0.2,0-0.5-0.1-0.7-0.1l0,0c-0.3-0.1-0.6,0-0.9,0.1l0,0c-0.2,0-0.5,0-0.7,0.1
			c-0.4-0.1-0.1-0.6-0.5-0.4c-0.4,0-0.6,0.3-0.4,0.4c-0.7-0.1-1.5,0.2-2.1-0.1c-0.1,0.1,0,0.1-0.2,0.2c-1-0.1-2.1,0.2-2.9-0.1
			c0.3-0.1,0-0.2,0-0.3c-0.2,0.2-0.3-0.2-0.4,0.1s0,0.2,0.3,0.3c-0.6,0.1-1.2,0.1-1.8-0.1c0.2,0.1,0,0.1-0.1,0.2
			c0.1-0.2-0.4-0.3-0.7-0.2l-0.1,0.1l-0.2-0.2c-0.1,0-0.2,0.3-0.5,0.2l-0.1-0.2c-0.4,0.2-0.8,0.2-1.2,0.2l-0.3-0.2
			c-0.2,0-0.4,0.1-0.2,0.2c-0.4,0-0.8-0.2-1.2-0.4c-1.3,0.3-2.7,0.4-4,0.3l0.1-0.1c-0.3-0.1-0.2,0.2-0.4,0.1
			c0.1-0.1-0.2-0.2,0.1-0.4c-0.3,0-0.7,0-1,0.2c-0.1,0.1,0.3-0.1,0.2,0.1s-0.7-0.2-0.8,0c-0.1-0.1,0-0.2,0.1-0.3l-0.3,0.1
			c-0.3-0.3,0.9-0.4,0.6-0.7h-0.3c-0.2-0.2,0.8-0.2,0.1-0.3c-0.3,0.1-0.6,0.4-0.4,0.5c-0.6,0-0.4,0.5-1.1,0.4
			c-0.2-0.1,0.5,0,0.5-0.2c-0.3-0.2-0.6,0.1-0.9,0c0.3,0.1,0,0.3-0.2,0.3s0.3-0.2-0.2-0.2c-0.1,0.1-0.6,0.2-0.2,0.3
			c-0.2,0.3-0.5-0.1-0.8,0.1c-0.1-0.2,0.6-0.4,0.1-0.6c0,0.2-0.7,0.2-0.5,0.5c-0.2-0.1-0.2-0.2,0-0.3c-0.3-0.1-0.8,0.3-0.8-0.1
			l-0.1,0.2c-0.1-0.1-0.2-0.1-0.3-0.2c-0.3,0-0.9,0.2-0.8-0.1c-0.1,0-0.7,0-0.5,0.2s0.5-0.1,0.6,0.2c-0.2-0.2-0.5,0-0.8,0v-0.1
			c-0.1,0-0.4,0-0.5,0.1c0.1-0.1,0.1-0.1,0-0.2l-0.2,0.2c-0.5,0,0-0.3-0.6-0.3l0.4-0.1c-0.1,0-0.2-0.2-0.5-0.1
			c-0.1,0.2-0.4,0.3-0.5,0.4c-0.3,0-0.1-0.2-0.4-0.1l0.5-0.1c0.1,0-0.2-0.3-0.5-0.3s-0.7,0.2-0.4,0.3c-0.2,0-0.4-0.2-0.2-0.2
			c-0.5,0,0,0.2-0.4,0.2c-0.1-0.1-0.5-0.3-0.8-0.5l0.5-0.2h-0.3c0.4-0.2-0.1-0.2,0.1-0.4c-0.2-0.1-0.4,0-0.6,0
			c0.4,0.4-0.7,0.4-0.7,0.8c-0.7,0-0.2-0.8-1.1-0.4c0.1,0.1-0.3,0.3,0.1,0.3c-0.4-0.1-0.4,0.3-0.9,0.1c0.4-0.1-0.3-0.4,0.3-0.5
			c-0.1,0.1,0.3,0.1,0.4,0.1c-0.1-0.1,0.2-0.3-0.3-0.4c-0.3,0-0.7,0-0.7,0.1s0.4,0,0.2,0.2c-0.6,0-0.6-0.3-0.9,0
			c0.3,0,0.4,0.2,0.3,0.3h-0.4l0.1-0.1c-0.6-0.2-0.3,0.2-0.9,0.1l-0.2-0.3c0.2-0.2,0.9,0.2,0.9-0.1c-0.4-0.1-0.6,0.1-0.9-0.1h0.3
			c-0.1,0-0.1-0.5-0.8-0.3c-0.3,0.1-0.1,0.1-0.2,0.2c-0.4-0.1-0.9-0.1-1.3,0c0.2-0.2-0.7-0.1-0.1-0.3c0.4,0.2,0.9,0.3,1.4,0.1
			c-0.1-0.3,0.5,0.1,0.7-0.1c-0.5-0.1-0.3-0.4-0.4-0.6h-0.4c-0.1,0.2,0,0.2,0,0.4c-0.5-0.1-1-0.1-1.5,0c-0.2-0.1,0-0.3,0.2-0.3
			c-0.7-0.1-1.3-0.2-2-0.4c0.3,0.4-0.7-0.1-0.6,0.2c0.3,0.1,0.5,0.4,0.2,0.5c-0.2-0.1,0.1-0.1,0-0.2c-0.4,0.1-0.3-0.3-0.7-0.1
			c0.7,0,0.3-0.3,0.5-0.5c-0.5,0,0.1-0.2-0.3-0.2c-0.5,0.1-1.1,0.1-1.6,0c-0.7-0.2-1.4-0.4-2.1-0.4c-0.2-0.2,0.1-0.4-0.1-0.5
			c-0.4-0.1,0.1,0.3-0.4,0.1h0.1c-0.2,0-0.9-0.4-1.2-0.1l0.3-0.2c-0.1-0.1-0.2,0-0.3,0c0.1-0.1,0-0.2,0.2-0.2
			c-0.2-0.3-0.7-0.1-1.1-0.2l0.1,0.2c-0.5-0.1-1.1-0.2-1.6-0.4l0.1-0.1h-0.4c0.2-0.1,0-0.3-0.3-0.2l1.2-0.2c0.2,0.2-0.4,0.1-0.4,0.3
			s0.6,0.3,0.8,0.1c-0.2-0.1-0.2,0-0.4,0c0.1-0.2,0.4-0.1,0.6-0.3c-0.1,0-0.2-0.1-0.3-0.1c0.3-0.1,0.5,0,0.9,0.1
			c-0.3,0,0,0.2-0.1,0.2c0.2-0.2,0.5-0.2,0.9,0c0.2,0.3,0.9,0.1,1.4,0.2c-0.3,0.1-0.7,0.2-1,0.2c0.3,0.2,0.4,0.1,0.6,0.3
			c0.3-0.2,0.6-0.3,1-0.3l-0.1,0.1c0.4,0,0.5-0.2,1,0c0.7,0.2,1.5,0.4,2.2,0.5l-0.1,0.1c0.5-0.2,1.2,0.1,1.8,0
			c0.7,0.3,1.8,0.2,2.1,0.5c1.5,0.2,2.8,0.2,4.3,0.4l-0.3,0.2c0.3-0.1,0.1,0.1,0.4,0.1c-0.2-0.2,0.5-0.2,0.7-0.3
			c0.7,0.2,1.5,0.2,2.2,0.1v0.2c0.7-0.1,1.4,0,2.1,0.3c0.1,0.1,0.2,0.2,0.4,0.2c0.9-0.4,2-0.4,2.9,0c1.7-0.2,3.4,0.1,5.1,0l0.1,0.2
			c1.7-0.3,3.7,0.1,5.2,0l-0.2,0.3c0.4,0.1,1,0,0.9-0.3c0.4,0.1,1.1-0.1,1.4,0.2c0.5,0.1,0.6-0.1,1-0.2c0.7,0.1,1.4,0.2,2.1,0.1
			h-0.2c-0.1,0.1-0.1,0.2,0.1,0.2s1.2,0.1,0.9-0.3c0.9,0.2,2.2-0.2,3.1,0.1c-0.1-0.1,0.2-0.1,0.2-0.2c0.8,0.1,1.5,0.1,2.3,0
			c0.1,0.1-0.2,0.2,0.1,0.2s0-0.1,0.2-0.2c1.3-0.1,2.6,0,3.9,0.1c2.1-0.3,4.4-0.2,6.4-0.3v0.1c0.7-0.3,1.6,0.2,2.1-0.2
			c0.2,0.1,0.6,0,0.5,0.2c0.5-0.2,1.6,0.1,2.3-0.2h-0.2c0.8,0.1,1.5-0.1,2.4,0c-0.1,0-0.2,0.1-0.3,0.1c0.4,0.1,0.7-0.3,1,0
			c0.2,0,0.1-0.2,0-0.2c1.9-0.1,3.8-0.2,5.7-0.5c1.4,0.1,0.2,0.6,1.2,0.3c0.1,0.1,0-0.1,0.1-0.1c0.4-0.1,0.7,0.4,1,0.2
			c-0.2-0.2,0.2-0.1,0.2-0.3c0.9,0.1,1.1,0.3,1.7,0.1v0.1c0.7-0.4,1.7-0.3,2.2-0.7c4.3-0.4,8.3-0.9,12.5-1.2s8.2-0.7,12.4-0.9
			c0.7,0.2,1.5,0.2,2.2,0c0,0-0.1,0.1,0,0.1c0-0.3,0.8-0.1,0.8-0.3c1.6-0.1,3-0.3,4.6-0.4c-0.3,0-0.3,0.3,0,0.2l0.3-0.2l0.1,0.1
			c0.2-0.1,0.4-0.2,0.2-0.3c4-0.5,8.1-0.3,12.1-0.6c1.1,0,2.2,0,3.3-0.2c3,0.3,6,0.3,9,0C331.7,163.4,331.3,164,330.1,164.2z"/>
		<path class="st2" d="M151.7,131.9c-1.1,0.9-3.1,1.1-4.5,1.8c-0.2,0.1-0.1-0.3-0.4-0.1c-1.3,0.8-3.8,1.1-5.6,1.2l0.1-0.1
			c-0.4,0-0.7,0.4-1.1,0.4c0,0,0.1-0.1,0-0.1c-0.1,0.2-0.7,0.2-0.8,0.3s-0.2-0.2-0.4-0.2l-0.2,0.2c-0.5,0.5-1.4,0.2-2.2,0.6
			c0,0,0.1-0.1,0-0.1c-1.4,0.4-2.9,0.6-4.4,0.8c0.1-0.1,0.1-0.2,0-0.3c0,0,0,0,0,0c-0.1,0.2-0.5,0.3-0.9,0.3
			c-0.2-0.2-0.7,0.2-1.1,0.1l0,0c-0.3,0.2-0.5-0.1-0.8,0.2l-0.2-0.1c-0.1,0.3-0.5-0.1-0.8,0v0.1c-0.3,0.1-0.4-0.1-0.7,0l0,0
			c-0.6,0.1-0.9-0.1-0.9,0.2c-0.2-0.2,0.6-0.1,0.2-0.3c-1.9,0.3-3.9,0.3-5.8,0.2c-0.2-0.1-0.3-0.1-0.4-0.2c-0.3,0-0.6,0-0.9,0.1
			c0.1,0-0.1-0.1-0.2-0.1c-0.3-0.1-0.4,0.2-0.8,0.1c0.2-0.1,0.2-0.1,0.2-0.2c-0.3,0.2-0.8,0.1-1.2,0.2c0.1,0,0.2-0.1,0.1-0.1
			c-0.4,0.2-0.8-0.1-1.1,0l0.1-0.1c-0.6-0.2-0.2,0.3-0.7,0.1c0.1,0,0.1,0,0.1-0.1l0,0c-0.6,0.1-1.2,0.2-1.8,0.1l0,0
			c-0.5-0.1-1.1-0.1-1.6,0c-0.2-0.1,0.1-0.3-0.5-0.3c0,0.3-1,0-0.7,0.3c-0.5-0.1-1-0.2-1.5-0.2c0.2-0.1-0.2-0.3,0.2-0.3l-0.3-0.2
			c0.1-0.1,0.3,0.1,0.2-0.1c-0.2,0-0.8,0.1-0.9,0c-0.4,0.2-0.9,0.3-1.3,0.4c0.3-0.1-0.1-0.3,0.1-0.3l-0.9,0.4c-0.2,0,0-0.2-0.3-0.2
			c0,0.1-0.1,0.1-0.2,0.1s-0.8,0-0.9-0.2s0.3,0,0.1-0.1c-0.4,0-0.4,0.1-0.8,0l0,0c-0.2-0.1-0.7,0.1-0.5,0.2s0-0.2,0.2-0.1
			c-0.3,0.1-0.7,0.1-1,0.1c0.1,0,0.1-0.1,0.2-0.2c-0.5,0.2-1.1,0.2-1.6,0.2c0,0.1,0.2-0.2,0.3-0.1c-0.7-0.2-1.5,0.1-2-0.1
			c0.1,0,0,0.2,0,0.1c-0.3,0-0.3-0.2-0.5-0.2c0-0.1-0.3,0-0.5,0s-0.1-0.1,0.1-0.1c-0.8,0.1-1.5,0.1-2.3-0.1c0,0.1-0.5,0.2-0.6,0.2
			l0.1-0.1c-0.1-0.1-0.6,0-0.6-0.2c-0.4,0.2,1.4-0.1,0.9,0c-0.1-0.1-0.7,0.2-0.6,0c-0.3,0.1-0.7,0.1-1,0c0.1,0,0.3-0.2,0-0.2
			c-0.5,0-0.1,0.1-0.5,0.1h-0.3c0,0.1-0.4,0-0.3,0.1c0-0.1-0.7,0-0.6-0.2l0.1-0.2c-0.2,0-0.4,0.1-0.5,0.3l-0.1-0.1
			c-0.1,0.3-0.5,0-0.8,0.2c-0.4-0.1-1.1-0.1-1.3-0.3c-0.3,0.1-0.7,0.2-1,0.1c0.1,0,0.2,0,0.2-0.1c-0.2-0.1-0.3,0-0.5,0
			c-0.2-0.1-0.5-0.2-0.7-0.3c-0.3,0.1-0.2,0.2-0.3,0.3c-0.3-0.3-0.9,0.2-1.3-0.1c0.1,0,0.5-0.1,0.2-0.2c-0.3-0.3-0.6,0.2-1.1,0
			l0.1,0.2c-0.2-0.2-0.7,0.1-0.7-0.1c-0.2,0.1-0.6-0.1-0.5,0.2c-0.8-0.2-1.9,0.1-2.4-0.3c-0.1,0-0.4,0-0.3,0.1s0.3-0.1,0.3,0
			c-0.1,0-0.1,0-0.1,0.1l0,0c-0.2-0.1-0.4-0.1-0.2-0.3c-0.5-0.1-0.6,0.4-1.3,0.3c0-0.1,0-0.1-0.2-0.1l-0.4,0.2
			c-0.5,0-0.3-0.2-0.3-0.4c-0.3,0-0.5,0-0.7,0.2l-0.3-0.2c0.2,0.2-0.2,0.1-0.3,0.1h0.1c0-0.1-0.3,0-0.5,0c0,0.1,0.3,0.1,0.5,0.2
			c-0.1,0.1-0.3,0.1-0.5,0.1c0.1-0.2-0.4-0.1-0.6-0.1c-0.1,0-0.2,0-0.3,0.1c0-0.1-0.4,0-0.2-0.1s0.2,0.1,0.3,0
			c-0.1-0.1-0.1-0.2-0.4-0.1s0.1,0.3-0.4,0.2c0.1,0,0.1-0.1,0.2-0.2l-0.4-0.1v0.1c-0.1,0,0-0.1,0-0.1c-0.1,0.2-0.6,0.1-0.7,0.2
			s-0.4-0.1-0.6-0.1l0,0c-0.3-0.1-0.6,0-0.8,0.1l0,0c-0.2,0-0.4,0-0.6,0.1c-0.3-0.1-0.1-0.6-0.5-0.4c-0.3,0-0.5,0.3-0.4,0.4
			c-0.6-0.1-1.3,0.2-1.8,0c-0.1,0.1,0,0.1-0.2,0.1c-0.9,0.2-1.7,0.2-2.6,0c0.3-0.1,0-0.1,0-0.2c-0.2,0.1-0.3-0.1-0.3,0.1
			s0,0.2,0.3,0.2c-0.5,0.1-1.1,0.1-1.6,0c0.1,0.1,0,0.1-0.1,0.1c0-0.2-0.4-0.2-0.7-0.1v0.1l-0.2-0.1c-0.1,0-0.1,0.3-0.4,0.2
			l-0.1-0.1c-0.3,0.1-0.7,0.3-1,0.2l-0.3-0.2c-0.1,0-0.4,0.2-0.1,0.2c-0.4,0-0.7-0.1-1.1-0.2c-1.1,0.4-2.2,0.7-3.4,0.7v-0.1
			c-0.3-0.1-0.1,0.2-0.4,0.1c0.1-0.1-0.3-0.2,0-0.3c-0.4-0.1-0.5,0.2-0.8,0.3c0,0.1,0.2-0.1,0.2,0.1c0,0-0.6,0-0.6,0.2
			c-0.1-0.1-0.1-0.2,0-0.3c0,0,0,0,0,0l-0.2,0.1c-0.4-0.2,0.7-0.5,0.3-0.7l-0.2,0.1c-0.3-0.2,0.6-0.3,0-0.3
			c-0.2,0.1-0.4,0.4-0.2,0.5c-0.5,0.1-0.2,0.5-0.8,0.5c-0.2-0.1,0.5-0.1,0.3-0.2s-0.5,0.1-0.8,0.1c0.3,0,0.1,0.3-0.1,0.3
			s0.2-0.2-0.3-0.2c-0.1,0.1-0.4,0.2-0.1,0.3c-0.1,0.3-0.5,0-0.6,0.2c-0.2-0.2,0.4-0.5-0.1-0.5c0.1,0.2-0.5,0.3-0.3,0.5
			c-0.2,0-0.2-0.2-0.1-0.3c-0.3-0.1-0.6,0.4-0.7,0.1l-0.1,0.2c-0.1,0-0.2-0.1-0.4-0.2s-0.7,0.3-0.7,0.1c-0.1,0-0.6,0.1-0.4,0.3
			s0.4-0.2,0.6,0c-0.3-0.2-0.5,0.1-0.6,0.2v-0.1c-0.1,0.1-0.4,0.1-0.4,0.2c0.1-0.1,0-0.1-0.1-0.1l-0.1,0.2c-0.4,0.1-0.2-0.3-0.6-0.2
			l0.3-0.2c-0.1,0-0.2-0.1-0.4,0s-0.2,0.3-0.2,0.5c-0.2,0.1-0.1-0.1-0.4,0l0.3-0.2c0-0.1-0.3-0.2-0.6-0.2s-0.5,0.3-0.1,0.4
			c-0.2,0-0.4,0-0.3-0.1c-0.4,0.1,0.1,0.1-0.2,0.3c-0.2-0.1-0.6-0.1-0.9-0.2l0.3-0.3h-0.2c0.3-0.2-0.2-0.1-0.1-0.3
			c-0.2,0-0.3,0.1-0.5,0.2c0.5,0.3-0.4,0.5-0.2,0.8c-0.6,0.2-0.5-0.6-1.1-0.1c0.1,0.1-0.1,0.3,0.2,0.2c-0.4,0-0.2,0.3-0.7,0.3
			c0.3-0.2-0.4-0.2,0-0.5c0,0.1,0.3,0,0.4,0c-0.2-0.1,0-0.3-0.4-0.2c-0.2,0.1-0.6,0.1-0.5,0.3s0.4-0.1,0.2,0.1
			c-0.5,0.1-0.6-0.1-0.7,0.2c0.3-0.1,0.4,0.1,0.4,0.2l-0.3,0.1v-0.1c-0.6,0-0.1,0.2-0.7,0.3l-0.3-0.2c0.1-0.2,0.8,0,0.6-0.3
			c-0.4,0-0.4,0.2-0.8,0.2l0.2-0.1c-0.1,0-0.4-0.4-0.8,0c-0.2,0.1,0,0.1,0,0.2c-0.4,0.1-0.7,0.2-1.1,0.4c0-0.2-0.6,0.1-0.3-0.2
			c0.4,0,0.8-0.1,1.2-0.3c-0.3-0.2,0.5,0,0.5-0.3c-0.5,0.1-0.5-0.2-0.6-0.3s-0.2,0.1-0.3,0.1c0,0.2,0.1,0.1,0.2,0.3
			c-0.4,0-0.8,0.2-1.2,0.4c-0.2-0.1-0.2-0.2,0-0.3c-0.6,0.2-1.2,0.3-1.8,0.3c0.4,0.2-0.6,0.2-0.3,0.4c0.3,0,0.6,0.1,0.5,0.3
			c-0.2,0,0-0.1-0.1-0.2c-0.2,0.2-0.4-0.2-0.6,0.1c0.5-0.2,0-0.3,0.1-0.6c-0.4,0.2,0-0.1-0.4-0.1c-0.4,0.2-0.8,0.4-1.3,0.5
			c-0.7,0-1.3,0.2-1.9,0.4c-0.3,0-0.2-0.3-0.5-0.3s0.3,0.2-0.2,0.2v-0.1c-0.1,0.1-0.9,0-1,0.4l0.1-0.3c-0.1,0-0.1,0-0.2,0.1
			c0-0.1-0.2-0.1,0-0.2c-0.4-0.1-0.6,0.2-0.9,0.2l0.3,0.1c-0.5,0.2-1,0.3-1.5,0.3V140l-0.3,0.2c0-0.2-0.3-0.2-0.4,0l0.7-0.5
			c0.3,0-0.2,0.2,0,0.3s0.6-0.1,0.7-0.2c-0.2,0-0.2,0.1-0.3,0.1c-0.1-0.2,0.2-0.2,0.3-0.4c-0.1,0-0.3,0-0.3,0.1
			c0.2-0.1,0.5-0.2,0.7-0.3c-0.2,0.1,0.2,0.1,0.1,0.2c0-0.2,0.3-0.3,0.7-0.3s0.7-0.3,1.2-0.3c-0.1,0.2-0.3,0.4-0.6,0.5
			c0.3,0,0.3-0.1,0.7-0.1c0.1-0.2,0.1-0.4,0.5-0.5l0.1,0.1c0.3-0.1,0.3-0.3,0.7-0.4c0.8-0.1,1.6-0.3,2.2-0.4l0.1,0.1
			c0.2-0.3,1.1-0.3,1.5-0.5c0.8,0,1.6-0.4,2-0.3c1.2-0.4,2.5-0.6,3.8-0.8l-0.2,0.2c0.2-0.2,0.2,0.1,0.4,0c-0.3-0.1,0.3-0.3,0.4-0.4
			c0.7,0,1.3-0.1,1.9-0.4v0.1c0.6-0.2,1.3-0.3,1.9-0.3c0.1,0,0.2,0.2,0.4,0.1c0.3-0.3,0.5-0.3,1.1-0.5c0.5-0.1,1-0.1,1.5,0
			c1.5-0.4,3.1-0.6,4.6-0.8l0.1,0.1c1.5-0.5,3.4-0.3,4.7-0.6l-0.1,0.3c0.4,0,0.9-0.1,0.8-0.3c0.4,0.1,1-0.2,1.3,0
			c0.4,0,0.5-0.2,0.8-0.2c0.6,0.1,1.3,0,1.9-0.1h-0.2c-0.1,0.1-0.1,0.2,0.1,0.2s1.1,0,0.8-0.3c0.9-0.1,1.9-0.1,2.8,0
			c-0.1-0.1,0.1-0.1,0.2-0.2c0.7,0.1,1.4,0.1,2.1,0c0.1,0-0.2,0.2,0.1,0.2s0-0.1,0.2-0.2c1.2-0.1,2.3,0,3.5,0.1
			c1.9-0.1,3.9-0.2,5.8-0.1v0.1c0.6-0.2,1.4,0.3,2-0.1c0.1,0.1,0.6,0,0.4,0.2c0.5-0.2,1.4,0.2,2.1,0h-0.2c0.7,0.1,1.4,0.1,2.1,0.1
			c-0.1,0-0.2,0-0.2,0.1c0.3,0.1,0.7-0.2,0.9,0.1c0.2,0,0.1-0.2,0-0.1c1.7,0.1,3.5,0.2,5.2,0.1c1.2,0.3,0,0.5,1,0.4
			c0.1,0.1,0.1-0.1,0.1-0.1c0.4-0.1,0.5,0.4,0.8,0.2c-0.1-0.2,0.2-0.1,0.2-0.2c0.7,0.2,0.9,0.4,1.5,0.3l-0.1,0.1
			c0.7-0.2,1.5,0,2.2-0.3c3.9,0.2,7.6,0.3,11.3,0.5s7.3,0.2,11,0.4c0.6,0.2,1.3,0.2,1.9,0.1c0,0-0.1,0.1,0,0.1c0-0.2,0.7,0,0.8-0.2
			c1.4,0,2.6-0.2,4-0.3c-0.2,0-0.3,0.2,0,0.2l0.3-0.2l0.1,0.1c0.2,0,0.4-0.2,0.2-0.2c3.5-0.6,7-0.5,10.3-1.4c1-0.2,1.9-0.4,2.8-0.7
			c2.5-0.3,5-1,7.4-2C152.7,130.8,152.7,131.5,151.7,131.9z"/>
		<path class="st3" d="M824.2,150c0,0-94.5-48.8-380,0c-283.7,48.5-443.6-4.3-443.6-4.3s-13,35.6,54.2,76.2s794.6,26.9,829.2,18.2
			c34.6-8.7,52.3-22.4,48.3-45.9C928.3,170.7,876.7,170,824.2,150z"/>
		<path class="st4" d="M642.4,97c-4.2-34.3-20.8-110.1-101.9-95c-72.6,13.5-86.8,53.6-86.8,89.5c0,1.8,0.1,3.7,0.3,5.5H642.4z"/>
		<path class="st5" d="M666.7,97c-3.9-31-22.1-67.9-88.2-63.7c-48.1,3-87.3,26.3-87.3,58.8c0,1.7,0.1,3.3,0.3,5L666.7,97z"/>
		<path class="st6" d="M714.6,215c0,0-3-48.3,6-89.2c11-50.3,25.8-86.3,25.8-86.3"/>
		<path class="st7" d="M775.5,213.5c1.4-2.1,2.7-4.3,3.8-6.6c8.8-18,29.6-64.7,29.6-64.7c-7.6,7.6-14.7,15.7-21.2,24.3
			c-5.1,6.7-18.3,33.9-24.5,47.1C767.3,213.5,771.4,213.5,775.5,213.5z"/>
		<path class="st7" d="M698.9,218.5c8.9-1.3,18.4-2.4,28.5-3.2c-0.1-0.9-4.8-35.3,2.9-73.3c4.2-20.3,9.8-40.3,16.7-59.8
			c-10.5,17.3-18.4,36.1-23.5,55.7c-6.3,24.9-8.3,73.8-8.3,73.8s-5.6-5.4-6.2-30.3s5.2-88.5,5.2-88.5s-10.4,36-13.1,67.3
			C699.2,182.3,698.9,210.8,698.9,218.5z"/>
		<path class="st7" d="M761.8,213.6c2.4-9.1,6.6-25.3,9.5-40.9c4.5-23.2,24.6-78.3,24.6-78.3s-13.4,15.7-23.3,42.5
			c-7.1,19.2-27.7,72.9-27.7,72.9s9.9-57.5,17.2-84.5S791.7,49,791.7,49s-21.9,28.3-34.4,60.5c-9.4,24.2-29.5,104.1-30,106
			C738.2,214.4,749.6,213.8,761.8,213.6z"/>
		<path class="st8" d="M730.6,73.8c0.4-1.2,7.3-23.9,8.9-27.2c2.3-4.7,7.6-2.3,6.4,2.2c-0.9,3.3-7.1,24-8.6,27.9
			C735.4,81.8,728.4,80.3,730.6,73.8z"/>
	</g>
</g>
</svg>
