<svg xmlns="http://www.w3.org/2000/svg" xmlns:xlink="http://www.w3.org/1999/xlink" viewBox="0 0 106.78 109.56"><defs><style>.cls-1,.cls-9{fill:none;}.cls-2{fill:#7dc327;}.cls-3{clip-path:url(#clip-path);}.cls-4{fill:red;}.cls-5{fill:#fff;}.cls-6{fill:#ffe610;}.cls-7{clip-path:url(#clip-path-2);}.cls-8{fill:#fd0706;}.cls-9{stroke:#000;stroke-linecap:round;stroke-width:0.67px;}.cls-10{clip-path:url(#clip-path-3);}.cls-11{fill:#96ce17;}</style><clipPath id="clip-path"><path class="cls-1" d="M69.17,53.8s9.5,18.1,13.3,20.8c3.1,2.2,4.4,1.1,4.4,1.1s8.8-3,7.6-1-7.1,3.2-7.1,3.2,10.5.5,9.1,1.8-10.1,1.4-10.1,1.4,11.1,3,8.5,3.6c-3.6.8-12.9-.6-14.3-2.7S69,65.3,66.07,62C63.27,58.9,69.17,53.8,69.17,53.8Z"/></clipPath><clipPath id="clip-path-2"><path class="cls-1" d="M59.27,58.9s6.7,20.9,9.9,24.3c2.6,2.8,4.1,1.9,4.1,1.9s9.3-1.1,7.6.6-7.6,1.7-7.6,1.7,10.2,2.6,8.5,3.6-10.2-.6-10.2-.6,10.3,5.1,7.6,5.2c-3.7.1-12.5-3.2-13.4-5.5S55.27,67.8,53.17,64C50.57,59.6,59.27,58.9,59.27,58.9Z"/></clipPath><clipPath id="clip-path-3"><path class="cls-1" d="M19.87,72.2c6.9-3.3,21.7-13.1,27.4-5.5s-10.4,26.4-10.4,26.4,26.9.3,25.4,2.1-13.4.6-13.4.6,14.5,2.7,14.1,4.4-14.8-2-14.8-2,11.5,6.4,10.3,7.7-11.4-3.5-19.6-6.3-13.6,1-13-2.5,9.9-13.3,9.9-13.3-14.4,8.3-21.5,8.3C-3.23,92,13.57,75.3,19.87,72.2Z"/></clipPath></defs><title>rana</title><g id="Layer_2" data-name="Layer 2"><g id="Layer_1-2" data-name="Layer 1"><path class="cls-2" d="M86.17,9.8a9.46,9.46,0,1,1-18.9,0,9.46,9.46,0,1,1,18.9,0Z"/><path class="cls-2" d="M60.27,13.2c.7,6.1-4.4,10.1-9.7,10.1s-9.3-4.1-9.7-10.1c-.4-5.5,4.4-9.6,9.7-10.1C56.27,2.6,59.67,7.7,60.27,13.2Z"/><g class="cls-3"><path class="cls-2" d="M69.17,53.8s9.5,18.1,13.3,20.8c3.1,2.2,4.4,1.1,4.4,1.1s8.8-3,7.6-1-7.1,3.2-7.1,3.2,10.5.5,9.1,1.8-10.1,1.4-10.1,1.4,11.1,3,8.5,3.6c-3.6.8-12.9-.6-14.3-2.7S69,65.3,66.07,62C63.27,58.9,69.17,53.8,69.17,53.8Z"/><path class="cls-4" d="M86.17,73.2a27.22,27.22,0,0,1,1.2,4.8A19.45,19.45,0,0,1,86,82.5c-.3.8-1.2,2.8-1.2,2.8s1.6,3.3,2.4,3.5,5,2.1,7.9.9,7.7-3,8.5-6.8-1.8-10.5-1.8-10.5l-9.1-.8Z"/></g><path class="cls-5" d="M84.17,9.8a7.51,7.51,0,1,1-15,0,7.51,7.51,0,1,1,15,0Z"/><path class="cls-2" d="M54.67,7.4c19-2.8,52.2,15.8,52.1,26C106.67,48,80,47.5,80,47.5s-9.8,7.2-14,14.6C53,77.2,20,92.5,7.87,90.6c-7.9-1.3-9.7-7.4-6.1-30.9,3.6-24.2,31.7-34.4,31.7-34.4A25.77,25.77,0,0,1,54.67,7.4Z"/><path class="cls-5" d="M58.07,13.2c.5,4.7-3.4,7.8-7.5,7.8s-7.2-3.1-7.5-7.8c-.3-4.3,3.4-7.4,7.5-7.8C55,5,57.57,8.9,58.07,13.2Z"/><path d="M52,13.2a1.34,1.34,0,0,1-1.4,1.5,1.39,1.39,0,0,1-1.4-1.5,1.45,1.45,0,0,1,1.4-1.5A1.52,1.52,0,0,1,52,13.2Z"/><path d="M79.67,8.3a1.21,1.21,0,0,1-1.3,1.3,1.32,1.32,0,0,1-1.3-1.3A1.26,1.26,0,0,1,78.37,7C79.17,6.9,79.57,7.6,79.67,8.3Z"/><path class="cls-6" d="M80.07,47.5s-8.1.5-20.8-6.6c-24.8,36.3-49.1,42.9-51.2,49.7-.3.8,31.4-4,49.7-19.8C65.27,64.2,80.07,47.5,80.07,47.5Z"/><path d="M99,33.6a.9.9,0,1,1-.9-.9A1.06,1.06,0,0,1,99,33.6Z"/><path d="M104.07,32.2a1,1,0,0,1-2,0,.94.94,0,0,1,1-1A1,1,0,0,1,104.07,32.2Z"/><g class="cls-7"><path class="cls-2" d="M59.27,58.9s6.7,20.9,9.9,24.3c2.6,2.8,4.1,1.9,4.1,1.9s9.3-1.1,7.6.6-7.6,1.7-7.6,1.7,10.2,2.6,8.5,3.6-10.2-.6-10.2-.6,10.3,5.1,7.6,5.2c-3.7.1-12.5-3.2-13.4-5.5S55.27,67.8,53.17,64C50.57,59.6,59.27,58.9,59.27,58.9Z"/><path class="cls-4" d="M72.47,81.2a29.08,29.08,0,0,1,.3,5,23.54,23.54,0,0,1-2.1,4.2c-.5.8-1.7,2.6-1.7,2.6s1.1,3.5,1.8,3.9,4.5,2.9,7.7,2.2,8.2-1.7,9.6-5.3,0-10.7,0-10.7l-8.9-2.4Z"/></g><path class="cls-8" d="M93.47,73.8A1.5,1.5,0,1,0,95,72.3,1.42,1.42,0,0,0,93.47,73.8Z"/><path class="cls-8" d="M95.47,79.6A1.5,1.5,0,1,0,97,78.1,1.47,1.47,0,0,0,95.47,79.6Z"/><path class="cls-8" d="M94,84.7a1.5,1.5,0,1,0,1.5-1.5A1.54,1.54,0,0,0,94,84.7Z"/><path class="cls-8" d="M79.87,85a1.5,1.5,0,1,0,1.5-1.5A1.54,1.54,0,0,0,79.87,85Z"/><path class="cls-8" d="M80.47,90.6A1.5,1.5,0,1,0,82,89.1,1.47,1.47,0,0,0,80.47,90.6Z"/><path class="cls-8" d="M77.77,95.3a1.5,1.5,0,1,0,1.5-1.5A1.37,1.37,0,0,0,77.77,95.3Z"/><path class="cls-9" d="M80.07,47c-21.7,0-21.7-10.5-21.7-10.5"/><g class="cls-10"><path class="cls-11" d="M19.87,72.2c6.9-3.3,21.7-13.1,27.4-5.5s-10.4,26.4-10.4,26.4,26.9.3,25.4,2.1-13.4.6-13.4.6,14.5,2.7,14.1,4.4-14.8-2-14.8-2,11.5,6.4,10.3,7.7-11.4-3.5-19.6-6.3-13.6,1-13-2.5,9.9-13.3,9.9-13.3-14.4,8.3-21.5,8.3C-3.23,92,13.57,75.3,19.87,72.2Z"/><path class="cls-4" d="M49.17,91.3s.2,3.4-.3,4.5a21.91,21.91,0,0,1-2.2,4.4c-.5.7-1.9,2.5-1.9,2.5s.8,3.6,1.5,4,4.3,3.3,7.5,2.8,8.3-1,10-4.4.9-10.6.9-10.6l-8.6-3.1Z"/></g><path class="cls-8" d="M60.77,95.1a1.5,1.5,0,1,0,1.6-1.4A1.42,1.42,0,0,0,60.77,95.1Z"/><path class="cls-8" d="M61.17,99.7a1.5,1.5,0,1,0,1.6-1.4A1.62,1.62,0,0,0,61.17,99.7Z"/><path class="cls-8" d="M56.77,105.7a1.5,1.5,0,1,0,1.6-1.4A1.62,1.62,0,0,0,56.77,105.7Z"/><path class="cls-4" d="M18.57,65.1a3,3,0,1,0-2,3.8A3,3,0,0,0,18.57,65.1Z"/><path class="cls-4" d="M7.77,70a1.91,1.91,0,0,0-2.2-1.2A1.91,1.91,0,0,0,4.37,71a1.85,1.85,0,0,0,2.2,1.2A1.81,1.81,0,0,0,7.77,70Z"/><path class="cls-4" d="M28.77,56.6a1.36,1.36,0,1,0-.9,1.7A1.39,1.39,0,0,0,28.77,56.6Z"/><path class="cls-4" d="M12.77,73.8a1.36,1.36,0,1,0-.9,1.7A1.39,1.39,0,0,0,12.77,73.8Z"/><path class="cls-4" d="M6.07,62.1A2.47,2.47,0,1,0,7.67,59,2.47,2.47,0,0,0,6.07,62.1Z"/><path class="cls-4" d="M20.07,49.5a2.46,2.46,0,1,0,2.2-2.7A2.61,2.61,0,0,0,20.07,49.5Z"/><path class="cls-4" d="M10,52.7a3.07,3.07,0,0,0,3.2,2.7,3.07,3.07,0,0,0,2.7-3.2,3,3,0,1,0-5.9.5Z"/><path class="cls-4" d="M21.37,58a1.91,1.91,0,0,0-2.2-1.2A1.91,1.91,0,0,0,18,59a1.85,1.85,0,0,0,2.2,1.2A1.69,1.69,0,0,0,21.37,58Z"/></g></g></svg>