<svg xmlns="http://www.w3.org/2000/svg" viewBox="0 0 184.1 222.7"><defs><style>.cls-1{fill:#f3a5c2;}.cls-2{fill:#e2e1d7;}.cls-3,.cls-4{fill:none;stroke-linecap:round;}.cls-3{stroke:#dad8cc;stroke-width:0.25px;}.cls-4{stroke:#000;stroke-miterlimit:10;stroke-width:0.6px;}.cls-5{fill:#fff;}</style></defs><title>tero</title><g id="Layer_2" data-name="Layer 2"><g id="Layer_1-2" data-name="Layer 1"><path class="cls-1" d="M70.9,140.4a93.57,93.57,0,0,0-3.6,14.3c-1,7.4-3.6,16.3-3.1,23.7.7,8.9,2.9,10.1,6.3,18.2.9,1.9,3.4,6.1,4.4,7.8,1.4,2.4,1.4,4.3,4.1,4.5,2.9,0,15.6,0,17.9,1.1a2,2,0,0,1,.9.9c-3.8.9-12.5-.2-16.5,0,2.9,1.9,10.1,3.9,12.5,8-2.4.3-6.1-1.9-8.3-2.9-2.6-1-5-3.1-7.6-3.9,1.5,3.2,6.3,6.7,6.1,10.6-6.8-4.8-12.8-19-14.9-22.6-2.1-3.4-4.6-10.4-6.1-13.8-1.7-3.8-5.3-3.1-3.1-7.6,1.7-3.2,2-9.1,2.3-12.9.5-7.3,1.3-13,1.9-20.2a54.81,54.81,0,0,1,.5-5.7c.1-.8,5.2,1.2,5.3.4"/><path class="cls-1" d="M87.6,137.1c1,12.8,7.5,33.2,8.3,36.1,2,6.8,4.2,13.7,8.2,19.7,2,3.1,3.8,6.2,4.9,6.7a45.47,45.47,0,0,0,11.5,2.5c1.7.2,8.9.9,9.3,3.1-2,.9-5.9-.7-8.1-.9-3.1-.3-5.6-1-8.8-1.4,2.5,2.1,11.6,4.7,12.5,9.2-4.3-1-11.1-5.8-14.7-8.4.9,3.4,7.4,8.1,6.3,11.6-1.5-1.7-4.2-3.7-6.5-6.6a28.24,28.24,0,0,1-4.5-8.5c-2.7-3.1-6-8.9-8.1-12.6-1.7-3.2-1.6-6.2-3.8-9.1-1-1.4-2.4-1.3-3.1-2.8-.6-1.3.1-2.3.4-4.1.5-3.1-1.9-8.9-3-11.8-2.6-7-3.8-11.9-5.8-19.1-.5-1.9-1.5-2.8-1.9-4.7,1.9-.5,4.3,1.9,6,2.7"/><path class="cls-2" d="M96.3,86C94.5,77.8,72.6,14,79.7,8.1a16.17,16.17,0,0,1,6.9-3.5c13.4-2.9,34.6,3.9,39,17.3a2.79,2.79,0,0,1,.1,1c-.1.9-.4,2.1-.4,2.7-.2,3.1-.3,6.2-.5,9.3-.2,4.9-2.8,9.4-3.1,14.4a56.61,56.61,0,0,0,.3,9.2"/><path class="cls-2" d="M122,58.5c.4,3.8,1.1,7.5,1.8,11.2,1,5.6,2.1,12.1,2.1,17.7-.1,9.8-3.8,20.4-7.4,29.5-3.5,8.8-8.7,17.9-18,21.5-12.1,4.7-29.1,9.2-41.9,7.3-9.5-1.5-18.9-3.5-28.2-5.2-.5-.1-1-.2-1.4-.3-4.7-.8-14.7-3.4-19.1-4.7-2.4-.7-9.1-.6-9.8-3.5,2.5-.2,5-.7,7.5-1.1,7.6-1.2,12.2-5.6,18.7-9.5,2.6-1.6,5.1-2.4,7.5-4.4C44.5,108.4,55,98.3,68.9,95.6c6.8-1.3,11.5-2.6,17.3-6.5"/><path class="cls-3" d="M124.8,35c-.2,4.9-2.8,9.4-3.1,14.4a56.61,56.61,0,0,0,.3,9.2"/><path class="cls-3" d="M79.4,8.4a15.66,15.66,0,0,1,7.1-3.7c13.4-2.9,34.6,3.9,39,17.3a2,2,0,0,1,.1.8"/><path class="cls-3" d="M69.2,95.6c5-1,8.3-1.8,12.4-3.8"/><path class="cls-3" d="M122,58.5c.4,3.8,1.1,7.5,1.8,11.2,1,5.6,2.1,12.1,2.1,17.7-.1,9.8-3.8,20.4-7.4,29.5-3.5,8.8-8.7,17.9-18,21.5-12.1,4.7-29.1,9.2-41.9,7.3-9.5-1.5-19-3.5-28.3-5.3"/><path d="M80.3,9.6C78,6,71.7,1,67.8,0c1.4,1.1,6.4,6.1,7.7,9.2a17.94,17.94,0,0,0-9.6-2.8c7.1,2.4,8.9,6.2,12.3,12.7.5-1.8,4.4-1.6,4.7-3S81.4,11.3,80.3,9.6Z"/><path d="M81.6,91.8a34.69,34.69,0,0,0,4.5-2.6c8.1-5.5,2.9-11,.5-18.6a152,152,0,0,0-8.1-20.2c-2.9-5.5-5.8-10.5-7.1-16.8-1.4-6.1,0-14,3.8-20,1.5,2.9,11.3,1.2,17.3,2.5,2,.4,1,4.3,2.6,4.7,3.8.9,8.8,4.3,6.4,4.7C91.6,27,87.7,31.7,87.4,36.4c-1.3,18,40.9,41,30.1,61.3C110.7,109.8,92.9,100.1,81.6,91.8Z"/><path d="M102.7,30.7c-6,1.2-10.4-3.1-10.9-9.4-.5-7,4.1-9.8,8.9-9.4C110.9,12.8,116.1,28,102.7,30.7Z"/><path class="cls-4" d="M114.6,39.6c2.6,4.7-4.4,8.1-6.3,1.3"/><path d="M0,132.1c2.5-.2,5-.7,7.5-1.1,7.6-1.2,12.2-5.6,18.7-9.5,2.6-1.6,5.1-2.4,7.5-4.4,10.7-8.6,21.2-18.7,35.1-21.4.1,0,.3-.1.4-.1a22.84,22.84,0,0,1,2.2,2.2c3.9,3.9,9.7,9.4,9.4,15.7-.3,6.6-6,9.7-11.3,12.9-11.1,6.9-26.5,12-39.6,14.1-.3-.1-.7-.1-1-.2-4.7-.8-14.7-3.4-19.1-4.7C7.4,134.9.7,135,0,132.1Z"/><path d="M140.8,38.8c-3.2-.8-6.5-1.5-9.7-2.2-1.5-.3-3-.6-4.6-.9a2.89,2.89,0,0,1-2.6-2.1,10.64,10.64,0,0,1-.9-3.5,8.76,8.76,0,0,1,1.1-5c.3-.5.8-1.9,1.4-2.1s1.3.5,1.9.8c2.4,1.2,4.8,2.3,7.2,3.4q8,3.6,15.9,6.9c11.2,4.7,22.6,9.1,33.6,14.5C171.1,45.3,157.4,42.8,140.8,38.8Z"/><path class="cls-5" d="M102.3,13.5c6.4,1.6,11.7,13.9-.4,15.7-4.6.7-8.8-3.5-8.7-9.1S97.8,12.4,102.3,13.5Z"/><path d="M104,22.2c-2.4.5-3.1-3.3-.7-3.7C105.1,18.1,106.4,21.7,104,22.2Z"/></g></g></svg>