<?xml version="1.0" encoding="UTF-8" standalone="no"?>
<svg
   viewBox="0 0 150 150"
   version="1.1"
   id="svg434"
   sodipodi:docname="guitarra.svg"
   width="150"
   height="150"
   inkscape:version="1.2.1 (9c6d41e410, 2022-07-14)"
   xmlns:inkscape="http://www.inkscape.org/namespaces/inkscape"
   xmlns:sodipodi="http://sodipodi.sourceforge.net/DTD/sodipodi-0.dtd"
   xmlns="http://www.w3.org/2000/svg"
   xmlns:svg="http://www.w3.org/2000/svg"
   xmlns:rdf="http://www.w3.org/1999/02/22-rdf-syntax-ns#"
   xmlns:cc="http://creativecommons.org/ns#"
   xmlns:dc="http://purl.org/dc/elements/1.1/">
  <sodipodi:namedview
     id="namedview436"
     pagecolor="#ffffff"
     bordercolor="#000000"
     borderopacity="0.25"
     inkscape:showpageshadow="2"
     inkscape:pageopacity="0.0"
     inkscape:pagecheckerboard="0"
     inkscape:deskcolor="#d1d1d1"
     showgrid="false"
     inkscape:zoom="5.1636583"
     inkscape:cx="123.16849"
     inkscape:cy="99.54183"
     inkscape:window-width="3840"
     inkscape:window-height="2066"
     inkscape:window-x="-11"
     inkscape:window-y="-11"
     inkscape:window-maximized="1"
     inkscape:current-layer="svg434" />
  <defs
     id="defs392">
    <style
       id="style390">.cls-1{fill:#a85318;}.cls-2{fill:#f39200;}.cls-3{fill:#dad8cc;}.cls-4{fill:none;stroke:#dad8cc;stroke-width:0.42px;}</style>
  </defs>
  <title
     id="title394">guitarra</title>
  <g
     id="Layer_2"
     data-name="Layer 2"
     transform="matrix(0.57239968,0,0,0.54244141,3.5492895,19.235051)">
    <g
       id="Layer_1-2"
       data-name="Layer 1">
      <path
         class="cls-1"
         d="m 107.55,66.47 c -8.07,10.82 -15.27,32.14 1.14,47.62 7.91,7.45 18.86,8.55 24.5,13.69 10.05,9.2 3.13,16.57 16.23,35 14.57,20.44 45.66,43.8 80.32,0.61 26.43,-32.92 19.83,-71 -8.91,-82 -28.74,-11 -34.72,0 -46.19,-8.59 -6.88,-5.15 -9,-16.77 -27.67,-22.34 -16.29,-4.86 -31.71,5.66 -39.42,16.01 z"
         id="path396" />
      <path
         class="cls-2"
         d="m 99.17,77.66 c -8.07,10.82 -15.26,32.14 1.15,47.61 7.9,7.46 18.86,8.54 24.49,13.69 10.05,9.21 3.13,16.56 16.23,35 14.57,20.45 45.67,43.8 80.34,0.61 26.43,-32.89 19.83,-71 -8.89,-81.95 -28.72,-10.95 -34.72,0 -46.19,-8.61 -6.88,-5.15 -9,-16.77 -27.68,-22.34 -16.33,-4.88 -31.74,5.64 -39.45,15.99 z"
         id="path398" />
      <path
         class="cls-1"
         d="m 158.58,146.07 c 11.91,-1 20.72,-12 19.7,-24.66 -1.02,-12.66 -11.5,-22.12 -23.41,-21.15 -11.91,0.97 -20.73,12 -19.7,24.64 1.03,12.64 11.5,22.1 23.41,21.17 z"
         id="path400" />
      <path
         d="m 158.13,140.56 c 9,-0.73 15.73,-9.12 15,-18.71 -0.73,-9.59 -8.73,-16.79 -17.78,-16.06 -9.05,0.73 -15.74,9.11 -15,18.7 0.74,9.59 8.74,16.79 17.78,16.07 z"
         id="path402" />
      <path
         d="m 34.31,45.78 c -1.05,-0.77 -3,0.06 -4.05,-0.68 C 16,34.67 6.25,27.4 5.37,26.54 5.96,24.67 5.37,16.38 4.31,13.22 l 1.13,-1.55 c 4.68,-0.26 10.87,-2.09 13.07,-4.11 1.18,0.81 11.94,8.6 27.28,19.69 1.23,0.89 1,3.29 2.25,4.23 45,32.6 111.22,81.13 111.22,81.13 l -12.44,15.53 c 0,0 -68.51,-50.14 -112.51,-82.36 z m 1.21,-15.51 1.13,-1.71 A 0.54,0.54 0 0 0 36.44,27.85 L 17,14.38 a 0.52,0.52 0 0 0 -0.73,0.07 l -1.14,1.72 a 0.52,0.52 0 0 0 0.21,0.71 l 19.43,13.47 a 0.55,0.55 0 0 0 0.75,-0.08 z m -4.25,6.59 1.15,-1.72 A 0.53,0.53 0 0 0 32.21,34.43 L 12.81,21 a 0.51,0.51 0 0 0 -0.72,0.07 l -1.15,1.72 a 0.53,0.53 0 0 0 0.21,0.71 l 19.4,13.48 a 0.49,0.49 0 0 0 0.72,-0.12 z"
         id="path404" />
      <path
         class="cls-3"
         d="m 31.22,5.22 c 0,0 -0.71,3.13 -1.82,2.45 -1.11,-0.68 -3,-1.79 -3,-1.79 l -4.1,6.12 -1,-0.69 3.82,-6.23 c 0,0 -2.29,-1.08 -2.54,-1.68 -0.25,-0.6 1.74,-3.89 2.84,-3.34 1.1,0.55 5.58,3.37 5.8,5.16 z"
         id="path406" />
      <path
         class="cls-3"
         d="m 39.13,11.85 c -0.27,1.1 -1.34,2.19 -2.19,1.87 a 11.13,11.13 0 0 1 -2.21,-1.47 l -4.2,5.41 -1,-0.55 3.71,-5.87 c 0,0 -2.77,-1.24 -2.58,-2.41 0.19,-1.17 1.34,-2.91 2.53,-2.37 1.19,0.54 6.36,3.71 5.94,5.39 z"
         id="path408" />
      <path
         class="cls-3"
         d="m 48.36,17.25 c 0,1.07 -1.32,3 -2.16,2.71 A 18.59,18.59 0 0 1 43.5,18.27 L 39.29,23.69 38,22.9 41.6,17.27 c 0,0 -2.9,-1.19 -2.48,-2.4 0.42,-1.21 1.43,-2.79 2.79,-2.25 1.36,0.54 6.39,3.38 6.45,4.63 z"
         id="path410" />
      <path
         class="cls-3"
         d="m 17.12,46.49 c 0,0 0.71,-3.13 1.88,-2.49 1.17,0.64 3,1.79 3,1.79 l 4.07,-6.13 1,0.68 -3.83,6.26 c 0,0 2.3,1.1 2.56,1.7 0.26,0.6 -1.8,3.88 -2.8,3.33 -1,-0.55 -5.68,-3.35 -5.88,-5.14 z"
         id="path412" />
      <path
         class="cls-3"
         d="m 9.22,39.86 c 0.27,-1.09 1.35,-2.19 2.19,-1.87 a 10.82,10.82 0 0 1 2.21,1.47 l 4.21,-5.4 1,0.56 -3.73,5.87 c 0,0 2.8,1.19 2.6,2.4 -0.2,1.21 -1.32,2.92 -2.53,2.37 -1.21,-0.55 -6.36,-3.72 -5.95,-5.4 z"
         id="path414" />
      <path
         class="cls-3"
         d="m 0,34.46 c 0,-1.06 1.33,-3 2.16,-2.71 a 17.5,17.5 0 0 1 2.7,1.69 L 9.07,28 l 1.36,0.77 -3.6,5.63 c 0,0 2.9,1.19 2.48,2.42 C 8.89,38.05 7.86,39.61 6.54,39.06 5.22,38.51 0.05,35.77 0,34.46 Z"
         id="path416" />
      <path
         class="cls-4"
         d="m 35.42,25.64 c 0,0 57.94,43.22 90.07,66.55 32.13,23.33 79.05,57.49 79.05,57.49"
         id="path418" />
      <path
         class="cls-4"
         d="m 25.16,21.3 c 0,0 64.28,48.85 96.42,72.18 32.14,23.33 79.05,57.52 79.05,57.52"
         id="path420" />
      <path
         class="cls-4"
         d="m 20.67,28.36 c 0,0 64.33,48.87 96.43,72.19 32.1,23.32 79.05,57.5 79.05,57.5"
         id="path422" />
      <path
         class="cls-4"
         d="m 14.93,17.61 c 0,0 74.79,56.04 106.91,79.39 32.12,23.35 79,57.5 79,57.5"
         id="path424" />
      <path
         class="cls-4"
         d="m 13.38,20.33 c 0,0 74,54.91 106.11,78.23 32.11,23.32 78.92,59.44 78.92,59.44"
         id="path426" />
      <path
         class="cls-4"
         d="m 27.64,36.91 c 0,0 58.06,43.16 90.18,66.47 32.12,23.31 76.7,57.62 76.7,57.62"
         id="path428" />
      <path
         d="m 191,168.55 -0.64,-0.45 a 4,4 0 0 1 -0.91,-5.71 l 12.78,-16.56 a 4.44,4.44 0 0 1 6,-0.89 l 0.65,0.45 z"
         id="path430" />
    </g>
  </g>
  <metadata
     id="metadata438">
    <rdf:RDF>
      <cc:Work
         rdf:about="">
        <dc:title>guitarra</dc:title>
      </cc:Work>
    </rdf:RDF>
  </metadata>
</svg>
