<?xml version="1.0" encoding="UTF-8" standalone="no"?>
<svg
   viewBox="0 0 250 150"
   version="1.1"
   id="svg330"
   sodipodi:docname="piano.svg"
   width="250"
   height="150"
   inkscape:version="1.2.1 (9c6d41e410, 2022-07-14)"
   xmlns:inkscape="http://www.inkscape.org/namespaces/inkscape"
   xmlns:sodipodi="http://sodipodi.sourceforge.net/DTD/sodipodi-0.dtd"
   xmlns="http://www.w3.org/2000/svg"
   xmlns:svg="http://www.w3.org/2000/svg"
   xmlns:rdf="http://www.w3.org/1999/02/22-rdf-syntax-ns#"
   xmlns:cc="http://creativecommons.org/ns#"
   xmlns:dc="http://purl.org/dc/elements/1.1/">
  <sodipodi:namedview
     id="namedview332"
     pagecolor="#ffffff"
     bordercolor="#000000"
     borderopacity="0.25"
     inkscape:showpageshadow="2"
     inkscape:pageopacity="0.0"
     inkscape:pagecheckerboard="0"
     inkscape:deskcolor="#d1d1d1"
     showgrid="false"
     inkscape:zoom="1.8303222"
     inkscape:cx="136.04162"
     inkscape:cy="100.25557"
     inkscape:window-width="1920"
     inkscape:window-height="1018"
     inkscape:window-x="-8"
     inkscape:window-y="-8"
     inkscape:window-maximized="1"
     inkscape:current-layer="svg330" />
  <defs
     id="defs232">
    <style
       id="style230">.cls-1{fill:#625e58;}.cls-2{fill:#403c38;}.cls-3{fill:#dad8cc;}.cls-4,.cls-8{fill:none;stroke-linecap:round;stroke-width:0.48px;}.cls-4{stroke:#000;}.cls-5{fill:#db7a1c;}.cls-6{fill:#2fac66;}.cls-7{fill:#fff;}.cls-8{stroke:#dad8cc;}</style>
  </defs>
  <title
     id="title234">piano</title>
  <g
     id="Layer_2"
     data-name="Layer 2"
     transform="matrix(0.42412995,0,0,0.49340127,62.993064,26.650085)">
    <g
       id="Layer_1-2"
       data-name="Layer 1">
      <path
         class="cls-1"
         d="m 101.19,103.5 c -0.53,9.3 -3.83,72.5 -5.84,82 C 93.34,195 90.4,195 89,174.88 87.6,154.76 83.12,94 84.36,87.79 c 1.24,-6.21 17.12,10.79 16.83,15.71 z"
         id="path236" />
      <path
         class="cls-2"
         d="m 251.71,64.23 c 0,0 -0.68,62.17 -3,70.35 -2.32,8.18 -2.4,3.67 -4.2,-4 -1.8,-7.67 -7.18,-62.92 -7.11,-66.58 0.07,-3.66 14.31,0.23 14.31,0.23 z"
         id="path238" />
      <path
         class="cls-3"
         d="m 245.58,47 c 0,0 21.52,12.31 23.12,13.58 1.6,1.27 2.4,8 1.56,10.4 -46.42,25 -140.47,62.27 -145.34,62.59 -4.87,0.32 -24.28,-11.9 -26.15,-15.47 -1.87,-3.57 0.27,-15 0.27,-15 z"
         id="path240" />
      <path
         class="cls-4"
         d="m 100.09,105.79 c 0,0 22.87,17.9 25.31,17.92 2.44,0.02 100.32,-37.33 143.1,-63.21"
         id="path242" />
      <path
         class="cls-4"
         d="m 245.76,51.56 c 0,0 19.17,7.61 20.78,10.85 1.61,3.24 -0.1,14.32 -0.1,14.32"
         id="path244" />
      <path
         class="cls-4"
         d="m 236.55,55.54 c 4.06,2 16.18,9.08 19.4,11.57 3.22,2.49 1.15,13.65 1.15,13.65"
         id="path246" />
      <path
         class="cls-4"
         d="m 223.21,60.66 c 5.61,2.08 20.49,8.08 22.79,12.34 2.3,4.26 -0.07,10.43 -0.07,10.43"
         id="path248" />
      <path
         class="cls-4"
         d="m 214,64.38 c 4.63,3.23 19.61,10.26 21,13.59 1.39,3.33 -0.06,11.57 -0.06,11.57"
         id="path250" />
      <path
         class="cls-4"
         d="m 204.18,68.33 c 4.7,3.33 18.26,11.4 20.56,14.2 2.3,2.8 -0.09,11.15 -0.09,11.15"
         id="path252" />
      <path
         class="cls-4"
         d="m 193.39,72.65 c 5.73,4.29 18.74,10 21.52,14.2 2.78,4.2 -0.07,10.79 -0.07,10.79"
         id="path254" />
      <path
         class="cls-4"
         d="m 181.77,77.28 c 6.37,4.1 20.8,11.18 22.26,14.27 1.46,3.09 0.58,10.17 0.58,10.17"
         id="path256" />
      <path
         class="cls-4"
         d="m 170.15,82 c 4.47,3.38 17.16,11.78 20.29,15.45 3.13,3.67 -0.07,10 -0.07,10"
         id="path258" />
      <path
         class="cls-4"
         d="m 153.05,84.72 c 8.64,4.07 27.13,13.66 27.57,16.85 a 61.37,61.37 0 0 1 -0.07,9.72"
         id="path260" />
      <path
         class="cls-4"
         d="m 143.47,89.2 c 5,3.38 25,14.1 26.22,16.84 1.22,2.74 -0.07,9.54 -0.07,9.54"
         id="path262" />
      <path
         class="cls-4"
         d="m 134.48,96.15 c 5.7,2.6 23,12.89 23.82,15 0.82,2.11 -0.07,8.9 -0.07,8.9"
         id="path264" />
      <path
         class="cls-4"
         d="m 123.84,100.42 c 4.55,2.78 23.35,12.31 25,14.18 1.65,1.87 -0.07,9.09 -0.07,9.09"
         id="path266" />
      <path
         class="cls-4"
         d="m 108.33,100.76 c 3.76,2.76 27.14,17 27.81,19.71 0.67,2.71 0,8.88 0,8.88"
         id="path268" />
      <path
         class="cls-1"
         d="m 20.62,74.25 c -0.08,9.31 -3.48,67 -5,76.54 -1.52,9.54 -4.49,9.77 -6.83,-10.26 C 6.45,120.5 2.09,67.56 3,61.26 c 0.91,-6.3 17.68,8.05 17.62,12.99 z"
         id="path270" />
      <path
         class="cls-1"
         d="m 13,20.89 c 0,0 -9.74,-7.08 -12.13,-2.12 -2.39,4.96 0.72,33.73 2.13,43.28 3.45,3.71 35.57,28.3 53.69,35.71 18.12,7.41 43.64,22.24 43.64,22.24 l 0.38,-12.83 5.64,-42.09 z"
         id="path272" />
      <path
         d="m 243.39,52.65 c 1.39,0.76 9.63,5.41 10.09,6.11 0.46,0.7 -5.8,4.7 -7.81,4.84 -2.01,0.14 -13.91,-7.31 -13.4,-8.94 0.51,-1.63 7.54,-3.93 11.12,-2.01 z"
         id="path274" />
      <path
         d="m 229.77,58.3 c 1.39,0.73 11.22,7.3 9.66,8.79 a 15.18,15.18 0 0 1 -6,2.42 c -2,0.16 -15.25,-7.46 -14.74,-9.09 0.51,-1.63 7.49,-4.01 11.08,-2.12 z"
         id="path276" />
      <path
         d="m 171.24,79.55 c 1.4,0.73 11.22,7.3 9.66,8.79 a 15.48,15.48 0 0 1 -6,2.42 c -2,0.16 -15.24,-7.46 -14.74,-9.09 0.5,-1.63 7.47,-4.01 11.08,-2.12 z"
         id="path278" />
      <path
         d="m 183.8,74.16 c 1.39,0.74 11.22,7.31 9.66,8.8 a 15.48,15.48 0 0 1 -6,2.42 c -2,0.15 -15.24,-7.46 -14.74,-9.09 0.5,-1.63 7.47,-4.02 11.08,-2.13 z"
         id="path280" />
      <path
         d="m 196.75,70 a 93.4,93.4 0 0 1 9.7,7.22 c 0.46,0.69 -4,3.82 -6,4 -2,0.18 -15.24,-7.46 -14.74,-9.09 0.5,-1.63 7.44,-3.99 11.04,-2.13 z"
         id="path282" />
      <path
         d="m 133.23,90.83 c 3.07,2.76 13.47,8 14.2,11.65 a 9.29,9.29 0 0 1 -7.75,4 c -2.46,-0.39 -13.75,-11.8 -13.75,-11.8 z"
         id="path284" />
      <path
         d="m 122.6,96.51 c 0,0 12.75,8.62 13.47,10.46 0.72,1.84 -4.71,5.57 -6.91,4.58 -2.2,-0.99 -15.65,-10.72 -15.58,-11.2 0.07,-0.48 5.71,-2.06 9.02,-3.84 z"
         id="path286" />
      <path
         class="cls-5"
         d="M 14.48,167.75 C 7.51,170 3,163.15 3.93,154.13 c 0.93,-9.02 7.38,-6.94 12,-5.76 4.62,1.18 9.98,15.76 -1.45,19.38 z"
         id="path288" />
      <path
         class="cls-5"
         d="m 93.24,198.21 c -9.21,1.54 -9.13,-7.84 -9.06,-12 0.07,-4.16 3.45,-6.82 9.37,-5.31 a 10.24,10.24 0 0 1 7.83,11.11 c -0.62,4.14 -3.71,5.46 -8.14,6.2 z"
         id="path290" />
      <path
         class="cls-5"
         d="m 247.44,130.05 a 9.11,9.11 0 0 0 -9,8.75 c 0,4.2 3.26,10.27 8.62,9.57 5.36,-0.7 8.51,-5.94 8.49,-10.55 a 7.73,7.73 0 0 0 -8.11,-7.77 z"
         id="path292" />
      <path
         d="m 247,139.23 c 0,0.91 0.71,1.23 1.58,1.25 1.31,0 1.61,-0.72 1.65,-1.63 a 1.66,1.66 0 0 0 -1.58,-1.68 c -1.6,-0.12 -1.65,1.15 -1.65,2.06 z"
         id="path294" />
      <path
         d="m 90.45,189.46 c 0,1.22 1,1.65 2.24,1.68 1.86,0 2.3,-0.94 2.32,-2.18 a 2.32,2.32 0 0 0 -2.23,-2.26 c -2.28,-0.17 -2.32,1.54 -2.33,2.76 z"
         id="path296" />
      <path
         d="m 10.05,157.61 c 0,1.22 1,1.65 2.25,1.68 1.85,0 2.3,-0.94 2.32,-2.17 a 2.32,2.32 0 0 0 -2.25,-2.27 c -2.25,-0.17 -2.28,1.53 -2.32,2.76 z"
         id="path298" />
      <path
         class="cls-2"
         d="M 253.7,47.85 C 246.48,54.4 104,105 100.71,107.12 c -14.48,-5.88 -12.08,-34 -12.08,-34 l 164.7,-54.71 z"
         id="path300" />
      <path
         d="M 253.33,18.39 C 252.19,19.61 88.63,73.1 88.63,73.1 88.63,73.1 53.33,58.79 27,45.54 1.08,32.5 -11.81,15.27 16.69,9.71 59.58,1.38 83.05,5.37 94.36,7.48 c 39.79,7.41 42,-8.11 77.22,-7.46 35.22,0.65 82.88,17.15 81.75,18.37 z"
         id="path302" />
      <path
         class="cls-6"
         d="m 195.48,31.05 c -0.08,-1.65 -1.78,-5.53 -3,-8 -1.48,2.06 -17.08,8.37 -24.17,9.49 -4.46,3.65 -25.58,7.37 -30.78,7.71 2.08,8.91 11.31,35.21 11.31,35.21 z"
         id="path304" />
      <path
         class="cls-7"
         d="m 194.62,25.18 c -8.63,5.56 -22.42,9.4 -26.3,8 -3.07,5.13 -23.91,9 -29.28,8.89 1.48,5 9.1,30.42 10.59,31.67 1.49,1.25 28.59,-10.44 30.68,-10.41 2.09,0.03 23.2,-7.52 24.8,-10 -2.11,-5.65 -8.58,-23.9 -10.49,-28.15 z"
         id="path306" />
      <path
         class="cls-4"
         d="m 196.63,49.1 c -0.62,0.78 -10.88,5.58 -13.25,5.65"
         id="path308" />
      <path
         class="cls-4"
         d="m 194.73,43.74 c -2.15,0.94 -11.4,5.79 -12.91,5.79"
         id="path310" />
      <path
         class="cls-4"
         d="M 192.63,38.71 C 190.09,40 181,43.07 179.81,43.46"
         id="path312" />
      <path
         class="cls-4"
         d="m 191.42,33.36 a 71.65,71.65 0 0 1 -13.13,5.09"
         id="path314" />
      <path
         class="cls-4"
         d="m 164.15,43.24 c -1.61,-0.21 -15.5,5 -16,4.9"
         id="path316" />
      <path
         class="cls-4"
         d="m 165.92,48.86 c -3,0.52 -15.22,4.33 -15.88,4.55"
         id="path318" />
      <path
         class="cls-4"
         d="m 167.58,54.88 c -3.81,1.15 -14.35,4.39 -16,4.74"
         id="path320" />
      <path
         class="cls-4"
         d="m 170.46,59.62 c -2.67,0.82 -14.26,5.71 -15.66,5.21"
         id="path322" />
      <path
         class="cls-8"
         d="m 178.68,62.7 c 0,0 -8.47,-23.42 -9.93,-28.19"
         id="path324" />
      <path
         d="m 210.29,51.54 c -2.23,0.79 -66.73,23.43 -68.11,24.51 -1.38,1.08 -0.46,5.3 2.22,6.38 2.68,1.08 66.25,-23.94 67.54,-25.64 1.29,-1.7 1.06,-6.21 -1.65,-5.25 z"
         id="path326" />
    </g>
  </g>
  <metadata
     id="metadata334">
    <rdf:RDF>
      <cc:Work
         rdf:about="">
        <dc:title>piano</dc:title>
      </cc:Work>
    </rdf:RDF>
  </metadata>
</svg>
