<?xml version="1.0" encoding="UTF-8" standalone="no"?>
<svg
   viewBox="0 0 150 150"
   version="1.1"
   id="svg42"
   sodipodi:docname="tambor.svg"
   width="150"
   height="150"
   inkscape:version="1.2.1 (9c6d41e410, 2022-07-14)"
   xmlns:inkscape="http://www.inkscape.org/namespaces/inkscape"
   xmlns:sodipodi="http://sodipodi.sourceforge.net/DTD/sodipodi-0.dtd"
   xmlns="http://www.w3.org/2000/svg"
   xmlns:svg="http://www.w3.org/2000/svg"
   xmlns:rdf="http://www.w3.org/1999/02/22-rdf-syntax-ns#"
   xmlns:cc="http://creativecommons.org/ns#"
   xmlns:dc="http://purl.org/dc/elements/1.1/">
  <sodipodi:namedview
     id="namedview44"
     pagecolor="#ffffff"
     bordercolor="#000000"
     borderopacity="0.25"
     inkscape:showpageshadow="2"
     inkscape:pageopacity="0.0"
     inkscape:pagecheckerboard="0"
     inkscape:deskcolor="#d1d1d1"
     showgrid="false"
     inkscape:zoom="5.8938307"
     inkscape:cx="81.950097"
     inkscape:cy="87.040166"
     inkscape:window-width="3840"
     inkscape:window-height="2066"
     inkscape:window-x="-11"
     inkscape:window-y="-11"
     inkscape:window-maximized="1"
     inkscape:current-layer="svg42" />
  <defs
     id="defs4">
    <style
       id="style2">.cls-1{fill:#dad8cc;}.cls-2{fill:#2fac66;}.cls-3{fill:#007572;}.cls-4{fill:#b91919;}.cls-5{fill:#e30613;}.cls-6{fill:#ffde00;}</style>
  </defs>
  <title
     id="title6">tambor</title>
  <g
     id="Layer_2"
     data-name="Layer 2"
     transform="matrix(0.81582207,0,0,0.82856858,8.4835917,3.4040433)">
    <g
       id="Layer_1-2"
       data-name="Layer 1">
      <path
         class="cls-1"
         d="m 6.84,90.15 -1.17,15.17 94.81,10.3 50.58,-25.49 -2,-12.87 -40.6,-6.07 -63.84,5.13 z"
         id="path8" />
      <path
         class="cls-2"
         d="m 3.67,101.71 c 0,0 4.26,56.06 4.52,57.79 0.26,1.73 77.89,4.78 87,4.06 9.11,-0.72 64.66,-17.75 66.31,-20.86 1.65,-3.11 -5.1,-52.35 -5.3,-55.9 -0.2,-3.55 -22.07,4.92 -32.1,6.88 -10.03,1.96 -64.67,11 -76,9.53 C 36.77,101.74 5.7,101 3.67,101.71 Z"
         id="path10" />
      <path
         class="cls-3"
         d="m 11.08,103.39 29.33,58.86 28,-59.73 30.78,56.85 20.91,-59.69 23.27,47.68 13.57,-58.51 -74.19,11.75 z"
         id="path12" />
      <path
         class="cls-4"
         d="M 3.39,100 A 126.46,126.46 0 0 1 37.24,84.1 c 19.11,-5.77 64.91,-9.76 83,-5.85 18.09,3.91 29.83,6.56 30.75,7.84 0.92,1.28 6.7,-2.78 6.7,-2.78 0,0 2.15,-5 -1.34,-6.22 -4.63,-1.6 -35.86,-17.69 -97.55,-8 C 1.38,78.06 0.07,92.23 0.47,94 a 45.12,45.12 0 0 0 2.92,6 z"
         id="path14" />
      <path
         class="cls-5"
         d="m 0.62,91.49 c 0.33,2.06 41.71,10.88 91.22,3.39 49.51,-7.49 63.33,-14.28 65,-17 1.67,-2.72 4.16,11.58 3.16,12.45 -1,0.87 -44.7,16.8 -82.85,19.29 C 39,112.11 4.15,108.09 1.62,104.91 1,104.16 -1,91.72 0.62,91.49 Z"
         id="path16" />
      <path
         class="cls-5"
         d="m 5.72,150.25 c 1.14,1.35 32.46,15.93 92,6.48 59.54,-9.45 60.91,-20 63.55,-23.63 2.64,-3.63 3.5,13 1.91,14.33 -1.59,1.33 -15.5,20.45 -79.27,25.77 -59,4.93 -76.68,-8.95 -78.54,-10.85 -0.74,-0.74 -0.97,-13.67 0.35,-12.1 z"
         id="path18" />
      <path
         d="m 62.39,69.18 c 1.27,5.31 8.84,6.16 12.24,1.68 2.69,-3.55 1.19,-6.48 -0.13,-9 0.39,-1.13 39.24,-55.49 40.65,-57.37 2.67,-3.59 -4,-6.16 -5.55,-3 C 108.05,4.65 73.75,57.22 72.37,60.52 65.31,58 61.23,64.36 62.39,69.18 Z"
         id="path20" />
      <path
         d="m 76.54,76.46 c -0.81,5.41 5.91,9 10.73,6.14 3.81,-2.29 3.51,-5.58 3.26,-8.44 0.78,-0.89 57.13,-36.84 59.11,-38.08 3.83,-2.32 -1.35,-7.18 -4,-4.88 -2.65,2.3 -54.1,38.41 -56.64,40.96 -5.58,-4.98 -11.73,-0.59 -12.46,4.3 z"
         id="path22" />
      <path
         class="cls-6"
         d="m 9.81,112 c 1.45,0.22 7.65,-0.52 7.57,-7 C 17.3,98.52 10.8,99.92 9.12,100.61 7.44,101.3 3,110.91 9.81,112 Z"
         id="path24" />
      <path
         class="cls-6"
         d="m 68.33,111 a 5.84,5.84 0 0 0 5.21,-6.89 c -0.58,-2.88 -2.94,-5.83 -5.66,-5.64 -2.72,0.19 -6,3.1 -5.72,5.91 0.28,2.81 1.46,6.86 6.17,6.62 z"
         id="path26" />
      <path
         class="cls-6"
         d="m 120.24,105.85 c 2.1,-0.22 6.31,-2.31 4.16,-7.56 -2.15,-5.25 -7,-3.52 -8.86,-1.81 -1.86,1.71 -1.43,5.94 -0.69,7.6 0.74,1.66 3.4,1.92 5.39,1.77 z"
         id="path28" />
      <path
         class="cls-6"
         d="m 158.27,94.22 c 1.55,-0.64 3.27,-5.64 0.46,-7.57 a 5,5 0 0 0 -7.14,1.49 c -1.12,2 0.53,5.62 1.77,5.9 1.24,0.28 2.55,1.16 4.91,0.18 z"
         id="path30" />
      <path
         class="cls-6"
         d="m 143,152.54 c 2.15,0 4.59,-1.09 4.36,-5.57 -0.23,-4.48 -3.07,-5.11 -5.3,-4.87 -2.23,0.24 -4.65,4.42 -3.61,6.52 1.04,2.1 2.4,3.91 4.55,3.92 z"
         id="path32" />
      <path
         class="cls-6"
         d="m 97.86,162.8 c 2.11,-0.13 8.62,-1.85 6.07,-8.21 -2.55,-6.36 -8.86,-4.08 -9.79,-0.94 -0.93,3.14 -1.14,9.43 3.72,9.15 z"
         id="path34" />
      <path
         class="cls-6"
         d="m 39.42,165 c 2.23,0.2 6,-0.59 5.41,-5.62 -0.59,-5.03 -4,-5.44 -6.76,-4.4 a 4.59,4.59 0 0 0 -2.64,5.88 c 0.74,1.71 2.06,4 3.99,4.14 z"
         id="path36" />
      <path
         class="cls-6"
         d="m 5.47,157.32 c 2.41,0.47 6.68,-1.41 5.31,-7 C 9.41,144.73 5.4,146.39 3,148 c -2.4,1.61 -2.46,6.21 -1.12,7.2 1.34,0.99 2.24,1.88 3.59,2.12 z"
         id="path38" />
    </g>
  </g>
  <metadata
     id="metadata150">
    <rdf:RDF>
      <cc:Work
         rdf:about="">
        <dc:title>tambor</dc:title>
      </cc:Work>
    </rdf:RDF>
  </metadata>
</svg>
