<svg xmlns="http://www.w3.org/2000/svg" viewBox="0 0 641.69 45"><defs><style>.cls-1{fill:#2bb673;}</style></defs><title>title</title><g id="Layer_2" data-name="Layer 2"><g id="Layer_1-2" data-name="Layer 1"><path class="cls-1" d="M1.41,43.12A3.82,3.82,0,0,1,1,42.76a.58.58,0,0,1-.23-.49,26.23,26.23,0,0,1,0-5.46,48.5,48.5,0,0,0,.31-5.49c0-2.26-.08-4.51-.2-6.8S.59,20,.44,17.7.18,13.16.08,10.91,0,6.42.05,4.19a1.59,1.59,0,0,1,.21-.72A.81.81,0,0,1,.85,3a4.65,4.65,0,0,1,1.32.05,4.4,4.4,0,0,0,1.28,0c.15,0,.43,0,.84,0s.82,0,1.3-.05.9,0,1.3,0,.69,0,.85,0L8.2,2.9,9,2.8l.81-.13.49,0c.23,0,.59,0,1.1-.05a7.52,7.52,0,0,1,1.5,0,5.68,5.68,0,0,1,1.38.23.75.75,0,0,1,.66.67l.39,4.74A.84.84,0,0,1,15,9a2.1,2.1,0,0,1-.84.34,8.45,8.45,0,0,1-2.24-.08,8.79,8.79,0,0,0-2.3-.08,7.27,7.27,0,0,0-.74,0,5.49,5.49,0,0,0-.92.13,2.54,2.54,0,0,0-.82.35.73.73,0,0,0-.33.67,36.84,36.84,0,0,1,0,4.7,29.53,29.53,0,0,0,0,4.71c0,.18,0,.44,0,.75a1.27,1.27,0,0,0,.36.74A1.73,1.73,0,0,0,8,21.5a5.77,5.77,0,0,0,1,.08,9.33,9.33,0,0,0,.94,0,6.2,6.2,0,0,1,.66,0l.85-.05c.4,0,.84-.07,1.3-.13s.89-.1,1.3-.12a5.41,5.41,0,0,1,.84-.06.37.37,0,0,1,.28.21.36.36,0,0,1,.1.26l.39,3.66a1.84,1.84,0,0,1-.26,1,1,1,0,0,1-.76.56,8.59,8.59,0,0,1-2.48,0,10.14,10.14,0,0,0-2.53-.08,2.19,2.19,0,0,0-1.12.41A1.52,1.52,0,0,0,8,28a4.09,4.09,0,0,0-.1,1v1.18c0,.1,0,.38,0,.82s-.08.89-.16,1.38-.07.93-.1,1.34a4,4,0,0,1-.1.79c.08,0,.1.15,0,.33a.67.67,0,0,0,0,.44,3.79,3.79,0,0,0,.1.82.58.58,0,0,0,.62.49h6.53a6.36,6.36,0,0,1,1.63.18c.49.1.82.54,1,1.23a4.54,4.54,0,0,0,.08.54c.05.28.1.59.18.95s.1.71.18,1.07a7,7,0,0,0,.15.82v.34c.08.54-.05.82-.38.9l-1.12.23a25.8,25.8,0,0,1-4.73.12l-4.77-.18a3.71,3.71,0,0,0-.84,0l-.79.08c-.15,0-.43,0-.82,0L3.4,43c-.44,0-.84.08-1.2.1S1.56,43.12,1.41,43.12Z"/><path class="cls-1" d="M25.88,40a38.6,38.6,0,0,1-.23-6.49c.1-2.23.13-4.41.05-6.53s-.18-4-.33-6-.2-3.93-.18-5.95c0-2.18,0-4.21,0-6.11a38.28,38.28,0,0,0-.44-6,1.88,1.88,0,0,1,.92-1.39A4.57,4.57,0,0,1,27.31,1a8.26,8.26,0,0,1,2,0,2.86,2.86,0,0,1,1.81.85,3.38,3.38,0,0,0,0,.46c0,.23,0,.38,0,.46A18.14,18.14,0,0,1,31.11,7,22.15,22.15,0,0,0,31,11.27c0,.15,0,.71.07,1.71s.13,2.13.21,3.41.15,2.57.23,3.88.13,2.33.18,3.07c.1,1.8.18,3.57.2,5.29s.13,3.46.31,5.23c.1.72.43,1.13.92,1.23a7.22,7.22,0,0,0,1.66.13c.58,0,1.14,0,1.65,0a.94.94,0,0,1,.87.95c0,1.21,0,2.18-.07,2.9s-.16,1.41-.26,2-.31.9-.56.9c0,0-.1,0-.21,0H36c-1.43-.08-2.89-.13-4.39-.2s-3-.16-4.49-.31c-.49,0-.8-.18-.92-.44A3.21,3.21,0,0,1,25.88,40Z"/><path class="cls-1" d="M84.22,41.43a1.08,1.08,0,0,0-.54.17c-.2.13-.41.24-.61.36a6.31,6.31,0,0,0-.54.39l-.28.26a4.86,4.86,0,0,1-1.73.46c-.64,0-1.23,0-1.79,0a6.88,6.88,0,0,1-3.67-.9A11.22,11.22,0,0,1,72,39.68a14.91,14.91,0,0,1-2.22-3.54,14.18,14.18,0,0,1-1.14-3.79,28.84,28.84,0,0,1-.36-4.49c0-1.51,0-3-.08-4.54a33.16,33.16,0,0,1,.38-6.16,23.25,23.25,0,0,1,1.69-5.92,17.15,17.15,0,0,1,1.35-2.39,15.54,15.54,0,0,1,1.94-2.38,18.17,18.17,0,0,1,2.32-2,7.3,7.3,0,0,1,2.48-1.21l.89,0a7.59,7.59,0,0,1,.89,0,12.26,12.26,0,0,1,3.93.44,4.72,4.72,0,0,1,2.33,1.54,6.47,6.47,0,0,1,1.09,2.77A29.83,29.83,0,0,1,87.82,12v.54c0,.26,0,.52,0,.8a7.68,7.68,0,0,1,0,.82v.56c-.05.31-.08.62-.13,1a4.32,4.32,0,0,1-.2,1,2.39,2.39,0,0,1-.44.8,1,1,0,0,1-.79.33,10.05,10.05,0,0,1-2.07-.28,7.26,7.26,0,0,1-1.45-.44c-.46-.18-.66-.41-.66-.71l-.06-4.11A1.71,1.71,0,0,0,81.38,11,2.19,2.19,0,0,0,80,10.42,3.84,3.84,0,0,0,77,12,12.35,12.35,0,0,0,75,15.73,22.84,22.84,0,0,0,74,20.14a30,30,0,0,0-.31,3.77A30.86,30.86,0,0,0,74,27.27a18.55,18.55,0,0,0,1,3.87,9.47,9.47,0,0,0,1.86,3.16,3.72,3.72,0,0,0,2.94,1.28,2.22,2.22,0,0,0,1.63-.75A2.06,2.06,0,0,0,82,33.14a1.9,1.9,0,0,0,0-.28c0-.15,0-.31,0-.49a2.82,2.82,0,0,0-.11-.46c-.05-.13-.12-.2-.2-.2L79,31.76a.6.6,0,0,1-.36-.21,1.93,1.93,0,0,1-.35-.49,3.39,3.39,0,0,1-.28-.53,1,1,0,0,1-.11-.44l0-3.67a1.11,1.11,0,0,1,.46-.92,1.41,1.41,0,0,1,1-.36h.23c.18.05.51.1,1,.23l.86.23,7.25-.23c.08,0,.18.1.31.31s.23.36.3.49.08.07.08.1a.29.29,0,0,0,.08.1.61.61,0,0,0,.1.18c0,.1,0,.33,0,.67a5.65,5.65,0,0,1-.1.66l.28,14.9a.88.88,0,0,1-.31.72.9.9,0,0,1-.59.26A5.67,5.67,0,0,1,87,43.61a4.75,4.75,0,0,1-1.47-.67,1.45,1.45,0,0,1-.57-.85C84.78,41.63,84.55,41.43,84.22,41.43Z"/><path class="cls-1" d="M111.73,44.53A24.79,24.79,0,0,1,110,41.84c-.41-.77-.89-1.62-1.4-2.52a3.51,3.51,0,0,0-.38-.48l-.54-.65a5.12,5.12,0,0,1-.43-.64.69.69,0,0,1-.05-.59c-.46-.64-.9-1.31-1.33-2s-.84-1.34-1.28-2h-.1a.16.16,0,0,1-.1,0c-.33-.07-.46.08-.38.46s.07,1.06.1,2,.07,2,.12,3.13.11,2.15.18,3.15.11,1.7.13,2.05l0,.18a4.5,4.5,0,0,1-.33.44c-.15.18-.25.23-.28.21L98.28,45a.86.86,0,0,1-.84-.41,2,2,0,0,1-.39-.87c0-.05,0-.08,0-.08s0-.08,0-.13v-.18s0-.13.06-.3.07-.36.1-.54.07-.36.1-.52,0-.25,0-.28,0-.36-.08-.77-.1-.82-.15-1.23-.08-.84-.1-1.2,0-.62,0-.75V36.35c0-.75,0-1.52,0-2.34s0-1.61,0-2.33,0-1.21,0-1.39,0-.53-.05-1-.08-1-.11-1.59-.07-1.08-.1-1.59,0-.82,0-1a1.2,1.2,0,0,0,0-.51V24c.1-3.29.13-6.52,0-9.7s-.18-6.41-.28-9.64a5.85,5.85,0,0,0,0-.62c0-.3,0-.61-.07-1s-.08-.67-.08-1,0-.54,0-.64.17-.36.3-.39A2.81,2.81,0,0,1,97,1c1.5-.1,3-.18,4.39-.2a15.59,15.59,0,0,1,4,.43,9.14,9.14,0,0,1,3.4,1.62,8.25,8.25,0,0,1,2.52,3.2c.49,1,1,1.93,1.46,2.85a7.63,7.63,0,0,1,.84,3,12.42,12.42,0,0,1-1.15,6.28,17.55,17.55,0,0,1-3.9,5.28.9.9,0,0,0-.23.62,2.21,2.21,0,0,0,.43.95,1.21,1.21,0,0,1,.21,1l2.29,4.62v.18l2.3,3.72a6.65,6.65,0,0,0,.48.92c.31.59.69,1.23,1.1,2s.79,1.46,1.12,2.2a5.32,5.32,0,0,1,.56,1.67,1.74,1.74,0,0,1-.35,1.13,5.58,5.58,0,0,1-1,1.13,9.5,9.5,0,0,1-1.3.87,2.75,2.75,0,0,1-1.17.36A1.16,1.16,0,0,1,111.73,44.53Zm-9.44-26.85c.15.18.25.33.35.43a.9.9,0,0,0,.49.21,3,3,0,0,0,1.83-.85A5.09,5.09,0,0,0,106,15.83a7.05,7.05,0,0,0,.48-1.95,14.59,14.59,0,0,0,.1-1.74,6.19,6.19,0,0,0-.28-1.39,8.27,8.27,0,0,0-.61-1.56,3.58,3.58,0,0,0-1-1.21,2.05,2.05,0,0,0-1.43-.43,1.1,1.1,0,0,0-.87.61A4.49,4.49,0,0,0,102,9.5a10,10,0,0,0-.1,1.43v1a2.62,2.62,0,0,0,0,.39c0,.23,0,.48,0,.79s0,.62,0,.92a3.91,3.91,0,0,0,.1.77,4.73,4.73,0,0,0,0,.57c0,.26,0,.56,0,.87s0,.62.05.87A4.73,4.73,0,0,1,102.29,17.68Z"/><path class="cls-1" d="M121.14,40.71a1.47,1.47,0,0,1,0-.26c0-.1,0-.15,0-.2,0-.49.11-1.08.18-1.77a6.86,6.86,0,0,1,.39-1.72,1.11,1.11,0,0,1,.56-.59,8.56,8.56,0,0,1,.81-.34l.82-.28a1.21,1.21,0,0,0,.61-.48s.08-.06.08-.18a1.57,1.57,0,0,0,0-.29,3.38,3.38,0,0,1,0-.46c0-.23,0-.49,0-.77a7.49,7.49,0,0,0,0-.82V32c-.11-3-.13-6.08-.08-9.08s0-6-.2-9c0-.08,0-.23,0-.46a5.24,5.24,0,0,1-.08-.74c0-.26,0-.52,0-.72a3.81,3.81,0,0,1,0-.52.73.73,0,0,0-.53-.61l-.92-.23a2.44,2.44,0,0,1-.9-.34,1.21,1.21,0,0,1-.45-.92s0-.08,0-.1a.17.17,0,0,1,0-.1V8c0-.54,0-1.13,0-1.75s0-1.2,0-1.74V3.34c.07-.31.17-.67.28-1.13a.93.93,0,0,1,.61-.79l.13.07h.1a11.07,11.07,0,0,0,2.35.13c1,0,2,0,3.08,0a16.33,16.33,0,0,1,2.94.39,3.05,3.05,0,0,1,1.94,1.1,1.75,1.75,0,0,1,.28,1.08,10.39,10.39,0,0,0,.05,1.13,10.7,10.7,0,0,1-.15,3.38,2.85,2.85,0,0,1-.74,1.31,2,2,0,0,1-.87.44c-.31.07-.49.38-.56.89a36.36,36.36,0,0,0-.46,4.75c0,1.59,0,3.15,0,4.74s.13,3.16.26,4.72.2,3.13.28,4.72V32c0,.39,0,.72,0,1s0,.52,0,.59v.46a1,1,0,0,0,.51.9c.31.16.64.28,1,.44a5.37,5.37,0,0,1,1.05.51,1.58,1.58,0,0,1,.58,1.16c0,.25,0,.64,0,1.15a6.86,6.86,0,0,1-.08,1.51,4.53,4.53,0,0,1-.43,1.39,1.11,1.11,0,0,1-1,.66,9.11,9.11,0,0,1-2.55.11,13.53,13.53,0,0,0-2.55,0c-.1,0-.38,0-.82.07l-1.35.18c-.46,0-.92.11-1.35.13a6.57,6.57,0,0,1-.82,0,2.71,2.71,0,0,1-1.45-.3A1.7,1.7,0,0,1,121.14,40.71Z"/><path class="cls-1" d="M142.15,40a37.58,37.58,0,0,1-.23-6.49q.15-3.34.05-6.53c-.08-2-.18-4-.33-6s-.21-3.93-.18-5.95c0-2.18,0-4.21,0-6.11a38.22,38.22,0,0,0-.43-6A1.86,1.86,0,0,1,142,1.57,4.5,4.5,0,0,1,143.58,1a8.26,8.26,0,0,1,2,0,2.88,2.88,0,0,1,1.81.85c0,.07,0,.23,0,.46a3.3,3.3,0,0,1,0,.46A18.69,18.69,0,0,1,147.38,7a22.2,22.2,0,0,0-.16,4.24c0,.15,0,.71.08,1.71s.13,2.13.21,3.41.15,2.57.23,3.88.12,2.33.17,3.07c.11,1.8.18,3.57.21,5.29s.12,3.46.3,5.23c.11.72.44,1.13.92,1.23a7.26,7.26,0,0,0,1.66.13c.59,0,1.15,0,1.66,0a.94.94,0,0,1,.87.95c0,1.21,0,2.18-.08,2.9a19.45,19.45,0,0,1-.25,2c-.11.59-.31.9-.57.9,0,0-.1,0-.2,0h-.2c-1.43-.08-2.89-.13-4.39-.2s-3-.16-4.49-.31c-.49,0-.8-.18-.92-.44A3.92,3.92,0,0,1,142.15,40Z"/><path class="cls-1" d="M161.41,40a39.69,39.69,0,0,1-.23-6.49q.16-3.34,0-6.53c-.07-2-.18-4-.33-6s-.2-3.93-.18-5.95c0-2.18,0-4.21,0-6.11a39.48,39.48,0,0,0-.43-6,1.84,1.84,0,0,1,.91-1.39A4.64,4.64,0,0,1,162.84,1a8.26,8.26,0,0,1,2,0,2.86,2.86,0,0,1,1.81.85,3.38,3.38,0,0,0,0,.46,3.3,3.3,0,0,1,0,.46A18.72,18.72,0,0,1,166.64,7a25,25,0,0,0-.17,4.24c0,.15,0,.71.07,1.71s.13,2.13.21,3.41.15,2.57.23,3.88.12,2.33.18,3.07c.1,1.8.17,3.57.2,5.29s.13,3.46.3,5.23c.11.72.41,1.13.92,1.23a7.26,7.26,0,0,0,1.66.13c.59,0,1.15,0,1.66,0a.94.94,0,0,1,.87.95c0,1.21,0,2.18-.08,2.9a13.62,13.62,0,0,1-.25,2c-.1.59-.31.9-.56.9,0,0-.11,0-.21,0h-.2c-1.43-.08-2.89-.13-4.39-.2s-3-.16-4.49-.31c-.49,0-.79-.18-.92-.44A5.62,5.62,0,0,1,161.41,40Z"/><path class="cls-1" d="M179.58,40.71a1.47,1.47,0,0,1,0-.26c0-.1,0-.15,0-.2,0-.49.11-1.08.18-1.77a6.86,6.86,0,0,1,.39-1.72,1.11,1.11,0,0,1,.56-.59,8.56,8.56,0,0,1,.81-.34l.82-.28a1.21,1.21,0,0,0,.61-.48s.05-.06.08-.18a1.57,1.57,0,0,0,0-.29,3.38,3.38,0,0,1,0-.46c0-.23,0-.49.05-.77a7.49,7.49,0,0,0,0-.82V32c-.11-3-.13-6.08-.08-9.08s0-6-.2-9c0-.08,0-.23-.05-.46a5.24,5.24,0,0,1-.08-.74c0-.26,0-.52-.05-.72a3.81,3.81,0,0,1,0-.52.73.73,0,0,0-.53-.61l-.92-.23a2.44,2.44,0,0,1-.9-.34,1.25,1.25,0,0,1-.46-.92s0-.08,0-.1a.17.17,0,0,1,0-.1V8c0-.54,0-1.13,0-1.75s0-1.2,0-1.74V3.34c.08-.31.18-.67.29-1.13a.93.93,0,0,1,.61-.79l.1.05h.1a12.66,12.66,0,0,0,2.35.13c1,0,2,0,3.09,0a17.74,17.74,0,0,1,2.93.38,3.08,3.08,0,0,1,1.94,1.11,1.73,1.73,0,0,1,.28,1.07c0,.49,0,.87.05,1.13a10.19,10.19,0,0,1-.15,3.39,2.72,2.72,0,0,1-.74,1.3,1.85,1.85,0,0,1-.87.44c-.3.08-.48.38-.56.9a38,38,0,0,0-.46,4.74c0,1.59,0,3.16,0,4.75s.12,3.15.25,4.72.21,3.12.28,4.71v1.65c0,.38,0,.71,0,1.05s0,.51,0,.59V34a1,1,0,0,0,.5.9c.31.15.64.28,1,.43a4.82,4.82,0,0,1,1,.52,1.56,1.56,0,0,1,.59,1.15c0,.26,0,.64,0,1.15a7.64,7.64,0,0,1-.07,1.52,5.57,5.57,0,0,1-.41,1.38,1.14,1.14,0,0,1-1,.67,9.13,9.13,0,0,1-2.55.1,13.53,13.53,0,0,0-2.55,0l-.82.08c-.43.05-.89.1-1.35.18s-.92.1-1.35.13a6.66,6.66,0,0,1-.82,0A2.81,2.81,0,0,1,180.3,42,1.65,1.65,0,0,1,179.58,40.71Z"/><path class="cls-1" d="M204.74,43a3.71,3.71,0,0,0,0-.93c-.05-.46-.08-.77-.08-.92a22.07,22.07,0,0,1,0-3.36c.1-1.08.2-2.21.36-3.41a.8.8,0,0,0,0-.31,1.38,1.38,0,0,1-.05-.26,16.89,16.89,0,0,1,.2-2.77c.13-.89.2-1.82.25-2.77a49.54,49.54,0,0,0-.05-5.18c-.1-1.69-.15-3.41-.1-5.13a5.92,5.92,0,0,1,0-.66c0-.31,0-.59.05-.9s0-.56,0-.82,0-.41,0-.49,0-.23,0-.51.08-.54.11-.82.07-.54.1-.8.05-.41.05-.48v-.18a.68.68,0,0,0-.28-.59,1.76,1.76,0,0,0-.56-.26,26.81,26.81,0,0,1-3.22,0,24.66,24.66,0,0,0-3.21,0,2.47,2.47,0,0,1-.84-.38c0-.18,0-.54-.06-1.05a6.67,6.67,0,0,0-.1-1c0-.34-.1-.88-.2-1.57s-.15-1.44-.18-2.18a6.82,6.82,0,0,1,.2-2c.16-.59.46-.93,1-1h.23l18.68.2a.75.75,0,0,1,.61.26,1.87,1.87,0,0,1,.36.59,3.32,3.32,0,0,1,.2.72,4.84,4.84,0,0,1,.05.59,3.86,3.86,0,0,0,0,.43c0,.23,0,.54.07.85s.08.64.11,1,0,.59,0,.82,0,.3,0,.56,0,.57,0,.87,0,.62.06.9,0,.49,0,.59a1,1,0,0,1-.18.57.63.63,0,0,1-.46.33,17.63,17.63,0,0,1-2.8.23,20.3,20.3,0,0,0-2.81.18,1.79,1.79,0,0,1-.51,0,.67.67,0,0,0-.51.26,1.78,1.78,0,0,0-.41,1,8.89,8.89,0,0,0-.08,1.15c0,.39,0,.8,0,1.18s.06.75.06,1.06c-.18,4.2-.29,8.43-.29,12.66a97.2,97.2,0,0,0,.8,12.57,5.52,5.52,0,0,1-.16,1.13.83.83,0,0,1-.76.74h-.05l-.46,0-.77-.08a4.2,4.2,0,0,0-.77-.05h-.38a4.16,4.16,0,0,0-.87,0,7.6,7.6,0,0,1-1.07.05,6.78,6.78,0,0,1-1-.1A2.58,2.58,0,0,1,204.74,43Z"/><path class="cls-1" d="M223.5,33.58a3.94,3.94,0,0,1-.08-.62c0-.25,0-.54,0-.79s0-.49-.05-.7a4.1,4.1,0,0,1,0-.43c0-.72-.08-1.64-.1-2.8s-.08-2.28-.11-3.41-.07-2.13-.1-3-.05-1.36-.05-1.46c0-1.13,0-2.36.08-3.69s.18-2.7.35-4.06a21.7,21.7,0,0,1,.92-4A13.3,13.3,0,0,1,226,5.16a8.37,8.37,0,0,1,2.73-2.49,9.07,9.07,0,0,1,4-1.12h1.12a16.83,16.83,0,0,1,3,.71,9.25,9.25,0,0,1,2.63,1.31,9.44,9.44,0,0,1,2,1.95,7.94,7.94,0,0,1,1.33,2.72l.15,1.1c0,.59.08,1,.08,1.16s0,.74,0,1.33,0,.92,0,1c0,.38,0,1.2,0,2.46s.05,2.64.08,4.13.08,2.92.08,4.33,0,2.47,0,3.13c0,.95,0,2,0,3.26s0,2.49-.11,3.8a31.85,31.85,0,0,1-.51,3.89,11.45,11.45,0,0,1-1.19,3.44,7.75,7.75,0,0,1-2.2,2.51A6.16,6.16,0,0,1,236,44.89a12.54,12.54,0,0,1-3.39-.23c-1.07-.23-2.17-.54-3.29-.9a6.44,6.44,0,0,1-2.76-1.57,8.14,8.14,0,0,1-1.71-2.48,12.77,12.77,0,0,1-.94-3A18.19,18.19,0,0,1,223.5,33.58Zm7.45-.39a5.05,5.05,0,0,0,.69,2.13,1.9,1.9,0,0,0,1.94.82,1.93,1.93,0,0,0,1.36-.54,2.7,2.7,0,0,0,.63-1.18,6.45,6.45,0,0,0,.23-1.48c0-.54,0-1,.08-1.47V31c0-.26,0-.52,0-.8a7.22,7.22,0,0,0,0-.79V29c.1-1.92.18-3.67.18-5.28s-.05-3.36-.18-5.29c0-.23,0-.59-.05-1.1s-.08-1.05-.1-1.64-.08-1.13-.11-1.64,0-.87,0-1.1a6,6,0,0,0-.4-.93c-.23-.36-.44-.74-.69-1.1a4.71,4.71,0,0,0-.85-.92,1.4,1.4,0,0,0-.91-.39,1.5,1.5,0,0,0-1,.54,3.38,3.38,0,0,0-.66,1.16,7.14,7.14,0,0,0-.39,1.38c-.1.46-.15.85-.2,1.15a2.07,2.07,0,0,0-.1.57c0,.31-.08.64-.13,1a10.12,10.12,0,0,1-.18,1.08,5.44,5.44,0,0,0-.07.62V19.4c0,.56,0,1.12,0,1.66s0,1,0,1.26v.46a.32.32,0,0,0,0,.18.32.32,0,0,1,0,.18v.23c0,.38.1,1,.2,2s.2,1.93.31,2.95.2,2,.28,3S230.93,32.81,231,33.19Z"/><path class="cls-1" d="M275.59,43.25c0-.31,0-.54,0-.75a3,3,0,0,1,.1-.74L275.59,30a66.29,66.29,0,0,1-.67-8.72c-.05-2.95-.1-5.85-.23-8.67-.1-1.3-.2-2.64-.3-4a34.67,34.67,0,0,1-.08-3.95,2.25,2.25,0,0,0-.08-.64,1,1,0,0,1,.08-.64,2.25,2.25,0,0,1,1-.79,5.76,5.76,0,0,1,1.41-.41A8.54,8.54,0,0,1,278.19,2l1.25-.08a6.85,6.85,0,0,1,2.53.23,8.35,8.35,0,0,1,2.19,1,10.56,10.56,0,0,1,3.32,3.46,3.81,3.81,0,0,1,.35,1,4.4,4.4,0,0,0,.36,1l.39,3.72a2.52,2.52,0,0,0-.11.61c0,.34-.05.57-.05.67A8.48,8.48,0,0,1,288,15.5a3.68,3.68,0,0,0-.23,1.77,2.09,2.09,0,0,0,.69,1.33,14.22,14.22,0,0,1,1.1,1.1l.61.67c.31.33.51.56.61.67a1.38,1.38,0,0,0,.26.69c.2.33.46.72.74,1.15a10.84,10.84,0,0,1,.74,1.31,2,2,0,0,1,.25,1,6.48,6.48,0,0,0,.26.61c.13.31.25.62.38.95s.23.64.33.92.16.49.21.59,0,.29,0,.72a3.52,3.52,0,0,0,.18,1,17.16,17.16,0,0,1-.13,4.87,36.31,36.31,0,0,1-1.2,4.72.48.48,0,0,1,0,.29c0,.1-.08.2-.1.28a15.36,15.36,0,0,1-1.25,2,3.89,3.89,0,0,1-2,1.33c-.15,0-.38,0-.72,0s-.66.08-1,.16-.72.1-1,.12-.56.06-.71.06-.54,0-.9,0-.74.07-1.12.1-.71.08-1,.08l-.49,0a1.39,1.39,0,0,0-.28,0,4.1,4.1,0,0,1-.51,0,5.24,5.24,0,0,1-.56,0,2.3,2.3,0,0,0-.38,0c-.49,0-1,0-1.56-.07a14.47,14.47,0,0,0-1.61-.08c-.56,0-1,.08-1.35.1S275.66,43.84,275.59,43.25Zm5.1-28.63a.32.32,0,0,0,.26.24.72.72,0,0,0,.3.05c.18-.05.31-.13.33-.29a5.8,5.8,0,0,0,.62-1.92,9.71,9.71,0,0,0,0-2c0-.18-.08-.42-.13-.65a1.86,1.86,0,0,0-.28-.66,1.53,1.53,0,0,0-.49-.52.83.83,0,0,0-.66-.12l-.2,0c-.11,0-.16.05-.21.05l-.18.33Zm.28,23c0,.38.28.64.77.79a2.91,2.91,0,0,0,1.15.18,5.05,5.05,0,0,0,2.42-.8,3.67,3.67,0,0,0,1.3-1.51,6,6,0,0,0,.46-2A13.11,13.11,0,0,0,287,32a17.75,17.75,0,0,0-1-4.31,7.48,7.48,0,0,0-2.76-3.54,4.62,4.62,0,0,0-.69-.36,1.24,1.24,0,0,0-.76-.08.58.58,0,0,0-.51.29,2.11,2.11,0,0,0-.23.64,3.84,3.84,0,0,0-.05.77v5.31a3.57,3.57,0,0,1,.1.64c0,.36.05.56.05.64a26,26,0,0,1-.08,2.82A14.39,14.39,0,0,0,281,37.66Z"/><path class="cls-1" d="M318.77,43.68a1.12,1.12,0,0,1-.77-.61,3.76,3.76,0,0,1-.38-1.08c-.1-.39-.18-.72-.23-1s-.16-.41-.31-.41a2.1,2.1,0,0,0-.87.51c-.35.31-.76.64-1.2,1a11.47,11.47,0,0,1-1.5,1.07,3.73,3.73,0,0,1-1.74.57,7.21,7.21,0,0,1-2.22-.1,5.74,5.74,0,0,1-2-.8,9.4,9.4,0,0,1-3.16-2.92,14.39,14.39,0,0,1-1.79-3.8,21.24,21.24,0,0,1-.89-4.28c-.18-1.49-.33-2.92-.49-4.31a51.5,51.5,0,0,1-.15-7.85c.18-2.59.33-5.23.54-7.9v-.53c0-.29,0-.59.05-.9s.05-.62.05-.9V8.93c0-.59,0-1.13,0-1.59A2.59,2.59,0,0,1,302,6.19a2.06,2.06,0,0,1,.77-.82,4.49,4.49,0,0,1,1.65-.52,3.46,3.46,0,0,1,.82,0,8.18,8.18,0,0,1,1.12.26,8.33,8.33,0,0,1,1.13.38,2,2,0,0,1,.71.46c0,.08,0,.21.05.39a3.57,3.57,0,0,1,.05.38,17,17,0,0,1,.05,2.59,23.72,23.72,0,0,1-.23,2.75c-.1.92-.23,1.82-.3,2.74s-.16,1.77-.21,2.59a33,33,0,0,0,.05,5c.16,1.61.31,3.28.51,5,.11,1.18.28,2.31.49,3.41a4.94,4.94,0,0,0,1.71,2.9,6.48,6.48,0,0,0,.61.51,6.18,6.18,0,0,1,.61.52l.21,0a1.88,1.88,0,0,0,.2.05h.16a3.4,3.4,0,0,1,.45-.23.77.77,0,0,0,.46-.46,21.2,21.2,0,0,0,1.61-4.57,28,28,0,0,0,.62-4.49c.1-1.48.12-3,.07-4.54s0-3.13,0-4.79v-.34a5.09,5.09,0,0,1,0-.66c0-.26,0-.49.05-.7a5,5,0,0,0,0-.51s0-.18,0-.43.08-.57.11-.88.07-.59.1-.84,0-.41,0-.49a20.84,20.84,0,0,0-.08-2.59,6.05,6.05,0,0,1,0-1.92,1.87,1.87,0,0,1,.89-1.26,5.74,5.74,0,0,1,2.58-.64c.23,0,.53-.08.89-.1a4.54,4.54,0,0,1,1.1,0,3.52,3.52,0,0,1,1,.23,1.26,1.26,0,0,1,.69.72,6.53,6.53,0,0,0,.1,1,9.15,9.15,0,0,0,.18.92,31.49,31.49,0,0,1,.08,5.31c-.13,1.72-.23,3.49-.31,5.31a9.43,9.43,0,0,0,.05,1.74,6.56,6.56,0,0,1-.05,1.88c.26,1.72.43,3.46.54,5.15s.15,3.44.2,5.16.08,3.46.1,5.18.1,3.46.23,5.18a8.57,8.57,0,0,1-.28.9.78.78,0,0,1-.66.51,11.66,11.66,0,0,1-2.1,0A6.83,6.83,0,0,0,318.77,43.68Z"/><path class="cls-1" d="M329,34.14a2.08,2.08,0,0,1,1.43-1.38,6.68,6.68,0,0,1,2.48-.18,23.63,23.63,0,0,1,3.19.54c1.17.25,2.4.51,3.67.74a3.46,3.46,0,0,0,1.38-.39,5,5,0,0,0,1.1-.87,9.4,9.4,0,0,0,.94-1.2c.31-.46.61-.9.95-1.36a.91.91,0,0,0,.1-.26c0-.13.05-.2.05-.25L344,26.19a5.69,5.69,0,0,1-.72-.56l-.91-.8a3.6,3.6,0,0,0-.44-.31,1.37,1.37,0,0,0-.41-.2A29.51,29.51,0,0,0,337.88,23a20.7,20.7,0,0,1-3.19-1.21A9.32,9.32,0,0,1,332,19.83a10.21,10.21,0,0,1-2.09-3.46c0-.1,0-.28,0-.51s-.05-.47-.08-.7a6.18,6.18,0,0,1-.08-.66,4,4,0,0,1,0-.41c0-.54-.08-1.08-.16-1.7a3.67,3.67,0,0,1,.21-1.69,5.26,5.26,0,0,1,.23-.82c.1-.38.25-.79.38-1.21s.28-.82.44-1.17.2-.65.25-.8V6.39a8.25,8.25,0,0,1,.61-.79c.18-.18.36-.39.54-.59l.41-.49a15.36,15.36,0,0,1,3.67-3.15A11.25,11.25,0,0,1,340.74,0a10,10,0,0,1,2.14.18,18,18,0,0,1,2.81.69A10.64,10.64,0,0,1,348.16,2a2.06,2.06,0,0,1,1.13,1.54,6.78,6.78,0,0,1-.06,1.36,12.69,12.69,0,0,1-.35,1.69,6.18,6.18,0,0,1-.67,1.49,1.27,1.27,0,0,1-1,.69,15.72,15.72,0,0,1-2.91,0,15.08,15.08,0,0,0-2.93,0c-.18,0-.57,0-1.15.1a10.17,10.17,0,0,1-1.15.11,2.84,2.84,0,0,1-.54.25,7.15,7.15,0,0,0-.74.36,5.47,5.47,0,0,0-.61.44.6.6,0,0,0-.25.46l.28,3.39a.74.74,0,0,0,.35.53c.23.18.51.34.79.52a5.56,5.56,0,0,0,.87.46l.61.25c1.51.72,2.86,1.39,4.11,2a13.32,13.32,0,0,1,3.19,2.26A10.45,10.45,0,0,1,349.31,23a13.67,13.67,0,0,1,1.05,4.43,13.75,13.75,0,0,1-.31,4.57,12.24,12.24,0,0,1-1.73,4,10.29,10.29,0,0,1-3.07,3A9.09,9.09,0,0,1,341,40.37a19.31,19.31,0,0,1-4,.06,13,13,0,0,1-3.8-.85,7.66,7.66,0,0,1-2.88-2A5.57,5.57,0,0,1,329,34.14Z"/><path class="cls-1" d="M356.76,38.17a1.13,1.13,0,0,0-.07-.51c-.11-.26-.21-.57-.33-.88s-.26-.61-.39-.89a3.37,3.37,0,0,1-.25-.65V31.35c0-.23,0-.72,0-1.49s0-1.59.05-2.49,0-1.72.06-2.49,0-1.25,0-1.48V19.88A10.31,10.31,0,0,0,356,18.6c0-.59.05-1.18.07-1.8s.08-1.2.08-1.71,0-.88.08-1.08,0-.31.05-.69a2,2,0,0,1,.18-.82c.1-.65.17-1.31.23-2a8.36,8.36,0,0,1,.33-2A16.27,16.27,0,0,1,358,6.29a13,13,0,0,1,4-4.23,4.63,4.63,0,0,1,2.58-.8c.66,0,1.2,0,1.58.05a2.94,2.94,0,0,1,1,.24,1.91,1.91,0,0,1,.76.53,11.54,11.54,0,0,1,.84,1.06.33.33,0,0,0,.11.23l.1.1V8.65l-.43.33a8,8,0,0,0-4,1.08,4.69,4.69,0,0,0-2,3c-.05.31-.08.8-.16,1.49s-.12,1.43-.2,2.2S362.1,18.27,362,19a13.19,13.19,0,0,0-.1,1.44v2.18c0,1.43,0,2.76,0,4s.08,2.61.16,4.13a6.55,6.55,0,0,0,.66,2.64A5.39,5.39,0,0,0,364.11,35a6.73,6.73,0,0,0,1.69.9,17.37,17.37,0,0,0,1.68.51,9.75,9.75,0,0,1,1.35.44,1,1,0,0,1,.67.72V39c0,.31,0,.67.05,1.1a6.38,6.38,0,0,1,0,1.31,3.22,3.22,0,0,1-.35,1.16,1.44,1.44,0,0,1-1,.66h-1.51a14.08,14.08,0,0,1-6-1.18A7.7,7.7,0,0,1,356.76,38.17Z"/><path class="cls-1" d="M390.58,42.78a2,2,0,0,1-.56-.35,1.08,1.08,0,0,1-.34-.54l-1.35-11.95a.5.5,0,0,0-.2-.39c-.13-.1-.26-.15-.36-.1l-6.51.61,1.07,9.88a5.44,5.44,0,0,0,.51,1.66,5,5,0,0,1,.51,1.62c0,.23,0,.36-.05.41a1.32,1.32,0,0,1-.51.13,1.79,1.79,0,0,0-.3,0,1,1,0,0,1-.26,0h-.69c-.3,0-.64,0-1,0s-.63,0-.92,0l-.53,0a4.68,4.68,0,0,1-1.64-.23,2,2,0,0,1-.94-.66,2.88,2.88,0,0,1-.48-1.11,14.42,14.42,0,0,1-.26-1.48c-.18-2.08-.33-4.13-.46-6.19s-.2-4.12-.28-6.23c0,0,0-.23,0-.61s-.06-.8-.08-1.31-.08-1-.1-1.44-.08-.84-.11-1.1A17.9,17.9,0,0,1,375,19.6c.2-1.21.43-2.51.69-4a2.72,2.72,0,0,1,.12-2c.31-.71.57-1.35.77-1.92a3.45,3.45,0,0,0,.13-.85,3.08,3.08,0,0,1,.2-.89s0-.11.05-.21.08-.13.1-.13a20.57,20.57,0,0,0,1.08-2.28,10.06,10.06,0,0,1,1.25-2.28,10.74,10.74,0,0,1,1.22-1.39,16,16,0,0,1,1.59-1.33,10.38,10.38,0,0,1,1.76-1A7.48,7.48,0,0,1,385.73.8a6.16,6.16,0,0,1,3.93.69,6.59,6.59,0,0,1,2.22,2.41,13.07,13.07,0,0,1,1.25,3.26,33.15,33.15,0,0,0,1,3.31,3.5,3.5,0,0,0,.08.62,8.29,8.29,0,0,1,.12.94,7.46,7.46,0,0,0,.16.93,3.79,3.79,0,0,1,.07.59c.26,2.49.41,5,.49,7.51s.13,5,.25,7.52a13.37,13.37,0,0,1-.15,2,8.81,8.81,0,0,0-.08,2c0,.07,0,.28.05.59s.08.66.11,1.05a5.65,5.65,0,0,0,.15,1c.05.33.08.51.08.59v1.87c0,.08,0,.28,0,.59s0,.67.05,1,0,.72.05,1,0,.54,0,.64a7.19,7.19,0,0,1-.1,1,.88.88,0,0,1-.74.8h-.1l-.36-.06-.36-.05c-.1,0-.33,0-.66,0s-.69,0-1.05,0-.69,0-1,0S390.68,42.78,390.58,42.78Zm-9.22-20.31a1.06,1.06,0,0,0,.8,1,6.14,6.14,0,0,0,1.68.36,15.23,15.23,0,0,0,1.91,0c.64,0,1.13,0,1.46-.08l.46,0a3.3,3.3,0,0,1,.46,0,2.28,2.28,0,0,0,.17-.3c0-.11.08-.21.11-.31s0-.59-.05-1.1a14.49,14.49,0,0,1-.08-1.67c0-.59,0-1.16,0-1.67s0-.87,0-1.1a1.78,1.78,0,0,0,.05-.51V16.5L387.69,11a2.63,2.63,0,0,0-.28-.9,4.12,4.12,0,0,0-.56-.92,2.31,2.31,0,0,0-.82-.67,1.61,1.61,0,0,0-1-.2,1.82,1.82,0,0,0-.84.28,8.37,8.37,0,0,0-2.3,4,25.35,25.35,0,0,0-.5,4.56c0,.9,0,1.8-.06,2.65A13.91,13.91,0,0,0,381.36,22.47Z"/><path class="cls-1" d="M401.12,39.78a4.55,4.55,0,0,1,.25-1.51,4.67,4.67,0,0,1,.77-1.44,4,4,0,0,1,1.27-1.07,4,4,0,0,1,1.86-.41c.34,0,.67,0,1,0a2.93,2.93,0,0,1,.94.28c.74.72,1.48,1.46,2.17,2.21a3.64,3.64,0,0,1,1,2.54,3.17,3.17,0,0,1-.36,1.33,5.92,5.92,0,0,1-1,1.31,5.58,5.58,0,0,1-1.4,1,4.13,4.13,0,0,1-1.64.35,5.19,5.19,0,0,1-2-.38,5,5,0,0,1-1.58-1.05,4.59,4.59,0,0,1-1-1.46A4.5,4.5,0,0,1,401.12,39.78Z"/><path class="cls-1" d="M417.19,39.78a4.57,4.57,0,0,1,.26-1.51,4.86,4.86,0,0,1,.76-1.44,4.18,4.18,0,0,1,1.28-1.07,4,4,0,0,1,1.86-.41c.34,0,.67,0,1,0a2.92,2.92,0,0,1,.95.28c.74.72,1.48,1.46,2.17,2.21a3.63,3.63,0,0,1,1,2.54,3.14,3.14,0,0,1-.35,1.33,6.25,6.25,0,0,1-1,1.31,5.63,5.63,0,0,1-1.41,1,4.05,4.05,0,0,1-1.63.35,5.19,5.19,0,0,1-2-.38,5,5,0,0,1-1.58-1.05,4.59,4.59,0,0,1-1-1.46A4.16,4.16,0,0,1,417.19,39.78Z"/><path class="cls-1" d="M433.24,39.78a4.57,4.57,0,0,1,.26-1.51,4.67,4.67,0,0,1,.77-1.44,4,4,0,0,1,1.27-1.07,4,4,0,0,1,1.87-.41c.33,0,.66,0,1,0a2.93,2.93,0,0,1,.94.28c.74.72,1.48,1.46,2.17,2.21a3.63,3.63,0,0,1,1,2.54,3.14,3.14,0,0,1-.35,1.33,5.92,5.92,0,0,1-1,1.31,5.77,5.77,0,0,1-1.4,1,4.13,4.13,0,0,1-1.64.35,5.19,5.19,0,0,1-2-.38,5,5,0,0,1-1.58-1.05,4.59,4.59,0,0,1-1-1.46A4.16,4.16,0,0,1,433.24,39.78Z"/><path class="cls-1" d="M474.74,43.25c0-.31-.05-.54-.05-.75a3,3,0,0,1,.1-.74L474.74,30a64.62,64.62,0,0,1-.66-8.72c-.06-2.95-.11-5.85-.24-8.67-.1-1.3-.2-2.64-.3-4a34.67,34.67,0,0,1-.08-3.95,2.67,2.67,0,0,0-.07-.64,1,1,0,0,1,.07-.64,2.23,2.23,0,0,1,1-.79,5.56,5.56,0,0,1,1.4-.41A8.66,8.66,0,0,1,477.34,2l1.25-.08a6.83,6.83,0,0,1,2.53.23,8.35,8.35,0,0,1,2.19,1,10.94,10.94,0,0,1,1.87,1.54,10.76,10.76,0,0,1,1.45,1.92,4.17,4.17,0,0,1,.36,1,4,4,0,0,0,.35,1l.39,3.72a2.23,2.23,0,0,0-.1.61c0,.34-.05.57-.05.67a9.14,9.14,0,0,1-.47,1.85,3.67,3.67,0,0,0-.22,1.77,2,2,0,0,0,.69,1.33,14,14,0,0,1,1.09,1.1l.61.67.62.67c0,.12.05.33.25.69l.74,1.15a10.84,10.84,0,0,1,.74,1.31,2,2,0,0,1,.26,1,5.65,5.65,0,0,0,.25.61c.13.31.26.62.39.95l.33.92c.1.29.15.49.2.59s0,.29.05.72a3.91,3.91,0,0,0,.18,1,17.16,17.16,0,0,1-.13,4.87,36.31,36.31,0,0,1-1.2,4.72.48.48,0,0,1,0,.29,2.43,2.43,0,0,0-.1.28,15.36,15.36,0,0,1-1.25,2,3.89,3.89,0,0,1-2,1.33c-.15,0-.38,0-.71,0s-.67.08-1.05.16-.71.1-1.05.12-.56.06-.71.06-.54,0-.89,0-.74.07-1.13.1-.71.08-1,.08l-.49,0a1.45,1.45,0,0,0-.28,0,4.1,4.1,0,0,1-.51,0,5.24,5.24,0,0,1-.56,0,2.3,2.3,0,0,0-.38,0c-.49,0-1,0-1.56-.07a14.35,14.35,0,0,0-1.61-.08c-.56,0-1,.08-1.35.1S474.79,43.84,474.74,43.25Zm5.1-28.63a.32.32,0,0,0,.26.24.74.74,0,0,0,.3.05c.18-.05.31-.13.33-.29a5.8,5.8,0,0,0,.62-1.92,9.71,9.71,0,0,0,0-2c0-.18-.08-.42-.13-.65a1.86,1.86,0,0,0-.28-.66,1.6,1.6,0,0,0-.48-.52.84.84,0,0,0-.67-.12l-.2,0c-.11,0-.16.05-.21.05l-.18.33Zm.28,23c0,.38.28.64.77.79a2.91,2.91,0,0,0,1.15.18,5.05,5.05,0,0,0,2.42-.8,3.67,3.67,0,0,0,1.3-1.51,6,6,0,0,0,.46-2,13.11,13.11,0,0,0-.1-2.26,17.3,17.3,0,0,0-1-4.31,7.42,7.42,0,0,0-2.76-3.54,4.62,4.62,0,0,0-.69-.36,1.23,1.23,0,0,0-.76-.08.6.6,0,0,0-.51.29,2.42,2.42,0,0,0-.23.64,3.84,3.84,0,0,0,0,.77v5.31a3.57,3.57,0,0,1,.1.64c0,.36.05.56.05.64a23.71,23.71,0,0,1-.08,2.82A13.65,13.65,0,0,0,480.12,37.66Z"/><path class="cls-1" d="M517.89,43.68a1.12,1.12,0,0,1-.76-.61,4.1,4.1,0,0,1-.39-1.08c-.1-.39-.17-.72-.23-1s-.15-.41-.3-.41a2.1,2.1,0,0,0-.87.51c-.36.31-.76.64-1.2,1a11.47,11.47,0,0,1-1.5,1.07,3.77,3.77,0,0,1-1.74.57,7.21,7.21,0,0,1-2.22-.1,5.74,5.74,0,0,1-2-.8,9.4,9.4,0,0,1-3.16-2.92,14.39,14.39,0,0,1-1.79-3.8,20.58,20.58,0,0,1-.89-4.28c-.18-1.49-.34-2.92-.49-4.31a47.91,47.91,0,0,1-.13-7.85c.18-2.59.34-5.23.54-7.9v-.53c0-.29,0-.59.05-.9a5.81,5.81,0,0,0,.05-.9V8.93c0-.59.05-1.13.05-1.59a2.59,2.59,0,0,1,.23-1.15,2.06,2.06,0,0,1,.77-.82,4.56,4.56,0,0,1,1.66-.52,3.37,3.37,0,0,1,.81,0,11.61,11.61,0,0,1,2.25.64,1.62,1.62,0,0,1,.69.46,2.91,2.91,0,0,0,.05.39,1.4,1.4,0,0,1,.05.38,17,17,0,0,1,.05,2.59,23.72,23.72,0,0,1-.23,2.75l-.3,2.74c-.11.9-.16,1.77-.21,2.59a33,33,0,0,0,.05,5c.16,1.61.31,3.28.51,5a32.91,32.91,0,0,0,.49,3.41,4.94,4.94,0,0,0,1.71,2.9,5.31,5.31,0,0,0,.61.51,6.18,6.18,0,0,1,.61.52l.21,0a1.88,1.88,0,0,0,.2.05h.15a3.74,3.74,0,0,1,.46-.23.8.8,0,0,0,.46-.46,21.2,21.2,0,0,0,1.61-4.57,30.43,30.43,0,0,0,.61-4.49c.1-1.48.13-3,.08-4.54s0-3.13,0-4.79v-.34c0-.2,0-.43,0-.66a6.41,6.41,0,0,0,.06-.7c0-.23,0-.38,0-.51s0-.18,0-.43.08-.57.1-.88.08-.59.11-.84,0-.41,0-.49a16.29,16.29,0,0,0-.08-2.59,5.77,5.77,0,0,1,0-1.92,1.84,1.84,0,0,1,.89-1.26,5.7,5.7,0,0,1,2.58-.64c.23,0,.51-.08.89-.1a4.53,4.53,0,0,1,1.1,0,3.59,3.59,0,0,1,1,.23,1.32,1.32,0,0,1,.69.72,6.53,6.53,0,0,0,.1,1,9.15,9.15,0,0,0,.18.92,30.46,30.46,0,0,1,.07,5.31c-.12,1.72-.23,3.49-.3,5.31a9.43,9.43,0,0,0,0,1.74,6.56,6.56,0,0,1,0,1.88c.25,1.72.43,3.46.53,5.15s.16,3.44.21,5.16.07,3.46.1,5.18.1,3.46.23,5.18c-.08.31-.18.61-.28.9a.78.78,0,0,1-.66.51,11.69,11.69,0,0,1-2.1,0A6.9,6.9,0,0,0,517.89,43.68Z"/><path class="cls-1" d="M528.13,34.14a2.07,2.07,0,0,1,1.42-1.38,6.68,6.68,0,0,1,2.48-.18,24.14,24.14,0,0,1,3.21.54c1.18.25,2.4.51,3.68.74a3.46,3.46,0,0,0,1.38-.39,5.19,5.19,0,0,0,1.1-.87,9.4,9.4,0,0,0,.94-1.2c.31-.46.61-.9.94-1.36a.65.65,0,0,0,.11-.26.61.61,0,0,0,.05-.25l-.23-3.34a5.69,5.69,0,0,1-.72-.56c-.38-.34-.69-.59-.92-.8a3.29,3.29,0,0,0-.43-.31,1.3,1.3,0,0,0-.43-.2A29.61,29.61,0,0,0,537,23a21.1,21.1,0,0,1-3.19-1.21,9.27,9.27,0,0,1-2.7-1.92,10.07,10.07,0,0,1-2.1-3.46c0-.1,0-.28,0-.51s0-.47-.08-.7a3.3,3.3,0,0,1-.07-.66,2.67,2.67,0,0,1,0-.41c0-.54-.08-1.08-.15-1.7a3.81,3.81,0,0,1,.2-1.69,6.74,6.74,0,0,1,.23-.82c.1-.38.26-.79.38-1.21s.28-.82.44-1.17.2-.65.25-.8V6.39c.23-.33.44-.59.61-.79s.36-.39.54-.59.31-.36.44-.49a15.17,15.17,0,0,1,3.67-3.15A11.2,11.2,0,0,1,539.91,0a10,10,0,0,1,2.15.18,18.27,18.27,0,0,1,2.81.69A10.64,10.64,0,0,1,547.34,2a2,2,0,0,1,1.12,1.54,6,6,0,0,1-.05,1.36,12.69,12.69,0,0,1-.35,1.69,6.18,6.18,0,0,1-.67,1.49,1.27,1.27,0,0,1-1,.69,15.72,15.72,0,0,1-2.91,0,14.89,14.89,0,0,0-2.91,0c-.18,0-.56,0-1.15.1a10.17,10.17,0,0,1-1.15.11,3,3,0,0,1-.53.25,5.6,5.6,0,0,0-.74.36,5.72,5.72,0,0,0-.62.44.63.63,0,0,0-.25.46l.28,3.39a.76.76,0,0,0,.36.53c.25.18.51.34.79.52a5.56,5.56,0,0,0,.87.46l.61.25c1.5.72,2.86,1.39,4.11,2a13.73,13.73,0,0,1,3.19,2.26A10.83,10.83,0,0,1,548.52,23a13.68,13.68,0,0,1,1,4.43,13.75,13.75,0,0,1-.3,4.57,12.26,12.26,0,0,1-1.74,4,10.26,10.26,0,0,1-3.06,3,9.16,9.16,0,0,1-4.21,1.41,19.32,19.32,0,0,1-4,.06,13,13,0,0,1-3.81-.85,7.66,7.66,0,0,1-2.88-2A5.22,5.22,0,0,1,528.13,34.14Z"/><path class="cls-1" d="M555.91,38.17a1.13,1.13,0,0,0-.07-.51c-.1-.26-.2-.57-.33-.88s-.26-.61-.39-.89a4.22,4.22,0,0,1-.25-.65V31.35c0-.23,0-.72,0-1.49s0-1.59.05-2.49,0-1.72,0-2.49,0-1.25,0-1.48V19.88a7.43,7.43,0,0,0,.08-1.28c0-.59,0-1.18.07-1.8s.06-1.2.08-1.71,0-.88.08-1.08,0-.31,0-.69a2.16,2.16,0,0,1,.18-.82c.1-.65.18-1.31.23-2a8.36,8.36,0,0,1,.33-2,17.62,17.62,0,0,1,1.07-2.15A12.62,12.62,0,0,1,559,4a12.31,12.31,0,0,1,2.27-1.9,4.63,4.63,0,0,1,2.58-.8c.66,0,1.2,0,1.58.05a3.06,3.06,0,0,1,1,.24,1.91,1.91,0,0,1,.76.53A13.29,13.29,0,0,1,568,3.14a.5.5,0,0,0,.1.23l.1.1V8.65l-.43.33a8,8,0,0,0-4,1.08,4.72,4.72,0,0,0-2,3c0,.31-.08.8-.15,1.49s-.13,1.43-.21,2.2-.15,1.52-.23,2.21-.1,1.18-.1,1.44v2.18c0,1.43,0,2.76,0,4s.07,2.61.15,4.13a6.71,6.71,0,0,0,.66,2.64A5.27,5.27,0,0,0,563.27,35a5.92,5.92,0,0,0,1.68.9,17.37,17.37,0,0,0,1.68.51,12.14,12.14,0,0,1,1.36.44,1.09,1.09,0,0,1,.68.72V39c0,.31,0,.67.06,1.1a8.19,8.19,0,0,1,0,1.31,3.22,3.22,0,0,1-.36,1.16,1.42,1.42,0,0,1-1,.66h-1.5a14.16,14.16,0,0,1-6-1.18A7.53,7.53,0,0,1,555.91,38.17Z"/><path class="cls-1" d="M589.7,42.78a2.33,2.33,0,0,1-.56-.35,1.06,1.06,0,0,1-.33-.54l-1.35-11.95a.48.48,0,0,0-.21-.39.34.34,0,0,0-.35-.1l-6.51.61,1.07,9.88A5.44,5.44,0,0,0,582,41.6a5,5,0,0,1,.51,1.62c0,.23,0,.36-.05.41a1.38,1.38,0,0,1-.51.13,1.9,1.9,0,0,0-.31,0,.94.94,0,0,1-.25,0h-.69c-.31,0-.64,0-1,0s-.63,0-.91,0l-.54,0a4.62,4.62,0,0,1-1.63-.23,2.05,2.05,0,0,1-1-.66,2.88,2.88,0,0,1-.48-1.11c-.1-.43-.18-.92-.26-1.48-.18-2.08-.33-4.13-.46-6.19s-.2-4.12-.28-6.23c0,0,0-.23,0-.61s0-.8-.08-1.31-.08-1-.1-1.44-.08-.84-.1-1.1a17.93,17.93,0,0,1,.2-3.95c.21-1.21.43-2.51.69-4a2.68,2.68,0,0,1,.13-2c.3-.71.56-1.35.76-1.92a3.45,3.45,0,0,0,.13-.85A3.93,3.93,0,0,1,576,10a1.54,1.54,0,0,1,.06-.21c0-.1.07-.13.1-.13a20.49,20.49,0,0,0,1.07-2.28,11.73,11.73,0,0,1,1.22-2.28,10.86,10.86,0,0,1,1.23-1.39,15.85,15.85,0,0,1,1.58-1.33,10.78,10.78,0,0,1,1.76-1A7.6,7.6,0,0,1,584.8.8a6.13,6.13,0,0,1,3.93.69A6.43,6.43,0,0,1,591,3.9a13.08,13.08,0,0,1,1.26,3.26,33.19,33.19,0,0,0,1,3.31,4.88,4.88,0,0,0,.08.62c.05.28.1.61.13.94s.08.65.15.93a4.21,4.21,0,0,1,.08.59c.25,2.49.43,5,.48,7.51s.13,5,.26,7.52a13.37,13.37,0,0,1-.15,2,8.26,8.26,0,0,0-.08,2c0,.07,0,.28.05.59s.08.66.1,1.05.08.72.13,1,.08.51.08.59v1.87c0,.08,0,.28,0,.59s0,.67.05,1,0,.72.06,1,0,.54,0,.64a6,6,0,0,1-.1,1,.88.88,0,0,1-.74.8h-.1l-.36-.06-.36-.05c-.1,0-.33,0-.66,0s-.69,0-1.05,0-.69,0-1,0A4.93,4.93,0,0,0,589.7,42.78Zm-9.21-20.31a1.07,1.07,0,0,0,.79,1,6.3,6.3,0,0,0,1.69.36,15.18,15.18,0,0,0,1.91,0c.64,0,1.12,0,1.46-.08.07,0,.23,0,.45,0a3.38,3.38,0,0,1,.46,0,1.59,1.59,0,0,0,.18-.3c0-.11.08-.21.1-.31s0-.59,0-1.1-.07-1.06-.07-1.67,0-1.16,0-1.67,0-.87,0-1.1a1.78,1.78,0,0,0,0-.51V16.5L586.82,11a4,4,0,0,0-.28-.9,4.12,4.12,0,0,0-.56-.92,2.31,2.31,0,0,0-.82-.67,1.63,1.63,0,0,0-1-.2,1.79,1.79,0,0,0-.84.28,8.29,8.29,0,0,0-2.3,4,25.32,25.32,0,0,0-.51,4.56c0,.9,0,1.8,0,2.65A14.77,14.77,0,0,0,580.49,22.47Z"/><path class="cls-1" d="M600.27,39.78a4.55,4.55,0,0,1,.25-1.51,4.67,4.67,0,0,1,.77-1.44,4,4,0,0,1,1.28-1.07,3.9,3.9,0,0,1,1.86-.41c.33,0,.66,0,1,0a2.92,2.92,0,0,1,1,.28c.74.72,1.48,1.46,2.17,2.21a3.67,3.67,0,0,1,1,2.54,3,3,0,0,1-.36,1.33,5.87,5.87,0,0,1-1,1.31,5.63,5.63,0,0,1-1.41,1,4.05,4.05,0,0,1-1.63.35,5,5,0,0,1-3.63-1.43,4.72,4.72,0,0,1-1-1.46A4.47,4.47,0,0,1,600.27,39.78Z"/><path class="cls-1" d="M616.32,39.78a4.57,4.57,0,0,1,.26-1.51,4.44,4.44,0,0,1,.76-1.44,4.07,4.07,0,0,1,1.28-1.07,3.92,3.92,0,0,1,1.86-.41c.33,0,.66,0,1,0a2.92,2.92,0,0,1,.95.28c.74.72,1.48,1.46,2.17,2.21a3.63,3.63,0,0,1,1,2.54,3.14,3.14,0,0,1-.35,1.33,5.92,5.92,0,0,1-1,1.31,5.63,5.63,0,0,1-1.41,1,4.05,4.05,0,0,1-1.63.35,5.19,5.19,0,0,1-2-.38,5,5,0,0,1-1.58-1.05,4.59,4.59,0,0,1-1-1.46A4.47,4.47,0,0,1,616.32,39.78Z"/><path class="cls-1" d="M632.37,39.78a4.57,4.57,0,0,1,.26-1.51,4.44,4.44,0,0,1,.76-1.44,4.07,4.07,0,0,1,1.28-1.07,3.92,3.92,0,0,1,1.86-.41c.33,0,.67,0,1,0a2.93,2.93,0,0,1,.94.28c.74.72,1.48,1.46,2.17,2.21a3.64,3.64,0,0,1,1.05,2.54,3.17,3.17,0,0,1-.36,1.33,5.92,5.92,0,0,1-1,1.31,5.58,5.58,0,0,1-1.4,1,4.13,4.13,0,0,1-1.64.35,5.19,5.19,0,0,1-2-.38,5,5,0,0,1-1.58-1.05,4.75,4.75,0,0,1-1-1.46A5.13,5.13,0,0,1,632.37,39.78Z"/></g></g></svg>