<?xml version="1.0" encoding="UTF-8" standalone="no"?>
<svg
   viewBox="0 0 250 150"
   version="1.1"
   id="svg335"
   sodipodi:docname="chicharra.svg"
   width="250"
   height="150"
   inkscape:version="1.2.1 (9c6d41e410, 2022-07-14)"
   xmlns:inkscape="http://www.inkscape.org/namespaces/inkscape"
   xmlns:sodipodi="http://sodipodi.sourceforge.net/DTD/sodipodi-0.dtd"
   xmlns="http://www.w3.org/2000/svg"
   xmlns:svg="http://www.w3.org/2000/svg"
   xmlns:rdf="http://www.w3.org/1999/02/22-rdf-syntax-ns#"
   xmlns:cc="http://creativecommons.org/ns#"
   xmlns:dc="http://purl.org/dc/elements/1.1/">
  <sodipodi:namedview
     id="namedview337"
     pagecolor="#ffffff"
     bordercolor="#000000"
     borderopacity="0.25"
     inkscape:showpageshadow="2"
     inkscape:pageopacity="0.0"
     inkscape:pagecheckerboard="0"
     inkscape:deskcolor="#d1d1d1"
     showgrid="false"
     inkscape:zoom="1.7485999"
     inkscape:cx="82.3516"
     inkscape:cy="27.736476"
     inkscape:window-width="1920"
     inkscape:window-height="1018"
     inkscape:window-x="-8"
     inkscape:window-y="-8"
     inkscape:window-maximized="1"
     inkscape:current-layer="svg335" />
  <defs
     id="defs273">
    <style
       id="style271">.cls-1,.cls-8{fill:none;stroke:#000;stroke-linecap:round;}.cls-1{stroke-width:0.68px;}.cls-2{fill:#814114;}.cls-3{fill:#998d32;}.cls-4{fill:#b1b841;}.cls-5,.cls-6{opacity:0.6;}.cls-6{fill:#dad8cc;isolation:isolate;}.cls-7{fill:#fff;}.cls-8{stroke-width:0.55px;}</style>
  </defs>
  <title
     id="title275">Chicharra</title>
  <g
     id="Layer_2"
     data-name="Layer 2"
     transform="matrix(0.81895741,0,0,0.9790202,61.268301,24.984353)">
    <g
       id="Layer_1-2"
       data-name="Layer 1">
      <path
         class="cls-1"
         d="M 39.27,12.67 C 40.56,8.29 39.74,2.86 37.59,0.34"
         id="path277" />
      <path
         class="cls-2"
         d="m 71.14,74.49 c 0,3.1 -0.09,7.86 0.72,10.09 4.77,-1.22 6.1,1.9 3.83,2.54 -3.62,1 -6.26,1.65 -6.74,-0.88 -0.55,-2.95 -1.49,-15.59 2.19,-11.75 z"
         id="path279" />
      <path
         class="cls-3"
         d="m 48.09,16.81 c -1.81,-5.51 -10.49,-8.15 -17,-5 A 122.93,122.93 0 0 0 15.56,21.15 C 10.35,24.94 3.94,27.8 1,34.14 c -2.37,5.56 2,12.07 6.48,15.45 6.91,5.19 15.62,5.84 18.15,5.73 1.43,1.42 2.91,4.17 4.35,5.9 6.13,7.4 17.55,14.24 24.87,16.42 a 101.57,101.57 0 0 0 15.11,3 c 5,0.6 14.42,1.85 19.39,0.67 8.12,-1.79 27.62,-7.83 14.71,-19.17 C 99,57.65 86.87,48.27 83.51,45.89 80.93,44.3 63.85,28.76 60.44,26.19 55.52,22.47 50.52,18.89 48.09,16.81 Z"
         id="path281" />
      <path
         class="cls-4"
         d="M 60.42,26.16 60.1,25.92 c -0.05,0.17 -0.09,0.34 -0.15,0.52 -2.35,9 -23.43,23.31 -33.58,29.79 1.18,1.5 2.38,3.57 3.55,5 a 44.14,44.14 0 0 0 7,6.64 61,61 0 0 0 19.79,-8.35 80,80 0 0 0 20.14,-19.14 C 70.8,35.15 62.66,27.86 60.42,26.16 Z"
         id="path283" />
      <path
         class="cls-4"
         d="M 100.84,59.41 C 95.54,55 87.76,49 84.33,46.49 a 1.09,1.09 0 0 0 0,0.17 c -2.34,9 -24.64,23.86 -33.54,29.48 a 36.86,36.86 0 0 0 4,1.5 102.2,102.2 0 0 0 15.1,3 c 1.64,0.2 3.76,0.47 6,0.7 a 57.82,57.82 0 0 0 5.29,-3.07 77,77 0 0 0 19.66,-18.86 z"
         id="path285" />
      <g
         class="cls-5"
         id="g291">
        <g
           class="cls-5"
           id="g289">
          <path
             class="cls-6"
             d="m 134.3,47.39 c -8.34,-3 -25.15,-9.14 -36.85,-13.31 -13.49,-5 -29.82,-10.15 -43.9,-12.93 0,4.16 -1.69,9.69 5,20.88 1.28,2.13 14.53,18.91 23.95,27.24 2.19,2 19.86,17.75 31.77,23 15.16,6.64 38.81,9.84 48.93,3.08 2.14,-1.44 1.86,-7.92 0.72,-10.64 a 12.15,12.15 0 0 0 0,-6.84 c -0.55,-1.74 -1.8,-2.85 -2.79,-4.06 -1.18,-1.38 -0.4,0 -0.8,-1.74 -0.4,-2.19 -0.49,-3.49 -1.88,-5.48 -1.79,-2.58 -3.29,-2.47 -5.66,-4.26 -3.36,-2.63 -9.12,-11.59 -18.49,-14.94 z"
             id="path287" />
        </g>
      </g>
      <path
         class="cls-7"
         d="m 36.07,14.2 c -4.56,0.88 -6.63,3.75 -7.29,7.67 -0.76,4.4 3.79,7.89 7.56,7.66 A 8.85,8.85 0 0 0 44.74,20 c -0.22,-4.16 -4.9,-6.8 -8.67,-5.8 z"
         id="path293" />
      <path
         d="m 38.77,21.18 a 1.61,1.61 0 0 0 -1.43,1.31 1.25,1.25 0 0 0 1.32,1.34 1.55,1.55 0 0 0 1.48,-1.66 1.07,1.07 0 0 0 -1.37,-0.99 z"
         id="path295" />
      <path
         class="cls-2"
         d="m 49.21,71.33 c -1.59,-2.38 -2.77,-4.77 -5.75,-4 -2.37,0.6 -5,4.77 -6.37,6.56 -1.59,2 -3.36,5.09 -5,6.88 -2.78,3.18 -3,-2.3 -6.15,-0.6 -1.25,0.68 3.37,5.36 5.55,5.17 1.39,-0.2 3.76,-3.93 4.89,-5.57 2.45,-3.58 7.22,-9.79 8.4,-9.54 1.63,0.34 2.22,2.77 4.43,1.1 z"
         id="path297" />
      <path
         class="cls-2"
         d="m 57.77,75 c 6.91,-3.75 7.39,-0.34 6.31,4.76 -1,4.74 -3.33,11.08 -3.1,11.27 a 6.55,6.55 0 0 1 4.64,2.22 c 0.71,1.14 -0.23,2.34 -1.76,1.85 C 60.55,94 57,94.65 58.05,91 A 140.86,140.86 0 0 0 61.53,76.92 C 61.84,75.4 57.46,78.35 57.77,75 Z"
         id="path299" />
      <path
         class="cls-2"
         d="m 36.49,61.48 c -1.76,-9.94 -8.8,-3 -12,1 -2.85,3.59 -3.83,5.34 -5.61,5.72 -1.59,0.4 -4.85,-3.41 -5.69,-0.66 -0.65,2.08 3.62,4.91 5.61,4.31 2.37,-0.61 3.59,-2.52 5,-4.17 a 63.5,63.5 0 0 1 5.55,-6.28 c 1.13,-1.07 2.1,-2.37 3.49,-2 1.21,0.43 1.88,3.87 3.65,2.08 z"
         id="path301" />
      <path
         class="cls-1"
         d="M 42.35,13.15 C 44.89,9.43 52.59,4.45 55.75,3.84"
         id="path303" />
      <path
         class="cls-8"
         d="m 134.3,47.39 c -8.34,-3 -25.15,-9.14 -36.85,-13.31 -13.49,-5 -29.82,-10.15 -43.9,-12.93 0,4.16 -1.69,9.69 5,20.88 1.28,2.13 14.53,18.91 23.95,27.24 2.19,2 19.86,17.75 31.77,23 15.16,6.64 38.81,9.84 48.93,3.08 2.14,-1.44 1.86,-7.92 0.72,-10.64 a 12.15,12.15 0 0 0 0,-6.84 c -0.55,-1.74 -1.8,-2.85 -2.79,-4.06 -1.18,-1.38 -0.4,0 -0.8,-1.74 -0.4,-2.19 -0.49,-3.49 -1.88,-5.48 -1.79,-2.58 -3.29,-2.47 -5.66,-4.26 -3.36,-2.63 -9.12,-11.59 -18.49,-14.94 z"
         id="path305" />
      <path
         class="cls-8"
         d="m 160.83,73.46 c -4.17,1 -21.33,0.52 -24.51,-0.67 -6.35,-2.58 -33,-16.61 -39.36,-21 C 89.82,47 59.85,26.44 54.3,21.29"
         id="path307" />
      <path
         class="cls-8"
         d="m 163.93,84.65 c -6.16,2.77 -19.91,1.89 -26.45,0.91 -7.54,-1.19 -10.66,-2 -17.61,-5.39 -5.75,-3 -16.64,-8.24 -25.06,-14.48 -11.47,-8.5 -26,-19.55 -41.45,-39.8"
         id="path309" />
      <path
         class="cls-8"
         d="m 153.8,63 c -14,-0.82 -37.88,-0.82 -51.42,7.43"
         id="path311" />
      <path
         class="cls-8"
         d="m 134.41,62.65 c -4.16,-2 -8.17,-6.25 -10.75,-9.83 A 29.83,29.83 0 0 1 118.42,41.6"
         id="path313" />
      <path
         class="cls-8"
         d="m 119.72,64.44 a 43,43 0 0 1 -9.55,-14 A 83.94,83.94 0 0 1 105.68,37"
         id="path315" />
      <path
         class="cls-8"
         d="M 107.27,42.6 C 100,46.32 92.65,47 88.72,46.21"
         id="path317" />
      <path
         class="cls-8"
         d="M 90.31,31.53 A 29.56,29.56 0 0 1 72.1,34.64"
         id="path319" />
      <path
         class="cls-8"
         d="m 131.27,84.65 c -3.6,4.8 -14.39,6.77 -18.76,6.77"
         id="path321" />
      <path
         class="cls-8"
         d="M 90.31,62.65 A 30.15,30.15 0 0 1 78.37,65.29"
         id="path323" />
      <path
         class="cls-8"
         d="m 137.62,73.39 c 2.19,2.72 1.93,8.35 -0.14,12.15"
         id="path325" />
      <path
         class="cls-8"
         d="m 81.44,41.6 c 0,3.29 -0.86,9.14 -3.61,10.28"
         id="path327" />
      <path
         class="cls-1"
         d="m 19,48.34 c 0.36,1.13 2,2.61 4.68,2.13 a 6,6 0 0 0 4.53,-4"
         id="path329" />
      <path
         class="cls-4"
         d="m 10.89,24.31 c 0,0 0.63,14.57 -6.2,13.4 A 9.7,9.7 0 0 1 0.33,36 7.35,7.35 0 0 1 2.61,28.19 17.12,17.12 0 0 1 10.89,24.31 Z"
         id="path331" />
    </g>
  </g>
  <metadata
     id="metadata339">
    <rdf:RDF>
      <cc:Work
         rdf:about="">
        <dc:title>Chicharra</dc:title>
      </cc:Work>
    </rdf:RDF>
  </metadata>
</svg>
