<?xml version="1.0" encoding="UTF-8" standalone="no"?>
<svg
   viewBox="0 0 250 150"
   version="1.1"
   id="svg421"
   sodipodi:docname="grillo.svg"
   width="250"
   height="150"
   inkscape:version="1.2.1 (9c6d41e410, 2022-07-14)"
   xmlns:inkscape="http://www.inkscape.org/namespaces/inkscape"
   xmlns:sodipodi="http://sodipodi.sourceforge.net/DTD/sodipodi-0.dtd"
   xmlns="http://www.w3.org/2000/svg"
   xmlns:svg="http://www.w3.org/2000/svg"
   xmlns:rdf="http://www.w3.org/1999/02/22-rdf-syntax-ns#"
   xmlns:cc="http://creativecommons.org/ns#"
   xmlns:dc="http://purl.org/dc/elements/1.1/">
  <sodipodi:namedview
     id="namedview423"
     pagecolor="#ffffff"
     bordercolor="#000000"
     borderopacity="0.25"
     inkscape:showpageshadow="2"
     inkscape:pageopacity="0.0"
     inkscape:pagecheckerboard="0"
     inkscape:deskcolor="#d1d1d1"
     showgrid="false"
     inkscape:zoom="2.5477079"
     inkscape:cx="69.866723"
     inkscape:cy="49.652475"
     inkscape:window-width="1920"
     inkscape:window-height="1018"
     inkscape:window-x="-8"
     inkscape:window-y="-8"
     inkscape:window-maximized="1"
     inkscape:current-layer="svg421" />
  <defs
     id="defs379">
    <style
       id="style377">.cls-1{fill:#814114;}.cls-2{fill:#db7a1c;}.cls-3{fill:#f39200;}.cls-4{fill:#a85318;}.cls-5{fill:#fff;}.cls-6,.cls-7{fill:none;stroke-linecap:round;}.cls-6{stroke:#000;stroke-width:0.64px;}.cls-7{stroke:#db7a1c;stroke-width:0.91px;}</style>
  </defs>
  <title
     id="title381">Grillo</title>
  <g
     id="Layer_2"
     data-name="Layer 2"
     transform="matrix(1.0301854,0,0,0.83545336,52.411332,16.073172)">
    <g
       id="Layer_1-2"
       data-name="Layer 1">
      <path
         d="m 46.34,28.68 c -0.74,0.26 -1.25,-1.35 -1.78,-2.3 5.32,-8.46 12.92,-15.72 22.78,-15 -5.37,1.82 -9.58,3.69 -13.65,7.75 -1.69,1.43 -5.58,6.54 -7.35,9.55 z"
         id="path383" />
      <path
         d="M 37.65,23.38 C 38.59,15.56 42.54,3.75 50.36,0 a 53.53,53.53 0 0 0 -6.45,10.91 c -1.77,4 -3,10.76 -3.28,14 -1.26,-0.66 -2.98,0.03 -2.98,-1.53 z"
         id="path385" />
      <path
         class="cls-1"
         d="m 89.11,79.8 c 3.7,7.58 4.78,40.05 5.35,45.89 0.64,6.48 0,7.87 3.2,8.07 5.44,0.32 8.88,3 1.77,3.22 -2.68,0.24 -5.75,0.85 -8.25,-0.37 -1.2,-6.79 -2,-16.94 -3,-26.7 C 87.73,105.68 87.97,87.69 84.73,85.48 78,80.43 68,99.08 64.22,102.7 c -3,2.84 -8.76,6.9 -8.46,0.45 0.18,-3.52 4.27,-7.87 6.4,-10.54 C 63.93,90.48 82.9,66.85 89.11,79.8 Z"
         id="path387" />
      <path
         class="cls-1"
         d="m 93.71,116.69 a 13.56,13.56 0 0 1 3.22,1.25 6,6 0 0 1 1.16,0.91 9.19,9.19 0 0 0 -2.19,-0.51 c -0.8,0 -0.73,0.45 -0.73,0.45 a 10.13,10.13 0 0 1 2,0.83 7.42,7.42 0 0 1 1.61,1.64 27.39,27.39 0 0 0 -2.78,-1.05 c -0.86,-0.2 -1,0.29 -1,0.29 a 10.24,10.24 0 0 1 3.16,1.93 7.46,7.46 0 0 1 1,1.42 7.59,7.59 0 0 0 -3.26,-1.54 c -2.09,-0.47 -2.36,0.13 -2.36,0.13 z"
         id="path389" />
      <path
         class="cls-1"
         d="m 113.38,108 c 7.75,-1.11 15.33,-3.13 21.59,-8.13 -3.74,10 -13.66,10.79 -21.8,12 5.13,3.55 20.37,0.55 27,-1.39 -4.23,5.32 -12.68,6.26 -17.06,6.26 -3.13,0 -8.75,-0.3 -11.25,-2.19 -3.18,-2.49 -2.86,-5.94 1.52,-6.55 z"
         id="path391" />
      <path
         class="cls-1"
         d="m 9.08,59.35 c 4.27,3.16 7.22,3.28 11.5,4.33 2.13,0.53 1.17,0.2 1.87,2.32 1.05,4 4.35,12.72 5.46,16.82 1.89,7.09 4,16 9.11,22.69 2.62,3.68 13.91,11.78 18.46,13.88 6.31,3 18.75,5.86 27.57,5 a 60,60 0 0 0 27.67,-10.34 c 1.92,-1.41 4.35,-3.75 4.87,-6.38 0.88,-3.15 -6.49,-6.25 -8.76,-7.82 -2.45,-1.93 -13.65,-8 -15.39,-9.4 -4.73,-4 -20.11,-18.93 -23.25,-23.31 -3.33,-4.38 -4.91,-10 -7.7,-14.71 -2.45,-4 -4.38,-8.23 -7.17,-12.08 a 13,13 0 0 0 -3.24,-3.6 C 48.54,25.68 42.25,22.81 37.55,21.87 30.98,20.47 21.97,25.93 16.43,28.87 2.4,36.49 -8,53.76 9.08,59.35 Z"
         id="path393" />
      <path
         class="cls-2"
         d="m 44.56,63.84 c 3.24,8.43 15.33,33.18 30.66,42 6.26,3.44 13.77,5 21.28,5.63 4.07,0.31 16.27,1.56 19.71,-2.19 3.44,-4.38 -12.2,-12.21 -15.95,-15 C 92.44,88.01 78.66,78.58 72.43,70.48 64.35,59.9 61.17,52.06 59,49.79 56.45,47.25 42.79,59.27 44.56,63.84 Z"
         id="path395" />
      <path
         class="cls-3"
         d="m 21.57,67.08 a 164.88,164.88 0 0 0 30.5,-20.85 c 0.88,-0.7 1.76,-1.93 2.62,-2.46 1.93,-1.22 1.22,-1.05 3,0.36 2.45,1.93 4.2,4.55 3.15,7.17 -1.22,2.63 -4.66,4.1 -6.65,6 -5.57,5.2 -24.5,15.44 -27.12,16.13 -2.29,0.7 -2.47,0.88 -3.34,-0.86 a 18.38,18.38 0 0 1 -2.16,-5.49 z"
         id="path397" />
      <path
         class="cls-4"
         d="m 95.82,82.21 c 5,7.51 10.8,41.81 12.24,47.89 1.61,6.78 1.1,8.35 4.54,8.1 5.83,-0.43 9.85,1.92 2.34,3.17 -2.8,0.63 -6,1.73 -8.8,0.78 -2.24,-7 -4.55,-17.68 -7,-27.89 C 98,109.83 95.71,90.73 92,88.84 c -7.82,-4.38 -15.79,16.83 -19.24,21.21 -2.81,3.44 -8.3,8.57 -8.92,1.68 -0.31,-3.75 3.41,-9 5.28,-12.08 1.52,-2.49 18.25,-30.27 26.7,-17.44 z"
         id="path399" />
      <path
         class="cls-4"
         d="M 32.47,82.79 C 23,82.79 18.39,79.66 10.57,74.33 6.5,71.52 5.44,69.8 2.31,74.18 0.44,76.68 -2.07,82.31 2.94,81.06 4.19,80.75 3.88,77.62 5.76,77.31 7.32,77 17.33,84.2 21.09,85.14 a 29.92,29.92 0 0 0 10.63,1.25 c 3.45,-0.63 6.7,-3.6 0.75,-3.6 z"
         id="path401" />
      <path
         class="cls-5"
         d="m 33.77,28.68 c -7.36,6.82 0.91,17.78 9.22,10 C 50.05,32 39.94,23 33.77,28.68 Z"
         id="path403" />
      <path
         class="cls-4"
         d="m 43.93,100.79 c -3.07,6.42 -12.09,12 -23.36,8.23 -4.07,-1.56 -8.93,-3.35 -11,2.34 -2.11,5.87 -0.83,6.82 0.35,7.35 2,0.86 2.72,-1.7 4.58,-6.95 4.41,0.39 9.33,2.67 14.34,2.78 11.63,0.23 23.61,-13.72 21.19,-17.84 -2.18,-3.78 -4.42,0.59 -6.1,4.09 z"
         id="path405" />
      <path
         class="cls-6"
         d="m 10.07,59.21 a 11.72,11.72 0 0 0 5.07,-1.13 c 3.52,-1.64 4.47,-6.57 4.47,-6.57"
         id="path407" />
      <path
         d="m 35.8,31.32 a 1.45,1.45 0 0 0 -1.28,1.17 1.14,1.14 0 0 0 1.19,1.2 A 1.38,1.38 0 0 0 37,32.2 1,1 0 0 0 35.8,31.32 Z"
         id="path409" />
      <path
         class="cls-4"
         d="m 106,120.68 a 15.13,15.13 0 0 1 3.6,0.87 5.74,5.74 0 0 1 1.35,0.8 9.75,9.75 0 0 0 -2.39,-0.21 c -0.85,0.09 -0.71,0.57 -0.71,0.57 a 10.6,10.6 0 0 1 2.24,0.6 8.05,8.05 0 0 1 1.93,1.51 31.75,31.75 0 0 0 -3.13,-0.71 c -1,-0.09 -1,0.45 -1,0.45 a 11.54,11.54 0 0 1 3.63,1.59 7.48,7.48 0 0 1 1.29,1.36 7.87,7.87 0 0 0 -3.68,-1.16 c -2.28,-0.19 -2.48,0.48 -2.48,0.48 z"
         id="path411" />
      <path
         class="cls-7"
         d="m 30.25,92 c 10,0.49 18.88,-4.79 25,-11.36"
         id="path413" />
      <path
         class="cls-7"
         d="m 45.86,113.29 c 10.75,0.08 19.78,-7.55 23.76,-16"
         id="path415" />
      <path
         class="cls-7"
         d="m 75.79,124.39 c 6.6,-2.33 12.26,-13 12.26,-22.27"
         id="path417" />
    </g>
  </g>
  <metadata
     id="metadata425">
    <rdf:RDF>
      <cc:Work
         rdf:about="">
        <dc:title>Grillo</dc:title>
      </cc:Work>
    </rdf:RDF>
  </metadata>
</svg>
