<?xml version="1.0" encoding="utf-8"?>
<!-- Generator: Adobe Illustrator 26.2.1, SVG Export Plug-In . SVG Version: 6.00 Build 0)  -->
<svg version="1.1" id="Capa_1" xmlns="http://www.w3.org/2000/svg" xmlns:xlink="http://www.w3.org/1999/xlink" x="0px" y="0px"
	 viewBox="0 0 226.6 150" style="enable-background:new 0 0 226.6 150;" xml:space="preserve">
<style type="text/css">
	.st0{fill:#DAD8CC;}
</style>
<path id="path457" class="st0" d="M14.8,8.1c0,0,6.9,122.7-2.6,138.9c24.9,1.7,200.7-0.1,200.7-0.1c3.3-0.6,6.7-8.5,3.4-20.6
	c-0.2-0.6-4.4-0.4-4.4-0.4c-1.2-12.1-2.9-50.9-3.6-70.1c-1.9-45.3,0.8-36.3-0.2-43.2c0-0.3,1.9-0.4,2.1-0.7c1.3-2.6,0.6-5.1,0.6-5.1
	L14.8,8.1z"/>
<path id="path593" d="M8.7,6.2L8.6,9.7l212.7-0.5l0.1-3.5L8.7,6.2z"/>
<path id="path595" d="M3.7,3.5C1,5.3,0.3,8.9,2.2,11.4s5.7,3.2,8.5,1.4s3.4-5.3,1.5-7.9C10.3,2.3,6.5,1.7,3.7,3.5z"/>
<path id="path597" d="M215.7,4.4c-2.6,1.8-3.3,5.3-1.4,7.9c1.8,2.6,5.5,3.2,8.1,1.4c2.6-1.8,3.3-5.3,1.4-7.9
	C221.9,3.3,218.3,2.7,215.7,4.4z"/>
</svg>
