<?xml version="1.0" encoding="utf-8"?>
<!-- Generator: Adobe Illustrator 26.2.1, SVG Export Plug-In . SVG Version: 6.00 Build 0)  -->
<svg version="1.1"
	 id="Layer_1" xmlns:inkscape="http://www.inkscape.org/namespaces/inkscape" xmlns:sodipodi="http://sodipodi.sourceforge.net/DTD/sodipodi-0.dtd" xmlns:svg="http://www.w3.org/2000/svg"
	 xmlns="http://www.w3.org/2000/svg" xmlns:xlink="http://www.w3.org/1999/xlink"  width="767px" height="494px" x="0px" y="0px" viewBox="0 0 767 494"
	 style="enable-background:new 0 0 767 494;" xml:space="preserve">
<style type="text/css">
	.st0{fill:#D3ACC2;}
	.st1{fill:#1E8146;}
	.st2{fill:none;stroke:#B9B5A3;stroke-width:1.5;stroke-linecap:round;stroke-linejoin:round;stroke-miterlimit:10;}
	.st3{fill:#F39200;}
	.st4{fill:#814114;}
	.st5{fill:#A85318;}
	.st6{fill:#302F2B;fill-opacity:0.53;}
	.st7{fill:#FFFFFF;}
	.st8{fill:#00A0A4;}
	.st9{fill:#454444;}
	.st10{fill:none;stroke:#000000;stroke-width:1.69;}
	.st11{fill:#DAD8CC;}
	.st12{fill:#007572;}
	.st13{fill:none;stroke:#B9B5A3;stroke-width:1.268;stroke-linecap:round;stroke-linejoin:round;stroke-miterlimit:10;}
	.st14{fill:none;stroke:#FBBA00;stroke-width:1.746;}
	.st15{fill:#E30613;}
	.st16{fill:#FBBA00;}
	.st17{fill:#FFDE00;}
	.st18{fill:none;stroke:#B9B5A3;stroke-width:1.817;stroke-linecap:round;stroke-linejoin:round;stroke-miterlimit:10;}
	.st19{fill:#FAB415;}
</style>
<sodipodi:namedview  bordercolor="#000000" borderopacity="0.25" id="namedview600" inkscape:current-layer="Layer_1" inkscape:cx="330.90555" inkscape:cy="383.6261" inkscape:deskcolor="#d1d1d1" inkscape:pagecheckerboard="0" inkscape:pageopacity="0.0" inkscape:showpageshadow="2" inkscape:window-height="2066" inkscape:window-maximized="1" inkscape:window-width="3840" inkscape:window-x="-11" inkscape:window-y="-11" inkscape:zoom="1.3372396" pagecolor="#ffffff" showgrid="false">
	</sodipodi:namedview>
<path id="path455" class="st0" d="M1.9,283C19,396.9,63,422.1,214.4,435.3c151.5,13.2,236.8-7.4,318.4-64.5
	c81.6-57.2-35.5-194.7,58-229.4c93.5-34.8,25-115.6-48.8-122.8c-73.8-7.1-249.8,9.6-352.7,47.9C86.4,104.7-15.3,169.1,1.9,283z"/>
<path id="path459" class="st1" d="M730.6,492.8c-42.5-3.9,44.1-218.1-107.2-235S86,394.2,63.2,492.8H730.6z"/>
<g>
	<path id="path461" class="st2" d="M518.9,212.1l4.8-5.4"/>
	<path id="path463" class="st3" d="M448.6,278.1c-8.3-4.6-12.3-6.6-12.3-3.2c0,3.6,7.4,5.9,6.2,9
		C441.1,287.3,448.6,278.1,448.6,278.1z"/>
	<path id="path465" class="st4" d="M475.2,469.5l-12.6-3.2l-0.8-40.4h13.4L475.2,469.5z"/>
	<path id="path467" class="st5" d="M481.8,463.9l-6.6,5.5v-43.6h7.4L481.8,463.9z"/>
	<path id="path469" class="st4" d="M503.6,451.8l-12.6-3.2l-0.8-40.4h13.4L503.6,451.8z"/>
	<path id="path471" class="st5" d="M509.4,446.3l-5.8,5.5v-43.6h7.4L509.4,446.3z"/>
	<path id="path473" class="st4" d="M532.3,477.4l-12.6-3.2l-0.8-40.4h13.4L532.3,477.4z"/>
	<path id="path475" class="st5" d="M538.9,472l-6.6,5.5v-43.6h7.4L538.9,472z"/>
	<path id="path477" class="st4" d="M564.7,455.7l-12.6-3.2l-0.8-40.4h13.4L564.7,455.7z"/>
	<path id="path479" class="st5" d="M570.4,450.1l-5.8,5.5V412h7.4L570.4,450.1z"/>
	<path id="path481" class="st4" d="M450.6,414.7c0,0-1.8,11.4-0.2,13c1.7,1.7,84.3,11.5,85.8,10c1.6-1.5,0.9-13.9,0.9-13.9
		L450.6,414.7z"/>
	<path id="path483" class="st4" d="M581.7,399c0,0-0.8,13.3-2.5,14.4c-43.2,26.1-43.2,24.5-43.2,24.5v-14L581.7,399z"/>
	<path id="path485" class="st5" d="M501,391.9l79.6,5.2c0,0,2.9,0.8-0.5,3.7c-4.4,3.7-29.4,17.9-41.6,22.8c-9.4,0.7-80.3-6.5-87.8-9
		c-5.4-1.8,39-19.1,42.8-20.8C493.7,393.8,497.1,391.9,501,391.9L501,391.9z"/>
	<path id="path487" d="M474.5,410.7c0,1.6-1.4,1.8-3.6,1.8c-2.3,0-3.5-0.2-3.5-1.8s1.6-2.9,3.5-2.9
		C472.9,407.9,474.5,409.1,474.5,410.7z"/>
	<path id="path489" d="M504.2,398.2c0,1.6-1.4,1.8-3.7,1.8s-3.5-0.2-3.5-1.8s1.6-2.9,3.5-2.9C502.6,395.3,504.2,396.7,504.2,398.2z"
		/>
	<path id="path491" d="M541.7,416.9c0,1.6-1.4,1.8-3.6,1.8c-2.3,0-3.5-0.2-3.5-1.8c0-1.6,1.6-2.9,3.5-2.9
		C540.2,414.1,541.7,415.3,541.7,416.9z"/>
	<path id="path493" d="M565.8,403c0,1.6-1.4,1.8-3.6,1.8c-2.3,0-3.5-0.2-3.5-1.8s1.6-2.9,3.5-2.9S565.8,401.4,565.8,403z"/>
	<path id="path495" class="st6" d="M475.5,402.1c-1.2,0,0.6,0.3-0.8,0.1C474.9,402.1,475.2,402.1,475.5,402.1z"/>
	<path id="path497" class="st6" d="M497.2,409.3c-1.9,0.9-4.2,0.3-6.3,1.1c-0.3,0.1-0.5,0.2-0.8,0.3c0.2,0.2,0.5,0.2,0.8,0.3
		l1.7,0.4c1.2,0.2,2.2,0.3,3.3,0.3c0.5,0-0.2,0.4,1,0.4c4.2-0.2,10.5,0.2,15.6,0.5l-0.3,0.2c1,0.1,2.1-0.4,3.1-0.4
		c0,0.1-0.4,0.2-0.1,0.2c0.3-0.2,1.8-0.2,2.2-0.5c0.4,0.1,0.4,0.2,0.9,0.3l0.5-0.3c1.5-0.8,3.9-0.3,6-1c-0.1,0.1-0.3,0.2-0.1,0.2
		c3.5-0.9,7.8-1.5,11.5-2.6c-0.1,0.2-0.2,0.3,0,0.4c0.1-0.3,1.2-0.7,2.2-1.1c0.5,0.2,1.6-0.8,2.7-1.1l-0.1,0.1
		c0.6-0.2,1.3-1.4,1.7,0l-0.4-0.3c-0.4,0.3-1.2-0.5-2-0.3v0.1c-0.7,0-1.1-0.2-1.7-0.2l-0.1-0.1c-1.5,0-2.4-0.3-2.4,0
		c-0.5-0.3,1.5,0,0.7-0.5c-5.1,0.1-10.3,0-15.4,0.2c-0.6-0.2-1-0.2-1.1-0.2c-0.5,0.1-1.9,0.1-2.4,0.3c0.2,0-0.4-0.2-0.6-0.2
		c-1-0.1-1,0.4-2,0.3c0.4-0.1,0.5-0.2,0.4-0.3c-0.9,0.3-2,0.3-3,0.4c0.2-0.1,0.4-0.1,0.4-0.2c-1.2,0.3-2,0-3,0.2l0.4-0.2
		c-1.6-0.2-0.4,0.4-1.9,0.3c0.4-0.1,0.2-0.2,0.3-0.2c-1.2,0.4-3.4,0.4-4.6,0.6c0.1,0,0.1-0.1,0.1-0.1c-1.4,0.1-2.8,0.1-4.3,0.2
		c-0.5-0.1,0.2-0.5-1.3-0.4c0.1,0.4-2.5,0.2-1.6,0.6c-1.2-0.1-3.3-0.2-4.1-0.1c0.5-0.2-0.6-0.5,0.4-0.6l-0.8-0.2
		c0.1-0.2,0.8,0.1,0.5-0.2c-0.5,0-2,0.2-2.5,0.2c-1,0.2-1.9,0.7-3.5,0.8c0.7-0.2-0.4-0.4,0.1-0.5l-2.1,0.8c-0.5,0-0.1-0.3-0.9-0.2
		c0,0.1-0.3,0.2-0.5,0.2c-0.2,0-2.1,0.2-2.4-0.2c-0.3-0.2,0.9-0.2,0.3-0.2c-1,0.1-1,0.2-1.9,0.2V407c-0.6,0-1.9,0.2-1.2,0.5
		c0.4,0-0.2-0.2,0.4-0.2c-0.4,0.2-1.5,0.4-2.5,0.5c0.4-0.1,0.3-0.2,0.4-0.3c-1.2,0.4-2.6,0.7-3.9,1c0,0.2,0.4-0.4,0.7-0.3
		c-0.9,0-1.9,0.2-2.4,0.6c0.1,0.6,0.1-1.4,0.1-0.8c0.3,0.2,0.5,0.2,0.9,0.5c-0.3-0.1,0-0.3,0-0.2c0.7,0.2,0.6,0.5,1.2,0.5
		c0,0.2,0.7,0.1,1.3,0.1c0.3-0.1,0.2,0.1-0.4,0.1c0.8,0,4.2,0.1,6,0.4c0-0.1,1.2-0.3,1.7-0.2l-0.2,0.2c0.4,0.2,1.5,0.1,1.5,0.2
		c1-0.2-3.6,0-2.4-0.2c0.4,0.2,1.8-0.2,1.5,0c0.9,0,1.8-0.2,2.6,0.1c-0.3-0.1-0.7,0.3,0,0.3c1.2,0,0.4-0.1,1.4-0.2l0.6-0.1
		c0.1-0.2,1.2,0.1,0.7-0.2c0.2,0.2,1.9,0,1.7,0.3l-0.2,0.3c0.5,0,0.9-0.3,1.3-0.4c0.1,0,0.2,0.1,0.2,0.2c0.1-0.5,1.3,0.1,1.9-0.2
		c1.2,0.2,2.9,0.2,3.5,0.4c0.9-0.1,1.7-0.2,2.7-0.2c-0.2,0-0.4,0-0.5,0.2c0.6,0.2,0.8,0.1,1.3,0c-0.2,0.1,1.2,0.3,1.9,0.5
		c0.9-0.1,0.6-0.4,0.7-0.6c0.8,0.5,2.5-0.2,3.5,0.2c-0.3,0.1-1.3,0.2-0.5,0.3c0.8,0.5,1.6-0.3,2.9,0l-0.3-0.4
		c0.5,0.2,1.9-0.2,1.8,0.2c0.4-0.2,1.5,0.2,1.4-0.2c2.1,0.4,5.1,0,6.5,0.7c0.3-0.1,1.1,0,0.9-0.2c-0.5-0.2-0.7,0.2-0.9,0
		c0.3,0,0.4-0.1,0.4-0.2c0.6,0.1,1.2,0.2,0.5,0.5c1.5,0.2,1.5-0.7,3.4-0.4c-0.1,0.2,0.1,0.2,0.6,0.2l1.1-0.2
		c1.2,0.1,0.7,0.4,0.7,0.7c0.6,0,1.4,0,1.8-0.2l0.8,0.3c-0.5-0.2,0.5-0.2,0.8-0.2l-0.3,0.1c0.1,0.1,0.9,0.1,1.2,0
		c-0.1-0.2-0.9-0.2-1.2-0.3c0.4-0.1,0.9-0.1,1.2-0.2c-0.2,0.2,1.1,0.2,1.6,0.2c0.6,0.1,0.6-0.2,0.8-0.2c0,0.2,1,0,0.5,0.2
		c-0.2,0.1-0.4-0.2-0.8,0c0.4,0.1,0.4,0.3,1.2,0.2c0.6-0.2-0.2-0.5,1-0.3c-0.3,0.1-0.4,0.2-0.6,0.2l1.1,0.2v-0.2
		c0.2,0.1,0,0.1,0.1,0.1c0.4-0.2,1.7-0.1,1.9-0.4c0.5,0,1.2,0.2,1.7,0.2h-0.1c0.6,0.2,1.5,0,2-0.2v0.1c0.4,0,1.2,0,1.6-0.2
		c0.9,0.2,0.4,0.9,1.2,0.6c0.9,0,1.3-0.5,1-0.7c1.6,0.1,3.4-0.3,4.9-0.1c0.3-0.1,0.1-0.2,0.5-0.2c2.3-0.1,4.9-0.6,6.7-0.3
		c-0.6,0.2,0,0.2,0,0.4c0.5-0.2,0.7,0.2,0.9-0.2c-0.1-0.2,0-0.3-0.7-0.3c1.3-0.2,3.5-0.4,4.3-0.4c-0.4-0.1-0.1-0.2,0.2-0.2
		c0,0.3,1,0.2,1.7,0l0.1-0.2l0.5,0.2c0.3-0.1,0.3-0.5,1.1-0.4c0.1,0.1,0.1,0.2,0.3,0.2c0.4-0.2,0.8-0.3,1.2-0.5
		c0.1,0.2,1.4-1.1,0.1,0.5c0.3,2.7,0.7,1.3,0.9,1.7c0-0.1-0.1-0.1-0.1-0.2c-0.3,0-0.9,0.1-0.4,0.2c-1.2-0.3-2.3-0.4-2.7-0.7
		c-2.6,0.5-6.3,0.5-9.3,0.4l0.1-0.2c-0.8-0.2-0.4,0.2-1,0.2c0.3-0.2-0.6-0.3,0-0.5c-1.2-0.2-1.5,0.2-2.2,0.3
		c-0.1,0.2,0.6-0.2,0.4,0.2c-0.2,0.1-1.6-0.2-1.8,0.2c-0.3-0.2-0.1-0.3,0.1-0.5l-0.7,0.2c-0.9-0.4,1.9-0.7,1.1-1.1l-0.6,0.1
		c-0.6-0.3,1.7-0.3,0.1-0.5c-0.7,0.2-1.3,0.6-0.7,0.7c-1.5,0.1-0.7,0.7-2.3,0.7c-0.4-0.2,1.2,0,1-0.3c-0.7-0.2-1.5,0.2-2.1,0
		c0.7,0.2,0.1,0.4-0.4,0.5c-0.8-0.2,0.5-0.3-0.6-0.3c-0.2,0.2-1.2,0.3-0.4,0.4c-0.4,0.4-1.2-0.2-1.8,0.2c-0.4-0.3,1.2-0.7-0.1-0.8
		c0.2,0.2-1.6,0.3-0.9,0.8c-0.5-0.1-0.5-0.3-0.2-0.5c-0.7-0.2-1.7,0.5-1.9-0.1l-0.3,0.2c-0.2-0.1-0.5-0.2-0.9-0.3
		c-0.6,0-2,0.3-1.9-0.1c-0.2,0-1.6,0-1.1,0.3c0.9,0.2,1.1-0.2,1.5,0.2c-0.6-0.3-1.2,0-1.8,0.1l-0.1-0.2c-0.3,0.1-1,0-1.2,0.2
		c0.3-0.1,0.1-0.2-0.1-0.2l-0.4,0.2c-1.2,0.1-0.3-0.5-1.5-0.4l0.9-0.2c-0.2,0-0.6-0.2-1.2-0.2c-0.3,0.2-0.7,0.5-0.9,0.7
		c-0.7,0.1-0.3-0.2-1-0.1l0.9-0.2c0.2-0.1-0.6-0.4-1.4-0.5c-0.6,0-1.5,0.3-0.6,0.5c-0.4,0-1.1-0.2-0.7-0.3c-1.1,0,0.1,0.2-0.8,0.3
		c-0.4-0.2-1.4-0.5-2.1-0.8l1-0.3l-0.6-0.1c0.8-0.2-0.4-0.2,0.1-0.6c-0.4-0.1-0.9,0-1.3,0c1.2,0.7-1.4,0.6-1.2,1.1
		c-1.7,0-0.9-1.2-2.7-0.7c0.3,0.2-0.6,0.4,0.4,0.4c-1.1-0.2-0.8,0.4-1.9,0.1c0.9-0.1-0.9-0.6,0.4-0.7c-0.1,0.2,0.7,0.2,0.9,0.2
		c-0.4-0.2,0.2-0.5-0.9-0.6c-0.6,0-1.5-0.1-1.4,0.2c0,0.2,1,0.1,0.5,0.3c-1.3-0.1-1.5-0.5-2-0.1c0.8,0.1,1,0.3,1,0.6h-1l0.2-0.2
		c-1.5-0.3-0.5,0.2-1.9,0.1l-0.6-0.4c0.4-0.2,2.1,0.4,1.9-0.2c-1-0.2-1.3,0.1-2.2-0.2h0.7c-0.4-0.1-0.6-0.7-2-0.5
		c-0.7,0.1-0.2,0.2-0.3,0.3c-1.5-0.1-2,0-3-0.1c0.3-0.3-1.8-0.2-0.6-0.5c0.4,0.2,2.7,0.5,3.3,0.2c-0.5-0.5,1.2,0.2,1.6-0.2
		c-1.2-0.2-1.2-0.6-1.2-0.9c-0.4-0.1-0.7,0-0.9,0.1c-0.2,0.2,0.3,0.3,0.3,0.6c-1.3-0.2-2.7-0.2-3.5-0.1c-0.4-0.2-0.3-0.4,0.3-0.4
		c-1.6-0.1-3.4-0.3-5-0.6c1,0.6-1.8-0.1-1.1,0.3c0.8,0.2,1.5,0.6,1,0.7c-0.5-0.1,0-0.2-0.2-0.3c-0.7,0.2-1-0.5-1.7-0.2
		c1.5,0,0.4-0.5,0.7-0.8c-1.1,0.1,0.1-0.2-1-0.3c-1.1,0.1-2.4,0.1-3.6,0c-1.4-0.5-3.8-0.4-5.1-0.6c-0.7-0.2-0.2-0.6-0.9-0.7
		c-0.9-0.1,0.6,0.5-0.7,0.2l0.2-0.1c-0.4,0.1-2.4-0.5-2.8,0l0.4-0.4c-0.3-0.1-0.4,0-0.7,0c0-0.2-0.3-0.2,0.2-0.3
		c-0.8-0.3-1.7-0.1-2.6-0.2l0.5,0.3c-1.5,0.1-2.5-0.2-4-0.3l0.1-0.2l-0.9,0.1c0.3-0.2-0.5-0.4-1.1-0.2l2.3-0.4
		c0.6,0.2-0.7,0.2-0.4,0.5c0.4,0.2,1.7,0.2,1.9,0.1c-0.5-0.1-0.5,0-1,0c-0.2-0.3,0.6-0.2,1.1-0.5c-0.3,0-0.6-0.2-0.7,0
		c0.5-0.1,1.1-0.1,1.9,0c-0.6,0.1,0.3,0.2,0.1,0.3c0.1-0.2,1-0.3,2-0.2c0.7,0.4,2.1,0,3.4,0.2c-0.5,0.2-1.2,0.4-2,0.5
		c0.8,0.2,0.9,0.1,1.7,0.3c0.4-0.2,0.7-0.5,1.8-0.5v0.2c1,0,1-0.3,2.2-0.2c2,0.3,4.2,0.6,5.8,0.7v0.2c1-0.4,2.9,0.2,4.2,0.1
		c1.9,0.4,4.3,0.2,5.3,0.7c3.5,0.2,6.6,0.4,10.3,0.9l-0.6,0.2c0.7-0.2,0.4,0.2,1.1,0.2c-0.7-0.3,1-0.2,1.4-0.4
		c1.6,0.4,3.7,0.3,5.2,0.2v0.2c1.5-0.3,3.2,0.2,5,0.4c0.2,0.1,0.5,0.3,1.1,0.3c1-0.3,1.5-0.2,3-0.4c1.1,0,2.7,0.2,3.8,0.3
		c4-0.4,8.1-0.1,12.2-0.3l0.3,0.2c4.1-0.5,9,0,12.6,0l-0.4,0.4c1.1,0.2,2.6,0.1,2.4-0.2c0.4,0.2,0.5,0,1.4,0.4
		c0.2,0.3,0.7-0.2,1,1.7c-0.4,1.4-0.5,0.8-0.9,1.2c-0.5,0.3-0.5,0.2-0.9,0.4c-0.8,0.2-1.3,0.3-1.8,0.2c-1.2,0.1-1.3,0.4-2.2,0.7
		c-2.3,0.2-3.1,0.3-5.1,0.7h0.5c0.2-0.1,0.2-0.3-0.3-0.2c-0.8,0.2-2.9,0.2-2,0.7c-2.3-0.1-5.2,0.7-7.4,0.4c0.2,0.2-0.4,0.2-0.6,0.3
		c-1.9,0.1-4.1-0.2-5.6,0.2c-0.4-0.1,0.5-0.2-0.3-0.2c-0.4,0.1,0,0.2-0.6,0.2c-3.2,0.3-6.5-0.2-9.4-0.1c-5.1,0.2-10.5,0-15.4-0.1
		l0.1-0.1c-1.7,0.3-3.8-0.6-5.1,0c-0.4-0.1-1.5-0.1-1.2-0.2c-1.3,0.2-3.6-0.4-5.6-0.1c0.2,0,0.3,0,0.4-0.1c-1.9-0.3-3.6,0-5.6-0.3
		c0.2,0,0.6-0.1,0.6-0.2c-0.8-0.2-1.9,0.4-2.3-0.2c-0.4,0-0.4,0.2-0.1,0.2c-4.4-0.3-9.1-0.2-13.8-0.4c-3.3-0.5-0.2-0.9-2.7-0.7
		c-0.2-0.1-0.2,0.2-0.2,0.1c-1.1,0.1-1.5-0.7-2.2-0.5c0.3,0.3-0.4,0.2-0.5,0.3c-2-0.4-2.4-0.7-4.1-0.7l0.2-0.2
		c-1.1,0.1-2.2-0.1-3.4-0.6c-0.3-0.2-0.9-0.2-1.3-1.5c0.1-1.8,1.1-1.7,1.2-2.1c0.7-0.4,1.2-0.5,1.5-0.8c10.7-1.7,20.6-1.5,30.5-1.7
		c9.8-0.2,19.6-1.1,29.8-0.7c2.4,0.5,2.6,0.5,5.2,0.4c-0.1,0.1-0.3,0.1-0.1,0.2c0.2-0.3,1.9,0.1,2.2-0.2l2.9,0.4l1.5,0.3h0.2h0.1
		l0,0l0,0l0,0c-0.1-0.8,1,7.4,0.5,3.9l0,0l-0.4,0.2l-0.7,0.3c-1.9,0.9-3.6,1.4-5.6,1.9c0.6-0.2,0.8-0.6,0.1-0.3l-0.7,0.4l-0.2-0.1
		c-0.4,0.2-1,0.5-0.4,0.5c-9.7,2.5-19.3,2.7-28.8,2.9c-2.3-0.1-5.5,0-8.1-0.1c-1.9-0.2-3.6-0.5-5.4-0.9c-0.9-0.2-1.8-0.3-2.7-0.7
		l-1.3-0.4l-0.4-0.1l-0.2-0.1l0,0l0,0l0,0c-0.5-5.6-0.2-1.6-0.3-2.8l0,0h0.1l0.7-0.3c4.9-0.7,6.2-0.8,11.6-1.1
		C501.4,407.9,500,408.7,497.2,409.3L497.2,409.3z"/>
	<path id="path499" class="st6" d="M477,402.2c0.3,0.2,1.1,0.3,0.4,0.6C477.3,402.6,476.9,402.3,477,402.2z"/>
	<path id="path501" class="st6" d="M499.1,406.1c0-0.1,0.3,0.1,0.4,0.2c-0.3,0-0.5,0.1-0.8,0C499,406.3,498.9,406.2,499.1,406.1z"/>
	<path id="path503" class="st6" d="M504.8,406.9c-0.1,0.2-1.3,0.2-2,0.1L504.8,406.9z"/>
	<path id="path505" class="st6" d="M509.9,408.2c0.4,0.2,0.3,0.2-0.3,0.2C509.6,408.3,509.8,408.2,509.9,408.2z"/>
	<path id="path507" class="st6" d="M510.4,407.9c0.4,0.1,0.6,0.2,0.9,0.2C511.2,408,510.2,408.1,510.4,407.9z"/>
	<path id="path509" class="st6" d="M521.9,409.5c0.3,0,0.9-0.1,1.2,0.2C522.7,409.5,521.6,409.8,521.9,409.5z"/>
	<path id="path511" class="st6" d="M527.3,409.8c0.1,0,0.3,0.1,0.4,0c0.4,0.1,0,0.2-0.4,0.2C527.4,410,527.4,409.9,527.3,409.8
		L527.3,409.8z"/>
	<path id="path513" class="st6" d="M506.7,410.4l0.6-0.1l-0.1,0.2L506.7,410.4z"/>
	<path id="path515" class="st6" d="M475.8,408.4c0.5-0.2,0.4,0.1,0.5,0.2C475.8,408.5,476.5,408.3,475.8,408.4z"/>
	<path id="path517" class="st6" d="M498.8,406.9h-0.2l0.1-0.3L498.8,406.9z"/>
	<path id="path519" class="st3" d="M484.2,290.5c0,0-18.5-2.2-29-7.7c0,0-0.8-0.7-2.9-2.4s-5.2-2.5-5.2-2.5s-2.5,0.8-4.7,1.5
		s-7.9,1.1-7.9,1.1s-1.2,4.9-0.9,5.3c0.4,0.5,3.4,3.2,5.2,5.1c1.9,1.8,7.2,3.3,9.4,2.2c2.9-1.6,6.6-2.5,10.5-1
		c6.6,2.6,31.6,11.9,31.6,11.9L484.2,290.5z"/>
	<path id="path521" class="st3" d="M514.9,199.5c0,0-9.9-6.1-28.3-7.4c-7.6-0.6-13.2,2.9-24.6,8.5c-8.9,4.2-47.1,13-51.8,13.8
		c-8.1,1.4-34.1,7.1-34.1,12.7c0,5.6,6.6,10.3,22,17.2c15.4,6.9,66.8,13.8,78.6,37.2s19.9,63.3,21.3,79.8
		c1.5,16.5,6.6,37.2,6.6,37.2s-25.3-0.7-21.5,4.1c3.6,4.8,13.4,0.1,13.4,0.1s-2.8,6.1,0.1,6.8s6.6-5.3,6.6-5.3s-0.8,4.8,5.1,5.4
		c5.8,0.7,7.2-2.9,5.8-9c-1.5-6.2-1.2-29.1-0.7-29.6c0.7-0.5,36.9,0,36.9,0l2.5,26.8c0,0-19.4,4.2-17.2,6.9s11.5-1.2,11.5-1.2
		s-7.1,5-2.7,6.2s8.7-2.7,8.7-2.7c-2.3,9.3,12.1,4.1,9.7-4.2v-34.4c0,0,14.6,21.9,41.8,22c33.9,0.2,78.8-26.7,93.4-41.1
		c15.1-14.8,9.3-10.7-9-6.3c-25.3,6.1-45.2,2.8-58.1-0.7c-9.5-2.6-22.6-6.4-36.2-3.3c-11.3,2.5-27,14.4-27,14.4s4.2-38.3-26.3-76.5
		c-5.8-7.4-1.2-20.4-1.2-20.4s2.9,0.2,6.1,0.7c5.2,0.9,9.7,7.4,7.5,1.9c-2.2-5.5-10.3-10.3-10.3-10.3s2.3-3.6,13.7-2.7
		c7.4,0.6-9.5-9.5-9.5-9.5s8.9-1.4,14.9-1.9c3-0.2-17.8-9.5-17.8-9.5s-0.6-1-0.4-6.3c0.1-2.7-0.9-10.6-0.9-10.6L514.9,199.5z"/>
	<path id="path523" class="st7" d="M477.7,286.6c11,21.9,17.2,46.2,18,72.1c8.2,0.2,26.9-0.6,34.7,0c0.6-4.7-0.6-9.6-0.6-14.6
		c0-47.6-24.4-73.3-66.1-82.7c-7.7-1.7-23.2-6-26.7-5.2C451.4,261.5,472.5,276.2,477.7,286.6z"/>
	<path id="path525" d="M383,220.2c-8.6,2.2-20.4,5.1-13.6,10.4c8.2,6.5,23.2,11.1,23.2,11.1s2.9-18.1,0.9-23.9
		C393.5,217.9,386.1,219.4,383,220.2L383,220.2z"/>
	<path id="path527" class="st7" d="M511.4,226.3c0,6.3-5.8,13.5-14.7,12.3c-5.8-0.8-12.2-6.9-9.7-14.4c2.4-7,8.5-9.2,14.7-8.7
		C506.6,215.8,511.4,220,511.4,226.3z"/>
	<path id="path529" class="st7" d="M472,210.2c0,4.6-4.2,9-9.6,9c-4,0-9.5-4.2-7.2-10.3c2.1-5.6,6.2-6.8,9.7-6.1
		C469.1,203.5,472,206.3,472,210.2L472,210.2z"/>
	<path id="path531" d="M492.5,226.6c0,1.1,0.9,1.9,2,1.9s2-0.8,2-1.9c0-1.1-0.9-1.9-2-1.9C493.4,224.7,492.5,225.5,492.5,226.6z"/>
	<path id="path533" d="M457.4,209.3c0,0.9,0.8,1.6,1.7,1.6s1.7-0.7,1.7-1.6c0-0.9-0.8-1.6-1.7-1.6S457.4,208.5,457.4,209.3z"/>
	<path id="path535" class="st8" d="M495,347.7c0,0,35.7,0.6,48.3,0s24.8-4.2,24.8-4.2s0.4,11.8,0,21.4c-0.5,10.9-2.6,20.1-2.6,20.1
		s-20.7-2.8-24.6-2.3l-1.2-6.1l-25-1.8v6.6h-19L495,347.7z"/>
	<path id="path537" class="st3" d="M544.8,283.4c0,0,10.5,4.2,16.8,7.5s15.1,4.8,17.2,4.6s5.8-6.4,7.9-5.2c2.1,1.2-0.3,4.9-0.3,4.9
		s5.7-0.4,7,1.7c2,3.2-5.1,3.5-5.9,4.3c-0.8,0.7,6.6,3.4,2.8,7.9c-2.3,2.7-7.2-0.5-18-5.5c-16-7.3-32.6-14.6-32.6-14.6"/>
	<path id="path539" d="M535.3,344.5c0,0-9-42.3-4.1-50.8c6.6-11.6,15.9-12.2,15.9-12.2l-2.3-3.1c0,0-12.5,2.3-19.5,15.5
		c-5,9.4,2.6,50.6,2.6,50.6L535.3,344.5L535.3,344.5z"/>
	<path id="path541" d="M497.1,345c0,0-4.9-33.7-9.7-42.3c-2.5-4.5-5.2-7.5-5.2-7.5l-2.7-5.1c0,0,5.4,0.4,12.3,10.7
		c5.9,8.8,11.2,43.6,11.2,43.6L497.1,345z"/>
	<path id="path543" class="st9" d="M528.2,348.6l7.7-0.6l-0.5-4.3l-7.8,0.7L528.2,348.6z"/>
	<path id="path545" class="st9" d="M503.8,343.6h-7.3v4.3h7.3V343.6z"/>
	<path id="path547" class="st7" d="M481.6,249.7c3-2.3,4.5,4.4,15.2,4.3c7.2-0.1,12.1-7.7,15.2-5c4.4,3.8-1.2,13.4-13.8,14.7
		C488.3,264.6,477.5,252.9,481.6,249.7z"/>
	<path id="path549" class="st10" d="M495.9,252.4l1.1,11.3"/>
	<path id="path551" class="st10" d="M504.2,250.2l2.3,13.4"/>
	<path id="path553" class="st10" d="M489.3,251.1l-2.3,10.7"/>
	<path id="path555" class="st7" d="M695.3,340.7c-25.3,7.9-48.2,5.3-61.8,1.8c5.2,4.6,14.1,13.8,11.3,13.7c-3.8-0.2-19.9,5-15.4,5.1
		c4.5,0.2,15.6,2.4,15.6,2.4s-13,8.7-11.5,9.4s16.8-2.6,16.8-2.6s-1,4.5-1,8.3c22.6-7.7,35.9-19.3,45.3-26.8
		C711.3,338.8,710.9,335.9,695.3,340.7L695.3,340.7z"/>
	<path id="path557" class="st8" d="M471.1,188.2c-12.9-3.9-12.3-27.6,4.7-30.7c15.6-2.9,35.1,4.2,49.1,11
		c7.6,3.7,44.6,8.1,52.8,26.1c11.9,25.6-26.6,37.2-31.7,24.3c0,0-23.9-18.9-47.9-25C484.7,190.4,471.1,188.2,471.1,188.2
		L471.1,188.2z"/>
	<path id="path559" class="st11" d="M528.8,207.1c0,0,9-14.2,14.6-18.7c1.9-1.4,6-4.6,6-4.6l1.6,8.6l5.6-13.3c0,0,2.1-1.7,13.1-4.3
		l11-2.7l-0.6,9.4l8.1-11.8c0,0,7.4-0.3,16.8,0.8s26.1,3,26.1,3s-16.2,8.1-21.4,12.1c-5.2,4.1-8.8,5.1-8.8,5.1l-12.2-7.3l9.1,9.4
		l-22.9,6l-11.1-7.6l6.6,8.5c0,0-21.4,5.2-25.8,5.2C540.3,205.1,528.8,207.1,528.8,207.1L528.8,207.1z"/>
	<path id="path561" class="st12" d="M471.5,195.5c0,0,18.1,1.2,38.6,9.5c18.5,7.3,26.6,14.5,34.6,19.8c7.2,2.3,6.3-6.1,6.3-6.1
		s-14.6-12-35.4-19.7c-24.8-9.2-32.3-9.8-44-10.5C465.2,192.4,471.5,195.5,471.5,195.5L471.5,195.5z"/>
	<path id="path563" class="st13" d="M532.2,204.8c0,0,19.9-11.7,37.5-17.8c25.2-8.8,49-10.9,49-10.9"/>
	<path id="path565" class="st13" d="M563.8,186.9l3.8-8.8"/>
	<path id="path567" class="st13" d="M585.8,193l-7.2-5.4"/>
	<path id="path569" class="st13" d="M560.3,200.6l-5.8-4.6"/>
	<path id="path571" class="st11" d="M608.4,269.3c0,0,29.1-42.1,50.6-85.7c7.4-15,14.9-43.4,14.9-43.4s-18.5,21-27.6,36.9
		c-24.4,42.9-43.1,89.5-43.1,89.5L608.4,269.3z"/>
	<path id="path573" class="st14" d="M582.4,281.5c0,0-10.5,1.4-14.4,10.1c-6.8,15.2,11,22.2,11,22.2"/>
	<path id="path575" class="st15" d="M597.9,290.3c0,0,0.2,4.2-3,10.5c-3.5,6.9-13.1,15.3-13.1,15.3l-4.1-1.2c0,0,2.1-11.6,5.8-18.6
		c3.6-7,8.3-9.1,8.3-9.1L597.9,290.3z"/>
	<path id="path577" class="st16" d="M567.3,268.3l-0.7,1.2l58.2,30.9l0.7-1.2L567.3,268.3z"/>
	<path id="path579" class="st17" d="M566.1,266c-1.4,0.2-2.5,1.3-2.3,2.7c0.2,1.3,1.5,2.3,2.9,2.2s2.5-1.3,2.3-2.7
		C568.8,266.8,567.5,265.9,566.1,266z"/>
	<path id="path581" class="st17" d="M626.1,297.7c-1.4,0.2-2.5,1.4-2.3,2.7c0.2,1.3,1.5,2.3,2.9,2.2s2.5-1.4,2.3-2.7
		C628.8,298.5,627.5,297.6,626.1,297.7z"/>
	<path id="path583" class="st16" d="M617.4,279.1c1.5,5.9,0,11.8-3.5,16.3c-5.1-0.4-10.3-1.6-15.2-3.5c-8.7-3.5-15.9-9-21.1-15.9
		c2.5-5.6,7.7-10,14.5-11.5C603.3,261.9,614.7,268.5,617.4,279.1z"/>
	<path id="path585" class="st17" d="M577.2,314.2c-2.5,0.6-4.1,2.9-3.5,5.3c0.6,2.3,3.1,3.8,5.7,3.2c2.5-0.6,4.1-2.9,3.5-5.3
		S579.7,313.6,577.2,314.2z"/>
	<path id="path587" class="st18" d="M608.5,261.4l54.1-100.3"/>
	<path id="path589" class="st19" d="M430.2,281.6c0.1-1.7,4.7-6.4,6.5-3.2c1.8,3.1-1.8,6.6-1.8,6.6s7.7-6.2,8.9-2.4
		c1.2,3.8-4,6.8-4,6.8s5.7-2.7,9.2-2.4c2.4,0.2,1.2,8.9-6.1,6.9C435.7,291.8,429.9,285.9,430.2,281.6L430.2,281.6z"/>
	<path id="path591" class="st3" d="M592.5,294.2c-1.9,2.2,1.8,6.8,1.8,6.8s-3.5-4.3-4.7-2.7c-2.1,2.7,1.9,6.6,1.9,6.6
		s-3.5-3.4-4.3-1.8c-1.2,2.1,0.8,7.1,2.8,6.6c2-0.5,4-3.5,6.4-6.6C601.3,296.9,594.4,292,592.5,294.2L592.5,294.2z"/>
</g>
</svg>
