<?xml version="1.0" encoding="utf-8"?>
<!-- Generator: Adobe Illustrator 15.1.0, SVG Export Plug-In . SVG Version: 6.00 Build 0)  -->
<!DOCTYPE svg PUBLIC "-//W3C//DTD SVG 1.1//EN" "http://www.w3.org/Graphics/SVG/1.1/DTD/svg11.dtd">
<svg version="1.1" id="Capa_1" xmlns="http://www.w3.org/2000/svg" xmlns:xlink="http://www.w3.org/1999/xlink" x="0px" y="0px"
	 width="841.89px" height="595.28px" viewBox="0 0 841.89 595.28" enable-background="new 0 0 841.89 595.28" xml:space="preserve">
<g>
	<path fill="#A2718B" d="M937.997,223.32c-0.038-2.805-1.038-26.041-18.229-33.33c-17.183-7.289-31.769,9.895-31.769,9.895
		s-2.083-32.086-22.918-28.283c-20.834,3.803-20.312,22.032-20.312,22.032s-6.848-11.045-18.229-7.289
		c-12.621,4.167-10.42,15.802-10.42,15.802s-6.997-8.487-17.354-2.262c-10.358,6.224-15.974,17.184-13.375,29.162
		c2.606,11.978,12.906,27.602,76.243,21.873C924.98,245.193,938.283,243.11,937.997,223.32z"/>
	<path fill="#534E41" d="M678.113,188.017c0.06-4.081,1.516-37.88,26.517-48.489c25.003-10.609,46.221,14.399,46.221,14.399
		s3.03-46.677,33.337-41.148c30.307,5.53,29.546,32.053,29.546,32.053s9.955-16.073,26.523-10.609
		c18.361,6.059,15.152,22.991,15.152,22.991s10.174-12.342,25.247-3.287c15.074,9.055,23.243,25.002,19.453,42.431
		c-3.791,17.429-18.771,40.155-110.915,31.822C697.058,219.838,677.703,216.809,678.113,188.017z"/>
	<path fill="#7C786B" d="M403.339,181.382c0.096-6.114,2.437-56.742,42.651-72.634c40.215-15.892,74.346,21.569,74.346,21.569
		s4.872-69.918,53.619-61.636c48.748,8.283,47.525,48.013,47.525,48.013s16.011-24.075,42.66-15.892
		c29.534,9.076,24.375,34.44,24.375,34.44s16.362-18.488,40.608-4.925c24.246,13.564,37.385,37.451,31.289,63.558
		c-6.096,26.107-30.193,60.15-178.404,47.666C433.809,229.048,402.68,224.51,403.339,181.382z"/>
</g>
<g>
	<path fill="#764962" d="M828.438,455.692c0.396-8.158,1.807-75.987-46.868-100.403c-48.672-24.416-94.328,22.908-94.328,22.908
		s-0.099-93.792-61.456-86.587c-61.338,7.205-63.223,60.365-63.223,60.365s-17.866-33.428-51.711-24.614
		c-37.518,9.786-33.249,44.067-33.249,44.067s-18.777-26.004-50.103-9.805c-31.303,16.195-49.705,47.064-44.345,82.417
		c5.359,35.354,32.436,82.735,217.876,77.833C786.474,516.95,825.579,513.357,828.438,455.692z"/>
	<path fill="#A4708C" d="M20.179,326.021c0.158-8.931,3.932-82.978,68.978-106.206c65.045-23.228,120.221,31.522,120.221,31.522
		s0-65.582,88.351-65.582c56.13-8.36,75.227,45.666,75.227,45.666s25.899-35.202,68.979-23.228
		c47.767,13.278,39.425,50.352,39.425,50.352s26.475-27.04,65.68-7.207c39.208,19.833,60.458,54.766,50.606,92.928
		c-9.85,38.16-48.838,87.942-288.523,69.698C69.455,395.722,19.107,389.081,20.179,326.021z"/>
</g>
<g>
	<path fill="none" stroke="#010202" stroke-width="0.712" stroke-miterlimit="10" d="M302.492,338.018
		c0-7.742,4.271-64.582,4.757-71.719"/>
	<path fill="none" stroke="#010202" stroke-width="0.712" stroke-miterlimit="10" d="M620.532,350.712
		c0-7.354-0.874-65.239-0.438-71.719"/>
	<path fill="none" stroke="#010202" stroke-width="0.712" stroke-miterlimit="10" d="M456.659,171.062l-0.485-80.141"/>
	<path fill="#010202" d="M389.672,358.891c0.073,4.198,31.042,7.185,64.948,6.65c33.881-0.534,64.753-4.393,64.704-8.592
		c-0.073-4.199-31.066-7.184-64.947-6.65C420.471,350.833,389.599,354.691,389.672,358.891z"/>
	<path fill="#010202" d="M583.229,451.992c0.073,2.839,18.712,4.635,41.623,4.029c22.887-0.632,41.406-3.447,41.333-6.286
		c-0.073-2.841-18.713-4.637-41.624-4.005C601.674,446.337,583.155,449.152,583.229,451.992z"/>
	<path fill="#010202" d="M334.919,443.837c-0.073,2.84-18.713,4.636-41.624,4.029c-22.888-0.631-41.405-3.447-41.309-6.286
		c0.073-2.84,18.713-4.636,41.6-4.005C316.497,438.182,335.016,440.997,334.919,443.837z"/>
	<path fill="#B4B1A5" d="M313.804,859.2c-14.684,4.319-18.615,9.975-61.355,6.043c-29.974-2.742-50.118-14.684-50.118-14.684
		s31.915-187.683,35.435-207.415c13.834-77.762,15.558-127.03,18.154-155.549c2.815-39.512,0.34-65.044,15.557-75.188
		c10.389-6.917,51.842,13.834,54.439,21.6c2.597,7.768-9.417,111.475-9.417,126.183s9.417,154.698,10.291,165.911
		C327.638,737.338,313.804,859.2,313.804,859.2z"/>
	<path fill="#B4B1A5" d="M368.242,677.245c0,0,12.961-168.509,15.558-178.023c2.597-9.514,12.11-13.834,12.11-13.834
		s4.781-124.362,6.917-139.991c1.627-11.916,66.55-8.641,66.55-8.641s35.435-2.597,38.007,14.684
		c2.597,17.281,2.597,139.117,5.194,140.865c2.597,1.724,6.917,3.471,9.514,10.363c2.597,6.917,12.96,173.703,8.64,178.023
		C526.388,685.012,377.756,675.521,368.242,677.245z"/>
	<path fill="#B4B1A5" d="M573.933,861.578c0,0,25.363,5.753,62.788,5.193c37.449-0.581,57.617-16.139,59.923-18.444
		s-19.003-116.377-19.003-137.128c0-20.728-17.281-135.962-17.864-141.714c-0.582-5.753-2.135-115.479-3.3-120.648
		c-1.165-5.194-16.868-9.563-16.868-9.563s-47.085,4.102-47.085,11.576c0,4.272,2.986,53.443-0.801,110.553
		c-2.888,43.151-11.285,107.372-13.761,122.734C572.186,719.864,566.434,851.798,573.933,861.578z"/>
	<path fill="#3D3D3B" d="M252.01,442.017c1.359,0,16.406-4.515,39.294-4.515c22.886,0,42.376,5.825,43.662,5.825
		c-3.325-19.684-28.519-130.065-30.678-133.099C302.468,307.656,265.067,400.223,252.01,442.017z"/>
	<path fill="#3D3D3B" d="M666.158,450.172c-1.383,0-16.406-4.515-39.293-4.515c-22.911,0-42.377,5.825-43.662,5.825
		c3.324-19.659,33.712-130.065,35.872-133.074C621.211,315.374,658.829,426.726,666.158,450.172z"/>
	<path fill="#3D3D3B" d="M519.275,357.604c-2.014-0.023-20.169-11.601-61.524-10.824c-42.401,0.802-66.234,11.359-68.151,11.335
		c5.267-29.052,62.423-203.944,65.675-208.361C458.526,145.312,508.84,322.775,519.275,357.604z"/>
	<path fill="#FBFBFC" d="M274.581,618.001c0,0-0.364-25.751,2.111-32.474c2.476-6.724,11.65-6.698,13.058,4.95
		c1.408,11.65,0.34,27.523,0.34,27.523H274.581z"/>
	<path fill="#FBFBFC" d="M282.641,492.353c0-1.649,0-24.804,2.476-30.095c2.451-5.291,10.218-4.635,11.989,3.301
		c1.771,7.937-3.52,28.761-3.52,28.761L282.641,492.353z"/>
	<path fill="#DBD9CD" d="M281.208,496.115c1.384,0.219,12.354,1.408,14.465,1.408c2.112,0,2.815-7.403,0.34-7.403
		s-15.169-1.407-16.236-0.364C278.732,490.824,276.985,495.411,281.208,496.115z"/>
	<path fill="#FBFBFC" d="M620.265,617.419c0,0-0.364-22.159,2.111-27.911c2.476-5.776,11.649-5.776,13.058,4.247
		c1.408,10.024,0.34,23.664,0.34,23.664H620.265z"/>
	<path fill="#FBFBFC" d="M621.771,501.649c-0.194-1.529-2.646-23.105-0.753-28.3c1.893-5.218,9.66-5.461,12.281,1.724
		c2.597,7.184-0.461,27.183-0.461,27.183L621.771,501.649z"/>
	<path fill="#DBD9CD" d="M620.773,505.411c1.408,0.073,12.427,0,14.538-0.243c2.112-0.243,1.966-7.694-0.485-7.402
		c-2.451,0.268-15.241,0.315-16.164,1.48C617.716,500.435,616.478,505.192,620.773,505.411z"/>
	<path fill="#E30D18" d="M353.874,279.114c-4.685-2.281-11.82-6.407-16.504-7.378c-8.884-1.869-12.184,0.484-19.537-0.291
		c-4.782-0.51-9.078-3.204-10.995-3.908l-1.433,17.184c6.068,2.549,11.82,4.659,21.505-0.17
		C337.637,279.188,342.661,278.993,353.874,279.114z"/>
	<path fill="#E30D18" d="M667.979,291.759c-4.83,1.99-12.208,5.632-16.94,6.31c-9.005,1.287-12.136-1.262-19.514-0.971
		c-4.805,0.194-9.271,2.598-11.236,3.204l-0.34-17.231c6.212-2.137,12.086-3.883,21.454,1.553
		C651.791,290.643,656.815,291.152,667.979,291.759z"/>
	<path fill="#E30D18" d="M519.641,102.426c-5.243,4.83-17.621,11.091-23.664,11.941c-11.504,1.626-15.533-1.626-24.998-1.262
		c-6.165,0.243-11.893,3.325-14.393,4.102l-0.412-22.062c7.961-2.743,15.484-4.976,27.474,1.99
		C496.924,104.877,505.15,102.45,519.641,102.426z"/>
	<path fill="#FBFBFC" d="M442.144,416.096c0,0-2.937-23.664-1.723-30.678c2.16-12.523,22.037-14.684,21.6,3.034
		c-0.388,16.043-1.286,28.954-1.286,28.954L442.144,416.096z"/>
	<path fill="#FBFBFC" d="M421.078,597.153c0,0-0.146-33.881,0.461-53.76c0.874-28.081,50.434-33.565,51.914-1.044
		c1.893,41.674-2.815,54.804-2.815,54.804H421.078z"/>
	<path fill="none" stroke="#DADADA" stroke-width="0.712" stroke-miterlimit="10" d="M449.278,596.425l-0.97-41.647l-27.038-0.656"
		/>
	<path fill="none" stroke="#DADADA" stroke-width="0.712" stroke-miterlimit="10" d="M447.459,518.541l0.85,36.236l26.575-0.607"/>
	<path fill="#DBD9CD" d="M438.674,421.727c3.349,2.015,22.911,1.286,25.071,0.437c2.159-0.849,2.597-7.766-0.437-8.203
		c-3.034-0.437-24.198-1.286-25.509,0C436.514,415.222,436.514,420.416,438.674,421.727z"/>
	<path fill="#DBD9CD" d="M416.636,606.642c2.452,1.967,60.919,0.438,63.953,0c1.577-3.566,3.034-35.434,0.874-36.721
		c-2.161-1.286-13.835-1.723-13.835,0.874s1.724,12.524,0,12.96c-1.724,0.438-10.363,0.874-12.086,0
		c-1.724-0.873,0-13.834-1.724-13.834s-13.397-0.849-13.397,0.874s1.724,12.96,0.437,12.96c-1.286,0-12.086,1.724-12.086,0
		c0-1.723,0-12.96-1.724-12.96c-1.723,0-11.237-0.874-11.237,1.286C415.787,574.241,415.787,603.05,416.636,606.642z"/>
	<path fill="#8F8B84" d="M587.646,544.607c0,0,0.851,20.8,3.083,20.8c2.257,0,16.455-4.199,38.201-3.641
		c16.116,0.389,31.795,4.198,33.469,3.907c1.699-0.291,3.883-20.774,2.767-22.159c-1.141-1.406-37.643-5.339-37.643-5.339
		L587.646,544.607z"/>
	<path fill="#8F8B84" d="M248.491,532.666c0,0-1.093,21.747,0.194,23.907c5.8,0.291,16.479-2.72,37.643-1.821
		c21.527,0.898,33.13,6.529,33.13,4.806c0-1.723,3.034-20.993,0-21.405C316.424,537.715,251.088,531.817,248.491,532.666z"/>
	<path fill="#8F8B84" d="M378.095,494.563c-0.34,1.966,0.582,19.004,1.723,19.343c1.142,0.34,38.931-5.485,72.011-5.146
		c32.377,0.316,52.254,2.451,73.32,6.068c0-1.312,0.655-22.378-1.966-24.174s-93.781-3.883-93.781-3.883L378.095,494.563z"/>
	<path fill="#DBD9CD" d="M581.263,528.007c-0.316,1.407,5.291,24.173,6.407,24.173c1.117,0,20.242-6.528,41.6-6.528
		c21.358,0,36.187,5.704,37.594,5.704c1.408,0,7.864-24.999,6.456-25.849c-1.407-0.85-11.528-3.665-12.644-3.665
		c-1.117,0-1.966,13.761-3.083,13.761c-1.116,0-5.339-1.407-6.724-1.698c-1.406-0.268,1.676-14.319,0-14.611
		c-1.698-0.291-13.203-1.698-13.493-0.849c-0.291,0.849,0,13.203-1.117,13.203c-1.116,0-7.863,0.29-9.271,0
		c-1.407-0.268-0.849-14.053-1.674-14.053c-0.85,0-13.495,1.116-14.319,1.698c-0.85,0.559,1.966,13.471,0.849,13.471
		c-1.116,0-9.659,2.402-10.776,2.111c-1.115-0.291-3.373-13.543-4.223-13.543C595.945,521.381,582.111,524.342,581.263,528.007z"/>
	<path fill="#DBD9CD" d="M241.478,516.017c-0.776,3.616,4.369,25.824,4.563,27.62s14.246-3.835,38.396-2.961
		c24.537,0.873,37.644,6.334,38.639,6.528c0.994,0.195,6.019-25.556,6.432-28.347c0.388-2.791-11.626-4.709-12.014-3.521
		c-0.413,1.19-1.772,14.514-1.772,14.514s-7.621-0.654-9.878-1.213c-0.17-2.232,2.16-11.602,1.918-13.665
		c-1.384-1.576-13.543-1.383-13.932-0.388s-1.359,12.014-1.359,13.009c-2.451,0.364-7.814,0.17-11.528,0.073
		c-0.728-1.602,1.189-14.15,0-14.562c-1.189-0.39-12.669-0.972-13.275,0.241c-0.583,1.19,0.68,14.466-0.122,14.466
		c-0.801,0-8.105,1.675-8.907,1.675c-0.801,0-2.014-14.198-1.82-15.193C253.03,513.347,243.226,514.876,241.478,516.017z"/>
	<path fill="#DBD9CD" d="M372.294,466.238c-0.291,1.528,1.723,31.722,3.81,32.231c2.088,0.533,39.148-6.384,76.67-5.753
		c42.279,0.704,71.064,5.753,72.643,5.753c1.577,0,7.329-30.678,5.218-32.231c-2.088-1.554-14.83-4.757-15.048-3.689
		c-0.218,1.093-1.529,15.995-2.378,15.995c-0.874,0-11.456-0.219-12.742-0.656c-1.287-0.437,0.436-18.785-0.656-19.003
		c-1.092-0.219-16.868-0.656-17.936-0.437c-1.067,0.218,0,17.499-1.067,17.717c-1.068,0.218-15.339-1.312-15.995-1.092
		c-0.654,0.218,0.656-18.154-1.286-18.154c-1.941,0-15.12,0.849-16.431,0.849c-1.286,0,0,17.937-1.505,17.937
		s-16.625,0.655-17.936-0.219c-1.286-0.873-0.437-16.844-1.286-17.498c-0.85-0.656-19.005,0.218-20.097,0.873
		c-1.067,0.655,0.851,17.28-0.218,17.499s-14.465,1.505-15.339,1.505s-0.219-16.65-2.597-16.432
		C385.764,461.676,372.658,464.297,372.294,466.238z"/>
	<path fill="#3D3D3B" d="M343.631,465.874C343.631,465.85,343.631,465.85,343.631,465.874c3.932,1.408,6.723,4.005,9.101,7.257
		c0.874,1.189,1.676,2.427,2.307,3.859c0.824,1.869,1.626,3.786,3.373,4.83c0.413,0.242,0.946,0.582,1.505,0.51
		c0.243-0.025,0.534-0.243,0.534-0.51c0-0.17-0.171-0.364-0.243-0.534c-0.169-0.438-0.194-0.947,0-1.433
		c0.072-0.218,0.194-0.558,0.389-0.581c0.291-0.05,0.534,0.388,0.655,0.631c0.17,0.314,0.243,0.605,0.34,0.945
		c0.606-0.072,1.092,0.121,1.529,0.268c0.218-0.485,0.437-1.092,1.165-1.044c0.703,0.971,0.048,2.402-0.607,2.913
		c1.942,1.044,4.563,0.097,5.752-1.02c0.68-0.606,1.262-1.311,1.893-1.941c3.204-3.252,7.938-4.854,14.029-5.291
		c-1.141,0.704-2.306,1.505-3.106,2.572c-0.364,0.485-0.752,1.189-0.874,1.941c-0.121,0.801,0.049,1.723,0.363,2.354
		c-2.863,0.777-4.174,3.034-4.563,6.189c-0.825-0.582-2.063-0.898-3.35-1.043c-1.383-0.146-2.693,0.097-3.713,0.606
		c-1.966,0.971-3.422,2.67-4.563,4.32c0.243-0.85-0.024-1.65-0.68-2.111c-0.559-0.389-1.529-0.534-2.233-0.291
		c-0.412,0.146-0.729,0.461-0.849,0.922c-0.291-0.389-0.655-0.898-1.286-0.946c-0.583-0.049-1.021,0.267-1.359,0.485
		c-0.049-0.511-0.146-0.874-0.34-1.263c-0.194-0.388-0.486-0.922-0.995-0.922c-0.607,0-1.117,0.485-1.505,0.85
		c-0.438,0.412-0.801,0.85-1.117,1.214c-0.364-2.621-1.383-4.685-2.888-6.165c-1.505-1.456-3.567-2.477-6.261-2.67
		c0.654-0.972,1.236-2.572,0.605-4.029c-0.534-1.213-1.577-1.99-2.645-2.597c1.576-0.51,2.548-1.626,2.402-3.737
		c-0.072-1.068-0.51-1.918-0.995-2.67C344.869,467.015,344.262,466.36,343.631,465.874z"/>
</g>
<path fill="#3D3D3B" d="M182,109.535c0-0.055,0.055-0.037,0.055,0c9.628,3.662,16.479,10.199,22.215,18.347
	c2.101,2.984,4.074,6.079,5.59,9.668c1.973,4.706,3.892,9.466,8.167,12.103c0.986,0.604,2.338,1.483,3.708,1.336
	c0.584-0.073,1.333-0.549,1.333-1.245c0-0.403-0.42-0.879-0.603-1.336c-0.402-1.062-0.439-2.362,0.055-3.571
	c0.219-0.531,0.53-1.373,0.986-1.446c0.731-0.11,1.297,0.989,1.589,1.593c0.384,0.824,0.566,1.557,0.786,2.381
	c1.517-0.184,2.722,0.329,3.8,0.75c0.585-1.227,1.133-2.728,2.923-2.582c1.735,2.417,0.055,6.006-1.626,7.196
	c4.768,2.691,11.272,0.384,14.304-2.289c1.681-1.501,3.161-3.186,4.75-4.761c8.02-7.946,19.858-11.737,34.967-12.597
	c-2.868,1.666-5.773,3.607-7.819,6.299c-0.913,1.208-1.9,2.93-2.229,4.815c-0.347,1.959,0.018,4.303,0.786,5.859
	c-7.106,1.794-10.468,7.361-11.528,15.216c-2.028-1.465-5.061-2.325-8.257-2.728c-3.417-0.439-6.668,0.146-9.244,1.392
	c-4.915,2.344-8.586,6.518-11.473,10.565c0.622-2.105,0-4.102-1.589-5.255c-1.352-0.989-3.745-1.392-5.48-0.788
	c-1.023,0.348-1.809,1.135-2.174,2.234c-0.694-0.989-1.571-2.252-3.124-2.436c-1.462-0.165-2.521,0.604-3.362,1.136
	c-0.073-1.227-0.311-2.197-0.785-3.168c-0.457-0.952-1.133-2.289-2.43-2.325c-1.535-0.055-2.795,1.172-3.763,2.032
	c-1.114,0.989-2.028,2.069-2.813,2.984c-0.786-6.555-3.233-11.718-6.924-15.417c-3.672-3.681-8.732-6.262-15.438-6.848
	c1.681-2.38,3.124-6.335,1.626-9.961c-1.242-3.04-3.818-5.017-6.431-6.555c3.928-1.245,6.376-3.955,6.084-9.173
	c-0.146-2.637-1.206-4.816-2.375-6.647C185.069,112.409,183.553,110.78,182,109.535z"/>
<path fill="#3D3D3B" d="M447.428,453.907c0.912-0.487,2.262,1.171,3.959,0.901c2.006-1.533,0.146-5.299-1.533-6.02
	c0.821-5.441-2.627-6.648-7.023-6.938c-2.043-6.506-8.609-11.119-17.387-9.047c-4.195-9.604-12.276-15.389-26.233-15.371
	c-3.356-8.324-9.048-14.36-19.21-15.965c13.281-8.379,41.941-8.974,58.561-3.01c3.448,5.947,8.028,12.146,13.721,17.173
	c6.695,5.894,13.591,12.722,25.613,12.957c0.894-5.046,3.539-8.36,7.936-9.946c-0.676,3.981,1.514,5.135,3.667,6.324
	c2.226-0.595,4.543-1.406,6.094,0.307c2.207-1.117,4.05-2.631,4.579-5.424c2.262,0.774,3.191,4.145,2.443,6.938
	c10.91-4.289,18.299-12.057,24.101-21.391c17.696-2.703,29.445,5.371,36.286,15.354c-7.898-0.18-12.132,3.279-14.029,9.027
	c-3.047-1.531-7.205-3.693-11.293-2.414c-2.498,0.775-2.919,2.83-4.871,3.91c-6.969-3.928-14.85,1.478-17.988,6.019
	c-13.043-5.278-16.51,6.271-23.789,12.344c-3.01,2.523-5.93,3.982-10.07,5.425c1.825,2.18,0.949,7.856-4.27,7.226
	c0.348-1.153,1.844-1.188,1.826-2.722c-1.807-2.847-5.82-2.071-8.849-0.306c-1.696,0.991-2.608,3.315-4.58,3.91
	c-4.56,1.388-8.008-1.694-8.849-7.226C454.123,458.087,448.449,457.673,447.428,453.907z"/>
</svg>
