<?xml version="1.0" encoding="UTF-8" standalone="no"?>
<!-- Generator: Adobe Illustrator 25.3.1, SVG Export Plug-In . SVG Version: 6.00 Build 0)  -->

<svg
   version="1.1"
   id="Layer_1"
   x="0px"
   y="0px"
   viewBox="0 0 1024 600"
   xml:space="preserve"
   sodipodi:docname="castillo_pres6.svg"
   width="1024"
   height="600"
   inkscape:version="1.2.1 (9c6d41e410, 2022-07-14)"
   xmlns:inkscape="http://www.inkscape.org/namespaces/inkscape"
   xmlns:sodipodi="http://sodipodi.sourceforge.net/DTD/sodipodi-0.dtd"
   xmlns="http://www.w3.org/2000/svg"
   xmlns:svg="http://www.w3.org/2000/svg"><defs
   id="defs2972" /><sodipodi:namedview
   id="namedview2970"
   pagecolor="#ffffff"
   bordercolor="#000000"
   borderopacity="0.25"
   inkscape:showpageshadow="2"
   inkscape:pageopacity="0.0"
   inkscape:pagecheckerboard="0"
   inkscape:deskcolor="#d1d1d1"
   showgrid="false"
   inkscape:zoom="0.81253207"
   inkscape:cx="305.21872"
   inkscape:cy="313.21841"
   inkscape:window-width="1920"
   inkscape:window-height="1018"
   inkscape:window-x="-8"
   inkscape:window-y="-8"
   inkscape:window-maximized="1"
   inkscape:current-layer="Layer_1" />
<style
   type="text/css"
   id="style2509">
	.st0{fill-rule:evenodd;clip-rule:evenodd;fill:#9A9587;}
	.st1{fill-rule:evenodd;clip-rule:evenodd;fill:#DAD8CC;}
	.st2{fill:#19814A;}
	.st3{fill:none;stroke:#000000;stroke-width:0.712;stroke-miterlimit:10;}
	.st4{fill:#B4B0A5;}
	.st5{fill:#3C3C3B;}
	.st6{fill:#FAFAFB;}
	.st7{fill:#DAD8CC;}
	.st8{fill:#E30613;}
	.st9{fill:none;stroke:#DADADA;stroke-width:0.712;stroke-miterlimit:10;}
	.st10{fill:#908B84;}
	.st11{fill:#814114;}
	.st12{fill:none;stroke:#A85318;stroke-width:0.712;stroke-linecap:round;stroke-miterlimit:10;}
	.st13{fill:#A85318;}
	.st14{fill:none;stroke:#000000;stroke-width:0.712;stroke-linecap:round;stroke-miterlimit:10;}
	.st15{fill-rule:evenodd;clip-rule:evenodd;fill:#3C3C3B;}
	.st16{fill:#2FAC66;}
	.st17{fill:#D5C2A2;}
	.st18{fill:#B91919;}
	.st19{fill:#E4D5B8;}
	.st20{fill:#F39200;}
	.st21{fill:none;stroke:#000000;stroke-width:0.884;stroke-linecap:round;}
	.st22{fill-rule:evenodd;clip-rule:evenodd;fill:#FFFFFF;}
	.st23{fill-rule:evenodd;clip-rule:evenodd;}
	.st24{fill:#FBBA00;}
	.st25{fill:#00A0A4;}
	.st26{fill:#007572;}
	.st27{fill:none;stroke:#007572;stroke-width:0.928;stroke-linecap:round;}
	.st28{fill:none;stroke:#B9B5A3;stroke-width:0.618;stroke-linecap:round;stroke-linejoin:round;stroke-miterlimit:10;}
	.st29{fill:#FFDE00;}
	.st30{fill:none;stroke:#FBBA00;stroke-width:0.928;stroke-linecap:round;}
	.st31{fill:#B780B1;}
	.st32{fill:#FFFFFF;}
</style>































































<path
   class="st2"
   d="M 1069.7619,599.89543 C 1070.5568,545.41784 1061.2831,487.87258 928.53282,482.47771 680.25561,472.42845 383.88628,534.15208 359.6415,599.89543 Z"
   id="path2515"
   style="stroke-width:0.837095" /><g
   id="g4717"
   transform="matrix(1.09986,0,0,1.1699926,-758.13528,-227.07371)"><g
     id="g5530"
     transform="matrix(0.52805364,0,0,0.59787887,920.12449,329.52015)"><path
       class="st7"
       d="m 1049.7739,451.30971 c 0,0 -0.7,-1.6 -9.8,0 -33.9,6.2 -59.70005,-10.1 -56.00005,-10.7 20.20005,-3.2 36.40005,-7.7 34.00005,-9.3 -2.5,-1.5 -34.20005,-4.4 -28.20005,-5.2 8.1,-1.1 31.40005,-11.4 28.70005,-12.1 -2.9,-0.8 -29.90005,-1.8 -24.70005,-3.9 19.40005,-7.8 27.00005,-15.9 24.60005,-15.1 -2.4,0.8 -21.90005,3.2 -18.3,0.6 11.9,-8.7 21.9,-25.2 21.9,-25.2 0,0 -11.4,3.5 -15.5,4.5 -4.1,1 -1.7,-1.3 6.1,-8.1 7.4,-6.5 13.7,-16 13.7,-16 0,0 -2.3,-0.3 -8.4,0 -6.2,0.3 -5.5,1.1 0,-5.5 5.5,-6.5 19.8,-20.8 16.9,-22 -2.9,-1.2 -17.5,8 -14.8,5 7.7,-8.5 26.3,-43 27.1,-40.7 0.8,2.3 9.1,24.3 14.8,32 5.7,7.7 16.8,14.3 11.5,13.9 -5.3,-0.4 -15,-5.1 -15,-5.1 0,0 5,14.4 8.8,17.8 3.8,3.5 7.9,7.3 2.5,6.9 -5.4,-0.4 -15,-5 -12.5,-1.5 2.5,3.5 21.1,17.4 17.6,18 -3.5,0.5 -15.6,-2.8 -15.6,-2.8 0,0 10.8,15.6 14.1,17.9 3.4,2.3 7.6,4.4 3.8,5.1 -3.8,0.7 -15.3,-2.2 -15.3,-2.2 0,0 8.8,15.6 20.7,22.8 1.5,0.9 -10,1.1 -15.4,0 -5.4,-1.1 -7.5,-2.4 -7.1,0 0.4,2.4 20.4,11.3 28.4,16.3 5.5,3.5 -24.6,-0.9 -26.5,0 -2.1,1 17.4,15.9 34.8,17.7 5.2,0.5 -9,4.6 -19.5,6.9 -10.6,2.3 -27.4,0 -27.4,0 z"
       id="path4127"
       style="clip-rule:evenodd;fill:#2fac66;fill-rule:evenodd" /><path
       class="st8"
       d="m 1034.2739,437.90971 c -0.2,-8.9 0.6,-26.5 0.6,-26.5 l -13.2,-13.2 1.7,-2.2 c 0,0 1.4,0.3 4.9,3.1 3.5,2.7 8,5.5 8,5.5 0,0 0.2,-15.3 0.5,-18.8 0.5,-6.6 -1.7,-8.6 -1.7,-8.6 0,0 -2,-1.5 -4.8,-3.5 -2.8,-2 -5,-3.9 -5,-3.9 l 2.2,-2.4 c 0,0 3.1,1.5 5.5,3.1 2.1,1.4 4.4,0.2 4.4,0.2 0,0 0,-1.9 0.2,-7.6 0.2,-5.2 1,-11.8 0.1,-14.7 -0.9,-2.8 -6.4,-11.5 -6.4,-11.5 l 1.5,-2.7 c 0,0 1.4,0.9 2.7,2.9 1.3,1.9 5.1,6.8 5.1,6.8 0,0 1.6,-3.7 3.6,-7.5 2.4,-4.6 1.1,-5.2 3.7,-4.5 2.8,0.7 2,1.2 0.7,4.8 -1.5,4.1 -2,5.7 -3.1,8 -0.8,1.8 -0.2,28.1 -0.2,28.1 0,0 -0.2,17.2 0.5,17.5 3.1,1.2 11.9,-0.9 11.9,-0.9 l -0.1,2.6 -12.1,3.9 -0.3,29.4 c 0,0 4.1,-0.2 6.3,-1.2 2.2,-1.1 2.6,-0.7 2.6,-0.7 l 0.9,2.3 c 0,0 -2.6,2.1 -4.8,2.6 -1.6,0.3 -3.9,1 -5.2,1.3 l 1.5,58.3 -13.2,-0.5 c 0.1,0 1.1,-40.8 1,-49.5 z"
       id="path4129"
       style="fill:#a85318" /><path
       class="st9"
       d="m 860.87385,455.30971 c 0,0 0.6,-1.3 8.3,0 28.6,5 50.3,-8.2 47.2,-8.7 -17.1,-2.6 -30.7,-6.3 -28.6,-7.5 2.1,-1.2 28.8,-3.6 23.8,-4.2 -6.9,-0.9 -26.4,-9.3 -24.2,-9.9 2.4,-0.7 25.2,-1.5 20.8,-3.2 -16.3,-6.4 -22.7,-13 -20.7,-12.3 2,0.7 18.5,2.6 15.5,0.5 -10.1,-7.1 -18.5,-20.5 -18.5,-20.5 0,0 9.6,2.9 13.1,3.7 3.5,0.8 1.4,-1.1 -5.1,-6.6 -6.2,-5.3 -11.5,-13 -11.5,-13 0,0 1.9,-0.2 7.1,0 5.2,0.2 4.7,0.9 0,-4.5 -4.7,-5.3 -16.7,-16.9 -14.3,-17.9 2.5,-0.9 14.8,6.5 12.5,4.1 -6.5,-6.9 -22.2,-35 -22.9,-33.1 -0.7,1.9 -7.7,19.8 -12.4,26 -4.8,6.3 -14.2,11.6 -9.7,11.3 4.5,-0.3 12.6,-4.2 12.6,-4.2 0,0 -4.2,11.7 -7.4,14.5 -3.2,2.8 -6.7,6 -2.1,5.6 4.6,-0.3 12.7,-4.1 10.6,-1.3 -2.1,2.8 -17.8,14.2 -14.9,14.6 2.9,0.4 13.1,-2.2 13.1,-2.2 0,0 -9.1,12.7 -11.9,14.6 -2.9,1.9 -6.4,3.6 -3.2,4.2 3.2,0.6 12.9,-1.8 12.9,-1.8 0,0 -7.4,12.7 -17.4,18.6 -1.2,0.7 8.4,0.9 13,0 4.6,-0.9 6.3,-1.9 6,0 -0.4,1.9 -17.2,9.2 -23.9,13.3 -4.6,2.8 20.7,-0.7 22.4,0 1.8,0.8 -14.7,12.9 -29.3,14.4 -4.4,0.4 7.6,3.7 16.4,5.6 8.5,1.8 22.7,-0.1 22.7,-0.1 z"
       id="path4131"
       style="clip-rule:evenodd;fill:#1b8a4f;fill-rule:evenodd" /><path
       class="st8"
       d="m 874.27385,445.00971 c 0.1,-7.3 -0.5,-21.7 -0.5,-21.7 l 11.2,-10.8 -1.5,-1.8 c 0,0 -1.2,0.3 -4.2,2.5 -3,2.2 -6.8,4.5 -6.8,4.5 0,0 -0.2,-12.5 -0.4,-15.4 -0.4,-5.4 1.5,-7 1.5,-7 0,0 1.7,-1.2 4.1,-2.9 2.4,-1.6 4.3,-3.2 4.3,-3.2 l -1.9,-2 c 0,0 -2.6,1.2 -4.7,2.5 -1.8,1.2 -3.7,0.2 -3.7,0.2 0,0 0,-1.5 -0.2,-6.2 -0.2,-4.3 -0.9,-9.7 -0.1,-12 0.7,-2.3 5.4,-9.4 5.4,-9.4 l -1.2,-2.2 c 0,0 -1.2,0.8 -2.3,2.3 -1.1,1.6 -4.3,5.6 -4.3,5.6 0,0 -1.4,-3.1 -3,-6.1 -2,-3.7 -1,-4.3 -3.1,-3.7 -2.4,0.6 -1.7,1 -0.6,4 1.2,3.4 1.7,4.7 2.6,6.6 0.7,1.5 0.2,22.9 0.2,22.9 0,0 0.2,14.1 -0.4,14.3 -2.7,1 -10.1,-0.7 -10.1,-0.7 l 0.1,2.1 10.3,3.2 0.2,24 c 0,0 -3.5,-0.1 -5.4,-1 -1.9,-0.9 -2.2,-0.6 -2.2,-0.6 l -0.8,1.9 c 0,0 2.2,1.7 4.1,2.1 1.4,0.3 3.4,0.8 4.4,1.1 l -1.3,47.6 11.2,-0.4 c -0.1,0.1 -1,-33.3 -0.9,-40.3 z"
       id="path4133"
       style="fill:#a85318" /><path
       class="st7"
       d="m 916.87385,455.50971 c -6,0 -27.9,-8.2 -34.3,-25.6 -6.4,-17.4 -1.2,-55.1 3,-71 4.2,-15.9 31.1,-93.4 31.1,-93.4 0,0 8.3,17.7 15.3,29.8 7,12 27.9,60.2 31.9,78.2 4,18.1 4.2,50.4 -6.2,64.4 -13.3,17.6 -23.5,14.3 -40.8,17.6 z"
       id="path4135"
       style="clip-rule:evenodd;fill:#2fac66;fill-rule:evenodd" /><path
       class="st10"
       d="m 918.47385,498.30971 c 0,0 0.3,-22.2 0.3,-31.4 0,-9.2 1.5,-27.1 -0.3,-28.4 -1.9,-1.3 -5.6,-2.2 -10,-4.1 -4.4,-1.9 -9.7,-2.6 -13.4,-2.9 -3.7,-0.3 -4.2,-0.4 -4.2,-0.4 l 0.8,-4 c 0,0 0.6,-0.2 3.7,0 3.1,0.2 4,0.4 5.5,0.5 2.9,0.3 4.7,1.6 4.6,0 -0.1,-1.7 -0.6,-8.4 0.9,-7.8 1.5,0.7 2.5,0.9 2.5,0.9 0,0 0.9,2.7 1.1,4.9 0.2,2.7 0.1,3.5 0.1,3.5 0,0 3.6,1.2 5.7,1.7 1.9,0.4 2.5,0.1 2.5,-3.8 0,-5.3 1.2,-18.9 0.3,-22.3 -0.9,-3.4 -2.9,-5.1 -5.6,-6.1 -1.8,-0.7 -6.2,-1.6 -9.4,-3.1 -3.1,-1.5 -5.3,-1.5 -5.3,-1.5 l 0.3,-3 c 0,0 4.4,0.7 5.8,1.3 1.5,0.5 6.6,2.2 6.6,2.2 0,0 -2.6,-6.3 -2.6,-7.2 0,-0.8 -0.3,-4.5 -0.3,-4.5 h 2.4 l 0.7,3.9 h 4.6 l 0.9,1.4 -3.7,1.6 2.1,4.8 4.1,1.6 c 0,0 -0.6,-16.2 -1.2,-21.5 l -0.6,-5.3 c 0,0 -4,-2.1 -6.1,-3.1 -2.2,-0.9 -7.6,-2.5 -7.6,-2.5 l 0.1,-2.9 7.4,2.3 c 0,0 -1.1,-1.1 -2,-2.9 -0.9,-1.7 -0.2,-1.7 -0.2,-1.7 l 2.1,-0.7 6,7.6 c 0,0 -0.3,-21.7 -0.6,-23.7 -0.3,-2 -8,-7.9 -8,-7.9 l 1.1,-1.6 1.6,0.7 c 3.4,1.9 5.5,4.1 6.5,4.5 0.9,0.4 8.2,-14.6 9.8,-15.6 l 1.6,-0.9 c 3.1,1.5 2.5,3.4 2.5,3.4 0,0 -2.3,2.1 -4.1,4.9 -1.8,2.8 -2.5,3.8 -2.5,3.8 l 5,4.4 -0.9,1.4 c 0,0 -4.2,-4 -5.3,-3.8 -0.8,0.2 -1.5,6.6 -1.5,6.6 0,0 2.8,15 2.8,19.1 0,4.1 1.1,9 2.4,10.1 1.3,1.1 2.8,0 2.8,0 l -1.9,-5.5 h 3.2 l 2.7,5.5 c 0,0 8,-3.8 9.8,-4.8 1.9,-0.9 4.6,3.5 4.6,3.5 0,0 -1.2,0.5 -3.7,1.2 -2.5,0.8 -8.6,2.4 -11.4,3.6 -2.8,1.2 -6.2,3.4 -6.2,4.6 0,2.2 1.3,20.7 1.7,25.6 0.3,4.9 0.2,14.8 0.2,14.8 0,0 4.2,-2.8 7.5,-4.9 3.3,-2.1 8.2,-5 8.2,-5 l 1.2,2 -4.9,4.6 c 0,0 0.9,2.2 1.9,2.9 l 0.9,0.7 -1.9,2.2 c 0,0 -2.1,-1.8 -2.9,-2.9 l -0.8,-1.1 -8.9,8.7 2.8,71.2 h -13.9 z"
       id="path4137"
       style="clip-rule:evenodd;fill:#a85318;fill-rule:evenodd" /><path
       class="st11"
       d="m 979.87385,331.10971 c -7.6,-0.3 -22.7,2.3 -34.8,10.8 -14.3,10 -18.3,16.6 -22,33.5 -3.7,16.9 1.5,30.1 9.2,41.6 7.7,11.5 12.7,23.5 48,29.2 19.90005,3.2 52.30005,-9.4 58.20005,-35.7 5.9,-26.3 -1.1,-44.6 -7.8,-51.4 -6.7,-6.8 -17.6,-26.8 -50.80005,-28 z"
       id="path4139"
       style="fill:#1b8a4f" /><path
       class="st12"
       d="m 936.77385,375.90971 9,5.1 c 0,0 4.5,0.9 6.9,1.3 2.2,0.4 7.6,1.5 7.6,1.5 l 1.9,-9.9 h 2.1 c 0,0 -1.2,10.1 0,10.9 1,0.6 7.6,2.7 11.7,3.7 0.9,-9.2 2,-19.4 2,-20.6 0,-1.2 -3.2,-3.2 -5.8,-4.4 -2.6,-1.1 -8.4,-2.6 -10.7,-3.4 -2.3,-0.7 -3.5,-1.2 -3.5,-1.2 0,0 2.6,-4.2 4.3,-3.3 1.7,0.9 9.2,4.5 9.2,4.5 l 2.6,-5.1 h 3 l -1.8,5.1 c 0,0 1.4,1 2.7,0 1.2,-1 2.2,-5.6 2.2,-9.5 0,-3.9 0,-5.6 0,-5.6 -1.1,-0.2 -5.5,1.9 -5.5,1.9 l -0.9,-1.3 5.4,-3.4 c 0,0 -1.3,-1.7 -3,-4.3 -1.7,-2.6 -1.6,-2.5 1.3,-3.9 0,0 1.9,2.8 3.3,5.1 0.9,1.5 3.6,6.4 4.6,6.5 1,0.2 1.3,-0.1 3.9,-1 l 2.4,-0.6 1,2.1 c 0,0 -5.8,1.6 -6.1,3.5 -0.3,1.9 -0.6,16.5 -0.6,16.5 l 5.6,-7.1 2,0.6 c 0,0 0.7,0 -0.1,1.6 -0.9,1.6 -1.9,2.7 -1.9,2.7 l 6.9,-2.2 0.1,2.7 c 0,0 -5.1,1.4 -7.1,2.3 -2,0.9 -5.8,2.9 -5.8,2.9 l -0.6,4.9 c -0.6,4.9 -1.2,20.2 -1.2,20.2 l 7.3,-2.7 2,-4.5 -3.5,-1.5 0.9,-1.3 h 4.3 l 3.5,-5.2 2.19995,1.1 c 0,0 -3.09995,3.9 -3.09995,4.7 0,0.8 -2.5,6.7 -2.5,6.7 0,0 4.9,-1.6 6.20005,-2.1 1.3999,-0.5 18.2,-4.3 18.2,-4.3 l 0.3,3.9 c 0,0 -10.7001,3.8 -13.7001,5.2 -0.1,0.1 -0.2999,0.1 -0.4,0.2 0.2001,0.2 0.5,0.3 0.7001,0.6 2.5,2.2 6.2999,3.5 6.2999,3.5 l -1.3999,3.5 c 0,0 -6.7001,-4.2 -9.7001,-6.1 -1.69995,0.5 -7.39995,2.6 -8.29995,3 -2.6,1 -7.9,3.1 -8.8,6.3 -0.9,3.2 0.3,13 0.3,18.1 0,3.6 0.6,3.9 2.4,3.6 2,-0.4 5.4,-1.6 5.4,-1.6 0,0 -0.1,-0.8 0.1,-3.3 0.2,-2.1 1,-4.6 1,-4.6 l 2.3,-0.9 c 0.4,1.3 0.5,3.9 0.4,5.5 -0.1,1.6 3.79995,0.7 5.59995,-0.3 1.3,-0.7 4.2,-2.4 8.4,-3.8 2.7,-1 6.5,-2 6.5,-2 l 1.4,3.4 c 0,0 -5.8,2.1 -9.8,4.3 -0.4,0.2 -0.8,0.4 -1.2,0.7 l 5.1,1.1 -1.3,2.3 c -0.2999,-0.1 -1.6,-0.1 -3.2,-0.7 -1.8,-0.6 -3.5,-0.7 -4.4,-1 -3.39995,1.5 -6.09995,2.5 -9.39995,4 -4.1,1.9 -7.7,2.6 -9.4,3.8 -1.7,1.2 -0.3,36.9 -0.3,45.4 0,8.6 0.3,17.7 0.3,17.7 h -13.3 l 2.6,-73.8 -10.7,-9.3 -0.7,1 c -0.7,1 -2.7,2.8 -2.7,2.8 l -1.7,-2.1 0.9,-0.7 c 0.9,-0.7 1.7,-2.8 1.7,-2.8 l -4.6,-4.3 1.2,-1.9 c 0,0 4.6,2.8 7.7,4.7 0.1,0.1 0.2,0.1 0.3,0.2 v -9.1 c 0,0 -0.6,-1.9 0,-2.2 0.6,-0.3 1.7,0 1.7,0 0,0 0.4,1.8 0.7,3.9 0.3,1.6 0.9,7.1 1.2,9.7 2.7,1.7 5.4,3.3 5.4,3.3 0,0 -0.2,-9.3 0.1,-13.9 0.1,-1.2 0.3,-3.8 0.7,-7.2 -5.1,-1.6 -13,-4.6 -17.5,-5.8 -5.8,-1.6 -7.1,-3 -8.9,-2 -1.9,0.9 -1.7,9 -2.3,9.9 l -2.5,-0.9 v -5.4 h -5.3 l -0.8,-1.8 6.1,-0.9 v -5.4 c 0,0 -8.2,-4.3 -8.4,-5.3 -0.1,-1.2 1.3,-2.2 1.3,-2.2 z"
       id="path4141"
       style="fill:#814114;stroke:none" /><path
       class="st13"
       d="m 906.57385,498.40971 c 1.9,3.9 8.1,8 14.4,3.3 5.7,-4.3 4.2,-10.1 0.9,-13.6 -3.4,-3.7 -8.7,-4 -12.6,-1.2 -4,2.9 -4.3,8.3 -2.7,11.5 z"
       id="path4143"
       style="fill:#f8efe6" /><path
       class="st3"
       d="m 912.27385,489.00971 c 0,0 -2.1,2.3 -1.6,3.9 0.4,1.6 1.5,1.9 1.5,1.9 0,0 -0.1,-1.1 0.3,-2.4 0.3,-1.3 1.6,-2.2 1.6,-2.2 z"
       id="path4145"
       style="fill:#ffffff;stroke:none" /><path
       class="st13"
       d="m 862.57385,497.70971 c 1.8,3.6 7.5,7.5 13.4,3.1 5.3,-4 3.9,-9.3 0.8,-12.7 -3.2,-3.4 -8.1,-3.7 -11.7,-1.1 -3.7,2.6 -4,7.7 -2.5,10.7 z"
       id="path4147"
       style="fill:#f8efe6" /><path
       class="st3"
       d="m 867.77385,489.00971 c 0,0 -1.9,2.1 -1.5,3.6 0.4,1.5 1.4,1.7 1.4,1.7 0,0 -0.1,-1 0.2,-2.2 0.3,-1.2 1.5,-2 1.5,-2 z"
       id="path4149"
       style="fill:#ffffff;stroke:none" /><path
       class="st13"
       d="m 989.67385,495.20971 c 2.4,3.5 9.1,6.6 14.50005,1.2 4.5,-4.5 2.6,-10.4 -1.1001,-13.4 -3.79995,-3.1 -8.99995,-2.6 -12.39995,0.6 -3.5,3.3 -3,8.7 -1,11.6 z"
       id="path4151"
       style="fill:#f8efe6" /><path
       class="st3"
       d="m 992.97385,485.60971 c 0,0 -1.7,2.5 -1,4 0.7,1.5 1.7,1.6 1.7,1.6 0,0 -0.2,-1 -0.1,-2.4 0.1,-1.4 1.2,-2.4 1.2,-2.4 z"
       id="path4153"
       style="fill:#ffffff;stroke:none" /><path
       class="st14"
       d="m 831.77385,497.40971 c 2.5,3.6 9.3,6.7 14.7,1.2 4.6,-4.6 2.7,-10.6 -1.1,-13.6 -3.9,-3.1 -9.2,-2.7 -12.7,0.7 -3.4,3.3 -3,8.8 -0.9,11.7 z"
       id="path4155"
       style="fill:#efe6de;stroke:none" /><path
       class="st3"
       d="m 835.07385,487.70971 c 0,0 -1.7,2.6 -1.1,4.1 0.7,1.5 1.7,1.6 1.7,1.6 0,0 -0.2,-1.1 -0.1,-2.4 0.1,-1.4 1.3,-2.4 1.3,-2.4 z"
       id="path4157"
       style="fill:#ffffff;stroke:none" /><path
       class="st14"
       d="m 1038.2739,490.20971 c 2.2,3.8 8.7,7.7 14.8,2.6 5.6,-4.7 3.7,-10.5 0.1,-13.9 -3.7001,-3.5 -9.1,-3.5 -12.9,-0.5 -3.8,3 -3.8,8.6 -2,11.8 z"
       id="path4159"
       style="fill:#efe6de" /><path
       class="st3"
       d="m 1042.4738,480.60971 c 0,0 -2,2.5 -1.5,4 0.6001,1.6 1.6001,1.8 1.6001,1.8 0,0 -0.1001,-1.1 0.1,-2.5 0.2,-1.4 1.5,-2.3 1.5,-2.3 z"
       id="path4161"
       style="fill:#ffffff" /><path
       class="st14"
       d="m 976.87385,496.80971 c 1.6,2.9 6.5,5.7 11,1.9 4.2,-3.5 2.7,-7.8 0.1,-10.3 -2.7,-2.6 -6.7,-2.6 -9.6,-0.3 -2.8,2.2 -2.8,6.4 -1.5,8.7 z"
       id="path4163"
       style="fill:#efe6de;stroke:none" /><path
       class="st3"
       d="m 979.97385,489.70971 c 0,0 -1.5,1.8 -1.1,3 0.4,1.2 1.2,1.3 1.2,1.3 0,0 -0.1,-0.8 0.1,-1.8 0.2,-1 1.1,-1.7 1.1,-1.7 z"
       id="path4165"
       style="fill:#ffffff;stroke:none" /><path
       class="st14"
       d="m 1188.9738,486.40971 c 2.2001,3.8 8.7001,7.7 14.8001,2.6 5.6,-4.7 3.6999,-10.5 0.1,-13.9 -3.7,-3.5 -9.1,-3.5 -12.9001,-0.5 -3.7999,3 -3.7999,8.6 -2,11.8 z"
       id="path4167"
       style="fill:#efe6de;stroke:none" /><path
       class="st3"
       d="m 1193.0739,476.80971 c 0,0 -2,2.5 -1.5,4 0.6,1.6 1.6,1.8 1.6,1.8 0,0 -0.1,-1.1 0.1,-2.5 0.2,-1.4 1.5,-2.3 1.5,-2.3 z"
       id="path4169"
       style="fill:#ffffff;stroke:none" /><path
       class="st15"
       d="m 1236.0739,445.50971 c 0,0 -0.8,-1.8 -10.5,0 -36.3,6.6 -64,-10.8 -60,-11.4 21.7,-3.4 39,-8.3 36.3999,-9.9 -2.5999,-1.6 -36.5999,-4.7 -30.1999,-5.6 8.6999,-1.2 33.6,-12.2 30.7999,-13 -3.1,-0.8 -32.1,-1.9 -26.5,-4.2 20.7001,-8.4 28.9,-17.1 26.3001,-16.2 -2.6001,0.9 -23.5,3.4 -19.7001,0.6 12.8,-9.3 23.5,-27 23.5,-27 0,0 -12.2999,3.8 -16.7,4.8 -4.4,1 -1.8,-1.4 6.5,-8.7 7.9,-7 14.6,-17.1 14.6,-17.1 0,0 -2.4,-0.3 -9,0 -6.6,0.3 -5.9,1.1 0,-5.9 5.9,-7 21.3,-22.3 18.1,-23.5 -3.1,-1.2 -18.7999,8.6 -15.7999,5.4 8.1999,-9.1 28.1999,-46.1 29.0999,-43.6 0.9001,2.5 9.8,26 15.8,34.3 6.1001,8.3 18.1001,15.3 12.3,14.9 -5.8,-0.4 -16.1,-5.5 -16.1,-5.5 0,0 5.4,15.4 9.4,19.1 4,3.7 8.5,7.9 2.7,7.4 -5.8,-0.4 -16.1,-5.4 -13.4,-1.6 2.7001,3.7 22.6,18.7 18.9,19.3 -3.7,0.6 -16.7,-2.9 -16.7,-2.9 0,0 11.5,16.7 15.2,19.2 3.6,2.5 8.1,4.7 4.1,5.5 -4,0.7 -16.4,-2.3 -16.4,-2.3 0,0 9.4,16.7 22.2,24.5 1.6,1 -10.7,1.2 -16.5,0 -5.7999,-1.2 -8.0999,-2.5 -7.5999,0 0.5,2.5 21.8999,12.1 30.3999,17.5 5.9,3.7 -26.3999,-1 -28.3999,0 -2.2001,1.1 18.5999,17 37.1999,18.9 5.6001,0.6 -9.6999,4.9 -20.8999,7.4 -11.1001,2.1 -29.1001,-0.4 -29.1,-0.4 z"
       id="path4171"
       style="clip-rule:evenodd;fill:#219959;fill-rule:evenodd" /><path
       class="st12"
       d="m 1219.4738,431.10971 c -0.1999,-9.6 0.7001,-28.4 0.7001,-28.4 l -14.2001,-14.2 1.9001,-2.4 c 0,0 1.5,0.3 5.3,3.3 3.7999,2.9 8.6,5.8 8.6,5.8 0,0 0.2999,-16.4 0.6,-20.2 0.5,-7 -1.9001,-9.2 -1.9001,-9.2 0,0 -2.0999,-1.6 -5.0999,-3.8 -3,-2.2 -5.4001,-4.2 -5.4001,-4.2 l 2.4001,-2.6 c 0,0 3.3,1.6 5.9,3.3 2.2999,1.5 4.6999,0.2 4.6999,0.2 0,0 0.1001,-2 0.3001,-8.1 0.1999,-5.6 1.1,-12.7 0.1,-15.7 -0.9001,-3 -6.9001,-12.3 -6.9001,-12.3 l 1.6001,-2.9 c 0,0 1.5,1 2.8999,3.1 1.4001,2.1 5.5,7.3 5.5,7.3 0,0 1.7001,-4 3.8001,-8 2.6,-4.9 1.1999,-5.6 4,-4.8 3,0.8 2.1,1.2 0.6999,5.2 -1.5999,4.4 -2.1999,6.1 -3.2999,8.6 -0.9,1.9 -0.2001,30.1 -0.2001,30.1 0,0 -0.1999,18.4 0.5,18.7 3.3001,1.2 12.7001,-1 12.7001,-1 l -0.1,2.8 -13,4.2 -0.3,31.5 c 0,0 4.4,-0.2 6.8,-1.3 2.3999,-1.2 2.8,-0.8 2.8,-0.8 l 1,2.5 c 0,0 -2.7,2.3 -5.1,2.8 -1.7001,0.4 -4.2001,1.1 -5.5,1.4 l 1.6,62.5 -14.2,-0.5 c -0.2001,0.1 1,-43.6 0.7999,-52.9 z"
       id="path4173"
       style="fill:#814114;stroke:none" /><path
       class="st13"
       d="m 1225.6739,490.00971 c 1.9,3.9 8.1,8 14.4,3.3 5.7,-4.3 4.2,-10.1 0.8999,-13.6 -3.3999,-3.7 -8.6999,-4 -12.5999,-1.2 -4,2.8 -4.3,8.3 -2.7,11.5 z"
       id="path4175"
       style="fill:#f8efe6" /><path
       class="st3"
       d="m 1231.3739,480.60971 c 0,0 -2.1,2.3 -1.6,3.9 0.4,1.6 1.5,1.9 1.5,1.9 0,0 -0.1,-1.1 0.2999,-2.4 0.3001,-1.3 1.6001,-2.2 1.6001,-2.2 z"
       id="path4177"
       style="fill:#ffffff;stroke:none" /><path
       class="st13"
       d="m 1178.1739,491.80971 c 2,2.9 7.6,5.5 12.1,1 3.7,-3.8 2.2,-8.6 -0.9,-11.2 -3.2,-2.6 -7.5,-2.2 -10.4,0.5 -2.8,2.8 -2.4,7.3 -0.8,9.7 z"
       id="path4179"
       style="fill:#f8efe6" /><path
       class="st3"
       d="m 1180.8739,483.80971 c 0,0 -1.4001,2.1 -0.9001,3.3 0.6001,1.2 1.4001,1.3 1.4001,1.3 0,0 -0.2,-0.9 -0.1,-2 0.1,-1.1 1,-2 1,-2 z"
       id="path4181"
       style="fill:#ffffff;stroke:none" /><path
       class="st9"
       d="m 1093.1739,446.30971 c -6,0 -27.9,-8.2 -34.3,-25.6 -6.4,-17.4 -1.2,-55.1 3,-71 4.2,-15.9 31.1,-93.4 31.1,-93.4 0,0 8.3,17.7 15.3,29.8 7,12 27.9,60.1 31.9,78.2 4,18.1 4.2,50.4 -6.2001,64.4 -13.2999,17.6 -23.5,14.3 -40.7999,17.6 z"
       id="path4183"
       style="clip-rule:evenodd;fill:#1b8a4f;fill-rule:evenodd;stroke:none" /><path
       class="st16"
       d="m 1094.7739,489.10971 c 0,0 0.3,-22.2 0.3,-31.4 0,-9.1 1.5,-27.1 -0.3,-28.4 -1.9,-1.3 -5.6,-2.2 -10,-4.1 -4.4,-1.9 -9.7,-2.6 -13.4,-2.9 -3.7,-0.3 -4.2,-0.4 -4.2,-0.4 l 0.7999,-4 c 0,0 0.6001,-0.2 3.7001,0 3.1,0.2 4,0.4 5.5,0.5 2.9,0.3 4.7,1.6 4.6,0 -0.1,-1.7 -0.6,-8.4 0.9,-7.8 1.5,0.7 2.5,0.9 2.5,0.9 0,0 0.9,2.7 1.1,4.9 0.2,2.7 0.1,3.5 0.1,3.5 0,0 3.6,1.2 5.7,1.7 1.9,0.4 2.5,0.1 2.5,-3.8 0,-5.3 1.2,-18.9 0.3,-22.3 -0.9,-3.4 -2.9,-5.1 -5.6,-6.1 -1.8,-0.7 -6.2,-1.6 -9.4,-3.1 -3.1,-1.5 -5.3,-1.5 -5.3,-1.5 l 0.3,-3 c 0,0 4.4,0.7 5.8,1.3 1.5,0.5 6.6,2.2 6.6,2.2 0,0 -2.6,-6.3 -2.6,-7.1 0,-0.8 -0.3,-4.5 -0.3,-4.5 h 2.4 l 0.7,3.9 h 4.6 l 0.9,1.4 -3.7,1.6 2.1,4.8 4.1,1.6 c 0,0 -0.6,-16.2 -1.2,-21.5 l -0.6,-5.3 c 0,0 -4,-2.1 -6.1,-3.1 -2.2,-0.9 -7.6001,-2.5 -7.6001,-2.5 l 0.1001,-2.9 7.3999,2.3 c 0,0 -1.0999,-1.1 -2,-2.9 -0.8999,-1.7 -0.1999,-1.7 -0.1999,-1.7 l 2.1,-0.7 6,7.6 c 0,0 -0.3,-21.7 -0.6,-23.7 -0.3001,-2 -8,-7.9 -8,-7.9 l 1.1,-1.6 1.5999,0.7 c 3.4001,1.9 5.5,4.1 6.5,4.5 0.9001,0.4 8.2001,-14.7 9.8001,-15.6 l 1.6,-0.9 c 3.0999,1.5 2.5,3.4 2.5,3.4 0,0 -2.3,2.1 -4.1,4.9 -1.8001,2.8 -2.5,3.8 -2.5,3.8 l 5,4.4 -0.9,1.4 c 0,0 -4.2,-4 -5.3,-3.8 -0.8,0.2 -1.5,6.6 -1.5,6.6 0,0 2.8,15 2.8,19.1 0,4.1 1.0999,9 2.4,10.1 1.2999,1.1 2.7999,0 2.7999,0 l -1.8999,-5.5 h 3.2 l 2.7,5.5 c 0,0 8,-3.8 9.8,-4.8 1.9,-0.9 4.5999,3.5 4.5999,3.5 0,0 -1.1999,0.5 -3.6999,1.2 -2.5,0.8 -8.6,2.4 -11.4,3.6 -2.8,1.2 -6.2,3.4 -6.2,4.6 0,2.2 1.2999,20.7 1.7,25.6 0.4,4.9 0.2,14.8 0.2,14.8 0,0 4.2,-2.8 7.5,-4.9 3.3,-2.1 8.2,-5 8.2,-5 l 1.2,2 -4.9,4.6 c 0,0 0.9,2.2 1.9,2.9 l 0.9,0.7 -1.9,2.2 c 0,0 -2.1,-1.8 -2.9,-2.9 l -0.8,-1.1 -8.9,8.7 2.8,71.2 z"
       id="path4185"
       style="clip-rule:evenodd;fill:#814114;fill-rule:evenodd" /><path
       class="st13"
       d="m 1069.9738,495.80971 c 2,2.9 7.6001,5.5 12.1001,1 3.7,-3.8 2.2,-8.6 -0.9,-11.2 -3.2001,-2.6 -7.5,-2.2 -10.4,0.5 -2.9,2.8 -2.5,7.3 -0.8001,9.7 z"
       id="path4187"
       style="fill:#f8efe6" /><path
       class="st3"
       d="m 1072.6739,487.80971 c 0,0 -1.4,2.1 -0.9,3.3 0.6,1.2 1.4,1.3 1.4,1.3 0,0 -0.2001,-0.9 -0.1,-2 0.1,-1.1 1,-2 1,-2 z"
       id="path4189"
       style="fill:#ffffff;stroke:none" /><path
       class="st14"
       d="m 1083.4738,492.10971 c 2.5,3.6 9.3001,6.7 14.7001,1.2 4.6,-4.6 2.7,-10.6 -1.1,-13.6 -3.9,-3.1 -9.2,-2.7 -12.7,0.7 -3.4001,3.2 -3,8.7 -0.9001,11.7 z"
       id="path4191"
       style="fill:#efe6de;stroke:none" /><path
       class="st3"
       d="m 1086.7739,482.30971 c 0,0 -1.7,2.6 -1.1,4.1 0.7,1.5 1.7,1.6 1.7,1.6 0,0 -0.2,-1.1 -0.1,-2.4 0.1,-1.4 1.3,-2.4 1.3,-2.4 z"
       id="path4193"
       style="fill:#ffffff;stroke:none" /><path
       class="st13"
       d="m 1129.1739,491.60971 c 1.9,3.9 8.1,8 14.4,3.3 5.7,-4.3 4.2,-10.1 0.8999,-13.6 -3.3999,-3.7 -8.6999,-4 -12.5999,-1.2 -3.9001,2.8 -4.3,8.3 -2.7,11.5 z"
       id="path4195"
       style="fill:#f8efe6" /><path
       class="st3"
       d="m 1134.8739,482.20971 c 0,0 -2.1,2.3 -1.6,3.9 0.5,1.6 1.5,1.9 1.5,1.9 0,0 -0.1,-1.1 0.2999,-2.4 0.3001,-1.3 1.6001,-2.2 1.6001,-2.2 z"
       id="path4197"
       style="fill:#ffffff;stroke:none" /><path
       class="st17"
       d="m 1157.7739,322.50971 c -7.6,-0.3 -22.7,2.3 -34.8,10.8 -14.3,10 -18.3,16.6 -22,33.5 -3.7,16.9 1.5,30.1 9.2,41.6 7.7,11.5 12.7,23.5 48,29.2 19.9,3.2 52.3,-9.4 58.2,-35.7 5.9,-26.3 -1.1,-44.6 -7.8,-51.4 -6.6,-6.9 -17.5,-26.9 -50.8,-28 z"
       id="path4199"
       style="fill:#2fac66" /><path
       class="st8"
       d="m 1114.6739,372.40971 9,5.1 c 0,0 4.5,0.9 6.9,1.3 2.2,0.4 7.6,1.5 7.6,1.5 l 1.9,-9.9 h 2.1 c 0,0 -1.2001,10.1 0,10.9 1,0.6 7.6,2.7 11.7,3.7 0.9,-9.2 2,-19.4 2,-20.6 0,-1.2 -3.2,-3.2 -5.8,-4.4 -2.6,-1.1 -8.4,-2.6 -10.7,-3.4 -2.3,-0.7 -3.5,-1.2 -3.5,-1.2 0,0 2.6,-4.2 4.3,-3.3 1.7,0.9 9.2,4.5 9.2,4.5 l 2.6,-5.1 h 3 l -1.8,5.1 c 0,0 1.4,1 2.7,0 1.2,-1 2.2,-5.6 2.2,-9.5 0,-3.9 0,-5.6 0,-5.6 -1.1,-0.2 -5.5,1.9 -5.5,1.9 l -0.9,-1.3 5.4,-3.4 c 0,0 -1.3,-1.7 -3,-4.3 -1.7,-2.6 -1.6,-2.5 1.3,-3.9 0,0 1.9,2.8 3.3,5.1 0.9,1.5 3.6,6.4 4.6,6.5 1,0.2 1.3,-0.1 3.9,-1 l 2.4,-0.6 1,2.1 c 0,0 -5.8,1.6 -6.1,3.5 -0.3,1.9 -0.6,16.5 -0.6,16.5 l 5.6,-7.1 2,0.6 c 0,0 0.7,0 -0.1,1.6 -0.9,1.6 -1.9,2.7 -1.9,2.7 l 6.9,-2.2 0.1,2.7 c 0,0 -5.1,1.4 -7.1,2.3 -2,0.9 -5.8,2.9 -5.8,2.9 l -0.6,4.9 c -0.6,4.9 -1.2,20.2 -1.2,20.2 l 7.3,-2.7 2,-4.5 -3.5,-1.5 0.8999,-1.3 h 4.3001 l 3.5,-5.2 2.1999,1.1 c 0,0 -3.0999,3.9 -3.0999,4.7 0,0.8 -2.5,6.7 -2.5,6.7 0,0 4.9,-1.6 6.2,-2.1 1.3999,-0.5 18.2,-4.3 18.2,-4.3 l 0.3,3.9 c 0,0 -10.7,3.8 -13.7,5.2 -0.1,0.1 -0.3,0.1 -0.4001,0.2 0.2001,0.2 0.5,0.3 0.7001,0.6 2.5,2.2 6.2999,3.5 6.2999,3.5 l -1.3999,3.5 c 0,0 -6.7,-4.2 -9.7,-6.1 -1.7,0.5 -7.4001,2.6 -8.3,3 -2.6001,1 -7.9,3.1 -8.8,6.3 -0.9,3.2 0.3,13 0.3,18.1 0,3.7 0.6,3.9 2.3999,3.6 2,-0.4 5.4001,-1.6 5.4001,-1.6 0,0 -0.1,-0.8 0.1,-3.3 0.2001,-2.1 1,-4.6 1,-4.6 l 2.3001,-0.9 c 0.4,1.3 0.5,3.9 0.4,5.5 -0.1001,1.6 3.7999,0.7 5.6,-0.3 1.2999,-0.7 4.1999,-2.4 8.4,-3.8 2.7,-1 6.5,-2 6.5,-2 l 1.3999,3.4 c 0,0 -5.7999,2.1 -9.7999,4.3 -0.4,0.2 -0.8001,0.4 -1.2001,0.7 l 5.1001,1.1 -1.3,2.3 c -0.3,-0.1 -1.6,-0.1 -3.2,-0.7 -1.8,-0.6 -3.5,-0.7 -4.4,-1 -3.4,1.5 -6.1,2.5 -9.4,4 -4.1,1.9 -7.7,2.6 -9.4001,3.8 -1.6999,1.2 -0.2999,36.9 -0.2999,45.4 0,8.6 0.2999,17.7 0.2999,17.7 h -13.2999 l 2.6,-73.8 -10.7,-9.3 -0.7,1 c -0.7,1 -2.7,2.8 -2.7,2.8 l -1.7001,-2.1 0.9001,-0.7 c 0.8999,-0.7 1.6999,-2.8 1.6999,-2.8 l -4.6,-4.3 1.2001,-1.9 c 0,0 4.6,2.8 7.7,4.7 0.1,0.1 0.2,0.1 0.3,0.2 v -9.1 c 0,0 -0.6001,-1.9 0,-2.2 0.6,-0.3 1.7,0 1.7,0 0,0 0.4,1.8 0.7,3.9 0.3,1.6 0.8999,7.1 1.2,9.7 2.7,1.7 5.4,3.3 5.4,3.3 0,0 -0.2001,-9.3 0.1,-13.9 0.1,-1.2 0.3,-3.8 0.7,-7.2 -5.1,-1.6 -13,-4.6 -17.5,-5.8 -5.8,-1.6 -7.1,-3 -8.9,-2 -1.9,0.9 -1.7,9 -2.3,9.9 l -2.5,-0.9 v -5.4 h -5.2 l -0.8,-1.8 6.1,-0.9 v -5.4 c 0,0 -8.2,-4.3 -8.4,-5.3 -0.2,-1.2 1.2,-2.2 1.2,-2.2 z"
       id="path4201"
       style="fill:#a85318" /><path
       class="st14"
       d="m 1144.2739,494.90971 c 1.6,2.9 6.5,5.7 11,1.9 4.2,-3.5 2.7,-7.8 0.1,-10.3 -2.7,-2.6 -6.7,-2.6 -9.6,-0.3 -2.9,2.2 -2.9,6.3 -1.5,8.7 z"
       id="path4203"
       style="fill:#efe6de;stroke:none" /><path
       class="st3"
       d="m 1147.3739,487.80971 c 0,0 -1.5,1.8 -1.1,3 0.4,1.2 1.1999,1.3 1.1999,1.3 0,0 -0.1,-0.8 0.1001,-1.8 0.2,-1 1.1,-1.7 1.1,-1.7 z"
       id="path4205"
       style="fill:#ffffff;stroke:none" /><path
       class="st1"
       d="m 1001.9738,380.10971 c 0,0 -1,17.3 -1.6,22.4 -0.69995,5.6 -1.19995,10 -2.49995,13.3 -2.3,6.2 -9,12.1 -9,12.1 0,0 6.1,1.6 10.2,-2.4 4.10005,-4 6.10005,-6.9 6.10005,-6.9 0,0 -2.6001,10.9 -5.20005,13.8 -3.1,3.4 -8.6,4.9 -8.6,4.9 0,0 4.4,3.3 10.49995,0.4 6.1,-2.9 10.4,-6.5 10.4,-6.5 l 27.6001,-0.7 c 0,0 2.3,10.7 5.2,13.3 3.2,2.8 10.1,3 10.1,3 0,0 -5.1,-3.6 -6.9,-7.9 -1.8,-4.2 -0.3,-8.8 -0.3,-8.8 0,0 2.8,6 7.3,8.8 4.5,2.9 10.6,2.1 10.6,2.1 0,0 -8.1,-6 -9.5,-9.8 -1.5,-3.8 -0.7,-6.8 -0.7,-6.8 0,0 3.7,7 6.9,8.3 3.3,1.3 7.1,-0.3 7.1,-0.3 0,0 -4.4,-4.5 -6.6,-8.8 -4.5,-9.1 -4.8,-39.4 -8.1001,-42.1 -3.2999,-2.7 -14.3999,-13.5 -29.0999,-10.4 -14.9001,3.2 -23.9001,9 -23.9001,9 z"
       id="path4207"
       style="fill:#f39200" /><path
       class="st18"
       d="m 1014.0738,471.90971 c -1.2,0.3 -1,-1.3 -1.3999,-3.4 -0.3,2.2 -1.4,4.3 -3.2001,3.6 -1.1,-0.4 0.3,-2.9 1,-4.6 -0.7999,1 -2.2,2.4 -3.5,2.2 -1.2999,-0.1 -0.4,-2.8 1.3,-5 -5.3,-0.7 -1.6,-3.6 1.9,-2.7 3.7,-6.4 4.4,-18 4.3,-21.2 0,0 -0.6,-5.4 -0.6,-5.5 0.3,-1.8 5.5,-1.9 5.6,0 0.7,13 -0.1,22.5 -4.6,27.5 1.1,3.5 0.7,8.8 -0.8,9.1 z"
       id="path4209"
       style="fill:#e4d5b8" /><path
       class="st17"
       d="m 1020.5738,424.50971 c 0,0 0.8,-3.5 -3.2,-4.1 -4,-0.6 -8.5,3.6 -6.9,9.5 1,3.5 2.5,6.5 2.5,6.5 l 6.5,-0.1 z"
       id="path4211"
       style="fill:#2fac66" /><path
       class="st19"
       d="m 1041.3739,411.90971 h -22.2001 v 28.1 h 22.2001 z"
       id="path4213"
       style="fill:#d5c2a2" /><path
       class="st20"
       d="m 1044.7739,441.40971 c 0.7,7.2 2.5,15.5 2.5,15.5 0,0 -9.7,-1.2 -17.3,-0.8 -7.7,0.4 -12.3,0.8 -12.3,0.8 0,0 0.5,-9.6 0.2,-14.9 -0.4,-6.8 0.2,-11 1,-15.1 5.4,-1.6 11.3,3.9 11.3,3.9 0,0 4.9,-5.2 11.6,-5.7 1.8,6.3 2.4,9.7 3,16.3 z"
       id="path4215"
       style="fill:#b780b1" /><path
       class="st20"
       d="m 1047.9738,456.30971 c 0,0 7.1001,10.9 14.4001,26.3 7.8,16.5 17,43.5 17.5999,44.5 -6.2999,3.8 -17.5999,7.5 -43.3999,7.7 -33.8,0.3 -47.00005,-5.1 -47.00005,-5.1 0,0 7.2,-24.5 13.79995,-39.7 7.1,-16.4 14.3,-32 14.3,-32 z"
       id="path4217"
       style="fill:#b780b1" /><path
       class="st17"
       d="m 1032.0739,458.80971 c 0,0 -2.6001,27.9 34.7,27.9 0,0 -1.2,-9.1 -6.8,-17.4 -4.5,-6.7 -11.1,-12.9 -11.1,-12.9 z"
       id="path4219"
       style="fill:#2fac66" /><path
       class="st17"
       d="m 1027.1739,459.00971 c 0,0 5.9,26.3 -25,31.1 0,0 1.3999,-7.5 5.6,-16.9 3.2999,-7.4 9.7,-15.1 9.7,-15.1 z"
       id="path4221"
       style="fill:#2fac66" /><path
       class="st11"
       d="m 1046.8739,452.00971 c 0,0 -2.6,1.5 -11.2,2.2 -8.6001,0.7 -13.8001,0.2 -17.9001,-0.4 l -0.3,4.4 c 0,0 11.1001,1.4 16,1 11.5,-1 15.4001,-2.7 15.4001,-2.7 z"
       id="path4223"
       style="fill:#1b8a4f" /><path
       class="st21"
       d="m 1050.4738,486.70971 c 0,0 3.5,8.7 6,17.5 2.9001,10.2 4.4001,17.2 4.4001,17.2"
       id="path4225"
       style="fill:none;stroke:#85557c;stroke-width:0.569;stroke-linecap:round" /><path
       class="st21"
       d="m 1029.0739,524.60971 c 0,0 4.2,-27.1 2.8,-46.1"
       id="path4227"
       style="fill:none;stroke:#85557c;stroke-width:0.569;stroke-linecap:round" /><path
       class="st21"
       d="m 1015.9738,489.80971 c 0,0 -2.6,7.7 -4.2,14.8 -2.1,9.1 -3.6,18.5 -3.6,18.5"
       id="path4229"
       style="fill:none;stroke:#85557c;stroke-width:0.569;stroke-linecap:round" /><path
       class="st18"
       d="m 1044.2739,433.10971 c 0,0 -0.5,21.4 7.8,32.5 3.3999,4.5 4.8999,6.8 6.1,6.1 1.1,-0.7 -2,-4.4 -2,-4.4 0,0 4.2999,4.6 5.2,2.8 1,-1.8 -3,-4.9 -3,-4.9 0,0 5.9,2.9 5.5,0.9 -0.4,-2.1 -4.8,-3.8 -4.8,-3.8 0,0 3.4,-1.6 1.7,-3 -1.5,-1.3 -5.1,1.2 -5.1,1.2 0,0 -3.1,-3.3 -3.9,-8.5 -0.7,-5.2 -2.2,-20.3 -2.2,-20.3 z"
       id="path4231"
       style="fill:#e4d5b8" /><path
       class="st17"
       d="m 1040.6739,422.70971 c 0,0 -1.2001,-3.4 2.7,-4.5 3.9,-1.1 8.8,2.6 7.9,8.6 -0.6,3.6 -0.3,6 -0.3,6 l -7.2,1.4 z"
       id="path4233"
       style="fill:#2fac66" /><path
       d="m 1033.2739,410.10971 c 0,0 -0.3,4.7 -4,5.1 -2.1,0.2 -3.9,-2.5 -4.2,-2.8 6.2,-0.5 8.2,-2.3 8.2,-2.3 z"
       id="path4235" /><path
       class="st22"
       d="m 1044.7739,369.60971 2.5,-16.3 c 0,0 -6.4,8.2 -9.3,6.2 -2.9,-2 -4,-7.8 -4,-7.8 0,0 -3.3,8.5 -6.1,7.8 -2.8,-0.7 -5.1,-9 -5.1,-9 0,0 1.2,8.1 -3.3,8.4 -4.4,0.2 -9.3,-6.2 -9.3,-6.2 l 3.9,15.9 c 0,0 10.4,-1.2 17.4,-1 6.9,0.1 13.3,2 13.3,2 z"
       id="path4237"
       style="fill:#ffde00" /><path
       class="st18"
       d="m 1049.6739,375.20971 c 0,0 5.2999,16.1 3.2999,27.9 -2.7999,16.1 -17,22.4 -28.3999,19.9 -17.3,-3.8 -19.5001,-20.2 -20.1001,-27.9 -0.9,-10.4 5.3,-21.6 5.3,-21.6 0,0 8.8,-2.9 17.6001,-5.4 8.8,-2.5 22.3,7.1 22.3,7.1 z"
       id="path4239"
       style="fill:#e4d5b8" /><path
       class="st23"
       d="m 1004.0738,405.50971 c -0.2,2.8 1.9,5.3 4.7001,5.5 2.7999,0.2 5.2999,-1.9 5.5,-4.7 0.2,-2.8 -1.9,-5.3 -4.7001,-5.5 -2.7999,-0.2 -5.2999,1.9 -5.5,4.7 z"
       id="path4241"
       style="fill:#f3a5c2" /><path
       class="st24"
       d="m 1025.6739,395.50971 c 0,0 -2.2001,2 -4.3,3.4 -1.3,0.9 -2.8,3.2 0.9,4.2 3.7,1 4.6,-0.2 4.6,-0.2"
       id="path4243"
       style="fill:none;stroke:#000000;stroke-width:0.432;stroke-linecap:round" /><path
       class="st25"
       d="m 1013.6739,386.70971 c 3.2999,0.2 5.2,2.2 5.2,5.4 0,3.3 -2.1,5.7 -4.9,5.7 -3.1,0.1 -5.6,-2.5 -5.3,-5.7 0.3,-3.2 1.9,-5.6 5,-5.4 z"
       id="path4245"
       style="clip-rule:evenodd;fill:#ffffff;fill-rule:evenodd" /><path
       class="st26"
       d="m 1011.8738,390.20971 c 0.6,0 0.9,0.4 0.9,1 0,0.6 -0.3,1 -0.9,1 -0.6,0 -1,-0.4 -1,-1 -0.1,-0.6 0.4,-1 1,-1 z"
       id="path4247"
       style="clip-rule:evenodd;fill-rule:evenodd" /><path
       class="st25"
       d="m 1038.4738,386.70971 c 3.4001,0.6 5.1001,2.8 4.8001,6.2 -0.4,3.4 -2.5,5.7 -5.7001,5.4 -3.1999,-0.3 -5.1999,-3.1 -4.8999,-6.5 0.2999,-3.4 2.6,-5.6 5.7999,-5.1 z"
       id="path4249"
       style="clip-rule:evenodd;fill:#ffffff;fill-rule:evenodd" /><path
       class="st26"
       d="m 1035.9738,390.40971 c 0.6001,0.1 0.8001,0.5 0.8001,1.1 -0.1,0.6 -0.5,1 -1.1,0.9 -0.6001,-0.1 -1,-0.6 -0.9,-1.1 0.1,-0.6 0.6,-1 1.1999,-0.9 z"
       id="path4251"
       style="clip-rule:evenodd;fill-rule:evenodd" /><path
       class="st24"
       d="m 1029.4738,412.50971 c 0,0 -1.7999,-1.6 -3.5,-1.9 -2.9,-0.4 -3.6,0.7 -3.6,0.7"
       id="path4253"
       style="fill:none;stroke:#000000;stroke-width:0.432;stroke-linecap:round" /><path
       class="st1"
       d="m 1038.6739,376.10971 c 0,0 -4.1,5.5 -7,7.3 -2.9,1.8 -7.1,3.1 -4.7001,-1.2 2.5,-4.2 1.6001,-4.2 1.6001,-4.2 0,0 -14.0001,10.3 -15.2001,7 -0.9,-2.5 4.3,-6.8 4.3,-6.8 0,0 -13.6,9 -17.1,8.2 -2.89995,-0.7 2,-9.3 5.5,-12.6 3.3,-3.2 5.4,-4.3 7.9,-5.4 5.8,-2.7 15.9001,-4.3 25.6,-1.9 9.7001,2.4 19.4,15.2 18,17.7 -1.3999,2.5 -12.1999,-5.4 -12.1999,-5.4 0,0 5.0999,8.7 0.5,7.2 -4.5,-1.4 -7.2001,-9.9 -7.2,-9.9 z"
       id="path4255"
       style="fill:#f39200" /><path
       class="st23"
       d="m 1039.2739,404.30971 c -0.2,2.8 1.9,5.3 4.7,5.5 2.8,0.2 5.3,-1.9 5.5,-4.7 0.2,-2.8 -1.9,-5.3 -4.7,-5.5 -2.7,-0.2 -5.2,1.9 -5.5,4.7 z"
       id="path4257"
       style="fill:#f3a5c2" /><path
       class="st27"
       d="m 1033.8739,352.40971 c 0,-0.3 4.8,-6.1 3.3,-7.1 -1.6001,-1 -2.9,1.2 -2.9,1.2 0,0 -1.3001,-2.6 -2.9,-1.9 -1.9001,0.8 2.5,7.8 2.5,7.8 z"
       id="path4259"
       style="fill:#e30613;stroke:none" /><path
       class="st27"
       d="m 1046.6739,354.50971 c 0.1,-0.3 6,-5 4.7,-6.3 -1.3,-1.3 -3,0.5 -3,0.5 0,0 -0.7,-2.8 -2.4,-2.4 -2.2,0.5 0.7,8.2 0.7,8.2 z"
       id="path4261"
       style="fill:#e30613;stroke:none" /><path
       class="st27"
       d="m 1022.9738,352.40971 c -0.1,-0.2 2.8001,-7.3 1,-7.8 -1.7999,-0.5 -2.4,2 -2.4,2 0,0 -2,-2.1 -3.2999,-1 -1.5,1.4 4.7,6.8 4.6999,6.8 z"
       id="path4263"
       style="fill:#e30613;stroke:none" /><path
       class="st27"
       d="m 1010.7739,354.10971 c -0.1,-0.2 1.7999,-7.6 -0.1,-7.8 -1.9,-0.2 -2.1001,2.3 -2.1001,2.3 0,0 -2.2999,-1.8 -3.3999,-0.5 -1.3,1.6 5.6,6 5.6,6 z"
       id="path4265"
       style="fill:#e30613;stroke:none" /></g></g>





































































































































































</svg>
