<?xml version="1.0" encoding="utf-8"?>
<!-- Generator: Adobe Illustrator 26.2.1, SVG Export Plug-In . SVG Version: 6.00 Build 0)  -->
<svg version="1.1"
	 id="Layer_1" xmlns:inkscape="http://www.inkscape.org/namespaces/inkscape" xmlns:sodipodi="http://sodipodi.sourceforge.net/DTD/sodipodi-0.dtd" xmlns:svg="http://www.w3.org/2000/svg"
	 xmlns="http://www.w3.org/2000/svg" xmlns:xlink="http://www.w3.org/1999/xlink" x="0px" y="0px" viewBox="0 0 743 296"
	 style="enable-background:new 0 0 743 296;" xml:space="preserve">
<style type="text/css">
	.st0{fill:#A25625;}
	.st1{fill:#DAD8CC;}
	.st2{fill:#B780B1;}
	.st3{fill:#F39200;}
	.st4{fill:#E4D5B8;}
	.st5{fill:#2FAC66;}
	.st6{fill:#D5C2A2;}
	.st7{fill:#1B8A4F;}
	.st8{fill:#FFDE00;}
	.st9{fill:#F3A5C2;}
	.st10{fill:none;stroke:#000000;stroke-width:0.526;stroke-linecap:round;}
	.st11{fill:#E30613;}
	.st12{fill:none;stroke:#B780B1;stroke-width:0.511;stroke-dasharray:1.53,1.53;}
	.st13{fill:#FFFFFF;}
	.st14{fill:#814114;}
	.st15{fill:#121212;fill-opacity:0.43;}
	.st16{fill:#007572;}
	.st17{fill:#B91919;}
	.st18{fill:none;stroke:#007572;stroke-width:0.808;stroke-linecap:round;}
	.st19{fill:#00A0A4;}
	.st20{fill:none;stroke:#B9B5A3;stroke-width:0.538;stroke-linecap:round;stroke-linejoin:round;stroke-miterlimit:10;}
	.st21{fill:none;stroke:#000000;stroke-width:0.778;stroke-linecap:round;}
	.st22{fill-rule:evenodd;clip-rule:evenodd;fill:#FFFFFF;}
	.st23{fill-rule:evenodd;clip-rule:evenodd;}
	.st24{opacity:0.6;}
	.st25{opacity:0.6;fill:#6F6C5F;enable-background:new    ;}
	.st26{fill:none;stroke:#000000;stroke-width:0.5134;stroke-linecap:round;stroke-linejoin:round;stroke-miterlimit:10;}
</style>
<sodipodi:namedview  bordercolor="#000000" borderopacity="0.25" id="namedview3215" inkscape:current-layer="Layer_1" inkscape:cx="486.5" inkscape:cy="148.3624" inkscape:deskcolor="#d1d1d1" inkscape:pagecheckerboard="0" inkscape:pageopacity="0.0" inkscape:showpageshadow="2" inkscape:window-height="1018" inkscape:window-maximized="1" inkscape:window-width="1920" inkscape:window-x="-8" inkscape:window-y="-8" inkscape:zoom="1.2435766" pagecolor="#ffffff" showgrid="false">
	</sodipodi:namedview>
<path id="path2976" class="st0" d="M24.3,297.2c0,0-0.7-110.5,53.5-121s573-1.3,604.8,2.7c31.8,4,45.6,118.3,45.6,118.3l0,0H24.3z"
	/>
<path id="path2978" class="st1" d="M382.4,142.6l190-28.6c0,0-1.5-55.6,0-81.6c0.1-2.6,10.5-2.6,10.7,0c1.1,16,0,31,0,31
	s13.9-33,47.2-20.5c24.5,9.2,41.3,45.1,41.3,45.1s0.3-20.7,0-28.4c-0.2-5.6,12-4.6,12-1.7c0.5,31.9,0,123.6,0,126.9
	c0,0,0.5,39.6,0,51.6c-0.1,2.9-11.9,2.9-12,0c-0.2-9.9,0-32.7,0-32.7l-225.4,19.7c0,0,0.9,18.8,1.3,28.7c0.1,3-11.2,4.6-12.2-1
	c-1.5-8.5-2.5-26.8-2.5-26.8l-0.2-2.4l-43.4-45.5c0,0,1,5.2,0.8,17.4c0,2.6-10.6,0.2-10.6-2.4c0-14.2-1.5-45.1-1.5-45.1L382.4,142.6
	z"/>
<path id="path2980" class="st2" d="M578.6,91.3c0,0-15.5-9.4-35.1,0.4c-13.6,6.8-13.6,16.6-13.6,16.6s-138.2,12.2-146.1,20.5
	c-8,8.4-4.2,21.3-4.2,21.3s47.5,42.9,56.9,56.3c8,3.8,232.7-18.3,232.7-18.3s9.2-34.7-3-48.4C657.3,130,578.6,91.3,578.6,91.3
	L578.6,91.3z"/>
<path id="path2982" class="st3" d="M568.3,88.4c0,0-11.3,10.7-14.7,13.6c-3.9,3.3-7,5.8-9.8,7.1c-5.3,2.6-13.3,2.3-13.3,2.3
	s3,4.8,8.1,4.7c5.1-0.1,8.2-0.7,8.2-0.7s-8.4,5.5-11.9,5.8c-4.1,0.3-8.6-2.1-8.6-2.1s0.8,4.9,6.6,6.8c5.7,1.9,10.8,2.2,10.8,2.2
	l18.4,16.5c0,0-5.1,8.4-4.8,11.8c0.4,3.8,4.7,8.2,4.7,8.2s-1.1-5.5,0.3-9.4c1.4-3.9,5.3-5.9,5.3-5.9s-1.8,5.6-0.7,10.2
	c1.2,4.6,5.6,7.8,5.6,7.8s-1.6-8.9-0.2-12.2c1.4-3.3,3.7-4.8,3.7-4.8s-1.9,6.8-0.7,9.7c1.3,2.9,4.8,4.1,4.8,4.1s-0.1-5.6,1.1-9.8
	c2.6-8.7,21.1-28.6,20.6-32.3c-0.5-3.8-1-17.6-12.5-24.7C577.7,90.2,568.3,88.4,568.3,88.4L568.3,88.4z"/>
<path id="path2984" class="st4" d="M514.4,143.6c-0.8-0.8,0.6-1.3,2-2.6c-1.8,0.8-3.9,0.9-4.2-0.8c-0.2-1,2.4-1.1,4-1.3
	c-1.2-0.2-2.8-0.6-3.3-1.6c-0.5-1.1,2-1.6,4.5-1.3c-1.9-4.4,2.1-2.9,2.9,0.3c6.6,0,15.8-4.8,18.2-6.4c0,0,3.9-2.9,3.9-3
	c1.5-0.5,4,3.4,2.6,4.3c-9.7,6.5-17.3,10.2-23.3,9.1C519.6,142.5,515.3,144.6,514.4,143.6L514.4,143.6z"/>
<path id="path2986" class="st5" d="M551.8,129.4c0,0,3.2-0.1,2.8-3.7c-0.4-3.6-5.1-6.5-9.7-3.8c-2.8,1.7-5,3.6-5,3.6l1.6,5.6
	L551.8,129.4z"/>
<path id="path2988" class="st6" d="M562.8,120l-21.6,12.9l10.2,17.1l21.6-12.9L562.8,120z"/>
<path id="path2990" class="st2" d="M551.9,153.3c-5.3,3.8-10.8,9-10.8,9s-3.5-8-7.3-13.7s-6.2-9.1-6.2-9.1s7.6-4,11.5-6.7
	c5.1-3.4,8.5-4.9,12-6.1c3.7,3.4,1.5,9.4,1.5,9.4s6.9-0.7,10.4,7.4C559,147.7,556.7,149.8,551.9,153.3L551.9,153.3z"/>
<path id="path2992" class="st7" d="M544.7,159.7c0,0-2.4-1.3-6.8-7.6c-4.5-6.3-6.5-10.5-7.9-13.9l-3.5,1.7c0,0,4,9.2,6.6,12.7
	c6,8.4,9.1,10.6,9.1,10.6L544.7,159.7z"/>
<path id="path2994" class="st5" d="M564.4,141.5c0,0,2.1-2.5,4.7,0c2.6,2.6,2.1,8-3,10c-3,1.2-4.7,2.5-4.7,2.5l-4.4-4.9L564.4,141.5
	z"/>
<path id="path2996" class="st8" d="M602.6,107.9l11.6-9.1c0,0-9.2,1.4-9.9-1.7s2.2-7.5,2.2-7.5s-7.3,3.5-8.8,1.3
	c-1.4-2.2,2.2-9.1,2.2-9.1s-4.2,6-7.2,3.4s-2.2-9.7-2.2-9.7l-7.3,12.9c0,0,7.5,5.6,11.9,10C599.5,102.7,602.6,107.9,602.6,107.9
	L602.6,107.9z"/>
<path id="path2998" class="st4" d="M602.3,114.6c0,0-6.5,13.7-15,20.1c-11.7,8.8-24.9,4.1-30.7-4.5c-8.9-13.1-0.2-25.1,4.1-30.5
	c5.8-7.3,16.7-10.8,16.7-10.8s7.5,3.5,14.8,7.3C599.4,100,602.3,114.6,602.3,114.6L602.3,114.6z"/>
<path id="path3000" class="st9" d="M554,106.2c-1.9,1.7-2,4.6-0.3,6.5s4.6,2,6.5,0.4c1.9-1.7,2-4.6,0.4-6.5
	C558.8,104.7,555.9,104.5,554,106.2L554,106.2z"/>
<path id="path3002" class="st10" d="M574.2,113.1c0,0-2.6-0.1-4.9-0.5c-1.4-0.2-3.8,0.4-2,3.3s3.1,2.7,3.1,2.7"/>
<path id="path3004" class="st10" d="M563.5,123c0,0,1.3,1.8,2.7,2.3c2.5,0.9,3.3,0.1,3.3,0.1"/>
<path id="path3006" class="st3" d="M594.6,108.4c0,0-6,1.1-9,0.4c-3-0.6-6.5-2.4-2.3-3.6s3.6-1.7,3.6-1.7s-15.4-1.9-14.2-4.8
	c1-2.1,7-1.8,7-1.8s-14.4-2.5-16.1-5.2c-1.4-2.2,7-4.8,11.3-4.8c4.1,0,6.1,0.6,8.4,1.3c5.5,1.8,13,7,17.8,14.5
	c4.9,7.5,3.2,21.8,0.8,22.6c-2.5,0.8-4.6-11.1-4.6-11.1s-2,8.8-4.1,5C591.1,115.5,594.6,108.4,594.6,108.4L594.6,108.4z"/>
<path id="path3008" class="st9" d="M577.7,127.2c-1.9,1.7-2,4.6-0.3,6.5s4.6,2,6.5,0.3s2-4.6,0.3-6.5
	C582.4,125.6,579.5,125.5,577.7,127.2z"/>
<path id="path3010" class="st11" d="M606,90c0.2-0.2,6.9-1,6.5-2.6s-2.6-1-2.6-1s0.7-2.5-0.7-3C607.5,82.8,606,90,606,90z"/>
<path id="path3012" class="st11" d="M613,99.3c0.2-0.1,7,0.5,6.9-1.2s-2.3-1.5-2.3-1.5s1.2-2.3,0-3.1C615.9,92.5,613,99.3,613,99.3
	L613,99.3z"/>
<path id="path3014" class="st11" d="M599,83.3c0.1-0.2,6.3-3,5.4-4.4c-0.9-1.4-2.8-0.2-2.8-0.2s0-2.6-1.5-2.6
	C598.2,76,599,83.3,599,83.3L599,83.3z"/>
<path id="path3016" class="st11" d="M590.3,76.3c0-0.2,5.5-4.4,4.3-5.6s-2.7,0.4-2.7,0.4s-0.6-2.5-2.1-2.2
	C587.9,69.3,590.3,76.3,590.3,76.3z"/>
<path id="path3018" class="st10" d="M564.3,100.4c0,0,0,2,2.2,3.6c2.3,1.6,4.2,2.1,4.2,2.1"/>
<path id="path3020" class="st10" d="M564.4,102.1l-1.3,0.3"/>
<path id="path3022" class="st10" d="M566.1,104.1l-0.5,1.1"/>
<path id="path3024" class="st10" d="M569.4,105.5l-0.6,1.3"/>
<path id="path3026" class="st10" d="M589.5,117.2c0,0-1.8,0.7-4.1-0.9s-3.5-3.2-3.5-3.2"/>
<path id="path3028" class="st10" d="M587.8,117.8l0.2,1.3"/>
<path id="path3030" class="st10" d="M585.3,116.8l-0.8,0.9"/>
<path id="path3032" class="st10" d="M582.9,114.3l-1,1"/>
<path id="path3034" class="st5" d="M510.3,107.4c0,0,18.7,9.4,36.7,23.7c12.7,10.1,33.6,26.2,46.5,41.2c6.2,7.2,5.7,29.1,4.5,30.3
	l-160.6,12.7c0,0,0.6-6.2-7.4-13.8c-11.8-11.1-44.1-50.9-58.1-49.3c-2.1-5.5,1.2-16.8,4.7-22.3c3.6-5.4,13-14.5,60-17.1
	C483.5,110.2,510.3,107.4,510.3,107.4L510.3,107.4z"/>
<path id="path3036" class="st12" d="M507.5,109.5c0,0,22,10.3,48.7,32.8c10,8.4,36.3,31.8,36.3,35.3c3.2,5.7,1.5,23.8,1.5,23.8"/>
<path id="path3038" class="st13" d="M618.6,70.4c0-0.5,10.9-11.6,6.8-14c-3-1.8-5.6,2-5.6,2s-1.4-5.2-4.4-3.7
	C611.7,56.5,618.6,70.4,618.6,70.4z"/>
<path id="path3040" class="st1" d="M585.1,31c0,1.1-0.9,2.1-2.1,2.1h-10.3c-1.1,0-2.1-0.9-2.1-2.1v-0.2c0-1.1,0.9-2.1,2.1-2.1H583
	c1.1,0,2.1,0.9,2.1,2.1V31z"/>
<path id="path3042" class="st1" d="M574.4,29.4c0,0-1.6-4.2-1.6-7.9s5-20.3,5-20.3s5,15.7,5,20.8c0,2.5-1.3,7.3-1.3,7.3h-7.1
	L574.4,29.4z"/>
<path id="path3044" class="st1" d="M580.2,3.7c0,1.3-1.1,2.4-2.4,2.4c-1.3,0-2.4-1.1-2.4-2.4s1.1-2.4,2.4-2.4
	C579.1,1.3,580.2,2.4,580.2,3.7z"/>
<path id="path3046" class="st1" d="M685.4,57.4c0,1.1-1,2.1-2.2,2.1h-10.9c-1.2,0-2.2-0.9-2.2-2.1v-0.2c0-1.1,1-2.1,2.2-2.1h10.9
	c1.2,0,2.2,0.9,2.2,2.1V57.4z"/>
<path id="path3048" class="st1" d="M674,55.8c0,0-1.6-4.2-1.6-7.9s5-20.3,5-20.3s5,15.7,4.9,20.8c0,2.5-1.3,7.3-1.3,7.3h-7L674,55.8
	z"/>
<path id="path3050" class="st1" d="M679.8,30.1c0,1.3-1.1,2.4-2.4,2.4c-1.3,0-2.4-1.1-2.4-2.4s1.1-2.4,2.4-2.4
	C678.7,27.7,679.8,28.8,679.8,30.1z"/>
<path id="path3052" class="st8" d="M409.1,124.6l1.1,2.2l2.4,0.3l-1.7,1.7l0.4,2.4l-2.1-1.1l-2.1,1.1l0.4-2.4l-1.7-1.7l2.4-0.3
	L409.1,124.6z"/>
<path id="path3054" class="st8" d="M461.4,134.1l1.1,2.2l2.4,0.3l-1.7,1.7l0.4,2.4l-2.1-1.1l-2.1,1.1l0.4-2.4l-1.7-1.7l2.4-0.3
	L461.4,134.1z"/>
<path id="path3056" class="st8" d="M523.3,183.2l1.1,2.1l2.4,0.3l-1.7,1.7l0.4,2.4l-2.1-1.1l-2.1,1.1l0.4-2.4l-1.7-1.7l2.4-0.3
	L523.3,183.2z"/>
<path id="path3058" class="st8" d="M437.1,128.8l-1.2,2.1l1,2.2l-2.3-0.5l-1.8,1.6l-0.2-2.4l-2.1-1.2l2.2-0.9l0.5-2.4l1.6,1.8
	L437.1,128.8z"/>
<path id="path3060" class="st8" d="M456.4,118.9l-1.2,2.1l1,2.2l-2.4-0.5l-1.8,1.6l-0.2-2.4l-2.1-1.2l2.2-1l0.5-2.4l1.6,1.8
	L456.4,118.9z"/>
<path id="path3062" class="st8" d="M422.6,144.3l-1.2,2.1l1,2.2l-2.4-0.5l-1.8,1.6l-0.2-2.4l-2.1-1.2l2.2-1l0.5-2.4l1.6,1.8
	L422.6,144.3z"/>
<path id="path3064" class="st8" d="M427.5,162.9l0.4,2.4l2.2,1l-2.1,1.1l-0.3,2.4l-1.7-1.7l-2.4,0.4l1.1-2.1l-1.2-2.1l2.4,0.4
	L427.5,162.9z"/>
<path id="path3066" class="st8" d="M446,146.9l-0.4,2.4l1.7,1.7l-2.4,0.3l-1.1,2.1l-1-2.2l-2.4-0.4l1.8-1.7l-0.4-2.4l2.1,1.1
	L446,146.9z"/>
<path id="path3068" class="st8" d="M542.9,172.4l-0.5,2.4l1.7,1.7l-2.4,0.3l-1.1,2.1l-1-2.2l-2.4-0.4l1.7-1.7l-0.4-2.4l2.1,1.2
	L542.9,172.4z"/>
<path id="path3070" class="st8" d="M536.6,150.4l-0.4,2.4l1.7,1.7l-2.4,0.3l-1.1,2.2l-1-2.2l-2.4-0.4l1.8-1.6l-0.4-2.4l2.1,1.2
	L536.6,150.4z"/>
<path id="path3072" class="st8" d="M464.9,151.5l1.1,2.2l2.4,0.3l-1.7,1.7l0.4,2.4L465,157l-2.1,1.1l0.4-2.4l-1.7-1.7l2.4-0.3
	L464.9,151.5z"/>
<path id="path3074" class="st8" d="M515.5,159.4l1.1,2.2l2.4,0.3l-1.7,1.7l0.4,2.4l-2.1-1.1l-2.1,1.1l0.4-2.4l-1.7-1.7l2.4-0.3
	L515.5,159.4z"/>
<path id="path3076" class="st8" d="M567.5,181.5l1.1,2.2l2.4,0.3l-1.7,1.7l0.4,2.4l-2.1-1.1l-2.1,1.1l0.4-2.4l-1.7-1.7l2.4-0.3
	L567.5,181.5z"/>
<path id="path3078" class="st8" d="M505.6,118.8l1.1,2.2l2.4,0.3l-1.7,1.7l0.4,2.4l-2.1-1.1l-2.1,1.1l0.4-2.4l-1.7-1.7l2.4-0.3
	L505.6,118.8z"/>
<path id="path3080" class="st8" d="M483.1,121.1l-1.2,2.1l1,2.2l-2.4-0.5l-1.8,1.6l-0.2-2.4l-2.1-1.2l2.2-1l0.5-2.4l1.6,1.8
	L483.1,121.1z"/>
<path id="path3082" class="st8" d="M489.7,134.2l-0.5,2.4l1.7,1.7l-2.4,0.3l-1.1,2.2l-1-2.2l-2.4-0.4l1.7-1.7l-0.4-2.4l2.1,1.1
	L489.7,134.2z"/>
<path id="path3084" class="st8" d="M525.5,130.5l1.1,2.1l2.4,0.3l-1.7,1.7l0.4,2.4l-2.1-1.1l-2.1,1.1l0.4-2.4l-1.7-1.7l2.4-0.3
	L525.5,130.5z"/>
<path id="path3086" class="st8" d="M492.9,155.7l-1.2,2.1l1,2.2l-2.3-0.5l-1.8,1.6l-0.2-2.4l-2.1-1.2l2.2-1l0.5-2.4l1.6,1.8
	L492.9,155.7z"/>
<path id="path3088" class="st8" d="M560.4,160.4l-1.2,2.1l1,2.2l-2.3-0.5l-1.8,1.6l-0.2-2.4l-2.1-1.2l2.2-1l0.5-2.4l1.6,1.8
	L560.4,160.4z"/>
<path id="path3090" class="st8" d="M485.1,190.9l-1.2,2.1l1,2.2l-2.4-0.5l-1.8,1.6l-0.2-2.4l-2.1-1.2l2.2-1l0.5-2.4l1.6,1.8
	L485.1,190.9z"/>
<path id="path3092" class="st8" d="M453.1,171.1l-1.2,2.1l1,2.2l-2.3-0.5l-1.8,1.6l-0.2-2.4l-2.1-1.2l2.2-1l0.5-2.4l1.6,1.8
	L453.1,171.1z"/>
<path id="path3094" class="st8" d="M512.2,139.6l-1.2,2.1l1,2.2l-2.4-0.5l-1.8,1.6l-0.2-2.4l-2.1-1.2l2.2-0.9l0.5-2.4l1.6,1.8
	L512.2,139.6z"/>
<path id="path3096" class="st8" d="M475.3,174.2l-1.2,2.1l1,2.2l-2.4-0.5l-1.8,1.6l-0.2-2.4l-2.1-1.2l2.2-1l0.5-2.4l1.6,1.8
	L475.3,174.2z"/>
<path id="path3098" class="st8" d="M501.9,173.7l-0.4,2.4l1.7,1.7l-2.4,0.3l-1.1,2.1l-1-2.2l-2.4-0.4l1.8-1.7l-0.4-2.4l2.1,1.2
	L501.9,173.7z"/>
<path id="path3100" class="st8" d="M452.4,189.8l-0.4,2.4l1.7,1.7l-2.4,0.3l-1.1,2.1l-1-2.2l-2.4-0.4l1.8-1.7l-0.4-2.4l2.1,1.2
	L452.4,189.8z"/>
<path id="path3102" class="st8" d="M396.4,136l-0.5,2.4l1.7,1.7l-2.4,0.3l-1.1,2.1l-1-2.2l-2.4-0.4l1.8-1.7l-0.4-2.4l2.1,1.2
	L396.4,136z"/>
<path id="path3104" class="st14" d="M130.7,197.7l0.5-0.4c-0.2,0.1-0.7,0.3-1.1,0.4c0,0.1,0.3,0,0.7-0.2"/>
<path id="path3106" class="st14" d="M128.7,198.8c-0.2,0.3-0.8,0.6-1.2,0.7l1.1-0.6"/>
<path id="path3108" class="st14" d="M125.5,201.4c0.1-0.1,0.3-0.2,0.1-0.3c-0.4,0.2-0.2,0.2-0.2,0.2"/>
<path id="path3110" class="st14" d="M125.5,200.6c-0.2,0-0.4,0.1-0.8,0.5h0.2c0.3-0.2,0.6-0.5,0.8-0.6"/>
<path id="path3112" class="st15" d="M103.3,267.4c-1,0.1,0.5,0.3-0.6,0.1C102.8,267.4,103,267.3,103.3,267.4z"/>
<path id="path3114" class="st15" d="M120.9,273.6c-1.4,0.9-3.3,0.3-5,1.1c-0.9,1,2.8,1.2,3.9,1.2c0.4,0-0.1,0.4,0.8,0.4
	c3.3-0.2,8.5,0,12.6,0.1l-0.2,0.1c0.8,0,1.7-0.4,2.5-0.5c0,0.1-0.2,0.1-0.1,0.2c0.2-0.2,1.4-0.3,1.8-0.5c0.3,0.1,0.3,0.2,0.7,0.3
	l0.4-0.3c1.2-0.8,3.1-0.4,4.8-1c-0.1,0.1-0.2,0.1-0.1,0.2c2.7-0.9,6.2-1.5,9.2-2.6c-0.1,0.1-0.1,0.3,0.1,0.4c0.1-0.3,1-0.7,1.7-1
	c0.5,0.1,1.2-0.8,2.2-1v0.1c0.5-0.6,1-0.4,1.3-1c0.2,1.6-0.2,0.3-0.2,0.6c-0.4,0.3-1-0.4-1.6-0.3v0.1c-0.6,0-0.8-0.3-1.4-0.2l0,0
	c-1.2,0-1.9-0.2-1.9,0.1c-0.4-0.3,1.2-0.1,0.5-0.5c-4.1,0-8.3,0.2-12.4,0.4c-0.5-0.1-0.8-0.1-0.9-0.2c-0.4,0.1-1.5,0.2-1.9,0.3
	c0.1,0-0.3-0.1-0.5-0.1c-0.8-0.1-0.8,0.4-1.6,0.3c0.3-0.1,0.4-0.2,0.3-0.3c-0.7,0.3-1.6,0.3-2.4,0.5c0.1-0.1,0.3-0.1,0.3-0.2
	c-0.9,0.4-1.7,0.1-2.4,0.3l0.3-0.2c-1.3-0.1-0.4,0.4-1.5,0.4c0.3-0.1,0.2-0.1,0.2-0.2c-1,0.4-2.7,0.4-3.7,0.6v-0.1
	c-1.1,0.1-2.3,0.1-3.5,0.3c-0.5-0.1,0.1-0.4-1.1-0.3c0,0.4-2,0.2-1.3,0.6c-1,0-2.6-0.1-3.3,0c0.5-0.1-0.5-0.4,0.3-0.5l-0.6-0.2
	c0.1-0.2,0.7,0,0.5-0.2c-0.4,0-1.7,0.2-2,0.2c-0.8,0.2-1.5,0.7-2.7,0.8c0.6-0.2-0.4-0.4,0-0.5l-1.7,0.8c-0.4,0-0.1-0.3-0.7-0.1
	c0,0.1-0.2,0.2-0.4,0.3c-0.2,0-1.7,0.2-1.9-0.1c-0.2-0.1,0.7-0.1,0.2-0.2c-0.8,0.1-0.8,0.2-1.6,0.3l0,0c-0.5,0-1.5,0.3-0.9,0.4
	c0.4,0-0.2-0.2,0.4-0.1c-0.3,0.2-1.2,0.4-2,0.5c0.2-0.1,0.2-0.2,0.3-0.3c-1,0.4-2.1,0.6-3.1,1c0,0.2,0.4-0.4,0.5-0.3
	c-0.7,0-1.6,0.3-1.9,0.6c0.1-0.5-0.1-0.9,0.6-0.2c-0.2,0,0-0.3,0-0.2c0.5,0.2,0.5,0.4,0.9,0.4c0,0.2,0.6,0,1,0.1
	c0.2-0.1,0.1,0.1-0.3,0c0.6,0,3.3,0,4.8,0.3c0-0.1,1-0.3,1.3-0.3l-0.1,0.2c0.3,0.2,1.2,0,1.2,0.2c0.8-0.2-2.9,0.1-1.9-0.1
	c0.3,0.2,1.4-0.3,1.2,0c0.7,0,1.4-0.2,2.1,0c-0.2,0-0.6,0.3,0,0.3c1,0,0.3-0.1,1.1-0.1l0.5-0.1c0-0.2,0.9,0.1,0.5-0.2
	c0.1,0.2,1.5-0.1,1.4,0.3l-0.1,0.3c0.4,0,0.7-0.3,1.1-0.4c0.1,0,0.2,0.1,0.1,0.1c0.1-0.4,1.1,0.1,1.6-0.3c0.9,0.2,2.4,0.1,2.8,0.4
	c0.7-0.1,1.4-0.3,2.2-0.2c-0.2,0-0.4,0-0.4,0.1c0.5,0.1,0.6,0,1.1,0c-0.1,0.1,1,0.3,1.6,0.4c0.7-0.1,0.5-0.4,0.5-0.5
	c0.6,0.4,2-0.2,2.8,0.1c-0.2,0.1-1,0.2-0.5,0.3c0.6,0.4,1.3-0.3,2.3-0.1l-0.2-0.4c0.5,0.2,1.5-0.2,1.4,0.2c0.4-0.1,1.2,0.1,1.1-0.2
	c1.7,0.3,4.2-0.1,5.2,0.5c0.2-0.1,0.9,0,0.7-0.2c-0.4-0.2-0.6,0.1-0.7,0c0.2,0,0.3-0.1,0.3-0.1c0.5,0.1,0.9,0.1,0.4,0.4
	c1.2,0.2,1.2-0.6,2.7-0.4c-0.1,0.1,0,0.2,0.5,0.2l0.8-0.2c1,0.1,0.6,0.3,0.6,0.6c0.5,0,1.2,0,1.4-0.2l0.6,0.3
	c-0.5-0.2,0.4-0.2,0.7-0.2l-0.2,0.1c0.1,0.1,0.7,0,1,0c-0.1-0.1-0.7-0.2-1-0.2c0.3-0.1,0.7-0.1,1-0.2c-0.1,0.2,0.8,0.2,1.3,0.2
	s0.5-0.2,0.7-0.2c0,0.1,0.8,0,0.4,0.2c-0.2,0-0.4-0.1-0.6,0c0.3,0.1,0.3,0.3,0.9,0.1c0.5-0.1-0.1-0.5,0.8-0.4
	c-0.2,0.1-0.3,0.2-0.5,0.3l0.9,0.1V275c0.1,0.1,0,0.1,0.1,0.1c0.2-0.2,1.3-0.1,1.5-0.4c0.4,0,0.9,0.1,1.3,0.1h-0.1
	c0.5,0.1,1.2,0,1.6-0.2l0,0c0.3,0,0.9-0.1,1.3-0.2c0.7,0.1,0.3,0.8,1,0.5c0.7-0.1,1.1-0.5,0.8-0.6c1.3,0.1,2.7-0.4,3.9-0.1
	c0.2-0.1,0.1-0.1,0.4-0.2c1.9-0.1,3.9-0.6,5.4-0.4c-0.5,0.2,0,0.2,0,0.4c0.4-0.3,0.6,0.1,0.7-0.2c-0.1-0.2,0-0.3-0.6-0.3
	c1.1-0.3,2.8-0.5,3.4-0.4c-0.3,0-0.1-0.1,0.1-0.2c0,0.3,0.8,0.2,1.4,0v-0.2l0.4,0.1c0.2-0.1,0.2-0.5,0.8-0.4l0.2,0.2
	c0.3-0.1,2-1.2,1.2-0.3c-0.1-0.2-0.5,1.5,0.4,1.7c0.5,0.1,0.1,0,0.1-0.1c-0.2,0-0.6,0.1-0.2,0.2c-0.9-0.3-1.8-0.3-2.1-0.6
	c-2,0.5-5,0.6-7.5,0.5l0.1-0.1c-0.7-0.1-0.3,0.3-0.8,0.2c0.2-0.1-0.5-0.3,0-0.5c-0.9-0.1-1.2,0.3-1.8,0.3c-0.1,0.2,0.5-0.1,0.4,0.1
	c-0.1,0.1-1.3-0.1-1.4,0.2c-0.2-0.1-0.1-0.3,0.1-0.4l-0.6,0.1c-0.7-0.3,1.6-0.6,0.8-1l-0.5,0.1c-0.5-0.3,1.4-0.4,0.1-0.4
	c-0.6,0.1-1.1,0.6-0.5,0.7c-1.2,0.1-0.5,0.7-1.8,0.7c-0.4-0.2,1-0.1,0.8-0.3c-0.6-0.2-1.2,0.1-1.7,0.1c0.6,0.1,0.1,0.4-0.3,0.5
	c-0.7-0.1,0.4-0.3-0.5-0.3c-0.1,0.2-1,0.3-0.3,0.4c-0.3,0.4-1-0.1-1.5,0.2c-0.3-0.3,0.9-0.6-0.1-0.7c0.2,0.2-1.2,0.4-0.7,0.7
	c-0.4-0.1-0.4-0.3-0.2-0.4c-0.6-0.2-1.4,0.5-1.6,0l-0.2,0.3c-0.2-0.1-0.4-0.1-0.7-0.3c-0.5,0-1.6,0.4-1.6,0c-0.2,0-1.3,0-0.9,0.3
	c0.7,0.2,0.8-0.2,1.2,0.2c-0.5-0.3-1,0-1.4,0.1l-0.1-0.1c-0.2,0.1-0.8,0-1,0.2c0.2-0.1,0.1-0.2-0.1-0.2l-0.3,0.2
	c-1,0.1-0.2-0.4-1.2-0.4l0.7-0.2c-0.2,0-0.5-0.2-1-0.1c-0.2,0.2-0.5,0.4-0.7,0.6c-0.6,0.1-0.2-0.2-0.8-0.1l0.7-0.2
	c0.1-0.1-0.5-0.4-1.2-0.4c-0.5,0-1.2,0.3-0.5,0.5c-0.4,0-0.9-0.2-0.6-0.3c-0.8,0,0.1,0.2-0.6,0.3c-0.3-0.2-1.2-0.4-1.7-0.7l0.8-0.3
	h-0.5c0.7-0.2-0.3-0.2,0.1-0.5c-0.3-0.1-0.7,0-1.1,0c1,0.6-1.2,0.5-0.9,1c-1.4,0-0.7-1.1-2.2-0.6c0.2,0.1-0.5,0.4,0.4,0.4
	c-0.8-0.1-0.6,0.4-1.6,0.1c0.7-0.1-0.7-0.5,0.4-0.7c-0.1,0.1,0.6,0.2,0.7,0.1c-0.3-0.2,0.1-0.4-0.7-0.5c-0.5,0-1.2-0.1-1.2,0.2
	c0,0.2,0.8,0.1,0.4,0.3c-1.1,0-1.2-0.4-1.7,0c0.7,0,0.8,0.3,0.8,0.5h-0.8l0.2-0.1c-1.2-0.2-0.4,0.3-1.6,0.1l-0.5-0.4
	c0.3-0.2,1.7,0.3,1.6-0.2c-0.8-0.1-1.1,0.1-1.8-0.1h0.6c-0.3,0-0.5-0.7-1.6-0.5c-0.6,0.1-0.2,0.1-0.2,0.3c-1.2-0.1-1.6,0.1-2.4,0
	c0.2-0.3-1.4-0.2-0.5-0.4c0.4,0.2,2.2,0.4,2.6,0.1c-0.4-0.5,1,0.2,1.3-0.2c-1-0.1-0.9-0.5-1-0.8c-0.3,0-0.6,0-0.7,0
	c-0.1,0.2,0.2,0.3,0.2,0.5c-1.1-0.2-2.2-0.2-2.8,0c-0.4-0.2-0.2-0.4,0.2-0.4c-1.3-0.1-2.7-0.3-4-0.5c0.8,0.5-1.4-0.1-0.9,0.3
	c0.7,0.2,1.2,0.5,0.8,0.6c-0.4-0.1,0-0.2-0.1-0.3c-0.6,0.2-0.8-0.4-1.3-0.1c1.2,0,0.3-0.5,0.5-0.7c-0.9,0.1,0.1-0.2-0.8-0.3
	c-0.9,0.1-2,0.1-2.9,0.1c-1.2-0.4-3.1-0.3-4.1-0.4c-0.6-0.2-0.1-0.5-0.7-0.6c-0.7-0.1,0.5,0.4-0.6,0.2l0.1-0.1
	c-0.3,0.1-1.9-0.4-2.3,0.1l0.4-0.4c-0.2-0.1-0.4,0-0.6,0c0-0.1-0.2-0.2,0.1-0.3c-0.6-0.3-1.4-0.1-2.1-0.1l0.4,0.3
	c-1.2,0.1-2-0.2-3.2-0.2v-0.2l-0.7,0.1c0.2-0.2-0.5-0.4-0.8-0.2l1.9-0.4c0.5,0.2-0.6,0.2-0.3,0.5c0.3,0.2,1.4,0.2,1.5,0
	c-0.4-0.1-0.4,0-0.8,0.1c-0.1-0.3,0.5-0.3,0.8-0.4c-0.2,0-0.5-0.1-0.6,0c0.4-0.1,0.9-0.1,1.6-0.1c-0.5,0.1,0.2,0.2,0.1,0.3
	c0.1-0.3,0.8-0.3,1.7-0.1c0.6,0.4,1.7,0,2.7,0.1c-0.4,0.2-1,0.4-1.6,0.5c0.6,0.2,0.7,0.1,1.4,0.2c0.3-0.2,0.6-0.5,1.4-0.5v0.2
	c0.8,0,0.8-0.3,1.8-0.2c1.7,0.3,3.4,0.4,4.6,0.6v0.2c0.7-0.4,2.4,0.1,3.3,0c1.6,0.4,3.5,0.2,4.3,0.6c2.9,0.2,5.4,0.3,8.3,0.7
	l-0.5,0.2c0.6-0.2,0.3,0.2,0.8,0.2c-0.6-0.3,0.7-0.2,1.1-0.4c1.3,0.4,3,0.3,4.2,0.1v0.2c1.2-0.3,2.6,0.1,4,0.2
	c0.2,0.1,0.4,0.3,0.9,0.3c0.8-0.3,1.2-0.3,2.4-0.5c0.8,0,2.2,0.1,3.1,0.2c3.2-0.5,6.5-0.2,9.9-0.5l0.2,0.2c3.3-0.5,7.3-0.1,10.1-0.2
	l-0.3,0.4c0.9,0.2,2.1,0.1,2-0.2c0.6,0.4-0.1-0.6,1.7,1c0.4,2.8-0.7,1.7-1.2,2.5c-0.5,0.2-1.1,0.3-1.4,0.2c-0.9,0.1-1.1,0.4-1.8,0.6
	c-1.8,0.2-2.5,0.4-4.2,0.7h0.4c0.2-0.1,0.2-0.3-0.3-0.2c-0.6,0.2-2.3,0.2-1.6,0.6c-1.8,0-4.2,0.7-6,0.5c0.2,0.1-0.3,0.2-0.5,0.3
	c-1.6,0.1-3.3,0-4.5,0.3c-0.3-0.1,0.4-0.2-0.3-0.2c-0.4,0.1,0,0.2-0.5,0.3c-2.6,0.4-5.2,0-7.6,0.1c-4.2,0.4-8.5,0.2-12.5,0.2v-0.1
	c-1.3,0.4-3.1-0.4-4.2,0.1c-0.3-0.1-1.2-0.1-1-0.2c-1.1,0.2-3-0.3-4.5,0h0.4c-1.5-0.2-2.9,0-4.5-0.2c0.2,0,0.5-0.1,0.5-0.2
	c-0.6-0.2-1.5,0.4-1.8-0.1c-0.4,0-0.3,0.2,0,0.2c-3.6-0.2-7.4,0-11.1-0.1c-2.7-0.4-0.1-0.8-2.3-0.6c-0.2-0.1-0.1,0.2-0.2,0.1
	c-0.8,0.1-1.2-0.6-1.8-0.4c0.2,0.3-0.4,0.1-0.4,0.3c-1.6-0.3-1.9-0.6-3.3-0.6l0.1-0.1c-0.8,0.1-1.8-0.1-2.8-0.6
	c-1.5-0.2-0.6-3.3,0.1-3.1c0.5-0.4,1-0.6,1.2-0.8c8.7-1.8,16.6-1.8,24.6-2.2c7.9-0.4,15.8-1.4,24-1.2c1.9,0.4,2.1,0.4,4.2,0.3
	c-0.1,0.1-0.2,0.1-0.1,0.1c0.1-0.3,1.5,0.1,1.8-0.2l2.4,0.4l1.2,0.2h0.1l0,0c1.1,6.9,0.3,1.9,0.5,3.4l0,0l0.1-0.1h-0.1l-0.3,0.2
	l-0.5,0.3c-1.5,0.8-2.9,1.4-4.4,1.9c0.5-0.2,0.6-0.5,0.1-0.3l-0.5,0.4l-0.1-0.1c-0.4,0.2-0.8,0.4-0.3,0.4
	c-7.7,2.5-15.5,2.9-23.2,3.3c-1.8,0-4.5,0.1-6.5,0.1c-1.5-0.1-3-0.4-4.4-0.7c-0.7-0.2-1.4-0.3-2.2-0.6l-1.1-0.4l-0.3-0.1H114l0,0
	l0,0c0.3,2.2-0.4-3-0.3-2.5l0,0h0.1l0.6-0.3c4-0.8,4.9-0.9,9.4-1.3C124.3,272.2,123.1,273,120.9,273.6L120.9,273.6z"/>
<path id="path3116" class="st15" d="M104.5,267.4c0.2,0.2,0.9,0.3,0.3,0.5C104.8,267.7,104.4,267.5,104.5,267.4z"/>
<path id="path3118" class="st15" d="M122.3,270.6c0,0,0.2,0.1,0.3,0.1c-0.2,0-0.4,0.1-0.6,0C122.3,270.7,122.2,270.6,122.3,270.6z"
	/>
<path id="path3120" class="st15" d="M126.9,271.2c-0.1,0.1-1.1,0.1-1.7,0.1L126.9,271.2z"/>
<path id="path3122" class="st15" d="M131.1,272.2c0.4,0.2,0.2,0.2-0.2,0.2C130.8,272.3,131,272.3,131.1,272.2z"/>
<path id="path3124" class="st15" d="M131.5,271.9c0.4,0,0.5,0.1,0.7,0.2C132.1,272.1,131.3,272.2,131.5,271.9z"/>
<path id="path3126" class="st15" d="M140.7,273.3c0.2,0,0.7-0.1,0.9,0.1C141.4,273.3,140.5,273.5,140.7,273.3z"/>
<path id="path3128" class="st15" d="M145.1,273.4h0.3c0.3,0.1,0,0.2-0.2,0.2L145.1,273.4z"/>
<path id="path3130" class="st15" d="M128.5,274.5l0.5-0.1l-0.1,0.1H128.5z"/>
<path id="path3132" class="st15" d="M103.8,273.1c0.4-0.1,0.3,0.1,0.4,0.1C103.8,273.3,104.3,273,103.8,273.1z"/>
<path id="path3134" class="st15" d="M122.2,271.3h-0.1V271L122.2,271.3z"/>
<path id="path3136" class="st4" d="M107.9,239.9c0.2-1.3,1.5-6.1,1.5-6.1s8.9-3.3,8.9-2.1s0.4,2.7,0,4.7s-3.8,11.2-3.8,11.2
	l-6.9-0.7C107.6,246.9,107.3,243.5,107.9,239.9L107.9,239.9z"/>
<path id="path3138" class="st16" d="M106.4,267.8c0,0-0.1-9.2,0-13.2c0.1-6.1,0.9-12.2,0.9-12.2s3,0.7,4,0.8
	c3.1,0.2,4.9-0.1,4.9-0.1s-4.4,18.4-2.8,22.6c1.6,4.2-0.8,5.7-0.8,5.7L106.4,267.8z"/>
<path id="path3140" class="st6" d="M139.3,118.4h-20.9v33.4h20.9V118.4z"/>
<path id="path3142" class="st4" d="M142.4,239.3c0.3,2,0.8,5.3,1.2,6.4l8.9-3.2l-0.6-9.7l-9.7,2C142.1,234.8,142,236.8,142.4,239.3z
	"/>
<path id="path3144" class="st16" d="M145.6,254.6c-1-3.7-2.6-11.5-2.6-11.5s3.2,0.1,4.2,0c4.3-0.4,4-0.7,5.3-1
	c0,0,0.6,19.1,3.2,24.2c2,4-6.6-0.5-6.6-0.5S147.2,260.4,145.6,254.6z"/>
<path id="path3146" class="st17" d="M155.6,264.4c3.2,0.8,4.3-1.7,4.3-1.7s1.9,1,4.1,1.2c3.9,0.3,7.1,2.4,7.6,5.2
	c-2,2.5-6.7,3-12.2,2.6c-5.2-0.4-8.5-4-8.5-4l0.3,3.4l-3.5-0.1c0,0-0.8-6.7-0.5-8.6c0.2-2.1,0.3-1.8,0.3-1.8S149,262.9,155.6,264.4
	L155.6,264.4z"/>
<path id="path3148" class="st11" d="M161.2,263.3c0,0-2.6-0.8-4.2-3.8c-1.2-2.3-1.6-3.4-4.6-0.9c-2.3,1.8,0.5,5.5,1.5,6.5
	C158.5,269.7,161.2,263.3,161.2,263.3L161.2,263.3z"/>
<path id="path3150" class="st17" d="M113.6,267.2c3,1.3,4.5-0.9,4.5-0.9s1.7,1.3,3.8,1.9c3.8,0.9,6.6,3.6,6.6,6.4
	c-2.4,2.1-7.1,1.8-12.5,0.5c-5-1.3-7.6-5.4-7.6-5.4l-0.3,3.4l-3.4-0.7c0,0,0.4-6.7,0.9-8.5c0.6-2,0.6-1.7,0.6-1.7
	S107.3,264.5,113.6,267.2L113.6,267.2z"/>
<path id="path3152" class="st11" d="M119.3,267c0,0-2.5-1.2-3.5-4.5c-0.8-2.5-1-3.6-4.4-1.7c-2.6,1.4-0.5,5.5,0.4,6.7
	C115.6,272.9,119.3,267,119.3,267z"/>
<path id="path3154" d="M152.6,235c0,0-0.9,0.9-4.6,1.3c-3.8,0.4-5.2,0.1-6.6-0.3l-0.5-2.6c0,0,4.5,0.7,8.8-0.1
	c1.5-0.3,2.8-0.7,2.8-0.7L152.6,235z"/>
<path id="path3156" d="M119.3,235.8c0,0-1.1,0.7-4.7,0.2c-3.7-0.5-5.1-1.1-6.4-1.8l0.1-2.7c0,0,4.3,1.7,8.6,1.9
	c1.5,0.1,2.9-0.1,2.9-0.1L119.3,235.8z"/>
<path id="path3158" d="M91.4,113.8c0,0-0.6,2.4-2.1,4s-4.9,3-4.9,3s6,2.6,9.9-0.7c3.3-2.8,2.9-5.4,2.9-5.4l-4.6-4.3L91.4,113.8z"/>
<path id="path3160" d="M111.8,190.8c-4.7,13.6-7.4,33.2-6.6,36.6c1.2,5.2,6,5.5,10.9,6.3c6.8,1.2,8.8-5.1,10.7-10.2
	c3.5-9,3.4-10.6,6.2-4.6c3.9,8.5,2,13.5,8.6,14.6c4.5,0.8,13.6,1.4,14.1-6.1c0.4-6.8-2.2-34.6-7-36.9
	C143.9,188.2,111.8,190.8,111.8,190.8L111.8,190.8z"/>
<path id="path3162" class="st4" d="M92.3,193.2c0,0-4.7,10.8-3,12.1s3.9-4.8,3.9-4.8s-1.3,6.1,0.9,6.5s1.9-6.2,1.9-6.2
	s1.3,6.1,3.5,6c2.1-0.1-0.1-6.3-0.1-6.3s4,1.5,4.2-0.2s-5.9-6-5.9-6L92.3,193.2z"/>
<path id="path3164" class="st4" d="M172.3,182.2c0,0,7.5,9.1,9.4,8.1c1.9-0.9-2.5-5.6-2.5-5.6s4.9,3.9,6.3,2.2s-4.7-4.5-4.7-4.5
	s6.1,1.6,6.9-0.3c0.9-1.9-5.7-2.8-5.7-2.8s3.1-2.9,1.7-3.8c-1.4-0.9-8.1,2.5-8.1,2.5L172.3,182.2z"/>
<path id="path3166" class="st5" d="M110.3,129.3c0,0,7.4-0.5,11.9,1.7c3.2,3.8,12.1,10.4,12.1,10.4s1.8-6.6,2.9-16.1
	c0.9-0.8,3,2,3,2s8,14,9.9,31.8c1.2,11.3,5.1,33,0.8,33.9c-5.5,2.2-20.2,2.7-31,1.9c-10.4-0.7-11.1-1.7-11.5-8s3.5-30.8,3.5-30.8
	s-5.6,13.2-6.1,20.9s-0.6,18-3.9,18.4c-2.9,0.3-12.8,0.9-12.7-3c0.1-7.3,2.9-20.5,7-32C102.3,142.8,110.3,129.3,110.3,129.3
	L110.3,129.3z"/>
<path id="path3168" class="st5" d="M140.2,127.3c0,0,14.7,20,19.5,26.8c8.6,12,18.5,15.9,18.6,19.4c0.1,4.6-6.8,10.8-8.7,10.1
	c-5.2-1.9-19.8-20.4-23.4-34.3C144,141,140.2,127.3,140.2,127.3z"/>
<path id="path3170" class="st18" d="M131.7,157l9.6-12.8l-7.1-2.8l-5.3,5.2c0,0,14.1,7.2,15.8,7.7"/>
<path id="path3172" d="M129.7,146.9c0,0.8-0.7,1.5-1.5,1.5s-1.5-0.7-1.5-1.5s0.7-1.5,1.5-1.5S129.7,146.1,129.7,146.9z"/>
<path id="path3174" d="M140.7,144c0,0.8,0.7,1.5,1.5,1.5s1.5-0.7,1.6-1.5c0-0.8-0.7-1.5-1.5-1.5C141.4,142.5,140.7,143.2,140.7,144z
	"/>
<path id="path3176" d="M132.7,157.5c0,0.9-0.7,1.6-1.6,1.6s-1.6-0.7-1.6-1.6c0-0.9,0.7-1.6,1.6-1.6S132.7,156.6,132.7,157.5z"/>
<path id="path3178" d="M143.3,154.5c0,0.8,0.7,1.5,1.5,1.5s1.5-0.7,1.5-1.5s-0.7-1.5-1.5-1.5S143.3,153.7,143.3,154.5z"/>
<path id="path3180" class="st4" d="M86,87.8c0,0,4,21.4,11.9,32.9c7.6,11,24.7,13.4,36.9,9.4s20.6-20,19.3-32.9
	c-1.7-17.2-13-34.7-13.7-35.5c-4.3-4.7-23.4,3.6-34.7,9.3C94.3,76.6,86,87.8,86,87.8L86,87.8z"/>
<path id="path3182" class="st19" d="M143.8,62.8c9.5-3.4,8.5-22-4.3-24.1c-11.7-1.9-26,4.2-36.3,9.8c-5.6,3.1-32.9,7.5-38.7,21.8
	c-8.2,20.5,20.8,28.8,24.2,18.5c0,0,17.3-15.5,35-20.8C133.7,64.9,143.8,62.8,143.8,62.8L143.8,62.8z"/>
<path id="path3184" class="st1" d="M101.3,79c0,0-7-11-11.3-14.4c-1.4-1.1-4.6-3.5-4.6-3.5l-1,6.8l-4.5-10.4c0,0-1.6-1.3-9.9-3.1
	l-8.3-1.8l0.7,7.4l-6.3-9.1c0,0-5.5-0.1-12.5,1.1c-6.9,1.1-19.3,3-19.3,3s12.3,6,16.3,9c4,3.1,6.6,3.9,6.6,3.9l8.9-6.1l-6.6,7.6
	l17.2,4.2l8.1-6.3l-4.7,6.9c0,0,16,3.7,19.3,3.6S101.3,79,101.3,79L101.3,79z"/>
<path id="path3186" class="st16" d="M144.3,68.1c0,0-14,1.9-29.2,8.8c-13.6,6.2-22.5,13.6-28.3,17.9C83.1,95,85,88.6,85,88.6
	s10.6-9.8,25.8-16.3c18.3-7.8,23.5-8.5,32.1-9.4C146.9,64.8,144.3,68.1,144.3,68.1z"/>
<path id="path3188" class="st20" d="M98.7,77.3c0,0-15.1-8.8-28.4-13.2c-19-6.3-36.8-7.5-36.8-7.5"/>
<path id="path3190" class="st20" d="M74.7,63.9L71.6,57"/>
<path id="path3192" class="st20" d="M58.5,69.2l5.2-4.5"/>
<path id="path3194" class="st20" d="M77.6,74.6l4.3-3.8"/>
<path id="path3196" class="st21" d="M130.6,93.8c0,0,6.8,2.4,8.8,2.5s3.7,1.2-0.2,3.9c-3.9,2.7-6.9,2.7-6.9,2.7"/>
<path id="path3198" class="st22" d="M113,83c-4.7,0.7-7.1,3.8-6.7,8.5c0.5,4.7,3.3,7.9,7.8,7.5c4.4-0.4,7.3-4.2,6.9-8.8
	C120.5,85.4,117.3,82.3,113,83z"/>
<path id="path3200" class="st23" d="M116.3,86.2c-0.8,0.1-1.1,0.6-1,1.4s0.6,1.3,1.4,1.2c0.8-0.1,1.3-0.7,1.2-1.5
	C117.8,86.6,117.1,86.2,116.3,86.2L116.3,86.2z"/>
<path id="path3202" class="st22" d="M141.2,76c-3.7,0.4-5.4,3.3-5.3,7.6c0.1,4.3,3.1,7.1,7.1,6.7s6.6-3.8,6.1-8
	C148.7,78,145.2,75.6,141.2,76L141.2,76z"/>
<path id="path3204" class="st23" d="M145,78.9c-0.8,0.1-1.1,0.6-1,1.3c0.1,0.7,0.6,1.2,1.3,1.2c0.7-0.1,1.2-0.7,1.2-1.4
	C146.4,79.2,145.7,78.8,145,78.9z"/>
<path id="path3206" d="M84.2,98c-2.3,1.6-9.5,3-9.5,3s2,2.8,6.1,3c1.3,0.1,3-0.2,3-0.2s-1.5,2-4.4,2.4c-2.5,0.4-5.1,0.2-5.1,0.2
	c0.1,1.4,6.8,7,11.8,3c-1.7,3.9-8.5,5.1-8.5,5.1s9.5,4.6,14.2,0.1c1-1,1.8-1.9,1.8-1.9s-3.8-8.9-4-10.8c-0.2-1.7-2.7-7-2.7-7
	S87,96,84.2,98L84.2,98z"/>
<path id="path3208" class="st4" d="M91.1,99c0,0-6.6,1.1-6.2,5.3c0.4,3.7,3.9,4.4,6.3,4.2c2.4-0.2,2.9-1,2.9-1L91.1,99z"/>
<path id="path3210" d="M86.4,96.3c0,0,0.8,1.5-0.7,3.1s-8.6,3.5-8.6,3.5s5.5,3.2,10.6-0.9C91,99.3,95,88.9,95,88.9l-8.1,6L86.4,96.3
	z"/>
<path id="path3212" d="M128,116.4c-0.5,2.9,0.4,5.4,5.1,5c2.6-0.2,4.5-2.8,4.3-5.7c-0.2-3-1.8-5.2-4.4-5
	C130.5,110.9,128.5,113.6,128,116.4z"/>
<path d="M306.5,59.9c-0.8,1.5-6.9,3.4-9,4.8c2.1,0.1,5.3-0.5,7.3-0.8c1.6-0.3,2.9-0.8,4.5-1C309.6,63,307.5,60,306.5,59.9z"/>
<g class="st24">
	<g class="st24">
		<path class="st25" d="M325.7,50.8c1.1-2.9,1.4-12.7-9-26.7c-2.3-3.1-12.8-12.7-15.5-11.3c-1.3,0.7-6.5,5.2,3.8,21.6
			c4,6.4,12.9,12.7,19.5,15.9C325.3,50.5,325.6,50.9,325.7,50.8z"/>
	</g>
</g>
<path class="st8" d="M325.4,50.6c-3.5-8.4-11-13.2-16.8-10.8c-5.8,2.4-7.7,11.1-4.2,19.5c3.5,8.4,11,13.2,16.8,10.8
	C327,67.7,328.9,58.9,325.4,50.6z"/>
<path d="M330.1,51c-3.1-7.6-10.4-11.9-16.2-9.5c-5.8,2.4-7.9,10.5-4.8,18.1c3.1,7.6,10.4,11.9,16.2,9.5
	C331.1,66.8,333.2,58.7,330.1,51z"/>
<path class="st8" d="M335.6,47.6c-3.5-8.4-11-13.2-16.8-10.8c-5.8,2.4-7.7,11.1-4.2,19.5c3.5,8.4,11,13.2,16.8,10.8
	C337.1,64.7,339,56,335.6,47.6z"/>
<path d="M342.2,44.1c-3.5-8.4-11-13.2-16.8-10.8s-7.7,11.1-4.2,19.5c3.5,8.4,11,13.2,16.8,10.8C343.8,61.2,345.7,52.5,342.2,44.1z"
	/>
<path class="st26" d="M335.6,36.2c0,0-4.2-8.6-3.8-9.4c0.4-0.8,3.7-0.9,3.7-0.9"/>
<path class="st26" d="M341.5,35.5c0,0-1.4-9.5-0.9-10.1c0.6-0.6,3.8,0.3,3.8,0.3"/>
<g class="st24">
	<g class="st24">
		<path class="st25" d="M324.3,49.6c0.4,0-1.5-3.1-1.8-3.8c-2.7-4.2-6-7.5-9.8-10.6c-6-4.8-13-8.8-20.8-9.4
			c-2.2-0.3-8.9-1.5-9.4,0.8C279.6,42.3,307.8,52.1,324.3,49.6z"/>
	</g>
</g>
<path class="st8" d="M327.7,45.8c0.3-6.4,2.7-9,6.3-10.7c4.6-2.4,13.8-2.3,17.6,3.4c6.3,9.4,2.4,21.1-10,22
	C331.2,61.3,327.5,48.9,327.7,45.8z"/>
<path class="st13" d="M337.4,45.9c-2.3,1.6-5.1,0-5.8-2c-0.8-2.1,0.5-4.6,3-4.9C337.8,38.6,340.9,43.4,337.4,45.9z"/>
<path d="M336.8,43.8c-0.4,0.3-1,0.1-1.1-0.3c-0.2-0.4,0.1-0.9,0.6-1C336.9,42.4,337.3,43.4,336.8,43.8z"/>
<path class="st13" d="M349.5,43.6c-2.3,1.2-4.3-0.1-5-1.9c-0.7-1.9,0.5-4.3,2.8-4.6C350.3,36.8,352.5,42.1,349.5,43.6z"/>
<path d="M349.5,41.6c-0.4,0.3-0.9,0.1-1-0.3c-0.1-0.4,0.1-0.8,0.5-0.9C349.6,40.4,350,41.2,349.5,41.6z"/>
<path class="st26" d="M331,62.3c0,0-1.4,3.1-2,4.5c-0.9,2.3-2.3,3.2-2.3,3.2"/>
<path class="st26" d="M324.1,64.2c0,0-0.6,2.2-1.2,3.7c-0.9,2.3-3,3.5-3,3.5"/>
<path class="st26" d="M318,64.6c0,0-0.9,2.1-1.7,3.4c-1.3,2.1-3.5,2.9-3.5,2.9"/>
<path d="M339,50c0,0,2.2,2.3,5.5,1.3c-0.2,1.3-0.8,3.9-2.8,3.8C339.2,54.9,339,50,339,50z"/>
</svg>
