<?xml version="1.0" encoding="UTF-8" standalone="no"?>
<!-- Generator: Adobe Illustrator 25.3.1, SVG Export Plug-In . SVG Version: 6.00 Build 0)  -->

<svg
   version="1.1"
   id="Layer_1"
   x="0px"
   y="0px"
   viewBox="0 0 1024 600"
   xml:space="preserve"
   sodipodi:docname="castillo_pres5.svg"
   width="1024"
   height="600"
   inkscape:version="1.2.1 (9c6d41e410, 2022-07-14)"
   xmlns:inkscape="http://www.inkscape.org/namespaces/inkscape"
   xmlns:sodipodi="http://sodipodi.sourceforge.net/DTD/sodipodi-0.dtd"
   xmlns="http://www.w3.org/2000/svg"
   xmlns:svg="http://www.w3.org/2000/svg"><defs
   id="defs2972" /><sodipodi:namedview
   id="namedview2970"
   pagecolor="#ffffff"
   bordercolor="#000000"
   borderopacity="0.25"
   inkscape:showpageshadow="2"
   inkscape:pageopacity="0.0"
   inkscape:pagecheckerboard="0"
   inkscape:deskcolor="#d1d1d1"
   showgrid="false"
   inkscape:zoom="1.1490939"
   inkscape:cx="496.91328"
   inkscape:cy="473.85163"
   inkscape:window-width="1920"
   inkscape:window-height="1018"
   inkscape:window-x="-8"
   inkscape:window-y="-8"
   inkscape:window-maximized="1"
   inkscape:current-layer="Layer_1" />
<style
   type="text/css"
   id="style2509">
	.st0{fill-rule:evenodd;clip-rule:evenodd;fill:#9A9587;}
	.st1{fill-rule:evenodd;clip-rule:evenodd;fill:#DAD8CC;}
	.st2{fill:#19814A;}
	.st3{fill:none;stroke:#000000;stroke-width:0.712;stroke-miterlimit:10;}
	.st4{fill:#B4B0A5;}
	.st5{fill:#3C3C3B;}
	.st6{fill:#FAFAFB;}
	.st7{fill:#DAD8CC;}
	.st8{fill:#E30613;}
	.st9{fill:none;stroke:#DADADA;stroke-width:0.712;stroke-miterlimit:10;}
	.st10{fill:#908B84;}
	.st11{fill:#814114;}
	.st12{fill:none;stroke:#A85318;stroke-width:0.712;stroke-linecap:round;stroke-miterlimit:10;}
	.st13{fill:#A85318;}
	.st14{fill:none;stroke:#000000;stroke-width:0.712;stroke-linecap:round;stroke-miterlimit:10;}
	.st15{fill-rule:evenodd;clip-rule:evenodd;fill:#3C3C3B;}
	.st16{fill:#2FAC66;}
	.st17{fill:#D5C2A2;}
	.st18{fill:#B91919;}
	.st19{fill:#E4D5B8;}
	.st20{fill:#F39200;}
	.st21{fill:none;stroke:#000000;stroke-width:0.884;stroke-linecap:round;}
	.st22{fill-rule:evenodd;clip-rule:evenodd;fill:#FFFFFF;}
	.st23{fill-rule:evenodd;clip-rule:evenodd;}
	.st24{fill:#FBBA00;}
	.st25{fill:#00A0A4;}
	.st26{fill:#007572;}
	.st27{fill:none;stroke:#007572;stroke-width:0.928;stroke-linecap:round;}
	.st28{fill:none;stroke:#B9B5A3;stroke-width:0.618;stroke-linecap:round;stroke-linejoin:round;stroke-miterlimit:10;}
	.st29{fill:#FFDE00;}
	.st30{fill:none;stroke:#FBBA00;stroke-width:0.928;stroke-linecap:round;}
	.st31{fill:#B780B1;}
	.st32{fill:#FFFFFF;}
</style>































































<g
   id="g3980"
   transform="translate(29.588531,-130.53764)"><path
     class="st0"
     d="m 950.34496,362.25251 c 0.18944,-3.88044 0.75775,-36.2419 -19.3228,-47.95645 -20.08054,-11.64135 -38.89817,10.90917 -38.89817,10.90917 0,0 -0.0632,-44.80817 -25.38485,-41.36702 -25.3217,3.44115 -26.07946,28.84709 -26.07946,28.84709 0,0 -7.38813,-15.96108 -21.34348,-11.71456 -15.47086,4.68583 -13.70276,21.01299 -13.70276,21.01299 0,0 -7.76701,-12.44671 -20.64887,-4.68583 -12.94501,7.7609 -20.52258,22.47731 -18.31246,39.31698 2.21013,16.91289 13.38704,39.46341 89.92046,37.1205 76.47028,-2.2697 92.57261,-3.95367 93.77239,-31.48287 z"
     id="path2511"
     style="stroke-width:0.679951" /><path
     class="st1"
     d="m 751.30754,419.06811 c 0.0632,-2.78222 0.88405,-25.99168 15.72346,-33.31328 14.83939,-7.32159 27.40553,9.88416 27.40553,9.88416 0,0 1.76809,-32.06859 19.76481,-28.26136 17.99673,3.80723 17.49156,22.038 17.49156,22.038 0,0 5.87261,-11.05561 15.72345,-7.24837 10.86118,4.1733 8.96678,15.81464 8.96678,15.81464 0,0 6.06206,-8.49305 14.96569,-2.26969 8.96679,6.22336 13.76592,17.20575 11.5558,29.13996 -2.27327,11.9342 -11.11377,27.60241 -65.7354,21.89157 -54.62162,-5.85728 -66.11427,-7.90732 -65.86168,-27.67563 z"
     id="path2513"
     style="stroke-width:0.679951" /><path
     class="st2"
     d="m 993.7521,730.88101 c 0.37888,-75.41244 -4.04137,-155.07142 -67.31405,-162.53945 -118.33633,-13.91103 -259.5948,71.532 -271.15059,162.53945 z"
     id="path2515"
     style="stroke-width:0.679951" /><path
     class="st3"
     d="m 827.33579,389.92815 c 0,-3.14829 1.51551,-26.28454 1.64181,-29.13996"
     id="path2517" /><path
     class="st3"
     d="m 938.91546,395.12648 c 0,-3.00185 -0.31573,-26.50418 -0.12629,-29.13995"
     id="path2519" /><path
     class="st3"
     d="m 881.45225,322.05694 -0.18944,-32.58111"
     id="path2521" /><path
     d="m 857.96179,398.4212 c 0,1.68397 10.86118,2.92864 22.79585,2.70899 11.87152,-0.21965 22.7327,-1.75719 22.66955,-3.51437 0,-1.68397 -10.92432,-2.92863 -22.79584,-2.70899 -11.87152,0.29287 -22.73271,1.83041 -22.66956,3.51437 z"
     id="path2523"
     style="stroke-width:0.679951" /><path
     d="m 925.84417,436.27385 c 0,1.17146 6.56722,1.90362 14.5868,1.61076 8.0196,-0.29287 14.52368,-1.39111 14.52368,-2.56256 0,-1.17146 -6.56723,-1.90362 -14.58682,-1.61075 -8.08274,0.29286 -14.58682,1.46432 -14.52366,2.56255 z"
     id="path2525"
     style="stroke-width:0.679951" /><path
     d="m 838.76529,432.97914 c 0,1.17145 -6.56722,1.90361 -14.58681,1.61075 -8.0196,-0.29287 -14.52368,-1.39111 -14.46053,-2.56256 0,-1.17146 6.56723,-1.90362 14.58682,-1.61075 7.95644,0.29286 14.46052,1.3911 14.46052,2.56256 z"
     id="path2527"
     style="stroke-width:0.679951" /><path
     class="st4"
     d="m 831.31401,601.88838 c -5.178,1.75718 -6.50407,4.02688 -21.53291,2.48934 -10.4823,-1.09824 -17.5547,-6.00371 -17.5547,-6.00371 0,0 11.17691,-76.29104 12.43984,-84.34479 4.86228,-31.62931 5.43059,-51.69048 6.37779,-63.2586 1.01034,-16.0343 0.12629,-26.43097 5.43059,-30.60428 3.66248,-2.7822 18.18616,5.63763 19.0702,8.78592 0.88406,3.14829 -3.28361,45.32068 -3.28361,51.32439 0,6.00371 3.28361,62.89252 3.59935,67.43191 0.31573,4.6126 -4.54655,54.17982 -4.54655,54.17982 z"
     id="path2529"
     style="stroke-width:0.679951" /><path
     class="st4"
     d="m 850.44737,527.86703 c 0,0 4.54655,-68.53015 5.43059,-72.41059 0.88406,-3.88045 4.23081,-5.63763 4.23081,-5.63763 0,0 1.70495,-50.59224 2.39957,-56.88881 0.56831,-4.83225 23.36416,-3.51437 23.36416,-3.51437 0,0 12.43984,-1.02502 13.32388,6.00372 0.88406,7.02873 0.88406,56.59594 1.83125,57.25489 0.88405,0.73215 2.39956,1.3911 3.34676,4.24652 0.88405,2.7822 4.54654,70.65341 3.03102,72.41059 -1.51551,1.75719 -53.67443,-2.12327 -56.95804,-1.46432 z"
     id="path2531"
     style="stroke-width:0.679951" /><path
     class="st4"
     d="m 922.56055,602.84018 c 0,0 8.90364,2.34291 22.03809,2.12327 13.13445,-0.21965 20.20684,-6.58944 21.02775,-7.46803 0.8209,-0.95181 -6.69352,-47.29752 -6.69352,-55.79057 0,-8.41984 -6.06206,-55.27806 -6.25149,-57.62097 -0.18944,-2.34291 -0.75776,-46.93143 -1.13664,-49.05469 -0.37888,-2.12327 -5.93576,-3.88045 -5.93576,-3.88045 0,0 -16.4812,1.68396 -16.4812,4.68582 0,1.75718 1.07348,21.74514 -0.25259,44.95461 -1.01034,17.57182 -3.97822,43.63671 -4.79913,49.93329 -2.14697,14.49676 -4.16766,68.16406 -1.51551,72.11772 z"
     id="path2533"
     style="stroke-width:0.679951" /><path
     class="st5"
     d="m 809.6548,432.24697 c 0.50518,0 5.74632,-1.83039 13.76592,-1.83039 8.01959,0 14.8394,2.34291 15.28142,2.34291 -1.13663,-7.98055 -9.97712,-52.86193 -10.73488,-54.10661 -0.63147,-1.02502 -13.70276,36.60799 -18.31246,53.59409 z"
     id="path2535"
     style="stroke-width:0.679951" /><path
     class="st5"
     d="m 954.8915,435.54169 c -0.50517,0 -5.74632,-1.83039 -13.76591,-1.83039 -8.01959,0 -14.83941,2.34291 -15.28142,2.34291 1.13662,-7.98054 11.80837,-52.86193 12.56612,-54.1066 0.75776,-1.17146 13.95535,44.07601 16.48121,53.59408 z"
     id="path2537"
     style="stroke-width:0.679951" /><path
     class="st5"
     d="m 903.36405,397.90869 c -0.69462,0 -7.0724,-4.68583 -21.59607,-4.39296 -14.8394,0.29286 -23.23787,4.61261 -23.86934,4.61261 1.83126,-11.78778 21.9118,-82.9537 23.04844,-84.71088 1.13664,-1.8304 18.75447,70.36054 22.41697,84.49123 z"
     id="path2539"
     style="stroke-width:0.679951" /><path
     class="st6"
     d="m 817.54811,503.77898 c 0,0 -0.1263,-10.46989 0.75775,-13.17888 0.88405,-2.70899 4.10452,-2.70899 4.60969,1.97683 0.50517,4.75904 0.12629,11.20205 0.12629,11.20205 z"
     id="path2541"
     style="stroke-width:0.679951" /><path
     class="st6"
     d="m 820.38969,452.74745 c 0,-0.65894 0,-10.10381 0.88405,-12.22707 0.88405,-2.12326 3.59934,-1.90362 4.23081,1.31789 0.63146,3.2215 -1.26293,11.71455 -1.26293,11.71455 z"
     id="path2543"
     style="stroke-width:0.679951" /><path
     class="st7"
     d="m 816.72721,506.26832 c 0.8209,0.36608 7.70385,0.14643 7.70385,0.14643 0,0 0.50518,-3.73401 0,-3.73401 -0.50517,0 -7.32498,-0.87859 -7.76701,-0.29287 -0.56831,0.58573 -0.94719,3.44115 0.0632,3.88045 z"
     id="path2545"
     style="stroke-width:0.679951" /><path
     class="st6"
     d="m 814.20134,574.13953 c 0,0 -0.12629,-10.46989 0.75776,-13.17888 0.88405,-2.70899 4.10452,-2.70899 4.60969,1.97683 0.50517,4.75904 0.12629,11.20205 0.12629,11.20205 z"
     id="path2547"
     style="stroke-width:0.679951" /><path
     class="st7"
     d="m 813.38044,576.55565 c 0.8209,0.36608 7.70386,0.14643 7.70386,0.14643 0,0 0.50517,-3.73401 0,-3.73401 -0.50517,0 -7.32498,-0.87859 -7.767,-0.29287 -0.56832,0.58573 -0.9472,3.44116 0.0632,3.88045 z"
     id="path2549"
     style="stroke-width:0.679951" /><path
     class="st6"
     d="m 938.66288,574.79847 c 0,0 -0.12629,-10.46988 0.75775,-13.17887 0.88406,-2.709 4.10452,-2.709 4.60969,2.05004 0.50517,4.75904 0.12629,11.20204 0.12629,11.20204 h -5.49373 z"
     id="path2551"
     style="stroke-width:0.679951" /><path
     class="st7"
     d="m 937.84198,577.28781 c 0.8209,0.36608 7.64071,0.14643 7.64071,0.14643 0,0 0.50517,-3.73401 0,-3.73401 -0.50517,0 -7.32498,-0.87859 -7.76701,-0.29286 -0.50517,0.58572 -0.88404,3.44115 0.1263,3.88044 z"
     id="path2553"
     style="stroke-width:0.679951" /><path
     class="st7"
     d="m 819.88452,454.21177 c 0.50517,0.0732 4.3571,0.58573 5.05172,0.58573 0.6946,0 1.01034,-3.00186 0.12628,-3.00186 -0.88404,0 -5.30429,-0.58573 -5.68317,-0.14643 -0.31573,0.4393 -0.9472,2.34291 0.50517,2.56256 z"
     id="path2555"
     style="stroke-width:0.679951" /><path
     class="st6"
     d="m 938.78917,503.55933 c 0,0 -0.12629,-9.00556 0.75776,-11.34848 0.88404,-2.34291 4.10451,-2.34291 4.60968,1.75718 0.50517,4.1001 0.1263,9.5913 0.1263,9.5913 z"
     id="path2557"
     style="stroke-width:0.679951" /><path
     class="st7"
     d="m 937.96826,506.70762 c 0.82091,0.36608 7.70386,0.14643 7.70386,0.14643 0,0 0.50517,-3.73402 0,-3.73402 -0.50517,0 -7.32497,-0.87858 -7.767,-0.29286 -0.56831,0.58573 -0.9472,3.44115 0.0632,3.88045 z"
     id="path2559"
     style="stroke-width:0.679951" /><path
     class="st6"
     d="m 939.35749,456.48146 c -0.0632,-0.58573 -0.9472,-9.37164 -0.25259,-11.4949 0.69462,-2.12326 3.40991,-2.19648 4.29396,0.73215 0.88405,2.92865 -0.18944,11.05562 -0.18944,11.05562 z"
     id="path2561"
     style="stroke-width:0.679951" /><path
     class="st7"
     d="m 938.97861,458.01899 c 0.50517,0 4.3571,0 5.11486,-0.0732 0.75775,-0.0732 0.69461,-3.14828 -0.18944,-3.00186 -0.88405,0.0732 -5.36744,0.14644 -5.68318,0.58573 -0.31573,0.4393 -0.75776,2.41613 0.75776,2.48934 z"
     id="path2563"
     style="stroke-width:0.679951" /><path
     class="st8"
     d="m 845.39566,365.98653 c -1.64181,-0.95181 -4.16766,-2.63578 -5.80946,-3.00186 -3.09418,-0.73216 -4.29396,0.21965 -6.88296,-0.14643 -1.70495,-0.21965 -3.15732,-1.31789 -3.85194,-1.61075 l -0.50517,6.95551 c 2.14698,1.02503 4.16767,1.90362 7.51443,-0.0732 3.85193,-2.05005 5.62002,-2.12326 9.5351,-2.12326 z"
     id="path2565"
     style="stroke-width:0.679951" /><path
     class="st8"
     d="m 955.52296,371.18486 c -1.70495,0.80538 -4.29395,2.26969 -5.93576,2.56256 -3.15732,0.51251 -4.23081,-0.51252 -6.8198,-0.36608 -1.70496,0.0732 -3.22047,1.02502 -3.91508,1.31789 l -0.1263,-7.02874 c 2.21013,-0.87859 4.23081,-1.61075 7.51443,0.65895 3.59934,2.34291 5.36744,2.56255 9.28251,2.85542 z"
     id="path2567"
     style="stroke-width:0.679951" /><path
     class="st8"
     d="m 903.49034,294.16166 c -1.83125,1.97683 -6.18834,4.53939 -8.27218,4.83225 -4.04137,0.65894 -5.43058,-0.65894 -8.77735,-0.51251 -2.14698,0.0732 -4.16766,1.31789 -5.0517,1.68397 l -0.1263,-9.00557 c 2.77844,-1.09824 5.43059,-2.05005 9.6614,0.80538 4.60969,3.2215 7.51442,2.19648 12.56613,2.19648 z"
     id="path2569"
     style="stroke-width:0.679951" /><path
     class="st6"
     d="m 876.33739,421.70387 c 0,0 -1.01034,-9.59128 -0.63146,-12.4467 0.75776,-5.12512 7.70386,-6.00372 7.57756,1.24466 -0.12629,6.51623 -0.44202,11.78777 -0.44202,11.78777 z"
     id="path2571"
     style="stroke-width:0.679951" /><path
     class="st6"
     d="m 868.94927,495.35914 c 0,0 -0.0632,-13.7646 0.18943,-21.89157 0.31574,-11.4217 17.681,-13.61817 18.18617,-0.43929 0.6946,16.91288 -1.01034,22.25764 -1.01034,22.25764 h -17.36526 z"
     id="path2573"
     style="stroke-width:0.679951" /><path
     class="st9"
     d="m 878.86325,495.06628 -0.31574,-16.91289 -9.47195,-0.29286"
     id="path2575" /><path
     class="st9"
     d="m 878.23178,463.36376 0.31573,14.71642 9.34567,-0.21965"
     id="path2577" /><path
     class="st7"
     d="m 875.13762,423.97357 c 1.19977,0.80537 8.01958,0.51252 8.77734,0.14643 0.75776,-0.36608 0.88405,-3.14828 -0.1263,-3.36793 -1.07348,-0.14643 -8.46161,-0.51251 -8.96678,0 -0.44202,0.58573 -0.44202,2.70899 0.31574,3.2215 z"
     id="path2579"
     style="stroke-width:0.679951" /><path
     class="st7"
     d="m 867.3706,499.16638 c 0.88406,0.80537 21.34348,0.14642 22.41698,0 0.56831,-1.46433 1.07348,-14.42356 0.31573,-14.93606 -0.75776,-0.51252 -4.86228,-0.73216 -4.86228,0.36608 0,1.09823 0.63147,5.12511 0,5.27154 -0.63146,0.14644 -3.66249,0.36608 -4.23081,0 -0.63146,-0.36608 0,-5.63762 -0.63146,-5.63762 -0.63146,0 -4.67283,-0.36608 -4.67283,0.36608 0,0.73216 0.63146,5.27154 0.12629,5.27154 -0.44202,0 -4.23081,0.73216 -4.23081,0 0,-0.73216 0,-5.27154 -0.63146,-5.27154 -0.63147,0 -3.91508,-0.36608 -3.91508,0.5125 0.0632,0.8786 0.0632,12.59315 0.31573,14.05748 z"
     id="path2581"
     style="stroke-width:0.679951" /><path
     class="st10"
     d="m 921.17133,539.87445 c 0,0 -2.96788,8.93235 -0.56832,9.22521 2.39956,0.36608 16.67065,0.4393 23.6799,-0.0732 7.00925,-0.51252 15.34457,-2.05005 15.6603,-2.41613 0.31573,-0.36608 -0.18944,-8.27341 -0.94719,-8.78591 -0.75776,-0.58573 -37.82469,2.05004 -37.82469,2.05004 z"
     id="path2583"
     style="stroke-width:0.679951" /><path
     class="st10"
     d="m 927.35968,473.98008 c 0,0 0.31573,8.49305 1.07348,8.49305 0.8209,0 5.74632,-1.68396 13.38704,-1.46432 5.68318,0.14644 11.17691,1.68397 11.74522,1.61075 0.56832,-0.14643 1.38923,-8.41983 0.9472,-9.00556 -0.37888,-0.58572 -13.19759,-2.19648 -13.19759,-2.19648 z"
     id="path2585"
     style="stroke-width:0.679951" /><path
     class="st10"
     d="m 838.07068,539.87445 c 0,0 2.96788,8.93235 0.56832,9.22521 -2.39957,0.36608 -16.67065,0.4393 -23.6799,-0.0732 -7.00925,-0.51252 -15.34457,-2.05005 -15.6603,-2.41613 -0.31574,-0.36608 0.18943,-8.27341 0.94719,-8.78591 0.69461,-0.58573 37.82469,2.05004 37.82469,2.05004 z"
     id="path2587"
     style="stroke-width:0.679951" /><path
     class="st10"
     d="m 808.45502,469.07461 c 0,0 -0.37887,8.85913 0.0632,9.73773 2.02069,0.14642 5.80947,-1.09825 13.19759,-0.73216 7.57757,0.36608 11.61894,2.63577 11.61894,1.97682 0,-0.65894 1.07349,-8.56626 0,-8.71269 -1.07349,-0.14644 -23.99562,-2.56257 -24.87968,-2.2697 z"
     id="path2589"
     style="stroke-width:0.679951" /><path
     class="st10"
     d="m 853.85728,453.62604 c -0.1263,0.80538 0.18944,7.76089 0.63146,7.83411 0.37888,0.14643 13.63962,-2.19648 25.25856,-2.12327 11.36635,0.14644 18.31245,1.02503 25.70058,2.48935 0,-0.51251 0.25259,-9.07878 -0.69461,-9.81094 -0.9472,-0.73216 -32.89927,-1.61075 -32.89927,-1.61075 z"
     id="path2591"
     style="stroke-width:0.679951" /><path
     class="st7"
     d="m 918.70862,542.07093 c 0,0 13.57647,1.61075 23.93248,0.87859 10.35601,-0.73215 17.93357,-2.12326 18.18616,-2.26969 0.25258,-0.14643 1.32608,-13.54496 0.69461,-13.69139 -0.63146,-0.14643 -5.80946,-0.4393 -6.06205,-0.0732 -0.25259,0.29285 0.12629,7.76088 -0.37888,7.76088 -0.50517,0 -5.05171,0.80538 -5.68318,0.80538 -0.63146,0 0.9472,-7.76089 -0.25258,-7.98054 -1.26293,-0.21964 -7.19869,0.21965 -7.32498,0.73216 -0.1263,0.51251 0.69461,7.68768 0,7.68768 -0.69461,0 -5.93576,0.58573 -6.31464,0.43929 -0.37888,-0.14643 -0.12629,-8.2734 -0.69461,-8.34661 -0.56832,-0.0732 -6.25149,-0.65895 -6.44093,0.14642 -0.18944,0.80539 -0.25259,7.68768 -0.63147,7.68768 -0.44202,0 -4.98856,-0.36608 -5.30429,-0.51251 -0.37889,-0.14643 1.01034,-8.12698 0.63146,-8.2734 -0.44202,-0.14643 -4.98857,-1.46432 -5.178,-0.80538 -0.18944,0.65895 -2.77845,12.3735 -2.33642,13.17887 0.31573,0.80538 3.15732,2.63578 3.15732,2.63578 z"
     id="path2593"
     style="stroke-width:0.679951" /><path
     class="st7"
     d="m 840.47024,542.07093 c 0,0 -13.57647,1.61075 -23.93248,0.87859 -10.35601,-0.73215 -17.93357,-2.12326 -18.18615,-2.26969 -0.25259,-0.14643 0.50517,-13.54496 1.07348,-13.69139 0.63147,-0.14643 5.17801,0.29287 5.43059,0.58573 0.25259,0.29286 -0.75775,7.02873 -0.25258,7.02873 0.50517,0 4.48339,0.80538 5.11485,0.80538 0.63147,0 0.25259,-7.76089 1.51552,-7.98054 1.26293,-0.21966 6.63036,0.21965 6.75666,0.73215 0.12629,0.51252 -0.69461,7.68768 0,7.68768 0.69461,0 5.36744,0.58573 5.68318,0.4393 0.37887,-0.14643 0.12629,-8.2734 0.6946,-8.34662 0.56833,-0.0732 6.2515,-0.65894 6.44093,0.14643 0.18945,0.80537 0.25259,7.68768 0.63147,7.68768 0.44203,0 4.98857,-0.36608 5.3043,-0.51252 0.37888,-0.14642 -1.01035,-8.12697 -0.63146,-8.2734 0.44201,-0.14643 4.98856,-1.46432 5.17799,-0.80538 0.18944,0.65895 2.77845,12.37351 2.33642,13.17888 -0.25258,0.87859 -3.15732,2.70899 -3.15732,2.70899 z"
     id="path2595"
     style="stroke-width:0.679951" /><path
     class="st7"
     d="m 925.14955,467.24421 c -0.12629,0.58572 1.83124,9.81094 2.27327,9.81094 0.44203,0 7.07239,-2.63577 14.58682,-2.63577 7.51442,0 12.69242,2.34291 13.19759,2.34291 0.50518,0 2.77844,-10.17702 2.27327,-10.5431 -0.50517,-0.36608 -4.04136,-1.46433 -4.42025,-1.46433 -0.37887,0 -0.69461,5.56442 -1.07348,5.56442 -0.37888,0 -1.8944,-0.58573 -2.33642,-0.65894 -0.50517,-0.0732 0.56832,-5.85728 0,-5.9305 -0.56832,-0.14643 -4.60968,-0.65894 -4.73598,-0.36608 -0.12629,0.36608 0,5.34477 -0.37888,5.34477 -0.37888,0 -2.77843,0.14643 -3.22046,0 -0.50517,-0.0732 -0.31573,-5.71085 -0.56832,-5.71085 -0.31574,0 -4.73598,0.4393 -5.05171,0.65895 -0.31573,0.21965 0.69461,5.49119 0.31573,5.49119 -0.37888,0 -3.4099,0.95181 -3.78879,0.8786 -0.37887,-0.14644 -1.19978,-5.4912 -1.45236,-5.4912 -0.50518,0 -5.36744,1.17145 -5.62003,2.70899 z"
     id="path2597"
     style="stroke-width:0.679951" /><path
     class="st7"
     d="m 805.99231,462.33874 c -0.25258,1.46432 1.51552,10.46988 1.57867,11.20204 0.0632,0.73216 4.98856,-1.53753 13.45018,-1.17145 8.5879,0.36608 13.19759,2.56255 13.57647,2.63577 0.37888,0.0732 2.08383,-10.39666 2.27327,-11.4949 0.12629,-1.17146 -4.10452,-1.90362 -4.2308,-1.46433 -0.1263,0.51252 -0.63147,5.9305 -0.63147,5.9305 0,0 -2.65215,-0.29286 -3.47306,-0.51251 -0.0632,-0.87859 0.75776,-4.68583 0.69462,-5.56441 -0.50517,-0.65895 -4.73598,-0.58573 -4.86228,-0.14644 -0.12629,0.4393 -0.50517,4.90547 -0.50517,5.27155 -0.88404,0.14643 -2.7153,0.0732 -4.04137,0 -0.25258,-0.65894 0.44203,-5.78406 0,-5.93049 -0.44202,-0.14643 -4.42025,-0.36608 -4.67283,0.0732 -0.18944,0.5125 0.25258,5.85727 -0.0632,5.85727 -0.31573,0 -2.84159,0.65895 -3.09417,0.65895 -0.25259,0 -0.69462,-5.78406 -0.63147,-6.15014 -1.32607,-0.29287 -4.79912,0.36608 -5.36744,0.80537 z"
     id="path2599"
     style="stroke-width:0.679951" /><path
     class="st7"
     d="m 851.8366,442.13114 c -0.1263,0.58572 0.63145,12.88601 1.32607,13.10565 0.75775,0.21965 13.70276,-2.56255 26.90036,-2.34291 14.8394,0.29286 24.94283,2.34291 25.448,2.34291 0.56831,0 2.58899,-12.44671 1.83124,-13.10565 -0.75776,-0.65895 -5.17801,-1.90362 -5.3043,-1.46433 -0.0632,0.4393 -0.50517,6.51622 -0.8209,6.51622 -0.31573,0 -4.04137,-0.0732 -4.48339,-0.29285 -0.44203,-0.14644 0.12629,-7.61447 -0.25259,-7.7609 -0.37888,-0.0732 -5.93576,-0.29286 -6.31464,-0.14644 -0.37887,0.0732 0,7.10195 -0.37887,7.17517 -0.37889,0.0732 -5.36745,-0.51251 -5.62003,-0.4393 -0.25259,0.0732 0.25258,-7.39481 -0.44203,-7.39481 -0.69461,0 -5.30429,0.36608 -5.74632,0.36608 -0.44203,0 0,7.3216 -0.50517,7.3216 -0.50517,0 -5.80947,0.29286 -6.31464,-0.0732 -0.44202,-0.36608 -0.1263,-6.88231 -0.44202,-7.10195 -0.31574,-0.29287 -6.69352,0.0732 -7.07241,0.36608 -0.37887,0.29286 0.31574,7.02873 -0.0632,7.10194 -0.37887,0.0732 -5.05171,0.58574 -5.36744,0.58574 -0.31573,0 -0.0632,-6.73588 -0.88405,-6.66266 -0.75776,0 -5.36744,1.09824 -5.49373,1.90362 z"
     id="path2601"
     style="stroke-width:0.679951" /><path
     class="st7"
     d="m 845.26937,517.32393 c 0.8209,0.8786 8.84049,0.65894 9.15622,0.21965 0.31574,-0.43929 0,-10.61631 0.44203,-10.98239 0.44203,-0.36609 10.16657,-0.95181 10.79803,-0.51252 0.56832,0.4393 -0.0632,10.25024 0.37888,10.61632 0.44203,0.36607 8.08274,1.09824 8.20903,0.58573 0.18944,-0.51251 -0.44203,-10.25024 0,-10.5431 0.44203,-0.21965 8.01959,-0.65895 8.7142,-0.29287 0.69461,0.36608 0.37889,11.27526 0.88406,11.4217 0.50517,0.14642 7.38812,0.58572 7.70386,0 0.31572,-0.58573 0,-9.95738 0.50517,-9.95738 0.50517,0 10.22971,-0.80537 10.22971,-0.0732 0,0.73216 -0.31573,10.0306 0,10.32346 0.31573,0.29286 8.7142,-0.0732 9.47196,0 0.8209,0.0732 1.13663,-8.93235 1.51551,-9.66451 0.37888,-0.73216 10.29286,-1.02502 10.92433,-0.14643 0.63146,0.9518 5.36744,87.41986 6.88295,103.52738 -26.45834,3.29472 -85.37392,3.36793 -107.28571,0.14643 1.45236,-11.9342 10.41915,-93.78965 10.73488,-95.54684 0.31574,-1.75719 1.0735,-9.81094 1.64181,-10.17702 0.63146,-0.36608 8.33532,0.14643 8.96679,0.73216 0.56831,0.4393 -0.75776,9.37164 0.12629,10.32345 z"
     id="path2603"
     style="stroke-width:0.679951" /><path
     class="st6"
     d="m 839.27046,566.2322 c 0,-1.17146 0.1263,-14.56998 2.58901,-17.35219 2.52585,-2.7822 5.93576,-0.80537 5.93576,5.56442 0,6.36979 -1.01035,12.30028 -1.01035,12.30028 z"
     id="path2605"
     style="stroke-width:0.679951" /><path
     class="st6"
     d="m 909.29981,568.94119 c -0.12629,-0.80538 -1.01034,-13.91104 0.25258,-17.49861 1.26293,-3.58759 5.62004,-3.00186 6.63038,-0.4393 1.83124,4.6126 1.83124,16.10751 1.83124,17.13253 0,1.02503 -8.7142,0.80538 -8.7142,0.80538 z"
     id="path2607"
     style="stroke-width:0.679951" /><path
     class="st11"
     d="m 855.56223,586.36659 c -0.31573,5.78406 -1.26292,21.52549 -1.57866,28.33458 10.73489,0.14643 44.13933,0.14643 44.32877,0.14643 0.25258,-8.93234 -0.50517,-27.38277 -0.50517,-33.75256 0,-12.44671 -3.6625,-26.35774 -20.45944,-27.23634 -18.88076,-0.95181 -21.28033,24.01484 -21.7855,32.50789 z"
     id="path2609"
     style="stroke-width:0.679951" /><path
     class="st12"
     d="m 884.86216,613.74937 1.01034,-57.03525"
     id="path2611" /><path
     class="st12"
     d="m 869.77017,556.78734 -2.21013,56.74238"
     id="path2613" /><path
     class="st12"
     d="m 859.91933,613.38329 1.57866,-45.3939"
     id="path2615" /><path
     class="st12"
     d="m 892.43972,561.47316 -0.25259,52.42264"
     id="path2617" /><path
     class="st13"
     d="m 854.99392,596.4704 c 9.91397,0.80537 34.16219,0.80537 43.19212,1.3911 0.0632,-3.29472 0.1263,-6.51622 0.18944,-9.29843 -10.04027,-0.65895 -33.90961,-0.4393 -42.87639,-0.87859 -0.31574,2.26969 -0.25259,5.4912 -0.50517,8.78592 z"
     id="path2619"
     style="stroke-width:0.679951" /><path
     class="st10"
     d="m 837.56551,567.55008 c 1.45236,0.29287 9.66139,1.02503 10.10342,1.02503 0.44203,0 0.69461,-3.80723 0.1263,-3.95366 -0.56833,-0.14644 -9.85084,-1.09824 -9.91399,-0.73216 -0.18944,0.4393 -1.01034,3.51437 -0.31573,3.66079 z"
     id="path2621"
     style="stroke-width:0.679951" /><path
     class="st10"
     d="m 909.17352,571.06446 c 1.01034,0.36608 8.77734,0.29286 9.59824,-0.14644 0.82091,-0.36608 1.26293,-3.95366 -0.31572,-3.95366 -1.57866,0 -9.85085,-0.51251 -10.16657,0.51251 -0.37889,1.02502 -0.1263,3.14828 0.88405,3.58759 z"
     id="path2623"
     style="stroke-width:0.679951" /><path
     d="m 897.80717,578.67891 c -1.8944,-0.0732 -4.29396,-0.21964 -4.29396,-0.21964 0,0 0.50517,-1.31789 0.12629,-2.48935 -0.37887,-1.17145 -1.89439,-0.58573 -2.27327,0.29287 -0.37888,0.87859 -1.19978,1.75718 -1.89439,1.83039 -0.69461,0.0732 -0.69461,0.29287 -0.37887,0.43931 0.31572,0.0732 1.51551,1.02502 1.83124,2.19647 0.31573,1.17146 0.50517,3.00186 1.70495,2.34291 1.19978,-0.58573 0.75776,-2.41612 0.75776,-2.41612 l 4.54653,0.65894 c -0.12628,-0.80537 -0.0632,-1.8304 -0.12628,-2.63578 z"
     id="path2625"
     style="stroke-width:0.679951" /><path
     d="m 860.92967,579.19143 c 0,0 -0.6946,1.68397 0.37888,2.48934 1.13664,0.73216 1.64181,-0.8786 2.08383,-2.05005 0.44203,-1.17145 1.19978,-1.90362 1.51551,-1.97683 0.50518,-0.21965 0.37888,-0.21965 -0.25258,-0.58573 -0.63146,-0.36608 -1.19978,-1.09824 -1.57866,-1.97682 -0.37887,-0.8786 -1.7681,-1.68397 -2.21012,-0.51252 -0.44203,1.17146 0.37888,2.48934 0.37888,2.48934 0,0 -3.28362,-0.0732 -4.60969,-0.14643 -0.18944,0.73216 -0.37888,1.53754 -0.37888,2.19648 z"
     id="path2627"
     style="stroke-width:0.679951" /><path
     d="m 898.31234,605.40274 c -1.8944,-0.0732 -4.29396,-0.21965 -4.29396,-0.21965 0,0 0.50518,-1.31789 0.12629,-2.48934 -0.37887,-1.17145 -1.89439,-0.58573 -2.27327,0.29287 -0.37888,0.87858 -1.19978,1.97683 -1.95753,2.05004 -0.69462,0.0732 -0.69462,0.29287 -0.37888,0.4393 0.31573,0.0732 1.51551,0.73216 1.83124,1.90362 0.31573,1.17145 0.50517,3.00185 1.70496,2.34291 1.19978,-0.58573 0.75775,-2.41613 0.75775,-2.41613 l 4.54654,0.65895 c -0.0632,-0.73217 0,-1.75719 -0.0632,-2.56257 z"
     id="path2629"
     style="stroke-width:0.679951" /><path
     d="m 858.97214,605.98847 c 0,0 -0.69461,1.68397 0.37887,2.48934 1.13664,0.73216 1.64181,-0.87859 2.08383,-2.05004 0.37888,-1.17145 1.19978,-1.61076 1.51552,-1.75718 0.50517,-0.21966 0.37888,-0.21966 -0.25258,-0.58574 -0.63147,-0.36607 -1.19979,-1.3911 -1.57867,-2.26969 -0.37887,-0.87859 -1.7681,-1.68397 -2.21012,-0.51251 -0.44202,1.17145 0.37888,2.48934 0.37888,2.48934 0,0 -3.34676,-0.0732 -4.73598,-0.14643 -0.0632,0.87859 -0.1263,1.68397 -0.1263,2.34291 z"
     id="path2631"
     style="stroke-width:0.679951" /><path
     class="st14"
     d="m 876.02166,614.33509 1.7681,-58.49956"
     id="path2633" /><path
     class="st15"
     d="m 841.79632,441.9847 c 0,-0.0732 0,-0.0732 0,0 1.38922,0.58573 2.33642,1.61075 3.22046,2.92864 0.31574,0.51251 0.56832,0.95181 0.82091,1.53753 0.31573,0.73216 0.56831,1.53754 1.19978,1.97684 0.12629,0.0732 0.31573,0.21965 0.50517,0.21965 0.0632,0 0.18943,-0.0732 0.18943,-0.21965 0,-0.0732 -0.0632,-0.14643 -0.0632,-0.21965 -0.0631,-0.14643 -0.0631,-0.36609 0,-0.58573 0,-0.0732 0.0632,-0.21965 0.1263,-0.21965 0.12629,0 0.18944,0.14644 0.25258,0.29287 0.0632,0.14642 0.0632,0.21965 0.1263,0.36608 0.18943,0 0.37887,0.0732 0.50517,0.0732 0.0632,-0.21964 0.12629,-0.43929 0.37888,-0.43929 0.25258,0.36608 0,0.95181 -0.18945,1.17145 0.69462,0.4393 1.57867,0.0732 2.02069,-0.43929 0.25258,-0.21965 0.44202,-0.51251 0.69461,-0.80538 1.13664,-1.31789 2.77844,-1.97683 4.92542,-2.12326 -0.37888,0.29286 -0.8209,0.58572 -1.07349,1.02502 -0.12629,0.21965 -0.25258,0.51251 -0.31573,0.80538 -0.0632,0.29286 0,0.73216 0.12629,0.95181 -1.01034,0.29286 -1.45237,1.24466 -1.57865,2.48934 -0.31574,-0.21965 -0.69462,-0.36608 -1.19979,-0.4393 -0.50517,-0.0732 -0.94719,0.0732 -1.32608,0.21965 -0.6946,0.36608 -1.19977,1.09824 -1.57865,1.75719 0.0632,-0.36609 0,-0.65895 -0.25259,-0.8786 -0.18944,-0.14643 -0.50517,-0.21965 -0.75776,-0.14643 -0.12629,0.0732 -0.25258,0.21965 -0.31572,0.36608 -0.1263,-0.14643 -0.25259,-0.36608 -0.44203,-0.36608 -0.18944,0 -0.37888,0.0732 -0.50517,0.21965 0,-0.21965 -0.0632,-0.36608 -0.1263,-0.51251 -0.0632,-0.14644 -0.18943,-0.36608 -0.37887,-0.36608 -0.18944,0 -0.37889,0.21964 -0.50517,0.36608 -0.1263,0.14643 -0.25259,0.36608 -0.37889,0.51251 -0.12628,-1.09824 -0.50517,-1.90361 -1.01034,-2.48934 -0.50517,-0.58573 -1.26293,-1.02503 -2.21012,-1.09824 0.25258,-0.36608 0.44202,-1.02502 0.18944,-1.61076 -0.18944,-0.51251 -0.56832,-0.80537 -0.9472,-1.02502 0.56833,-0.21965 0.88405,-0.65894 0.82091,-1.53754 0,-0.43929 -0.18944,-0.80537 -0.37888,-1.09824 -0.12629,-0.21965 -0.37888,-0.5125 -0.56832,-0.65894 z"
     id="path2635"
     style="stroke-width:0.679951" /><path
     class="st15"
     d="m 866.17083,476.68907 c 0.12629,-0.0732 0.31573,0.21965 0.56831,0.14643 0.25259,-0.29286 0,-0.87859 -0.25258,-1.02502 0.12629,-0.8786 -0.37889,-1.09824 -1.01034,-1.17146 -0.31574,-1.09824 -1.26293,-1.8304 -2.46271,-1.46432 -0.63147,-1.61075 -1.7681,-2.56255 -3.72564,-2.48934 -0.50517,-1.3911 -1.32608,-2.34291 -2.77844,-2.63577 1.89439,-1.39111 5.93576,-1.61076 8.27217,-0.65895 0.50517,0.95181 1.13664,1.97683 1.95754,2.85542 0.9472,0.95181 1.95754,2.05005 3.66249,2.12327 0.12629,-0.80538 0.50518,-1.3911 1.07349,-1.68397 -0.0632,0.65895 0.25259,0.87859 0.50517,1.02503 0.31573,-0.0732 0.63146,-0.21965 0.88405,0.0732 0.31574,-0.21965 0.56832,-0.43929 0.63147,-0.95181 0.31572,0.14644 0.44202,0.65895 0.37887,1.17146 1.51552,-0.73216 2.58901,-2.05004 3.34676,-3.58758 2.52586,-0.51251 4.16767,0.80537 5.17801,2.48933 -1.13664,0 -1.70496,0.58574 -1.95754,1.53754 -0.44203,-0.21965 -1.01034,-0.58573 -1.57866,-0.36607 -0.37888,0.14642 -0.37888,0.43929 -0.69461,0.65894 -1.01034,-0.65894 -2.08384,0.29287 -2.52585,1.02502 -1.8944,-0.80538 -2.33643,1.09824 -3.34677,2.12326 -0.44202,0.4393 -0.8209,0.65895 -1.38921,0.95181 0.25258,0.36608 0.12628,1.31789 -0.56833,1.24468 0.0632,-0.21965 0.25259,-0.21965 0.25259,-0.4393 -0.25259,-0.4393 -0.8209,-0.36608 -1.26293,0 -0.25258,0.14643 -0.37887,0.58573 -0.63146,0.65894 -0.63147,0.21965 -1.13664,-0.29287 -1.26292,-1.17145 -0.31574,0.29286 -1.13664,0.21964 -1.26293,-0.4393 z"
     id="path2637"
     style="stroke-width:0.679951" /></g>





































































































































































</svg>
