<svg width="266" height="155" viewBox="0 0 266 155" fill="none" xmlns="http://www.w3.org/2000/svg">
<path d="M265.997 62.0139C265.843 44.3942 263.534 6.18108 228.173 2.63995C189.152 -1.27935 81.7005 -0.660503 40.0295 3.34475C9.6611 6.28422 0 24.9525 0 58.6103C0 88.2457 9.6611 114.495 38.7812 115.629C81.0165 117.279 174.379 118.036 227.66 114.392C259.773 112.208 266.168 81.1291 265.997 62.0139Z" fill="#E30613"/>
<path d="M122.884 111.622C122.884 111.622 120.851 123.693 117.546 129.267C106.241 148.407 84.4051 154.455 84.4051 154.455C84.4051 154.455 99.4473 139.132 103.792 124.151C105.305 118.966 105.763 110.645 105.763 110.645L122.884 111.622Z" fill="#E30613"/>
</svg>
