<svg width="933" height="544" viewBox="0 0 933 544" fill="none" xmlns="http://www.w3.org/2000/svg">
<path d="M932.994 105.062C933.304 29.0848 921.899 6.00564 880.507 3.96809C814.702 0.715845 406.318 -3.59436 335.667 5.22197C308.868 8.59176 294.748 22.7371 295.003 108.628C295.313 204.549 311.072 212.033 330.511 214.698C412.075 225.826 785.68 225.121 885.972 216.422C927.966 212.739 932.684 182.175 932.994 105.062Z" fill="#2FAC66"/>
<path d="M490.005 182.845C490.005 182.845 485.815 205.581 475.814 221.083C453.875 255.113 417 262.611 417 262.611C417 262.611 450.462 228.595 456.083 189.775C458.421 173.506 465.059 180.072 465.059 180.072L490.005 182.845Z" fill="#2FAC66"/>
<path d="M206.341 382.627C206.341 382.627 210.779 391.382 214.427 399.286C218.105 407.159 219.838 417.708 219.321 420.291C218.835 422.875 210.232 432.208 214.123 434.792C216.616 436.433 221.054 432.147 221.054 432.147C221.054 432.147 221.997 436.98 224.58 438.804C228.38 441.54 229.14 431.691 229.14 431.691C229.14 431.691 233.001 443.06 239.02 438.835C242.668 436.281 239.354 429.35 231.238 416.674C222.483 402.934 217.71 368.248 217.71 368.248" fill="#F39200"/>
<path d="M228.108 526.231C229.932 526.049 227.105 525.806 229.293 525.988C229.05 526.201 228.685 526.383 228.108 526.231Z" fill="#DAD8CC"/>
<path d="M194.427 537.297C197.406 537.418 201.054 536.415 204.307 537.874C206.07 538.999 198.866 539.638 196.798 540.458C196.038 540.61 196.89 539.668 195.218 540.063C189.047 541.887 178.924 541.309 171.324 540.033L171.811 539.85C170.351 539.638 168.527 540.245 167.007 540.002C167.007 539.85 167.524 539.85 167.19 539.607C166.764 540.002 164.363 539.607 163.694 539.881C163.086 539.668 163.177 539.334 162.417 539.06L161.475 539.455C158.891 540.397 155.517 538.756 152.112 538.908C152.294 538.817 152.629 538.756 152.386 538.634C146.914 538.574 140.226 537.327 134.268 536.05C134.541 535.959 134.845 535.716 134.541 535.412C134.116 535.838 132.292 535.442 130.681 535.078C130.134 534.348 127.854 534.622 126.151 533.619L126.364 533.588C125.027 532.737 124.145 533.983 123.659 530.822L124.662 531.065C125.118 530.244 126.79 531.065 127.854 530.487L127.793 530.335C128.857 530.001 129.495 530.153 130.498 530.001L130.59 530.062C132.961 529.697 134.389 530.031 134.298 529.454C135.18 529.849 131.988 529.819 133.356 530.427C141.138 529.18 149.285 529.545 157.189 529.636C158.07 529.91 158.648 530.001 158.83 530.214C159.621 530.123 161.809 530.214 162.539 529.94C162.265 529.94 163.025 530.244 163.451 530.305C164.88 530.579 165.032 529.727 166.612 530.031C165.974 530.153 165.761 530.335 165.974 530.548C167.342 530.153 169.135 530.305 170.716 530.214C170.473 530.305 170.078 530.335 170.139 530.518C171.902 530.092 173.3 530.761 174.85 530.518L174.273 530.822C176.705 531.339 175.033 530.153 177.13 530.487C176.614 530.579 176.796 530.7 176.705 530.852C178.711 530.335 181.903 530.67 183.879 530.548L183.788 530.67C185.946 530.7 188.165 530.943 190.536 530.761C191.387 530.913 190.232 531.612 192.512 531.491C192.421 530.822 196.373 531.187 195.035 530.427C196.981 530.518 200.051 530.791 201.358 530.579C200.477 530.822 202.301 531.399 200.689 531.46L201.905 531.886C201.723 532.159 200.659 531.795 201.024 532.129C201.845 532.099 204.185 531.886 204.915 531.977C206.435 531.582 207.803 530.852 210.265 530.822C209.11 531.065 210.904 531.582 210.113 531.673L213.548 530.487C214.339 530.487 213.7 531.004 214.886 530.883C214.825 530.7 215.342 530.609 215.707 530.487C216.011 530.579 219.081 530.457 219.415 531.156C219.75 531.43 218.078 531.217 218.959 531.521C220.449 531.582 220.54 531.369 222.03 531.43L222.06 531.521C223.033 531.673 224.978 531.43 223.945 531.004C223.245 530.943 224.188 531.43 223.185 531.156C223.914 530.822 225.647 530.852 227.167 530.974C226.65 531.035 226.681 531.217 226.468 531.399C228.535 531.065 230.693 531.126 233.034 531.278C233.125 530.974 232.092 531.703 231.788 531.521C233.277 532.007 234.615 531.916 236.499 532.676C237.928 532.585 238.749 536.689 236.773 536.902C236.013 537.266 235.314 537.51 234.615 537.631C235.01 537.388 235.01 537.966 234.949 537.874C233.399 538.33 233.368 537.814 232.456 538.209C232.304 537.966 231.301 538.482 230.359 538.695C229.903 538.969 230.085 538.604 230.906 538.452C229.599 538.938 224.431 539.85 221.391 539.668C221.452 539.85 219.598 540.458 218.898 540.489L219.142 540.063C218.503 539.85 216.831 540.245 216.71 539.911C215.281 540.519 222.333 539.09 220.388 539.607C219.841 539.303 217.652 540.458 218.047 539.881C216.679 539.972 215.342 540.519 214.004 540.215C214.399 540.246 215.099 539.577 213.974 539.668C212.028 539.85 213.427 539.881 211.846 540.124L210.873 540.337C210.843 540.732 209.11 540.367 209.87 540.793C209.627 540.489 207.012 541.157 207.195 540.458L207.438 539.911C206.587 540.002 206.07 540.519 205.432 540.793C205.31 540.762 205.097 540.641 205.128 540.58C205.037 541.401 203.091 540.61 202.118 541.279C200.325 541.066 197.589 541.431 196.738 540.975C195.37 541.279 194.154 541.613 192.573 541.492C192.877 541.401 193.303 541.37 193.394 541.188C192.421 540.975 192.178 541.218 191.296 541.37C191.479 541.249 189.32 540.975 188.226 540.732C186.888 541.005 187.375 541.431 187.223 541.705C185.946 540.945 183.392 542.343 181.812 541.674C182.268 541.553 183.788 541.218 182.663 541.066C181.386 540.306 180.17 541.735 178.164 541.431L178.681 542.069C177.769 541.674 175.762 542.556 175.945 541.857C175.276 542.1 173.574 541.705 173.817 542.343C170.503 541.887 165.822 542.951 163.785 541.857C163.329 541.978 162.144 541.917 162.387 542.221C163.208 542.556 163.481 541.917 163.785 542.161C163.36 542.191 163.268 542.373 163.238 542.465C162.204 542.343 161.384 542.313 162.356 541.765C160.077 541.431 160.046 542.921 157.128 542.769C157.249 542.495 157.037 542.404 156.185 542.465L154.574 542.951C152.69 542.86 153.51 542.343 153.45 541.917C152.446 542.009 151.23 542.009 150.774 542.343L149.558 541.796C150.44 542.191 148.738 542.069 148.251 542.191L148.707 542.069C148.525 541.887 147.37 542.009 146.792 542.069C146.944 542.343 148.13 542.434 148.768 542.525C148.251 542.738 147.461 542.708 146.792 542.951C147.005 542.495 145.151 542.647 144.36 542.617C143.448 542.525 143.327 543.012 143.053 543.012C143.023 542.769 141.564 542.981 142.263 542.647C142.567 542.586 142.992 542.89 143.509 542.677C142.901 542.495 142.962 542.1 141.716 542.404C140.773 542.617 141.959 543.285 140.165 543.012C140.621 542.89 140.712 542.708 141.077 542.556L139.405 542.313L139.344 542.708C139.132 542.617 139.284 542.556 139.162 542.525C138.645 542.951 136.609 542.647 136.213 543.133C135.362 543.164 134.42 542.829 133.629 542.769L133.781 542.738C132.809 542.495 131.471 542.617 130.65 542.86L130.681 542.769C130.134 542.738 128.857 542.769 128.188 542.981C126.85 542.647 127.793 541.461 126.273 541.917C124.905 541.887 124.084 542.556 124.631 542.86C122.169 542.465 119.312 543.042 117.032 542.282C116.667 542.434 116.88 542.525 116.15 542.586C112.502 542.161 108.368 542.586 105.541 541.401C106.605 541.34 105.662 541.005 105.662 540.762C104.75 541.036 104.659 540.276 104.264 540.853C104.294 541.218 104.203 541.401 105.206 541.644C102.987 541.583 99.6738 541.309 98.5187 540.701C99.0962 540.975 98.6099 541.005 98.1235 541.036C98.3667 540.489 96.7859 540.154 95.5396 540.154L95.2964 540.489L94.5668 540.002C94.0804 540.033 93.9284 540.641 92.7733 540.124L92.4997 539.698C90.7669 539.212 90.1286 540.975 86.4503 537.692C85.4167 536.841 87.4535 532.98 88.3654 533.497L89.1558 533.588C89.855 533.375 91.1013 532.828 89.7334 532.95C92.5301 532.859 93.8676 532.889 94.6884 533.284C98.7011 531.977 104.538 531.825 109.158 531.855L109.037 532.129C110.283 532.372 109.675 531.643 110.557 531.825C110.161 532.099 111.529 532.372 110.526 532.676C112.32 532.919 112.837 532.19 113.992 532.068C114.174 531.703 113.049 532.311 113.293 531.855C113.505 531.734 115.755 532.099 116.028 531.582C116.484 531.795 116.12 532.19 115.907 532.403L117.001 532.129C118.339 532.737 113.961 533.254 115.39 534.014L116.393 533.923C117.366 534.47 113.749 534.561 116.272 534.743C117.366 534.47 118.278 533.679 117.305 533.467C119.585 533.284 118.339 532.19 120.801 532.22C121.47 532.524 118.825 532.311 119.312 532.737C120.467 533.163 121.622 532.463 122.655 532.615C121.5 532.433 122.473 531.886 123.203 531.764C124.449 532.007 122.412 532.281 124.175 532.311C124.449 532.007 126.09 531.764 124.662 531.551C125.3 530.852 126.486 531.703 127.458 531.156C128.036 531.643 125.665 532.311 127.61 532.524C127.306 532.068 129.982 531.855 128.948 531.156C129.708 531.278 129.799 531.643 129.252 531.947C130.346 532.22 131.866 531.035 132.231 531.977L132.596 531.491C132.93 531.643 133.417 531.764 133.994 532.007C134.937 532.007 137.034 531.278 136.973 532.007C137.277 531.916 139.436 531.886 138.584 531.43C137.247 531.156 137.065 531.855 136.274 531.187C137.247 531.703 138.22 531.065 138.98 530.852L139.101 531.126C139.557 531.004 140.621 531.004 140.895 530.7C140.56 530.883 140.743 531.065 141.108 531.126L141.564 530.67C143.418 530.366 142.05 531.399 143.843 531.187L142.476 531.582C142.78 531.491 143.418 531.886 144.269 531.703C144.573 531.308 145.181 530.791 145.455 530.457C146.458 530.214 145.941 530.852 146.883 530.396L145.607 530.943C145.424 531.065 146.488 531.521 147.947 531.43C148.798 531.217 150.106 530.548 148.738 530.457C149.406 530.396 150.379 530.548 149.862 530.883C151.382 530.609 149.619 530.487 150.926 530.123C151.504 530.335 153.237 530.518 154.331 530.791L152.994 531.582L153.936 531.491C152.781 532.129 154.605 531.825 153.966 532.433C154.605 532.463 155.365 532.19 155.973 531.977C153.997 531.308 157.949 530.548 157.31 529.819C159.833 529.332 159.134 531.582 161.657 530.031C161.201 529.879 162.387 529.12 160.806 529.545C162.417 529.454 161.809 528.633 163.724 528.724C162.356 529.211 165.305 529.363 163.36 530.062C163.451 529.788 162.204 530.001 161.9 530.092C162.6 530.335 161.87 530.913 163.481 530.731C164.484 530.548 165.852 530.366 165.579 529.971C165.488 529.515 164.059 530.183 164.636 529.667C166.612 529.271 167.007 529.94 167.737 529.028C166.491 529.241 166.126 528.815 166.095 528.511L167.524 528.147L167.281 528.481C169.652 528.42 167.919 527.843 170.169 527.66L171.294 528.147C170.807 528.724 167.98 528.299 168.467 529.089C169.956 528.937 170.382 528.451 171.811 528.511L170.807 528.816C171.324 528.785 171.993 529.819 174.03 528.907C175.094 528.512 174.273 528.572 174.273 528.268C176.614 527.873 177.282 527.478 178.802 527.235C178.559 527.873 181.508 526.961 179.897 527.782C179.076 527.508 175.641 527.964 174.881 528.664C175.823 529.271 172.996 528.785 172.601 529.575C174.516 529.363 174.486 530.092 174.85 530.518C175.367 530.487 175.854 530.214 176.188 530.123C176.34 529.636 175.671 529.758 175.58 529.302C177.708 529.15 179.714 528.663 180.839 528.086C181.569 528.208 181.417 528.694 180.565 528.816C183.058 528.39 185.764 528.116 188.196 527.964C186.554 527.448 190.84 527.478 189.715 526.992C188.408 526.992 187.253 526.596 187.922 526.201C188.743 526.14 187.922 526.505 188.287 526.627C189.259 526.11 189.959 527.052 190.871 526.323C188.591 526.84 190.536 527.265 190.171 527.873C191.813 527.356 190.141 528.268 191.813 528.086C193.424 527.569 195.43 527.083 197.254 526.748C199.625 527.022 203.121 526.08 205.189 525.836C206.313 525.988 205.644 526.718 206.83 526.688C208.198 526.536 205.736 526.11 207.803 526.171L207.62 526.323C208.228 526.11 211.42 526.353 211.907 525.38L211.359 526.14C211.755 526.171 212.089 525.958 212.393 525.867C212.423 526.08 212.91 526.262 212.302 526.475C213.609 526.84 214.947 526.14 216.315 525.988L215.403 525.654C217.713 525.107 219.324 525.38 221.604 525.046L221.574 525.441L222.911 525.107C222.607 525.532 223.853 525.684 224.553 525.32L221.118 526.566C220.114 526.414 222.151 525.988 221.513 525.654C220.966 525.35 218.868 525.624 218.564 526.049C219.354 526.019 219.385 525.928 220.023 525.745C220.327 526.292 219.111 526.353 218.534 526.779C218.959 526.718 219.567 526.84 219.628 526.657C218.838 526.992 217.986 527.113 216.619 527.265C217.53 526.961 216.071 526.961 216.406 526.779C216.345 527.265 215.038 527.569 213.335 527.6C212.059 527.144 210.174 528.299 208.198 528.359C208.928 527.782 209.931 527.265 211.086 526.931C209.84 526.809 209.718 527.083 208.441 526.961C207.894 527.387 207.529 527.995 205.918 528.42L205.796 528.056C204.368 528.42 204.429 528.937 202.544 529.059C199.322 529.241 196.069 529.636 193.637 529.879L193.515 529.515C192.269 530.457 189.047 530.335 187.253 530.913C184.122 530.943 180.565 532.068 178.893 531.643C173.452 532.585 168.71 533.467 163.025 533.983L163.907 533.345C162.934 533.862 163.208 533.102 162.235 533.315C163.42 533.619 160.897 534.014 160.259 534.439C157.675 534.318 154.483 535.108 152.264 535.686L152.142 535.321C149.893 536.233 147.157 535.807 144.269 535.898C143.935 535.777 143.387 535.442 142.567 535.503C141.047 536.172 140.226 536.172 137.976 536.598C136.305 536.658 133.629 536.567 131.958 536.354C125.756 537.327 119.403 536.841 112.989 537.388L112.533 536.962C106.331 537.966 98.6099 537.206 93.442 538.026L93.898 537.266C92.2261 537.145 90.3414 537.783 90.8885 538.27C90.7365 537.874 90.007 539.212 90.2502 537.479C89.9766 535.199 88.4566 536.628 91.0101 534.591L90.6757 534.227C91.3141 534.348 92.2261 534.561 92.5909 534.956C94.1716 535.382 94.658 534.956 96.0564 535.078C99.309 535.898 100.555 536.081 103.747 536.233L102.957 536.111C102.592 536.233 102.531 536.537 103.322 536.689C104.538 536.628 107.669 537.358 106.574 536.354C109.888 537.297 114.539 536.567 117.792 537.51C117.518 537.266 118.369 537.266 118.734 537.114C121.743 537.236 124.875 537.844 127.276 537.54C127.732 537.662 126.486 537.935 127.732 537.996C128.462 537.905 127.762 537.692 128.644 537.57C133.508 537.236 138.493 538.239 142.932 538.087C150.835 537.631 159.013 537.631 166.612 537.266L166.521 537.449C169.044 536.689 172.51 537.935 174.516 536.871C175.124 537.023 176.826 536.871 176.37 537.236C178.377 536.689 182.055 537.51 184.943 536.78L184.213 536.902C187.192 537.206 189.776 536.567 192.907 536.81C192.603 536.902 192.026 536.962 191.935 537.145C193.151 537.449 194.762 536.294 195.461 537.114C196.16 537.084 195.947 536.658 195.522 536.719C202.361 536.78 209.627 535.929 216.649 535.29C221.726 535.473 217.044 536.719 220.996 535.807C221.33 535.959 221.209 535.473 221.27 535.625C222.789 535.29 223.732 536.385 224.765 535.838C224.279 535.351 225.434 535.473 225.434 535.169C228.505 535.199 229.204 535.625 231.453 534.865L231.332 535.169C232.7 534.622 233.733 534.135 234.706 533.588C234.128 533.071 234.706 534.865 236.135 534.804C235.283 534.227 234.888 537.023 234.675 536.415C234.432 536.415 234.007 536.415 233.338 536.537C218.503 534.409 202.969 535.503 187.375 535.29C171.962 534.531 157.067 533.953 141.716 533.74C138.098 533.041 137.824 533.102 133.964 533.679C134.116 533.558 134.359 533.497 134.085 533.406C133.933 534.014 131.35 533.649 131.046 534.257L127.215 534.865L125.361 535.199L125.118 535.23L124.996 535.26H124.935C124.206 541.005 125.939 527.417 125.756 528.816H125.787L126.182 528.998L126.972 529.363C129.07 530.396 131.684 531.187 134.389 531.947C133.508 531.764 132.93 532.099 133.994 532.372L135.18 532.311L135.301 532.524C136.031 532.646 136.882 532.524 136.183 532.159C150.197 535.047 164.606 537.662 178.924 537.844C182.329 538.178 187.162 537.905 190.779 537.51C193.515 537.57 196.13 537.449 198.653 537.236C199.899 537.054 201.237 537.023 202.392 536.719L204.185 536.324L204.641 536.233L204.854 536.172H204.915H204.945C205.34 532.068 204.429 541.796 204.52 540.793H204.489L204.429 540.762L203.79 540.458C200.841 538.726 192.816 540.762 188.834 537.175C189.229 540.519 189.138 536.294 194.427 537.297Z" fill="#DAD8CC"/>
<path d="M225.897 526.353C225.472 526.079 224.195 526.019 225.198 525.532C225.35 525.806 226.019 526.079 225.897 526.353Z" fill="#DAD8CC"/>
<path d="M191.207 526.779C191.177 526.87 190.69 526.718 190.569 526.687C190.994 526.627 191.359 526.323 191.724 526.444C191.298 526.505 191.389 526.657 191.207 526.779Z" fill="#DAD8CC"/>
<path d="M182.393 527.691C182.484 527.417 184.339 526.992 185.463 526.809L182.393 527.691Z" fill="#DAD8CC"/>
<path d="M174.093 527.6C173.364 527.478 173.546 527.326 174.488 527.204C174.549 527.326 174.276 527.448 174.093 527.6Z" fill="#DAD8CC"/>
<path d="M173.576 528.268C172.907 528.359 172.542 528.238 172.208 528.147C172.238 528.359 173.758 527.812 173.576 528.268Z" fill="#DAD8CC"/>
<path d="M155.761 529.575C155.336 529.636 154.454 529.971 154.029 529.697C154.485 529.849 156.065 529.15 155.761 529.575Z" fill="#DAD8CC"/>
<path d="M147.643 530.731C147.279 530.731 147.248 530.7 146.914 530.791C146.427 530.7 146.914 530.487 147.309 530.427L147.643 530.731Z" fill="#DAD8CC"/>
<path d="M179.992 541.735L179.111 541.887L179.232 541.613L179.992 541.735Z" fill="#DAD8CC"/>
<path d="M227.988 530.518C227.046 530.579 227.381 530.214 227.229 530.153C228.049 530.183 226.894 530.427 227.988 530.518Z" fill="#DAD8CC"/>
<path d="M192.028 530.731H192.302L192.241 531.278L192.028 530.731Z" fill="#DAD8CC"/>
<path d="M182.876 234.311C182.876 234.311 189.442 229.386 214.248 227.41C224.583 226.589 248.264 233.612 270.881 242.184C283.496 246.957 317.908 254.526 324.261 255.681C335.175 257.687 370.316 266.047 370.316 273.981C370.316 281.915 361.409 288.877 340.586 298.817C319.762 308.727 254.617 321.039 234.433 352.38C208.259 393.054 201.845 443.638 199.869 467.47C197.893 491.273 190.932 521.064 190.932 521.064C190.932 521.064 224.978 520.03 220.023 526.961C215.068 533.923 201.997 527.113 201.997 527.113C201.997 527.113 205.827 535.929 201.845 536.932C197.863 537.935 192.816 529.211 192.816 529.211C192.816 529.211 193.911 536.111 185.977 537.023C178.012 537.935 176.249 532.889 178.225 523.982C180.201 515.045 179.806 481.94 179.167 481.393C178.255 480.633 135.241 481.393 135.241 481.393L131.867 520.091C131.867 520.091 158.04 526.049 155.061 530.031C152.112 534.014 139.527 528.208 139.527 528.208C139.527 528.208 149.103 535.382 143.145 537.175C137.186 538.969 131.38 533.193 131.38 533.193C134.542 546.568 115.147 539.06 118.339 527.052V477.441C118.339 477.441 98.6101 509.026 61.797 509.178C15.9554 509.391 -44.5993 470.571 -64.3586 449.869C-84.6954 428.59 -76.9437 434.396 -52.2902 440.719C-18.1522 449.474 8.72046 444.762 26.1087 439.716C38.937 435.977 56.5684 430.505 74.9901 434.883C90.2504 438.5 111.53 455.767 111.53 455.767C111.53 455.767 105.936 400.532 147.066 345.388C154.97 334.779 148.768 315.871 148.768 315.871C148.768 315.871 144.786 316.205 140.469 316.965C133.356 318.242 127.307 327.605 130.286 319.671C133.265 311.737 144.178 304.806 144.178 304.806C144.178 304.806 141.017 299.699 125.665 300.915C115.634 301.736 138.494 287.266 138.494 287.266C138.494 287.266 126.456 285.259 118.43 284.469C114.357 284.074 142.476 270.729 142.476 270.729C142.476 270.729 143.297 269.33 143.053 261.609C142.932 257.779 144.209 246.288 144.209 246.288C144.209 246.288 139.77 220.51 138.524 210.569C137.278 200.629 138.524 189.746 138.524 189.746C138.524 189.746 159.499 206.404 169.683 216.983C177.1 224.613 182.876 234.311 182.876 234.311Z" fill="#F39200"/>
<path d="M177.314 371.015C177.314 371.015 167.282 383.782 163.33 391.382C159.348 399.012 158.831 411.081 159.196 413.664C159.591 416.248 167.647 425.794 163.695 428.195C161.172 429.715 156.977 425.307 156.977 425.307C156.977 425.307 155.852 430.05 153.238 431.721C149.347 434.245 149.043 424.517 149.043 424.517C149.043 424.517 144.756 435.582 138.98 431.174C135.485 428.499 140.348 422.632 147.583 409.652C153.542 398.951 162.388 360.862 162.388 360.862" fill="#FAB415"/>
<path d="M238.202 351.559C211.268 391.23 204.459 429.867 203.881 466.711C192.664 466.923 179.501 465.799 168.77 466.711C167.889 459.749 169.591 452.484 169.591 445.188C169.591 374.875 197.376 336.907 252.276 323.167C257.11 321.981 284.803 315.628 289.576 316.661C269.786 324.383 247.716 337.515 238.202 351.559Z" fill="white"/>
<g opacity="0.8">
<g opacity="0.8">
<path opacity="0.8" d="M289.607 316.661C269.787 324.383 247.748 337.485 238.202 351.559C211.269 391.23 204.46 429.867 203.882 466.71" stroke="#DAD8CC" stroke-width="0.218" stroke-linecap="round"/>
</g>
</g>
<path d="M360.926 264.102C372.508 267.385 388.498 271.397 379.226 279.119C368.07 288.39 347.824 295.2 347.824 295.2C347.824 295.2 338.157 267.81 340.924 259.511C340.924 259.511 356.701 262.916 360.926 264.102Z" fill="black"/>
<path d="M222.211 230.085C222.211 230.085 211.267 215.433 205.492 207.712C199.716 200.021 183.635 181.842 182.723 183.058C181.841 184.274 178.467 191.965 179.652 205.189C180.838 218.412 183.665 235.283 183.665 235.283L222.211 230.085Z" fill="#F39200"/>
<path d="M-52.2594 440.659C-20.4317 448.806 5.07297 445.279 22.4612 440.689C15.6518 447.438 4.82976 458.047 8.23444 458.047C13.0679 458.047 33.4048 466.741 27.5986 466.741C21.7924 466.741 7.59607 469.629 7.59607 469.629C7.59607 469.629 23.7379 483.673 21.7924 484.616C19.8468 485.588 0.513115 479.782 0.513115 479.782C0.513115 479.782 1.51628 487.564 1.33389 493.37C-27.1195 480.299 -52.7154 461.938 -64.3278 449.809C-84.6647 428.529 -76.913 434.336 -52.2594 440.659Z" fill="white"/>
<g opacity="0.8">
<g opacity="0.8">
<path opacity="0.8" d="M1.33389 493.37C-27.1195 480.299 -52.7154 461.938 -64.3278 449.809C-84.6647 428.529 -76.913 434.336 -52.2594 440.659C-20.4317 448.806 5.07297 445.279 22.4612 440.689" stroke="#DAD8CC" stroke-width="0.218" stroke-linecap="round"/>
</g>
</g>
<path d="M171.628 240.056C171.628 240.056 150.927 217.743 150.38 220.51C149.802 223.276 150.38 245.862 150.38 245.862C150.38 245.862 158.405 242.549 161.262 242.002C164.15 241.454 171.628 240.056 171.628 240.056Z" fill="white"/>
<path d="M192.088 209.961C190.477 209.08 189.991 211.481 189.899 215.737C189.808 219.993 189.778 231.484 189.778 231.484L205.859 227.836C205.859 227.866 193.699 210.843 192.088 209.961Z" fill="white"/>
<path d="M209.325 258.751C209.325 268.145 218.84 278.511 229.844 278.511C238.113 278.511 247.536 269.695 242.794 257.14C238.417 245.619 231.546 243.248 222.974 244.433C214.797 245.528 209.325 249.389 209.325 258.751Z" fill="white"/>
<path d="M234.528 266.673C234.528 268.132 233.342 269.287 231.883 269.287C230.424 269.287 229.238 268.102 229.238 266.673C229.238 265.214 230.424 264.028 231.883 264.028C233.342 264.028 234.528 265.214 234.528 266.673Z" fill="black"/>
<path d="M206.77 440.263C166.795 443.243 145.425 442.756 139.254 442.391C122.23 441.358 111.469 436.737 111.469 436.737C111.469 436.737 110.831 453.761 111.469 467.653C112.199 483.369 114.904 496.684 114.904 496.684C114.904 496.684 142.841 492.58 148.1 493.31L149.741 484.463L177.647 481.849V491.455H203.243L206.77 440.263Z" fill="#00A0A4"/>
<path d="M194.338 449.262H184.215V442.148H194.703L194.338 449.262Z" fill="#454444"/>
<path d="M235.615 299.699C235.615 299.699 242.425 306.538 252.274 303.681C251.666 307.572 249.69 315.537 243.823 315.172C236.102 314.685 235.615 299.699 235.615 299.699Z" fill="black"/>
<path d="M184.217 443.243C184.217 443.243 185.463 393.024 169.443 369.951C162.847 360.436 139.287 352.319 139.287 352.319L142.449 347.851C142.449 347.851 164.275 353.626 177.499 370.285C191.513 387.947 194.34 443.243 194.34 443.243H184.217Z" fill="black"/>
</svg>
