<?xml version="1.0" encoding="utf-8"?>
<!-- Generator: Adobe Illustrator 25.3.1, SVG Export Plug-In . SVG Version: 6.00 Build 0)  -->
<svg version="1.1" id="Layer_1" xmlns="http://www.w3.org/2000/svg" xmlns:xlink="http://www.w3.org/1999/xlink" x="0px" y="0px"
	 viewBox="0 0 994 768" style="enable-background:new 0 0 994 768;" xml:space="preserve">
<style type="text/css">
	.st0{fill:#D3ACC2;}
	.st1{fill:#DAD8CC;}
	.st2{fill:#2FAC66;}
	.st3{fill:none;stroke:#B9B5A3;stroke-width:1.5;stroke-linecap:round;stroke-linejoin:round;stroke-miterlimit:10;}
	.st4{fill:#F39200;}
	.st5{fill:#814114;}
	.st6{fill:#A85318;}
	.st7{fill:#302F2B;fill-opacity:0.53;}
	.st8{fill:#FFFFFF;}
	.st9{fill:#00A0A4;}
	.st10{fill:#454444;}
	.st11{fill:none;stroke:#000000;stroke-width:1.69;}
	.st12{fill:#007572;}
	.st13{fill:none;stroke:#B9B5A3;stroke-width:1.268;stroke-linecap:round;stroke-linejoin:round;stroke-miterlimit:10;}
	.st14{fill:none;stroke:#FBBA00;stroke-width:1.746;}
	.st15{fill:#E30613;}
	.st16{fill:#FBBA00;}
	.st17{fill:#FFDE00;}
	.st18{fill:none;stroke:#B9B5A3;stroke-width:1.817;stroke-linecap:round;stroke-linejoin:round;stroke-miterlimit:10;}
	.st19{fill:#FAB415;}
</style>
<path class="st0" d="M171.8,515.3c19.3,137.2,68.9,167.6,239.7,183.5c170.9,15.9,267.2-8.9,359.3-77.7
	c92.1-68.9-40.1-234.6,65.4-276.4c105.5-41.9,28.2-139.3-55.1-147.9c-83.3-8.6-281.8,11.6-398,57.7
	C267.1,300.5,152.4,378.1,171.8,515.3z"/>
<path class="st1" d="M84.2,77.8c0,0,18.9,358-7.1,405c67.9,4.9,548.3-0.2,548.3-0.2c9.1-1.8,18.3-24.9,9.3-60.2
	c-0.5-1.7-11.9-1.1-11.9-1.1c-3.2-35.4-7.8-148.5-9.9-204.5c-5.1-132,2.2-106-0.5-126c-0.1-0.9,5.3-1.3,5.6-1.9
	c3.6-7.7,1.6-14.9,1.6-14.9L84.2,77.8z"/>
<path class="st2" d="M994,768c-47.9-4.7,49.8-262.7-121-283.1S266.7,649.3,241,768H994L994,768z"/>
<path class="st3" d="M752.7,334.7l5.4-6.5"/>
<path class="st4" d="M673.4,414.2c-9.4-5.6-13.9-8-13.9-3.8c0,4.3,8.3,7.1,7,10.9C665,425.2,673.4,414.2,673.4,414.2z"/>
<path class="st5" d="M703.4,644.7l-14.2-3.8l-0.9-48.7h15.1V644.7z"/>
<path class="st6" d="M710.9,638l-7.5,6.6v-52.5h8.4L710.9,638z"/>
<path class="st5" d="M735.5,623.4l-14.2-3.8l-0.9-48.7h15.1V623.4z"/>
<path class="st6" d="M742,616.8l-6.5,6.6v-52.5h8.4L742,616.8z"/>
<path class="st5" d="M767.9,654.3l-14.2-3.8l-0.9-48.7h15.1V654.3z"/>
<path class="st6" d="M775.3,647.7l-7.5,6.6v-52.5h8.4L775.3,647.7z"/>
<path class="st5" d="M804.4,628.1l-14.2-3.8l-0.9-48.7h15.1V628.1z"/>
<path class="st6" d="M810.9,621.4l-6.5,6.6v-52.5h8.4L810.9,621.4z"/>
<path class="st5" d="M675.7,578.7c0,0-2,13.7-0.2,15.7c1.9,2,95.1,13.9,96.8,12.1c1.8-1.8,1-16.8,1-16.8L675.7,578.7z"/>
<path class="st5" d="M823.6,559.8c0,0-0.9,16-2.8,17.3c-48.7,31.4-48.7,29.5-48.7,29.5v-16.9L823.6,559.8z"/>
<path class="st6" d="M732.5,551.3l89.8,6.3c0,0,3.3,1-0.6,4.5c-5,4.5-33.2,21.6-46.9,27.5c-10.6,0.8-90.6-7.8-99.1-10.9
	c-6.1-2.2,44-23,48.3-25C724.3,553.5,728.1,551.3,732.5,551.3z"/>
<path d="M702.6,573.9c0,1.9-1.6,2.2-4.1,2.2c-2.6,0-3.9-0.3-3.9-2.2c0-1.9,1.8-3.5,4-3.5C700.8,570.5,702.6,572,702.6,573.9z"/>
<path d="M736.1,558.9c0,1.9-1.6,2.2-4.2,2.2c-2.6,0-3.9-0.3-3.9-2.2c0-1.9,1.8-3.5,4-3.5C734.3,555.4,736.1,557,736.1,558.9z"/>
<path d="M778.5,581.4c0,1.9-1.6,2.2-4.1,2.2c-2.6,0-3.9-0.3-3.9-2.2c0-1.9,1.8-3.5,4-3.5C776.8,578,778.5,579.5,778.5,581.4z"/>
<path d="M805.7,564.6c0,1.9-1.6,2.2-4.1,2.2c-2.6,0-3.9-0.3-3.9-2.2c0-1.9,1.8-3.5,4-3.5C803.9,561.1,805.7,562.7,805.7,564.6z"/>
<path class="st7" d="M703.8,563.6c-1.4,0,0.7,0.4-0.9,0.1C703.1,563.6,703.4,563.5,703.8,563.6z"/>
<path class="st7" d="M728.3,572.2c-2.1,1.1-4.7,0.4-7.1,1.3c-0.3,0.1-0.6,0.3-0.9,0.4c0.2,0.3,0.6,0.3,0.9,0.4l1.9,0.5
	c1.3,0.2,2.5,0.4,3.7,0.4c0.6,0-0.2,0.5,1.1,0.5c4.7-0.2,11.9,0.3,17.6,0.6l-0.3,0.2c1.1,0.1,2.4-0.5,3.5-0.5c0,0.1-0.4,0.2-0.1,0.3
	c0.3-0.3,2-0.3,2.5-0.6c0.5,0.1,0.4,0.3,1,0.4l0.6-0.4c1.7-1,4.4-0.4,6.8-1.2c-0.1,0.1-0.3,0.2-0.1,0.2c3.9-1.1,8.8-1.8,13-3.1
	c-0.1,0.2-0.2,0.4,0,0.5c0.1-0.4,1.4-0.9,2.5-1.3c0.6,0.2,1.8-1,3.1-1.3l-0.1,0.1c0.7-0.3,1.5-1.7,1.9,0l-0.5-0.4
	c-0.5,0.4-1.4-0.6-2.3-0.4l0,0.1c-0.8,0-1.2-0.3-1.9-0.3l-0.1-0.1c-1.7,0-2.7-0.4-2.7,0c-0.6-0.4,1.7,0,0.8-0.6
	c-5.7,0.1-11.6,0-17.4,0.2c-0.7-0.2-1.1-0.2-1.2-0.3c-0.6,0.1-2.2,0.1-2.7,0.4c0.2,0-0.4-0.2-0.7-0.2c-1.1-0.1-1.1,0.5-2.3,0.4
	c0.5-0.1,0.6-0.3,0.4-0.4c-1,0.4-2.3,0.4-3.4,0.5c0.2-0.1,0.5-0.1,0.4-0.3c-1.3,0.4-2.3,0-3.4,0.3l0.4-0.3c-1.8-0.2-0.5,0.5-2.1,0.4
	c0.4-0.1,0.2-0.2,0.3-0.3c-1.4,0.5-3.8,0.5-5.2,0.7c0.1,0,0.1-0.1,0.1-0.1c-1.6,0.1-3.2,0.1-4.9,0.3c-0.6-0.1,0.2-0.6-1.5-0.5
	c0.1,0.5-2.8,0.2-1.8,0.7c-1.4-0.1-3.7-0.3-4.6-0.1c0.6-0.2-0.7-0.6,0.5-0.7l-0.9-0.3c0.1-0.2,0.9,0.1,0.6-0.2
	c-0.6,0-2.3,0.2-2.8,0.2c-1.1,0.3-2.1,0.9-3.9,1c0.8-0.2-0.5-0.5,0.1-0.6l-2.4,1c-0.6,0-0.1-0.4-1-0.2c0,0.1-0.3,0.2-0.6,0.3
	c-0.2,0-2.4,0.2-2.7-0.2c-0.3-0.2,1-0.2,0.3-0.3c-1.1,0.1-1.1,0.2-2.2,0.3l0-0.1c-0.7,0-2.1,0.3-1.3,0.6c0.5,0-0.2-0.3,0.5-0.2
	c-0.5,0.3-1.7,0.5-2.8,0.6c0.4-0.1,0.3-0.2,0.4-0.4c-1.4,0.5-2.9,0.8-4.4,1.2c0,0.2,0.5-0.5,0.8-0.4c-1,0-2.2,0.3-2.7,0.7
	c0.1,0.7,0.1-1.7,0.1-1c0.3,0.2,0.6,0.3,1,0.6c-0.3-0.1,0-0.4,0-0.3c0.8,0.3,0.7,0.6,1.3,0.6c0,0.2,0.8,0.1,1.5,0.1
	c0.3-0.1,0.2,0.1-0.4,0.1c0.9,0,4.7,0.1,6.8,0.5c0-0.1,1.4-0.4,1.9-0.3l-0.2,0.3c0.4,0.2,1.7,0.1,1.7,0.3c1.1-0.3-4.1,0-2.7-0.2
	c0.4,0.3,2-0.3,1.7,0c1,0,2-0.2,2.9,0.1c-0.3-0.1-0.8,0.4,0,0.4c1.4,0,0.4-0.1,1.6-0.2l0.7-0.1c0.1-0.3,1.3,0.1,0.8-0.3
	c0.2,0.3,2.1,0,1.9,0.4l-0.2,0.4c0.6,0,1-0.4,1.5-0.5c0.1,0,0.2,0.1,0.2,0.2c0.1-0.6,1.5,0.1,2.2-0.3c1.3,0.3,3.3,0.2,3.9,0.5
	c1-0.1,1.9-0.3,3.1-0.2c-0.2,0-0.5,0-0.6,0.2c0.7,0.2,0.9,0.1,1.5,0c-0.2,0.1,1.4,0.4,2.2,0.6c1-0.1,0.7-0.5,0.8-0.7
	c0.9,0.6,2.8-0.3,3.9,0.3c-0.3,0.1-1.5,0.2-0.6,0.4c0.9,0.6,1.8-0.4,3.3,0l-0.3-0.5c0.6,0.3,2.2-0.2,2,0.3c0.5-0.2,1.7,0.2,1.6-0.3
	c2.4,0.5,5.8,0,7.3,0.8c0.3-0.1,1.2,0,1-0.2c-0.6-0.3-0.8,0.2-1,0c0.3,0,0.4-0.1,0.4-0.2c0.7,0.1,1.3,0.2,0.6,0.6
	c1.7,0.3,1.7-0.8,3.8-0.5c-0.1,0.2,0.1,0.3,0.7,0.3l1.2-0.3c1.4,0.1,0.8,0.5,0.8,0.8c0.7,0,1.6,0,2-0.3l0.9,0.4
	c-0.6-0.3,0.6-0.2,0.9-0.3l-0.3,0.1c0.1,0.1,1,0.1,1.4,0c-0.1-0.2-1-0.3-1.4-0.4c0.4-0.1,1-0.1,1.4-0.3c-0.2,0.3,1.2,0.2,1.8,0.3
	c0.7,0.1,0.7-0.3,0.9-0.3c0,0.2,1.1,0,0.6,0.3c-0.2,0.1-0.5-0.2-0.9,0c0.4,0.1,0.4,0.4,1.3,0.2c0.7-0.2-0.2-0.6,1.1-0.4
	c-0.3,0.1-0.4,0.2-0.7,0.3l1.2,0.2l0-0.3c0.2,0.1,0,0.1,0.1,0.1c0.4-0.3,1.9-0.1,2.1-0.5c0.6,0,1.3,0.2,1.9,0.2l-0.1,0
	c0.7,0.2,1.7,0,2.3-0.2l0,0.1c0.4,0,1.3,0,1.8-0.2c1,0.2,0.4,1.1,1.4,0.7c1,0,1.5-0.6,1.1-0.8c1.8,0.1,3.8-0.4,5.5-0.1
	c0.3-0.1,0.1-0.2,0.6-0.3c2.6-0.1,5.5-0.7,7.6-0.4c-0.7,0.2,0,0.3,0,0.5c0.6-0.3,0.8,0.2,1-0.3c-0.1-0.3,0-0.4-0.8-0.4
	c1.5-0.3,3.9-0.5,4.8-0.5c-0.4-0.1-0.1-0.2,0.2-0.3c0,0.4,1.1,0.3,1.9,0l0.1-0.3l0.6,0.2c0.3-0.1,0.3-0.6,1.2-0.5
	c0.1,0.1,0.1,0.2,0.3,0.2c0.4-0.2,0.9-0.4,1.4-0.6c0.1,0.2,1.6-1.3,0.1,0.6c0.3,3.3,0.8,1.6,1,2.1c0-0.1-0.1-0.1-0.1-0.2
	c-0.3,0-1,0.1-0.4,0.3c-1.4-0.4-2.6-0.5-3-0.8c-2.9,0.6-7.1,0.6-10.5,0.5l0.1-0.2c-0.9-0.2-0.5,0.3-1.1,0.2c0.3-0.2-0.7-0.4,0-0.6
	c-1.3-0.2-1.7,0.3-2.5,0.4c-0.1,0.3,0.7-0.2,0.5,0.2c-0.2,0.1-1.8-0.2-2,0.2c-0.3-0.2-0.1-0.4,0.1-0.6l-0.8,0.2
	c-1-0.5,2.2-0.8,1.2-1.3l-0.7,0.1c-0.7-0.4,1.9-0.4,0.1-0.6c-0.8,0.2-1.5,0.7-0.8,0.9c-1.7,0.1-0.8,0.9-2.6,0.9
	c-0.5-0.2,1.4,0,1.1-0.4c-0.8-0.3-1.7,0.2-2.4,0c0.8,0.2,0.1,0.5-0.4,0.6c-0.9-0.2,0.6-0.4-0.7-0.4c-0.2,0.2-1.4,0.4-0.4,0.5
	c-0.5,0.5-1.3-0.2-2,0.2c-0.4-0.4,1.3-0.8-0.1-1c0.2,0.3-1.8,0.4-1,1c-0.6-0.1-0.6-0.4-0.2-0.6c-0.8-0.2-1.9,0.6-2.2-0.1l-0.3,0.3
	c-0.2-0.1-0.6-0.2-1-0.4c-0.7,0-2.3,0.4-2.2-0.1c-0.2,0-1.8,0-1.2,0.4c1,0.3,1.2-0.2,1.7,0.3c-0.7-0.4-1.4,0-2,0.1l-0.1-0.2
	c-0.3,0.1-1.1,0-1.4,0.2c0.3-0.1,0.1-0.3-0.1-0.3l-0.4,0.3c-1.4,0.1-0.3-0.6-1.7-0.5l1-0.2c-0.2,0-0.7-0.3-1.3-0.2
	c-0.3,0.3-0.8,0.6-1,0.8c-0.8,0.1-0.3-0.3-1.1-0.1l1-0.3c0.2-0.1-0.7-0.5-1.6-0.6c-0.7,0-1.7,0.4-0.7,0.6c-0.5,0-1.2-0.3-0.8-0.4
	c-1.2,0,0.1,0.3-0.9,0.4c-0.4-0.2-1.6-0.6-2.4-1l1.1-0.4l-0.7-0.1c0.9-0.3-0.4-0.3,0.1-0.7c-0.5-0.1-1,0-1.5,0
	c1.3,0.8-1.6,0.7-1.3,1.3c-1.9,0-1-1.5-3.1-0.9c0.3,0.2-0.7,0.5,0.5,0.5c-1.2-0.2-0.9,0.5-2.2,0.1c1-0.1-1-0.7,0.5-0.9
	c-0.1,0.2,0.8,0.2,1,0.2c-0.5-0.3,0.2-0.6-1-0.7c-0.7,0-1.7-0.1-1.6,0.2c0,0.3,1.1,0.1,0.6,0.4c-1.5-0.1-1.7-0.6-2.3-0.1
	c0.9,0.1,1.1,0.4,1.1,0.7l-1.1,0l0.2-0.2c-1.7-0.4-0.6,0.3-2.2,0.1l-0.7-0.5c0.4-0.3,2.4,0.5,2.2-0.2c-1.1-0.2-1.5,0.1-2.5-0.2
	l0.8,0c-0.4-0.1-0.7-0.9-2.3-0.6c-0.8,0.1-0.2,0.2-0.3,0.4c-1.7-0.1-2.3,0-3.4-0.1c0.3-0.4-2-0.3-0.7-0.6c0.5,0.3,3,0.6,3.7,0.3
	c-0.6-0.6,1.3,0.2,1.8-0.3c-1.4-0.2-1.3-0.7-1.4-1.1c-0.4-0.1-0.8,0-1,0.1c-0.2,0.3,0.3,0.4,0.3,0.7c-1.5-0.3-3.1-0.3-3.9-0.1
	c-0.5-0.2-0.3-0.5,0.3-0.5c-1.8-0.1-3.8-0.4-5.6-0.7c1.1,0.7-2-0.1-1.2,0.4c0.9,0.2,1.7,0.7,1.1,0.9c-0.6-0.1,0-0.2-0.2-0.4
	c-0.8,0.2-1.1-0.6-1.9-0.2c1.7,0,0.4-0.6,0.8-1c-1.2,0.1,0.1-0.3-1.1-0.4c-1.2,0.1-2.7,0.1-4.1,0c-1.6-0.6-4.3-0.5-5.8-0.7
	c-0.8-0.3-0.2-0.7-1-0.9c-1-0.1,0.7,0.6-0.8,0.2l0.2-0.1c-0.5,0.1-2.7-0.6-3.2,0l0.5-0.5c-0.3-0.1-0.5,0-0.8,0
	c0-0.2-0.3-0.3,0.2-0.4c-0.9-0.4-1.9-0.1-2.9-0.2l0.6,0.4c-1.7,0.1-2.8-0.3-4.5-0.4l0.1-0.3l-1,0.1c0.3-0.3-0.6-0.5-1.2-0.3l2.6-0.5
	c0.7,0.2-0.8,0.3-0.4,0.6c0.4,0.3,1.9,0.3,2.2,0.1c-0.6-0.1-0.6,0-1.1,0c-0.2-0.4,0.7-0.3,1.2-0.6c-0.3,0-0.7-0.2-0.8,0
	c0.6-0.1,1.2-0.1,2.2,0c-0.7,0.1,0.3,0.3,0.1,0.4c0.1-0.3,1.1-0.4,2.3-0.2c0.8,0.5,2.4,0,3.8,0.2c-0.6,0.3-1.4,0.5-2.3,0.6
	c0.9,0.3,1,0.1,1.9,0.4c0.5-0.2,0.8-0.6,2-0.6l0,0.3c1.1,0,1.1-0.4,2.5-0.2c2.3,0.4,4.7,0.7,6.5,0.9l0,0.3c1.1-0.5,3.3,0.2,4.7,0.1
	c2.2,0.5,4.9,0.3,6,0.9c4,0.3,7.5,0.5,11.6,1.1l-0.7,0.3c0.8-0.2,0.5,0.3,1.2,0.3c-0.8-0.4,1.1-0.3,1.6-0.5c1.8,0.5,4.2,0.4,5.9,0.3
	l0,0.3c1.7-0.4,3.6,0.3,5.6,0.5c0.2,0.1,0.6,0.4,1.2,0.4c1.1-0.4,1.7-0.3,3.4-0.5c1.2,0,3.1,0.2,4.3,0.4c4.5-0.5,9.1-0.1,13.8-0.4
	l0.3,0.3c4.6-0.6,10.2,0,14.2,0l-0.4,0.5c1.2,0.2,2.9,0.1,2.7-0.3c0.4,0.2,0.6,0,1.6,0.5c0.2,0.4,0.8-0.3,1.1,2.1
	c-0.5,1.7-0.6,1-1,1.5c-0.6,0.4-0.6,0.3-1,0.5c-0.9,0.3-1.5,0.4-2,0.3c-1.3,0.1-1.5,0.5-2.5,0.8c-2.6,0.2-3.5,0.4-5.8,0.8l0.6,0
	c0.2-0.1,0.2-0.4-0.3-0.3c-0.9,0.2-3.3,0.2-2.3,0.8c-2.6-0.1-5.9,0.8-8.4,0.5c0.2,0.2-0.4,0.2-0.7,0.4c-2.2,0.1-4.6-0.2-6.3,0.2
	c-0.4-0.1,0.6-0.3-0.3-0.3c-0.5,0.1,0,0.2-0.7,0.3c-3.6,0.4-7.3-0.2-10.6-0.1c-5.8,0.3-11.9,0-17.4-0.1l0.1-0.1
	c-1.9,0.4-4.3-0.7-5.8,0c-0.4-0.1-1.7-0.1-1.3-0.3c-1.5,0.3-4.1-0.5-6.3-0.1c0.2,0,0.3,0,0.5-0.1c-2.2-0.4-4.1,0-6.3-0.4
	c0.2,0,0.7-0.1,0.7-0.2c-0.9-0.3-2.1,0.5-2.6-0.2c-0.5,0-0.4,0.3-0.1,0.3c-5-0.4-10.3-0.3-15.6-0.5c-3.7-0.6-0.2-1.1-3.1-0.8
	c-0.2-0.1-0.2,0.2-0.2,0.1c-1.2,0.1-1.7-0.8-2.5-0.6c0.3,0.4-0.5,0.2-0.6,0.4c-2.3-0.5-2.7-0.9-4.6-0.9l0.2-0.2
	c-1.2,0.1-2.5-0.1-3.8-0.7c-0.3-0.3-1-0.3-1.5-1.8c0.1-2.2,1.2-2.1,1.4-2.5c0.8-0.5,1.3-0.6,1.7-1c12.1-2,23.2-1.8,34.4-2.1
	c11.1-0.3,22.1-1.3,33.6-0.8c2.7,0.6,2.9,0.6,5.9,0.5c-0.1,0.1-0.3,0.1-0.1,0.2c0.2-0.4,2.1,0.1,2.5-0.2l3.3,0.5l1.7,0.4l0.2,0
	l0.1,0l0,0h0h0c-0.1-1,1.1,8.9,0.6,4.7h0l-0.4,0.2l-0.8,0.4c-2.1,1.1-4.1,1.7-6.3,2.3c0.7-0.2,0.9-0.7,0.1-0.4l-0.8,0.5l-0.2-0.1
	c-0.5,0.2-1.1,0.6-0.5,0.6c-10.9,3-21.8,3.2-32.5,3.5c-2.6-0.1-6.2,0-9.1-0.1c-2.1-0.2-4.1-0.6-6.1-1.1c-1-0.3-2-0.4-3-0.8l-1.5-0.5
	l-0.4-0.1l-0.2-0.1l0,0h0h0c-0.6-6.7-0.2-1.9-0.3-3.4l0,0l0.1,0l0.8-0.4c5.5-0.8,7-1,13.1-1.3C733,570.5,731.4,571.5,728.3,572.2z"
	/>
<path class="st7" d="M705.5,563.7c0.3,0.2,1.2,0.4,0.5,0.7C705.8,564.1,705.4,563.8,705.5,563.7z"/>
<path class="st7" d="M730.4,568.4c0-0.1,0.3,0.1,0.4,0.2c-0.3,0-0.6,0.1-0.9,0C730.3,568.6,730.2,568.5,730.4,568.4z"/>
<path class="st7" d="M736.8,569.3c-0.1,0.2-1.5,0.2-2.3,0.1L736.8,569.3z"/>
<path class="st7" d="M742.6,570.9c0.5,0.2,0.3,0.3-0.3,0.2C742.3,571,742.5,570.9,742.6,570.9z"/>
<path class="st7" d="M743.1,570.5c0.5,0.1,0.7,0.2,1,0.3C744.1,570.6,742.9,570.8,743.1,570.5z"/>
<path class="st7" d="M756.1,572.5c0.3,0,1-0.1,1.3,0.2C757,572.5,755.8,572.8,756.1,572.5z"/>
<path class="st7" d="M762.2,572.8c0.1,0,0.3,0.1,0.5,0c0.4,0.1,0,0.2-0.4,0.2C762.3,573,762.3,572.9,762.2,572.8z"/>
<path class="st7" d="M739,573.5l0.7-0.1l-0.1,0.2L739,573.5z"/>
<path class="st7" d="M704.1,571.1c0.6-0.2,0.5,0.1,0.6,0.2C704.1,571.3,704.9,571,704.1,571.1z"/>
<path class="st7" d="M730.1,569.3h-0.2l0.1-0.4L730.1,569.3z"/>
<path class="st4" d="M713.6,429.1c0,0-20.9-2.6-32.7-9.3c0,0-0.9-0.9-3.3-2.9c-2.4-2-5.9-3-5.9-3s-2.8,1-5.3,1.8
	c-2.5,0.8-8.9,1.3-8.9,1.3s-1.4,5.9-1,6.4c0.4,0.6,3.8,3.9,5.9,6.1c2.2,2.2,8.1,4,10.6,2.6c3.3-1.9,7.5-3,11.8-1.2
	c7.5,3.1,35.7,14.3,35.7,14.3L713.6,429.1z"/>
<path class="st4" d="M748.2,319.5c0,0-11.2-7.3-31.9-8.9c-8.6-0.7-14.9,3.5-27.7,10.2c-10,5.1-53.1,15.7-58.4,16.6
	c-9.1,1.7-38.5,8.6-38.5,15.3s7.4,12.4,24.8,20.7c17.4,8.3,75.4,16.6,88.7,44.8c13.3,28.2,22.4,76.2,24,96.1
	c1.7,19.9,7.5,44.8,7.5,44.8s-28.5-0.9-24.3,4.9c4.1,5.8,15.1,0.1,15.1,0.1s-3.2,7.4,0.1,8.2c3.3,0.8,7.5-6.4,7.5-6.4
	s-0.9,5.8,5.7,6.5c6.6,0.8,8.1-3.5,6.5-10.9c-1.7-7.5-1.3-35.1-0.8-35.6c0.8-0.6,41.6,0,41.6,0l2.8,32.3c0,0-21.9,5-19.4,8.3
	c2.5,3.3,13-1.5,13-1.5s-8,6-3,7.5c5,1.5,9.8-3.3,9.8-3.3c-2.6,11.2,13.6,4.9,10.9-5.1v-41.4c0,0,16.5,26.4,47.2,26.5
	c38.3,0.2,88.9-32.2,105.4-49.5c17-17.8,10.5-12.9-10.1-7.6c-28.5,7.3-51,3.4-65.5-0.8c-10.7-3.1-25.5-7.7-40.8-4
	c-12.8,3-30.5,17.4-30.5,17.4s4.7-46.1-29.7-92.2c-6.6-8.9-1.4-24.6-1.4-24.6s3.3,0.3,6.9,0.9c5.9,1.1,11,8.9,8.5,2.3
	c-2.5-6.6-11.6-12.4-11.6-12.4s2.6-4.3,15.5-3.2c8.4,0.7-10.7-11.4-10.7-11.4s10-1.7,16.8-2.3c3.4-0.3-20.1-11.5-20.1-11.5
	s-0.7-1.2-0.5-7.6c0.1-3.2-1-12.8-1-12.8L748.2,319.5z"/>
<path class="st8" d="M706.3,424.4c12.4,26.4,19.4,55.7,20.3,86.9c9.2,0.2,30.4-0.7,39.2,0c0.7-5.7-0.7-11.6-0.7-17.6
	c0-57.4-27.5-88.3-74.6-99.6c-8.7-2.1-26.2-7.2-30.1-6.3C676.6,394.1,700.4,411.9,706.3,424.4z"/>
<path d="M599.4,344.4c-9.7,2.7-23,6.1-15.3,12.5c9.3,7.8,26.2,13.4,26.2,13.4s3.3-21.8,1-28.8C611.3,341.6,602.9,343.4,599.4,344.4z
	"/>
<path class="st8" d="M744.3,351.7c0,7.6-6.5,16.3-16.6,14.8c-6.6-1-13.8-8.3-10.9-17.4c2.7-8.4,9.6-11.1,16.6-10.5
	C738.9,339.1,744.3,344.2,744.3,351.7z"/>
<path class="st8" d="M699.8,332.4c0,5.5-4.7,10.9-10.8,10.9c-4.5,0-10.7-5.1-8.1-12.4c2.4-6.7,7-8.2,10.9-7.4
	C696.5,324.3,699.8,327.7,699.8,332.4z"/>
<path d="M723,352.1c0,1.3,1,2.3,2.3,2.3c1.3,0,2.3-1,2.3-2.3c0-1.3-1-2.3-2.3-2.3C724,349.8,723,350.8,723,352.1z"/>
<path d="M683.3,331.3c0,1.1,0.9,1.9,1.9,1.9s1.9-0.9,1.9-1.9c0-1.1-0.9-1.9-1.9-1.9C684.2,329.4,683.3,330.3,683.3,331.3z"/>
<path class="st9" d="M725.8,498c0,0,40.3,0.7,54.5,0c14.2-0.7,28-5.1,28-5.1s0.5,14.2,0,25.8c-0.6,13.1-2.9,24.2-2.9,24.2
	s-23.3-3.4-27.7-2.8l-1.4-7.4l-28.2-2.2v8h-21.4L725.8,498z"/>
<path class="st4" d="M782,420.5c0,0,11.8,5,18.9,9c7.1,4,17,5.8,19.4,5.5c2.4-0.3,6.6-7.7,8.9-6.3c2.4,1.5-0.3,5.9-0.3,5.9
	s6.4-0.5,7.9,2.1c2.3,3.8-5.7,4.2-6.7,5.2c-0.9,0.8,7.5,4.1,3.2,9.5c-2.6,3.2-8.1-0.6-20.3-6.6c-18-8.8-36.8-17.6-36.8-17.6"/>
<path d="M771.3,494.1c0,0-10.1-51-4.6-61.2c7.5-14,17.9-14.7,17.9-14.7l-2.6-3.7c0,0-14.1,2.8-22,18.7c-5.6,11.3,2.9,61,2.9,61
	H771.3z"/>
<path d="M728.2,494.7c0,0-5.5-40.6-10.9-50.9c-2.8-5.4-5.9-9-5.9-9l-3-6.2c0,0,6.1,0.5,13.9,12.9c6.7,10.6,12.6,52.5,12.6,52.5
	L728.2,494.7z"/>
<path class="st10" d="M763.2,499.1l8.7-0.7l-0.6-5.2l-8.8,0.9L763.2,499.1z"/>
<path class="st10" d="M735.7,493.1h-8.2v5.2h8.2V493.1z"/>
<path class="st8" d="M710.7,379.9c3.4-2.8,5.1,5.3,17.2,5.2c8.1-0.1,13.6-9.3,17.1-6c5,4.6-1.3,16.2-15.6,17.7
	C718.2,397.9,706,383.8,710.7,379.9z"/>
<path class="st11" d="M726.8,383.2l1.2,13.6"/>
<path class="st11" d="M736.1,380.5l2.6,16.1"/>
<path class="st11" d="M719.3,381.6l-2.6,12.9"/>
<path class="st8" d="M951.8,489.6c-28.6,9.5-54.4,6.4-69.7,2.2c5.9,5.5,15.9,16.6,12.8,16.5c-4.3-0.2-22.5,6-17.4,6.2
	c5.1,0.2,17.6,2.9,17.6,2.9s-14.7,10.5-13,11.3c1.7,0.8,19-3.1,19-3.1s-1.1,5.4-1.1,10c25.5-9.3,40.5-23.2,51.1-32.3
	C969.8,487.3,969.4,483.8,951.8,489.6z"/>
<path class="st9" d="M698.8,305.8c-14.6-4.7-13.9-33.2,5.3-37c17.6-3.5,39.6,5.1,55.4,13.2c8.6,4.4,50.3,9.8,59.6,31.4
	c13.4,30.9-30,44.8-35.8,29.3c0,0-27-22.8-54-30.1C714.1,308.5,698.8,305.8,698.8,305.8z"/>
<path class="st1" d="M763.9,328.6c0,0,10.1-17.1,16.5-22.5c2.1-1.7,6.8-5.5,6.8-5.5l1.8,10.4l6.3-16c0,0,2.4-2,14.8-5.2l12.4-3.2
	l-0.7,11.3l9.1-14.2c0,0,8.4-0.4,18.9,1c10.5,1.4,29.4,3.6,29.4,3.6s-18.3,9.7-24.2,14.6c-5.9,4.9-9.9,6.2-9.9,6.2l-13.8-8.8
	l10.3,11.3l-25.8,7.2l-12.5-9.2l7.5,10.3c0,0-24.1,6.3-29.1,6.3C776.9,326.2,763.9,328.6,763.9,328.6z"/>
<path class="st12" d="M699.3,314.7c0,0,20.4,1.5,43.6,11.4c20.9,8.8,30,17.5,39,23.8c8.1,2.8,7.1-7.3,7.1-7.3s-16.5-14.5-39.9-23.7
	c-28-11.1-36.4-11.8-49.6-12.7C692.2,310.9,699.3,314.7,699.3,314.7z"/>
<path class="st13" d="M767.8,325.8c0,0,22.5-14.1,42.3-21.5c28.4-10.6,55.3-13.1,55.3-13.1"/>
<path class="st13" d="M803.4,304.3l4.3-10.6"/>
<path class="st13" d="M828.2,311.6l-8.1-6.5"/>
<path class="st13" d="M799.5,320.8l-6.6-5.6"/>
<path class="st1" d="M853.7,403.5c0,0,32.8-50.7,57.1-103.2c8.3-18.1,16.8-52.3,16.8-52.3s-20.9,25.3-31.1,44.5
	c-27.5,51.7-48.6,107.8-48.6,107.8L853.7,403.5z"/>
<path class="st14" d="M824.4,418.3c0,0-11.8,1.7-16.2,12.2c-7.7,18.3,12.4,26.8,12.4,26.8"/>
<path class="st15" d="M841.9,428.9c0,0,0.2,5.1-3.4,12.6c-4,8.3-14.8,18.4-14.8,18.4l-4.6-1.5c0,0,2.4-14,6.5-22.4
	c4.1-8.4,9.4-11,9.4-11L841.9,428.9z"/>
<path class="st16" d="M807.3,402.4l-0.8,1.4l65.7,37.2l0.8-1.4L807.3,402.4z"/>
<path class="st17" d="M806,399.6c-1.6,0.2-2.8,1.6-2.6,3.3c0.2,1.6,1.7,2.8,3.3,2.6c1.6-0.2,2.8-1.6,2.6-3.3
	C809,400.6,807.6,399.4,806,399.6z"/>
<path class="st17" d="M873.7,437.8c-1.6,0.2-2.8,1.7-2.6,3.3c0.2,1.6,1.7,2.8,3.3,2.6c1.6-0.2,2.8-1.7,2.6-3.3
	C876.7,438.7,875.3,437.6,873.7,437.8z"/>
<path class="st16" d="M863.9,415.4c1.7,7.1,0,14.2-4,19.6c-5.8-0.5-11.6-1.9-17.2-4.2c-9.8-4.2-17.9-10.9-23.8-19.1
	c2.8-6.7,8.7-12.1,16.4-13.9C848,394.7,860.8,402.6,863.9,415.4z"/>
<path class="st17" d="M818.5,457.6c-2.8,0.7-4.6,3.5-3.9,6.4c0.7,2.8,3.5,4.6,6.4,3.9c2.8-0.7,4.6-3.5,3.9-6.4
	C824.2,458.6,821.3,456.9,818.5,457.6z"/>
<path class="st18" d="M853.8,394l61-120.8"/>
<path class="st19" d="M652.7,418.4c0.1-2.1,5.3-7.7,7.3-3.9c2,3.7-2,8-2,8s8.7-7.5,10-2.9c1.3,4.6-4.5,8.2-4.5,8.2s6.4-3.2,10.4-2.9
	c2.7,0.2,1.3,10.7-6.9,8.3C658.9,430.7,652.3,423.5,652.7,418.4z"/>
<path class="st4" d="M835.8,433.5c-2.1,2.7,2,8.2,2,8.2s-3.9-5.2-5.3-3.2c-2.4,3.3,2.1,7.9,2.1,7.9s-3.9-4.1-4.9-2.2
	c-1.4,2.5,0.9,8.6,3.2,8c2.3-0.6,4.5-4.2,7.2-7.9C845.7,436.8,837.9,430.9,835.8,433.5z"/>
<path d="M67.7,74.7l-0.3,10.2l581.1-1.4l0.2-10.2L67.7,74.7z"/>
<path d="M54,66.9c-7.5,5.2-9.4,15.6-4.2,23.1c5.2,7.5,15.6,9.4,23.1,4.2c7.5-5.2,9.4-15.6,4.2-23.1C71.9,63.5,61.5,61.6,54,66.9z"/>
<path d="M633,67.2c-7.2,5.2-8.9,15.5-3.9,23.1c5,7.5,14.9,9.4,22.1,4.2c7.2-5.2,8.9-15.5,3.9-23.1C650.1,63.9,640.2,62,633,67.2z"/>
</svg>
