<svg width="559" height="107" viewBox="0 0 559 107" fill="none" xmlns="http://www.w3.org/2000/svg">
<path d="M117.027 0.829863C201.577 -1.92122 477.992 2.61807 527.351 7.84513C574.785 12.8429 565.752 107.159 521.161 106.494C449.794 105.44 175.281 103.239 126.564 104.248C45.1552 98.608 39.9969 89.0938 41.1202 56.2184C43.2065 -4.09916 60.4008 2.68684 117.027 0.829863Z" fill="#B780B1"/>
<path d="M79.3827 73.8483C79.2451 73.7566 79.1076 73.6419 78.97 73.5273C78.8325 73.4127 78.7637 73.2751 78.7637 73.0917C78.6032 71.4869 78.6033 69.8363 78.7867 68.2086C78.9701 66.5579 79.0618 64.9302 79.0618 63.3025C79.0618 61.285 78.9929 59.2675 78.8783 57.2272C78.7637 55.1868 78.6262 53.1693 78.4886 51.1289C78.3511 49.0885 78.2364 47.0711 78.1676 45.0536C78.0759 43.0361 78.076 41.0416 78.1447 39.0471C78.1447 38.8407 78.1906 38.6344 78.3281 38.4051C78.4428 38.1759 78.6262 38.0383 78.8554 37.9925C79.1993 37.9466 79.589 37.9696 80.0476 38.0383C80.5061 38.1071 80.8729 38.13 81.1709 38.0842C81.3084 38.0842 81.5607 38.0842 81.9275 38.0613C82.2943 38.0383 82.684 38.0154 83.1196 38.0154C83.5323 37.9925 83.9449 37.9696 84.3117 37.9696C84.6785 37.9466 84.9307 37.9466 85.0683 37.9466C85.0912 37.9466 85.2287 37.9237 85.4809 37.9008C85.7102 37.8779 85.9624 37.832 86.2375 37.8091C86.5126 37.7632 86.7418 37.7403 86.9711 37.6944C87.2003 37.6715 87.3379 37.6486 87.4067 37.6486C87.613 37.6486 87.934 37.6257 88.3925 37.6027C88.8511 37.5569 89.3096 37.5569 89.7452 37.6027C90.2037 37.6257 90.6163 37.6945 90.9831 37.8091C91.3499 37.9008 91.5563 38.1071 91.5792 38.4051L91.923 42.6464C91.946 42.9215 91.8314 43.1508 91.5792 43.3342C91.3041 43.5176 91.0519 43.6322 90.8227 43.6551C90.1578 43.7239 89.47 43.701 88.8052 43.5864C88.1403 43.4717 87.4526 43.4488 86.7419 43.5176C86.5814 43.5176 86.3521 43.5176 86.077 43.5405C85.8019 43.5634 85.5268 43.6093 85.2517 43.6551C84.9536 43.7239 84.7244 43.8385 84.5181 43.9532C84.3118 44.0907 84.22 44.2971 84.22 44.5492C84.3117 45.9018 84.3117 47.3003 84.22 48.7446C84.1283 50.189 84.1283 51.6104 84.2659 52.9859C84.2659 53.1464 84.2888 53.3756 84.3117 53.6507C84.3346 53.9258 84.4493 54.1322 84.6097 54.3156C84.7473 54.4073 84.9537 54.499 85.2288 54.5448C85.5268 54.5907 85.8019 54.6136 86.1228 54.6136C86.4209 54.6136 86.7189 54.6136 86.9711 54.5907C87.2462 54.5678 87.4296 54.5678 87.5672 54.5678C87.7047 54.5678 87.9569 54.5448 88.3237 54.5219C88.6905 54.499 89.0803 54.4531 89.4929 54.4073C89.9056 54.3614 90.2954 54.3156 90.6622 54.2927C91.029 54.2468 91.2811 54.2468 91.4187 54.2468C91.5104 54.2468 91.6021 54.3156 91.6709 54.4302C91.7397 54.5448 91.7626 54.6365 91.7626 54.7053L92.1065 57.9837C92.1294 58.2817 92.0606 58.5798 91.8772 58.9007C91.6938 59.1988 91.4645 59.3822 91.1894 59.4051C90.4558 59.4968 89.6993 59.4968 88.9657 59.3822C88.2321 59.2675 87.4755 59.2446 86.696 59.3134C86.2146 59.3822 85.8936 59.4968 85.6873 59.6802C85.4809 59.8636 85.3434 60.0929 85.2746 60.368C85.2058 60.6431 85.1829 60.9411 85.1829 61.285V62.3396C85.1829 62.4313 85.16 62.6835 85.1371 63.0732C85.0912 63.4629 85.0683 63.8756 84.9995 64.3112C84.9537 64.7468 84.9078 65.1594 84.8848 65.5263C84.8619 65.8931 84.8161 66.1452 84.7932 66.2369C84.862 66.2828 84.8849 66.3745 84.839 66.535C84.8161 66.6955 84.8161 66.833 84.8848 66.9247C84.8848 67.1311 84.9307 67.3832 84.9766 67.6583C85.0453 67.9564 85.2288 68.0939 85.5268 68.0939H86.7189H88.4842H90.2495H91.3729C91.9001 68.0939 92.4045 68.1398 92.8401 68.2544C93.2757 68.3461 93.5737 68.7359 93.7571 69.3548C93.7571 69.4236 93.7801 69.5841 93.8259 69.8363C93.8718 70.0885 93.9176 70.3636 93.9863 70.6845C94.0322 71.0055 94.0781 71.3265 94.1468 71.6474C94.1927 71.9684 94.2385 72.2206 94.2844 72.381V72.6791C94.3532 73.1605 94.2386 73.4127 93.9405 73.4815C93.6425 73.5502 93.2986 73.619 92.9318 73.6878C91.5104 73.8483 90.1119 73.8941 88.6905 73.8024C87.2691 73.7337 85.8707 73.6649 84.4493 73.619C84.3576 73.5961 84.1054 73.5961 83.6927 73.642C83.2801 73.6878 83.0508 73.7107 82.982 73.7107C82.8445 73.7107 82.6152 73.7107 82.2484 73.7337C81.9045 73.7566 81.5148 73.7795 81.148 73.8024C80.7583 73.8254 80.3915 73.8483 80.0705 73.8712C79.7495 73.8483 79.5202 73.8483 79.3827 73.8483Z" fill="white"/>
<path d="M101.369 71.0283C101.139 69.1484 101.071 67.2226 101.162 65.2281C101.254 63.2335 101.277 61.2849 101.208 59.382C101.139 57.5709 101.048 55.7827 100.91 54.0633C100.773 52.3438 100.727 50.5556 100.75 48.7445C100.75 46.7958 100.75 44.9847 100.773 43.2882C100.796 41.6146 100.658 39.8264 100.383 37.9465C100.452 37.4192 100.727 37.0065 101.208 36.7085C101.69 36.4334 102.171 36.25 102.652 36.1812C103.203 36.1124 103.776 36.1124 104.441 36.1812C105.106 36.25 105.633 36.5022 106.068 36.9378C106.068 37.0065 106.068 37.1441 106.091 37.3504C106.114 37.5568 106.114 37.6943 106.114 37.7631C106.252 38.9323 106.229 40.2161 106.068 41.5917C105.908 42.9672 105.839 44.2281 105.931 45.3744C105.931 45.512 105.954 46.0164 106 46.9105C106.045 47.8046 106.114 48.8133 106.183 49.9596C106.252 51.1059 106.321 52.2521 106.389 53.4213C106.458 54.5906 106.504 55.5076 106.55 56.1724C106.642 57.7772 106.71 59.3591 106.733 60.8951C106.756 62.4312 106.848 63.9901 107.008 65.572C107.1 66.2139 107.398 66.5807 107.834 66.6724C108.292 66.7641 108.774 66.81 109.324 66.787C109.851 66.7641 110.356 66.787 110.814 66.81C111.273 66.8558 111.525 67.1309 111.594 67.6582C111.594 68.7357 111.571 69.6069 111.525 70.2488C111.479 70.9137 111.41 71.5097 111.295 72.037C111.204 72.5643 111.02 72.8394 110.791 72.8394C110.768 72.8853 110.699 72.8853 110.608 72.8853H110.424C109.14 72.8165 107.834 72.7706 106.481 72.7019C105.128 72.656 103.799 72.5643 102.446 72.4268C102.011 72.4038 101.735 72.2663 101.621 72.037C101.529 71.8536 101.437 71.5097 101.369 71.0283Z" fill="white"/>
<path d="M140.251 69.4236C140.273 69.3548 140.251 69.2172 140.182 68.965C140.09 68.7358 139.998 68.4607 139.884 68.1856C139.769 67.9105 139.654 67.6353 139.54 67.3832C139.425 67.131 139.356 66.9476 139.311 66.81V65.0447V63.3253C139.311 63.119 139.31 62.6834 139.333 61.9956C139.356 61.3079 139.356 60.5742 139.379 59.7718C139.402 58.9924 139.402 58.2358 139.425 57.548C139.448 56.8603 139.448 56.4247 139.448 56.2183V53.1004C139.494 52.8712 139.517 52.4815 139.517 51.9542C139.54 51.4269 139.563 50.8996 139.586 50.3494C139.609 49.7992 139.631 49.2719 139.654 48.8133C139.677 48.3548 139.7 48.0339 139.723 47.8505C139.723 47.7817 139.746 47.5754 139.769 47.2315C139.792 46.8647 139.861 46.6354 139.93 46.4979C140.021 45.9247 140.09 45.3286 140.136 44.6867C140.159 44.0448 140.273 43.4487 140.434 42.8756C140.64 42.3483 140.961 41.7064 141.397 40.9498C141.832 40.2162 142.36 39.5055 142.979 38.8636C143.598 38.1987 144.285 37.6485 145.019 37.1671C145.753 36.6856 146.532 36.4564 147.335 36.4564C147.931 36.4564 148.412 36.4793 148.756 36.5022C149.1 36.5252 149.375 36.5939 149.627 36.7086C149.879 36.8003 150.109 36.9608 150.315 37.19C150.521 37.4193 150.773 37.7173 151.071 38.13C151.071 38.1987 151.117 38.2675 151.163 38.3363L151.255 38.428V43.059L150.842 43.357C149.329 43.4258 148.137 43.7468 147.243 44.3199C146.349 44.8931 145.753 45.7871 145.455 47.0022C145.409 47.2773 145.386 47.7129 145.317 48.3319C145.271 48.9509 145.202 49.6157 145.134 50.3035C145.065 50.9913 144.996 51.6561 144.927 52.2751C144.859 52.8941 144.836 53.3297 144.836 53.559V55.5306C144.836 56.8144 144.836 58.0066 144.859 59.107C144.881 60.2074 144.927 61.4454 144.973 62.798C145.042 63.7609 145.248 64.5633 145.569 65.1594C145.913 65.7554 146.303 66.2369 146.784 66.6037C147.243 66.9476 147.747 67.2227 148.297 67.4061C148.825 67.5895 149.329 67.75 149.81 67.8646C150.292 67.9792 150.682 68.1168 151.026 68.2543C151.369 68.4148 151.576 68.6211 151.645 68.8963V70.226C151.645 70.5011 151.667 70.822 151.69 71.2118C151.713 71.6015 151.713 71.9912 151.667 72.381C151.622 72.7707 151.507 73.1146 151.347 73.4126C151.186 73.7107 150.865 73.917 150.43 74.0087H149.077C147.059 74.0087 145.271 73.6648 143.712 72.9541C142.199 72.2434 141.03 71.0513 140.251 69.4236Z" fill="white"/>
<path d="M170.605 73.5501C170.445 73.4814 170.261 73.3667 170.101 73.2292C169.941 73.0687 169.826 72.9082 169.803 72.7477L168.588 62.0644C168.588 61.9268 168.519 61.8122 168.405 61.7205C168.29 61.6288 168.175 61.5829 168.084 61.6288L162.237 62.179L163.2 71.0054C163.269 71.5327 163.43 72.037 163.659 72.4956C163.888 72.9541 164.049 73.4355 164.117 73.9399C164.14 74.1462 164.14 74.2608 164.072 74.3067C164.003 74.3525 163.842 74.3984 163.613 74.4213C163.544 74.4213 163.453 74.4213 163.338 74.4442C163.223 74.4672 163.155 74.4672 163.109 74.4672H162.49C162.215 74.4672 161.916 74.4672 161.618 74.4901C161.32 74.513 161.045 74.5359 160.793 74.5359C160.541 74.5589 160.381 74.5589 160.312 74.5589C159.716 74.5589 159.211 74.4901 158.844 74.3525C158.478 74.215 158.18 74.0087 157.996 73.7565C157.79 73.4814 157.652 73.1604 157.561 72.7707C157.469 72.3809 157.4 71.9453 157.331 71.441C157.171 69.584 157.033 67.7499 156.919 65.9159C156.804 64.0818 156.735 62.2248 156.667 60.3449C156.667 60.322 156.667 60.1386 156.644 59.7947C156.621 59.4508 156.598 59.084 156.575 58.6255C156.529 58.1899 156.506 57.7543 156.483 57.3417C156.46 56.929 156.414 56.5851 156.391 56.3559C156.323 55.072 156.391 53.9028 156.575 52.8253C156.758 51.7478 156.965 50.5786 157.194 49.2947C156.987 48.7216 157.033 48.1255 157.308 47.4836C157.584 46.8417 157.813 46.2686 157.996 45.7642C158.065 45.4891 158.111 45.2369 158.134 45.0076C158.157 44.7784 158.203 44.5033 158.317 44.2052C158.317 44.1823 158.34 44.1135 158.363 44.0218C158.386 43.9301 158.432 43.9072 158.455 43.9072C158.822 43.2424 159.142 42.5546 159.418 41.8668C159.693 41.179 160.059 40.4913 160.541 39.8264C160.839 39.4138 161.206 39.0011 161.641 38.5884C162.077 38.1758 162.558 37.7631 163.063 37.3963C163.567 37.0295 164.094 36.7315 164.645 36.4793C165.195 36.25 165.745 36.0895 166.272 36.0208C167.785 35.8832 168.955 36.0895 169.803 36.6398C170.651 37.19 171.316 37.9007 171.797 38.7948C172.279 39.6659 172.669 40.6288 172.921 41.7063C173.196 42.7609 173.494 43.7467 173.838 44.6637C173.838 44.7555 173.861 44.9618 173.907 45.214C173.953 45.4891 173.998 45.7642 174.021 46.0622C174.067 46.3602 174.09 46.6354 174.136 46.8875C174.182 47.1397 174.205 47.3231 174.205 47.4148C174.434 49.6386 174.572 51.8624 174.64 54.1321C174.686 56.3788 174.778 58.6255 174.87 60.8493C174.87 61.4224 174.824 62.0185 174.755 62.6146C174.663 63.2106 174.64 63.8067 174.686 64.3799C174.686 64.4486 174.709 64.632 174.732 64.9071C174.755 65.2052 174.801 65.5032 174.824 65.8471C174.847 66.191 174.892 66.489 174.961 66.7871C175.03 67.0851 175.03 67.2456 175.03 67.3143V68.9879C175.03 69.0567 175.03 69.2401 175.053 69.5152C175.076 69.8132 175.099 70.1113 175.099 70.4552C175.122 70.799 175.122 71.0971 175.145 71.3951C175.168 71.6931 175.168 71.8766 175.168 71.9683C175.168 72.1746 175.122 72.4726 175.076 72.8853C175.007 73.298 174.778 73.5272 174.411 73.596H174.319C174.273 73.596 174.182 73.5731 173.998 73.5501C173.815 73.5272 173.7 73.5043 173.677 73.5043C173.586 73.5043 173.379 73.5043 173.081 73.5272C172.783 73.5501 172.462 73.5501 172.141 73.5501C171.82 73.5501 171.522 73.5501 171.224 73.5731C170.903 73.5501 170.72 73.5501 170.605 73.5501ZM162.352 55.393C162.398 55.8056 162.627 56.0808 163.063 56.2412C163.498 56.4017 164.003 56.5163 164.576 56.5622C165.149 56.608 165.722 56.631 166.295 56.608C166.868 56.5851 167.304 56.5622 167.602 56.5393C167.671 56.5393 167.808 56.5393 168.015 56.5163C168.221 56.4934 168.359 56.4934 168.427 56.4934C168.496 56.4017 168.542 56.31 168.588 56.2183C168.634 56.1266 168.657 56.0349 168.68 55.9432C168.68 55.7369 168.657 55.4159 168.634 54.9574C168.588 54.4989 168.565 54.0174 168.565 53.4672C168.542 52.9399 168.542 52.4356 168.519 51.9771C168.496 51.5185 168.496 51.1976 168.496 50.9912C168.519 50.9225 168.542 50.762 168.542 50.5327V50.0513L168.038 45.1452C167.992 44.9159 167.923 44.6408 167.785 44.3428C167.648 44.0448 167.487 43.7696 167.281 43.5175C167.075 43.2653 166.823 43.0589 166.548 42.9214C166.249 42.7609 165.974 42.7151 165.653 42.738C165.378 42.7609 165.126 42.8526 164.897 42.9902C163.796 44.1365 163.086 45.3286 162.834 46.5666C162.558 47.8046 162.421 49.1801 162.375 50.6474C162.375 51.4498 162.352 52.2522 162.329 53.0087C162.26 53.7882 162.283 54.5906 162.352 55.393Z" fill="white"/>
<path d="M178.49 65.8241C178.719 65.1822 179.155 64.7695 179.774 64.5861C180.393 64.4027 181.127 64.3569 181.998 64.4256C182.846 64.5174 183.809 64.6549 184.864 64.9071C185.918 65.1363 187.019 65.3656 188.165 65.5719C188.623 65.549 189.036 65.4115 189.403 65.228C189.747 65.0217 190.091 64.7695 190.389 64.4486C190.687 64.1276 190.985 63.7608 191.237 63.3711C191.512 62.9584 191.787 62.5687 192.085 62.156C192.108 62.1331 192.154 62.0414 192.177 61.9267C192.223 61.8121 192.223 61.7433 192.223 61.6975L192.016 58.7171C191.948 58.6942 191.741 58.5108 191.397 58.2128C191.054 57.9147 190.755 57.6855 190.572 57.5021C190.503 57.4333 190.389 57.3416 190.182 57.227C189.999 57.1124 189.861 57.0436 189.816 57.0436C188.646 56.5392 187.546 56.1265 186.514 55.8285C185.483 55.5305 184.52 55.1637 183.649 54.751C182.754 54.3383 181.952 53.7652 181.218 53.0316C180.485 52.298 179.866 51.2663 179.316 49.9366C179.316 49.8449 179.316 49.6844 179.293 49.4781C179.27 49.2718 179.247 49.0654 179.224 48.8591C179.201 48.6298 179.155 48.4464 179.155 48.263C179.132 48.0796 179.132 47.965 179.132 47.8962C179.086 47.4148 179.063 46.9333 178.995 46.3831C178.949 45.8329 178.995 45.3515 179.178 44.87C179.201 44.7325 179.27 44.4803 179.384 44.1364C179.476 43.7925 179.614 43.4257 179.728 43.0589C179.866 42.6921 179.98 42.3253 180.118 42.0043C180.233 41.6604 180.301 41.4312 180.347 41.2936V41.0414C180.554 40.7434 180.737 40.5141 180.897 40.3307C181.058 40.1702 181.218 39.9868 181.379 39.8034C181.539 39.62 181.654 39.4825 181.746 39.3679C182.846 38.1299 183.947 37.1899 185.047 36.548C186.147 35.9061 187.477 35.5163 189.059 35.3329C189.495 35.31 190.137 35.3559 190.985 35.4934C191.833 35.631 192.658 35.8373 193.507 36.1124C194.355 36.3875 195.088 36.7314 195.73 37.1441C196.372 37.5567 196.716 38.0152 196.739 38.5196C196.785 38.8176 196.762 39.2303 196.693 39.7347C196.624 40.239 196.51 40.7434 196.372 41.2478C196.212 41.7521 196.028 42.1877 195.776 42.5775C195.524 42.9672 195.226 43.1735 194.882 43.1964C194.011 43.2652 193.14 43.2652 192.269 43.1735C191.397 43.0818 190.526 43.0818 189.655 43.1506C189.495 43.1506 189.151 43.1735 188.623 43.2423C188.096 43.3111 187.752 43.334 187.592 43.334C187.5 43.4028 187.34 43.4716 187.11 43.5633C186.881 43.655 186.675 43.7467 186.445 43.8842C186.216 44.0218 186.033 44.1593 185.895 44.274C185.735 44.4115 185.666 44.5491 185.666 44.6866L185.918 47.7128C185.918 47.8733 186.033 48.0338 186.239 48.1942C186.445 48.3547 186.698 48.4923 186.95 48.6528C187.202 48.8132 187.454 48.9508 187.729 49.0654C188.004 49.1801 188.188 49.2488 188.279 49.2947C189.632 49.9366 190.847 50.5327 191.971 51.1058C193.071 51.679 194.034 52.3438 194.836 53.1233C195.639 53.9028 196.281 54.8198 196.785 55.8744C197.266 56.9289 197.587 58.2586 197.725 59.8405C197.862 61.2161 197.771 62.5916 197.45 63.9213C197.129 65.2739 196.602 66.466 195.891 67.5206C195.157 68.5752 194.263 69.4693 193.14 70.1571C192.016 70.8448 190.778 71.2804 189.357 71.418C188.188 71.5555 186.973 71.5785 185.735 71.4638C184.497 71.3721 183.35 71.1199 182.342 70.7073C181.31 70.2946 180.439 69.6986 179.751 68.9191C178.995 68.1396 178.582 67.108 178.49 65.8241Z" fill="white"/>
<path d="M207.171 73.7565C207.194 73.6189 207.194 73.3438 207.148 72.9312C207.102 72.5185 207.079 72.2434 207.079 72.1058C207.01 71.0742 207.01 70.0654 207.102 69.1026C207.194 68.1397 207.285 67.131 207.423 66.0535C207.469 65.9847 207.469 65.893 207.423 65.7783C207.4 65.6637 207.377 65.5949 207.377 65.5491C207.377 64.7008 207.446 63.8755 207.56 63.0731C207.675 62.2707 207.744 61.4454 207.79 60.5971C207.858 59.0153 207.835 57.4792 207.744 55.9661C207.652 54.453 207.606 52.917 207.652 51.381C207.652 51.2434 207.652 51.0371 207.675 50.7849C207.698 50.5098 207.698 50.2576 207.721 49.9825C207.744 49.7074 207.744 49.4782 207.767 49.2489C207.79 49.0197 207.79 48.8821 207.79 48.8133C207.79 48.7445 207.812 48.607 207.835 48.3548C207.858 48.1255 207.904 47.8734 207.927 47.6212C207.95 47.369 207.996 47.1398 208.019 46.9105C208.042 46.6812 208.065 46.5437 208.065 46.4749V46.3144C208.065 46.0852 207.973 45.9018 207.813 45.7871C207.652 45.6725 207.469 45.6037 207.308 45.5579C206.299 45.6267 205.337 45.6266 204.42 45.5808C203.502 45.5349 202.517 45.5349 201.508 45.6037C201.233 45.5349 200.981 45.4203 200.751 45.2598C200.751 45.0994 200.728 44.7784 200.706 44.3199C200.66 43.8614 200.637 43.5633 200.614 43.4258C200.591 43.1277 200.522 42.6463 200.43 42.0273C200.339 41.3854 200.293 40.7435 200.27 40.0786C200.247 39.4367 200.316 38.8406 200.453 38.3134C200.591 37.7861 200.866 37.488 201.302 37.4193H201.508L218.312 37.5797C218.542 37.5797 218.725 37.6485 218.863 37.809C219 37.9695 219.115 38.1299 219.184 38.3363C219.275 38.5426 219.321 38.7489 219.367 38.9782C219.39 39.1845 219.413 39.3679 219.413 39.5055C219.413 39.5284 219.413 39.666 219.436 39.8952C219.459 40.1016 219.482 40.3767 219.505 40.6518C219.528 40.9498 219.573 41.2249 219.596 41.5C219.619 41.7981 219.642 42.0273 219.642 42.2336C219.642 42.3254 219.642 42.5088 219.665 42.738C219.688 42.9673 219.688 43.2424 219.711 43.5175C219.734 43.8155 219.734 44.0677 219.757 44.3199C219.78 44.5721 219.78 44.7555 219.78 44.8472C219.78 45.0077 219.734 45.1911 219.619 45.3515C219.528 45.512 219.39 45.6266 219.207 45.6496C218.358 45.7871 217.533 45.8559 216.685 45.8559C215.837 45.8559 215.011 45.9018 214.163 46.0164C214.002 46.0393 213.842 46.0622 213.704 46.0393C213.567 46.0164 213.406 46.1081 213.246 46.2686C213.04 46.4978 212.925 46.7959 212.879 47.1168C212.833 47.4607 212.81 47.8046 212.81 48.1485C212.81 48.4924 212.833 48.8592 212.856 49.2031C212.879 49.5469 212.902 49.8679 212.902 50.143C212.742 53.9028 212.65 57.6856 212.65 61.4683C212.65 65.2511 212.879 68.9879 213.361 72.7019C213.361 72.977 213.315 73.298 213.246 73.7106C213.154 74.1233 212.925 74.3296 212.558 74.3755H212.512C212.444 74.3755 212.306 74.3755 212.1 74.3526C211.893 74.3296 211.664 74.3067 211.412 74.2838C211.16 74.2379 210.93 74.2379 210.724 74.2379H210.38C210.174 74.215 209.922 74.215 209.601 74.2379C209.28 74.2838 208.959 74.2838 208.638 74.2838C208.317 74.2838 208.019 74.2379 207.721 74.1921C207.514 74.0774 207.308 73.9628 207.171 73.7565Z" fill="white"/>
<path d="M223.471 71.6932C223.471 71.6244 223.494 71.5556 223.517 71.4639C223.562 71.3722 223.562 71.3264 223.517 71.2805C223.562 70.8449 223.608 70.3176 223.677 69.6987C223.746 69.0797 223.86 68.5753 224.021 68.1626C224.113 67.9334 224.296 67.75 224.525 67.6353C224.755 67.5207 225.007 67.429 225.259 67.3373C225.511 67.2456 225.763 67.1539 225.993 67.0851C226.222 66.9934 226.405 66.8559 226.543 66.6495C226.566 66.6495 226.589 66.6037 226.612 66.489C226.634 66.3973 226.634 66.3056 226.634 66.2369C226.634 66.1681 226.634 66.0305 226.657 65.8242C226.68 65.6179 226.703 65.3886 226.703 65.1364C226.726 64.8842 226.726 64.655 226.726 64.4028V63.8985C226.634 61.1703 226.612 58.4651 226.657 55.7827C226.703 53.1004 226.657 50.3952 226.474 47.7129C226.474 47.6441 226.451 47.5066 226.428 47.3002C226.405 47.0939 226.359 46.8876 226.359 46.6354C226.336 46.4061 226.313 46.1769 226.313 45.9935C226.291 45.7871 226.291 45.6267 226.291 45.535C226.222 45.2369 226.061 45.0535 225.809 44.9847C225.557 44.916 225.282 44.8472 224.984 44.7784C224.686 44.7096 224.411 44.595 224.181 44.4574C223.952 44.297 223.815 44.0219 223.769 43.6321C223.769 43.6092 223.769 43.5633 223.746 43.5404C223.723 43.4946 223.723 43.4716 223.723 43.4487V42.4171C223.723 41.9356 223.723 41.4083 223.746 40.8581C223.769 40.3079 223.769 39.7806 223.769 39.2992V38.3134C223.838 38.0383 223.929 37.7173 224.021 37.3046C224.113 36.892 224.319 36.6627 224.571 36.5939L224.663 36.6398H224.755C225.259 36.7315 225.97 36.7773 226.864 36.7544C227.781 36.7315 228.698 36.7544 229.638 36.8003C230.578 36.8461 231.472 36.9607 232.274 37.1441C233.099 37.3276 233.673 37.6485 234.017 38.13C234.177 38.3363 234.269 38.6572 234.269 39.0928C234.269 39.5284 234.292 39.8723 234.315 40.1016C234.406 41.5459 234.36 42.5546 234.177 43.1278C233.994 43.7009 233.764 44.0906 233.512 44.297C233.26 44.5033 233.008 44.6409 232.733 44.6867C232.458 44.7555 232.297 45.0306 232.228 45.4891C231.999 46.9105 231.862 48.309 231.816 49.7304C231.77 51.1518 231.793 52.5502 231.839 53.9716C231.884 55.393 231.953 56.7915 232.068 58.1899C232.16 59.5884 232.251 60.9869 232.32 62.4083V62.9356V63.8755C232.32 64.2194 232.32 64.5174 232.343 64.8155C232.366 65.1135 232.366 65.274 232.366 65.3428V65.7554C232.389 66.1681 232.549 66.4203 232.824 66.5578C233.1 66.6954 233.398 66.81 233.741 66.9476C234.085 67.0622 234.383 67.2227 234.681 67.4061C234.957 67.5895 235.14 67.9334 235.209 68.4377C235.209 68.667 235.209 69.0109 235.232 69.4694C235.255 69.9279 235.232 70.3864 235.163 70.822C235.094 71.2805 234.979 71.6932 234.773 72.06C234.59 72.4268 234.292 72.6331 233.879 72.6561C233.214 72.7936 232.435 72.8165 231.586 72.7478C230.738 72.679 229.959 72.679 229.294 72.7478C229.202 72.7478 228.95 72.7707 228.56 72.8165C228.17 72.8624 227.758 72.9082 227.345 72.977C226.932 73.0229 226.52 73.0687 226.13 73.0917C225.74 73.1375 225.511 73.1375 225.396 73.1375C224.915 73.1604 224.479 73.0687 224.09 72.8624C223.769 72.6561 223.539 72.2663 223.471 71.6932Z" fill="white"/>
<path d="M242.339 71.0283C242.11 69.1484 242.041 67.2226 242.133 65.2281C242.225 63.2335 242.248 61.2849 242.179 59.382C242.11 57.5709 242.018 55.7827 241.881 54.0633C241.743 52.3438 241.697 50.5556 241.72 48.7445C241.72 46.7958 241.72 44.9847 241.743 43.2882C241.766 41.6146 241.629 39.8264 241.354 37.9465C241.422 37.4192 241.697 37.0065 242.179 36.7085C242.66 36.4334 243.142 36.25 243.623 36.1812C244.173 36.1124 244.747 36.1124 245.411 36.1812C246.076 36.25 246.604 36.5022 247.039 36.9378C247.039 37.0065 247.039 37.1441 247.062 37.3504C247.085 37.5568 247.085 37.6943 247.085 37.7631C247.222 38.9323 247.2 40.2161 247.039 41.5917C246.879 42.9672 246.81 44.2281 246.879 45.3744C246.879 45.512 246.902 46.0164 246.947 46.9105C246.993 47.8046 247.062 48.8133 247.131 49.9596C247.2 51.1059 247.268 52.2521 247.337 53.4213C247.406 54.5906 247.452 55.5076 247.498 56.1724C247.589 57.7772 247.658 59.3591 247.681 60.8951C247.704 62.4312 247.796 63.9901 247.956 65.572C248.048 66.2139 248.346 66.5807 248.781 66.6724C249.24 66.7641 249.721 66.81 250.272 66.787C250.799 66.7641 251.303 66.787 251.762 66.81C252.22 66.8558 252.472 67.1309 252.541 67.6582C252.541 68.7357 252.518 69.6069 252.472 70.2488C252.427 70.9137 252.335 71.5097 252.243 72.037C252.152 72.5643 251.968 72.8394 251.739 72.8394C251.716 72.8853 251.647 72.8853 251.555 72.8853H251.372C250.088 72.8165 248.781 72.7706 247.429 72.7019C246.076 72.656 244.747 72.5643 243.394 72.4268C242.958 72.4038 242.683 72.2663 242.569 72.037C242.5 71.8536 242.408 71.5097 242.339 71.0283Z" fill="white"/>
<path d="M259.624 71.0283C259.395 69.1484 259.326 67.2226 259.418 65.2281C259.51 63.2335 259.533 61.2849 259.464 59.382C259.395 57.5709 259.304 55.7827 259.166 54.0633C259.028 52.3438 258.983 50.5556 259.005 48.7445C259.005 46.7958 259.006 44.9847 259.028 43.2882C259.051 41.6146 258.914 39.8264 258.639 37.9465C258.707 37.4192 258.983 37.0065 259.464 36.7085C259.945 36.4334 260.427 36.25 260.908 36.1812C261.459 36.1124 262.032 36.1124 262.697 36.1812C263.361 36.25 263.889 36.5022 264.324 36.9378C264.324 37.0065 264.324 37.1441 264.347 37.3504C264.37 37.5568 264.37 37.6943 264.37 37.7631C264.508 38.9323 264.485 40.2161 264.324 41.5917C264.164 42.9672 264.095 44.2281 264.164 45.3744C264.164 45.512 264.187 46.0164 264.233 46.9105C264.278 47.8046 264.347 48.8133 264.416 49.9596C264.485 51.1059 264.554 52.2521 264.622 53.4213C264.691 54.5906 264.737 55.5076 264.783 56.1724C264.874 57.7772 264.943 59.3591 264.966 60.8951C264.989 62.4312 265.081 63.9901 265.241 65.572C265.333 66.2139 265.631 66.5807 266.067 66.6724C266.525 66.7641 267.007 66.81 267.557 66.787C268.084 66.7641 268.588 66.787 269.047 66.81C269.505 66.8558 269.758 67.1309 269.826 67.6582C269.826 68.7357 269.804 69.6069 269.758 70.2488C269.712 70.9137 269.62 71.5097 269.528 72.037C269.437 72.5643 269.253 72.8394 269.024 72.8394C269.001 72.8853 268.932 72.8853 268.841 72.8853H268.657C267.373 72.8165 266.067 72.7706 264.714 72.7019C263.361 72.656 262.032 72.5643 260.679 72.4268C260.244 72.4038 259.968 72.2663 259.854 72.037C259.785 71.8536 259.693 71.5097 259.624 71.0283Z" fill="white"/>
<path d="M276.522 65.3199C276.499 65.1823 276.476 64.9989 276.453 64.7697C276.43 64.5404 276.407 64.2882 276.407 64.059C276.384 63.8297 276.384 63.6234 276.361 63.44C276.339 63.2566 276.339 63.119 276.339 63.0502C276.316 62.4083 276.27 61.583 276.247 60.5513C276.224 59.5197 276.178 58.5109 276.155 57.5022C276.132 56.4935 276.086 55.5994 276.063 54.8199C276.018 54.0404 276.018 53.6048 276.018 53.5131C276.018 52.5044 276.041 51.404 276.086 50.2118C276.132 49.0197 276.247 47.8046 276.407 46.5896C276.568 45.3516 276.843 44.1824 277.233 43.0132C277.622 41.8439 278.127 40.8123 278.769 39.9182C279.411 39.0012 280.213 38.2675 281.222 37.6944C282.207 37.1213 283.423 36.7774 284.821 36.6857H285.83C286.77 36.8232 287.687 37.0296 288.558 37.3276C289.429 37.6027 290.232 37.9924 290.919 38.4968C291.63 38.9782 292.249 39.5743 292.753 40.2392C293.281 40.904 293.67 41.7293 293.945 42.6693C293.968 42.8068 294.014 43.1278 294.06 43.6551C294.106 44.1824 294.129 44.5263 294.129 44.6867C294.129 44.9618 294.129 45.3516 294.152 45.8789C294.175 46.4062 294.175 46.7042 294.175 46.773C294.175 47.1169 294.175 47.8505 294.198 48.9738C294.221 50.0972 294.243 51.3352 294.266 52.6649C294.289 53.9946 294.335 55.2784 294.335 56.5393C294.358 57.8002 294.358 58.7402 294.358 59.3363C294.358 60.1845 294.358 61.1474 294.381 62.2478C294.404 63.3483 294.358 64.4716 294.289 65.6408C294.198 66.81 294.06 67.9793 293.831 69.1255C293.602 70.2718 293.258 71.3035 292.753 72.1976C292.249 73.1146 291.584 73.8482 290.782 74.4443C289.979 75.0404 288.948 75.3613 287.71 75.4301C286.632 75.4989 285.623 75.4301 284.661 75.2238C283.698 75.0174 282.712 74.7423 281.703 74.4214C280.694 74.1233 279.869 73.6419 279.227 73.0229C278.585 72.381 278.081 71.6474 277.691 70.7991C277.301 69.9509 277.026 69.0568 276.843 68.1168C276.659 67.1081 276.568 66.191 276.522 65.3199ZM283.239 64.976C283.308 65.6867 283.514 66.3057 283.858 66.8788C284.225 67.429 284.798 67.6812 285.601 67.6124C286.151 67.5666 286.54 67.429 286.816 67.131C287.091 66.833 287.274 66.4891 287.389 66.0764C287.503 65.6638 287.572 65.2052 287.595 64.7467C287.618 64.2653 287.641 63.8297 287.664 63.44V63.0044C287.664 62.7751 287.664 62.5459 287.687 62.2937C287.71 62.0415 287.71 61.8122 287.71 61.583V61.1932C287.801 59.4738 287.87 57.9149 287.87 56.4705C287.87 55.0262 287.824 53.4673 287.71 51.7479C287.71 51.5415 287.687 51.2206 287.664 50.762C287.641 50.3035 287.595 49.8221 287.572 49.2948C287.526 48.7675 287.503 48.2861 287.48 47.8276C287.435 47.369 287.435 47.0481 287.435 46.8418C287.366 46.6354 287.251 46.3603 287.068 46.0164C286.884 45.6725 286.678 45.3287 286.449 45.0077C286.242 44.6867 285.99 44.4116 285.692 44.1824C285.417 43.9531 285.142 43.8385 284.867 43.8385C284.523 43.8843 284.248 44.0219 283.973 44.3199C283.721 44.595 283.514 44.9618 283.377 45.3516C283.216 45.7642 283.102 46.1769 283.033 46.5896C282.941 47.0022 282.895 47.3461 282.849 47.6212C282.826 47.69 282.781 47.8505 282.758 48.1256C282.735 48.4007 282.689 48.6987 282.643 49.0426C282.597 49.3865 282.551 49.7075 282.483 50.0055C282.437 50.3035 282.414 50.4869 282.414 50.5557V51.2664V52.619C282.414 53.1234 282.414 53.6278 282.391 54.1092C282.368 54.5906 282.368 54.9804 282.368 55.2326V55.6452C282.368 55.714 282.368 55.7598 282.391 55.8057C282.414 55.8516 282.414 55.8974 282.414 55.9662V56.1725C282.437 56.5164 282.506 57.0895 282.597 57.9378C282.689 58.786 282.781 59.6572 282.872 60.5743C282.987 61.4913 283.056 62.3854 283.124 63.2336C283.147 64.059 283.193 64.6321 283.239 64.976Z" fill="white"/>
<path d="M323.336 73.8483C323.198 73.7566 323.061 73.6419 322.923 73.5273C322.786 73.4127 322.717 73.2751 322.717 73.0917C322.556 71.4869 322.556 69.8363 322.74 68.2086C322.923 66.5579 323.015 64.9302 323.015 63.3025C323.015 61.285 322.946 59.2675 322.831 57.2272C322.717 55.1868 322.579 53.1693 322.442 51.1289C322.304 49.0885 322.19 47.0711 322.121 45.0536C322.029 43.0361 322.029 41.0416 322.098 39.0471C322.098 38.8407 322.167 38.6344 322.281 38.4051C322.396 38.1759 322.579 38.0383 322.809 37.9925C323.152 37.9466 323.542 37.9696 324.001 38.0383C324.459 38.1071 324.826 38.13 325.124 38.0842C325.262 38.0842 325.514 38.0842 325.881 38.0613C326.247 38.0383 326.637 38.0154 327.073 38.0154C327.485 37.9925 327.898 37.9696 328.265 37.9696C328.632 37.9466 328.884 37.9466 329.021 37.9466C329.044 37.9466 329.182 37.9237 329.434 37.9008C329.663 37.8779 329.916 37.832 330.191 37.8091C330.466 37.7632 330.695 37.7403 330.924 37.6944C331.154 37.6715 331.291 37.6486 331.36 37.6486C331.566 37.6486 331.887 37.6257 332.346 37.6027C332.804 37.5569 333.263 37.5569 333.698 37.6027C334.157 37.6257 334.569 37.6945 334.936 37.8091C335.303 37.9008 335.509 38.1071 335.532 38.4051L335.876 42.6464C335.899 42.9215 335.785 43.1508 335.532 43.3342C335.257 43.5176 335.005 43.6322 334.776 43.6551C334.111 43.7239 333.423 43.701 332.758 43.5864C332.094 43.4717 331.406 43.4488 330.695 43.5176C330.535 43.5176 330.305 43.5176 330.03 43.5405C329.755 43.5634 329.48 43.6093 329.205 43.6551C328.907 43.7239 328.678 43.8385 328.471 43.9532C328.265 44.0907 328.173 44.2971 328.173 44.5492C328.265 45.9018 328.265 47.3003 328.173 48.7446C328.082 50.189 328.081 51.6104 328.219 52.9859C328.219 53.1464 328.242 53.3756 328.265 53.6507C328.288 53.9258 328.402 54.1322 328.563 54.3156C328.7 54.4073 328.907 54.499 329.182 54.5448C329.48 54.5907 329.755 54.6136 330.076 54.6136C330.374 54.6136 330.672 54.6136 330.924 54.5907C331.199 54.5678 331.383 54.5678 331.52 54.5678C331.658 54.5678 331.91 54.5448 332.277 54.5219C332.644 54.499 333.033 54.4531 333.446 54.4073C333.859 54.3614 334.249 54.3156 334.615 54.2927C334.982 54.2468 335.234 54.2468 335.372 54.2468C335.464 54.2468 335.555 54.3156 335.624 54.4302C335.693 54.5448 335.716 54.6365 335.716 54.7053L336.06 57.9837C336.106 58.2817 336.014 58.5798 335.83 58.9007C335.647 59.1988 335.418 59.3822 335.143 59.4051C334.409 59.4968 333.652 59.4968 332.919 59.3822C332.185 59.2675 331.429 59.2446 330.649 59.3134C330.168 59.3822 329.847 59.4968 329.64 59.6802C329.434 59.8636 329.297 60.0929 329.251 60.368C329.182 60.6431 329.159 60.9411 329.159 61.285V62.3396C329.159 62.4313 329.136 62.6835 329.113 63.0732C329.067 63.4629 329.044 63.8756 328.976 64.3112C328.907 64.7468 328.884 65.1594 328.861 65.5263C328.838 65.8931 328.792 66.1452 328.769 66.2369C328.838 66.2828 328.861 66.3745 328.815 66.535C328.792 66.6955 328.792 66.833 328.861 66.9247C328.861 67.1311 328.884 67.3832 328.953 67.6583C329.021 67.9564 329.205 68.0939 329.503 68.0939H330.695H332.46H334.226H335.349C335.876 68.0939 336.381 68.1398 336.816 68.2544C337.252 68.3461 337.55 68.7359 337.733 69.3548C337.733 69.4236 337.756 69.5841 337.802 69.8363C337.848 70.0885 337.894 70.3636 337.962 70.6845C338.008 71.0055 338.054 71.3265 338.123 71.6474C338.169 71.9684 338.215 72.2206 338.261 72.381V72.6791C338.329 73.1605 338.215 73.4127 337.894 73.4815C337.596 73.5502 337.252 73.619 336.885 73.6878C335.464 73.8483 334.065 73.8941 332.644 73.8024C331.222 73.7337 329.824 73.6649 328.402 73.619C328.311 73.5961 328.059 73.5961 327.646 73.642C327.233 73.6878 327.004 73.7107 326.935 73.7107C326.798 73.7107 326.545 73.7107 326.202 73.7337C325.858 73.7566 325.468 73.7795 325.101 73.8024C324.711 73.8254 324.345 73.8483 324.024 73.8712C323.703 73.8483 323.473 73.8483 323.336 73.8483Z" fill="white"/>
<path d="M350.962 60.6889C351.031 60.4825 350.985 60.2533 350.847 59.9782C350.687 59.7031 350.481 59.5884 350.206 59.5884H350.045C350.045 59.8636 350.045 60.3221 350.022 60.964C349.999 61.6288 349.999 62.3166 349.976 63.0502C349.953 63.7838 349.953 64.4945 349.93 65.1594C349.908 65.8242 349.908 66.2828 349.908 66.512V67.5666C349.93 68.2314 349.999 68.8963 350.114 69.5611C350.206 70.203 350.274 70.8908 350.32 71.5557C350.32 71.8537 350.274 72.1059 350.206 72.2893C350.114 72.4727 349.885 72.5644 349.518 72.5644C348.807 72.6332 348.142 72.6561 347.5 72.6102C346.858 72.5873 346.171 72.6102 345.437 72.702C345.299 72.6332 345.185 72.4956 345.093 72.2893L344.887 71.8766C344.887 71.8078 344.864 71.6244 344.818 71.3035C344.772 70.9825 344.749 70.7762 344.749 70.6845C344.68 69.6528 344.68 68.5982 344.726 67.5666C344.772 66.5349 344.841 65.4804 344.91 64.4258C344.91 62.7063 344.887 61.0328 344.841 59.3821C344.795 57.7315 344.887 56.0579 345.162 54.3385L344.451 40.1704C344.451 40.0099 344.451 39.7806 344.474 39.5285C344.497 39.2533 344.543 39.0012 344.635 38.749C344.726 38.4968 344.841 38.2905 344.978 38.1071C345.139 37.9237 345.322 37.832 345.552 37.832H345.758C346.56 37.9007 347.225 37.9695 347.752 38.0383C348.28 38.1071 348.647 38.4968 348.83 39.2075C349.105 39.9411 349.403 40.6747 349.701 41.4313C350.022 42.1649 350.343 42.8756 350.641 43.5405C350.664 43.5634 350.687 43.6322 350.687 43.7239V43.9073C350.847 44.8014 351.123 45.7413 351.489 46.7042C351.856 47.6671 352.223 48.5383 352.544 49.3407C352.475 49.6845 352.544 50.0743 352.75 50.5099C352.957 50.9455 353.186 51.381 353.461 51.8166C353.736 52.2522 353.965 52.6649 354.195 53.0775C354.424 53.4673 354.493 53.8112 354.424 54.0863C354.47 54.178 354.539 54.4072 354.676 54.7282C354.814 55.0492 354.928 55.393 355.066 55.7598C355.18 56.1267 355.295 56.4705 355.41 56.7915C355.524 57.1125 355.616 57.3417 355.685 57.4793C355.708 57.571 355.754 57.7315 355.822 57.9149C355.868 58.0983 355.937 58.3046 356.006 58.5109C356.075 58.7402 356.12 58.9465 356.189 59.1299C356.235 59.3363 356.258 59.4738 356.258 59.5426C356.418 59.9553 356.533 60.3679 356.602 60.8035C356.671 61.2391 356.9 61.6059 357.313 61.8581C357.473 61.5142 357.565 61.1474 357.565 60.7577C358.046 57.0208 358.252 53.3527 358.207 49.7533C358.161 46.154 358.092 42.4859 358.023 38.7031C358.046 38.6344 358.138 38.4968 358.275 38.2905C358.413 38.0841 358.505 37.9924 358.573 37.9924L362.608 37.6944C362.906 37.6944 363.067 37.7861 363.067 37.9466C363.067 38.1071 363.159 38.2446 363.365 38.2905C363.273 39.8036 363.273 41.2937 363.365 42.761C363.457 44.2282 363.457 45.7184 363.319 47.2315C363.09 49.4094 362.861 51.5644 362.7 53.6278C362.517 55.714 362.517 57.869 362.677 60.0928L362.264 71.2347C362.219 71.5327 362.058 71.9454 361.76 72.4727C361.462 73 361.118 73.3209 360.751 73.4585C360.683 73.4585 360.499 73.4585 360.224 73.4814C359.949 73.5043 359.766 73.5043 359.697 73.5043C358.849 73.5731 358.046 73.5961 357.267 73.5502C356.487 73.5273 355.685 73.4356 354.837 73.298C354.401 73.2751 354.057 72.9541 353.828 72.3581C353.599 71.762 353.415 71.1201 353.301 70.3865C353.186 69.6528 353.094 68.9651 353.048 68.3231C353.002 67.6583 352.957 67.2456 352.934 67.0393C352.888 66.9017 352.842 66.6266 352.727 66.1681C352.636 65.7325 352.544 65.4345 352.475 65.2511C352.406 65.0906 352.315 64.7926 352.177 64.3341C352.04 63.8985 351.902 63.44 351.742 62.9585C351.581 62.4771 351.444 62.0186 351.306 61.583C351.146 61.1703 351.031 60.8494 350.962 60.6889Z" fill="white"/>
<path d="M370.379 69.4236C370.402 69.3548 370.379 69.2172 370.311 68.965C370.219 68.7358 370.127 68.4607 370.013 68.1856C369.898 67.9105 369.783 67.6353 369.669 67.3832C369.554 67.131 369.462 66.9476 369.439 66.81V65.0447V63.3253C369.439 63.119 369.439 62.6834 369.462 61.9956C369.485 61.3079 369.485 60.5742 369.508 59.7718C369.531 58.9924 369.554 58.2358 369.554 57.548C369.577 56.8603 369.577 56.4247 369.577 56.2183V53.1004C369.6 52.8712 369.646 52.4815 369.646 51.9542C369.669 51.4269 369.692 50.8996 369.715 50.3494C369.737 49.7992 369.76 49.2719 369.783 48.8133C369.806 48.3548 369.829 48.0339 369.852 47.8505C369.852 47.7817 369.875 47.5754 369.898 47.2315C369.921 46.8647 369.99 46.6354 370.058 46.4979C370.15 45.9247 370.219 45.3286 370.265 44.6867C370.288 44.0448 370.402 43.4487 370.563 42.8756C370.769 42.3483 371.09 41.7064 371.526 40.9498C371.961 40.2162 372.489 39.5055 373.108 38.8636C373.727 38.1987 374.414 37.6485 375.148 37.1671C375.882 36.6856 376.661 36.4564 377.463 36.4564C378.06 36.4564 378.541 36.4793 378.885 36.5022C379.229 36.5252 379.527 36.5939 379.779 36.7086C380.031 36.8003 380.26 36.9608 380.467 37.19C380.673 37.4193 380.925 37.7173 381.223 38.13C381.223 38.1987 381.269 38.2675 381.315 38.3363L381.407 38.428V43.059L381.017 43.357C379.504 43.4258 378.312 43.7468 377.418 44.3199C376.523 44.8931 375.927 45.7871 375.629 47.0022C375.583 47.2773 375.561 47.7129 375.492 48.3319C375.446 48.9509 375.377 49.6157 375.308 50.3035C375.24 50.9913 375.171 51.6561 375.102 52.2751C375.033 52.8941 375.01 53.3297 375.01 53.559V55.5306C375.01 56.8144 375.01 58.0066 375.033 59.107C375.056 60.2074 375.102 61.4454 375.148 62.798C375.217 63.7609 375.423 64.5633 375.744 65.1594C376.088 65.7554 376.478 66.2369 376.959 66.6037C377.441 66.9476 377.922 67.2227 378.472 67.4061C378.999 67.5895 379.504 67.75 379.985 67.8646C380.467 67.9792 380.856 68.1168 381.2 68.2543C381.544 68.4148 381.751 68.6211 381.819 68.8963V70.226C381.819 70.5011 381.842 70.822 381.865 71.2118C381.888 71.6015 381.888 71.9912 381.842 72.381C381.796 72.7707 381.682 73.1146 381.521 73.4126C381.361 73.7107 381.04 73.917 380.604 74.0087H379.252C377.234 74.0087 375.446 73.6648 373.887 72.9541C372.328 72.2434 371.159 71.0513 370.379 69.4236Z" fill="white"/>
<path d="M400.756 73.5501C400.595 73.4814 400.412 73.3667 400.251 73.2292C400.091 73.0687 399.976 72.9082 399.953 72.7477L398.738 62.0644C398.738 61.9268 398.669 61.8122 398.555 61.7205C398.44 61.6288 398.326 61.5829 398.234 61.6288L392.388 62.179L393.351 71.0054C393.42 71.5327 393.58 72.037 393.809 72.4956C394.038 72.9541 394.199 73.4355 394.268 73.9399C394.291 74.1462 394.291 74.2608 394.222 74.3067C394.153 74.3525 393.993 74.3984 393.763 74.4213C393.695 74.4213 393.603 74.4213 393.488 74.4442C393.374 74.4672 393.305 74.4672 393.259 74.4672H392.64C392.365 74.4672 392.067 74.4672 391.769 74.4901C391.471 74.513 391.196 74.5359 390.943 74.5359C390.691 74.5589 390.531 74.5589 390.462 74.5589C389.866 74.5589 389.362 74.4901 388.995 74.3525C388.628 74.215 388.33 74.0087 388.147 73.7565C387.94 73.4814 387.803 73.1604 387.711 72.7707C387.619 72.3809 387.551 71.9453 387.482 71.441C387.321 69.584 387.184 67.7499 387.069 65.9159C386.954 64.0818 386.886 62.2248 386.817 60.3449C386.817 60.322 386.817 60.1386 386.794 59.7947C386.771 59.4508 386.748 59.084 386.725 58.6255C386.679 58.1899 386.656 57.7543 386.634 57.3417C386.588 56.929 386.565 56.5851 386.542 56.3559C386.473 55.072 386.542 53.9028 386.725 52.8253C386.909 51.7478 387.115 50.5786 387.344 49.2947C387.138 48.7216 387.184 48.1255 387.459 47.4836C387.734 46.8417 387.963 46.2686 388.147 45.7642C388.215 45.4891 388.261 45.2369 388.261 45.0076C388.284 44.7784 388.33 44.5033 388.445 44.2052C388.445 44.1823 388.468 44.1135 388.49 44.0218C388.513 43.9301 388.559 43.9072 388.582 43.9072C388.949 43.2424 389.27 42.5546 389.545 41.8668C389.82 41.179 390.187 40.4913 390.646 39.8264C390.944 39.4138 391.31 39.0011 391.746 38.5884C392.181 38.1758 392.663 37.7631 393.167 37.3963C393.672 37.0295 394.199 36.7315 394.749 36.4793C395.299 36.25 395.85 36.0895 396.4 36.0208C397.913 35.8832 399.082 36.0895 399.93 36.6398C400.779 37.19 401.443 37.9007 401.925 38.7948C402.406 39.6659 402.796 40.6288 403.048 41.7063C403.323 42.7609 403.621 43.7467 403.965 44.6637C403.965 44.7555 403.988 44.9618 404.034 45.214C404.08 45.4891 404.126 45.7642 404.149 46.0622C404.195 46.3602 404.218 46.6354 404.263 46.8875C404.309 47.1397 404.332 47.3231 404.332 47.4148C404.561 49.6386 404.699 51.8624 404.768 54.1321C404.814 56.3788 404.882 58.6255 404.997 60.8493C404.997 61.4224 404.951 62.0185 404.859 62.6146C404.768 63.2106 404.745 63.8067 404.791 64.3799C404.791 64.4486 404.814 64.632 404.837 64.9071C404.859 65.2052 404.905 65.5032 404.928 65.8471C404.951 66.191 404.997 66.489 405.043 66.7871C405.089 67.0851 405.112 67.2456 405.112 67.3143V68.9879C405.112 69.0567 405.112 69.2401 405.135 69.5152C405.157 69.8132 405.18 70.1113 405.18 70.4552C405.203 70.799 405.203 71.0971 405.226 71.3951C405.249 71.6931 405.249 71.8766 405.249 71.9683C405.249 72.1746 405.226 72.4726 405.157 72.8853C405.089 73.298 404.859 73.5272 404.493 73.596H404.401C404.378 73.596 404.263 73.5731 404.08 73.5501C403.897 73.5272 403.782 73.5043 403.759 73.5043C403.667 73.5043 403.461 73.5043 403.163 73.5272C402.865 73.5501 402.544 73.5501 402.223 73.5501C401.902 73.5501 401.604 73.5501 401.306 73.5731C401.054 73.5501 400.847 73.5501 400.756 73.5501ZM392.48 55.393C392.502 55.8056 392.755 56.0808 393.19 56.2412C393.626 56.4017 394.13 56.5163 394.703 56.5622C395.276 56.608 395.85 56.631 396.423 56.608C396.996 56.5851 397.432 56.5622 397.73 56.5393C397.798 56.5393 397.936 56.5393 398.142 56.5163C398.349 56.4934 398.486 56.4934 398.555 56.4934C398.624 56.4017 398.669 56.31 398.715 56.2183C398.738 56.1266 398.784 56.0349 398.807 55.9432C398.807 55.7369 398.784 55.4159 398.761 54.9574C398.715 54.4989 398.692 54.0174 398.692 53.4672C398.669 52.9399 398.669 52.4356 398.647 51.9771C398.624 51.5185 398.624 51.1976 398.624 50.9912C398.647 50.9225 398.67 50.762 398.67 50.5327V50.0513L398.165 45.1452C398.142 44.9159 398.05 44.6408 397.913 44.3428C397.775 44.0448 397.615 43.7696 397.409 43.5175C397.202 43.2653 396.95 43.0589 396.675 42.9214C396.377 42.7609 396.102 42.7151 395.804 42.738C395.529 42.7609 395.276 42.8526 395.047 42.9902C393.947 44.1365 393.236 45.3286 392.984 46.5666C392.709 47.8046 392.571 49.1801 392.525 50.6474C392.525 51.4498 392.502 52.2522 392.48 53.0087C392.388 53.7882 392.411 54.5906 392.48 55.393Z" fill="white"/>
<path d="M416.849 60.6889C416.918 60.4825 416.872 60.2533 416.735 59.9782C416.574 59.7031 416.368 59.5884 416.116 59.5884H415.955C415.955 59.8636 415.955 60.3221 415.932 60.964C415.909 61.6288 415.886 62.3166 415.886 63.0502C415.863 63.7838 415.84 64.4945 415.84 65.1594C415.818 65.8242 415.818 66.2828 415.818 66.512V67.5666C415.841 68.2314 415.909 68.8963 416.024 69.5611C416.116 70.203 416.184 70.8908 416.23 71.5557C416.23 71.8537 416.184 72.1059 416.116 72.2893C416.024 72.4727 415.795 72.5644 415.428 72.5644C414.717 72.6332 414.052 72.6561 413.41 72.6102C412.768 72.5873 412.081 72.6102 411.347 72.702C411.21 72.6332 411.095 72.4956 411.003 72.2893L410.797 71.8766C410.797 71.8078 410.774 71.6244 410.728 71.3035C410.682 70.9825 410.659 70.7762 410.659 70.6845C410.591 69.6528 410.591 68.5982 410.636 67.5666C410.682 66.5349 410.751 65.4804 410.82 64.4258C410.82 62.7063 410.797 61.0328 410.751 59.3821C410.705 57.7315 410.82 56.0579 411.072 54.3385L410.361 40.1704C410.361 40.0099 410.361 39.7806 410.384 39.5285C410.407 39.2533 410.453 39.0012 410.545 38.749C410.636 38.4968 410.751 38.2905 410.889 38.1071C411.049 37.9237 411.232 37.832 411.462 37.832H411.668C412.471 37.9007 413.135 37.9695 413.663 38.0383C414.19 38.1071 414.557 38.4968 414.74 39.2075C415.015 39.9411 415.29 40.6747 415.611 41.4313C415.932 42.1649 416.253 42.8756 416.551 43.5405C416.574 43.5634 416.597 43.6322 416.597 43.7239V43.9073C416.758 44.8014 417.033 45.7413 417.4 46.7042C417.766 47.6671 418.133 48.5383 418.454 49.3407C418.385 49.6845 418.454 50.0743 418.66 50.5099C418.867 50.9455 419.096 51.381 419.371 51.8166C419.646 52.2522 419.875 52.6649 420.105 53.0775C420.334 53.4673 420.403 53.8112 420.334 54.0863C420.38 54.178 420.449 54.4072 420.586 54.7282C420.724 55.0492 420.838 55.393 420.976 55.7598C421.091 56.1267 421.205 56.4705 421.32 56.7915C421.434 57.1125 421.526 57.3417 421.595 57.4793C421.641 57.571 421.664 57.7315 421.71 57.9149C421.755 58.0983 421.824 58.3046 421.893 58.5109C421.962 58.7402 422.008 58.9465 422.076 59.1299C422.122 59.3363 422.145 59.4738 422.145 59.5426C422.306 59.9553 422.42 60.3679 422.489 60.8035C422.558 61.2391 422.787 61.6059 423.2 61.8581C423.36 61.5142 423.452 61.1474 423.452 60.7577C423.933 57.0208 424.14 53.3527 424.094 49.7533C424.048 46.154 423.979 42.4859 423.91 38.7031C423.933 38.6344 424.025 38.4968 424.163 38.2905C424.3 38.0841 424.392 37.9924 424.461 37.9924L428.495 37.6944C428.794 37.6944 428.954 37.7861 428.954 37.9466C428.954 38.1071 429.046 38.2446 429.252 38.2905C429.16 39.8036 429.16 41.2937 429.252 42.761C429.344 44.2282 429.344 45.7184 429.206 47.2315C428.977 49.4094 428.748 51.5644 428.564 53.6278C428.381 55.714 428.358 57.869 428.541 60.0928L428.129 71.2347C428.083 71.5327 427.922 71.9454 427.624 72.4727C427.326 73 426.982 73.3209 426.616 73.4585C426.547 73.4585 426.363 73.4585 426.088 73.4814C425.813 73.5043 425.63 73.5043 425.561 73.5043C424.713 73.5731 423.91 73.5961 423.131 73.5502C422.351 73.5273 421.549 73.4356 420.701 73.298C420.265 73.2751 419.921 72.9541 419.692 72.3581C419.463 71.762 419.279 71.1201 419.165 70.3865C419.05 69.6528 418.958 68.9651 418.913 68.3231C418.867 67.6583 418.821 67.2456 418.798 67.0393C418.775 66.9017 418.706 66.6266 418.592 66.1681C418.5 65.7325 418.408 65.4345 418.339 65.2511C418.271 65.0906 418.179 64.7926 418.041 64.3341C417.904 63.8985 417.766 63.44 417.606 62.9585C417.445 62.4771 417.308 62.0186 417.17 61.583C417.01 61.1703 416.895 60.8494 416.849 60.6889Z" fill="white"/>
<path d="M439.982 73.7565C440.028 73.6189 440.005 73.3438 439.959 72.9312C439.913 72.5185 439.89 72.2434 439.89 72.1058C439.821 71.0742 439.821 70.0654 439.913 69.1026C440.005 68.1397 440.096 67.131 440.234 66.0535C440.257 65.9847 440.257 65.893 440.234 65.7783C440.211 65.6637 440.188 65.5949 440.188 65.5491C440.188 64.7008 440.234 63.8755 440.371 63.0731C440.486 62.2707 440.555 61.4454 440.601 60.5971C440.669 59.0153 440.647 57.4792 440.555 55.9661C440.463 54.453 440.417 52.917 440.463 51.381C440.463 51.2434 440.463 51.0371 440.486 50.7849C440.509 50.5098 440.532 50.2576 440.532 49.9825C440.555 49.7074 440.578 49.4782 440.578 49.2489C440.601 49.0197 440.601 48.8821 440.601 48.8133C440.601 48.7445 440.624 48.607 440.646 48.3548C440.669 48.1255 440.715 47.8734 440.738 47.6212C440.761 47.369 440.807 47.1398 440.83 46.9105C440.876 46.6812 440.876 46.5437 440.876 46.4749V46.3144C440.876 46.0852 440.784 45.9018 440.624 45.7871C440.463 45.6725 440.28 45.6037 440.119 45.5579C439.11 45.6267 438.148 45.6266 437.231 45.5808C436.314 45.5349 435.351 45.5349 434.342 45.6037C434.067 45.5349 433.815 45.4203 433.585 45.2598C433.585 45.0994 433.562 44.7784 433.54 44.3199C433.494 43.8614 433.471 43.5633 433.448 43.4258C433.402 43.1277 433.356 42.6463 433.264 42.0273C433.173 41.3854 433.127 40.7435 433.104 40.0786C433.081 39.4367 433.15 38.8406 433.287 38.3134C433.425 37.7861 433.7 37.488 434.136 37.4193H434.342L451.146 37.5797C451.376 37.5797 451.559 37.6485 451.697 37.809C451.834 37.9695 451.949 38.1299 452.018 38.3363C452.109 38.5426 452.155 38.7489 452.201 38.9782C452.224 39.1845 452.247 39.3679 452.247 39.5055C452.247 39.5284 452.247 39.666 452.27 39.8952C452.293 40.1016 452.316 40.3767 452.339 40.6518C452.362 40.9498 452.407 41.2249 452.43 41.5C452.453 41.7981 452.476 42.0273 452.476 42.2336C452.476 42.3254 452.476 42.5088 452.499 42.738C452.522 42.9673 452.522 43.2424 452.545 43.5175C452.568 43.8155 452.568 44.0677 452.591 44.3199C452.614 44.5721 452.614 44.7555 452.614 44.8472C452.614 45.0077 452.568 45.1911 452.453 45.3515C452.362 45.512 452.224 45.6266 452.041 45.6496C451.192 45.7871 450.367 45.8559 449.519 45.8559C448.67 45.8559 447.845 45.9018 446.997 46.0164C446.836 46.0393 446.676 46.0622 446.538 46.0393C446.401 46.0164 446.24 46.1081 446.08 46.2686C445.874 46.4978 445.759 46.7959 445.69 47.1168C445.621 47.4378 445.621 47.8046 445.621 48.1485C445.621 48.4924 445.644 48.8592 445.667 49.2031C445.69 49.5469 445.713 49.8679 445.713 50.143C445.553 53.9028 445.461 57.6856 445.461 61.4683C445.461 65.2511 445.69 68.9879 446.172 72.7019C446.172 72.977 446.126 73.298 446.057 73.7106C445.965 74.1233 445.736 74.3296 445.369 74.3755H445.323C445.255 74.3755 445.117 74.3755 444.911 74.3526C444.704 74.3296 444.475 74.3067 444.223 74.2838C443.971 74.2379 443.741 74.2379 443.535 74.2379H443.191C442.985 74.215 442.733 74.215 442.412 74.2379C442.091 74.2838 441.77 74.2838 441.449 74.2838C441.128 74.2838 440.83 74.2379 440.532 74.1921C440.326 74.0774 440.119 73.9628 439.982 73.7565Z" fill="white"/>
<path d="M470.611 73.5501C470.45 73.4814 470.267 73.3667 470.106 73.2292C469.946 73.0687 469.831 72.9082 469.808 72.7477L468.593 62.0644C468.593 61.9268 468.524 61.8122 468.41 61.7205C468.295 61.6288 468.181 61.5829 468.089 61.6288L462.243 62.179L463.206 71.0054C463.274 71.5327 463.435 72.037 463.664 72.4956C463.893 72.9541 464.054 73.4355 464.123 73.9399C464.146 74.1462 464.146 74.2608 464.077 74.3067C464.008 74.3525 463.848 74.3984 463.618 74.4213C463.55 74.4213 463.458 74.4213 463.343 74.4442C463.229 74.4672 463.16 74.4672 463.114 74.4672H462.495C462.22 74.4672 461.922 74.4672 461.601 74.4901C461.303 74.513 461.028 74.5359 460.776 74.5359C460.523 74.5589 460.363 74.5589 460.294 74.5589C459.698 74.5589 459.194 74.4901 458.827 74.3525C458.46 74.215 458.162 74.0087 457.979 73.7565C457.772 73.4814 457.635 73.1604 457.543 72.7707C457.451 72.3809 457.383 71.9453 457.314 71.441C457.153 69.584 457.016 67.7499 456.901 65.9159C456.786 64.0818 456.718 62.2248 456.649 60.3449C456.649 60.322 456.649 60.1386 456.626 59.7947C456.603 59.4508 456.58 59.084 456.557 58.6255C456.511 58.1899 456.488 57.7543 456.465 57.3417C456.42 56.929 456.397 56.5851 456.374 56.3559C456.305 55.072 456.374 53.9028 456.557 52.8253C456.741 51.7478 456.947 50.5786 457.176 49.2947C456.97 48.7216 457.016 48.1255 457.314 47.4836C457.589 46.8417 457.818 46.2686 458.001 45.7642C458.07 45.4891 458.116 45.2369 458.116 45.0076C458.139 44.7784 458.185 44.5033 458.3 44.2052C458.3 44.1823 458.322 44.1135 458.345 44.0218C458.368 43.9301 458.414 43.9072 458.437 43.9072C458.804 43.2424 459.125 42.5546 459.4 41.8668C459.675 41.179 460.042 40.4913 460.5 39.8264C460.798 39.4138 461.165 39.0011 461.601 38.5884C462.036 38.1758 462.518 37.7631 463.022 37.3963C463.527 37.0295 464.054 36.7315 464.604 36.4793C465.154 36.25 465.705 36.0895 466.255 36.0208C467.768 35.8832 468.937 36.0895 469.785 36.6398C470.634 37.19 471.298 37.9007 471.78 38.7948C472.261 39.6659 472.651 40.6288 472.903 41.7063C473.178 42.7609 473.476 43.7467 473.82 44.6637C473.82 44.7555 473.843 44.9618 473.889 45.214C473.935 45.4891 473.981 45.7642 474.004 46.0622C474.05 46.3602 474.072 46.6354 474.118 46.8875C474.164 47.1397 474.187 47.3231 474.187 47.4148C474.416 49.6386 474.554 51.8624 474.623 54.1321C474.668 56.3788 474.737 58.6255 474.852 60.8493C474.852 61.4224 474.806 62.0185 474.714 62.6146C474.623 63.2106 474.6 63.8067 474.646 64.3799C474.646 64.4486 474.669 64.632 474.691 64.9071C474.714 65.2052 474.76 65.5032 474.783 65.8471C474.806 66.191 474.852 66.489 474.898 66.7871C474.944 67.0851 474.967 67.2456 474.967 67.3143V68.9879C474.967 69.0567 474.967 69.2401 474.989 69.5152C475.012 69.8132 475.035 70.1113 475.035 70.4552C475.058 70.799 475.058 71.0971 475.081 71.3951C475.104 71.6931 475.104 71.8766 475.104 71.9683C475.104 72.1746 475.081 72.4726 475.012 72.8853C474.944 73.298 474.714 73.5272 474.348 73.596H474.256C474.21 73.596 474.118 73.5731 473.935 73.5501C473.751 73.5272 473.637 73.5043 473.614 73.5043C473.522 73.5043 473.316 73.5043 473.018 73.5272C472.72 73.5501 472.399 73.5501 472.078 73.5501C471.757 73.5501 471.459 73.5501 471.161 73.5731C470.886 73.5501 470.702 73.5501 470.611 73.5501ZM462.334 55.393C462.357 55.8056 462.61 56.0808 463.045 56.2412C463.481 56.4017 463.985 56.5163 464.558 56.5622C465.131 56.608 465.704 56.631 466.278 56.608C466.851 56.5851 467.286 56.5622 467.584 56.5393C467.653 56.5393 467.791 56.5393 467.997 56.5163C468.203 56.4934 468.341 56.4934 468.41 56.4934C468.479 56.4017 468.524 56.31 468.57 56.2183C468.616 56.1266 468.639 56.0349 468.662 55.9432C468.662 55.7369 468.639 55.4159 468.616 54.9574C468.57 54.4989 468.547 54.0174 468.547 53.4672C468.524 52.9399 468.524 52.4356 468.501 51.9771C468.479 51.5185 468.479 51.1976 468.479 50.9912C468.501 50.9225 468.524 50.762 468.524 50.5327V50.0513L468.02 45.1452C467.974 44.9159 467.905 44.6408 467.768 44.3428C467.63 44.0448 467.47 43.7696 467.264 43.5175C467.057 43.2653 466.805 43.0589 466.53 42.9214C466.232 42.7609 465.957 42.7151 465.636 42.738C465.361 42.7609 465.108 42.8526 464.879 42.9902C463.779 44.1365 463.091 45.3286 462.816 46.5666C462.541 47.8046 462.403 49.1801 462.357 50.6474C462.357 51.4498 462.334 52.2522 462.312 53.0087C462.243 53.7882 462.266 54.5906 462.334 55.393Z" fill="white"/>
<path d="M481.96 74.3067C481.891 74.2608 481.845 74.1233 481.799 73.8711C481.753 73.6189 481.753 73.4584 481.753 73.3896C481.547 72.1746 481.524 70.9824 481.661 69.7903C481.799 68.5982 481.845 67.406 481.822 66.2368C481.753 64.7237 481.593 63.2106 481.34 61.7205C481.088 60.2303 480.882 58.7172 480.767 57.2041C480.721 56.0349 480.721 54.8886 480.767 53.8111C480.79 52.7107 480.813 51.5873 480.813 50.4181C480.859 49.3406 480.813 48.2631 480.722 47.1626C480.63 46.0622 480.538 44.9847 480.469 43.9072V43.6091V43.0819V42.5546V42.2107C480.423 42.0273 480.401 41.7522 480.378 41.3395C480.355 40.9268 480.309 40.5142 480.286 40.0557C480.24 39.5971 480.217 39.1616 480.194 38.7718C480.171 38.3592 480.148 38.0841 480.148 37.9006C480.217 37.6255 480.286 37.4192 480.355 37.3046C480.423 37.167 480.561 37.0524 480.767 36.9607C480.836 36.9378 481.02 36.8919 481.34 36.8461C481.661 36.8002 481.868 36.7773 481.982 36.7773C483.817 36.548 485.49 36.6168 486.98 37.0295C488.47 37.4421 489.754 38.084 490.832 39.0011C491.909 39.9181 492.803 41.0185 493.514 42.3482C494.202 43.6779 494.683 45.1222 494.958 46.7041C495.119 47.988 495.211 49.2259 495.211 50.441C495.211 51.6561 495.165 52.917 495.05 54.2237C495.188 54.8886 495.211 55.5534 495.096 56.1954C495.004 56.8373 494.981 57.5021 495.05 58.167C495.096 59.2445 495.142 60.5054 495.256 61.9268C495.348 63.3482 495.325 64.7925 495.188 66.2139C495.027 67.6353 494.683 68.965 494.133 70.203C493.583 71.441 492.666 72.3809 491.428 73.0457C490.213 73.6418 488.929 74.0545 487.576 74.2608C486.224 74.4671 484.871 74.6506 483.518 74.811C483.45 74.811 483.289 74.834 483.037 74.8569C482.785 74.9027 482.624 74.9027 482.556 74.9027C482.487 74.834 482.395 74.7652 482.281 74.6735C482.051 74.5588 481.982 74.4442 481.96 74.3067ZM486.751 67.6582C486.912 67.9333 487.141 68.0479 487.416 68.0021C487.783 67.9792 488.081 67.7728 488.31 67.406C488.539 67.0392 488.7 66.6266 488.814 66.168C488.929 65.7095 489.021 65.251 489.066 64.7696C489.112 64.2881 489.158 63.9213 489.204 63.6691C489.227 63.4399 489.273 63.1189 489.296 62.6833C489.319 62.2707 489.364 61.858 489.387 61.4683C489.41 61.0785 489.433 60.7346 489.456 60.4595C489.479 60.1615 489.479 60.0239 489.479 59.9781L489.433 59.5654C489.433 57.7084 489.456 55.8056 489.479 53.834C489.502 51.8624 489.387 49.9137 489.066 48.0109C488.906 47.048 488.7 46.2685 488.493 45.6954C488.264 45.1222 487.806 44.4803 487.049 43.7696C486.957 43.6091 486.866 43.4716 486.774 43.357C486.682 43.2653 486.522 43.2194 486.293 43.2653C486.132 43.3111 486.063 43.4487 486.109 43.7008C486.155 43.953 486.178 44.0906 486.178 44.1364C486.27 46.1768 486.338 48.2401 486.384 50.2805C486.407 52.3209 486.476 54.3842 486.545 56.4246C486.568 58.0982 486.522 59.8176 486.384 61.537C486.247 63.2565 486.315 64.9759 486.591 66.6495C486.591 66.7183 486.613 66.8787 486.659 67.1309C486.705 67.429 486.751 67.5894 486.751 67.6582Z" fill="white"/>
<path d="M501.813 65.3199C501.79 65.1823 501.744 64.9989 501.744 64.7697C501.721 64.5404 501.698 64.2882 501.698 64.059C501.675 63.8297 501.675 63.6234 501.653 63.44C501.63 63.2566 501.63 63.119 501.63 63.0502C501.607 62.4083 501.561 61.583 501.538 60.5513C501.515 59.5197 501.469 58.5109 501.446 57.5022C501.423 56.4935 501.377 55.5994 501.354 54.8199C501.332 54.0404 501.309 53.6048 501.309 53.5131C501.309 52.5044 501.332 51.404 501.377 50.2118C501.423 49.0197 501.538 47.8046 501.698 46.5896C501.859 45.3516 502.134 44.1824 502.524 43.0132C502.913 41.8439 503.418 40.8123 504.06 39.9182C504.702 39.0012 505.504 38.2675 506.513 37.6944C507.499 37.1213 508.714 36.7774 510.112 36.6857H511.121C512.061 36.8232 512.978 37.0296 513.849 37.3276C514.72 37.6027 515.523 37.9924 516.21 38.4968C516.921 38.9782 517.517 39.5743 518.044 40.2392C518.572 40.904 518.961 41.7293 519.237 42.6693C519.259 42.8068 519.305 43.1278 519.374 43.6551C519.42 44.1824 519.443 44.5263 519.443 44.6867C519.443 44.9618 519.443 45.3516 519.466 45.8789C519.489 46.4062 519.489 46.7042 519.489 46.773C519.489 47.1169 519.489 47.8505 519.512 48.9738C519.535 50.0972 519.557 51.3352 519.58 52.6649C519.603 53.9946 519.649 55.2784 519.649 56.5393C519.672 57.8002 519.672 58.7402 519.672 59.3363C519.672 60.1845 519.672 61.1474 519.695 62.2478C519.718 63.3483 519.672 64.4716 519.603 65.6408C519.512 66.81 519.374 67.9793 519.145 69.1255C518.916 70.2718 518.572 71.3035 518.067 72.1976C517.563 73.1146 516.898 73.8482 516.096 74.4443C515.293 75.0404 514.262 75.3613 513.024 75.4301C511.946 75.4989 510.937 75.4301 509.975 75.2238C509.012 75.0174 508.026 74.7423 507.017 74.4214C506.008 74.1233 505.183 73.6419 504.541 73.0229C503.899 72.381 503.395 71.6474 503.005 70.7991C502.615 69.9509 502.34 69.0568 502.157 68.1168C501.973 67.1081 501.859 66.191 501.813 65.3199ZM508.53 64.976C508.599 65.6867 508.805 66.3057 509.149 66.8788C509.516 67.429 510.089 67.6812 510.892 67.6124C511.419 67.5666 511.832 67.429 512.107 67.131C512.382 66.833 512.565 66.4891 512.68 66.0764C512.794 65.6638 512.863 65.2052 512.886 64.7467C512.909 64.2653 512.932 63.8297 512.955 63.44V63.0044C512.955 62.7751 512.955 62.5459 512.978 62.2937C513.001 62.0415 513.001 61.8122 513.001 61.583V61.1932C513.092 59.4738 513.161 57.9149 513.161 56.4705C513.161 55.0262 513.115 53.4673 513.001 51.7479C513.001 51.5415 512.978 51.2206 512.955 50.762C512.932 50.3035 512.886 49.8221 512.863 49.2948C512.817 48.7675 512.794 48.2861 512.771 47.8276C512.726 47.369 512.726 47.0481 512.726 46.8418C512.657 46.6354 512.542 46.3603 512.359 46.0164C512.175 45.6725 511.969 45.3287 511.763 45.0077C511.533 44.6867 511.281 44.4116 511.006 44.1824C510.731 43.9531 510.456 43.8385 510.181 43.8385C509.837 43.8843 509.539 44.0219 509.287 44.3199C509.035 44.595 508.828 44.9618 508.691 45.3516C508.53 45.7642 508.416 46.1769 508.347 46.5896C508.255 47.0022 508.209 47.3461 508.163 47.6212C508.14 47.69 508.095 47.8505 508.072 48.1256C508.049 48.4007 508.003 48.6987 507.957 49.0426C507.911 49.3865 507.865 49.7075 507.797 50.0055C507.751 50.3035 507.728 50.4869 507.728 50.5557V51.2664V52.619C507.728 53.1234 507.728 53.6278 507.705 54.1092C507.682 54.5906 507.682 54.9804 507.682 55.2326V55.6452C507.682 55.714 507.682 55.7598 507.705 55.8057C507.728 55.8516 507.728 55.8974 507.728 55.9662V56.1725C507.774 56.5164 507.82 57.0895 507.911 57.9378C508.003 58.786 508.095 59.6572 508.186 60.5743C508.278 61.4913 508.37 62.3854 508.438 63.2336C508.438 64.059 508.507 64.6321 508.53 64.976Z" fill="white"/>
<path d="M53.0448 61.6993C53.0448 61.6993 36.9997 58.0601 25.8746 51.0579C5.0094 37.9305 0.085834 12.198 0.085834 12.198C0.085834 12.198 20.3559 33.8174 44.5412 31.0358C52.5882 30.1127 51.5636 27.0185 51.5636 27.0185L53.0448 61.6993Z" fill="#B780B1"/>
</svg>
