<svg width="496" height="507" viewBox="0 0 496 507" fill="none" xmlns="http://www.w3.org/2000/svg">
<path d="M100.992 248.018C100.992 240.276 105.264 183.435 105.749 176.299" stroke="black" stroke-width="0.712" stroke-miterlimit="10"/>
<path d="M419.032 260.712C419.032 253.358 418.158 195.473 418.595 188.993" stroke="black" stroke-width="0.712" stroke-miterlimit="10"/>
<path d="M255.159 81.0622L254.674 0.921417" stroke="black" stroke-width="0.712" stroke-miterlimit="10"/>
<path d="M188.172 268.891C188.245 273.089 219.214 276.075 253.12 275.541C287.001 275.007 317.873 271.148 317.824 266.949C317.751 262.75 286.758 259.765 252.877 260.299C218.971 260.833 188.099 264.692 188.172 268.891Z" fill="black"/>
<path d="M381.729 361.992C381.802 364.831 400.441 366.627 423.352 366.021C446.239 365.39 464.758 362.574 464.685 359.735C464.612 356.895 445.972 355.099 423.061 355.73C400.174 356.337 381.656 359.152 381.729 361.992Z" fill="black"/>
<path d="M133.419 353.837C133.346 356.677 114.706 358.473 91.7948 357.866C68.9078 357.235 50.3896 354.419 50.4867 351.58C50.5595 348.74 69.1992 346.944 92.0862 347.575C114.997 348.182 133.516 350.997 133.419 353.837Z" fill="black"/>
<path d="M112.304 769.2C97.6203 773.52 93.6886 779.175 50.9485 775.243C20.9745 772.501 0.830078 760.56 0.830078 760.56C0.830078 760.56 32.7457 572.877 36.2649 553.145C50.099 475.383 51.8222 426.114 54.4191 397.596C57.2345 358.084 54.7588 332.552 69.9763 322.407C80.3641 315.49 121.818 336.241 124.415 344.007C127.012 351.774 114.998 455.481 114.998 470.189C114.998 484.897 124.415 624.888 125.289 636.101C126.138 647.338 112.304 769.2 112.304 769.2Z" fill="#B4B0A5"/>
<path d="M166.742 587.245C166.742 587.245 179.703 418.736 182.3 409.222C184.897 399.708 194.41 395.388 194.41 395.388C194.41 395.388 199.192 271.026 201.327 255.396C202.954 243.48 267.877 246.756 267.877 246.756C267.877 246.756 303.312 244.159 305.884 261.44C308.481 278.72 308.481 400.557 311.078 402.305C313.675 404.028 317.995 405.775 320.592 412.668C323.189 419.585 333.552 586.371 329.232 590.691C324.888 595.012 176.256 585.522 166.742 587.245Z" fill="#B4B0A5"/>
<path d="M372.433 771.578C372.433 771.578 397.796 777.331 435.221 776.772C472.67 776.19 492.838 760.633 495.144 758.327C497.45 756.021 476.141 641.95 476.141 621.199C476.141 600.472 458.86 485.237 458.277 479.485C457.695 473.732 456.142 364.006 454.977 358.837C453.812 353.643 438.109 349.274 438.109 349.274C438.109 349.274 391.024 353.376 391.024 360.851C391.024 365.123 394.01 414.294 390.223 471.403C387.335 514.555 378.938 578.775 376.462 594.138C370.686 629.864 364.934 761.798 372.433 771.578Z" fill="#B4B0A5"/>
<path d="M50.5098 352.017C51.8689 352.017 66.9165 347.502 89.8035 347.502C112.69 347.502 132.18 353.327 133.466 353.327C130.141 333.644 104.948 223.262 102.788 220.229C100.968 217.656 63.5672 310.223 50.5098 352.017Z" fill="#3C3C3B"/>
<path d="M464.659 360.172C463.276 360.172 448.252 355.657 425.366 355.657C402.454 355.657 382.989 361.482 381.703 361.482C385.028 341.823 415.415 231.417 417.575 228.408C419.711 225.374 457.33 336.726 464.659 360.172Z" fill="#3C3C3B"/>
<path d="M317.776 267.604C315.762 267.58 297.607 256.003 256.251 256.78C213.85 257.581 190.017 268.138 188.1 268.114C193.366 239.062 250.523 64.17 253.775 59.7528C257.027 55.3113 307.34 232.776 317.776 267.604Z" fill="#3C3C3B"/>
<path d="M73.0813 528.001C73.0813 528.001 72.7172 502.25 75.1928 495.527C77.6684 488.804 86.8426 488.829 88.2503 500.478C89.658 512.128 88.5901 528.001 88.5901 528.001H73.0813Z" fill="#FAFAFB"/>
<path d="M81.1406 402.353C81.1406 400.703 81.1405 377.549 83.6161 372.258C86.0674 366.967 93.8339 367.623 95.6057 375.559C97.3774 383.495 92.0866 404.319 92.0866 404.319L81.1406 402.353Z" fill="#FAFAFB"/>
<path d="M79.7083 406.115C81.0917 406.334 92.062 407.523 94.1735 407.523C96.285 407.523 96.9889 400.12 94.5133 400.12C92.0378 400.12 79.3443 398.713 78.2764 399.756C77.2328 400.824 75.4853 405.411 79.7083 406.115Z" fill="#DAD8CC"/>
<path d="M418.765 527.419C418.765 527.419 418.401 505.26 420.876 499.508C423.352 493.731 432.526 493.731 433.934 503.755C435.342 513.779 434.274 527.419 434.274 527.419H418.765Z" fill="#FAFAFB"/>
<path d="M420.271 411.649C420.076 410.12 417.625 388.544 419.518 383.35C421.411 378.132 429.178 377.889 431.799 385.073C434.396 392.257 431.338 412.256 431.338 412.256L420.271 411.649Z" fill="#FAFAFB"/>
<path d="M419.274 415.411C420.682 415.484 431.701 415.411 433.812 415.168C435.924 414.925 435.778 407.474 433.327 407.766C430.875 408.033 418.085 408.081 417.162 409.246C416.216 410.435 414.978 415.192 419.274 415.411Z" fill="#DAD8CC"/>
<path d="M152.374 189.114C147.69 186.833 140.554 182.707 135.87 181.736C126.987 179.867 123.687 182.221 116.333 181.445C111.551 180.935 107.255 178.241 105.338 177.537L103.906 194.72C109.974 197.269 115.726 199.38 125.41 194.551C136.137 189.187 141.161 188.993 152.374 189.114Z" fill="#E30613"/>
<path d="M466.48 201.759C461.65 203.749 454.272 207.39 449.54 208.069C440.535 209.355 437.404 206.807 430.026 207.098C425.221 207.292 420.755 209.695 418.789 210.302L418.449 193.07C424.662 190.934 430.536 189.187 439.904 194.623C450.292 200.642 455.316 201.152 466.48 201.759Z" fill="#E30613"/>
<path d="M318.141 12.4256C312.898 17.2554 300.52 23.5172 294.477 24.3667C282.973 25.9928 278.944 22.7405 269.479 23.1046C263.314 23.3473 257.586 26.4296 255.086 27.2063L254.674 5.14451C262.635 2.40196 270.158 0.169085 282.148 7.13468C295.424 14.8769 303.651 12.4499 318.141 12.4256Z" fill="#E30613"/>
<path d="M240.644 326.096C240.644 326.096 237.707 302.432 238.921 295.418C241.081 282.895 260.958 280.735 260.521 298.452C260.133 314.495 259.235 327.406 259.235 327.406L240.644 326.096Z" fill="#FAFAFB"/>
<path d="M219.578 507.153C219.578 507.153 219.432 473.272 220.039 453.394C220.913 425.313 270.473 419.828 271.953 452.35C273.846 494.023 269.138 507.153 269.138 507.153H219.578Z" fill="#FAFAFB"/>
<path d="M247.779 506.425L246.809 464.777L219.771 464.121" stroke="#DADADA" stroke-width="0.712" stroke-miterlimit="10"/>
<path d="M245.959 428.541L246.809 464.777L273.384 464.17" stroke="#DADADA" stroke-width="0.712" stroke-miterlimit="10"/>
<path d="M237.174 331.727C240.523 333.741 260.085 333.013 262.245 332.163C264.405 331.314 264.842 324.397 261.809 323.96C258.775 323.523 237.611 322.674 236.3 323.96C235.014 325.222 235.014 330.416 237.174 331.727Z" fill="#DAD8CC"/>
<path d="M215.136 516.642C217.588 518.608 276.055 517.079 279.089 516.642C280.666 513.075 282.123 481.208 279.963 479.921C277.802 478.635 266.128 478.198 266.128 480.795C266.128 483.392 267.852 493.319 266.128 493.755C264.405 494.192 255.765 494.629 254.042 493.755C252.319 492.882 254.042 479.921 252.319 479.921C250.595 479.921 238.921 479.072 238.921 480.795C238.921 482.518 240.645 493.755 239.358 493.755C238.072 493.755 227.272 495.479 227.272 493.755C227.272 492.032 227.272 480.795 225.548 480.795C223.825 480.795 214.311 479.921 214.311 482.081C214.287 484.241 214.287 513.05 215.136 516.642Z" fill="#DAD8CC"/>
<path d="M386.146 454.607C386.146 454.607 386.996 475.407 389.229 475.407C391.486 475.407 405.684 471.208 427.43 471.767C443.546 472.155 459.225 475.965 460.899 475.674C462.598 475.383 464.782 454.899 463.666 453.515C462.525 452.108 426.023 448.176 426.023 448.176L386.146 454.607Z" fill="#908B84"/>
<path d="M46.9912 442.666C46.9912 442.666 45.8991 464.413 47.1854 466.573C52.986 466.864 63.6648 463.854 84.8286 464.752C106.356 465.65 117.958 471.281 117.958 469.558C117.958 467.835 120.992 448.564 117.958 448.152C114.924 447.715 49.5881 441.817 46.9912 442.666Z" fill="#908B84"/>
<path d="M176.595 404.562C176.255 406.528 177.177 423.566 178.318 423.905C179.459 424.245 217.248 418.42 250.328 418.76C282.705 419.076 302.582 421.211 323.649 424.828C323.649 423.517 324.304 402.45 321.683 400.654C319.062 398.858 227.902 396.771 227.902 396.771L176.595 404.562Z" fill="#908B84"/>
<path d="M379.763 438.007C379.447 439.414 385.054 462.18 386.17 462.18C387.287 462.18 406.412 455.651 427.77 455.651C449.128 455.651 463.957 461.355 465.364 461.355C466.772 461.355 473.228 436.356 471.82 435.507C470.413 434.657 460.292 431.842 459.176 431.842C458.059 431.842 457.21 445.603 456.093 445.603C454.977 445.603 450.754 444.195 449.37 443.904C447.963 443.637 451.045 429.585 449.37 429.293C447.671 429.002 436.167 427.595 435.876 428.444C435.585 429.293 435.876 441.647 434.759 441.647C433.643 441.647 426.896 441.938 425.488 441.647C424.081 441.38 424.639 427.595 423.814 427.595C422.964 427.595 410.319 428.711 409.494 429.293C408.645 429.852 411.46 442.764 410.343 442.764C409.227 442.764 400.684 445.166 399.567 444.875C398.451 444.584 396.194 431.332 395.344 431.332C394.446 431.381 380.612 434.342 379.763 438.007Z" fill="#DAD8CC"/>
<path d="M39.9782 426.017C39.2016 429.633 44.3469 451.841 44.5411 453.637C44.7352 455.433 58.7878 449.802 82.9368 450.676C107.474 451.549 120.58 457.01 121.575 457.204C122.57 457.399 127.594 431.648 128.007 428.857C128.395 426.066 116.381 424.148 115.993 425.337C115.58 426.527 114.221 439.851 114.221 439.851C114.221 439.851 106.6 439.196 104.343 438.638C104.173 436.405 106.503 427.036 106.261 424.973C104.877 423.396 92.7178 423.59 92.3294 424.585C91.9411 425.58 90.9703 436.599 90.9703 437.594C88.519 437.958 83.1552 437.764 79.4419 437.667C78.7138 436.065 80.6311 423.517 79.4419 423.105C78.2526 422.716 66.7727 422.134 66.1659 423.347C65.5834 424.537 66.8455 437.812 66.0446 437.812C65.2436 437.812 57.9383 439.487 57.1374 439.487C56.3365 439.487 55.1229 425.289 55.3171 424.294C51.5309 423.347 41.7257 424.876 39.9782 426.017Z" fill="#DAD8CC"/>
<path d="M170.794 376.238C170.503 377.767 172.517 407.96 174.604 408.47C176.692 409.003 213.752 402.086 251.274 402.717C293.553 403.421 322.338 408.47 323.916 408.47C325.493 408.47 331.245 377.792 329.134 376.238C327.046 374.685 314.304 371.481 314.086 372.549C313.868 373.642 312.557 388.544 311.708 388.544C310.834 388.544 300.252 388.325 298.966 387.888C297.679 387.451 299.402 369.103 298.31 368.885C297.218 368.666 281.442 368.229 280.374 368.448C279.307 368.666 280.374 385.947 279.307 386.165C278.239 386.383 263.968 384.854 263.312 385.073C262.657 385.291 263.968 366.919 262.026 366.919C260.084 366.919 246.906 367.768 245.595 367.768C244.309 367.768 245.595 385.704 244.09 385.704C242.585 385.704 227.465 386.359 226.155 385.485C224.868 384.612 225.718 368.642 224.868 367.987C224.019 367.331 205.864 368.205 204.772 368.86C203.704 369.516 205.622 386.141 204.554 386.359C203.486 386.578 190.089 387.864 189.215 387.864C188.341 387.864 188.996 371.214 186.618 371.433C184.264 371.676 171.158 374.297 170.794 376.238Z" fill="#DAD8CC"/>
<path fill-rule="evenodd" clip-rule="evenodd" d="M142.131 375.874C142.131 375.85 142.131 375.85 142.131 375.874C146.063 377.282 148.854 379.879 151.232 383.131C152.106 384.32 152.907 385.558 153.538 386.99C154.363 388.859 155.164 390.776 156.911 391.82C157.324 392.063 157.858 392.402 158.416 392.33C158.659 392.305 158.95 392.087 158.95 391.82C158.95 391.65 158.78 391.456 158.707 391.286C158.538 390.849 158.513 390.339 158.707 389.854C158.78 389.636 158.902 389.296 159.096 389.272C159.387 389.223 159.63 389.66 159.751 389.903C159.921 390.218 159.994 390.509 160.091 390.849C160.698 390.776 161.183 390.97 161.62 391.116C161.838 390.631 162.057 390.024 162.785 390.072C163.489 391.043 162.833 392.475 162.178 392.985C164.12 394.029 166.741 393.082 167.93 391.966C168.61 391.359 169.192 390.655 169.823 390.024C173.027 386.772 177.76 385.17 183.852 384.733C182.711 385.437 181.546 386.238 180.745 387.306C180.381 387.791 179.993 388.495 179.871 389.247C179.75 390.048 179.92 390.97 180.235 391.601C177.371 392.378 176.061 394.635 175.672 397.79C174.847 397.208 173.61 396.892 172.323 396.747C170.94 396.601 169.629 396.844 168.61 397.354C166.644 398.324 165.188 400.023 164.047 401.674C164.29 400.824 164.023 400.023 163.367 399.562C162.809 399.174 161.838 399.028 161.134 399.271C160.722 399.417 160.406 399.732 160.285 400.193C159.994 399.805 159.63 399.295 158.999 399.247C158.416 399.198 157.979 399.514 157.64 399.732C157.591 399.222 157.494 398.858 157.3 398.47C157.106 398.082 156.814 397.548 156.305 397.548C155.698 397.548 155.188 398.033 154.8 398.397C154.363 398.81 153.999 399.247 153.683 399.611C153.319 396.99 152.3 394.927 150.795 393.446C149.29 391.99 147.228 390.97 144.534 390.776C145.189 389.805 145.771 388.204 145.14 386.747C144.606 385.534 143.563 384.757 142.495 384.15C144.072 383.641 145.043 382.524 144.898 380.413C144.825 379.345 144.388 378.495 143.903 377.743C143.369 377.015 142.762 376.36 142.131 375.874Z" fill="#3C3C3B"/>
</svg>
