<svg width="132" height="135" viewBox="0 0 132 135" fill="none" xmlns="http://www.w3.org/2000/svg">
<path d="M90.1221 67.8941C90.1221 67.8941 100.069 95.9388 94.015 105.727C88.4061 114.799 77.792 109.794 77.792 109.794C77.792 109.794 75.3291 122.824 58.3593 121.187C49.9379 120.377 46.5376 112.162 45.1552 109.794C30.966 109.794 19.478 109.794 18.2863 98.6082C17.8732 94.6994 20.5744 92.2048 19.1603 90.4888C17.7461 88.7727 14.0916 89.5513 8.59387 87.3903C1.96801 84.7845 -2.2109 74.806 1.23709 68.339C4.62152 61.9992 11.9465 66.6388 7.86292 62.5553C3.77936 58.4717 3.4457 53.8956 5.84499 48.668C8.56207 42.773 20.0977 49.8279 20.0977 49.8279L90.1221 67.8941Z" fill="#DAC5A7"/>
<path d="M67.2412 42.8366C67.2412 42.8366 65.271 51.3056 60.234 50.5429C58.1049 50.2251 39.0058 41.2158 21.9725 42.8366C4.93908 44.4732 6.09901 48.2389 5.39988 50.5588C4.70075 52.8786 9.37223 58.71 9.13389 59.6316C8.89555 60.5691 -3.00557 66.8612 1.53878 75.9658C6.09902 85.0704 15.4261 83.4339 16.3635 85.0705C17.301 86.7071 16.3635 100.467 21.2733 103.28C26.1672 106.076 41.3416 104.678 43.6773 105.838C46.0131 106.998 50.2237 118.47 61.5369 116.817C72.8502 115.165 74.7092 104.9 76.3458 104.9C77.9824 104.9 89.6611 111.987 94.3167 98.6082C98.0348 87.9146 91.4566 70.8018 92.1557 69.4989C92.8549 68.196 95.7308 61.4907 94.3167 60.0924C92.9025 58.71 67.2412 42.8366 67.2412 42.8366Z" fill="#F3A5C2"/>
<path d="M84.0368 59.4091C72.8666 52.2113 46.236 31.3962 42.0253 20.9092C37.8306 10.4064 48.7942 10.8672 50.1925 11.1055C51.5908 11.328 57.6605 15.5386 58.598 15.5386C59.5354 15.5386 60.6953 10.0091 68.64 11.0261C76.5688 12.043 83.3377 19.511 86.1342 22.0692C88.9466 24.6432 95.0004 19.9718 98.7344 23.9441C102.468 27.9164 101.769 34.6853 103.406 36.7827C105.043 38.8801 116.006 40.755 117.182 46.3481C118.342 51.9411 112.574 52.2272 112.812 53.3871C113.051 54.547 120.439 56.6126 122.076 60.8074C123.713 65.0022 123.236 68.768 110.636 67.7034C98.0512 66.6388 88.9307 62.5552 84.0368 59.4091Z" fill="#D18FAA"/>
<path d="M72.8355 51.4327C72.1681 28.0277 46.1572 11.2803 46.1572 11.2803C46.1572 11.2803 65.7488 9.75492 68.7996 11.2485C71.7868 15.7293 90.1866 36.2107 79.2865 56.2154C77.2686 54.8489 73.0102 51.1467 72.8355 51.4327Z" fill="#E99FBC"/>
<path d="M89.0252 62.2374C104.994 62.4758 110.079 45.935 109.65 39.3409C109.634 39.0708 95.8735 15.6022 95.8735 22.3869C95.8735 22.3869 102.849 48.3978 84.608 60.0288C84.5921 60.0288 88.0877 61.9038 89.0252 62.2374Z" fill="#E99FBC"/>
<path d="M122.075 60.8074C120.439 56.6126 113.606 54.4835 113.368 53.3235C113.13 52.1636 118.342 51.9412 117.182 46.3481C116.006 40.7392 105.042 38.8801 103.405 36.7827C101.769 34.6853 102.468 27.9165 98.734 23.9441C95 19.9718 88.9303 24.6433 86.1338 22.0851C83.3373 19.5269 76.5684 12.0589 68.6396 11.0261C60.7108 10.0092 59.535 15.5387 58.6134 15.5387C57.6759 15.5387 54.4027 11.1055 50.2079 11.1055C48.9527 11.1055 40.3883 10.5176 41.1351 17.5248C40.2294 14.1404 34.8271 -1.27228 66.7806 1.33357C70.6258 1.65136 74.2962 2.06448 77.7919 2.60472C87.8339 2.92251 97.0339 5.21059 104.264 10.8831C112.033 15.1255 117.785 20.226 122.346 27.9006C125.126 30.5859 130.147 42.9796 130.179 48.0959C134.183 65.6855 126.016 66.8613 120.709 66.8771C120.693 66.8771 120.693 66.8771 120.677 66.8771C123.251 65.6219 123.045 63.3021 122.075 60.8074Z" fill="#DAC5A7"/>
<path d="M61.5372 116.833C51.5269 118.295 47.0779 109.492 44.5674 106.632C66.5424 97.5436 76.8546 60.0288 76.8546 60.0288C76.8546 60.0288 81.2559 63.461 83.8141 65.0817C83.687 71.2467 82.7177 93.1263 76.362 104.9C74.7095 104.916 72.8345 115.181 61.5372 116.833Z" fill="#F6BCD4"/>
<path d="M9.13428 59.6316C9.18195 59.4568 9.03891 59.0914 8.80057 58.6147C31.1092 66.178 66.7649 54.0703 66.7649 54.0703C66.7649 54.0703 71.4205 57.0099 73.5973 58.281C70.483 62.8095 46.7761 86.8501 16.5705 85.6743C16.5228 85.42 16.4593 85.1976 16.3798 85.0705C15.4582 83.4339 6.11527 85.0705 1.55503 75.9659C-3.00522 66.8772 8.89594 60.5691 9.13428 59.6316Z" fill="#F6BCD4"/>
<path d="M112.813 53.3713C112.575 52.2113 122.346 43.4563 130.164 48.096C135.519 66.8772 125.953 66.8613 120.694 66.8772C120.678 66.8772 120.662 66.8772 120.662 66.8772C123.268 65.6061 123.061 63.2862 122.092 60.7916C120.456 56.6127 113.051 54.5471 112.813 53.3713Z" fill="#EBD6B6"/>
<path d="M122.346 27.9006C111.573 24.0077 104.788 31.714 102.611 34.7807C101.801 29.9185 99.3383 24.5638 98.7504 23.9282C95.0164 19.9559 88.9467 24.6274 86.1502 22.0533C85.8641 21.7991 84.9585 20.9252 84.6089 20.5915C85.1015 19.3362 87.1671 15.3798 89.2645 14.1563C94.2219 11.2327 98.0513 10.8831 105.217 11.3598C111.907 14.6171 117.675 19.7811 122.346 27.9006Z" fill="#EBD6B6"/>
<path d="M47.7925 11.3915C45.6315 11.5028 42.3901 12.2496 41.4685 14.6648C41.4685 14.6648 41.4685 14.6648 41.4685 14.6807C41.3573 14.9508 41.2778 15.2368 41.2301 15.5387L41.1031 17.9856C41.1031 17.9698 40.2609 15.4751 40.245 15.4433C39.4664 11.9953 35.8437 -2.46397 66.812 0.364332C74.0099 1.0158 76.1709 2.35051 77.8075 2.60474C72.7547 3.3992 67.1139 4.49557 64.6828 6.25929C62.7126 7.68933 61.9499 9.92972 61.791 12.2813C59.7889 13.6478 59.1533 15.5228 58.6131 15.5228C57.6756 15.5387 53.4808 11.0896 47.7925 11.3915Z" fill="#EBD6B6"/>
<path d="M17.6188 115.8C21.3687 122.426 32.6501 129.1 43.1848 120.218C52.8137 112.114 49.5246 102.167 43.3754 96.2407C37.0197 90.1233 27.6926 90.1392 21.1144 95.4303C14.5362 100.69 14.5204 110.319 17.6188 115.8Z" fill="#EFE6DE"/>
<path d="M24.8013 99.2597C24.8013 99.2597 21.3692 103.486 22.3226 106.187C23.2759 108.905 25.0715 109.286 25.0715 109.286C25.0715 109.286 24.8808 107.395 25.278 105.043C25.6753 102.692 27.8679 101.055 27.8679 101.055L24.8013 99.2597Z" fill="white"/>
<path d="M39.0065 126.955C41.7395 132.484 50.5581 138.411 59.5038 131.706C67.6709 125.572 65.4623 117.389 60.759 112.305C55.8969 107.061 48.3336 106.648 42.7723 110.62C37.211 114.593 36.7502 122.394 39.0065 126.955Z" fill="#F8EFE6"/>
<path d="M47.1095 113.592C47.1095 113.592 44.1381 116.849 44.7737 119.09C45.4093 121.33 46.8711 121.711 46.8711 121.711C46.8711 121.711 46.8075 120.17 47.2365 118.295C47.6656 116.42 49.5246 115.197 49.5246 115.197L47.1095 113.592Z" fill="white"/>
<path d="M73.582 58.2969C68.2749 54.6901 61.7126 51.2738 61.522 50.5429C62.8408 49.6372 65.1447 47.7623 64.1755 44.5685C70.5471 48.668 81.3837 54.3246 94.8419 64.0489C94.3335 66.766 93.4278 68.7363 92.0931 69.7532C87.1038 66.5594 78.5395 61.6496 73.582 58.2969Z" fill="#D18FAA"/>
<path d="M46.9981 69.4671C51.32 75.7275 63.3006 81.2253 72.866 71.6122C80.8742 63.5563 77.5851 53.0693 70.9275 47.7146C64.0633 42.1692 54.768 43.0273 48.6824 48.8586C42.6126 54.69 43.4389 64.2872 46.9981 69.4671Z" fill="#F8EFE6"/>
<path d="M52.8461 52.3543C52.8461 52.3543 49.7954 56.8669 50.9871 59.4727C52.1629 62.0945 54.0061 62.3169 54.0061 62.3169C54.0061 62.3169 53.6565 60.442 53.8472 58.0744C54.0379 55.7069 56.0717 53.8797 56.0717 53.8797L52.8461 52.3543Z" fill="white"/>
</svg>
