<?xml version="1.0" encoding="UTF-8" standalone="no"?>
<svg
   width="250"
   height="150"
   viewBox="0 0 250 150"
   fill="none"
   version="1.1"
   id="svg601"
   sodipodi:docname="svgCasBees.svg"
   inkscape:version="1.2.1 (9c6d41e410, 2022-07-14)"
   xmlns:inkscape="http://www.inkscape.org/namespaces/inkscape"
   xmlns:sodipodi="http://sodipodi.sourceforge.net/DTD/sodipodi-0.dtd"
   xmlns="http://www.w3.org/2000/svg"
   xmlns:svg="http://www.w3.org/2000/svg">
  <defs
     id="defs605" />
  <sodipodi:namedview
     id="namedview603"
     pagecolor="#ffffff"
     bordercolor="#000000"
     borderopacity="0.25"
     inkscape:showpageshadow="2"
     inkscape:pageopacity="0.0"
     inkscape:pagecheckerboard="0"
     inkscape:deskcolor="#d1d1d1"
     showgrid="false"
     inkscape:zoom="5.2155172"
     inkscape:cx="116"
     inkscape:cy="73.530579"
     inkscape:window-width="1920"
     inkscape:window-height="1018"
     inkscape:window-x="-8"
     inkscape:window-y="-8"
     inkscape:window-maximized="1"
     inkscape:current-layer="svg601" />
  <path
     d="m 72.940711,62.89187 c -0.870613,1.576098 -7.278389,3.54616 -9.454924,5.00224 2.176535,0.15425 5.55452,-0.513902 7.661464,-0.822242 1.671555,-0.274108 3.09938,-0.839479 4.753496,-0.993649 0.278607,0.03431 -1.95016,-3.117802 -2.960036,-3.186349 z"
     fill="#000000"
     id="path465"
     style="stroke-width:0.808271" />
  <g
     opacity="0.6"
     id="g473"
     transform="matrix(0.8148759,0,0,0.80171807,21.857852,17.064462)">
    <g
       opacity="0.6"
       id="g471">
      <g
         opacity="0.6"
         id="g469">
        <path
           opacity="0.6"
           d="M 90.0411,40.3661 C 90.5326,36.3489 87.6693,24.041 70.0619,9.72434 66.1943,6.58323 49.9332,-2.15635 46.963,0.493299 45.5527,1.73265 40.4885,9.08327 58.7155,26.3914 c 7.0942,6.731 20.2356,11.7525 29.6162,13.6329 1.0257,0.1709 1.5385,0.5128 1.7094,0.3418 z"
           fill="#dad8cc"
           id="path467" />
      </g>
    </g>
  </g>
  <path
     d="m 92.948767,53.161338 c -3.656592,-8.70265 -11.579224,-13.75644 -17.690956,-11.272397 -6.111732,2.484043 -8.114208,11.546504 -4.474972,20.26623 3.656592,8.70265 11.561785,13.75628 17.690956,11.272236 6.111732,-2.483963 8.114125,-11.563419 4.474972,-20.266069 z"
     fill="#ffde00"
     id="path475"
     style="stroke-width:0.808271" />
  <path
     d="M 97.84103,53.675239 C 94.532722,45.760598 86.87126,41.357963 80.759527,43.841927 c -6.129171,2.484043 -8.392814,10.912584 -5.06698,18.827225 3.308315,7.914562 10.969778,12.334433 17.09895,9.85039 6.111724,-2.50112 8.375283,-10.929662 5.049533,-18.844303 z"
     fill="#000000"
     id="path477"
     style="stroke-width:0.808271" />
  <path
     d="M 103.63879,50.129079 C 99.98261,41.42643 92.059978,36.37272 85.94825,38.856683 c -6.111733,2.484043 -8.114128,11.546504 -4.474973,20.26623 3.656593,8.70265 11.561788,13.75644 17.690953,11.272397 6.11165,-2.50112 8.1138,-11.563581 4.47456,-20.266231 z"
     fill="#ffde00"
     id="path479"
     style="stroke-width:0.808271" />
  <path
     d="m 110.67362,46.462984 c -3.65635,-8.702651 -11.561786,-13.75644 -17.690951,-11.272397 -6.129093,2.484042 -8.131569,11.546504 -4.474976,20.26623 3.656596,8.702649 11.579227,13.756359 17.690627,11.272396 6.12949,-2.484043 8.13165,-11.56358 4.4753,-20.266229 z"
     fill="#000000"
     id="path481"
     style="stroke-width:0.808271" />
  <path
     d="m 104.54412,37.57193 c 0,0 -2.47233,-9.644829 -1.93247,-10.364371 0.53977,-0.719542 4.02181,-0.119936 4.02181,-0.119936"
     stroke="#000000"
     stroke-width="0.29906"
     stroke-miterlimit="10"
     stroke-linecap="round"
     stroke-linejoin="round"
     id="path483" />
  <path
     d="m 110.84719,38.120304 c 0,0 0.52233,-9.918935 1.2712,-10.46715 0.73095,-0.548215 3.88289,1.062116 3.88289,1.062116"
     stroke="#000000"
     stroke-width="0.29906"
     stroke-miterlimit="10"
     stroke-linecap="round"
     stroke-linejoin="round"
     id="path485" />
  <g
     opacity="0.6"
     id="g493"
     transform="matrix(0.8148759,0,0,0.80171807,21.857852,17.064462)">
    <g
       opacity="0.6"
       id="g491">
      <g
         opacity="0.6"
         id="g489">
        <path
           opacity="0.6"
           d="m 87.3487,40.4517 c 0.5128,0 -2.3932,-3.7609 -2.906,-4.6156 C 80.34,30.8787 75.5749,27.1393 70.1047,23.7204 61.5788,18.4211 51.9845,14.5108 41.9201,14.8527 c -2.906,0 -11.7097,-0.577 -11.902,2.5641 -1.2607,20.6416 36.518,28.847 57.3306,23.0349 z"
           fill="#dad8cc"
           id="path487" />
      </g>
    </g>
  </g>
  <path
     d="m 95.300573,48.193251 c 0.278613,-6.681197 2.855577,-9.302174 6.616707,-11.083832 4.85797,-2.466887 14.59166,-2.329873 18.59596,3.494769 6.70398,9.764766 2.57745,21.876481 -10.58604,22.887207 C 99.009404,64.34795 95.161316,51.482461 95.300573,48.193251 Z"
     fill="#ffde00"
     id="path495"
     style="stroke-width:0.808271" />
  <path
     d="m 115.75845,48.022084 c -2.78607,1.439004 -5.32848,0.239794 -6.16373,-1.952985 -0.8711,-2.312716 0.55738,-5.087943 3.39559,-5.430597 3.65635,-0.445435 6.40736,5.516221 2.76814,7.383582 z"
     fill="#ffffff"
     id="path497"
     style="stroke-width:0.808271" />
  <path
     d="m 115.11224,44.304598 c -0.48728,0.394044 -1.07888,0.188483 -1.25327,-0.239794 -0.17438,-0.462512 0.1043,-1.010726 0.67879,-1.079273 0.73175,-0.08562 1.1669,0.839399 0.57448,1.319067 z"
     fill="#000000"
     id="path499"
     style="stroke-width:0.808271" />
  <path
     d="m 119.20619,57.88939 c 0,0 -1.40974,0.873792 -3.08188,0.291264 -2.89035,-1.010726 -2.43728,-3.768876 -2.43728,-3.768876"
     stroke="#000000"
     stroke-width="0.29906"
     stroke-miterlimit="10"
     stroke-linecap="round"
     stroke-linejoin="round"
     id="path501" />
  <path
     d="m 98.764047,65.410146 c 0,0 -1.46262,3.169273 -2.106861,4.728213 -0.975088,2.346949 -2.437705,3.289129 -2.437705,3.289129"
     stroke="#000000"
     stroke-width="0.29906"
     stroke-miterlimit="10"
     stroke-linecap="round"
     stroke-linejoin="round"
     id="path503" />
  <path
     d="m 91.53708,67.328739 c 0,0 -0.592012,2.278563 -1.236252,3.820346 -0.975082,2.34695 -3.116819,3.597549 -3.116819,3.597549"
     stroke="#000000"
     stroke-width="0.29906"
     stroke-miterlimit="10"
     stroke-linecap="round"
     stroke-linejoin="round"
     id="path505" />
  <path
     d="m 85.114468,67.722783 c 0,0 -0.957641,2.158465 -1.845694,3.580392 -1.340715,2.158546 -3.656592,3.066572 -3.656592,3.066572"
     stroke="#000000"
     stroke-width="0.29906"
     stroke-miterlimit="10"
     stroke-linecap="round"
     stroke-linejoin="round"
     id="path507" />
  <path
     d="m 146.52571,89.907604 c -1.11394,1.987219 -9.22847,4.505503 -11.99661,6.338543 2.76814,0.18849 7.03401,-0.65091 9.71577,-1.04496 2.12439,-0.35973 3.93504,-1.06211 6.02438,-1.26767 0.36588,0.0685 -2.45522,-3.94029 -3.74354,-4.025913 z"
     fill="#000000"
     id="path509"
     style="stroke-width:0.808271" />
  <g
     opacity="0.6"
     id="g517"
     transform="matrix(0.8148759,0,0,0.80171807,21.857852,17.064462)">
    <g
       opacity="0.6"
       id="g515">
      <g
         opacity="0.6"
         id="g513">
        <path
           opacity="0.6"
           d="M 187.712,69.5551 C 188.331,64.4695 184.72,48.828 162.348,30.6865 157.433,26.712 136.834,15.622 133.031,18.9768 c -1.774,1.5812 -8.227,10.8977 14.915,32.8642 8.996,8.5472 25.684,14.9148 37.586,17.3081 1.304,0.1923 1.945,0.6197 2.18,0.406 z"
           fill="#dad8cc"
           id="path511" />
      </g>
    </g>
  </g>
  <path
     d="M 171.91235,77.556175 C 167.2806,66.506496 157.234,60.099406 149.46823,63.251521 c -7.76658,3.152195 -10.30818,14.664305 -5.67642,25.713984 4.63093,11.049515 14.67835,17.456855 22.44412,14.304495 7.76576,-3.15235 10.30819,-14.664225 5.67642,-25.713825 z"
     fill="#ffde00"
     id="path519"
     style="stroke-width:0.808271" />
  <path
     d="m 178.12823,78.20717 c -4.21372,-10.05603 -13.92949,-15.640877 -21.67814,-12.488682 -7.76577,3.152115 -10.65613,13.859139 -6.44241,23.898012 4.21372,10.038547 13.91238,15.64096 21.67814,12.4886 7.7837,-3.152353 10.65695,-13.859056 6.44241,-23.89793 z"
     fill="#000000"
     id="path521"
     style="stroke-width:0.808271" />
  <path
     d="M 185.47597,73.718753 C 180.84503,62.669152 170.7976,56.279139 163.03184,59.414177 c -7.76577,3.152116 -10.30819,14.664306 -5.67643,25.713905 4.63176,11.049675 14.67836,17.439608 22.44494,14.304895 7.76578,-3.1696 10.30737,-14.681703 5.67562,-25.714224 z"
     fill="#ffde00"
     id="path523"
     style="stroke-width:0.808271" />
  <path
     d="m 194.40863,69.059086 c -4.63175,-11.049678 -14.67835,-17.456689 -22.44412,-14.304493 -7.76577,3.152114 -10.30818,14.664304 -5.67643,25.713904 4.63176,11.049599 14.67836,17.43962 22.44413,14.3045 7.76658,-3.152121 10.30818,-14.664311 5.67642,-25.713911 z"
     fill="#000000"
     id="path525"
     style="stroke-width:0.808271" />
  <path
     d="m 186.64369,57.78677 c 0,0 -3.13402,-12.231653 -2.45523,-13.156754 0.67879,-0.925104 5.10194,-0.154091 5.10194,-0.154091"
     stroke="#000000"
     stroke-width="0.379079"
     stroke-miterlimit="10"
     stroke-linecap="round"
     stroke-linejoin="round"
     id="path527" />
  <path
     d="m 194.63599,58.472078 c 0,0 0.66167,-12.591463 1.60204,-13.276691 0.92325,-0.685229 4.92755,1.336304 4.92755,1.336304"
     stroke="#000000"
     stroke-width="0.379079"
     stroke-miterlimit="10"
     stroke-linecap="round"
     stroke-linejoin="round"
     id="path529" />
  <g
     opacity="0.6"
     id="g537"
     transform="matrix(0.8148759,0,0,0.80171807,21.857852,17.064462)">
    <g
       opacity="0.6"
       id="g535">
      <g
         opacity="0.6"
         id="g533">
        <path
           opacity="0.6"
           d="m 184.297,69.6618 c 0.641,0 -3.035,-4.765 -3.676,-5.8548 -5.192,-6.2822 -11.261,-11.0259 -18.184,-15.3637 -10.833,-6.7096 -22.992,-11.6884 -35.77,-11.261 -3.675,0 -14.851,-0.7265 -15.107,3.248 -1.603,26.1973 46.326,36.6035 72.737,29.2315 z"
           fill="#dad8cc"
           id="path531" />
      </g>
    </g>
  </g>
  <path
     d="m 174.90703,71.268942 c 0.34795,-8.462855 3.63923,-11.820451 8.3924,-14.064701 6.16453,-3.117881 18.52702,-2.963711 23.59392,4.436949 8.49752,12.385903 3.27335,27.752593 -13.44219,29.037427 -13.84312,1.062116 -18.71851,-15.246834 -18.54413,-19.409675 z"
     fill="#ffde00"
     id="path539"
     style="stroke-width:0.808271" />
  <path
     d="m 200.85267,71.046225 c -3.53493,1.815892 -6.75614,0.30834 -7.81792,-2.484044 -1.09763,-2.946554 0.71384,-6.458479 4.30011,-6.886758 4.66679,-0.565371 8.13163,6.989538 3.51781,9.370802 z"
     fill="#ffffff"
     id="path541"
     style="stroke-width:0.808271" />
  <path
     d="m 200.05002,66.335169 c -0.62664,0.496745 -1.39262,0.256871 -1.61915,-0.308501 -0.22655,-0.599605 0.13934,-1.30191 0.8711,-1.387613 0.95747,-0.119938 1.51484,1.079352 0.74805,1.696114 z"
     fill="#000000"
     id="path543"
     style="stroke-width:0.808271" />
  <path
     d="m 205.22204,83.552144 c 0,0 -1.79354,1.113427 -3.90081,0.376808 -3.67347,-1.267677 -3.09897,-4.796679 -3.09897,-4.796679"
     stroke="#000000"
     stroke-width="0.379079"
     stroke-miterlimit="10"
     stroke-linecap="round"
     stroke-linejoin="round"
     id="path545" />
  <path
     d="m 179.29514,93.094194 c 0,0 -1.84571,4.025823 -2.66466,5.995643 -1.23616,2.980793 -3.08185,4.163323 -3.08185,4.163323"
     stroke="#000000"
     stroke-width="0.379079"
     stroke-miterlimit="10"
     stroke-linecap="round"
     stroke-linejoin="round"
     id="path547" />
  <path
     d="m 170.13593,95.543847 c 0,0 -0.74888,2.87817 -1.56701,4.847983 -1.23617,2.98078 -3.95297,4.55697 -3.95297,4.55697"
     stroke="#000000"
     stroke-width="0.379079"
     stroke-miterlimit="10"
     stroke-linecap="round"
     stroke-linejoin="round"
     id="path549" />
  <path
     d="m 161.97005,96.040677 c 0,0 -1.20193,2.7413 -2.3338,4.539553 -1.70636,2.74108 -4.64887,3.88914 -4.64887,3.88914"
     stroke="#000000"
     stroke-width="0.379079"
     stroke-miterlimit="10"
     stroke-linecap="round"
     stroke-linejoin="round"
     id="path551" />
  <path
     d="m 61.657288,116.20411 c -1.358155,2.45006 -11.335413,5.53346 -14.730839,7.79512 3.395426,0.23971 8.636463,-0.80574 11.944859,-1.302 2.611841,-0.42892 4.823169,-1.30199 7.400214,-1.55934 0.452744,0.0858 -3.012351,-4.83116 -4.614234,-4.93378 z"
     fill="#000000"
     id="path553"
     style="stroke-width:0.808271" />
  <g
     opacity="0.6"
     id="g561"
     transform="matrix(0.8148759,0,0,0.80171807,21.857852,17.064462)">
    <g
       opacity="0.6"
       id="g559">
      <g
         opacity="0.6"
         id="g557">
        <path
           opacity="0.6"
           d="M 87.7329,105.176 C 90.0407,99.3207 90.5107,79.6193 69.4845,51.1784 64.869,44.9389 43.7359,25.4511 38.223,28.2717 c -2.6069,1.3248 -13.12,10.4276 7.6711,43.655 8.0772,12.9064 25.9836,25.5991 39.4028,32.0953 1.453,0.641 2.1155,1.346 2.436,1.154 z"
           fill="#dad8cc"
           id="path555" />
      </g>
    </g>
  </g>
  <path
     d="M 92.844629,101.02599 C 87.150762,87.458115 74.82283,79.594944 65.280796,83.466521 c -9.541952,3.871657 -12.658772,18.005219 -6.964908,31.572699 5.693864,13.56828 18.021796,21.43153 27.563749,17.55923 9.524593,-3.8715 12.641416,-18.00418 6.964992,-31.57246 z"
     fill="#ffde00"
     id="path563"
     style="stroke-width:0.808271" />
  <path
     d="M 100.48751,101.83091 C 95.316062,89.496563 83.388642,82.626962 73.864046,86.498539 c -9.541951,3.871656 -13.076639,17.011181 -7.905192,29.345601 5.171447,12.33444 17.09895,19.20437 26.623459,15.33286 9.542027,-3.87149 13.076557,-17.01165 7.905197,-29.34609 z"
     fill="#000000"
     id="path565"
     style="stroke-width:0.808271" />
  <path
     d="M 109.50834,96.297777 C 103.83192,82.729903 91.486636,74.866652 81.944683,78.738308 c -9.541952,3.871658 -12.658772,18.004899 -6.982346,31.572372 5.693782,13.56828 18.021793,21.43154 27.563743,17.56004 9.54179,-3.87149 12.65869,-18.00499 6.98226,-31.572943 z"
     fill="#ffde00"
     id="path567"
     style="stroke-width:0.808271" />
  <path
     d="M 120.47739,90.592993 C 114.78385,77.025037 102.45567,69.161867 92.913649,73.033523 83.371694,76.90518 80.254874,91.038348 85.9313,104.60647 c 5.693867,13.56747 18.03914,21.43072 27.56341,17.55922 9.54221,-3.87149 12.65911,-18.00498 6.98268,-31.572697 z"
     fill="#000000"
     id="path569"
     style="stroke-width:0.808271" />
  <path
     d="m 109.50753,77.761736 c 0,0 -6.86036,-13.927687 -6.26835,-15.21252 0.59193,-1.284833 6.09397,-1.421928 6.09397,-1.421928"
     stroke="#000000"
     stroke-width="0.465564"
     stroke-miterlimit="10"
     stroke-linecap="round"
     stroke-linejoin="round"
     id="path571" />
  <path
     d="m 119.29338,76.631073 c 0,0 -2.38596,-15.3153 -1.42849,-16.36026 0.94037,-1.045039 6.25092,0.411121 6.25092,0.411121"
     stroke="#000000"
     stroke-width="0.465564"
     stroke-miterlimit="10"
     stroke-linecap="round"
     stroke-linejoin="round"
     id="path573" />
  <g
     opacity="0.6"
     id="g581"
     transform="matrix(0.8148759,0,0,0.80171807,21.857852,17.064462)">
    <g
       opacity="0.6"
       id="g579">
      <g
         opacity="0.6"
         id="g577">
        <path
           opacity="0.6"
           d="M 84.7192,102.889 C 85.5098,102.996 81.7276,96.6283 81.108,95.218 75.7232,86.7989 69.035,80.0893 61.2356,73.7857 49.0344,63.9991 34.9528,56.1143 19.3114,54.7468 14.8241,54.1912 1.29807,51.627 0.421975,56.4562 -5.45426,88.1237 51.4277,107.932 84.7192,102.889 Z"
           fill="#dad8cc"
           id="path575" />
      </g>
    </g>
  </g>
  <path
     d="m 96.517348,93.299754 c 0.435311,-10.398605 4.457612,-14.510135 10.308422,-17.268206 7.57427,-3.837423 22.73993,-3.64902 28.99165,5.447674 10.4296,15.212525 4.02224,34.073898 -16.50693,35.650078 -17.01225,1.31883 -23.002073,-18.707283 -22.793142,-23.829546 z"
     fill="#ffde00"
     id="path583"
     style="stroke-width:0.808271" />
  <path
     d="m 112.52013,93.488157 c -4.04016,2.09 -8.35819,0 -9.55964,-3.203504 -1.27113,-3.357756 0.81847,-7.383583 4.92788,-7.880407 5.32765,-0.650997 9.92519,8.360075 4.63176,11.083911 z"
     fill="#ffffff"
     id="path585"
     style="stroke-width:0.808271" />
  <path
     d="m 108.18336,89.393623 c -0.81814,0.428278 -1.68843,0 -1.93208,-0.650995 -0.26157,-0.685228 0.15647,-1.50747 0.99252,-1.593175 1.0789,-0.137013 2.00215,1.696035 0.93956,2.24417 z"
     fill="#000000"
     id="path587"
     style="stroke-width:0.808271" />
  <path
     d="m 132.35176,89.856295 c -3.79569,1.952905 -7.05193,-0.08571 -8.1838,-3.100805 -1.18401,-3.152116 0.7668,-6.938148 4.61464,-7.40066 4.99764,-0.616761 8.51464,7.948875 3.56916,10.501465 z"
     fill="#ffffff"
     id="path589"
     style="stroke-width:0.808271" />
  <path
     d="m 129.04337,85.899094 c -0.64377,0.548135 -1.56701,-8e-5 -1.79355,-0.599684 -0.24365,-0.633839 0.15727,-1.387615 0.92325,-1.490395 1.00964,-0.119937 1.75851,1.353381 0.8703,2.090079 z"
     fill="#000000"
     id="path591"
     style="stroke-width:0.808271" />
  <path
     d="m 125.9778,100.64918 c 0,0 0.22653,4.11122 -4.05644,5.5503 -4.52746,1.52486 -6.77407,-4.50566 -6.77407,-4.50566"
     stroke="#000000"
     stroke-width="0.465564"
     stroke-miterlimit="10"
     stroke-linecap="round"
     stroke-linejoin="round"
     id="path593" />
  <path
     d="m 101.91599,120.11009 c 0,0 -2.263657,4.95141 -3.273606,7.36618 -1.532211,3.64942 -3.795853,5.12218 -3.795853,5.12218"
     stroke="#000000"
     stroke-width="0.465564"
     stroke-miterlimit="10"
     stroke-linecap="round"
     stroke-linejoin="round"
     id="path595" />
  <path
     d="m 90.665974,123.10772 c 0,0 -0.922848,3.54679 -1.932805,5.96237 -1.532292,3.64861 -4.858046,5.6016 -4.858046,5.6016"
     stroke="#000000"
     stroke-width="0.465564"
     stroke-miterlimit="10"
     stroke-linecap="round"
     stroke-linejoin="round"
     id="path597" />
  <path
     d="m 80.636562,123.72503 c 0,0 -1.480059,3.3576 -2.873009,5.58478 -2.089504,3.35759 -5.711219,4.7622 -5.711219,4.7622"
     stroke="#000000"
     stroke-width="0.465564"
     stroke-miterlimit="10"
     stroke-linecap="round"
     stroke-linejoin="round"
     id="path599" />
</svg>
