<svg width="389" height="282" viewBox="0 0 389 282" fill="none" xmlns="http://www.w3.org/2000/svg">
<path fill-rule="evenodd" clip-rule="evenodd" d="M0 0.0346688C0 -0.0202625 0.0548044 -0.00195206 0.0548044 0.0346688C9.68251 3.69675 16.5333 10.2336 22.2698 18.3817C24.3707 21.3663 26.3437 24.4608 27.8601 28.0496C29.8331 32.7554 31.7513 37.5161 36.0262 40.1528C37.0128 40.757 38.3647 41.6359 39.7348 41.4894C40.3194 41.4162 41.0684 40.9401 41.0684 40.2443C41.0684 39.8415 40.6483 39.3654 40.4656 38.9077C40.0637 37.8457 40.0271 36.5456 40.5204 35.3371C40.7396 34.8061 41.0502 33.9639 41.5069 33.8906C42.2377 33.7807 42.804 34.8794 43.0963 35.4836C43.4799 36.3076 43.6626 37.04 43.8818 37.864C45.3982 37.6809 46.6039 38.1936 47.6818 38.6147C48.2664 37.3879 48.8144 35.8865 50.6048 36.0329C52.3403 38.4499 50.6596 42.0388 48.9789 43.2289C53.7471 45.9206 60.2508 43.6134 63.2834 40.9401C64.9641 39.4387 66.4439 37.7541 68.0333 36.1794C76.0534 28.2327 87.8916 24.4424 103 23.5819C100.132 25.2481 97.227 27.189 95.1809 29.8806C94.2675 31.0891 93.281 32.8103 92.9521 34.6963C92.605 36.6555 92.9704 38.9992 93.7377 40.5556C86.6311 42.35 83.2696 47.9164 82.21 55.7715C80.1821 54.3067 77.1495 53.4461 73.9524 53.0433C70.5361 52.6039 67.2843 53.1898 64.7084 54.4349C59.794 56.7786 56.122 60.9534 53.2355 65C53.8567 62.8943 53.2355 60.8985 51.6461 59.7449C50.2942 58.7562 47.901 58.3533 46.1655 58.9576C45.1424 59.3055 44.3568 60.0928 43.9915 61.1914C43.2972 60.2027 42.4203 58.9392 40.8675 58.7561C39.406 58.5914 38.3464 59.3604 37.506 59.8914C37.4329 58.6646 37.1955 57.6941 36.7205 56.7237C36.2638 55.7716 35.5878 54.4349 34.2907 54.3983C32.7561 54.3433 31.4955 55.5701 30.5273 56.4307C29.4129 57.4195 28.4994 58.4998 27.7139 59.4153C26.9283 52.8602 24.4803 47.6967 20.79 43.998C17.118 40.3176 12.0575 37.7358 5.35277 37.1499C7.03351 34.7695 8.47678 30.8145 6.97873 27.189C5.73644 24.1495 3.1605 22.172 0.548044 20.6339C4.47586 19.3888 6.92392 16.6788 6.63162 11.4604C6.48546 8.82366 5.42584 6.64473 4.25663 4.81369C3.06915 2.9094 1.55286 1.27978 0 0.0346688Z" fill="#3C3C3B"/>
<path fill-rule="evenodd" clip-rule="evenodd" d="M273.428 272.407C274.34 271.92 275.69 273.578 277.387 273.308C279.393 271.776 277.533 268.01 275.854 267.289C276.675 261.847 273.227 260.64 268.83 260.351C266.787 253.846 260.22 249.233 251.444 251.305C247.248 241.701 239.167 235.916 225.21 235.934C221.854 227.609 216.162 221.573 206 219.969C219.281 211.59 247.942 210.995 264.561 216.959C268.009 222.906 272.589 229.105 278.281 234.132C284.976 240.025 291.872 246.854 303.894 247.089C304.788 242.043 307.434 238.728 311.83 237.142C311.155 241.124 313.344 242.277 315.497 243.467C317.723 242.872 320.04 242.061 321.591 243.773C323.798 242.656 325.641 241.142 326.17 238.349C328.432 239.124 329.362 242.494 328.614 245.287C339.524 240.998 346.912 233.231 352.714 223.897C370.41 221.194 382.159 229.267 389 239.25C381.101 239.07 376.868 242.53 374.971 248.278C371.924 246.746 367.765 244.584 363.678 245.863C361.179 246.638 360.759 248.693 358.807 249.774C351.838 245.845 343.957 251.251 340.819 255.792C327.775 250.513 324.309 262.063 317.03 268.136C314.019 270.659 311.1 272.118 306.959 273.56C308.784 275.74 307.908 281.417 302.69 280.786C303.037 279.633 304.533 279.597 304.515 278.065C302.709 275.218 298.695 275.993 295.667 277.759C293.97 278.75 293.058 281.074 291.087 281.669C286.527 283.056 283.079 279.975 282.239 274.443C280.123 276.587 274.449 276.173 273.428 272.407Z" fill="#3C3C3B"/>
</svg>
