<svg width="514" height="183" viewBox="0 0 514 183" fill="none" xmlns="http://www.w3.org/2000/svg">
<path d="M0.043532 54.2837C-0.507244 105.765 19.299 120.267 81.6804 125.451C115.507 128.261 427.903 127.425 466.695 125.228C505.488 123.031 513.537 93.6403 513.399 64.9428C513.266 37.1119 492.236 3.43325 458.703 3.45263C418.269 -1.4503 118.85 -0.532274 67.3521 3.67874C15.8546 7.88976 0.36019 24.6975 0.043532 54.2837Z" fill="#F39200"/>
<path d="M291.801 97.4159C291.801 97.4159 295.588 122.512 289.254 138.034C277.368 167.175 261.57 182.396 261.57 182.396C261.57 182.396 277.043 157.212 267.878 133.796C264.079 124.099 259.137 101.521 259.137 101.521L291.801 97.4159Z" fill="#F39200"/>
</svg>
