<?xml version="1.0" encoding="utf-8"?>
<!-- Generator: Adobe Illustrator 26.2.1, SVG Export Plug-In . SVG Version: 6.00 Build 0)  -->
<svg version="1.1" id="Layer_1" xmlns="http://www.w3.org/2000/svg" xmlns:xlink="http://www.w3.org/1999/xlink" x="0px" y="0px"
	 viewBox="0 0 421 310" style="enable-background:new 0 0 421 310;" xml:space="preserve">
<style type="text/css">
	.st0{fill:#2FAC66;}
	.st1{fill:none;stroke:#000000;stroke-width:0.335;stroke-miterlimit:10;}
	.st2{fill:#B4B0A5;}
	.st3{fill:#3C3C3B;}
	.st4{fill:#FAFAFB;}
	.st5{fill:#DAD8CC;}
	.st6{fill:#E30613;}
	.st7{fill:none;stroke:#DADADA;stroke-width:0.335;stroke-miterlimit:10;}
	.st8{fill:#908B84;}
	.st9{fill:#814114;}
	.st10{fill:none;stroke:#A85318;stroke-width:0.335;stroke-linecap:round;stroke-miterlimit:10;}
	.st11{fill:#A85318;}
	.st12{fill:none;stroke:#000000;stroke-width:0.335;stroke-linecap:round;stroke-miterlimit:10;}
	.st13{fill-rule:evenodd;clip-rule:evenodd;fill:#219959;}
	.st14{fill-rule:evenodd;clip-rule:evenodd;fill:#1B8A4F;}
	.st15{fill-rule:evenodd;clip-rule:evenodd;fill:#814114;}
</style>
<path class="st0" d="M421,309.5H12.3l0,0c0,0,6-54.4,38-63.5s-17.4,0-17.4,0s55.3,0.9,87.2-9.6c58.4-19.2,71.8-40.2,149.2-42.4
	C421,202.3,421,309.5,421,309.5z"/>
<path class="st1" d="M304.7,52.2c0.1,2.1,1.4,19,1.4,21.3"/>
<path class="st1" d="M211.7,55.9c0.2,1.9-0.1,19.1-0.1,21.3"/>
<path class="st1" d="M260.4,0l-0.1,23.8"/>
<path d="M261,77c-10.1-0.1-19.3,0.7-19.3,2c0,1.3,9.1,2.4,19.2,2.6c10.1,0.1,19.3-0.7,19.3-2C280.2,78.4,271,77.3,261,77z"/>
<path d="M210.3,105.4c-6.8-0.2-12.4,0.4-12.4,1.2c0,0.9,5.5,1.7,12.3,1.9c6.8,0.2,12.4-0.4,12.4-1.2
	C222.7,106.5,217.2,105.6,210.3,105.4z"/>
<path d="M308.7,103c6.8-0.2,12.4,0.4,12.4,1.2c0,0.9-5.5,1.7-12.3,1.9c-6.8,0.2-12.4-0.4-12.4-1.2S301.9,103.2,308.7,103z"/>
<path class="st2" d="M298.8,188.9c0.3-3.3,3.1-44.9,3.1-49.3s-3.6-35.2-2.8-37.5c0.8-2.3,13.1-8.5,16.2-6.4c4.5,3,3.8,10.5,4.6,22.3
	c0.8,8.4,1.3,23.1,5.4,46.2c1,5.8,10.5,61.6,10.5,61.6s-6,3.6-14.9,4.4c-12.7,1.2-13.8-0.5-18.2-1.8
	C302.7,228.4,298.6,192.1,298.8,188.9z"/>
<path class="st2" d="M238.2,175.4c-1.2-1.3,1.8-50.8,2.6-52.9c0.7-2.1,2-2.6,2.8-3.1c0.7-0.6,0.7-36.8,1.5-41.9
	c0.8-5.2,11.3-4.4,11.3-4.4s19.3-0.9,19.8,2.6c0.7,4.6,2.1,41.6,2.1,41.6s2.8,1.3,3.6,4.1c0.7,2.8,4.6,52.9,4.6,52.9
	C283.7,173.8,239.5,176.6,238.2,175.4z"/>
<path class="st2" d="M224.2,176.4c-0.7-4.6-3.2-23.7-4.1-36.5c-1.1-17-0.2-31.6-0.2-32.9c0-2.2-14-3.4-14-3.4s-4.6,1.3-5,2.8
	c-0.4,1.6-0.8,34.2-1,35.9c-0.2,1.7-5.3,35.9-5.3,42.1c0,6.1-6.4,40-5.7,40.7s6.7,5.3,17.8,5.5c11.2,0.2,18.7-1.5,18.7-1.5
	C227.6,226.1,225.9,186.9,224.2,176.4z"/>
<path class="st3" d="M305.5,65.2c-0.6,0.9-8.1,33.7-9.1,39.6c0.4,0,6.2-1.7,13-1.7c6.8,0,11.3,1.3,11.7,1.3
	C317.2,91.9,306.1,64.4,305.5,65.2z"/>
<path class="st3" d="M212,67.6c0.7,0.9,9.7,33.7,10.7,39.6c-0.4,0-6.2-1.7-13-1.7s-11.3,1.3-11.7,1.3
	C200.2,99.8,211.3,66.7,212,67.6z"/>
<path class="st3" d="M260.8,17.6c0.9,1.3,17.9,53.3,19.5,61.9c-0.6,0-7.7-3.2-20.3-3.4c-12.3-0.2-17.7,3.2-18.3,3.2
	C244.8,68.9,259.7,16.2,260.8,17.6z"/>
<path class="st4" d="M309.8,156.7c0,0-0.3-4.7,0.1-8.2c0.4-3.5,3.2-3.5,3.9-1.5c0.7,2,0.6,9.7,0.6,9.7H309.8z"/>
<path class="st4" d="M308.8,120c0,0-1.6-6.2-1.1-8.6s2.9-2.6,3.6-1c0.7,1.5,0.7,8.4,0.7,8.9L308.8,120z"/>
<path class="st5" d="M315.2,155.6c-0.4-0.4-6.2,0.2-6.6,0.2c-0.4,0,0,2.7,0,2.7s5.8,0.2,6.5-0.1C316,158.1,315.6,156,315.2,155.6z"
	/>
<path class="st4" d="M312.6,208.1c0,0-0.3-4.7,0.1-8.2c0.4-3.5,3.2-3.5,3.9-1.5c0.7,2,0.6,9.7,0.6,9.7H312.6z"/>
<path class="st5" d="M318.1,207c-0.4-0.4-6.2,0.2-6.6,0.2s0,2.7,0,2.7s5.8,0.2,6.5-0.1C318.8,209.5,318.5,207.4,318.1,207z"/>
<path class="st4" d="M207.1,208.6c0,0-0.3-4.7,0.1-8.2s3.2-3.5,3.9-1.5c0.7,2,0.6,9.7,0.6,9.7H207.1z"/>
<path class="st5" d="M212.6,207.5c-0.4-0.4-6.2,0.2-6.6,0.2s0,2.7,0,2.7s5.8,0.2,6.5-0.1C213.3,210,213,207.9,212.6,207.5z"/>
<path class="st5" d="M312.8,118.5c-0.3-0.3-4.1,0.1-4.8,0.1s-0.5,2.2,0.1,2.2s3.9-0.3,4.3-0.4C313.7,120.2,313.1,118.9,312.8,118.5z
	"/>
<path class="st4" d="M207,156.5c0,0-0.3-4,0.1-7s3.2-3,3.9-1.3c0.7,1.7,0.6,8.3,0.6,8.3H207z"/>
<path class="st5" d="M212.5,156c-0.4-0.4-6.2,0.2-6.6,0.2s0,2.7,0,2.7s5.8,0.2,6.5-0.1C213.2,158.5,212.9,156.4,212.5,156z"/>
<path class="st4" d="M207.9,122.3c0,0-0.9-6-0.1-8.1c0.7-2.1,3-2,3.6-0.5s-0.1,7.9-0.2,8.4L207.9,122.3z"/>
<path class="st5" d="M212.1,121.3c-0.3-0.3-4.1-0.3-4.8-0.4c-0.7-0.1-0.7,2.1-0.1,2.2s3.9,0.1,4.3,0.1
	C212.8,123.1,212.4,121.7,212.1,121.3z"/>
<path class="st6" d="M298.8,57.5c2.9,1.4,4.6,0.8,6.4,0l-0.4-5.1c-0.6,0.2-1.9,1-3.3,1.2c-2.2,0.2-3.2-0.5-5.8,0.1
	c-1.4,0.3-3.5,1.5-4.9,2.2C294.1,55.9,295.6,56,298.8,57.5z"/>
<path class="st6" d="M205.2,57.7c2.8-1.6,4.6-1.1,6.4-0.5l-0.1,5.1c-0.5-0.2-1.9-0.9-3.3-1c-2.2-0.1-3.1,0.7-5.8,0.3
	c-1.4-0.2-3.6-1.3-5-1.9C200.8,59.5,202.3,59.4,205.2,57.7z"/>
<path class="st6" d="M252.1,1.8c3.6-2.1,5.8-1.4,8.2-0.6l-0.1,6.6c-0.8-0.2-2.5-1.1-4.3-1.2c-2.8-0.1-4,0.9-7.4,0.4
	c-1.8-0.3-5.4-2.2-7-3.6C245.9,3.4,248.3,4.1,252.1,1.8z"/>
<path class="st4" d="M259.1,97.1c0,0-0.3-3.8-0.4-8.6c-0.1-5.3,5.8-4.6,6.4-0.9c0.4,2.1-0.5,9.1-0.5,9.1L259.1,97.1z"/>
<path class="st4" d="M256.1,150.5c0,0-1.4-3.9-0.8-16.3c0.4-9.7,15.1-8.1,15.4,0.3c0.1,5.9,0.1,16,0.1,16H256.1z"/>
<path class="st7" d="M270.7,137.6l-8,0.2l-0.3,12.4"/>
<path class="st7" d="M254.9,137.7l7.9,0.2l0.2-10.8"/>
<path class="st5" d="M265.9,96c-0.4-0.4-6.7-0.1-7.6,0s-0.7,2.1-0.1,2.4s6.4,0.5,7.4-0.1C266.3,97.9,266.3,96.4,265.9,96z"/>
<path class="st5" d="M272.3,143.1c0-0.7-2.8-0.4-3.3-0.4s-0.5,3.3-0.5,3.8s-3.2,0-3.6,0s0.1-3.3,0.1-3.8c0-0.6-3.5-0.3-4-0.3
	s0,3.8-0.5,4.1s-3.1,0.1-3.6,0s0-3,0-3.8s-3.5-0.7-4.1-0.3c-0.6,0.4-0.2,9.8,0.3,10.9c0.9,0.1,18.3,0.6,19,0
	C272.4,152.2,272.4,143.7,272.3,143.1z"/>
<path class="st8" d="M194.5,181.5c-0.6,0.3-1,6.1-0.8,6.4c0.3,0.3,7.3,1.4,13.3,1.8s18.1,0.4,20.1,0.1s-0.5-6.8-0.5-6.8
	S195.1,181.1,194.5,181.5z"/>
<path class="st8" d="M209.5,132.9c0,0-10.9,1.2-11.2,1.6c-0.3,0.4,0.3,6.5,0.8,6.6c0.4,0,5.1-1.1,9.9-1.2c6.5-0.1,10.7,1.1,11.4,1.1
	s0.9-6.2,0.9-6.2L209.5,132.9z"/>
<path class="st8" d="M329.1,181.5c0.6,0.3,1.1,6.1,0.8,6.4c-0.3,0.3-7.3,1.4-13.3,1.8c-6,0.4-18.1,0.4-20.1,0.1s0.5-6.8,0.5-6.8
	S328.5,181.1,329.1,181.5z"/>
<path class="st8" d="M300.9,132.9c-0.9,0.2,0,5.9,0,6.4s3.5-1.1,9.9-1.4c6.3-0.3,9.5,0.6,11.2,0.5c0.4-0.6,0.1-7.1,0.1-7.1
	C321.4,131,301.9,132.8,300.9,132.9z"/>
<path class="st8" d="M268.4,117.7c0,0-27.1,0.6-27.9,1.1s-0.6,6.8-0.6,7.2c6.3-1.1,12.2-1.7,21.8-1.8c9.8-0.1,21.1,1.6,21.4,1.5
	c0.3,0,0.6-5.1,0.5-5.7L268.4,117.7z"/>
<path class="st5" d="M231.3,182.6c0.4-0.6-1.8-9.2-2-9.7s-4,0.5-4.4,0.6c-0.4,0.2,0.8,6,0.5,6.1c-0.3,0.2-4.1,0.4-4.5,0.4
	c-0.4,0-0.4-5-0.6-5.6s-5-0.2-5.5-0.1c-0.5,0-0.3,6-0.6,6.1c-0.2,0.1-4.7-0.3-5.3-0.3s0.1-5.2,0-5.6c-0.1-0.3-5.1-0.7-6.2-0.5
	c-1,0.1,0.3,5.8-0.2,5.8s-4.4-0.6-4.8-0.6c-0.4,0-0.1-5.5-0.3-5.7c-0.2-0.2-4.6,0-5.1,0.1s0.4,9.9,0.6,10c0.2,0.2,6.6,1.2,15.4,1.7
	s20.3-0.7,20.3-0.7S231.1,183.3,231.3,182.6z"/>
<path class="st5" d="M292.3,182.5c-0.4-0.6,1.8-9.2,2-9.7s4,0.5,4.4,0.6c0.4,0.2-0.8,6-0.5,6.1c0.3,0.2,4.1,0.4,4.5,0.4
	c0.3,0,0.3-5,0.5-5.6c0.2-0.6,5-0.2,5.5-0.1c0.5,0,0.3,6,0.6,6.1c0.3,0.1,4.2-0.3,4.8-0.3c0.6,0-0.1-5.2,0-5.6
	c0.1-0.3,4.6-0.7,5.7-0.5c1.1,0.1,0.8,5.8,1.3,5.8s3.9-0.6,4.3-0.6s-0.4-4.9-0.2-5.1c0.2-0.2,4.1-0.5,4.6-0.4s1.1,9.9,0.9,10
	c-0.2,0.2-6.6,1.2-15.4,1.7c-8.8,0.5-20.3-0.7-20.3-0.7S292.6,183.3,292.3,182.5z"/>
<path class="st5" d="M218.7,128c-0.3,0-1,3.9-1.3,4c-0.3,0.1-2.9-0.6-3.2-0.6c-0.4,0,0.4-3.8,0.2-4c-0.3-0.2-4.1-0.5-4.3-0.5
	c-0.3,0-0.1,4.1-0.5,4.2c-0.5,0.1-2.5,0-2.8,0s-0.2-3.7-0.3-3.9c-0.1-0.3-3.5,0.1-4,0.2c-0.5,0,0.4,4.2,0,4.3s-1.7,0.5-2,0.5
	c-0.3,0-0.6-4.1-0.9-4.1c-0.4,0-3.4,0.9-3.8,1.1c-0.4,0.3,1.5,7.7,1.9,7.7s4.9-1.7,11.2-1.7c6.4,0,12.1,1.9,12.4,1.9
	c0.3,0,2-6.8,1.9-7.2C223,128.8,218.9,127.9,218.7,128z"/>
<path class="st5" d="M319.5,125.9c0.1,0.3-0.3,4.5-0.5,4.5c-0.3,0-2.5-0.5-2.7-0.5c-0.2,0,0.2-3.9,0-4.3c-0.1-0.4-3.5-0.2-3.9-0.1
	c-0.4,0.1,0.2,3.8,0,4.3c-1.1,0-2.7,0.1-3.4,0c0-0.3-0.3-3.6-0.4-3.9c-0.1-0.3-3.7-0.4-4.1,0.1c0,0.7,0.6,3.4,0.6,4.1
	c-0.6,0.2-2.9,0.4-2.9,0.4s-0.4-3.9-0.5-4.3c-0.1-0.4-3.7,0.2-3.6,1c0.1,0.8,1.6,8.5,1.9,8.4c0.3,0,4.2-1.6,11.5-1.9
	c7.2-0.2,11.3,1.4,11.4,0.9c0-0.5,1.5-7.1,1.3-8.2C323.7,126,320.8,125.6,319.5,125.9z"/>
<path class="st5" d="M280.8,110.1c-0.7-0.1-0.5,4.9-0.8,4.9c-0.3,0-4.3-0.3-4.6-0.4c-0.4-0.1,0.2-5-0.1-5.2c-0.3-0.2-5.7-0.5-6-0.3
	s0,4.9-0.4,5.2c-0.4,0.3-4.9,0.1-5.3,0.1s0-5.3-0.4-5.3s-4.3-0.3-4.9-0.3c-0.6,0-0.2,5.5-0.4,5.4c-0.2-0.1-4.5,0.4-4.8,0.3
	c-0.3-0.1,0-5.2-0.3-5.3s-5,0-5.3,0.1s0.2,5.6-0.2,5.7c-0.4,0.1-3.5,0.2-3.8,0.2s-0.6-4.5-0.7-4.8s-3.9,0.6-4.5,1.1
	c-0.7,0.5,1,9.6,1.5,9.6s9-1.5,21.6-1.7c11.2-0.2,22.2,1.9,22.8,1.7s1.2-9.1,1.1-9.6S281.3,110.2,280.8,110.1z"/>
<path class="st5" d="M291,159c0.5-0.4,7.1-0.8,7.6-0.5c0.5,0.2,1.1,6.1,1.4,7.4c0.2,1.3,7.9,61.2,9.1,69.9
	c-18.5,2.4-68.5,2.3-90.9-0.1c1.3-11.8,5.3-75,5.8-75.7s8.9-0.4,9.2,0.1s0.6,7.1,1.3,7c0.6-0.1,7.7,0.2,8,0c0.3-0.3,0-7.1,0-7.6
	s8.3,0.1,8.7,0.1s0.1,6.9,0.4,7.3c0.2,0.4,6.1,0.1,6.5,0c0.5-0.1,0.2-8,0.8-8.3c0.6-0.3,7,0,7.4,0.2s-0.1,7.3,0,7.7
	c0.2,0.4,6.6-0.2,7-0.4c0.4-0.3-0.2-7.5,0.3-7.8s8.7,0.1,9.1,0.4c0.4,0.2,0.1,7.7,0.4,8c0.3,0.3,7.1,0.4,7.8-0.2
	C291.7,165.8,290.5,159.3,291,159z"/>
<path class="st4" d="M289.6,202.7c0,0-0.8-4.4-0.8-9c0-4.7,2.9-6.1,5-4.1c2.1,2.1,2.2,11.8,2.2,12.7L289.6,202.7z"/>
<path class="st4" d="M229.3,203.6c0-0.7,0-9.2,1.5-12.5c0.8-1.9,4.5-2.3,5.6,0.3c1.1,2.6,0.3,12.2,0.2,12.8
	C236.6,204.2,229.3,204.4,229.3,203.6z"/>
<path class="st9" d="M263.7,193.2c-14.2,0.6-17.3,10.8-17.3,19.9c0,4.7-0.6,18.2-0.4,24.7c0.1,0,28.4,0,37.5-0.1
	c-0.2-4.9-1-16.5-1.3-20.7C281.8,210.8,279.7,192.5,263.7,193.2z"/>
<path class="st10" d="M256.4,195.3l0.9,41.7"/>
<path class="st10" d="M272,236.9l-1.9-41.5"/>
<path class="st10" d="M277.1,203.5l1.4,33.2"/>
<path class="st10" d="M251.1,237.1l-0.2-38.3"/>
<path class="st11" d="M282.3,217.9c-7.6,0.4-27.8,0.2-36.3,0.7c0,2,0,4.4,0.1,6.8c7.7-0.4,28.2-0.4,36.6-1
	C282.4,222,282.5,219.6,282.3,217.9z"/>
<path class="st8" d="M297.1,200.6c-0.1-0.3-7.9,0.4-8.4,0.5c-0.5,0.1-0.3,2.9,0.1,2.9s7.4-0.6,8.6-0.8
	C298,203.1,297.3,200.9,297.1,200.6z"/>
<path class="st8" d="M237.5,203.2c-0.3-0.8-7.2-0.4-8.6-0.4c-1.4,0-1,2.6-0.3,2.9c0.7,0.3,7.2,0.4,8.1,0.1
	C237.6,205.5,237.8,204,237.5,203.2z"/>
<path d="M246.4,213.3l3.8-0.5c0,0-0.4,1.4,0.6,1.8c1,0.5,1.1-0.8,1.4-1.7c0.2-0.9,1.3-1.5,1.5-1.6c0.3-0.1,0.3-0.3-0.3-0.3
	s-1.3-0.6-1.6-1.3c-0.3-0.6-1.6-1.1-1.9-0.2c-0.3,0.9,0.1,1.8,0.1,1.8s-2,0.1-3.6,0.1C246.3,212,246.4,212.7,246.4,213.3z"/>
<path d="M281.5,211.6c0-0.5-0.1-1-0.3-1.6c-1.1,0-3.9,0.1-3.9,0.1s0.7-1,0.3-1.8s-1.6-0.2-1.9,0.4c-0.3,0.7-0.8,1.2-1.3,1.5
	c-0.5,0.2-0.6,0.2-0.2,0.4c0.3,0.1,0.9,0.7,1.3,1.5c0.3,0.9,0.7,2.1,1.7,1.5s0.4-1.8,0.4-1.8L281.5,211.6z"/>
<path d="M245.9,232.7l3.8-0.5c0,0-0.4,1.4,0.6,1.8c1,0.5,1.1-0.8,1.4-1.7c0.2-0.9,1.3-1.3,1.5-1.4c0.3-0.1,0.3-0.3-0.3-0.3
	s-1.3-0.8-1.6-1.5c-0.3-0.6-1.6-1.1-1.9-0.2c-0.3,0.8,0.1,1.8,0.1,1.8s-2,0.2-3.6,0.2C245.9,231.5,245.9,232.3,245.9,232.7z"/>
<path d="M279.3,231.2h3.8c0-0.5,0-1.1-0.1-1.7c-1.2,0-4,0.1-4,0.1s0.7-1,0.3-1.8s-1.6-0.2-1.9,0.4c-0.3,0.7-0.8,1.4-1.3,1.7
	c-0.5,0.2-0.6,0.2-0.2,0.4c0.3,0.1,0.9,0.5,1.3,1.3c0.3,0.9,0.8,2.1,1.7,1.5C279.9,232.5,279.3,231.3,279.3,231.2L279.3,231.2z"/>
<path class="st12" d="M263.3,194.6l1.5,42.8"/>
<path class="st13" d="M23.6,258.9c-8.7-1.9-20.5-5.3-16.2-5.7c14.4-1.5,30.6-13.9,28.9-14.7c-1.6-0.8-26.7,2.9-22.1,0
	c6.6-4.1,23.2-11.5,23.6-13.5c0.4-2-1.4-0.9-5.9,0s-14,0.7-12.8,0c9.9-6.1,17.2-19,17.2-19s-9.6,2.4-12.7,1.8
	c-3.1-0.5,0.4-2.3,3.2-4.2c2.9-1.9,11.8-14.9,11.8-14.9s-10,2.7-12.9,2.3c-2.8-0.4,12.6-12,14.7-14.9s-5.9,1-10.4,1.3
	s-1-2.9,2.1-5.8c3.1-2.8,7.3-14.8,7.3-14.8s-7.9,4-12.4,4.3s4.8-5.1,9.5-11.5c4.7-6.4,11.6-24.7,12.3-26.6
	c0.6-1.9,16.1,26.8,22.5,33.9c2.3,2.5-9.9-5.2-12.3-4.2s9.5,12.9,14.1,18.3c4.6,5.5,5.1,4.8,0,4.6c-5.1-0.3-7,0-7,0
	s5.3,7.9,11.4,13.3c6.4,5.7,8.4,7.6,5,6.8S69.6,192,69.6,192s8.3,13.7,18.2,20.9c3,2.2-13.2,0.2-15.2-0.5s4.3,6,20.4,12.5
	c4.4,1.8-18.1,2.6-20.5,3.3c-2.2,0.6,17.1,9.2,23.9,10.1c5,0.6-21.4,3-23.4,4.3c-2.1,1.3,11.4,5,28.2,7.7c3,0.5-18.4,14-46.6,8.9
	c-7.5-1.4-8.1,0-8.1,0S32.6,261.1,23.6,258.9z"/>
<path class="st9" d="M60.2,289.1l-11,0.4l1.2-48.4c-1-0.3-3-0.8-4.3-1.1c-1.9-0.4-4-2.2-4-2.2l0.8-1.9c0,0,0.3-0.3,2.2,0.6
	c1.9,0.9,5.3,1,5.3,1l-0.2-24.4l-10.1-3.3l-0.1-2.1c0,0,7.3,1.8,9.9,0.8c0.6-0.2,0.4-14.5,0.4-14.5s0.5-21.8-0.2-23.3
	c-0.9-1.9-1.4-3.3-2.6-6.7c-1-3-1.7-3.4,0.6-4c2.2-0.5,1.1,0,3.1,3.8c1.7,3.1,3,6.2,3,6.2s3.1-4.1,4.2-5.7c1.1-1.6,2.3-2.4,2.3-2.4
	l1.2,2.3c0,0-4.6,7.1-5.3,9.5s-0.1,7.8,0.1,12.2c0.2,4.8,0.2,6.3,0.2,6.3s1.8,1,3.6-0.2c2-1.4,4.6-2.6,4.6-2.6l1.8,2
	c0,0-1.9,1.5-4.2,3.2s-4,2.9-4,2.9s-1.8,1.6-1.4,7.1c0.2,3,0.4,15.7,0.4,15.7s3.8-2.2,6.7-4.5c3-2.3,4.1-2.6,4.1-2.6l1.4,1.8l-11,11
	c0,0,0.6,14.6,0.5,22C59.3,255.2,60.2,289.1,60.2,289.1z"/>
<path class="st14" d="M131.8,227.2c-8.1-10.6-8-35.1-4.9-48.8c3.1-13.7,19.3-50.2,24.7-59.3s11.9-22.6,11.9-22.6
	s20.9,58.8,24.1,70.8c3.2,12.1,7.2,40.7,2.3,53.9c-4.9,13.2-22,19.4-26.6,19.4C149.8,238,141.9,240.6,131.8,227.2z"/>
<path class="st15" d="M162,273.1l-11.3,0.2l2.1-54l-6.9-6.6l-0.6,0.8c-0.7,0.8-2.3,2.2-2.3,2.2l-1.4-1.7l0.7-0.6
	c0.7-0.5,1.4-2.2,1.4-2.2l-3.8-3.5l1-1.5c0,0,3.8,2.2,6.4,3.8c2.6,1.5,5.9,3.7,5.9,3.7s-0.2-7.5,0.1-11.2s1.3-17.7,1.3-19.4
	c0-0.9-2.7-2.6-4.8-3.5s-6.9-2.1-8.8-2.7c-1.9-0.5-2.9-0.9-2.9-0.9s2.2-3.4,3.6-2.7c1.4,0.7,7.6,3.6,7.6,3.6l2.1-4.2h2.5l-1.5,4.2
	c0,0,1.2,0.8,2.2,0c1-0.9,1.9-4.6,1.9-7.7s2.1-14.5,2.1-14.5s-0.5-4.9-1.1-5c-0.9-0.2-4.1,2.9-4.1,2.9l-0.7-1.1l3.9-3.3
	c0,0-0.5-0.8-1.9-2.9c-1.3-2.1-3.1-3.7-3.1-3.7s-0.5-1.4,1.9-2.6l1.2,0.7c1.3,0.7,6.9,12.1,7.6,11.8c0.7-0.3,2.4-2,5-3.4l1.3-0.5
	l0.9,1.2c0,0-6,4.5-6.2,6c-0.3,1.5-0.5,18-0.5,18l4.7-5.8l1.7,0.5c0,0,0.6,0-0.1,1.3s-1.5,2.2-1.5,2.2l5.7-1.7l0.1,2.2
	c0,0-4.2,1.2-5.9,1.9s-4.8,2.3-4.8,2.3l-0.5,4c-0.5,4-1,16.3-1,16.3l3.2-1.3l1.6-3.7l-2.9-1.2l0.7-1.1h3.6l0.6-3h1.8
	c0,0-0.2,2.8-0.2,3.4c0,0.6-2,5.4-2,5.4s4.1-1.3,5.2-1.7s4.5-1,4.5-1l0.2,2.3c0,0-1.7,0.1-4.1,1.2c-2.5,1.1-5.9,1.8-7.3,2.3
	c-2.2,0.7-3.7,2-4.4,4.6c-0.8,2.6,0.2,12.8,0.2,16.9c0.1,3,0.6,3.2,2,2.9c1.7-0.3,4.5-1.3,4.5-1.3s-0.1-0.6,0.1-2.7
	c0.2-1.7,0.9-3.7,0.9-3.7s0.7-0.2,1.9-0.7s0.8,4.6,0.7,5.9c0,1.3,1.4,0.2,3.6,0c1.2-0.1,1.9-0.3,4.3-0.4s2.9,0,2.9,0l0.7,3
	c0,0-0.4,0.1-3.3,0.3s-7,0.8-10.4,2.2c-3.5,1.4-6.4,2.1-7.8,3.1s-0.2,14.7-0.2,21.6S162,273.1,162,273.1L162,273.1z"/>
<path class="st0" d="M73.7,169.5c-5.2,5.3-10.7,19.5-6.1,39.9c4.5,20.4,29.6,30.2,45.1,27.7c27.3-4.5,31.2-13.8,37.2-22.7
	c6-9,10.1-19.2,7.2-32.3c-2.8-13.2-5.9-18.2-17-26c-9.4-6.6-21.1-8.6-27-8.4C87.3,148.6,78.9,164.2,73.7,169.5z"/>
<path class="st11" d="M147.3,188.1c-0.1,0.8-6.5,4.1-6.5,4.1v4.2l4.8,0.7l-0.6,1.4h-4.1v4.6l-1.9,0.7c-0.5-0.7-0.4-7-1.8-7.7
	s-2.4,0.4-6.9,1.6c-3.5,0.9-9.7,3.3-13.6,4.5c0.2,2.6,0.4,4.7,0.5,5.6c0.2,3.6,0.1,10.8,0.1,10.8s2.1-1.3,4.2-2.6
	c0.2-2,0.7-6.3,0.9-7.5c0.3-1.6,0.6-3,0.6-3s0.8-0.2,1.3,0s0,1.7,0,1.7v7c0.1-0.1,0.2-0.1,0.3-0.2c2.4-1.5,6-3.6,6-3.6l0.9,1.5
	l-3.6,3.3c0,0,0.6,1.6,1.3,2.1l0.7,0.5l-1.3,1.6c0,0-1.5-1.3-2.1-2.1l-0.6-0.8l-8.3,7.2l2,57.2H109c0,0,0.2-7,0.2-13.7
	c0-6.6,1.1-34.2-0.2-35.2c-1.4-1-4.1-1.5-7.3-3c-2.6-1.2-4.7-1.9-7.3-3.1c-0.7,0.2-2,0.3-3.4,0.8c-1.2,0.4-2.3,0.4-2.5,0.5l-1-1.8
	l4-0.9c-0.4-0.2-0.7-0.3-1-0.5c-3.1-1.8-7.6-3.4-7.6-3.4L84,218c0,0,2.9,0.8,5,1.5c3.2,1.2,5.5,2.5,6.5,3c1.4,0.8,4.4,1.4,4.4,0.2
	c-0.1-1.3,0-3.3,0.3-4.3l1.8,0.7c0,0,0.7,2,0.8,3.6c0.2,2,0.1,2.6,0.1,2.6s2.7,0.9,4.2,1.2c1.3,0.3,1.8,0,1.8-2.8
	c0-3.9,0.9-11.5,0.2-14s-4.8-4.2-6.8-4.9c-0.7-0.2-5.1-1.9-6.4-2.3c-2.3,1.5-7.5,4.7-7.5,4.7l-1.1-2.7c0,0,2.9-1,4.9-2.7
	c0.2-0.1,0.4-0.3,0.6-0.4c-0.1-0.1-0.2-0.1-0.3-0.2c-2.3-1.1-10.6-4-10.6-4l0.2-3.1c0,0,13,3,14.1,3.4c1,0.4,4.8,1.6,4.8,1.6
	s-1.9-4.6-1.9-5.2s-2.4-3.6-2.4-3.6l1.7-0.8l2.7,4h3.4l0.7,1l-2.7,1.2l1.5,3.5l5.7,2.1c0,0-0.5-11.9-0.9-15.7l-0.4-3.8
	c0,0-2.9-1.5-4.5-2.2c-1.5-0.7-5.5-1.8-5.5-1.8l0.1-2.1l5.4,1.7c0,0-0.7-0.8-1.4-2.1c-0.7-1.2-0.1-1.2-0.1-1.2l1.5-0.5l4.4,5.5
	c0,0-0.2-11.3-0.4-12.8s-4.7-2.7-4.7-2.7l0.8-1.6l1.9,0.5c2,0.7,2.3,0.8,3,0.7c0.7-0.2,2.8-4,3.5-5.1c1.2-1.8,2.6-4,2.6-4
	c2.2,1.1,2.3,1,1,3s-2.3,3.3-2.3,3.3l4.2,2.6l-0.7,1c0,0-3.5-1.7-4.3-1.5c0,0,0,1.3,0,4.3s0.8,6.6,1.7,7.4c1,0.8,2.1,0,2.1,0l-1.4-4
	h2.3l2,4c0,0,5.9-2.8,7.2-3.5c1.4-0.6,3.4,2.6,3.4,2.6s-0.9,0.3-2.7,0.9c-1.8,0.6-6.3,1.7-8.3,2.6s-4.5,2.5-4.5,3.4s0.8,8.8,1.5,16
	c3.2-0.8,8.3-2.4,9.1-2.9c1-0.5,0-8.4,0-8.4h1.6l1.5,7.7c0,0,4.2-0.9,5.9-1.2c1.8-0.3,5.3-1,5.3-1l7-3.9
	C146.6,186.5,147.7,187.3,147.3,188.1z"/>
</svg>
