<svg width="368" height="53" viewBox="0 0 368 53" fill="none" xmlns="http://www.w3.org/2000/svg">
<path d="M14.4135 21.8674C14.5265 22.7465 14.5792 23.7555 14.5792 24.8919C14.5792 26.0257 14.5064 27.1995 14.3583 28.4058C14.2127 29.6145 13.9818 30.7884 13.668 31.9222C13.3567 33.056 12.9576 34.05 12.4807 34.8917C11.8933 35.8032 11.1754 36.6948 10.3269 37.5515C9.481 38.4131 8.65263 39.2298 7.84184 39.9965C7.2896 40.8356 7.0687 41.7172 7.17915 42.6338C7.25194 43.408 7.52807 43.9999 8.00751 44.4195C8.48445 44.8415 9.20236 45.0139 10.1613 44.9414C11.7075 44.7591 12.9325 44.2197 13.8337 43.3256C14.7373 42.4265 15.0938 41.3351 14.9105 40.0514C14.8377 39.3921 14.7273 38.7153 14.5792 38.0185C14.4311 37.3242 14.3206 36.6124 14.2478 35.8782C14.2127 35.6234 14.2955 35.3038 14.4964 34.9166C14.6997 34.532 14.9457 34.1499 15.2419 33.7603C15.5356 33.3782 15.8594 33.0486 16.2083 32.7713C16.5572 32.5016 16.861 32.3618 17.1195 32.3618H17.3956C17.5437 32.3218 17.8475 32.3093 18.3068 32.3318C18.7662 32.3518 19.0699 32.3618 19.218 32.3618C20.2497 33.2034 20.9476 34.2373 21.3165 35.4636C21.683 36.6923 21.9592 37.8911 22.1449 39.0599C22.2177 39.6843 22.2177 40.2787 22.1449 40.8481C22.0696 41.4175 21.9441 42.0119 21.7583 42.6338C21.0957 45.416 19.8054 47.5738 17.8926 49.0897C15.9799 50.6107 13.2162 51.5172 9.61152 51.8094C8.21084 51.9193 6.94821 51.782 5.82615 51.3974C4.70159 51.0178 3.74772 50.4733 2.9545 49.779C2.16378 49.0847 1.51867 48.2606 1.02165 47.3065C0.52463 46.35 0.220897 45.366 0.110448 44.3396C-9.35119e-09 43.6078 -0.0276121 42.8561 0.0276121 42.0844C0.0828363 41.3201 0.228428 40.5709 0.469406 39.8366C0.710385 39.1049 1.07687 38.4181 1.57389 37.7762C2.07091 37.1369 2.72356 36.575 3.53435 36.1004C4.05145 35.7708 4.63883 35.4186 5.30152 35.029C5.96421 34.6444 6.4788 34.1949 6.8478 33.6829C7.32474 32.9512 7.67617 32.0895 7.89706 31.1005C8.11796 30.114 8.25602 29.0951 8.31124 28.0511C8.36647 27.0072 8.374 25.9807 8.33886 24.9743C8.3012 23.9678 8.26355 23.0587 8.22841 22.2545C8.1531 21.5602 8.10792 20.9708 8.09035 20.4963C8.07027 20.0218 8.1531 19.6347 8.33886 19.3425C8.51959 19.0478 8.86349 18.8081 9.35799 18.6282C9.85501 18.4434 10.5805 18.3161 11.5394 18.2436C12.1644 18.2062 12.6514 18.2961 13.0028 18.5159C13.3542 18.7356 13.6278 19.0278 13.8312 19.395C14.032 19.7621 14.1725 20.1742 14.2453 20.6337C14.3206 21.0907 14.3734 21.5003 14.4135 21.8674ZM14.5792 11.538C14.6168 12.0524 14.6068 12.5644 14.5516 13.0764C14.4964 13.5884 14.3483 14.0679 14.1098 14.5049C13.8713 14.9445 13.5199 15.3116 13.063 15.6038C12.6012 15.896 12.0037 16.0808 11.2657 16.1558C10.7512 16.1882 10.2491 16.1258 9.77217 15.961C9.29524 15.7961 8.85596 15.5589 8.4493 15.2467C8.04265 14.9345 7.70378 14.5898 7.42515 14.2027C7.14903 13.8181 6.99339 13.4435 6.95574 13.0764C6.9206 12.6368 6.97833 12.1898 7.12392 11.7303C7.26952 11.2732 7.51049 10.8611 7.83933 10.494C8.17067 10.1294 8.56477 9.8197 9.02665 9.55997C9.49103 9.30273 9.99307 9.15788 10.5478 9.12042C11.5042 9.04799 12.3878 9.2303 13.1986 9.66986C14.0069 10.1119 14.4687 10.7338 14.5792 11.538Z" fill="#2BB673"/>
<path d="M42.7967 48.1313C42.3172 48.2412 41.893 48.431 41.5265 48.7107C41.1575 48.9804 40.7986 49.2652 40.4497 49.5549C40.0982 49.8521 39.7217 50.1268 39.3176 50.384C38.9134 50.6413 38.4516 50.7886 37.937 50.8211C37.199 50.896 36.4811 50.8036 35.7832 50.5489C35.0829 50.2916 34.4202 49.9794 33.7951 49.6148C32.653 49.0304 31.6966 48.2687 30.9235 47.3346C30.1478 46.4006 29.5153 45.3766 29.0157 44.2553C28.5212 43.1414 28.1447 41.9676 27.8862 40.7438C27.6276 39.5176 27.4619 38.2988 27.3891 37.0876C27.3891 37.0151 27.3691 36.9327 27.3314 36.8453C27.2963 36.7529 27.2787 36.688 27.2787 36.6505C27.241 34.5252 27.1582 32.3724 27.0277 30.1971C26.8996 28.0118 26.9549 25.889 27.1959 23.8186C27.4343 21.7507 27.9665 19.7802 28.7948 17.9121C29.6232 16.044 31.0139 14.3607 32.9668 12.8572C33.6646 12.3053 34.5306 11.7608 35.5623 11.2089C36.5915 10.657 37.5504 10.3498 38.434 10.2749C39.3176 10.2374 40.0982 10.3498 40.781 10.6045C41.4613 10.8643 42.0763 11.2189 42.631 11.6759C43.1833 12.1355 43.6878 12.6649 44.1497 13.2693C44.6091 13.8712 45.0408 14.4706 45.4475 15.055C45.8516 15.7168 46.3034 16.3562 46.7979 16.9805C47.2975 17.6024 47.6188 18.2767 47.7669 19.011C47.7669 19.2307 47.7945 19.6054 47.8497 20.1373C47.9049 20.6668 47.9501 21.2287 47.9878 21.8131C48.0254 22.3975 48.0706 22.9495 48.1258 23.4614C48.1811 23.9734 48.2087 24.3231 48.2087 24.5054C48.2438 24.8725 48.2815 25.3495 48.3191 25.9339L48.4296 27.6921C48.4647 28.279 48.5024 28.801 48.54 29.258C48.5752 29.7151 48.5952 29.9648 48.5952 29.9948C48.6304 30.5118 48.6505 31.1061 48.6505 31.783C48.6505 32.4623 48.6404 33.179 48.6229 33.9308C48.6028 34.6775 48.5576 35.4093 48.4848 36.126C48.4095 36.8428 48.3191 37.4722 48.2087 38.0216C48.2087 38.0965 48.1811 38.2514 48.1258 38.4886C48.0706 38.7284 48.0154 38.9831 47.9602 39.2553C47.9049 39.5326 47.8497 39.7873 47.7945 40.0296C47.7368 40.2718 47.7117 40.4017 47.7117 40.4416C47.7117 40.4816 47.7016 40.5216 47.684 40.579C47.664 40.6339 47.6564 40.6789 47.6564 40.7164C47.6916 41.1934 47.9401 41.6479 48.402 42.09C48.8613 42.532 49.3684 42.989 49.9181 43.4661C50.4729 43.9406 50.9774 44.4176 51.4393 44.8946C51.8987 45.3691 52.1472 45.8836 52.1848 46.433C52.1848 46.6154 52.0267 47.0249 51.7129 47.6718C51.4016 48.3061 51.0326 48.968 50.6109 49.6473C50.1867 50.3241 49.7625 50.9385 49.3408 51.4854C48.9165 52.0373 48.5952 52.3096 48.3743 52.3096C48.299 52.3096 48.2438 52.2996 48.2087 52.2821C48.171 52.2596 48.1334 52.2546 48.0982 52.2546L43.236 48.2986C43.2008 48.2237 43.1255 48.1688 43.0151 48.1338C42.9046 48.0988 42.8318 48.0988 42.7967 48.1313ZM33.9608 32.747C34.0336 33.5187 34.1164 34.3953 34.2093 35.3868C34.2997 36.3758 34.4854 37.3448 34.7591 38.2988C35.0377 39.2504 35.4318 40.112 35.9489 40.8787C36.4635 41.6454 37.1613 42.2173 38.0474 42.582C38.2307 42.4746 38.3788 42.2648 38.4892 41.9526C38.5997 41.6404 38.6725 41.4456 38.7101 41.3757V41.2658C38.7101 41.1934 38.69 41.1334 38.6549 41.101C38.1754 40.5166 37.5956 39.8298 36.9153 39.0431C36.2325 38.2564 35.8384 37.4397 35.728 36.5981C35.728 36.2659 35.8008 35.9487 35.9489 35.6365C36.097 35.3244 36.2878 35.0521 36.5262 34.8124C36.7672 34.5701 37.0509 34.3703 37.3822 34.208C37.7161 34.0457 38.0474 33.9433 38.3788 33.9058C38.7101 33.8708 39.0138 33.9383 39.29 34.0981C39.5636 34.2579 39.8221 34.4502 40.0631 34.6475C40.3016 34.8498 40.5124 35.0321 40.6982 35.197C40.8814 35.3618 41.0647 35.4292 41.2479 35.3918C41.5441 35.2794 41.755 34.9223 41.8855 34.3179C42.0135 33.7135 42.0963 33.0467 42.134 32.3099C42.1717 31.5782 42.1717 30.8764 42.134 30.1996C42.0963 29.5203 42.0612 29.0358 42.0236 28.7411C42.0236 28.5587 41.9959 28.1741 41.9407 27.5897C41.8855 27.0028 41.8102 26.3335 41.7198 25.5818C41.6269 24.8325 41.5065 24.0433 41.3584 23.2192C41.2128 22.395 41.027 21.6458 40.8086 20.964C40.5877 20.2872 40.3191 19.7302 40.0079 19.2907C39.6941 18.8536 39.3351 18.6513 38.9285 18.6863C38.2307 18.7238 37.6232 19.0334 37.1086 19.6203C36.5915 20.2072 36.1422 20.9415 35.7556 21.8181C35.369 22.6972 35.0553 23.6762 34.8168 24.7576C34.5758 25.8365 34.3825 26.8904 34.2344 27.9144C34.0888 28.9433 33.9985 29.8899 33.9608 30.744C33.9232 31.6031 33.9232 32.275 33.9608 32.747Z" fill="#2BB673"/>
<path d="M73.835 50.8783C73.5036 50.8059 73.2576 50.6061 73.0894 50.2789C72.9238 49.9443 72.7957 49.5996 72.7029 49.2325C72.6125 48.8679 72.5372 48.5432 72.482 48.2685C72.4267 47.9938 72.3238 47.8564 72.1782 47.8564C71.9573 47.8989 71.6737 48.0587 71.3223 48.3509C70.9708 48.6431 70.5767 48.9728 70.1349 49.3399C69.6931 49.7045 69.1961 50.0542 68.6439 50.3838C68.0916 50.716 67.5193 50.8933 66.9319 50.9308C66.1939 51.0082 65.4685 50.9682 64.7506 50.8234C64.0327 50.6735 63.38 50.4188 62.7901 50.0542C61.4647 49.2825 60.423 48.3309 59.6699 47.1921C58.9169 46.0582 58.3245 44.8245 57.9028 43.4859C57.4785 42.1497 57.1849 40.7561 57.0192 39.3101C56.8535 37.8641 56.6979 36.4605 56.5498 35.1094C56.2937 32.542 56.246 29.9971 56.4117 27.4672C56.5774 24.9397 56.7506 22.3773 56.9363 19.775V19.308C56.9363 19.0333 56.9539 18.741 56.9916 18.4289C57.0292 18.1192 57.0468 17.8245 57.0468 17.5498V17.0328C57.0819 16.4484 57.102 15.9364 57.102 15.4944C57.102 15.0548 57.1748 14.6802 57.3229 14.3705C57.4685 14.0583 57.717 13.7911 58.0684 13.5713C58.4174 13.3515 58.9596 13.1867 59.6976 13.0768C59.8808 13.0419 60.1494 13.0493 60.4983 13.1043C60.8472 13.1592 61.2162 13.2441 61.6028 13.3515C61.9894 13.4639 62.3584 13.5888 62.7073 13.7361C63.0562 13.8835 63.2871 14.0283 63.3976 14.1757C63.3976 14.2506 63.4177 14.378 63.4528 14.5603C63.4905 14.7451 63.508 14.8725 63.508 14.9449C63.5808 15.7516 63.6009 16.5932 63.5633 17.4723C63.5281 18.3514 63.4528 19.2405 63.3424 20.1371C63.2319 21.0362 63.129 21.9228 63.0386 22.8044C62.9457 23.681 62.883 24.5252 62.8453 25.3318C62.7349 26.9802 62.7525 28.5885 62.9031 30.1644C63.0462 31.7403 63.2143 33.3512 63.3976 35.002C63.508 36.1383 63.6637 37.2422 63.867 38.3286C64.0678 39.405 64.6301 40.3515 65.5513 41.1532C65.6241 41.2306 65.8274 41.3955 66.1588 41.6502C66.4901 41.9075 66.691 42.0748 66.7663 42.1422C66.8014 42.1422 66.8692 42.1622 66.9595 42.1947C67.0524 42.2346 67.1152 42.2496 67.1528 42.2496H67.2633H67.3185C67.3938 42.2146 67.5394 42.1397 67.7603 42.0298C67.9812 41.9199 68.1293 41.7726 68.2021 41.5903C68.9376 40.0893 69.4622 38.6058 69.776 37.1398C70.0898 35.6738 70.2906 34.2203 70.3834 32.7718C70.4738 31.3257 70.5039 29.8497 70.4663 28.3463C70.4311 26.8478 70.4311 25.2919 70.4663 23.6785V23.3239C70.4663 23.1216 70.4738 22.9018 70.4939 22.6621C70.514 22.4248 70.5316 22.1975 70.5491 21.9778C70.5667 21.758 70.5767 21.5906 70.5767 21.4783C70.5767 21.4458 70.5943 21.2984 70.632 21.0412C70.6671 20.7865 70.7048 20.5018 70.7424 20.1921C70.7775 19.8799 70.8152 19.6052 70.8529 19.3679C70.888 19.1282 70.9081 18.9733 70.9081 18.8984C70.9457 17.9494 70.9181 17.1077 70.8252 16.376C70.7349 15.6442 70.7424 15.0198 70.8529 14.5079C70.9633 13.9934 71.2595 13.5788 71.7364 13.2691C72.2134 12.9594 73.0618 12.7472 74.2768 12.6373C74.4976 12.6023 74.7913 12.5648 75.1603 12.5274C75.5293 12.4924 75.8858 12.4824 76.2372 12.5024C76.5886 12.5199 76.92 12.5923 77.2338 12.7222C77.545 12.8471 77.7735 13.0768 77.9216 13.4065C77.9216 13.5888 77.9592 13.911 78.032 14.3705C78.1048 14.8275 78.1625 15.1297 78.1977 15.2746C78.3834 17.0328 78.4085 18.756 78.2805 20.4393C78.1525 22.1251 78.0521 23.8483 77.9768 25.6041C77.9416 26.1185 77.9592 26.6855 78.032 27.3073C78.1048 27.9317 78.0872 28.5361 77.9768 29.1205C78.2353 30.8063 78.4085 32.4846 78.5014 34.1529C78.5943 35.8162 78.657 37.4945 78.6972 39.1727C78.7298 40.8635 78.7675 42.5468 78.8051 44.2326C78.8403 45.9184 78.9156 47.6017 79.026 49.285C78.9507 49.5747 78.8604 49.8718 78.7499 50.1641C78.6395 50.4563 78.4186 50.6211 78.0872 50.6585C77.3141 50.731 76.6238 50.7485 76.0163 50.716C75.4088 50.676 74.6809 50.731 73.835 50.8783Z" fill="#2BB673"/>
<path d="M85.6531 47.9663C85.6531 47.8988 85.6706 47.8089 85.7058 47.7165C85.7434 47.6241 85.7434 47.5617 85.7058 47.5267C85.7434 47.0522 85.8012 46.4728 85.874 45.7985C85.9468 45.1192 86.0748 44.5597 86.258 44.1202C86.371 43.863 86.5542 43.6682 86.8128 43.5433C87.0688 43.4184 87.3374 43.306 87.611 43.2161C87.8897 43.1237 88.1557 43.0313 88.4143 42.9389C88.6703 42.849 88.8736 42.6917 89.0218 42.4719C89.0569 42.4719 89.0845 42.4169 89.1046 42.3095C89.1222 42.1972 89.1322 42.1048 89.1322 42.0348C89.1322 41.9624 89.1397 41.815 89.1573 41.5953C89.1774 41.373 89.195 41.1257 89.215 40.851C89.2326 40.5788 89.2427 40.3141 89.2427 40.0568V39.5024C89.1322 36.5379 89.1046 33.5884 89.1573 30.6589C89.215 27.7294 89.1498 24.7999 88.964 21.8654C88.964 21.7929 88.949 21.6456 88.9113 21.4258C88.8737 21.206 88.8435 20.9663 88.8285 20.714C88.8084 20.4543 88.7908 20.217 88.7732 19.9973C88.7532 19.7775 88.7431 19.6127 88.7431 19.5028C88.6703 19.1731 88.4971 18.9733 88.2185 18.8984C87.9449 18.826 87.6411 18.7535 87.3098 18.6786C86.9759 18.6062 86.6823 18.4863 86.4262 18.324C86.1677 18.1566 86.0196 17.8544 85.9844 17.4174C85.9844 17.3799 85.9744 17.3425 85.9568 17.305C85.9367 17.27 85.9267 17.2301 85.9267 17.1976V16.0713C85.9267 15.5418 85.9367 14.9724 85.9568 14.3705C85.9744 13.7661 85.9844 13.1967 85.9844 12.6647V11.5958C86.0572 11.3011 86.1476 10.9365 86.258 10.4944C86.371 10.0549 86.5718 9.80014 86.8655 9.72522L86.9759 9.78016H87.0864C87.6411 9.89255 88.4143 9.93501 89.4083 9.91752C90.4024 9.90004 91.414 9.91752 92.4457 9.97247C93.4748 10.0299 94.4413 10.1548 95.3424 10.3571C96.2461 10.5594 96.8812 10.9165 97.2502 11.4285C97.4334 11.6483 97.5238 11.9979 97.5238 12.4724C97.5238 12.9494 97.5439 13.3166 97.5815 13.5713C97.692 15.1447 97.6443 16.2461 97.4409 16.8679C97.2401 17.4923 97.0017 17.9119 96.7255 18.1317C96.4494 18.3514 96.1632 18.4988 95.867 18.5687C95.5734 18.6461 95.3901 18.9383 95.3173 19.4503C95.0588 20.9888 94.9107 22.5247 94.8755 24.0681C94.8379 25.6041 94.8479 27.1425 94.9031 28.6809C94.9584 30.2218 95.0387 31.7503 95.1491 33.2687C95.2621 34.7897 95.3525 36.3206 95.4278 37.8566V38.4335V39.45C95.4278 39.8146 95.4353 40.1517 95.4529 40.4639C95.4729 40.7761 95.483 40.9684 95.483 41.0408V41.4804C95.5181 41.9199 95.6838 42.2146 95.9775 42.362C96.2712 42.5068 96.605 42.6442 96.974 42.7716C97.3405 42.9014 97.6819 43.0638 97.9957 43.2661C98.307 43.4684 98.5002 43.8455 98.573 44.3924C98.573 44.6497 98.5831 45.0243 98.6006 45.5188C98.6207 46.0133 98.5931 46.5078 98.5203 47.0023C98.445 47.4943 98.3069 47.9463 98.1061 48.3484C97.9028 48.748 97.5815 48.9678 97.1397 49.0077C96.4017 49.1601 95.5633 49.19 94.6245 49.1176C93.6882 49.0477 92.8498 49.0477 92.1118 49.1176C92.0014 49.1176 91.7353 49.1501 91.3136 49.2C90.8893 49.255 90.4475 49.3099 89.9882 49.3674C89.5263 49.4198 89.0845 49.4648 88.6603 49.5022C88.2386 49.5397 87.9725 49.5547 87.862 49.5547C87.3449 49.5921 86.8655 49.4897 86.4262 49.255C85.9844 49.0202 85.7259 48.5906 85.6531 47.9663Z" fill="#2BB673"/>
<path d="M106.634 50.3288C106.488 50.2189 106.338 50.0965 106.195 49.9741C106.044 49.8418 105.974 49.6894 105.974 49.5046C105.785 47.7464 105.795 45.9707 105.999 44.175C106.2 42.3793 106.305 40.6037 106.305 38.8429C106.305 36.6477 106.237 34.4399 106.109 32.2247C105.981 30.0044 105.843 27.7942 105.695 25.5765C105.549 23.3587 105.429 21.1535 105.336 18.9557C105.246 16.7604 105.236 14.5802 105.308 12.4174C105.308 12.2001 105.371 11.9603 105.502 11.7006C105.632 11.4483 105.823 11.301 106.084 11.2635C106.451 11.2286 106.882 11.246 107.379 11.3185C107.876 11.3934 108.293 11.4084 108.622 11.3734C108.77 11.3734 109.044 11.3659 109.45 11.3459C109.857 11.3285 110.286 11.311 110.748 11.2935C111.21 11.2735 111.639 11.2585 112.048 11.2386C112.452 11.2211 112.726 11.2111 112.877 11.2111C112.909 11.2111 113.06 11.1911 113.316 11.1586C113.575 11.1187 113.848 11.0837 114.147 11.0463C114.441 11.0113 114.704 10.9713 114.945 10.9389C115.186 10.8989 115.342 10.8814 115.414 10.8814C115.635 10.8814 115.994 10.8639 116.491 10.8265C116.988 10.7915 117.488 10.7915 117.982 10.8265C118.479 10.8639 118.931 10.9389 119.335 11.0463C119.74 11.1586 119.963 11.3759 120.001 11.7031L120.385 16.3209C120.422 16.6156 120.294 16.8628 120.001 17.0626C119.702 17.2649 119.428 17.3848 119.17 17.4198C118.434 17.4947 117.699 17.4647 116.963 17.3373C116.225 17.21 115.47 17.1825 114.697 17.2549C114.513 17.2549 114.272 17.2649 113.979 17.2849C113.685 17.2999 113.381 17.3473 113.067 17.4198C112.756 17.4947 112.488 17.6046 112.267 17.7494C112.048 17.8968 111.938 18.1166 111.938 18.4088C112.048 19.8748 112.048 21.3957 111.938 22.9691C111.827 24.545 111.845 26.0834 111.991 27.5869C111.991 27.7667 112.008 28.0065 112.048 28.2987C112.081 28.5909 112.191 28.8306 112.377 29.013C112.525 29.1228 112.756 29.2053 113.067 29.2627C113.381 29.3152 113.703 29.3426 114.036 29.3426C114.365 29.3426 114.676 29.3326 114.975 29.3152C115.269 29.2977 115.49 29.2852 115.635 29.2852C115.783 29.2852 116.057 29.2652 116.464 29.2327C116.87 29.1953 117.292 29.1553 117.734 29.0954C118.176 29.0404 118.6 28.9955 119.004 28.9555C119.408 28.923 119.687 28.9031 119.832 28.9031C119.943 28.9031 120.033 28.9655 120.111 29.0954C120.184 29.2252 120.219 29.3251 120.219 29.3926L120.606 32.9689C120.641 33.2986 120.558 33.6333 120.357 33.9554C120.154 34.2876 119.905 34.4724 119.612 34.5099C118.801 34.6197 117.992 34.6123 117.184 34.4774C116.371 34.355 115.542 34.3251 114.697 34.4C114.179 34.4724 113.815 34.6123 113.592 34.8121C113.371 35.0094 113.223 35.2616 113.15 35.5538C113.077 35.8435 113.04 36.1782 113.04 36.5453V37.6966C113.04 37.804 113.02 38.0687 112.987 38.4908C112.947 38.9129 112.902 39.3649 112.847 39.8369C112.791 40.309 112.746 40.751 112.708 41.1531C112.673 41.5577 112.636 41.8149 112.598 41.9248C112.673 41.9648 112.688 42.0722 112.653 42.2545C112.616 42.4393 112.636 42.5891 112.708 42.6915C112.708 42.9113 112.746 43.181 112.819 43.4907C112.894 43.8029 113.098 43.9552 113.426 43.9552H114.724H116.66H118.59H119.832C120.422 43.9552 120.954 44.0127 121.434 44.1226C121.911 44.2375 122.245 44.6345 122.428 45.3313C122.428 45.4013 122.456 45.5786 122.513 45.8533C122.566 46.123 122.621 46.4352 122.676 46.7874C122.732 47.137 122.787 47.4792 122.842 47.8313C122.897 48.1809 122.943 48.4432 122.98 48.6255V48.9527C123.053 49.4696 122.927 49.7618 122.594 49.8368C122.262 49.9117 121.893 49.9841 121.489 50.059C119.943 50.2388 118.397 50.2913 116.853 50.1939C115.304 50.1015 113.758 50.039 112.211 49.9991C112.101 49.9691 111.827 49.9791 111.383 50.0316C110.941 50.084 110.685 50.114 110.61 50.114C110.464 50.114 110.196 50.124 109.809 50.1414C109.425 50.1614 109.019 50.1864 108.597 50.2239C108.173 50.2613 107.773 50.2913 107.407 50.3013C107.038 50.3188 106.782 50.3288 106.634 50.3288ZM106.358 8.29655C106.358 8.18666 106.516 7.96689 106.83 7.63722C107.141 7.30756 107.49 6.95042 107.876 6.56581C108.263 6.17871 108.65 5.81408 109.036 5.46693C109.425 5.11979 109.709 4.87254 109.892 4.72519C109.967 4.69022 110.123 4.56036 110.364 4.34058C110.6 4.1208 110.738 3.97595 110.776 3.90103C110.889 3.78864 111.052 3.61881 111.273 3.37906C111.494 3.1418 111.735 2.89455 111.991 2.63731C112.249 2.38008 112.495 2.13533 112.736 1.89557C112.977 1.65831 113.13 1.50097 113.208 1.42855C113.316 1.17131 113.602 0.869115 114.061 0.521969C114.523 0.174822 114.897 0 115.196 0C115.342 0 115.525 0.0724264 115.746 0.219776C115.967 0.364629 116.198 0.541948 116.439 0.741745C116.675 0.944039 116.885 1.13634 117.074 1.31866C117.257 1.50097 117.367 1.62834 117.403 1.70077V2.25271V2.80215C117.403 2.98446 117.31 3.14929 117.126 3.29664C117.016 3.40653 116.813 3.57886 116.519 3.81861C116.225 4.05837 116.024 4.21321 115.914 4.28813C114.697 5.12728 113.472 5.99889 112.239 6.89548C111.007 7.79456 109.762 8.66118 108.511 9.50532C108.401 9.54029 108.308 9.57026 108.235 9.59023C108.163 9.60522 108.052 9.61271 107.904 9.61271C107.5 9.61271 107.141 9.47036 106.83 9.17566C106.516 8.88096 106.358 8.58875 106.358 8.29655Z" fill="#2BB673"/>
<path d="M136.897 35.9886C136.97 35.7688 136.925 35.5141 136.759 35.2144C136.593 34.9247 136.362 34.7798 136.069 34.7798H135.903C135.903 35.072 135.893 35.574 135.876 36.2883C135.855 37.0026 135.838 37.7618 135.82 38.5685C135.8 39.3727 135.783 40.1444 135.765 40.8761C135.745 41.6104 135.737 42.1024 135.737 42.3621V43.5159C135.775 44.2477 135.848 44.9745 135.958 45.6837C136.069 46.398 136.142 47.1223 136.179 47.854C136.179 48.1862 136.132 48.4484 136.041 48.6507C135.948 48.8505 135.7 48.9479 135.296 48.9479C134.523 49.0253 133.787 49.0453 133.084 49.0054C132.386 48.9679 131.631 49.0054 130.822 49.1152C130.674 49.0453 130.546 48.8955 130.436 48.6757L130.215 48.2336C130.215 48.1637 130.187 47.9539 130.132 47.6043C130.077 47.2571 130.047 47.0274 130.047 46.9175C129.974 45.7836 129.967 44.6473 130.022 43.5134C130.077 42.3771 130.142 41.2408 130.215 40.1044C130.215 38.2363 130.187 36.4082 130.132 34.6125C130.077 32.8168 130.195 30.9862 130.491 29.1181L129.718 13.6788C129.718 13.4965 129.728 13.2593 129.743 12.9646C129.763 12.6723 129.818 12.3876 129.911 12.1129C130.002 11.8382 130.132 11.6009 130.298 11.3986C130.464 11.1964 130.674 11.0965 130.933 11.0965H131.154C132.035 11.1689 132.765 11.2438 133.335 11.3162C133.905 11.3912 134.302 11.8107 134.523 12.5799C134.816 13.3866 135.138 14.1908 135.486 14.9975C135.838 15.8042 136.179 16.5734 136.511 17.3051C136.546 17.3426 136.566 17.4075 136.566 17.4999V17.6897C136.749 18.6787 137.045 19.6952 137.449 20.7391C137.854 21.7806 138.24 22.7446 138.609 23.6262C138.534 23.9908 138.609 24.4104 138.83 24.8899C139.048 25.3644 139.307 25.8389 139.603 26.316C139.897 26.7905 140.165 27.25 140.401 27.6896C140.642 28.1291 140.725 28.4962 140.652 28.7884C140.69 28.8983 140.78 29.1281 140.926 29.4752C141.074 29.8249 141.215 30.202 141.343 30.5991C141.471 31.0037 141.599 31.3783 141.729 31.7254C141.857 32.0751 141.96 32.3198 142.033 32.4672C142.071 32.5796 142.116 32.7344 142.171 32.9342C142.226 33.134 142.289 33.3538 142.364 33.596C142.437 33.8383 142.5 34.0631 142.558 34.2803C142.61 34.5001 142.64 34.6475 142.64 34.7224C142.824 35.162 142.952 35.6215 143.025 36.096C143.1 36.568 143.358 36.9601 143.8 37.2498C143.983 36.8827 144.074 36.4806 144.074 36.0386C144.591 31.9802 144.822 27.9843 144.767 24.0682C144.711 20.1447 144.646 16.1363 144.573 12.033C144.608 11.9606 144.701 11.8132 144.849 11.5934C144.998 11.3762 145.108 11.2638 145.181 11.2638L149.599 10.9366C149.928 10.9366 150.096 11.0265 150.096 11.2088C150.096 11.3937 150.206 11.521 150.427 11.5934C150.317 13.2443 150.317 14.8626 150.427 16.4585C150.538 18.0469 150.52 19.6727 150.372 21.3185C150.113 23.7011 149.882 26.0263 149.682 28.2964C149.478 30.5691 149.468 32.9142 149.654 35.3268L149.212 47.4719C149.175 47.7991 148.989 48.2511 148.66 48.8155C148.329 49.3875 147.96 49.7421 147.555 49.887C147.48 49.887 147.289 49.8969 146.976 49.9169C146.662 49.9344 146.469 49.9444 146.396 49.9444C145.475 50.0168 144.591 50.0368 143.745 49.9968C142.899 49.9644 142.013 49.8745 141.094 49.7271C140.615 49.6897 140.246 49.355 139.987 48.7132C139.731 48.0688 139.538 47.357 139.41 46.5653C139.279 45.7836 139.189 45.0319 139.134 44.3176C139.079 43.6034 139.033 43.1313 138.996 42.9116C138.958 42.7692 138.885 42.457 138.775 41.98C138.664 41.5055 138.571 41.1783 138.499 40.991C138.423 40.8087 138.313 40.479 138.167 39.9995C138.019 39.53 137.864 39.023 137.698 38.4911C137.532 37.9616 137.374 37.4571 137.229 36.9801C137.08 36.5006 136.97 36.1734 136.897 35.9886Z" fill="#2BB673"/>
<path d="M181.794 47.2521C181.533 45.2066 181.462 43.0963 181.573 40.9385C181.683 38.7732 181.701 36.6478 181.628 34.56C181.553 32.5845 181.442 30.6565 181.297 28.7659C181.149 26.8778 181.093 24.9448 181.128 22.9668C181.128 20.8439 181.138 18.866 181.159 17.0328C181.176 15.2022 181.038 13.2642 180.744 11.2088C180.817 10.6243 181.121 10.1748 181.653 9.86262C182.188 9.55044 182.712 9.36063 183.227 9.28821C183.819 9.21578 184.469 9.21578 185.19 9.28821C185.908 9.36063 186.503 9.63286 186.982 10.1124C186.982 10.1848 186.992 10.3321 187.015 10.5519C187.03 10.7717 187.04 10.9165 187.04 10.989C187.188 12.2727 187.17 13.6638 186.985 15.1647C186.801 16.6682 186.746 18.0418 186.822 19.288C186.822 19.4329 186.852 19.9923 186.904 20.9613C186.96 21.9328 187.022 23.0417 187.095 24.2879C187.17 25.5317 187.243 26.7854 187.321 28.0516C187.391 29.3128 187.449 30.3118 187.484 31.0436C187.595 32.8043 187.657 34.515 187.678 36.1833C187.695 37.8466 187.798 39.5449 187.981 41.2656C188.089 41.9599 188.393 42.3645 188.892 42.4719C189.384 42.5843 189.932 42.6268 190.519 42.6118C191.106 42.5943 191.651 42.6018 192.146 42.6367C192.64 42.6767 192.931 42.9889 193.004 43.5733C193.004 44.7471 192.974 45.6886 192.921 46.4029C192.869 47.1147 192.783 47.769 192.67 48.3534C192.562 48.9403 192.377 49.235 192.116 49.235C192.08 49.2725 192.018 49.2875 191.925 49.2875H191.734C190.331 49.2175 188.895 49.1526 187.424 49.0977C185.953 49.0427 184.477 48.9428 183.004 48.7955C182.527 48.7605 182.223 48.6232 182.095 48.3834C181.967 48.1362 181.866 47.7665 181.794 47.2521Z" fill="#2BB673"/>
<path d="M200.288 41.0432C200.253 40.8983 200.226 40.6985 200.211 40.4413C200.191 40.1866 200.17 39.9268 200.155 39.6696C200.133 39.4123 200.118 39.1851 200.1 38.9853C200.083 38.7855 200.07 38.6456 200.07 38.5732C200.035 37.8814 199.997 36.9673 199.96 35.8535C199.922 34.7371 199.889 33.6307 199.849 32.5294C199.814 31.433 199.776 30.459 199.741 29.6173C199.701 28.7757 199.688 28.2987 199.688 28.1888C199.688 27.0874 199.714 25.8911 199.766 24.5899C199.824 23.2888 199.945 21.9726 200.13 20.634C200.311 19.2978 200.615 17.9967 201.041 16.7329C201.463 15.4692 202.025 14.3429 202.723 13.3514C203.421 12.3649 204.317 11.5607 205.399 10.9388C206.489 10.3145 207.801 9.94735 209.35 9.83746H210.452C211.481 9.98481 212.478 10.2146 213.434 10.5243C214.391 10.8364 215.257 11.2585 216.03 11.7855C216.8 12.3174 217.471 12.9518 218.043 13.6835C218.615 14.4153 219.045 15.2969 219.346 16.3209C219.381 16.4682 219.424 16.8253 219.484 17.3923C219.537 17.9617 219.567 18.3363 219.567 18.5186C219.567 18.8108 219.572 19.2429 219.594 19.8098C219.612 20.3767 219.619 20.6989 219.619 20.7713C219.619 21.1385 219.629 21.9351 219.652 23.1614C219.667 24.3876 219.697 25.7263 219.73 27.1723C219.77 28.6208 219.793 30.0294 219.815 31.403C219.833 32.7791 219.84 33.7931 219.84 34.4574C219.84 35.369 219.853 36.4229 219.873 37.6117C219.888 38.8055 219.853 40.0417 219.76 41.3254C219.667 42.6041 219.501 43.8703 219.265 45.114C219.024 46.3578 218.628 47.4766 218.078 48.4656C217.523 49.4571 216.803 50.2738 215.922 50.9106C215.036 51.55 213.916 51.9071 212.553 51.982C211.373 52.057 210.264 51.982 209.215 51.7623C208.165 51.54 207.084 51.2478 205.984 50.8807C204.877 50.551 203.973 50.039 203.278 49.3447C202.578 48.6504 202.013 47.8413 201.591 46.9247C201.169 46.0131 200.856 45.0391 200.655 44.0127C200.447 42.9862 200.329 41.9972 200.288 41.0432ZM207.638 40.6586C207.709 41.4303 207.942 42.1146 208.324 42.719C208.713 43.3209 209.348 43.5881 210.231 43.5157C210.821 43.4782 211.26 43.3059 211.557 42.9937C211.85 42.6815 212.061 42.2994 212.189 41.8424C212.32 41.3803 212.395 40.8958 212.41 40.3839C212.433 39.8719 212.458 39.3949 212.495 38.9503V38.4858C212.495 38.2485 212.503 37.9938 212.521 37.7166C212.541 37.4419 212.551 37.1846 212.551 36.9474V36.5378C212.664 34.6697 212.714 32.9539 212.714 31.3955C212.714 29.8396 212.661 28.1238 212.551 26.2557C212.551 26.036 212.531 25.6813 212.498 25.1893C212.458 24.6898 212.423 24.1604 212.388 23.5935C212.35 23.0265 212.312 22.4946 212.277 21.9976C212.237 21.5056 212.224 21.1484 212.224 20.9312C212.147 20.7114 212.009 20.4092 211.808 20.0221C211.607 19.6375 211.386 19.2704 211.142 18.9232C210.904 18.5736 210.628 18.2714 210.314 18.0191C210.003 17.7594 209.699 17.632 209.405 17.632C209.039 17.6695 208.718 17.8418 208.436 18.154C208.165 18.4662 207.944 18.8433 207.776 19.2803C207.608 19.7199 207.48 20.1694 207.387 20.6265C207.297 21.086 207.232 21.4606 207.194 21.7553C207.159 21.8278 207.121 22.0076 207.083 22.2998C207.048 22.597 207.003 22.9241 206.948 23.2913C206.895 23.6559 206.837 24.0055 206.782 24.3352C206.73 24.6674 206.699 24.8672 206.699 24.9396V25.7113V27.1923C206.699 27.7417 206.689 28.2812 206.669 28.8131C206.652 29.3451 206.644 29.7547 206.644 30.0494V30.4939C206.644 30.5639 206.652 30.6163 206.669 30.6538C206.689 30.6937 206.699 30.7437 206.699 30.8186V31.0334C206.74 31.403 206.802 32.0473 206.895 32.9589C206.983 33.873 207.083 34.837 207.194 35.8435C207.307 36.85 207.397 37.814 207.473 38.723C207.545 39.6546 207.601 40.2939 207.638 40.6586Z" fill="#2BB673"/>
<path d="M252.201 50.8206C252.129 50.7907 252.071 50.6333 252.041 50.3561C252.001 50.0789 251.983 49.9091 251.983 49.8341C251.762 48.513 251.727 47.2068 251.873 45.9081C252.023 44.607 252.073 43.3133 252.041 42.0321C251.963 40.3863 251.79 38.7429 251.516 37.1146C251.237 35.4888 251.024 33.8429 250.878 32.1971C250.838 30.9159 250.838 29.6772 250.878 28.4884C250.914 27.2971 250.931 26.0609 250.931 24.7797C250.971 23.6084 250.931 22.4271 250.821 21.2383C250.71 20.047 250.617 18.8632 250.545 17.6919V17.3622V16.7828V16.2084V15.8238C250.507 15.6415 250.474 15.3293 250.437 14.8922C250.397 14.4502 250.364 13.9832 250.324 13.4887C250.286 12.9942 250.251 12.5246 250.216 12.0876C250.178 11.648 250.163 11.3383 250.163 11.156C250.236 10.8613 250.311 10.6416 250.384 10.4942C250.457 10.3494 250.602 10.2195 250.823 10.1121C250.899 10.0721 251.109 10.0272 251.458 9.97224C251.812 9.91479 252.041 9.89232 252.151 9.89232C254.172 9.63258 255.997 9.72499 257.616 10.1645C259.237 10.6041 260.643 11.3184 261.843 12.3049C263.04 13.2964 264.014 14.5151 264.77 15.9586C265.525 17.4072 266.05 18.9931 266.344 20.7163C266.524 22.1049 266.617 23.461 266.617 24.7797C266.617 26.0983 266.565 27.4719 266.452 28.9005C266.602 29.6322 266.617 30.349 266.507 31.0383C266.396 31.7401 266.379 32.4518 266.452 33.1836C266.492 34.3599 266.565 35.721 266.678 37.2769C266.788 38.8328 266.755 40.3938 266.595 41.9497C266.429 43.5056 266.04 44.9541 265.435 46.2878C264.828 47.6239 263.839 48.6578 262.476 49.3921C261.155 50.0564 259.744 50.4885 258.251 50.7083C256.762 50.9305 255.279 51.1278 253.805 51.3176C253.733 51.3176 253.554 51.3326 253.281 51.3701C253.005 51.4075 252.829 51.425 252.756 51.425C252.683 51.3501 252.583 51.2677 252.455 51.1753C252.324 51.0929 252.242 50.968 252.201 50.8206ZM257.448 43.5705C257.633 43.8652 257.874 43.9926 258.168 43.9501C258.57 43.9202 258.894 43.6979 259.134 43.2958C259.375 42.8912 259.556 42.4417 259.689 41.9497C259.815 41.4527 259.908 40.9532 259.963 40.4387C260.016 39.9242 260.066 39.5246 260.103 39.2349C260.139 38.9752 260.174 38.6206 260.214 38.1585C260.249 37.6965 260.287 37.2644 260.324 36.8449C260.362 36.4203 260.385 36.0532 260.407 35.741C260.425 35.4338 260.432 35.259 260.432 35.219L260.377 34.777C260.377 32.764 260.397 30.6861 260.432 28.5433C260.467 26.4005 260.324 24.2852 259.993 22.1973C259.805 21.1359 259.594 20.2942 259.358 19.6724C259.114 19.048 258.59 18.3487 257.782 17.582C257.669 17.3997 257.571 17.2523 257.48 17.1424C257.387 17.0325 257.214 16.9951 256.956 17.0325C256.77 17.07 256.702 17.2249 256.762 17.5021C256.815 17.7743 256.845 17.9291 256.845 17.9666C256.956 20.2018 257.026 22.437 257.066 24.6723C257.099 26.905 257.154 29.1427 257.227 31.3729C257.267 33.2036 257.212 35.0642 257.066 36.9498C256.913 38.8329 256.988 40.6959 257.287 42.5241C257.287 42.5965 257.312 42.7738 257.37 43.0461C257.423 43.3233 257.448 43.4981 257.448 43.5705Z" fill="#2BB673"/>
<path d="M273.357 47.9663C273.357 47.8988 273.372 47.8089 273.409 47.7165C273.447 47.6241 273.447 47.5617 273.409 47.5267C273.447 47.0522 273.505 46.4728 273.578 45.7985C273.65 45.1192 273.778 44.5597 273.959 44.1202C274.072 43.863 274.255 43.6682 274.514 43.5433C274.772 43.4184 275.039 43.306 275.312 43.2161C275.591 43.1237 275.857 43.0313 276.115 42.9389C276.371 42.849 276.577 42.6917 276.723 42.4719C276.758 42.4719 276.786 42.4169 276.806 42.3095C276.821 42.1972 276.833 42.1048 276.833 42.0348C276.833 41.9624 276.841 41.815 276.858 41.5953C276.878 41.373 276.896 41.1257 276.914 40.851C276.934 40.5788 276.944 40.3141 276.944 40.0568V39.5024C276.833 36.5379 276.806 33.5884 276.858 30.6589C276.914 27.7294 276.851 24.7999 276.665 21.8654C276.665 21.7929 276.65 21.6456 276.612 21.4258C276.577 21.206 276.547 20.9663 276.532 20.714C276.509 20.4543 276.494 20.217 276.477 19.9973C276.457 19.7775 276.447 19.6127 276.447 19.5028C276.374 19.1731 276.201 18.9733 275.922 18.8984C275.649 18.826 275.345 18.7535 275.016 18.6786C274.68 18.6062 274.388 18.4863 274.13 18.324C273.871 18.1566 273.723 17.8544 273.686 17.4174C273.686 17.3799 273.675 17.3425 273.66 17.305C273.638 17.27 273.628 17.2301 273.628 17.1976V16.0713C273.628 15.5418 273.638 14.9724 273.66 14.3705C273.675 13.7661 273.686 13.1967 273.686 12.6647V11.5958C273.758 11.3011 273.849 10.9365 273.959 10.4944C274.072 10.0549 274.273 9.80014 274.567 9.72522L274.677 9.78016H274.788C275.342 9.89255 276.115 9.93501 277.112 9.91752C278.106 9.90004 279.118 9.91752 280.147 9.97247C281.176 10.0299 282.142 10.1548 283.044 10.3571C283.947 10.5594 284.582 10.9165 284.951 11.4285C285.135 11.6483 285.225 11.9979 285.225 12.4724C285.225 12.9494 285.245 13.3166 285.283 13.5713C285.391 15.1447 285.343 16.2461 285.14 16.8679C284.939 17.4923 284.7 17.9119 284.424 18.1317C284.151 18.3514 283.862 18.4988 283.566 18.5687C283.272 18.6461 283.091 18.9383 283.016 19.4503C282.755 20.9888 282.609 22.5247 282.574 24.0681C282.534 25.6041 282.544 27.1425 282.602 28.6809C282.657 30.2218 282.737 31.7503 282.85 33.2687C282.963 34.7897 283.051 36.3206 283.126 37.8566V38.4335V39.45C283.126 39.8146 283.134 40.1517 283.151 40.4639C283.174 40.7761 283.184 40.9684 283.184 41.0408V41.4804C283.219 41.9199 283.385 42.2146 283.676 42.362C283.97 42.5068 284.304 42.6442 284.673 42.7716C285.039 42.9014 285.378 43.0638 285.692 43.2661C286.006 43.4684 286.196 43.8455 286.269 44.3924C286.269 44.6497 286.279 45.0243 286.299 45.5188C286.319 46.0133 286.289 46.5078 286.216 47.0023C286.144 47.4943 286.006 47.9463 285.805 48.3484C285.599 48.748 285.28 48.9678 284.838 49.0077C284.098 49.1601 283.259 49.19 282.323 49.1176C281.387 49.0477 280.548 49.0477 279.808 49.1176C279.697 49.1176 279.431 49.1501 279.01 49.2C278.588 49.255 278.146 49.3099 277.687 49.3674C277.225 49.4198 276.786 49.4648 276.359 49.5022C275.937 49.5397 275.674 49.5547 275.561 49.5547C275.046 49.5921 274.567 49.4897 274.127 49.255C273.686 49.0202 273.427 48.5906 273.357 47.9663Z" fill="#2BB673"/>
<path d="M290.802 47.0872C290.762 46.8275 290.9 46.5128 291.214 46.1232C291.528 45.7411 291.912 45.354 292.376 44.9693C292.838 44.5872 293.312 44.2276 293.812 43.9004C294.306 43.5683 294.723 43.3135 295.052 43.1262C295.127 43.1262 295.218 43.1112 295.328 43.0738C295.439 43.0363 295.531 43.0188 295.604 43.0188C296.046 42.9814 296.402 43.0738 296.681 43.2886C296.957 43.5083 297.276 43.7581 297.65 44.0303C298.017 44.3075 298.458 44.5548 298.973 44.7745C299.487 44.9943 300.223 45.0692 301.182 44.9943C301.516 44.9569 301.845 44.8669 302.176 44.7246C302.51 44.5747 302.791 44.3924 303.034 44.1727C303.275 43.9504 303.446 43.7406 303.559 43.5408C303.667 43.341 303.647 43.1687 303.506 43.0188C303.541 42.9064 303.597 42.7166 303.667 42.4419C303.74 42.1672 303.818 41.8725 303.888 41.5603C303.961 41.2531 304.031 40.9684 304.084 40.7112C304.136 40.4539 304.166 40.2691 304.166 40.1617C304.315 39.5374 304.45 38.7856 304.578 37.9065C304.706 37.0299 304.643 36.2782 304.387 35.6563L303.059 17.2501L302.731 15.2721L300.795 15.4344L300.519 15.2146C300.449 14.9974 300.374 14.8001 300.298 14.6152C300.225 14.4354 300.16 14.2581 300.107 14.0933C300.055 13.9309 300.025 13.7936 300.025 13.6837C299.984 13.6113 299.934 13.409 299.859 13.0793C299.786 12.7496 299.711 12.5274 299.641 12.42C299.749 12.42 299.934 12.41 300.193 12.39C300.451 12.375 300.615 12.365 300.687 12.365C301.129 12.365 301.922 12.3575 303.059 12.3376C304.202 12.3176 305.417 12.2901 306.707 12.2552C307.997 12.2177 309.197 12.1902 310.321 12.1727C311.446 12.1553 312.227 12.1453 312.668 12.1453C312.668 12.1802 312.691 12.2552 312.724 12.365C312.761 12.4749 312.799 12.5474 312.834 12.5848V13.2441C312.834 13.5363 312.824 13.831 312.807 14.1232C312.789 14.4155 312.751 14.6727 312.696 14.8925C312.643 15.1122 312.578 15.2196 312.503 15.2196L310.183 15.332C310.183 15.4044 310.231 15.5418 310.321 15.7416C310.412 15.9464 310.462 16.0838 310.462 16.1562C310.462 16.3385 310.452 16.6682 310.432 17.1452C310.412 17.6197 310.407 18.1142 310.407 18.6287V20.0847V21.0437C310.407 21.5232 310.367 22.0052 310.294 22.5022C310.219 22.9967 310.156 23.5012 310.101 24.0107C310.045 24.5252 310.025 25.0271 310.045 25.5191C310.065 26.0161 310.168 26.5006 310.349 26.9777L310.846 40.3291C310.625 40.911 310.588 41.5254 310.736 42.1672C310.884 42.8115 310.921 43.4034 310.846 43.9529C310.588 45.6412 309.669 47.1346 308.085 48.4308C306.498 49.7345 304.144 50.4937 301.016 50.7135C299.176 50.8209 297.489 50.5512 295.963 49.8893C294.434 49.2275 293.046 48.5707 291.794 47.9089C291.387 47.729 291.129 47.6017 291.021 47.5267C290.91 47.4543 290.84 47.307 290.802 47.0872Z" fill="#2BB673"/>
<path d="M318.744 41.0432C318.709 40.8983 318.682 40.6985 318.667 40.4413C318.647 40.1866 318.626 39.9268 318.611 39.6696C318.591 39.4123 318.574 39.1851 318.556 38.9853C318.539 38.7855 318.526 38.6456 318.526 38.5732C318.491 37.8814 318.453 36.9673 318.416 35.8535C318.38 34.7371 318.345 33.6307 318.305 32.5294C318.27 31.433 318.232 30.459 318.197 29.6173C318.157 28.7757 318.145 28.2987 318.145 28.1888C318.145 27.0874 318.172 25.8911 318.222 24.5899C318.28 23.2888 318.401 21.9726 318.586 20.634C318.767 19.2978 319.071 17.9967 319.498 16.7329C319.919 15.4692 320.482 14.3429 321.179 13.3514C321.877 12.3649 322.773 11.5607 323.855 10.9388C324.945 10.3145 326.257 9.94735 327.806 9.83746H328.908C329.937 9.98481 330.934 10.2146 331.89 10.5243C332.847 10.8364 333.713 11.2585 334.486 11.7855C335.257 12.3174 335.927 12.9518 336.499 13.6835C337.071 14.4153 337.501 15.2969 337.802 16.3209C337.837 16.4682 337.88 16.8253 337.94 17.3923C337.993 17.9617 338.023 18.3363 338.023 18.5186C338.023 18.8108 338.028 19.2429 338.05 19.8098C338.068 20.3767 338.075 20.6989 338.075 20.7713C338.075 21.1385 338.085 21.9351 338.108 23.1614C338.123 24.3876 338.153 25.7263 338.186 27.1723C338.226 28.6208 338.251 30.0294 338.271 31.403C338.289 32.7791 338.296 33.7931 338.296 34.4574C338.296 35.369 338.309 36.4229 338.329 37.6117C338.344 38.8055 338.309 40.0417 338.216 41.3254C338.123 42.6041 337.957 43.8703 337.722 45.114C337.481 46.3578 337.084 47.4766 336.534 48.4656C335.979 49.4571 335.259 50.2738 334.378 50.9106C333.497 51.5475 332.372 51.9071 331.009 51.982C329.832 52.057 328.72 51.982 327.671 51.7623C326.621 51.54 325.54 51.2478 324.44 50.8807C323.333 50.551 322.429 50.039 321.734 49.3447C321.034 48.6504 320.469 47.8413 320.047 46.9247C319.626 46.0131 319.312 45.0391 319.111 44.0127C318.903 42.9862 318.782 41.9972 318.744 41.0432ZM326.094 40.6586C326.165 41.4303 326.398 42.1146 326.78 42.719C327.169 43.3209 327.804 43.5881 328.687 43.5157C329.277 43.4782 329.717 43.3059 330.013 42.9937C330.306 42.6815 330.517 42.2994 330.645 41.8424C330.776 41.3803 330.851 40.8958 330.866 40.3839C330.889 39.8719 330.914 39.3949 330.952 38.9503V38.4858C330.952 38.2485 330.959 37.9938 330.977 37.7166C330.997 37.4419 331.007 37.1846 331.007 36.9474V36.5378C331.12 34.6697 331.17 32.9539 331.17 31.3955C331.17 29.8396 331.117 28.1238 331.007 26.2557C331.007 26.036 330.987 25.6813 330.954 25.1893C330.914 24.6898 330.881 24.1604 330.844 23.5935C330.806 23.0265 330.768 22.4946 330.733 21.9976C330.693 21.5056 330.68 21.1484 330.68 20.9312C330.603 20.7114 330.465 20.4092 330.264 20.0221C330.063 19.6375 329.842 19.2704 329.599 18.9232C329.36 18.5736 329.084 18.2714 328.77 18.0191C328.459 17.7594 328.155 17.632 327.861 17.632C327.495 17.6695 327.174 17.8418 326.893 18.154C326.621 18.4662 326.401 18.8433 326.232 19.2803C326.067 19.7199 325.936 20.1694 325.843 20.6265C325.753 21.086 325.688 21.4606 325.65 21.7553C325.615 21.8278 325.577 22.0076 325.54 22.2998C325.504 22.597 325.459 22.9241 325.404 23.2913C325.351 23.6559 325.294 24.0055 325.238 24.3352C325.186 24.6674 325.155 24.8672 325.155 24.9396V25.7113V27.1923C325.155 27.7417 325.145 28.2812 325.125 28.8131C325.108 29.3451 325.1 29.7547 325.1 30.0494V30.4939C325.1 30.5639 325.108 30.6163 325.125 30.6538C325.145 30.6937 325.155 30.7437 325.155 30.8186V31.0334C325.196 31.403 325.258 32.0473 325.351 32.9589C325.439 33.873 325.54 34.837 325.65 35.8435C325.763 36.85 325.853 37.814 325.929 38.723C325.999 39.6546 326.054 40.2939 326.094 40.6586Z" fill="#2BB673"/>
<path d="M352.598 39.0679C352.485 38.1863 352.432 37.1774 352.432 36.041C352.432 34.9122 352.505 33.7334 352.653 32.5296C352.801 31.3208 353.02 30.147 353.318 29.0132C353.61 27.8793 354.016 26.8878 354.531 26.0437C355.118 25.1321 355.839 24.243 356.685 23.3814C357.53 22.5198 358.359 21.7056 359.17 20.9364C359.722 20.0947 359.943 19.2156 359.832 18.2991C359.757 17.5274 359.483 16.9355 359.006 16.5134C358.527 16.0938 357.809 15.919 356.85 15.9914C355.306 16.1737 354.079 16.7132 353.178 17.6098C352.277 18.5089 351.918 19.6003 352.103 20.8814C352.174 21.5408 352.284 22.2201 352.432 22.9144C352.583 23.6112 352.693 24.3254 352.766 25.0572C352.801 25.3119 352.716 25.6341 352.515 26.0212C352.314 26.4033 352.066 26.7854 351.77 27.1725C351.476 27.5571 351.152 27.8868 350.803 28.1615C350.449 28.4338 350.15 28.5736 349.892 28.5736H349.618C349.468 28.6111 349.164 28.6211 348.707 28.6011C348.245 28.5811 347.942 28.5736 347.796 28.5736C346.767 27.732 346.066 26.698 345.697 25.4693C345.331 24.243 345.055 23.0417 344.869 21.8704C344.796 21.2486 344.796 20.6542 344.869 20.0848C344.944 19.5178 345.07 18.9234 345.256 18.2991C345.918 15.5169 347.206 13.3616 349.121 11.8432C351.034 10.3222 353.795 9.41562 357.402 9.12342C358.803 9.01353 360.063 9.15089 361.188 9.5355C362.312 9.91761 363.266 10.4596 364.059 11.1564C364.853 11.8531 365.495 12.6773 365.995 13.6288C366.492 14.5829 366.796 15.5719 366.906 16.5958C367.016 17.3276 367.044 18.0793 366.986 18.851C366.934 19.6177 366.785 20.3695 366.545 21.1012C366.304 21.8355 365.937 22.5198 365.443 23.1616C364.946 23.8035 364.293 24.3629 363.482 24.8374C362.965 25.1671 362.38 25.5217 361.715 25.9088C361.052 26.2934 360.538 26.743 360.169 27.255C359.694 27.9892 359.34 28.8483 359.119 29.8373C358.898 30.8238 358.76 31.8428 358.708 32.8917C358.653 33.9357 358.642 34.9571 358.678 35.9636C358.713 36.9676 358.753 37.8816 358.788 38.6833C358.826 39.3801 358.863 39.9695 358.898 40.4415C358.939 40.9135 358.863 41.3032 358.678 41.5954C358.492 41.8876 358.153 42.1273 357.658 42.3096C357.159 42.4894 356.433 42.6193 355.477 42.6892C354.85 42.7667 354.355 42.6842 353.986 42.4445C353.615 42.2072 353.338 41.905 353.158 41.5379C352.972 41.1733 352.844 40.7687 352.771 40.3316C352.691 39.8896 352.633 39.47 352.598 39.0679ZM352.432 49.3949C352.362 48.9229 352.362 48.4134 352.432 47.8865C352.505 47.3545 352.663 46.865 352.904 46.4279C353.145 45.9884 353.492 45.6213 353.951 45.3291C354.415 45.0368 355.01 44.8545 355.748 44.7746C356.228 44.7446 356.715 44.8171 357.212 44.9969C357.709 45.1792 358.158 45.4215 358.565 45.7112C358.971 46.0084 359.3 46.3405 359.559 46.7301C359.817 47.1122 359.985 47.4894 360.058 47.854C360.093 48.296 360.036 48.7406 359.893 49.2001C359.744 49.6571 359.506 50.0717 359.175 50.4364C358.843 50.801 358.449 51.1107 357.985 51.3704C357.523 51.6276 357.018 51.7725 356.469 51.81C355.512 51.8824 354.629 51.7001 353.818 51.2605C353.005 50.8235 352.545 50.2041 352.432 49.3949Z" fill="#2BB673"/>
</svg>
