<svg width="385" height="407" viewBox="0 0 385 407" fill="none" xmlns="http://www.w3.org/2000/svg">
<path d="M171.736 86.7449L177.15 80.2093" stroke="#B9B5A3" stroke-width="1.5" stroke-miterlimit="10" stroke-linecap="round" stroke-linejoin="round"/>
<path d="M92.3575 166.191C82.9738 160.608 78.4375 158.203 78.4375 162.428C78.4375 166.766 86.765 169.52 85.3975 173.358C84.03 177.187 92.3575 166.191 92.3575 166.191Z" fill="#F39200"/>
<path d="M122.431 396.653L108.228 392.871L107.285 344.179H122.431V396.653Z" fill="#814114"/>
<path d="M129.882 390.023L122.432 396.653V344.179H130.825L129.882 390.023Z" fill="#A85318"/>
<path d="M154.505 375.405L140.302 371.614L139.359 322.932H154.505V375.405Z" fill="#814114"/>
<path d="M161.013 368.766L154.506 375.405V322.932H162.899L161.013 368.766Z" fill="#A85318"/>
<path d="M186.855 406.32L172.652 402.528L171.709 353.846H186.855V406.32Z" fill="#814114"/>
<path d="M194.304 399.68L186.854 406.32V353.846H195.247L194.304 399.68Z" fill="#A85318"/>
<path d="M223.351 380.083L209.148 376.292L208.205 327.609H223.351V380.083Z" fill="#814114"/>
<path d="M229.859 373.444L223.352 380.083V327.609H231.745L229.859 373.444Z" fill="#A85318"/>
<path d="M94.6777 330.684C94.6777 330.684 92.6312 344.406 94.5174 346.377C96.4036 348.339 189.59 360.259 191.363 358.486C193.136 356.713 192.391 341.661 192.391 341.661L94.6777 330.684Z" fill="#814114"/>
<path d="M242.572 311.822C242.572 311.822 241.714 327.826 239.743 329.09C191.07 360.448 191.014 358.562 191.014 358.562V341.661L242.572 311.822Z" fill="#814114"/>
<path d="M151.46 303.278L241.308 309.568C241.308 309.568 244.581 310.615 240.686 314.076C235.659 318.537 207.48 335.663 193.805 341.605C183.224 342.359 103.203 333.834 94.6772 330.674C88.6226 328.43 138.682 307.72 142.954 305.692C143.312 305.532 147.132 303.278 151.46 303.278Z" fill="#A85318"/>
<path d="M121.62 325.931C121.62 327.845 120.026 328.147 117.471 328.147C114.877 328.147 113.613 327.836 113.613 325.931C113.613 324.016 115.405 322.47 117.612 322.47C119.838 322.47 121.62 324.016 121.62 325.931Z" fill="black"/>
<path d="M155.138 310.888C155.138 312.803 153.544 313.105 150.988 313.105C148.395 313.105 147.131 312.794 147.131 310.888C147.131 308.974 148.923 307.427 151.13 307.427C153.346 307.427 155.138 308.983 155.138 310.888Z" fill="black"/>
<path d="M197.54 333.447C197.54 335.362 195.946 335.663 193.39 335.663C190.797 335.663 189.533 335.352 189.533 333.447C189.533 331.533 191.325 329.986 193.532 329.986C195.758 329.986 197.54 331.533 197.54 333.447Z" fill="black"/>
<path d="M224.69 316.575C224.69 318.49 223.097 318.792 220.541 318.792C217.947 318.792 216.684 318.48 216.684 316.575C216.684 314.661 218.475 313.114 220.682 313.114C222.899 313.114 224.69 314.661 224.69 316.575Z" fill="black"/>
<path d="M122.828 315.642C121.46 315.679 123.554 316.009 121.932 315.764C122.12 315.613 122.384 315.51 122.828 315.642Z" fill="#302F2B" fill-opacity="0.53"/>
<path d="M147.263 324.177C145.188 325.252 142.595 324.563 140.124 325.478C139.813 325.572 139.539 325.751 139.237 325.884C139.454 326.204 139.832 326.138 140.115 326.28L141.972 326.808C143.236 327.006 144.472 327.242 145.679 327.194C146.245 327.213 145.462 327.732 146.744 327.732C151.422 327.496 158.627 328.015 164.314 328.288L163.984 328.458C165.069 328.534 166.351 327.93 167.483 327.911C167.502 328.015 167.125 328.081 167.398 328.213C167.662 327.883 169.445 327.921 169.907 327.647C170.369 327.732 170.34 327.977 170.935 328.062L171.548 327.647C173.264 326.647 175.933 327.251 178.328 326.487C178.225 326.581 177.989 326.676 178.196 326.732C182.054 325.676 186.948 324.95 191.173 323.639C191.041 323.809 190.938 324.073 191.22 324.139C191.343 323.714 192.616 323.252 193.729 322.856C194.361 323.064 195.521 321.866 196.851 321.555L196.785 321.687C197.483 321.423 198.294 320.018 198.671 321.677L198.124 321.244C197.577 321.677 196.756 320.631 195.86 320.81L195.87 320.923C195.068 320.951 194.7 320.583 193.946 320.621L193.88 320.555C192.145 320.536 191.164 320.159 191.173 320.593C190.589 320.206 192.861 320.555 191.947 319.989C186.213 320.046 180.328 320.036 174.566 320.187C173.905 320.036 173.49 319.999 173.339 319.848C172.764 319.952 171.17 319.989 170.661 320.234C170.859 320.216 170.284 320.036 169.973 320.018C168.916 319.895 168.841 320.527 167.69 320.385C168.143 320.253 168.294 320.112 168.134 319.961C167.162 320.329 165.851 320.338 164.701 320.489C164.88 320.414 165.154 320.357 165.106 320.225C163.852 320.659 162.786 320.253 161.683 320.536L162.088 320.272C160.287 320.055 161.589 320.81 160.033 320.706C160.4 320.612 160.268 320.517 160.325 320.423C158.901 320.932 156.562 320.895 155.128 321.112C155.213 321.074 155.185 321.008 155.185 321.008C153.62 321.13 151.969 321.064 150.243 321.291C149.611 321.187 150.432 320.715 148.782 320.791C148.838 321.281 145.962 320.979 146.933 321.536C145.518 321.451 143.274 321.272 142.331 321.451C142.963 321.262 141.633 320.857 142.812 320.8L141.916 320.508C142.048 320.31 142.84 320.565 142.548 320.319C141.954 320.348 140.237 320.555 139.7 320.489C138.606 320.81 137.615 321.394 135.842 321.498C136.672 321.281 135.352 320.97 135.918 320.866L133.475 321.885C132.891 321.932 133.334 321.498 132.485 321.659C132.532 321.791 132.164 321.885 131.91 321.998C131.683 321.951 129.467 322.224 129.194 321.753C128.92 321.574 130.146 321.602 129.486 321.46C128.401 321.526 128.364 321.687 127.279 321.762L127.251 321.696C126.525 321.658 125.157 322.045 125.949 322.253C126.449 322.234 125.742 321.979 126.487 322.064C125.997 322.375 124.752 322.545 123.677 322.649C124.035 322.536 123.978 322.413 124.12 322.262C122.705 322.771 121.187 323.045 119.678 323.46C119.687 323.686 120.187 322.951 120.432 323.035C119.452 323.017 118.273 323.347 117.726 323.724C117.782 324.393 117.829 322.036 117.811 322.753C118.084 322.903 118.452 323.092 118.791 323.337C118.537 323.281 118.782 322.979 118.773 323.045C119.602 323.309 119.48 323.611 120.093 323.62C120.121 323.818 120.894 323.677 121.545 323.724C121.894 323.639 121.706 323.846 121.13 323.78C122.045 323.79 125.789 323.856 127.93 324.29C127.902 324.158 129.297 323.912 129.788 323.96L129.571 324.252C130.014 324.469 131.24 324.337 131.306 324.601C132.391 324.309 127.185 324.639 128.647 324.45C129.005 324.733 130.684 324.111 130.344 324.497C131.344 324.544 132.334 324.261 133.277 324.61C133.004 324.544 132.438 324.978 133.249 325.006C134.682 325.035 133.664 324.884 134.824 324.846L135.559 324.761C135.625 324.469 136.833 324.865 136.323 324.507C136.484 324.761 138.408 324.459 138.238 324.94L138.021 325.318C138.643 325.318 139.049 324.959 139.539 324.808C139.624 324.846 139.775 324.931 139.747 324.988C139.879 324.403 141.218 325.11 141.972 324.686C143.265 324.94 145.264 324.846 145.858 325.233C146.867 325.091 147.782 324.912 148.914 325.082C148.687 325.129 148.376 325.129 148.31 325.261C149.017 325.459 149.197 325.318 149.857 325.242C149.706 325.327 151.271 325.638 152.063 325.874C153.063 325.733 152.733 325.403 152.837 325.214C153.723 325.827 155.647 324.931 156.77 325.497C156.421 325.563 155.308 325.733 156.128 325.912C157.015 326.525 157.967 325.544 159.42 325.874L159.08 325.384C159.721 325.704 161.24 325.176 161.07 325.657C161.57 325.497 162.786 325.874 162.645 325.403C165.031 325.874 168.492 325.355 169.944 326.251C170.293 326.185 171.142 326.299 170.972 326.044C170.416 325.77 170.171 326.204 169.963 326.016C170.275 326.016 170.341 325.884 170.378 325.827C171.114 325.959 171.699 326.006 170.982 326.383C172.632 326.723 172.717 325.629 174.82 325.874C174.716 326.063 174.877 326.148 175.499 326.129L176.678 325.827C178.036 325.921 177.442 326.28 177.47 326.61C178.196 326.563 179.092 326.591 179.422 326.355L180.299 326.779C179.658 326.468 180.903 326.591 181.243 326.515L180.903 326.591C181.035 326.732 181.874 326.657 182.308 326.629C182.205 326.421 181.346 326.327 180.875 326.261C181.252 326.119 181.827 326.166 182.318 325.997C182.148 326.317 183.506 326.242 184.081 326.27C184.741 326.336 184.826 325.978 185.024 325.987C185.043 326.157 186.109 326.016 185.59 326.251C185.364 326.308 185.072 326.091 184.694 326.232C185.128 326.355 185.081 326.647 185.986 326.44C186.665 326.28 185.807 325.799 187.109 326.006C186.769 326.091 186.712 326.214 186.439 326.336L187.656 326.506L187.703 326.214C187.863 326.289 187.75 326.317 187.825 326.355C188.184 326.044 189.683 326.261 189.957 325.902C190.57 325.855 191.249 326.082 191.833 326.1L191.72 326.129C192.437 326.289 193.39 326.157 193.984 325.94L193.955 326.006C194.342 326.025 195.266 325.959 195.757 325.77C196.747 325.968 196.125 326.893 197.2 326.468C198.199 326.421 198.746 325.865 198.341 325.685C200.142 325.808 202.16 325.252 203.839 325.619C204.094 325.487 203.924 325.421 204.452 325.308C207.083 325.223 209.96 324.61 212.082 324.912C211.336 325.12 212.063 325.214 212.091 325.374C212.685 325.044 212.874 325.563 213.043 325.091C212.949 324.837 212.996 324.695 212.261 324.667C213.798 324.337 216.165 324.139 217.042 324.205C216.599 324.148 216.92 324.016 217.24 323.884C217.193 324.327 218.334 324.205 219.164 323.912L219.24 323.639L219.843 323.809C220.154 323.677 220.107 323.215 221.003 323.318C221.069 323.413 221.135 323.507 221.305 323.554C221.739 323.384 222.201 323.12 222.682 322.932C222.804 323.12 224.313 321.668 222.757 323.564C223.078 326.827 223.578 325.195 223.738 325.714C223.757 325.657 223.663 325.572 223.616 325.497C223.314 325.478 222.654 325.619 223.257 325.818C221.861 325.393 220.682 325.327 220.211 324.969C217.316 325.61 213.109 325.572 209.733 325.469L209.837 325.28C208.932 325.091 209.356 325.61 208.724 325.469C209.016 325.289 208.036 325.054 208.752 324.837C207.451 324.61 207.074 325.157 206.225 325.233C206.093 325.487 206.904 325.072 206.744 325.403C206.593 325.487 204.942 325.186 204.735 325.563C204.405 325.412 204.669 325.129 204.848 324.969L204.046 325.148C203.075 324.686 206.272 324.365 205.254 323.799L204.518 323.856C203.82 323.441 206.461 323.422 204.622 323.262C203.82 323.441 203.132 323.997 203.839 324.177C202.17 324.261 203.056 325.082 201.274 325.035C200.793 324.808 202.707 324.997 202.368 324.676C201.528 324.356 200.68 324.827 199.925 324.714C200.755 324.865 200.048 325.252 199.51 325.318C198.605 325.12 200.104 324.959 198.812 324.903C198.595 325.12 197.407 325.271 198.435 325.44C197.964 325.94 197.096 325.28 196.389 325.667C195.974 325.308 197.728 324.865 196.313 324.667C196.53 325.016 194.559 325.101 195.304 325.629C194.748 325.516 194.691 325.252 195.106 325.044C194.314 324.818 193.163 325.638 192.918 324.95L192.635 325.289C192.39 325.167 192.031 325.082 191.626 324.884C190.928 324.865 189.353 325.299 189.429 324.771C189.202 324.818 187.599 324.742 188.203 325.129C189.193 325.384 189.363 324.903 189.9 325.403C189.212 324.988 188.457 325.412 187.872 325.535L187.788 325.327C187.439 325.403 186.647 325.318 186.42 325.535C186.694 325.431 186.562 325.28 186.288 325.223L185.911 325.516C184.496 325.61 185.6 324.95 184.232 324.978L185.279 324.79C185.053 324.827 184.6 324.516 183.94 324.582C183.666 324.846 183.167 325.157 182.931 325.365C182.139 325.44 182.601 325.025 181.808 325.252L182.836 324.988C183.016 324.912 182.157 324.469 181.195 324.403C180.535 324.45 179.479 324.771 180.507 325.006C179.988 324.969 179.272 324.733 179.705 324.563C178.526 324.563 179.837 324.884 178.809 324.978C178.413 324.752 177.168 324.356 176.423 324.007L177.508 323.639L176.819 323.564C177.753 323.271 176.395 323.233 176.942 322.885C176.48 322.771 175.895 322.856 175.424 322.913C176.735 323.705 173.792 323.62 174.132 324.243C172.217 324.195 173.104 322.705 171.038 323.384C171.34 323.573 170.369 323.912 171.576 323.875C170.416 323.677 170.718 324.365 169.36 323.969C170.407 323.846 168.332 323.252 169.85 323.073C169.728 323.252 170.661 323.318 170.887 323.29C170.435 323.007 171.057 322.715 169.86 322.573C169.124 322.545 168.124 322.441 168.228 322.762C168.219 323.101 169.35 322.856 168.841 323.139C167.37 323.083 167.191 322.545 166.521 323.064C167.445 323.13 167.634 323.498 167.587 323.724L166.502 323.733L166.738 323.535C165.04 323.167 166.181 323.875 164.531 323.62L163.805 323.092C164.248 322.762 166.2 323.545 165.974 322.903C164.899 322.752 164.503 323.017 163.503 322.734L164.276 322.705C163.89 322.639 163.607 321.781 162.013 322.064C161.193 322.149 161.777 322.253 161.73 322.479C159.995 322.338 159.448 322.507 158.326 322.413C158.608 321.998 156.364 322.13 157.647 321.819C158.184 322.149 160.683 322.432 161.353 322.083C160.787 321.479 162.702 322.319 163.135 321.828C161.749 321.649 161.881 321.13 161.702 320.763C161.315 320.687 160.928 320.791 160.693 320.819C160.495 321.121 160.995 321.178 160.985 321.517C159.448 321.244 157.929 321.234 157.043 321.451C156.543 321.225 156.751 320.923 157.364 320.97C155.515 320.838 153.554 320.555 151.809 320.244C152.875 320.904 149.847 320.131 150.564 320.659C151.488 320.885 152.243 321.357 151.696 321.536C151.12 321.432 151.743 321.31 151.517 321.168C150.734 321.366 150.413 320.565 149.63 320.932C151.328 320.961 150.036 320.329 150.394 319.961C149.149 320.046 150.479 319.678 149.281 319.527C148.046 319.612 146.537 319.612 145.188 319.546C143.547 318.952 140.916 319.046 139.407 318.895C138.643 318.593 139.228 318.188 138.379 318.018C137.37 317.924 139.068 318.603 137.606 318.226L137.757 318.15C137.295 318.207 135.06 317.547 134.55 318.169L135.06 317.716C134.786 317.641 134.513 317.726 134.277 317.764C134.286 317.594 133.975 317.415 134.437 317.349C133.551 316.915 132.504 317.217 131.504 317.132L132.117 317.49C130.382 317.547 129.269 317.179 127.6 317.132L127.675 316.839L126.676 316.943C126.94 316.679 126.044 316.434 125.506 316.632L128.128 316.094C128.826 316.33 127.317 316.387 127.751 316.707C128.109 316.99 129.646 317.047 129.92 316.783C129.335 316.698 129.307 316.764 128.835 316.83C128.675 316.406 129.561 316.5 130.033 316.264C129.722 316.255 129.297 316.094 129.222 316.217C129.844 316.075 130.457 316.085 131.466 316.17C130.769 316.264 131.815 316.462 131.542 316.547C131.655 316.198 132.626 316.179 133.862 316.396C134.711 316.896 136.229 316.377 137.653 316.641C137.031 316.943 136.248 317.151 135.361 317.207C136.248 317.481 136.371 317.301 137.257 317.584C137.719 317.367 138.087 316.971 139.275 316.943L139.313 317.217C140.398 317.198 140.435 316.802 141.793 317.037C144.113 317.433 146.499 317.716 148.272 317.962L148.31 318.235C149.366 317.782 151.63 318.424 152.988 318.329C155.213 318.858 157.929 318.669 159.033 319.273C163.05 319.555 166.559 319.782 170.68 320.357L169.935 320.668C170.708 320.47 170.388 320.951 171.123 320.979C170.322 320.574 172.18 320.697 172.717 320.517C174.518 321.027 176.923 320.942 178.574 320.819L178.611 321.093C180.281 320.725 182.223 321.347 184.26 321.545C184.487 321.668 184.845 321.941 185.458 321.941C186.59 321.555 187.175 321.611 188.816 321.394C190.013 321.432 191.956 321.583 193.163 321.781C197.69 321.253 202.292 321.687 207.008 321.366L207.347 321.687C211.931 321.074 217.504 321.734 221.522 321.649L221.097 322.158C222.305 322.385 224.021 322.3 223.766 321.885C224.191 322.036 224.332 321.923 225.407 322.404C225.605 322.8 226.162 322.102 226.501 324.469C225.992 326.138 225.926 325.469 225.521 326.006C224.889 326.402 224.907 326.317 224.568 326.478C223.7 326.779 223.05 326.902 222.597 326.77C221.305 326.912 221.097 327.279 220.06 327.525C217.504 327.741 216.58 327.958 214.213 328.288L214.807 328.26C215.052 328.119 215.052 327.883 214.458 327.911C213.59 328.156 211.186 328.128 212.129 328.666C209.554 328.609 206.225 329.43 203.716 329.137C203.933 329.297 203.311 329.373 203.056 329.496C200.83 329.599 198.473 329.335 196.709 329.712C196.351 329.628 197.266 329.401 196.36 329.401C195.823 329.477 196.36 329.628 195.7 329.741C192.098 330.156 188.391 329.543 185.128 329.609C179.319 329.948 173.226 329.618 167.681 329.467L167.747 329.345C165.88 329.778 163.418 328.694 161.909 329.392C161.475 329.25 160.24 329.279 160.57 329.043C159.08 329.345 156.439 328.581 154.289 328.949C154.487 328.967 154.6 328.949 154.827 328.892C152.677 328.534 150.753 328.854 148.48 328.515C148.716 328.468 149.14 328.449 149.206 328.317C148.338 328.034 147.093 328.779 146.641 328.137C146.131 328.128 146.264 328.439 146.575 328.43C141.595 327.996 136.248 328.156 131.014 327.977C127.298 327.364 130.853 326.921 127.873 327.176C127.638 327.034 127.675 327.402 127.647 327.27C126.487 327.364 125.921 326.431 125.101 326.695C125.393 327.1 124.554 326.864 124.506 327.091C122.215 326.61 121.828 326.232 119.923 326.223L120.093 326.044C118.942 326.148 117.641 325.95 116.302 325.308C115.972 325.035 115.283 324.969 114.84 323.469C114.934 321.262 116.038 321.357 116.245 320.998C117.037 320.536 117.499 320.348 117.99 320.046C130.09 318.075 141.18 318.235 152.384 317.924C163.494 317.622 174.49 316.575 186.024 317.103C188.721 317.698 188.91 317.688 191.918 317.65C191.786 317.726 191.607 317.735 191.796 317.83C191.975 317.405 193.918 317.98 194.248 317.594L197.52 318.084L199.19 318.461L199.397 318.509L199.501 318.527L199.548 318.537H199.576H199.586C199.454 317.518 200.717 327.43 200.189 323.233H200.18L199.793 323.431L199.01 323.828C196.917 324.903 194.88 325.544 192.701 326.176C193.38 325.931 193.616 325.497 192.814 325.761L192.041 326.27L191.871 326.195C191.334 326.431 190.777 326.761 191.39 326.761C180.516 329.779 169.633 329.939 158.844 330.307C156.279 330.184 152.62 330.316 149.781 330.203C147.706 329.958 145.669 329.58 143.661 329.147C142.651 328.873 141.661 328.741 140.652 328.373L139.153 327.873L138.775 327.751L138.587 327.685L138.54 327.666H138.53H138.521C137.889 320.951 138.351 325.799 138.21 324.299L138.238 324.29L138.342 324.243L139.19 323.846C144.689 323.017 146.197 322.894 152.252 322.554C152.035 322.46 150.366 323.46 147.263 324.177Z" fill="#302F2B" fill-opacity="0.53"/>
<path d="M124.478 315.661C124.761 315.896 125.695 316.075 124.931 316.321C124.837 316.104 124.365 315.849 124.478 315.661Z" fill="#302F2B" fill-opacity="0.53"/>
<path d="M149.375 320.433C149.413 320.376 149.724 320.565 149.8 320.612C149.488 320.593 149.177 320.734 148.941 320.593C149.262 320.612 149.224 320.499 149.375 320.433Z" fill="#302F2B" fill-opacity="0.53"/>
<path d="M155.769 321.338C155.647 321.517 154.26 321.508 153.449 321.432L155.769 321.338Z" fill="#302F2B" fill-opacity="0.53"/>
<path d="M161.646 322.856C162.146 323.083 161.985 323.149 161.297 323.064C161.259 322.96 161.495 322.932 161.646 322.856Z" fill="#302F2B" fill-opacity="0.53"/>
<path d="M162.126 322.47C162.626 322.526 162.852 322.668 163.088 322.809C163.088 322.639 161.919 322.771 162.126 322.47Z" fill="#302F2B" fill-opacity="0.53"/>
<path d="M175.066 324.544C175.378 324.563 176.075 324.478 176.349 324.714C176.038 324.535 174.793 324.799 175.066 324.544Z" fill="#302F2B" fill-opacity="0.53"/>
<path d="M181.225 324.818C181.338 324.837 181.479 324.884 181.706 324.846C182.073 324.959 181.668 325.072 181.347 325.063C181.281 324.988 181.319 324.912 181.225 324.818Z" fill="#302F2B" fill-opacity="0.53"/>
<path d="M158.006 325.488L158.666 325.412L158.562 325.601L158.006 325.488Z" fill="#302F2B" fill-opacity="0.53"/>
<path d="M123.119 323.083C123.751 322.903 123.581 323.224 123.685 323.243C123.119 323.309 123.883 322.979 123.119 323.083Z" fill="#302F2B" fill-opacity="0.53"/>
<path d="M149.065 321.329H148.857L148.933 320.932L149.065 321.329Z" fill="#302F2B" fill-opacity="0.53"/>
<path d="M132.551 181.063C132.551 181.063 111.643 178.498 99.8638 171.783C99.8638 171.783 98.9396 170.868 96.5819 168.916C94.2147 166.964 90.7253 165.908 90.7253 165.908C90.7253 165.908 87.8867 166.898 85.4063 167.662C82.926 168.426 76.5413 168.916 76.5413 168.916C76.5413 168.916 75.0984 174.773 75.5416 175.348C75.9849 175.923 79.314 179.29 81.4737 181.45C83.6333 183.609 89.5748 185.495 92.0739 184.071C95.3936 182.185 99.5998 181.101 103.844 182.845C111.36 185.939 139.549 197.143 139.549 197.143L132.551 181.063Z" fill="#F39200"/>
<path d="M167.153 71.533C167.153 71.533 155.949 64.2618 135.23 62.602C126.591 61.9135 120.329 66.148 107.494 72.759C97.5063 77.9083 54.3601 88.4237 49.0505 89.3856C39.9309 91.0455 10.582 98.0338 10.582 104.664C10.582 111.294 18.0041 117.112 35.4041 125.402C52.804 133.692 110.813 141.972 124.073 170.152C137.333 198.322 146.443 246.381 148.103 266.271C149.763 286.151 155.563 311.021 155.563 311.021C155.563 311.021 127.11 310.162 131.259 315.953C135.4 321.753 146.33 316.075 146.33 316.075C146.33 316.075 143.133 323.441 146.443 324.271C149.763 325.101 153.988 317.83 153.988 317.83C153.988 317.83 153.073 323.582 159.703 324.337C166.333 325.091 167.823 320.885 166.172 313.425C164.513 305.966 164.843 278.305 165.38 277.862C166.154 277.239 206.942 277.862 206.942 277.862L209.762 310.162C209.762 310.162 187.882 315.151 190.372 318.461C192.862 321.772 203.358 316.943 203.358 316.943C203.358 316.943 195.342 322.922 200.322 324.422C205.292 325.921 210.149 321.083 210.149 321.083C207.517 332.268 223.71 325.987 221.041 315.972V274.542C221.041 274.542 237.517 300.911 268.271 301.052C306.57 301.222 357.148 268.817 373.652 251.521C390.627 233.744 384.158 238.591 363.561 243.873C335.051 251.182 312.587 247.258 298.091 243.033C287.387 239.921 272.638 235.357 257.284 238.997C244.534 242.015 226.747 256.435 226.747 256.435C226.747 256.435 231.425 210.308 197.077 164.238C190.476 155.383 195.653 139.596 195.653 139.596C195.653 139.596 198.992 139.86 202.595 140.51C208.536 141.576 213.591 149.404 211.111 142.774C208.63 136.144 199.511 130.344 199.511 130.344C199.511 130.344 202.151 126.072 214.987 127.1C223.371 127.769 204.273 115.688 204.273 115.688C204.273 115.688 214.317 114.01 221.032 113.34C224.436 113.001 200.954 101.872 200.954 101.872C200.954 101.872 200.284 100.712 200.473 94.2614C200.576 91.0643 199.52 81.4543 199.52 81.4543L167.153 71.533Z" fill="#F39200"/>
<path d="M125.326 176.433C137.737 202.811 144.754 232.15 145.603 263.291C154.77 263.47 176.008 262.546 184.769 263.291C185.486 257.613 184.09 251.663 184.09 245.721C184.09 188.297 156.609 157.42 109.454 146.093C100.787 144.009 83.2931 138.917 79.3887 139.756C95.572 146.056 119.423 163.88 125.326 176.433Z" fill="white"/>
<path d="M18.4375 96.44C8.77085 99.1843 -4.59269 102.532 3.14062 108.964C12.4583 116.726 29.3867 122.413 29.3867 122.413C29.3867 122.413 32.6781 100.571 30.3581 93.6295C30.3487 93.6295 21.9458 95.4403 18.4375 96.44Z" fill="black"/>
<path d="M163.296 103.73C163.296 111.294 156.807 120.045 146.726 118.546C140.134 117.565 132.966 110.228 135.843 101.137C138.502 92.7431 145.453 90.0553 152.413 90.6211C157.901 91.0549 163.296 96.1665 163.296 103.73Z" fill="white"/>
<path d="M118.772 84.3495C118.772 89.8289 114.038 95.2988 107.993 95.2988C103.457 95.2988 97.2607 90.1967 99.8825 82.8595C102.287 76.1353 106.871 74.7018 110.766 75.4185C115.519 76.2861 118.772 79.7284 118.772 84.3495Z" fill="white"/>
<path d="M142 104.087C142 105.379 143.047 106.416 144.339 106.416C145.621 106.416 146.668 105.379 146.668 104.087C146.668 102.804 145.621 101.758 144.339 101.758C143.047 101.758 142 102.804 142 104.087Z" fill="black"/>
<path d="M102.326 83.3108C102.326 84.3765 103.194 85.2347 104.25 85.2347C105.306 85.2347 106.174 84.3765 106.174 83.3108C106.174 82.2546 105.316 81.3963 104.25 81.3963C103.194 81.3869 102.326 82.2546 102.326 83.3108Z" fill="black"/>
<path d="M144.754 249.965C144.754 249.965 185.005 250.71 199.227 249.965C213.448 249.22 227.255 244.835 227.255 244.835C227.255 244.835 227.783 259.056 227.255 270.666C226.661 283.784 224.398 294.903 224.398 294.903C224.398 294.903 201.056 291.48 196.68 292.102L195.303 284.699L167.143 282.511V290.537H145.763L144.754 249.965Z" fill="#00A0A4"/>
<path d="M200.992 172.472C200.992 172.472 212.818 177.517 219.901 181.516C226.983 185.514 236.914 187.316 239.347 187.042C241.78 186.759 245.902 179.309 248.259 180.78C250.617 182.251 247.967 186.693 247.967 186.693C247.967 186.693 254.371 186.222 255.889 188.749C258.152 192.503 250.174 192.974 249.221 193.917C248.354 194.766 256.747 198.057 252.39 203.376C249.749 206.602 244.251 202.782 232.085 196.822C214.11 188.014 195.314 179.252 195.314 179.252" fill="#F39200"/>
<path d="M190.277 246.061C190.277 246.061 180.176 195.077 185.646 184.826C193.106 170.84 203.565 170.086 203.565 170.086L200.934 166.36C200.934 166.36 186.853 169.199 178.922 185.099C173.301 196.379 181.836 246.061 181.836 246.061H190.277Z" fill="black"/>
<path d="M147.179 246.711C147.179 246.711 141.633 206.159 136.258 195.851C133.466 190.475 130.335 186.882 130.335 186.882L127.346 180.639C127.346 180.639 133.447 181.139 141.294 193.54C148.028 204.188 153.894 246.061 153.894 246.061L147.179 246.711Z" fill="black"/>
<path d="M182.204 251.068L190.89 250.323L190.277 245.136L181.516 246.061L182.204 251.068Z" fill="#454444"/>
<path d="M154.695 245.089H146.527V250.286H154.695V245.089Z" fill="#454444"/>
<path d="M129.722 131.919C133.098 129.137 134.871 137.191 146.876 137.096C154.93 137.04 160.485 127.835 164.012 131.07C168.963 135.625 162.692 147.319 148.414 148.772C137.191 149.913 124.987 135.814 129.722 131.919Z" fill="white"/>
<path d="M145.811 135.229L147.027 148.81" stroke="black" stroke-width="1.69"/>
<path d="M155.1 132.532L157.731 148.593" stroke="black" stroke-width="1.69"/>
<path d="M138.303 133.616L135.682 146.48" stroke="black" stroke-width="1.69"/>
<path d="M370.822 241.628C342.227 251.163 316.396 248.013 301.137 243.863C306.994 249.352 317.009 260.499 313.982 260.396C309.71 260.245 291.489 266.422 296.62 266.601C301.759 266.78 314.236 269.496 314.236 269.496C314.236 269.496 299.581 279.955 301.269 280.766C302.948 281.587 320.234 277.654 320.234 277.654C320.234 277.654 319.15 283.077 319.131 287.613C344.67 278.286 359.637 264.442 370.218 255.312C388.787 239.308 388.41 235.772 370.822 241.628Z" fill="white"/>
<path d="M117.774 57.83C103.165 53.1145 103.873 24.6333 123.093 20.8515C140.738 17.3716 162.702 25.9819 178.518 34.1019C187.072 38.4967 228.775 43.91 238.149 65.469C251.579 96.3551 208.131 110.247 202.387 94.7613C202.387 94.7613 175.377 71.9951 148.396 64.6768C133.146 60.5461 117.774 57.83 117.774 57.83Z" fill="#00A0A4"/>
<path d="M182.941 80.6055C182.941 80.6055 193.08 63.4885 199.417 58.1223C201.473 56.3776 206.245 52.577 206.245 52.577L208.075 62.9321L214.356 46.9279C214.356 46.9279 216.76 44.9097 229.2 41.7221L241.639 38.525L240.988 49.8232L250.127 35.6675C250.127 35.6675 258.52 35.2619 269.055 36.6766C279.589 38.0818 298.47 40.3169 298.47 40.3169C298.47 40.3169 280.192 49.9835 274.251 54.8781C268.31 59.7728 264.386 61.1214 264.386 61.1214L250.58 52.3224L260.859 63.5828L235.028 70.7691L222.523 61.5552L230.02 71.8348C230.02 71.8348 205.906 78.1818 200.917 78.1724C195.928 78.1724 182.941 80.6055 182.941 80.6055Z" fill="#DAD8CC"/>
<path d="M118.274 66.7138C118.274 66.7138 138.626 68.2604 161.91 78.1346C182.771 86.9807 191.957 95.61 200.907 101.891C209.046 104.673 208.037 94.5443 208.037 94.5443C208.037 94.5443 191.552 80.0773 168.154 70.8445C140.106 59.7821 131.732 59.0088 118.557 58.1034C111.153 62.9131 118.274 66.7138 118.274 66.7138Z" fill="#007572"/>
<path d="M186.807 77.7668C186.807 77.7668 209.318 63.6677 229.142 56.3022C257.576 45.7396 284.444 43.1744 284.444 43.1744" stroke="#B9B5A3" stroke-width="1.268" stroke-miterlimit="10" stroke-linecap="round" stroke-linejoin="round"/>
<path d="M222.428 56.3022L226.728 45.6548" stroke="#B9B5A3" stroke-width="1.268" stroke-miterlimit="10" stroke-linecap="round" stroke-linejoin="round"/>
<path d="M247.212 63.5544L239.092 57.0283" stroke="#B9B5A3" stroke-width="1.268" stroke-miterlimit="10" stroke-linecap="round" stroke-linejoin="round"/>
<path d="M218.532 72.759L211.902 67.1854" stroke="#B9B5A3" stroke-width="1.268" stroke-miterlimit="10" stroke-linecap="round" stroke-linejoin="round"/>
<path d="M272.666 155.505C272.666 155.505 305.495 104.767 329.732 52.2846C338.078 34.2056 346.51 -0.000137329 346.51 -0.000137329C346.51 -0.000137329 325.639 25.3217 315.425 44.4947C287.887 96.1759 266.828 152.29 266.828 152.29L272.666 155.505Z" fill="#DAD8CC"/>
<path d="M243.383 170.312C243.383 170.312 231.613 172.047 227.219 182.525C219.532 200.849 239.658 209.318 239.658 209.318" stroke="#FBBA00" stroke-width="1.746"/>
<path d="M260.914 180.893C260.914 180.893 261.141 186.043 257.557 193.54C253.577 201.858 242.713 211.93 242.713 211.93L238.082 210.45C238.082 210.45 240.487 196.473 244.618 188.098C248.748 179.724 254.03 177.14 254.03 177.14L260.914 180.893Z" fill="#E30613"/>
<path d="M226.267 154.388L225.49 155.758L291.195 192.99L291.971 191.62L226.267 154.388Z" fill="#FBBA00"/>
<path d="M224.964 151.592C223.351 151.78 222.201 153.242 222.389 154.855C222.578 156.467 224.049 157.618 225.652 157.429C227.265 157.241 228.416 155.779 228.227 154.166C228.038 152.554 226.577 151.403 224.964 151.592Z" fill="#FFDE00"/>
<path d="M292.669 189.768C291.056 189.956 289.906 191.428 290.094 193.031C290.283 194.643 291.745 195.794 293.358 195.605C294.97 195.417 296.121 193.955 295.932 192.342C295.744 190.73 294.282 189.579 292.669 189.768Z" fill="#FFDE00"/>
<path d="M282.851 167.398C284.539 174.49 282.87 181.591 278.871 187.042C273.052 186.571 267.243 185.184 261.622 182.808C251.776 178.63 243.732 171.925 237.818 163.663C240.657 156.92 246.551 151.582 254.209 149.753C266.979 146.706 279.805 154.609 282.851 167.398Z" fill="#FBBA00"/>
<path d="M237.507 209.554C234.668 210.233 232.914 213.081 233.593 215.92C234.272 218.758 237.12 220.512 239.95 219.833C242.788 219.154 244.543 216.306 243.864 213.468C243.194 210.629 240.346 208.875 237.507 209.554Z" fill="#FFDE00"/>
<path d="M272.779 146.018L333.759 25.1898" stroke="#B9B5A3" stroke-width="1.817" stroke-miterlimit="10" stroke-linecap="round" stroke-linejoin="round"/>
<path d="M71.7036 170.406C71.845 168.341 76.9943 162.729 78.9842 166.464C80.9741 170.199 77.0131 174.433 77.0131 174.433C77.0131 174.433 85.7273 166.926 86.991 171.557C88.2547 176.178 82.483 179.724 82.483 179.724C82.483 179.724 88.8866 176.536 92.9136 176.838C95.658 177.045 94.2056 187.551 86.029 185.137C77.8619 182.723 71.3452 175.527 71.7036 170.406Z" fill="#FAB415"/>
<path d="M254.756 185.533C252.634 188.183 256.783 193.719 256.783 193.719C256.783 193.719 252.926 188.495 251.474 190.475C249.088 193.738 253.605 198.406 253.605 198.406C253.605 198.406 249.729 194.304 248.663 196.171C247.249 198.642 249.597 204.772 251.86 204.15C254.124 203.527 256.331 199.925 259.075 196.284C264.724 188.796 256.878 182.883 254.756 185.533Z" fill="#F39200"/>
</svg>
