<svg width="592" height="219" viewBox="0 0 592 219" fill="none" xmlns="http://www.w3.org/2000/svg">
<path d="M0.0429656 86.2836C-0.50781 137.765 9.29839 152.267 71.6798 157.45C105.507 160.261 490.902 159.425 529.695 157.228C568.487 155.031 573.536 125.64 573.398 96.9427C573.266 69.1119 555.236 35.4332 521.702 35.4526C481.268 30.5497 108.849 31.4677 57.3516 35.6787C5.85408 39.8897 0.359623 56.6975 0.0429656 86.2836Z" fill="#EE1D23"/>
<path d="M104.999 144.575C104.999 144.575 107.379 169.788 115.714 183.115C131.357 208.136 147.113 218.699 147.113 218.699C147.113 218.699 129.48 198.435 131.714 173.438C132.642 163.084 131.715 140 131.715 140L104.999 144.575Z" fill="#EE1D23"/>
<path d="M569.946 59.6849C569.946 59.6849 564.164 66.5279 563.204 66.7915C562.243 67.0551 560.661 65.1601 560.661 65.1601" stroke="black" stroke-width="0.698" stroke-miterlimit="10" stroke-linecap="round" stroke-linejoin="round"/>
<path d="M564.572 53.858C564.572 53.858 557.78 60.0208 556.801 60.1649C555.817 60.3005 554.142 57.7995 554.142 57.7995" stroke="black" stroke-width="0.698" stroke-miterlimit="10" stroke-linecap="round" stroke-linejoin="round"/>
<path d="M556.677 45.1375C556.677 45.1375 551.613 52.6122 550.679 52.9539C549.744 53.2955 547.427 51.0542 547.427 51.0542" stroke="black" stroke-width="0.698" stroke-miterlimit="10" stroke-linecap="round" stroke-linejoin="round"/>
<path d="M559.511 18.145C559.511 18.145 562.71 7.67278 562.165 6.84667C561.619 6.02056 557.812 6.50397 557.812 6.50397" stroke="black" stroke-width="0.698" stroke-miterlimit="10" stroke-linecap="round" stroke-linejoin="round"/>
<path d="M554.708 16.8822C554.708 16.8822 554.682 5.93367 553.915 5.29854C553.147 4.6634 549.66 6.24981 549.66 6.24981" stroke="black" stroke-width="0.698" stroke-miterlimit="10" stroke-linecap="round" stroke-linejoin="round"/>
<path d="M560.203 35.2629C563.453 33.7341 567.009 40.3064 565.789 44.7019C569.419 45.9163 572.268 48.0043 574.742 51.3351C576.521 53.5548 579.192 58.9965 576.332 61.4989C574.022 63.7652 568.418 61.1356 565.996 59.6528C563.287 58.0218 559.221 52.5767 560.349 48.8122C553.412 49.1868 551.379 34.3206 560.203 35.2629Z" fill="#814114"/>
<path d="M564.046 22.932C568.996 33.1163 556.672 42.7335 547.17 33.6098C545.288 31.7299 541.05 22.6819 548.223 18.2138C552.816 15.3535 559.956 14.538 564.046 22.932Z" fill="#A85318"/>
<path d="M551 20.4301C555.752 20.5262 557.356 28.4434 551.127 28.5508C548.738 28.5942 546.911 26.3933 547.165 23.9671C547.418 21.4466 549.264 20.3968 551 20.4301Z" fill="white"/>
<path d="M550.472 23.2602C551.466 23.2135 551.848 24.764 550.653 24.941C550.055 25.0295 549.735 24.5339 549.692 24.0617C549.651 23.6479 550.011 23.2841 550.472 23.2602Z" fill="black"/>
<path d="M552.229 33.664C550.981 34.1842 549.439 33.6211 548.786 32.6853" stroke="black" stroke-width="0.698" stroke-miterlimit="10" stroke-linecap="round" stroke-linejoin="round"/>
</svg>
