<svg width="482" height="216" viewBox="0 0 482 216" fill="none" xmlns="http://www.w3.org/2000/svg">
<path d="M326.878 198.012L342.499 197.171L332.014 26.2919L314.077 26.9663L326.878 198.012Z" fill="black"/>
<path d="M454.651 44.0105L464.486 51.165L196.999 118.345L189.986 108.333L188.549 51.9591L454.651 44.0105Z" fill="#BA2026"/>
<path d="M464.496 51.7919L464.988 111.283L197.681 118.351L198.073 60.3982L464.496 51.7919Z" fill="#ED1C24"/>
<path d="M170.116 43.5602C172.018 46.6189 176.987 46.8168 180.355 44.8673C182.991 43.3484 184.169 38.5436 180.172 35.3264C177.276 33.0575 174.115 33.2214 171.502 34.8962C168.866 36.4151 168.191 40.3456 170.116 43.5602Z" fill="white"/>
<path d="M176.841 38.5463C177.247 39.1221 177.031 39.7931 176.456 40.1999C175.881 40.6067 175.21 40.3901 174.804 39.8143C174.397 39.2385 174.613 38.5675 175.188 38.1607C175.764 37.7539 176.434 37.9705 176.841 38.5463Z" fill="black"/>
<path d="M155.635 132.368C155.635 132.368 163.791 132.558 169.228 132.685C174.533 132.991 178.651 134.914 179.907 135.838C181.188 136.919 183.626 142.447 186.106 140.952C187.724 140.067 186.685 136.398 186.685 136.398C186.685 136.398 189.523 137.241 191.296 136.332C193.801 134.992 188.69 131.786 188.69 131.786C188.69 131.786 196.03 132.898 195.34 128.378C194.935 125.729 190.134 124.548 180.995 126.263C172.167 127.93 156.926 123.081 156.926 123.081" fill="#F7941E"/>
<path d="M119.399 126.738C119.399 126.738 111.671 129.354 106.52 131.097C101.524 132.817 97.9061 134.167 97.0065 135.58C96.1069 136.993 95.6921 144.712 92.9022 144.181C91.0942 143.819 90.9902 140.007 90.9902 140.007C90.9902 140.007 88.5334 141.658 86.5697 141.32C83.7798 140.789 87.7005 136.204 87.7005 136.204C87.7005 136.204 81.0266 139.456 80.3365 134.936C79.9319 132.287 84.162 129.727 93.4204 128.792C102.344 127.748 115.442 118.571 115.442 118.571" fill="#F7941E"/>
<path fill-rule="evenodd" clip-rule="evenodd" d="M151.173 38.479C137.793 41.6386 129.261 46.2905 129.261 46.2905C129.261 46.2905 125.338 41.4674 120.911 37.5186C114.425 32.6084 101.677 25.3053 101.677 25.3053C101.677 25.3053 101.959 31.3225 103.415 36.6819C104.87 42.0413 109.504 55.6868 109.504 55.6868C109.504 55.6868 109.856 62.1715 110.166 64.1975C110.964 68.3815 110.616 69.2321 110.616 69.2321C110.616 69.2321 96.4747 78.887 98.6785 78.71C103.11 78.5117 109.816 78.6039 109.816 78.6039C109.816 78.6039 98.5731 88.4543 103.952 87.1545C112.265 85.247 114.406 87.7907 114.406 87.7907C114.406 87.7907 109.06 92.4345 108.169 97.0359C107.686 99.5311 108.196 99.0142 109.369 97.824C110.359 96.8193 111.823 95.3348 113.561 94.7773C115.825 93.9531 117.981 93.4643 117.981 93.4643C117.981 93.4643 122.978 103.227 119.498 109.659C101.645 143.005 112.814 176.832 112.814 176.832C112.814 176.832 147.185 172.088 157.665 171.768C156.78 158.667 156.149 130.536 166.939 106.242C173.155 92.522 193.33 82.3514 207.775 75.0689C212.993 72.4386 217.463 70.185 220.258 68.2771C230.792 61.0867 235.048 56.6093 234.382 52.2457C233.715 47.8821 213.872 46.2874 207.789 46.1001C207.586 46.0943 207.331 46.0876 207.028 46.0797C202.066 45.9502 184.365 45.4883 177.708 43.1982C168.812 40.2507 156.708 37.1554 151.173 38.479Z" fill="#F7941E"/>
<path d="M169.05 105.441C157.721 129.339 157.173 150.792 159.931 170.944C153.882 172.027 146.624 172.498 140.779 173.869C139.74 170.2 140.056 166.005 139.461 162.109C133.606 123.771 145.569 100.893 174.323 88.8474C176.875 87.8198 191.456 82.0847 194.019 82.1718C183.917 88.0203 173.022 97.0201 169.05 105.441Z" fill="white"/>
<path d="M228.592 47.7076C235.083 48.4707 244.136 49.3209 239.796 54.2896C234.484 60.204 224 65.6325 224 65.6325C224 65.6325 216.445 51.6358 217.312 46.8786C217.312 46.8786 226.162 47.4409 228.592 47.7076Z" fill="black"/>
<path d="M153.321 38.9484C153.321 38.9484 146.19 31.9039 142.434 28.1717C138.677 24.4395 128.457 15.953 128.086 16.6477C127.714 17.3424 126.488 21.8355 128.205 28.9092C129.923 35.9829 132.884 44.9399 132.884 44.9399L153.321 38.9484Z" fill="#F7941E"/>
<path d="M123.668 50.3342C123.668 50.3342 110.6 39.8905 110.527 41.4964C110.453 43.1024 112.645 55.3666 112.645 55.3666C112.645 55.3666 116.719 52.8306 118.252 52.437C119.738 51.7317 123.668 50.3342 123.668 50.3342Z" fill="white"/>
<path d="M135.281 30.3804C134.275 30.0555 134.31 31.3261 134.511 33.6875C134.868 36.0252 135.82 42.2589 135.82 42.2589L144.231 38.9013C144.255 39.0572 136.287 30.7053 135.281 30.3804Z" fill="white"/>
<path d="M145.611 57.3494C146.397 62.4922 152.392 67.3179 158.465 66.3905C162.981 65.701 167.381 60.0851 163.687 53.6322C160.399 47.7551 156.472 47.0791 151.896 48.4158C147.475 49.7288 144.826 52.2065 145.611 57.3494Z" fill="white"/>
<path d="M154.065 58.4506C154.208 59.3856 153.68 60.1041 152.746 60.2468C151.812 60.3895 151.07 59.7054 150.951 58.9261C150.808 57.9911 151.491 57.2488 152.27 57.1299C153.204 56.9873 153.922 57.5155 154.065 58.4506Z" fill="black"/>
<path d="M147.392 159.781C147.392 159.781 143.85 132.414 133.202 121.122C128.836 116.526 115.377 113.956 115.377 113.956L116.709 111.201C116.709 111.201 129.019 112.511 137.562 120.456C146.668 128.953 152.818 158.793 152.818 158.793L147.368 159.626L147.392 159.781Z" fill="black"/>
<path d="M153.341 162.222L147.891 163.054L147.32 159.314L152.925 158.458L153.341 162.222Z" fill="#48484A"/>
<path d="M172.695 77.1353C172.695 77.1353 173.394 84.8429 169.142 85.1733C164.89 85.5036 163.341 77.4473 163.341 77.4473" stroke="black" stroke-width="1.0136" stroke-linecap="round"/>
<path d="M84.8571 70.6142C84.8571 70.6142 50.5025 29.2928 48.7271 32.275C45.1525 38.0837 54.4007 84.0364 54.4007 84.0364C54.4007 84.0364 65.4508 100.051 76.5105 94.2157C87.3668 88.0925 84.8571 70.6142 84.8571 70.6142Z" fill="#E1D7D7"/>
<path d="M84.8538 70.6144C84.8538 70.6144 84.6661 78.7765 80.929 79.3472C77.5033 79.8703 74.8494 75.0128 74.8494 75.0128C74.8494 75.0128 75.3689 82.5884 72.3974 83.9991C68.5393 85.8641 63.887 79.398 63.887 79.398C63.887 79.398 65.0293 86.8785 61.1603 87.6288C57.1118 88.2471 54.2417 84.0605 54.2417 84.0605L94.6956 170.54L116.575 159.384L84.8538 70.6144Z" fill="#ED1C24"/>
<path d="M116.735 159.36C116.735 159.36 118.688 170.065 108.911 174.908C99.1339 179.75 94.9874 170.336 94.9874 170.336L116.735 159.36Z" fill="black"/>
<path d="M67.188 49.8691C63.7603 52.4657 59.6145 54.5341 55.0146 55.715C53.1698 56.1562 51.457 56.4178 49.7203 56.5235C48.2101 45.5906 46.7128 33.6989 48.3801 31.0521C49.1002 29.5069 58.515 40.03 67.188 49.8691Z" fill="#ED1C24"/>
<path d="M76.8188 132.762C76.6005 135.507 76.7154 140.433 78.8458 141.862C80.1023 142.786 87.3453 145.348 88.3422 142.485C88.8828 140.808 85.6992 138.742 85.6992 138.742C85.6992 138.742 88.3592 137.379 89.0317 135.522C90.0523 132.815 84.0271 134.054 84.0271 134.054C84.0271 134.054 90.0911 129.938 86.609 126.961C84.4548 125.376 82.2035 125.242 76.8188 132.762Z" fill="#F7941E"/>
<g opacity="0.8">
<g opacity="0.8">
<path opacity="0.8" d="M23.8995 191.079C19.2193 188.604 15.4972 186.143 12.6488 184.186C0.550181 174.87 3.99761 176.576 16.152 177.909" stroke="#D3D2C2" stroke-width="0.2318" stroke-linecap="round"/>
</g>
</g>
</svg>
