<svg width="156" height="128" viewBox="0 0 156 128" fill="none" xmlns="http://www.w3.org/2000/svg">
<path d="M52.1943 102.155C50.4015 105.42 37.3412 109.516 32.877 112.532C37.3293 112.853 44.2038 111.464 48.5256 110.811C51.945 110.229 54.8539 109.089 58.2258 108.733C58.8195 108.84 54.284 102.298 52.1943 102.155Z" fill="black"/>
<g opacity="0.6">
<g opacity="0.6">
<path opacity="0.6" d="M93.7125 82.4341C96.1821 76.177 96.6808 55.138 74.2171 24.7668C69.2898 18.1061 46.7192 -2.71921 40.8183 0.296531C38.04 1.72129 26.82 11.4453 49.0225 46.9219C57.6542 60.7183 76.7698 74.2654 91.1005 81.1874C92.6796 81.876 93.3682 82.6359 93.7125 82.4341Z" fill="#6F6C5F"/>
</g>
</g>
<path d="M93.0515 81.9591C85.5952 63.8884 69.4242 53.4164 56.9219 58.5693C44.4315 63.7222 40.3353 82.5528 47.7916 100.624C55.2478 118.694 71.4189 129.166 83.9093 124.013C96.4234 118.849 100.508 100.03 93.0515 81.9591Z" fill="#FFDE00"/>
<path d="M103.072 83.004C96.2927 66.5717 80.6678 57.4176 68.1774 62.5824C55.6751 67.7352 51.0446 85.2361 57.8241 101.668C64.5917 118.101 80.2285 127.255 92.7189 122.102C105.209 116.949 109.852 99.4481 103.072 83.004Z" fill="black"/>
<path d="M114.897 75.6546C107.453 57.5839 91.2702 47.1118 78.7679 52.2647C66.2656 57.4176 62.1813 76.2482 69.6257 94.319C77.0819 112.39 93.253 122.862 105.743 117.709C118.258 112.556 122.342 93.7253 114.897 75.6546Z" fill="#FFDE00"/>
<path d="M129.274 68.044C121.818 49.9732 105.647 39.5012 93.1448 44.6541C80.6426 49.807 76.5582 68.6376 84.0026 86.7083C91.4589 104.779 107.63 115.251 120.132 110.098C132.634 104.945 136.719 86.1147 129.274 68.044Z" fill="black"/>
<path d="M114.908 50.9587C114.908 50.9587 105.908 32.4012 106.68 30.6915C107.463 28.9818 114.67 28.7918 114.67 28.7918" stroke="black" stroke-width="1.107" stroke-miterlimit="10" stroke-linecap="round" stroke-linejoin="round"/>
<path d="M127.717 49.4389C127.717 49.4389 124.594 29.0411 125.841 27.6519C127.087 26.2509 134.045 28.1981 134.045 28.1981" stroke="black" stroke-width="1.107" stroke-miterlimit="10" stroke-linecap="round" stroke-linejoin="round"/>
<g opacity="0.6">
<g opacity="0.6">
<path opacity="0.6" d="M90.493 79.9882C91.336 80.0951 87.2991 73.3037 86.6343 71.7958C80.8758 62.7961 73.7402 55.6367 65.4053 48.8928C52.3806 38.4445 37.3375 30.0266 20.6322 28.5543C15.8474 27.9725 1.39789 25.2299 0.448052 30.3828C-5.80903 64.2208 54.9452 85.3786 90.493 79.9882Z" fill="#6F6C5F"/>
</g>
</g>
<path d="M97.8701 71.6652C98.44 57.8094 103.712 52.3478 111.382 48.6553C121.319 43.5499 141.195 43.7993 149.375 55.9097C163.053 76.1651 154.647 101.3 127.743 103.414C105.445 105.159 97.5971 78.4803 97.8701 71.6652Z" fill="#FFDE00"/>
<path d="M118.85 71.9027C113.97 75.3577 107.903 71.9027 106.323 67.6403C104.673 63.1642 107.392 57.7976 112.771 57.1327C119.752 56.2778 126.401 66.5717 118.85 71.9027Z" fill="white"/>
<path d="M117.496 67.3672C116.57 68.1152 115.394 67.5216 115.074 66.6786C114.741 65.7881 115.287 64.7314 116.344 64.5889C117.745 64.4227 118.659 66.4411 117.496 67.3672Z" fill="black"/>
<path d="M144.829 67.0585C139.866 69.6587 135.58 66.9398 134.107 62.9267C132.552 58.7237 135.105 53.6895 140.163 53.0721C146.705 52.2647 151.323 63.6628 144.829 67.0585Z" fill="white"/>
<path d="M144.827 62.6655C143.996 63.3779 142.891 62.8673 142.607 62.0837C142.298 61.2645 142.796 60.279 143.782 60.1603C145.064 59.9941 145.967 61.6919 144.827 62.6655Z" fill="black"/>
<path d="M104.945 107.379C104.945 107.379 101.976 113.969 100.647 117.186C98.6518 122.054 95.6836 124.001 95.6836 124.001" stroke="black" stroke-width="1.107" stroke-miterlimit="10" stroke-linecap="round" stroke-linejoin="round"/>
<path d="M90.2016 111.369C90.2016 111.369 88.9906 116.094 87.6608 119.312C85.6661 124.18 81.2969 126.78 81.2969 126.78" stroke="black" stroke-width="1.107" stroke-miterlimit="10" stroke-linecap="round" stroke-linejoin="round"/>
<path d="M77.068 112.176C77.068 112.176 75.1208 116.64 73.3042 119.608C70.5497 124.096 65.8242 125.961 65.8242 125.961" stroke="black" stroke-width="1.107" stroke-miterlimit="10" stroke-linecap="round" stroke-linejoin="round"/>
<path d="M122.342 80.7837C122.342 80.7837 127.174 85.6398 134.155 83.6214C133.728 86.3759 132.327 92.0274 128.171 91.7662C122.674 91.41 122.342 80.7837 122.342 80.7837Z" fill="black"/>
</svg>
