<svg width="170" height="478" viewBox="0 0 170 478" fill="none" xmlns="http://www.w3.org/2000/svg">
<path d="M60.4024 25.3954C60.4024 36.1447 51.6849 44.8485 40.9493 44.8485C30.2136 44.8485 21.4961 36.131 21.4961 25.3954C21.4961 14.646 30.1999 5.9422 40.9493 5.9422C51.6986 5.9422 60.4024 14.646 60.4024 25.3954Z" fill="#2FAC66"/>
<path d="M106.516 20.4532C106.516 31.2025 97.7982 39.9063 87.0625 39.9063C76.3132 39.9063 67.6094 31.1888 67.6094 20.4532C67.6094 9.70381 76.3132 1 87.0625 1C97.7982 1 106.516 9.71754 106.516 20.4532Z" fill="#2FAC66"/>
<path d="M87.0499 62.6818C87.0499 73.4312 78.3323 82.135 67.5967 82.135C56.8611 82.135 48.1436 73.4174 48.1436 62.6818C48.1436 51.9325 56.8474 43.2286 67.5967 43.2286C78.3461 43.2286 87.0499 51.9325 87.0499 62.6818Z" fill="#2FAC66"/>
<path d="M132.285 57.8493C132.285 68.5987 123.568 77.3025 112.832 77.3025C102.083 77.3025 93.3789 68.585 93.3789 57.8493C93.3789 47.1 102.096 38.3962 112.832 38.3962C123.568 38.3962 132.285 47.1 132.285 57.8493Z" fill="#2FAC66"/>
<path d="M164.906 19.4532C164.906 30.2025 156.189 38.9063 145.453 38.9063C134.718 38.9063 126 30.1888 126 19.4532C126 8.70384 134.718 0 145.453 0C156.189 0 164.906 8.70384 164.906 19.4532Z" fill="#2FAC66"/>
<path d="M40.9494 66.8827C40.9494 77.632 32.2318 86.3358 21.4825 86.3358C10.7331 86.3358 2.0293 77.6183 2.0293 66.8827C2.0293 56.1333 10.7469 47.4295 21.4825 47.4295C32.2456 47.4158 40.9494 56.1333 40.9494 66.8827Z" fill="#2FAC66"/>
<path d="M35.5674 17.2544C35.5674 17.1034 35.6635 17.0073 35.8145 17.0073H41.7726C45.1498 17.0073 46.8384 18.7371 46.8384 21.4278C46.8384 23.3773 45.9049 24.5717 44.5869 25.0933V25.1345C45.7264 25.4503 47.1404 26.7682 47.1404 29.0197C47.1404 32.1635 45.1635 33.8109 41.6491 33.8109H35.8145C35.6635 33.8109 35.5674 33.7148 35.5674 33.5638V17.2544ZM41.7177 24.2696C43.571 24.2696 44.6556 23.1988 44.6556 21.6475C44.6556 20.0413 43.571 18.9979 41.7177 18.9979H37.915C37.8189 18.9979 37.7639 19.0528 37.7639 19.1489V24.1186C37.7639 24.2147 37.8189 24.2696 37.915 24.2696H41.7177ZM37.915 31.8065H41.8413C43.8456 31.8065 44.9302 30.722 44.9302 29.0334C44.9302 27.3723 43.8456 26.2603 41.8413 26.2603H37.915C37.8189 26.2603 37.7639 26.3014 37.7639 26.4113V31.6555C37.7639 31.7654 37.8189 31.8065 37.915 31.8065Z" fill="white"/>
<path d="M107.945 49.7084C107.945 49.5574 108.041 49.4613 108.192 49.4613H118.297C118.448 49.4613 118.544 49.5574 118.544 49.7084V51.2597C118.544 51.4107 118.448 51.5068 118.297 51.5068H110.293C110.197 51.5068 110.142 51.5618 110.142 51.6579V56.6001C110.142 56.6962 110.197 56.7511 110.293 56.7511H117.088C117.239 56.7511 117.336 56.8472 117.336 56.9982V58.5495C117.336 58.7005 117.239 58.7966 117.088 58.7966H110.293C110.197 58.7966 110.142 58.8515 110.142 58.9476V64.0683C110.142 64.1644 110.197 64.2194 110.293 64.2194H118.297C118.448 64.2194 118.544 64.3155 118.544 64.4665V66.0315C118.544 66.1825 118.448 66.2786 118.297 66.2786H108.192C108.041 66.2786 107.945 66.1825 107.945 66.0315V49.7084Z" fill="white"/>
<path d="M14.8649 73.4861L16.1005 72.429C16.224 72.3329 16.3476 72.3603 16.4711 72.4839C16.9928 72.9781 17.8851 73.5272 18.9148 73.5272C20.8642 73.5272 22.0311 72.3878 22.0311 69.9167V58.7418C22.0311 58.5907 22.1272 58.4946 22.2782 58.4946H23.9806C24.1316 58.4946 24.2277 58.5907 24.2277 58.7418V69.9167C24.2277 73.6508 22.1272 75.5728 18.8324 75.5728C17.1987 75.5728 15.6749 74.8315 14.8512 73.843C14.7688 73.7332 14.7688 73.5959 14.8649 73.4861Z" fill="white"/>
<path d="M66.5252 54.5408C66.5801 54.3898 66.6487 54.2937 66.8135 54.2937H68.4197C68.5982 54.2937 68.6943 54.3898 68.7355 54.5408L74.5014 70.8502C74.5563 71.0012 74.4739 71.0973 74.3229 71.0973H72.5931C72.4147 71.0973 72.3186 71.0287 72.2774 70.8502L70.9869 67.1984H64.1914L62.9009 70.8502C62.8322 71.0287 62.7224 71.0973 62.5714 71.0973H60.8416C60.6906 71.0973 60.622 71.0012 60.6631 70.8502L66.5252 54.5408ZM70.2868 65.1666L67.6372 57.5336H67.5823L64.9052 65.1666H70.2868Z" fill="white"/>
<path d="M144.369 11.3122C144.424 11.1612 144.492 11.0651 144.657 11.0651H146.263C146.442 11.0651 146.538 11.1612 146.593 11.3122L152.359 27.6216C152.414 27.7726 152.331 27.8687 152.18 27.8687H150.451C150.272 27.8687 150.176 27.8 150.135 27.6216L148.844 23.9561H142.049L140.758 27.6216C140.69 27.8 140.58 27.8687 140.429 27.8687H138.699C138.548 27.8687 138.479 27.7726 138.521 27.6216L144.369 11.3122ZM148.13 21.938L145.481 14.305H145.426L142.749 21.938H148.13Z" fill="white"/>
<path d="M81.0101 27.7978C80.914 27.7017 80.8865 27.5507 80.9826 27.4272L82.0672 26.1367C82.1633 26.0131 82.2868 26.0131 82.4104 26.1092C83.4949 26.9741 85.1835 27.839 87.1055 27.839C89.4256 27.839 90.8122 26.6721 90.8122 24.9698C90.8122 23.542 90.0022 22.5673 87.2977 22.2241L86.4603 22.1006C83.1929 21.6612 81.5181 20.0962 81.5181 17.4603C81.5181 14.4675 83.6734 12.5456 87.0094 12.5456C88.9863 12.5456 90.8946 13.1908 92.1301 14.0969C92.2537 14.193 92.2811 14.3165 92.185 14.4401L91.3476 15.7992C91.2515 15.9228 91.128 15.9228 91.0044 15.8541C89.6453 15.0167 88.3823 14.5911 86.9545 14.5911C84.909 14.5911 83.7695 15.7031 83.7695 17.3093C83.7695 18.7234 84.703 19.6569 87.2977 20.0001L88.1214 20.1237C91.4025 20.563 93.0637 22.0731 93.0637 24.8188C93.0637 27.7567 90.9907 29.8846 86.9408 29.8846C84.552 29.8983 82.2457 28.9236 81.0101 27.7978Z" fill="white"/>
<path d="M70.5205 8.04269C70.5205 8.04269 81.9975 18.339 87.8046 22.787C93.6117 27.235 102.233 34.6758 102.233 34.6758" stroke="black" stroke-width="1.3" stroke-linecap="round"/>
<path d="M73.582 37.7509C73.582 37.7509 82.6016 26.274 87.0496 20.4669C91.4976 14.6597 99.6935 5.58525 99.6935 5.58525" stroke="black" stroke-width="1.3" stroke-linecap="round"/>
<path d="M34.25 5.58525C34.25 5.58525 38.8628 20.3021 41.5947 27.084C44.3267 33.8795 47.951 44.6838 47.951 44.6838" stroke="black" stroke-width="1.3" stroke-linecap="round"/>
<path d="M21.7295 32.6989C21.7295 32.6989 35.3481 27.4272 42.1299 24.6953C48.9255 21.9633 60.5946 18.339 60.5946 18.339" stroke="black" stroke-width="1.3" stroke-linecap="round"/>
<path d="M58 42.8854C58 42.8854 64.974 56.6413 68.7768 62.8877C72.5796 69.1479 77.9337 79.1971 77.9337 79.1971" stroke="black" stroke-width="1.3" stroke-linecap="round"/>
<path d="M50.1211 71.6876C50.1211 71.6876 62.6826 64.2468 68.929 60.4441C75.1755 56.6413 86.0895 51.1362 86.0895 51.1362" stroke="black" stroke-width="1.3" stroke-linecap="round"/>
<path d="M94.7783 47.1137C94.7783 47.1137 108.122 54.8291 114.726 57.9866C121.329 61.1442 131.296 66.6493 131.296 66.6493" stroke="black" stroke-width="1.3" stroke-linecap="round"/>
<path d="M103.881 75.5453C103.881 75.5453 110.347 62.4622 113.504 55.8588C116.662 49.2554 122.812 38.6983 122.812 38.6983" stroke="black" stroke-width="1.3" stroke-linecap="round"/>
<path d="M127.099 4.91479C127.099 4.91479 138.576 15.2111 144.383 19.6591C150.19 24.1071 158.811 31.5479 158.811 31.5479" stroke="black" stroke-width="1.3" stroke-linecap="round"/>
<path d="M130.146 34.6094C130.146 34.6094 139.165 23.1324 143.613 17.3253C148.061 11.5182 156.257 2.4437 156.257 2.4437" stroke="black" stroke-width="1.3" stroke-linecap="round"/>
<path d="M1 68.6536C1 68.6536 16.1836 65.9628 23.2675 64.1232C30.3514 62.2973 41.5263 60.0871 41.5263 60.0871" stroke="black" stroke-width="1.3" stroke-linecap="round"/>
<path d="M26.3838 86.679C26.3838 86.679 22.8967 72.4976 21.0709 65.4137C19.245 58.3299 17.1445 46.29 17.1445 46.29" stroke="black" stroke-width="1.3" stroke-linecap="round"/>
<path d="M87.9063 211.06C87.9063 221.81 79.1888 230.513 68.4532 230.513C57.7175 230.513 49 221.796 49 211.06C49 200.311 57.7038 191.607 68.4532 191.607C79.2025 191.607 87.9063 200.325 87.9063 211.06Z" fill="#C4C0B4"/>
<path d="M131.233 196.453C131.233 207.202 122.515 215.906 111.779 215.906C101.044 215.906 92.3262 207.189 92.3262 196.453C92.3262 185.704 101.03 177 111.779 177C122.529 177 131.233 185.704 131.233 196.453Z" fill="#C4C0B4"/>
<path d="M64.9063 254.276C64.9063 265.025 56.1888 273.729 45.4532 273.729C34.7175 273.729 26 265.011 26 254.276C26 243.526 34.7038 234.823 45.4532 234.823C56.2025 234.823 64.9063 243.526 64.9063 254.276Z" fill="#C4C0B4"/>
<path d="M160.337 233.836C160.337 244.585 151.619 253.289 140.884 253.289C130.134 253.289 121.431 244.571 121.431 233.836C121.431 223.086 130.148 214.382 140.884 214.382C151.619 214.382 160.337 223.086 160.337 233.836Z" fill="#C4C0B4"/>
<path d="M116.529 246.713C116.529 257.462 107.812 266.166 97.0762 266.166C86.3269 266.166 77.623 257.449 77.623 246.713C77.623 235.964 86.3406 227.26 97.0762 227.26C107.826 227.26 116.529 235.977 116.529 246.713Z" fill="#C4C0B4"/>
<path d="M62.139 217.389C62.0429 217.293 62.0155 217.142 62.1116 217.018L63.1961 215.728C63.2922 215.604 63.4158 215.604 63.5393 215.7C64.6239 216.565 66.3124 217.43 68.2344 217.43C70.5545 217.43 71.9411 216.263 71.9411 214.561C71.9411 213.119 71.1311 212.158 68.4266 211.815L67.5892 211.692C64.3218 211.252 62.647 209.687 62.647 207.051C62.647 204.059 64.8023 202.137 68.1383 202.137C70.1152 202.137 72.0235 202.782 73.259 203.688C73.3826 203.784 73.41 203.908 73.3139 204.031L72.4765 205.39C72.3804 205.514 72.2568 205.514 72.1333 205.445C70.7742 204.608 69.5112 204.182 68.0834 204.182C66.0379 204.182 64.8984 205.294 64.8984 206.9C64.8984 208.315 65.8319 209.248 68.4266 209.591L69.2503 209.715C72.5314 210.154 74.1926 211.664 74.1926 214.41C74.1926 217.348 72.1196 219.476 68.056 219.476C65.6672 219.489 63.3746 218.528 62.139 217.389Z" fill="white"/>
<path d="M111.066 206.049C110.915 206.049 110.818 205.953 110.818 205.802V191.442C110.818 191.346 110.764 191.291 110.667 191.291H106.068C105.917 191.291 105.821 191.195 105.821 191.044V189.493C105.821 189.342 105.917 189.246 106.068 189.246H117.765C117.916 189.246 118.012 189.342 118.012 189.493V191.044C118.012 191.195 117.916 191.291 117.765 191.291H113.166C113.07 191.291 113.015 191.346 113.015 191.442V205.802C113.015 205.953 112.919 206.049 112.768 206.049H111.066Z" fill="white"/>
<path d="M44.1198 245.874C44.1747 245.723 44.2434 245.627 44.4081 245.627H46.0144C46.1928 245.627 46.2889 245.723 46.3439 245.874L52.0961 262.183C52.151 262.334 52.0686 262.43 51.9176 262.43H50.1878C50.0093 262.43 49.9132 262.362 49.872 262.183L48.5816 258.518H41.786L40.5093 262.183C40.4269 262.362 40.3308 262.43 40.1798 262.43H38.45C38.299 262.43 38.2304 262.334 38.2715 262.183L44.1198 245.874ZM47.8814 256.5L45.2319 248.867H45.1769L42.5136 256.5H47.8814Z" fill="white"/>
<path d="M135.16 238.558C134.844 237.597 134.721 236.581 134.721 233.808C134.721 231.035 134.844 230.019 135.16 229.058C136.025 226.463 138.057 225.132 140.871 225.132C143.713 225.132 145.745 226.463 146.609 229.058C146.925 230.019 147.063 231.035 147.063 233.808C147.063 236.581 146.939 237.597 146.609 238.558C145.745 241.153 143.713 242.485 140.871 242.485C138.043 242.485 136.025 241.153 135.16 238.558ZM144.454 237.94C144.646 237.323 144.825 236.238 144.825 233.808C144.825 231.392 144.646 230.294 144.454 229.676C143.932 228.07 142.752 227.177 140.871 227.177C139.018 227.177 137.837 228.07 137.315 229.676C137.123 230.294 136.945 231.378 136.945 233.808C136.945 236.238 137.123 237.323 137.315 237.94C137.837 239.547 139.018 240.439 140.871 240.439C142.738 240.439 143.932 239.547 144.454 237.94Z" fill="white"/>
<path d="M92.9034 255.417C92.7523 255.417 92.6562 255.321 92.6562 255.17V238.86C92.6562 238.709 92.7523 238.613 92.9034 238.613H98.8889C102.129 238.613 104.229 240.59 104.229 243.624C104.229 246.672 102.129 248.649 98.8889 248.649H95.0038C94.9077 248.649 94.8528 248.703 94.8528 248.8V255.183C94.8528 255.334 94.7567 255.43 94.6057 255.43H92.9034V255.417ZM102.06 243.624C102.06 241.798 100.852 240.659 98.7654 240.659H95.0038C94.9077 240.659 94.8528 240.714 94.8528 240.81V246.452C94.8528 246.548 94.9077 246.603 95.0038 246.603H98.7654C100.838 246.589 102.06 245.45 102.06 243.624Z" fill="white"/>
<path d="M94.9776 373.453C94.9776 384.203 86.2601 392.906 75.5245 392.906C64.7888 392.906 56.0713 384.189 56.0713 373.453C56.0713 362.704 64.7888 354 75.5245 354C86.2601 354 94.9776 362.704 94.9776 373.453Z" fill="#2FAC66"/>
<path d="M73.4523 414.817C73.4523 425.566 64.7347 434.27 53.9854 434.27C43.236 434.27 34.5322 425.553 34.5322 414.817C34.5322 404.068 43.2498 395.364 53.9854 395.364C64.7485 395.35 73.4523 404.068 73.4523 414.817Z" fill="#2FAC66"/>
<path d="M48.9063 378.945C48.9063 389.694 40.1888 398.398 29.4532 398.398C18.7038 398.398 10 389.68 10 378.945C10 368.195 18.7175 359.491 29.4532 359.491C40.1888 359.478 48.9063 368.195 48.9063 378.945Z" fill="#2FAC66"/>
<path d="M141.543 373.767C141.543 384.516 132.826 393.22 122.09 393.22C111.341 393.22 102.637 384.503 102.637 373.767C102.637 363.018 111.354 354.314 122.09 354.314C132.839 354.314 141.543 363.031 141.543 373.767Z" fill="#2FAC66"/>
<path d="M120.252 412.373C120.252 423.123 111.534 431.826 100.799 431.826C90.0632 431.826 81.3457 423.109 81.3457 412.373C81.3457 401.624 90.0495 392.92 100.799 392.92C111.548 392.92 120.252 401.624 120.252 412.373Z" fill="#2FAC66"/>
<path d="M96.5431 458.453C96.5431 469.202 87.8255 477.906 77.0899 477.906C66.3543 477.906 57.6367 469.189 57.6367 458.453C57.6367 447.704 66.3543 439 77.0899 439C87.8255 439 96.5431 447.718 96.5431 458.453Z" fill="#2FAC66"/>
<path d="M142.543 457.453C142.543 468.203 133.826 476.906 123.09 476.906C112.354 476.906 103.637 468.189 103.637 457.453C103.637 446.704 112.354 438 123.09 438C133.826 438 142.543 446.704 142.543 457.453Z" fill="#2FAC66"/>
<path d="M169.557 415.767C169.557 426.516 160.839 435.22 150.09 435.22C139.341 435.22 130.637 426.503 130.637 415.767C130.637 405.018 139.354 396.314 150.09 396.314C160.839 396.3 169.557 405.018 169.557 415.767Z" fill="#2FAC66"/>
<path d="M74.6052 365.587C74.6601 365.436 74.7288 365.34 74.8935 365.34H76.4997C76.6782 365.34 76.7743 365.436 76.8155 365.587L82.5814 381.896C82.6363 382.047 82.554 382.143 82.4029 382.143H80.6732C80.4947 382.143 80.3986 382.075 80.3574 381.896L79.0669 378.231H72.2714L70.9809 381.896C70.9123 382.075 70.8024 382.143 70.6651 382.143H68.9354C68.7844 382.143 68.7157 382.047 68.7569 381.896L74.6052 365.587ZM78.3668 376.213L75.7172 368.58H75.6623L72.9852 376.213H78.3668Z" fill="white"/>
<path d="M48.1641 407.362C48.1641 407.211 48.2602 407.115 48.4112 407.115H50.1135C50.2645 407.115 50.3606 407.211 50.3606 407.362V414.254C50.3606 414.35 50.4155 414.405 50.5116 414.405H57.8014C57.8975 414.405 57.9524 414.35 57.9524 414.254V407.362C57.9524 407.211 58.0485 407.115 58.1996 407.115H59.9019C60.0529 407.115 60.149 407.211 60.149 407.362V423.672C60.149 423.823 60.0529 423.919 59.9019 423.919H58.1996C58.0485 423.919 57.9524 423.823 57.9524 423.672V416.602C57.9524 416.505 57.8975 416.451 57.8014 416.451H50.5116C50.4155 416.451 50.3606 416.505 50.3606 416.602V423.672C50.3606 423.823 50.2645 423.919 50.1135 423.919H48.4112C48.2602 423.919 48.1641 423.823 48.1641 423.672V407.362Z" fill="white"/>
<path d="M22.3418 371.49C22.3418 371.339 22.4379 371.243 22.5889 371.243H24.1951C24.3873 371.243 24.5109 371.325 24.5933 371.49L29.6041 382.816H29.6728L34.5875 371.49C34.6562 371.312 34.7798 371.243 34.9857 371.243H36.5919C36.7429 371.243 36.839 371.339 36.839 371.49V387.799C36.839 387.95 36.7429 388.046 36.5919 388.046H35.0406C34.8896 388.046 34.7935 387.95 34.7935 387.799V376.103H34.7248L30.5514 385.342C30.4553 385.562 30.3317 385.644 30.1121 385.644H29.1236C28.8765 385.644 28.753 385.575 28.6569 385.342L24.4834 376.103H24.4148V387.799C24.4148 387.95 24.3187 388.046 24.1677 388.046H22.6164C22.4653 388.046 22.3693 387.95 22.3693 387.799V371.49H22.3418Z" fill="white"/>
<path d="M116.077 374.481C116.077 371.708 116.228 370.706 116.516 369.731C117.354 367.136 119.441 365.805 122.282 365.805C125.22 365.805 127.032 367.287 127.87 369.141C127.938 369.292 127.925 369.415 127.801 369.484L126.319 370.198C126.168 370.266 126.044 370.225 125.975 370.074C125.165 368.564 124.067 367.85 122.296 367.85C120.388 367.85 119.18 368.742 118.658 370.349C118.438 370.966 118.315 371.914 118.315 374.481C118.315 377.048 118.438 377.995 118.658 378.613C119.18 380.219 120.388 381.112 122.296 381.112C123.998 381.112 125.385 380.274 125.907 378.696C126.085 378.133 126.236 377.309 126.236 376.046C126.236 375.95 126.181 375.895 126.085 375.895H122.818C122.667 375.895 122.571 375.799 122.571 375.648V374.206C122.571 374.055 122.667 373.959 122.818 373.959H128.186C128.337 373.959 128.433 374.055 128.433 374.206V375.469C128.433 376.979 128.254 378.366 128.007 379.176C127.197 381.716 125.083 383.157 122.296 383.157C119.454 383.157 117.381 381.826 116.53 379.231C116.228 378.256 116.077 377.24 116.077 374.481Z" fill="white"/>
<path d="M94.9095 419.773C94.8134 419.677 94.786 419.526 94.8821 419.402L95.9666 418.112C96.0627 417.988 96.1863 417.988 96.3098 418.084C97.3944 418.949 99.083 419.814 101.005 419.814C103.325 419.814 104.712 418.647 104.712 416.945C104.712 415.517 103.902 414.542 101.197 414.199L100.36 414.076C97.0923 413.636 95.4175 412.071 95.4175 409.435C95.4175 406.443 97.5729 404.521 100.909 404.521C102.886 404.521 104.794 405.166 106.03 406.072C106.153 406.168 106.181 406.292 106.084 406.415L105.247 407.774C105.151 407.898 105.027 407.898 104.904 407.829C103.545 406.992 102.282 406.566 100.854 406.566C98.8084 406.566 97.6689 407.678 97.6689 409.284C97.6689 410.698 98.6025 411.632 101.197 411.975L102.021 412.099C105.302 412.538 106.963 414.048 106.963 416.794C106.963 419.732 104.89 421.86 100.84 421.86C98.4377 421.873 96.1451 420.912 94.9095 419.773Z" fill="white"/>
<path d="M76.4717 451.012C76.4717 450.861 76.5678 450.765 76.7188 450.765H78.4211C78.5721 450.765 78.6682 450.861 78.6682 451.012V467.322C78.6682 467.473 78.5721 467.569 78.4211 467.569H76.7188C76.5678 467.569 76.4717 467.473 76.4717 467.322V451.012Z" fill="white"/>
<path d="M117.516 462.903C117.201 461.942 117.077 460.926 117.077 458.153C117.077 455.38 117.201 454.364 117.516 453.403C118.381 450.809 120.413 449.477 123.227 449.477C126.069 449.477 128.101 450.809 128.966 453.403C129.282 454.364 129.405 455.38 129.405 458.153C129.405 460.926 129.282 461.929 128.966 462.903C128.101 465.498 126.069 466.83 123.227 466.83C120.399 466.843 118.381 465.498 117.516 462.903ZM126.811 462.286C127.003 461.668 127.181 460.583 127.181 458.153C127.181 455.737 127.003 454.639 126.811 454.021C126.289 452.415 125.108 451.522 123.227 451.522C121.374 451.522 120.193 452.415 119.672 454.021C119.48 454.639 119.301 455.723 119.301 458.153C119.301 460.569 119.48 461.668 119.672 462.286C120.193 463.892 121.374 464.784 123.227 464.784C125.095 464.784 126.289 463.892 126.811 462.286Z" fill="white"/>
<path d="M154.427 424.869C154.248 424.869 154.18 424.8 154.111 424.622L150.748 417.744H147.041C146.945 417.744 146.89 417.799 146.89 417.895V424.622C146.89 424.773 146.794 424.869 146.643 424.869H144.94C144.789 424.869 144.693 424.773 144.693 424.622V408.313C144.693 408.162 144.789 408.065 144.94 408.065H151.022C154.166 408.065 156.294 410.001 156.294 412.912C156.294 415.19 155.003 416.838 152.985 417.483L156.568 424.581C156.665 424.732 156.596 424.883 156.417 424.883H154.427V424.869ZM154.084 412.912C154.084 411.154 152.917 410.125 150.967 410.125H147.041C146.945 410.125 146.89 410.18 146.89 410.276V415.561C146.89 415.657 146.945 415.712 147.041 415.712H150.967C152.93 415.698 154.084 414.669 154.084 412.912Z" fill="white"/>
</svg>
