<svg width="943" height="106" viewBox="0 0 943 106" fill="none" xmlns="http://www.w3.org/2000/svg">
<path d="M739.351 72.8204C739.351 72.8204 744.914 83.1268 751.843 89.4184C764.843 101.222 783.961 104.814 783.961 104.814C783.961 104.814 756.443 86.6819 755.501 72.8204C755.112 67.0752 756.919 67.2366 756.919 67.2366L739.351 72.8204Z" fill="#00A5A5"/>
<path d="M554.029 42.424C553.395 17.1492 563.086 4.26708 596.046 3.02601C632.948 1.63495 879.813 -1.00214 918.926 3.58144C948.884 7.09206 951.709 71.3512 915.286 74.992C875.784 78.9394 627.771 81.7709 580.411 74.5157C557.065 70.9391 554.393 56.9494 554.029 42.424Z" fill="#00A5A5"/>
<path d="M638.8 41.6069H641.604L642.426 57.978H637.962L638.8 41.6069ZM642.619 36.4507C642.619 37.2456 642.415 37.8525 642.007 38.2715C641.609 38.6904 641.013 38.8999 640.218 38.8999C639.445 38.8999 638.854 38.6904 638.446 38.2715C638.038 37.8418 637.833 37.2349 637.833 36.4507C637.833 35.7095 638.038 35.1133 638.446 34.6621C638.854 34.2109 639.445 33.9854 640.218 33.9854C640.992 33.9854 641.583 34.2056 641.991 34.646C642.41 35.0757 642.619 35.6772 642.619 36.4507ZM667.546 52H662.825L651.24 33.228H651.111L651.191 34.2754C651.342 36.2734 651.417 38.0996 651.417 39.7539V52H647.92V28.4424H652.593L664.146 47.1177H664.243C664.222 46.8706 664.179 45.9736 664.114 44.4268C664.05 42.8691 664.018 41.6553 664.018 40.7852V28.4424H667.546V52ZM689.17 43.0571C689.17 45.9683 688.424 48.2402 686.931 49.873C685.438 51.5059 683.359 52.3223 680.695 52.3223C679.03 52.3223 677.558 51.9463 676.28 51.1943C675.001 50.4424 674.019 49.3628 673.331 47.9556C672.644 46.5483 672.3 44.9155 672.3 43.0571C672.3 40.1675 673.041 37.9116 674.523 36.2896C676.006 34.6675 678.095 33.8564 680.792 33.8564C683.37 33.8564 685.411 34.689 686.915 36.354C688.418 38.0083 689.17 40.2427 689.17 43.0571ZM676.199 43.0571C676.199 47.1714 677.719 49.2285 680.759 49.2285C683.767 49.2285 685.271 47.1714 685.271 43.0571C685.271 38.9858 683.756 36.9502 680.727 36.9502C679.137 36.9502 677.982 37.4766 677.263 38.5293C676.554 39.582 676.199 41.0913 676.199 43.0571ZM706.17 52L699.402 34.1787H703.398L707.024 44.5396C707.647 46.2798 708.023 47.687 708.152 48.7612H708.281C708.377 47.9878 708.753 46.5806 709.409 44.5396L713.034 34.1787H717.062L710.263 52H706.17ZM735.577 43.0571C735.577 45.9683 734.83 48.2402 733.337 49.873C731.844 51.5059 729.765 52.3223 727.101 52.3223C725.436 52.3223 723.964 51.9463 722.686 51.1943C721.408 50.4424 720.425 49.3628 719.737 47.9556C719.05 46.5483 718.706 44.9155 718.706 43.0571C718.706 40.1675 719.447 37.9116 720.93 36.2896C722.412 34.6675 724.501 33.8564 727.198 33.8564C729.776 33.8564 731.817 34.689 733.321 36.354C734.825 38.0083 735.577 40.2427 735.577 43.0571ZM722.605 43.0571C722.605 47.1714 724.125 49.2285 727.166 49.2285C730.173 49.2285 731.677 47.1714 731.677 43.0571C731.677 38.9858 730.163 36.9502 727.133 36.9502C725.543 36.9502 724.389 37.4766 723.669 38.5293C722.96 39.582 722.605 41.0913 722.605 43.0571ZM743.73 52H739.943V26.9277H743.73V52ZM753.221 52L746.453 34.1787H750.449L754.075 44.5396C754.698 46.2798 755.074 47.687 755.203 48.7612H755.332C755.428 47.9878 755.804 46.5806 756.459 44.5396L760.085 34.1787H764.113L757.313 52H753.221ZM774.603 52.3223C771.832 52.3223 769.662 51.5166 768.093 49.9053C766.536 48.2832 765.757 46.0542 765.757 43.2183C765.757 40.3071 766.482 38.019 767.932 36.354C769.382 34.689 771.375 33.8564 773.91 33.8564C776.263 33.8564 778.121 34.5708 779.485 35.9995C780.85 37.4282 781.532 39.394 781.532 41.897V43.9434H769.656C769.71 45.6729 770.177 47.0049 771.058 47.9395C771.939 48.8633 773.18 49.3252 774.78 49.3252C775.833 49.3252 776.811 49.2285 777.713 49.0352C778.626 48.8311 779.604 48.498 780.646 48.0361V51.1138C779.722 51.5542 778.787 51.8657 777.842 52.0483C776.896 52.231 775.817 52.3223 774.603 52.3223ZM773.91 36.7246C772.707 36.7246 771.74 37.106 771.01 37.8687C770.29 38.6313 769.86 39.7432 769.721 41.2041H777.81C777.788 39.7324 777.434 38.6206 776.746 37.8687C776.059 37.106 775.113 36.7246 773.91 36.7246ZM794.874 33.8564C795.636 33.8564 796.265 33.9102 796.759 34.0176L796.388 37.5464C795.851 37.4175 795.292 37.353 794.712 37.353C793.198 37.353 791.968 37.8472 791.022 38.8354C790.088 39.8237 789.621 41.1074 789.621 42.6865V52H785.834V34.1787H788.799L789.298 37.3208H789.492C790.083 36.2573 790.851 35.4141 791.796 34.791C792.752 34.168 793.778 33.8564 794.874 33.8564ZM807.861 52.3223C805.089 52.3223 802.919 51.5166 801.351 49.9053C799.793 48.2832 799.015 46.0542 799.015 43.2183C799.015 40.3071 799.74 38.019 801.19 36.354C802.64 34.689 804.633 33.8564 807.168 33.8564C809.521 33.8564 811.379 34.5708 812.743 35.9995C814.107 37.4282 814.79 39.394 814.79 41.897V43.9434H802.914C802.968 45.6729 803.435 47.0049 804.316 47.9395C805.197 48.8633 806.438 49.3252 808.038 49.3252C809.091 49.3252 810.068 49.2285 810.971 49.0352C811.884 48.8311 812.861 48.498 813.903 48.0361V51.1138C812.979 51.5542 812.045 51.8657 811.1 52.0483C810.154 52.231 809.075 52.3223 807.861 52.3223ZM807.168 36.7246C805.965 36.7246 804.998 37.106 804.268 37.8687C803.548 38.6313 803.118 39.7432 802.979 41.2041H811.067C811.046 39.7324 810.691 38.6206 810.004 37.8687C809.316 37.106 808.371 36.7246 807.168 36.7246ZM834.109 52H830.307V41.0107C830.307 39.6465 830.049 38.6313 829.533 37.9653C829.018 37.2886 828.212 36.9502 827.116 36.9502C825.655 36.9502 824.581 37.4282 823.894 38.3843C823.217 39.3296 822.878 40.9087 822.878 43.1216V52H819.092V34.1787H822.057L822.588 36.5151H822.782C823.276 35.6665 823.99 35.0112 824.925 34.5493C825.87 34.0874 826.907 33.8564 828.035 33.8564C830.774 33.8564 832.589 34.791 833.481 36.6602H833.739C834.265 35.7793 835.006 35.0918 835.962 34.5977C836.918 34.1035 838.014 33.8564 839.25 33.8564C841.376 33.8564 842.923 34.3936 843.89 35.4678C844.868 36.542 845.356 38.1802 845.356 40.3823V52H841.57V41.0107C841.57 39.6465 841.307 38.6313 840.78 37.9653C840.265 37.2886 839.459 36.9502 838.363 36.9502C836.892 36.9502 835.812 37.4121 835.125 38.3359C834.448 39.249 834.109 40.6562 834.109 42.5576V52ZM866.449 43.0571C866.449 45.9683 865.702 48.2402 864.209 49.873C862.716 51.5059 860.637 52.3223 857.973 52.3223C856.308 52.3223 854.836 51.9463 853.558 51.1943C852.28 50.4424 851.297 49.3628 850.609 47.9556C849.922 46.5483 849.578 44.9155 849.578 43.0571C849.578 40.1675 850.319 37.9116 851.802 36.2896C853.284 34.6675 855.374 33.8564 858.07 33.8564C860.648 33.8564 862.689 34.689 864.193 36.354C865.697 38.0083 866.449 40.2427 866.449 43.0571ZM853.478 43.0571C853.478 47.1714 854.998 49.2285 858.038 49.2285C861.045 49.2285 862.549 47.1714 862.549 43.0571C862.549 38.9858 861.035 36.9502 858.005 36.9502C856.416 36.9502 855.261 37.4766 854.541 38.5293C853.832 39.582 853.478 41.0913 853.478 43.0571ZM882.788 46.9243C882.788 48.6646 882.154 50.002 880.886 50.9365C879.619 51.8604 877.803 52.3223 875.44 52.3223C873.066 52.3223 871.159 51.9624 869.72 51.2427V47.9717C871.814 48.9385 873.764 49.4219 875.569 49.4219C877.9 49.4219 879.065 48.7183 879.065 47.311C879.065 46.8599 878.937 46.4839 878.679 46.1831C878.421 45.8823 877.997 45.5708 877.406 45.2485C876.815 44.9263 875.993 44.561 874.94 44.1528C872.889 43.3579 871.498 42.563 870.767 41.7681C870.047 40.9731 869.688 39.9419 869.688 38.6743C869.688 37.1489 870.3 35.9673 871.524 35.1294C872.76 34.2808 874.436 33.8564 876.552 33.8564C878.646 33.8564 880.628 34.2808 882.498 35.1294L881.273 37.9814C879.35 37.1865 877.733 36.7891 876.423 36.7891C874.425 36.7891 873.426 37.3584 873.426 38.4971C873.426 39.0557 873.684 39.5283 874.199 39.915C874.726 40.3018 875.864 40.8335 877.615 41.5103C879.087 42.0796 880.156 42.6006 880.822 43.0732C881.488 43.5459 881.982 44.0938 882.304 44.7168C882.626 45.3291 882.788 46.0649 882.788 46.9243ZM890.167 44.8457H887.364L886.526 28.4424H890.989L890.167 44.8457ZM886.333 49.9858C886.333 49.1909 886.542 48.5894 886.961 48.1812C887.38 47.7622 887.976 47.5527 888.75 47.5527C889.512 47.5527 890.098 47.7676 890.506 48.1973C890.914 48.627 891.118 49.2231 891.118 49.9858C891.118 50.7485 890.909 51.3555 890.49 51.8066C890.082 52.2471 889.501 52.4673 888.75 52.4673C887.987 52.4673 887.391 52.2524 886.961 51.8228C886.542 51.3931 886.333 50.7808 886.333 49.9858Z" fill="white"/>
<path d="M508.962 45.2376C509.794 21.907 497.081 10.0158 453.842 8.87016C405.432 7.5861 81.5798 5.15188 30.2693 9.38287C-9.03137 12.6234 -12.7369 71.9395 35.0455 75.3003C86.8659 78.944 412.223 81.5578 474.352 74.8606C504.979 71.5592 508.485 58.6456 508.962 45.2376Z" fill="#00A5A5"/>
<path d="M24.4648 41.6069H27.2686L28.0903 57.978H23.627L24.4648 41.6069ZM28.2837 36.4507C28.2837 37.2456 28.0796 37.8525 27.6714 38.2715C27.2739 38.6904 26.6777 38.8999 25.8828 38.8999C25.1094 38.8999 24.5186 38.6904 24.1104 38.2715C23.7021 37.8418 23.498 37.2349 23.498 36.4507C23.498 35.7095 23.7021 35.1133 24.1104 34.6621C24.5186 34.2109 25.1094 33.9854 25.8828 33.9854C26.6562 33.9854 27.2471 34.2056 27.6553 34.646C28.0742 35.0757 28.2837 35.6772 28.2837 36.4507ZM52.7437 39.9956C52.7437 43.8843 51.6641 46.8599 49.5049 48.9224C47.3457 50.9741 44.2358 52 40.1753 52H33.585V28.4424H40.8682C44.6172 28.4424 47.5337 29.4521 49.6177 31.4717C51.7017 33.4912 52.7437 36.3325 52.7437 39.9956ZM48.6831 40.1245C48.6831 34.4849 46.0459 31.665 40.7715 31.665H37.436V48.7612H40.1753C45.8472 48.7612 48.6831 45.8823 48.6831 40.1245ZM65.1992 52.3223C62.4277 52.3223 60.2578 51.5166 58.6895 49.9053C57.1318 48.2832 56.353 46.0542 56.353 43.2183C56.353 40.3071 57.0781 38.019 58.5283 36.354C59.9785 34.689 61.9712 33.8564 64.5063 33.8564C66.8589 33.8564 68.7173 34.5708 70.0815 35.9995C71.4458 37.4282 72.1279 39.394 72.1279 41.897V43.9434H60.2524C60.3062 45.6729 60.7734 47.0049 61.6543 47.9395C62.5352 48.8633 63.7759 49.3252 65.3765 49.3252C66.4292 49.3252 67.4067 49.2285 68.3091 49.0352C69.2222 48.8311 70.1997 48.498 71.2417 48.0361V51.1138C70.3179 51.5542 69.3833 51.8657 68.438 52.0483C67.4927 52.231 66.4131 52.3223 65.1992 52.3223ZM64.5063 36.7246C63.3032 36.7246 62.3364 37.106 61.606 37.8687C60.8862 38.6313 60.4565 39.7432 60.3169 41.2041H68.4058C68.3843 39.7324 68.0298 38.6206 67.3423 37.8687C66.6548 37.106 65.7095 36.7246 64.5063 36.7246ZM74.6094 59.9277C73.4707 59.9277 72.5254 59.7935 71.7734 59.5249V56.5278C72.5039 56.7212 73.2505 56.8179 74.0132 56.8179C75.6245 56.8179 76.4302 55.9048 76.4302 54.0786V34.1787H80.2168V54.3364C80.2168 56.1733 79.7334 57.5645 78.7666 58.5098C77.8105 59.4551 76.4248 59.9277 74.6094 59.9277ZM76.2046 29.4575C76.2046 28.7808 76.3872 28.2598 76.7524 27.8945C77.1284 27.5293 77.6602 27.3467 78.3477 27.3467C79.0137 27.3467 79.5293 27.5293 79.8945 27.8945C80.2705 28.2598 80.4585 28.7808 80.4585 29.4575C80.4585 30.1021 80.2705 30.6123 79.8945 30.9883C79.5293 31.3535 79.0137 31.5361 78.3477 31.5361C77.6602 31.5361 77.1284 31.3535 76.7524 30.9883C76.3872 30.6123 76.2046 30.1021 76.2046 29.4575ZM93.4297 52.3223C90.6582 52.3223 88.4883 51.5166 86.9199 49.9053C85.3623 48.2832 84.5835 46.0542 84.5835 43.2183C84.5835 40.3071 85.3086 38.019 86.7588 36.354C88.209 34.689 90.2017 33.8564 92.7368 33.8564C95.0894 33.8564 96.9478 34.5708 98.312 35.9995C99.6763 37.4282 100.358 39.394 100.358 41.897V43.9434H88.4829C88.5366 45.6729 89.0039 47.0049 89.8848 47.9395C90.7656 48.8633 92.0063 49.3252 93.6069 49.3252C94.6597 49.3252 95.6372 49.2285 96.5396 49.0352C97.4526 48.8311 98.4302 48.498 99.4722 48.0361V51.1138C98.5483 51.5542 97.6138 51.8657 96.6685 52.0483C95.7231 52.231 94.6436 52.3223 93.4297 52.3223ZM92.7368 36.7246C91.5337 36.7246 90.5669 37.106 89.8364 37.8687C89.1167 38.6313 88.687 39.7432 88.5474 41.2041H96.6362C96.6147 39.7324 96.2603 38.6206 95.5728 37.8687C94.8853 37.106 93.9399 36.7246 92.7368 36.7246ZM120.339 52H116.536V41.043C116.536 39.668 116.257 38.6421 115.698 37.9653C115.15 37.2886 114.275 36.9502 113.072 36.9502C111.471 36.9502 110.3 37.4229 109.559 38.3682C108.818 39.3135 108.447 40.8979 108.447 43.1216V52H104.661V34.1787H107.625L108.157 36.5151H108.351C108.888 35.6665 109.65 35.0112 110.639 34.5493C111.627 34.0874 112.723 33.8564 113.926 33.8564C118.201 33.8564 120.339 36.0317 120.339 40.3823V52ZM141.963 52.3223C139.191 52.3223 137.021 51.5166 135.453 49.9053C133.896 48.2832 133.117 46.0542 133.117 43.2183C133.117 40.3071 133.842 38.019 135.292 36.354C136.742 34.689 138.735 33.8564 141.27 33.8564C143.623 33.8564 145.481 34.5708 146.845 35.9995C148.209 37.4282 148.892 39.394 148.892 41.897V43.9434H137.016C137.07 45.6729 137.537 47.0049 138.418 47.9395C139.299 48.8633 140.54 49.3252 142.14 49.3252C143.193 49.3252 144.17 49.2285 145.073 49.0352C145.986 48.8311 146.963 48.498 148.005 48.0361V51.1138C147.082 51.5542 146.147 51.8657 145.202 52.0483C144.256 52.231 143.177 52.3223 141.963 52.3223ZM141.27 36.7246C140.067 36.7246 139.1 37.106 138.37 37.8687C137.65 38.6313 137.22 39.7432 137.081 41.2041H145.169C145.148 39.7324 144.793 38.6206 144.106 37.8687C143.418 37.106 142.473 36.7246 141.27 36.7246ZM168.872 52H165.069V41.043C165.069 39.668 164.79 38.6421 164.231 37.9653C163.684 37.2886 162.808 36.9502 161.605 36.9502C160.004 36.9502 158.833 37.4229 158.092 38.3682C157.351 39.3135 156.98 40.8979 156.98 43.1216V52H153.194V34.1787H156.159L156.69 36.5151H156.884C157.421 35.6665 158.184 35.0112 159.172 34.5493C160.16 34.0874 161.256 33.8564 162.459 33.8564C166.734 33.8564 168.872 36.0317 168.872 40.3823V52ZM191.753 52.3223C189.497 52.3223 187.746 51.5112 186.5 49.8892H186.274C186.425 51.3931 186.5 52.3062 186.5 52.6284V59.9277H182.713V34.1787H185.775C185.861 34.5117 186.038 35.3066 186.307 36.5635H186.5C187.682 34.7588 189.454 33.8564 191.817 33.8564C194.041 33.8564 195.771 34.6621 197.006 36.2734C198.252 37.8848 198.875 40.146 198.875 43.0571C198.875 45.9683 198.241 48.2402 196.974 49.873C195.717 51.5059 193.977 52.3223 191.753 52.3223ZM190.834 36.9502C189.331 36.9502 188.229 37.3906 187.531 38.2715C186.844 39.1523 186.5 40.5596 186.5 42.4932V43.0571C186.5 45.2271 186.844 46.8008 187.531 47.7783C188.219 48.7451 189.341 49.2285 190.899 49.2285C192.209 49.2285 193.219 48.6914 193.928 47.6172C194.637 46.543 194.992 45.0122 194.992 43.0249C194.992 41.0269 194.637 39.5176 193.928 38.4971C193.23 37.4658 192.199 36.9502 190.834 36.9502ZM214.424 52L213.667 49.5186H213.538C212.679 50.6035 211.814 51.3447 210.944 51.7422C210.074 52.1289 208.957 52.3223 207.592 52.3223C205.841 52.3223 204.472 51.8496 203.483 50.9043C202.506 49.959 202.017 48.6216 202.017 46.8921C202.017 45.0552 202.699 43.6694 204.063 42.7349C205.428 41.8003 207.506 41.29 210.299 41.2041L213.377 41.1074V40.1567C213.377 39.0181 213.108 38.1694 212.571 37.6108C212.045 37.0415 211.223 36.7568 210.106 36.7568C209.193 36.7568 208.317 36.8911 207.479 37.1597C206.642 37.4282 205.836 37.7451 205.062 38.1104L203.838 35.4033C204.805 34.8984 205.863 34.5171 207.012 34.2593C208.162 33.9907 209.247 33.8564 210.267 33.8564C212.534 33.8564 214.242 34.3506 215.391 35.3389C216.551 36.3271 217.131 37.8794 217.131 39.9956V52H214.424ZM208.785 49.4219C210.16 49.4219 211.261 49.0405 212.088 48.2778C212.926 47.5044 213.345 46.4248 213.345 45.0391V43.4922L211.057 43.5889C209.273 43.6533 207.974 43.9541 207.157 44.4912C206.352 45.0176 205.949 45.8286 205.949 46.9243C205.949 47.7192 206.185 48.3369 206.658 48.7773C207.13 49.207 207.839 49.4219 208.785 49.4219ZM234.324 52H220.805V49.6636L229.812 37.0791H221.353V34.1787H234.066V36.8213L225.252 49.0996H234.324V52ZM257.93 52L257.173 49.5186H257.044C256.185 50.6035 255.32 51.3447 254.45 51.7422C253.58 52.1289 252.462 52.3223 251.098 52.3223C249.347 52.3223 247.978 51.8496 246.989 50.9043C246.012 49.959 245.523 48.6216 245.523 46.8921C245.523 45.0552 246.205 43.6694 247.569 42.7349C248.934 41.8003 251.012 41.29 253.805 41.2041L256.883 41.1074V40.1567C256.883 39.0181 256.614 38.1694 256.077 37.6108C255.551 37.0415 254.729 36.7568 253.612 36.7568C252.699 36.7568 251.823 36.8911 250.985 37.1597C250.147 37.4282 249.342 37.7451 248.568 38.1104L247.344 35.4033C248.311 34.8984 249.369 34.5171 250.518 34.2593C251.667 33.9907 252.752 33.8564 253.773 33.8564C256.04 33.8564 257.748 34.3506 258.897 35.3389C260.057 36.3271 260.637 37.8794 260.637 39.9956V52H257.93ZM252.291 49.4219C253.666 49.4219 254.767 49.0405 255.594 48.2778C256.432 47.5044 256.851 46.4248 256.851 45.0391V43.4922L254.562 43.5889C252.779 43.6533 251.479 43.9541 250.663 44.4912C249.857 45.0176 249.455 45.8286 249.455 46.9243C249.455 47.7192 249.691 48.3369 250.164 48.7773C250.636 49.207 251.345 49.4219 252.291 49.4219ZM278.281 52H274.495V26.9277H278.281V52ZM294.862 52L294.104 49.5186H293.976C293.116 50.6035 292.251 51.3447 291.381 51.7422C290.511 52.1289 289.394 52.3223 288.03 52.3223C286.279 52.3223 284.909 51.8496 283.921 50.9043C282.943 49.959 282.455 48.6216 282.455 46.8921C282.455 45.0552 283.137 43.6694 284.501 42.7349C285.865 41.8003 287.944 41.29 290.737 41.2041L293.814 41.1074V40.1567C293.814 39.0181 293.546 38.1694 293.009 37.6108C292.482 37.0415 291.661 36.7568 290.543 36.7568C289.63 36.7568 288.755 36.8911 287.917 37.1597C287.079 37.4282 286.273 37.7451 285.5 38.1104L284.275 35.4033C285.242 34.8984 286.3 34.5171 287.45 34.2593C288.599 33.9907 289.684 33.8564 290.705 33.8564C292.971 33.8564 294.679 34.3506 295.829 35.3389C296.989 36.3271 297.569 37.8794 297.569 39.9956V52H294.862ZM289.222 49.4219C290.597 49.4219 291.698 49.0405 292.525 48.2778C293.363 47.5044 293.782 46.4248 293.782 45.0391V43.4922L291.494 43.5889C289.711 43.6533 288.411 43.9541 287.595 44.4912C286.789 45.0176 286.386 45.8286 286.386 46.9243C286.386 47.7192 286.623 48.3369 287.095 48.7773C287.568 49.207 288.277 49.4219 289.222 49.4219ZM314.826 46.9243C314.826 48.6646 314.192 50.002 312.925 50.9365C311.657 51.8604 309.842 52.3223 307.479 52.3223C305.104 52.3223 303.198 51.9624 301.758 51.2427V47.9717C303.853 48.9385 305.803 49.4219 307.607 49.4219C309.938 49.4219 311.104 48.7183 311.104 47.311C311.104 46.8599 310.975 46.4839 310.717 46.1831C310.459 45.8823 310.035 45.5708 309.444 45.2485C308.854 44.9263 308.032 44.561 306.979 44.1528C304.927 43.3579 303.536 42.563 302.806 41.7681C302.086 40.9731 301.726 39.9419 301.726 38.6743C301.726 37.1489 302.338 35.9673 303.563 35.1294C304.798 34.2808 306.474 33.8564 308.59 33.8564C310.685 33.8564 312.667 34.2808 314.536 35.1294L313.312 37.9814C311.389 37.1865 309.772 36.7891 308.461 36.7891C306.463 36.7891 305.464 37.3584 305.464 38.4971C305.464 39.0557 305.722 39.5283 306.238 39.915C306.764 40.3018 307.903 40.8335 309.654 41.5103C311.125 42.0796 312.194 42.6006 312.86 43.0732C313.526 43.5459 314.021 44.0938 314.343 44.7168C314.665 45.3291 314.826 46.0649 314.826 46.9243ZM343.186 52H339.383V41.043C339.383 39.668 339.104 38.6421 338.545 37.9653C337.997 37.2886 337.122 36.9502 335.918 36.9502C334.329 36.9502 333.158 37.4282 332.406 38.3843C331.665 39.3296 331.294 40.9194 331.294 43.1538V52H327.507V26.9277H331.294V33.2925C331.294 34.313 331.229 35.4033 331.101 36.5635H331.342C331.858 35.7041 332.572 35.0381 333.485 34.5654C334.409 34.0928 335.483 33.8564 336.708 33.8564C341.026 33.8564 343.186 36.0317 343.186 40.3823V52ZM364.262 43.0571C364.262 45.9683 363.515 48.2402 362.022 49.873C360.529 51.5059 358.45 52.3223 355.786 52.3223C354.121 52.3223 352.649 51.9463 351.371 51.1943C350.093 50.4424 349.11 49.3628 348.422 47.9556C347.735 46.5483 347.391 44.9155 347.391 43.0571C347.391 40.1675 348.132 37.9116 349.615 36.2896C351.097 34.6675 353.187 33.8564 355.883 33.8564C358.461 33.8564 360.502 34.689 362.006 36.354C363.51 38.0083 364.262 40.2427 364.262 43.0571ZM351.291 43.0571C351.291 47.1714 352.811 49.2285 355.851 49.2285C358.858 49.2285 360.362 47.1714 360.362 43.0571C360.362 38.9858 358.848 36.9502 355.818 36.9502C354.229 36.9502 353.074 37.4766 352.354 38.5293C351.645 39.582 351.291 41.0913 351.291 43.0571ZM377.668 33.8564C378.431 33.8564 379.059 33.9102 379.553 34.0176L379.183 37.5464C378.646 37.4175 378.087 37.353 377.507 37.353C375.992 37.353 374.762 37.8472 373.817 38.8354C372.882 39.8237 372.415 41.1074 372.415 42.6865V52H368.628V34.1787H371.593L372.093 37.3208H372.286C372.877 36.2573 373.645 35.4141 374.59 34.791C375.546 34.168 376.572 33.8564 377.668 33.8564ZM397.89 52H394.087V41.0107C394.087 39.6465 393.83 38.6313 393.314 37.9653C392.798 37.2886 391.993 36.9502 390.897 36.9502C389.436 36.9502 388.362 37.4282 387.674 38.3843C386.998 39.3296 386.659 40.9087 386.659 43.1216V52H382.873V34.1787H385.837L386.369 36.5151H386.562C387.057 35.6665 387.771 35.0112 388.706 34.5493C389.651 34.0874 390.688 33.8564 391.815 33.8564C394.555 33.8564 396.37 34.791 397.262 36.6602H397.52C398.046 35.7793 398.787 35.0918 399.743 34.5977C400.699 34.1035 401.795 33.8564 403.03 33.8564C405.157 33.8564 406.704 34.3936 407.671 35.4678C408.648 36.542 409.137 38.1802 409.137 40.3823V52H405.351V41.0107C405.351 39.6465 405.087 38.6313 404.561 37.9653C404.045 37.2886 403.24 36.9502 402.144 36.9502C400.672 36.9502 399.593 37.4121 398.905 38.3359C398.229 39.249 397.89 40.6562 397.89 42.5576V52ZM418.209 52H414.422V34.1787H418.209V52ZM414.197 29.4575C414.197 28.7808 414.379 28.2598 414.745 27.8945C415.121 27.5293 415.652 27.3467 416.34 27.3467C417.006 27.3467 417.521 27.5293 417.887 27.8945C418.263 28.2598 418.451 28.7808 418.451 29.4575C418.451 30.1021 418.263 30.6123 417.887 30.9883C417.521 31.3535 417.006 31.5361 416.34 31.5361C415.652 31.5361 415.121 31.3535 414.745 30.9883C414.379 30.6123 414.197 30.1021 414.197 29.4575ZM438.689 34.1787V36.2573L435.644 36.8213C435.923 37.1973 436.154 37.6592 436.336 38.207C436.519 38.7549 436.61 39.335 436.61 39.9473C436.61 41.7842 435.977 43.229 434.709 44.2817C433.441 45.3345 431.696 45.8608 429.472 45.8608C428.903 45.8608 428.387 45.8179 427.925 45.7319C427.109 46.2368 426.701 46.8276 426.701 47.5044C426.701 47.9126 426.889 48.2188 427.265 48.4229C427.651 48.627 428.355 48.729 429.375 48.729H432.485C434.451 48.729 435.944 49.1479 436.965 49.9858C437.985 50.8237 438.496 52.0322 438.496 53.6113C438.496 55.6309 437.663 57.1885 435.998 58.2842C434.333 59.3799 431.927 59.9277 428.779 59.9277C426.352 59.9277 424.499 59.498 423.22 58.6387C421.942 57.7793 421.303 56.5547 421.303 54.9648C421.303 53.8691 421.646 52.9453 422.334 52.1934C423.032 51.4521 424.004 50.9365 425.25 50.6465C424.746 50.4316 424.327 50.0879 423.994 49.6152C423.671 49.1318 423.51 48.627 423.51 48.1006C423.51 47.4346 423.698 46.8706 424.074 46.4087C424.45 45.9468 425.009 45.4902 425.75 45.0391C424.826 44.6416 424.074 43.9971 423.494 43.1055C422.925 42.2031 422.64 41.1504 422.64 39.9473C422.64 38.0137 423.247 36.5151 424.461 35.4517C425.686 34.3882 427.426 33.8564 429.682 33.8564C430.187 33.8564 430.713 33.894 431.261 33.9692C431.819 34.0337 432.238 34.1035 432.518 34.1787H438.689ZM424.687 54.7715C424.687 55.5879 425.052 56.2163 425.782 56.6567C426.523 57.0972 427.56 57.3174 428.892 57.3174C430.955 57.3174 432.491 57.022 433.5 56.4312C434.51 55.8403 435.015 55.0562 435.015 54.0786C435.015 53.3052 434.736 52.752 434.177 52.4189C433.629 52.0967 432.604 51.9355 431.1 51.9355H428.231C427.146 51.9355 426.282 52.188 425.637 52.6929C425.003 53.2085 424.687 53.9014 424.687 54.7715ZM426.314 39.9473C426.314 41.0645 426.599 41.9238 427.168 42.5254C427.748 43.127 428.575 43.4277 429.649 43.4277C431.841 43.4277 432.937 42.2568 432.937 39.915C432.937 38.7549 432.663 37.8633 432.115 37.2402C431.578 36.6064 430.756 36.2896 429.649 36.2896C428.554 36.2896 427.721 36.6011 427.152 37.2241C426.593 37.8472 426.314 38.7549 426.314 39.9473ZM453.159 52L452.401 49.5186H452.272C451.413 50.6035 450.548 51.3447 449.678 51.7422C448.808 52.1289 447.691 52.3223 446.327 52.3223C444.576 52.3223 443.206 51.8496 442.218 50.9043C441.24 49.959 440.751 48.6216 440.751 46.8921C440.751 45.0552 441.434 43.6694 442.798 42.7349C444.162 41.8003 446.241 41.29 449.034 41.2041L452.111 41.1074V40.1567C452.111 39.0181 451.843 38.1694 451.306 37.6108C450.779 37.0415 449.958 36.7568 448.84 36.7568C447.927 36.7568 447.052 36.8911 446.214 37.1597C445.376 37.4282 444.57 37.7451 443.797 38.1104L442.572 35.4033C443.539 34.8984 444.597 34.5171 445.747 34.2593C446.896 33.9907 447.981 33.8564 449.001 33.8564C451.268 33.8564 452.976 34.3506 454.125 35.3389C455.286 36.3271 455.866 37.8794 455.866 39.9956V52H453.159ZM447.519 49.4219C448.894 49.4219 449.995 49.0405 450.822 48.2778C451.66 47.5044 452.079 46.4248 452.079 45.0391V43.4922L449.791 43.5889C448.008 43.6533 446.708 43.9541 445.892 44.4912C445.086 45.0176 444.683 45.8286 444.683 46.9243C444.683 47.7192 444.919 48.3369 445.392 48.7773C445.865 49.207 446.574 49.4219 447.519 49.4219ZM473.123 46.9243C473.123 48.6646 472.489 50.002 471.222 50.9365C469.954 51.8604 468.139 52.3223 465.775 52.3223C463.401 52.3223 461.495 51.9624 460.055 51.2427V47.9717C462.15 48.9385 464.1 49.4219 465.904 49.4219C468.235 49.4219 469.401 48.7183 469.401 47.311C469.401 46.8599 469.272 46.4839 469.014 46.1831C468.756 45.8823 468.332 45.5708 467.741 45.2485C467.15 44.9263 466.329 44.561 465.276 44.1528C463.224 43.3579 461.833 42.563 461.103 41.7681C460.383 40.9731 460.023 39.9419 460.023 38.6743C460.023 37.1489 460.635 35.9673 461.86 35.1294C463.095 34.2808 464.771 33.8564 466.887 33.8564C468.982 33.8564 470.964 34.2808 472.833 35.1294L471.608 37.9814C469.686 37.1865 468.069 36.7891 466.758 36.7891C464.76 36.7891 463.761 37.3584 463.761 38.4971C463.761 39.0557 464.019 39.5283 464.535 39.915C465.061 40.3018 466.2 40.8335 467.951 41.5103C469.422 42.0796 470.491 42.6006 471.157 43.0732C471.823 43.5459 472.317 44.0938 472.64 44.7168C472.962 45.3291 473.123 46.0649 473.123 46.9243ZM480.503 44.8457H477.699L476.861 28.4424H481.325L480.503 44.8457ZM476.668 49.9858C476.668 49.1909 476.877 48.5894 477.296 48.1812C477.715 47.7622 478.312 47.5527 479.085 47.5527C479.848 47.5527 480.433 47.7676 480.841 48.1973C481.25 48.627 481.454 49.2231 481.454 49.9858C481.454 50.7485 481.244 51.3555 480.825 51.8066C480.417 52.2471 479.837 52.4673 479.085 52.4673C478.322 52.4673 477.726 52.2524 477.296 51.8228C476.877 51.3931 476.668 50.7808 476.668 49.9858Z" fill="white"/>
</svg>
