<svg width="351" height="97" viewBox="0 0 351 97" fill="none" xmlns="http://www.w3.org/2000/svg">
<path d="M184.775 67.0115C184.775 67.0115 179.591 76.6373 173.134 82.5134C161.02 93.5374 143.204 96.8927 143.204 96.8927C143.204 96.8927 168.848 79.9576 169.725 67.0115C170.088 61.6457 168.404 61.7965 168.404 61.7965L184.775 67.0115Z" fill="#00A5A5"/>
<path d="M330.976 38.2376C331.493 14.907 323.6 3.01577 296.757 1.87016C266.702 0.586104 65.6468 -1.84812 33.792 2.38287C9.3931 5.62344 7.09262 64.9395 36.7571 68.3003C68.9285 71.944 270.918 74.5578 309.49 67.8606C328.504 64.5592 330.68 51.6456 330.976 38.2376Z" fill="#00A5A5"/>
<path d="M52.2656 34.6069H55.0693L55.8911 50.978H51.4277L52.2656 34.6069ZM56.0845 29.4507C56.0845 30.2456 55.8804 30.8525 55.4722 31.2715C55.0747 31.6904 54.4785 31.8999 53.6836 31.8999C52.9102 31.8999 52.3193 31.6904 51.9111 31.2715C51.5029 30.8418 51.2988 30.2349 51.2988 29.4507C51.2988 28.7095 51.5029 28.1133 51.9111 27.6621C52.3193 27.2109 52.9102 26.9854 53.6836 26.9854C54.457 26.9854 55.0479 27.2056 55.4561 27.646C55.875 28.0757 56.0845 28.6772 56.0845 29.4507ZM74.8081 21.4424H78.8042L70.5542 45H66.4937L58.2759 21.4424H62.2397L67.1543 36.0894C67.4121 36.7876 67.686 37.6899 67.9761 38.7964C68.2661 39.8921 68.4541 40.7085 68.54 41.2456C68.6797 40.4292 68.8945 39.4839 69.1846 38.4097C69.4746 37.3354 69.7109 36.5405 69.8936 36.0249L74.8081 21.4424ZM94.0796 45L93.5479 42.6636H93.3545C92.8281 43.4907 92.0762 44.1406 91.0986 44.6133C90.1318 45.0859 89.0254 45.3223 87.7793 45.3223C85.6201 45.3223 84.0088 44.7852 82.9453 43.7109C81.8818 42.6367 81.3501 41.0093 81.3501 38.8286V27.1787H85.1689V38.168C85.1689 39.5322 85.4482 40.5581 86.0068 41.2456C86.5654 41.9224 87.4409 42.2607 88.6333 42.2607C90.2231 42.2607 91.3887 41.7881 92.1299 40.8428C92.8818 39.8867 93.2578 38.2915 93.2578 36.0571V27.1787H97.0605V45H94.0796ZM110.241 45.3223C107.47 45.3223 105.3 44.5166 103.731 42.9053C102.174 41.2832 101.395 39.0542 101.395 36.2183C101.395 33.3071 102.12 31.019 103.57 29.354C105.021 27.689 107.013 26.8564 109.548 26.8564C111.901 26.8564 113.759 27.5708 115.124 28.9995C116.488 30.4282 117.17 32.394 117.17 34.897V36.9434H105.294C105.348 38.6729 105.815 40.0049 106.696 40.9395C107.577 41.8633 108.818 42.3252 110.418 42.3252C111.471 42.3252 112.449 42.2285 113.351 42.0352C114.264 41.8311 115.242 41.498 116.284 41.0361V44.1138C115.36 44.5542 114.425 44.8657 113.48 45.0483C112.535 45.231 111.455 45.3223 110.241 45.3223ZM109.548 29.7246C108.345 29.7246 107.378 30.106 106.648 30.8687C105.928 31.6313 105.499 32.7432 105.359 34.2041H113.448C113.426 32.7324 113.072 31.6206 112.384 30.8687C111.697 30.106 110.751 29.7246 109.548 29.7246ZM125.259 45H121.472V19.9277H125.259V45ZM134.75 45L127.982 27.1787H131.978L135.604 37.5396C136.227 39.2798 136.603 40.687 136.731 41.7612H136.86C136.957 40.9878 137.333 39.5806 137.988 37.5396L141.614 27.1787H145.642L138.842 45H134.75ZM159.5 45L158.742 42.5186H158.613C157.754 43.6035 156.889 44.3447 156.019 44.7422C155.149 45.1289 154.032 45.3223 152.667 45.3223C150.917 45.3223 149.547 44.8496 148.559 43.9043C147.581 42.959 147.092 41.6216 147.092 39.8921C147.092 38.0552 147.774 36.6694 149.139 35.7349C150.503 34.8003 152.582 34.29 155.375 34.2041L158.452 34.1074V33.1567C158.452 32.0181 158.184 31.1694 157.646 30.6108C157.12 30.0415 156.298 29.7568 155.181 29.7568C154.268 29.7568 153.393 29.8911 152.555 30.1597C151.717 30.4282 150.911 30.7451 150.138 31.1104L148.913 28.4033C149.88 27.8984 150.938 27.5171 152.087 27.2593C153.237 26.9907 154.322 26.8564 155.342 26.8564C157.609 26.8564 159.317 27.3506 160.466 28.3389C161.626 29.3271 162.207 30.8794 162.207 32.9956V45H159.5ZM153.86 42.4219C155.235 42.4219 156.336 42.0405 157.163 41.2778C158.001 40.5044 158.42 39.4248 158.42 38.0391V36.4922L156.132 36.5889C154.349 36.6533 153.049 36.9541 152.232 37.4912C151.427 38.0176 151.024 38.8286 151.024 39.9243C151.024 40.7192 151.26 41.3369 151.733 41.7773C152.206 42.207 152.915 42.4219 153.86 42.4219ZM183.17 45H179.367V34.043C179.367 32.668 179.088 31.6421 178.529 30.9653C177.981 30.2886 177.106 29.9502 175.903 29.9502C174.302 29.9502 173.131 30.4229 172.39 31.3682C171.649 32.3135 171.278 33.8979 171.278 36.1216V45H167.492V27.1787H170.457L170.988 29.5151H171.182C171.719 28.6665 172.481 28.0112 173.47 27.5493C174.458 27.0874 175.554 26.8564 176.757 26.8564C181.032 26.8564 183.17 29.0317 183.17 33.3823V45ZM208.162 45L207.404 42.5186H207.275C206.416 43.6035 205.551 44.3447 204.681 44.7422C203.811 45.1289 202.694 45.3223 201.33 45.3223C199.579 45.3223 198.209 44.8496 197.221 43.9043C196.243 42.959 195.754 41.6216 195.754 39.8921C195.754 38.0552 196.437 36.6694 197.801 35.7349C199.165 34.8003 201.244 34.29 204.037 34.2041L207.114 34.1074V33.1567C207.114 32.0181 206.846 31.1694 206.309 30.6108C205.782 30.0415 204.96 29.7568 203.843 29.7568C202.93 29.7568 202.055 29.8911 201.217 30.1597C200.379 30.4282 199.573 30.7451 198.8 31.1104L197.575 28.4033C198.542 27.8984 199.6 27.5171 200.75 27.2593C201.899 26.9907 202.984 26.8564 204.004 26.8564C206.271 26.8564 207.979 27.3506 209.128 28.3389C210.289 29.3271 210.869 30.8794 210.869 32.9956V45H208.162ZM202.522 42.4219C203.897 42.4219 204.998 42.0405 205.825 41.2778C206.663 40.5044 207.082 39.4248 207.082 38.0391V36.4922L204.794 36.5889C203.011 36.6533 201.711 36.9541 200.895 37.4912C200.089 38.0176 199.686 38.8286 199.686 39.9243C199.686 40.7192 199.922 41.3369 200.395 41.7773C200.868 42.207 201.577 42.4219 202.522 42.4219ZM231.913 45.3223C229.216 45.3223 227.165 44.5381 225.757 42.9697C224.361 41.3906 223.663 39.1294 223.663 36.186C223.663 33.189 224.393 30.8848 225.854 29.2734C227.326 27.6621 229.447 26.8564 232.219 26.8564C234.099 26.8564 235.791 27.2056 237.294 27.9038L236.15 30.9492C234.55 30.3262 233.229 30.0146 232.187 30.0146C229.104 30.0146 227.562 32.061 227.562 36.1538C227.562 38.1519 227.943 39.6558 228.706 40.6655C229.479 41.6646 230.607 42.1641 232.09 42.1641C233.776 42.1641 235.372 41.7451 236.875 40.9072V44.2104C236.199 44.6079 235.474 44.8926 234.7 45.0645C233.938 45.2363 233.008 45.3223 231.913 45.3223ZM252.215 45L251.458 42.5186H251.329C250.47 43.6035 249.605 44.3447 248.735 44.7422C247.865 45.1289 246.748 45.3223 245.383 45.3223C243.632 45.3223 242.263 44.8496 241.274 43.9043C240.297 42.959 239.808 41.6216 239.808 39.8921C239.808 38.0552 240.49 36.6694 241.854 35.7349C243.219 34.8003 245.297 34.29 248.09 34.2041L251.168 34.1074V33.1567C251.168 32.0181 250.899 31.1694 250.362 30.6108C249.836 30.0415 249.014 29.7568 247.897 29.7568C246.984 29.7568 246.108 29.8911 245.271 30.1597C244.433 30.4282 243.627 30.7451 242.854 31.1104L241.629 28.4033C242.596 27.8984 243.654 27.5171 244.803 27.2593C245.953 26.9907 247.038 26.8564 248.058 26.8564C250.325 26.8564 252.033 27.3506 253.182 28.3389C254.342 29.3271 254.922 30.8794 254.922 32.9956V45H252.215ZM246.576 42.4219C247.951 42.4219 249.052 42.0405 249.879 41.2778C250.717 40.5044 251.136 39.4248 251.136 38.0391V36.4922L248.848 36.5889C247.064 36.6533 245.765 36.9541 244.948 37.4912C244.143 38.0176 243.74 38.8286 243.74 39.9243C243.74 40.7192 243.976 41.3369 244.449 41.7773C244.921 42.207 245.63 42.4219 246.576 42.4219ZM272.18 39.9243C272.18 41.6646 271.546 43.002 270.278 43.9365C269.011 44.8604 267.195 45.3223 264.832 45.3223C262.458 45.3223 260.551 44.9624 259.112 44.2427V40.9717C261.207 41.9385 263.156 42.4219 264.961 42.4219C267.292 42.4219 268.458 41.7183 268.458 40.311C268.458 39.8599 268.329 39.4839 268.071 39.1831C267.813 38.8823 267.389 38.5708 266.798 38.2485C266.207 37.9263 265.385 37.561 264.333 37.1528C262.281 36.3579 260.89 35.563 260.159 34.7681C259.439 33.9731 259.08 32.9419 259.08 31.6743C259.08 30.1489 259.692 28.9673 260.917 28.1294C262.152 27.2808 263.828 26.8564 265.944 26.8564C268.039 26.8564 270.021 27.2808 271.89 28.1294L270.665 30.9814C268.742 30.1865 267.125 29.7891 265.815 29.7891C263.817 29.7891 262.818 30.3584 262.818 31.4971C262.818 32.0557 263.076 32.5283 263.591 32.915C264.118 33.3018 265.256 33.8335 267.007 34.5103C268.479 35.0796 269.548 35.6006 270.214 36.0732C270.88 36.5459 271.374 37.0938 271.696 37.7168C272.019 38.3291 272.18 39.0649 272.18 39.9243ZM287.439 45L286.682 42.5186H286.553C285.693 43.6035 284.829 44.3447 283.958 44.7422C283.088 45.1289 281.971 45.3223 280.607 45.3223C278.856 45.3223 277.486 44.8496 276.498 43.9043C275.521 42.959 275.032 41.6216 275.032 39.8921C275.032 38.0552 275.714 36.6694 277.078 35.7349C278.442 34.8003 280.521 34.29 283.314 34.2041L286.392 34.1074V33.1567C286.392 32.0181 286.123 31.1694 285.586 30.6108C285.06 30.0415 284.238 29.7568 283.121 29.7568C282.208 29.7568 281.332 29.8911 280.494 30.1597C279.656 30.4282 278.851 30.7451 278.077 31.1104L276.853 28.4033C277.819 27.8984 278.877 27.5171 280.027 27.2593C281.176 26.9907 282.261 26.8564 283.282 26.8564C285.548 26.8564 287.256 27.3506 288.406 28.3389C289.566 29.3271 290.146 30.8794 290.146 32.9956V45H287.439ZM281.799 42.4219C283.174 42.4219 284.275 42.0405 285.103 41.2778C285.94 40.5044 286.359 39.4248 286.359 38.0391V36.4922L284.071 36.5889C282.288 36.6533 280.988 36.9541 280.172 37.4912C279.366 38.0176 278.963 38.8286 278.963 39.9243C278.963 40.7192 279.2 41.3369 279.672 41.7773C280.145 42.207 280.854 42.4219 281.799 42.4219ZM298.702 37.8457H295.898L295.061 21.4424H299.524L298.702 37.8457ZM294.867 42.9858C294.867 42.1909 295.077 41.5894 295.496 41.1812C295.915 40.7622 296.511 40.5527 297.284 40.5527C298.047 40.5527 298.632 40.7676 299.041 41.1973C299.449 41.627 299.653 42.2231 299.653 42.9858C299.653 43.7485 299.443 44.3555 299.024 44.8066C298.616 45.2471 298.036 45.4673 297.284 45.4673C296.521 45.4673 295.925 45.2524 295.496 44.8228C295.077 44.3931 294.867 43.7808 294.867 42.9858Z" fill="white"/>
</svg>
