<svg width="411" height="106" viewBox="0 0 411 106" fill="none" xmlns="http://www.w3.org/2000/svg">
<path d="M207.351 72.8204C207.351 72.8204 212.914 83.1268 219.843 89.4184C232.843 101.222 251.961 104.814 251.961 104.814C251.961 104.814 224.443 86.6819 223.501 72.8204C223.112 67.0752 224.919 67.2366 224.919 67.2366L207.351 72.8204Z" fill="#00A5A5"/>
<path d="M22.0289 42.424C21.3946 17.1492 31.0858 4.26708 64.0457 3.02601C100.948 1.63495 347.813 -1.00214 386.926 3.58144C416.884 7.09206 419.709 71.3512 383.286 74.992C343.784 78.9394 95.7713 81.7709 48.4114 74.5157C25.0649 70.9391 22.3926 56.9494 22.0289 42.424Z" fill="#00A5A5"/>
<path d="M80.4434 41.6069H83.2471L84.0688 57.978H79.6055L80.4434 41.6069ZM84.2622 36.4507C84.2622 37.2456 84.0581 37.8525 83.6499 38.2715C83.2524 38.6904 82.6562 38.8999 81.8613 38.8999C81.0879 38.8999 80.4971 38.6904 80.0889 38.2715C79.6807 37.8418 79.4766 37.2349 79.4766 36.4507C79.4766 35.7095 79.6807 35.1133 80.0889 34.6621C80.4971 34.2109 81.0879 33.9854 81.8613 33.9854C82.6348 33.9854 83.2256 34.2056 83.6338 34.646C84.0527 35.0757 84.2622 35.6772 84.2622 36.4507ZM104.178 52L101.826 45.458H92.8184L90.5142 52H86.4536L95.2676 28.3457H99.457L108.271 52H104.178ZM100.811 42.1387L98.603 35.7256C98.4419 35.2959 98.2163 34.6191 97.9263 33.6953C97.647 32.7715 97.4536 32.0947 97.3462 31.665C97.0562 32.9863 96.6318 34.4312 96.0732 35.9995L93.9463 42.1387H100.811ZM118.036 49.293C119.625 49.293 120.764 48.8364 121.452 47.9233C122.15 46.9995 122.499 45.6084 122.499 43.75V43.1538C122.499 40.9517 122.139 39.3672 121.419 38.4004C120.71 37.4336 119.561 36.9502 117.971 36.9502C116.618 36.9502 115.586 37.4873 114.877 38.5615C114.168 39.6357 113.814 41.1772 113.814 43.186C113.814 47.2573 115.221 49.293 118.036 49.293ZM116.956 52.3223C114.754 52.3223 113.03 51.5166 111.784 49.9053C110.538 48.2832 109.915 46.022 109.915 43.1216C109.915 40.2212 110.548 37.9546 111.816 36.3218C113.083 34.6782 114.829 33.8564 117.053 33.8564C118.17 33.8564 119.169 34.0659 120.05 34.4849C120.941 34.8931 121.736 35.5698 122.435 36.5151H122.563L122.982 34.1787H126.125V59.9277H122.322V52.3706C122.322 51.8979 122.343 51.3984 122.386 50.8721C122.429 50.3457 122.467 49.9429 122.499 49.6636H122.29C121.172 51.436 119.395 52.3223 116.956 52.3223ZM144.107 52L143.575 49.6636H143.382C142.855 50.4907 142.104 51.1406 141.126 51.6133C140.159 52.0859 139.053 52.3223 137.807 52.3223C135.647 52.3223 134.036 51.7852 132.973 50.7109C131.909 49.6367 131.377 48.0093 131.377 45.8286V34.1787H135.196V45.168C135.196 46.5322 135.476 47.5581 136.034 48.2456C136.593 48.9224 137.468 49.2607 138.661 49.2607C140.25 49.2607 141.416 48.7881 142.157 47.8428C142.909 46.8867 143.285 45.2915 143.285 43.0571V34.1787H147.088V52H144.107ZM156.272 52H152.486V34.1787H156.272V52ZM152.292 32.0034V31.6006C152.905 30.8486 153.533 30.0107 154.178 29.0869C154.833 28.1631 155.349 27.3735 155.725 26.7183H160.124V27.0566C159.565 27.7119 158.727 28.5605 157.61 29.6025C156.503 30.6338 155.569 31.4341 154.806 32.0034H152.292ZM178.058 52.3223C175.286 52.3223 173.116 51.5166 171.548 49.9053C169.99 48.2832 169.211 46.0542 169.211 43.2183C169.211 40.3071 169.937 38.019 171.387 36.354C172.837 34.689 174.83 33.8564 177.365 33.8564C179.717 33.8564 181.576 34.5708 182.94 35.9995C184.304 37.4282 184.986 39.394 184.986 41.897V43.9434H173.111C173.165 45.6729 173.632 47.0049 174.513 47.9395C175.394 48.8633 176.634 49.3252 178.235 49.3252C179.288 49.3252 180.265 49.2285 181.167 49.0352C182.081 48.8311 183.058 48.498 184.1 48.0361V51.1138C183.176 51.5542 182.242 51.8657 181.296 52.0483C180.351 52.231 179.271 52.3223 178.058 52.3223ZM177.365 36.7246C176.162 36.7246 175.195 37.106 174.464 37.8687C173.745 38.6313 173.315 39.7432 173.175 41.2041H181.264C181.243 39.7324 180.888 38.6206 180.201 37.8687C179.513 37.106 178.568 36.7246 177.365 36.7246ZM201.261 46.9243C201.261 48.6646 200.627 50.002 199.359 50.9365C198.092 51.8604 196.276 52.3223 193.913 52.3223C191.539 52.3223 189.632 51.9624 188.193 51.2427V47.9717C190.288 48.9385 192.237 49.4219 194.042 49.4219C196.373 49.4219 197.539 48.7183 197.539 47.311C197.539 46.8599 197.41 46.4839 197.152 46.1831C196.894 45.8823 196.47 45.5708 195.879 45.2485C195.288 44.9263 194.466 44.561 193.414 44.1528C191.362 43.3579 189.971 42.563 189.24 41.7681C188.521 40.9731 188.161 39.9419 188.161 38.6743C188.161 37.1489 188.773 35.9673 189.998 35.1294C191.233 34.2808 192.909 33.8564 195.025 33.8564C197.12 33.8564 199.102 34.2808 200.971 35.1294L199.746 37.9814C197.823 37.1865 196.207 36.7891 194.896 36.7891C192.898 36.7891 191.899 37.3584 191.899 38.4971C191.899 39.0557 192.157 39.5283 192.672 39.915C193.199 40.3018 194.337 40.8335 196.088 41.5103C197.56 42.0796 198.629 42.6006 199.295 43.0732C199.961 43.5459 200.455 44.0938 200.777 44.7168C201.1 45.3291 201.261 46.0649 201.261 46.9243ZM212.008 49.2607C212.932 49.2607 213.856 49.1157 214.78 48.8257V51.6777C214.361 51.8604 213.818 52.0107 213.152 52.1289C212.497 52.2578 211.815 52.3223 211.106 52.3223C207.518 52.3223 205.724 50.4316 205.724 46.6504V37.0469H203.291V35.3711L205.901 33.9854L207.19 30.2148H209.527V34.1787H214.603V37.0469H209.527V46.5859C209.527 47.499 209.752 48.1758 210.204 48.6162C210.666 49.0459 211.267 49.2607 212.008 49.2607ZM229.507 52L228.75 49.5186H228.621C227.762 50.6035 226.897 51.3447 226.027 51.7422C225.157 52.1289 224.04 52.3223 222.675 52.3223C220.924 52.3223 219.555 51.8496 218.566 50.9043C217.589 49.959 217.1 48.6216 217.1 46.8921C217.1 45.0552 217.782 43.6694 219.146 42.7349C220.511 41.8003 222.589 41.29 225.382 41.2041L228.46 41.1074V40.1567C228.46 39.0181 228.191 38.1694 227.654 37.6108C227.128 37.0415 226.306 36.7568 225.189 36.7568C224.276 36.7568 223.4 36.8911 222.562 37.1597C221.725 37.4282 220.919 37.7451 220.146 38.1104L218.921 35.4033C219.888 34.8984 220.946 34.5171 222.095 34.2593C223.245 33.9907 224.33 33.8564 225.35 33.8564C227.617 33.8564 229.325 34.3506 230.474 35.3389C231.634 36.3271 232.214 37.8794 232.214 39.9956V52H229.507ZM223.868 49.4219C225.243 49.4219 226.344 49.0405 227.171 48.2778C228.009 47.5044 228.428 46.4248 228.428 45.0391V43.4922L226.14 43.5889C224.356 43.6533 223.057 43.9541 222.24 44.4912C221.435 45.0176 221.032 45.8286 221.032 46.9243C221.032 47.7192 221.268 48.3369 221.741 48.7773C222.213 49.207 222.922 49.4219 223.868 49.4219ZM222.708 32.0034V31.6006C223.32 30.8486 223.948 30.0107 224.593 29.0869C225.248 28.1631 225.764 27.3735 226.14 26.7183H230.539V27.0566C229.98 27.7119 229.142 28.5605 228.025 29.6025C226.918 30.6338 225.984 31.4341 225.221 32.0034H222.708ZM249.858 52H246.072V26.9277H249.858V52ZM266.439 52L265.682 49.5186H265.553C264.693 50.6035 263.829 51.3447 262.958 51.7422C262.088 52.1289 260.971 52.3223 259.607 52.3223C257.856 52.3223 256.486 51.8496 255.498 50.9043C254.521 49.959 254.032 48.6216 254.032 46.8921C254.032 45.0552 254.714 43.6694 256.078 42.7349C257.442 41.8003 259.521 41.29 262.314 41.2041L265.392 41.1074V40.1567C265.392 39.0181 265.123 38.1694 264.586 37.6108C264.06 37.0415 263.238 36.7568 262.121 36.7568C261.208 36.7568 260.332 36.8911 259.494 37.1597C258.656 37.4282 257.851 37.7451 257.077 38.1104L255.853 35.4033C256.819 34.8984 257.877 34.5171 259.027 34.2593C260.176 33.9907 261.261 33.8564 262.282 33.8564C264.548 33.8564 266.256 34.3506 267.406 35.3389C268.566 36.3271 269.146 37.8794 269.146 39.9956V52H266.439ZM260.799 49.4219C262.174 49.4219 263.275 49.0405 264.103 48.2778C264.94 47.5044 265.359 46.4248 265.359 45.0391V43.4922L263.071 43.5889C261.288 43.6533 259.988 43.9541 259.172 44.4912C258.366 45.0176 257.963 45.8286 257.963 46.9243C257.963 47.7192 258.2 48.3369 258.672 48.7773C259.145 49.207 259.854 49.4219 260.799 49.4219ZM286.79 52H283.003V26.9277H286.79V52ZM296.007 52H292.22V26.9277H296.007V52ZM312.587 52L311.83 49.5186H311.701C310.842 50.6035 309.977 51.3447 309.107 51.7422C308.237 52.1289 307.12 52.3223 305.755 52.3223C304.004 52.3223 302.635 51.8496 301.646 50.9043C300.669 49.959 300.18 48.6216 300.18 46.8921C300.18 45.0552 300.862 43.6694 302.227 42.7349C303.591 41.8003 305.669 41.29 308.462 41.2041L311.54 41.1074V40.1567C311.54 39.0181 311.271 38.1694 310.734 37.6108C310.208 37.0415 309.386 36.7568 308.269 36.7568C307.356 36.7568 306.48 36.8911 305.643 37.1597C304.805 37.4282 303.999 37.7451 303.226 38.1104L302.001 35.4033C302.968 34.8984 304.026 34.5171 305.175 34.2593C306.325 33.9907 307.41 33.8564 308.43 33.8564C310.697 33.8564 312.405 34.3506 313.554 35.3389C314.714 36.3271 315.294 37.8794 315.294 39.9956V52H312.587ZM306.948 49.4219C308.323 49.4219 309.424 49.0405 310.251 48.2778C311.089 47.5044 311.508 46.4248 311.508 45.0391V43.4922L309.22 43.5889C307.437 43.6533 306.137 43.9541 305.32 44.4912C304.515 45.0176 304.112 45.8286 304.112 46.9243C304.112 47.7192 304.348 48.3369 304.821 48.7773C305.293 49.207 306.002 49.4219 306.948 49.4219ZM324.64 52L317.873 34.1787H321.869L325.494 44.5396C326.117 46.2798 326.493 47.687 326.622 48.7612H326.751C326.848 47.9878 327.224 46.5806 327.879 44.5396L331.504 34.1787H335.533L328.733 52H324.64ZM346.022 52.3223C343.251 52.3223 341.081 51.5166 339.513 49.9053C337.955 48.2832 337.176 46.0542 337.176 43.2183C337.176 40.3071 337.901 38.019 339.352 36.354C340.802 34.689 342.794 33.8564 345.33 33.8564C347.682 33.8564 349.541 34.5708 350.905 35.9995C352.269 37.4282 352.951 39.394 352.951 41.897V43.9434H341.076C341.129 45.6729 341.597 47.0049 342.478 47.9395C343.358 48.8633 344.599 49.3252 346.2 49.3252C347.252 49.3252 348.23 49.2285 349.132 49.0352C350.045 48.8311 351.023 48.498 352.065 48.0361V51.1138C351.141 51.5542 350.207 51.8657 349.261 52.0483C348.316 52.231 347.236 52.3223 346.022 52.3223ZM345.33 36.7246C344.126 36.7246 343.16 37.106 342.429 37.8687C341.709 38.6313 341.28 39.7432 341.14 41.2041H349.229C349.208 39.7324 348.853 38.6206 348.166 37.8687C347.478 37.106 346.533 36.7246 345.33 36.7246ZM360.524 44.8457H357.721L356.883 28.4424H361.346L360.524 44.8457ZM356.689 49.9858C356.689 49.1909 356.899 48.5894 357.318 48.1812C357.737 47.7622 358.333 47.5527 359.106 47.5527C359.869 47.5527 360.455 47.7676 360.863 48.1973C361.271 48.627 361.475 49.2231 361.475 49.9858C361.475 50.7485 361.266 51.3555 360.847 51.8066C360.438 52.2471 359.858 52.4673 359.106 52.4673C358.344 52.4673 357.748 52.2524 357.318 51.8228C356.899 51.3931 356.689 50.7808 356.689 49.9858Z" fill="white"/>
</svg>
