<svg width="930" height="361" viewBox="0 0 930 361" fill="none" xmlns="http://www.w3.org/2000/svg">
<path d="M215.341 199.627C215.341 199.627 219.779 208.382 223.427 216.286C227.105 224.159 228.838 234.708 228.321 237.291C227.835 239.875 219.232 249.208 223.123 251.792C225.616 253.433 230.054 249.147 230.054 249.147C230.054 249.147 230.997 253.98 233.58 255.804C237.38 258.54 238.14 248.691 238.14 248.691C238.14 248.691 242.001 260.06 248.02 255.835C251.668 253.281 248.354 246.35 240.238 233.674C231.483 219.934 226.71 185.248 226.71 185.248" fill="#F39200"/>
<path d="M237.108 343.232C238.932 343.049 236.104 342.806 238.293 342.988C238.05 343.201 237.685 343.384 237.108 343.232Z" fill="#DAD8CC"/>
<path d="M203.427 354.297C206.406 354.418 210.054 353.415 213.307 354.874C215.07 355.999 207.865 356.638 205.798 357.458C205.038 357.61 205.89 356.668 204.218 357.063C198.047 358.887 187.924 358.309 180.324 357.033L180.81 356.85C179.351 356.638 177.527 357.245 176.007 357.002C176.007 356.85 176.524 356.85 176.19 356.607C175.764 357.002 173.363 356.607 172.694 356.881C172.086 356.668 172.177 356.334 171.417 356.06L170.475 356.455C167.891 357.397 164.517 355.756 161.112 355.908C161.294 355.817 161.629 355.756 161.386 355.634C155.914 355.574 149.226 354.327 143.268 353.05C143.541 352.959 143.845 352.716 143.541 352.412C143.116 352.838 141.292 352.442 139.681 352.078C139.133 351.348 136.854 351.622 135.151 350.619L135.364 350.588C134.026 349.737 133.145 350.983 132.659 347.822L133.662 348.065C134.118 347.244 135.79 348.065 136.854 347.487L136.793 347.335C137.857 347.001 138.495 347.153 139.498 347.001L139.589 347.062C141.961 346.697 143.389 347.031 143.298 346.454C144.18 346.849 140.988 346.819 142.356 347.427C150.138 346.18 158.285 346.545 166.189 346.636C167.07 346.91 167.648 347.001 167.83 347.214C168.62 347.123 170.809 347.214 171.539 346.94C171.265 346.94 172.025 347.244 172.451 347.305C173.879 347.579 174.031 346.727 175.612 347.031C174.974 347.153 174.761 347.335 174.974 347.548C176.342 347.153 178.135 347.305 179.716 347.214C179.473 347.305 179.078 347.335 179.138 347.518C180.902 347.092 182.3 347.761 183.85 347.518L183.273 347.822C185.705 348.339 184.033 347.153 186.13 347.487C185.613 347.579 185.796 347.7 185.705 347.852C187.711 347.335 190.903 347.67 192.879 347.548L192.788 347.67C194.946 347.7 197.165 347.943 199.536 347.761C200.387 347.913 199.232 348.612 201.512 348.491C201.421 347.822 205.373 348.187 204.035 347.427C205.981 347.518 209.051 347.791 210.358 347.579C209.477 347.822 211.301 348.399 209.689 348.46L210.905 348.886C210.723 349.159 209.659 348.795 210.024 349.129C210.845 349.099 213.185 348.886 213.915 348.977C215.435 348.582 216.803 347.852 219.265 347.822C218.11 348.065 219.903 348.582 219.113 348.673L222.548 347.487C223.339 347.487 222.7 348.004 223.886 347.883C223.825 347.7 224.342 347.609 224.706 347.487C225.01 347.579 228.081 347.457 228.415 348.156C228.75 348.43 227.078 348.217 227.959 348.521C229.449 348.582 229.54 348.369 231.029 348.43L231.06 348.521C232.033 348.673 233.978 348.43 232.945 348.004C232.245 347.943 233.188 348.43 232.185 348.156C232.914 347.822 234.647 347.852 236.167 347.974C235.65 348.035 235.68 348.217 235.468 348.399C237.535 348.065 239.693 348.126 242.034 348.278C242.125 347.974 241.091 348.703 240.788 348.521C242.277 349.007 243.615 348.916 245.499 349.676C246.928 349.585 247.749 353.689 245.773 353.902C245.013 354.266 244.314 354.51 243.615 354.631C244.01 354.388 244.01 354.966 243.949 354.874C242.399 355.33 242.368 354.814 241.456 355.209C241.304 354.966 240.301 355.482 239.359 355.695C238.903 355.969 239.085 355.604 239.906 355.452C238.599 355.938 233.431 356.85 230.391 356.668C230.452 356.85 228.598 357.458 227.898 357.489L228.142 357.063C227.503 356.85 225.831 357.245 225.71 356.911C224.281 357.519 231.333 356.09 229.388 356.607C228.841 356.303 226.652 357.458 227.047 356.881C225.679 356.972 224.342 357.519 223.004 357.215C223.399 357.246 224.098 356.577 222.974 356.668C221.028 356.85 222.427 356.881 220.846 357.124L219.873 357.337C219.843 357.732 218.11 357.367 218.87 357.793C218.627 357.489 216.012 358.157 216.195 357.458L216.438 356.911C215.587 357.002 215.07 357.519 214.432 357.793C214.31 357.762 214.097 357.641 214.128 357.58C214.036 358.401 212.091 357.61 211.118 358.279C209.325 358.066 206.589 358.431 205.738 357.975C204.37 358.279 203.154 358.613 201.573 358.492C201.877 358.401 202.302 358.37 202.394 358.188C201.421 357.975 201.178 358.218 200.296 358.37C200.479 358.249 198.32 357.975 197.226 357.732C195.888 358.005 196.375 358.431 196.223 358.705C194.946 357.945 192.392 359.343 190.812 358.674C191.268 358.553 192.788 358.218 191.663 358.066C190.386 357.306 189.17 358.735 187.164 358.431L187.681 359.069C186.769 358.674 184.762 359.556 184.945 358.857C184.276 359.1 182.574 358.705 182.817 359.343C179.503 358.887 174.822 359.951 172.785 358.857C172.329 358.978 171.144 358.917 171.387 359.221C172.208 359.556 172.481 358.917 172.785 359.161C172.36 359.191 172.268 359.373 172.238 359.465C171.204 359.343 170.384 359.313 171.356 358.765C169.076 358.431 169.046 359.921 166.128 359.769C166.249 359.495 166.037 359.404 165.185 359.465L163.574 359.951C161.689 359.86 162.51 359.343 162.449 358.917C161.446 359.009 160.23 359.009 159.774 359.343L158.558 358.796C159.44 359.191 157.738 359.069 157.251 359.191L157.707 359.069C157.525 358.887 156.37 359.009 155.792 359.069C155.944 359.343 157.13 359.434 157.768 359.525C157.251 359.738 156.461 359.708 155.792 359.951C156.005 359.495 154.151 359.647 153.36 359.617C152.448 359.525 152.327 360.012 152.053 360.012C152.023 359.769 150.563 359.981 151.263 359.647C151.567 359.586 151.992 359.89 152.509 359.677C151.901 359.495 151.962 359.1 150.715 359.404C149.773 359.617 150.959 360.285 149.165 360.012C149.621 359.89 149.712 359.708 150.077 359.556L148.405 359.313L148.344 359.708C148.132 359.617 148.284 359.556 148.162 359.525C147.645 359.951 145.608 359.647 145.213 360.133C144.362 360.164 143.42 359.829 142.629 359.769L142.781 359.738C141.809 359.495 140.471 359.617 139.65 359.86L139.681 359.769C139.133 359.738 137.857 359.769 137.188 359.981C135.85 359.647 136.793 358.461 135.273 358.917C133.905 358.887 133.084 359.556 133.631 359.86C131.169 359.465 128.311 360.042 126.032 359.282C125.667 359.434 125.88 359.525 125.15 359.586C121.502 359.161 117.368 359.586 114.541 358.401C115.605 358.34 114.662 358.005 114.662 357.762C113.75 358.036 113.659 357.276 113.264 357.853C113.294 358.218 113.203 358.401 114.206 358.644C111.987 358.583 108.674 358.309 107.519 357.701C108.096 357.975 107.61 358.005 107.123 358.036C107.367 357.489 105.786 357.154 104.54 357.154L104.296 357.489L103.567 357.002C103.08 357.033 102.928 357.641 101.773 357.124L101.5 356.698C99.7669 356.212 99.1285 357.975 95.4502 354.692C94.4167 353.841 96.4534 349.98 97.3654 350.497L98.1557 350.588C98.8549 350.375 100.101 349.828 98.7333 349.95C101.53 349.859 102.868 349.889 103.688 350.284C107.701 348.977 113.538 348.825 118.158 348.855L118.037 349.129C119.283 349.372 118.675 348.643 119.557 348.825C119.161 349.099 120.529 349.372 119.526 349.676C121.32 349.919 121.837 349.19 122.992 349.068C123.174 348.703 122.049 349.311 122.292 348.855C122.505 348.734 124.755 349.099 125.028 348.582C125.484 348.795 125.12 349.19 124.907 349.403L126.001 349.129C127.339 349.737 122.961 350.254 124.39 351.014L125.393 350.923C126.366 351.47 122.748 351.561 125.272 351.743C126.366 351.47 127.278 350.679 126.305 350.467C128.585 350.284 127.339 349.19 129.801 349.22C130.47 349.524 127.825 349.311 128.311 349.737C129.467 350.163 130.622 349.463 131.655 349.615C130.5 349.433 131.473 348.886 132.203 348.764C133.449 349.007 131.412 349.281 133.175 349.311C133.449 349.007 135.09 348.764 133.662 348.551C134.3 347.852 135.486 348.703 136.458 348.156C137.036 348.643 134.665 349.311 136.61 349.524C136.306 349.068 138.981 348.855 137.948 348.156C138.708 348.278 138.799 348.643 138.252 348.947C139.346 349.22 140.866 348.035 141.231 348.977L141.596 348.491C141.93 348.643 142.417 348.764 142.994 349.007C143.937 349.007 146.034 348.278 145.973 349.007C146.277 348.916 148.436 348.886 147.584 348.43C146.247 348.156 146.064 348.855 145.274 348.187C146.247 348.703 147.22 348.065 147.98 347.852L148.101 348.126C148.557 348.004 149.621 348.004 149.895 347.7C149.56 347.883 149.743 348.065 150.108 348.126L150.563 347.67C152.418 347.366 151.05 348.399 152.843 348.187L151.475 348.582C151.779 348.491 152.418 348.886 153.269 348.703C153.573 348.308 154.181 347.791 154.455 347.457C155.458 347.214 154.941 347.852 155.883 347.396L154.607 347.943C154.424 348.065 155.488 348.521 156.947 348.43C157.798 348.217 159.106 347.548 157.738 347.457C158.406 347.396 159.379 347.548 158.862 347.883C160.382 347.609 158.619 347.487 159.926 347.123C160.504 347.335 162.237 347.518 163.331 347.791L161.993 348.582L162.936 348.491C161.781 349.129 163.605 348.825 162.966 349.433C163.605 349.463 164.365 349.19 164.973 348.977C162.997 348.308 166.949 347.548 166.31 346.819C168.833 346.332 168.134 348.582 170.657 347.031C170.201 346.879 171.387 346.12 169.806 346.545C171.417 346.454 170.809 345.633 172.724 345.724C171.356 346.211 174.305 346.363 172.36 347.062C172.451 346.788 171.204 347.001 170.9 347.092C171.6 347.335 170.87 347.913 172.481 347.731C173.484 347.548 174.852 347.366 174.579 346.971C174.487 346.515 173.059 347.183 173.636 346.667C175.612 346.271 176.007 346.94 176.737 346.028C175.491 346.241 175.126 345.815 175.095 345.511L176.524 345.147L176.281 345.481C178.652 345.42 176.919 344.843 179.169 344.66L180.294 345.147C179.807 345.724 176.98 345.299 177.467 346.089C178.956 345.937 179.382 345.451 180.81 345.511L179.807 345.816C180.324 345.785 180.993 346.819 183.03 345.907C184.094 345.512 183.273 345.572 183.273 345.268C185.613 344.873 186.282 344.478 187.802 344.235C187.559 344.873 190.508 343.961 188.897 344.782C188.076 344.508 184.641 344.964 183.881 345.664C184.823 346.271 181.996 345.785 181.601 346.575C183.516 346.363 183.486 347.092 183.85 347.518C184.367 347.487 184.853 347.214 185.188 347.123C185.34 346.636 184.671 346.758 184.58 346.302C186.708 346.15 188.714 345.663 189.839 345.086C190.568 345.208 190.416 345.694 189.565 345.816C192.058 345.39 194.764 345.116 197.195 344.964C195.554 344.448 199.84 344.478 198.715 343.992C197.408 343.992 196.253 343.596 196.922 343.201C197.743 343.14 196.922 343.505 197.287 343.627C198.259 343.11 198.959 344.052 199.871 343.323C197.591 343.84 199.536 344.265 199.171 344.873C200.813 344.356 199.141 345.268 200.813 345.086C202.424 344.569 204.43 344.083 206.254 343.748C208.625 344.022 212.121 343.08 214.188 342.836C215.313 342.988 214.644 343.718 215.83 343.688C217.198 343.536 214.736 343.11 216.803 343.171L216.62 343.323C217.228 343.11 220.42 343.353 220.907 342.38L220.359 343.14C220.755 343.171 221.089 342.958 221.393 342.867C221.423 343.08 221.91 343.262 221.302 343.475C222.609 343.84 223.947 343.14 225.314 342.988L224.402 342.654C226.713 342.107 228.324 342.38 230.604 342.046L230.573 342.441L231.911 342.107C231.607 342.532 232.853 342.684 233.553 342.32L230.117 343.566C229.114 343.414 231.151 342.988 230.513 342.654C229.965 342.35 227.868 342.624 227.564 343.049C228.354 343.019 228.385 342.928 229.023 342.745C229.327 343.292 228.111 343.353 227.534 343.779C227.959 343.718 228.567 343.84 228.628 343.657C227.838 343.992 226.986 344.113 225.618 344.265C226.53 343.961 225.071 343.961 225.406 343.779C225.345 344.265 224.038 344.569 222.335 344.6C221.059 344.144 219.174 345.299 217.198 345.359C217.928 344.782 218.931 344.265 220.086 343.931C218.839 343.809 218.718 344.083 217.441 343.961C216.894 344.387 216.529 344.995 214.918 345.42L214.796 345.056C213.368 345.42 213.428 345.937 211.544 346.059C208.321 346.241 205.069 346.636 202.637 346.879L202.515 346.515C201.269 347.457 198.047 347.335 196.253 347.913C193.122 347.943 189.565 349.068 187.893 348.643C182.452 349.585 177.71 350.467 172.025 350.983L172.907 350.345C171.934 350.862 172.208 350.102 171.235 350.315C172.42 350.619 169.897 351.014 169.259 351.439C166.675 351.318 163.483 352.108 161.264 352.686L161.142 352.321C158.893 353.233 156.157 352.807 153.269 352.898C152.935 352.777 152.387 352.442 151.567 352.503C150.047 353.172 149.226 353.172 146.976 353.598C145.304 353.658 142.629 353.567 140.957 353.354C134.756 354.327 128.403 353.841 121.989 354.388L121.533 353.962C115.331 354.966 107.61 354.206 102.442 355.026L102.898 354.266C101.226 354.145 99.3413 354.783 99.8885 355.27C99.7365 354.874 99.0069 356.212 99.2501 354.479C98.9765 352.199 97.4566 353.628 100.01 351.591L99.6757 351.227C100.314 351.348 101.226 351.561 101.591 351.956C103.172 352.382 103.658 351.956 105.056 352.078C108.309 352.898 109.555 353.081 112.747 353.233L111.957 353.111C111.592 353.233 111.531 353.537 112.322 353.689C113.538 353.628 116.669 354.358 115.574 353.354C118.888 354.297 123.539 353.567 126.792 354.51C126.518 354.266 127.369 354.266 127.734 354.114C130.743 354.236 133.874 354.844 136.276 354.54C136.732 354.662 135.486 354.935 136.732 354.996C137.462 354.905 136.762 354.692 137.644 354.57C142.508 354.236 147.493 355.239 151.931 355.087C159.835 354.631 168.012 354.631 175.612 354.266L175.521 354.449C178.044 353.689 181.51 354.935 183.516 353.871C184.124 354.023 185.826 353.871 185.37 354.236C187.377 353.689 191.055 354.51 193.943 353.78L193.213 353.902C196.192 354.206 198.776 353.567 201.907 353.81C201.603 353.902 201.026 353.962 200.935 354.145C202.15 354.449 203.762 353.294 204.461 354.114C205.16 354.084 204.947 353.658 204.522 353.719C211.361 353.78 218.627 352.929 225.649 352.29C230.725 352.473 226.044 353.719 229.996 352.807C230.33 352.959 230.209 352.473 230.269 352.625C231.789 352.29 232.732 353.385 233.765 352.838C233.279 352.351 234.434 352.473 234.434 352.169C237.504 352.199 238.204 352.625 240.453 351.865L240.332 352.169C241.699 351.622 242.733 351.135 243.706 350.588C243.128 350.071 243.706 351.865 245.135 351.804C244.283 351.227 243.888 354.023 243.675 353.415C243.432 353.415 243.007 353.415 242.338 353.537C227.503 351.409 211.969 352.503 196.375 352.29C180.962 351.531 166.067 350.953 150.715 350.74C147.098 350.041 146.824 350.102 142.964 350.679C143.116 350.558 143.359 350.497 143.085 350.406C142.933 351.014 140.349 350.649 140.045 351.257L136.215 351.865L134.361 352.199L134.118 352.23L133.996 352.26H133.935C133.206 358.005 134.938 344.417 134.756 345.816H134.786L135.182 345.998L135.972 346.363C138.07 347.396 140.684 348.187 143.389 348.947C142.508 348.764 141.93 349.099 142.994 349.372L144.18 349.311L144.301 349.524C145.031 349.646 145.882 349.524 145.183 349.159C159.197 352.047 173.606 354.662 187.924 354.844C191.328 355.178 196.162 354.905 199.779 354.51C202.515 354.57 205.13 354.449 207.653 354.236C208.899 354.054 210.237 354.023 211.392 353.719L213.185 353.324L213.641 353.233L213.854 353.172H213.915H213.945C214.34 349.068 213.428 358.796 213.52 357.793H213.489L213.428 357.762L212.79 357.458C209.841 355.726 201.816 357.762 197.834 354.175C198.229 357.519 198.138 353.294 203.427 354.297Z" fill="#DAD8CC"/>
<path d="M234.897 343.353C234.472 343.079 233.195 343.019 234.198 342.532C234.35 342.806 235.019 343.079 234.897 343.353Z" fill="#DAD8CC"/>
<path d="M200.207 343.779C200.176 343.87 199.69 343.718 199.568 343.687C199.994 343.627 200.359 343.323 200.724 343.444C200.298 343.505 200.389 343.657 200.207 343.779Z" fill="#DAD8CC"/>
<path d="M191.393 344.691C191.484 344.417 193.338 343.992 194.463 343.809L191.393 344.691Z" fill="#DAD8CC"/>
<path d="M183.093 344.6C182.364 344.478 182.546 344.326 183.488 344.204C183.549 344.326 183.276 344.448 183.093 344.6Z" fill="#DAD8CC"/>
<path d="M182.576 345.268C181.907 345.359 181.542 345.238 181.208 345.147C181.238 345.359 182.758 344.812 182.576 345.268Z" fill="#DAD8CC"/>
<path d="M164.761 346.575C164.336 346.636 163.454 346.971 163.029 346.697C163.484 346.849 165.065 346.15 164.761 346.575Z" fill="#DAD8CC"/>
<path d="M156.643 347.731C156.279 347.731 156.248 347.7 155.914 347.791C155.427 347.7 155.914 347.487 156.309 347.427L156.643 347.731Z" fill="#DAD8CC"/>
<path d="M188.992 358.735L188.11 358.887L188.232 358.613L188.992 358.735Z" fill="#DAD8CC"/>
<path d="M236.988 347.518C236.046 347.579 236.38 347.214 236.228 347.153C237.049 347.183 235.894 347.427 236.988 347.518Z" fill="#DAD8CC"/>
<path d="M201.028 347.731H201.302L201.241 348.278L201.028 347.731Z" fill="#DAD8CC"/>
<path d="M191.876 51.3107C191.876 51.3107 198.442 46.3861 223.248 44.4101C233.583 43.5894 257.264 50.6115 279.881 59.184C292.496 63.9566 326.908 71.526 333.261 72.6811C344.175 74.6875 379.316 83.0472 379.316 90.9813C379.316 98.9154 370.409 105.877 349.586 115.817C328.762 125.727 263.617 138.039 243.433 169.38C217.259 210.054 210.845 260.638 208.869 284.47C206.893 308.273 199.932 338.064 199.932 338.064C199.932 338.064 233.978 337.03 229.023 343.961C224.068 350.923 210.997 344.113 210.997 344.113C210.997 344.113 214.827 352.929 210.845 353.932C206.863 354.935 201.816 346.211 201.816 346.211C201.816 346.211 202.911 353.111 194.977 354.023C187.012 354.935 185.249 349.889 187.225 340.982C189.201 332.045 188.806 298.94 188.167 298.393C187.255 297.633 144.241 298.393 144.241 298.393L140.867 337.091C140.867 337.091 167.04 343.049 164.061 347.031C161.112 351.014 148.527 345.208 148.527 345.208C148.527 345.208 158.103 352.382 152.145 354.175C146.186 355.969 140.38 350.193 140.38 350.193C143.542 363.568 124.147 356.06 127.339 344.052V294.441C127.339 294.441 107.61 326.026 70.797 326.178C24.9554 326.391 -35.5993 287.571 -55.3586 266.869C-75.6954 245.59 -67.9437 251.396 -43.2902 257.719C-9.15219 266.474 17.7205 261.762 35.1087 256.716C47.937 252.977 65.5684 247.505 83.9901 251.883C99.2504 255.5 120.53 272.767 120.53 272.767C120.53 272.767 114.936 217.532 156.066 162.388C163.97 151.779 157.768 132.871 157.768 132.871C157.768 132.871 153.786 133.205 149.469 133.965C142.356 135.242 136.307 144.605 139.286 136.671C142.265 128.737 153.178 121.806 153.178 121.806C153.178 121.806 150.017 116.699 134.665 117.915C124.634 118.736 147.494 104.266 147.494 104.266C147.494 104.266 135.456 102.259 127.43 101.469C123.357 101.074 151.476 87.7286 151.476 87.7286C151.476 87.7286 152.297 86.3302 152.053 78.6089C151.932 74.7786 153.209 63.2879 153.209 63.2879C153.209 63.2879 148.77 37.5096 147.524 27.5691C146.278 17.6287 147.524 6.74585 147.524 6.74585C147.524 6.74585 168.499 23.4045 178.683 33.9833C186.1 41.6134 191.876 51.3107 191.876 51.3107Z" fill="#F39200"/>
<path d="M186.313 188.015C186.313 188.015 176.282 200.782 172.33 208.382C168.348 216.012 167.831 228.081 168.196 230.664C168.591 233.248 176.647 242.794 172.695 245.195C170.172 246.715 165.977 242.307 165.977 242.307C165.977 242.307 164.852 247.049 162.238 248.721C158.346 251.245 158.042 241.517 158.042 241.517C158.042 241.517 153.756 252.582 147.98 248.174C144.485 245.499 149.348 239.632 156.583 226.652C162.542 215.951 171.388 177.862 171.388 177.862" fill="#FAB415"/>
<path d="M247.202 168.559C220.268 208.23 213.459 246.867 212.881 283.71C201.664 283.923 188.501 282.799 177.77 283.71C176.889 276.749 178.591 269.484 178.591 262.188C178.591 191.875 206.376 153.907 261.276 140.167C266.11 138.981 293.803 132.628 298.576 133.661C278.786 141.383 256.716 154.515 247.202 168.559Z" fill="white"/>
<g opacity="0.8">
<g opacity="0.8">
<path opacity="0.8" d="M298.607 133.661C278.787 141.383 256.748 154.485 247.202 168.559C220.269 208.23 213.46 246.867 212.882 283.71" stroke="#DAD8CC" stroke-width="0.218" stroke-linecap="round"/>
</g>
</g>
<path d="M369.926 81.1017C381.508 84.3848 397.498 88.3974 388.226 96.1188C377.07 105.39 356.824 112.2 356.824 112.2C356.824 112.2 347.157 84.8104 349.924 76.5115C349.924 76.5115 365.701 79.9161 369.926 81.1017Z" fill="black"/>
<path d="M231.211 47.0853C231.211 47.0853 220.267 32.433 214.492 24.7117C208.716 17.0207 192.635 -1.15782 191.723 0.0581322C190.841 1.27409 187.467 8.96502 188.653 22.1886C189.838 35.4121 192.665 52.2835 192.665 52.2835L231.211 47.0853Z" fill="#F39200"/>
<path d="M-43.2595 257.659C-11.4318 265.806 14.0729 262.279 31.4611 257.689C24.6517 264.438 13.8297 275.047 17.2344 275.047C22.0678 275.047 42.4047 283.741 36.5985 283.741C30.7923 283.741 16.596 286.629 16.596 286.629C16.596 286.629 32.7378 300.673 30.7923 301.615C28.8468 302.588 9.51305 296.782 9.51305 296.782C9.51305 296.782 10.5162 304.564 10.3338 310.37C-18.1196 297.299 -43.7155 278.938 -55.3279 266.809C-75.6647 245.529 -67.913 251.336 -43.2595 257.659Z" fill="white"/>
<g opacity="0.8">
<g opacity="0.8">
<path opacity="0.8" d="M10.3338 310.37C-18.1196 297.299 -43.7155 278.938 -55.3279 266.809C-75.6647 245.529 -67.913 251.336 -43.2595 257.659C-11.4318 265.806 14.0729 262.279 31.4611 257.689" stroke="#DAD8CC" stroke-width="0.218" stroke-linecap="round"/>
</g>
</g>
<path d="M180.628 57.0561C180.628 57.0561 159.927 34.7433 159.38 37.5096C158.802 40.2759 159.38 62.8623 159.38 62.8623C159.38 62.8623 167.405 59.5488 170.262 59.0016C173.15 58.4544 180.628 57.0561 180.628 57.0561Z" fill="white"/>
<path d="M201.088 26.9611C199.477 26.0796 198.991 28.4811 198.899 32.7369C198.808 36.9928 198.778 48.4836 198.778 48.4836L214.859 44.8357C214.859 44.8661 202.699 27.8427 201.088 26.9611Z" fill="white"/>
<path d="M218.325 75.7514C218.325 85.1446 227.84 95.5107 238.844 95.5107C247.113 95.5107 256.536 86.695 251.794 74.1402C247.417 62.619 240.546 60.2479 231.974 61.4335C223.797 62.5278 218.325 66.3885 218.325 75.7514Z" fill="white"/>
<path d="M243.528 83.6729C243.528 85.132 242.342 86.2872 240.883 86.2872C239.424 86.2872 238.238 85.1016 238.238 83.6729C238.238 82.2137 239.424 81.0282 240.883 81.0282C242.342 81.0282 243.528 82.2137 243.528 83.6729Z" fill="black"/>
<path d="M215.77 257.263C175.795 260.243 154.425 259.756 148.254 259.391C131.23 258.358 120.469 253.737 120.469 253.737C120.469 253.737 119.831 270.761 120.469 284.653C121.199 300.369 123.904 313.684 123.904 313.684C123.904 313.684 151.841 309.58 157.1 310.31L158.741 301.463L186.647 298.849V308.455H212.243L215.77 257.263Z" fill="#00A0A4"/>
<path d="M203.338 266.262H193.215V259.148H203.703L203.338 266.262Z" fill="#454444"/>
<path d="M244.615 116.699C244.615 116.699 251.425 123.538 261.274 120.681C260.666 124.572 258.69 132.537 252.823 132.172C245.102 131.685 244.615 116.699 244.615 116.699Z" fill="black"/>
<path d="M193.217 260.243C193.217 260.243 194.463 210.024 178.443 186.951C171.847 177.436 148.287 169.319 148.287 169.319L151.449 164.851C151.449 164.851 173.275 170.627 186.499 187.285C200.513 204.947 203.34 260.243 203.34 260.243H193.217Z" fill="black"/>
<path d="M929.995 252.341C930.277 185.563 919.891 165.279 882.196 163.488C822.271 160.629 450.373 156.841 386.034 164.59C361.629 167.552 348.771 179.984 349.003 255.475C349.285 339.783 363.636 346.361 381.338 348.703C455.615 358.484 795.842 357.864 887.174 350.218C925.415 346.981 929.712 320.118 929.995 252.341Z" fill="#2FAC66"/>
<path d="M356.422 241.184C356.422 241.184 336.936 233.151 324.999 221.303C298.791 195.306 299.07 161 299.07 161C299.07 161 323.088 197.272 356.65 209.619C370.719 214.777 363.609 219.458 363.609 219.458L356.422 241.184Z" fill="#2FAC66"/>
</svg>
