<svg width="446" height="694" viewBox="0 0 446 694" fill="none" xmlns="http://www.w3.org/2000/svg">
<path d="M1.23867 44.8875C0.950609 42.5253 0.86419 40.1056 0.979415 37.5995C1.09464 35.0933 1.12345 32.6448 1.03703 30.2538C0.950609 27.9781 0.835384 25.7312 0.662546 23.5708C0.489708 21.3815 0.432095 19.1634 0.460901 16.8877C0.460901 14.4392 0.460901 12.1635 0.489708 10.0318C0.518514 7.92893 0.345676 5.68204 0 3.31992C0.086419 2.65737 0.432095 2.13886 1.03703 1.76438C1.69957 1.4187 2.2757 1.18825 2.88063 1.10183C3.57198 1.01541 4.29214 1.01541 5.12753 1.10183C5.96291 1.18825 6.62546 1.50512 7.17278 2.05244C7.17278 2.13886 7.17278 2.3117 7.20158 2.57096C7.23039 2.83021 7.23039 3.00305 7.23039 3.08947C7.40323 4.55859 7.37442 6.17175 7.17278 7.90013C6.97113 9.62851 6.88471 11.2129 6.99994 12.6532C6.99994 12.826 7.02874 13.4597 7.08636 14.5832C7.17278 15.6778 7.23039 16.9741 7.31681 18.3856C7.40323 19.8259 7.48965 21.2663 7.57607 22.7354C7.66248 24.2045 7.7201 25.3568 7.7489 26.1921C7.86413 28.2086 7.95055 30.1962 7.97935 32.1263C8.00816 34.0563 8.12339 36.0151 8.32503 38.0027C8.44026 38.8093 8.81474 39.2702 9.36206 39.3854C9.93818 39.5007 10.5431 39.5583 11.2345 39.5295C11.897 39.5007 12.5308 39.5295 13.1069 39.5583C13.683 39.6159 13.9999 39.9616 14.0863 40.6241C14.0863 41.978 14.0575 43.0727 13.9999 43.8792C13.9423 44.7146 13.827 45.4636 13.7118 46.1261C13.5966 46.7887 13.3661 47.1344 13.0781 47.1344C13.0493 47.192 12.9628 47.192 12.8476 47.192H12.646C11.0328 47.1055 9.39086 47.0479 7.69129 46.9615C6.02052 46.9615 4.32095 46.8463 2.62138 46.6735C2.07406 46.6446 1.72838 46.4718 1.58435 46.1837C1.44032 45.9245 1.32509 45.4924 1.23867 44.8875Z" fill="#2BB673"/>
<path d="M39.7531 48.056C39.5515 47.9695 39.3211 47.8255 39.1194 47.6527C38.9178 47.451 38.7737 47.2494 38.7449 47.0477L37.2182 33.624C37.2182 33.4512 37.1318 33.3071 36.9877 33.1919C36.8437 33.0767 36.6997 33.0191 36.5844 33.0767L29.2388 33.768L30.4487 44.8585C30.5351 45.521 30.7368 46.1547 31.0248 46.7309C31.3129 47.307 31.5145 47.9119 31.601 48.5457C31.6298 48.8049 31.6298 48.949 31.5433 49.0066C31.4569 49.0642 31.2553 49.1218 30.9672 49.1506C30.8808 49.1506 30.7656 49.1506 30.6215 49.1794C30.4775 49.2082 30.3911 49.2082 30.3335 49.2082H29.5269C29.1812 49.2082 28.8067 49.2082 28.4323 49.237C28.0578 49.2658 27.7121 49.2946 27.3952 49.2946C27.0784 49.3234 26.8767 49.3234 26.7903 49.3234C26.0413 49.3234 25.4076 49.237 24.9467 49.0642C24.4858 48.8913 24.1113 48.6321 23.8809 48.3152C23.6216 47.9695 23.4488 47.5663 23.3335 47.0765C23.2183 46.5868 23.1319 46.0395 23.0455 45.4058C22.8438 43.0725 22.671 40.768 22.527 38.4635C22.4117 36.159 22.2965 33.8256 22.2101 31.4635C22.2101 31.4347 22.2101 31.2043 22.1813 30.7722C22.1525 30.3401 22.1237 29.8504 22.0949 29.303C22.0373 28.7557 22.0084 28.2084 21.9508 27.6899C21.922 27.1426 21.8644 26.7393 21.8356 26.4512C21.7492 24.8381 21.8356 23.3689 22.0661 22.015C22.2677 20.6611 22.5558 19.192 22.8438 17.5789C22.5846 16.8587 22.6422 16.0809 22.9879 15.3032C23.3335 14.4966 23.6216 13.7764 23.8521 13.1427C23.9385 12.797 23.9961 12.4801 24.0249 12.1921C24.0537 11.904 24.1113 11.5583 24.2553 11.1839C24.2553 11.1551 24.2841 11.0686 24.313 10.9534C24.3418 10.8382 24.3994 10.8094 24.4282 10.8094C24.8891 9.97399 25.2924 9.1098 25.638 8.24561C25.9837 7.38142 26.4446 6.51723 27.0496 5.68185C27.424 5.16333 27.8849 4.64482 28.4323 4.1263C28.9796 3.60779 29.5845 3.08928 30.2183 2.62838C30.852 2.16747 31.5145 1.79299 32.2059 1.47612C32.8972 1.18806 33.5886 0.986415 34.2511 0.899996C36.1524 0.727158 37.6215 0.986415 38.6873 1.67777C39.7531 2.36912 40.5885 3.26212 41.1935 4.38556C41.7984 5.4802 42.2881 6.69007 42.605 8.04397C42.9506 9.36906 43.3251 10.6077 43.7572 11.76C43.7572 11.8752 43.786 12.1345 43.8436 12.4513C43.9013 12.797 43.9589 13.1427 44.0165 13.5172C44.0741 13.8917 44.1029 14.2373 44.1893 14.5542C44.2469 14.8711 44.2757 15.1015 44.2757 15.2167C44.5638 18.011 44.7654 20.8052 44.8231 23.657C44.8807 26.48 44.9959 29.303 45.1111 32.0973C45.1111 32.8174 45.0535 33.5664 44.9383 34.3153C44.8231 35.0643 44.7943 35.8133 44.8519 36.5334C44.8519 36.6199 44.8807 36.8503 44.9095 37.196C44.9383 37.5705 44.9959 37.9449 45.0247 38.377C45.0535 38.8091 45.1111 39.1836 45.1975 39.5581C45.2552 39.9326 45.284 40.1342 45.284 40.2206V42.3235C45.284 42.4099 45.284 42.6404 45.3128 42.986C45.3416 43.3605 45.3416 43.735 45.3704 44.1671C45.3992 44.5992 45.3992 44.9737 45.428 45.3482C45.4568 45.7227 45.4568 45.9531 45.4568 46.0683C45.4568 46.3276 45.428 46.7021 45.3416 47.2206C45.2552 47.7391 44.9671 48.0272 44.5062 48.1136H44.391C44.3622 48.1136 44.2181 48.0848 43.9877 48.056C43.7572 48.0272 43.6132 47.9984 43.5844 47.9984C43.4692 47.9984 43.2099 47.9984 42.8354 48.0272C42.4609 48.056 42.0577 48.056 41.6544 48.056C41.2511 48.056 40.8766 48.056 40.5021 48.0848C40.1276 48.056 39.8972 48.056 39.7531 48.056ZM29.3829 25.2413C29.4117 25.7599 29.7285 26.1055 30.2759 26.3072C30.8232 26.5088 31.4569 26.6529 32.1771 26.7105C32.8972 26.7681 33.6174 26.7969 34.3376 26.7681C35.0577 26.7393 35.605 26.7105 35.9795 26.6817C36.0659 26.6817 36.2388 26.6817 36.498 26.6529C36.7573 26.6241 36.9301 26.6241 37.0165 26.6241C37.103 26.5088 37.1606 26.3936 37.2182 26.2784C37.247 26.1632 37.3046 26.0479 37.3334 25.9327C37.3334 25.6734 37.3046 25.2702 37.2758 24.694C37.2182 24.1179 37.1894 23.513 37.1894 22.8216C37.1606 22.1591 37.1606 21.5253 37.1318 20.9492C37.103 20.3731 37.103 19.9698 37.103 19.7105C37.1318 19.6241 37.1606 19.4225 37.1606 19.1344V18.5295L36.5268 12.3649C36.498 12.0769 36.3828 11.7312 36.21 11.3567C36.0371 10.9822 35.8355 10.6365 35.5762 10.3197C35.317 10.0028 35.0289 9.74354 34.6544 9.5707C34.2799 9.36906 33.9343 9.31145 33.531 9.34025C33.1853 9.36906 32.8684 9.48428 32.5804 9.65712C31.1977 11.0974 30.3047 12.5954 29.9878 14.1509C29.6421 15.7065 29.4693 17.4348 29.4117 19.2784C29.4117 20.2867 29.3829 21.2949 29.3541 22.2455C29.2676 23.2249 29.2964 24.2331 29.3829 25.2413Z" fill="#2BB673"/>
<path d="M49.6631 38.3483C49.9511 37.5417 50.4985 37.0232 51.2762 36.7928C52.054 36.5623 52.9758 36.5047 54.0705 36.5911C55.1363 36.7063 56.3462 36.8792 57.6712 37.196C58.9963 37.4841 60.379 37.7722 61.8194 38.0314C62.3955 38.0026 62.914 37.8298 63.3749 37.5993C63.807 37.3401 64.2391 37.0232 64.6136 36.6199C64.9881 36.2166 65.3625 35.7557 65.6794 35.266C66.0251 34.7475 66.3708 34.2578 66.7452 33.7393C66.774 33.7105 66.8317 33.5953 66.8605 33.4512C66.8893 33.3072 66.9181 33.2208 66.9181 33.1632L66.6588 29.4183C66.5724 29.3895 66.3131 29.1591 65.8522 28.7846C65.3913 28.4101 65.0457 28.1221 64.8152 27.8916C64.7288 27.8052 64.5848 27.69 64.3255 27.5459C64.0951 27.4019 63.9222 27.3155 63.8358 27.3155C62.3667 26.6817 60.984 26.1632 59.6877 25.7887C58.3914 25.4143 57.2103 24.9534 56.0869 24.4348C54.9635 23.9163 53.9552 23.1962 53.0334 22.2744C52.1116 21.3526 51.3339 20.0563 50.6425 18.3855C50.6425 18.2703 50.6425 18.0686 50.6137 17.8094C50.5849 17.5501 50.5561 17.2909 50.5273 17.0316C50.4985 16.7436 50.4409 16.5131 50.4409 16.2827C50.4121 16.0522 50.4121 15.9082 50.4121 15.8218C50.3832 15.2168 50.3256 14.6119 50.2392 13.9205C50.1816 13.2292 50.2392 12.6242 50.4697 12.0193C50.5849 11.8177 50.6713 11.5296 50.7865 11.0687C50.9018 10.6366 51.0746 10.1757 51.2186 9.71481C51.3915 9.25391 51.5355 8.793 51.7083 8.38972C51.8524 7.95762 51.9388 7.66956 51.9964 7.49672V7.17985C52.2557 6.80537 52.4861 6.5173 52.6878 6.28685C52.8894 6.08521 53.091 5.85476 53.2927 5.62431C53.4943 5.39386 53.6384 5.22102 53.7536 5.07699C55.1363 3.52145 56.519 2.34039 57.9017 1.53381C59.2844 0.727232 60.9552 0.237524 62.9428 0.00707349C63.4901 -0.0217328 64.2967 0.0358798 65.3625 0.208718C66.4284 0.381556 67.4654 0.640813 68.5312 0.986489C69.5971 1.33216 70.5189 1.76426 71.3254 2.28277C72.132 2.80129 72.5641 3.37741 72.5929 4.01115C72.6217 4.38564 72.6217 4.90415 72.5353 5.53789C72.4489 6.17163 72.3049 6.80537 72.132 7.43911C71.9304 8.07285 71.6999 8.62017 71.3831 9.10987C71.0662 9.59958 70.6917 9.85884 70.2596 9.88765C69.165 9.97406 68.0703 9.97406 66.9757 9.85884C65.8811 9.74361 64.7864 9.74361 63.6918 9.83003C63.4901 9.83003 63.058 9.85884 62.3955 9.94526C61.7329 10.0317 61.3008 10.0605 61.0992 10.0605C60.984 10.1469 60.7823 10.2333 60.4943 10.3485C60.2062 10.4638 59.9469 10.579 59.6589 10.7518C59.3708 10.9247 59.1404 11.0975 58.9675 11.2415C58.7659 11.4144 58.6795 11.5872 58.6795 11.7601L58.9963 15.5625C58.9963 15.7641 59.1404 15.9658 59.3996 16.1674C59.6589 16.3691 59.9758 16.5419 60.2926 16.7436C60.6095 16.9452 60.9264 17.118 61.272 17.2621C61.6177 17.4061 61.8482 17.4925 61.9634 17.5501C63.663 18.3567 65.1897 19.1057 66.6012 19.8258C67.9839 20.546 69.1938 21.3814 70.202 22.3608C71.2102 23.3402 72.0168 24.4925 72.6505 25.8175C73.2555 27.1426 73.6588 28.8134 73.8316 30.801C74.0044 32.5294 73.8892 34.2578 73.4859 35.9286C73.0826 37.6281 72.4201 39.1261 71.5271 40.4512C70.6341 41.7763 69.4818 42.8997 68.0703 43.7639C66.6588 44.6281 65.1033 45.1754 63.3173 45.3482C61.8482 45.5211 60.3214 45.5499 58.7659 45.4059C57.2103 45.2906 55.77 44.9738 54.4737 44.4552C53.1775 43.9367 52.1116 43.1878 51.2186 42.2084C50.2968 41.2577 49.7783 39.9615 49.6631 38.3483Z" fill="#2BB673"/>
<path d="M112.834 48.3154C112.863 48.1426 112.863 47.7969 112.805 47.2784C112.747 46.7598 112.719 46.4142 112.719 46.2413C112.632 44.945 112.632 43.6776 112.747 42.4677C112.863 41.2578 112.978 39.9904 113.151 38.6365C113.18 38.55 113.18 38.4348 113.151 38.2908C113.122 38.1468 113.093 38.0603 113.093 38.0027C113.093 36.9369 113.18 35.8999 113.324 34.8916C113.468 33.8834 113.554 32.8464 113.612 31.7806C113.698 29.7929 113.669 27.8629 113.554 25.9617C113.439 24.0605 113.381 22.1304 113.439 20.2004C113.439 20.0276 113.439 19.7683 113.468 19.4514C113.496 19.1058 113.496 18.7889 113.525 18.4432C113.554 18.0975 113.554 17.8095 113.583 17.5214C113.612 17.2334 113.612 17.0605 113.612 16.9741C113.612 16.8877 113.64 16.7148 113.669 16.398C113.698 16.1099 113.756 15.793 113.784 15.4762C113.813 15.1593 113.871 14.8712 113.9 14.5832C113.957 14.2951 113.957 14.1223 113.957 14.0358V13.8342C113.957 13.5461 113.842 13.3157 113.64 13.1717C113.439 13.0276 113.208 12.9412 113.007 12.8836C111.739 12.97 110.529 12.97 109.377 12.9124C108.225 12.8548 107.015 12.8548 105.748 12.9412C105.402 12.8548 105.085 12.7108 104.797 12.5091C104.797 12.3075 104.768 11.9042 104.739 11.3281C104.71 10.7519 104.653 10.3774 104.624 10.2046C104.595 9.83013 104.509 9.22519 104.394 8.44742C104.278 7.64084 104.221 6.83427 104.192 5.99888C104.163 5.19231 104.25 4.44334 104.422 3.7808C104.595 3.11825 104.941 2.74377 105.488 2.65735H105.748L126.834 2.8878C127.122 2.8878 127.352 2.97422 127.525 3.17586C127.698 3.37751 127.842 3.57915 127.928 3.83841C128.044 4.09767 128.101 4.35692 128.159 4.64499C128.188 4.90424 128.216 5.13469 128.216 5.30753C128.216 5.33634 128.216 5.50918 128.245 5.79724C128.274 6.0565 128.303 6.40217 128.332 6.74785C128.361 7.12233 128.418 7.46801 128.447 7.81368C128.476 8.18816 128.505 8.47623 128.505 8.73548C128.505 8.85071 128.505 9.08116 128.533 9.36922C128.562 9.65729 128.562 10.003 128.591 10.3486C128.62 10.7231 128.62 11.04 128.649 11.3569C128.735 11.6449 128.735 11.8754 128.735 11.9906C128.735 12.1922 128.677 12.4227 128.533 12.6243C128.418 12.826 128.245 12.97 128.015 12.9988C126.949 13.1717 125.912 13.2581 124.846 13.2581C123.78 13.2581 122.743 13.3157 121.677 13.4597C121.476 13.4885 121.274 13.5173 121.101 13.4885C120.928 13.4597 120.727 13.5749 120.525 13.7766C120.266 14.0647 120.122 14.4391 120.035 14.8424C119.978 15.2745 119.949 15.7066 119.949 16.1387C119.949 16.5708 119.978 17.0317 120.007 17.4638C120.035 17.8959 120.064 18.2992 120.064 18.6449C119.863 23.3691 119.747 28.1221 119.747 32.8752C119.747 37.6282 120.035 42.3237 120.64 46.9903C120.64 47.336 120.583 47.7393 120.468 48.2578C120.352 48.7763 120.064 49.0355 119.603 49.0932H119.546C119.459 49.0932 119.287 49.0932 119.027 49.0644C118.768 49.0355 118.48 49.0067 118.163 48.9779C117.846 48.9203 117.558 48.9203 117.299 48.9203H116.867C116.608 48.8915 116.291 48.8915 115.887 48.9203C115.484 48.9779 115.081 48.9779 114.677 48.9779C114.274 48.9779 113.9 48.9203 113.525 48.8627C113.266 48.7187 113.007 48.5746 112.834 48.3154Z" fill="#2BB673"/>
<path d="M150.802 50.0148C149.995 48.8625 149.362 47.8831 148.901 46.9901C148.44 46.1259 147.892 45.1753 147.316 44.1671C147.23 44.0231 147.086 43.8502 146.884 43.6198C146.683 43.3893 146.481 43.1301 146.279 42.8996C146.078 42.6404 145.934 42.4099 145.79 42.1795C145.674 41.949 145.646 41.7186 145.732 41.5169C145.213 40.7968 144.724 40.0478 144.234 39.2988C143.744 38.5211 143.283 37.8009 142.794 37.0807H142.678C142.65 37.0807 142.592 37.0519 142.563 37.0231C142.189 36.9367 142.045 37.1095 142.131 37.5416C142.16 37.9737 142.218 38.7227 142.246 39.8173C142.275 40.912 142.333 42.093 142.39 43.3317C142.448 44.5704 142.506 45.7514 142.592 46.8749C142.65 47.9983 142.707 48.7761 142.736 49.1794L142.794 49.381C142.707 49.4963 142.592 49.6691 142.419 49.8708C142.246 50.0724 142.131 50.13 142.102 50.1012L135.621 50.5333C135.246 50.5909 134.93 50.4181 134.67 50.0724C134.411 49.6979 134.267 49.381 134.238 49.093C134.238 49.0354 134.238 49.0066 134.267 49.0066C134.296 48.9778 134.296 48.9201 134.296 48.8625V48.6609C134.296 48.6321 134.325 48.5169 134.353 48.3152C134.382 48.1136 134.44 47.9119 134.469 47.7103C134.497 47.5086 134.555 47.307 134.584 47.1342C134.613 46.9613 134.641 46.8461 134.641 46.8173C134.641 46.702 134.613 46.414 134.555 45.9531C134.497 45.521 134.44 45.0313 134.382 44.5704C134.353 44.0807 134.296 43.6198 134.267 43.2165C134.238 42.7844 134.209 42.5251 134.209 42.3811V40.8256C134.209 39.9902 134.209 39.126 134.181 38.2042C134.152 37.2824 134.152 36.3894 134.123 35.5828C134.094 34.7762 134.094 34.2289 134.094 34.0273C134.094 33.8256 134.065 33.4223 134.037 32.875C134.008 32.3277 133.95 31.7228 133.921 31.089C133.893 30.4553 133.835 29.8792 133.806 29.303C133.777 28.7557 133.749 28.3812 133.749 28.1508C133.806 28.0644 133.806 27.8627 133.806 27.5746V26.9985C133.921 23.3113 133.95 19.6817 133.864 16.1097C133.777 12.5089 133.662 8.90814 133.547 5.27854C133.547 5.16332 133.547 4.90406 133.518 4.58719C133.489 4.24152 133.46 3.89584 133.432 3.49255C133.403 3.11807 133.345 2.74359 133.345 2.3691C133.316 2.02343 133.316 1.76417 133.316 1.64894C133.403 1.38969 133.518 1.24566 133.662 1.21685C133.806 1.18804 133.979 1.15924 134.152 1.15924C135.851 1.04401 137.493 0.957593 139.106 0.928787C140.72 0.89998 142.218 1.07282 143.629 1.41849C145.041 1.76417 146.337 2.3691 147.46 3.23329C148.613 4.06868 149.563 5.27854 150.312 6.83408C150.859 7.92873 151.407 8.99456 151.954 10.0316C152.501 11.0686 152.818 12.1921 152.905 13.4307C153.078 15.9657 152.645 18.3278 151.608 20.4883C150.571 22.6776 149.102 24.6364 147.201 26.4224C147.028 26.624 146.942 26.8545 146.942 27.1137C147.028 27.4882 147.172 27.8627 147.432 28.1796C147.662 28.5253 147.748 28.8709 147.662 29.2742L150.255 34.4594V34.661L152.847 38.8379C152.847 38.8667 153.02 39.2412 153.394 39.875C153.74 40.5375 154.172 41.2577 154.633 42.093C155.094 42.9284 155.526 43.735 155.901 44.5704C156.275 45.4058 156.506 46.0107 156.534 46.4428C156.563 46.8173 156.448 47.2494 156.131 47.7103C155.814 48.1712 155.411 48.6033 154.95 48.9778C154.489 49.3522 153.999 49.6691 153.481 49.9572C152.962 50.2164 152.53 50.3605 152.156 50.3605C151.522 50.4757 151.09 50.3605 150.802 50.0148ZM140.144 19.8545C140.316 20.0562 140.432 20.229 140.547 20.3443C140.662 20.4595 140.835 20.5171 141.094 20.5747C141.93 20.4595 142.621 20.1714 143.168 19.6241C143.687 19.1056 144.09 18.4718 144.378 17.7805C144.666 17.0891 144.839 16.369 144.925 15.5912C145.012 14.8422 145.041 14.1797 145.041 13.6324C145.012 13.2003 144.897 12.6818 144.724 12.0768C144.551 11.4719 144.32 10.8958 144.032 10.3197C143.744 9.77233 143.37 9.31143 142.909 8.96575C142.477 8.62008 141.93 8.44724 141.296 8.47605C140.864 8.53366 140.547 8.76411 140.316 9.1674C140.086 9.59949 139.913 10.0892 139.855 10.6365C139.769 11.1838 139.74 11.7312 139.74 12.2497V13.3731C139.74 13.4307 139.74 13.5748 139.769 13.8052C139.798 14.0645 139.798 14.3525 139.827 14.6982C139.855 15.0439 139.855 15.3896 139.884 15.7352C139.913 16.1097 139.942 16.369 139.971 16.5994C139.971 16.7147 139.971 16.9451 139.999 17.2332C140.028 17.5212 140.057 17.8669 140.057 18.2126C140.086 18.5871 140.086 18.9039 140.115 19.192C140.144 19.5089 140.144 19.7393 140.144 19.8545Z" fill="#2BB673"/>
<path d="M163.016 48.4304C162.843 48.3152 162.67 48.1712 162.498 48.0272C162.325 47.8831 162.238 47.7103 162.238 47.4798C162.037 45.4634 162.037 43.3893 162.267 41.3441C162.498 39.27 162.613 37.2248 162.613 35.1795C162.613 32.6446 162.526 30.1096 162.382 27.5459C162.238 24.9821 162.065 22.4471 161.921 19.8834C161.749 17.3196 161.605 14.7846 161.518 12.2497C161.403 9.71473 161.403 7.20858 161.489 4.70243C161.489 4.44317 161.576 4.18392 161.72 3.89585C161.864 3.60779 162.094 3.43495 162.382 3.37734C162.814 3.34853 163.304 3.34853 163.88 3.43495C164.456 3.52137 164.917 3.55018 165.321 3.49256C165.493 3.49256 165.81 3.49256 166.271 3.46376C166.732 3.43495 167.222 3.40614 167.769 3.40614C168.288 3.37734 168.777 3.34853 169.267 3.34853C169.728 3.31973 170.045 3.31973 170.218 3.31973C170.246 3.31973 170.419 3.29092 170.736 3.26211C171.024 3.23331 171.341 3.17569 171.687 3.14689C172.032 3.08928 172.321 3.06047 172.609 3.00286C172.897 2.97405 173.069 2.94524 173.156 2.94524C173.415 2.94524 173.818 2.91644 174.395 2.88763C174.971 2.83002 175.547 2.83002 176.094 2.88763C176.67 2.91644 177.189 3.00286 177.65 3.14689C178.111 3.26211 178.37 3.52137 178.399 3.89585L178.831 9.22502C178.86 9.5707 178.716 9.85876 178.399 10.0892C178.024 10.2909 177.707 10.4349 177.419 10.4637C176.584 10.5501 175.72 10.5213 174.884 10.3773C174.049 10.2332 173.185 10.2044 172.292 10.2909C172.09 10.2909 171.802 10.2909 171.456 10.3197C171.111 10.3485 170.765 10.4061 170.419 10.4637C170.045 10.5501 169.757 10.6941 169.498 10.8382C169.238 11.011 169.123 11.2703 169.123 11.5871C169.238 13.2867 169.238 15.0439 169.123 16.8587C169.008 18.6735 169.008 20.4595 169.181 22.1879C169.181 22.3895 169.209 22.6776 169.238 23.0233C169.267 23.3689 169.411 23.6282 169.613 23.8586C169.786 23.9739 170.045 24.0891 170.419 24.1467C170.794 24.2043 171.139 24.2331 171.543 24.2331C171.917 24.2331 172.292 24.2331 172.609 24.2043C172.954 24.1755 173.185 24.1755 173.358 24.1755C173.53 24.1755 173.847 24.1467 174.308 24.1179C174.769 24.0891 175.259 24.0315 175.777 23.9739C176.296 23.9163 176.785 23.8586 177.246 23.8298C177.707 23.7722 178.024 23.7722 178.197 23.7722C178.312 23.7722 178.427 23.8586 178.514 24.0027C178.6 24.1467 178.629 24.2619 178.629 24.3483L179.061 28.4677C179.09 28.8421 179.004 29.2166 178.773 29.6199C178.543 29.9944 178.255 30.2248 177.909 30.2536C176.987 30.3689 176.037 30.3689 175.115 30.2248C174.193 30.0808 173.242 30.052 172.263 30.1384C171.658 30.2248 171.255 30.3689 170.995 30.5993C170.736 30.8298 170.563 31.1178 170.477 31.4635C170.39 31.8092 170.362 32.1837 170.362 32.6158V33.9409C170.362 34.0561 170.333 34.373 170.304 34.8627C170.275 35.3524 170.218 35.8709 170.131 36.4182C170.074 36.9655 170.016 37.484 169.958 37.9449C169.93 38.4058 169.872 38.7227 169.843 38.8379C169.93 38.8955 169.958 39.0108 169.901 39.2124C169.872 39.4141 169.872 39.5869 169.958 39.7021C169.958 39.9614 169.987 40.2783 170.074 40.6239C170.16 40.9984 170.39 41.1712 170.765 41.1712H172.263H174.481H176.699H178.139C178.802 41.1712 179.436 41.2289 179.983 41.3729C180.53 41.4881 180.905 41.9778 181.135 42.7556C181.135 42.842 181.164 43.0437 181.222 43.3605C181.279 43.6774 181.337 44.0231 181.423 44.4264C181.481 44.8297 181.539 45.2329 181.625 45.6362C181.683 46.0395 181.74 46.3564 181.798 46.558V46.9325C181.884 47.5374 181.74 47.8543 181.366 47.9407C180.991 48.0271 180.559 48.1136 180.098 48.2C178.312 48.4016 176.555 48.4593 174.769 48.344C172.983 48.2576 171.226 48.1712 169.44 48.1136C169.325 48.0848 169.008 48.0848 168.489 48.1424C167.971 48.2 167.683 48.2288 167.596 48.2288C167.423 48.2288 167.107 48.2288 166.674 48.2576C166.242 48.2864 165.753 48.3152 165.292 48.344C164.802 48.3728 164.341 48.4016 163.938 48.4304C163.477 48.4304 163.189 48.4304 163.016 48.4304Z" fill="#2BB673"/>
<path d="M187.413 38.3483C187.701 37.5417 188.248 37.0232 189.026 36.7928C189.804 36.5623 190.726 36.5047 191.82 36.5911C192.886 36.7063 194.096 36.8792 195.421 37.196C196.746 37.4841 198.129 37.7722 199.569 38.0314C200.145 38.0026 200.664 37.8298 201.125 37.5993C201.557 37.3401 201.989 37.0232 202.364 36.6199C202.738 36.2166 203.113 35.7557 203.429 35.266C203.775 34.7475 204.121 34.2578 204.495 33.7393C204.524 33.7105 204.582 33.5953 204.61 33.4512C204.639 33.3072 204.668 33.2208 204.668 33.1632L204.409 29.4183C204.322 29.3895 204.063 29.1591 203.602 28.7846C203.17 28.4101 202.824 28.1221 202.565 27.8916C202.479 27.8052 202.306 27.69 202.075 27.5459C201.845 27.4019 201.672 27.3155 201.615 27.3155C200.145 26.6817 198.763 26.1632 197.466 25.7887C196.17 25.4143 194.989 24.9534 193.866 24.4348C192.742 23.9163 191.734 23.1962 190.812 22.2744C189.89 21.3526 189.113 20.0563 188.45 18.3855C188.45 18.2703 188.45 18.0686 188.421 17.8094C188.392 17.5501 188.364 17.2909 188.335 17.0316C188.306 16.7436 188.248 16.5131 188.248 16.2827C188.22 16.0522 188.22 15.9082 188.22 15.8218C188.191 15.2168 188.133 14.6119 188.047 13.9205C187.989 13.2292 188.047 12.6242 188.277 12.0193C188.335 11.8177 188.421 11.5296 188.565 11.0687C188.681 10.6366 188.853 10.1757 188.997 9.71481C189.17 9.25391 189.314 8.793 189.487 8.38972C189.631 7.95762 189.718 7.66956 189.775 7.49672V7.17985C190.034 6.80537 190.265 6.5173 190.467 6.28685C190.668 6.08521 190.87 5.85476 191.071 5.62431C191.273 5.39386 191.417 5.22102 191.532 5.07699C192.915 3.52145 194.298 2.34039 195.68 1.53381C197.063 0.727232 198.734 0.237524 200.722 0.00707349C201.269 -0.0217328 202.076 0.0358798 203.141 0.208718C204.207 0.381556 205.244 0.640813 206.31 0.986489C207.376 1.33216 208.298 1.76426 209.104 2.28277C209.911 2.80129 210.343 3.37741 210.372 4.01115C210.401 4.38564 210.401 4.90415 210.314 5.53789C210.228 6.17163 210.084 6.80537 209.911 7.43911C209.709 8.07285 209.479 8.62017 209.162 9.10987C208.845 9.59958 208.471 9.85884 208.038 9.88765C206.944 9.97406 205.849 9.97406 204.754 9.85884C203.631 9.77242 202.508 9.77242 201.413 9.85884C201.211 9.85884 200.779 9.88765 200.117 9.97406C199.483 10.0605 199.022 10.0893 198.82 10.0893C198.705 10.1757 198.504 10.2621 198.215 10.3774C197.927 10.4926 197.668 10.6078 197.38 10.7806C197.092 10.9535 196.862 11.1263 196.689 11.2703C196.487 11.4432 196.401 11.616 196.401 11.7889L196.718 15.5913C196.718 15.7929 196.862 15.9946 197.121 16.1962C197.38 16.3979 197.697 16.5707 198.014 16.7724C198.359 16.974 198.676 17.1468 199.022 17.2909C199.368 17.4349 199.598 17.5213 199.713 17.5789C201.413 18.3855 202.94 19.1345 204.351 19.8546C205.734 20.5748 206.944 21.4102 207.952 22.3896C208.96 23.369 209.767 24.5213 210.401 25.8464C211.005 27.1714 211.409 28.8422 211.582 30.8299C211.754 32.5582 211.639 34.2866 211.236 35.9574C210.833 37.657 210.17 39.1549 209.277 40.48C208.355 41.8051 207.232 42.9285 205.82 43.7927C204.438 44.6857 202.853 45.2042 201.067 45.377C199.598 45.5499 198.071 45.5787 196.516 45.4347C194.96 45.3194 193.52 45.0026 192.224 44.4841C190.927 43.9655 189.862 43.2166 188.969 42.2372C188.047 41.2577 187.557 39.9615 187.413 38.3483Z" fill="#2BB673"/>
<path d="M246.813 47.4224C246.438 44.6858 246.237 41.978 246.208 39.2702C246.179 36.5912 246.179 33.8834 246.179 31.2044C246.093 26.3938 245.92 21.6119 245.689 16.8589C245.459 12.1058 245.142 7.29519 244.71 2.45573C244.796 2.19647 244.94 1.96602 245.113 1.79318C245.315 1.59154 245.574 1.47631 245.891 1.38989H246.15C249.031 1.47631 251.652 1.67796 254.072 1.99483C256.492 2.28289 258.595 2.88782 260.381 3.80962C262.167 4.73143 263.665 6.02771 264.817 7.69848C265.969 9.36925 266.747 11.5873 267.121 14.3239C267.294 15.5914 267.294 16.9741 267.121 18.472C266.948 19.97 266.545 21.3815 265.911 22.7066C265.278 24.0317 264.385 25.1839 263.232 26.1633C262.08 27.1428 260.64 27.6901 258.854 27.8629C258.018 27.9493 257.183 27.9205 256.377 27.7765C255.57 27.6325 254.763 27.5172 253.957 27.4308C253.611 27.546 253.381 27.7189 253.294 27.9205C253.179 28.1222 253.121 28.3814 253.121 28.6983C253.121 28.8999 253.121 29.3032 253.15 29.8505C253.179 30.3979 253.179 30.974 253.208 31.5501C253.237 32.1551 253.237 32.7312 253.265 33.2497C253.294 33.797 253.323 34.1715 253.352 34.402C253.352 34.4884 253.352 34.7188 253.381 35.0933C253.409 35.4678 253.438 35.6982 253.467 35.7847L253.582 47.3072C253.496 47.5664 253.409 47.8545 253.352 48.229C253.294 48.6035 253.093 48.8339 252.747 48.9492C252.574 48.9492 252.228 48.978 251.71 49.0068C251.191 49.0356 250.846 49.0932 250.73 49.1508C250.183 49.2372 249.665 49.2948 249.204 49.2948C248.743 49.3236 248.34 49.266 247.994 49.1796C247.648 49.0644 247.36 48.8915 247.13 48.6035C247.043 48.373 246.87 47.9697 246.813 47.4224ZM254.735 17.6943C254.821 18.2992 254.994 18.7313 255.253 19.0482C255.512 19.365 256.002 19.4803 256.78 19.3939C257.385 19.3362 257.817 19.1346 258.134 18.7601C258.451 18.3856 258.681 17.9247 258.854 17.435C259.027 16.9165 259.113 16.4268 259.113 15.8795C259.113 15.361 259.084 14.9001 259.056 14.5256C259.027 14.2375 258.911 13.6902 258.71 12.9412C258.508 12.1923 258.278 11.4145 257.961 10.6655C257.644 9.91657 257.241 9.25402 256.751 8.7067C256.261 8.15938 255.714 7.92893 255.138 8.01535C254.965 8.01535 254.85 8.2458 254.763 8.7067C254.677 9.1676 254.619 9.74373 254.591 10.4351C254.562 11.1264 254.562 11.9042 254.562 12.7108C254.562 13.5462 254.562 14.2951 254.591 14.9865C254.619 15.6778 254.648 16.2828 254.677 16.8013C254.706 17.3198 254.735 17.6079 254.735 17.6943Z" fill="#2BB673"/>
<path d="M291.346 50.0148C290.54 48.8625 289.906 47.8831 289.445 46.9901C288.984 46.1259 288.437 45.1753 287.861 44.1671C287.774 44.0231 287.63 43.8502 287.429 43.6198C287.227 43.3893 287.025 43.1301 286.824 42.8996C286.622 42.6404 286.478 42.4099 286.363 42.1795C286.248 41.949 286.219 41.7186 286.305 41.5169C285.787 40.7968 285.297 40.0478 284.807 39.2988C284.318 38.5211 283.857 37.8009 283.396 37.0807H283.281C283.252 37.0807 283.194 37.0519 283.165 37.0231C282.791 36.9367 282.647 37.1095 282.733 37.5416C282.762 37.9737 282.82 38.7227 282.848 39.8173C282.877 40.912 282.935 42.093 282.992 43.3317C283.05 44.5704 283.108 45.7514 283.194 46.8749C283.252 47.9983 283.309 48.7761 283.338 49.1794L283.396 49.381C283.309 49.4963 283.194 49.6691 283.021 49.8708C282.848 50.0724 282.733 50.13 282.704 50.1012L276.252 50.5333C275.877 50.5909 275.56 50.4181 275.301 50.0724C275.042 49.6979 274.898 49.381 274.869 49.093C274.869 49.0354 274.869 49.0066 274.898 49.0066C274.927 48.9778 274.927 48.9201 274.927 48.8625V48.6609C274.927 48.6321 274.955 48.5169 274.984 48.3152C275.013 48.1136 275.071 47.9119 275.1 47.7103C275.128 47.5086 275.186 47.307 275.215 47.1342C275.244 46.9613 275.272 46.8461 275.272 46.8173C275.272 46.702 275.244 46.414 275.186 45.9531C275.128 45.521 275.071 45.0313 275.013 44.5704C274.984 44.0807 274.927 43.6198 274.898 43.2165C274.869 42.7844 274.84 42.5251 274.84 42.3811V40.8256C274.84 39.9902 274.84 39.126 274.811 38.2042C274.783 37.2824 274.783 36.3894 274.754 35.5828C274.725 34.7762 274.725 34.2289 274.725 34.0273C274.725 33.8256 274.696 33.4223 274.667 32.875C274.639 32.3277 274.581 31.7228 274.552 31.089C274.523 30.4553 274.466 29.8792 274.437 29.303C274.408 28.7557 274.379 28.3812 274.379 28.1508C274.408 28.0644 274.437 27.8627 274.437 27.5746V26.9985C274.552 23.3113 274.581 19.6817 274.495 16.1097C274.408 12.5089 274.293 8.90814 274.178 5.27854C274.178 5.16332 274.178 4.90406 274.149 4.58719C274.12 4.24152 274.091 3.89584 274.062 3.49255C274.034 3.11807 273.976 2.74359 273.976 2.3691C273.947 2.02343 273.947 1.76417 273.947 1.64894C274.034 1.38969 274.149 1.24566 274.293 1.21685C274.437 1.18804 274.61 1.15924 274.754 1.15924C276.453 1.04401 278.095 0.957593 279.709 0.928787C281.322 0.89998 282.82 1.07282 284.231 1.41849C285.643 1.76417 286.939 2.3691 288.062 3.23329C289.215 4.06868 290.165 5.27854 290.914 6.83408C291.462 7.92873 292.009 8.99456 292.556 10.0316C293.103 11.0686 293.42 12.1921 293.507 13.4307C293.68 15.9657 293.247 18.3278 292.21 20.4883C291.173 22.6776 289.704 24.6364 287.803 26.4224C287.63 26.624 287.544 26.8545 287.544 27.1137C287.63 27.4882 287.774 27.8627 288.034 28.1796C288.264 28.5253 288.35 28.8709 288.264 29.2742L290.857 34.4594V34.661L293.449 38.8379C293.449 38.8667 293.622 39.2412 293.996 39.875C294.342 40.5375 294.774 41.2577 295.235 42.093C295.696 42.9284 296.128 43.735 296.503 44.5704C296.877 45.4058 297.108 46.0107 297.136 46.4428C297.165 46.8173 297.05 47.2494 296.733 47.7103C296.416 48.1712 296.013 48.6033 295.552 48.9778C295.091 49.3522 294.601 49.6691 294.083 49.9572C293.564 50.2164 293.132 50.3605 292.758 50.3605C292.095 50.4757 291.634 50.3605 291.346 50.0148ZM280.717 19.8545C280.89 20.0562 281.005 20.229 281.12 20.3443C281.235 20.4595 281.408 20.5171 281.667 20.5747C282.503 20.4595 283.194 20.1714 283.713 19.6241C284.231 19.1056 284.634 18.4718 284.922 17.7805C285.211 17.0891 285.383 16.369 285.47 15.5912C285.556 14.8422 285.585 14.1797 285.585 13.6324C285.556 13.2003 285.441 12.6818 285.268 12.0768C285.095 11.4719 284.865 10.8958 284.577 10.3197C284.289 9.77233 283.914 9.31143 283.453 8.96575C283.021 8.62008 282.474 8.44724 281.84 8.47605C281.408 8.53366 281.091 8.76411 280.861 9.1674C280.63 9.59949 280.457 10.0892 280.4 10.6365C280.313 11.1838 280.285 11.7312 280.285 12.2497V13.3731C280.285 13.4307 280.285 13.5748 280.313 13.8052C280.342 14.0645 280.342 14.3525 280.371 14.6982C280.4 15.0439 280.4 15.3896 280.429 15.7352C280.457 16.1097 280.486 16.369 280.515 16.5994C280.515 16.7147 280.515 16.9451 280.544 17.2332C280.573 17.5212 280.602 17.8669 280.602 18.2126C280.63 18.5871 280.63 18.9039 280.659 19.192C280.688 19.5089 280.717 19.7393 280.717 19.8545Z" fill="#2BB673"/>
<path d="M322.084 49.0643C321.71 48.9779 321.422 48.7474 321.22 48.373C321.019 47.9985 320.875 47.5952 320.788 47.1631C320.673 46.731 320.586 46.3565 320.529 46.0396C320.471 45.7228 320.356 45.5787 320.183 45.5787C319.924 45.6364 319.607 45.8092 319.204 46.1549C318.801 46.5005 318.34 46.875 317.85 47.3071C317.331 47.7392 316.784 48.1425 316.15 48.517C315.517 48.8915 314.854 49.1219 314.191 49.1507C313.356 49.2371 312.521 49.2083 311.685 49.0355C310.85 48.8627 310.101 48.5746 309.438 48.1425C307.912 47.2495 306.731 46.1549 305.866 44.8586C305.002 43.5623 304.311 42.122 303.85 40.5952C303.36 39.0685 303.015 37.4554 302.842 35.7846C302.64 34.1138 302.467 32.5007 302.294 30.9451C302.006 27.9781 301.949 25.0686 302.122 22.1304C302.323 19.2209 302.496 16.2539 302.727 13.258V12.6531C302.727 12.3362 302.755 11.9906 302.784 11.6449C302.813 11.2704 302.842 10.9535 302.842 10.6367V10.0317C302.871 9.36918 302.899 8.76425 302.899 8.24574C302.899 7.72722 302.986 7.29513 303.159 6.94945C303.332 6.60378 303.62 6.28691 304.023 6.02765C304.426 5.76839 305.031 5.59556 305.895 5.45152C306.097 5.42272 306.414 5.42272 306.817 5.48033C307.22 5.53794 307.652 5.65317 308.085 5.76839C308.517 5.88362 308.949 6.02765 309.352 6.20049C309.755 6.37333 310.015 6.54616 310.159 6.719C310.159 6.80542 310.187 6.94945 310.216 7.1511C310.245 7.35274 310.274 7.52558 310.274 7.58319C310.36 8.505 310.389 9.48441 310.331 10.4926C310.303 11.5009 310.216 12.5379 310.072 13.5749C309.957 14.6119 309.813 15.6202 309.727 16.6572C309.611 17.6654 309.554 18.6448 309.496 19.5666C309.381 21.4678 309.381 23.3403 309.554 25.1551C309.726 26.9699 309.899 28.8423 310.13 30.7435C310.245 32.0686 310.447 33.3361 310.677 34.5747C310.908 35.8134 311.541 36.908 312.607 37.8298C312.694 37.9163 312.924 38.1179 313.298 38.406C313.673 38.694 313.903 38.8957 313.99 38.9821C314.019 38.9821 314.105 39.0109 314.22 39.0397C314.336 39.0685 314.393 39.0973 314.451 39.0973H314.566H314.624C314.71 39.0397 314.883 38.9533 315.142 38.8381C315.401 38.7228 315.574 38.55 315.661 38.3195C316.496 36.5912 317.101 34.8628 317.475 33.192C317.85 31.4924 318.08 29.8217 318.167 28.1509C318.282 26.4801 318.311 24.7806 318.253 23.0522C318.224 21.3238 318.224 19.5378 318.253 17.6654V17.2909C318.253 17.0605 318.253 16.8012 318.282 16.542C318.311 16.2539 318.311 15.9946 318.34 15.7642C318.368 15.5337 318.368 15.3321 318.368 15.1881C318.368 15.1593 318.397 14.9864 318.426 14.6984C318.455 14.4103 318.512 14.0646 318.541 13.7189C318.57 13.3733 318.628 13.0564 318.656 12.7683C318.685 12.4803 318.714 12.3074 318.714 12.221C318.743 11.1264 318.714 10.147 318.628 9.31157C318.512 8.47619 318.541 7.75603 318.656 7.1511C318.772 6.54616 319.117 6.08526 319.665 5.73959C320.212 5.3651 321.191 5.13465 322.574 5.01943C322.833 4.99062 323.179 4.93301 323.582 4.9042C324.014 4.84659 324.418 4.84659 324.821 4.8754C325.224 4.9042 325.599 4.99062 325.973 5.13465C326.319 5.27869 326.578 5.53794 326.751 5.94123C326.751 6.14288 326.78 6.51736 326.866 7.06468C326.953 7.58319 327.01 7.92887 327.068 8.10171C327.27 10.1181 327.298 12.1058 327.154 14.0646C327.01 15.9946 326.895 17.9823 326.809 20.0275C326.78 20.6325 326.78 21.2662 326.866 21.9864C326.953 22.7065 326.924 23.3979 326.809 24.0892C327.097 26.0192 327.298 27.9781 327.414 29.8793C327.529 31.8093 327.586 33.7393 327.644 35.6694C327.673 37.5994 327.73 39.5582 327.759 41.4882C327.788 43.4471 327.874 45.3771 328.019 47.3071C327.932 47.6528 327.817 47.9985 327.702 48.3153C327.586 48.6322 327.327 48.8339 326.953 48.8915C326.06 48.9779 325.282 49.0067 324.591 48.9491C323.899 48.8339 323.064 48.8915 322.084 49.0643Z" fill="#2BB673"/>
<path d="M337.236 48.4304C337.063 48.3152 336.89 48.1712 336.717 48.0272C336.544 47.8831 336.458 47.7103 336.458 47.4798C336.256 45.4634 336.256 43.3893 336.487 41.3441C336.717 39.27 336.833 37.2248 336.833 35.1795C336.833 32.6446 336.746 30.1096 336.602 27.5459C336.458 24.9821 336.285 22.4471 336.141 19.8834C335.968 17.3196 335.824 14.7846 335.738 12.2497C335.623 9.71473 335.623 7.20858 335.709 4.70243C335.709 4.44317 335.795 4.18392 335.94 3.89585C336.084 3.60779 336.314 3.43495 336.602 3.37734C337.034 3.31973 337.524 3.34853 338.1 3.43495C338.676 3.52137 339.137 3.55018 339.511 3.49256C339.684 3.49256 340.001 3.49256 340.462 3.46376C340.923 3.43495 341.413 3.40614 341.96 3.40614C342.479 3.37734 342.968 3.34853 343.458 3.34853C343.919 3.31973 344.236 3.31973 344.409 3.31973C344.437 3.31973 344.61 3.29092 344.927 3.26211C345.215 3.23331 345.532 3.17569 345.878 3.14689C346.223 3.08928 346.511 3.06047 346.799 3.00286C347.088 2.97405 347.26 2.94524 347.347 2.94524C347.606 2.94524 348.009 2.91644 348.585 2.88763C349.162 2.83002 349.738 2.83002 350.285 2.88763C350.861 2.91644 351.38 3.00286 351.841 3.14689C352.302 3.26211 352.561 3.52137 352.59 3.89585L353.022 9.22502C353.05 9.5707 352.906 9.85876 352.59 10.0892C352.244 10.3197 351.927 10.4637 351.639 10.4925C350.804 10.5789 349.939 10.5501 349.104 10.4061C348.269 10.2621 347.404 10.2332 346.511 10.3197C346.31 10.3197 346.022 10.3197 345.676 10.3485C345.33 10.3773 344.985 10.4349 344.639 10.4925C344.265 10.5789 343.976 10.723 343.717 10.867C343.458 11.0398 343.343 11.2991 343.343 11.616C343.458 13.3155 343.458 15.0727 343.343 16.8875C343.228 18.7023 343.228 20.4883 343.4 22.2167C343.4 22.4183 343.429 22.7064 343.458 23.0521C343.487 23.3977 343.631 23.657 343.832 23.8874C344.005 24.0027 344.265 24.1179 344.61 24.1755C344.985 24.2331 345.33 24.2619 345.734 24.2619C346.108 24.2619 346.483 24.2619 346.799 24.2331C347.145 24.2043 347.404 24.2043 347.548 24.2043C347.721 24.2043 348.038 24.1755 348.499 24.1467C348.96 24.1179 349.45 24.0603 349.968 24.0027C350.487 23.9451 350.976 23.8874 351.437 23.8586C351.898 23.801 352.215 23.801 352.388 23.801C352.503 23.801 352.618 23.8874 352.705 24.0315C352.791 24.1755 352.82 24.2907 352.82 24.3772L353.252 28.4965C353.281 28.8709 353.194 29.2454 352.964 29.6487C352.734 30.0232 352.446 30.2536 352.1 30.2825C351.178 30.3977 350.227 30.3977 349.306 30.2536C348.384 30.1096 347.433 30.0808 346.454 30.1672C345.849 30.2536 345.446 30.3977 345.186 30.6281C344.927 30.8586 344.754 31.1466 344.668 31.4923C344.581 31.838 344.553 32.2125 344.553 32.6446V33.9697C344.553 34.0849 344.524 34.4018 344.495 34.8915C344.466 35.3812 344.409 35.8997 344.322 36.447C344.236 36.9943 344.207 37.5128 344.178 37.9737C344.149 38.4346 344.092 38.7515 344.063 38.8667C344.149 38.9244 344.178 39.0396 344.121 39.2412C344.092 39.4429 344.092 39.6157 344.178 39.7309C344.178 39.9902 344.207 40.3071 344.293 40.6527C344.38 41.0272 344.61 41.2001 344.985 41.2001H346.483H348.701H350.919H352.359C353.022 41.2001 353.655 41.2577 354.203 41.4017C354.75 41.5169 355.125 42.0066 355.355 42.7844C355.355 42.8708 355.384 43.0725 355.441 43.3893C355.499 43.7062 355.557 44.0519 355.643 44.4552C355.701 44.8585 355.758 45.2617 355.845 45.665C355.902 46.0683 355.96 46.3852 356.018 46.5868V46.9613C356.104 47.5663 355.96 47.8831 355.585 47.9695C355.211 48.056 354.779 48.1424 354.318 48.2288C352.532 48.4304 350.775 48.4881 348.989 48.3728C347.203 48.2864 345.446 48.2 343.66 48.1424C343.544 48.1136 343.228 48.1136 342.709 48.1712C342.19 48.2288 341.902 48.2576 341.816 48.2576C341.643 48.2576 341.326 48.2576 340.894 48.2864C340.462 48.3152 339.972 48.344 339.511 48.3728C339.022 48.4016 338.561 48.4304 338.158 48.4593C337.697 48.4304 337.409 48.4304 337.236 48.4304Z" fill="#2BB673"/>
<path d="M365.235 48.5746C365.206 48.2289 365.178 47.9697 365.178 47.7392C365.178 47.5376 365.206 47.2495 365.293 46.9038L365.235 33.6529C364.774 30.4266 364.515 27.1715 364.486 23.8588C364.429 20.546 364.371 17.2909 364.227 14.1222C364.112 12.6531 363.997 11.1552 363.881 9.68605C363.766 8.21693 363.737 6.719 363.795 5.24988C363.795 4.99062 363.766 4.76017 363.708 4.52972C363.651 4.29927 363.68 4.06882 363.795 3.80956C364.054 3.43508 364.429 3.11821 364.918 2.91656C365.408 2.71492 365.927 2.54208 366.503 2.45566C367.079 2.34044 367.626 2.28283 368.173 2.25402C368.721 2.22521 369.182 2.19641 369.585 2.1676C370.593 2.08118 371.544 2.1676 372.437 2.42686C373.33 2.68611 374.136 3.0606 374.914 3.5503C375.663 4.04001 376.383 4.61614 377.017 5.27868C377.651 5.94123 378.198 6.66139 378.659 7.43916C378.832 7.78483 378.976 8.15932 379.062 8.62022C379.177 9.05231 379.293 9.4268 379.466 9.71486L379.898 13.8918C379.869 13.9782 379.811 14.2086 379.782 14.5831C379.754 14.9576 379.725 15.2169 379.725 15.3321C379.638 15.9946 379.466 16.686 379.206 17.4062C378.947 18.0975 378.861 18.76 378.947 19.3938C378.976 19.9411 379.264 20.4308 379.725 20.8917C380.215 21.3238 380.618 21.7559 380.963 22.1304C381.079 22.2456 381.309 22.5049 381.655 22.8794C382.001 23.2538 382.231 23.5131 382.346 23.6283C382.317 23.7724 382.404 24.0028 382.634 24.4061C382.865 24.7806 383.153 25.2127 383.47 25.7024C383.786 26.1921 384.075 26.6818 384.305 27.1715C384.535 27.6612 384.622 28.0357 384.593 28.2661C384.622 28.3814 384.737 28.6406 384.881 28.9575C385.025 29.3032 385.169 29.6488 385.313 30.0233C385.457 30.3978 385.572 30.7435 385.688 31.0604C385.803 31.3772 385.861 31.6077 385.918 31.7229C385.918 31.7517 385.947 32.0398 385.976 32.5295C386.005 33.0192 386.091 33.3937 386.177 33.6529C386.379 35.5541 386.35 37.3689 386.033 39.1261C385.717 40.8833 385.256 42.6405 384.68 44.4265C384.708 44.5129 384.708 44.6281 384.68 44.7434C384.651 44.8586 384.593 44.9738 384.564 45.0602C384.132 45.8668 383.671 46.6158 383.153 47.3071C382.634 47.9985 381.885 48.4882 380.906 48.8051C380.733 48.8051 380.474 48.8339 380.099 48.8627C379.725 48.9203 379.35 48.9491 378.918 49.0355C378.486 49.0931 378.112 49.1507 377.737 49.1795C377.363 49.2083 377.103 49.2371 376.931 49.2371C376.671 49.2371 376.326 49.266 375.922 49.2948C375.49 49.3524 375.087 49.3812 374.655 49.41C374.223 49.4388 373.848 49.4964 373.531 49.4964C373.215 49.5252 373.042 49.5252 372.984 49.5252C372.955 49.5252 372.84 49.5252 372.667 49.554C372.494 49.5828 372.293 49.5828 372.091 49.5828C371.889 49.5828 371.659 49.5828 371.457 49.554C371.256 49.5252 371.083 49.5252 371.025 49.5252C370.478 49.5252 369.902 49.4964 369.268 49.4388C368.663 49.3812 368.058 49.3524 367.453 49.3524C366.82 49.3812 366.301 49.4388 365.927 49.4676C365.552 49.554 365.322 49.2371 365.235 48.5746ZM370.997 16.4267C371.025 16.5708 371.141 16.6572 371.285 16.686C371.429 16.7436 371.544 16.7436 371.63 16.7436C371.832 16.686 371.976 16.5996 372.005 16.4267C372.379 15.6778 372.61 14.9576 372.696 14.2663C372.782 13.6037 372.782 12.8259 372.696 11.9906C372.667 11.7889 372.61 11.5297 372.552 11.2704C372.494 10.9823 372.379 10.7519 372.235 10.5214C372.091 10.291 371.918 10.0893 371.688 9.94531C371.486 9.80128 371.227 9.74367 370.939 9.80128C370.91 9.80128 370.824 9.83008 370.708 9.85889C370.593 9.8877 370.536 9.9165 370.478 9.9165L370.276 10.291L370.997 16.4267ZM371.313 42.2948C371.342 42.7269 371.63 43.015 372.178 43.1878C372.696 43.3607 373.128 43.4183 373.474 43.3895C374.626 43.2742 375.519 42.9574 376.21 42.4965C376.902 42.0356 377.363 41.4594 377.68 40.7969C377.968 40.1343 378.14 39.3566 378.198 38.5212C378.227 37.6858 378.198 36.8216 378.083 35.9862C377.91 34.3731 377.536 32.7599 376.931 31.1468C376.326 29.5336 375.289 28.2085 373.82 27.1715C373.531 26.9987 373.272 26.8546 373.042 26.7682C372.811 26.653 372.523 26.6242 372.178 26.6818C371.918 26.6818 371.745 26.797 371.601 26.9987C371.486 27.2003 371.4 27.4596 371.342 27.7188C371.285 28.0069 371.285 28.2661 371.285 28.583V29.2744V34.5459C371.313 34.6323 371.371 34.8628 371.4 35.2661C371.429 35.6694 371.457 35.8998 371.457 35.9862C371.486 37.0809 371.457 38.1467 371.371 39.1549C371.256 40.1343 371.227 41.2002 371.313 42.2948Z" fill="#2BB673"/>
<path d="M411.873 48.056C411.672 47.9695 411.441 47.8255 411.24 47.6527C411.038 47.451 410.894 47.2494 410.865 47.0477L409.338 33.624C409.338 33.4512 409.252 33.3071 409.108 33.1919C408.964 33.0767 408.82 33.0191 408.705 33.0767L401.359 33.768L402.569 44.8585C402.655 45.521 402.857 46.1547 403.145 46.7309C403.433 47.307 403.635 47.9119 403.721 48.5457C403.75 48.8049 403.75 48.949 403.663 49.0066C403.577 49.0642 403.375 49.1218 403.087 49.1506C403.001 49.1506 402.886 49.1506 402.742 49.1794C402.598 49.2082 402.511 49.2082 402.454 49.2082H401.676C401.33 49.2082 400.956 49.2082 400.581 49.237C400.207 49.2658 399.861 49.2946 399.544 49.2946C399.227 49.3234 399.026 49.3234 398.939 49.3234C398.19 49.3234 397.557 49.237 397.096 49.0642C396.635 48.8913 396.26 48.6321 396.03 48.3152C395.771 47.9695 395.598 47.5663 395.482 47.0765C395.367 46.5868 395.281 46.0395 395.194 45.4058C394.993 43.0725 394.82 40.768 394.676 38.4635C394.532 36.159 394.445 33.8256 394.359 31.4635C394.359 31.4347 394.359 31.2043 394.33 30.7722C394.301 30.3401 394.273 29.8792 394.244 29.303C394.215 28.7557 394.157 28.2084 394.129 27.6899C394.1 27.1714 394.042 26.7393 394.013 26.4512C393.927 24.8381 394.013 23.3689 394.244 22.015C394.474 20.6611 394.734 19.192 395.022 17.5789C394.762 16.8587 394.82 16.1097 395.166 15.3032C395.511 14.4966 395.799 13.7764 396.03 13.1427C396.116 12.797 396.174 12.4801 396.174 12.1921C396.203 11.904 396.26 11.5583 396.404 11.1839C396.404 11.1551 396.433 11.0686 396.462 10.9534C396.491 10.8382 396.548 10.8094 396.577 10.8094C397.038 9.97399 397.441 9.1098 397.787 8.24561C398.133 7.38142 398.594 6.51723 399.198 5.68185C399.573 5.16333 400.034 4.64482 400.581 4.1263C401.128 3.60779 401.733 3.08928 402.367 2.62838C403.001 2.16747 403.663 1.79299 404.355 1.47612C405.046 1.18806 405.738 0.986415 406.4 0.899996C408.301 0.727158 409.77 0.986415 410.836 1.67777C411.902 2.36912 412.737 3.26212 413.342 4.38556C413.947 5.4802 414.437 6.69007 414.754 8.04397C415.1 9.36906 415.474 10.6077 415.906 11.76C415.906 11.8752 415.935 12.1345 415.993 12.4513C416.05 12.7682 416.108 13.1427 416.137 13.5172C416.194 13.8917 416.223 14.2373 416.309 14.5542C416.367 14.8711 416.396 15.1015 416.396 15.2167C416.684 18.011 416.857 20.8052 416.943 23.657C417.001 26.48 417.087 29.303 417.231 32.0973C417.231 32.8174 417.174 33.5664 417.058 34.3153C416.943 35.0643 416.914 35.8133 416.972 36.5334C416.972 36.6199 417.001 36.8503 417.03 37.196C417.058 37.5705 417.116 37.9449 417.145 38.377C417.174 38.8091 417.231 39.1836 417.318 39.5581C417.375 39.9326 417.404 40.1342 417.404 40.2206V42.3235C417.404 42.4099 417.404 42.6404 417.433 42.986C417.462 43.3605 417.462 43.735 417.491 44.1671C417.519 44.5992 417.519 44.9737 417.548 45.3482C417.577 45.7227 417.577 45.9531 417.577 46.0683C417.577 46.3276 417.548 46.7021 417.462 47.2206C417.375 47.7391 417.087 48.0272 416.626 48.1136H416.511C416.482 48.1136 416.338 48.0848 416.108 48.056C415.877 48.0272 415.733 47.9984 415.705 47.9984C415.589 47.9984 415.33 47.9984 414.956 48.0272C414.581 48.056 414.178 48.056 413.774 48.056C413.371 48.056 412.997 48.056 412.622 48.0848C412.248 48.056 412.017 48.056 411.873 48.056ZM401.503 25.2413C401.532 25.7599 401.849 26.1055 402.396 26.3072C402.943 26.5088 403.577 26.6529 404.297 26.7105C405.017 26.7681 405.738 26.7969 406.458 26.7681C407.178 26.7393 407.725 26.7105 408.1 26.6817C408.186 26.6817 408.359 26.6817 408.618 26.6529C408.877 26.6241 409.05 26.6241 409.137 26.6241C409.223 26.5088 409.281 26.3936 409.338 26.2784C409.367 26.1632 409.425 26.0479 409.454 25.9327C409.454 25.6734 409.425 25.2702 409.396 24.694C409.338 24.1179 409.309 23.513 409.309 22.8216C409.281 22.1591 409.281 21.5253 409.252 20.9492C409.223 20.3731 409.223 19.9698 409.223 19.7105C409.252 19.6241 409.281 19.4225 409.281 19.1344V18.5295L408.647 12.3649C408.618 12.0769 408.503 11.7312 408.33 11.3567C408.157 10.9822 407.956 10.6365 407.696 10.3197C407.437 10.0028 407.149 9.74354 406.775 9.5707C406.4 9.36906 406.054 9.31145 405.68 9.34025C405.334 9.36906 405.017 9.48428 404.729 9.65712C403.347 11.0974 402.454 12.5954 402.137 14.1509C401.791 15.7065 401.618 17.4348 401.561 19.2784C401.561 20.2867 401.532 21.2949 401.503 22.2455C401.388 23.2249 401.417 24.2331 401.503 25.2413Z" fill="#2BB673"/>
<path d="M421.782 38.3483C422.07 37.5417 422.618 37.0232 423.395 36.7928C424.173 36.5623 425.095 36.5047 426.19 36.5911C427.255 36.7063 428.465 36.8792 429.79 37.196C431.115 37.4841 432.498 37.7722 433.939 38.0314C434.515 38.0026 435.033 37.8298 435.494 37.5993C435.926 37.3401 436.358 37.0232 436.733 36.6199C437.107 36.2166 437.482 35.7557 437.799 35.266C438.144 34.7475 438.49 34.2578 438.864 33.7393C438.893 33.7105 438.951 33.5953 438.98 33.4512C439.008 33.3072 439.037 33.2208 439.037 33.1632L438.778 29.4183C438.692 29.3895 438.432 29.1591 437.971 28.7846C437.539 28.4101 437.194 28.1221 436.934 27.8916C436.848 27.8052 436.675 27.69 436.445 27.5459C436.214 27.4019 436.041 27.3155 435.984 27.3155C434.515 26.6817 433.132 26.1632 431.836 25.7887C430.539 25.4143 429.358 24.9534 428.235 24.4348C427.111 23.9163 426.103 23.1962 425.181 22.2744C424.26 21.3526 423.482 20.0563 422.819 18.3855C422.819 18.2703 422.819 18.0686 422.79 17.8094C422.762 17.5501 422.733 17.2909 422.704 17.0316C422.675 16.7436 422.618 16.5131 422.618 16.2827C422.589 16.0522 422.589 15.9082 422.589 15.8218C422.56 15.2168 422.502 14.6119 422.416 13.9205C422.358 13.2292 422.416 12.6242 422.646 12.0193C422.675 11.8465 422.762 11.5296 422.906 11.0975C423.021 10.6654 423.194 10.2045 423.338 9.74361C423.511 9.28271 423.655 8.82181 423.827 8.41852C423.972 7.98643 424.058 7.69836 424.116 7.52553V7.17985C424.375 6.80537 424.605 6.5173 424.807 6.28685C425.009 6.08521 425.21 5.85476 425.412 5.62431C425.613 5.39386 425.757 5.22102 425.873 5.07699C427.255 3.52145 428.638 2.34039 430.021 1.53381C431.404 0.727232 433.074 0.237524 435.062 0.00707349C435.609 -0.0217328 436.416 0.0358798 437.482 0.208718C438.548 0.381556 439.585 0.640813 440.65 0.986489C441.716 1.33216 442.638 1.76426 443.445 2.28277C444.251 2.80129 444.683 3.37741 444.712 4.01115C444.741 4.38564 444.741 4.90415 444.654 5.53789C444.568 6.17163 444.424 6.80537 444.251 7.43911C444.05 8.07285 443.819 8.62017 443.502 9.10987C443.185 9.59958 442.811 9.85884 442.379 9.88765C441.284 9.97406 440.19 9.97406 439.095 9.85884C438 9.74361 436.906 9.74361 435.782 9.83003C435.58 9.83003 435.148 9.85884 434.486 9.94526C433.823 10.0317 433.391 10.0605 433.19 10.0605C433.074 10.1469 432.873 10.2333 432.585 10.3485C432.297 10.4638 432.037 10.579 431.749 10.7518C431.461 10.9247 431.231 11.0975 431.058 11.2415C430.856 11.4144 430.77 11.5872 430.77 11.7601L431.087 15.5625C431.087 15.7641 431.231 15.9658 431.49 16.1674C431.749 16.3691 432.066 16.5419 432.383 16.7436C432.7 16.9452 433.017 17.118 433.362 17.2621C433.708 17.4061 433.939 17.4925 434.054 17.5501C435.753 18.3567 437.28 19.1057 438.692 19.8258C440.074 20.546 441.284 21.3814 442.292 22.3608C443.301 23.3402 444.107 24.4925 444.741 25.8175C445.346 27.1426 445.749 28.8134 445.922 30.801C446.095 32.5294 445.98 34.2578 445.576 35.9286C445.173 37.6281 444.51 39.1261 443.617 40.4512C442.696 41.7763 441.572 42.8997 440.161 43.7639C438.778 44.6569 437.194 45.1754 435.408 45.3482C433.939 45.5211 432.412 45.5499 430.856 45.4059C429.301 45.2906 427.86 44.9738 426.564 44.4552C425.268 43.9367 424.202 43.1878 423.309 42.2084C422.416 41.2577 421.897 39.9615 421.782 38.3483Z" fill="#2BB673"/>
<path d="M244.402 241.395C244.402 252.145 235.685 260.849 224.949 260.849C214.214 260.849 205.496 252.131 205.496 241.395C205.496 230.646 214.2 221.942 224.949 221.942C235.699 221.942 244.402 230.646 244.402 241.395Z" fill="#2FAC66"/>
<path d="M290.516 236.453C290.516 247.203 281.798 255.906 271.063 255.906C260.313 255.906 251.609 247.189 251.609 236.453C251.609 225.704 260.313 217 271.063 217C281.798 217 290.516 225.718 290.516 236.453Z" fill="#2FAC66"/>
<path d="M271.05 278.682C271.05 289.431 262.332 298.135 251.597 298.135C240.861 298.135 232.144 289.417 232.144 278.682C232.144 267.932 240.847 259.229 251.597 259.229C262.346 259.229 271.05 267.932 271.05 278.682Z" fill="#2FAC66"/>
<path d="M316.285 273.849C316.285 284.599 307.568 293.303 296.832 293.303C286.083 293.303 277.379 284.585 277.379 273.849C277.379 263.1 286.096 254.396 296.832 254.396C307.568 254.396 316.285 263.1 316.285 273.849Z" fill="#2FAC66"/>
<path d="M348.906 235.453C348.906 246.203 340.189 254.906 329.453 254.906C318.718 254.906 310 246.189 310 235.453C310 224.704 318.718 216 329.453 216C340.189 216 348.906 224.704 348.906 235.453Z" fill="#2FAC66"/>
<path d="M224.949 282.883C224.949 293.632 216.232 302.336 205.482 302.336C194.733 302.336 186.029 293.618 186.029 282.883C186.029 272.133 194.747 263.43 205.482 263.43C216.246 263.416 224.949 272.133 224.949 282.883Z" fill="#2FAC66"/>
<path d="M219.567 233.254C219.567 233.103 219.663 233.007 219.814 233.007H225.773C229.15 233.007 230.838 234.737 230.838 237.428C230.838 239.377 229.905 240.572 228.587 241.093V241.135C229.726 241.45 231.14 242.768 231.14 245.02C231.14 248.163 229.164 249.811 225.649 249.811H219.814C219.663 249.811 219.567 249.715 219.567 249.564V233.254ZM225.718 240.27C227.571 240.27 228.656 239.199 228.656 237.648C228.656 236.041 227.571 234.998 225.718 234.998H221.915C221.819 234.998 221.764 235.053 221.764 235.149V240.119C221.764 240.215 221.819 240.27 221.915 240.27H225.718ZM221.915 247.807H225.841C227.846 247.807 228.93 246.722 228.93 245.033C228.93 243.372 227.846 242.26 225.841 242.26H221.915C221.819 242.26 221.764 242.301 221.764 242.411V247.656C221.764 247.765 221.819 247.807 221.915 247.807Z" fill="white"/>
<path d="M291.945 265.708C291.945 265.557 292.041 265.461 292.192 265.461H302.297C302.448 265.461 302.544 265.557 302.544 265.708V267.26C302.544 267.411 302.448 267.507 302.297 267.507H294.293C294.197 267.507 294.142 267.562 294.142 267.658V272.6C294.142 272.696 294.197 272.751 294.293 272.751H301.088C301.239 272.751 301.336 272.847 301.336 272.998V274.55C301.336 274.701 301.239 274.797 301.088 274.797H294.293C294.197 274.797 294.142 274.852 294.142 274.948V280.068C294.142 280.164 294.197 280.219 294.293 280.219H302.297C302.448 280.219 302.544 280.315 302.544 280.466V282.032C302.544 282.183 302.448 282.279 302.297 282.279H292.192C292.041 282.279 291.945 282.183 291.945 282.032V265.708Z" fill="white"/>
<path d="M198.865 289.486L200.1 288.429C200.224 288.333 200.348 288.36 200.471 288.484C200.993 288.978 201.885 289.527 202.915 289.527C204.864 289.527 206.031 288.388 206.031 285.917V274.742C206.031 274.591 206.127 274.495 206.278 274.495H207.981C208.132 274.495 208.228 274.591 208.228 274.742V285.917C208.228 289.651 206.127 291.573 202.832 291.573C201.199 291.573 199.675 290.831 198.851 289.843C198.769 289.733 198.769 289.596 198.865 289.486Z" fill="white"/>
<path d="M250.525 270.541C250.58 270.39 250.649 270.294 250.813 270.294H252.42C252.598 270.294 252.694 270.39 252.735 270.541L258.501 286.85C258.556 287.001 258.474 287.097 258.323 287.097H256.593C256.415 287.097 256.319 287.029 256.277 286.85L254.987 283.198H248.191L246.901 286.85C246.832 287.029 246.722 287.097 246.571 287.097H244.842C244.691 287.097 244.622 287.001 244.663 286.85L250.525 270.541ZM254.287 281.167L251.637 273.534H251.582L248.905 281.167H254.287Z" fill="white"/>
<path d="M328.369 227.312C328.424 227.161 328.492 227.065 328.657 227.065H330.263C330.442 227.065 330.538 227.161 330.593 227.312L336.359 243.622C336.414 243.773 336.331 243.869 336.18 243.869H334.451C334.272 243.869 334.176 243.8 334.135 243.622L332.844 239.956H326.049L324.758 243.622C324.69 243.8 324.58 243.869 324.429 243.869H322.699C322.548 243.869 322.479 243.773 322.521 243.622L328.369 227.312ZM332.13 237.938L329.481 230.305H329.426L326.749 237.938H332.13Z" fill="white"/>
<path d="M265.01 243.798C264.914 243.702 264.887 243.551 264.983 243.427L266.067 242.137C266.163 242.013 266.287 242.013 266.41 242.109C267.495 242.974 269.184 243.839 271.106 243.839C273.426 243.839 274.812 242.672 274.812 240.97C274.812 239.542 274.002 238.567 271.298 238.224L270.46 238.101C267.193 237.661 265.518 236.096 265.518 233.46C265.518 230.468 267.673 228.546 271.009 228.546C272.986 228.546 274.895 229.191 276.13 230.097C276.254 230.193 276.281 230.317 276.185 230.44L275.348 231.799C275.252 231.923 275.128 231.923 275.004 231.854C273.645 231.017 272.382 230.591 270.954 230.591C268.909 230.591 267.77 231.703 267.77 233.309C267.77 234.723 268.703 235.657 271.298 236L272.121 236.124C275.403 236.563 277.064 238.073 277.064 240.819C277.064 243.757 274.991 245.885 270.941 245.885C268.552 245.898 266.246 244.924 265.01 243.798Z" fill="white"/>
<path d="M254.521 224.043C254.521 224.043 265.997 234.339 271.805 238.787C277.612 243.235 286.233 250.676 286.233 250.676" stroke="black" stroke-width="1.3" stroke-linecap="round"/>
<path d="M257.582 253.751C257.582 253.751 266.602 242.274 271.05 236.467C275.498 230.66 283.693 221.585 283.693 221.585" stroke="black" stroke-width="1.3" stroke-linecap="round"/>
<path d="M218.25 221.585C218.25 221.585 222.863 236.302 225.595 243.084C228.327 249.88 231.951 260.684 231.951 260.684" stroke="black" stroke-width="1.3" stroke-linecap="round"/>
<path d="M205.729 248.699C205.729 248.699 219.348 243.427 226.13 240.695C232.925 237.963 244.595 234.339 244.595 234.339" stroke="black" stroke-width="1.3" stroke-linecap="round"/>
<path d="M242 258.885C242 258.885 248.974 272.641 252.777 278.888C256.58 285.148 261.934 295.197 261.934 295.197" stroke="black" stroke-width="1.3" stroke-linecap="round"/>
<path d="M234.121 287.688C234.121 287.688 246.683 280.247 252.929 276.444C259.175 272.641 270.09 267.136 270.09 267.136" stroke="black" stroke-width="1.3" stroke-linecap="round"/>
<path d="M278.778 263.114C278.778 263.114 292.122 270.829 298.726 273.987C305.329 277.144 315.296 282.649 315.296 282.649" stroke="black" stroke-width="1.3" stroke-linecap="round"/>
<path d="M287.881 291.545C287.881 291.545 294.347 278.462 297.504 271.859C300.662 265.255 306.812 254.698 306.812 254.698" stroke="black" stroke-width="1.3" stroke-linecap="round"/>
<path d="M311.099 220.915C311.099 220.915 322.576 231.211 328.383 235.659C334.19 240.107 342.811 247.548 342.811 247.548" stroke="black" stroke-width="1.3" stroke-linecap="round"/>
<path d="M314.146 250.609C314.146 250.609 323.165 239.132 327.613 233.325C332.061 227.518 340.257 218.444 340.257 218.444" stroke="black" stroke-width="1.3" stroke-linecap="round"/>
<path d="M185 284.654C185 284.654 200.184 281.963 207.267 280.123C214.351 278.297 225.526 276.087 225.526 276.087" stroke="black" stroke-width="1.3" stroke-linecap="round"/>
<path d="M210.384 302.679C210.384 302.679 206.897 288.498 205.071 281.414C203.245 274.33 201.145 262.29 201.145 262.29" stroke="black" stroke-width="1.3" stroke-linecap="round"/>
<path d="M271.906 427.06C271.906 437.81 263.189 446.513 252.453 446.513C241.718 446.513 233 437.796 233 427.06C233 416.311 241.704 407.607 252.453 407.607C263.203 407.607 271.906 416.325 271.906 427.06Z" fill="#C4C0B4"/>
<path d="M315.233 412.453C315.233 423.202 306.515 431.906 295.779 431.906C285.044 431.906 276.326 423.189 276.326 412.453C276.326 401.704 285.03 393 295.779 393C306.529 393 315.233 401.704 315.233 412.453Z" fill="#C4C0B4"/>
<path d="M248.906 470.276C248.906 481.025 240.189 489.729 229.453 489.729C218.718 489.729 210 481.011 210 470.276C210 459.526 218.704 450.823 229.453 450.823C240.203 450.823 248.906 459.526 248.906 470.276Z" fill="#C4C0B4"/>
<path d="M344.337 449.836C344.337 460.585 335.619 469.289 324.884 469.289C314.134 469.289 305.431 460.571 305.431 449.836C305.431 439.086 314.148 430.382 324.884 430.382C335.619 430.382 344.337 439.086 344.337 449.836Z" fill="#C4C0B4"/>
<path d="M300.529 462.713C300.529 473.462 291.812 482.166 281.076 482.166C270.327 482.166 261.623 473.449 261.623 462.713C261.623 451.964 270.341 443.26 281.076 443.26C291.826 443.26 300.529 451.977 300.529 462.713Z" fill="#C4C0B4"/>
<path d="M246.139 433.389C246.043 433.293 246.015 433.142 246.112 433.018L247.196 431.728C247.292 431.604 247.416 431.604 247.539 431.7C248.624 432.565 250.312 433.43 252.234 433.43C254.555 433.43 255.941 432.263 255.941 430.561C255.941 429.119 255.131 428.158 252.427 427.815L251.589 427.692C248.322 427.252 246.647 425.687 246.647 423.051C246.647 420.059 248.802 418.137 252.138 418.137C254.115 418.137 256.023 418.782 257.259 419.688C257.383 419.784 257.41 419.908 257.314 420.031L256.476 421.39C256.38 421.514 256.257 421.514 256.133 421.445C254.774 420.608 253.511 420.182 252.083 420.182C250.038 420.182 248.898 421.294 248.898 422.9C248.898 424.315 249.832 425.248 252.427 425.591L253.25 425.715C256.531 426.154 258.193 427.664 258.193 430.41C258.193 433.348 256.12 435.476 252.056 435.476C249.667 435.489 247.375 434.528 246.139 433.389Z" fill="white"/>
<path d="M295.066 422.049C294.915 422.049 294.818 421.953 294.818 421.802V407.442C294.818 407.346 294.764 407.291 294.667 407.291H290.068C289.917 407.291 289.821 407.195 289.821 407.044V405.493C289.821 405.342 289.917 405.246 290.068 405.246H301.765C301.916 405.246 302.012 405.342 302.012 405.493V407.044C302.012 407.195 301.916 407.291 301.765 407.291H297.166C297.07 407.291 297.015 407.346 297.015 407.442V421.802C297.015 421.953 296.919 422.049 296.768 422.049H295.066Z" fill="white"/>
<path d="M228.12 461.874C228.175 461.723 228.243 461.627 228.408 461.627H230.014C230.193 461.627 230.289 461.723 230.344 461.874L236.096 478.183C236.151 478.334 236.069 478.43 235.918 478.43H234.188C234.009 478.43 233.913 478.362 233.872 478.183L232.582 474.518H225.786L224.509 478.183C224.427 478.362 224.331 478.43 224.18 478.43H222.45C222.299 478.43 222.23 478.334 222.272 478.183L228.12 461.874ZM231.881 472.5L229.232 464.867H229.177L226.514 472.5H231.881Z" fill="white"/>
<path d="M319.16 454.558C318.844 453.597 318.721 452.581 318.721 449.808C318.721 447.035 318.844 446.019 319.16 445.058C320.025 442.463 322.057 441.132 324.871 441.132C327.713 441.132 329.745 442.463 330.609 445.058C330.925 446.019 331.063 447.035 331.063 449.808C331.063 452.581 330.939 453.597 330.609 454.558C329.745 457.153 327.713 458.485 324.871 458.485C322.043 458.485 320.025 457.153 319.16 454.558ZM328.454 453.94C328.646 453.323 328.825 452.238 328.825 449.808C328.825 447.392 328.646 446.294 328.454 445.676C327.932 444.07 326.752 443.177 324.871 443.177C323.018 443.177 321.837 444.07 321.315 445.676C321.123 446.294 320.945 447.378 320.945 449.808C320.945 452.238 321.123 453.323 321.315 453.94C321.837 455.547 323.018 456.439 324.871 456.439C326.738 456.439 327.932 455.547 328.454 453.94Z" fill="white"/>
<path d="M276.903 471.417C276.752 471.417 276.656 471.321 276.656 471.17V454.86C276.656 454.709 276.752 454.613 276.903 454.613H282.889C286.129 454.613 288.229 456.59 288.229 459.624C288.229 462.672 286.129 464.649 282.889 464.649H279.004C278.908 464.649 278.853 464.703 278.853 464.8V471.183C278.853 471.334 278.757 471.43 278.606 471.43H276.903V471.417ZM286.06 459.624C286.06 457.798 284.852 456.659 282.765 456.659H279.004C278.908 456.659 278.853 456.714 278.853 456.81V462.452C278.853 462.548 278.908 462.603 279.004 462.603H282.765C284.838 462.589 286.06 461.45 286.06 459.624Z" fill="white"/>
<path d="M278.978 589.453C278.978 600.203 270.26 608.906 259.524 608.906C248.789 608.906 240.071 600.189 240.071 589.453C240.071 578.704 248.789 570 259.524 570C270.26 570 278.978 578.704 278.978 589.453Z" fill="#2FAC66"/>
<path d="M257.452 630.817C257.452 641.566 248.735 650.27 237.985 650.27C227.236 650.27 218.532 641.553 218.532 630.817C218.532 620.068 227.25 611.364 237.985 611.364C248.748 611.35 257.452 620.068 257.452 630.817Z" fill="#2FAC66"/>
<path d="M232.906 594.945C232.906 605.694 224.189 614.398 213.453 614.398C202.704 614.398 194 605.68 194 594.945C194 584.195 202.718 575.491 213.453 575.491C224.189 575.478 232.906 584.195 232.906 594.945Z" fill="#2FAC66"/>
<path d="M325.543 589.767C325.543 600.516 316.826 609.22 306.09 609.22C295.341 609.22 286.637 600.503 286.637 589.767C286.637 579.018 295.354 570.314 306.09 570.314C316.839 570.314 325.543 579.031 325.543 589.767Z" fill="#2FAC66"/>
<path d="M304.252 628.373C304.252 639.123 295.534 647.826 284.799 647.826C274.063 647.826 265.346 639.109 265.346 628.373C265.346 617.624 274.05 608.92 284.799 608.92C295.548 608.92 304.252 617.624 304.252 628.373Z" fill="#2FAC66"/>
<path d="M280.543 674.453C280.543 685.202 271.826 693.906 261.09 693.906C250.354 693.906 241.637 685.189 241.637 674.453C241.637 663.704 250.354 655 261.09 655C271.826 655 280.543 663.718 280.543 674.453Z" fill="#2FAC66"/>
<path d="M326.543 673.453C326.543 684.203 317.826 692.906 307.09 692.906C296.354 692.906 287.637 684.189 287.637 673.453C287.637 662.704 296.354 654 307.09 654C317.826 654 326.543 662.704 326.543 673.453Z" fill="#2FAC66"/>
<path d="M353.557 631.767C353.557 642.516 344.839 651.22 334.09 651.22C323.341 651.22 314.637 642.503 314.637 631.767C314.637 621.018 323.354 612.314 334.09 612.314C344.839 612.3 353.557 621.018 353.557 631.767Z" fill="#2FAC66"/>
<path d="M258.605 581.587C258.66 581.436 258.729 581.34 258.893 581.34H260.5C260.678 581.34 260.774 581.436 260.815 581.587L266.581 597.896C266.636 598.047 266.554 598.143 266.403 598.143H264.673C264.495 598.143 264.399 598.075 264.357 597.896L263.067 594.231H256.271L254.981 597.896C254.912 598.075 254.802 598.143 254.665 598.143H252.935C252.784 598.143 252.716 598.047 252.757 597.896L258.605 581.587ZM262.367 592.213L259.717 584.58H259.662L256.985 592.213H262.367Z" fill="white"/>
<path d="M232.164 623.362C232.164 623.211 232.26 623.115 232.411 623.115H234.114C234.265 623.115 234.361 623.211 234.361 623.362V630.254C234.361 630.35 234.416 630.405 234.512 630.405H241.801C241.898 630.405 241.952 630.35 241.952 630.254V623.362C241.952 623.211 242.049 623.115 242.2 623.115H243.902C244.053 623.115 244.149 623.211 244.149 623.362V639.672C244.149 639.823 244.053 639.919 243.902 639.919H242.2C242.049 639.919 241.952 639.823 241.952 639.672V632.602C241.952 632.505 241.898 632.451 241.801 632.451H234.512C234.416 632.451 234.361 632.505 234.361 632.602V639.672C234.361 639.823 234.265 639.919 234.114 639.919H232.411C232.26 639.919 232.164 639.823 232.164 639.672V623.362Z" fill="white"/>
<path d="M206.342 587.49C206.342 587.339 206.438 587.243 206.589 587.243H208.195C208.387 587.243 208.511 587.325 208.593 587.49L213.604 598.816H213.673L218.588 587.49C218.656 587.312 218.78 587.243 218.986 587.243H220.592C220.743 587.243 220.839 587.339 220.839 587.49V603.799C220.839 603.95 220.743 604.046 220.592 604.046H219.041C218.89 604.046 218.793 603.95 218.793 603.799V592.103H218.725L214.551 601.342C214.455 601.562 214.332 601.644 214.112 601.644H213.124C212.877 601.644 212.753 601.575 212.657 601.342L208.483 592.103H208.415V603.799C208.415 603.95 208.319 604.046 208.168 604.046H206.616C206.465 604.046 206.369 603.95 206.369 603.799V587.49H206.342Z" fill="white"/>
<path d="M300.077 590.481C300.077 587.708 300.228 586.706 300.516 585.731C301.354 583.136 303.441 581.805 306.282 581.805C309.22 581.805 311.032 583.287 311.87 585.141C311.938 585.292 311.925 585.415 311.801 585.484L310.319 586.198C310.168 586.266 310.044 586.225 309.975 586.074C309.165 584.564 308.067 583.85 306.296 583.85C304.388 583.85 303.18 584.742 302.658 586.349C302.438 586.966 302.315 587.914 302.315 590.481C302.315 593.048 302.438 593.995 302.658 594.613C303.18 596.219 304.388 597.112 306.296 597.112C307.998 597.112 309.385 596.274 309.907 594.696C310.085 594.133 310.236 593.309 310.236 592.046C310.236 591.95 310.181 591.895 310.085 591.895H306.818C306.667 591.895 306.571 591.799 306.571 591.648V590.206C306.571 590.055 306.667 589.959 306.818 589.959H312.186C312.337 589.959 312.433 590.055 312.433 590.206V591.469C312.433 592.979 312.254 594.366 312.007 595.176C311.197 597.716 309.083 599.157 306.296 599.157C303.454 599.157 301.381 597.826 300.53 595.231C300.228 594.256 300.077 593.24 300.077 590.481Z" fill="white"/>
<path d="M278.91 635.773C278.813 635.677 278.786 635.526 278.882 635.402L279.967 634.112C280.063 633.988 280.186 633.988 280.31 634.084C281.394 634.949 283.083 635.814 285.005 635.814C287.325 635.814 288.712 634.647 288.712 632.945C288.712 631.517 287.902 630.542 285.197 630.199L284.36 630.076C281.092 629.636 279.417 628.071 279.417 625.435C279.417 622.443 281.573 620.521 284.909 620.521C286.886 620.521 288.794 621.166 290.03 622.072C290.153 622.168 290.181 622.292 290.084 622.415L289.247 623.774C289.151 623.898 289.027 623.898 288.904 623.829C287.545 622.992 286.282 622.566 284.854 622.566C282.808 622.566 281.669 623.678 281.669 625.284C281.669 626.698 282.602 627.632 285.197 627.975L286.021 628.099C289.302 628.538 290.963 630.048 290.963 632.794C290.963 635.732 288.89 637.86 284.84 637.86C282.438 637.873 280.145 636.912 278.91 635.773Z" fill="white"/>
<path d="M260.472 667.012C260.472 666.861 260.568 666.765 260.719 666.765H262.421C262.572 666.765 262.668 666.861 262.668 667.012V683.322C262.668 683.473 262.572 683.569 262.421 683.569H260.719C260.568 683.569 260.472 683.473 260.472 683.322V667.012Z" fill="white"/>
<path d="M301.516 678.903C301.201 677.942 301.077 676.926 301.077 674.153C301.077 671.38 301.201 670.364 301.516 669.403C302.381 666.809 304.413 665.477 307.227 665.477C310.069 665.477 312.101 666.809 312.966 669.403C313.282 670.364 313.405 671.38 313.405 674.153C313.405 676.926 313.282 677.929 312.966 678.903C312.101 681.498 310.069 682.83 307.227 682.83C304.399 682.843 302.381 681.498 301.516 678.903ZM310.811 678.286C311.003 677.668 311.181 676.583 311.181 674.153C311.181 671.737 311.003 670.639 310.811 670.021C310.289 668.415 309.108 667.522 307.227 667.522C305.374 667.522 304.193 668.415 303.672 670.021C303.48 670.639 303.301 671.723 303.301 674.153C303.301 676.569 303.48 677.668 303.672 678.286C304.193 679.892 305.374 680.784 307.227 680.784C309.095 680.784 310.289 679.892 310.811 678.286Z" fill="white"/>
<path d="M338.427 640.869C338.248 640.869 338.18 640.8 338.111 640.622L334.748 633.744H331.041C330.945 633.744 330.89 633.799 330.89 633.895V640.622C330.89 640.773 330.794 640.869 330.643 640.869H328.94C328.789 640.869 328.693 640.773 328.693 640.622V624.313C328.693 624.162 328.789 624.065 328.94 624.065H335.022C338.166 624.065 340.294 626.001 340.294 628.912C340.294 631.19 339.003 632.838 336.985 633.483L340.568 640.581C340.665 640.732 340.596 640.883 340.417 640.883H338.427V640.869ZM338.084 628.912C338.084 627.154 336.917 626.125 334.967 626.125H331.041C330.945 626.125 330.89 626.18 330.89 626.276V631.561C330.89 631.657 330.945 631.712 331.041 631.712H334.967C336.93 631.698 338.084 630.669 338.084 628.912Z" fill="white"/>
</svg>
