<svg width="461" height="54" viewBox="0 0 461 54" fill="none" xmlns="http://www.w3.org/2000/svg">
<path d="M0.0282802 51.5328C-0.0471336 50.5021 0.0282801 49.4715 0.254521 48.4157C0.480763 47.3599 0.63159 46.3292 0.707004 45.2986C0.807556 44.5696 0.882969 43.8154 0.933245 43.0864C0.958383 42.3574 1.0338 41.6033 1.10921 40.8743C1.08407 40.824 1.05893 40.7737 1.05893 40.6983V40.4721L1.61197 36.8271C1.436 36.2489 1.436 35.6456 1.63711 35.0423C1.83821 34.439 1.98904 33.8608 2.06445 33.358C2.08959 32.981 2.165 32.2771 2.29069 31.2213C2.39124 30.1655 2.54207 28.984 2.74318 27.6266C2.91914 26.2692 3.12024 24.8614 3.32135 23.3783C3.44704 21.87 3.67328 20.4874 3.89952 19.2305C4.12576 17.9485 4.32686 16.8927 4.52797 16.0129C4.72907 15.1331 4.93017 14.6554 5.10614 14.5549C5.65917 14.2281 6.28762 14.027 7.01662 14.0018C7.74562 13.9767 8.39921 13.9264 9.02766 13.9013C9.48014 13.851 9.83207 13.8259 10.0834 13.8259C10.3348 13.8259 10.737 13.851 11.2398 13.8762C11.6923 14.1275 12.0442 14.6303 12.2956 15.3593C12.547 17.3955 12.9492 19.3059 13.4771 21.141C14.0301 22.9761 14.5329 24.8614 15.0608 26.8222C15.0859 26.8976 15.1613 27.0987 15.2367 27.4506C15.3121 27.8026 15.3875 28.1796 15.4881 28.5818C15.5887 28.984 15.6641 29.3611 15.7646 29.713C15.8652 30.065 15.9154 30.2661 15.9154 30.3415C15.9909 30.5175 16.0914 30.8443 16.2171 31.2967C16.3428 31.7492 16.4182 32.0509 16.4685 32.2268C16.4685 32.2771 16.4936 32.3023 16.5188 32.3274C16.5439 32.3777 16.5942 32.3777 16.6193 32.3777H16.6696C16.8958 32.3777 17.0718 31.9 17.1975 30.9699C17.3232 30.0398 17.4489 28.8584 17.5243 27.4506C17.6248 26.0429 17.7002 24.5346 17.8008 22.9258C17.9013 21.2918 18.0019 19.7836 18.1276 18.401C18.2533 16.9933 18.4292 15.8369 18.6303 14.8817C18.8314 13.9516 19.108 13.4488 19.4348 13.4237L25.2416 12.9712C25.3422 12.9712 25.493 13.0466 25.6941 13.2226C25.8701 13.3985 25.9957 13.5494 26.0209 13.7002L27.0767 21.6689C27.1521 21.9706 27.2275 22.2722 27.3281 22.599C27.4286 22.9258 27.504 23.2526 27.5794 23.5291C27.6046 23.9313 27.68 24.5598 27.8057 25.4396C27.9062 26.3194 28.0571 27.2747 28.1827 28.3807C28.3336 29.4617 28.4844 30.5929 28.6352 31.7744C28.7861 32.9558 28.9369 34.087 29.0877 35.168C29.2385 36.2489 29.3642 37.2293 29.5151 38.0588C29.6407 38.9135 29.7413 39.542 29.8167 39.9442C29.8419 40.3213 29.9424 40.9497 30.0932 41.8295C30.2441 42.7094 30.3949 43.6646 30.596 44.6701C30.772 45.6756 30.9479 46.6309 31.1239 47.5107C31.2998 48.3905 31.4004 49.019 31.4758 49.396V49.572C31.501 49.7731 31.501 49.9993 31.4507 50.301C31.4004 50.6027 31.2747 50.7786 31.0987 50.854L26.0712 51.1808L22.8535 26.7468L22.577 25.8167L19.485 51.1557L16.1668 51.4322L9.53041 25.9926L5.43293 52.9656C5.40779 53.217 5.38266 53.393 5.40779 53.4432C5.43293 53.4935 5.33238 53.5187 5.15642 53.5187C5.13128 53.5187 5.10614 53.5187 5.10614 53.5438C5.10614 53.5689 5.081 53.5689 5.05586 53.5689H5.00559C4.70393 53.5438 4.30173 53.4935 3.74869 53.4432C3.2208 53.393 2.66776 53.2924 2.11473 53.1416C1.56169 52.9908 1.08407 52.7897 0.681866 52.5634C0.279659 52.3372 0.0534181 51.9852 0.0282802 51.5328Z" fill="#2FAC66"/>
<path d="M53.8259 51.2059C53.6499 51.1305 53.4488 51.0048 53.2728 50.854C53.0969 50.678 52.9712 50.5021 52.946 50.3261L51.6137 38.6118C51.6137 38.461 51.5383 38.3353 51.4126 38.2348C51.2869 38.1342 51.1612 38.0839 51.0607 38.1342L44.6505 38.7375L45.7063 48.4156C45.7817 48.9938 45.9577 49.5468 46.2091 50.0496C46.4604 50.5524 46.6364 51.0802 46.7118 51.6333C46.737 51.8595 46.737 51.9852 46.6615 52.0355C46.5861 52.0858 46.4102 52.136 46.1588 52.1612C46.0834 52.1612 45.9828 52.1612 45.8571 52.1863C45.7314 52.2115 45.656 52.2115 45.6058 52.2115H44.9019C44.6002 52.2115 44.2734 52.2115 43.9467 52.2366C43.6199 52.2617 43.3182 52.2869 43.0417 52.2869C42.7652 52.312 42.5892 52.312 42.5138 52.312C41.8602 52.312 41.3072 52.2366 40.905 52.0858C40.5028 51.9349 40.176 51.7087 39.9749 51.4322C39.7486 51.1305 39.5978 50.7786 39.4972 50.3512C39.3967 49.9239 39.3213 49.4463 39.2459 48.8933C39.0699 46.8571 38.9191 44.846 38.7934 42.835C38.6928 40.824 38.5923 38.7878 38.5169 36.7265C38.5169 36.7014 38.5169 36.5003 38.4917 36.1232C38.4666 35.7461 38.4415 35.3439 38.4163 34.8412C38.3912 34.3635 38.3409 33.8859 38.3158 33.4334C38.2906 32.9809 38.2403 32.6039 38.2152 32.3525C38.1398 30.9448 38.2152 29.6627 38.4163 28.4813C38.6174 27.2998 38.8437 26.0177 39.095 24.61C38.8437 23.9816 38.8939 23.328 39.1956 22.6241C39.4972 21.9203 39.7486 21.2918 39.9497 20.7388C40.0251 20.4371 40.0754 20.1606 40.1006 19.9092C40.1257 19.6579 40.176 19.3562 40.3017 19.0294C40.3017 19.0043 40.3268 18.9289 40.3519 18.8283C40.3771 18.7277 40.4273 18.7026 40.4525 18.7026C40.8547 17.9736 41.2066 17.2195 41.5083 16.4653C41.8099 15.7112 42.2121 14.9571 42.74 14.2281C43.0668 13.7756 43.469 13.3231 43.9467 12.8706C44.4243 12.4181 44.9522 11.9656 45.5052 11.5634C46.0582 11.1612 46.6364 10.8344 47.2397 10.5579C47.843 10.3065 48.4463 10.1306 49.0245 10.0552C50.6836 9.90434 51.9657 10.1306 52.8958 10.7339C53.8259 11.3372 54.5549 12.1165 55.0828 13.0969C55.6106 14.0521 56.038 15.1079 56.3145 16.2894C56.6162 17.4457 56.943 18.5266 57.32 19.5322C57.32 19.6327 57.3452 19.859 57.3954 20.1355C57.4457 20.4371 57.496 20.7388 57.5463 21.0656C57.5965 21.3924 57.6217 21.694 57.6971 21.9705C57.7474 22.2471 57.7725 22.4482 57.7725 22.5487C58.0239 24.9871 58.1999 27.4255 58.2501 29.9141C58.3004 32.3776 58.401 34.8412 58.5015 37.2795C58.5015 37.908 58.4512 38.5616 58.3507 39.2152C58.2501 39.8687 58.225 40.5223 58.2753 41.1508C58.2753 41.2262 58.3004 41.4273 58.3255 41.7289C58.3507 42.0557 58.401 42.3825 58.4261 42.7596C58.4512 43.1367 58.5015 43.4635 58.5769 43.7903C58.6272 44.117 58.6523 44.293 58.6523 44.3684V46.2035C58.6523 46.2789 58.6523 46.48 58.6775 46.7817C58.7026 47.1085 58.7026 47.4353 58.7278 47.8123C58.7529 48.1894 58.7529 48.5162 58.778 48.843C58.8032 49.1698 58.8032 49.3709 58.8032 49.4714C58.8032 49.6977 58.778 50.0245 58.7026 50.4769C58.6272 50.9294 58.3758 51.1808 57.9736 51.2562H57.8731C57.8479 51.2562 57.7222 51.2311 57.5211 51.2059C57.32 51.1808 57.1943 51.1557 57.1692 51.1557C57.0686 51.1557 56.8424 51.1557 56.5156 51.1808C56.1888 51.2059 55.8369 51.2059 55.485 51.2059C55.133 51.2059 54.8062 51.2059 54.4794 51.2311C54.1526 51.2059 53.9515 51.2059 53.8259 51.2059ZM41.0055 8.34579C41.0055 8.24524 41.1563 8.019 41.4831 7.6922C41.7848 7.36541 42.1367 6.98834 42.5389 6.61127C42.916 6.2342 43.3182 5.85713 43.6953 5.5052C44.0723 5.15327 44.374 4.90189 44.55 4.75107C44.6254 4.72593 44.7762 4.5751 45.0276 4.374C45.2538 4.14776 45.4047 3.99693 45.4549 3.92151C45.5555 3.82096 45.7314 3.645 45.9577 3.39362C46.1839 3.16738 46.4102 2.916 46.6867 2.63948C46.9381 2.3881 47.1894 2.13672 47.4408 1.88534L47.9184 1.40772C48.019 1.15634 48.3206 0.854689 48.7731 0.502758C49.1753 0.175965 49.5524 0 49.8541 0C50.0049 0 50.1809 0.0754138 50.4071 0.226241C50.6333 0.377069 50.8596 0.553034 51.111 0.754138C51.3623 0.955241 51.5634 1.15634 51.7394 1.33231C51.9154 1.50828 52.0411 1.6591 52.0662 1.70938V2.26241V2.81545C52.0662 2.99141 51.9656 3.16738 51.7897 3.31821C51.6891 3.44389 51.4629 3.59472 51.1864 3.8461C50.8847 4.09748 50.6836 4.24831 50.5831 4.32372C49.3764 5.17841 48.1447 6.0331 46.9129 6.93807C45.6812 7.84303 44.4243 8.72286 43.1925 9.55241C43.092 9.60268 42.9914 9.62782 42.916 9.62782C42.8406 9.62782 42.74 9.65296 42.5892 9.65296C42.187 9.65296 41.8099 9.50213 41.5083 9.22562C41.1563 8.9491 41.0055 8.64744 41.0055 8.34579ZM44.7511 31.2967C44.7762 31.7492 45.0527 32.0508 45.5303 32.2268C46.008 32.4028 46.561 32.5285 47.1894 32.5787C47.8179 32.629 48.4463 32.6542 49.0748 32.629C49.7032 32.6039 50.1809 32.5787 50.5076 32.5536C50.5831 32.5536 50.7339 32.5536 50.9601 32.5285C51.1864 32.5033 51.3372 32.5033 51.4126 32.5033C51.488 32.4028 51.5383 32.3022 51.5886 32.2017C51.6137 32.1011 51.664 32.0006 51.6891 31.9C51.6891 31.6738 51.664 31.3218 51.6389 30.8191C51.5886 30.3163 51.5634 29.7884 51.5634 29.1851C51.5383 28.6069 51.5383 28.0539 51.5132 27.5512C51.488 27.0484 51.488 26.6965 51.488 26.4702C51.5132 26.3948 51.5383 26.2188 51.5383 25.9675V25.4144L50.9853 20.0349C50.9601 19.7835 50.8596 19.4819 50.7088 19.1551C50.5579 18.8283 50.382 18.5266 50.1557 18.2501C49.9295 17.9736 49.6781 17.7474 49.3513 17.5965C49.0245 17.4206 48.7229 17.3703 48.3709 17.3954C48.0693 17.4206 47.7928 17.5211 47.5414 17.672C46.3348 18.9289 45.5555 20.236 45.279 21.5935C44.9773 22.9509 44.8265 24.4592 44.7762 26.068C44.7762 26.9478 44.7511 27.8277 44.7259 28.6572C44.6757 29.5622 44.7008 30.4169 44.7511 31.2967Z" fill="#2FAC66"/>
<path d="M63.6777 42.7596C63.9291 42.0557 64.4067 41.6033 65.0855 41.4022C65.7642 41.2011 66.5686 41.1508 67.5238 41.2262C68.4539 41.3267 69.5097 41.4776 70.6661 41.7541C71.8224 42.0055 73.029 42.2568 74.2859 42.4831C74.7887 42.458 75.2412 42.3071 75.6434 42.106C76.0205 41.8798 76.3975 41.6033 76.7243 41.2513C77.0511 40.8994 77.3779 40.4972 77.6544 40.0698C77.9561 39.6174 78.2577 39.19 78.5845 38.7375C78.6097 38.7124 78.6599 38.6119 78.6851 38.4862C78.7102 38.3605 78.7353 38.2851 78.7353 38.2348L78.5091 34.9669C78.4337 34.9417 78.2075 34.7406 77.8052 34.4138C77.403 34.087 77.1014 33.8356 76.9003 33.6345C76.8249 33.5591 76.6992 33.4586 76.4729 33.3329C76.2718 33.2072 76.121 33.1318 76.0456 33.1318C74.7636 32.5787 73.5569 32.1263 72.4257 31.7995C71.2945 31.4727 70.2639 31.0705 69.2835 30.618C68.3031 30.1655 67.4233 29.5371 66.6189 28.7326C65.8145 27.9282 65.1357 26.797 64.5324 25.339C64.5324 25.2385 64.5324 25.0625 64.5073 24.8363C64.5576 24.61 64.5324 24.3838 64.5073 24.1324C64.4821 23.881 64.4319 23.6799 64.4319 23.4788C64.4067 23.2777 64.4067 23.152 64.4067 23.0766C64.3816 22.5487 64.3313 22.0208 64.2559 21.4175C64.2056 20.8142 64.2559 20.2863 64.457 19.7584C64.4821 19.6076 64.5576 19.3311 64.6581 18.9289C64.7587 18.5518 64.9095 18.1496 65.0352 17.7474C65.186 17.3452 65.3117 16.943 65.4625 16.591C65.5882 16.214 65.6636 15.9626 65.7139 15.8118V15.5352C65.9401 15.2084 66.1413 14.9571 66.3172 14.756C66.4932 14.58 66.6691 14.3789 66.8451 14.1778C67.0211 13.9767 67.1468 13.8259 67.2473 13.7002C68.4539 12.3427 69.6606 11.3121 70.8672 10.6082C72.0989 9.90434 73.5569 9.477 75.2915 9.30103C75.7691 9.2759 76.4729 9.32617 77.403 9.477C78.3331 9.62783 79.2381 9.85407 80.1682 10.1557C81.0983 10.4574 81.9027 10.8344 82.6066 11.2869C83.3104 11.7394 83.6875 12.2422 83.7127 12.7952C83.7378 13.122 83.7378 13.5745 83.6624 14.1275C83.587 14.6805 83.4613 15.2336 83.3104 15.7866C83.1345 16.3397 82.9334 16.8173 82.6569 17.2446C82.3803 17.672 82.0536 17.8982 81.6765 17.9233C80.7212 17.9988 79.766 17.9988 78.8108 17.8982C77.8555 17.7977 76.9003 17.7977 75.945 17.8731C75.7691 17.8731 75.392 17.8982 74.8138 17.9736C74.2357 18.049 73.8586 18.0742 73.6826 18.0742C73.5821 18.1496 73.4061 18.225 73.1547 18.3255C72.9034 18.4261 72.6771 18.5266 72.4257 18.6775C72.1743 18.8283 71.9732 18.9791 71.8224 19.1048C71.6465 19.2556 71.571 19.4065 71.571 19.5573L71.8476 22.8755C71.8476 23.0515 71.9733 23.2274 72.1995 23.4034C72.4257 23.5794 72.7022 23.7302 72.9788 23.9062C73.2553 24.0821 73.5318 24.233 73.8335 24.3586C74.1351 24.4843 74.3362 24.5598 74.4368 24.61C75.9199 25.3139 77.2522 25.9675 78.484 26.5959C79.6906 27.2244 80.7464 27.9534 81.6262 28.8081C82.506 29.6627 83.2099 30.6683 83.7629 31.8246C84.2908 32.981 84.6428 34.439 84.7936 36.1735C84.9444 37.6817 84.8439 39.19 84.4919 40.648C84.14 42.1312 83.5618 43.4383 82.7826 44.5947C82.0033 45.751 80.9978 46.7314 79.766 47.4855C78.5594 48.2648 77.1768 48.7173 75.6182 48.8681C74.3362 49.019 73.0039 49.0441 71.6465 48.9184C70.289 48.8178 69.0321 48.5413 67.9009 48.0888C66.7697 47.6364 65.8396 46.9828 65.0603 46.1281C64.2308 45.2734 63.7783 44.1422 63.6777 42.7596Z" fill="#2FAC66"/>
<path d="M111.894 42.7596C112.145 42.0557 112.623 41.6032 113.301 41.4021C113.98 41.201 114.784 41.1507 115.74 41.2261C116.67 41.3267 117.726 41.4775 118.882 41.754C120.038 42.0054 121.245 42.2568 122.502 42.483C123.005 42.4579 123.457 42.3071 123.859 42.106C124.236 41.8797 124.613 41.6032 124.94 41.2513C125.267 40.8994 125.594 40.4971 125.87 40.0698C126.172 39.6173 126.474 39.19 126.8 38.7375C126.825 38.7124 126.876 38.6118 126.901 38.4861C126.926 38.3604 126.951 38.285 126.951 38.2347L126.725 34.9668C126.65 34.9417 126.423 34.7406 126.021 34.4138C125.619 34.087 125.317 33.8356 125.116 33.6345C125.041 33.5591 124.915 33.4585 124.689 33.3328C124.488 33.2072 124.337 33.1317 124.261 33.1317C122.979 32.5787 121.773 32.1262 120.642 31.7994C119.51 31.4726 118.48 31.0704 117.499 30.6179C116.519 30.1655 115.639 29.537 114.835 28.7326C114.03 27.9282 113.352 26.797 112.748 25.339C112.748 25.2384 112.748 25.0625 112.723 24.8362C112.698 24.61 112.673 24.3837 112.648 24.1575C112.623 23.9061 112.572 23.705 112.572 23.5039C112.547 23.3028 112.547 23.1771 112.547 23.1017C112.522 22.5738 112.472 22.0459 112.396 21.4426C112.346 20.8393 112.396 20.3114 112.597 19.7835C112.623 19.6327 112.698 19.3562 112.824 18.9791C112.924 18.602 113.075 18.1998 113.201 17.7976C113.352 17.3954 113.477 16.9932 113.628 16.6413C113.754 16.2642 113.829 16.0128 113.879 15.862V15.5352C114.106 15.2084 114.307 14.957 114.483 14.7559C114.659 14.58 114.835 14.3789 115.011 14.1778C115.187 13.9766 115.312 13.8258 115.413 13.7001C116.619 12.3427 117.826 11.312 119.033 10.6082C120.239 9.9043 121.697 9.47696 123.432 9.27586C123.909 9.25072 124.613 9.30099 125.543 9.45182C126.474 9.60265 127.379 9.82889 128.309 10.1305C129.239 10.4322 130.043 10.8093 130.747 11.2618C131.451 11.7142 131.828 12.217 131.853 12.77C131.878 13.0968 131.878 13.5493 131.803 14.1023C131.727 14.6554 131.602 15.2084 131.451 15.7614C131.275 16.3145 131.074 16.7921 130.797 17.2194C130.521 17.6468 130.194 17.873 129.817 17.8982C128.862 17.9736 127.906 17.9736 126.951 17.873C125.996 17.7725 125.041 17.7725 124.085 17.8479C123.909 17.8479 123.532 17.873 122.954 17.9484C122.376 18.0239 121.999 18.049 121.823 18.049C121.722 18.1244 121.547 18.1998 121.295 18.3004C121.044 18.4009 120.818 18.5015 120.566 18.6523C120.315 18.8031 120.114 18.954 119.963 19.0796C119.787 19.2305 119.711 19.3813 119.711 19.5321L119.988 22.8503C119.988 23.0263 120.114 23.2023 120.34 23.3782C120.566 23.5542 120.843 23.705 121.119 23.881C121.396 24.057 121.672 24.2078 121.974 24.3335C122.276 24.4592 122.477 24.5346 122.577 24.5848C124.06 25.2887 125.393 25.9423 126.624 26.5707C127.831 27.1992 128.887 27.9282 129.767 28.7829C130.646 29.6376 131.35 30.6431 131.903 31.7994C132.431 32.9558 132.783 34.4138 132.934 36.1483C133.085 37.6566 132.984 39.1648 132.632 40.6228C132.28 42.106 131.702 43.4131 130.923 44.5695C130.144 45.7258 129.138 46.7062 127.906 47.4604C126.675 48.2145 125.317 48.6921 123.759 48.8429C122.477 48.9938 121.144 49.0189 119.787 48.8932C118.429 48.7927 117.173 48.5161 116.041 48.0637C114.91 47.6112 113.98 46.9576 113.201 46.1029C112.447 45.2734 112.019 44.1421 111.894 42.7596Z" fill="#2FAC66"/>
<path d="M138.839 42.2065C138.814 42.0557 138.764 41.8546 138.764 41.6032C138.739 41.3518 138.739 41.0753 138.713 40.8239C138.688 40.5726 138.688 40.3463 138.663 40.1452C138.638 39.9441 138.638 39.7933 138.638 39.7179C138.613 39.014 138.563 38.109 138.538 36.9778C138.512 35.8466 138.462 34.7406 138.437 33.6345C138.412 32.5284 138.362 31.548 138.336 30.6934C138.311 29.8387 138.286 29.3611 138.286 29.2605C138.286 28.1544 138.311 26.9478 138.362 25.6406C138.412 24.3335 138.538 23.0012 138.713 21.6688C138.889 20.3114 139.191 19.0294 139.618 17.7473C140.046 16.4653 140.599 15.3341 141.303 14.3537C142.007 13.3482 142.886 12.5438 143.992 11.9153C145.073 11.2869 146.406 10.9098 147.939 10.8093H149.045C150.026 10.935 151.031 11.1612 151.986 11.488C152.942 11.7896 153.821 12.217 154.576 12.77C155.355 13.2979 156.034 13.9515 156.587 14.6805C157.165 15.4095 157.592 16.3145 157.894 17.3451C157.919 17.496 157.969 17.8479 158.045 18.4261C158.095 19.0042 158.12 19.3813 158.12 19.5573C158.12 19.8589 158.12 20.2863 158.145 20.8644C158.17 21.4426 158.17 21.7694 158.17 21.8448C158.17 22.2219 158.17 23.0263 158.195 24.2581C158.22 25.4898 158.246 26.8473 158.271 28.3053C158.296 29.7633 158.346 31.171 158.346 32.5536C158.371 33.9362 158.371 34.9668 158.371 35.6204C158.371 36.5505 158.371 37.6063 158.396 38.8129C158.422 40.0195 158.371 41.2513 158.296 42.5333C158.195 43.8154 158.045 45.0974 157.793 46.3543C157.542 47.6112 157.165 48.7424 156.612 49.7228C156.059 50.7283 155.33 51.5327 154.45 52.1863C153.57 52.8399 152.439 53.1918 151.081 53.2672C149.9 53.3426 148.794 53.2672 147.738 53.041C146.682 52.8147 145.601 52.5131 144.495 52.1611C143.389 51.8344 142.484 51.3065 141.78 50.6277C141.076 49.9239 140.523 49.1195 140.096 48.1894C139.669 47.2593 139.367 46.2789 139.166 45.2482C138.99 44.1421 138.864 43.1618 138.839 42.2065ZM146.179 41.8043C146.255 42.5836 146.481 43.2623 146.858 43.8908C147.235 44.4941 147.889 44.7706 148.769 44.6952C149.372 44.6449 149.799 44.4941 150.101 44.1673C150.403 43.8405 150.604 43.4634 150.729 43.0109C150.855 42.5585 150.93 42.0557 150.956 41.5529C150.981 41.025 151.006 40.5474 151.031 40.1201V39.6425C151.031 39.3911 151.031 39.1397 151.056 38.8632C151.081 38.5867 151.081 38.3353 151.081 38.0839V37.6566C151.182 35.7712 151.257 34.0618 151.257 32.4782C151.257 30.8945 151.207 29.1851 151.081 27.2997C151.081 27.0735 151.056 26.7216 151.031 26.2188C151.006 25.7161 150.956 25.1882 150.931 24.61C150.905 24.0318 150.855 23.5039 150.83 23.0012C150.78 22.4984 150.78 22.1465 150.78 21.9202C150.704 21.694 150.579 21.3923 150.352 21.0153C150.151 20.6382 149.925 20.2611 149.699 19.9092C149.447 19.5573 149.171 19.2556 148.869 19.0042C148.568 18.7528 148.266 18.6272 147.964 18.6272C147.587 18.6774 147.26 18.8283 146.984 19.1551C146.707 19.4567 146.481 19.8589 146.33 20.2863C146.154 20.7387 146.029 21.1912 145.953 21.6437C145.853 22.0962 145.802 22.4733 145.752 22.7749C145.727 22.8503 145.677 23.0263 145.652 23.3279C145.626 23.6296 145.576 23.9564 145.526 24.3335C145.476 24.7105 145.425 25.0625 145.35 25.3893C145.3 25.7161 145.274 25.9172 145.274 25.9926V26.7718V28.255C145.274 28.808 145.274 29.3611 145.249 29.8889C145.224 30.4168 145.224 30.8442 145.224 31.1207V31.5732C145.224 31.6486 145.224 31.6989 145.249 31.7492C145.274 31.7994 145.274 31.8497 145.274 31.9251V32.1514C145.3 32.5284 145.375 33.1569 145.476 34.087C145.576 35.0171 145.677 35.9723 145.777 36.9778C145.878 37.9834 145.978 38.9637 146.054 39.8938C146.104 40.7988 146.154 41.4524 146.179 41.8043Z" fill="#2FAC66"/>
<path d="M166.495 51.6584C166.469 51.3568 166.444 51.1305 166.444 50.9294C166.444 50.7535 166.469 50.5021 166.545 50.2004L166.495 38.637C166.092 35.8216 165.866 32.981 165.841 30.0901C165.791 27.1992 165.74 24.3587 165.615 21.5935C165.514 20.3115 165.414 19.0043 165.313 17.7223C165.213 16.4402 165.187 15.133 165.238 13.851C165.238 13.6248 165.213 13.4237 165.162 13.2226C165.062 13.0466 165.112 12.8204 165.213 12.6193C165.439 12.2925 165.766 12.0159 166.193 11.84C166.62 11.664 167.073 11.5132 167.575 11.4378C168.078 11.3372 168.556 11.2869 169.033 11.2618C169.511 11.2367 169.913 11.2115 170.265 11.1864C171.145 11.111 171.975 11.1864 172.754 11.4126C173.533 11.6389 174.237 11.9657 174.916 12.393C175.569 12.8204 176.198 13.3231 176.751 13.9013C177.304 14.4795 177.781 15.1079 178.184 15.7866C178.334 16.0883 178.46 16.4151 178.536 16.8173C178.636 17.1944 178.737 17.5211 178.888 17.7725L179.265 21.4175C179.239 21.4929 179.189 21.694 179.164 22.0208C179.139 22.3476 179.114 22.5739 179.114 22.6744C179.038 23.2526 178.888 23.8559 178.661 24.4844C178.435 25.0877 178.36 25.6658 178.435 26.2189C178.46 26.6965 178.712 27.1238 179.114 27.526C179.541 27.9031 179.893 28.2802 180.195 28.607C180.295 28.7075 180.496 28.9338 180.798 29.2606C181.1 29.5873 181.301 29.8136 181.401 29.9141C181.376 30.0398 181.452 30.2409 181.653 30.5929C181.854 30.9197 182.105 31.2967 182.382 31.7241C182.658 32.1514 182.91 32.5788 183.111 33.0061C183.312 33.4334 183.387 33.7602 183.362 33.9613C183.387 34.0619 183.488 34.2881 183.613 34.5647C183.739 34.8663 183.865 35.168 183.991 35.4948C184.116 35.8216 184.217 36.1232 184.317 36.3997C184.418 36.6762 184.468 36.8773 184.518 36.9779C184.518 37.003 184.544 37.2544 184.569 37.6818C184.594 38.1091 184.669 38.4359 184.745 38.6621C184.921 40.3212 184.896 41.9049 184.619 43.4383C184.342 44.9718 183.94 46.5052 183.438 48.0637C183.463 48.1391 183.463 48.2397 183.438 48.3402C183.412 48.4408 183.362 48.5413 183.337 48.6168C182.96 49.3206 182.558 49.9742 182.105 50.5775C181.653 51.1808 180.999 51.6082 180.144 51.8847C179.994 51.8847 179.767 51.9098 179.441 51.935C179.114 51.9852 178.787 52.0104 178.41 52.0858C178.033 52.1361 177.706 52.1863 177.379 52.2115C177.052 52.2366 176.826 52.2618 176.675 52.2618C176.449 52.2618 176.148 52.2869 175.796 52.312C175.419 52.3623 175.067 52.3874 174.69 52.4126C174.312 52.4377 173.986 52.488 173.709 52.488C173.433 52.5131 173.282 52.5131 173.232 52.5131C173.206 52.5131 173.106 52.5131 172.955 52.5383C172.804 52.5634 172.628 52.5634 172.452 52.5634C172.276 52.5634 172.075 52.5634 171.899 52.5383C171.723 52.5131 171.572 52.5131 171.522 52.5131C171.045 52.5131 170.542 52.488 169.989 52.4377C169.461 52.3874 168.933 52.3623 168.405 52.3623C167.852 52.3874 167.4 52.4377 167.073 52.4629C166.771 52.5131 166.545 52.2366 166.495 51.6584ZM171.522 23.6045C171.547 23.7302 171.648 23.8056 171.774 23.8308C171.899 23.881 172 23.881 172.075 23.881C172.251 23.8308 172.377 23.7554 172.402 23.6045C172.729 22.9509 172.93 22.3225 173.005 21.7192C173.081 21.141 173.081 20.4623 173.005 19.7333C172.98 19.5573 172.93 19.3311 172.88 19.1048C172.829 18.8535 172.729 18.6524 172.603 18.4513C172.477 18.2501 172.327 18.0742 172.125 17.9485C171.949 17.8228 171.723 17.7725 171.472 17.8228C171.447 17.8228 171.371 17.8479 171.271 17.8731C171.17 17.8982 171.12 17.9234 171.07 17.9234L170.894 18.2501L171.522 23.6045ZM171.799 46.1784C171.824 46.5554 172.075 46.8068 172.553 46.9576C173.005 47.1085 173.382 47.1588 173.684 47.1336C174.69 47.0331 175.469 46.7565 176.072 46.3543C176.675 45.9521 177.078 45.4494 177.354 44.8712C177.606 44.293 177.756 43.6143 177.807 42.8853C177.832 42.1563 177.807 41.4022 177.706 40.6732C177.555 39.2654 177.228 37.8577 176.701 36.45C176.173 35.0423 175.268 33.8859 173.986 32.981C173.734 32.8301 173.508 32.7044 173.307 32.629C173.106 32.5285 172.854 32.5033 172.553 32.5536C172.327 32.5536 172.176 32.6542 172.05 32.8301C171.949 33.0061 171.874 33.2323 171.824 33.4586C171.774 33.71 171.774 33.9362 171.774 34.2127V34.816V39.4163C171.799 39.4917 171.849 39.6928 171.874 40.0447C171.899 40.3967 171.924 40.5978 171.924 40.6732C171.949 41.6284 171.924 42.5585 171.849 43.4383C171.723 44.293 171.723 45.2231 171.799 46.1784Z" fill="#2FAC66"/>
<path d="M206.744 52.9153C206.04 51.9098 205.487 51.0551 205.085 50.2758C204.683 49.5217 204.205 48.6921 203.702 47.8123C203.627 47.6866 203.501 47.5358 203.325 47.3347C203.149 47.1336 202.973 46.9073 202.797 46.7062C202.621 46.48 202.496 46.2789 202.395 46.0778C202.294 45.8767 202.269 45.6756 202.345 45.4996C201.892 44.8712 201.465 44.2176 201.038 43.564C200.61 42.8853 200.208 42.2568 199.806 41.6284H199.705C199.68 41.6284 199.63 41.6032 199.605 41.5781C199.278 41.5027 199.152 41.6535 199.228 42.0306C199.253 42.4076 199.303 43.0612 199.328 44.0165C199.353 44.9717 199.404 46.0024 199.454 47.0833C199.504 48.1642 199.554 49.1949 199.63 50.1753C199.68 51.1556 199.73 51.8344 199.756 52.1863L199.806 52.3623C199.73 52.4628 199.63 52.6136 199.479 52.7896C199.328 52.9656 199.228 53.0158 199.202 52.9907L193.572 53.3678C193.245 53.418 192.968 53.2672 192.742 52.9656C192.516 52.6388 192.39 52.3623 192.365 52.1109C192.365 52.0606 192.365 52.0355 192.39 52.0355C192.415 52.0103 192.415 51.96 192.415 51.9098V51.7338C192.415 51.7087 192.44 51.6081 192.466 51.4321C192.491 51.2562 192.541 51.0802 192.566 50.9043C192.591 50.7283 192.641 50.5523 192.667 50.4015C192.692 50.2507 192.717 50.1501 192.717 50.125C192.717 50.0244 192.692 49.773 192.641 49.3708C192.591 48.9938 192.541 48.5664 192.491 48.1642C192.466 47.7369 192.415 47.3347 192.39 46.9827C192.365 46.6057 192.34 46.3794 192.34 46.2537V44.8963C192.34 44.1673 192.34 43.4132 192.315 42.6087C192.29 41.8043 192.29 41.0251 192.264 40.3212C192.239 39.6173 192.239 39.1397 192.239 38.9637C192.239 38.7878 192.214 38.4358 192.189 37.9582C192.164 37.4806 192.114 36.9527 192.088 36.3997C192.063 35.8466 192.013 35.3439 191.988 34.8411C191.963 34.3635 191.938 34.0367 191.938 33.8356C191.963 33.7602 191.988 33.5842 191.988 33.3328V32.8301C192.088 29.6124 192.114 26.4451 192.038 23.328C191.963 20.1857 191.862 17.0435 191.762 13.8761C191.762 13.7756 191.762 13.5493 191.737 13.2728C191.711 12.9711 191.686 12.6695 191.661 12.3176C191.636 11.9908 191.586 11.664 191.586 11.3372C191.561 11.0355 191.561 10.8093 191.561 10.7087C191.636 10.4825 191.737 10.3568 191.862 10.3317C191.988 10.3065 192.139 10.2814 192.264 10.2814C193.748 10.1808 195.18 10.1054 196.588 10.0803C197.996 10.0551 199.303 10.206 200.535 10.5076C201.767 10.8344 202.898 11.3372 203.878 12.0913C204.884 12.8203 205.713 13.8761 206.367 15.2336C206.844 16.1888 207.322 17.1189 207.8 18.0239C208.277 18.9288 208.554 19.9092 208.629 20.9901C208.78 23.2023 208.403 25.2636 207.498 27.1489C206.593 29.0594 205.311 30.7688 203.652 32.3273C203.501 32.5033 203.426 32.7044 203.426 32.9306C203.501 33.2574 203.627 33.5842 203.853 33.8607C204.054 34.1624 204.13 34.4641 204.054 34.816L206.317 39.3408V39.5168L208.579 43.1618C208.579 43.1869 208.73 43.5137 209.057 44.0667C209.358 44.6449 209.735 45.2734 210.137 46.0024C210.54 46.7314 210.917 47.4352 211.244 48.1642C211.57 48.8932 211.771 49.4211 211.797 49.7982C211.822 50.125 211.721 50.502 211.445 50.9043C211.168 51.3065 210.816 51.6835 210.414 52.0103C210.012 52.3371 209.584 52.6136 209.132 52.865C208.679 53.0913 208.302 53.2169 207.976 53.2169C207.397 53.3175 206.995 53.2169 206.744 52.9153ZM197.468 26.5959C197.619 26.7719 197.719 26.9227 197.82 27.0232C197.92 27.1238 198.071 27.1741 198.298 27.2243C199.027 27.1489 199.63 26.8724 200.107 26.4199C200.56 25.9674 200.912 25.4144 201.163 24.8111C201.415 24.2078 201.565 23.5793 201.641 22.9006C201.716 22.247 201.741 21.6689 201.741 21.1912C201.716 20.8142 201.616 20.3617 201.465 19.8338C201.314 19.3059 201.113 18.8031 200.862 18.3004C200.61 17.8228 200.283 17.4205 199.881 17.1189C199.504 16.8172 199.027 16.6664 198.473 16.6915C198.096 16.7418 197.82 16.9429 197.619 17.2949C197.418 17.6719 197.267 18.0993 197.217 18.5769C197.141 19.0545 197.116 19.5321 197.116 19.9846V20.965C197.116 21.0153 197.116 21.141 197.141 21.3421C197.166 21.5683 197.166 21.8197 197.191 22.1213C197.217 22.423 197.217 22.7246 197.242 23.0263C197.267 23.3531 197.292 23.5793 197.317 23.7804C197.317 23.881 197.317 24.0821 197.342 24.3335C197.367 24.5849 197.393 24.8865 197.393 25.1882C197.418 25.515 197.418 25.7915 197.443 26.0429C197.443 26.2942 197.468 26.4953 197.468 26.5959Z" fill="#2FAC66"/>
<path d="M217.425 51.5327C217.274 51.4322 217.123 51.3065 216.973 51.1808C216.822 51.0551 216.746 50.9043 216.746 50.7032C216.57 48.9435 216.57 47.1336 216.772 45.3488C216.973 43.5389 217.073 41.7541 217.073 39.9693C217.073 37.7571 216.998 35.545 216.872 33.3077C216.746 31.0704 216.596 28.8583 216.47 26.621C216.319 24.3838 216.193 22.1716 216.118 19.9595C216.017 17.7473 216.017 15.5603 216.093 13.3733C216.093 13.1471 216.168 12.9209 216.294 12.6695C216.42 12.4181 216.621 12.2673 216.872 12.217C217.249 12.1667 217.677 12.1919 218.179 12.2673C218.682 12.3427 219.084 12.3678 219.411 12.3176C219.562 12.3176 219.838 12.3176 220.241 12.2924C220.643 12.2673 221.07 12.2421 221.548 12.2421C222 12.217 222.428 12.1919 222.855 12.1919C223.257 12.1667 223.534 12.1667 223.684 12.1667C223.71 12.1667 223.86 12.1416 224.137 12.1165C224.388 12.0913 224.665 12.041 224.966 12.0159C225.268 11.9656 225.52 11.9405 225.771 11.8902C226.022 11.8651 226.173 11.8399 226.249 11.8399C226.475 11.8399 226.827 11.8148 227.329 11.7897C227.832 11.7394 228.335 11.7394 228.813 11.7897C229.315 11.8148 229.768 11.8902 230.17 12.0159C230.572 12.1165 230.798 12.3427 230.824 12.6695L231.201 17.32C231.226 17.5965 231.1 17.8479 230.798 18.049C230.497 18.2501 230.22 18.3758 229.969 18.4009C229.24 18.4763 228.486 18.4512 227.757 18.3255C227.028 18.1998 226.274 18.1747 225.494 18.2501C225.318 18.2501 225.067 18.2501 224.765 18.2752C224.464 18.3004 224.187 18.3507 223.86 18.4009C223.534 18.4763 223.282 18.602 223.056 18.7277C222.83 18.8786 222.729 19.1048 222.729 19.3813C222.83 20.8644 222.83 22.3979 222.729 23.9815C222.629 25.5652 222.629 27.1238 222.78 28.6321C222.78 28.808 222.805 29.0594 222.83 29.3611C222.855 29.6627 222.981 29.889 223.157 30.0901C223.307 30.1906 223.534 30.2912 223.835 30.3414C224.162 30.3917 224.464 30.4169 224.816 30.4169C225.142 30.4169 225.469 30.4169 225.746 30.3917C226.047 30.3666 226.274 30.3666 226.399 30.3666C226.55 30.3666 226.827 30.3414 227.229 30.3163C227.631 30.2912 228.058 30.2409 228.511 30.1906C228.963 30.1403 229.391 30.0901 229.793 30.0649C230.195 30.0147 230.472 30.0146 230.623 30.0146C230.723 30.0146 230.824 30.0901 230.899 30.2158C230.974 30.3414 231 30.442 231 30.5174L231.377 34.1121C231.402 34.4389 231.326 34.7657 231.125 35.1176C230.924 35.4444 230.673 35.6455 230.371 35.6707C229.567 35.7712 228.737 35.7712 227.933 35.6455C227.128 35.5199 226.299 35.4947 225.444 35.5701C224.916 35.6455 224.564 35.7712 224.338 35.9723C224.112 36.1734 223.961 36.4248 223.886 36.7265C223.81 37.0281 223.785 37.3549 223.785 37.732V38.8883C223.785 38.9889 223.76 39.2654 223.735 39.6927C223.71 40.1201 223.659 40.5726 223.584 41.0502C223.509 41.5278 223.483 41.9803 223.458 42.3825C223.433 42.7847 223.383 43.0612 223.358 43.1618C223.433 43.2121 223.458 43.3126 223.408 43.4886C223.383 43.6645 223.383 43.8154 223.458 43.9159C223.458 44.1422 223.483 44.4187 223.559 44.7203C223.634 45.0471 223.835 45.198 224.162 45.198H225.469H227.405H229.341H230.597C231.176 45.198 231.729 45.2482 232.206 45.3739C232.684 45.4745 233.011 45.9018 233.212 46.5805C233.212 46.656 233.237 46.8319 233.287 47.1084C233.337 47.385 233.388 47.6866 233.463 48.0385C233.513 48.3905 233.564 48.7424 233.639 49.0943C233.689 49.4463 233.74 49.7228 233.79 49.8987V50.2255C233.865 50.7534 233.74 51.0299 233.413 51.1054C233.086 51.1808 232.709 51.2562 232.307 51.3316C230.748 51.5076 229.215 51.5578 227.656 51.4573C226.098 51.3819 224.564 51.3065 223.006 51.2562C222.905 51.2311 222.629 51.2311 222.176 51.2813C221.724 51.3316 221.472 51.3567 221.397 51.3567C221.246 51.3567 220.97 51.3567 220.593 51.3819C220.215 51.407 219.788 51.4322 219.386 51.4573C218.959 51.4824 218.556 51.5076 218.204 51.5327C217.827 51.5327 217.576 51.5327 217.425 51.5327Z" fill="#2FAC66"/>
<path d="M265.185 46.6811C265.21 46.6057 265.185 46.4549 265.11 46.1784C265.009 45.927 264.908 45.6253 264.783 45.3237C264.657 45.022 264.531 44.7204 264.406 44.4439C264.28 44.1673 264.179 43.9662 264.154 43.8154V41.8798V39.9944C264.154 39.7682 264.154 39.2906 264.179 38.5364C264.205 37.7823 264.205 36.9779 264.23 36.0981C264.255 35.2434 264.255 34.4138 264.28 33.6597C264.305 32.9056 264.305 32.4279 264.305 32.2017V28.7829C264.33 28.5316 264.381 28.1042 264.381 27.526C264.406 26.9479 264.431 26.3697 264.456 25.7664C264.481 25.1631 264.531 24.5849 264.531 24.0821C264.557 23.5794 264.582 23.2275 264.607 23.0264C264.607 22.9509 264.632 22.7247 264.657 22.3476C264.682 21.9454 264.758 21.694 264.833 21.5432C264.934 20.9148 265.009 20.2612 265.059 19.5573C265.084 18.8535 265.21 18.1999 265.386 17.5714C265.612 16.9933 265.964 16.2894 266.442 15.4598C266.919 14.6554 267.498 13.8761 268.176 13.1723C268.855 12.4433 269.609 11.84 270.414 11.3121C271.218 10.7842 272.073 10.5328 272.953 10.5328C273.606 10.5328 274.134 10.5579 274.511 10.5831C274.888 10.6082 275.215 10.6836 275.492 10.8093C275.768 10.9099 276.019 11.0858 276.246 11.3372C276.472 11.5886 276.748 11.9154 277.075 12.3679C277.075 12.4433 277.1 12.5187 277.176 12.5941L277.276 12.6947V17.7725L276.849 18.0993C275.19 18.1747 273.858 18.5267 272.902 19.1551C271.922 19.7836 271.268 20.7639 270.942 22.0962C270.891 22.3979 270.866 22.8755 270.791 23.5542C270.74 24.233 270.665 24.962 270.59 25.7161C270.514 26.4702 270.439 27.1992 270.363 27.878C270.288 28.5567 270.263 29.0343 270.263 29.2857V31.4476C270.263 32.8553 270.263 34.1624 270.288 35.3691C270.313 36.5757 270.363 37.9331 270.439 39.4163C270.514 40.4721 270.74 41.3519 271.092 42.0055C271.469 42.6591 271.897 43.187 272.425 43.5892C272.953 43.9662 273.506 44.2679 274.084 44.469C274.662 44.6701 275.215 44.8461 275.743 44.9718C276.271 45.0974 276.698 45.2483 277.075 45.3991C277.452 45.5751 277.678 45.8013 277.729 46.103V47.5861C277.729 47.8878 277.754 48.2397 277.779 48.667C277.804 49.0944 277.804 49.5217 277.754 49.9491C277.704 50.3764 277.578 50.7535 277.402 51.0803C277.226 51.4071 276.874 51.6333 276.396 51.7339H274.913C272.701 51.7339 270.74 51.3568 269.031 50.5775C267.322 49.7731 266.04 48.4911 265.185 46.6811Z" fill="#2FAC66"/>
<path d="M298.493 51.2059C298.317 51.1305 298.116 51.0048 297.94 50.854C297.764 50.678 297.638 50.502 297.613 50.3261L296.281 38.6118C296.281 38.461 296.206 38.3353 296.08 38.2347C295.954 38.1342 295.828 38.0839 295.728 38.1342L289.318 38.7375L290.374 48.4156C290.449 48.9938 290.625 49.5468 290.876 50.0496C291.128 50.5523 291.304 51.0802 291.379 51.6333C291.404 51.8595 291.404 51.9852 291.329 52.0355C291.253 52.0857 291.077 52.136 290.826 52.1611C290.751 52.1611 290.65 52.1611 290.524 52.1863C290.399 52.2114 290.323 52.2114 290.273 52.2114H289.594C289.293 52.2114 288.966 52.2114 288.639 52.2366C288.312 52.2617 288.011 52.2868 287.734 52.2868C287.458 52.312 287.282 52.312 287.206 52.312C286.553 52.312 286 52.2366 285.597 52.0857C285.195 51.9349 284.868 51.7087 284.667 51.4321C284.441 51.1305 284.29 50.7786 284.19 50.3512C284.089 49.9239 284.014 49.4463 283.938 48.8932C283.762 46.857 283.611 44.846 283.486 42.835C283.36 40.8239 283.285 38.7878 283.209 36.7265C283.209 36.7013 283.209 36.5002 283.184 36.1232C283.159 35.7461 283.134 35.3439 283.109 34.8411C283.084 34.3635 283.033 33.8859 283.008 33.4334C282.983 32.9809 282.933 32.6038 282.908 32.3525C282.832 30.9447 282.908 29.6627 283.109 28.4812C283.31 27.2997 283.536 26.0177 283.787 24.61C283.561 23.9815 283.611 23.328 283.913 22.6241C284.215 21.9202 284.466 21.2918 284.667 20.7388C284.743 20.4371 284.793 20.1606 284.793 19.9092C284.818 19.6578 284.868 19.3562 284.994 19.0294C284.994 19.0042 285.019 18.9288 285.044 18.8283C285.069 18.7277 285.12 18.7026 285.145 18.7026C285.547 17.9736 285.899 17.2194 286.201 16.4653C286.502 15.7112 286.905 14.957 287.432 14.228C287.759 13.7755 288.161 13.3231 288.639 12.8706C289.117 12.4181 289.645 11.9656 290.198 11.5634C290.751 11.1612 291.329 10.8344 291.932 10.5579C292.535 10.3065 293.139 10.1305 293.717 10.0551C295.376 9.90431 296.658 10.1305 297.588 10.7339C298.518 11.3372 299.247 12.1164 299.775 13.0968C300.303 14.0521 300.73 15.1079 301.007 16.2893C301.309 17.4457 301.635 18.5266 302.012 19.5321C302.012 19.6327 302.038 19.8589 302.088 20.1354C302.138 20.412 302.188 20.7388 302.214 21.0655C302.264 21.3923 302.289 21.694 302.364 21.9705C302.415 22.247 302.44 22.4481 302.44 22.5487C302.691 24.9871 302.842 27.4254 302.917 29.9141C302.968 32.3776 303.043 34.8411 303.169 37.2795C303.169 37.9079 303.118 38.5615 303.018 39.2151C302.917 39.8687 302.892 40.5223 302.943 41.1507C302.943 41.2262 302.968 41.4273 302.993 41.7289C303.018 42.0557 303.068 42.3825 303.093 42.7596C303.118 43.1366 303.169 43.4634 303.244 43.7902C303.294 44.117 303.32 44.293 303.32 44.3684V46.2035C303.32 46.2789 303.32 46.48 303.345 46.7816C303.37 47.1084 303.37 47.4352 303.395 47.8123C303.42 48.1894 303.42 48.5161 303.445 48.8429C303.47 49.1697 303.47 49.3708 303.47 49.4714C303.47 49.6976 303.445 50.0244 303.37 50.4769C303.294 50.9294 303.043 51.1808 302.641 51.2562H302.54C302.515 51.2562 302.389 51.231 302.188 51.2059C301.987 51.1808 301.862 51.1556 301.836 51.1556C301.736 51.1556 301.51 51.1556 301.183 51.1808C300.856 51.2059 300.504 51.2059 300.152 51.2059C299.8 51.2059 299.473 51.2059 299.147 51.231C298.82 51.2059 298.594 51.2059 298.493 51.2059ZM289.418 31.2967C289.443 31.7492 289.72 32.0508 290.198 32.2268C290.675 32.4027 291.228 32.5284 291.857 32.5787C292.485 32.629 293.114 32.6541 293.742 32.629C294.37 32.6038 294.848 32.5787 295.175 32.5536C295.25 32.5536 295.401 32.5536 295.627 32.5284C295.854 32.5033 296.004 32.5033 296.08 32.5033C296.155 32.4027 296.206 32.3022 296.256 32.2016C296.281 32.1011 296.331 32.0005 296.356 31.9C296.356 31.6737 296.331 31.3218 296.306 30.8191C296.256 30.3163 296.231 29.7884 296.231 29.1851C296.206 28.6069 296.206 28.0539 296.18 27.5511C296.155 27.0484 296.155 26.6964 296.155 26.4702C296.18 26.3948 296.206 26.2188 296.206 25.9674V25.4144L295.653 20.0349C295.627 19.7835 295.527 19.4819 295.376 19.1551C295.225 18.8283 295.049 18.5266 294.823 18.2501C294.597 17.9736 294.345 17.7473 294.019 17.5965C293.692 17.4205 293.39 17.3703 293.063 17.3954C292.762 17.4205 292.485 17.5211 292.234 17.6719C291.027 18.9288 290.248 20.236 289.971 21.5934C289.67 22.9509 289.519 24.4592 289.469 26.068C289.469 26.9478 289.443 27.8276 289.418 28.6572C289.318 29.5622 289.343 30.4168 289.418 31.2967Z" fill="#2FAC66"/>
<path d="M307.115 42.7596C307.367 42.0557 307.844 41.6032 308.523 41.4021C309.202 41.201 310.006 41.1507 310.961 41.2261C311.891 41.3267 312.947 41.4775 314.104 41.754C315.26 42.0054 316.467 42.2568 317.723 42.483C318.226 42.4579 318.679 42.3071 319.081 42.106C319.458 41.8797 319.835 41.6032 320.162 41.2513C320.489 40.8994 320.815 40.4971 321.092 40.0698C321.394 39.6173 321.695 39.19 322.022 38.7375C322.047 38.7124 322.097 38.6118 322.123 38.4861C322.148 38.3604 322.173 38.285 322.173 38.2347L321.947 34.9668C321.871 34.9417 321.645 34.7406 321.243 34.4138C320.866 34.087 320.564 33.8356 320.338 33.6345C320.262 33.5591 320.112 33.4585 319.91 33.3328C319.709 33.2072 319.559 33.1317 319.508 33.1317C318.226 32.5787 317.02 32.1262 315.888 31.7994C314.757 31.4726 313.727 31.0704 312.746 30.6179C311.766 30.1655 310.886 29.537 310.082 28.7326C309.277 27.9282 308.598 26.797 308.02 25.339C308.02 25.2384 308.02 25.0625 307.995 24.8362C307.97 24.61 307.945 24.3837 307.92 24.1575C307.895 23.9061 307.844 23.705 307.844 23.5039C307.819 23.3028 307.819 23.1771 307.819 23.1017C307.794 22.5738 307.744 22.0459 307.668 21.4426C307.618 20.8393 307.668 20.3114 307.869 19.7835C307.895 19.6327 307.97 19.3562 308.096 18.9791C308.196 18.602 308.347 18.1998 308.473 17.7976C308.624 17.3954 308.749 16.9932 308.9 16.6413C309.026 16.2642 309.101 16.0128 309.151 15.862V15.5352C309.378 15.2084 309.579 14.957 309.755 14.7559C309.931 14.58 310.107 14.3789 310.283 14.1778C310.459 13.9766 310.584 13.8258 310.685 13.7001C311.891 12.3427 313.098 11.312 314.305 10.6082C315.511 9.9043 316.969 9.47696 318.704 9.27586C319.181 9.25072 319.885 9.30099 320.815 9.45182C321.746 9.60265 322.65 9.82889 323.581 10.1305C324.511 10.4322 325.315 10.8093 326.019 11.2618C326.723 11.7142 327.1 12.217 327.125 12.77C327.15 13.0968 327.15 13.5493 327.075 14.1023C326.999 14.6554 326.874 15.2084 326.723 15.7614C326.547 16.3145 326.346 16.7921 326.069 17.2194C325.793 17.6468 325.466 17.873 325.089 17.8982C324.134 17.9736 323.178 17.9736 322.223 17.873C321.268 17.7725 320.313 17.7725 319.332 17.8479C319.156 17.8479 318.779 17.873 318.201 17.9484C317.623 18.0239 317.246 18.049 317.07 18.049C316.969 18.1244 316.793 18.1998 316.542 18.3004C316.291 18.4009 316.064 18.5015 315.813 18.6523C315.562 18.8031 315.36 18.954 315.21 19.0796C315.034 19.2305 314.958 19.3813 314.958 19.5321L315.235 22.8503C315.235 23.0263 315.36 23.2023 315.587 23.3782C315.813 23.5542 316.089 23.705 316.366 23.881C316.643 24.057 316.919 24.2078 317.221 24.3335C317.522 24.4592 317.723 24.5346 317.824 24.5848C319.307 25.2887 320.639 25.9423 321.871 26.5707C323.078 27.1992 324.134 27.9282 325.013 28.7829C325.893 29.6376 326.597 30.6431 327.15 31.7994C327.678 32.9558 328.03 34.4138 328.181 36.1483C328.332 37.6566 328.231 39.1648 327.879 40.6228C327.527 42.106 326.949 43.4131 326.17 44.5695C325.365 45.7258 324.385 46.7062 323.153 47.4604C321.947 48.2396 320.564 48.6921 319.005 48.8429C317.723 48.9938 316.391 49.0189 315.034 48.8932C313.676 48.7927 312.419 48.5161 311.288 48.0637C310.157 47.6112 309.227 46.9576 308.448 46.1029C307.668 45.2734 307.216 44.1421 307.115 42.7596Z" fill="#2FAC66"/>
<path d="M338.581 51.4322C338.606 51.2813 338.606 50.9797 338.556 50.5272C338.505 50.0747 338.48 49.7731 338.48 49.6222C338.405 48.491 338.405 47.385 338.505 46.3292C338.606 45.2734 338.706 44.1673 338.857 42.9858C338.882 42.9104 338.882 42.8099 338.857 42.6842C338.832 42.5585 338.807 42.4831 338.807 42.4328C338.807 41.5027 338.857 40.5977 339.008 39.7179C339.134 38.8381 339.209 37.9331 339.259 37.003C339.335 35.2685 339.31 33.5842 339.209 31.9251C339.109 30.266 339.058 28.5818 339.109 26.8976C339.109 26.7467 339.109 26.5205 339.134 26.244C339.159 25.9423 339.159 25.6658 339.184 25.3641C339.209 25.0625 339.209 24.8111 339.234 24.5597C339.259 24.3084 339.259 24.1575 339.259 24.0821C339.259 24.0067 339.285 23.8559 339.31 23.5793C339.335 23.328 339.385 23.0515 339.41 22.7749C339.435 22.4984 339.486 22.247 339.511 21.9957C339.536 21.7443 339.561 21.5935 339.561 21.518V21.3421C339.561 21.0907 339.461 20.8896 339.285 20.7639C339.109 20.6382 338.908 20.5628 338.732 20.5125C337.626 20.5879 336.57 20.5879 335.564 20.5377C334.559 20.4874 333.503 20.4874 332.397 20.5628C332.095 20.4874 331.819 20.3617 331.567 20.1857C331.567 20.0098 331.542 19.6578 331.517 19.1551C331.492 18.6523 331.442 18.3255 331.416 18.1747C331.391 17.8479 331.316 17.32 331.215 16.6413C331.115 15.9374 331.065 15.2336 331.039 14.5046C331.014 13.8007 331.065 13.1471 331.215 12.5689C331.366 11.9908 331.668 11.664 332.145 11.5886H332.372L350.773 11.7645C351.024 11.7645 351.225 11.8399 351.376 12.0159C351.527 12.1919 351.652 12.3678 351.728 12.5941C351.828 12.8203 351.879 13.0466 351.929 13.2979C351.954 13.5242 351.979 13.7253 351.979 13.8761C351.979 13.9013 351.979 14.0521 352.004 14.3035C352.03 14.5297 352.055 14.8314 352.08 15.133C352.105 15.4598 352.155 15.7615 352.18 16.0631C352.206 16.3899 352.231 16.6413 352.231 16.8675C352.231 16.9681 352.231 17.1692 352.256 17.4206C352.281 17.6719 352.281 17.9736 352.306 18.2752C352.331 18.602 352.331 18.8786 352.356 19.1551C352.381 19.4316 352.381 19.6327 352.381 19.7332C352.381 19.9092 352.331 20.1103 352.205 20.2863C352.105 20.4622 351.954 20.5879 351.753 20.6131C350.823 20.7639 349.918 20.8393 348.988 20.8393C348.058 20.8393 347.153 20.8896 346.223 21.0153C346.047 21.0404 345.871 21.0656 345.72 21.0404C345.569 21.0153 345.393 21.1158 345.217 21.2918C344.991 21.5432 344.865 21.87 344.815 22.2219C344.765 22.599 344.74 22.976 344.74 23.3531C344.74 23.7302 344.765 24.1324 344.79 24.5095C344.815 24.8865 344.84 25.2385 344.84 25.5401C344.664 29.6627 344.564 33.8105 344.564 37.9582C344.564 42.106 344.815 46.2035 345.343 50.2758C345.343 50.5775 345.293 50.9294 345.192 51.3819C345.091 51.8344 344.84 52.0606 344.438 52.1109H344.388C344.312 52.1109 344.161 52.1109 343.935 52.0857C343.709 52.0606 343.458 52.0355 343.181 52.0103C342.904 51.9601 342.653 51.9601 342.427 51.9601H342.05C341.824 51.9349 341.547 51.9349 341.195 51.9601C340.843 52.0103 340.491 52.0103 340.139 52.0103C339.787 52.0103 339.461 51.9601 339.134 51.9098C338.958 51.8092 338.732 51.6584 338.581 51.4322Z" fill="#2FAC66"/>
<path d="M356.439 49.1697C356.439 49.0943 356.465 49.0189 356.49 48.9184C356.515 48.8178 356.515 48.7675 356.49 48.7173C356.515 48.2396 356.59 47.6615 356.666 46.9827C356.741 46.304 356.867 45.751 357.043 45.2985C357.143 45.0471 357.344 44.846 357.596 44.7203C357.847 44.5946 358.124 44.4941 358.4 44.3935C358.677 44.293 358.953 44.1924 359.205 44.117C359.456 44.0165 359.657 43.8656 359.808 43.6394C359.833 43.6394 359.858 43.5891 359.883 43.4634C359.908 43.3629 359.908 43.2623 359.908 43.1869C359.908 43.1115 359.908 42.9607 359.934 42.7344C359.959 42.5082 359.959 42.2568 359.984 41.9803C360.009 41.7038 360.009 41.4524 360.009 41.1759V40.6228C359.908 37.6314 359.883 34.6652 359.934 31.724C359.984 28.7829 359.934 25.8166 359.733 22.8755C359.733 22.8001 359.707 22.6492 359.682 22.423C359.657 22.1968 359.607 21.9705 359.607 21.694C359.582 21.4426 359.582 21.1912 359.557 20.9901C359.531 20.7639 359.531 20.5879 359.531 20.4874C359.456 20.1606 359.28 19.9595 359.004 19.8841C358.727 19.8087 358.425 19.7332 358.099 19.6578C357.772 19.5824 357.47 19.4567 357.219 19.3059C356.967 19.1299 356.817 18.8283 356.766 18.4009C356.766 18.3758 356.766 18.3255 356.741 18.3004C356.716 18.2501 356.716 18.225 356.716 18.1998V17.0686C356.716 16.5407 356.716 15.9625 356.741 15.3592C356.766 14.7559 356.766 14.1778 356.766 13.6499V12.5438C356.842 12.2421 356.942 11.8902 357.043 11.4377C357.143 10.9852 357.37 10.7339 357.646 10.6584L357.747 10.7087H357.847C358.4 10.8093 359.179 10.8596 360.16 10.8344C361.165 10.8093 362.171 10.8344 363.202 10.8847C364.232 10.935 365.187 11.0607 366.092 11.2618C366.997 11.4629 367.626 11.8148 368.003 12.3427C368.179 12.5689 368.279 12.9209 368.279 13.3985C368.279 13.8761 368.305 14.2532 368.33 14.5045C368.43 16.0882 368.38 17.1943 368.179 17.8228C367.978 18.4512 367.726 18.8785 367.45 19.1048C367.173 19.331 366.897 19.4819 366.595 19.5321C366.293 19.6075 366.118 19.9092 366.042 20.412C365.791 21.9705 365.64 23.5039 365.59 25.0625C365.565 26.621 365.565 28.1544 365.615 29.713C365.665 31.2715 365.74 32.805 365.866 34.3384C365.967 35.8718 366.067 37.4052 366.143 38.9637V39.5419V40.5726C366.143 40.9496 366.143 41.2764 366.168 41.6032C366.193 41.93 366.193 42.106 366.193 42.1814V42.6339C366.218 43.0864 366.394 43.3629 366.696 43.5137C366.997 43.6645 367.324 43.7902 367.701 43.9411C368.078 44.0667 368.405 44.2427 368.732 44.4438C369.034 44.6449 369.235 45.022 369.31 45.575C369.31 45.8264 369.31 46.2035 369.335 46.7062C369.36 47.209 369.335 47.7117 369.26 48.1894C369.184 48.6921 369.034 49.1446 368.858 49.5468C368.656 49.949 368.33 50.1753 367.877 50.2004C367.148 50.3512 366.294 50.3764 365.363 50.3009C364.433 50.2255 363.579 50.2255 362.85 50.3009C362.749 50.3009 362.473 50.3261 362.045 50.3764C361.618 50.4266 361.165 50.4769 360.713 50.5523C360.26 50.6026 359.808 50.6529 359.381 50.678C358.953 50.7283 358.702 50.7283 358.576 50.7283C358.048 50.7534 357.571 50.6529 357.143 50.4266C356.791 50.2255 356.515 49.7982 356.439 49.1697Z" fill="#2FAC66"/>
<path d="M377.116 48.4408C376.865 46.3795 376.789 44.2679 376.89 42.0809C376.99 39.8939 377.016 37.7571 376.94 35.6707C376.865 33.6848 376.764 31.724 376.613 29.8387C376.462 27.9534 376.412 25.9926 376.437 24.0067C376.437 21.87 376.437 19.8841 376.462 18.0239C376.488 16.1888 376.337 14.2281 376.035 12.1667C376.111 11.5886 376.412 11.1361 376.94 10.8093C377.468 10.5076 377.996 10.3065 378.524 10.2311C379.127 10.1557 379.756 10.1557 380.485 10.2311C381.214 10.3065 381.792 10.5831 382.269 11.0607C382.269 11.1361 382.269 11.2869 382.294 11.5132C382.32 11.7394 382.32 11.8902 382.32 11.9656C382.47 13.2477 382.445 14.6554 382.269 16.1637C382.093 17.6719 382.018 19.0545 382.119 20.3114C382.119 20.4623 382.144 21.0153 382.194 21.9957C382.244 22.976 382.32 24.0821 382.395 25.339C382.47 26.5959 382.546 27.8528 382.621 29.1348C382.697 30.4169 382.747 31.4224 382.797 32.1514C382.898 33.911 382.973 35.6456 382.998 37.3298C383.023 39.014 383.124 40.7234 383.3 42.4579C383.401 43.1618 383.727 43.564 384.205 43.6646C384.708 43.7651 385.236 43.8154 385.839 43.7902C386.417 43.7651 386.97 43.7902 387.473 43.8154C387.976 43.8657 388.252 44.1673 388.328 44.7455C388.328 45.927 388.302 46.8822 388.252 47.5861C388.202 48.3151 388.101 48.9687 388.001 49.5468C387.9 50.125 387.699 50.4267 387.448 50.4267C387.423 50.4769 387.347 50.4769 387.247 50.4769H387.046C385.638 50.4015 384.205 50.3512 382.722 50.2758C381.239 50.2256 379.781 50.125 378.298 49.9742C377.82 49.949 377.518 49.7982 377.393 49.5468C377.292 49.3457 377.191 48.9687 377.116 48.4408Z" fill="#2FAC66"/>
<path d="M396.1 48.4408C395.849 46.3795 395.774 44.2679 395.874 42.0809C395.975 39.8939 396 37.7571 395.924 35.6707C395.849 33.6848 395.749 31.724 395.598 29.8387C395.447 27.9534 395.397 25.9926 395.422 24.0067C395.422 21.87 395.422 19.8841 395.447 18.0239C395.472 16.1888 395.321 14.2281 395.02 12.1667C395.095 11.5886 395.397 11.1361 395.924 10.8093C396.452 10.5076 396.98 10.3065 397.508 10.2311C398.111 10.1557 398.74 10.1557 399.469 10.2311C400.198 10.3065 400.776 10.5831 401.254 11.0607C401.254 11.1361 401.254 11.2869 401.279 11.5132C401.304 11.7394 401.304 11.8902 401.304 11.9656C401.455 13.2477 401.43 14.6554 401.254 16.1637C401.078 17.6719 401.002 19.0545 401.103 20.3114C401.103 20.4623 401.128 21.0153 401.178 21.9957C401.229 22.976 401.304 24.0821 401.379 25.339C401.455 26.5959 401.53 27.8528 401.606 29.1348C401.681 30.4169 401.731 31.4224 401.782 32.1514C401.882 33.911 401.958 35.6456 401.983 37.3298C402.008 39.014 402.108 40.7234 402.284 42.4579C402.385 43.1618 402.712 43.564 403.189 43.6646C403.692 43.7651 404.22 43.8154 404.823 43.7902C405.401 43.7651 405.954 43.7902 406.457 43.8154C406.96 43.8657 407.237 44.1673 407.312 44.7455C407.312 45.927 407.287 46.8822 407.237 47.5861C407.186 48.3151 407.086 48.9687 406.985 49.5468C406.885 50.125 406.684 50.4267 406.432 50.4267C406.407 50.4769 406.332 50.4769 406.231 50.4769H406.03C404.622 50.4015 403.189 50.3512 401.706 50.2758C400.223 50.2256 398.765 50.125 397.282 49.9742C396.804 49.949 396.503 49.7982 396.377 49.5468C396.276 49.3457 396.176 48.9687 396.1 48.4408Z" fill="#2FAC66"/>
<path d="M414.629 42.2065C414.604 42.0557 414.554 41.8546 414.554 41.6032C414.529 41.3518 414.529 41.0753 414.504 40.8239C414.478 40.5726 414.478 40.3463 414.453 40.1452C414.428 39.9441 414.428 39.7933 414.428 39.7179C414.403 39.014 414.353 38.109 414.328 36.9778C414.302 35.8466 414.252 34.7406 414.227 33.6345C414.202 32.5284 414.152 31.548 414.126 30.6934C414.101 29.8387 414.076 29.3611 414.076 29.2605C414.076 28.1544 414.101 26.9478 414.152 25.6406C414.202 24.3335 414.328 23.0012 414.504 21.6688C414.68 20.3114 414.981 19.0294 415.409 17.7473C415.836 16.4653 416.389 15.3341 417.093 14.3537C417.797 13.3482 418.676 12.5438 419.782 11.9153C420.863 11.2869 422.196 10.9098 423.729 10.8093H424.835C425.866 10.9601 426.871 11.1863 427.827 11.5131C428.782 11.8148 429.662 12.2421 430.416 12.7952C431.195 13.3231 431.849 13.9766 432.427 14.7056C433.005 15.4346 433.432 16.3396 433.734 17.3703C433.759 17.5211 433.809 17.873 433.885 18.4512C433.935 19.0294 433.96 19.4064 433.96 19.5824C433.96 19.8841 433.96 20.3114 433.985 20.8896C434.011 21.4677 434.011 21.7945 434.011 21.8699C434.011 22.247 434.011 23.0514 434.036 24.2832C434.061 25.5149 434.086 26.8724 434.111 28.3304C434.136 29.7884 434.187 31.1961 434.187 32.5787C434.212 33.9613 434.212 34.9919 434.212 35.6455C434.212 36.5756 434.212 37.6314 434.237 38.838C434.262 40.0447 434.212 41.2764 434.136 42.5585C434.036 43.8405 433.885 45.1225 433.634 46.3794C433.382 47.6363 433.005 48.7675 432.452 49.7479C431.899 50.7534 431.17 51.5578 430.29 52.2114C429.41 52.865 428.279 53.2169 426.922 53.2924C425.74 53.3678 424.634 53.2924 423.578 53.0661C422.523 52.8399 421.442 52.5382 420.336 52.1863C419.229 51.8595 418.324 51.3316 417.621 50.6529C416.917 49.949 416.364 49.1446 415.936 48.2145C415.509 47.2844 415.207 46.304 415.006 45.2734C414.78 44.1421 414.654 43.1618 414.629 42.2065ZM421.969 41.8043C422.045 42.5836 422.271 43.2623 422.648 43.8908C423.025 44.4941 423.679 44.7706 424.559 44.6952C425.162 44.6449 425.589 44.4941 425.891 44.1673C426.193 43.8405 426.394 43.4634 426.519 43.0109C426.645 42.5585 426.721 42.0557 426.746 41.5529C426.771 41.025 426.796 40.5474 426.821 40.1201V39.6425C426.821 39.3911 426.821 39.1397 426.846 38.8632C426.871 38.5867 426.871 38.3353 426.871 38.0839V37.6566C426.972 35.7712 427.047 34.0618 427.047 32.4782C427.047 30.8945 426.997 29.1851 426.871 27.2997C426.871 27.0735 426.846 26.7216 426.821 26.2188C426.796 25.7161 426.746 25.1882 426.721 24.61C426.695 24.0318 426.645 23.5039 426.62 23.0012C426.595 22.4984 426.57 22.1465 426.57 21.9202C426.494 21.694 426.369 21.3923 426.168 21.0153C425.966 20.6382 425.74 20.2611 425.514 19.9092C425.263 19.5573 424.986 19.2556 424.684 19.0042C424.383 18.7528 424.081 18.6272 423.779 18.6272C423.402 18.6774 423.076 18.8283 422.799 19.1551C422.523 19.4567 422.296 19.8589 422.145 20.2863C421.969 20.7387 421.844 21.1912 421.768 21.6437C421.668 22.0962 421.618 22.4733 421.567 22.7749C421.542 22.8503 421.492 23.0263 421.467 23.3279C421.442 23.6296 421.391 23.9564 421.341 24.3335C421.291 24.7105 421.24 25.0625 421.165 25.3893C421.115 25.7161 421.09 25.9172 421.09 25.9926V26.7718V28.255C421.09 28.808 421.09 29.3611 421.065 29.8889C421.039 30.4168 421.039 30.8442 421.039 31.1207V31.5732C421.039 31.6486 421.039 31.6989 421.065 31.7492C421.09 31.7994 421.09 31.8497 421.09 31.9251V32.1514C421.115 32.5284 421.19 33.1569 421.291 34.087C421.391 35.0171 421.492 35.9723 421.592 36.9778C421.693 37.9834 421.794 38.9637 421.869 39.8938C421.894 40.7988 421.944 41.4524 421.969 41.8043Z" fill="#2FAC66"/>
<path d="M439.109 42.7596C439.361 42.0557 439.838 41.6032 440.517 41.4021C441.196 41.201 442 41.1507 442.955 41.2261C443.886 41.3267 444.941 41.4775 446.098 41.754C447.254 42.0054 448.461 42.2568 449.718 42.483C450.22 42.4579 450.673 42.3071 451.075 42.106C451.452 41.8797 451.829 41.6032 452.156 41.2513C452.483 40.8994 452.81 40.4971 453.086 40.0698C453.388 39.6173 453.689 39.19 454.016 38.7375C454.041 38.7124 454.092 38.6118 454.117 38.4861C454.142 38.3604 454.167 38.285 454.167 38.2347L453.941 34.9668C453.865 34.9417 453.639 34.7406 453.237 34.4138C452.86 34.087 452.558 33.8356 452.332 33.6345C452.256 33.5591 452.106 33.4585 451.905 33.3328C451.703 33.2072 451.553 33.1317 451.502 33.1317C450.22 32.5787 449.014 32.1262 447.883 31.7994C446.751 31.4726 445.721 31.0704 444.74 30.6179C443.76 30.1655 442.88 29.537 442.076 28.7326C441.271 27.9282 440.593 26.797 440.014 25.339C440.014 25.2384 440.014 25.0625 439.989 24.8362C439.964 24.61 439.939 24.3837 439.914 24.1575C439.889 23.9061 439.838 23.705 439.838 23.5039C439.813 23.3028 439.813 23.1771 439.813 23.1017C439.788 22.5738 439.738 22.0459 439.662 21.4426C439.612 20.8393 439.662 20.3114 439.864 19.7835C439.889 19.6327 439.964 19.3562 440.09 18.9791C440.19 18.602 440.341 18.1998 440.467 17.7976C440.618 17.3954 440.743 16.9932 440.894 16.6413C441.02 16.2642 441.095 16.0128 441.146 15.862V15.5352C441.372 15.2084 441.573 14.957 441.749 14.7559C441.925 14.58 442.101 14.3789 442.277 14.1778C442.453 13.9766 442.578 13.8258 442.679 13.7001C443.886 12.3427 445.092 11.312 446.299 10.6082C447.505 9.9043 448.963 9.47696 450.698 9.27586C451.176 9.25072 451.879 9.30099 452.81 9.45182C453.74 9.60265 454.645 9.82889 455.575 10.1305C456.505 10.4322 457.309 10.8093 458.013 11.2618C458.717 11.7142 459.094 12.217 459.119 12.77C459.144 13.0968 459.144 13.5493 459.069 14.1023C458.993 14.6554 458.868 15.2084 458.717 15.7614C458.541 16.3145 458.34 16.7921 458.063 17.2194C457.787 17.6468 457.46 17.873 457.083 17.8982C456.128 17.9736 455.172 17.9736 454.217 17.873C453.262 17.7725 452.307 17.7725 451.326 17.8479C451.15 17.8479 450.773 17.873 450.195 17.9484C449.617 18.0239 449.24 18.049 449.064 18.049C448.963 18.1244 448.787 18.1998 448.536 18.3004C448.285 18.4009 448.058 18.5015 447.807 18.6523C447.556 18.8031 447.355 18.954 447.204 19.0796C447.028 19.2305 446.952 19.3813 446.952 19.5321L447.229 22.8503C447.229 23.0263 447.355 23.2023 447.581 23.3782C447.807 23.5542 448.084 23.705 448.36 23.881C448.637 24.057 448.913 24.2078 449.215 24.3335C449.516 24.4592 449.718 24.5346 449.818 24.5848C451.301 25.2887 452.634 25.9423 453.865 26.5707C455.072 27.1992 456.128 27.9282 457.008 28.7829C457.887 29.6376 458.591 30.6431 459.144 31.7994C459.672 32.9558 460.024 34.4138 460.175 36.1483C460.326 37.6566 460.225 39.1648 459.873 40.6228C459.521 42.106 458.943 43.4131 458.164 44.5695C457.36 45.7258 456.379 46.7062 455.147 47.4604C453.941 48.2396 452.558 48.6921 451 48.8429C449.718 48.9938 448.385 49.0189 447.028 48.8932C445.67 48.7927 444.413 48.5161 443.282 48.0637C442.151 47.6112 441.221 46.9576 440.442 46.1029C439.662 45.2734 439.235 44.1421 439.109 42.7596Z" fill="#2FAC66"/>
</svg>
