<?xml version="1.0" encoding="utf-8"?>
<!-- Generator: Adobe Illustrator 25.3.1, SVG Export Plug-In . SVG Version: 6.00 Build 0)  -->
<svg version="1.1" id="Layer_1" xmlns="http://www.w3.org/2000/svg" xmlns:xlink="http://www.w3.org/1999/xlink" x="0px" y="0px"
	 viewBox="0 0 993 728.4" style="enable-background:new 0 0 993 728.4;" xml:space="preserve">
<style type="text/css">
	.st0{fill-rule:evenodd;clip-rule:evenodd;fill:#9A9587;}
	.st1{fill-rule:evenodd;clip-rule:evenodd;fill:#DAD8CC;}
	.st2{fill:#19814A;}
	.st3{fill:none;stroke:#000000;stroke-width:0.712;stroke-miterlimit:10;}
	.st4{fill:#B4B0A5;}
	.st5{fill:#3C3C3B;}
	.st6{fill:#FAFAFB;}
	.st7{fill:#DAD8CC;}
	.st8{fill:#E30613;}
	.st9{fill:none;stroke:#DADADA;stroke-width:0.712;stroke-miterlimit:10;}
	.st10{fill:#908B84;}
	.st11{fill:#814114;}
	.st12{fill:none;stroke:#A85318;stroke-width:0.712;stroke-linecap:round;stroke-miterlimit:10;}
	.st13{fill:#A85318;}
	.st14{fill:none;stroke:#000000;stroke-width:0.712;stroke-linecap:round;stroke-miterlimit:10;}
	.st15{fill-rule:evenodd;clip-rule:evenodd;fill:#3C3C3B;}
	.st16{fill:#2FAC66;}
	.st17{fill:#D5C2A2;}
	.st18{fill:#B91919;}
	.st19{fill:#E4D5B8;}
	.st20{fill:#F39200;}
	.st21{fill:none;stroke:#000000;stroke-width:0.884;stroke-linecap:round;}
	.st22{fill-rule:evenodd;clip-rule:evenodd;fill:#FFFFFF;}
	.st23{fill-rule:evenodd;clip-rule:evenodd;}
	.st24{fill:#FBBA00;}
	.st25{fill:#00A0A4;}
	.st26{fill:#007572;}
	.st27{fill:none;stroke:#007572;stroke-width:0.928;stroke-linecap:round;}
	.st28{fill:none;stroke:#B9B5A3;stroke-width:0.618;stroke-linecap:round;stroke-linejoin:round;stroke-miterlimit:10;}
	.st29{fill:#FFDE00;}
	.st30{fill:none;stroke:#FBBA00;stroke-width:0.928;stroke-linecap:round;}
	.st31{fill:#B780B1;}
	.st32{fill:#FFFFFF;}
</style>
<path class="st0" d="M925,227.4c0.3-5.3,1.2-49.5-30.6-65.5c-31.8-15.9-61.6,14.9-61.6,14.9s-0.1-61.2-40.2-56.5
	c-40.1,4.7-41.3,39.4-41.3,39.4s-11.7-21.8-33.8-16c-24.5,6.4-21.7,28.7-21.7,28.7s-12.3-17-32.7-6.4c-20.5,10.6-32.5,30.7-29,53.7
	c3.5,23.1,21.2,53.9,142.4,50.7C897.6,267.3,923.1,265,925,227.4z"/>
<path class="st1" d="M609.8,305c0.1-3.8,1.4-35.5,24.9-45.5s43.4,13.5,43.4,13.5s2.8-43.8,31.3-38.6c28.5,5.2,27.7,30.1,27.7,30.1
	s9.3-15.1,24.9-9.9c17.2,5.7,14.2,21.6,14.2,21.6s9.6-11.6,23.7-3.1c14.2,8.5,21.8,23.5,18.3,39.8c-3.6,16.3-17.6,37.7-104.1,29.9
	C627.6,334.8,609.4,332,609.8,305z"/>
<path class="st2" d="M992,727.4c0.6-103-6.4-211.8-106.6-222c-187.4-19-411.1,97.7-429.4,222H992L992,727.4z"/>
<path class="st3" d="M730.2,265.2c0-4.3,2.4-35.9,2.6-39.8"/>
<path class="st3" d="M906.9,272.3c0-4.1-0.5-36.2-0.2-39.8"/>
<path class="st3" d="M815.9,172.5l-0.3-44.5"/>
<path d="M778.7,276.8c0,2.3,17.2,4,36.1,3.7c18.8-0.3,36-2.4,35.9-4.8c0-2.3-17.3-4-36.1-3.7C795.8,272.4,778.6,274.5,778.7,276.8z"
	/>
<path d="M886.2,328.5c0,1.6,10.4,2.6,23.1,2.2c12.7-0.4,23-1.9,23-3.5c0-1.6-10.4-2.6-23.1-2.2C896.4,325.4,886.1,327,886.2,328.5z"
	/>
<path d="M748.3,324c0,1.6-10.4,2.6-23.1,2.2c-12.7-0.4-23-1.9-22.9-3.5c0-1.6,10.4-2.6,23.1-2.2C738,320.9,748.3,322.4,748.3,324z"
	/>
<path class="st4" d="M736.5,554.7c-8.2,2.4-10.3,5.5-34.1,3.4c-16.6-1.5-27.8-8.2-27.8-8.2s17.7-104.2,19.7-115.2
	c7.7-43.2,8.6-70.6,10.1-86.4c1.6-21.9,0.2-36.1,8.6-41.8c5.8-3.8,28.8,7.7,30.2,12c1.4,4.3-5.2,61.9-5.2,70.1s5.2,85.9,5.7,92.1
	C744.2,487,736.5,554.7,736.5,554.7z"/>
<path class="st4" d="M766.8,453.6c0,0,7.2-93.6,8.6-98.9s6.7-7.7,6.7-7.7s2.7-69.1,3.8-77.7c0.9-6.6,37-4.8,37-4.8
	s19.7-1.4,21.1,8.2c1.4,9.6,1.4,77.3,2.9,78.2c1.4,1,3.8,1.9,5.3,5.8c1.4,3.8,7.2,96.5,4.8,98.9C854.6,458,772,452.7,766.8,453.6z"
	/>
<path class="st4" d="M881,556c0,0,14.1,3.2,34.9,2.9c20.8-0.3,32-9,33.3-10.2c1.3-1.3-10.6-64.6-10.6-76.2c0-11.5-9.6-75.5-9.9-78.7
	c-0.3-3.2-1.2-64.1-1.8-67c-0.6-2.9-9.4-5.3-9.4-5.3s-26.1,2.3-26.1,6.4c0,2.4,1.7,29.7-0.4,61.4c-1.6,24-6.3,59.6-7.6,68.2
	C880,477.3,876.8,550.6,881,556z"/>
<path class="st5" d="M702.2,323c0.8,0,9.1-2.5,21.8-2.5c12.7,0,23.5,3.2,24.2,3.2c-1.8-10.9-15.8-72.2-17-73.9
	C730.2,248.4,709.5,299.8,702.2,323z"/>
<path class="st5" d="M932.2,327.5c-0.8,0-9.1-2.5-21.8-2.5c-12.7,0-23.5,3.2-24.2,3.2c1.8-10.9,18.7-72.2,19.9-73.9
	C907.3,252.7,928.2,314.5,932.2,327.5z"/>
<path class="st5" d="M850.6,276.1c-1.1,0-11.2-6.4-34.2-6c-23.5,0.4-36.8,6.3-37.8,6.3c2.9-16.1,34.7-113.3,36.5-115.7
	C816.9,158.2,844.8,256.8,850.6,276.1z"/>
<path class="st6" d="M714.7,420.7c0,0-0.2-14.3,1.2-18c1.4-3.7,6.5-3.7,7.3,2.7c0.8,6.5,0.2,15.3,0.2,15.3H714.7z"/>
<path class="st6" d="M719.2,351c0-0.9,0-13.8,1.4-16.7c1.4-2.9,5.7-2.6,6.7,1.8c1,4.4-2,16-2,16L719.2,351z"/>
<path class="st7" d="M713.4,424.1c1.3,0.5,12.2,0.2,12.2,0.2s0.8-5.1,0-5.1c-0.8,0-11.6-1.2-12.3-0.4
	C712.4,419.6,711.8,423.5,713.4,424.1z"/>
<path class="st6" d="M709.4,516.8c0,0-0.2-14.3,1.2-18c1.4-3.7,6.5-3.7,7.3,2.7c0.8,6.5,0.2,15.3,0.2,15.3L709.4,516.8L709.4,516.8z
	"/>
<path class="st7" d="M708.1,520.1c1.3,0.5,12.2,0.2,12.2,0.2s0.8-5.1,0-5.1c-0.8,0-11.6-1.2-12.3-0.4
	C707.1,515.6,706.5,519.5,708.1,520.1z"/>
<path class="st6" d="M906.5,517.7c0,0-0.2-14.3,1.2-18c1.4-3.7,6.5-3.7,7.3,2.8c0.8,6.5,0.2,15.3,0.2,15.3H906.5z"/>
<path class="st7" d="M905.2,521.1c1.3,0.5,12.1,0.2,12.1,0.2s0.8-5.1,0-5.1s-11.6-1.2-12.3-0.4C904.2,516.6,903.6,520.5,905.2,521.1
	z"/>
<path class="st7" d="M718.4,353c0.8,0.1,6.9,0.8,8,0.8s1.6-4.1,0.2-4.1c-1.4,0-8.4-0.8-9-0.2C717.1,350.1,716.1,352.7,718.4,353z"/>
<path class="st6" d="M906.7,420.4c0,0-0.2-12.3,1.2-15.5c1.4-3.2,6.5-3.2,7.3,2.4c0.8,5.6,0.2,13.1,0.2,13.1H906.7z"/>
<path class="st7" d="M905.4,424.7c1.3,0.5,12.2,0.2,12.2,0.2s0.8-5.1,0-5.1s-11.6-1.2-12.3-0.4C904.4,420.2,903.8,424.1,905.4,424.7
	z"/>
<path class="st6" d="M907.6,356.1c-0.1-0.8-1.5-12.8-0.4-15.7c1.1-2.9,5.4-3,6.8,1c1.4,4-0.3,15.1-0.3,15.1L907.6,356.1z"/>
<path class="st7" d="M907,358.2c0.8,0,6.9,0,8.1-0.1c1.2-0.1,1.1-4.3-0.3-4.1c-1.4,0.1-8.5,0.2-9,0.8
	C905.3,355.4,904.6,358.1,907,358.2z"/>
<path class="st8" d="M758.8,232.5c-2.6-1.3-6.6-3.6-9.2-4.1c-4.9-1-6.8,0.3-10.9-0.2c-2.7-0.3-5-1.8-6.1-2.2l-0.8,9.5
	c3.4,1.4,6.6,2.6,11.9-0.1C749.8,232.6,752.6,232.5,758.8,232.5z"/>
<path class="st8" d="M933.2,239.6c-2.7,1.1-6.8,3.1-9.4,3.5c-5,0.7-6.7-0.7-10.8-0.5c-2.7,0.1-5.1,1.4-6.2,1.8l-0.2-9.6
	c3.5-1.2,6.7-2.2,11.9,0.9C924.2,238.9,927,239.2,933.2,239.6z"/>
<path class="st8" d="M850.8,134.4c-2.9,2.7-9.8,6.2-13.1,6.6c-6.4,0.9-8.6-0.9-13.9-0.7c-3.4,0.1-6.6,1.8-8,2.3l-0.2-12.3
	c4.4-1.5,8.6-2.8,15.3,1.1C838.2,135.8,842.8,134.4,850.8,134.4z"/>
<path class="st6" d="M807.8,308.6c0,0-1.6-13.1-1-17c1.2-7,12.2-8.2,12,1.7c-0.2,8.9-0.7,16.1-0.7,16.1L807.8,308.6z"/>
<path class="st6" d="M796.1,409.2c0,0-0.1-18.8,0.3-29.9c0.5-15.6,28-18.6,28.8-0.6c1.1,23.1-1.6,30.4-1.6,30.4H796.1z"/>
<path class="st9" d="M811.8,408.8l-0.5-23.1l-15-0.4"/>
<path class="st9" d="M810.8,365.5l0.5,20.1l14.8-0.3"/>
<path class="st7" d="M805.9,311.7c1.9,1.1,12.7,0.7,13.9,0.2c1.2-0.5,1.4-4.3-0.2-4.6c-1.7-0.2-13.4-0.7-14.2,0
	C804.7,308.1,804.7,311,805.9,311.7z"/>
<path class="st7" d="M793.6,414.4c1.4,1.1,33.8,0.2,35.5,0c0.9-2,1.7-19.7,0.5-20.4c-1.2-0.7-7.7-1-7.7,0.5s1,7,0,7.2
	c-1,0.2-5.8,0.5-6.7,0c-1-0.5,0-7.7-1-7.7s-7.4-0.5-7.4,0.5s1,7.2,0.2,7.2c-0.7,0-6.7,1-6.7,0c0-1,0-7.2-1-7.2c-1,0-6.2-0.5-6.2,0.7
	C793.2,396.4,793.2,412.4,793.6,414.4z"/>
<path class="st10" d="M878.8,470c0,0-4.7,12.2-0.9,12.6c3.8,0.5,26.4,0.6,37.5-0.1c11.1-0.7,24.3-2.8,24.8-3.3
	c0.5-0.5-0.3-11.3-1.5-12C937.5,466.4,878.8,470,878.8,470z"/>
<path class="st10" d="M888.6,380c0,0,0.5,11.6,1.7,11.6c1.3,0,9.1-2.3,21.2-2c9,0.2,17.7,2.3,18.6,2.2c0.9-0.2,2.2-11.5,1.5-12.3
	c-0.6-0.8-20.9-3-20.9-3L888.6,380z"/>
<path class="st10" d="M747.2,470c0,0,4.7,12.2,0.9,12.6c-3.8,0.5-26.4,0.6-37.5-0.1c-11.1-0.7-24.3-2.8-24.8-3.3
	c-0.5-0.5,0.3-11.3,1.5-12C688.4,466.4,747.2,470,747.2,470z"/>
<path class="st10" d="M700.3,373.3c0,0-0.6,12.1,0.1,13.3c3.2,0.2,9.2-1.5,20.9-1c12,0.5,18.4,3.6,18.4,2.7s1.7-11.7,0-11.9
	C738,376.2,701.7,372.9,700.3,373.3z"/>
<path class="st10" d="M772.2,352.2c-0.2,1.1,0.3,10.6,1,10.7c0.6,0.2,21.6-3,40-2.9c18,0.2,29,1.4,40.7,3.4c0-0.7,0.4-12.4-1.1-13.4
	c-1.5-1-52.1-2.2-52.1-2.2L772.2,352.2z"/>
<path class="st7" d="M874.9,473c0,0,21.5,2.2,37.9,1.2c16.4-1,28.4-2.9,28.8-3.1c0.4-0.2,2.1-18.5,1.1-18.7c-1-0.2-9.2-0.6-9.6-0.1
	c-0.4,0.4,0.2,10.6-0.6,10.6c-0.8,0-8,1.1-9,1.1c-1,0,1.5-10.6-0.4-10.9c-2-0.3-11.4,0.3-11.6,1c-0.2,0.7,1.1,10.5,0,10.5
	c-1.1,0-9.4,0.8-10,0.6c-0.6-0.2-0.2-11.3-1.1-11.4c-0.9-0.1-9.9-0.9-10.2,0.2c-0.3,1.1-0.4,10.5-1,10.5c-0.7,0-7.9-0.5-8.4-0.7
	c-0.6-0.2,1.6-11.1,1-11.3c-0.7-0.2-7.9-2-8.2-1.1c-0.3,0.9-4.4,16.9-3.7,18C870.4,470.5,874.9,473,874.9,473z"/>
<path class="st7" d="M751,473c0,0-21.5,2.2-37.9,1.2c-16.4-1-28.4-2.9-28.8-3.1c-0.4-0.2,0.8-18.5,1.7-18.7c1-0.2,8.2,0.4,8.6,0.8
	c0.4,0.4-1.2,9.6-0.4,9.6c0.8,0,7.1,1.1,8.1,1.1c1,0,0.4-10.6,2.4-10.9c2-0.3,10.5,0.3,10.7,1c0.2,0.7-1.1,10.5,0,10.5
	c1.1,0,8.5,0.8,9,0.6c0.6-0.2,0.2-11.3,1.1-11.4c0.9-0.1,9.9-0.9,10.2,0.2c0.3,1.1,0.4,10.5,1,10.5c0.7,0,7.9-0.5,8.4-0.7
	c0.6-0.2-1.6-11.1-1-11.3c0.7-0.2,7.9-2,8.2-1.1c0.3,0.9,4.4,16.9,3.7,18C755.6,470.5,751,473,751,473z"/>
<path class="st7" d="M885.1,370.8c-0.2,0.8,2.9,13.4,3.6,13.4s11.2-3.6,23.1-3.6c11.9,0,20.1,3.2,20.9,3.2c0.8,0,4.4-13.9,3.6-14.4
	c-0.8-0.5-6.4-2-7-2c-0.6,0-1.1,7.6-1.7,7.6s-3-0.8-3.7-0.9c-0.8-0.1,0.9-8,0-8.1c-0.9-0.2-7.3-0.9-7.5-0.5c-0.2,0.5,0,7.3-0.6,7.3
	s-4.4,0.2-5.1,0c-0.8-0.1-0.5-7.8-0.9-7.8c-0.5,0-7.5,0.6-8,0.9c-0.5,0.3,1.1,7.5,0.5,7.5s-5.4,1.3-6,1.2c-0.6-0.2-1.9-7.5-2.3-7.5
	C893.2,367.1,885.5,368.7,885.1,370.8z"/>
<path class="st7" d="M696.4,364.1c-0.4,2,2.4,14.3,2.5,15.3c0.1,1,7.9-2.1,21.3-1.6c13.6,0.5,20.9,3.5,21.5,3.6
	c0.6,0.1,3.3-14.2,3.6-15.7c0.2-1.6-6.5-2.6-6.7-2c-0.2,0.7-1,8.1-1,8.1s-4.2-0.4-5.5-0.7c-0.1-1.2,1.2-6.4,1.1-7.6
	c-0.8-0.9-7.5-0.8-7.7-0.2c-0.2,0.6-0.8,6.7-0.8,7.2c-1.4,0.2-4.3,0.1-6.4,0c-0.4-0.9,0.7-7.9,0-8.1c-0.7-0.2-7-0.5-7.4,0.1
	c-0.3,0.7,0.4,8-0.1,8s-4.5,0.9-4.9,0.9c-0.4,0-1.1-7.9-1-8.4C702.8,362.6,697.3,363.5,696.4,364.1z"/>
<path class="st7" d="M769,336.5c-0.2,0.8,1,17.6,2.1,17.9c1.2,0.3,21.7-3.5,42.6-3.2c23.5,0.4,39.5,3.2,40.3,3.2
	c0.9,0,4.1-17,2.9-17.9c-1.2-0.9-8.2-2.6-8.4-2c-0.1,0.6-0.8,8.9-1.3,8.9c-0.5,0-6.4-0.1-7.1-0.4c-0.7-0.2,0.2-10.4-0.4-10.6
	c-0.6-0.1-9.4-0.4-10-0.2c-0.6,0.1,0,9.7-0.6,9.8c-0.6,0.1-8.5-0.7-8.9-0.6c-0.4,0.1,0.4-10.1-0.7-10.1c-1.1,0-8.4,0.5-9.1,0.5
	c-0.7,0,0,10-0.8,10c-0.8,0-9.2,0.4-10-0.1c-0.7-0.5-0.2-9.4-0.7-9.7c-0.5-0.4-10.6,0.1-11.2,0.5c-0.6,0.4,0.5,9.6-0.1,9.7
	c-0.6,0.1-8,0.8-8.5,0.8c-0.5,0-0.1-9.2-1.4-9.1C776.5,333.9,769.2,335.4,769,336.5z"/>
<path class="st7" d="M758.6,439.2c1.3,1.2,14,0.9,14.5,0.3c0.5-0.6,0-14.5,0.7-15c0.7-0.5,16.1-1.3,17.1-0.7
	c0.9,0.6-0.1,14,0.6,14.5c0.7,0.5,12.8,1.5,13,0.8c0.3-0.7-0.7-14,0-14.4c0.7-0.3,12.7-0.9,13.8-0.4c1.1,0.5,0.6,15.4,1.4,15.6
	c0.8,0.2,11.7,0.8,12.2,0c0.5-0.8,0-13.6,0.8-13.6c0.8,0,16.2-1.1,16.2-0.1c0,1-0.5,13.7,0,14.1c0.5,0.4,13.8-0.1,15,0
	c1.3,0.1,1.8-12.2,2.4-13.2s16.3-1.4,17.3-0.2c1,1.3,8.5,119.4,10.9,141.4c-41.9,4.5-135.2,4.6-169.9,0.2
	c2.3-16.3,16.5-128.1,17-130.5c0.5-2.4,1.7-13.4,2.6-13.9c1-0.5,13.2,0.2,14.2,1C759.3,425.7,757.2,437.9,758.6,439.2z"/>
<path class="st6" d="M749.1,506c0-1.6,0.2-19.9,4.1-23.7c4-3.8,9.4-1.1,9.4,7.6c0,8.7-1.6,16.8-1.6,16.8L749.1,506z"/>
<path class="st6" d="M860,509.7c-0.2-1.1-1.6-19,0.4-23.9c2-4.9,8.9-4.1,10.5-0.6c2.9,6.3,2.9,22,2.9,23.4
	C873.8,510,860,509.7,860,509.7z"/>
<path class="st11" d="M774.9,533.5c-0.5,7.9-2,29.4-2.5,38.7c17,0.2,69.9,0.2,70.2,0.2c0.4-12.2-0.8-37.4-0.8-46.1
	c0-17-5.8-36-32.4-37.2C779.5,487.8,775.7,521.9,774.9,533.5z"/>
<path class="st12" d="M821.3,570.9l1.6-77.9"/>
<path class="st12" d="M797.4,493.1l-3.5,77.5"/>
<path class="st12" d="M781.8,570.4l2.5-62"/>
<path class="st12" d="M833.3,499.5l-0.4,71.6"/>
<path class="st13" d="M774,547.3c15.7,1.1,54.1,1.1,68.4,1.9c0.1-4.5,0.2-8.9,0.3-12.7c-15.9-0.9-53.7-0.6-67.9-1.2
	C774.3,538.4,774.4,542.8,774,547.3z"/>
<path class="st10" d="M746.4,507.8c2.3,0.4,15.3,1.4,16,1.4c0.7,0,1.1-5.2,0.2-5.4c-0.9-0.2-15.6-1.5-15.7-1
	C746.6,503.4,745.3,507.6,746.4,507.8z"/>
<path class="st10" d="M859.8,512.6c1.6,0.5,13.9,0.4,15.2-0.2c1.3-0.5,2-5.4-0.5-5.4c-2.5,0-15.6-0.7-16.1,0.7
	C857.8,509.1,858.2,512,859.8,512.6z"/>
<path d="M841.8,523c-3-0.1-6.8-0.3-6.8-0.3s0.8-1.8,0.2-3.4c-0.6-1.6-3-0.8-3.6,0.4c-0.6,1.2-1.9,2.4-3,2.5
	c-1.1,0.1-1.1,0.4-0.6,0.6c0.5,0.1,2.4,1.4,2.9,3c0.5,1.6,0.8,4.1,2.7,3.2c1.9-0.8,1.2-3.3,1.2-3.3l7.2,0.9
	C841.8,525.5,841.9,524.1,841.8,523z"/>
<path d="M783.4,523.7c0,0-1.1,2.3,0.6,3.4c1.8,1,2.6-1.2,3.3-2.8c0.7-1.6,1.9-2.6,2.4-2.7c0.8-0.3,0.6-0.3-0.4-0.8
	c-1-0.5-1.9-1.5-2.5-2.7c-0.6-1.2-2.8-2.3-3.5-0.7c-0.7,1.6,0.6,3.4,0.6,3.4s-5.2-0.1-7.3-0.2c-0.3,1-0.6,2.1-0.6,3L783.4,523.7z"/>
<path d="M842.6,559.5c-3-0.1-6.8-0.3-6.8-0.3s0.8-1.8,0.2-3.4c-0.6-1.6-3-0.8-3.6,0.4c-0.6,1.2-1.9,2.7-3.1,2.8
	c-1.1,0.1-1.1,0.4-0.6,0.6c0.5,0.1,2.4,1,2.9,2.6c0.5,1.6,0.8,4.1,2.7,3.2c1.9-0.8,1.2-3.3,1.2-3.3l7.2,0.9
	C842.6,562,842.7,560.6,842.6,559.5z"/>
<path d="M780.3,560.3c0,0-1.1,2.3,0.6,3.4c1.8,1,2.6-1.2,3.3-2.8c0.6-1.6,1.9-2.2,2.4-2.4c0.8-0.3,0.6-0.3-0.4-0.8
	c-1-0.5-1.9-1.9-2.5-3.1c-0.6-1.2-2.8-2.3-3.5-0.7c-0.7,1.6,0.6,3.4,0.6,3.4s-5.3-0.1-7.5-0.2c-0.1,1.2-0.2,2.3-0.2,3.2L780.3,560.3
	z"/>
<path class="st14" d="M807.3,571.7l2.8-79.9"/>
<path class="st15" d="M753.1,336.3C753.1,336.2,753.1,336.2,753.1,336.3c2.2,0.8,3.7,2.2,5.1,4c0.5,0.7,0.9,1.3,1.3,2.1
	c0.5,1,0.9,2.1,1.9,2.7c0.2,0.1,0.5,0.3,0.8,0.3c0.1,0,0.3-0.1,0.3-0.3c0-0.1-0.1-0.2-0.1-0.3c-0.1-0.2-0.1-0.5,0-0.8
	c0-0.1,0.1-0.3,0.2-0.3c0.2,0,0.3,0.2,0.4,0.4c0.1,0.2,0.1,0.3,0.2,0.5c0.3,0,0.6,0.1,0.8,0.1c0.1-0.3,0.2-0.6,0.6-0.6
	c0.4,0.5,0,1.3-0.3,1.6c1.1,0.6,2.5,0.1,3.2-0.6c0.4-0.3,0.7-0.7,1.1-1.1c1.8-1.8,4.4-2.7,7.8-2.9c-0.6,0.4-1.3,0.8-1.7,1.4
	c-0.2,0.3-0.4,0.7-0.5,1.1c-0.1,0.4,0,1,0.2,1.3c-1.6,0.4-2.3,1.7-2.5,3.4c-0.5-0.3-1.1-0.5-1.9-0.6c-0.8-0.1-1.5,0.1-2.1,0.3
	c-1.1,0.5-1.9,1.5-2.5,2.4c0.1-0.5,0-0.9-0.4-1.2c-0.3-0.2-0.8-0.3-1.2-0.2c-0.2,0.1-0.4,0.3-0.5,0.5c-0.2-0.2-0.4-0.5-0.7-0.5
	c-0.3,0-0.6,0.1-0.8,0.3c0-0.3-0.1-0.5-0.2-0.7c-0.1-0.2-0.3-0.5-0.6-0.5c-0.3,0-0.6,0.3-0.8,0.5c-0.2,0.2-0.4,0.5-0.6,0.7
	c-0.2-1.5-0.8-2.6-1.6-3.4c-0.8-0.8-2-1.4-3.5-1.5c0.4-0.5,0.7-1.4,0.3-2.2c-0.3-0.7-0.9-1.1-1.5-1.4c0.9-0.3,1.4-0.9,1.3-2.1
	c0-0.6-0.3-1.1-0.6-1.5C753.8,336.9,753.4,336.5,753.1,336.3z"/>
<path class="st15" d="M791.7,383.7c0.2-0.1,0.5,0.3,0.9,0.2c0.4-0.4,0-1.2-0.4-1.4c0.2-1.2-0.6-1.5-1.6-1.6c-0.5-1.5-2-2.5-3.9-2
	c-1-2.2-2.8-3.5-5.9-3.4c-0.8-1.9-2.1-3.2-4.4-3.6c3-1.9,9.4-2.2,13.1-0.9c0.8,1.3,1.8,2.7,3.1,3.9c1.5,1.3,3.1,2.8,5.8,2.9
	c0.2-1.1,0.8-1.9,1.7-2.3c-0.1,0.9,0.4,1.2,0.8,1.4c0.5-0.1,1-0.3,1.4,0.1c0.5-0.3,0.9-0.6,1-1.3c0.5,0.2,0.7,0.9,0.6,1.6
	c2.4-1,4.1-2.8,5.3-4.9c4-0.7,6.6,1.1,8.2,3.4c-1.8,0-2.7,0.8-3.1,2.1c-0.7-0.3-1.6-0.8-2.5-0.5c-0.6,0.2-0.6,0.6-1.1,0.9
	c-1.6-0.9-3.3,0.4-4,1.4c-3-1.1-3.7,1.5-5.3,2.9c-0.7,0.6-1.3,0.9-2.2,1.3c0.4,0.5,0.2,1.8-0.9,1.7c0.1-0.3,0.4-0.3,0.4-0.6
	c-0.4-0.6-1.3-0.5-2,0c-0.4,0.2-0.6,0.8-1,0.9c-1,0.3-1.8-0.4-2-1.6C793.2,384.7,791.9,384.6,791.7,383.7z"/>
<path class="st16" d="M7,728.4c57.3-2.7-10.6-33.1,179-69c189.6-35.9,619,20.8,787,69H7L7,728.4z"/>
<path class="st7" d="M477.5,688.5c-0.6-0.1,0.3-0.1-0.4-0.1C477.2,688.5,477.3,688.6,477.5,688.5z"/>
<path class="st7" d="M488.4,685.3c-0.8-0.6-2-0.4-3-1c-0.4-0.6,1.8-0.6,2.5-0.6c0.2,0-0.1-0.3,0.5-0.2c2,0.3,5.2,0.4,7.7,0.5
	l-0.1-0.1c0.5,0,1,0.4,1.5,0.4c0,0-0.1-0.1,0-0.1c0.1,0.2,0.9,0.2,1.1,0.4c0.2,0,0.2-0.1,0.5-0.1l0.2,0.2c0.7,0.5,1.9,0.4,2.9,0.9
	c0-0.1-0.1-0.1,0-0.1c1.6,0.7,3.7,1.3,5.4,2.2c0-0.1-0.1-0.2,0.1-0.2c0,0.2,0.5,0.5,1,0.7c0.3,0,0.7,0.5,1.2,0.8l0-0.1
	c0.3,0.4,0.5,0.3,0.9,0.7l0.3,0c0,0,0.1,0.2,0,0.1c0-0.2,0.2-0.3,0-0.2c-0.1,0.1-0.4,0.1-0.5,0.1l0,0c-0.3-0.1-0.5,0-0.8,0l0,0
	c-0.7-0.1-1.2,0-1.2-0.2c-0.3,0.1,0.7,0.1,0.3,0.3c-2.5-0.4-5-0.7-7.5-1c-0.3,0-0.5,0-0.5,0.1c-0.2-0.1-0.9-0.2-1.1-0.3
	c0.1,0-0.2,0.1-0.3,0.1c-0.5,0-0.5-0.3-1-0.3c0.2,0.1,0.3,0.1,0.2,0.2c-0.4-0.2-1-0.3-1.5-0.4c0.1,0,0.2,0.1,0.2,0.1
	c-0.5-0.2-1-0.1-1.5-0.3l0.2,0.1c-0.8,0-0.2-0.3-0.9-0.3c0.2,0.1,0.1,0.1,0.1,0.1c-0.6-0.3-1.6-0.4-2.2-0.5c0,0,0,0,0,0
	c-0.7-0.1-1.4-0.1-2.1-0.3c-0.3,0,0.1,0.3-0.7,0.2c0.1-0.2-1.2-0.2-0.8-0.5c-0.6,0-1.6,0-2-0.2c0.3,0.1-0.3,0.2,0.2,0.3l-0.4,0.1
	c0.1,0.1,0.4,0,0.3,0.1c-0.3,0-1-0.2-1.2-0.2c-0.5-0.2-0.9-0.5-1.6-0.6c0.3,0.1-0.2,0.2,0,0.3l-1-0.6c-0.3,0-0.1,0.2-0.4,0.1
	c0-0.1-0.1-0.1-0.2-0.2c-0.1,0-1-0.2-1.2,0c-0.1,0.1,0.4,0.1,0.1,0.1c-0.5-0.1-0.5-0.2-0.9-0.2l0,0c-0.3,0-0.9-0.3-0.5-0.3
	c0.2,0-0.1,0.1,0.2,0.1c-0.2-0.2-0.7-0.3-1.2-0.4c0.1,0.1,0.1,0.1,0.2,0.2c-0.6-0.3-1.2-0.5-1.9-0.7c0-0.1,0.2,0.2,0.3,0.2
	c-0.8,0.1-2-1.1-1.9-0.4c0-0.1,0.2,0,0.1,0c-0.1,0.3-0.1-0.1,0.1,0c0-0.1,0.3-0.1,0.5-0.1c0.1,0,0.1-0.1-0.2,0c0.3,0,1.9,0,2.9-0.1
	c0,0.1,0.6,0.2,0.8,0.2l-0.1-0.1c0.2-0.1,0.7,0,0.8-0.1c0.5,0.2-1.8-0.2-1.2,0c0.2-0.1,0.9,0.2,0.7,0c0.4,0,0.9,0.2,1.3,0.1
	c-0.1,0-0.4-0.2,0-0.2c0.6,0,0.2,0.1,0.7,0.1l0.3,0.1c0,0.1,0.6,0,0.3,0.2c0.1-0.1,0.9,0.1,0.8-0.1l-0.1-0.2c0.3,0,0.4,0.2,0.6,0.3
	c0,0,0.1,0,0.1-0.1c0,0.3,0.6,0,1,0.2c0.6-0.1,1.4,0.1,1.7-0.1c0.4,0.1,0.8,0.2,1.3,0.2c-0.1,0-0.2,0-0.3-0.1c0.3-0.1,0.4,0,0.7,0.1
	c-0.1,0,0.6-0.1,1-0.2c0.4,0.1,0.3,0.3,0.3,0.3c0.4-0.2,1.2,0.3,1.7,0c-0.1,0-0.6-0.2-0.3-0.2c0.4-0.3,0.8,0.3,1.4,0.2l-0.2,0.2
	c0.3-0.1,0.9,0.2,0.9,0c0.2,0.1,0.8,0,0.7,0.2c1.1-0.1,2.5,0.3,3.2-0.1c0.1,0,0.5,0,0.4,0.1c-0.3,0.1-0.3-0.1-0.4,0
	c0.1,0,0.2,0.1,0.2,0.1c0.3,0,0.6,0,0.3-0.2c0.7-0.1,0.7,0.4,1.6,0.4c0-0.1,0-0.1,0.3-0.1l0.5,0.2c0.6,0,0.4-0.2,0.4-0.3
	c0.3,0,0.7,0.1,0.8,0.2l0.4-0.2c-0.3,0.1,0.3,0.1,0.4,0.2l-0.1,0c0.1-0.1,0.4,0,0.6,0c-0.1,0.1-0.4,0.1-0.6,0.1
	c0.2,0.1,0.4,0.1,0.6,0.2c-0.1-0.2,0.5-0.1,0.8-0.1c0.3,0,0.3,0.2,0.4,0.2c0-0.1,0.5,0,0.3-0.1c-0.1,0-0.2,0.1-0.4,0
	c0.2,0,0.2-0.2,0.6,0c0.3,0.1-0.1,0.3,0.5,0.3c-0.1-0.1-0.2-0.1-0.3-0.2l0.5,0l0,0.1c0.1,0,0,0,0.1-0.1c0.1,0.2,0.8,0.1,0.9,0.3
	c0.3,0,0.6,0,0.8,0l0,0c0.3,0,0.7,0.1,1,0.2l0,0c0.2,0,0.6,0.1,0.8,0.2c0.4-0.1,0.2-0.5,0.7-0.3c0.4,0.1,0.6,0.4,0.5,0.4
	c0.8,0,1.6,0.4,2.4,0.3c0.1,0.1,0,0.1,0.2,0.2c1.1,0.2,2.3,0.6,3.3,0.5c-0.3-0.1,0-0.1,0-0.2c0.2,0.2,0.3-0.1,0.4,0.2
	c-0.1,0.1,0,0.2-0.4,0.2c0.6,0.2,1.6,0.5,2,0.4c-0.2,0-0.1,0.1,0.1,0.2c0-0.2,0.5-0.1,0.8,0.1l0,0.1l0.3,0c0.1,0.1,0.1,0.3,0.5,0.3
	c0,0,0.1-0.1,0.1-0.1c0.3,0.2,0.8,0.5,1.1,0.6c0.1-0.1,0.3,0,0.1-0.2c-0.1-1.6,0.7-1.1,0-1.1c0.4-0.2-0.8,0.1-0.8,0.2
	c-1.2-0.4-3-0.6-4.5-0.7l0,0.1c-0.4,0.1-0.2-0.2-0.5-0.1c0.1,0.1-0.3,0.2,0,0.3c-0.6,0-0.7-0.2-1.1-0.3c0-0.1,0.3,0.1,0.2-0.1
	c-0.1,0-0.8,0-0.9-0.2c-0.1,0.1,0,0.2,0,0.3l-0.3-0.1c-0.4,0.2,0.9,0.5,0.5,0.7l-0.3-0.1c-0.3,0.2,0.8,0.3,0,0.3
	c-0.3-0.1-0.6-0.4-0.3-0.5c-0.7-0.1-0.3-0.5-1.1-0.5c-0.2,0.1,0.6,0.1,0.5,0.2c-0.4,0.1-0.7-0.1-1.1-0.1c0.4,0,0.1-0.2-0.2-0.3
	c-0.4,0.1,0.2,0.2-0.3,0.2c-0.1-0.1-0.6-0.2-0.1-0.3c-0.2-0.3-0.6,0-0.9-0.2c-0.2,0.2,0.5,0.4-0.1,0.5c0.1-0.2-0.7-0.3-0.4-0.5
	c-0.2,0-0.3,0.1-0.1,0.3c-0.4,0.1-0.8-0.4-1-0.1l-0.1-0.2c-0.1,0-0.3,0.1-0.5,0.1c-0.3,0-1-0.3-1-0.1c-0.1,0-0.8-0.1-0.5-0.2
	c0.4-0.1,0.5,0.2,0.7-0.1c-0.3,0.2-0.6-0.1-0.9-0.1l0,0.1c-0.1,0-0.5-0.1-0.6-0.2c0.1,0.1,0,0.1-0.1,0.1l-0.1-0.2
	c-0.6-0.1-0.2,0.2-0.8,0.2l0.4,0.1c-0.1,0-0.3,0.1-0.6,0c-0.1-0.1-0.3-0.3-0.4-0.4c-0.3-0.1-0.2,0.1-0.5,0l0.4,0.2
	c0.1,0-0.3,0.2-0.8,0.2c-0.3-0.1-0.7-0.2-0.3-0.3c-0.2,0-0.5,0.1-0.4,0.2c-0.5-0.1,0.1-0.1-0.4-0.2c-0.2,0.1-0.7,0.2-1.1,0.4
	l0.5,0.2l-0.3,0c0.4,0.2-0.2,0.1,0,0.3c-0.2,0-0.5,0-0.7-0.1c0.6-0.3-0.7-0.4-0.5-0.7c-0.8-0.1-0.5,0.7-1.4,0.3
	c0.1-0.1-0.3-0.3,0.3-0.2c-0.5,0-0.4-0.3-1-0.1c0.5,0.1-0.5,0.3,0.2,0.4c0-0.1,0.4-0.1,0.5-0.1c-0.2,0.1,0.1,0.3-0.5,0.3
	c-0.3,0-0.8,0-0.7-0.2c0-0.2,0.5,0,0.3-0.1c-0.6,0-0.7,0.2-1-0.1c0.4,0,0.5-0.2,0.5-0.3l-0.5,0l0.1,0.1c-0.8,0.1-0.2-0.2-1-0.1
	l-0.3,0.2c0.2,0.2,1.1-0.1,0.9,0.2c-0.5,0-0.6-0.1-1.1,0l0.3,0c-0.2,0-0.3,0.4-1,0.2c-0.4-0.1-0.1-0.1-0.1-0.2c-0.8,0-1-0.1-1.5-0.1
	c0.1,0.2-0.9,0.1-0.3,0.3c0.2-0.1,1.3-0.2,1.6,0c-0.3,0.3,0.6-0.1,0.8,0.2c-0.6,0-0.6,0.3-0.7,0.4c-0.2,0-0.3,0-0.4-0.1
	c-0.1-0.2,0.1-0.2,0.1-0.3c-0.7,0.1-1.3,0-1.7-0.1c-0.2,0.1-0.1,0.2,0.1,0.2c-0.8,0-1.7,0-2.4,0.1c0.5-0.3-0.9,0-0.5-0.2
	c0.4-0.1,0.8-0.3,0.5-0.4c-0.3,0,0,0.1-0.1,0.2c-0.3-0.1-0.5,0.2-0.8,0c0.7,0.1,0.2,0.3,0.3,0.5c-0.5-0.1,0,0.1-0.5,0.2
	c-0.5-0.1-1.2-0.1-1.8-0.2c-0.7,0.2-1.9,0.1-2.5,0.1c-0.3,0.1-0.1,0.3-0.5,0.4c-0.4,0,0.3-0.2-0.3-0.1l0.1,0c-0.2,0-1.2,0.2-1.4-0.1
	l0.2,0.2c-0.1,0-0.2,0-0.3-0.1c0,0.1-0.1,0.2,0.1,0.2c-0.4,0.2-0.8,0-1.3,0l0.3-0.1c-0.8-0.1-1.3,0-2,0l0,0.1l-0.4-0.1
	c0.1,0.1-0.3,0.2-0.5,0.1l1.1,0.4c0.3-0.1-0.3-0.2-0.1-0.3c0.2-0.1,0.8-0.1,0.9,0.1c-0.3,0-0.3,0-0.5-0.1c-0.1,0.2,0.3,0.2,0.5,0.3
	c-0.1,0-0.3,0-0.4,0c0.3,0.1,0.5,0.1,1,0.1c-0.3-0.1,0.2-0.1,0-0.2c0,0.2,0.5,0.2,1,0.2c0.4-0.2,1,0.1,1.7,0c-0.3-0.2-0.6-0.3-1-0.4
	c0.4-0.1,0.4,0,0.8-0.1c0.2,0.1,0.3,0.3,0.9,0.4l0-0.1c0.5,0.1,0.5,0.2,1.1,0.2c1-0.1,2.1-0.1,2.9-0.2l0-0.1c0.4,0.3,1.4,0,2,0.1
	c1-0.2,2.2,0,2.7-0.2c1.8,0,3.3,0.1,5.1,0l-0.3-0.2c0.3,0.1,0.2-0.1,0.5-0.1c-0.4,0.2,0.4,0.2,0.7,0.3c0.8-0.2,1.8,0,2.6,0.1l0-0.1
	c0.7,0.2,1.6,0,2.5,0c0.1,0,0.3-0.2,0.5-0.1c0.5,0.2,0.7,0.2,1.4,0.4c0.5,0,1.4,0.1,1.9,0c1.9,0.4,4,0.5,6,0.8l0.2-0.1
	c2,0.5,4.4,0.4,6.2,0.6l-0.2-0.3c0.4,0,1.5-0.1,1.6,0c0.1-0.1,0.3,0,0.5-0.7c0-0.7-0.2-0.6-0.2-0.8c-0.3-0.3-0.3-0.2-0.4-0.3
	c-0.2-0.1-0.4-0.2-0.5-0.3c-0.3-0.1-0.6-0.2-0.8-0.2c-0.5-0.1-0.6-0.3-1.1-0.5c-1.1-0.2-1.5-0.3-2.5-0.6l0.3,0
	c0.1,0.1,0.1,0.2-0.2,0.1c-0.4-0.2-1.4-0.3-1-0.5c-1.1-0.1-2.5-0.6-3.6-0.6c0.1-0.1-0.2-0.1-0.3-0.2c-1-0.1-2-0.2-2.8-0.4
	c-0.2,0,0.2,0.2-0.2,0.1c-0.2-0.1,0-0.1-0.3-0.2c-1.5-0.4-3.2-0.2-4.6-0.4c-2.5-0.4-5.2-0.5-7.6-0.7l0,0.1c-0.8-0.3-1.9,0.1-2.5-0.3
	c-0.2,0-0.7,0-0.6,0.1c-0.6-0.2-1.8,0-2.7-0.2c0.1,0,0.1,0,0.2,0c-0.9,0.1-1.8-0.2-2.8-0.1c0.1,0,0.3,0.1,0.3,0.1
	c-0.4,0.1-0.9-0.3-1.1,0c-0.2,0-0.1-0.2,0-0.1c-2.2,0-4.5-0.3-6.8-0.4c-1.6,0.1-0.1,0.5-1.4,0.3c-0.1,0.1-0.1-0.1-0.1-0.1
	c-0.5-0.1-0.8,0.3-1.1,0.2c0.1-0.2-0.2-0.1-0.2-0.2c-1,0.2-1.2,0.3-2.2,0.4l0.1,0.1c-0.3,0.1-0.5-0.1-1,0.4c-0.8,0.4,0,1.9,0.3,1.7
	c0.6,0.4,1,0.5,1.4,0.8c5.1,1.3,10,1.8,14.8,2.4c4.8,0.6,9.6,1.3,14.5,1.7c1.2-0.1,1.3-0.1,2.5,0.1c0,0-0.1-0.1,0-0.1
	c0,0.2,0.9,0.1,1,0.3c0.5,0,0.9,0.1,1.5,0c0.1,0,0.3,0,0.4-0.1c-0.2,0.1,0.9-0.3,0.9-1.1c0-0.5-0.1-0.7-0.4-1
	c-0.6-0.5-0.5-0.3-0.8-0.4c0.1,0.1-0.7-0.3,0.1,0.1l-0.3-0.2c-0.8-0.7-1.7-1.1-2.6-1.5c0.3,0.2,0.3,0.4,0,0.2l-0.3-0.3l-0.1,0
	c-0.2-0.1-0.4-0.3-0.2-0.3c-4.5-2.1-9.3-2.7-13.9-3.4c-1.1-0.1-2.7-0.3-4-0.4c-0.9,0-1.8,0.1-2.7,0.2c-0.5,0.1-0.9,0.1-1.3,0.3
	l-0.7,0.2l-0.2,0l-0.1,0l0,0l0,0l0,0c-0.6,3-0.2,0.8-0.3,1.5l0,0l0,0l0.4,0.2c2.5,0.8,2.9,0.8,5.7,1.3
	C490.4,686.3,489.7,685.8,488.4,685.3z"/>
<path class="st7" d="M478.3,688.6c0.1-0.1,0.5-0.1,0.2-0.3C478.4,688.4,478.2,688.5,478.3,688.6z"/>
<path class="st7" d="M489.3,687.4c0,0,0.2,0,0.2-0.1c-0.1,0-0.3-0.1-0.4,0C489.2,687.3,489.2,687.3,489.3,687.4z"/>
<path class="st7" d="M492.1,687.2c0-0.1-0.7-0.1-1-0.1L492.1,687.2z"/>
<path class="st7" d="M494.7,686.7c0.2-0.1,0.2-0.1-0.1-0.1C494.5,686.6,494.6,686.7,494.7,686.7z"/>
<path class="st7" d="M494.9,686.9c0.2,0,0.3-0.1,0.4-0.1C495.3,686.9,494.8,686.8,494.9,686.9z"/>
<path class="st7" d="M500.6,686.5c0.1,0,0.4,0.1,0.6,0C501,686.5,500.5,686.3,500.6,686.5z"/>
<path class="st7" d="M503.3,686.6c0.1,0,0.1,0,0.2,0c0.2,0,0-0.1-0.1-0.1L503.3,686.6z"/>
<path class="st7" d="M492.4,685l0.3,0.1l0-0.1L492.4,685z"/>
<path class="st7" d="M478.9,685c0.3,0.1,0.2,0,0.3,0C478.9,684.9,479.2,685.1,478.9,685z"/>
<path class="st7" d="M490,687L490,687l-0.1,0.2L490,687z"/>
<path class="st7" d="M444.7,683.4c0.6,0.1-0.3,0.1,0.4,0.1C445,683.4,444.9,683.3,444.7,683.4z"/>
<path class="st7" d="M433.8,686.6c0.8,0.6,2,0.4,3,1c1,0.4-0.6,0.5-0.8,0.6c-0.6,0-1.1,0.1-1.6,0c-0.2,0,0.1,0.3-0.5,0.2
	c-2-0.3-5.1-0.4-7.6-0.5l0.1,0.1c-0.5,0-1-0.4-1.5-0.4c0,0,0.1,0.1,0,0.1c-0.1-0.2-0.9-0.2-1-0.4c-0.2,0-0.2,0.1-0.5,0.1l-0.2-0.2
	c-0.7-0.5-1.9-0.4-2.8-0.9c0,0.1,0.1,0.1,0,0.1c-1.6-0.7-3.7-1.3-5.4-2.1c0,0.1,0.1,0.2-0.1,0.2c0-0.2-0.5-0.5-1-0.7
	c-0.3,0.1-0.7-0.6-1.2-0.8l0,0.1c-0.2-0.4-0.6-0.3-0.7-0.7l-0.1,0c-0.2,0.9,0,0.2-0.1,0.4l0.1-0.1c0.2,0.2,0.6-0.3,1-0.1l0,0
	c0.3,0,0.5-0.1,0.8-0.1l0,0c0.8,0.1,1.2-0.1,1.2,0.1c0.3-0.2-0.7-0.1-0.3-0.3c2.5,0.2,5,0.5,7.5,0.9c0.3,0,0.5,0,0.5-0.1
	c0.2,0.1,0.9,0.2,1.1,0.3c-0.1,0,0.2-0.1,0.3-0.1c0.5,0,0.5,0.3,1,0.3c-0.2-0.1-0.2-0.2-0.2-0.2c0.4,0.2,1,0.3,1.4,0.4
	c-0.1,0-0.2-0.1-0.2-0.1c0.5,0.3,1,0.1,1.5,0.3l-0.2-0.1c0.8,0,0.2,0.3,0.9,0.3c-0.2-0.1-0.1-0.1-0.1-0.1c0.6,0.3,1.6,0.4,2.2,0.6
	c0,0,0,0,0,0c0.7,0.1,1.4,0.2,2.1,0.4c0.3,0-0.1-0.3,0.7-0.2c0,0.2,1.2,0.2,0.8,0.4c0.6,0,1.6,0,2,0.2c-0.3-0.1,0.3-0.2-0.2-0.3
	l0.4-0.1c0-0.1-0.4,0-0.3-0.1c0.3,0,1,0.2,1.2,0.2c0.5,0.2,0.9,0.5,1.6,0.6c-0.3-0.1,0.2-0.2,0-0.3l1,0.6c0.2,0,0.1-0.2,0.4-0.1
	c0,0.1,0.1,0.1,0.2,0.2c0.1,0,1,0.2,1.2,0c0.1-0.1-0.4-0.1-0.1-0.2c0.5,0.1,0.5,0.2,0.9,0.2l0,0c0.3,0,0.9,0.3,0.5,0.3
	c-0.2,0,0.1-0.1-0.2-0.1c0.2,0.2,0.7,0.3,1.2,0.4c-0.1-0.1-0.1-0.1-0.2-0.2c0.6,0.3,1.2,0.5,1.8,0.8c0,0.1-0.2-0.3-0.3-0.2
	c0.4,0,0.9,0.3,1.1,0.4c-0.1-0.1,0.1-0.6-0.3-0.1c0.1,0,0-0.2,0-0.1c-0.3,0.1-0.3,0.2-0.5,0.2c0,0.1-0.3,0-0.6,0
	c-0.1-0.1-0.1,0,0.2,0c-0.4,0-2-0.1-2.9,0c0-0.1-0.6-0.2-0.8-0.2l0.1,0.1c-0.2,0.1-0.7,0-0.8,0.1c-0.5-0.2,1.8,0.2,1.2,0
	c-0.2,0.1-0.9-0.2-0.7,0c-0.4,0-0.8-0.2-1.3-0.1c0.1,0,0.3,0.2,0,0.2c-0.6,0-0.2-0.1-0.7-0.1l-0.3-0.1c0-0.1-0.5,0-0.3-0.1
	c-0.1,0.1-0.9-0.1-0.8,0.1l0.1,0.2c-0.3,0-0.4-0.2-0.6-0.3c0,0-0.1,0-0.1,0.1c0-0.3-0.6,0-0.9-0.2c-0.6,0.1-1.4-0.1-1.7,0.1
	c-0.4-0.1-0.8-0.2-1.3-0.2c0.1,0,0.2,0,0.3,0.1c-0.3,0.1-0.4,0-0.7-0.1c0.1,0-0.6,0.1-1,0.2c-0.4-0.1-0.3-0.2-0.3-0.3
	c-0.4,0.3-1.2-0.2-1.7,0c0.1,0,0.6,0.2,0.3,0.2c-0.4,0.2-0.8-0.3-1.4-0.2l0.2-0.2c-0.3,0.1-0.9-0.2-0.9,0c-0.2-0.1-0.8,0-0.7-0.2
	c-1,0.1-2.5-0.3-3.2,0.1c-0.1,0-0.5,0-0.4-0.1c0.2-0.1,0.3,0.1,0.4,0c-0.1,0-0.2-0.1-0.2-0.1c-0.3,0-0.6,0-0.3,0.2
	c-0.7,0.1-0.7-0.4-1.6-0.4c0,0.1,0,0.1-0.3,0.1l-0.5-0.2c-0.6,0-0.3,0.2-0.4,0.3c-0.3-0.1-0.7-0.1-0.8-0.2l-0.4,0.2
	c0.3-0.1-0.3-0.1-0.4-0.2l0.1,0c-0.1,0.1-0.4,0-0.6,0c0.1-0.1,0.4-0.1,0.6-0.1c-0.2-0.1-0.4-0.1-0.6-0.2c0.1,0.2-0.5,0.1-0.8,0.1
	c-0.3,0-0.3-0.2-0.4-0.2c0,0.1-0.5,0-0.3,0.1c0.1,0,0.2-0.1,0.4,0c-0.2,0-0.2,0.2-0.6,0c-0.3-0.1,0.1-0.3-0.5-0.3
	c0.1,0.1,0.2,0.1,0.3,0.2l-0.5,0l0-0.1c-0.1,0,0,0-0.1,0.1c-0.1-0.2-0.8-0.1-0.9-0.3c-0.3,0-0.6,0-0.8,0l0,0c-0.3,0-0.7-0.1-1-0.2
	l0,0c-0.2,0-0.6-0.1-0.8-0.2c-0.4,0-0.2,0.5-0.7,0.3c-0.4-0.1-0.6-0.4-0.5-0.4c-0.8,0-1.6-0.4-2.4-0.3c-0.1-0.1,0-0.1-0.2-0.2
	c-1.1-0.2-2.3-0.6-3.3-0.5c0.3,0.1,0,0.1,0,0.2c-0.2-0.2-0.3,0.1-0.4-0.2c0.1-0.1,0-0.2,0.4-0.2c-0.6-0.2-1.6-0.4-2-0.5
	c0.2,0,0.1-0.1-0.1-0.2c0,0.2-0.5,0.1-0.8-0.1l0-0.1l-0.3,0c-0.1-0.1-0.1-0.3-0.5-0.3c0,0-0.1,0.1-0.1,0.1c-0.2-0.1-1-0.8-0.7-0.4
	c0,0.1,0.1,0,0.1,0.6c-0.1,0.5-0.4,0.5-0.3,0.5c-0.2,0.1-0.2,0-0.2,0c0.1,0,0.4,0.1,0.1,0.2c0.6-0.1,1.1-0.1,1.3-0.3
	c1.2,0.4,3,0.6,4.5,0.7l0-0.1c0.4-0.1,0.2,0.2,0.5,0.1c-0.1-0.1,0.3-0.2,0-0.3c0.6,0,0.7,0.2,1.1,0.3c0,0.1-0.3-0.1-0.2,0.1
	c0.1,0,0.8,0,0.9,0.2c0.1-0.1,0-0.2,0-0.3l0.3,0.1c0.4-0.2-0.9-0.5-0.5-0.7l0.3,0.1c0.3-0.2-0.8-0.3,0-0.3c0.3,0.1,0.6,0.4,0.3,0.5
	c0.7,0.1,0.3,0.5,1.1,0.5c0.2-0.1-0.6-0.1-0.5-0.2c0.4-0.1,0.7,0.1,1,0.1c-0.4,0-0.1,0.2,0.2,0.3c0.4-0.1-0.2-0.2,0.3-0.2
	c0.1,0.1,0.6,0.2,0.1,0.3c0.2,0.3,0.6,0,0.9,0.2c0.2-0.2-0.5-0.4,0.1-0.5c-0.1,0.2,0.7,0.3,0.4,0.5c0.2,0,0.3-0.1,0.1-0.3
	c0.4-0.1,0.8,0.4,0.9,0.1l0.1,0.2c0.1,0,0.3-0.1,0.5-0.1c0.3,0,1,0.3,0.9,0c0.1,0,0.8,0.1,0.5,0.2c-0.4,0.1-0.5-0.2-0.7,0.1
	c0.3-0.2,0.6,0.1,0.9,0.1l0-0.1c0.1,0,0.5,0,0.6,0.2c-0.1-0.1,0-0.1,0.1-0.1l0.1,0.2c0.6,0.1,0.2-0.2,0.7-0.2l-0.4-0.1
	c0.1,0,0.3-0.1,0.6,0c0.1,0.1,0.3,0.3,0.4,0.4c0.3,0.1,0.2-0.1,0.5,0l-0.4-0.2c-0.1,0,0.3-0.2,0.7-0.2c0.3,0,0.7,0.2,0.3,0.3
	c0.2,0,0.5-0.1,0.4-0.2c0.5,0-0.1,0.1,0.4,0.2c0.2-0.1,0.7-0.2,1.1-0.4l-0.5-0.2l0.3,0c-0.4-0.2,0.2-0.1,0-0.3c0.2,0,0.5,0,0.7,0.1
	c-0.6,0.3,0.7,0.4,0.5,0.7c0.8,0.1,0.5-0.7,1.4-0.3c-0.1,0.1,0.3,0.3-0.2,0.2c0.5,0,0.4,0.3,1,0.1c-0.5-0.1,0.5-0.3-0.2-0.4
	c0,0.1-0.4,0.1-0.5,0.1c0.2-0.1-0.1-0.3,0.5-0.3c0.3,0,0.8,0,0.7,0.2c0,0.2-0.5,0-0.3,0.2c0.6,0,0.7-0.2,1,0.1
	c-0.4,0-0.5,0.2-0.5,0.3l0.5,0l-0.1-0.1c0.7-0.1,0.2,0.2,1,0.1l0.3-0.2c-0.2-0.2-1,0.1-0.9-0.2c0.5,0,0.6,0.1,1.1,0l-0.3,0
	c0.2,0,0.3-0.4,1-0.2c0.3,0.1,0.1,0.1,0.1,0.2c0.8,0,1,0.1,1.5,0.1c-0.1-0.2,0.9-0.1,0.3-0.3c-0.2,0.1-1.3,0.2-1.6,0
	c0.3-0.3-0.6,0.1-0.8-0.2c0.6,0,0.6-0.3,0.7-0.4c0.2,0,0.3,0,0.4,0.1c0.1,0.2-0.1,0.2-0.1,0.3c0.7-0.1,1.3,0,1.7,0.1
	c0.2-0.1,0.1-0.2-0.1-0.2c0.8,0,1.7,0,2.4-0.1c-0.5,0.3,0.9,0,0.5,0.2c-0.4,0.1-0.7,0.3-0.5,0.4c0.3,0,0-0.1,0.1-0.2
	c0.3,0.1,0.5-0.2,0.8,0c-0.7-0.1-0.2-0.3-0.3-0.5c0.5,0.1,0-0.1,0.5-0.2c0.5,0.1,1.2,0.1,1.8,0.2c0.7-0.2,1.9-0.1,2.5-0.1
	c0.3-0.1,0.1-0.3,0.5-0.4c0.4,0-0.3,0.2,0.3,0.1l-0.1,0c0.2,0,1.2-0.2,1.4,0.1l-0.2-0.2c0.1,0,0.2,0,0.3,0c0-0.1,0.1-0.2-0.1-0.2
	c0.4-0.2,0.8,0,1.3,0l-0.3,0.1c0.7,0.1,1.2,0,2,0l0-0.1l0.4,0.1c-0.1-0.1,0.3-0.2,0.5-0.1l-1.1-0.4c-0.3,0.1,0.3,0.2,0.1,0.3
	c-0.2,0.1-0.8,0.1-0.9-0.1c0.3,0,0.3,0,0.5,0.1c0.1-0.2-0.3-0.2-0.5-0.3c0.1,0,0.3,0,0.4,0c-0.3-0.1-0.5-0.1-1-0.1
	c0.3,0.1-0.2,0.1,0,0.2c0-0.2-0.5-0.2-1-0.2c-0.4,0.2-1-0.1-1.6,0c0.3,0.2,0.6,0.3,1,0.4c-0.4,0.1-0.4,0-0.8,0.1
	c-0.2-0.1-0.3-0.3-0.8-0.4l0,0.1c-0.5-0.1-0.5-0.2-1.1-0.2c-1,0.1-2.1,0.1-2.8,0.2l0,0.1c-0.4-0.3-1.4,0-2-0.1c-1,0.2-2.1,0-2.6,0.2
	c-1.7,0-3.3-0.1-5.1,0l0.3,0.2c-0.3-0.1-0.2,0.1-0.5,0.1c0.4-0.2-0.4-0.2-0.7-0.3c-0.8,0.2-1.8,0-2.5-0.1l0,0.1
	c-0.7-0.2-1.6,0-2.4,0c-0.1,0-0.3,0.2-0.5,0.1c-0.5-0.2-0.7-0.2-1.4-0.4c-0.5,0-1.4,0-1.9,0c-1.9-0.4-3.9-0.4-5.9-0.8l-0.2,0.1
	c-1.9-0.5-4.4-0.4-6.1-0.6l0.2,0.3c-0.5,0-1.3,0-1.2-0.2c-0.2,0.1-0.2-0.1-1,0.4c-0.6,1.4,0.2,1.3,0.3,1.5l0.3,0.2
	c0.3,0.2,0.6,0.3,0.8,0.2c0.5,0.1,0.6,0.3,1,0.5c1.1,0.2,1.5,0.4,2.5,0.7l-0.3,0c-0.1-0.1-0.1-0.2,0.2-0.1c0.4,0.2,1.4,0.3,1,0.5
	c1.1,0.1,2.5,0.6,3.6,0.6c-0.1,0.1,0.2,0.1,0.3,0.2c1,0.2,2,0.1,2.7,0.4c0.2,0-0.2-0.2,0.2-0.1c0.2,0.1,0,0.1,0.3,0.2
	c1.5,0.4,3.2,0.2,4.6,0.4c2.5,0.4,5.1,0.5,7.5,0.7l0-0.1c0.8,0.3,1.9-0.1,2.5,0.3c0.2,0,0.7,0,0.6-0.1c0.6,0.2,1.8,0,2.7,0.2
	c-0.1,0-0.1,0-0.2,0c0.9-0.1,1.8,0.2,2.8,0.1c-0.1,0-0.3-0.1-0.3-0.1c0.4-0.1,0.9,0.3,1.1,0c0.2,0,0.1,0.2,0,0.1
	c2.2,0,4.5,0.3,6.7,0.4c1.6-0.1,0.1-0.5,1.4-0.2c0.1-0.1,0.1,0.1,0.1,0.1c0.5,0.1,0.8-0.3,1.1-0.2c-0.1,0.2,0.2,0.1,0.2,0.2
	c1-0.1,1.2-0.3,2-0.2l-0.1-0.1c0.6,0.1,1.1,0.1,1.8-0.4c0.9-0.2,0.2-2-0.1-1.9c-0.3-0.3-0.5-0.4-0.7-0.5c-5.2-1.6-9.9-1.9-14.7-2.6
	c-4.8-0.7-9.4-1.7-14.5-1.9c-1.2,0.2-1.3,0.2-2.6,0c0.1,0,0.1,0,0,0.1c-0.1-0.2-0.9,0-1.1-0.2c-0.5,0-1,0.1-1.5,0.1l-0.8,0.1l0,0
	l0,0c0.5-1.9-0.6,2.5-0.5,2.1l0,0l0,0l0,0l0.1,0.1l0.2,0.1l0.3,0.2c0.8,0.6,1.7,1,2.6,1.4c-0.3-0.1-0.3-0.4,0-0.2l0.3,0.3l0.1,0
	c0.2,0.1,0.4,0.3,0.2,0.3c4.5,2,9.2,2.6,13.8,3.3c1.1,0.1,2.7,0.3,3.9,0.3c0.9,0,1.8-0.1,2.7-0.3c0.5-0.1,0.9-0.1,1.3-0.3l0.7-0.2
	l0.2,0l0.1,0l0,0c-0.1,0.3,0.6-2.8,0.3-1.5l0,0l0,0l0,0l0,0l-0.4-0.2c-2.4-0.7-2.9-0.8-5.6-1.3C431.7,685.6,432.5,686.1,433.8,686.6
	z"/>
<path class="st7" d="M443.9,683.3c-0.1,0.1-0.5,0.1-0.2,0.3C443.8,683.5,444,683.4,443.9,683.3z"/>
<path class="st7" d="M433,684.5c0,0-0.2,0-0.2,0.1c0.1,0,0.3,0.1,0.4,0C433.1,684.6,433.1,684.6,433,684.5z"/>
<path class="st7" d="M430.2,684.7c0,0.1,0.6,0.1,1,0.1L430.2,684.7z"/>
<path class="st7" d="M427.7,685.2c-0.2,0.1-0.2,0.1,0.1,0.1C427.8,685.3,427.7,685.2,427.7,685.2z"/>
<path class="st7" d="M427.5,685c-0.2,0-0.3,0.1-0.4,0.1C427,685,427.5,685.1,427.5,685z"/>
<path class="st7" d="M421.8,685.4c-0.1,0-0.4-0.1-0.6,0C421.4,685.4,421.9,685.6,421.8,685.4z"/>
<path class="st7" d="M419.1,685.3c0,0-0.1,0-0.2,0c-0.2,0,0,0.1,0.1,0.1C419.1,685.4,419.2,685.4,419.1,685.3z"/>
<path class="st7" d="M429.2,686.9l-0.3-0.1l0,0.1L429.2,686.9z"/>
<path class="st7" d="M444.1,687.1c-0.3-0.1-0.2,0-0.3,0C444.1,687.2,443.8,687,444.1,687.1z"/>
<path class="st7" d="M433,685L433,685l0.1-0.2L433,685z"/>
<path class="st17" d="M498.1,624.3c-0.6,3.4,1.6,6.6,4.8,7.2c3.3,0.6,6.4-1.7,7-5.1c0.6-3.4-1.6-6.6-4.8-7.2
	C501.8,618.6,498.7,620.9,498.1,624.3z"/>
<path class="st18" d="M506,625.1c0,0,9-5.2,11.9-2.8c2.9,2.4,7.5,14.4,9.3,21c1.7,6.7,7.6,15,7.6,15s-4.4,6.1-15.5,7.9
	c-11.1,1.8-24.2-1.9-27.4-3.4c-3.2-1.5-9.9-6.5-9.9-6.5s4.8-6.2,8.2-11.3C493.6,639.9,506,625.1,506,625.1z"/>
<path class="st11" d="M499.6,623.6c-0.6-1.9-3-1.3-3-1.3s-3.1,11-5.4,14.9c-2.3,3.8-4.2,6.1-4.8,7.2c0.3,0.5,2.5,3.4,3.6,2.9
	c1-0.5,7.9-12.7,8.7-16.3C499,629.3,500.1,625.2,499.6,623.6z"/>
<path class="st11" d="M483.7,675l-1.9,6.1c0,0-5.7-0.8-6.9-0.2c-1.2,0.5-2.1,1.9-1.8,2.5c0.4,0.6,4.5,2.3,8.3,2.2
	c3.9-0.1,3.4-0.5,3.4-0.5l3-8.9L483.7,675z"/>
<path class="st11" d="M515.1,677.9l6.3,6.3c0,0-1.6,4.3-4.9,4.6c-3.3,0.3-6.2-0.5-6.2-0.5s-0.3-2.8,2-3.2c1.4-0.2,2.2-0.5,3.2-0.8
	c0-0.2-3.6-3-3.6-3L515.1,677.9z"/>
<path d="M496,659.7c0,0-2.6,4.5-3.9,6.8c-1.8,2.9-4.3,9.1-4.3,9.1s-3.7-0.8-3.6-1c0,0,1.8-8.3,2.5-10.4c0.7-2.1,2.2-7.4,2.2-7.4
	L496,659.7z"/>
<path d="M502.2,661.3c0,0,1.2,9.8,2.5,12.1c1.4,2.3,7,7.2,7,7.2l2.4-3.2c0,0-3.6-3.7-4.6-5.5c-1-1.7-0.4-10-0.4-10L502.2,661.3z"/>
<path class="st19" d="M525.2,604.4c0,0-2.3,9.1-4.7,12.1c-3.3,4.1-10.3,7.7-16,6.2c-5.7-1.5-10.8-6.8-10.3-14.2
	c0.4-5.8,2.9-11.2,4.1-13.7c1.7-3.5,12.2-5.3,17.5-3C521.2,594,525.2,604.4,525.2,604.4z"/>
<path class="st20" d="M505.4,588.1c0.3-0.3,6.2-3.5,9.4-2.7c3.2,0.8,5.4,4,8.7,4.4c3.3,0.5,6.5,0.1,6.5,0.1s-1.4,2.5-3,2.7
	c-1.6,0.1-2.7,0.2-2.7,0.2s1.2,0.5,2.5,1.4c1.3,0.9,1.8,2.1,4,2.2c2.2,0.1,3.9-0.8,3.9-0.8s0,1.8-1.4,3c-1.7,1.4-4,2.4-4,2.4
	s1.9,0.6,3.3,1.3c1.4,0.7,2.2,1.2,4.1,0.5c1.8-0.7,1.6-0.4,1.6-0.4s-0.4,2.1-2.3,3.2c-1.9,1.1-4.6,2-4.6,2s1.2,2,2.3,2.6
	c1.1,0.6,3.5,1.5,3.5,1.5s-0.9,1-2.7,1.2c-1.8,0.2-5.5-1.7-5.5-1.7s-0.2,2,0.6,2.8c0.8,0.7,2.4,1.5,2.4,1.5s-3.1,0.8-5-0.1
	c-1.2-0.6-2.4-1-2.4-1s-0.6,1.9-0.1,2.4c0.6,0.5,1.9,1.4,1.9,1.4s-3.3,0.1-4.5-0.6c-1.8-0.9-1.3-1.3-1.3-1.3s3.5-5.6,3.4-8.9
	c-0.1-3.3,0.1-3.9-2-5.8c-2.1-1.9-4-5.9-5.4-7.3c-1.4-1.4-2.9-2.1-4.6-1.8c-1.7,0.2-3.6,1.1-3.6,1.1s-2.8-2.8-4.4-2.2
	c-1.6,0.6-3.2,1.4-5.3,0.6c-2.1-0.8-3.5-2.4-3.5-2.4s1.8,1.4,3.3-0.1c1.5-1.5,3.6-2.8,4.8-2.6C504.4,587.3,505.4,588.1,505.4,588.1z
	"/>
<path class="st20" d="M501.9,591.6c0,0-2.8-0.3-5.1,2.1c-3,3.2-5,1.6-5,1.6s0.4,2,2,2.8c1.6,0.8,2.4,0.4,3,0.1
	C497.9,595.7,501.9,591.6,501.9,591.6z"/>
<path class="st11" d="M514.5,640.4c-0.1,5.2-1.4,7.6-1.4,7.6s2,3.2,2.2,14.1c-2,0.5-3.8,0.7-8.8,0.2c-6.8-0.8-10-1.6-14.3-3.5
	c-3.5-1.6-5.3-2.9-5.3-2.9s5.5-9.4,6.3-12.4c-0.6-2.9,4.7-21.5,4.7-21.5l2.1,0.5l4.3,4l7-3l3.3,0.4
	C514.6,623.9,514.6,635.2,514.5,640.4z"/>
<path class="st8" d="M501.9,646c-3.5-0.8-8.7-2.5-8.7-2.5l-0.1,0.8c0,0,4.5,2,9.9,3.1c5.4,1,10.5,1.3,10.5,1.3l0.2-1.2
	C513.5,647.5,505.4,646.8,501.9,646z"/>
<path class="st13" d="M489.2,674.9l-0.6,1.9l-5.4-1.7l0.6-1.9L489.2,674.9z"/>
<path class="st13" d="M510.4,680l4.1-3.5l1.6,1.4l-4.3,3.6L510.4,680z"/>
<path class="st19" d="M523.6,608c0,0,2.9,0.9,2.2,3c-0.6,1.8-2.3,1.9-3.4,1.7c-1.1-0.2-1.2-0.7-1.2-0.7L523.6,608z"/>
<path class="st21" d="M506.7,604.1c0,0-6,3.9-5.4,4.7c0.5,0.8,3.3,1.4,4.6,1.5"/>
<path class="st21" d="M509.1,614.5c0,0-0.1,1.5-1.5,2.3c-1.9,1-3.4-0.4-3.4-0.4"/>
<path class="st22" d="M514.4,600.3c2.1,0.4,3.1,1.9,2.8,3.9c-0.3,2.1-1.7,3.4-3.7,3.1c-2-0.3-3.1-2.1-2.8-4.1
	C511,601.2,512.5,599.9,514.4,600.3z"/>
<path class="st23" d="M512.8,602.5c0.4,0.1,0.5,0.3,0.5,0.7c-0.1,0.4-0.3,0.6-0.7,0.6c-0.4-0.1-0.6-0.4-0.6-0.8
	C512.1,602.6,512.4,602.4,512.8,602.5z"/>
<path class="st22" d="M500.5,598.1c1.8,0.1,2.6,1.4,2.5,3.4c-0.1,1.9-1.3,3.3-3.1,3.1c-1.8-0.1-3-1.6-2.9-3.5
	C497.1,599.2,498.7,598,500.5,598.1z"/>
<path class="st23" d="M499,600c0.4,0,0.5,0.3,0.5,0.6c0,0.4-0.2,0.6-0.6,0.6c-0.4,0-0.6-0.3-0.6-0.7C498.4,600.2,498.7,600,499,600z
	"/>
<path class="st7" d="M495.6,649.3c-3.3-1.6-15.4-10.3-19.7-13.7c-4.4-3.6-14-9.5-13.6-7.8c0.4,1.7,5,7.5,13.2,13.5
	c4.3,3.1,18.2,10.5,18.2,10.5L495.6,649.3z"/>
<path class="st24" d="M493.6,651.6c1-0.6,1.3-1.4,1.9-2.9c0.5-1.3,0.6-4.8,1.7-4.3c1.1,0.5,1.5,3.1-0.6,6.4c-2.5,4-5.4,4.6-6.3,4
	C489.1,654.2,492.3,652.5,493.6,651.6z"/>
<path class="st25" d="M495.8,651.2c0.4-0.6,0.9-0.7,0.9-0.7s8.7,5,8.8,5.6c0.1,0.6-0.9,2.1-1.4,2s-8.7-5.8-8.7-5.8
	S495.3,651.9,495.8,651.2z"/>
<path class="st19" d="M501.9,657.2c-0.9-0.2-1-1-1-1s-1.4,0.3-1.9-0.2c-0.5-0.5,0.1-1.2,0.1-1.2s-1.5,0.7-1.8-0.1
	c-0.3-0.8,1.9-2.7,1.9-2.7s-2.1-0.9-1.3-1.8s2.7,0.7,3.6,0.5c0.8-0.2,3.2,2.3,3.2,2.3S502.8,657.4,501.9,657.2z"/>
<path class="st8" d="M516.3,621c-1.1-0.5-1.5-0.4-3.4,0.2c-3.5,1.1-7.6,4-7.6,4l0.3,1.4c0,0,3.6-1.6,6.9-1.8
	c3.3-0.2,7.6,0.4,7.6,0.4S518.1,621.9,516.3,621z"/>
<path class="st8" d="M496.8,619.3c0.8-0.8,1.9,0,3.7,1.9c1.9,1.9,2.7,4.1,2.7,4.1l-0.9,0.9c0,0-1.1-1.3-3-2.9
	c-1.9-1.5-2.9-0.9-2.9-0.9S495.5,620.5,496.8,619.3z"/>
<path class="st13" d="M509.7,630.9c-3.4,11.4-8.6,18.9-9,19.2c-0.4,0.3,3.8,4.3,4.6,3.5c0.9-0.8,4.1-6.8,5.4-10.7
	c1.3-3.9,2.5-8.8,2.9-10c0.5-1.5,0.9-4.9,0-5.3C512.7,627.3,510.5,628.3,509.7,630.9z"/>
<path class="st24" d="M501.7,626.9c-0.1,0.6,0.3,1.1,0.9,1.2l1.6,0.2c0.6,0.1,1.1-0.3,1.2-0.9l0.2-1.5c0.1-0.6-0.3-1.1-0.9-1.2
	l-1.6-0.2c-0.6-0.1-1.1,0.3-1.2,0.9L501.7,626.9z"/>
<path class="st7" d="M588.1,693.5c0.5,0.1-0.3,0.1,0.3,0.1C588.4,693.5,588.3,693.4,588.1,693.5z"/>
<path class="st7" d="M577.8,696.1c0.7,0.7,1.8,0.5,2.7,1.1c0.5,0.7-1.6,0.5-2.3,0.5c-0.2,0,0.1,0.3-0.5,0.2c-1.8-0.4-4.7-0.7-7-1
	l0.1,0.1c-0.4,0-0.9-0.4-1.3-0.5c0,0,0.1,0.1,0,0.1c-0.1-0.2-0.8-0.3-0.9-0.4c-0.2,0-0.2,0.1-0.4,0.1l-0.2-0.2
	c-0.6-0.6-1.7-0.5-2.6-1c0,0.1,0.1,0.1,0,0.1c-1.4-0.8-3.3-1.5-4.8-2.4c0,0.1,0,0.2-0.1,0.2c0-0.2-0.4-0.5-0.8-0.8
	c-0.3,0-0.6-0.6-1.1-0.8l0,0.1c-0.2-0.4-0.5-0.3-0.6-0.7c-0.1,0,0,0-0.2-0.1c0.2,0.1-0.2,0.5-0.1,0.3c0.1,0.3,0.5-0.1,0.9,0.1l0,0
	c0.3,0.1,0.5,0,0.8,0.1l0,0c0.7,0.2,1.1,0.1,1.1,0.3c0.3-0.1-0.7-0.2-0.2-0.3c2.2,0.6,4.6,0.9,6.8,1.3c0.3,0,0.4,0,0.5-0.1
	c0.2,0.1,0.8,0.2,1,0.3c-0.1,0,0.2-0.1,0.3-0.1c0.4,0,0.4,0.3,0.9,0.3c-0.2-0.1-0.2-0.2-0.1-0.2c0.4,0.2,0.9,0.3,1.3,0.4
	c-0.1,0-0.2-0.1-0.1-0.1c0.5,0.3,0.9,0.1,1.3,0.3l-0.1-0.1c0.7,0,0.2,0.3,0.8,0.3c-0.1-0.1-0.1-0.1-0.1-0.1c0.5,0.3,1.5,0.4,2,0.6
	c0,0,0,0,0,0c0.6,0.1,1.3,0.2,1.9,0.4c0.3,0,0-0.3,0.6-0.1c-0.1,0.2,1.1,0.3,0.7,0.5c0.6,0.1,1.5,0.1,1.8,0.3
	c-0.2-0.1,0.3-0.2-0.1-0.3l0.4-0.1c0-0.1-0.4,0-0.2-0.1c0.2,0,0.9,0.3,1.1,0.3c0.4,0.2,0.7,0.5,1.4,0.7c-0.3-0.1,0.2-0.2,0-0.3
	l0.9,0.6c0.2,0.1,0.1-0.2,0.4,0c0,0.1,0.1,0.1,0.2,0.2c0.1,0,0.9,0.3,1.1,0.1c0.1-0.1-0.4-0.1-0.1-0.1c0.4,0.1,0.4,0.2,0.8,0.3l0,0
	c0.3,0,0.8,0.3,0.5,0.3c-0.2,0,0.1-0.1-0.2-0.1c0.2,0.2,0.6,0.3,1.1,0.5c-0.1-0.1-0.1-0.1-0.1-0.2c0.5,0.3,1.1,0.6,1.6,0.8
	c0,0.1-0.1-0.3-0.3-0.2c0.4,0.1,0.8,0.3,1,0.5c0.2,0.4,0.2-0.6,0-0.1c0.1,0,0-0.2,0-0.1c-0.3,0.1-0.2,0.3-0.5,0.2c0,0.1-0.3,0-0.5,0
	c-0.1-0.1-0.1,0,0.2,0c-0.3,0-1.8-0.2-2.7-0.2c0-0.1-0.5-0.3-0.7-0.3l0.1,0.1c-0.2,0.1-0.7-0.1-0.7,0c-0.4-0.2,1.6,0.3,1.1,0.1
	c-0.2,0.1-0.8-0.3-0.7-0.1c-0.4,0-0.8-0.2-1.2-0.1c0.1,0,0.3,0.2,0,0.2c-0.6-0.1-0.2-0.1-0.6-0.2l-0.3-0.1c0-0.1-0.5,0-0.3-0.2
	c-0.1,0.1-0.8-0.2-0.8,0.1l0.1,0.2c-0.2,0-0.4-0.2-0.6-0.3c0,0-0.1,0-0.1,0.1c0-0.3-0.6,0-0.9-0.3c-0.5,0-1.3-0.1-1.6,0
	c-0.4-0.1-0.7-0.3-1.2-0.3c0.1,0,0.2,0.1,0.2,0.1c-0.3,0-0.4,0-0.6-0.1c0.1,0.1-0.6,0.1-0.9,0.1c-0.4-0.1-0.2-0.3-0.3-0.3
	c-0.4,0.2-1.1-0.3-1.6-0.1c0.1,0.1,0.6,0.2,0.2,0.2c-0.4,0.2-0.7-0.3-1.3-0.2l0.2-0.2c-0.3,0.1-0.8-0.2-0.8,0
	c-0.2-0.1-0.7,0-0.6-0.2c-1,0-2.3-0.4-2.9-0.1c-0.1-0.1-0.5-0.1-0.4-0.2c0.2-0.1,0.3,0.1,0.4,0.1c-0.1,0-0.1-0.1-0.2-0.1
	c-0.3,0-0.5,0-0.3,0.2c-0.7,0-0.6-0.5-1.5-0.5c0,0.1,0,0.1-0.3,0.1l-0.4-0.2c-0.5,0-0.3,0.1-0.4,0.3c-0.3-0.1-0.6-0.1-0.8-0.2
	l-0.4,0.1c0.3-0.1-0.2-0.1-0.4-0.2l0.1,0.1c-0.1,0.1-0.4,0-0.6-0.1c0.1-0.1,0.4-0.1,0.6-0.1c-0.1-0.1-0.4-0.1-0.6-0.2
	c0,0.2-0.5,0-0.7,0c-0.3,0-0.3-0.2-0.3-0.2c0,0.1-0.4-0.1-0.2,0.1c0.1,0,0.2,0,0.4,0.1c-0.2,0-0.2,0.2-0.5,0
	c-0.3-0.1,0.1-0.3-0.4-0.3c0.1,0.1,0.1,0.1,0.2,0.2l-0.5,0l0-0.1c-0.1,0,0,0-0.1,0.1c-0.1-0.2-0.7-0.2-0.8-0.3c-0.2-0.1-0.5,0-0.8,0
	l0,0c-0.3,0-0.7-0.1-0.9-0.2l0,0c-0.2,0-0.5-0.1-0.7-0.2c-0.4,0-0.2,0.5-0.6,0.2c-0.4-0.1-0.6-0.4-0.4-0.4c-0.7-0.1-1.5-0.5-2.2-0.4
	c-0.1-0.1,0-0.1-0.2-0.2c-1-0.2-2.1-0.7-3-0.7c0.3,0.1,0,0.1,0,0.2c-0.2-0.2-0.3,0-0.3-0.2c0.1-0.1,0.1-0.2,0.3-0.1
	c-0.6-0.3-1.5-0.5-1.8-0.6c0.2,0,0.1-0.1,0-0.2c0,0.2-0.5,0.1-0.8-0.1l0-0.1l-0.3,0c-0.1-0.1,0-0.3-0.4-0.3c0,0-0.1,0.1-0.1,0.1
	c-0.2-0.1-0.8-0.8-0.7-0.4c0,0.1,0,0.1-0.1,0.2c0.2,0.2-0.1,0.8-0.4,0.8c-0.1,0,0.2,0.1,0,0.2c0.3-0.1,0.9-0.1,1.1-0.2
	c1.1,0.5,2.7,0.7,4.1,0.9l0-0.1c0.4,0,0.2,0.2,0.4,0.2c-0.1-0.1,0.3-0.1,0-0.3c0.5,0,0.6,0.3,1,0.3c0,0.1-0.3-0.1-0.2,0
	c0,0,0.7,0,0.8,0.2c0.1,0,0.1-0.2,0-0.3l0.3,0.1c0.4-0.1-0.8-0.5-0.4-0.7l0.3,0.1c0.3-0.1-0.7-0.3,0-0.3c0.3,0.1,0.5,0.4,0.2,0.5
	c0.6,0.2,0.2,0.5,0.9,0.6c0.2-0.1-0.6-0.1-0.4-0.2c0.4-0.1,0.7,0.2,1,0.2c-0.3,0-0.1,0.2,0.1,0.3c0.4,0-0.2-0.2,0.3-0.1
	c0.1,0.1,0.5,0.3,0.1,0.3c0.1,0.3,0.5,0,0.8,0.2c0.2-0.1-0.5-0.4,0.1-0.4c-0.1,0.1,0.7,0.3,0.3,0.5c0.2,0,0.3-0.1,0.1-0.2
	c0.3,0,0.7,0.4,0.9,0.1l0.1,0.2c0.1,0,0.3-0.1,0.4-0.1c0.3,0,0.9,0.3,0.9,0.1c0.1,0,0.7,0.1,0.5,0.2c-0.4,0-0.4-0.2-0.7,0
	c0.3-0.1,0.6,0.1,0.8,0.2l0.1-0.1c0.1,0.1,0.5,0.1,0.5,0.2c-0.1-0.1,0-0.1,0.1-0.1l0.1,0.2c0.6,0.1,0.2-0.2,0.7-0.1l-0.4-0.2
	c0.1,0,0.3-0.1,0.5,0c0.1,0.1,0.3,0.3,0.3,0.4c0.3,0.1,0.2-0.1,0.5,0l-0.4-0.2c-0.1-0.1,0.3-0.2,0.7-0.1c0.2,0.1,0.6,0.3,0.2,0.3
	c0.2,0,0.5,0,0.3-0.1c0.5,0.1-0.1,0.1,0.3,0.2c0.2-0.1,0.7-0.2,1-0.3l-0.4-0.2l0.3,0c-0.3-0.2,0.2-0.1,0-0.3c0.2,0,0.4,0.1,0.6,0.1
	c-0.6,0.3,0.6,0.4,0.4,0.7c0.8,0.1,0.5-0.6,1.3-0.2c-0.1,0.1,0.2,0.3-0.2,0.2c0.5,0,0.3,0.3,0.9,0.2c-0.4-0.1,0.4-0.3-0.1-0.4
	c0,0.1-0.3,0.1-0.4,0c0.2-0.1,0-0.3,0.4-0.3c0.3,0,0.7,0,0.6,0.2c0,0.2-0.4,0-0.3,0.1c0.6,0.1,0.7-0.2,0.9,0.1
	c-0.4,0-0.5,0.1-0.5,0.2l0.4,0.1l-0.1-0.1c0.7-0.1,0.2,0.2,0.9,0.2l0.3-0.2c-0.2-0.2-1,0.1-0.8-0.2c0.4,0,0.6,0.1,1,0.1l-0.3-0.1
	c0.2,0,0.3-0.4,0.9-0.1c0.3,0.1,0.1,0.1,0.1,0.2c0.7,0,0.9,0.2,1.4,0.2c-0.1-0.2,0.8,0,0.3-0.2c-0.2,0.1-1.2,0.1-1.5-0.1
	c0.3-0.2-0.5,0-0.7-0.2c0.6,0,0.5-0.2,0.6-0.4c0.2,0,0.3,0.1,0.4,0.1c0.1,0.2-0.1,0.1-0.2,0.3c0.6,0,1.2,0.1,1.6,0.2
	c0.2-0.1,0.1-0.2-0.1-0.2c0.7,0.1,1.5,0.1,2.2,0c-0.5,0.2,0.8,0.1,0.5,0.3c-0.4,0-0.7,0.2-0.5,0.3c0.2,0,0-0.1,0.1-0.2
	c0.3,0.1,0.5-0.2,0.8,0c-0.7-0.1-0.1-0.3-0.2-0.5c0.5,0.1,0-0.1,0.5-0.1c0.5,0.1,1.1,0.2,1.6,0.3c0.7-0.2,1.7,0,2.3,0.1
	c0.3-0.1,0.1-0.3,0.5-0.3c0.4,0-0.3,0.2,0.3,0.1l-0.1,0c0.2,0.1,1.1-0.1,1.3,0.2l-0.2-0.2c0.1,0,0.2,0,0.3,0.1c0-0.1,0.1-0.1,0-0.2
	c0.4-0.1,0.8,0.1,1.2,0.1l-0.3,0.1c0.7,0.1,1.1,0,1.8,0.1l0-0.1l0.4,0.1c-0.1-0.1,0.3-0.2,0.5-0.1l-1-0.4c-0.3,0.1,0.3,0.2,0.1,0.3
	c-0.2,0.1-0.8,0-0.9-0.1c0.2,0,0.2,0,0.4,0.1c0.1-0.2-0.3-0.2-0.4-0.3c0.1,0,0.3,0,0.3,0c-0.2-0.1-0.5-0.1-0.9-0.2
	c0.3,0.1-0.2,0.1-0.1,0.2c0-0.2-0.4-0.2-0.9-0.2c-0.4,0.2-0.9-0.2-1.5-0.1c0.2,0.2,0.5,0.3,0.9,0.4c-0.4,0.1-0.4,0-0.8,0
	c-0.2-0.1-0.3-0.3-0.8-0.4l0,0.1c-0.4-0.1-0.4-0.3-1-0.2c-0.9,0-1.9,0-2.6,0l0,0.1c-0.4-0.3-1.3-0.1-1.9-0.3c-0.9,0.1-2-0.2-2.5,0
	c-1.6-0.1-3-0.2-4.7-0.2l0.3,0.2c-0.3-0.1-0.2,0.1-0.5,0.1c0.3-0.1-0.4-0.2-0.6-0.3c-0.7,0.1-1.7-0.1-2.3-0.2l0,0.1
	c-0.6-0.3-1.4-0.1-2.3-0.2c-0.1,0-0.3,0.1-0.5,0.1c-0.4-0.2-0.7-0.3-1.3-0.5c-0.5-0.1-1.2-0.1-1.7-0.1c-1.7-0.5-3.6-0.7-5.4-1.1
	l-0.2,0.1c-1.8-0.6-4-0.7-5.6-1l0.1,0.2c-0.5,0-1.3-0.1-1.2-0.2c-0.1,0-0.1,0-0.4,0.1c-0.6,0.1-0.8,1.4-0.6,1.3
	c0.1,0.3,0.6,0.7,0.7,0.7c0.3,0.2,0.6,0.3,0.8,0.3c0.5,0.1,0.5,0.3,0.9,0.5c1,0.3,1.3,0.5,2.2,0.8l-0.2-0.1
	c-0.1-0.1-0.1-0.2,0.2-0.1c0.3,0.2,1.3,0.3,0.8,0.5c1,0.2,2.3,0.8,3.3,0.8c-0.1,0.1,0.1,0.1,0.2,0.2c0.9,0.2,1.8,0.3,2.5,0.5
	c0.1,0-0.2-0.2,0.2-0.1c0.2,0.1,0,0.1,0.2,0.2c1.4,0.4,2.9,0.4,4.2,0.7c2.3,0.6,4.7,0.8,6.9,1.1l0-0.1c0.7,0.3,1.8,0,2.3,0.4
	c0.2,0,0.7,0.1,0.6-0.1c0.6,0.2,1.7,0.1,2.5,0.4l-0.2-0.1c0.9,0,1.6,0.3,2.5,0.3c-0.1,0-0.3-0.1-0.3-0.1c0.4-0.1,0.8,0.3,1,0.1
	c0.2,0,0.1,0.2,0,0.1c2,0.1,4.1,0.6,6.2,0.8c1.5,0,0.1-0.5,1.3-0.2c0.1,0,0.1,0.1,0.1,0.1c0.5,0.1,0.7-0.3,1-0.1
	c-0.1,0.2,0.2,0.1,0.2,0.2c1-0.1,1.1-0.2,1.9-0.1l-0.1-0.1c0.6-0.1,0.9,0.3,1.9-0.7c-0.1-2.1-0.9-1.4-1.1-2c-4.7-1.8-9-2.5-13.4-3.4
	c-4.4-0.8-8.7-1.7-13.2-2.3c-1.1,0.1-1.2,0-2.3-0.2c0,0,0.1,0.1,0,0.1c0-0.2-0.8-0.2-0.9-0.3l-1.3-0.2c-0.1,0-0.1,0-0.5,0l-0.5,0.1
	c0,0.1-0.3-0.1-0.7,1c0.1,1.4,0.8,1.2,0.8,1.3c-0.8-0.5,0.1,0.2,0,0.2c0.7,0.6,1.4,1.1,2.2,1.6c-0.2-0.2-0.3-0.4,0-0.2l0.2,0.3
	l0.1,0c0.2,0.1,0.4,0.3,0.1,0.3c4,2.3,8.3,3.2,12.5,4.1c1,0.1,2.5,0.4,3.6,0.6c0.8,0,1.7,0,2.5-0.1c0.4-0.1,0.8-0.1,1.3-0.2l0.6-0.1
	l0.2,0l0.1,0c-0.4,1.2,0.5-1.7,0.4-1.4l0,0l0,0l0,0l0,0l0,0l-0.3-0.2c-2.3-0.9-2.5-1-5.2-1.6C576,694.9,576.7,695.5,577.8,696.1z"/>
<path class="st7" d="M587.5,693.4c-0.1,0.1-0.5,0.1-0.2,0.3C587.3,693.5,587.5,693.5,587.5,693.4z"/>
<path class="st7" d="M577.3,693.9c0,0-0.1,0-0.2,0.1c0.1,0,0.2,0.1,0.3,0C577.3,694,577.4,693.9,577.3,693.9z"/>
<path class="st7" d="M574.7,693.9c0,0.1,0.6,0.2,0.9,0.2L574.7,693.9z"/>
<path class="st7" d="M572.3,694.2c-0.2,0.1-0.2,0.1,0.1,0.1C572.5,694.3,572.4,694.3,572.3,694.2z"/>
<path class="st7" d="M572.1,694c-0.2,0-0.3,0-0.4,0.1C571.7,694,572.2,694.2,572.1,694z"/>
<path class="st7" d="M566.9,694.1c-0.1,0-0.4-0.1-0.5,0C566.5,694.1,567,694.3,566.9,694.1z"/>
<path class="st7" d="M564.4,693.9c-0.1,0-0.1,0-0.2,0C564.1,693.9,564.2,693.9,564.4,693.9L564.4,693.9z"/>
<path class="st7" d="M573.7,696.1l-0.3-0.1l0,0.1L573.7,696.1z"/>
<path class="st7" d="M587.1,697c-0.2-0.1-0.2,0-0.2,0C587.1,697.1,586.9,696.9,587.1,697z"/>
<path class="st7" d="M577.1,694.4L577.1,694.4l0.1-0.2L577.1,694.4z"/>
<path class="st17" d="M576.6,629.2l9.1,1.7l-2.7,14.5l-9.1-1.7L576.6,629.2z"/>
<path class="st19" d="M562.2,680.8c-0.5,0.8-0.6,0.9-1,1.2l-3.8-1.9l1.9-3.8l3.6,2.5C562.9,678.8,562.8,679.8,562.2,680.8z"/>
<path class="st26" d="M557.6,687.4c1-1.3,3.6-5.4,3.6-5.4l-3.7-2.1c0,0-3.7,7.4-5.6,9c-1.5,1.3,0.2,2.5,0.2,2.5l1.8-0.2
	C553.8,691.3,555.9,689.5,557.6,687.4z"/>
<path class="st18" d="M551.9,690.4c-1.5,0.1-1.7-1.1-1.7-1.1s-0.9,0.3-1.9,0.2c-1.7-0.2-3.3,0.5-3.7,1.6c0.7,1.2,2.7,1.9,5.1,2.1
	c2.3,0.2,4.2-1.2,4.2-1.2l-0.4,1.7l1.9,0.2c0,0,0.6-2.9,0.6-3.7c0.1-0.9,0-0.8,0-0.8S554.9,690.3,551.9,690.4z"/>
<path class="st8" d="M549.5,689.5c0,0,1.2-0.1,2.1-1.3c0.7-0.9,0.9-1.3,2.1,0c0.9,1-0.7,2.3-1.2,2.7
	C550.2,692.5,549.5,689.5,549.5,689.5z"/>
<path d="M558.9,676.8c0,0,0.2,0.5,1.6,1.3c1.5,0.8,2.1,1,2.7,1.1l0.7-1c0,0-2-0.5-3.6-1.6c-0.6-0.4-1-0.8-1-0.8L558.9,676.8z"/>
<path class="st19" d="M584.8,681.5c-0.4-0.4-1.5-1.5-1.5-1.5s-4.6,0.3-4.4,0.8c0.3,0.5,0.5,1.1,1.1,1.8c0.6,0.7,4,3.4,4,3.4l2.5-1.9
	C586.5,684.1,585.9,682.8,584.8,681.5z"/>
<path class="st26" d="M591.8,691.8c0,0-2.1-3.5-3-5c-1.4-2.3-2.8-4-2.8-4l-3.6,1.8c0,0,5.8,6,6.2,8c0.4,1.9,1.6,2,1.6,2l2.3-1.5
	L591.8,691.8z"/>
<path d="M597.8,631.1c0,0,0.1,1.1,0.6,1.9c0.5,0.8,1.9,1.7,1.9,1.7s-2.8,0.7-4.2-1.1c-1.2-1.5-0.8-2.6-0.8-2.6l2.3-1.5L597.8,631.1z
	"/>
<path d="M582.7,663c2.7,11.4,2.6,11.4,2.8,13c0.3,2.2-0.5,3.8-3.5,4.5c-3,0.7-4.6,0.7-6.6-3.1c-2-3.8-2.5-6.1-4.2-3.8
	c-3.2,4.3-5.5,5.4-7.4,4.9c-2-0.5-5.9-2.2-5-5.1c0.9-2.9,5.6-12.8,7.9-13.4C569,659.2,582.7,663,582.7,663z"/>
<path class="st19" d="M591,665.6c0,0,1.2,5.1,0.3,5.5c-0.8,0.4-1.3-2.4-1.3-2.4s0.1,2.8-0.9,2.8c-1,0-0.3-2.9-0.3-2.9
	s-1.1,2.5-2,2.3c-0.9-0.2,0.5-2.7,0.5-2.7s-1.8,0.3-1.8-0.4c0.1-0.7,3.1-2.1,3.1-2.1L591,665.6z"/>
<path class="st19" d="M557.1,654.4c0,0-4,3.3-4.8,2.8c-0.8-0.6,1.6-2.3,1.6-2.3s-2.4,1.3-2.9,0.4c-0.5-0.9,2.4-1.6,2.4-1.6
	s-2.8,0.2-3-0.7c-0.2-0.9,2.7-0.8,2.7-0.8s-1.1-1.5-0.4-1.8c0.7-0.3,3.3,1.7,3.3,1.7L557.1,654.4z"/>
<path class="st18" d="M589.6,695c-1,1-2-0.5-2-0.5s-0.6,0.7-1.4,1.1c-1.5,0.8-2.6,1.3-2.3,2.4c1.2,0.6,3.7,1.1,5.4-0.2
	c1.8-1.3,2.7-3.2,2.7-3.2l0.9,1.4l1.7-1.2c0,0-1.5-2.8-2.1-3.3c-0.6-0.6-1.1-0.6-1.1-0.6S591.6,693.2,589.6,695z"/>
<path class="st8" d="M587.2,694.9c0,0,0.7-0.9,0.8-2c0.1-1.1,0.1-1.2,1.7-1.2c1.4,0,1.3,1.5,0.6,2.7
	C588.6,696.8,587.2,694.9,587.2,694.9z"/>
<path d="M579.4,681.6c0,0,1,0.3,2.4-0.1c0.9-0.2,2.5-1.1,2.5-1.1l-0.4-0.8c0,0-1,0.5-2.8,0.8c-0.7,0.1-2.2,0.1-2.2,0.1L579.4,681.6z
	"/>
<path class="st16" d="M588.3,636.3c0,0-3.2-0.8-5.3-0.2c-1.7,1.4-6.1,3.5-6.1,3.5s-0.2-3,0-7.2c-0.3-0.4-1.5,0.6-1.5,0.6
	s-4.6,5.4-6.8,13c-1.4,4.8-4.9,14-3.1,14.7c2.2,1.4,8.6,2.8,13.3,3.3c4.6,0.5,5,0.2,5.7-2.6c0.7-2.7,0.6-13.1,0.6-13.1
	s1.7,5.6,1.3,9c-0.4,3.4-1.2,7.9,0.2,8.3c1.2,0.4,5.5,1.4,5.8-0.3c0.5-3.2,0.4-9.2-0.5-14.5C590.8,642.8,588.3,636.3,588.3,636.3z"
	/>
<path class="st16" d="M575.5,633.1c0,0-8,7.5-10.7,10.1c-4.7,4.5-9.3,5.4-9.6,7c-0.4,2,2.1,5.3,3,5.1c2.4-0.4,10.2-7.3,12.9-13
	C572.7,638.7,575.5,633.1,575.5,633.1z"/>
<path class="st27" d="M576.8,646.6l-3.2-6.3l3.3-0.6l1.9,2.7c0,0-6.7,2-7.5,2.1"/>
<path d="M578.5,642.4c-0.1,0.4,0.2,0.7,0.5,0.8c0.4,0.1,0.7-0.2,0.8-0.5c0.1-0.4-0.2-0.7-0.5-0.8
	C578.9,641.8,578.6,642.1,578.5,642.4z"/>
<path d="M573.9,640.3c-0.1,0.4-0.4,0.6-0.8,0.5c-0.4-0.1-0.6-0.4-0.5-0.8c0.1-0.4,0.4-0.6,0.8-0.6
	C573.7,639.6,574,639.9,573.9,640.3z"/>
<path d="M576.3,646.8c-0.1,0.4,0.2,0.7,0.6,0.8c0.4,0.1,0.7-0.2,0.8-0.6c0.1-0.4-0.2-0.7-0.6-0.8
	C576.8,646.1,576.4,646.4,576.3,646.8z"/>
<path d="M572,644.6c-0.1,0.4-0.4,0.6-0.8,0.5c-0.4-0.1-0.6-0.4-0.5-0.8c0.1-0.4,0.4-0.6,0.8-0.5C571.8,643.9,572,644.3,572,644.6z"
	/>
<path class="st19" d="M602.2,620.2c0,0-3.4,9-7.8,13.4c-4.2,4.2-11.8,3.8-16.8,1.1c-5-2.7-7.4-10.4-5.8-15.9
	c2.1-7.4,8.4-14,8.8-14.4c2.3-1.7,9.9,3.4,14.4,6.8C599.5,614.6,602.2,620.2,602.2,620.2z"/>
<path class="st25" d="M579.1,604.6c-3.9-2.2-1.9-10.3,3.8-10.2c5.3,0.1,11,3.9,15,7.2c2.2,1.8,13.7,5.9,15.1,12.6
	c1.9,9.6-11.3,10.9-12,6.1c0,0-6.3-8.1-13.6-11.9C583.3,606.4,579.1,604.6,579.1,604.6z"/>
<path class="st7" d="M596.3,615.1c0,0,4-4.2,6.1-5.4c0.7-0.4,2.3-1.1,2.3-1.1l-0.1,3.1l2.8-4.2c0,0,0.8-0.4,4.6-0.6l3.8-0.1
	l-0.9,3.2l3.5-3.5c0,0,2.4,0.4,5.3,1.5c2.9,1,8.2,2.9,8.2,2.9s-5.8,1.6-7.8,2.6s-3.2,1.2-3.2,1.2l-3.4-3.4l2.2,3.8l-7.8,0.4l-3-3.4
	l1.5,3.4c0,0-7.3,0.3-8.7,0C600.2,615.3,596.3,615.1,596.3,615.1z"/>
<path class="st26" d="M578.5,606.9c0,0,6,2,12,6.2c5.4,3.8,8.7,7.7,10.9,10.1c1.6,0.4,1.3-2.5,1.3-2.5s-3.8-5.1-9.9-9.2
	c-7.3-4.9-9.5-5.6-13.2-6.7C577.6,605.3,578.5,606.9,578.5,606.9z"/>
<path class="st28" d="M597.6,614.6c0,0,7.3-2.6,13.4-3.5c8.8-1.2,16.6-0.3,16.6-0.3"/>
<path class="st28" d="M609.1,610.7l1.9-2.8"/>
<path class="st28" d="M615.7,614.3l-1.9-2.4"/>
<path class="st28" d="M607,615.1l-1.5-2"/>
<path class="st21" d="M582.4,619.2c0,0-3.2,0.5-4.1,0.4c-0.9-0.1-1.7,0.2-0.2,1.7c1.5,1.5,2.8,1.7,2.8,1.7"/>
<path class="st21" d="M583.6,627.9c0,0-0.7,1.9-2.6,2.1c-1.9,0.2-3-1.6-3-1.6"/>
<path class="st22" d="M590.9,615.9c2,0.7,2.8,2.2,2.2,4.2c-0.6,2-2.1,3.2-4,2.6c-1.9-0.5-2.9-2.4-2.3-4.4
	C587.5,616.4,589.1,615.3,590.9,615.9z"/>
<path class="st23" d="M589.1,617.8c0.4,0.1,0.5,0.4,0.4,0.8c-0.1,0.4-0.4,0.6-0.8,0.5c-0.4-0.1-0.6-0.4-0.5-0.8
	C588.3,617.9,588.7,617.7,589.1,617.8z"/>
<path class="st22" d="M579.2,610.6c1.7,0.5,2.2,1.9,1.7,3.7c-0.5,1.8-1.9,2.8-3.6,2.4c-1.7-0.5-2.6-2.2-2-4
	C575.7,610.9,577.5,610.1,579.2,610.6z"/>
<path class="st23" d="M577.2,612.4c0.3,0.1,0.4,0.4,0.3,0.7c-0.1,0.3-0.4,0.5-0.7,0.4c-0.3-0.1-0.5-0.4-0.4-0.8
	C576.5,612.4,576.8,612.3,577.2,612.4z"/>
<path d="M602.2,624.8c0.9,0.9,3.9,2.1,3.9,2.1s-1.1,1.1-2.9,0.8c-0.6-0.1-1.3-0.3-1.3-0.3s0.5,1,1.7,1.4c1.1,0.4,2.2,0.5,2.2,0.5
	c-0.2,0.6-3.5,2.5-5.4,0.3c0.4,1.8,3.3,2.9,3.3,2.9s-4.5,1.2-6.2-1.1c-0.4-0.5-0.6-1-0.6-1s2.4-3.6,2.6-4.4c0.2-0.7,1.8-2.8,1.8-2.8
	S601.2,623.7,602.2,624.8z"/>
<path class="st19" d="M599.1,624.6c0,0,2.8,1,2.3,2.8c-0.5,1.6-2,1.6-3.1,1.3c-1-0.3-1.2-0.7-1.2-0.7L599.1,624.6z"/>
<path d="M601.4,623.9c0,0-0.5,0.6,0.1,1.4c0.5,0.8,3.5,2.2,3.5,2.2s-2.7,1-4.5-1.2c-1.2-1.5-2.1-6.3-2.1-6.3l3,3.3L601.4,623.9z"/>
<path d="M414.5,654.4c-1.2,6.7-0.5,5.5-2.1,12c-1.2,5.1-1.3,8.5-1.3,8.5l4.6,1.3c0,0,4.9-19.6,8.6-18s8.1,13.1,10.5,15.1
	c2.4,2,7.5,5.4,7.5,5.4l3.1-3.5c0,0-6.5-4.3-7-7.7c-0.5-3.4-0.9-10.8-0.9-10.8l-14.4-12.3L414.5,654.4z"/>
<path class="st19" d="M447,644.6c0,0,2.2,5.9,1.4,6.4s-1.6-2.2-1.6-2.2s0.4,2.7-0.6,2.9c-1,0.1-0.7-2.8-0.7-2.8s-0.7,2.7-1.7,2.6
	c-0.9-0.1,0.2-2.8,0.2-2.8s-1.8,0.5-1.8-0.2c0-0.7,2.3-3.2,2.3-3.2L447,644.6z"/>
<path class="st19" d="M407.6,644c0,0-3.8,5-4.7,4.6c-0.9-0.4,1-2.5,1-2.5s-2.1,1.8-2.7,1.1c-0.6-0.8,2-2.1,2-2.1s-2.6,0.8-3.1,0
	c-0.4-0.8,2.5-1.4,2.5-1.4s-1.4-1.2-0.8-1.6c0.6-0.4,4,0.2,4,0.2L407.6,644z"/>
<path class="st18" d="M411.2,674.7l-0.9,6.7c0,0-6-2.3-7.1-1.6c-1.1,0.6-2.2,2-1.8,2.6c0.4,0.6,3.5,2.7,8.3,3.6
	c3.1,0.6,4.2,0.1,4.2,0.1l2-10.5L411.2,674.7z"/>
<path class="st18" d="M446.5,676.1l6.8,5.7c0,0-1.2,4.4-4.4,5c-3.2,0.6-6.2,0.1-6.2,0.1s-0.5-2.8,1.7-3.4c1.3-0.4,2.2-0.7,3.1-1.1
	c0-0.2-3.8-2.7-3.8-2.7L446.5,676.1z"/>
<path class="st25" d="M444.4,631.5c3,5.1,4.1,13.9,4.1,13.9l-6,0.6c0,0-1.1-8.5-2.7-11c-1.7-2.6-5.9-7.4-5.9-7.4s1.4,4.5,1.5,8.5
	c0.1,4,1.2,9.7,1.2,9.7l2.4,11c0,0-10.1-0.1-13-2.9c-2.9-2.9-4.1-7.5-4.1-7.5s0.6,6.2-2.5,7.1c-3.1,0.9-6.4,1.5-6.4,1.5
	s4-30.8,4.1-33.8c0.1-2.9-0.1-4.7,4.2-4.8c4.3-0.1,8.6-0.2,11.8,1.7C436.3,619.9,442.1,627.6,444.4,631.5z"/>
<path class="st25" d="M415.4,620.2c-1.5,4-1.4,8.8-3,12c-1.6,3.1-8.4,9-8.4,9l2.9,4.3c0,0,4.7-3.3,6.5-5.8c1.8-2.4,3-12.9,3-12.9
	l1.5-9.5C417.9,617.3,416.5,617.2,415.4,620.2z"/>
<path class="st24" d="M432.8,617.2c1.3-0.1,4.1,0.5,5,1.1c0.9,0.6,0.8,1.7-0.5,2.1c-1.3,0.3-2.4,0.2-3.6-0.4
	c-1.2-0.6-2.5-1.8-2.4-2.4C431.6,617.1,432.5,617.3,432.8,617.2z"/>
<path class="st24" d="M420.5,616c-1.2-0.4-4.1-0.3-5.1,0.1c-1,0.4-1.1,1.5,0,2.1c1.2,0.6,2.3,0.6,3.6,0.3c1.3-0.3,3.4-1.1,3.3-1.7
	C422.3,616.3,420.8,616.1,420.5,616z"/>
<path class="st24" d="M438.7,620.2c0,0,4,4.3,2.9,4.2c-1-0.1-4.1-3.7-4.1-3.7s3.3,5.5,2.1,4.9c-1.2-0.6-3.8-4.6-3.8-4.6
	s2.1,5.1,1.3,4.5c-0.9-0.6-2.9-5.2-2.9-5.2s2.9,0,3.3-0.5C437.9,619.2,438.7,620.2,438.7,620.2z"/>
<path class="st24" d="M414.3,617.5c0,0-3.6,4.6-2.6,4.4c1-0.2,3.9-4,3.9-4s-2.9,5.7-1.7,5c1.2-0.7,3.5-4.8,3.5-4.8s-1.8,5.3-1,4.6
	c0.8-0.7,2.5-5.4,2.5-5.4s-2.9,0.2-3.3-0.3C415,616.5,414.3,617.5,414.3,617.5z"/>
<path class="st13" d="M436.5,642.1c0,0-7.5,0.7-10.4,0.5c-7.5-0.6-11.6-2.1-11.6-2.1l-0.7,2.7c0,0,5.5,1.7,10.6,1.9
	c7.8,0.3,12.5-0.5,12.5-0.5L436.5,642.1z"/>
<path class="st24" d="M419.3,644.3c0,0.6,0.4,1.1,1,1.1l2.7,0.1c0.6,0,1.1-0.4,1.1-1l0-1.5c0-0.6-0.4-1.1-1-1.1l-2.7-0.1
	c-0.6,0-1.1,0.4-1.1,1L419.3,644.3z"/>
<path class="st19" d="M442.3,593.5c0.4,0,0.6,10.4-0.6,13.9c-1.5,4.2-3.4,9.6-11.8,12.1c-5.8,1.7-12.8-2.3-15.2-6.2
	c-2.2-3.5-3.2-9-2.9-13.9c0.4-4.8,3.4-9.7,3.4-9.7s8.9-3.4,9.2-3.4c0.3,0,8,0.9,8.6,0.9C433.7,587.2,442.3,593.5,442.3,593.5z"/>
<path class="st11" d="M435.1,589c-6.6,5-10.5,6.2-9.7,3.4c0.5-1.8,1-3.6,1-3.6s-5.9,4.6-8.1,4.9c-2.2,0.3-0.4-3.4-0.4-3.4
	s-4.7,5.2-5.9,4.2c-1.1-1,4.1-7.9,5.8-8.5c1.7-0.6,10.3-3,13.8-1.7c3.5,1.3,7.7,2.6,8.8,4c1.1,1.4,7.4,9.7,5.8,10.4
	c-1.6,0.7-4.6-5.2-4.6-5.2s0.4,5.5-2.6,2.7C435.9,593.4,435.1,589,435.1,589z"/>
<path class="st24" d="M442,590.6l3.1-6.7l-3.3-1.4c0,0-1.8,3.2-3.6,1.8c-1.8-1.3,0.2-5.8,0.2-5.8s-3.6,4.6-5.4,4.1
	c-1.8-0.6-0.6-5-0.6-5l-3.8-0.3c0,0,0.3,4.4-2.1,4.3c-1.3-0.1-1.7-6.1-1.7-6.1s-1.2,6.1-3,6c-2.5-0.1-3-2.5-3-2.5l-3.4,1.1l1.7,6.3
	c0,0,6.9-1.9,14.4-0.6C437.8,586.8,442,590.6,442,590.6z"/>
<path class="st29" d="M436.7,578.1c0,1.1,0.8,2,2,2c1.1,0,2.1-0.8,2.1-1.9c0-1.1-0.8-2-2-2C437.7,576.2,436.7,577,436.7,578.1z"/>
<path class="st29" d="M422.7,575.2c0,1.1,0.9,2,2,2c1.1,0,2.1-0.8,2.1-1.9c0-1.1-0.8-2-2-2C423.7,573.3,422.8,574.2,422.7,575.2z"/>
<path class="st19" d="M412.5,596.5c0,0-2.9-0.6-3.1,1.4c-0.2,2,0.9,2.9,2,3.2c1.1,0.3,1.7,0.1,1.7,0.1l0.8-3.7L412.5,596.5z"/>
<path class="st21" d="M430.1,600.9c0,0,3.9,6.8,3.7,7.6c-0.2,0.8-5.1-0.2-5.1-0.2"/>
<path d="M430.3,612.9c0,0-1.8,0.2-3.4-0.6c-1.6-0.8-2.3-3.7-2.3-3.7s-2.3,5.4,0.4,6.5C427.7,616.2,430.3,612.9,430.3,612.9z"/>
<path class="st22" d="M423.2,595.8c-2.1-0.1-3.4,1.1-3.6,3.1c-0.2,2.1,0.8,3.7,2.7,3.9c2,0.2,3.5-1.2,3.7-3.3
	C426.3,597.5,425.2,595.9,423.2,595.8z"/>
<path class="st23" d="M424.3,598.3c-0.4,0-0.6,0.2-0.6,0.6c0,0.4,0.2,0.7,0.5,0.7c0.4,0,0.7-0.2,0.7-0.6
	C424.9,598.6,424.6,598.3,424.3,598.3z"/>
<path class="st22" d="M438.5,597.6c-1.7-0.6-2.9,0.3-3.6,2c-0.6,1.8-0.1,3.4,1.5,4c1.7,0.6,3.4-0.3,4-2
	C441.1,599.8,440.1,598.2,438.5,597.6z"/>
<path class="st23" d="M439,599.8c-0.3-0.1-0.6,0-0.7,0.4c-0.1,0.3,0,0.6,0.3,0.8c0.3,0.1,0.7,0,0.8-0.4
	C439.5,600.2,439.3,599.9,439,599.8z"/>
<path class="st18" d="M440.4,586.8c0,0.5,0.4,0.9,0.9,0.9c0.5,0,0.9-0.4,0.9-0.9c0-0.5-0.4-0.9-0.9-0.9
	C440.9,585.9,440.4,586.3,440.4,586.8z"/>
<path class="st18" d="M429.4,582.5c0,0.5,0.4,0.9,0.9,0.9c0.5,0,0.9-0.4,0.9-0.9c0-0.5-0.4-0.9-0.9-0.9
	C429.8,581.6,429.4,582,429.4,582.5z"/>
<path class="st18" d="M418.1,583.4c0,0.5,0.4,0.9,0.9,0.9c0.5,0,0.9-0.4,0.9-0.9s-0.4-0.9-0.9-0.9
	C418.5,582.6,418.1,582.9,418.1,583.4z"/>
<path class="st30" d="M429,624.1c0,0-3.1,0.2-5.6-0.1c-2.4-0.3-4.5-1.1-4.5-1.1"/>
<path d="M428.1,624.1c0,0.6,0.5,1.2,1.2,1.2c0.7,0,1.2-0.5,1.2-1.2c0-0.6-0.5-1.2-1.2-1.2C428.7,622.9,428.1,623.5,428.1,624.1z"/>
<path d="M417.7,623.3c0,0.6,0.5,1.2,1.2,1.2c0.7,0,1.2-0.5,1.2-1.2c0-0.6-0.5-1.2-1.2-1.2C418.2,622.1,417.7,622.6,417.7,623.3z"/>
<path class="st30" d="M428.8,631.5c0,0-3.2,0.4-5.6-0.1c-2.4-0.5-4.4-1.4-4.4-1.4"/>
<path d="M428,631.4c0,0.6,0.5,1.2,1.1,1.2c0.7,0,1.2-0.5,1.2-1.1c0-0.6-0.5-1.2-1.1-1.2C428.6,630.3,428,630.8,428,631.4z"/>
<path d="M417.6,630c0,0.6,0.5,1.2,1.1,1.2c0.7,0,1.2-0.5,1.2-1.1c0-0.6-0.5-1.2-1.1-1.2C418.2,628.9,417.7,629.4,417.6,630z"/>
<path class="st30" d="M428.3,638.4c0,0-3.2,0.4-5.6,0c-2.4-0.4-4.4-1.2-4.4-1.2"/>
<path d="M427.5,638.3c0,0.6,0.5,1.2,1.2,1.2c0.7,0,1.2-0.5,1.2-1.2c0-0.6-0.5-1.2-1.2-1.2C428.1,637.2,427.5,637.7,427.5,638.3z"/>
<path d="M417.1,637.1c0,0.7,0.5,1.2,1.2,1.2c0.7,0,1.2-0.5,1.2-1.1c0-0.6-0.5-1.2-1.2-1.2C417.6,636,417.1,636.5,417.1,637.1z"/>
<path class="st8" d="M416.7,674.9l-0.6,2l-5.6-1.2l0.4-2L416.7,674.9z"/>
<path class="st8" d="M441.9,678.9l3.7-3.8l1.5,1.3l-3.6,3.8L441.9,678.9z"/>
<path class="st31" d="M117,0.8c84.5-2.8,361,1.8,410.3,7c47.4,5,38.4,99.3-6.2,98.6c-71.4-1.1-345.9-3.3-394.6-2.2
	c-81.4-5.6-86.6-15.2-85.4-48C43.2-4.1,60.4,2.7,117,0.8z"/>
<path class="st32" d="M79.4,73.8c-0.1-0.1-0.3-0.2-0.4-0.3c-0.1-0.1-0.2-0.3-0.2-0.4c-0.2-1.6-0.2-3.3,0-4.9
	c0.2-1.7,0.3-3.3,0.3-4.9c0-2-0.1-4-0.2-6.1c-0.1-2-0.3-4.1-0.4-6.1c-0.1-2-0.3-4.1-0.3-6.1c-0.1-2-0.1-4,0-6c0-0.2,0-0.4,0.2-0.6
	c0.1-0.2,0.3-0.4,0.5-0.4c0.3,0,0.7,0,1.2,0c0.5,0.1,0.8,0.1,1.1,0c0.1,0,0.4,0,0.8,0c0.4,0,0.8,0,1.2,0c0.4,0,0.8,0,1.2,0
	c0.4,0,0.6,0,0.8,0c0,0,0.2,0,0.4,0c0.2,0,0.5-0.1,0.8-0.1c0.3,0,0.5-0.1,0.7-0.1c0.2,0,0.4,0,0.4,0c0.2,0,0.5,0,1,0
	c0.5,0,0.9,0,1.4,0c0.5,0,0.9,0.1,1.2,0.2c0.4,0.1,0.6,0.3,0.6,0.6l0.3,4.2c0,0.3-0.1,0.5-0.3,0.7c-0.3,0.2-0.5,0.3-0.8,0.3
	c-0.7,0.1-1.4,0-2-0.1c-0.7-0.1-1.4-0.1-2.1-0.1c-0.2,0-0.4,0-0.7,0c-0.3,0-0.6,0.1-0.8,0.1c-0.3,0.1-0.5,0.2-0.7,0.3
	c-0.2,0.1-0.3,0.3-0.3,0.6c0.1,1.4,0.1,2.8,0,4.2c-0.1,1.4-0.1,2.9,0,4.2c0,0.2,0,0.4,0,0.7c0,0.3,0.1,0.5,0.3,0.7
	c0.1,0.1,0.3,0.2,0.6,0.2c0.3,0,0.6,0.1,0.9,0.1c0.3,0,0.6,0,0.8,0c0.3,0,0.5,0,0.6,0c0.1,0,0.4,0,0.8,0s0.8-0.1,1.2-0.1
	c0.4,0,0.8-0.1,1.2-0.1c0.4,0,0.6,0,0.8,0c0.1,0,0.2,0.1,0.3,0.2c0.1,0.1,0.1,0.2,0.1,0.3l0.3,3.3c0,0.3,0,0.6-0.2,0.9
	c-0.2,0.3-0.4,0.5-0.7,0.5c-0.7,0.1-1.5,0.1-2.2,0c-0.7-0.1-1.5-0.1-2.3-0.1c-0.5,0.1-0.8,0.2-1,0.4c-0.2,0.2-0.3,0.4-0.4,0.7
	c-0.1,0.3-0.1,0.6-0.1,0.9v1.1c0,0.1,0,0.3,0,0.7c0,0.4-0.1,0.8-0.1,1.2c0,0.4-0.1,0.8-0.1,1.2c0,0.4-0.1,0.6-0.1,0.7
	c0.1,0,0.1,0.1,0,0.3c0,0.2,0,0.3,0,0.4c0,0.2,0,0.5,0.1,0.7c0.1,0.3,0.3,0.4,0.6,0.4h1.2h1.8h1.8h1.1c0.5,0,1,0,1.5,0.2
	c0.4,0.1,0.7,0.5,0.9,1.1c0,0.1,0,0.2,0.1,0.5c0,0.3,0.1,0.5,0.2,0.8c0,0.3,0.1,0.6,0.2,1c0,0.3,0.1,0.6,0.1,0.7v0.3
	c0.1,0.5,0,0.7-0.3,0.8c-0.3,0.1-0.6,0.1-1,0.2c-1.4,0.2-2.8,0.2-4.2,0.1c-1.4-0.1-2.8-0.1-4.2-0.2c-0.1,0-0.3,0-0.8,0
	c-0.4,0-0.6,0.1-0.7,0.1c-0.1,0-0.4,0-0.7,0c-0.3,0-0.7,0-1.1,0.1c-0.4,0-0.8,0-1.1,0.1C79.7,73.8,79.5,73.8,79.4,73.8z"/>
<path class="st32" d="M101.4,71c-0.2-1.9-0.3-3.8-0.2-5.8c0.1-2,0.1-3.9,0-5.8c-0.1-1.8-0.2-3.6-0.3-5.3c-0.1-1.7-0.2-3.5-0.2-5.3
	c0-1.9,0-3.8,0-5.5c0-1.7-0.1-3.5-0.4-5.3c0.1-0.5,0.3-0.9,0.8-1.2c0.5-0.3,1-0.5,1.4-0.5c0.6-0.1,1.1-0.1,1.8,0
	c0.7,0.1,1.2,0.3,1.6,0.8c0,0.1,0,0.2,0,0.4c0,0.2,0,0.3,0,0.4c0.1,1.2,0.1,2.5,0,3.8c-0.2,1.4-0.2,2.6-0.1,3.8c0,0.1,0,0.6,0.1,1.5
	c0,0.9,0.1,1.9,0.2,3c0.1,1.1,0.1,2.3,0.2,3.5c0.1,1.2,0.1,2.1,0.2,2.8c0.1,1.6,0.2,3.2,0.2,4.7c0,1.5,0.1,3.1,0.3,4.7
	c0.1,0.6,0.4,1,0.8,1.1c0.5,0.1,0.9,0.1,1.5,0.1c0.5,0,1,0,1.5,0c0.5,0,0.7,0.3,0.8,0.8c0,1.1,0,1.9-0.1,2.6c0,0.7-0.1,1.3-0.2,1.8
	c-0.1,0.5-0.3,0.8-0.5,0.8c0,0-0.1,0-0.2,0h-0.2c-1.3-0.1-2.6-0.1-3.9-0.2c-1.4,0-2.7-0.1-4-0.3c-0.4,0-0.7-0.2-0.8-0.4
	C101.5,71.9,101.4,71.5,101.4,71z"/>
<path class="st32" d="M140.3,69.4c0-0.1,0-0.2-0.1-0.5c-0.1-0.2-0.2-0.5-0.3-0.8c-0.1-0.3-0.2-0.6-0.3-0.8c-0.1-0.3-0.2-0.4-0.2-0.6
	V65v-1.7c0-0.2,0-0.6,0-1.3c0-0.7,0-1.4,0-2.2c0-0.8,0-1.5,0-2.2c0-0.7,0-1.1,0-1.3v-3.1c0-0.2,0.1-0.6,0.1-1.1c0-0.5,0-1.1,0.1-1.6
	s0-1.1,0.1-1.5c0-0.5,0-0.8,0.1-1c0-0.1,0-0.3,0-0.6c0-0.4,0.1-0.6,0.2-0.7c0.1-0.6,0.2-1.2,0.2-1.8c0-0.6,0.1-1.2,0.3-1.8
	c0.2-0.5,0.5-1.2,1-1.9c0.4-0.7,1-1.4,1.6-2.1c0.6-0.7,1.3-1.2,2-1.7c0.7-0.5,1.5-0.7,2.3-0.7c0.6,0,1.1,0,1.4,0
	c0.3,0,0.6,0.1,0.9,0.2c0.3,0.1,0.5,0.3,0.7,0.5c0.2,0.2,0.5,0.5,0.8,0.9c0,0.1,0,0.1,0.1,0.2l0.1,0.1v4.6l-0.4,0.3
	c-1.5,0.1-2.7,0.4-3.6,1c-0.9,0.6-1.5,1.5-1.8,2.7c0,0.3-0.1,0.7-0.1,1.3c0,0.6-0.1,1.3-0.2,2c-0.1,0.7-0.1,1.4-0.2,2
	c-0.1,0.6-0.1,1.1-0.1,1.3v2c0,1.3,0,2.5,0,3.6c0,1.1,0.1,2.3,0.1,3.7c0.1,1,0.3,1.8,0.6,2.4c0.3,0.6,0.7,1.1,1.2,1.4
	c0.5,0.3,1,0.6,1.5,0.8c0.5,0.2,1,0.3,1.5,0.5c0.5,0.1,0.9,0.3,1.2,0.4c0.3,0.2,0.6,0.4,0.6,0.6v1.3c0,0.3,0,0.6,0,1
	c0,0.4,0,0.8,0,1.2c0,0.4-0.2,0.7-0.3,1c-0.2,0.3-0.5,0.5-0.9,0.6h-1.4c-2,0-3.8-0.3-5.4-1.1C142.2,72.2,141,71.1,140.3,69.4z"/>
<path class="st32" d="M170.6,73.6c-0.2-0.1-0.3-0.2-0.5-0.3c-0.2-0.2-0.3-0.3-0.3-0.5l-1.2-10.7c0-0.1-0.1-0.3-0.2-0.3
	c-0.1-0.1-0.2-0.1-0.3-0.1l-5.8,0.6l1,8.8c0.1,0.5,0.2,1,0.5,1.5c0.2,0.5,0.4,0.9,0.5,1.4c0,0.2,0,0.3,0,0.4c-0.1,0-0.2,0.1-0.5,0.1
	c-0.1,0-0.2,0-0.3,0c-0.1,0-0.2,0-0.2,0h-0.6c-0.3,0-0.6,0-0.9,0c-0.3,0-0.6,0-0.8,0c-0.3,0-0.4,0-0.5,0c-0.6,0-1.1-0.1-1.5-0.2
	c-0.4-0.1-0.7-0.3-0.8-0.6c-0.2-0.3-0.3-0.6-0.4-1c-0.1-0.4-0.2-0.8-0.2-1.3c-0.2-1.9-0.3-3.7-0.4-5.5c-0.1-1.8-0.2-3.7-0.3-5.6
	c0,0,0-0.2,0-0.6c0-0.3,0-0.7-0.1-1.2c0-0.4-0.1-0.9-0.1-1.3c0-0.4-0.1-0.8-0.1-1c-0.1-1.3,0-2.5,0.2-3.5c0.2-1.1,0.4-2.2,0.6-3.5
	c-0.2-0.6-0.2-1.2,0.1-1.8c0.3-0.6,0.5-1.2,0.7-1.7c0.1-0.3,0.1-0.5,0.1-0.8c0-0.2,0.1-0.5,0.2-0.8c0,0,0-0.1,0-0.2
	c0-0.1,0.1-0.1,0.1-0.1c0.4-0.7,0.7-1.4,1-2c0.3-0.7,0.6-1.4,1.1-2c0.3-0.4,0.7-0.8,1.1-1.2c0.4-0.4,0.9-0.8,1.4-1.2
	c0.5-0.4,1-0.7,1.6-0.9c0.6-0.2,1.1-0.4,1.6-0.5c1.5-0.1,2.7,0.1,3.5,0.6c0.8,0.6,1.5,1.3,2,2.2c0.5,0.9,0.9,1.8,1.1,2.9
	c0.3,1.1,0.6,2,0.9,3c0,0.1,0,0.3,0.1,0.6c0,0.3,0.1,0.6,0.1,0.8c0,0.3,0.1,0.6,0.1,0.8c0,0.3,0.1,0.4,0.1,0.5
	c0.2,2.2,0.4,4.4,0.4,6.7c0,2.2,0.1,4.5,0.2,6.7c0,0.6,0,1.2-0.1,1.8c-0.1,0.6-0.1,1.2-0.1,1.8c0,0.1,0,0.3,0,0.5
	c0,0.3,0.1,0.6,0.1,0.9c0,0.3,0.1,0.6,0.1,0.9c0.1,0.3,0.1,0.5,0.1,0.5V69c0,0.1,0,0.3,0,0.5c0,0.3,0,0.6,0,0.9c0,0.3,0,0.6,0,0.9
	c0,0.3,0,0.5,0,0.6c0,0.2,0,0.5-0.1,0.9c-0.1,0.4-0.3,0.6-0.7,0.7h-0.1c0,0-0.1,0-0.3,0c-0.2,0-0.3,0-0.3,0c-0.1,0-0.3,0-0.6,0
	c-0.3,0-0.6,0-0.9,0s-0.6,0-0.9,0C170.9,73.6,170.7,73.6,170.6,73.6z M162.4,55.4c0,0.4,0.3,0.7,0.7,0.8c0.4,0.2,0.9,0.3,1.5,0.3
	c0.6,0,1.1,0.1,1.7,0c0.6,0,1,0,1.3-0.1c0.1,0,0.2,0,0.4,0c0.2,0,0.3,0,0.4,0c0.1-0.1,0.1-0.2,0.2-0.3c0-0.1,0.1-0.2,0.1-0.3
	c0-0.2,0-0.5,0-1c0-0.5-0.1-0.9-0.1-1.5c0-0.5,0-1,0-1.5c0-0.5,0-0.8,0-1c0-0.1,0-0.2,0-0.5v-0.5l-0.5-4.9c0-0.2-0.1-0.5-0.3-0.8
	c-0.1-0.3-0.3-0.6-0.5-0.8c-0.2-0.3-0.5-0.5-0.7-0.6c-0.3-0.2-0.6-0.2-0.9-0.2c-0.3,0-0.5,0.1-0.8,0.3c-1.1,1.1-1.8,2.3-2.1,3.6
	c-0.3,1.2-0.4,2.6-0.5,4.1c0,0.8,0,1.6,0,2.4C162.3,53.8,162.3,54.6,162.4,55.4z"/>
<path class="st32" d="M178.5,65.8c0.2-0.6,0.7-1.1,1.3-1.2c0.6-0.2,1.4-0.2,2.2-0.2c0.8,0.1,1.8,0.2,2.9,0.5
	c1.1,0.2,2.2,0.5,3.3,0.7c0.5,0,0.9-0.2,1.2-0.3c0.3-0.2,0.7-0.5,1-0.8c0.3-0.3,0.6-0.7,0.8-1.1c0.3-0.4,0.6-0.8,0.8-1.2
	c0,0,0.1-0.1,0.1-0.2c0-0.1,0-0.2,0-0.2l-0.2-3c-0.1,0-0.3-0.2-0.6-0.5c-0.3-0.3-0.6-0.5-0.8-0.7c-0.1-0.1-0.2-0.2-0.4-0.3
	c-0.2-0.1-0.3-0.2-0.4-0.2c-1.2-0.5-2.3-0.9-3.3-1.2c-1-0.3-2-0.7-2.9-1.1c-0.9-0.4-1.7-1-2.4-1.7c-0.7-0.7-1.4-1.8-1.9-3.1
	c0-0.1,0-0.3,0-0.5s0-0.4-0.1-0.6c0-0.2-0.1-0.4-0.1-0.6c0-0.2,0-0.3,0-0.4c0-0.5-0.1-1-0.1-1.5c0-0.6,0-1,0.2-1.5
	c0-0.1,0.1-0.4,0.2-0.7c0.1-0.3,0.2-0.7,0.3-1.1c0.1-0.4,0.3-0.7,0.4-1.1c0.1-0.3,0.2-0.6,0.2-0.7V41c0.2-0.3,0.4-0.5,0.6-0.7
	c0.2-0.2,0.3-0.3,0.5-0.5c0.2-0.2,0.3-0.3,0.4-0.4c1.1-1.2,2.2-2.2,3.3-2.8c1.1-0.6,2.4-1,4-1.2c0.4,0,1.1,0,1.9,0.2
	c0.8,0.1,1.7,0.3,2.5,0.6c0.8,0.3,1.6,0.6,2.2,1c0.6,0.4,1,0.9,1,1.4c0,0.3,0,0.7,0,1.2c-0.1,0.5-0.2,1-0.3,1.5
	c-0.2,0.5-0.3,0.9-0.6,1.3c-0.3,0.4-0.6,0.6-0.9,0.6c-0.9,0.1-1.7,0.1-2.6,0c-0.9-0.1-1.7-0.1-2.6,0c-0.2,0-0.5,0-1,0.1
	c-0.5,0.1-0.9,0.1-1,0.1c-0.1,0.1-0.3,0.1-0.5,0.2c-0.2,0.1-0.4,0.2-0.7,0.3c-0.2,0.1-0.4,0.3-0.6,0.4c-0.2,0.1-0.2,0.3-0.2,0.4
	l0.3,3c0,0.2,0.1,0.3,0.3,0.5c0.2,0.2,0.5,0.3,0.7,0.5c0.3,0.2,0.5,0.3,0.8,0.4c0.3,0.1,0.5,0.2,0.6,0.2c1.4,0.6,2.6,1.2,3.7,1.8
	c1.1,0.6,2.1,1.2,2.9,2c0.8,0.8,1.4,1.7,1.9,2.8c0.5,1.1,0.8,2.4,0.9,4c0.1,1.4,0,2.8-0.3,4.1c-0.3,1.4-0.8,2.5-1.6,3.6
	c-0.7,1.1-1.6,1.9-2.8,2.6c-1.1,0.7-2.4,1.1-3.8,1.3c-1.2,0.1-2.4,0.2-3.6,0c-1.2-0.1-2.4-0.3-3.4-0.8c-1-0.4-1.9-1-2.6-1.8
	C179,68.1,178.6,67.1,178.5,65.8z"/>
<path class="st32" d="M207.2,73.8c0-0.1,0-0.4,0-0.8c0-0.4-0.1-0.7-0.1-0.8c-0.1-1-0.1-2,0-3c0.1-1,0.2-2,0.3-3c0-0.1,0-0.2,0-0.3
	c0-0.1,0-0.2,0-0.2c0-0.8,0.1-1.7,0.2-2.5c0.1-0.8,0.2-1.6,0.2-2.5c0.1-1.6,0-3.1,0-4.6c-0.1-1.5-0.1-3-0.1-4.6c0-0.1,0-0.3,0-0.6
	c0-0.3,0-0.5,0-0.8c0-0.3,0-0.5,0-0.7c0-0.2,0-0.4,0-0.4c0-0.1,0-0.2,0-0.5c0-0.2,0.1-0.5,0.1-0.7s0.1-0.5,0.1-0.7
	c0-0.2,0-0.4,0-0.4v-0.2c0-0.2-0.1-0.4-0.3-0.5c-0.2-0.1-0.3-0.2-0.5-0.2c-1,0.1-2,0.1-2.9,0c-0.9,0-1.9,0-2.9,0
	c-0.3-0.1-0.5-0.2-0.8-0.3c0-0.2,0-0.5,0-0.9c0-0.5-0.1-0.8-0.1-0.9c0-0.3-0.1-0.8-0.2-1.4c-0.1-0.6-0.1-1.3-0.2-1.9
	c0-0.6,0-1.2,0.2-1.8c0.1-0.5,0.4-0.8,0.8-0.9h0.2l16.8,0.2c0.2,0,0.4,0.1,0.6,0.2c0.1,0.2,0.3,0.3,0.3,0.5c0.1,0.2,0.1,0.4,0.2,0.6
	c0,0.2,0,0.4,0,0.5c0,0,0,0.2,0,0.4c0,0.2,0,0.5,0.1,0.8c0,0.3,0.1,0.6,0.1,0.8c0,0.3,0,0.5,0,0.7c0,0.1,0,0.3,0,0.5
	c0,0.2,0,0.5,0,0.8c0,0.3,0,0.6,0,0.8c0,0.3,0,0.4,0,0.5c0,0.2,0,0.3-0.2,0.5c-0.1,0.2-0.2,0.3-0.4,0.3c-0.8,0.1-1.7,0.2-2.5,0.2
	c-0.8,0-1.7,0-2.5,0.2c-0.2,0-0.3,0-0.5,0c-0.1,0-0.3,0.1-0.5,0.2c-0.2,0.2-0.3,0.5-0.4,0.8c0,0.3-0.1,0.7-0.1,1c0,0.3,0,0.7,0,1.1
	c0,0.3,0,0.7,0,0.9c-0.2,3.8-0.3,7.5-0.3,11.3c0,3.8,0.2,7.5,0.7,11.2c0,0.3,0,0.6-0.1,1c-0.1,0.4-0.3,0.6-0.7,0.7h0
	c-0.1,0-0.2,0-0.4,0c-0.2,0-0.4,0-0.7-0.1c-0.3,0-0.5,0-0.7,0h-0.3c-0.2,0-0.5,0-0.8,0c-0.3,0-0.6,0-1,0s-0.6,0-0.9-0.1
	C207.5,74.1,207.3,74,207.2,73.8z"/>
<path class="st32" d="M223.5,71.7c0-0.1,0-0.1,0-0.2c0-0.1,0-0.1,0-0.2c0-0.4,0.1-1,0.2-1.6c0.1-0.6,0.2-1.1,0.3-1.5
	c0.1-0.2,0.3-0.4,0.5-0.5c0.2-0.1,0.5-0.2,0.7-0.3c0.3-0.1,0.5-0.2,0.7-0.3c0.2-0.1,0.4-0.2,0.6-0.4c0,0,0,0,0.1-0.2
	c0-0.1,0-0.2,0-0.3c0-0.1,0-0.2,0-0.4c0-0.2,0-0.4,0-0.7c0-0.3,0-0.5,0-0.7v-0.5c-0.1-2.7-0.1-5.4-0.1-8.1c0-2.7,0-5.4-0.2-8.1
	c0-0.1,0-0.2,0-0.4c0-0.2-0.1-0.4-0.1-0.7c0-0.2,0-0.5,0-0.6c0-0.2,0-0.4,0-0.5c-0.1-0.3-0.2-0.5-0.5-0.6c-0.3-0.1-0.5-0.1-0.8-0.2
	c-0.3-0.1-0.6-0.2-0.8-0.3c-0.2-0.2-0.4-0.4-0.4-0.8c0,0,0-0.1,0-0.1c0,0,0-0.1,0-0.1v-1c0-0.5,0-1,0-1.6c0-0.6,0-1.1,0-1.6v-1
	c0.1-0.3,0.2-0.6,0.3-1c0.1-0.4,0.3-0.6,0.6-0.7l0.1,0h0.1c0.5,0.1,1.2,0.1,2.1,0.1c0.9,0,1.8,0,2.8,0c0.9,0,1.8,0.2,2.6,0.3
	c0.8,0.2,1.4,0.5,1.7,1c0.2,0.2,0.3,0.5,0.3,1s0,0.8,0,1c0.1,1.4,0,2.5-0.1,3c-0.2,0.6-0.4,1-0.7,1.2c-0.3,0.2-0.5,0.3-0.8,0.4
	c-0.3,0.1-0.4,0.3-0.5,0.8c-0.2,1.4-0.4,2.8-0.4,4.2c0,1.4,0,2.8,0,4.2c0,1.4,0.1,2.8,0.2,4.2c0.1,1.4,0.2,2.8,0.3,4.2v0.5v0.9
	c0,0.3,0,0.6,0,0.9c0,0.3,0,0.5,0,0.5v0.4c0,0.4,0.2,0.7,0.5,0.8c0.3,0.1,0.6,0.3,0.9,0.4c0.3,0.1,0.6,0.3,0.9,0.5
	c0.3,0.2,0.5,0.5,0.5,1c0,0.2,0,0.6,0,1c0,0.5,0,0.9-0.1,1.4c-0.1,0.5-0.2,0.9-0.4,1.2c-0.2,0.4-0.5,0.6-0.9,0.6
	c-0.7,0.1-1.4,0.2-2.3,0.1c-0.8-0.1-1.6-0.1-2.3,0c-0.1,0-0.3,0-0.7,0.1c-0.4,0-0.8,0.1-1.2,0.2c-0.4,0-0.8,0.1-1.2,0.1
	c-0.4,0-0.6,0-0.7,0c-0.5,0-0.9-0.1-1.3-0.3C223.8,72.7,223.5,72.3,223.5,71.7z"/>
<path class="st32" d="M242.3,71c-0.2-1.9-0.3-3.8-0.2-5.8c0.1-2,0.1-3.9,0-5.8c-0.1-1.8-0.2-3.6-0.3-5.3c-0.1-1.7-0.2-3.5-0.2-5.3
	c0-1.9,0-3.8,0-5.5c0-1.7-0.1-3.5-0.4-5.3c0.1-0.5,0.3-0.9,0.8-1.2c0.5-0.3,1-0.5,1.4-0.5c0.6-0.1,1.1-0.1,1.8,0
	c0.7,0.1,1.2,0.3,1.6,0.8c0,0.1,0,0.2,0,0.4c0,0.2,0,0.3,0,0.4c0.1,1.2,0.1,2.5,0,3.8c-0.2,1.4-0.2,2.6-0.2,3.8c0,0.1,0,0.6,0.1,1.5
	c0,0.9,0.1,1.9,0.2,3c0.1,1.1,0.1,2.3,0.2,3.5c0.1,1.2,0.1,2.1,0.2,2.8c0.1,1.6,0.2,3.2,0.2,4.7c0,1.5,0.1,3.1,0.3,4.7
	c0.1,0.6,0.4,1,0.8,1.1c0.5,0.1,0.9,0.1,1.5,0.1c0.5,0,1,0,1.5,0c0.5,0,0.7,0.3,0.8,0.8c0,1.1,0,1.9-0.1,2.6c0,0.7-0.1,1.3-0.2,1.8
	c-0.1,0.5-0.3,0.8-0.5,0.8c0,0-0.1,0-0.2,0h-0.2c-1.3-0.1-2.6-0.1-3.9-0.2c-1.4,0-2.7-0.1-4-0.3c-0.4,0-0.7-0.2-0.8-0.4
	C242.5,71.9,242.4,71.5,242.3,71z"/>
<path class="st32" d="M259.6,71c-0.2-1.9-0.3-3.8-0.2-5.8c0.1-2,0.1-3.9,0-5.8c-0.1-1.8-0.2-3.6-0.3-5.3c-0.1-1.7-0.2-3.5-0.2-5.3
	c0-1.9,0-3.8,0-5.5c0-1.7-0.1-3.5-0.4-5.3c0.1-0.5,0.3-0.9,0.8-1.2c0.5-0.3,1-0.5,1.4-0.5c0.6-0.1,1.1-0.1,1.8,0
	c0.7,0.1,1.2,0.3,1.6,0.8c0,0.1,0,0.2,0,0.4c0,0.2,0,0.3,0,0.4c0.1,1.2,0.1,2.5,0,3.8c-0.2,1.4-0.2,2.6-0.2,3.8c0,0.1,0,0.6,0.1,1.5
	c0,0.9,0.1,1.9,0.2,3c0.1,1.1,0.1,2.3,0.2,3.5c0.1,1.2,0.1,2.1,0.2,2.8c0.1,1.6,0.2,3.2,0.2,4.7c0,1.5,0.1,3.1,0.3,4.7
	c0.1,0.6,0.4,1,0.8,1.1c0.5,0.1,0.9,0.1,1.5,0.1c0.5,0,1,0,1.5,0c0.5,0,0.7,0.3,0.8,0.8c0,1.1,0,1.9-0.1,2.6c0,0.7-0.1,1.3-0.2,1.8
	c-0.1,0.5-0.3,0.8-0.5,0.8c0,0-0.1,0-0.2,0h-0.2c-1.3-0.1-2.6-0.1-3.9-0.2c-1.4,0-2.7-0.1-4-0.3c-0.4,0-0.7-0.2-0.8-0.4
	C259.8,71.9,259.7,71.5,259.6,71z"/>
<path class="st32" d="M276.5,65.3c0-0.1,0-0.3-0.1-0.6c0-0.2,0-0.5,0-0.7c0-0.2,0-0.4,0-0.6c0-0.2,0-0.3,0-0.4
	c0-0.6-0.1-1.5-0.1-2.5c0-1-0.1-2-0.1-3c0-1-0.1-1.9-0.1-2.7c0-0.8,0-1.2,0-1.3c0-1,0-2.1,0.1-3.3c0-1.2,0.2-2.4,0.3-3.6
	c0.2-1.2,0.4-2.4,0.8-3.6c0.4-1.2,0.9-2.2,1.5-3.1c0.6-0.9,1.4-1.7,2.5-2.2c1-0.6,2.2-0.9,3.6-1h1c0.9,0.1,1.9,0.3,2.7,0.6
	c0.9,0.3,1.7,0.7,2.4,1.2c0.7,0.5,1.3,1.1,1.8,1.7c0.5,0.7,0.9,1.5,1.2,2.4c0,0.1,0.1,0.5,0.1,1c0,0.5,0.1,0.9,0.1,1
	c0,0.3,0,0.7,0,1.2c0,0.5,0,0.8,0,0.9c0,0.3,0,1.1,0,2.2c0,1.1,0,2.4,0.1,3.7c0,1.3,0.1,2.6,0.1,3.9c0,1.3,0,2.2,0,2.8
	c0,0.8,0,1.8,0,2.9c0,1.1,0,2.2-0.1,3.4c-0.1,1.2-0.2,2.3-0.5,3.5c-0.2,1.1-0.6,2.2-1.1,3.1c-0.5,0.9-1.2,1.7-2,2.2
	c-0.8,0.6-1.8,0.9-3.1,1c-1.1,0.1-2.1,0-3-0.2c-1-0.2-1.9-0.5-3-0.8c-1-0.3-1.8-0.8-2.5-1.4c-0.6-0.6-1.1-1.4-1.5-2.2
	c-0.4-0.8-0.7-1.7-0.8-2.7C276.7,67.1,276.6,66.2,276.5,65.3z M283.2,65c0.1,0.7,0.3,1.3,0.6,1.9c0.4,0.6,0.9,0.8,1.7,0.7
	c0.5,0,0.9-0.2,1.2-0.5c0.3-0.3,0.5-0.6,0.6-1.1c0.1-0.4,0.2-0.9,0.2-1.3c0-0.5,0-0.9,0.1-1.3V63c0-0.2,0-0.5,0-0.7
	c0-0.3,0-0.5,0-0.7v-0.4c0.1-1.7,0.2-3.3,0.2-4.7c0-1.4,0-3-0.2-4.7c0-0.2,0-0.5,0-1c0-0.5-0.1-0.9-0.1-1.5c0-0.5-0.1-1-0.1-1.5
	c0-0.5,0-0.8,0-1c-0.1-0.2-0.2-0.5-0.4-0.8c-0.2-0.3-0.4-0.7-0.6-1c-0.2-0.3-0.5-0.6-0.8-0.8c-0.3-0.2-0.5-0.3-0.8-0.3
	c-0.3,0-0.6,0.2-0.9,0.5c-0.3,0.3-0.5,0.6-0.6,1c-0.2,0.4-0.3,0.8-0.3,1.2c-0.1,0.4-0.1,0.8-0.2,1c0,0.1-0.1,0.2-0.1,0.5
	s-0.1,0.6-0.1,0.9c0,0.3-0.1,0.7-0.2,1c0,0.3-0.1,0.5-0.1,0.6v0.7v1.4c0,0.5,0,1,0,1.5c0,0.5,0,0.9,0,1.1v0.4c0,0.1,0,0.1,0,0.2
	c0,0,0,0.1,0,0.2v0.2c0,0.3,0.1,0.9,0.2,1.8c0.1,0.8,0.2,1.7,0.3,2.6c0.1,0.9,0.2,1.8,0.3,2.7C283.1,64.1,283.2,64.6,283.2,65z"/>
<path class="st32" d="M323.3,73.8c-0.1-0.1-0.3-0.2-0.4-0.3c-0.1-0.1-0.2-0.3-0.2-0.4c-0.2-1.6-0.2-3.3,0-4.9
	c0.2-1.7,0.3-3.3,0.3-4.9c0-2-0.1-4-0.2-6.1c-0.1-2-0.3-4.1-0.4-6.1c-0.1-2-0.3-4.1-0.3-6.1c-0.1-2-0.1-4,0-6c0-0.2,0.1-0.4,0.2-0.6
	c0.1-0.2,0.3-0.4,0.5-0.4c0.3,0,0.7,0,1.2,0c0.5,0.1,0.8,0.1,1.1,0c0.1,0,0.4,0,0.8,0c0.4,0,0.8,0,1.2,0c0.4,0,0.8,0,1.2,0
	c0.4,0,0.6,0,0.8,0c0,0,0.2,0,0.4,0c0.2,0,0.5-0.1,0.8-0.1c0.3,0,0.5-0.1,0.7-0.1c0.2,0,0.4,0,0.4,0c0.2,0,0.5,0,1,0
	c0.5,0,0.9,0,1.4,0c0.5,0,0.9,0.1,1.2,0.2c0.4,0.1,0.6,0.3,0.6,0.6l0.3,4.2c0,0.3-0.1,0.5-0.3,0.7c-0.3,0.2-0.5,0.3-0.8,0.3
	c-0.7,0.1-1.4,0-2-0.1c-0.7-0.1-1.4-0.1-2.1-0.1c-0.2,0-0.4,0-0.7,0s-0.5,0.1-0.8,0.1c-0.3,0.1-0.5,0.2-0.7,0.3
	c-0.2,0.1-0.3,0.3-0.3,0.6c0.1,1.4,0.1,2.8,0,4.2c-0.1,1.4-0.1,2.9,0,4.2c0,0.2,0,0.4,0,0.7c0,0.3,0.1,0.5,0.3,0.7
	c0.1,0.1,0.3,0.2,0.6,0.2c0.3,0,0.6,0.1,0.9,0.1c0.3,0,0.6,0,0.8,0c0.3,0,0.5,0,0.6,0c0.1,0,0.4,0,0.8,0s0.8-0.1,1.2-0.1
	c0.4,0,0.8-0.1,1.2-0.1c0.4,0,0.6,0,0.8,0c0.1,0,0.2,0.1,0.3,0.2c0.1,0.1,0.1,0.2,0.1,0.3l0.3,3.3c0,0.3,0,0.6-0.2,0.9
	c-0.2,0.3-0.4,0.5-0.7,0.5c-0.7,0.1-1.5,0.1-2.2,0c-0.7-0.1-1.5-0.1-2.3-0.1c-0.5,0.1-0.8,0.2-1,0.4c-0.2,0.2-0.3,0.4-0.4,0.7
	c-0.1,0.3-0.1,0.6-0.1,0.9v1.1c0,0.1,0,0.3,0,0.7c0,0.4-0.1,0.8-0.1,1.2c-0.1,0.4-0.1,0.8-0.1,1.2c0,0.4-0.1,0.6-0.1,0.7
	c0.1,0,0.1,0.1,0,0.3c0,0.2,0,0.3,0,0.4c0,0.2,0,0.5,0.1,0.7c0.1,0.3,0.3,0.4,0.5,0.4h1.2h1.8h1.8h1.1c0.5,0,1,0,1.5,0.2
	c0.4,0.1,0.7,0.5,0.9,1.1c0,0.1,0,0.2,0.1,0.5c0,0.3,0.1,0.5,0.2,0.8c0,0.3,0.1,0.6,0.2,1c0,0.3,0.1,0.6,0.1,0.7v0.3
	c0.1,0.5,0,0.7-0.4,0.8c-0.3,0.1-0.6,0.1-1,0.2c-1.4,0.2-2.8,0.2-4.2,0.1c-1.4-0.1-2.8-0.1-4.2-0.2c-0.1,0-0.3,0-0.8,0
	c-0.4,0-0.6,0.1-0.7,0.1c-0.1,0-0.4,0-0.7,0c-0.3,0-0.7,0-1.1,0.1c-0.4,0-0.8,0-1.1,0.1C323.7,73.8,323.5,73.8,323.3,73.8z"/>
<path class="st32" d="M351,60.7c0.1-0.2,0-0.4-0.1-0.7c-0.2-0.3-0.4-0.4-0.6-0.4H350c0,0.3,0,0.7,0,1.4c0,0.7,0,1.4,0,2.1
	c0,0.7,0,1.4,0,2.1c0,0.7,0,1.1,0,1.4v1.1c0,0.7,0.1,1.3,0.2,2c0.1,0.6,0.2,1.3,0.2,2c0,0.3,0,0.6-0.1,0.7c-0.1,0.2-0.3,0.3-0.7,0.3
	c-0.7,0.1-1.4,0.1-2,0c-0.6,0-1.3,0-2.1,0.1c-0.1-0.1-0.3-0.2-0.3-0.4l-0.2-0.4c0-0.1,0-0.3-0.1-0.6c0-0.3-0.1-0.5-0.1-0.6
	c-0.1-1-0.1-2.1,0-3.1c0-1,0.1-2.1,0.2-3.1c0-1.7,0-3.4-0.1-5c0-1.7,0-3.3,0.3-5l-0.7-14.2c0-0.2,0-0.4,0-0.6c0-0.3,0.1-0.5,0.2-0.8
	c0.1-0.3,0.2-0.5,0.3-0.6c0.2-0.2,0.3-0.3,0.6-0.3h0.2c0.8,0.1,1.5,0.1,2,0.2c0.5,0.1,0.9,0.5,1.1,1.2c0.3,0.7,0.6,1.5,0.9,2.2
	c0.3,0.7,0.6,1.4,0.9,2.1c0,0,0,0.1,0,0.2v0.2c0.2,0.9,0.4,1.8,0.8,2.8c0.4,1,0.7,1.8,1.1,2.6c-0.1,0.3,0,0.7,0.2,1.2
	c0.2,0.4,0.4,0.9,0.7,1.3s0.5,0.8,0.7,1.3c0.2,0.4,0.3,0.7,0.2,1c0,0.1,0.1,0.3,0.3,0.6c0.1,0.3,0.3,0.7,0.4,1
	c0.1,0.4,0.2,0.7,0.3,1c0.1,0.3,0.2,0.6,0.3,0.7c0,0.1,0.1,0.3,0.1,0.4c0,0.2,0.1,0.4,0.2,0.6c0.1,0.2,0.1,0.4,0.2,0.6
	c0,0.2,0.1,0.3,0.1,0.4c0.2,0.4,0.3,0.8,0.3,1.3s0.3,0.8,0.7,1.1c0.2-0.3,0.3-0.7,0.3-1.1c0.5-3.7,0.7-7.4,0.6-11
	c0-3.6-0.1-7.3-0.2-11.1c0-0.1,0.1-0.2,0.3-0.4c0.1-0.2,0.2-0.3,0.3-0.3l4-0.3c0.3,0,0.5,0.1,0.5,0.3c0,0.2,0.1,0.3,0.3,0.3
	c-0.1,1.5-0.1,3,0,4.5c0.1,1.5,0.1,3,0,4.5c-0.2,2.2-0.5,4.3-0.6,6.4c-0.2,2.1-0.2,4.2,0,6.5l-0.4,11.1c0,0.3-0.2,0.7-0.5,1.2
	c-0.3,0.5-0.6,0.8-1,1c-0.1,0-0.3,0-0.5,0c-0.3,0-0.5,0-0.5,0c-0.8,0.1-1.7,0.1-2.4,0c-0.8,0-1.6-0.1-2.4-0.3c-0.4,0-0.8-0.3-1-0.9
	c-0.2-0.6-0.4-1.2-0.5-2c-0.1-0.7-0.2-1.4-0.3-2.1c0-0.7-0.1-1.1-0.1-1.3c0-0.1-0.1-0.4-0.2-0.9c-0.1-0.4-0.2-0.7-0.3-0.9
	c-0.1-0.2-0.2-0.5-0.3-0.9c-0.1-0.4-0.3-0.9-0.4-1.4c-0.2-0.5-0.3-0.9-0.4-1.4C351.1,61.2,351,60.8,351,60.7z"/>
<path class="st32" d="M370.4,69.4c0-0.1,0-0.2-0.1-0.5c-0.1-0.2-0.2-0.5-0.3-0.8c-0.1-0.3-0.2-0.6-0.3-0.8c-0.1-0.3-0.2-0.4-0.2-0.6
	V65v-1.7c0-0.2,0-0.6,0-1.3c0-0.7,0-1.4,0-2.2c0-0.8,0-1.5,0-2.2c0-0.7,0-1.1,0-1.3v-3.1c0-0.2,0.1-0.6,0.1-1.1c0-0.5,0-1.1,0.1-1.6
	c0-0.6,0-1.1,0.1-1.5c0-0.5,0-0.8,0.1-1c0-0.1,0-0.3,0-0.6c0-0.4,0.1-0.6,0.2-0.7c0.1-0.6,0.2-1.2,0.2-1.8c0-0.6,0.1-1.2,0.3-1.8
	c0.2-0.5,0.5-1.2,1-1.9c0.4-0.7,1-1.4,1.6-2.1c0.6-0.7,1.3-1.2,2-1.7c0.7-0.5,1.5-0.7,2.3-0.7c0.6,0,1.1,0,1.4,0
	c0.3,0,0.6,0.1,0.9,0.2c0.3,0.1,0.5,0.3,0.7,0.5c0.2,0.2,0.5,0.5,0.8,0.9c0,0.1,0,0.1,0.1,0.2l0.1,0.1v4.6l-0.4,0.3
	c-1.5,0.1-2.7,0.4-3.6,1c-0.9,0.6-1.5,1.5-1.8,2.7c0,0.3-0.1,0.7-0.1,1.3c0,0.6-0.1,1.3-0.2,2c-0.1,0.7-0.1,1.4-0.2,2
	s-0.1,1.1-0.1,1.3v2c0,1.3,0,2.5,0,3.6c0,1.1,0.1,2.3,0.1,3.7c0.1,1,0.3,1.8,0.6,2.4c0.3,0.6,0.7,1.1,1.2,1.4c0.5,0.3,1,0.6,1.5,0.8
	c0.5,0.2,1,0.3,1.5,0.5c0.5,0.1,0.9,0.3,1.2,0.4c0.3,0.2,0.6,0.4,0.6,0.6v1.3c0,0.3,0,0.6,0,1c0,0.4,0,0.8,0,1.2
	c0,0.4-0.2,0.7-0.3,1c-0.2,0.3-0.5,0.5-0.9,0.6h-1.4c-2,0-3.8-0.3-5.4-1.1C372.3,72.2,371.2,71.1,370.4,69.4z"/>
<path class="st32" d="M400.8,73.6c-0.2-0.1-0.3-0.2-0.5-0.3c-0.2-0.2-0.3-0.3-0.3-0.5l-1.2-10.7c0-0.1-0.1-0.3-0.2-0.3
	c-0.1-0.1-0.2-0.1-0.3-0.1l-5.8,0.6l1,8.8c0.1,0.5,0.2,1,0.5,1.5c0.2,0.5,0.4,0.9,0.5,1.4c0,0.2,0,0.3,0,0.4c-0.1,0-0.2,0.1-0.5,0.1
	c-0.1,0-0.2,0-0.3,0c-0.1,0-0.2,0-0.2,0h-0.6c-0.3,0-0.6,0-0.9,0c-0.3,0-0.6,0-0.8,0c-0.3,0-0.4,0-0.5,0c-0.6,0-1.1-0.1-1.5-0.2
	c-0.4-0.1-0.7-0.3-0.8-0.6c-0.2-0.3-0.3-0.6-0.4-1c-0.1-0.4-0.2-0.8-0.2-1.3c-0.2-1.9-0.3-3.7-0.4-5.5c-0.1-1.8-0.2-3.7-0.3-5.6
	c0,0,0-0.2,0-0.6c0-0.3,0-0.7-0.1-1.2c0-0.4-0.1-0.9-0.1-1.3c0-0.4-0.1-0.8-0.1-1c-0.1-1.3,0-2.5,0.2-3.5c0.2-1.1,0.4-2.2,0.6-3.5
	c-0.2-0.6-0.2-1.2,0.1-1.8c0.3-0.6,0.5-1.2,0.7-1.7c0.1-0.3,0.1-0.5,0.1-0.8c0-0.2,0.1-0.5,0.2-0.8c0,0,0-0.1,0-0.2
	c0-0.1,0.1-0.1,0.1-0.1c0.4-0.7,0.7-1.4,1-2c0.3-0.7,0.6-1.4,1.1-2c0.3-0.4,0.7-0.8,1.1-1.2c0.4-0.4,0.9-0.8,1.4-1.2
	c0.5-0.4,1-0.7,1.6-0.9c0.6-0.2,1.1-0.4,1.7-0.5c1.5-0.1,2.7,0.1,3.5,0.6c0.8,0.6,1.5,1.3,2,2.2c0.5,0.9,0.9,1.8,1.1,2.9
	c0.3,1.1,0.6,2,0.9,3c0,0.1,0,0.3,0.1,0.6c0,0.3,0.1,0.6,0.1,0.8c0,0.3,0.1,0.6,0.1,0.8c0,0.3,0.1,0.4,0.1,0.5
	c0.2,2.2,0.4,4.4,0.4,6.7c0,2.2,0.1,4.5,0.2,6.7c0,0.6,0,1.2-0.1,1.8c-0.1,0.6-0.1,1.2-0.1,1.8c0,0.1,0,0.3,0,0.5
	c0,0.3,0.1,0.6,0.1,0.9c0,0.3,0.1,0.6,0.1,0.9c0,0.3,0.1,0.5,0.1,0.5V69c0,0.1,0,0.3,0,0.5c0,0.3,0,0.6,0,0.9c0,0.3,0,0.6,0,0.9
	c0,0.3,0,0.5,0,0.6c0,0.2,0,0.5-0.1,0.9c-0.1,0.4-0.3,0.6-0.7,0.7h-0.1c0,0-0.1,0-0.3,0c-0.2,0-0.3,0-0.3,0c-0.1,0-0.3,0-0.6,0
	c-0.3,0-0.6,0-0.9,0c-0.3,0-0.6,0-0.9,0C401.1,73.6,400.8,73.6,400.8,73.6z M392.5,55.4c0,0.4,0.3,0.7,0.7,0.8
	c0.4,0.2,0.9,0.3,1.5,0.3c0.6,0,1.1,0.1,1.7,0c0.6,0,1,0,1.3-0.1c0.1,0,0.2,0,0.4,0c0.2,0,0.3,0,0.4,0c0.1-0.1,0.1-0.2,0.2-0.3
	c0-0.1,0.1-0.2,0.1-0.3c0-0.2,0-0.5,0-1c0-0.5-0.1-0.9-0.1-1.5c0-0.5,0-1,0-1.5c0-0.5,0-0.8,0-1c0-0.1,0-0.2,0-0.5v-0.5l-0.5-4.9
	c0-0.2-0.1-0.5-0.3-0.8c-0.1-0.3-0.3-0.6-0.5-0.8c-0.2-0.3-0.5-0.5-0.7-0.6c-0.3-0.2-0.6-0.2-0.9-0.2c-0.3,0-0.5,0.1-0.8,0.3
	c-1.1,1.1-1.8,2.3-2.1,3.6c-0.3,1.2-0.4,2.6-0.5,4.1c0,0.8,0,1.6,0,2.4C392.4,53.8,392.4,54.6,392.5,55.4z"/>
<path class="st32" d="M416.8,60.7c0.1-0.2,0-0.4-0.1-0.7c-0.2-0.3-0.4-0.4-0.6-0.4H416c0,0.3,0,0.7,0,1.4c0,0.7,0,1.4,0,2.1
	c0,0.7,0,1.4,0,2.1c0,0.7,0,1.1,0,1.4v1.1c0,0.7,0.1,1.3,0.2,2c0.1,0.6,0.2,1.3,0.2,2c0,0.3,0,0.6-0.1,0.7c-0.1,0.2-0.3,0.3-0.7,0.3
	c-0.7,0.1-1.4,0.1-2,0c-0.6,0-1.3,0-2.1,0.1c-0.1-0.1-0.3-0.2-0.3-0.4l-0.2-0.4c0-0.1,0-0.3-0.1-0.6c0-0.3-0.1-0.5-0.1-0.6
	c-0.1-1-0.1-2.1,0-3.1c0-1,0.1-2.1,0.2-3.1c0-1.7,0-3.4-0.1-5c0-1.7,0.1-3.3,0.3-5l-0.7-14.2c0-0.2,0-0.4,0-0.6
	c0-0.3,0.1-0.5,0.2-0.8c0.1-0.3,0.2-0.5,0.3-0.6c0.2-0.2,0.3-0.3,0.6-0.3h0.2c0.8,0.1,1.5,0.1,2,0.2c0.5,0.1,0.9,0.5,1.1,1.2
	c0.3,0.7,0.6,1.5,0.9,2.2c0.3,0.7,0.6,1.4,0.9,2.1c0,0,0,0.1,0,0.2v0.2c0.2,0.9,0.4,1.8,0.8,2.8c0.4,1,0.7,1.8,1.1,2.6
	c-0.1,0.3,0,0.7,0.2,1.2c0.2,0.4,0.4,0.9,0.7,1.3s0.5,0.8,0.7,1.3c0.2,0.4,0.3,0.7,0.2,1c0,0.1,0.1,0.3,0.3,0.6
	c0.1,0.3,0.3,0.7,0.4,1c0.1,0.4,0.2,0.7,0.3,1c0.1,0.3,0.2,0.6,0.3,0.7c0,0.1,0.1,0.3,0.1,0.4c0,0.2,0.1,0.4,0.2,0.6
	c0.1,0.2,0.1,0.4,0.2,0.6c0,0.2,0.1,0.3,0.1,0.4c0.2,0.4,0.3,0.8,0.3,1.3s0.3,0.8,0.7,1.1c0.2-0.3,0.3-0.7,0.3-1.1
	c0.5-3.7,0.7-7.4,0.6-11c0-3.6-0.1-7.3-0.2-11.1c0-0.1,0.1-0.2,0.3-0.4c0.1-0.2,0.2-0.3,0.3-0.3l4-0.3c0.3,0,0.5,0.1,0.5,0.3
	c0,0.2,0.1,0.3,0.3,0.3c-0.1,1.5-0.1,3,0,4.5c0.1,1.5,0.1,3,0,4.5c-0.2,2.2-0.5,4.3-0.6,6.4c-0.2,2.1-0.2,4.2,0,6.5l-0.4,11.1
	c0,0.3-0.2,0.7-0.5,1.2c-0.3,0.5-0.6,0.8-1,1c-0.1,0-0.3,0-0.5,0c-0.3,0-0.5,0-0.5,0c-0.8,0.1-1.7,0.1-2.4,0c-0.8,0-1.6-0.1-2.4-0.3
	c-0.4,0-0.8-0.3-1-0.9c-0.2-0.6-0.4-1.2-0.5-2c-0.1-0.7-0.2-1.4-0.3-2.1c0-0.7-0.1-1.1-0.1-1.3c0-0.1-0.1-0.4-0.2-0.9
	c-0.1-0.4-0.2-0.7-0.3-0.9c-0.1-0.2-0.2-0.5-0.3-0.9c-0.1-0.4-0.3-0.9-0.4-1.4c-0.2-0.5-0.3-0.9-0.4-1.4
	C417,61.2,416.9,60.8,416.8,60.7z"/>
<path class="st32" d="M440,73.8c0-0.1,0-0.4,0-0.8c0-0.4-0.1-0.7-0.1-0.8c-0.1-1-0.1-2,0-3c0.1-1,0.2-2,0.3-3c0-0.1,0-0.2,0-0.3
	c0-0.1,0-0.2,0-0.2c0-0.8,0-1.7,0.2-2.5c0.1-0.8,0.2-1.6,0.2-2.5c0.1-1.6,0-3.1,0-4.6c-0.1-1.5-0.1-3-0.1-4.6c0-0.1,0-0.3,0-0.6
	c0-0.3,0-0.5,0-0.8c0-0.3,0-0.5,0-0.7c0-0.2,0-0.4,0-0.4c0-0.1,0-0.2,0-0.5c0-0.2,0.1-0.5,0.1-0.7c0-0.3,0.1-0.5,0.1-0.7
	c0-0.2,0-0.4,0-0.4v-0.2c0-0.2-0.1-0.4-0.3-0.5c-0.2-0.1-0.3-0.2-0.5-0.2c-1,0.1-2,0.1-2.9,0c-0.9,0-1.9,0-2.9,0
	c-0.3-0.1-0.5-0.2-0.8-0.3c0-0.2,0-0.5,0-0.9c0-0.5-0.1-0.8-0.1-0.9c0-0.3-0.1-0.8-0.2-1.4c-0.1-0.6-0.1-1.3-0.2-1.9
	c0-0.6,0-1.2,0.2-1.8c0.1-0.5,0.4-0.8,0.8-0.9h0.2l16.8,0.2c0.2,0,0.4,0.1,0.6,0.2c0.1,0.2,0.3,0.3,0.3,0.5c0.1,0.2,0.1,0.4,0.2,0.6
	c0,0.2,0,0.4,0,0.5c0,0,0,0.2,0,0.4c0,0.2,0,0.5,0.1,0.8c0,0.3,0.1,0.6,0.1,0.8c0,0.3,0,0.5,0,0.7c0,0.1,0,0.3,0,0.5
	c0,0.2,0,0.5,0,0.8c0,0.3,0,0.6,0,0.8s0,0.4,0,0.5c0,0.2,0,0.3-0.2,0.5c-0.1,0.2-0.2,0.3-0.4,0.3c-0.8,0.1-1.7,0.2-2.5,0.2
	c-0.8,0-1.7,0-2.5,0.2c-0.2,0-0.3,0-0.5,0c-0.1,0-0.3,0.1-0.5,0.2c-0.2,0.2-0.3,0.5-0.4,0.8c-0.1,0.3-0.1,0.7-0.1,1
	c0,0.3,0,0.7,0,1.1c0,0.3,0,0.7,0,0.9c-0.2,3.8-0.3,7.5-0.3,11.3c0,3.8,0.2,7.5,0.7,11.2c0,0.3,0,0.6-0.1,1
	c-0.1,0.4-0.3,0.6-0.7,0.7h0c-0.1,0-0.2,0-0.4,0c-0.2,0-0.4,0-0.7-0.1c-0.3,0-0.5,0-0.7,0h-0.3c-0.2,0-0.5,0-0.8,0c-0.3,0-0.6,0-1,0
	c-0.3,0-0.6,0-0.9-0.1C440.3,74.1,440.1,74,440,73.8z"/>
<path class="st32" d="M470.6,73.6c-0.2-0.1-0.3-0.2-0.5-0.3c-0.2-0.2-0.3-0.3-0.3-0.5l-1.2-10.7c0-0.1-0.1-0.3-0.2-0.3
	c-0.1-0.1-0.2-0.1-0.3-0.1l-5.8,0.6l1,8.8c0.1,0.5,0.2,1,0.5,1.5c0.2,0.5,0.4,0.9,0.5,1.4c0,0.2,0,0.3,0,0.4c-0.1,0-0.2,0.1-0.5,0.1
	c-0.1,0-0.2,0-0.3,0c-0.1,0-0.2,0-0.2,0h-0.6c-0.3,0-0.6,0-0.9,0c-0.3,0-0.6,0-0.8,0c-0.3,0-0.4,0-0.5,0c-0.6,0-1.1-0.1-1.5-0.2
	c-0.4-0.1-0.7-0.3-0.8-0.6c-0.2-0.3-0.3-0.6-0.4-1c-0.1-0.4-0.2-0.8-0.2-1.3c-0.2-1.9-0.3-3.7-0.4-5.5c-0.1-1.8-0.2-3.7-0.3-5.6
	c0,0,0-0.2,0-0.6c0-0.3,0-0.7-0.1-1.2c0-0.4-0.1-0.9-0.1-1.3c0-0.4-0.1-0.8-0.1-1c-0.1-1.3,0-2.5,0.2-3.5c0.2-1.1,0.4-2.2,0.6-3.5
	c-0.2-0.6-0.2-1.2,0.1-1.8c0.3-0.6,0.5-1.2,0.7-1.7c0.1-0.3,0.1-0.5,0.1-0.8c0-0.2,0.1-0.5,0.2-0.8c0,0,0-0.1,0-0.2
	c0-0.1,0.1-0.1,0.1-0.1c0.4-0.7,0.7-1.4,1-2c0.3-0.7,0.6-1.4,1.1-2c0.3-0.4,0.7-0.8,1.1-1.2c0.4-0.4,0.9-0.8,1.4-1.2
	c0.5-0.4,1-0.7,1.6-0.9c0.5-0.2,1.1-0.4,1.7-0.5c1.5-0.1,2.7,0.1,3.5,0.6c0.8,0.6,1.5,1.3,2,2.2c0.5,0.9,0.9,1.8,1.1,2.9
	c0.3,1.1,0.6,2,0.9,3c0,0.1,0,0.3,0.1,0.6c0,0.3,0.1,0.6,0.1,0.8c0,0.3,0.1,0.6,0.1,0.8c0,0.3,0.1,0.4,0.1,0.5
	c0.2,2.2,0.4,4.4,0.4,6.7c0,2.2,0.1,4.5,0.2,6.7c0,0.6,0,1.2-0.1,1.8c-0.1,0.6-0.1,1.2-0.1,1.8c0,0.1,0,0.3,0,0.5
	c0,0.3,0.1,0.6,0.1,0.9c0,0.3,0.1,0.6,0.1,0.9c0,0.3,0.1,0.5,0.1,0.5V69c0,0.1,0,0.3,0,0.5c0,0.3,0,0.6,0,0.9c0,0.3,0,0.6,0,0.9
	c0,0.3,0,0.5,0,0.6c0,0.2,0,0.5-0.1,0.9c-0.1,0.4-0.3,0.6-0.7,0.7h-0.1c0,0-0.1,0-0.3,0c-0.2,0-0.3,0-0.3,0c-0.1,0-0.3,0-0.6,0
	c-0.3,0-0.6,0-0.9,0c-0.3,0-0.6,0-0.9,0C470.9,73.6,470.7,73.6,470.6,73.6z M462.3,55.4c0,0.4,0.3,0.7,0.7,0.8
	c0.4,0.2,0.9,0.3,1.5,0.3c0.6,0,1.1,0.1,1.7,0c0.6,0,1,0,1.3-0.1c0.1,0,0.2,0,0.4,0c0.2,0,0.3,0,0.4,0c0.1-0.1,0.1-0.2,0.2-0.3
	c0-0.1,0.1-0.2,0.1-0.3c0-0.2,0-0.5,0-1c0-0.5-0.1-0.9-0.1-1.5c0-0.5,0-1,0-1.5c0-0.5,0-0.8,0-1c0-0.1,0-0.2,0-0.5v-0.5l-0.5-4.9
	c0-0.2-0.1-0.5-0.3-0.8c-0.1-0.3-0.3-0.6-0.5-0.8c-0.2-0.3-0.5-0.5-0.7-0.6c-0.3-0.2-0.6-0.2-0.9-0.2c-0.3,0-0.5,0.1-0.8,0.3
	c-1.1,1.1-1.8,2.3-2.1,3.6c-0.3,1.2-0.4,2.6-0.5,4.1c0,0.8,0,1.6,0,2.4C462.2,53.8,462.3,54.6,462.3,55.4z"/>
<path class="st32" d="M482,74.3c-0.1,0-0.1-0.2-0.2-0.4c0-0.3,0-0.4,0-0.5c-0.2-1.2-0.2-2.4-0.1-3.6c0.1-1.2,0.2-2.4,0.2-3.6
	c-0.1-1.5-0.2-3-0.5-4.5c-0.3-1.5-0.5-3-0.6-4.5c0-1.2,0-2.3,0-3.4c0-1.1,0-2.2,0-3.4c0-1.1,0-2.2-0.1-3.3c-0.1-1.1-0.2-2.2-0.3-3.3
	v-0.3v-0.5v-0.5v-0.3c0-0.2-0.1-0.5-0.1-0.9c0-0.4-0.1-0.8-0.1-1.3c0-0.5-0.1-0.9-0.1-1.3c0-0.4,0-0.7,0-0.9
	c0.1-0.3,0.1-0.5,0.2-0.6c0.1-0.1,0.2-0.3,0.4-0.3c0.1,0,0.3-0.1,0.6-0.1c0.3,0,0.5-0.1,0.6-0.1c1.8-0.2,3.5-0.2,5,0.3
	c1.5,0.4,2.8,1.1,3.9,2c1.1,0.9,2,2,2.7,3.3c0.7,1.3,1.2,2.8,1.4,4.4c0.2,1.3,0.3,2.5,0.3,3.7c0,1.2,0,2.5-0.2,3.8
	c0.1,0.7,0.2,1.3,0,2c-0.1,0.6-0.1,1.3,0,2c0,1.1,0.1,2.3,0.2,3.8c0.1,1.4,0.1,2.9-0.1,4.3c-0.2,1.4-0.5,2.8-1.1,4
	c-0.5,1.2-1.5,2.2-2.7,2.8c-1.2,0.6-2.5,1-3.9,1.2c-1.4,0.2-2.7,0.4-4.1,0.6c-0.1,0-0.2,0-0.5,0c-0.3,0-0.4,0-0.5,0
	c-0.1-0.1-0.2-0.1-0.3-0.2C482.1,74.6,482,74.4,482,74.3z M486.8,67.7c0.2,0.3,0.4,0.4,0.7,0.3c0.4,0,0.7-0.2,0.9-0.6
	s0.4-0.8,0.5-1.2c0.1-0.5,0.2-0.9,0.3-1.4c0-0.5,0.1-0.8,0.1-1.1c0-0.2,0.1-0.6,0.1-1c0-0.4,0.1-0.8,0.1-1.2c0-0.4,0-0.7,0.1-1
	c0-0.3,0-0.4,0-0.5l0-0.4c0-1.9,0-3.8,0-5.7s-0.1-3.9-0.4-5.8c-0.2-1-0.4-1.7-0.6-2.3c-0.2-0.6-0.7-1.2-1.4-1.9
	c-0.1-0.2-0.2-0.3-0.3-0.4c-0.1-0.1-0.3-0.1-0.5-0.1c-0.2,0-0.2,0.2-0.2,0.4c0,0.3,0.1,0.4,0.1,0.4c0.1,2,0.2,4.1,0.2,6.1
	c0,2,0.1,4.1,0.2,6.1c0,1.7,0,3.4-0.2,5.1c-0.1,1.7-0.1,3.4,0.2,5.1c0,0.1,0,0.2,0.1,0.5C486.7,67.4,486.8,67.6,486.8,67.7z"/>
<path class="st32" d="M501.8,65.3c0-0.1-0.1-0.3-0.1-0.6c0-0.2,0-0.5,0-0.7c0-0.2,0-0.4,0-0.6c0-0.2,0-0.3,0-0.4
	c0-0.6-0.1-1.5-0.1-2.5c0-1-0.1-2-0.1-3c0-1-0.1-1.9-0.1-2.7c0-0.8,0-1.2,0-1.3c0-1,0-2.1,0.1-3.3c0-1.2,0.2-2.4,0.3-3.6
	c0.2-1.2,0.4-2.4,0.8-3.6c0.4-1.2,0.9-2.2,1.5-3.1c0.6-0.9,1.4-1.7,2.5-2.2c1-0.6,2.2-0.9,3.6-1h1c0.9,0.1,1.9,0.3,2.7,0.6
	c0.9,0.3,1.7,0.7,2.4,1.2c0.7,0.5,1.3,1.1,1.8,1.7c0.5,0.7,0.9,1.5,1.2,2.4c0,0.1,0.1,0.5,0.1,1c0,0.5,0.1,0.9,0.1,1
	c0,0.3,0,0.7,0,1.2c0,0.5,0,0.8,0,0.9c0,0.3,0,1.1,0,2.2c0,1.1,0,2.4,0.1,3.7c0,1.3,0.1,2.6,0.1,3.9c0,1.3,0,2.2,0,2.8
	c0,0.8,0,1.8,0,2.9c0,1.1,0,2.2-0.1,3.4c-0.1,1.2-0.2,2.3-0.5,3.5c-0.2,1.1-0.6,2.2-1.1,3.1c-0.5,0.9-1.2,1.7-2,2.2
	c-0.8,0.6-1.8,0.9-3.1,1c-1.1,0.1-2.1,0-3-0.2c-1-0.2-1.9-0.5-3-0.8c-1-0.3-1.8-0.8-2.5-1.4c-0.6-0.6-1.1-1.4-1.5-2.2
	c-0.4-0.8-0.7-1.7-0.8-2.7C502,67.1,501.9,66.2,501.8,65.3z M508.5,65c0.1,0.7,0.3,1.3,0.6,1.9c0.4,0.6,0.9,0.8,1.7,0.7
	c0.5,0,0.9-0.2,1.2-0.5c0.3-0.3,0.5-0.6,0.6-1.1c0.1-0.4,0.2-0.9,0.2-1.3c0-0.5,0-0.9,0.1-1.3V63c0-0.2,0-0.5,0-0.7
	c0-0.3,0-0.5,0-0.7v-0.4c0.1-1.7,0.2-3.3,0.2-4.7c0-1.4,0-3-0.2-4.7c0-0.2,0-0.5,0-1c0-0.5-0.1-0.9-0.1-1.5c0-0.5-0.1-1-0.1-1.5
	c0-0.5,0-0.8,0-1c-0.1-0.2-0.2-0.5-0.4-0.8c-0.2-0.3-0.4-0.7-0.6-1c-0.2-0.3-0.5-0.6-0.8-0.8c-0.3-0.2-0.6-0.3-0.8-0.3
	c-0.3,0-0.6,0.2-0.9,0.5c-0.3,0.3-0.5,0.6-0.6,1c-0.2,0.4-0.3,0.8-0.3,1.2c-0.1,0.4-0.1,0.8-0.2,1c0,0.1-0.1,0.2-0.1,0.5
	c0,0.3-0.1,0.6-0.1,0.9c0,0.3-0.1,0.7-0.2,1c0,0.3-0.1,0.5-0.1,0.6v0.7v1.4c0,0.5,0,1,0,1.5c0,0.5,0,0.9,0,1.1v0.4
	c0,0.1,0,0.1,0,0.2c0,0,0,0.1,0,0.2v0.2c0,0.3,0.1,0.9,0.2,1.8c0.1,0.8,0.2,1.7,0.3,2.6c0.1,0.9,0.2,1.8,0.3,2.7
	C508.4,64.1,508.5,64.6,508.5,65z"/>
<path class="st31" d="M53,61.7c0,0-16-3.6-27.2-10.6C5,37.9,0.1,12.2,0.1,12.2S20.4,33.8,44.5,31c8-0.9,7-4,7-4L53,61.7z"/>
</svg>
