<svg width="128" height="67" viewBox="0 0 128 67" fill="none" xmlns="http://www.w3.org/2000/svg">
<path fill-rule="evenodd" clip-rule="evenodd" d="M0.00366955 43.118C0.0387423 40.7957 0.871725 21.5388 15.2296 15.4982C29.5876 9.45765 41.7666 23.6959 41.7666 23.6959C41.7666 23.6959 43.5071 -2.89316 60.9076 0.259773C78.308 3.41271 77.874 18.5164 77.874 18.5164C77.874 18.5164 83.5909 9.36197 93.1 12.4758C103.644 15.9288 101.802 25.5702 101.802 25.5702C101.802 25.5702 107.646 18.5381 116.301 23.6959C124.955 28.8536 129.646 37.9384 127.471 47.8626C125.297 57.7867 116.691 70.7333 63.7835 65.9887C10.8806 61.2441 -0.233072 59.5176 0.00366955 43.118Z" fill="#9A9587"/>
</svg>
