<svg width="298" height="164" viewBox="0 0 298 164" fill="none" xmlns="http://www.w3.org/2000/svg">
<path fill-rule="evenodd" clip-rule="evenodd" d="M0.00630704 74.0084C0.0665884 70.0224 1.49828 36.9696 26.176 26.6014C50.8536 16.2333 71.7863 40.672 71.7863 40.672C71.7863 40.672 74.7778 -4.96587 104.685 0.44588C134.592 5.85763 133.846 31.7818 133.846 31.7818C133.846 31.7818 143.672 16.0691 160.016 21.4136C178.138 27.3404 174.973 43.8892 174.973 43.8892C174.973 43.8892 185.017 31.8191 199.892 40.672C214.766 49.5249 222.829 65.1182 219.091 82.1522C215.354 99.1861 200.562 121.408 109.628 113.264C18.7011 105.12 -0.400592 102.157 0.00630704 74.0084Z" fill="#DAD8CC"/>
<path fill-rule="evenodd" clip-rule="evenodd" d="M77.0063 123.008C77.0669 119.022 78.5051 85.9696 103.295 75.6014C128.085 65.2333 149.113 89.672 149.113 89.672C149.113 89.672 152.118 44.0341 182.161 49.4459C212.204 54.8576 211.454 80.7818 211.454 80.7818C211.454 80.7818 221.325 65.0691 237.743 70.4136C255.947 76.3404 252.768 92.8892 252.768 92.8892C252.768 92.8892 262.858 80.8191 277.8 89.672C292.742 98.5249 300.842 114.118 297.087 131.152C293.333 148.186 278.474 170.408 187.126 162.264C95.7861 154.12 76.5976 151.157 77.0063 123.008Z" fill="#9A9587"/>
</svg>
