<svg width="167" height="121" viewBox="0 0 167 121" fill="none" xmlns="http://www.w3.org/2000/svg">
<path d="M14.1722 108.99L0.892212 98.9275C0.892212 98.9275 2.62197 15.5466 83.213 14.226C163.804 12.924 167.208 86.7449 166.166 97.9603C165.199 108.376 14.1722 108.99 14.1722 108.99Z" fill="#BEE2E4"/>
<path d="M18.0414 113.714C30.4844 117.564 76.648 124.483 121.547 118.457C166.446 112.412 166.167 97.979 166.167 97.979L0 99.0392C0 99.0206 2.32492 108.86 18.0414 113.714Z" fill="#E30613"/>
<path d="M1.04419 97.9604C-3.43825 100.676 14.1009 108.023 48.9561 110.106C76.1856 111.743 103.601 114.012 147.57 105.475C159.064 103.243 166.151 97.9604 166.151 97.9604C166.151 97.9604 151.978 87.9912 121.01 87.9912C90.0422 87.9912 17.0582 88.2516 1.04419 97.9604Z" fill="#B91919"/>
<path d="M95.6757 49.3976L114.387 32.0816C114.387 32.0816 108.23 29.0127 109.346 24.2698C110.462 19.527 114.387 20.085 116.619 22.5959C118.85 25.1068 118.572 28.4547 118.572 28.4547C118.572 28.4547 122.198 26.2227 126.104 28.7337C130.01 31.2446 131.684 35.4295 127.22 37.6614C122.756 39.8933 118.181 35.3179 118.181 35.3179L105.998 49.9555L95.6757 49.3976Z" fill="white"/>
<path d="M97.9048 45.4915C97.9048 45.4915 103.15 38.2564 105.493 38.8888C106.795 39.2422 104.88 43.2596 104.88 43.2596C104.88 43.2596 108.916 40.3767 109.901 41.3067C110.645 42.0134 108.637 45.2125 108.637 45.2125C108.637 45.2125 110.85 43.9478 111.129 44.5802C112.133 46.7563 105.159 52.4849 105.159 52.4849L97.9048 45.4915Z" fill="#C7681B"/>
<path d="M20.834 95.468C21.3734 97.9045 38.5406 102.387 45.8315 103.875C50.4814 104.823 80.8727 110.831 99.5837 108.041C118.295 105.251 131.091 93.2361 124.953 67.8107L119.969 71.7352L120.21 60.2222C120.21 60.2222 110.464 40.4511 86.4526 42.7016C62.4408 44.9335 35.9367 71.698 32.626 75.641C28.4597 80.6071 22.5637 82.2811 22.2662 83.9364C22.043 85.2384 28.0878 86.8193 28.0878 86.8193C28.0878 86.8193 21.0014 86.5775 21.113 88.7722C21.206 90.8925 27.2322 91.7667 27.2322 91.7667C27.2322 91.7667 20.3318 93.1803 20.834 95.468Z" fill="#DB7A1C"/>
<path d="M79.1988 82.6345C77.8038 76.2177 72.782 93.8127 67.1836 95.2077C61.6038 96.6026 51.5415 92.4177 47.0777 96.0446C42.6139 99.6715 42.8742 103.447 46.2593 105.53C51.4113 108.674 61.8642 109.734 70.2525 108.897C78.6408 108.041 80.5937 89.0513 79.1988 82.6345Z" fill="#F59B1A"/>
<path d="M116.172 62.4356L136.278 50.4204C136.278 50.4204 132.93 45.3985 136.278 41.7531C139.626 38.1262 143.811 40.3582 143.811 43.706C143.811 47.0539 142.695 51.5177 142.695 51.5177C142.695 51.5177 148.833 51.5178 150.507 57.6556C152.181 63.7934 143.811 63.5143 141.858 61.0034C139.905 58.4925 138.51 56.5396 138.51 56.5396L121.473 69.9683L116.172 62.4356Z" fill="white"/>
<path d="M89.8174 97.4211C96.197 103.67 111.82 98.1651 119.986 82.058C127.723 66.8065 130.476 63.3098 128.486 63.1982C127.518 63.1424 124.394 64.8164 124.394 64.8164C124.394 64.8164 127.723 62.0637 127.184 60.9105C126.533 59.5156 121.306 60.985 121.306 60.985C121.306 60.985 124.952 58.846 124.133 57.7859C123.315 56.7071 111.523 59.032 100.921 64.3328C90.2824 69.615 75.8493 83.7506 89.8174 97.4211Z" fill="#F59B1A"/>
<path d="M83.2157 14.2261C85.3361 14.1889 86.7682 14.2075 88.7955 14.2632C89.1489 13.2961 94.2451 3.38264 92.4782 1.3739C90.7484 -0.597629 77.0222 -0.467436 75.4412 1.89468C74.3252 3.56863 77.3197 10.748 79.3843 14.3377C80.6304 14.2819 81.9138 14.2447 83.2157 14.2261Z" fill="#E30613"/>
</svg>
