<svg width="97" height="204" viewBox="0 0 97 204" fill="none" xmlns="http://www.w3.org/2000/svg">
<path d="M26.02 136.561C24.7337 136.855 24.9726 135.164 24.55 132.959C24.2376 135.311 23.0432 137.479 21.1506 136.781C19.9746 136.359 21.4997 133.731 22.2163 131.912C21.3527 132.996 19.8827 134.429 18.5413 134.301C17.1448 134.154 18.1003 131.324 19.9746 128.99C14.3334 128.237 18.2657 125.113 22.0326 126.16C26.0016 119.38 26.7183 107.087 26.5713 103.688C26.5713 103.651 25.9648 97.918 25.9465 97.8812C26.314 96.007 31.7898 95.8967 31.9 97.8812C32.6901 111.736 31.8082 121.787 27.0306 127.134C28.0229 130.589 27.5451 136.193 26.02 136.561Z" fill="#E4D5B8"/>
<path d="M10.5108 42.1313C10.5108 42.1313 11.007 60.5615 10.8416 65.927C10.6395 71.9173 10.4006 76.6581 9.37159 80.2412C7.42384 86.9849 0.882324 93.8755 0.882324 93.8755C0.882324 93.8755 7.49736 95.0699 11.4664 90.4394C15.4354 85.8088 17.2912 82.63 17.2912 82.63C17.2912 82.63 15.5456 94.3716 13.0099 97.7159C10.0699 101.593 4.33684 103.633 4.33684 103.633C4.33684 103.633 9.33485 106.775 15.5272 103.192C21.738 99.6085 26.0194 95.4374 26.0194 95.4374L55.1255 92.2217C55.1255 92.2217 58.4698 103.339 61.814 105.801C65.4707 108.502 72.7655 108.134 72.7655 108.134C72.7655 108.134 67.0509 104.754 64.7357 100.435C62.4204 96.1172 63.6515 91.1008 63.6515 91.1008C63.6515 91.1008 67.1428 97.1646 72.1224 99.7739C77.1204 102.401 83.4966 101.042 83.4966 101.042C83.4966 101.042 74.3825 95.3822 72.5267 91.5419C70.6708 87.7015 71.2037 84.3939 71.2037 84.3939C71.2037 84.3939 75.6872 91.4867 79.2519 92.626C82.8167 93.7652 86.6938 91.6888 86.6938 91.6888C86.6938 91.6888 81.604 87.334 78.9396 82.924C73.3536 73.6997 70.3768 41.6903 66.6467 39.1178C62.9349 36.5453 50.2193 26.0531 34.9129 30.6469C19.533 35.259 10.5108 42.1313 10.5108 42.1313Z" fill="#F39200"/>
<path d="M32.8732 86.1762C32.8732 86.1762 33.7368 82.4277 29.4371 81.8029C25.1373 81.1782 20.4332 85.6433 22.1605 91.8541C23.2079 95.6026 24.8065 98.7264 24.8065 98.7264L31.7339 98.5794L32.8732 86.1762Z" fill="#2FAC66"/>
<path d="M54.9594 72.8544H31.3291V102.714H54.9594V72.8544Z" fill="#D5C2A2"/>
<path d="M58.6179 104.11C59.3345 111.791 61.2823 120.593 61.2823 120.593C61.2823 120.593 51.029 119.27 42.8889 119.711C34.7487 120.152 29.8242 120.519 29.8242 120.519C29.8242 120.519 30.3387 110.303 30.0263 104.717C29.6221 97.4585 30.2468 93.0669 31.0737 88.712C36.8251 87.0399 43.1277 92.828 43.1277 92.828C43.1277 92.828 48.3095 87.2971 55.4391 86.801C57.3133 93.5263 57.9748 97.1646 58.6179 104.11Z" fill="#B780B1"/>
<path d="M62.0158 119.931C62.0158 119.931 69.5313 131.526 77.2672 147.843C85.5911 165.41 95.3114 194.075 96.0097 195.067C89.266 199.146 77.2672 202.987 49.9251 203.225C14.0018 203.538 0 197.86 0 197.86C0 197.86 7.69915 171.859 14.6449 155.689C22.142 138.251 29.8411 121.732 29.8411 121.732L62.0158 119.931Z" fill="#B780B1"/>
<path d="M45.038 122.632C45.038 122.632 42.2634 152.216 81.8616 152.216C81.8616 152.216 80.5386 142.588 74.6586 133.768C69.8811 126.601 62.8618 120.06 62.8618 120.06L45.038 122.632Z" fill="#2FAC66"/>
<path d="M39.8376 122.798C39.8376 122.798 46.0851 150.746 13.2856 155.818C13.2856 155.818 14.7924 147.898 19.184 137.884C22.6385 130.001 29.5108 121.879 29.5108 121.879L39.8376 122.798Z" fill="#2FAC66"/>
<path d="M60.7658 115.356C60.7658 115.356 57.9544 116.973 48.8404 117.708C39.6528 118.461 34.1771 117.965 29.8406 117.285L29.5098 121.916C29.5098 121.916 41.3433 123.404 46.5067 122.963C58.7077 121.916 62.8605 120.097 62.8605 120.097L60.7658 115.356Z" fill="#1B8A4F"/>
<path d="M64.6069 152.216C64.6069 152.216 68.3187 161.459 70.9831 170.83C74.0517 181.653 75.6504 189.058 75.6504 189.058" stroke="#85557C" stroke-width="0.569" stroke-linecap="round"/>
<path d="M41.9316 192.568C41.9316 192.568 46.36 163.792 44.9268 143.635" stroke="#85557C" stroke-width="0.569" stroke-linecap="round"/>
<path d="M28.0038 155.597C28.0038 155.597 25.2292 163.756 23.5203 171.289C21.3153 180.973 19.6982 190.932 19.6982 190.932" stroke="#85557C" stroke-width="0.569" stroke-linecap="round"/>
<path d="M58.0838 95.2719C58.0838 95.2719 57.5509 117.983 66.3893 129.835C69.9541 134.613 71.5895 137.094 72.8941 136.267C74.0517 135.532 70.781 131.563 70.781 131.563C70.781 131.563 75.338 136.487 76.3486 134.576C77.3592 132.665 73.1146 129.413 73.1146 129.413C73.1146 129.413 79.3621 132.518 78.9578 130.405C78.5168 128.145 73.868 126.399 73.868 126.399C73.868 126.399 77.5062 124.745 75.6687 123.184C74.0701 121.824 70.2114 124.47 70.2114 124.47C70.2114 124.47 66.8854 120.979 66.0953 115.466C65.3052 109.972 63.7066 93.8754 63.7066 93.8754L58.0838 95.2719Z" fill="#E4D5B8"/>
<path d="M54.1682 84.2653C54.1682 84.2653 52.8636 80.6454 57.0531 79.5245C61.2426 78.4037 66.4428 82.2624 65.4689 88.6385C64.8809 92.4789 65.1749 95.0147 65.1749 95.0147L57.4757 96.4663L54.1682 84.2653Z" fill="#2FAC66"/>
<path d="M54.8849 27.2475L56.0793 9.79115C56.0793 9.79115 50.0523 19.0338 46.7632 17.2147C43.474 15.3956 41.857 9.33178 41.857 9.33178C41.857 9.33178 39.1559 18.5928 36.0873 18.1334C33.037 17.6924 29.8581 9.00104 29.8581 9.00104C29.8581 9.00104 31.8426 17.5271 27.157 18.1334C22.4897 18.7398 16.7935 12.382 16.7935 12.382L22.3243 28.8645C22.3243 28.8645 33.2575 26.6595 40.5891 26.2552C47.9208 25.851 54.8849 27.2475 54.8849 27.2475Z" fill="#FFDE00"/>
<path d="M41.9324 8.26604C41.9141 7.99041 46.5078 1.357 44.7438 0.438248C42.9798 -0.480505 41.8222 1.92662 41.8222 1.92662C41.8222 1.92662 40.2052 -0.700977 38.6433 0.181026C36.6588 1.28353 41.9324 8.26604 41.9324 8.26604Z" fill="#E30613"/>
<path d="M55.9147 9.38684C55.9514 9.11122 61.8499 3.58033 60.3064 2.33083C58.7812 1.06295 57.1275 3.15773 57.1275 3.15773C57.1275 3.15773 56.0985 0.254452 54.3896 0.787329C52.2397 1.46721 55.9147 9.38684 55.9147 9.38684Z" fill="#E30613"/>
<path d="M30.1344 9.20311C30.0426 8.94586 32.4865 1.24667 30.5204 0.897549C28.5542 0.548423 28.1684 3.17609 28.1684 3.17609C28.1684 3.17609 25.8347 1.13642 24.6036 2.44105C23.0417 4.0948 30.1344 9.20311 30.1344 9.20311Z" fill="#E30613"/>
<path d="M16.8135 12.1983C16.6849 11.9595 18.063 4.00304 16.0785 3.91117C14.094 3.81929 14.0572 6.48366 14.0572 6.48366C14.0572 6.48366 11.4847 4.77481 10.4374 6.22644C9.09597 8.08232 16.8135 12.1983 16.8135 12.1983Z" fill="#E30613"/>
<path d="M60.5816 32.7599C60.5816 32.7599 67.5641 49.3526 66.48 61.9947C64.9733 79.3223 50.4202 87.2053 38.1824 85.5515C19.5134 83.0157 15.8016 65.8351 14.4051 57.75C12.5309 46.872 18.0985 34.4137 18.0985 34.4137C18.0985 34.4137 27.1942 30.5733 36.2898 27.1556C45.4038 23.7745 60.5816 32.7599 60.5816 32.7599Z" fill="#E4D5B8"/>
<path d="M17.751 68.8302C17.751 71.8437 20.1765 74.2693 23.19 74.2693C26.1851 74.2693 28.629 71.8437 28.629 68.8302C28.629 65.8351 26.2035 63.3912 23.19 63.3912C20.1765 63.4096 17.751 65.8351 17.751 68.8302Z" fill="#F3A5C2"/>
<path d="M40.9389 58.1727C40.9389 58.1727 38.9544 60.6166 37.0434 62.4541C35.8123 63.6301 34.7098 66.2944 38.7523 66.6987C42.7948 67.1029 43.5482 65.7248 43.5482 65.7248" stroke="black" stroke-width="0.432" stroke-linecap="round"/>
<path fill-rule="evenodd" clip-rule="evenodd" d="M26.2395 48.0664C29.7124 47.9929 31.9174 49.9039 32.2114 53.3768C32.5054 56.868 30.5026 59.5508 27.5442 59.8632C24.2918 60.2123 21.3518 57.6949 21.3885 54.2955C21.4436 50.8043 22.9688 48.1399 26.2395 48.0664Z" fill="white"/>
<path fill-rule="evenodd" clip-rule="evenodd" d="M24.6422 53.34C25.2853 53.2849 25.6161 53.6707 25.6896 54.3139C25.7263 54.9386 25.414 55.4348 24.7892 55.4899C24.1461 55.545 23.6499 55.1224 23.5948 54.4792C23.5397 53.8361 23.9991 53.3767 24.6422 53.34Z" fill="black"/>
<path fill-rule="evenodd" clip-rule="evenodd" d="M52.497 45.9349C56.1169 46.2472 58.1749 48.489 58.0831 52.1089C57.9912 55.7655 55.9332 58.3748 52.497 58.2829C49.0977 58.191 46.6722 55.4532 46.7824 51.8149C46.8743 48.195 49.116 45.6409 52.497 45.9349Z" fill="white"/>
<path fill-rule="evenodd" clip-rule="evenodd" d="M50.2186 51.4659C50.8617 51.4842 51.1557 51.9068 51.1373 52.5316C51.119 53.1747 50.7515 53.6157 50.1083 53.6157C49.4652 53.5973 49.0242 53.1196 49.0425 52.4765C49.0425 51.8517 49.5754 51.4291 50.2186 51.4659Z" fill="black"/>
<path d="M46.3964 70.9067C46.3964 70.9067 46.0841 75.8863 42.1886 76.2905C39.9285 76.5294 38.091 73.663 37.7051 73.3506C44.2833 72.7993 46.3964 70.9067 46.3964 70.9067Z" fill="black"/>
<path d="M49.0622 34.6525C49.0622 34.6525 45.2586 40.8082 42.2818 42.9948C39.3235 45.1815 35.0237 46.8536 37.2287 42.1863C39.4521 37.5007 38.5701 37.5926 38.5701 37.5926C38.5701 37.5926 24.6234 49.7017 23.135 46.3207C22.0141 43.8033 27.0673 38.7135 27.0673 38.7135C27.0673 38.7135 13.4881 49.4629 9.72123 48.8565C6.59747 48.3604 11.0442 38.8788 14.4068 35.0568C17.6041 31.4185 19.7724 30.0588 22.253 28.6439C28.1698 25.2445 38.6803 22.7088 49.2092 24.3809C59.7381 26.053 71.0388 38.7869 69.7709 41.5616C68.503 44.3362 56.3204 36.8943 56.3204 36.8943C56.3204 36.8943 62.4577 45.6225 57.5148 44.52C52.5719 43.3991 49.0622 34.6525 49.0622 34.6525Z" fill="#F39200"/>
<path d="M54.96 64.512C54.96 67.5255 57.3855 69.9511 60.399 69.9511C63.3941 69.9511 65.838 67.5255 65.838 64.512C65.838 61.5169 63.3941 59.073 60.399 59.073C57.4038 59.073 54.96 61.5169 54.96 64.512Z" fill="#F3A5C2"/>
</svg>
