<?xml version="1.0" encoding="utf-8"?>
<!-- Generator: Adobe Illustrator 23.0.1, SVG Export Plug-In . SVG Version: 6.00 Build 0)  -->
<svg version="1.1" id="Layer_1" xmlns="http://www.w3.org/2000/svg" xmlns:xlink="http://www.w3.org/1999/xlink" x="0px" y="0px"
	 viewBox="0 0 265 203" style="enable-background:new 0 0 265 203;" xml:space="preserve">
<style type="text/css">
	.st0{clip-path:url(#SVGID_2_);fill:#005C66;}
	.st1{clip-path:url(#SVGID_2_);fill:#D5C2A2;}
	.st2{clip-path:url(#SVGID_2_);}
	.st3{clip-path:url(#SVGID_2_);fill:#2FAC66;}
	.st4{clip-path:url(#SVGID_2_);fill:#E4D5B8;}
	.st5{clip-path:url(#SVGID_2_);fill:#00A0A4;}
	.st6{clip-path:url(#SVGID_2_);fill:#FDFCF7;}
	.st7{clip-path:url(#SVGID_2_);fill:#007572;}
	
		.st8{clip-path:url(#SVGID_2_);fill:none;stroke:#B9B5A3;stroke-width:0.423;stroke-linecap:round;stroke-linejoin:round;stroke-miterlimit:10;}
	.st9{clip-path:url(#SVGID_2_);fill:none;stroke:#000000;stroke-width:0.603;stroke-linecap:round;}
	.st10{clip-path:url(#SVGID_2_);fill-rule:evenodd;clip-rule:evenodd;fill:#FFFFFF;}
	.st11{clip-path:url(#SVGID_2_);fill-rule:evenodd;clip-rule:evenodd;}
	.st12{display:none;clip-path:url(#SVGID_2_);fill:#2FAC66;}
	.st13{display:none;clip-path:url(#SVGID_2_);fill:#E4D5B8;}
	.st14{fill:#FDFCF7;}
	.st15{fill:none;stroke:#B9B5A3;stroke-width:0.423;stroke-linecap:round;stroke-linejoin:round;stroke-miterlimit:10;}
</style>
<g>
	<g>
		<defs>
			<circle id="SVGID_1_" cx="132.5" cy="101.5" r="101.5"/>
		</defs>
		<clipPath id="SVGID_2_">
			<use xlink:href="#SVGID_1_"  style="overflow:visible;"/>
		</clipPath>
		<circle class="st0" cx="132.5" cy="101.5" r="101.5"/>
		<path class="st1" d="M126.3,133.9l-1.5,42.9l26.8,0.9l1.5-42.9L126.3,133.9z"/>
		<path class="st2" d="M90.4,119.7c0,0-1.4,2.8-3.5,4.4c-2.2,1.6-6.6,2.4-6.6,2.4s6.5,4.9,11.9,1.8c4.6-2.6,4.8-5.9,4.8-5.9
			l-4.3-6.7L90.4,119.7z"/>
		<path class="st3" d="M115.2,147c0,0,9.6-0.4,15.4,2.8c4,5.1,15.3,14,15.3,14s2.6-8.6,4.5-20.8c1.2-1,3.8,2.7,3.8,2.7
			s9.8,18.5,11.4,41.7c1,14.7,5.1,43.2-0.4,44.1c-7.3,2.6-26.4,2.5-40.4,1.1c-13.6-1.4-14.5-2.7-14.7-11c-0.2-8.3,5.9-39.9,5.9-39.9
			s-7.8,16.9-8.9,26.8c-1,10-1.6,23.4-6,23.7c-3.8,0.3-16.7,0.6-16.4-4.6c0.5-9.4,4.7-26.6,10.6-41.3
			C104.2,164.3,115.2,147,115.2,147z"/>
		<path class="st3" d="M154.4,146c0,0,17.9,26.5,23.9,35.5c10.6,15.9,23.1,21.4,23,25.9c-0.1,6-9.2,13.7-11.6,12.7
			c-6.6-2.7-24.5-27.2-28.6-45.3C158.7,163.8,154.4,146,154.4,146z"/>
		<path class="st4" d="M90.9,85.6c0,0-0.9,27.9,5.8,44.4c6.5,15.9,27.3,23.5,43.7,21.8c16.4-1.7,31.3-19.4,33.2-35.9
			c2.6-22-6.8-46.9-7.5-48.2c-4.1-7.1-30.4-1.9-46.1,2.1C104.3,73.8,90.9,85.6,90.9,85.6z"/>
		<path class="st2" d="M141.6,131.3c3-2.6,9.7-5.3,12.7-2c4.7,5.2-1.7,7.7-5.5,8.6c-4.4,1-9.4,5.9-10.7,2
			C136.5,135.4,141.6,131.3,141.6,131.3z"/>
		<path class="st5" d="M170.4,70.1c12.8-1.6,16.6-25.6,1.2-31.7c-14.1-5.7-33.7-1.9-48,2.4C115.8,43,80.3,41,69.3,57.6
			C53.4,81.3,87.3,99.7,94.5,87.7c0,0,25.9-14.8,49.4-16.7C157.2,69.9,170.4,70.1,170.4,70.1z"/>
		<path class="st6" d="M112,79.4c0,0-5.8-15.8-10.2-21.2c-1.4-1.8-4.8-5.7-4.8-5.7l-3.1,8.3l-2.7-14.3c0,0-1.7-2-11.5-6.6l-9.8-4.6
			l-1.2,9.5l-5.4-13.2c0,0-6.8-1.6-15.8-2.1c-8.9-0.5-24.9-1.6-24.9-1.6s13.6,10.9,17.8,15.9c4.2,5,7.2,6.7,7.2,6.7l12.7-5.2
			l-10.2,7.7l20.3,10l11.7-5.7l-7.8,7.4c0,0,19,9,23.1,9.8C101.7,75.3,112,79.4,112,79.4z"/>
		<path class="st7" d="M169.3,76.6c0,0-18.1-1.5-39,3.1C111.6,83.8,98.4,90.6,90,94.5c-4.6-0.7-0.6-8.3-0.6-8.3s15.9-9.5,36.8-13.5
			c25-4.8,31.7-4.3,42.8-3C173.5,73.1,169.3,76.6,169.3,76.6z"/>
		<path class="st8" d="M109,76.3c0,0-16.5-15.2-31.8-24.4c-22-13.2-43.9-19.5-43.9-19.5"/>
		<path class="st8" d="M83.2,52.1L81.7,43"/>
		<path class="st8" d="M62.1,55.1l7.6-4.5"/>
		<path class="st8" d="M83.2,67.2l7.6-4.5"/>
		<path class="st9" d="M145.7,105.1c0,0,7.3,4.9,9.6,5.6c2.3,0.7,3.9,2.5-1.3,4.9c-5.2,2.4-8.7,1.5-8.7,1.5"/>
		<path class="st10" d="M126.3,87c-6.3-0.4-10.4,2.7-11.1,8.5c-0.7,5.8,2.1,10.5,8,11.1c5.9,0.7,10.7-3.1,11.4-8.9
			C135.4,91.9,132.2,87.3,126.3,87z"/>
		<path class="st11" d="M129.5,96c-1.4-0.2-2.1,0.6-2.3,1.9c-0.2,1.3,0.5,2.4,1.9,2.6c1.4,0.1,2.5-0.7,2.6-2
			C131.8,97.2,130.8,96.2,129.5,96z"/>
		<path class="st10" d="M163,84c-5-0.6-7.9,2.8-8.5,8.6c-0.6,5.7,1.8,10.4,6.8,11c5,0.6,9.1-3.1,9.7-8.9C171.6,88.9,168,84.6,163,84
			z"/>
		<path class="st11" d="M167.3,94.5c-1.4-0.1-2.2,0.4-2.3,1.3c-0.1,0.9,0.5,1.6,1.9,1.7c1.4,0.1,2.5-0.5,2.6-1.4
			C169.7,95.3,168.7,94.6,167.3,94.5z"/>
		<path class="st2" d="M86,97.6c-3.3,1.4-12.8,1.1-12.8,1.1s1.7,4,6.9,5.4c1.6,0.4,3.8,0.6,3.8,0.6s-2.5,2-6.2,1.8
			c-3.3-0.2-6.5-1.1-6.5-1.1c-0.2,1.7,6.7,10.6,14.2,7c-3.3,4.3-12.2,4-12.2,4s10.8,8.4,17.9,4c1.6-1,2.8-1.8,2.8-1.8
			s-2.3-12.2-2.1-14.6c0.2-2.2-1.5-9.5-1.5-9.5S90.2,95.9,86,97.6z"/>
		<path class="st4" d="M93.9,100.6c0,0-8.5-0.5-9,4.9c-0.5,4.8,3.6,6.6,6.7,7.1c3.1,0.4,3.9-0.5,3.9-0.5L93.9,100.6z"/>
		<path class="st2" d="M89,96.6c0,0,0.5,2-1.7,3.6c-2.2,1.5-11.6,1.9-11.6,1.9s5.9,5.3,13.3,1.7c4.8-2.4,12.5-13.9,12.5-13.9
			l-11.5,5.1L89,96.6z"/>
		<path class="st3" d="M154.4,146c0,0,17.9,26.5,23.9,35.5c10.6,15.9,23.1,21.4,23,25.9c-0.1,6-9.2,13.7-11.6,12.7
			c-6.6-2.7-24.5-27.2-28.6-45.3C158.7,163.8,154.4,146,154.4,146z"/>
		<path class="st12" d="M115.1,146.8c0,0,9.6-0.4,15.4,2.8c4,5.1,15.3,14,15.3,14s2.6-8.6,4.5-20.8c1.2-1,3.8,2.7,3.8,2.7
			s9.8,18.5,11.4,41.7c1,14.7,5.1,43.2-0.4,44.1c-7.3,2.6-26.4,2.5-40.4,1.1c-13.6-1.4-14.5-2.7-14.7-11c-0.2-8.3,5.9-39.9,5.9-39.9
			s-7.8,16.9-8.9,26.8c-1,10-1.6,23.4-6,23.7c-3.8,0.3-16.7,0.6-16.4-4.6c0.5-9.4,4.7-26.6,10.6-41.3
			C104.1,164,115.1,146.8,115.1,146.8z"/>
		<path class="st13" d="M90.9,85.6c0,0-0.9,27.9,5.8,44.4c6.5,15.9,27.3,23.5,43.7,21.8c16.4-1.7,31.3-19.4,33.2-35.9
			c2.6-22-6.8-46.9-7.5-48.2c-4.1-7.1-30.4-1.9-46.1,2.1C104.3,73.8,90.9,85.6,90.9,85.6z"/>
	</g>
	<path class="st14" d="M112,79.4c0,0-5.8-15.8-10.2-21.2c-1.4-1.8-4.8-5.7-4.8-5.7l-3.1,8.3l-2.7-14.3c0,0-1.7-2-11.5-6.6l-9.8-4.6
		l-1.2,9.5l-5.4-13.2c0,0-6.8-1.6-15.8-2.1c-8.9-0.5-24.9-1.6-24.9-1.6s13.6,10.9,17.8,15.9c4.2,5,7.2,6.7,7.2,6.7l12.7-5.2
		l-10.2,7.7l20.3,10l11.7-5.7l-7.8,7.4c0,0,19,9,23.1,9.8C101.7,75.3,112,79.4,112,79.4z"/>
	<path class="st15" d="M109,76.3c0,0-16.5-15.2-31.8-24.4c-22-13.2-43.9-19.5-43.9-19.5"/>
	<path class="st15" d="M83.2,52.1L81.7,43"/>
	<path class="st15" d="M62.1,55.1l7.6-4.5"/>
	<path class="st15" d="M83.2,67.2l7.6-4.5"/>
</g>
</svg>
