<?xml version="1.0" encoding="UTF-8" standalone="no"?>
<svg
   width="250"
   height="150"
   viewBox="0 0 250 150"
   fill="none"
   version="1.1"
   id="svg742"
   sodipodi:docname="svgCasAnts.svg"
   inkscape:version="1.2.1 (9c6d41e410, 2022-07-14)"
   xmlns:inkscape="http://www.inkscape.org/namespaces/inkscape"
   xmlns:sodipodi="http://sodipodi.sourceforge.net/DTD/sodipodi-0.dtd"
   xmlns="http://www.w3.org/2000/svg"
   xmlns:svg="http://www.w3.org/2000/svg">
  <defs
     id="defs746" />
  <sodipodi:namedview
     id="namedview744"
     pagecolor="#ffffff"
     bordercolor="#000000"
     borderopacity="0.25"
     inkscape:showpageshadow="2"
     inkscape:pageopacity="0.0"
     inkscape:pagecheckerboard="0"
     inkscape:deskcolor="#d1d1d1"
     showgrid="false"
     inkscape:zoom="5.8737864"
     inkscape:cx="103"
     inkscape:cy="62.055372"
     inkscape:window-width="1920"
     inkscape:window-height="1018"
     inkscape:window-x="-8"
     inkscape:window-y="-8"
     inkscape:window-maximized="1"
     inkscape:current-layer="svg742" />
  <path
     d="m 156.06039,95.388728 c 0,0 0.80234,9.266942 1.5026,10.072102 0.70027,0.80515 3.38263,0.17331 3.38263,0.17331"
     stroke="#000000"
     stroke-width="0.348394"
     stroke-linecap="round"
     id="path678" />
  <path
     d="m 168.52904,93.904928 c 0,0 0.87118,9.487802 1.58806,10.276872 0.70026,0.80515 3.99665,0.079 3.99665,0.079"
     stroke="#000000"
     stroke-width="0.348394"
     stroke-linecap="round"
     id="path680" />
  <path
     d="m 180.29664,92.799948 c 0,0 1.41715,9.282302 2.20287,10.024572 0.7691,0.74226 4.21899,-0.29983 4.21899,-0.29983"
     stroke="#000000"
     stroke-width="0.348394"
     stroke-linecap="round"
     id="path682" />
  <path
     d="m 189.35101,70.620479 c 0,0 -3.77509,-10.813634 -3.17769,-11.681898 0.59819,-0.868191 4.86861,-0.426271 4.86861,-0.426271"
     stroke="#000000"
     stroke-width="0.348394"
     stroke-linecap="round"
     id="path684" />
  <path
     d="m 194.84947,70.257246 c 0,0 -0.1535,-11.366126 0.70026,-12.029116 0.85456,-0.663064 4.79978,0.915579 4.79978,0.915579"
     stroke="#000000"
     stroke-width="0.348394"
     stroke-linecap="round"
     id="path686" />
  <path
     d="m 183.44031,83.675528 c -1.58805,-3.425599 -9.47928,-0.789287 -11.75098,3.44146 -3.94601,-1.56284 -7.89122,-1.92593 -12.46944,-1.04187 -3.14288,0.48938 -9.44526,2.85724 -8.9159,6.77236 0.23896,3.3464 6.90056,5.19365 10.04344,5.71433 3.4847,0.61575 10.96605,-0.80516 12.82788,-4.49892 5.55068,5.08322 18.36195,-5.01996 10.265,-10.38736 z"
     fill="#814114"
     id="path688"
     style="stroke-width:0.760685" />
  <path
     d="m 182.3642,70.62026 c -10.06085,9.203472 4.49198,23.600588 15.66296,18.122688 2.63015,-1.29446 9.75306,-8.714016 4.73173,-16.149367 -3.29717,-4.877945 -12.93075,-8.792997 -20.39469,-1.973321 z"
     fill="#a85318"
     id="path690"
     style="stroke-width:0.760685" />
  <path
     d="m 197.71857,73.335478 c -5.02132,-0.678786 -7.66887,7.324853 -1.04129,7.972121 2.85248,0.284107 4.56002,-1.452349 4.57743,-3.867664 0,-2.494222 -1.43455,-3.80448 -3.53614,-4.104457 z"
     fill="#ffffff"
     id="path692"
     style="stroke-width:0.760685" />
  <path
     d="m 198.89755,76.871647 c -0.87118,-0.236793 -1.46858,1.389238 -0.20494,1.515532 0.54676,0.04739 0.85456,-0.252589 0.85456,-0.757766 0.0166,-0.45779 -0.25637,-0.647268 -0.64962,-0.757766 z"
     fill="#000000"
     id="path694"
     style="stroke-width:0.760685" />
  <path
     d="m 193.89284,85.285908 c 0.54676,1.31026 2.18625,2.06795 3.45068,1.89434"
     stroke="#000000"
     stroke-width="0.348394"
     stroke-miterlimit="10"
     stroke-linecap="round"
     stroke-linejoin="round"
     id="path696" />
  <path
     d="m 107.63576,89.421878 c 0,0 -1.22985,14.270682 -0.37584,15.644052 0.85408,1.37337 6.3883,1.01065 6.3883,1.01065"
     stroke="#000000"
     stroke-width="0.420659"
     stroke-linecap="round"
     id="path698" />
  <path
     d="m 122.95651,86.848678 c 0,0 -1.16078,14.617822 -0.30701,15.975842 0.85377,1.37336 6.42264,1.00991 6.42264,1.00991"
     stroke="#000000"
     stroke-width="0.420659"
     stroke-linecap="round"
     id="path700" />
  <path
     d="m 139.62833,77.882002 c 0,0 12.07618,9.124496 13.80113,9.219196 1.70832,0.0947 4.04808,-3.836073 4.04808,-3.836073"
     stroke="#000000"
     stroke-width="0.420659"
     stroke-linecap="round"
     id="path702" />
  <path
     d="m 136.74181,36.50616 c 0,0 -2.06676,-17.396538 -0.87117,-18.533151 1.19559,-1.136612 7.49876,0.757759 7.49876,0.757759"
     stroke="#000000"
     stroke-width="0.420659"
     stroke-linecap="round"
     id="path704" />
  <path
     d="m 148.27045,38.952994 c 0,0 3.58678,-17.175512 5.09017,-17.933256 1.50339,-0.773533 6.91797,2.762599 6.91797,2.762599"
     stroke="#000000"
     stroke-width="0.420659"
     stroke-linecap="round"
     id="path706" />
  <path
     d="m 104.71491,74.251277 c 6.18321,-2.39952 11.88819,-3.06251 17.88395,-2.083747 0.64883,-6.393478 6.91718,-12.660661 16.78971,-8.761405 2.61353,1.152372 5.85927,3.06251 6.25174,6.014521 0,0 0.44389,4.215028 -0.95663,7.088133 -2.61353,5.398919 -7.0881,6.645993 -13.27178,6.030318 -1.07612,-0.110499 -2.04936,-0.363088 -2.92054,-0.678787 -1.00806,6.440788 -12.43479,10.908188 -18.07147,10.939638 -4.91926,0.079 -15.560498,-0.88414 -16.995287,-5.88801 -2.066767,-5.74621 6.695627,-11.0505 11.290307,-12.660661 z"
     fill="#814114"
     id="path708"
     style="stroke-width:0.760685" />
  <path
     d="m 160.62121,59.317464 c -7.12212,12.913176 -24.73237,8.982402 -31.88931,-1.010355 -4.32185,-6.235591 -4.59483,-12.676384 0.81975,-18.801477 5.79043,-6.282906 15.95335,-5.256828 18.32792,-4.751651 2.20286,0.45779 22.56353,6.835472 12.74164,24.563483 z"
     fill="#a85318"
     id="path710"
     style="stroke-width:0.760685" />
  <path
     d="m 160.4313,40.9895 c 4.86783,2.762606 1.99872,9.471783 -2.93794,8.982402 -3.43327,-0.331569 -5.46601,-4.072865 -4.0821,-7.103856 1.58805,-2.952012 4.86782,-3.394079 7.02004,-1.878546 z"
     fill="#ffffff"
     id="path712"
     style="stroke-width:0.760685" />
  <path
     d="m 141.8486,50.587578 c -6.3364,-0.441994 -6.62679,-4.499063 -6.38783,-6.630198 0.6148,-5.572601 9.15486,-6.204072 11.32449,-1.057742 1.3665,3.204673 -1.00806,7.83003 -4.93666,7.68794 z"
     fill="#ffffff"
     id="path714"
     style="stroke-width:0.760685" />
  <path
     d="m 157.80274,44.509726 c 0.25637,0.363087 -0.0514,1.357646 -0.95663,1.247148 -0.80313,-0.110499 -0.99065,-0.836673 -0.81974,-1.183964 0.32441,-0.615676 1.12754,-0.820877 1.77637,-0.06318 z"
     fill="#000000"
     id="path716"
     style="stroke-width:0.760685" />
  <path
     d="m 139.56028,45.220251 c -0.64883,0.347291 -1.50339,-0.06311 -1.60547,-0.773489 -0.13688,-0.852469 0.78572,-1.041947 1.22962,-0.96304 0.75169,0.14209 1.19559,1.183963 0.37585,1.736529 z"
     fill="#000000"
     id="path718"
     style="stroke-width:0.760685" />
  <path
     d="m 153.44607,58.528106 c -4.28783,4.783243 -9.08681,1.010282 -9.2237,-2.052228"
     stroke="#000000"
     stroke-width="0.435112"
     stroke-miterlimit="10"
     stroke-linecap="round"
     stroke-linejoin="round"
     id="path720" />
  <path
     d="m 49.713984,94.678638 c 0,0 -0.461224,10.719302 0.22202,11.729212 0.683251,1.01065 3.860234,0.61575 3.860234,0.61575"
     stroke="#000000"
     stroke-width="0.404685"
     stroke-linecap="round"
     id="path722" />
  <path
     d="m 62.14995,93.621188 c 0,0 -0.41003,10.971592 0.273222,11.981512 0.683251,1.01065 4.560577,0.60039 4.560577,0.60039"
     stroke="#000000"
     stroke-width="0.404685"
     stroke-linecap="round"
     id="path724" />
  <path
     d="m 77.591203,91.221818 c 0,0 5.260841,9.645022 6.405238,10.197882 1.144397,0.55213 4.492291,-1.768272 4.492291,-1.768272"
     stroke="#000000"
     stroke-width="0.404685"
     stroke-linecap="round"
     id="path726" />
  <path
     d="m 85.960661,65.30032 c 0,0 -4.833878,-12.329092 -4.184808,-13.35517 0.649069,-1.02615 5.602506,-0.678859 5.602506,-0.678859"
     stroke="#000000"
     stroke-width="0.404685"
     stroke-linecap="round"
     id="path728" />
  <path
     d="m 92.280443,64.684718 c 0,0 -0.683252,-13.102582 0.273301,-13.89194 0.956473,-0.80508 5.568324,0.884061 5.568324,0.884061"
     stroke="#000000"
     stroke-width="0.404685"
     stroke-linecap="round"
     id="path730" />
  <path
     d="m 79.725781,80.581424 c -1.981391,-3.899182 -10.948803,-0.552492 -13.391339,4.420234 -4.628863,-1.657554 -9.18944,-1.910216 -14.416177,-0.72625 -3.604001,0.67886 -10.777915,3.64667 -9.975119,8.14573 0.427019,3.85172 8.181652,5.73041 11.83695,6.20429 4.048158,0.56821 12.605619,-1.34192 14.58701,-5.66752 6.610253,5.63534 20.940974,-6.50398 11.358675,-12.376484 z"
     fill="#814114"
     id="path732"
     style="stroke-width:0.760685" />
  <path
     d="M 78.358249,64.921437 C 67.170406,75.90868 84.148679,92.610538 96.77131,85.869848 99.743352,84.275408 107.63466,75.45089 101.50264,67.068368 97.488665,61.574747 86.642409,56.775708 78.358249,64.921437 Z"
     fill="#a85318"
     id="path734"
     style="stroke-width:0.760685" />
  <path
     d="m 96.190527,67.589268 c -5.824534,-0.584084 -8.523359,8.729814 -0.854085,9.234991 3.296621,0.205201 5.209648,-1.847027 5.107178,-4.641153 -0.10255,-2.888901 -1.793466,-4.341249 -4.253093,-4.593838 z"
     fill="#ffffff"
     id="path736"
     style="stroke-width:0.760685" />
  <path
     d="m 94.415021,71.157102 c -0.956552,-0.236793 -1.537336,1.578643 -0.170832,1.673345 0.597796,0.03159 0.92237,-0.299903 0.888188,-0.852395 0,-0.520974 -0.290392,-0.726248 -0.717356,-0.82095 z"
     fill="#000000"
     id="path738"
     style="stroke-width:0.760685" />
  <path
     d="m 91.854667,82.033773 c 0.358678,1.847025 2.681734,2.525815 4.611851,1.073465"
     stroke="#000000"
     stroke-width="0.402402"
     stroke-miterlimit="10"
     stroke-linecap="round"
     stroke-linejoin="round"
     id="path740" />
</svg>
