<?xml version="1.0" encoding="UTF-8" standalone="no"?>
<svg
   width="250"
   height="150"
   viewBox="0 0 250 150"
   fill="none"
   version="1.1"
   id="svg432"
   sodipodi:docname="svgCasDucks.svg"
   inkscape:version="1.2.1 (9c6d41e410, 2022-07-14)"
   xmlns:inkscape="http://www.inkscape.org/namespaces/inkscape"
   xmlns:sodipodi="http://sodipodi.sourceforge.net/DTD/sodipodi-0.dtd"
   xmlns="http://www.w3.org/2000/svg"
   xmlns:svg="http://www.w3.org/2000/svg">
  <defs
     id="defs436" />
  <sodipodi:namedview
     id="namedview434"
     pagecolor="#ffffff"
     bordercolor="#000000"
     borderopacity="0.25"
     inkscape:showpageshadow="2"
     inkscape:pageopacity="0.0"
     inkscape:pagecheckerboard="0"
     inkscape:deskcolor="#d1d1d1"
     showgrid="false"
     inkscape:zoom="4.384058"
     inkscape:cx="138"
     inkscape:cy="78.123967"
     inkscape:window-width="1920"
     inkscape:window-height="1018"
     inkscape:window-x="-8"
     inkscape:window-y="-8"
     inkscape:window-maximized="1"
     inkscape:current-layer="svg432" />
  <path
     d="m 44.624944,109.39347 c 0,0 2.360335,4.29069 1.115128,6.36641 -1.096545,1.81661 -2.899316,3.51192 -2.378996,3.616 1.152371,0.22466 9.497243,1.72977 9.34858,2.12812 -0.130081,0.39763 -1.932929,0.0689 -2.267421,1.27974 -0.334569,1.21156 -0.576146,2.00682 -1.00363,2.02404 -0.427406,0.0172 -2.434743,-0.17297 -2.527657,0.76153 -0.111498,0.93451 0.390317,2.49129 -0.631896,1.747 -1.022212,-0.74359 -6.783755,-6.22789 -6.988167,-7.5428 -0.09291,-0.65746 2.397578,-2.7504 3.88444,-5.13762 1.486862,-2.37071 -1.486862,-5.86542 -1.486862,-5.86542 z"
     fill="#f39200"
     id="path384"
     style="stroke-width:0.743932" />
  <path
     d="m 56.594713,108.39006 c 0,0 1.524105,1.90347 2.434743,4.41199 0.910715,2.54297 -0.07433,6.08935 0.4089,5.77785 0.966464,-0.60506 7.211165,-4.67109 7.415647,-4.28997 0.204415,0.38041 -0.483226,1.52234 0.185833,2.59465 0.687718,1.07232 1.096547,1.17639 0.817803,1.47067 -0.278821,0.29427 -1.82143,1.48788 -1.170876,2.21424 0.650476,0.70913 2.193007,1.48789 0.910637,1.64364 -1.300961,0.15575 -8.084713,0.46725 -9.404252,-0.0517 -1.877179,-0.72708 -0.53898,-5.06943 -2.007259,-8.54691 -1.152293,-2.73318 -2.73207,-4.94743 -2.73207,-4.94743 z"
     fill="#f39200"
     id="path386"
     style="stroke-width:0.743932" />
  <path
     fill-rule="evenodd"
     clip-rule="evenodd"
     d="M 71.090824,78.114894 C 72.875012,68.115408 55.701963,61.645145 48.788127,71.92147 c -3.122387,4.671019 1.858597,13.390342 -12.024822,13.840148 -8.642315,0.276764 -15.072946,-3.66768 -15.072946,-3.66768 0,0 -8.121857,34.652122 30.759136,30.465502 18.808579,-2.02403 20.035202,-16.417702 18.083696,-26.330711 -1.077964,-5.43226 0.557633,-8.113835 0.557633,-8.113835 z"
     fill="#ffde00"
     id="path388"
     style="stroke-width:0.743932" />
  <path
     fill-rule="evenodd"
     clip-rule="evenodd"
     d="m 70.720248,73.755311 c 0,0 1.598365,2.491149 7.67581,2.283583 3.140974,-0.121159 2.955142,2.041411 1.672694,3.217865 -2.769241,2.491226 -9.775983,5.466859 -9.775983,5.466859 0,0 -1.226632,-1.297545 -1.263875,-3.996338 -0.07435,-4.117497 1.691354,-6.971969 1.691354,-6.971969 z"
     fill="#f39200"
     id="path390"
     style="stroke-width:0.743932" />
  <path
     fill-rule="evenodd"
     clip-rule="evenodd"
     d="m 42.599256,102.23109 c 14.180822,0.79598 13.902079,-7.8543 10.42654,-10.431723 -3.382547,-2.508522 -5.910206,-0.01723 -12.377975,-0.03446 -7.582896,-0.01723 -12.247887,-2.456848 -12.247887,-2.456848 0,0 0.724802,12.144981 14.199322,12.923021 z"
     fill="#ffe971"
     id="path392"
     style="stroke-width:0.743932" />
  <path
     d="m 60.645859,79.844808 c 2.471829,0.58827 4.330424,-0.605421 4.980909,-2.785285 0.631894,-2.162493 -0.576147,-4.100193 -3.066641,-4.688385 -2.471832,-0.588192 -4.497675,0.813134 -5.129571,2.975632 -0.631971,2.179864 0.743393,3.909845 3.215303,4.498038 z"
     fill="#ffffff"
     id="path394"
     style="stroke-width:0.743932" />
  <path
     d="m 62.466364,76.921213 c 0.520393,0.121082 0.836389,-0.155672 0.947882,-0.518995 0.111494,-0.363324 -0.148667,-0.726647 -0.557564,-0.830435 -0.408823,-0.103787 -0.836307,0.121083 -0.929222,0.467111 -0.111574,0.380618 0.130003,0.795836 0.538904,0.882319 z"
     fill="#000000"
     id="path396"
     style="stroke-width:0.743932" />
  <path
     d="m 183.66324,39.033855 c -0.22284,-2.612308 -1.85906,-10.466672 -1.85906,-10.466672 0,0 9.94377,2.006889 13.45602,0.951588 3.53151,-1.038004 10.90993,-6.677879 10.8359,-0.968813 -0.0748,5.726319 -5.66894,11.83326 -8.19652,13.701695 -8.27054,6.10694 -14.40366,6.055047 -14.40366,6.055047 0,0 0.37166,-6.954669 0.16732,-9.272845 z"
     fill="#fbba00"
     id="path398"
     style="stroke-width:0.743932" />
  <path
     d="m 126.90217,101.27935 c 0,0 -3.01104,5.38094 -5.92879,8.13135 -2.56459,2.42239 -6.20792,4.35959 -5.42682,4.73999 1.70947,0.81321 14.16155,6.55732 13.75288,7.14516 -0.40867,0.57132 -3.08507,-0.65746 -4.16303,1.10748 -1.09647,1.76422 -1.85829,2.92338 -2.52758,2.78485 -0.6878,-0.1378 -3.75436,-1.24529 -4.33035,0.19092 -0.59527,1.4355 -0.53898,4.09977 -1.80278,2.49058 -1.26379,-1.59124 -7.78785,-12.54261 -7.49021,-14.68723 0.14882,-1.07303 5.09218,-3.37412 8.51189,-6.52216 3.42048,-3.14875 5.33429,-7.145152 5.33429,-7.145152 z"
     fill="#fbba00"
     id="path400"
     style="stroke-width:0.743932" />
  <path
     d="m 148.8531,101.88514 c 0,0 2.13742,3.33894 3.14059,7.56001 1.02244,4.29068 0.92914,9.4807 1.76576,9.04862 1.69096,-0.84765 12.56388,-6.45325 12.84224,-5.81302 0.26062,0.64023 -1.07797,2.40444 -0.14805,4.23829 0.92914,1.85106 1.57916,2.07644 1.05945,2.50852 -0.52047,0.4328 -3.23388,2.14534 -2.32324,3.40858 0.92915,1.26251 3.30791,2.7504 1.17049,2.80207 -2.13741,0.0525 -13.23317,-0.51893 -15.27729,-1.55679 -2.93625,-1.48789 -2.11891,-7.90597 -3.86539,-13.80584 -1.3756,-4.6187 -3.53152,-8.45935 -3.53152,-8.45935 z"
     fill="#fbba00"
     id="path402"
     style="stroke-width:0.743932" />
  <path
     d="m 182.84513,28.809351 c -4.12602,-16.971444 -39.94009,-19.4453918 -40.5531,11.435413 -0.26061,12.611799 -4.31261,14.653211 -4.31261,14.653211 l 43.28656,12.611871 c 0.0185,0 5.24098,-23.631996 1.57915,-38.700495 z"
     fill="#2fac66"
     id="path404"
     style="stroke-width:0.743932" />
  <path
     d="m 181.72939,64.724562 c 0,0 8.12172,25.240969 -17.3962,36.382528 -17.95369,7.83636 -42.30036,7.57725 -57.67095,-3.581552 C 91.291964,86.367039 78.616586,60.831939 81.107084,60.312936 c 2.490488,-0.519002 6.170434,2.404808 6.170434,2.404808 0,0 -4.869404,-6.989265 -3.010888,-6.971968 1.858604,0.0346 7.378484,4.688316 7.378484,4.688316 0,0 -4.460507,-5.34577 -1.802769,-4.619196 3.252467,0.899622 7.527152,6.228095 16.095095,7.369886 18.91984,2.508521 33.02664,-8.511605 33.02664,-8.511605 z"
     fill="#c4c0b4"
     id="path406"
     style="stroke-width:0.743932" />
  <path
     d="m 182.86364,61.368239 -0.11103,8.23484 c 0,0 -16.87574,-2.560414 -24.06831,-3.979039 -16.28123,-3.217797 -20.70488,-10.708767 -20.70488,-10.708767 l 1.98937,-5.916665 c 0,0 1.13347,4.895887 15.29579,8.823033 6.30045,1.730054 27.59906,3.546598 27.59906,3.546598 z"
     fill="#ffffff"
     id="path408"
     style="stroke-width:0.743932" />
  <path
     d="m 161.97447,38.410995 c 3.64255,0.501705 6.09611,-1.608826 6.63509,-4.999674 0.53898,-3.390846 -1.52364,-6.124309 -5.16696,-6.626013 -3.64256,-0.501705 -6.28194,1.937627 -6.82092,5.328473 -0.52048,3.373548 1.72874,5.778212 5.35279,6.297214 z"
     fill="#ffffff"
     id="path410"
     style="stroke-width:0.743932" />
  <path
     d="m 164.09261,33.670787 c 0.78033,0.103786 1.1705,-0.363323 1.2638,-0.934219 0.0925,-0.570966 -0.33465,-1.089896 -0.92915,-1.176456 -0.61377,-0.08649 -1.17126,0.294132 -1.24529,0.865027 -0.0933,0.570895 0.31537,1.176457 0.91064,1.245648 z"
     fill="#000000"
     id="path412"
     style="stroke-width:0.743932" />
  <path
     d="m 120.37966,68.790161 c -11.72727,0.501704 -19.34702,-7.940781 -17.58204,-2.352771 1.74726,5.587938 8.62369,23.476458 25.68525,21.10618 17.06155,-2.370145 21.07654,-14.411047 13.86546,-20.206629 -7.11856,-5.726319 -13.32648,1.072599 -21.96867,1.45322 z"
     fill="#dad8cc"
     id="path414"
     style="stroke-width:0.743932" />
  <path
     d="m 179.25809,41.542161 c 0,0 -0.92914,1.868437 -2.49056,2.127973 -1.9701,0.328656 -2.99254,-1.124564 -2.99254,-1.124564"
     stroke="#000000"
     stroke-width="0.453798"
     id="path416" />
  <path
     d="m 195.52236,109.56645 c 0,0 -2.0071,3.58155 -3.94018,5.43262 -1.71025,1.62641 -4.14453,2.90615 -3.62406,3.16598 1.13348,0.53615 9.44104,4.37681 9.16268,4.75722 -0.27913,0.38039 -2.04489,-0.43209 -2.78821,0.74429 -0.7248,1.17639 -1.24528,1.95443 -1.69096,1.85107 -0.44645,-0.0868 -2.50907,-0.83043 -2.88074,0.12058 -0.39015,0.95174 -0.35315,2.7339 -1.20827,1.66087 -0.85511,-1.05509 -5.20397,-8.356 -4.99964,-9.80872 0.0933,-0.70913 3.3827,-2.24942 5.66893,-4.34236 2.28624,-2.09367 3.56853,-4.77516 3.56853,-4.77516 z"
     fill="#f39200"
     id="path418"
     style="stroke-width:0.743932" />
  <path
     d="m 205.26103,109.04752 c 0,0 1.41261,2.21425 2.1004,5.03426 0.66853,2.85449 0.613,6.31474 1.189,6.03769 1.11497,-0.57062 8.38235,-4.3072 8.56817,-3.87512 0.18583,0.4328 -0.7248,1.59196 -0.0933,2.82003 0.63228,1.22806 1.05946,1.38381 0.70631,1.67809 -0.35315,0.29428 -2.15593,1.43621 -1.54215,2.26664 0.613,0.84766 2.21144,1.83384 0.78033,1.86829 -1.43112,0.0345 -8.82803,-0.34595 -10.18512,-1.03786 -1.95159,-1.0034 -1.41261,-5.27687 -2.58309,-9.20365 -0.91065,-3.07985 -2.36027,-5.64005 -2.36027,-5.64005 z"
     fill="#f39200"
     id="path420"
     style="stroke-width:0.743932" />
  <path
     fill-rule="evenodd"
     clip-rule="evenodd"
     d="m 223.08363,75.43333 c 1.95159,-10.899115 -16.76392,-17.957643 -24.31042,-6.747098 -3.40044,5.086233 2.02639,14.584016 -13.08359,15.068431 -9.42329,0.31143 -16.43004,-3.996338 -16.43004,-3.996338 0,0 -8.84653,37.766485 33.52861,33.198755 20.49978,-2.21424 21.83759,-17.905602 19.70094,-28.683422 -1.20827,-5.916666 0.5945,-8.840328 0.5945,-8.840328 z"
     fill="#ffde00"
     id="path422"
     style="stroke-width:0.743932" />
  <path
     fill-rule="evenodd"
     clip-rule="evenodd"
     d="m 222.65568,70.675822 c 0,0 1.74726,2.716094 8.36384,2.473855 3.43822,-0.138381 3.23389,2.231759 1.82129,3.494629 -3.01105,2.716173 -10.64931,5.951265 -10.64931,5.951265 0,0 -1.33859,-1.418551 -1.3756,-4.359585 -0.074,-4.446151 1.83978,-7.560164 1.83978,-7.560164 z"
     fill="#f39200"
     id="path424"
     style="stroke-width:0.743932" />
  <path
     fill-rule="evenodd"
     clip-rule="evenodd"
     d="m 192.00935,101.71216 c 15.46312,0.88283 15.14698,-8.56343 11.35561,-11.366231 -3.67957,-2.733171 -6.44927,-0.01723 -13.49303,-0.03445 -8.27054,-0.01723 -13.3442,-2.664126 -13.3442,-2.664126 0,0 0.79883,13.217137 15.48162,14.064797 z"
     fill="#ffe971"
     id="path426"
     style="stroke-width:0.743932" />
  <path
     d="m 211.69179,77.319059 c 2.6949,0.640087 4.72051,-0.674753 5.42681,-3.02752 0.68781,-2.370141 -0.63227,-4.463518 -3.32718,-5.103603 -2.69491,-0.640086 -4.88783,0.882324 -5.59415,3.252464 -0.7063,2.352772 0.78033,4.238505 3.49452,4.878659 z"
     fill="#ffffff"
     id="path428"
     style="stroke-width:0.743932" />
  <path
     d="m 213.67961,74.11849 c 0.57599,0.138382 0.91064,-0.173049 1.02168,-0.570966 0.1118,-0.397919 -0.14805,-0.795765 -0.613,-0.899551 -0.44569,-0.103858 -0.91064,0.121084 -1.02245,0.519001 -0.0925,0.397919 0.16732,0.847731 0.61377,0.951516 z"
     fill="#000000"
     id="path430"
     style="stroke-width:0.743932" />
</svg>
