<?xml version="1.0" encoding="UTF-8" standalone="no"?>
<!-- Generator: Adobe Illustrator 25.3.1, SVG Export Plug-In . SVG Version: 6.00 Build 0)  -->

<svg
   version="1.1"
   id="Layer_1"
   x="0px"
   y="0px"
   viewBox="0 0 250 150"
   xml:space="preserve"
   sodipodi:docname="svgCas20bg.svg"
   width="250"
   height="150"
   inkscape:version="1.2.1 (9c6d41e410, 2022-07-14)"
   xmlns:inkscape="http://www.inkscape.org/namespaces/inkscape"
   xmlns:sodipodi="http://sodipodi.sourceforge.net/DTD/sodipodi-0.dtd"
   xmlns="http://www.w3.org/2000/svg"
   xmlns:svg="http://www.w3.org/2000/svg"><defs
   id="defs1099" /><sodipodi:namedview
   id="namedview1097"
   pagecolor="#ffffff"
   bordercolor="#000000"
   borderopacity="0.25"
   inkscape:showpageshadow="2"
   inkscape:pageopacity="0.0"
   inkscape:pagecheckerboard="0"
   inkscape:deskcolor="#d1d1d1"
   showgrid="false"
   inkscape:zoom="1.4671429"
   inkscape:cx="485.97856"
   inkscape:cy="132.57059"
   inkscape:window-width="1920"
   inkscape:window-height="1018"
   inkscape:window-x="-8"
   inkscape:window-y="-8"
   inkscape:window-maximized="1"
   inkscape:current-layer="Layer_1" />
<style
   type="text/css"
   id="style964">
	.st0{fill:#2BB673;}
	.st1{fill:#DAD8CC;}
	.st2{fill:#E4D5B8;}
	.st3{fill:#007572;}
	.st4{fill:#D5C2A2;}
	.st5{fill:#B91919;}
	.st6{fill:#E30613;}
	.st7{fill:#2FAC66;}
	.st8{fill:none;stroke:#007572;stroke-width:0.808;stroke-linecap:round;}
	.st9{fill:none;stroke:#B9B5A3;stroke-width:0.538;stroke-linecap:round;stroke-linejoin:round;stroke-miterlimit:10;}
	.st10{fill:#00A0A4;}
	.st11{fill-rule:evenodd;clip-rule:evenodd;fill:#FFFFFF;}
	.st12{fill-rule:evenodd;clip-rule:evenodd;}
	.st13{fill:none;stroke:#000000;stroke-width:0.823;stroke-linecap:round;}
</style>
































































<g
   id="g1151"
   transform="translate(39.756571,-8)"><path
     class="st1"
     d="m 88.119919,141.3724 c 0.641416,-0.054 -0.356342,-0.10802 0.427611,-0.054 -0.07127,0.054 -0.213805,0.054 -0.427611,0.054 z"
     id="path996"
     style="stroke-width:0.620428" /><path
     class="st1"
     d="m 76.075556,144.39704 c 1.069027,0.054 2.351858,-0.21604 3.492153,0.21605 0.641416,0.32406 -1.924247,0.4861 -2.636932,0.70214 -0.285073,0.0541 0.07127,-0.21604 -0.570147,-0.10802 -2.209321,0.4861 -5.772742,0.27006 -8.480942,-0.16203 l 0.142537,-0.054 c -0.498879,-0.0541 -1.140295,0.10802 -1.710443,0 0,-0.0541 0.213806,-0.0541 0.07127,-0.10802 -0.142537,0.10802 -0.997758,0 -1.211564,0.054 -0.213805,-0.054 -0.142536,-0.16203 -0.42761,-0.21604 l -0.356342,0.10802 c -0.92649,0.21605 -2.138053,-0.21605 -3.349616,-0.21605 0.07127,0 0.213805,-0.054 0.07127,-0.054 -1.924247,-0.0541 -4.276105,-0.4861 -6.414157,-0.9182 0.07127,0 0.213804,-0.10802 0.142536,-0.16203 -0.142536,0.10802 -0.783953,0 -1.3541,-0.10802 -0.213805,-0.21605 -0.997758,-0.16204 -1.567905,-0.4321 h 0.07127 c -0.570147,-0.054 -0.570147,-0.37808 -1.069026,-0.37808 0.213805,-0.86417 0.285073,-0.21604 0.42761,-0.37808 0.142537,-0.21604 0.783953,0 1.140295,-0.16203 v -0.054 c 0.356342,-0.10802 0.570147,-0.054 0.926489,-0.10802 h 0.07127 c 0.855221,-0.10803 1.3541,0 1.282831,-0.16203 0.285073,0.10802 -0.783952,0.10802 -0.356342,0.27005 2.779469,-0.32407 5.630205,-0.16203 8.480942,-0.054 0.285074,0.10802 0.498879,0.10802 0.570147,0.16203 0.285074,0 1.069027,0 1.282832,-0.054 -0.07127,0 0.142537,0.10802 0.285074,0.10802 0.498879,0.10802 0.570147,-0.16204 1.140294,-0.0541 -0.213805,0.0541 -0.285073,0.10803 -0.213805,0.16204 0.498879,-0.10802 1.140295,-0.054 1.710442,-0.054 -0.07127,0 -0.213805,0.054 -0.213805,0.10803 0.641416,-0.10803 1.140295,0.10802 1.639174,0.054 l -0.213806,0.10802 c 0.855221,0.16204 0.285074,-0.16203 0.997758,-0.054 -0.213805,0 -0.142537,0.054 -0.142537,0.10802 0.712685,-0.10802 1.852979,0 2.565664,-0.0541 v 0.0541 c 0.783952,0 1.567905,0.10802 2.423126,0.054 0.285073,0.054 -0.142537,0.21606 0.712684,0.21606 0,-0.16204 1.3541,-0.054 0.926489,-0.27006 0.712685,0.054 1.781711,0.16203 2.209321,0.10802 -0.285073,0.054 0.356343,0.21604 -0.213804,0.21604 l 0.42761,0.10803 c -0.07127,0.054 -0.42761,-0.054 -0.285074,0.054 0.285074,0 1.140295,-0.054 1.354101,0 0.570146,-0.10802 1.069025,-0.27006 1.924246,-0.27006 -0.42761,0.054 0.213806,0.21605 -0.07127,0.21605 l 1.211562,-0.32407 c 0.285075,0 0.07127,0.16204 0.498879,0.10802 0,-0.054 0.142538,-0.054 0.285075,-0.10802 0.142536,0.054 1.211562,0 1.282831,0.21604 0.142537,0.10803 -0.498879,0 -0.142537,0.10803 0.498879,0.054 0.570148,-0.054 1.069027,0 v 0 c 0.356341,0.054 1.069026,0 0.712683,-0.16203 -0.213804,0 0.07127,0.10802 -0.285073,0.054 0.285073,-0.10802 0.855221,-0.054 1.425368,0 -0.213805,0 -0.142537,0.0541 -0.213805,0.10802 0.712685,-0.10802 1.496637,-0.054 2.351858,0 0.07127,-0.10802 -0.356342,0.10803 -0.427611,0.054 0.498879,0.16203 0.997758,0.16203 1.639175,0.37808 1.425368,0.75615 -0.498879,1.56632 -0.641417,1.40429 0.142538,-0.054 0.142538,0.10803 0.142538,0.054 -0.570148,0.16204 -0.570148,0 -0.92649,0.10802 -0.07127,-0.054 -0.42761,0.0541 -0.712685,0.16204 -0.142536,0.0541 -0.07127,0 0.213806,-0.054 -0.498879,0.16203 -2.280589,0.37808 -3.420885,0.32407 0,0.054 -0.641415,0.21604 -0.855221,0.21604 l 0.07127,-0.10802 c -0.213806,-0.054 -0.783953,0.054 -0.855222,-0.054 -0.498878,0.16203 1.995516,-0.21605 1.282833,-0.054 -0.213806,-0.10802 -0.997759,0.21604 -0.855222,0.054 -0.498878,0 -0.926489,0.16203 -1.425368,0.054 0.142536,0 0.356342,-0.16204 0,-0.16204 -0.712685,0.0541 -0.213806,0.0541 -0.783953,0.10803 l -0.356342,0.054 c 0,0.10802 -0.641416,0 -0.356342,0.10802 -0.07127,-0.10802 -0.997758,0.10802 -0.926489,-0.10802 l 0.07127,-0.16204 c -0.285073,0 -0.498879,0.16204 -0.712684,0.21605 -0.07127,0 -0.142537,-0.054 -0.142537,-0.054 -0.07127,0.21605 -0.712684,0 -1.069026,0.16204 -0.641416,-0.054 -1.639174,0 -1.924247,-0.10803 -0.498879,0.054 -0.926489,0.16204 -1.496637,0.10803 0.142537,0 0.285073,-0.054 0.285073,-0.10803 -0.356342,-0.054 -0.42761,0 -0.783952,0.054 0.07127,-0.054 -0.712685,-0.10802 -1.069027,-0.21604 -0.498879,0.054 -0.285073,0.21604 -0.356342,0.27006 -0.42761,-0.21605 -1.3541,0.16203 -1.924247,-0.054 0.142537,-0.0541 0.712685,-0.10802 0.285074,-0.16203 -0.427611,-0.21605 -0.855222,0.16203 -1.639174,0.054 l 0.213806,0.16204 c -0.285075,-0.10803 -1.069027,0.10802 -0.997758,-0.054 -0.213806,0.054 -0.855221,-0.0541 -0.783953,0.10803 -1.140295,-0.16204 -2.850737,0.10802 -3.563421,-0.21605 -0.142537,0.054 -0.570148,0 -0.49888,0.10802 0.285075,0.10803 0.356343,-0.0541 0.49888,0 -0.142537,0 -0.213805,0.054 -0.213805,0.10803 -0.356343,-0.054 -0.641416,-0.054 -0.285075,-0.21605 -0.783952,-0.10802 -0.85522,0.32407 -1.852978,0.27006 0.07127,-0.054 0,-0.10802 -0.356342,-0.10802 l -0.570148,0.10802 c -0.641415,-0.054 -0.356342,-0.16204 -0.42761,-0.32407 -0.356342,0 -0.783953,0 -0.92649,0.10802 l -0.42761,-0.16203 c 0.285074,0.10802 -0.285074,0.054 -0.427611,0.10802 l 0.142537,-0.054 c -0.07127,-0.054 -0.498879,0 -0.712684,0 0.07127,0.054 0.498879,0.10802 0.712684,0.16203 -0.213805,0.054 -0.498879,0.054 -0.712684,0.10803 0.07127,-0.10803 -0.570147,-0.10803 -0.855221,-0.10803 -0.356342,-0.054 -0.356342,0.10803 -0.498879,0.10803 0,-0.054 -0.498879,0 -0.285074,-0.10803 0.142538,0 0.213805,0.054 0.427611,0 -0.213806,-0.054 -0.213806,-0.16203 -0.641416,-0.10802 -0.356342,0.054 0.07127,0.27006 -0.570147,0.16204 0.142536,-0.054 0.213805,-0.054 0.356342,-0.10803 l -0.570148,-0.054 v 0.10802 c -0.07127,-0.0541 0,-0.0541 -0.07127,-0.0541 -0.213806,0.10803 -0.92649,0 -1.069027,0.16204 -0.285073,0 -0.641416,-0.10802 -0.926489,-0.10802 h 0.07127 c -0.356342,-0.0541 -0.783952,-0.0541 -1.140294,0 v 0 c -0.213806,0 -0.641416,0 -0.855221,0.054 -0.498879,-0.10803 -0.142537,-0.4321 -0.712685,-0.32407 -0.498879,0 -0.783952,0.16203 -0.570147,0.27006 -0.855221,-0.10803 -1.924247,0 -2.7082,-0.21605 -0.142536,0.054 -0.07127,0.054 -0.285073,0.054 -1.282832,-0.16203 -2.779469,-0.054 -3.777227,-0.43209 0.356342,0 0.07127,-0.10802 0.07127,-0.16204 -0.356342,0.054 -0.356342,-0.16203 -0.498879,0 0,0.10802 0,0.16204 0.356341,0.21605 -0.783952,-0.054 -1.995516,-0.16203 -2.351857,-0.32407 0.213805,0.10802 0,0.10802 -0.142537,0.10802 0.07127,-0.16203 -0.498879,-0.27005 -0.92649,-0.27005 l -0.07127,0.10802 -0.285073,-0.16203 c -0.142537,0 -0.213806,0.16203 -0.641416,0 0,-0.054 0,-0.10803 -0.07127,-0.10803 -0.641415,-0.16203 -0.783952,0.32407 -2.138052,-0.59412 -0.142537,0.054 -0.213805,-0.91819 0.42761,-1.13424 0.427611,-0.16203 0.285074,-0.054 0.427611,-0.054 0.285074,-0.054 0.712685,-0.21604 0.213806,-0.16203 1.069025,0 1.496636,0 1.78171,0.10802 1.425369,-0.32407 3.492152,-0.37808 5.131326,-0.32407 l -0.07127,0.0541 c 0.42761,0.054 0.213806,-0.10803 0.570147,-0.0541 -0.142537,0.0541 0.356342,0.16204 0,0.21605 0.641417,0.10802 0.783953,-0.10803 1.211563,-0.16203 0.07127,-0.10803 -0.356342,0.054 -0.213804,-0.0541 0.07127,-0.054 0.85522,0.10802 0.997758,-0.054 0.142536,0.054 0,0.16203 -0.07127,0.21605 l 0.356342,-0.054 c 0.498879,0.16204 -1.069026,0.32407 -0.570147,0.54012 h 0.356342 c 0.356342,0.16203 -0.926489,0.16203 -0.07127,0.21604 0.356342,-0.054 0.712684,-0.27005 0.356342,-0.37808 0.783953,-0.0541 0.356342,-0.32406 1.211563,-0.32406 0.213806,0.10802 -0.712684,0 -0.498879,0.16203 0.427611,0.10802 0.783953,-0.054 1.211564,0 -0.427611,-0.054 -0.07127,-0.21605 0.213805,-0.21605 0.42761,0.054 -0.285074,0.16204 0.356342,0.16204 0.07127,-0.10802 0.712684,-0.16204 0.213805,-0.21604 0.213805,-0.21606 0.641416,0.054 0.997758,-0.10803 0.213805,0.16203 -0.641416,0.32407 0.07127,0.37808 -0.142536,-0.10803 0.855221,-0.16203 0.498879,-0.37808 0.285074,0.054 0.285074,0.16203 0.07127,0.21605 0.356341,0.10802 0.926489,-0.21605 1.069025,0 l 0.142537,-0.16204 c 0.142537,0.0541 0.285074,0.0541 0.498879,0.16204 0.356342,0 1.069027,-0.16204 1.069027,0 0.142536,0 0.855221,0 0.570147,-0.16204 -0.498879,-0.10802 -0.570147,0.10802 -0.783953,-0.10802 0.356342,0.16204 0.712685,0 0.997758,-0.0541 l 0.07127,0.0541 c 0.142536,-0.0541 0.570146,0 0.641415,-0.10802 -0.142537,0.054 -0.07127,0.10802 0.07127,0.10802 l 0.142536,-0.10802 c 0.641416,-0.054 0.142537,0.21604 0.783953,0.16203 l -0.498879,0.10803 c 0.142536,0 0.356342,0.10802 0.641415,0.054 0.142537,-0.10802 0.356343,-0.27006 0.427611,-0.32406 0.356343,-0.054 0.142537,0.10802 0.498879,0 l -0.427611,0.16202 c -0.07127,0.054 0.285075,0.16204 0.855221,0.16204 0.285075,-0.054 0.783954,-0.21604 0.285075,-0.27006 0.213804,0 0.570147,0.0541 0.42761,0.10802 0.570148,-0.054 -0.07127,-0.10802 0.356342,-0.21604 0.213806,0.054 0.783952,0.10802 1.211563,0.21604 l -0.498878,0.21606 h 0.356341 c -0.42761,0.16203 0.213805,0.10802 0,0.27005 0.213805,0 0.498879,-0.054 0.712684,-0.10802 -0.712684,-0.21605 0.712685,-0.37809 0.498879,-0.59413 0.92649,-0.10802 0.641416,0.4861 1.567906,0.10802 -0.142537,-0.054 0.285073,-0.27005 -0.285074,-0.16203 0.570147,0 0.356342,-0.27006 1.069026,-0.21604 -0.498879,0.10802 0.570148,0.16203 -0.142537,0.37807 0.07127,-0.054 -0.42761,0 -0.498879,0 0.213806,0.0541 0,0.21605 0.570148,0.16204 0.356342,-0.054 0.855221,-0.10802 0.712684,-0.21604 0,-0.10803 -0.570147,0.054 -0.356342,-0.10803 0.712684,-0.10802 0.855221,0.10803 1.140295,-0.16203 -0.427611,0.054 -0.570148,-0.054 -0.570148,-0.16204 l 0.498879,-0.10802 -0.07127,0.10802 c 0.855221,0 0.213804,-0.16203 1.069025,-0.21604 l 0.427611,0.16203 c -0.142536,0.16204 -1.211563,0.054 -0.997757,0.27006 0.498879,-0.054 0.712683,-0.16204 1.211562,-0.16204 l -0.356341,0.0541 c 0.213804,0 0.42761,0.27005 1.140294,0.054 0.356342,-0.10802 0.07127,-0.10802 0.07127,-0.16203 0.855221,-0.10802 1.069026,-0.21605 1.639174,-0.27005 -0.07127,0.16203 0.997758,-0.0541 0.356341,0.16203 -0.285073,-0.054 -1.496636,0.054 -1.78171,0.21605 0.356342,0.16203 -0.641415,0 -0.783952,0.27005 0.712683,-0.054 0.641416,0.16204 0.783952,0.27006 0.213806,0 0.356342,-0.054 0.498879,-0.10802 0.07127,-0.10803 -0.213805,-0.10803 -0.213805,-0.21605 0.783953,-0.054 1.496636,-0.16204 1.852979,-0.32407 0.285074,0.054 0.213805,0.16203 -0.07127,0.21605 0.855221,-0.10802 1.852979,-0.16204 2.7082,-0.21605 -0.570147,-0.16203 0.926489,-0.10802 0.570147,-0.27005 -0.498879,0 -0.855221,-0.10803 -0.641415,-0.21605 0.285073,0 0,0.10802 0.142536,0.10802 0.356342,-0.16203 0.570148,0.10803 0.92649,-0.0541 -0.783953,0.16204 -0.142537,0.27006 -0.213805,0.43209 0.570147,-0.16203 0,0.10803 0.570147,0.054 0.570147,-0.16203 1.282832,-0.27006 1.924247,-0.32406 0.855221,0.10802 2.066785,-0.16204 2.850737,-0.21605 0.427611,0.054 0.142537,0.27005 0.570148,0.27005 0.498879,-0.054 -0.356342,-0.16202 0.356342,-0.16202 l -0.07127,0.054 c 0.213805,-0.054 1.3541,0.0541 1.567905,-0.21604 l -0.213805,0.21604 c 0.142536,0 0.285073,-0.054 0.356342,-0.054 0,0.054 0.213805,0.10802 -0.07127,0.16202 0.427611,0.10803 0.92649,-0.10802 1.425369,-0.10802 l -0.356342,-0.10802 c 0.855221,-0.16204 1.425368,-0.054 2.209321,-0.16204 v 0.10803 l 0.498879,-0.10803 c -0.142537,0.10803 0.356342,0.16204 0.570147,0.054 l -1.211563,0.32407 c -0.356342,-0.054 0.356342,-0.16203 0.142537,-0.27006 -0.213805,-0.10803 -0.92649,0 -1.069027,0.10803 0.285074,0 0.285074,-0.0541 0.498879,-0.10803 0.142537,0.16203 -0.356342,0.16203 -0.498879,0.27006 0.142537,0 0.356343,0 0.427611,-0.054 -0.285074,0.10802 -0.570147,0.10802 -1.069026,0.16203 0.356342,-0.10802 -0.213806,-0.10802 -0.07127,-0.16203 0,0.16203 -0.498879,0.21604 -1.069025,0.21604 -0.427611,-0.16203 -1.140296,0.16204 -1.852979,0.16204 0.285073,-0.16204 0.641415,-0.27006 1.069025,-0.37808 -0.42761,-0.054 -0.498879,0.054 -0.926489,0 -0.213805,0.10802 -0.356342,0.27005 -0.92649,0.37808 l -0.07127,-0.10803 c -0.498879,0.10803 -0.498879,0.21605 -1.140295,0.27006 -1.140295,0.0541 -2.28059,0.10802 -3.135811,0.16204 l -0.07127,-0.10803 c -0.427611,0.27006 -1.567906,0.21605 -2.209321,0.37809 -1.140295,0 -2.351858,0.27005 -2.993274,0.16202 -1.924248,0.21605 -3.63469,0.48611 -5.630206,0.59413 l 0.285075,-0.16203 c -0.356343,0.16203 -0.213806,-0.054 -0.570148,0 0.42761,0.10802 -0.498879,0.21604 -0.712685,0.32407 -0.926489,-0.0541 -2.066784,0.16203 -2.850736,0.32406 l -0.07127,-0.10802 c -0.783953,0.21604 -1.781711,0.10802 -2.779469,0.10802 -0.142536,-0.054 -0.285073,-0.16203 -0.641415,-0.10802 -0.570148,0.16204 -0.855222,0.16204 -1.639174,0.27006 -0.570148,0 -1.567905,-0.0541 -2.138053,-0.10802 -2.20932,0.21604 -4.48991,0.054 -6.7705,0.16203 l -0.142536,-0.10803 c -2.209321,0.21605 -4.917522,0 -6.770501,0.16204 l 0.142537,-0.21604 c -0.641415,-0.0541 -1.211563,0.16203 -1.069026,0.27005 -0.641416,0.59412 0.356342,-1.4583 0,-1.13424 0.285074,0.054 0.570147,0.10802 0.712684,0.21605 0.570148,0.16203 0.712684,0 1.211563,0.054 1.140295,0.27005 1.567906,0.32407 2.7082,0.37808 l -0.285073,-0.054 c -0.142538,0.054 -0.142538,0.10802 0.142537,0.16203 0.42761,0 1.567904,0.21605 1.140294,-0.054 1.140295,0.27006 2.850737,0.10802 3.991032,0.43209 -0.07127,-0.054 0.213805,-0.054 0.356342,-0.10802 1.069026,0.054 2.138052,0.27005 3.064542,0.16203 0.142537,0.054 -0.285073,0.10802 0.142537,0.10802 0.285073,0 0,-0.10802 0.356342,-0.10802 1.710442,-0.054 3.492153,0.27006 5.060058,0.21605 2.779468,-0.10803 5.701474,0 8.409674,-0.10803 v 0.0541 c 0.926489,-0.21605 2.138052,0.16203 2.850737,-0.10802 0.213804,0.054 0.783952,0 0.641415,0.10802 0.712685,-0.16204 1.995516,0.10802 3.064543,-0.0541 l -0.285075,0.0541 c 1.069027,0.10802 1.995516,-0.0541 3.064543,0 -0.142537,0 -0.285074,0.054 -0.356343,0.10802 0.427611,0.10802 0.997758,-0.21604 1.211564,0 0.285073,0 0.142537,-0.10802 0,-0.10802 2.423126,0.054 4.988789,-0.16204 7.483184,-0.27006 1.781711,0.054 0.142536,0.37808 1.567905,0.16204 0.142537,0.054 0.07127,-0.10803 0.07127,-0.054 0.570147,-0.10802 0.85522,0.21605 1.211562,0.10802 -0.142537,-0.16203 0.213806,-0.10802 0.285074,-0.21604 1.069026,0 1.354101,0.16204 2.138053,-0.0541 l -0.07127,0.10802 c 0.427611,-0.16203 0.855222,-0.32407 1.140296,-0.43209 0.213804,0.32407 0.641415,0.37808 -0.07127,0.75616 -0.07127,0 -0.213805,0 -0.427611,0 -5.202594,-0.70215 -10.76153,-0.4861 -16.249199,-0.64814 -5.487669,-0.32406 -10.761532,-0.59412 -16.177932,-0.75615 -1.282832,-0.21605 -1.3541,-0.21605 -2.7082,-0.054 0.07127,-0.0541 0.142537,-0.0541 0.07127,-0.0541 -0.07127,0.16203 -0.997758,0.0541 -1.069026,0.21605 l -1.3541,0.16203 -0.641416,0.10802 h -0.07127 v 0 c 0.142537,-0.81017 -0.356342,1.78237 0.356342,-1.78237 v 0 h 0.07127 l 0.142536,0.054 0.285074,0.10802 c 0.712684,0.32407 1.639173,0.54011 2.565663,0.81017 -0.285074,-0.054 -0.498879,0.054 -0.142537,0.10802 h 0.427611 l 0.07127,0.0541 c 0.213805,0.054 0.570147,0 0.285073,-0.10802 4.917522,0.91819 9.977579,1.78237 15.037637,1.9444 1.211563,0.10802 2.922006,0.054 4.204837,0 0.92649,0.054 1.852979,0 2.779469,-0.054 0.42761,-0.054 0.926489,-0.054 1.282831,-0.10802 l 0.641416,-0.10802 0.142536,-0.0541 h 0.07127 v 0 c -0.427611,2.53853 -0.142537,0.70214 -0.213806,1.24226 v 0 0 l -0.213805,-0.10802 c -0.926489,-0.4861 -3.919763,0.054 -5.202595,-1.02622 -0.213805,1.13424 -0.356341,-0.054 1.567906,0.27006 z"
     id="path998"
     style="stroke-width:0.620428" /><path
     class="st1"
     d="m 87.335967,141.3724 c -0.142537,-0.054 -0.641416,-0.10802 -0.213806,-0.21604 0,0.054 0.285074,0.16204 0.213806,0.21604 z"
     id="path1000"
     style="stroke-width:0.620428" /><path
     class="st1"
     d="m 75.006529,141.3184 c 0,0 -0.213804,0 -0.213804,-0.0541 0.142537,0 0.285073,-0.10802 0.42761,-0.054 -0.142537,0.054 -0.142537,0.054 -0.213806,0.10802 z"
     id="path1002"
     style="stroke-width:0.620428" /><path
     class="st1"
     d="m 71.870719,141.53444 c 0.07127,-0.054 0.712685,-0.21604 1.069027,-0.21604 z"
     id="path1004"
     style="stroke-width:0.620428" /><path
     class="st1"
     d="m 68.948714,141.48043 c -0.285074,-0.054 -0.213805,-0.10803 0.142537,-0.10803 0,0 -0.07127,0.054 -0.142537,0.10803 z"
     id="path1006"
     style="stroke-width:0.620428" /><path
     class="st1"
     d="m 68.734909,141.64246 c -0.213806,0 -0.356342,0 -0.498879,-0.054 0,0.054 0.570147,-0.054 0.498879,0.054 z"
     id="path1008"
     style="stroke-width:0.620428" /><path
     class="st1"
     d="m 62.39202,141.91252 c -0.142538,0 -0.498879,0.10802 -0.641417,0.054 0.213806,0.054 0.783953,-0.16203 0.641417,-0.054 z"
     id="path1010"
     style="stroke-width:0.620428" /><path
     class="st1"
     d="m 59.541283,142.23659 c -0.142538,0 -0.142538,0 -0.285074,0 -0.142537,-0.054 0,-0.10802 0.142536,-0.10802 z"
     id="path1012"
     style="stroke-width:0.620428" /><path
     class="st1"
     d="m 71.015498,145.58529 -0.285073,0.054 0.07127,-0.054 z"
     id="path1014"
     style="stroke-width:0.620428" /><path
     class="st1"
     d="m 88.048651,142.66867 c -0.356342,0 -0.213805,-0.10802 -0.285074,-0.10802 0.285074,0 -0.142537,0.054 0.285074,0.10802 z"
     id="path1016"
     style="stroke-width:0.620428" /><path
     class="st1"
     d="m 75.291604,142.45263 h 0.07127 v 0.16204 z"
     id="path1018"
     style="stroke-width:0.620428" /><path
     class="st2"
     d="m 84.984109,126.57329 c -0.142537,-0.64813 -1.069027,-3.13266 -1.069027,-3.13266 0,0 -6.057815,-1.72836 -6.057815,-1.08022 0,0.64813 -0.213805,1.4043 0,2.43051 0.213805,1.02621 2.565663,5.77922 2.565663,5.77922 l 4.703715,-0.37808 c 0.07127,0 0.356343,-1.72837 -0.142536,-3.61877 z"
     id="path1020"
     style="stroke-width:0.620428" /><path
     class="st3"
     d="m 86.053135,141.04834 c 0,0 0.07127,-4.753 0,-6.85945 -0.07127,-3.18667 -0.570147,-6.31933 -0.570147,-6.31933 0,0 -1.995516,0.37809 -2.7082,0.4321 -2.138053,0.10802 -3.349616,-0.054 -3.349616,-0.054 0,0 2.993273,9.506 1.924248,11.66645 -1.069027,2.16045 0.570146,2.91661 0.570146,2.91661 z"
     id="path1022"
     style="stroke-width:0.620428" /><path
     class="st4"
     d="M 77.857267,63.866108 H 63.603582 v 17.229626 h 14.253685 z"
     id="path1024"
     style="stroke-width:0.620428" /><path
     class="st2"
     d="m 61.536799,126.30323 c -0.213806,1.02622 -0.570148,2.75458 -0.783954,3.34871 l -6.057815,-1.62034 0.42761,-5.02306 6.627963,1.02622 c -0.07127,-0.054 0.07127,0.9722 -0.213804,2.26847 z"
     id="path1026"
     style="stroke-width:0.620428" /><path
     class="st3"
     d="m 59.327477,134.18889 c 0.712685,-1.89039 1.781711,-5.94124 1.781711,-5.94124 0,0 -2.138053,0.0541 -2.850737,0 -2.922005,-0.21605 -2.7082,-0.37809 -3.634689,-0.54011 0,0 -0.427611,9.83006 -2.209322,12.47661 -1.3541,2.05244 4.489911,-0.27005 4.489911,-0.27005 0,0 1.3541,-2.75458 2.423126,-5.72521 z"
     id="path1028"
     style="stroke-width:0.620428" /><path
     class="st5"
     d="m 52.485709,139.26596 c -2.209321,0.37808 -2.922005,-0.86418 -2.922005,-0.86418 0,0 -1.282832,0.54012 -2.779468,0.59412 -2.636933,0.16204 -4.846253,1.24227 -5.131327,2.70058 1.425369,1.29627 4.561179,1.56632 8.338406,1.35028 3.492152,-0.21605 5.772741,-2.05244 5.772741,-2.05244 l -0.213805,1.78238 2.351858,-0.054 c 0,0 0.498878,-3.45673 0.356342,-4.42893 -0.142537,-1.08023 -0.213805,-0.91819 -0.213805,-0.91819 0,0 -0.997759,1.08022 -5.558937,1.89039 z"
     id="path1030"
     style="stroke-width:0.620428" /><path
     class="st6"
     d="m 48.708482,138.67184 c 0,0 1.781711,-0.4321 2.850737,-1.99842 0.783953,-1.18825 1.069027,-1.72837 3.135811,-0.4861 1.567905,0.9722 -0.356342,2.80858 -1.069026,3.3487 -3.135811,2.48452 -4.917522,-0.86418 -4.917522,-0.86418 z"
     id="path1032"
     style="stroke-width:0.620428" /><path
     class="st5"
     d="m 81.135614,140.67026 c -2.066784,0.64814 -3.064542,-0.48611 -3.064542,-0.48611 0,0 -1.140295,0.70215 -2.565663,0.97221 -2.565663,0.4861 -4.489911,1.8904 -4.489911,3.29469 1.639174,1.08023 4.846253,0.9722 8.480943,0.27006 3.420883,-0.64813 5.202594,-2.80859 5.202594,-2.80859 l 0.213805,1.78238 2.28059,-0.32407 c 0,0 -0.285073,-3.45673 -0.641416,-4.42893 -0.427611,-1.02622 -0.427611,-0.86419 -0.427611,-0.86419 0,0 -0.712683,1.24226 -4.988789,2.59255 z"
     id="path1034"
     style="stroke-width:0.620428" /><path
     class="st6"
     d="m 77.287119,140.61625 c 0,0 1.710443,-0.64814 2.351858,-2.32249 0.498879,-1.29627 0.641416,-1.83639 2.993274,-0.86419 1.78171,0.75617 0.285073,2.8086 -0.285074,3.45673 -2.565663,2.75458 -5.060058,-0.27005 -5.060058,-0.27005 z"
     id="path1036"
     style="stroke-width:0.620428" /><path
     d="m 54.552493,124.08877 c 0,0 0.641416,0.4861 3.135811,0.64813 2.565662,0.21606 3.492152,0.054 4.48991,-0.16203 l 0.356342,-1.35028 c 0,0 -3.064542,0.32406 -5.986548,-0.054 -0.997757,-0.16203 -1.924246,-0.37808 -1.924246,-0.37808 z"
     id="path1038"
     style="stroke-width:0.620428" /><path
     d="m 77.215851,124.46685 c 0,0 0.712684,0.32407 3.207079,0.10802 2.565663,-0.21604 3.420884,-0.54011 4.347373,-0.91819 l -0.07127,-1.4043 c 0,0 -2.922006,0.86419 -5.844011,1.02622 -1.069026,0.054 -1.924247,-0.054 -1.924247,-0.054 z"
     id="path1040"
     style="stroke-width:0.620428" /><path
     d="m 96.244519,61.489609 c 0,0 0.42761,1.242261 1.425368,2.052431 0.997761,0.81017 3.349623,1.56633 3.349623,1.56633 0,0 -4.133575,1.350284 -6.699238,-0.37808 -2.209321,-1.458306 -1.924247,-2.754579 -1.924247,-2.754579 l 3.13581,-2.214466 z"
     id="path1042"
     style="stroke-width:0.620428" /><path
     d="m 82.347177,101.24197 c 3.207079,7.02147 5.060058,17.17561 4.489911,18.90397 -0.855221,2.64656 -4.0623,2.80859 -7.411916,3.24069 -4.632447,0.59412 -5.986547,-2.64656 -7.340647,-5.2391 -2.423127,-4.64499 -2.351858,-5.45516 -4.204837,-2.37651 -2.636932,4.37492 -1.3541,6.96747 -5.844011,7.56159 -3.064542,0.37808 -9.264894,0.70215 -9.549968,-3.18667 -0.285074,-3.51074 1.496637,-17.87776 4.774984,-19.06601 3.207079,-1.18825 25.086484,0.16204 25.086484,0.16204 z"
     id="path1044"
     style="stroke-width:0.620428" /><path
     class="st2"
     d="m 95.603104,102.53824 c 0,0 3.207076,5.56317 1.995515,6.2113 -1.140294,0.64814 -2.636931,-2.48452 -2.636931,-2.48452 0,0 0.855221,3.13266 -0.641416,3.34871 -1.496637,0.21604 -1.282832,-3.18667 -1.282832,-3.18667 0,0 -0.926489,3.13265 -2.351858,3.07865 -1.425368,-0.054 0.07127,-3.24069 0.07127,-3.24069 0,0 -2.7082,0.75616 -2.850737,-0.10802 -0.142537,-0.86418 3.991031,-3.13266 3.991031,-3.13266 z"
     id="path1046"
     style="stroke-width:0.620428" /><path
     class="st2"
     d="m 41.082762,96.813035 c 0,0 -5.131327,4.698995 -6.414158,4.212885 -1.282831,-0.4861 1.710442,-2.916614 1.710442,-2.916614 0,0 -3.349616,1.998424 -4.276106,1.134243 -0.926489,-0.918199 3.207079,-2.322492 3.207079,-2.322492 0,0 -4.133568,0.810168 -4.703715,-0.162029 -0.570147,-0.972205 3.848494,-1.458308 3.848494,-1.458308 0,0 -2.138052,-1.458308 -1.211563,-1.944411 0.92649,-0.486102 5.487669,1.296272 5.487669,1.296272 z"
     id="path1048"
     style="stroke-width:0.620428" /><path
     class="st7"
     d="m 83.344935,69.483291 c 0,0 -5.060058,-0.270059 -8.053331,0.864184 -2.138053,1.944403 -8.267137,5.347122 -8.267137,5.347122 0,0 -1.211564,-3.402719 -1.995516,-8.317754 -0.641416,-0.432087 -2.066784,1.026221 -2.066784,1.026221 0,0 -5.487669,7.183511 -6.699232,16.419448 -0.783952,5.833233 -3.420884,17.067598 -0.570147,17.499678 3.705957,1.13425 13.754805,1.35029 21.095453,0.97221 7.126841,-0.37808 7.62572,-0.86418 7.839526,-4.158873 0.285073,-3.294697 -2.351858,-15.933353 -2.351858,-15.933353 0,0 3.777226,6.805431 4.133569,10.74826 0.356341,3.942828 0.42761,9.289946 2.708199,9.506006 1.924248,0.16203 8.694748,0.48609 8.623479,-1.56633 C 97.669886,98.163321 95.74564,91.303876 92.966172,85.362629 88.832603,76.450759 83.344935,69.483291 83.344935,69.483291 Z"
     id="path1050"
     style="stroke-width:0.620428" /><path
     class="st7"
     d="m 63.033435,68.511086 c 0,0 -9.977579,10.316172 -13.327195,13.826905 -5.84401,6.211306 -12.61451,8.209732 -12.685778,10.046113 -0.07127,2.376499 4.632447,5.563173 5.915279,5.239099 3.56342,-1.026211 13.469731,-10.532207 15.964125,-17.715718 1.496638,-4.374925 4.133569,-11.396399 4.133569,-11.396399 z"
     id="path1052"
     style="stroke-width:0.620428" /><path
     class="st8"
     d="m 68.806177,83.796299 -6.556695,-6.589387 4.846253,-1.458308 3.563421,2.700573 c 0,0 -9.621236,3.726785 -10.761531,3.942829"
     id="path1054" /><path
     d="m 70.160277,78.611206 c 0,0.432095 0.498879,0.756161 1.069027,0.756161 0.570147,0 0.997757,-0.37808 0.997757,-0.810168 0,-0.432088 -0.498879,-0.756162 -1.069026,-0.756162 -0.570147,0 -0.997758,0.378081 -0.997758,0.810169 z"
     id="path1056"
     style="stroke-width:0.620428" /><path
     d="m 62.677093,77.09889 c 0,0.432096 -0.427611,0.810169 -0.997758,0.810169 -0.570147,0 -1.069026,-0.324066 -1.069026,-0.756154 0,-0.432095 0.427611,-0.810176 0.997757,-0.810176 0.570148,0 1.069027,0.324074 1.069027,0.756161 z"
     id="path1058"
     style="stroke-width:0.620428" /><path
     d="m 68.093493,84.066358 c 0,0.432088 0.498879,0.810169 1.069026,0.810169 0.570148,0 1.069027,-0.378081 1.069027,-0.810169 0,-0.432096 -0.498879,-0.810169 -1.069027,-0.810169 -0.570147,-0.05398 -1.069026,0.324066 -1.069026,0.810169 z"
     id="path1060"
     style="stroke-width:0.620428" /><path
     d="m 60.895383,82.500028 c 0,0.432088 -0.427611,0.756161 -0.997758,0.810168 -0.570148,0.05398 -1.069027,-0.324065 -1.069027,-0.756161 0,-0.432088 0.427611,-0.756154 0.997758,-0.810169 0.570148,-0.05397 1.069027,0.324074 1.069027,0.756162 z"
     id="path1062"
     style="stroke-width:0.620428" /><path
     class="st2"
     d="m 99.879212,48.040781 c 0,0 -2.708204,11.072328 -8.053335,16.959566 -5.202595,5.671194 -16.819348,6.91345 -25.157753,4.80701 -8.267137,-2.052433 -14.039878,-10.37018 -13.184657,-17.013577 1.140295,-8.911874 8.837284,-17.877759 9.336163,-18.363861 2.922005,-2.430511 15.964126,1.836385 23.661116,4.807011 7.768258,3.024636 13.398466,8.803851 13.398466,8.803851 z"
     id="path1064"
     style="stroke-width:0.620428" /><path
     class="st1"
     d="m 89.545288,43.557838 c 0,0 4.774984,-5.671192 7.768258,-7.453567 0.926487,-0.594125 3.135814,-1.782375 3.135814,-1.782375 l 0.64141,3.510738 3.06454,-5.347124 c 0,0 1.1403,-0.648137 6.7705,-1.620341 l 5.63021,-0.972204 -0.42761,3.834806 4.34738,-4.698988 c 0,0 3.77722,-0.05401 8.48094,0.540114 4.70371,0.594124 13.18465,1.566329 13.18465,1.566329 0,0 -8.3384,3.078647 -11.11787,4.644976 -2.7082,1.620342 -4.48991,1.998421 -4.48991,1.998421 l -6.05781,-3.132659 4.4899,3.942829 -11.68802,2.160454 -5.48766,-3.240681 3.20707,3.564749 c 0,0 -10.90407,1.890398 -13.184655,1.836387 -2.423127,-0.05401 -8.267137,0.648136 -8.267137,0.648136 z"
     id="path1066"
     style="stroke-width:0.620428" /><path
     class="st9"
     d="m 91.326998,42.639645 c 0,0 10.333912,-4.536954 19.313742,-6.805431 12.97085,-3.294693 25.08649,-3.834806 25.08649,-3.834806"
     id="path1068" /><path
     class="st9"
     d="m 107.64746,35.726192 2.06679,-3.56475"
     id="path1070" /><path
     class="st9"
     d="m 105.65195,41.23535 -2.922,-1.944409"
     id="path1072" /><path
     class="st10"
     d="m 60.539041,35.132066 c -6.485427,-1.728363 -5.772743,-11.396396 2.922004,-12.476623 7.982064,-0.972204 17.745838,2.160455 24.730143,5.077068 3.777226,1.566329 22.449552,3.834806 26.369322,11.234362 5.6302,10.586226 -14.11115,14.853123 -16.53428,9.56001 0,0 -11.830558,-7.993681 -23.803653,-10.74826 -6.770499,-1.56633 -13.683536,-2.646557 -13.683536,-2.646557 z"
     id="path1074"
     style="stroke-width:0.620428" /><path
     class="st3"
     d="m 60.182698,37.886646 c 0,0 9.549969,0.972204 19.883889,4.590965 9.264895,3.240682 15.322711,7.021476 19.242478,9.235942 2.494395,0.108023 1.211555,-3.18667 1.211555,-3.18667 0,0 -7.198106,-5.077068 -17.603296,-8.425771 C 70.445351,36.05026 66.953198,35.67218 61.03792,35.240089 c -2.636933,0.972204 -0.855222,2.646557 -0.855222,2.646557 z"
     id="path1076"
     style="stroke-width:0.620428" /><path
     class="st11"
     d="m 81.563224,45.556258 c 3.207079,0.378079 4.846254,1.944409 4.561179,4.37492 -0.285073,2.430512 -2.280589,4.104863 -5.345131,3.888818 -2.993274,-0.216045 -4.988789,-2.160455 -4.703716,-4.590965 0.356342,-2.430512 2.494395,-3.996841 5.487668,-3.672773 z"
     id="path1078"
     style="stroke-width:0.620428" /><path
     class="st12"
     d="m 79.282635,47.284621 c 0.570148,0.05401 0.783952,0.324069 0.712685,0.702149 -0.07127,0.378079 -0.356343,0.648135 -0.92649,0.648135 -0.498879,-0.05401 -0.855222,-0.378079 -0.855222,-0.756158 0.07127,-0.432091 0.570148,-0.648137 1.069027,-0.594126 z"
     id="path1080"
     style="stroke-width:0.620428" /><path
     class="st11"
     d="m 62.320751,41.937497 c 2.565663,0.216046 3.634689,1.728364 3.634689,3.942829 -0.07127,2.214466 -2.066784,3.672773 -4.846252,3.456728 -2.708201,-0.216046 -4.489911,-1.94441 -4.204837,-4.158875 0.285074,-2.160454 2.7082,-3.402716 5.4164,-3.240682 z"
     id="path1082"
     style="stroke-width:0.620428" /><path
     class="st12"
     d="m 59.755087,43.449815 c 0.498879,0.05401 0.712685,0.324068 0.712685,0.702148 -0.07127,0.37808 -0.356342,0.648136 -0.855221,0.594125 -0.498879,-0.05401 -0.855221,-0.324068 -0.783953,-0.756159 0,-0.378079 0.427611,-0.594125 0.926489,-0.540114 z"
     id="path1084"
     style="stroke-width:0.620428" /><path
     d="m 101.16204,53.333894 c 1.56791,0.81017 6.48542,1.566329 6.48542,1.566329 0,0 -1.35409,1.458307 -4.20483,1.512318 -0.85522,0.05401 -1.99552,-0.108022 -1.99552,-0.108022 0,0 0.99776,1.026215 2.99328,1.242261 1.71044,0.216045 3.49215,0.108023 3.49215,0.108023 -0.0712,0.702147 -4.63245,3.61876 -8.053328,1.512317 1.211558,1.998421 5.844008,2.646557 5.844008,2.646557 0,0 -6.485425,2.3765 -9.621237,0.05401 -0.712685,-0.540118 -1.211564,-0.972209 -1.211564,-0.972209 0,0 2.565664,-4.644976 2.7082,-5.563169 0.142537,-0.864182 1.852979,-3.618761 1.852979,-3.618761 0,0 -0.213803,0.540114 1.710442,1.620341 z"
     id="path1086"
     style="stroke-width:0.620428" /><path
     class="st2"
     d="m 96.458325,53.819996 c 0,0 4.489915,0.540113 4.204835,2.700568 -0.28507,1.944409 -2.63693,2.268477 -4.276104,2.160454 -1.639173,-0.108022 -1.995516,-0.540113 -1.995516,-0.540113 z"
     id="path1088"
     style="stroke-width:0.620428" /><path
     d="m 99.6654,52.469712 c 0,0 -0.498876,0.810171 0.49889,1.620341 0.99775,0.81017 5.91528,1.782375 5.91528,1.782375 0,0 -3.77724,1.674352 -7.198119,-0.486103 -2.280589,-1.404295 -4.98879,-6.805431 -4.98879,-6.805431 l 5.487666,3.132659 z"
     id="path1090"
     style="stroke-width:0.620428" /><path
     class="st13"
     d="m 69.875204,50.957394 c 0,0 -4.98879,1.296273 -6.485426,1.350284 -1.425369,0.05401 -2.708201,0.648136 0.142536,2.160454 2.850737,1.512318 4.988789,1.566329 4.988789,1.566329"
     id="path1092" /><path
     class="st13"
     d="m 74.365114,61.381586 c 0,0 -0.570147,2.484522 -3.634689,3.132659 -3.064543,0.648136 -5.345132,-1.296273 -5.345132,-1.296273"
     id="path1094" /></g>
</svg>
