<?xml version="1.0" encoding="UTF-8" standalone="no"?>
<svg
   width="250"
   height="150"
   viewBox="0 0 250 150"
   fill="none"
   version="1.1"
   id="svg120"
   sodipodi:docname="svgCas14Castle.svg"
   inkscape:version="1.2.1 (9c6d41e410, 2022-07-14)"
   xmlns:inkscape="http://www.inkscape.org/namespaces/inkscape"
   xmlns:sodipodi="http://sodipodi.sourceforge.net/DTD/sodipodi-0.dtd"
   xmlns="http://www.w3.org/2000/svg"
   xmlns:svg="http://www.w3.org/2000/svg">
  <defs
     id="defs124" />
  <sodipodi:namedview
     id="namedview122"
     pagecolor="#ffffff"
     bordercolor="#000000"
     borderopacity="0.25"
     inkscape:showpageshadow="2"
     inkscape:pageopacity="0.0"
     inkscape:pagecheckerboard="0"
     inkscape:deskcolor="#d1d1d1"
     showgrid="false"
     inkscape:zoom="1.4091628"
     inkscape:cx="64.57735"
     inkscape:cy="105.38172"
     inkscape:window-width="1920"
     inkscape:window-height="1018"
     inkscape:window-x="-8"
     inkscape:window-y="-8"
     inkscape:window-maximized="1"
     inkscape:current-layer="svg120" />
  <g
     id="g289"
     transform="matrix(0.64871894,0,0,0.66422666,79.479816,8.5154054)">
    <path
       d="m 26.2021,64.6061 c 0,-2.0179 1.1123,-16.8904 1.2394,-18.7494"
       stroke="#000000"
       stroke-width="0.284"
       stroke-miterlimit="10"
       id="path2" />
    <path
       d="m 109.35,67.927 c 0,-1.9226 -0.222,-17.0651 -0.111,-18.7494"
       stroke="#000000"
       stroke-width="0.284"
       stroke-miterlimit="10"
       id="path4" />
    <path
       d="M 66.5133,20.9581 66.3862,0"
       stroke="#000000"
       stroke-width="0.284"
       stroke-miterlimit="10"
       id="path6" />
    <path
       d="m 48.9864,70.072 c 0.0158,1.0964 8.1194,1.8909 16.9857,1.732 8.8662,-0.143 16.938,-1.1441 16.9221,-2.2404 -0.0159,-1.0964 -8.1194,-1.875 -16.9857,-1.732 -8.8662,0.1271 -16.938,1.1441 -16.9221,2.2404 z"
       fill="#000000"
       id="path8" />
    <path
       d="m 99.61,94.4145 c 0.0159,0.7468 4.894,1.2235 10.884,1.0487 5.991,-0.1589 10.821,-0.9057 10.805,-1.6366 -0.016,-0.7468 -4.894,-1.2076 -10.884,-1.0487 -5.991,0.1589 -10.8368,0.8898 -10.805,1.6366 z"
       fill="#000000"
       id="path10" />
    <path
       d="m 34.6704,92.2854 c -0.0158,0.7468 -4.8939,1.2235 -10.8842,1.0487 -5.9744,-0.1589 -10.8206,-0.9057 -10.8047,-1.6525 0.0159,-0.7468 4.8939,-1.2076 10.8842,-1.0487 5.9903,0.1748 10.8365,0.9057 10.8047,1.6525 z"
       fill="#000000"
       id="path12" />
    <path
       d="m 29.157,200.889 c -3.8453,1.128 -4.8781,2.606 -16.0483,1.589 C 5.27526,201.763 0,198.633 0,198.633 c 0,0 8.34191,-49.067 9.26349,-54.231 3.62281,-20.338 4.06771,-33.224 4.75091,-40.676 0.7468,-10.3284 0.0953,-17.0019 4.0677,-19.6554 2.7171,-1.8114 13.5536,3.6068 14.2368,5.6407 0.6833,2.0338 -2.4628,29.1407 -2.4628,32.9867 0,3.845 2.4628,40.438 2.7012,43.377 0.2065,2.956 -3.4003,34.814 -3.4003,34.814 z"
       fill="#b4b0a5"
       id="path14" />
    <path
       d="m 43.3936,153.316 c 0,0 3.3844,-44.061 4.0676,-46.54 0.6833,-2.494 3.162,-3.606 3.162,-3.606 0,0 1.2553,-32.5259 1.8114,-36.6095 0.429,-3.1143 17.3988,-2.2563 17.3988,-2.2563 0,0 9.2635,-0.6832 9.9309,3.8452 0.6832,4.5126 0.6832,36.3866 1.3665,36.8316 0.6832,0.461 1.8114,0.906 2.4787,2.717 0.6832,1.811 3.4003,45.412 2.2563,46.54 -1.1282,1.096 -39.9935,-1.382 -42.4722,-0.922 z"
       fill="#b4b0a5"
       id="path16" />
    <path
       d="m 97.1633,201.509 c 0,0 6.6257,1.509 16.4137,1.35 9.788,-0.158 15.063,-4.226 15.667,-4.83 0.604,-0.604 -4.973,-30.428 -4.973,-35.846 0,-5.419 -4.513,-35.545 -4.672,-37.054 -0.159,-1.51 -0.556,-30.1901 -0.858,-31.5407 -0.302,-1.3506 -4.417,-2.4946 -4.417,-2.4946 0,0 -12.314,1.0646 -12.314,3.0348 0,1.1123 0.778,13.9665 -0.207,28.9025 -0.747,11.282 -2.9554,28.077 -3.5909,32.097 -1.4936,9.327 -3.0031,43.823 -1.0488,46.381 z"
       fill="#b4b0a5"
       id="path18" />
    <path
       d="m 12.9971,91.8086 c 0.3495,0 4.2901,-1.1758 10.2804,-1.1758 5.9903,0 11.0749,1.5254 11.4085,1.5254 C 33.8121,87.01 27.2339,58.155 26.6619,57.3605 26.1852,56.6773 16.4133,80.8767 12.9971,91.8086 Z"
       fill="#3c3c3b"
       id="path20" />
    <path
       d="m 121.282,93.9378 c -0.365,0 -4.29,-1.1758 -10.28,-1.1758 -5.99,0 -11.0751,1.5254 -11.4087,1.5254 0.8737,-5.1481 8.8027,-34.0032 9.3747,-34.7977 0.572,-0.8103 10.392,28.3149 12.314,34.4481 z"
       fill="#3c3c3b"
       id="path22" />
    <path
       d="m 82.8783,69.7384 c -0.5243,0 -5.2753,-3.0349 -16.08,-2.8283 -11.0908,0.2065 -17.3194,2.9713 -17.812,2.9554 1.3665,-7.5951 16.3184,-53.3247 17.1764,-54.4846 0.8263,-1.1599 13.9826,45.2529 16.7156,54.3575 z"
       fill="#3c3c3b"
       id="path24" />
    <path
       d="m 18.8926,137.824 c 0,0 -0.0954,-6.737 0.5561,-8.485 0.6515,-1.747 3.0508,-1.747 3.4162,1.287 0.3655,3.051 0.0954,7.198 0.0954,7.198 z"
       fill="#fafafb"
       id="path26" />
    <path
       d="m 21.0049,104.965 c 0,-0.429 0,-6.4828 0.6514,-7.8652 0.6515,-1.3823 2.6695,-1.2076 3.1303,0.8581 0.4607,2.0651 -0.9216,7.5161 -0.9216,7.5161 z"
       fill="#fafafb"
       id="path28" />
    <path
       d="m 18.2568,139.381 c 0.6038,0.239 5.7202,0.096 5.7202,0.096 0,0 0.3654,-2.4 0,-2.4 -0.3655,0 -5.4501,-0.556 -5.8155,-0.174 -0.3655,0.365 -0.6515,2.208 0.0953,2.478 z"
       fill="#dad8cc"
       id="path30" />
    <path
       d="m 16.3984,183.029 c 0,0 -0.0953,-6.737 0.5562,-8.485 0.6514,-1.747 3.0507,-1.747 3.4162,1.288 0.3654,3.05 0.0953,7.197 0.0953,7.197 z"
       fill="#fafafb"
       id="path32" />
    <path
       d="m 15.7475,184.602 c 0.6197,0.239 5.7202,0.096 5.7202,0.096 0,0 0.3654,-2.4 0,-2.4 -0.3655,0 -5.4501,-0.556 -5.8155,-0.174 -0.3655,0.349 -0.6356,2.208 0.0953,2.478 z"
       fill="#dad8cc"
       id="path34" />
    <path
       d="m 109.191,183.49 c 0,0 -0.095,-6.737 0.556,-8.485 0.652,-1.747 3.051,-1.748 3.416,1.287 0.366,3.051 0.096,7.198 0.096,7.198 z"
       fill="#fafafb"
       id="path36" />
    <path
       d="m 108.54,185.047 c 0.604,0.239 5.72,0.096 5.72,0.096 0,0 0.366,-2.4 0,-2.4 -0.381,0 -5.45,-0.556 -5.815,-0.174 -0.366,0.365 -0.652,2.208 0.095,2.478 z"
       fill="#dad8cc"
       id="path38" />
    <path
       d="m 20.6245,105.95 c 0.3654,0.064 3.2255,0.366 3.7816,0.366 0.5562,0 0.731,-1.939 0.0954,-1.939 -0.6515,0 -3.9724,-0.365 -4.2425,-0.095 -0.2701,0.286 -0.7309,1.478 0.3655,1.668 z"
       fill="#dad8cc"
       id="path40" />
    <path
       d="m 109.288,137.665 c 0,0 -0.096,-5.799 0.556,-7.293 0.651,-1.509 3.05,-1.509 3.416,1.112 0.365,2.622 0.095,6.181 0.095,6.181 z"
       fill="#fafafb"
       id="path42" />
    <path
       d="m 108.636,139.683 c 0.603,0.239 5.72,0.096 5.72,0.096 0,0 0.365,-2.4 0,-2.4 -0.366,0 -5.45,-0.556 -5.816,-0.19 -0.365,0.381 -0.635,2.224 0.096,2.494 z"
       fill="#dad8cc"
       id="path44" />
    <path
       d="m 109.684,107.396 c -0.048,-0.397 -0.699,-6.038 -0.191,-7.4043 0.493,-1.3664 2.527,-1.43 3.21,0.4453 0.683,1.875 -0.111,7.118 -0.111,7.118 z"
       fill="#fafafb"
       id="path46" />
    <path
       d="m 109.414,108.381 c 0.365,0.016 3.241,0 3.797,-0.063 0.556,-0.064 0.509,-2.018 -0.127,-1.939 -0.636,0.08 -3.988,0.08 -4.227,0.397 -0.238,0.302 -0.556,1.542 0.557,1.605 z"
       fill="#dad8cc"
       id="path48" />
    <path
       d="m 39.6279,49.2093 c -1.2234,-0.6037 -3.0984,-1.6683 -4.306,-1.9226 -2.3198,-0.4925 -3.1937,0.1272 -5.1163,-0.0794 -1.2553,-0.1271 -2.3834,-0.8421 -2.876,-1.0169 l -0.3814,4.4967 c 1.589,0.6673 3.0826,1.2234 5.6249,-0.0477 2.8124,-1.4142 4.1312,-1.4618 7.0548,-1.4301 z"
       fill="#e30613"
       id="path50" />
    <path
       d="m 121.761,52.5143 c -1.256,0.5244 -3.194,1.4777 -4.434,1.6525 -2.351,0.3337 -3.177,-0.3337 -5.1,-0.2542 -1.255,0.0477 -2.431,0.6832 -2.94,0.8421 l -0.079,-4.5125 c 1.621,-0.5562 3.162,-1.017 5.609,0.4131 2.701,1.573 4.02,1.7001 6.944,1.859 z"
       fill="#e30613"
       id="path52" />
    <path
       d="M 82.9747,3.00305 C 81.6082,4.2742 78.3668,5.9108 76.7938,6.13326 73.7907,6.56227 72.742,5.70424 70.2632,5.79958 68.6584,5.86314 67.1489,6.67349 66.4975,6.86417 L 66.3862,1.09633 c 2.0815,-0.715017 4.0518,-1.302923 7.182,0.52435 3.4639,2.01795 5.609,1.39826 9.4065,1.38237 z"
       fill="#e30613"
       id="path54" />
    <path
       d="m 62.7156,85.024 c 0,0 -0.7627,-6.181 -0.4608,-8.0241 0.572,-3.2732 5.7678,-3.8453 5.6566,0.7944 -0.0953,4.1948 -0.3337,7.5634 -0.3337,7.5634 z"
       fill="#fafafb"
       id="path56" />
    <path
       d="m 57.2025,132.374 c 0,0 -0.0477,-8.866 0.1112,-14.062 0.2225,-7.341 13.1882,-8.771 13.5695,-0.27 0.4926,10.9 -0.7309,14.332 -0.7309,14.332 z"
       fill="#fafafb"
       id="path58" />
    <path
       d="m 64.5745,132.183 -0.2542,-10.9 -7.0708,-0.159"
       stroke="#dadada"
       stroke-width="0.284"
       stroke-miterlimit="10"
       id="path60" />
    <path
       d="m 64.0972,111.813 0.2224,9.47 6.9437,-0.158"
       stroke="#dadada"
       stroke-width="0.284"
       stroke-miterlimit="10"
       id="path62" />
    <path
       d="m 61.8096,86.5016 c 0.8739,0.5244 5.9902,0.3337 6.5623,0.1112 0.5561,-0.2224 0.6673,-2.0338 -0.1113,-2.145 -0.7944,-0.1113 -6.3239,-0.3337 -6.6735,0 -0.3496,0.3336 -0.3496,1.6842 0.2225,2.0338 z"
       fill="#dad8cc"
       id="path64" />
    <path
       d="m 56.0423,134.853 c 0.6356,0.508 15.9211,0.111 16.7156,0 0.4131,-0.938 0.7945,-9.264 0.2225,-9.597 -0.5562,-0.334 -3.6228,-0.461 -3.6228,0.222 0,0.683 0.4608,3.273 0,3.385 -0.4449,0.111 -2.7171,0.222 -3.162,0 -0.4449,-0.223 0,-3.607 -0.4449,-3.607 -0.4449,0 -3.5115,-0.223 -3.5115,0.222 0,0.461 0.4449,3.385 0.1112,3.385 -0.3337,0 -3.162,0.46 -3.162,0 0,-0.445 0,-3.385 -0.4608,-3.385 -0.4449,0 -2.9395,-0.222 -2.9395,0.334 0.0318,0.572 0.0318,8.103 0.2542,9.041 z"
       fill="#dad8cc"
       id="path66" />
    <path
       d="m 96.131,161.007 c 0,0 -2.2086,5.72 -0.429,5.942 1.7637,0.223 12.425,0.271 17.669,-0.063 5.243,-0.334 11.472,-1.335 11.679,-1.557 0.222,-0.223 -0.143,-5.323 -0.699,-5.673 -0.557,-0.349 -28.22,1.351 -28.22,1.351 z"
       fill="#908b84"
       id="path68" />
    <path
       d="m 100.754,118.63 c 0,0 0.223,5.434 0.811,5.434 0.588,0 4.306,-1.096 9.994,-0.953 4.211,0.111 8.31,1.096 8.755,1.017 0.445,-0.08 1.017,-5.435 0.731,-5.8 -0.302,-0.365 -9.851,-1.398 -9.851,-1.398 z"
       fill="#908b84"
       id="path70" />
    <path
       d="m 34.1782,161.007 c 0,0 2.2086,5.72 0.429,5.942 -1.7637,0.223 -12.4254,0.271 -17.6689,-0.063 -5.2435,-0.334 -11.45624,-1.335 -11.67869,-1.557 -0.22245,-0.223 0.143,-5.323 0.68324,-5.673 0.55613,-0.349 28.23535,1.351 28.23535,1.351 z"
       fill="#908b84"
       id="path72" />
    <path
       d="m 12.076,115.516 c 0,0 -0.286,5.688 0.0477,6.244 1.5095,0.08 4.306,-0.715 9.8355,-0.477 5.6248,0.239 8.6597,1.716 8.6597,1.256 0,-0.445 0.7944,-5.482 0,-5.593 -0.7786,-0.127 -17.8597,-1.669 -18.5429,-1.43 z"
       fill="#908b84"
       id="path74" />
    <path
       d="m 45.9676,105.537 c -0.0794,0.509 0.1589,4.973 0.4449,5.053 0.3019,0.079 10.1851,-1.43 18.8289,-1.351 8.469,0.08 13.6648,0.636 19.1626,1.589 0,-0.349 0.1748,-5.847 -0.5085,-6.324 -0.6832,-0.461 -24.5173,-1.017 -24.5173,-1.017 z"
       fill="#908b84"
       id="path76" />
    <path
       d="m 94.3186,162.421 c 0,0 10.1374,1.049 17.8434,0.588 7.707,-0.461 13.363,-1.351 13.57,-1.446 0.206,-0.111 1.001,-8.707 0.54,-8.819 -0.461,-0.095 -4.306,-0.27 -4.512,-0.063 -0.207,0.206 0.095,4.989 -0.255,4.989 -0.365,0 -3.781,0.508 -4.242,0.508 -0.461,0 0.731,-4.989 -0.207,-5.132 -0.937,-0.159 -5.37,0.159 -5.482,0.461 -0.111,0.318 0.509,4.942 0,4.942 -0.524,0 -4.449,0.365 -4.719,0.254 -0.254,-0.111 -0.095,-5.323 -0.508,-5.371 -0.413,-0.047 -4.656,-0.413 -4.815,0.111 -0.159,0.525 -0.159,4.974 -0.476,4.974 -0.302,0 -3.7184,-0.223 -3.9726,-0.318 -0.2543,-0.111 0.7627,-5.228 0.4608,-5.323 -0.3019,-0.095 -3.7181,-0.937 -3.877,-0.524 -0.1589,0.413 -2.0657,7.976 -1.7638,8.485 0.286,0.492 2.4152,1.684 2.4152,1.684 z"
       fill="#dad8cc"
       id="path78" />
    <path
       d="m 35.9899,162.421 c 0,0 -10.1375,1.049 -17.8438,0.588 -7.7063,-0.461 -13.36293,-1.351 -13.5695,-1.446 -0.20656,-0.111 0.34957,-8.707 0.81036,-8.819 0.46079,-0.095 3.86111,0.175 4.06767,0.382 0.20657,0.206 -0.55612,4.528 -0.19067,4.528 0.36546,0 3.32084,0.509 3.79754,0.509 0.4767,0 0.1748,-4.99 1.1123,-5.133 0.9216,-0.159 4.9257,0.159 5.021,0.461 0.1112,0.318 -0.5085,4.942 0,4.942 0.5244,0 4.0041,0.365 4.2584,0.254 0.2542,-0.111 0.0953,-5.323 0.5084,-5.371 0.4131,-0.047 4.6556,-0.413 4.8145,0.112 0.1589,0.524 0.1589,4.973 0.4767,4.973 0.3178,0 3.7181,-0.223 3.9723,-0.318 0.2542,-0.111 -0.7627,-5.227 -0.4608,-5.323 0.3178,-0.095 3.734,-0.937 3.877,-0.524 0.143,0.413 2.0656,7.976 1.7637,8.485 -0.3019,0.508 -2.4151,1.7 -2.4151,1.7 z"
       fill="#dad8cc"
       id="path80" />
    <path
       d="m 99.0866,114.292 c -0.0794,0.366 1.3824,6.324 1.6844,6.324 0.286,0 5.291,-1.716 10.868,-1.716 5.577,0 9.454,1.494 9.82,1.494 0.365,0 2.05,-6.531 1.684,-6.753 -0.365,-0.223 -3.003,-0.954 -3.305,-0.954 -0.286,0 -0.508,3.591 -0.81,3.591 -0.286,0 -1.399,-0.365 -1.764,-0.445 -0.365,-0.079 0.429,-3.75 0,-3.813 -0.445,-0.08 -3.464,-0.445 -3.527,-0.223 -0.064,0.223 0,3.448 -0.286,3.448 -0.286,0 -2.05,0.08 -2.431,0 -0.366,-0.063 -0.223,-3.67 -0.445,-3.67 -0.223,0 -3.528,0.286 -3.75,0.445 -0.223,0.143 0.508,3.527 0.222,3.527 -0.286,0 -2.526,0.62 -2.828,0.556 -0.286,-0.079 -0.874,-3.543 -1.096,-3.543 -0.191,0 -3.8139,0.779 -4.0364,1.732 z"
       fill="#dad8cc"
       id="path82" />
    <path
       d="m 10.249,111.146 c -0.2066,0.953 1.144,6.753 1.1917,7.214 0.0477,0.461 3.734,-1.001 10.0421,-0.779 6.4193,0.239 9.8355,1.653 10.1056,1.716 0.2542,0.048 1.5731,-6.689 1.6843,-7.404 0.1112,-0.731 -3.0349,-1.24 -3.1461,-0.922 -0.1112,0.318 -0.4608,3.798 -0.4608,3.798 0,0 -1.9862,-0.175 -2.59,-0.318 -0.0476,-0.588 0.5721,-3.035 0.4926,-3.575 -0.3654,-0.413 -3.5433,-0.366 -3.6387,-0.095 -0.1112,0.254 -0.3495,3.146 -0.3495,3.4 -0.6356,0.095 -2.0497,0.048 -3.019,0.016 -0.1907,-0.413 0.3178,-3.702 0,-3.814 -0.3178,-0.111 -3.3209,-0.254 -3.4639,0.064 -0.1589,0.318 0.1748,3.782 -0.0318,3.782 -0.2065,0 -2.1291,0.444 -2.3357,0.444 -0.2065,0 -0.5243,-3.718 -0.4767,-3.972 -1.001,-0.238 -3.5592,0.159 -4.0041,0.445 z"
       fill="#dad8cc"
       id="path84" />
    <path
       d="m 44.4426,98.1327 c -0.0795,0.3972 0.4449,8.2943 1.001,8.4373 0.5561,0.143 10.2328,-1.668 20.0365,-1.51 11.059,0.191 18.5905,1.51 18.9878,1.51 0.4131,0 1.9067,-8.0242 1.3664,-8.4373 -0.5402,-0.4131 -3.877,-1.2394 -3.9246,-0.9693 -0.0636,0.286 -0.3973,4.1786 -0.6197,4.1786 -0.2225,0 -2.9872,-0.047 -3.3368,-0.174 -0.3337,-0.112 0.1112,-4.9103 -0.1748,-4.9738 -0.286,-0.0477 -4.4172,-0.1748 -4.6873,-0.1112 -0.286,0.0635 0,4.576 -0.286,4.624 -0.286,0.063 -4.0041,-0.334 -4.1789,-0.286 -0.1748,0.063 0.1748,-4.7512 -0.3337,-4.7512 -0.5085,0 -3.9564,0.2225 -4.2901,0.2225 -0.3337,0 0,4.6877 -0.3973,4.6877 -0.3972,0 -4.3536,0.174 -4.6873,-0.064 -0.3337,-0.222 -0.1112,-4.4013 -0.3337,-4.576 -0.2224,-0.1748 -4.9734,0.0635 -5.2594,0.2224 -0.286,0.1748 0.2225,4.5126 -0.0476,4.5766 -0.286,0.063 -3.7817,0.397 -4.02,0.397 -0.2225,0 -0.0636,-4.3539 -0.6833,-4.2903 -0.6038,0.0953 -4.0359,0.7944 -4.1312,1.287 z"
       fill="#dad8cc"
       id="path86" />
    <path
       d="m 39.5477,146.532 c 0.5879,0.556 6.5782,0.429 6.8324,0.143 0.2543,-0.286 0,-6.833 0.3496,-7.087 0.3496,-0.254 7.5951,-0.636 8.04,-0.35 0.4449,0.286 -0.0635,6.61 0.286,6.833 0.3496,0.222 6.0062,0.699 6.1333,0.381 0.1271,-0.318 -0.3495,-6.61 0,-6.769 0.3496,-0.159 5.9744,-0.445 6.4829,-0.19 0.5084,0.254 0.286,7.245 0.6514,7.325 0.3814,0.079 5.4978,0.365 5.7202,0 0.2225,-0.366 0,-6.388 0.3813,-6.388 0.3814,0 7.611,-0.524 7.611,-0.079 0,0.445 -0.2224,6.451 0,6.657 0.2225,0.207 6.4829,-0.047 7.0867,0 0.6038,0.048 0.8262,-5.752 1.1281,-6.197 0.3019,-0.444 7.6746,-0.683 8.1354,-0.079 0.4608,0.604 3.988,56.216 5.116,66.576 -19.7024,2.13 -63.6524,2.161 -79.9708,0.096 1.0805,-7.675 7.7858,-60.332 8.0083,-61.46 0.2224,-1.128 0.7945,-6.324 1.2394,-6.563 0.4449,-0.222 6.2127,0.112 6.6735,0.445 0.429,0.334 -0.572,6.054 0.0953,6.706 z"
       fill="#dad8cc"
       id="path88" />
    <path
       d="m 35.084,177.945 c 0,-0.763 0.0794,-9.375 1.9544,-11.154 1.8749,-1.796 4.4013,-0.509 4.4013,3.575 0,4.083 -0.7309,7.928 -0.7309,7.928 z"
       fill="#fafafb"
       id="path90" />
    <path
       d="m 87.2802,179.693 c -0.0954,-0.509 -0.7627,-8.946 0.1588,-11.25 0.9375,-2.304 4.1948,-1.907 4.9416,-0.286 1.3665,2.94 1.3665,10.344 1.3665,11.027 0,0.668 -6.4669,0.509 -6.4669,0.509 z"
       fill="#fafafb"
       id="path92" />
    <path
       d="m 47.239,190.895 c -0.2383,3.734 -0.9374,13.871 -1.1599,18.225 7.9765,0.095 32.9069,0.095 33.034,0.111 0.1747,-5.736 -0.3496,-17.605 -0.3496,-21.705 0,-8.024 -2.7171,-16.97 -15.2538,-17.51 C 49.4,169.365 47.5886,185.461 47.239,190.895 Z"
       fill="#814114"
       id="path94" />
    <path
       d="m 69.0874,208.532 0.7627,-36.657"
       stroke="#a85318"
       stroke-width="0.284"
       stroke-miterlimit="10"
       stroke-linecap="round"
       id="path96" />
    <path
       d="m 57.8217,171.875 -1.6684,36.466"
       stroke="#a85318"
       stroke-width="0.284"
       stroke-miterlimit="10"
       stroke-linecap="round"
       id="path98" />
    <path
       d="m 50.4795,208.262 1.1917,-29.205"
       stroke="#a85318"
       stroke-width="0.284"
       stroke-miterlimit="10"
       stroke-linecap="round"
       id="path100" />
    <path
       d="m 74.6951,174.91 -0.1907,33.717"
       stroke="#a85318"
       stroke-width="0.284"
       stroke-miterlimit="10"
       stroke-linecap="round"
       id="path102" />
    <path
       d="m 46.7939,197.425 c 7.3727,0.525 25.4548,0.54 32.2078,0.906 0.0635,-2.129 0.0794,-4.195 0.1112,-5.974 -7.468,-0.445 -25.2959,-0.271 -31.9376,-0.588 -0.2383,1.446 -0.1907,3.511 -0.3814,5.656 z"
       fill="#a85318"
       id="path104" />
    <path
       d="m 33.7811,178.787 c 1.0646,0.175 7.182,0.683 7.5157,0.683 0.3495,0 0.5084,-2.478 0.0953,-2.558 -0.429,-0.079 -7.325,-0.715 -7.4044,-0.461 -0.0954,0.27 -0.7151,2.257 -0.2066,2.336 z"
       fill="#908b84"
       id="path106" />
    <path
       d="m 87.2009,181.043 c 0.7627,0.255 6.5623,0.175 7.1502,-0.079 0.6038,-0.254 0.9375,-2.558 -0.2542,-2.558 -1.1917,0 -7.325,-0.35 -7.5792,0.349 -0.2542,0.684 -0.0954,2.034 0.6832,2.288 z"
       fill="#908b84"
       id="path108" />
    <path
       d="m 78.717,185.969 c -1.43,-0.032 -3.2096,-0.127 -3.2096,-0.127 0,0 0.3972,-0.842 0.1112,-1.621 -0.2701,-0.778 -1.4142,-0.365 -1.6843,0.191 -0.3019,0.588 -0.9057,1.112 -1.43,1.144 -0.5244,0.032 -0.4926,0.206 -0.286,0.27 0.2065,0.064 1.1281,0.636 1.3506,1.414 0.2383,0.763 0.3813,1.923 1.2552,1.526 0.8739,-0.398 0.5561,-1.573 0.5561,-1.573 l 3.3686,0.429 c -0.0159,-0.477 0.0159,-1.145 -0.0318,-1.653 z"
       fill="#000000"
       id="path110" />
    <path
       d="m 51.2427,186.303 c 0,0 -0.5243,1.096 0.3019,1.573 0.8263,0.476 1.2394,-0.556 1.5413,-1.303 0.3019,-0.747 0.9216,-1.224 1.1281,-1.303 0.3814,-0.143 0.2543,-0.127 -0.1747,-0.35 -0.4767,-0.238 -0.8899,-0.715 -1.1917,-1.287 -0.2861,-0.54 -1.3189,-1.096 -1.6684,-0.349 -0.3496,0.746 0.286,1.62 0.286,1.62 0,0 -2.4311,-0.047 -3.448,-0.079 -0.1589,0.477 -0.2701,1.001 -0.2701,1.414 z"
       fill="#000000"
       id="path112" />
    <path
       d="m 79.114,203.161 c -1.4301,-0.032 -3.2097,-0.127 -3.2097,-0.127 0,0 0.3972,-0.842 0.1112,-1.621 -0.2701,-0.778 -1.4141,-0.365 -1.6842,0.191 -0.3019,0.588 -0.9057,1.287 -1.4301,1.319 -0.5243,0.032 -0.5084,0.191 -0.286,0.254 0.2066,0.064 1.1282,0.461 1.3506,1.239 0.2384,0.779 0.3814,1.923 1.2553,1.526 0.8739,-0.397 0.5561,-1.573 0.5561,-1.573 l 3.3685,0.429 c -0.0317,-0.461 0.0159,-1.112 -0.0317,-1.637 z"
       fill="#000000"
       id="path114" />
    <path
       d="m 49.766,203.511 c 0,0 -0.5243,1.096 0.3019,1.573 0.8262,0.477 1.2394,-0.556 1.5413,-1.303 0.3019,-0.747 0.9216,-1.033 1.1281,-1.112 0.3814,-0.143 0.2542,-0.127 -0.1748,-0.35 -0.4766,-0.238 -0.8898,-0.906 -1.1758,-1.478 -0.286,-0.54 -1.3188,-1.096 -1.6684,-0.349 -0.3495,0.747 0.286,1.621 0.286,1.621 0,0 -2.4787,-0.048 -3.5115,-0.08 -0.0636,0.54 -0.0953,1.081 -0.0953,1.494 z"
       fill="#000000"
       id="path116" />
    <path
       d="m 62.4932,208.897 1.3347,-37.626"
       stroke="#000000"
       stroke-width="0.284"
       stroke-miterlimit="10"
       stroke-linecap="round"
       id="path118" />
  </g>
</svg>
