<svg width="689" height="514" viewBox="0 0 689 514" fill="none" xmlns="http://www.w3.org/2000/svg">
<path d="M132.024 50.8772C131.669 46.1827 129.756 34.0653 123.06 28.2724C112.342 18.9895 89.7015 16.6511 77.6196 25.7568C70.2322 31.3194 62.3134 41.0275 62.6146 51.8162C49.2572 50.0092 43.5528 60.5853 47.7691 70.5945C32.3567 70.5945 25.1642 91.1621 35.138 97.2739C21.4794 97.8054 19.3536 123.404 34.5534 127.886C35.5455 126.061 31.7898 136.478 37.7245 145.106C41.9407 151.235 47.5211 155.593 58.0972 156.479C59.5498 168.136 74.1296 178.588 81.3044 179.899C97.0534 182.804 115.159 180.838 124.849 171.377C131.014 165.461 135.673 158.534 136.382 149.552C142.299 148.135 147.33 144.893 150.412 138.976C153.495 133.059 153.034 127.213 151.369 121.544C156.807 120.127 162.016 114.794 162.724 108.647C163.681 101.791 161.591 95.0064 155.302 93.5183C166.728 82.0918 152.573 70.6122 147.56 70.6122C151.67 58.8138 137.445 50.1155 132.024 50.8772Z" fill="#DB7A1C"/>
<path d="M47.9106 70.2933C47.9106 70.2933 71.5962 81.5958 103.307 79.3459C128.339 77.5567 141.802 72.0648 141.802 72.0648" stroke="#A85318" stroke-linecap="round"/>
<path d="M34.7124 96.5654C34.7124 96.5654 82.9692 105.033 108.834 103.74C134.06 102.482 148.782 94.2801 148.782 94.2801" stroke="#A85318" stroke-linecap="round"/>
<path d="M36.2905 127.815C36.2905 127.815 73.3157 134.724 98.3653 132.102C128.783 128.914 143.132 123.121 143.132 123.121" stroke="#A85318" stroke-linecap="round"/>
<path d="M58.2568 156.178C58.2568 156.178 82.4915 162.502 103.165 158.498C123.839 154.495 130.146 150.775 130.146 150.775" stroke="#A85318" stroke-linecap="round"/>
<path d="M80.5949 102.411C77.6188 109.763 77.8136 118.302 78.6994 122.005C84.386 141.35 111.526 136.549 112.235 120.056C112.589 114.033 110.339 103.421 106.796 98.3369C103.253 92.9337 93.6512 90.4004 87.9823 94.5281C87.9646 94.5458 82.4551 97.8231 80.5949 102.411Z" fill="#814114"/>
<path d="M83.4306 55.1466L80.4189 49.3537L84.3341 44.1454L90.4459 44.9071L93.4575 50.7L89.0109 56.2095L83.4306 55.1466Z" fill="#A85318"/>
<path d="M102.42 57.308L99.5859 51.0722L102.934 45.3678H109.046L112.961 50.1864L109.453 57.2726L102.42 57.308Z" fill="#DB7A1C"/>
<path d="M78.7185 55.3416L83.0765 54.4558L80.2774 49.3538L75.0159 47.7771L70.2505 52.2414L74.5908 54.2078L78.7185 55.3416Z" fill="#F39200"/>
<path d="M93.0507 50.7887L90.0391 44.9957L93.5467 39.4862L100.084 39.7697L103.095 45.5626L99.5877 51.0721L93.0507 50.7887Z" fill="#A85318"/>
<path d="M94.5902 29.8669L92.6592 24.1625L95.2988 20.7788L100.844 21.0091L104.263 24.7293L100.383 30.1503L94.5902 29.8669Z" fill="#A85318"/>
<path d="M93.8816 39.433L91.7026 34.5258L94.5725 29.973L100.383 30.1501L102.633 34.3664L99.834 39.9291L93.8816 39.433Z" fill="#DB7A1C"/>
<path d="M84.334 44.1455L82.4385 38.2817L86.1941 32.9316L91.7036 34.526L93.8826 39.4332L90.375 44.9427L84.334 44.1455Z" fill="#F39200"/>
<path d="M86.1946 32.9316L83.0767 27.6878L87.2398 22.7452L92.6076 24.1625L94.5562 29.8668L91.6686 34.5259L86.1946 32.9316Z" fill="#F39200"/>
<path d="M119.499 33.0909L115.442 28.857L116.664 24.1624L121.695 26.8197L125.575 30.8588L125.044 33.3213L119.499 33.0909Z" fill="#F39200"/>
<path d="M102.936 45.3678L99.8354 39.9291L102.634 34.3665L107.772 33.8704L112.254 39.2913L109.047 45.3678H102.936Z" fill="#F39200"/>
<path d="M112.253 39.2914L107.771 33.8705L109.967 28.7153L115.441 28.857L119.498 33.091L117.833 39.1851L112.253 39.2914Z" fill="#A85318"/>
<path d="M123.307 55.3416L118.134 50.0447L120.951 43.2774L126.336 42.055L130.481 46.8204L129.153 53.3752L123.307 55.3416Z" fill="#A85318"/>
<path d="M82.457 38.1576L86.195 32.9315L83.0771 27.6878H78.1345L75.2114 31.9572L77.2664 37.5907L82.457 38.1576Z" fill="#A85318"/>
<path d="M70.3377 52.3831L75.0146 47.7771L73.4379 42.7991L68.7256 42.055L64.4385 45.9347L64.7751 51.5505L70.3377 52.3831Z" fill="#A85318"/>
<path d="M112.464 50.7001L109.045 45.3678L112.252 39.2913L117.815 39.2028L120.95 43.2773L118.169 50.1864L112.464 50.7001Z" fill="#F39200"/>
<path d="M80.4183 49.3538L84.3335 44.1455L82.4379 38.2639L77.265 37.5907L73.4385 42.7991L75.0151 47.7771L80.4183 49.3538Z" fill="#DB7A1C"/>
<path d="M62.7729 51.5327C62.7729 51.5327 86.299 57.2549 105.449 57.3789C118.01 57.4497 128.285 53.3043 128.285 53.3043" stroke="#A85318" stroke-linecap="round"/>
<path d="M164.55 158.002C165.4 159.544 171.565 161.475 173.673 162.91C171.565 163.069 168.323 162.396 166.286 162.095C164.674 161.829 163.292 161.28 161.715 161.12C161.432 161.156 163.575 158.073 164.55 158.002Z" fill="black"/>
<g opacity="0.6">
<g opacity="0.6">
<path opacity="0.6" d="M143.061 144.822C142.671 141.669 144.921 131.996 158.756 120.747C161.786 118.284 174.559 111.411 176.897 113.483C177.995 114.458 181.981 120.233 167.667 133.838C162.087 139.118 151.759 143.068 144.389 144.556C143.61 144.68 143.202 144.946 143.061 144.822Z" fill="#DAD8CC"/>
</g>
</g>
<path d="M145.276 148.472C148.783 139.95 156.437 135.008 162.336 137.435C168.235 139.862 170.166 148.755 166.641 157.294C163.115 165.833 155.48 170.775 149.581 168.33C143.681 165.886 141.75 156.993 145.276 148.472Z" fill="#FFDE00"/>
<path d="M140.545 148.968C143.751 141.208 151.121 136.886 157.02 139.33C162.919 141.757 165.116 150.03 161.91 157.79C158.721 165.549 151.334 169.872 145.434 167.427C139.535 164.982 137.338 156.727 140.545 148.968Z" fill="black"/>
<path d="M134.964 145.495C138.489 136.974 146.124 132.014 152.024 134.459C157.923 136.886 159.854 145.779 156.346 154.318C152.821 162.857 145.185 167.799 139.286 165.354C133.369 162.91 131.438 154.034 134.964 145.495Z" fill="#FFDE00"/>
<path d="M128.162 141.899C131.687 133.378 139.322 128.418 145.222 130.862C151.121 133.289 153.052 142.183 149.544 150.721C146.019 159.243 138.383 164.203 132.484 161.758C126.585 159.331 124.654 150.438 128.162 141.899Z" fill="black"/>
<path d="M134.079 133.201C134.079 133.201 136.471 123.758 135.939 123.05C135.426 122.341 132.06 122.926 132.06 122.926" stroke="black" stroke-width="0.45" stroke-miterlimit="10" stroke-linecap="round" stroke-linejoin="round"/>
<path d="M128.003 133.732C128.003 133.732 127.489 124.007 126.78 123.475C126.072 122.944 123.042 124.52 123.042 124.52" stroke="black" stroke-width="0.45" stroke-miterlimit="10" stroke-linecap="round" stroke-linejoin="round"/>
<g opacity="0.6">
<g opacity="0.6">
<path opacity="0.6" d="M145.169 144.893C144.762 144.893 147.047 141.952 147.454 141.279C150.679 137.399 154.416 134.441 158.721 131.766C165.418 127.62 172.965 124.538 180.866 124.804C183.151 124.804 190.06 124.343 190.219 126.823C191.211 142.997 161.52 149.446 145.169 144.893Z" fill="#DAD8CC"/>
</g>
</g>
<path d="M142.989 143.617C142.723 137.08 140.225 134.494 136.611 132.758C131.917 130.349 122.545 130.473 118.683 136.177C112.217 145.743 116.185 157.613 128.887 158.605C139.41 159.42 143.131 146.824 142.989 143.617Z" fill="#FFDE00"/>
<path d="M123.272 143.44C125.947 144.84 128.409 143.688 129.206 141.527C130.039 139.259 128.657 136.549 125.929 136.212C122.404 135.77 119.764 141.598 123.272 143.44Z" fill="white"/>
<path d="M123.892 139.791C124.353 140.163 124.92 139.986 125.079 139.561C125.256 139.118 124.973 138.586 124.441 138.515C123.75 138.427 123.325 139.33 123.892 139.791Z" fill="black"/>
<path d="M119.959 153.095C119.959 153.095 121.323 153.946 122.917 153.379C125.699 152.387 125.274 149.676 125.274 149.676" stroke="black" stroke-width="0.45" stroke-miterlimit="10" stroke-linecap="round" stroke-linejoin="round"/>
<path d="M139.658 160.465C139.658 160.465 141.058 163.583 141.678 165.089C142.617 167.392 144.016 168.313 144.016 168.313" stroke="black" stroke-width="0.45" stroke-miterlimit="10" stroke-linecap="round" stroke-linejoin="round"/>
<path d="M146.621 162.36C146.621 162.36 147.187 164.592 147.808 166.116C148.746 168.419 150.819 169.641 150.819 169.641" stroke="black" stroke-width="0.45" stroke-miterlimit="10" stroke-linecap="round" stroke-linejoin="round"/>
<path d="M152.821 162.732C152.821 162.732 153.742 164.841 154.593 166.24C155.886 168.366 158.118 169.234 158.118 169.234" stroke="black" stroke-width="0.45" stroke-miterlimit="10" stroke-linecap="round" stroke-linejoin="round"/>
<path fill-rule="evenodd" clip-rule="evenodd" d="M597.801 145.861C597.801 145.861 597.158 144.446 589.404 145.861C560.316 151.135 538.174 137.207 541.335 136.71C558.699 133.954 572.591 130.077 570.496 128.754C568.401 127.449 541.17 124.987 546.315 124.289C553.297 123.352 573.234 114.513 570.955 113.87C568.512 113.19 545.249 112.327 549.787 110.508C566.398 103.782 572.94 96.8549 570.882 97.5532C568.806 98.2698 552.066 100.309 555.153 98.0494C565.388 90.5707 573.969 76.4403 573.969 76.4403C573.969 76.4403 564.157 79.4538 560.629 80.2806C557.119 81.1075 559.177 79.1782 565.829 73.2981C572.132 67.7121 577.552 59.572 577.552 59.572C577.552 59.572 575.604 59.3147 570.312 59.572C565.02 59.8292 565.572 60.4907 570.312 54.868C575.053 49.2452 587.346 37.0074 584.847 36.0151C582.348 35.0229 569.798 42.9241 572.168 40.2965C578.747 33.0016 594.733 3.36265 595.449 5.34715C596.166 7.33166 603.259 26.1845 608.128 32.7811C612.998 39.3961 622.589 45.0189 617.977 44.6882C613.365 44.3574 605.133 40.2965 605.133 40.2965C605.133 40.2965 609.433 52.6262 612.648 55.603C615.864 58.5797 619.447 61.8872 614.798 61.5565C610.15 61.2257 601.899 57.2567 604.049 60.2335C606.199 63.2102 622.167 75.1908 619.19 75.6502C616.213 76.1095 605.831 73.2981 605.831 73.2981C605.831 73.2981 615.056 86.6936 617.959 88.6781C620.862 90.6626 624.445 92.4817 621.211 93.0513C617.996 93.6393 608.11 91.177 608.11 91.177C608.11 91.177 615.662 104.554 625.86 110.783C627.11 111.537 617.261 111.72 612.612 110.783C607.963 109.846 606.162 108.744 606.53 110.783C606.897 112.823 624.078 120.449 630.877 124.767C635.562 127.743 609.745 123.977 608.11 124.767C606.309 125.63 623.049 138.383 637.933 139.926C642.379 140.385 630.16 143.858 621.211 145.861C612.226 147.864 597.801 145.861 597.801 145.861Z" fill="#219959"/>
<path d="M584.518 134.377C584.389 126.696 585.069 111.628 585.069 111.628L573.731 100.291L575.22 98.4168C575.22 98.4168 576.414 98.6924 579.464 101.063C582.478 103.396 586.337 105.748 586.337 105.748C586.337 105.748 586.539 92.5919 586.778 89.5784C587.2 83.9372 585.289 82.2284 585.289 82.2284C585.289 82.2284 583.58 80.9605 581.192 79.2149C578.803 77.4692 576.874 75.8706 576.874 75.8706L578.748 73.7942C578.748 73.7942 581.412 75.0621 583.47 76.4402C585.326 77.6714 587.219 76.624 587.219 76.624C587.219 76.624 587.256 75.0254 587.421 70.1376C587.568 65.6357 588.266 59.9762 587.531 57.5323C586.778 55.0884 582.019 47.6649 582.019 47.6649L583.286 45.3313C583.286 45.3313 584.481 46.1398 585.602 47.7935C586.723 49.4473 589.993 53.6552 589.993 53.6552C589.993 53.6552 591.39 50.4395 593.062 47.2422C595.12 43.3283 594.036 42.7771 596.241 43.3651C598.63 44.0082 597.931 44.3574 596.811 47.5179C595.543 51.0643 595.065 52.4424 594.165 54.4085C593.466 55.9704 593.962 78.4982 593.962 78.4982C593.962 78.4982 593.779 93.2534 594.385 93.4739C597.068 94.4661 604.546 92.7022 604.546 92.7022L604.473 94.9255L594.073 98.3065L593.834 123.517C593.834 123.517 597.362 123.388 599.291 122.47C601.221 121.551 601.551 121.863 601.551 121.863L602.323 123.866C602.323 123.866 600.136 125.704 598.225 126.126C596.866 126.439 594.826 126.972 593.797 127.247L595.065 177.246L583.709 176.823C583.727 176.805 584.646 141.8 584.518 134.377Z" fill="#814114"/>
<path fill-rule="evenodd" clip-rule="evenodd" d="M517.834 152.054C513.075 152.054 495.471 145.494 490.382 131.584C485.292 117.674 489.444 87.4653 492.789 74.7497C496.133 62.0342 517.687 0 517.687 0C517.687 0 524.339 14.2039 529.925 23.8508C535.511 33.4794 552.214 72.0119 555.429 86.473C558.645 100.934 558.755 126.843 550.413 137.997C539.921 152.054 531.744 149.371 517.834 152.054Z" fill="#1B8A4F"/>
<path fill-rule="evenodd" clip-rule="evenodd" d="M519.158 186.323C519.158 186.323 519.397 168.518 519.397 161.186C519.397 153.873 520.628 139.467 519.158 138.419C517.688 137.372 514.693 136.637 511.147 135.149C507.6 133.679 503.411 133.054 500.452 132.797C497.494 132.558 497.071 132.503 497.071 132.503L497.751 129.324C497.751 129.324 498.247 129.177 500.71 129.324C503.172 129.471 503.907 129.618 505.138 129.746C507.453 129.967 508.905 131.069 508.85 129.728C508.795 128.386 508.354 122.984 509.585 123.517C510.816 124.068 511.569 124.27 511.569 124.27C511.569 124.27 512.304 126.42 512.451 128.203C512.653 130.389 512.543 131.032 512.543 131.032C512.543 131.032 515.446 132.025 517.155 132.374C518.644 132.668 519.158 132.447 519.176 129.324C519.213 125.042 520.169 114.219 519.434 111.463C518.699 108.707 517.155 107.365 514.913 106.557C513.443 106.024 509.934 105.289 507.416 104.095C504.899 102.9 503.172 102.864 503.172 102.864L503.411 100.475C503.411 100.475 506.902 101.081 508.078 101.485C509.254 101.908 513.388 103.249 513.388 103.249C513.388 103.249 511.294 98.1963 511.294 97.5164C511.294 96.8365 511.036 93.8965 511.036 93.8965H512.929L513.499 97.0203H517.192L517.927 98.1411L514.969 99.4274L516.641 103.286L519.893 104.609C519.893 104.609 519.397 91.618 518.901 87.4101L518.405 83.2022C518.405 83.2022 515.207 81.4749 513.48 80.7399C511.753 80.0049 507.38 78.7738 507.38 78.7738L507.435 76.4586L513.333 78.2961C513.333 78.2961 512.488 77.3773 511.753 75.9992C511.018 74.6027 511.624 74.6394 511.624 74.6394L513.333 74.0882L518.147 80.1703C518.147 80.1703 517.89 62.8059 517.651 61.1889C517.413 59.5719 511.257 54.8862 511.257 54.8862L512.176 53.5816L513.48 54.1328C516.181 55.6212 517.909 57.4036 518.644 57.7344C519.379 58.0651 525.204 46.0111 526.471 45.2761L527.758 44.5411C530.22 45.7722 529.724 47.279 529.724 47.279C529.724 47.279 527.905 48.9695 526.471 51.1745C525.038 53.3795 524.505 54.2064 524.505 54.2064L528.493 57.7344L527.758 58.8736C527.758 58.8736 524.45 55.658 523.513 55.8601C522.833 56.0071 522.337 61.1705 522.337 61.1705C522.337 61.1705 524.542 73.1694 524.542 76.4586C524.542 79.7477 525.442 83.68 526.471 84.5436C527.5 85.4072 528.732 84.5436 528.732 84.5436L527.225 80.1703H529.761L531.947 84.5436C531.947 84.5436 538.342 81.4749 539.812 80.7399C541.3 80.0049 543.505 83.5513 543.505 83.5513C543.505 83.5513 542.513 83.9372 540.547 84.5436C538.581 85.1683 533.656 86.4546 531.433 87.4101C529.228 88.3656 526.471 90.1112 526.471 91.1218C526.471 92.8858 527.537 107.715 527.813 111.647C528.088 115.579 527.923 123.517 527.923 123.517C527.923 123.517 531.322 121.239 533.968 119.566C536.614 117.894 540.547 115.561 540.547 115.561L541.539 117.178L537.607 120.853C537.607 120.853 538.342 122.617 539.077 123.223L539.812 123.811L538.342 125.557C538.342 125.557 536.651 124.105 536.008 123.223L535.383 122.341L528.235 129.324L530.44 186.286H519.158V186.323Z" fill="#814114"/>
<path fill-rule="evenodd" clip-rule="evenodd" d="M631.832 157.548C631.832 157.548 632.475 156.188 640.23 157.548C669.317 162.656 691.459 149.169 688.299 148.691C670.916 146.008 657.043 142.278 659.138 140.992C661.232 139.724 688.464 137.335 683.319 136.655C676.337 135.737 656.4 127.192 658.678 126.567C661.122 125.906 684.385 125.079 679.846 123.315C663.235 116.81 656.694 110.085 658.752 110.783C660.828 111.482 677.568 113.448 674.481 111.261C664.246 104.04 655.665 90.3502 655.665 90.3502C655.665 90.3502 665.477 93.2719 669.005 94.0804C672.515 94.8889 670.457 93.0146 663.805 87.3184C657.502 81.9161 652.082 74.0332 652.082 74.0332C652.082 74.0332 654.029 73.7759 659.321 74.0332C664.613 74.2904 664.062 74.9152 659.321 69.4761C654.581 64.0371 642.288 52.1852 644.805 51.2297C647.304 50.2742 659.854 57.8999 657.484 55.3825C650.906 48.3265 634.938 19.643 634.203 21.554C633.486 23.4834 626.393 41.7114 621.524 48.1243C616.654 54.5189 607.063 59.9762 611.675 59.6455C616.287 59.3331 624.519 55.3825 624.519 55.3825C624.519 55.3825 620.219 67.3263 617.004 70.1928C613.788 73.0777 610.205 76.275 614.854 75.9442C619.503 75.6318 627.753 71.7914 625.603 74.6579C623.453 77.5428 607.485 89.1375 610.462 89.5785C613.439 90.0195 623.821 87.3 623.821 87.3C623.821 87.3 614.596 100.273 611.693 102.184C608.79 104.113 605.207 105.859 608.422 106.428C611.638 106.98 621.524 104.609 621.524 104.609C621.524 104.609 613.972 117.545 603.755 123.572C602.524 124.307 612.355 124.491 617.004 123.572C621.671 122.654 623.453 121.606 623.086 123.572C622.737 125.538 605.538 132.925 598.739 137.096C594.053 139.981 619.852 136.343 621.505 137.096C623.306 137.923 606.567 150.29 591.683 151.778C587.236 152.219 599.455 155.582 608.404 157.529C617.389 159.496 631.832 157.548 631.832 157.548Z" fill="#1B8A4F"/>
<path d="M645.118 146.431C645.247 138.989 644.567 124.418 644.567 124.418L655.904 113.429L654.416 111.61C654.416 111.61 653.222 111.867 650.171 114.183C647.158 116.443 643.299 118.721 643.299 118.721C643.299 118.721 643.079 105.987 642.858 103.066C642.435 97.6083 644.365 95.9362 644.365 95.9362C644.365 95.9362 646.074 94.705 648.462 93.0145C650.851 91.3424 652.781 89.7806 652.781 89.7806L650.888 87.7777C650.888 87.7777 648.224 89.0088 646.166 90.3318C644.31 91.5262 642.417 90.5156 642.417 90.5156C642.417 90.5156 642.38 88.972 642.215 84.2313C642.049 79.8764 641.37 74.3823 642.105 72.0303C642.858 69.6782 647.599 62.4936 647.599 62.4936L646.331 60.2151C646.331 60.2151 645.137 60.9868 644.016 62.6038C642.895 64.2025 639.624 68.2817 639.624 68.2817C639.624 68.2817 638.228 65.1763 636.555 62.0709C634.497 58.2857 635.6 57.7528 633.395 58.3041C631.006 58.9105 631.704 59.278 632.825 62.3282C634.093 65.746 634.571 67.0874 635.471 68.9984C636.188 70.5051 635.673 92.3163 635.673 92.3163C635.673 92.3163 635.857 106.594 635.251 106.814C632.568 107.77 625.089 106.061 625.089 106.061L625.163 108.211L635.563 111.5L635.802 135.902C635.802 135.902 632.274 135.773 630.345 134.891C628.415 134.009 628.084 134.303 628.084 134.303L627.313 136.233C627.313 136.233 629.499 137.997 631.41 138.419C632.789 138.713 634.81 139.228 635.839 139.503L634.571 187.903L645.927 187.499C645.908 187.499 644.99 153.616 645.118 146.431Z" fill="#A85318"/>
<path d="M573.786 52.9019C567.722 52.6997 555.631 54.7394 545.911 61.5382C534.427 69.5497 531.266 74.8049 528.326 88.3657C525.386 101.927 529.557 112.455 535.731 121.68C541.905 130.904 545.911 140.477 574.135 145.053C590.103 147.644 616.012 137.519 620.734 116.48C625.438 95.4401 619.834 80.7769 614.468 75.3195C609.103 69.8621 600.411 53.8206 573.786 52.9019Z" fill="#2FAC66"/>
<path d="M539.259 92.9043L546.499 96.9469C546.499 96.9469 550.1 97.6451 551.993 97.9759C553.738 98.2882 558.057 99.1886 558.057 99.1886L559.563 91.2138H561.235C561.235 91.2138 560.243 99.3172 561.235 99.9236C562.044 100.401 567.318 102.074 570.588 102.882C571.342 95.4952 572.169 87.3183 572.169 86.3628C572.169 85.4257 569.578 83.7719 567.501 82.8716C565.425 81.9712 560.794 80.7584 558.957 80.1888C557.101 79.6192 556.182 79.2517 556.182 79.2517C556.182 79.2517 558.259 75.9074 559.655 76.6057C561.052 77.3039 567.06 80.1888 567.06 80.1888L569.1 76.0728H571.47L570.055 80.1888C570.055 80.1888 571.213 80.9973 572.187 80.1888C573.161 79.3803 573.988 75.6869 573.988 72.5999C573.988 69.5129 573.951 68.1348 573.951 68.1348C573.087 67.951 569.523 69.6599 569.523 69.6599L568.824 68.5758L573.124 65.8746C573.124 65.8746 572.058 64.4965 570.735 62.4201C569.394 60.3437 569.467 60.4356 571.783 59.278C571.783 59.278 573.271 61.5381 574.429 63.3572C575.164 64.5333 577.332 68.4655 578.085 68.5942C578.857 68.7228 579.133 68.5574 581.172 67.8408L583.12 67.3446L583.892 69.0351C583.892 69.0351 579.225 70.2847 579.004 71.8098C578.765 73.3349 578.545 85.0215 578.545 85.0215L583.065 79.3068L584.664 79.8213C584.664 79.8213 585.252 79.8029 584.553 81.1076C583.855 82.4122 583.065 83.2758 583.065 83.2758L588.614 81.5485L588.669 83.7168C588.669 83.7168 584.572 84.856 582.936 85.5543C581.319 86.2525 578.306 87.8696 578.306 87.8696L577.846 91.8386C577.387 95.8076 576.928 107.99 576.928 107.99L582.753 105.822L584.315 102.202L581.54 100.989L582.238 99.942H585.711L588.522 95.7892L590.305 96.6712C590.305 96.6712 587.787 99.7766 587.787 100.42C587.787 101.044 585.803 105.785 585.803 105.785C585.803 105.785 589.698 104.517 590.801 104.132C591.903 103.746 605.372 100.659 605.372 100.659L605.611 103.819C605.611 103.819 597.03 106.833 594.678 107.972C594.568 108.027 594.458 108.082 594.347 108.119C594.531 108.247 594.733 108.394 594.935 108.578C596.975 110.361 599.952 111.353 599.952 111.353L598.849 114.128C598.849 114.128 593.484 110.783 591.058 109.277C589.662 109.681 585.141 111.408 584.406 111.665C582.312 112.419 578.085 114.146 577.387 116.737C576.689 119.328 577.589 127.174 577.626 131.198C577.644 134.12 578.122 134.34 579.537 134.064C581.136 133.752 583.855 132.815 583.855 132.815C583.855 132.815 583.763 132.209 583.947 130.151C584.094 128.478 584.774 126.457 584.774 126.457L586.63 125.741C586.924 126.751 586.997 128.883 586.942 130.151C586.887 131.418 590.029 130.72 591.444 129.93C592.455 129.379 594.825 128.056 598.169 126.88C600.356 126.108 603.351 125.318 603.351 125.318L604.49 128.001C604.49 128.001 599.86 129.691 596.681 131.474C596.369 131.657 596.038 131.823 595.689 131.988L599.768 132.907L598.721 134.726C598.482 134.634 597.398 134.616 596.166 134.193C594.752 133.715 593.373 133.587 592.638 133.403C589.956 134.616 587.769 135.424 585.141 136.637C581.871 138.144 579.004 138.713 577.608 139.706C576.211 140.698 577.369 169.216 577.369 176.088C577.369 182.961 577.608 190.274 577.608 190.274H566.968L569.045 131.18L560.5 123.701L559.912 124.528C559.324 125.355 557.726 126.733 557.726 126.733L556.329 125.097L557.028 124.546C557.726 123.995 558.424 122.323 558.424 122.323L554.731 118.868L555.649 117.343C555.649 117.343 559.343 119.548 561.823 121.11C561.915 121.165 562.007 121.22 562.099 121.275V114.017C562.099 114.017 561.621 112.455 562.099 112.253C562.577 112.051 563.477 112.253 563.477 112.253C563.477 112.253 563.79 113.705 564.065 115.34C564.267 116.608 564.8 121.073 565.021 123.076C567.189 124.418 569.339 125.722 569.339 125.722C569.339 125.722 569.192 118.28 569.449 114.569C569.523 113.65 569.725 111.5 569.982 108.78C565.921 107.531 559.563 105.069 555.925 104.113C551.258 102.864 550.247 101.743 548.759 102.478C547.27 103.213 547.417 109.681 546.94 110.416L544.955 109.699V105.326H540.71L540.049 103.874L544.955 103.158V98.8028C544.955 98.8028 538.395 95.3482 538.267 94.5397C538.138 93.6945 539.259 92.9043 539.259 92.9043Z" fill="#A85318"/>
<path d="M130.334 406.514C130.334 406.514 131.033 403.354 133.183 400.928C135.314 398.503 137.243 396.279 137.243 396.279L136.104 402.95C136.104 402.95 140.037 396.279 144.704 392.09C149.371 387.9 150.933 388.25 150.933 388.25C150.933 388.25 145.145 395.508 143.068 400.083C140.992 404.677 140.588 408.793 140.588 408.793C140.588 408.793 143.528 405.375 146.192 403.244C148.875 401.13 150.896 401.314 150.896 401.314C150.896 401.314 147.148 403.979 145.035 408.021C142.921 412.082 141.506 416.033 141.506 416.033L130.334 406.514Z" fill="#92C131"/>
<path d="M172.046 438.891C176.805 436.3 180.903 434.61 180.903 434.61C180.903 434.61 175.501 439.755 173.351 442.787C171.183 445.819 169.51 449.273 169.51 449.273C169.51 449.273 173.351 446.811 177.687 444.643C182.024 442.474 193.71 441.243 193.71 441.243C193.71 441.243 182.446 445.819 178.551 449.292C174.655 452.764 168.794 458.093 168.794 458.093L161.683 451.019C161.664 451 167.287 441.482 172.046 438.891Z" fill="#92C131"/>
<path d="M26.2211 449.549C26.2211 449.549 25.2105 446.462 22.8585 444.257C20.5065 442.052 16.6661 437.458 16.6661 437.458L20.139 446.554C20.139 446.554 15.6003 440.269 10.5472 436.558C5.49406 432.827 3.9873 433.324 3.9873 433.324C3.9873 433.324 10.437 439.994 12.9543 444.367C15.4533 448.74 16.2435 452.801 16.2435 452.801C16.2435 452.801 13.1748 451.037 10.3083 449.181C7.44182 447.325 5.45731 447.711 5.45731 447.711C5.45731 447.711 9.42632 450.008 11.9253 453.83C14.4243 457.67 16.023 460.096 16.023 460.096L26.2211 449.549Z" fill="#92C131"/>
<path d="M58.6539 393.229C56.8164 389.867 55.034 387.312 55.034 387.312C55.034 387.312 56.2652 392.421 56.3938 395.048C56.5224 397.676 56.1916 400.377 56.1916 400.377C56.1916 400.377 54.8503 397.437 53.123 394.515C51.3774 391.575 44.9277 386.375 44.9277 386.375C44.9277 386.375 49.8523 393.395 50.8445 396.941C51.8368 400.487 53.27 405.89 53.27 405.89L60.1974 404.42C60.179 404.383 60.473 396.592 58.6539 393.229Z" fill="#92C131"/>
<path d="M0.165376 484.186C28.6835 491.756 43.0528 495.211 92.4266 493.355C146.339 491.334 170.447 482.422 182.281 475.164C177.907 466.013 171.55 463.661 165.743 452.14C162.05 444.826 160.286 442.879 153.726 434.224C148.048 426.745 146.357 423.052 141.286 413.203C137.133 405.118 128.938 401.149 124.565 393.248C119.548 384.225 113.043 379.558 107.329 372.814C104.903 369.966 103.874 362.616 101.724 362.984C99.6663 363.333 97.9758 365.097 96.3221 366.457C93.2718 368.956 89.4314 369.801 85.8483 370.591C82.2284 371.4 78.4064 371.326 74.8049 370.371C73.0776 369.93 72.9857 365.115 71.4974 365.593C70.0457 366.071 68.2266 367.927 66.628 373.972C65.3968 378.621 59.5719 381.046 56.2461 387.551C52.8834 394.148 46.1398 402.711 44.8903 408.003C42.9609 416.253 31.4765 425.698 29.492 434.867C28.2057 440.765 14.3877 460.537 11.172 465.792C7.47865 471.783 2.66438 474.87 0 483.653" fill="#A85318"/>
<path d="M69.8614 367.688C68.5935 370.334 79.1041 374.689 87.9241 373.053C96.248 371.51 105.05 368.276 102.698 363.792C96.3399 359.897 92.279 360.081 85.5537 360.761C75.6495 361.771 71.8092 365.556 69.8614 367.688Z" fill="#814114"/>
<path d="M79.8772 410.63C79.8772 412.174 78.6277 413.405 77.0842 413.405C75.5591 413.405 73.4092 412.155 73.4092 410.63C73.4092 409.105 75.5407 407.856 77.0842 407.856C78.6277 407.856 79.8772 409.105 79.8772 410.63Z" fill="#814114"/>
<path d="M98.2333 393.027C98.2333 394.571 96.9838 395.802 95.4587 395.802C93.9152 395.802 91.7837 394.552 91.7837 393.027C91.7837 391.502 93.9152 390.252 95.4587 390.252C97.0022 390.252 98.2333 391.484 98.2333 393.027Z" fill="#814114"/>
<path d="M133.073 429.116C133.073 430.659 131.824 431.89 130.299 431.89C128.773 431.89 126.624 430.641 126.624 429.116C126.624 427.591 128.773 426.341 130.299 426.341C131.824 426.341 133.073 427.591 133.073 429.116Z" fill="#814114"/>
<path d="M87.7231 454.951C87.7231 456.494 86.4736 457.726 84.9484 457.726C83.4233 457.726 81.2734 456.476 81.2734 454.951C81.2734 453.426 83.4049 452.176 84.9484 452.176C86.492 452.176 87.7231 453.426 87.7231 454.951Z" fill="#814114"/>
<path d="M102.424 429.116C103.067 430.788 101.174 431.89 99.6494 431.89C98.1242 431.89 96.7461 430.641 96.7461 429.116C96.7461 427.572 98.1059 426.341 99.6494 426.341C101.174 426.341 101.873 427.701 102.424 429.116Z" fill="#814114"/>
<path d="M64.2956 433.305C64.9387 434.977 63.0461 436.08 61.5209 436.08C59.9774 436.08 58.6177 434.83 58.6177 433.305C58.6177 431.78 59.9774 430.531 61.5209 430.531C63.0461 430.531 63.7443 431.872 64.2956 433.305Z" fill="#814114"/>
<path d="M99.5192 478.875C100.162 480.547 98.2697 481.65 96.7446 481.65C95.2011 481.65 93.8413 480.4 93.8413 478.875C93.8413 477.35 95.2011 476.101 96.7446 476.101C98.2697 476.101 98.9679 477.46 99.5192 478.875Z" fill="#814114"/>
<path d="M146.726 439.792C147.295 441.243 145.991 442.585 144.631 442.585C143.289 442.585 142.077 441.923 142.077 440.6C142.077 439.259 143.271 438.175 144.631 438.175C145.991 438.175 146.248 438.542 146.726 439.792Z" fill="#814114"/>
<path d="M63.7788 468.622C64.3484 470.092 63.0438 471.415 61.684 471.415C60.3426 471.415 59.1299 470.753 59.1299 469.43C59.1299 468.107 60.3243 467.005 61.684 467.005C63.0254 467.005 63.2827 467.373 63.7788 468.622Z" fill="#814114"/>
<path d="M82.1367 383.986C82.7063 385.456 81.4017 386.779 80.0419 386.779C78.7005 386.779 77.4878 386.118 77.4878 384.795C77.4878 383.454 78.7005 382.369 80.0419 382.369C81.3833 382.369 81.6406 382.755 82.1367 383.986Z" fill="#814114"/>
<path d="M147.919 478.287C148.489 479.739 147.184 481.08 145.824 481.08C144.483 481.08 143.27 480.419 143.27 479.096C143.27 477.754 144.464 476.67 145.824 476.67C147.166 476.67 147.423 477.056 147.919 478.287Z" fill="#814114"/>
<path d="M113.502 447.968C114.072 449.42 112.767 450.761 111.408 450.761C110.066 450.761 108.854 450.1 108.854 448.777C108.854 447.435 110.048 446.351 111.408 446.351C112.767 446.333 113.025 446.719 113.502 447.968Z" fill="#814114"/>
<path d="M40.3711 478.287C40.9407 479.739 39.6361 481.08 38.2763 481.08C36.9349 481.08 35.7222 480.419 35.7222 479.096C35.7222 477.754 36.9165 476.67 38.2763 476.67C39.6361 476.67 39.8933 477.056 40.3711 478.287Z" fill="#814114"/>
<path d="M44.7793 441.997C45.3489 443.448 44.0443 444.79 42.6845 444.79C41.3431 444.79 40.1304 444.128 40.1304 442.805C40.1304 441.464 41.3247 440.38 42.6845 440.38C44.0443 440.38 44.3015 440.747 44.7793 441.997Z" fill="#814114"/>
<path d="M123.444 404.75C123.444 406.275 122.194 407.525 120.669 407.525C119.126 407.525 116.994 406.275 116.994 404.75C116.994 403.225 119.126 401.976 120.669 401.976C122.194 401.976 123.444 403.225 123.444 404.75Z" fill="#814114"/>
<path d="M162.895 462.871C162.895 464.414 161.645 465.645 160.12 465.645C158.577 465.645 156.445 464.396 156.445 462.871C156.445 461.327 158.577 460.096 160.12 460.096C161.645 460.096 162.895 461.346 162.895 462.871Z" fill="#814114"/>
<path d="M125.852 466.435C125.852 467.979 124.602 469.21 123.077 469.21C121.552 469.21 119.402 467.961 119.402 466.435C119.402 464.91 121.533 463.661 123.077 463.661C124.602 463.642 125.852 464.892 125.852 466.435Z" fill="#814114"/>
<path d="M39.56 462.209C39.56 463.753 38.3105 464.984 36.7854 464.984C35.2419 464.984 33.1104 463.734 33.1104 462.209C33.1104 460.666 35.2419 459.435 36.7854 459.435C38.3105 459.435 39.56 460.666 39.56 462.209Z" fill="#814114"/>
<path d="M124.693 466.693C125.649 464.506 126.347 461.217 128.846 458.075C131.326 454.933 134.652 451.184 134.652 451.184C134.652 451.184 130.242 453.003 127.192 456.384C124.142 459.765 121.11 465.609 121.11 465.609C121.11 465.609 119.916 468.089 121.312 468.787C122.984 469.614 124.289 467.593 124.693 466.693Z" fill="#92C131"/>
<path d="M75.5771 411.714C74.8972 410.171 74.4011 407.874 72.6554 405.651C70.9098 403.446 68.5762 400.8 68.5762 400.8C68.5762 400.8 71.6816 402.086 73.8131 404.456C75.9446 406.827 78.0944 410.943 78.0944 410.943C78.0944 410.943 78.9213 412.688 77.9474 413.166C76.7898 413.772 75.8527 412.358 75.5771 411.714Z" fill="#92C131"/>
<path d="M151.502 409.344C151.502 409.344 146.614 420.682 145.438 421.417C144.281 422.152 140.514 419.8 140.514 419.8" stroke="black" stroke-width="0.45" stroke-miterlimit="10" stroke-linecap="round" stroke-linejoin="round"/>
<path d="M143.343 398.65C143.343 398.65 138.254 410.226 137.096 410.961C135.938 411.696 132.171 409.326 132.171 409.326" stroke="black" stroke-width="0.45" stroke-miterlimit="10" stroke-linecap="round" stroke-linejoin="round"/>
<path d="M136.16 388.654C136.16 388.654 123.941 391.098 122.71 390.528C121.46 389.958 121.405 386.1 121.405 386.1" stroke="black" stroke-width="0.45" stroke-miterlimit="10" stroke-linecap="round" stroke-linejoin="round"/>
<path d="M155.398 359.713C155.398 359.713 163.887 347.218 163.501 345.895C163.115 344.572 157.915 343.672 157.915 343.672" stroke="black" stroke-width="0.45" stroke-miterlimit="10" stroke-linecap="round" stroke-linejoin="round"/>
<path d="M146.265 357.251C146.265 357.251 150.675 342.808 149.922 341.669C149.169 340.529 143.932 341.191 143.932 341.191" stroke="black" stroke-width="0.45" stroke-miterlimit="10" stroke-linecap="round" stroke-linejoin="round"/>
<path d="M162.711 400.469C159.312 396.316 155.563 393.688 150.951 392.2C153.083 387.073 151.19 379.962 142.645 379.246C140.33 379.135 137.28 379.393 135.81 381.506C135.81 381.506 133.789 384.556 133.623 387.276C133.274 392.365 135.939 394.993 140.551 396.831C141.359 397.143 142.131 397.327 142.884 397.4C140.992 402.692 147.239 410.373 151.208 412.504C154.644 414.397 162.546 417.65 165.578 414.36C169.344 410.722 165.302 403.409 162.711 400.469Z" fill="#814114"/>
<path d="M129.323 368.184C129.121 380.697 143.123 384.28 152.219 379.338C157.786 376.195 160.579 371.381 159.238 364.674C157.695 357.71 150.124 354.697 148.25 354.201C146.504 353.723 129.562 350.985 129.323 368.184Z" fill="#A85318"/>
<path d="M134.119 353.153C128.533 353.502 127.688 361.091 132.208 362.892C135.35 364.141 138.952 361.587 139.246 358.133C139.356 354.641 136.729 352.731 134.119 353.153Z" fill="white"/>
<path d="M144.061 369.911C149.757 372.392 151.999 368.735 152.862 366.64C155.104 361.146 148.011 356.644 143.601 360.466C140.827 362.837 140.588 368.257 144.061 369.911Z" fill="white"/>
<path d="M134.45 357.508C134.046 357.729 133.826 358.776 134.653 359.07C135.388 359.327 135.902 358.739 135.92 358.335C135.939 357.673 135.351 357.104 134.45 357.508Z" fill="black"/>
<path d="M148.397 365.85C148.783 366.475 149.738 366.475 150.179 365.85C150.712 365.115 150.014 364.509 149.591 364.38C148.856 364.178 147.956 364.95 148.397 365.85Z" fill="black"/>
<path d="M134.267 371.105C135.351 376.361 140.257 375.277 141.599 372.998" stroke="black" stroke-width="0.45" stroke-miterlimit="10" stroke-linecap="round" stroke-linejoin="round"/>
<path d="M586.02 446.561C584.734 446.855 584.973 445.164 584.55 442.959C584.238 445.311 583.043 447.479 581.151 446.781C579.975 446.359 581.5 443.731 582.216 441.912C581.353 442.996 579.883 444.429 578.541 444.301C577.145 444.154 578.1 441.324 579.975 438.99C574.333 438.237 578.266 435.113 582.033 436.16C586.002 429.38 586.718 417.087 586.571 413.688C586.571 413.651 585.965 407.918 585.946 407.881C586.314 406.007 591.79 405.897 591.9 407.881C592.69 421.736 591.808 431.787 587.031 437.134C588.023 440.589 587.545 446.193 586.02 446.561Z" fill="#E4D5B8"/>
<path d="M570.511 352.131C570.511 352.131 571.007 370.562 570.842 375.927C570.639 381.917 570.401 386.658 569.372 390.241C567.424 396.985 560.882 403.875 560.882 403.875C560.882 403.875 567.497 405.07 571.466 400.439C575.435 395.809 577.291 392.63 577.291 392.63C577.291 392.63 575.546 404.372 573.01 407.716C570.07 411.593 564.337 413.633 564.337 413.633C564.337 413.633 569.335 416.775 575.527 413.192C581.738 409.609 586.019 405.437 586.019 405.437L615.125 402.222C615.125 402.222 618.47 413.339 621.814 415.801C625.471 418.502 632.766 418.134 632.766 418.134C632.766 418.134 627.051 414.754 624.736 410.435C622.42 406.117 623.652 401.101 623.652 401.101C623.652 401.101 627.143 407.165 632.122 409.774C637.12 412.401 643.497 411.042 643.497 411.042C643.497 411.042 634.383 405.382 632.527 401.542C630.671 397.701 631.204 394.394 631.204 394.394C631.204 394.394 635.687 401.487 639.252 402.626C642.817 403.765 646.694 401.689 646.694 401.689C646.694 401.689 641.604 397.334 638.94 392.924C633.354 383.7 630.377 351.69 626.647 349.118C622.935 346.545 610.219 336.053 594.913 340.647C579.533 345.259 570.511 352.131 570.511 352.131Z" fill="#F39200"/>
<path d="M592.873 396.176C592.873 396.176 593.737 392.428 589.437 391.803C585.137 391.178 580.433 395.643 582.16 401.854C583.208 405.603 584.807 408.726 584.807 408.726L591.734 408.579L592.873 396.176Z" fill="#2FAC66"/>
<path d="M614.959 382.854H591.329V412.714H614.959V382.854Z" fill="#D5C2A2"/>
<path d="M618.618 414.11C619.335 421.791 621.282 430.593 621.282 430.593C621.282 430.593 611.029 429.27 602.889 429.711C594.749 430.152 589.824 430.519 589.824 430.519C589.824 430.519 590.339 420.303 590.026 414.717C589.622 407.459 590.247 403.067 591.074 398.712C596.825 397.04 603.128 402.828 603.128 402.828C603.128 402.828 608.31 397.297 615.439 396.801C617.313 403.526 617.975 407.165 618.618 414.11Z" fill="#B780B1"/>
<path d="M622.016 429.931C622.016 429.931 629.531 441.526 637.267 457.843C645.591 475.41 655.311 504.075 656.01 505.067C649.266 509.146 637.267 512.987 609.925 513.225C574.002 513.538 560 507.86 560 507.86C560 507.86 567.699 481.859 574.645 465.689C582.142 448.251 589.841 431.732 589.841 431.732L622.016 429.931Z" fill="#B780B1"/>
<path d="M605.038 432.632C605.038 432.632 602.263 462.216 641.862 462.216C641.862 462.216 640.539 452.588 634.659 443.768C629.881 436.601 622.862 430.06 622.862 430.06L605.038 432.632Z" fill="#2FAC66"/>
<path d="M599.838 432.798C599.838 432.798 606.085 460.746 573.286 465.818C573.286 465.818 574.792 457.898 579.184 447.884C582.639 440.001 589.511 431.879 589.511 431.879L599.838 432.798Z" fill="#2FAC66"/>
<path d="M620.766 425.356C620.766 425.356 617.954 426.973 608.84 427.708C599.653 428.461 594.177 427.965 589.841 427.285L589.51 431.916C589.51 431.916 601.343 433.404 606.507 432.963C618.708 431.916 622.861 430.097 622.861 430.097L620.766 425.356Z" fill="#1B8A4F"/>
<path d="M624.607 462.216C624.607 462.216 628.319 471.459 630.983 480.83C634.052 491.653 635.65 499.058 635.65 499.058" stroke="#85557C" stroke-width="0.569" stroke-linecap="round"/>
<path d="M601.932 502.568C601.932 502.568 606.36 473.792 604.927 453.635" stroke="#85557C" stroke-width="0.569" stroke-linecap="round"/>
<path d="M588.004 465.597C588.004 465.597 585.229 473.756 583.52 481.289C581.315 490.973 579.698 500.932 579.698 500.932" stroke="#85557C" stroke-width="0.569" stroke-linecap="round"/>
<path d="M618.084 405.272C618.084 405.272 617.551 427.983 626.389 439.835C629.954 444.613 631.589 447.094 632.894 446.267C634.052 445.532 630.781 441.563 630.781 441.563C630.781 441.563 635.338 446.487 636.349 444.576C637.359 442.665 633.115 439.413 633.115 439.413C633.115 439.413 639.362 442.518 638.958 440.405C638.517 438.145 633.868 436.399 633.868 436.399C633.868 436.399 637.506 434.745 635.669 433.184C634.07 431.824 630.211 434.47 630.211 434.47C630.211 434.47 626.885 430.979 626.095 425.466C625.305 419.972 623.707 403.875 623.707 403.875L618.084 405.272Z" fill="#E4D5B8"/>
<path d="M614.168 394.265C614.168 394.265 612.864 390.645 617.053 389.525C621.243 388.404 626.443 392.262 625.469 398.639C624.881 402.479 625.175 405.015 625.175 405.015L617.476 406.466L614.168 394.265Z" fill="#2FAC66"/>
<path d="M614.885 337.247L616.079 319.791C616.079 319.791 610.052 329.034 606.763 327.215C603.474 325.396 601.857 319.332 601.857 319.332C601.857 319.332 599.156 328.593 596.087 328.133C593.037 327.692 589.858 319.001 589.858 319.001C589.858 319.001 591.843 327.527 587.157 328.133C582.49 328.74 576.793 322.382 576.793 322.382L582.324 338.864C582.324 338.864 593.257 336.659 600.589 336.255C607.921 335.851 614.885 337.247 614.885 337.247Z" fill="#FFDE00"/>
<path d="M601.932 318.266C601.914 317.99 606.508 311.357 604.744 310.438C602.98 309.519 601.822 311.927 601.822 311.927C601.822 311.927 600.205 309.299 598.643 310.181C596.659 311.284 601.932 318.266 601.932 318.266Z" fill="#E30613"/>
<path d="M615.915 319.387C615.951 319.111 621.85 313.58 620.306 312.331C618.781 311.063 617.127 313.158 617.127 313.158C617.127 313.158 616.098 310.254 614.39 310.787C612.24 311.467 615.915 319.387 615.915 319.387Z" fill="#E30613"/>
<path d="M590.134 319.203C590.043 318.946 592.486 311.247 590.52 310.898C588.554 310.548 588.168 313.176 588.168 313.176C588.168 313.176 585.835 311.136 584.604 312.441C583.042 314.095 590.134 319.203 590.134 319.203Z" fill="#E30613"/>
<path d="M576.813 322.198C576.685 321.959 578.063 314.003 576.079 313.911C574.094 313.819 574.057 316.484 574.057 316.484C574.057 316.484 571.485 314.775 570.437 316.226C569.096 318.082 576.813 322.198 576.813 322.198Z" fill="#E30613"/>
<path d="M620.582 342.76C620.582 342.76 627.564 359.353 626.48 371.995C624.973 389.322 610.42 397.205 598.182 395.551C579.513 393.016 575.802 375.835 574.405 367.75C572.531 356.872 578.099 344.414 578.099 344.414C578.099 344.414 587.194 340.573 596.29 337.156C605.404 333.775 620.582 342.76 620.582 342.76Z" fill="#E4D5B8"/>
<path d="M577.751 378.83C577.751 381.844 580.176 384.269 583.19 384.269C586.185 384.269 588.629 381.844 588.629 378.83C588.629 375.835 586.203 373.391 583.19 373.391C580.176 373.41 577.751 375.835 577.751 378.83Z" fill="#F3A5C2"/>
<path d="M600.939 368.173C600.939 368.173 598.954 370.617 597.043 372.454C595.812 373.63 594.71 376.294 598.752 376.699C602.795 377.103 603.548 375.725 603.548 375.725" stroke="black" stroke-width="0.432" stroke-linecap="round"/>
<path fill-rule="evenodd" clip-rule="evenodd" d="M586.24 358.066C589.712 357.993 591.917 359.904 592.211 363.377C592.505 366.868 590.503 369.551 587.544 369.863C584.292 370.212 581.352 367.695 581.389 364.296C581.444 360.804 582.969 358.14 586.24 358.066Z" fill="white"/>
<path fill-rule="evenodd" clip-rule="evenodd" d="M584.642 363.34C585.285 363.285 585.616 363.671 585.69 364.314C585.726 364.939 585.414 365.435 584.789 365.49C584.146 365.545 583.65 365.122 583.595 364.479C583.54 363.836 583.999 363.377 584.642 363.34Z" fill="black"/>
<path fill-rule="evenodd" clip-rule="evenodd" d="M612.497 355.935C616.117 356.247 618.175 358.489 618.083 362.109C617.991 365.765 615.933 368.375 612.497 368.283C609.098 368.191 606.672 365.453 606.782 361.815C606.874 358.195 609.116 355.641 612.497 355.935Z" fill="white"/>
<path fill-rule="evenodd" clip-rule="evenodd" d="M610.219 361.466C610.862 361.484 611.156 361.907 611.137 362.532C611.119 363.175 610.751 363.616 610.108 363.616C609.465 363.597 609.024 363.12 609.043 362.476C609.043 361.852 609.575 361.429 610.219 361.466Z" fill="black"/>
<path d="M606.396 380.907C606.396 380.907 606.084 385.886 602.189 386.291C599.928 386.529 598.091 383.663 597.705 383.351C604.283 382.799 606.396 380.907 606.396 380.907Z" fill="black"/>
<path d="M609.062 344.653C609.062 344.653 605.259 350.808 602.282 352.995C599.323 355.181 595.024 356.854 597.229 352.186C599.452 347.501 598.57 347.593 598.57 347.593C598.57 347.593 584.623 359.702 583.135 356.321C582.014 353.803 587.067 348.713 587.067 348.713C587.067 348.713 573.488 359.463 569.721 358.856C566.597 358.36 571.044 348.879 574.407 345.057C577.604 341.419 579.772 340.059 582.253 338.644C588.17 335.245 598.68 332.709 609.209 334.381C619.738 336.053 631.039 348.787 629.771 351.562C628.503 354.336 616.32 346.894 616.32 346.894C616.32 346.894 622.458 355.622 617.515 354.52C612.572 353.399 609.062 344.653 609.062 344.653Z" fill="#F39200"/>
<path d="M614.96 374.512C614.96 377.526 617.385 379.951 620.399 379.951C623.394 379.951 625.838 377.526 625.838 374.512C625.838 371.517 623.394 369.073 620.399 369.073C617.404 369.073 614.96 371.517 614.96 374.512Z" fill="#F3A5C2"/>
</svg>
