<?xml version="1.0" encoding="utf-8"?>
<!-- Generator: Adobe Illustrator 25.3.1, SVG Export Plug-In . SVG Version: 6.00 Build 0)  -->
<svg version="1.1" id="Layer_1" xmlns="http://www.w3.org/2000/svg" xmlns:xlink="http://www.w3.org/1999/xlink" x="0px" y="0px"
	 viewBox="0 0 833 604" style="enable-background:new 0 0 833 604;" xml:space="preserve">
<style type="text/css">
	.st0{fill:#2FAC66;}
</style>
<path class="st0" d="M0,51.5c-0.1-1,0-2.1,0.2-3.1c0.2-1.1,0.4-2.1,0.5-3.1c0.1-0.7,0.2-1.5,0.2-2.2c0-0.7,0.1-1.5,0.2-2.2
	c0-0.1-0.1-0.1-0.1-0.2v-0.2l0.6-3.6c-0.2-0.6-0.2-1.2,0-1.8c0.2-0.6,0.4-1.2,0.4-1.7c0-0.4,0.1-1.1,0.2-2.1
	c0.1-1.1,0.3-2.2,0.5-3.6c0.2-1.4,0.4-2.8,0.6-4.2c0.1-1.5,0.4-2.9,0.6-4.1c0.2-1.3,0.4-2.3,0.6-3.2c0.2-0.9,0.4-1.4,0.6-1.5
	C5.7,14.2,6.3,14,7,14c0.7,0,1.4-0.1,2-0.1c0.5-0.1,0.8-0.1,1.1-0.1c0.3,0,0.7,0,1.2,0.1c0.5,0.3,0.8,0.8,1.1,1.5
	c0.3,2,0.7,3.9,1.2,5.8c0.6,1.8,1.1,3.7,1.6,5.7c0,0.1,0.1,0.3,0.2,0.6c0.1,0.4,0.2,0.7,0.3,1.1c0.1,0.4,0.2,0.8,0.3,1.1
	c0.1,0.4,0.2,0.6,0.2,0.6c0.1,0.2,0.2,0.5,0.3,1c0.1,0.5,0.2,0.8,0.3,0.9c0,0.1,0,0.1,0.1,0.1c0,0.1,0.1,0.1,0.1,0.1h0.1
	c0.2,0,0.4-0.5,0.5-1.4s0.3-2.1,0.3-3.5c0.1-1.4,0.2-2.9,0.3-4.5c0.1-1.6,0.2-3.1,0.3-4.5c0.1-1.4,0.3-2.6,0.5-3.5
	c0.2-0.9,0.5-1.4,0.8-1.5l5.8-0.5c0.1,0,0.3,0.1,0.5,0.3c0.2,0.2,0.3,0.3,0.3,0.5l1.1,8c0.1,0.3,0.2,0.6,0.3,0.9
	c0.1,0.3,0.2,0.7,0.3,0.9c0,0.4,0.1,1,0.2,1.9c0.1,0.9,0.3,1.8,0.4,2.9c0.2,1.1,0.3,2.2,0.5,3.4c0.2,1.2,0.3,2.3,0.5,3.4
	c0.2,1.1,0.3,2.1,0.4,2.9c0.1,0.9,0.2,1.5,0.3,1.9c0,0.4,0.1,1,0.3,1.9c0.2,0.9,0.3,1.8,0.5,2.8c0.2,1,0.4,2,0.5,2.8
	c0.2,0.9,0.3,1.5,0.4,1.9v0.2c0,0.2,0,0.4,0,0.7c-0.1,0.3-0.2,0.5-0.4,0.6l-5,0.3l-3.2-24.4l-0.3-0.9l-3.1,25.3l-3.3,0.3L9.5,26
	L5.4,53c0,0.3-0.1,0.4,0,0.5c0,0.1-0.1,0.1-0.3,0.1c0,0-0.1,0-0.1,0s0,0-0.1,0H5c-0.3,0-0.7-0.1-1.3-0.1c-0.5-0.1-1.1-0.2-1.6-0.3
	c-0.6-0.2-1-0.4-1.4-0.6C0.3,52.3,0.1,52,0,51.5z"/>
<path class="st0" d="M53.8,51.2c-0.2-0.1-0.4-0.2-0.6-0.4c-0.2-0.2-0.3-0.4-0.3-0.5l-1.3-11.7c0-0.2-0.1-0.3-0.2-0.4
	c-0.1-0.1-0.3-0.2-0.4-0.1l-6.4,0.6l1.1,9.7c0.1,0.6,0.3,1.1,0.5,1.6c0.3,0.5,0.4,1,0.5,1.6c0,0.2,0,0.4-0.1,0.4
	c-0.1,0.1-0.3,0.1-0.5,0.1c-0.1,0-0.2,0-0.3,0c-0.1,0-0.2,0-0.3,0h-0.7c-0.3,0-0.6,0-1,0c-0.3,0-0.6,0.1-0.9,0.1c-0.3,0-0.5,0-0.5,0
	c-0.7,0-1.2-0.1-1.6-0.2c-0.4-0.2-0.7-0.4-0.9-0.7c-0.2-0.3-0.4-0.7-0.5-1.1c-0.1-0.4-0.2-0.9-0.3-1.5c-0.2-2-0.3-4-0.5-6.1
	c-0.1-2-0.2-4-0.3-6.1c0,0,0-0.2,0-0.6c0-0.4-0.1-0.8-0.1-1.3c0-0.5-0.1-1-0.1-1.4c0-0.5-0.1-0.8-0.1-1.1c-0.1-1.4,0-2.7,0.2-3.9
	c0.2-1.2,0.4-2.5,0.7-3.9c-0.3-0.6-0.2-1.3,0.1-2c0.3-0.7,0.6-1.3,0.8-1.9c0.1-0.3,0.1-0.6,0.2-0.8c0-0.3,0.1-0.6,0.2-0.9
	c0,0,0-0.1,0.1-0.2c0-0.1,0.1-0.1,0.1-0.1c0.4-0.7,0.8-1.5,1.1-2.2c0.3-0.8,0.7-1.5,1.2-2.2c0.3-0.5,0.7-0.9,1.2-1.4
	c0.5-0.5,1-0.9,1.6-1.3c0.6-0.4,1.1-0.7,1.7-1c0.6-0.3,1.2-0.4,1.8-0.5c1.7-0.2,2.9,0.1,3.9,0.7c0.9,0.6,1.7,1.4,2.2,2.4
	c0.5,1,1,2,1.2,3.2c0.3,1.2,0.6,2.2,1,3.2c0,0.1,0,0.3,0.1,0.6c0.1,0.3,0.1,0.6,0.2,0.9c0.1,0.3,0.1,0.6,0.2,0.9
	c0.1,0.3,0.1,0.5,0.1,0.6c0.3,2.4,0.4,4.9,0.5,7.4c0.1,2.5,0.2,4.9,0.3,7.4c0,0.6-0.1,1.3-0.2,1.9c-0.1,0.7-0.1,1.3-0.1,1.9
	c0,0.1,0,0.3,0.1,0.6c0,0.3,0.1,0.7,0.1,1c0,0.4,0.1,0.7,0.2,1c0.1,0.3,0.1,0.5,0.1,0.6v1.8c0,0.1,0,0.3,0,0.6c0,0.3,0,0.7,0.1,1
	c0,0.4,0,0.7,0.1,1c0,0.3,0,0.5,0,0.6c0,0.2,0,0.6-0.1,1c-0.1,0.5-0.3,0.7-0.7,0.8h-0.1c0,0-0.2,0-0.4-0.1c-0.2,0-0.3-0.1-0.4-0.1
	c-0.1,0-0.3,0-0.7,0c-0.3,0-0.7,0-1,0c-0.4,0-0.7,0-1,0C54.2,51.2,54,51.2,53.8,51.2z M41,8.3c0-0.1,0.2-0.3,0.5-0.7
	c0.3-0.3,0.7-0.7,1.1-1.1c0.4-0.4,0.8-0.8,1.2-1.1c0.4-0.4,0.7-0.6,0.9-0.8c0.1,0,0.2-0.2,0.5-0.4c0.2-0.2,0.4-0.4,0.4-0.5
	c0.1-0.1,0.3-0.3,0.5-0.5c0.2-0.2,0.5-0.5,0.7-0.8c0.3-0.3,0.5-0.5,0.8-0.8l0.5-0.5c0.1-0.3,0.4-0.6,0.9-0.9C49.2,0.2,49.6,0,49.9,0
	c0.2,0,0.3,0.1,0.6,0.2c0.2,0.2,0.5,0.3,0.7,0.5c0.3,0.2,0.5,0.4,0.6,0.6c0.2,0.2,0.3,0.3,0.3,0.4v0.6v0.6c0,0.2-0.1,0.4-0.3,0.5
	c-0.1,0.1-0.3,0.3-0.6,0.5c-0.3,0.3-0.5,0.4-0.6,0.5c-1.2,0.9-2.4,1.7-3.7,2.6c-1.2,0.9-2.5,1.8-3.7,2.6c-0.1,0.1-0.2,0.1-0.3,0.1
	s-0.2,0-0.3,0c-0.4,0-0.8-0.2-1.1-0.4C41.2,8.9,41,8.6,41,8.3z M44.8,31.3c0,0.5,0.3,0.8,0.8,0.9c0.5,0.2,1,0.3,1.7,0.4
	c0.6,0.1,1.3,0.1,1.9,0.1c0.6,0,1.1-0.1,1.4-0.1c0.1,0,0.2,0,0.5,0c0.2,0,0.4,0,0.5,0c0.1-0.1,0.1-0.2,0.2-0.3
	c0-0.1,0.1-0.2,0.1-0.3c0-0.2,0-0.6-0.1-1.1c-0.1-0.5-0.1-1-0.1-1.6c0-0.6,0-1.1-0.1-1.6c0-0.5,0-0.9,0-1.1c0-0.1,0.1-0.3,0.1-0.5
	v-0.6L51,20c0-0.3-0.1-0.6-0.3-0.9c-0.2-0.3-0.3-0.6-0.6-0.9c-0.2-0.3-0.5-0.5-0.8-0.7c-0.3-0.2-0.6-0.2-1-0.2
	c-0.3,0-0.6,0.1-0.8,0.3c-1.2,1.3-2,2.6-2.3,3.9c-0.3,1.4-0.5,2.9-0.5,4.5c0,0.9,0,1.8-0.1,2.6C44.7,29.6,44.7,30.4,44.8,31.3z"/>
<path class="st0" d="M63.7,42.8c0.3-0.7,0.7-1.2,1.4-1.4c0.7-0.2,1.5-0.3,2.4-0.2c0.9,0.1,2,0.3,3.1,0.5c1.2,0.3,2.4,0.5,3.6,0.7
	c0.5,0,1-0.2,1.4-0.4c0.4-0.2,0.8-0.5,1.1-0.9c0.3-0.4,0.7-0.8,0.9-1.2c0.3-0.5,0.6-0.9,0.9-1.3c0,0,0.1-0.1,0.1-0.3
	c0-0.1,0.1-0.2,0.1-0.3L78.5,35c-0.1,0-0.3-0.2-0.7-0.6c-0.4-0.3-0.7-0.6-0.9-0.8c-0.1-0.1-0.2-0.2-0.4-0.3
	c-0.2-0.1-0.4-0.2-0.4-0.2c-1.3-0.6-2.5-1-3.6-1.3c-1.1-0.3-2.2-0.7-3.1-1.2s-1.9-1.1-2.7-1.9c-0.8-0.8-1.5-1.9-2.1-3.4
	c0-0.1,0-0.3,0-0.5c0.1-0.2,0-0.5,0-0.7c0-0.3-0.1-0.5-0.1-0.7c0-0.2,0-0.3,0-0.4c0-0.5-0.1-1.1-0.2-1.7c-0.1-0.6,0-1.1,0.2-1.7
	c0-0.2,0.1-0.4,0.2-0.8c0.1-0.4,0.3-0.8,0.4-1.2c0.2-0.4,0.3-0.8,0.4-1.2c0.1-0.4,0.2-0.6,0.3-0.8v-0.3c0.2-0.3,0.4-0.6,0.6-0.8
	c0.2-0.2,0.4-0.4,0.5-0.6c0.2-0.2,0.3-0.4,0.4-0.5c1.2-1.4,2.4-2.4,3.6-3.1c1.2-0.7,2.7-1.1,4.4-1.3c0.5,0,1.2,0,2.1,0.2
	c0.9,0.2,1.8,0.4,2.8,0.7c0.9,0.3,1.7,0.7,2.4,1.1c0.7,0.5,1.1,1,1.1,1.5c0,0.3,0,0.8-0.1,1.3c-0.1,0.6-0.2,1.1-0.4,1.7
	c-0.2,0.6-0.4,1-0.7,1.5c-0.3,0.4-0.6,0.7-1,0.7c-1,0.1-1.9,0.1-2.9,0c-1-0.1-1.9-0.1-2.9,0c-0.2,0-0.6,0-1.1,0.1
	c-0.6,0.1-1,0.1-1.1,0.1c-0.1,0.1-0.3,0.2-0.5,0.3c-0.3,0.1-0.5,0.2-0.7,0.4c-0.3,0.2-0.5,0.3-0.6,0.4c-0.2,0.2-0.3,0.3-0.3,0.5
	l0.3,3.3c0,0.2,0.1,0.4,0.4,0.5c0.2,0.2,0.5,0.3,0.8,0.5c0.3,0.2,0.6,0.3,0.9,0.5c0.3,0.1,0.5,0.2,0.6,0.3c1.5,0.7,2.8,1.4,4,2
	c1.2,0.6,2.3,1.4,3.1,2.2c0.9,0.9,1.6,1.9,2.1,3c0.5,1.2,0.9,2.6,1,4.3c0.2,1.5,0.1,3-0.3,4.5c-0.4,1.5-0.9,2.8-1.7,3.9
	c-0.8,1.2-1.8,2.1-3,2.9c-1.2,0.8-2.6,1.2-4.1,1.4c-1.3,0.2-2.6,0.2-4,0.1c-1.4-0.1-2.6-0.4-3.7-0.8c-1.1-0.5-2.1-1.1-2.8-2
	C64.2,45.3,63.8,44.1,63.7,42.8z"/>
<path class="st0" d="M111.9,42.8c0.3-0.7,0.7-1.2,1.4-1.4c0.7-0.2,1.5-0.3,2.4-0.2c0.9,0.1,2,0.3,3.1,0.5c1.2,0.3,2.4,0.5,3.6,0.7
	c0.5,0,1-0.2,1.4-0.4c0.4-0.2,0.8-0.5,1.1-0.9c0.3-0.4,0.7-0.8,0.9-1.2c0.3-0.5,0.6-0.9,0.9-1.3c0,0,0.1-0.1,0.1-0.3
	c0-0.1,0-0.2,0-0.3l-0.2-3.3c-0.1,0-0.3-0.2-0.7-0.6c-0.4-0.3-0.7-0.6-0.9-0.8c-0.1-0.1-0.2-0.2-0.4-0.3c-0.2-0.1-0.4-0.2-0.4-0.2
	c-1.3-0.6-2.5-1-3.6-1.3c-1.1-0.3-2.2-0.7-3.1-1.2c-1-0.5-1.9-1.1-2.7-1.9c-0.8-0.8-1.5-1.9-2.1-3.4c0-0.1,0-0.3,0-0.5
	c0-0.2-0.1-0.5-0.1-0.7c0-0.3-0.1-0.5-0.1-0.7c0-0.2,0-0.3,0-0.4c0-0.5-0.1-1.1-0.2-1.7c0-0.6,0-1.1,0.2-1.7c0-0.2,0.1-0.4,0.2-0.8
	c0.1-0.4,0.3-0.8,0.4-1.2c0.2-0.4,0.3-0.8,0.4-1.2c0.1-0.4,0.2-0.6,0.3-0.8v-0.3c0.2-0.3,0.4-0.6,0.6-0.8c0.2-0.2,0.4-0.4,0.5-0.6
	c0.2-0.2,0.3-0.4,0.4-0.5c1.2-1.4,2.4-2.4,3.6-3.1c1.2-0.7,2.7-1.1,4.4-1.3c0.5,0,1.2,0,2.1,0.2c0.9,0.2,1.8,0.4,2.8,0.7
	c0.9,0.3,1.7,0.7,2.4,1.1c0.7,0.5,1.1,1,1.1,1.5c0,0.3,0,0.8-0.1,1.3c-0.1,0.6-0.2,1.1-0.4,1.7c-0.2,0.6-0.4,1-0.7,1.5
	c-0.3,0.4-0.6,0.7-1,0.7c-1,0.1-1.9,0.1-2.9,0c-1-0.1-1.9-0.1-2.9,0c-0.2,0-0.6,0-1.1,0.1c-0.6,0.1-1,0.1-1.1,0.1
	c-0.1,0.1-0.3,0.2-0.5,0.3c-0.3,0.1-0.5,0.2-0.7,0.4c-0.3,0.2-0.5,0.3-0.6,0.4c-0.2,0.2-0.3,0.3-0.3,0.5l0.3,3.3
	c0,0.2,0.1,0.4,0.4,0.5c0.2,0.2,0.5,0.3,0.8,0.5c0.3,0.2,0.6,0.3,0.9,0.5s0.5,0.2,0.6,0.3c1.5,0.7,2.8,1.4,4,2
	c1.2,0.6,2.3,1.4,3.1,2.2c0.9,0.9,1.6,1.9,2.1,3c0.5,1.2,0.9,2.6,1,4.3c0.2,1.5,0.1,3-0.3,4.5c-0.4,1.5-0.9,2.8-1.7,3.9
	c-0.8,1.2-1.8,2.1-3,2.9c-1.2,0.8-2.6,1.2-4.1,1.4c-1.3,0.2-2.6,0.2-4,0.1c-1.4-0.1-2.6-0.4-3.7-0.8c-1.1-0.5-2.1-1.1-2.8-2
	C112.4,45.3,112,44.1,111.9,42.8z"/>
<path class="st0" d="M138.8,42.2c0-0.2-0.1-0.4-0.1-0.6c0-0.3,0-0.5-0.1-0.8c0-0.3,0-0.5-0.1-0.7c0-0.2,0-0.4,0-0.4
	c0-0.7-0.1-1.6-0.1-2.7c0-1.1-0.1-2.2-0.1-3.3c0-1.1-0.1-2.1-0.1-2.9c0-0.9-0.1-1.3-0.1-1.4c0-1.1,0-2.3,0.1-3.6
	c0.1-1.3,0.2-2.6,0.4-4c0.2-1.4,0.5-2.6,0.9-3.9c0.4-1.3,1-2.4,1.7-3.4c0.7-1,1.6-1.8,2.7-2.4c1.1-0.6,2.4-1,3.9-1.1h1.1
	c1,0.1,2,0.4,2.9,0.7c1,0.3,1.8,0.7,2.6,1.3c0.8,0.5,1.5,1.2,2,1.9c0.6,0.7,1,1.6,1.3,2.7c0,0.2,0.1,0.5,0.2,1.1
	c0,0.6,0.1,1,0.1,1.1c0,0.3,0,0.7,0,1.3c0,0.6,0,0.9,0,1c0,0.4,0,1.2,0,2.4c0,1.2,0.1,2.6,0.1,4c0,1.5,0.1,2.9,0.1,4.2
	c0,1.4,0,2.4,0,3.1c0,0.9,0,2,0,3.2c0,1.2,0,2.4-0.1,3.7c-0.1,1.3-0.3,2.6-0.5,3.8c-0.3,1.3-0.6,2.4-1.2,3.4c-0.6,1-1.3,1.8-2.2,2.5
	c-0.9,0.7-2,1-3.4,1.1c-1.2,0.1-2.3,0-3.3-0.2c-1.1-0.2-2.1-0.5-3.2-0.9c-1.1-0.3-2-0.9-2.7-1.5c-0.7-0.7-1.3-1.5-1.7-2.4
	s-0.7-1.9-0.9-2.9C139,44.1,138.9,43.2,138.8,42.2z M146.2,41.8c0.1,0.8,0.3,1.5,0.7,2.1c0.4,0.6,1,0.9,1.9,0.8
	c0.6-0.1,1-0.2,1.3-0.5c0.3-0.3,0.5-0.7,0.6-1.2c0.1-0.5,0.2-1,0.2-1.5c0-0.5,0.1-1,0.1-1.4v-0.5c0-0.3,0-0.5,0-0.8
	c0-0.3,0-0.5,0-0.8v-0.4c0.1-1.9,0.2-3.6,0.2-5.2c0-1.6-0.1-3.3-0.2-5.2c0-0.2,0-0.6-0.1-1.1c0-0.5-0.1-1-0.1-1.6
	c0-0.6-0.1-1.1-0.1-1.6c0-0.5,0-0.9,0-1.1c-0.1-0.2-0.2-0.5-0.4-0.9c-0.2-0.4-0.4-0.8-0.7-1.1c-0.3-0.4-0.5-0.7-0.8-0.9
	c-0.3-0.3-0.6-0.4-0.9-0.4c-0.4,0.1-0.7,0.2-1,0.5c-0.3,0.3-0.5,0.7-0.7,1.1c-0.2,0.5-0.3,0.9-0.4,1.4c-0.1,0.5-0.2,0.8-0.2,1.1
	c0,0.1-0.1,0.3-0.1,0.6c0,0.3-0.1,0.6-0.1,1c0,0.4-0.1,0.7-0.2,1.1c-0.1,0.3-0.1,0.5-0.1,0.6v0.8v1.5c0,0.6,0,1.1,0,1.6
	c0,0.5,0,1,0,1.2v0.5c0,0.1,0,0.1,0,0.2c0,0.1,0,0.1,0,0.2v0.2c0,0.4,0.1,1,0.2,1.9c0.1,0.9,0.2,1.9,0.3,2.9c0.1,1,0.2,2,0.3,2.9
	C146.1,40.8,146.2,41.5,146.2,41.8z"/>
<path class="st0" d="M166.5,51.7c0-0.3-0.1-0.5-0.1-0.7c0-0.2,0-0.4,0.1-0.7l-0.1-11.6c-0.4-2.8-0.6-5.7-0.7-8.5
	c-0.1-2.9-0.1-5.7-0.2-8.5c-0.1-1.3-0.2-2.6-0.3-3.9c-0.1-1.3-0.1-2.6-0.1-3.9c0-0.2,0-0.4-0.1-0.6c-0.1-0.2-0.1-0.4,0.1-0.6
	c0.2-0.3,0.6-0.6,1-0.8c0.4-0.2,0.9-0.3,1.4-0.4c0.5-0.1,1-0.2,1.5-0.2c0.5,0,0.9-0.1,1.2-0.1c0.9-0.1,1.7,0,2.5,0.2
	c0.8,0.2,1.5,0.6,2.2,1c0.7,0.4,1.3,0.9,1.8,1.5c0.6,0.6,1,1.2,1.4,1.9c0.1,0.3,0.3,0.6,0.4,1c0.1,0.4,0.2,0.7,0.4,1l0.4,3.6
	c0,0.1-0.1,0.3-0.1,0.6c0,0.3-0.1,0.6-0.1,0.7c-0.1,0.6-0.2,1.2-0.5,1.8c-0.2,0.6-0.3,1.2-0.2,1.7c0,0.5,0.3,0.9,0.7,1.3
	c0.4,0.4,0.8,0.8,1.1,1.1c0.1,0.1,0.3,0.3,0.6,0.7c0.3,0.3,0.5,0.6,0.6,0.7c0,0.1,0.1,0.3,0.3,0.7c0.2,0.3,0.5,0.7,0.7,1.1
	c0.3,0.4,0.5,0.9,0.7,1.3c0.2,0.4,0.3,0.8,0.3,1c0,0.1,0.1,0.3,0.3,0.6c0.1,0.3,0.3,0.6,0.4,0.9c0.1,0.3,0.2,0.6,0.3,0.9
	c0.1,0.3,0.2,0.5,0.2,0.6c0,0,0,0.3,0.1,0.7c0,0.4,0.1,0.8,0.2,1c0.2,1.7,0.2,3.2-0.1,4.8c-0.3,1.5-0.7,3.1-1.2,4.6
	c0,0.1,0,0.2,0,0.3c0,0.1-0.1,0.2-0.1,0.3c-0.4,0.7-0.8,1.4-1.2,2c-0.5,0.6-1.1,1-2,1.3c-0.1,0-0.4,0-0.7,0.1
	c-0.3,0.1-0.7,0.1-1,0.2c-0.4,0.1-0.7,0.1-1,0.1c-0.3,0-0.6,0.1-0.7,0.1c-0.2,0-0.5,0-0.9,0.1c-0.4,0.1-0.7,0.1-1.1,0.1
	c-0.4,0-0.7,0.1-1,0.1c-0.3,0-0.4,0-0.5,0c0,0-0.1,0-0.3,0c-0.2,0-0.3,0-0.5,0c-0.2,0-0.4,0-0.6,0c-0.2,0-0.3,0-0.4,0
	c-0.5,0-1,0-1.5-0.1c-0.5-0.1-1.1-0.1-1.6-0.1c-0.6,0-1,0.1-1.3,0.1C166.8,52.5,166.5,52.2,166.5,51.7z M171.5,23.6
	c0,0.1,0.1,0.2,0.3,0.2c0.1,0.1,0.2,0.1,0.3,0.1c0.2-0.1,0.3-0.1,0.3-0.3c0.3-0.7,0.5-1.3,0.6-1.9c0.1-0.6,0.1-1.3,0-2
	c0-0.2-0.1-0.4-0.1-0.6c-0.1-0.3-0.2-0.5-0.3-0.7c-0.1-0.2-0.3-0.4-0.5-0.5c-0.2-0.1-0.4-0.2-0.7-0.1c0,0-0.1,0-0.2,0.1
	c-0.1,0-0.2,0.1-0.2,0.1l-0.2,0.3L171.5,23.6z M171.8,46.2c0,0.4,0.3,0.6,0.8,0.8c0.5,0.2,0.8,0.2,1.1,0.2c1-0.1,1.8-0.4,2.4-0.8
	c0.6-0.4,1-0.9,1.3-1.5c0.3-0.6,0.4-1.3,0.5-2c0-0.7,0-1.5-0.1-2.2c-0.2-1.4-0.5-2.8-1-4.2c-0.5-1.4-1.4-2.6-2.7-3.5
	c-0.3-0.2-0.5-0.3-0.7-0.4c-0.2-0.1-0.5-0.1-0.8-0.1c-0.2,0-0.4,0.1-0.5,0.3c-0.1,0.2-0.2,0.4-0.2,0.6c-0.1,0.3-0.1,0.5-0.1,0.8v0.6
	v4.6c0,0.1,0.1,0.3,0.1,0.6c0,0.4,0.1,0.6,0.1,0.6c0,1,0,1.9-0.1,2.8C171.7,44.3,171.7,45.2,171.8,46.2z"/>
<path class="st0" d="M206.7,52.9c-0.7-1-1.3-1.9-1.7-2.6c-0.4-0.8-0.9-1.6-1.4-2.5c-0.1-0.1-0.2-0.3-0.4-0.5
	c-0.2-0.2-0.4-0.4-0.5-0.6c-0.2-0.2-0.3-0.4-0.4-0.6s-0.1-0.4-0.1-0.6c-0.5-0.6-0.9-1.3-1.3-1.9c-0.4-0.7-0.8-1.3-1.2-1.9h-0.1
	c0,0-0.1,0-0.1-0.1c-0.3-0.1-0.5,0.1-0.4,0.5c0,0.4,0.1,1,0.1,2c0,1,0.1,2,0.1,3.1c0.1,1.1,0.1,2.1,0.2,3.1c0,1,0.1,1.7,0.1,2
	l0.1,0.2c-0.1,0.1-0.2,0.3-0.3,0.4s-0.3,0.2-0.3,0.2l-5.6,0.4c-0.3,0.1-0.6-0.1-0.8-0.4c-0.2-0.3-0.4-0.6-0.4-0.9c0-0.1,0-0.1,0-0.1
	c0,0,0-0.1,0-0.1v-0.2c0,0,0-0.1,0.1-0.3c0-0.2,0.1-0.4,0.1-0.5c0-0.2,0.1-0.4,0.1-0.5c0-0.2,0-0.3,0-0.3c0-0.1,0-0.4-0.1-0.8
	c-0.1-0.4-0.1-0.8-0.2-1.2c0-0.4-0.1-0.8-0.1-1.2c0-0.4-0.1-0.6-0.1-0.7v-1.4c0-0.7,0-1.5,0-2.3c0-0.8,0-1.6-0.1-2.3
	c0-0.7,0-1.2,0-1.4c0-0.2,0-0.5-0.1-1c0-0.5-0.1-1-0.1-1.6c0-0.6-0.1-1.1-0.1-1.6c0-0.5-0.1-0.8-0.1-1c0-0.1,0.1-0.3,0.1-0.5v-0.5
	c0.1-3.2,0.1-6.4,0-9.5c-0.1-3.1-0.2-6.3-0.3-9.5c0-0.1,0-0.3,0-0.6c0-0.3-0.1-0.6-0.1-1c0-0.3-0.1-0.7-0.1-1c0-0.3,0-0.5,0-0.6
	c0.1-0.2,0.2-0.4,0.3-0.4c0.1,0,0.3-0.1,0.4-0.1c1.5-0.1,2.9-0.2,4.3-0.2c1.4,0,2.7,0.1,3.9,0.4c1.2,0.3,2.4,0.8,3.3,1.6
	c1,0.7,1.8,1.8,2.5,3.1c0.5,1,1,1.9,1.4,2.8c0.5,0.9,0.8,1.9,0.8,3c0.2,2.2-0.2,4.3-1.1,6.2c-0.9,1.9-2.2,3.6-3.8,5.2
	c-0.2,0.2-0.2,0.4-0.2,0.6c0.1,0.3,0.2,0.7,0.4,0.9c0.2,0.3,0.3,0.6,0.2,1l2.3,4.5v0.2l2.3,3.6c0,0,0.2,0.4,0.5,0.9
	c0.3,0.6,0.7,1.2,1.1,1.9c0.4,0.7,0.8,1.4,1.1,2.2c0.3,0.7,0.5,1.3,0.6,1.6c0,0.3-0.1,0.7-0.4,1.1c-0.3,0.4-0.6,0.8-1,1.1
	c-0.4,0.3-0.8,0.6-1.3,0.9c-0.5,0.2-0.8,0.4-1.2,0.4C207.4,53.3,207,53.2,206.7,52.9z M197.5,26.6c0.2,0.2,0.3,0.3,0.4,0.4
	c0.1,0.1,0.3,0.2,0.5,0.2c0.7-0.1,1.3-0.4,1.8-0.8c0.5-0.5,0.8-1,1.1-1.6c0.3-0.6,0.4-1.2,0.5-1.9c0.1-0.7,0.1-1.2,0.1-1.7
	c0-0.4-0.1-0.8-0.3-1.4c-0.2-0.5-0.4-1-0.6-1.5c-0.3-0.5-0.6-0.9-1-1.2c-0.4-0.3-0.9-0.5-1.4-0.4c-0.4,0.1-0.7,0.3-0.9,0.6
	c-0.2,0.4-0.4,0.8-0.4,1.3c-0.1,0.5-0.1,1-0.1,1.4v1c0,0.1,0,0.2,0,0.4c0,0.2,0,0.5,0,0.8c0,0.3,0,0.6,0.1,0.9
	c0,0.3,0.1,0.6,0.1,0.8c0,0.1,0,0.3,0,0.6c0,0.3,0.1,0.6,0.1,0.9c0,0.3,0,0.6,0,0.9C197.4,26.3,197.5,26.5,197.5,26.6z"/>
<path class="st0" d="M217.4,51.5c-0.2-0.1-0.3-0.2-0.5-0.4c-0.2-0.1-0.2-0.3-0.2-0.5c-0.2-1.8-0.2-3.6,0-5.4
	c0.2-1.8,0.3-3.6,0.3-5.4c0-2.2-0.1-4.4-0.2-6.7c-0.1-2.2-0.3-4.4-0.4-6.7c-0.2-2.2-0.3-4.4-0.4-6.7c-0.1-2.2-0.1-4.4,0-6.6
	c0-0.2,0.1-0.5,0.2-0.7c0.1-0.3,0.3-0.4,0.6-0.5c0.4-0.1,0.8,0,1.3,0.1c0.5,0.1,0.9,0.1,1.2,0.1c0.2,0,0.4,0,0.8,0
	c0.4,0,0.8-0.1,1.3-0.1c0.5,0,0.9-0.1,1.3-0.1c0.4,0,0.7,0,0.8,0c0,0,0.2,0,0.5-0.1c0.3,0,0.5-0.1,0.8-0.1c0.3-0.1,0.6-0.1,0.8-0.1
	c0.3,0,0.4-0.1,0.5-0.1c0.2,0,0.6,0,1.1-0.1c0.5-0.1,1-0.1,1.5,0c0.5,0,1,0.1,1.4,0.2c0.4,0.1,0.6,0.3,0.7,0.7l0.4,4.7
	c0,0.3-0.1,0.5-0.4,0.7c-0.3,0.2-0.6,0.3-0.8,0.4c-0.7,0.1-1.5,0.1-2.2-0.1c-0.7-0.1-1.5-0.2-2.3-0.1c-0.2,0-0.4,0-0.7,0
	c-0.3,0-0.6,0.1-0.9,0.1c-0.3,0.1-0.6,0.2-0.8,0.3c-0.2,0.2-0.3,0.4-0.3,0.7c0.1,1.5,0.1,3,0,4.6c-0.1,1.6-0.1,3.1,0.1,4.7
	c0,0.2,0,0.4,0.1,0.7c0,0.3,0.2,0.5,0.3,0.7c0.2,0.1,0.4,0.2,0.7,0.3c0.3,0.1,0.6,0.1,1,0.1c0.3,0,0.7,0,0.9,0c0.3,0,0.5,0,0.7,0
	c0.2,0,0.4,0,0.8-0.1c0.4,0,0.8-0.1,1.3-0.1c0.5-0.1,0.9-0.1,1.3-0.1c0.4-0.1,0.7-0.1,0.8-0.1c0.1,0,0.2,0.1,0.3,0.2
	c0.1,0.1,0.1,0.2,0.1,0.3l0.4,3.6c0,0.3-0.1,0.7-0.3,1c-0.2,0.3-0.5,0.5-0.8,0.6c-0.8,0.1-1.6,0.1-2.4,0c-0.8-0.1-1.6-0.2-2.5-0.1
	c-0.5,0.1-0.9,0.2-1.1,0.4c-0.2,0.2-0.4,0.5-0.5,0.8c-0.1,0.3-0.1,0.6-0.1,1v1.2c0,0.1,0,0.4-0.1,0.8c0,0.4-0.1,0.9-0.2,1.4
	s-0.1,0.9-0.1,1.3c0,0.4-0.1,0.7-0.1,0.8c0.1,0.1,0.1,0.2,0.1,0.3c0,0.2,0,0.3,0,0.4c0,0.2,0,0.5,0.1,0.8c0.1,0.3,0.3,0.5,0.6,0.5
	h1.3h1.9h1.9h1.3c0.6,0,1.1,0.1,1.6,0.2c0.5,0.1,0.8,0.5,1,1.2c0,0.1,0,0.3,0.1,0.5c0.1,0.3,0.1,0.6,0.2,0.9
	c0.1,0.4,0.1,0.7,0.2,1.1c0,0.4,0.1,0.6,0.2,0.8v0.3c0.1,0.5,0,0.8-0.4,0.9c-0.3,0.1-0.7,0.2-1.1,0.2c-1.6,0.2-3.1,0.2-4.7,0.1
	c-1.6-0.1-3.1-0.2-4.7-0.2c-0.1,0-0.4,0-0.8,0c-0.5,0.1-0.7,0.1-0.8,0.1c-0.2,0-0.4,0-0.8,0c-0.4,0-0.8,0.1-1.2,0.1
	c-0.4,0-0.8,0.1-1.2,0.1C217.8,51.5,217.6,51.5,217.4,51.5z"/>
<path class="st0" d="M265.2,46.7c0-0.1,0-0.2-0.1-0.5c-0.1-0.3-0.2-0.6-0.3-0.9c-0.1-0.3-0.3-0.6-0.4-0.9c-0.1-0.3-0.2-0.5-0.3-0.6
	v-1.9V40c0-0.2,0-0.7,0-1.5c0-0.8,0-1.6,0.1-2.4c0-0.9,0-1.7,0-2.4c0-0.8,0-1.2,0-1.5v-3.4c0-0.3,0.1-0.7,0.1-1.3
	c0-0.6,0-1.2,0.1-1.8s0.1-1.2,0.1-1.7c0-0.5,0.1-0.9,0.1-1.1c0-0.1,0-0.3,0.1-0.7c0-0.4,0.1-0.7,0.2-0.8c0.1-0.6,0.2-1.3,0.2-2
	c0-0.7,0.2-1.4,0.3-2c0.2-0.6,0.6-1.3,1.1-2.1c0.5-0.8,1.1-1.6,1.7-2.3c0.7-0.7,1.4-1.3,2.2-1.9c0.8-0.5,1.7-0.8,2.5-0.8
	c0.7,0,1.2,0,1.6,0.1c0.4,0,0.7,0.1,1,0.2c0.3,0.1,0.5,0.3,0.8,0.5c0.2,0.3,0.5,0.6,0.8,1c0,0.1,0,0.2,0.1,0.2l0.1,0.1v5.1l-0.4,0.3
	c-1.7,0.1-3,0.4-3.9,1.1c-1,0.6-1.6,1.6-2,2.9c-0.1,0.3-0.1,0.8-0.2,1.5c-0.1,0.7-0.1,1.4-0.2,2.2c-0.1,0.8-0.2,1.5-0.2,2.2
	c-0.1,0.7-0.1,1.2-0.1,1.4v2.2c0,1.4,0,2.7,0,3.9c0,1.2,0.1,2.6,0.2,4c0.1,1.1,0.3,1.9,0.7,2.6c0.4,0.7,0.8,1.2,1.3,1.6
	c0.5,0.4,1.1,0.7,1.7,0.9c0.6,0.2,1.1,0.4,1.7,0.5c0.5,0.1,1,0.3,1.3,0.4c0.4,0.2,0.6,0.4,0.7,0.7v1.5c0,0.3,0,0.7,0,1.1
	c0,0.4,0,0.9,0,1.3c0,0.4-0.2,0.8-0.4,1.1c-0.2,0.3-0.5,0.6-1,0.7h-1.5c-2.2,0-4.2-0.4-5.9-1.2C267.3,49.8,266,48.5,265.2,46.7z"/>
<path class="st0" d="M298.5,51.2c-0.2-0.1-0.4-0.2-0.6-0.4c-0.2-0.2-0.3-0.4-0.3-0.5l-1.3-11.7c0-0.2-0.1-0.3-0.2-0.4
	c-0.1-0.1-0.3-0.2-0.4-0.1l-6.4,0.6l1.1,9.7c0.1,0.6,0.3,1.1,0.5,1.6c0.3,0.5,0.4,1,0.5,1.6c0,0.2,0,0.4,0,0.4
	c-0.1,0.1-0.3,0.1-0.5,0.1c-0.1,0-0.2,0-0.3,0c-0.1,0-0.2,0-0.3,0h-0.7c-0.3,0-0.6,0-1,0c-0.3,0-0.6,0.1-0.9,0.1c-0.3,0-0.5,0-0.5,0
	c-0.7,0-1.2-0.1-1.6-0.2c-0.4-0.2-0.7-0.4-0.9-0.7c-0.2-0.3-0.4-0.7-0.5-1.1c-0.1-0.4-0.2-0.9-0.3-1.5c-0.2-2-0.3-4-0.5-6.1
	c-0.1-2-0.2-4-0.3-6.1c0,0,0-0.2,0-0.6c0-0.4,0-0.8-0.1-1.3c0-0.5-0.1-1-0.1-1.4s-0.1-0.8-0.1-1.1c-0.1-1.4,0-2.7,0.2-3.9
	c0.2-1.2,0.4-2.5,0.7-3.9c-0.2-0.6-0.2-1.3,0.1-2s0.6-1.3,0.8-1.9c0.1-0.3,0.1-0.6,0.1-0.8c0-0.3,0.1-0.6,0.2-0.9c0,0,0-0.1,0.1-0.2
	c0-0.1,0.1-0.1,0.1-0.1c0.4-0.7,0.8-1.5,1.1-2.2c0.3-0.8,0.7-1.5,1.2-2.2c0.3-0.5,0.7-0.9,1.2-1.4c0.5-0.5,1-0.9,1.6-1.3
	c0.6-0.4,1.1-0.7,1.7-1c0.6-0.3,1.2-0.4,1.8-0.5c1.7-0.2,2.9,0.1,3.9,0.7c0.9,0.6,1.7,1.4,2.2,2.4c0.5,1,1,2,1.2,3.2
	c0.3,1.2,0.6,2.2,1,3.2c0,0.1,0,0.3,0.1,0.6c0,0.3,0.1,0.6,0.1,0.9c0.1,0.3,0.1,0.6,0.2,0.9c0.1,0.3,0.1,0.5,0.1,0.6
	c0.3,2.4,0.4,4.9,0.5,7.4c0.1,2.5,0.1,4.9,0.3,7.4c0,0.6-0.1,1.3-0.2,1.9c-0.1,0.7-0.1,1.3-0.1,1.9c0,0.1,0,0.3,0.1,0.6
	c0,0.3,0.1,0.7,0.1,1c0,0.4,0.1,0.7,0.2,1c0.1,0.3,0.1,0.5,0.1,0.6v1.8c0,0.1,0,0.3,0,0.6c0,0.3,0,0.7,0,1c0,0.4,0,0.7,0.1,1
	c0,0.3,0,0.5,0,0.6c0,0.2,0,0.6-0.1,1c-0.1,0.5-0.3,0.7-0.7,0.8h-0.1c0,0-0.2,0-0.4-0.1c-0.2,0-0.3-0.1-0.4-0.1c-0.1,0-0.3,0-0.7,0
	c-0.3,0-0.7,0-1,0c-0.4,0-0.7,0-1,0C298.8,51.2,298.6,51.2,298.5,51.2z M289.4,31.3c0,0.5,0.3,0.8,0.8,0.9c0.5,0.2,1,0.3,1.7,0.4
	c0.6,0.1,1.3,0.1,1.9,0.1c0.6,0,1.1-0.1,1.4-0.1c0.1,0,0.2,0,0.5,0c0.2,0,0.4,0,0.5,0c0.1-0.1,0.1-0.2,0.2-0.3
	c0-0.1,0.1-0.2,0.1-0.3c0-0.2,0-0.6,0-1.1c0-0.5-0.1-1-0.1-1.6c0-0.6,0-1.1-0.1-1.6c0-0.5,0-0.9,0-1.1c0-0.1,0.1-0.3,0.1-0.5v-0.6
	l-0.6-5.4c0-0.3-0.1-0.6-0.3-0.9s-0.3-0.6-0.6-0.9c-0.2-0.3-0.5-0.5-0.8-0.7c-0.3-0.2-0.6-0.2-1-0.2c-0.3,0-0.6,0.1-0.8,0.3
	c-1.2,1.3-2,2.6-2.3,3.9c-0.3,1.4-0.5,2.9-0.5,4.5c0,0.9,0,1.8-0.1,2.6C289.3,29.6,289.3,30.4,289.4,31.3z"/>
<path class="st0" d="M307.1,42.8c0.3-0.7,0.7-1.2,1.4-1.4c0.7-0.2,1.5-0.3,2.4-0.2c0.9,0.1,2,0.3,3.1,0.5c1.2,0.3,2.4,0.5,3.6,0.7
	c0.5,0,1-0.2,1.4-0.4c0.4-0.2,0.8-0.5,1.1-0.9c0.3-0.4,0.7-0.8,0.9-1.2c0.3-0.5,0.6-0.9,0.9-1.3c0,0,0.1-0.1,0.1-0.3
	c0-0.1,0.1-0.2,0.1-0.3l-0.2-3.3c-0.1,0-0.3-0.2-0.7-0.6c-0.4-0.3-0.7-0.6-0.9-0.8c-0.1-0.1-0.2-0.2-0.4-0.3
	c-0.2-0.1-0.4-0.2-0.4-0.2c-1.3-0.6-2.5-1-3.6-1.3c-1.1-0.3-2.2-0.7-3.1-1.2c-1-0.5-1.9-1.1-2.7-1.9c-0.8-0.8-1.5-1.9-2.1-3.4
	c0-0.1,0-0.3,0-0.5c0-0.2,0-0.5-0.1-0.7c0-0.3-0.1-0.5-0.1-0.7c0-0.2,0-0.3,0-0.4c0-0.5-0.1-1.1-0.2-1.7c0-0.6,0-1.1,0.2-1.7
	c0-0.2,0.1-0.4,0.2-0.8c0.1-0.4,0.3-0.8,0.4-1.2c0.2-0.4,0.3-0.8,0.4-1.2c0.1-0.4,0.2-0.6,0.3-0.8v-0.3c0.2-0.3,0.4-0.6,0.6-0.8
	c0.2-0.2,0.4-0.4,0.5-0.6c0.2-0.2,0.3-0.4,0.4-0.5c1.2-1.4,2.4-2.4,3.6-3.1c1.2-0.7,2.7-1.1,4.4-1.3c0.5,0,1.2,0,2.1,0.2
	c0.9,0.2,1.8,0.4,2.8,0.7c0.9,0.3,1.7,0.7,2.4,1.1c0.7,0.5,1.1,1,1.1,1.5c0,0.3,0,0.8,0,1.3c-0.1,0.6-0.2,1.1-0.4,1.7
	c-0.2,0.6-0.4,1-0.7,1.5c-0.3,0.4-0.6,0.7-1,0.7c-1,0.1-1.9,0.1-2.9,0c-1-0.1-1.9-0.1-2.9,0c-0.2,0-0.6,0-1.1,0.1
	c-0.6,0.1-1,0.1-1.1,0.1c-0.1,0.1-0.3,0.2-0.5,0.3c-0.3,0.1-0.5,0.2-0.7,0.4c-0.3,0.2-0.5,0.3-0.6,0.4c-0.2,0.2-0.3,0.3-0.3,0.5
	l0.3,3.3c0,0.2,0.1,0.4,0.4,0.5c0.2,0.2,0.5,0.3,0.8,0.5c0.3,0.2,0.6,0.3,0.9,0.5c0.3,0.1,0.5,0.2,0.6,0.3c1.5,0.7,2.8,1.4,4,2
	c1.2,0.6,2.3,1.4,3.1,2.2c0.9,0.9,1.6,1.9,2.1,3c0.5,1.2,0.9,2.6,1,4.3c0.2,1.5,0,3-0.3,4.5c-0.4,1.5-0.9,2.8-1.7,3.9
	c-0.8,1.2-1.8,2.1-3,2.9c-1.2,0.8-2.6,1.2-4.1,1.4c-1.3,0.2-2.6,0.2-4,0.1c-1.4-0.1-2.6-0.4-3.7-0.8c-1.1-0.5-2.1-1.1-2.8-2
	C307.7,45.3,307.2,44.1,307.1,42.8z"/>
<path class="st0" d="M338.6,51.4c0-0.2,0-0.5,0-0.9c-0.1-0.5-0.1-0.8-0.1-0.9c-0.1-1.1-0.1-2.2,0-3.3c0.1-1.1,0.2-2.2,0.4-3.3
	c0-0.1,0-0.2,0-0.3c0-0.1,0-0.2,0-0.3c0-0.9,0-1.8,0.2-2.7c0.1-0.9,0.2-1.8,0.3-2.7c0.1-1.7,0.1-3.4,0-5.1c-0.1-1.7-0.2-3.3-0.1-5
	c0-0.2,0-0.4,0-0.7c0-0.3,0-0.6,0-0.9c0-0.3,0-0.6,0.1-0.8c0-0.3,0-0.4,0-0.5s0-0.2,0.1-0.5c0-0.3,0.1-0.5,0.1-0.8
	c0-0.3,0.1-0.5,0.1-0.8c0-0.3,0.1-0.4,0.1-0.5v-0.2c0-0.3-0.1-0.5-0.3-0.6s-0.4-0.2-0.6-0.3c-1.1,0.1-2.2,0.1-3.2,0
	c-1-0.1-2.1-0.1-3.2,0c-0.3-0.1-0.6-0.2-0.8-0.4c0-0.2,0-0.5,0-1c0-0.5-0.1-0.8-0.1-1c0-0.3-0.1-0.9-0.2-1.5
	c-0.1-0.7-0.1-1.4-0.2-2.1c0-0.7,0-1.4,0.2-1.9c0.2-0.6,0.5-0.9,0.9-1h0.2l18.4,0.2c0.3,0,0.5,0.1,0.6,0.3c0.2,0.2,0.3,0.4,0.4,0.6
	c0.1,0.2,0.2,0.5,0.2,0.7c0,0.2,0.1,0.4,0.1,0.6c0,0,0,0.2,0,0.4c0,0.2,0.1,0.5,0.1,0.8c0,0.3,0.1,0.6,0.1,0.9
	c0,0.3,0.1,0.6,0.1,0.8c0,0.1,0,0.3,0,0.6c0,0.3,0,0.6,0,0.9c0,0.3,0,0.6,0,0.9c0,0.3,0,0.5,0,0.6c0,0.2-0.1,0.4-0.2,0.6
	c-0.1,0.2-0.3,0.3-0.5,0.3c-0.9,0.2-1.8,0.2-2.8,0.2s-1.8,0.1-2.8,0.2c-0.2,0-0.4,0.1-0.5,0c-0.2,0-0.3,0.1-0.5,0.3
	c-0.2,0.3-0.4,0.6-0.4,0.9c0,0.4-0.1,0.8-0.1,1.1s0,0.8,0.1,1.2c0,0.4,0,0.7,0,1c-0.2,4.1-0.3,8.3-0.3,12.4c0,4.1,0.3,8.2,0.8,12.3
	c0,0.3,0,0.7-0.2,1.1c-0.1,0.5-0.4,0.7-0.8,0.7h0c-0.1,0-0.2,0-0.5,0c-0.2,0-0.5-0.1-0.8-0.1c-0.3-0.1-0.5-0.1-0.8-0.1H342
	c-0.2,0-0.5,0-0.9,0c-0.4,0.1-0.7,0.1-1.1,0.1c-0.4,0-0.7-0.1-1-0.1C339,51.8,338.7,51.7,338.6,51.4z"/>
<path class="st0" d="M356.4,49.2c0-0.1,0-0.2,0.1-0.3c0-0.1,0-0.2,0-0.2c0-0.5,0.1-1.1,0.2-1.7c0.1-0.7,0.2-1.2,0.4-1.7
	c0.1-0.3,0.3-0.5,0.6-0.6c0.3-0.1,0.5-0.2,0.8-0.3c0.3-0.1,0.6-0.2,0.8-0.3c0.3-0.1,0.5-0.3,0.6-0.5c0,0,0-0.1,0.1-0.2
	c0-0.1,0-0.2,0-0.3c0-0.1,0-0.2,0-0.5c0-0.2,0-0.5,0.1-0.8s0-0.5,0-0.8v-0.6c-0.1-3-0.1-6-0.1-8.9c0.1-2.9,0-5.9-0.2-8.8
	c0-0.1,0-0.2-0.1-0.5s-0.1-0.5-0.1-0.7c0-0.3,0-0.5,0-0.7c0-0.2,0-0.4,0-0.5c-0.1-0.3-0.3-0.5-0.5-0.6c-0.3-0.1-0.6-0.2-0.9-0.2
	c-0.3-0.1-0.6-0.2-0.9-0.4c-0.3-0.2-0.4-0.5-0.5-0.9c0,0,0-0.1,0-0.1c0-0.1,0-0.1,0-0.1v-1.1c0-0.5,0-1.1,0-1.7c0-0.6,0-1.2,0-1.7
	v-1.1c0.1-0.3,0.2-0.7,0.3-1.1c0.1-0.5,0.3-0.7,0.6-0.8l0.1,0.1h0.1c0.6,0.1,1.3,0.2,2.3,0.1c1,0,2,0,3,0.1c1,0.1,2,0.2,2.9,0.4
	c0.9,0.2,1.5,0.6,1.9,1.1c0.2,0.2,0.3,0.6,0.3,1.1c0,0.5,0,0.9,0.1,1.1c0.1,1.6,0.1,2.7-0.2,3.3c-0.2,0.6-0.5,1.1-0.7,1.3
	c-0.3,0.2-0.6,0.4-0.9,0.4c-0.3,0.1-0.5,0.4-0.6,0.9c-0.3,1.6-0.4,3.1-0.5,4.7c0,1.6,0,3.1,0,4.7c0.1,1.6,0.1,3.1,0.3,4.6
	c0.1,1.5,0.2,3.1,0.3,4.6v0.6v1c0,0.4,0,0.7,0,1c0,0.3,0,0.5,0,0.6v0.5c0,0.5,0.2,0.7,0.5,0.9c0.3,0.2,0.6,0.3,1,0.4
	c0.4,0.1,0.7,0.3,1,0.5c0.3,0.2,0.5,0.6,0.6,1.1c0,0.3,0,0.6,0,1.1c0,0.5,0,1-0.1,1.5c-0.1,0.5-0.2,1-0.4,1.4
	c-0.2,0.4-0.5,0.6-1,0.7c-0.7,0.2-1.6,0.2-2.5,0.1c-0.9-0.1-1.8-0.1-2.5,0c-0.1,0-0.4,0-0.8,0.1c-0.4,0.1-0.9,0.1-1.3,0.2
	c-0.5,0.1-0.9,0.1-1.3,0.1c-0.4,0.1-0.7,0.1-0.8,0.1c-0.5,0-1-0.1-1.4-0.3C356.8,50.2,356.5,49.8,356.4,49.2z"/>
<path class="st0" d="M377.1,48.4c-0.3-2.1-0.3-4.2-0.2-6.4c0.1-2.2,0.1-4.3,0-6.4c-0.1-2-0.2-3.9-0.3-5.8c-0.2-1.9-0.2-3.8-0.2-5.8
	c0-2.1,0-4.1,0-6c0-1.8-0.1-3.8-0.4-5.9c0.1-0.6,0.4-1,0.9-1.4c0.5-0.3,1.1-0.5,1.6-0.6c0.6-0.1,1.2-0.1,2,0
	c0.7,0.1,1.3,0.4,1.8,0.8c0,0.1,0,0.2,0,0.5c0,0.2,0,0.4,0,0.5c0.1,1.3,0.1,2.7-0.1,4.2c-0.2,1.5-0.3,2.9-0.2,4.1
	c0,0.2,0,0.7,0.1,1.7c0,1,0.1,2.1,0.2,3.3c0.1,1.3,0.2,2.5,0.2,3.8c0.1,1.3,0.1,2.3,0.2,3c0.1,1.8,0.2,3.5,0.2,5.2
	c0,1.7,0.1,3.4,0.3,5.1c0.1,0.7,0.4,1.1,0.9,1.2c0.5,0.1,1,0.2,1.6,0.1c0.6,0,1.1,0,1.6,0c0.5,0.1,0.8,0.4,0.9,0.9
	c0,1.2,0,2.1-0.1,2.8c-0.1,0.7-0.2,1.4-0.3,2c-0.1,0.6-0.3,0.9-0.6,0.9c0,0.1-0.1,0.1-0.2,0.1H387c-1.4-0.1-2.8-0.1-4.3-0.2
	c-1.5-0.1-2.9-0.2-4.4-0.3c-0.5,0-0.8-0.2-0.9-0.4C377.3,49.3,377.2,49,377.1,48.4z"/>
<path class="st0" d="M396.1,48.4c-0.3-2.1-0.3-4.2-0.2-6.4c0.1-2.2,0.1-4.3,0.1-6.4c-0.1-2-0.2-3.9-0.3-5.8
	c-0.2-1.9-0.2-3.8-0.2-5.8c0-2.1,0-4.1,0-6c0-1.8-0.1-3.8-0.4-5.9c0.1-0.6,0.4-1,0.9-1.4c0.5-0.3,1.1-0.5,1.6-0.6
	c0.6-0.1,1.2-0.1,2,0s1.3,0.4,1.8,0.8c0,0.1,0,0.2,0,0.5c0,0.2,0,0.4,0,0.5c0.2,1.3,0.1,2.7,0,4.2c-0.2,1.5-0.3,2.9-0.2,4.1
	c0,0.2,0,0.7,0.1,1.7c0.1,1,0.1,2.1,0.2,3.3c0.1,1.3,0.2,2.5,0.2,3.8c0.1,1.3,0.1,2.3,0.2,3c0.1,1.8,0.2,3.5,0.2,5.2
	s0.1,3.4,0.3,5.1c0.1,0.7,0.4,1.1,0.9,1.2c0.5,0.1,1,0.2,1.6,0.1c0.6,0,1.1,0,1.6,0c0.5,0.1,0.8,0.4,0.9,0.9c0,1.2,0,2.1-0.1,2.8
	c-0.1,0.7-0.2,1.4-0.3,2c-0.1,0.6-0.3,0.9-0.6,0.9c0,0.1-0.1,0.1-0.2,0.1H406c-1.4-0.1-2.8-0.1-4.3-0.2c-1.5-0.1-2.9-0.2-4.4-0.3
	c-0.5,0-0.8-0.2-0.9-0.4C396.3,49.3,396.2,49,396.1,48.4z"/>
<path class="st0" d="M414.6,42.2c0-0.2-0.1-0.4-0.1-0.6c0-0.3,0-0.5,0-0.8c0-0.3,0-0.5-0.1-0.7s0-0.4,0-0.4c0-0.7-0.1-1.6-0.1-2.7
	c0-1.1-0.1-2.2-0.1-3.3c0-1.1-0.1-2.1-0.1-2.9c0-0.9-0.1-1.3-0.1-1.4c0-1.1,0-2.3,0.1-3.6c0-1.3,0.2-2.6,0.4-4
	c0.2-1.4,0.5-2.6,0.9-3.9c0.4-1.3,1-2.4,1.7-3.4c0.7-1,1.6-1.8,2.7-2.4c1.1-0.6,2.4-1,3.9-1.1h1.1c1,0.2,2,0.4,3,0.7
	c1,0.3,1.8,0.7,2.6,1.3c0.8,0.5,1.4,1.2,2,1.9s1,1.6,1.3,2.7c0,0.2,0.1,0.5,0.2,1.1c0,0.6,0.1,1,0.1,1.1c0,0.3,0,0.7,0,1.3
	c0,0.6,0,0.9,0,1c0,0.4,0,1.2,0,2.4c0,1.2,0,2.6,0.1,4s0.1,2.9,0.1,4.2c0,1.4,0,2.4,0,3.1c0,0.9,0,2,0,3.2c0,1.2,0,2.4-0.1,3.7
	c-0.1,1.3-0.3,2.6-0.5,3.8c-0.3,1.3-0.6,2.4-1.2,3.4c-0.6,1-1.3,1.8-2.2,2.5c-0.9,0.7-2,1-3.4,1.1c-1.2,0.1-2.3,0-3.3-0.2
	c-1.1-0.2-2.1-0.5-3.2-0.9c-1.1-0.3-2-0.9-2.7-1.5c-0.7-0.7-1.3-1.5-1.7-2.4c-0.4-0.9-0.7-1.9-0.9-2.9
	C414.8,44.1,414.7,43.2,414.6,42.2z M422,41.8c0.1,0.8,0.3,1.5,0.7,2.1c0.4,0.6,1,0.9,1.9,0.8c0.6-0.1,1-0.2,1.3-0.5
	c0.3-0.3,0.5-0.7,0.6-1.2c0.1-0.5,0.2-1,0.2-1.5c0-0.5,0-1,0.1-1.4v-0.5c0-0.3,0-0.5,0-0.8s0-0.5,0-0.8v-0.4
	c0.1-1.9,0.2-3.6,0.2-5.2c0-1.6,0-3.3-0.2-5.2c0-0.2,0-0.6,0-1.1c0-0.5-0.1-1-0.1-1.6c0-0.6-0.1-1.1-0.1-1.6c0-0.5,0-0.9,0-1.1
	c-0.1-0.2-0.2-0.5-0.4-0.9c-0.2-0.4-0.4-0.8-0.7-1.1c-0.3-0.4-0.5-0.7-0.8-0.9c-0.3-0.3-0.6-0.4-0.9-0.4c-0.4,0.1-0.7,0.2-1,0.5
	c-0.3,0.3-0.5,0.7-0.7,1.1c-0.2,0.5-0.3,0.9-0.4,1.4c-0.1,0.5-0.1,0.8-0.2,1.1c0,0.1-0.1,0.3-0.1,0.6c0,0.3-0.1,0.6-0.1,1
	c-0.1,0.4-0.1,0.7-0.2,1.1c-0.1,0.3-0.1,0.5-0.1,0.6v0.8v1.5c0,0.6,0,1.1,0,1.6c0,0.5,0,1,0,1.2v0.5c0,0.1,0,0.1,0,0.2
	c0,0.1,0,0.1,0,0.2v0.2c0,0.4,0.1,1,0.2,1.9c0.1,0.9,0.2,1.9,0.3,2.9c0.1,1,0.2,2,0.3,2.9C421.9,40.8,421.9,41.5,422,41.8z"/>
<path class="st0" d="M439.1,42.8c0.3-0.7,0.7-1.2,1.4-1.4c0.7-0.2,1.5-0.3,2.4-0.2c0.9,0.1,2,0.3,3.1,0.5c1.2,0.3,2.4,0.5,3.6,0.7
	c0.5,0,1-0.2,1.4-0.4c0.4-0.2,0.8-0.5,1.1-0.9c0.3-0.4,0.7-0.8,0.9-1.2c0.3-0.5,0.6-0.9,0.9-1.3c0,0,0.1-0.1,0.1-0.3
	c0-0.1,0-0.2,0-0.3l-0.2-3.3c-0.1,0-0.3-0.2-0.7-0.6c-0.4-0.3-0.7-0.6-0.9-0.8c-0.1-0.1-0.2-0.2-0.4-0.3c-0.2-0.1-0.4-0.2-0.4-0.2
	c-1.3-0.6-2.5-1-3.6-1.3c-1.1-0.3-2.2-0.7-3.1-1.2c-1-0.5-1.9-1.1-2.7-1.9c-0.8-0.8-1.5-1.9-2.1-3.4c0-0.1,0-0.3,0-0.5
	c0-0.2-0.1-0.5-0.1-0.7c0-0.3-0.1-0.5-0.1-0.7c0-0.2,0-0.3,0-0.4c0-0.5-0.1-1.1-0.2-1.7c0-0.6,0-1.1,0.2-1.7c0-0.2,0.1-0.4,0.2-0.8
	c0.1-0.4,0.3-0.8,0.4-1.2c0.2-0.4,0.3-0.8,0.4-1.2c0.1-0.4,0.2-0.6,0.3-0.8v-0.3c0.2-0.3,0.4-0.6,0.6-0.8c0.2-0.2,0.4-0.4,0.5-0.6
	c0.2-0.2,0.3-0.4,0.4-0.5c1.2-1.4,2.4-2.4,3.6-3.1c1.2-0.7,2.7-1.1,4.4-1.3c0.5,0,1.2,0,2.1,0.2c0.9,0.2,1.8,0.4,2.8,0.7
	c0.9,0.3,1.7,0.7,2.4,1.1c0.7,0.5,1.1,1,1.1,1.5c0,0.3,0,0.8,0,1.3c-0.1,0.6-0.2,1.1-0.4,1.7c-0.2,0.6-0.4,1-0.7,1.5
	c-0.3,0.4-0.6,0.7-1,0.7c-1,0.1-1.9,0.1-2.9,0c-1-0.1-1.9-0.1-2.9,0c-0.2,0-0.6,0-1.1,0.1c-0.6,0.1-1,0.1-1.1,0.1
	c-0.1,0.1-0.3,0.2-0.5,0.3c-0.3,0.1-0.5,0.2-0.7,0.4s-0.5,0.3-0.6,0.4c-0.2,0.2-0.3,0.3-0.3,0.5l0.3,3.3c0,0.2,0.1,0.4,0.4,0.5
	c0.2,0.2,0.5,0.3,0.8,0.5c0.3,0.2,0.6,0.3,0.9,0.5c0.3,0.1,0.5,0.2,0.6,0.3c1.5,0.7,2.8,1.4,4,2c1.2,0.6,2.3,1.4,3.1,2.2
	c0.9,0.9,1.6,1.9,2.1,3c0.5,1.2,0.9,2.6,1,4.3c0.2,1.5,0.1,3-0.3,4.5c-0.4,1.5-0.9,2.8-1.7,3.9c-0.8,1.2-1.8,2.1-3,2.9
	c-1.2,0.8-2.6,1.2-4.1,1.4c-1.3,0.2-2.6,0.2-4,0.1c-1.4-0.1-2.6-0.4-3.7-0.8c-1.1-0.5-2.1-1.1-2.8-2
	C439.7,45.3,439.2,44.1,439.1,42.8z"/>
</svg>
