<svg width="973" height="296" viewBox="0 0 973 296" fill="none" xmlns="http://www.w3.org/2000/svg">
<rect y="175" width="973" height="121" fill="#A25625"/>
<path d="M627.183 141.408L817.231 112.781C817.231 112.781 815.777 57.2233 817.231 31.2003C817.367 28.5814 827.722 28.5814 827.888 31.2003C828.948 47.1714 827.888 62.2039 827.888 62.2039C827.888 62.2039 841.77 29.2323 875.105 41.7518C899.569 50.9257 916.433 86.819 916.433 86.819C916.433 86.819 916.736 66.1398 916.433 58.4647C916.221 52.8332 928.392 53.8323 928.438 56.7843C928.952 88.6658 928.438 180.375 928.438 183.69C928.438 183.69 928.952 223.292 928.438 235.297C928.316 238.234 916.509 238.234 916.433 235.297C916.221 225.442 916.433 202.613 916.433 202.613L691.067 222.338C691.067 222.338 691.975 241.186 692.399 251.086C692.535 254.084 681.181 255.688 680.213 250.102C678.744 241.625 677.715 223.292 677.715 223.292L677.488 220.87L633.995 175.167C633.995 175.167 634.949 180.39 634.828 192.546C634.797 195.195 624.276 192.758 624.276 190.109C624.276 175.954 622.747 145.041 622.747 145.041L627.183 141.408Z" fill="#DAD8CC"/>
<path d="M823.362 90.1192C823.362 90.1192 807.891 80.7031 788.271 90.5279C774.677 97.3402 774.692 107.135 774.692 107.135C774.692 107.135 636.538 119.306 628.545 127.678C620.552 136.049 624.307 149.008 624.307 149.008C624.307 149.008 671.856 191.865 681.212 205.277C689.205 209.032 913.89 186.99 913.89 186.99C913.89 186.99 923.124 152.247 910.892 138.547C902.127 128.752 823.362 90.1192 823.362 90.1192Z" fill="#B780B1"/>
<path d="M813.082 87.2428C813.082 87.2428 801.789 97.9154 798.338 100.822C794.462 104.077 791.359 106.575 788.528 107.952C783.214 110.526 775.206 110.299 775.206 110.299C775.206 110.299 778.173 115.128 783.305 115.007C788.437 114.886 791.48 114.28 791.48 114.28C791.48 114.28 783.123 119.775 779.611 120.078C775.509 120.411 771.013 117.959 771.013 117.959C771.013 117.959 771.845 122.848 777.568 124.726C783.305 126.603 788.331 126.951 788.331 126.951L806.709 143.406C806.709 143.406 801.623 151.763 801.941 155.23C802.304 159.044 806.633 163.404 806.633 163.404C806.633 163.404 805.543 157.924 806.951 154.034C808.374 150.158 812.204 148.099 812.204 148.099C812.204 148.099 810.357 153.685 811.523 158.288C812.674 162.89 817.124 166.129 817.124 166.129C817.124 166.129 815.535 157.228 816.912 153.897C818.275 150.582 820.652 149.053 820.652 149.053C820.652 149.053 818.714 155.85 820.001 158.727C821.287 161.603 824.769 162.874 824.769 162.874C824.769 162.874 824.648 157.228 825.905 153.08C828.554 144.39 846.962 124.529 846.478 120.744C845.993 116.96 845.433 103.108 833.943 96.0686C822.453 89.0443 813.082 87.2428 813.082 87.2428Z" fill="#F39200"/>
<path d="M759.22 142.438C758.448 141.65 759.781 141.09 761.204 139.819C759.372 140.606 757.283 140.682 756.965 139.016C756.768 137.987 759.326 137.941 760.961 137.684C759.796 137.533 758.131 137.079 757.661 136.064C757.177 134.99 759.629 134.46 762.127 134.808C760.235 130.403 764.186 131.901 765.064 135.065C771.679 135.02 780.884 130.251 783.291 128.662C783.321 128.646 787.211 125.725 787.227 125.71C788.74 125.165 791.193 129.086 789.8 130.024C780.111 136.564 772.451 140.273 766.517 139.107C764.398 141.302 760.129 143.376 759.22 142.438Z" fill="#E4D5B8"/>
<path d="M796.582 128.207C796.582 128.207 799.822 128.101 799.398 124.468C798.974 120.835 794.342 117.974 789.649 120.714C786.818 122.364 784.623 124.347 784.623 124.347L786.228 129.964L796.582 128.207Z" fill="#2FAC66"/>
<path d="M807.58 118.805L785.976 131.669L796.16 148.773L817.765 135.909L807.58 118.805Z" fill="#D5C2A2"/>
<path d="M796.733 152.051C791.48 155.881 785.955 161.088 785.955 161.088C785.955 161.088 782.488 153.11 778.658 147.403C774.828 141.696 772.451 138.29 772.451 138.29C772.451 138.29 780.051 134.263 783.972 131.629C789.043 128.207 792.494 126.769 796.007 125.483C799.7 128.919 797.46 134.914 797.46 134.914C797.46 134.914 804.318 134.172 807.89 142.301C803.848 146.54 801.502 148.584 796.733 152.051Z" fill="#B780B1"/>
<path d="M789.543 158.454C789.543 158.454 787.166 157.122 782.7 150.84C778.204 144.512 776.191 140.333 774.813 136.897L771.316 138.638C771.316 138.638 775.343 147.842 777.886 151.384C783.896 159.756 787.015 161.981 787.015 161.981L789.543 158.454Z" fill="#1B8A4F"/>
<path d="M809.192 140.273C809.192 140.273 811.251 137.775 813.87 140.318C816.489 142.877 815.929 148.296 810.903 150.34C807.86 151.566 806.165 152.868 806.165 152.868L801.805 147.933L809.192 140.273Z" fill="#2FAC66"/>
<path d="M847.356 106.711L858.967 97.643C858.967 97.643 849.778 99.0509 849.067 95.9778C848.371 92.8896 851.262 88.4691 851.262 88.4691C851.262 88.4691 843.935 91.9813 842.497 89.8013C841.059 87.6365 844.722 80.7485 844.722 80.7485C844.722 80.7485 840.483 86.7888 837.486 84.185C834.489 81.5963 835.261 74.4509 835.261 74.4509L828.024 87.1824C828.024 87.1824 835.563 92.7987 839.938 97.1737C844.313 101.549 847.356 106.711 847.356 106.711Z" fill="#FFDE00"/>
<path d="M847.099 113.387C847.099 113.387 840.619 127.102 832.066 133.521C820.349 142.317 807.209 137.624 801.381 129.01C792.479 115.87 801.169 103.88 805.453 98.4605C811.221 91.1637 822.166 87.6516 822.166 87.6516C822.166 87.6516 829.689 91.194 836.941 94.9938C844.207 98.8086 847.099 113.387 847.099 113.387Z" fill="#E4D5B8"/>
<path d="M798.822 105.046C796.93 106.741 796.778 109.633 798.474 111.51C800.154 113.387 803.061 113.554 804.938 111.873C806.815 110.193 806.982 107.286 805.301 105.409C803.591 103.517 800.699 103.35 798.822 105.046Z" fill="#F3A5C2"/>
<path d="M819.018 111.873C819.018 111.873 816.369 111.782 814.158 111.419C812.75 111.192 810.389 111.797 812.175 114.719C813.962 117.641 815.263 117.459 815.263 117.459" stroke="black" stroke-width="0.526" stroke-linecap="round"/>
<path d="M808.254 121.804C808.254 121.804 809.541 123.59 810.933 124.105C813.416 125.013 814.203 124.165 814.203 124.165" stroke="black" stroke-width="0.526" stroke-linecap="round"/>
<path d="M839.439 107.226C839.439 107.226 833.429 108.3 830.402 107.665C827.374 107.029 823.892 105.273 828.07 104.047C832.248 102.805 831.704 102.306 831.704 102.306C831.704 102.306 816.262 100.368 817.549 97.537C818.503 95.4176 824.528 95.7355 824.528 95.7355C824.528 95.7355 810.146 93.2528 808.421 90.543C806.982 88.3025 815.43 85.7593 819.729 85.729C823.801 85.6987 825.875 86.2891 828.161 87.0461C833.611 88.8475 841.12 94.0097 845.979 101.564C850.839 109.103 849.204 123.363 846.766 124.12C844.314 124.877 842.134 113.054 842.134 113.054C842.134 113.054 840.105 121.819 838.031 118.095C835.927 114.341 839.439 107.226 839.439 107.226Z" fill="#F39200"/>
<path d="M822.453 125.952C820.576 127.647 820.41 130.539 822.105 132.416C823.786 134.293 826.677 134.46 828.569 132.764C830.462 131.084 830.613 128.177 828.918 126.3C827.237 124.438 824.346 124.271 822.453 125.952Z" fill="#F3A5C2"/>
<path d="M850.838 88.8323C851.004 88.6658 857.756 87.818 857.332 86.1982C856.908 84.5784 854.759 85.1991 854.759 85.1991C854.759 85.1991 855.501 82.7012 854.078 82.2168C852.261 81.6113 850.838 88.8323 850.838 88.8323Z" fill="#E30613"/>
<path d="M857.817 98.0819C858.014 97.9608 864.796 98.5512 864.721 96.886C864.645 95.2056 862.419 95.3721 862.419 95.3721C862.419 95.3721 863.661 93.0862 862.374 92.3141C860.724 91.315 857.817 98.0819 857.817 98.0819Z" fill="#E30613"/>
<path d="M843.783 82.126C843.889 81.914 850.096 79.1286 849.218 77.7056C848.34 76.2825 846.463 77.5088 846.463 77.5088C846.463 77.5088 846.432 74.9049 844.934 74.8747C843.011 74.8141 843.783 82.126 843.783 82.126Z" fill="#E30613"/>
<path d="M835.109 75.0867C835.155 74.8596 840.559 70.7268 839.378 69.5309C838.198 68.3501 836.653 69.9699 836.653 69.9699C836.653 69.9699 836.033 67.4418 834.549 67.7446C832.672 68.1382 835.109 75.0867 835.109 75.0867Z" fill="#E30613"/>
<path d="M809.086 99.1568C809.086 99.1568 809.041 101.14 811.326 102.729C813.612 104.319 815.565 104.864 815.565 104.864" stroke="black" stroke-width="0.526" stroke-linecap="round"/>
<path d="M809.192 100.913L807.86 101.216" stroke="black" stroke-width="0.526" stroke-linecap="round"/>
<path d="M810.888 102.896L810.343 103.971" stroke="black" stroke-width="0.526" stroke-linecap="round"/>
<path d="M814.158 104.334L813.598 105.621" stroke="black" stroke-width="0.526" stroke-linecap="round"/>
<path d="M834.262 116.036C834.262 116.036 832.415 116.763 830.144 115.158C827.858 113.554 826.662 111.919 826.662 111.919" stroke="black" stroke-width="0.526" stroke-linecap="round"/>
<path d="M832.581 116.551L832.748 117.883" stroke="black" stroke-width="0.526" stroke-linecap="round"/>
<path d="M830.129 115.643L829.312 116.521" stroke="black" stroke-width="0.526" stroke-linecap="round"/>
<path d="M827.661 113.069L826.646 114.038" stroke="black" stroke-width="0.526" stroke-linecap="round"/>
<path d="M755.057 106.242C755.057 106.242 773.783 115.643 791.738 129.964C804.424 140.076 825.345 156.198 838.228 171.14C844.465 178.376 843.89 200.221 842.739 201.417L682.166 214.073C682.166 214.073 682.771 207.881 674.748 200.282C662.985 189.14 630.68 149.401 616.647 151.006C614.588 145.541 617.797 134.187 621.339 128.753C624.897 123.318 634.358 114.25 681.303 111.646C728.262 109.042 755.057 106.242 755.057 106.242Z" fill="#2FAC66"/>
<path d="M752.302 108.27C752.302 108.27 774.343 118.61 801.017 141.075C811.024 149.507 837.289 172.881 837.319 176.348C840.483 182.025 838.863 200.1 838.863 200.1" stroke="#B780B1" stroke-width="0.511" stroke-dasharray="1.53 1.53"/>
<path d="M863.418 69.2432C863.448 68.7436 874.272 57.632 870.246 55.2855C867.233 53.5295 864.66 57.2687 864.66 57.2687C864.66 57.2687 863.267 52.0913 860.284 53.5295C856.485 55.3309 863.418 69.2432 863.418 69.2432Z" fill="white"/>
<path d="M829.857 29.7925C829.857 30.9279 828.933 31.8514 827.798 31.8514H817.458C816.323 31.8514 815.399 30.9279 815.399 29.7925V29.5806C815.399 28.4452 816.323 27.5218 817.458 27.5218H827.798C828.933 27.5218 829.857 28.4452 829.857 29.5806V29.7925Z" fill="#DAD8CC"/>
<path d="M819.244 28.1575C819.244 28.1575 817.67 23.9944 817.67 20.2552C817.67 16.516 822.62 0 822.62 0C822.62 0 827.586 15.6531 827.586 20.8305C827.586 23.2829 826.284 28.1575 826.284 28.1575H819.244Z" fill="#DAD8CC"/>
<path d="M825.012 2.51291C825.012 3.82996 823.937 4.90479 822.62 4.90479C821.303 4.90479 820.229 3.82996 820.229 2.51291C820.229 1.19587 821.303 0.12104 822.62 0.12104C823.937 0.12104 825.012 1.19587 825.012 2.51291Z" fill="#DAD8CC"/>
<path d="M930.224 56.209C930.224 57.3444 929.255 58.2679 928.044 58.2679H917.144C915.948 58.2679 914.979 57.3444 914.979 56.209V55.9971C914.979 54.8617 915.948 53.9383 917.144 53.9383H928.044C929.24 53.9383 930.224 54.8617 930.224 55.9971V56.209Z" fill="#DAD8CC"/>
<path d="M918.81 54.5892C918.81 54.5892 917.221 50.4261 917.221 46.6869C917.221 42.9477 922.171 26.4317 922.171 26.4317C922.171 26.4317 927.136 42.0848 927.121 47.2622C927.121 49.7146 925.819 54.5892 925.819 54.5892H918.81Z" fill="#DAD8CC"/>
<path d="M924.578 28.9296C924.578 30.2466 923.503 31.3215 922.186 31.3215C920.869 31.3215 919.794 30.2466 919.794 28.9296C919.794 27.6126 920.869 26.5377 922.186 26.5377C923.503 26.5377 924.578 27.6126 924.578 28.9296Z" fill="#DAD8CC"/>
<path d="M653.857 123.393L654.917 125.558L657.308 125.906L655.583 127.587L655.991 129.964L653.857 128.843L651.722 129.964L652.131 127.587L650.405 125.906L652.782 125.558L653.857 123.393Z" fill="#FFDE00"/>
<path d="M706.235 132.946L707.295 135.111L709.687 135.459L707.961 137.139L708.37 139.516L706.235 138.396L704.101 139.516L704.494 137.139L702.769 135.459L705.16 135.111L706.235 132.946Z" fill="#FFDE00"/>
<path d="M768.061 182.025L769.121 184.174L771.513 184.522L769.787 186.218L770.196 188.58L768.061 187.459L765.927 188.58L766.321 186.218L764.595 184.522L766.987 184.174L768.061 182.025Z" fill="#FFDE00"/>
<path d="M681.879 127.587L680.653 129.661L681.652 131.841L679.305 131.311L677.534 132.946L677.307 130.539L675.218 129.358L677.428 128.419L677.897 126.043L679.487 127.859L681.879 127.587Z" fill="#FFDE00"/>
<path d="M701.209 117.716L699.968 119.775L700.982 121.97L698.621 121.441L696.849 123.076L696.637 120.668L694.533 119.488L696.743 118.534L697.228 116.172L698.817 117.989L701.209 117.716Z" fill="#FFDE00"/>
<path d="M667.375 143.058L666.149 145.132L667.148 147.312L664.787 146.782L663.015 148.417L662.803 146.01L660.699 144.829L662.925 143.876L663.394 141.514L664.983 143.331L667.375 143.058Z" fill="#FFDE00"/>
<path d="M672.281 161.663L672.644 164.04L674.824 165.085L672.674 166.175L672.356 168.567L670.646 166.856L668.284 167.295L669.374 165.145L668.224 163.026L670.616 163.404L672.281 161.663Z" fill="#FFDE00"/>
<path d="M690.825 145.662L690.386 148.039L692.082 149.75L689.69 150.052L688.585 152.202L687.555 150.022L685.179 149.628L686.935 147.978L686.556 145.602L688.676 146.752L690.825 145.662Z" fill="#FFDE00"/>
<path d="M787.741 171.216L787.287 173.577L788.998 175.288L786.591 175.606L785.501 177.74L784.471 175.561L782.095 175.182L783.836 173.532L783.472 171.14L785.592 172.306L787.741 171.216Z" fill="#FFDE00"/>
<path d="M781.367 149.174L780.928 151.536L782.624 153.246L780.232 153.549L779.142 155.699L778.097 153.519L775.721 153.14L777.477 151.49L777.113 149.098L779.218 150.264L781.367 149.174Z" fill="#FFDE00"/>
<path d="M709.687 150.279L710.747 152.444L713.138 152.792L711.413 154.473L711.821 156.849L709.687 155.729L707.552 156.849L707.961 154.473L706.235 152.792L708.612 152.444L709.687 150.279Z" fill="#FFDE00"/>
<path d="M760.31 158.182L761.385 160.346L763.762 160.695L762.036 162.39L762.444 164.752L760.31 163.631L758.175 164.752L758.584 162.39L756.858 160.695L759.25 160.346L760.31 158.182Z" fill="#FFDE00"/>
<path d="M812.327 180.284L813.401 182.448L815.778 182.797L814.052 184.477L814.461 186.854L812.327 185.733L810.192 186.854L810.601 184.477L808.875 182.797L811.267 182.448L812.327 180.284Z" fill="#FFDE00"/>
<path d="M750.365 117.55L751.424 119.715L753.816 120.063L752.09 121.743L752.499 124.12L750.365 123L748.23 124.12L748.639 121.743L746.913 120.063L749.29 119.715L750.365 117.55Z" fill="#FFDE00"/>
<path d="M727.899 119.897L726.657 121.97L727.672 124.15L725.31 123.621L723.539 125.256L723.327 122.849L721.223 121.668L723.433 120.714L723.917 118.352L725.492 120.169L727.899 119.897Z" fill="#FFDE00"/>
<path d="M734.485 132.991L734.03 135.368L735.741 137.079L733.349 137.381L732.244 139.531L731.215 137.351L728.838 136.973L730.579 135.307L730.215 132.931L732.335 134.081L734.485 132.991Z" fill="#FFDE00"/>
<path d="M770.317 129.343L771.377 131.492L773.768 131.841L772.043 133.536L772.451 135.898L770.317 134.777L768.182 135.898L768.591 133.536L766.865 131.841L769.242 131.492L770.317 129.343Z" fill="#FFDE00"/>
<path d="M737.709 154.473L736.483 156.547L737.482 158.742L735.136 158.197L733.364 159.832L733.137 157.44L731.033 156.259L733.259 155.305L733.728 152.944L735.317 154.76L737.709 154.473Z" fill="#FFDE00"/>
<path d="M805.226 159.166L804 161.24L804.999 163.419L802.652 162.89L800.866 164.525L800.654 162.118L798.55 160.937L800.775 159.983L801.244 157.621L802.834 159.438L805.226 159.166Z" fill="#FFDE00"/>
<path d="M729.882 189.745L728.641 191.819L729.655 193.999L727.293 193.469L725.537 195.104L725.31 192.697L723.206 191.516L725.431 190.563L725.901 188.201L727.49 190.018L729.882 189.745Z" fill="#FFDE00"/>
<path d="M697.865 169.944L696.638 172.018L697.637 174.213L695.291 173.668L693.52 175.303L693.293 172.911L691.188 171.73L693.414 170.777L693.883 168.415L695.473 170.232L697.865 169.944Z" fill="#FFDE00"/>
<path d="M757.04 138.411L755.799 140.485L756.813 142.665L754.452 142.135L752.68 143.77L752.469 141.363L750.364 140.182L752.574 139.243L753.059 136.867L754.648 138.683L757.04 138.411Z" fill="#FFDE00"/>
<path d="M720.117 173.048L718.876 175.106L719.89 177.301L717.529 176.772L715.758 178.407L715.546 176L713.441 174.819L715.652 173.865L716.136 171.503L717.71 173.32L720.117 173.048Z" fill="#FFDE00"/>
<path d="M746.655 172.548L746.216 174.925L747.912 176.635L745.52 176.938L744.415 179.088L743.386 176.908L741.009 176.529L742.765 174.864L742.386 172.487L744.506 173.638L746.655 172.548Z" fill="#FFDE00"/>
<path d="M697.213 188.564L696.774 190.941L698.47 192.652L696.078 192.955L694.973 195.104L693.943 192.924L691.566 192.546L693.322 190.881L692.944 188.504L695.063 189.654L697.213 188.564Z" fill="#FFDE00"/>
<path d="M641.171 134.793L640.716 137.169L642.412 138.88L640.02 139.183L638.93 141.332L637.886 139.153L635.509 138.774L637.265 137.109L636.886 134.732L639.006 135.883L641.171 134.793Z" fill="#FFDE00"/>
<path d="M227.494 196.515L227.962 196.149C227.728 196.222 227.216 196.442 226.909 196.588C226.953 196.72 227.216 196.603 227.597 196.398" fill="#814114"/>
<path d="M225.491 197.568C225.286 197.89 224.672 198.153 224.277 198.255L225.374 197.641" fill="#814114"/>
<path d="M222.273 200.186C222.332 200.054 222.536 199.937 222.405 199.893C222.054 200.112 222.229 200.069 222.215 200.083" fill="#814114"/>
<path d="M222.318 199.425C222.069 199.469 221.879 199.557 221.47 199.893L221.674 199.937C221.938 199.747 222.303 199.484 222.45 199.352" fill="#814114"/>
<path d="M200.147 266.185C199.168 266.243 200.674 266.448 199.504 266.287C199.636 266.17 199.826 266.083 200.147 266.185Z" fill="#121212" fill-opacity="0.43"/>
<path d="M217.696 272.415C216.248 273.278 214.361 272.751 212.65 273.556C211.7 274.521 215.488 274.77 216.599 274.77C216.994 274.77 216.453 275.164 217.359 275.15C220.694 274.916 225.842 275.179 229.922 275.281L229.688 275.413C230.463 275.457 231.37 274.974 232.174 274.93C232.189 275.004 231.925 275.062 232.115 275.15C232.291 274.901 233.563 274.887 233.9 274.682C234.236 274.74 234.221 274.916 234.645 274.974L235.07 274.653C236.269 273.877 238.184 274.272 239.881 273.643C239.808 273.717 239.647 273.79 239.793 273.834C242.513 272.956 245.994 272.313 248.963 271.23C248.875 271.362 248.816 271.567 249.021 271.611C249.094 271.289 249.986 270.909 250.761 270.587C251.229 270.733 251.99 269.797 252.94 269.549L252.897 269.651C253.379 269.037 253.92 269.271 254.227 268.686C254.476 270.309 254.066 268.964 254.023 269.256C253.613 269.593 253.043 268.876 252.399 268.964V269.051C251.829 269.066 251.58 268.774 251.039 268.803L250.995 268.759C249.752 268.803 249.05 268.54 249.065 268.847C248.641 268.569 250.264 268.788 249.606 268.393C245.511 268.437 241.314 268.613 237.205 268.788C236.737 268.686 236.43 268.671 236.327 268.554C235.918 268.642 234.792 268.715 234.426 268.891C234.558 268.876 234.148 268.744 233.929 268.744C233.168 268.671 233.139 269.139 232.306 269.051C232.627 268.949 232.73 268.832 232.613 268.73C231.925 269.022 230.989 269.051 230.17 269.198C230.287 269.139 230.492 269.081 230.448 268.993C229.556 269.344 228.796 269.051 228.021 269.285L228.298 269.081C227.012 268.949 227.947 269.49 226.836 269.446C227.099 269.373 226.997 269.3 227.041 269.227C226.032 269.636 224.365 269.651 223.341 269.841L223.385 269.768C222.273 269.9 221.089 269.841 219.86 270.075C219.407 270.017 219.992 269.651 218.807 269.739C218.851 270.104 216.789 269.929 217.506 270.324C216.497 270.28 214.888 270.192 214.215 270.338C214.669 270.192 213.703 269.9 214.552 269.856L213.908 269.651C213.996 269.49 214.566 269.68 214.361 269.49C213.937 269.519 212.709 269.71 212.329 269.666C211.554 269.914 210.852 270.382 209.594 270.485C210.179 270.309 209.243 270.09 209.638 270.017L207.912 270.821C207.488 270.865 207.81 270.528 207.196 270.675C207.225 270.777 206.976 270.85 206.801 270.938C206.64 270.909 205.06 271.143 204.856 270.806C204.666 270.675 205.528 270.675 205.06 270.587C204.285 270.66 204.256 270.777 203.496 270.85L203.481 270.806C202.969 270.792 202.004 271.113 202.56 271.245C202.911 271.216 202.399 271.04 202.94 271.099C202.604 271.347 201.711 271.494 200.951 271.581C201.2 271.494 201.156 271.406 201.258 271.289C200.264 271.698 199.196 271.932 198.129 272.269C198.143 272.444 198.48 271.889 198.655 271.947C197.968 271.947 197.105 272.225 196.768 272.503C196.856 272.049 196.681 271.596 197.353 272.254C197.193 272.21 197.368 271.991 197.353 272.035C197.88 272.254 197.836 272.444 198.231 272.474C198.246 272.634 198.801 272.517 199.269 272.532C199.518 272.459 199.386 272.62 198.977 272.576C199.62 272.576 202.296 272.576 203.817 272.868C203.803 272.766 204.783 272.561 205.134 272.591L204.987 272.81C205.309 272.971 206.187 272.854 206.23 273.044C207.005 272.81 203.291 273.132 204.329 272.971C204.592 273.175 205.777 272.693 205.543 272.985C206.26 273 206.962 272.781 207.634 273.029C207.444 272.985 207.035 273.322 207.62 273.322C208.643 273.322 207.912 273.219 208.746 273.175L209.272 273.102C209.316 272.883 210.179 273.161 209.813 272.898C209.93 273.088 211.29 272.839 211.188 273.19L211.042 273.483C211.481 273.468 211.773 273.19 212.124 273.073C212.182 273.102 212.299 273.161 212.27 273.205C212.358 272.766 213.323 273.263 213.85 272.941C214.771 273.117 216.204 273 216.628 273.292C217.345 273.175 217.988 273.029 218.807 273.132C218.646 273.175 218.427 273.175 218.383 273.278C218.895 273.424 219.012 273.307 219.48 273.234C219.378 273.292 220.504 273.512 221.059 273.673C221.776 273.556 221.527 273.307 221.601 273.161C222.244 273.6 223.604 272.912 224.408 273.307C224.16 273.366 223.37 273.512 223.955 273.629C224.599 274.068 225.257 273.322 226.295 273.541L226.046 273.175C226.514 273.409 227.582 272.985 227.479 273.351C227.83 273.234 228.708 273.483 228.606 273.132C230.317 273.453 232.773 273 233.826 273.658C234.075 273.6 234.689 273.673 234.558 273.483C234.163 273.278 233.987 273.614 233.841 273.483C234.06 273.468 234.104 273.38 234.134 273.336C234.66 273.424 235.084 273.453 234.572 273.731C235.757 273.951 235.801 273.146 237.307 273.292C237.234 273.439 237.351 273.497 237.79 273.468L238.623 273.219C239.588 273.278 239.179 273.541 239.208 273.79C239.72 273.746 240.364 273.746 240.597 273.57L241.226 273.877C240.758 273.658 241.65 273.717 241.899 273.658L241.65 273.717C241.753 273.819 242.352 273.76 242.645 273.717C242.572 273.57 241.958 273.512 241.621 273.468C241.884 273.366 242.294 273.38 242.645 273.249C242.528 273.497 243.493 273.409 243.903 273.424C244.371 273.468 244.429 273.19 244.575 273.205C244.59 273.336 245.35 273.205 244.985 273.395C244.824 273.439 244.619 273.278 244.341 273.395C244.648 273.483 244.619 273.702 245.277 273.526C245.76 273.395 245.146 273.058 246.067 273.175C245.833 273.234 245.789 273.336 245.599 273.439L246.476 273.541L246.506 273.322C246.623 273.38 246.55 273.395 246.593 273.424C246.842 273.19 247.91 273.322 248.1 273.058C248.539 273.015 249.021 273.161 249.445 273.175L249.372 273.205C249.884 273.307 250.557 273.19 250.981 273.029L250.966 273.073C251.244 273.073 251.902 273.015 252.238 272.868C252.955 273 252.516 273.702 253.277 273.366C253.993 273.307 254.374 272.883 254.066 272.766C255.353 272.824 256.772 272.371 257.986 272.62C258.161 272.517 258.044 272.474 258.41 272.371C260.282 272.254 262.329 271.742 263.836 271.932C263.309 272.108 263.836 272.152 263.865 272.283C264.289 272.02 264.42 272.4 264.537 272.049C264.464 271.859 264.494 271.757 263.967 271.757C265.049 271.479 266.731 271.289 267.36 271.318C267.038 271.289 267.272 271.187 267.492 271.07C267.477 271.406 268.281 271.289 268.866 271.055L268.91 270.85L269.349 270.967C269.568 270.865 269.524 270.514 270.153 270.587L270.373 270.748C270.65 270.66 272.332 269.519 271.543 270.426C271.484 270.221 271.06 271.918 271.952 272.166C272.464 272.313 272.01 272.123 272.084 272.108C271.864 272.108 271.528 272.21 271.835 272.357C270.972 272.064 270.065 272.02 269.744 271.772C267.696 272.283 264.698 272.327 262.285 272.313L262.358 272.166C261.7 272.035 262.022 272.43 261.569 272.327C261.773 272.181 261.072 272.035 261.583 271.859C260.662 271.713 260.384 272.123 259.785 272.196C259.697 272.386 260.267 272.064 260.15 272.313C260.048 272.386 258.863 272.181 258.717 272.474C258.483 272.357 258.659 272.152 258.79 272.035L258.22 272.181C257.518 271.845 259.799 271.567 259.053 271.157L258.527 271.216C258.015 270.923 259.902 270.865 258.585 270.777C258.015 270.923 257.532 271.347 258.044 271.464C256.86 271.552 257.503 272.152 256.231 272.152C255.88 271.991 257.255 272.093 257.006 271.874C256.406 271.655 255.807 272.02 255.266 271.947C255.865 272.049 255.368 272.342 254.973 272.4C254.315 272.269 255.397 272.123 254.476 272.108C254.33 272.269 253.482 272.4 254.213 272.517C253.876 272.898 253.248 272.415 252.75 272.722C252.443 272.459 253.686 272.108 252.677 271.976C252.838 272.225 251.434 272.327 251.975 272.708C251.58 272.634 251.536 272.43 251.814 272.283C251.244 272.123 250.44 272.751 250.25 272.254L250.059 272.517C249.884 272.43 249.635 272.371 249.343 272.225C248.846 272.225 247.72 272.576 247.778 272.181C247.617 272.225 246.476 272.196 246.915 272.474C247.632 272.649 247.734 272.283 248.129 272.649C247.632 272.342 247.105 272.678 246.681 272.781L246.623 272.634C246.374 272.693 245.804 272.649 245.643 272.81C245.833 272.722 245.745 272.62 245.541 272.576L245.277 272.795C244.268 272.883 245.058 272.386 244.078 272.43L244.824 272.269C244.663 272.298 244.341 272.079 243.859 272.137C243.669 272.342 243.318 272.576 243.142 272.737C242.572 272.795 242.908 272.488 242.338 272.678L243.069 272.459C243.186 272.4 242.572 272.079 241.884 272.049C241.416 272.093 240.656 272.357 241.402 272.517C241.022 272.503 240.524 272.327 240.817 272.196C239.969 272.21 240.919 272.43 240.173 272.517C239.896 272.357 238.989 272.079 238.462 271.83L239.237 271.538L238.74 271.494C239.398 271.26 238.433 271.245 238.813 270.982C238.477 270.909 238.067 270.982 237.731 271.026C238.682 271.596 236.576 271.567 236.81 272.035C235.45 272.02 236.064 270.894 234.602 271.435C234.821 271.567 234.134 271.83 234.982 271.801C234.148 271.669 234.368 272.181 233.402 271.903C234.148 271.801 232.657 271.377 233.753 271.23C233.666 271.362 234.338 271.406 234.499 271.377C234.177 271.172 234.616 270.953 233.753 270.865C233.227 270.85 232.51 270.792 232.598 271.026C232.598 271.274 233.402 271.084 233.037 271.304C231.984 271.289 231.852 270.879 231.37 271.274C232.028 271.304 232.174 271.581 232.145 271.757L231.37 271.772L231.53 271.625C230.317 271.377 231.136 271.889 229.951 271.713L229.425 271.333C229.732 271.084 231.136 271.64 230.975 271.157C230.2 271.055 229.922 271.26 229.205 271.07L229.761 271.04C229.483 270.996 229.278 270.353 228.138 270.587C227.553 270.66 227.977 270.733 227.933 270.909C226.69 270.821 226.295 270.967 225.505 270.894C225.71 270.572 224.101 270.704 225.023 270.47C225.403 270.704 227.202 270.894 227.67 270.616C227.26 270.163 228.635 270.777 228.942 270.397C227.947 270.28 228.035 269.9 227.904 269.622C227.626 269.578 227.348 269.651 227.187 269.666C227.041 269.9 227.406 269.929 227.406 270.177C226.31 269.987 225.227 270.002 224.584 270.177C224.233 270.017 224.365 269.797 224.803 269.812C223.487 269.739 222.083 269.549 220.84 269.344C221.601 269.827 219.436 269.285 219.963 269.68C220.621 269.841 221.162 270.178 220.782 270.309C220.372 270.236 220.811 270.134 220.65 270.031C220.094 270.192 219.86 269.593 219.305 269.885C220.518 269.885 219.582 269.432 219.846 269.154C218.954 269.242 219.904 268.934 219.041 268.847C218.164 268.92 217.082 268.949 216.116 268.905C214.946 268.481 213.06 268.583 211.992 268.496C211.437 268.291 211.861 267.969 211.247 267.852C210.53 267.794 211.744 268.276 210.691 268.013L210.793 267.955C210.471 268.013 208.863 267.545 208.512 268.013L208.877 267.662C208.687 267.604 208.497 267.677 208.322 267.706C208.322 267.589 208.102 267.457 208.439 267.399C207.81 267.092 207.049 267.326 206.347 267.282L206.786 267.545C205.558 267.618 204.753 267.355 203.569 267.34L203.613 267.121L202.896 267.209C203.086 267.004 202.443 266.843 202.062 267.004L203.934 266.565C204.432 266.726 203.364 266.785 203.671 267.033C203.934 267.238 205.031 267.253 205.221 267.063C204.797 267.004 204.783 267.063 204.446 267.121C204.329 266.814 204.958 266.858 205.294 266.682C205.075 266.682 204.768 266.565 204.709 266.653C205.148 266.536 205.587 266.536 206.318 266.595C205.821 266.668 206.567 266.799 206.377 266.872C206.45 266.609 207.152 266.58 208.029 266.726C208.643 267.077 209.711 266.682 210.735 266.858C210.296 267.092 209.74 267.253 209.097 267.311C209.726 267.501 209.813 267.37 210.457 267.56C210.793 267.384 211.042 267.092 211.89 267.063L211.919 267.267C212.694 267.238 212.724 266.946 213.689 267.092C215.341 267.355 217.052 267.53 218.325 267.691L218.354 267.896C219.1 267.545 220.723 267.984 221.703 267.911C223.297 268.276 225.242 268.101 226.032 268.54C228.898 268.7 231.413 268.817 234.353 269.198L233.826 269.432C234.382 269.271 234.148 269.636 234.675 269.636C234.104 269.344 235.42 269.417 235.801 269.271C237.088 269.622 238.813 269.534 239.983 269.417L240.013 269.622C241.197 269.344 242.601 269.753 244.049 269.87C244.21 269.958 244.473 270.148 244.912 270.148C245.716 269.841 246.125 269.885 247.295 269.68C248.144 269.695 249.533 269.783 250.41 269.9C253.628 269.432 256.918 269.68 260.282 269.373L260.53 269.607C263.792 269.081 267.784 269.476 270.665 269.359L270.358 269.739C271.221 269.9 272.478 269.812 272.332 269.534C272.932 269.958 272.259 268.949 273.985 270.514C274.336 273.351 273.268 272.181 272.815 272.971C272.274 273.161 271.762 273.292 271.426 273.219C270.504 273.351 270.373 273.629 269.627 273.848C267.799 274.068 267.141 274.243 265.459 274.55L265.883 274.521C266.058 274.404 266.044 274.228 265.62 274.272C265.005 274.477 263.28 274.492 263.982 274.887C262.139 274.901 259.785 275.574 257.986 275.398C258.147 275.515 257.708 275.574 257.518 275.676C255.924 275.793 254.242 275.647 252.984 275.954C252.721 275.896 253.379 275.705 252.721 275.735C252.341 275.808 252.721 275.91 252.253 275.998C249.694 276.378 247.032 275.983 244.692 276.086C240.539 276.437 236.181 276.29 232.232 276.261L232.276 276.159C230.945 276.51 229.176 275.735 228.108 276.29C227.801 276.188 226.909 276.232 227.143 276.042C226.09 276.29 224.189 275.764 222.653 276.071L223.034 276.027C221.498 275.793 220.123 276.071 218.5 275.837C218.661 275.793 218.968 275.779 219.012 275.676C218.383 275.486 217.506 276.056 217.184 275.589C216.818 275.589 216.921 275.822 217.14 275.808C213.572 275.559 209.755 275.764 206.026 275.705C203.364 275.296 205.909 274.916 203.774 275.15C203.613 275.047 203.642 275.325 203.613 275.223C202.779 275.311 202.37 274.623 201.785 274.828C201.989 275.135 201.39 274.96 201.36 275.135C199.723 274.799 199.43 274.521 198.07 274.536L198.202 274.404C197.368 274.506 196.403 274.302 195.394 273.775C193.902 273.614 194.838 270.499 195.496 270.675C196.037 270.309 196.447 270.104 196.739 269.914C205.411 268.145 213.309 268.13 221.293 267.677C229.191 267.253 237.044 266.273 245.307 266.492C247.237 266.858 247.383 266.872 249.548 266.829C249.46 266.887 249.328 266.902 249.46 266.96C249.591 266.638 250.981 267.019 251.215 266.712L253.613 267.121L254.798 267.326L254.944 267.355H254.959C256.055 274.214 255.266 269.256 255.5 270.792H255.485L255.544 270.689L255.47 270.733L255.193 270.894L254.651 271.216C253.189 272.064 251.756 272.605 250.22 273.117C250.688 272.927 250.849 272.591 250.279 272.81L249.738 273.205L249.606 273.146C249.226 273.336 248.846 273.585 249.284 273.585C241.592 276.1 233.812 276.451 226.105 276.919C224.262 276.875 221.644 277.036 219.612 276.992C218.12 276.846 216.658 276.583 215.21 276.276C214.478 276.086 213.777 275.998 213.045 275.72L211.963 275.355L211.7 275.267L211.568 275.223H211.554H211.539C211.802 277.417 211.159 272.225 211.232 272.766L211.276 272.751L211.349 272.708L211.978 272.4C215.97 271.581 216.862 271.508 221.352 271.143C221.103 271.04 219.86 271.815 217.696 272.415Z" fill="#121212" fill-opacity="0.43"/>
<path d="M201.317 266.17C201.521 266.346 202.194 266.463 201.638 266.653C201.594 266.492 201.244 266.302 201.317 266.17Z" fill="#121212" fill-opacity="0.43"/>
<path d="M219.143 269.388C219.172 269.344 219.392 269.475 219.45 269.519C219.231 269.505 219.011 269.622 218.836 269.519C219.055 269.519 219.041 269.446 219.143 269.388Z" fill="#121212" fill-opacity="0.43"/>
<path d="M223.721 269.973C223.633 270.104 222.639 270.119 222.068 270.075L223.721 269.973Z" fill="#121212" fill-opacity="0.43"/>
<path d="M227.918 271.04C228.269 271.201 228.166 271.26 227.669 271.201C227.64 271.113 227.815 271.099 227.918 271.04Z" fill="#121212" fill-opacity="0.43"/>
<path d="M228.255 270.748C228.606 270.777 228.781 270.894 228.942 270.982C228.942 270.85 228.108 270.967 228.255 270.748Z" fill="#121212" fill-opacity="0.43"/>
<path d="M237.526 272.122C237.746 272.137 238.243 272.064 238.448 272.239C238.214 272.108 237.322 272.312 237.526 272.122Z" fill="#121212" fill-opacity="0.43"/>
<path d="M241.929 272.239L242.265 272.254C242.528 272.327 242.236 272.43 242.016 272.43L241.929 272.239Z" fill="#121212" fill-opacity="0.43"/>
<path d="M225.301 273.278L225.783 273.219L225.71 273.351L225.301 273.278Z" fill="#121212" fill-opacity="0.43"/>
<path d="M200.556 271.888C200.994 271.742 200.892 271.976 200.965 271.991C200.556 272.064 201.097 271.801 200.556 271.888Z" fill="#121212" fill-opacity="0.43"/>
<path d="M219.012 270.133H218.881L218.925 269.841L219.012 270.133Z" fill="#121212" fill-opacity="0.43"/>
<path d="M204.695 238.677C204.929 237.375 206.23 232.608 206.23 232.608C206.23 232.608 215.107 229.273 215.122 230.487C215.137 231.701 215.473 233.193 215.122 235.196C214.756 237.214 211.32 246.398 211.32 246.398L204.373 245.653C204.388 245.667 204.066 242.304 204.695 238.677Z" fill="#E4D5B8"/>
<path d="M203.218 266.638C203.218 266.638 203.16 257.454 203.189 253.389C203.247 247.261 204.066 241.148 204.066 241.148C204.066 241.148 207.035 241.865 208.044 241.938C211.159 242.172 212.987 241.806 212.987 241.806C212.987 241.806 208.614 260.204 210.165 264.401C211.729 268.598 209.36 270.09 209.36 270.09L203.218 266.638Z" fill="#007572"/>
<path d="M236.05 117.193H215.166V150.58H236.05V117.193Z" fill="#D5C2A2"/>
<path d="M239.208 238.092C239.53 240.11 239.998 243.415 240.393 244.526L249.284 241.353L248.655 231.657L238.93 233.661C238.945 233.646 238.784 235.562 239.208 238.092Z" fill="#E4D5B8"/>
<path d="M242.382 253.389C241.344 249.733 239.75 241.894 239.75 241.894C239.75 241.894 242.923 241.996 243.976 241.894C248.291 241.485 247.954 241.163 249.27 240.87C249.27 240.87 249.899 259.926 252.502 265.059C254.521 269.051 245.892 264.576 245.892 264.576C245.892 264.576 244.006 259.165 242.382 253.389Z" fill="#007572"/>
<path d="M252.429 263.246C255.646 264.006 256.728 261.549 256.728 261.549C256.728 261.549 258.644 262.573 260.779 262.734C264.654 263.012 267.872 265.176 268.354 267.925C266.307 270.412 261.642 270.953 256.143 270.543C250.981 270.163 247.69 266.536 247.69 266.536L247.997 269.944L244.546 269.856C244.546 269.856 243.771 263.202 244.005 261.286C244.254 259.165 244.341 259.487 244.341 259.487C244.341 259.487 245.774 261.681 252.429 263.246Z" fill="#B91919"/>
<path d="M257.956 262.076C257.956 262.076 255.309 261.271 253.759 258.244C252.574 255.919 252.208 254.881 249.152 257.337C246.841 259.18 249.649 262.822 250.688 263.86C255.323 268.525 257.956 262.076 257.956 262.076Z" fill="#E30613"/>
<path d="M210.413 265.98C213.455 267.282 214.947 265.044 214.947 265.044C214.947 265.044 216.658 266.39 218.749 266.902C222.522 267.838 225.33 270.514 225.33 273.322C222.888 275.428 218.193 275.15 212.841 273.804C207.825 272.547 205.207 268.408 205.207 268.408L204.914 271.815L201.536 271.128C201.536 271.128 201.916 264.445 202.472 262.587C203.086 260.555 203.101 260.876 203.101 260.876C203.101 260.876 204.125 263.289 210.413 265.98Z" fill="#B91919"/>
<path d="M216.058 265.776C216.058 265.776 213.586 264.533 212.592 261.286C211.831 258.8 211.641 257.703 208.205 259.604C205.616 261.023 207.751 265.088 208.599 266.287C212.358 271.684 216.058 265.776 216.058 265.776Z" fill="#E30613"/>
<path d="M249.416 233.792C249.416 233.792 248.524 234.684 244.853 235.079C241.095 235.489 239.676 235.182 238.243 234.816L237.702 232.169C237.702 232.169 242.236 232.842 246.521 232.096C248.027 231.833 249.299 231.379 249.299 231.379L249.416 233.792Z" fill="black"/>
<path d="M216.146 234.553C216.146 234.553 215.064 235.211 211.407 234.757C207.664 234.289 206.347 233.675 205.031 232.988L205.119 230.282C205.119 230.282 209.375 231.964 213.718 232.227C215.239 232.315 216.584 232.169 216.584 232.169L216.146 234.553Z" fill="black"/>
<path d="M188.242 112.615C188.242 112.615 187.613 114.97 186.136 116.578C184.659 118.187 181.208 119.576 181.208 119.576C181.208 119.576 187.233 122.194 191.079 118.86C194.341 116.023 193.946 113.493 193.946 113.493L189.368 109.164L188.242 112.615Z" fill="black"/>
<path d="M208.629 189.612C203.949 203.227 201.2 222.824 202.004 226.202C203.247 231.379 208 231.657 212.899 232.491C219.744 233.661 221.659 227.387 223.648 222.312C227.187 213.274 227.085 211.739 229.805 217.691C233.695 226.202 231.809 231.204 238.389 232.33C242.879 233.105 251.946 233.719 252.443 226.188C252.882 219.358 250.206 191.587 245.438 189.276C240.686 186.965 208.629 189.612 208.629 189.612Z" fill="black"/>
<path d="M189.149 192.04C189.149 192.04 184.469 202.803 186.18 204.09C187.891 205.377 190.07 199.264 190.07 199.264C190.07 199.264 188.798 205.377 191.006 205.801C193.214 206.211 192.893 199.601 192.893 199.601C192.893 199.601 194.223 205.684 196.344 205.582C198.464 205.494 196.285 199.264 196.285 199.264C196.285 199.264 200.263 200.727 200.453 199.074C200.643 197.407 194.545 193.049 194.545 193.049L189.149 192.04Z" fill="#E4D5B8"/>
<path d="M269.144 181.013C269.144 181.013 276.646 190.066 278.591 189.144C280.521 188.223 276.046 183.499 276.046 183.499C276.046 183.499 280.945 187.419 282.32 185.649C283.695 183.879 277.626 181.145 277.626 181.145C277.626 181.145 283.68 182.739 284.558 180.823C285.435 178.907 278.869 177.986 278.869 177.986C278.869 177.986 281.998 175.134 280.594 174.213C279.19 173.291 272.522 176.684 272.522 176.684L269.144 181.013Z" fill="#E4D5B8"/>
<path d="M207.108 128.102C207.108 128.102 214.493 127.561 218.968 129.828C222.156 133.616 231.092 140.211 231.092 140.211C231.092 140.211 232.876 133.572 233.987 124.154C234.894 123.379 236.971 126.157 236.971 126.157C236.971 126.157 244.985 140.109 246.828 157.907C247.998 169.167 251.888 190.928 247.661 191.806C242.177 194.014 227.494 194.467 216.702 193.707C206.274 192.976 205.558 192.011 205.163 185.678C204.783 179.346 208.644 154.85 208.644 154.85C208.644 154.85 203.086 168.012 202.545 175.705C202.004 183.382 201.946 193.692 198.611 194.087C195.73 194.424 185.844 195.009 185.917 191.045C186.049 183.792 188.828 170.528 192.908 159.033C199.094 141.615 207.108 128.102 207.108 128.102Z" fill="#2FAC66"/>
<path d="M236.971 126.143C236.971 126.143 251.624 146.134 256.509 152.935C265.137 164.926 275.023 168.846 275.082 172.356C275.155 176.991 268.281 183.163 266.424 182.461C261.247 180.516 246.652 162.089 242.996 148.196C240.802 139.816 236.971 126.143 236.971 126.143Z" fill="#2FAC66"/>
<path d="M228.518 155.757L238.155 142.99L231.077 140.211L225.798 145.461C225.798 145.461 239.925 152.671 241.563 153.125" stroke="#007572" stroke-width="0.808" stroke-linecap="round"/>
<path d="M226.485 145.739C226.471 146.573 225.784 147.231 224.95 147.231C224.116 147.216 223.444 146.544 223.458 145.71C223.473 144.876 224.16 144.218 224.979 144.218C225.827 144.233 226.485 144.906 226.485 145.739Z" fill="black"/>
<path d="M237.497 142.829C237.483 143.663 238.17 144.35 239.004 144.365C239.852 144.379 240.539 143.707 240.554 142.858C240.568 142.025 239.881 141.337 239.047 141.323C238.199 141.323 237.512 141.981 237.497 142.829Z" fill="black"/>
<path d="M229.513 156.269C229.498 157.132 228.796 157.819 227.919 157.819C227.041 157.804 226.354 157.102 226.368 156.239C226.368 155.377 227.085 154.675 227.962 154.689C228.825 154.704 229.527 155.406 229.513 156.269Z" fill="black"/>
<path d="M240.071 153.329C240.056 154.163 240.729 154.836 241.562 154.85C242.396 154.865 243.083 154.192 243.083 153.373C243.098 152.54 242.425 151.867 241.591 151.852C240.758 151.823 240.085 152.496 240.071 153.329Z" fill="black"/>
<path d="M182.847 86.584C182.847 86.584 186.81 108.009 194.707 119.474C202.312 130.501 219.422 132.841 231.604 128.834C243.786 124.827 252.181 108.798 250.894 95.9143C249.168 78.7015 237.907 61.2547 237.147 60.4065C232.847 55.6975 213.733 63.9895 202.429 69.6783C191.139 75.3525 182.847 86.584 182.847 86.584Z" fill="#E4D5B8"/>
<path d="M240.597 61.5764C250.132 58.1836 249.065 39.5376 236.298 37.4463C224.584 35.5305 210.267 41.6289 200.015 47.2738C194.458 50.3303 167.066 54.7322 161.334 69.0494C153.115 89.5819 182.085 97.8008 185.551 87.5199C185.551 87.5199 202.881 72.0474 220.533 66.6949C230.492 63.6677 240.597 61.5764 240.597 61.5764Z" fill="#00A0A4"/>
<path d="M198.07 77.8387C198.07 77.8387 191.021 66.8266 186.722 63.4483C185.332 62.3369 182.1 59.9531 182.1 59.9531L181.106 66.7827L176.631 56.414C176.631 56.414 175.008 55.1417 166.73 53.2991L158.453 51.4564L159.126 58.8417L152.793 49.7454C152.793 49.7454 147.251 49.6576 140.333 50.7983C133.401 51.939 121 53.7963 121 53.7963C121 53.7963 133.255 59.7484 137.291 62.8341C141.313 65.9198 143.931 66.7242 143.931 66.7242L152.852 60.6697L146.3 68.2597L163.498 72.4423L171.556 66.1538L166.818 73.0419C166.818 73.0419 182.861 76.7126 186.151 76.5956C189.456 76.5078 198.07 77.8387 198.07 77.8387Z" fill="#DAD8CC"/>
<path d="M241.095 66.9435C241.095 66.9435 227.055 68.8447 211.89 75.7912C198.319 82.0212 189.398 89.3626 183.621 93.6768C179.95 93.8961 181.808 87.4907 181.808 87.4907C181.808 87.4907 192.381 77.6632 207.62 71.1407C225.885 63.3167 231.077 62.6147 239.749 61.7519C243.712 63.6092 241.095 66.9435 241.095 66.9435Z" fill="#007572"/>
<path d="M195.452 76.0545C195.452 76.0545 180.316 67.2799 167.066 62.8488C148.084 56.5018 130.301 55.3757 130.301 55.3757" stroke="#B9B5A3" stroke-width="0.538" stroke-miterlimit="10" stroke-linecap="round" stroke-linejoin="round"/>
<path d="M171.513 62.7171L168.441 55.829" stroke="#B9B5A3" stroke-width="0.538" stroke-miterlimit="10" stroke-linecap="round" stroke-linejoin="round"/>
<path d="M155.309 67.9818L160.529 63.5214" stroke="#B9B5A3" stroke-width="0.538" stroke-miterlimit="10" stroke-linecap="round" stroke-linejoin="round"/>
<path d="M174.422 73.4221L178.678 69.6344" stroke="#B9B5A3" stroke-width="0.538" stroke-miterlimit="10" stroke-linecap="round" stroke-linejoin="round"/>
<path d="M227.406 92.6238C227.406 92.6238 234.25 95.0222 236.239 95.1392C238.228 95.2562 239.91 96.353 236.005 99.0878C232.086 101.823 229.088 101.808 229.088 101.808" stroke="black" stroke-width="0.778" stroke-linecap="round"/>
<path fill-rule="evenodd" clip-rule="evenodd" d="M209.755 81.7726C205.09 82.4892 202.618 85.5603 203.057 90.2255C203.51 94.9345 206.406 98.1372 210.852 97.7131C215.268 97.3036 218.164 93.5452 217.725 88.8654C217.272 84.1856 214.142 81.0853 209.755 81.7726Z" fill="white"/>
<path fill-rule="evenodd" clip-rule="evenodd" d="M213.104 85.0483C212.314 85.1215 211.993 85.6626 212.066 86.423C212.139 87.1981 212.636 87.7246 213.426 87.6515C214.201 87.5783 214.713 86.9641 214.64 86.1744C214.567 85.4286 213.894 84.9752 213.104 85.0483Z" fill="black"/>
<path fill-rule="evenodd" clip-rule="evenodd" d="M238.008 74.7822C234.264 75.1917 232.641 78.1019 232.714 82.3868C232.773 86.6425 235.771 89.4942 239.778 89.0994C243.756 88.7045 246.359 85.2971 245.92 81.056C245.511 76.8442 241.986 74.3873 238.008 74.7822Z" fill="white"/>
<path fill-rule="evenodd" clip-rule="evenodd" d="M241.768 77.6779C241.007 77.751 240.7 78.2774 240.773 79.0087C240.861 79.7545 241.329 80.2517 242.075 80.1932C242.821 80.1201 243.318 79.5205 243.23 78.7601C243.157 78.0288 242.513 77.5901 241.768 77.6779Z" fill="black"/>
<path d="M180.959 96.777C178.692 98.3711 171.468 99.7604 171.468 99.7604C171.468 99.7604 173.457 102.554 177.596 102.729C178.883 102.788 180.55 102.568 180.55 102.568C180.55 102.568 179.043 104.543 176.162 104.981C173.618 105.376 171.059 105.23 171.059 105.23C171.176 106.59 177.888 112.22 182.904 108.199C181.164 112.059 174.378 113.273 174.378 113.273C174.378 113.273 183.899 117.895 188.549 113.346C189.588 112.323 190.377 111.474 190.377 111.474C190.377 111.474 186.59 102.524 186.37 100.682C186.166 98.9853 183.635 93.6474 183.635 93.6474C183.635 93.6474 183.811 94.7589 180.959 96.777Z" fill="black"/>
<path d="M187.949 97.7716C187.949 97.7716 181.31 98.8392 181.763 103.036C182.158 106.751 185.653 107.453 188.081 107.263C190.509 107.058 191.021 106.254 191.021 106.254L187.949 97.7716Z" fill="#E4D5B8"/>
<path d="M183.167 95.0953C183.167 95.0953 183.928 96.6162 182.451 98.2102C180.974 99.8189 173.808 101.691 173.808 101.691C173.808 101.691 179.336 104.894 184.396 100.784C187.745 98.0494 191.679 87.6515 191.679 87.6515L183.621 93.6767L183.167 95.0953Z" fill="black"/>
<path d="M224.848 115.218C224.365 118.158 225.272 120.586 229.995 120.22C232.599 120.015 234.514 117.441 234.28 114.473C234.046 111.504 232.525 109.281 229.922 109.486C227.319 109.705 225.33 112.381 224.848 115.218Z" fill="black"/>
<path d="M405.647 44.4304C405.077 45.4687 400.894 46.7849 399.461 47.7501C400.894 47.8525 403.088 47.4138 404.462 47.1944C405.559 47.0043 406.495 46.6387 407.563 46.5217C407.768 46.5656 406.305 44.4743 405.647 44.4304Z" fill="black"/>
<g opacity="0.6">
<g opacity="0.6">
<path opacity="0.6" d="M420.214 35.4803C420.477 33.3452 418.956 26.7935 409.567 19.1742C407.505 17.5071 398.862 12.8565 397.268 14.2605C396.522 14.9186 393.817 18.8233 403.527 28.0512C407.3 31.6342 414.305 34.3104 419.307 35.3049C419.848 35.3926 420.111 35.5827 420.214 35.4803Z" fill="#686552"/>
</g>
</g>
<path d="M418.708 37.9664C416.324 32.1898 411.147 28.8408 407.154 30.4788C403.162 32.1313 401.846 38.1565 404.23 43.9331C406.613 49.7097 411.79 53.0587 415.783 51.4208C419.79 49.7682 421.091 43.743 418.708 37.9664Z" fill="#FFDE00"/>
<path d="M421.925 38.3029C419.76 33.0381 414.759 30.1133 410.752 31.7658C406.759 33.4184 405.267 39.0195 407.446 44.2696C409.611 49.5343 414.612 52.4592 418.605 50.8067C422.597 49.1541 424.089 43.5676 421.925 38.3029Z" fill="black"/>
<path d="M425.698 35.9483C423.315 30.1717 418.138 26.8227 414.145 28.4606C410.138 30.1132 408.836 36.1384 411.22 41.915C413.604 47.6916 418.781 51.0405 422.773 49.4026C426.78 47.7501 428.082 41.7249 425.698 35.9483Z" fill="#FFDE00"/>
<path d="M430.305 33.5207C427.921 27.7441 422.744 24.3951 418.752 26.0476C414.744 27.7002 413.443 33.7254 415.827 39.502C418.21 45.2786 423.387 48.6276 427.38 46.9897C431.372 45.3225 432.688 39.2973 430.305 33.5207Z" fill="black"/>
<path d="M426.298 27.6125C426.298 27.6125 424.674 21.207 425.04 20.7244C425.391 20.2418 427.672 20.6513 427.672 20.6513" stroke="black" stroke-width="0.288" stroke-miterlimit="10" stroke-linecap="round" stroke-linejoin="round"/>
<path d="M430.406 27.9781C430.406 27.9781 430.743 21.3825 431.225 21.0316C431.708 20.6806 433.755 21.7335 433.755 21.7335" stroke="black" stroke-width="0.288" stroke-miterlimit="10" stroke-linecap="round" stroke-linejoin="round"/>
<g opacity="0.6">
<g opacity="0.6">
<path opacity="0.6" d="M418.78 35.5389C419.058 35.5389 417.508 33.5354 417.23 33.082C415.051 30.4497 412.506 28.4461 409.611 26.6327C405.063 23.8249 399.959 21.7336 394.606 21.9091C393.056 21.9091 388.362 21.602 388.274 23.2691C387.587 34.2666 407.695 38.6246 418.78 35.5389Z" fill="#686552"/>
</g>
</g>
<path d="M420.258 34.676C420.448 30.2448 422.13 28.4899 424.587 27.32C427.76 25.682 434.122 25.7698 436.74 29.6452C441.112 36.1238 438.421 44.1672 429.822 44.8399C422.686 45.381 420.17 36.855 420.258 34.676Z" fill="#FFDE00"/>
<path d="M433.624 34.559C431.811 35.5096 430.144 34.7199 429.603 33.2575C429.032 31.7219 429.968 29.8793 431.811 29.6599C434.209 29.3528 435.994 33.3014 433.624 34.559Z" fill="white"/>
<path d="M433.2 32.0876C432.878 32.3508 432.483 32.2192 432.381 31.9267C432.264 31.6196 432.454 31.254 432.82 31.2101C433.302 31.1516 433.595 31.7659 433.2 32.0876Z" fill="black"/>
<path d="M435.877 41.0961C435.877 41.0961 434.955 41.6811 433.873 41.2862C431.987 40.6135 432.279 38.7855 432.279 38.7855" stroke="black" stroke-width="0.288" stroke-miterlimit="10" stroke-linecap="round" stroke-linejoin="round"/>
<path d="M422.524 46.0976C422.524 46.0976 421.574 48.2035 421.15 49.2418C420.506 50.792 419.556 51.4208 419.556 51.4208" stroke="black" stroke-width="0.288" stroke-miterlimit="10" stroke-linecap="round" stroke-linejoin="round"/>
<path d="M417.8 47.3699C417.8 47.3699 417.405 48.8762 416.996 49.9145C416.352 51.4647 414.963 52.2983 414.963 52.2983" stroke="black" stroke-width="0.288" stroke-miterlimit="10" stroke-linecap="round" stroke-linejoin="round"/>
<path d="M413.603 47.6332C413.603 47.6332 412.975 49.0664 412.404 50.017C411.527 51.4502 410.021 52.0498 410.021 52.0498" stroke="black" stroke-width="0.288" stroke-miterlimit="10" stroke-linecap="round" stroke-linejoin="round"/>
<path d="M460.782 78.8415C460.051 80.1723 454.757 81.8248 452.943 83.0533C454.742 83.1849 457.535 82.6145 459.29 82.3513C460.68 82.1173 461.864 81.6493 463.224 81.5031C463.458 81.5616 461.616 78.9 460.782 78.8415Z" fill="black"/>
<g opacity="0.6">
<g opacity="0.6">
<path opacity="0.6" d="M479.252 67.4929C479.589 64.7874 477.658 56.4661 465.754 46.7995C463.136 44.679 452.168 38.7854 450.15 40.5549C449.199 41.4031 445.777 46.3607 458.091 58.0602C462.888 62.6083 471.765 66.0012 478.097 67.2735C478.799 67.3759 479.135 67.6099 479.252 67.4929Z" fill="#686552"/>
</g>
</g>
<path d="M477.366 70.6372C474.339 63.2958 467.772 59.0548 462.698 61.1461C457.623 63.2373 455.956 70.8712 458.983 78.2126C462.01 85.5394 468.577 89.7951 473.651 87.7038C478.726 85.6125 480.393 77.9786 477.366 70.6372Z" fill="#FFDE00"/>
<path d="M481.431 71.076C478.682 64.4073 472.335 60.6927 467.261 62.784C462.186 64.8753 460.299 71.9827 463.049 78.6514C465.798 85.3201 472.145 89.0346 477.22 86.9434C482.294 84.8375 484.181 77.7447 481.431 71.076Z" fill="black"/>
<path d="M486.228 68.078C483.201 60.7366 476.635 56.4955 471.56 58.5868C466.486 60.6781 464.833 68.3266 467.846 75.6534C470.873 82.9802 477.439 87.2358 482.514 85.1446C487.588 83.0679 489.256 75.4194 486.228 68.078Z" fill="#FFDE00"/>
<path d="M492.063 64.9923C489.036 57.6509 482.47 53.4098 477.395 55.5011C472.321 57.5924 470.668 65.2409 473.681 72.5677C476.708 79.9091 483.274 84.1501 488.349 82.0589C493.423 79.9822 495.091 72.3337 492.063 64.9923Z" fill="black"/>
<path d="M486.989 57.5046C486.989 57.5046 484.941 49.3881 485.395 48.7739C485.848 48.1596 488.729 48.6715 488.729 48.6715" stroke="black" stroke-width="0.365" stroke-miterlimit="10" stroke-linecap="round" stroke-linejoin="round"/>
<path d="M492.194 57.9578C492.194 57.9578 492.633 49.5927 493.233 49.1394C493.847 48.686 496.45 50.0314 496.45 50.0314" stroke="black" stroke-width="0.365" stroke-miterlimit="10" stroke-linecap="round" stroke-linejoin="round"/>
<g opacity="0.6">
<g opacity="0.6">
<path opacity="0.6" d="M477.439 67.5514C477.776 67.5514 475.816 65.0214 475.479 64.4364C472.715 61.1021 469.484 58.5574 465.798 56.2468C460.036 52.6785 453.558 50.0315 446.757 50.2508C444.798 50.2508 438.846 49.856 438.714 51.9765C437.866 65.9427 463.385 71.4707 477.439 67.5514Z" fill="#686552"/>
</g>
</g>
<path d="M479.325 66.4692C479.559 60.8389 481.694 58.6306 484.809 57.1243C488.846 55.0476 496.904 55.15 500.223 60.0638C505.781 68.2826 502.359 78.4904 491.449 79.3386C482.396 80.0552 479.208 69.2332 479.325 66.4692Z" fill="#FFDE00"/>
<path d="M496.275 66.3084C493.964 67.5222 491.858 66.5131 491.171 64.6558C490.454 62.6962 491.639 60.3709 493.979 60.0784C497.02 59.7128 499.287 64.7289 496.275 66.3084Z" fill="white"/>
<path d="M495.778 63.2226C495.339 63.5736 494.813 63.3981 494.666 63.0032C494.505 62.5791 494.769 62.0819 495.266 62.0234C495.909 61.9356 496.304 62.7838 495.778 63.2226Z" fill="black"/>
<path d="M499.127 74.615C499.127 74.615 497.957 75.3462 496.582 74.8636C494.184 74.0154 494.564 71.6755 494.564 71.6755" stroke="black" stroke-width="0.365" stroke-miterlimit="10" stroke-linecap="round" stroke-linejoin="round"/>
<path d="M482.191 80.9619C482.191 80.9619 480.992 83.6381 480.451 84.9397C479.632 86.914 478.433 87.7037 478.433 87.7037" stroke="black" stroke-width="0.365" stroke-miterlimit="10" stroke-linecap="round" stroke-linejoin="round"/>
<path d="M476.195 82.5852C476.195 82.5852 475.698 84.5009 475.172 85.8025C474.353 87.7768 472.583 88.8297 472.583 88.8297" stroke="black" stroke-width="0.365" stroke-miterlimit="10" stroke-linecap="round" stroke-linejoin="round"/>
<path d="M470.872 82.907C470.872 82.907 470.083 84.7205 469.337 85.9197C468.225 87.7477 466.31 88.4935 466.31 88.4935" stroke="black" stroke-width="0.365" stroke-miterlimit="10" stroke-linecap="round" stroke-linejoin="round"/>
<path d="M389.02 98.1747C388.128 99.798 381.62 101.845 379.397 103.352C381.62 103.513 385.042 102.825 387.207 102.489C388.903 102.196 390.351 101.626 392.033 101.451C392.325 101.509 390.059 98.2479 389.02 98.1747Z" fill="black"/>
<g opacity="0.6">
<g opacity="0.6">
<path opacity="0.6" d="M409.714 88.3472C410.942 85.2323 411.191 74.732 400.003 59.5959C397.547 56.2761 386.301 45.8929 383.361 47.3992C381.972 48.1012 376.385 52.9564 387.456 70.6372C391.755 77.5106 401.276 84.2671 408.427 87.7184C409.202 88.0694 409.553 88.435 409.714 88.3472Z" fill="#686552"/>
</g>
</g>
<path d="M409.392 88.0985C405.677 79.09 397.605 73.8691 391.389 76.443C385.159 79.0169 383.126 88.391 386.841 97.3996C390.556 106.408 398.614 111.629 404.844 109.055C411.073 106.496 413.106 97.1071 409.392 88.0985Z" fill="#FFDE00"/>
<path d="M414.379 88.625C411 80.4354 403.206 75.8726 396.976 78.4465C390.746 81.0204 388.435 89.7364 391.813 97.9261C395.191 106.116 402.986 110.678 409.216 108.105C415.446 105.545 417.757 96.8146 414.379 88.625Z" fill="black"/>
<path d="M420.272 84.9543C416.557 75.9457 408.499 70.7248 402.269 73.2987C396.039 75.8726 394.007 85.2614 397.707 94.2553C401.421 103.264 409.494 108.485 415.709 105.911C421.954 103.352 423.986 93.9629 420.272 84.9543Z" fill="#FFDE00"/>
<path d="M427.438 81.1666C423.723 72.1581 415.665 66.9372 409.435 69.5111C403.205 72.0849 401.158 81.4737 404.872 90.4823C408.587 99.4909 416.645 104.712 422.889 102.138C429.119 99.564 431.152 90.1752 427.438 81.1666Z" fill="black"/>
<path d="M420.287 72.6407C420.287 72.6407 415.798 63.3835 416.193 62.5353C416.573 61.687 420.185 61.5847 420.185 61.5847" stroke="black" stroke-width="0.448" stroke-miterlimit="10" stroke-linecap="round" stroke-linejoin="round"/>
<path d="M426.678 71.8948C426.678 71.8948 425.127 61.7309 425.742 61.029C426.356 60.327 429.836 61.2922 429.836 61.2922" stroke="black" stroke-width="0.448" stroke-miterlimit="10" stroke-linecap="round" stroke-linejoin="round"/>
<g opacity="0.6">
<g opacity="0.6">
<path opacity="0.6" d="M408.119 87.1188C408.543 87.1773 406.525 83.7845 406.189 83.0386C403.323 78.549 399.754 74.9807 395.601 71.6171C389.108 66.4108 381.606 62.2136 373.284 61.4824C370.901 61.1899 363.705 59.8299 363.223 62.3891C360.108 79.2656 390.395 89.8097 408.119 87.1188Z" fill="#686552"/>
</g>
</g>
<path d="M411.79 82.9654C412.068 76.0628 414.701 73.328 418.518 71.5C423.475 68.9553 433.376 69.087 437.456 75.1122C444.271 85.2176 440.088 97.736 426.678 98.7889C415.563 99.6664 411.659 86.3729 411.79 82.9654Z" fill="#FFDE00"/>
<path d="M422.246 83.097C419.614 84.4863 416.791 83.097 416.002 80.9765C415.183 78.739 416.543 76.0774 419.219 75.741C422.699 75.3023 425.697 81.2836 422.246 83.097Z" fill="white"/>
<path d="M419.424 80.3916C418.868 80.684 418.298 80.3915 418.122 79.9528C417.947 79.4848 418.225 78.9437 418.795 78.8706C419.526 78.7683 420.141 80.0113 419.424 80.3916Z" fill="black"/>
<path d="M435.204 80.6694C432.718 81.971 430.598 80.611 429.852 78.6074C429.077 76.5161 430.349 74.0008 432.864 73.6937C436.14 73.2988 438.436 78.973 435.204 80.6694Z" fill="white"/>
<path d="M433.069 78.0956C432.616 78.4905 431.972 78.0956 431.811 77.6715C431.651 77.2182 431.914 76.6917 432.455 76.6186C433.172 76.5308 433.698 77.5692 433.069 78.0956Z" fill="black"/>
<path d="M431.036 87.8501C431.036 87.8501 431.182 90.5848 428.389 91.5354C425.435 92.5445 423.973 88.5374 423.973 88.5374" stroke="black" stroke-width="0.448" stroke-miterlimit="10" stroke-linecap="round" stroke-linejoin="round"/>
<path d="M415.315 100.778C415.315 100.778 413.838 104.068 413.18 105.662C412.185 108.09 410.708 109.055 410.708 109.055" stroke="black" stroke-width="0.448" stroke-miterlimit="10" stroke-linecap="round" stroke-linejoin="round"/>
<path d="M407.973 102.767C407.973 102.767 407.374 105.121 406.715 106.73C405.721 109.158 403.542 110.445 403.542 110.445" stroke="black" stroke-width="0.448" stroke-miterlimit="10" stroke-linecap="round" stroke-linejoin="round"/>
<path d="M401.421 103.162C401.421 103.162 400.456 105.385 399.535 106.876C398.16 109.114 395.806 110.05 395.806 110.05" stroke="black" stroke-width="0.448" stroke-miterlimit="10" stroke-linecap="round" stroke-linejoin="round"/>
</svg>
