<svg width="803" height="222" viewBox="0 0 803 222" fill="none" xmlns="http://www.w3.org/2000/svg">
<path d="M801.876 79.5113C801.588 42.6776 795.139 5.18036 748.776 3.51262C663.532 0.446135 127.18 0.248868 66.6156 2.58011C12.5172 4.67824 0.0251039 44.2556 1.05765 86.7561C1.65009 111.18 5.74641 157.465 44.3567 160.495C83.0009 163.544 169.125 164.978 258.398 165.05C255.689 188.524 220.431 221 220.431 221C220.431 221 249.376 211.083 267.318 188.542C273.141 181.225 277.898 171.524 280.724 165.032C384.3 164.853 719.476 162.916 752.957 159.437C796.798 154.918 802.164 117.618 801.876 79.5113Z" fill="#DAD8CC" stroke="#DAD8CC" stroke-width="0.966"/>
</svg>
