<svg width="95" height="62" viewBox="0 0 95 62" fill="none" xmlns="http://www.w3.org/2000/svg">
<path d="M3.98023 38.7243L0 20.9061C0 20.9061 5.35663 12.369 42.0904 13.0572C70.3242 13.578 77.1129 20.1063 78.3219 22.0035L72.6491 41.9606L3.98023 38.7243Z" fill="#B91919"/>
<path d="M61.3016 34.7998C61.3016 34.7998 83.1559 15.8098 89.1449 9.33727C93.8877 4.20385 96.3242 0.855942 92.2323 0.0189704C87.7499 -0.892398 58.0096 31.3217 56.9122 34.5952C55.8148 37.9059 61.3016 34.7998 61.3016 34.7998Z" fill="#F39200"/>
<path d="M44.6561 39.0032C44.6561 39.0032 65.1526 43.7646 67.3474 33.1444C69.5421 22.5242 66.436 12.0899 60.7632 9.35579C55.0904 6.60309 39.1693 7.8864 36.2492 13.5592C33.3105 19.232 32.3991 32.047 44.6561 39.0032Z" fill="#2FAC66"/>
<path d="M61.2466 8.463C56.6525 5.5057 44.2653 3.79455 38.4995 10.4345C40.9174 16.5351 44.0793 21.6872 46.1811 24.8119C49.9195 30.3545 50.5705 25.7418 50.7379 22.1149C50.9239 18.488 49.4545 14.0056 52.449 16.6839C55.4435 19.3623 55.8156 29.2943 58.0661 25.6674C60.3166 22.0405 59.6842 20.9804 61.8045 19.1763C65.0222 16.4235 65.5244 22.0963 68.0539 27.9365C69.1885 18.8042 66.5846 11.9039 61.2466 8.463Z" fill="#533018"/>
<path d="M28.8108 40.0262C42.0349 40.0634 46.6662 33.628 46.2198 17.9487C45.699 -0.799433 25.5187 1.48831 20.2365 3.85043C14.9729 6.23115 6.32419 14.3218 10.8252 29.1083C14.5079 41.1607 28.8108 40.0262 28.8108 40.0262Z" fill="#ACD5B3"/>
<path d="M20.1966 2.28793C16.1606 4.07347 10.618 10.2299 9.68799 18.8972C10.339 18.86 10.6737 18.7112 11.2503 18.3392C16.8301 14.6379 19.713 8.18396 20.8848 12.2572C22.0379 16.3119 18.1879 21.6685 20.8848 20.7385C23.5817 19.8086 25.4975 13.3546 26.2786 16.8699C27.0598 20.3852 25.702 27.7691 28.5849 27.9365C31.4678 28.1225 28.9755 11.8852 33.0116 12.2572C37.0477 12.6292 35.8945 17.9858 38.3868 19.2692C40.8977 20.5525 40.5071 14.0986 42.9995 13.5406C45.3802 13.0012 44.32 21.1849 46.087 24.0306C46.3473 22.1707 46.4961 19.9946 46.4589 17.7812C46.2543 -1.8597 25.5904 -0.111389 20.1966 2.28793Z" fill="#814114"/>
<path d="M0.00134032 20.906C1.1731 25.872 11.2167 35.1717 38.6136 34.8184C75.4403 34.3534 78.3232 22.0034 78.3232 22.0034C78.3232 22.0034 75.6263 53.1015 60.6538 57.9745C43.5238 63.5729 21.2232 62.2524 10.417 54.5709C-0.352036 46.8893 0.00134032 20.906 0.00134032 20.906Z" fill="#E30613"/>
</svg>
