<svg width="346" height="286" viewBox="0 0 346 286" fill="none" xmlns="http://www.w3.org/2000/svg">
<g clip-path="url(#clip0)">
<path d="M237.078 57.0855C237.078 57.0855 255.761 47.4857 265.584 42.4608C275.414 37.4337 301.217 26.7971 301.513 28.4881C301.809 30.182 294.553 45.8773 288.247 63.2026C283.089 77.3766 274.56 81.4111 274.56 81.4111L237.078 57.0855Z" fill="#E86D11"/>
<path d="M474.165 329.291C433.946 334.818 403.719 326.102 384.446 318.183C370.243 312.344 350.684 303.935 329.066 306.506C311.122 308.641 284.551 325.403 284.551 325.403C284.551 325.403 297.886 263.817 257.669 196.376C255.377 192.537 254.604 188.032 254.637 183.591C254.637 183.591 163.839 193.324 164.162 194.038C187.313 245.579 175.917 299.566 175.215 326.673C174.503 353.782 178.733 388.236 178.733 388.236C178.733 388.236 139.828 382.746 144.647 391.202C149.464 399.656 165.308 393.662 165.308 393.662C165.308 393.662 159.811 403.129 164.233 404.753C168.66 406.377 175.553 397.206 175.553 397.206C175.553 397.206 173.432 404.836 182.419 406.867C191.398 408.903 194.077 403.449 192.932 393.123C191.776 382.798 196.383 345.483 197.18 344.969C198.32 344.241 254.193 351.3 254.193 351.3L253.215 395.354C253.215 395.354 222.452 398.754 225.37 403.609C228.277 408.461 243.405 403.546 243.405 403.546C243.405 403.546 231.517 410.396 238.118 413.176C244.715 415.956 252.099 410.172 252.099 410.172C246.803 424.868 269.971 418.855 267.8 404.925L274.013 348.976C274.013 348.976 292.659 387.096 334.839 391.974C387.367 398.048 461.611 361.98 486.847 341.15C512.803 319.732 503.208 325.297 474.165 329.291Z" fill="#F88011"/>
<path d="M262.884 179.682C262.884 179.682 266.829 182.068 270.858 185.092C277.509 190.062 278.841 202.655 279.918 193.097C281.001 183.541 273.403 170.878 273.403 170.878C273.403 170.878 279.324 167.357 294.468 176.538C304.373 182.543 288.412 156.095 288.412 156.095C288.412 156.095 301.814 160.278 310.496 163.623C314.891 165.317 292.937 137.309 292.937 137.309C292.937 137.309 292.836 135.489 297.099 127.805C299.221 123.999 299.888 109.696 299.888 109.696C299.888 109.696 317.905 85.9342 324.366 76.5535C330.822 67.1708 335.229 55.5019 335.229 55.5019C335.229 55.5019 304.998 61.4951 288.981 66.9061C277.288 70.8519 266.31 77.6623 266.31 77.6623C266.31 77.6623 268.974 70.4111 244.508 55.589C234.314 49.4036 195.669 42.083 175.737 42.1322C160.229 42.1745 120.971 30.3067 113.83 28.1858C101.573 24.5507 61.0771 14.841 56.9381 22.8573C52.7981 30.8821 58.3022 42.5188 74.546 63.3088C90.4956 83.7114 153.095 131.298 157.625 172.903L182.94 201.417L250.994 197.373C254.85 187.557 262.884 179.682 262.884 179.682Z" fill="#F88011"/>
<path d="M185.349 214.762C185.349 214.762 178.166 230.112 173.258 240.026C168.341 249.94 161.154 256.036 158.155 257.588C155.165 259.148 138.846 258.076 139.403 263.981C139.764 267.737 147.656 268.757 147.656 268.757C147.656 268.757 143.571 273.537 143.83 277.523C144.202 283.466 154.665 276.37 154.665 276.37C154.665 276.37 146.388 289.224 155.508 291.843C161.025 293.423 167.21 285.158 171.405 266.526C175.453 248.562 197.737 223.719 197.737 223.719" fill="#F88011"/>
<path d="M171.211 226.552C176.268 272.986 178.103 279.086 172.216 325.528C185.055 327.209 206.403 328.278 218.581 330.676C220.453 322.947 220.668 314.558 220.329 306.3C217.414 235.092 199.791 214.098 191.41 193.462C186.125 180.444 163.885 150.083 141.492 135.889C151.651 153.106 168.996 206.213 171.211 226.552Z" fill="white"/>
<path d="M71.7351 17.7746C58.1285 15.1094 39.5795 10.889 45.0814 23.463C51.7054 38.6136 68.9917 55.9762 68.9917 55.9762C68.9917 55.9762 86.6718 31.5901 88.1531 21.754C88.1546 21.7542 76.6765 18.7439 71.7351 17.7746Z" fill="black"/>
<path d="M270.163 81.9419C270.163 81.9419 303.095 70.0985 302.224 73.1615C301.361 76.2384 289.002 98.7806 289.002 98.7806C289.002 98.7806 282.488 91.2984 279.811 89.264C277.147 87.2123 270.163 81.9419 270.163 81.9419Z" fill="white"/>
<path d="M273.039 48.6634C275.173 48.5715 274.471 51.2687 272.448 55.6667C270.424 60.0589 264.748 71.831 264.748 71.831L249.803 60.178C249.802 60.1794 270.924 48.7601 273.039 48.6634Z" fill="white"/>
<path d="M224.544 93.838C219.821 102.987 206.669 105.98 195.746 100.483C187.544 96.3604 182.581 83.0207 193.649 73.1453C203.8 64.0882 211.812 65.2119 219.751 70.6186C227.323 75.7778 229.267 84.685 224.544 93.838Z" fill="white"/>
<path d="M206.341 76.0778C205.554 77.6041 206.174 79.4718 207.735 80.2553C209.292 81.0383 211.189 80.4392 211.98 78.9106C212.768 77.3845 212.147 75.5066 210.59 74.7264C209.028 73.9414 207.128 74.5516 206.341 76.0778Z" fill="black"/>
<path d="M202.664 302.113C202.664 302.113 205.446 232.73 214.485 219.712C226.82 201.965 264.212 204.526 264.212 204.526L261.156 199.092C261.156 199.092 224.905 191.507 205.21 219.055C195.21 233.043 191.07 300.823 191.07 300.823L202.664 302.113Z" fill="black"/>
<path d="M243.593 222.526C244.166 217.364 235.357 217.135 234.488 217.063C230.368 216.725 217.605 215.071 207.126 207.138C186.129 191.24 190.533 184.282 189.281 181.173C188.036 178.066 191.129 165.353 187.798 163.465C184.481 161.571 180.8 167.585 180.8 167.585C180.8 167.585 177.201 159.597 173.137 159.382C167.101 159.071 171.712 168.935 171.188 170.681C170.723 172.263 161.256 164.283 157.625 172.91C155.416 178.128 166.557 183.092 173.323 191.888C202.187 229.375 227.347 230.103 233.186 229.7C234.02 229.641 242.922 228.572 243.593 222.526Z" fill="#FAAA12"/>
<path d="M174.825 126.626C174.825 126.626 184.213 131.78 186.092 140.838" stroke="black" stroke-width="1.574" stroke-linecap="round"/>
<ellipse rx="12.3299" ry="12.3299" transform="matrix(-0.974071 0.226243 0.226242 0.974071 177.98 135.16)" fill="black"/>
</g>
<defs>
<clipPath id="clip0">
<rect width="488.999" height="418.844" fill="white" transform="translate(46.2266) rotate(6.33653)"/>
</clipPath>
</defs>
</svg>
