<?xml version="1.0" encoding="utf-8"?>
<!-- Generator: Adobe Illustrator 25.3.1, SVG Export Plug-In . SVG Version: 6.00 Build 0)  -->
<svg version="1.1" id="Layer_1" xmlns="http://www.w3.org/2000/svg" xmlns:xlink="http://www.w3.org/1999/xlink" x="0px" y="0px"
	 viewBox="0 0 907 689" style="enable-background:new 0 0 907 689;" xml:space="preserve">
<style type="text/css">
	.st0{fill:#2BB673;}
	.st1{fill:#F39200;}
	.st2{fill:#FAB415;}
	.st3{fill:#FFFFFF;}
	.st4{fill:none;stroke:#DAD8CC;stroke-width:0.169;stroke-linecap:round;}
	.st5{fill:#00A0A4;}
	.st6{fill:#454444;}
	.st7{fill-rule:evenodd;clip-rule:evenodd;fill:#2FAC66;}
	.st8{fill:#A85318;}
	.st9{fill-rule:evenodd;clip-rule:evenodd;fill:#1B8A4F;}
	.st10{fill-rule:evenodd;clip-rule:evenodd;fill:#A85318;}
	.st11{fill:#1B8A4F;}
	.st12{fill:#814114;}
	.st13{fill:#F8EFE6;}
	.st14{fill:#EFE6DE;}
	.st15{fill-rule:evenodd;clip-rule:evenodd;fill:#219959;}
	.st16{fill-rule:evenodd;clip-rule:evenodd;fill:#814114;}
	.st17{fill:#2FAC66;}
	.st18{fill:#E4D5B8;}
	.st19{fill:#D5C2A2;}
	.st20{fill:#B780B1;}
	.st21{fill:none;stroke:#85557C;stroke-width:0.569;stroke-linecap:round;}
	.st22{fill:#FFDE00;}
	.st23{fill:#F3A5C2;}
	.st24{fill:none;stroke:#000000;stroke-width:0.432;stroke-linecap:round;}
	.st25{fill-rule:evenodd;clip-rule:evenodd;fill:#FFFFFF;}
	.st26{fill-rule:evenodd;clip-rule:evenodd;}
	.st27{fill:#E30613;}
	.st28{fill:#DAD8CC;}
</style>
<path class="st0" d="M21.4,43.1c-0.2-0.1-0.3-0.2-0.5-0.4c-0.2-0.1-0.2-0.3-0.2-0.5c-0.2-1.8-0.2-3.6,0-5.5c0.2-1.8,0.3-3.7,0.3-5.5
	c0-2.3-0.1-4.5-0.2-6.8c-0.1-2.3-0.2-4.6-0.4-6.8c-0.2-2.3-0.3-4.5-0.4-6.8c-0.1-2.3-0.1-4.5,0-6.7c0-0.2,0.1-0.5,0.2-0.7
	C20.4,3.2,20.6,3,20.8,3c0.4,0,0.8,0,1.3,0.1c0.5,0.1,0.9,0.1,1.3,0.1c0.2,0,0.4,0,0.8,0c0.4,0,0.8,0,1.3,0c0.5,0,0.9,0,1.3-0.1
	c0.4,0,0.7,0,0.8,0c0,0,0.2,0,0.5-0.1c0.3-0.1,0.5-0.1,0.8-0.1c0.3,0,0.6-0.1,0.8-0.1c0.3-0.1,0.4-0.1,0.5-0.1c0.2,0,0.6,0,1.1-0.1
	c0.5,0,1,0,1.5,0c0.5,0.1,1,0.1,1.4,0.2c0.4,0.1,0.6,0.3,0.7,0.7l0.4,4.7c0,0.3-0.1,0.6-0.4,0.8c-0.3,0.2-0.6,0.3-0.8,0.4
	c-0.7,0.1-1.5,0.1-2.3-0.1c-0.7-0.1-1.5-0.2-2.3-0.1c-0.2,0-0.4,0-0.7,0c-0.3,0-0.6,0.1-0.9,0.1c-0.3,0.1-0.6,0.2-0.8,0.3
	c-0.2,0.1-0.3,0.3-0.3,0.6c0.1,1.5,0.1,3.1,0,4.7c-0.1,1.6-0.1,3.2,0.1,4.7c0,0.2,0,0.4,0.1,0.7c0,0.3,0.2,0.5,0.3,0.7
	c0.2,0.1,0.4,0.2,0.7,0.3c0.3,0.1,0.6,0.1,1,0.1c0.3,0,0.7,0,0.9,0c0.3,0,0.5,0,0.7,0c0.2,0,0.4,0,0.8-0.1c0.4,0,0.8-0.1,1.3-0.1
	c0.5-0.1,0.9-0.1,1.3-0.2c0.4,0,0.7-0.1,0.8-0.1c0.1,0,0.2,0.1,0.3,0.2c0.1,0.1,0.1,0.2,0.1,0.3l0.4,3.7c0,0.3-0.1,0.7-0.3,1
	c-0.2,0.3-0.5,0.5-0.8,0.6c-0.8,0.1-1.7,0.1-2.5,0c-0.8-0.1-1.7-0.2-2.5-0.1c-0.5,0.1-0.9,0.2-1.1,0.4c-0.2,0.2-0.4,0.5-0.5,0.8
	c-0.1,0.3-0.1,0.6-0.1,1v1.2c0,0.1,0,0.4-0.1,0.8c0,0.4-0.1,0.9-0.2,1.4c-0.1,0.5-0.1,0.9-0.2,1.4c0,0.4-0.1,0.7-0.1,0.8
	c0.1,0,0.1,0.2,0.1,0.3c0,0.2,0,0.3,0.1,0.4c0,0.2,0,0.5,0.1,0.8c0.1,0.3,0.3,0.5,0.6,0.5h1.3h2h2h1.3c0.6,0,1.2,0.1,1.6,0.2
	c0.5,0.1,0.8,0.5,1,1.2c0,0.1,0,0.3,0.1,0.5c0.1,0.3,0.1,0.6,0.2,0.9c0.1,0.4,0.1,0.7,0.2,1.1c0.1,0.4,0.1,0.6,0.2,0.8v0.3
	c0.1,0.5-0.1,0.8-0.4,0.9c-0.3,0.1-0.7,0.2-1.1,0.2c-1.6,0.2-3.2,0.2-4.7,0.1c-1.6-0.1-3.2-0.2-4.7-0.2c-0.1,0-0.4,0-0.8,0
	c-0.5,0.1-0.7,0.1-0.8,0.1c-0.2,0-0.4,0-0.8,0c-0.4,0-0.8,0.1-1.2,0.1c-0.4,0-0.8,0.1-1.2,0.1C21.8,43.1,21.5,43.1,21.4,43.1z"/>
<path class="st0" d="M46,40c-0.3-2.1-0.3-4.3-0.2-6.5c0.1-2.2,0.1-4.4,0.1-6.5c-0.1-2-0.2-4-0.3-5.9c-0.2-1.9-0.2-3.9-0.2-5.9
	c0-2.2,0-4.2,0-6.1c0-1.9-0.1-3.9-0.4-6c0.1-0.6,0.4-1.1,0.9-1.4c0.5-0.3,1.1-0.5,1.6-0.6c0.6-0.1,1.3-0.1,2,0
	c0.7,0.1,1.3,0.4,1.8,0.8c0,0.1,0,0.2,0,0.5s0,0.4,0,0.4C51.4,4,51.4,5.5,51.2,7c-0.2,1.5-0.3,2.9-0.2,4.2c0,0.2,0,0.7,0.1,1.7
	c0.1,1,0.1,2.1,0.2,3.4c0.1,1.3,0.2,2.6,0.2,3.9s0.1,2.3,0.2,3.1c0.1,1.8,0.2,3.6,0.2,5.3c0,1.7,0.1,3.5,0.3,5.2
	c0.1,0.7,0.4,1.1,0.9,1.2c0.5,0.1,1.1,0.2,1.7,0.1c0.6,0,1.2,0,1.7,0c0.5,0.1,0.8,0.4,0.9,0.9c0,1.2,0,2.2-0.1,2.9
	c-0.1,0.7-0.2,1.4-0.3,2c-0.1,0.6-0.3,0.9-0.6,0.9c0,0-0.1,0.1-0.2,0.1h-0.2c-1.4-0.1-2.9-0.1-4.4-0.2c-1.5-0.1-3-0.2-4.5-0.3
	c-0.5,0-0.8-0.2-0.9-0.4C46.2,40.9,46.1,40.5,46,40z"/>
<path class="st0" d="M88.5,43.1c-0.1-1.1,0-2.1,0.2-3.2c0.2-1.1,0.4-2.1,0.5-3.2c0.1-0.7,0.2-1.5,0.2-2.3c0-0.7,0.1-1.5,0.2-2.3
	c0-0.1-0.1-0.1-0.1-0.2v-0.2l0.6-3.7c-0.2-0.6-0.2-1.2,0-1.8c0.2-0.6,0.4-1.2,0.4-1.7c0-0.4,0.1-1.1,0.2-2.2
	c0.1-1.1,0.3-2.3,0.5-3.7c0.2-1.4,0.4-2.8,0.6-4.3s0.4-2.9,0.6-4.2c0.2-1.3,0.4-2.4,0.6-3.3c0.2-0.9,0.4-1.4,0.6-1.5
	c0.6-0.3,1.2-0.5,1.9-0.6c0.7,0,1.4-0.1,2.1-0.1c0.4-0.1,0.8-0.1,1-0.1s0.7,0,1.2,0.1c0.5,0.3,0.8,0.8,1.1,1.5
	c0.3,2.1,0.7,4.1,1.2,5.9c0.5,1.9,1.1,3.8,1.6,5.8c0,0.1,0.1,0.3,0.2,0.6c0.1,0.4,0.2,0.7,0.3,1.2c0.1,0.4,0.2,0.8,0.3,1.2
	c0.1,0.4,0.2,0.6,0.2,0.6c0.1,0.2,0.2,0.5,0.3,0.9c0.1,0.5,0.2,0.8,0.3,1c0,0.1,0,0.1,0.1,0.1c0,0.1,0.1,0.1,0.1,0.1h0.1
	c0.2,0,0.4-0.5,0.5-1.4c0.1-0.9,0.3-2.2,0.3-3.6c0.1-1.4,0.2-3,0.3-4.6c0.1-1.7,0.2-3.2,0.3-4.6c0.1-1.4,0.3-2.6,0.5-3.6
	c0.2-0.9,0.5-1.5,0.8-1.5l5.9-0.5c0.1,0,0.3,0.1,0.5,0.3c0.2,0.2,0.3,0.3,0.3,0.5l1.1,8.1c0.1,0.3,0.2,0.6,0.3,0.9
	c0.1,0.3,0.2,0.7,0.3,0.9c0,0.4,0.1,1.1,0.2,2c0.1,0.9,0.3,1.9,0.4,3c0.2,1.1,0.3,2.3,0.5,3.5c0.2,1.2,0.3,2.4,0.5,3.5
	c0.2,1.1,0.3,2.1,0.4,3c0.1,0.9,0.2,1.5,0.3,1.9c0,0.4,0.1,1,0.3,1.9c0.2,0.9,0.3,1.9,0.5,2.9c0.2,1,0.4,2,0.5,2.9
	c0.2,0.9,0.3,1.5,0.4,1.9v0.2c0,0.2,0,0.4,0,0.7c-0.1,0.3-0.2,0.5-0.4,0.6l-5.1,0.3l-3.3-24.9l-0.2-1l-3.2,25.8l-3.4,0.3l-6.8-26
	L94,44.6c0,0.3-0.1,0.4,0,0.5c0,0.1-0.1,0.1-0.3,0.1c0,0-0.1,0-0.1,0c0,0,0,0-0.1,0h-0.1c-0.3-0.1-0.7-0.1-1.3-0.1
	c-0.5-0.1-1.1-0.2-1.7-0.3c-0.6-0.2-1.1-0.4-1.5-0.6C88.7,43.9,88.5,43.6,88.5,43.1z"/>
<path class="st0" d="M127.3,40.7c0-0.1,0-0.2,0.1-0.3c0-0.1,0-0.2,0-0.2c0-0.5,0.1-1.1,0.2-1.8c0.1-0.7,0.2-1.3,0.4-1.7
	c0.1-0.3,0.3-0.5,0.6-0.6c0.3-0.1,0.5-0.2,0.8-0.3c0.3-0.1,0.6-0.2,0.8-0.3c0.3-0.1,0.5-0.3,0.6-0.5c0,0,0.1-0.1,0.1-0.2
	c0-0.1,0-0.2,0-0.3c0-0.1,0-0.2,0-0.5c0-0.2,0-0.5,0.1-0.8c0-0.3,0-0.6,0-0.8V32c-0.1-3.1-0.1-6.1-0.1-9.1c0.1-3,0-6-0.2-9
	c0-0.1,0-0.2-0.1-0.5c0-0.2-0.1-0.5-0.1-0.7c0-0.3,0-0.5-0.1-0.7c0-0.2,0-0.4,0-0.5c-0.1-0.3-0.3-0.5-0.5-0.6
	c-0.3-0.1-0.6-0.2-0.9-0.2c-0.3-0.1-0.6-0.2-0.9-0.3c-0.3-0.2-0.4-0.5-0.5-0.9c0-0.1,0-0.1,0-0.1c0,0,0-0.1,0-0.1V8
	c0-0.5,0-1.1,0-1.7c0-0.6,0-1.2,0-1.7V3.3c0.1-0.3,0.2-0.7,0.3-1.1c0.1-0.5,0.3-0.7,0.6-0.8l0.1,0.1h0.1c0.6,0.1,1.4,0.2,2.4,0.1
	c1,0,2.1,0,3.1,0.1c1.1,0.1,2.1,0.2,2.9,0.4c0.9,0.2,1.6,0.6,1.9,1.1c0.2,0.2,0.3,0.6,0.3,1.1s0,0.9,0.1,1.1
	c0.1,1.6,0.1,2.7-0.2,3.4c-0.2,0.6-0.5,1.1-0.7,1.3c-0.3,0.2-0.6,0.4-0.9,0.4c-0.3,0.1-0.5,0.4-0.6,0.9c-0.3,1.6-0.4,3.2-0.5,4.7
	c0,1.6,0,3.2,0,4.7c0.1,1.6,0.1,3.2,0.3,4.7c0.1,1.6,0.2,3.1,0.3,4.7v0.6v1.1c0,0.4,0,0.7,0,1.1c0,0.3,0,0.5,0,0.6V34
	c0,0.5,0.2,0.7,0.5,0.9c0.3,0.2,0.6,0.3,1,0.4c0.4,0.1,0.7,0.3,1.1,0.5c0.3,0.2,0.5,0.6,0.6,1.2c0,0.3,0,0.6,0,1.2
	c0,0.5,0,1-0.1,1.5c-0.1,0.5-0.2,1-0.4,1.4c-0.2,0.4-0.5,0.6-1,0.7c-0.7,0.2-1.6,0.2-2.6,0.1s-1.8-0.1-2.6,0c-0.1,0-0.4,0-0.8,0.1
	c-0.4,0.1-0.9,0.1-1.4,0.2c-0.5,0.1-0.9,0.1-1.4,0.1c-0.4,0.1-0.7,0.1-0.8,0.1c-0.5,0.1-1-0.1-1.5-0.3
	C127.7,41.8,127.4,41.3,127.3,40.7z"/>
<path class="st0" d="M145.5,34.1c0.3-0.7,0.7-1.2,1.4-1.4s1.5-0.3,2.5-0.2c0.9,0.1,2,0.3,3.2,0.5c1.2,0.3,2.4,0.5,3.7,0.7
	c0.5-0.1,1-0.2,1.4-0.4c0.4-0.2,0.8-0.5,1.1-0.9c0.3-0.4,0.7-0.8,0.9-1.2c0.3-0.5,0.6-0.9,0.9-1.4c0-0.1,0.1-0.1,0.1-0.3
	c0-0.1,0.1-0.2,0.1-0.3l-0.2-3.3c-0.1,0-0.3-0.2-0.7-0.6c-0.4-0.3-0.7-0.6-0.9-0.8c-0.1-0.1-0.2-0.2-0.4-0.3
	c-0.2-0.1-0.4-0.2-0.4-0.2c-1.3-0.6-2.5-1-3.7-1.4c-1.2-0.3-2.2-0.7-3.2-1.2s-1.9-1.1-2.7-1.9c-0.8-0.8-1.5-2-2.1-3.5
	c0-0.1,0-0.3,0-0.5c0-0.2-0.1-0.5-0.1-0.7c0-0.3-0.1-0.5-0.1-0.7c0-0.2,0-0.4,0-0.4c0-0.5-0.1-1.1-0.2-1.7c-0.1-0.6,0-1.2,0.2-1.7
	c0.1-0.1,0.2-0.4,0.3-0.8c0.1-0.4,0.3-0.8,0.4-1.2c0.2-0.4,0.3-0.8,0.4-1.2c0.1-0.4,0.2-0.6,0.3-0.8V6.4c0.2-0.3,0.4-0.6,0.6-0.8
	c0.2-0.2,0.4-0.4,0.5-0.6c0.2-0.2,0.3-0.4,0.4-0.5c1.2-1.4,2.5-2.4,3.7-3.2c1.2-0.7,2.7-1.2,4.5-1.4c0.5,0,1.2,0,2.2,0.2
	c0.9,0.2,1.9,0.4,2.8,0.7c0.9,0.3,1.8,0.7,2.5,1.2c0.7,0.5,1.1,1,1.1,1.6c0,0.3,0,0.8-0.1,1.4c-0.1,0.6-0.2,1.1-0.4,1.7
	c-0.2,0.6-0.4,1.1-0.7,1.5c-0.3,0.4-0.6,0.7-1,0.7c-1,0.1-1.9,0.1-2.9,0c-1-0.1-1.9-0.1-2.9,0c-0.2,0-0.6,0.1-1.2,0.1
	c-0.6,0.1-1,0.1-1.2,0.1c-0.1,0.1-0.3,0.2-0.5,0.3c-0.3,0.1-0.5,0.2-0.7,0.4c-0.3,0.2-0.5,0.3-0.6,0.4c-0.2,0.2-0.3,0.3-0.3,0.5
	l0.3,3.4c0,0.2,0.1,0.4,0.4,0.5c0.2,0.2,0.5,0.3,0.8,0.5c0.3,0.2,0.6,0.3,0.9,0.5c0.3,0.1,0.5,0.2,0.6,0.3c1.5,0.7,2.9,1.4,4.1,2
	c1.2,0.6,2.3,1.4,3.2,2.3c0.9,0.9,1.6,1.9,2.2,3.1c0.5,1.2,0.9,2.7,1.1,4.4c0.2,1.5,0.1,3.1-0.3,4.6c-0.4,1.5-0.9,2.8-1.7,4
	c-0.8,1.2-1.8,2.2-3.1,3c-1.2,0.8-2.6,1.3-4.2,1.4c-1.3,0.2-2.7,0.2-4.1,0.1c-1.4-0.1-2.7-0.4-3.8-0.8c-1.2-0.5-2.1-1.1-2.9-2
	C146.1,36.7,145.7,35.6,145.5,34.1z"/>
<path class="st0" d="M177.6,43c0-0.2,0-0.5,0-0.9c-0.1-0.5-0.1-0.8-0.1-0.9c-0.1-1.2-0.1-2.3,0-3.4c0.1-1.1,0.2-2.2,0.4-3.4
	c0-0.1,0-0.2,0-0.3c0-0.1-0.1-0.2-0.1-0.3c0-0.9,0.1-1.9,0.2-2.8c0.1-0.9,0.2-1.8,0.3-2.8c0.1-1.8,0.1-3.5-0.1-5.2
	c-0.1-1.7-0.2-3.4-0.1-5.1c0-0.2,0-0.4,0-0.7c0-0.3,0-0.6,0-0.9c0-0.3,0-0.6,0.1-0.8c0-0.3,0-0.4,0-0.5c0-0.1,0-0.3,0.1-0.5
	s0.1-0.5,0.1-0.8c0-0.3,0.1-0.5,0.1-0.8c0.1-0.3,0.1-0.4,0.1-0.5v-0.1c0-0.3-0.1-0.5-0.3-0.6c-0.2-0.1-0.4-0.2-0.6-0.3
	c-1.1,0.1-2.2,0.1-3.2,0c-1-0.1-2.1-0.1-3.2,0c-0.3-0.1-0.6-0.2-0.8-0.4c0-0.2,0-0.5-0.1-1.1c0-0.5-0.1-0.8-0.1-1
	c0-0.3-0.1-0.9-0.2-1.6c-0.1-0.7-0.2-1.4-0.2-2.2c0-0.7,0.1-1.4,0.2-2s0.5-0.9,0.9-1h0.2l18.8,0.2c0.3,0,0.5,0.1,0.6,0.3
	c0.2,0.2,0.3,0.4,0.4,0.6c0.1,0.2,0.2,0.5,0.2,0.7c0,0.3,0.1,0.4,0.1,0.6c0,0.1,0,0.2,0,0.4c0,0.2,0.1,0.5,0.1,0.8
	c0,0.3,0.1,0.6,0.1,0.9c0,0.3,0.1,0.6,0.1,0.8c0,0.1,0,0.3,0,0.6c0,0.3,0,0.6,0.1,0.9c0,0.3,0,0.6,0.1,0.9c0,0.3,0,0.5,0,0.6
	c0,0.2-0.1,0.4-0.2,0.6c-0.1,0.2-0.3,0.3-0.5,0.3c-0.9,0.2-1.9,0.2-2.8,0.2c-0.9,0-1.9,0.1-2.8,0.2c-0.2,0.1-0.4,0.1-0.5,0
	c-0.2,0-0.3,0.1-0.5,0.3c-0.2,0.3-0.4,0.6-0.4,0.9c-0.1,0.4-0.1,0.8-0.1,1.2c0,0.4,0,0.8,0.1,1.2s0.1,0.7,0.1,1.1
	c-0.2,4.2-0.3,8.4-0.3,12.7c0,4.2,0.3,8.4,0.8,12.5c0,0.3-0.1,0.7-0.2,1.1c-0.1,0.4-0.4,0.7-0.8,0.7h-0.1c-0.1,0-0.2,0-0.5,0
	c-0.2,0-0.5-0.1-0.8-0.1c-0.3-0.1-0.5-0.1-0.8-0.1h-0.4c-0.2-0.1-0.5-0.1-0.9,0c-0.4,0-0.7,0.1-1.1,0.1c-0.4,0-0.7-0.1-1-0.1
	C178,43.4,177.8,43.2,177.6,43z"/>
<path class="st0" d="M197.3,43.1c-0.2-0.1-0.3-0.2-0.5-0.4c-0.2-0.1-0.2-0.3-0.2-0.5c-0.2-1.8-0.2-3.6,0-5.5
	c0.2-1.8,0.3-3.7,0.3-5.5c0-2.3-0.1-4.5-0.2-6.8c-0.1-2.3-0.3-4.5-0.4-6.8c-0.1-2.3-0.3-4.5-0.4-6.8c-0.1-2.3-0.1-4.5,0-6.7
	c0-0.2,0.1-0.5,0.2-0.7c0.1-0.3,0.3-0.4,0.6-0.5c0.4,0,0.8,0,1.3,0.1c0.5,0.1,0.9,0.1,1.3,0.1c0.2,0,0.4,0,0.8,0
	c0.4,0,0.8,0,1.3-0.1c0.5,0,0.9-0.1,1.3-0.1c0.4,0,0.7,0,0.8,0c0,0,0.2,0,0.5-0.1c0.3-0.1,0.5-0.1,0.8-0.1c0.3,0,0.6-0.1,0.8-0.1
	c0.3-0.1,0.4-0.1,0.5-0.1c0.2,0,0.6,0,1.1-0.1c0.5,0,1,0,1.5,0c0.5,0.1,1,0.1,1.4,0.2c0.4,0.1,0.6,0.3,0.7,0.7l0.4,4.7
	c0,0.3-0.1,0.6-0.4,0.8c-0.3,0.2-0.6,0.3-0.8,0.4c-0.7,0.1-1.5,0.1-2.3-0.1c-0.7-0.1-1.5-0.2-2.3-0.1c-0.2,0-0.4,0-0.7,0
	c-0.3,0-0.6,0-0.9,0.1c-0.3,0.1-0.6,0.2-0.8,0.3c-0.2,0.2-0.3,0.4-0.3,0.7c0.1,1.5,0.1,3.1,0,4.7c-0.1,1.6-0.1,3.2,0.1,4.7
	c0,0.2,0,0.4,0.1,0.7c0,0.3,0.2,0.5,0.3,0.7c0.2,0.1,0.4,0.2,0.7,0.3c0.3,0.1,0.6,0.1,1,0.1c0.3,0,0.7,0,0.9,0c0.3,0,0.5,0,0.7,0
	c0.2,0,0.4,0,0.8-0.1c0.4,0,0.8-0.1,1.3-0.1c0.5-0.1,0.9-0.1,1.3-0.2c0.4,0,0.7-0.1,0.8-0.1c0.1,0,0.2,0.1,0.3,0.2
	c0.1,0.1,0.1,0.2,0.1,0.3l0.4,3.6c0,0.3-0.1,0.7-0.3,1c-0.2,0.3-0.5,0.5-0.8,0.6c-0.8,0.1-1.7,0.1-2.5,0c-0.8-0.1-1.7-0.2-2.5-0.1
	c-0.5,0.1-0.9,0.2-1.1,0.4c-0.2,0.2-0.4,0.5-0.5,0.8c-0.1,0.3-0.1,0.6-0.1,1v1.2c0,0.1,0,0.4-0.1,0.8c0,0.4-0.1,0.9-0.2,1.4
	c-0.1,0.5-0.1,0.9-0.1,1.4c0,0.4-0.1,0.7-0.1,0.8c0.1,0,0.1,0.2,0.1,0.3c0,0.2,0,0.3,0.1,0.4c0,0.2,0,0.5,0.1,0.8
	c0.1,0.3,0.3,0.5,0.6,0.5h1.3h2h2h1.3c0.6,0,1.2,0.1,1.6,0.2c0.5,0.1,0.8,0.5,1,1.2c0,0.1,0,0.3,0.1,0.5c0.1,0.3,0.1,0.6,0.2,0.9
	c0.1,0.4,0.1,0.7,0.2,1.1c0.1,0.4,0.1,0.6,0.2,0.8v0.3c0.1,0.5-0.1,0.8-0.4,0.9c-0.3,0.1-0.7,0.2-1.1,0.2c-1.6,0.2-3.2,0.2-4.7,0.1
	c-1.6-0.1-3.2-0.2-4.7-0.2c-0.1,0-0.4,0-0.8,0c-0.5,0.1-0.7,0.1-0.8,0.1c-0.2,0-0.4,0-0.8,0c-0.4,0-0.8,0.1-1.2,0.1
	c-0.4,0-0.8,0.1-1.2,0.1C197.7,43.1,197.4,43.1,197.3,43.1z"/>
<path class="st0" d="M236.3,44.5c-0.7-1-1.3-1.9-1.7-2.7c-0.4-0.8-0.9-1.6-1.4-2.5c-0.1-0.1-0.2-0.3-0.4-0.5
	c-0.2-0.2-0.4-0.4-0.5-0.6c-0.2-0.2-0.3-0.4-0.4-0.6c-0.1-0.2-0.1-0.4-0.1-0.6c-0.5-0.6-0.9-1.3-1.3-2c-0.4-0.7-0.8-1.3-1.3-2h-0.1
	c0,0-0.1,0-0.1-0.1c-0.3-0.1-0.5,0.1-0.4,0.5c0,0.4,0.1,1.1,0.1,2c0,1,0.1,2,0.1,3.1c0.1,1.1,0.1,2.2,0.2,3.2c0.1,1,0.1,1.7,0.1,2.1
	l0.1,0.2c-0.1,0.1-0.2,0.3-0.3,0.4c-0.2,0.2-0.3,0.2-0.3,0.2l-5.7,0.4c-0.3,0-0.6-0.1-0.8-0.4c-0.2-0.3-0.4-0.6-0.4-0.9
	c0-0.1,0-0.1,0-0.1c0,0,0-0.1,0-0.1v-0.2c0-0.1,0-0.1,0.1-0.3c0-0.2,0.1-0.4,0.1-0.5c0-0.2,0.1-0.4,0.1-0.5c0-0.2,0.1-0.2,0.1-0.3
	c0-0.1,0-0.4-0.1-0.8c-0.1-0.4-0.1-0.8-0.2-1.2c0-0.4-0.1-0.8-0.1-1.2c0-0.4-0.1-0.6-0.1-0.7v-1.4c0-0.7,0-1.5,0-2.3
	c0-0.8,0-1.6-0.1-2.3c0-0.7,0-1.2,0-1.4c0-0.2,0-0.5-0.1-1c0-0.5-0.1-1-0.1-1.6c0-0.6-0.1-1.1-0.1-1.6c0-0.5-0.1-0.8-0.1-1
	c0-0.1,0.1-0.2,0.1-0.5V24c0.1-3.3,0.1-6.5,0.1-9.7c-0.1-3.2-0.2-6.4-0.3-9.6c0-0.1,0-0.3,0-0.6c0-0.3-0.1-0.6-0.1-0.9
	c0-0.3-0.1-0.7-0.1-1c0-0.3,0-0.5,0-0.6c0.1-0.2,0.2-0.4,0.3-0.4c0.1,0,0.3-0.1,0.4-0.1c1.5-0.1,3-0.2,4.4-0.2c1.4,0,2.8,0.1,4,0.5
	c1.3,0.3,2.4,0.8,3.4,1.6c1,0.7,1.9,1.8,2.5,3.2c0.5,1,1,1.9,1.5,2.8c0.5,0.9,0.8,1.9,0.8,3c0.2,2.3-0.2,4.4-1.2,6.3
	c-0.9,1.9-2.2,3.7-3.9,5.3c-0.2,0.2-0.2,0.4-0.2,0.6c0.1,0.3,0.2,0.7,0.4,1c0.2,0.3,0.3,0.6,0.2,0.9l2.3,4.6v0.2l2.3,3.7
	c0,0.1,0.2,0.4,0.5,0.9c0.3,0.6,0.7,1.2,1.1,2c0.4,0.7,0.8,1.5,1.1,2.2c0.3,0.7,0.5,1.3,0.6,1.7c0,0.3-0.1,0.7-0.4,1.1
	c-0.3,0.4-0.6,0.8-1.1,1.1c-0.4,0.3-0.8,0.6-1.3,0.9c-0.5,0.3-0.8,0.4-1.2,0.4C237,44.9,236.6,44.8,236.3,44.5z M226.9,17.7
	c0.2,0.2,0.3,0.3,0.4,0.4c0.1,0.1,0.3,0.2,0.5,0.2c0.7-0.1,1.4-0.3,1.8-0.8c0.5-0.5,0.8-1,1.1-1.6c0.3-0.6,0.4-1.3,0.5-1.9
	s0.1-1.3,0.1-1.7c0-0.4-0.1-0.8-0.3-1.4c-0.2-0.5-0.4-1.1-0.6-1.6c-0.3-0.5-0.6-0.9-1-1.2c-0.4-0.3-0.9-0.5-1.4-0.4
	c-0.4,0-0.7,0.3-0.9,0.6c-0.2,0.4-0.4,0.8-0.4,1.3c-0.1,0.5-0.1,1-0.1,1.4v1c0,0.1,0,0.2,0,0.4c0,0.2,0,0.5,0.1,0.8
	c0,0.3,0,0.6,0.1,0.9c0,0.3,0.1,0.6,0.1,0.8c0,0.1,0,0.3,0,0.6c0,0.3,0.1,0.6,0.1,0.9c0,0.3,0,0.6,0.1,0.9
	C226.9,17.4,226.9,17.6,226.9,17.7z"/>
<path class="st0" d="M245.8,40.7c0-0.1,0-0.2,0.1-0.3c0-0.1,0-0.2,0-0.2c0-0.5,0.1-1.1,0.2-1.8c0.1-0.7,0.2-1.3,0.4-1.7
	c0.1-0.3,0.3-0.5,0.6-0.6c0.3-0.1,0.5-0.2,0.8-0.3c0.3-0.1,0.6-0.2,0.8-0.3c0.3-0.1,0.5-0.3,0.6-0.5c0,0,0.1-0.1,0.1-0.2
	c0-0.1,0-0.2,0-0.3c0-0.1,0-0.2,0-0.5c0-0.2,0-0.5,0.1-0.8c0-0.3,0-0.6,0-0.8V32c-0.1-3.1-0.1-6.1-0.1-9.1c0.1-3,0-6-0.2-9
	c0-0.1,0-0.2-0.1-0.5c0-0.2-0.1-0.5-0.1-0.7c0-0.3,0-0.5-0.1-0.7c0-0.2,0-0.4,0-0.5c-0.1-0.3-0.3-0.5-0.5-0.6
	c-0.3-0.1-0.6-0.2-0.9-0.2c-0.3-0.1-0.6-0.2-0.9-0.3c-0.3-0.2-0.4-0.5-0.5-0.9c0-0.1,0-0.1,0-0.1c0,0,0-0.1,0-0.1V8
	c0-0.5,0-1.1,0-1.7s0-1.2,0-1.7V3.3c0.1-0.3,0.2-0.7,0.3-1.1c0.1-0.5,0.3-0.7,0.6-0.8l0.1,0.1h0.1c0.6,0.1,1.4,0.2,2.4,0.1
	c1,0,2.1,0,3.1,0.1c1.1,0.1,2,0.2,2.9,0.4s1.6,0.6,1.9,1.1c0.2,0.2,0.3,0.6,0.3,1.1s0,0.9,0.1,1.1c0.1,1.6,0.1,2.7-0.2,3.4
	c-0.2,0.6-0.5,1.1-0.7,1.3c-0.3,0.2-0.6,0.4-0.9,0.4c-0.3,0.1-0.5,0.4-0.6,0.9c-0.3,1.6-0.4,3.2-0.5,4.7c0,1.6,0,3.2,0,4.7
	c0.1,1.6,0.1,3.2,0.3,4.7c0.1,1.6,0.2,3.1,0.3,4.7v0.6v1.1c0,0.4,0,0.7,0,1.1c0,0.3,0,0.5,0,0.6V34c0,0.5,0.2,0.7,0.5,0.9
	c0.3,0.2,0.6,0.3,1,0.4s0.7,0.3,1.1,0.5c0.3,0.2,0.5,0.6,0.6,1.2c0,0.3,0,0.6,0,1.2c0,0.5,0,1-0.1,1.5c-0.1,0.5-0.2,1-0.4,1.4
	c-0.2,0.4-0.5,0.6-1,0.7c-0.7,0.2-1.6,0.2-2.6,0.1c-0.9-0.1-1.8-0.1-2.6,0c-0.1,0-0.4,0-0.8,0.1c-0.4,0.1-0.9,0.1-1.4,0.2
	c-0.5,0.1-0.9,0.1-1.4,0.1c-0.4,0.1-0.7,0.1-0.8,0.1c-0.5,0.1-1-0.1-1.5-0.3C246.2,41.8,245.9,41.3,245.8,40.7z"/>
<path class="st0" d="M266.5,33.6c0-0.2-0.1-0.4-0.1-0.6c0-0.3,0-0.5-0.1-0.8c0-0.3,0-0.5-0.1-0.7c0-0.2,0-0.4,0-0.4
	c0-0.7-0.1-1.6-0.1-2.8c0-1.2-0.1-2.3-0.1-3.4c0-1.1-0.1-2.1-0.1-3c0-0.9-0.1-1.4-0.1-1.5c0-1.1,0-2.4,0.1-3.7
	c0.1-1.3,0.2-2.7,0.4-4.1c0.2-1.4,0.5-2.7,0.9-4c0.4-1.3,1-2.5,1.7-3.5c0.7-1,1.6-1.8,2.7-2.5c1.1-0.6,2.5-1,4-1.1h1.1
	c1.1,0.2,2.1,0.4,3.1,0.7c1,0.3,1.9,0.7,2.6,1.3c0.8,0.5,1.5,1.2,2.1,1.9s1,1.7,1.3,2.7c0,0.2,0.1,0.5,0.2,1.1
	c0.1,0.6,0.1,1,0.1,1.2c0,0.3,0,0.7,0,1.3c0,0.6,0,0.9,0,1c0,0.4,0,1.2,0,2.5c0,1.3,0.1,2.6,0.1,4.1c0,1.5,0.1,2.9,0.1,4.3
	c0,1.4,0,2.5,0,3.1c0,0.9,0,2,0,3.2c0,1.2,0,2.5-0.1,3.8c-0.1,1.3-0.3,2.6-0.5,3.9c-0.3,1.3-0.6,2.4-1.2,3.4c-0.6,1-1.3,1.8-2.2,2.5
	s-2.1,1-3.4,1.1c-1.2,0.1-2.3,0-3.4-0.2c-1.1-0.2-2.2-0.5-3.3-0.9c-1.1-0.3-2.1-0.9-2.8-1.6c-0.7-0.7-1.3-1.5-1.7-2.5
	c-0.4-0.9-0.7-1.9-0.9-3C266.6,35.6,266.5,34.6,266.5,33.6z M274,33.2c0.1,0.8,0.3,1.5,0.7,2.1c0.4,0.6,1.1,0.9,1.9,0.8
	c0.6,0,1.1-0.2,1.4-0.5c0.3-0.3,0.5-0.7,0.6-1.2s0.2-1,0.2-1.5c0-0.5,0.1-1,0.1-1.5V31c0-0.3,0-0.5,0-0.8c0-0.3,0-0.5,0-0.8V29
	c0.1-1.9,0.2-3.7,0.2-5.3c0-1.6-0.1-3.4-0.2-5.3c0-0.2,0-0.6-0.1-1.1c0-0.5-0.1-1.1-0.1-1.6c0-0.6-0.1-1.1-0.1-1.6
	c0-0.5-0.1-0.9-0.1-1.1c-0.1-0.2-0.2-0.5-0.4-0.9c-0.2-0.4-0.4-0.8-0.7-1.1c-0.3-0.4-0.5-0.7-0.8-0.9c-0.3-0.3-0.6-0.4-0.9-0.4
	c-0.4,0.1-0.7,0.2-1,0.5c-0.3,0.3-0.5,0.7-0.7,1.2c-0.2,0.5-0.3,0.9-0.4,1.4c-0.1,0.5-0.2,0.8-0.2,1.2c0,0.1-0.1,0.3-0.1,0.6
	c0,0.3-0.1,0.6-0.1,1c-0.1,0.4-0.1,0.7-0.2,1.1c-0.1,0.3-0.1,0.5-0.1,0.6v0.8v1.5c0,0.6,0,1.1,0,1.7c0,0.5,0,1,0,1.3v0.5
	c0,0.1,0,0.1,0,0.2c0,0.1,0,0.1,0,0.2v0.2c0,0.4,0.1,1,0.2,2c0.1,0.9,0.2,1.9,0.3,2.9c0.1,1,0.2,2,0.3,2.9
	C273.9,32.2,273.9,32.8,274,33.2z"/>
<path class="st0" d="M319.5,43.6c-0.1,0-0.1-0.2-0.2-0.5c-0.1-0.3-0.1-0.5-0.1-0.5c-0.2-1.4-0.3-2.7-0.1-4c0.2-1.3,0.2-2.7,0.2-4
	c-0.1-1.7-0.3-3.4-0.5-5.1c-0.3-1.7-0.5-3.4-0.6-5.1c-0.1-1.3-0.1-2.6,0-3.8c0-1.2,0.1-2.5,0.1-3.8c0-1.2,0-2.4-0.1-3.6
	c-0.1-1.2-0.2-2.4-0.3-3.6V9.3V8.7V8.1V7.7c-0.1-0.2-0.1-0.5-0.1-0.9c0-0.5-0.1-0.9-0.1-1.4c0-0.5-0.1-1-0.1-1.4
	c0-0.5-0.1-0.8-0.1-0.9c0.1-0.3,0.2-0.5,0.2-0.7c0.1-0.2,0.2-0.3,0.4-0.4c0.1-0.1,0.3-0.1,0.6-0.2c0.4-0.1,0.6-0.1,0.7-0.1
	c2.1-0.3,3.9-0.2,5.6,0.3c1.7,0.5,3.1,1.2,4.3,2.2c1.2,1,2.2,2.3,3,3.7c0.8,1.5,1.3,3.1,1.6,4.9c0.2,1.4,0.3,2.8,0.3,4.2
	s-0.1,2.8-0.2,4.2c0.2,0.7,0.2,1.5,0.1,2.2c-0.1,0.7-0.1,1.5-0.1,2.2c0,1.2,0.1,2.6,0.2,4.2c0.1,1.6,0.1,3.2-0.1,4.8
	c-0.2,1.6-0.6,3.1-1.2,4.5c-0.6,1.4-1.6,2.4-3,3.2c-1.4,0.7-2.8,1.1-4.3,1.4c-1.5,0.2-3,0.4-4.5,0.6c-0.1,0-0.3,0-0.5,0.1
	c-0.3,0-0.5,0.1-0.5,0.1c-0.1-0.1-0.2-0.2-0.3-0.3C319.6,43.9,319.5,43.8,319.5,43.6z M324.8,36.2c0.2,0.3,0.4,0.4,0.7,0.4
	c0.4,0,0.7-0.3,1-0.7c0.3-0.4,0.4-0.9,0.6-1.4c0.1-0.5,0.2-1,0.3-1.5c0.1-0.5,0.1-0.9,0.2-1.2c0-0.3,0.1-0.6,0.1-1.1
	s0.1-0.9,0.1-1.4c0-0.4,0.1-0.8,0.1-1.1c0-0.3,0-0.5,0-0.5l-0.1-0.5c0-2.1,0-4.2,0.1-6.4c0-2.2-0.1-4.4-0.5-6.5
	c-0.2-1.1-0.4-1.9-0.6-2.6c-0.3-0.6-0.8-1.4-1.6-2.2c-0.1-0.2-0.2-0.3-0.3-0.5c-0.1-0.1-0.3-0.2-0.5-0.1c-0.2,0.1-0.3,0.2-0.2,0.5
	c0.1,0.3,0.1,0.4,0.1,0.5c0.1,2.3,0.2,4.6,0.2,6.9c0,2.3,0.1,4.6,0.2,6.9c0,1.9,0,3.8-0.2,5.7c-0.2,1.9-0.1,3.8,0.2,5.7
	c0,0.1,0,0.3,0.1,0.5C324.8,35.9,324.8,36.1,324.8,36.2z"/>
<path class="st0" d="M342.5,43.1c-0.2-0.1-0.3-0.2-0.5-0.4c-0.2-0.1-0.2-0.3-0.2-0.5c-0.2-1.8-0.2-3.6,0-5.5
	c0.2-1.8,0.3-3.7,0.3-5.5c0-2.3-0.1-4.5-0.2-6.8c-0.1-2.3-0.3-4.5-0.4-6.8c-0.1-2.3-0.3-4.5-0.4-6.8c-0.1-2.3-0.1-4.5,0-6.7
	c0-0.2,0.1-0.5,0.2-0.7c0.1-0.3,0.3-0.4,0.6-0.5c0.4,0,0.8,0,1.3,0.1c0.5,0.1,0.9,0.1,1.3,0.1c0.2,0,0.4,0,0.8,0
	c0.4,0,0.8,0,1.3-0.1c0.5,0,0.9-0.1,1.3-0.1c0.4,0,0.7,0,0.8,0c0,0,0.2,0,0.5-0.1c0.3-0.1,0.5-0.1,0.8-0.1c0.3,0,0.6-0.1,0.8-0.1
	c0.3-0.1,0.4-0.1,0.5-0.1c0.2,0,0.6,0,1.1-0.1c0.5,0,1,0,1.5,0c0.5,0.1,1,0.1,1.4,0.2c0.4,0.1,0.6,0.3,0.7,0.7l0.4,4.7
	c0,0.3-0.1,0.6-0.4,0.8c-0.3,0.2-0.6,0.3-0.8,0.4c-0.7,0.1-1.5,0.1-2.3-0.1c-0.7-0.1-1.5-0.2-2.3-0.1c-0.2,0-0.4,0-0.7,0
	c-0.3,0-0.6,0.1-0.9,0.1c-0.3,0.1-0.6,0.2-0.8,0.3c-0.2,0.2-0.3,0.4-0.3,0.7c0.1,1.5,0.1,3.1,0,4.7c-0.1,1.6-0.1,3.2,0.1,4.7
	c0,0.2,0,0.4,0.1,0.7c0,0.3,0.2,0.5,0.3,0.7c0.2,0.1,0.4,0.2,0.7,0.3c0.3,0.1,0.6,0.1,1,0.1c0.3,0,0.7,0,0.9,0c0.3,0,0.5,0,0.7,0
	c0.2,0,0.4,0,0.8-0.1c0.4,0,0.8-0.1,1.3-0.1c0.5-0.1,0.9-0.1,1.3-0.2c0.4,0,0.7-0.1,0.8-0.1c0.1,0,0.2,0.1,0.3,0.2
	c0.1,0.1,0.1,0.2,0.1,0.3l0.4,3.7c0,0.3-0.1,0.7-0.3,1c-0.2,0.3-0.5,0.5-0.8,0.6c-0.8,0.1-1.7,0.1-2.5,0c-0.8-0.1-1.7-0.2-2.5-0.1
	c-0.5,0.1-0.9,0.2-1.1,0.4c-0.2,0.2-0.4,0.5-0.5,0.8c-0.1,0.3-0.1,0.6-0.1,1v1.2c0,0.1,0,0.4-0.1,0.8c0,0.4-0.1,0.9-0.2,1.4
	c-0.1,0.5-0.1,0.9-0.1,1.4c0,0.4-0.1,0.7-0.1,0.8c0.1,0,0.1,0.2,0.1,0.3c0,0.2,0,0.3,0.1,0.4c0,0.2,0,0.5,0.1,0.8
	c0.1,0.3,0.3,0.5,0.6,0.5h1.3h2h2h1.3c0.6,0,1.2,0.1,1.6,0.2c0.5,0.1,0.8,0.5,1,1.2c0,0.1,0,0.3,0.1,0.5c0.1,0.3,0.1,0.6,0.2,0.9
	c0.1,0.4,0.1,0.7,0.2,1.1c0.1,0.4,0.1,0.6,0.2,0.8v0.3c0.1,0.5-0.1,0.8-0.4,0.9c-0.3,0.1-0.7,0.2-1.1,0.2c-1.6,0.2-3.2,0.2-4.7,0.1
	c-1.6-0.1-3.2-0.2-4.7-0.2c-0.1,0-0.4,0-0.8,0c-0.5,0.1-0.7,0.1-0.8,0.1c-0.2,0-0.4,0-0.8,0c-0.4,0-0.8,0.1-1.2,0.1
	c-0.4,0-0.8,0.1-1.2,0.1C342.9,43.1,342.6,43.1,342.5,43.1z"/>
<path class="st0" d="M391.2,40c-0.3-2.1-0.3-4.3-0.2-6.5s0.1-4.4,0.1-6.5c-0.1-2-0.2-4-0.3-5.9s-0.2-3.9-0.2-5.9c0-2.2,0-4.2,0-6.1
	c0-1.9-0.1-3.9-0.4-6c0.1-0.6,0.4-1.1,0.9-1.4c0.5-0.3,1.1-0.5,1.6-0.6c0.6-0.1,1.3-0.1,2,0c0.7,0.1,1.3,0.4,1.8,0.8
	c0,0.1,0,0.2,0,0.5s0,0.4,0,0.4c0.2,1.3,0.1,2.7-0.1,4.3c-0.2,1.5-0.3,2.9-0.2,4.2c0,0.2,0,0.7,0.1,1.7c0.1,1,0.1,2.1,0.2,3.4
	s0.2,2.6,0.2,3.9c0.1,1.3,0.1,2.3,0.2,3.1c0.1,1.8,0.2,3.6,0.2,5.3c0,1.7,0.1,3.5,0.3,5.2c0.1,0.7,0.4,1.1,0.9,1.2
	c0.5,0.1,1.1,0.2,1.7,0.1c0.6,0,1.2,0,1.7,0c0.5,0.1,0.8,0.4,0.9,0.9c0,1.2,0,2.2-0.1,2.9c-0.1,0.7-0.2,1.4-0.3,2
	c-0.1,0.6-0.3,0.9-0.6,0.9c0,0-0.1,0.1-0.2,0.1h-0.2c-1.4-0.1-2.9-0.1-4.4-0.2c-1.5-0.1-3-0.2-4.5-0.3c-0.5,0-0.8-0.2-0.9-0.4
	C391.4,40.9,391.3,40.5,391.2,40z"/>
<path class="st0" d="M425.5,42.8c-0.2-0.1-0.4-0.2-0.6-0.4c-0.2-0.2-0.3-0.3-0.3-0.5l-1.4-11.9c0-0.2-0.1-0.3-0.2-0.4
	c-0.1-0.1-0.3-0.2-0.4-0.1l-6.5,0.6l1.1,9.9c0.1,0.6,0.3,1.2,0.5,1.7c0.3,0.5,0.4,1.1,0.5,1.6c0,0.2,0,0.4-0.1,0.4
	c-0.1,0.1-0.3,0.1-0.5,0.1c-0.1,0-0.2,0-0.3,0c-0.1,0-0.2,0-0.3,0h-0.7c-0.3,0-0.6,0-1,0c-0.3,0-0.6,0-0.9,0.1c-0.3,0-0.5,0-0.5,0
	c-0.7,0-1.2-0.1-1.6-0.2c-0.4-0.2-0.7-0.4-0.9-0.7c-0.2-0.3-0.4-0.7-0.5-1.1c-0.1-0.4-0.2-0.9-0.3-1.5c-0.2-2.1-0.3-4.1-0.5-6.2
	c-0.1-2.1-0.2-4.1-0.3-6.2c0,0,0-0.2,0-0.6s-0.1-0.8-0.1-1.3c0-0.5-0.1-1-0.1-1.4c0-0.5-0.1-0.8-0.1-1.1c-0.1-1.4,0-2.7,0.2-3.9
	c0.2-1.2,0.4-2.5,0.7-3.9c-0.2-0.6-0.2-1.3,0.1-2c0.3-0.7,0.6-1.4,0.8-1.9c0.1-0.3,0.1-0.6,0.1-0.8c0-0.3,0.1-0.6,0.2-0.9
	c0,0,0-0.1,0.1-0.2c0-0.1,0.1-0.1,0.1-0.1c0.4-0.7,0.8-1.5,1.1-2.3c0.3-0.8,0.7-1.5,1.3-2.3c0.3-0.5,0.7-0.9,1.2-1.4
	c0.5-0.5,1-0.9,1.6-1.3c0.6-0.4,1.2-0.7,1.8-1c0.6-0.3,1.2-0.4,1.8-0.5c1.7-0.2,3,0.1,3.9,0.7c0.9,0.6,1.7,1.4,2.2,2.4
	c0.5,1,1,2.1,1.3,3.2c0.3,1.2,0.6,2.3,1,3.3c0,0.1,0,0.3,0.1,0.6c0.1,0.3,0.1,0.6,0.1,0.9c0.1,0.3,0.1,0.6,0.2,0.9
	c0.1,0.3,0.1,0.5,0.1,0.6c0.3,2.5,0.4,5,0.5,7.5c0.1,2.5,0.1,5,0.3,7.5c0,0.6-0.1,1.3-0.2,2c-0.1,0.7-0.1,1.3-0.1,2
	c0,0.1,0,0.3,0.1,0.6c0,0.3,0.1,0.7,0.1,1.1c0,0.4,0.1,0.7,0.2,1.1c0.1,0.3,0.1,0.5,0.1,0.6v1.8c0,0.1,0,0.3,0,0.6
	c0,0.3,0,0.7,0.1,1.1c0,0.4,0,0.7,0.1,1.1c0,0.3,0,0.5,0,0.6c0,0.2,0,0.6-0.1,1c-0.1,0.5-0.3,0.7-0.7,0.8h-0.1c0,0-0.2,0-0.4-0.1
	c-0.2,0-0.3-0.1-0.4-0.1c-0.1,0-0.3,0-0.7,0c-0.3,0-0.7,0-1.1,0c-0.4,0-0.7,0-1,0C425.9,42.8,425.6,42.8,425.5,42.8z M416.3,22.5
	c0,0.5,0.3,0.8,0.8,1c0.5,0.2,1.1,0.3,1.7,0.4c0.6,0.1,1.3,0.1,1.9,0.1c0.6,0,1.1-0.1,1.5-0.1c0.1,0,0.2,0,0.5,0c0.2,0,0.4,0,0.5,0
	c0.1-0.1,0.1-0.2,0.2-0.3c0-0.1,0.1-0.2,0.1-0.3c0-0.2,0-0.6-0.1-1.1c-0.1-0.5-0.1-1.1-0.1-1.7c0-0.6,0-1.2-0.1-1.7
	c0-0.5,0-0.9,0-1.1c0-0.1,0.1-0.3,0.1-0.5v-0.6l-0.6-5.5c0-0.3-0.1-0.6-0.3-0.9c-0.2-0.3-0.3-0.6-0.6-0.9c-0.2-0.3-0.5-0.5-0.8-0.7
	c-0.3-0.2-0.6-0.2-1-0.2c-0.3,0.1-0.6,0.1-0.8,0.3c-1.2,1.3-2,2.6-2.3,4c-0.3,1.4-0.5,2.9-0.5,4.6c0,0.9,0,1.8-0.1,2.6
	C416.2,20.7,416.2,21.6,416.3,22.5z"/>
<path class="st0" d="M434.3,34.1c0.3-0.7,0.7-1.2,1.4-1.4c0.7-0.2,1.5-0.3,2.5-0.2c0.9,0.1,2,0.3,3.2,0.5c1.2,0.3,2.4,0.5,3.7,0.7
	c0.5-0.1,1-0.2,1.4-0.4c0.4-0.2,0.8-0.5,1.1-0.9c0.3-0.4,0.7-0.8,0.9-1.2c0.3-0.5,0.6-0.9,0.9-1.4c0-0.1,0.1-0.1,0.1-0.3
	c0-0.1,0.1-0.2,0.1-0.3l-0.2-3.3c-0.1,0-0.3-0.2-0.7-0.6c-0.4-0.3-0.7-0.6-0.9-0.8c-0.1-0.1-0.2-0.2-0.4-0.3
	c-0.2-0.1-0.4-0.2-0.4-0.2c-1.3-0.6-2.5-1-3.7-1.4c-1.2-0.3-2.2-0.7-3.2-1.2s-1.9-1.1-2.7-1.9c-0.8-0.8-1.5-2-2.1-3.5
	c0-0.1,0-0.3,0-0.5c0-0.2-0.1-0.5-0.1-0.7c0-0.3-0.1-0.5-0.1-0.7c0-0.2,0-0.4,0-0.4c0-0.5-0.1-1.1-0.2-1.7c-0.1-0.6,0-1.2,0.2-1.7
	c0-0.2,0.1-0.4,0.2-0.8c0.1-0.4,0.3-0.8,0.4-1.2c0.2-0.4,0.3-0.8,0.4-1.2c0.1-0.4,0.2-0.6,0.3-0.8V6.4c0.2-0.3,0.4-0.6,0.6-0.8
	c0.2-0.2,0.4-0.4,0.5-0.6c0.2-0.2,0.3-0.4,0.4-0.5c1.2-1.4,2.5-2.4,3.7-3.2c1.2-0.7,2.7-1.2,4.5-1.4c0.5,0,1.2,0,2.2,0.2
	c0.9,0.2,1.9,0.4,2.8,0.7c0.9,0.3,1.8,0.7,2.5,1.2c0.7,0.5,1.1,1,1.1,1.6c0,0.3,0,0.8-0.1,1.4c-0.1,0.6-0.2,1.1-0.4,1.7
	c-0.2,0.6-0.4,1.1-0.7,1.5c-0.3,0.4-0.6,0.7-1,0.7c-1,0.1-1.9,0.1-2.9,0c-1-0.1-1.9-0.1-2.9,0c-0.2,0-0.6,0.1-1.2,0.1
	c-0.6,0.1-1,0.1-1.2,0.1c-0.1,0.1-0.3,0.2-0.5,0.3c-0.3,0.1-0.5,0.2-0.7,0.4c-0.3,0.2-0.5,0.3-0.6,0.4c-0.2,0.2-0.3,0.3-0.3,0.5
	l0.3,3.4c0,0.2,0.1,0.4,0.4,0.5c0.2,0.2,0.5,0.3,0.8,0.5c0.3,0.2,0.6,0.3,0.9,0.5c0.3,0.1,0.5,0.2,0.6,0.3c1.5,0.7,2.9,1.4,4.1,2
	c1.2,0.6,2.3,1.4,3.2,2.3c0.9,0.9,1.6,1.9,2.2,3.1c0.5,1.2,0.9,2.7,1.1,4.4c0.2,1.5,0.1,3.1-0.3,4.6c-0.4,1.5-0.9,2.8-1.7,4
	c-0.8,1.2-1.8,2.2-3.1,3c-1.2,0.8-2.6,1.3-4.2,1.4c-1.3,0.2-2.7,0.2-4.1,0.1c-1.4-0.1-2.7-0.4-3.8-0.8c-1.2-0.5-2.1-1.1-2.9-2
	C434.9,36.7,434.4,35.6,434.3,34.1z"/>
<path class="st0" d="M487.1,42.2c-0.3-2.4-0.5-4.9-0.5-7.3c0-2.4,0-4.8,0-7.2c-0.1-4.3-0.2-8.5-0.4-12.8c-0.2-4.2-0.5-8.5-0.9-12.8
	c0.1-0.2,0.2-0.4,0.4-0.6c0.2-0.2,0.4-0.3,0.7-0.4h0.2c2.6,0.1,4.9,0.3,7.1,0.5c2.2,0.3,4,0.8,5.6,1.7c1.6,0.8,2.9,2,3.9,3.5
	c1,1.5,1.7,3.5,2.1,5.9c0.2,1.1,0.2,2.4,0,3.7c-0.2,1.3-0.5,2.6-1.1,3.8c-0.6,1.2-1.4,2.2-2.4,3.1c-1,0.9-2.3,1.4-3.9,1.5
	c-0.7,0.1-1.5,0.1-2.2-0.1c-0.7-0.1-1.4-0.2-2.2-0.3c-0.3,0.1-0.5,0.3-0.6,0.4c-0.1,0.2-0.2,0.4-0.2,0.7c0,0.2,0,0.5,0,1
	c0,0.5,0,1,0.1,1.5c0,0.5,0,1,0.1,1.5c0,0.5,0.1,0.8,0.1,1c0,0.1,0,0.3,0,0.6c0,0.3,0.1,0.5,0.1,0.6l0.1,10.3
	c-0.1,0.2-0.2,0.5-0.2,0.8c-0.1,0.3-0.2,0.5-0.5,0.6c-0.2,0-0.5,0-0.9,0.1c-0.5,0-0.8,0.1-0.9,0.1c-0.5,0.1-0.9,0.1-1.4,0.1
	c-0.4,0-0.8,0-1.1-0.1c-0.3-0.1-0.6-0.3-0.8-0.5C487.4,43.1,487.2,42.7,487.1,42.2z M494.2,15.7c0.1,0.5,0.2,0.9,0.5,1.2
	c0.2,0.3,0.7,0.4,1.4,0.3c0.5,0,0.9-0.2,1.2-0.6c0.3-0.3,0.5-0.7,0.6-1.2c0.2-0.5,0.2-0.9,0.2-1.4c0-0.5,0-0.9-0.1-1.2
	c0-0.3-0.1-0.7-0.3-1.4c-0.2-0.7-0.4-1.4-0.7-2c-0.3-0.7-0.6-1.3-1.1-1.7s-0.9-0.7-1.4-0.6c-0.2,0-0.3,0.2-0.3,0.6
	c-0.1,0.4-0.1,0.9-0.2,1.5s0,1.3,0,2c0,0.7,0,1.4,0,2s0.1,1.2,0.1,1.6C494.2,15.4,494.2,15.7,494.2,15.7z"/>
<path class="st0" d="M512.7,43.1c-0.2-0.1-0.3-0.2-0.5-0.4c-0.2-0.1-0.2-0.3-0.2-0.5c-0.2-1.8-0.2-3.6,0-5.5
	c0.2-1.8,0.3-3.7,0.3-5.5c0-2.3-0.1-4.5-0.2-6.8s-0.3-4.5-0.4-6.8c-0.1-2.3-0.3-4.5-0.4-6.8c-0.1-2.3-0.1-4.5,0-6.7
	c0-0.2,0.1-0.5,0.2-0.7c0.1-0.3,0.3-0.4,0.6-0.5c0.4,0,0.8,0,1.3,0.1c0.5,0.1,0.9,0.1,1.3,0.1c0.2,0,0.4,0,0.8,0
	c0.4,0,0.8,0,1.3-0.1c0.5,0,0.9-0.1,1.3-0.1c0.4,0,0.7,0,0.8,0c0,0,0.2,0,0.5-0.1c0.3-0.1,0.5-0.1,0.8-0.1c0.3,0,0.6-0.1,0.8-0.1
	c0.3-0.1,0.4-0.1,0.5-0.1c0.2,0,0.6,0,1.1-0.1c0.5,0,1,0,1.5,0c0.5,0.1,1,0.1,1.4,0.2c0.4,0.1,0.6,0.3,0.7,0.7l0.4,4.7
	c0,0.3-0.1,0.6-0.4,0.8c-0.3,0.2-0.6,0.3-0.8,0.4c-0.7,0.1-1.5,0.1-2.3-0.1c-0.7-0.1-1.5-0.2-2.3-0.1c-0.2,0-0.4,0-0.7,0
	c-0.3,0-0.6,0.1-0.9,0.1c-0.3,0.1-0.6,0.2-0.8,0.3c-0.2,0.2-0.3,0.4-0.3,0.7c0.1,1.5,0.1,3.1,0,4.7c-0.1,1.6-0.1,3.2,0.1,4.7
	c0,0.2,0,0.4,0.1,0.7c0,0.3,0.2,0.5,0.3,0.7c0.2,0.1,0.4,0.2,0.7,0.3c0.3,0.1,0.6,0.1,1,0.1c0.3,0,0.7,0,0.9,0c0.3,0,0.5,0,0.7,0
	s0.4,0,0.8-0.1c0.4,0,0.8-0.1,1.3-0.1c0.5-0.1,0.9-0.1,1.3-0.2c0.4,0,0.7-0.1,0.8-0.1c0.1,0,0.2,0.1,0.3,0.2
	c0.1,0.1,0.1,0.2,0.1,0.3l0.4,3.7c0.1,0.3-0.1,0.7-0.3,1c-0.2,0.3-0.5,0.5-0.8,0.6c-0.8,0.1-1.7,0.1-2.5,0c-0.8-0.1-1.7-0.2-2.5-0.1
	c-0.5,0.1-0.9,0.2-1.1,0.4c-0.2,0.2-0.4,0.5-0.5,0.8c-0.1,0.3-0.1,0.6-0.1,1v1.2c0,0.1,0,0.4-0.1,0.8c-0.1,0.4-0.1,0.9-0.2,1.4
	c-0.1,0.5-0.1,0.9-0.1,1.4c0,0.4-0.1,0.7-0.1,0.8c0.1,0,0.1,0.2,0.1,0.3c0,0.2,0,0.3,0.1,0.4c0,0.2,0.1,0.5,0.1,0.8
	c0.1,0.3,0.3,0.5,0.6,0.5h1.3h2h2h1.3c0.6,0,1.2,0.1,1.6,0.2c0.5,0.1,0.8,0.5,1,1.2c0,0.1,0,0.3,0.1,0.5c0.1,0.3,0.1,0.6,0.2,0.9
	c0.1,0.4,0.1,0.7,0.2,1.1c0.1,0.4,0.1,0.6,0.2,0.8v0.3c0.1,0.5-0.1,0.8-0.4,0.9c-0.3,0.1-0.7,0.2-1.1,0.2c-1.6,0.2-3.2,0.2-4.7,0.1
	c-1.6-0.1-3.2-0.2-4.7-0.2c-0.1,0-0.4,0-0.8,0c-0.5,0.1-0.7,0.1-0.8,0.1c-0.2,0-0.4,0-0.8,0c-0.4,0-0.8,0.1-1.2,0.1
	c-0.4,0-0.8,0.1-1.2,0.1C513.1,43.1,512.8,43.1,512.7,43.1z"/>
<path class="st0" d="M551.7,44.5c-0.7-1-1.3-1.9-1.7-2.7c-0.4-0.8-0.9-1.6-1.4-2.5c-0.1-0.1-0.2-0.3-0.4-0.5
	c-0.2-0.2-0.4-0.4-0.5-0.6c-0.2-0.2-0.3-0.4-0.4-0.6c-0.1-0.2-0.1-0.4-0.1-0.6c-0.5-0.6-0.9-1.3-1.3-2c-0.4-0.7-0.8-1.3-1.3-2h-0.1
	c0,0-0.1,0-0.1-0.1c-0.3-0.1-0.5,0.1-0.4,0.5c0,0.4,0.1,1.1,0.1,2c0,1,0.1,2,0.1,3.1c0.1,1.1,0.1,2.2,0.2,3.2c0.1,1,0.1,1.7,0.1,2.1
	l0.1,0.2c-0.1,0.1-0.2,0.3-0.3,0.4c-0.2,0.2-0.3,0.2-0.3,0.2l-5.7,0.4c-0.3,0-0.6-0.1-0.8-0.4c-0.2-0.3-0.4-0.6-0.4-0.9
	c0-0.1,0-0.1,0-0.1c0,0,0-0.1,0-0.1v-0.2c0-0.1,0-0.1,0.1-0.3c0-0.2,0.1-0.4,0.1-0.5c0-0.2,0.1-0.4,0.1-0.5c0-0.2,0.1-0.2,0.1-0.3
	c0-0.1,0-0.4-0.1-0.8c-0.1-0.4-0.1-0.8-0.1-1.2c-0.1-0.4-0.1-0.8-0.1-1.2c0-0.4-0.1-0.6-0.1-0.7v-1.4c0-0.7,0-1.5,0-2.3
	c0-0.8,0-1.6-0.1-2.3c0-0.7,0-1.2,0-1.4c0-0.2,0-0.5-0.1-1c0-0.5-0.1-1-0.1-1.6c-0.1-0.6-0.1-1.1-0.1-1.6c-0.1-0.5-0.1-0.8-0.1-1
	c0.1-0.1,0.1-0.2,0.1-0.5V24c0.1-3.3,0.1-6.5,0.1-9.7c-0.1-3.2-0.2-6.4-0.3-9.6c0-0.1,0-0.3,0-0.6c0-0.3-0.1-0.6-0.1-0.9
	c-0.1-0.3-0.1-0.7-0.1-1c0-0.3,0-0.5,0-0.6c0.1-0.2,0.2-0.4,0.3-0.4c0.1,0,0.3-0.1,0.4-0.1c1.5-0.1,3-0.2,4.4-0.2
	c1.4,0,2.8,0.1,4,0.5c1.3,0.3,2.4,0.8,3.4,1.6c1,0.7,1.9,1.8,2.5,3.2c0.5,1,1,1.9,1.5,2.8c0.5,0.9,0.8,1.9,0.8,3
	c0.2,2.3-0.2,4.4-1.2,6.3c-0.9,1.9-2.2,3.7-3.9,5.3c-0.2,0.2-0.2,0.4-0.2,0.6c0.1,0.3,0.2,0.7,0.4,1c0.2,0.3,0.3,0.6,0.2,0.9
	l2.3,4.6v0.2l2.3,3.7c0,0.1,0.2,0.4,0.5,0.9c0.3,0.6,0.7,1.2,1.1,2c0.4,0.7,0.8,1.5,1.1,2.2c0.3,0.7,0.5,1.3,0.6,1.7
	c0,0.3-0.1,0.7-0.4,1.1c-0.3,0.4-0.6,0.8-1.1,1.1c-0.4,0.3-0.8,0.6-1.3,0.9c-0.5,0.3-0.8,0.4-1.2,0.4
	C552.4,44.9,552,44.8,551.7,44.5z M542.3,17.7c0.2,0.2,0.3,0.3,0.4,0.4c0.1,0.1,0.3,0.2,0.5,0.2c0.7-0.1,1.4-0.4,1.8-0.8
	c0.5-0.5,0.8-1,1.1-1.6c0.3-0.6,0.4-1.3,0.5-1.9c0.1-0.7,0.1-1.3,0.1-1.7c0-0.4-0.1-0.8-0.3-1.4s-0.4-1.1-0.6-1.6
	c-0.3-0.5-0.6-0.9-1-1.2c-0.4-0.3-0.9-0.5-1.4-0.4c-0.4,0-0.7,0.3-0.9,0.6C542.2,8.5,542,9,542,9.5c-0.1,0.5-0.1,1-0.1,1.4v1
	c0,0.1,0,0.2,0,0.4c0,0.2,0,0.5,0.1,0.8c0,0.3,0,0.6,0.1,0.9c0,0.3,0.1,0.6,0.1,0.8c0,0.1,0,0.3,0,0.6c0,0.3,0.1,0.6,0.1,0.9
	c0,0.3,0,0.6,0.1,0.9C542.2,17.4,542.3,17.6,542.3,17.7z"/>
<path class="st0" d="M562.3,40c-0.3-2.1-0.3-4.3-0.2-6.5c0.1-2.2,0.1-4.4,0.1-6.5c-0.1-2-0.2-4-0.3-5.9c-0.2-1.9-0.2-3.9-0.2-5.9
	c0-2.2,0-4.2,0-6.1c0-1.9-0.1-3.9-0.4-6c0.1-0.6,0.4-1.1,0.9-1.4c0.5-0.3,1.1-0.5,1.6-0.6c0.6-0.1,1.3-0.1,2,0
	c0.7,0.1,1.3,0.4,1.8,0.8c0,0.1,0,0.2,0,0.5c0,0.2,0,0.4,0,0.4c0.2,1.3,0.1,2.7-0.1,4.3c-0.2,1.5-0.3,2.9-0.2,4.2
	c0,0.2,0,0.7,0.1,1.7c0.1,1,0.1,2.1,0.2,3.4c0.1,1.3,0.2,2.6,0.2,3.9c0.1,1.3,0.1,2.3,0.2,3.1c0.1,1.8,0.2,3.6,0.2,5.3
	c0,1.7,0.1,3.5,0.3,5.2c0.1,0.7,0.4,1.1,0.9,1.2c0.5,0.1,1.1,0.2,1.7,0.1c0.6,0,1.2,0,1.7,0c0.5,0.1,0.8,0.4,0.9,0.9
	c0,1.2,0,2.2-0.1,2.9c-0.1,0.7-0.1,1.4-0.3,2c-0.1,0.6-0.3,0.9-0.6,0.9c0,0-0.1,0.1-0.2,0.1h-0.2c-1.4-0.1-2.9-0.1-4.4-0.2
	c-1.5-0.1-3-0.2-4.5-0.3c-0.5,0-0.8-0.2-0.9-0.4C562.5,40.9,562.4,40.5,562.3,40z"/>
<path class="st0" d="M596.6,42.8c-0.2-0.1-0.4-0.2-0.6-0.4c-0.2-0.2-0.3-0.3-0.3-0.5l-1.4-11.9c0-0.2-0.1-0.3-0.2-0.4
	c-0.1-0.1-0.3-0.2-0.4-0.1l-6.5,0.6l1.1,9.9c0.1,0.6,0.3,1.2,0.5,1.7c0.3,0.5,0.4,1.1,0.5,1.6c0,0.2,0,0.4-0.1,0.4
	c-0.1,0.1-0.3,0.1-0.5,0.1c-0.1,0-0.2,0-0.3,0s-0.2,0-0.3,0h-0.7c-0.3,0-0.6,0-1,0c-0.3,0-0.6,0-0.9,0.1c-0.3,0-0.5,0-0.5,0
	c-0.7,0-1.2-0.1-1.6-0.2c-0.4-0.2-0.7-0.4-0.9-0.7c-0.2-0.3-0.4-0.7-0.5-1.1c-0.1-0.4-0.2-0.9-0.3-1.5c-0.2-2.1-0.3-4.1-0.5-6.2
	c-0.1-2.1-0.2-4.1-0.3-6.2c0,0,0-0.2,0-0.6c0-0.4-0.1-0.8-0.1-1.3c0-0.5-0.1-1-0.1-1.4c-0.1-0.5-0.1-0.8-0.1-1.1
	c-0.1-1.4,0-2.7,0.2-3.9s0.4-2.5,0.7-3.9c-0.2-0.6-0.2-1.3,0.1-2c0.3-0.7,0.6-1.4,0.8-1.9c0.1-0.3,0.1-0.6,0.1-0.8
	c0-0.3,0.1-0.6,0.2-0.9c0,0,0-0.1,0.1-0.2c0-0.1,0.1-0.1,0.1-0.1c0.4-0.7,0.8-1.5,1.1-2.3c0.3-0.8,0.7-1.5,1.2-2.3
	c0.3-0.5,0.7-0.9,1.2-1.4c0.5-0.5,1-0.9,1.6-1.3c0.6-0.4,1.2-0.7,1.8-1c0.6-0.3,1.2-0.4,1.8-0.5c1.7-0.2,3,0.1,3.9,0.7
	c0.9,0.6,1.7,1.4,2.2,2.4c0.5,1,1,2.1,1.3,3.2c0.3,1.2,0.6,2.3,1,3.3c0,0.1,0,0.3,0.1,0.6c0.1,0.3,0.1,0.6,0.1,0.9
	c0.1,0.3,0.1,0.6,0.2,0.9c0.1,0.3,0.1,0.5,0.1,0.6c0.3,2.5,0.4,5,0.5,7.5c0.1,2.5,0.1,5,0.3,7.5c0,0.6-0.1,1.3-0.2,2
	c-0.1,0.7-0.1,1.3-0.1,2c0,0.1,0,0.3,0.1,0.6c0,0.3,0.1,0.7,0.1,1.1c0,0.4,0.1,0.7,0.1,1.1c0.1,0.3,0.1,0.5,0.1,0.6v1.8
	c0,0.1,0,0.3,0,0.6c0,0.3,0,0.7,0.1,1.1s0,0.7,0.1,1.1c0,0.3,0,0.5,0,0.6c0,0.2,0,0.6-0.1,1c-0.1,0.5-0.3,0.7-0.7,0.8h-0.1
	c-0.1,0-0.2,0-0.4-0.1c-0.2,0-0.3-0.1-0.4-0.1c-0.1,0-0.3,0-0.7,0c-0.3,0-0.7,0-1.1,0s-0.7,0-1,0C596.9,42.8,596.7,42.8,596.6,42.8z
	 M587.3,22.5c0,0.5,0.3,0.8,0.8,1c0.5,0.2,1.1,0.3,1.7,0.4c0.6,0.1,1.3,0.1,1.9,0.1c0.6,0,1.1-0.1,1.5-0.1c0.1,0,0.2,0,0.5,0
	c0.2,0,0.4,0,0.5,0c0.1-0.1,0.1-0.2,0.2-0.3c0-0.1,0.1-0.2,0.1-0.3c0-0.2,0-0.6-0.1-1.1c-0.1-0.5-0.1-1.1-0.1-1.7
	c0-0.6,0-1.2-0.1-1.7c0-0.5,0-0.9,0-1.1c0-0.1,0.1-0.3,0.1-0.5v-0.6l-0.6-5.5c-0.1-0.3-0.1-0.6-0.3-0.9c-0.2-0.3-0.3-0.6-0.6-0.9
	c-0.2-0.3-0.5-0.5-0.8-0.7c-0.3-0.2-0.6-0.2-1-0.2c-0.3,0.1-0.6,0.1-0.8,0.3c-1.2,1.3-2,2.6-2.3,4c-0.3,1.4-0.5,2.9-0.5,4.6
	c0,0.9,0,1.8-0.1,2.6C587.2,20.7,587.3,21.6,587.3,22.5z"/>
<path class="st0" d="M605.4,34.1c0.3-0.7,0.7-1.2,1.4-1.4c0.7-0.2,1.5-0.3,2.5-0.2c0.9,0.1,2,0.3,3.2,0.5c1.2,0.3,2.4,0.5,3.7,0.7
	c0.5-0.1,1-0.2,1.4-0.4c0.4-0.2,0.8-0.5,1.1-0.9c0.3-0.4,0.7-0.8,0.9-1.2c0.3-0.5,0.6-0.9,0.9-1.4c0-0.1,0.1-0.1,0.1-0.3
	c0.1-0.1,0.1-0.2,0.1-0.3l-0.2-3.3c-0.1,0-0.3-0.2-0.7-0.6c-0.4-0.3-0.7-0.6-0.9-0.8c-0.1-0.1-0.2-0.2-0.4-0.3
	c-0.2-0.1-0.4-0.2-0.4-0.2c-1.3-0.6-2.5-1-3.7-1.4s-2.2-0.7-3.2-1.2c-1-0.5-1.9-1.1-2.7-1.9c-0.8-0.8-1.5-2-2.1-3.5
	c0-0.1,0-0.3,0-0.5c0-0.2-0.1-0.5-0.1-0.7c-0.1-0.3-0.1-0.5-0.1-0.7c0-0.2,0-0.4,0-0.4c0-0.5-0.1-1.1-0.2-1.7
	c-0.1-0.6,0-1.2,0.2-1.7c0-0.2,0.1-0.4,0.2-0.8c0.1-0.4,0.3-0.8,0.4-1.2c0.2-0.4,0.3-0.8,0.4-1.2c0.1-0.4,0.2-0.6,0.3-0.8V6.4
	c0.2-0.3,0.4-0.6,0.6-0.8c0.2-0.2,0.4-0.4,0.5-0.6c0.2-0.2,0.3-0.4,0.4-0.5c1.2-1.4,2.5-2.4,3.7-3.2c1.2-0.7,2.7-1.2,4.5-1.4
	c0.5,0,1.2,0,2.2,0.2c0.9,0.2,1.9,0.4,2.8,0.7c0.9,0.3,1.8,0.7,2.5,1.2s1.1,1,1.1,1.6c0,0.3,0,0.8-0.1,1.4c-0.1,0.6-0.2,1.1-0.4,1.7
	c-0.2,0.6-0.4,1.1-0.7,1.5c-0.3,0.4-0.6,0.7-1,0.7c-1,0.1-1.9,0.1-2.9,0c-1-0.1-1.9-0.1-2.9,0c-0.2,0-0.6,0.1-1.2,0.1
	c-0.6,0.1-1,0.1-1.2,0.1c-0.1,0.1-0.3,0.2-0.5,0.3c-0.3,0.1-0.5,0.2-0.7,0.4c-0.3,0.2-0.5,0.3-0.6,0.4c-0.2,0.2-0.3,0.3-0.3,0.5
	l0.3,3.4c0,0.2,0.1,0.4,0.4,0.5c0.3,0.2,0.5,0.3,0.8,0.5c0.3,0.2,0.6,0.3,0.9,0.5c0.3,0.1,0.5,0.2,0.6,0.3c1.5,0.7,2.9,1.4,4.1,2
	c1.2,0.6,2.3,1.4,3.2,2.3c0.9,0.9,1.6,1.9,2.2,3.1c0.5,1.2,0.9,2.7,1.1,4.4c0.2,1.5,0.1,3.1-0.3,4.6c-0.4,1.5-0.9,2.8-1.7,4
	c-0.8,1.2-1.8,2.2-3.1,3c-1.2,0.8-2.6,1.3-4.2,1.4c-1.3,0.2-2.7,0.2-4.1,0.1c-1.4-0.1-2.7-0.4-3.8-0.8c-1.2-0.5-2.1-1.1-2.9-2
	C606,36.7,605.5,35.6,605.4,34.1z"/>
<path class="st1" d="M296.3,194.6c0,0,3-2.5,14.7-3.9c4.9-0.6,16.2,2.2,27.1,5.7c6.1,2,22.5,4.8,25.5,5.2c5.2,0.7,22,3.9,22.1,7.6
	c0.2,3.7-3.9,7.2-13.5,12.4c-9.6,5.1-40.1,12.4-48.9,27.6c-11.5,19.8-13.4,43.8-13.8,55.1c-0.4,11.3-3,25.5-3,25.5
	s16.1-1.2,13.9,2.1c-2.2,3.4-8.5,0.5-8.5,0.5s2,4.1,0.2,4.6c-1.9,0.6-4.4-3.4-4.4-3.4s0.7,3.2-3.1,3.8s-4.7-1.7-3.9-6
	c0.7-4.3-0.2-19.9-0.5-20.1c-0.4-0.3-20.8,1-20.8,1l-0.8,18.3c0,0,12.5,2.2,11.2,4.2c-1.3,1.9-7.4-0.5-7.4-0.5s4.7,3.2,1.9,4.1
	c-2.8,1-5.6-1.6-5.6-1.6c1.8,6.3-7.5,3.1-6.3-2.6l-1.1-23.4c0,0-8.6,15.3-26,16.2c-21.6,1.1-51.1-15.9-60.8-25.2
	c-10.1-9.6-6.3-7,5.5-4.6c16.3,3.4,28.9,0.6,37-2.2c6-2,14.2-5,23-3.4c7.3,1.4,17.7,9,17.7,9s-3.8-26,14.4-52.9
	c3.5-5.2,0.2-14,0.2-14s-1.9,0.2-3.9,0.7c-3.3,0.8-6,5.3-4.7,1.5c1.2-3.8,6.2-7.3,6.2-7.3s-1.6-2.3-8.8-1.4
	c-4.7,0.6,5.7-6.7,5.7-6.7s-5.7-0.7-9.5-0.9c-1.9-0.1,11-7,11-7s0.4-0.7,0.1-4.3c-0.1-1.8,0.2-7.3,0.2-7.3s-2.7-12.1-3.5-16.7
	c-0.8-4.7-0.5-9.8-0.5-9.8s10.3,7.4,15.3,12.2C293.4,190.1,296.3,194.6,296.3,194.6z"/>
<path class="st2" d="M296.7,259.2c0,0-4.4,6.2-6.2,9.9c-1.7,3.7-1.8,7.1-1.6,8.3c0.2,1.2,4.3,5.5,2.5,6.8c-1.2,0.8-3.2-1.2-3.2-1.2
	s-0.4,2.2-1.6,3.1c-1.8,1.3-2.1-3.3-2.1-3.3s-1.8,5.3-4.6,3.4c-1.7-1.2,0.5-4.1,3.6-10.4c2.6-5.2,6-21.1,6-21.1"/>
<path class="st3" d="M325,248.7c-11.8,19.3-14.2,37.7-13.7,55.1c-5.3,0.3-11.5,0.1-16.6,0.8c-0.6-3.3,0.1-6.7-0.1-10.2
	c-1.5-33.2,10.7-51.7,36.4-59.4c2.3-0.7,15.2-4.3,17.5-3.9C339.3,235.2,329.2,241.8,325,248.7z"/>
<path class="st4" d="M348.5,231.1c-9.2,4.1-19.3,10.7-23.5,17.6c-3.7,6-12.2,22.2-14,42.7"/>
<path d="M381,204.7c5.5,1.3,13.2,2.8,9,6.7c-5.1,4.6-14.5,8.3-14.5,8.3s-5.2-12.7-4-16.7C371.5,203,379,204.3,381,204.7z"/>
<path class="st1" d="M314.8,191.7c0,0-5.5-6.7-8.4-10.2c-2.9-3.5-10.9-11.7-11.3-11.1c-0.4,0.6-1.8,4.3-1,10.5
	c0.8,6.2,2.5,14.1,2.5,14.1L314.8,191.7z"/>
<path class="st3" d="M189.8,297.1c15.2,3.2,27.2,0.9,35.3-1.6c-3.1,3.3-7.9,8.6-6.3,8.5c2.3-0.1,12.1,3.5,9.3,3.7
	c-2.7,0.1-9.4,1.8-9.4,1.8s7.9,6.3,7,6.8c-0.9,0.5-10.2-1.8-10.2-1.8s0.7,3.6,0.7,6.4c-13.7-5.6-26.2-13.7-31.9-19.1
	C174.3,292.1,178.1,294.7,189.8,297.1z"/>
<path class="st4" d="M193.3,308.6c-3.7-2.5-6.8-4.9-8.9-6.9c-9.5-9-6.7-7.3,3.6-5"/>
<path class="st3" d="M291.1,197.5c0,0-10.3-10.1-10.5-8.8c-0.2,1.3,0.6,12,0.6,12s3.7-1.7,5.1-2.1
	C287.6,198.3,291.1,197.5,291.1,197.5z"/>
<path class="st3" d="M300.1,182.9c-0.8-0.4-1,0.8-0.9,2.8c0.1,2,0.3,7.4,0.3,7.4l7.5-2.1C307,191,300.9,183.2,300.1,182.9z"/>
<path class="st3" d="M309.7,206.1c0.2,4.4,3.9,8.5,9.1,8.3c3.9-0.2,8.9-4.6,6.3-10.4c-2.3-5.3-5.6-6.3-9.6-5.6
	C311.6,199.2,309.5,201.7,309.7,206.1z"/>
<path d="M317.4,207c0,0.7-0.5,1.3-1.2,1.3c-0.7,0-1.3-0.5-1.3-1.2c0-0.7,0.5-1.3,1.2-1.3C316.8,205.8,317.3,206.3,317.4,207z"/>
<path class="st5" d="M312.1,291.2c-18.8,2.3-28.9,2.5-31.8,2.5c-8.1-0.1-13.2-2.1-13.2-2.1s0.1,8,0.7,14.6
	c0.7,7.4,2.2,13.6,2.2,13.6s13.1-2.5,15.6-2.3l0.6-4.2l13.1-1.9l0.2,4.5l12.1-0.6L312.1,291.2z"/>
<path class="st6" d="M306.4,295.8l-4.8,0.2l-0.2-3.4l5-0.2L306.4,295.8z"/>
<path d="M322.6,224.3c0,0,3.4,3.1,8,1.5c-0.2,1.8-1,5.7-3.7,5.6C323.2,231.3,322.6,224.3,322.6,224.3z"/>
<path d="M301.5,293.2c0,0-0.5-23.7-8.6-34.3c-3.3-4.3-14.6-7.7-14.6-7.7l1.4-2.2c0,0,10.4,2.2,17,9.8c7,8,9.5,34.1,9.5,34.1
	L301.5,293.2L301.5,293.2z"/>
<path class="st7" d="M669.2,257.9c0,0-0.7-1.6-9.8,0c-33.9,6.2-59.7-10.1-56-10.7c20.2-3.2,36.4-7.7,34-9.3
	c-2.5-1.5-34.2-4.4-28.2-5.2c8.1-1.1,31.4-11.4,28.7-12.1c-2.9-0.8-29.9-1.8-24.7-3.9c19.4-7.8,27-15.9,24.6-15.1
	c-2.4,0.8-21.9,3.2-18.3,0.6c11.9-8.7,21.9-25.2,21.9-25.2s-11.4,3.5-15.5,4.5c-4.1,1-1.7-1.3,6.1-8.1c7.4-6.5,13.7-16,13.7-16
	s-2.3-0.3-8.4,0c-6.2,0.3-5.5,1.1,0-5.5c5.5-6.5,19.8-20.8,16.9-22c-2.9-1.2-17.5,8-14.8,5c7.7-8.5,26.3-43,27.1-40.7
	c0.8,2.3,9.1,24.3,14.8,32s16.8,14.3,11.5,13.9s-15-5.1-15-5.1s5,14.4,8.8,17.8c3.8,3.5,7.9,7.3,2.5,6.9c-5.4-0.4-15-5-12.5-1.5
	c2.5,3.5,21.1,17.4,17.6,18c-3.5,0.5-15.6-2.8-15.6-2.8s10.8,15.6,14.1,17.9c3.4,2.3,7.6,4.4,3.8,5.1c-3.8,0.7-15.3-2.2-15.3-2.2
	s8.8,15.6,20.7,22.8c1.5,0.9-10,1.1-15.4,0c-5.4-1.1-7.5-2.4-7.1,0c0.4,2.4,20.4,11.3,28.4,16.3c5.5,3.5-24.6-0.9-26.5,0
	c-2.1,1,17.4,15.9,34.8,17.7c5.2,0.5-9,4.6-19.5,6.9C686,260.2,669.2,257.9,669.2,257.9z"/>
<path class="st8" d="M653.7,244.5c-0.2-8.9,0.6-26.5,0.6-26.5l-13.2-13.2l1.7-2.2c0,0,1.4,0.3,4.9,3.1c3.5,2.7,8,5.5,8,5.5
	s0.2-15.3,0.5-18.8c0.5-6.6-1.7-8.6-1.7-8.6s-2-1.5-4.8-3.5c-2.8-2-5-3.9-5-3.9l2.2-2.4c0,0,3.1,1.5,5.5,3.1
	c2.1,1.4,4.4,0.2,4.4,0.2s0-1.9,0.2-7.6c0.2-5.2,1-11.8,0.1-14.7c-0.9-2.8-6.4-11.5-6.4-11.5l1.5-2.7c0,0,1.4,0.9,2.7,2.9
	c1.3,1.9,5.1,6.8,5.1,6.8s1.6-3.7,3.6-7.5c2.4-4.6,1.1-5.2,3.7-4.5c2.8,0.7,2,1.2,0.7,4.8c-1.5,4.1-2,5.7-3.1,8
	c-0.8,1.8-0.2,28.1-0.2,28.1s-0.2,17.2,0.5,17.5c3.1,1.2,11.9-0.9,11.9-0.9l-0.1,2.6l-12.1,3.9l-0.3,29.4c0,0,4.1-0.2,6.3-1.2
	c2.2-1.1,2.6-0.7,2.6-0.7l0.9,2.3c0,0-2.6,2.1-4.8,2.6c-1.6,0.3-3.9,1-5.2,1.3l1.5,58.3l-13.2-0.5
	C652.8,294,653.8,253.2,653.7,244.5z"/>
<path class="st9" d="M480.3,261.9c0,0,0.6-1.3,8.3,0c28.6,5,50.3-8.2,47.2-8.7c-17.1-2.6-30.7-6.3-28.6-7.5
	c2.1-1.2,28.8-3.6,23.8-4.2c-6.9-0.9-26.4-9.3-24.2-9.9c2.4-0.7,25.2-1.5,20.8-3.2c-16.3-6.4-22.7-13-20.7-12.3
	c2,0.7,18.5,2.6,15.5,0.5c-10.1-7.1-18.5-20.5-18.5-20.5s9.6,2.9,13.1,3.7c3.5,0.8,1.4-1.1-5.1-6.6c-6.2-5.3-11.5-13-11.5-13
	s1.9-0.2,7.1,0c5.2,0.2,4.7,0.9,0-4.5c-4.7-5.3-16.7-16.9-14.3-17.9c2.5-0.9,14.8,6.5,12.5,4.1c-6.5-6.9-22.2-35-22.9-33.1
	c-0.7,1.9-7.7,19.8-12.4,26c-4.8,6.3-14.2,11.6-9.7,11.3c4.5-0.3,12.6-4.2,12.6-4.2s-4.2,11.7-7.4,14.5c-3.2,2.8-6.7,6-2.1,5.6
	c4.6-0.3,12.7-4.1,10.6-1.3c-2.1,2.8-17.8,14.2-14.9,14.6c2.9,0.4,13.1-2.2,13.1-2.2s-9.1,12.7-11.9,14.6c-2.9,1.9-6.4,3.6-3.2,4.2
	c3.2,0.6,12.9-1.8,12.9-1.8s-7.4,12.7-17.4,18.6c-1.2,0.7,8.4,0.9,13,0c4.6-0.9,6.3-1.9,6,0c-0.4,1.9-17.2,9.2-23.9,13.3
	c-4.6,2.8,20.7-0.7,22.4,0c1.8,0.8-14.7,12.9-29.3,14.4c-4.4,0.4,7.6,3.7,16.4,5.6C466.1,263.8,480.3,261.9,480.3,261.9z"/>
<path class="st8" d="M493.7,251.6c0.1-7.3-0.5-21.7-0.5-21.7l11.2-10.8l-1.5-1.8c0,0-1.2,0.3-4.2,2.5c-3,2.2-6.8,4.5-6.8,4.5
	s-0.2-12.5-0.4-15.4c-0.4-5.4,1.5-7,1.5-7s1.7-1.2,4.1-2.9c2.4-1.6,4.3-3.2,4.3-3.2l-1.9-2c0,0-2.6,1.2-4.7,2.5
	c-1.8,1.2-3.7,0.2-3.7,0.2s0-1.5-0.2-6.2c-0.2-4.3-0.9-9.7-0.1-12c0.7-2.3,5.4-9.4,5.4-9.4l-1.2-2.2c0,0-1.2,0.8-2.3,2.3
	c-1.1,1.6-4.3,5.6-4.3,5.6s-1.4-3.1-3-6.1c-2-3.7-1-4.3-3.1-3.7c-2.4,0.6-1.7,1-0.6,4c1.2,3.4,1.7,4.7,2.6,6.6
	c0.7,1.5,0.2,22.9,0.2,22.9s0.2,14.1-0.4,14.3c-2.7,1-10.1-0.7-10.1-0.7l0.1,2.1l10.3,3.2l0.2,24c0,0-3.5-0.1-5.4-1
	c-1.9-0.9-2.2-0.6-2.2-0.6l-0.8,1.9c0,0,2.2,1.7,4.1,2.1c1.4,0.3,3.4,0.8,4.4,1.1l-1.3,47.6l11.2-0.4
	C494.5,292,493.6,258.6,493.7,251.6z"/>
<path class="st7" d="M536.3,262.1c-6,0-27.9-8.2-34.3-25.6c-6.4-17.4-1.2-55.1,3-71c4.2-15.9,31.1-93.4,31.1-93.4
	s8.3,17.7,15.3,29.8c7,12,27.9,60.2,31.9,78.2c4,18.1,4.2,50.4-6.2,64.4C563.8,262.1,553.6,258.8,536.3,262.1z"/>
<path class="st10" d="M537.9,304.9c0,0,0.3-22.2,0.3-31.4c0-9.2,1.5-27.1-0.3-28.4c-1.9-1.3-5.6-2.2-10-4.1
	c-4.4-1.9-9.7-2.6-13.4-2.9c-3.7-0.3-4.2-0.4-4.2-0.4l0.8-4c0,0,0.6-0.2,3.7,0c3.1,0.2,4,0.4,5.5,0.5c2.9,0.3,4.7,1.6,4.6,0
	c-0.1-1.7-0.6-8.4,0.9-7.8c1.5,0.7,2.5,0.9,2.5,0.9s0.9,2.7,1.1,4.9c0.2,2.7,0.1,3.5,0.1,3.5s3.6,1.2,5.7,1.7
	c1.9,0.4,2.5,0.1,2.5-3.8c0-5.3,1.2-18.9,0.3-22.3c-0.9-3.4-2.9-5.1-5.6-6.1c-1.8-0.7-6.2-1.6-9.4-3.1c-3.1-1.5-5.3-1.5-5.3-1.5
	l0.3-3c0,0,4.4,0.7,5.8,1.3c1.5,0.5,6.6,2.2,6.6,2.2s-2.6-6.3-2.6-7.2c0-0.8-0.3-4.5-0.3-4.5h2.4l0.7,3.9h4.6l0.9,1.4l-3.7,1.6
	l2.1,4.8l4.1,1.6c0,0-0.6-16.2-1.2-21.5l-0.6-5.3c0,0-4-2.1-6.1-3.1c-2.2-0.9-7.6-2.5-7.6-2.5l0.1-2.9l7.4,2.3c0,0-1.1-1.1-2-2.9
	c-0.9-1.7-0.2-1.7-0.2-1.7l2.1-0.7l6,7.6c0,0-0.3-21.7-0.6-23.7c-0.3-2-8-7.9-8-7.9l1.1-1.6l1.6,0.7c3.4,1.9,5.5,4.1,6.5,4.5
	c0.9,0.4,8.2-14.6,9.8-15.6l1.6-0.9c3.1,1.5,2.5,3.4,2.5,3.4s-2.3,2.1-4.1,4.9c-1.8,2.8-2.5,3.8-2.5,3.8l5,4.4l-0.9,1.4
	c0,0-4.2-4-5.3-3.8c-0.8,0.2-1.5,6.6-1.5,6.6s2.8,15,2.8,19.1s1.1,9,2.4,10.1c1.3,1.1,2.8,0,2.8,0l-1.9-5.5h3.2l2.7,5.5
	c0,0,8-3.8,9.8-4.8c1.9-0.9,4.6,3.5,4.6,3.5s-1.2,0.5-3.7,1.2c-2.5,0.8-8.6,2.4-11.4,3.6c-2.8,1.2-6.2,3.4-6.2,4.6
	c0,2.2,1.3,20.7,1.7,25.6c0.3,4.9,0.2,14.8,0.2,14.8s4.2-2.8,7.5-4.9c3.3-2.1,8.2-5,8.2-5l1.2,2l-4.9,4.6c0,0,0.9,2.2,1.9,2.9
	l0.9,0.7l-1.9,2.2c0,0-2.1-1.8-2.9-2.9l-0.8-1.1l-8.9,8.7l2.8,71.2H537.9L537.9,304.9z"/>
<path class="st11" d="M599.3,137.7c-7.6-0.3-22.7,2.3-34.8,10.8c-14.3,10-18.3,16.6-22,33.5c-3.7,16.9,1.5,30.1,9.2,41.6
	c7.7,11.5,12.7,23.5,48,29.2c19.9,3.2,52.3-9.4,58.2-35.7c5.9-26.3-1.1-44.6-7.8-51.4C643.4,158.9,632.5,138.9,599.3,137.7z"/>
<path class="st12" d="M556.2,182.5l9,5.1c0,0,4.5,0.9,6.9,1.3c2.2,0.4,7.6,1.5,7.6,1.5l1.9-9.9h2.1c0,0-1.2,10.1,0,10.9
	c1,0.6,7.6,2.7,11.7,3.7c0.9-9.2,2-19.4,2-20.6c0-1.2-3.2-3.2-5.8-4.4c-2.6-1.1-8.4-2.6-10.7-3.4c-2.3-0.7-3.5-1.2-3.5-1.2
	s2.6-4.2,4.3-3.3c1.7,0.9,9.2,4.5,9.2,4.5l2.6-5.1h3l-1.8,5.1c0,0,1.4,1,2.7,0c1.2-1,2.2-5.6,2.2-9.5c0-3.9,0-5.6,0-5.6
	c-1.1-0.2-5.5,1.9-5.5,1.9l-0.9-1.3l5.4-3.4c0,0-1.3-1.7-3-4.3c-1.7-2.6-1.6-2.5,1.3-3.9c0,0,1.9,2.8,3.3,5.1
	c0.9,1.5,3.6,6.4,4.6,6.5c1,0.2,1.3-0.1,3.9-1l2.4-0.6l1,2.1c0,0-5.8,1.6-6.1,3.5c-0.3,1.9-0.6,16.5-0.6,16.5l5.6-7.1l2,0.6
	c0,0,0.7,0-0.1,1.6c-0.9,1.6-1.9,2.7-1.9,2.7l6.9-2.2l0.1,2.7c0,0-5.1,1.4-7.1,2.3c-2,0.9-5.8,2.9-5.8,2.9l-0.6,4.9
	c-0.6,4.9-1.2,20.2-1.2,20.2l7.3-2.7l2-4.5l-3.5-1.5l0.9-1.3h4.3l3.5-5.2l2.2,1.1c0,0-3.1,3.9-3.1,4.7c0,0.8-2.5,6.7-2.5,6.7
	s4.9-1.6,6.2-2.1c1.4-0.5,18.2-4.3,18.2-4.3l0.3,3.9c0,0-10.7,3.8-13.7,5.2c-0.1,0.1-0.3,0.1-0.4,0.2c0.2,0.2,0.5,0.3,0.7,0.6
	c2.5,2.2,6.3,3.5,6.3,3.5l-1.4,3.5c0,0-6.7-4.2-9.7-6.1c-1.7,0.5-7.4,2.6-8.3,3c-2.6,1-7.9,3.1-8.8,6.3c-0.9,3.2,0.3,13,0.3,18.1
	c0,3.6,0.6,3.9,2.4,3.6c2-0.4,5.4-1.6,5.4-1.6s-0.1-0.8,0.1-3.3c0.2-2.1,1-4.6,1-4.6l2.3-0.9c0.4,1.3,0.5,3.9,0.4,5.5
	c-0.1,1.6,3.8,0.7,5.6-0.3c1.3-0.7,4.2-2.4,8.4-3.8c2.7-1,6.5-2,6.5-2l1.4,3.4c0,0-5.8,2.1-9.8,4.3c-0.4,0.2-0.8,0.4-1.2,0.7
	l5.1,1.1l-1.3,2.3c-0.3-0.1-1.6-0.1-3.2-0.7c-1.8-0.6-3.5-0.7-4.4-1c-3.4,1.5-6.1,2.5-9.4,4c-4.1,1.9-7.7,2.6-9.4,3.8
	c-1.7,1.2-0.3,36.9-0.3,45.4c0,8.6,0.3,17.7,0.3,17.7h-13.3l2.6-73.8l-10.7-9.3l-0.7,1c-0.7,1-2.7,2.8-2.7,2.8l-1.7-2.1l0.9-0.7
	c0.9-0.7,1.7-2.8,1.7-2.8l-4.6-4.3l1.2-1.9c0,0,4.6,2.8,7.7,4.7c0.1,0.1,0.2,0.1,0.3,0.2v-9.1c0,0-0.6-1.9,0-2.2
	c0.6-0.3,1.7,0,1.7,0s0.4,1.8,0.7,3.9c0.3,1.6,0.9,7.1,1.2,9.7c2.7,1.7,5.4,3.3,5.4,3.3s-0.2-9.3,0.1-13.9c0.1-1.2,0.3-3.8,0.7-7.2
	c-5.1-1.6-13-4.6-17.5-5.8c-5.8-1.6-7.1-3-8.9-2c-1.9,0.9-1.7,9-2.3,9.9l-2.5-0.9v-5.4H558l-0.8-1.8l6.1-0.9v-5.4
	c0,0-8.2-4.3-8.4-5.3C554.8,183.5,556.2,182.5,556.2,182.5z"/>
<path class="st13" d="M526,305c1.9,3.9,8.1,8,14.4,3.3c5.7-4.3,4.2-10.1,0.9-13.6c-3.4-3.7-8.7-4-12.6-1.2
	C524.7,296.4,524.4,301.8,526,305z"/>
<path class="st3" d="M531.7,295.6c0,0-2.1,2.3-1.6,3.9c0.4,1.6,1.5,1.9,1.5,1.9s-0.1-1.1,0.3-2.4c0.3-1.3,1.6-2.2,1.6-2.2
	L531.7,295.6z"/>
<path class="st13" d="M482,304.3c1.8,3.6,7.5,7.5,13.4,3.1c5.3-4,3.9-9.3,0.8-12.7c-3.2-3.4-8.1-3.7-11.7-1.1
	C480.8,296.2,480.5,301.3,482,304.3z"/>
<path class="st3" d="M487.2,295.6c0,0-1.9,2.1-1.5,3.6c0.4,1.5,1.4,1.7,1.4,1.7s-0.1-1,0.2-2.2c0.3-1.2,1.5-2,1.5-2L487.2,295.6z"/>
<path class="st13" d="M609.1,301.8c2.4,3.5,9.1,6.6,14.5,1.2c4.5-4.5,2.6-10.4-1.1-13.4c-3.8-3.1-9-2.6-12.4,0.6
	C606.6,293.5,607.1,298.9,609.1,301.8z"/>
<path class="st3" d="M612.4,292.2c0,0-1.7,2.5-1,4c0.7,1.5,1.7,1.6,1.7,1.6s-0.2-1-0.1-2.4s1.2-2.4,1.2-2.4L612.4,292.2z"/>
<path class="st14" d="M451.2,304c2.5,3.6,9.3,6.7,14.7,1.2c4.6-4.6,2.7-10.6-1.1-13.6c-3.9-3.1-9.2-2.7-12.7,0.7
	C448.7,295.6,449.1,301.1,451.2,304z"/>
<path class="st3" d="M454.5,294.3c0,0-1.7,2.6-1.1,4.1c0.7,1.5,1.7,1.6,1.7,1.6s-0.2-1.1-0.1-2.4c0.1-1.4,1.3-2.4,1.3-2.4
	L454.5,294.3z"/>
<path class="st14" d="M657.7,296.8c2.2,3.8,8.7,7.7,14.8,2.6c5.6-4.7,3.7-10.5,0.1-13.9c-3.7-3.5-9.1-3.5-12.9-0.5
	C655.9,288,655.9,293.6,657.7,296.8z"/>
<path class="st3" d="M661.9,287.2c0,0-2,2.5-1.5,4c0.6,1.6,1.6,1.8,1.6,1.8s-0.1-1.1,0.1-2.5c0.2-1.4,1.5-2.3,1.5-2.3L661.9,287.2z"
	/>
<path class="st14" d="M596.3,303.4c1.6,2.9,6.5,5.7,11,1.9c4.2-3.5,2.7-7.8,0.1-10.3c-2.7-2.6-6.7-2.6-9.6-0.3
	C595,296.9,595,301.1,596.3,303.4z"/>
<path class="st3" d="M599.4,296.3c0,0-1.5,1.8-1.1,3c0.4,1.2,1.2,1.3,1.2,1.3s-0.1-0.8,0.1-1.8c0.2-1,1.1-1.7,1.1-1.7L599.4,296.3z"
	/>
<path class="st14" d="M808.4,293c2.2,3.8,8.7,7.7,14.8,2.6c5.6-4.7,3.7-10.5,0.1-13.9c-3.7-3.5-9.1-3.5-12.9-0.5
	C806.6,284.2,806.6,289.8,808.4,293z"/>
<path class="st3" d="M812.5,283.4c0,0-2,2.5-1.5,4c0.6,1.6,1.6,1.8,1.6,1.8s-0.1-1.1,0.1-2.5c0.2-1.4,1.5-2.3,1.5-2.3L812.5,283.4z"
	/>
<path class="st15" d="M855.5,252.1c0,0-0.8-1.8-10.5,0c-36.3,6.6-64-10.8-60-11.4c21.7-3.4,39-8.3,36.4-9.9
	c-2.6-1.6-36.6-4.7-30.2-5.6c8.7-1.2,33.6-12.2,30.8-13c-3.1-0.8-32.1-1.9-26.5-4.2c20.7-8.4,28.9-17.1,26.3-16.2
	c-2.6,0.9-23.5,3.4-19.7,0.6c12.8-9.3,23.5-27,23.5-27s-12.3,3.8-16.7,4.8c-4.4,1-1.8-1.4,6.5-8.7c7.9-7,14.6-17.1,14.6-17.1
	s-2.4-0.3-9,0c-6.6,0.3-5.9,1.1,0-5.9c5.9-7,21.3-22.3,18.1-23.5c-3.1-1.2-18.8,8.6-15.8,5.4c8.2-9.1,28.2-46.1,29.1-43.6
	c0.9,2.5,9.8,26,15.8,34.3c6.1,8.3,18.1,15.3,12.3,14.9c-5.8-0.4-16.1-5.5-16.1-5.5s5.4,15.4,9.4,19.1c4,3.7,8.5,7.9,2.7,7.4
	c-5.8-0.4-16.1-5.4-13.4-1.6c2.7,3.7,22.6,18.7,18.9,19.3c-3.7,0.6-16.7-2.9-16.7-2.9s11.5,16.7,15.2,19.2c3.6,2.5,8.1,4.7,4.1,5.5
	c-4,0.7-16.4-2.3-16.4-2.3s9.4,16.7,22.2,24.5c1.6,1-10.7,1.2-16.5,0c-5.8-1.2-8.1-2.5-7.6,0c0.5,2.5,21.9,12.1,30.4,17.5
	c5.9,3.7-26.4-1-28.4,0c-2.2,1.1,18.6,17,37.2,18.9c5.6,0.6-9.7,4.9-20.9,7.4C873.5,254.6,855.5,252.1,855.5,252.1z"/>
<path class="st12" d="M838.9,237.7c-0.2-9.6,0.7-28.4,0.7-28.4l-14.2-14.2l1.9-2.4c0,0,1.5,0.3,5.3,3.3c3.8,2.9,8.6,5.8,8.6,5.8
	s0.3-16.4,0.6-20.2c0.5-7-1.9-9.2-1.9-9.2s-2.1-1.6-5.1-3.8c-3-2.2-5.4-4.2-5.4-4.2l2.4-2.6c0,0,3.3,1.6,5.9,3.3
	c2.3,1.5,4.7,0.2,4.7,0.2s0.1-2,0.3-8.1c0.2-5.6,1.1-12.7,0.1-15.7c-0.9-3-6.9-12.3-6.9-12.3l1.6-2.9c0,0,1.5,1,2.9,3.1
	c1.4,2.1,5.5,7.3,5.5,7.3s1.7-4,3.8-8c2.6-4.9,1.2-5.6,4-4.8c3,0.8,2.1,1.2,0.7,5.2c-1.6,4.4-2.2,6.1-3.3,8.6
	c-0.9,1.9-0.2,30.1-0.2,30.1s-0.2,18.4,0.5,18.7c3.3,1.2,12.7-1,12.7-1l-0.1,2.8l-13,4.2l-0.3,31.5c0,0,4.4-0.2,6.8-1.3
	c2.4-1.2,2.8-0.8,2.8-0.8l1,2.5c0,0-2.7,2.3-5.1,2.8c-1.7,0.4-4.2,1.1-5.5,1.4l1.6,62.5l-14.2-0.5
	C837.9,290.7,839.1,247,838.9,237.7z"/>
<path class="st13" d="M845.1,296.6c1.9,3.9,8.1,8,14.4,3.3c5.7-4.3,4.2-10.1,0.9-13.6c-3.4-3.7-8.7-4-12.6-1.2
	C843.8,287.9,843.5,293.4,845.1,296.6z"/>
<path class="st3" d="M850.8,287.2c0,0-2.1,2.3-1.6,3.9c0.4,1.6,1.5,1.9,1.5,1.9s-0.1-1.1,0.3-2.4c0.3-1.3,1.6-2.2,1.6-2.2
	L850.8,287.2z"/>
<path class="st13" d="M797.6,298.4c2,2.9,7.6,5.5,12.1,1c3.7-3.8,2.2-8.6-0.9-11.2c-3.2-2.6-7.5-2.2-10.4,0.5
	C795.6,291.5,796,296,797.6,298.4z"/>
<path class="st3" d="M800.3,290.4c0,0-1.4,2.1-0.9,3.3c0.6,1.2,1.4,1.3,1.4,1.3s-0.2-0.9-0.1-2c0.1-1.1,1-2,1-2L800.3,290.4z"/>
<path class="st9" d="M712.6,252.9c-6,0-27.9-8.2-34.3-25.6c-6.4-17.4-1.2-55.1,3-71c4.2-15.9,31.1-93.4,31.1-93.4
	s8.3,17.7,15.3,29.8c7,12,27.9,60.1,31.9,78.2c4,18.1,4.2,50.4-6.2,64.4C740.1,252.9,729.9,249.6,712.6,252.9z"/>
<path class="st16" d="M714.2,295.7c0,0,0.3-22.2,0.3-31.4c0-9.1,1.5-27.1-0.3-28.4c-1.9-1.3-5.6-2.2-10-4.1
	c-4.4-1.9-9.7-2.6-13.4-2.9c-3.7-0.3-4.2-0.4-4.2-0.4l0.8-4c0,0,0.6-0.2,3.7,0c3.1,0.2,4,0.4,5.5,0.5c2.9,0.3,4.7,1.6,4.6,0
	c-0.1-1.7-0.6-8.4,0.9-7.8c1.5,0.7,2.5,0.9,2.5,0.9s0.9,2.7,1.1,4.9c0.2,2.7,0.1,3.5,0.1,3.5s3.6,1.2,5.7,1.7
	c1.9,0.4,2.5,0.1,2.5-3.8c0-5.3,1.2-18.9,0.3-22.3c-0.9-3.4-2.9-5.1-5.6-6.1c-1.8-0.7-6.2-1.6-9.4-3.1c-3.1-1.5-5.3-1.5-5.3-1.5
	l0.3-3c0,0,4.4,0.7,5.8,1.3c1.5,0.5,6.6,2.2,6.6,2.2s-2.6-6.3-2.6-7.1c0-0.8-0.3-4.5-0.3-4.5h2.4l0.7,3.9h4.6l0.9,1.4l-3.7,1.6
	l2.1,4.8l4.1,1.6c0,0-0.6-16.2-1.2-21.5l-0.6-5.3c0,0-4-2.1-6.1-3.1c-2.2-0.9-7.6-2.5-7.6-2.5l0.1-2.9l7.4,2.3c0,0-1.1-1.1-2-2.9
	c-0.9-1.7-0.2-1.7-0.2-1.7l2.1-0.7l6,7.6c0,0-0.3-21.7-0.6-23.7c-0.3-2-8-7.9-8-7.9l1.1-1.6l1.6,0.7c3.4,1.9,5.5,4.1,6.5,4.5
	c0.9,0.4,8.2-14.7,9.8-15.6l1.6-0.9c3.1,1.5,2.5,3.4,2.5,3.4s-2.3,2.1-4.1,4.9c-1.8,2.8-2.5,3.8-2.5,3.8l5,4.4l-0.9,1.4
	c0,0-4.2-4-5.3-3.8c-0.8,0.2-1.5,6.6-1.5,6.6s2.8,15,2.8,19.1c0,4.1,1.1,9,2.4,10.1c1.3,1.1,2.8,0,2.8,0l-1.9-5.5h3.2l2.7,5.5
	c0,0,8-3.8,9.8-4.8c1.9-0.9,4.6,3.5,4.6,3.5s-1.2,0.5-3.7,1.2c-2.5,0.8-8.6,2.4-11.4,3.6s-6.2,3.4-6.2,4.6c0,2.2,1.3,20.7,1.7,25.6
	s0.2,14.8,0.2,14.8s4.2-2.8,7.5-4.9c3.3-2.1,8.2-5,8.2-5l1.2,2l-4.9,4.6c0,0,0.9,2.2,1.9,2.9l0.9,0.7l-1.9,2.2c0,0-2.1-1.8-2.9-2.9
	l-0.8-1.1l-8.9,8.7l2.8,71.2L714.2,295.7L714.2,295.7z"/>
<path class="st13" d="M689.4,302.4c2,2.9,7.6,5.5,12.1,1c3.7-3.8,2.2-8.6-0.9-11.2c-3.2-2.6-7.5-2.2-10.4,0.5
	C687.3,295.5,687.7,300,689.4,302.4z"/>
<path class="st3" d="M692.1,294.4c0,0-1.4,2.1-0.9,3.3c0.6,1.2,1.4,1.3,1.4,1.3s-0.2-0.9-0.1-2c0.1-1.1,1-2,1-2L692.1,294.4z"/>
<path class="st14" d="M702.9,298.7c2.5,3.6,9.3,6.7,14.7,1.2c4.6-4.6,2.7-10.6-1.1-13.6c-3.9-3.1-9.2-2.7-12.7,0.7
	C700.4,290.2,700.8,295.7,702.9,298.7z"/>
<path class="st3" d="M706.2,288.9c0,0-1.7,2.6-1.1,4.1c0.7,1.5,1.7,1.6,1.7,1.6s-0.2-1.1-0.1-2.4c0.1-1.4,1.3-2.4,1.3-2.4
	L706.2,288.9z"/>
<path class="st13" d="M748.6,298.2c1.9,3.9,8.1,8,14.4,3.3c5.7-4.3,4.2-10.1,0.9-13.6c-3.4-3.7-8.7-4-12.6-1.2
	C747.4,289.5,747,295,748.6,298.2z"/>
<path class="st3" d="M754.3,288.8c0,0-2.1,2.3-1.6,3.9c0.5,1.6,1.5,1.9,1.5,1.9s-0.1-1.1,0.3-2.4c0.3-1.3,1.6-2.2,1.6-2.2
	L754.3,288.8z"/>
<path class="st17" d="M777.2,129.1c-7.6-0.3-22.7,2.3-34.8,10.8c-14.3,10-18.3,16.6-22,33.5c-3.7,16.9,1.5,30.1,9.2,41.6
	c7.7,11.5,12.7,23.5,48,29.2c19.9,3.2,52.3-9.4,58.2-35.7c5.9-26.3-1.1-44.6-7.8-51.4C821.4,150.2,810.5,130.2,777.2,129.1z"/>
<path class="st8" d="M734.1,179l9,5.1c0,0,4.5,0.9,6.9,1.3c2.2,0.4,7.6,1.5,7.6,1.5l1.9-9.9h2.1c0,0-1.2,10.1,0,10.9
	c1,0.6,7.6,2.7,11.7,3.7c0.9-9.2,2-19.4,2-20.6c0-1.2-3.2-3.2-5.8-4.4c-2.6-1.1-8.4-2.6-10.7-3.4c-2.3-0.7-3.5-1.2-3.5-1.2
	s2.6-4.2,4.3-3.3c1.7,0.9,9.2,4.5,9.2,4.5l2.6-5.1h3l-1.8,5.1c0,0,1.4,1,2.7,0c1.2-1,2.2-5.6,2.2-9.5c0-3.9,0-5.6,0-5.6
	c-1.1-0.2-5.5,1.9-5.5,1.9l-0.9-1.3l5.4-3.4c0,0-1.3-1.7-3-4.3s-1.6-2.5,1.3-3.9c0,0,1.9,2.8,3.3,5.1c0.9,1.5,3.6,6.4,4.6,6.5
	c1,0.2,1.3-0.1,3.9-1l2.4-0.6l1,2.1c0,0-5.8,1.6-6.1,3.5c-0.3,1.9-0.6,16.5-0.6,16.5l5.6-7.1l2,0.6c0,0,0.7,0-0.1,1.6
	c-0.9,1.6-1.9,2.7-1.9,2.7l6.9-2.2l0.1,2.7c0,0-5.1,1.4-7.1,2.3c-2,0.9-5.8,2.9-5.8,2.9l-0.6,4.9c-0.6,4.9-1.2,20.2-1.2,20.2
	l7.3-2.7l2-4.5l-3.5-1.5l0.9-1.3h4.3l3.5-5.2l2.2,1.1c0,0-3.1,3.9-3.1,4.7c0,0.8-2.5,6.7-2.5,6.7s4.9-1.6,6.2-2.1
	c1.4-0.5,18.2-4.3,18.2-4.3l0.3,3.9c0,0-10.7,3.8-13.7,5.2c-0.1,0.1-0.3,0.1-0.4,0.2c0.2,0.2,0.5,0.3,0.7,0.6
	c2.5,2.2,6.3,3.5,6.3,3.5l-1.4,3.5c0,0-6.7-4.2-9.7-6.1c-1.7,0.5-7.4,2.6-8.3,3c-2.6,1-7.9,3.1-8.8,6.3c-0.9,3.2,0.3,13,0.3,18.1
	c0,3.7,0.6,3.9,2.4,3.6c2-0.4,5.4-1.6,5.4-1.6s-0.1-0.8,0.1-3.3c0.2-2.1,1-4.6,1-4.6l2.3-0.9c0.4,1.3,0.5,3.9,0.4,5.5
	c-0.1,1.6,3.8,0.7,5.6-0.3c1.3-0.7,4.2-2.4,8.4-3.8c2.7-1,6.5-2,6.5-2l1.4,3.4c0,0-5.8,2.1-9.8,4.3c-0.4,0.2-0.8,0.4-1.2,0.7
	l5.1,1.1l-1.3,2.3c-0.3-0.1-1.6-0.1-3.2-0.7c-1.8-0.6-3.5-0.7-4.4-1c-3.4,1.5-6.1,2.5-9.4,4c-4.1,1.9-7.7,2.6-9.4,3.8
	c-1.7,1.2-0.3,36.9-0.3,45.4c0,8.6,0.3,17.7,0.3,17.7h-13.3l2.6-73.8l-10.7-9.3l-0.7,1c-0.7,1-2.7,2.8-2.7,2.8l-1.7-2.1l0.9-0.7
	c0.9-0.7,1.7-2.8,1.7-2.8l-4.6-4.3l1.2-1.9c0,0,4.6,2.8,7.7,4.7c0.1,0.1,0.2,0.1,0.3,0.2v-9.1c0,0-0.6-1.9,0-2.2
	c0.6-0.3,1.7,0,1.7,0s0.4,1.8,0.7,3.9c0.3,1.6,0.9,7.1,1.2,9.7c2.7,1.7,5.4,3.3,5.4,3.3s-0.2-9.3,0.1-13.9c0.1-1.2,0.3-3.8,0.7-7.2
	c-5.1-1.6-13-4.6-17.5-5.8c-5.8-1.6-7.1-3-8.9-2c-1.9,0.9-1.7,9-2.3,9.9l-2.5-0.9v-5.4H736l-0.8-1.8l6.1-0.9v-5.4
	c0,0-8.2-4.3-8.4-5.3C732.7,180,734.1,179,734.1,179z"/>
<path class="st14" d="M763.7,301.5c1.6,2.9,6.5,5.7,11,1.9c4.2-3.5,2.7-7.8,0.1-10.3c-2.7-2.6-6.7-2.6-9.6-0.3
	C762.3,295,762.3,299.1,763.7,301.5z"/>
<path class="st3" d="M766.8,294.4c0,0-1.5,1.8-1.1,3c0.4,1.2,1.2,1.3,1.2,1.3s-0.1-0.8,0.1-1.8c0.2-1,1.1-1.7,1.1-1.7L766.8,294.4z"
	/>
<path class="st1" d="M621.4,186.7c0,0-1,17.3-1.6,22.4c-0.7,5.6-1.2,10-2.5,13.3c-2.3,6.2-9,12.1-9,12.1s6.1,1.6,10.2-2.4
	c4.1-4,6.1-6.9,6.1-6.9s-2.6,10.9-5.2,13.8c-3.1,3.4-8.6,4.9-8.6,4.9s4.4,3.3,10.5,0.4c6.1-2.9,10.4-6.5,10.4-6.5l27.6-0.7
	c0,0,2.3,10.7,5.2,13.3c3.2,2.8,10.1,3,10.1,3s-5.1-3.6-6.9-7.9c-1.8-4.2-0.3-8.8-0.3-8.8s2.8,6,7.3,8.8c4.5,2.9,10.6,2.1,10.6,2.1
	s-8.1-6-9.5-9.8c-1.5-3.8-0.7-6.8-0.7-6.8s3.7,7,6.9,8.3c3.3,1.3,7.1-0.3,7.1-0.3s-4.4-4.5-6.6-8.8c-4.5-9.1-4.8-39.4-8.1-42.1
	c-3.3-2.7-14.4-13.5-29.1-10.4C630.4,180.9,621.4,186.7,621.4,186.7z"/>
<path class="st18" d="M633.5,278.5c-1.2,0.3-1-1.3-1.4-3.4c-0.3,2.2-1.4,4.3-3.2,3.6c-1.1-0.4,0.3-2.9,1-4.6c-0.8,1-2.2,2.4-3.5,2.2
	c-1.3-0.1-0.4-2.8,1.3-5c-5.3-0.7-1.6-3.6,1.9-2.7c3.7-6.4,4.4-18,4.3-21.2c0,0-0.6-5.4-0.6-5.5c0.3-1.8,5.5-1.9,5.6,0
	c0.7,13-0.1,22.5-4.6,27.5C635.4,272.9,635,278.2,633.5,278.5z"/>
<path class="st17" d="M640,231.1c0,0,0.8-3.5-3.2-4.1c-4-0.6-8.5,3.6-6.9,9.5c1,3.5,2.5,6.5,2.5,6.5l6.5-0.1L640,231.1z"/>
<path class="st19" d="M660.8,218.5h-22.2v28.1h22.2V218.5z"/>
<path class="st20" d="M664.2,248c0.7,7.2,2.5,15.5,2.5,15.5s-9.7-1.2-17.3-0.8c-7.7,0.4-12.3,0.8-12.3,0.8s0.5-9.6,0.2-14.9
	c-0.4-6.8,0.2-11,1-15.1c5.4-1.6,11.3,3.9,11.3,3.9s4.9-5.2,11.6-5.7C663,238,663.6,241.4,664.2,248z"/>
<path class="st20" d="M667.4,262.9c0,0,7.1,10.9,14.4,26.3c7.8,16.5,17,43.5,17.6,44.5c-6.3,3.8-17.6,7.5-43.4,7.7
	c-33.8,0.3-47-5.1-47-5.1s7.2-24.5,13.8-39.7c7.1-16.4,14.3-32,14.3-32L667.4,262.9z"/>
<path class="st17" d="M651.5,265.4c0,0-2.6,27.9,34.7,27.9c0,0-1.2-9.1-6.8-17.4c-4.5-6.7-11.1-12.9-11.1-12.9L651.5,265.4z"/>
<path class="st17" d="M646.6,265.6c0,0,5.9,26.3-25,31.1c0,0,1.4-7.5,5.6-16.9c3.3-7.4,9.7-15.1,9.7-15.1L646.6,265.6z"/>
<path class="st11" d="M666.3,258.6c0,0-2.6,1.5-11.2,2.2c-8.6,0.7-13.8,0.2-17.9-0.4l-0.3,4.4c0,0,11.1,1.4,16,1
	c11.5-1,15.4-2.7,15.4-2.7L666.3,258.6z"/>
<path class="st21" d="M669.9,293.3c0,0,3.5,8.7,6,17.5c2.9,10.2,4.4,17.2,4.4,17.2"/>
<path class="st21" d="M648.5,331.2c0,0,4.2-27.1,2.8-46.1"/>
<path class="st21" d="M635.4,296.4c0,0-2.6,7.7-4.2,14.8c-2.1,9.1-3.6,18.5-3.6,18.5"/>
<path class="st18" d="M663.7,239.7c0,0-0.5,21.4,7.8,32.5c3.4,4.5,4.9,6.8,6.1,6.1c1.1-0.7-2-4.4-2-4.4s4.3,4.6,5.2,2.8
	c1-1.8-3-4.9-3-4.9s5.9,2.9,5.5,0.9c-0.4-2.1-4.8-3.8-4.8-3.8s3.4-1.6,1.7-3c-1.5-1.3-5.1,1.2-5.1,1.2s-3.1-3.3-3.9-8.5
	c-0.7-5.2-2.2-20.3-2.2-20.3L663.7,239.7z"/>
<path class="st17" d="M660.1,229.3c0,0-1.2-3.4,2.7-4.5c3.9-1.1,8.8,2.6,7.9,8.6c-0.6,3.6-0.3,6-0.3,6l-7.2,1.4L660.1,229.3z"/>
<path d="M652.7,216.7c0,0-0.3,4.7-4,5.1c-2.1,0.2-3.9-2.5-4.2-2.8C650.7,218.5,652.7,216.7,652.7,216.7z"/>
<path class="st22" d="M664.2,176.2l2.5-16.3c0,0-6.4,8.2-9.3,6.2c-2.9-2-4-7.8-4-7.8s-3.3,8.5-6.1,7.8c-2.8-0.7-5.1-9-5.1-9
	s1.2,8.1-3.3,8.4c-4.4,0.2-9.3-6.2-9.3-6.2l3.9,15.9c0,0,10.4-1.2,17.4-1C657.8,174.3,664.2,176.2,664.2,176.2z"/>
<path class="st18" d="M669.1,181.8c0,0,5.3,16.1,3.3,27.9c-2.8,16.1-17,22.4-28.4,19.9c-17.3-3.8-19.5-20.2-20.1-27.9
	c-0.9-10.4,5.3-21.6,5.3-21.6s8.8-2.9,17.6-5.4C655.6,172.2,669.1,181.8,669.1,181.8z"/>
<path class="st23" d="M623.5,212.1c-0.2,2.8,1.9,5.3,4.7,5.5c2.8,0.2,5.3-1.9,5.5-4.7c0.2-2.8-1.9-5.3-4.7-5.5
	C626.2,207.2,623.7,209.3,623.5,212.1z"/>
<path class="st24" d="M645.1,202.1c0,0-2.2,2-4.3,3.4c-1.3,0.9-2.8,3.2,0.9,4.2c3.7,1,4.6-0.2,4.6-0.2"/>
<path class="st25" d="M633.1,193.3c3.3,0.2,5.2,2.2,5.2,5.4c0,3.3-2.1,5.7-4.9,5.7c-3.1,0.1-5.6-2.5-5.3-5.7
	C628.4,195.5,630,193.1,633.1,193.3z"/>
<path class="st26" d="M631.3,196.8c0.6,0,0.9,0.4,0.9,1c0,0.6-0.3,1-0.9,1c-0.6,0-1-0.4-1-1C630.2,197.2,630.7,196.8,631.3,196.8z"
	/>
<path class="st25" d="M657.9,193.3c3.4,0.6,5.1,2.8,4.8,6.2c-0.4,3.4-2.5,5.7-5.7,5.4c-3.2-0.3-5.2-3.1-4.9-6.5
	C652.4,195,654.7,192.8,657.9,193.3z"/>
<path class="st26" d="M655.4,197c0.6,0.1,0.8,0.5,0.8,1.1c-0.1,0.6-0.5,1-1.1,0.9c-0.6-0.1-1-0.6-0.9-1.1
	C654.3,197.3,654.8,196.9,655.4,197z"/>
<path class="st24" d="M648.9,219.1c0,0-1.8-1.6-3.5-1.9c-2.9-0.4-3.6,0.7-3.6,0.7"/>
<path class="st1" d="M658.1,182.7c0,0-4.1,5.5-7,7.3c-2.9,1.8-7.1,3.1-4.7-1.2c2.5-4.2,1.6-4.2,1.6-4.2s-14,10.3-15.2,7
	c-0.9-2.5,4.3-6.8,4.3-6.8s-13.6,9-17.1,8.2c-2.9-0.7,2-9.3,5.5-12.6c3.3-3.2,5.4-4.3,7.9-5.4c5.8-2.7,15.9-4.3,25.6-1.9
	c9.7,2.4,19.4,15.2,18,17.7c-1.4,2.5-12.2-5.4-12.2-5.4s5.1,8.7,0.5,7.2C660.8,191.2,658.1,182.7,658.1,182.7z"/>
<path class="st23" d="M658.7,210.9c-0.2,2.8,1.9,5.3,4.7,5.5c2.8,0.2,5.3-1.9,5.5-4.7c0.2-2.8-1.9-5.3-4.7-5.5
	C661.5,206,659,208.1,658.7,210.9z"/>
<path class="st27" d="M653.3,159c0-0.3,4.8-6.1,3.3-7.1c-1.6-1-2.9,1.2-2.9,1.2s-1.3-2.6-2.9-1.9C648.9,152,653.3,159,653.3,159z"/>
<path class="st27" d="M666.1,161.1c0.1-0.3,6-5,4.7-6.3c-1.3-1.3-3,0.5-3,0.5s-0.7-2.8-2.4-2.4C663.2,153.4,666.1,161.1,666.1,161.1
	z"/>
<path class="st27" d="M642.4,159c-0.1-0.2,2.8-7.3,1-7.8c-1.8-0.5-2.4,2-2.4,2s-2-2.1-3.3-1C636.2,153.6,642.4,159,642.4,159z"/>
<path class="st27" d="M630.2,160.7c-0.1-0.2,1.8-7.6-0.1-7.8c-1.9-0.2-2.1,2.3-2.1,2.3s-2.3-1.8-3.4-0.5
	C623.3,156.3,630.2,160.7,630.2,160.7z"/>
<path class="st28" d="M292.8,118c0,0-8.9,197.8,8.2,217.3c-34.5,6.4-245.3,9-245.3,9c-4.8-0.2-11.4-10-9.5-26.4c0.1-0.8,6-1.2,6-1.2
	c-1.2-16-1.7-66.7-5-92c-5.1-69.4-5-93.2-5.1-102.4c0-0.4-2.8-0.3-3-0.5c-2.4-3.3-2.2-7.9-2.2-7.9L292.8,118z"/>
<path d="M334,108.9c4.7,2.9,5.9,8.8,2.7,13c-3.1,4.3-9.4,5.3-14.1,2.4c-4.6-2.9-5.9-8.8-2.7-13C323,107,329.3,105.9,334,108.9z"/>
<path d="M325.6,114.9l0.2,5l-309,0.3l-0.2-5L325.6,114.9z"/>
<path d="M16.6,109.2c4.4,2.9,5.6,8.7,2.6,13c-3,4.3-9,5.4-13.5,2.4c-4.4-2.9-5.6-8.7-2.6-13C6.1,107.4,12.2,106.3,16.6,109.2z"/>
</svg>
