<svg width="833" height="46" viewBox="0 0 833 46" fill="none" xmlns="http://www.w3.org/2000/svg">
<path d="M1.42598 43.4801C1.27081 43.3766 1.11564 43.2473 0.960465 43.118C0.805295 42.9887 0.727709 42.8335 0.727709 42.6266C0.546676 40.8163 0.546672 38.9542 0.753566 37.1181C0.960461 35.256 1.06392 33.4198 1.06392 31.5836C1.06392 29.3078 0.986325 27.0319 0.857016 24.7302C0.727707 22.4285 0.572536 20.1527 0.443227 17.851C0.288056 15.5493 0.158749 13.2735 0.0811633 10.9976C-0.0222839 8.72178 -0.0222796 6.47181 0.0553058 4.22183C0.0553058 3.98907 0.132886 3.75632 0.262195 3.4977C0.391504 3.23908 0.598398 3.08391 0.857016 3.03218C1.24494 2.98046 1.6846 3.00632 2.20183 3.08391C2.71907 3.16149 3.13286 3.18736 3.49492 3.13563C3.65009 3.13563 3.93458 3.13563 4.34837 3.10977C4.73629 3.10977 5.2018 3.08391 5.66732 3.05805C6.13283 3.03218 6.57248 3.00632 7.01213 3.00632C7.42592 2.98046 7.71039 2.98046 7.86557 2.98046C7.89143 2.98046 8.0466 2.9546 8.33108 2.92874C8.5897 2.90288 8.87418 2.85115 9.18452 2.82529C9.49487 2.77357 9.75348 2.7477 10.0121 2.69598C10.2707 2.67012 10.4259 2.64426 10.5035 2.64426C10.7362 2.64426 11.0983 2.6184 11.6155 2.59253C12.1328 2.54081 12.65 2.54081 13.1414 2.59253C13.6586 2.6184 14.1241 2.69598 14.5379 2.82529C14.9517 2.92874 15.1845 3.16149 15.2103 3.4977L15.5983 8.28213C15.6241 8.59248 15.4948 8.85109 15.2103 9.05799C14.9 9.26488 14.6155 9.39419 14.3569 9.42005C13.6069 9.49764 12.831 9.47178 12.081 9.34247C11.3311 9.21316 10.5552 9.1873 9.75349 9.26488C9.57245 9.26488 9.31383 9.26488 9.00349 9.29074C8.69315 9.31661 8.38281 9.36833 8.07246 9.42005C7.73626 9.49764 7.47764 9.62695 7.24489 9.75626C7.01213 9.91143 6.90868 10.1442 6.90868 10.4287C7.01213 11.9545 7.01213 13.5321 6.90868 15.1614C6.80523 16.7907 6.80524 18.3941 6.96041 19.9458C6.96041 20.1268 6.98627 20.3855 7.01213 20.6958C7.03799 21.0061 7.1673 21.2389 7.34834 21.4458C7.50351 21.5492 7.73626 21.6527 8.07246 21.7044C8.40867 21.7561 8.71901 21.782 9.08107 21.782C9.41728 21.782 9.75348 21.782 10.038 21.7561C10.3483 21.7303 10.5552 21.7303 10.7104 21.7303C10.8655 21.7303 11.15 21.7044 11.5638 21.6786C11.9776 21.6527 12.4173 21.601 12.8828 21.5492C13.3483 21.4975 13.7879 21.4458 14.2017 21.4199C14.6155 21.3682 14.9 21.3682 15.0552 21.3682C15.1586 21.3682 15.2621 21.4458 15.3396 21.5751C15.4172 21.7044 15.4431 21.8079 15.4431 21.8854L15.831 25.5837C15.8569 25.9199 15.7793 26.2561 15.5724 26.6182C15.3655 26.9544 15.1069 27.1613 14.7965 27.1871C13.969 27.2906 13.1155 27.2906 12.2879 27.1613C11.4604 27.0319 10.6069 27.0061 9.72762 27.0837C9.18452 27.1613 8.82246 27.2906 8.5897 27.4975C8.35695 27.7044 8.20178 27.963 8.12419 28.2733C8.0466 28.5837 8.02074 28.9199 8.02074 29.3078V30.4974C8.02074 30.6009 7.99488 30.8854 7.96902 31.325C7.94315 31.7647 7.89144 32.2302 7.81385 32.7215C7.76213 33.2129 7.7104 33.6784 7.65868 34.0922C7.63281 34.506 7.58109 34.7905 7.55523 34.8939C7.63281 34.9457 7.65868 35.0491 7.60695 35.2301C7.58109 35.4112 7.58109 35.5663 7.65868 35.6698C7.65868 35.9025 7.68454 36.187 7.76213 36.4974C7.83971 36.8336 8.0466 36.9887 8.3828 36.9887H9.72762H11.719H13.7103H15.0034C15.5983 36.9887 16.1672 37.0405 16.6586 37.1698C17.15 37.2732 17.4862 37.7129 17.6931 38.4111C17.6931 38.4887 17.7189 38.6698 17.7706 38.9542C17.8224 39.2387 17.8741 39.5491 17.9517 39.9111C18.0034 40.2732 18.0551 40.6353 18.1327 40.9973C18.1844 41.3594 18.2362 41.6439 18.2879 41.8249V42.1611C18.3655 42.7042 18.2362 42.9887 17.9 43.0663C17.5637 43.1439 17.1758 43.2214 16.762 43.299C15.1586 43.4801 13.581 43.5318 11.9776 43.4283C10.3742 43.3508 8.7966 43.2732 7.19316 43.2214C7.08972 43.1956 6.80523 43.1956 6.33972 43.2473C5.87421 43.299 5.61559 43.3249 5.53801 43.3249C5.38284 43.3249 5.09836 43.3249 4.71043 43.3508C4.3225 43.3766 3.88285 43.4025 3.46906 43.4283C3.02941 43.4542 2.61562 43.4801 2.25356 43.5059C1.83977 43.4801 1.58115 43.4801 1.42598 43.4801Z" fill="#2BB673"/>
<path d="M26.2253 40.2991C25.9667 38.1784 25.8891 36.006 25.9926 33.756C26.096 31.506 26.1219 29.3078 26.0443 27.1613C25.9667 25.1182 25.8633 23.101 25.7081 21.1613C25.5529 19.2217 25.5012 17.2045 25.5271 15.1614C25.5271 12.9631 25.5271 10.92 25.5529 9.00626C25.5788 7.11835 25.4236 5.10113 25.1133 2.98046C25.1909 2.38564 25.5012 1.92012 26.0443 1.58392C26.5874 1.27358 27.1305 1.06668 27.6736 0.989097C28.2943 0.911512 28.9408 0.911512 29.6908 0.989097C30.4408 1.06668 31.0356 1.35116 31.527 1.84254C31.527 1.92012 31.527 2.07529 31.5529 2.30805C31.5787 2.54081 31.5787 2.69598 31.5787 2.77356C31.7339 4.09252 31.708 5.54078 31.527 7.09249C31.346 8.64419 31.2684 10.0666 31.3718 11.3597C31.3718 11.5149 31.3977 12.0838 31.4494 13.0924C31.5012 14.101 31.5787 15.239 31.6563 16.532C31.7339 17.8251 31.8115 19.1182 31.8891 20.4372C31.9667 21.7561 32.0184 22.7906 32.0701 23.5406C32.1736 25.3509 32.2511 27.1354 32.277 28.8681C32.3029 30.6009 32.4063 32.3595 32.5873 34.1439C32.6908 34.8681 33.027 35.2819 33.5184 35.3853C34.0356 35.4888 34.5787 35.5405 35.1994 35.5146C35.7942 35.4888 36.3632 35.5146 36.8804 35.5405C37.3976 35.5922 37.6821 35.9025 37.7597 36.4974C37.7597 37.7129 37.7338 38.6956 37.6821 39.4198C37.6304 40.1698 37.5269 40.8422 37.4235 41.437C37.3201 42.0318 37.1132 42.3421 36.8545 42.3421C36.8287 42.3939 36.7511 42.3939 36.6476 42.3939H36.4408C34.9925 42.3163 33.5184 42.2646 31.9925 42.187C30.4667 42.1352 28.9667 42.0318 27.4408 41.8766C26.9495 41.8508 26.6391 41.6956 26.5098 41.437C26.4064 41.2301 26.3029 40.8422 26.2253 40.2991Z" fill="#2BB673"/>
<path d="M74.3054 43.3766C74.3313 43.2214 74.3313 42.9111 74.2796 42.4456C74.2278 41.9801 74.202 41.6697 74.202 41.5145C74.1244 40.3508 74.1244 39.2128 74.2279 38.1266C74.3313 37.0405 74.4347 35.9025 74.5899 34.687C74.6158 34.6094 74.6158 34.506 74.5899 34.3767C74.5641 34.2474 74.5382 34.1698 74.5382 34.1181C74.5382 33.1612 74.6158 32.2302 74.7451 31.325C74.8744 30.4198 74.952 29.4888 75.0037 28.5319C75.0813 26.7474 75.0554 25.0147 74.952 23.3078C74.8485 21.601 74.7968 19.8682 74.8485 18.1355C74.8485 17.9803 74.8485 17.7475 74.8744 17.4631C74.9003 17.1527 74.9003 16.8682 74.9261 16.5579C74.952 16.2476 74.952 15.9889 74.9779 15.7303C75.0037 15.4717 75.0037 15.3165 75.0037 15.2389C75.0037 15.1614 75.0296 15.0062 75.0554 14.7217C75.0813 14.4631 75.133 14.1786 75.1589 13.8941C75.1847 13.6096 75.2365 13.351 75.2623 13.0924C75.3141 12.8338 75.314 12.6786 75.314 12.601V12.42C75.314 12.1614 75.2106 11.9545 75.0296 11.8252C74.8485 11.6959 74.6416 11.6183 74.4606 11.5666C73.3227 11.6441 72.2365 11.6441 71.202 11.5924C70.1675 11.5407 69.0814 11.5407 67.9434 11.6183C67.6331 11.5407 67.3486 11.4114 67.09 11.2304C67.09 11.0493 67.0641 10.6873 67.0383 10.17C67.0124 9.65279 66.9607 9.31659 66.9348 9.16142C66.909 8.82521 66.8314 8.28211 66.7279 7.58385C66.6245 6.85971 66.5728 6.13558 66.5469 5.38559C66.521 4.66146 66.5986 3.98905 66.7538 3.39423C66.909 2.79941 67.2193 2.46321 67.7107 2.38562H67.9434L86.8743 2.59251C87.1329 2.59251 87.3398 2.6701 87.495 2.85113C87.6501 3.03217 87.7794 3.2132 87.857 3.44595C87.9605 3.67871 88.0122 3.91147 88.0639 4.17009C88.0898 4.40284 88.1156 4.60974 88.1156 4.76491C88.1156 4.79077 88.1156 4.94594 88.1415 5.20456C88.1674 5.43731 88.1932 5.74766 88.2191 6.058C88.2449 6.3942 88.2967 6.70454 88.3225 7.01488C88.4001 7.29937 88.426 7.58385 88.426 7.8166C88.426 7.92005 88.426 8.12694 88.4519 8.38556C88.4777 8.64418 88.4777 8.95452 88.5036 9.26486C88.5294 9.60107 88.5294 9.88555 88.5553 10.17C88.5812 10.4545 88.5812 10.6614 88.5812 10.7648C88.5812 10.9459 88.5294 11.1528 88.4001 11.3338C88.2967 11.5148 88.1415 11.6442 87.9346 11.67C86.9777 11.8252 86.0467 11.9028 85.0898 11.9028C84.1329 11.9028 83.2019 11.9545 82.245 12.0838C82.064 12.1097 81.883 12.1355 81.7278 12.1097C81.5726 12.0838 81.3916 12.1872 81.2105 12.3683C80.9778 12.6269 80.8485 12.9631 80.7709 13.3252C80.6933 13.6872 80.6933 14.101 80.6933 14.4889C80.6933 14.8769 80.7192 15.2907 80.745 15.6786C80.7709 16.0665 80.7968 16.4286 80.7968 16.7389C80.6157 20.9803 80.5123 25.2475 80.5123 29.5147C80.5123 33.7819 80.7709 37.9973 81.314 42.187C81.314 42.4973 81.2623 42.8594 81.1847 43.3249C81.0812 43.7904 80.8226 44.0231 80.4088 44.0749C80.3312 44.0749 80.1761 44.0749 79.9433 44.049C79.7106 44.0231 79.4519 43.9973 79.1675 43.9714C78.883 43.9197 78.6244 43.9197 78.3916 43.9197H78.0037C77.7709 43.8938 77.4864 43.8938 77.1244 43.9197C76.7623 43.9714 76.4002 43.9714 76.0382 43.9714C75.6761 43.9714 75.3399 43.9197 75.0037 43.868C74.6934 43.7387 74.4606 43.6094 74.3054 43.3766Z" fill="#2BB673"/>
<path d="M94.1154 43.4801C93.9603 43.3766 93.8051 43.2473 93.6499 43.118C93.4947 42.9887 93.4172 42.8335 93.4172 42.6266C93.2361 40.8163 93.2361 38.9543 93.443 37.1181C93.6499 35.256 93.7534 33.4198 93.7534 31.5836C93.7534 29.3078 93.6758 27.032 93.5465 24.7303C93.4172 22.4286 93.262 20.1527 93.1327 17.851C92.9775 15.5493 92.8482 13.2735 92.7706 10.9976C92.6672 8.72179 92.6672 6.47181 92.7448 4.22183C92.7448 3.98907 92.7965 3.75632 92.9517 3.4977C93.081 3.23908 93.2879 3.08391 93.5465 3.03218C93.9344 2.98046 94.3741 3.00632 94.8913 3.08391C95.4085 3.16149 95.8223 3.18736 96.1844 3.13563C96.3396 3.13563 96.624 3.13563 97.0378 3.10977C97.4516 3.08391 97.8913 3.05805 98.3826 3.05805C98.8481 3.03218 99.2878 3.00632 99.7275 3.00632C100.141 2.98046 100.426 2.98046 100.581 2.98046C100.607 2.98046 100.762 2.9546 101.046 2.92874C101.305 2.90288 101.589 2.85115 101.9 2.82529C102.21 2.77357 102.469 2.7477 102.727 2.69598C102.986 2.67012 103.141 2.64426 103.219 2.64426C103.452 2.64426 103.814 2.6184 104.331 2.59253C104.848 2.54081 105.365 2.54081 105.857 2.59253C106.374 2.6184 106.839 2.69598 107.253 2.82529C107.667 2.92874 107.9 3.16149 107.926 3.4977L108.314 8.28213C108.339 8.59248 108.21 8.85109 107.926 9.05799C107.615 9.26488 107.331 9.39419 107.072 9.42005C106.27 9.47178 105.495 9.44592 104.745 9.31661C103.995 9.1873 103.219 9.16144 102.417 9.23902C102.236 9.23902 101.977 9.23902 101.667 9.26488C101.357 9.29075 101.046 9.34247 100.736 9.39419C100.4 9.47178 100.141 9.60109 99.9085 9.7304C99.6757 9.88557 99.5723 10.1183 99.5723 10.4028C99.6757 11.9287 99.6757 13.5062 99.5723 15.1355C99.4688 16.7648 99.4688 18.3682 99.624 19.92C99.624 20.101 99.6499 20.3596 99.6757 20.6699C99.7016 20.9803 99.8309 21.213 100.012 21.4199C100.167 21.5234 100.4 21.6268 100.736 21.6786C101.072 21.7303 101.383 21.7561 101.719 21.7561C102.055 21.7561 102.391 21.7561 102.676 21.7303C102.986 21.7044 103.193 21.7044 103.348 21.7044C103.503 21.7044 103.788 21.6786 104.202 21.6527C104.615 21.6268 105.055 21.5751 105.52 21.5234C105.986 21.4717 106.426 21.4199 106.839 21.3941C107.253 21.3424 107.538 21.3424 107.693 21.3424C107.796 21.3424 107.9 21.4199 107.977 21.5492C108.055 21.6786 108.081 21.782 108.081 21.8596L108.469 25.5578C108.495 25.894 108.417 26.2302 108.21 26.5923C108.003 26.9285 107.745 27.1354 107.434 27.1613C106.607 27.2647 105.753 27.2647 104.926 27.1354C104.098 27.0061 103.245 26.9802 102.365 27.0578C101.822 27.1354 101.46 27.2647 101.227 27.4716C100.995 27.6785 100.839 27.9371 100.762 28.2475C100.684 28.5578 100.658 28.894 100.658 29.2819V30.4716C100.658 30.575 100.633 30.8595 100.607 31.2992C100.581 31.7388 100.529 32.2043 100.477 32.6957C100.426 33.1871 100.374 33.6526 100.322 34.0664C100.296 34.4802 100.245 34.7646 100.219 34.8681C100.296 34.9198 100.322 35.0233 100.271 35.2043C100.245 35.3853 100.245 35.5405 100.322 35.6439C100.322 35.8767 100.348 36.1612 100.426 36.4715C100.503 36.8077 100.71 36.9629 101.046 36.9629H102.391H104.383H106.374H107.641C108.236 36.9629 108.805 37.0146 109.296 37.1439C109.788 37.2474 110.124 37.687 110.331 38.3853C110.331 38.4629 110.357 38.6439 110.408 38.9284C110.46 39.2129 110.512 39.5232 110.589 39.8853C110.641 40.2473 110.693 40.6094 110.77 40.9715C110.822 41.3335 110.874 41.618 110.9 41.7991V42.1353C110.977 42.6784 110.848 42.9628 110.512 43.0404C110.176 43.118 109.788 43.1956 109.374 43.2732C107.77 43.4542 106.193 43.5059 104.589 43.4025C102.986 43.3249 101.408 43.2473 99.805 43.1956C99.7016 43.1697 99.4171 43.1697 98.9516 43.2215C98.4861 43.2732 98.2275 43.299 98.1499 43.299C97.9947 43.299 97.7361 43.299 97.3223 43.3249C96.9085 43.3508 96.4947 43.3766 96.0809 43.4025C95.6413 43.4283 95.2275 43.4542 94.8654 43.4801C94.5292 43.4801 94.2706 43.4801 94.1154 43.4801Z" fill="#2BB673"/>
<path d="M116.59 39.1611C116.926 38.437 117.495 37.4543 118.271 36.187C119.047 34.9198 119.848 33.575 120.624 32.1784C121.426 30.7819 122.124 29.4371 122.719 28.144C123.314 26.8509 123.624 25.8164 123.624 25.0147C123.624 24.6009 123.546 24.213 123.365 23.8768C123.184 23.5406 123.003 23.2044 122.822 22.9199C122.745 22.8423 122.615 22.6354 122.383 22.3251C122.176 22.0148 121.943 21.6527 121.684 21.2648C121.426 20.8768 121.167 20.5406 120.96 20.2044C120.753 19.8682 120.624 19.6613 120.598 19.5579C120.521 19.4027 120.34 19.0406 120.029 18.4458C119.719 17.851 119.409 17.2303 119.072 16.532C118.736 15.8596 118.426 15.2131 118.141 14.6183C117.857 14.0235 117.65 13.6614 117.547 13.5062C117.469 13.351 117.314 13.1441 117.133 12.8855C116.926 12.6269 116.693 12.3166 116.486 11.9804C116.253 11.6442 116.047 11.2821 115.866 10.8942C115.685 10.5062 115.581 10.17 115.581 9.80798C115.581 8.9804 115.762 8.30799 116.124 7.84248C116.486 7.37696 116.874 6.83387 117.288 6.29077C117.391 6.16146 117.624 5.95457 117.909 5.61836C118.219 5.28216 118.529 4.92009 118.84 4.53217C119.15 4.14424 119.46 3.78217 119.745 3.42011C120.029 3.0839 120.236 2.82529 120.34 2.67011H120.521C120.702 2.67011 120.909 2.77356 121.115 2.98046C121.322 3.18735 121.478 3.36838 121.607 3.52355C122.15 4.40286 122.667 5.28216 123.159 6.18732C123.676 7.09249 124.193 7.99765 124.762 8.87695C125.305 9.75625 125.874 10.6356 126.469 11.4631C127.064 12.2907 127.71 13.0666 128.434 13.7907C128.59 13.4028 128.9 12.7304 129.34 11.7476C129.779 10.7649 130.271 9.73039 130.788 8.64419C131.305 7.558 131.771 6.52353 132.236 5.54078C132.702 4.55803 133.012 3.85976 133.193 3.49769C133.271 3.42011 133.374 3.26494 133.477 3.03218C133.581 2.79942 133.684 2.67011 133.762 2.64425L133.814 2.59253L133.995 2.64425C134.021 2.64425 134.15 2.72184 134.331 2.90287C134.512 3.0839 134.641 3.18735 134.719 3.26494C134.874 3.36838 135.133 3.60114 135.521 3.93734C135.908 4.27355 136.296 4.63561 136.736 5.02354C137.176 5.41147 137.589 5.77353 137.952 6.10974C138.339 6.44594 138.598 6.6787 138.753 6.80801C138.857 6.96318 138.934 7.06662 138.96 7.09248C138.986 7.11835 138.986 7.24766 138.986 7.42869C138.986 7.68731 138.986 7.86834 138.96 7.92006C138.934 7.97179 138.883 8.12696 138.753 8.33385C137.719 10.5062 136.736 12.6528 135.779 14.8252C134.822 16.9976 133.943 19.2734 133.193 21.6527V21.9889V22.3251C133.219 22.4285 133.322 22.713 133.452 23.1785C133.581 23.644 133.684 23.9285 133.762 24.0837C133.865 24.3423 134.098 24.782 134.46 25.4285C134.822 26.0492 135.21 26.7216 135.598 27.4199C135.986 28.1181 136.374 28.7905 136.762 29.4112C137.15 30.0319 137.408 30.4716 137.564 30.756C137.564 30.8078 137.641 30.9629 137.77 31.2474C137.9 31.5319 138.055 31.8422 138.184 32.1784C138.339 32.5146 138.495 32.8767 138.65 33.2388C138.805 33.6008 138.908 33.8853 138.986 34.0664C139.064 34.2991 139.167 34.5836 139.322 34.9198C139.477 35.256 139.633 35.5922 139.788 35.9543C139.943 36.3681 140.124 36.7818 140.305 37.1439V37.7646C139.891 38.3077 139.477 38.7991 139.115 39.2387C138.805 39.6525 138.469 40.0922 138.133 40.5059C137.77 40.9456 137.486 41.3077 137.253 41.618C137.15 41.7215 136.943 41.9542 136.684 42.2646C136.426 42.6008 136.141 42.937 135.857 43.299C135.572 43.6611 135.288 43.9973 135.029 44.3335C134.771 44.6438 134.589 44.8766 134.512 44.98L134.227 44.6438C133.4 42.6008 132.546 40.6611 131.719 38.8767C130.891 37.0663 129.96 35.1784 128.977 33.1612C128.796 32.8509 128.615 32.5922 128.46 32.3336C128.305 32.075 128.124 31.8681 127.891 31.6871C127.736 32.075 127.452 32.7215 127.012 33.6784C126.572 34.6353 126.107 35.6439 125.641 36.7043C125.176 37.7646 124.71 38.7732 124.271 39.7301C123.831 40.687 123.546 41.3077 123.391 41.6697C123.288 41.8508 123.133 42.1611 122.926 42.6008C122.719 43.0404 122.538 43.4801 122.331 43.9456C122.124 44.4111 121.917 44.799 121.684 45.1352C121.452 45.4714 121.219 45.6525 121.012 45.6525H120.909C120.883 45.6525 120.857 45.6266 120.857 45.6007C120.702 45.4456 120.443 45.1611 120.055 44.7731C119.667 44.3594 119.253 43.9456 118.84 43.5059L117.598 42.2646C117.21 41.8766 116.926 41.5663 116.771 41.3853C116.693 41.3335 116.616 41.2818 116.564 41.1525C116.512 41.049 116.435 40.9197 116.357 40.8163C116.253 40.6611 116.15 40.5318 116.072 40.4284L116.59 39.1611Z" fill="#2BB673"/>
<path d="M150.207 43.3766C150.233 43.2214 150.233 42.9111 150.181 42.4456C150.129 41.9801 150.103 41.6697 150.103 41.5145C150.026 40.3508 150.026 39.2128 150.129 38.1267C150.233 37.0405 150.336 35.9025 150.491 34.687C150.517 34.6094 150.517 34.506 150.491 34.3767C150.465 34.2474 150.44 34.1698 150.44 34.1181C150.44 33.1612 150.491 32.2302 150.646 31.325C150.776 30.4198 150.853 29.4888 150.905 28.5319C150.983 26.7475 150.957 25.0147 150.853 23.3078C150.75 21.601 150.698 19.8682 150.75 18.1355C150.75 17.9803 150.75 17.7475 150.776 17.4631C150.802 17.1527 150.802 16.8682 150.827 16.5579C150.853 16.2476 150.853 15.9889 150.879 15.7303C150.905 15.4717 150.905 15.3165 150.905 15.2389C150.905 15.1614 150.931 15.0062 150.957 14.7217C150.983 14.4631 151.034 14.1786 151.06 13.8941C151.086 13.6096 151.138 13.351 151.164 13.0924C151.19 12.8338 151.215 12.6786 151.215 12.601V12.42C151.215 12.1614 151.112 11.9545 150.931 11.8252C150.75 11.6959 150.543 11.6183 150.362 11.5666C149.224 11.6442 148.138 11.6442 147.103 11.5924C146.069 11.5407 144.983 11.5407 143.845 11.6183C143.534 11.5407 143.25 11.4114 142.991 11.2304C142.991 11.0493 142.966 10.6873 142.94 10.17C142.914 9.65279 142.862 9.31659 142.836 9.16142C142.81 8.82521 142.733 8.28211 142.629 7.58385C142.526 6.85971 142.474 6.13558 142.448 5.38559C142.422 4.66146 142.5 3.98905 142.655 3.39423C142.81 2.79941 143.121 2.46321 143.612 2.38562H143.845L162.776 2.59251C163.034 2.59251 163.241 2.6701 163.396 2.85113C163.552 3.03217 163.681 3.2132 163.758 3.44595C163.862 3.67871 163.914 3.91147 163.965 4.17009C163.991 4.40284 164.017 4.60974 164.017 4.76491C164.017 4.79077 164.017 4.94594 164.043 5.20456C164.069 5.43731 164.095 5.74766 164.12 6.058C164.146 6.3942 164.198 6.70454 164.224 7.01489C164.25 7.35109 164.276 7.60971 164.276 7.84246C164.276 7.94591 164.276 8.15281 164.301 8.41142C164.327 8.67004 164.327 8.98038 164.353 9.29073C164.379 9.62693 164.379 9.91141 164.405 10.1959C164.431 10.4804 164.431 10.6873 164.431 10.7907C164.431 10.9717 164.379 11.1786 164.25 11.3597C164.146 11.5407 163.991 11.67 163.784 11.6959C162.827 11.851 161.896 11.9286 160.939 11.9286C159.983 11.9286 159.052 11.9804 158.095 12.1097C157.914 12.1355 157.733 12.1614 157.577 12.1355C157.422 12.1097 157.241 12.2131 157.06 12.3941C156.827 12.6528 156.698 12.989 156.646 13.351C156.595 13.739 156.569 14.1269 156.569 14.5148C156.569 14.9027 156.595 15.3165 156.621 15.7045C156.646 16.0924 156.672 16.4544 156.672 16.7648C156.491 21.0061 156.388 25.2733 156.388 29.5405C156.388 33.8077 156.646 38.0232 157.189 42.2128C157.189 42.5232 157.138 42.8852 157.034 43.3507C156.931 43.8163 156.672 44.049 156.258 44.1007H156.207C156.129 44.1007 155.974 44.1007 155.741 44.0749C155.508 44.049 155.25 44.0231 154.965 43.9973C154.681 43.9456 154.422 43.9456 154.19 43.9456H153.802C153.569 43.9197 153.284 43.9197 152.922 43.9456C152.56 43.9973 152.198 43.9973 151.836 43.9973C151.474 43.9973 151.138 43.9456 150.802 43.8938C150.595 43.7387 150.362 43.6094 150.207 43.3766Z" fill="#2BB673"/>
<path d="M169.214 33.8595C169.189 33.7043 169.137 33.4974 169.137 33.2388C169.111 32.9802 169.111 32.6957 169.085 32.4371C169.059 32.1785 169.059 31.9457 169.033 31.7388C169.008 31.5319 169.008 31.3767 169.008 31.2992C168.982 30.575 168.93 29.644 168.904 28.4802C168.878 27.3164 168.827 26.1785 168.801 25.0406C168.775 23.9027 168.723 22.8941 168.697 22.0148C168.671 21.1355 168.646 20.6441 168.646 20.5406C168.646 19.4027 168.671 18.1614 168.723 16.8165C168.775 15.4717 168.904 14.1011 169.085 12.7304C169.266 11.3338 169.577 10.0149 170.016 8.69594C170.456 7.37698 171.025 6.2132 171.749 5.20459C172.473 4.17012 173.378 3.34254 174.516 2.69599C175.628 2.04945 176.999 1.66152 178.576 1.55807H179.714C180.775 1.71325 181.809 1.946 182.792 2.28221C183.775 2.59255 184.68 3.0322 185.456 3.60116C186.257 4.14426 186.93 4.81666 187.525 5.56666C188.119 6.31665 188.559 7.24767 188.869 8.30801C188.895 8.46318 188.947 8.82525 189.025 9.42007C189.076 10.0149 189.102 10.4028 189.102 10.5838C189.102 10.8942 189.102 11.3338 189.128 11.9287C189.154 12.5235 189.154 12.8597 189.154 12.9373C189.154 13.3252 189.154 14.1528 189.18 15.42C189.206 16.6872 189.232 18.0838 189.257 19.5838C189.283 21.0837 189.335 22.532 189.335 23.9544C189.361 25.3768 189.361 26.4371 189.361 27.1095C189.361 28.0664 189.361 29.1526 189.387 30.394C189.413 31.6354 189.361 32.9026 189.283 34.2215C189.18 35.5405 189.025 36.8595 188.766 38.1525C188.507 39.4456 188.119 40.6094 187.551 41.618C186.982 42.6525 186.232 43.4801 185.326 44.1525C184.421 44.8249 183.257 45.187 181.861 45.2645C180.645 45.3421 179.507 45.2645 178.421 45.0318C177.335 44.799 176.223 44.4887 175.085 44.1266C173.947 43.7904 173.016 43.2473 172.292 42.5491C171.568 41.8249 170.999 40.9973 170.559 40.0405C170.12 39.0836 169.809 38.075 169.602 37.0146C169.37 35.8767 169.24 34.8681 169.214 33.8595ZM176.766 33.4716C176.844 34.2733 177.076 34.9715 177.464 35.6181C177.852 36.2388 178.525 36.5233 179.43 36.4457C180.051 36.3939 180.49 36.2388 180.801 35.9026C181.111 35.5664 181.318 35.1784 181.447 34.7129C181.576 34.2474 181.654 33.7302 181.68 33.2129C181.706 32.6698 181.732 32.1785 181.757 31.7388V31.2474C181.757 30.9888 181.757 30.7302 181.783 30.4457C181.809 30.1612 181.809 29.9026 181.809 29.644V29.2044C181.913 27.2647 181.99 25.5061 181.99 23.8768C181.99 22.2475 181.938 20.4889 181.809 18.5493C181.809 18.3165 181.783 17.9545 181.757 17.4372C181.732 16.92 181.68 16.3769 181.654 15.7821C181.628 15.1873 181.576 14.6442 181.551 14.1269C181.525 13.6097 181.499 13.2476 181.499 13.0149C181.421 12.7821 181.292 12.4718 181.085 12.0838C180.878 11.6959 180.645 11.308 180.413 10.9459C180.154 10.5838 179.87 10.2735 179.559 10.0149C179.249 9.75627 178.939 9.62696 178.628 9.62696C178.24 9.67869 177.904 9.83386 177.62 10.1701C177.335 10.4804 177.102 10.8942 176.947 11.3338C176.766 11.7994 176.637 12.2649 176.559 12.7304C176.456 13.1959 176.404 13.5838 176.352 13.8942C176.326 13.9717 176.275 14.1528 176.249 14.4631C176.223 14.7735 176.171 15.1097 176.12 15.4976C176.068 15.8855 176.016 16.2476 175.939 16.5838C175.887 16.92 175.861 17.1269 175.861 17.2045V18.0062V19.532C175.861 20.101 175.861 20.67 175.835 21.2131C175.809 21.7562 175.809 22.1958 175.809 22.4803V22.9458C175.809 23.0234 175.809 23.0751 175.835 23.1268C175.861 23.1786 175.861 23.2303 175.861 23.3079V23.5406C175.887 23.9285 175.964 24.5751 176.068 25.532C176.171 26.4889 176.275 27.4716 176.378 28.5061C176.482 29.5406 176.585 30.5492 176.663 31.5061C176.689 32.4371 176.74 33.0836 176.766 33.4716Z" fill="#2BB673"/>
<path d="M218.764 34.4284C219.022 33.7043 219.514 33.2388 220.212 33.0319C220.91 32.825 221.738 32.7733 222.721 32.8509C223.677 32.9543 224.764 33.1095 225.953 33.394C227.143 33.6526 228.384 33.9112 229.677 34.1439C230.195 34.1181 230.66 33.9629 231.074 33.756C231.462 33.5233 231.85 33.2388 232.186 32.8767C232.522 32.5147 232.858 32.1009 233.143 31.6612C233.453 31.1957 233.764 30.7561 234.1 30.2905C234.126 30.2647 234.177 30.1612 234.203 30.0319C234.229 29.9026 234.255 29.825 234.255 29.7733L234.022 26.4113C233.945 26.3854 233.712 26.1785 233.298 25.8423C232.91 25.5061 232.6 25.2475 232.367 25.0406C232.289 24.963 232.134 24.8596 231.927 24.7302C231.72 24.6009 231.565 24.5234 231.514 24.5234C230.195 23.9544 228.953 23.4889 227.789 23.1527C226.626 22.8165 225.565 22.4027 224.557 21.9372C223.548 21.4717 222.643 20.8251 221.815 19.9975C220.988 19.17 220.29 18.0062 219.695 16.5062C219.695 16.4027 219.695 16.2217 219.669 15.989C219.643 15.7562 219.617 15.5234 219.591 15.2907C219.565 15.0321 219.514 14.8252 219.514 14.6183C219.488 14.4114 219.488 14.2821 219.488 14.2045C219.462 13.6614 219.41 13.1183 219.333 12.4976C219.281 11.8769 219.333 11.3338 219.54 10.7907C219.565 10.6356 219.643 10.3511 219.772 9.96315C219.876 9.57522 220.031 9.16143 220.16 8.74764C220.315 8.33386 220.445 7.92007 220.6 7.558C220.729 7.17007 220.807 6.91146 220.859 6.75628V6.44594C221.091 6.10974 221.298 5.85112 221.479 5.64423C221.66 5.46319 221.841 5.2563 222.022 5.0494C222.203 4.84251 222.333 4.68734 222.436 4.55803C223.677 3.16149 224.919 2.10116 226.16 1.37703C227.402 0.652896 228.902 0.213245 230.686 0.00635045C231.177 -0.0195114 231.902 0.0322123 232.858 0.187383C233.815 0.342554 234.746 0.57531 235.703 0.885652C236.66 1.19599 237.488 1.58392 238.212 2.04943C238.936 2.51495 239.324 3.03218 239.35 3.60114C239.376 3.93735 239.376 4.40286 239.298 4.97182C239.22 5.54078 239.091 6.10974 238.936 6.6787C238.755 7.24766 238.548 7.73903 238.264 8.17868C237.979 8.61834 237.643 8.85109 237.255 8.87695C236.272 8.95454 235.289 8.95454 234.307 8.85109C233.324 8.74764 232.341 8.74764 231.333 8.82523C231.151 8.82523 230.764 8.85109 230.169 8.92868C229.574 9.00626 229.186 9.03212 229.005 9.03212C228.902 9.10971 228.72 9.18729 228.462 9.29074C228.203 9.39419 227.97 9.49764 227.712 9.65281C227.453 9.80798 227.246 9.96315 227.091 10.0925C226.91 10.2476 226.833 10.4028 226.833 10.558L227.117 13.9717C227.117 14.1528 227.246 14.3338 227.479 14.5148C227.712 14.6959 227.996 14.851 228.281 15.0321C228.565 15.2131 228.85 15.3683 229.16 15.4976C229.47 15.6269 229.677 15.7045 229.781 15.7562C231.307 16.4803 232.677 17.1527 233.945 17.7993C235.186 18.4458 236.272 19.1958 237.177 20.0751C238.082 20.9544 238.807 21.9889 239.376 23.1785C239.919 24.3682 240.281 25.8682 240.436 27.6526C240.591 29.2043 240.488 30.7561 240.126 32.256C239.763 33.7819 239.169 35.1267 238.367 36.3163C237.539 37.506 236.531 38.5146 235.264 39.2904C234.022 40.0922 232.6 40.5577 230.996 40.7128C229.677 40.868 228.307 40.8939 226.91 40.7646C225.514 40.6611 224.221 40.3766 223.057 39.9111C221.893 39.4456 220.936 38.7732 220.134 37.8939C219.333 37.0405 218.867 35.8767 218.764 34.4284Z" fill="#2BB673"/>
<path d="M246.469 33.8595C246.443 33.7043 246.392 33.4974 246.392 33.2388C246.366 32.9802 246.366 32.6957 246.34 32.4371C246.314 32.1785 246.314 31.9457 246.288 31.7388C246.262 31.5319 246.262 31.3767 246.262 31.2992C246.237 30.575 246.185 29.644 246.159 28.4802C246.133 27.3164 246.081 26.1785 246.056 25.0406C246.03 23.9027 245.978 22.8941 245.952 22.0148C245.926 21.1355 245.9 20.6441 245.9 20.5406C245.9 19.4027 245.926 18.1614 245.978 16.8165C246.03 15.4717 246.159 14.1011 246.34 12.7304C246.521 11.3338 246.831 10.0149 247.271 8.69594C247.711 7.37698 248.28 6.2132 249.004 5.20459C249.728 4.17012 250.633 3.34254 251.771 2.69599C252.883 2.04945 254.254 1.66152 255.831 1.55807H256.969C258.03 1.71325 259.064 1.946 260.047 2.28221C261.03 2.59255 261.935 3.0322 262.711 3.60116C263.512 4.14426 264.185 4.81666 264.78 5.56666C265.374 6.31665 265.814 7.24767 266.124 8.30801C266.15 8.46318 266.202 8.82525 266.28 9.42007C266.331 10.0149 266.357 10.4028 266.357 10.5838C266.357 10.8942 266.357 11.3338 266.383 11.9287C266.409 12.5235 266.409 12.8597 266.409 12.9373C266.409 13.3252 266.409 14.1528 266.435 15.42C266.461 16.6872 266.486 18.0838 266.512 19.5838C266.538 21.0837 266.59 22.532 266.59 23.9544C266.616 25.3768 266.616 26.4371 266.616 27.1095C266.616 28.0664 266.616 29.1526 266.642 30.394C266.667 31.6354 266.616 32.9026 266.538 34.2215C266.435 35.5405 266.28 36.8595 266.021 38.1525C265.762 39.4456 265.374 40.6094 264.805 41.618C264.236 42.6525 263.486 43.4801 262.581 44.1525C261.676 44.8249 260.512 45.187 259.116 45.2645C257.9 45.3421 256.762 45.2645 255.676 45.0318C254.59 44.799 253.478 44.4887 252.34 44.1266C251.202 43.7904 250.271 43.2473 249.547 42.5491C248.823 41.8249 248.254 40.9973 247.814 40.0405C247.375 39.0836 247.064 38.075 246.857 37.0146C246.625 35.8767 246.521 34.8681 246.469 33.8595ZM254.047 33.4716C254.124 34.2733 254.357 34.9715 254.745 35.6181C255.133 36.2388 255.805 36.5233 256.711 36.4457C257.331 36.3939 257.771 36.2388 258.081 35.9026C258.392 35.5664 258.599 35.1784 258.728 34.7129C258.857 34.2474 258.935 33.7302 258.961 33.2129C258.986 32.6698 259.012 32.1785 259.038 31.7388V31.2474C259.038 30.9888 259.038 30.7302 259.064 30.4457C259.09 30.1612 259.09 29.9026 259.09 29.644V29.2044C259.193 27.2647 259.271 25.5061 259.271 23.8768C259.271 22.2475 259.219 20.4889 259.09 18.5493C259.09 18.3165 259.064 17.9545 259.038 17.4372C259.012 16.92 258.961 16.3769 258.935 15.7821C258.909 15.1873 258.857 14.6442 258.831 14.1269C258.805 13.6097 258.78 13.2476 258.78 13.0149C258.702 12.7821 258.573 12.4718 258.366 12.0838C258.159 11.6959 257.926 11.308 257.693 10.9459C257.435 10.5838 257.15 10.2735 256.84 10.0149C256.53 9.75627 256.219 9.62696 255.909 9.62696C255.521 9.67869 255.185 9.83386 254.9 10.1701C254.616 10.4804 254.383 10.8942 254.228 11.3338C254.047 11.7994 253.918 12.2649 253.84 12.7304C253.737 13.1959 253.685 13.5838 253.633 13.8942C253.607 13.9717 253.555 14.1528 253.53 14.4631C253.504 14.7735 253.452 15.1097 253.4 15.4976C253.349 15.8855 253.297 16.2476 253.219 16.5838C253.168 16.92 253.142 17.1269 253.142 17.2045V18.0062V19.532C253.142 20.101 253.142 20.67 253.116 21.2131C253.09 21.7562 253.09 22.1958 253.09 22.4803V22.9458C253.09 23.0234 253.09 23.0751 253.116 23.1268C253.142 23.1786 253.142 23.2303 253.142 23.3079V23.5406C253.168 23.9285 253.245 24.5751 253.349 25.532C253.452 26.4889 253.555 27.4716 253.659 28.5061C253.762 29.5406 253.866 30.5492 253.943 31.5061C253.943 32.4371 253.995 33.0836 254.047 33.4716Z" fill="#2BB673"/>
<path d="M274.915 43.6094C274.889 43.299 274.863 43.0663 274.863 42.8594C274.863 42.6784 274.889 42.4197 274.967 42.1094L274.915 30.213C274.501 27.3164 274.269 24.3941 274.243 21.4199C274.191 18.4458 274.139 15.5234 274.01 12.6786C273.906 11.3597 273.803 10.0149 273.7 8.69593C273.596 7.37698 273.57 6.03216 273.622 4.71321C273.622 4.48045 273.596 4.27356 273.544 4.06666C273.493 3.85977 273.519 3.65288 273.622 3.42012C273.855 3.08392 274.191 2.79944 274.631 2.6184C275.07 2.43737 275.536 2.2822 276.053 2.20461C276.57 2.10117 277.062 2.04944 277.553 2.02358C278.044 1.99772 278.458 1.97186 278.82 1.946C279.725 1.86841 280.579 1.946 281.381 2.17875C282.182 2.41151 282.906 2.74771 283.605 3.18736C284.277 3.62701 284.924 4.14425 285.493 4.73907C286.062 5.33389 286.553 5.98044 286.967 6.67871C287.122 6.98905 287.251 7.32525 287.329 7.73904C287.432 8.12697 287.536 8.46317 287.691 8.72179L288.079 12.4718C288.053 12.5493 288.001 12.7562 287.975 13.0924C287.949 13.4286 287.924 13.6614 287.924 13.7648C287.846 14.3597 287.691 14.9804 287.458 15.6269C287.225 16.2476 287.148 16.8424 287.225 17.4114C287.251 17.9027 287.51 18.3424 287.924 18.7562C288.363 19.1441 288.725 19.532 289.036 19.8682C289.139 19.9717 289.346 20.2044 289.656 20.5406C289.967 20.8768 290.174 21.1096 290.277 21.213C290.251 21.3424 290.329 21.5493 290.536 21.9113C290.743 22.2475 291.001 22.6354 291.286 23.0751C291.57 23.5147 291.829 23.9544 292.036 24.3941C292.242 24.8337 292.32 25.1699 292.294 25.3768C292.32 25.4802 292.424 25.713 292.553 25.9975C292.682 26.3078 292.811 26.6182 292.941 26.9544C293.07 27.2906 293.174 27.6009 293.277 27.8854C293.38 28.1699 293.432 28.3768 293.484 28.4802C293.484 28.5061 293.51 28.7647 293.536 29.2043C293.561 29.644 293.639 29.9802 293.717 30.213C293.898 31.9198 293.872 33.5491 293.587 35.1267C293.303 36.7043 292.889 38.2818 292.372 39.8853C292.398 39.9629 292.398 40.0663 292.372 40.1698C292.346 40.2732 292.294 40.3767 292.268 40.4542C291.88 41.1784 291.467 41.8508 291.001 42.4715C290.536 43.0921 289.863 43.5318 288.984 43.8163C288.829 43.8163 288.596 43.8421 288.26 43.868C287.924 43.9197 287.587 43.9456 287.199 44.0232C286.812 44.0749 286.475 44.1266 286.139 44.1525C285.803 44.1783 285.57 44.2042 285.415 44.2042C285.182 44.2042 284.872 44.2301 284.51 44.2559C284.122 44.3077 283.76 44.3335 283.372 44.3594C282.984 44.3852 282.648 44.437 282.363 44.437C282.079 44.4628 281.924 44.4628 281.872 44.4628C281.846 44.4628 281.743 44.4628 281.587 44.4887C281.432 44.5145 281.251 44.5145 281.07 44.5145C280.889 44.5145 280.682 44.5145 280.501 44.4887C280.32 44.4628 280.165 44.4628 280.113 44.4628C279.622 44.4628 279.105 44.437 278.536 44.3852C277.993 44.3335 277.45 44.3076 276.906 44.3076C276.338 44.3335 275.872 44.3852 275.536 44.4111C275.2 44.4887 274.993 44.2042 274.915 43.6094ZM280.087 14.7476C280.113 14.8769 280.217 14.9545 280.346 14.9804C280.475 15.0321 280.579 15.0321 280.656 15.0321C280.837 14.9804 280.967 14.9028 280.993 14.7476C281.329 14.0752 281.536 13.4286 281.613 12.808C281.691 12.2131 281.691 11.5149 281.613 10.7649C281.587 10.5838 281.536 10.3511 281.484 10.1183C281.432 9.85971 281.329 9.65282 281.199 9.44592C281.07 9.23903 280.915 9.05799 280.708 8.92869C280.527 8.79938 280.294 8.74765 280.036 8.79938C280.01 8.79938 279.932 8.82524 279.829 8.8511C279.725 8.87696 279.674 8.90282 279.622 8.90282L279.441 9.23903L280.087 14.7476ZM280.372 37.9715C280.398 38.3594 280.656 38.618 281.148 38.7732C281.613 38.9284 282.001 38.9801 282.312 38.9543C283.346 38.8508 284.148 38.5663 284.768 38.1525C285.389 37.7387 285.803 37.2215 286.087 36.6267C286.346 36.0319 286.501 35.3336 286.553 34.5836C286.579 33.8336 286.553 33.0578 286.449 32.3078C286.294 30.8595 285.958 29.4112 285.415 27.963C284.872 26.5147 283.941 25.3251 282.622 24.3941C282.363 24.2389 282.131 24.1096 281.924 24.032C281.717 23.9285 281.458 23.9027 281.148 23.9544C280.915 23.9544 280.76 24.0578 280.631 24.2389C280.527 24.4199 280.45 24.6527 280.398 24.8854C280.346 25.144 280.346 25.3768 280.346 25.6613V26.282V31.0147C280.372 31.0923 280.424 31.2992 280.45 31.6612C280.475 32.0233 280.501 32.2302 280.501 32.3078C280.527 33.2905 280.501 34.2474 280.424 35.1526C280.32 36.0319 280.294 36.9888 280.372 37.9715Z" fill="#2BB673"/>
<path d="M316.343 44.9025C315.619 43.868 315.05 42.9887 314.636 42.187C314.223 41.4111 313.731 40.5577 313.214 39.6525C313.136 39.5232 313.007 39.3681 312.826 39.1612C312.645 38.9543 312.464 38.7215 312.283 38.5146C312.102 38.2819 311.973 38.075 311.869 37.8681C311.766 37.6612 311.74 37.4543 311.817 37.2733C311.352 36.6267 310.912 35.9543 310.473 35.2819C310.033 34.5836 309.619 33.9371 309.205 33.2905H309.102C309.076 33.2905 309.024 33.2647 308.998 33.2388C308.662 33.1612 308.533 33.3164 308.611 33.7043C308.636 34.0923 308.688 34.7647 308.714 35.7474C308.74 36.7302 308.792 37.7905 308.843 38.9025C308.895 40.0146 308.947 41.0749 309.024 42.0836C309.076 43.0922 309.128 43.7904 309.154 44.1525L309.205 44.3335C309.128 44.437 309.024 44.5922 308.869 44.7732C308.714 44.9542 308.611 45.0059 308.585 44.9801L302.792 45.368C302.455 45.4197 302.171 45.2646 301.938 44.9542C301.705 44.618 301.576 44.3335 301.55 44.0749C301.55 44.0232 301.55 43.9973 301.576 43.9973C301.602 43.9715 301.602 43.9197 301.602 43.868V43.687C301.602 43.6611 301.628 43.5577 301.654 43.3766C301.68 43.1956 301.731 43.0146 301.757 42.8335C301.783 42.6525 301.835 42.4715 301.861 42.3163C301.886 42.1611 301.912 42.0577 301.912 42.0318C301.912 41.9284 301.886 41.6698 301.835 41.256C301.783 40.868 301.731 40.4284 301.68 40.0146C301.654 39.575 301.602 39.1612 301.576 38.7991C301.55 38.4112 301.524 38.1784 301.524 38.0491V36.6526C301.524 35.9026 301.524 35.1267 301.499 34.2991C301.473 33.4716 301.473 32.6699 301.447 31.9457C301.421 31.2216 301.421 30.7302 301.421 30.5492C301.421 30.3682 301.395 30.0061 301.369 29.5147C301.343 29.0233 301.292 28.4802 301.266 27.9113C301.24 27.3423 301.188 26.8251 301.162 26.3078C301.136 25.8165 301.111 25.4803 301.111 25.2734C301.136 25.1958 301.162 25.0148 301.162 24.7561V24.2389C301.266 20.9286 301.292 17.67 301.214 14.4631C301.136 11.2304 301.033 7.99768 300.93 4.73909C300.93 4.63564 300.93 4.40289 300.904 4.11841C300.878 3.80807 300.852 3.49772 300.826 3.13566C300.8 2.79946 300.749 2.46325 300.749 2.12705C300.723 1.81671 300.723 1.58395 300.723 1.4805C300.8 1.24775 300.904 1.11844 301.033 1.09258C301.162 1.06671 301.317 1.04085 301.447 1.04085C302.973 0.937404 304.447 0.859819 305.895 0.833957C307.343 0.808095 308.688 0.963266 309.955 1.27361C311.223 1.58395 312.386 2.12705 313.395 2.9029C314.429 3.6529 315.283 4.73909 315.955 6.13563C316.447 7.11838 316.938 8.07527 317.429 9.00629C317.921 9.93732 318.205 10.9459 318.283 12.058C318.438 14.3338 318.05 16.4545 317.119 18.3941C316.188 20.3596 314.869 22.1182 313.162 23.7217C313.007 23.9027 312.929 24.1096 312.929 24.3423C313.007 24.6786 313.136 25.0148 313.369 25.2992C313.576 25.6096 313.654 25.9199 313.576 26.282L315.904 30.9371V31.1181L318.231 34.8681C318.231 34.894 318.386 35.2302 318.722 35.7991C319.033 36.394 319.421 37.0405 319.835 37.7905C320.248 38.5405 320.636 39.2646 320.972 40.0146C321.309 40.7646 321.516 41.3077 321.541 41.6956C321.567 42.0318 321.464 42.4198 321.179 42.8335C320.895 43.2473 320.533 43.6353 320.119 43.9715C319.705 44.3077 319.266 44.5922 318.8 44.8508C318.335 45.0835 317.947 45.2128 317.61 45.2128C316.99 45.3163 316.602 45.2128 316.343 44.9025ZM306.774 17.8252C306.929 18.0062 307.033 18.1614 307.136 18.2648C307.24 18.3683 307.395 18.42 307.628 18.4717C308.378 18.3941 308.998 18.1097 309.49 17.6441C309.955 17.1786 310.317 16.6097 310.576 15.989C310.835 15.3683 310.99 14.7218 311.067 14.0235C311.145 13.3511 311.171 12.7563 311.171 12.2649C311.145 11.877 311.042 11.4114 310.886 10.8683C310.731 10.3252 310.524 9.80801 310.266 9.29077C310.007 8.7994 309.671 8.38561 309.257 8.07527C308.869 7.76492 308.378 7.60975 307.809 7.63561C307.421 7.68734 307.136 7.89423 306.93 8.2563C306.723 8.64423 306.567 9.08388 306.516 9.57525C306.438 10.0666 306.412 10.558 306.412 11.0235V12.0321C306.412 12.0838 306.412 12.2132 306.438 12.4201C306.464 12.6528 306.464 12.9114 306.49 13.2218C306.516 13.5321 306.516 13.8425 306.542 14.1528C306.567 14.489 306.593 14.7218 306.619 14.9286C306.619 15.0321 306.619 15.239 306.645 15.4976C306.671 15.7562 306.697 16.0666 306.697 16.3769C306.723 16.7131 306.723 16.9976 306.748 17.2562C306.774 17.5148 306.774 17.7217 306.774 17.8252Z" fill="#2BB673"/>
<path d="M327.316 43.4801C327.16 43.3766 327.005 43.2473 326.85 43.118C326.695 42.9887 326.617 42.8335 326.617 42.6266C326.436 40.8163 326.436 38.9542 326.643 37.1181C326.85 35.256 326.954 33.4198 326.954 31.5836C326.954 29.3078 326.876 27.0319 326.747 24.7302C326.617 22.4285 326.462 20.1527 326.333 17.851C326.178 15.5493 326.048 13.2735 325.971 10.9976C325.867 8.72178 325.867 6.47181 325.945 4.22183C325.945 3.98907 326.023 3.75632 326.152 3.4977C326.281 3.23908 326.488 3.08391 326.747 3.03218C327.135 2.98046 327.574 3.00632 328.091 3.08391C328.609 3.16149 329.023 3.18736 329.359 3.13563C329.514 3.13563 329.798 3.13563 330.212 3.10977C330.626 3.08391 331.066 3.05805 331.557 3.05805C332.022 3.03218 332.462 3.00632 332.902 3.00632C333.316 2.98046 333.6 2.98046 333.755 2.98046C333.781 2.98046 333.936 2.9546 334.221 2.92874C334.479 2.90288 334.764 2.85115 335.074 2.82529C335.385 2.77357 335.643 2.7477 335.902 2.69598C336.16 2.67012 336.316 2.64426 336.393 2.64426C336.626 2.64426 336.988 2.6184 337.505 2.59253C338.022 2.54081 338.54 2.54081 339.031 2.59253C339.548 2.6184 340.014 2.69598 340.428 2.82529C340.841 2.92874 341.074 3.16149 341.1 3.4977L341.488 8.28213C341.514 8.59248 341.384 8.85109 341.1 9.05799C340.79 9.26488 340.505 9.39419 340.247 9.42005C339.497 9.49764 338.721 9.47178 337.971 9.34247C337.221 9.21316 336.445 9.1873 335.643 9.26488C335.462 9.26488 335.203 9.26488 334.893 9.29074C334.583 9.31661 334.272 9.36833 333.962 9.42005C333.626 9.49764 333.367 9.62695 333.135 9.75626C332.902 9.91143 332.798 10.1442 332.798 10.4287C332.902 11.9545 332.902 13.5321 332.798 15.1614C332.695 16.7907 332.695 18.3941 332.85 19.9458C332.85 20.1268 332.876 20.3855 332.902 20.6958C332.928 21.0061 333.057 21.2389 333.238 21.4458C333.393 21.5492 333.626 21.6527 333.936 21.7044C334.272 21.7561 334.583 21.782 334.945 21.782C335.281 21.782 335.617 21.782 335.902 21.7561C336.212 21.7303 336.445 21.7303 336.574 21.7303C336.729 21.7303 337.014 21.7044 337.428 21.6786C337.841 21.6527 338.281 21.601 338.747 21.5492C339.212 21.4975 339.652 21.4458 340.066 21.4199C340.479 21.3682 340.764 21.3682 340.919 21.3682C341.022 21.3682 341.126 21.4458 341.203 21.5751C341.281 21.7044 341.307 21.8079 341.307 21.8854L341.695 25.5837C341.721 25.9199 341.643 26.2561 341.436 26.6182C341.229 26.9544 340.971 27.1613 340.66 27.1871C339.833 27.2906 338.979 27.2906 338.152 27.1613C337.324 27.0319 336.471 27.0061 335.591 27.0837C335.048 27.1613 334.686 27.2906 334.454 27.4975C334.221 27.7044 334.066 27.963 333.988 28.2733C333.91 28.5837 333.885 28.9199 333.885 29.3078V30.4974C333.885 30.6009 333.859 30.8854 333.833 31.325C333.807 31.7647 333.755 32.2302 333.678 32.7215C333.6 33.2129 333.574 33.6784 333.548 34.0922C333.522 34.506 333.471 34.7905 333.445 34.8939C333.522 34.9457 333.548 35.0491 333.497 35.2301C333.471 35.4112 333.471 35.5663 333.548 35.6698C333.548 35.9025 333.574 36.187 333.652 36.4974C333.729 36.8336 333.936 36.9887 334.272 36.9887H335.617H337.609H339.6H340.893C341.488 36.9887 342.057 37.0405 342.548 37.1698C343.04 37.2732 343.376 37.7129 343.583 38.4111C343.583 38.4887 343.609 38.6698 343.66 38.9542C343.712 39.2387 343.764 39.5491 343.841 39.9111C343.893 40.2732 343.945 40.6353 344.022 40.9973C344.074 41.3594 344.126 41.6439 344.178 41.8249V42.1611C344.255 42.7042 344.126 42.9887 343.79 43.0663C343.453 43.1439 343.065 43.2214 342.652 43.299C341.048 43.4801 339.471 43.5318 337.867 43.4283C336.264 43.3508 334.686 43.2732 333.083 43.2214C332.979 43.1956 332.695 43.1956 332.229 43.2473C331.764 43.299 331.505 43.3249 331.428 43.3249C331.273 43.3249 330.988 43.3249 330.6 43.3508C330.212 43.3766 329.773 43.4025 329.359 43.4283C328.919 43.4542 328.505 43.4801 328.143 43.5059C327.729 43.4801 327.471 43.4801 327.316 43.4801Z" fill="#2BB673"/>
<path d="M376.472 40.2991C376.214 38.1784 376.136 36.006 376.24 33.756C376.343 31.506 376.369 29.3078 376.291 27.1613C376.214 25.1182 376.11 23.101 375.955 21.1613C375.8 19.2217 375.748 17.2045 375.774 15.1614C375.774 12.9631 375.774 10.92 375.8 9.00626C375.826 7.11835 375.671 5.10113 375.36 2.98046C375.438 2.38564 375.748 1.92012 376.291 1.58392C376.834 1.27358 377.378 1.06668 377.921 0.989097C378.541 0.911512 379.188 0.911512 379.938 0.989097C380.688 1.06668 381.283 1.35116 381.774 1.84254C381.774 1.92012 381.774 2.07529 381.8 2.30805C381.826 2.54081 381.826 2.69598 381.826 2.77356C381.981 4.09252 381.955 5.54078 381.774 7.09249C381.593 8.64419 381.515 10.0666 381.619 11.3597C381.619 11.5149 381.645 12.0838 381.696 13.0924C381.748 14.101 381.826 15.239 381.903 16.532C381.981 17.8251 382.059 19.1182 382.136 20.4372C382.214 21.7561 382.265 22.7906 382.317 23.5406C382.421 25.3509 382.498 27.1354 382.524 28.8681C382.55 30.6009 382.653 32.3595 382.834 34.1439C382.938 34.8681 383.274 35.2819 383.765 35.3853C384.283 35.4888 384.826 35.5405 385.446 35.5146C386.041 35.4888 386.61 35.5146 387.127 35.5405C387.645 35.5922 387.929 35.9025 388.007 36.4974C388.007 37.7129 387.981 38.6956 387.929 39.4198C387.877 40.1698 387.774 40.8422 387.671 41.437C387.567 42.0318 387.36 42.3421 387.102 42.3421C387.076 42.3939 386.998 42.3939 386.895 42.3939H386.688C385.24 42.3163 383.765 42.2646 382.24 42.187C380.714 42.1352 379.214 42.0318 377.688 41.8766C377.197 41.8508 376.886 41.6956 376.757 41.437C376.653 41.2301 376.55 40.8422 376.472 40.2991Z" fill="#2BB673"/>
<path d="M395.538 33.8595C395.512 33.7043 395.46 33.4974 395.46 33.2388C395.434 32.9802 395.434 32.6957 395.408 32.4371C395.383 32.1785 395.383 31.9457 395.357 31.7388C395.331 31.5319 395.331 31.3767 395.331 31.2992C395.305 30.575 395.253 29.644 395.227 28.4802C395.202 27.3164 395.15 26.1785 395.124 25.0406C395.098 23.9027 395.046 22.8941 395.02 22.0148C394.995 21.1355 394.969 20.6441 394.969 20.5406C394.969 19.4027 394.995 18.1614 395.046 16.8165C395.098 15.4717 395.227 14.1011 395.408 12.7304C395.589 11.3338 395.9 10.0149 396.339 8.69594C396.779 7.37698 397.348 6.2132 398.072 5.20459C398.796 4.17012 399.701 3.34254 400.839 2.69599C401.951 2.04945 403.322 1.66152 404.9 1.55807H406.038C407.098 1.71325 408.132 1.946 409.115 2.28221C410.098 2.59255 411.003 3.0322 411.779 3.60116C412.581 4.14426 413.253 4.81666 413.848 5.56666C414.443 6.31665 414.882 7.24767 415.193 8.30801C415.219 8.46318 415.27 8.82525 415.348 9.42007C415.4 10.0149 415.425 10.4028 415.425 10.5838C415.425 10.8942 415.425 11.3338 415.451 11.9287C415.477 12.5235 415.477 12.8597 415.477 12.9373C415.477 13.3252 415.477 14.1528 415.503 15.42C415.529 16.6872 415.555 18.0838 415.581 19.5838C415.606 21.0837 415.658 22.532 415.658 23.9544C415.684 25.3768 415.684 26.4371 415.684 27.1095C415.684 28.0664 415.684 29.1526 415.71 30.394C415.736 31.6354 415.684 32.9026 415.606 34.2215C415.503 35.5405 415.348 36.8595 415.089 38.1525C414.831 39.4456 414.443 40.6094 413.874 41.618C413.305 42.6525 412.555 43.4801 411.65 44.1525C410.744 44.8249 409.581 45.187 408.184 45.2645C406.969 45.3421 405.831 45.2645 404.745 45.0318C403.658 44.799 402.546 44.4887 401.408 44.1266C400.27 43.7904 399.339 43.2473 398.615 42.5491C397.891 41.8249 397.322 40.9973 396.883 40.0405C396.443 39.0836 396.133 38.075 395.926 37.0146C395.693 35.8767 395.564 34.8681 395.538 33.8595ZM403.115 33.4716C403.193 34.2733 403.426 34.9715 403.813 35.6181C404.201 36.2388 404.874 36.5233 405.779 36.4457C406.4 36.3939 406.839 36.2388 407.15 35.9026C407.46 35.5664 407.667 35.1784 407.796 34.7129C407.926 34.2474 408.003 33.7302 408.029 33.2129C408.055 32.6698 408.081 32.1785 408.107 31.7388V31.2474C408.107 30.9888 408.107 30.7302 408.132 30.4457C408.158 30.1612 408.158 29.9026 408.158 29.644V29.2044C408.262 27.2647 408.339 25.5061 408.339 23.8768C408.339 22.2475 408.288 20.4889 408.158 18.5493C408.158 18.3165 408.132 17.9545 408.107 17.4372C408.081 16.92 408.029 16.3769 408.003 15.7821C407.977 15.1873 407.926 14.6442 407.9 14.1269C407.874 13.6097 407.848 13.2476 407.848 13.0149C407.77 12.7821 407.641 12.4718 407.434 12.0838C407.227 11.6959 406.994 11.308 406.762 10.9459C406.503 10.5838 406.219 10.2735 405.908 10.0149C405.598 9.75627 405.288 9.62696 404.977 9.62696C404.589 9.67869 404.253 9.83386 403.969 10.1701C403.684 10.4804 403.451 10.8942 403.296 11.3338C403.115 11.7994 402.986 12.2649 402.908 12.7304C402.805 13.1959 402.753 13.5838 402.701 13.8942C402.676 13.9717 402.624 14.1528 402.598 14.4631C402.572 14.7735 402.52 15.1097 402.469 15.4976C402.417 15.8855 402.365 16.2476 402.288 16.5838C402.236 16.92 402.21 17.1269 402.21 17.2045V18.0062V19.532C402.21 20.101 402.21 20.67 402.184 21.2131C402.158 21.7562 402.158 22.1958 402.158 22.4803V22.9458C402.158 23.0234 402.158 23.0751 402.184 23.1268C402.21 23.1786 402.21 23.2303 402.21 23.3079V23.5406C402.236 23.9285 402.314 24.5751 402.417 25.532C402.52 26.4889 402.624 27.4716 402.727 28.5061C402.831 29.5406 402.934 30.5492 403.012 31.5061C403.012 32.4371 403.063 33.0836 403.115 33.4716Z" fill="#2BB673"/>
<path d="M420.752 34.4284C421.011 33.7043 421.502 33.2388 422.2 33.0319C422.898 32.825 423.726 32.7733 424.709 32.8509C425.666 32.9543 426.752 33.1095 427.942 33.394C429.131 33.6526 430.373 33.9112 431.666 34.1439C432.183 34.1181 432.648 33.9629 433.062 33.756C433.45 33.5233 433.838 33.2388 434.174 32.8767C434.51 32.5147 434.847 32.1009 435.131 31.6612C435.441 31.1957 435.752 30.7561 436.088 30.2905C436.114 30.2647 436.166 30.1612 436.191 30.0319C436.217 29.9026 436.243 29.825 436.243 29.7733L436.01 26.4113C435.933 26.3854 435.7 26.1785 435.286 25.8423C434.898 25.5061 434.588 25.2475 434.355 25.0406C434.278 24.963 434.123 24.8596 433.916 24.7302C433.709 24.6009 433.554 24.5234 433.502 24.5234C432.183 23.9544 430.942 23.4889 429.778 23.1527C428.614 22.8165 427.554 22.4027 426.545 21.9372C425.536 21.4717 424.631 20.8251 423.804 19.9975C422.976 19.17 422.278 18.0062 421.683 16.5062C421.683 16.4027 421.683 16.2217 421.657 15.989C421.631 15.7562 421.605 15.5234 421.58 15.2907C421.554 15.0321 421.502 14.8252 421.502 14.6183C421.476 14.4114 421.476 14.2821 421.476 14.2045C421.45 13.6614 421.399 13.1183 421.321 12.4976C421.269 11.8769 421.321 11.3338 421.528 10.7907C421.554 10.6356 421.631 10.3511 421.761 9.96315C421.864 9.57522 422.019 9.16143 422.148 8.74764C422.304 8.33386 422.433 7.92007 422.588 7.558C422.717 7.17007 422.795 6.91146 422.847 6.75628V6.44594C423.08 6.10974 423.286 5.85112 423.467 5.64423C423.648 5.46319 423.829 5.2563 424.011 5.0494C424.192 4.84251 424.321 4.68734 424.424 4.55803C425.666 3.16149 426.907 2.10116 428.148 1.37703C429.39 0.652896 430.89 0.213245 432.674 0.00635045C433.166 -0.0195114 433.89 0.0322123 434.847 0.187383C435.804 0.342554 436.735 0.57531 437.691 0.885652C438.648 1.19599 439.476 1.58392 440.2 2.04943C440.924 2.51495 441.312 3.03218 441.338 3.60114C441.364 3.93735 441.364 4.40286 441.286 4.97182C441.209 5.54078 441.079 6.10974 440.924 6.6787C440.743 7.24766 440.536 7.73903 440.252 8.17868C439.967 8.61834 439.631 8.85109 439.243 8.87695C438.26 8.95454 437.278 8.95454 436.295 8.85109C435.312 8.74764 434.329 8.74764 433.321 8.82523C433.14 8.82523 432.752 8.85109 432.157 8.92868C431.562 9.00626 431.174 9.03212 430.993 9.03212C430.89 9.10971 430.709 9.18729 430.45 9.29074C430.192 9.39419 429.959 9.49764 429.7 9.65281C429.442 9.80798 429.235 9.96315 429.079 10.0925C428.898 10.2476 428.821 10.4028 428.821 10.558L429.105 13.9717C429.105 14.1528 429.235 14.3338 429.467 14.5148C429.7 14.6959 429.985 14.851 430.269 15.0321C430.554 15.2131 430.838 15.3683 431.148 15.4976C431.459 15.6269 431.666 15.7045 431.769 15.7562C433.295 16.4803 434.666 17.1527 435.933 17.7993C437.174 18.4458 438.26 19.1958 439.166 20.0751C440.071 20.9544 440.795 21.9889 441.364 23.1785C441.907 24.3682 442.269 25.8682 442.424 27.6526C442.579 29.2043 442.476 30.7561 442.114 32.256C441.752 33.7819 441.157 35.1267 440.355 36.3163C439.528 37.506 438.519 38.5146 437.252 39.2904C436.01 40.0922 434.588 40.5577 432.985 40.7128C431.666 40.868 430.295 40.8939 428.898 40.7646C427.502 40.6611 426.209 40.3766 425.045 39.9111C423.881 39.4456 422.924 38.7732 422.123 37.8939C421.321 37.0405 420.855 35.8767 420.752 34.4284Z" fill="#2BB673"/>
<path d="M473.253 38.4887C473.279 38.4112 473.253 38.256 473.175 37.9715C473.072 37.7129 472.968 37.4025 472.839 37.0922C472.71 36.7819 472.58 36.4715 472.451 36.187C472.322 35.9026 472.218 35.6957 472.192 35.5405V33.5491V31.6095C472.192 31.3767 472.192 30.8854 472.218 30.1095C472.244 29.3337 472.244 28.5061 472.27 27.6009C472.296 26.7216 472.296 25.8682 472.322 25.0923C472.348 24.3165 472.348 23.8251 472.348 23.5923V20.0493C472.373 19.7907 472.425 19.351 472.425 18.7562C472.451 18.1614 472.477 17.5665 472.503 16.9459C472.529 16.3252 472.58 15.7303 472.58 15.2131C472.606 14.6959 472.632 14.3338 472.658 14.1269C472.658 14.0493 472.684 13.8166 472.71 13.4286C472.735 13.0149 472.813 12.7562 472.891 12.6011C472.994 11.9545 473.072 11.2821 473.123 10.558C473.149 9.83385 473.279 9.16144 473.46 8.5149C473.692 7.92008 474.054 7.19595 474.546 6.34251C475.037 5.51493 475.632 4.71321 476.33 3.98908C477.029 3.23909 477.804 2.6184 478.632 2.07531C479.46 1.53221 480.339 1.27359 481.244 1.27359C481.916 1.27359 482.46 1.29945 482.847 1.32531C483.235 1.35118 483.572 1.42876 483.856 1.55807C484.141 1.66152 484.399 1.84255 484.632 2.10117C484.865 2.35979 485.149 2.69599 485.485 3.1615C485.485 3.23909 485.511 3.31667 485.589 3.39426L485.692 3.49771V8.72179L485.253 9.058C483.546 9.13558 482.201 9.49765 481.192 10.1442C480.184 10.7907 479.511 11.7994 479.175 13.17C479.123 13.4804 479.097 13.9717 479.02 14.67C478.968 15.3683 478.891 16.1183 478.813 16.8941C478.735 17.67 478.658 18.42 478.58 19.1182C478.503 19.8165 478.477 20.3079 478.477 20.5665V22.7648C478.477 24.213 478.477 25.5578 478.503 26.7992C478.529 28.0406 478.58 29.4371 478.632 30.963C478.71 32.0492 478.942 32.9543 479.304 33.6267C479.692 34.2991 480.132 34.8422 480.675 35.256C481.218 35.6439 481.787 35.9543 482.382 36.1612C482.977 36.3681 483.546 36.5491 484.089 36.6784C484.632 36.8077 485.072 36.9629 485.46 37.1181C485.847 37.2991 486.054 37.5319 486.132 37.8422V39.368C486.132 39.6784 486.158 40.0405 486.184 40.4801C486.209 40.9198 486.209 41.3594 486.158 41.7991C486.106 42.2387 485.977 42.6266 485.796 42.9628C485.615 43.299 485.278 43.5318 484.787 43.6352H483.261C480.985 43.6352 478.968 43.2473 477.21 42.4456C475.451 41.6697 474.132 40.3508 473.253 38.4887Z" fill="#2BB673"/>
<path d="M507.494 43.1438C507.313 43.0662 507.106 42.9369 506.925 42.7818C506.744 42.6007 506.615 42.4197 506.589 42.2387L505.218 30.187C505.218 30.0319 505.141 29.9026 505.011 29.7991C504.882 29.6957 504.753 29.644 504.649 29.6957L498.054 30.3164L499.141 40.2732C499.218 40.868 499.399 41.4369 499.658 41.9542C499.916 42.4714 500.098 43.0145 500.175 43.5835C500.201 43.8162 500.201 43.9455 500.123 43.9973C500.046 44.049 499.865 44.1007 499.606 44.1266C499.529 44.1266 499.425 44.1266 499.296 44.1524C499.166 44.1783 499.089 44.1783 499.037 44.1783H498.339C498.029 44.1783 497.692 44.1783 497.33 44.2042C496.994 44.23 496.684 44.2559 496.399 44.2559C496.115 44.2817 495.934 44.2817 495.856 44.2817C495.184 44.2817 494.615 44.2042 494.201 44.049C493.787 43.8938 493.451 43.6611 493.244 43.3766C493.011 43.0662 492.856 42.7042 492.753 42.2645C492.649 41.8249 492.572 41.3335 492.494 40.7645C492.313 38.6697 492.158 36.6008 492.029 34.5318C491.899 32.4629 491.822 30.3681 491.744 28.2474C491.744 28.2216 491.744 28.0147 491.718 27.6267C491.692 27.2388 491.667 26.825 491.641 26.3078C491.615 25.8164 491.563 25.325 491.537 24.8595C491.486 24.394 491.46 24.0061 491.434 23.7475C491.356 22.2992 491.434 20.9802 491.641 19.7647C491.848 18.5492 492.08 17.2303 492.339 15.782C492.106 15.1355 492.158 14.4631 492.468 13.7389C492.779 13.0148 493.037 12.3683 493.244 11.7993C493.322 11.489 493.373 11.2045 493.373 10.9459C493.399 10.6872 493.451 10.3769 493.58 10.0407C493.58 10.0148 493.606 9.93725 493.632 9.8338C493.658 9.73035 493.71 9.70449 493.736 9.70449C494.149 8.9545 494.511 8.17864 494.822 7.40279C495.132 6.62693 495.546 5.85108 496.063 5.10109C496.399 4.63557 496.813 4.17006 497.304 3.70455C497.796 3.23904 498.339 2.77352 498.908 2.35973C499.477 1.94595 500.072 1.60974 500.692 1.32526C501.313 1.06664 501.934 0.885611 502.529 0.808026C504.235 0.652855 505.554 0.885611 506.511 1.50629C507.468 2.12698 508.218 2.92869 508.761 3.93731C509.304 4.92005 509.744 6.00625 510.028 7.22176C510.339 8.4114 510.675 9.52346 511.063 10.5579C511.063 10.6614 511.089 10.8941 511.141 11.1786C511.192 11.4631 511.244 11.7993 511.27 12.1355C511.322 12.4717 511.347 12.782 511.425 13.0665C511.477 13.351 511.503 13.5579 511.503 13.6613C511.761 16.1699 511.942 18.6785 511.994 21.2389C512.046 23.7733 512.123 26.3078 512.253 28.8164C512.253 29.4629 512.201 30.1353 512.097 30.8077C511.994 31.4801 511.968 32.1525 512.02 32.7991C512.02 32.8767 512.046 33.0836 512.072 33.3939C512.097 33.7301 512.149 34.0663 512.175 34.4543C512.201 34.8422 512.253 35.1784 512.304 35.5146C512.356 35.8508 512.382 36.0318 512.382 36.1094V37.9973C512.382 38.0749 512.382 38.2818 512.408 38.5921C512.434 38.9283 512.434 39.2645 512.459 39.6525C512.485 40.0404 512.485 40.3766 512.511 40.7128C512.537 41.049 512.537 41.2559 512.537 41.3594C512.537 41.5921 512.511 41.9283 512.434 42.3938C512.356 42.8593 512.097 43.118 511.684 43.1955H511.58C511.528 43.1955 511.425 43.1697 511.218 43.1438C511.011 43.118 510.882 43.0921 510.856 43.0921C510.753 43.0921 510.52 43.0921 510.184 43.118C509.847 43.1438 509.485 43.1438 509.123 43.1438C508.761 43.1438 508.425 43.1438 508.089 43.1697C507.83 43.1438 507.623 43.1438 507.494 43.1438ZM498.184 22.6613C498.21 23.1268 498.494 23.4371 498.985 23.6181C499.477 23.7992 500.046 23.9285 500.692 23.9802C501.339 24.0319 501.985 24.0578 502.632 24.0319C503.279 24.0061 503.77 23.9802 504.106 23.9544C504.184 23.9544 504.339 23.9544 504.572 23.9285C504.804 23.9026 504.96 23.9026 505.037 23.9026C505.115 23.7992 505.166 23.6957 505.218 23.5923C505.244 23.4888 505.296 23.3854 505.322 23.2819C505.322 23.0492 505.296 22.6871 505.27 22.1699C505.218 21.6526 505.192 21.1096 505.192 20.4889C505.166 19.894 505.166 19.3251 505.141 18.8078C505.115 18.2906 505.115 17.9285 505.115 17.6958C505.141 17.6182 505.166 17.4372 505.166 17.1786V16.6355L504.597 11.101C504.546 10.8424 504.468 10.5321 504.313 10.1959C504.158 9.85966 503.977 9.54932 503.744 9.26484C503.511 8.98036 503.253 8.7476 502.916 8.59243C502.58 8.4114 502.27 8.35968 501.934 8.38554C501.623 8.4114 501.339 8.51485 501.08 8.67002C499.839 9.96311 499.037 11.3079 498.753 12.7045C498.442 14.101 498.287 15.6527 498.235 17.3079C498.235 18.213 498.21 19.1182 498.184 19.9716C498.08 20.8509 498.106 21.7561 498.184 22.6613Z" fill="#2BB673"/>
<path d="M516.387 34.4284C516.645 33.7043 517.137 33.2388 517.835 33.0319C518.533 32.825 519.361 32.7733 520.344 32.8509C521.3 32.9543 522.387 33.1095 523.602 33.394C524.792 33.6526 526.033 33.9112 527.326 34.1439C527.844 34.1181 528.309 33.9629 528.723 33.756C529.111 33.5233 529.499 33.2388 529.835 32.8767C530.171 32.5147 530.507 32.1009 530.792 31.6612C531.102 31.1957 531.412 30.7561 531.749 30.2905C531.775 30.2647 531.826 30.1612 531.852 30.0319C531.904 29.9026 531.904 29.825 531.904 29.7733L531.671 26.4113C531.593 26.3854 531.361 26.1785 530.947 25.8423C530.559 25.5061 530.249 25.2475 530.016 25.0406C529.938 24.963 529.783 24.8596 529.576 24.7302C529.369 24.6009 529.214 24.5234 529.137 24.5234C527.818 23.9544 526.576 23.4889 525.413 23.1527C524.249 22.8165 523.188 22.4027 522.18 21.9372C521.171 21.4717 520.266 20.8251 519.438 19.9975C518.611 19.17 517.913 18.0062 517.318 16.5062C517.318 16.4027 517.318 16.2217 517.292 15.989C517.266 15.7562 517.24 15.5234 517.214 15.2907C517.163 15.0321 517.137 14.8252 517.137 14.6183C517.111 14.4114 517.111 14.2821 517.111 14.2045C517.085 13.6614 517.033 13.1183 516.956 12.4976C516.904 11.8769 516.956 11.3338 517.163 10.7907C517.188 10.6356 517.266 10.3511 517.395 9.96315C517.499 9.57522 517.654 9.16143 517.783 8.74764C517.938 8.33386 518.068 7.92007 518.223 7.558C518.352 7.17007 518.43 6.91146 518.482 6.75628V6.44594C518.714 6.10974 518.921 5.85112 519.102 5.64423C519.283 5.46319 519.464 5.2563 519.645 5.0494C519.826 4.84251 519.956 4.68734 520.085 4.55803C521.326 3.16149 522.568 2.10116 523.809 1.37703C525.05 0.652896 526.55 0.213245 528.335 0.00635045C528.826 -0.0195114 529.55 0.0322123 530.507 0.187383C531.464 0.342554 532.395 0.57531 533.352 0.885652C534.309 1.19599 535.137 1.58392 535.861 2.04943C536.585 2.51495 536.973 3.03218 536.999 3.60114C537.024 3.93735 537.024 4.40286 536.947 4.97182C536.869 5.54078 536.74 6.10974 536.585 6.6787C536.404 7.24766 536.197 7.73903 535.912 8.17868C535.628 8.61834 535.292 8.85109 534.904 8.87695C533.921 8.95454 532.938 8.95454 531.956 8.85109C530.973 8.74764 529.99 8.74764 529.007 8.82523C528.826 8.82523 528.438 8.85109 527.844 8.92868C527.249 9.00626 526.861 9.03212 526.68 9.03212C526.576 9.10971 526.395 9.18729 526.137 9.29074C525.878 9.39419 525.645 9.49764 525.387 9.65281C525.128 9.80798 524.921 9.96315 524.766 10.0925C524.585 10.2476 524.507 10.4028 524.507 10.558L524.792 13.9717C524.792 14.1528 524.921 14.3338 525.154 14.5148C525.412 14.6959 525.671 14.851 525.956 15.0321C526.24 15.2131 526.525 15.3683 526.835 15.4976C527.145 15.6269 527.352 15.7045 527.456 15.7562C528.981 16.4803 530.352 17.1527 531.619 17.7993C532.861 18.4458 533.947 19.1958 534.852 20.0751C535.757 20.9544 536.481 21.9889 537.05 23.1785C537.593 24.3682 537.955 25.8682 538.111 27.6526C538.266 29.2043 538.162 30.7561 537.8 32.256C537.438 33.7819 536.843 35.1267 536.042 36.3163C535.214 37.506 534.206 38.5146 532.938 39.2904C531.697 40.0922 530.275 40.5577 528.671 40.7128C527.352 40.868 525.981 40.8939 524.585 40.7646C523.188 40.6611 521.895 40.3766 520.732 39.9111C519.568 39.4456 518.611 38.7732 517.809 37.8939C516.956 37.0405 516.49 35.8767 516.387 34.4284Z" fill="#2BB673"/>
<path d="M548.737 43.3766C548.762 43.2214 548.762 42.9111 548.711 42.4456C548.659 41.9801 548.633 41.6697 548.633 41.5145C548.556 40.3508 548.556 39.2128 548.659 38.1267C548.762 37.0405 548.866 35.9025 549.021 34.687C549.073 34.6094 549.073 34.506 549.021 34.3767C548.995 34.2474 548.969 34.1698 548.969 34.1181C548.969 33.1612 549.021 32.2302 549.176 31.325C549.306 30.4198 549.383 29.4888 549.435 28.5319C549.512 26.7475 549.487 25.0147 549.383 23.3078C549.28 21.601 549.228 19.8682 549.28 18.1355C549.28 17.9803 549.28 17.7475 549.306 17.4631C549.331 17.1527 549.357 16.8682 549.357 16.5579C549.383 16.2476 549.409 15.9889 549.409 15.7303C549.435 15.4717 549.435 15.3165 549.435 15.2389C549.435 15.1614 549.461 15.0062 549.487 14.7217C549.512 14.4631 549.564 14.1786 549.59 13.8941C549.616 13.6096 549.668 13.351 549.693 13.0924C549.719 12.8338 549.745 12.6786 549.745 12.601V12.42C549.745 12.1614 549.642 11.9545 549.461 11.8252C549.28 11.6959 549.073 11.6183 548.892 11.5666C547.754 11.6442 546.668 11.6442 545.633 11.5924C544.599 11.5407 543.487 11.5407 542.349 11.6183C542.038 11.5407 541.754 11.4114 541.495 11.2304C541.495 11.0493 541.469 10.6873 541.444 10.17C541.392 9.65279 541.366 9.31659 541.34 9.16142C541.314 8.82521 541.237 8.28211 541.133 7.58385C541.03 6.85971 540.978 6.13558 540.952 5.38559C540.926 4.66146 541.004 3.98905 541.159 3.39423C541.314 2.79941 541.625 2.46321 542.116 2.38562H542.349L561.331 2.59251C561.59 2.59251 561.797 2.6701 561.952 2.85113C562.107 3.03217 562.236 3.2132 562.314 3.44595C562.417 3.67871 562.469 3.91147 562.521 4.17009C562.547 4.40284 562.573 4.60974 562.573 4.76491C562.573 4.79077 562.573 4.94594 562.599 5.20456C562.624 5.43731 562.65 5.74766 562.676 6.058C562.702 6.3942 562.754 6.70454 562.78 7.01489C562.805 7.35109 562.831 7.60971 562.831 7.84246C562.831 7.94591 562.831 8.15281 562.857 8.41142C562.883 8.67004 562.883 8.98038 562.909 9.29073C562.935 9.62693 562.935 9.91141 562.961 10.1959C562.986 10.4804 562.986 10.6873 562.986 10.7907C562.986 10.9717 562.935 11.1786 562.805 11.3597C562.702 11.5407 562.547 11.67 562.34 11.6959C561.383 11.851 560.452 11.9286 559.495 11.9286C558.538 11.9286 557.607 11.9804 556.65 12.1097C556.469 12.1355 556.288 12.1614 556.133 12.1355C555.978 12.1097 555.797 12.2131 555.616 12.3941C555.383 12.6528 555.254 12.989 555.176 13.351C555.099 13.7131 555.099 14.1269 555.099 14.5148C555.099 14.9027 555.124 15.3165 555.15 15.7045C555.176 16.0924 555.202 16.4544 555.202 16.7648C555.021 21.0061 554.918 25.2733 554.918 29.5405C554.918 33.8077 555.176 38.0232 555.719 42.2128C555.719 42.5232 555.668 42.8852 555.564 43.3507C555.461 43.8163 555.202 44.049 554.788 44.1007H554.737C554.659 44.1007 554.504 44.1007 554.271 44.0749C554.038 44.049 553.78 44.0231 553.495 43.9973C553.211 43.9456 552.952 43.9456 552.719 43.9456H552.331C552.099 43.9197 551.814 43.9197 551.452 43.9456C551.09 43.9973 550.728 43.9973 550.366 43.9973C550.004 43.9973 549.668 43.9456 549.331 43.8938C549.125 43.7387 548.892 43.6094 548.737 43.3766Z" fill="#2BB673"/>
<path d="M567.131 41.0491C567.131 40.9715 567.157 40.8939 567.183 40.7905C567.208 40.687 567.208 40.6353 567.183 40.5836C567.208 40.0922 567.286 39.4974 567.364 38.7991C567.441 38.1008 567.57 37.5319 567.752 37.0664C567.855 36.8077 568.062 36.6008 568.32 36.4715C568.579 36.3422 568.864 36.2388 569.148 36.1353C569.433 36.0319 569.717 35.9284 569.976 35.8508C570.234 35.7474 570.441 35.5922 570.596 35.3595C570.622 35.3595 570.648 35.3078 570.674 35.1784C570.7 35.075 570.7 34.9715 570.7 34.894C570.7 34.8164 570.7 34.6612 570.726 34.4285C570.751 34.1957 570.752 33.9371 570.777 33.6526C570.803 33.3681 570.803 33.1095 570.803 32.825V32.2561C570.7 29.1785 570.674 26.1268 570.726 23.101C570.777 20.0751 570.726 17.0234 570.519 13.9976C570.519 13.92 570.493 13.7649 570.467 13.5321C570.441 13.2993 570.389 13.0666 570.389 12.7821C570.364 12.5235 570.364 12.2649 570.338 12.058C570.312 11.8252 570.312 11.6442 570.312 11.5407C570.234 11.2045 570.053 10.9976 569.769 10.9201C569.484 10.8425 569.174 10.7649 568.838 10.6873C568.502 10.6097 568.191 10.4804 567.933 10.3252C567.674 10.1442 567.519 9.83386 567.467 9.39421C567.467 9.36835 567.467 9.31663 567.441 9.29076C567.415 9.23904 567.415 9.21318 567.415 9.18732V8.02354C567.415 7.48044 567.415 6.88562 567.441 6.26493C567.467 5.64425 567.467 5.04943 567.467 4.50633V3.36841C567.545 3.05807 567.648 2.696 567.752 2.23049C567.855 1.76498 568.088 1.50636 568.372 1.42877L568.476 1.4805H568.579C569.148 1.58394 569.95 1.63567 570.958 1.6098C571.993 1.58394 573.027 1.6098 574.088 1.66153C575.148 1.71325 576.131 1.84256 577.062 2.04946C577.993 2.25635 578.639 2.61842 579.027 3.16151C579.208 3.39427 579.312 3.75634 579.312 4.24771C579.312 4.73908 579.338 5.12701 579.363 5.38563C579.467 7.01492 579.415 8.15284 579.208 8.79939C579.001 9.44594 578.769 9.88559 578.458 10.1183C578.174 10.3511 577.889 10.5063 577.579 10.558C577.269 10.6356 577.088 10.9459 577.01 11.4632C576.751 13.0666 576.596 14.6442 576.545 16.2476C576.519 17.851 576.519 19.4286 576.57 21.032C576.622 22.6355 576.7 24.213 576.829 25.7906C576.932 27.3682 577.036 28.9457 577.113 30.5492V31.144V32.2043C577.113 32.5923 577.114 32.9285 577.139 33.2647C577.165 33.6009 577.165 33.7819 577.165 33.8595V34.325C577.191 34.7905 577.372 35.075 577.682 35.2302C577.993 35.3853 578.329 35.5146 578.717 35.6698C579.105 35.7991 579.441 35.9802 579.777 36.1871C580.088 36.3939 580.295 36.7819 580.372 37.3508C580.372 37.6095 580.372 37.9974 580.398 38.5146C580.424 39.0319 580.398 39.5491 580.32 40.0405C580.243 40.5577 580.113 41.0232 579.907 41.437C579.7 41.8508 579.363 42.0835 578.898 42.1094C578.148 42.2646 577.269 42.2904 576.312 42.2129C575.355 42.1353 574.476 42.1353 573.726 42.2129C573.622 42.2129 573.338 42.2387 572.898 42.2904C572.458 42.3422 571.993 42.3939 571.527 42.4715C571.062 42.5232 570.596 42.5749 570.157 42.6008C569.717 42.6525 569.458 42.6525 569.329 42.6525C568.786 42.6784 568.295 42.5749 567.855 42.3422C567.467 42.1353 567.208 41.6956 567.131 41.0491Z" fill="#2BB673"/>
<path d="M588.409 40.2991C588.15 38.1784 588.073 36.006 588.176 33.756C588.28 31.506 588.306 29.3078 588.228 27.1613C588.15 25.1182 588.047 23.101 587.892 21.1613C587.737 19.2217 587.685 17.2045 587.711 15.1614C587.711 12.9631 587.711 10.92 587.737 9.00626C587.762 7.11835 587.607 5.10113 587.297 2.98046C587.374 2.38564 587.685 1.92012 588.228 1.58392C588.771 1.27358 589.314 1.06668 589.857 0.989097C590.478 0.911512 591.124 0.911512 591.874 0.989097C592.624 1.06668 593.219 1.35116 593.711 1.84254C593.711 1.92012 593.711 2.07529 593.737 2.30805C593.762 2.54081 593.762 2.69598 593.762 2.77356C593.918 4.09252 593.892 5.54078 593.711 7.09249C593.53 8.64419 593.452 10.0666 593.53 11.3597C593.53 11.5149 593.555 12.0838 593.607 13.0924C593.659 14.101 593.737 15.239 593.814 16.532C593.892 17.8251 593.969 19.1182 594.047 20.4372C594.124 21.7561 594.176 22.7906 594.228 23.5406C594.331 25.3509 594.409 27.1354 594.435 28.8681C594.461 30.6009 594.564 32.3595 594.745 34.1439C594.849 34.8681 595.185 35.2819 595.676 35.3853C596.193 35.4888 596.736 35.5405 597.357 35.5146C597.952 35.4888 598.521 35.5146 599.038 35.5405C599.555 35.5922 599.84 35.9025 599.917 36.4974C599.917 37.7129 599.892 38.6956 599.84 39.4198C599.788 40.1698 599.711 40.8422 599.581 41.437C599.478 42.0318 599.271 42.3421 599.012 42.3421C598.986 42.3939 598.909 42.3939 598.805 42.3939H598.598C597.15 42.3163 595.676 42.2646 594.15 42.187C592.624 42.1352 591.124 42.0318 589.599 41.8766C589.107 41.8508 588.797 41.6956 588.668 41.437C588.59 41.2301 588.486 40.8422 588.409 40.2991Z" fill="#2BB673"/>
<path d="M607.914 40.2991C607.655 38.1784 607.578 36.006 607.681 33.756C607.784 31.506 607.81 29.3078 607.733 27.1613C607.655 25.1182 607.552 23.101 607.397 21.1613C607.241 19.2217 607.19 17.2045 607.216 15.1614C607.216 12.9631 607.216 10.92 607.241 9.00626C607.267 7.11835 607.112 5.10113 606.802 2.98046C606.879 2.38564 607.19 1.92012 607.733 1.58392C608.276 1.27358 608.819 1.06668 609.362 0.989097C609.983 0.911512 610.629 0.911512 611.379 0.989097C612.129 1.06668 612.724 1.35116 613.216 1.84254C613.216 1.92012 613.215 2.07529 613.241 2.30805C613.267 2.54081 613.267 2.69598 613.267 2.77356C613.422 4.09252 613.397 5.54078 613.216 7.09249C613.034 8.64419 612.957 10.0666 613.034 11.3597C613.034 11.5149 613.06 12.0838 613.112 13.0924C613.164 14.101 613.241 15.239 613.319 16.532C613.396 17.8251 613.474 19.1182 613.552 20.4372C613.629 21.7561 613.681 22.7906 613.733 23.5406C613.836 25.3509 613.914 27.1354 613.94 28.8681C613.966 30.6009 614.069 32.3595 614.25 34.1439C614.353 34.8681 614.69 35.2819 615.181 35.3853C615.698 35.4888 616.241 35.5405 616.862 35.5146C617.457 35.4888 618.026 35.5146 618.543 35.5405C619.06 35.5922 619.345 35.9025 619.422 36.4974C619.422 37.7129 619.396 38.6956 619.345 39.4198C619.293 40.1698 619.215 40.8422 619.086 41.437C618.983 42.0318 618.776 42.3421 618.517 42.3421C618.491 42.3939 618.414 42.3939 618.31 42.3939H618.103C616.655 42.3163 615.181 42.2646 613.655 42.187C612.129 42.1352 610.629 42.0318 609.103 41.8766C608.612 41.8508 608.302 41.6956 608.172 41.437C608.095 41.2301 607.991 40.8422 607.914 40.2991Z" fill="#2BB673"/>
<path d="M626.972 33.8595C626.946 33.7043 626.895 33.4974 626.895 33.2388C626.869 32.9802 626.843 32.6957 626.843 32.4371C626.817 32.1785 626.817 31.9457 626.791 31.7388C626.765 31.5319 626.765 31.3767 626.765 31.2992C626.739 30.575 626.688 29.644 626.662 28.4802C626.636 27.3164 626.584 26.1785 626.558 25.0406C626.533 23.9027 626.481 22.8941 626.455 22.0148C626.377 21.1613 626.352 20.6699 626.352 20.5665C626.352 19.4286 626.377 18.1872 626.429 16.8424C626.481 15.4976 626.61 14.1269 626.791 12.7562C626.972 11.3597 627.283 10.0407 627.722 8.72178C628.162 7.40283 628.731 6.23905 629.455 5.23044C630.179 4.19597 631.084 3.36839 632.222 2.72184C633.334 2.0753 634.705 1.68737 636.282 1.58392H637.42C638.481 1.73909 639.515 1.97185 640.498 2.30805C641.481 2.6184 642.386 3.05805 643.162 3.62701C643.963 4.1701 644.636 4.84251 645.231 5.5925C645.825 6.3425 646.265 7.27352 646.576 8.33386C646.601 8.48903 646.653 8.85109 646.731 9.44592C646.782 10.0407 646.808 10.4287 646.808 10.6097C646.808 10.92 646.808 11.3597 646.834 11.9545C646.86 12.5493 646.86 12.8855 646.86 12.9631C646.86 13.3511 646.86 14.1786 646.886 15.4459C646.912 16.7131 646.938 18.1096 646.963 19.6096C646.989 21.1096 647.041 22.5579 647.041 23.9803C647.067 25.4027 647.067 26.463 647.067 27.1354C647.067 28.0923 647.067 29.1785 647.093 30.4198C647.119 31.6612 647.067 32.9284 646.989 34.2474C646.886 35.5663 646.731 36.8853 646.472 38.1784C646.213 39.4715 645.826 40.6353 645.257 41.6439C644.688 42.6784 643.938 43.5059 643.032 44.1783C642.127 44.8507 640.963 45.2128 639.567 45.2904C638.351 45.368 637.214 45.2904 636.127 45.0576C635.041 44.8249 633.929 44.5145 632.791 44.1525C631.653 43.8163 630.722 43.2732 629.998 42.5749C629.274 41.8508 628.705 41.0232 628.265 40.0663C627.826 39.1094 627.515 38.1008 627.308 37.0405C627.127 35.8767 627.024 34.8681 626.972 33.8595ZM634.55 33.4715C634.627 34.2733 634.86 34.9715 635.248 35.6181C635.636 36.2388 636.308 36.5232 637.214 36.4457C637.808 36.3939 638.274 36.2388 638.584 35.9026C638.895 35.5664 639.101 35.1784 639.231 34.7129C639.36 34.2474 639.438 33.7302 639.464 33.2129C639.489 32.6698 639.515 32.1785 639.541 31.7388V31.2474C639.541 30.9888 639.541 30.7302 639.567 30.4457C639.593 30.1612 639.593 29.9026 639.593 29.644V29.2043C639.696 27.2647 639.774 25.5061 639.774 23.8768C639.774 22.2475 639.722 20.4889 639.593 18.5493C639.593 18.3165 639.567 17.9545 639.541 17.4372C639.515 16.92 639.463 16.3769 639.438 15.7821C639.386 15.1872 639.36 14.6441 639.334 14.1269C639.282 13.6097 639.282 13.2476 639.282 13.0148C639.205 12.7821 639.076 12.4717 638.843 12.0838C638.636 11.6959 638.403 11.308 638.17 10.9459C637.912 10.5838 637.627 10.2735 637.317 10.0149C637.007 9.75626 636.696 9.62695 636.386 9.62695C635.998 9.67867 635.688 9.83384 635.377 10.17C635.093 10.4804 634.86 10.8942 634.705 11.3338C634.524 11.7993 634.395 12.2649 634.317 12.7304C634.214 13.1959 634.162 13.5838 634.11 13.8941C634.084 13.9717 634.032 14.1528 634.007 14.4631C633.981 14.7734 633.929 15.1097 633.877 15.4976C633.826 15.8855 633.774 16.2476 633.696 16.5838C633.645 16.92 633.619 17.1269 633.619 17.2045V18.0062V19.532C633.619 20.101 633.619 20.6699 633.593 21.213C633.567 21.7561 633.567 22.1958 633.567 22.4803V22.9458C633.567 23.0234 633.567 23.0751 633.593 23.1268C633.619 23.1785 633.619 23.2303 633.619 23.3078V23.5406C633.67 23.9285 633.722 24.5751 633.826 25.532C633.929 26.4889 634.033 27.4716 634.136 28.5061C634.239 29.5405 634.343 30.5492 634.42 31.506C634.446 32.4371 634.498 33.0836 634.55 33.4715Z" fill="#2BB673"/>
<path d="M652.184 34.4284C652.442 33.7043 652.934 33.2388 653.632 33.0319C654.33 32.825 655.158 32.7733 656.14 32.8509C657.097 32.9543 658.184 33.1095 659.399 33.394C660.589 33.6526 661.83 33.9112 663.123 34.1439C663.64 34.1181 664.106 33.9629 664.52 33.756C664.908 33.5233 665.296 33.2388 665.632 32.8767C665.968 32.5147 666.304 32.1009 666.589 31.6612C666.899 31.1957 667.209 30.7561 667.546 30.2905C667.571 30.2647 667.623 30.1612 667.649 30.0319C667.701 29.9026 667.701 29.825 667.701 29.7733L667.468 26.4113C667.39 26.3854 667.158 26.1785 666.744 25.8423C666.356 25.5061 666.046 25.2475 665.813 25.0406C665.735 24.963 665.58 24.8596 665.373 24.7302C665.166 24.6009 665.011 24.5234 664.934 24.5234C663.615 23.9544 662.373 23.4889 661.209 23.1527C660.046 22.8165 658.985 22.4027 657.977 21.9372C656.968 21.4717 656.063 20.8251 655.235 19.9975C654.408 19.17 653.709 18.0062 653.115 16.5062C653.115 16.4027 653.115 16.2217 653.089 15.989C653.063 15.7562 653.037 15.5234 653.011 15.2907C652.959 15.0321 652.934 14.8252 652.934 14.6183C652.908 14.4114 652.908 14.2821 652.908 14.2045C652.882 13.6614 652.83 13.1183 652.753 12.4976C652.701 11.8769 652.753 11.3338 652.959 10.7907C652.985 10.6356 653.063 10.3511 653.192 9.96315C653.296 9.57522 653.451 9.16143 653.58 8.74764C653.735 8.33386 653.865 7.92007 654.02 7.558C654.149 7.17007 654.227 6.91146 654.278 6.75628V6.44594C654.511 6.10974 654.718 5.85112 654.899 5.64423C655.08 5.46319 655.261 5.2563 655.442 5.0494C655.623 4.84251 655.753 4.68734 655.882 4.55803C657.123 3.16149 658.365 2.10116 659.606 1.37703C660.847 0.652896 662.347 0.213245 664.132 0.00635045C664.623 -0.0195114 665.347 0.0322123 666.304 0.187383C667.261 0.342554 668.192 0.57531 669.149 0.885652C670.106 1.19599 670.933 1.58392 671.658 2.04943C672.382 2.51495 672.77 3.03218 672.795 3.60114C672.821 3.93735 672.821 4.40286 672.744 4.97182C672.666 5.54078 672.537 6.10974 672.382 6.6787C672.201 7.24766 671.994 7.73903 671.709 8.17868C671.425 8.61834 671.089 8.85109 670.701 8.87695C669.718 8.95454 668.735 8.95454 667.752 8.85109C666.77 8.74764 665.787 8.74764 664.804 8.82523C664.623 8.82523 664.235 8.85109 663.64 8.92868C663.046 9.00626 662.658 9.03212 662.477 9.03212C662.373 9.10971 662.192 9.18729 661.934 9.29074C661.675 9.39419 661.442 9.49764 661.184 9.65281C660.925 9.80798 660.718 9.96315 660.563 10.0925C660.382 10.2476 660.304 10.4028 660.304 10.558L660.589 13.9717C660.589 14.1528 660.718 14.3338 660.951 14.5148C661.209 14.6959 661.468 14.851 661.752 15.0321C662.037 15.2131 662.321 15.3683 662.632 15.4976C662.942 15.6269 663.149 15.7045 663.252 15.7562C664.778 16.4803 666.149 17.1527 667.416 17.7993C668.658 18.4458 669.744 19.1958 670.649 20.0751C671.554 20.9544 672.278 21.9889 672.847 23.1785C673.39 24.3682 673.752 25.8682 673.908 27.6526C674.063 29.2043 673.959 30.7561 673.597 32.256C673.235 33.7819 672.64 35.1267 671.839 36.3163C671.011 37.506 670.002 38.5146 668.735 39.2904C667.494 40.0922 666.071 40.5577 664.468 40.7128C663.149 40.868 661.778 40.8939 660.382 40.7646C658.985 40.6611 657.692 40.3766 656.528 39.9111C655.365 39.4456 654.408 38.7732 653.606 37.8939C652.753 37.0405 652.287 35.8767 652.184 34.4284Z" fill="#2BB673"/>
<path d="M705.717 43.9973C705.639 43.9456 705.588 43.7904 705.536 43.5059C705.484 43.2214 705.484 43.0404 705.484 42.9628C705.251 41.5921 705.226 40.2473 705.381 38.9025C705.536 37.5577 705.588 36.2129 705.562 34.8939C705.484 33.1871 705.303 31.4802 705.019 29.7992C704.734 28.1181 704.501 26.4113 704.372 24.7044C704.32 23.3854 704.32 22.0923 704.372 20.8768C704.398 19.6355 704.424 18.3682 704.424 17.0493C704.45 15.8338 704.424 14.6183 704.32 13.3769C704.217 12.1355 704.114 10.92 704.036 9.70453V9.34246V8.74764V8.15282V7.76489C703.984 7.558 703.958 7.24765 703.932 6.78214C703.881 6.31663 703.855 5.85112 703.829 5.33388C703.777 4.81664 703.751 4.32527 703.726 3.88562C703.7 3.42011 703.674 3.10976 703.674 2.90287C703.751 2.59253 703.829 2.35977 703.907 2.23046C703.984 2.07529 704.139 1.94598 704.346 1.84254C704.424 1.81667 704.631 1.76495 704.993 1.71323C705.355 1.6615 705.588 1.63564 705.717 1.63564C707.786 1.37702 709.674 1.45461 711.355 1.92012C713.036 2.38563 714.484 3.10976 715.7 4.14424C716.941 5.17871 717.924 6.42008 718.725 7.92006C719.501 9.42005 720.044 11.0493 720.355 12.8338C720.536 14.2821 720.639 15.6786 720.639 17.0493C720.639 18.42 720.588 19.8424 720.458 21.3165C720.613 22.0665 720.639 22.8165 720.51 23.5406C720.406 24.2647 720.381 25.0147 720.458 25.7647C720.484 26.9802 720.562 28.4026 720.691 30.0061C720.794 31.6095 720.769 33.2388 720.613 34.8422C720.432 36.4456 720.044 37.9456 719.424 39.3422C718.803 40.7387 717.769 41.799 716.372 42.549C715.001 43.2214 713.553 43.687 712.027 43.9197C710.501 44.1525 708.975 44.3594 707.45 44.5404C707.372 44.5404 707.191 44.5663 706.907 44.5921C706.622 44.6438 706.441 44.6438 706.363 44.6438C706.286 44.5663 706.182 44.4887 706.053 44.3852C705.846 44.2818 705.743 44.1525 705.717 43.9973ZM711.122 36.4974C711.303 36.8077 711.562 36.937 711.872 36.8853C712.286 36.8594 712.622 36.6267 712.881 36.2129C713.139 35.7991 713.32 35.3336 713.45 34.8164C713.579 34.2991 713.682 33.7819 713.734 33.2388C713.786 32.6957 713.838 32.2819 713.889 31.9974C713.915 31.7388 713.967 31.3767 713.993 30.8854C714.019 30.4198 714.07 29.9543 714.096 29.5147C714.122 29.075 714.148 28.6871 714.174 28.3768C714.2 28.0406 714.2 27.8854 714.2 27.8337L714.148 27.3681C714.148 25.2733 714.174 23.1268 714.2 20.9027C714.225 18.6786 714.096 16.4803 713.734 14.3338C713.553 13.2476 713.32 12.3683 713.088 11.7218C712.829 11.0752 712.312 10.3511 711.458 9.54936C711.329 9.36832 711.226 9.21315 711.148 9.08384C711.044 8.9804 710.863 8.92867 710.605 8.9804C710.424 9.03212 710.346 9.18729 710.398 9.47177C710.45 9.75625 710.475 9.91142 710.475 9.96315C710.579 12.2648 710.657 14.5924 710.708 16.8941C710.734 19.1958 710.812 21.5234 710.889 23.8251C710.915 25.713 710.863 27.6526 710.708 29.5923C710.553 31.5319 710.631 33.4715 710.941 35.3595C710.941 35.437 710.967 35.6181 711.019 35.9025C711.096 36.2388 711.122 36.4198 711.122 36.4974Z" fill="#2BB673"/>
<path d="M727.523 41.0491C727.523 40.9715 727.549 40.8939 727.575 40.7905C727.601 40.687 727.601 40.6353 727.575 40.5836C727.601 40.0922 727.679 39.4974 727.756 38.7991C727.834 38.1008 727.963 37.5319 728.144 37.0664C728.248 36.8077 728.454 36.6008 728.713 36.4715C728.972 36.3422 729.256 36.2388 729.541 36.1353C729.825 36.0319 730.11 35.9284 730.368 35.8508C730.627 35.7474 730.834 35.5922 730.989 35.3595C731.015 35.3595 731.041 35.3078 731.066 35.1784C731.092 35.075 731.092 34.9715 731.092 34.894C731.092 34.8164 731.092 34.6612 731.118 34.4285C731.144 34.1957 731.144 33.9371 731.17 33.6526C731.196 33.3681 731.196 33.1095 731.196 32.825V32.2561C731.092 29.1785 731.067 26.1268 731.118 23.101C731.17 20.0751 731.118 17.0234 730.911 13.9976C730.911 13.92 730.885 13.7649 730.86 13.5321C730.834 13.2993 730.782 13.0666 730.782 12.7821C730.756 12.5235 730.756 12.2649 730.73 12.058C730.704 11.8252 730.704 11.6442 730.704 11.5407C730.627 11.2045 730.446 10.9976 730.161 10.9201C729.877 10.8425 729.567 10.7649 729.23 10.6873C728.894 10.6097 728.584 10.4804 728.325 10.3252C728.067 10.1442 727.911 9.83386 727.86 9.39421C727.86 9.36835 727.86 9.31663 727.834 9.29076C727.808 9.23904 727.808 9.21318 727.808 9.18732V8.02354C727.808 7.48044 727.808 6.88562 727.834 6.26493C727.86 5.64425 727.86 5.04943 727.86 4.50633V3.36841C727.937 3.05807 728.041 2.696 728.144 2.23049C728.248 1.76498 728.48 1.50636 728.765 1.42877L728.868 1.4805H728.972C729.541 1.58394 730.342 1.63567 731.351 1.6098C732.385 1.58394 733.42 1.6098 734.48 1.66153C735.541 1.71325 736.523 1.84256 737.454 2.04946C738.385 2.25635 739.032 2.61842 739.42 3.16151C739.601 3.39427 739.704 3.75634 739.704 4.24771C739.704 4.73908 739.73 5.12701 739.756 5.38563C739.86 7.01492 739.808 8.15284 739.601 8.79939C739.394 9.44594 739.161 9.88559 738.851 10.1183C738.566 10.3511 738.282 10.5063 737.972 10.558C737.661 10.6356 737.48 10.9459 737.403 11.4632C737.144 13.0666 736.989 14.6442 736.937 16.2476C736.911 17.851 736.911 19.4286 736.963 21.032C737.015 22.6355 737.092 24.213 737.222 25.7906C737.325 27.3682 737.429 28.9457 737.506 30.5492V31.144V32.2043C737.506 32.5923 737.506 32.9285 737.532 33.2647C737.558 33.6009 737.558 33.7819 737.558 33.8595V34.325C737.584 34.7905 737.765 35.075 738.075 35.2302C738.385 35.3853 738.722 35.5146 739.11 35.6698C739.497 35.7991 739.834 35.9802 740.17 36.1871C740.48 36.3939 740.687 36.7819 740.765 37.3508C740.765 37.6095 740.765 37.9974 740.791 38.5146C740.816 39.0319 740.791 39.5491 740.713 40.0405C740.635 40.5577 740.506 41.0232 740.299 41.437C740.092 41.8508 739.756 42.0835 739.291 42.1094C738.541 42.2646 737.661 42.2904 736.704 42.2129C735.748 42.1353 734.868 42.1353 734.118 42.2129C734.015 42.2129 733.73 42.2387 733.291 42.2904C732.851 42.3422 732.385 42.3939 731.92 42.4715C731.454 42.5232 730.989 42.5749 730.549 42.6008C730.11 42.6525 729.851 42.6525 729.722 42.6525C729.179 42.6784 728.687 42.5749 728.248 42.3422C727.86 42.1353 727.601 41.6956 727.523 41.0491Z" fill="#2BB673"/>
<path d="M748.781 38.4887C748.807 38.4112 748.781 38.256 748.703 37.9715C748.6 37.7129 748.497 37.4025 748.367 37.0922C748.238 36.7819 748.109 36.4715 747.979 36.187C747.85 35.9026 747.747 35.6957 747.721 35.5405V33.5491V31.6095C747.721 31.3767 747.721 30.8854 747.747 30.1095C747.772 29.3337 747.772 28.5061 747.798 27.6009C747.824 26.7216 747.85 25.8682 747.85 25.0923C747.876 24.3165 747.876 23.8251 747.876 23.5923V20.0493C747.928 19.7907 747.953 19.351 747.953 18.7562C747.979 18.1614 748.005 17.5665 748.031 16.9459C748.057 16.3252 748.083 15.7303 748.109 15.2131C748.134 14.6959 748.16 14.3338 748.186 14.1269C748.186 14.0493 748.212 13.8166 748.238 13.4286C748.264 13.0149 748.341 12.7562 748.419 12.6011C748.522 11.9545 748.6 11.2821 748.652 10.558C748.678 9.83385 748.807 9.16144 748.988 8.5149C749.221 7.92008 749.583 7.19595 750.074 6.34251C750.566 5.51493 751.16 4.71321 751.859 3.98908C752.557 3.23909 753.333 2.6184 754.16 2.07531C754.988 1.53221 755.867 1.27359 756.772 1.27359C757.445 1.27359 757.988 1.29945 758.376 1.32531C758.764 1.35118 759.074 1.42876 759.384 1.55807C759.669 1.66152 759.927 1.84255 760.16 2.10117C760.393 2.35979 760.678 2.69599 761.014 3.1615C761.014 3.23909 761.065 3.31667 761.117 3.39426L761.221 3.49771V8.72179L760.781 9.058C759.074 9.13558 757.703 9.49765 756.721 10.1442C755.712 10.7907 755.04 11.7994 754.703 13.17C754.652 13.4804 754.626 13.9717 754.548 14.67C754.497 15.3683 754.419 16.1183 754.341 16.8941C754.264 17.67 754.186 18.42 754.109 19.1182C754.031 19.8165 754.005 20.3079 754.005 20.5665V22.7648C754.005 24.213 754.005 25.5578 754.031 26.7992C754.057 28.0406 754.109 29.4371 754.186 30.963C754.264 32.0492 754.497 32.9543 754.859 33.6267C755.247 34.2991 755.686 34.8422 756.229 35.256C756.746 35.6439 757.315 35.9543 757.936 36.1612C758.531 36.3681 759.1 36.5491 759.643 36.6784C760.16 36.8077 760.626 36.9629 761.014 37.1181C761.402 37.2991 761.634 37.5319 761.712 37.8422V39.368C761.712 39.6784 761.738 40.0405 761.764 40.4801C761.79 40.9198 761.79 41.3594 761.738 41.7991C761.686 42.2387 761.557 42.6266 761.376 42.9628C761.195 43.299 760.833 43.5318 760.341 43.6352H758.815C756.54 43.6352 754.522 43.2473 752.764 42.4456C750.979 41.6697 749.66 40.3508 748.781 38.4887Z" fill="#2BB673"/>
<path d="M768.303 43.4801C768.148 43.3766 767.993 43.2473 767.838 43.118C767.683 42.9887 767.605 42.8335 767.605 42.6266C767.424 40.8163 767.424 38.9542 767.631 37.1181C767.838 35.256 767.941 33.4198 767.941 31.5836C767.941 29.3078 767.864 27.0319 767.734 24.7302C767.605 22.4285 767.45 20.1527 767.295 17.851C767.14 15.5493 767.01 13.2735 766.933 10.9976C766.829 8.72178 766.829 6.47181 766.907 4.22183C766.907 3.98907 766.959 3.75632 767.114 3.4977C767.243 3.23908 767.45 3.08391 767.709 3.03218C768.097 2.98046 768.536 3.00632 769.053 3.08391C769.571 3.16149 769.984 3.18736 770.321 3.13563C770.476 3.13563 770.76 3.13563 771.174 3.10977C771.588 3.08391 772.027 3.05805 772.519 3.05805C772.984 3.03218 773.45 3.00632 773.864 3.00632C774.278 2.98046 774.562 2.98046 774.717 2.98046C774.743 2.98046 774.898 2.9546 775.183 2.92874C775.441 2.90288 775.726 2.85115 776.036 2.82529C776.346 2.77357 776.605 2.7477 776.864 2.69598C777.122 2.67012 777.278 2.64426 777.355 2.64426C777.588 2.64426 777.95 2.6184 778.467 2.59253C778.984 2.54081 779.502 2.54081 779.993 2.59253C780.51 2.6184 780.976 2.69598 781.39 2.82529C781.803 2.92874 782.036 3.16149 782.062 3.4977L782.45 8.28213C782.476 8.59248 782.346 8.85109 782.062 9.05799C781.752 9.26488 781.467 9.39419 781.208 9.42005C780.458 9.49764 779.683 9.47178 778.933 9.34247C778.183 9.21316 777.407 9.1873 776.605 9.26488C776.424 9.26488 776.165 9.26488 775.855 9.29074C775.545 9.31661 775.234 9.36833 774.924 9.42005C774.588 9.49764 774.329 9.62695 774.096 9.75626C773.89 9.91143 773.76 10.1183 773.76 10.4287C773.864 11.9545 773.864 13.5321 773.76 15.1614C773.657 16.7907 773.657 18.3941 773.812 19.9458C773.812 20.1268 773.838 20.3855 773.864 20.6958C773.89 21.0061 774.019 21.2389 774.2 21.4458C774.355 21.5492 774.588 21.6527 774.898 21.7044C775.234 21.7561 775.545 21.782 775.907 21.782C776.243 21.782 776.579 21.782 776.864 21.7561C777.174 21.7303 777.381 21.7303 777.536 21.7303C777.691 21.7303 777.976 21.7044 778.39 21.6786C778.803 21.6527 779.243 21.601 779.708 21.5492C780.174 21.4975 780.614 21.4458 781.027 21.4199C781.441 21.3682 781.726 21.3682 781.881 21.3682C781.984 21.3682 782.088 21.4458 782.165 21.5751C782.243 21.7044 782.269 21.8079 782.269 21.8854L782.657 25.5837C782.708 25.9199 782.605 26.2561 782.398 26.6182C782.191 26.9544 781.933 27.1613 781.622 27.1871C780.795 27.2906 779.941 27.2906 779.114 27.1613C778.286 27.0319 777.433 27.0061 776.553 27.0837C776.01 27.1613 775.648 27.2906 775.415 27.4975C775.183 27.7044 775.027 27.963 774.95 28.2733C774.872 28.5837 774.846 28.9199 774.846 29.3078V30.4974C774.846 30.6009 774.821 30.8854 774.795 31.325C774.743 31.7647 774.717 32.2302 774.64 32.7215C774.562 33.2129 774.536 33.6784 774.51 34.0922C774.484 34.506 774.433 34.7905 774.407 34.8939C774.484 34.9457 774.51 35.0491 774.458 35.2301C774.433 35.4112 774.433 35.5663 774.51 35.6698C774.51 35.9025 774.562 36.187 774.614 36.4974C774.691 36.8336 774.898 36.9887 775.234 36.9887H776.579H778.571H780.562H781.855C782.45 36.9887 783.019 37.0405 783.51 37.1698C784.002 37.2732 784.338 37.7129 784.545 38.4111C784.545 38.4887 784.571 38.6698 784.622 38.9542C784.674 39.2387 784.726 39.5491 784.803 39.9111C784.855 40.2732 784.907 40.6353 784.984 40.9973C785.036 41.3594 785.088 41.6439 785.139 41.8249V42.1611C785.217 42.7042 785.088 42.9887 784.752 43.0663C784.415 43.1439 784.027 43.2214 783.614 43.299C782.01 43.4801 780.433 43.5318 778.829 43.4283C777.226 43.3508 775.648 43.2732 774.045 43.2214C773.941 43.1956 773.657 43.1956 773.191 43.2473C772.726 43.299 772.467 43.3249 772.39 43.3249C772.234 43.3249 771.95 43.3249 771.562 43.3508C771.174 43.3766 770.734 43.4025 770.321 43.4283C769.881 43.4542 769.467 43.4801 769.105 43.5059C768.717 43.4801 768.459 43.4801 768.303 43.4801Z" fill="#2BB673"/>
<path d="M790.107 40.118C790.107 39.6266 790.185 39.1094 790.366 38.5922C790.547 38.0749 790.78 37.5836 791.142 37.1439C791.478 36.7043 791.918 36.3422 792.435 36.0577C792.978 35.7732 793.599 35.6439 794.323 35.6439C794.659 35.6439 794.995 35.6698 795.331 35.6956C795.668 35.7474 796.004 35.825 796.288 35.9801C797.038 36.7043 797.788 37.4542 798.487 38.2042C799.185 38.9542 799.547 39.8077 799.547 40.7646C799.547 41.1784 799.418 41.618 799.185 42.1094C798.926 42.5749 798.616 43.0145 798.202 43.4283C797.788 43.8163 797.297 44.1525 796.78 44.3852C796.237 44.618 795.694 44.7473 795.125 44.7473C794.375 44.7473 793.676 44.618 793.056 44.3594C792.435 44.1007 791.892 43.7387 791.452 43.299C791.013 42.8594 790.676 42.368 790.444 41.8249C790.211 41.2559 790.107 40.687 790.107 40.118Z" fill="#2BB673"/>
<path d="M806.375 40.118C806.375 39.6266 806.453 39.1094 806.634 38.5922C806.815 38.0749 807.047 37.5836 807.41 37.1439C807.746 36.7043 808.185 36.3422 808.703 36.0577C809.246 35.7732 809.866 35.6439 810.59 35.6439C810.927 35.6439 811.263 35.6698 811.599 35.6956C811.935 35.7474 812.272 35.825 812.556 35.9801C813.306 36.7043 814.056 37.4542 814.754 38.2042C815.453 38.9542 815.815 39.8077 815.815 40.7646C815.815 41.1784 815.685 41.618 815.453 42.1094C815.194 42.5749 814.884 43.0145 814.47 43.4283C814.056 43.8163 813.565 44.1525 813.047 44.3852C812.504 44.618 811.961 44.7473 811.392 44.7473C810.642 44.7473 809.944 44.618 809.323 44.3594C808.703 44.1007 808.16 43.7387 807.72 43.299C807.28 42.8594 806.944 42.368 806.711 41.8249C806.478 41.2559 806.375 40.687 806.375 40.118Z" fill="#2BB673"/>
<path d="M822.637 40.118C822.637 39.6266 822.714 39.1094 822.895 38.5922C823.076 38.0749 823.309 37.5836 823.671 37.1439C824.007 36.7043 824.447 36.3422 824.964 36.0577C825.507 35.7732 826.128 35.6439 826.852 35.6439C827.188 35.6439 827.525 35.6698 827.861 35.6956C828.197 35.7474 828.533 35.825 828.818 35.9801C829.568 36.7043 830.318 37.4542 831.016 38.2042C831.714 38.9542 832.076 39.8077 832.076 40.7646C832.076 41.1784 831.947 41.618 831.714 42.1094C831.456 42.5749 831.145 43.0145 830.731 43.4283C830.318 43.8163 829.826 44.1525 829.309 44.3852C828.766 44.618 828.223 44.7473 827.654 44.7473C826.904 44.7473 826.206 44.618 825.585 44.3594C824.964 44.1007 824.421 43.7387 823.982 43.299C823.542 42.8594 823.206 42.368 822.973 41.8249C822.74 41.2559 822.637 40.687 822.637 40.118Z" fill="#2BB673"/>
</svg>
