<svg width="167" height="162" viewBox="0 0 167 162" fill="none" xmlns="http://www.w3.org/2000/svg">
<path d="M108.024 30.8772C107.669 26.1827 105.756 14.0653 99.0596 8.27236C88.3418 -1.01052 65.7015 -3.34892 53.6196 5.7568C46.2322 11.3194 38.3134 21.0275 38.6146 31.8162C25.2572 30.0092 19.5528 40.5853 23.7691 50.5945C8.35668 50.5945 1.16422 71.1621 11.138 77.2739C-2.52058 77.8054 -4.64643 103.404 10.5534 107.886C11.5455 106.061 7.78979 116.478 13.7245 125.106C17.9407 131.235 23.5211 135.593 34.0972 136.479C35.5498 148.136 50.1296 158.588 57.3044 159.899C73.0534 162.804 91.1585 160.838 100.849 151.377C107.014 145.461 111.673 138.534 112.382 129.552C118.299 128.135 123.33 124.893 126.412 118.976C129.495 113.059 129.034 107.213 127.369 101.544C132.807 100.127 138.016 94.7945 138.724 88.6472C139.681 81.7914 137.591 75.0064 131.302 73.5183C142.728 62.0918 128.573 50.6122 123.56 50.6122C127.67 38.8138 113.445 30.1155 108.024 30.8772Z" fill="#DB7A1C"/>
<path d="M23.9106 50.2933C23.9106 50.2933 47.5962 61.5958 79.3067 59.3459C104.339 57.5567 117.802 52.0648 117.802 52.0648" stroke="#A85318" stroke-linecap="round"/>
<path d="M10.7124 76.5654C10.7124 76.5654 58.9692 85.0333 84.8337 83.7401C110.06 82.4823 124.782 74.2801 124.782 74.2801" stroke="#A85318" stroke-linecap="round"/>
<path d="M12.2905 107.815C12.2905 107.815 49.3157 114.724 74.3653 112.102C104.783 108.914 119.132 103.121 119.132 103.121" stroke="#A85318" stroke-linecap="round"/>
<path d="M34.2568 136.178C34.2568 136.178 58.4915 142.502 79.1654 138.498C99.8393 134.495 106.146 130.775 106.146 130.775" stroke="#A85318" stroke-linecap="round"/>
<path d="M56.5949 82.4114C53.6188 89.7633 53.8136 98.3021 54.6994 102.005C60.386 121.35 87.5261 116.549 88.2347 100.056C88.589 94.0327 86.3391 83.4212 82.796 78.3369C79.253 72.9337 69.6512 70.4004 63.9823 74.5281C63.9646 74.5458 58.4551 77.8231 56.5949 82.4114Z" fill="#814114"/>
<path d="M59.4306 35.1466L56.4189 29.3537L60.3341 24.1454L66.4459 24.9071L69.4575 30.7L65.0109 36.2095L59.4306 35.1466Z" fill="#A85318"/>
<path d="M78.4204 37.308L75.5859 31.0722L78.9341 25.3678H85.046L88.9611 30.1864L85.4534 37.2726L78.4204 37.308Z" fill="#DB7A1C"/>
<path d="M54.7185 35.3416L59.0765 34.4558L56.2774 29.3538L51.0159 27.7771L46.2505 32.2414L50.5908 34.2078L54.7185 35.3416Z" fill="#F39200"/>
<path d="M69.0507 30.7887L66.0391 24.9957L69.5467 19.4862L76.0837 19.7697L79.0953 25.5626L75.5877 31.0721L69.0507 30.7887Z" fill="#A85318"/>
<path d="M70.5902 9.86685L68.6592 4.16249L71.2988 0.778839L76.8437 1.00915L80.2628 4.72934L76.3831 10.1503L70.5902 9.86685Z" fill="#A85318"/>
<path d="M69.8816 19.433L67.7026 14.5258L70.5725 9.97302L76.3832 10.1501L78.6331 14.3664L75.834 19.9291L69.8816 19.433Z" fill="#DB7A1C"/>
<path d="M60.334 24.1455L58.4385 18.2817L62.1941 12.9316L67.7036 14.526L69.8826 19.4332L66.375 24.9427L60.334 24.1455Z" fill="#F39200"/>
<path d="M62.1946 12.9316L59.0767 7.68782L63.2398 2.74521L68.6076 4.16247L70.5562 9.86684L67.6686 14.5259L62.1946 12.9316Z" fill="#F39200"/>
<path d="M95.4987 13.0909L91.4419 8.85699L92.6643 4.16241L97.6954 6.81973L101.575 10.8588L101.044 13.3213L95.4987 13.0909Z" fill="#F39200"/>
<path d="M78.9356 25.3678L75.8354 19.9291L78.6345 14.3665L83.772 13.8704L88.254 19.2913L85.0475 25.3678H78.9356Z" fill="#F39200"/>
<path d="M88.2525 19.2914L83.7705 13.8705L85.9672 8.71527L91.4413 8.85702L95.4981 13.091L93.8329 19.1851L88.2525 19.2914Z" fill="#A85318"/>
<path d="M99.3067 35.3416L94.1338 30.0447L96.9505 23.2774L102.336 22.055L106.481 26.8204L105.153 33.3752L99.3067 35.3416Z" fill="#A85318"/>
<path d="M58.457 18.1576L62.195 12.9315L59.0771 7.68777H54.1345L51.2114 11.9572L53.2664 17.5907L58.457 18.1576Z" fill="#A85318"/>
<path d="M46.3377 32.3831L51.0146 27.7771L49.4379 22.7991L44.7256 22.055L40.4385 25.9347L40.7751 31.5505L46.3377 32.3831Z" fill="#A85318"/>
<path d="M88.4645 30.7001L85.0454 25.3678L88.2519 19.2913L93.8145 19.2028L96.9502 23.2773L94.1689 30.1864L88.4645 30.7001Z" fill="#F39200"/>
<path d="M56.4183 29.3538L60.3335 24.1455L58.4379 18.2639L53.265 17.5907L49.4385 22.7991L51.0151 27.7771L56.4183 29.3538Z" fill="#DB7A1C"/>
<path d="M38.7729 31.5327C38.7729 31.5327 62.299 37.2549 81.4494 37.3789C94.0096 37.4497 104.285 33.3043 104.285 33.3043" stroke="#A85318" stroke-linecap="round"/>
<path d="M140.55 138.002C141.4 139.544 147.565 141.475 149.673 142.91C147.565 143.069 144.323 142.396 142.286 142.095C140.674 141.829 139.292 141.28 137.715 141.12C137.432 141.156 139.575 138.073 140.55 138.002Z" fill="black"/>
<g opacity="0.6">
<g opacity="0.6">
<path opacity="0.6" d="M119.061 124.822C118.671 121.669 120.921 111.996 134.756 100.747C137.786 98.2843 150.559 91.4107 152.897 93.4834C153.995 94.4578 157.981 100.233 143.667 113.838C138.087 119.118 127.759 123.068 120.389 124.556C119.61 124.68 119.202 124.946 119.061 124.822Z" fill="#DAD8CC"/>
</g>
</g>
<path d="M121.276 128.472C124.783 119.95 132.437 115.008 138.336 117.435C144.235 119.862 146.166 128.755 142.641 137.294C139.115 145.833 131.48 150.775 125.581 148.33C119.681 145.886 117.75 136.993 121.276 128.472Z" fill="#FFDE00"/>
<path d="M116.545 128.968C119.751 121.208 127.121 116.886 133.02 119.33C138.919 121.757 141.116 130.03 137.91 137.79C134.721 145.549 127.334 149.872 121.434 147.427C115.535 144.982 113.338 136.727 116.545 128.968Z" fill="black"/>
<path d="M110.964 125.495C114.489 116.974 122.124 112.014 128.024 114.459C133.923 116.886 135.854 125.779 132.346 134.318C128.821 142.857 121.185 147.799 115.286 145.354C109.369 142.91 107.438 134.034 110.964 125.495Z" fill="#FFDE00"/>
<path d="M104.162 121.899C107.687 113.378 115.322 108.418 121.222 110.862C127.121 113.289 129.052 122.183 125.544 130.721C122.019 139.243 114.383 144.203 108.484 141.758C102.585 139.331 100.654 130.438 104.162 121.899Z" fill="black"/>
<path d="M110.079 113.201C110.079 113.201 112.471 103.758 111.939 103.05C111.426 102.341 108.06 102.926 108.06 102.926" stroke="black" stroke-width="0.45" stroke-miterlimit="10" stroke-linecap="round" stroke-linejoin="round"/>
<path d="M104.003 113.732C104.003 113.732 103.489 104.007 102.78 103.475C102.072 102.944 99.0425 104.52 99.0425 104.52" stroke="black" stroke-width="0.45" stroke-miterlimit="10" stroke-linecap="round" stroke-linejoin="round"/>
<g opacity="0.6">
<g opacity="0.6">
<path opacity="0.6" d="M121.169 124.893C120.762 124.893 123.047 121.952 123.454 121.279C126.679 117.399 130.416 114.441 134.721 111.766C141.418 107.62 148.965 104.538 156.866 104.804C159.151 104.804 166.06 104.343 166.219 106.823C167.211 122.997 137.52 129.446 121.169 124.893Z" fill="#DAD8CC"/>
</g>
</g>
<path d="M118.989 123.617C118.723 117.08 116.225 114.494 112.611 112.758C107.917 110.349 98.5453 110.473 94.6834 116.177C88.2172 125.743 92.1855 137.613 104.887 138.605C115.41 139.42 119.131 126.824 118.989 123.617Z" fill="#FFDE00"/>
<path d="M99.2716 123.44C101.947 124.84 104.409 123.688 105.206 121.527C106.039 119.259 104.657 116.549 101.929 116.212C98.4036 115.77 95.764 121.598 99.2716 123.44Z" fill="white"/>
<path d="M99.8922 119.791C100.353 120.163 100.92 119.986 101.079 119.561C101.256 119.118 100.973 118.586 100.441 118.515C99.7505 118.427 99.3253 119.33 99.8922 119.791Z" fill="black"/>
<path d="M95.959 133.095C95.959 133.095 97.3231 133.946 98.9175 133.379C101.699 132.387 101.274 129.676 101.274 129.676" stroke="black" stroke-width="0.45" stroke-miterlimit="10" stroke-linecap="round" stroke-linejoin="round"/>
<path d="M115.658 140.465C115.658 140.465 117.058 143.583 117.678 145.089C118.617 147.392 120.016 148.313 120.016 148.313" stroke="black" stroke-width="0.45" stroke-miterlimit="10" stroke-linecap="round" stroke-linejoin="round"/>
<path d="M122.621 142.36C122.621 142.36 123.187 144.592 123.808 146.116C124.746 148.419 126.819 149.641 126.819 149.641" stroke="black" stroke-width="0.45" stroke-miterlimit="10" stroke-linecap="round" stroke-linejoin="round"/>
<path d="M128.821 142.732C128.821 142.732 129.742 144.841 130.593 146.24C131.886 148.366 134.118 149.234 134.118 149.234" stroke="black" stroke-width="0.45" stroke-miterlimit="10" stroke-linecap="round" stroke-linejoin="round"/>
</svg>
