<svg width="698" height="588" viewBox="0 0 698 588" fill="none" xmlns="http://www.w3.org/2000/svg">
<path d="M84.1975 77.8339C84.1975 77.8339 103.11 435.855 77.0596 482.826C144.943 487.743 625.404 482.58 625.404 482.58C634.535 480.769 643.744 457.673 634.683 422.403C634.232 420.692 622.806 421.348 622.806 421.348C619.647 385.997 615.019 272.87 612.865 216.832C607.808 84.7949 615.103 110.878 612.33 90.8451C612.208 89.9457 617.63 89.5572 617.92 88.9076C621.492 81.1645 619.472 73.978 619.472 73.978L84.1975 77.8339Z" fill="#DAD8CC"/>
<path d="M67.7289 74.6504L67.4424 84.8652L648.496 83.4157L648.729 73.2041L67.7289 74.6504Z" fill="black"/>
<path d="M54.0082 66.8946C46.4589 72.1037 44.6005 82.4585 49.8313 89.9832C55.0636 97.5311 65.4185 99.3896 72.9432 94.1587C80.4693 88.951 82.3277 78.5962 77.0969 71.0715C71.8878 63.5222 61.5315 61.6405 54.0082 66.8946Z" fill="black"/>
<path d="M633.009 67.2478C625.854 72.4328 624.089 82.782 629.111 90.3194C634.11 97.8583 644.002 99.7682 651.179 94.5586C658.356 89.3489 660.1 79.0243 655.099 71.4623C650.079 63.9481 640.186 62.0381 633.009 67.2478Z" fill="black"/>
</svg>
