<?xml version="1.0" encoding="utf-8"?>
<!-- Generator: Adobe Illustrator 25.3.1, SVG Export Plug-In . SVG Version: 6.00 Build 0)  -->
<svg version="1.1" id="Layer_1" xmlns="http://www.w3.org/2000/svg" xmlns:xlink="http://www.w3.org/1999/xlink" x="0px" y="0px"
	 viewBox="0 0 974 270" style="enable-background:new 0 0 974 270;" xml:space="preserve">
<style type="text/css">
	.st0{fill:none;stroke:#000000;stroke-width:0.712;stroke-miterlimit:10;}
	.st1{fill:#B4B0A5;}
	.st2{fill:#3C3C3B;}
	.st3{fill:#FAFAFB;}
	.st4{fill:#DAD8CC;}
	.st5{fill:#E30613;}
	.st6{fill:none;stroke:#DADADA;stroke-width:0.712;stroke-miterlimit:10;}
	.st7{fill:#908B84;}
	.st8{fill:#28B674;}
</style>
<path class="st0" d="M794.8,108.9c0-3.4,1.9-28.2,2.1-31.3"/>
<path class="st0" d="M933.7,114.5c0-3.2-0.4-28.5-0.2-31.3"/>
<path class="st0" d="M862.1,36l-0.2-35"/>
<path d="M832.8,118.1c0,1.8,13.6,3.1,28.4,2.9c14.8-0.2,28.3-1.9,28.3-3.8c0-1.8-13.6-3.1-28.4-2.9
	C846.3,114.5,832.8,116.2,832.8,118.1z"/>
<path d="M917.4,158.7c0,1.2,8.2,2,18.2,1.8c10-0.3,18.1-1.5,18.1-2.7c0-1.2-8.2-2-18.2-1.7C925.4,156.3,917.4,157.5,917.4,158.7z"/>
<path d="M808.9,155.2c0,1.2-8.2,2-18.2,1.8c-10-0.3-18.1-1.5-18-2.7c0-1.2,8.2-2,18.2-1.8C800.9,152.7,809,153.9,808.9,155.2z"/>
<path class="st1" d="M799.7,336.6c-6.4,1.9-8.1,4.4-26.8,2.6c-13.1-1.2-21.9-6.4-21.9-6.4s13.9-82,15.5-90.6c6-34,6.8-55.5,7.9-67.9
	c1.2-17.3,0.1-28.4,6.8-32.8c4.5-3,22.6,6,23.8,9.4c1.1,3.4-4.1,48.7-4.1,55.1s4.1,67.6,4.5,72.5
	C805.7,283.4,799.7,336.6,799.7,336.6z"/>
<path class="st1" d="M823.5,257.1c0,0,5.7-73.6,6.8-77.8c1.1-4.2,5.3-6,5.3-6s2.1-54.3,3-61.2c0.7-5.2,29.1-3.8,29.1-3.8
	s15.5-1.1,16.6,6.4c1.1,7.5,1.1,60.8,2.3,61.5c1.1,0.8,3,1.5,4.2,4.5c1.1,3,5.7,75.9,3.8,77.8C892.6,260.5,827.6,256.4,823.5,257.1z
	"/>
<path class="st1" d="M913.3,337.6c0,0,11.1,2.5,27.4,2.3c16.4-0.3,25.2-7.1,26.2-8.1c1-1-8.3-50.8-8.3-59.9c0-9.1-7.5-59.4-7.8-61.9
	c-0.3-2.5-0.9-50.4-1.4-52.7c-0.5-2.3-7.4-4.2-7.4-4.2s-20.6,1.8-20.6,5.1c0,1.9,1.3,23.3-0.4,48.3c-1.3,18.9-4.9,46.9-6,53.6
	C912.6,275.7,910,333.4,913.3,337.6z"/>
<path class="st2" d="M772.7,154.4c0.6,0,7.2-2,17.2-2c10,0,18.5,2.5,19.1,2.5c-1.5-8.6-12.5-56.8-13.4-58.1
	C794.7,95.7,778.4,136.1,772.7,154.4z"/>
<path class="st2" d="M953.6,157.9c-0.6,0-7.2-2-17.2-2c-10,0-18.5,2.5-19.1,2.5c1.5-8.6,14.7-56.8,15.7-58.1
	C934,99,950.4,147.7,953.6,157.9z"/>
<path class="st2" d="M889.4,117.5c-0.9,0-8.8-5.1-26.9-4.7c-18.5,0.3-28.9,5-29.8,5c2.3-12.7,27.3-89.1,28.7-91
	C862.9,24.8,884.9,102.3,889.4,117.5z"/>
<path class="st3" d="M782.6,231.2c0,0-0.2-11.2,0.9-14.2c1.1-2.9,5.1-2.9,5.7,2.2c0.6,5.1,0.1,12,0.1,12H782.6z"/>
<path class="st3" d="M786.1,176.4c0-0.7,0-10.8,1.1-13.1c1.1-2.3,4.5-2,5.2,1.4c0.8,3.5-1.5,12.6-1.5,12.6L786.1,176.4z"/>
<path class="st4" d="M781.5,233.9c1,0.4,9.6,0.2,9.6,0.2s0.6-4,0-4c-0.6,0-9.1-0.9-9.7-0.3C780.7,230.3,780.2,233.4,781.5,233.9z"/>
<path class="st4" d="M785.5,178c0.6,0.1,5.4,0.6,6.3,0.6s1.2-3.2,0.1-3.2c-1.1,0-6.6-0.6-7.1-0.2C784.4,175.7,783.6,177.7,785.5,178
	z"/>
<path class="st3" d="M933.6,231c0,0-0.2-9.7,0.9-12.2c1.1-2.5,5.1-2.5,5.7,1.9c0.6,4.4,0.1,10.3,0.1,10.3H933.6z"/>
<path class="st4" d="M932.5,234.4c1,0.4,9.6,0.2,9.6,0.2s0.6-4,0-4c-0.6,0-9.1-0.9-9.7-0.3C931.7,230.8,931.2,233.9,932.5,234.4z"/>
<path class="st3" d="M934.2,180.4c-0.1-0.7-1.2-10.1-0.3-12.4c0.8-2.3,4.2-2.4,5.4,0.8c1.1,3.1-0.2,11.9-0.2,11.9L934.2,180.4z"/>
<path class="st4" d="M933.8,182.1c0.6,0,5.4,0,6.4-0.1c0.9-0.1,0.9-3.4-0.2-3.2c-1.1,0.1-6.7,0.1-7.1,0.6
	C932.4,179.9,931.9,182,933.8,182.1z"/>
<path class="st5" d="M817.2,83.2c-2-1-5.2-2.8-7.2-3.2c-3.9-0.8-5.3,0.2-8.5-0.1c-2.1-0.2-4-1.4-4.8-1.7l-0.6,7.5
	c2.7,1.1,5.2,2,9.4-0.1C810.1,83.2,812.3,83.2,817.2,83.2z"/>
<path class="st5" d="M954.4,88.7c-2.1,0.9-5.3,2.5-7.4,2.8c-3.9,0.6-5.3-0.6-8.5-0.4c-2.1,0.1-4,1.1-4.9,1.4l-0.1-7.5
	c2.7-0.9,5.3-1.7,9.4,0.7C947.3,88.2,949.5,88.5,954.4,88.7z"/>
<path class="st5" d="M889.6,6c-2.3,2.1-7.7,4.8-10.3,5.2c-5,0.7-6.8-0.7-10.9-0.6c-2.7,0.1-5.2,1.5-6.3,1.8l-0.2-9.6
	c3.5-1.2,6.8-2.2,12,0.9C879.7,7.1,883.3,6,889.6,6z"/>
<path class="st3" d="M855.8,143c0,0-1.3-10.3-0.8-13.4c0.9-5.5,9.6-6.4,9.4,1.3c-0.2,7-0.6,12.6-0.6,12.6L855.8,143z"/>
<path class="st3" d="M846.6,222.1c0,0-0.1-14.8,0.2-23.5c0.4-12.3,22-14.7,22.7-0.5c0.8,18.2-1.2,23.9-1.2,23.9H846.6z"/>
<path class="st6" d="M858.9,221.8l-0.4-18.2l-11.8-0.3"/>
<path class="st6" d="M858.1,187.8l0.4,15.8l11.6-0.3"/>
<path class="st4" d="M854.2,145.5c1.5,0.9,10,0.6,11,0.2c0.9-0.4,1.1-3.4-0.2-3.6s-10.6-0.6-11.1,0
	C853.3,142.7,853.3,144.9,854.2,145.5z"/>
<path class="st4" d="M844.6,226.3c1.1,0.9,26.6,0.2,27.9,0c0.7-1.6,1.3-15.5,0.4-16c-0.9-0.6-6-0.8-6,0.4s0.8,5.5,0,5.7
	c-0.8,0.2-4.5,0.4-5.3,0c-0.8-0.4,0-6-0.8-6s-5.9-0.4-5.9,0.4c0,0.8,0.8,5.7,0.2,5.7c-0.6,0-5.3,0.8-5.3,0c0-0.8,0-5.7-0.8-5.7
	c-0.8,0-4.9-0.4-4.9,0.6C844.2,212.1,844.2,224.7,844.6,226.3z"/>
<path class="st7" d="M911.6,270c0,0-3.7,9.6-0.7,9.9c3,0.4,20.7,0.4,29.5-0.1c8.8-0.6,19.1-2.2,19.5-2.6c0.4-0.4-0.2-8.9-1.2-9.5
	C957.8,267.1,911.6,270,911.6,270z"/>
<path class="st7" d="M919.3,199.2c0,0,0.4,9.1,1.3,9.1c1,0,7.2-1.8,16.7-1.6c7,0.2,13.9,1.8,14.6,1.7c0.7-0.1,1.7-9.1,1.2-9.7
	c-0.5-0.6-16.4-2.3-16.4-2.3L919.3,199.2z"/>
<path class="st7" d="M808.1,270c0,0,3.7,9.6,0.7,9.9c-3,0.4-20.7,0.4-29.5-0.1c-8.8-0.6-19.1-2.2-19.5-2.6c-0.4-0.4,0.2-8.9,1.2-9.5
	C761.9,267.1,808.1,270,808.1,270z"/>
<path class="st7" d="M771.2,194c0,0-0.5,9.5,0.1,10.4c2.5,0.1,7.2-1.2,16.4-0.8c9.4,0.4,14.5,2.9,14.5,2.1c0-0.8,1.3-9.2,0-9.4
	C800.8,196.2,772.3,193.6,771.2,194z"/>
<path class="st7" d="M827.8,177.3c-0.1,0.9,0.3,8.3,0.8,8.5c0.5,0.1,17-2.4,31.5-2.2c14.1,0.1,22.8,1.1,32,2.7
	c0-0.6,0.3-9.8-0.9-10.6c-1.1-0.8-41-1.7-41-1.7L827.8,177.3z"/>
<path class="st4" d="M908.6,272.3c0,0,16.9,1.8,29.8,1c12.9-0.8,22.3-2.2,22.7-2.4c0.4-0.2,1.7-14.6,0.9-14.7
	c-0.8-0.2-7.2-0.5-7.5-0.1c-0.3,0.3,0.2,8.3-0.4,8.3c-0.6,0-6.3,0.9-7.1,0.9c-0.8,0,1.2-8.3-0.3-8.6c-1.6-0.3-9,0.3-9.2,0.8
	c-0.2,0.5,0.8,8.2,0,8.2s-7.4,0.6-7.9,0.4c-0.4-0.2-0.2-8.9-0.8-9c-0.7-0.1-7.8-0.7-8,0.2c-0.3,0.9-0.3,8.3-0.8,8.3
	c-0.5,0-6.2-0.4-6.6-0.5c-0.4-0.2,1.3-8.7,0.8-8.9c-0.5-0.2-6.2-1.6-6.5-0.9c-0.3,0.7-3.5,13.3-2.9,14.2
	C905,270.3,908.6,272.3,908.6,272.3z"/>
<path class="st4" d="M811.1,272.3c0,0-16.9,1.8-29.8,1c-12.9-0.8-22.3-2.2-22.7-2.4c-0.4-0.2,0.6-14.6,1.4-14.7
	c0.8-0.2,6.4,0.3,6.8,0.6c0.4,0.3-0.9,7.6-0.3,7.6c0.6,0,5.6,0.9,6.3,0.9c0.8,0,0.3-8.3,1.9-8.6c1.6-0.3,8.2,0.3,8.4,0.8
	c0.2,0.5-0.9,8.2,0,8.2c0.9,0,6.7,0.6,7.1,0.4c0.4-0.2,0.2-8.9,0.8-9c0.7-0.1,7.8-0.7,8,0.2c0.3,0.9,0.3,8.3,0.8,8.3
	c0.5,0,6.2-0.4,6.6-0.5c0.4-0.2-1.3-8.7-0.8-8.9c0.5-0.2,6.2-1.6,6.5-0.9c0.3,0.7,3.5,13.3,2.9,14.2
	C814.7,270.3,811.1,272.3,811.1,272.3z"/>
<path class="st4" d="M916.5,191.9c-0.1,0.6,2.3,10.6,2.8,10.6c0.5,0,8.8-2.9,18.2-2.9c9.3,0,15.8,2.5,16.4,2.5
	c0.6,0,3.4-10.9,2.8-11.3c-0.6-0.4-5-1.6-5.5-1.6c-0.5,0-0.9,6-1.3,6c-0.5,0-2.3-0.6-2.9-0.7c-0.6-0.1,0.7-6.3,0-6.4
	c-0.7-0.1-5.8-0.7-5.9-0.4s0,5.8-0.5,5.8c-0.5,0-3.4,0.1-4,0c-0.6-0.1-0.4-6.1-0.7-6.1c-0.4,0-5.9,0.5-6.3,0.7
	c-0.4,0.2,0.9,5.9,0.4,5.9c-0.5,0-4.2,1-4.7,0.9c-0.5-0.1-1.5-5.9-1.8-5.9C922.9,189,916.9,190.3,916.5,191.9z"/>
<path class="st4" d="M768.1,186.7c-0.3,1.6,1.9,11.3,2,12.1c0.1,0.8,6.2-1.7,16.8-1.3c10.7,0.4,16.4,2.8,16.9,2.9
	c0.4,0.1,2.6-11.2,2.8-12.4c0.2-1.2-5.1-2.1-5.2-1.5c-0.2,0.5-0.8,6.3-0.8,6.3s-3.3-0.3-4.3-0.5c-0.1-1,0.9-5.1,0.8-6
	c-0.6-0.7-5.9-0.6-6.1-0.2c-0.2,0.4-0.6,5.2-0.6,5.7c-1.1,0.2-3.4,0.1-5,0c-0.3-0.7,0.5-6.2,0-6.4c-0.5-0.2-5.5-0.4-5.8,0.1
	c-0.3,0.5,0.3,6.3-0.1,6.3c-0.3,0-3.5,0.7-3.9,0.7c-0.3,0-0.9-6.2-0.8-6.6C773.1,185.5,768.9,186.2,768.1,186.7z"/>
<path class="st4" d="M825.2,164.9c-0.1,0.7,0.8,13.9,1.7,14.1c0.9,0.2,17.1-2.8,33.5-2.5c18.5,0.3,31,2.5,31.7,2.5
	c0.7,0,3.2-13.4,2.3-14.1c-0.9-0.7-6.5-2.1-6.6-1.6c-0.1,0.5-0.7,7-1,7c-0.4,0-5-0.1-5.6-0.3c-0.6-0.2,0.2-8.2-0.3-8.3
	c-0.5-0.1-7.4-0.3-7.8-0.2c-0.5,0.1,0,7.6-0.5,7.7c-0.5,0.1-6.7-0.6-7-0.5c-0.3,0.1,0.3-7.9-0.6-7.9c-0.8,0-6.6,0.4-7.2,0.4
	c-0.6,0,0,7.8-0.7,7.8c-0.7,0-7.3,0.3-7.8-0.1c-0.6-0.4-0.2-7.4-0.6-7.6c-0.4-0.3-8.3,0.1-8.8,0.4c-0.5,0.3,0.4,7.5-0.1,7.6
	c-0.5,0.1-6.3,0.7-6.7,0.7c-0.4,0-0.1-7.3-1.1-7.2C831.1,163,825.4,164.1,825.2,164.9z"/>
<path class="st4" d="M817.1,245.8c1,0.9,11,0.7,11.4,0.2c0.4-0.5,0-11.4,0.6-11.8s12.7-1.1,13.4-0.6c0.7,0.5-0.1,11,0.5,11.4
	c0.6,0.4,10,1.2,10.2,0.6c0.2-0.5-0.6-11,0-11.3s10-0.7,10.8-0.3c0.8,0.4,0.5,12.1,1.1,12.2c0.6,0.1,9.2,0.6,9.6,0
	c0.4-0.6,0-10.7,0.6-10.7c0.6,0,12.7-0.9,12.7-0.1c0,0.8-0.4,10.8,0,11.1c0.4,0.3,10.8-0.1,11.8,0c1,0.1,1.4-9.6,1.9-10.4
	c0.5-0.8,12.8-1.1,13.6-0.1c0.8,1,6.7,93.9,8.5,111.2c-32.9,3.6-106.3,3.6-133.6,0.1c1.8-12.8,13-100.8,13.4-102.7
	c0.4-1.9,1.3-10.6,2.1-11c0.8-0.4,10.4,0.2,11.1,0.8S815.9,244.7,817.1,245.8z"/>
<path class="st8" d="M0,270c29-43.3,21.5-50.5,193.8-66s747,72.6,780.2,165H0V270z"/>
</svg>
