<?xml version="1.0" encoding="utf-8"?>
<!-- Generator: Adobe Illustrator 23.0.1, SVG Export Plug-In . SVG Version: 6.00 Build 0)  -->
<svg version="1.1" id="Layer_1" xmlns="http://www.w3.org/2000/svg" xmlns:xlink="http://www.w3.org/1999/xlink" x="0px" y="0px"
	 viewBox="0 0 842 643" style="enable-background:new 0 0 842 643;" xml:space="preserve">
<style type="text/css">
	.st0{fill:#2BB673;}
</style>
<path class="st0" d="M13.4,22.9c0.1,0.8,0.2,1.8,0.2,2.8c0,1.1-0.1,2.1-0.2,3.3c-0.1,1.1-0.4,2.2-0.7,3.3c-0.3,1.1-0.7,2-1.1,2.8
	c-0.5,0.9-1.2,1.7-2,2.5c-0.8,0.8-1.6,1.6-2.3,2.3c-0.5,0.8-0.7,1.6-0.6,2.5c0.1,0.7,0.3,1.3,0.8,1.7c0.4,0.4,1.1,0.6,2,0.5
	c1.4-0.2,2.6-0.7,3.4-1.5c0.8-0.8,1.2-1.9,1-3.1c-0.1-0.6-0.2-1.2-0.3-1.9c-0.1-0.7-0.2-1.3-0.3-2c0-0.2,0-0.5,0.2-0.9
	c0.2-0.4,0.4-0.7,0.7-1.1c0.3-0.4,0.6-0.7,0.9-0.9c0.3-0.3,0.6-0.4,0.8-0.4h0.3c0.1,0,0.4,0,0.8,0c0.4,0,0.7,0,0.8,0
	c1,0.8,1.6,1.8,2,2.9c0.4,1.1,0.6,2.3,0.8,3.4c0.1,0.6,0.1,1.1,0,1.7c-0.1,0.5-0.2,1.1-0.4,1.7c-0.6,2.6-1.8,4.6-3.6,6
	c-1.8,1.4-4.3,2.3-7.7,2.5c-1.3,0.1-2.5,0-3.5-0.4s-1.9-0.9-2.7-1.5c-0.7-0.7-1.3-1.4-1.8-2.3C0.5,45.9,0.2,45,0.1,44
	C0,43.3,0,42.6,0,41.9c0-0.7,0.2-1.4,0.4-2.1c0.2-0.7,0.6-1.3,1-1.9c0.5-0.6,1.1-1.1,1.8-1.6c0.5-0.3,1-0.7,1.6-1s1.1-0.8,1.4-1.3
	c0.4-0.7,0.8-1.5,1-2.4c0.2-0.9,0.3-1.9,0.4-2.8c0-1,0.1-1.9,0-2.9s-0.1-1.8-0.1-2.5c-0.1-0.7-0.1-1.2-0.1-1.6
	c0-0.4,0.1-0.8,0.2-1.1c0.2-0.3,0.5-0.5,1-0.7c0.5-0.2,1.1-0.3,2-0.4c0.6,0,1,0,1.4,0.3c0.3,0.2,0.6,0.5,0.8,0.8
	c0.2,0.4,0.3,0.7,0.4,1.1C13.3,22.2,13.3,22.6,13.4,22.9z M13.6,13.3c0,0.5,0,1,0,1.4c0,0.5-0.2,0.9-0.4,1.3c-0.2,0.4-0.6,0.7-1,1
	c-0.4,0.3-1,0.4-1.7,0.5c-0.5,0-0.9,0-1.4-0.2c-0.4-0.2-0.9-0.4-1.2-0.7c-0.4-0.3-0.7-0.6-1-1c-0.3-0.4-0.4-0.7-0.4-1.1
	c0-0.4,0-0.8,0.2-1.3c0.1-0.4,0.4-0.8,0.7-1.1c0.3-0.4,0.7-0.6,1.1-0.9C8.8,11.2,9.3,11,9.8,11c0.9-0.1,1.7,0.1,2.5,0.5
	C13,11.9,13.4,12.5,13.6,13.3z"/>
<path class="st0" d="M39.8,47.5c-0.4,0.1-0.8,0.3-1.2,0.5s-0.7,0.5-1,0.8c-0.3,0.3-0.7,0.5-1.1,0.8c-0.4,0.2-0.8,0.4-1.3,0.4
	c-0.7,0.1-1.4,0-2-0.3c-0.7-0.2-1.3-0.5-1.8-0.9c-1.1-0.5-2-1.3-2.7-2.1c-0.7-0.9-1.3-1.8-1.8-2.9c-0.5-1.1-0.8-2.1-1.1-3.3
	c-0.2-1.1-0.4-2.3-0.5-3.4c0-0.1,0-0.1,0-0.2c0-0.1,0-0.1,0-0.2c0-2-0.1-4-0.2-6c-0.1-2-0.1-4,0.2-6c0.2-1.9,0.7-3.8,1.5-5.5
	c0.8-1.8,2.1-3.3,3.9-4.7c0.7-0.5,1.4-1,2.4-1.5c1-0.5,1.8-0.8,2.7-0.9c0.8,0,1.5,0.1,2.2,0.3c0.6,0.2,1.2,0.6,1.7,1
	c0.5,0.4,1,0.9,1.4,1.5c0.4,0.6,0.8,1.1,1.2,1.7c0.4,0.6,0.8,1.2,1.3,1.8c0.5,0.6,0.8,1.2,0.9,1.9c0,0.2,0,0.6,0.1,1.1
	c0,0.5,0.1,1,0.1,1.6c0,0.6,0.1,1.1,0.1,1.5c0,0.5,0.1,0.8,0.1,1c0,0.4,0.1,0.8,0.1,1.3c0,0.6,0.1,1.1,0.1,1.7c0,0.5,0.1,1,0.1,1.5
	c0,0.4,0,0.7,0,0.7c0,0.5,0,1,0,1.7c0,0.6,0,1.3,0,2c0,0.7-0.1,1.4-0.1,2.1c-0.1,0.7-0.2,1.3-0.3,1.8c0,0.1,0,0.2-0.1,0.4
	c0,0.2-0.1,0.5-0.2,0.7c0,0.3-0.1,0.5-0.2,0.7c0,0.2-0.1,0.4-0.1,0.4c0,0,0,0.1,0,0.1c0,0,0,0.1,0,0.1c0,0.4,0.3,0.9,0.7,1.3
	c0.4,0.4,0.9,0.8,1.4,1.3c0.5,0.4,1,0.9,1.4,1.3c0.4,0.4,0.7,0.9,0.7,1.4c0,0.2-0.1,0.6-0.4,1.1c-0.3,0.6-0.6,1.2-1,1.8
	c-0.4,0.6-0.8,1.2-1.2,1.7c-0.4,0.5-0.7,0.8-0.9,0.8c-0.1,0-0.1,0-0.2,0c0,0-0.1,0-0.1,0l-4.5-3.7c0-0.1-0.1-0.1-0.2-0.2
	C39.9,47.5,39.8,47.5,39.8,47.5z M31.6,33.1c0.1,0.7,0.1,1.5,0.2,2.5c0.1,0.9,0.3,1.8,0.5,2.7c0.3,0.9,0.6,1.7,1.1,2.4
	c0.5,0.7,1.1,1.2,2,1.6c0.2-0.1,0.3-0.3,0.4-0.6c0.1-0.3,0.2-0.5,0.2-0.5v-0.1c0-0.1,0-0.1,0-0.2c-0.4-0.6-1-1.2-1.6-1.9
	c-0.6-0.7-1-1.5-1.1-2.3c0-0.3,0.1-0.6,0.2-0.9c0.1-0.3,0.3-0.5,0.5-0.8c0.2-0.2,0.5-0.4,0.8-0.6c0.3-0.2,0.6-0.3,0.9-0.3
	c0.3,0,0.6,0,0.8,0.2c0.3,0.2,0.5,0.3,0.7,0.5c0.2,0.2,0.4,0.4,0.6,0.5c0.2,0.2,0.4,0.2,0.5,0.2c0.3-0.1,0.5-0.4,0.6-1
	c0.1-0.6,0.2-1.2,0.2-1.9c0-0.7,0-1.4,0-2c0-0.6-0.1-1.1-0.1-1.4c0-0.2,0-0.5-0.1-1.1c0-0.5-0.1-1.2-0.2-1.9
	c-0.1-0.7-0.2-1.4-0.3-2.2c-0.1-0.8-0.3-1.5-0.5-2.1c-0.2-0.6-0.4-1.1-0.7-1.6c-0.3-0.4-0.6-0.6-1-0.6c-0.7,0-1.2,0.3-1.7,0.9
	c-0.5,0.6-0.9,1.2-1.3,2.1s-0.7,1.7-0.9,2.8c-0.2,1-0.4,2-0.5,3c-0.1,1-0.2,1.8-0.3,2.6C31.5,32,31.5,32.7,31.6,33.1z"/>
<path class="st0" d="M68.7,50.1c-0.3-0.1-0.5-0.3-0.7-0.6c-0.2-0.3-0.3-0.6-0.4-1c-0.1-0.4-0.2-0.7-0.2-0.9c0-0.3-0.1-0.4-0.3-0.4
	c-0.2,0-0.5,0.2-0.8,0.5c-0.3,0.3-0.7,0.6-1.1,0.9c-0.4,0.4-0.9,0.7-1.4,1s-1.1,0.5-1.6,0.5c-0.7,0.1-1.4,0-2-0.1
	c-0.7-0.1-1.3-0.4-1.8-0.7c-1.2-0.7-2.2-1.6-2.9-2.7c-0.7-1.1-1.3-2.2-1.6-3.5c-0.4-1.2-0.7-2.5-0.8-3.9c-0.2-1.4-0.3-2.7-0.4-3.9
	c-0.2-2.4-0.3-4.8-0.1-7.1c0.2-2.4,0.3-4.8,0.5-7.2v-0.4c0-0.3,0-0.5,0-0.8c0-0.3,0-0.6,0-0.8v-0.5c0-0.5,0-1,0-1.4s0.1-0.8,0.2-1.1
	c0.1-0.3,0.4-0.5,0.7-0.7s0.8-0.4,1.5-0.5c0.2,0,0.4,0,0.7,0c0.3,0,0.7,0.1,1,0.2c0.4,0.1,0.7,0.2,1,0.4c0.3,0.1,0.5,0.3,0.7,0.4
	c0,0.1,0,0.2,0,0.4c0,0.2,0,0.3,0,0.4c0.1,0.7,0.1,1.5,0,2.4c0,0.8-0.1,1.7-0.2,2.5c-0.1,0.8-0.2,1.7-0.3,2.5
	c-0.1,0.8-0.1,1.6-0.2,2.4c-0.1,1.5-0.1,3.1,0,4.5c0.1,1.5,0.3,3,0.5,4.5c0.1,1.1,0.3,2.1,0.4,3.1c0.2,1,0.7,1.9,1.6,2.6
	c0.1,0.1,0.3,0.2,0.6,0.5c0.3,0.2,0.5,0.4,0.6,0.5c0,0,0.1,0,0.2,0s0.1,0,0.2,0h0.1h0c0.1,0,0.2-0.1,0.4-0.2
	c0.2-0.1,0.4-0.2,0.4-0.4c0.7-1.4,1.2-2.8,1.5-4.2c0.3-1.4,0.5-2.7,0.6-4.1c0.1-1.4,0.1-2.7,0.1-4.1c0-1.4,0-2.8,0-4.4v-0.3
	c0-0.2,0-0.4,0-0.6c0-0.2,0-0.4,0-0.6c0-0.2,0-0.4,0-0.5c0,0,0-0.2,0-0.4c0-0.2,0.1-0.5,0.1-0.8c0-0.3,0.1-0.5,0.1-0.8
	c0-0.2,0-0.4,0-0.4c0-0.9,0-1.7-0.1-2.4c-0.1-0.7-0.1-1.3,0-1.8c0.1-0.5,0.4-0.9,0.8-1.1c0.4-0.3,1.2-0.5,2.4-0.6
	c0.2,0,0.5-0.1,0.8-0.1c0.4,0,0.7,0,1,0c0.3,0,0.6,0.1,0.9,0.2c0.3,0.1,0.5,0.3,0.6,0.7c0,0.2,0,0.5,0.1,0.9
	c0.1,0.4,0.1,0.7,0.2,0.8c0.2,1.6,0.2,3.2,0.1,4.8c-0.1,1.6-0.2,3.2-0.3,4.8c0,0.5,0,1,0,1.6c0.1,0.6,0,1.1,0,1.7
	c0.2,1.6,0.4,3.2,0.5,4.7c0.1,1.6,0.1,3.1,0.2,4.7c0,1.6,0.1,3.2,0.1,4.7c0,1.6,0.1,3.2,0.2,4.7c-0.1,0.3-0.2,0.6-0.3,0.8
	c-0.1,0.3-0.3,0.4-0.6,0.5c-0.7,0.1-1.4,0.1-1.9,0C70.1,49.9,69.5,49.9,68.7,50.1z"/>
<path class="st0" d="M81,49.6c-0.1-0.1-0.3-0.2-0.4-0.3c-0.1-0.1-0.2-0.3-0.2-0.4c-0.2-1.6-0.2-3.3,0-5c0.2-1.7,0.3-3.3,0.3-5
	c0-2.1-0.1-4.1-0.2-6.2s-0.3-4.1-0.4-6.2c-0.1-2.1-0.3-4.1-0.3-6.2c-0.1-2.1-0.1-4.1,0-6.1c0-0.2,0.1-0.4,0.2-0.7
	c0.1-0.2,0.3-0.4,0.5-0.4c0.4,0,0.7,0,1.2,0s0.8,0.1,1.1,0c0.1,0,0.4,0,0.8,0c0.4,0,0.8,0,1.2,0c0.4,0,0.8,0,1.2,0
	c0.4,0,0.6,0,0.8,0c0,0,0.2,0,0.4,0c0.2,0,0.5-0.1,0.8-0.1c0.3,0,0.5-0.1,0.7-0.1c0.2,0,0.4,0,0.4,0c0.2,0,0.5,0,1,0
	c0.5,0,0.9,0,1.4,0c0.5,0,0.9,0.1,1.3,0.2c0.4,0.1,0.6,0.3,0.6,0.6l0.4,4.3c0,0.3-0.1,0.5-0.4,0.7c-0.3,0.2-0.5,0.3-0.8,0.3
	c-0.7,0.1-1.4,0-2.1-0.1s-1.4-0.1-2.1-0.1c-0.2,0-0.4,0-0.7,0c-0.3,0-0.6,0-0.8,0.1c-0.3,0.1-0.5,0.2-0.7,0.3
	c-0.2,0.1-0.3,0.4-0.3,0.6c0.1,1.4,0.1,2.8,0,4.3c-0.1,1.5-0.1,2.9,0,4.3c0,0.2,0,0.4,0,0.7c0,0.3,0.1,0.5,0.3,0.7
	c0.1,0.1,0.4,0.2,0.7,0.2c0.3,0,0.6,0.1,0.9,0.1c0.3,0,0.6,0,0.9,0c0.3,0,0.5,0,0.6,0s0.4,0,0.8,0c0.4,0,0.8-0.1,1.2-0.1
	c0.4,0,0.8-0.1,1.2-0.1c0.4,0,0.6,0,0.8,0c0.1,0,0.2,0.1,0.3,0.2c0.1,0.1,0.1,0.2,0.1,0.3l0.4,3.3c0,0.3,0,0.6-0.2,0.9
	c-0.2,0.3-0.4,0.5-0.7,0.5c-0.7,0.1-1.5,0.1-2.3,0c-0.7-0.1-1.5-0.1-2.3-0.1c-0.5,0.1-0.8,0.2-1,0.4c-0.2,0.2-0.4,0.4-0.4,0.7
	s-0.1,0.6-0.1,0.9v1.1c0,0.1,0,0.4,0,0.7c0,0.4-0.1,0.8-0.1,1.3c0,0.4-0.1,0.9-0.1,1.2c0,0.4-0.1,0.6-0.1,0.7c0.1,0,0.1,0.1,0,0.3
	c0,0.2,0,0.3,0,0.4c0,0.2,0,0.5,0.1,0.7c0.1,0.3,0.3,0.4,0.6,0.4h1.2h1.8h1.8h1.2c0.6,0,1.1,0,1.5,0.2c0.4,0.1,0.7,0.5,0.9,1.1
	c0,0.1,0,0.2,0.1,0.5c0,0.3,0.1,0.5,0.2,0.9c0,0.3,0.1,0.7,0.2,1c0,0.3,0.1,0.6,0.1,0.7v0.3c0.1,0.5,0,0.7-0.4,0.8
	c-0.3,0.1-0.7,0.1-1,0.2c-1.4,0.2-2.9,0.2-4.3,0.1c-1.4-0.1-2.9-0.1-4.3-0.2c-0.1,0-0.4,0-0.8,0c-0.4,0-0.7,0.1-0.7,0.1
	c-0.1,0-0.4,0-0.7,0c-0.4,0-0.7,0-1.1,0.1c-0.4,0-0.8,0.1-1.1,0.1C81.3,49.5,81.1,49.6,81,49.6z M80.7,10.3c0-0.1,0.1-0.3,0.4-0.6
	c0.3-0.3,0.6-0.6,1-1c0.4-0.4,0.7-0.7,1.1-1c0.4-0.3,0.6-0.6,0.8-0.7c0.1,0,0.2-0.2,0.4-0.4c0.2-0.2,0.4-0.4,0.4-0.4
	c0.1-0.1,0.3-0.3,0.5-0.5C85.5,5.4,85.7,5.2,86,5c0.2-0.2,0.5-0.5,0.7-0.7C86.9,4,87,3.9,87.1,3.8c0.1-0.2,0.4-0.5,0.8-0.8
	c0.4-0.3,0.8-0.5,1.1-0.5c0.1,0,0.3,0.1,0.5,0.2s0.4,0.3,0.7,0.5c0.2,0.2,0.4,0.4,0.6,0.5C90.9,3.9,91,4,91,4.1v0.5v0.5
	c0,0.2-0.1,0.3-0.3,0.5c-0.1,0.1-0.3,0.3-0.6,0.5c-0.3,0.2-0.5,0.4-0.6,0.4c-1.1,0.8-2.3,1.6-3.4,2.4s-2.3,1.7-3.5,2.4
	c-0.1,0-0.2,0.1-0.3,0.1s-0.2,0-0.3,0c-0.4,0-0.7-0.1-1-0.4C80.8,10.8,80.7,10.5,80.7,10.3z"/>
<path class="st0" d="M126.3,50c-0.1,0-0.1-0.2-0.2-0.4c0-0.3,0-0.4,0-0.5c-0.2-1.2-0.2-2.5-0.1-3.7c0.1-1.2,0.2-2.4,0.2-3.6
	c-0.1-1.5-0.2-3.1-0.5-4.6c-0.3-1.5-0.5-3.1-0.6-4.6c0-1.2,0-2.4,0-3.5c0-1.1,0-2.3,0-3.5c0-1.1,0-2.2-0.1-3.3
	c-0.1-1.1-0.2-2.2-0.3-3.3v-0.3v-0.5v-0.5v-0.4c0-0.2-0.1-0.5-0.1-0.9c0-0.4-0.1-0.8-0.1-1.3c0-0.5-0.1-0.9-0.1-1.3
	c0-0.4,0-0.7,0-0.9c0.1-0.3,0.1-0.5,0.2-0.6c0.1-0.1,0.2-0.3,0.4-0.4c0.1,0,0.3-0.1,0.6-0.1c0.3,0,0.5-0.1,0.7-0.1
	c1.9-0.2,3.6-0.2,5.1,0.3c1.5,0.4,2.8,1.1,3.9,2c1.1,0.9,2,2.1,2.7,3.4c0.7,1.4,1.2,2.8,1.5,4.4c0.2,1.3,0.3,2.6,0.3,3.8
	c0,1.2,0,2.5-0.2,3.9c0.1,0.7,0.2,1.4,0,2c-0.1,0.7-0.1,1.3,0,2c0,1.1,0.1,2.4,0.2,3.8c0.1,1.4,0.1,2.9-0.1,4.4
	c-0.2,1.4-0.5,2.8-1.1,4.1c-0.6,1.3-1.5,2.2-2.8,2.9c-1.2,0.6-2.5,1-3.9,1.2c-1.4,0.2-2.8,0.4-4.1,0.6c-0.1,0-0.2,0-0.5,0
	c-0.3,0-0.4,0-0.5,0c-0.1-0.1-0.2-0.1-0.3-0.2C126.4,50.3,126.3,50.1,126.3,50z M131.1,43.2c0.2,0.3,0.4,0.4,0.7,0.4
	c0.4,0,0.7-0.2,0.9-0.6c0.2-0.4,0.4-0.8,0.5-1.3c0.1-0.5,0.2-0.9,0.3-1.4c0-0.5,0.1-0.9,0.1-1.1c0-0.2,0.1-0.6,0.1-1
	c0-0.4,0.1-0.8,0.1-1.2c0-0.4,0.1-0.7,0.1-1c0-0.3,0-0.4,0-0.5l0-0.4c0-1.9,0-3.8,0-5.8c0-2-0.1-4-0.4-5.9c-0.2-1-0.4-1.8-0.6-2.4
	c-0.2-0.6-0.7-1.2-1.5-2c-0.1-0.2-0.2-0.3-0.3-0.4c-0.1-0.1-0.3-0.1-0.5-0.1c-0.2,0-0.2,0.2-0.2,0.4c0,0.3,0.1,0.4,0.1,0.4
	c0.1,2.1,0.2,4.2,0.2,6.3c0,2.1,0.1,4.2,0.2,6.3c0,1.7,0,3.5-0.2,5.2c-0.1,1.8-0.1,3.5,0.2,5.2c0,0.1,0,0.2,0.1,0.5
	C131.1,43,131.1,43.2,131.1,43.2z"/>
<path class="st0" d="M146,47.3c0-0.1,0-0.1,0-0.2c0-0.1,0-0.1,0-0.2c0-0.4,0.1-1,0.2-1.6c0.1-0.6,0.2-1.1,0.4-1.6
	c0.1-0.2,0.3-0.4,0.5-0.5c0.2-0.1,0.5-0.2,0.7-0.3c0.3-0.1,0.5-0.2,0.7-0.3c0.2-0.1,0.4-0.2,0.6-0.4c0,0,0,0,0.1-0.2
	c0-0.1,0-0.2,0-0.3s0-0.2,0-0.4c0-0.2,0-0.4,0-0.7c0-0.3,0-0.5,0-0.7v-0.5c-0.1-2.8-0.1-5.5-0.1-8.3c0-2.7,0-5.5-0.2-8.2
	c0-0.1,0-0.2,0-0.4c0-0.2-0.1-0.4-0.1-0.7c0-0.2,0-0.5,0-0.7c0-0.2,0-0.4,0-0.5c-0.1-0.3-0.2-0.5-0.5-0.6c-0.3-0.1-0.5-0.1-0.8-0.2
	c-0.3-0.1-0.6-0.2-0.8-0.3c-0.2-0.2-0.4-0.4-0.4-0.8c0,0,0-0.1,0-0.1c0,0,0-0.1,0-0.1v-1.1c0-0.5,0-1,0-1.6c0-0.6,0-1.1,0-1.6v-1
	c0.1-0.3,0.2-0.6,0.3-1c0.1-0.4,0.3-0.7,0.6-0.7l0.1,0h0.1c0.5,0.1,1.2,0.1,2.1,0.1c0.9,0,1.9,0,2.8,0c1,0,1.8,0.2,2.7,0.4
	c0.8,0.2,1.4,0.5,1.8,1c0.2,0.2,0.3,0.5,0.3,1c0,0.4,0,0.8,0,1c0.1,1.5,0,2.5-0.1,3.1c-0.2,0.6-0.4,1-0.7,1.2
	c-0.3,0.2-0.5,0.4-0.8,0.4c-0.3,0.1-0.4,0.4-0.5,0.8c-0.2,1.4-0.4,2.9-0.4,4.3c0,1.4,0,2.9,0,4.3c0,1.4,0.1,2.9,0.2,4.3
	c0.1,1.4,0.2,2.8,0.3,4.3v0.5v1c0,0.4,0,0.7,0,1c0,0.3,0,0.5,0,0.5v0.4c0,0.4,0.2,0.7,0.5,0.8c0.3,0.1,0.6,0.3,0.9,0.4
	c0.4,0.1,0.7,0.3,1,0.5c0.3,0.2,0.5,0.5,0.5,1.1c0,0.2,0,0.6,0,1.1c0,0.5,0,0.9-0.1,1.4c-0.1,0.5-0.2,0.9-0.4,1.3
	c-0.2,0.4-0.5,0.6-0.9,0.6c-0.7,0.1-1.5,0.2-2.3,0.1c-0.9-0.1-1.7-0.1-2.3,0c-0.1,0-0.4,0-0.7,0.1c-0.4,0-0.8,0.1-1.2,0.2
	c-0.4,0-0.8,0.1-1.2,0.1c-0.4,0-0.6,0-0.7,0c-0.5,0-0.9-0.1-1.3-0.3C146.3,48.3,146,47.9,146,47.3z"/>
<path class="st0" d="M162.2,46.5c0-0.2,0.1-0.5,0.4-0.9c0.3-0.4,0.7-0.7,1.1-1.1c0.4-0.4,0.9-0.7,1.3-1c0.5-0.3,0.8-0.6,1.1-0.7
	c0.1,0,0.2,0,0.3,0c0.1,0,0.2,0,0.3,0c0.4,0,0.7,0,1,0.3c0.3,0.2,0.6,0.4,0.9,0.7s0.7,0.5,1.2,0.7c0.5,0.2,1.2,0.3,2.1,0.2
	c0.3,0,0.6-0.1,0.9-0.3c0.3-0.1,0.6-0.3,0.8-0.5c0.2-0.2,0.4-0.4,0.5-0.6c0.1-0.2,0.1-0.4,0-0.5c0-0.1,0.1-0.3,0.2-0.5
	c0.1-0.3,0.1-0.5,0.2-0.8c0.1-0.3,0.1-0.6,0.2-0.8c0-0.2,0.1-0.4,0.1-0.5c0.1-0.6,0.3-1.3,0.4-2.1c0.1-0.8,0.1-1.5-0.2-2.1
	l-1.2-17.2l-0.3-1.8l-1.8,0.2l-0.3-0.2c-0.1-0.2-0.1-0.4-0.2-0.6c-0.1-0.2-0.1-0.3-0.2-0.5c0-0.2-0.1-0.3-0.1-0.4
	c0-0.1-0.1-0.3-0.2-0.6c-0.1-0.3-0.1-0.5-0.2-0.6c0.1,0,0.3,0,0.5,0c0.2,0,0.4,0,0.5,0c0.4,0,1.1,0,2.2,0c1.1,0,2.2,0,3.4-0.1
	c1.2,0,2.3-0.1,3.4-0.1c1.1,0,1.8,0,2.2,0c0,0,0,0.1,0,0.2c0,0.1,0.1,0.2,0.1,0.2v0.6c0,0.3,0,0.6,0,0.8c0,0.3,0,0.5-0.1,0.7
	s-0.1,0.3-0.2,0.3l-2.1,0.1c0,0.1,0,0.2,0.1,0.4c0.1,0.2,0.1,0.3,0.1,0.4c0,0.2,0,0.5,0,0.9c0,0.4,0,0.9,0,1.4v1.4v0.9
	c0,0.4,0,0.9-0.1,1.4c-0.1,0.5-0.1,0.9-0.2,1.4c0,0.5-0.1,1,0,1.4c0,0.5,0.1,0.9,0.3,1.4l0.5,12.5c-0.2,0.5-0.2,1.1-0.1,1.7
	c0.1,0.6,0.2,1.1,0.1,1.7c-0.2,1.6-1.1,3-2.6,4.2c-1.5,1.2-3.7,1.9-6.6,2.1c-1.7,0.1-3.3-0.2-4.7-0.8c-1.4-0.6-2.7-1.2-3.9-1.8
	c-0.4-0.2-0.6-0.3-0.7-0.4C162.3,46.9,162.2,46.7,162.2,46.5z"/>
<path class="st0" d="M188.2,40.9c0-0.1-0.1-0.3-0.1-0.6c0-0.2,0-0.5,0-0.7c0-0.2,0-0.4,0-0.6c0-0.2,0-0.3,0-0.4
	c0-0.7-0.1-1.5-0.1-2.5c0-1.1-0.1-2.1-0.1-3.1c0-1-0.1-1.9-0.1-2.7c0-0.8,0-1.2,0-1.3c0-1,0-2.1,0.1-3.4c0-1.2,0.2-2.5,0.3-3.7
	c0.2-1.3,0.4-2.5,0.8-3.6c0.4-1.2,0.9-2.2,1.6-3.2c0.7-0.9,1.5-1.7,2.5-2.3c1-0.6,2.2-0.9,3.7-1h1c1,0.1,1.9,0.4,2.8,0.7
	c0.9,0.3,1.7,0.7,2.4,1.2c0.7,0.5,1.3,1.1,1.9,1.8c0.5,0.7,0.9,1.5,1.2,2.5c0,0.1,0.1,0.5,0.1,1c0,0.5,0.1,0.9,0.1,1.1
	c0,0.3,0,0.7,0,1.2c0,0.5,0,0.8,0,0.9c0,0.4,0,1.1,0,2.2c0,1.1,0,2.4,0.1,3.8c0,1.4,0.1,2.7,0.1,3.9c0,1.3,0,2.2,0,2.8
	c0,0.9,0,1.8,0,3c0,1.1,0,2.3-0.1,3.5c-0.1,1.2-0.2,2.4-0.5,3.5c-0.2,1.2-0.6,2.2-1.1,3.1c-0.5,0.9-1.2,1.7-2,2.3
	c-0.8,0.6-1.9,0.9-3.1,1c-1.1,0.1-2.1,0-3.1-0.2s-2-0.5-3-0.8c-1-0.3-1.9-0.8-2.5-1.4c-0.7-0.7-1.2-1.4-1.6-2.3
	c-0.4-0.9-0.7-1.8-0.9-2.7C188.3,42.7,188.2,41.8,188.2,40.9z M195,40.5c0.1,0.7,0.3,1.4,0.6,1.9c0.4,0.6,1,0.8,1.8,0.7
	c0.6,0,1-0.2,1.2-0.5s0.5-0.7,0.6-1.1c0.1-0.4,0.2-0.9,0.2-1.4c0-0.5,0-0.9,0.1-1.3v-0.4c0-0.2,0-0.5,0-0.7c0-0.3,0-0.5,0-0.7v-0.4
	c0.1-1.8,0.2-3.3,0.2-4.8c0-1.5,0-3.1-0.2-4.8c0-0.2,0-0.5,0-1c0-0.5-0.1-1-0.1-1.5c0-0.5-0.1-1-0.1-1.5c0-0.5,0-0.8,0-1
	c-0.1-0.2-0.2-0.5-0.4-0.8s-0.4-0.7-0.6-1c-0.2-0.3-0.5-0.6-0.8-0.8c-0.3-0.2-0.6-0.4-0.8-0.4c-0.3,0-0.7,0.2-0.9,0.5
	c-0.3,0.3-0.5,0.7-0.6,1.1c-0.2,0.4-0.3,0.8-0.4,1.3c-0.1,0.4-0.1,0.8-0.2,1.1c0,0.1-0.1,0.2-0.1,0.5c0,0.3-0.1,0.6-0.1,0.9
	c0,0.4-0.1,0.7-0.2,1c0,0.3-0.1,0.5-0.1,0.6v0.7v1.4c0,0.5,0,1,0,1.5c0,0.5,0,0.9,0,1.1V31c0,0.1,0,0.1,0,0.2c0,0,0,0.1,0,0.2v0.2
	c0,0.4,0.1,0.9,0.2,1.8c0.1,0.9,0.2,1.8,0.3,2.7c0.1,0.9,0.2,1.8,0.3,2.7C194.9,39.6,195,40.2,195,40.5z"/>
<path class="st0" d="M233,41.4c0.2-0.7,0.7-1.1,1.3-1.3c0.6-0.2,1.4-0.2,2.3-0.2c0.9,0.1,1.8,0.2,2.9,0.5c1.1,0.2,2.2,0.5,3.4,0.7
	c0.5,0,0.9-0.2,1.3-0.4c0.4-0.2,0.7-0.5,1-0.8c0.3-0.3,0.6-0.7,0.9-1.1c0.3-0.4,0.6-0.8,0.9-1.2c0,0,0.1-0.1,0.1-0.2
	c0-0.1,0-0.2,0-0.2l-0.2-3c-0.1,0-0.3-0.2-0.7-0.5c-0.4-0.3-0.6-0.5-0.8-0.7c-0.1-0.1-0.2-0.2-0.4-0.3s-0.3-0.2-0.4-0.2
	c-1.2-0.5-2.3-0.9-3.4-1.2c-1.1-0.3-2-0.7-2.9-1.1c-0.9-0.4-1.7-1-2.5-1.8c-0.7-0.7-1.4-1.8-1.9-3.2c0-0.1,0-0.3,0-0.5
	c0-0.2,0-0.4-0.1-0.6c0-0.2-0.1-0.4-0.1-0.6c0-0.2,0-0.3,0-0.4c0-0.5-0.1-1-0.1-1.5c0-0.6,0-1.1,0.2-1.5c0-0.1,0.1-0.4,0.2-0.7
	c0.1-0.4,0.2-0.7,0.3-1.1c0.1-0.4,0.3-0.7,0.4-1.1c0.1-0.4,0.2-0.6,0.2-0.7v-0.3c0.2-0.3,0.4-0.5,0.6-0.7c0.2-0.2,0.3-0.4,0.5-0.5
	c0.2-0.2,0.3-0.3,0.4-0.4c1.1-1.3,2.2-2.2,3.4-2.9c1.1-0.7,2.5-1.1,4.1-1.2c0.4,0,1.1,0,2,0.2c0.9,0.1,1.7,0.4,2.6,0.6
	s1.6,0.6,2.3,1.1c0.7,0.4,1,0.9,1,1.4c0,0.3,0,0.7,0,1.2c-0.1,0.5-0.2,1-0.3,1.5c-0.2,0.5-0.4,1-0.6,1.4c-0.3,0.4-0.6,0.6-0.9,0.6
	c-0.9,0.1-1.8,0.1-2.7,0c-0.9-0.1-1.8-0.1-2.7,0c-0.2,0-0.5,0-1.1,0.1c-0.5,0.1-0.9,0.1-1.1,0.1c-0.1,0.1-0.3,0.1-0.5,0.2
	c-0.2,0.1-0.4,0.2-0.7,0.3c-0.2,0.1-0.4,0.3-0.6,0.4c-0.2,0.1-0.2,0.3-0.2,0.4l0.3,3.1c0,0.2,0.1,0.3,0.3,0.5
	c0.2,0.2,0.5,0.3,0.7,0.5s0.5,0.3,0.8,0.4s0.5,0.2,0.6,0.2c1.4,0.7,2.6,1.3,3.8,1.8c1.1,0.6,2.1,1.3,2.9,2.1c0.8,0.8,1.5,1.7,2,2.8
	c0.5,1.1,0.8,2.4,1,4c0.1,1.4,0,2.8-0.3,4.2c-0.3,1.4-0.9,2.6-1.6,3.7c-0.7,1.1-1.7,2-2.8,2.7c-1.1,0.7-2.4,1.1-3.9,1.3
	c-1.2,0.1-2.4,0.2-3.7,0c-1.3-0.1-2.4-0.4-3.5-0.8c-1.1-0.4-1.9-1-2.6-1.8C233.5,43.7,233,42.7,233,41.4z"/>
<path class="st0" d="M258.7,49.6c-0.1-0.1-0.3-0.2-0.4-0.3c-0.1-0.1-0.2-0.3-0.2-0.4c-0.2-1.6-0.2-3.3,0-5c0.2-1.7,0.3-3.3,0.3-5
	c0-2.1-0.1-4.1-0.2-6.2c-0.1-2.1-0.3-4.1-0.4-6.2c-0.1-2.1-0.3-4.1-0.3-6.2c-0.1-2.1-0.1-4.1,0-6.1c0-0.2,0.1-0.4,0.2-0.7
	c0.1-0.2,0.3-0.4,0.5-0.4c0.4,0,0.7,0,1.2,0c0.5,0.1,0.8,0.1,1.1,0c0.1,0,0.4,0,0.8,0c0.4,0,0.8,0,1.2,0c0.4,0,0.8,0,1.2,0
	c0.4,0,0.6,0,0.8,0c0,0,0.2,0,0.4,0c0.2,0,0.5-0.1,0.8-0.1c0.3,0,0.5-0.1,0.7-0.1c0.2,0,0.4,0,0.4,0c0.2,0,0.5,0,1,0
	c0.5,0,0.9,0,1.4,0c0.5,0,0.9,0.1,1.3,0.2c0.4,0.1,0.6,0.3,0.6,0.6l0.4,4.3c0,0.3-0.1,0.5-0.4,0.7c-0.3,0.2-0.5,0.3-0.8,0.3
	c-0.7,0.1-1.4,0-2.1-0.1c-0.7-0.1-1.4-0.1-2.1-0.1c-0.2,0-0.4,0-0.7,0c-0.3,0-0.6,0.1-0.8,0.1c-0.3,0.1-0.5,0.2-0.7,0.3
	c-0.2,0.1-0.3,0.4-0.3,0.6c0.1,1.4,0.1,2.8,0,4.3c-0.1,1.5-0.1,2.9,0,4.3c0,0.2,0,0.4,0,0.7c0,0.3,0.1,0.5,0.3,0.7
	c0.1,0.1,0.4,0.2,0.6,0.2c0.3,0,0.6,0.1,0.9,0.1c0.3,0,0.6,0,0.9,0c0.3-0.1,0.5-0.1,0.6-0.1c0.1,0,0.4,0,0.8,0s0.8-0.1,1.2-0.1
	c0.4,0,0.8-0.1,1.2-0.1c0.4,0,0.6,0,0.8,0c0.1,0,0.2,0.1,0.3,0.2c0.1,0.1,0.1,0.2,0.1,0.3l0.4,3.3c0,0.3,0,0.6-0.2,0.9
	c-0.2,0.3-0.4,0.5-0.7,0.5c-0.7,0.1-1.5,0.1-2.3,0c-0.7-0.1-1.5-0.1-2.3-0.1c-0.5,0.1-0.8,0.2-1,0.4c-0.2,0.2-0.4,0.4-0.4,0.7
	c-0.1,0.3-0.1,0.6-0.1,0.9v1.1c0,0.1,0,0.4,0,0.7c0,0.4-0.1,0.8-0.1,1.3c-0.1,0.4-0.1,0.9-0.1,1.2c0,0.4-0.1,0.6-0.1,0.7
	c0.1,0,0.1,0.1,0,0.3c0,0.2,0,0.3,0,0.4c0,0.2,0,0.5,0.1,0.7c0.1,0.3,0.3,0.4,0.6,0.4h1.2h1.8h1.8h1.2c0.5,0,1.1,0,1.5,0.2
	c0.4,0.1,0.7,0.5,0.9,1.1c0,0.1,0,0.2,0.1,0.5c0,0.3,0.1,0.5,0.2,0.9c0,0.3,0.1,0.7,0.2,1c0,0.3,0.1,0.6,0.1,0.7v0.3
	c0.1,0.5,0,0.7-0.4,0.8c-0.3,0.1-0.7,0.1-1,0.2c-1.4,0.2-2.9,0.2-4.3,0.1c-1.4-0.1-2.9-0.1-4.3-0.2c-0.1,0-0.3,0-0.8,0
	c-0.4,0-0.7,0.1-0.7,0.1c-0.1,0-0.4,0-0.7,0c-0.4,0-0.7,0-1.1,0.1c-0.4,0-0.8,0-1.1,0.1C259.1,49.5,258.8,49.6,258.7,49.6z"/>
<path class="st0" d="M294.3,50.8c-0.7-0.9-1.2-1.7-1.5-2.5c-0.4-0.7-0.8-1.5-1.3-2.3c-0.1-0.1-0.2-0.3-0.4-0.4
	c-0.2-0.2-0.3-0.4-0.5-0.6c-0.2-0.2-0.3-0.4-0.4-0.6c-0.1-0.2-0.1-0.4,0-0.5c-0.4-0.6-0.8-1.2-1.2-1.8c-0.4-0.6-0.8-1.2-1.1-1.8
	h-0.1c0,0-0.1,0-0.1,0c-0.3-0.1-0.4,0.1-0.4,0.4c0,0.4,0.1,1,0.1,1.8c0,0.9,0.1,1.8,0.1,2.8c0,1,0.1,2,0.2,2.9
	c0,0.9,0.1,1.5,0.1,1.9l0,0.2c-0.1,0.1-0.2,0.2-0.3,0.4c-0.1,0.2-0.2,0.2-0.3,0.2l-5.2,0.4c-0.3,0-0.6-0.1-0.8-0.4
	c-0.2-0.3-0.3-0.6-0.3-0.8c0,0,0-0.1,0-0.1c0,0,0-0.1,0-0.1v-0.2c0,0,0-0.1,0-0.3c0-0.2,0.1-0.3,0.1-0.5c0-0.2,0.1-0.3,0.1-0.5
	c0-0.1,0-0.2,0-0.3c0-0.1,0-0.3-0.1-0.7c0-0.4-0.1-0.7-0.1-1.1c0-0.4-0.1-0.8-0.1-1.1c0-0.4,0-0.6,0-0.7v-1.3c0-0.7,0-1.4,0-2.1
	c0-0.7,0-1.5,0-2.1c0-0.7,0-1.1,0-1.3c0-0.2,0-0.5,0-0.9c0-0.4-0.1-0.9-0.1-1.4c0-0.5-0.1-1-0.1-1.4c0-0.4,0-0.7,0-0.9
	c0-0.1,0-0.2,0-0.5v-0.5c0.1-3,0.1-5.9,0-8.8c-0.1-2.9-0.2-5.8-0.3-8.8c0-0.1,0-0.3,0-0.6c0-0.3,0-0.6-0.1-0.9
	c0-0.3-0.1-0.6-0.1-0.9c0-0.3,0-0.5,0-0.6c0.1-0.2,0.2-0.3,0.3-0.4c0.1,0,0.3,0,0.4,0c1.4-0.1,2.7-0.2,4-0.2c1.3,0,2.5,0.1,3.7,0.4
	c1.1,0.3,2.2,0.8,3.1,1.5c0.9,0.7,1.7,1.7,2.3,2.9c0.4,0.9,0.9,1.8,1.3,2.6c0.4,0.8,0.7,1.8,0.8,2.8c0.1,2.1-0.2,4-1.1,5.7
	c-0.8,1.8-2,3.4-3.6,4.8c-0.1,0.2-0.2,0.4-0.2,0.6c0.1,0.3,0.2,0.6,0.4,0.9c0.2,0.3,0.3,0.6,0.2,0.9l2.1,4.2v0.2l2.1,3.4
	c0,0,0.1,0.3,0.4,0.8c0.3,0.5,0.6,1.1,1,1.8s0.7,1.3,1,2c0.3,0.7,0.5,1.2,0.5,1.5c0,0.3-0.1,0.7-0.3,1c-0.3,0.4-0.6,0.7-1,1
	s-0.8,0.6-1.2,0.8c-0.4,0.2-0.8,0.3-1.1,0.3C294.9,51.2,294.5,51.1,294.3,50.8z M285.7,26.4c0.1,0.2,0.2,0.3,0.3,0.4
	c0.1,0.1,0.2,0.1,0.4,0.2c0.7-0.1,1.2-0.3,1.7-0.7c0.4-0.4,0.7-0.9,1-1.5c0.2-0.6,0.4-1.1,0.4-1.8c0.1-0.6,0.1-1.1,0.1-1.6
	c0-0.4-0.1-0.8-0.3-1.3c-0.1-0.5-0.3-1-0.6-1.4c-0.2-0.4-0.5-0.8-0.9-1.1c-0.4-0.3-0.8-0.4-1.3-0.4c-0.4,0-0.6,0.2-0.8,0.6
	c-0.2,0.4-0.3,0.7-0.4,1.2c-0.1,0.4-0.1,0.9-0.1,1.3v0.9c0,0,0,0.2,0,0.4c0,0.2,0,0.4,0,0.7c0,0.3,0,0.6,0,0.8c0,0.3,0,0.5,0.1,0.7
	c0,0.1,0,0.3,0,0.5c0,0.2,0,0.5,0,0.8c0,0.3,0,0.6,0,0.8C285.6,26.1,285.7,26.3,285.7,26.4z"/>
<path class="st0" d="M317.5,49.2c-0.2-0.1-0.4-0.2-0.5-0.3c-0.2-0.2-0.3-0.3-0.3-0.5l-1.2-10.9c0-0.1-0.1-0.3-0.2-0.4
	c-0.1-0.1-0.2-0.1-0.3-0.1l-6,0.6l1,9c0.1,0.5,0.2,1.1,0.5,1.5c0.2,0.5,0.4,1,0.5,1.5c0,0.2,0,0.3,0,0.4c-0.1,0-0.2,0.1-0.5,0.1
	c-0.1,0-0.2,0-0.3,0c-0.1,0-0.2,0-0.2,0h-0.6c-0.3,0-0.6,0-0.9,0c-0.3,0-0.6,0-0.8,0c-0.3,0-0.4,0-0.5,0c-0.6,0-1.1-0.1-1.5-0.2
	c-0.4-0.1-0.7-0.4-0.9-0.6c-0.2-0.3-0.4-0.6-0.4-1c-0.1-0.4-0.2-0.8-0.2-1.4c-0.2-1.9-0.3-3.8-0.4-5.6c-0.1-1.9-0.2-3.8-0.3-5.7
	c0,0,0-0.2,0-0.6c0-0.4,0-0.7-0.1-1.2c0-0.4-0.1-0.9-0.1-1.3c0-0.4-0.1-0.8-0.1-1c-0.1-1.3,0-2.5,0.2-3.6c0.2-1.1,0.4-2.3,0.6-3.6
	c-0.2-0.6-0.2-1.2,0.1-1.8c0.3-0.7,0.5-1.2,0.7-1.8c0.1-0.3,0.1-0.5,0.1-0.8c0-0.2,0.1-0.5,0.2-0.8c0,0,0-0.1,0-0.2
	c0-0.1,0.1-0.1,0.1-0.1c0.4-0.7,0.7-1.4,1-2.1c0.3-0.7,0.7-1.4,1.1-2.1c0.3-0.4,0.7-0.8,1.1-1.3c0.4-0.4,0.9-0.8,1.4-1.2
	c0.5-0.4,1.1-0.7,1.6-0.9c0.6-0.2,1.1-0.4,1.7-0.5c1.5-0.1,2.7,0.1,3.6,0.6c0.9,0.6,1.5,1.3,2,2.2c0.5,0.9,0.9,1.9,1.1,3
	c0.3,1.1,0.6,2.1,0.9,3c0,0.1,0,0.3,0.1,0.6c0,0.3,0.1,0.6,0.1,0.9c0,0.3,0.1,0.6,0.1,0.8c0,0.3,0.1,0.4,0.1,0.5
	c0.2,2.3,0.4,4.5,0.4,6.8c0,2.3,0.1,4.6,0.2,6.8c0,0.6,0,1.2-0.1,1.8c-0.1,0.6-0.1,1.2-0.1,1.8c0,0.1,0,0.3,0,0.5
	c0,0.3,0.1,0.6,0.1,1c0,0.4,0.1,0.7,0.1,1c0,0.3,0.1,0.5,0.1,0.5v1.7c0,0.1,0,0.3,0,0.5c0,0.3,0,0.6,0,1c0,0.4,0,0.7,0,1
	c0,0.3,0,0.5,0,0.6c0,0.2,0,0.5-0.1,0.9c-0.1,0.4-0.3,0.7-0.7,0.7h-0.1c0,0-0.1,0-0.3,0c-0.2,0-0.3,0-0.3,0c-0.1,0-0.3,0-0.6,0
	c-0.3,0-0.6,0-1,0s-0.6,0-0.9,0C317.8,49.2,317.6,49.2,317.5,49.2z M309.1,30.7c0,0.4,0.3,0.7,0.7,0.9s1,0.3,1.5,0.3
	c0.6,0,1.2,0.1,1.8,0c0.6,0,1,0,1.3-0.1c0.1,0,0.2,0,0.4,0c0.2,0,0.4,0,0.4,0c0.1-0.1,0.1-0.2,0.2-0.3c0-0.1,0.1-0.2,0.1-0.3
	c0-0.2,0-0.5,0-1c0-0.5-0.1-1-0.1-1.5c0-0.5,0-1.1,0-1.5c0-0.5,0-0.8,0-1c0-0.1,0-0.2,0-0.5v-0.5l-0.5-5c0-0.2-0.1-0.5-0.3-0.8
	c-0.1-0.3-0.3-0.6-0.5-0.8c-0.2-0.3-0.4-0.5-0.7-0.6c-0.3-0.2-0.6-0.2-0.9-0.2c-0.3,0-0.5,0.1-0.8,0.3c-1.1,1.2-1.8,2.4-2.1,3.6
	c-0.3,1.3-0.4,2.7-0.5,4.2c0,0.8,0,1.6,0,2.4C309,29.1,309,29.9,309.1,30.7z"/>
<path class="st0" d="M327.6,34.1c0.3-3.4,0.4-6.9,0.4-10.5c0-1.3,0-2.6-0.1-3.9c-0.1-1.3-0.1-2.6-0.1-3.9v-1.5
	c0.1-0.3,0.3-0.5,0.4-0.6s0.4-0.3,0.7-0.4c0.2,0,0.7,0,1.4,0c0.7,0,1.4,0,2.2,0c0.7,0,1.5,0,2.1,0c0.7,0,1.1,0,1.4,0h0.5
	c0.3,0,0.6,0,0.9,0c0.3,0,0.7,0,1,0h0.8c1.1,0,2.1,0,2.9,0c0.9,0,1.8,0.1,2.9,0.2c0.4,0.2,0.7,0.4,0.8,0.8c0.1,0.4,0.2,0.7,0.2,1.1
	v0.8c0,0.4,0,0.9-0.1,1.4c-0.1,0.5-0.2,0.9-0.4,1.3c-0.2,0.4-0.4,0.6-0.8,0.6c0,0-0.1,0-0.1,0c0,0-0.1,0-0.1,0c-0.1,0-0.2,0-0.4-0.1
	c-0.2,0-0.3-0.1-0.4-0.1h-10.1l-0.6,0.6v1c0,1.1,0,2.2,0,3.4c0,1.1,0.1,2.2,0.2,3.4c0,0.1,0.1,0.3,0.2,0.4c0.1,0.1,0.2,0.2,0.4,0.2
	h3.7c0.2,0,0.4,0.1,0.6,0.3c0.2,0.2,0.3,0.4,0.3,0.6c0.1,0.2,0.1,0.5,0.2,0.7c0,0.3,0,0.5,0,0.6c0,0.2,0,0.5,0,0.9
	c0,0.4-0.1,0.7-0.2,1.1c-0.1,0.4-0.3,0.7-0.5,0.9c-0.2,0.3-0.5,0.4-0.8,0.4h-2.8c-0.2,0-0.5,0.1-0.7,0.3c-0.2,0.2-0.4,0.4-0.5,0.5
	c0,0.2,0,0.5,0,1c0,0.5,0,1,0,1.5c0,0.5,0,1,0,1.5c0,0.5,0,0.8,0,1c0,0.1,0,0.4-0.1,0.7c0,0.4-0.1,0.8-0.1,1.3
	c0,0.5-0.1,0.9-0.1,1.3c0,0.4,0,0.6,0,0.7c0,0.4,0,0.9,0,1.4c0,0.6,0,1.2,0,1.8c0,0.6-0.1,1.2-0.2,1.7c-0.1,0.5-0.3,0.9-0.6,1
	c-0.1,0-0.4,0-0.7,0c-0.3,0-0.7,0.1-1.1,0.1c-0.4,0-0.7,0-1.1,0c-0.3,0-0.6,0-0.7,0h-0.1c-0.3,0-0.5-0.2-0.7-0.5
	c-0.2-0.3-0.3-0.7-0.4-1.1c-0.1-0.4-0.2-0.8-0.2-1.2c0-0.4-0.1-0.7-0.1-0.8v-1.6C327.2,41,327.3,37.6,327.6,34.1z"/>
<path class="st0" d="M349.6,7.8c0-0.1,0.1-0.3,0.4-0.6c0.3-0.3,0.6-0.7,1-1c0.4-0.4,0.7-0.7,1.1-1c0.4-0.3,0.6-0.6,0.8-0.7
	c0.1,0,0.2-0.2,0.4-0.4c0.2-0.2,0.4-0.4,0.4-0.4c0.1-0.1,0.3-0.3,0.5-0.5c0.2-0.2,0.4-0.5,0.7-0.7c0.2-0.2,0.5-0.5,0.7-0.7l0.4-0.4
	c0.1-0.2,0.4-0.5,0.8-0.8c0.4-0.3,0.8-0.5,1.1-0.5c0.1,0,0.3,0.1,0.5,0.2c0.2,0.1,0.4,0.3,0.7,0.5c0.2,0.2,0.4,0.4,0.6,0.5
	c0.2,0.2,0.3,0.3,0.3,0.4v0.5v0.5c0,0.2-0.1,0.3-0.3,0.5c-0.1,0.1-0.3,0.3-0.6,0.5c-0.3,0.2-0.5,0.4-0.6,0.4
	c-1.1,0.8-2.3,1.6-3.4,2.4c-1.1,0.8-2.3,1.7-3.5,2.5c-0.1,0-0.2,0-0.3,0.1c-0.1,0-0.2,0-0.3,0c-0.4,0-0.7-0.1-1-0.4
	C349.7,8.3,349.6,8.1,349.6,7.8z M349.8,47.3c0-0.1,0-0.1,0-0.2c0-0.1,0-0.1,0-0.2c0-0.4,0.1-1,0.2-1.6c0.1-0.6,0.2-1.1,0.4-1.6
	c0.1-0.2,0.3-0.4,0.5-0.5c0.2-0.1,0.5-0.2,0.7-0.3c0.3-0.1,0.5-0.2,0.7-0.3c0.2-0.1,0.4-0.2,0.6-0.4c0,0,0,0,0.1-0.2
	c0-0.1,0-0.2,0-0.3c0-0.1,0-0.2,0-0.4c0-0.2,0-0.4,0-0.7c0-0.3,0-0.5,0-0.7v-0.5c-0.1-2.8-0.1-5.5-0.1-8.3c0-2.7,0-5.5-0.2-8.2
	c0-0.1,0-0.2,0-0.4c0-0.2-0.1-0.4-0.1-0.7c0-0.2,0-0.5,0-0.7c0-0.2,0-0.4,0-0.5c-0.1-0.3-0.2-0.5-0.5-0.6c-0.3-0.1-0.5-0.1-0.8-0.2
	c-0.3-0.1-0.6-0.2-0.8-0.3c-0.2-0.2-0.4-0.4-0.4-0.8c0,0,0-0.1,0-0.1c0,0,0-0.1,0-0.1v-1.1c0-0.5,0-1,0-1.6c0-0.6,0-1.1,0-1.6v-1
	c0.1-0.3,0.2-0.6,0.3-1c0.1-0.4,0.3-0.7,0.6-0.7l0.1,0h0.1c0.5,0.1,1.2,0.1,2.1,0.1c0.9,0,1.9,0,2.8,0c1,0,1.8,0.2,2.7,0.4
	s1.4,0.5,1.8,1c0.2,0.2,0.3,0.5,0.3,1c0,0.4,0,0.8,0,1c0.1,1.5,0,2.5-0.1,3.1c-0.2,0.6-0.4,1-0.7,1.2c-0.3,0.2-0.5,0.4-0.8,0.4
	c-0.3,0.1-0.4,0.4-0.5,0.8c-0.2,1.4-0.4,2.9-0.4,4.3c0,1.4,0,2.9,0,4.3c0,1.4,0.1,2.9,0.2,4.3c0.1,1.4,0.2,2.8,0.3,4.3v0.5v1
	c0,0.4,0,0.7,0,1s0,0.5,0,0.5v0.4c0,0.4,0.2,0.7,0.5,0.8c0.3,0.1,0.6,0.3,0.9,0.4c0.4,0.1,0.7,0.3,1,0.5c0.3,0.2,0.5,0.5,0.5,1.1
	c0,0.2,0,0.6,0,1.1c0,0.5,0,0.9-0.1,1.4c-0.1,0.5-0.2,0.9-0.4,1.3c-0.2,0.4-0.5,0.6-0.9,0.6c-0.7,0.1-1.5,0.2-2.3,0.1
	c-0.9-0.1-1.7-0.1-2.3,0c-0.1,0-0.4,0-0.7,0.1c-0.4,0-0.8,0.1-1.2,0.2c-0.4,0-0.8,0.1-1.2,0.1c-0.4,0-0.6,0-0.7,0
	c-0.5,0-0.9-0.1-1.3-0.3C350.1,48.3,349.8,47.9,349.8,47.3z"/>
<path class="st0" d="M374.7,36.1c0.1-0.2,0-0.4-0.1-0.7c-0.2-0.3-0.4-0.4-0.6-0.4h-0.2c0,0.3,0,0.7,0,1.4c0,0.7,0,1.4,0,2.1
	c0,0.7,0,1.5,0,2.1c0,0.7,0,1.1,0,1.4v1.1c0,0.7,0.1,1.4,0.2,2c0.1,0.7,0.2,1.4,0.2,2c0,0.3,0,0.6-0.1,0.7c-0.1,0.2-0.3,0.3-0.7,0.3
	c-0.7,0.1-1.4,0.1-2.1,0c-0.7,0-1.4,0-2.1,0.1c-0.1-0.1-0.3-0.2-0.4-0.4l-0.2-0.4c0-0.1,0-0.3-0.1-0.6s-0.1-0.5-0.1-0.6
	c-0.1-1.1-0.1-2.1,0-3.2c0-1.1,0.1-2.1,0.2-3.2c0-1.8,0-3.5-0.1-5.1c0-1.7,0-3.4,0.3-5.1l-0.7-14.4c0-0.2,0-0.4,0-0.7
	c0-0.3,0.1-0.5,0.2-0.8c0.1-0.3,0.2-0.5,0.4-0.7c0.2-0.2,0.4-0.3,0.6-0.3h0.2c0.8,0.1,1.5,0.1,2,0.2c0.5,0.1,0.9,0.5,1.1,1.2
	c0.3,0.7,0.6,1.5,0.9,2.3c0.3,0.7,0.7,1.5,1,2.1c0,0,0,0.1,0,0.2V19c0.2,0.9,0.4,1.9,0.8,2.8c0.4,1,0.7,1.9,1.1,2.7
	c-0.1,0.4,0,0.7,0.2,1.2c0.2,0.4,0.4,0.9,0.7,1.3c0.3,0.4,0.5,0.9,0.7,1.3c0.2,0.4,0.3,0.7,0.2,1c0,0.1,0.1,0.3,0.3,0.7
	c0.1,0.3,0.3,0.7,0.4,1.1c0.1,0.4,0.2,0.7,0.4,1.1c0.1,0.3,0.2,0.6,0.3,0.7c0,0.1,0.1,0.3,0.1,0.4c0,0.2,0.1,0.4,0.2,0.6
	c0.1,0.2,0.1,0.4,0.2,0.6c0,0.2,0.1,0.4,0.1,0.4c0.2,0.4,0.3,0.8,0.4,1.3c0.1,0.4,0.3,0.8,0.7,1.1c0.2-0.4,0.3-0.7,0.3-1.1
	c0.5-3.8,0.7-7.5,0.7-11.2c0-3.7-0.1-7.4-0.2-11.3c0-0.1,0.1-0.2,0.3-0.4c0.1-0.2,0.2-0.3,0.3-0.3l4.1-0.3c0.3,0,0.5,0.1,0.5,0.3
	c0,0.2,0.1,0.3,0.3,0.4c-0.1,1.5-0.1,3.1,0,4.6c0.1,1.5,0.1,3,0,4.6c-0.2,2.2-0.5,4.4-0.7,6.5c-0.2,2.1-0.2,4.3,0,6.6l-0.4,11.4
	c0,0.3-0.2,0.7-0.5,1.3c-0.3,0.5-0.7,0.9-1,1c-0.1,0-0.3,0-0.5,0c-0.3,0-0.5,0-0.5,0c-0.9,0.1-1.7,0.1-2.5,0c-0.8,0-1.6-0.1-2.5-0.3
	c-0.4,0-0.8-0.4-1-1c-0.2-0.6-0.4-1.3-0.5-2c-0.1-0.7-0.2-1.4-0.3-2.1c0-0.7-0.1-1.1-0.1-1.3c0-0.1-0.1-0.4-0.2-0.9
	c-0.1-0.4-0.2-0.7-0.3-0.9c-0.1-0.2-0.2-0.5-0.3-0.9c-0.1-0.4-0.3-0.9-0.4-1.4c-0.2-0.5-0.3-1-0.4-1.4
	C374.9,36.6,374.8,36.3,374.7,36.1z"/>
<path class="st0" d="M400.6,39c-0.1-0.8-0.2-1.8-0.2-2.8c0-1.1,0.1-2.1,0.2-3.3c0.1-1.1,0.4-2.2,0.6-3.3c0.3-1.1,0.7-2,1.1-2.8
	c0.5-0.9,1.2-1.7,2-2.5c0.8-0.8,1.6-1.6,2.3-2.3c0.5-0.8,0.7-1.6,0.6-2.5c-0.1-0.7-0.3-1.3-0.8-1.7c-0.4-0.4-1.1-0.6-2-0.5
	c-1.4,0.2-2.6,0.7-3.4,1.5c-0.8,0.8-1.2,1.9-1,3.1c0.1,0.6,0.2,1.2,0.3,1.9c0.1,0.7,0.2,1.3,0.3,2c0,0.2,0,0.5-0.2,0.9
	c-0.2,0.4-0.4,0.7-0.7,1.1s-0.6,0.7-0.9,0.9c-0.3,0.3-0.6,0.4-0.8,0.4h-0.3c-0.1,0-0.4,0-0.8,0c-0.4,0-0.7,0-0.8,0
	c-1-0.8-1.6-1.8-2-2.9c-0.4-1.1-0.6-2.3-0.8-3.4c-0.1-0.6-0.1-1.1,0-1.7c0.1-0.5,0.2-1.1,0.4-1.7c0.6-2.6,1.8-4.6,3.6-6
	c1.8-1.4,4.3-2.3,7.7-2.5c1.3-0.1,2.5,0,3.5,0.4c1.1,0.4,1.9,0.9,2.7,1.5c0.7,0.7,1.3,1.4,1.8,2.3c0.5,0.9,0.7,1.8,0.8,2.8
	c0.1,0.7,0.1,1.4,0.1,2.1c0,0.7-0.2,1.4-0.4,2.1c-0.2,0.7-0.6,1.3-1,1.9c-0.5,0.6-1.1,1.1-1.8,1.6c-0.5,0.3-1,0.7-1.6,1
	c-0.6,0.4-1.1,0.8-1.4,1.3c-0.4,0.7-0.8,1.5-1,2.4c-0.2,0.9-0.3,1.9-0.4,2.8c0,1-0.1,1.9,0,2.9c0,0.9,0.1,1.8,0.1,2.5
	c0,0.7,0.1,1.2,0.1,1.6c0,0.4,0,0.8-0.2,1.1c-0.2,0.3-0.5,0.5-1,0.7c-0.5,0.2-1.1,0.3-2,0.4c-0.6,0.1-1.1,0-1.4-0.2
	c-0.4-0.2-0.6-0.5-0.8-0.8c-0.2-0.4-0.3-0.7-0.4-1.1C400.7,39.8,400.7,39.4,400.6,39z M400.5,48.7c-0.1-0.4-0.1-0.9,0-1.4
	c0.1-0.5,0.2-1,0.4-1.4c0.2-0.4,0.6-0.7,1-1c0.4-0.3,1-0.4,1.7-0.5c0.4,0,0.9,0,1.4,0.2c0.5,0.2,0.9,0.4,1.3,0.7
	c0.4,0.3,0.7,0.6,0.9,1c0.2,0.4,0.4,0.7,0.5,1.1c0,0.4,0,0.8-0.2,1.3c-0.1,0.4-0.4,0.8-0.7,1.1c-0.3,0.4-0.7,0.6-1.1,0.9
	c-0.4,0.2-0.9,0.4-1.4,0.4c-0.9,0.1-1.7-0.1-2.5-0.5C401,50,400.6,49.4,400.5,48.7z"/>
</svg>
