<svg width="509" height="97" viewBox="0 0 509 97" fill="none" xmlns="http://www.w3.org/2000/svg">
<path d="M263.775 67.0115C263.775 67.0115 258.591 76.6373 252.135 82.5134C240.02 93.5374 222.204 96.8927 222.204 96.8927C222.204 96.8927 247.848 79.9576 248.726 67.0115C249.088 61.6457 247.404 61.7965 247.404 61.7965L263.775 67.0115Z" fill="#00A5A5"/>
<path d="M508.962 38.2376C509.794 14.907 497.081 3.01577 453.842 1.87016C405.432 0.586105 81.5798 -1.84812 30.2693 2.38287C-9.03137 5.62344 -12.7369 64.9395 35.0455 68.3003C86.8659 71.944 412.223 74.5578 474.352 67.8606C504.979 64.5592 508.485 51.6456 508.962 38.2376Z" fill="#00A5A5"/>
<path d="M24.4648 34.6069H27.2686L28.0903 50.978H23.627L24.4648 34.6069ZM28.2837 29.4507C28.2837 30.2456 28.0796 30.8525 27.6714 31.2715C27.2739 31.6904 26.6777 31.8999 25.8828 31.8999C25.1094 31.8999 24.5186 31.6904 24.1104 31.2715C23.7021 30.8418 23.498 30.2349 23.498 29.4507C23.498 28.7095 23.7021 28.1133 24.1104 27.6621C24.5186 27.2109 25.1094 26.9854 25.8828 26.9854C26.6562 26.9854 27.2471 27.2056 27.6553 27.646C28.0742 28.0757 28.2837 28.6772 28.2837 29.4507Z" fill="white"/>
<path d="M52.7437 32.9956C52.7437 36.8843 51.6641 39.8599 49.5049 41.9224C47.3457 43.9741 44.2358 45 40.1753 45H33.585V21.4424H40.8682C44.6172 21.4424 47.5337 22.4521 49.6177 24.4717C51.7017 26.4912 52.7437 29.3325 52.7437 32.9956ZM48.6831 33.1245C48.6831 27.4849 46.0459 24.665 40.7715 24.665H37.436V41.7612H40.1753C45.8472 41.7612 48.6831 38.8823 48.6831 33.1245Z" fill="white"/>
<path d="M65.1992 45.3223C62.4277 45.3223 60.2578 44.5166 58.6895 42.9053C57.1318 41.2832 56.353 39.0542 56.353 36.2183C56.353 33.3071 57.0781 31.019 58.5283 29.354C59.9785 27.689 61.9712 26.8564 64.5063 26.8564C66.8589 26.8564 68.7173 27.5708 70.0815 28.9995C71.4458 30.4282 72.1279 32.394 72.1279 34.897V36.9434H60.2524C60.3062 38.6729 60.7734 40.0049 61.6543 40.9395C62.5352 41.8633 63.7759 42.3252 65.3765 42.3252C66.4292 42.3252 67.4067 42.2285 68.3091 42.0352C69.2222 41.8311 70.1997 41.498 71.2417 41.0361V44.1138C70.3179 44.5542 69.3833 44.8657 68.438 45.0483C67.4927 45.231 66.4131 45.3223 65.1992 45.3223ZM64.5063 29.7246C63.3032 29.7246 62.3364 30.106 61.606 30.8687C60.8862 31.6313 60.4565 32.7432 60.3169 34.2041H68.4058C68.3843 32.7324 68.0298 31.6206 67.3423 30.8687C66.6548 30.106 65.7095 29.7246 64.5063 29.7246Z" fill="white"/>
<path d="M74.6094 52.9277C73.4707 52.9277 72.5254 52.7935 71.7734 52.5249V49.5278C72.5039 49.7212 73.2505 49.8179 74.0132 49.8179C75.6245 49.8179 76.4302 48.9048 76.4302 47.0786V27.1787H80.2168V47.3364C80.2168 49.1733 79.7334 50.5645 78.7666 51.5098C77.8105 52.4551 76.4248 52.9277 74.6094 52.9277ZM76.2046 22.4575C76.2046 21.7808 76.3872 21.2598 76.7524 20.8945C77.1284 20.5293 77.6602 20.3467 78.3477 20.3467C79.0137 20.3467 79.5293 20.5293 79.8945 20.8945C80.2705 21.2598 80.4585 21.7808 80.4585 22.4575C80.4585 23.1021 80.2705 23.6123 79.8945 23.9883C79.5293 24.3535 79.0137 24.5361 78.3477 24.5361C77.6602 24.5361 77.1284 24.3535 76.7524 23.9883C76.3872 23.6123 76.2046 23.1021 76.2046 22.4575Z" fill="white"/>
<path d="M93.4297 45.3223C90.6582 45.3223 88.4883 44.5166 86.9199 42.9053C85.3623 41.2832 84.5835 39.0542 84.5835 36.2183C84.5835 33.3071 85.3086 31.019 86.7588 29.354C88.209 27.689 90.2017 26.8564 92.7368 26.8564C95.0894 26.8564 96.9478 27.5708 98.312 28.9995C99.6763 30.4282 100.358 32.394 100.358 34.897V36.9434H88.4829C88.5366 38.6729 89.0039 40.0049 89.8848 40.9395C90.7656 41.8633 92.0063 42.3252 93.6069 42.3252C94.6597 42.3252 95.6372 42.2285 96.5396 42.0352C97.4526 41.8311 98.4302 41.498 99.4722 41.0361V44.1138C98.5483 44.5542 97.6138 44.8657 96.6685 45.0483C95.7231 45.231 94.6436 45.3223 93.4297 45.3223ZM92.7368 29.7246C91.5337 29.7246 90.5669 30.106 89.8364 30.8687C89.1167 31.6313 88.687 32.7432 88.5474 34.2041H96.6362C96.6147 32.7324 96.2603 31.6206 95.5728 30.8687C94.8853 30.106 93.9399 29.7246 92.7368 29.7246Z" fill="white"/>
<path d="M120.339 45H116.536V34.043C116.536 32.668 116.257 31.6421 115.698 30.9653C115.15 30.2886 114.275 29.9502 113.072 29.9502C111.471 29.9502 110.3 30.4229 109.559 31.3682C108.818 32.3135 108.447 33.8979 108.447 36.1216V45H104.661V27.1787H107.625L108.157 29.5151H108.351C108.888 28.6665 109.65 28.0112 110.639 27.5493C111.627 27.0874 112.723 26.8564 113.926 26.8564C118.201 26.8564 120.339 29.0317 120.339 33.3823V45Z" fill="white"/>
<path d="M141.963 45.3223C139.191 45.3223 137.021 44.5166 135.453 42.9053C133.896 41.2832 133.117 39.0542 133.117 36.2183C133.117 33.3071 133.842 31.019 135.292 29.354C136.742 27.689 138.735 26.8564 141.27 26.8564C143.623 26.8564 145.481 27.5708 146.845 28.9995C148.209 30.4282 148.892 32.394 148.892 34.897V36.9434H137.016C137.07 38.6729 137.537 40.0049 138.418 40.9395C139.299 41.8633 140.54 42.3252 142.14 42.3252C143.193 42.3252 144.17 42.2285 145.073 42.0352C145.986 41.8311 146.963 41.498 148.005 41.0361V44.1138C147.082 44.5542 146.147 44.8657 145.202 45.0483C144.256 45.231 143.177 45.3223 141.963 45.3223ZM141.27 29.7246C140.067 29.7246 139.1 30.106 138.37 30.8687C137.65 31.6313 137.22 32.7432 137.081 34.2041H145.169C145.148 32.7324 144.793 31.6206 144.106 30.8687C143.418 30.106 142.473 29.7246 141.27 29.7246Z" fill="white"/>
<path d="M168.872 45H165.069V34.043C165.069 32.668 164.79 31.6421 164.231 30.9653C163.684 30.2886 162.808 29.9502 161.605 29.9502C160.004 29.9502 158.833 30.4229 158.092 31.3682C157.351 32.3135 156.98 33.8979 156.98 36.1216V45H153.194V27.1787H156.159L156.69 29.5151H156.884C157.421 28.6665 158.184 28.0112 159.172 27.5493C160.16 27.0874 161.256 26.8564 162.459 26.8564C166.734 26.8564 168.872 29.0317 168.872 33.3823V45Z" fill="white"/>
<path d="M191.753 45.3223C189.497 45.3223 187.746 44.5112 186.5 42.8892H186.274C186.425 44.3931 186.5 45.3062 186.5 45.6284V52.9277H182.713V27.1787H185.775C185.861 27.5117 186.038 28.3066 186.307 29.5635H186.5C187.682 27.7588 189.454 26.8564 191.817 26.8564C194.041 26.8564 195.771 27.6621 197.006 29.2734C198.252 30.8848 198.875 33.146 198.875 36.0571C198.875 38.9683 198.241 41.2402 196.974 42.873C195.717 44.5059 193.977 45.3223 191.753 45.3223ZM190.834 29.9502C189.331 29.9502 188.229 30.3906 187.531 31.2715C186.844 32.1523 186.5 33.5596 186.5 35.4932V36.0571C186.5 38.2271 186.844 39.8008 187.531 40.7783C188.219 41.7451 189.341 42.2285 190.899 42.2285C192.209 42.2285 193.219 41.6914 193.928 40.6172C194.637 39.543 194.992 38.0122 194.992 36.0249C194.992 34.0269 194.637 32.5176 193.928 31.4971C193.23 30.4658 192.199 29.9502 190.834 29.9502Z" fill="white"/>
<path d="M214.424 45L213.667 42.5186H213.538C212.679 43.6035 211.814 44.3447 210.944 44.7422C210.074 45.1289 208.957 45.3223 207.592 45.3223C205.841 45.3223 204.472 44.8496 203.483 43.9043C202.506 42.959 202.017 41.6216 202.017 39.8921C202.017 38.0552 202.699 36.6694 204.063 35.7349C205.428 34.8003 207.506 34.29 210.299 34.2041L213.377 34.1074V33.1567C213.377 32.0181 213.108 31.1694 212.571 30.6108C212.045 30.0415 211.223 29.7568 210.106 29.7568C209.193 29.7568 208.317 29.8911 207.479 30.1597C206.642 30.4282 205.836 30.7451 205.062 31.1104L203.838 28.4033C204.805 27.8984 205.863 27.5171 207.012 27.2593C208.162 26.9907 209.247 26.8564 210.267 26.8564C212.534 26.8564 214.242 27.3506 215.391 28.3389C216.551 29.3271 217.131 30.8794 217.131 32.9956V45H214.424ZM208.785 42.4219C210.16 42.4219 211.261 42.0405 212.088 41.2778C212.926 40.5044 213.345 39.4248 213.345 38.0391V36.4922L211.057 36.5889C209.273 36.6533 207.974 36.9541 207.157 37.4912C206.352 38.0176 205.949 38.8286 205.949 39.9243C205.949 40.7192 206.185 41.3369 206.658 41.7773C207.13 42.207 207.839 42.4219 208.785 42.4219Z" fill="white"/>
<path d="M234.324 45H220.805V42.6636L229.812 30.0791H221.353V27.1787H234.066V29.8213L225.252 42.0996H234.324V45Z" fill="white"/>
<path d="M257.93 45L257.173 42.5186H257.044C256.185 43.6035 255.32 44.3447 254.45 44.7422C253.58 45.1289 252.462 45.3223 251.098 45.3223C249.347 45.3223 247.978 44.8496 246.989 43.9043C246.012 42.959 245.523 41.6216 245.523 39.8921C245.523 38.0552 246.205 36.6694 247.569 35.7349C248.934 34.8003 251.012 34.29 253.805 34.2041L256.883 34.1074V33.1567C256.883 32.0181 256.614 31.1694 256.077 30.6108C255.551 30.0415 254.729 29.7568 253.612 29.7568C252.699 29.7568 251.823 29.8911 250.985 30.1597C250.147 30.4282 249.342 30.7451 248.568 31.1104L247.344 28.4033C248.311 27.8984 249.369 27.5171 250.518 27.2593C251.667 26.9907 252.752 26.8564 253.773 26.8564C256.04 26.8564 257.748 27.3506 258.897 28.3389C260.057 29.3271 260.637 30.8794 260.637 32.9956V45H257.93ZM252.291 42.4219C253.666 42.4219 254.767 42.0405 255.594 41.2778C256.432 40.5044 256.851 39.4248 256.851 38.0391V36.4922L254.562 36.5889C252.779 36.6533 251.479 36.9541 250.663 37.4912C249.857 38.0176 249.455 38.8286 249.455 39.9243C249.455 40.7192 249.691 41.3369 250.164 41.7773C250.636 42.207 251.345 42.4219 252.291 42.4219Z" fill="white"/>
<path d="M278.281 45H274.495V19.9277H278.281V45Z" fill="white"/>
<path d="M294.862 45L294.104 42.5186H293.976C293.116 43.6035 292.251 44.3447 291.381 44.7422C290.511 45.1289 289.394 45.3223 288.03 45.3223C286.279 45.3223 284.909 44.8496 283.921 43.9043C282.943 42.959 282.455 41.6216 282.455 39.8921C282.455 38.0552 283.137 36.6694 284.501 35.7349C285.865 34.8003 287.944 34.29 290.737 34.2041L293.814 34.1074V33.1567C293.814 32.0181 293.546 31.1694 293.009 30.6108C292.482 30.0415 291.661 29.7568 290.543 29.7568C289.63 29.7568 288.755 29.8911 287.917 30.1597C287.079 30.4282 286.273 30.7451 285.5 31.1104L284.275 28.4033C285.242 27.8984 286.3 27.5171 287.45 27.2593C288.599 26.9907 289.684 26.8564 290.705 26.8564C292.971 26.8564 294.679 27.3506 295.829 28.3389C296.989 29.3271 297.569 30.8794 297.569 32.9956V45H294.862ZM289.222 42.4219C290.597 42.4219 291.698 42.0405 292.525 41.2778C293.363 40.5044 293.782 39.4248 293.782 38.0391V36.4922L291.494 36.5889C289.711 36.6533 288.411 36.9541 287.595 37.4912C286.789 38.0176 286.386 38.8286 286.386 39.9243C286.386 40.7192 286.623 41.3369 287.095 41.7773C287.568 42.207 288.277 42.4219 289.222 42.4219Z" fill="white"/>
<path d="M314.826 39.9243C314.826 41.6646 314.192 43.002 312.925 43.9365C311.657 44.8604 309.842 45.3223 307.479 45.3223C305.104 45.3223 303.198 44.9624 301.758 44.2427V40.9717C303.853 41.9385 305.803 42.4219 307.607 42.4219C309.938 42.4219 311.104 41.7183 311.104 40.311C311.104 39.8599 310.975 39.4839 310.717 39.1831C310.459 38.8823 310.035 38.5708 309.444 38.2485C308.854 37.9263 308.032 37.561 306.979 37.1528C304.927 36.3579 303.536 35.563 302.806 34.7681C302.086 33.9731 301.726 32.9419 301.726 31.6743C301.726 30.1489 302.338 28.9673 303.563 28.1294C304.798 27.2808 306.474 26.8564 308.59 26.8564C310.685 26.8564 312.667 27.2808 314.536 28.1294L313.312 30.9814C311.389 30.1865 309.772 29.7891 308.461 29.7891C306.463 29.7891 305.464 30.3584 305.464 31.4971C305.464 32.0557 305.722 32.5283 306.238 32.915C306.764 33.3018 307.903 33.8335 309.654 34.5103C311.125 35.0796 312.194 35.6006 312.86 36.0732C313.526 36.5459 314.021 37.0938 314.343 37.7168C314.665 38.3291 314.826 39.0649 314.826 39.9243Z" fill="white"/>
<path d="M343.186 45H339.383V34.043C339.383 32.668 339.104 31.6421 338.545 30.9653C337.997 30.2886 337.122 29.9502 335.918 29.9502C334.329 29.9502 333.158 30.4282 332.406 31.3843C331.665 32.3296 331.294 33.9194 331.294 36.1538V45H327.507V19.9277H331.294V26.2925C331.294 27.313 331.229 28.4033 331.101 29.5635H331.342C331.858 28.7041 332.572 28.0381 333.485 27.5654C334.409 27.0928 335.483 26.8564 336.708 26.8564C341.026 26.8564 343.186 29.0317 343.186 33.3823V45Z" fill="white"/>
<path d="M364.262 36.0571C364.262 38.9683 363.515 41.2402 362.022 42.873C360.529 44.5059 358.45 45.3223 355.786 45.3223C354.121 45.3223 352.649 44.9463 351.371 44.1943C350.093 43.4424 349.11 42.3628 348.422 40.9556C347.735 39.5483 347.391 37.9155 347.391 36.0571C347.391 33.1675 348.132 30.9116 349.615 29.2896C351.097 27.6675 353.187 26.8564 355.883 26.8564C358.461 26.8564 360.502 27.689 362.006 29.354C363.51 31.0083 364.262 33.2427 364.262 36.0571ZM351.291 36.0571C351.291 40.1714 352.811 42.2285 355.851 42.2285C358.858 42.2285 360.362 40.1714 360.362 36.0571C360.362 31.9858 358.848 29.9502 355.818 29.9502C354.229 29.9502 353.074 30.4766 352.354 31.5293C351.645 32.582 351.291 34.0913 351.291 36.0571Z" fill="white"/>
<path d="M377.668 26.8564C378.431 26.8564 379.059 26.9102 379.553 27.0176L379.183 30.5464C378.646 30.4175 378.087 30.353 377.507 30.353C375.992 30.353 374.762 30.8472 373.817 31.8354C372.882 32.8237 372.415 34.1074 372.415 35.6865V45H368.628V27.1787H371.593L372.093 30.3208H372.286C372.877 29.2573 373.645 28.4141 374.59 27.791C375.546 27.168 376.572 26.8564 377.668 26.8564Z" fill="white"/>
<path d="M397.89 45H394.087V34.0107C394.087 32.6465 393.83 31.6313 393.314 30.9653C392.798 30.2886 391.993 29.9502 390.897 29.9502C389.436 29.9502 388.362 30.4282 387.674 31.3843C386.998 32.3296 386.659 33.9087 386.659 36.1216V45H382.873V27.1787H385.837L386.369 29.5151H386.562C387.057 28.6665 387.771 28.0112 388.706 27.5493C389.651 27.0874 390.688 26.8564 391.815 26.8564C394.555 26.8564 396.37 27.791 397.262 29.6602H397.52C398.046 28.7793 398.787 28.0918 399.743 27.5977C400.699 27.1035 401.795 26.8564 403.03 26.8564C405.157 26.8564 406.704 27.3936 407.671 28.4678C408.648 29.542 409.137 31.1802 409.137 33.3823V45H405.351V34.0107C405.351 32.6465 405.087 31.6313 404.561 30.9653C404.045 30.2886 403.24 29.9502 402.144 29.9502C400.672 29.9502 399.593 30.4121 398.905 31.3359C398.229 32.249 397.89 33.6562 397.89 35.5576V45Z" fill="white"/>
<path d="M418.209 45H414.422V27.1787H418.209V45ZM414.197 22.4575C414.197 21.7808 414.379 21.2598 414.745 20.8945C415.121 20.5293 415.652 20.3467 416.34 20.3467C417.006 20.3467 417.521 20.5293 417.887 20.8945C418.263 21.2598 418.451 21.7808 418.451 22.4575C418.451 23.1021 418.263 23.6123 417.887 23.9883C417.521 24.3535 417.006 24.5361 416.34 24.5361C415.652 24.5361 415.121 24.3535 414.745 23.9883C414.379 23.6123 414.197 23.1021 414.197 22.4575Z" fill="white"/>
<path d="M438.689 27.1787V29.2573L435.644 29.8213C435.923 30.1973 436.154 30.6592 436.336 31.207C436.519 31.7549 436.61 32.335 436.61 32.9473C436.61 34.7842 435.977 36.229 434.709 37.2817C433.441 38.3345 431.696 38.8608 429.472 38.8608C428.903 38.8608 428.387 38.8179 427.925 38.7319C427.109 39.2368 426.701 39.8276 426.701 40.5044C426.701 40.9126 426.889 41.2188 427.265 41.4229C427.651 41.627 428.355 41.729 429.375 41.729H432.485C434.451 41.729 435.944 42.1479 436.965 42.9858C437.985 43.8237 438.496 45.0322 438.496 46.6113C438.496 48.6309 437.663 50.1885 435.998 51.2842C434.333 52.3799 431.927 52.9277 428.779 52.9277C426.352 52.9277 424.499 52.498 423.22 51.6387C421.942 50.7793 421.303 49.5547 421.303 47.9648C421.303 46.8691 421.646 45.9453 422.334 45.1934C423.032 44.4521 424.004 43.9365 425.25 43.6465C424.746 43.4316 424.327 43.0879 423.994 42.6152C423.671 42.1318 423.51 41.627 423.51 41.1006C423.51 40.4346 423.698 39.8706 424.074 39.4087C424.45 38.9468 425.009 38.4902 425.75 38.0391C424.826 37.6416 424.074 36.9971 423.494 36.1055C422.925 35.2031 422.64 34.1504 422.64 32.9473C422.64 31.0137 423.247 29.5151 424.461 28.4517C425.686 27.3882 427.426 26.8564 429.682 26.8564C430.187 26.8564 430.713 26.894 431.261 26.9692C431.819 27.0337 432.238 27.1035 432.518 27.1787H438.689ZM424.687 47.7715C424.687 48.5879 425.052 49.2163 425.782 49.6567C426.523 50.0972 427.56 50.3174 428.892 50.3174C430.955 50.3174 432.491 50.022 433.5 49.4312C434.51 48.8403 435.015 48.0562 435.015 47.0786C435.015 46.3052 434.736 45.752 434.177 45.4189C433.629 45.0967 432.604 44.9355 431.1 44.9355H428.231C427.146 44.9355 426.282 45.188 425.637 45.6929C425.003 46.2085 424.687 46.9014 424.687 47.7715ZM426.314 32.9473C426.314 34.0645 426.599 34.9238 427.168 35.5254C427.748 36.127 428.575 36.4277 429.649 36.4277C431.841 36.4277 432.937 35.2568 432.937 32.915C432.937 31.7549 432.663 30.8633 432.115 30.2402C431.578 29.6064 430.756 29.2896 429.649 29.2896C428.554 29.2896 427.721 29.6011 427.152 30.2241C426.593 30.8472 426.314 31.7549 426.314 32.9473Z" fill="white"/>
<path d="M453.159 45L452.401 42.5186H452.272C451.413 43.6035 450.548 44.3447 449.678 44.7422C448.808 45.1289 447.691 45.3223 446.327 45.3223C444.576 45.3223 443.206 44.8496 442.218 43.9043C441.24 42.959 440.751 41.6216 440.751 39.8921C440.751 38.0552 441.434 36.6694 442.798 35.7349C444.162 34.8003 446.241 34.29 449.034 34.2041L452.111 34.1074V33.1567C452.111 32.0181 451.843 31.1694 451.306 30.6108C450.779 30.0415 449.958 29.7568 448.84 29.7568C447.927 29.7568 447.052 29.8911 446.214 30.1597C445.376 30.4282 444.57 30.7451 443.797 31.1104L442.572 28.4033C443.539 27.8984 444.597 27.5171 445.747 27.2593C446.896 26.9907 447.981 26.8564 449.001 26.8564C451.268 26.8564 452.976 27.3506 454.125 28.3389C455.286 29.3271 455.866 30.8794 455.866 32.9956V45H453.159ZM447.519 42.4219C448.894 42.4219 449.995 42.0405 450.822 41.2778C451.66 40.5044 452.079 39.4248 452.079 38.0391V36.4922L449.791 36.5889C448.008 36.6533 446.708 36.9541 445.892 37.4912C445.086 38.0176 444.683 38.8286 444.683 39.9243C444.683 40.7192 444.919 41.3369 445.392 41.7773C445.865 42.207 446.574 42.4219 447.519 42.4219Z" fill="white"/>
<path d="M473.123 39.9243C473.123 41.6646 472.489 43.002 471.222 43.9365C469.954 44.8604 468.139 45.3223 465.775 45.3223C463.401 45.3223 461.495 44.9624 460.055 44.2427V40.9717C462.15 41.9385 464.1 42.4219 465.904 42.4219C468.235 42.4219 469.401 41.7183 469.401 40.311C469.401 39.8599 469.272 39.4839 469.014 39.1831C468.756 38.8823 468.332 38.5708 467.741 38.2485C467.15 37.9263 466.329 37.561 465.276 37.1528C463.224 36.3579 461.833 35.563 461.103 34.7681C460.383 33.9731 460.023 32.9419 460.023 31.6743C460.023 30.1489 460.635 28.9673 461.86 28.1294C463.095 27.2808 464.771 26.8564 466.887 26.8564C468.982 26.8564 470.964 27.2808 472.833 28.1294L471.608 30.9814C469.686 30.1865 468.069 29.7891 466.758 29.7891C464.76 29.7891 463.761 30.3584 463.761 31.4971C463.761 32.0557 464.019 32.5283 464.535 32.915C465.061 33.3018 466.2 33.8335 467.951 34.5103C469.422 35.0796 470.491 35.6006 471.157 36.0732C471.823 36.5459 472.317 37.0938 472.64 37.7168C472.962 38.3291 473.123 39.0649 473.123 39.9243Z" fill="white"/>
<path d="M480.503 37.8457H477.699L476.861 21.4424H481.325L480.503 37.8457ZM476.668 42.9858C476.668 42.1909 476.877 41.5894 477.296 41.1812C477.715 40.7622 478.312 40.5527 479.085 40.5527C479.848 40.5527 480.433 40.7676 480.841 41.1973C481.25 41.627 481.454 42.2231 481.454 42.9858C481.454 43.7485 481.244 44.3555 480.825 44.8066C480.417 45.2471 479.837 45.4673 479.085 45.4673C478.322 45.4673 477.726 45.2524 477.296 44.8228C476.877 44.3931 476.668 43.7808 476.668 42.9858Z" fill="white"/>
</svg>
