<svg width="411" height="106" viewBox="0 0 411 106" fill="none" xmlns="http://www.w3.org/2000/svg">
<path d="M207.351 72.8204C207.351 72.8204 212.914 83.1268 219.843 89.4184C232.843 101.222 251.961 104.814 251.961 104.814C251.961 104.814 224.443 86.6819 223.501 72.8204C223.112 67.0752 224.919 67.2366 224.919 67.2366L207.351 72.8204Z" fill="#00A5A5"/>
<path d="M1.68441 42.3299C1.01722 17.322 11.2115 4.57592 45.8826 3.34795C84.7007 1.97158 344.382 -0.637652 385.526 3.89752C417.039 7.37106 420.01 70.9515 381.696 74.5539C340.144 78.4596 79.2553 81.2612 29.4366 74.0826C4.8781 70.5438 2.06706 56.7018 1.68441 42.3299Z" fill="#00A5A5"/>
<path d="M86.8003 41.6069H89.604L90.4258 57.978H85.9624L86.8003 41.6069ZM90.6191 36.4507C90.6191 37.2456 90.415 37.8525 90.0068 38.2715C89.6094 38.6904 89.0132 38.8999 88.2183 38.8999C87.4448 38.8999 86.854 38.6904 86.4458 38.2715C86.0376 37.8418 85.8335 37.2349 85.8335 36.4507C85.8335 35.7095 86.0376 35.1133 86.4458 34.6621C86.854 34.2109 87.4448 33.9854 88.2183 33.9854C88.9917 33.9854 89.5825 34.2056 89.9907 34.646C90.4097 35.0757 90.6191 35.6772 90.6191 36.4507ZM115.546 52H110.825L99.2397 33.228H99.1108L99.1914 34.2754C99.3418 36.2734 99.417 38.0996 99.417 39.7539V52H95.9204V28.4424H100.593L112.146 47.1177H112.243C112.222 46.8706 112.179 45.9736 112.114 44.4268C112.05 42.8691 112.018 41.6553 112.018 40.7852V28.4424H115.546V52ZM137.17 43.0571C137.17 45.9683 136.424 48.2402 134.931 49.873C133.438 51.5059 131.359 52.3223 128.695 52.3223C127.03 52.3223 125.558 51.9463 124.28 51.1943C123.001 50.4424 122.019 49.3628 121.331 47.9556C120.644 46.5483 120.3 44.9155 120.3 43.0571C120.3 40.1675 121.041 37.9116 122.523 36.2896C124.006 34.6675 126.095 33.8564 128.792 33.8564C131.37 33.8564 133.411 34.689 134.915 36.354C136.418 38.0083 137.17 40.2427 137.17 43.0571ZM124.199 43.0571C124.199 47.1714 125.719 49.2285 128.759 49.2285C131.767 49.2285 133.271 47.1714 133.271 43.0571C133.271 38.9858 131.756 36.9502 128.727 36.9502C127.137 36.9502 125.982 37.4766 125.263 38.5293C124.554 39.582 124.199 41.0913 124.199 43.0571ZM154.17 52L147.402 34.1787H151.398L155.024 44.5396C155.647 46.2798 156.023 47.687 156.152 48.7612H156.281C156.377 47.9878 156.753 46.5806 157.409 44.5396L161.034 34.1787H165.062L158.263 52H154.17ZM183.577 43.0571C183.577 45.9683 182.83 48.2402 181.337 49.873C179.844 51.5059 177.765 52.3223 175.101 52.3223C173.436 52.3223 171.964 51.9463 170.686 51.1943C169.408 50.4424 168.425 49.3628 167.737 47.9556C167.05 46.5483 166.706 44.9155 166.706 43.0571C166.706 40.1675 167.447 37.9116 168.93 36.2896C170.412 34.6675 172.501 33.8564 175.198 33.8564C177.776 33.8564 179.817 34.689 181.321 36.354C182.825 38.0083 183.577 40.2427 183.577 43.0571ZM170.605 43.0571C170.605 47.1714 172.125 49.2285 175.166 49.2285C178.173 49.2285 179.677 47.1714 179.677 43.0571C179.677 38.9858 178.163 36.9502 175.133 36.9502C173.543 36.9502 172.389 37.4766 171.669 38.5293C170.96 39.582 170.605 41.0913 170.605 43.0571ZM191.73 52H187.943V26.9277H191.73V52ZM201.221 52L194.453 34.1787H198.449L202.075 44.5396C202.698 46.2798 203.074 47.687 203.203 48.7612H203.332C203.428 47.9878 203.804 46.5806 204.459 44.5396L208.085 34.1787H212.113L205.313 52H201.221ZM222.603 52.3223C219.832 52.3223 217.662 51.5166 216.093 49.9053C214.536 48.2832 213.757 46.0542 213.757 43.2183C213.757 40.3071 214.482 38.019 215.932 36.354C217.382 34.689 219.375 33.8564 221.91 33.8564C224.263 33.8564 226.121 34.5708 227.485 35.9995C228.85 37.4282 229.532 39.394 229.532 41.897V43.9434H217.656C217.71 45.6729 218.177 47.0049 219.058 47.9395C219.939 48.8633 221.18 49.3252 222.78 49.3252C223.833 49.3252 224.811 49.2285 225.713 49.0352C226.626 48.8311 227.604 48.498 228.646 48.0361V51.1138C227.722 51.5542 226.787 51.8657 225.842 52.0483C224.896 52.231 223.817 52.3223 222.603 52.3223ZM221.91 36.7246C220.707 36.7246 219.74 37.106 219.01 37.8687C218.29 38.6313 217.86 39.7432 217.721 41.2041H225.81C225.788 39.7324 225.434 38.6206 224.746 37.8687C224.059 37.106 223.113 36.7246 221.91 36.7246ZM242.874 33.8564C243.636 33.8564 244.265 33.9102 244.759 34.0176L244.388 37.5464C243.851 37.4175 243.292 37.353 242.712 37.353C241.198 37.353 239.968 37.8472 239.022 38.8354C238.088 39.8237 237.621 41.1074 237.621 42.6865V52H233.834V34.1787H236.799L237.298 37.3208H237.492C238.083 36.2573 238.851 35.4141 239.796 34.791C240.752 34.168 241.778 33.8564 242.874 33.8564ZM255.861 52.3223C253.089 52.3223 250.919 51.5166 249.351 49.9053C247.793 48.2832 247.015 46.0542 247.015 43.2183C247.015 40.3071 247.74 38.019 249.19 36.354C250.64 34.689 252.633 33.8564 255.168 33.8564C257.521 33.8564 259.379 34.5708 260.743 35.9995C262.107 37.4282 262.79 39.394 262.79 41.897V43.9434H250.914C250.968 45.6729 251.435 47.0049 252.316 47.9395C253.197 48.8633 254.438 49.3252 256.038 49.3252C257.091 49.3252 258.068 49.2285 258.971 49.0352C259.884 48.8311 260.861 48.498 261.903 48.0361V51.1138C260.979 51.5542 260.045 51.8657 259.1 52.0483C258.154 52.231 257.075 52.3223 255.861 52.3223ZM255.168 36.7246C253.965 36.7246 252.998 37.106 252.268 37.8687C251.548 38.6313 251.118 39.7432 250.979 41.2041H259.067C259.046 39.7324 258.691 38.6206 258.004 37.8687C257.316 37.106 256.371 36.7246 255.168 36.7246ZM282.109 52H278.307V41.0107C278.307 39.6465 278.049 38.6313 277.533 37.9653C277.018 37.2886 276.212 36.9502 275.116 36.9502C273.655 36.9502 272.581 37.4282 271.894 38.3843C271.217 39.3296 270.878 40.9087 270.878 43.1216V52H267.092V34.1787H270.057L270.588 36.5151H270.782C271.276 35.6665 271.99 35.0112 272.925 34.5493C273.87 34.0874 274.907 33.8564 276.035 33.8564C278.774 33.8564 280.589 34.791 281.481 36.6602H281.739C282.265 35.7793 283.006 35.0918 283.962 34.5977C284.918 34.1035 286.014 33.8564 287.25 33.8564C289.376 33.8564 290.923 34.3936 291.89 35.4678C292.868 36.542 293.356 38.1802 293.356 40.3823V52H289.57V41.0107C289.57 39.6465 289.307 38.6313 288.78 37.9653C288.265 37.2886 287.459 36.9502 286.363 36.9502C284.892 36.9502 283.812 37.4121 283.125 38.3359C282.448 39.249 282.109 40.6562 282.109 42.5576V52ZM314.449 43.0571C314.449 45.9683 313.702 48.2402 312.209 49.873C310.716 51.5059 308.637 52.3223 305.973 52.3223C304.308 52.3223 302.836 51.9463 301.558 51.1943C300.28 50.4424 299.297 49.3628 298.609 47.9556C297.922 46.5483 297.578 44.9155 297.578 43.0571C297.578 40.1675 298.319 37.9116 299.802 36.2896C301.284 34.6675 303.374 33.8564 306.07 33.8564C308.648 33.8564 310.689 34.689 312.193 36.354C313.697 38.0083 314.449 40.2427 314.449 43.0571ZM301.478 43.0571C301.478 47.1714 302.998 49.2285 306.038 49.2285C309.045 49.2285 310.549 47.1714 310.549 43.0571C310.549 38.9858 309.035 36.9502 306.005 36.9502C304.416 36.9502 303.261 37.4766 302.541 38.5293C301.832 39.582 301.478 41.0913 301.478 43.0571ZM330.788 46.9243C330.788 48.6646 330.154 50.002 328.886 50.9365C327.619 51.8604 325.803 52.3223 323.44 52.3223C321.066 52.3223 319.159 51.9624 317.72 51.2427V47.9717C319.814 48.9385 321.764 49.4219 323.569 49.4219C325.9 49.4219 327.065 48.7183 327.065 47.311C327.065 46.8599 326.937 46.4839 326.679 46.1831C326.421 45.8823 325.997 45.5708 325.406 45.2485C324.815 44.9263 323.993 44.561 322.94 44.1528C320.889 43.3579 319.498 42.563 318.767 41.7681C318.047 40.9731 317.688 39.9419 317.688 38.6743C317.688 37.1489 318.3 35.9673 319.524 35.1294C320.76 34.2808 322.436 33.8564 324.552 33.8564C326.646 33.8564 328.628 34.2808 330.498 35.1294L329.273 37.9814C327.35 37.1865 325.733 36.7891 324.423 36.7891C322.425 36.7891 321.426 37.3584 321.426 38.4971C321.426 39.0557 321.684 39.5283 322.199 39.915C322.726 40.3018 323.864 40.8335 325.615 41.5103C327.087 42.0796 328.156 42.6006 328.822 43.0732C329.488 43.5459 329.982 44.0938 330.304 44.7168C330.626 45.3291 330.788 46.0649 330.788 46.9243ZM338.167 44.8457H335.364L334.526 28.4424H338.989L338.167 44.8457ZM334.333 49.9858C334.333 49.1909 334.542 48.5894 334.961 48.1812C335.38 47.7622 335.976 47.5527 336.75 47.5527C337.512 47.5527 338.098 47.7676 338.506 48.1973C338.914 48.627 339.118 49.2231 339.118 49.9858C339.118 50.7485 338.909 51.3555 338.49 51.8066C338.082 52.2471 337.501 52.4673 336.75 52.4673C335.987 52.4673 335.391 52.2524 334.961 51.8228C334.542 51.3931 334.333 50.7808 334.333 49.9858Z" fill="white"/>
</svg>
