<svg width="846" height="314" viewBox="0 0 846 314" fill="none" xmlns="http://www.w3.org/2000/svg">
<path d="M525.693 67.3674C525.693 104.567 555.85 134.735 593.061 134.735C630.26 134.735 660.428 104.578 660.428 67.3674C660.428 30.1677 630.271 0 593.061 0C555.85 0.0107358 525.693 30.1677 525.693 67.3674Z" fill="white"/>
<path fill-rule="evenodd" clip-rule="evenodd" d="M845.835 112.104C845.771 107.552 844.15 69.8366 816.247 58.0057C788.356 46.1748 764.683 74.0665 764.683 74.0665C764.683 74.0665 761.301 21.987 727.483 28.1601C693.666 34.3332 694.514 63.9211 694.514 63.9211C694.514 63.9211 683.402 45.9923 664.926 52.0902C644.442 58.8538 648.017 77.7381 648.017 77.7381C648.017 77.7381 636.658 63.9641 619.846 74.0665C603.034 84.1689 593.919 101.958 598.138 121.401C602.368 140.843 619.084 166.201 721.89 156.904C824.707 147.607 846.297 144.225 845.835 112.104Z" fill="#A1708B"/>
<path fill-rule="evenodd" clip-rule="evenodd" d="M276.01 152.803C276.107 146.179 278.469 91.319 319.05 74.0987C359.632 56.8785 394.072 97.4706 394.072 97.4706C394.072 97.4706 398.989 21.7079 448.181 30.683C497.372 39.6582 496.138 82.7089 496.138 82.7089C496.138 82.7089 512.295 56.6208 539.188 65.4886C568.991 75.3226 563.784 102.806 563.784 102.806C563.784 102.806 580.296 82.7733 604.763 97.4706C629.23 112.168 642.489 138.052 636.337 166.341C630.185 194.63 605.869 231.518 456.308 217.991C306.758 204.453 275.345 199.536 276.01 152.803Z" fill="#524D40"/>
<path fill-rule="evenodd" clip-rule="evenodd" d="M0.0165101 212.033C0.171925 202.11 3.97095 119.934 69.2452 94.1399C134.519 68.3453 189.916 129.149 189.916 129.149C189.916 129.149 197.825 15.6626 276.948 29.1067C356.072 42.5507 354.086 107.037 354.086 107.037C354.086 107.037 380.075 67.9593 423.332 81.2426C471.269 95.9732 462.894 137.142 462.894 137.142C462.894 137.142 489.452 107.134 528.807 129.149C568.161 151.165 589.488 189.937 579.593 232.311C569.698 274.686 530.585 329.942 290.02 309.679C49.4729 289.4 -1.05413 282.035 0.0165101 212.033Z" fill="#7B776A"/>
</svg>
