<svg width="851" height="549" viewBox="0 0 851 549" fill="none" xmlns="http://www.w3.org/2000/svg">
<path d="M291.245 232.238C291.245 262.188 315.525 286.477 345.484 286.477C375.434 286.477 399.722 262.197 399.722 232.238C399.722 202.288 375.442 178 345.484 178C315.525 178.009 291.245 202.288 291.245 232.238Z" fill="white"/>
<path fill-rule="evenodd" clip-rule="evenodd" d="M850.781 439.993C850.729 436.329 849.424 405.964 826.959 396.438C804.503 386.913 785.444 409.369 785.444 409.369C785.444 409.369 782.721 367.439 755.494 372.409C728.267 377.379 728.95 401.201 728.95 401.201C728.95 401.201 720.004 386.766 705.128 391.676C688.636 397.121 691.514 412.325 691.514 412.325C691.514 412.325 682.369 401.236 668.834 409.369C655.298 417.503 647.959 431.825 651.356 447.479C654.762 463.132 668.22 483.548 750.991 476.063C833.77 468.578 851.153 465.855 850.781 439.993Z" fill="#A1708B"/>
<path fill-rule="evenodd" clip-rule="evenodd" d="M392.008 472.761C392.086 467.428 393.988 423.26 426.66 409.395C459.333 395.531 487.062 428.212 487.062 428.212C487.062 428.212 491.02 367.215 530.625 374.441C570.23 381.667 569.236 416.327 569.236 416.327C569.236 416.327 582.245 395.323 603.897 402.463C627.891 410.381 623.699 432.508 623.699 432.508C623.699 432.508 636.993 416.379 656.692 428.212C676.391 440.045 687.065 460.885 682.113 483.661C677.16 506.437 657.582 536.136 537.168 525.245C416.763 514.346 391.472 510.387 392.008 472.761Z" fill="#524D40"/>
<path fill-rule="evenodd" clip-rule="evenodd" d="M0.0132925 418.167C0.138419 410.179 3.19707 344.018 55.7503 323.25C108.303 302.483 152.904 351.437 152.904 351.437C152.904 351.437 159.272 260.067 222.975 270.891C286.679 281.715 285.08 333.634 285.08 333.634C285.08 333.634 306.004 302.172 340.831 312.866C379.425 324.726 372.682 357.871 372.682 357.871C372.682 357.871 394.065 333.712 425.75 351.437C457.435 369.162 474.605 400.378 466.639 434.494C458.672 468.61 427.182 513.098 233.5 496.784C39.8314 480.457 -0.848691 474.527 0.0132925 418.167Z" fill="#7B776A"/>
<path fill-rule="evenodd" clip-rule="evenodd" d="M204 401.032C204 400.981 204.051 400.998 204.051 401.032C212.93 404.412 219.249 410.446 224.54 417.968C226.478 420.723 228.298 423.579 229.696 426.892C231.516 431.236 233.285 435.63 237.228 438.064C238.138 438.622 239.385 439.433 240.649 439.298C241.188 439.23 241.879 438.791 241.879 438.149C241.879 437.777 241.491 437.337 241.323 436.915C240.952 435.934 240.918 434.734 241.373 433.619C241.575 433.129 241.862 432.351 242.283 432.284C242.957 432.182 243.479 433.196 243.749 433.754C244.103 434.515 244.271 435.191 244.474 435.951C245.872 435.782 246.984 436.256 247.978 436.644C248.518 435.512 249.023 434.126 250.674 434.261C252.275 436.492 250.725 439.805 249.175 440.904C253.573 443.388 259.571 441.259 262.368 438.791C263.918 437.405 265.283 435.85 266.749 434.396C274.146 427.061 285.065 423.562 299 422.768C296.355 424.306 293.675 426.098 291.788 428.582C290.946 429.698 290.036 431.286 289.733 433.027C289.412 434.836 289.749 436.999 290.457 438.436C283.902 440.092 280.802 445.231 279.825 452.481C277.954 451.129 275.157 450.335 272.209 449.963C269.058 449.557 266.058 450.098 263.682 451.248C259.15 453.411 255.763 457.265 253.101 461C253.674 459.056 253.101 457.214 251.635 456.149C250.388 455.236 248.181 454.865 246.58 455.422C245.636 455.743 244.912 456.47 244.575 457.484C243.934 456.572 243.126 455.405 241.693 455.236C240.345 455.084 239.368 455.794 238.593 456.284C238.526 455.152 238.306 454.256 237.868 453.36C237.447 452.481 236.824 451.248 235.627 451.214C234.212 451.163 233.049 452.296 232.156 453.09C231.128 454.003 230.286 455 229.561 455.845C228.837 449.794 226.579 445.028 223.175 441.614C219.788 438.216 215.121 435.833 208.937 435.292C210.487 433.095 211.818 429.444 210.437 426.098C209.291 423.292 206.915 421.466 204.505 420.047C208.128 418.897 210.386 416.396 210.117 411.579C209.982 409.145 209.004 407.134 207.926 405.443C206.831 403.686 205.432 402.181 204 401.032Z" fill="#3C3C3B"/>
<path fill-rule="evenodd" clip-rule="evenodd" d="M760.432 375.091C760.843 366.654 762.3 296.51 711.966 271.261C661.632 246.012 614.419 294.95 614.419 294.95C614.419 294.95 614.316 197.957 550.865 205.408C487.434 212.86 485.484 267.833 485.484 267.833C485.484 267.833 467.009 233.265 432.009 242.379C393.212 252.499 397.625 287.95 397.625 287.95C397.625 287.95 378.206 261.059 345.813 277.81C313.441 294.56 294.412 326.481 299.954 363.041C305.497 399.601 333.497 448.6 525.267 443.53C717.037 438.439 757.476 434.724 760.432 375.091Z" fill="#754861"/>
<path d="M490.717 209.993C490.717 203.444 494.33 155.369 494.74 149.333" stroke="black" stroke-width="0.712" stroke-miterlimit="10"/>
<path d="M759.712 220.729C759.712 214.509 758.973 165.55 759.343 160.069" stroke="black" stroke-width="0.712" stroke-miterlimit="10"/>
<path d="M621.11 68.7825L620.699 1" stroke="black" stroke-width="0.712" stroke-miterlimit="10"/>
<path d="M564.454 227.647C564.516 231.198 590.709 233.723 619.386 233.271C648.043 232.82 674.154 229.556 674.113 226.004C674.052 222.453 647.838 219.928 619.181 220.38C590.504 220.831 564.393 224.095 564.454 227.647Z" fill="black"/>
<path d="M728.16 306.391C728.222 308.793 743.987 310.312 763.365 309.798C782.723 309.265 798.386 306.884 798.324 304.482C798.263 302.08 782.497 300.561 763.119 301.095C743.761 301.608 728.099 303.989 728.16 306.391Z" fill="black"/>
<path d="M518.141 299.494C518.079 301.895 502.314 303.414 482.935 302.901C463.578 302.368 447.915 299.986 447.997 297.585C448.059 295.183 463.824 293.664 483.182 294.197C502.56 294.711 518.223 297.092 518.141 299.494Z" fill="black"/>
<path d="M500.284 650.805C487.865 654.459 484.539 659.242 448.39 655.916C423.038 653.597 406 643.497 406 643.497C406 643.497 432.994 484.756 435.971 468.067C447.671 402.296 449.129 360.625 451.325 336.505C453.706 303.086 451.613 281.491 464.483 272.91C473.269 267.06 508.331 284.611 510.527 291.18C512.724 297.749 502.562 385.464 502.562 397.904C502.562 410.343 510.527 528.747 511.266 538.231C511.985 547.735 500.284 650.805 500.284 650.805Z" fill="#B4B0A5"/>
<path d="M546.33 496.909C546.33 496.909 557.292 354.385 559.488 346.338C561.685 338.291 569.732 334.637 569.732 334.637C569.732 334.637 573.776 229.453 575.582 216.233C576.957 206.154 631.869 208.925 631.869 208.925C631.869 208.925 661.84 206.729 664.016 221.345C666.212 235.96 666.212 339.009 668.409 340.487C670.605 341.945 674.259 343.423 676.455 349.253C678.652 355.103 687.417 496.17 683.763 499.824C680.089 503.478 554.377 495.451 546.33 496.909Z" fill="#B4B0A5"/>
<path d="M720.3 652.817C720.3 652.817 741.751 657.682 773.405 657.21C805.079 656.717 822.138 643.559 824.088 641.609C826.038 639.659 808.015 543.178 808.015 525.627C808.015 508.096 793.399 410.631 792.907 405.766C792.414 400.901 791.1 308.095 790.115 303.722C789.129 299.329 775.848 295.634 775.848 295.634C775.848 295.634 736.024 299.104 736.024 305.426C736.024 309.039 738.549 350.628 735.347 398.93C732.904 435.428 725.802 489.745 723.708 502.739C718.822 532.955 713.957 644.544 720.3 652.817Z" fill="#B4B0A5"/>
<path d="M448.022 297.954C449.172 297.954 461.899 294.136 481.257 294.136C500.614 294.136 517.098 299.063 518.186 299.063C515.374 282.415 494.066 189.055 492.239 186.489C490.7 184.313 459.066 262.605 448.022 297.954Z" fill="#3C3C3B"/>
<path d="M798.306 304.851C797.136 304.851 784.43 301.033 765.072 301.033C745.694 301.033 729.231 305.96 728.143 305.96C730.955 289.332 756.656 195.952 758.483 193.406C760.289 190.84 792.107 285.022 798.306 304.851Z" fill="#3C3C3B"/>
<path d="M674.069 226.559C672.365 226.538 657.011 216.746 622.031 217.403C586.169 218.081 566.011 227.01 564.39 226.99C568.844 202.418 617.187 54.4952 619.938 50.7592C622.688 47.0026 665.242 197.101 674.069 226.559Z" fill="#3C3C3B"/>
<path d="M467.11 446.801C467.11 446.801 466.802 425.021 468.896 419.334C470.989 413.648 478.749 413.669 479.939 423.522C481.13 433.375 480.227 446.801 480.227 446.801H467.11Z" fill="#FAFAFB"/>
<path d="M473.929 340.529C473.929 339.133 473.929 319.549 476.022 315.074C478.096 310.599 484.665 311.153 486.163 317.866C487.662 324.579 483.187 342.191 483.187 342.191L473.929 340.529Z" fill="#FAFAFB"/>
<path d="M465.017 451.871C466.988 452.61 483.534 452.179 483.534 452.179C483.534 452.179 484.724 444.419 483.534 444.419C482.343 444.419 465.921 442.633 464.73 443.824C463.519 445.015 462.636 450.968 465.017 451.871Z" fill="#DAD8CC"/>
<path d="M472.715 343.71C473.885 343.895 483.164 344.901 484.95 344.901C486.735 344.901 487.331 338.64 485.237 338.64C483.143 338.64 472.407 337.449 471.504 338.332C470.621 339.235 469.143 343.115 472.715 343.71Z" fill="#DAD8CC"/>
<path d="M759.488 446.308C759.488 446.308 759.18 427.566 761.273 422.701C763.367 417.815 771.127 417.815 772.317 426.293C773.508 434.771 772.605 446.308 772.605 446.308H759.488Z" fill="#FAFAFB"/>
<path d="M757.395 452.856C759.366 453.595 775.911 453.164 775.911 453.164C775.911 453.164 777.102 445.405 775.911 445.405C774.721 445.405 758.299 443.619 757.108 444.809C755.897 445.979 755.014 451.953 757.395 452.856Z" fill="#DAD8CC"/>
<path d="M760.761 348.391C760.597 347.097 758.524 328.848 760.125 324.455C761.726 320.042 768.295 319.837 770.512 325.913C772.708 331.989 770.122 348.904 770.122 348.904L760.761 348.391Z" fill="#FAFAFB"/>
<path d="M759.917 351.573C761.108 351.634 770.427 351.573 772.213 351.367C773.999 351.162 773.876 344.86 771.803 345.106C769.73 345.332 758.911 345.373 758.131 346.358C757.331 347.364 756.284 351.388 759.917 351.573Z" fill="#DAD8CC"/>
<path d="M534.175 160.172C530.214 158.242 524.178 154.753 520.217 153.932C512.703 152.351 509.912 154.342 503.692 153.685C499.648 153.254 496.014 150.976 494.393 150.38L493.182 164.914C498.314 167.069 503.179 168.855 511.369 164.77C520.442 160.234 524.692 160.069 534.175 160.172Z" fill="#E30613"/>
<path d="M799.846 170.867C795.761 172.55 789.521 175.629 785.518 176.204C777.902 177.292 775.254 175.137 769.013 175.383C764.949 175.547 761.172 177.58 759.509 178.093L759.222 163.518C764.477 161.712 769.445 160.234 777.368 164.832C786.154 169.923 790.403 170.354 799.846 170.867Z" fill="#E30613"/>
<path d="M674.379 10.7302C669.945 14.8152 659.476 20.1114 654.365 20.8298C644.634 22.2052 641.227 19.4545 633.221 19.7624C628.007 19.9677 623.163 22.5747 621.048 23.2316L620.699 4.57186C627.432 2.25223 633.796 0.36368 643.937 6.25514C655.165 12.8035 662.124 10.7507 674.379 10.7302Z" fill="#E30613"/>
<path d="M608.837 276.03C608.837 276.03 606.353 256.016 607.379 250.083C609.206 239.491 626.019 237.664 625.649 252.649C625.321 266.218 624.561 277.139 624.561 277.139L608.837 276.03Z" fill="#FAFAFB"/>
<path d="M591.016 429.167C591.016 429.167 590.893 400.511 591.406 383.698C592.145 359.948 634.063 355.309 635.315 382.816C636.916 418.062 632.933 429.167 632.933 429.167H591.016V429.167Z" fill="#FAFAFB"/>
<path d="M614.871 428.551L614.05 393.326L591.182 392.772" stroke="#DADADA" stroke-width="0.712" stroke-miterlimit="10"/>
<path d="M613.333 362.678L614.052 393.326L636.529 392.813" stroke="#DADADA" stroke-width="0.712" stroke-miterlimit="10"/>
<path d="M605.902 280.793C608.735 282.497 625.28 281.881 627.107 281.162C628.934 280.444 629.304 274.594 626.738 274.224C624.172 273.855 606.272 273.136 605.163 274.224C604.075 275.291 604.075 279.684 605.902 280.793Z" fill="#DAD8CC"/>
<path d="M587.262 437.194C589.335 438.856 638.787 437.563 641.353 437.194C642.687 434.176 643.919 407.223 642.092 406.135C640.265 405.047 630.391 404.678 630.391 406.874C630.391 409.071 631.848 417.466 630.391 417.836C628.933 418.205 621.625 418.575 620.168 417.836C618.711 417.097 620.168 406.135 618.71 406.135C617.253 406.135 607.379 405.417 607.379 406.874C607.379 408.332 608.837 417.836 607.749 417.836C606.661 417.836 597.526 419.293 597.526 417.836C597.526 416.378 597.526 406.874 596.068 406.874C594.611 406.874 586.564 406.135 586.564 407.962C586.544 409.789 586.544 434.155 587.262 437.194Z" fill="#DAD8CC"/>
<path d="M716.913 521.809C716.913 521.809 709.769 540.325 715.496 541.043C721.224 541.782 755.669 541.906 772.645 540.818C789.622 539.73 809.719 536.486 810.437 535.768C811.155 535.029 809.985 518.525 808.199 517.437C806.414 516.328 716.913 521.809 716.913 521.809Z" fill="#908B84"/>
<path d="M731.897 384.725C731.897 384.725 732.616 402.317 734.505 402.317C736.414 402.317 748.422 398.766 766.815 399.238C780.446 399.566 793.706 402.789 795.123 402.543C796.56 402.296 798.407 384.971 797.463 383.801C796.498 382.61 765.624 379.285 765.624 379.285L731.897 384.725Z" fill="#908B84"/>
<path d="M516.524 521.809C516.524 521.809 523.647 540.325 517.941 541.043C512.213 541.782 477.768 541.906 460.791 540.818C443.835 539.73 423.718 536.486 423 535.768C422.281 535.029 423.451 518.525 425.237 517.437C427.044 516.328 516.524 521.809 516.524 521.809Z" fill="#908B84"/>
<path d="M445.045 374.625C445.045 374.625 444.121 393.018 445.209 394.845C450.115 395.091 459.147 392.546 477.047 393.305C495.255 394.065 505.068 398.827 505.068 397.37C505.068 395.912 507.634 379.613 505.068 379.264C502.502 378.895 447.241 373.907 445.045 374.625Z" fill="#908B84"/>
<path d="M554.661 342.397C554.374 344.059 555.154 358.47 556.118 358.757C557.083 359.045 589.045 354.118 617.024 354.405C644.408 354.672 661.22 356.479 679.039 359.537C679.039 358.429 679.593 340.611 677.376 339.092C675.159 337.573 598.057 335.807 598.057 335.807L554.661 342.397Z" fill="#908B84"/>
<path d="M711.061 526.407C711.061 526.407 743.824 529.794 768.785 528.296C793.727 526.777 812.017 523.944 812.694 523.595C813.372 523.266 815.938 495.41 814.439 495.082C812.941 494.753 800.501 494.199 799.823 494.877C799.146 495.533 800.152 510.991 798.982 510.991C797.812 510.991 786.768 512.654 785.249 512.654C783.75 512.654 787.609 496.519 784.592 496.026C781.574 495.513 767.205 496.519 766.856 497.525C766.527 498.53 768.498 513.495 766.835 513.495C765.173 513.495 752.445 514.665 751.604 514.337C750.762 513.988 751.296 497.114 749.962 496.95C748.627 496.786 734.894 495.616 734.401 497.299C733.909 498.962 733.868 513.351 732.862 513.351C731.856 513.351 720.853 512.633 720.012 512.305C719.17 511.976 722.495 495.41 721.49 495.082C720.484 494.753 709.44 492.064 708.927 493.399C708.413 494.733 702.235 519.181 703.24 520.865C704.205 522.527 711.061 526.407 711.061 526.407Z" fill="#DAD8CC"/>
<path d="M522.394 526.407C522.394 526.407 489.612 529.794 464.67 528.296C439.729 526.777 421.439 523.944 420.762 523.595C420.084 523.266 421.911 495.41 423.41 495.082C424.929 494.753 435.891 495.657 436.568 496.334C437.245 496.991 434.782 510.991 435.952 510.991C437.122 510.991 446.709 512.654 448.228 512.654C449.726 512.654 448.802 496.519 451.82 496.026C454.838 495.513 467.75 496.519 468.078 497.525C468.427 498.53 466.415 513.495 468.099 513.495C469.761 513.495 481.031 514.665 481.873 514.337C482.714 513.988 482.181 497.114 483.515 496.95C484.849 496.786 498.582 495.616 499.095 497.299C499.588 498.962 499.629 513.351 500.615 513.351C501.62 513.351 512.644 512.633 513.465 512.305C514.307 511.976 510.981 495.41 511.987 495.082C512.993 494.753 524.037 492.064 524.529 493.399C525.042 494.733 531.221 519.181 530.236 520.865C529.251 522.527 522.394 526.407 522.394 526.407Z" fill="#DAD8CC"/>
<path d="M726.499 370.684C726.232 371.874 730.974 391.129 731.918 391.129C732.863 391.129 749.039 385.607 767.103 385.607C785.167 385.607 797.71 390.431 798.9 390.431C800.091 390.431 805.551 369.288 804.361 368.569C803.17 367.851 794.61 365.47 793.666 365.47C792.722 365.47 792.003 377.109 791.059 377.109C790.115 377.109 786.543 375.918 785.373 375.672C784.182 375.446 786.789 363.561 785.373 363.314C783.936 363.068 774.206 361.877 773.959 362.596C773.713 363.314 773.959 373.763 773.015 373.763C772.071 373.763 766.364 374.009 765.173 373.763C763.983 373.537 764.455 361.877 763.757 361.877C763.039 361.877 752.344 362.822 751.646 363.314C750.927 363.786 753.308 374.707 752.364 374.707C751.42 374.707 744.194 376.739 743.25 376.493C742.305 376.247 740.396 365.039 739.678 365.039C738.918 365.08 727.218 367.584 726.499 370.684Z" fill="#DAD8CC"/>
<path d="M439.111 360.543C438.455 363.602 442.806 382.385 442.971 383.904C443.135 385.423 455.02 380.66 475.446 381.399C496.199 382.138 507.284 386.757 508.126 386.921C508.967 387.085 513.217 365.306 513.566 362.945C513.894 360.584 503.733 358.962 503.404 359.968C503.055 360.974 501.906 372.244 501.906 372.244C501.906 372.244 495.46 371.69 493.551 371.218C493.407 369.329 495.378 361.405 495.173 359.66C494.003 358.326 483.718 358.49 483.39 359.332C483.061 360.174 482.24 369.493 482.24 370.335C480.167 370.643 475.63 370.479 472.49 370.396C471.874 369.042 473.495 358.429 472.49 358.08C471.484 357.751 461.774 357.259 461.261 358.285C460.768 359.291 461.836 370.52 461.158 370.52C460.481 370.52 454.302 371.936 453.625 371.936C452.947 371.936 451.921 359.927 452.085 359.086C448.883 358.285 440.589 359.578 439.111 360.543Z" fill="#DAD8CC"/>
<path d="M549.754 318.441C549.508 319.734 551.212 345.27 552.977 345.702C554.743 346.153 586.088 340.303 617.824 340.836C653.583 341.432 677.929 345.702 679.264 345.702C680.598 345.702 685.463 319.754 683.677 318.441C681.912 317.127 671.135 314.417 670.95 315.321C670.765 316.244 669.657 328.848 668.938 328.848C668.199 328.848 659.249 328.664 658.161 328.294C657.073 327.925 658.531 312.406 657.607 312.221C656.683 312.036 643.34 311.667 642.437 311.851C641.534 312.036 642.437 326.652 641.534 326.837C640.63 327.021 628.56 325.728 628.006 325.913C627.452 326.098 628.56 310.558 626.918 310.558C625.276 310.558 614.129 311.277 613.021 311.277C611.933 311.277 613.021 326.447 611.748 326.447C610.475 326.447 597.687 327.001 596.578 326.262C595.49 325.523 596.208 312.016 595.49 311.461C594.772 310.907 579.417 311.646 578.493 312.2C577.59 312.755 579.212 326.816 578.308 327.001C577.405 327.186 566.074 328.274 565.335 328.274C564.596 328.274 565.15 314.191 563.138 314.376C561.147 314.582 550.062 316.798 549.754 318.441Z" fill="#DAD8CC"/>
<path d="M533.929 474.965C535.838 476.792 555.217 476.36 556.038 475.437C556.859 474.513 556.038 453.349 557.167 452.528C558.296 451.707 581.718 450.475 583.155 451.399C584.592 452.322 582.949 472.768 584.079 473.487C585.208 474.205 603.498 475.745 603.908 474.718C604.319 473.692 602.779 453.349 603.908 452.836C605.037 452.322 623.225 451.399 624.867 452.22C626.509 453.041 625.77 475.642 626.982 475.929C628.193 476.217 644.758 477.12 645.497 475.929C646.236 474.739 645.497 455.237 646.709 455.237C647.92 455.237 671.321 453.534 671.321 455.012C671.321 456.469 670.582 475.868 671.321 476.525C672.04 477.182 692.28 476.36 694.23 476.525C696.181 476.689 696.899 457.927 697.884 456.469C698.87 455.012 722.743 454.273 724.201 456.223C725.658 458.173 737.092 638.078 740.746 671.559C676.987 678.435 534.832 678.517 482.035 671.846C485.525 647.007 507.223 476.689 507.962 473.035C508.68 469.381 510.507 452.569 511.985 451.83C513.443 451.091 532.082 452.199 533.539 453.287C534.997 454.375 531.733 472.891 533.929 474.965Z" fill="#DAD8CC"/>
<path d="M519.478 576.597C519.478 574.114 519.724 546.278 525.78 540.51C531.856 534.721 540.026 538.847 540.026 552.087C540.026 565.307 537.645 577.706 537.645 577.706L519.478 576.597Z" fill="#FAFAFB"/>
<path d="M688.3 582.222C688.012 580.559 685.816 553.298 688.854 545.847C691.892 538.416 702.402 539.668 704.845 544.903C709.238 554.427 709.238 578.363 709.238 580.559C709.259 582.776 688.3 582.222 688.3 582.222Z" fill="#FAFAFB"/>
<path d="M558.769 618.474C557.969 630.544 555.731 663.307 555.033 677.409C580.857 677.737 661.449 677.737 661.88 677.758C662.434 659.221 660.73 620.773 660.73 607.533C660.73 581.586 651.945 552.662 611.402 550.876C565.769 548.864 559.898 600.902 558.769 618.474Z" fill="#814114"/>
<path fill-rule="evenodd" clip-rule="evenodd" d="M525.515 318.133C525.515 318.112 525.515 318.112 525.515 318.133C528.84 319.323 531.201 321.52 533.213 324.271C533.952 325.276 534.629 326.323 535.163 327.534C535.861 329.115 536.538 330.737 538.016 331.619C538.365 331.825 538.817 332.112 539.289 332.051C539.494 332.03 539.74 331.845 539.74 331.619C539.74 331.476 539.597 331.312 539.535 331.168C539.391 330.798 539.371 330.367 539.535 329.957C539.597 329.772 539.699 329.485 539.864 329.464C540.11 329.423 540.315 329.792 540.418 329.998C540.561 330.265 540.623 330.511 540.705 330.798C541.218 330.737 541.629 330.901 541.998 331.024C542.183 330.614 542.368 330.1 542.984 330.141C543.579 330.963 543.025 332.174 542.47 332.605C544.113 333.487 546.33 332.687 547.336 331.743C547.91 331.229 548.403 330.634 548.937 330.1C551.646 327.35 555.649 325.995 560.802 325.625C559.837 326.221 558.852 326.898 558.174 327.801C557.866 328.212 557.538 328.807 557.435 329.444C557.333 330.121 557.476 330.901 557.743 331.435C555.321 332.092 554.212 334.001 553.884 336.669C553.186 336.177 552.139 335.91 551.051 335.787C549.881 335.663 548.773 335.869 547.91 336.3C546.248 337.121 545.016 338.558 544.051 339.954C544.256 339.235 544.031 338.558 543.476 338.168C543.004 337.839 542.183 337.716 541.588 337.921C541.239 338.045 540.972 338.311 540.869 338.702C540.623 338.373 540.315 337.942 539.781 337.901C539.289 337.86 538.919 338.127 538.632 338.311C538.591 337.88 538.509 337.572 538.344 337.244C538.18 336.916 537.934 336.464 537.503 336.464C536.99 336.464 536.559 336.875 536.23 337.182C535.861 337.531 535.553 337.901 535.286 338.209C534.978 335.992 534.116 334.247 532.843 332.995C531.57 331.763 529.825 330.901 527.547 330.737C528.101 329.916 528.594 328.561 528.06 327.329C527.608 326.303 526.726 325.646 525.822 325.133C527.157 324.702 527.978 323.757 527.855 321.971C527.793 321.068 527.424 320.35 527.013 319.713C526.562 319.098 526.048 318.543 525.515 318.133Z" fill="#3C3C3B"/>
<path fill-rule="evenodd" clip-rule="evenodd" d="M724.269 118.102C725.112 117.651 726.358 119.188 727.925 118.938C729.779 117.517 728.06 114.024 726.51 113.355C727.268 108.307 724.084 107.188 720.024 106.92C718.137 100.886 712.072 96.6075 703.968 98.5296C700.093 89.621 692.629 84.2558 679.741 84.2725C676.641 76.5506 671.384 70.9514 662 69.4638C674.265 61.6918 700.733 61.1402 716.081 66.6726C719.266 72.1882 723.494 77.9379 728.751 82.6011C734.934 88.0666 741.302 94.4013 752.405 94.6186C753.231 89.9386 755.674 86.8632 759.734 85.3924C759.111 89.0862 761.132 90.1559 763.12 91.259C765.176 90.7074 767.315 89.9553 768.748 91.5431C770.786 90.5069 772.488 89.1029 772.976 86.5122C775.065 87.2309 775.925 90.3565 775.234 92.9471C785.309 88.9692 792.132 81.7654 797.49 73.1075C813.832 70.6004 824.682 78.0883 831 87.3479C823.705 87.1808 819.796 90.3899 818.044 95.7217C815.23 94.301 811.389 92.2953 807.615 93.482C805.307 94.2007 804.92 96.1061 803.117 97.1089C796.681 93.4653 789.403 98.4795 786.505 102.691C774.459 97.7942 771.258 108.508 764.536 114.141C761.756 116.481 759.06 117.834 755.236 119.172C756.92 121.194 756.112 126.459 751.293 125.874C751.613 124.804 752.995 124.771 752.978 123.35C751.31 120.709 747.604 121.428 744.807 123.066C743.24 123.985 742.398 126.141 740.578 126.693C736.366 127.98 733.182 125.122 732.407 119.991C730.453 121.98 725.213 121.595 724.269 118.102Z" fill="#3C3C3B"/>
</svg>
