<svg width="201" height="191" viewBox="0 0 201 191" fill="none" xmlns="http://www.w3.org/2000/svg">
<path fill-rule="evenodd" clip-rule="evenodd" d="M109.801 145.861C109.801 145.861 109.158 144.446 101.404 145.861C72.3163 151.135 50.1744 137.207 53.3349 136.71C70.6993 133.954 84.5909 130.077 82.4961 128.754C80.4013 127.449 53.1696 124.987 58.3146 124.289C65.2971 123.352 85.234 114.513 82.9555 113.87C80.5116 113.19 57.2488 112.327 61.7874 110.508C78.3985 103.782 84.94 96.8549 82.882 97.5532C80.8056 98.2698 64.066 100.309 67.153 98.0494C77.3879 90.5707 85.969 76.4403 85.969 76.4403C85.969 76.4403 76.1567 79.4538 72.6287 80.2806C69.1191 81.1075 71.1771 79.1782 77.8289 73.2981C84.1315 67.7121 89.5522 59.572 89.5522 59.572C89.5522 59.572 87.6044 59.3147 82.3124 59.572C77.0204 59.8292 77.5716 60.4907 82.3124 54.868C87.0532 49.2452 99.346 37.0074 96.847 36.0151C94.348 35.0229 81.7979 42.9241 84.1682 40.2965C90.7465 33.0016 106.733 3.36265 107.449 5.34715C108.166 7.33166 115.259 26.1845 120.128 32.7811C124.998 39.3961 134.589 45.0189 129.977 44.6882C125.365 44.3574 117.133 40.2965 117.133 40.2965C117.133 40.2965 121.433 52.6262 124.648 55.603C127.864 58.5797 131.447 61.8872 126.798 61.5565C122.15 61.2257 113.899 57.2567 116.049 60.2335C118.199 63.2102 134.167 75.1908 131.19 75.6502C128.213 76.1095 117.831 73.2981 117.831 73.2981C117.831 73.2981 127.056 86.6936 129.959 88.6781C132.862 90.6626 136.445 92.4817 133.211 93.0513C129.996 93.6393 120.11 91.177 120.11 91.177C120.11 91.177 127.662 104.554 137.86 110.783C139.11 111.537 129.261 111.72 124.612 110.783C119.963 109.846 118.162 108.744 118.53 110.783C118.897 112.823 136.078 120.449 142.877 124.767C147.562 127.743 121.745 123.977 120.11 124.767C118.309 125.63 135.049 138.383 149.933 139.926C154.379 140.385 142.16 143.858 133.211 145.861C124.226 147.864 109.801 145.861 109.801 145.861Z" fill="#219959"/>
<path d="M96.5176 134.377C96.389 126.696 97.0689 111.628 97.0689 111.628L85.7314 100.291L87.2198 98.4168C87.2198 98.4168 88.4142 98.6924 91.4645 101.063C94.478 103.396 98.3368 105.748 98.3368 105.748C98.3368 105.748 98.5389 92.5919 98.7777 89.5784C99.2004 83.9372 97.2894 82.2284 97.2894 82.2284C97.2894 82.2284 95.5805 80.9605 93.1917 79.2149C90.803 77.4692 88.8736 75.8706 88.8736 75.8706L90.7479 73.7942C90.7479 73.7942 93.4122 75.0621 95.4702 76.4402C97.3261 77.6714 99.2187 76.624 99.2187 76.624C99.2187 76.624 99.2555 75.0254 99.4209 70.1376C99.5679 65.6357 100.266 59.9762 99.5311 57.5323C98.7778 55.0884 94.0186 47.6649 94.0186 47.6649L95.2865 45.3313C95.2865 45.3313 96.4808 46.1398 97.6017 47.7935C98.7226 49.4473 101.993 53.6552 101.993 53.6552C101.993 53.6552 103.39 50.4395 105.062 47.2422C107.12 43.3283 106.036 42.7771 108.241 43.3651C110.63 44.0082 109.931 44.3574 108.811 47.5179C107.543 51.0643 107.065 52.4424 106.165 54.4085C105.466 55.9704 105.962 78.4982 105.962 78.4982C105.962 78.4982 105.779 93.2534 106.385 93.4739C109.068 94.4661 116.546 92.7022 116.546 92.7022L116.473 94.9255L106.073 98.3065L105.834 123.517C105.834 123.517 109.362 123.388 111.291 122.47C113.221 121.551 113.551 121.863 113.551 121.863L114.323 123.866C114.323 123.866 112.136 125.704 110.225 126.126C108.866 126.439 106.826 126.972 105.797 127.247L107.065 177.246L95.7091 176.823C95.7275 176.805 96.6462 141.8 96.5176 134.377Z" fill="#814114"/>
<path fill-rule="evenodd" clip-rule="evenodd" d="M29.8339 152.054C25.0748 152.054 7.47142 145.494 2.38153 131.584C-2.70836 117.674 1.4444 87.4653 4.78866 74.7497C8.13292 62.0342 29.6869 0 29.6869 0C29.6869 0 36.3386 14.2039 41.9247 23.8508C47.5107 33.4794 64.2136 72.0119 67.4293 86.473C70.6449 100.934 70.7551 126.843 62.4128 137.997C51.9207 152.054 43.7438 149.371 29.8339 152.054Z" fill="#1B8A4F"/>
<path fill-rule="evenodd" clip-rule="evenodd" d="M31.1581 186.323C31.1581 186.323 31.397 168.518 31.397 161.186C31.397 153.873 32.6281 139.467 31.1581 138.419C29.6881 137.372 26.693 136.637 23.1466 135.149C19.6002 133.679 15.4107 133.054 12.4523 132.797C9.49391 132.558 9.07129 132.503 9.07129 132.503L9.75119 129.324C9.75119 129.324 10.2473 129.177 12.7096 129.324C15.1718 129.471 15.9068 129.618 17.1379 129.746C19.4532 129.967 20.9048 131.069 20.8497 129.728C20.7946 128.386 20.3536 122.984 21.5847 123.517C22.8158 124.068 23.5692 124.27 23.5692 124.27C23.5692 124.27 24.3042 126.42 24.4512 128.203C24.6534 130.389 24.5431 131.032 24.5431 131.032C24.5431 131.032 27.4463 132.025 29.1552 132.374C30.6436 132.668 31.1581 132.447 31.1765 129.324C31.2132 125.042 32.1688 114.219 31.4338 111.463C30.6988 108.707 29.1552 107.365 26.9135 106.557C25.4435 106.024 21.9338 105.289 19.4165 104.095C16.8991 102.9 15.1718 102.864 15.1718 102.864L15.4107 100.475C15.4107 100.475 18.902 101.081 20.078 101.485C21.254 101.908 25.3884 103.249 25.3884 103.249C25.3884 103.249 23.2936 98.1963 23.2936 97.5164C23.2936 96.8365 23.0363 93.8965 23.0363 93.8965H24.929L25.4986 97.0203H29.192L29.927 98.1411L26.9686 99.4274L28.6407 103.286L31.8931 104.609C31.8931 104.609 31.397 91.618 30.9009 87.4101L30.4048 83.2022C30.4048 83.2022 27.2075 81.4749 25.4802 80.7399C23.7529 80.0049 19.3797 78.7738 19.3797 78.7738L19.4348 76.4586L25.3332 78.2961C25.3332 78.2961 24.488 77.3773 23.753 75.9992C23.018 74.6027 23.6243 74.6394 23.6243 74.6394L25.3332 74.0882L30.1475 80.1703C30.1475 80.1703 29.8903 62.8059 29.6514 61.1889C29.4125 59.5719 23.2568 54.8862 23.2568 54.8862L24.1756 53.5816L25.4802 54.1328C28.1813 55.6212 29.9086 57.4036 30.6436 57.7344C31.3786 58.0651 37.2035 46.0111 38.4714 45.2761L39.7577 44.5411C42.2199 45.7722 41.7238 47.279 41.7238 47.279C41.7238 47.279 39.9046 48.9695 38.4714 51.1745C37.0381 53.3795 36.5052 54.2064 36.5052 54.2064L40.4927 57.7344L39.7577 58.8736C39.7577 58.8736 36.4502 55.658 35.513 55.8601C34.8331 56.0071 34.337 61.1705 34.337 61.1705C34.337 61.1705 36.542 73.1694 36.542 76.4586C36.542 79.7477 37.4424 83.68 38.4714 84.5436C39.5004 85.4072 40.7315 84.5436 40.7315 84.5436L39.2248 80.1703H41.7605L43.9472 84.5436C43.9472 84.5436 50.3417 81.4749 51.8117 80.7399C53.3001 80.0049 55.505 83.5513 55.505 83.5513C55.505 83.5513 54.5128 83.9372 52.5467 84.5436C50.5806 85.1683 45.6561 86.4546 43.4327 87.4101C41.2277 88.3656 38.4714 90.1112 38.4714 91.1218C38.4714 92.8858 39.5372 107.715 39.8128 111.647C40.0884 115.579 39.923 123.517 39.923 123.517C39.923 123.517 43.3224 121.239 45.9684 119.566C48.6144 117.894 52.5467 115.561 52.5467 115.561L53.539 117.178L49.6067 120.853C49.6067 120.853 50.3417 122.617 51.0767 123.223L51.8117 123.811L50.3417 125.557C50.3417 125.557 48.6512 124.105 48.008 123.223L47.3833 122.341L40.2354 129.324L42.4404 186.286H31.1581V186.323Z" fill="#814114"/>
<path fill-rule="evenodd" clip-rule="evenodd" d="M143.832 157.548C143.832 157.548 144.475 156.188 152.23 157.548C181.317 162.656 203.459 149.169 200.299 148.691C182.916 146.008 169.043 142.278 171.138 140.992C173.232 139.724 200.464 137.335 195.319 136.655C188.337 135.737 168.4 127.192 170.678 126.567C173.122 125.906 196.385 125.079 191.846 123.315C175.235 116.81 168.694 110.085 170.752 110.783C172.828 111.482 189.568 113.448 186.481 111.261C176.246 104.04 167.665 90.3502 167.665 90.3502C167.665 90.3502 177.477 93.2719 181.005 94.0804C184.515 94.8889 182.457 93.0146 175.805 87.3184C169.502 81.9161 164.082 74.0332 164.082 74.0332C164.082 74.0332 166.029 73.7759 171.321 74.0332C176.613 74.2904 176.062 74.9152 171.321 69.4761C166.581 64.0371 154.288 52.1852 156.805 51.2297C159.304 50.2742 171.854 57.8999 169.484 55.3825C162.906 48.3265 146.938 19.643 146.203 21.554C145.486 23.4834 138.393 41.7114 133.524 48.1243C128.654 54.5189 119.063 59.9762 123.675 59.6455C128.287 59.3331 136.519 55.3825 136.519 55.3825C136.519 55.3825 132.219 67.3263 129.004 70.1928C125.788 73.0777 122.205 76.275 126.854 75.9442C131.503 75.6318 139.753 71.7914 137.603 74.6579C135.453 77.5428 119.485 89.1375 122.462 89.5785C125.439 90.0195 135.821 87.3 135.821 87.3C135.821 87.3 126.596 100.273 123.693 102.184C120.79 104.113 117.207 105.859 120.422 106.428C123.638 106.98 133.524 104.609 133.524 104.609C133.524 104.609 125.972 117.545 115.755 123.572C114.524 124.307 124.355 124.491 129.004 123.572C133.671 122.654 135.453 121.606 135.086 123.572C134.737 125.538 117.538 132.925 110.739 137.096C106.053 139.981 131.852 136.343 133.505 137.096C135.306 137.923 118.567 150.29 103.683 151.778C99.236 152.219 111.455 155.582 120.404 157.529C129.389 159.496 143.832 157.548 143.832 157.548Z" fill="#1B8A4F"/>
<path d="M157.118 146.431C157.247 138.989 156.567 124.418 156.567 124.418L167.904 113.429L166.416 111.61C166.416 111.61 165.222 111.867 162.171 114.183C159.158 116.443 155.299 118.721 155.299 118.721C155.299 118.721 155.079 105.987 154.858 103.066C154.435 97.6083 156.365 95.9362 156.365 95.9362C156.365 95.9362 158.074 94.705 160.462 93.0145C162.851 91.3424 164.781 89.7806 164.781 89.7806L162.888 87.7777C162.888 87.7777 160.224 89.0088 158.166 90.3318C156.31 91.5262 154.417 90.5156 154.417 90.5156C154.417 90.5156 154.38 88.972 154.215 84.2313C154.049 79.8764 153.37 74.3823 154.105 72.0303C154.858 69.6782 159.599 62.4936 159.599 62.4936L158.331 60.2151C158.331 60.2151 157.137 60.9868 156.016 62.6038C154.895 64.2025 151.624 68.2817 151.624 68.2817C151.624 68.2817 150.228 65.1763 148.555 62.0709C146.497 58.2857 147.6 57.7528 145.395 58.3041C143.006 58.9105 143.704 59.278 144.825 62.3282C146.093 65.746 146.571 67.0874 147.471 68.9984C148.188 70.5051 147.673 92.3163 147.673 92.3163C147.673 92.3163 147.857 106.594 147.251 106.814C144.568 107.77 137.089 106.061 137.089 106.061L137.163 108.211L147.563 111.5L147.802 135.902C147.802 135.902 144.274 135.773 142.345 134.891C140.415 134.009 140.084 134.303 140.084 134.303L139.313 136.233C139.313 136.233 141.499 137.997 143.41 138.419C144.789 138.713 146.81 139.228 147.839 139.503L146.571 187.903L157.927 187.499C157.908 187.499 156.99 153.616 157.118 146.431Z" fill="#A85318"/>
<path d="M85.7859 52.9019C79.7221 52.6997 67.6313 54.7394 57.9109 61.5382C46.4265 69.5497 43.266 74.8049 40.326 88.3657C37.386 101.927 41.5571 112.455 47.7311 121.68C53.9051 130.904 57.9109 140.477 86.135 145.053C102.103 147.644 128.012 137.519 132.734 116.48C137.438 95.4401 131.834 80.7769 126.468 75.3195C121.103 69.8621 112.411 53.8206 85.7859 52.9019Z" fill="#2FAC66"/>
<path d="M51.2588 92.9043L58.4986 96.9469C58.4986 96.9469 62.1002 97.6451 63.9928 97.9759C65.7384 98.2882 70.0565 99.1886 70.0565 99.1886L71.5633 91.2138H73.2355C73.2355 91.2138 72.2432 99.3172 73.2355 99.9236C74.044 100.401 79.3176 102.074 82.5883 102.882C83.3417 95.4952 84.1686 87.3183 84.1686 86.3628C84.1686 85.4257 81.5777 83.7719 79.5014 82.8716C77.425 81.9712 72.7944 80.7584 70.9569 80.1888C69.101 79.6192 68.1823 79.2517 68.1823 79.2517C68.1823 79.2517 70.2587 75.9074 71.6552 76.6057C73.0517 77.3039 79.0603 80.1888 79.0603 80.1888L81.1 76.0728H83.4703L82.0555 80.1888C82.0555 80.1888 83.2131 80.9973 84.187 80.1888C85.1609 79.3803 85.9877 75.6869 85.9877 72.5999C85.9877 69.5129 85.951 68.1348 85.951 68.1348C85.0873 67.951 81.5226 69.6599 81.5226 69.6599L80.8244 68.5758L85.1241 65.8746C85.1241 65.8746 84.0583 64.4965 82.7353 62.4201C81.3939 60.3437 81.4675 60.4356 83.7827 59.278C83.7827 59.278 85.2711 61.5381 86.4287 63.3572C87.1637 64.5333 89.332 68.4655 90.0854 68.5942C90.8571 68.7228 91.1327 68.5574 93.1723 67.8408L95.1202 67.3446L95.8919 69.0351C95.8919 69.0351 91.2246 70.2847 91.0041 71.8098C90.7652 73.3349 90.5447 85.0215 90.5447 85.0215L95.065 79.3068L96.6637 79.8213C96.6637 79.8213 97.2517 79.8029 96.5534 81.1076C95.8552 82.4122 95.065 83.2758 95.065 83.2758L100.614 81.5485L100.669 83.7168C100.669 83.7168 96.5718 84.856 94.9364 85.5543C93.3194 86.2525 90.3058 87.8696 90.3058 87.8696L89.8465 91.8386C89.3871 95.8076 88.9277 107.99 88.9277 107.99L94.7526 105.822L96.3145 102.202L93.5399 100.989L94.2381 99.942H97.711L100.522 95.7892L102.305 96.6712C102.305 96.6712 99.7874 99.7766 99.7874 100.42C99.7874 101.044 97.8029 105.785 97.8029 105.785C97.8029 105.785 101.698 104.517 102.801 104.132C103.903 103.746 117.372 100.659 117.372 100.659L117.611 103.819C117.611 103.819 109.03 106.833 106.678 107.972C106.568 108.027 106.458 108.082 106.347 108.119C106.531 108.247 106.733 108.394 106.935 108.578C108.975 110.361 111.952 111.353 111.952 111.353L110.849 114.128C110.849 114.128 105.484 110.783 103.058 109.277C101.662 109.681 97.1414 111.408 96.4064 111.665C94.3116 112.419 90.0853 114.146 89.3871 116.737C88.6888 119.328 89.5892 127.174 89.626 131.198C89.6443 134.12 90.1221 134.34 91.537 134.064C93.1356 133.752 95.8551 132.815 95.8551 132.815C95.8551 132.815 95.7632 132.209 95.947 130.151C96.094 128.478 96.7739 126.457 96.7739 126.457L98.6297 125.741C98.9237 126.751 98.9973 128.883 98.9421 130.151C98.887 131.418 102.029 130.72 103.444 129.93C104.455 129.379 106.825 128.056 110.169 126.88C112.356 126.108 115.351 125.318 115.351 125.318L116.49 128.001C116.49 128.001 111.86 129.691 108.681 131.474C108.369 131.657 108.038 131.823 107.689 131.988L111.768 132.907L110.721 134.726C110.482 134.634 109.398 134.616 108.166 134.193C106.752 133.715 105.373 133.587 104.638 133.403C101.956 134.616 99.769 135.424 97.1414 136.637C93.8706 138.144 91.0041 138.713 89.6076 139.706C88.2111 140.698 89.3688 169.216 89.3688 176.088C89.3688 182.961 89.6076 190.274 89.6076 190.274H78.9685L81.0449 131.18L72.5004 123.701L71.9124 124.528C71.3244 125.355 69.7258 126.733 69.7258 126.733L68.3293 125.097L69.0275 124.546C69.7258 123.995 70.4241 122.323 70.4241 122.323L66.7307 118.868L67.6494 117.343C67.6494 117.343 71.3428 119.548 73.8234 121.11C73.9153 121.165 74.0072 121.22 74.0991 121.275V114.017C74.0991 114.017 73.6213 112.455 74.0991 112.253C74.5768 112.051 75.4772 112.253 75.4772 112.253C75.4772 112.253 75.7895 113.705 76.0652 115.34C76.2673 116.608 76.8002 121.073 77.0207 123.076C79.189 124.418 81.3389 125.722 81.3389 125.722C81.3389 125.722 81.1919 118.28 81.4491 114.569C81.5226 113.65 81.7247 111.5 81.9819 108.78C77.9211 107.531 71.5633 105.069 67.925 104.113C63.2578 102.864 62.2472 101.743 60.7588 102.478C59.2704 103.213 59.4174 109.681 58.9397 110.416L56.9551 109.699V105.326H52.7105L52.049 103.874L56.9551 103.158V98.8028C56.9551 98.8028 50.3953 95.3482 50.2666 94.5397C50.138 93.6945 51.2588 92.9043 51.2588 92.9043Z" fill="#A85318"/>
</svg>
