<svg width="420" height="331" viewBox="0 0 420 331" fill="none" xmlns="http://www.w3.org/2000/svg">
<path d="M140.422 313.972C138.855 314.022 141.257 314.389 139.398 314.111C139.601 313.946 139.917 313.82 140.422 313.972Z" fill="black" fill-opacity="0.26"/>
<path d="M168.579 323.807C166.19 325.058 163.193 324.211 160.374 325.349L159.338 325.779C159.591 326.146 160.02 326.07 160.362 326.234L162.511 326.841C163.965 327.068 165.393 327.334 166.784 327.283C167.428 327.309 166.543 327.903 168.01 327.903C173.395 327.625 181.701 328.231 188.262 328.548L187.87 328.75C189.121 328.838 190.588 328.143 191.903 328.118C191.915 328.231 191.498 328.32 191.814 328.459C192.118 328.08 194.166 328.118 194.709 327.814C195.24 327.915 195.215 328.194 195.897 328.295L196.605 327.814C198.59 326.664 201.662 327.359 204.418 326.474C204.291 326.588 204.026 326.702 204.254 326.765C208.691 325.551 214.342 324.717 219.209 323.2C219.057 323.39 218.943 323.706 219.272 323.782C219.411 323.289 220.89 322.758 222.167 322.303C222.9 322.543 224.24 321.165 225.77 320.811L225.681 320.963C226.49 320.659 227.4 319.041 227.868 320.95L227.236 320.444C226.604 320.95 225.668 319.736 224.619 319.939L224.632 320.065C223.709 320.103 223.279 319.673 222.42 319.724L222.344 319.648C220.346 319.623 219.209 319.193 219.234 319.698C218.564 319.243 221.181 319.648 220.119 319.003C213.507 319.066 206.731 319.054 200.082 319.231C199.323 319.054 198.843 319.016 198.666 318.839C198.009 318.965 196.163 319.003 195.569 319.281C195.796 319.256 195.126 319.041 194.772 319.041C193.559 318.902 193.47 319.635 192.143 319.458C192.661 319.306 192.838 319.142 192.649 318.965C191.536 319.382 190.019 319.395 188.692 319.585C188.894 319.496 189.21 319.433 189.159 319.281C187.718 319.774 186.492 319.307 185.215 319.635L185.683 319.332C183.61 319.079 185.101 319.951 183.306 319.825C183.736 319.711 183.572 319.61 183.648 319.496C182.004 320.09 179.312 320.04 177.655 320.293C177.757 320.255 177.719 320.179 177.719 320.179C175.911 320.318 174.015 320.242 172.017 320.507C171.284 320.381 172.232 319.85 170.323 319.939C170.387 320.495 167.074 320.153 168.2 320.798C166.569 320.697 163.977 320.495 162.89 320.697C163.623 320.482 162.094 320.014 163.446 319.951L162.41 319.61C162.561 319.382 163.472 319.686 163.143 319.395C162.46 319.42 160.475 319.673 159.869 319.585C158.605 319.951 157.467 320.621 155.419 320.735C156.38 320.495 154.863 320.128 155.507 320.014L152.688 321.19C152.006 321.241 152.524 320.748 151.551 320.925C151.601 321.076 151.184 321.177 150.893 321.317C150.64 321.266 148.087 321.569 147.758 321.038C147.442 320.836 148.858 320.861 148.099 320.697C146.848 320.773 146.797 320.963 145.546 321.051L145.52 320.975C144.686 320.925 143.106 321.392 144.029 321.62C144.598 321.595 143.789 321.304 144.648 321.405C144.092 321.772 142.651 321.961 141.412 322.075C141.829 321.936 141.766 321.797 141.918 321.633C140.287 322.227 138.555 322.543 136.798 323.01C136.81 323.276 137.392 322.442 137.683 322.53C136.57 322.505 135.154 322.897 134.598 323.301C134.408 323.706 135.078 321.734 134.636 322.201C135.066 322.366 135.445 322.581 135.774 322.884C135.508 322.808 135.774 322.467 135.761 322.543C136.684 322.846 136.57 323.2 137.265 323.213C137.291 323.44 138.188 323.289 138.947 323.327C139.351 323.225 139.124 323.466 138.479 323.39C139.528 323.402 143.839 323.478 146.317 323.971C146.279 323.82 147.884 323.541 148.453 323.592L148.2 323.921C148.706 324.174 150.122 324.022 150.198 324.325C151.449 323.997 145.445 324.376 147.126 324.148C147.543 324.477 149.477 323.756 149.085 324.211C150.236 324.262 151.386 323.946 152.461 324.338C152.145 324.262 151.5 324.768 152.435 324.793C154.079 324.831 152.916 324.654 154.256 324.603L155.103 324.502C155.179 324.161 156.569 324.629 155.975 324.211C156.165 324.502 158.377 324.161 158.175 324.717L157.922 325.147C158.642 325.147 159.11 324.73 159.679 324.565C159.768 324.616 159.957 324.704 159.919 324.78C160.058 324.11 161.613 324.919 162.486 324.426C163.965 324.73 166.278 324.603 166.961 325.058C168.124 324.894 169.173 324.692 170.475 324.881C170.21 324.932 169.856 324.945 169.78 325.084C170.589 325.311 170.804 325.147 171.562 325.058C171.385 325.16 173.193 325.514 174.103 325.792C175.254 325.627 174.874 325.248 174.988 325.033C176.012 325.741 178.224 324.717 179.514 325.362C179.109 325.438 177.832 325.64 178.781 325.842C179.805 326.55 180.904 325.412 182.573 325.792L182.181 325.223C182.914 325.589 184.672 324.983 184.482 325.539C185.051 325.362 186.467 325.792 186.29 325.235C189.033 325.779 193.028 325.185 194.696 326.221C195.101 326.146 196.074 326.272 195.885 325.981C195.253 325.665 194.962 326.171 194.722 325.956C195.076 325.956 195.164 325.804 195.202 325.728C196.049 325.88 196.719 325.931 195.897 326.361C197.794 326.752 197.895 325.488 200.322 325.779C200.208 326.007 200.385 326.095 201.106 326.07L202.458 325.728C204.026 325.842 203.343 326.247 203.369 326.639C204.216 326.588 205.24 326.613 205.619 326.335L206.63 326.828C205.884 326.474 207.325 326.613 207.717 326.525L207.325 326.613C207.477 326.778 208.451 326.689 208.944 326.651C208.83 326.411 207.831 326.31 207.3 326.221C207.73 326.057 208.4 326.108 208.969 325.918C208.779 326.297 210.334 326.196 211.004 326.234C211.763 326.31 211.864 325.893 212.091 325.905C212.117 326.095 213.343 325.943 212.749 326.209C212.483 326.272 212.155 326.019 211.725 326.196C212.23 326.335 212.167 326.677 213.216 326.424C214 326.234 213.014 325.69 214.506 325.918C214.114 326.007 214.038 326.158 213.735 326.297L215.138 326.487L215.201 326.146C215.391 326.234 215.264 326.259 215.34 326.31C215.757 325.943 217.477 326.196 217.793 325.792C218.501 325.741 219.284 325.994 219.954 326.019L219.828 326.057C220.65 326.247 221.75 326.082 222.432 325.842L222.394 325.918C222.849 325.943 223.911 325.868 224.468 325.653C225.605 325.88 224.885 326.942 226.136 326.462C227.287 326.398 227.919 325.766 227.451 325.564C229.524 325.703 231.85 325.071 233.784 325.488C234.075 325.324 233.886 325.261 234.492 325.134C237.526 325.033 240.838 324.325 243.291 324.679C242.431 324.919 243.266 325.02 243.304 325.21C243.999 324.831 244.201 325.425 244.403 324.881C244.302 324.578 244.353 324.426 243.493 324.401C245.263 324.022 247.994 323.794 249.005 323.87C248.499 323.807 248.866 323.655 249.233 323.504C249.169 324.009 250.497 323.87 251.457 323.541L251.546 323.225L252.241 323.428C252.608 323.276 252.545 322.745 253.569 322.871C253.644 322.973 253.72 323.086 253.923 323.137C254.416 322.947 254.959 322.644 255.503 322.416C255.617 322.72 257.45 320.748 255.503 323.352C256.957 327.675 256.792 324.78 256.565 325.374C256.211 325.349 255.452 325.514 256.147 325.741C254.529 325.248 253.177 325.185 252.633 324.755C249.296 325.501 244.454 325.45 240.56 325.337L240.687 325.122C239.638 324.894 240.131 325.501 239.41 325.337C239.751 325.134 238.614 324.869 239.448 324.616C237.956 324.363 237.514 324.983 236.54 325.071C236.389 325.362 237.324 324.894 237.134 325.261C236.97 325.362 235.061 325.008 234.821 325.45C234.442 325.273 234.745 324.945 234.947 324.768L234.025 324.97C232.912 324.439 236.591 324.072 235.415 323.415L234.568 323.478C233.759 322.998 236.806 322.973 234.695 322.796C233.772 323.011 232.975 323.643 233.797 323.845C231.876 323.946 232.9 324.894 230.839 324.831C230.283 324.565 232.482 324.78 232.09 324.414C231.117 324.047 230.144 324.591 229.271 324.452C230.232 324.629 229.41 325.071 228.791 325.147C227.742 324.919 229.474 324.73 227.995 324.667C227.742 324.919 226.376 325.096 227.552 325.286C227.008 325.867 226.01 325.109 225.188 325.539C224.708 325.122 226.73 324.616 225.1 324.388C225.352 324.78 223.077 324.894 223.937 325.488C223.292 325.362 223.241 325.058 223.709 324.818C222.799 324.553 221.471 325.501 221.193 324.704L220.865 325.096C220.574 324.957 220.169 324.856 219.714 324.629C218.905 324.603 217.097 325.109 217.186 324.502C216.92 324.553 215.075 324.464 215.783 324.919C216.92 325.21 217.11 324.654 217.742 325.235C216.946 324.755 216.086 325.248 215.416 325.387L215.315 325.147C214.91 325.235 214 325.134 213.747 325.387C214.063 325.261 213.912 325.096 213.596 325.033L213.166 325.374C211.535 325.476 212.812 324.73 211.232 324.755L212.445 324.54C212.18 324.591 211.662 324.237 210.903 324.3C210.587 324.603 210.018 324.97 209.74 325.21C208.83 325.299 209.361 324.818 208.451 325.084L209.639 324.78C209.841 324.692 208.855 324.186 207.743 324.11C206.984 324.161 205.758 324.54 206.946 324.806C206.352 324.768 205.53 324.502 206.023 324.3C204.658 324.3 206.175 324.667 204.987 324.768C204.532 324.502 203.091 324.047 202.244 323.655L203.495 323.225L202.699 323.15C203.773 322.808 202.206 322.758 202.838 322.366C202.307 322.239 201.624 322.34 201.093 322.391C202.597 323.301 199.21 323.2 199.601 323.921C197.402 323.87 198.426 322.151 196.036 322.935C196.39 323.15 195.265 323.541 196.656 323.504C195.316 323.276 195.657 324.072 194.102 323.605C195.316 323.466 192.914 322.783 194.659 322.581C194.519 322.796 195.594 322.859 195.859 322.833C195.329 322.505 196.049 322.176 194.671 322.012C193.824 321.987 192.661 321.86 192.788 322.227C192.775 322.619 194.077 322.341 193.495 322.657C191.802 322.593 191.587 321.974 190.815 322.568C191.877 322.644 192.105 323.074 192.054 323.327L190.803 323.339L191.068 323.112C189.121 322.694 190.436 323.504 188.527 323.213L187.693 322.606C188.199 322.227 190.449 323.137 190.196 322.391C188.957 322.214 188.502 322.53 187.352 322.201L188.249 322.164C187.807 322.088 187.478 321.089 185.645 321.43C184.71 321.531 185.38 321.658 185.316 321.911C183.306 321.746 182.687 321.949 181.397 321.835C181.726 321.354 179.135 321.506 180.614 321.152C181.233 321.531 184.115 321.86 184.887 321.456C184.229 320.76 186.441 321.734 186.947 321.165C185.354 320.963 185.506 320.368 185.291 319.939C184.849 319.85 184.406 319.976 184.128 320.002C183.9 320.343 184.482 320.419 184.469 320.798C182.7 320.482 180.955 320.482 179.931 320.722C179.362 320.47 179.59 320.116 180.298 320.166C178.161 320.014 175.898 319.686 173.901 319.332C175.127 320.09 171.638 319.205 172.46 319.812C173.522 320.078 174.394 320.621 173.775 320.824C173.104 320.71 173.825 320.558 173.56 320.394C172.662 320.621 172.295 319.698 171.385 320.128C173.345 320.166 171.853 319.433 172.27 319.003C170.842 319.104 172.371 318.674 170.981 318.51C169.552 318.611 167.82 318.611 166.265 318.535C164.369 317.853 161.335 317.954 159.603 317.777C158.718 317.435 159.388 316.968 158.415 316.766C157.252 316.652 159.211 317.436 157.517 317.006L157.694 316.917C157.163 316.98 154.585 316.222 154.003 316.93L154.597 316.399C154.281 316.31 153.978 316.412 153.7 316.449C153.7 316.26 153.346 316.045 153.889 315.969C152.865 315.463 151.652 315.817 150.501 315.729L151.209 316.146C149.212 316.222 147.922 315.779 146.013 315.742L146.102 315.413L144.952 315.539C145.255 315.236 144.218 314.958 143.599 315.185L146.62 314.566C147.429 314.831 145.685 314.895 146.178 315.274C146.595 315.602 148.365 315.653 148.681 315.362C148.011 315.274 147.973 315.337 147.429 315.413C147.252 314.92 148.276 315.034 148.807 314.756C148.453 314.743 147.96 314.566 147.872 314.705C148.592 314.541 149.3 314.553 150.463 314.654C149.667 314.768 150.868 314.983 150.552 315.097C150.678 314.692 151.803 314.667 153.232 314.932C154.205 315.501 155.95 314.907 157.606 315.211C156.885 315.552 155.988 315.805 154.964 315.868C155.988 316.184 156.127 315.982 157.151 316.298C157.694 316.045 158.099 315.602 159.477 315.565L159.515 315.881C160.766 315.868 160.817 315.4 162.372 315.666C165.039 316.121 167.795 316.45 169.843 316.728L169.881 317.044C171.094 316.525 173.699 317.259 175.266 317.157C177.833 317.777 180.968 317.562 182.232 318.245C186.859 318.573 190.904 318.826 195.657 319.496L194.798 319.85C195.695 319.623 195.329 320.179 196.163 320.204C195.24 319.736 197.376 319.875 197.996 319.673C200.069 320.255 202.838 320.166 204.734 320.027L204.772 320.343C206.693 319.926 208.931 320.646 211.282 320.861C211.548 321 211.965 321.317 212.66 321.317C213.962 320.874 214.632 320.937 216.529 320.684C217.907 320.735 220.144 320.899 221.547 321.127C226.756 320.52 232.065 321.013 237.501 320.647L237.88 321.013C243.165 320.305 249.586 321.064 254.213 320.975L253.733 321.569C255.124 321.822 257.108 321.734 256.805 321.253C257.285 321.418 257.475 321.304 258.663 321.822C259.005 322.366 259.333 321.367 259.991 323.971C259.434 326.323 259.346 325.248 258.891 325.981C258.107 326.487 258.17 326.348 257.753 326.55C256.742 326.904 255.996 327.043 255.477 326.891C253.986 327.056 253.758 327.473 252.545 327.764C249.599 328.004 248.537 328.269 245.807 328.649L246.489 328.611C246.767 328.446 246.767 328.181 246.085 328.206C245.086 328.497 242.305 328.446 243.405 329.078C240.434 329.015 236.603 329.963 233.709 329.622C233.961 329.812 233.241 329.888 232.95 330.039C230.384 330.153 227.666 329.862 225.631 330.292C225.226 330.204 226.263 329.925 225.226 329.938C224.607 330.027 225.226 330.204 224.468 330.33C220.321 330.81 216.048 330.102 212.281 330.178C205.581 330.57 198.565 330.191 192.181 330.014L192.257 329.875C190.095 330.368 187.263 329.116 185.531 329.926C185.026 329.761 183.61 329.799 183.989 329.521C182.27 329.862 179.236 328.99 176.745 329.407C176.973 329.432 177.099 329.407 177.365 329.344C174.887 328.927 172.675 329.306 170.058 328.902C170.323 328.851 170.816 328.826 170.905 328.674C169.906 328.345 168.478 329.205 167.947 328.472C167.365 328.459 167.517 328.813 167.871 328.813C162.132 328.307 155.962 328.497 149.945 328.295C145.66 327.587 149.768 327.081 146.329 327.372C146.064 327.208 146.115 327.637 146.077 327.486C144.749 327.599 144.092 326.525 143.144 326.816C143.485 327.296 142.512 327.005 142.461 327.271C139.819 326.714 139.377 326.285 137.177 326.272L137.379 326.07C136.102 326.247 134.484 325.88 133.005 325.223C132.55 325.071 131.526 323.984 131.311 323.187C131.084 321.67 132.854 320.052 132.879 320.305C133.738 319.774 134.472 319.458 134.927 319.193C148.934 316.879 161.664 317.094 174.584 316.728C187.39 316.374 200.057 315.173 213.343 315.779C216.453 316.462 216.668 316.45 220.131 316.412C219.98 316.5 219.765 316.513 219.992 316.614C220.207 316.121 222.445 316.791 222.824 316.336L226.591 316.905L228.513 317.334L228.753 317.385L228.867 317.41L228.93 317.423H228.955H228.968C228.816 316.247 230.27 327.675 229.663 322.833L229.651 322.846L229.208 323.074L228.311 323.529C225.896 324.768 223.557 325.514 221.042 326.234C221.825 325.956 222.104 325.45 221.168 325.754L220.271 326.348L220.068 326.259C219.449 326.525 218.804 326.904 219.512 326.917C206.984 330.393 194.444 330.583 182.004 331C179.046 330.861 174.824 331.013 171.562 330.874C169.173 330.596 166.822 330.153 164.508 329.66C163.345 329.344 162.207 329.192 161.044 328.762L159.312 328.194L158.883 328.054L158.668 327.979L158.617 327.966H158.605H158.592C158.668 328.813 157.897 320.634 158.225 324.085L158.251 324.072L158.377 324.022L159.401 323.592C165.659 322.543 167.466 322.467 174.419 322.062C174.091 321.835 172.156 322.985 168.579 323.807Z" fill="black" fill-opacity="0.26"/>
<path d="M142.32 313.997C142.636 314.275 143.723 314.477 142.838 314.756C142.737 314.503 142.193 314.212 142.32 313.997Z" fill="black" fill-opacity="0.26"/>
<path d="M171.017 319.483C171.068 319.408 171.422 319.635 171.498 319.686C171.144 319.66 170.777 319.825 170.512 319.673C170.878 319.698 170.84 319.572 171.017 319.483Z" fill="black" fill-opacity="0.26"/>
<path d="M178.389 320.533C178.25 320.735 176.644 320.722 175.709 320.634L178.389 320.533Z" fill="black" fill-opacity="0.26"/>
<path d="M185.148 322.29C185.717 322.555 185.54 322.631 184.744 322.53C184.706 322.404 184.971 322.378 185.148 322.29Z" fill="black" fill-opacity="0.26"/>
<path d="M185.71 321.847C186.279 321.911 186.557 322.075 186.81 322.239C186.81 322.037 185.47 322.189 185.71 321.847Z" fill="black" fill-opacity="0.26"/>
<path d="M200.621 324.224C200.988 324.249 201.784 324.148 202.101 324.426C201.734 324.224 200.305 324.527 200.621 324.224Z" fill="black" fill-opacity="0.26"/>
<path d="M207.721 324.553C207.847 324.578 208.011 324.629 208.264 324.591C208.681 324.73 208.214 324.856 207.86 324.844C207.784 324.742 207.822 324.654 207.721 324.553Z" fill="black" fill-opacity="0.26"/>
<path d="M180.979 325.311L181.75 325.223L181.623 325.438L180.979 325.311Z" fill="black" fill-opacity="0.26"/>
<path d="M140.781 322.543C141.502 322.328 141.312 322.694 141.439 322.72C140.781 322.821 141.654 322.429 140.781 322.543Z" fill="black" fill-opacity="0.26"/>
<path d="M170.661 320.52L170.434 320.533L170.522 320.078L170.661 320.52Z" fill="black" fill-opacity="0.26"/>
<path d="M182.438 47.0054C182.438 47.0054 176.421 42.4923 153.691 40.6846C144.222 39.9261 122.542 46.3607 101.81 54.1985C90.2677 58.5598 58.7394 65.5127 52.899 66.5746C42.8995 68.395 10.7012 76.0685 10.7012 83.3375C10.7012 90.5938 18.8424 96.9904 37.9313 106.08C57.0075 115.156 116.689 126.445 135.183 155.155C159.177 192.422 165.043 238.767 166.863 260.586C168.684 282.405 175.043 309.674 175.043 309.674C175.043 309.674 143.843 308.725 148.381 315.072C152.92 321.443 164.904 315.211 164.904 315.211C164.904 315.211 161.402 323.301 165.03 324.199C168.671 325.109 173.311 317.145 173.311 317.145C173.311 317.145 172.299 323.453 179.568 324.287C186.85 325.122 188.493 320.507 186.673 312.328C184.865 304.136 185.219 273.797 185.813 273.316C186.648 272.621 226.064 273.316 226.064 273.316L229.149 308.751C229.149 308.751 205.168 314.212 207.898 317.84C210.616 321.481 222.133 316.184 222.133 316.184C222.133 316.184 213.347 322.745 218.795 324.388C224.244 326.032 229.579 320.735 229.579 320.735C226.684 332.997 244.445 326.108 241.525 315.122V269.675C241.525 269.675 259.59 298.599 293.343 298.764C335.351 298.966 390.823 263.405 408.913 244.443C427.534 224.937 420.442 230.259 397.852 236.061C366.576 244.076 341.95 239.778 326.034 235.138C314.303 231.712 298.122 226.719 281.258 230.701C267.276 234.013 247.77 249.828 247.77 249.828C247.77 249.828 252.903 199.223 215.23 148.695C207.987 138.986 213.663 121.667 213.663 121.667C213.663 121.667 217.316 121.958 221.273 122.678C227.796 123.854 233.333 132.438 230.615 125.156C227.885 117.887 217.885 111.528 217.885 111.528C217.885 111.528 220.793 106.864 234.863 107.976C244.053 108.709 223.106 95.4608 223.106 95.4608C223.106 95.4608 234.13 93.6278 241.487 92.8819C245.216 92.5153 219.465 80.2908 219.465 80.2908C219.465 80.2908 218.719 79.014 218.934 71.9347C219.036 68.4203 217.885 57.9025 217.885 57.9025C217.885 57.9025 221.956 34.2752 223.106 25.1732C224.244 16.0712 223.106 6.08437 223.106 6.08437C223.106 6.08437 203.903 21.3555 194.561 31.039C187.735 38.1183 182.438 47.0054 182.438 47.0054Z" fill="#F39200"/>
<path d="M187.547 172.234C187.547 172.234 196.725 183.927 200.353 190.905C203.994 197.883 204.487 204.533 204.133 206.872C203.779 209.223 196.396 217.984 199.999 220.183C202.3 221.574 206.168 217.541 206.168 217.541C206.168 217.541 207.205 221.877 209.594 223.42C213.146 225.733 213.437 216.808 213.437 216.808C213.437 216.808 217.356 226.934 222.64 222.889C225.838 220.449 221.389 215.051 214.764 203.168C209.291 193.37 201.212 162.917 201.212 162.917" fill="#FAB415"/>
<path d="M131.744 154.421C156.421 190.754 162.653 226.163 163.197 259.929C173.475 260.118 185.522 259.082 195.357 259.929C196.166 253.557 194.599 246.882 194.599 240.208C194.599 175.786 169.138 140.996 118.837 128.418C114.4 127.318 89.0409 121.503 84.6543 122.451C102.82 129.53 123.009 141.54 131.744 154.421Z" fill="white"/>
<path d="M19.3093 74.2987C8.71559 77.3074 -5.94875 80.9861 2.5338 88.0402C12.7609 96.548 31.3189 102.793 31.3189 102.793C31.3189 102.793 40.168 77.6993 37.627 70.089C37.627 70.089 23.1776 73.2115 19.3093 74.2987Z" fill="black"/>
<path d="M146.395 43.137C146.395 43.137 156.419 29.699 161.691 22.6323C166.975 15.5909 181.728 -1.07083 182.537 0.0542769C183.333 1.17938 186.431 8.20814 185.369 20.3188C184.282 32.4295 181.69 47.8903 181.69 47.8903L146.395 43.137Z" fill="#F39200"/>
<path d="M192.725 52.2769C192.725 52.2769 211.687 31.8228 212.193 34.3511C212.711 36.8794 212.193 57.5738 212.193 57.5738C212.193 57.5738 204.848 54.5398 202.218 54.0468C199.589 53.5411 192.725 52.2769 192.725 52.2769Z" fill="white"/>
<path d="M173.997 24.6929C175.476 23.8964 175.919 26.0961 176.007 29.9897C176.096 33.896 176.121 44.4265 176.121 44.4265L161.381 41.1017C161.381 41.1017 172.518 25.4893 173.997 24.6929Z" fill="white"/>
<path d="M158.203 69.3937C158.203 77.99 149.468 87.4966 139.392 87.4966C131.833 87.4966 123.173 79.4185 127.534 67.9273C131.542 57.3842 137.837 55.2098 145.688 56.2717C153.184 57.2704 158.203 60.8227 158.203 69.3937Z" fill="white"/>
<path d="M135.156 71.9094C135.156 73.2115 136.231 74.286 137.546 74.286C138.86 74.286 139.922 73.2115 139.922 71.9094C139.922 70.5947 138.86 69.5201 137.546 69.5201C136.218 69.5201 135.156 70.5947 135.156 71.9094Z" fill="black"/>
<path d="M160.531 235.682C197.154 238.425 216.723 237.97 222.374 237.641C237.961 236.706 247.822 232.458 247.822 232.458C247.822 232.458 248.403 248.058 247.822 260.801C247.177 275.187 244.674 287.386 244.674 287.386C244.674 287.386 219.062 283.632 214.271 284.302L212.754 276.186L187.18 273.784V282.582H163.742L160.531 235.682Z" fill="#00A0A4"/>
<path d="M171.944 243.924H181.21V237.414H171.59L171.944 243.924Z" fill="#454444"/>
<path d="M134.112 106.902C134.112 106.902 127.867 113.172 118.828 110.568C119.397 114.133 121.205 121.427 126.577 121.098C133.682 120.643 134.112 106.902 134.112 106.902Z" fill="black"/>
<path d="M181.214 238.425C181.214 238.425 180.076 192.422 194.74 171.26C200.796 162.537 222.387 155.104 222.387 155.104L219.492 151.008C219.492 151.008 199.481 156.305 187.37 171.576C174.513 187.757 171.947 238.425 171.947 238.425H181.214Z" fill="black"/>
<path d="M239.689 173.776C239.689 173.776 233.558 180.666 232.559 180.918C231.56 181.171 229.449 178.618 229.449 178.618" stroke="black" stroke-width="0.569" stroke-miterlimit="10" stroke-linecap="round" stroke-linejoin="round"/>
<path d="M236.404 164.269C236.404 164.269 230.083 171.285 229.084 171.538C228.086 171.778 225.975 169.225 225.975 169.225" stroke="black" stroke-width="0.569" stroke-miterlimit="10" stroke-linecap="round" stroke-linejoin="round"/>
<path d="M233.647 155.496C233.647 155.496 224.406 154.371 223.66 153.676C222.914 152.98 223.774 150.224 223.774 150.224" stroke="black" stroke-width="0.569" stroke-miterlimit="10" stroke-linecap="round" stroke-linejoin="round"/>
<path d="M254.09 139.479C254.09 139.479 263.027 132.602 263.065 131.578C263.103 130.554 259.627 128.683 259.627 128.683" stroke="black" stroke-width="0.569" stroke-miterlimit="10" stroke-linecap="round" stroke-linejoin="round"/>
<path d="M248.188 135.598C248.188 135.598 254.711 126.395 254.432 125.396C254.167 124.41 250.286 123.652 250.286 123.652" stroke="black" stroke-width="0.569" stroke-miterlimit="10" stroke-linecap="round" stroke-linejoin="round"/>
<path d="M249.717 170.097C248.276 166.368 246.241 163.612 243.308 161.463C246.013 158.328 246.342 152.829 240.464 150.326C238.845 149.706 236.621 149.175 235.091 150.326C235.091 150.326 232.942 152.02 232.183 153.903C230.755 157.43 232.006 159.921 234.851 162.31C235.356 162.727 235.862 163.03 236.368 163.258C233.789 166.57 236.418 173.472 238.719 175.925C240.716 178.074 245.558 182.233 248.478 180.615C252.018 178.934 250.868 172.79 249.717 170.097Z" fill="#814114"/>
<path d="M233.609 139.365C230.524 148.202 239.626 154.017 247.224 152.639C251.901 151.716 255.024 148.96 255.643 143.891C256.187 138.594 251.51 134.688 250.296 133.879C249.171 133.146 237.806 127.229 233.609 139.365Z" fill="#A85318"/>
<path d="M240.523 129.846C236.478 128.784 234.101 133.967 236.882 136.306C238.817 137.937 241.977 136.963 243.001 134.574C243.886 132.122 242.47 130.15 240.523 129.846Z" fill="white"/>
<path d="M243.648 144.055C246.746 146.862 249.552 145.092 250.652 143.79C253.522 140.414 249.565 135.56 245.532 137.229C243.016 138.291 241.575 142.071 243.648 144.055Z" fill="white"/>
<path d="M239.818 132.893C239.452 132.994 238.984 133.74 239.565 134.182C240.084 134.574 240.64 134.245 240.766 133.942C240.969 133.411 240.552 132.69 239.818 132.893Z" fill="black"/>
<path d="M247.533 142.222C247.697 142.867 248.493 143.145 249.05 142.728C249.707 142.248 249.29 141.527 248.961 141.312C248.392 140.92 247.406 141.325 247.533 142.222Z" fill="black"/>
<path d="M236.427 142.602C235.972 146.584 239.701 146.963 241.18 145.661" stroke="black" stroke-width="0.569" stroke-miterlimit="10" stroke-linecap="round" stroke-linejoin="round"/>
</svg>
