<?xml version="1.0" encoding="UTF-8" standalone="no"?>
<!-- Generator: Adobe Illustrator 23.0.1, SVG Export Plug-In . SVG Version: 6.00 Build 0)  -->

<svg
   version="1.1"
   id="Layer_1"
   x="0px"
   y="0px"
   viewBox="0 0 1024 300"
   xml:space="preserve"
   sodipodi:docname="svgCas22bg.svg"
   width="1024"
   height="300"
   inkscape:version="1.2.1 (9c6d41e410, 2022-07-14)"
   xmlns:inkscape="http://www.inkscape.org/namespaces/inkscape"
   xmlns:sodipodi="http://sodipodi.sourceforge.net/DTD/sodipodi-0.dtd"
   xmlns="http://www.w3.org/2000/svg"
   xmlns:svg="http://www.w3.org/2000/svg"><defs
   id="defs613" /><sodipodi:namedview
   id="namedview611"
   pagecolor="#ffffff"
   bordercolor="#000000"
   borderopacity="0.25"
   inkscape:showpageshadow="2"
   inkscape:pageopacity="0.0"
   inkscape:pagecheckerboard="0"
   inkscape:deskcolor="#d1d1d1"
   showgrid="false"
   inkscape:zoom="1.2720365"
   inkscape:cx="471.68459"
   inkscape:cy="255.88889"
   inkscape:window-width="1920"
   inkscape:window-height="1018"
   inkscape:window-x="-8"
   inkscape:window-y="-8"
   inkscape:window-maximized="1"
   inkscape:current-layer="Layer_1" />
<style
   type="text/css"
   id="style408">
	.st0{fill:#00A0A4;}
	.st1{fill:#075D58;}
	.st2{fill:#007572;}
	.st3{fill:#1BB4B4;}
	.st4{fill:#DB7A1C;}
	.st5{fill:#DAD8CC;}
	.st6{fill:#C4C0B4;}
	.st7{fill:#B91919;}
	.st8{fill:#D57A11;}
	.st9{fill:#E5A242;}
	.st10{fill:#FFFFFF;}
	.st11{fill:#DB9338;}
	.st12{fill:#E30613;}
	.st13{fill:#1B8A4F;}
	.st14{fill:#B2B2B2;}
	.st15{fill:#2FAC66;}
	.st16{fill:#533018;}
	.st17{fill:#814114;}
	.st18{fill:#F39200;}
	.st19{fill:#ACD5B3;}
	.st20{fill:#85557C;}
	.st21{fill:#B780B1;}
	.st22{fill:#92C131;}
	.st23{fill:#D5BB4F;}
	.st24{fill:#EACE51;}
	.st25{fill:#FBBA00;}
	.st26{fill:none;stroke:#DAD8CC;stroke-width:0.552;stroke-linecap:round;stroke-linejoin:round;stroke-miterlimit:10;}
	.st27{fill:#BEE2E4;}
	.st28{fill:#C7681B;}
	.st29{fill:#F59B1A;}
</style>



































































































<g
   id="g715"
   transform="translate(67.608124,-369.48626)"><path
     class="st0"
     d="m 751.6,643.3 c -0.6,2.8 -1.4,10.9 0.6,12.7 6.3,6.8 7.7,-10.9 4.6,-14.9"
     id="path410" /><path
     class="st1"
     d="m 808,568.8 c -3.2,6.6 -1.6,20.1 -0.9,27.8 0.6,6.9 2.4,16.5 4,23.1 1.6,6.9 4,15.3 7.5,4.3 2.2,-6.2 6.7,-31.8 6.7,-38 0,-13.5 -1.9,-26.7 -16,-20.1"
     id="path412" /><path
     class="st2"
     d="m 812.5,633.2 c -0.9,2.8 -1.8,10.6 1.3,11.8 4.9,2.3 5.8,-11.8 3.8,-14.6"
     id="path414" /><path
     class="st1"
     d="m 811.5,514.2 c 2.7,-1.6 0.9,-1.1 3.8,-2.2 7,-2.9 9.8,11.8 9.9,20.3 0.1,13.6 -2.5,19.8 -6.8,27.7 -0.9,1.7 -5.6,0 -7.6,0 -2.3,-3.7 -3.8,-13.1 -4.2,-17.5 -1.4,-14.4 0.5,-25.6 4.9,-28.3 z"
     id="path416" /><path
     class="st2"
     d="m 813.8,559.6 c 0.3,-0.2 0.9,-0.5 1.2,-0.7 -8,-0.2 -14.4,7.5 -2.8,7.5 3.4,0 12.9,-0.2 11.7,-3.8 -1.2,-3.6 -11.4,-4.1 -14.1,-2"
     id="path418" /><path
     class="st1"
     d="m 127.5,561.5 c -6.7,6.5 -6.6,29.5 -5.5,39.1 0.6,4.8 2.6,19.2 6.2,21.6 6.7,4.5 7.9,-16.5 8.8,-20.9 2.2,-12.7 6.1,-39.5 -9.6,-40.8"
     id="path420" /><path
     class="st1"
     d="m 127.1,624.2 c -0.7,0.3 -2.1,10 -1,12.1 2.1,4.8 6.2,3.1 7.6,-1.4 1,-3.1 -1,-6.5 -1.4,-9.9"
     id="path422" /><path
     class="st0"
     d="m 748.9,587.7 c 0,0 -1.2,4.6 -1.5,6.3 -1.2,6.3 -1.5,13.8 -1.2,20.1 0.3,6.3 1.2,10.4 2.7,16.3 0.4,1.6 0.5,6.8 1.7,7.5 1.4,0.8 4.9,0.7 5.7,-0.4 1.5,-1.9 2.6,-6 3.3,-8.3 1.4,-4.9 4.8,-20.4 4.9,-25.3 0.6,-7.6 0.6,-26 -10.7,-19.1"
     id="path424" /><path
     class="st0"
     d="m 77.8,586 c -7.9,4.5 -3.1,27.1 -2.4,34.7 0.7,4.8 3.2,25.3 8.9,17.2 3,-4.2 5.8,-24.8 5.8,-31.3 0,-5.8 0.3,-14.4 -2.7,-19.6 -2.4,-3.4 -8.6,-6.5 -11.3,-2.1"
     id="path426" /><path
     class="st0"
     d="m 79.8,641.3 c -1.4,2.4 -2.4,11 0.7,12.7 8.9,5.5 4.5,-14.1 4.5,-16.8"
     id="path428" /><path
     class="st1"
     d="m 774.7,510.2 c -1.1,4.5 -0.4,9.1 0.2,13.7 0.5,3.5 -4.3,8.7 -2.4,11.7 5.4,-3.7 42.6,-19 44.2,-20.1 1.2,-0.9 -0.3,-18.2 -1,-24 -6.2,2.4 -16.7,0.9 -22.2,4.7 -3.8,2.4 -8.6,3.4 -12,6.2"
     id="path430" /><path
     class="st1"
     d="m 122.2,524.8 c -2.3,6.4 -0.9,25.8 4.3,31.7 11.5,13.1 19.3,-29.2 8.9,-36 h -0.9"
     id="path432" /><path
     class="st2"
     d="m 132.3,555 c -3.4,0 -13.3,0.6 -9.8,6.1 1,2.1 13.4,1.8 15.4,0 4.2,-3.6 -3.2,-6.1 -5.6,-6.1 z"
     id="path434" /><path
     class="st2"
     d="m 778.4,505.4 c 0,3.1 -2.1,24.5 -2.1,32 -3.1,1.7 -6.9,4.3 -11.3,6.8 -2.1,-4.1 -5.5,-8.6 -8.2,-12 4.1,-6.5 5.5,-14.8 5.1,-22.6"
     id="path436" /><path
     class="st0"
     d="m 750.7,540.8 c -6.8,6.9 -5.6,26.8 -1.8,35.4 3,6.2 7.8,9.1 12.6,3.3 4.2,-5.8 5.5,-17.8 5.5,-24.6 0.3,-10.3 -3,-24.7 -13.4,-13.4"
     id="path438" /><path
     class="st3"
     d="m 753.5,633.7 c -1.7,0 -6.4,0.8 -6.7,3.3 -0.3,3.1 4,2.3 5.6,2.3 1.6,0 8.9,0.1 8.4,-3.2 -0.3,-2.6 -4.2,-2.4 -7.3,-2.4 z"
     id="path440" /><path
     class="st3"
     d="m 754.3,644 c 1.7,0 6.4,-0.8 6.7,-3.3 0.3,-3.1 -4,-2.3 -5.6,-2.3 -1.6,0 -8.9,-0.1 -8.4,3.2 0.3,2.6 4.2,2.4 7.3,2.4 z"
     id="path442" /><path
     class="st3"
     d="m 81.4,633.7 c -1.7,0 -6.4,0.8 -6.7,3.3 -0.3,3.1 4,2.3 5.6,2.3 1.6,0 8.9,0.1 8.4,-3.2 -0.4,-2.6 -4.3,-2.4 -7.3,-2.4 z"
     id="path444" /><path
     class="st3"
     d="m 82.1,644 c 1.7,0 6.4,-0.8 6.7,-3.3 0.3,-3.1 -4,-2.3 -5.6,-2.3 -1.6,0 -8.9,-0.1 -8.4,3.2 0.3,2.6 4.2,2.4 7.3,2.4 z"
     id="path446" /><path
     class="st2"
     d="m 129.5,617.6 c -1.7,0 -6.4,0.8 -6.7,3.3 -0.3,3.1 4,2.3 5.6,2.3 1.6,0 8.9,0.1 8.4,-3.2 -0.3,-2.5 -4.2,-2.3 -7.3,-2.4 z"
     id="path448" /><path
     class="st2"
     d="m 130.2,627.9 c 1.7,0 6.4,-0.8 6.7,-3.3 0.3,-3.1 -4,-2.3 -5.6,-2.3 -1.6,0 -8.9,-0.1 -8.4,3.2 0.3,2.6 4.3,2.4 7.3,2.4 z"
     id="path450" /><path
     class="st2"
     d="m 815.5,635.1 c 1.7,0 6.4,-0.8 6.7,-3.3 0.3,-3.1 -4,-2.3 -5.6,-2.3 -1.6,0 -8.9,-0.1 -8.4,3.2 0.3,2.6 4.3,2.4 7.3,2.4 z"
     id="path452" /><path
     class="st2"
     d="m 814.8,624.8 c -1.7,0 -6.4,0.8 -6.7,3.3 -0.3,3.1 4,2.3 5.6,2.3 1.6,0 8.9,0.1 8.4,-3.2 -0.3,-2.6 -4.2,-2.4 -7.3,-2.4 z"
     id="path454" /><path
     class="st3"
     d="m 756.3,580.5 c -2.4,-0.2 -9.1,0.5 -9.8,4.4 -0.9,4.8 5.3,4.1 7.5,4.3 2.3,0.2 12.4,1.3 12.2,-3.9 -0.1,-4.2 -5.6,-4.3 -9.9,-4.8 z"
     id="path456" /><path
     class="st2"
     d="m 87.4,531.1 c -1.7,-0.3 14.9,0.4 29.2,1 9.9,0.5 597.7,2.9 617.9,2.9 4.8,0 11.3,0.6 16.1,0.6 0.3,-9.3 -1,-18.9 -1.4,-27.8 -21.3,-3.1 -658.8,-3.4 -665.7,-3.1 -1.7,9.9 1.4,16.1 1.7,25.1"
     id="path458" /><path
     class="st0"
     d="m 74,535.8 c -5.2,8.7 -5.8,24.1 -0.7,35.1 4.5,9.1 12,11.7 15.4,0.8 2.4,-7.6 4,-15.9 2.7,-23.4 C 89.4,535.6 85.3,526 74,535.8 Z"
     id="path460" /><path
     class="st3"
     d="m 83.1,577.2 c -5.2,-0.2 -14.7,2.7 -8.1,8.1 3.3,2.6 14.8,1.7 14.8,-3.4 0,-3.9 -3,-4.6 -6.7,-4.7 z"
     id="path462" /><path
     class="st3"
     d="m 68.8,503.3 c -1,2.7 -0.5,30 -0.5,33.9 3.6,0 21.2,1.1 23.2,0.9 0.6,-3.7 -0.4,-30.4 -1.1,-34.9"
     id="path464" /><path
     class="st3"
     d="m 745.8,508.8 c -1.1,12.8 -1.3,23.8 -1.2,34.3 9.4,0 12.9,1 20.9,1 -0.4,-9.6 2.7,-25.8 0.7,-36.4"
     id="path466" /><path
     class="st0"
     d="m 469.3,473.6 c 88.7,1.4 354.6,3.3 361.6,3.5 -2.8,6.5 -22.8,12.8 -37.4,19 -21.3,9.1 -41.9,9.9 -62.5,9.9 -18.5,0 -584.7,-1 -603.2,-2.4 -18.2,-1.4 -36.4,-1.4 -53.5,-6.5 -4.8,-1.4 -12.1,4.1 -13.4,-2.7 10.1,-7.9 49.4,-18.7 54.2,-22.2 6.3,-0.5 283,0.3 354.2,1.4 z"
     id="path468" /><path
     class="st2"
     d="m 812.9,494.9 c -0.5,4.5 -1,12.2 0.3,24.7 6.7,-2.3 11,-3.5 13.8,-5.9 -0.1,-3.5 0.1,-17.4 0.2,-28.3 -1.7,0.3 -12.5,8.1 -13.2,9.6"
     id="path470" /><path
     class="st2"
     d="m 769.3,503.8 c 0.4,-0.3 38,-14.4 40.4,-16 1.1,-0.7 20.1,-11 21.2,-10.8 0.3,3.2 0.5,7.2 0.1,11.1 -0.6,1.6 -59.9,26.5 -60.6,26.5 -0.5,0 -2.4,-3.9 -3,-5.4 -0.7,-1.6 -0.4,-2.5 0.4,-4 0.2,-0.7 0.9,-1 1.5,-1.4 z"
     id="path472" /><path
     class="st3"
     d="M 446.3,510.5 C 361.4,508.2 61.6,505.8 60,505.8 c 0.4,-5 -0.1,-7.6 0.9,-11.4 l 0.2,-0.4 c 26.1,0.5 689.1,8.2 703.2,8.5 h 6.2 c -0.2,3.9 -0.2,8.7 -0.2,12 -3.8,0.2 -246.3,-1.9 -324,-4 z"
     id="path474" /><path
     class="st4"
     d="M 60.1,505.9 C 59.8,501.8 61,498.7 61,494.5 Z"
     id="path476" /><path
     class="st5"
     d="m 257.7,443.9 -2.3,-11.1 c 3,-0.5 7.3,-0.4 9.6,-0.3 9.8,0.7 19.3,3 30.3,8.4 l -7.3,10.3 c 0,0 -7.1,-5.4 -18.5,-6.8 -11.4,-1.4 -11.8,-0.5 -11.8,-0.5 z"
     id="path478" /><path
     class="st6"
     d="m 281.1,448.5 c 4,2 7,3.4 7,3.4 l 7.1,-10.9 c -1.3,-0.8 -6.3,-2.9 -9.8,-4.1 z"
     id="path480" /><path
     class="st6"
     d="m 265.8,444.1 c 0.8,0.1 2.7,0.2 3.7,0.3 2.7,0.3 1.4,0.1 3.8,1 l 3.1,-11.1 c -4,-0.9 -7.7,-1.4 -11.4,-1.7 z"
     id="path482" /><path
     class="st7"
     d="m 214.4,468.5 c 6.3,8.4 28.4,24.9 72.4,22.6 43.9,-2.4 53.1,-18.3 54.4,-20.7 -6.7,-2.5 -19.2,-9.6 -67.9,-9.9 -37.6,-0.2 -58.9,8 -58.9,8 z"
     id="path484" /><path
     class="st6"
     d="m 310.3,456.6 c -0.2,0.3 -0.2,0.4 -0.2,0.4 -3.7,-2.4 -28.8,-20.1 -49.6,-18.2 -20.9,1.9 -37.6,15 -37.6,15 l 6.5,4.2 -4.9,4.5 c 0,0 6.5,5.2 17.7,8.1 11.2,2.9 43.1,6.3 52.3,5.3 9.1,-1 12.5,-4.9 16.8,-7.7 -1.3,-4 -0.9,-7.3 -1,-11.6 z"
     id="path486" /><path
     class="st5"
     d="m 320.8,460.5 c 2.8,-3.8 7.5,-18.6 7.5,-18.6 0,0 -5.8,1.7 -11.3,6.8 -4.1,3.8 -5.9,8.6 -5.9,8.6 -0.9,-0.6 -4,-2.3 -6.9,-4.1 0.1,1 -0.4,1.9 -1.6,2.9 0,0 3.3,2.7 3,5.9 -0.2,2.7 -4.3,3.6 -5.6,3.7 1.1,-0.1 4.5,0.6 4.8,4.3 0.1,0.8 -0.4,2.3 -1,2.9 4.6,-2.1 6.8,-4.2 8.5,-5.6 2,1.2 4.9,4.7 9.8,6.2 4.7,1.5 9.8,2.7 9.8,2.7 1,0.4 -5.4,-12.6 -11.1,-15.7 z"
     id="path488" /><path
     class="st5"
     d="m 300.1,465.7 c -0.2,0 -0.4,0.1 -0.4,0.1 0,0 0.2,-0.1 0.4,-0.1 z"
     id="path490" /><path
     class="st5"
     d="m 293.7,459.1 -5.3,-5.7 c 0,0 6.3,0.4 6,-5.9 -5.9,-3 -12.8,-6 -19.9,-7.6 2.1,3.3 4.2,7 4.2,8.6 0,3.2 -6.2,5.3 -6.2,5.3 0,0 7.2,1.4 7.8,5.6 0.5,4.2 -5.6,8.2 -5.6,8.2 l 0.3,7.1 c 6.1,0.5 11.8,0.8 15.8,0.9 l 0.3,-8.2 c -0.1,0.2 7.9,-2.6 2.6,-8.3 z"
     id="path492" /><path
     class="st5"
     d="m 257.9,463.4 c 0,0 4.4,-4.5 4.4,-6.7 0,-2.2 -6.3,-4.2 -6.3,-4.2 0,0 5.7,-4.8 5.2,-8 -0.3,-1.5 -2,-3.5 -3.8,-5.3 -5.4,0.8 -10.5,2.3 -15.1,4 l -1.2,27.1 c 0.3,0.1 0.6,0.2 1,0.3 4.2,1.1 11.3,2.1 19.1,3 0.9,-1.8 1.6,-3.6 1.8,-4.9 0.7,-4.1 -5.1,-5.3 -5.1,-5.3 z"
     id="path494" /><path
     class="st8"
     d="m 269.3,473.4 c 2.6,-4.2 6.7,-6 11.1,-5.2 4.4,0.7 5.3,5.8 5.1,8.8 -0.2,3 -3.1,9.3 -8.2,7.1 -5,-2.2 -10.8,-6 -8,-10.7 z"
     id="path496" /><path
     class="st9"
     d="m 258.2,466.9 c 3.3,0.9 8.8,6.5 7.2,10.9 -1.6,4.3 -10.8,8.5 -13.9,5.5 -3.2,-3 -8.2,-10.9 -2.1,-14.7 6.2,-3.8 8.8,-1.7 8.8,-1.7 z"
     id="path498" /><path
     class="st6"
     d="m 251.1,451.5 c 0.1,-4.3 -0.9,-7.8 -2.1,-10.6 -15.2,4.3 -26.2,12.8 -26.2,12.8 l 6.5,4.2 -4.9,4.5 c 0,0 6.5,5.2 17.7,8 1.5,0.4 3.4,0.8 5.6,1.2 1.6,-4.6 3.3,-12.5 3.4,-20.1 z"
     id="path500" /><path
     class="st10"
     d="m 239.9,452 c 2.8,1.2 2.6,6.6 0.4,8.6 -2.2,2 -8,0.8 -7.6,-4.2 0.5,-5 3.9,-5.8 7.2,-4.4 z"
     id="path502" /><path
     d="m 237.2,454.7 c 0.6,0.2 0.5,1.3 0.1,1.7 -0.4,0.4 -1.6,0.2 -1.5,-0.8 0.1,-1 0.7,-1.2 1.4,-0.9 z"
     id="path504" /><path
     class="st11"
     d="m 288,468.5 c 5.2,-2.7 12.2,-0.4 13.5,4.6 1.3,5 -0.7,9.5 -5.6,11.7 -4.9,2.3 -15.2,-0.1 -15.7,-3.6 -0.6,-3.5 -0.4,-8.4 7.8,-12.7 z"
     id="path506" /><path
     class="st12"
     d="m 341.1,470.4 c -16,4.5 -45.5,8 -62.8,8.5 -30.6,0.9 -54.7,-6.3 -64,-10.4 6.5,10.1 19.1,24.4 68.3,23.8 39.6,-0.5 55.8,-15.2 58.5,-21.9 z"
     id="path508" /><path
     class="st13"
     d="m 622.3,472.7 c 0,0 4,12.6 12.9,16.1 14.1,5.4 68.2,6 80.4,-0.8 16,-8.8 13.3,-16.9 13.3,-16.9 z"
     id="path510" /><path
     class="st14"
     d="m 685,486.4 c 31.7,-2.3 48.6,-9 48.2,-12.5 -0.4,-3.5 -26.3,-11.8 -61.6,-11 -35.3,0.8 -53.3,7.5 -53.3,12.9"
     id="path512" /><path
     class="st15"
     d="m 618.4,475.8 c 0,8.6 34.8,11.4 66.7,10.6 31.9,-0.9 49.2,-5 48.2,-12.5 -0.7,-5.6 -26.3,-11.8 -61.6,-11 -35.3,0.8 -53.3,7.5 -53.3,12.9 z"
     id="path514" /><path
     class="st13"
     d="m 622.5,474.9 c 0,6.4 32.3,8.6 61.9,7.9 29.6,-0.6 45.7,-3.7 44.8,-9.4 -0.7,-4.2 -24.4,-8.8 -57.2,-8.2 -32.8,0.6 -49.5,5.6 -49.5,9.7 z"
     id="path516" /><path
     class="st16"
     d="m 643.5,451.9 c 0,0 -0.7,-6.1 -2.6,-8.5 12.6,-6.3 34.1,-14.7 37.3,-14.4 6.9,0.6 28,6.8 30,13.1 2,6.3 2.7,31 -0.4,33.7 -3.1,2.7 -5.5,2 -5.5,2 z"
     id="path518" /><path
     class="st17"
     d="m 640.1,443.9 c -1.4,3.4 -1.4,29.6 0.6,32.7 2,3.1 55.6,3.2 61.5,1.2 0,0 2.8,-25.9 -0.4,-31.8 -3.1,-5.9 -19.6,-5.1 -30.2,-5.1 -10.5,0 -30.7,1.1 -31.5,3 z"
     id="path520" /><path
     class="st4"
     d="m 703.4,459.3 c -0.9,-0.1 -2.3,-0.1 -4.2,0.1 -5.1,0.4 -5.5,1.2 -10.2,1.2 -4.7,0 -5.5,-1.2 -10.2,-2.7 -4.7,-1.6 -10.6,3.1 -12.9,1.6 -2.4,-1.6 -3.1,-2.4 -7.5,-1.6 -4.3,0.8 -11,3.1 -13.3,0.4 -0.8,-1 -3.9,-1.2 -5.9,-1.1 -0.1,1.7 -0.2,3.8 0,5.4 2.3,0.1 5.8,0.3 7.4,0.8 2.4,0.8 7.1,0 10.6,-0.8 3.5,-0.8 7.8,2 11.8,3.1 3.9,1.2 9,-0.4 13.7,-1.2 4.7,-0.8 8.6,0.4 14.5,0.4 2.2,0 4.4,-0.1 6.1,-0.3 0.1,-1.7 0.1,-3.5 0.1,-5.3 z"
     id="path522" /><path
     class="st7"
     d="M 747.4,471.2 743.8,455 c 0,0 4.9,-7.7 38.2,-7.1 25.6,0.5 31.7,6.4 32.8,8.1 l -5.1,18.1 z"
     id="path524" /><path
     class="st18"
     d="m 799.4,467.6 c 0,0 19.8,-17.2 25.2,-23.1 4.3,-4.7 6.5,-7.7 2.8,-8.4 -4.1,-0.8 -31,28.4 -32,31.3 -1,3 4,0.2 4,0.2 z"
     id="path526" /><path
     class="st15"
     d="m 784.3,471.4 c 0,0 18.6,4.3 20.6,-5.3 2,-9.6 -0.8,-19.1 -6,-21.6 -5.1,-2.5 -19.6,-1.3 -22.2,3.8 -2.7,5.2 -3.5,16.8 7.6,23.1 z"
     id="path528" /><path
     class="st16"
     d="m 799.3,443.7 c -4.2,-2.7 -15.4,-4.2 -20.6,1.8 2.2,5.5 5.1,10.2 7,13 3.4,5 4,0.8 4.1,-2.4 0.2,-3.3 -1.2,-7.4 1.6,-4.9 2.7,2.4 3.1,11.4 5.1,8.1 2,-3.3 1.5,-4.2 3.4,-5.9 2.9,-2.5 3.4,2.6 5.7,7.9 0.9,-8.2 -1.5,-14.5 -6.3,-17.6 z"
     id="path530" /><path
     class="st19"
     d="m 769.9,472.3 c 12,0 16.2,-5.8 15.8,-20 -0.5,-17 -18.8,-14.9 -23.6,-12.8 -4.8,2.2 -12.6,9.5 -8.5,22.9 3.3,11 16.3,9.9 16.3,9.9 z"
     id="path532" /><path
     class="st17"
     d="m 762.1,438.1 c -3.7,1.6 -8.7,7.2 -9.5,15.1 0.6,0 0.9,-0.2 1.4,-0.5 5.1,-3.4 7.7,-9.2 8.7,-5.5 1,3.7 -2.4,8.5 0,7.7 2.4,-0.8 4.2,-6.7 4.9,-3.5 0.7,3.2 -0.5,9.9 2.1,10 2.6,0.2 0.4,-14.6 4,-14.2 3.6,0.4 2.6,5.2 4.9,6.4 2.3,1.2 1.9,-4.7 4.2,-5.2 2.2,-0.5 1.2,6.9 2.8,9.5 0.2,-1.7 0.4,-3.7 0.3,-5.7 C 785.7,434.4 767,436 762.1,438.1 Z"
     id="path534" /><path
     class="st12"
     d="m 743.8,455 c 1.1,4.5 10.2,12.9 35,12.6 33.4,-0.4 36,-11.6 36,-11.6 0,0 -2.4,28.2 -16,32.6 -15.5,5.1 -35.7,3.9 -45.5,-3.1 -9.8,-6.9 -9.5,-30.5 -9.5,-30.5 z"
     id="path536" /><path
     class="st20"
     d="m 87.3,469.2 c 0,0 4,12.6 12.9,16.1 14.1,5.4 68.2,6 80.4,-0.8 16,-8.8 13.3,-16.9 13.3,-16.9 z"
     id="path538" /><path
     class="st14"
     d="m 150,482.9 c 31.8,-2.4 48.6,-9 48.2,-12.5 -0.4,-3.5 -26.3,-11.8 -61.6,-11 -35.3,0.8 -53.3,7.5 -53.3,12.9"
     id="path540" /><path
     class="st21"
     d="m 83.3,472.3 c 0,8.6 34.8,11.4 66.7,10.6 31.9,-0.9 49.2,-5 48.2,-12.5 -0.7,-5.6 -26.3,-11.8 -61.6,-11 -35.2,0.8 -53.3,7.4 -53.3,12.9 z"
     id="path542" /><path
     class="st20"
     d="m 87.5,471.4 c 0,6.4 32.3,8.6 61.9,7.9 29.6,-0.6 45.7,-3.7 44.8,-9.4 -0.7,-4.2 -24.4,-8.8 -57.2,-8.2 -32.8,0.6 -49.5,5.6 -49.5,9.7 z"
     id="path544" /><path
     class="st22"
     d="m 156.3,434 c 0,0 0.4,-5.9 2.9,-8.4 0,0 1,0.5 3.7,1.1 2.6,0.7 5.8,-0.7 3.6,-1.3 -2.2,-0.6 -2.8,-0.6 -2.8,-0.6 0,0 6.1,-1.6 3,-2.5 -3.1,-0.9 -3.8,0.5 -3.8,0.5 0,0 4.5,-3.6 1.7,-2.8 -2.9,0.8 -2.9,2.8 -2.9,2.8 0,0 2.6,-7.3 0.6,-6.3 -2,0.9 -2.6,1.8 -2.5,2.7 0.1,0.9 -0.3,4.2 -0.3,4.2 0,0 -1.9,-4.1 -5.8,-3.1 -4,0.9 -0.9,2.9 0.4,2.7 1.3,-0.3 -4.7,1 -1.8,1.9 2.9,0.9 5.3,-1.4 5.3,-1.4 0,0 -6.1,2.8 -4.3,3.3 1.8,0.6 4.9,-1.9 4.9,-1.9 l -2.7,8.8 z"
     id="path546" /><path
     class="st7"
     d="m 171.6,439.6 c 0,0 7.8,10.4 4.7,20.8 -2.5,8.3 -13,12.3 -18.9,10.6 -5.9,-1.7 -8.6,-1.8 -10.3,-1.7 -1.7,0.2 -9.4,3.8 -14.1,-2.9 -4.7,-6.7 -4.2,-22.1 -1.4,-26.1 2.9,-3.8 40,-0.7 40,-0.7 z"
     id="path548" /><path
     class="st23"
     d="m 153.6,447.4 c -10.8,-0.3 -19.7,-4.8 -20,-6.3 -0.3,-1.5 2.4,-6.4 3.5,-7.3 2.7,-2.1 6.3,0 6.4,-1 0.2,-1.1 3.3,-2.7 5.5,-2.5 2.4,0.2 3.5,1.7 3.5,1.7 0,0 0.9,-3.2 5,-2.9 4.1,0.3 3.9,4.4 3.9,4.4 0,0 2.6,-1.8 3.8,-0.7 1.2,1.1 2.1,3.3 2.1,3.3 0,0 3.4,-2.9 4.3,0.9 0.7,2.8 -1.4,6.4 -4.8,8.2 -3.2,1.7 -7.9,2.3 -13.2,2.2 z"
     id="path550" /><path
     class="st12"
     d="m 109.1,445.3 c 0,0 -6.5,10.4 -3.3,20.8 2.5,8.3 11.5,11.7 18,10.6 6.1,-1 8.6,-1.8 10.3,-1.7 1.7,0.2 11.6,3.1 15.9,-3.8 6.4,-10.1 2.4,-21.2 -0.5,-25.1 -2.8,-4 -40.4,-0.8 -40.4,-0.8 z"
     id="path552" /><path
     class="st24"
     d="m 127.6,453 c 10.8,-0.3 21.1,-5.8 21.3,-7.3 0.3,-1.5 -4.2,-7.1 -4.8,-6.4 -0.6,0.8 -2.8,-2.2 -4.5,-2.1 -2.5,0.2 -3.9,1.4 -4.1,0.3 -0.2,-1.1 -2.7,-2.7 -4.8,-2 -2.1,0.8 -2,2 -2,2 0,0 -0.9,-3.2 -5,-2.9 -4.1,0.3 -3.9,4.4 -3.9,4.4 0,0 -2.6,-2.6 -3.8,-1.5 -1.2,1.1 -2.1,4.1 -2.1,4.1 0,0 -4,-1.9 -4.5,1 -0.5,2.9 -0.5,3.2 0,4.1 0.8,1.4 1.6,2.2 4.9,4 3.3,1.8 8,2.4 13.3,2.3 z"
     id="path554" /><path
     class="st22"
     d="m 129.1,440.3 c 0,0 0.5,-5.9 -1.7,-8.8 0,0 -1.1,0.3 -3.8,0.6 -2.7,0.3 -5.6,-1.5 -3.3,-1.8 2.3,-0.3 2.9,-0.2 2.9,-0.2 0,0 -5.7,-2.4 -2.6,-2.9 3.2,-0.5 3.6,1.1 3.6,1.1 0,0 -3.9,-4.2 -1.2,-3 2.7,1.2 2.4,3.2 2.4,3.2 0,0 -1.5,-7.6 0.3,-6.4 1.8,1.2 2.3,2.1 2.1,3 -0.2,0.9 -1.1,5.1 -1.1,5.1 0,0 3.2,-4.7 7,-3.2 3.8,1.5 0.5,3 -0.8,2.6 -1.2,-0.5 4.5,1.7 1.5,2.1 -3,0.5 -5,-2.1 -5,-2.1 0,0 5.6,3.6 3.8,3.9 -1.8,0.3 -4.5,-2.6 -4.5,-2.6 l 1.4,9.1 z"
     id="path556" /><path
     class="st12"
     d="m 145,438.7 c 0,0 6.2,0 11.5,5.8 5.3,5.8 15.6,17.9 15.3,23.9 -0.3,6.1 -2.3,3.9 -4.5,2.3 -2.3,-1.7 -27,-30.1 -22.3,-32 z"
     id="path558" /><path
     class="st13"
     d="m 160.9,450.1 c 0,0 -3.3,-1.2 -4.4,-0.6 -1.1,0.6 5,2.4 5,2.4 0,0 -0.8,4.9 -0.8,5.4 0,0.6 3.2,-2.9 3.2,-2.9 0,0 -0.2,0.9 2.9,2.9 3,2 -1.5,-4.8 -1.5,-4.8 0,0 7.6,5.4 5.8,2.4 -1.8,-3 -6.4,-4.1 -6.4,-4.1 0,0 0.8,-5.9 -1.8,-9.1 -2.6,-3.2 -0.5,7 -0.5,7 0,0 -1.8,-7.7 -3.9,-8.2 -2.1,-0.5 -0.5,5.2 0.8,6.8 1.2,1.7 1.6,2.8 1.6,2.8 z"
     id="path560" /><path
     class="st20"
     d="m 564,462 c 18.3,-0.4 44.9,-4.7 45.9,-10.6 1,-6 -25.9,-8.6 -44.2,-9 -18.3,-0.3 -46.9,3.7 -46.6,11 0.3,7.3 30.9,9 44.9,8.6 z"
     id="path562" /><path
     class="st25"
     d="m 527.2,461.7 c 0,0 3.5,-10 41.7,-9.3 38.2,0.7 36.1,14 36.1,14 l -46.6,4.3 z"
     id="path564" /><path
     class="st2"
     d="m 576.3,463.4 c 0,0 25.2,-27.6 29.6,-29.9 4.3,-2.3 5.1,1.5 1.5,6.2 -3.7,4.7 -25.4,26 -25.4,26 z"
     id="path566" /><path
     class="st21"
     d="m 609.9,451.4 c -1,6 -27.6,10.2 -45.9,10.6 -14,0.3 -44.6,-1.3 -44.9,-8.6 0,0 -4.3,20.3 15.6,30.6 19.9,10.3 50.2,8 63.9,-4 13.6,-12 11.3,-28.6 11.3,-28.6 z"
     id="path568" /><path
     class="st26"
     d="m 576.4,413.8 c 4.6,8.5 -0.8,12 -1.2,17 -0.4,5 6.8,7.3 5.6,12.8 -1.2,5.5 -5.1,4 -6.8,11.8"
     id="path570" /><path
     class="st26"
     d="m 568.6,408.6 c -1.4,8 1.5,7.1 1.4,13.8 -0.2,6.1 -5.6,6.3 -5.5,11.2 0.2,5.8 3.8,5.9 3.8,11.2"
     id="path572" /><path
     class="st26"
     d="m 554.3,412.8 c -3,4.3 -1.5,7.5 0.9,11.2 2.3,3.7 4.1,7.5 1.8,10.5 -2.3,3 -10.1,5.5 -5,12.6 3,4.2 1.7,9.3 1.7,9.3"
     id="path574" /><path
     class="st13"
     d="m 551.5,459.2 c 0,0.4 -0.3,0.6 -0.6,0.6 -0.3,0 -0.6,-0.3 -0.6,-0.6 0,-0.3 0.3,-0.6 0.6,-0.6 0.3,-0.1 0.6,0.2 0.6,0.6 z"
     id="path576" /><path
     class="st13"
     d="m 559.1,456.3 c 0,0.2 -0.2,0.4 -0.5,0.4 -0.3,0 -0.5,-0.2 -0.5,-0.4 0,-0.2 0.2,-0.4 0.5,-0.4 0.3,0 0.5,0.1 0.5,0.4 z"
     id="path578" /><path
     class="st13"
     d="m 570.6,455.6 c 0,0.4 -0.3,0.6 -0.6,0.6 -0.3,0 -0.6,-0.3 -0.6,-0.6 0,-0.3 0.3,-0.6 0.6,-0.6 0.3,0 0.6,0.3 0.6,0.6 z"
     id="path580" /><path
     class="st13"
     d="m 564.5,458.8 c 0,0.2 -0.2,0.4 -0.4,0.4 -0.2,0 -0.4,-0.2 -0.4,-0.4 0,-0.2 0.2,-0.3 0.4,-0.3 0.2,0 0.4,0.2 0.4,0.3 z"
     id="path582" /><path
     class="st13"
     d="m 574,460.3 c 0,0.3 -0.2,0.5 -0.4,0.5 -0.2,0 -0.4,-0.2 -0.4,-0.5 0,-0.3 0.2,-0.5 0.4,-0.5 0.2,0 0.4,0.3 0.4,0.5 z"
     id="path584" /><path
     class="st13"
     d="m 580.3,456.2 c 0,0.2 -0.2,0.3 -0.4,0.3 -0.2,0 -0.4,-0.2 -0.4,-0.3 0,-0.2 0.2,-0.3 0.4,-0.3 0.2,0 0.4,0.1 0.4,0.3 z"
     id="path586" /><path
     class="st13"
     d="m 544.4,458.1 c 0,0.2 -0.2,0.4 -0.4,0.4 -0.2,0 -0.4,-0.2 -0.4,-0.4 0,-0.2 0.2,-0.4 0.4,-0.4 0.2,0 0.4,0.2 0.4,0.4 z"
     id="path588" /><path
     class="st27"
     d="m 368.1,484.8 -12,-9.1 c 0,0 1.6,-75.6 74.6,-76.8 73.1,-1.2 76.1,65.7 75.2,75.9 -0.9,9.4 -137.8,10 -137.8,10 z"
     id="path590" /><path
     class="st15"
     d="m 371.6,489.1 c 11.3,3.5 53.1,9.8 93.8,4.3 40.7,-5.5 40.5,-18.6 40.5,-18.6 l -150.6,1 c 0,0 2.1,8.9 16.3,13.3 z"
     id="path592" /><path
     class="st13"
     d="m 356.2,474.8 c -4.1,2.5 11.8,9.1 43.4,11 24.7,1.5 49.5,3.5 89.4,-4.2 10.4,-2 16.8,-6.8 16.8,-6.8 0,0 -12.8,-9 -40.9,-9 -28,0 -94.2,0.2 -108.7,9 z"
     id="path594" /><path
     class="st10"
     d="m 442,430.8 17,-15.7 c 0,0 -5.6,-2.8 -4.6,-7.1 1,-4.3 4.6,-3.8 6.6,-1.5 2,2.3 1.8,5.3 1.8,5.3 0,0 3.3,-2 6.8,0.3 3.5,2.3 5.1,6.1 1,8.1 -4,2 -8.2,-2.1 -8.2,-2.1 l -11,13.3 z"
     id="path596" /><path
     class="st28"
     d="m 444,427.2 c 0,0 4.8,-6.6 6.9,-6 1.2,0.3 -0.6,4 -0.6,4 0,0 3.7,-2.6 4.6,-1.8 0.7,0.6 -1.1,3.5 -1.1,3.5 0,0 2,-1.1 2.3,-0.6 0.9,2 -5.4,7.2 -5.4,7.2 z"
     id="path598" /><path
     class="st4"
     d="m 374.1,472.5 c 0.5,2.2 16.1,6.3 22.7,7.6 4.2,0.9 31.8,6.3 48.7,3.8 17,-2.5 28.6,-13.4 23,-36.5 l -4.5,3.6 0.2,-10.4 c 0,0 -8.8,-17.9 -30.6,-15.9 -21.8,2 -45.8,26.3 -48.8,29.9 -3.8,4.5 -9.1,6 -9.4,7.5 -0.2,1.2 5.3,2.6 5.3,2.6 0,0 -6.4,-0.2 -6.3,1.8 0.1,1.9 5.5,2.7 5.5,2.7 0,0 -6.2,1.3 -5.8,3.3 z"
     id="path600" /><path
     class="st29"
     d="m 427.1,460.9 c -1.3,-5.8 -5.8,10.1 -10.9,11.4 -5.1,1.3 -14.2,-2.5 -18.2,0.8 -4,3.3 -3.8,6.7 -0.7,8.6 4.7,2.9 14.1,3.8 21.8,3.1 7.4,-0.9 9.2,-18.1 8,-23.9 z"
     id="path602" /><path
     class="st10"
     d="m 460.6,442.6 18.2,-10.9 c 0,0 -3,-4.6 0,-7.9 3,-3.3 6.8,-1.3 6.8,1.8 0,3.1 -1,7.1 -1,7.1 0,0 5.6,0 7.1,5.6 1.5,5.6 -6.1,5.3 -7.8,3 -1.8,-2.3 -3,-4 -3,-4 l -15.4,12.2 z"
     id="path604" /><path
     class="st29"
     d="m 436.7,474.3 c 5.8,5.7 19.9,0.7 27.3,-13.9 7,-13.8 9.5,-17 7.7,-17.1 -0.9,-0.1 -3.7,1.5 -3.7,1.5 0,0 3,-2.5 2.5,-3.5 -0.6,-1.3 -5.3,0.1 -5.3,0.1 0,0 3.3,-1.9 2.6,-2.9 -0.7,-1 -11.4,1.1 -21,5.9 -9.7,4.7 -22.8,17.5 -10.1,29.9 z"
     id="path606" /><path
     class="st15"
     d="m 430.7,398.9 c 1.9,0 3.2,0 5.1,0 0.3,-0.9 4.9,-9.9 3.3,-11.7 -1.6,-1.8 -14,-1.7 -15.4,0.5 -1,1.5 1.7,8 3.6,11.3 1.1,-0.1 2.2,-0.1 3.4,-0.1 z"
     id="path608" /></g>
</svg>
