<svg width="165" height="157" viewBox="0 0 165 157" fill="none" xmlns="http://www.w3.org/2000/svg">
<path d="M130.332 126.586C141.41 115.721 126.285 108.421 120.727 109.279C114.47 110.329 105.92 115.419 103.266 121.512C100.252 128.421 103.018 139.717 112.046 140.759C114.091 140.833 117.208 138.995 117.979 136.757C116.805 136.691 113.566 135.213 113.704 132.454C113.884 129.134 116.35 127.105 120.472 127.641C123.954 128.13 126.342 132.43 127.259 135.544C128.564 140.054 125.906 144.352 122.306 146.928C114.893 152.043 105.18 151.595 99.1914 144.443C93.9733 138.29 91.7386 131.362 92.9722 123.428C94.2796 115.259 102.339 108.287 109.028 104.375C114.797 100.983 121.683 98.5952 128.458 100.671C136.198 103.016 143.489 109.646 143.545 118.467C143.604 125.464 137.122 135.902 128.862 134.445C126.001 134.013 120.28 130.942 120.134 127.399C119.765 122.373 123.084 121.458 126.214 121.766C129.086 122.027 130.673 124.353 130.332 126.586Z" fill="#DB7A1C"/>
<path d="M95.9535 110.639C82.003 95.5185 54.9767 68.8242 51.0901 63.7122C52.0253 63.0055 57.2723 56.5652 58.0194 56.4312C59.2448 56.2877 105.793 102.105 105.242 103.573C104.969 104.426 102.757 105.422 102.057 106.139C101.07 106.992 100.327 108.079 99.5278 109.073C98.7284 110.067 97.1426 112.518 96.4235 110.406" fill="#DB7A1C"/>
<path d="M61.0385 58.553C59.9303 58.1539 57.6992 60.0025 56.9054 60.5852C55.7651 61.4161 54.9615 62.2979 54.1176 63.4079C53.4597 64.2779 52.9236 64.7811 51.8559 64.2174C50.4773 63.4981 49.4583 62.0895 48.2656 61.1301C45.67 59.0329 43.3872 56.6316 41.1571 54.3384C36.7018 49.9913 32.7238 45.3806 28.31 41.123C27.7805 40.5646 27.218 40.1408 26.7451 39.6756C28.9534 37.7262 31.7011 29.8312 34.6877 32.4688C38.2412 35.7058 43.8431 41.5881 46.9648 45.2269C47.8663 46.2734 51.9792 50.0762 53.0228 51.1259C53.8862 52.0044 58.5173 56.347 59.0088 56.801C59.6278 57.3179 60.2636 58.2834 61.0385 58.553Z" fill="#DB7A1C"/>
<path d="M52.3374 53.2745C53.6743 52.0951 54.5507 50.7233 55.9887 49.5846C57.8776 48.0964 65.3648 41.0635 67.5819 39.402C66.3852 38.394 65.1064 37.3977 64.0549 36.2508C65.1405 34.8669 66.6119 33.6571 68.1429 32.3984C69.3647 33.1745 71.5645 35.3967 72.9476 36.2917C76.0972 33.288 84.0987 26.7464 84.3302 25.8034C82.6609 24.3938 77.4886 19.347 76.4025 18.8582C74.9992 20.2434 68.9483 25.7564 67.0371 27.2708C66.6086 27.5941 65.6861 28.6372 64.7458 29.0411C63.9964 28.6032 63.005 27.5346 62.1757 26.7756C64.6666 24.4513 67.278 22.3469 69.6228 19.9709C70.5533 19.025 71.4988 18.0828 72.4293 17.1369C73.6092 15.9507 73.6092 15.9507 72.2733 14.734C71.1363 13.6772 66.7948 8.86616 66.0394 8.77591C63.9101 10.8557 61.9554 12.6769 60.8198 13.7471C58.5933 15.8348 56.9051 17.9277 54.2318 20.4135C55.1454 21.6694 58.0721 23.3877 58.5556 24.5855C58.0355 25.3465 56.9593 26.3042 55.7505 27.7373C54.5431 26.8378 52.8336 25.6563 51.5442 24.832C49.6528 26.5893 41.7326 34.6744 40.8622 35.6985C40.5275 36.0924 38.8196 37.9425 37.7996 38.9299C37.3826 39.3353 52.3899 53.3191 52.3374 53.2745Z" fill="#DB7A1C"/>
<path d="M99.3549 113.855C97.2175 115.774 94.7518 112.566 96.2729 109.861C97.4564 107.755 101.529 104.74 103.459 103.214C105.56 101.572 109.921 103.785 107.566 106.523C105.766 108.621 99.3549 113.855 99.3549 113.855Z" fill="#F39200"/>
<path d="M56.027 70.4308C54.6607 69.9843 51.517 66.4353 50.8602 64.9093C51.2826 64.0291 59.5794 56.6078 60.057 56.4076C61.3704 56.746 65.477 60.8329 65.8035 62.0239C64.2629 63.6452 57.3081 70.1899 56.027 70.4308Z" fill="#F39200"/>
<path d="M24.6503 39.4787C22.8498 37.1164 25.9046 33.7879 27.8833 32.3218C29.9919 30.6494 32.9309 28.2447 34.7001 30.2819C37.0704 33.0379 34.2698 35.4608 32.006 37.5711C30.3677 39.0732 26.8303 42.2991 24.6503 39.4787Z" fill="#F39200"/>
<path d="M25.5281 36.6155C23.9774 34.9811 22.4163 31.773 24.3671 29.9033C26.4185 27.9471 28.7847 27.0998 32.1062 31.1527C31.9218 33.5196 27.0152 37.3456 25.5281 36.6155Z" fill="#DB7A1C"/>
<path d="M23.3313 30.5058C23.8274 31.1355 24.0406 31.1719 24.4747 31.2785C25.2364 31.0846 26.4281 30.0442 26.3288 29.5437C26.2526 29.2076 26.2177 28.8975 25.6394 28.2795C24.558 27.1253 22.2378 29.1424 23.3313 30.5058Z" fill="#F39200"/>
</svg>
