<?xml version="1.0" encoding="utf-8"?>
<!-- Generator: Adobe Illustrator 26.2.1, SVG Export Plug-In . SVG Version: 6.00 Build 0)  -->
<svg version="1.1" id="Capa_1" xmlns="http://www.w3.org/2000/svg" xmlns:xlink="http://www.w3.org/1999/xlink" x="0px" y="0px"
	 viewBox="0 0 276 156" style="enable-background:new 0 0 276 156;" xml:space="preserve">
<style type="text/css">
	.st0{fill:#F39200;}
	.st1{fill-rule:evenodd;clip-rule:evenodd;fill:#FFDE00;}
	.st2{fill-rule:evenodd;clip-rule:evenodd;fill:#F39200;}
	.st3{fill-rule:evenodd;clip-rule:evenodd;fill:#FFE971;}
	.st4{fill:#FFFFFF;}
	.st5{fill:#FBBA00;}
	.st6{fill:#2FAC66;}
	.st7{fill:#C4C0B4;}
	.st8{fill:#DAD8CC;}
</style>
<g>
	<path class="st0" d="M249.1,128.7c0,0-3.9,4.9-1.9,8.2c1.9,3.3,5.2,6.2,5,7.2c-0.3,1.8-7.7,9.5-9.1,10.5c-1.3,1-0.7-1.1-0.8-2.4
		c-0.1-1.3-2.7-1-3.3-1.1c-0.6,0-0.9-1.1-1.3-2.8c-0.4-1.7-2.8-1.2-2.9-1.8c-0.2-0.6,10.6-2.7,12.1-3c0.7-0.1-1.7-2.5-3.1-5
		c-1.6-2.9,1.4-8.9,1.4-8.9L249.1,128.7z"/>
	<path class="st0" d="M233.9,128.5c0,0-2,3.1-3.5,6.9c-1.9,4.8-0.2,10.9-2.6,11.9c-1.7,0.7-10.5,0.3-12.2,0.1
		c-1.7-0.2,0.3-1.3,1.2-2.3c0.8-1-1.2-2.7-1.5-3.1c-0.4-0.4,0.2-0.6,1.1-2c0.9-1.5,0-3.1,0.2-3.6c0.3-0.5,8.4,5.1,9.6,6
		c0.6,0.4-0.7-4.5,0.5-8.1c1.2-3.5,3.2-6.1,3.2-6.1L233.9,128.5z"/>
	<path class="st1" d="M211.7,97.3c-2.5,13.8-0.9,33.9,23.5,36.7c50.4,5.8,39.9-42.4,39.9-42.4s-8.3,5.5-19.5,5.1
		c-18-0.6-11.5-12.8-15.6-19.3C231,63,208.7,72,211,86C211,86,213.1,89.7,211.7,97.3z"/>
	<path class="st2" d="M213.7,89.6c0,3.8-1.6,5.6-1.6,5.6s-9.1-4.1-12.7-7.6c-1.7-1.6-1.9-4.7,2.2-4.5c7.9,0.3,10-3.2,10-3.2
		S213.8,83.9,213.7,89.6z"/>
	<path class="st3" d="M266.4,101.5c0,0-6,3.4-15.9,3.4c-8.4,0-11.7-3.4-16.1,0c-4.5,3.6-4.9,15.6,13.5,14.5
		C265.4,118.5,266.4,101.5,266.4,101.5z"/>
	<path class="st4" d="M228.7,82.1c-0.8-3-3.4-5-6.7-4.1c-3.2,0.8-4.8,3.5-4,6.5c0.8,3,3.3,4.7,6.5,3.9
		C227.8,87.5,229.6,85.1,228.7,82.1z"/>
	<path d="M222.9,83.1c-0.1-0.5-0.7-0.8-1.2-0.7c-0.5,0.1-0.9,0.7-0.7,1.2c0.1,0.5,0.6,0.9,1.2,0.7C222.7,84.2,223,83.6,222.9,83.1z"
		/>
	<path class="st5" d="M65.2,44.4c0,0-8,0.1-18.7-8.4C43.3,33.4,36,24.9,35.9,16.9c-0.1-8,9.5-0.1,14.1,1.3
		c4.6,1.5,17.5-1.3,17.5-1.3S65.3,27.9,65,31.5C64.8,34.7,65.2,44.4,65.2,44.4z"/>
	<path class="st5" d="M143.9,115.8c0,0,2.5,5.6,6.9,10c4.4,4.4,10.8,7.6,11,9.1c0.4,3-8.1,18.2-9.7,20.5c-1.6,2.2-1.6-1.5-2.3-3.5
		c-0.7-2-4.7-0.5-5.6-0.3c-0.9,0.2-1.9-1.4-3.3-3.9c-1.4-2.5-4.9-0.7-5.4-1.5c-0.5-0.8,15.6-8.8,17.8-10c1-0.5-3.7-3.2-7-6.6
		c-3.8-3.8-7.7-11.3-7.7-11.3L143.9,115.8z"/>
	<path class="st5" d="M116.9,119c0,0-2.8,5.4-4.6,11.8c-2.3,8.2-1.2,17.2-5,19.2c-2.7,1.4-17,2.2-19.8,2.2c-2.8-0.1,0.3-2.1,1.5-3.9
		c1.2-1.8-2.3-4.1-3-4.7c-0.7-0.6,0.2-0.9,1.4-3.5c1.2-2.6-0.5-5-0.2-5.9c0.4-0.9,14.5,6.9,16.7,8.1c1.1,0.6,1-6.6,2.3-12.6
		c1.3-5.9,4.1-10.5,4.1-10.5L116.9,119z"/>
	<path class="st6" d="M68.1,71.2l56.1-17.6c0,0-5.3-2.8-5.6-20.4c-0.8-43-47.2-39.6-52.6-15.9C61.3,38.3,68.1,71.2,68.1,71.2z"/>
	<path class="st7" d="M123,53.3c0,0,18.3,15.4,42.8,11.9c11.1-1.6,16.7-9,20.9-10.3c3.4-1-2.3,6.4-2.3,6.4s7.2-6.5,9.6-6.5
		c2.4,0-3.9,9.7-3.9,9.7s4.8-4.1,8-3.4c3.2,0.7-13.2,36.3-33.1,51.8c-19.9,15.5-51.5,15.9-74.8,5C57,102.5,67.5,67.3,67.5,67.3
		L123,53.3z"/>
	<path class="st4" d="M101.9,57.7c18.4-5.5,19.8-12.3,19.8-12.3l2.6,8.2c0,0-5.7,10.4-26.9,14.9c-9.3,2-31.2,5.5-31.2,5.5l-0.1-11.5
		C66.1,62.6,93.7,60.1,101.9,57.7z"/>
	<path class="st4" d="M93.5,20.4c-0.7-4.7-4.1-8.1-8.8-7.4c-4.7,0.7-7.4,4.5-6.7,9.2c0.7,4.7,3.9,7.7,8.6,7
		C91.3,28.4,94.2,25.1,93.5,20.4z"/>
	<path d="M85,20.8c-0.1-0.8-0.8-1.3-1.6-1.2c-0.8,0.1-1.3,0.8-1.2,1.6c0.1,0.8,0.6,1.4,1.6,1.3C84.6,22.5,85.1,21.6,85,20.8z"/>
	<path class="st8" d="M118.6,70.9c-9.4,8.1-4.1,24.9,18,28.2c22.1,3.3,31-21.6,33.3-29.4c2.3-7.8-7.6,4-22.8,3.3
		C135.9,72.4,127.8,63,118.6,70.9z"/>
	<path class="st0" d="M53.2,128.1c0,0,1.7,3.7,4.6,6.7c3,2.9,7.2,5.1,7.4,6.1c0.3,2-5.4,12.2-6.5,13.7c-1.1,1.5-1.1-1-1.6-2.3
		c-0.5-1.3-3.2-0.3-3.7-0.2c-0.6,0.1-1.3-0.9-2.2-2.6c-1-1.6-3.3-0.5-3.6-1c-0.4-0.5,10.4-5.9,11.9-6.6c0.7-0.4-2.5-2.1-4.7-4.4
		c-2.5-2.6-5.1-7.6-5.1-7.6L53.2,128.1z"/>
	<path class="st0" d="M41.4,129c0,0-1.9,3.6-3.1,7.9c-1.5,5.5-0.8,11.4-3.4,12.8c-1.8,1-11.4,1.5-13.2,1.4c-1.9,0,0.2-1.4,1-2.6
		c0.8-1.2-1.5-2.7-2-3.2c-0.5-0.4,0.1-0.6,0.9-2.3c0.8-1.7-0.4-3.3-0.1-3.9c0.2-0.6,9.7,4.6,11.1,5.4c0.7,0.4,0.7-4.4,1.5-8.4
		c0.9-3.9,2.7-7,2.7-7L41.4,129z"/>
	<path class="st1" d="M14.7,94.5c-2.8,15-1,36.9,25.6,40c55,6.4,43.5-46.3,43.5-46.3s-9.1,6-21.3,5.6c-19.6-0.7-12.6-13.9-17-21
		c-9.8-15.6-34.1-5.8-31.5,9.4C13.9,82.2,16.2,86.3,14.7,94.5z"/>
	<path class="st2" d="M16.8,86.1c0,4.1-1.8,6.1-1.8,6.1s-9.9-4.5-13.8-8.3c-1.8-1.8-2.1-5.1,2.4-4.9c8.6,0.3,10.8-3.4,10.8-3.4
		S16.9,79.9,16.8,86.1z"/>
	<path class="st3" d="M74.3,99.2c0,0-6.6,3.7-17.3,3.7c-9.1,0-12.7-3.8-17.5,0c-4.9,3.9-5.3,17.1,14.7,15.8
		C73.2,117.6,74.3,99.2,74.3,99.2z"/>
	<path class="st4" d="M33.2,78c-0.9-3.3-3.8-5.4-7.3-4.5c-3.5,0.9-5.2,3.8-4.3,7.1c0.9,3.3,3.5,5.1,7,4.2C32.2,84,34.1,81.3,33.2,78
		z"/>
	<path d="M26.9,79.1c-0.1-0.6-0.7-0.9-1.3-0.7c-0.6,0.1-0.9,0.7-0.8,1.3c0.1,0.6,0.6,1,1.3,0.8C26.7,80.2,27,79.6,26.9,79.1z"/>
</g>
</svg>
