<?xml version="1.0" encoding="utf-8"?>
<!-- Generator: Adobe Illustrator 25.3.1, SVG Export Plug-In . SVG Version: 6.00 Build 0)  -->
<svg version="1.1" id="Layer_1" xmlns="http://www.w3.org/2000/svg" xmlns:xlink="http://www.w3.org/1999/xlink" x="0px" y="0px"
	 viewBox="0 0 989 707" style="enable-background:new 0 0 989 707;" xml:space="preserve">
<style type="text/css">
	.st0{fill:#1B8A4F;}
	.st1{fill:#2FAC66;}
	.st2{fill-rule:evenodd;clip-rule:evenodd;fill:#219959;}
	.st3{fill:#814114;}
	.st4{fill-rule:evenodd;clip-rule:evenodd;fill:#1B8A4F;}
	.st5{fill-rule:evenodd;clip-rule:evenodd;fill:#814114;}
	.st6{fill:#A85318;}
	.st7{fill:#DB7A1C;}
	.st8{fill:none;stroke:#A85318;stroke-width:0.867;stroke-linecap:round;}
	.st9{fill:#F39200;}
	.st10{opacity:0.6;}
	.st11{opacity:0.6;fill:#DAD8CC;enable-background:new    ;}
	.st12{fill:#FFDE00;}
	.st13{fill:none;stroke:#000000;stroke-width:0.434;stroke-linecap:round;stroke-linejoin:round;stroke-miterlimit:10;}
	.st14{fill:#FFFFFF;}
	.st15{clip-path:url(#SVGID_2_);}
	.st16{fill:#2BB673;}
</style>
<path class="st0" d="M0,707c0-159,128.8-152,196.8-152c416.7,0,758.5,72.2,792.2,164H0V707z"/>
<path class="st1" d="M473.6,224c-17.6-0.6-52.6,5.3-80.8,25c-33.3,23.2-42.5,38.5-51,77.8c-8.5,39.3,3.6,69.9,21.5,96.6
	c17.9,26.7,29.5,54.5,111.3,67.8c46.3,7.5,121.5-21.9,135.1-82.9c13.7-61-2.6-103.5-18.2-119.4C576,273.2,550.8,226.7,473.6,224z"/>
<path class="st2" d="M838.4,496.7c0,0-2.4-5.1-30.8,0c-106.8,19-188-31.1-176.4-32.9c63.8-9.9,114.7-23.8,107-28.6
	c-7.7-4.7-107.7-13.6-88.7-16.1c25.6-3.4,98.8-35.2,90.4-37.5c-9-2.5-94.3-5.5-77.7-12.1c61-24.2,85-49.1,77.4-46.5
	c-7.6,2.6-69.1,9.9-57.7,1.8c37.6-26.9,69.1-77.7,69.1-77.7s-36,10.9-48.9,13.8c-12.9,3-5.3-4,19.1-25.1c23.2-20.1,43-49.4,43-49.4
	s-7.2-0.9-26.6,0c-19.4,0.9-17.4,3.3,0-16.9c17.4-20.2,62.5-64.2,53.3-67.8c-9.2-3.6-55.2,24.8-46.5,15.4
	c24.2-26.2,82.8-99.9,85.4-92.7c2.6,7.1,28.7,42,46.5,65.7c17.9,23.8,53.1,44,36.1,42.8c-16.9-1.2-47.2-15.8-47.2-15.8
	s15.8,44.3,27.6,55c11.8,10.7,25,22.6,7.9,21.4c-17.1-1.2-47.3-15.4-39.4-4.8c7.9,10.7,66.5,53.8,55.6,55.4c-10.9,1.7-49-8.5-49-8.5
	s33.9,48.2,44.5,55.3c10.7,7.1,23.8,13.7,12,15.7c-11.8,2.1-48.1-6.7-48.1-6.7s27.7,48.1,65.2,70.5c4.6,2.7-31.5,3.4-48.6,0
	c-17.1-3.4-23.6-7.3-22.3,0c1.3,7.3,64.4,34.7,89.3,50.3c17.2,10.7-77.5-2.8-83.5,0c-6.6,3.1,54.8,49,109.4,54.5
	c16.3,1.7-28.5,14.2-61.4,21.4C891.3,503.9,838.4,496.7,838.4,496.7z"/>
<path class="st3" d="M789.6,455.9c-0.5-27.6,2-81.8,2-81.8L750,333.3l5.5-6.8c0,0,4.4,1,15.6,9.5c11,8.4,25.2,16.9,25.2,16.9
	s0.8-16.2,1.6-27.1c1.6-20.3-5.5-18.3-5.5-18.3s-6.3-4.6-15-10.8c-8.8-6.2-15.8-12-15.8-12l6.9-7.4c0,0,9.8,4.6,17.3,9.5
	c6.8,4.4,13.7,0.7,13.7,0.7s0.1-45,0.8-62.6c0.6-16.2,3.1-36.6,0.4-45.3c-2.7-8.8-20.2-35.4-20.2-35.4l4.6-8.4c0,0,4.4,2.9,8.5,8.9
	c4.1,6,16.1,21.1,16.1,21.1s5.1-11.5,11.3-23.1c7.5-14,3.5-16.1,11.6-14c8.8,2.3,6.2,3.6,2.1,14.9c-4.6,12.7-6.4,17.7-9.7,24.8
	c-2.6,5.6-0.7,29.8-0.7,29.8s-0.6,53.1,1.6,53.9c9.8,3.6,37.3-2.8,37.3-2.8l-0.3,8l-38.1,12.2l3.7,340.5l-41.6-1.5
	C786.7,608.5,790.1,482.6,789.6,455.9z"/>
<path class="st4" d="M599.2,499c-14.9,0-69.9-19-85.8-59.4c-15.9-40.4-2.9-127.9,7.5-164.8C531.4,237.9,598.7,58,598.7,58
	s20.8,41.2,38.2,69.2c17.5,27.9,69.7,139.7,79.7,181.6c10,41.9,10.4,117.1-15.6,149.4C668.2,499,642.7,491.2,599.2,499z"/>
<path class="st5" d="M473.8,610.3c0,0,0.7-51.7,0.7-72.9c0-21.2,3.6-63-0.7-66c-4.3-3-13-5.2-23.3-9.5c-10.3-4.3-22.5-6.1-31-6.8
	c-8.6-0.7-9.8-0.8-9.8-0.8l2-9.2c0,0,1.4-0.5,8.6,0c7.1,0.4,9.3,0.9,12.8,1.2c6.7,0.6,10.9,3.8,10.7-0.1c-0.2-3.9-1.4-19.6,2.1-18
	c3.6,1.6,5.7,2.2,5.7,2.2s2.1,6.2,2.6,11.4c0.6,6.3,0.3,8.2,0.3,8.2s8.4,2.9,13.4,3.9c4.3,0.9,5.8,0.2,5.9-8.8
	c0.1-12.4,2.9-43.8,0.7-51.8c-2.1-8-6.6-11.9-13.1-14.2c-4.2-1.5-14.4-3.7-21.7-7.2c-7.3-3.5-12.3-3.6-12.3-3.6l0.7-6.9
	c0,0,10.1,1.7,13.5,2.9c3.4,1.2,15.4,5.1,15.4,5.1s-6.1-14.6-6.1-16.6c0-2-0.7-10.5-0.7-10.5h5.5l1.7,9.1h10.7l2.1,3.2l-8.6,3.8
	l4.8,11.2l9.4,3.8c0,0-1.4-37.7-2.9-49.9l-1.4-12.2c0,0-9.3-5-14.3-7.1c-5-2.1-17.7-5.7-17.7-5.7l0.2-6.7l17.1,5.3
	c0,0-2.5-2.6-4.6-6.7c-2.1-4-0.4-4-0.4-4l4.9-1.6l14,17.6c0,0-0.7-50.4-1.4-55.1c-0.7-4.7-18.6-18.3-18.6-18.3l2.6-3.8l3.8,1.6
	c7.8,4.3,12.8,9.5,15,10.4c2.1,1,19-34,22.7-36.2l3.7-2.1c7.1,3.6,5.7,8,5.7,8s-5.3,4.9-9.4,11.3c-4.1,6.4-5.7,8.8-5.7,8.8
	l11.5,10.2l-2.1,3.3c0,0-9.6-9.3-12.3-8.8c-2,0.4-3.4,15.4-3.4,15.4s6.4,34.8,6.4,44.3c0,9.5,2.6,20.9,5.6,23.4c3,2.5,6.6,0,6.6,0
	l-4.4-12.7h7.3l6.3,12.7c0,0,18.6-8.9,22.8-11.1c4.3-2.1,10.7,8.1,10.7,8.1s-2.9,1.1-8.6,2.9c-5.7,1.8-20,5.5-26.4,8.3
	c-6.4,2.8-14.4,7.9-14.4,10.8c0,5.1,3.1,48.1,3.9,59.5c0.8,11.4,0.3,34.4,0.3,34.4s9.8-6.6,17.5-11.4c7.7-4.8,19.1-11.7,19.1-11.7
	l2.9,4.7l-11.4,10.7c0,0,2.1,5.1,4.3,6.8l2.1,1.7l-4.3,5.1c0,0-4.9-4.2-6.7-6.8l-1.8-2.6l-20.7,20.3l6.4,165.2L473.8,610.3
	L473.8,610.3z"/>
<path class="st6" d="M516.2,340.7l21,11.7c0,0,10.4,2,15.9,3c5.1,0.9,17.6,3.5,17.6,3.5l4.4-23.1h4.9c0,0-2.9,23.5,0,25.2
	c2.3,1.4,17.6,6.2,27.1,8.6c2.2-21.4,4.6-45.1,4.6-47.9c0-2.7-7.5-7.5-13.5-10.1c-6-2.6-19.4-6.1-24.8-7.8c-5.4-1.7-8-2.7-8-2.7
	s6-9.7,10-7.7c4,2,21.5,10.4,21.5,10.4l5.9-11.9h6.9l-4.1,11.9c0,0,3.3,2.4,6.2,0c2.8-2.4,5.2-13.1,5.2-22s-0.1-13-0.1-13
	c-2.5-0.5-12.9,4.4-12.9,4.4l-2-3.1l12.5-7.9c0,0-3.1-4-6.9-10c-3.9-6-3.7-5.8,3-9.1c0,0,4.3,6.6,7.7,11.8
	c2.2,3.4,8.4,14.8,10.6,15.2c2.2,0.4,3-0.1,9-2.2l5.7-1.4l2.2,4.9c0,0-13.5,3.6-14.2,8.1c-0.7,4.4-1.3,38.3-1.3,38.3l13.1-16.6
	l4.7,1.5c0,0,1.7-0.1-0.3,3.7c-2,3.8-4.3,6.3-4.3,6.3l16.1-5l0.2,6.3c0,0-11.9,3.3-16.6,5.3c-4.7,2-13.4,6.7-13.4,6.7l-1.3,11.5
	c-1.3,11.5-2.7,46.9-2.7,46.9l16.9-6.3l4.5-10.5l-8-3.5l2-3h10l8.2-12l5.2,2.5c0,0-7.3,9-7.3,10.8c0,1.8-5.7,15.6-5.7,15.6
	s11.3-3.7,14.5-4.8s42.3-10.1,42.3-10.1l0.7,9.2c0,0-24.9,8.8-31.7,12c-0.3,0.2-0.7,0.3-1,0.5c0.5,0.4,1.1,0.8,1.7,1.3
	c5.9,5.2,14.5,8.1,14.5,8.1l-3.2,8.1c0,0-15.6-9.7-22.6-14.1c-4,1.2-17.2,6.2-19.3,6.9c-6.1,2.2-18.3,7.2-20.4,14.7
	c-2,7.5,0.6,30.3,0.7,41.9c0.1,8.5,1.5,9.1,5.5,8.3c4.7-0.9,12.5-3.7,12.5-3.7s-0.3-1.8,0.2-7.7c0.4-4.9,2.4-10.7,2.4-10.7l5.4-2.1
	c0.9,2.9,1.1,9.1,0.9,12.8c-0.2,3.7,8.9,1.6,13.1-0.6c2.9-1.6,9.8-5.5,19.5-8.9c6.3-2.2,15-4.5,15-4.5l3.3,7.8
	c0,0-13.4,4.9-22.7,10.1c-0.9,0.5-1.9,1-2.9,1.5l11.8,2.7l-3,5.3c-0.7-0.3-3.8-0.3-7.4-1.5c-4.1-1.4-8.1-1.7-10.2-2.3
	c-7.8,3.5-14.1,5.8-21.8,9.4c-9.5,4.4-17.8,6-21.8,8.9c-4,2.9-0.7,84.3-0.7,104.2c0,19.9,0.7,29.5,0.7,29.5h-30.8l6-158.5l0.9-15.8
	c0,0-0.4-21.6,0.3-32.3c0.2-2.7,0.8-8.9,1.6-16.8c-11.8-3.6-30.2-10.7-40.8-13.6c-13.5-3.6-16.5-6.9-20.8-4.8
	c-4.3,2.1-3.9,20.9-5.3,23l-5.8-2.1v-12.7h-12.3l-1.9-4.2l14.2-2.1v-12.6c0,0-19-10-19.4-12.3C512.9,343,516.2,340.7,516.2,340.7z"
	/>
<path class="st7" d="M446.3,384.6c-0.2-3-1.4-10.6-5.7-14.3c-6.8-5.9-21.1-7.3-28.7-1.6c-4.7,3.5-9.7,9.6-9.5,16.5
	c-8.4-1.1-12,5.5-9.4,11.9c-9.7,0-14.3,13-8,16.9c-8.6,0.3-10,16.5-0.4,19.3c0.6-1.2-1.7,5.4,2,10.9c2.7,3.9,6.2,6.6,12.9,7.2
	c0.9,7.4,10.1,14,14.7,14.8c10,1.8,21.4,0.6,27.5-5.4c3.9-3.7,6.8-8.1,7.3-13.8c3.7-0.9,6.9-2.9,8.9-6.7c1.9-3.7,1.7-7.4,0.6-11
	c3.4-0.9,6.7-4.3,7.2-8.1c0.6-4.3-0.7-8.6-4.7-9.6c7.2-7.2-1.7-14.5-4.9-14.5C458.7,389.6,449.7,384.1,446.3,384.6z"/>
<path class="st8" d="M393.1,396.9c0,0,15,7.2,35,5.7c15.8-1.1,24.3-4.6,24.3-4.6"/>
<path class="st8" d="M384.8,413.5c0,0,30.5,5.3,46.9,4.5c16-0.8,25.2-6,25.2-6"/>
<path class="st8" d="M385.8,433.2c0,0,23.4,4.4,39.2,2.7c19.2-2,28.3-5.7,28.3-5.7"/>
<path class="st8" d="M399.7,451.2c0,0,15.3,4,28.4,1.5c13.1-2.5,17.1-4.9,17.1-4.9"/>
<path class="st3" d="M413.8,417.2c-1.9,4.6-1.8,10-1.2,12.4c3.6,12.2,20.8,9.2,21.2-1.2c0.2-3.8-1.2-10.5-3.4-13.7
	c-2.2-3.4-8.3-5-11.9-2.4C418.4,412.2,415,414.3,413.8,417.2z"/>
<path class="st6" d="M415.6,387.3l-1.9-3.7l2.5-3.3l3.9,0.5l1.9,3.7l-2.8,3.5L415.6,387.3z"/>
<path class="st7" d="M427.6,388.7l-1.8-3.9l2.1-3.6h3.8l2.5,3l-2.2,4.5L427.6,388.7z"/>
<path class="st9" d="M412.6,387.4l2.8-0.6l-1.8-3.2l-3.3-1l-3,2.8l2.7,1.2L412.6,387.4z"/>
<path class="st6" d="M421.7,384.5l-1.9-3.7l2.2-3.5l4.1,0.2l1.9,3.7l-2.2,3.5L421.7,384.5z"/>
<path class="st6" d="M422.6,371.3l-1.2-3.6l1.7-2.1l3.5,0.2l2.2,2.4l-2.4,3.4L422.6,371.3z"/>
<path class="st7" d="M422.2,377.4l-1.4-3.1l1.8-2.9l3.7,0.1l1.4,2.7l-1.8,3.5L422.2,377.4z"/>
<path class="st9" d="M416.2,380.3l-1.2-3.7l2.4-3.4l3.5,1l1.4,3.1l-2.2,3.5L416.2,380.3z"/>
<path class="st9" d="M417.3,373.3l-2-3.3l2.6-3.1l3.4,0.9l1.2,3.6l-1.8,2.9L417.3,373.3z"/>
<path class="st9" d="M438.4,373.4l-2.6-2.7l0.8-3l3.2,1.7l2.5,2.6l-0.3,1.6L438.4,373.4z"/>
<path class="st9" d="M427.9,381.1l-2-3.4l1.8-3.5l3.2-0.3l2.8,3.4l-2,3.8H427.9z"/>
<path class="st6" d="M433.8,377.3l-2.8-3.4l1.4-3.3l3.5,0.1l2.6,2.7l-1.1,3.9L433.8,377.3z"/>
<path class="st6" d="M440.8,387.4l-3.3-3.4l1.8-4.3l3.4-0.8l2.6,3l-0.8,4.1L440.8,387.4z"/>
<path class="st6" d="M415,376.6l2.4-3.3l-2-3.3h-3.1l-1.8,2.7l1.3,3.6L415,376.6z"/>
<path class="st6" d="M407.3,385.6l3-2.9l-1-3.2l-3-0.5l-2.7,2.5l0.2,3.6L407.3,385.6z"/>
<path class="st9" d="M433.9,384.5l-2.2-3.4l2-3.8l3.5-0.1l2,2.6l-1.8,4.4L433.9,384.5z"/>
<path class="st7" d="M413.7,383.6l2.5-3.3l-1.2-3.7l-3.3-0.4l-2.4,3.3l1,3.2L413.7,383.6z"/>
<path class="st8" d="M402.5,385c0,0,14.9,3.6,27,3.7c7.9,0.1,14.4-2.6,14.4-2.6"/>
<path d="M466.9,452.3c0.5,1,4.4,2.2,5.8,3.1c-1.3,0.1-3.4-0.3-4.7-0.5c-1-0.2-1.9-0.5-2.9-0.6C464.9,454.3,466.3,452.4,466.9,452.3z
	"/>
<g class="st10">
	<g class="st10">
		<path class="st11" d="M453.3,444c-0.2-2,1.2-8.1,9.9-15.2c1.9-1.6,10-5.9,11.5-4.6c0.7,0.6,3.2,4.3-5.8,12.9
			c-3.5,3.3-10.1,5.8-14.7,6.8C453.6,443.9,453.4,444.1,453.3,444z"/>
	</g>
</g>
<path class="st12" d="M454.7,446.3c2.2-5.4,7.1-8.5,10.8-7c3.7,1.5,4.9,7.2,2.7,12.6c-2.2,5.4-7.1,8.5-10.8,7
	C453.7,457.3,452.5,451.7,454.7,446.3z"/>
<path d="M451.7,446.6c2-4.9,6.7-7.6,10.4-6.1c3.7,1.5,5.1,6.8,3.1,11.7c-2,4.9-6.7,7.6-10.4,6.1
	C451.1,456.7,449.7,451.5,451.7,446.6z"/>
<path class="st12" d="M448.2,444.4c2.2-5.4,7.1-8.5,10.8-7c3.7,1.5,4.9,7.2,2.7,12.6c-2.2,5.4-7.1,8.5-10.8,7
	C447.2,455.4,445.9,449.8,448.2,444.4z"/>
<path d="M443.9,442.1c2.2-5.4,7.1-8.5,10.8-7c3.7,1.5,4.9,7.2,2.7,12.6c-2.2,5.4-7.1,8.5-10.8,7
	C442.9,453.2,441.6,447.5,443.9,442.1z"/>
<path class="st13" d="M447.6,436.6c0,0,1.5-6,1.2-6.4c-0.3-0.5-2.5-0.1-2.5-0.1"/>
<path class="st13" d="M443.8,437c0,0-0.3-6.1-0.8-6.5c-0.5-0.3-2.4,0.7-2.4,0.7"/>
<g class="st10">
	<g class="st10">
		<path class="st11" d="M454.6,444c-0.3,0,1.2-1.9,1.4-2.3c2-2.5,4.4-4.3,7.1-6c4.2-2.6,9-4.6,14-4.4c1.4,0,5.8-0.3,5.9,1.3
			C483.7,442.8,464.9,446.9,454.6,444z"/>
	</g>
</g>
<path class="st12" d="M453.2,443.2c-0.2-4.1-1.7-5.8-4-6.9c-3-1.5-8.9-1.4-11.3,2.2c-4.1,6-1.6,13.5,6.5,14.2
	C451,453.2,453.3,445.3,453.2,443.2z"/>
<path class="st14" d="M440.8,443.1c1.7,0.9,3.2,0.2,3.7-1.2c0.5-1.4-0.3-3.2-2.1-3.4C440.2,438.3,438.6,442,440.8,443.1z"/>
<path d="M441.1,440.8c0.3,0.1,0.6,0.1,0.7-0.2c0.1-0.3,0-0.6-0.3-0.7C441,439.9,440.6,440.6,441.1,440.8z"/>
<path class="st13" d="M438.7,449.2c0,0,0.9,0.5,1.9,0.2c1.8-0.6,1.5-2.3,1.5-2.3"/>
<path class="st13" d="M451.1,453.9c0,0,0.9,2,1.3,2.9c0.6,1.5,1.5,2,1.5,2"/>
<path class="st13" d="M455.5,455.1c0,0,0.4,1.4,0.8,2.4c0.6,1.4,1.9,2.2,1.9,2.2"/>
<path class="st13" d="M459.5,455.3c0,0,0.6,1.3,1.1,2.2c0.8,1.3,2.2,1.9,2.2,1.9"/>
<g>
	<defs>
		<rect id="SVGID_1_" x="53" width="637" height="46.4"/>
	</defs>
	<clipPath id="SVGID_2_">
		<use xlink:href="#SVGID_1_"  style="overflow:visible;"/>
	</clipPath>
	<g class="st15">
		<path class="st16" d="M54.1,41.2c-0.3-2.2-0.3-4.4-0.2-6.7c0.1-2.3,0.1-4.5,0.1-6.7c-0.1-2.1-0.2-4.1-0.3-6.1
			c-0.2-2-0.2-4-0.2-6.1c0-2.2,0-4.3,0-6.3c0-1.9-0.1-4-0.4-6.2c0.1-0.6,0.4-1.1,1-1.4c0.6-0.3,1.1-0.5,1.7-0.6
			c0.6-0.1,1.3-0.1,2.1,0c0.8,0.1,1.4,0.4,1.9,0.9c0,0.1,0,0.2,0,0.5c0,0.2,0,0.4,0,0.5c0.2,1.4,0.1,2.8-0.1,4.4
			c-0.2,1.6-0.3,3-0.2,4.4c0,0.2,0,0.7,0.1,1.8c0.1,1,0.1,2.2,0.2,3.5c0.1,1.3,0.2,2.6,0.2,4c0.1,1.3,0.1,2.4,0.2,3.2
			c0.1,1.9,0.2,3.7,0.2,5.4c0,1.8,0.1,3.6,0.3,5.4c0.1,0.7,0.4,1.2,1,1.3c0.5,0.1,1.1,0.2,1.7,0.1c0.6,0,1.2,0,1.7,0
			c0.5,0,0.8,0.4,0.9,1c0,1.2,0,2.2-0.1,3c-0.1,0.8-0.1,1.4-0.3,2.1c-0.1,0.6-0.3,0.9-0.6,0.9c0,0-0.1,0.1-0.2,0.1h-0.2
			c-1.5-0.1-3-0.1-4.5-0.2c-1.6-0.1-3.1-0.2-4.7-0.3c-0.5,0-0.8-0.2-1-0.4C54.3,42.1,54.2,41.7,54.1,41.2z"/>
		<path class="st16" d="M89.5,44.1c-0.2-0.1-0.4-0.2-0.6-0.4c-0.2-0.2-0.3-0.4-0.3-0.6l-1.4-12.3c0-0.2-0.1-0.3-0.2-0.4
			c-0.1-0.1-0.3-0.2-0.4-0.1L79.8,31l1.1,10.2c0.1,0.6,0.3,1.2,0.5,1.7c0.3,0.5,0.4,1.1,0.5,1.7c0,0.2,0,0.4-0.1,0.4
			c-0.1,0.1-0.3,0.1-0.5,0.1c-0.1,0-0.2,0-0.3,0c-0.1,0-0.2,0-0.3,0h-0.7c-0.3,0-0.7,0-1,0c-0.3,0-0.7,0-1,0.1c-0.3,0-0.5,0-0.6,0
			c-0.7,0-1.3-0.1-1.7-0.2c-0.4-0.2-0.8-0.4-1-0.7c-0.2-0.3-0.4-0.7-0.5-1.1c-0.1-0.4-0.2-1-0.3-1.5c-0.2-2.1-0.3-4.3-0.5-6.4
			c-0.1-2.1-0.2-4.3-0.3-6.4c0,0,0-0.3,0-0.6c0-0.4-0.1-0.8-0.1-1.3c0-0.5-0.1-1-0.1-1.5c0-0.5-0.1-0.9-0.1-1.1
			c-0.1-1.5,0-2.8,0.2-4.1c0.2-1.2,0.5-2.6,0.7-4.1c-0.2-0.7-0.2-1.4,0.1-2.1c0.3-0.7,0.6-1.4,0.8-2c0.1-0.3,0.1-0.6,0.1-0.9
			c0-0.3,0.1-0.6,0.2-0.9c0,0,0-0.1,0.1-0.2c0-0.1,0.1-0.1,0.1-0.1c0.4-0.8,0.8-1.6,1.1-2.4c0.3-0.8,0.7-1.6,1.3-2.4
			c0.3-0.5,0.8-0.9,1.3-1.4c0.5-0.5,1-0.9,1.6-1.4c0.6-0.4,1.2-0.8,1.8-1c0.6-0.3,1.3-0.4,1.9-0.5c1.7-0.2,3.1,0.1,4.1,0.7
			c1,0.6,1.7,1.5,2.3,2.5c0.6,1,1,2.1,1.3,3.3c0.3,1.2,0.7,2.4,1,3.4c0,0.1,0,0.3,0.1,0.6c0.1,0.3,0.1,0.6,0.1,1
			c0,0.3,0.1,0.7,0.1,1c0.1,0.3,0.1,0.5,0.1,0.6c0.3,2.6,0.4,5.1,0.5,7.7c0.1,2.6,0.1,5.2,0.3,7.7c0,0.7,0,1.3-0.1,2
			c-0.1,0.7-0.1,1.4-0.1,2c0,0.1,0,0.3,0.1,0.6c0,0.3,0.1,0.7,0.1,1.1c0,0.4,0.1,0.7,0.1,1.1c0.1,0.3,0.1,0.5,0.1,0.6v1.9
			c0,0.1,0,0.3,0,0.6c0,0.3,0,0.7,0.1,1.1c0,0.4,0,0.7,0.1,1.1c0,0.3,0,0.6,0,0.7c0,0.2,0,0.6-0.1,1c-0.1,0.5-0.3,0.7-0.8,0.8h-0.1
			c0,0-0.2,0-0.4-0.1C93.1,44,93,44,93,44c-0.1,0-0.3,0-0.7,0c-0.3,0-0.7,0-1.1,0c-0.4,0-0.7,0-1,0C89.8,44.1,89.6,44.1,89.5,44.1z
			 M79.9,23.2c0,0.5,0.3,0.8,0.8,1c0.5,0.2,1.1,0.3,1.7,0.4c0.7,0.1,1.3,0.1,2,0.1c0.7,0,1.2,0,1.5-0.1c0.1,0,0.2,0,0.5,0
			c0.2,0,0.4,0,0.5,0c0.1-0.1,0.1-0.2,0.2-0.3c0-0.1,0.1-0.2,0.1-0.3c0-0.2,0-0.6-0.1-1.1c0-0.5-0.1-1.1-0.1-1.7s0-1.2-0.1-1.7
			c0-0.5,0-0.9,0-1.1c0-0.1,0.1-0.3,0.1-0.5V17l-0.6-5.6c0-0.3-0.1-0.6-0.3-0.9c-0.2-0.3-0.3-0.7-0.6-1c-0.2-0.3-0.5-0.5-0.8-0.7
			c-0.3-0.2-0.7-0.2-1-0.2c-0.3,0-0.6,0.1-0.9,0.3c-1.3,1.3-2.1,2.7-2.4,4.1c-0.3,1.4-0.5,3-0.5,4.7c0,0.9,0,1.8-0.1,2.7
			C79.8,21.3,79.9,22.2,79.9,23.2z"/>
		<path class="st16" d="M123,41c0-0.3,0.1-0.6,0.4-1c0.3-0.4,0.7-0.8,1.2-1.2c0.5-0.4,1-0.8,1.5-1.1c0.5-0.3,1-0.6,1.3-0.8
			c0.1,0,0.2,0,0.3-0.1c0.1,0,0.2-0.1,0.3-0.1c0.5,0,0.8,0.1,1.1,0.3c0.3,0.2,0.6,0.5,1,0.8c0.4,0.3,0.9,0.6,1.4,0.8
			c0.5,0.2,1.3,0.3,2.3,0.2c0.4,0,0.7-0.1,1-0.3c0.3-0.2,0.6-0.3,0.9-0.6c0.3-0.2,0.4-0.5,0.6-0.7c0.1-0.2,0.1-0.4-0.1-0.6
			c0-0.1,0.1-0.3,0.2-0.6c0.1-0.3,0.2-0.6,0.2-0.9c0.1-0.3,0.1-0.6,0.2-0.9c0.1-0.3,0.1-0.5,0.1-0.6c0.2-0.7,0.3-1.5,0.4-2.4
			c0.1-0.9,0.1-1.7-0.2-2.4l-1.4-19.5l-0.3-2.1l-2,0.2l-0.3-0.2c-0.1-0.2-0.2-0.4-0.2-0.6c-0.1-0.2-0.1-0.4-0.2-0.6
			c-0.1-0.2-0.1-0.3-0.1-0.4c0-0.1-0.1-0.3-0.2-0.6c-0.1-0.3-0.2-0.6-0.2-0.7c0.1,0,0.3,0,0.6,0c0.3,0,0.4,0,0.5,0
			c0.5,0,1.3,0,2.5,0c1.2,0,2.5-0.1,3.8-0.1c1.4,0,2.6-0.1,3.8-0.1c1.2,0,2,0,2.5,0c0,0,0,0.1,0.1,0.2c0,0.1,0.1,0.2,0.1,0.2v0.7
			c0,0.3,0,0.6,0,0.9c0,0.3-0.1,0.6-0.1,0.8c-0.1,0.2-0.1,0.4-0.2,0.4l-2.4,0.1c0,0.1,0,0.2,0.1,0.4c0.1,0.2,0.1,0.4,0.1,0.4
			c0,0.2,0,0.5,0,1c0,0.5,0,1,0,1.6v1.5v1c0,0.5,0,1-0.1,1.5c-0.1,0.5-0.1,1.1-0.2,1.6c-0.1,0.5-0.1,1.1-0.1,1.6
			c0,0.5,0.1,1,0.3,1.5l0.5,14.1c-0.2,0.6-0.3,1.3-0.1,1.9c0.2,0.7,0.2,1.3,0.1,1.9c-0.3,1.8-1.2,3.4-2.9,4.7
			c-1.7,1.4-4.2,2.2-7.4,2.4c-1.9,0.1-3.7-0.2-5.3-0.9c-1.6-0.7-3.1-1.4-4.4-2.1c-0.4-0.2-0.7-0.3-0.8-0.4
			C123.2,41.4,123.1,41.3,123,41z"/>
		<path class="st16" d="M168.4,44.1c-0.2-0.1-0.4-0.2-0.6-0.4c-0.2-0.2-0.3-0.4-0.3-0.6L166,30.8c0-0.2-0.1-0.3-0.2-0.4
			c-0.1-0.1-0.3-0.2-0.4-0.1l-6.7,0.6l1.1,10.2c0.1,0.6,0.3,1.2,0.5,1.7c0.3,0.5,0.4,1.1,0.5,1.7c0,0.2,0,0.4-0.1,0.4
			c-0.1,0.1-0.3,0.1-0.5,0.1c-0.1,0-0.2,0-0.3,0c-0.1,0-0.2,0-0.3,0H159c-0.3,0-0.7,0-1,0c-0.3,0-0.7,0-1,0.1c-0.3,0-0.5,0-0.6,0
			c-0.7,0-1.3-0.1-1.7-0.2c-0.4-0.2-0.8-0.4-1-0.7c-0.2-0.3-0.4-0.7-0.5-1.1c-0.1-0.4-0.2-1-0.3-1.5c-0.2-2.1-0.3-4.3-0.5-6.4
			c-0.1-2.1-0.2-4.3-0.3-6.4c0,0,0-0.3,0-0.6c0-0.4,0-0.8-0.1-1.3c0-0.5-0.1-1-0.1-1.5c0-0.5-0.1-0.9-0.1-1.1
			c-0.1-1.5,0-2.8,0.2-4.1c0.2-1.2,0.5-2.6,0.7-4.1c-0.2-0.7-0.2-1.4,0.1-2.1c0.3-0.7,0.6-1.4,0.8-2c0.1-0.3,0.1-0.6,0.1-0.9
			c0-0.3,0.1-0.6,0.2-0.9c0,0,0-0.1,0.1-0.2c0-0.1,0.1-0.1,0.1-0.1c0.4-0.8,0.8-1.6,1.1-2.4c0.3-0.8,0.7-1.6,1.3-2.4
			c0.3-0.5,0.8-0.9,1.3-1.4c0.5-0.5,1-0.9,1.6-1.4c0.6-0.4,1.2-0.8,1.8-1c0.6-0.3,1.3-0.4,1.9-0.5c1.7-0.2,3.1,0.1,4.1,0.7
			c1,0.6,1.7,1.5,2.3,2.5c0.6,1,1,2.1,1.3,3.3c0.3,1.2,0.7,2.4,1,3.4c0,0.1,0,0.3,0.1,0.6s0.1,0.6,0.1,1c0,0.3,0.1,0.7,0.1,1
			c0.1,0.3,0.1,0.5,0.1,0.6c0.3,2.6,0.4,5.1,0.5,7.7c0.1,2.6,0.1,5.2,0.3,7.7c0,0.7,0,1.3-0.1,2c-0.1,0.7-0.1,1.4-0.1,2
			c0,0.1,0,0.3,0.1,0.6c0,0.3,0.1,0.7,0.1,1.1c0,0.4,0.1,0.7,0.1,1.1c0.1,0.3,0.1,0.5,0.1,0.6v1.9c0,0.1,0,0.3,0,0.6
			c0,0.3,0,0.7,0.1,1.1c0,0.4,0,0.7,0.1,1.1c0,0.3,0,0.6,0,0.7c0,0.2,0,0.6-0.1,1c-0.1,0.5-0.3,0.7-0.8,0.8h-0.1c0,0-0.2,0-0.4-0.1
			c-0.2,0-0.3-0.1-0.4-0.1c-0.1,0-0.3,0-0.7,0c-0.3,0-0.7,0-1.1,0c-0.4,0-0.7,0-1,0C168.7,44.1,168.5,44.1,168.4,44.1z M158.8,23.2
			c0,0.5,0.3,0.8,0.8,1c0.5,0.2,1.1,0.3,1.7,0.4c0.7,0.1,1.3,0.1,2,0.1c0.7,0,1.2,0,1.5-0.1c0.1,0,0.2,0,0.5,0c0.2,0,0.4,0,0.5,0
			c0.1-0.1,0.1-0.2,0.2-0.3c0-0.1,0.1-0.2,0.1-0.3c0-0.2,0-0.6-0.1-1.1c0-0.5-0.1-1.1-0.1-1.7c0-0.6,0-1.2-0.1-1.7
			c0-0.5,0-0.9,0-1.1c0-0.1,0.1-0.3,0.1-0.5V17l-0.6-5.6c0-0.3-0.1-0.6-0.3-0.9c-0.2-0.3-0.3-0.7-0.6-1c-0.2-0.3-0.5-0.5-0.8-0.7
			c-0.3-0.2-0.7-0.2-1-0.2c-0.3,0-0.6,0.1-0.9,0.3c-1.3,1.3-2.1,2.7-2.4,4.1c-0.3,1.4-0.5,3-0.5,4.7c0,0.9,0,1.8-0.1,2.7
			C158.7,21.3,158.7,22.2,158.8,23.2z"/>
		<path class="st16" d="M195.3,45.9c-0.7-1-1.3-2-1.7-2.8c-0.4-0.8-0.9-1.7-1.5-2.6c-0.1-0.1-0.2-0.3-0.4-0.5
			c-0.2-0.2-0.4-0.4-0.6-0.7c-0.2-0.2-0.3-0.5-0.4-0.7c-0.1-0.2-0.1-0.4-0.1-0.6c-0.5-0.7-0.9-1.3-1.4-2c-0.4-0.7-0.9-1.4-1.3-2
			h-0.1c0,0-0.1,0-0.1-0.1c-0.3-0.1-0.5,0.1-0.4,0.5c0,0.4,0.1,1.1,0.1,2.1c0,1,0.1,2.1,0.1,3.2c0.1,1.1,0.1,2.2,0.2,3.3
			c0.1,1,0.1,1.7,0.1,2.1l0.1,0.2c-0.1,0.1-0.2,0.3-0.3,0.4c-0.2,0.2-0.3,0.2-0.3,0.2l-5.9,0.4c-0.3,0-0.6-0.1-0.9-0.4
			c-0.2-0.3-0.4-0.6-0.4-0.9c0,0,0-0.1,0-0.1c0,0,0-0.1,0-0.1v-0.2c0,0,0-0.1,0.1-0.3c0-0.2,0.1-0.4,0.1-0.6c0-0.2,0.1-0.4,0.1-0.5
			c0-0.2,0.1-0.3,0.1-0.3c0-0.1,0-0.4-0.1-0.8c-0.1-0.4-0.1-0.8-0.1-1.3c0-0.4-0.1-0.9-0.1-1.3c0-0.4-0.1-0.6-0.1-0.8v-1.4
			c0-0.8,0-1.6,0-2.4c0-0.9,0-1.7-0.1-2.4c0-0.8,0-1.2,0-1.4c0-0.2,0-0.5-0.1-1c0-0.5-0.1-1-0.1-1.6c0-0.6-0.1-1.1-0.1-1.6
			c0-0.5-0.1-0.9-0.1-1c0-0.1,0.1-0.3,0.1-0.5v-0.5c0.1-3.4,0.1-6.7,0.1-10c-0.1-3.3-0.2-6.6-0.3-9.9c0-0.1,0-0.3,0-0.6
			c0-0.3,0-0.6-0.1-1c0-0.3-0.1-0.7-0.1-1c0-0.3,0-0.6,0-0.7c0.1-0.2,0.2-0.4,0.3-0.4c0.1,0,0.3-0.1,0.4-0.1
			c1.5-0.1,3.1-0.2,4.5-0.2c1.5,0,2.9,0.1,4.2,0.5c1.3,0.3,2.5,0.9,3.5,1.7c1.1,0.8,1.9,1.9,2.6,3.3c0.5,1,1,2,1.5,2.9
			c0.5,0.9,0.8,2,0.9,3.1c0.2,2.3-0.2,4.5-1.2,6.5c-1,2-2.3,3.8-4,5.4c-0.2,0.2-0.2,0.4-0.2,0.6c0.1,0.3,0.2,0.7,0.4,1
			c0.2,0.3,0.3,0.6,0.2,1l2.4,4.8v0.2l2.4,3.8c0,0,0.2,0.4,0.5,1c0.3,0.6,0.7,1.3,1.1,2c0.4,0.8,0.8,1.5,1.2,2.3
			c0.3,0.8,0.5,1.3,0.6,1.7c0,0.4-0.1,0.7-0.4,1.2c-0.3,0.4-0.6,0.8-1.1,1.2c-0.4,0.3-0.9,0.6-1.3,0.9c-0.5,0.3-0.9,0.4-1.2,0.4
			C196,46.3,195.6,46.2,195.3,45.9z M185.6,18.2c0.2,0.2,0.3,0.3,0.4,0.4c0.1,0.1,0.3,0.2,0.5,0.2c0.8-0.1,1.4-0.4,1.9-0.8
			c0.5-0.5,0.9-1,1.1-1.7c0.3-0.6,0.4-1.3,0.5-2c0.1-0.7,0.1-1.3,0.1-1.8c0-0.4-0.1-0.9-0.3-1.4c-0.2-0.6-0.4-1.1-0.6-1.6
			c-0.3-0.5-0.6-0.9-1-1.3c-0.4-0.3-0.9-0.5-1.5-0.4c-0.4,0-0.7,0.3-0.9,0.6c-0.2,0.4-0.4,0.8-0.4,1.3c-0.1,0.5-0.1,1-0.1,1.5v1
			c0,0,0,0.2,0,0.4c0,0.2,0,0.5,0.1,0.8c0,0.3,0,0.6,0.1,1c0,0.3,0.1,0.6,0.1,0.8c0,0.1,0,0.3,0,0.6c0,0.3,0,0.6,0.1,0.9
			c0,0.3,0,0.6,0.1,0.9C185.5,17.9,185.6,18.1,185.6,18.2z"/>
		<path class="st16" d="M221.6,44.1c-0.2-0.1-0.4-0.2-0.6-0.4c-0.2-0.2-0.3-0.4-0.3-0.6l-1.4-12.3c0-0.2-0.1-0.3-0.2-0.4
			c-0.1-0.1-0.3-0.2-0.4-0.1L212,31l1.1,10.2c0.1,0.6,0.3,1.2,0.5,1.7c0.3,0.5,0.4,1.1,0.5,1.7c0,0.2,0,0.4-0.1,0.4
			c-0.1,0.1-0.3,0.1-0.5,0.1c-0.1,0-0.2,0-0.3,0c-0.1,0-0.2,0-0.3,0h-0.7c-0.3,0-0.7,0-1,0c-0.3,0-0.7,0-1,0.1c-0.3,0-0.5,0-0.6,0
			c-0.7,0-1.3-0.1-1.7-0.2c-0.4-0.2-0.8-0.4-1-0.7c-0.2-0.3-0.4-0.7-0.5-1.1c-0.1-0.4-0.2-1-0.3-1.5c-0.2-2.1-0.3-4.3-0.5-6.4
			c-0.1-2.1-0.2-4.3-0.3-6.4c0,0,0-0.3,0-0.6c0-0.4-0.1-0.8-0.1-1.3c0-0.5-0.1-1-0.1-1.5c0-0.5-0.1-0.9-0.1-1.1
			c-0.1-1.5,0-2.8,0.2-4.1c0.2-1.2,0.5-2.6,0.7-4.1c-0.2-0.7-0.2-1.4,0.1-2.1c0.3-0.7,0.6-1.4,0.8-2c0.1-0.3,0.1-0.6,0.1-0.9
			c0-0.3,0.1-0.6,0.2-0.9c0,0,0-0.1,0.1-0.2c0-0.1,0.1-0.1,0.1-0.1c0.4-0.8,0.8-1.6,1.1-2.4c0.3-0.8,0.7-1.6,1.3-2.4
			c0.3-0.5,0.8-0.9,1.3-1.4c0.5-0.5,1-0.9,1.6-1.4c0.6-0.4,1.2-0.8,1.8-1c0.6-0.3,1.3-0.4,1.9-0.5c1.7-0.2,3.1,0.1,4.1,0.7
			c1,0.6,1.7,1.5,2.3,2.5c0.6,1,1,2.1,1.3,3.3c0.3,1.2,0.7,2.4,1,3.4c0,0.1,0,0.3,0.1,0.6c0.1,0.3,0.1,0.6,0.1,1
			c0,0.3,0.1,0.7,0.1,1c0.1,0.3,0.1,0.5,0.1,0.6c0.3,2.6,0.4,5.1,0.5,7.7c0.1,2.6,0.1,5.2,0.3,7.7c0,0.7,0,1.3-0.1,2
			c-0.1,0.7-0.1,1.4-0.1,2c0,0.1,0,0.3,0.1,0.6c0,0.3,0.1,0.7,0.1,1.1c0,0.4,0.1,0.7,0.1,1.1c0.1,0.3,0.1,0.5,0.1,0.6v1.9
			c0,0.1,0,0.3,0,0.6c0,0.3,0,0.7,0.1,1.1c0,0.4,0,0.7,0.1,1.1c0,0.3,0,0.6,0,0.7c0,0.2,0,0.6-0.1,1c-0.1,0.5-0.3,0.7-0.8,0.8h-0.1
			c0,0-0.2,0-0.4-0.1c-0.2,0-0.3-0.1-0.4-0.1c-0.1,0-0.3,0-0.7,0c-0.3,0-0.7,0-1.1,0c-0.4,0-0.7,0-1,0
			C221.9,44.1,221.7,44.1,221.6,44.1z M212.1,23.2c0,0.5,0.3,0.8,0.8,1c0.5,0.2,1.1,0.3,1.7,0.4c0.7,0.1,1.3,0.1,2,0.1
			c0.7,0,1.2,0,1.5-0.1c0.1,0,0.2,0,0.5,0c0.2,0,0.4,0,0.5,0c0.1-0.1,0.1-0.2,0.2-0.3c0-0.1,0.1-0.2,0.1-0.3c0-0.2,0-0.6-0.1-1.1
			c0-0.5-0.1-1.1-0.1-1.7c0-0.6,0-1.2-0.1-1.7c0-0.5,0-0.9,0-1.1c0-0.1,0.1-0.3,0.1-0.5V17l-0.6-5.6c0-0.3-0.1-0.6-0.3-0.9
			c-0.2-0.3-0.3-0.7-0.6-1c-0.2-0.3-0.5-0.5-0.8-0.7c-0.3-0.2-0.7-0.2-1-0.2c-0.3,0-0.6,0.1-0.9,0.3c-1.3,1.3-2.1,2.7-2.4,4.1
			c-0.3,1.4-0.5,3-0.5,4.7c0,0.9,0,1.8-0.1,2.7C212,21.3,212,22.2,212.1,23.2z"/>
		<path class="st16" d="M240.2,29.3c0.1-0.2,0-0.5-0.1-0.8c-0.2-0.3-0.4-0.5-0.7-0.5h-0.2c0,0.3,0,0.8,0,1.6c0,0.8,0,1.6-0.1,2.4
			c0,0.9,0,1.7-0.1,2.4c0,0.8,0,1.3,0,1.6v1.2c0,0.8,0.1,1.5,0.2,2.3c0.1,0.8,0.2,1.5,0.2,2.3c0,0.3-0.1,0.6-0.1,0.8
			c-0.1,0.2-0.4,0.3-0.8,0.3c-0.8,0.1-1.6,0.1-2.3,0.1c-0.7,0-1.5,0-2.4,0.1c-0.2-0.1-0.3-0.2-0.4-0.5l-0.2-0.5c0-0.1,0-0.3-0.1-0.7
			c-0.1-0.4-0.1-0.6-0.1-0.7c-0.1-1.2-0.1-2.4,0-3.6c0.1-1.2,0.1-2.4,0.2-3.6c0-2,0-3.9-0.1-5.8c-0.1-1.9,0.1-3.8,0.4-5.8l-0.8-16.3
			c0-0.2,0-0.4,0-0.8c0-0.3,0.1-0.6,0.2-0.9c0.1-0.3,0.2-0.5,0.4-0.8c0.2-0.2,0.4-0.3,0.7-0.3h0.2c0.9,0.1,1.7,0.2,2.3,0.2
			c0.6,0.1,1,0.5,1.3,1.3c0.3,0.9,0.6,1.7,1,2.6c0.4,0.9,0.7,1.7,1.1,2.4c0,0,0.1,0.1,0.1,0.2v0.2c0.2,1,0.5,2.1,0.9,3.2
			c0.4,1.1,0.8,2.1,1.2,3.1c-0.1,0.4,0,0.8,0.2,1.3c0.2,0.5,0.5,1,0.8,1.5c0.3,0.5,0.6,1,0.8,1.5c0.3,0.5,0.3,0.9,0.3,1.2
			c0,0.1,0.1,0.4,0.3,0.7c0.2,0.4,0.3,0.8,0.4,1.2c0.1,0.4,0.3,0.8,0.4,1.2c0.1,0.4,0.2,0.6,0.3,0.8c0,0.1,0.1,0.3,0.1,0.5
			c0.1,0.2,0.1,0.4,0.2,0.7c0.1,0.3,0.1,0.5,0.2,0.7c0.1,0.2,0.1,0.4,0.1,0.5c0.2,0.5,0.3,1,0.4,1.5c0.1,0.5,0.4,0.9,0.8,1.2
			c0.2-0.4,0.3-0.8,0.3-1.3c0.5-4.3,0.8-8.5,0.7-12.7c-0.1-4.1-0.1-8.4-0.2-12.7c0-0.1,0.1-0.2,0.3-0.5c0.2-0.2,0.3-0.3,0.3-0.3
			l4.7-0.4c0.3,0,0.5,0.1,0.5,0.3c0,0.2,0.1,0.3,0.3,0.4c-0.1,1.7-0.1,3.5,0,5.2c0.1,1.7,0.1,3.4-0.1,5.1c-0.3,2.5-0.5,5-0.7,7.4
			c-0.2,2.4-0.2,4.9,0,7.4l-0.5,12.9c0,0.3-0.2,0.8-0.6,1.4c-0.3,0.6-0.7,1-1.2,1.1c-0.1,0-0.3,0-0.6,0c-0.3,0-0.5,0-0.6,0
			c-1,0.1-1.9,0.1-2.8,0.1c-0.9,0-1.8-0.1-2.8-0.3c-0.5,0-0.9-0.4-1.2-1.1c-0.3-0.7-0.5-1.4-0.6-2.3c-0.1-0.8-0.2-1.6-0.3-2.4
			s-0.1-1.3-0.1-1.5c0-0.2-0.1-0.5-0.2-1c-0.1-0.5-0.2-0.9-0.3-1c-0.1-0.2-0.2-0.5-0.3-1c-0.2-0.5-0.3-1-0.5-1.6
			c-0.2-0.6-0.3-1.1-0.5-1.6C240.4,29.8,240.3,29.5,240.2,29.3z"/>
		<path class="st16" d="M278,44.1c-0.2-0.1-0.4-0.2-0.6-0.4c-0.2-0.2-0.3-0.4-0.3-0.6l-1.4-12.3c0-0.2-0.1-0.3-0.2-0.4
			c-0.1-0.1-0.3-0.2-0.4-0.1l-6.7,0.6l1.1,10.2c0.1,0.6,0.3,1.2,0.5,1.7c0.3,0.5,0.4,1.1,0.5,1.7c0,0.2,0,0.4-0.1,0.4
			c-0.1,0.1-0.3,0.1-0.5,0.1c-0.1,0-0.2,0-0.3,0c-0.1,0-0.2,0-0.3,0h-0.7c-0.3,0-0.7,0-1,0c-0.3,0-0.7,0-1,0.1c-0.3,0-0.5,0-0.6,0
			c-0.7,0-1.3-0.1-1.7-0.2c-0.4-0.2-0.8-0.4-1-0.7c-0.2-0.3-0.4-0.7-0.5-1.1c-0.1-0.4-0.2-1-0.3-1.5c-0.2-2.1-0.3-4.3-0.5-6.4
			c-0.1-2.1-0.2-4.3-0.3-6.4c0,0,0-0.3,0-0.6c0-0.4,0-0.8-0.1-1.3c0-0.5-0.1-1-0.1-1.5c0-0.5-0.1-0.9-0.1-1.1
			c-0.1-1.5,0-2.8,0.2-4.1c0.2-1.2,0.5-2.6,0.7-4.1c-0.2-0.7-0.2-1.4,0.1-2.1c0.3-0.7,0.6-1.4,0.8-2c0.1-0.3,0.1-0.6,0.1-0.9
			c0-0.3,0.1-0.6,0.2-0.9c0,0,0-0.1,0.1-0.2c0-0.1,0.1-0.1,0.1-0.1c0.4-0.8,0.8-1.6,1.1-2.4c0.3-0.8,0.7-1.6,1.3-2.4
			c0.3-0.5,0.8-0.9,1.3-1.4c0.5-0.5,1-0.9,1.6-1.4c0.6-0.4,1.2-0.8,1.8-1c0.6-0.3,1.3-0.4,1.9-0.5c1.7-0.2,3.1,0.1,4.1,0.7
			c1,0.6,1.7,1.5,2.3,2.5c0.6,1,1,2.1,1.3,3.3c0.3,1.2,0.7,2.4,1,3.4c0,0.1,0,0.3,0.1,0.6c0.1,0.3,0.1,0.6,0.1,1
			c0,0.3,0.1,0.7,0.1,1c0.1,0.3,0.1,0.5,0.1,0.6c0.3,2.6,0.4,5.1,0.5,7.7c0.1,2.6,0.1,5.2,0.3,7.7c0,0.7,0,1.3-0.1,2s-0.1,1.4-0.1,2
			c0,0.1,0,0.3,0.1,0.6c0,0.3,0.1,0.7,0.1,1.1c0,0.4,0.1,0.7,0.1,1.1c0.1,0.3,0.1,0.5,0.1,0.6v1.9c0,0.1,0,0.3,0,0.6
			c0,0.3,0,0.7,0.1,1.1c0,0.4,0,0.7,0.1,1.1c0,0.3,0,0.6,0,0.7c0,0.2,0,0.6-0.1,1c-0.1,0.5-0.3,0.7-0.8,0.8h-0.1c0,0-0.2,0-0.4-0.1
			c-0.2,0-0.3-0.1-0.4-0.1c-0.1,0-0.3,0-0.7,0c-0.3,0-0.7,0-1.1,0c-0.4,0-0.7,0-1,0C278.3,44.1,278.1,44.1,278,44.1z M268.4,23.2
			c0,0.5,0.3,0.8,0.8,1c0.5,0.2,1.1,0.3,1.7,0.4c0.7,0.1,1.3,0.1,2,0.1c0.7,0,1.2,0,1.5-0.1c0.1,0,0.2,0,0.5,0c0.2,0,0.4,0,0.5,0
			c0.1-0.1,0.1-0.2,0.2-0.3c0-0.1,0.1-0.2,0.1-0.3c0-0.2,0-0.6-0.1-1.1c0-0.5-0.1-1.1-0.1-1.7c0-0.6,0-1.2-0.1-1.7
			c0-0.5,0-0.9,0-1.1c0-0.1,0.1-0.3,0.1-0.5V17l-0.6-5.6c0-0.3-0.1-0.6-0.3-0.9c-0.2-0.3-0.3-0.7-0.6-1c-0.2-0.3-0.5-0.5-0.8-0.7
			c-0.3-0.2-0.7-0.2-1-0.2c-0.3,0-0.6,0.1-0.9,0.3c-1.3,1.3-2.1,2.7-2.4,4.1c-0.3,1.4-0.5,3-0.5,4.7c0,0.9,0,1.8-0.1,2.7
			C268.4,21.3,268.4,22.2,268.4,23.2z"/>
		<path class="st16" d="M316,45c-0.1,0-0.1-0.2-0.2-0.5c0-0.3-0.1-0.5-0.1-0.6c-0.2-1.4-0.3-2.8-0.1-4.2c0.2-1.4,0.2-2.7,0.2-4.1
			c-0.1-1.7-0.3-3.5-0.6-5.2c-0.3-1.7-0.5-3.5-0.7-5.2c0-1.4,0-2.7,0-3.9c0-1.3,0.1-2.6,0.1-3.9c0-1.2,0-2.5-0.1-3.8
			c-0.1-1.3-0.2-2.5-0.3-3.7V9.6V8.9V8.3V7.9c0-0.2-0.1-0.5-0.1-1c0-0.5-0.1-1-0.1-1.5c0-0.5-0.1-1-0.1-1.5c0-0.5-0.1-0.8-0.1-1
			c0.1-0.3,0.2-0.5,0.2-0.7c0.1-0.2,0.2-0.3,0.5-0.4c0.1,0,0.3-0.1,0.7-0.1c0.4-0.1,0.6-0.1,0.7-0.1c2.1-0.3,4.1-0.2,5.8,0.3
			c1.7,0.5,3.2,1.2,4.5,2.3c1.3,1,2.3,2.3,3.1,3.9c0.8,1.5,1.3,3.2,1.7,5c0.2,1.5,0.3,2.9,0.3,4.3c0,1.4-0.1,2.9-0.2,4.4
			c0.2,0.8,0.2,1.5,0.1,2.3c-0.1,0.7-0.1,1.5-0.1,2.3c0,1.2,0.1,2.7,0.2,4.3c0.1,1.6,0.1,3.3-0.1,4.9c-0.2,1.6-0.6,3.2-1.2,4.6
			c-0.6,1.4-1.7,2.5-3.1,3.3c-1.4,0.7-2.9,1.2-4.4,1.4c-1.6,0.2-3.1,0.4-4.7,0.6c-0.1,0-0.3,0-0.6,0.1c-0.3,0-0.5,0.1-0.6,0.1
			c-0.1-0.1-0.2-0.2-0.3-0.3C316.1,45.3,316,45.1,316,45z M321.5,37.3c0.2,0.3,0.4,0.4,0.8,0.4c0.4,0,0.8-0.3,1-0.7
			c0.3-0.4,0.4-0.9,0.6-1.4c0.1-0.5,0.2-1.1,0.3-1.6c0.1-0.5,0.1-1,0.1-1.3c0-0.3,0.1-0.6,0.1-1.1c0-0.5,0.1-0.9,0.1-1.4
			c0-0.4,0.1-0.8,0.1-1.2c0-0.3,0-0.5,0-0.6l-0.1-0.5c0-2.1,0-4.3,0.1-6.6c0-2.3-0.1-4.5-0.5-6.7c-0.2-1.1-0.4-2-0.7-2.7
			c-0.3-0.7-0.8-1.4-1.7-2.2c-0.1-0.2-0.2-0.3-0.3-0.5c-0.1-0.1-0.3-0.2-0.6-0.1c-0.2,0-0.3,0.2-0.2,0.5c0.1,0.3,0.1,0.5,0.1,0.5
			c0.1,2.4,0.2,4.7,0.2,7.1c0,2.4,0.1,4.7,0.2,7.1c0,1.9,0,3.9-0.2,5.9c-0.2,2-0.1,4,0.2,5.9c0,0.1,0,0.3,0.1,0.6
			C321.5,37,321.5,37.2,321.5,37.3z"/>
		<path class="st16" d="M339.7,44.5c-0.2-0.1-0.3-0.2-0.5-0.4c-0.2-0.1-0.2-0.3-0.2-0.5c-0.2-1.9-0.2-3.7,0-5.6
			c0.2-1.9,0.3-3.8,0.3-5.6c0-2.3-0.1-4.7-0.2-7c-0.1-2.3-0.3-4.7-0.4-7c-0.2-2.3-0.3-4.7-0.4-7c-0.1-2.3-0.1-4.6,0-6.9
			c0-0.2,0.1-0.5,0.2-0.8c0.1-0.3,0.3-0.4,0.6-0.5c0.4,0,0.8,0,1.4,0.1c0.5,0.1,1,0.1,1.3,0.1c0.2,0,0.4,0,0.9,0
			c0.4,0,0.9,0,1.4-0.1c0.5,0,0.9,0,1.4-0.1c0.4,0,0.7,0,0.9,0c0,0,0.2,0,0.5-0.1c0.3,0,0.6-0.1,0.9-0.1c0.3,0,0.6-0.1,0.8-0.1
			c0.3,0,0.4-0.1,0.5-0.1c0.2,0,0.6,0,1.1-0.1c0.5,0,1,0,1.6,0c0.5,0,1,0.1,1.4,0.2c0.4,0.1,0.7,0.3,0.7,0.7l0.4,4.9
			c0,0.3-0.1,0.6-0.4,0.8c-0.3,0.2-0.6,0.3-0.9,0.4c-0.8,0.1-1.6,0.1-2.3-0.1c-0.8-0.1-1.6-0.2-2.4-0.1c-0.2,0-0.4,0-0.8,0
			c-0.3,0-0.6,0.1-1,0.1c-0.3,0.1-0.6,0.2-0.8,0.4c-0.2,0.2-0.3,0.4-0.3,0.7c0.1,1.6,0.1,3.2,0,4.8c-0.1,1.7-0.1,3.3,0.1,4.9
			c0,0.2,0,0.4,0.1,0.8c0,0.3,0.2,0.6,0.3,0.8c0.2,0.1,0.4,0.2,0.7,0.3c0.3,0.1,0.7,0.1,1,0.1c0.3,0,0.7,0,1,0c0.3,0,0.5,0,0.7,0
			c0.2,0,0.4,0,0.9-0.1c0.4,0,0.9-0.1,1.3-0.1c0.5-0.1,0.9-0.1,1.3-0.1c0.4,0,0.7-0.1,0.9-0.1c0.1,0,0.2,0.1,0.3,0.2
			c0.1,0.1,0.1,0.2,0.1,0.3l0.4,3.8c0,0.3,0,0.7-0.3,1c-0.2,0.3-0.5,0.5-0.8,0.6c-0.9,0.1-1.7,0.1-2.6,0c-0.9-0.1-1.7-0.2-2.6-0.1
			c-0.5,0.1-0.9,0.2-1.2,0.4c-0.2,0.2-0.4,0.5-0.5,0.8c-0.1,0.3-0.1,0.7-0.1,1v1.2c0,0.1,0,0.4-0.1,0.8c0,0.4-0.1,0.9-0.1,1.4
			c-0.1,0.5-0.1,1-0.1,1.4c0,0.4-0.1,0.7-0.1,0.8c0.1,0,0.1,0.2,0.1,0.4c0,0.2,0,0.3,0.1,0.5c0,0.2,0,0.5,0.1,0.8
			c0.1,0.3,0.3,0.5,0.6,0.5h1.4h2h2h1.3c0.6,0,1.2,0.1,1.7,0.2c0.5,0.1,0.9,0.5,1,1.3c0,0.1,0,0.3,0.1,0.6c0.1,0.3,0.1,0.6,0.2,1
			c0.1,0.4,0.1,0.7,0.2,1.1c0.1,0.4,0.1,0.7,0.1,0.8V43c0.1,0.5-0.1,0.9-0.4,0.9c-0.3,0.1-0.7,0.2-1.2,0.2c-1.6,0.2-3.3,0.2-4.9,0.1
			c-1.6-0.1-3.3-0.2-4.9-0.2c-0.1,0-0.4,0-0.9,0c-0.5,0.1-0.7,0.1-0.8,0.1c-0.2,0-0.4,0-0.8,0c-0.4,0-0.8,0-1.3,0.1
			c-0.4,0-0.9,0.1-1.3,0.1C340.1,44.4,339.9,44.5,339.7,44.5z"/>
		<path class="st16" d="M390,41.2c-0.3-2.2-0.3-4.4-0.2-6.7c0.1-2.3,0.1-4.5,0.1-6.7c-0.1-2.1-0.2-4.1-0.3-6.1c-0.2-2-0.2-4-0.2-6.1
			c0-2.2,0-4.3,0-6.3c0-1.9-0.1-4-0.4-6.2c0.1-0.6,0.4-1.1,1-1.4c0.6-0.3,1.1-0.5,1.7-0.6c0.6-0.1,1.3-0.1,2.1,0
			c0.8,0.1,1.4,0.4,1.9,0.9c0,0.1,0,0.2,0,0.5c0,0.2,0,0.4,0,0.5c0.2,1.4,0.1,2.8-0.1,4.4c-0.2,1.6-0.3,3-0.2,4.4
			c0,0.2,0,0.7,0.1,1.8c0.1,1,0.1,2.2,0.2,3.5c0.1,1.3,0.2,2.6,0.2,4c0.1,1.3,0.1,2.4,0.2,3.2c0.1,1.9,0.2,3.7,0.2,5.4
			c0,1.8,0.1,3.6,0.3,5.4c0.1,0.7,0.4,1.2,1,1.3c0.5,0.1,1.1,0.2,1.7,0.1c0.6,0,1.2,0,1.7,0c0.5,0,0.8,0.4,0.9,1c0,1.2,0,2.2-0.1,3
			c-0.1,0.8-0.1,1.4-0.3,2.1c-0.1,0.6-0.3,0.9-0.6,0.9c0,0-0.1,0.1-0.2,0.1h-0.2c-1.5-0.1-3-0.1-4.5-0.2c-1.6-0.1-3.1-0.2-4.7-0.3
			c-0.5,0-0.8-0.2-1-0.4C390.1,42.1,390,41.7,390,41.2z"/>
		<path class="st16" d="M425.3,44.1c-0.2-0.1-0.4-0.2-0.6-0.4c-0.2-0.2-0.3-0.4-0.3-0.6L423,30.8c0-0.2-0.1-0.3-0.2-0.4
			c-0.1-0.1-0.3-0.2-0.4-0.1l-6.7,0.6l1.1,10.2c0.1,0.6,0.3,1.2,0.5,1.7c0.3,0.5,0.4,1.1,0.5,1.7c0,0.2,0,0.4-0.1,0.4
			c-0.1,0.1-0.3,0.1-0.5,0.1c-0.1,0-0.2,0-0.3,0c-0.1,0-0.2,0-0.3,0h-0.7c-0.3,0-0.7,0-1,0c-0.3,0-0.7,0-1,0.1c-0.3,0-0.5,0-0.6,0
			c-0.7,0-1.3-0.1-1.7-0.2c-0.4-0.2-0.8-0.4-1-0.7c-0.2-0.3-0.4-0.7-0.5-1.1c-0.1-0.4-0.2-1-0.3-1.5c-0.2-2.1-0.3-4.3-0.5-6.4
			c-0.1-2.1-0.2-4.3-0.3-6.4c0,0,0-0.3,0-0.6c0-0.4,0-0.8-0.1-1.3c0-0.5-0.1-1-0.1-1.5c0-0.5-0.1-0.9-0.1-1.1
			c-0.1-1.5,0-2.8,0.2-4.1c0.2-1.2,0.5-2.6,0.7-4.1c-0.2-0.7-0.2-1.4,0.1-2.1c0.3-0.7,0.6-1.4,0.8-2c0.1-0.3,0.1-0.6,0.1-0.9
			c0-0.3,0.1-0.6,0.2-0.9c0,0,0-0.1,0.1-0.2c0-0.1,0.1-0.1,0.1-0.1c0.4-0.8,0.8-1.6,1.1-2.4c0.3-0.8,0.7-1.6,1.3-2.4
			c0.3-0.5,0.8-0.9,1.3-1.4c0.5-0.5,1-0.9,1.6-1.4c0.6-0.4,1.2-0.8,1.8-1c0.6-0.3,1.3-0.4,1.9-0.5c1.7-0.2,3.1,0.1,4.1,0.7
			c1,0.6,1.7,1.5,2.3,2.5c0.6,1,1,2.1,1.3,3.3c0.3,1.2,0.7,2.4,1,3.4c0,0.1,0,0.3,0.1,0.6c0.1,0.3,0.1,0.6,0.1,1
			c0,0.3,0.1,0.7,0.1,1c0.1,0.3,0.1,0.5,0.1,0.6c0.3,2.6,0.4,5.1,0.5,7.7c0.1,2.6,0.1,5.2,0.3,7.7c0,0.7,0,1.3-0.1,2
			c-0.1,0.7-0.1,1.4-0.1,2c0,0.1,0,0.3,0.1,0.6c0,0.3,0.1,0.7,0.1,1.1c0,0.4,0.1,0.7,0.1,1.1c0.1,0.3,0.1,0.5,0.1,0.6v1.9
			c0,0.1,0,0.3,0,0.6c0,0.3,0,0.7,0.1,1.1c0,0.4,0,0.7,0.1,1.1c0,0.3,0,0.6,0,0.7c0,0.2,0,0.6-0.1,1c-0.1,0.5-0.3,0.7-0.8,0.8h-0.1
			c0,0-0.2,0-0.4-0.1c-0.2,0-0.3-0.1-0.4-0.1c-0.1,0-0.3,0-0.7,0c-0.3,0-0.7,0-1.1,0c-0.4,0-0.7,0-1,0
			C425.7,44.1,425.4,44.1,425.3,44.1z M415.8,23.2c0,0.5,0.3,0.8,0.8,1c0.5,0.2,1.1,0.3,1.7,0.4c0.7,0.1,1.3,0.1,2,0.1
			c0.7,0,1.2,0,1.5-0.1c0.1,0,0.2,0,0.5,0c0.2,0,0.4,0,0.5,0c0.1-0.1,0.1-0.2,0.2-0.3c0-0.1,0.1-0.2,0.1-0.3c0-0.2,0-0.6-0.1-1.1
			c0-0.5-0.1-1.1-0.1-1.7c0-0.6,0-1.2-0.1-1.7c0-0.5,0-0.9,0-1.1c0-0.1,0.1-0.3,0.1-0.5V17l-0.6-5.6c0-0.3-0.1-0.6-0.3-0.9
			c-0.2-0.3-0.3-0.7-0.6-1c-0.2-0.3-0.5-0.5-0.8-0.7c-0.3-0.2-0.7-0.2-1-0.2c-0.3,0-0.6,0.1-0.9,0.3c-1.3,1.3-2.1,2.7-2.4,4.1
			c-0.3,1.4-0.5,3-0.5,4.7c0,0.9,0,1.8-0.1,2.7C415.7,21.3,415.7,22.2,415.8,23.2z"/>
		<path class="st16" d="M434.4,35.2c0.3-0.7,0.8-1.2,1.5-1.4c0.7-0.2,1.6-0.3,2.6-0.2c1,0.1,2.1,0.3,3.3,0.5
			c1.2,0.3,2.5,0.5,3.8,0.8c0.5,0,1-0.2,1.4-0.4c0.4-0.2,0.8-0.5,1.1-0.9c0.4-0.4,0.7-0.8,1-1.3c0.3-0.5,0.6-0.9,1-1.4
			c0,0,0.1-0.1,0.1-0.3c0-0.1,0.1-0.2,0.1-0.3l-0.2-3.4c-0.1,0-0.3-0.2-0.7-0.6c-0.4-0.3-0.7-0.6-1-0.8c-0.1-0.1-0.2-0.2-0.4-0.3
			c-0.2-0.1-0.4-0.2-0.4-0.2c-1.4-0.6-2.6-1-3.8-1.4c-1.2-0.3-2.3-0.8-3.3-1.3c-1-0.5-2-1.1-2.8-2c-0.8-0.8-1.6-2-2.2-3.6
			c0-0.1,0-0.3,0-0.5c0-0.2,0-0.5-0.1-0.7c0-0.3-0.1-0.5-0.1-0.7c0-0.2,0-0.4,0-0.4c0-0.5-0.1-1.1-0.1-1.7c-0.1-0.6,0-1.2,0.2-1.7
			c0-0.2,0.1-0.4,0.2-0.8c0.1-0.4,0.3-0.8,0.4-1.2c0.2-0.4,0.3-0.8,0.4-1.2c0.1-0.4,0.2-0.7,0.3-0.8V6.6c0.2-0.3,0.4-0.6,0.6-0.8
			c0.2-0.2,0.4-0.4,0.6-0.6c0.2-0.2,0.3-0.4,0.4-0.5c1.3-1.4,2.5-2.5,3.8-3.3c1.3-0.7,2.8-1.2,4.6-1.4c0.5,0,1.2,0,2.2,0.2
			c1,0.2,1.9,0.4,2.9,0.7c1,0.3,1.8,0.7,2.6,1.2c0.7,0.5,1.1,1,1.2,1.6c0,0.3,0,0.8-0.1,1.4c-0.1,0.6-0.2,1.2-0.4,1.7
			c-0.2,0.6-0.4,1.1-0.7,1.5c-0.3,0.4-0.6,0.7-1,0.7c-1,0.1-2,0.1-3,0c-1-0.1-2-0.1-3,0c-0.2,0-0.6,0-1.2,0.1
			c-0.6,0.1-1,0.1-1.2,0.1c-0.1,0.1-0.3,0.2-0.6,0.3c-0.3,0.1-0.5,0.2-0.8,0.4c-0.3,0.2-0.5,0.3-0.6,0.5c-0.2,0.2-0.3,0.3-0.3,0.5
			l0.3,3.5c0,0.2,0.1,0.4,0.4,0.6c0.3,0.2,0.5,0.3,0.8,0.5c0.3,0.2,0.6,0.3,0.9,0.5c0.3,0.1,0.5,0.2,0.6,0.3c1.5,0.7,3,1.4,4.2,2.1
			c1.3,0.7,2.4,1.4,3.3,2.3c0.9,0.9,1.7,1.9,2.2,3.2c0.6,1.2,0.9,2.7,1.1,4.6c0.2,1.6,0,3.2-0.3,4.7c-0.4,1.6-1,2.9-1.8,4.2
			c-0.8,1.2-1.9,2.2-3.2,3.1c-1.3,0.8-2.7,1.3-4.4,1.5c-1.4,0.2-2.8,0.2-4.2,0.1c-1.4-0.1-2.7-0.4-3.9-0.9c-1.2-0.5-2.2-1.2-3-2.1
			C435,37.9,434.5,36.7,434.4,35.2z"/>
		<path class="st16" d="M488.9,43.5c-0.3-2.5-0.5-5-0.6-7.5c0-2.5,0-4.9,0-7.4c-0.1-4.4-0.2-8.8-0.4-13.2c-0.2-4.4-0.5-8.8-0.9-13.2
			c0.1-0.2,0.2-0.4,0.4-0.6c0.2-0.2,0.4-0.3,0.7-0.4h0.2c2.6,0.1,5.1,0.3,7.3,0.6c2.2,0.3,4.1,0.9,5.8,1.7c1.6,0.9,3,2,4.1,3.6
			c1.1,1.5,1.8,3.6,2.1,6.1c0.1,1.2,0.1,2.4,0,3.8c-0.2,1.4-0.5,2.7-1.1,3.9c-0.6,1.2-1.4,2.3-2.4,3.2c-1,0.9-2.4,1.4-4,1.6
			c-0.8,0.1-1.5,0.1-2.3-0.1c-0.7-0.1-1.5-0.2-2.2-0.3c-0.3,0.1-0.5,0.3-0.6,0.4c-0.1,0.2-0.1,0.4-0.1,0.7c0,0.2,0,0.5,0,1
			c0,0.5,0,1,0.1,1.6c0,0.5,0,1.1,0.1,1.6c0,0.5,0,0.9,0.1,1c0,0.1,0,0.3,0,0.6c0,0.3,0,0.6,0.1,0.6l0.1,10.6
			c-0.1,0.2-0.1,0.5-0.2,0.8c-0.1,0.3-0.2,0.6-0.6,0.7c-0.2,0-0.5,0-1,0.1c-0.5,0-0.8,0.1-0.9,0.1c-0.5,0.1-1,0.1-1.4,0.1
			c-0.4,0-0.8,0-1.1-0.1c-0.3-0.1-0.6-0.3-0.8-0.5C489.1,44.4,489,44,488.9,43.5z M496.2,16.2c0.1,0.5,0.2,1,0.5,1.3
			c0.2,0.3,0.7,0.4,1.4,0.3c0.5,0,1-0.2,1.2-0.6c0.3-0.4,0.5-0.8,0.7-1.2c0.2-0.5,0.2-0.9,0.2-1.4s0-0.9-0.1-1.3
			c0-0.3-0.1-0.8-0.3-1.5c-0.2-0.7-0.4-1.4-0.7-2.1c-0.3-0.7-0.7-1.3-1.1-1.8c-0.4-0.5-0.9-0.7-1.5-0.6c-0.2,0-0.3,0.2-0.3,0.6
			c-0.1,0.4-0.1,1-0.1,1.6c0,0.6,0,1.3,0,2.1c0,0.8,0,1.5,0,2.1c0,0.6,0,1.2,0.1,1.7C496.1,15.9,496.2,16.2,496.2,16.2z"/>
		<path class="st16" d="M530.3,44.1c-0.2-0.1-0.4-0.2-0.6-0.4c-0.2-0.2-0.3-0.4-0.3-0.6l-1.4-12.3c0-0.2-0.1-0.3-0.2-0.4
			c-0.1-0.1-0.3-0.2-0.4-0.1l-6.7,0.6l1.1,10.2c0.1,0.6,0.3,1.2,0.5,1.7c0.3,0.5,0.4,1.1,0.5,1.7c0,0.2,0,0.4-0.1,0.4
			c-0.1,0.1-0.3,0.1-0.5,0.1c-0.1,0-0.2,0-0.3,0c-0.1,0-0.2,0-0.3,0h-0.7c-0.3,0-0.7,0-1,0c-0.3,0-0.7,0-1,0.1c-0.3,0-0.5,0-0.6,0
			c-0.7,0-1.3-0.1-1.7-0.2c-0.4-0.2-0.8-0.4-1-0.7c-0.2-0.3-0.4-0.7-0.5-1.1c-0.1-0.4-0.2-1-0.3-1.5c-0.2-2.1-0.3-4.3-0.5-6.4
			c-0.1-2.1-0.2-4.3-0.3-6.4c0,0,0-0.3,0-0.6c0-0.4,0-0.8-0.1-1.3c0-0.5-0.1-1-0.1-1.5c0-0.5-0.1-0.9-0.1-1.1
			c-0.1-1.5,0-2.8,0.2-4.1c0.2-1.2,0.5-2.6,0.7-4.1c-0.2-0.7-0.2-1.4,0.1-2.1c0.3-0.7,0.6-1.4,0.8-2c0.1-0.3,0.1-0.6,0.1-0.9
			c0-0.3,0.1-0.6,0.2-0.9c0,0,0-0.1,0.1-0.2c0-0.1,0.1-0.1,0.1-0.1c0.4-0.8,0.8-1.6,1.1-2.4c0.3-0.8,0.7-1.6,1.3-2.4
			c0.3-0.5,0.8-0.9,1.3-1.4c0.5-0.5,1-0.9,1.6-1.4c0.6-0.4,1.2-0.8,1.8-1c0.6-0.3,1.3-0.4,1.9-0.5c1.7-0.2,3.1,0.1,4.1,0.7
			c1,0.6,1.7,1.5,2.3,2.5c0.6,1,1,2.1,1.3,3.3c0.3,1.2,0.7,2.4,1,3.4c0,0.1,0,0.3,0.1,0.6c0.1,0.3,0.1,0.6,0.1,1s0.1,0.7,0.1,1
			c0.1,0.3,0.1,0.5,0.1,0.6c0.3,2.6,0.4,5.1,0.5,7.7c0.1,2.6,0.1,5.2,0.3,7.7c0,0.7,0,1.3-0.1,2c-0.1,0.7-0.1,1.4-0.1,2
			c0,0.1,0,0.3,0.1,0.6c0,0.3,0.1,0.7,0.1,1.1c0,0.4,0.1,0.7,0.1,1.1c0.1,0.3,0.1,0.5,0.1,0.6v1.9c0,0.1,0,0.3,0,0.6
			c0,0.3,0,0.7,0.1,1.1c0,0.4,0,0.7,0.1,1.1c0,0.3,0,0.6,0,0.7c0,0.2,0,0.6-0.1,1c-0.1,0.5-0.3,0.7-0.8,0.8h-0.1c0,0-0.2,0-0.4-0.1
			c-0.2,0-0.3-0.1-0.4-0.1c-0.1,0-0.3,0-0.7,0c-0.3,0-0.7,0-1.1,0c-0.4,0-0.7,0-1,0C530.6,44.1,530.4,44.1,530.3,44.1z M520.7,23.2
			c0,0.5,0.3,0.8,0.8,1c0.5,0.2,1.1,0.3,1.7,0.4c0.7,0.1,1.3,0.1,2,0.1c0.7,0,1.2,0,1.5-0.1c0.1,0,0.2,0,0.5,0c0.2,0,0.4,0,0.5,0
			c0.1-0.1,0.1-0.2,0.2-0.3c0-0.1,0.1-0.2,0.1-0.3c0-0.2,0-0.6-0.1-1.1c0-0.5-0.1-1.1-0.1-1.7c0-0.6,0-1.2-0.1-1.7
			c0-0.5,0-0.9,0-1.1c0-0.1,0.1-0.3,0.1-0.5V17l-0.6-5.6c0-0.3-0.1-0.6-0.3-0.9c-0.2-0.3-0.3-0.7-0.6-1c-0.2-0.3-0.5-0.5-0.8-0.7
			c-0.3-0.2-0.7-0.2-1-0.2c-0.3,0-0.6,0.1-0.9,0.3c-1.3,1.3-2.1,2.7-2.4,4.1c-0.3,1.4-0.5,3-0.5,4.7c0,0.9,0,1.8-0.1,2.7
			C520.6,21.3,520.7,22.2,520.7,23.2z"/>
		<path class="st16" d="M542.3,41.2c-0.3-2.2-0.3-4.4-0.2-6.7c0.1-2.3,0.1-4.5,0.1-6.7c-0.1-2.1-0.2-4.1-0.3-6.1
			c-0.2-2-0.2-4-0.2-6.1c0-2.2,0-4.3,0-6.3c0-1.9-0.1-4-0.4-6.2c0.1-0.6,0.4-1.1,1-1.4c0.6-0.3,1.1-0.5,1.7-0.6
			c0.6-0.1,1.3-0.1,2.1,0c0.8,0.1,1.4,0.4,1.9,0.9c0,0.1,0,0.2,0,0.5c0,0.2,0,0.4,0,0.5c0.2,1.4,0.1,2.8-0.1,4.4
			c-0.2,1.6-0.3,3-0.2,4.4c0,0.2,0,0.7,0.1,1.8c0.1,1,0.1,2.2,0.2,3.5c0.1,1.3,0.2,2.6,0.2,4c0.1,1.3,0.1,2.4,0.2,3.2
			c0.1,1.9,0.2,3.7,0.2,5.4c0,1.8,0.1,3.6,0.3,5.4c0.1,0.7,0.4,1.2,1,1.3c0.5,0.1,1.1,0.2,1.7,0.1c0.6,0,1.2,0,1.7,0
			c0.5,0,0.8,0.4,0.9,1c0,1.2,0,2.2-0.1,3c-0.1,0.8-0.1,1.4-0.3,2.1c-0.1,0.6-0.3,0.9-0.6,0.9c0,0-0.1,0.1-0.2,0.1h-0.2
			c-1.5-0.1-3-0.1-4.5-0.2c-1.6-0.1-3.1-0.2-4.7-0.3c-0.5,0-0.8-0.2-1-0.4C542.5,42.1,542.4,41.7,542.3,41.2z"/>
		<path class="st16" d="M577.7,44.1c-0.2-0.1-0.4-0.2-0.6-0.4c-0.2-0.2-0.3-0.4-0.3-0.6l-1.4-12.3c0-0.2-0.1-0.3-0.2-0.4
			c-0.1-0.1-0.3-0.2-0.4-0.1L568,31l1.1,10.2c0.1,0.6,0.3,1.2,0.5,1.7c0.3,0.5,0.4,1.1,0.5,1.7c0,0.2,0,0.4-0.1,0.4
			c-0.1,0.1-0.3,0.1-0.5,0.1c-0.1,0-0.2,0-0.3,0c-0.1,0-0.2,0-0.3,0h-0.7c-0.3,0-0.7,0-1,0c-0.3,0-0.7,0-1,0.1c-0.3,0-0.5,0-0.6,0
			c-0.7,0-1.3-0.1-1.7-0.2c-0.4-0.2-0.8-0.4-1-0.7c-0.2-0.3-0.4-0.7-0.5-1.1c-0.1-0.4-0.2-1-0.3-1.5c-0.2-2.1-0.3-4.3-0.5-6.4
			c-0.1-2.1-0.2-4.3-0.3-6.4c0,0,0-0.3,0-0.6c0-0.4,0-0.8-0.1-1.3c0-0.5-0.1-1-0.1-1.5c0-0.5-0.1-0.9-0.1-1.1
			c-0.1-1.5,0-2.8,0.2-4.1c0.2-1.2,0.5-2.6,0.7-4.1c-0.2-0.7-0.2-1.4,0.1-2.1c0.3-0.7,0.6-1.4,0.8-2c0.1-0.3,0.1-0.6,0.1-0.9
			c0-0.3,0.1-0.6,0.2-0.9c0,0,0-0.1,0.1-0.2c0-0.1,0.1-0.1,0.1-0.1c0.4-0.8,0.8-1.6,1.1-2.4c0.3-0.8,0.7-1.6,1.3-2.4
			c0.3-0.5,0.8-0.9,1.3-1.4c0.5-0.5,1-0.9,1.6-1.4c0.6-0.4,1.2-0.8,1.8-1c0.6-0.3,1.3-0.4,1.9-0.5c1.7-0.2,3.1,0.1,4.1,0.7
			c1,0.6,1.7,1.5,2.3,2.5c0.6,1,1,2.1,1.3,3.3c0.3,1.2,0.7,2.4,1,3.4c0,0.1,0,0.3,0.1,0.6s0.1,0.6,0.1,1c0,0.3,0.1,0.7,0.1,1
			c0.1,0.3,0.1,0.5,0.1,0.6c0.3,2.6,0.4,5.1,0.5,7.7c0.1,2.6,0.1,5.2,0.3,7.7c0,0.7,0,1.3-0.1,2c-0.1,0.7-0.1,1.4-0.1,2
			c0,0.1,0,0.3,0.1,0.6c0,0.3,0.1,0.7,0.1,1.1c0,0.4,0.1,0.7,0.1,1.1c0.1,0.3,0.1,0.5,0.1,0.6v1.9c0,0.1,0,0.3,0,0.6
			c0,0.3,0,0.7,0.1,1.1c0,0.4,0,0.7,0.1,1.1c0,0.3,0,0.6,0,0.7c0,0.2,0,0.6-0.1,1c-0.1,0.5-0.3,0.7-0.8,0.8h-0.1c0,0-0.2,0-0.4-0.1
			c-0.2,0-0.3-0.1-0.4-0.1c-0.1,0-0.3,0-0.7,0c-0.3,0-0.7,0-1.1,0c-0.4,0-0.7,0-1,0C578,44.1,577.8,44.1,577.7,44.1z M568.1,23.2
			c0,0.5,0.3,0.8,0.8,1c0.5,0.2,1.1,0.3,1.7,0.4c0.7,0.1,1.3,0.1,2,0.1c0.7,0,1.2,0,1.5-0.1c0.1,0,0.2,0,0.5,0c0.2,0,0.4,0,0.5,0
			c0.1-0.1,0.1-0.2,0.2-0.3c0-0.1,0.1-0.2,0.1-0.3c0-0.2,0-0.6-0.1-1.1c0-0.5-0.1-1.1-0.1-1.7c0-0.6,0-1.2-0.1-1.7
			c0-0.5,0-0.9,0-1.1c0-0.1,0.1-0.3,0.1-0.5V17l-0.6-5.6c0-0.3-0.1-0.6-0.3-0.9c-0.2-0.3-0.3-0.7-0.6-1c-0.2-0.3-0.5-0.5-0.8-0.7
			c-0.3-0.2-0.7-0.2-1-0.2c-0.3,0-0.6,0.1-0.9,0.3c-1.3,1.3-2.1,2.7-2.4,4.1c-0.3,1.4-0.5,3-0.5,4.7c0,0.9,0,1.8-0.1,2.7
			C568,21.3,568.1,22.2,568.1,23.2z"/>
		<path class="st16" d="M590.1,44.6c0-0.3-0.1-0.6-0.1-0.8c0-0.2,0-0.4,0.1-0.8l-0.1-12.2c-0.4-2.9-0.7-5.9-0.7-9c0-3-0.1-6-0.2-8.9
			c-0.1-1.4-0.2-2.7-0.3-4.1c-0.1-1.4-0.1-2.7-0.1-4.1c0-0.2,0-0.5-0.1-0.7c-0.1-0.2,0-0.4,0.1-0.7c0.2-0.3,0.6-0.6,1-0.8
			c0.4-0.2,0.9-0.3,1.5-0.4c0.5-0.1,1-0.2,1.5-0.2c0.5,0,0.9-0.1,1.3-0.1c0.9-0.1,1.8,0,2.6,0.2c0.8,0.2,1.6,0.6,2.3,1
			c0.7,0.4,1.3,1,1.9,1.6c0.6,0.6,1.1,1.3,1.5,2c0.2,0.3,0.3,0.7,0.4,1.1c0.1,0.4,0.2,0.7,0.4,1l0.4,3.8c0,0.1-0.1,0.3-0.1,0.6
			c0,0.3-0.1,0.6-0.1,0.7c-0.1,0.6-0.2,1.3-0.5,1.9c-0.2,0.6-0.3,1.3-0.2,1.8c0,0.5,0.3,1,0.7,1.4c0.4,0.4,0.8,0.8,1.1,1.1
			c0.1,0.1,0.3,0.3,0.6,0.7c0.3,0.3,0.5,0.6,0.6,0.7c0,0.1,0,0.4,0.3,0.7c0.2,0.3,0.5,0.7,0.8,1.2c0.3,0.4,0.5,0.9,0.8,1.3
			c0.2,0.4,0.3,0.8,0.3,1c0,0.1,0.1,0.3,0.3,0.6c0.1,0.3,0.3,0.6,0.4,1c0.1,0.3,0.2,0.7,0.3,1c0.1,0.3,0.2,0.5,0.2,0.6
			c0,0,0,0.3,0.1,0.7c0,0.4,0.1,0.8,0.2,1c0.2,1.7,0.1,3.4-0.1,5c-0.3,1.6-0.7,3.2-1.3,4.9c0,0.1,0,0.2,0,0.3c0,0.1-0.1,0.2-0.1,0.3
			c-0.4,0.7-0.8,1.4-1.3,2.1c-0.5,0.6-1.2,1.1-2.1,1.4c-0.2,0-0.4,0-0.7,0.1c-0.3,0-0.7,0.1-1.1,0.1c-0.4,0.1-0.7,0.1-1.1,0.1
			c-0.3,0-0.6,0.1-0.7,0.1c-0.2,0-0.5,0-0.9,0.1c-0.4,0-0.8,0.1-1.2,0.1c-0.4,0-0.7,0.1-1,0.1c-0.3,0-0.5,0-0.5,0c0,0-0.1,0-0.3,0
			c-0.2,0-0.3,0-0.5,0c-0.2,0-0.4,0-0.6,0c-0.2,0-0.3,0-0.4,0c-0.5,0-1,0-1.6-0.1c-0.6-0.1-1.1-0.1-1.7-0.1c-0.6,0-1,0.1-1.4,0.1
			C590.3,45.5,590.1,45.2,590.1,44.6z M595.4,15.1c0,0.1,0.1,0.2,0.3,0.2c0.1,0,0.2,0.1,0.3,0.1c0.2,0,0.3-0.1,0.3-0.3
			c0.4-0.7,0.6-1.4,0.6-2c0.1-0.6,0.1-1.3,0-2.1c0-0.2-0.1-0.4-0.1-0.7c-0.1-0.3-0.2-0.5-0.3-0.7c-0.1-0.2-0.3-0.4-0.5-0.5
			c-0.2-0.1-0.4-0.2-0.7-0.1c0,0-0.1,0-0.2,0.1c-0.1,0-0.2,0.1-0.2,0.1l-0.2,0.3L595.4,15.1z M595.6,38.8c0,0.4,0.3,0.7,0.8,0.8
			c0.5,0.2,0.9,0.2,1.2,0.2c1-0.1,1.9-0.4,2.5-0.8c0.6-0.4,1.1-0.9,1.3-1.6c0.3-0.6,0.4-1.3,0.5-2.1c0-0.8,0-1.5-0.1-2.3
			c-0.2-1.5-0.5-3-1-4.4c-0.5-1.5-1.5-2.7-2.9-3.6c-0.3-0.2-0.5-0.3-0.7-0.4c-0.2-0.1-0.5-0.1-0.8-0.1c-0.2,0-0.4,0.1-0.5,0.3
			c-0.1,0.2-0.2,0.4-0.2,0.7c0,0.3-0.1,0.5-0.1,0.8v0.6v4.8c0,0.1,0.1,0.3,0.1,0.7c0,0.4,0.1,0.6,0.1,0.7c0,1,0,2-0.1,2.9
			C595.6,36.8,595.6,37.8,595.6,38.8z"/>
		<path class="st16" d="M632.4,45.9c-0.7-1-1.3-2-1.7-2.8c-0.4-0.8-0.9-1.7-1.5-2.6c-0.1-0.1-0.2-0.3-0.4-0.5
			c-0.2-0.2-0.4-0.4-0.6-0.7c-0.2-0.2-0.3-0.5-0.4-0.7c-0.1-0.2-0.1-0.4-0.1-0.6c-0.5-0.7-0.9-1.3-1.4-2c-0.4-0.7-0.9-1.4-1.3-2H625
			c0,0-0.1,0-0.1-0.1c-0.3-0.1-0.5,0.1-0.4,0.5c0,0.4,0.1,1.1,0.1,2.1c0,1,0.1,2.1,0.1,3.2c0.1,1.1,0.1,2.2,0.2,3.3
			c0.1,1,0.1,1.7,0.1,2.1l0.1,0.2c-0.1,0.1-0.2,0.3-0.3,0.4s-0.3,0.2-0.3,0.2l-5.9,0.4c-0.3,0-0.6-0.1-0.9-0.4
			c-0.2-0.3-0.4-0.6-0.4-0.9c0,0,0-0.1,0-0.1c0,0,0-0.1,0-0.1v-0.2c0,0,0-0.1,0.1-0.3c0-0.2,0.1-0.4,0.1-0.6c0-0.2,0.1-0.4,0.1-0.5
			c0-0.2,0.1-0.3,0.1-0.3c0-0.1,0-0.4-0.1-0.8c-0.1-0.4-0.1-0.8-0.1-1.3c0-0.4-0.1-0.9-0.1-1.3c0-0.4-0.1-0.6-0.1-0.8v-1.4
			c0-0.8,0-1.6,0-2.4c0-0.9,0-1.7-0.1-2.4c0-0.8,0-1.2,0-1.4c0-0.2,0-0.5-0.1-1c0-0.5-0.1-1-0.1-1.6c0-0.6-0.1-1.1-0.1-1.6
			c0-0.5-0.1-0.9-0.1-1c0-0.1,0.1-0.3,0.1-0.5v-0.5c0.1-3.4,0.1-6.7,0.1-10c-0.1-3.3-0.2-6.6-0.3-9.9c0-0.1,0-0.3,0-0.6
			c0-0.3,0-0.6-0.1-1c0-0.3-0.1-0.7-0.1-1c0-0.3,0-0.6,0-0.7c0.1-0.2,0.2-0.4,0.3-0.4c0.1,0,0.3-0.1,0.4-0.1
			c1.5-0.1,3.1-0.2,4.5-0.2c1.5,0,2.9,0.1,4.2,0.5c1.3,0.3,2.5,0.9,3.5,1.7c1.1,0.8,1.9,1.9,2.6,3.3c0.5,1,1,2,1.5,2.9
			c0.5,0.9,0.8,2,0.9,3.1c0.2,2.3-0.2,4.5-1.2,6.5c-1,2-2.3,3.8-4,5.4c-0.2,0.2-0.2,0.4-0.2,0.6c0.1,0.3,0.2,0.7,0.4,1
			c0.2,0.3,0.3,0.6,0.2,1l2.4,4.8v0.2l2.4,3.8c0,0,0.2,0.4,0.5,1c0.3,0.6,0.7,1.3,1.1,2c0.4,0.8,0.8,1.5,1.2,2.3
			c0.3,0.8,0.5,1.3,0.6,1.7c0,0.4-0.1,0.7-0.4,1.2c-0.3,0.4-0.6,0.8-1.1,1.2c-0.4,0.3-0.9,0.6-1.3,0.9c-0.5,0.3-0.9,0.4-1.2,0.4
			C633.1,46.3,632.7,46.2,632.4,45.9z M622.6,18.2c0.2,0.2,0.3,0.3,0.4,0.4c0.1,0.1,0.3,0.2,0.5,0.2c0.8-0.1,1.4-0.4,1.9-0.8
			c0.5-0.5,0.9-1,1.1-1.7c0.3-0.6,0.4-1.3,0.5-2c0.1-0.7,0.1-1.3,0.1-1.8c0-0.4-0.1-0.9-0.3-1.4c-0.2-0.6-0.4-1.1-0.6-1.6
			c-0.3-0.5-0.6-0.9-1-1.3c-0.4-0.3-0.9-0.5-1.5-0.4c-0.4,0-0.7,0.3-0.9,0.6c-0.2,0.4-0.4,0.8-0.4,1.3c-0.1,0.5-0.1,1-0.1,1.5v1
			c0,0,0,0.2,0,0.4c0,0.2,0,0.5,0.1,0.8c0,0.3,0,0.6,0.1,1c0,0.3,0,0.6,0.1,0.8c0,0.1,0,0.3,0,0.6c0,0.3,0,0.6,0.1,0.9
			c0,0.3,0,0.6,0.1,0.9C622.6,17.9,622.6,18.1,622.6,18.2z"/>
		<path class="st16" d="M658.7,44.1c-0.2-0.1-0.4-0.2-0.6-0.4c-0.2-0.2-0.3-0.4-0.3-0.6l-1.4-12.3c0-0.2-0.1-0.3-0.2-0.4
			c-0.1-0.1-0.3-0.2-0.4-0.1L649,31l1.1,10.2c0.1,0.6,0.3,1.2,0.5,1.7c0.3,0.5,0.4,1.1,0.5,1.7c0,0.2,0,0.4-0.1,0.4
			c-0.1,0.1-0.3,0.1-0.5,0.1c-0.1,0-0.2,0-0.3,0c-0.1,0-0.2,0-0.3,0h-0.7c-0.3,0-0.7,0-1,0c-0.3,0-0.7,0-1,0.1c-0.3,0-0.5,0-0.6,0
			c-0.7,0-1.3-0.1-1.7-0.2c-0.4-0.2-0.8-0.4-1-0.7c-0.2-0.3-0.4-0.7-0.5-1.1c-0.1-0.4-0.2-1-0.3-1.5c-0.2-2.1-0.3-4.3-0.5-6.4
			c-0.1-2.1-0.2-4.3-0.3-6.4c0,0,0-0.3,0-0.6c0-0.4,0-0.8-0.1-1.3c0-0.5-0.1-1-0.1-1.5c0-0.5-0.1-0.9-0.1-1.1
			c-0.1-1.5,0-2.8,0.2-4.1c0.2-1.2,0.5-2.6,0.7-4.1c-0.2-0.7-0.2-1.4,0.1-2.1c0.3-0.7,0.6-1.4,0.8-2c0.1-0.3,0.1-0.6,0.1-0.9
			c0-0.3,0.1-0.6,0.2-0.9c0,0,0-0.1,0.1-0.2c0-0.1,0.1-0.1,0.1-0.1c0.4-0.8,0.8-1.6,1.1-2.4c0.3-0.8,0.7-1.6,1.3-2.4
			c0.3-0.5,0.8-0.9,1.3-1.4c0.5-0.5,1-0.9,1.6-1.4c0.6-0.4,1.2-0.8,1.8-1c0.6-0.3,1.3-0.4,1.9-0.5c1.7-0.2,3.1,0.1,4.1,0.7
			c1,0.6,1.7,1.5,2.3,2.5c0.6,1,1,2.1,1.3,3.3c0.3,1.2,0.7,2.4,1,3.4c0,0.1,0,0.3,0.1,0.6c0.1,0.3,0.1,0.6,0.1,1
			c0,0.3,0.1,0.7,0.1,1c0.1,0.3,0.1,0.5,0.1,0.6c0.3,2.6,0.4,5.1,0.5,7.7c0.1,2.6,0.1,5.2,0.3,7.7c0,0.7,0,1.3-0.1,2
			c-0.1,0.7-0.1,1.4-0.1,2c0,0.1,0,0.3,0.1,0.6c0,0.3,0.1,0.7,0.1,1.1c0,0.4,0.1,0.7,0.1,1.1c0.1,0.3,0.1,0.5,0.1,0.6v1.9
			c0,0.1,0,0.3,0,0.6c0,0.3,0,0.7,0.1,1.1c0,0.4,0,0.7,0.1,1.1c0,0.3,0,0.6,0,0.7c0,0.2,0,0.6-0.1,1c-0.1,0.5-0.3,0.7-0.8,0.8h-0.1
			c0,0-0.2,0-0.4-0.1c-0.2,0-0.3-0.1-0.4-0.1c-0.1,0-0.3,0-0.7,0c-0.3,0-0.7,0-1.1,0c-0.4,0-0.7,0-1,0
			C659,44.1,658.8,44.1,658.7,44.1z M649.2,23.2c0,0.5,0.3,0.8,0.8,1c0.5,0.2,1.1,0.3,1.7,0.4c0.7,0.1,1.3,0.1,2,0.1
			c0.7,0,1.2,0,1.5-0.1c0.1,0,0.2,0,0.5,0c0.2,0,0.4,0,0.5,0c0.1-0.1,0.1-0.2,0.2-0.3c0-0.1,0.1-0.2,0.1-0.3c0-0.2,0-0.6-0.1-1.1
			c0-0.5-0.1-1.1-0.1-1.7c0-0.6,0-1.2-0.1-1.7c0-0.5,0-0.9,0-1.1c0-0.1,0.1-0.3,0.1-0.5V17l-0.6-5.6c0-0.3-0.1-0.6-0.3-0.9
			c-0.2-0.3-0.3-0.7-0.6-1c-0.2-0.3-0.5-0.5-0.8-0.7c-0.3-0.2-0.7-0.2-1-0.2c-0.3,0-0.6,0.1-0.9,0.3c-1.3,1.3-2.1,2.7-2.4,4.1
			c-0.3,1.4-0.5,3-0.5,4.7c0,0.9,0,1.8-0.1,2.7C649.1,21.3,649.1,22.2,649.2,23.2z"/>
		<path class="st16" d="M667.8,35.2c0.3-0.7,0.8-1.2,1.5-1.4c0.7-0.2,1.6-0.3,2.6-0.2c1,0.1,2.1,0.3,3.3,0.5
			c1.2,0.3,2.5,0.5,3.8,0.8c0.5,0,1-0.2,1.4-0.4c0.4-0.2,0.8-0.5,1.1-0.9c0.4-0.4,0.7-0.8,1-1.3c0.3-0.5,0.6-0.9,1-1.4
			c0,0,0.1-0.1,0.1-0.3c0-0.1,0.1-0.2,0.1-0.3l-0.2-3.4c-0.1,0-0.3-0.2-0.7-0.6c-0.4-0.3-0.7-0.6-1-0.8c-0.1-0.1-0.2-0.2-0.4-0.3
			c-0.2-0.1-0.4-0.2-0.4-0.2c-1.4-0.6-2.6-1-3.8-1.4c-1.2-0.3-2.3-0.8-3.3-1.3c-1-0.5-2-1.1-2.8-2c-0.8-0.8-1.6-2-2.2-3.6
			c0-0.1,0-0.3,0-0.5c0-0.2,0-0.5-0.1-0.7c0-0.3-0.1-0.5-0.1-0.7c0-0.2,0-0.4,0-0.4c0-0.5-0.1-1.1-0.2-1.7c-0.1-0.6,0-1.2,0.2-1.7
			c0-0.2,0.1-0.4,0.2-0.8c0.1-0.4,0.3-0.8,0.4-1.2c0.2-0.4,0.3-0.8,0.4-1.2c0.1-0.4,0.2-0.7,0.3-0.8V6.6c0.2-0.3,0.4-0.6,0.6-0.8
			c0.2-0.2,0.4-0.4,0.6-0.6c0.2-0.2,0.3-0.4,0.4-0.5c1.3-1.4,2.5-2.5,3.8-3.3c1.3-0.7,2.8-1.2,4.6-1.4c0.5,0,1.2,0,2.2,0.2
			c1,0.2,1.9,0.4,2.9,0.7c1,0.3,1.8,0.7,2.6,1.2c0.7,0.5,1.1,1,1.2,1.6c0,0.3,0,0.8-0.1,1.4c-0.1,0.6-0.2,1.2-0.4,1.7
			c-0.2,0.6-0.4,1.1-0.7,1.5c-0.3,0.4-0.6,0.7-1,0.7c-1,0.1-2,0.1-3,0c-1-0.1-2-0.1-3,0c-0.2,0-0.6,0-1.2,0.1
			c-0.6,0.1-1,0.1-1.2,0.1c-0.1,0.1-0.3,0.2-0.6,0.3c-0.3,0.1-0.5,0.2-0.8,0.4c-0.3,0.2-0.5,0.3-0.6,0.5c-0.2,0.2-0.3,0.3-0.3,0.5
			l0.3,3.5c0,0.2,0.1,0.4,0.4,0.6c0.3,0.2,0.5,0.3,0.8,0.5c0.3,0.2,0.6,0.3,0.9,0.5c0.3,0.1,0.5,0.2,0.6,0.3c1.5,0.7,3,1.4,4.2,2.1
			c1.3,0.7,2.4,1.4,3.3,2.3c0.9,0.9,1.7,1.9,2.2,3.2c0.6,1.2,0.9,2.7,1.1,4.6c0.2,1.6,0,3.2-0.3,4.7c-0.4,1.6-1,2.9-1.8,4.2
			c-0.8,1.2-1.9,2.2-3.2,3.1c-1.3,0.8-2.7,1.3-4.4,1.5c-1.4,0.2-2.7,0.2-4.2,0.1c-1.4-0.1-2.7-0.4-3.9-0.9c-1.2-0.5-2.2-1.2-3-2.1
			C668.4,37.9,667.9,36.7,667.8,35.2z"/>
	</g>
</g>
</svg>
