<svg width="127" height="81" viewBox="0 0 127 81" fill="none" xmlns="http://www.w3.org/2000/svg">
<path d="M4.33484 58.2132C4.33484 58.2132 8.78008 72.1627 18.6005 75.9384C34.2054 81.946 93.7792 82.5226 107.264 75.0642C124.915 65.3181 121.976 56.4648 121.976 56.4648L4.33484 58.2132Z" fill="#85557C"/>
<path d="M73.5419 73.3346C108.583 70.7307 127.182 63.3839 126.736 59.4966C126.308 55.6094 97.7582 46.5143 58.8298 47.3884C19.9013 48.244 0 55.6094 0 61.6542" fill="#B2B2B2"/>
<path d="M0.0205078 61.6727C0.0205078 71.1584 38.4282 74.3017 73.5438 73.3531C108.734 72.4045 127.817 67.8664 126.738 59.5152C125.938 53.3774 97.7602 46.5329 58.8317 47.407C19.9218 48.2626 0.0205078 55.6093 0.0205078 61.6727Z" fill="#B780B1"/>
<path d="M4.56116 60.6683C4.56116 67.7733 40.2161 70.1167 72.8394 69.41C105.519 68.7032 123.225 65.2995 122.239 59.0502C121.495 54.4375 95.3261 49.3227 59.1875 49.9737C23.0303 50.6246 4.56116 56.1301 4.56116 60.6683Z" fill="#85557C"/>
<path d="M80.4999 19.4149C80.4999 19.4149 80.9649 12.8866 83.7362 10.0967C83.7362 10.0967 84.8522 10.5988 87.7723 11.3614C90.6924 12.1426 94.1333 10.6174 91.6968 9.91065C89.2602 9.20388 88.5721 9.27828 88.5721 9.27828C88.5721 9.27828 95.2492 7.56716 91.8455 6.56279C88.4419 5.55843 87.6979 7.12075 87.6979 7.12075C87.6979 7.12075 92.6825 3.14046 89.5206 4.01463C86.3401 4.8888 86.3587 7.08357 86.3587 7.08357C86.3587 7.08357 89.2416 -0.932772 87.0655 0.0901932C84.8894 1.11316 84.2384 2.02452 84.257 3.04749C84.2756 4.07045 83.9036 7.69733 83.9036 7.69733C83.9036 7.69733 81.8577 3.19631 77.4868 4.23787C73.116 5.27944 76.5011 7.47414 77.896 7.17655C79.291 6.87896 72.6696 8.25534 75.9059 9.24111C79.1422 10.2269 81.7089 7.7345 81.7089 7.7345C81.7089 7.7345 75.0131 10.7848 76.9475 11.4172C78.8818 12.0496 82.3227 9.3527 82.3227 9.3527L79.3654 19.0429L80.4999 19.4149Z" fill="#92C131"/>
<path d="M97.3713 25.5899C97.3713 25.5899 106.001 37.0844 102.561 48.523C99.8078 57.6924 88.1832 62.0447 81.6734 60.2219C75.1636 58.3806 72.1505 58.2132 70.3092 58.3806C68.4679 58.548 59.9494 62.5655 54.7787 55.2001C49.6081 47.8534 50.0917 30.7977 53.2722 26.4641C56.4527 22.1304 97.3713 25.5899 97.3713 25.5899Z" fill="#B91919"/>
<path d="M77.486 34.1457C65.6196 33.8109 55.7062 28.8449 55.3714 27.1709C55.0366 25.497 58.0311 20.0846 59.2773 19.1174C62.2346 16.7925 66.1962 19.136 66.3636 17.9642C66.531 16.7924 69.9533 14.9697 72.427 15.2115C75.0309 15.4533 76.3143 17.1273 76.3143 17.1273C76.3143 17.1273 77.3186 13.612 81.8383 13.9468C86.3579 14.2816 86.1719 18.8012 86.1719 18.8012C86.1719 18.8012 89.0548 16.8669 90.394 18.0386C91.7332 19.2104 92.7003 21.6469 92.7003 21.6469C92.7003 21.6469 96.4202 18.4292 97.4804 22.6327C98.2615 25.7016 95.8808 29.6633 92.1981 31.672C88.5155 33.6435 83.3448 34.3131 77.486 34.1457Z" fill="#D5BB4F"/>
<path d="M28.4788 31.8208C28.4788 31.8208 21.3552 43.2408 24.7961 54.7166C27.5674 63.8861 37.4623 67.606 44.6788 66.4156C51.356 65.2997 54.2017 64.4069 56.043 64.5743C57.8844 64.7417 68.8022 68.0152 73.5822 60.408C80.6314 49.2112 76.2606 37.01 73.0801 32.6764C69.9182 28.3055 28.4788 31.8208 28.4788 31.8208Z" fill="#E30613"/>
<path d="M48.8653 40.3391C60.7317 40.0043 72.0959 33.9967 72.4121 32.3228C72.7469 30.6488 67.7437 24.4739 67.0741 25.3108C66.4045 26.1478 64.0052 22.8557 62.0709 22.9673C59.3554 23.1347 57.7186 24.4739 57.5512 23.3021C57.3838 22.1304 54.5381 20.3076 52.2132 21.126C49.8697 21.963 50.0371 23.3021 50.0371 23.3021C50.0371 23.3021 49.0327 19.7868 44.5131 20.1216C40.012 20.4564 40.1794 24.9761 40.1794 24.9761C40.1794 24.9761 37.3337 22.1304 36.0132 23.3021C34.674 24.4739 33.6697 27.8218 33.6697 27.8218C33.6697 27.8218 29.2988 25.6828 28.7222 28.9191C28.1456 32.1554 28.1456 32.453 28.7222 33.4388C29.615 34.9453 30.4892 35.8567 34.1718 37.8468C37.8359 39.8369 43.0251 40.5065 48.8653 40.3391Z" fill="#EACE51"/>
<path d="M50.5378 26.2967C50.5378 26.2967 51.04 19.787 48.6965 16.6065C48.6965 16.6065 47.5247 16.9412 44.5116 17.276C41.4985 17.6108 38.3366 15.6021 40.829 15.2673C43.3399 14.9325 44.0094 15.0999 44.0094 15.0999C44.0094 15.0999 37.6671 12.4216 41.1637 11.9194C44.679 11.4172 45.1812 13.0912 45.1812 13.0912C45.1812 13.0912 40.829 8.42274 43.8421 9.7433C46.8552 11.0825 46.5204 13.2585 46.5204 13.2585C46.5204 13.2585 44.8464 4.90745 46.8552 6.24661C48.8639 7.58576 49.3661 8.59011 49.1987 9.59447C49.0313 10.5988 48.0269 15.2673 48.0269 15.2673C48.0269 15.2673 51.5422 10.0781 55.7085 11.752C59.8933 13.4259 56.2106 15.0999 54.8715 14.5977C53.5323 14.0955 59.8747 16.4391 56.5454 16.9412C53.1975 17.4434 51.04 14.5977 51.04 14.5977C51.04 14.5977 57.215 18.6152 55.2063 18.9314C53.1975 19.2662 50.203 16.1043 50.203 16.1043L51.7096 26.1293L50.5378 26.2967Z" fill="#92C131"/>
<path d="M68.0737 24.6228C68.0737 24.6228 74.9183 24.6228 80.7771 30.9838C86.6359 37.3261 97.9815 50.6991 97.6467 57.3763C97.3119 64.0534 95.1358 61.7099 92.6435 59.8872C90.114 58.0458 62.9031 26.6315 68.0737 24.6228Z" fill="#E30613"/>
<path d="M85.6163 37.1586C85.6163 37.1586 81.9336 35.8195 80.7804 36.4891C79.6087 37.1587 86.2858 39.1674 86.2858 39.1674C86.2858 39.1674 85.4489 44.524 85.4489 45.175C85.4489 45.8445 88.9455 41.9945 88.9455 41.9945C88.9455 41.9945 88.7781 42.9988 92.126 45.175C95.4739 47.3511 90.4521 39.837 90.4521 39.837C90.4521 39.837 98.8032 45.8446 96.8131 42.5153C94.8044 39.1674 89.8011 37.9956 89.8011 37.9956C89.8011 37.9956 90.6381 31.4858 87.7924 27.9706C84.9467 24.4553 87.2902 35.6521 87.2902 35.6521C87.2902 35.6521 85.2815 27.1336 82.9379 26.6314C80.5944 26.1292 82.4358 32.3228 83.7749 34.1456C85.1141 35.9869 85.6163 37.1586 85.6163 37.1586Z" fill="#1B8A4F"/>
</svg>
