<svg width="989" height="413" viewBox="0 0 989 413" fill="none" xmlns="http://www.w3.org/2000/svg">
<path fill-rule="evenodd" clip-rule="evenodd" d="M988.253 331.265C988.738 321.29 990.461 238.358 930.95 208.505C871.44 178.653 815.618 236.513 815.618 236.513C815.618 236.513 815.496 121.836 740.477 130.646C665.481 139.456 663.175 204.452 663.175 204.452C663.175 204.452 641.332 163.581 599.951 174.357C554.08 186.322 559.298 228.237 559.298 228.237C559.298 228.237 536.339 196.443 498.04 216.248C459.766 236.052 437.267 273.793 443.82 317.018C450.373 360.244 483.478 418.177 710.211 412.182C936.945 406.163 984.758 401.77 988.253 331.265Z" fill="#754861"/>
<path fill-rule="evenodd" clip-rule="evenodd" d="M0.0203258 172.719C0.214596 161.8 4.82854 71.2646 84.358 42.8648C163.887 14.4651 231.348 81.406 231.348 81.406C231.348 81.406 231.348 1.22133 339.371 1.22133C408 -9 431.349 57.0545 431.349 57.0545C431.349 57.0545 463.015 14.0152 515.687 28.6547C574.089 44.889 563.89 90.2183 563.89 90.2183C563.89 90.2183 596.26 57.1568 644.196 81.406C692.133 105.655 718.116 148.367 706.071 195.026C694.027 241.684 646.358 302.552 353.301 280.245C60.2685 257.939 -1.291 249.821 0.0203258 172.719Z" fill="#A3708C"/>
</svg>
