<svg width="414" height="52" viewBox="0 0 414 52" fill="none" xmlns="http://www.w3.org/2000/svg">
<path d="M13.3928 22.9347C13.4862 23.7521 13.5563 24.7097 13.5563 25.7607C13.5563 26.835 13.4862 27.9093 13.3461 29.0537C13.206 30.1748 12.9958 31.2725 12.6922 32.3468C12.4119 33.3978 12.0382 34.332 11.5945 35.126C11.0573 35.9902 10.38 36.8076 9.58594 37.625C8.79187 38.4191 8.02115 39.1898 7.27379 39.9138C6.75998 40.7079 6.54979 41.5253 6.66656 42.3895C6.73663 43.1135 6.99353 43.674 7.43728 44.071C7.88102 44.4681 8.55832 44.6315 9.44581 44.5615C10.8938 44.398 12.0149 43.8842 12.8556 43.0434C13.6964 42.2026 14.0234 41.175 13.8599 39.9839C13.7898 39.3767 13.6964 38.7461 13.5563 38.0921C13.4162 37.4382 13.3227 36.7609 13.2527 36.0836C13.2293 35.85 13.2994 35.5464 13.4862 35.1728C13.6731 34.8224 13.9066 34.4487 14.1869 34.0984C14.4671 33.7481 14.7708 33.4445 15.0744 33.1876C15.4013 32.9307 15.6816 32.7905 15.9152 32.7905H16.1721C16.3122 32.7672 16.5924 32.7438 17.0128 32.7672C17.4332 32.7905 17.7135 32.7905 17.8536 32.7905C18.8112 33.5846 19.4651 34.5422 19.8154 35.6866C20.1658 36.831 20.4227 37.952 20.5862 39.0497C20.6562 39.6336 20.6562 40.1941 20.5862 40.7312C20.5161 41.2684 20.3993 41.8289 20.2358 42.3895C19.6286 44.9819 18.4141 47.0137 16.6392 48.4384C14.8642 49.8631 12.2951 50.7038 8.932 50.9841C7.62412 51.0775 6.45637 50.9607 5.40539 50.6104C4.35441 50.2601 3.46692 49.7463 2.74292 49.0923C1.99556 48.4384 1.41168 47.6677 0.944581 46.7802C0.477481 45.8927 0.19722 44.9585 0.1038 44.001C0.0103801 43.3237 -0.0363301 42.623 0.033735 41.899C0.0804451 41.175 0.220575 40.4743 0.454126 39.797C0.687676 39.1197 1.01465 38.4658 1.48175 37.8819C1.94885 37.2747 2.55608 36.7609 3.30344 36.3172C3.79389 36.0135 4.33106 35.6632 4.93829 35.3129C5.54552 34.9626 6.03598 34.5422 6.3863 34.0517C6.83005 33.3744 7.15702 32.557 7.36721 31.6461C7.57741 30.7119 7.69418 29.7777 7.76425 28.7968C7.81096 27.8159 7.83431 26.8584 7.7876 25.9242C7.74089 24.99 7.71754 24.1258 7.69418 23.3785C7.62412 22.7245 7.57741 22.1874 7.55405 21.7436C7.5307 21.2999 7.62412 20.9495 7.7876 20.6693C7.95109 20.389 8.27806 20.1788 8.74516 19.992C9.21226 19.8285 9.88956 19.7117 10.777 19.6417C11.3609 19.6183 11.8047 19.6884 12.1316 19.8986C12.4586 20.1088 12.7155 20.389 12.9024 20.716C13.0892 21.0663 13.2293 21.44 13.2994 21.8604C13.2994 22.2107 13.3461 22.5844 13.3928 22.9347ZM13.5563 13.2657C13.5797 13.7562 13.5797 14.2233 13.5329 14.7138C13.4862 15.2042 13.3461 15.648 13.1126 16.045C12.879 16.4654 12.552 16.7923 12.1316 17.0726C11.7112 17.3529 11.1507 17.5164 10.4501 17.5864C9.98298 17.6331 9.51588 17.5631 9.07213 17.3996C8.62838 17.2361 8.20799 17.0259 7.83431 16.7223C7.46063 16.442 7.13366 16.1151 6.87676 15.7414C6.61985 15.3677 6.47972 15.0407 6.43301 14.6904C6.40966 14.27 6.45637 13.873 6.5965 13.4292C6.73663 13.0088 6.94682 12.6118 7.27379 12.2848C7.57741 11.9345 7.95109 11.6542 8.37148 11.4207C8.79187 11.1871 9.28233 11.047 9.79614 11.0003C10.6836 10.9302 11.5011 11.0937 12.2718 11.5141C13.0191 11.9345 13.4395 12.5184 13.5563 13.2657Z" fill="#2BB673"/>
<path d="M39.8066 47.5042C39.3629 47.5976 38.9658 47.7845 38.6155 48.0414C38.2652 48.2983 37.9382 48.5552 37.6112 48.8354C37.2843 49.1157 36.9339 49.3726 36.5603 49.6062C36.1866 49.8397 35.7428 49.9798 35.2757 50.0032C34.5984 50.0733 33.9211 49.9798 33.2672 49.7463C32.6133 49.5127 32.006 49.2091 31.4222 48.8822C30.3478 48.345 29.4603 47.621 28.7597 46.7569C28.0357 45.8927 27.4518 44.9352 26.9847 43.8842C26.5176 42.8332 26.1673 41.7355 25.9337 40.5911C25.7002 39.4467 25.5367 38.3023 25.4666 37.1813C25.4666 37.1112 25.4433 37.0412 25.4199 36.9477C25.3966 36.8543 25.3732 36.8076 25.3732 36.7609C25.3499 34.7757 25.2564 32.7672 25.1397 30.7119C25.0229 28.6801 25.0696 26.6949 25.3031 24.7564C25.5367 22.8179 26.0271 20.9729 26.7979 19.2446C27.5686 17.493 28.8531 15.9282 30.6748 14.5036C31.3287 13.9897 32.1228 13.4759 33.0804 12.9621C34.0379 12.4483 34.9254 12.1447 35.7428 12.098C36.5603 12.0746 37.2843 12.1681 37.9149 12.4016C38.5454 12.6352 39.1293 12.9855 39.6431 13.4059C40.1569 13.8263 40.624 14.3401 41.0678 14.9006C41.4882 15.4611 41.8852 16.0216 42.2822 16.5588C42.6559 17.166 43.0763 17.7733 43.5434 18.3571C44.0105 18.941 44.3141 19.5716 44.4543 20.2489C44.4543 20.4591 44.4776 20.8094 44.5243 21.2999C44.571 21.7903 44.6178 22.3275 44.6645 22.8647C44.6878 23.4252 44.7345 23.9156 44.8046 24.4061C44.8513 24.8965 44.8747 25.2235 44.8747 25.387C44.898 25.7373 44.9447 26.1811 44.9681 26.7182C44.9914 27.2788 45.0381 27.8159 45.0615 28.3764C45.0849 28.9136 45.1316 29.4041 45.1549 29.8478C45.1783 30.2682 45.2016 30.5017 45.2016 30.5485C45.225 31.0389 45.2483 31.5761 45.2483 32.23C45.2483 32.8606 45.2483 33.5379 45.225 34.2386C45.2016 34.9392 45.1549 35.6165 45.0848 36.2938C45.0148 36.9711 44.9214 37.555 44.8279 38.0688C44.8279 38.1388 44.8046 38.279 44.7579 38.5125C44.7112 38.7461 44.6645 38.9796 44.5944 39.2365C44.5477 39.4934 44.501 39.727 44.4309 39.9605C44.3842 40.1941 44.3608 40.3109 44.3608 40.3342C44.3608 40.3576 44.3608 40.4043 44.3375 40.451C44.3141 40.4977 44.3141 40.5444 44.3141 40.5678C44.3375 41.0115 44.571 41.4553 45.0148 41.8523C45.4352 42.2727 45.9023 42.6931 46.4161 43.1368C46.9299 43.5806 47.397 44.0243 47.8407 44.468C48.2611 44.9118 48.4947 45.4023 48.5414 45.9161C48.5414 46.0796 48.4013 46.4766 48.0976 47.0605C47.8174 47.6677 47.4671 48.2749 47.07 48.9055C46.673 49.5361 46.276 50.0966 45.8789 50.6338C45.4819 51.1476 45.1783 51.4045 44.9681 51.4045C44.898 51.4045 44.8513 51.4045 44.8046 51.3811C44.7812 51.3578 44.7345 51.3578 44.7112 51.3578L40.1803 47.6677C40.1569 47.5976 40.0869 47.5509 39.9701 47.5042C39.9 47.4575 39.83 47.4575 39.8066 47.5042ZM31.5856 33.1175C31.6557 33.8415 31.7258 34.6589 31.8192 35.5931C31.9126 36.5273 32.0761 37.4148 32.333 38.3257C32.5899 39.2132 32.9636 40.0072 33.4307 40.7312C33.8978 41.4553 34.5517 41.9691 35.3925 42.3194C35.556 42.226 35.6961 42.0158 35.8129 41.7355C35.9063 41.4319 35.9764 41.2684 36.0231 41.1984V41.1049C36.0231 41.0349 35.9997 40.9882 35.9764 40.9414C35.5326 40.3809 34.9955 39.7503 34.3649 39.0263C33.7343 38.279 33.3606 37.5316 33.2672 36.7375C33.2672 36.4339 33.3373 36.1303 33.4774 35.8267C33.6175 35.5464 33.781 35.2895 34.0146 35.056C34.2481 34.8458 34.505 34.6356 34.8086 34.4955C35.1123 34.332 35.4159 34.2386 35.7428 34.2152C36.0465 34.1685 36.3267 34.2386 36.5836 34.402C36.8405 34.5655 37.0741 34.729 37.3076 34.9158C37.5178 35.1027 37.728 35.2662 37.8915 35.4297C38.055 35.5931 38.2418 35.6399 38.4053 35.6165C38.6856 35.5231 38.8724 35.1728 38.9892 34.6122C39.106 34.0517 39.176 33.4211 39.2227 32.7438C39.2461 32.0665 39.2461 31.3892 39.2227 30.7587C39.1994 30.1281 39.1527 29.661 39.1293 29.4041C39.1293 29.2172 39.106 28.8669 39.0592 28.3297C39.0125 27.7926 38.9425 27.162 38.8491 26.4613C38.7556 25.7607 38.6622 25.0367 38.5221 24.2426C38.382 23.4719 38.2185 22.7712 38.0083 22.1407C37.7981 21.5101 37.5645 20.9963 37.2609 20.5759C36.9573 20.1788 36.6303 19.9686 36.2566 20.0153C35.6027 20.0621 35.0422 20.3423 34.5751 20.8795C34.0846 21.44 33.6642 22.1173 33.3139 22.9347C32.9636 23.7521 32.66 24.663 32.4498 25.6906C32.2162 26.6949 32.0527 27.6758 31.9126 28.6567C31.7725 29.6143 31.7024 30.5017 31.6557 31.2958C31.5389 32.0432 31.5389 32.6738 31.5856 33.1175Z" fill="#2BB673"/>
<path d="M68.674 50.0732C68.3704 50.0032 68.1368 49.8163 67.9734 49.5127C67.8099 49.2091 67.6931 48.8821 67.623 48.5318C67.5296 48.1815 67.4595 47.8779 67.4128 47.621C67.3661 47.364 67.2727 47.2473 67.1326 47.2473C66.9224 47.294 66.6655 47.4341 66.3385 47.7144C66.0115 47.9946 65.6379 48.2982 65.2408 48.6486C64.8204 48.9989 64.3767 49.3259 63.8629 49.6295C63.3491 49.9331 62.8119 50.1199 62.2747 50.1433C61.5974 50.2134 60.9201 50.19 60.2428 50.0499C59.5656 49.9097 58.9583 49.6762 58.4212 49.3259C57.1833 48.6019 56.2258 47.7144 55.5251 46.6634C54.8245 45.6124 54.264 44.4447 53.8903 43.2069C53.4932 41.969 53.213 40.6612 53.0729 39.3066C52.9094 37.952 52.7692 36.6441 52.6291 35.3829C52.3956 32.9774 52.3488 30.6185 52.489 28.2363C52.6525 25.8774 52.7926 23.4719 52.9794 21.0429V20.5992C52.9794 20.3423 53.0028 20.062 53.0261 19.7818C53.0495 19.4781 53.0729 19.2212 53.0729 18.9643V18.4739C53.0962 17.9367 53.1196 17.4463 53.1196 17.0259C53.1196 16.6055 53.1896 16.2552 53.3298 15.9749C53.4699 15.6946 53.7034 15.4377 54.0304 15.2275C54.3574 15.0173 54.8712 14.8772 55.5485 14.7604C55.712 14.7371 55.9689 14.7371 56.2958 14.7838C56.6228 14.8305 56.9731 14.9239 57.3235 15.0173C57.6738 15.1108 58.0241 15.2275 58.3511 15.3677C58.6781 15.5078 58.8883 15.6479 59.005 15.7881C59.005 15.8581 59.0284 15.9749 59.0517 16.1384C59.0751 16.3019 59.0984 16.442 59.0984 16.4887C59.1685 17.2361 59.1919 18.0301 59.1452 18.8476C59.1218 19.665 59.0517 20.5058 58.935 21.3466C58.8415 22.1873 58.7248 23.0048 58.6547 23.8455C58.5613 24.663 58.5146 25.457 58.4679 26.2044C58.3744 27.7458 58.3744 29.2639 58.5146 30.7353C58.6547 32.2066 58.7948 33.7247 58.9817 35.2661C59.0751 36.3405 59.2386 37.3681 59.4254 38.3724C59.6123 39.3766 60.1261 40.2641 60.9902 41.0115C61.0603 41.0815 61.2471 41.245 61.5507 41.4786C61.8543 41.7121 62.0412 41.8756 62.1112 41.9457C62.1346 41.9457 62.2047 41.969 62.2981 41.9924C62.3915 42.0158 62.4382 42.0391 62.4849 42.0391H62.5784H62.6251C62.6951 41.9924 62.8353 41.9223 63.0454 41.8289C63.2556 41.7355 63.3958 41.5954 63.4658 41.4085C64.1431 40.0072 64.6336 38.6059 64.9372 37.2513C65.2408 35.8734 65.4277 34.5188 65.4977 33.1642C65.5911 31.8096 65.6145 30.4317 65.5678 29.0304C65.5444 27.6291 65.5444 26.181 65.5678 24.663V24.336C65.5678 24.1492 65.5678 23.939 65.5911 23.7288C65.6145 23.4952 65.6145 23.285 65.6379 23.0982C65.6612 22.888 65.6612 22.7479 65.6612 22.6311C65.6612 22.6077 65.6846 22.4676 65.7079 22.234C65.7313 22.0005 65.778 21.7202 65.8013 21.44C65.8247 21.1597 65.8714 20.9028 65.8948 20.6693C65.9181 20.4357 65.9415 20.2956 65.9415 20.2255C65.9648 19.338 65.9415 18.5439 65.8714 17.8667C65.778 17.1894 65.8013 16.6055 65.8948 16.115C65.9882 15.6246 66.2684 15.2509 66.7122 14.9706C67.1559 14.667 67.95 14.4802 69.071 14.3868C69.2812 14.3634 69.5615 14.3167 69.8885 14.2933C70.2388 14.2466 70.5658 14.2466 70.8927 14.27C71.2197 14.2933 71.5233 14.3634 71.8269 14.4802C72.1072 14.5969 72.3174 14.8071 72.4575 15.1341C72.4575 15.2976 72.4809 15.6012 72.5509 16.045C72.621 16.4654 72.6677 16.7456 72.7144 16.8857C72.8779 18.5206 72.9013 20.1321 72.7845 21.7202C72.6677 23.3084 72.5743 24.8965 72.5042 26.5547C72.4809 27.0452 72.4809 27.559 72.5509 28.1429C72.621 28.7267 72.5977 29.2873 72.5042 29.8478C72.7378 31.4126 72.9013 33.0007 72.9947 34.5421C73.0881 36.1069 73.1348 37.6717 73.1815 39.2365C73.2049 40.8013 73.2516 42.3894 73.275 43.9542C73.2983 45.5424 73.3684 47.1071 73.4851 48.6719C73.4151 48.9522 73.3217 49.2324 73.2282 49.4894C73.1348 49.7696 72.9246 49.9097 72.621 49.9565C71.897 50.0265 71.2664 50.0499 70.7059 50.0032C70.1454 49.8864 69.4681 49.9331 68.674 50.0732Z" fill="#2BB673"/>
<path d="M80.9596 49.5594C80.8195 49.466 80.6794 49.3492 80.5626 49.2324C80.4225 49.1157 80.3524 48.9755 80.3524 48.7887C80.1889 47.1538 80.1889 45.4956 80.3758 43.8141C80.5626 42.1325 80.656 40.4743 80.656 38.8161C80.656 36.7609 80.586 34.7056 80.4692 32.627C80.3524 30.5484 80.2123 28.4932 80.0721 26.4146C79.932 24.336 79.8152 22.2807 79.7452 20.2255C79.6518 18.1703 79.6518 16.1384 79.7218 14.1065C79.7218 13.8963 79.7919 13.6861 79.9087 13.4292C80.0254 13.1956 80.2123 13.0555 80.4458 13.0088C80.7962 12.9621 81.1932 12.9854 81.6603 13.0555C82.1274 13.1256 82.5011 13.1489 82.8047 13.1022C82.9448 13.1022 83.2017 13.1022 83.5754 13.0789C83.9491 13.0555 84.3461 13.0321 84.7899 13.0321C85.2103 13.0088 85.6306 13.0088 86.0043 12.9854C86.378 12.9621 86.6349 12.9621 86.775 12.9621C86.7984 12.9621 86.9385 12.9387 87.1954 12.9154C87.429 12.892 87.6859 12.8453 87.9661 12.822C88.2464 12.7752 88.48 12.7519 88.7135 12.7285C88.9471 12.7052 89.0872 12.6818 89.1572 12.6818C89.3674 12.6818 89.6944 12.6585 90.1615 12.6351C90.6286 12.5884 91.0957 12.5884 91.5395 12.6351C92.0066 12.6585 92.427 12.7285 92.8006 12.8453C93.1743 12.9387 93.3845 13.1489 93.4079 13.4525L93.7582 17.7732C93.7815 18.0535 93.6648 18.287 93.4079 18.4739C93.1276 18.6607 92.8707 18.7775 92.6371 18.8008C91.9599 18.8709 91.2592 18.8476 90.5819 18.7308C89.9046 18.614 89.1806 18.5906 88.4799 18.6607C88.3165 18.6607 88.0829 18.6607 87.8027 18.6841C87.5224 18.7074 87.2421 18.7308 86.9619 18.8008C86.6816 18.8709 86.4247 18.9877 86.2145 19.1045C86.0043 19.2446 85.9109 19.4548 85.9109 19.7117C86.0043 21.0896 86.0043 22.5143 85.9109 23.9857C85.8175 25.457 85.8175 26.905 85.9576 28.3063C85.9576 28.4698 85.981 28.7034 86.0043 28.9836C86.0277 29.2639 86.1444 29.4741 86.3079 29.6609C86.4481 29.7543 86.6583 29.8478 86.9619 29.8945C87.2655 29.9412 87.5458 29.9645 87.8727 29.9645C88.1763 29.9645 88.4566 29.9645 88.7369 29.9412C89.0171 29.9178 89.204 29.9178 89.3441 29.9178C89.4842 29.9178 89.7411 29.8945 90.1148 29.8711C90.4885 29.8478 90.8855 29.8011 91.3059 29.7543C91.7263 29.7076 92.1233 29.6609 92.497 29.6376C92.8707 29.5909 93.1276 29.5909 93.2677 29.5909C93.3611 29.5909 93.4546 29.6609 93.5246 29.7777C93.5947 29.8945 93.6181 29.9879 93.6181 30.058L93.9684 33.3977C93.9917 33.7013 93.9217 34.005 93.7348 34.3319C93.548 34.6355 93.3144 34.799 93.0342 34.8457C92.2868 34.9392 91.5161 34.9392 90.7687 34.8224C90.0214 34.7056 89.2507 34.6823 88.4566 34.7523C87.9661 34.8224 87.6392 34.9392 87.429 35.1494C87.2188 35.3362 87.0787 35.5697 87.0086 35.85C86.9385 36.1303 86.9152 36.4339 86.9152 36.7842V37.8585C86.9152 37.952 86.8918 38.2089 86.8685 38.6059C86.8217 39.0029 86.7984 39.4233 86.7283 39.8671C86.6816 40.3108 86.6349 40.7312 86.5882 41.1049C86.5648 41.4786 86.5181 41.7355 86.4948 41.8289C86.5648 41.8523 86.5882 41.969 86.5415 42.1325C86.5181 42.296 86.5181 42.4361 86.5882 42.5295C86.5882 42.7397 86.6115 42.9966 86.6816 43.2769C86.7517 43.5805 86.9385 43.7206 87.2421 43.7206H88.4566H90.2549H92.0533H93.221C93.7815 43.7206 94.272 43.7674 94.7157 43.8841C95.1595 43.9776 95.4631 44.3746 95.6499 45.0052C95.6499 45.0752 95.6733 45.2387 95.72 45.4956C95.7667 45.7525 95.8134 46.0328 95.8835 46.3598C95.9302 46.6867 95.9769 47.0137 96.047 47.3407C96.0937 47.6677 96.1404 47.9246 96.1871 48.088V48.3917C96.2572 48.8821 96.1404 49.139 95.8368 49.2091C95.5332 49.2792 95.1828 49.3492 94.8092 49.4193C93.3611 49.5828 91.9365 49.6295 90.4885 49.5361C89.0405 49.4426 87.6158 49.3959 86.1678 49.3492C86.0744 49.3259 85.8175 49.3259 85.3971 49.3726C84.9767 49.4193 84.7432 49.4426 84.6731 49.4426C84.533 49.4426 84.2994 49.4426 83.9257 49.466C83.5754 49.4893 83.1784 49.5127 82.8047 49.5361C82.4076 49.5828 82.034 49.6061 81.707 49.6061C81.3333 49.5361 81.0998 49.5594 80.9596 49.5594ZM80.7027 10.2529C80.7027 10.1595 80.8429 9.94928 81.1465 9.64567C81.4267 9.34205 81.7537 9.01508 82.1274 8.6414C82.4777 8.26772 82.8514 7.94075 83.2017 7.61378C83.552 7.28681 83.8323 7.05327 83.9958 6.91314C84.0659 6.88978 84.206 6.74965 84.4395 6.56281C84.6497 6.35261 84.7899 6.21248 84.8132 6.14242C84.9066 6.049 85.0701 5.88551 85.2803 5.65196C85.4905 5.44177 85.7007 5.20822 85.9576 4.95131C86.1912 4.71776 86.4247 4.48421 86.6583 4.25066C86.8918 4.04047 87.0319 3.87698 87.102 3.80691C87.1954 3.57336 87.4757 3.29311 87.8961 2.96614C88.3165 2.63917 88.6668 2.47568 88.9471 2.47568C89.0872 2.47568 89.2507 2.54574 89.4609 2.68587C89.6711 2.826 89.8813 2.98949 90.1148 3.17633C90.325 3.36317 90.5352 3.55001 90.6987 3.7135C90.8622 3.87698 90.9789 4.01711 91.0023 4.06382V4.57763V5.09145C91.0023 5.25493 90.9089 5.41841 90.7454 5.55854C90.652 5.65196 90.4418 5.81545 90.1849 6.049C89.9046 6.28255 89.7178 6.42268 89.6243 6.49274C88.48 7.28682 87.3589 8.08089 86.2145 8.92167C85.0701 9.76245 83.9024 10.5799 82.7346 11.3506C82.6412 11.3973 82.5478 11.4207 82.4777 11.4207C82.4076 11.4207 82.3142 11.444 82.1741 11.444C81.8004 11.444 81.4734 11.3039 81.1698 11.047C80.8429 10.7901 80.7027 10.5098 80.7027 10.2529Z" fill="#2BB673"/>
<path d="M126.267 50.0032C126.197 49.9565 126.15 49.8163 126.103 49.5594C126.057 49.3025 126.057 49.139 126.057 49.069C125.847 47.8311 125.823 46.6167 125.963 45.4022C126.103 44.1878 126.15 42.9733 126.127 41.7822C126.057 40.2408 125.893 38.6993 125.636 37.1813C125.379 35.6632 125.169 34.1217 125.052 32.5803C125.006 31.3892 125.006 30.2215 125.052 29.1238C125.076 28.0027 125.099 26.8583 125.099 25.6672C125.123 24.5695 125.099 23.4719 125.006 22.3508C124.912 21.2298 124.819 20.1321 124.749 19.0344V18.7308V18.1936V17.6565V17.3061C124.702 17.1193 124.679 16.839 124.655 16.4186C124.632 15.9983 124.585 15.5779 124.562 15.1108C124.539 14.6437 124.492 14.1999 124.469 13.8029C124.445 13.3825 124.422 13.1022 124.422 12.9154C124.492 12.6351 124.562 12.4249 124.632 12.3082C124.702 12.168 124.842 12.0513 125.029 11.9578C125.099 11.9345 125.286 11.8878 125.613 11.8411C125.94 11.7943 126.15 11.771 126.267 11.771C128.135 11.5374 129.84 11.6075 131.358 12.0279C132.876 12.4483 134.184 13.1022 135.282 14.0364C136.38 14.9706 137.314 16.0917 138.014 17.4463C138.715 18.8009 139.206 20.2722 139.486 21.8837C139.649 23.1916 139.743 24.4528 139.743 25.6906C139.743 26.9284 139.696 28.2129 139.579 29.5442C139.719 30.2215 139.743 30.8988 139.626 31.5527C139.533 32.2066 139.509 32.8839 139.579 33.5612C139.603 34.6589 139.673 35.9434 139.789 37.3914C139.883 38.8395 139.86 40.3108 139.719 41.7588C139.556 43.2068 139.206 44.5614 138.645 45.8226C138.085 47.0838 137.174 48.0413 135.889 48.7186C134.651 49.3259 133.344 49.7463 131.966 49.9565C130.588 50.1666 129.21 50.3535 127.832 50.517C127.762 50.517 127.598 50.5403 127.341 50.5637C127.084 50.6104 126.921 50.6104 126.851 50.6104C126.781 50.5403 126.687 50.4703 126.571 50.3768C126.384 50.2601 126.314 50.1433 126.267 50.0032ZM131.148 43.2302C131.312 43.5105 131.545 43.6272 131.825 43.5805C132.199 43.5572 132.503 43.347 132.713 42.9733C132.946 42.5996 133.11 42.1792 133.227 41.7121C133.343 41.245 133.437 40.7779 133.484 40.2875C133.53 39.797 133.577 39.4233 133.624 39.1664C133.647 38.9329 133.694 38.6059 133.717 38.1622C133.741 37.7418 133.787 37.3214 133.811 36.9243C133.834 36.5273 133.881 36.177 133.881 35.8967C133.904 35.5931 133.904 35.453 133.904 35.4063L133.857 34.9859C133.857 33.0941 133.881 31.1557 133.904 29.1471C133.927 27.1386 133.811 25.1534 133.484 23.215C133.32 22.234 133.11 21.44 132.9 20.8561C132.666 20.2722 132.176 19.6183 131.428 18.8943C131.335 18.7308 131.218 18.5907 131.148 18.4739C131.055 18.3805 130.891 18.3338 130.658 18.3805C130.494 18.4272 130.424 18.5673 130.471 18.8242C130.518 19.0811 130.541 19.2212 130.541 19.268C130.634 21.3466 130.704 23.4485 130.751 25.5271C130.774 27.6057 130.845 29.7076 130.915 31.7862C130.938 33.4912 130.891 35.2428 130.751 36.9944C130.611 38.746 130.681 40.4977 130.961 42.2026C130.961 42.2727 130.985 42.4361 131.031 42.693C131.125 42.9967 131.148 43.1601 131.148 43.2302Z" fill="#2BB673"/>
<path d="M145.955 47.3407C145.955 47.2706 145.978 47.2006 146.002 47.1072C146.025 47.0137 146.025 46.967 146.002 46.9203C146.025 46.4766 146.095 45.9394 146.165 45.3088C146.235 44.6782 146.352 44.1644 146.516 43.744C146.609 43.5105 146.796 43.3236 147.029 43.2069C147.263 43.0901 147.52 42.9967 147.777 42.9033C148.034 42.8098 148.291 42.7164 148.524 42.6463C148.758 42.5529 148.945 42.4128 149.085 42.2026C149.108 42.2026 149.131 42.1559 149.155 42.0391C149.178 41.9457 149.178 41.8523 149.178 41.7822C149.178 41.7121 149.178 41.572 149.201 41.3618C149.225 41.1516 149.225 40.9181 149.248 40.6612C149.271 40.4043 149.271 40.1707 149.271 39.9138V39.4C149.178 36.6208 149.155 33.8649 149.201 31.1323C149.248 28.3998 149.201 25.6439 149.015 22.9114C149.015 22.8413 148.991 22.7012 148.968 22.491C148.945 22.2808 148.898 22.0706 148.898 21.8137C148.874 21.5801 148.874 21.3466 148.851 21.1597C148.828 20.9495 148.828 20.786 148.828 20.6926C148.758 20.389 148.594 20.2022 148.337 20.1321C148.08 20.062 147.8 19.992 147.497 19.9219C147.193 19.8518 146.913 19.7351 146.679 19.5949C146.446 19.4315 146.305 19.1512 146.259 18.7542C146.259 18.7308 146.259 18.6841 146.235 18.6607C146.212 18.614 146.212 18.5907 146.212 18.5673V17.5163C146.212 17.0259 146.212 16.4887 146.235 15.9282C146.259 15.3677 146.259 14.8305 146.259 14.3401V13.3358C146.329 13.0555 146.422 12.7286 146.516 12.3082C146.609 11.8878 146.819 11.6542 147.076 11.5842L147.17 11.6309H147.263C147.777 11.7243 148.501 11.771 149.412 11.7477C150.346 11.7243 151.28 11.7477 152.238 11.7944C153.195 11.8411 154.083 11.9578 154.923 12.1447C155.764 12.3315 156.348 12.6585 156.698 13.1489C156.862 13.3591 156.955 13.6861 156.955 14.1299C156.955 14.5736 156.979 14.9239 157.002 15.1575C157.095 16.6288 157.049 17.6565 156.862 18.2403C156.675 18.8242 156.441 19.2213 156.185 19.4315C155.928 19.6417 155.671 19.7818 155.391 19.8285C155.11 19.8986 154.947 20.1788 154.877 20.6459C154.643 22.0939 154.503 23.5186 154.456 24.9666C154.433 26.4146 154.433 27.8393 154.48 29.2873C154.526 30.7353 154.596 32.1599 154.713 33.5846C154.807 35.0093 154.9 36.4339 154.97 37.8819V38.4191V39.3766C154.97 39.727 154.97 40.0306 154.993 40.3342C155.017 40.6378 155.017 40.8013 155.017 40.8714V41.2918C155.04 41.7122 155.204 41.9691 155.484 42.1092C155.764 42.2493 156.068 42.3661 156.418 42.5062C156.768 42.623 157.072 42.7865 157.376 42.9733C157.656 43.1602 157.843 43.5105 157.913 44.0243C157.913 44.2578 157.913 44.6082 157.936 45.0753C157.96 45.5424 157.936 46.0095 157.866 46.4532C157.796 46.9203 157.656 47.3407 157.492 47.7144C157.306 48.0881 157.002 48.2983 156.582 48.3216C155.904 48.4618 155.11 48.4851 154.246 48.415C153.382 48.345 152.588 48.345 151.911 48.415C151.817 48.415 151.56 48.4384 151.163 48.4851C150.766 48.5318 150.346 48.5785 149.925 48.6486C149.505 48.6953 149.085 48.742 148.688 48.7654C148.291 48.8121 148.057 48.8121 147.94 48.8121C147.45 48.8354 147.006 48.742 146.609 48.5318C146.259 48.3216 146.025 47.9246 145.955 47.3407Z" fill="#2BB673"/>
<path d="M162.187 46.5232C162.14 46.2896 162.28 45.986 162.56 45.6357C162.841 45.2853 163.214 44.9117 163.635 44.5613C164.055 44.211 164.499 43.8607 164.966 43.5571C165.433 43.2535 165.807 42.9966 166.11 42.8331C166.18 42.8331 166.274 42.8097 166.367 42.7864C166.461 42.7397 166.554 42.7397 166.624 42.7397C167.044 42.7163 167.371 42.7864 167.628 42.9966C167.885 43.2068 168.189 43.4403 168.539 43.6972C168.889 43.9541 169.287 44.1877 169.777 44.3979C170.267 44.6081 170.945 44.6781 171.832 44.6081C172.136 44.5847 172.439 44.4913 172.766 44.3511C173.07 44.211 173.327 44.0475 173.56 43.8373C173.794 43.6271 173.958 43.4403 174.051 43.2535C174.144 43.0666 174.144 42.9031 174.004 42.763C174.028 42.6696 174.098 42.4827 174.168 42.2258C174.238 41.9689 174.308 41.6887 174.378 41.4084C174.448 41.1048 174.518 40.8479 174.565 40.6143C174.611 40.3808 174.635 40.194 174.635 40.1005C174.775 39.5167 174.892 38.816 175.032 37.9986C175.149 37.1812 175.102 36.4805 174.845 35.8966L173.607 18.684L173.304 16.8389L171.505 17.0024L171.248 16.7922C171.178 16.582 171.108 16.3952 171.038 16.2317C170.968 16.0682 170.898 15.9047 170.851 15.7412C170.805 15.5778 170.781 15.461 170.781 15.3442C170.758 15.2741 170.688 15.0873 170.618 14.7837C170.548 14.4801 170.478 14.2699 170.408 14.1531C170.501 14.1531 170.688 14.1531 170.921 14.1298C171.155 14.1064 171.318 14.1064 171.388 14.1064C171.809 14.1064 172.533 14.1064 173.607 14.083C174.682 14.0597 175.803 14.0363 176.994 14.013C178.185 13.9896 179.306 13.9429 180.357 13.9429C181.408 13.9196 182.132 13.9196 182.529 13.9196C182.529 13.9429 182.552 14.013 182.576 14.1298C182.599 14.2232 182.646 14.2932 182.669 14.3399V14.9472C182.669 15.2274 182.669 15.5077 182.646 15.7646C182.622 16.0449 182.599 16.2784 182.552 16.4886C182.505 16.6988 182.435 16.7922 182.365 16.7922L180.217 16.8856C180.217 16.9557 180.263 17.0958 180.333 17.2827C180.427 17.4695 180.45 17.6096 180.45 17.6564C180.45 17.8198 180.45 18.1468 180.427 18.5906C180.404 19.0343 180.404 19.5014 180.404 19.9685V21.3231V22.2339C180.404 22.6777 180.357 23.1448 180.31 23.5885C180.24 24.0556 180.193 24.5227 180.123 25.0132C180.077 25.5036 180.053 25.9707 180.077 26.4378C180.1 26.9049 180.193 27.3487 180.357 27.7924L180.824 40.2874C180.614 40.8245 180.59 41.4084 180.73 42.0156C180.871 42.6229 180.894 43.16 180.824 43.6972C180.59 45.262 179.726 46.6633 178.255 47.8778C176.783 49.0922 174.588 49.7929 171.669 50.0031C169.964 50.0965 168.399 49.8396 166.974 49.2323C165.55 48.6251 164.265 47.9945 163.097 47.3873C162.724 47.2238 162.49 47.0837 162.373 47.037C162.303 46.8501 162.233 46.7334 162.187 46.5232Z" fill="#2BB673"/>
<path d="M188.184 40.8714C188.16 40.7313 188.114 40.5444 188.114 40.3109C188.09 40.0773 188.09 39.8204 188.067 39.5869C188.044 39.3533 188.044 39.1431 188.02 38.9563C187.997 38.7694 187.997 38.6293 187.997 38.5592C187.974 37.9053 187.927 37.0645 187.903 36.0135C187.88 34.9626 187.833 33.9349 187.81 32.9073C187.787 31.8797 187.74 30.9689 187.717 30.1748C187.693 29.3807 187.67 28.937 187.67 28.8435C187.67 27.8159 187.693 26.6949 187.74 25.4804C187.787 24.266 187.903 23.0281 188.067 21.7903C188.23 20.5292 188.511 19.3381 188.908 18.1469C189.305 16.9558 189.819 15.9049 190.473 14.994C191.126 14.0598 191.944 13.3125 192.972 12.7286C193.976 12.1447 195.214 11.7944 196.638 11.701H197.666C198.623 11.8411 199.558 12.0513 200.445 12.3549C201.333 12.6352 202.15 13.0322 202.851 13.546C203.575 14.0365 204.182 14.6437 204.719 15.321C205.256 15.9983 205.653 16.8391 205.934 17.7966C205.957 17.9368 206.004 18.2637 206.074 18.8009C206.12 19.3381 206.144 19.6884 206.144 19.8519C206.144 20.1321 206.144 20.5292 206.167 21.0663C206.19 21.6035 206.19 21.9071 206.19 21.9772C206.19 22.3275 206.19 23.0749 206.214 24.2193C206.237 25.3636 206.261 26.6248 206.284 27.9794C206.307 29.334 206.354 30.6419 206.354 31.9264C206.377 33.2109 206.377 34.1685 206.377 34.7757C206.377 35.6399 206.377 36.6208 206.401 37.7418C206.424 38.8629 206.377 40.0072 206.307 41.1984C206.214 42.3895 206.074 43.5806 205.84 44.7483C205.607 45.9161 205.256 46.967 204.742 47.8779C204.229 48.8121 203.551 49.5595 202.734 50.1667C201.916 50.7739 200.866 51.1009 199.604 51.171C198.507 51.241 197.479 51.171 196.498 50.9608C195.517 50.7506 194.513 50.4703 193.485 50.1433C192.458 49.8397 191.617 49.3493 190.963 48.7187C190.309 48.0647 189.795 47.3174 189.398 46.4532C189.001 45.5891 188.721 44.6782 188.534 43.7207C188.347 42.6931 188.23 41.7589 188.184 40.8714ZM195.027 40.4977C195.097 41.2217 195.307 41.8523 195.657 42.4362C196.008 42.9967 196.615 43.2536 197.432 43.1835C197.993 43.1368 198.39 42.9967 198.67 42.6931C198.95 42.3895 199.137 42.0391 199.254 41.6187C199.371 41.1984 199.441 40.7313 199.464 40.2642C199.488 39.7737 199.511 39.33 199.534 38.9329V38.4892C199.534 38.2556 199.534 38.0221 199.558 37.7652C199.581 37.5083 199.581 37.2747 199.581 37.0412V36.6441C199.674 34.8925 199.744 33.3044 199.744 31.833C199.744 30.3616 199.698 28.7735 199.581 27.0219C199.581 26.8117 199.558 26.4847 199.534 26.0176C199.511 25.5505 199.464 25.06 199.441 24.5229C199.418 23.9857 199.371 23.4952 199.347 23.0281C199.324 22.561 199.301 22.2341 199.301 22.0239C199.231 21.8137 199.114 21.5334 198.927 21.1831C198.74 20.8328 198.53 20.4824 198.32 20.1555C198.086 19.8285 197.829 19.5483 197.549 19.3147C197.269 19.0812 196.989 18.9644 196.708 18.9644C196.358 19.0111 196.054 19.1512 195.797 19.4548C195.541 19.7351 195.33 20.1088 195.19 20.5058C195.027 20.9262 194.91 21.3466 194.84 21.767C194.746 22.1874 194.7 22.5377 194.653 22.818C194.63 22.888 194.583 23.0515 194.56 23.3318C194.536 23.612 194.49 23.9156 194.443 24.266C194.396 24.6163 194.349 24.9433 194.279 25.2469C194.233 25.5505 194.209 25.7373 194.209 25.8074V26.5314V27.9093C194.209 28.4232 194.209 28.937 194.186 29.4274C194.163 29.9179 194.163 30.3149 194.163 30.5718V30.9922C194.163 31.0623 194.163 31.109 194.186 31.1557C194.209 31.2024 194.209 31.2491 194.209 31.3192V31.5294C194.233 31.8797 194.303 32.4636 194.396 33.3277C194.49 34.1919 194.583 35.0793 194.676 36.0135C194.77 36.9477 194.863 37.8586 194.933 38.7227C194.933 39.5635 194.98 40.1707 195.027 40.4977Z" fill="#2BB673"/>
<path d="M232.952 41.385C233.186 40.7311 233.629 40.3107 234.26 40.1238C234.891 39.937 235.638 39.8903 236.525 39.9604C237.39 40.0538 238.371 40.1939 239.445 40.4508C240.519 40.6844 241.64 40.9179 242.808 41.1281C243.275 41.1047 243.695 40.9646 244.069 40.7778C244.419 40.5676 244.77 40.3107 245.073 39.9837C245.377 39.6567 245.681 39.2831 245.938 38.886C246.218 38.4656 246.498 38.0686 246.802 37.6482C246.825 37.6249 246.872 37.5314 246.895 37.4147C246.918 37.2979 246.942 37.2278 246.942 37.1811L246.732 34.145C246.662 34.1216 246.451 33.9348 246.078 33.6311C245.727 33.3275 245.447 33.094 245.237 32.9071C245.167 32.8371 245.027 32.7437 244.84 32.6269C244.653 32.5101 244.513 32.44 244.466 32.44C243.275 31.9262 242.154 31.5058 241.103 31.2022C240.052 30.8986 239.095 30.5249 238.184 30.1045C237.273 29.6841 236.455 29.1003 235.708 28.3529C234.961 27.6056 234.33 26.5546 233.793 25.2C233.793 25.1066 233.793 24.9431 233.77 24.7329C233.746 24.5227 233.723 24.3125 233.7 24.1023C233.676 23.8687 233.629 23.6819 233.629 23.4951C233.606 23.3082 233.606 23.1914 233.606 23.1214C233.583 22.6309 233.536 22.1405 233.466 21.58C233.419 21.0194 233.466 20.529 233.653 20.0385C233.676 19.8984 233.746 19.6415 233.863 19.2912C233.956 18.9408 234.097 18.5672 234.213 18.1935C234.353 17.8198 234.47 17.4461 234.61 17.1191C234.727 16.7688 234.797 16.5353 234.844 16.3951V16.0915C235.054 15.7879 235.241 15.5544 235.404 15.3675C235.568 15.204 235.731 15.0172 235.895 14.8304C236.058 14.6435 236.175 14.5034 236.269 14.3866C237.39 13.1254 238.511 12.1679 239.632 11.5139C240.753 10.86 242.107 10.463 243.719 10.2761C244.163 10.2528 244.816 10.2995 245.681 10.4396C246.545 10.5797 247.386 10.7899 248.25 11.0702C249.114 11.3505 249.861 11.7008 250.515 12.1212C251.169 12.5416 251.519 13.0087 251.543 13.5225C251.566 13.8261 251.566 14.2465 251.496 14.7603C251.426 15.2741 251.309 15.7879 251.169 16.3017C251.006 16.8155 250.819 17.2593 250.562 17.6563C250.305 18.0533 250.001 18.2635 249.651 18.2869C248.764 18.357 247.876 18.357 246.989 18.2635C246.101 18.1701 245.214 18.1701 244.303 18.2402C244.139 18.2402 243.789 18.2635 243.252 18.3336C242.715 18.4037 242.364 18.427 242.201 18.427C242.107 18.4971 241.944 18.5672 241.71 18.6606C241.477 18.754 241.267 18.8474 241.033 18.9875C240.799 19.1277 240.613 19.2678 240.472 19.3846C240.309 19.5247 240.239 19.6648 240.239 19.805L240.496 22.8878C240.496 23.0513 240.613 23.2148 240.823 23.3783C241.033 23.5418 241.29 23.6819 241.547 23.8454C241.804 24.0089 242.061 24.149 242.341 24.2658C242.621 24.3826 242.808 24.4526 242.901 24.4993C244.279 25.1533 245.517 25.7605 246.662 26.3444C247.783 26.9283 248.764 27.6056 249.581 28.3996C250.398 29.1937 251.052 30.1279 251.566 31.2022C252.057 32.2765 252.384 33.6311 252.524 35.2426C252.664 36.6439 252.57 38.0452 252.243 39.3998C251.916 40.7778 251.379 41.9922 250.655 43.0666C249.908 44.1409 248.997 45.0518 247.853 45.7524C246.732 46.4764 245.447 46.8968 243.999 47.0369C242.808 47.1771 241.57 47.2004 240.309 47.0836C239.048 46.9902 237.88 46.7333 236.829 46.3129C235.778 45.8925 234.914 45.2853 234.19 44.4912C233.466 43.7439 233.046 42.6929 232.952 41.385Z" fill="#2BB673"/>
<path d="M258.691 49.5594C258.551 49.466 258.411 49.3492 258.271 49.2324C258.131 49.1156 258.06 48.9755 258.06 48.7887C257.897 47.1538 257.897 45.4723 258.084 43.8141C258.271 42.1325 258.364 40.4743 258.364 38.8161C258.364 36.7608 258.294 34.7056 258.177 32.627C258.061 30.5484 257.92 28.4932 257.804 26.4146C257.663 24.336 257.547 22.2807 257.477 20.2255C257.383 18.1702 257.383 16.1383 257.453 14.1065C257.453 13.8963 257.523 13.6861 257.64 13.4525C257.757 13.219 257.944 13.0788 258.177 13.0321C258.528 12.9854 258.925 13.0088 259.392 13.0788C259.859 13.1489 260.233 13.1723 260.536 13.1256C260.676 13.1256 260.933 13.1255 261.307 13.1022C261.681 13.0788 262.078 13.0555 262.521 13.0555C262.942 13.0321 263.339 13.0088 263.736 13.0088C264.109 12.9854 264.366 12.9854 264.506 12.9854C264.53 12.9854 264.67 12.9621 264.927 12.9387C265.16 12.9154 265.417 12.8687 265.698 12.8453C265.978 12.7986 266.211 12.7752 266.445 12.7285C266.679 12.7052 266.819 12.6818 266.889 12.6818C267.099 12.6818 267.426 12.6585 267.893 12.6351C268.36 12.5884 268.827 12.5884 269.271 12.6351C269.738 12.6585 270.158 12.7285 270.532 12.8453C270.906 12.9387 271.116 13.1489 271.139 13.4525L271.49 17.7732C271.513 18.0535 271.396 18.287 271.139 18.4739C270.859 18.6607 270.602 18.7775 270.369 18.8008C269.691 18.8709 268.991 18.8475 268.313 18.7308C267.636 18.614 266.935 18.5906 266.211 18.6607C266.048 18.6607 265.814 18.6607 265.534 18.6841C265.254 18.7074 264.974 18.7541 264.693 18.8008C264.39 18.8709 264.156 18.9877 263.946 19.1044C263.736 19.2446 263.642 19.4548 263.642 19.7117C263.736 21.0896 263.736 22.5143 263.642 23.9856C263.549 25.457 263.549 26.905 263.689 28.3063C263.689 28.4698 263.712 28.7034 263.736 28.9836C263.759 29.2639 263.876 29.4741 264.039 29.6609C264.18 29.7543 264.39 29.8477 264.67 29.8945C264.974 29.9412 265.254 29.9645 265.581 29.9645C265.884 29.9645 266.188 29.9645 266.445 29.9412C266.725 29.8711 266.912 29.8711 267.052 29.8711C267.192 29.8711 267.449 29.8478 267.823 29.8244C268.197 29.801 268.594 29.7543 269.014 29.7076C269.434 29.6609 269.831 29.6142 270.205 29.5908C270.579 29.5441 270.836 29.5441 270.976 29.5441C271.069 29.5441 271.163 29.6142 271.233 29.731C271.303 29.8478 271.326 29.9412 271.326 30.0112L271.676 33.351C271.7 33.6546 271.63 33.9582 271.443 34.2852C271.256 34.5888 271.023 34.7757 270.742 34.799C269.995 34.8924 269.224 34.8924 268.477 34.7757C267.729 34.6589 266.959 34.6355 266.165 34.7056C265.674 34.7757 265.347 34.8924 265.137 35.0793C264.927 35.2661 264.787 35.4997 264.717 35.7799C264.647 36.0602 264.623 36.3638 264.623 36.7141V37.7885C264.623 37.8819 264.6 38.1388 264.577 38.5358C264.553 38.9329 264.506 39.3532 264.436 39.797C264.366 40.2407 264.343 40.6611 264.32 41.0348C264.296 41.4085 264.25 41.6654 264.226 41.7588C264.296 41.8055 264.32 41.8989 264.273 42.0624C264.25 42.2259 264.25 42.366 264.32 42.4595C264.32 42.6697 264.343 42.9266 264.413 43.2068C264.483 43.5104 264.67 43.6506 264.974 43.6506H266.188H267.986H269.785H270.952C271.49 43.6506 272.003 43.6973 272.447 43.8141C272.891 43.9075 273.195 44.3045 273.381 44.9351C273.381 45.0052 273.405 45.1686 273.451 45.4255C273.498 45.6825 273.545 45.9627 273.615 46.2897C273.662 46.6167 273.708 46.9436 273.778 47.2706C273.825 47.5976 273.872 47.8545 273.919 48.018V48.3216C273.989 48.812 273.872 49.0689 273.568 49.139C273.265 49.2091 272.914 49.2791 272.541 49.3492C271.093 49.5127 269.668 49.5594 268.22 49.466C266.772 49.3959 265.347 49.3258 263.899 49.2791C263.806 49.2558 263.549 49.2558 263.129 49.3025C262.708 49.3492 262.475 49.3726 262.405 49.3726C262.264 49.3726 262.007 49.3725 261.657 49.3959C261.307 49.4193 260.91 49.4426 260.536 49.466C260.139 49.4893 259.765 49.5127 259.438 49.536C259.065 49.536 258.831 49.5594 258.691 49.5594Z" fill="#2BB673"/>
<path d="M294.283 50.8439C293.629 49.9097 293.115 49.1156 292.742 48.3916C292.368 47.6909 291.924 46.9202 291.457 46.1028C291.387 45.986 291.27 45.8459 291.107 45.6591C290.943 45.4722 290.78 45.262 290.616 45.0752C290.453 44.865 290.336 44.6781 290.243 44.4913C290.149 44.3045 290.126 44.1176 290.196 43.9541C289.776 43.3703 289.379 42.763 288.982 42.1558C288.585 41.5252 288.211 40.9413 287.837 40.3575H287.744C287.72 40.3575 287.674 40.3341 287.65 40.3108C287.347 40.2407 287.23 40.3808 287.3 40.7311C287.323 41.0815 287.37 41.6887 287.393 42.5762C287.417 43.4637 287.464 44.4212 287.51 45.4255C287.557 46.4298 287.604 47.3873 287.674 48.2982C287.72 49.209 287.767 49.8396 287.791 50.1666L287.837 50.3301C287.767 50.4235 287.674 50.5636 287.534 50.7271C287.393 50.8906 287.3 50.9373 287.277 50.9139L282.045 51.2643C281.742 51.311 281.485 51.1708 281.274 50.8906C281.064 50.587 280.947 50.3301 280.924 50.0965C280.924 50.0498 280.924 50.0264 280.947 50.0264C280.971 50.0031 280.971 49.9564 280.971 49.9097V49.7462C280.971 49.7228 280.994 49.6294 281.018 49.4659C281.041 49.3024 281.088 49.139 281.111 48.9755C281.134 48.812 281.181 48.6485 281.204 48.5084C281.228 48.3682 281.251 48.2748 281.251 48.2515C281.251 48.158 281.228 47.9245 281.181 47.5508C281.134 47.2005 281.088 46.8034 281.041 46.4298C281.018 46.0327 280.971 45.6591 280.947 45.3321C280.924 44.9818 280.901 44.7716 280.901 44.6548V43.3936C280.901 42.7163 280.901 42.0157 280.877 41.2683C280.854 40.521 280.854 39.7969 280.831 39.143C280.807 38.4891 280.807 38.0453 280.807 37.8818C280.807 37.7183 280.784 37.3914 280.761 36.9476C280.737 36.5039 280.691 36.0134 280.667 35.4996C280.644 34.9858 280.597 34.5187 280.574 34.0516C280.55 33.6079 280.527 33.3043 280.527 33.1174C280.55 33.0473 280.574 32.8839 280.574 32.6503V32.1832C280.667 29.1938 280.691 26.251 280.621 23.355C280.55 20.4356 280.457 17.5163 280.364 14.5735C280.364 14.4801 280.364 14.2699 280.34 14.013C280.317 13.7327 280.294 13.4525 280.27 13.1255C280.247 12.8219 280.2 12.5183 280.2 12.2147C280.177 11.9344 280.177 11.7242 280.177 11.6308C280.247 11.4206 280.34 11.3038 280.457 11.2805C280.574 11.2571 280.714 11.2337 280.831 11.2337C282.209 11.1403 283.54 11.0703 284.848 11.0469C286.156 11.0236 287.37 11.1637 288.515 11.4439C289.659 11.7476 290.71 12.2147 291.621 12.9153C292.555 13.5926 293.326 14.5735 293.933 15.8347C294.377 16.7222 294.82 17.5863 295.264 18.4271C295.708 19.2679 295.965 20.1787 296.035 21.183C296.175 23.2382 295.825 25.1534 294.984 26.905C294.143 28.68 292.952 30.2681 291.411 31.7161C291.27 31.8796 291.2 32.0664 291.2 32.2766C291.27 32.5802 291.387 32.8839 291.597 33.1408C291.784 33.421 291.854 33.7013 291.784 34.0283L293.886 38.2322V38.3956L295.988 41.7821C295.988 41.8055 296.128 42.1091 296.432 42.6229C296.712 43.1601 297.062 43.7439 297.436 44.4212C297.81 45.0985 298.16 45.7525 298.464 46.4298C298.767 47.1071 298.954 47.5975 298.978 47.9478C299.001 48.2515 298.907 48.6018 298.651 48.9755C298.394 49.3491 298.067 49.6995 297.693 50.0031C297.319 50.3067 296.922 50.5636 296.502 50.7972C296.082 51.0074 295.731 51.1241 295.428 51.1241C294.89 51.2176 294.517 51.1008 294.283 50.8439ZM285.665 26.3678C285.805 26.5313 285.899 26.6714 285.992 26.7648C286.086 26.8583 286.226 26.905 286.436 26.9517C287.113 26.8816 287.674 26.6247 288.117 26.2043C288.538 25.7839 288.865 25.2701 289.098 24.7096C289.332 24.1491 289.472 23.5652 289.542 22.9346C289.612 22.3274 289.636 21.7902 289.636 21.3465C289.612 20.9962 289.519 20.5758 289.379 20.0853C289.239 19.5949 289.052 19.1277 288.818 18.6606C288.585 18.2169 288.281 17.8432 287.907 17.563C287.557 17.2827 287.113 17.1426 286.599 17.1659C286.249 17.2126 285.992 17.3995 285.805 17.7265C285.618 18.0768 285.478 18.4738 285.432 18.9176C285.362 19.3613 285.338 19.805 285.338 20.2254V21.1363C285.338 21.183 285.338 21.2998 285.362 21.4866C285.385 21.6968 285.385 21.9304 285.408 22.2106C285.432 22.4909 285.432 22.7711 285.455 23.0514C285.478 23.355 285.502 23.5652 285.525 23.752C285.525 23.8455 285.525 24.0323 285.548 24.2659C285.572 24.4994 285.595 24.7797 285.595 25.0599C285.618 25.3635 285.618 25.6205 285.642 25.854C285.642 26.1109 285.665 26.2744 285.665 26.3678Z" fill="#2BB673"/>
<path d="M317.522 49.2324C317.359 49.1624 317.172 49.0456 317.009 48.9055C316.845 48.742 316.728 48.5785 316.705 48.415L315.467 37.5316C315.467 37.3914 315.397 37.2747 315.28 37.1812C315.164 37.0878 315.047 37.0411 314.953 37.0878L308.998 37.6483L309.979 46.64C310.049 47.1772 310.212 47.691 310.446 48.1581C310.679 48.6252 310.843 49.1157 310.913 49.6295C310.936 49.8397 310.936 49.9564 310.866 50.0032C310.796 50.0499 310.633 50.0966 310.399 50.1199C310.329 50.1199 310.236 50.1199 310.119 50.1433C310.002 50.1666 309.932 50.1666 309.885 50.1666H309.255C308.974 50.1666 308.671 50.1666 308.367 50.19C308.064 50.2133 307.783 50.2367 307.526 50.2367C307.27 50.2601 307.106 50.2601 307.036 50.2601C306.429 50.2601 305.915 50.19 305.541 50.0499C305.168 49.9097 304.864 49.6995 304.677 49.4426C304.467 49.1624 304.327 48.8354 304.233 48.4384C304.14 48.0413 304.07 47.5976 304 47.0838C303.836 45.192 303.696 43.3236 303.579 41.4552C303.463 39.5868 303.393 37.6951 303.323 35.7799C303.323 35.7566 303.323 35.5697 303.299 35.2194C303.276 34.8691 303.252 34.4954 303.229 34.0283C303.206 33.5846 303.159 33.1408 303.136 32.7204C303.112 32.3 303.066 31.9497 303.042 31.7162C302.972 30.4083 303.042 29.2172 303.229 28.1195C303.416 27.0218 303.626 25.8307 303.86 24.5228C303.649 23.9389 303.696 23.3317 303.976 22.6778C304.257 22.0238 304.49 21.44 304.677 20.9261C304.747 20.6459 304.794 20.389 304.794 20.1554C304.817 19.9219 304.864 19.6416 304.981 19.338C304.981 19.3146 305.004 19.2446 305.027 19.1512C305.051 19.0577 305.098 19.0344 305.121 19.0344C305.495 18.3571 305.822 17.6564 306.102 16.9558C306.382 16.2551 306.756 15.5545 307.246 14.8772C307.55 14.4568 307.923 14.0364 308.367 13.616C308.811 13.1956 309.301 12.7752 309.815 12.4016C310.329 12.0279 310.866 11.7243 311.427 11.4674C311.987 11.2338 312.548 11.0703 313.085 11.0003C314.626 10.8601 315.817 11.0703 316.682 11.6308C317.546 12.1914 318.223 12.9154 318.713 13.8262C319.204 14.7137 319.601 15.6946 319.858 16.7923C320.138 17.8666 320.442 18.8709 320.792 19.8051C320.792 19.8985 320.815 20.1087 320.862 20.3656C320.909 20.6225 320.956 20.9261 320.979 21.2298C321.026 21.5334 321.049 21.8136 321.119 22.0705C321.166 22.3274 321.189 22.5143 321.189 22.6077C321.423 24.8731 321.563 27.1386 321.633 29.4507C321.68 31.7395 321.75 34.0283 321.866 36.2937C321.866 36.8776 321.82 37.4849 321.726 38.0921C321.633 38.6993 321.61 39.3065 321.656 39.8904C321.656 39.9605 321.68 40.1473 321.703 40.4276C321.726 40.7312 321.773 41.0348 321.796 41.3851C321.82 41.7355 321.866 42.0391 321.936 42.3427C321.983 42.6463 322.007 42.8098 322.007 42.8799V44.5848C322.007 44.6549 322.007 44.8417 322.03 45.122C322.053 45.4256 322.053 45.7292 322.077 46.0795C322.1 46.4298 322.1 46.7334 322.123 47.0371C322.147 47.3407 322.147 47.5275 322.147 47.6209C322.147 47.8311 322.123 48.1347 322.053 48.5551C321.983 48.9755 321.75 49.2091 321.376 49.2791H321.283C321.259 49.2791 321.142 49.2558 320.956 49.2324C320.769 49.2091 320.652 49.1857 320.629 49.1857C320.535 49.1857 320.325 49.1857 320.021 49.2091C319.718 49.2324 319.391 49.2324 319.064 49.2324C318.737 49.2324 318.433 49.2324 318.13 49.2558C317.803 49.2324 317.616 49.2324 317.522 49.2324ZM309.091 30.7353C309.115 31.1556 309.371 31.4359 309.815 31.5994C310.259 31.7629 310.773 31.8796 311.357 31.9264C311.941 31.9731 312.524 31.9964 313.108 31.9731C313.692 31.9497 314.136 31.9264 314.44 31.903C314.51 31.903 314.65 31.903 314.86 31.8796C315.07 31.8563 315.21 31.8563 315.28 31.8563C315.35 31.7629 315.397 31.6695 315.444 31.576C315.467 31.4826 315.514 31.3892 315.537 31.2958C315.537 31.0856 315.514 30.7586 315.491 30.2915C315.444 29.8244 315.42 29.334 315.42 28.7734C315.397 28.2363 315.397 27.7225 315.374 27.2554C315.35 26.7883 315.35 26.4613 315.35 26.2511C315.374 26.181 315.397 26.0175 315.397 25.784V25.2702L314.883 20.2722C314.86 20.0387 314.766 19.7584 314.626 19.4548C314.486 19.1512 314.323 18.8709 314.113 18.614C313.902 18.3571 313.669 18.1469 313.365 18.0068C313.062 17.8433 312.781 17.7966 312.478 17.8199C312.197 17.8433 311.941 17.9367 311.707 18.0768C310.586 19.2446 309.862 20.459 309.605 21.7202C309.325 22.9814 309.185 24.3827 309.138 25.8774C309.138 26.6948 309.115 27.5123 309.091 28.283C308.998 29.1238 309.021 29.9178 309.091 30.7353Z" fill="#2BB673"/>
<path d="M327.564 34.1217C327.821 30.6885 327.937 27.1853 327.937 23.6587C327.937 22.3508 327.891 21.0663 327.844 19.7817C327.774 18.4972 327.751 17.2127 327.751 15.9048V14.3634C327.844 14.0831 328.007 13.8963 328.194 13.7795C328.381 13.6627 328.615 13.5226 328.895 13.3825C329.128 13.3825 329.596 13.3825 330.273 13.3591C330.95 13.3357 331.674 13.3357 332.445 13.3124C333.192 13.289 333.916 13.2657 334.57 13.2657C335.247 13.2423 335.715 13.2423 335.995 13.2423H336.462C336.742 13.2423 337.022 13.2423 337.349 13.219C337.676 13.1956 338.003 13.1956 338.354 13.1956H339.171C340.269 13.1956 341.25 13.1956 342.114 13.219C342.978 13.2423 343.959 13.289 345.057 13.4058C345.477 13.5693 345.734 13.8496 345.827 14.2232C345.921 14.5969 345.991 14.9706 345.991 15.3443V16.1384C345.991 16.5587 345.944 17.0258 345.851 17.4929C345.757 17.96 345.64 18.4038 345.477 18.8008C345.314 19.1979 345.057 19.3847 344.706 19.3847C344.683 19.3847 344.636 19.3847 344.613 19.3613C344.59 19.338 344.543 19.338 344.519 19.338C344.449 19.338 344.333 19.3146 344.169 19.2679C344.006 19.2212 343.865 19.1979 343.819 19.1979H333.753L333.192 19.7584V20.786C333.192 21.907 333.216 23.0281 333.239 24.1491C333.262 25.2702 333.332 26.3912 333.402 27.559C333.426 27.6991 333.496 27.8159 333.589 27.9326C333.683 28.0494 333.799 28.1195 333.986 28.1195H337.676C337.91 28.1195 338.12 28.2129 338.26 28.3764C338.424 28.5399 338.517 28.7501 338.587 28.9836C338.657 29.2172 338.704 29.4741 338.751 29.731C338.774 29.9879 338.797 30.1981 338.797 30.3149C338.797 30.5484 338.797 30.852 338.774 31.2257C338.751 31.5994 338.704 31.9731 338.587 32.3234C338.494 32.6737 338.33 33.0007 338.12 33.2576C337.91 33.5145 337.63 33.6313 337.303 33.6313H334.523C334.29 33.6313 334.056 33.7247 333.846 33.8882C333.636 34.0517 333.496 34.2385 333.379 34.402C333.379 34.5655 333.379 34.8924 333.402 35.3829C333.426 35.8733 333.426 36.3638 333.426 36.901C333.426 37.4381 333.426 37.9286 333.402 38.419C333.379 38.9095 333.379 39.2365 333.379 39.4467C333.379 39.5401 333.356 39.797 333.309 40.194C333.262 40.5911 333.216 41.0114 333.192 41.4785C333.169 41.9457 333.122 42.366 333.099 42.7631C333.075 43.1601 333.052 43.3937 333.052 43.5104C333.029 43.8841 333.029 44.3746 333.052 44.9585C333.075 45.5423 333.099 46.1496 333.075 46.7568C333.052 47.364 333.005 47.9479 332.889 48.4617C332.795 48.9755 332.585 49.3258 332.281 49.4893C332.141 49.4893 331.908 49.5127 331.581 49.536C331.254 49.5594 330.903 49.6061 330.53 49.6061C330.156 49.6295 329.782 49.6528 329.455 49.6528C329.105 49.6762 328.872 49.6762 328.731 49.6762H328.638C328.358 49.6762 328.148 49.5127 327.961 49.2091C327.797 48.9054 327.657 48.5318 327.54 48.1347C327.447 47.7143 327.353 47.3173 327.307 46.9203C327.26 46.5232 327.237 46.2663 327.237 46.1262V44.5381C327.167 41.0348 327.307 37.5549 327.564 34.1217Z" fill="#2BB673"/>
<path d="M349.566 7.77722C349.566 7.6838 349.707 7.47361 350.01 7.16999C350.29 6.86638 350.617 6.51605 350.991 6.16572C351.341 5.8154 351.715 5.46507 352.065 5.1381C352.416 4.81113 352.696 4.57758 352.859 4.43745C352.93 4.39074 353.07 4.27397 353.303 4.08713C353.537 3.87693 353.654 3.7368 353.7 3.66674C353.794 3.57332 353.957 3.40983 354.167 3.17628C354.378 2.94273 354.588 2.70918 354.845 2.47563C355.078 2.24208 355.312 2.00853 355.545 1.77498L355.989 1.33124C356.082 1.09769 356.363 0.817424 356.783 0.490453C357.203 0.163483 357.554 0 357.834 0C357.974 0 358.138 0.0700654 358.348 0.210196C358.558 0.350326 358.768 0.513809 359.002 0.700649C359.212 0.887489 359.422 1.07433 359.586 1.23781C359.749 1.4013 359.866 1.54143 359.889 1.58814V2.10195V2.61576C359.889 2.77925 359.796 2.94273 359.632 3.08286C359.539 3.17628 359.329 3.33977 359.072 3.57332C358.792 3.80687 358.605 3.94699 358.511 4.01706C357.367 4.81113 356.246 5.62856 355.102 6.44598C353.957 7.28676 352.789 8.10419 351.622 8.89826C351.528 8.92161 351.435 8.94497 351.365 8.96833C351.295 8.99168 351.201 8.99168 351.061 8.99168C350.687 8.99168 350.36 8.85155 350.057 8.57129C349.73 8.31438 349.566 8.05748 349.566 7.77722ZM349.777 47.3406C349.777 47.2706 349.8 47.2005 349.823 47.1071C349.847 47.0137 349.847 46.967 349.823 46.9202C349.847 46.4765 349.917 45.9393 349.987 45.3087C350.057 44.6782 350.174 44.1643 350.337 43.744C350.431 43.5104 350.617 43.3236 350.851 43.2068C351.084 43.09 351.341 42.9966 351.598 42.9032C351.855 42.8098 352.112 42.7163 352.346 42.6463C352.579 42.5528 352.766 42.4127 352.906 42.2025C352.93 42.2025 352.953 42.1558 352.976 42.039C353 41.9456 353 41.8522 353 41.7821C353 41.7121 353 41.5719 353.023 41.3617C353.046 41.1516 353.046 40.918 353.07 40.6611C353.093 40.4042 353.093 40.1706 353.093 39.9137V39.3999C353 36.6207 352.976 33.8648 353.023 31.1322C353.07 28.3997 353.023 25.6438 352.836 22.9113C352.836 22.8412 352.813 22.7011 352.789 22.4909C352.766 22.2807 352.719 22.0705 352.719 21.8136C352.696 21.58 352.696 21.3465 352.673 21.1596C352.649 20.9495 352.649 20.786 352.649 20.6925C352.579 20.3889 352.416 20.2021 352.159 20.132C351.902 20.062 351.622 19.9919 351.318 19.9218C351.014 19.8518 350.734 19.735 350.501 19.5949C350.267 19.4314 350.127 19.1511 350.08 18.7541C350.08 18.7307 350.08 18.684 350.057 18.6607C350.034 18.6139 350.033 18.5906 350.033 18.5672V17.5163C350.033 17.0258 350.034 16.4886 350.057 15.9281C350.08 15.3676 350.08 14.8304 350.08 14.34V13.3357C350.15 13.0555 350.244 12.7285 350.337 12.3081C350.431 11.8877 350.641 11.6542 350.898 11.5841L350.991 11.6308H351.084C351.598 11.7242 352.322 11.7709 353.233 11.7476C354.167 11.7242 355.102 11.7476 356.059 11.7943C357.017 11.841 357.904 11.9578 358.745 12.1446C359.586 12.3314 360.17 12.6584 360.52 13.1489C360.683 13.3591 360.777 13.686 360.777 14.1298C360.777 14.5735 360.8 14.9239 360.824 15.1574C360.917 16.6288 360.87 17.6564 360.683 18.2403C360.497 18.8241 360.263 19.2212 360.006 19.4314C359.749 19.6416 359.492 19.7817 359.212 19.8284C358.932 19.8985 358.768 20.1787 358.698 20.6458C358.465 22.0939 358.325 23.5185 358.278 24.9665C358.254 26.4145 358.254 27.8392 358.301 29.2872C358.348 30.7352 358.418 32.1599 358.535 33.5845C358.628 35.0092 358.722 36.4338 358.792 37.8818V38.419V39.3766C358.792 39.7269 358.792 40.0305 358.815 40.3341C358.838 40.6377 358.838 40.8012 358.838 40.8713V41.2917C358.862 41.7121 359.025 41.969 359.305 42.1091C359.586 42.2492 359.889 42.366 360.24 42.5061C360.59 42.6229 360.894 42.7864 361.197 42.9732C361.477 43.1601 361.664 43.5104 361.734 44.0242C361.734 44.2578 361.734 44.6081 361.758 45.0752C361.781 45.5423 361.758 46.0094 361.688 46.4531C361.618 46.9202 361.477 47.3406 361.314 47.7143C361.127 48.088 360.824 48.2982 360.403 48.3215C359.726 48.4617 358.932 48.485 358.068 48.415C357.203 48.3449 356.409 48.3449 355.732 48.415C355.639 48.415 355.382 48.4383 354.985 48.485C354.588 48.5317 354.167 48.5784 353.747 48.6485C353.327 48.6952 352.906 48.7419 352.509 48.7653C352.112 48.812 351.879 48.812 351.762 48.812C351.271 48.8354 350.828 48.7419 350.431 48.5317C350.08 48.3215 349.847 47.9245 349.777 47.3406Z" fill="#2BB673"/>
<path d="M374.741 36.1302C374.811 35.92 374.765 35.6865 374.601 35.4062C374.438 35.126 374.227 35.0092 373.97 35.0092H373.807C373.807 35.2894 373.807 35.7565 373.784 36.4105C373.76 37.0878 373.76 37.7884 373.737 38.5358C373.714 39.2832 373.714 40.0072 373.69 40.6845C373.667 41.3617 373.667 41.8288 373.667 42.0624V43.1367C373.69 43.814 373.76 44.4913 373.877 45.1686C373.971 45.8226 374.041 46.5232 374.087 47.2005C374.087 47.5041 374.041 47.761 373.97 47.9479C373.877 48.1347 373.644 48.2281 373.27 48.2281C372.546 48.2982 371.869 48.3215 371.215 48.2748C370.561 48.2515 369.86 48.2748 369.113 48.3683C368.973 48.2982 368.856 48.1581 368.762 47.9479L368.552 47.5275C368.552 47.4574 368.529 47.2706 368.482 46.9436C368.435 46.6166 368.412 46.4064 368.412 46.313C368.342 45.262 368.342 44.1877 368.389 43.1367C368.435 42.0858 368.505 41.0114 368.575 39.9371C368.575 38.1855 368.552 36.4805 368.505 34.799C368.459 33.1174 368.552 31.4125 368.832 29.6609L368.108 15.2275C368.108 15.064 368.108 14.8304 368.132 14.5735C368.155 14.2933 368.202 14.0364 368.295 13.7795C368.389 13.5226 368.505 13.3124 368.646 13.1255C368.809 12.9387 368.996 12.8453 369.229 12.8453H369.44C370.257 12.9153 370.934 12.9854 371.472 13.0555C372.009 13.1255 372.359 13.5226 372.569 14.2466C372.849 14.9939 373.153 15.7413 373.457 16.512C373.784 17.2594 374.111 17.9834 374.414 18.6607C374.438 18.684 374.461 18.7541 374.461 18.8475V19.0343C374.624 19.9452 374.905 20.9028 375.278 21.8837C375.652 22.8646 376.026 23.7521 376.353 24.5695C376.283 24.9198 376.353 25.3169 376.563 25.7606C376.773 26.2043 377.007 26.6481 377.287 27.0918C377.567 27.5356 377.801 27.956 378.034 28.3764C378.268 28.7734 378.338 29.1237 378.268 29.404C378.291 29.4974 378.385 29.731 378.525 30.0579C378.665 30.3849 378.782 30.7352 378.922 31.1089C379.039 31.4826 379.155 31.8329 379.272 32.1599C379.389 32.4868 379.482 32.7204 379.552 32.8605C379.576 32.9539 379.622 33.1174 379.692 33.3043C379.739 33.4911 379.809 33.7013 379.879 33.9115C379.949 34.1451 379.996 34.3552 380.066 34.5421C380.113 34.7523 380.136 34.8924 380.136 34.9625C380.3 35.3829 380.417 35.8033 380.487 36.247C380.557 36.6908 380.79 37.0644 381.211 37.3213C381.374 36.971 381.467 36.5973 381.467 36.2003C381.958 32.3934 382.168 28.6566 382.121 24.9899C382.075 21.3231 382.005 17.5863 381.935 13.7328C381.958 13.6627 382.051 13.5226 382.191 13.3124C382.332 13.1022 382.425 13.0088 382.495 13.0088L386.606 12.7051C386.909 12.7051 387.073 12.7986 387.073 12.962C387.073 13.1255 387.166 13.2657 387.376 13.3124C387.283 14.8538 387.283 16.3719 387.376 17.8666C387.47 19.3613 387.47 20.8794 387.33 22.4208C387.096 24.6396 386.862 26.8349 386.676 28.9369C386.489 31.0622 386.489 33.2576 386.652 35.523L386.232 46.8735C386.209 47.1772 386.022 47.5975 385.718 48.1347C385.414 48.6719 385.064 48.9988 384.69 49.139C384.62 49.139 384.434 49.139 384.153 49.1623C383.873 49.1857 383.686 49.1857 383.616 49.1857C382.752 49.2557 381.935 49.2791 381.141 49.2324C380.346 49.209 379.529 49.1156 378.665 48.9755C378.221 48.9521 377.871 48.6252 377.637 48.0179C377.404 47.4107 377.217 46.7568 377.1 46.0094C376.983 45.262 376.89 44.5614 376.843 43.9074C376.796 43.2302 376.75 42.8098 376.726 42.5996C376.703 42.4594 376.633 42.1792 376.516 41.7121C376.423 41.2683 376.329 40.9647 376.259 40.7779C376.189 40.6144 376.096 40.3108 375.956 39.8437C375.816 39.3999 375.675 38.9328 375.512 38.4424C375.348 37.9519 375.208 37.4848 375.068 37.0411C374.928 36.6207 374.811 36.3171 374.741 36.1302Z" fill="#2BB673"/>
<path d="M400.641 39.0028C400.548 38.1854 400.478 37.2512 400.478 36.1769C400.478 35.1025 400.548 34.0282 400.688 32.8838C400.828 31.7628 401.038 30.6651 401.295 29.5907C401.576 28.5398 401.949 27.6056 402.416 26.8115C402.953 25.9474 403.631 25.1299 404.425 24.3125C405.219 23.5184 405.99 22.7477 406.737 22.0237C407.251 21.2296 407.461 20.4122 407.344 19.5481C407.274 18.8241 407.017 18.2636 406.574 17.8665C406.13 17.4695 405.452 17.306 404.565 17.3761C403.117 17.5396 401.996 18.0534 401.155 18.8941C400.314 19.7349 399.987 20.7625 400.151 21.9536C400.221 22.5609 400.314 23.1915 400.454 23.8454C400.595 24.4993 400.688 25.1766 400.758 25.8539C400.781 26.0875 400.711 26.3911 400.525 26.7648C400.338 27.1151 400.104 27.4888 399.824 27.8391C399.544 28.1894 399.24 28.4931 398.936 28.75C398.609 29.0069 398.329 29.147 398.096 29.147H397.839C397.699 29.1704 397.418 29.1937 396.998 29.1703C396.578 29.147 396.274 29.147 396.157 29.147C395.2 28.3529 394.546 27.3954 394.195 26.251C393.845 25.1066 393.588 23.9855 393.425 22.8879C393.355 22.304 393.355 21.7435 393.425 21.2296C393.495 20.6925 393.611 20.132 393.775 19.5481C394.382 16.9557 395.597 14.9238 397.372 13.4991C399.147 12.0745 401.716 11.2337 405.079 10.9534C406.387 10.86 407.554 10.9768 408.605 11.3271C409.656 11.6774 410.544 12.1913 411.268 12.8452C412.015 13.4991 412.599 14.2698 413.066 15.1573C413.533 16.0448 413.814 16.979 413.907 17.9366C414 18.6139 414.024 19.3145 413.977 20.0385C413.93 20.7625 413.79 21.4632 413.557 22.1405C413.323 22.8178 412.996 23.4717 412.529 24.079C412.062 24.6862 411.455 25.2 410.707 25.6437C410.217 25.9474 409.68 26.2977 409.072 26.648C408.465 26.9983 407.975 27.4187 407.624 27.9092C407.181 28.5865 406.854 29.4039 406.644 30.3147C406.433 31.249 406.317 32.1831 406.27 33.1641C406.223 34.145 406.2 35.1025 406.247 36.0367C406.27 36.9709 406.317 37.8351 406.34 38.5824C406.363 39.2364 406.41 39.7735 406.433 40.2173C406.457 40.661 406.41 41.0347 406.223 41.2916C406.06 41.5719 405.733 41.7821 405.266 41.9689C404.799 42.1557 404.121 42.2725 403.234 42.3192C402.65 42.3893 402.183 42.3192 401.856 42.0857C401.505 41.8521 401.249 41.5719 401.085 41.2449C400.922 40.8946 400.781 40.5209 400.735 40.1239C400.735 39.7735 400.665 39.3998 400.641 39.0028ZM400.478 48.6718C400.408 48.2281 400.408 47.7609 400.478 47.2705C400.548 46.78 400.688 46.3129 400.922 45.9159C401.155 45.4955 401.482 45.1685 401.903 44.8883C402.323 44.608 402.883 44.4445 403.584 44.3745C404.028 44.3511 404.472 44.3978 404.939 44.5847C405.406 44.7482 405.826 44.9817 406.2 45.2386C406.574 45.5189 406.877 45.8225 407.134 46.1962C407.368 46.5465 407.531 46.8968 407.601 47.2471C407.624 47.6675 407.578 48.0879 407.438 48.5083C407.298 48.9287 407.087 49.3257 406.76 49.6527C406.457 50.003 406.083 50.2833 405.663 50.5168C405.242 50.7504 404.752 50.8905 404.238 50.9372C403.351 51.0073 402.533 50.8438 401.762 50.4234C401.015 50.003 400.595 49.4192 400.478 48.6718Z" fill="#2BB673"/>
</svg>
