<svg width="194" height="154" viewBox="0 0 194 154" fill="none" xmlns="http://www.w3.org/2000/svg">
<path d="M130.334 66.5143C130.334 66.5143 131.033 63.3538 133.183 60.9283C135.314 58.5028 137.243 56.2794 137.243 56.2794L136.104 62.9496C136.104 62.9496 140.037 56.2795 144.704 52.0899C149.371 47.9004 150.933 48.2496 150.933 48.2496C150.933 48.2496 145.145 55.5077 143.068 60.0831C140.992 64.6769 140.588 68.7928 140.588 68.7928C140.588 68.7928 143.528 65.3751 146.192 63.2436C148.875 61.1305 150.896 61.3142 150.896 61.3142C150.896 61.3142 147.148 63.9786 145.035 68.0211C142.921 72.082 141.506 76.0326 141.506 76.0326L130.334 66.5143Z" fill="#92C131"/>
<path d="M172.046 98.8912C176.805 96.3003 180.903 94.6099 180.903 94.6099C180.903 94.6099 175.501 99.7548 173.351 102.787C171.183 105.819 169.51 109.273 169.51 109.273C169.51 109.273 173.351 106.811 177.687 104.643C182.024 102.474 193.71 101.243 193.71 101.243C193.71 101.243 182.446 105.819 178.551 109.292C174.655 112.764 168.794 118.093 168.794 118.093L161.683 111.019C161.664 111 167.287 101.482 172.046 98.8912Z" fill="#92C131"/>
<path d="M26.2211 109.549C26.2211 109.549 25.2105 106.462 22.8585 104.257C20.5065 102.052 16.6661 97.458 16.6661 97.458L20.139 106.554C20.139 106.554 15.6003 100.269 10.5472 96.5576C5.49406 92.8275 3.9873 93.3236 3.9873 93.3236C3.9873 93.3236 10.437 99.9937 12.9543 104.367C15.4533 108.74 16.2435 112.801 16.2435 112.801C16.2435 112.801 13.1748 111.037 10.3083 109.181C7.44182 107.325 5.45731 107.711 5.45731 107.711C5.45731 107.711 9.42632 110.008 11.9253 113.83C14.4243 117.67 16.023 120.096 16.023 120.096L26.2211 109.549Z" fill="#92C131"/>
<path d="M58.6539 53.2292C56.8164 49.8665 55.034 47.3124 55.034 47.3124C55.034 47.3124 56.2652 52.4206 56.3938 55.0483C56.5224 57.6759 56.1916 60.3771 56.1916 60.3771C56.1916 60.3771 54.8503 57.4371 53.123 54.5154C51.3774 51.5754 44.9277 46.3752 44.9277 46.3752C44.9277 46.3752 49.8523 53.3945 50.8445 56.9409C51.8368 60.4873 53.27 65.8896 53.27 65.8896L60.1974 64.4196C60.179 64.3828 60.473 56.5918 58.6539 53.2292Z" fill="#92C131"/>
<path d="M0.165376 144.186C28.6835 151.756 43.0528 155.211 92.4266 153.355C146.339 151.334 170.447 142.422 182.281 135.164C177.907 126.013 171.55 123.661 165.743 112.14C162.05 104.826 160.286 102.879 153.726 94.2239C148.048 86.7453 146.357 83.0519 141.286 73.2028C137.133 65.1178 128.938 61.1488 124.565 53.2475C119.548 44.2254 113.043 39.5581 107.329 32.8145C104.903 29.9663 103.874 22.6163 101.724 22.9838C99.6663 23.3329 97.9758 25.0969 96.3221 26.4567C93.2718 28.9557 89.4314 29.8009 85.8483 30.5911C82.2284 31.3996 78.4064 31.3261 74.8049 30.3706C73.0776 29.9296 72.9857 25.1153 71.4974 25.593C70.0457 26.0708 68.2266 27.9267 66.628 33.9721C65.3968 38.6209 59.5719 41.0465 56.2461 47.5513C52.8834 54.1479 46.1398 62.7106 44.8903 68.0026C42.9609 76.2531 31.4765 85.6978 29.492 94.867C28.2057 100.765 14.3877 120.537 11.172 125.792C7.47865 131.783 2.66438 134.87 0 143.653" fill="#A85318"/>
<path d="M69.8614 27.688C68.5935 30.334 79.1041 34.6888 87.9241 33.0534C96.248 31.5099 105.05 28.276 102.698 23.7925C96.3399 19.8969 92.279 20.0806 85.5537 20.7605C75.6495 21.7711 71.8092 25.5564 69.8614 27.688Z" fill="#814114"/>
<path d="M79.8772 70.6303C79.8772 72.1738 78.6277 73.4049 77.0842 73.4049C75.5591 73.4049 73.4092 72.1554 73.4092 70.6303C73.4092 69.1052 75.5407 67.8558 77.0842 67.8558C78.6277 67.8558 79.8772 69.1052 79.8772 70.6303Z" fill="#814114"/>
<path d="M98.2333 53.027C98.2333 54.5706 96.9838 55.8016 95.4587 55.8016C93.9152 55.8016 91.7837 54.5522 91.7837 53.027C91.7837 51.5019 93.9152 50.2524 95.4587 50.2524C97.0022 50.2524 98.2333 51.4835 98.2333 53.027Z" fill="#814114"/>
<path d="M133.073 89.1157C133.073 90.6592 131.824 91.8902 130.299 91.8902C128.773 91.8902 126.624 90.6408 126.624 89.1157C126.624 87.5906 128.773 86.341 130.299 86.341C131.824 86.341 133.073 87.5906 133.073 89.1157Z" fill="#814114"/>
<path d="M87.7231 114.951C87.7231 116.494 86.4736 117.726 84.9484 117.726C83.4233 117.726 81.2734 116.476 81.2734 114.951C81.2734 113.426 83.4049 112.176 84.9484 112.176C86.492 112.176 87.7231 113.426 87.7231 114.951Z" fill="#814114"/>
<path d="M102.424 89.1157C103.067 90.7878 101.174 91.8902 99.6494 91.8902C98.1242 91.8902 96.7461 90.6408 96.7461 89.1157C96.7461 87.5722 98.1059 86.341 99.6494 86.341C101.174 86.341 101.873 87.7008 102.424 89.1157Z" fill="#814114"/>
<path d="M64.2956 93.3052C64.9387 94.9773 63.0461 96.0798 61.5209 96.0798C59.9774 96.0798 58.6177 94.8303 58.6177 93.3052C58.6177 91.7801 59.9774 90.5305 61.5209 90.5305C63.0461 90.5305 63.7443 91.8719 64.2956 93.3052Z" fill="#814114"/>
<path d="M99.5192 138.875C100.162 140.547 98.2697 141.65 96.7446 141.65C95.2011 141.65 93.8413 140.4 93.8413 138.875C93.8413 137.35 95.2011 136.101 96.7446 136.101C98.2697 136.101 98.9679 137.46 99.5192 138.875Z" fill="#814114"/>
<path d="M146.726 99.7917C147.295 101.243 145.991 102.585 144.631 102.585C143.289 102.585 142.077 101.923 142.077 100.6C142.077 99.2588 143.271 98.1747 144.631 98.1747C145.991 98.1747 146.248 98.5422 146.726 99.7917Z" fill="#814114"/>
<path d="M63.7788 128.622C64.3484 130.092 63.0438 131.415 61.684 131.415C60.3426 131.415 59.1299 130.753 59.1299 129.43C59.1299 128.107 60.3243 127.005 61.684 127.005C63.0254 127.005 63.2827 127.373 63.7788 128.622Z" fill="#814114"/>
<path d="M82.1367 43.9864C82.7063 45.4564 81.4017 46.7794 80.0419 46.7794C78.7005 46.7794 77.4878 46.1179 77.4878 44.7949C77.4878 43.4536 78.7005 42.3694 80.0419 42.3694C81.3833 42.3694 81.6406 42.7553 82.1367 43.9864Z" fill="#814114"/>
<path d="M147.919 138.287C148.489 139.739 147.184 141.08 145.824 141.08C144.483 141.08 143.27 140.419 143.27 139.096C143.27 137.754 144.464 136.67 145.824 136.67C147.166 136.67 147.423 137.056 147.919 138.287Z" fill="#814114"/>
<path d="M113.502 107.968C114.072 109.42 112.767 110.761 111.408 110.761C110.066 110.761 108.854 110.1 108.854 108.777C108.854 107.435 110.048 106.351 111.408 106.351C112.767 106.333 113.025 106.719 113.502 107.968Z" fill="#814114"/>
<path d="M40.3711 138.287C40.9407 139.739 39.6361 141.08 38.2763 141.08C36.9349 141.08 35.7222 140.419 35.7222 139.096C35.7222 137.754 36.9165 136.67 38.2763 136.67C39.6361 136.67 39.8933 137.056 40.3711 138.287Z" fill="#814114"/>
<path d="M44.7793 101.997C45.3489 103.448 44.0443 104.79 42.6845 104.79C41.3431 104.79 40.1304 104.128 40.1304 102.805C40.1304 101.464 41.3247 100.38 42.6845 100.38C44.0443 100.38 44.3015 100.747 44.7793 101.997Z" fill="#814114"/>
<path d="M123.444 64.7504C123.444 66.2755 122.194 67.5251 120.669 67.5251C119.126 67.5251 116.994 66.2755 116.994 64.7504C116.994 63.2252 119.126 61.9758 120.669 61.9758C122.194 61.9758 123.444 63.2252 123.444 64.7504Z" fill="#814114"/>
<path d="M162.895 122.871C162.895 124.414 161.645 125.645 160.12 125.645C158.577 125.645 156.445 124.396 156.445 122.871C156.445 121.327 158.577 120.096 160.12 120.096C161.645 120.096 162.895 121.346 162.895 122.871Z" fill="#814114"/>
<path d="M125.852 126.435C125.852 127.979 124.602 129.21 123.077 129.21C121.552 129.21 119.402 127.961 119.402 126.435C119.402 124.91 121.533 123.661 123.077 123.661C124.602 123.642 125.852 124.892 125.852 126.435Z" fill="#814114"/>
<path d="M39.56 122.209C39.56 123.753 38.3105 124.984 36.7854 124.984C35.2419 124.984 33.1104 123.734 33.1104 122.209C33.1104 120.666 35.2419 119.435 36.7854 119.435C38.3105 119.435 39.56 120.666 39.56 122.209Z" fill="#814114"/>
<path d="M124.693 126.693C125.649 124.506 126.347 121.217 128.846 118.075C131.326 114.933 134.652 111.184 134.652 111.184C134.652 111.184 130.242 113.003 127.192 116.384C124.142 119.765 121.11 125.609 121.11 125.609C121.11 125.609 119.916 128.089 121.312 128.787C122.984 129.614 124.289 127.593 124.693 126.693Z" fill="#92C131"/>
<path d="M75.5771 71.7145C74.8972 70.171 74.4011 67.8741 72.6554 65.6507C70.9098 63.4457 68.5762 60.7997 68.5762 60.7997C68.5762 60.7997 71.6816 62.0859 73.8131 64.4563C75.9446 66.8267 78.0944 70.9428 78.0944 70.9428C78.0944 70.9428 78.9213 72.6883 77.9474 73.1661C76.7898 73.7725 75.8527 72.3576 75.5771 71.7145Z" fill="#92C131"/>
<path d="M151.502 69.3442C151.502 69.3442 146.614 80.6816 145.438 81.4166C144.281 82.1516 140.514 79.7996 140.514 79.7996" stroke="black" stroke-width="0.45" stroke-miterlimit="10" stroke-linecap="round" stroke-linejoin="round"/>
<path d="M143.343 58.6498C143.343 58.6498 138.254 70.2261 137.096 70.9611C135.938 71.6961 132.171 69.3257 132.171 69.3257" stroke="black" stroke-width="0.45" stroke-miterlimit="10" stroke-linecap="round" stroke-linejoin="round"/>
<path d="M136.16 48.6538C136.16 48.6538 123.941 51.0977 122.71 50.5281C121.46 49.9584 121.405 46.0997 121.405 46.0997" stroke="black" stroke-width="0.45" stroke-miterlimit="10" stroke-linecap="round" stroke-linejoin="round"/>
<path d="M155.398 19.7131C155.398 19.7131 163.887 7.21806 163.501 5.89506C163.115 4.57205 157.915 3.67169 157.915 3.67169" stroke="black" stroke-width="0.45" stroke-miterlimit="10" stroke-linecap="round" stroke-linejoin="round"/>
<path d="M146.265 17.2508C146.265 17.2508 150.675 2.80799 149.922 1.66874C149.169 0.529485 143.932 1.19097 143.932 1.19097" stroke="black" stroke-width="0.45" stroke-miterlimit="10" stroke-linecap="round" stroke-linejoin="round"/>
<path d="M162.711 60.4688C159.312 56.3161 155.563 53.6884 150.951 52.2001C153.083 47.0734 151.19 39.9623 142.645 39.2457C140.33 39.1354 137.28 39.3926 135.81 41.5058C135.81 41.5058 133.789 44.5561 133.623 47.2756C133.274 52.3655 135.939 54.9931 140.551 56.8306C141.359 57.1429 142.131 57.3267 142.884 57.4002C140.992 62.6922 147.239 70.373 151.208 72.5045C154.644 74.3971 162.546 77.6495 165.578 74.3604C169.344 70.7221 165.302 63.4089 162.711 60.4688Z" fill="#814114"/>
<path d="M129.323 28.1839C129.121 40.6973 143.123 44.2805 152.219 39.3376C157.786 36.1955 160.579 31.3812 159.238 24.6743C157.695 17.7101 150.124 14.6967 148.25 14.2005C146.504 13.7228 129.562 10.9849 129.323 28.1839Z" fill="#A85318"/>
<path d="M134.119 13.1531C128.533 13.5023 127.688 21.0911 132.208 22.8919C135.35 24.1414 138.952 21.5873 139.246 18.1328C139.356 14.6415 136.729 12.7305 134.119 13.1531Z" fill="white"/>
<path d="M144.061 29.9111C149.757 32.3917 151.999 28.7351 152.862 26.6403C155.104 21.1462 148.011 16.6443 143.601 20.4664C140.827 22.8367 140.588 28.2574 144.061 29.9111Z" fill="white"/>
<path d="M134.45 17.508C134.046 17.7285 133.826 18.7759 134.653 19.0699C135.388 19.3272 135.902 18.7392 135.92 18.3349C135.939 17.6734 135.351 17.1038 134.45 17.508Z" fill="black"/>
<path d="M148.397 25.8504C148.783 26.4751 149.738 26.4751 150.179 25.8504C150.712 25.1154 150.014 24.5089 149.591 24.3803C148.856 24.1782 147.956 24.95 148.397 25.8504Z" fill="black"/>
<path d="M134.267 31.1055C135.351 36.3607 140.257 35.2766 141.599 32.9981" stroke="black" stroke-width="0.45" stroke-miterlimit="10" stroke-linecap="round" stroke-linejoin="round"/>
</svg>
