<svg width="140" height="97" viewBox="0 0 140 97" fill="none" xmlns="http://www.w3.org/2000/svg">
<path d="M42.647 30.4304C42.0767 31.4687 37.8941 32.7849 36.4609 33.7501C37.8941 33.8525 40.0878 33.4138 41.4624 33.1944C42.5593 33.0043 43.4952 32.6387 44.5628 32.5217C44.7675 32.5656 43.3051 30.4743 42.647 30.4304Z" fill="black"/>
<g opacity="0.6">
<g opacity="0.6">
<path opacity="0.6" d="M57.2137 21.4803C57.4769 19.3452 55.956 12.7935 46.5672 5.17424C44.5052 3.50707 35.8622 -1.14346 34.2682 0.260476C33.5223 0.91857 30.8168 4.82326 40.5274 14.0512C44.3004 17.6342 51.3055 20.3104 56.307 21.3049C56.8481 21.3926 57.1113 21.5827 57.2137 21.4803Z" fill="#686552"/>
</g>
</g>
<path d="M55.7077 23.9664C53.3239 18.1898 48.1469 14.8408 44.1544 16.4788C40.162 18.1313 38.8458 24.1565 41.2296 29.9331C43.6134 35.7097 48.7904 39.0587 52.7828 37.4208C56.7899 35.7682 58.0914 29.743 55.7077 23.9664Z" fill="#FFDE00"/>
<path d="M58.9246 24.3029C56.7602 19.0381 51.7586 16.1133 47.7516 17.7658C43.7591 19.4184 42.2675 25.0195 44.4465 30.2696C46.6109 35.5343 51.6124 38.4592 55.6048 36.8067C59.5973 35.1541 61.0889 29.5676 58.9246 24.3029Z" fill="black"/>
<path d="M62.6983 21.9483C60.3145 16.1717 55.1375 12.8227 51.1451 14.4606C47.138 16.1132 45.8365 22.1384 48.2202 27.915C50.604 33.6916 55.781 37.0405 59.7734 35.4026C63.7805 33.7501 65.0821 27.7249 62.6983 21.9483Z" fill="#FFDE00"/>
<path d="M67.3047 19.5207C64.921 13.7441 59.744 10.3951 55.7515 12.0476C51.7445 13.7002 50.4429 19.7254 52.8267 25.502C55.2104 31.2786 60.3874 34.6276 64.3799 32.9897C68.3723 31.3225 69.6885 25.2973 67.3047 19.5207Z" fill="black"/>
<path d="M63.2977 13.6125C63.2977 13.6125 61.6744 7.20702 62.04 6.72442C62.3909 6.24182 64.6723 6.6513 64.6723 6.6513" stroke="black" stroke-width="0.288" stroke-miterlimit="10" stroke-linecap="round" stroke-linejoin="round"/>
<path d="M67.4062 13.9781C67.4062 13.9781 67.7426 7.38255 68.2252 7.03156C68.7078 6.68058 70.7552 7.73353 70.7552 7.73353" stroke="black" stroke-width="0.288" stroke-miterlimit="10" stroke-linecap="round" stroke-linejoin="round"/>
<g opacity="0.6">
<g opacity="0.6">
<path opacity="0.6" d="M55.7803 21.5389C56.0582 21.5389 54.508 19.5354 54.2301 19.082C52.0511 16.4497 49.5065 14.4461 46.6109 12.6327C42.0627 9.82485 36.9588 7.73358 31.6063 7.90907C30.0561 7.90907 25.3618 7.60196 25.274 9.26913C24.5867 20.2666 44.6951 24.6246 55.7803 21.5389Z" fill="#686552"/>
</g>
</g>
<path d="M57.2581 20.676C57.4482 16.2448 59.13 14.4899 61.5868 13.32C64.7603 11.682 71.1219 11.7698 73.7397 15.6452C78.1123 22.1238 75.4214 30.1672 66.8224 30.8399C59.6857 31.381 57.1703 22.855 57.2581 20.676Z" fill="#FFDE00"/>
<path d="M70.6245 20.559C68.8111 21.5096 67.1439 20.7199 66.6028 19.2575C66.0325 17.7219 66.9684 15.8793 68.8111 15.6599C71.2095 15.3528 72.9936 19.3014 70.6245 20.559Z" fill="white"/>
<path d="M70.2001 18.0876C69.8783 18.3508 69.4834 18.2192 69.3811 17.9267C69.2641 17.6196 69.4542 17.254 69.8198 17.2101C70.3024 17.1516 70.5949 17.7659 70.2001 18.0876Z" fill="black"/>
<path d="M72.8766 27.0961C72.8766 27.0961 71.9553 27.6811 70.8731 27.2862C68.9866 26.6135 69.2791 24.7855 69.2791 24.7855" stroke="black" stroke-width="0.288" stroke-miterlimit="10" stroke-linecap="round" stroke-linejoin="round"/>
<path d="M59.5244 32.0976C59.5244 32.0976 58.5738 34.2035 58.1497 35.2418C57.5062 36.792 56.5557 37.4208 56.5557 37.4208" stroke="black" stroke-width="0.288" stroke-miterlimit="10" stroke-linecap="round" stroke-linejoin="round"/>
<path d="M54.8 33.3699C54.8 33.3699 54.4051 34.8762 53.9957 35.9145C53.3522 37.4647 51.9629 38.2983 51.9629 38.2983" stroke="black" stroke-width="0.288" stroke-miterlimit="10" stroke-linecap="round" stroke-linejoin="round"/>
<path d="M50.6035 33.6332C50.6035 33.6332 49.9746 35.0664 49.4043 36.017C48.5268 37.4502 47.0205 38.0498 47.0205 38.0498" stroke="black" stroke-width="0.288" stroke-miterlimit="10" stroke-linecap="round" stroke-linejoin="round"/>
<path d="M97.782 64.8415C97.0508 66.1723 91.7568 67.8248 89.9434 69.0533C91.7421 69.1849 94.5354 68.6145 96.2903 68.3513C97.6796 68.1173 98.8642 67.6493 100.224 67.5031C100.458 67.5616 98.6156 64.9 97.782 64.8415Z" fill="black"/>
<g opacity="0.6">
<g opacity="0.6">
<path opacity="0.6" d="M116.252 53.4929C116.589 50.7874 114.658 42.4661 102.754 32.7995C100.136 30.679 89.1682 24.7854 87.1501 26.5549C86.1995 27.4031 82.7774 32.3607 95.0911 44.0602C99.8878 48.6083 108.765 52.0012 115.097 53.2735C115.799 53.3759 116.135 53.6099 116.252 53.4929Z" fill="#686552"/>
</g>
</g>
<path d="M114.366 56.6372C111.339 49.2958 104.772 45.0548 99.6976 47.1461C94.623 49.2373 92.9558 56.8712 95.983 64.2126C99.0103 71.5394 105.577 75.7951 110.651 73.7038C115.726 71.6125 117.393 63.9786 114.366 56.6372Z" fill="#FFDE00"/>
<path d="M118.431 57.076C115.682 50.4073 109.335 46.6927 104.261 48.784C99.1859 50.8753 97.2993 57.9827 100.049 64.6514C102.798 71.3201 109.145 75.0346 114.22 72.9434C119.294 70.8375 121.181 63.7447 118.431 57.076Z" fill="black"/>
<path d="M123.228 54.078C120.201 46.7366 113.635 42.4955 108.56 44.5868C103.486 46.6781 101.833 54.3266 104.846 61.6534C107.873 68.9802 114.439 73.2358 119.514 71.1446C124.588 69.0679 126.256 61.4194 123.228 54.078Z" fill="#FFDE00"/>
<path d="M129.063 50.9923C126.036 43.6509 119.47 39.4098 114.395 41.5011C109.321 43.5924 107.668 51.2409 110.681 58.5677C113.708 65.9091 120.274 70.1501 125.349 68.0589C130.423 65.9822 132.091 58.3337 129.063 50.9923Z" fill="black"/>
<path d="M123.989 43.5046C123.989 43.5046 121.941 35.3881 122.395 34.7739C122.848 34.1596 125.729 34.6715 125.729 34.6715" stroke="black" stroke-width="0.365" stroke-miterlimit="10" stroke-linecap="round" stroke-linejoin="round"/>
<path d="M129.194 43.9578C129.194 43.9578 129.633 35.5927 130.233 35.1394C130.847 34.686 133.45 36.0314 133.45 36.0314" stroke="black" stroke-width="0.365" stroke-miterlimit="10" stroke-linecap="round" stroke-linejoin="round"/>
<g opacity="0.6">
<g opacity="0.6">
<path opacity="0.6" d="M114.439 53.5514C114.776 53.5514 112.816 51.0214 112.479 50.4364C109.715 47.1021 106.484 44.5574 102.798 42.2468C97.0362 38.6785 90.5577 36.0315 83.7574 36.2508C81.7977 36.2508 75.8456 35.856 75.714 37.9765C74.8658 51.9427 100.385 57.4707 114.439 53.5514Z" fill="#686552"/>
</g>
</g>
<path d="M116.325 52.4692C116.559 46.8389 118.694 44.6306 121.809 43.1243C125.846 41.0476 133.904 41.15 137.223 46.0638C142.781 54.2826 139.359 64.4904 128.449 65.3386C119.396 66.0552 116.208 55.2332 116.325 52.4692Z" fill="#FFDE00"/>
<path d="M133.275 52.3084C130.964 53.5222 128.858 52.5131 128.171 50.6558C127.454 48.6962 128.639 46.3709 130.979 46.0784C134.02 45.7128 136.287 50.7289 133.275 52.3084Z" fill="white"/>
<path d="M132.778 49.2226C132.339 49.5736 131.813 49.3981 131.666 49.0032C131.505 48.5791 131.769 48.0819 132.266 48.0234C132.909 47.9356 133.304 48.7838 132.778 49.2226Z" fill="black"/>
<path d="M136.127 60.615C136.127 60.615 134.957 61.3462 133.582 60.8636C131.184 60.0154 131.564 57.6755 131.564 57.6755" stroke="black" stroke-width="0.365" stroke-miterlimit="10" stroke-linecap="round" stroke-linejoin="round"/>
<path d="M119.191 66.9619C119.191 66.9619 117.992 69.6381 117.451 70.9397C116.632 72.914 115.433 73.7037 115.433 73.7037" stroke="black" stroke-width="0.365" stroke-miterlimit="10" stroke-linecap="round" stroke-linejoin="round"/>
<path d="M113.195 68.5852C113.195 68.5852 112.698 70.5009 112.172 71.8025C111.353 73.7768 109.583 74.8297 109.583 74.8297" stroke="black" stroke-width="0.365" stroke-miterlimit="10" stroke-linecap="round" stroke-linejoin="round"/>
<path d="M107.872 68.907C107.872 68.907 107.083 70.7205 106.337 71.9197C105.225 73.7477 103.31 74.4935 103.31 74.4935" stroke="black" stroke-width="0.365" stroke-miterlimit="10" stroke-linecap="round" stroke-linejoin="round"/>
<path d="M26.0203 84.1747C25.1282 85.798 18.6204 87.8454 16.3975 89.3517C18.6204 89.5126 22.0424 88.8253 24.2068 88.4889C25.9033 88.1964 27.3511 87.6261 29.0329 87.4506C29.3253 87.5091 27.0586 84.2479 26.0203 84.1747Z" fill="black"/>
<g opacity="0.6">
<g opacity="0.6">
<path opacity="0.6" d="M46.714 74.3472C47.9424 71.2323 48.1911 60.732 37.0035 45.5959C34.5466 42.2761 23.3005 31.8929 20.361 33.3992C18.9717 34.1012 13.3852 38.9564 24.4558 56.6372C28.7554 63.5106 38.2758 70.2671 45.4271 73.7184C46.2022 74.0694 46.5531 74.435 46.714 74.3472Z" fill="#686552"/>
</g>
</g>
<path d="M46.3917 74.0985C42.6771 65.09 34.6045 59.8691 28.3892 62.443C22.1592 65.0169 20.1264 74.391 23.841 83.3996C27.5556 92.4082 35.6136 97.6291 41.8435 95.0552C48.0735 92.4959 50.1063 83.1071 46.3917 74.0985Z" fill="#FFDE00"/>
<path d="M51.3785 74.625C48.0003 66.4354 40.2055 61.8726 33.9756 64.4465C27.7456 67.0204 25.435 75.7364 28.8132 83.9261C32.1914 92.1157 39.9862 96.6785 46.2161 94.1046C52.4461 91.5453 54.7567 82.8146 51.3785 74.625Z" fill="black"/>
<path d="M57.2719 70.9543C53.5573 61.9457 45.4993 56.7248 39.2694 59.2987C33.0394 61.8726 31.0067 71.2614 34.7066 80.2553C38.4212 89.2639 46.4938 94.4848 52.7091 91.9109C58.9537 89.3517 60.9865 79.9629 57.2719 70.9543Z" fill="#FFDE00"/>
<path d="M64.4376 67.1666C60.723 58.1581 52.665 52.9372 46.4351 55.5111C40.2051 58.0849 38.1577 67.4737 41.8723 76.4823C45.5869 85.4909 53.6449 90.7118 59.8894 88.1379C66.1194 85.564 68.1522 76.1752 64.4376 67.1666Z" fill="black"/>
<path d="M57.2874 58.6407C57.2874 58.6407 52.7977 49.3835 53.1926 48.5353C53.5728 47.687 57.185 47.5847 57.185 47.5847" stroke="black" stroke-width="0.448" stroke-miterlimit="10" stroke-linecap="round" stroke-linejoin="round"/>
<path d="M63.6776 57.8948C63.6776 57.8948 62.1274 47.7309 62.7416 47.029C63.3558 46.327 66.8364 47.2922 66.8364 47.2922" stroke="black" stroke-width="0.448" stroke-miterlimit="10" stroke-linecap="round" stroke-linejoin="round"/>
<g opacity="0.6">
<g opacity="0.6">
<path opacity="0.6" d="M45.1194 73.1188C45.5435 73.1773 43.5253 69.7845 43.189 69.0386C40.3226 64.549 36.7543 60.9807 32.601 57.6171C26.1078 52.4108 18.6055 48.2136 10.2843 47.4824C7.90054 47.1899 0.705373 45.8299 0.222771 48.3891C-2.89221 65.2656 27.3947 75.8097 45.1194 73.1188Z" fill="#686552"/>
</g>
</g>
<path d="M48.7903 68.9654C49.0682 62.0628 51.7006 59.328 55.5175 57.5C60.4751 54.9553 70.3758 55.087 74.456 61.1122C81.2709 71.2176 77.0884 83.736 63.6779 84.7889C52.5634 85.6664 48.6587 72.3729 48.7903 68.9654Z" fill="#FFDE00"/>
<path d="M59.2462 69.097C56.6138 70.4863 53.7913 69.097 53.0016 66.9765C52.1826 64.739 53.5427 62.0774 56.2189 61.741C59.6995 61.3023 62.6975 67.2836 59.2462 69.097Z" fill="white"/>
<path d="M56.4241 66.3916C55.8683 66.684 55.298 66.3915 55.1225 65.9528C54.947 65.4848 55.2249 64.9437 55.7952 64.8706C56.5264 64.7683 57.1406 66.0113 56.4241 66.3916Z" fill="black"/>
<path d="M72.2043 66.6694C69.7182 67.971 67.5977 66.611 66.8518 64.6074C66.0767 62.5161 67.3491 60.0008 69.8644 59.6937C73.1403 59.2988 75.4363 64.973 72.2043 66.6694Z" fill="white"/>
<path d="M70.0692 64.0956C69.6158 64.4905 68.9723 64.0956 68.8115 63.6715C68.6506 63.2182 68.9138 62.6917 69.4549 62.6186C70.1715 62.5308 70.698 63.5692 70.0692 64.0956Z" fill="black"/>
<path d="M68.0362 73.8501C68.0362 73.8501 68.1824 76.5848 65.3892 77.5354C62.4351 78.5445 60.9727 74.5374 60.9727 74.5374" stroke="black" stroke-width="0.448" stroke-miterlimit="10" stroke-linecap="round" stroke-linejoin="round"/>
<path d="M52.3147 86.7779C52.3147 86.7779 50.8376 90.0684 50.1795 91.6624C49.1851 94.09 47.708 95.0552 47.708 95.0552" stroke="black" stroke-width="0.448" stroke-miterlimit="10" stroke-linecap="round" stroke-linejoin="round"/>
<path d="M44.9732 88.7668C44.9732 88.7668 44.3736 91.1213 43.7155 92.73C42.721 95.1576 40.542 96.4445 40.542 96.4445" stroke="black" stroke-width="0.448" stroke-miterlimit="10" stroke-linecap="round" stroke-linejoin="round"/>
<path d="M38.4214 89.1617C38.4214 89.1617 37.4562 91.3846 36.5349 92.8762C35.1602 95.1138 32.8057 96.0497 32.8057 96.0497" stroke="black" stroke-width="0.448" stroke-miterlimit="10" stroke-linecap="round" stroke-linejoin="round"/>
</svg>
