<?xml version="1.0" encoding="utf-8"?>
<!-- Generator: Adobe Illustrator 26.2.1, SVG Export Plug-In . SVG Version: 6.00 Build 0)  -->
<svg version="1.1" id="Capa_1" xmlns="http://www.w3.org/2000/svg" xmlns:xlink="http://www.w3.org/1999/xlink" x="0px" y="0px"
	 viewBox="0 0 987 474" style="enable-background:new 0 0 987 474;" xml:space="preserve">
<style type="text/css">
	.st0{fill:none;stroke:#000000;stroke-width:0.712;stroke-miterlimit:10;}
	.st1{fill:#B4B0A5;}
	.st2{fill:#3C3C3B;}
	.st3{fill:#FAFAFB;}
	.st4{fill:#DAD8CC;}
	.st5{fill:#E30613;}
	.st6{fill:none;stroke:#DADADA;stroke-width:0.712;stroke-miterlimit:10;}
	.st7{fill:#908B84;}
	.st8{fill:#814114;}
	.st9{fill:none;stroke:#A85318;stroke-width:0.712;stroke-linecap:round;stroke-miterlimit:10;}
	.st10{fill:#A85318;}
	.st11{fill:none;stroke:#000000;stroke-width:0.712;stroke-linecap:round;stroke-miterlimit:10;}
	.st12{fill:#1B8A4F;}
	.st13{fill:#28B674;}
	.st14{fill:#393830;fill-opacity:0.41;}
	.st15{fill:#D5C2A2;}
	.st16{fill:#B91919;}
	.st17{fill:#E4D5B8;}
	.st18{fill:#F39200;}
	.st19{fill:none;stroke:#000000;stroke-width:0.884;stroke-linecap:round;}
	.st20{fill-rule:evenodd;clip-rule:evenodd;fill:#FFFFFF;}
	.st21{fill-rule:evenodd;clip-rule:evenodd;}
	.st22{fill:#FBBA00;}
	.st23{fill:#00A0A4;}
	.st24{fill:#007572;}
	.st25{fill:#2FAC66;}
	.st26{fill:none;stroke:#007572;stroke-width:0.928;stroke-linecap:round;}
	.st27{fill:none;stroke:#B9B5A3;stroke-width:0.618;stroke-linecap:round;stroke-linejoin:round;stroke-miterlimit:10;}
	.st28{fill:#FFDE00;}
	.st29{fill:none;stroke:#FBBA00;stroke-width:0.928;stroke-linecap:round;}
</style>
<path class="st0" d="M57.8,162.7c0-3.4,1.9-28.2,2.1-31.3"/>
<path class="st0" d="M196.7,168.2c0-3.2-0.4-28.5-0.2-31.3"/>
<path class="st0" d="M125.1,89.7l-0.2-35"/>
<path d="M95.9,171.8c0,1.8,13.6,3.1,28.4,2.9c14.8-0.2,28.3-1.9,28.3-3.8c0-1.8-13.6-3.1-28.4-2.9
	C109.3,168.3,95.8,169.9,95.9,171.8z"/>
<path d="M180.4,212.5c0,1.2,8.2,2,18.2,1.8c10-0.3,18.1-1.5,18.1-2.7c0-1.2-8.2-2-18.2-1.7C188.5,210,180.4,211.2,180.4,212.5z"/>
<path d="M72,208.9c0,1.2-8.2,2-18.2,1.8c-10-0.3-18.1-1.5-18-2.7c0-1.2,8.2-2,18.2-1.8C63.9,206.4,72,207.6,72,208.9z"/>
<path class="st1" d="M62.7,390.3c-6.4,1.9-8.1,4.4-26.8,2.6c-13.1-1.2-21.9-6.4-21.9-6.4s13.9-82,15.5-90.6c6-34,6.8-55.5,7.9-67.9
	c1.2-17.3,0.1-28.4,6.8-32.8c4.5-3,22.6,6,23.8,9.4c1.1,3.4-4.1,48.7-4.1,55.1c0,6.4,4.1,67.6,4.5,72.5
	C68.8,337.1,62.7,390.3,62.7,390.3z"/>
<path class="st1" d="M86.5,310.8c0,0,5.7-73.6,6.8-77.8c1.1-4.2,5.3-6,5.3-6s2.1-54.3,3-61.2c0.7-5.2,29.1-3.8,29.1-3.8
	s15.5-1.1,16.6,6.4c1.1,7.5,1.1,60.8,2.3,61.5c1.1,0.8,3,1.5,4.2,4.5c1.1,3,5.7,75.9,3.8,77.8C155.6,314.2,90.7,310.1,86.5,310.8z"
	/>
<path class="st1" d="M176.4,391.4c0,0,11.1,2.5,27.4,2.3c16.4-0.3,25.2-7.1,26.2-8.1c1-1-8.3-50.8-8.3-59.9c0-9.1-7.5-59.4-7.8-61.9
	c-0.3-2.5-0.9-50.4-1.4-52.7c-0.5-2.3-7.4-4.2-7.4-4.2s-20.6,1.8-20.6,5.1c0,1.9,1.3,23.3-0.4,48.3c-1.3,18.9-4.9,46.9-6,53.6
	C175.6,329.5,173.1,387.1,176.4,391.4z"/>
<path class="st2" d="M35.7,208.1c0.6,0,7.2-2,17.2-2c10,0,18.5,2.5,19.1,2.5c-1.5-8.6-12.5-56.8-13.4-58.1
	C57.8,149.4,41.4,189.8,35.7,208.1z"/>
<path class="st2" d="M216.6,211.7c-0.6,0-7.2-2-17.2-2c-10,0-18.5,2.5-19.1,2.5c1.5-8.6,14.7-56.8,15.7-58.1
	C197,152.8,213.4,201.4,216.6,211.7z"/>
<path class="st2" d="M152.5,171.2c-0.9,0-8.8-5.1-26.9-4.7c-18.5,0.3-28.9,5-29.8,5c2.3-12.7,27.3-89.1,28.7-91
	C126,78.5,147.9,156,152.5,171.2z"/>
<path class="st3" d="M45.6,285c0,0-0.2-11.2,0.9-14.2c1.1-2.9,5.1-2.9,5.7,2.2s0.1,12,0.1,12H45.6z"/>
<path class="st3" d="M49.1,230.1c0-0.7,0-10.8,1.1-13.1c1.1-2.3,4.5-2,5.2,1.4c0.8,3.5-1.5,12.6-1.5,12.6L49.1,230.1z"/>
<path class="st4" d="M44.5,287.6c1,0.4,9.6,0.2,9.6,0.2s0.6-4,0-4s-9.1-0.9-9.7-0.3C43.7,284,43.3,287.1,44.5,287.6z"/>
<path class="st3" d="M41.4,360.5c0,0-0.2-11.2,0.9-14.2c1.1-2.9,5.1-2.9,5.7,2.2c0.6,5.1,0.1,12,0.1,12L41.4,360.5L41.4,360.5z"/>
<path class="st4" d="M40.3,363.1c1,0.4,9.6,0.2,9.6,0.2s0.6-4,0-4c-0.6,0-9.1-0.9-9.7-0.3C39.6,359.6,39.1,362.7,40.3,363.1z"/>
<path class="st3" d="M196.4,361.3c0,0-0.2-11.2,0.9-14.2c1.1-2.9,5.1-2.9,5.7,2.2c0.6,5.1,0.1,12,0.1,12H196.4z"/>
<path class="st4" d="M195.4,363.9c1,0.4,9.6,0.2,9.6,0.2s0.6-4,0-4s-9.1-0.9-9.7-0.3C194.6,360.3,194.1,363.4,195.4,363.9z"/>
<path class="st4" d="M48.5,231.7c0.6,0.1,5.4,0.6,6.3,0.6c0.9,0,1.2-3.2,0.1-3.2c-1.1,0-6.6-0.6-7.1-0.2
	C47.4,229.4,46.7,231.4,48.5,231.7z"/>
<path class="st3" d="M196.6,284.7c0,0-0.2-9.7,0.9-12.2c1.1-2.5,5.1-2.5,5.7,1.9c0.6,4.4,0.1,10.3,0.1,10.3H196.6z"/>
<path class="st4" d="M195.5,288.1c1,0.4,9.6,0.2,9.6,0.2s0.6-4,0-4c-0.6,0-9.1-0.9-9.7-0.3C194.7,284.5,194.3,287.6,195.5,288.1z"/>
<path class="st3" d="M197.3,234.1c-0.1-0.7-1.2-10.1-0.3-12.4c0.8-2.3,4.2-2.4,5.4,0.8c1.1,3.1-0.2,11.9-0.2,11.9L197.3,234.1z"/>
<path class="st4" d="M196.8,235.8c0.6,0,5.4,0,6.4-0.1c0.9-0.1,0.9-3.4-0.2-3.2c-1.1,0.1-6.7,0.1-7.1,0.6
	C195.5,233.6,194.9,235.7,196.8,235.8z"/>
<path class="st5" d="M80.2,136.9c-2-1-5.2-2.8-7.2-3.2c-3.9-0.8-5.3,0.2-8.5-0.1c-2.1-0.2-4-1.4-4.8-1.7l-0.6,7.5
	c2.7,1.1,5.2,2,9.4-0.1C73.1,137,75.3,136.9,80.2,136.9z"/>
<path class="st5" d="M217.4,142.5c-2.1,0.9-5.3,2.5-7.4,2.8c-3.9,0.6-5.3-0.6-8.5-0.4c-2.1,0.1-4.1,1.1-4.9,1.4l-0.1-7.5
	c2.7-0.9,5.3-1.7,9.4,0.7C210.4,142,212.6,142.2,217.4,142.5z"/>
<path class="st5" d="M152.6,59.8c-2.3,2.1-7.7,4.8-10.3,5.2c-5,0.7-6.8-0.7-10.9-0.6c-2.7,0.1-5.2,1.5-6.3,1.8l-0.2-9.6
	c3.5-1.2,6.8-2.2,12,0.9C142.7,60.8,146.3,59.8,152.6,59.8z"/>
<path class="st3" d="M118.8,196.8c0,0-1.3-10.3-0.8-13.4c0.9-5.5,9.6-6.4,9.4,1.3c-0.2,7-0.6,12.6-0.6,12.6L118.8,196.8z"/>
<path class="st3" d="M109.6,275.9c0,0-0.1-14.8,0.2-23.5c0.4-12.3,22-14.7,22.7-0.5c0.8,18.2-1.2,23.9-1.2,23.9H109.6z"/>
<path class="st6" d="M121.9,275.5l-0.4-18.2l-11.8-0.3"/>
<path class="st6" d="M121.1,241.5l0.4,15.8l11.6-0.3"/>
<path class="st4" d="M117.3,199.2c1.5,0.9,10,0.6,11,0.2c0.9-0.4,1.1-3.4-0.2-3.6s-10.6-0.6-11.1,0
	C116.3,196.4,116.3,198.7,117.3,199.2z"/>
<path class="st4" d="M107.7,280c1.1,0.9,26.6,0.2,27.9,0c0.7-1.6,1.3-15.5,0.4-16c-0.9-0.6-6-0.8-6,0.4s0.8,5.5,0,5.7
	c-0.8,0.2-4.5,0.4-5.3,0c-0.8-0.4,0-6-0.8-6c-0.8,0-5.9-0.4-5.9,0.4s0.8,5.7,0.2,5.7s-5.3,0.8-5.3,0c0-0.8,0-5.7-0.8-5.7
	c-0.8,0-4.9-0.4-4.9,0.6C107.3,265.9,107.3,278.4,107.7,280z"/>
<path class="st7" d="M174.6,323.7c0,0-3.7,9.6-0.7,9.9c3,0.4,20.7,0.4,29.5-0.1c8.8-0.6,19.1-2.2,19.5-2.6c0.4-0.4-0.2-8.9-1.2-9.5
	C220.8,320.9,174.6,323.7,174.6,323.7z"/>
<path class="st7" d="M182.4,252.9c0,0,0.4,9.1,1.3,9.1c1,0,7.2-1.8,16.7-1.6c7,0.2,13.9,1.8,14.6,1.7c0.7-0.1,1.7-9.1,1.2-9.7
	c-0.5-0.6-16.4-2.3-16.4-2.3L182.4,252.9z"/>
<path class="st7" d="M71.1,323.7c0,0,3.7,9.6,0.7,9.9c-3,0.4-20.7,0.4-29.5-0.1c-8.8-0.6-19.1-2.2-19.5-2.6
	c-0.4-0.4,0.2-8.9,1.2-9.5C24.9,320.9,71.1,323.7,71.1,323.7z"/>
<path class="st7" d="M34.2,247.7c0,0-0.5,9.5,0.1,10.4c2.5,0.1,7.2-1.2,16.4-0.8c9.4,0.4,14.5,2.9,14.5,2.1c0-0.8,1.3-9.2,0-9.4
	C63.9,249.9,35.3,247.3,34.2,247.7z"/>
<path class="st7" d="M90.8,231c-0.1,0.9,0.3,8.3,0.8,8.5c0.5,0.1,17-2.4,31.5-2.2c14.1,0.1,22.8,1.1,32,2.7c0-0.6,0.3-9.8-0.9-10.6
	c-1.1-0.8-41-1.7-41-1.7L90.8,231z"/>
<path class="st4" d="M171.6,326.1c0,0,16.9,1.8,29.8,1c12.9-0.8,22.3-2.2,22.7-2.4c0.4-0.2,1.7-14.6,0.9-14.7
	c-0.8-0.2-7.2-0.5-7.5-0.1c-0.4,0.3,0.2,8.3-0.4,8.3c-0.6,0-6.3,0.9-7.1,0.9c-0.8,0,1.2-8.3-0.3-8.6c-1.6-0.3-9,0.3-9.2,0.8
	c-0.2,0.5,0.8,8.2,0,8.2c-0.9,0-7.4,0.6-7.9,0.4c-0.4-0.2-0.2-8.9-0.8-9c-0.7-0.1-7.8-0.7-8,0.2c-0.3,0.9-0.3,8.3-0.8,8.3
	c-0.5,0-6.2-0.4-6.6-0.5c-0.4-0.2,1.3-8.7,0.8-8.9c-0.5-0.2-6.2-1.6-6.5-0.9s-3.5,13.3-2.9,14.2C168,324.1,171.6,326.1,171.6,326.1z
	"/>
<path class="st4" d="M74.2,326.1c0,0-16.9,1.8-29.8,1c-12.9-0.8-22.3-2.2-22.7-2.4c-0.3-0.2,0.6-14.6,1.4-14.7
	c0.8-0.2,6.4,0.3,6.8,0.6c0.3,0.3-0.9,7.6-0.3,7.6c0.6,0,5.6,0.9,6.3,0.9c0.8,0,0.3-8.3,1.9-8.6c1.6-0.3,8.2,0.3,8.4,0.8
	c0.2,0.5-0.9,8.2,0,8.2c0.9,0,6.7,0.6,7.1,0.4c0.4-0.2,0.2-8.9,0.8-9c0.7-0.1,7.8-0.7,8,0.2c0.3,0.9,0.3,8.3,0.8,8.3
	c0.5,0,6.2-0.4,6.6-0.5c0.4-0.2-1.3-8.7-0.8-8.9c0.5-0.2,6.2-1.6,6.5-0.9c0.3,0.7,3.5,13.3,2.9,14.2
	C77.7,324.1,74.2,326.1,74.2,326.1z"/>
<path class="st4" d="M179.6,245.7c-0.1,0.6,2.3,10.6,2.8,10.6c0.5,0,8.8-2.9,18.2-2.9c9.3,0,15.8,2.5,16.4,2.5
	c0.6,0,3.4-10.9,2.8-11.3c-0.6-0.4-5-1.6-5.5-1.6c-0.5,0-0.9,6-1.3,6c-0.5,0-2.3-0.6-2.9-0.7c-0.6-0.1,0.7-6.3,0-6.4
	c-0.7-0.1-5.8-0.7-5.9-0.4s0,5.8-0.5,5.8c-0.5,0-3.4,0.1-4,0c-0.6-0.1-0.4-6.1-0.7-6.1c-0.4,0-5.9,0.5-6.3,0.7
	c-0.4,0.2,0.9,5.9,0.4,5.9c-0.5,0-4.2,1-4.7,0.9c-0.5-0.1-1.5-5.9-1.8-5.9C186,242.8,179.9,244.1,179.6,245.7z"/>
<path class="st4" d="M31.1,240.4c-0.3,1.6,1.9,11.3,2,12.1c0.1,0.8,6.2-1.7,16.8-1.3c10.7,0.4,16.4,2.8,16.9,2.9
	c0.4,0.1,2.6-11.2,2.8-12.4c0.2-1.2-5.1-2.1-5.2-1.5c-0.2,0.5-0.8,6.3-0.8,6.3s-3.3-0.3-4.3-0.5c-0.1-1,0.9-5.1,0.8-6
	c-0.6-0.7-5.9-0.6-6.1-0.2c-0.2,0.4-0.6,5.2-0.6,5.7c-1.1,0.2-3.4,0.1-5,0c-0.3-0.7,0.5-6.2,0-6.4c-0.5-0.2-5.5-0.4-5.8,0.1
	c-0.3,0.5,0.3,6.3-0.1,6.3c-0.3,0-3.5,0.7-3.9,0.7c-0.3,0-0.9-6.2-0.8-6.6C36.2,239.3,31.9,239.9,31.1,240.4z"/>
<path class="st4" d="M88.3,218.7c-0.1,0.7,0.8,13.9,1.7,14.1c0.9,0.2,17.1-2.8,33.5-2.5c18.5,0.3,31,2.5,31.7,2.5
	c0.7,0,3.2-13.4,2.3-14.1c-0.9-0.7-6.5-2.1-6.6-1.6c-0.1,0.5-0.7,7-1,7c-0.4,0-5-0.1-5.6-0.3c-0.6-0.2,0.2-8.2-0.3-8.3
	c-0.5-0.1-7.4-0.3-7.8-0.2c-0.5,0.1,0,7.6-0.5,7.7c-0.5,0.1-6.7-0.6-7-0.5c-0.3,0.1,0.3-7.9-0.6-7.9c-0.8,0-6.6,0.4-7.2,0.4
	c-0.6,0,0,7.8-0.7,7.8c-0.7,0-7.3,0.3-7.8-0.1c-0.6-0.4-0.2-7.4-0.6-7.6c-0.4-0.3-8.3,0.1-8.8,0.4c-0.5,0.3,0.4,7.5-0.1,7.6
	c-0.5,0.1-6.3,0.7-6.7,0.7s-0.1-7.3-1.1-7.2C94.2,216.7,88.4,217.8,88.3,218.7z"/>
<path class="st4" d="M80.1,299.5c1,0.9,11,0.7,11.4,0.2c0.4-0.5,0-11.4,0.6-11.8c0.6-0.4,12.7-1.1,13.4-0.6c0.7,0.5-0.1,11,0.5,11.4
	s10,1.2,10.2,0.6c0.2-0.5-0.6-11,0-11.3c0.6-0.3,10-0.7,10.8-0.3c0.8,0.4,0.5,12.1,1.1,12.2c0.6,0.1,9.2,0.6,9.6,0
	c0.4-0.6,0-10.7,0.6-10.7c0.6,0,12.7-0.9,12.7-0.1c0,0.8-0.4,10.8,0,11.1c0.4,0.3,10.8-0.1,11.8,0c1,0.1,1.4-9.6,1.9-10.4
	c0.5-0.8,12.8-1.1,13.6-0.1c0.8,1,6.7,93.9,8.5,111.2c-32.9,3.6-106.3,3.6-133.6,0.1c1.8-12.8,13-100.8,13.4-102.7
	c0.4-1.9,1.3-10.6,2.1-11c0.8-0.4,10.4,0.2,11.1,0.8C80.7,288.9,79,298.4,80.1,299.5z"/>
<path class="st3" d="M72.6,352c0-1.3,0.1-15.7,3.3-18.6c3.1-3,7.4-0.9,7.4,6c0,6.8-1.2,13.2-1.2,13.2L72.6,352z"/>
<path class="st3" d="M159.8,354.9c-0.1-0.9-1.3-14.9,0.3-18.8c1.6-3.8,7-3.2,8.3-0.5c2.3,4.9,2.3,17.3,2.3,18.4
	C170.7,355.2,159.8,354.9,159.8,354.9z"/>
<path class="st8" d="M92.9,373.6c-0.4,6.2-1.6,23.2-1.9,30.4c13.3,0.2,55,0.2,55.2,0.2c0.3-9.6-0.6-29.4-0.6-36.3
	c0-13.4-4.5-28.3-25.5-29.3C96.6,337.7,93.5,364.6,92.9,373.6z"/>
<path class="st9" d="M129.4,403.1l1.3-61.3"/>
<path class="st9" d="M110.6,341.8l-2.8,60.9"/>
<path class="st9" d="M98.4,402.6l2-48.8"/>
<path class="st9" d="M138.8,346.9l-0.3,56.3"/>
<path class="st10" d="M92.2,384.5c12.3,0.9,42.5,0.9,53.8,1.5c0.1-3.6,0.1-7,0.2-10c-12.5-0.7-42.2-0.5-53.4-1
	C92.4,377.5,92.5,381,92.2,384.5z"/>
<path class="st7" d="M70.5,353.4c1.8,0.3,12,1.1,12.6,1.1c0.6,0,0.9-4.1,0.1-4.3c-0.7-0.1-12.2-1.2-12.4-0.8
	C70.7,350,69.6,353.3,70.5,353.4z"/>
<path class="st7" d="M159.7,357.2c1.3,0.4,11,0.3,11.9-0.1c1-0.4,1.6-4.3-0.4-4.3c-2,0-12.2-0.6-12.7,0.6
	C158.1,354.5,158.4,356.8,159.7,357.2z"/>
<path d="M145.5,365.4c-2.4-0.1-5.4-0.2-5.4-0.2s0.7-1.4,0.2-2.7c-0.5-1.3-2.4-0.6-2.8,0.3c-0.5,1-1.5,1.9-2.4,1.9
	c-0.9,0.1-0.8,0.3-0.5,0.4c0.4,0.1,1.9,1.1,2.3,2.4c0.4,1.3,0.6,3.2,2.1,2.6c1.5-0.7,0.9-2.6,0.9-2.6l5.6,0.7
	C145.5,367.4,145.6,366.3,145.5,365.4z"/>
<path d="M99.6,366c0,0-0.9,1.8,0.5,2.6c1.4,0.8,2.1-0.9,2.6-2.2c0.5-1.2,1.5-2,1.9-2.2c0.6-0.2,0.4-0.2-0.3-0.6
	c-0.8-0.4-1.5-1.2-2-2.2c-0.5-0.9-2.2-1.8-2.8-0.6c-0.6,1.2,0.5,2.7,0.5,2.7s-4.1-0.1-5.8-0.1c-0.3,0.8-0.4,1.7-0.4,2.4L99.6,366z"
	/>
<path d="M138.1,340.4c-2.4-0.1-5.4-0.2-5.4-0.2s0.7-1.4,0.2-2.7c-0.5-1.3-2.4-0.6-2.8,0.3c-0.5,1-1.5,2.2-2.4,2.2
	c-0.9,0.1-0.8,0.3-0.5,0.4c0.4,0.1,1.9,0.8,2.3,2.1c0.4,1.3,0.6,3.2,2.1,2.6c1.5-0.7,0.9-2.6,0.9-2.6l5.6,0.7
	C138.1,342.4,138.2,341.3,138.1,340.4z"/>
<path d="M89.1,341c0,0-0.9,1.8,0.5,2.6c1.4,0.8,2.1-0.9,2.6-2.2c0.5-1.2,1.5-1.7,1.9-1.9c0.6-0.2,0.4-0.2-0.3-0.6
	c-0.8-0.4-1.5-1.5-2-2.5c-0.5-0.9-2.2-1.8-2.8-0.6c-0.6,1.2,0.5,2.7,0.5,2.7s-4.2-0.1-5.9-0.1c-0.1,0.9-0.2,1.8-0.2,2.5L89.1,341z"
	/>
<path class="st11" d="M118.4,403.7l2.2-62.8"/>
<path class="st12" d="M987,477.4c-37-294.4,32.3-326-213.7-336.1S43.4,297.7,10,478.4h977"/>
<path class="st13" d="M0,477.4c23.1-55-72.6-148.8,193.8-188s747,82.7,780.2,188H0L0,477.4z"/>
<path class="st14" d="M594.8,367c1.7,0.1-0.9-0.6,1.1-0.1C595.6,367.2,595.3,367.3,594.8,367z"/>
<path class="st14" d="M566.3,352.5c2.6-1.3,5.8,0,8.8-1.2c1.4-1.6-4.7-2.7-6.7-2.9c-0.7-0.1,0.3-0.7-1.2-0.8
	c-5.8-0.2-14.5-1.6-21.4-2.4l0.4-0.2c-1.3-0.2-2.9,0.5-4.3,0.4c0-0.1,0.4-0.2,0.1-0.4c-0.3,0.4-2.5,0.2-3.1,0.5
	c-0.6-0.1-0.5-0.5-1.2-0.6l-0.8,0.5c-2.2,1.2-5.4,0.2-8.4,1c0.1-0.1,0.4-0.2,0.2-0.3c-4.8,1.1-10.8,1.7-16,3.2
	c0.2-0.2,0.3-0.6-0.1-0.7c-0.1,0.6-1.7,1.1-3.1,1.6c-0.8-0.2-2.2,1.2-3.8,1.6l0.1-0.2c-1,1-1.4,0.6-2.7,1.5l-0.8-0.3
	c0,0.1-0.4,0.4,0,0.2c0.2-0.6-0.4-1.1,0-0.6c0.4,0.3,0.9,0.5,1.5,0.4l0-0.1c1,0,1.4,0.4,2.3,0.4l0.1,0.1c2.1,0,3.3,0.6,3.3,0
	c0.7,0.5-2.1,0-1,0.8c7.1,0.1,14.2,0.6,21.3,1c0.8,0.3,1.3,0.4,1.5,0.6c0.7-0.1,2.7,0,3.3-0.2c-0.2,0,0.4,0.3,0.8,0.4
	c1.3,0.3,1.4-0.5,2.8-0.2c-0.6,0.1-0.8,0.3-0.6,0.5c1.2-0.4,2.8-0.2,4.3-0.3c-0.2,0.1-0.6,0.1-0.5,0.3c1.6-0.4,2.8,0.3,4.2,0
	l-0.5,0.3c2.2,0.5,0.7-0.6,2.6-0.3c-0.5,0.1-0.3,0.2-0.4,0.3c1.8-0.5,4.7-0.1,6.4-0.3c-0.1,0-0.1,0.1-0.1,0.1c1.9,0,3.9,0.3,6.1,0.2
	c0.8,0.2-0.3,0.8,1.7,0.8c0-0.7,3.5,0,2.3-0.9c1.7,0.3,4.4,0.7,5.6,0.6c-0.8,0.2,0.8,0.9-0.7,0.8l1.1,0.5c-0.2,0.3-1.1-0.2-0.8,0.2
	c0.7,0,2.9-0.1,3.5,0.1c1.4-0.3,2.6-1,4.8-0.9c-1,0.2,0.5,0.7-0.2,0.8l3.1-1.1c0.7,0,0.1,0.5,1.2,0.4c0-0.2,0.4-0.3,0.7-0.4
	c0.3,0.1,3,0,3.3,0.6c0.3,0.3-1.2,0.1-0.4,0.3c1.3,0,1.4-0.2,2.7-0.2l0,0.1c0.9,0.1,2.6-0.2,1.6-0.6c-0.6,0,0.2,0.4-0.7,0.2
	c0.6-0.4,2.2-0.4,3.5-0.5c-0.4,0.1-0.4,0.3-0.6,0.5c1.8-0.5,3.6-0.7,5.6-1c0-0.3-0.7,0.6-1,0.4c2.2,0.7,5.9-2,5.5-0.1
	c0.1-0.1-0.5-0.1-0.3,0c0.1,0.9,0.3-0.2-0.4-0.2c0.1-0.3-0.7-0.4-1.4-0.5c-0.4,0-0.1-0.2,0.5,0c-0.9-0.2-5.4-0.9-8-1.6
	c0,0.2-1.7,0.3-2.3,0.2l0.3-0.4c-0.5-0.3-2-0.3-2.1-0.6c-1.4,0.3,5,0.4,3.2,0.5c-0.4-0.4-2.5,0.2-2.1-0.3c-1.2-0.2-2.5,0.1-3.6-0.5
	c0.3,0.1,1.1-0.4,0.1-0.5c-1.7-0.2-0.5,0.1-1.9,0l-0.9,0c-0.1,0.4-1.5-0.3-1,0.3c-0.2-0.3-2.6-0.2-2.3-0.8l0.3-0.5
	c-0.8-0.1-1.3,0.4-1.9,0.5c-0.1-0.1-0.3-0.2-0.2-0.3c-0.2,0.8-1.8-0.3-2.8,0.2c-1.5-0.5-4-0.5-4.7-1.1c-1.2,0.1-2.4,0.2-3.7-0.1
	c0.3,0,0.7,0,0.8-0.2c-0.8-0.3-1.1-0.2-1.9-0.1c0.2-0.1-1.7-0.7-2.6-1.1c-1.2,0.1-0.9,0.6-1,0.8c-1-0.9-3.5,0.1-4.8-0.8
	c0.4-0.1,1.8-0.2,0.8-0.5c-1-0.9-2.3,0.3-4-0.3l0.4,0.7c-0.7-0.5-2.7,0.1-2.4-0.6c-0.6,0.2-2.1-0.5-2,0.2c-2.9-0.9-7.2-0.5-8.8-1.9
	c-0.4,0-1.5-0.2-1.3,0.2c0.7,0.4,1-0.1,1.2,0.1c-0.4,0-0.5,0.1-0.5,0.2c-0.9-0.3-1.6-0.4-0.7-0.8c-2-0.6-2.2,0.8-4.7,0.3
	c0.1-0.2,0-0.4-0.8-0.4l-1.5,0.3c-1.6-0.3-0.9-0.7-0.9-1.1c-0.9,0-2-0.1-2.4,0.1l-1-0.6c0.7,0.5-0.8,0.2-1.2,0.3l0.4-0.1
	c-0.1-0.2-1.2-0.2-1.7-0.2c0.1,0.3,1.1,0.5,1.7,0.6c-0.5,0.1-1.2,0-1.8,0.2c0.2-0.4-1.4-0.4-2.1-0.6c-0.8-0.2-1,0.3-1.2,0.3
	c0-0.2-1.3-0.1-0.7-0.4c0.3,0,0.6,0.3,1.1,0.1c-0.5-0.2-0.4-0.6-1.6-0.4c-0.9,0.1,0.1,0.9-1.4,0.5c0.4-0.1,0.5-0.2,0.9-0.4l-1.5-0.3
	l-0.1,0.4c-0.2-0.1,0-0.1-0.1-0.2c-0.5,0.4-2.3,0-2.6,0.4c-0.7,0-1.6-0.4-2.3-0.5l0.1,0c-0.9-0.3-2-0.2-2.8,0l0-0.1
	c-0.5-0.1-1.6-0.1-2.2,0.1c-1.2-0.4-0.3-1.5-1.7-1.1c-1.2-0.1-1.9,0.6-1.5,0.9c-2.2-0.3-4.7,0.2-6.7-0.4c-0.3,0.1-0.1,0.3-0.8,0.3
	c-3.2-0.1-6.8,0.4-9.4-0.2c0.9-0.2,0-0.4,0-0.6c-0.8,0.4-0.9-0.3-1.2,0.3c0.1,0.3,0,0.5,0.9,0.6c-1.9,0.3-4.8,0.4-5.9,0.2
	c0.5,0.1,0.1,0.3-0.3,0.4c0.1-0.6-1.3-0.5-2.3-0.2l-0.1,0.4l-0.7-0.3c-0.4,0.2-0.4,0.8-1.4,0.6c-0.1-0.1-0.2-0.3-0.3-0.3
	c-1,0.4-2.6,1-3.5,1c-0.1-0.2-0.7,0-0.2-0.5c1.1-4.5-1.3-3.2,0.6-2.9c-1-0.6,2.1,0.6,2.1,0.8c3.6-0.5,8.7,0,12.8,0.4l-0.1,0.2
	c1.1,0.3,0.6-0.4,1.4-0.1c-0.4,0.2,0.8,0.6-0.1,0.8c1.6,0.4,2.1-0.3,3.1-0.3c0.2-0.3-0.9,0.1-0.6-0.3c0.2-0.1,2.2,0.5,2.5,0
	c0.4,0.2,0,0.6-0.2,0.8l1-0.2c1.1,0.7-2.8,0.8-1.6,1.7h0.9c0.8,0.6-2.4,0.4-0.2,0.8c1-0.2,1.9-0.8,1-1.1c2,0,1-1.1,3.2-0.9
	c0.6,0.3-1.8-0.1-1.4,0.4c1,0.5,2.1,0,3,0.2c-1-0.3-0.1-0.7,0.6-0.7c1.1,0.3-0.8,0.4,0.8,0.6c0.3-0.3,1.8-0.3,0.5-0.7
	c0.6-0.6,1.6,0.3,2.5-0.1c0.5,0.5-1.7,0.9,0,1.3c-0.2-0.5,2.2-0.4,1.3-1.2c0.7,0.2,0.7,0.6,0.2,0.8c0.9,0.4,2.4-0.6,2.7,0.3l0.4-0.4
	c0.3,0.2,0.7,0.3,1.2,0.6c0.9,0.1,2.8-0.3,2.7,0.3c0.3,0,2.2,0.2,1.5-0.3c-1.2-0.4-1.4,0.2-2-0.5c0.8,0.6,1.8,0.1,2.5,0l0.1,0.3
	c0.4-0.1,1.4,0.1,1.7-0.1c-0.3,0.1-0.2,0.3,0.1,0.4l0.5-0.3c1.7,0,0.3,0.8,2,0.9l-1.3,0.1c0.3,0,0.8,0.4,1.6,0.4
	c0.4-0.3,1-0.7,1.3-0.9c1,0,0.3,0.5,1.4,0.3l-1.3,0.3c-0.2,0.1,0.7,0.7,2,0.9c0.7,0,2.1-0.3,0.9-0.7c0.6,0.1,1.5,0.5,0.9,0.7
	c1.5,0.1-0.1-0.4,1.2-0.4c0.5,0.3,1.9,1,2.8,1.5l-1.4,0.4l0.8,0.2c-1.2,0.3,0.5,0.5-0.2,0.9c0.6,0.2,1.3,0.2,1.9,0.1
	c-1.5-1.2,2.1-0.8,1.8-1.6c2.3,0.3,1,2.1,3.7,1.5c-0.3-0.3,0.9-0.6-0.6-0.7c1.4,0.4,1.1-0.6,2.7,0.1c-1.3,0,1.2,1.1-0.7,1.1
	c0.2-0.2-1-0.4-1.2-0.4c0.5,0.4-0.3,0.7,1.2,1c0.9,0.1,2.1,0.4,2-0.1c0.1-0.4-1.4-0.3-0.7-0.6c1.8,0.2,1.9,1,2.8,0.3
	c-1.1-0.2-1.3-0.7-1.2-1l1.3,0.1l-0.3,0.2c2,0.7,0.7-0.4,2.7,0.1l0.8,0.8c-0.6,0.4-2.9-0.9-2.7,0c1.3,0.3,1.8,0,3,0.5l-1,0
	c0.5,0.1,0.7,1.3,2.7,1.1c1,0,0.3-0.2,0.4-0.5c2.1,0.4,2.8,0.2,4.2,0.5c-0.4,0.5,2.4,0.6,0.7,0.9c-0.6-0.5-3.6-1.1-4.5-0.8
	c0.6,0.9-1.6-0.5-2.2,0.1c1.7,0.4,1.4,1,1.6,1.6c0.5,0.1,1,0,1.2,0c0.3-0.4-0.3-0.5-0.3-0.9c1.8,0.5,3.7,0.7,4.8,0.5
	c0.6,0.3,0.3,0.7-0.5,0.6c2.2,0.4,4.6,1,6.7,1.6c-1.2-1,2.4,0.4,1.6-0.4c-1.1-0.4-1.9-1.1-1.3-1.3c0.7,0.2-0.1,0.3,0.2,0.5
	c1-0.2,1.3,0.9,2.3,0.5c-2.1-0.2-0.6,0.7-1.1,1.2c1.5,0-0.1,0.4,1.3,0.7c1.5,0,3.4,0.2,5,0.4c1.9,1,5.2,1.1,7,1.5
	c0.9,0.5,0.1,1,1.1,1.3c1.2,0.2-0.8-0.8,1-0.2l-0.2,0.1c0.6,0,3.2,1.1,3.9,0.3L580,363c0.3,0.1,0.7,0,1,0c0,0.2,0.3,0.5-0.3,0.5
	c1,0.7,2.3,0.4,3.6,0.6l-0.7-0.5c2.1,0.1,3.4,0.7,5.5,1l-0.1,0.4l1.2,0c-0.3,0.3,0.7,0.7,1.4,0.5l-3.3,0.4c-0.8-0.4,1-0.3,0.5-0.8
	c-0.4-0.4-2.3-0.6-2.6-0.3c0.7,0.2,0.8,0.1,1.3,0c0.1,0.6-0.9,0.4-1.5,0.6c0.4,0,0.9,0.3,1,0.1c-0.8,0.1-1.5,0-2.8-0.2
	c0.9,0-0.4-0.4,0-0.5c-0.2,0.4-1.4,0.4-2.9-0.1c-1-0.7-2.9-0.2-4.6-0.7c0.8-0.3,1.8-0.5,2.9-0.5c-1-0.5-1.2-0.2-2.3-0.7
	c-0.6,0.2-1.1,0.7-2.6,0.6v-0.4c-1.3-0.1-1.4,0.4-3.1,0c-2.8-0.8-5.7-1.4-7.8-1.9v-0.4c-1.4,0.5-4-0.6-5.7-0.6c-2.6-1-6-1-7.3-1.9
	c-4.9-0.8-9.1-1.5-14.1-2.7l1-0.3c-1,0.2-0.5-0.4-1.4-0.5c0.9,0.6-1.3,0.3-2,0.4c-2.1-0.9-5.1-1-7.1-1l0-0.4
	c-2.1,0.3-4.4-0.7-6.8-1.2c-0.3-0.2-0.7-0.6-1.4-0.6c-1.4,0.4-2.1,0.3-4.2,0.4c-1.5-0.2-3.8-0.6-5.3-0.9c-5.6,0.3-11.2-0.8-17-0.8
	l-0.4-0.5c-5.7,0.3-12.4-1-17.4-1.5l0.6-0.6c-1.2-0.3-4-0.9-4.3-0.8c-0.2-0.3-0.7-0.2-0.9-2.2c0.4-1.9,0.7-1.6,1.1-2
	c1-0.7,1-0.5,1.4-0.7c0.7-0.2,1.1-0.3,1.6-0.5c0.9-0.2,1.8-0.3,2.3-0.1c1.6,0,1.9-0.5,3.2-0.8c3.2-0.1,4.3-0.2,7.2-0.5l-0.7,0
	c-0.3,0.2-0.3,0.5,0.4,0.5c1.1-0.3,4,0,2.9-0.8c3.1,0.4,7.3-0.5,10.3,0.2c-0.3-0.2,0.5-0.3,0.8-0.4c2.7,0.1,5.6,0.6,7.8,0.3
	c0.4,0.1-0.7,0.4,0.4,0.4c0.7,0,0-0.3,0.8-0.4c4.5-0.2,8.9,1,12.9,1.2c7.1,0.2,14.6,1.2,21.3,2l-0.1,0.2c2.3-0.4,5.2,1.3,7.1,0.5
	c0.5,0.2,2,0.3,1.6,0.6c1.9-0.3,5,1,7.7,0.8c-0.2,0-0.4,0-0.7,0c2.6,0.7,5,0.5,7.7,1.2c-0.3,0-0.8,0-0.9,0.2c1,0.5,2.6-0.4,3.1,0.5
	c0.6,0.1,0.5-0.3,0.1-0.4c6,1.1,12.6,1.4,19,2.3c4.5,1.3,0,1.4,3.7,1.4c0.3,0.2,0.3-0.3,0.3-0.1c1.4,0,2,1.3,3,1.1
	c-0.3-0.6,0.7-0.1,0.8-0.4c2.8,1,3.1,1.4,5.8,2.2l-0.3,0.1c0.9,0.5,1.3,0.1,2.6,1.6c2,1.4-1.1,5.3-1.6,4.6c-1.9,0.8-3.1,0.9-4.3,1.5
	c-14.8,1.1-28.5-0.2-42.2-0.8c-13.7-0.9-27.1-1.2-41.1-2.6c-3.2-1-3.5-0.9-7.1-1c0.2-0.1,0.4-0.1,0.2-0.2c-0.2,0.6-2.6-0.2-3,0.3
	c-1.4-0.2-2.5-0.3-4.2-0.7c-0.3-0.1-0.8-0.3-1.1-0.4c0.6,0.5-2.4-1.3-2-3.6c0.2-1.5,0.7-1.8,1.5-2.5c2-1,1.7-0.6,2.3-0.8
	c-0.2,0.1,2.1-0.5-0.2,0.2l1-0.5c2.6-1.4,5.2-2.2,7.9-2.9c-0.8,0.3-1.1,0.8-0.1,0.5l1-0.6l0.2,0.1c0.7-0.3,1.4-0.7,0.6-0.7
	c13.6-3.4,27-2.7,40.3-2.2c3.1,0.4,7.7,0.6,11.1,1c2.5,0.5,5,1.3,7.4,2.1c1.2,0.5,2.4,0.8,3.6,1.4l1.8,0.9l0.4,0.2l0.2,0.1l0.1,0
	l0,0h0c0.2,8.6,0,2.4,0.1,4.3l0,0l-0.1,0l-1.1,0.5c-7.3,0.9-8.3,0.8-16.4,0.7C560.2,354.4,562.6,353.2,566.3,352.5z"/>
<path class="st14" d="M592.8,366.9c-0.3-0.3-1.4-0.7-0.5-0.9C592.4,366.2,592.9,366.6,592.8,366.9z"/>
<path class="st14" d="M563,357.9c-0.1,0.1-0.4-0.2-0.5-0.3c0.4,0.1,0.8-0.1,1,0.1C563.1,357.6,563.2,357.8,563,357.9z"/>
<path class="st14" d="M555.3,355.9c0.2-0.2,1.9,0,2.9,0.1L555.3,355.9z"/>
<path class="st14" d="M548.3,353.3c-0.6-0.3-0.4-0.4,0.5-0.2C548.8,353.2,548.5,353.2,548.3,353.3z"/>
<path class="st14" d="M547.7,353.7c-0.6-0.1-0.9-0.3-1.1-0.6C546.5,353.4,548,353.4,547.7,353.7z"/>
<path class="st14" d="M532.1,349.6c-0.4-0.1-1.3,0-1.6-0.4C530.9,349.5,532.5,349.3,532.1,349.6z"/>
<path class="st14" d="M524.7,348.6c-0.2-0.1-0.3-0.1-0.6-0.1c-0.4-0.2,0.1-0.3,0.5-0.3L524.7,348.6z"/>
<path class="st14" d="M555.4,349.7l-0.8,0l0.1-0.2L555.4,349.7z"/>
<path class="st14" d="M592.9,356.6c-0.8,0.2-0.6-0.2-0.7-0.3C592.9,356.3,592,356.7,592.9,356.6z"/>
<path class="st14" d="M561,356.3l0.2,0l-0.1,0.5L561,356.3z"/>
<path class="st14" d="M688.3,369.6c-1.7-0.1,0.8,0.6-1.1,0.1C687.4,369.5,687.8,369.4,688.3,369.6z"/>
<path class="st14" d="M716.8,384.1c-2.6,1.3-5.7,0-8.7,1.2c-2.9,0.5,1.3,1.6,2,2c1.5,0.4,3,0.9,4.4,0.9c0.7,0.1-0.3,0.7,1.2,0.8
	c5.7,0.2,14.4,1.6,21.3,2.5l-0.4,0.2c1.3,0.2,2.9-0.5,4.3-0.4c0,0.1-0.4,0.2-0.1,0.4c0.3-0.4,2.5-0.2,3.1-0.5
	c0.6,0.2,0.5,0.5,1.2,0.6l0.8-0.5c2.2-1.2,5.4-0.2,8.3-1c-0.1,0.1-0.4,0.2-0.2,0.3c4.7-1.1,10.7-1.7,15.9-3.1
	c-0.2,0.2-0.3,0.6,0,0.7c0.2-0.6,1.7-1.1,3.1-1.5c0.8,0.3,2.2-1.2,3.8-1.5l-0.1,0.2c0.9-1,1.8-0.5,2.4-1.5h0.2c0.2,2.7,0,0.6,0,1.2
	l-0.3-0.3c-0.8,0.5-1.5-1-2.6-0.9v0.1c-1-0.1-1.4-0.6-2.3-0.6l-0.1-0.1c-2.1-0.2-3.2-0.8-3.3-0.3c-0.7-0.6,2,0.2,1-0.7
	c-7-0.6-14.1-1.1-21.1-1.5c-0.8-0.3-1.3-0.3-1.5-0.6c-0.7,0.1-2.6,0-3.3,0.3c0.2,0-0.4-0.3-0.8-0.3c-1.3-0.3-1.4,0.6-2.8,0.3
	c0.6-0.1,0.8-0.3,0.6-0.5c-1.2,0.4-2.8,0.3-4.2,0.4c0.2-0.1,0.6-0.1,0.5-0.3c-1.6,0.5-2.8-0.2-4.2,0.1l0.5-0.3
	c-2.2-0.4-0.6,0.7-2.5,0.4c0.5-0.1,0.3-0.2,0.4-0.3c-1.8,0.5-4.6,0.3-6.4,0.4c0.1,0,0.1-0.1,0.1-0.1c-1.9,0-3.9-0.2-6-0.1
	c-0.8-0.2,0.3-0.7-1.7-0.8c0,0.6-3.4,0-2.3,0.8c-1.7-0.3-4.4-0.7-5.6-0.6c0.8-0.2-0.8-0.9,0.7-0.8l-1.1-0.5c0.2-0.3,1.1,0.2,0.8-0.2
	c-0.7,0-2.8,0.1-3.5,0c-1.4,0.3-2.6,1-4.8,1c1-0.2-0.5-0.7,0.2-0.8l-3.1,1.1c-0.7,0-0.1-0.5-1.2-0.4c0,0.2-0.4,0.3-0.7,0.4
	c-0.3-0.1-3,0.1-3.3-0.6c-0.3-0.3,1.2-0.1,0.4-0.4c-1.3,0-1.4,0.2-2.7,0.2l0-0.1c-0.9-0.1-2.6,0.3-1.6,0.6c0.6,0-0.2-0.4,0.7-0.2
	c-0.6,0.4-2.1,0.5-3.4,0.5c0.4-0.1,0.4-0.3,0.6-0.5c-1.7,0.6-3.6,0.8-5.4,1.2c0,0.3,0.6-0.6,1-0.5c-1.2-0.1-2.6,0.2-3.2,0.7
	c0.2-0.2-0.1-1.7,0.8-0.3c-0.3-0.1,0.1-0.4,0.1-0.4c0.8,0.5,0.7,0.8,1.3,0.9c-0.1,0.3,0.9,0.2,1.7,0.3c0.4-0.1,0.2,0.2-0.5,0
	c1.1,0.1,5.6,0.6,8.1,1.4c0-0.2,1.7-0.3,2.3-0.2l-0.3,0.3c0.5,0.3,2,0.3,2.1,0.6c1.3-0.3-5-0.4-3.2-0.5c0.4,0.4,2.5-0.2,2,0.2
	c1.2,0.2,2.4-0.1,3.5,0.4c-0.3-0.1-1.1,0.4-0.1,0.5c1.7,0.2,0.5-0.1,1.9,0l0.9,0c0.1-0.4,1.5,0.3,1-0.3c0.2,0.3,2.5,0.2,2.3,0.8
	l-0.3,0.5c0.7,0.1,1.3-0.4,1.9-0.5c0.1,0.1,0.3,0.2,0.2,0.3c0.2-0.8,1.8,0.3,2.7-0.2c1.5,0.5,4,0.5,4.6,1.1c1.2-0.1,2.4-0.2,3.7,0.1
	c-0.3,0-0.6,0-0.8,0.2c0.8,0.3,1.1,0.2,1.9,0.1c-0.2,0.1,1.7,0.7,2.6,1c1.2-0.1,0.9-0.6,1-0.8c1,0.9,3.4-0.1,4.7,0.8
	c-0.4,0-1.8,0.2-0.8,0.5c1,0.9,2.3-0.3,4,0.3l-0.4-0.7c0.7,0.5,2.6-0.1,2.4,0.6c0.6-0.2,2.1,0.5,1.9-0.2c2.8,0.9,7.1,0.5,8.7,1.9
	c0.4,0,1.5,0.2,1.3-0.2c-0.6-0.4-1,0.1-1.2-0.1c0.4,0,0.5-0.1,0.5-0.2c0.9,0.3,1.6,0.4,0.7,0.8c1.9,0.6,2.2-0.8,4.7-0.3
	c-0.1,0.2,0,0.4,0.8,0.4l1.5-0.3c1.6,0.3,0.9,0.7,0.9,1.1c0.9,0,2,0.1,2.4-0.1l1,0.6c-0.7-0.5,0.8-0.2,1.2-0.3l-0.4,0.1
	c0.1,0.2,1.2,0.2,1.7,0.2c-0.1-0.3-1.1-0.5-1.7-0.6c0.5-0.1,1.2,0,1.8-0.2c-0.2,0.4,1.4,0.4,2.1,0.5c0.8,0.2,0.9-0.3,1.2-0.3
	c0,0.2,1.3,0.1,0.6,0.4c-0.3,0-0.6-0.3-1.1-0.1c0.5,0.2,0.4,0.6,1.6,0.4c0.8-0.1-0.1-0.9,1.4-0.5c-0.4,0.1-0.5,0.2-0.8,0.4l1.5,0.3
	l0.1-0.4c0.2,0.1,0,0.1,0.1,0.2c0.5-0.4,2.3,0,2.6-0.4c0.7,0,1.6,0.3,2.2,0.4l-0.1,0c0.9,0.3,2,0.2,2.8,0l0,0.1
	c0.5,0.1,1.6,0.1,2.2-0.1c1.2,0.3,0.3,1.5,1.7,1.1c1.2,0,1.9-0.7,1.5-0.9c2.2,0.3,4.7-0.2,6.7,0.4c0.3-0.2,0.1-0.3,0.8-0.3
	c3.2,0.1,6.7-0.4,9.3,0.1c-0.9,0.2,0,0.4,0,0.6c0.7-0.4,0.9,0.3,1.2-0.3c-0.1-0.3,0-0.5-0.9-0.6c1.9-0.3,4.8-0.4,5.8-0.2
	c-0.5-0.1-0.1-0.3,0.3-0.4c-0.1,0.6,1.3,0.5,2.3,0.2l0.1-0.3l0.7,0.3c0.4-0.2,0.3-0.8,1.4-0.6c0.1,0.1,0.2,0.3,0.3,0.3
	c0.7-0.2,3.3-1.6,2.2-0.6c-0.1,0.3-0.2,0.1-0.5,1.5c0.1,1.5,0.7,1.7,0.7,1.7c0.4,0.3,0.6,0.2,0.5,0.1c-0.1,0-1.1,0.1-0.4,0.4
	c-1.5-0.7-2.9-0.9-3.5-1.4c-3.6,0.5-8.7,0.1-12.7-0.4l0.1-0.2c-1.1-0.3-0.6,0.4-1.4,0.1c0.4-0.2-0.8-0.6,0.1-0.8
	c-1.6-0.4-2.1,0.3-3.1,0.3c-0.2,0.3,0.8-0.1,0.6,0.3c-0.2,0.1-2.2-0.5-2.4,0c-0.4-0.2,0-0.6,0.2-0.8l-1,0.2
	c-1.1-0.7,2.8-0.8,1.6-1.7h-0.9c-0.8-0.6,2.4-0.4,0.2-0.8c-1,0.2-1.9,0.8-1,1.1c-2,0-1,1.1-3.2,0.9c-0.6-0.3,1.7,0.1,1.4-0.4
	c-1-0.5-2.1,0-3-0.2c1,0.3,0.1,0.7-0.6,0.7c-1.1-0.3,0.8-0.4-0.8-0.6c-0.3,0.3-1.7,0.3-0.5,0.7c-0.6,0.6-1.6-0.3-2.5,0.1
	c-0.5-0.5,1.7-0.9,0-1.3c0.2,0.5-2.2,0.4-1.3,1.2c-0.7-0.2-0.7-0.6-0.2-0.8c-0.9-0.4-2.4,0.6-2.6-0.3l-0.4,0.4
	c-0.3-0.2-0.7-0.3-1.2-0.6c-0.8-0.1-2.8,0.3-2.6-0.4c-0.3,0-2.2-0.2-1.5,0.3c1.2,0.4,1.4-0.2,2,0.5c-0.8-0.6-1.8-0.1-2.5,0l-0.1-0.3
	c-0.4,0.1-1.4-0.1-1.7,0.1c0.3-0.1,0.2-0.3-0.1-0.4l-0.5,0.3c-1.7,0-0.3-0.8-2-0.9l1.3-0.1c-0.3,0-0.8-0.4-1.6-0.4
	c-0.4,0.3-1,0.7-1.3,0.9c-1,0-0.4-0.5-1.4-0.3l1.3-0.2c0.2-0.1-0.8-0.7-1.9-0.9c-0.8,0-2.1,0.3-0.9,0.7c-0.6-0.1-1.5-0.5-0.9-0.7
	c-1.4-0.1,0.1,0.4-1.2,0.4c-0.5-0.3-1.9-1-2.8-1.5l1.4-0.4l-0.8-0.2c1.2-0.3-0.5-0.5,0.2-0.9c-0.6-0.2-1.3-0.1-1.8-0.1
	c1.5,1.2-2.1,0.7-1.8,1.6c-2.3-0.3-1-2.1-3.6-1.5c0.3,0.3-0.9,0.6,0.6,0.7c-1.4-0.4-1.1,0.6-2.7-0.1c1.3,0-1.1-1,0.7-1.1
	c-0.2,0.2,1,0.4,1.2,0.4c-0.5-0.4,0.3-0.7-1.1-1c-0.9-0.1-2.1-0.4-2,0.1c-0.1,0.4,1.3,0.3,0.7,0.6c-1.8-0.2-1.9-1-2.8-0.3
	c1.1,0.2,1.3,0.7,1.2,1l-1.3-0.1l0.3-0.2c-2-0.7-0.7,0.4-2.7-0.1l-0.8-0.8c0.6-0.4,2.8,0.9,2.7,0c-1.3-0.3-1.8,0-3-0.5l0.9,0
	c-0.5-0.1-0.7-1.3-2.6-1.1c-1,0-0.3,0.2-0.4,0.5c-2.1-0.4-2.8-0.2-4.1-0.5c0.4-0.5-2.3-0.6-0.7-0.9c0.6,0.5,3.6,1.1,4.5,0.7
	c-0.6-0.9,1.6,0.5,2.2-0.1c-1.6-0.4-1.4-1-1.6-1.6c-0.4-0.1-0.9,0-1.2,0c-0.3,0.4,0.3,0.5,0.3,0.9c-1.8-0.5-3.7-0.7-4.8-0.5
	c-0.6-0.3-0.3-0.7,0.5-0.6c-2.2-0.4-4.6-1-6.6-1.6c1.2,1-2.4-0.4-1.6,0.4c1.1,0.4,1.9,1.1,1.3,1.3c-0.7-0.2,0.1-0.3-0.2-0.5
	c-1,0.2-1.3-0.9-2.2-0.5c2.1,0.2,0.6-0.7,1.1-1.2c-1.5,0,0.1-0.4-1.3-0.7c-1.5,0-3.3-0.2-5-0.4c-1.9-1-5.1-1.1-6.9-1.5
	c-0.9-0.5-0.1-0.9-1.1-1.3c-1.2-0.2,0.8,0.8-1,0.2l0.2-0.1c-0.6,0-3.2-1.1-3.9-0.3l0.7-0.5c-0.3-0.1-0.7,0-1,0
	c0-0.2-0.3-0.5,0.3-0.5c-1-0.7-2.3-0.4-3.5-0.6l0.7,0.5c-2.1-0.1-3.4-0.7-5.4-1l0.1-0.4l-1.2,0c0.3-0.3-0.7-0.7-1.4-0.5l3.2-0.4
	c0.8,0.4-1,0.3-0.5,0.8c0.4,0.4,2.2,0.6,2.6,0.3c-0.7-0.2-0.7-0.1-1.3,0c-0.1-0.6,0.9-0.4,1.5-0.6c-0.4,0-0.9-0.3-1-0.1
	c0.8-0.1,1.5,0,2.7,0.2c-0.9,0,0.4,0.4,0,0.5c0.2-0.4,1.4-0.4,2.8,0.1c1,0.7,2.9,0.2,4.6,0.7c-0.8,0.3-1.8,0.5-2.9,0.5
	c1,0.5,1.2,0.2,2.3,0.7c0.6-0.2,1.1-0.7,2.5-0.6v0.4c1.3,0.1,1.4-0.4,3,0c2.8,0.8,5.6,1.4,7.7,1.9v0.4c1.3-0.5,4,0.6,5.7,0.6
	c2.6,1,5.9,1,7.2,1.9c4.8,0.8,9,1.5,14,2.7l-0.9,0.3c1-0.2,0.5,0.4,1.4,0.5c-0.9-0.6,1.3-0.3,2-0.4c2.1,0.9,5,1,7.1,1l0,0.4
	c2.1-0.3,4.3,0.7,6.8,1.2c0.3,0.2,0.7,0.6,1.4,0.6c1.4-0.4,2.1-0.3,4.1-0.4c1.4,0.2,3.8,0.6,5.2,0.9c5.5-0.3,11.1,0.8,16.8,0.8
	l0.4,0.4c5.6-0.4,12.3,1,17.2,1.4l-0.6,0.6c1.4,0.4,3.6,0.6,3.4,0c0.5,0.4,0.7-0.2,2.5,1.7c0.8,4.2-1.3,3.4-1.5,4.1l-1,0.4
	c-1,0.3-1.9,0.4-2.4,0.2c-1.6,0.1-1.9,0.6-3.1,0.8c-3.1,0.1-4.3,0.3-7.2,0.5l0.7,0c0.3-0.2,0.3-0.5-0.4-0.5c-1.1,0.3-4,0-2.9,0.8
	c-3.1-0.3-7.2,0.5-10.3-0.1c0.3,0.2-0.5,0.3-0.8,0.4c-2.7-0.1-5.6-0.6-7.7-0.3c-0.4-0.1,0.7-0.4-0.4-0.4c-0.7,0,0,0.3-0.8,0.4
	c-4.4,0.2-8.9-1-12.8-1.2c-7.1-0.1-14.5-1.1-21.2-1.9l0.1-0.2c-2.3,0.4-5.2-1.3-7.1-0.5c-0.5-0.2-2-0.3-1.6-0.6
	c-1.8,0.3-5-1-7.6-0.7c0.2,0,0.4,0,0.7,0c-2.6-0.7-4.9-0.4-7.7-1.1c0.3,0,0.8,0,0.9-0.2c-1-0.5-2.6,0.4-3.1-0.5
	c-0.6-0.1-0.5,0.4-0.1,0.4c-6-1.1-12.5-1.4-18.8-2.2c-4.4-1.2-0.1-1.4-3.7-1.4c-0.3-0.2-0.3,0.3-0.3,0.1c-1.4,0-2-1.3-3-1
	c0.3,0.6-0.7,0.2-0.8,0.5c-2.7-0.9-3.1-1.4-5.5-1.7l0.2-0.2c-1.6-0.1-3-0.4-4.8-2c-2.3-0.9,0.5-5.6,1.2-5.1c1-0.6,1.7-0.8,2.2-1.1
	c15.1-1.7,28.5-0.3,42,0.3c13.5,0.6,26.9,0.2,40.9,2c3.2,1,3.4,1.1,7.1,1.3c-0.2,0.1-0.4,0.1-0.2,0.2c0.3-0.5,2.6,0.4,3,0
	c1.3,0.4,2.6,0.6,4,1.1l2,0.7l0.1,0l0,0c-0.3-5.4,0.5,7.4,0.4,6.1h0l0,0l-0.1,0.1l-0.2,0.1l-0.5,0.2l-1,0.5c-2.6,1.3-5.1,2-7.8,2.7
	c0.8-0.3,1.1-0.8,0.1-0.5l-1,0.6l-0.2-0.1c-0.7,0.3-1.4,0.6-0.6,0.7c-13.5,3.2-26.8,2.6-39.9,2c-3.1-0.4-7.6-0.6-11-1
	c-2.5-0.5-4.9-1.3-7.4-2.1c-1.2-0.5-2.4-0.8-3.6-1.4l-1.8-0.9L706,388l-0.2-0.1h0c0,0.9-0.2-8.2-0.1-4.3h0l0,0l0.1,0l0.1-0.1
	l1.1-0.4c7.1-0.8,8.3-0.8,16.3-0.6C722.8,382.3,720.5,383.4,716.8,384.1z"/>
<path class="st14" d="M690.3,369.8c0.3,0.3,1.4,0.7,0.5,0.9C690.7,370.4,690.1,370,690.3,369.8z"/>
<path class="st14" d="M719.8,378.7c0.1-0.1,0.4,0.2,0.5,0.3c-0.4-0.1-0.8,0.1-1-0.1C719.6,378.9,719.6,378.8,719.8,378.7z"/>
<path class="st14" d="M727.4,380.6c-0.2,0.2-1.9,0-2.8-0.1L727.4,380.6z"/>
<path class="st14" d="M734.3,383.3c0.6,0.3,0.4,0.4-0.5,0.2C733.8,383.3,734.1,383.3,734.3,383.3z"/>
<path class="st14" d="M735,382.8c0.6,0.1,0.9,0.3,1.1,0.6C736.1,383.1,734.7,383.2,735,382.8z"/>
<path class="st14" d="M750.4,386.9c0.4,0.1,1.2,0,1.5,0.4C751.6,387,750,387.2,750.4,386.9z"/>
<path class="st14" d="M757.8,388c0.1,0,0.3,0.1,0.6,0.1c0.4,0.2-0.1,0.3-0.5,0.3C757.9,388.2,757.8,388.1,757.8,388z"/>
<path class="st14" d="M729.3,387.1l0.8,0l-0.2,0.2L729.3,387.1z"/>
<path class="st14" d="M688,380c0.8-0.2,0.5,0.2,0.7,0.3C687.9,380.3,688.9,379.9,688,380z"/>
<path class="st14" d="M719.5,380.1l-0.2,0l0.1-0.5L719.5,380.1z"/>
<path class="st15" d="M570.7,179.1c-0.1,9.7-7.7,17.4-17,17.3c-9.3-0.1-16.8-8-16.6-17.7c0.1-9.7,7.7-17.4,17-17.3
	C563.4,161.5,570.9,169.4,570.7,179.1z"/>
<path class="st16" d="M548.5,177.2c0,0-22.2-18.9-31.5-13.7c-9.4,5.2-28.1,35.8-36.4,53.3c-8.2,17.5-28.5,37.5-28.5,37.5
	s9,19,38.7,29.7c29.7,10.7,67.7,7.1,77.4,4.5c9.7-2.6,30.6-13,30.6-13s-10-19.6-16.8-35.4C575.2,224.5,548.5,177.2,548.5,177.2z"/>
<path class="st8" d="M567,176.4c2.8-4.9,9-2,9-2s2.9,32.1,7.3,43.9c4.3,11.7,8.4,18.9,9.6,22.4c-1.2,1.3-8.7,8-11.3,6.1
	c-2.6-2-15.5-39-15.8-49.6C565.7,192.3,564.7,180.6,567,176.4z"/>
<path class="st8" d="M584.7,326.6l2.1,17.9c0,0,16.1,0.8,19.1,2.9c3,2.1,5,6.2,3.6,7.7c-1.3,1.5-13.5,4-24.2,1.8
	c-10.6-2.2-9.2-3.1-9.2-3.1l-3.8-26.2L584.7,326.6z"/>
<path class="st8" d="M496.3,318.6l-20.5,14.2c0,0,2.3,12.7,11.1,15.2c8.8,2.5,17.2,1.8,17.2,1.8s2.1-7.7-3.9-10
	c-3.6-1.4-5.9-2.6-8.4-3.9c0-0.5,11.4-6.6,11.4-6.6L496.3,318.6z"/>
<path d="M558.4,277.9c0,0,4.8,13.7,7.4,20.8c3.4,9,7.2,27.4,7.2,27.4s10.6-0.4,10.6-1c0,0-0.8-23.8-1.7-29.9
	c-0.9-6.1-2.4-21.6-2.4-21.6L558.4,277.9z"/>
<path d="M540.6,279.2c0,0-8.2,26.5-13.2,32.1c-5,5.6-22.9,16.2-22.9,16.2l-4.9-10.1c0,0,11.9-8.5,15.6-12.8
	c3.7-4.3,6.1-27.6,6.1-27.6L540.6,279.2z"/>
<path class="st17" d="M505.9,110.1c0,0,1.8,26.4,6.9,35.7c7.1,13,24.6,26.7,41.2,25.3c16.6-1.3,33.2-13.2,35.6-33.9
	c1.8-16.1-2.3-32.4-4.4-40.1c-2.9-10.6-31-20.9-46.9-17.2C522.2,83.6,505.9,110.1,505.9,110.1z"/>
<path class="st18" d="M569,75.4c-0.6-0.9-15.3-12.8-24.6-12.3c-9.4,0.5-16.9,8.2-26.2,7.8c-9.3-0.3-18.1-3-18.1-3s2.7,7.7,7,8.9
	c4.4,1.2,7.2,2,7.2,2s-3.6,0.9-7.7,2.5c-4.1,1.7-6.1,4.9-12.2,4.1c-6.2-0.8-10.5-4.1-10.5-4.1s-0.9,5,2.4,8.9
	c3.9,4.7,9.9,8.7,9.9,8.7s-5.6,0.7-9.9,2c-4.3,1.2-6.8,2.2-11.5-0.7c-4.7-2.8-4.1-1.9-4.1-1.9s0.1,6,4.7,10.1
	c4.7,4.1,11.8,7.9,11.8,7.9s-4.3,4.9-7.7,5.9c-3.4,1.1-10.4,2.4-10.4,2.4s2.1,3.1,6.9,4.7c4.8,1.6,16.1-1.8,16.1-1.8
	s-0.6,5.7-3.1,7.3c-2.5,1.6-7.5,3-7.5,3s8,3.9,13.9,2.3c3.7-1,7.2-1.5,7.2-1.5s0.8,5.6-1.1,6.8c-1.9,1.2-5.9,2.9-5.9,2.9
	s9.1,1.9,12.9,0.7c5.3-1.6,4.3-3,4.3-3s-6.8-17.2-5-26.2c1.8-9.1,1.7-10.9,8.4-15c6.7-4.1,13.9-14.2,18.6-17.4
	c4.6-3.1,9-4.2,13.6-2.7c4.6,1.6,9.5,5,9.5,5s9.2-6.4,13.3-3.8c4.2,2.6,8.2,5.4,14.3,4.2c6.1-1.1,11-4.9,11-4.9s-5.7,3.1-9-1.8
	c-3.3-4.9-8.6-9.7-11.9-9.7C572.2,73.7,569,75.4,569,75.4z"/>
<path class="st18" d="M576.7,86.8c0,0,7.9,0.5,13,8.3c6.8,10.3,13.1,7,13.1,7s-2.1,5.5-6.8,6.8c-4.8,1.4-7,0-8.4-1.1
	C585.9,100.2,576.7,86.8,576.7,86.8z"/>
<path class="st8" d="M517.2,215.1c-2.4,14.3,0.1,21.8,0.1,21.8s-7.1,7.8-13.3,37.8c5.1,2.3,10.1,4,24.2,4.9
	c19.1,1.3,28.4,0.8,41.4-2.3c10.5-2.5,16.1-5.2,16.1-5.2s-10.5-28.9-11-37.5c3.2-7.6-2.1-61.7-2.1-61.7l-6,0.2l-14,8.7L534.8,170
	l-9.4-0.5C525.3,169.5,519.6,200.9,517.2,215.1z"/>
<path class="st5" d="M549.2,237.2c10.1-0.3,25.4-2.5,25.4-2.5l-0.1,2.3c0,0-13.5,3.3-28.9,3.5c-15.3,0.1-29.6-1.7-29.6-1.7l0.2-3.5
	C516.2,235.2,539.1,237.5,549.2,237.2z"/>
<path class="st10" d="M569.5,323.5l0.8,5.4l15.8-2l-0.8-5.5L569.5,323.5z"/>
<path class="st10" d="M508.4,326.7l-9.5-11.8l-5,3.1l9.9,12.2L508.4,326.7z"/>
<path class="st17" d="M508.6,121c0,0-8.5,1.1-7.6,7.1c0.8,5.3,5.3,6.5,8.4,6.3c3.1-0.1,3.7-1.3,3.7-1.3L508.6,121z"/>
<path class="st19" d="M557.3,118.8c0,0,14.5,13.9,12.6,15.9c-1.9,2-10,2.2-13.5,1.8"/>
<path class="st19" d="M545.3,146.3c0,0-0.5,4.3,2.9,7c4.6,3.7,9.5,0.6,9.5,0.6"/>
<path class="st20" d="M537.8,104.4c-5.9,0.2-9.5,3.6-9.6,9.5c-0.2,5.9,2.9,10.3,8.5,10.5c5.5,0.2,9.7-4.1,9.9-10
	C546.7,108.5,543.3,104.3,537.8,104.4z"/>
<path class="st21" d="M541.1,111.2c-1.1,0-1.6,0.7-1.7,1.7c0,1.1,0.6,1.9,1.6,1.9c1.1,0,1.9-0.7,1.9-1.8
	C543.1,112,542.2,111.2,541.1,111.2z"/>
<path class="st20" d="M577.5,105.6c-5.1-0.6-8,2.6-8.7,8c-0.6,5.4,1.8,9.7,6.9,10.3c5.1,0.6,9.2-2.9,9.9-8.3
	C586.2,110.1,582.5,106.1,577.5,105.6z"/>
<path class="st21" d="M580.5,111.4c-1-0.1-1.6,0.5-1.6,1.4c-0.1,1,0.3,1.8,1.3,1.9c1,0.1,1.8-0.5,1.9-1.5
	C582.2,112.2,581.4,111.5,580.5,111.4z"/>
<path class="st4" d="M564.9,249.4c9.9-2.7,47.8-20.5,61.3-27.8c14.1-7.6,43.4-19.1,41.5-14.5c-1.9,4.6-17.5,18.2-43.4,30.5
	c-13.6,6.5-55.6,19.8-55.6,19.8L564.9,249.4z"/>
<path class="st22" d="M569.2,256.8c-2.3-2.3-2.9-4.5-3.9-9c-0.6-3.9,0.9-13.4-2.5-12.7c-3.4,0.8-5.8,7.9-1.7,18.1
	c5,12.3,12.5,15.5,15.4,14.4C580.4,266.2,572.3,259.8,569.2,256.8z"/>
<path class="st23" d="M563.5,254.5c-0.9-1.9-2-2.4-2-2.4s-26.6,9.4-27.3,11.1c-0.7,1.7,1.3,6.2,2.9,6.4c1.6,0.2,26.9-11.7,26.9-11.7
	S564.5,256.7,563.5,254.5z"/>
<path class="st17" d="M543.4,268.1c2.5-0.2,3.2-2.3,3.2-2.3s3.6,1.6,5.2,0.3c1.6-1.3,0.3-3.4,0.3-3.4s3.7,2.8,5,0.6
	c1.3-2.2-3.9-8.4-3.9-8.4s6.2-1.3,4.5-4.2c-1.6-2.9-7.8,0.5-10.1-0.6c-2.2-1-10.2,4.8-10.2,4.8S540.9,268.3,543.4,268.1z"/>
<path class="st5" d="M522.1,160.7c3.3-0.9,4.3-0.3,9.3,2.4c9.2,5,19,14.9,19,14.9l-1.5,3.6c0,0-9.2-6.4-18.1-8.5
	c-8.9-2.1-21.3-2.8-21.3-2.8S516.8,162.1,522.1,160.7z"/>
<path class="st5" d="M577,165.8c-1.7-2.6-5.1-1-11.3,3.3c-6.2,4.4-9.5,10.1-9.5,10.1l2.2,2.9c0,0,3.7-3.2,9.9-6.4
	c6.2-3.2,8.6-1,8.6-1S579.7,170,577,165.8z"/>
<path class="st10" d="M535.3,191.4c3.7,33.4,14.2,56.7,15.1,57.6c0.9,1-12.5,9.9-14.5,7.4c-2-2.5-7.9-21-9.4-32.3
	c-1.5-11.3-2.5-25.6-2.9-29.1c-0.5-4.2-0.1-14.2,2.7-14.6C529,179.9,534.4,183.8,535.3,191.4z"/>
<path class="st22" d="M559.4,184.5c-0.1,1.6-1.5,2.9-3.2,2.8l-4.6-0.3c-1.7-0.1-2.9-1.5-2.8-3.2l0.3-4.3c0.1-1.6,1.5-2.9,3.2-2.8
	l4.6,0.3c1.7,0.1,2.9,1.5,2.8,3.2L559.4,184.5z"/>
<path class="st14" d="M286.7,324.4c-1.5,0,0.8,0.5-1,0.1C285.9,324.3,286.2,324.2,286.7,324.4z"/>
<path class="st14" d="M313.8,336.8c-2.3,1.5-5.3,0.4-7.9,1.8c-1.7,1.7,4.3,2.3,6.1,2.5c0.6,0-0.3,0.7,1.2,0.7
	c5.3-0.2,13.3,0.6,19.8,0.9l-0.4,0.2c1.2,0.1,2.7-0.7,3.9-0.7c0,0.1-0.4,0.2-0.1,0.4c0.3-0.4,2.3-0.4,2.8-0.7
	c0.5,0.1,0.5,0.4,1.2,0.5l0.7-0.5c1.9-1.3,4.9-0.5,7.6-1.6c-0.1,0.1-0.4,0.3-0.1,0.3c4.3-1.4,9.8-2.4,14.4-4.2
	c-0.1,0.2-0.2,0.6,0.1,0.6c0.1-0.5,1.5-1.2,2.7-1.7c0.8,0.3,1.9-1.3,3.4-1.7l-0.1,0.2c0.7-1,1.6-0.6,2-1.6c0.2,0,0.1,0,0.6-0.1
	c-0.6,0.2,0.3,1.4,0.3,0.9c-0.4,0.7-1.4-0.5-2.4-0.2l0,0.1c-0.9,0.1-1.4-0.2-2.2-0.1l-0.1-0.1c-2,0.1-3.1-0.3-3.1,0.3
	c-0.7-0.4,1.9-0.2,0.8-0.8c-6.4,0.4-13.1,0.3-19.6,0.2c-0.7-0.2-1.2-0.3-1.4-0.5c-0.6,0.1-2.4,0.1-3,0.4c0.2,0-0.4-0.3-0.8-0.3
	c-1.2-0.2-1.3,0.6-2.6,0.3c0.5-0.1,0.7-0.3,0.5-0.5c-1.1,0.4-2.6,0.3-3.9,0.5c0.2-0.1,0.5-0.1,0.5-0.3c-1.4,0.5-2.6-0.1-3.9,0.2
	l0.5-0.3c-2-0.4-0.6,0.6-2.3,0.4c0.4-0.1,0.3-0.2,0.3-0.3c-1.6,0.6-4.3,0.4-5.9,0.6c0.1,0,0.1-0.1,0.1-0.1c-1.8,0.1-3.6-0.1-5.6,0.2
	c-0.7-0.1,0.2-0.8-1.6-0.6c0,0.6-3.2,0.2-2.1,0.9c-1.6-0.1-4.1-0.4-5.2-0.2c0.7-0.2-0.8-0.8,0.6-0.8l-1-0.4c0.2-0.3,1,0.1,0.7-0.2
	c-0.7,0-2.6,0.3-3.2,0.2c-1.2,0.4-2.3,1.1-4.3,1.3c0.9-0.3-0.6-0.7,0.1-0.8l-2.7,1.3c-0.7,0-0.2-0.5-1.1-0.3
	c0.1,0.2-0.4,0.3-0.6,0.4c-0.3-0.1-2.7,0.3-3.1-0.3c-0.3-0.2,1.1-0.2,0.3-0.4c-1.2,0.1-1.3,0.3-2.5,0.4l0-0.1
	c-0.8,0-2.3,0.4-1.5,0.7c0.6,0-0.2-0.4,0.6-0.2c-0.5,0.4-1.9,0.6-3.1,0.7c0.4-0.1,0.3-0.3,0.5-0.5c-1.6,0.6-3.3,1-4.9,1.5
	c0,0.3,0.5-0.6,0.8-0.5c-1.1,0-2.3,0.4-3.1,0.8c-0.6,1.1-0.3-1.8,0.1-0.3c-0.3-0.1,0.1-0.4,0.1-0.3c0.7,0.4,0.5,0.9,1.2,0.9
	c0,0.3,0.7,0.2,1.5,0.2c0.4-0.1,0.2,0.2-0.5,0c1,0.1,5.2,0.3,7.5,0.9c0-0.2,1.6-0.4,2.1-0.4l-0.3,0.4c0.5,0.3,1.9,0.2,1.9,0.5
	c1.2-0.3-4.6,0-3-0.3c0.4,0.4,2.3-0.4,1.9,0.1c1.1,0.1,2.2-0.3,3.3,0.2c-0.3-0.1-1,0.5,0,0.5c1.6,0.1,0.5-0.1,1.8-0.2l0.8-0.1
	c0.1-0.4,1.4,0.2,0.9-0.3c0.2,0.3,2.3,0,2.1,0.6l-0.3,0.5c0.7,0,1.2-0.4,1.7-0.6c0.1,0,0.3,0.2,0.2,0.2c0.2-0.7,1.6,0.2,2.5-0.3
	c1.4,0.3,3.7,0.3,4.4,0.8c1.1-0.2,2.2-0.4,3.4-0.1c-0.3,0-0.6,0.1-0.7,0.2c0.8,0.3,1,0.1,1.7,0c-0.2,0.1,1.6,0.5,2.5,0.8
	c1.1-0.2,0.8-0.6,0.9-0.8c1,0.8,3.2-0.3,4.4,0.4c-0.4,0.1-1.6,0.3-0.7,0.5c1,0.8,2.1-0.4,3.7,0l-0.4-0.6c0.7,0.4,2.4-0.2,2.2,0.4
	c0.6-0.2,1.9,0.3,1.8-0.3c2.7,0.6,6.6,0,8.2,1.2c0.4-0.1,1.4,0.1,1.2-0.2c-0.6-0.4-0.9,0.2-1.1,0c0.3,0,0.4-0.2,0.5-0.2
	c0.8,0.2,1.5,0.3,0.7,0.7c1.8,0.5,2-0.9,4.3-0.6c-0.1,0.2,0.1,0.3,0.8,0.3l1.3-0.4c1.5,0.2,0.9,0.6,0.9,1c0.8,0,1.8,0,2.2-0.3l1,0.6
	c-0.7-0.4,0.7-0.2,1.1-0.3l-0.4,0.1c0.1,0.2,1.1,0.1,1.6,0.1c-0.1-0.3-1.1-0.4-1.6-0.5c0.4-0.2,1.1-0.1,1.6-0.3
	c-0.2,0.4,1.3,0.3,2,0.4c0.7,0.1,0.8-0.4,1.1-0.3c0,0.2,1.2,0,0.6,0.3c-0.3,0.1-0.6-0.2-1,0c0.5,0.2,0.4,0.5,1.5,0.3
	c0.8-0.2-0.2-0.8,1.3-0.5c-0.4,0.1-0.5,0.3-0.8,0.4l1.4,0.2l0.1-0.4c0.2,0.1,0.1,0.1,0.1,0.2c0.4-0.4,2.1-0.1,2.4-0.6
	c0.7,0,1.5,0.2,2.1,0.3l-0.1,0c0.8,0.2,1.9,0,2.5-0.2l0,0.1c0.4,0,1.5-0.1,2-0.3c1.1,0.3,0.4,1.4,1.6,0.9c1.1-0.1,1.7-0.8,1.3-1
	c2,0.2,4.3-0.6,6.2-0.1c0.3-0.2,0.1-0.3,0.7-0.4c2.9-0.1,6.2-0.9,8.5-0.5c-0.8,0.3,0,0.4,0,0.6c0.7-0.4,0.9,0.2,1.1-0.4
	c-0.1-0.3-0.1-0.5-0.9-0.5c1.7-0.4,4.3-0.7,5.3-0.6c-0.5-0.1-0.1-0.2,0.2-0.4c0,0.6,1.2,0.4,2.2,0l0.1-0.3l0.7,0.2
	c0.3-0.2,0.3-0.7,1.3-0.6c0.1,0.1,0.2,0.2,0.3,0.3c0.7-0.3,2.7-1.6,2.1-0.9c0,0.2,0,0.4,0.1,0.5c-0.6,0.4-0.2,2.4,0.7,2.4
	c0.2,0.2-0.7,0.2-0.2,0.5c-0.9-0.5-2.6-0.7-2.9-1.1c-3.2,0.7-8,0.6-11.8,0.5l0.1-0.2c-1-0.3-0.5,0.4-1.3,0.2c0.3-0.2-0.8-0.5,0-0.8
	c-1.5-0.3-1.9,0.4-2.9,0.5c-0.2,0.3,0.8-0.2,0.6,0.2c-0.2,0.1-2-0.3-2.2,0.2c-0.4-0.2-0.1-0.6,0.1-0.7l-0.9,0.2
	c-1.1-0.6,2.5-1,1.4-1.7l-0.8,0.1c-0.8-0.5,2.2-0.5,0.1-0.7c-0.9,0.2-1.7,0.9-0.9,1.1c-1.9,0.1-0.9,1.1-2.9,1.1
	c-0.5-0.3,1.6,0,1.2-0.4c-0.9-0.4-1.9,0.2-2.7,0c0.9,0.2,0.1,0.7-0.5,0.8c-1-0.3,0.7-0.4-0.8-0.5c-0.2,0.3-1.6,0.5-0.4,0.7
	c-0.5,0.6-1.5-0.2-2.3,0.3c-0.5-0.5,1.5-1-0.1-1.3c0.2,0.4-2,0.5-1.2,1.2c-0.6-0.1-0.7-0.5-0.2-0.7c-0.9-0.3-2.2,0.7-2.5-0.1
	l-0.3,0.4c-0.3-0.2-0.7-0.3-1.1-0.5c-0.8,0-2.6,0.5-2.5-0.2c-0.3,0.1-2.1,0-1.4,0.4c1.1,0.3,1.3-0.3,1.9,0.4c-0.8-0.5-1.6,0-2.3,0.1
	l-0.1-0.3c-0.4,0.1-1.3,0-1.6,0.2c0.3-0.1,0.2-0.3-0.1-0.4l-0.4,0.4c-1.6,0.1-0.3-0.7-1.9-0.7l1.2-0.2c-0.3,0-0.8-0.3-1.5-0.3
	c-0.3,0.3-0.9,0.7-1.2,1c-0.9,0.1-0.4-0.4-1.3-0.2l1.2-0.3c0.2-0.1-0.7-0.7-1.9-0.8c-0.6,0.1-1.9,0.4-0.8,0.8
	c-0.6-0.1-1.4-0.4-0.9-0.6c-1.3,0,0.1,0.4-1,0.5c-0.4-0.3-1.8-0.8-2.6-1.3l1.3-0.4l-0.8-0.1c1.1-0.3-0.5-0.4,0.2-0.9
	c-0.5-0.2-1.2-0.1-1.7,0c1.4,1-1.9,0.8-1.5,1.6c-2.2-0.1-1.1-2-3.4-1.2c0.3,0.3-0.8,0.6,0.6,0.6c-1.3-0.3-1,0.6-2.5,0
	c1.2-0.1-1.1-0.9,0.6-1.1c-0.1,0.2,0.9,0.3,1.2,0.3c-0.5-0.4,0.2-0.7-1.1-0.9c-0.8-0.1-1.9-0.2-1.9,0.2c0,0.4,1.3,0.1,0.7,0.5
	c-1.6-0.1-1.8-0.8-2.6-0.2c1,0.1,1.2,0.6,1.2,0.9l-1.2,0l0.3-0.2c-1.9-0.5-0.7,0.4-2.5,0l-0.8-0.7c0.5-0.4,2.7,0.7,2.5-0.2
	c-1.2-0.2-1.7,0.1-2.8-0.3l0.9,0c-0.4-0.1-0.7-1.2-2.5-0.9c-0.9,0.1-0.3,0.2-0.3,0.5c-1.9-0.2-2.6,0-3.8-0.2
	c0.3-0.5-2.2-0.4-0.7-0.8c0.6,0.4,3.4,0.9,4.2,0.4c-0.6-0.8,1.5,0.3,2-0.3c-1.6-0.3-1.4-0.9-1.5-1.4c-0.4-0.1-0.9,0-1.1,0
	c-0.3,0.4,0.3,0.5,0.3,0.9c-1.7-0.4-3.4-0.4-4.4-0.2c-0.5-0.3-0.3-0.7,0.4-0.6c-2.1-0.2-4.3-0.6-6.2-1.1c1.2,0.9-2.2-0.2-1.4,0.5
	c1,0.3,1.8,0.9,1.2,1.1c-0.6-0.1,0.1-0.3-0.2-0.5c-0.9,0.2-1.2-0.8-2.1-0.3c1.9,0.1,0.5-0.7,0.9-1.2c-1.4,0.1,0.1-0.4-1.2-0.6
	c-1.4,0.1-3.1,0-4.6-0.1c-1.8-0.8-4.8-0.8-6.5-1c-0.8-0.4-0.2-0.9-1.1-1.1c-1.1-0.2,0.7,0.7-0.9,0.2l0.2-0.1c-0.5,0.1-3-0.8-3.6-0.1
	l0.6-0.6c-0.3-0.1-0.6,0-0.9,0c0-0.2-0.3-0.4,0.2-0.5c-1-0.6-2.2-0.2-3.3-0.3l0.7,0.5c-2,0-3.2-0.5-5.1-0.6l0.1-0.4l-1.1,0.1
	c0.3-0.3-0.7-0.7-1.3-0.4l3-0.6c0.8,0.3-0.9,0.3-0.5,0.8c0.4,0.4,2.1,0.5,2.4,0.1c-0.6-0.1-0.7,0-1.2,0c-0.2-0.5,0.8-0.4,1.4-0.7
	c-0.3,0-0.8-0.2-0.9-0.1c0.7-0.2,1.4-0.1,2.5,0c-0.8,0.1,0.4,0.4,0.1,0.5c0.1-0.4,1.3-0.4,2.6-0.1c0.9,0.6,2.7,0,4.3,0.4
	c-0.7,0.4-1.6,0.6-2.6,0.6c1,0.4,1.1,0.1,2.1,0.5c0.5-0.3,1-0.7,2.3-0.8l0,0.3c1.2,0,1.3-0.5,2.8-0.2c2.6,0.6,5.3,1,7.2,1.4l0,0.3
	c1.2-0.5,3.7,0.3,5.3,0.3c2.5,0.7,5.5,0.6,6.8,1.4c4.5,0.5,8.4,0.9,13,1.7l-0.9,0.4c0.9-0.2,0.5,0.4,1.3,0.4
	c-0.9-0.5,1.2-0.3,1.8-0.5c2,0.7,4.7,0.6,6.6,0.5l0,0.3c1.9-0.4,4.1,0.4,6.3,0.7c0.3,0.2,0.6,0.5,1.3,0.5c1.3-0.5,1.9-0.4,3.8-0.6
	c1.3,0.1,3.5,0.3,4.9,0.5c5.1-0.6,10.3,0,15.6-0.4l0.4,0.4c5.2-0.7,11.4,0.1,16,0.2l-0.5,0.6c1.3,0.3,3.6,0.4,3.4-0.1
	c0.3,0.2,0.3,0,1,0.4c1.6,0.6,1.4,4.2,1,3.8c-0.6,0.8-2.1,1.6-2.2,1.6c-0.9,0.3-1.7,0.6-2.2,0.4c-1.4,0.2-1.7,0.7-2.8,1
	c-2.9,0.3-3.9,0.6-6.6,1l0.7,0c0.3-0.2,0.3-0.5-0.4-0.4c-1,0.3-3.7,0.3-2.6,1c-2.9-0.1-6.7,1-9.5,0.6c0.3,0.2-0.4,0.3-0.7,0.5
	c-2.5,0.1-5.2-0.2-7.2,0.3c-0.4-0.1,0.6-0.4-0.4-0.4c-0.6,0.1,0,0.3-0.7,0.4c-4.1,0.5-8.2-0.3-11.9-0.2c-6.6,0.4-13.4-0.1-19.7-0.4
	l0.1-0.2c-2.1,0.5-4.9-0.9-6.6,0c-0.5-0.2-1.9-0.2-1.5-0.5c-1.7,0.4-4.6-0.7-7.1-0.2l0.6-0.1c-2.4-0.5-4.6-0.1-7.1-0.6
	c0.3,0,0.7-0.1,0.8-0.2c-1-0.4-2.4,0.6-2.9-0.3c-0.6,0-0.4,0.4-0.1,0.4c-5.6-0.6-11.6-0.5-17.5-0.9c-4.2-0.9-0.1-1.3-3.5-1.1
	c-0.3-0.2-0.2,0.3-0.3,0.1c-1.3,0.1-1.9-1.1-2.9-0.8c0.3,0.5-0.6,0.2-0.7,0.5c-2.6-0.7-2.9-1.2-5.2-1.4l0.3-0.2
	c-1.6-0.6-2.6,0.5-4.8-3c1.3-5.6,3.3-3.4,4.1-4.9c13.8-2.5,26.2-2.3,38.9-2.5c12.6,0.1,24.9-0.2,37.8,0.4c3,0.7,3.2,0.7,6.5,0.5
	c-0.1,0.1-0.3,0.1-0.1,0.2c0.2-0.5,2.3,0,2.7-0.5l3.6,0.2c0.4,0,0.4,0,1.5,0.2l1.2,0.4c0,0.3,1-0.2,1.4,3c-1.1,3.7-2.9,2.9-3,3.2
	c2.4-0.9-0.3,0.4-0.2,0.5c-2.3,1.4-4.6,2.3-7,3.2c0.7-0.3,1-0.9,0.1-0.5l-0.8,0.7l-0.2-0.1c-0.6,0.3-1.2,0.7-0.5,0.7
	c-12.2,4.2-24.5,4.5-36.8,4.9c-2.9-0.2-7.1,0-10.3-0.3c-2.4-0.4-4.7-0.9-6.9-1.5c-1.1-0.4-2.2-0.6-3.4-1.1l-1.7-0.7l-0.4-0.2
	l-0.2-0.1c0.3,3.6-0.5-4.9-0.4-4h0l0,0l0,0l0.1,0l0.1-0.1l1-0.5c6.7-1.3,7.4-1.4,15.1-1.8C319.3,334.6,317.1,335.8,313.8,336.8z"/>
<path class="st14" d="M288.6,324.4c0.3,0.3,1.4,0.6,0.5,0.8C288.9,325,288.4,324.6,288.6,324.4z"/>
<path class="st14" d="M316.3,331.1c0-0.1,0.4,0.2,0.5,0.2c-0.3,0-0.7,0.1-1,0C316.2,331.3,316.1,331.2,316.3,331.1z"/>
<path class="st14" d="M323.5,332.4c-0.1,0.2-1.7,0.2-2.6,0L323.5,332.4z"/>
<path class="st14" d="M330,334.5c0.5,0.3,0.4,0.4-0.4,0.3C329.5,334.6,329.8,334.6,330,334.5z"/>
<path class="st14" d="M330.5,334c0.6,0.1,0.8,0.3,1.1,0.5C331.6,334.3,330.3,334.4,330.5,334z"/>
<path class="st14" d="M345,337c0.3,0,1.2-0.1,1.4,0.3C346.1,337,344.7,337.3,345,337z"/>
<path class="st14" d="M351.9,337.5c0.2,0,0.3,0.1,0.6,0c0.4,0.2,0,0.3-0.4,0.3L351.9,337.5z"/>
<path class="st14" d="M325.1,338.9l0.7-0.1l-0.1,0.2L325.1,338.9z"/>
<path class="st14" d="M287.5,334.6c0.7-0.2,0.5,0.2,0.6,0.2C287.5,334.9,288.4,334.5,287.5,334.6z"/>
<path class="st14" d="M316.7,332.5h-0.3l0.1-0.5L316.7,332.5z"/>
<path class="st15" d="M351.2,152.7h-26v41.5h26V152.7z"/>
<path class="st17" d="M364.8,302.5c1,2.4,1.3,2.7,2.1,3.9l11.5-3.2l-3.4-11.6l-11.3,5C363.7,296.7,363.6,299.5,364.8,302.5z"/>
<path class="st24" d="M374.2,323.1c-2.2-4.2-7.3-16.7-7.3-16.7l11.3-3.8c0,0,6.4,22.3,10.9,27.9c3.5,4.3-1.9,6.9-1.9,6.9l-4.8-1.5
	C382.5,335.9,377.8,329.7,374.2,323.1z"/>
<path class="st16" d="M388.4,334.4c4,1,5.4-2.1,5.4-2.1s2.4,1.3,5.1,1.5c4.8,0.3,8.8,3,9.4,6.4c-2.6,3.1-8.4,3.8-15.2,3.3
	c-6.4-0.5-11-5.5-11-5.5l0.3,4.8l-5.4-0.3c0,0-0.1-8.2,0.2-10.6c0.3-2.6,0.4-2.2,0.4-2.2S380.1,332.4,388.4,334.4z"/>
<path class="st5" d="M395.3,332.9c0,0-3.3-1-5.2-4.8c-1.5-2.9-1.9-4.2-5.7-1.1c-2.9,2.3,0.6,6.8,1.9,8.1
	C392,341,395.3,332.9,395.3,332.9z"/>
<path d="M376,293.2c0,0-0.8,1.3-5.2,2.9c-4.4,1.6-6.2,1.6-8.1,1.6l-1.4-3.1c0,0,5.7-0.5,10.6-2.6c1.7-0.7,3.2-1.7,3.2-1.7L376,293.2
	z"/>
<path class="st17" d="M301.8,293.1c1.3-1,4.8-3.5,4.8-3.5s12.6,3.2,11.6,4.4c-1,1.2-1.9,2.8-3.9,4.4c-2,1.6-12.7,7.4-12.7,7.4
	l-5.9-6.4C295.8,299.3,298.2,295.9,301.8,293.1z"/>
<path class="st24" d="M277.4,318c0,0,7.5-8.6,10.9-12.4c5.1-5.7,9.8-9.7,9.8-9.7l8.9,6.9c0,0-19.2,13.6-21.2,18.8
	c-2,5.2-5.4,4.7-5.4,4.7l-5.7-5.3L277.4,318z"/>
<path d="M291.7,147c0,0-0.8,2.9-2.6,4.9c-1.8,2-6.1,3.7-6.1,3.7s7.5,3.3,12.3-0.9c4.1-3.5,3.6-6.7,3.6-6.7l-5.7-5.4L291.7,147z"/>
<path d="M317,242.8c-13.2,30.2-13,30.3-14.4,34.4c-1.9,5.8-0.5,10.7,7.4,14.2c7.9,3.5,12.4,4.2,19.9-5.3c7.5-9.5,9.9-15.6,13.5-8.3
	c6.7,13.6,12.3,17.7,18,17.4c5.7-0.3,17.4-3.1,16.4-11.5c-1-8.5-9-38.3-14.9-41.2C356.9,239.5,317,242.8,317,242.8z"/>
<path class="st17" d="M292.8,245.8c0,0-5.8,13.4-3.7,15c2.1,1.6,4.8-6,4.8-6s-1.6,7.6,1.2,8.1c2.7,0.5,2.3-7.7,2.3-7.7
	s1.7,7.6,4.3,7.4c2.6-0.1-0.1-7.9-0.1-7.9s4.9,1.8,5.2-0.2c0.2-2.1-7.4-7.5-7.4-7.5L292.8,245.8z"/>
<path class="st17" d="M392.3,232.1c0,0,9.3,11.3,11.7,10.1c2.4-1.1-3.2-7-3.2-7s6.1,4.9,7.8,2.7c1.7-2.2-5.8-5.6-5.8-5.6
	s7.5,2,8.6-0.4c1.1-2.4-7.1-3.5-7.1-3.5s3.9-3.6,2.1-4.7c-1.7-1.1-10,3.1-10,3.1L392.3,232.1z"/>
<path class="st16" d="M281.7,327.9c2.3,3.2,5.9-0.4,5.9-0.4s1.2,2.3,3.2,3.8c3.7,2.8,6.5,4.9,5.2,7.9c-3.7,1.1-10.6,1.2-15-3.2
	c-4.3-4.4-5.9-10.1-5.9-10.1l-3.1,3.4l-4-4.2c0,0,5.6-7,7.5-8.2c1.9-1.2,3.3-1.2,3.3-1.2S277.3,321.8,281.7,327.9z"/>
<path class="st5" d="M288.5,328.8c0,0-1.4-2.8-1.1-5.9c0.3-3.1,0.3-3.3-4-4.1c-3.8-0.7-4.5,3.4-2.9,7.1
	C283.6,333.4,288.5,328.8,288.5,328.8z"/>
<path d="M316.8,296.1c0,0-3,0.2-6.6-1.6c-2.3-1.1-6.3-4.3-6.3-4.3l1.6-1.9c0,0,2.4,2,7.2,3.7c1.8,0.7,6,1.4,6,1.4L316.8,296.1z"/>
<path class="st25" d="M315.1,166.2c0,0,9.2-0.7,14.8,2.1c4,4.7,15.1,12.9,15.1,12.9s2.2-8.3,3.6-20c1.1-1,3.7,2.5,3.7,2.5
	s10,17.4,12.3,39.5c1.5,14,6.3,41.1,1,42.2c-6.8,2.7-25.1,3.3-38.5,2.4c-13-0.9-13.9-2.1-14.3-10c-0.5-7.9,4.9-36.5,4.9-36.5
	s-7.5,14.5-8.2,24.1c-0.7,9.6-0.7,22.4-4.9,22.9c-3.6,0.4-15.9,1.1-15.8-3.8c0.2-9,3.6-25.5,8.7-39.8
	C305.2,183.1,315.1,166.2,315.1,166.2z"/>
<path class="st25" d="M352.3,163.8c0,0,18.2,24.9,24.3,33.3c10.7,14.9,23,19.8,23.1,24.2c0.1,5.8-8.5,13.5-10.8,12.6
	c-6.4-2.4-24.6-25.3-29.1-42.6C357.1,180.8,352.3,163.8,352.3,163.8z"/>
<path class="st26" d="M341.8,200.6l12-15.9l-8.8-3.5l-6.6,6.5c0,0,17.6,9,19.6,9.5"/>
<path d="M339.3,188.2c0,1-0.9,1.9-1.9,1.9c-1,0-1.9-0.9-1.9-1.9c0-1,0.9-1.9,1.9-1.9S339.3,187.2,339.3,188.2z"/>
<path d="M353,184.6c0,1,0.8,1.9,1.9,1.9c1,0,1.9-0.8,1.9-1.9c0-1-0.8-1.9-1.9-1.9C353.8,182.7,353,183.5,353,184.6z"/>
<path d="M343,201.3c0,1.1-0.9,1.9-2,1.9c-1.1,0-1.9-0.9-1.9-2c0-1.1,0.9-1.9,2-1.9C342.2,199.3,343,200.2,343,201.3z"/>
<path d="M356.2,197.6c0,1,0.8,1.9,1.9,1.9c1,0,1.9-0.8,1.9-1.8s-0.8-1.9-1.9-1.9C357,195.8,356.2,196.6,356.2,197.6z"/>
<path class="st17" d="M285,114.6c0,0,4.9,26.7,14.8,40.9c9.4,13.7,30.7,16.6,45.9,11.6c15.2-5,25.6-24.9,24-40.9
	c-2.1-21.4-16.1-43.1-17.1-44.2c-5.4-5.9-29.1,4.5-43.2,11.5C295.3,100.6,285,114.6,285,114.6z"/>
<path class="st23" d="M356.8,83.5c11.9-4.2,10.5-27.4-5.3-30c-14.6-2.4-32.4,5.2-45.1,12.2c-6.9,3.8-41,9.3-48.1,27.1
	c-10.2,25.5,25.8,35.8,30.1,23c0,0,21.6-19.3,43.5-25.9C344.3,86.1,356.8,83.5,356.8,83.5z"/>
<path class="st4" d="M303.9,103.7c0,0-8.8-13.7-14.1-17.9c-1.7-1.4-5.8-4.3-5.8-4.3l-1.2,8.5l-5.6-12.9c0,0-2-1.6-12.3-3.9
	l-10.3-2.3l0.8,9.2l-7.9-11.3c0,0-6.9-0.1-15.5,1.3c-8.6,1.4-24,3.7-24,3.7s15.3,7.4,20.3,11.3c5,3.8,8.3,4.8,8.3,4.8l11.1-7.5
	l-8.1,9.4l21.4,5.2l10-7.8l-5.9,8.6c0,0,20,4.6,24.1,4.4C293.2,102,303.9,103.7,303.9,103.7z"/>
<path class="st24" d="M357.4,90.2c0,0-17.5,2.4-36.3,11c-16.9,7.8-28,16.9-35.2,22.2c-4.6,0.3-2.2-7.7-2.2-7.7s13.2-12.2,32.1-20.3
	c22.7-9.7,29.2-10.6,40-11.7C360.7,86,357.4,90.2,357.4,90.2z"/>
<path class="st27" d="M300.7,101.5c0,0-18.8-10.9-35.3-16.4c-23.6-7.9-45.8-9.3-45.8-9.3"/>
<path class="st27" d="M270.9,84.9l-3.8-8.6"/>
<path class="st27" d="M250.7,91.4l6.5-5.5"/>
<path class="st27" d="M274.5,98.2l5.3-4.7"/>
<path class="st19" d="M340.4,122.1c0,0,8.5,3,11,3.1c2.5,0.1,4.6,1.5-0.3,4.9c-4.9,3.4-8.6,3.4-8.6,3.4"/>
<path class="st19" d="M332.5,145.6c0,0,0.9,5.6,6.1,7.2c5.2,1.6,9.2-2.8,9.2-2.8"/>
<path class="st20" d="M318.4,108.6c-5.8,0.9-8.9,4.7-8.3,10.5c0.6,5.8,4.2,9.8,9.7,9.3c5.5-0.5,9.1-5.2,8.5-11
	C327.8,111.6,323.9,107.8,318.4,108.6z"/>
<path class="st21" d="M322.6,114.9c-1.1,0.1-1.5,0.9-1.4,1.9c0.1,1.1,0.8,1.8,1.9,1.7c1.1-0.1,1.8-1,1.7-2
	C324.6,115.4,323.7,114.8,322.6,114.9z"/>
<path class="st20" d="M353.6,99.9c-5,0.5-7.1,4.2-6.6,9.5c0.5,5.3,3.8,8.8,8.8,8.4c4.9-0.5,8.2-4.7,7.7-10
	C362.9,102.5,358.5,99.4,353.6,99.9z"/>
<path class="st21" d="M358.2,105.8c-1,0.1-1.4,0.8-1.3,1.8c0.1,1,0.7,1.6,1.7,1.6c1-0.1,1.6-0.9,1.5-1.9
	C360.1,106.3,359.2,105.7,358.2,105.8z"/>
<path d="M282.6,127.3c-2.8,2-11.8,3.7-11.8,3.7s2.5,3.5,7.6,3.7c1.6,0.1,3.7-0.2,3.7-0.2s-1.9,2.5-5.5,3c-3.2,0.5-6.4,0.3-6.4,0.3
	c0.1,1.7,8.5,8.7,14.7,3.7c-2.2,4.8-10.6,6.3-10.6,6.3s11.8,5.8,17.6,0.1c1.3-1.3,2.3-2.3,2.3-2.3s-4.7-11.1-5-13.4
	c-0.3-2.1-3.4-8.7-3.4-8.7S286.2,124.8,282.6,127.3z"/>
<path class="st17" d="M291.3,128.5c0,0-8.3,1.3-7.7,6.6c0.5,4.6,4.8,5.5,7.9,5.3c3-0.2,3.7-1.3,3.7-1.3L291.3,128.5z"/>
<path d="M285.4,125.2c0,0,1,1.9-0.9,3.9c-1.8,2-10.8,4.3-10.8,4.3s6.9,4,13.2-1.1c4.2-3.4,9.1-16.4,9.1-16.4l-10,7.5L285.4,125.2z"
	/>
<path d="M786.4,304.9c-0.1,19-1.3,15.5-0.4,34.1c0.7,14.6-0.9,24.2-0.9,24.2l-13.4,1.2c0,0-3.6-56.6-14.6-54.1
	c-11,2.4-29,32-36.7,36.5c-7.7,4.4-23.6,11.2-23.6,11.2l-6.8-11.3c0,0,20-8.6,23.2-17.8c3.2-9.1,8-29.4,8-29.4l46.2-26.6
	L786.4,304.9z"/>
<path class="st17" d="M701.5,261.3c0,0-9,15.1-7.1,17c1.9,1.9,5.6-5.3,5.6-5.3s-2.5,7.4,0.1,8.2c2.7,0.9,3.3-7.4,3.3-7.4
	s0.7,7.7,3.3,7.9c2.6,0.2,0.9-7.8,0.9-7.8s4.7,2.4,5.2,0.4c0.5-2-4.8-10-4.8-10L701.5,261.3z"/>
<path class="st17" d="M810.6,279.7c0,0,7.9,15.7,10.5,15.1c2.6-0.6-1.5-7.6-1.5-7.6s4.9,6.1,7,4.3c2.2-1.8-4.5-6.8-4.5-6.8
	s6.9,3.6,8.5,1.5c1.6-2.1-6.1-5-6.1-5s4.6-2.6,3.1-4.1c-1.5-1.5-11.1-1.4-11.1-1.4L810.6,279.7z"/>
<path class="st16" d="M785.2,362.7l-0.9,19c0,0,17.7-3.2,20.5-0.9c2.8,2.3,5.2,6.6,3.7,8c-1.5,1.4-11.1,5.8-24.7,5.7
	c-8.9-0.1-11.8-1.8-11.8-1.8l-0.1-30L785.2,362.7z"/>
<path class="st16" d="M687,348.6l-21.8,12.2c0,0,1.1,12.9,9.6,16.2c8.5,3.3,17,3.4,17,3.4s2.8-7.4-3-10.3c-3.5-1.7-5.7-3.2-8-4.7
	c0.1-0.5,11.9-5.5,11.9-5.5L687,348.6z"/>
<path class="st23" d="M715.6,226.3c-11,12.6-18.4,36.4-18.4,36.4l16.3,4.8c0,0,7.2-22.8,13.2-29.1c6-6.2,20.2-17.5,20.2-17.5
	s-6.1,11.9-8.4,22.8c-2.4,11-8.3,26.3-8.3,26.3l-12.3,29.2c0,0,27.9,5,37.5-1.5c9.6-6.4,15-18.7,15-18.7s-4.7,16.8,3.3,20.8
	c8,4,16.8,7.4,16.8,7.4s4.7-87.3,6-95.4s2.7-12.9-9.1-15.5c-11.8-2.5-23.7-4.9-33.5-1.4C743.8,198.3,723.9,216.7,715.6,226.3z"/>
<path class="st23" d="M801.3,210c2,11.8-0.6,25.1,2.3,34.6c2.9,9.5,18.5,29,18.5,29l-10.3,10.3c0,0-11.4-11.6-15-19.2
	c-3.7-7.6-1.8-37.1-1.8-37.1l0.8-27.1C795.8,200.4,799.8,201.1,801.3,210z"/>
<path class="st22" d="M754.6,192.8c-3.5-0.9-11.7-0.6-14.4,0.6c-2.8,1.3-3.1,4.4,0.3,5.9c3.4,1.5,6.6,1.7,10.2,0.7
	c3.6-1,7.9-3.7,7.7-5.3C758.2,193.1,755.5,193,754.6,192.8z"/>
<path class="st22" d="M789.3,195.7c3.6-0.4,11.6,1.3,14.2,2.9c2.5,1.7,2.4,4.9-1.2,5.8c-3.6,0.9-6.8,0.6-10.2-1
	c-3.4-1.5-8.8-4.7-8.3-6.3C784.2,195.6,788.4,195.8,789.3,195.7z"/>
<path class="st22" d="M736.9,197.9c0,0-13.1,9.9-10.3,10.1c2.8,0.3,13.4-8.2,13.4-8.2s-11.9,13.5-8.2,12.4
	c3.8-1.1,12.8-10.7,12.8-10.7s-8.6,13.1-5.8,11.9c2.7-1.2,10.7-13,10.7-13s-8.1-1.4-8.9-3C739.7,195.7,736.9,197.9,736.9,197.9z"/>
<path class="st22" d="M805.8,203.1c0,0,7.7,14.4,5.1,13.5c-2.7-1-8.7-13.1-8.7-13.1s5.2,17.2,2.2,14.6c-2.9-2.6-7.1-15.1-7.1-15.1
	s2.2,15.5,0.3,13.3c-1.9-2.2-4.2-16.3-4.2-16.3s8,2.1,9.3,1C804.2,199.9,805.8,203.1,805.8,203.1z"/>
<path class="st10" d="M731.9,259.6c0,0,20.4,5.8,28.6,6.6c20.9,2.2,33.2,0,33.2,0l0.5,7.8c0,0-16,2-30.3-0.1
	c-21.8-3.2-34.4-7.7-34.4-7.7L731.9,259.6z"/>
<path class="st22" d="M778.3,274.5c-0.3,1.6-1.8,2.8-3.4,2.5l-7.5-1.1c-1.6-0.3-2.8-1.8-2.5-3.4l0.6-4.3c0.3-1.6,1.8-2.8,3.4-2.5
	l7.5,1.1c1.6,0.3,2.8,1.8,2.5,3.4L778.3,274.5z"/>
<path class="st17" d="M740.5,122.5c-1.2-0.2-6.9,28.3-5.3,38.7c1.9,12.3,4.5,28.2,26.4,39.4c15.2,7.8,36.7,0.2,45.3-9.4
	c7.8-8.6,13.6-23.3,15-36.9c1.4-13.6-4.4-28.6-4.4-28.6s-22.8-14-23.7-14.2c-0.9-0.1-22.6-1.6-24.4-1.9
	C767.6,109.5,740.5,122.5,740.5,122.5z"/>
<path class="st8" d="M762.9,113.6c15.6,17.1,25.8,22.5,25.2,14.3c-0.4-5.1-0.9-10.3-0.9-10.3s14.1,15.7,20,17.7
	c5.9,2,2.9-9.1,2.9-9.1s10.4,16.9,14,14.7c3.6-2.2-7.3-23.9-11.7-26.4c-4.4-2.5-27.1-13.4-37.4-11.7c-10.3,1.7-22.6,3.2-26.4,6.5
	c-3.8,3.3-25.3,23.1-21.3,25.8c4,2.7,15.4-12.1,15.4-12.1s-3.9,15,5.9,8.7C758.2,125.4,762.9,113.6,762.9,113.6z"/>
<path class="st22" d="M742.9,114.4l-5.1-20l9.7-2.1c0,0,3.2,9.6,9,6.8c5.8-2.8,2.5-16.2,2.5-16.2s7.5,14.6,12.8,13.9
	c5.3-0.7,4.1-13.5,4.1-13.5l10.5,1c0,0-3.1,12.1,3.7,12.9c3.8,0.4,7.8-15.9,7.8-15.9s0.2,17.4,5.1,18.2c6.9,1,9.7-5.4,9.7-5.4
	l8.8,4.9l-7.9,16.7c0,0-18.1-8.7-39.4-9.1C756.3,106.3,742.9,114.4,742.9,114.4z"/>
<path class="st28" d="M764,82.6c-0.5,3-3.3,5-6.5,4.5c-3.1-0.5-5.3-3.3-4.8-6.2c0.5-3,3.3-5,6.5-4.5C762.3,76.8,764.4,79.6,764,82.6
	z"/>
<path class="st28" d="M804,81.9c-0.5,3-3.4,5-6.5,4.5c-3.1-0.5-5.3-3.3-4.8-6.3c0.5-3,3.3-5,6.5-4.5C802.3,76.1,804.4,78.9,804,81.9
	z"/>
<path class="st17" d="M821.4,145.9c0,0,8.3,0,7.8,5.6c-0.5,5.6-3.9,7.6-7.2,7.9c-3.3,0.3-4.7-0.7-4.7-0.7L817,148L821.4,145.9z"/>
<path class="st19" d="M770.5,148.9c0,0-14.3,16.7-14.1,19.1c0.3,2.4,14.1,2.2,14.1,2.2"/>
<path d="M763.9,182c0,0,5,1.5,9.8,0.1c4.8-1.4,8.1-9.1,8.1-9.1s3.5,16-4.3,17.8C769.3,192.7,763.9,182,763.9,182z"/>
<path class="st20" d="M792.1,138.5c5.8,0.9,8.9,4.6,8.4,10.4c-0.5,5.8-4.1,9.8-9.6,9.4c-5.5-0.5-9.1-5.1-8.6-10.9
	C782.8,141.6,786.7,137.7,792.1,138.5z"/>
<path class="st21" d="M788,144.8c1.1,0.1,1.6,0.8,1.5,1.9c-0.1,1.1-0.8,1.8-1.9,1.7c-1.1-0.1-1.8-1-1.7-2
	C786,145.3,787,144.7,788,144.8z"/>
<path class="st20" d="M749.1,135.6c4.9-0.8,8,2.2,8.8,7.4c0.9,5.2-1.3,9.5-6.2,10.3c-4.9,0.8-9.1-2.4-10-7.6
	C740.8,140.5,744.2,136.4,749.1,135.6z"/>
<path class="st21" d="M746.5,141.4c1-0.2,1.6,0.4,1.7,1.4c0.2,1-0.3,1.8-1.3,1.9c-1,0.2-1.8-0.4-2-1.4
	C744.8,142.3,745.5,141.5,746.5,141.4z"/>
<path class="st16" d="M749.2,104.9c-0.2,1.4-1.5,2.3-2.9,2.1c-1.4-0.2-2.3-1.5-2.1-2.9s1.5-2.3,2.9-2.1
	C748.5,102.2,749.4,103.5,749.2,104.9z"/>
<path class="st16" d="M782,98.5c-0.2,1.4-1.5,2.3-2.9,2.1c-1.4-0.2-2.3-1.5-2.1-2.9c0.2-1.4,1.5-2.3,2.9-2.1
	C781.2,95.8,782.2,97.1,782,98.5z"/>
<path class="st16" d="M812.6,106.9c-0.2,1.4-1.5,2.3-2.9,2.1c-1.4-0.2-2.3-1.5-2.1-2.9c0.2-1.4,1.5-2.3,2.9-2.1
	S812.8,105.5,812.6,106.9z"/>
<path class="st29" d="M761.8,213.8c0,0,8.6,2.2,15.6,2.5c6.9,0.3,12.9-0.8,12.9-0.8"/>
<path d="M764.1,214.2c-0.3,1.8-2.1,2.9-3.9,2.6c-1.8-0.4-3-2.1-2.6-3.9c0.3-1.8,2.1-2.9,3.9-2.6
	C763.3,210.7,764.5,212.5,764.1,214.2z"/>
<path d="M793.4,217.2c-0.3,1.8-2.1,2.9-3.9,2.6c-1.8-0.3-3-2.1-2.6-3.9c0.3-1.8,2.1-2.9,3.9-2.6
	C792.6,213.6,793.8,215.4,793.4,217.2z"/>
<path class="st29" d="M758.4,234.2c0,0,8.5,2.8,15.6,2.7c6.9,0,12.8-1.5,12.8-1.5"/>
<path d="M760.7,234.5c-0.3,1.8-1.9,3.1-3.7,2.8c-1.8-0.3-3.1-1.9-2.8-3.7c0.3-1.8,1.9-3.1,3.7-2.8
	C759.7,231.1,761,232.7,760.7,234.5z"/>
<path d="M790.2,235.9c-0.3,1.8-1.9,3.1-3.7,2.8c-1.8-0.3-3.1-1.9-2.8-3.7c0.3-1.8,1.9-3.1,3.7-2.8
	C789.1,232.5,790.4,234.1,790.2,235.9z"/>
<path class="st29" d="M756.3,253.5c0,0,8.5,2.7,15.6,2.8c6.9,0.1,12.9-1.2,12.9-1.2"/>
<path d="M758.6,253.8c-0.3,1.8-2,3-3.8,2.7c-1.8-0.3-3-2-2.7-3.8c0.3-1.8,2-3,3.8-2.7C757.7,250.4,758.9,252.1,758.6,253.8z"/>
<path d="M788,255.9c-0.3,1.8-2,3-3.8,2.7c-1.8-0.3-3-2-2.7-3.8c0.3-1.8,2-3,3.8-2.7C787.1,252.4,788.3,254.1,788,255.9z"/>
<path class="st5" d="M769.8,360.3l0.7,5.8l16-0.4l0-5.6L769.8,360.3z"/>
<path class="st5" d="M698.1,358.6l-8.3-12.4l-4.7,2.7l8.1,12.2L698.1,358.6z"/>
</svg>
