<svg width="515" height="49" viewBox="0 0 515 49" fill="none" xmlns="http://www.w3.org/2000/svg">
<path d="M1.5069 46.2824C1.34036 46.1613 1.18895 46.0251 1.02241 45.8888C0.855867 45.7525 0.780208 45.5709 0.780208 45.374C0.583388 43.4361 0.583372 41.4831 0.810471 39.4997C1.03757 37.5164 1.14355 35.5633 1.14355 33.6254C1.14355 31.203 1.06783 28.7655 0.931571 26.328C0.795311 23.8904 0.64393 21.4377 0.47739 19.0002C0.32599 16.5627 0.189716 14.1251 0.0837358 11.7027C-0.022244 9.28034 -0.0222274 6.87309 0.0534725 4.49611C0.0534725 4.25387 0.129148 3.99649 0.265408 3.70883C0.401668 3.42117 0.613648 3.26977 0.901308 3.22435C1.29495 3.17894 1.77943 3.20921 2.32447 3.28491C2.86951 3.36061 3.3237 3.39089 3.68706 3.34547C3.8536 3.34547 4.15641 3.33033 4.59547 3.31519C5.03452 3.30005 5.51901 3.26977 6.01863 3.25463C6.51825 3.23949 7.00273 3.20921 7.44179 3.19407C7.88085 3.17893 8.18366 3.16379 8.3502 3.16379C8.39562 3.16379 8.54698 3.14865 8.83464 3.10323C9.10716 3.05782 9.42511 3.02754 9.74305 2.98212C10.061 2.9367 10.3638 2.90642 10.6212 2.861C10.8786 2.81558 11.0602 2.80044 11.1359 2.80044C11.3782 2.80044 11.7718 2.7853 12.3169 2.73988C12.8619 2.69446 13.4069 2.69446 13.952 2.73988C14.497 2.7853 14.9966 2.861 15.4357 2.98212C15.8748 3.10324 16.117 3.34547 16.1624 3.70883L16.5863 8.79587C16.6317 9.11381 16.4803 9.38632 16.1624 9.61342C15.8444 9.84052 15.5417 9.96164 15.254 10.0071C14.4516 10.0828 13.634 10.0525 12.8316 9.91622C12.0292 9.77996 11.1965 9.74968 10.3486 9.82538C10.1367 9.82538 9.87932 9.84052 9.56138 9.85566C9.24344 9.8708 8.91035 9.93136 8.56213 10.0071C8.21391 10.0828 7.92627 10.2039 7.68403 10.3704C7.44179 10.537 7.32064 10.7792 7.32064 11.0971C7.44176 12.7171 7.44176 14.3825 7.32064 16.1236C7.19952 17.8647 7.21468 19.5604 7.38122 21.2106C7.38122 21.4075 7.39637 21.68 7.44179 21.9979C7.47207 22.3159 7.59317 22.5884 7.80513 22.7852C7.97167 22.9063 8.21391 22.9972 8.56213 23.0577C8.91035 23.1183 9.25859 23.1486 9.62195 23.1486C9.98531 23.1486 10.3335 23.1334 10.6515 23.1183C10.9694 23.1031 11.2117 23.088 11.3782 23.088C11.5447 23.088 11.8475 23.0729 12.2866 23.0274C12.7256 22.982 13.195 22.9366 13.6795 22.876C14.1639 22.8155 14.6332 22.7701 15.0723 22.7246C15.5114 22.6792 15.8142 22.6641 15.9807 22.6641C16.1018 22.6641 16.2078 22.7398 16.2835 22.876C16.3592 23.0123 16.4046 23.1334 16.4046 23.2091L16.8285 27.1455C16.874 27.5089 16.7831 27.8722 16.556 28.2356C16.3289 28.599 16.0564 28.7958 15.7385 28.8412C14.8452 28.9623 13.9671 28.9472 13.0739 28.8109C12.1806 28.6747 11.2722 28.6444 10.3486 28.7201C9.77332 28.7958 9.3797 28.9472 9.13746 29.1743C8.89522 29.4014 8.72867 29.6739 8.65297 29.9918C8.57727 30.3098 8.53187 30.6731 8.53187 31.0819V32.3537C8.53187 32.4748 8.51672 32.7624 8.4713 33.2318C8.42588 33.7011 8.38045 34.1856 8.31989 34.7155C8.25933 35.2454 8.2139 35.7299 8.16848 36.1689C8.12306 36.608 8.0928 36.8957 8.04738 37.0168C8.12308 37.0622 8.15337 37.1833 8.10795 37.3801C8.06253 37.577 8.09278 37.7435 8.16848 37.8646C8.16848 38.1069 8.21392 38.3945 8.28962 38.7427C8.36532 39.091 8.59243 39.2575 8.95579 39.2575H10.3638H12.4834H14.603H15.9656C16.6166 39.2575 17.1919 39.3181 17.7218 39.4392C18.2517 39.5603 18.6151 39.9994 18.8119 40.7715C18.8119 40.8472 18.8422 41.044 18.9028 41.3468C18.9633 41.6496 19.0239 41.9978 19.0844 42.3763C19.145 42.7548 19.2055 43.1485 19.2661 43.527C19.3267 43.9055 19.3721 44.2083 19.4175 44.4051V44.7684C19.4932 45.3286 19.357 45.6617 18.9936 45.7374C18.6302 45.8131 18.2214 45.9039 17.7824 45.9796C16.0867 46.1765 14.391 46.237 12.6954 46.131C10.9997 46.0251 9.30398 45.9645 7.60831 45.9191C7.48719 45.8737 7.18438 45.8888 6.6999 45.9494C6.21542 46.0099 5.92776 46.0402 5.85206 46.0402C5.68552 46.0402 5.39788 46.0553 4.97396 46.0705C4.55005 46.0856 4.11098 46.1159 3.64164 46.1613C3.1723 46.2067 2.7484 46.237 2.33962 46.2522C1.94598 46.2673 1.6583 46.2824 1.5069 46.2824Z" fill="white"/>
<path d="M27.8967 42.8911C27.609 40.6352 27.5334 38.3037 27.6545 35.9267C27.7756 33.5497 27.7907 31.203 27.715 28.9018C27.6393 26.7216 27.5182 24.5869 27.3517 22.5127C27.1851 20.4385 27.1246 18.3038 27.17 16.1236C27.17 13.7769 27.1851 11.5968 27.2003 9.58315C27.2154 7.56953 27.064 5.41965 26.7461 3.1638C26.8218 2.51278 27.1549 2.0283 27.7453 1.68008C28.3358 1.33186 28.9111 1.1199 29.4713 1.0442C30.1223 0.968502 30.8339 0.968502 31.6212 1.0442C32.4084 1.1199 33.0594 1.4227 33.5893 1.9526C33.5893 2.0283 33.6045 2.19484 33.6196 2.43708C33.6347 2.67932 33.6499 2.84586 33.6499 2.92156C33.8165 4.32958 33.7862 5.87385 33.5893 7.52411C33.3925 9.17437 33.332 10.6884 33.4077 12.0661C33.4077 12.2326 33.438 12.8382 33.4985 13.9132C33.5591 14.9881 33.6348 16.1993 33.7105 17.5771C33.7862 18.9548 33.8619 20.3325 33.9527 21.7254C34.0284 23.1183 34.089 24.2235 34.1344 25.0259C34.2555 26.9638 34.3312 28.8563 34.3463 30.6883C34.3615 32.5202 34.4826 34.3976 34.6794 36.2901C34.8005 37.0622 35.1336 37.5013 35.6787 37.6224C36.2237 37.7435 36.8142 37.7889 37.4652 37.7738C38.1162 37.7586 38.7066 37.7586 39.2517 37.8041C39.7967 37.8495 40.1147 38.1826 40.1904 38.8336C40.1904 40.1205 40.1601 41.1651 40.0996 41.9524C40.039 42.7397 39.9481 43.4513 39.827 44.1023C39.7059 44.7533 39.5091 45.0713 39.2214 45.0713C39.176 45.1167 39.1155 45.1318 39.0095 45.1318H38.7975C37.2684 45.0561 35.6938 44.9804 34.0738 44.9198C32.4539 44.8593 30.8339 44.7533 29.229 44.5868C28.6991 44.5414 28.366 44.3899 28.2298 44.1326C28.0935 43.8601 27.9875 43.4513 27.8967 42.8911Z" fill="white"/>
<path d="M66.8206 40.9531C66.866 40.8774 66.8357 40.6957 66.7297 40.408C66.6238 40.1204 66.5026 39.8176 66.3663 39.4693C66.2301 39.1211 66.0787 38.8032 65.9424 38.5004C65.8062 38.1976 65.7153 37.9705 65.6699 37.804V35.6844V33.6253C65.6699 33.3831 65.685 32.8532 65.7002 32.0205C65.7153 31.1878 65.7456 30.3097 65.7608 29.3558C65.7759 28.402 65.7911 27.5239 65.8213 26.6912C65.8365 25.8585 65.8516 25.3286 65.8516 25.0864V21.3317C65.897 21.044 65.9273 20.5898 65.9424 19.9691C65.9576 19.3483 65.9878 18.6973 66.0333 18.0311C66.0787 17.365 66.109 16.7594 66.1241 16.1841C66.1392 15.6239 66.1696 15.2302 66.215 15.0334C66.215 14.9577 66.2301 14.7004 66.2755 14.2764C66.3058 13.8525 66.3815 13.5649 66.4572 13.3983C66.5783 12.717 66.654 11.9903 66.6994 11.2182C66.7448 10.446 66.866 9.7193 67.0628 9.038C67.3051 8.38698 67.6835 7.62998 68.2134 6.73672C68.7433 5.84347 69.3792 5.01077 70.1211 4.22349C70.8629 3.43621 71.6805 2.75491 72.5737 2.19473C73.467 1.63455 74.3905 1.34689 75.3595 1.34689C76.0862 1.34689 76.6464 1.36203 77.0552 1.40745C77.4639 1.45287 77.8122 1.52857 78.115 1.64969C78.4178 1.77081 78.6903 1.96763 78.9326 2.22501C79.1748 2.48239 79.4776 2.86089 79.841 3.34537C79.841 3.42107 79.8864 3.51191 79.9621 3.58761L80.0832 3.70873V9.28024L79.5987 9.6436C77.7819 9.7193 76.3436 10.1129 75.2687 10.7942C74.1937 11.4755 73.4822 12.5505 73.1188 14.0039C73.0734 14.3219 73.028 14.8669 72.9674 15.6087C72.9068 16.3506 72.8311 17.1379 72.7554 17.9706C72.6797 18.8033 72.5889 19.5906 72.5132 20.3324C72.4375 21.0743 72.3921 21.589 72.3921 21.8767V24.2385C72.3921 25.7677 72.4072 27.206 72.4223 28.5383C72.4375 29.8706 72.4829 31.3392 72.5737 32.9592C72.6494 34.1249 72.8917 35.0788 73.3005 35.8055C73.7093 36.5322 74.1937 37.1075 74.7539 37.5314C75.3141 37.9554 75.9197 38.2733 76.5707 38.5004C77.2217 38.7275 77.8273 38.9092 78.3875 39.0454C78.9477 39.1817 79.4322 39.3482 79.841 39.5299C80.2497 39.7116 80.492 39.969 80.5677 40.2869V41.922C80.5677 42.24 80.5828 42.6336 80.6282 43.1029C80.6736 43.5723 80.6585 44.0265 80.598 44.4958C80.5374 44.9652 80.4011 45.3739 80.2043 45.7373C80.0075 46.1007 79.6441 46.3429 79.1142 46.464H77.4791C75.0567 46.464 72.9068 46.0401 71.0295 45.1923C69.1521 44.3444 67.7441 42.9213 66.8206 40.9531Z" fill="white"/>
<path d="M103.279 45.919C103.082 45.8433 102.87 45.707 102.673 45.5253C102.476 45.3437 102.355 45.1468 102.31 44.95L100.856 32.1113C100.856 31.9448 100.781 31.8085 100.644 31.6874C100.508 31.5663 100.372 31.5209 100.251 31.5663L93.2258 32.2324L94.3764 42.8304C94.4521 43.4814 94.6338 44.0719 94.9215 44.6169C95.2092 45.162 95.3757 45.7373 95.4665 46.3429C95.5119 46.5851 95.4817 46.7365 95.406 46.7971C95.3303 46.8577 95.1486 46.9031 94.8609 46.9485C94.7852 46.9485 94.6641 46.9636 94.5279 46.9788C94.3916 46.9939 94.3008 47.0091 94.2553 47.0091H93.4983C93.1501 47.0091 92.8019 47.0242 92.4385 47.0393C92.0752 47.0545 91.7421 47.0848 91.4393 47.0999C91.1365 47.115 90.9397 47.1302 90.864 47.1302C90.1373 47.1302 89.562 47.0545 89.1078 46.8879C88.6536 46.7214 88.3204 46.4792 88.0782 46.1612C87.836 45.8433 87.6694 45.4496 87.5635 44.9803C87.4575 44.5261 87.3666 43.9811 87.2909 43.3755C87.0941 41.1499 86.9276 38.9395 86.8065 36.7442C86.6853 34.5489 86.5794 32.3081 86.5037 30.0523C86.5037 30.0069 86.4885 29.7949 86.4734 29.3861C86.4582 28.9925 86.4128 28.5231 86.3825 27.9932C86.3371 27.4634 86.3069 26.9486 86.2614 26.449C86.216 25.9494 86.1857 25.5557 86.1403 25.2681C86.0646 23.7389 86.1252 22.3158 86.3523 21.0289C86.5794 19.742 86.8216 18.3188 87.1093 16.7897C86.867 16.1084 86.9125 15.3817 87.2607 14.6095C87.6089 13.8374 87.8814 13.1561 88.0782 12.5505C88.1539 12.2325 88.2145 11.9297 88.2296 11.6421C88.2448 11.3544 88.3205 11.0365 88.4416 10.6731C88.4416 10.6277 88.4567 10.5671 88.5021 10.4612C88.5324 10.3552 88.5779 10.3098 88.6233 10.3098C89.0623 9.50734 89.456 8.68978 89.7739 7.85709C90.0919 7.02439 90.546 6.20683 91.1062 5.40441C91.4696 4.91993 91.9086 4.42031 92.4385 3.92069C92.9684 3.42107 93.5286 2.93659 94.1342 2.49753C94.7398 2.05848 95.3757 1.69512 96.0418 1.40746C96.708 1.1198 97.3591 0.938117 98.0101 0.862418C99.8269 0.695878 101.235 0.953257 102.249 1.61942C103.264 2.28558 104.051 3.14855 104.641 4.19321C105.217 5.23787 105.671 6.40365 106.004 7.67541C106.322 8.94716 106.685 10.1281 107.094 11.2182C107.094 11.3393 107.124 11.5664 107.185 11.8843C107.245 12.2023 107.291 12.5505 107.336 12.9138C107.382 13.2772 107.427 13.6103 107.488 13.9131C107.548 14.2159 107.579 14.4278 107.579 14.549C107.866 17.2136 108.033 19.8934 108.093 22.6034C108.154 25.3135 108.245 27.9932 108.366 30.6579C108.366 31.3392 108.32 32.0508 108.214 32.7775C108.108 33.5042 108.078 34.2158 108.124 34.8971C108.124 34.9728 108.139 35.1847 108.184 35.533C108.214 35.8812 108.26 36.2445 108.305 36.6533C108.336 37.0621 108.396 37.4255 108.457 37.7737C108.517 38.1219 108.547 38.3339 108.547 38.4096V40.408C108.547 40.4837 108.563 40.6957 108.578 41.0439C108.593 41.3921 108.623 41.7555 108.638 42.1643C108.653 42.573 108.684 42.9364 108.699 43.2846C108.714 43.6328 108.729 43.8599 108.729 43.9811C108.729 44.2233 108.684 44.5867 108.608 45.0711C108.532 45.5556 108.26 45.8433 107.821 45.919H107.7C107.654 45.919 107.533 45.9038 107.306 45.8584C107.079 45.8281 106.958 45.7979 106.912 45.7979C106.791 45.7979 106.549 45.813 106.186 45.8281C105.822 45.8433 105.444 45.8584 105.065 45.8584C104.687 45.8584 104.323 45.8736 103.975 45.8887C103.627 45.9038 103.4 45.919 103.279 45.919ZM93.3469 24.1174C93.3924 24.6019 93.6649 24.9501 94.1948 25.1469C94.7247 25.3438 95.3303 25.48 96.0116 25.5406C96.6929 25.6011 97.3893 25.6163 98.0706 25.6011C98.7519 25.586 99.2818 25.5557 99.6452 25.5103C99.7209 25.5103 99.8874 25.4952 100.13 25.48C100.372 25.4649 100.538 25.4497 100.614 25.4497C100.69 25.3286 100.75 25.2226 100.796 25.1167C100.841 25.0107 100.872 24.9047 100.917 24.7836C100.917 24.5413 100.902 24.1477 100.856 23.6027C100.811 23.0576 100.781 22.4672 100.766 21.8161C100.75 21.1803 100.72 20.5747 100.705 20.0296C100.69 19.4846 100.675 19.0909 100.675 18.8487C100.72 18.773 100.735 18.5913 100.735 18.3037V17.6981L100.13 11.8238C100.084 11.5361 99.9934 11.2182 99.8268 10.8548C99.6603 10.4914 99.4635 10.1584 99.2213 9.85556C98.979 9.55276 98.6913 9.31052 98.3431 9.12884C97.9949 8.94716 97.6467 8.87146 97.2833 8.91688C96.9654 8.9623 96.6626 9.05314 96.3749 9.21968C95.0426 10.5974 94.2099 12.0206 93.892 13.5194C93.5741 15.0183 93.3924 16.6534 93.3469 18.4248C93.3469 19.3937 93.3318 20.3476 93.2864 21.2711C93.2409 22.1946 93.2561 23.1485 93.3469 24.1174Z" fill="white"/>
<path d="M112.725 36.6533C113.012 35.8812 113.527 35.3967 114.269 35.1696C115.011 34.9425 115.904 34.882 116.934 34.9879C117.963 35.0939 119.114 35.2756 120.385 35.5633C121.657 35.8509 122.974 36.1083 124.352 36.3505C124.912 36.3051 125.412 36.1689 125.836 35.9266C126.26 35.6844 126.653 35.3664 127.017 34.9879C127.38 34.6094 127.728 34.1704 128.046 33.6859C128.364 33.2014 128.712 32.7169 129.076 32.2325C129.106 32.2022 129.151 32.0962 129.197 31.9599C129.227 31.8237 129.257 31.7328 129.257 31.6874L129.015 28.1144C128.94 28.069 128.682 27.8722 128.258 27.5088C127.834 27.1454 127.501 26.8578 127.259 26.661C127.183 26.5853 127.032 26.4641 126.805 26.3279C126.578 26.1916 126.426 26.1159 126.351 26.1159C124.943 25.5103 123.61 25.0258 122.384 24.6625C121.142 24.2991 120.007 23.8752 118.932 23.3604C117.857 22.8608 116.888 22.1644 116.025 21.3014C115.162 20.4384 114.405 19.1969 113.754 17.577C113.754 17.4559 113.739 17.2742 113.724 17.0319C113.709 16.7897 113.678 16.5323 113.633 16.2749C113.588 16.0176 113.557 15.7753 113.542 15.5482C113.527 15.3211 113.512 15.1697 113.512 15.094C113.466 14.5338 113.421 13.9282 113.361 13.2772C113.3 12.6262 113.376 12.0206 113.572 11.4604C113.603 11.2939 113.694 11.0062 113.815 10.5823C113.936 10.1584 114.072 9.71932 114.239 9.28026C114.405 8.84121 114.557 8.41729 114.693 8.00851C114.829 7.59973 114.92 7.32721 114.965 7.16067V6.85787C115.208 6.49451 115.435 6.22199 115.632 6.01003C115.828 5.81321 116.025 5.60125 116.207 5.37415C116.389 5.14705 116.54 4.98051 116.661 4.85939C117.993 3.37567 119.311 2.24018 120.628 1.46804C121.93 0.695898 123.535 0.211419 125.442 0.0145993C125.972 -0.0308207 126.729 0.0297392 127.743 0.196279C128.758 0.362819 129.757 0.605058 130.771 0.922998C131.786 1.24094 132.664 1.66486 133.436 2.16448C134.208 2.66409 134.602 3.22427 134.647 3.82987C134.693 4.19323 134.662 4.67771 134.587 5.28331C134.511 5.88891 134.375 6.49451 134.193 7.10011C134.011 7.70571 133.769 8.23561 133.466 8.70495C133.164 9.17428 132.815 9.41652 132.407 9.46194C131.362 9.53764 130.302 9.53764 129.257 9.43166C128.213 9.32568 127.153 9.32568 126.108 9.40138C125.912 9.40138 125.488 9.4468 124.867 9.5225C124.246 9.5982 123.822 9.64362 123.625 9.64362C123.504 9.71932 123.307 9.81016 123.05 9.91614C122.793 10.0221 122.52 10.1432 122.263 10.3098C122.005 10.4763 121.778 10.6277 121.597 10.7943C121.415 10.9608 121.324 11.1122 121.324 11.2787L121.627 14.9123C121.627 15.1092 121.763 15.306 122.021 15.4877C122.278 15.6693 122.566 15.851 122.868 16.0327C123.171 16.2144 123.489 16.3809 123.807 16.5172C124.125 16.6534 124.352 16.7443 124.473 16.7897C126.093 17.5618 127.562 18.2885 128.894 18.9698C130.226 19.6511 131.377 20.4687 132.346 21.3922C133.315 22.3158 134.087 23.421 134.678 24.6928C135.268 25.9645 135.631 27.5542 135.798 29.4467C135.965 31.097 135.843 32.7321 135.465 34.3521C135.086 35.972 134.451 37.4103 133.588 38.6821C132.725 39.9539 131.619 41.0137 130.287 41.8615C128.955 42.7093 127.441 43.209 125.745 43.3755C124.337 43.542 122.884 43.5572 121.385 43.4361C119.886 43.3149 118.523 43.0121 117.297 42.5277C116.071 42.0432 115.026 41.3316 114.178 40.3778C113.33 39.424 112.846 38.1825 112.725 36.6533Z" fill="white"/>
<path d="M147.183 46.1612C147.228 45.9947 147.213 45.6616 147.152 45.162C147.092 44.6624 147.062 44.3293 147.062 44.1628C146.986 42.9061 146.986 41.7101 147.092 40.5594C147.198 39.4088 147.319 38.1825 147.486 36.8956C147.531 36.8199 147.531 36.6987 147.486 36.5625C147.44 36.4262 147.425 36.3354 147.425 36.29C147.425 35.2756 147.501 34.2915 147.637 33.3225C147.773 32.3536 147.864 31.3695 147.909 30.3551C147.985 28.4626 147.97 26.6004 147.849 24.7836C147.728 22.9668 147.682 21.1349 147.728 19.2726C147.728 19.1061 147.743 18.8639 147.758 18.5459C147.773 18.228 147.788 17.8949 147.819 17.577C147.834 17.259 147.864 16.9562 147.879 16.6988C147.894 16.4415 147.909 16.2598 147.909 16.1841C147.909 16.1084 147.925 15.9267 147.97 15.639C148.015 15.3514 148.046 15.0637 148.091 14.7609C148.137 14.4581 148.167 14.1705 148.212 13.9131C148.258 13.6557 148.273 13.474 148.273 13.3983V13.2166C148.273 12.929 148.167 12.717 147.97 12.5808C147.773 12.4445 147.561 12.3537 147.364 12.3082C146.153 12.3839 144.987 12.3991 143.882 12.3385C142.777 12.278 141.611 12.2931 140.4 12.3688C140.082 12.2931 139.779 12.1417 139.492 11.9449C139.492 11.7481 139.476 11.3696 139.431 10.8245C139.386 10.2795 139.355 9.93127 139.31 9.76473C139.265 9.40137 139.204 8.8412 139.098 8.06906C138.992 7.29692 138.931 6.52478 138.916 5.7375C138.901 4.95022 138.962 4.23864 139.128 3.6179C139.295 2.99716 139.628 2.63381 140.158 2.55811H140.4L160.566 2.73979C160.854 2.73979 161.066 2.83062 161.233 3.0123C161.399 3.19398 161.52 3.40594 161.626 3.64818C161.732 3.89042 161.793 4.1478 161.838 4.40518C161.884 4.66256 161.899 4.87452 161.899 5.04106C161.899 5.08648 161.914 5.23788 161.929 5.49526C161.944 5.75264 161.975 6.05544 162.02 6.40366C162.05 6.75188 162.096 7.08496 162.141 7.43318C162.171 7.7814 162.202 8.06906 162.202 8.3113C162.202 8.43242 162.217 8.62924 162.232 8.91689C162.247 9.20455 162.277 9.50735 162.292 9.85557C162.308 10.2038 162.338 10.5217 162.353 10.8245C162.368 11.1273 162.383 11.3393 162.383 11.4604C162.383 11.6572 162.323 11.8692 162.202 12.066C162.08 12.2628 161.914 12.3839 161.717 12.4294C160.703 12.5959 159.703 12.6716 158.689 12.6716C157.675 12.6716 156.675 12.7322 155.661 12.8533C155.464 12.8987 155.283 12.8987 155.116 12.8836C154.95 12.8684 154.768 12.9593 154.571 13.1561C154.329 13.4437 154.177 13.7768 154.117 14.1856C154.056 14.5944 154.026 15.0032 154.026 15.4271C154.026 15.851 154.041 16.2749 154.087 16.6988C154.132 17.1228 154.147 17.5013 154.147 17.8192C153.95 22.3461 153.844 26.8729 153.844 31.4149C153.844 35.9569 154.132 40.4535 154.692 44.8895C154.692 45.2074 154.632 45.6162 154.541 46.1007C154.435 46.5852 154.162 46.8425 153.723 46.888H153.663C153.587 46.888 153.42 46.8728 153.178 46.8577C152.936 46.8425 152.663 46.8123 152.361 46.7668C152.058 46.7214 151.785 46.7063 151.543 46.7063H151.119C150.877 46.6609 150.559 46.6609 150.18 46.7063C149.802 46.7517 149.408 46.7668 149.03 46.7668C148.651 46.7668 148.288 46.7214 147.94 46.6457C147.591 46.5549 147.334 46.4035 147.183 46.1612Z" fill="white"/>
<path d="M166.744 43.6783C166.744 43.6026 166.759 43.5118 166.805 43.4058C166.85 43.2998 166.85 43.2393 166.805 43.1939C166.85 42.664 166.896 42.0281 166.986 41.2862C167.062 40.5444 167.213 39.9236 167.41 39.4392C167.531 39.1515 167.728 38.9395 168.016 38.8033C168.288 38.667 168.591 38.5459 168.894 38.4399C169.197 38.3339 169.484 38.2431 169.772 38.1371C170.06 38.0311 170.272 37.8646 170.438 37.6224C170.484 37.6224 170.514 37.5618 170.529 37.4407C170.544 37.3196 170.559 37.2136 170.559 37.1379C170.559 37.0622 170.575 36.8956 170.59 36.6534C170.605 36.4112 170.635 36.1386 170.65 35.8358C170.665 35.533 170.681 35.2454 170.681 34.9577V34.3521C170.559 31.0819 170.529 27.8268 170.59 24.602C170.65 21.3772 170.575 18.1372 170.378 14.9124C170.378 14.8367 170.363 14.6702 170.317 14.4279C170.287 14.1857 170.241 13.9283 170.226 13.6406C170.211 13.353 170.181 13.0956 170.166 12.8534C170.151 12.6111 170.135 12.4294 170.135 12.3083C170.06 11.945 169.863 11.7179 169.56 11.6422C169.257 11.5665 168.924 11.4756 168.561 11.3999C168.198 11.3242 167.88 11.188 167.592 11.0063C167.304 10.8246 167.138 10.4915 167.107 10.007C167.107 9.96162 167.092 9.93134 167.077 9.88592C167.062 9.8405 167.047 9.81022 167.047 9.7648V8.52332C167.047 7.93287 167.062 7.31213 167.077 6.64597C167.092 5.97981 167.107 5.35907 167.107 4.76861V3.58769C167.183 3.26975 167.289 2.86097 167.41 2.37649C167.531 1.89202 167.759 1.60436 168.076 1.52866L168.198 1.58922H168.319C168.924 1.71034 169.772 1.75576 170.862 1.74062C171.952 1.72548 173.057 1.74062 174.193 1.80118C175.328 1.86174 176.388 1.998 177.372 2.22509C178.356 2.45219 179.053 2.84583 179.462 3.40601C179.659 3.64825 179.765 4.02675 179.765 4.55665C179.765 5.08655 179.78 5.48019 179.825 5.76785C179.946 7.50895 179.901 8.72014 179.674 9.40144C179.447 10.0827 179.189 10.5521 178.886 10.7943C178.584 11.0366 178.266 11.2031 177.948 11.2788C177.63 11.3545 177.418 11.6876 177.342 12.2478C177.054 13.9434 176.903 15.6391 176.858 17.3348C176.812 19.0305 176.827 20.7261 176.888 22.4218C176.948 24.1175 177.039 25.798 177.16 27.4786C177.282 29.1591 177.372 30.8396 177.463 32.5353V33.1712V34.2916C177.463 34.7003 177.478 35.0637 177.494 35.4119C177.509 35.7601 177.524 35.9721 177.524 36.0478V36.5323C177.569 37.0168 177.751 37.3347 178.069 37.5012C178.387 37.6678 178.75 37.8192 179.159 37.9554C179.568 38.0917 179.931 38.2734 180.279 38.5005C180.628 38.7276 180.839 39.1364 180.915 39.742C180.915 40.0296 180.93 40.4384 180.945 40.9834C180.961 41.5285 180.93 42.0735 180.855 42.6185C180.779 43.1636 180.627 43.6632 180.4 44.1023C180.173 44.5413 179.825 44.7836 179.341 44.829C178.538 44.9955 177.615 45.0258 176.585 44.9501C175.556 44.8744 174.632 44.8744 173.83 44.9501C173.709 44.9501 173.421 44.9804 172.952 45.0409C172.482 45.1015 171.998 45.1621 171.498 45.2226C170.998 45.2832 170.514 45.3286 170.045 45.374C169.575 45.4194 169.288 45.4346 169.167 45.4346C168.606 45.48 168.076 45.3589 167.592 45.1015C167.107 44.829 166.82 44.3596 166.744 43.6783Z" fill="white"/>
<path d="M189.395 42.8911C189.107 40.6352 189.031 38.3037 189.153 35.9267C189.274 33.5497 189.289 31.203 189.213 28.9018C189.137 26.7216 189.016 24.5869 188.85 22.5127C188.683 20.4385 188.623 18.3038 188.668 16.1236C188.668 13.7769 188.683 11.5968 188.698 9.58315C188.714 7.56953 188.562 5.41965 188.244 3.1638C188.32 2.51278 188.653 2.0283 189.243 1.68008C189.834 1.33186 190.409 1.1199 190.969 1.0442C191.62 0.968502 192.332 0.968502 193.119 1.0442C193.906 1.1199 194.558 1.4227 195.087 1.9526C195.087 2.0283 195.103 2.19484 195.118 2.43708C195.133 2.67932 195.148 2.84586 195.148 2.92156C195.315 4.32958 195.284 5.87385 195.087 7.52411C194.891 9.17437 194.83 10.6884 194.906 12.0661C194.906 12.2326 194.936 12.8382 194.997 13.9132C195.057 14.9881 195.133 16.1993 195.209 17.5771C195.284 18.9548 195.36 20.3325 195.451 21.7254C195.526 23.1183 195.587 24.2235 195.632 25.0259C195.754 26.9638 195.829 28.8563 195.844 30.6883C195.86 32.5202 195.981 34.3976 196.178 36.2901C196.299 37.0622 196.632 37.5013 197.177 37.6224C197.722 37.7435 198.312 37.7889 198.963 37.7738C199.614 37.7586 200.205 37.7586 200.75 37.8041C201.295 37.8495 201.613 38.1826 201.688 38.8336C201.688 40.1205 201.658 41.1651 201.598 41.9524C201.537 42.7397 201.446 43.4513 201.325 44.1023C201.204 44.7533 201.007 45.0713 200.72 45.0713C200.674 45.1167 200.614 45.1318 200.508 45.1318H200.296C198.766 45.0561 197.192 44.9804 195.572 44.9198C193.952 44.8593 192.332 44.7533 190.727 44.5868C190.197 44.5414 189.864 44.3899 189.728 44.1326C189.576 43.8601 189.47 43.4513 189.395 42.8911Z" fill="white"/>
<path d="M210.166 42.8911C209.879 40.6352 209.803 38.3037 209.924 35.9267C210.045 33.5497 210.06 31.203 209.985 28.9018C209.909 26.7216 209.773 24.5869 209.621 22.5127C209.455 20.4385 209.394 18.3038 209.44 16.1236C209.44 13.7769 209.455 11.5968 209.47 9.58315C209.485 7.56953 209.334 5.41965 209.016 3.1638C209.091 2.51278 209.424 2.0283 210.015 1.68008C210.605 1.33186 211.181 1.1199 211.741 1.0442C212.392 0.968502 213.103 0.968502 213.891 1.0442C214.678 1.1199 215.329 1.4227 215.859 1.9526C215.859 2.0283 215.874 2.19484 215.889 2.43708C215.904 2.67932 215.919 2.84586 215.919 2.92156C216.071 4.32958 216.056 5.87385 215.859 7.52411C215.662 9.17437 215.602 10.6884 215.677 12.0661C215.677 12.2326 215.708 12.8382 215.768 13.9132C215.829 14.9881 215.904 16.1993 215.98 17.5771C216.056 18.9548 216.147 20.3325 216.222 21.7254C216.298 23.1183 216.359 24.2235 216.404 25.0259C216.525 26.9638 216.601 28.8563 216.616 30.6883C216.631 32.5202 216.752 34.3976 216.949 36.2901C217.07 37.0622 217.403 37.5013 217.948 37.6224C218.493 37.7435 219.084 37.7889 219.735 37.7738C220.386 37.7586 220.976 37.7586 221.521 37.8041C222.066 37.8495 222.384 38.1826 222.46 38.8336C222.46 40.1205 222.43 41.1651 222.369 41.9524C222.309 42.7397 222.218 43.4513 222.097 44.1023C221.975 44.7533 221.779 45.0713 221.491 45.0713C221.446 45.1167 221.385 45.1318 221.279 45.1318H221.067C219.538 45.0561 217.963 44.9804 216.343 44.9198C214.723 44.8593 213.119 44.7533 211.499 44.5868C210.969 44.5414 210.636 44.3899 210.499 44.1326C210.348 43.8601 210.242 43.4513 210.166 42.8911Z" fill="white"/>
<path d="M230.453 36.0477C230.408 35.8812 230.378 35.6692 230.362 35.3816C230.347 35.0939 230.317 34.8214 230.302 34.5337C230.287 34.2461 230.256 34.0038 230.241 33.7767C230.226 33.5496 230.211 33.3982 230.211 33.3225C230.166 32.5504 230.135 31.5511 230.09 30.3248C230.045 29.0985 230.014 27.8721 229.969 26.6609C229.923 25.4497 229.893 24.3748 229.848 23.4513C229.802 22.5277 229.787 21.9978 229.787 21.8767C229.787 20.6655 229.817 19.3483 229.878 17.91C229.939 16.4717 230.075 15.0183 230.272 13.5497C230.468 12.0811 230.802 10.6428 231.271 9.24996C231.74 7.85708 232.346 6.6156 233.118 5.52552C233.89 4.43544 234.859 3.54219 236.055 2.86089C237.251 2.17959 238.689 1.77081 240.385 1.64969H241.596C242.732 1.81623 243.822 2.05847 244.867 2.40669C245.911 2.75491 246.865 3.20911 247.713 3.79957C248.561 4.39002 249.303 5.08646 249.923 5.88888C250.544 6.6913 251.029 7.66026 251.346 8.79576C251.392 8.9623 251.437 9.35594 251.498 9.97668C251.558 10.5974 251.589 11.0213 251.589 11.2182C251.589 11.5361 251.604 12.0206 251.619 12.6413C251.634 13.2621 251.649 13.6254 251.649 13.7011C251.649 14.1099 251.664 14.988 251.68 16.3355C251.695 17.6829 251.725 19.1666 251.77 20.7563C251.801 22.346 251.846 23.9055 251.861 25.4195C251.876 26.9335 251.891 28.0538 251.891 28.7805C251.891 29.7949 251.907 30.9455 251.922 32.2627C251.937 33.5799 251.907 34.9425 251.801 36.3505C251.695 37.7585 251.513 39.1514 251.256 40.5291C250.998 41.9069 250.559 43.1332 249.954 44.2233C249.348 45.3134 248.561 46.2066 247.592 46.9182C246.623 47.6298 245.381 48.0234 243.898 48.0991C242.611 48.1748 241.384 48.0991 240.234 47.8569C239.083 47.6147 237.902 47.2967 236.691 46.8879C235.48 46.5246 234.496 45.9644 233.724 45.1923C232.951 44.4201 232.346 43.542 231.876 42.5276C231.407 41.5132 231.074 40.4534 230.847 39.318C230.62 38.1825 230.484 37.0924 230.453 36.0477ZM238.508 35.6238C238.583 36.4716 238.841 37.2286 239.265 37.8948C239.689 38.561 240.385 38.8486 241.354 38.7729C242.005 38.7275 242.49 38.5458 242.807 38.1976C243.125 37.8494 243.353 37.4255 243.504 36.9258C243.64 36.4262 243.731 35.8812 243.746 35.321C243.761 34.7608 243.792 34.2309 243.837 33.7464V33.2317C243.837 32.9743 243.852 32.6866 243.867 32.3838C243.882 32.081 243.898 31.7934 243.898 31.536V31.0818C244.019 29.0228 244.079 27.1303 244.079 25.4195C244.079 23.7086 244.019 21.8161 243.898 19.7571C243.898 19.5149 243.882 19.1212 243.837 18.5762C243.792 18.0311 243.761 17.4407 243.716 16.8199C243.67 16.1992 243.64 15.6087 243.595 15.0637C243.549 14.5187 243.534 14.125 243.534 13.8828C243.459 13.6406 243.307 13.3075 243.08 12.8836C242.853 12.4596 242.611 12.0509 242.353 11.6724C242.096 11.2939 241.793 10.9608 241.445 10.6731C241.097 10.3855 240.764 10.2492 240.446 10.2492C240.037 10.2946 239.689 10.4763 239.386 10.8245C239.083 11.1727 238.841 11.5815 238.659 12.066C238.477 12.5505 238.341 13.0501 238.235 13.5497C238.129 14.0493 238.069 14.4732 238.023 14.7912C237.978 14.8669 237.948 15.0788 237.902 15.3968C237.857 15.7147 237.811 16.0781 237.751 16.4869C237.69 16.8956 237.63 17.2741 237.569 17.6375C237.509 18.0009 237.478 18.228 237.478 18.3037V19.1515V20.7866C237.478 21.3922 237.463 21.9827 237.448 22.5731C237.433 23.1636 237.418 23.6178 237.418 23.9357V24.4202C237.418 24.4959 237.433 24.5565 237.448 24.6019C237.463 24.6473 237.478 24.7079 237.478 24.7836V25.0258C237.524 25.4346 237.584 26.131 237.69 27.1454C237.796 28.1598 237.902 29.2196 238.023 30.3248C238.144 31.43 238.25 32.4898 238.326 33.5042C238.402 34.5034 238.462 35.215 238.508 35.6238Z" fill="white"/>
<path d="M278.872 46.2824C278.706 46.1613 278.554 46.0251 278.388 45.8888C278.221 45.7525 278.145 45.5709 278.145 45.374C277.949 43.4361 277.949 41.4831 278.176 39.4997C278.388 37.5164 278.509 35.5633 278.509 33.6254C278.509 31.203 278.433 28.7655 278.297 26.328C278.161 23.8904 278.009 21.4377 277.843 19.0002C277.676 16.5627 277.555 14.1251 277.449 11.7027C277.343 9.28034 277.343 6.87309 277.419 4.49611C277.419 4.25387 277.494 3.99649 277.631 3.70883C277.767 3.42117 277.979 3.26977 278.267 3.22435C278.675 3.17894 279.145 3.20921 279.69 3.28491C280.235 3.36061 280.689 3.39089 281.052 3.34547C281.219 3.34547 281.522 3.33033 281.961 3.31519C282.4 3.30005 282.884 3.26977 283.384 3.25463C283.883 3.23949 284.368 3.20921 284.807 3.19407C285.246 3.17893 285.549 3.16379 285.715 3.16379C285.761 3.16379 285.912 3.14865 286.2 3.10323C286.472 3.05782 286.79 3.02754 287.108 2.98212C287.426 2.9367 287.729 2.90642 287.986 2.861C288.244 2.81558 288.425 2.80044 288.501 2.80044C288.743 2.80044 289.137 2.7853 289.682 2.73988C290.227 2.69446 290.772 2.69446 291.317 2.73988C291.862 2.7853 292.347 2.861 292.801 2.98212C293.255 3.10324 293.482 3.34547 293.528 3.70883L293.952 8.79587C293.982 9.11381 293.846 9.38632 293.528 9.61342C293.21 9.84052 292.907 9.96164 292.619 10.0071C291.817 10.0828 290.999 10.0525 290.197 9.91622C289.394 9.77996 288.562 9.74968 287.714 9.82538C287.517 9.82538 287.245 9.84052 286.927 9.85566C286.609 9.8708 286.276 9.93136 285.927 10.0071C285.579 10.0828 285.291 10.2039 285.049 10.3704C284.807 10.537 284.686 10.7792 284.686 11.0971C284.807 12.7171 284.807 14.3825 284.686 16.1236C284.565 17.8647 284.58 19.5604 284.746 21.2106C284.746 21.4075 284.762 21.68 284.807 21.9979C284.852 22.3159 284.974 22.5884 285.17 22.7852C285.337 22.9063 285.579 22.9972 285.927 23.0577C286.276 23.1183 286.624 23.1486 286.987 23.1486C287.35 23.1486 287.699 23.1334 288.017 23.1183C288.335 23.1031 288.577 23.088 288.743 23.088C288.91 23.088 289.213 23.0729 289.652 23.0274C290.091 22.982 290.56 22.9366 291.045 22.876C291.529 22.8155 291.998 22.7701 292.438 22.7246C292.877 22.6792 293.179 22.6641 293.346 22.6641C293.467 22.6641 293.573 22.7398 293.649 22.876C293.724 23.0123 293.77 23.1334 293.77 23.2091L294.194 27.1455C294.239 27.5089 294.148 27.8722 293.921 28.2356C293.694 28.599 293.422 28.7958 293.104 28.8412C292.21 28.9623 291.332 28.9472 290.439 28.8109C289.546 28.6747 288.637 28.6444 287.714 28.7201C287.154 28.7958 286.745 28.9472 286.503 29.1743C286.26 29.4014 286.094 29.6739 286.018 29.9918C285.943 30.3098 285.897 30.6731 285.897 31.0819V32.3537C285.897 32.4748 285.882 32.7624 285.837 33.2318C285.791 33.7011 285.746 34.1856 285.685 34.7155C285.625 35.2454 285.579 35.7299 285.534 36.1689C285.488 36.608 285.458 36.8957 285.413 37.0168C285.488 37.0622 285.519 37.1833 285.473 37.3801C285.443 37.577 285.458 37.7435 285.534 37.8646C285.534 38.1069 285.579 38.3945 285.655 38.7427C285.731 39.091 285.958 39.2575 286.321 39.2575H287.744H289.864H291.983H293.346C293.997 39.2575 294.572 39.3181 295.102 39.4392C295.632 39.5603 295.995 39.9994 296.192 40.7715C296.192 40.8472 296.223 41.044 296.283 41.3468C296.344 41.6496 296.404 41.9978 296.465 42.3763C296.525 42.7548 296.586 43.1485 296.646 43.527C296.707 43.9055 296.752 44.2083 296.798 44.4051V44.7684C296.874 45.3286 296.737 45.6617 296.374 45.7374C296.011 45.8131 295.602 45.9039 295.163 45.9796C293.467 46.1765 291.771 46.237 290.076 46.131C288.38 46.0251 286.684 45.9645 284.989 45.9191C284.868 45.8737 284.565 45.8888 284.08 45.9494C283.596 46.0099 283.308 46.0402 283.232 46.0402C283.066 46.0402 282.778 46.0553 282.354 46.0705C281.93 46.0856 281.491 46.1159 281.022 46.1613C280.553 46.2067 280.129 46.237 279.72 46.2522C279.311 46.2673 279.024 46.2824 278.872 46.2824Z" fill="white"/>
<path d="M312.058 30.4762C312.134 30.234 312.089 29.9463 311.907 29.6284C311.725 29.3104 311.468 29.1439 311.15 29.1439H310.968C310.968 29.4618 310.953 30.022 310.938 30.8093C310.923 31.5966 310.893 32.4293 310.877 33.3225C310.862 34.2158 310.832 35.0636 310.817 35.866C310.802 36.6685 310.787 37.2135 310.787 37.5012V38.7729C310.832 39.5905 310.908 40.3778 311.029 41.165C311.15 41.9523 311.226 42.7547 311.271 43.5572C311.271 43.9205 311.21 44.2082 311.12 44.4353C311.014 44.6624 310.741 44.7683 310.302 44.7683C309.454 44.8441 308.652 44.8743 307.88 44.8289C307.108 44.7835 306.29 44.8289 305.397 44.95C305.23 44.8743 305.094 44.7078 304.973 44.4656C304.852 44.2233 304.776 44.0719 304.731 43.9811C304.731 43.9054 304.7 43.6631 304.64 43.2846C304.579 42.9061 304.549 42.6488 304.549 42.5276C304.473 41.271 304.458 40.0295 304.519 38.7729C304.579 37.5163 304.64 36.2748 304.731 35.0182C304.731 32.9592 304.7 30.9456 304.64 28.9622C304.579 26.9789 304.715 24.9653 305.033 22.9062L304.186 5.8889C304.186 5.69208 304.201 5.41956 304.216 5.10162C304.231 4.78368 304.292 4.46574 304.397 4.16294C304.503 3.86014 304.64 3.60276 304.821 3.37566C305.003 3.14856 305.23 3.04258 305.518 3.04258H305.76C306.729 3.11828 307.531 3.20912 308.152 3.28482C308.773 3.36052 309.212 3.82986 309.454 4.6777C309.772 5.57096 310.136 6.44907 310.514 7.34233C310.893 8.23559 311.271 9.08343 311.634 9.88585C311.665 9.93127 311.695 10.007 311.695 10.0978V10.3098C311.892 11.3998 312.225 12.5202 312.664 13.6708C313.103 14.8215 313.527 15.8813 313.936 16.8502C313.86 17.259 313.936 17.7132 314.178 18.2431C314.42 18.773 314.708 19.2878 315.026 19.8177C315.344 20.3476 315.646 20.8472 315.904 21.3317C316.161 21.8161 316.252 22.2249 316.176 22.5429C316.207 22.664 316.313 22.9214 316.479 23.2999C316.646 23.6784 316.797 24.1023 316.933 24.5413C317.07 24.9804 317.206 25.4043 317.357 25.7828C317.494 26.1613 317.615 26.4338 317.69 26.6004C317.721 26.7215 317.781 26.9032 317.842 27.1151C317.902 27.3422 317.978 27.5845 318.054 27.8419C318.129 28.0992 318.205 28.3566 318.266 28.5989C318.326 28.8411 318.357 29.0076 318.357 29.0833C318.553 29.5678 318.705 30.0674 318.78 30.5973C318.856 31.1272 319.144 31.5512 319.628 31.8691C319.825 31.4603 319.931 31.0213 319.931 30.5368C320.491 26.0553 320.749 21.6496 320.688 17.3347C320.628 13.0198 320.552 8.59895 320.476 4.0721C320.522 3.9964 320.612 3.82986 320.779 3.58762C320.945 3.34538 321.051 3.22426 321.142 3.22426L325.987 2.8609C326.35 2.8609 326.532 2.96688 326.532 3.1637C326.532 3.36052 326.653 3.51192 326.896 3.58762C326.774 5.40442 326.774 7.19093 326.896 8.94717C327.017 10.7034 326.986 12.4899 326.835 14.3067C326.547 16.9259 326.305 19.4997 326.078 21.9978C325.851 24.4959 325.851 27.0849 326.048 29.7495L325.563 43.1332C325.518 43.4966 325.321 43.9962 324.958 44.617C324.594 45.2377 324.185 45.6313 323.746 45.7979C323.671 45.7979 323.444 45.813 323.111 45.8281C322.762 45.8433 322.55 45.8584 322.475 45.8584C321.46 45.9341 320.491 45.9644 319.568 45.919C318.644 45.8736 317.675 45.7827 316.661 45.6162C316.131 45.5708 315.737 45.2074 315.45 44.4958C315.162 43.7843 314.95 42.997 314.814 42.134C314.678 41.271 314.572 40.4383 314.511 39.651C314.45 38.8638 314.405 38.349 314.36 38.1068C314.314 37.9402 314.238 37.6071 314.117 37.0772C313.996 36.5625 313.89 36.184 313.815 35.9872C313.739 35.7903 313.618 35.427 313.451 34.8971C313.285 34.3672 313.118 33.8222 312.936 33.2317C312.755 32.6412 312.588 32.0962 312.422 31.5663C312.255 31.0364 312.134 30.673 312.058 30.4762Z" fill="white"/>
<path d="M335.373 40.9531C335.404 40.8774 335.388 40.6957 335.282 40.408C335.176 40.1204 335.055 39.8176 334.919 39.4693C334.783 39.1211 334.632 38.8032 334.495 38.5004C334.359 38.1976 334.268 37.9705 334.223 37.804V35.6844V33.6253C334.223 33.3831 334.238 32.8532 334.253 32.0205C334.268 31.1878 334.298 30.3097 334.313 29.3558C334.329 28.402 334.359 27.5239 334.374 26.6912C334.389 25.8585 334.404 25.3286 334.404 25.0864V21.3317C334.45 21.044 334.48 20.5898 334.495 19.9691C334.51 19.3483 334.541 18.6973 334.586 18.0311C334.632 17.365 334.662 16.7594 334.677 16.1841C334.692 15.6239 334.722 15.2302 334.768 15.0334C334.768 14.9577 334.783 14.7004 334.828 14.2764C334.874 13.8525 334.934 13.5649 335.01 13.3983C335.131 12.717 335.207 11.9903 335.252 11.2182C335.283 10.446 335.404 9.7193 335.616 9.038C335.858 8.38698 336.236 7.62998 336.766 6.73672C337.296 5.84347 337.932 5.01077 338.674 4.22349C339.416 3.43621 340.233 2.75491 341.126 2.19473C342.02 1.63455 342.943 1.34689 343.912 1.34689C344.639 1.34689 345.199 1.36203 345.608 1.40745C346.017 1.45287 346.365 1.52857 346.668 1.64969C346.971 1.77081 347.243 1.96763 347.485 2.22501C347.728 2.48239 348.03 2.86089 348.394 3.34537C348.394 3.42107 348.439 3.51191 348.515 3.58761L348.636 3.70873V9.28024L348.151 9.6436C346.335 9.7193 344.896 10.1129 343.821 10.7942C342.747 11.4755 342.035 12.5505 341.672 14.0039C341.626 14.3219 341.581 14.8669 341.52 15.6087C341.46 16.3506 341.384 17.1379 341.308 17.9706C341.233 18.8033 341.142 19.5906 341.066 20.3324C340.99 21.0743 340.945 21.589 340.945 21.8767V24.2385C340.945 25.7677 340.96 27.206 340.975 28.5383C340.99 29.8706 341.051 31.3392 341.126 32.9592C341.202 34.1249 341.444 35.0788 341.853 35.8055C342.262 36.5322 342.746 37.1075 343.307 37.5314C343.867 37.9554 344.472 38.2733 345.123 38.5004C345.774 38.7275 346.38 38.9092 346.94 39.0454C347.5 39.1817 347.985 39.3482 348.394 39.5299C348.803 39.7116 349.03 39.969 349.12 40.2869V41.922C349.12 42.24 349.136 42.6336 349.181 43.1029C349.226 43.5723 349.211 44.0265 349.151 44.4958C349.09 44.9652 348.954 45.3739 348.757 45.7373C348.545 46.1007 348.182 46.3429 347.667 46.464H346.032C343.61 46.464 341.46 46.0401 339.582 45.1923C337.705 44.3444 336.297 42.9213 335.373 40.9531Z" fill="white"/>
<path d="M371.831 45.919C371.635 45.8433 371.423 45.707 371.226 45.5253C371.029 45.3437 370.908 45.1468 370.863 44.95L369.409 32.1113C369.409 31.9448 369.333 31.8085 369.197 31.6874C369.061 31.5663 368.925 31.5209 368.803 31.5663L361.779 32.2324L362.929 42.8304C363.005 43.4814 363.187 44.0719 363.474 44.6169C363.762 45.162 363.944 45.7373 364.019 46.3429C364.065 46.5851 364.034 46.7365 363.959 46.7971C363.883 46.8577 363.701 46.9031 363.414 46.9485C363.338 46.9485 363.217 46.9636 363.081 46.9788C362.944 46.9939 362.853 47.0091 362.808 47.0091H362.051C361.703 47.0091 361.355 47.0242 360.991 47.0393C360.628 47.0545 360.295 47.0848 359.992 47.0999C359.689 47.115 359.492 47.1302 359.417 47.1302C358.69 47.1302 358.1 47.0545 357.66 46.8879C357.221 46.7214 356.873 46.4792 356.631 46.1612C356.389 45.8433 356.222 45.4496 356.116 44.9803C356.01 44.5261 355.919 43.9811 355.844 43.3755C355.632 41.1499 355.48 38.9395 355.359 36.7442C355.238 34.5489 355.132 32.3081 355.056 30.0523C355.056 30.0069 355.041 29.7949 355.026 29.3861C355.011 28.9925 354.981 28.5231 354.935 27.9932C354.89 27.4634 354.86 26.9486 354.814 26.449C354.784 25.9494 354.738 25.5557 354.693 25.2681C354.617 23.7389 354.678 22.3158 354.905 21.0289C355.132 19.742 355.374 18.3188 355.662 16.7897C355.42 16.1084 355.465 15.3817 355.813 14.6095C356.162 13.8374 356.434 13.1561 356.631 12.5505C356.707 12.2325 356.752 11.9297 356.782 11.6421C356.797 11.3544 356.873 11.0365 356.994 10.6731C356.994 10.6277 357.009 10.5671 357.055 10.4612C357.1 10.3552 357.131 10.3098 357.176 10.3098C357.615 9.50734 358.009 8.68978 358.327 7.85709C358.645 7.02439 359.099 6.20683 359.659 5.40441C360.022 4.91993 360.461 4.42031 360.991 3.92069C361.521 3.42107 362.081 2.93659 362.687 2.49753C363.293 2.05848 363.928 1.69512 364.595 1.40746C365.261 1.1198 365.912 0.938117 366.563 0.862418C368.38 0.695878 369.788 0.953257 370.802 1.61942C371.816 2.28558 372.604 3.14855 373.194 4.19321C373.785 5.23787 374.239 6.40365 374.557 7.67541C374.875 8.94716 375.238 10.1281 375.647 11.2182C375.647 11.3393 375.677 11.5664 375.738 11.8843C375.798 12.2023 375.844 12.5505 375.889 12.9138C375.934 13.2772 375.98 13.6103 376.04 13.9131C376.101 14.2159 376.131 14.4278 376.131 14.549C376.419 17.2136 376.585 19.8934 376.646 22.6034C376.707 25.3135 376.797 27.9932 376.918 30.6579C376.918 31.3392 376.873 32.0508 376.767 32.7775C376.661 33.5042 376.631 34.2158 376.676 34.8971C376.676 34.9728 376.691 35.1847 376.737 35.533C376.782 35.8812 376.813 36.2445 376.858 36.6533C376.903 37.0621 376.949 37.4255 377.009 37.7737C377.07 38.1219 377.1 38.3339 377.1 38.4096V40.408C377.1 40.4837 377.115 40.6957 377.13 41.0439C377.146 41.3921 377.176 41.7555 377.191 42.1643C377.206 42.573 377.236 42.9364 377.252 43.2846C377.267 43.6328 377.282 43.8599 377.282 43.9811C377.282 44.2233 377.236 44.5867 377.161 45.0711C377.085 45.5556 376.813 45.8433 376.373 45.919H376.252C376.207 45.919 376.086 45.9038 375.859 45.8584C375.632 45.8281 375.511 45.7979 375.465 45.7979C375.344 45.7979 375.102 45.813 374.738 45.8281C374.375 45.8433 373.996 45.8584 373.618 45.8584C373.239 45.8584 372.876 45.8736 372.528 45.8887C372.18 45.9038 371.953 45.919 371.831 45.919ZM361.9 24.1174C361.945 24.6019 362.218 24.9501 362.748 25.1469C363.277 25.3438 363.883 25.48 364.564 25.5406C365.246 25.6011 365.942 25.6163 366.623 25.6011C367.305 25.586 367.834 25.5557 368.198 25.5103C368.274 25.5103 368.44 25.4952 368.682 25.48C368.925 25.4649 369.091 25.4497 369.167 25.4497C369.243 25.3286 369.303 25.2226 369.349 25.1167C369.394 25.0107 369.424 24.9047 369.47 24.7836C369.47 24.5413 369.455 24.1477 369.409 23.6027C369.364 23.0576 369.333 22.4672 369.318 21.8161C369.303 21.1803 369.273 20.5747 369.258 20.0296C369.243 19.4846 369.227 19.0909 369.227 18.8487C369.258 18.773 369.288 18.5913 369.288 18.3037V17.6981L368.682 11.8238C368.637 11.5361 368.546 11.2182 368.38 10.8548C368.213 10.4914 368.016 10.1584 367.774 9.85556C367.532 9.55276 367.244 9.31052 366.896 9.12884C366.548 8.94716 366.199 8.87146 365.836 8.91688C365.518 8.9623 365.215 9.05314 364.928 9.21968C363.595 10.5974 362.763 12.0206 362.445 13.5194C362.127 15.0183 361.945 16.6534 361.9 18.4248C361.9 19.3937 361.885 20.3476 361.839 21.2711C361.794 22.1946 361.809 23.1485 361.9 24.1174Z" fill="white"/>
<path d="M391.15 30.4762C391.226 30.234 391.18 29.9463 390.999 29.6284C390.817 29.3104 390.56 29.1439 390.242 29.1439H390.06C390.06 29.4618 390.045 30.022 390.03 30.8093C390.015 31.5966 389.984 32.4293 389.969 33.3225C389.954 34.2158 389.924 35.0636 389.909 35.866C389.894 36.6685 389.878 37.2135 389.878 37.5012V38.7729C389.924 39.5905 390 40.3778 390.121 41.165C390.242 41.9523 390.317 42.7547 390.363 43.5572C390.363 43.9205 390.317 44.2082 390.211 44.4353C390.105 44.6624 389.833 44.7683 389.394 44.7683C388.546 44.8441 387.744 44.8743 386.972 44.8289C386.199 44.7835 385.382 44.8289 384.489 44.95C384.322 44.8743 384.186 44.7078 384.065 44.4656C383.944 44.2233 383.868 44.0719 383.822 43.9811C383.822 43.9054 383.792 43.6631 383.732 43.2846C383.671 42.9061 383.641 42.6488 383.641 42.5276C383.565 41.271 383.55 40.0295 383.61 38.7729C383.671 37.5163 383.747 36.2748 383.822 35.0182C383.822 32.9592 383.792 30.9456 383.732 28.9622C383.671 26.9789 383.792 24.9653 384.125 22.9062L383.277 5.8889C383.277 5.69208 383.293 5.41956 383.308 5.10162C383.323 4.78368 383.383 4.46574 383.489 4.16294C383.595 3.86014 383.732 3.60276 383.913 3.37566C384.095 3.14856 384.322 3.04258 384.61 3.04258H384.852C385.821 3.11828 386.623 3.20912 387.244 3.28482C387.865 3.36052 388.304 3.82986 388.546 4.6777C388.864 5.57096 389.227 6.44907 389.606 7.34233C389.984 8.23559 390.363 9.08343 390.726 9.88585C390.772 9.93127 390.787 10.007 390.787 10.0978V10.3098C390.984 11.3998 391.301 12.5202 391.756 13.6708C392.195 14.8215 392.619 15.8813 393.027 16.8502C392.952 17.259 393.027 17.7132 393.27 18.2431C393.512 18.773 393.8 19.2878 394.118 19.8177C394.435 20.3476 394.738 20.8472 394.996 21.3317C395.253 21.8161 395.344 22.2249 395.268 22.5429C395.314 22.664 395.404 22.9214 395.571 23.2999C395.738 23.6784 395.889 24.1023 396.025 24.5413C396.161 24.9804 396.298 25.4043 396.449 25.7828C396.585 26.1613 396.706 26.4338 396.782 26.6004C396.828 26.7215 396.873 26.9032 396.934 27.1151C396.994 27.3422 397.07 27.5845 397.146 27.8419C397.221 28.0992 397.297 28.3566 397.358 28.5989C397.418 28.8411 397.448 29.0076 397.448 29.0833C397.66 29.5678 397.797 30.0674 397.872 30.5973C397.948 31.1272 398.236 31.5512 398.72 31.8691C398.932 31.4603 399.023 31.0213 399.023 30.5368C399.583 26.0553 399.841 21.6496 399.78 17.3347C399.719 13.0198 399.644 8.59895 399.568 4.0721C399.613 3.9964 399.704 3.82986 399.871 3.58762C400.022 3.34538 400.143 3.22426 400.234 3.22426L405.079 2.8609C405.442 2.8609 405.624 2.96688 405.624 3.1637C405.624 3.36052 405.745 3.51192 405.987 3.58762C405.866 5.40442 405.866 7.19093 405.987 8.94717C406.108 10.7034 406.093 12.4899 405.927 14.3067C405.639 16.9259 405.382 19.4997 405.17 21.9978C404.943 24.4959 404.928 27.0849 405.139 29.7495L404.655 43.1332C404.625 43.4966 404.413 43.9962 404.049 44.617C403.686 45.2377 403.277 45.6313 402.838 45.7979C402.762 45.7979 402.551 45.813 402.202 45.8281C401.854 45.8433 401.642 45.8584 401.566 45.8584C400.552 45.9341 399.583 45.9644 398.66 45.919C397.736 45.8736 396.767 45.7827 395.753 45.6162C395.223 45.5708 394.829 45.2074 394.541 44.4958C394.269 43.7843 394.042 42.997 393.906 42.134C393.769 41.271 393.663 40.4383 393.603 39.651C393.542 38.8638 393.497 38.349 393.451 38.1068C393.406 37.9402 393.33 37.6071 393.209 37.0772C393.088 36.5625 392.982 36.184 392.906 35.9872C392.831 35.7903 392.71 35.427 392.543 34.8971C392.376 34.3672 392.21 33.8222 392.028 33.2317C391.847 32.6412 391.68 32.0962 391.513 31.5663C391.347 31.0364 391.226 30.673 391.15 30.4762Z" fill="white"/>
<path d="M418.946 46.1612C418.977 45.9947 418.977 45.6616 418.916 45.162C418.856 44.6624 418.825 44.3293 418.825 44.1628C418.75 42.9061 418.75 41.7101 418.856 40.5594C418.962 39.4088 419.083 38.1825 419.249 36.8956C419.295 36.8199 419.295 36.6987 419.249 36.5625C419.204 36.4262 419.189 36.3354 419.189 36.29C419.189 35.2756 419.249 34.2915 419.401 33.3225C419.537 32.3536 419.628 31.3695 419.673 30.3551C419.749 28.4626 419.734 26.6004 419.613 24.7836C419.491 22.9668 419.446 21.1349 419.491 19.2726C419.491 19.1061 419.507 18.8639 419.522 18.5459C419.537 18.228 419.567 17.8949 419.582 17.577C419.597 17.259 419.613 16.9562 419.643 16.6988C419.658 16.4415 419.673 16.2598 419.673 16.1841C419.673 16.1084 419.688 15.9267 419.734 15.639C419.779 15.3514 419.809 15.0637 419.855 14.7609C419.9 14.4581 419.931 14.1705 419.976 13.9131C420.006 13.6557 420.037 13.474 420.037 13.3983V13.2166C420.037 12.929 419.931 12.717 419.734 12.5808C419.522 12.4445 419.325 12.3537 419.128 12.3082C417.917 12.3839 416.751 12.3991 415.646 12.3385C414.541 12.278 413.375 12.2931 412.164 12.3688C411.846 12.2931 411.543 12.1417 411.255 11.9449C411.255 11.7481 411.24 11.3696 411.195 10.8245C411.149 10.2795 411.119 9.93127 411.074 9.76473C411.028 9.40137 410.968 8.8412 410.862 8.06906C410.756 7.29692 410.695 6.52478 410.68 5.7375C410.665 4.95022 410.725 4.23864 410.892 3.6179C411.043 2.99716 411.392 2.63381 411.921 2.55811H412.164L432.33 2.73979C432.603 2.73979 432.83 2.83062 432.996 3.0123C433.163 3.19398 433.284 3.40594 433.39 3.64818C433.496 3.89042 433.557 4.1478 433.602 4.40518C433.632 4.66256 433.663 4.87452 433.663 5.04106C433.663 5.08648 433.678 5.23788 433.693 5.49526C433.708 5.75264 433.738 6.05544 433.784 6.40366C433.829 6.75188 433.859 7.08496 433.905 7.43318C433.95 7.7814 433.965 8.06906 433.965 8.3113C433.965 8.43242 433.98 8.62924 433.996 8.91689C434.011 9.20455 434.041 9.50735 434.056 9.85557C434.071 10.2038 434.102 10.5217 434.117 10.8245C434.132 11.1273 434.147 11.3393 434.147 11.4604C434.147 11.6572 434.086 11.8692 433.965 12.066C433.844 12.2628 433.678 12.3839 433.481 12.4294C432.466 12.5959 431.467 12.6716 430.453 12.6716C429.438 12.6716 428.439 12.7322 427.425 12.8533C427.213 12.8987 427.046 12.8987 426.88 12.8836C426.713 12.8684 426.532 12.9593 426.335 13.1561C426.093 13.4437 425.941 13.7768 425.881 14.1856C425.82 14.5944 425.79 15.0032 425.79 15.4271C425.79 15.851 425.805 16.2749 425.85 16.6988C425.896 17.1228 425.911 17.5013 425.911 17.8192C425.699 22.3461 425.608 26.8729 425.608 31.4149C425.608 35.9569 425.896 40.4535 426.456 44.8895C426.456 45.2074 426.41 45.6162 426.304 46.1007C426.198 46.5852 425.926 46.8425 425.487 46.888H425.426C425.351 46.888 425.184 46.8728 424.942 46.8577C424.7 46.8425 424.427 46.8123 424.124 46.7668C423.821 46.7214 423.549 46.7063 423.307 46.7063H422.883C422.641 46.6609 422.323 46.6609 421.944 46.7063C421.566 46.7517 421.172 46.7668 420.794 46.7668C420.415 46.7668 420.052 46.7214 419.703 46.6457C419.355 46.5549 419.098 46.4035 418.946 46.1612Z" fill="white"/>
<path d="M455.707 45.919C455.495 45.8433 455.298 45.707 455.101 45.5253C454.904 45.3437 454.783 45.1468 454.738 44.95L453.284 32.1113C453.284 31.9448 453.208 31.8085 453.072 31.6874C452.936 31.5663 452.8 31.5209 452.679 31.5663L445.654 32.2324L446.804 42.8304C446.88 43.4814 447.062 44.0719 447.349 44.6169C447.637 45.162 447.803 45.7373 447.894 46.3429C447.94 46.5851 447.909 46.7365 447.834 46.7971C447.758 46.8577 447.576 46.9031 447.289 46.9485C447.213 46.9485 447.092 46.9636 446.956 46.9788C446.819 46.9939 446.728 47.0091 446.683 47.0091H445.926C445.578 47.0091 445.23 47.0242 444.866 47.0393C444.503 47.0545 444.17 47.0848 443.867 47.0999C443.564 47.115 443.367 47.1302 443.292 47.1302C442.565 47.1302 441.99 47.0545 441.535 46.8879C441.081 46.7214 440.748 46.4792 440.506 46.1612C440.264 45.8433 440.097 45.4496 439.991 44.9803C439.885 44.5261 439.794 43.9811 439.719 43.3755C439.522 41.1499 439.355 38.9395 439.234 36.7442C439.113 34.5489 439.007 32.3081 438.931 30.0523C438.931 30.0069 438.916 29.7949 438.901 29.3861C438.886 28.9925 438.841 28.5231 438.81 27.9932C438.765 27.4634 438.735 26.9486 438.689 26.449C438.644 25.9494 438.613 25.5557 438.568 25.2681C438.492 23.7389 438.553 22.3158 438.78 21.0289C439.007 19.742 439.249 18.3188 439.537 16.7897C439.295 16.1084 439.34 15.3817 439.688 14.6095C440.037 13.8374 440.309 13.1561 440.506 12.5505C440.582 12.2325 440.642 11.9297 440.657 11.6421C440.673 11.3544 440.748 11.0365 440.869 10.6731C440.869 10.6277 440.884 10.5671 440.93 10.4612C440.975 10.3552 441.006 10.3098 441.051 10.3098C441.49 9.50734 441.869 8.68978 442.202 7.85709C442.52 7.02439 442.974 6.20683 443.534 5.40441C443.897 4.91993 444.336 4.42031 444.866 3.92069C445.396 3.42107 445.956 2.93659 446.562 2.49753C447.168 2.05848 447.803 1.69512 448.47 1.40746C449.136 1.1198 449.787 0.938117 450.438 0.862418C452.255 0.695878 453.663 0.953257 454.677 1.61942C455.691 2.28558 456.479 3.14855 457.069 4.19321C457.644 5.23787 458.099 6.40365 458.432 7.67541C458.765 8.94716 459.113 10.1281 459.522 11.2182C459.522 11.3393 459.552 11.5664 459.613 11.8843C459.673 12.2023 459.719 12.5505 459.764 12.9138C459.809 13.2772 459.855 13.6103 459.915 13.9131C459.976 14.2159 460.006 14.4278 460.006 14.549C460.294 17.2136 460.46 19.8934 460.521 22.6034C460.582 25.3135 460.672 27.9932 460.794 30.6579C460.794 31.3392 460.748 32.0508 460.642 32.7775C460.536 33.5042 460.506 34.2158 460.551 34.8971C460.551 34.9728 460.566 35.1847 460.612 35.533C460.657 35.8812 460.687 36.2445 460.733 36.6533C460.763 37.0621 460.824 37.4255 460.884 37.7737C460.945 38.1219 460.975 38.3339 460.975 38.4096V40.408C460.975 40.4837 460.99 40.6957 461.005 41.0439C461.021 41.3921 461.051 41.7555 461.066 42.1643C461.081 42.573 461.111 42.9364 461.127 43.2846C461.142 43.6328 461.157 43.8599 461.157 43.9811C461.157 44.2233 461.111 44.5867 461.036 45.0711C460.96 45.5556 460.688 45.8433 460.248 45.919H460.127C460.082 45.919 459.961 45.9038 459.734 45.8584C459.507 45.8281 459.385 45.7979 459.34 45.7979C459.219 45.7979 458.977 45.813 458.613 45.8281C458.25 45.8433 457.872 45.8584 457.493 45.8584C457.115 45.8584 456.751 45.8736 456.403 45.8887C456.055 45.9038 455.828 45.919 455.707 45.919ZM445.775 24.1174C445.82 24.6019 446.093 24.9501 446.623 25.1469C447.137 25.3438 447.758 25.48 448.439 25.5406C449.121 25.6011 449.817 25.6163 450.498 25.6011C451.18 25.586 451.71 25.5557 452.073 25.5103C452.149 25.5103 452.315 25.4952 452.557 25.48C452.8 25.4649 452.966 25.4497 453.042 25.4497C453.118 25.3286 453.178 25.2226 453.224 25.1167C453.269 25.0107 453.299 24.9047 453.345 24.7836C453.345 24.5413 453.329 24.1477 453.284 23.6027C453.239 23.0576 453.208 22.4672 453.193 21.8161C453.178 21.1803 453.148 20.5747 453.133 20.0296C453.118 19.4846 453.102 19.0909 453.102 18.8487C453.148 18.773 453.163 18.5913 453.163 18.3037V17.6981L452.557 11.8238C452.512 11.5361 452.421 11.2182 452.255 10.8548C452.088 10.4914 451.891 10.1584 451.649 9.85556C451.407 9.55276 451.119 9.31052 450.771 9.12884C450.423 8.94716 450.074 8.87146 449.711 8.91688C449.393 8.9623 449.09 9.05314 448.803 9.21968C447.47 10.5974 446.638 12.0206 446.32 13.5194C446.002 15.0183 445.82 16.6534 445.775 18.4248C445.775 19.3937 445.759 20.3476 445.714 21.2711C445.669 22.1946 445.684 23.1485 445.775 24.1174Z" fill="white"/>
<path d="M469.333 46.8274C469.257 46.782 469.196 46.6155 469.151 46.3127C469.105 46.0099 469.09 45.8131 469.09 45.7374C468.848 44.2839 468.818 42.8456 468.969 41.4073C469.136 39.969 469.196 38.5459 469.151 37.1379C469.075 35.3211 468.878 33.5194 468.576 31.7177C468.273 29.9161 468.046 28.1144 467.879 26.2976C467.834 24.8896 467.834 23.527 467.879 22.2098C467.925 20.8927 467.94 19.5301 467.94 18.122C467.985 16.8352 467.94 15.5331 467.819 14.2159C467.697 12.8988 467.591 11.5967 467.516 10.3098V9.94646V9.31058V8.6747V8.25078C467.47 8.05397 467.44 7.70575 467.395 7.22127C467.349 6.73679 467.319 6.22203 467.273 5.67699C467.228 5.13195 467.183 4.61719 467.152 4.13271C467.107 3.64823 467.092 3.30001 467.092 3.10319C467.167 2.78525 467.243 2.54302 467.334 2.37648C467.41 2.20994 467.576 2.07368 467.819 1.95256C467.909 1.90714 468.136 1.86172 468.515 1.80116C468.893 1.7406 469.151 1.71032 469.272 1.71032C471.498 1.42266 473.496 1.52864 475.267 2.01312C477.039 2.4976 478.583 3.28487 479.9 4.37495C481.217 5.46503 482.277 6.81249 483.11 8.40218C483.927 9.99188 484.518 11.7481 484.836 13.6406C485.033 15.1698 485.139 16.6686 485.139 18.122C485.139 19.5755 485.078 21.0895 484.957 22.664C485.123 23.4665 485.139 24.2537 485.018 25.0259C484.896 25.798 484.881 26.5853 484.957 27.3877C485.002 28.6746 485.078 30.1886 485.199 31.8994C485.32 33.6102 485.29 35.3362 485.108 37.047C484.927 38.7578 484.503 40.3627 483.837 41.8312C483.17 43.2998 482.096 44.4505 480.597 45.2529C479.143 45.9796 477.599 46.4641 475.964 46.7063C474.329 46.9486 472.709 47.1757 471.089 47.3725C471.013 47.3725 470.816 47.3876 470.513 47.433C470.211 47.4785 470.014 47.4936 469.938 47.4936C469.862 47.4179 469.741 47.3271 469.605 47.2211C469.454 47.1151 469.363 46.9788 469.333 46.8274ZM475.086 38.8335C475.283 39.1515 475.555 39.3029 475.873 39.2575C476.312 39.212 476.675 38.9698 476.933 38.5307C477.19 38.0917 477.387 37.5921 477.538 37.047C477.675 36.502 477.781 35.9418 477.841 35.3816C477.902 34.8214 477.947 34.3672 477.993 34.0493C478.038 33.7616 478.068 33.368 478.114 32.8684C478.159 32.3688 478.189 31.8843 478.235 31.4149C478.265 30.9456 478.311 30.552 478.326 30.2038C478.341 29.8555 478.356 29.6738 478.356 29.6284L478.295 29.144C478.295 26.9184 478.311 24.6322 478.356 22.2704C478.401 19.9086 478.235 17.577 477.871 15.2757C477.675 14.11 477.432 13.1713 477.175 12.49C476.918 11.8087 476.342 11.0365 475.449 10.1887C475.328 9.99188 475.222 9.82534 475.116 9.70422C475.01 9.5831 474.828 9.53768 474.541 9.5831C474.329 9.62852 474.268 9.79506 474.329 10.0979C474.389 10.4007 474.42 10.5672 474.42 10.6126C474.541 13.0804 474.616 15.5331 474.662 18.0009C474.692 20.4687 474.753 22.9214 474.843 25.3892C474.874 27.4029 474.828 29.4619 474.662 31.5361C474.495 33.6102 474.586 35.6693 474.904 37.6829C474.904 37.7586 474.934 37.9554 474.995 38.2582C475.055 38.561 475.086 38.7427 475.086 38.8335Z" fill="white"/>
<path d="M493.194 36.0477C493.148 35.8812 493.118 35.6692 493.103 35.3816C493.088 35.0939 493.057 34.8214 493.042 34.5337C493.027 34.2461 492.997 34.0038 492.982 33.7767C492.966 33.5496 492.951 33.3982 492.951 33.3225C492.906 32.5504 492.876 31.5511 492.83 30.3248C492.785 29.0985 492.755 27.8721 492.709 26.6609C492.664 25.4497 492.633 24.3748 492.588 23.4513C492.543 22.5277 492.527 21.9978 492.527 21.8767C492.527 20.6655 492.558 19.3483 492.618 17.91C492.679 16.4717 492.815 15.0183 493.012 13.5497C493.209 12.0811 493.542 10.6428 494.011 9.24996C494.48 7.85708 495.086 6.6156 495.858 5.52552C496.63 4.43544 497.599 3.54219 498.795 2.86089C499.991 2.17959 501.43 1.77081 503.125 1.64969H504.337C505.472 1.81623 506.547 2.05847 507.607 2.40669C508.651 2.75491 509.605 3.20911 510.453 3.79957C511.301 4.39002 512.043 5.08646 512.664 5.88888C513.284 6.6913 513.754 7.66026 514.087 8.79576C514.132 8.9623 514.178 9.35594 514.238 9.97668C514.299 10.5974 514.329 11.0213 514.329 11.2182C514.329 11.5361 514.344 12.0206 514.359 12.6413C514.374 13.2621 514.389 13.6254 514.389 13.7011C514.389 14.1099 514.405 14.988 514.42 16.3355C514.435 17.6829 514.465 19.1666 514.511 20.7563C514.556 22.346 514.586 23.9055 514.601 25.4195C514.617 26.9335 514.632 28.0538 514.632 28.7805C514.632 29.7949 514.647 30.9455 514.662 32.2627C514.677 33.5799 514.647 34.9425 514.541 36.3505C514.435 37.7585 514.253 39.1514 513.996 40.5291C513.739 41.9069 513.299 43.1332 512.694 44.2233C512.088 45.3134 511.301 46.2066 510.332 46.9182C509.363 47.6298 508.137 48.0234 506.638 48.0991C505.351 48.1748 504.125 48.0991 502.974 47.8569C501.823 47.6147 500.642 47.2967 499.431 46.8879C498.22 46.5246 497.221 45.9644 496.464 45.1923C495.692 44.4201 495.086 43.542 494.617 42.5276C494.147 41.5132 493.814 40.4534 493.587 39.318C493.36 38.1825 493.224 37.0924 493.194 36.0477ZM501.248 35.6238C501.324 36.4716 501.581 37.2286 502.005 37.8948C502.429 38.561 503.125 38.8486 504.094 38.7729C504.745 38.7275 505.23 38.5458 505.548 38.1976C505.866 37.8494 506.108 37.4255 506.244 36.9258C506.381 36.4262 506.471 35.8812 506.486 35.321C506.502 34.7608 506.532 34.2309 506.577 33.7464V33.2317C506.577 32.9743 506.592 32.6866 506.608 32.3838C506.623 32.081 506.638 31.7934 506.638 31.536V31.0818C506.759 29.0228 506.819 27.1303 506.819 25.4195C506.819 23.7086 506.759 21.8161 506.638 19.7571C506.638 19.5149 506.623 19.1212 506.577 18.5762C506.532 18.0311 506.502 17.4407 506.456 16.8199C506.411 16.1992 506.381 15.6087 506.335 15.0637C506.29 14.5187 506.274 14.125 506.274 13.8828C506.199 13.6406 506.047 13.3075 505.82 12.8836C505.593 12.4596 505.351 12.0509 505.094 11.6724C504.836 11.2939 504.518 10.9608 504.185 10.6731C503.837 10.3855 503.504 10.2492 503.186 10.2492C502.777 10.2946 502.429 10.4763 502.126 10.8245C501.823 11.1727 501.581 11.5815 501.399 12.066C501.218 12.5505 501.081 13.0501 500.975 13.5497C500.869 14.0493 500.809 14.4732 500.763 14.7912C500.718 14.8669 500.688 15.0788 500.642 15.3968C500.597 15.7147 500.552 16.0781 500.491 16.4869C500.43 16.8956 500.37 17.2741 500.309 17.6375C500.249 18.0009 500.218 18.228 500.218 18.3037V19.1515V20.7866C500.218 21.3922 500.203 21.9827 500.188 22.5731C500.173 23.1636 500.158 23.6178 500.158 23.9357V24.4202C500.158 24.4959 500.173 24.5565 500.188 24.6019C500.203 24.6473 500.218 24.7079 500.218 24.7836V25.0258C500.264 25.4346 500.324 26.131 500.43 27.1454C500.536 28.1598 500.642 29.2196 500.763 30.3248C500.885 31.43 500.991 32.4898 501.066 33.5042C501.142 34.5034 501.203 35.215 501.248 35.6238Z" fill="white"/>
</svg>
