<svg width="214" height="151" viewBox="0 0 214 151" fill="none" xmlns="http://www.w3.org/2000/svg">
<path d="M79.3257 12.5532C76.7368 12.5532 74.6904 13.418 73.1865 15.1475C71.6934 16.8662 70.9468 19.2241 70.9468 22.2212C70.9468 25.3042 71.6665 27.689 73.106 29.3755C74.5562 31.0513 76.6187 31.8892 79.2935 31.8892C80.937 31.8892 82.8115 31.5938 84.917 31.0029V33.4038C83.2842 34.0161 81.27 34.3223 78.8745 34.3223C75.4048 34.3223 72.7246 33.2695 70.834 31.1641C68.9541 29.0586 68.0142 26.0669 68.0142 22.189C68.0142 19.7612 68.4653 17.6343 69.3677 15.8081C70.2808 13.9819 71.5913 12.5747 73.2993 11.5864C75.0181 10.5981 77.0376 10.104 79.3579 10.104C81.8286 10.104 83.9878 10.5552 85.8354 11.4575L84.6753 13.8101C82.8921 12.9722 81.1089 12.5532 79.3257 12.5532ZM104.865 34L101.933 26.5073H92.4902L89.5898 34H86.8184L96.1318 10.3457H98.436L107.701 34H104.865ZM101.079 24.042L98.3394 16.7427C97.9849 15.8188 97.6196 14.6855 97.2437 13.3428C97.0073 14.374 96.6689 15.5073 96.2285 16.7427L93.457 24.042H101.079ZM110.94 10.4424H117.595C120.721 10.4424 122.982 10.9097 124.378 11.8442C125.775 12.7788 126.473 14.2559 126.473 16.2754C126.473 17.6719 126.081 18.8267 125.297 19.7397C124.523 20.6421 123.39 21.2275 121.897 21.4961V21.6572C125.474 22.2695 127.263 24.1494 127.263 27.2969C127.263 29.4023 126.548 31.0459 125.12 32.2275C123.702 33.4092 121.714 34 119.158 34H110.94V10.4424ZM113.679 20.5293H118.191C120.125 20.5293 121.516 20.2285 122.364 19.627C123.213 19.0146 123.637 17.9888 123.637 16.5493C123.637 15.228 123.165 14.2773 122.219 13.6973C121.274 13.1064 119.77 12.811 117.708 12.811H113.679V20.5293ZM113.679 22.8496V31.6636H118.594C120.495 31.6636 121.924 31.2983 122.88 30.5679C123.847 29.8267 124.33 28.6719 124.33 27.1035C124.33 25.6426 123.836 24.5684 122.848 23.8809C121.87 23.1934 120.377 22.8496 118.368 22.8496H113.679ZM147.146 34L144.214 26.5073H134.771L131.871 34H129.1L138.413 10.3457H140.717L149.982 34H147.146ZM143.36 24.042L140.621 16.7427C140.266 15.8188 139.901 14.6855 139.525 13.3428C139.289 14.374 138.95 15.5073 138.51 16.7427L135.738 24.042H143.36ZM153.221 34V10.4424H155.96V31.5186H166.354V34H153.221ZM170.366 34V10.4424H173.105V31.5186H183.498V34H170.366ZM207.958 22.189C207.958 25.9595 207.002 28.9243 205.09 31.0835C203.188 33.2427 200.541 34.3223 197.146 34.3223C193.676 34.3223 190.996 33.2642 189.105 31.1479C187.226 29.021 186.286 26.0239 186.286 22.1567C186.286 18.3218 187.231 15.3516 189.122 13.2461C191.012 11.1299 193.698 10.0718 197.178 10.0718C200.562 10.0718 203.205 11.146 205.106 13.2944C207.007 15.4429 207.958 18.4077 207.958 22.189ZM189.186 22.189C189.186 25.3794 189.863 27.8018 191.216 29.4561C192.581 31.0996 194.557 31.9214 197.146 31.9214C199.756 31.9214 201.728 31.0996 203.06 29.4561C204.392 27.8125 205.058 25.3901 205.058 22.189C205.058 19.02 204.392 16.6191 203.06 14.9863C201.738 13.3428 199.778 12.521 197.178 12.521C194.568 12.521 192.581 13.3481 191.216 15.0024C189.863 16.646 189.186 19.0415 189.186 22.189Z" fill="black"/>
<path d="M79.3257 66.5532C76.7368 66.5532 74.6904 67.418 73.1865 69.1475C71.6934 70.8662 70.9468 73.2241 70.9468 76.2212C70.9468 79.3042 71.6665 81.689 73.106 83.3755C74.5562 85.0513 76.6187 85.8892 79.2935 85.8892C80.937 85.8892 82.8115 85.5938 84.917 85.0029V87.4038C83.2842 88.0161 81.27 88.3223 78.8745 88.3223C75.4048 88.3223 72.7246 87.2695 70.834 85.1641C68.9541 83.0586 68.0142 80.0669 68.0142 76.189C68.0142 73.7612 68.4653 71.6343 69.3677 69.8081C70.2808 67.9819 71.5913 66.5747 73.2993 65.5864C75.0181 64.5981 77.0376 64.104 79.3579 64.104C81.8286 64.104 83.9878 64.5552 85.8354 65.4575L84.6753 67.8101C82.8921 66.9722 81.1089 66.5532 79.3257 66.5532ZM104.865 88L101.933 80.5073H92.4902L89.5898 88H86.8184L96.1318 64.3457H98.436L107.701 88H104.865ZM101.079 78.042L98.3394 70.7427C97.9849 69.8188 97.6196 68.6855 97.2437 67.3428C97.0073 68.374 96.6689 69.5073 96.2285 70.7427L93.457 78.042H101.079ZM124.233 81.7319C124.233 83.8052 123.481 85.4219 121.978 86.582C120.474 87.7422 118.433 88.3223 115.854 88.3223C113.062 88.3223 110.913 87.9624 109.409 87.2427V84.6001C110.376 85.0083 111.429 85.3306 112.567 85.5669C113.706 85.8032 114.834 85.9214 115.951 85.9214C117.777 85.9214 119.152 85.5776 120.076 84.8901C121 84.1919 121.462 83.2251 121.462 81.9897C121.462 81.1733 121.295 80.5073 120.962 79.9917C120.64 79.4653 120.092 78.9819 119.319 78.5415C118.556 78.1011 117.391 77.6016 115.822 77.043C113.631 76.2588 112.062 75.3296 111.117 74.2554C110.183 73.1812 109.715 71.7793 109.715 70.0498C109.715 68.2344 110.397 66.7896 111.762 65.7153C113.126 64.6411 114.931 64.104 117.176 64.104C119.518 64.104 121.671 64.5337 123.637 65.3931L122.783 67.7778C120.839 66.9614 118.948 66.5532 117.111 66.5532C115.661 66.5532 114.528 66.8647 113.711 67.4878C112.895 68.1108 112.487 68.9756 112.487 70.082C112.487 70.8984 112.637 71.5698 112.938 72.0962C113.239 72.6118 113.744 73.0898 114.453 73.5303C115.172 73.96 116.268 74.438 117.74 74.9644C120.21 75.8452 121.908 76.7905 122.832 77.8003C123.766 78.8101 124.233 80.1206 124.233 81.7319ZM136.302 88H133.563V66.8755H126.103V64.4424H143.763V66.8755H136.302V88ZM147.324 88V64.4424H150.063V88H147.324ZM156.541 88V64.4424H159.28V85.5186H169.673V88H156.541ZM173.685 88V64.4424H176.424V85.5186H186.817V88H173.685ZM211.277 76.189C211.277 79.9595 210.321 82.9243 208.409 85.0835C206.508 87.2427 203.86 88.3223 200.465 88.3223C196.996 88.3223 194.315 87.2642 192.425 85.1479C190.545 83.021 189.605 80.0239 189.605 76.1567C189.605 72.3218 190.55 69.3516 192.441 67.2461C194.332 65.1299 197.017 64.0718 200.498 64.0718C203.881 64.0718 206.524 65.146 208.425 67.2944C210.327 69.4429 211.277 72.4077 211.277 76.189ZM192.505 76.189C192.505 79.3794 193.182 81.8018 194.536 83.4561C195.9 85.0996 197.876 85.9214 200.465 85.9214C203.076 85.9214 205.047 85.0996 206.379 83.4561C207.711 81.8125 208.377 79.3901 208.377 76.189C208.377 73.02 207.711 70.6191 206.379 68.9863C205.058 67.3428 203.097 66.521 200.498 66.521C197.887 66.521 195.9 67.3481 194.536 69.0024C193.182 70.646 192.505 73.0415 192.505 76.189Z" fill="black"/>
<path d="M79.3257 119.553C76.7368 119.553 74.6904 120.418 73.1865 122.147C71.6934 123.866 70.9468 126.224 70.9468 129.221C70.9468 132.304 71.6665 134.689 73.106 136.375C74.5562 138.051 76.6187 138.889 79.2935 138.889C80.937 138.889 82.8115 138.594 84.917 138.003V140.404C83.2842 141.016 81.27 141.322 78.8745 141.322C75.4048 141.322 72.7246 140.27 70.834 138.164C68.9541 136.059 68.0142 133.067 68.0142 129.189C68.0142 126.761 68.4653 124.634 69.3677 122.808C70.2808 120.982 71.5913 119.575 73.2993 118.586C75.0181 117.598 77.0376 117.104 79.3579 117.104C81.8286 117.104 83.9878 117.555 85.8354 118.458L84.6753 120.81C82.8921 119.972 81.1089 119.553 79.3257 119.553ZM104.865 141L101.933 133.507H92.4902L89.5898 141H86.8184L96.1318 117.346H98.436L107.701 141H104.865ZM101.079 131.042L98.3394 123.743C97.9849 122.819 97.6196 121.686 97.2437 120.343C97.0073 121.374 96.6689 122.507 96.2285 123.743L93.457 131.042H101.079ZM121.365 141L113.373 120.117H113.244C113.395 121.771 113.47 123.737 113.47 126.015V141H110.94V117.442H115.065L122.525 136.875H122.654L130.179 117.442H134.272V141H131.533V125.821C131.533 124.081 131.608 122.19 131.758 120.149H131.629L123.573 141H121.365ZM153.882 141H140.75V117.442H153.882V119.875H143.489V127.465H153.253V129.882H143.489V138.551H153.882V141ZM159.119 141V117.442H161.858V138.519H172.251V141H159.119ZM176.263 141V117.442H179.002V138.519H189.396V141H176.263ZM213.855 129.189C213.855 132.959 212.899 135.924 210.987 138.083C209.086 140.243 206.438 141.322 203.043 141.322C199.574 141.322 196.894 140.264 195.003 138.148C193.123 136.021 192.183 133.024 192.183 129.157C192.183 125.322 193.128 122.352 195.019 120.246C196.91 118.13 199.595 117.072 203.076 117.072C206.459 117.072 209.102 118.146 211.003 120.294C212.905 122.443 213.855 125.408 213.855 129.189ZM195.083 129.189C195.083 132.379 195.76 134.802 197.114 136.456C198.478 138.1 200.455 138.921 203.043 138.921C205.654 138.921 207.625 138.1 208.957 136.456C210.289 134.812 210.955 132.39 210.955 129.189C210.955 126.02 210.289 123.619 208.957 121.986C207.636 120.343 205.675 119.521 203.076 119.521C200.465 119.521 198.478 120.348 197.114 122.002C195.76 123.646 195.083 126.042 195.083 129.189Z" fill="black"/>
<circle cx="21.4459" cy="22.3107" r="21.4459" fill="#D2D1C2"/>
<circle cx="21.4459" cy="76.3917" r="21.4459" fill="#3E3D3C"/>
<circle cx="21.4459" cy="129.54" r="21.4459" fill="#D2D1C2"/>
</svg>
