<?xml version="1.0" encoding="utf-8"?>
<!-- Generator: Adobe Illustrator 26.2.1, SVG Export Plug-In . SVG Version: 6.00 Build 0)  -->
<svg version="1.1" id="Capa_1" xmlns="http://www.w3.org/2000/svg" xmlns:xlink="http://www.w3.org/1999/xlink" x="0px" y="0px"
	 viewBox="0 0 630.9 196" style="enable-background:new 0 0 630.9 196;" xml:space="preserve">
<style type="text/css">
	.st0{fill:#2FAC66;}
</style>
<g>
	<path class="st0" d="M630.9,92.3c0.3-66.8-10.1-87.1-47.8-88.9C523.2,0.6,151.3-3.2,87,4.6c-24.4,3-37.3,15.4-37,90.9
		c0.3,84.3,14.6,90.9,32.3,93.2c74.3,9.8,414.5,9.2,505.8,1.5C626.3,187,630.6,160.1,630.9,92.3z"/>
	<path class="st0" d="M57.4,81.2c0,0-19.5-8-31.4-19.9C-0.3,35.3,0,1,0,1s24,36.3,57.6,48.6c14.1,5.2,7,9.8,7,9.8L57.4,81.2z"/>
</g>
</svg>
