<?xml version="1.0" encoding="utf-8"?>
<!-- Generator: Adobe Illustrator 26.2.1, SVG Export Plug-In . SVG Version: 6.00 Build 0)  -->
<svg version="1.1" id="Capa_1" xmlns="http://www.w3.org/2000/svg" xmlns:xlink="http://www.w3.org/1999/xlink" x="0px" y="0px"
	 viewBox="0 0 888.7 292.4" style="enable-background:new 0 0 888.7 292.4;" xml:space="preserve">
<style type="text/css">
	.st0{fill:#2FAC66;}
</style>
<path class="st0" d="M888.7,188.7c0.4-66.8-15.5-87.1-73.1-88.9C723.9,97,155.1,93.2,56.6,101c-37.3,3-57,15.4-56.6,90.9
	c0.4,84.3,22.4,90.9,49.5,93.2c113.6,9.8,634,9.2,773.7,1.5C881.7,283.4,888.3,256.5,888.7,188.7z"/>
<path class="st0" d="M804.2,132.3c0,0-12,5.1-6.6-17.3C810.4,61.6,784.5,0,784.5,0s44.1,28.9,55,84.5c5,25.3-1.4,57.1-1.4,57.1
	L804.2,132.3z"/>
</svg>
