<?xml version="1.0" encoding="utf-8"?>
<!-- Generator: Adobe Illustrator 26.2.1, SVG Export Plug-In . SVG Version: 6.00 Build 0)  -->
<svg version="1.1" id="Capa_1" xmlns="http://www.w3.org/2000/svg" xmlns:xlink="http://www.w3.org/1999/xlink" x="0px" y="0px"
	 viewBox="0 0 458.1 360.1" style="enable-background:new 0 0 458.1 360.1;" xml:space="preserve">
<style type="text/css">
	.st0{fill:#F39200;}
	.st1{fill:#DAD8CC;}
	.st2{fill:#FAB415;}
	.st3{fill:#FFFFFF;}
	.st4{opacity:0.8;}
	.st5{opacity:0.8;fill:none;stroke:#DAD8CC;stroke-width:0.218;stroke-linecap:round;enable-background:new    ;}
	.st6{fill:#00A0A4;}
	.st7{fill:#454444;}
</style>
<g>
	<path class="st0" d="M282.4,199.6c0,0,4.4,8.8,8.1,16.7c3.7,7.9,5.4,18.4,4.9,21c-0.5,2.6-9.1,11.9-5.2,14.5
		c2.5,1.6,6.9-2.6,6.9-2.6s0.9,4.8,3.5,6.7c3.8,2.7,4.6-7.1,4.6-7.1s3.9,11.4,9.9,7.1c3.6-2.6,0.3-9.5-7.8-22.2
		c-8.8-13.7-13.5-48.4-13.5-48.4"/>
	<path class="st1" d="M304.2,343.2c1.8-0.2-1-0.4,1.2-0.2C305.1,343.2,304.8,343.4,304.2,343.2z"/>
	<path class="st1" d="M270.5,354.3c3,0.1,6.6-0.9,9.9,0.6c1.8,1.1-5.4,1.8-7.5,2.6c-0.8,0.2,0.1-0.8-1.6-0.4
		c-6.2,1.8-16.3,1.2-23.9,0l0.5-0.2c-1.5-0.2-3.3,0.4-4.8,0.2c0-0.2,0.5-0.2,0.2-0.4c-0.4,0.4-2.8,0-3.5,0.3
		c-0.6-0.2-0.5-0.5-1.3-0.8l-0.9,0.4c-2.6,0.9-6-0.7-9.4-0.5c0.2-0.1,0.5-0.2,0.3-0.3c-5.5-0.1-12.2-1.3-18.1-2.6
		c0.3-0.1,0.6-0.3,0.3-0.6c-0.4,0.4-2.2,0-3.9-0.3c-0.5-0.7-2.8-0.5-4.5-1.5l0.2,0c-1.3-0.9-2.2,0.4-2.7-2.8l1,0.2
		c0.5-0.8,2.1,0,3.2-0.6l-0.1-0.2c1.1-0.3,1.7-0.2,2.7-0.3l0.1,0.1c2.4-0.4,3.8,0,3.7-0.6c0.9,0.4-2.3,0.4-0.9,1
		c7.8-1.2,15.9-0.9,23.8-0.8c0.9,0.3,1.5,0.4,1.6,0.6c0.8-0.1,3,0,3.7-0.3c-0.3,0,0.5,0.3,0.9,0.4c1.4,0.3,1.6-0.6,3.2-0.3
		c-0.6,0.1-0.9,0.3-0.6,0.5c1.4-0.4,3.2-0.2,4.7-0.3c-0.2,0.1-0.6,0.1-0.6,0.3c1.8-0.4,3.2,0.2,4.7,0l-0.6,0.3
		c2.4,0.5,0.8-0.7,2.9-0.3c-0.5,0.1-0.3,0.2-0.4,0.4c2-0.5,5.2-0.2,7.2-0.3l-0.1,0.1c2.2,0,4.4,0.3,6.7,0.1c0.9,0.2-0.3,0.9,2,0.7
		c-0.1-0.7,3.9-0.3,2.5-1.1c1.9,0.1,5,0.4,6.3,0.2c-0.9,0.2,0.9,0.8-0.7,0.9l1.2,0.4c-0.2,0.3-1.2-0.1-0.9,0.2
		c0.8,0,3.2-0.2,3.9-0.2c1.5-0.4,2.9-1.1,5.4-1.2c-1.2,0.2,0.6,0.8-0.2,0.9l3.4-1.2c0.8,0,0.2,0.5,1.3,0.4c-0.1-0.2,0.5-0.3,0.8-0.4
		c0.3,0.1,3.4,0,3.7,0.7c0.3,0.3-1.3,0.1-0.5,0.4c1.5,0.1,1.6-0.2,3.1-0.1l0,0.1c1,0.2,2.9-0.1,1.9-0.5c-0.7-0.1,0.2,0.4-0.8,0.2
		c0.7-0.3,2.5-0.3,4-0.2c-0.5,0.1-0.5,0.2-0.7,0.4c2.1-0.3,4.2-0.3,6.6-0.1c0.1-0.3-0.9,0.4-1.2,0.2c1.5,0.5,2.8,0.4,4.7,1.2
		c1.4-0.1,2.2,4,0.3,4.2c-0.8,0.4-1.5,0.6-2.2,0.7c0.4-0.2,0.4,0.3,0.3,0.2c-1.5,0.5-1.6-0.1-2.5,0.3c-0.2-0.2-1.2,0.3-2.1,0.5
		c-0.5,0.3-0.3-0.1,0.5-0.2c-1.3,0.5-6.5,1.4-9.5,1.2c0.1,0.2-1.8,0.8-2.5,0.8l0.2-0.4c-0.6-0.2-2.3,0.2-2.4-0.2
		c-1.4,0.6,5.6-0.8,3.7-0.3c-0.5-0.3-2.7,0.9-2.3,0.3c-1.4,0.1-2.7,0.6-4,0.3c0.4,0,1.1-0.6,0-0.5c-1.9,0.2-0.5,0.2-2.1,0.5l-1,0.2
		c0,0.4-1.8,0-1,0.5c-0.2-0.3-2.9,0.4-2.7-0.3l0.2-0.5c-0.9,0.1-1.4,0.6-2,0.9c-0.1,0-0.3-0.2-0.3-0.2c-0.1,0.8-2,0-3,0.7
		c-1.8-0.2-4.5,0.2-5.4-0.3c-1.4,0.3-2.6,0.6-4.2,0.5c0.3-0.1,0.7-0.1,0.8-0.3c-1-0.2-1.2,0-2.1,0.2c0.2-0.1-2-0.4-3.1-0.6
		c-1.3,0.3-0.9,0.7-1,1c-1.3-0.8-3.8,0.6-5.4,0c0.5-0.1,2-0.5,0.9-0.6c-1.3-0.8-2.5,0.7-4.5,0.4l0.5,0.6c-0.9-0.4-2.9,0.5-2.7-0.2
		c-0.7,0.2-2.4-0.2-2.1,0.5c-3.3-0.5-8,0.6-10-0.5c-0.5,0.1-1.6,0.1-1.4,0.4c0.8,0.3,1.1-0.3,1.4-0.1c-0.4,0-0.5,0.2-0.5,0.3
		c-1-0.1-1.9-0.2-0.9-0.7c-2.3-0.3-2.3,1.2-5.2,1c0.1-0.3-0.1-0.4-0.9-0.3l-1.6,0.5c-1.9-0.1-1.1-0.6-1.1-1c-1,0.1-2.2,0.1-2.7,0.4
		l-1.2-0.5c0.9,0.4-0.8,0.3-1.3,0.4l0.5-0.1c-0.2-0.2-1.3-0.1-1.9,0c0.2,0.3,1.3,0.4,2,0.5c-0.5,0.2-1.3,0.2-2,0.4
		c0.2-0.5-1.6-0.3-2.4-0.3c-0.9-0.1-1,0.4-1.3,0.4c0-0.2-1.5,0-0.8-0.4c0.3-0.1,0.7,0.2,1.2,0c-0.6-0.2-0.5-0.6-1.8-0.3
		c-0.9,0.2,0.2,0.9-1.6,0.6c0.5-0.1,0.5-0.3,0.9-0.5l-1.7-0.2l-0.1,0.4c-0.2-0.1-0.1-0.2-0.2-0.2c-0.5,0.4-2.6,0.1-2.9,0.6
		c-0.9,0-1.8-0.3-2.6-0.4l0.2,0c-1-0.2-2.3-0.1-3.1,0.1l0-0.1c-0.5,0-1.8,0-2.5,0.2c-1.3-0.3-0.4-1.5-1.9-1.1
		c-1.4,0-2.2,0.6-1.6,0.9c-2.5-0.4-5.3,0.2-7.6-0.6c-0.4,0.2-0.2,0.2-0.9,0.3c-3.6-0.4-7.8,0-10.6-1.2c1.1-0.1,0.1-0.4,0.1-0.6
		c-0.9,0.3-1-0.5-1.4,0.1c0,0.4-0.1,0.5,0.9,0.8c-2.2-0.1-5.5-0.3-6.7-0.9c0.6,0.3,0.1,0.3-0.4,0.3c0.2-0.5-1.3-0.9-2.6-0.9
		l-0.2,0.3l-0.7-0.5c-0.5,0-0.6,0.6-1.8,0.1l-0.3-0.4c-1.7-0.5-2.4,1.3-6-2c-1-0.9,1-4.7,1.9-4.2l0.8,0.1c0.7-0.2,1.9-0.8,0.6-0.6
		c2.8-0.1,4.1-0.1,5,0.3c4-1.3,9.8-1.5,14.5-1.4l-0.1,0.3c1.2,0.2,0.6-0.5,1.5-0.3c-0.4,0.3,1,0.5,0,0.9c1.8,0.2,2.3-0.5,3.5-0.6
		c0.2-0.4-0.9,0.2-0.7-0.2c0.2-0.1,2.5,0.2,2.7-0.3c0.5,0.2,0.1,0.6-0.1,0.8l1.1-0.3c1.3,0.6-3,1.1-1.6,1.9l1-0.1
		c1,0.5-2.6,0.6-0.1,0.8c1.1-0.3,2-1.1,1-1.3c2.3-0.2,1-1.3,3.5-1.2c0.7,0.3-2,0.1-1.5,0.5c1.2,0.4,2.3-0.3,3.3-0.1
		c-1.2-0.2-0.2-0.7,0.5-0.9c1.2,0.2-0.8,0.5,1,0.5c0.3-0.3,1.9-0.5,0.5-0.8c0.6-0.7,1.8,0.2,2.8-0.4c0.6,0.5-1.8,1.2,0.2,1.4
		c-0.3-0.5,2.4-0.7,1.3-1.4c0.8,0.1,0.9,0.5,0.3,0.8c1.1,0.3,2.6-0.9,3,0l0.4-0.5c0.3,0.2,0.8,0.3,1.4,0.5c0.9,0,3-0.7,3,0
		c0.3-0.1,2.5-0.1,1.6-0.6c-1.3-0.3-1.5,0.4-2.3-0.2c1,0.5,1.9-0.1,2.7-0.3l0.1,0.3c0.5-0.1,1.5-0.1,1.8-0.4
		c-0.3,0.2-0.2,0.4,0.2,0.4l0.5-0.5c1.9-0.3,0.5,0.7,2.3,0.5l-1.4,0.4c0.3-0.1,0.9,0.3,1.8,0.1c0.3-0.4,0.9-0.9,1.2-1.2
		c1-0.2,0.5,0.4,1.4-0.1l-1.3,0.5c-0.2,0.1,0.9,0.6,2.3,0.5c0.9-0.2,2.2-0.9,0.8-1c0.7-0.1,1.6,0.1,1.1,0.4c1.5-0.3-0.2-0.4,1.1-0.8
		c0.6,0.2,2.3,0.4,3.4,0.7l-1.3,0.8l0.9-0.1c-1.2,0.6,0.7,0.3,0,0.9c0.6,0,1.4-0.2,2-0.5c-2-0.7,2-1.4,1.3-2.2
		c2.5-0.5,1.8,1.8,4.3,0.2c-0.5-0.2,0.7-0.9-0.9-0.5c1.6-0.1,1-0.9,2.9-0.8c-1.4,0.5,1.6,0.6-0.4,1.3c0.1-0.3-1.2-0.1-1.5,0
		c0.7,0.2,0,0.8,1.6,0.6c1-0.2,2.4-0.4,2.1-0.8c-0.1-0.5-1.5,0.2-0.9-0.3c2-0.4,2.4,0.3,3.1-0.6c-1.2,0.2-1.6-0.2-1.6-0.5l1.4-0.4
		l-0.2,0.3c2.4-0.1,0.6-0.6,2.9-0.8l1.1,0.5c-0.5,0.6-3.3,0.2-2.8,0.9c1.5-0.2,1.9-0.6,3.3-0.6l-1,0.3c0.5,0,1.2,1,3.2,0.1
		c1.1-0.4,0.2-0.3,0.2-0.6c2.3-0.4,3-0.8,4.5-1c-0.2,0.6,2.7-0.3,1.1,0.5c-0.8-0.3-4.3,0.2-5,0.9c0.9,0.6-1.9,0.1-2.3,0.9
		c1.9-0.2,1.9,0.5,2.2,0.9c0.5,0,1-0.3,1.3-0.4c0.2-0.5-0.5-0.4-0.6-0.8c2.1-0.2,4.1-0.6,5.3-1.2c0.7,0.1,0.6,0.6-0.3,0.7
		c2.5-0.4,5.2-0.7,7.6-0.9c-1.6-0.5,2.6-0.5,1.5-1c-1.3,0-2.5-0.4-1.8-0.8c0.8-0.1,0,0.3,0.4,0.4c1-0.5,1.7,0.4,2.6-0.3
		c-2.3,0.5-0.3,0.9-0.7,1.5c1.6-0.5,0,0.4,1.6,0.2c1.6-0.5,3.6-1,5.4-1.3c2.4,0.3,5.9-0.7,7.9-0.9c1.1,0.2,0.5,0.9,1.6,0.9
		c1.4-0.2-1.1-0.6,1-0.5l-0.2,0.2c0.6-0.2,3.8,0,4.3-0.9l-0.5,0.8c0.4,0,0.7-0.2,1-0.3c0,0.2,0.5,0.4-0.1,0.6c1.3,0.4,2.6-0.3,4-0.5
		l-0.9-0.3c2.3-0.5,3.9-0.3,6.2-0.6l0,0.4l1.3-0.3c-0.3,0.4,0.9,0.6,1.6,0.2l-3.4,1.2c-1-0.2,1-0.6,0.4-0.9c-0.5-0.3-2.6,0-2.9,0.4
		c0.8,0,0.8-0.1,1.5-0.3c0.3,0.5-0.9,0.6-1.5,1c0.4-0.1,1,0.1,1.1-0.1c-0.8,0.3-1.6,0.5-3,0.6c0.9-0.3-0.5-0.3-0.2-0.5
		c-0.1,0.5-1.4,0.8-3.1,0.8c-1.3-0.5-3.2,0.7-5.1,0.8c0.7-0.6,1.7-1.1,2.9-1.4c-1.2-0.1-1.4,0.2-2.6,0c-0.5,0.4-0.9,1-2.5,1.5
		l-0.1-0.4c-1.4,0.4-1.4,0.9-3.3,1c-3.2,0.2-6.5,0.6-8.9,0.8l-0.1-0.4c-1.2,0.9-4.5,0.8-6.3,1.4c-3.1,0-6.7,1.2-8.4,0.7
		c-5.4,0.9-10.2,1.8-15.9,2.3l0.9-0.6c-1,0.5-0.7-0.2-1.7,0c1.2,0.3-1.3,0.7-2,1.1c-2.6-0.1-5.8,0.7-8,1.2l-0.1-0.4
		c-2.2,0.9-5,0.5-7.9,0.6c-0.3-0.1-0.9-0.5-1.7-0.4c-1.5,0.7-2.3,0.7-4.6,1.1c-1.7,0.1-4.3,0-6-0.2c-6.2,1-12.6,0.5-19,1l-0.5-0.4
		c-6.2,1-13.9,0.2-19.1,1.1l0.5-0.8c-1.7-0.1-3.6,0.5-3,1c-0.2-0.4-0.9,0.9-0.6-0.8c-0.3-2.3-1.8-0.9,0.8-2.9l-0.3-0.4
		c0.6,0.1,1.6,0.3,1.9,0.7c1.6,0.4,2.1,0,3.5,0.1c3.3,0.8,4.5,1,7.7,1.2l-0.8-0.1c-0.4,0.1-0.4,0.4,0.4,0.6c1.2-0.1,4.3,0.7,3.3-0.3
		c3.3,0.9,8,0.2,11.2,1.2c-0.3-0.2,0.6-0.2,0.9-0.4c3,0.1,6.1,0.7,8.5,0.4c0.5,0.1-0.8,0.4,0.5,0.5c0.7-0.1,0-0.3,0.9-0.4
		c4.9-0.3,9.8,0.7,14.3,0.5c7.9-0.5,16.1-0.5,23.7-0.8l-0.1,0.2c2.5-0.8,6,0.5,8-0.6c0.6,0.2,2.3,0,1.9,0.4c2-0.5,5.7,0.3,8.6-0.5
		l-0.7,0.1c3,0.3,5.6-0.3,8.7-0.1c-0.3,0.1-0.9,0.2-1,0.3c1.2,0.3,2.8-0.9,3.5,0c0.7,0,0.5-0.5,0.1-0.4c6.8,0.1,14.1-0.8,21.1-1.4
		c5.1,0.2,0.4,1.4,4.3,0.5c0.3,0.2,0.2-0.3,0.3-0.2c1.5-0.3,2.5,0.8,3.5,0.2c-0.5-0.5,0.7-0.4,0.7-0.7c3.1,0,3.8,0.5,6-0.3l-0.1,0.3
		c1.4-0.5,2.4-1,3.4-1.6c-0.6-0.5,0,1.3,1.4,1.2c-0.9-0.6-1.2,2.2-1.5,1.6c-0.2,0-0.7,0-1.3,0.1c-14.8-2.1-30.4-1-46-1.2
		c-15.4-0.8-30.3-1.3-45.7-1.6c-3.6-0.7-3.9-0.6-7.8-0.1c0.2-0.1,0.4-0.2,0.1-0.3c-0.2,0.6-2.7,0.2-3,0.9l-3.8,0.6l-1.9,0.3l-0.2,0
		l-0.1,0H201c-0.7,5.7,1-7.8,0.8-6.4h0l0.4,0.2l0.8,0.4c2.1,1,4.7,1.8,7.4,2.6c-0.9-0.2-1.5,0.2-0.4,0.4l1.2-0.1l0.1,0.2
		c0.7,0.1,1.6,0,0.9-0.4c14,2.9,28.4,5.5,42.7,5.7c3.4,0.3,8.2,0.1,11.9-0.3c2.7,0.1,5.4-0.1,7.9-0.3c1.2-0.2,2.6-0.2,3.7-0.5
		l1.8-0.4l0.5-0.1l0.2-0.1h0.1h0c0.4-4.1-0.5,5.6-0.4,4.6h0l-0.1,0l-0.6-0.3c-2.9-1.7-11,0.3-15-3.3
		C265.3,357.5,265.2,353.3,270.5,354.3z"/>
	<path class="st1" d="M302,343.4c-0.4-0.3-1.7-0.3-0.7-0.8C301.4,342.8,302.1,343.1,302,343.4z"/>
	<path class="st1" d="M267.3,343.8c0,0.1-0.5-0.1-0.6-0.1c0.4-0.1,0.8-0.4,1.2-0.2C267.4,343.5,267.5,343.7,267.3,343.8z"/>
	<path class="st1" d="M258.5,344.7c0.1-0.3,1.9-0.7,3.1-0.9L258.5,344.7z"/>
	<path class="st1" d="M250.2,344.6c-0.7-0.1-0.5-0.3,0.4-0.4C250.6,344.3,250.4,344.4,250.2,344.6z"/>
	<path class="st1" d="M249.7,345.3c-0.7,0.1-1,0-1.4-0.1C248.3,345.4,249.8,344.8,249.7,345.3z"/>
	<path class="st1" d="M231.8,346.6c-0.4,0.1-1.3,0.4-1.7,0.1C230.6,346.8,232.1,346.1,231.8,346.6z"/>
	<path class="st1" d="M223.7,347.7c-0.4,0-0.4,0-0.7,0.1c-0.5-0.1,0-0.3,0.4-0.4L223.7,347.7z"/>
	<path class="st1" d="M256.1,358.7l-0.9,0.2l0.1-0.3L256.1,358.7z"/>
	<path class="st1" d="M304.1,347.5c-0.9,0.1-0.6-0.3-0.8-0.4C304.1,347.2,303,347.4,304.1,347.5z"/>
	<path class="st1" d="M268.1,347.7h0.3l-0.1,0.5L268.1,347.7z"/>
	<path class="st0" d="M259,51.3c0,0,6.6-4.9,31.4-6.9c10.3-0.8,34,6.2,56.6,14.8c12.6,4.8,47,12.3,53.4,13.5
		c10.9,2,46.1,10.4,46.1,18.3s-8.9,14.9-29.7,24.8c-20.8,9.9-86,22.2-106.2,53.6c-26.2,40.7-32.6,91.3-34.6,115.1
		c-2,23.8-8.9,53.6-8.9,53.6s34-1,29.1,5.9c-5,7-18,0.2-18,0.2s3.8,8.8-0.2,9.8c-4,1-9-7.7-9-7.7s1.1,6.9-6.8,7.8
		c-8,0.9-9.7-4.1-7.8-13c2-8.9,1.6-42,0.9-42.6c-0.9-0.8-43.9,0-43.9,0l-3.4,38.7c0,0,26.2,6,23.2,9.9c-2.9,4-15.5-1.8-15.5-1.8
		s9.6,7.2,3.6,9c-6,1.8-11.8-4-11.8-4c3.2,13.4-16.2,5.9-13-6.1v-49.6c0,0-19.7,31.6-56.5,31.7C92,326.4,31.5,287.6,11.7,266.9
		c-20.3-21.3-12.6-15.5,12.1-9.1c34.1,8.8,61,4,78.4-1c12.8-3.7,30.5-9.2,48.9-4.8c15.3,3.6,36.5,20.9,36.5,20.9
		s-5.6-55.2,35.5-110.4c7.9-10.6,1.7-29.5,1.7-29.5s-4,0.3-8.3,1.1c-7.1,1.3-13.2,10.6-10.2,2.7c3-7.9,13.9-14.9,13.9-14.9
		s-3.2-5.1-18.5-3.9c-10,0.8,12.8-13.6,12.8-13.6s-12-2-20.1-2.8c-4.1-0.4,24-13.7,24-13.7s0.8-1.4,0.6-9.1
		c-0.1-3.8,1.2-15.3,1.2-15.3s-4.4-25.8-5.7-35.7c-1.2-9.9,0-20.8,0-20.8s21,16.7,31.2,27.2C253.2,41.6,259,51.3,259,51.3z"/>
	<path class="st2" d="M253.4,188c0,0-10,12.8-14,20.4c-4,7.6-4.5,19.7-4.1,22.3c0.4,2.6,8.5,12.1,4.5,14.5c-2.5,1.5-6.7-2.9-6.7-2.9
		s-1.1,4.7-3.7,6.4c-3.9,2.5-4.2-7.2-4.2-7.2s-4.3,11.1-10.1,6.7c-3.5-2.7,1.4-8.5,8.6-21.5c6-10.7,14.8-48.8,14.8-48.8"/>
	<path class="st3" d="M314.3,168.6c-26.9,39.7-33.7,78.3-34.3,115.2c-11.2,0.2-24.4-0.9-35.1,0c-0.9-7,0.8-14.2,0.8-21.5
		c0-70.3,27.8-108.3,82.7-122c4.8-1.2,32.5-7.5,37.3-6.5C345.9,141.4,323.8,154.5,314.3,168.6z"/>
	<g class="st4">
		<g class="st4">
			<path class="st5" d="M365.7,133.7c-19.8,7.7-41.9,20.8-51.4,34.9c-26.9,39.7-33.7,78.3-34.3,115.2"/>
		</g>
	</g>
	<path d="M437,81.1c11.6,3.3,27.6,7.3,18.3,15c-11.2,9.3-31.4,16.1-31.4,16.1s-9.7-27.4-6.9-35.7C417,76.5,432.8,79.9,437,81.1z"/>
	<path class="st0" d="M298.3,47.1c0,0-10.9-14.7-16.7-22.4c-5.8-7.7-21.9-25.9-22.8-24.7c-0.9,1.2-4.3,8.9-3.1,22.1
		c1.2,13.2,4,30.1,4,30.1L298.3,47.1z"/>
	<path class="st3" d="M23.8,257.7c31.8,8.1,57.3,4.6,74.7,0c-6.8,6.7-17.6,17.4-14.2,17.4c4.8,0,25.2,8.7,19.4,8.7s-20,2.9-20,2.9
		s16.1,14,14.2,15c-1.9,1-21.3-4.8-21.3-4.8s1,7.8,0.8,13.6c-28.5-13.1-54-31.4-65.7-43.6C-8.6,245.5-0.8,251.3,23.8,257.7z"/>
	<g class="st4">
		<g class="st4">
			<path class="st5" d="M77.4,310.4c-28.5-13.1-54-31.4-65.7-43.6c-20.3-21.3-12.6-15.5,12.1-9.1c31.8,8.1,57.3,4.6,74.7,0"/>
		</g>
	</g>
	<path class="st3" d="M247.7,57.1c0,0-20.7-22.3-21.2-19.5c-0.6,2.8,0,25.4,0,25.4s8-3.3,10.9-3.9C240.2,58.5,247.7,57.1,247.7,57.1
		z"/>
	<path class="st3" d="M268.2,27c-1.6-0.9-2.1,1.5-2.2,5.8c-0.1,4.3-0.1,15.7-0.1,15.7l16.1-3.6C281.9,44.9,269.8,27.8,268.2,27z"/>
	<path class="st3" d="M285.4,75.8c0,9.4,9.5,19.8,20.5,19.8c8.3,0,17.7-8.8,13-21.4c-4.4-11.5-11.2-13.9-19.8-12.7
		C290.9,62.5,285.4,66.4,285.4,75.8z"/>
	<path d="M310.6,83.7c0,1.5-1.2,2.6-2.6,2.6c-1.5,0-2.6-1.2-2.6-2.6c0-1.5,1.2-2.6,2.6-2.6C309.4,81,310.6,82.2,310.6,83.7z"/>
	<path class="st6" d="M282.8,257.3c-40,3-61.3,2.5-67.5,2.1c-17-1-27.8-5.7-27.8-5.7s-0.6,17,0,30.9c0.7,15.7,3.4,29,3.4,29
		s27.9-4.1,33.2-3.4l1.6-8.8l27.9-2.6v9.6h25.6L282.8,257.3z"/>
	<path class="st7" d="M270.4,266.3h-10.1v-7.1h10.5L270.4,266.3z"/>
	<path d="M311.7,116.7c0,0,6.8,6.8,16.7,4c-0.6,3.9-2.6,11.9-8.5,11.5C312.2,131.7,311.7,116.7,311.7,116.7z"/>
	<path d="M260.3,260.2c0,0,1.2-50.2-14.8-73.3c-6.6-9.5-30.2-17.6-30.2-17.6l3.2-4.5c0,0,21.8,5.8,35,22.4c14,17.7,16.8,73,16.8,73
		H260.3z"/>
</g>
</svg>
