<svg xmlns="http://www.w3.org/2000/svg" viewBox="0 0 363.47 328.64"><defs><style>.cls-1{fill:#1b8a4f;}.cls-1,.cls-5,.cls-6{fill-rule:evenodd;}.cls-2,.cls-6{fill:#814114;}.cls-3,.cls-5{fill:#2fac66;}.cls-4{fill:#a85318;}</style></defs><title>arboles</title><g id="Layer_2" data-name="Layer 2"><g id="Layer_1-2" data-name="Layer 1"><path class="cls-1" d="M282.39,194.34s.93-2,12,0c41.54,7.29,73.14-12,68.64-12.66-24.8-3.82-44.63-9.16-41.64-11s41.89-5.22,34.52-6.18c-10-1.31-38.45-13.53-35.18-14.41,3.49-1,36.69-2.12,30.24-4.66-23.72-9.3-33.07-18.88-30.11-17.89s26.87,3.79,22.47.68c-14.61-10.33-26.87-29.87-26.87-29.87s14,4.17,19,5.31,2.06-1.53-7.42-9.65c-9-7.72-16.75-19-16.75-19a71.53,71.53,0,0,1,10.35,0c7.55.35,6.77,1.28,0-6.5S297.37,43.88,301,42.51s21.48,9.54,18.11,5.92c-9.4-10.08-32.21-51-33.23-48.3s-11.15,28.8-18.1,37.93S247.08,55,253.68,54.51,272,48.43,272,48.43,265.9,65.48,261.29,69.6s-9.72,8.68-3.07,8.22,18.4-5.94,15.34-1.84-25.88,20.68-21.64,21.3S271,94,271,94s-13.19,18.52-17.33,21.26-9.26,5.24-4.67,6,18.72-2.59,18.72-2.59-10.79,18.48-25.36,27.08c-1.77,1.05,12.27,1.31,18.92,0s9.2-2.81,8.7,0-25.05,13.35-34.77,19.33c-6.7,4.12,30.16-1.09,32.51,0,2.57,1.2-21.32,18.83-42.59,21-6.35.64,11.09,5.44,23.87,8.21S282.39,194.34,282.39,194.34Z"/><path class="cls-2" d="M301.37,178.43c.19-10.61-.78-31.43-.78-31.43l16.19-15.69-2.12-2.61s-1.7.38-6.06,3.67-9.81,6.49-9.81,6.49-.3-18.19-.63-22.36c-.61-7.79,2.13-10.17,2.13-10.17s2.45-1.75,5.86-4.16,6.17-4.6,6.17-4.6l-2.69-2.87a64,64,0,0,0-6.74,3.65,5.54,5.54,0,0,1-5.34.28s-.06-2.22-.3-9c-.22-6.21-1.22-14-.15-17.41S305,58.63,305,58.63l-1.8-3.24a13.78,13.78,0,0,0-3.31,3.41c-1.61,2.3-6.27,8.1-6.27,8.1s-2-4.43-4.39-8.87c-2.94-5.4-1.37-6.17-4.53-5.37-3.41.87-2.41,1.37-.8,5.74,1.81,4.89,2.5,6.79,3.77,9.52,1,2.15.28,33.3.28,33.3s.25,20.4-.61,20.72c-3.82,1.37-14.51-1.08-14.51-1.08l.1,3.07,14.85,4.69.32,34.85s-5-.18-7.79-1.45-3.22-.86-3.22-.86l-1.11,2.76s3.12,2.53,5.86,3.11c1.95.42,4.84,1.16,6.32,1.55l-1.81,148.85,16.2-7.44C302.51,389.69,301.19,188.72,301.37,178.43Z"/><path class="cls-3" d="M219.48,49.93c9.6-.33,28.72,2.92,44.09,13.66,18.16,12.68,23.16,21,27.81,42.43s-1.94,38.11-11.7,52.71-16.11,29.73-60.73,37c-25.26,4.1-66.26-11.93-73.7-45.2s1.42-56.47,9.9-65.11S177.38,51.4,219.48,49.93Z"/><path class="cls-4" d="M274.09,113.22l-11.44,6.4s-5.7,1.09-8.69,1.62c-2.76.49-9.59,1.92-9.59,1.92l-2.4-12.6h-2.65s1.58,12.83,0,13.77c-1.27.76-9.6,3.38-14.78,4.66-1.19-11.68-2.5-24.61-2.5-26.14s4.09-4.09,7.38-5.5S240,94,243,93.09s4.39-1.48,4.39-1.48-3.29-5.27-5.47-4.17-11.71,5.67-11.71,5.67l-3.23-6.51h-3.75l2.23,6.51s-1.84,1.28-3.36,0-2.85-7.12-2.85-12,.05-7.06.05-7.06c1.37-.3,7,2.4,7,2.4l1.09-1.7-6.79-4.28s1.67-2.16,3.79-5.46,2-3.15-1.66-5c0,0-2.35,3.58-4.19,6.46-1.18,1.85-4.59,8.07-5.77,8.28s-1.65-.07-4.9-1.2l-3.08-.77-1.22,2.67s7.38,2,7.73,4.39.73,20.91.73,20.91l-7.15-9-2.54.81s-.91,0,.19,2A18.26,18.26,0,0,0,204.84,98l-8.76-2.73-.1,3.44s6.5,1.81,9.07,2.91,7.31,3.66,7.31,3.66l.73,6.26c.74,6.27,1.47,25.57,1.47,25.57l-9.23-3.43-2.47-5.72,4.39-1.93-1.1-1.66h-5.48l-4.46-6.56-2.81,1.37s4,4.92,4,5.92,3.13,8.51,3.13,8.51-6.16-2-7.91-2.62-23-5.5-23-5.5l-.37,5s13.56,4.77,17.3,6.56l.53.25a7,7,0,0,0-.92.72,27.45,27.45,0,0,1-7.93,4.4l1.73,4.4,12.33-7.68c2.2.66,9.35,3.36,10.52,3.78,3.31,1.21,10,3.92,11.1,8s-.33,16.51-.38,22.88c0,4.62-.8,5-3,4.52-2.52-.52-6.83-2-6.83-2a21.53,21.53,0,0,0-.14-4.2,29.67,29.67,0,0,0-1.32-5.84l-3-1.11a28.76,28.76,0,0,0-.5,7c.08,2-4.88.89-7.13-.34A66.61,66.61,0,0,0,180.94,167c-3.46-1.21-8.2-2.46-8.2-2.46l-1.81,4.24a105.92,105.92,0,0,1,12.37,5.49c.5.28,1,.56,1.55.83l-6.45,1.46,1.65,2.88a28.5,28.5,0,0,0,4-.84,43.27,43.27,0,0,1,5.58-1.24c4.24,1.92,7.71,3.18,11.87,5.11,5.19,2.39,9.72,3.29,11.92,4.85s.36,46.69.36,57.56-.36,56.58-.36,56.58h16.82L227,173.8,240.52,162l.94,1.32a28.8,28.8,0,0,0,3.45,3.48l2.2-2.6-1.1-.87a11.59,11.59,0,0,1-2.19-3.5l5.85-5.47-1.47-2.4s-5.84,3.49-9.79,6c-.13.1-.28.18-.43.28V146.68s.76-2.46,0-2.78a4.63,4.63,0,0,0-2.2,0s-.49,2.3-.93,4.89c-.32,2-1.15,9.05-1.52,12.25-3.45,2.12-6.84,4.17-6.84,4.17s.24-11.78-.17-17.63c-.11-1.47-.42-4.85-.86-9.15,6.43-2,16.47-5.87,22.22-7.39,7.38-2,9-3.75,11.34-2.59s2.15,11.38,2.88,12.54l3.15-1.14v-6.91h6.72l1.06-2.29-7.78-1.14v-6.9s10.39-5.47,10.59-6.72C275.87,114.46,274.09,113.22,274.09,113.22Z"/><path class="cls-5" d="M89.81,266.46s-1-2.16-13.29,0c-46,8.09-81-13.25-76-14C28,248.2,49.92,242.28,46.59,240.27S.19,234.5,8.34,233.42c11-1.45,42.6-15,39-15.95-3.87-1.05-40.65-2.35-33.49-5.15C40.11,202,50.46,191.4,47.19,192.5s-29.77,4.21-24.88.76c16.19-11.43,29.77-33.09,29.77-33.09S36.54,164.79,31,166.05s-2.29-1.7,8.22-10.68c10-8.55,18.54-21,18.54-21a78.7,78.7,0,0,0-11.46,0c-8.37.4-7.49,1.42,0-7.19s26.94-27.34,23-28.85-23.8,10.56-20.06,6.56C59.64,93.69,84.89,48.32,86,51.36s12.35,31.88,20,42,22.86,18.72,15.56,18.22-20.33-6.73-20.33-6.73,6.79,18.88,11.89,23.44,10.76,9.62,3.4,9.1-20.39-6.58-17-2,28.66,22.88,24,23.59-21.14-3.6-21.14-3.6,14.6,20.51,19.19,23.55,10.27,5.82,5.17,6.7-20.73-2.86-20.73-2.86,12,20.46,28.1,30c2,1.16-13.6,1.45-21,0s-10.19-3.11-9.62,0,27.75,14.79,38.51,21.41c7.42,4.57-33.4-1.21-36,0-2.86,1.32,23.62,20.85,47.17,23.21,7,.71-12.28,6-26.45,9.1S89.81,266.46,89.81,266.46Z"/><path class="cls-4" d="M68.78,248.85c-.2-11.76.87-34.82.87-34.82L51.71,196.66l2.35-2.88s1.89.42,6.72,4.06S71.65,205,71.65,205s.34-20.14.69-24.77C73,171.64,70,169,70,169s-2.71-2-6.48-4.61-6.84-5.11-6.84-5.11l3-3.17a72,72,0,0,1,7.46,4.05,6.18,6.18,0,0,0,5.92.3s.06-2.44.33-9.92c.24-6.88,1.34-15.56.16-19.29s-8.71-15.1-8.71-15.1l2-3.58a15.24,15.24,0,0,1,3.67,3.76c1.78,2.54,6.94,9,6.94,9s2.2-4.9,4.87-9.82c3.25-6,1.53-6.84,5-5.94,3.8,1,2.68,1.52.89,6.34-2,5.41-2.76,7.53-4.18,10.55-1.11,2.38-.31,36.87-.31,36.87s-.27,22.6.67,22.94c4.24,1.53,16.08-1.19,16.08-1.19l-.11,3.4-16.45,5.19-.36,38.6s5.58-.21,8.63-1.61,3.57-.93,3.57-.93L97,232.74s-3.47,2.8-6.5,3.46c-2.17.46-5.37,1.29-7,1.71l2,76.56-18-.64S69,260.24,68.78,248.85Z"/><path class="cls-1" d="M153.86,260.48c7.53,0,35.37-10.37,43.43-32.38s1.46-69.78-3.81-89.9S154.11,20,154.11,20s-10.54,22.48-19.37,37.72-35.27,76.16-40.35,99.05-5.28,63.85,7.92,81.51C118.92,260.48,131.85,256.24,153.86,260.48Z"/><path class="cls-6" d="M151.76,314.68s-.4-28.17-.4-39.75-1.94-34.34.4-36,7.06-2.83,12.68-5.17a59.44,59.44,0,0,1,16.92-3.71c4.67-.39,5.34-.46,5.34-.46l-1.07-5s-.78-.24-4.68,0-5.07.48-7,.67c-3.67.35-6,2.09-5.86,0s.77-10.67-1.17-9.81a26.43,26.43,0,0,1-3.14,1.19,32.23,32.23,0,0,0-1.4,6.23,21.19,21.19,0,0,0-.13,4.47A74.74,74.74,0,0,1,155,229.4c-2.35.48-3.17.11-3.21-4.82-.05-6.77-1.57-23.88-.4-28.25a10.33,10.33,0,0,1,7.14-7.74c2.33-.85,7.89-2,11.86-3.92a18.18,18.18,0,0,1,6.7-2l-.4-3.77a70.2,70.2,0,0,0-7.38,1.6c-1.86.67-8.41,2.8-8.41,2.8s3.33-8,3.33-9.05.39-5.72.39-5.72h-3l-.9,4.93h-5.83l-1.17,1.77,4.66,2-2.63,6.09-5.15,2.09s.77-20.54,1.56-27.21l.77-6.67s5.06-2.72,7.79-3.89,9.65-3.1,9.65-3.1l-.09-3.65-9.34,2.9a19.11,19.11,0,0,0,2.5-3.64c1.17-2.2.19-2.15.19-2.15l-2.7-.87-7.61,9.63s.39-27.47.77-30,10.13-10,10.13-10l-1.45-2-2.06.88c-4.28,2.34-7,5.16-8.17,5.69s-10.36-18.53-12.38-19.72l-2-1.17c-3.9,2-3.11,4.34-3.11,4.34a36,36,0,0,1,5.14,6.17c2.26,3.51,3.11,4.8,3.11,4.8l-6.31,5.57,1.16,1.81s5.25-5.1,6.71-4.79c1.06.24,1.87,8.39,1.87,8.39s-3.51,19-3.51,24.17-1.4,11.43-3,12.78-3.59,0-3.59,0l2.38-6.91H135l-3.44,6.91s-10.13-4.86-12.46-6-5.85,4.44-5.85,4.44,1.55.62,4.68,1.59,10.9,3,14.4,4.53,7.87,4.28,7.87,5.87c0,2.79-1.67,26.23-2.1,32.47s-.19,18.77-.19,18.77-5.37-3.6-9.56-6.24-10.41-6.35-10.41-6.35l-1.56,2.57,6.22,5.82s-1.17,2.8-2.33,3.74l-1.17.94,2.33,2.77a31.35,31.35,0,0,0,3.69-3.7l1-1.4,11.29,11.05-3.5,90.11h17.9Z"/></g></g></svg>