<svg xmlns="http://www.w3.org/2000/svg" viewBox="0 0 183.16 243.65"><defs><style>.cls-1{fill:#6b6853;fill-opacity:0.42;}.cls-2{fill:#e30613;}.cls-3{fill:#fff;}.cls-4,.cls-8{fill:none;}.cls-4{stroke:#e30613;stroke-linecap:round;stroke-width:1.88px;}.cls-5{fill:#a85318;}.cls-6{fill:#f39200;}.cls-7{fill:#dad8cc;}.cls-8{stroke:#dad8cc;stroke-width:0.27px;}</style></defs><title>guitarrero</title><g id="Layer_2" data-name="Layer 2"><g id="Layer_1-2" data-name="Layer 1"><path class="cls-1" d="M147.88,243.49c1.12-.19-.65-.33.72-.23A.56.56,0,0,1,147.88,243.49Z"/><path class="cls-1" d="M146.51,243.65c-.27-.22-1.06-.32-.45-.68C146.15,243.21,146.57,243.43,146.51,243.65Z"/><path class="cls-1" d="M125.43,241.53c0,.07-.29-.11-.37-.14.26,0,.5-.22.72-.11C125.51,241.31,125.55,241.42,125.43,241.53Z"/><path class="cls-1" d="M120.05,241.36c.08-.22,1.23-.38,1.91-.41Z"/><path class="cls-1" d="M115.06,240.43c-.43-.19-.31-.28.27-.27C115.37,240.26,115.18,240.33,115.06,240.43Z"/><path class="cls-1" d="M114.7,240.91a1.36,1.36,0,0,1-.83-.25C113.88,240.85,114.84,240.56,114.7,240.91Z"/><path class="cls-1" d="M103.83,240.18c-.27,0-.83.2-1.07-.05C103,240.3,104,239.87,103.83,240.18Z"/><path class="cls-1" d="M98.76,240.48a1,1,0,0,0-.42,0c-.31-.1,0-.26.27-.28Z"/><path class="cls-1" d="M103.55,236.72l-.54.14.07-.21Z"/><path class="cls-1" d="M137.59,235.11c-.34.41-.39,0-.48.06C137.47,234.88,137.11,235.48,137.59,235.11Z"/><path class="cls-1" d="M117.63,241.72l.16,0v.45Z"/><path class="cls-2" d="M104.64,64c10.7,4.53,25.16,8,29,15.26,2.82,4.88-.78,6.2-6.18,3.88-2.88-.73-4.65.93-8.15.86-6.61,7.66-7.45,7.5-15.27,10.4-.53,4.56,1,13.29.21,20.26-12.37.4-27.52,9.15-28.6,1-.39-2.87.74-11.57-.4-14.24C73.7,97.6,71,93.78,69.11,90.34c-3.82-5.73-8.75-12-5.7-19.25C70.3,56.17,94,59.49,104.64,64Z"/><path d="M75.71,108.58c-11.88,23.09-18.19,47.6-17.8,73.2.38,10.31,3.78,22.66,10.06,30.77C72.2,218,80.45,220.26,92.41,219c3.44-7.25,1.53-17.19,1.53-24.45-.38-8.79.39-43.91,1.15-53.85.39-5.74.21-15.84-.43-28.09C80.1,112.1,75.71,108.58,75.71,108.58Z"/><path class="cls-2" d="M104.11,108.76c1.24,5.69,1.11,17.75,2.6,23.43,1.23,5.19,1,10.13,2.46,15.32,2.22,8.65,3.46,18,4.94,27.17,2.23,13.33,9.48,28.15-2.61,38.78-3.71,3.46-9.35,4.89-20,5.75,1.62-3.07,2.87-14.64,2.63-18.35-.24-6.16-2-12.59-1.48-18.52,1.24-20.26.6-46.28,2.08-66.78C95,111.09,99.17,107.77,104.11,108.76Z"/><path class="cls-3" d="M72.79,76.46c0,5.13,4,8.69,9.34,8.69s9.34-3.55,9.34-8.69a9.48,9.48,0,0,0-9.64-9.32A9,9,0,0,0,72.79,76.46Z"/><path d="M80.31,75.25a1.82,1.82,0,0,0,3.63,0,1.84,1.84,0,0,0-1.86-1.81A1.76,1.76,0,0,0,80.31,75.25Z"/><path class="cls-2" d="M68.8,211.56c0,6.58,1,19.86,1.63,24.73.39,2.91,8.83,2.17,11.3,1.84s2.65-2.84.31-3.32-7.64-1.06-7.64-1.06S73.11,218.19,73.09,213C73.08,209.55,68.8,208.16,68.8,211.56Z"/><path class="cls-2" d="M101.15,216.23s14.43,13.7,18.27,16.75c2.3,1.84,7.88-4.55,9.44-6.48s-.05-3.88-2.07-2.6-6.25,4.51-6.25,4.51L105.25,214.3Z"/><path class="cls-4" d="M63.55,73.7S52.86,64.38,42.81,61.6,11.37,50.27,9,35.93c-3.12-19,21.6-17.75,21.6-17.75"/><path class="cls-4" d="M70.39,63.54s-13.24-16.62-19.13-24c-5.11-6.38-12.52-24.86-.75-29.95C72.75,0,83.8,21.17,83.8,21.17"/><path d="M54.13,8.12a8.57,8.57,0,0,0,17.11,0,8.57,8.57,0,0,0-17.11,0Z"/><path d="M0,30.81a8.18,8.18,0,1,0,8.18-8.12A8.15,8.15,0,0,0,0,30.81Z"/><path class="cls-2" d="M105.44,136c10.16-4.47,17.94-8,28.83-9.25,5.71-.63,7.95.08,7.36-6.13-.25-3.62-2.35-10.47-5.79-5.56-.85,1.23,1.79,3.73.39,5.43-1.14,1.47-14.85,3.64-19,5.24-3.45,1.31-11,4.22-13.83,6.55C100.06,135,99.13,138.77,105.44,136Z"/><path class="cls-2" d="M68.19,176.48c1,7.73,6.72,17,15.61,21.77,4.25,2.26,9.07.56,8.64,7.37-.45,7-2.13,7.62-3.54,7.66-2.37.07-1.47-2.87-1.05-9.16A40.7,40.7,0,0,1,75,196.89c-10.07-8-14.59-24.64-11.26-27.34C67.59,166.48,67.64,172.16,68.19,176.48Z"/><path class="cls-5" d="M141.68,141.66c-5.13-4.51-15.61-9-24.09-1.37-4.09,3.68-5.09,9.17-7.91,11.8-5.06,4.7-8.49.91-18.32,6.76-10.92,6.51-24,21.26-3.6,40.52,15.55,14.68,35,12.92,41.75-1.14s1.42-17.52,6.23-23c2.89-3.26,8.84-3.84,12.42-13.06C151.28,154.19,146.6,146,141.68,141.66Z"/><path class="cls-6" d="M136.38,137c-5.13-4.51-15.61-9-24.09-1.37-4.09,3.68-5.09,9.17-7.92,11.8-5.06,4.71-8.5.91-18.32,6.76-10.92,6.52-24,21.26-3.6,40.52,15.53,14.69,35,12.92,41.74-1.13s1.42-17.53,6.24-23c2.87-3.26,8.84-3.84,12.4-13.06C146,149.5,141.29,141.29,136.38,137Z"/><path class="cls-5" d="M99.41,164.15c0,6.06,5.21,10.95,11.64,10.95s11.64-4.91,11.64-10.95-5.22-11-11.64-11S99.41,158.11,99.41,164.15Z"/><path d="M102.21,164.15a8.86,8.86,0,1,0,8.84-8.31A8.59,8.59,0,0,0,102.21,164.15Z"/><path d="M159.68,99.93c.44-.49.09-1.53.51-2,5.85-6.76,9.93-11.4,10.39-11.8a19.86,19.86,0,0,0,6.77,0l.73.63c-.07,2.37.61,5.59,1.54,6.77-.46.57-4.83,5.69-11.06,13-.5.59-1.7.35-2.22,1-18.31,21.4-50.07,58.42-50.07,58.42L108.94,159S141.59,120.82,159.68,99.93Zm7.78,1.24.82.64a.28.28,0,0,0,.37-.07l7.59-9.24a.26.26,0,0,0,0-.37l-.83-.65a.28.28,0,0,0-.37.07l-7.58,9.24A.3.3,0,0,0,167.46,101.17Zm-3.15-2.41.81.65a.27.27,0,0,0,.37-.08l7.59-9.23a.26.26,0,0,0,0-.37l-.82-.65a.28.28,0,0,0-.37.07l-7.6,9.24A.27.27,0,0,0,164.31,98.76Z"/><path class="cls-7" d="M180.29,100s-1.55-.49-1.17-1,1-1.47,1-1.47l-2.93-2.3.38-.48,3,2.19s.65-1.13,1-1.23,1.89,1,1.57,1.57S181.19,100,180.29,100Z"/><path class="cls-7" d="M176.61,103.75c-.54-.17-1.06-.76-.86-1.18a5.48,5.48,0,0,1,.83-1L174,99.18l.32-.47,2.81,2.11s.72-1.36,1.31-1.22,1.42.78,1.09,1.38S177.45,104,176.61,103.75Z"/><path class="cls-7" d="M173.51,108.19c-.54,0-1.48-.79-1.27-1.2a9,9,0,0,1,1-1.29l-2.57-2.35.44-.66,2.7,2s.73-1.42,1.32-1.15,1.35.84,1,1.49S174.18,108.21,173.51,108.19Z"/><path class="cls-7" d="M160,91.22s1.54.49,1.16,1-1,1.47-1,1.47l2.92,2.3-.38.48-3-2.19s-.65,1.13-1,1.23-1.89-1-1.57-1.57S159.12,91.25,160,91.22Z"/><path class="cls-7" d="M163.69,87.51c.54.17,1.06.76.86,1.18a5.85,5.85,0,0,1-.83,1l2.55,2.34-.32.47-2.81-2.11s-.73,1.36-1.31,1.22-1.42-.78-1.09-1.38S162.86,87.24,163.69,87.51Z"/><path class="cls-7" d="M166.8,83.07c.53,0,1.48.79,1.27,1.2a9.29,9.29,0,0,1-.95,1.29l2.56,2.34-.44.65-2.7-2s-.73,1.42-1.32,1.15-1.35-.84-1-1.5S166.13,83.05,166.8,83.07Z"/><path class="cls-8" d="M169.8,101.31S141.06,134.4,128,149.65,95.69,187.2,95.69,187.2"/><path class="cls-8" d="M172.42,96.31s-31.85,36.05-44.94,51.31L95.21,185.17"/><path class="cls-8" d="M169,93.76s-31.84,36.05-44.94,51.32-32.27,37.54-32.27,37.54"/><path class="cls-8" d="M174.7,91.3s-35.91,41.06-49,56.32-32.27,37.55-32.27,37.55"/><path class="cls-8" d="M173.39,90.4s-35.31,40.7-48.39,56-33.25,37.39-33.25,37.39"/><path class="cls-8" d="M164.43,96.93s-28.7,33.14-41.8,48.41-32.22,36.35-32.22,36.35"/><path d="M86.73,179.57l.25-.31a2,2,0,0,1,2.93-.21l7.84,7.12a2.24,2.24,0,0,1,.2,3.07l-.25.31Z"/><path class="cls-2" d="M78.66,138.36c.27,8.24,7.25,18.37,21,19.65,5,.24,11.05.62,10.56,7.62-.5,7.22-2.3,7.63-3.79,7.63-2.48,0-2.08-3.07-1.62-9.52-4.87-1.64-11.16-1.52-16.53-3.75-12.47-5.19-18.68-25.6-14.17-28.85C78.19,128.18,78.51,133.88,78.66,138.36Z"/></g></g></svg>