<svg xmlns="http://www.w3.org/2000/svg" viewBox="0 0 477 215"><defs><style>.cls-1{fill:#e9e7e1;}.cls-1,.cls-2{fill-rule:evenodd;}.cls-2{fill:#c8c2b8;}</style></defs><title>nube2</title><g id="Layer_2" data-name="Layer 2"><g id="Layer_1-2" data-name="Layer 1"><path class="cls-1" d="M244,208.1s99,6.44,99-41.17-21.85-83.06-61.71-80.12-50.14,17.08-50.14,17.08S244,62.73,205.44,55,164.3,86.81,164.3,86.81,138.59,52.43,109,75.59,75.6,131.2,75.6,131.2s-30.85-39.6-59.14,0S-2.82,212,37,214.54,244,208.1,244,208.1Z"/><path class="cls-2" d="M477,128.06c-.1-6.9-2.57-64.09-45-82s-78.36,24.35-78.36,24.35-5.14-79-56.53-69.6S247,55,247,55s-16.87-27.19-45-18c-31.14,10.25-25.7,38.89-25.7,38.89s-17.25-20.88-42.81-5.56-39.41,42.3-33,71.78S132.4,210.09,288.63,196,477.69,176.77,477,128.06Z"/></g></g></svg>