<?xml version="1.0" encoding="utf-8"?>
<!-- Generator: Adobe Illustrator 26.5.0, SVG Export Plug-In . SVG Version: 6.00 Build 0)  -->
<svg version="1.1" id="Capa_1" xmlns="http://www.w3.org/2000/svg" xmlns:xlink="http://www.w3.org/1999/xlink" x="0px" y="0px"
	 viewBox="0 0 1171 510" style="enable-background:new 0 0 1171 510;" xml:space="preserve">
<style type="text/css">
	.st0{fill-rule:evenodd;clip-rule:evenodd;fill:#2FAC66;}
	.st1{fill-rule:evenodd;clip-rule:evenodd;fill:#1B8A4F;}
	.st2{fill-rule:evenodd;clip-rule:evenodd;fill:#FFDE00;}
	.st3{fill:#FFDE00;}
	.st4{fill:#F39200;}
	.st5{fill-rule:evenodd;clip-rule:evenodd;fill:#F39200;}
	.st6{fill:#9D978E;}
	.st7{fill:#DAD8CC;}
	.st8{fill:#ACA89D;}
	.st9{fill:#C4C0B4;}
	.st10{fill:#2FAC66;}
	.st11{fill:#A85318;}
	.st12{fill-rule:evenodd;clip-rule:evenodd;fill:#814114;}
	.st13{fill:#814114;}
</style>
<path class="st0" d="M309.5,376.1c0,0,380.1-33.9,560.6-38.9c156.8-4.3,184.3,177.9,184.3,177.9h-112l-652-54L309.5,376.1z"/>
<path class="st1" d="M902.4,446.1c0,0-148.5-52.7-328.9-59.2s-260.1,9.6-260.1,9.6v173.4h718.8
	C1027.1,513.3,1006.8,484.7,902.4,446.1z"/>
<g>
	<path class="st2" d="M547.2,316.5c0.2,0.1,1,3.6-0.5,6.7c-1,2.1-2.8,3.7-4.9,4.6c-0.7-2.2-0.5-4.6,0.5-6.7
		C543.7,318,547,316.4,547.2,316.5z"/>
	<path class="st2" d="M533.4,317.5c-0.2,0.1-0.5,3.7,1.5,6.6c1.3,1.9,3.3,3.3,5.6,3.8c0.3-2.3-0.2-4.6-1.5-6.6
		C537.7,319.4,535.7,318,533.4,317.5z"/>
	<path class="st2" d="M539.6,307.7c0.2,0,2.7,2.6,2.9,6.1c0.1,2.3-0.6,4.6-2,6.4c-1.7-1.6-2.7-3.8-2.9-6.1
		C537.3,310.7,539.3,307.8,539.6,307.7z"/>
	<path class="st2" d="M547.8,324.4c0.2,0.1,1,3.6-0.5,6.7c-1,2.1-2.8,3.7-4.9,4.6c-0.7-2.2-0.5-4.6,0.5-6.7
		C544.3,325.9,547.6,324.3,547.8,324.4z"/>
	<path class="st2" d="M534,325.5c-0.2,0.1-0.5,3.7,1.5,6.6c1.3,1.9,3.3,3.3,5.6,3.8c0.3-2.3-0.2-4.6-1.5-6.6
		C537.7,326.4,534.2,325.3,534,325.5z"/>
	<path class="st2" d="M548.4,332.4c0.2,0.1,1,3.6-0.5,6.7c-1,2.1-2.8,3.7-4.9,4.6c-0.7-2.2-0.5-4.6,0.5-6.7
		C544.9,333.8,548.2,332.3,548.4,332.4z"/>
	<path class="st2" d="M534.6,333.4c-0.2,0.1-0.5,3.7,1.5,6.6c1.3,1.9,3.3,3.2,5.6,3.8c0.3-2.3-0.2-4.6-1.5-6.6
		C538.3,334.3,534.8,333.3,534.6,333.4z"/>
	<path class="st3" d="M543,300.9h-0.6l0.8,11.3l0.6,0L543,300.9z"/>
	<path class="st3" d="M545,303.2h-0.6l0.9,11.3l0.6-0.1L545,303.2z"/>
	<path class="st3" d="M546.9,305.6h-0.6l0.8,10.1l0.6-0.1L546.9,305.6z"/>
	<path class="st3" d="M536.3,312.7l-0.8-11.3h0.6l0.8,11.3L536.3,312.7z"/>
	<path class="st3" d="M534.6,304h-0.6l0.9,11.3l0.6,0L534.6,304z"/>
	<path class="st3" d="M533.2,316.8l-0.8-10l0.6-0.1l0.8,10.1L533.2,316.8z"/>
	<path class="st3" d="M541.1,298.5l-0.6,0.1l0.7,9.5l0.6,0L541.1,298.5z"/>
	<path class="st3" d="M537.6,298.7l-0.6,0l0.7,9.5l0.6-0.1L537.6,298.7z"/>
	<path class="st3" d="M539.2,296.1h-0.5l0.7,9.5h0.5L539.2,296.1z"/>
	<path class="st4" d="M542.8,345L542,345l2.1,27.9l0.8-0.1L542.8,345z"/>
	<path class="st5" d="M543.5,359.5c-0.3-1,2.4-11,5.2-12.8C547.8,353.3,545.7,357.2,543.5,359.5z"/>
	<path class="st5" d="M543.8,363.3c0.2-1-4.1-10.5-7.1-11.9C538.6,357.8,541.3,361.3,543.8,363.3z"/>
	<path class="st5" d="M544.3,343.1c0,0.1,0.1,0.2,0.1,0.4c0.1,1.1-0.8,2.1-1.9,2.2c-1.1,0.1-2.1-0.7-2.2-1.8c0,0,0,0,0,0
		c0-0.1,0-0.2,0-0.4L544.3,343.1z"/>
	<path class="st2" d="M524.7,318.2c0.2,0.1,1,3.6-0.5,6.7c-1,2.1-2.8,3.7-4.9,4.6c-0.7-2.2-0.5-4.6,0.5-6.7
		C521.3,319.7,524.5,318.1,524.7,318.2z"/>
	<path class="st2" d="M510.9,319.2c-0.2,0.1-0.5,3.7,1.5,6.6c1.3,1.9,3.3,3.3,5.6,3.8c0.3-2.3-0.2-4.6-1.5-6.6
		C514.6,320.2,511.2,319.1,510.9,319.2z"/>
	<path class="st2" d="M517.1,309.5c0.2,0,2.7,2.6,2.9,6.1c0.1,2.3-0.6,4.6-2,6.4c-1.7-1.6-2.7-3.8-2.9-6.1
		C514.9,312.4,516.9,309.5,517.1,309.5z"/>
	<path class="st2" d="M525.3,326.1c0.2,0.1,1,3.6-0.5,6.7c-1,2.1-2.8,3.7-4.9,4.6c-0.7-2.2-0.5-4.6,0.5-6.7
		C521.9,327.6,525,326,525.3,326.1z"/>
	<path class="st2" d="M511.5,327.2c-0.2,0.1-0.5,3.7,1.5,6.6c1.3,1.9,3.3,3.3,5.6,3.8c0.3-2.3-0.2-4.6-1.5-6.6
		C515.2,328.1,511.8,327,511.5,327.2z"/>
	<path class="st2" d="M525.9,334.1c0.2,0.1,1,3.6-0.5,6.7c-1,2.1-2.8,3.7-5,4.6c-0.7-2.2-0.5-4.6,0.5-6.7
		C521.9,336.6,523.7,335,525.9,334.1z"/>
	<path class="st2" d="M512.1,335.1c-0.2,0.1-0.5,3.7,1.5,6.6c1.3,1.9,3.3,3.2,5.6,3.8c0.3-2.3-0.2-4.6-1.5-6.6
		C515.8,336.1,512.4,335,512.1,335.1z"/>
	<path class="st3" d="M520.6,302.6H520l0.9,11.3l0.6,0L520.6,302.6z"/>
	<path class="st3" d="M522.5,304.9h-0.6l0.9,11.3l0.6,0L522.5,304.9z"/>
	<path class="st3" d="M524.4,307.3h-0.6l0.8,10.1h0.6L524.4,307.3z"/>
	<path class="st3" d="M513.6,303.1H513l0.9,11.3h0.6L513.6,303.1z"/>
	<path class="st3" d="M512.1,305.7h-0.6l0.9,11.4l0.6,0L512.1,305.7z"/>
	<path class="st3" d="M510.6,308.4l-0.6,0l0.8,10.1l0.6,0L510.6,308.4z"/>
	<path class="st3" d="M518.6,300.2H518l0.7,9.5h0.6L518.6,300.2z"/>
	<path class="st3" d="M515.1,300.5h-0.6l0.7,9.5h0.6L515.1,300.5z"/>
	<path class="st3" d="M516.9,307.4l-0.7-9.5h0.5l0.7,9.5H516.9z"/>
	<path class="st4" d="M520.3,346.7l-0.8,0.1l2.1,27.9l0.8-0.1L520.3,346.7z"/>
	<path class="st5" d="M521,361.2c-0.3-1,2.4-11,5.2-12.9C525.4,355,523.2,358.9,521,361.2z"/>
	<path class="st5" d="M521.3,365c0.2-1-4.1-10.5-7.1-11.9C516.1,359.5,518.8,363,521.3,365z"/>
	<path class="st5" d="M521.8,344.8c0,0.1,0,0.2,0,0.4c0.1,1.1-0.7,2.1-1.8,2.2c0,0,0,0,0,0c-1.1,0.1-2.1-0.7-2.2-1.8c0,0,0,0,0-0.1
		c0-0.1,0-0.2,0-0.4L521.8,344.8z"/>
	<path class="st2" d="M502.2,319.9c0.2,0.1,1,3.6-0.5,6.7c-1,2.1-2.8,3.7-4.9,4.6c-0.7-2.2-0.5-4.6,0.5-6.7
		C498.8,321.4,502,319.8,502.2,319.9z"/>
	<path class="st2" d="M488.5,321c-0.2,0.1-0.5,3.7,1.5,6.6c1.3,1.9,3.3,3.3,5.6,3.8c0.3-2.3-0.2-4.6-1.5-6.6
		C492,321.9,488.7,320.8,488.5,321z"/>
	<path class="st2" d="M494.6,311.1c0.2,0,2.7,2.6,2.9,6.1c0.1,2.3-0.6,4.6-2,6.5c-1.7-1.6-2.7-3.8-2.9-6.1
		C492.5,315.2,493.2,312.9,494.6,311.1z"/>
	<path class="st2" d="M502.8,327.9c0.2,0.1,1,3.6-0.5,6.7c-1,2.1-2.8,3.7-4.9,4.6c-0.7-2.2-0.5-4.6,0.5-6.7
		C499.4,329.3,502.6,327.7,502.8,327.9z"/>
	<path class="st2" d="M489,328.9c-0.2,0.1-0.5,3.7,1.5,6.6c1.3,1.9,3.3,3.3,5.6,3.8c0.3-2.3-0.2-4.6-1.5-6.6
		C492.7,329.8,489.3,328.7,489,328.9z"/>
	<path class="st2" d="M503.4,335.8c0.2,0.1,1,3.6-0.5,6.7c-1,2.1-2.8,3.7-4.9,4.6c-0.7-2.2-0.5-4.6,0.5-6.7
		C500,337.3,503.2,335.7,503.4,335.8z"/>
	<path class="st2" d="M489.7,336.8c-0.2,0.1-0.5,3.7,1.5,6.6c1.3,1.9,3.3,3.3,5.6,3.8c0.3-2.3-0.2-4.6-1.5-6.6
		C493.3,337.8,489.9,336.7,489.7,336.8z"/>
	<path class="st3" d="M498.1,304.3h-0.6l0.9,11.3l0.6-0.1L498.1,304.3z"/>
	<path class="st3" d="M500,306.6l-0.6,0l0.9,11.3l0.6,0L500,306.6z"/>
	<path class="st3" d="M501.9,309h-0.6l0.8,10.1l0.6,0L501.9,309z"/>
	<path class="st3" d="M491.1,304.8h-0.6l0.9,11.3l0.7,0L491.1,304.8z"/>
	<path class="st3" d="M489.6,307.4H489l0.9,11.3l0.6-0.1L489.6,307.4z"/>
	<path class="st3" d="M488.2,320.2l-0.8-10.1h0.6l0.8,10L488.2,320.2z"/>
	<path class="st3" d="M496.1,301.9h-0.6l0.7,9.5l0.6,0L496.1,301.9z"/>
	<path class="st3" d="M492.7,302.2H492l0.7,9.5l0.6-0.1L492.7,302.2z"/>
	<path class="st3" d="M494.4,309.1l-0.7-9.5h0.5l0.7,9.5L494.4,309.1z"/>
	<path class="st4" d="M497.8,348.4l-0.8,0.1l2.1,27.9l0.8-0.1L497.8,348.4z"/>
	<path class="st5" d="M498.6,362.9c-0.3-1,2.4-11,5.3-12.8C502.9,356.7,500.7,360.6,498.6,362.9z"/>
	<path class="st5" d="M498.8,366.7c0.2-1-4.1-10.5-7.1-11.9C493.6,361.2,496.4,364.8,498.8,366.7z"/>
	<path class="st5" d="M499.3,346.5c0,0.1,0,0.2,0,0.4c0.1,1.1-0.8,2.1-1.9,2.2s-2.1-0.8-2.2-1.9l0,0c0-0.1,0-0.2,0-0.4L499.3,346.5z
		"/>
	<path class="st2" d="M479.7,321.6c0.2,0.1,1,3.6-0.5,6.7c-1,2.1-2.8,3.7-4.9,4.6c-0.7-2.2-0.5-4.6,0.5-6.7
		C476.3,323.1,479.5,321.5,479.7,321.6z"/>
	<path class="st2" d="M466,322.7c-0.2,0.1-0.5,3.7,1.5,6.6c1.3,1.9,3.3,3.3,5.6,3.8c0.3-2.3-0.2-4.6-1.5-6.6
		C469.6,323.6,466.2,322.5,466,322.7z"/>
	<path class="st2" d="M472.1,312.9c0.2,0,2.7,2.6,2.9,6.1c0.1,2.3-0.6,4.6-2,6.4c-1.7-1.6-2.7-3.8-2.9-6.1
		C469.9,315.9,471.9,312.9,472.1,312.9z"/>
	<path class="st2" d="M480.3,329.6c0.2,0.1,1,3.6-0.5,6.7c-1,2.1-2.8,3.7-4.9,4.6c-0.7-2.2-0.5-4.6,0.5-6.7
		C476.9,331,480.1,329.4,480.3,329.6z"/>
	<path class="st2" d="M466.6,330.6c-0.2,0.1-0.5,3.7,1.5,6.6c1.3,1.9,3.3,3.2,5.6,3.8c0.3-2.3-0.2-4.6-1.5-6.6
		C470.2,331.5,466.8,330.5,466.6,330.6z"/>
	<path class="st2" d="M480.9,337.5c0.2,0.1,1,3.6-0.5,6.7c-1,2.1-2.8,3.7-4.9,4.6c-0.6-2.2-0.5-4.6,0.5-6.7
		C477.5,339,480.7,337.4,480.9,337.5z"/>
	<path class="st2" d="M467.2,338.5c-0.2,0.1-0.5,3.7,1.5,6.6c1.3,1.9,3.3,3.2,5.6,3.8c0.3-2.3-0.2-4.6-1.5-6.6
		C470.8,339.5,467.4,338.4,467.2,338.5z"/>
	<path class="st3" d="M475.6,306l-0.6,0l0.9,11.3h0.6L475.6,306z"/>
	<path class="st3" d="M477.5,308.3h-0.6l0.9,11.3h0.6L477.5,308.3z"/>
	<path class="st3" d="M479.4,310.7l-0.6,0.1l0.8,10.1h0.6L479.4,310.7z"/>
	<path class="st3" d="M468.9,317.9l-0.8-11.3h0.6l0.9,11.3L468.9,317.9z"/>
	<path class="st3" d="M467.1,309.1l-0.6,0l0.9,11.3h0.6L467.1,309.1z"/>
	<path class="st3" d="M465.6,311.8H465l0.8,10h0.6L465.6,311.8z"/>
	<path class="st3" d="M473.7,313.1l-0.7-9.5h0.6l0.7,9.5L473.7,313.1z"/>
	<path class="st3" d="M470.2,303.9h-0.6l0.7,9.5l0.6-0.1L470.2,303.9z"/>
	<path class="st3" d="M471.7,301.2h-0.5l0.7,9.5h0.5L471.7,301.2z"/>
	<path class="st4" d="M475.4,350.1l-0.8,0.1l2.1,27.9l0.8-0.1L475.4,350.1z"/>
	<path class="st5" d="M476.1,364.6c-0.3-1,2.4-11,5.2-12.9C480.4,358.4,478.2,362.3,476.1,364.6z"/>
	<path class="st5" d="M476.3,368.4c0.2-1-4.1-10.5-7.1-11.9C471.1,362.9,473.9,366.5,476.3,368.4z"/>
	<path class="st5" d="M476.8,348.3c0,0.1,0.1,0.2,0.1,0.4c0.1,1.1-0.8,2.1-1.9,2.2c-1.1,0.1-2.1-0.8-2.2-1.9c0-0.1,0-0.2,0-0.4
		L476.8,348.3z"/>
	<path class="st2" d="M457.2,323.3c0.2,0.1,1,3.6-0.5,6.7c-1,2.1-2.8,3.7-5,4.6c-0.7-2.2-0.5-4.6,0.5-6.7
		C453.8,324.8,457,323.2,457.2,323.3z"/>
	<path class="st2" d="M443.5,324.4c-0.2,0.1-0.5,3.7,1.5,6.6c1.3,1.9,3.3,3.3,5.6,3.8c0.3-2.3-0.2-4.6-1.5-6.6
		C447.1,325.3,443.7,324.2,443.5,324.4z"/>
	<path class="st2" d="M449.6,314.6c0.3,0,2.7,2.6,2.9,6.1c0.2,2.3-0.6,4.6-2,6.5c-1.7-1.6-2.7-3.8-2.9-6.1
		C447.4,317.6,449.4,314.6,449.6,314.6z"/>
	<path class="st2" d="M457.8,331.3c0.2,0.1,1,3.6-0.5,6.7c-1,2.1-2.8,3.7-4.9,4.6c-0.7-2.2-0.5-4.6,0.5-6.7
		C454.4,332.7,457.6,331.1,457.8,331.3z"/>
	<path class="st2" d="M444.1,332.3c-0.2,0.1-0.5,3.7,1.5,6.6c1.3,1.9,3.3,3.2,5.6,3.8c0.3-2.3-0.2-4.6-1.5-6.6
		C447.7,333.2,444.3,332.2,444.1,332.3z"/>
	<path class="st2" d="M458.4,339.2c0.2,0.1,1,3.6-0.5,6.7c-1,2.1-2.8,3.7-4.9,4.6c-0.7-2.2-0.5-4.6,0.5-6.7
		C455,340.7,458.2,339.1,458.4,339.2z"/>
	<path class="st2" d="M444.7,340.2c-0.2,0.1-0.5,3.7,1.5,6.6c1.3,1.9,3.3,3.2,5.6,3.8c0.3-2.3-0.2-4.6-1.5-6.6
		C448.3,341.2,444.9,340.1,444.7,340.2z"/>
	<path class="st3" d="M453.1,307.7h-0.6l0.9,11.3l0.6,0L453.1,307.7z"/>
	<path class="st3" d="M455.3,321.4l-0.9-11.3h0.6l0.9,11.3L455.3,321.4z"/>
	<path class="st3" d="M456.9,312.4l-0.6,0l0.7,10.1l0.6-0.1L456.9,312.4z"/>
	<path class="st3" d="M446.2,308.2l-0.6,0.1l0.9,11.3l0.6-0.1L446.2,308.2z"/>
	<path class="st3" d="M444.9,322.2l-0.8-11.3l0.6-0.1l0.8,11.3L444.9,322.2z"/>
	<path class="st3" d="M443.1,313.5h-0.6l0.8,10.1l0.6-0.1L443.1,313.5z"/>
	<path class="st3" d="M451.1,305.3h-0.6l0.7,9.5l0.6,0L451.1,305.3z"/>
	<path class="st3" d="M447.8,315.1l-0.7-9.5h0.6l0.7,9.5L447.8,315.1z"/>
	<path class="st3" d="M449.2,302.9h-0.5l0.7,9.5h0.5L449.2,302.9z"/>
	<path class="st4" d="M454.2,379.7l-2.1-27.9l0.8-0.1l2.1,27.9L454.2,379.7z"/>
	<path class="st5" d="M453.6,366.3c-0.3-1,2.4-11,5.2-12.8C457.9,360.1,455.7,364,453.6,366.3z"/>
	<path class="st5" d="M453.9,370.1c0.2-1-4.1-10.5-7.1-11.9C448.7,364.6,451.4,368.2,453.9,370.1z"/>
	<path class="st5" d="M454.3,350c0,0.1,0.1,0.2,0.1,0.4c0.1,1.1-0.8,2.1-1.9,2.2c-1.1,0.1-2.1-0.8-2.2-1.9l0,0c0-0.1,0-0.2,0-0.4
		L454.3,350z"/>
	<path class="st2" d="M434.7,325c0.2,0.1,1,3.6-0.5,6.7c-1,2.1-2.8,3.7-4.9,4.6c-0.7-2.2-0.5-4.6,0.5-6.7
		C431.3,326.5,434.5,324.9,434.7,325z"/>
	<path class="st2" d="M421,326.1c-0.2,0.1-0.5,3.7,1.5,6.6c1.3,1.9,3.3,3.3,5.6,3.8c0.3-2.3-0.2-4.6-1.5-6.6
		C424.6,327,421.2,325.9,421,326.1z"/>
	<path class="st2" d="M427.2,316.3c0.2,0,2.7,2.6,2.9,6.1c0.2,2.3-0.6,4.6-2,6.4c-1.7-1.6-2.7-3.8-2.9-6.1
		C424.9,319.3,426.9,316.3,427.2,316.3z"/>
	<path class="st2" d="M435.3,333c0.2,0.1,1,3.6-0.5,6.7c-1,2.1-2.8,3.7-4.9,4.6c-0.7-2.2-0.5-4.6,0.5-6.7
		C431.9,334.4,435.1,332.9,435.3,333z"/>
	<path class="st2" d="M421.6,334c-0.2,0.1-0.5,3.7,1.5,6.6c1.3,1.9,3.3,3.3,5.6,3.8c0.3-2.3-0.2-4.6-1.5-6.6
		C425.2,334.9,421.8,333.9,421.6,334z"/>
	<path class="st2" d="M436,340.9c0.2,0.1,1,3.6-0.5,6.7c-1,2.1-2.8,3.7-4.9,4.6c-0.7-2.2-0.5-4.6,0.5-6.7
		C432.5,342.4,435.7,340.8,436,340.9z"/>
	<path class="st2" d="M422.2,341.9c-0.2,0.1-0.5,3.7,1.5,6.6c1.3,1.9,3.3,3.2,5.6,3.8c0.3-2.3-0.2-4.6-1.5-6.6
		C425.8,342.9,422.4,341.8,422.2,341.9z"/>
	<path class="st3" d="M430.6,309.4l-0.6,0l0.9,11.3l0.6,0L430.6,309.4z"/>
	<path class="st3" d="M432.8,323.1l-0.9-11.3h0.6l0.9,11.3H432.8z"/>
	<path class="st3" d="M434.4,314.1h-0.6l0.8,10.1l0.6,0L434.4,314.1z"/>
	<path class="st3" d="M423.7,309.9l-0.6,0l0.9,11.3h0.6L423.7,309.9z"/>
	<path class="st3" d="M422.2,312.6h-0.6l0.9,11.3l0.6,0L422.2,312.6z"/>
	<path class="st3" d="M420.8,325.3l-0.8-10l0.6-0.1l0.8,10.1H420.8z"/>
	<path class="st3" d="M428.7,307H428l0.7,9.5l0.6,0L428.7,307z"/>
	<path class="st3" d="M425.2,307.3h-0.6l0.7,9.5l0.6,0L425.2,307.3z"/>
	<path class="st3" d="M426.9,314.2l-0.7-9.5l0.5-0.1l0.7,9.5L426.9,314.2z"/>
	<path class="st4" d="M430.4,353.5l-0.8,0.1l2.1,27.9l0.8-0.1L430.4,353.5z"/>
	<path class="st5" d="M431.1,368.1c-0.3-1,2.4-11,5.2-12.8C435.4,361.8,433.2,365.7,431.1,368.1z"/>
	<path class="st5" d="M431.4,371.9c0.2-1-4.1-10.5-7.1-11.9C426.2,366.3,428.9,369.9,431.4,371.9z"/>
	<path class="st5" d="M431.9,351.7c0,0.1,0,0.2,0,0.4c0.1,1.1-0.7,2.1-1.9,2.1c-1.1,0.1-2.1-0.7-2.1-1.9l0,0c0-0.1,0-0.2,0-0.4
		L431.9,351.7z"/>
	<path class="st2" d="M412.3,326.7c0.2,0.1,1,3.6-0.5,6.7c-1,2.1-2.8,3.7-4.9,4.6c-0.7-2.2-0.5-4.6,0.5-6.7
		C408.8,328.2,412,326.6,412.3,326.7z"/>
	<path class="st2" d="M398.5,327.8c-0.2,0.1-0.5,3.7,1.5,6.6c1.3,1.9,3.3,3.2,5.6,3.8c0.3-2.3-0.2-4.6-1.5-6.6
		C402.8,329.6,400.8,328.3,398.5,327.8z"/>
	<path class="st2" d="M404.7,318c0.2,0,2.7,2.6,2.9,6.1c0.2,2.3-0.6,4.6-2,6.4c-1.7-1.6-2.7-3.8-2.9-6.1
		C402.4,321,404.4,318,404.7,318z"/>
	<path class="st2" d="M412.9,334.7c0.2,0.1,1,3.6-0.5,6.7c-1,2.1-2.8,3.7-4.9,4.6c-0.7-2.2-0.5-4.6,0.5-6.7
		C409.4,336.1,412.6,334.6,412.9,334.7z"/>
	<path class="st2" d="M399.1,335.7c-0.2,0.1-0.5,3.7,1.5,6.6c1.3,1.9,3.3,3.3,5.6,3.8c0.3-2.3-0.2-4.6-1.5-6.6
		C402.7,336.6,399.3,335.6,399.1,335.7z"/>
	<path class="st2" d="M413.5,342.6c0.2,0.1,1,3.6-0.5,6.7c-1,2.1-2.8,3.7-4.9,4.6c-0.7-2.2-0.5-4.6,0.5-6.7
		C410,344.1,413.2,342.5,413.5,342.6z"/>
	<path class="st2" d="M399.7,343.7c-0.2,0.1-0.5,3.7,1.5,6.6c1.3,1.9,3.3,3.3,5.6,3.8c0.3-2.3-0.2-4.6-1.5-6.6
		C403.3,344.6,399.9,343.5,399.7,343.7z"/>
	<path class="st3" d="M408.4,322.4l-0.9-11.3h0.6l0.9,11.3L408.4,322.4z"/>
	<path class="st3" d="M410.3,324.8l-0.9-11.3h0.6l0.9,11.3H410.3z"/>
	<path class="st3" d="M412,325.9l-0.8-10h0.6l0.8,10L412,325.9z"/>
	<path class="st3" d="M401.4,323l-0.9-11.3h0.6L402,323L401.4,323z"/>
	<path class="st3" d="M399.7,314.2l-0.6,0l0.9,11.3l0.6-0.1L399.7,314.2z"/>
	<path class="st3" d="M398.1,316.9l-0.6,0.1l0.8,10h0.6L398.1,316.9z"/>
	<path class="st3" d="M406.2,308.7l-0.6,0l0.7,9.5l0.6-0.1L406.2,308.7z"/>
	<path class="st3" d="M402.7,309l-0.6,0.1l0.7,9.5h0.6L402.7,309z"/>
	<path class="st3" d="M404.4,315.9l-0.7-9.5h0.5l0.7,9.5H404.4z"/>
	<path class="st4" d="M409.2,383.1l-2.1-27.9h0.8l2.1,27.9H409.2z"/>
	<path class="st5" d="M408.6,369.8c-0.3-1,2.4-11,5.2-12.9C412.9,363.5,410.8,367.4,408.6,369.8z"/>
	<path class="st5" d="M408.9,373.6c0.2-1-4.1-10.5-7.1-11.9C403.7,368,406.4,371.6,408.9,373.6z"/>
	<path class="st5" d="M409.4,353.4c0,0.1,0,0.2,0,0.3c0.1,1.1-0.7,2.1-1.8,2.2c0,0,0,0-0.1,0c-1.1,0.1-2.1-0.8-2.2-1.9v-0.4
		L409.4,353.4z"/>
	<path class="st2" d="M389.8,328.4c0.2,0.1,1,3.6-0.5,6.7c-1,2.1-2.8,3.7-4.9,4.6c-0.7-2.2-0.5-4.6,0.5-6.8
		C386.3,329.9,389.5,328.3,389.8,328.4z"/>
	<path class="st2" d="M376,329.5c-0.2,0.1-0.5,3.7,1.5,6.6c1.3,1.9,3.3,3.3,5.6,3.8c0.3-2.3-0.2-4.6-1.5-6.6
		C379.7,330.4,376.2,329.3,376,329.5z"/>
	<path class="st2" d="M382.2,319.7c0.2,0,2.7,2.6,2.9,6.1c0.1,2.3-0.6,4.6-2,6.4c-1.7-1.6-2.7-3.8-2.9-6.1
		C379.9,322.7,381.9,319.7,382.2,319.7z"/>
	<path class="st2" d="M390.4,336.4c0.2,0.1,1,3.6-0.5,6.7c-1,2.1-2.8,3.7-4.9,4.6c-0.7-2.2-0.5-4.6,0.5-6.7
		C386.9,337.8,390.1,336.3,390.4,336.4z"/>
	<path class="st2" d="M376.6,337.4c-0.2,0.1-0.5,3.7,1.5,6.6c1.3,1.9,3.3,3.3,5.6,3.8c0.3-2.3-0.2-4.6-1.5-6.6
		C380.3,338.3,376.8,337.3,376.6,337.4z"/>
	<path class="st2" d="M391,344.3c0.2,0.1,1,3.6-0.5,6.7c-1,2.1-2.8,3.7-4.9,4.6c-0.7-2.2-0.5-4.6,0.5-6.7
		C387.5,345.8,390.7,344.2,391,344.3z"/>
	<path class="st2" d="M377.2,345.4c-0.2,0.2-0.4,3.7,1.5,6.6c1.3,1.9,3.3,3.3,5.6,3.8c0.3-2.3-0.2-4.6-1.5-6.6
		C381.5,347.2,379.5,345.9,377.2,345.4z"/>
	<path class="st3" d="M385.7,312.8H385l0.9,11.3l0.6,0L385.7,312.8z"/>
	<path class="st3" d="M387.6,315.2l-0.6,0.1l0.9,11.3h0.6L387.6,315.2z"/>
	<path class="st3" d="M389.6,327.6l-0.8-10l0.6-0.1l0.8,10.1L389.6,327.6z"/>
	<path class="st3" d="M378.7,313.3l-0.6,0l0.9,11.3h0.6L378.7,313.3z"/>
	<path class="st3" d="M377.2,315.9l-0.6,0.1l0.9,11.3l0.6-0.1L377.2,315.9z"/>
	<path class="st3" d="M375.8,328.7l-0.8-10.1h0.6l0.8,10.1H375.8z"/>
	<path class="st3" d="M383.8,320l-0.8-9.5l0.6-0.1l0.7,9.5L383.8,320z"/>
	<path class="st3" d="M380.3,320.2l-0.7-9.5h0.6l0.7,9.5L380.3,320.2z"/>
	<path class="st3" d="M381.7,308h-0.5l0.7,9.5h0.5L381.7,308z"/>
	<path class="st4" d="M385.4,356.9l-0.8,0.1l2.1,27.9l0.8-0.1L385.4,356.9z"/>
	<path class="st5" d="M386.1,371.5c-0.3-1,2.4-11,5.2-12.8C390.4,365.2,388.3,369.1,386.1,371.5z"/>
	<path class="st5" d="M386.4,375.3c0.2-1-4.1-10.5-7.1-11.9C381.2,369.7,383.9,373.3,386.4,375.3z"/>
	<path class="st5" d="M386.9,355.1c0,0.1,0,0.2,0.1,0.4c0.1,1.1-0.8,2.1-1.9,2.2s-2.1-0.8-2.2-1.9c0-0.1,0-0.2,0-0.4L386.9,355.1z"
		/>
</g>
<g id="Layer_2_00000011724372785370826290000008534721217664910267_">
	<g id="Layer_1-2_00000154420224873122426960000003957512691756046211_">
		<path class="st6" d="M453.5,511.2c-10-98.1-49.9-314.9-244.9-271.6C34.2,278.3,0,392.9,0,495.4c0,5.3,0.3,10.5,0.8,15.7H453.5z"/>
		<path class="st7" d="M512,511.2c-9.3-88.8-53.2-194.1-212-182.3c-115.6,8.6-210,75.2-210,168.1c0,4.8,0.3,9.5,0.8,14.2L512,511.2
			L512,511.2z"/>
		<path class="st8" d="M263.3,511.9c-3.2-34.2-18.1-74.9-72-70.3c-39.3,3.3-71.3,29-71.3,64.8c0,1.9,0.1,3.7,0.2,5.5L263.3,511.9
			L263.3,511.9z"/>
		<path class="st9" d="M216.2,511.9c4.5-42.7,25.6-93.4,102-87.8c55.7,4.1,101.1,36.2,101.1,80.9c0,2.3-0.1,4.6-0.4,6.9H216.2z"/>
	</g>
</g>
<g id="Layer_2_00000099625685034365378710000007200006357025793204_">
	<g id="Layer_1-2_00000047762980737767559340000000803372795650658456_">
		<path class="st1" d="M920.8,245.2c0,0,0.9-2,12,0c41.5,7.3,73.1-12,68.6-12.7c-24.8-3.8-44.6-9.2-41.6-11s41.9-5.2,34.5-6.2
			c-10-1.3-38.5-13.5-35.2-14.4c3.5-1,36.7-2.1,30.2-4.7c-23.7-9.3-33.1-18.9-30.1-17.9c3,1,26.9,3.8,22.5,0.7
			c-14.6-10.3-26.9-29.9-26.9-29.9s14,4.2,19,5.3s2.1-1.5-7.4-9.7c-9-7.7-16.8-19-16.8-19c3.4-0.2,6.9-0.2,10.4,0
			c7.5,0.3,6.8,1.3,0-6.5c-6.8-7.8-24.3-24.6-20.6-26s21.5,9.5,18.1,5.9c-9.4-10.1-32.2-51-33.2-48.3s-11.2,28.8-18.1,37.9
			s-20.7,16.9-14.1,16.4c6.6-0.5,18.3-6.1,18.3-6.1s-6.1,17.1-10.7,21.2s-9.7,8.7-3.1,8.2c6.6-0.5,18.4-5.9,15.3-1.8
			s-25.9,20.7-21.6,21.3c4.2,0.6,19.1-3.3,19.1-3.3s-13.2,18.5-17.3,21.3c-4.1,2.7-9.3,5.2-4.7,6c4.6,0.8,18.7-2.6,18.7-2.6
			s-10.8,18.5-25.4,27.1c-1.8,1.1,12.3,1.3,18.9,0c6.6-1.3,9.2-2.8,8.7,0s-25.1,13.4-34.8,19.3c-6.7,4.1,30.2-1.1,32.5,0
			c2.6,1.2-21.3,18.8-42.6,21c-6.3,0.6,11.1,5.4,23.9,8.2C900.2,247.9,920.8,245.2,920.8,245.2z"/>
		<path class="st10" d="M857.9,100.8c9.6-0.3,28.7,2.9,44.1,13.7c18.2,12.7,23.2,21,27.8,42.4c4.7,21.4-1.9,38.1-11.7,52.7
			s-16.1,29.7-60.7,37c-25.3,4.1-66.3-11.9-73.7-45.2s1.4-56.5,9.9-65.1C802.1,127.6,815.8,102.2,857.9,100.8z"/>
		<path class="st11" d="M912.5,164l-11.4,6.4c0,0-5.7,1.1-8.7,1.6c-2.8,0.5-9.6,1.9-9.6,1.9l-2.4-12.6h-2.7c0,0,1.6,12.8,0,13.8
			c-1.3,0.8-9.6,3.4-14.8,4.7c-1.2-11.7-2.5-24.6-2.5-26.1s4.1-4.1,7.4-5.5c3.3-1.4,10.6-3.4,13.6-4.3s4.4-1.5,4.4-1.5
			s-3.3-5.3-5.5-4.2c-2.2,1.1-11.7,5.7-11.7,5.7l-3.2-6.5h-3.8l2.2,6.5c0,0-1.8,1.3-3.4,0c-1.5-1.3-2.8-7.1-2.8-12
			c0-4.9,0-7.1,0-7.1c1.4-0.3,7,2.4,7,2.4l1.1-1.7l-6.8-4.3c0,0,1.7-2.2,3.8-5.5s2-3.2-1.7-5c0,0-2.3,3.6-4.2,6.5
			c-1.2,1.8-4.6,8.1-5.8,8.3c-1.2,0.2-1.6-0.1-4.9-1.2l-3.1-0.8l-1.2,2.7c0,0,7.4,2,7.7,4.4s0.7,20.9,0.7,20.9l-7.1-9l-2.5,0.8
			c0,0-0.9,0,0.2,2c0.6,1.2,1.4,2.4,2.3,3.4l-8.8-2.7l-0.1,3.4c0,0,6.5,1.8,9.1,2.9s7.3,3.7,7.3,3.7l0.7,6.3
			c0.7,6.3,1.5,25.6,1.5,25.6l-9.2-3.4l-2.5-5.7l4.4-1.9l-1.1-1.7h-5.5l-4.5-6.6l-2.8,1.4c0,0,4,4.9,4,5.9s3.1,8.5,3.1,8.5
			s-6.2-2-7.9-2.6s-23-5.5-23-5.5l-0.4,5c0,0,13.6,4.8,17.3,6.6l0.5,0.2c-0.3,0.2-0.6,0.5-0.9,0.7c-2.4,1.9-5.1,3.4-7.9,4.4l1.7,4.4
			l12.3-7.7c2.2,0.7,9.4,3.4,10.5,3.8c3.3,1.2,10,3.9,11.1,8c1.1,4.1-0.3,16.5-0.4,22.9c0,4.6-0.8,5-3,4.5c-2.5-0.5-6.8-2-6.8-2
			c0.1-1.4,0-2.8-0.1-4.2c-0.2-2-0.7-3.9-1.3-5.8l-3-1.1c-0.5,2.3-0.6,4.7-0.5,7c0.1,2-4.9,0.9-7.1-0.3c-3.4-1.9-7-3.5-10.7-4.8
			c-3.5-1.2-8.2-2.5-8.2-2.5l-1.8,4.2c4.2,1.6,8.4,3.4,12.4,5.5c0.5,0.3,1,0.6,1.6,0.8l-6.5,1.5l1.6,2.9c1.4-0.2,2.7-0.5,4-0.8
			c1.8-0.5,3.7-1,5.6-1.2c4.2,1.9,7.7,3.2,11.9,5.1c5.2,2.4,9.7,3.3,11.9,4.9c2.2,1.6,0.4,46.7,0.4,57.6s-0.4,56.6-0.4,56.6h16.8
			l-3.2-127.7l13.5-11.8l0.9,1.3c1,1.3,2.2,2.4,3.5,3.5l2.2-2.6l-1.1-0.9c-0.9-1-1.7-2.2-2.2-3.5l5.8-5.5l-1.5-2.4
			c0,0-5.8,3.5-9.8,6c-0.1,0.1-0.3,0.2-0.4,0.3v-11.6c0,0,0.8-2.5,0-2.8c-0.7-0.2-1.5-0.2-2.2,0c0,0-0.5,2.3-0.9,4.9
			c-0.3,2-1.2,9.1-1.5,12.2c-3.5,2.1-6.8,4.2-6.8,4.2s0.2-11.8-0.2-17.6c-0.1-1.5-0.4-4.9-0.9-9.1c6.4-2,16.5-5.9,22.2-7.4
			c7.4-2,9-3.8,11.3-2.6c2.3,1.2,2.2,11.4,2.9,12.5l3.2-1.1v-6.9h6.7l1.1-2.3l-7.8-1.1v-6.9c0,0,10.4-5.5,10.6-6.7
			C914.3,165.3,912.5,164,912.5,164z"/>
		<path class="st0" d="M728.3,317.3c0,0-1-2.2-13.3,0c-46,8.1-81-13.2-76-14c27.5-4.3,49.4-10.2,46.1-12.2c-3.3-2-46.4-5.8-38.2-6.9
			c11-1.5,42.6-15,39-16c-3.9-1-40.7-2.4-33.5-5.1c26.3-10.3,36.6-20.9,33.3-19.8s-29.8,4.2-24.9,0.8c16.2-11.4,29.8-33.1,29.8-33.1
			s-15.5,4.6-21.1,5.9c-5.5,1.3-2.3-1.7,8.2-10.7c10-8.6,18.5-21,18.5-21c-3.8-0.3-7.6-0.3-11.5,0c-8.4,0.4-7.5,1.4,0-7.2
			c7.5-8.6,26.9-27.3,23-28.8c-3.9-1.5-23.8,10.6-20.1,6.6c10.4-11.2,35.7-56.6,36.8-53.5s12.4,31.9,20,42
			c7.7,10.1,22.9,18.7,15.6,18.2s-20.3-6.7-20.3-6.7s6.8,18.9,11.9,23.4c5.1,4.6,10.8,9.6,3.4,9.1s-20.4-6.6-17-2s28.7,22.9,24,23.6
			c-4.7,0.7-21.1-3.6-21.1-3.6s14.6,20.5,19.2,23.6s10.3,5.8,5.2,6.7c-5.1,0.9-20.7-2.9-20.7-2.9s12,20.5,28.1,30
			c2,1.2-13.6,1.5-21,0c-7.4-1.4-10.2-3.1-9.6,0c0.6,3.1,27.8,14.8,38.5,21.4c7.4,4.6-33.4-1.2-36,0c-2.9,1.3,23.6,20.9,47.2,23.2
			c7,0.7-12.3,6-26.4,9.1C751,320.4,728.3,317.3,728.3,317.3z"/>
		<path class="st11" d="M707.2,299.7c-0.2-11.8,0.9-34.8,0.9-34.8l-17.9-17.4l2.3-2.9c0,0,1.9,0.4,6.7,4.1
			c4.8,3.6,10.9,7.2,10.9,7.2s0.3-20.1,0.7-24.8c0.7-8.6-2.3-11.2-2.3-11.2s-2.7-2-6.5-4.6s-6.8-5.1-6.8-5.1l3-3.2
			c2.6,1.2,5.1,2.6,7.5,4.1c1.8,1.1,4,1.2,5.9,0.3c0,0,0.1-2.4,0.3-9.9c0.2-6.9,1.3-15.6,0.2-19.3s-8.7-15.1-8.7-15.1l2-3.6
			c1.4,1,2.7,2.3,3.7,3.8c1.8,2.5,6.9,9,6.9,9s2.2-4.9,4.9-9.8c3.2-6,1.5-6.8,5-5.9c3.8,1,2.7,1.5,0.9,6.3c-2,5.4-2.8,7.5-4.2,10.6
			c-1.1,2.4-0.3,36.9-0.3,36.9s-0.3,22.6,0.7,22.9c4.2,1.5,16.1-1.2,16.1-1.2l-0.1,3.4l-16.5,5.2l-0.4,38.6c0,0,5.6-0.2,8.6-1.6
			s3.6-0.9,3.6-0.9l1.2,3c0,0-3.5,2.8-6.5,3.5c-2.2,0.5-5.4,1.3-7,1.7l2,76.6l-18-0.6C705.9,364.7,707.4,311.1,707.2,299.7z"/>
		<path class="st1" d="M792.3,311.3c7.5,0,35.4-10.4,43.4-32.4c8.1-22,1.5-69.8-3.8-89.9c-5.3-20.1-39.4-118.2-39.4-118.2
			s-10.5,22.5-19.4,37.7c-8.8,15.2-35.3,76.2-40.3,99s-5.3,63.8,7.9,81.5C757.4,311.3,770.3,307.1,792.3,311.3z"/>
		<path class="st12" d="M790.2,365.5c0,0-0.4-28.2-0.4-39.8s-1.9-34.3,0.4-36c2.3-1.7,7.1-2.8,12.7-5.2c5.4-2.1,11.1-3.3,16.9-3.7
			c4.7-0.4,5.3-0.5,5.3-0.5l-1.1-5c0,0-0.8-0.2-4.7,0c-3.9,0.2-5.1,0.5-7,0.7c-3.7,0.4-6,2.1-5.9,0c0.1-2.1,0.8-10.7-1.2-9.8
			c-1,0.5-2.1,0.9-3.1,1.2c-0.7,2-1.1,4.1-1.4,6.2c-0.2,1.5-0.2,3-0.1,4.5c-2.4,0.8-4.8,1.5-7.2,2.1c-2.3,0.5-3.2,0.1-3.2-4.8
			c0-6.8-1.6-23.9-0.4-28.2c0.8-3.7,3.5-6.7,7.1-7.7c2.3-0.9,7.9-2,11.9-3.9c2.1-1.1,4.4-1.8,6.7-2l-0.4-3.8c-2.5,0.4-5,0.9-7.4,1.6
			c-1.9,0.7-8.4,2.8-8.4,2.8s3.3-8,3.3-9.1s0.4-5.7,0.4-5.7h-3l-0.9,4.9h-5.8l-1.2,1.8l4.7,2l-2.6,6.1l-5.1,2.1
			c0,0,0.8-20.5,1.6-27.2l0.8-6.7c0,0,5.1-2.7,7.8-3.9c2.7-1.2,9.6-3.1,9.6-3.1l-0.1-3.6l-9.3,2.9c1-1.1,1.8-2.3,2.5-3.6
			c1.2-2.2,0.2-2.1,0.2-2.1l-2.7-0.9l-7.6,9.6c0,0,0.4-27.5,0.8-30s10.1-10,10.1-10l-1.5-2l-2.1,0.9c-4.3,2.3-7,5.2-8.2,5.7
			c-1.2,0.5-10.4-18.5-12.4-19.7l-2-1.2c-3.9,2-3.1,4.3-3.1,4.3c1.9,1.9,3.7,3.9,5.1,6.2c2.3,3.5,3.1,4.8,3.1,4.8l-6.3,5.6l1.2,1.8
			c0,0,5.2-5.1,6.7-4.8c1.1,0.2,1.9,8.4,1.9,8.4s-3.5,19-3.5,24.2s-1.4,11.4-3,12.8c-1.6,1.4-3.6,0-3.6,0l2.4-6.9h-4l-3.4,6.9
			c0,0-10.1-4.9-12.5-6c-2.3-1.1-5.9,4.4-5.9,4.4s1.5,0.6,4.7,1.6s10.9,3,14.4,4.5s7.9,4.3,7.9,5.9c0,2.8-1.7,26.2-2.1,32.5
			c-0.4,6.2-0.2,18.8-0.2,18.8s-5.4-3.6-9.6-6.2c-4.2-2.6-10.4-6.4-10.4-6.4l-1.6,2.6l6.2,5.8c0,0-1.2,2.8-2.3,3.7l-1.2,0.9l2.3,2.8
			c1.3-1.1,2.6-2.4,3.7-3.7l1-1.4l11.3,11l-3.5,90.1L790.2,365.5L790.2,365.5z"/>
		<path class="st13" d="M911.3,171.7l0.1,3.1l14.9,4.7l0.3,34.9c0,0-5-0.2-7.8-1.5c-2.8-1.3-3.2-0.9-3.2-0.9l-1.1,2.8
			c0,0,3.1,2.5,5.9,3.1c2,0.4,4.8,1.2,6.3,1.5l-1.7,141.4l19.9-3.9c-2.2-40.7-5.1-121.3-4.9-127.7c0.2-10.6-0.8-31.4-0.8-31.4
			l16.2-15.7l-2.1-2.6c0,0-1.7,0.4-6.1,3.7s-9.8,6.5-9.8,6.5s-0.3-18.2-0.6-22.4c-0.6-7.8,2.1-10.2,2.1-10.2s2.5-1.8,5.9-4.2
			c3.4-2.4,6.2-4.6,6.2-4.6l-2.7-2.9c-2.3,1.1-4.6,2.3-6.7,3.7c-1.6,1-3.6,1.1-5.3,0.3c0,0-0.1-2.2-0.3-9c-0.2-6.2-1.2-14-0.1-17.4
			c1.1-3.4,7.9-13.6,7.9-13.6l-1.8-3.2c-1.3,0.9-2.4,2.1-3.3,3.4c-1.6,2.3-6.3,8.1-6.3,8.1s-2-4.4-4.4-8.9c-2.9-5.4-1.4-6.2-4.5-5.4
			c-3.4,0.9-2.4,1.4-0.8,5.7c1.8,4.9,2.5,6.8,3.8,9.5c1,2.2,0.3,33.3,0.3,33.3s0.2,20.4-0.6,20.7C922,174.1,911.3,171.7,911.3,171.7
			z"/>
	</g>
</g>
</svg>
