<svg xmlns="http://www.w3.org/2000/svg" viewBox="0 0 512 277.94"><defs><style>.cls-1{fill:#9d978e;}.cls-2{fill:#dad8cc;}.cls-3{fill:#aca89d;}.cls-4{fill:#c4c0b4;}</style></defs><title>rocas</title><g id="Layer_2" data-name="Layer 2"><g id="Layer_1-2" data-name="Layer 1"><path class="cls-1" d="M453.52,277.24c-10-98.1-49.89-314.87-244.87-271.6C34.16,44.35,0,159,0,261.5a152,152,0,0,0,.82,15.74Z"/><path class="cls-2" d="M512,277.24c-9.29-88.78-53.17-194.11-212-182.31C184.35,103.53,90,170.18,90,263a137.18,137.18,0,0,0,.76,14.25H512Z"/><path class="cls-3" d="M263.27,277.94c-3.16-34.25-18.06-74.88-72-70.34-39.29,3.33-71.32,29-71.32,64.83,0,1.86.09,3.68.25,5.5H263.27Z"/><path class="cls-4" d="M216.25,277.94c4.47-42.73,25.58-93.43,102.05-87.75,55.66,4.14,101.06,36.22,101.06,80.89a65,65,0,0,1-.37,6.86Z"/></g></g></svg>