<svg xmlns="http://www.w3.org/2000/svg" viewBox="0 0 423 61.45"><defs><style>.cls-1{fill:#fff;}</style></defs><title>titulo</title><g id="Layer_2" data-name="Layer 2"><g id="Layer_1-2" data-name="Layer 1"><path class="cls-1" d="M329.65,59.62c-.08,0-.14-.22-.18-.52a4.77,4.77,0,0,1-.07-.59,15.7,15.7,0,0,1-.12-4.38,29.87,29.87,0,0,0,.19-4.32,43.91,43.91,0,0,0-.59-5.48q-.45-2.73-.7-5.48-.07-2.15,0-4.14c.05-1.33.06-2.71.06-4.14a30.83,30.83,0,0,0-.12-3.95c-.13-1.33-.23-2.65-.31-3.95V20.59c0-.2-.08-.56-.12-1s-.08-1-.12-1.57-.08-1.07-.13-1.56-.06-.84-.06-1a4.17,4.17,0,0,1,.25-.74.91.91,0,0,1,.49-.42,2.62,2.62,0,0,1,.7-.16,6.37,6.37,0,0,1,.77-.09,15.4,15.4,0,0,1,6.06.31,12.2,12.2,0,0,1,4.69,2.39,13,13,0,0,1,3.25,4.07,17.66,17.66,0,0,1,1.74,5.3,35.44,35.44,0,0,1,.31,4.53c0,1.48-.06,3-.18,4.6a6.64,6.64,0,0,1,.06,2.39,9.53,9.53,0,0,0-.06,2.39c0,1.3.12,2.83.24,4.56a29.26,29.26,0,0,1-.09,5.21,15.37,15.37,0,0,1-1.29,4.84A7.21,7.21,0,0,1,341.05,58a15.27,15.27,0,0,1-4.69,1.47c-1.66.25-3.29.48-4.93.68a4,4,0,0,0-.59.06,3.84,3.84,0,0,1-.58.06,3,3,0,0,0-.34-.28A.7.7,0,0,1,329.65,59.62Zm5.82-8.09a.8.8,0,0,0,.8.43,1.39,1.39,0,0,0,1.07-.74,6.12,6.12,0,0,0,.61-1.5,12.1,12.1,0,0,0,.31-1.68c.06-.57.1-1,.15-1.35s.08-.69.12-1.2.08-1,.13-1.47.07-.87.09-1.22,0-.54,0-.58l-.06-.49c0-2.26,0-4.57.06-7a39.76,39.76,0,0,0-.49-7.08,15.3,15.3,0,0,0-.71-2.81,6.81,6.81,0,0,0-1.74-2.33,3.15,3.15,0,0,0-.34-.49.61.61,0,0,0-.58-.12c-.2,0-.28.21-.22.52a3.76,3.76,0,0,1,.1.52c.12,2.49.19,5,.24,7.47s.11,5,.19,7.48a62.16,62.16,0,0,1-.19,6.22,25.74,25.74,0,0,0,.25,6.21,4.4,4.4,0,0,0,.09.59A3.92,3.92,0,0,1,335.47,51.53Z"/><path class="cls-1" d="M1.52,59.06,1,58.67a.69.69,0,0,1-.24-.52,27.54,27.54,0,0,1,0-5.95,51.94,51.94,0,0,0,.34-5.94c0-2.45-.08-4.92-.22-7.38s-.29-5-.46-7.42-.29-4.93-.4-7.38-.1-4.89,0-7.29A1.86,1.86,0,0,1,.27,16a.82.82,0,0,1,.64-.49,6,6,0,0,1,1.44.06,5.18,5.18,0,0,0,1.38.06l.92,0,1.44-.06c.5,0,1,0,1.44-.06l.92,0,.49-.06c.27-.05.6-.08.92-.12s.63-.08.89-.13a4.45,4.45,0,0,1,.52-.06c.24,0,.64,0,1.19-.06a11.5,11.5,0,0,1,1.66,0,8.09,8.09,0,0,1,1.5.25.86.86,0,0,1,.73.73l.43,5.15a.85.85,0,0,1-.43.83,2.18,2.18,0,0,1-.92.39A9.15,9.15,0,0,1,13,22.27a9.53,9.53,0,0,0-2.51-.09l-.8,0a8,8,0,0,0-1,.15,2.57,2.57,0,0,0-.89.37.84.84,0,0,0-.36.74,35.88,35.88,0,0,1,0,5.08,29.42,29.42,0,0,0,.06,5.15,5.27,5.27,0,0,0,.06.8,1.28,1.28,0,0,0,.37.79,1.7,1.7,0,0,0,.76.28,6.47,6.47,0,0,0,1.08.09c.36,0,.71,0,1,0l.73,0c.17,0,.48,0,.92-.06l1.41-.16,1.41-.15c.44,0,.75-.06.92-.06a.35.35,0,0,1,.3.21.81.81,0,0,1,.13.34l.43,4a1.71,1.71,0,0,1-.28,1.11,1.2,1.2,0,0,1-.83.61,9.33,9.33,0,0,1-2.69,0,11.57,11.57,0,0,0-2.76-.09,2.2,2.2,0,0,0-1.23.46,1.69,1.69,0,0,0-.49.82,5.24,5.24,0,0,0-.12,1.11V45c0,.12,0,.42-.06.89s-.09,1-.15,1.5-.11,1-.16,1.47a4.18,4.18,0,0,1-.12.86c.08.05.11.17.06.37a.7.7,0,0,0,.06.49,4.32,4.32,0,0,0,.13.89.61.61,0,0,0,.67.52h7.11a8.12,8.12,0,0,1,1.78.18c.53.12.9.57,1.1,1.35a4.35,4.35,0,0,0,.09.58c.06.31.12.66.18,1s.13.78.19,1.17.11.69.15.89v.36c.08.57-.06.91-.43,1s-.78.17-1.22.25a28.61,28.61,0,0,1-5.15.15c-1.72-.1-3.43-.17-5.15-.21a2.64,2.64,0,0,0-.92,0l-.85.09-.89,0-1.35.09c-.48.05-.9.08-1.32.09Z"/><path class="cls-1" d="M28.24,55.63a40,40,0,0,1-.25-7c.13-2.41.14-4.78.07-7.11s-.2-4.37-.37-6.46-.23-4.26-.19-6.47c0-2.37,0-4.58,0-6.61a42.63,42.63,0,0,0-.46-6.5,1.93,1.93,0,0,1,1-1.5,4.57,4.57,0,0,1,1.74-.64,9.91,9.91,0,0,1,2.18,0,3.11,3.11,0,0,1,2,.92c0,.07,0,.24,0,.48s0,.42,0,.49A19.77,19.77,0,0,1,34,19.85a27.31,27.31,0,0,0-.19,4.6c0,.16,0,.78.1,1.87s.13,2.31.21,3.7.17,2.79.25,4.2.13,2.53.18,3.34c.12,2,.2,3.87.21,5.73S34.9,47,35.1,49c.12.78.46,1.22,1,1.34a7.4,7.4,0,0,0,1.81.16,15.19,15.19,0,0,1,1.81,0c.55,0,.87.38,1,1,0,1.3,0,2.36-.09,3.15s-.16,1.52-.28,2.18-.32,1-.61,1a.28.28,0,0,1-.22.06h-.21c-1.55-.07-3.14-.15-4.78-.21s-3.26-.17-4.9-.34c-.54-.05-.88-.2-1-.46A4.5,4.5,0,0,1,28.24,55.63Z"/><path class="cls-1" d="M77.79,61.39a3,3,0,0,1-1.35-.46,2.39,2.39,0,0,1-.79-1.19,9.22,9.22,0,0,1-.37-2A12.56,12.56,0,0,0,75,55.63c-.44-2.08-.87-4.16-1.25-6.28s-.77-4.19-1.14-6.28A33.1,33.1,0,0,0,71.45,39a34.16,34.16,0,0,1-1.13-4,20.65,20.65,0,0,1-.43-2.39,15,15,0,0,0-.49-2.39c-.54-1.79-1.13-3.71-1.78-5.73a22,22,0,0,1-1.1-5.91c0-.05,0-.17,0-.37a1.6,1.6,0,0,1,0-.58,2.13,2.13,0,0,1,.18-.52.45.45,0,0,1,.43-.25c.08.05.29.14.61.28a4.34,4.34,0,0,0,.56.21,21.4,21.4,0,0,0,2.94.31c1.05,0,2,.06,2.88.06l.79.49a75.32,75.32,0,0,0,1.93,10.51c.88,3.32,1.7,6.75,2.48,10.26v.89a6.11,6.11,0,0,0,.07,1,3.45,3.45,0,0,0,.24.89,1.08,1.08,0,0,0,.61.61,1.08,1.08,0,0,0,.52-.77,1.27,1.27,0,0,0,0-1l1.54-7.1c-.08-.17-.11-.28-.07-.34l.16-.18a.53.53,0,0,0,.12-.22.72.72,0,0,0,0-.37l1.47-6.8-.06-.49c0-.17.12-.44.24-.82s.25-.82.37-1.29.23-.89.34-1.29S85,21.12,85,21a12.82,12.82,0,0,0,.28-1.56A5,5,0,0,1,85.67,18a2.7,2.7,0,0,1,.82-1.07,2.92,2.92,0,0,1,1.6-.49,2,2,0,0,1,.58-.06h.4a2.31,2.31,0,0,1,.46.06c.23,0,.46.08.7.12s.48.08.67.1l.43,0a20.13,20.13,0,0,1,2.09.3c.61.12.93.63,1,1.53a7.49,7.49,0,0,1-.52,3.22,26.19,26.19,0,0,0-1,3q-1.23,5-2.24,10.11a65,65,0,0,1-2.85,10v.19c0,.2-.14.56-.28,1.07s-.29,1-.46,1.62-.32,1.12-.45,1.63-.27.87-.34,1.07a2.47,2.47,0,0,0-.12,1.34c0,.13-.11.34-.22.65s-.2.63-.31,1-.19.69-.3,1a2.34,2.34,0,0,0-.15.67,4.63,4.63,0,0,0-.16.68c-.06.32-.14.69-.21,1.1s-.16.8-.22,1.16a7.9,7.9,0,0,1-.15.8c-.08.49-.17,1-.28,1.59a1,1,0,0,1-1.07.92l-.43,0-.3,0H80.06q-.74,0-1.38,0C78.25,61.39,78,61.39,77.79,61.39Z"/><path class="cls-1" d="M101.81,56.43a.74.74,0,0,1,.06-.27.27.27,0,0,0,0-.22c0-.54.11-1.18.19-1.93a6.62,6.62,0,0,1,.43-1.87,1.19,1.19,0,0,1,.61-.64,7.2,7.2,0,0,1,.89-.37l.88-.31a1.31,1.31,0,0,0,.68-.52s.08-.06.09-.18a2,2,0,0,0,0-.31c0-.07,0-.24,0-.49s0-.52.06-.82,0-.6,0-.89V47c-.12-3.31-.15-6.61-.09-9.87s0-6.54-.21-9.8a3.77,3.77,0,0,0-.06-.49,6.24,6.24,0,0,1-.1-.8c0-.29,0-.55-.06-.8s0-.43,0-.55a.77.77,0,0,0-.58-.67c-.31-.08-.64-.17-1-.25a2.67,2.67,0,0,1-1-.4,1.22,1.22,0,0,1-.49-1,.7.7,0,0,0,0-.12.27.27,0,0,1,0-.12V20.86c0-.6,0-1.22,0-1.9s0-1.3,0-1.9V15.87c.08-.32.18-.74.31-1.23s.35-.78.67-.85l.12.06h.12A13.83,13.83,0,0,0,106,14c1.1,0,2.22,0,3.37.06a18.44,18.44,0,0,1,3.21.43,3.48,3.48,0,0,1,2.12,1.2,1.79,1.79,0,0,1,.3,1.16,7.81,7.81,0,0,0,.07,1.23,10.91,10.91,0,0,1-.16,3.67,3.07,3.07,0,0,1-.79,1.41,2.47,2.47,0,0,1-.95.49c-.33.08-.54.41-.62,1a37.38,37.38,0,0,0-.49,5.15c0,1.71,0,3.43,0,5.14s.16,3.42.28,5.12.23,3.4.31,5.12v1.77c0,.42,0,.79,0,1.14s0,.56,0,.64v.49a1.12,1.12,0,0,0,.55,1,7.59,7.59,0,0,0,1.1.46,5,5,0,0,1,1.14.55,1.65,1.65,0,0,1,.64,1.26c0,.29,0,.7,0,1.25a11.47,11.47,0,0,1-.09,1.66,4.7,4.7,0,0,1-.46,1.5,1.26,1.26,0,0,1-1.08.73,10.32,10.32,0,0,1-2.78.13,16.19,16.19,0,0,0-2.79,0c-.12,0-.41,0-.89.09l-1.47.18-1.47.16-.89.06a2.92,2.92,0,0,1-1.59-.34A1.77,1.77,0,0,1,101.81,56.43Z"/><path class="cls-1" d="M124.24,48.71a3.19,3.19,0,0,1-.1-.67c0-.29,0-.57-.06-.86s0-.54-.06-.77,0-.38,0-.46q-.06-1.17-.12-3c-.05-1.24-.08-2.48-.12-3.71s-.08-2.31-.13-3.24-.06-1.47-.06-1.6c0-1.22,0-2.56.09-4s.2-2.93.4-4.41a23.7,23.7,0,0,1,1-4.35,14.59,14.59,0,0,1,1.87-3.77,9.17,9.17,0,0,1,3-2.7,10.19,10.19,0,0,1,4.39-1.22h1.22a19.69,19.69,0,0,1,3.31.76,11.69,11.69,0,0,1,2.88,1.41,10.27,10.27,0,0,1,2.24,2.12,8.78,8.78,0,0,1,1.44,2.94,11.69,11.69,0,0,1,.15,1.19c.06.63.09,1.06.09,1.26s0,.81,0,1.44,0,1,0,1.07c0,.41,0,1.3,0,2.67s0,2.86.09,4.47.08,3.19.1,4.72,0,2.66,0,3.4c0,1,0,2.19,0,3.52s0,2.71-.13,4.14a37.65,37.65,0,0,1-.55,4.23A12.29,12.29,0,0,1,144,57a8.52,8.52,0,0,1-2.39,2.73,6.71,6.71,0,0,1-3.74,1.19,14.11,14.11,0,0,1-3.71-.24,33.17,33.17,0,0,1-3.58-1,7,7,0,0,1-3-1.72,9,9,0,0,1-1.87-2.69A14.2,14.2,0,0,1,124.63,52,20.8,20.8,0,0,1,124.24,48.71Zm8.14-.43a5.07,5.07,0,0,0,.77,2.3,2.13,2.13,0,0,0,2.12.89,2.16,2.16,0,0,0,1.47-.58,3.23,3.23,0,0,0,.7-1.29,7.12,7.12,0,0,0,.25-1.63c0-.56,0-1.1.09-1.59v-.52c0-.26,0-.55,0-.86s0-.59,0-.85v-.46Q138,40.56,138,38c0-1.73-.06-3.65-.18-5.73q0-.37-.06-1.2c-.05-.55-.08-1.14-.12-1.77s-.08-1.23-.13-1.78-.06-.95-.06-1.2a6.94,6.94,0,0,0-.46-1,13.11,13.11,0,0,0-.73-1.22,4.92,4.92,0,0,0-.92-1,1.61,1.61,0,0,0-1-.43,1.64,1.64,0,0,0-1.08.58,4.09,4.09,0,0,0-.73,1.26,9.86,9.86,0,0,0-.43,1.5c-.11.5-.17.93-.21,1.25a2.52,2.52,0,0,0-.13.62c0,.32-.09.69-.15,1.1s-.12.8-.18,1.16a5.21,5.21,0,0,0-.1.68v2.51c0,.61,0,1.21,0,1.81s0,1.05,0,1.38V37a.84.84,0,0,0,0,.18.48.48,0,0,1,0,.18v.25c0,.41.11,1.12.22,2.14s.21,2.1.34,3.22.23,2.19.3,3.22S132.34,47.87,132.38,48.28Z"/><path class="cls-1" d="M154.5,55.63a40,40,0,0,1-.24-7q.18-3.62.06-7.11c-.08-2.2-.2-4.37-.37-6.46a62.66,62.66,0,0,1-.18-6.47c0-2.37,0-4.58,0-6.61a44,44,0,0,0-.46-6.5,1.92,1.92,0,0,1,1-1.5,4.62,4.62,0,0,1,1.75-.64,9.82,9.82,0,0,1,2.17,0,3.07,3.07,0,0,1,2,.92c0,.07,0,.24,0,.48s0,.42,0,.49a20.35,20.35,0,0,1-.07,4.66,27.24,27.24,0,0,0-.18,4.6c0,.16,0,.78.09,1.87s.14,2.31.22,3.7.16,2.79.24,4.2.14,2.53.19,3.34c.12,2,.2,3.87.21,5.73s.14,3.75.34,5.67c.12.78.46,1.22,1,1.34a7.4,7.4,0,0,0,1.81.16,15.06,15.06,0,0,1,1.8,0c.55,0,.88.38.95,1,0,1.3,0,2.36-.09,3.15a20.93,20.93,0,0,1-.27,2.18c-.13.66-.33,1-.62,1,0,0-.11.06-.21.06h-.22c-1.54-.07-3.14-.15-4.78-.21s-3.26-.17-4.9-.34c-.53-.05-.87-.2-1-.46A3.9,3.9,0,0,1,154.5,55.63Z"/><path class="cls-1" d="M174.11,9.25c0-.12.17-.37.52-.73s.74-.77,1.17-1.2.85-.83,1.28-1.22.75-.66.95-.83a4.39,4.39,0,0,0,.52-.43,2.71,2.71,0,0,0,.46-.49l.55-.58c.25-.26.51-.54.8-.83s.57-.57.83-.83l.52-.52a2.83,2.83,0,0,1,.95-1A2.33,2.33,0,0,1,183.91,0a1.16,1.16,0,0,1,.62.25,7,7,0,0,1,.76.58c.26.23.51.44.71.64a2.85,2.85,0,0,1,.37.43V3.12a.75.75,0,0,1-.31.56,8.56,8.56,0,0,1-.68.58c-.32.26-.55.44-.67.52-1.35.93-2.71,1.91-4.07,2.91s-2.74,2-4.14,2.91a1.26,1.26,0,0,1-.31.09,1.54,1.54,0,0,1-.36,0,1.74,1.74,0,0,1-1.2-.49A1.41,1.41,0,0,1,174.11,9.25Zm.25,47.18a.58.58,0,0,1,.06-.27.27.27,0,0,0,0-.22c0-.54.1-1.18.18-1.93a7,7,0,0,1,.43-1.87,1.19,1.19,0,0,1,.61-.64,8.76,8.76,0,0,1,.89-.37l.89-.31a1.25,1.25,0,0,0,.67-.52s.08-.06.1-.18,0-.23,0-.31,0-.24,0-.49,0-.52.06-.82,0-.6,0-.89V47c-.12-3.31-.15-6.61-.09-9.87s0-6.54-.22-9.8a2.53,2.53,0,0,0-.06-.49c0-.25-.07-.51-.09-.8s0-.55-.06-.8,0-.43,0-.55a.79.79,0,0,0-.58-.67c-.31-.08-.65-.17-1-.25a2.82,2.82,0,0,1-1-.4,1.25,1.25,0,0,1-.49-1,.3.3,0,0,0,0-.12.53.53,0,0,1,0-.12V20.86c0-.6,0-1.22,0-1.9s0-1.3,0-1.9V15.87c.08-.32.19-.74.31-1.23s.35-.78.67-.85l.13.06H176a13.71,13.71,0,0,0,2.57.15c1.11,0,2.22,0,3.37.06a18.7,18.7,0,0,1,3.22.43,3.45,3.45,0,0,1,2.11,1.2,1.79,1.79,0,0,1,.31,1.16,9.59,9.59,0,0,0,.06,1.23,11,11,0,0,1-.15,3.67,3,3,0,0,1-.8,1.41,2.4,2.4,0,0,1-.95.49c-.32.08-.53.41-.61,1a35.89,35.89,0,0,0-.49,5.15c-.05,1.71,0,3.43,0,5.14s.15,3.42.28,5.12.23,3.4.3,5.12v1.77c0,.42,0,.79,0,1.14s0,.56,0,.64v.49a1.14,1.14,0,0,0,.55,1,7.74,7.74,0,0,0,1.11.46,4.93,4.93,0,0,1,1.13.55,1.62,1.62,0,0,1,.64,1.26c0,.29,0,.7,0,1.25a9.19,9.19,0,0,1-.09,1.66,4.46,4.46,0,0,1-.46,1.5,1.26,1.26,0,0,1-1.07.73,10.39,10.39,0,0,1-2.79.13,16.19,16.19,0,0,0-2.79,0c-.12,0-.41,0-.88.09l-1.47.18-1.47.16-.89.06a2.93,2.93,0,0,1-1.6-.34A1.74,1.74,0,0,1,174.36,56.43Z"/><path class="cls-1" d="M204.13,43.07a1.06,1.06,0,0,0-.15-.85.84.84,0,0,0-.76-.49H203q0,.48,0,1.68c0,.8,0,1.64-.06,2.54s-.05,1.77-.06,2.58,0,1.36,0,1.65v1.29a23.89,23.89,0,0,0,.24,2.42,24.18,24.18,0,0,1,.25,2.42,2.23,2.23,0,0,1-.15.89c-.11.23-.39.33-.83.33a15.65,15.65,0,0,1-2.45.06,13,13,0,0,0-2.52.13,1,1,0,0,1-.42-.49l-.25-.49c0-.08,0-.32-.09-.71a6.28,6.28,0,0,1-.09-.76,34.41,34.41,0,0,1,0-3.8c.06-1.27.12-2.53.21-3.8q0-3.12-.09-6.13a33.53,33.53,0,0,1,.4-6.12l-.86-17.22c0-.2,0-.48,0-.8a3.89,3.89,0,0,1,.18-.95,2.6,2.6,0,0,1,.43-.79.84.84,0,0,1,.71-.34h.24c1,.07,1.79.17,2.42.24s1.08.55,1.32,1.41.69,1.79,1.07,2.7.77,1.76,1.14,2.57a.34.34,0,0,1,.06.22v.21a18.69,18.69,0,0,0,1,3.4c.44,1.16.87,2.24,1.28,3.22a2.37,2.37,0,0,0,.25,1.41,16.61,16.61,0,0,0,.86,1.59c.32.54.63,1,.88,1.53a1.76,1.76,0,0,1,.28,1.23c0,.12.14.38.31.76a12.3,12.3,0,0,1,.46,1.26c.14.44.27.87.43,1.26s.26.65.33.82.09.31.16.52.13.48.21.74.15.52.21.76a2.36,2.36,0,0,1,.1.49,6.63,6.63,0,0,1,.43,1.54,1.77,1.77,0,0,0,.85,1.28,3,3,0,0,0,.31-1.34,96.6,96.6,0,0,0,.77-13.36q-.1-6.55-.22-13.42c0-.08.14-.25.31-.49s.27-.37.37-.37l4.9-.37c.36,0,.55.11.55.31a.45.45,0,0,0,.37.43,37.71,37.71,0,0,0,0,5.42,35.1,35.1,0,0,1-.06,5.42c-.3,2.65-.56,5.26-.77,7.79a47.64,47.64,0,0,0,0,7.84l-.49,13.54a4.53,4.53,0,0,1-.61,1.5,2.64,2.64,0,0,1-1.23,1.2l-.64,0-.65,0a23.52,23.52,0,0,1-5.88-.25c-.53,0-.93-.41-1.22-1.13a10.58,10.58,0,0,1-.65-2.39c-.14-.87-.24-1.72-.3-2.51s-.11-1.32-.16-1.57-.12-.5-.24-1a8.63,8.63,0,0,0-.31-1.1c-.07-.2-.2-.57-.37-1.1s-.33-1.09-.52-1.69-.35-1.15-.52-1.68S204.21,43.27,204.13,43.07Z"/><path class="cls-1" d="M246.93,58.08a62,62,0,0,1-.58-7.87q0-3.89,0-7.81-.12-7-.46-13.88t-1-13.94a1.65,1.65,0,0,1,.4-.64,1.53,1.53,0,0,1,.77-.4h.24c2.77.08,5.33.28,7.66.58a18.5,18.5,0,0,1,6.1,1.81,11.68,11.68,0,0,1,4.28,3.77,14.68,14.68,0,0,1,2.24,6.4,15.8,15.8,0,0,1,0,4,13,13,0,0,1-1.16,4.11,10,10,0,0,1-2.58,3.34,7.31,7.31,0,0,1-4.22,1.65,7.93,7.93,0,0,1-2.39-.09c-.78-.14-1.55-.26-2.33-.34a1.31,1.31,0,0,0-.65.46,1.67,1.67,0,0,0-.15.77c0,.2,0,.57,0,1.1s0,1.09.06,1.66,0,1.12.06,1.65a6.25,6.25,0,0,0,.1,1.1c0,.08,0,.31,0,.68a1.73,1.73,0,0,0,.09.67L253.61,58a8.48,8.48,0,0,0-.21.89.92.92,0,0,1-.58.71c-.17,0-.51,0-1,.06a5,5,0,0,0-1,.12,11.82,11.82,0,0,1-1.47.15,3.21,3.21,0,0,1-1.16-.12,1.92,1.92,0,0,1-.83-.55A2.42,2.42,0,0,1,246.93,58.08Zm7.66-28.73a2.77,2.77,0,0,0,.49,1.32q.38.45,1.47.33a1.8,1.8,0,0,0,1.32-.61,3.83,3.83,0,0,0,.7-1.29,4.54,4.54,0,0,0,.25-1.5c0-.5,0-1-.06-1.32s-.15-.79-.34-1.53a15.74,15.74,0,0,0-.73-2.2,7,7,0,0,0-1.17-1.9A1.77,1.77,0,0,0,255,20c-.17,0-.29.23-.37.68a11.72,11.72,0,0,0-.15,1.68c0,.68,0,1.41,0,2.21s0,1.53,0,2.21,0,1.25.09,1.74S254.59,29.26,254.59,29.35Z"/><path class="cls-1" d="M274.63,59.06c-.17-.12-.32-.25-.49-.39a.67.67,0,0,1-.25-.52,27.54,27.54,0,0,1,0-5.95,51.94,51.94,0,0,0,.34-5.94c0-2.45-.08-4.92-.21-7.38s-.3-5-.46-7.42-.29-4.93-.4-7.38-.11-4.89,0-7.29a1.84,1.84,0,0,1,.21-.8.82.82,0,0,1,.65-.49,6,6,0,0,1,1.43.06,5.21,5.21,0,0,0,1.38.06l.92,0,1.44-.06c.51,0,1,0,1.44-.06l.92,0,.49-.06c.28-.05.6-.08.92-.12s.63-.08.89-.13a4.45,4.45,0,0,1,.52-.06c.24,0,.64,0,1.19-.06a11.5,11.5,0,0,1,1.66,0,8,8,0,0,1,1.5.25.86.86,0,0,1,.73.73l.43,5.15a.84.84,0,0,1-.43.83,2.14,2.14,0,0,1-.91.39,9.23,9.23,0,0,1-2.46-.09,9.53,9.53,0,0,0-2.51-.09l-.79,0a7.48,7.48,0,0,0-1,.15,2.41,2.41,0,0,0-.89.37.83.83,0,0,0-.37.74,35.88,35.88,0,0,1,0,5.08,30.43,30.43,0,0,0,.06,5.15,7,7,0,0,0,.06.8,1.39,1.39,0,0,0,.37.79,1.7,1.7,0,0,0,.77.28,6.26,6.26,0,0,0,1.07.09c.36,0,.72,0,1,0l.73,0c.17,0,.48,0,.92-.06l1.41-.16,1.41-.15c.45,0,.75-.06.92-.06a.38.38,0,0,1,.31.21.92.92,0,0,1,.12.34l.43,4a1.71,1.71,0,0,1-.28,1.11,1.2,1.2,0,0,1-.82.61,9.39,9.39,0,0,1-2.7,0,11.53,11.53,0,0,0-2.76-.09,2.17,2.17,0,0,0-1.22.46,1.55,1.55,0,0,0-.49.82,4.63,4.63,0,0,0-.13,1.11V45c0,.12,0,.42-.06.89s-.09,1-.15,1.5-.11,1-.15,1.47a4.72,4.72,0,0,1-.13.86c.08.05.11.17.07.37a.61.61,0,0,0,.06.49,4.21,4.21,0,0,0,.12.89.62.62,0,0,0,.67.52h7.11a8.12,8.12,0,0,1,1.78.18c.53.12.9.57,1.1,1.35a4.35,4.35,0,0,0,.09.58c.06.31.12.66.19,1l.18,1.17c.06.38.11.69.15.89v.36c.08.57-.06.91-.43,1s-.78.17-1.22.25a28.61,28.61,0,0,1-5.15.15c-1.71-.1-3.43-.17-5.14-.21a2.65,2.65,0,0,0-.92,0l-.86.09-.89,0-1.35.09c-.47.05-.9.08-1.32.09Z"/><path class="cls-1" d="M318.16,57.56a21.79,21.79,0,0,1-1.71-2.72c-.42-.78-.91-1.64-1.44-2.56-.08-.11-.22-.28-.4-.49s-.37-.43-.56-.66a4.51,4.51,0,0,1-.42-.66.72.72,0,0,1-.06-.6c-.46-.64-.91-1.31-1.35-2s-.88-1.37-1.29-2h-.11a.1.1,0,0,1-.1-.06c-.34-.08-.48.08-.4.46s.07,1.07.1,2.07.1,2.05.14,3.18.11,2.19.17,3.22.11,1.7.14,2.1l.06.17a3.86,3.86,0,0,1-.34.43c-.15.16-.24.24-.29.19l-5.85.4a.86.86,0,0,1-.86-.43,2.07,2.07,0,0,1-.39-.88.13.13,0,0,1,0-.1.27.27,0,0,0,0-.13v-.17a1.27,1.27,0,0,1,.06-.32c0-.19.07-.36.1-.55s.08-.36.11-.53.06-.24.06-.29,0-.36-.09-.78-.11-.81-.14-1.25-.07-.85-.1-1.23a6,6,0,0,1-.06-.75V49.2c0-.75,0-1.53,0-2.37s0-1.64-.06-2.38,0-1.22,0-1.41,0-.53-.06-1-.07-1-.11-1.61-.07-1.1-.1-1.61-.06-.84-.06-1a1.32,1.32,0,0,0,.06-.52v-.52c.1-3.32.12-6.6.06-9.86s-.17-6.53-.29-9.81c0-.1,0-.33,0-.62s-.05-.63-.09-1-.08-.67-.1-1,0-.55,0-.65.19-.36.32-.4a1.24,1.24,0,0,1,.43-.06c1.53-.11,3-.19,4.48-.2a15.17,15.17,0,0,1,4.1.46,9.78,9.78,0,0,1,3.46,1.64,8.6,8.6,0,0,1,2.58,3.26c.5,1,1,2,1.48,2.89a7.45,7.45,0,0,1,.86,3.07,12.69,12.69,0,0,1-1.18,6.38,17.86,17.86,0,0,1-4,5.37.9.9,0,0,0-.23.62,2.52,2.52,0,0,0,.43,1,1.23,1.23,0,0,1,.2,1l2.34,4.71v.17L320,47.44a8.26,8.26,0,0,0,.49,1c.34.58.71,1.25,1.12,2s.8,1.49,1.15,2.24a5.77,5.77,0,0,1,.57,1.69,1.79,1.79,0,0,1-.37,1.15,6,6,0,0,1-1.06,1.14,8,8,0,0,1-1.31.89,2.59,2.59,0,0,1-1.21.37A1.15,1.15,0,0,1,318.16,57.56Zm-9.63-27.29c.15.18.27.34.36.43a1,1,0,0,0,.49.2,3.05,3.05,0,0,0,1.87-.83,4.65,4.65,0,0,0,1.09-1.67,8.2,8.2,0,0,0,.49-2,15.31,15.31,0,0,0,.11-1.77,8.23,8.23,0,0,0-.29-1.41,7.78,7.78,0,0,0-.63-1.58,3.86,3.86,0,0,0-1-1.23,2.06,2.06,0,0,0-1.46-.43,1.13,1.13,0,0,0-.89.63,4,4,0,0,0-.43,1.32,10.75,10.75,0,0,0-.1,1.46v1s0,.16,0,.39,0,.51.06.8,0,.61.06.95a5.63,5.63,0,0,0,.09.78c0,.11,0,.31,0,.57s.05.57.06.89.05.61.07.89A5.45,5.45,0,0,0,308.53,30.27Z"/><path class="cls-1" d="M351.88,53.66a.54.54,0,0,1,.06-.26c0-.11,0-.15,0-.2,0-.51.1-1.1.17-1.81a6.69,6.69,0,0,1,.39-1.75,1.1,1.1,0,0,1,.57-.59,6,6,0,0,1,.83-.34c.29-.11.56-.18.82-.29a1.25,1.25,0,0,0,.63-.49s.08-.06.09-.17a1.81,1.81,0,0,0,0-.29c0-.08,0-.23,0-.46s0-.49.06-.78,0-.57,0-.83v-.57q-.17-4.63-.09-9.23c.06-3.05,0-6.13-.2-9.18a2.65,2.65,0,0,0-.07-.46,7.36,7.36,0,0,1-.09-.75c0-.27,0-.52-.06-.75s0-.4,0-.52a.74.74,0,0,0-.55-.63l-.95-.23a2.85,2.85,0,0,1-.92-.36,1.19,1.19,0,0,1-.46-.95.18.18,0,0,0,0-.11,1,1,0,0,1,0-.11V20.37c0-.56,0-1.15,0-1.77s0-1.23,0-1.78V15.7c.08-.31.17-.69.29-1.15a1,1,0,0,1,.63-.8l.11.07h.11a13,13,0,0,0,2.4.13c1,0,2.08,0,3.16.06a19.56,19.56,0,0,1,3,.4,3.23,3.23,0,0,1,2,1.12,1.73,1.73,0,0,1,.29,1.09,8.44,8.44,0,0,0,.06,1.15,10.32,10.32,0,0,1-.14,3.45,2.77,2.77,0,0,1-.75,1.31,2.27,2.27,0,0,1-.88.46c-.31.08-.51.38-.57.92a32.88,32.88,0,0,0-.46,4.81c-.05,1.61,0,3.22,0,4.81s.14,3.2.26,4.8.21,3.18.29,4.79v1.65c0,.39,0,.74,0,1.06s0,.54,0,.6v.46a1.08,1.08,0,0,0,.52.92,9.14,9.14,0,0,0,1,.43,4.18,4.18,0,0,1,1.06.52,1.47,1.47,0,0,1,.59,1.18c0,.27,0,.65,0,1.17a8,8,0,0,1-.09,1.55,4.15,4.15,0,0,1-.43,1.41,1.2,1.2,0,0,1-1,.69,9.9,9.9,0,0,1-2.6.11,14.16,14.16,0,0,0-2.61,0c-.1,0-.38,0-.82.09l-1.38.17c-.48.06-.94.11-1.38.14l-.83.06a2.7,2.7,0,0,1-1.48-.32A1.65,1.65,0,0,1,351.88,53.66Z"/><path class="cls-1" d="M377.14,59.62c-.08,0-.14-.22-.19-.52s-.06-.51-.06-.59a15.33,15.33,0,0,1-.12-4.38,28.5,28.5,0,0,0,.18-4.32,45.87,45.87,0,0,0-.58-5.48c-.31-1.82-.54-3.65-.71-5.48q-.06-2.15,0-4.14c0-1.33.07-2.71.07-4.14a30.85,30.85,0,0,0-.13-3.95c-.12-1.33-.23-2.65-.3-3.95V20.59a10.13,10.13,0,0,1-.13-1c0-.49-.07-1-.12-1.57s-.07-1.07-.12-1.56a10.42,10.42,0,0,1-.06-1,4.29,4.29,0,0,1,.24-.74,1,1,0,0,1,.49-.42,2.74,2.74,0,0,1,.71-.16,6.28,6.28,0,0,1,.76-.09,15.44,15.44,0,0,1,6.07.31,12.34,12.34,0,0,1,4.69,2.39,13,13,0,0,1,3.24,4.07,17.4,17.4,0,0,1,1.75,5.3,35.44,35.44,0,0,1,.31,4.53c0,1.48-.06,3-.19,4.6a6.42,6.42,0,0,1,.06,2.39,10,10,0,0,0-.06,2.39c.05,1.3.13,2.83.25,4.56a30.23,30.23,0,0,1-.09,5.21,15.93,15.93,0,0,1-1.29,4.84A7.19,7.19,0,0,1,388.53,58a15.18,15.18,0,0,1-4.69,1.47c-1.65.25-3.29.48-4.93.68a4,4,0,0,0-.58.06,4.09,4.09,0,0,1-.58.06,4.26,4.26,0,0,0-.34-.28A.65.65,0,0,1,377.14,59.62ZM383,51.53a.81.81,0,0,0,.8.43,1.37,1.37,0,0,0,1.07-.74,6.55,6.55,0,0,0,.62-1.5,12.07,12.07,0,0,0,.3-1.68c.06-.57.11-1,.16-1.35s.07-.69.12-1.2.08-1,.12-1.47.08-.87.09-1.22,0-.54,0-.58l-.06-.49c0-2.26,0-4.57.06-7a39.76,39.76,0,0,0-.49-7.08,14.63,14.63,0,0,0-.7-2.81,6.73,6.73,0,0,0-1.75-2.33,4.11,4.11,0,0,0-.33-.49.63.63,0,0,0-.59-.12c-.2,0-.27.21-.21.52a4.89,4.89,0,0,1,.09.52c.12,2.49.2,5,.25,7.47s.1,5,.18,7.48a59.27,59.27,0,0,1-.18,6.22,26.26,26.26,0,0,0,.24,6.21,4.4,4.4,0,0,0,.09.59A3.92,3.92,0,0,1,383,51.53Z"/><path class="cls-1" d="M401.27,48.71a4.19,4.19,0,0,1-.09-.67c0-.29,0-.57-.06-.86s0-.54-.06-.77,0-.38,0-.46c0-.78-.08-1.79-.12-3s-.08-2.48-.12-3.71-.08-2.31-.13-3.24-.06-1.47-.06-1.6c0-1.22,0-2.56.09-4s.2-2.93.4-4.41a23.7,23.7,0,0,1,1-4.35A14.59,14.59,0,0,1,404,17.83a9.17,9.17,0,0,1,3-2.7,10.18,10.18,0,0,1,4.38-1.22h1.23a19.69,19.69,0,0,1,3.31.76,11.69,11.69,0,0,1,2.88,1.41A10,10,0,0,1,421,18.2a8.42,8.42,0,0,1,1.44,2.94,8.6,8.6,0,0,1,.16,1.19c.06.63.09,1.06.09,1.26s0,.81,0,1.44,0,1,0,1.07c0,.41,0,1.3,0,2.67s.05,2.86.09,4.47.08,3.19.1,4.72,0,2.66,0,3.4c0,1,0,2.19,0,3.52s0,2.71-.13,4.14a37.65,37.65,0,0,1-.55,4.23A12.29,12.29,0,0,1,421,57a8.43,8.43,0,0,1-2.4,2.73,6.65,6.65,0,0,1-3.73,1.19,14.08,14.08,0,0,1-3.71-.24,33.17,33.17,0,0,1-3.58-1,7,7,0,0,1-3-1.72,9.18,9.18,0,0,1-1.86-2.69A14.2,14.2,0,0,1,401.67,52,22.09,22.09,0,0,1,401.27,48.71Zm8.15-.43a5.07,5.07,0,0,0,.77,2.3,2.57,2.57,0,0,0,3.58.31,3.13,3.13,0,0,0,.71-1.29,7.12,7.12,0,0,0,.25-1.63c0-.56,0-1.1.09-1.59v-.52c0-.26,0-.55,0-.86s0-.59,0-.85v-.46q.18-3.13.18-5.73c0-1.73-.06-3.65-.18-5.73q0-.37-.06-1.2c-.05-.55-.08-1.14-.13-1.77s-.07-1.23-.12-1.78-.06-.95-.06-1.2a6.94,6.94,0,0,0-.46-1,13.11,13.11,0,0,0-.73-1.22,5.22,5.22,0,0,0-.92-1,1.34,1.34,0,0,0-2.09.15,4.09,4.09,0,0,0-.73,1.26,9.86,9.86,0,0,0-.43,1.5c-.11.5-.17.93-.22,1.25a3.43,3.43,0,0,0-.12.62c0,.32-.09.69-.15,1.1s-.12.8-.18,1.16a5.21,5.21,0,0,0-.1.68v2.51c0,.61,0,1.21,0,1.81s0,1.05,0,1.38V37a.84.84,0,0,0,0,.18.48.48,0,0,1,0,.18v.25c.05.41.11,1.12.22,2.14s.21,2.1.33,3.22.23,2.19.31,3.22S409.38,47.87,409.42,48.28Z"/></g></g></svg>