<svg xmlns="http://www.w3.org/2000/svg" viewBox="0 0 193.28 160.22"><defs><style>.cls-1{fill:#fff;}.cls-2,.cls-3{fill:#f7941e;}.cls-3{fill-rule:evenodd;}.cls-4{fill:#48484a;}.cls-5{fill:none;stroke:#000;stroke-linecap:round;stroke-width:1.01px;}.cls-6{fill:#e1d7d7;}.cls-7{fill:#ed1c24;}</style></defs><title>zorrito_1</title><g id="Layer_2" data-name="Layer 2"><g id="Layer_1-2" data-name="Layer 1"><path class="cls-1" d="M122.47,27c1.9,3.06,6.87,3.26,10.24,1.31,2.63-1.52,3.81-6.32-.19-9.54a7.12,7.12,0,0,0-8.67-.43C121.22,19.81,120.54,23.74,122.47,27Z"/><path d="M129.19,21.94a1.2,1.2,0,0,1-2,1.27,1.2,1.2,0,1,1,2-1.27Z"/><path class="cls-2" d="M108,115.76l13.59.32a22.68,22.68,0,0,1,10.68,3.15c1.28,1.08,3.72,6.61,6.2,5.11,1.61-.88.58-4.55.58-4.55s2.83.84,4.61-.07c2.5-1.34-2.61-4.54-2.61-4.54s7.34,1.11,6.65-3.41c-.4-2.65-5.21-3.83-14.35-2.11-8.82,1.66-24.06-3.19-24.06-3.19"/><path class="cls-2" d="M71.75,110.13l-12.88,4.36c-5,1.72-8.61,3.07-9.51,4.48s-1.32,9.13-4.11,8.6c-1.81-.36-1.91-4.17-1.91-4.17s-2.46,1.65-4.42,1.31c-2.79-.53,1.13-5.11,1.13-5.11s-6.67,3.25-7.36-1.27c-.41-2.65,3.82-5.21,13.08-6.15,8.92-1,22-10.22,22-10.22"/><path class="cls-3" d="M103.52,21.87a96.29,96.29,0,0,0-21.91,7.81,87.44,87.44,0,0,0-8.35-8.77C66.78,16,54,8.7,54,8.7a60.86,60.86,0,0,0,1.74,11.37c1.45,5.36,6.08,19,6.08,19s.36,6.48.67,8.51c.8,4.18.45,5,.45,5S48.83,62.28,51,62.1c4.43-.2,11.14-.1,11.14-.1s-11.25,9.85-5.87,8.55c8.32-1.91,10.46.63,10.46.63s-5.35,4.65-6.24,9.25c-.48,2.49,0,2,1.2.79a11.24,11.24,0,0,1,4.19-3,42.51,42.51,0,0,1,4.42-1.31s5,9.76,1.52,16.19C54,126.4,65.17,160.22,65.17,160.22s34.37-4.74,44.85-5.06c-.89-13.1-1.52-41.23,9.27-65.53,6.22-13.72,26.39-23.89,40.84-31.17a127.48,127.48,0,0,0,12.48-6.79c10.53-7.19,14.79-11.67,14.12-16s-20.51-6-26.59-6.15l-.76,0c-5-.13-22.66-.59-29.32-2.88C121.16,23.64,109.06,20.55,103.52,21.87Z"/><path class="cls-1" d="M121.4,88.83c-11.33,23.9-11.88,45.35-9.12,65.51-6,1.08-13.3,1.55-19.15,2.92-1-3.67-.72-7.86-1.32-11.76C86,107.16,97.92,84.29,126.68,72.24c2.55-1,17.13-6.76,19.69-6.68C136.27,71.41,125.37,80.41,121.4,88.83Z"/><path class="cls-2" d="M105.67,22.34s-7.13-7-10.89-10.78S80.81-.65,80.44,0s-1.6,5.19.12,12.26,4.67,16,4.67,16Z"/><path class="cls-1" d="M76,33.73S63,23.28,62.88,24.89,65,38.76,65,38.76s4.07-2.54,5.6-2.93C72.09,35.12,76,33.73,76,33.73Z"/><path class="cls-1" d="M87.63,13.77c-1-.32-1,1-.77,3.31.36,2.34,1.31,8.57,1.31,8.57l8.41-3.36C96.61,22.45,88.64,14.1,87.63,13.77Z"/><path class="cls-1" d="M98,40.74c.79,5.14,6.78,10,12.86,9,4.51-.69,8.91-6.3,5.22-12.76-3.29-5.87-7.22-6.55-11.79-5.21S97.18,35.6,98,40.74Z"/><path d="M106.42,41.84a1.49,1.49,0,0,1-1.32,1.8,1.58,1.58,0,1,1-.48-3.12A1.5,1.5,0,0,1,106.42,41.84Z"/><path d="M99.74,143.17s-3.54-27.36-14.19-38.66c-4.36-4.59-17.82-7.16-17.82-7.16l1.33-2.76s12.31,1.31,20.85,9.26c9.11,8.5,15.26,38.34,15.26,38.34l-5.45.83Z"/><path class="cls-4" d="M105.69,145.61l-5.45.84-.57-3.74,5.61-.86Z"/><path class="cls-5" d="M125.05,60.53s.7,7.71-3.56,8-5.8-7.73-5.8-7.73"/><path class="cls-6" d="M37.21,54S2.85,12.69,1.08,15.67C-2.5,21.48,6.75,67.43,6.75,67.43s11.05,16,22.11,10.18C39.72,71.48,37.21,54,37.21,54Z"/><path class="cls-7" d="M37.2,54s-.18,8.16-3.92,8.73c-3.43.52-6.08-4.33-6.08-4.33s.52,7.57-2.45,9c-3.86,1.87-8.51-4.6-8.51-4.6s1.14,7.48-2.73,8.23c-4,.62-6.92-3.57-6.92-3.57l40.46,86.48,21.88-11.15Z"/><path d="M69.09,142.75s2,10.71-7.83,15.55-13.92-4.57-13.92-4.57Z"/><path class="cls-7" d="M19.54,33.26A34.33,34.33,0,0,1,7.37,39.11a31,31,0,0,1-5.3.81C.56,29-.94,17.09.73,14.44,1.45,12.9,10.87,23.42,19.54,33.26Z"/><path class="cls-2" d="M29.17,116.15c-.22,2.75-.1,7.68,2,9.1,1.25.93,8.5,3.49,9.49.63.54-1.68-2.64-3.75-2.64-3.75s2.66-1.36,3.33-3.22c1-2.7-5-1.46-5-1.46s6.06-4.12,2.58-7.1C36.81,108.77,34.56,108.63,29.17,116.15Z"/><path d="M180.94,31.1c6.49.76,15.55,1.61,11.21,6.58C186.84,43.6,176.35,49,176.35,49s-7.55-14-6.69-18.76C169.66,30.27,178.51,30.83,180.94,31.1Z"/></g></g></svg>