<svg xmlns="http://www.w3.org/2000/svg" viewBox="0 0 183.19 197.01"><defs><style>.cls-1{fill:#a85318;}.cls-2{fill:#f39200;}.cls-3{fill:#dad8cc;}.cls-4{fill:none;stroke:#dad8cc;stroke-width:0.42px;}</style></defs><title>guitarra</title><g id="Layer_2" data-name="Layer 2"><g id="Layer_1-2" data-name="Layer 1"><path class="cls-1" d="M80.57,72.13c-8.94,7.05-19.45,22.83-9.48,39,4.81,7.79,13.49,11.08,17,16.5,6.18,9.68-1.07,14.17,5.58,32,7.39,19.83,27.6,45.63,65.25,18.05,28.71-21,31.65-53.45,10.66-68.67S141.26,101.46,133.8,92c-4.47-5.69-3.63-15.61-17.65-24.23C104,60.2,89.11,65.39,80.57,72.13Z"/><path class="cls-2" d="M71.3,79.42c-8.93,7-19.44,22.82-9.46,39,4.8,7.81,13.48,11.08,16.94,16.5,6.18,9.69-1.07,14.16,5.58,32,7.39,19.83,27.6,45.63,65.27,18,28.7-21,31.65-53.45,10.67-68.66s-28.27-7.6-35.73-17.11C120.1,93.52,120.94,83.6,106.92,75,94.69,67.48,79.85,72.67,71.3,79.42Z"/><path class="cls-1" d="M104.72,148.09c9.91,1.81,19.49-5.25,21.43-15.77s-4.53-20.53-14.44-22.34-19.5,5.23-21.42,15.75S94.82,146.27,104.72,148.09Z"/><path d="M105.56,143.5c7.51,1.38,14.8-4,16.26-12s-3.43-15.58-11-17-14.8,4-16.27,12S98.05,142.11,105.56,143.5Z"/><path d="M25.47,39.29c-.69-.86-2.49-.61-3.15-1.44C13,26.25,6.64,18.19,6.12,17.31,7,15.91,8.32,9,8.16,6.23l1.26-1c3.86.81,9.31.67,11.54-.5.78.92,7.84,9.61,17.91,22,.8,1,.07,2.88.9,3.92C69.31,67,112.59,121,112.59,121l-13.52,9.93S54.24,75.15,25.47,39.29Zm4.37-12.37,1.29-1.14a.44.44,0,0,0,0-.62L18.27,10a.43.43,0,0,0-.6-.11L16.36,11a.44.44,0,0,0,0,.62l12.85,15.2A.44.44,0,0,0,29.84,26.92Zm-4.9,4.45,1.31-1.16a.44.44,0,0,0,0-.62L13.39,14.39a.43.43,0,0,0-.6-.11l-1.31,1.16a.44.44,0,0,0,0,.62L24.34,31.27A.42.42,0,0,0,24.94,31.37Z"/><path class="cls-3" d="M31.82,5.6S30.56,8,29.8,7.2s-2.09-2.13-2.09-2.13L23.07,9.18l-.65-.78,4.47-4.24s-1.63-1.41-1.71-1.93,2.26-2.79,3-2.1S32.05,4.1,31.82,5.6Z"/><path class="cls-3" d="M36.81,12.72c-.47.83-1.57,1.5-2.2,1a9.82,9.82,0,0,1-1.48-1.68l-4.59,3.48-.68-.66,4.3-4s-2-1.59-1.59-2.52S32.28,6.33,33.15,7,37.51,11.45,36.81,12.72Z"/><path class="cls-3" d="M43.14,19.14c-.21.87-1.74,2.18-2.35,1.73a15.6,15.6,0,0,1-1.83-2l-4.61,3.49-.92-.93,4.16-3.8s-2.1-1.6-1.49-2.5,1.77-1.95,2.76-1.21S43.37,18.06,43.14,19.14Z"/><path class="cls-3" d="M11.32,36.11s1.26-2.39,2-1.59,2.09,2.12,2.09,2.12l4.65-4.1.65.76-4.46,4.24s1.64,1.4,1.72,1.94-2.28,2.78-3,2.09S11.09,37.61,11.32,36.11Z"/><path class="cls-3" d="M6.33,29c.47-.83,1.59-1.49,2.2-1A9.43,9.43,0,0,1,10,29.62l4.61-3.47.67.67-4.3,4s2,1.58,1.59,2.52S10.86,35.4,10,34.69,5.64,30.27,6.33,29Z"/><path class="cls-3" d="M0,22.58c.2-.88,1.74-2.18,2.36-1.73a14.75,14.75,0,0,1,1.82,2L8.8,19.32l.94.93L5.58,24s2.1,1.61,1.49,2.52-1.79,2-2.75,1.21S-.23,23.65,0,22.58Z"/><path class="cls-4" d="M30.77,23.14S68.5,71,89.55,97s51.79,64.08,51.79,64.08"/><path class="cls-4" d="M23.37,17.36S65,71.17,86.09,97.19s51.79,64.09,51.79,64.09"/><path class="cls-4" d="M18.17,22.13S59.83,76,80.9,102s51.78,64.09,51.78,64.09"/><path class="cls-4" d="M15.85,12.12s48.63,62,69.69,88,51.79,64.09,51.79,64.09"/><path class="cls-4" d="M14,14s48.23,60.87,69.28,86.87,51.26,65.66,51.26,65.66"/><path class="cls-4" d="M22,30.61s37.83,47.82,58.89,73.82,49.84,63.66,49.84,63.66"/><path d="M126.16,173.46l-.43-.51a3.34,3.34,0,0,1,.52-4.85l14-10.69a3.75,3.75,0,0,1,5.08.59l.42.51Z"/></g></g></svg>