<svg xmlns="http://www.w3.org/2000/svg" viewBox="0 0 176.48 129.38"><defs><style>.cls-1{fill:#625e58;}.cls-2{fill:#403c38;}.cls-3{fill:#dad8cc;}.cls-4,.cls-8{fill:none;stroke-linecap:round;stroke-width:0.48px;}.cls-4{stroke:#000;}.cls-5{fill:#db7a1c;}.cls-6{fill:#2fac66;}.cls-7{fill:#fff;}.cls-8{stroke:#dad8cc;}</style></defs><title>piano</title><g id="Layer_2" data-name="Layer 2"><g id="Layer_1-2" data-name="Layer 1"><path class="cls-1" d="M66,67.5c-.34,6.07-2.49,47.28-3.8,53.47s-3.23,6.23-4.13-6.92-3.85-52.72-3-56.79S66.18,64.29,66,67.5Z"/><path class="cls-2" d="M164.16,41.89s-.45,40.54-1.95,45.88-1.57,2.39-2.75-2.59-4.67-41.05-4.63-43.46S164.16,41.89,164.16,41.89Z"/><path class="cls-3" d="M160.16,30.65s14,8,15.08,8.86,1.57,5.24,1,6.78C146,62.56,84.65,86.9,81.47,87.11S65.63,79.35,64.41,77s.18-9.8.18-9.8Z"/><path class="cls-4" d="M65.28,69S80.2,80.67,81.79,80.68s65.42-24.34,93.32-41.22"/><path class="cls-4" d="M160.28,33.62s12.5,5,13.55,7.08-.06,9.34-.06,9.34"/><path class="cls-4" d="M154.27,36.22a135.63,135.63,0,0,1,12.66,7.55c2.1,1.62.75,8.9.75,8.9"/><path class="cls-4" d="M145.57,39.56c3.66,1.36,13.37,5.27,14.83,8s0,6.8,0,6.8"/><path class="cls-4" d="M139.57,42c3,2.1,12.79,6.69,13.68,8.86s0,7.55,0,7.55"/><path class="cls-4" d="M133.16,44.56c3.07,2.17,11.91,7.44,13.41,9.26s0,7.27,0,7.27"/><path class="cls-4" d="M126.12,47.38c3.74,2.8,12.23,6.53,14,9.26s0,7,0,7"/><path class="cls-4" d="M118.55,50.4c4.15,2.67,13.56,7.29,14.51,9.31s.38,6.63.38,6.63"/><path class="cls-4" d="M111,53.5c2.91,2.2,11.19,7.68,13.23,10.08s0,6.54,0,6.54"/><path class="cls-4" d="M99.81,55.26c5.65,2.65,17.7,8.9,18,11a39.86,39.86,0,0,1,0,6.34"/><path class="cls-4" d="M93.57,58.17c3.28,2.21,16.31,9.2,17.1,11s0,6.22,0,6.22"/><path class="cls-4" d="M87.71,62.7c3.71,1.7,15,8.42,15.53,9.79s0,5.81,0,5.81"/><path class="cls-4" d="M80.77,65.49c3,1.81,15.23,8,16.34,9.25s0,5.93,0,5.93"/><path class="cls-4" d="M70.65,65.71c2.45,1.8,17.7,11.07,18.14,12.85a23.72,23.72,0,0,1,0,5.8"/><path class="cls-1" d="M13.45,48.42c-.06,6.08-2.27,43.68-3.27,49.92s-2.93,6.38-4.45-6.69S1.36,44.06,2,40,13.48,45.2,13.45,48.42Z"/><path class="cls-1" d="M8.46,13.63S2.13,9,.57,12.24,1,34.24,2,40.47c2.25,2.42,23.2,18.45,35,23.29S65.43,78.24,65.43,78.24l.25-8.37,3.68-27.44Z"/><path d="M158.73,34.34c.91.49,6.28,3.52,6.59,4s-3.79,3.07-5.1,3.16-9.07-4.77-8.74-5.83S156.4,33.09,158.73,34.34Z"/><path d="M149.85,38c.91.48,7.32,4.76,6.3,5.74a10,10,0,0,1-3.92,1.57c-1.31.11-9.95-4.86-9.61-5.92S147.51,36.79,149.85,38Z"/><path d="M111.68,51.88c.91.48,7.32,4.76,6.3,5.74a10.35,10.35,0,0,1-3.92,1.57c-1.31.1-9.94-4.86-9.61-5.93S109.33,50.65,111.68,51.88Z"/><path d="M119.87,48.37c.9.48,7.32,4.76,6.3,5.73a10,10,0,0,1-3.92,1.58c-1.31.1-9.94-4.86-9.61-5.93S117.52,47.14,119.87,48.37Z"/><path d="M128.32,45.66a60.75,60.75,0,0,1,6.32,4.71c.3.45-2.63,2.49-3.94,2.59s-9.94-4.86-9.61-5.93S126,44.44,128.32,45.66Z"/><path d="M86.89,59.24c2,1.8,8.78,5.24,9.26,7.59a6,6,0,0,1-5.05,2.64c-1.61-.26-9-7.69-9-7.69Z"/><path d="M80,62.94s8.32,5.63,8.79,6.82-3.08,3.64-4.52,3-10.2-7-10.16-7.3S77.8,64.1,80,62.94Z"/><path class="cls-5" d="M9.44,109.4c-4.54,1.44-7.52-3-6.88-8.88s4.81-4.53,7.8-3.76S16.9,107,9.44,109.4Z"/><path class="cls-5" d="M60.81,129.27c-6,1-6-5.12-5.91-7.8S57.15,117,61,118a6.7,6.7,0,0,1,5.11,7.25C65.71,127.92,63.7,128.79,60.81,129.27Z"/><path class="cls-5" d="M161.38,84.82a5.94,5.94,0,0,0-5.85,5.7c0,2.74,2.13,6.7,5.62,6.24s5.55-3.87,5.54-6.88A5,5,0,0,0,161.38,84.82Z"/><path d="M161.1,90.8c0,.59.45.81,1,.82.86,0,1.06-.47,1.08-1.06a1.08,1.08,0,0,0-1-1.1C161.12,89.38,161.11,90.21,161.1,90.8Z"/><path d="M59,123.56c0,.8.65,1.08,1.46,1.1,1.21,0,1.5-.62,1.51-1.42a1.5,1.5,0,0,0-1.45-1.48C59,121.65,59,122.77,59,123.56Z"/><path d="M6.56,102.79c0,.8.65,1.08,1.46,1.1,1.21,0,1.5-.62,1.51-1.42A1.5,1.5,0,0,0,8.07,101C6.6,100.88,6.58,102,6.56,102.79Z"/><path class="cls-2" d="M165.46,31.21c-4.71,4.27-97.61,37.28-99.78,38.65C56.23,66,57.8,47.66,57.8,47.66L165.21,12Z"/><path d="M165.21,12c-.73.8-107.41,35.68-107.41,35.68s-23-9.33-40.21-18C.7,21.2-7.7,10,10.89,6.33,38.85.9,54.16,3.5,61.54,4.88,87.49,9.71,88.9-.41,111.9,0S166,11.2,165.21,12Z"/><path class="cls-6" d="M127.49,20.25A21.19,21.19,0,0,0,125.54,15c-1,1.35-11.13,5.46-15.76,6.19-2.91,2.38-16.68,4.81-20.07,5,1.35,5.81,7.37,23,7.37,23Z"/><path class="cls-7" d="M126.93,16.42c-5.63,3.63-14.63,6.13-17.16,5.2-2,3.35-15.59,5.9-19.09,5.8,1,3.28,5.93,19.84,6.91,20.65s18.64-6.81,20-6.78,15.13-4.91,16.17-6.5C132.36,31.1,128.17,19.2,126.93,16.42Z"/><path class="cls-4" d="M128.24,32c-.4.51-7.1,3.64-8.64,3.68"/><path class="cls-4" d="M127,28.52c-1.4.62-7.43,3.78-8.42,3.78"/><path class="cls-4" d="M125.63,25.25c-1.66.84-7.62,2.84-8.36,3.09"/><path class="cls-4" d="M124.84,21.76a47.55,47.55,0,0,1-8.56,3.32"/><path class="cls-4" d="M107.05,28.2c-1-.13-10.1,3.28-10.42,3.2"/><path class="cls-4" d="M108.21,31.87c-2,.33-9.93,2.82-10.36,3"/><path class="cls-4" d="M109.29,35.79c-2.48.75-9.35,2.87-10.43,3.09"/><path class="cls-4" d="M111.17,38.88c-1.74.54-9.3,3.73-10.21,3.4"/><path class="cls-8" d="M116.53,40.89S111,25.62,110.05,22.51"/><path d="M137.15,33.61c-1.46.52-43.53,15.28-44.42,16s-.3,3.45,1.44,4.16S137.38,38.14,138.22,37,138.93,33,137.15,33.61Z"/></g></g></svg>