<svg xmlns="http://www.w3.org/2000/svg" viewBox="0 0 138.23 146.87"><defs><style>.cls-1{fill:#dad8cc;}.cls-2{fill:#2fac66;}.cls-3{fill:#007572;}.cls-4{fill:#b91919;}.cls-5{fill:#e30613;}.cls-6{fill:#ffde00;}</style></defs><title>tambor</title><g id="Layer_2" data-name="Layer 2"><g id="Layer_1-2" data-name="Layer 1"><path class="cls-1" d="M5.76,76l-1,12.79,79.91,8.69L127.33,76l-1.71-10.85L91.39,60,37.61,64.32Z"/><path class="cls-2" d="M3.09,85.73S6.68,133,6.9,134.44s65.65,4,73.37,3.42,54.5-15,55.89-17.58-4.3-44.13-4.47-47.12-18.6,4.14-27.06,5.8-54.51,9.24-64,8S4.81,85.16,3.09,85.73Z"/><path class="cls-3" d="M9.34,87.14l24.72,49.62L57.67,86.41l26,47.92L101.23,84l19.62,40.19,11.43-49.32L69.74,84.8Z"/><path class="cls-4" d="M2.86,84.27A106.53,106.53,0,0,1,31.39,70.88C47.5,66,86.1,62.66,101.37,66s25.14,5.53,25.92,6.62,5.64-2.35,5.64-2.35S134.74,66,131.8,65c-3.9-1.35-30.23-14.92-82.22-6.77C1.16,65.8.06,77.74.4,79.19A38.24,38.24,0,0,0,2.86,84.27Z"/><path class="cls-5" d="M.52,77.11C.8,78.85,35.68,86.28,77.41,80s53.38-12,54.81-14.37,3.46,9.8,2.67,10.54S97.22,90.3,65.06,92.4s-61.55-1.3-63.66-4C.83,87.8-.84,77.3.52,77.11Z"/><path class="cls-5" d="M4.82,126.64c1,1.14,27.37,13.43,77.57,5.46s51.33-16.85,53.56-19.91,3,11,1.61,12.07S124.49,141.5,70.75,146C21,150.14,6.11,138.44,4.54,136.84,3.9,136.22,3.71,125.32,4.82,126.64Z"/><path d="M52.58,58.31C53.65,62.78,60,63.5,62.9,59.72c2.27-3,1-5.46-.11-7.63.33-.94,33.08-46.76,34.26-48.35,2.26-3-3.32-5.19-4.67-2.55S62.16,48.23,61,51C55.05,48.88,51.61,54.25,52.58,58.31Z"/><path d="M64.52,64.45c-.69,4.56,5,7.6,9,5.17,3.22-1.93,3-4.7,2.76-7.12.65-.75,48.15-31,49.82-32.09,3.23-2-1.14-6.06-3.38-4.11S77.16,58.67,75,60.82C70.31,56.62,65.13,60.32,64.52,64.45Z"/><path class="cls-6" d="M8.27,94.37c1.22.18,6.45-.44,6.38-5.88s-5.55-4.28-7-3.69S2.54,93.48,8.27,94.37Z"/><path class="cls-6" d="M57.59,93.54A4.94,4.94,0,0,0,62,87.73c-.49-2.43-2.48-4.92-4.77-4.76s-5.11,2.62-4.83,5S53.63,93.76,57.59,93.54Z"/><path class="cls-6" d="M101.35,89.21c1.77-.18,5.31-1.94,3.51-6.36s-5.89-3-7.47-1.53-1.21,5-.58,6.41S99.67,89.38,101.35,89.21Z"/><path class="cls-6" d="M133.4,79.42c1.31-.55,2.76-4.76.39-6.38a4.23,4.23,0,0,0-6,1.25c-.94,1.65.45,4.74,1.49,5S131.42,80.24,133.4,79.42Z"/><path class="cls-6" d="M120.54,128.57c1.81,0,3.87-.91,3.67-4.69s-2.58-4.31-4.46-4.1-3.92,3.72-3,5.49S118.72,128.56,120.54,128.57Z"/><path class="cls-6" d="M82.48,137.22c1.78-.11,7.27-1.56,5.12-6.92s-7.47-3.44-8.25-.8S78.41,137.45,82.48,137.22Z"/><path class="cls-6" d="M33.23,139.11c1.88.16,5-.5,4.56-4.74s-3.34-4.59-5.7-3.71a3.88,3.88,0,0,0-2.23,5C30.49,137,31.6,139,33.23,139.11Z"/><path class="cls-6" d="M4.61,132.6c2,.39,5.63-1.19,4.48-5.92s-4.53-3.29-6.54-2S.48,130,1.61,130.78,3.47,132.39,4.61,132.6Z"/></g></g></svg>