<?xml version="1.0" encoding="utf-8"?>
<!-- Generator: Adobe Illustrator 26.2.1, SVG Export Plug-In . SVG Version: 6.00 Build 0)  -->
<svg version="1.1" id="Capa_1" xmlns="http://www.w3.org/2000/svg" xmlns:xlink="http://www.w3.org/1999/xlink" x="0px" y="0px"
	 viewBox="0 0 250 150" style="enable-background:new 0 0 250 150;" xml:space="preserve">
<style type="text/css">
	.st0{fill:#A6A1B8;}
	.st1{fill:#DDCEB1;}
	.st2{fill-rule:evenodd;clip-rule:evenodd;fill:#FFFFFF;}
	.st3{fill-rule:evenodd;clip-rule:evenodd;fill:#CFCCBF;}
	.st4{fill:#FFFFFF;}
	.st5{fill:#A35625;}
	.st6{fill:none;stroke:#231F20;stroke-width:0.5218;stroke-linecap:round;}
	.st7{fill-rule:evenodd;clip-rule:evenodd;fill:#231F20;}
	.st8{fill:#D3D2C2;}
</style>
<path class="st0" d="M222.3,85.6c0,39.1-60.1,55.2-99.2,55.2s-56.7-34.6-56.7-73.7s60.9-66.3,100-66.3S222.3,46.5,222.3,85.6z"/>
<path class="st1" d="M101.5,42.9c0.2-1.2,1.6-0.4,3.6,0.1c-1.9-1.2-3.3-3-2-4.4c0.8-0.9,2.5,1.5,3.8,2.8c-0.6-1.2-1.3-3-0.7-4.1
	c0.6-1.1,2.7,0.7,4,3.3c2.7-4.6,3.9,0,1.7,2.9c5.2,10.4,13.4,10.6,18,12c0,0,0.1,0,0.1,0c1.5,1,3.1,2.5,4.7,4.6
	c-1.2,1.1-3.6,1.5-5.5,1.5c-11.5-0.2-17.3-7.9-20-14.1C105.8,46.9,101.2,44.3,101.5,42.9z"/>
<path class="st2" d="M143.3,55.1c0,0-7.2-0.2-11.1-0.8l-3.9-0.7l-2.3,8.7c0,0,4.9,2,9.6,2.1c4.7,0.1,6.6,0,6.6,0L143.3,55.1z"/>
<path class="st3" d="M151,137.6c0,0-3.1,1.7-5,2.3c-1.8,0.6-2.9,1.6-3.3,3c-0.3,1.4-0.2,2.2,2.2,2.3c2.4,0.1,10.3,0,11.6-0.8
	c1.4-0.8-0.9-7.8-0.9-7.8L151,137.6z"/>
<path class="st3" d="M134.8,136.5c0,0-3.3,1.6-5.2,2.2c-1.9,0.6-3.1,1.5-3.5,2.8c-0.4,1.3-0.2,2.1,2.3,2.2c2.5,0.1,10.8,0,12.2-0.8
	c1.5-0.8-1-6.2-1-6.2L134.8,136.5z"/>
<path class="st1" d="M154.9,61.5c0,7.2-3.7,13-8.3,13c-4.6,0-8.3-5.8-8.3-13c0-7.2,3.7-13,8.3-13C151.1,48.5,154.9,54.3,154.9,61.5z
	"/>
<path class="st4" d="M144.1,55.2l0.7,14.9l8.2-14.9l8.4-2.4c0,0,4.5,4.9,6.4,10.3c1.7,4.8,2.9,11.8,2.9,11.8l-7.3,0.7l-2.3-7.7
	l0.7,29.5c0,0-13.2-1-19.7-1.1c-6.4-0.1-11.1-1.9-11.1-1.9l7.8-39.4L144.1,55.2L144.1,55.2z"/>
<path class="st4" d="M134.1,95.4c0,0-2.7,40.2-2.3,41.9c0.5,1.7,7.5,0.9,8.6,0c1.1-0.9,3.2-24.3,6.2-24.6c3-0.3,2.4,25.5,3.2,25.9
	c0.8,0.5,6.5,1.4,7.4,0.3c0.9-1.1,2.8-42.6,2.8-42.6L134.1,95.4z"/>
<path class="st5" d="M173.5,29c0,0,3.4,7.4,4.6,8.3c1.2,0.9,3.4,1,3.4,1s-1.5,1.1-3.9,0.9c-2.2-0.2-3.1-0.8-3.1-0.8s0.9,2.2,1.8,3.1
	c1.1,1.2,2.3,2,2.3,2s-2.3,0.1-3.8-0.7c-1.5-0.8-2.1-2.9-2.1-2.9s-0.2,2.7,0.2,4.1c0.6,2.1,1.6,2.9,1.6,2.9s-1.8,0.9-3.7-1.6
	c-1-1.4-1.5-4.6-1.5-4.6l0.9-3.3L173.5,29z"/>
<path class="st5" d="M140.5,13.8c0,0-3.1,2.1-4.5,1.7c-1.4-0.5-2.8-1.2-2.8-1.2s0.5,1.3,1.2,2.3c0.8,1.1,2.1,1.4,2.1,1.4
	s-1.8,0.5-3.3-0.1c-1.5-0.6-2.9-1.6-2.9-1.6s0.6,2,1.4,2.8c0.9,0.8,3.5,2.5,3.5,2.5l1.9-0.5l7.6-5.8L140.5,13.8z"/>
<path class="st1" d="M140.8,13.8c0,0-12.4,16.1-12.6,24c-0.3,8,2.9,15.9,11.2,18.3c8.3,2.4,17.3,0.4,24.5-6
	c7.2-6.4,10.5-19.9,10.5-19.9s-4-5.6-11.8-9.6C154.8,16.7,140.8,13.8,140.8,13.8z"/>
<path class="st4" d="M139.7,14.2c0,0,8.8-8.4,10.9-8.9c2.7-0.7,10.1,0.9,16.4,4.7c6.3,3.8,9.8,6.9,9.5,9.3
	c-0.3,2.4-2.1,12.5-2.1,12.5s-7.6-6.1-15.4-10.4C151.1,17.2,139.7,14.2,139.7,14.2z"/>
<path class="st6" d="M152.7,28.3c0,0-3.7-0.3-7.7,1.1c-4,1.4-6.2,3.1-3.2,4.6c3,1.5,7.9,2.2,7.9,2.2"/>
<path class="st6" d="M142.4,39.8c0,0-1.2,3.5,0,5.2c1.2,1.7,3.8-1,3.8-1"/>
<path class="st2" d="M163.4,28c-2.5-1.1-4.6,0-5.8,2.5c-1.2,2.5-0.7,5,1.8,6c2.5,1.1,5.2,0,6.4-2.5C167.1,31.6,165.9,29,163.4,28z"
	/>
<path class="st7" d="M160.2,32c-0.4-0.3-0.8-0.1-0.9,0.5c-0.2,0.6-0.1,1.2,0.3,1.4c0.4,0.3,0.8,0,1-0.5
	C160.7,32.8,160.5,32.2,160.2,32"/>
<path class="st2" d="M143.7,19.3c-2.1-1-3.9,0-4.9,2.3c-1,2.3-0.6,4.6,1.5,5.6c2.1,1,4.4,0,5.5-2.3
	C146.8,22.6,145.8,20.3,143.7,19.3z"/>
<path class="st7" d="M140.7,22.6c-0.4-0.3-0.7,0-0.9,0.5c-0.2,0.6-0.1,1.1,0.3,1.4c0.4,0.3,0.8,0,1-0.5
	C141.3,23.4,141.1,22.9,140.7,22.6z"/>
<path class="st8" d="M124.5,106l35.3-7.7c0,0,2.6,7-1.6,8.1c-4.2,1.1-13,3.2-19.8,3.4C128.4,110.1,124.5,106,124.5,106z"/>
<path class="st5" d="M159.9,99.1l10.2-2.8c0,0,1.4-0.8,2,1c0.4,1.3-0.1,2-1.4,2.6c-1.3,0.6-10,2.8-10,2.8L159.9,99.1z"/>
<path class="st1" d="M163.2,95.8c-0.5,0.1-4.6,2.3-2.9,3c1.7,0.7,2.7-0.3,2.7-0.3s-1.3,3.6,0.3,3.9c0.9,0.1,1.1-1,1.1-1
	s-0.1,1.5,1.1,1.2c1.3-0.3,1.2-1.6,1.2-1.6s0.2,1.6,1.4,0.8c2-1.3-0.2-6-0.2-6s2.2-10.8,2.7-14.2c0.5-3.4-0.9-6.5-0.9-6.5l-5.5,0.5
	c0,0,1,3.2,0.9,5.1C164.9,86.8,163.2,95.8,163.2,95.8z"/>
</svg>
