<?xml version="1.0" encoding="utf-8"?>
<!-- Generator: Adobe Illustrator 26.2.1, SVG Export Plug-In . SVG Version: 6.00 Build 0)  -->
<svg version="1.1" id="Capa_1" xmlns="http://www.w3.org/2000/svg" xmlns:xlink="http://www.w3.org/1999/xlink" x="0px" y="0px"
	 viewBox="0 0 250 150" style="enable-background:new 0 0 250 150;" xml:space="preserve">
<style type="text/css">
	.st0{fill:#FFBD45;}
	.st1{fill:#9E9980;}
	.st2{fill:#AE7DAF;}
	.st3{fill:#DDCEB1;}
	.st4{fill:none;stroke:#231F20;stroke-width:0.8728;stroke-linecap:round;}
	.st5{fill-rule:evenodd;clip-rule:evenodd;fill:#FFFFFF;}
	.st6{fill-rule:evenodd;clip-rule:evenodd;fill:#231F20;}
	.st7{fill:none;stroke:#ED1C24;stroke-width:1.5729;stroke-linecap:round;stroke-linejoin:round;}
	.st8{fill:#ED1C24;}
	.st9{fill:#F59FBB;}
</style>
<path class="st0" d="M187.2,116.5c-17.4,35.1-78.4,22.8-113.4,5.4S38.3,65.7,55.7,30.6s84-32.4,119.1-15S204.6,81.4,187.2,116.5z"/>
<g>
	<path class="st1" d="M147,72.8c0-3.9,3.6-7,8-7c4.4,0,8,3.2,8,7c0,3.9-3.6,7-8,7C150.5,79.9,147,76.7,147,72.8z"/>
	<path class="st1" d="M118.8,29.7c0,0,1.2-7.4,6.8-7.2c5.6,0.2,8.3,7.2,8.3,7.2s7-6.8,13.9-3.8c6.8,3,3.2,10.1,3.2,10.1
		s10-0.2,12.8,5.5c2.8,5.6-0.7,10.6-0.7,10.6s5.7,2.8,6.5,8.1c0.8,5.2-5.5,9.1-15.5,7.5c-10-1.6-13.6,4.4-13.6,4.4l-43.7,6.8
		c0,0-10.1,2-13-2.4c-2.8-4.4-0.2-5.9-0.2-5.9s-4.7-0.9-6.2-6.9c-1.9-7.3,6.7-7.9,6.7-7.9s-6.8-7.8-2.6-12.2
		c4.2-4.4,10.1-1.5,10.1-1.5s-2.7-9.9,4.3-11.8c7-1.8,8.5,3.7,8.5,3.7s-0.2-8.4,5.6-9.6C115.4,23.1,118.8,29.7,118.8,29.7z"/>
	<path class="st2" d="M106.4,98.6c0,0-6.2,6.4-10.4,11.1c-4.1,4.7-4.1,6.1-4.1,6.1l10.4,4.9l3.3-5.1l-3.6,16.2l48.3,1l-4.1-14.4
		l3.6,4.3l9.3-5.6c0,0-7.4-9-10.8-11.9c-3.3-2.9-6.7-6.6-6.7-6.6H106.4z"/>
	<path class="st3" d="M93.6,64.2c0,0-1.7,22.1,6.7,30.3c8.1,8,20.9,10.6,31.1,8.7c10-1.9,21.4-6.8,23.6-23.3
		c2.5-19-0.9-33.2-0.9-33.2s-7.1-11.5-32.3-9.1C96.1,40,93.6,64.2,93.6,64.2z"/>
	<path class="st4" d="M128.1,71.1c0,0,10.3,3,8.8,6.7c-2.4,6-12.7,1.5-12.7,1.5"/>
	<path class="st5" d="M110.8,54.5c-4.5-0.1-6.8,3.1-6.9,7.8c-0.1,4.8,2.5,8.4,7,8.4c4.5,0.1,7.8-3.4,7.9-8.2
		C118.9,57.8,115.3,54.6,110.8,54.5z"/>
	<path class="st6" d="M113.5,62.7c-0.9,0-1.4,0.6-1.4,1.5c0,0.9,0.5,1.6,1.4,1.6c0.9,0,1.6-0.7,1.7-1.6
		C115.2,63.4,114.4,62.7,113.5,62.7z"/>
	<path class="st5" d="M143.2,54.5c-4.5-0.1-6.8,3.1-6.9,7.8c-0.1,4.8,2.5,8.4,7,8.4c4.5,0.1,7.8-3.4,7.9-8.2
		C151.3,57.8,147.7,54.6,143.2,54.5z"/>
	<path class="st6" d="M145.9,62.7c-0.9,0-1.4,0.6-1.4,1.5c0,0.9,0.5,1.6,1.4,1.6c0.9,0,1.6-0.7,1.7-1.6
		C147.6,63.4,146.9,62.7,145.9,62.7z"/>
	<path class="st1" d="M118.2,37.2c0,0,8.2,11.7,14.7,10.4c4.9-1,4.7-4.7,4.7-4.7s4.8,10.5,10.6,10.5c2.4,0,3-3.6,3-3.6
		s2.3,9.1,6.5,8.7c4.2-0.4,0.6-13.8,0.6-13.8s-9.9-6.5-11.8-7.6c-1.8-1.1-14.9-3.3-15.4-3.3C130.6,34,118.2,37.2,118.2,37.2z"/>
	<path class="st1" d="M120.7,37.9c0,0-1.3,11.9-5.8,11.3c-4.6-0.5-4.6-5.2-4.6-5.2s-2,9.4-6.4,9.9c-4.3,0.5-4.1-3.1-4.1-3.1
		s-0.4,11.3-5.4,13.5c-5.1,2.2-3.3-5.7-3.3-5.7l3.6-11.1l11.2-8.9l11.2-3.5H131L120.7,37.9z"/>
	<path class="st7" d="M96.5,59.8l26.1-0.9c0,0-0.9,12.5-11.9,12.1C99.7,70.7,96.5,59.8,96.5,59.8z"/>
	<path class="st7" d="M160,58.3L133.9,59c0,0,1.6,12.4,12.6,11.4C157.6,69.3,160,58.3,160,58.3z"/>
	<path class="st7" d="M122.6,58.9c0,0,2.6-0.9,5.7-0.9c3.1,0,5.7,1,5.7,1"/>
	<path class="st8" d="M117.5,89c1.8,0.1,4.2-1.3,4.5-0.2c0.3,1.6,0.3,1.7,0.3,1.7s2.3-2.4,3-0.9c0.7,1.5,1.8,2.9,1.8,2.9
		s-2.2,5.4-6.2,4.4C115.4,95.8,117.5,89,117.5,89z"/>
	<path class="st4" d="M116.9,85.2c0,0-0.1,4.3,2.1,6.3c3.9,3.5,9.4,0.5,9.4,0.5"/>
	<path class="st3" d="M125.8,131.4c0.5-1.3,4.1-1,6.4-2.1c0.1-0.1,0.3-0.1,0.4-0.2c5.3-3.5,21.1-4,21.1-4l-2.4-3.2l7.2-4.3
		c0,0,9.3,9.8,6.2,13.4c-3,3.6-21,2.7-21,2.7s3.4,5.1,1.6,6.6c-1.6,1.4-3.9-2-5.2-4.3c0.8,1.8,1.6,4.5,0,5.6c-2.2,1.5-4.3-3.7-5.1-6
		c0.6,1.8,1.4,5.5-0.9,5.5c-1.9,0-3.4-3.4-3.2-7.2c-0.2,0-0.4,0.1-0.6,0.1C126.4,134.2,125.3,132.6,125.8,131.4z"/>
	<path class="st3" d="M125.4,131.4c-0.5-1.3-4.1-1-6.4-2.1c-0.1-0.1-0.3-0.1-0.4-0.2c-5.3-3.5-21.1-4-21.1-4l3.6-4.9l-7.6-3.6
		c0,0-10.1,10.8-7,14.4c3,3.6,21,2.7,21,2.7s-3.4,5.1-1.6,6.7c1.6,1.4,3.9-2,5.2-4.3c-0.8,1.8-1.6,4.5,0,5.6c2.2,1.5,4.3-3.7,5.1-6
		c-0.6,1.8-1.4,5.5,0.9,5.5c1.9,0,3.4-3.4,3.2-7.2c0.2,0,0.4,0.1,0.6,0.1C124.8,134.2,126,132.6,125.4,131.4z"/>
	<path class="st8" d="M124,131.9c0.8,0,1.5-0.3,1.6-0.7c0.1-0.4-0.2-0.5-1.2-0.8c-0.7-0.2-1.3-0.2-1.6,0.7
		C122.6,131.7,123.2,131.9,124,131.9z"/>
	<path class="st8" d="M127.3,131.9c-0.8,0-1.5-0.3-1.6-0.7c-0.1-0.4,0.2-0.5,1.2-0.8c0.7-0.2,1.3-0.2,1.6,0.7
		C128.7,131.7,128.1,131.9,127.3,131.9z"/>
	<path class="st9" d="M110.3,80.9c0,3.4-2.8,6.2-6.4,6.2c-3.5,0-6.4-2.8-6.4-6.2c0-3.4,2.8-6.2,6.4-6.2
		C107.4,74.7,110.3,77.5,110.3,80.9z"/>
	<path class="st9" d="M154,80.9c0,3.4-2.8,6.2-6.4,6.2c-3.5,0-6.4-2.8-6.4-6.2c0-3.4,2.9-6.2,6.4-6.2C151.1,74.7,154,77.5,154,80.9z
		"/>
	<path class="st8" d="M144.9,141.4c0.4,0.6,1.2,0.7,1.6,0.4c0.5-0.3,0.5-1.1,0-1.6c-0.4-0.6-1.1-0.8-1.6-0.4
		C144.2,140.3,144.4,140.9,144.9,141.4z"/>
	<path class="st8" d="M139,142.7c0.7,0.6,1.8,0.7,2.5,0.4c0.7-0.3,0.7-1.1,0.1-1.6c-0.7-0.6-1.6-0.8-2.5-0.4
		C138.1,141.5,138.4,142.1,139,142.7z"/>
	<path class="st8" d="M133.8,141.2c0.3,0.6,1,0.9,1.6,0.7c0.6-0.2,0.8-0.9,0.4-1.5c-0.3-0.6-0.9-1-1.6-0.7
		C133.4,140,133.5,140.6,133.8,141.2z"/>
	<path class="st8" d="M108.8,141.4c-0.7,0.6-1.8,0.7-2.5,0.4c-0.7-0.3-0.7-1.1-0.1-1.6c0.7-0.6,1.6-0.8,2.5-0.4
		C109.8,140.3,109.5,140.9,108.8,141.4z"/>
	<path class="st8" d="M113.9,142.7c-0.4,0.6-1.2,0.7-1.6,0.4c-0.5-0.3-0.5-1.1,0-1.6c0.4-0.6,1.1-0.8,1.6-0.4
		C114.5,141.5,114.3,142.1,113.9,142.7z"/>
	<path class="st8" d="M118.9,141.2c-0.3,0.6-1,0.9-1.6,0.7c-0.6-0.2-0.8-0.9-0.4-1.5c0.3-0.6,0.9-1,1.6-0.7
		C119.3,140,119.2,140.6,118.9,141.2z"/>
</g>
</svg>
