<?xml version="1.0" encoding="utf-8"?>
<!-- Generator: Adobe Illustrator 26.2.1, SVG Export Plug-In . SVG Version: 6.00 Build 0)  -->
<svg version="1.1" id="Capa_1" xmlns="http://www.w3.org/2000/svg" xmlns:xlink="http://www.w3.org/1999/xlink" x="0px" y="0px"
	 viewBox="0 0 250 150" style="enable-background:new 0 0 250 150;" xml:space="preserve">
<style type="text/css">
	.st0{fill:#7D9DCC;}
	.st1{fill-rule:evenodd;clip-rule:evenodd;fill:#231F20;}
	.st2{fill-rule:evenodd;clip-rule:evenodd;fill:#7A411B;}
	.st3{fill:#DDCEB1;}
	.st4{fill-rule:evenodd;clip-rule:evenodd;fill:#BA2026;}
	.st5{fill-rule:evenodd;clip-rule:evenodd;fill:#2BB673;}
	.st6{fill-rule:evenodd;clip-rule:evenodd;fill:#00A5A5;}
	.st7{fill-rule:evenodd;clip-rule:evenodd;fill:#DDCEB1;}
	.st8{fill-rule:evenodd;clip-rule:evenodd;fill:#FFFFFF;}
	.st9{fill:none;stroke:#231F20;stroke-width:0.4696;stroke-linecap:round;}
	.st10{fill-rule:evenodd;clip-rule:evenodd;fill:#A9B750;}
	.st11{fill-rule:evenodd;clip-rule:evenodd;fill:#918A3E;}
	.st12{fill:none;stroke:#A9B750;stroke-width:0.5027;stroke-linecap:round;stroke-dasharray:0.8184,2.0134;}
	.st13{fill:#7A411B;}
</style>
<path class="st0" d="M52.9,42.5c9.6-37.9,71.8-38.7,109.8-29.1s46.5,47.5,36.8,85.4s-75.3,49.3-113.3,39.7S43.3,80.4,52.9,42.5z"/>
<path class="st1" d="M155.3,131.8c0,0,4.6,0.9,6.7,1.2c2,0.3,3.3,1,3.9,2.2c0.6,1.2,0.5,1.9-2,2.3c-2.5,0.4-8.7,1.1-10.3,0.6
	c-1.6-0.5-3-4.6-3-4.6L155.3,131.8z"/>
<path class="st1" d="M113.1,127.8c0,0-2.1,3-0.9,4.1c1.2,1.1,2.2,1.3,2.9,2.5c0.8,1.4,0.6,3.2-4,2.4c-4.4-0.7-5.3-3.1-6.4-4.6
	c-1.9-2.4-2.2-3.6-0.3-5.2c1.9-1.6,3.6-1.7,3.6-1.7L113.1,127.8z"/>
<path class="st2" d="M146.4,96.8c0,0,6.5,23.4,8.2,28.3c1.6,4.9,1.9,7.4,1.9,7.4s-5.7,1.8-6.7,1.9c-0.9,0.2-4.1-7.4-7.2-13.4
	c-3.1-6-8.5-14.5-9.4-13.3c-0.8,1.2-4,10.8-8.4,14.8c-4.4,4-13.3,9.1-13.3,9.1s-4.2-5.5-3.8-6.5c0.5-1.5,9.5-6.4,10.7-10.4
	c1.1-4,0.8-17.3,0.8-17.3L146.4,96.8z"/>
<path class="st3" d="M159.6,90.3c0,0,5.6,2.3,5.2,3.2c-0.7,1.5-2.6,0-2.6,0s2.8,3.5,1.9,4.1c-1.2,0.7-3.4-2.7-3.4-2.7
	s2.3,3.8,1.4,4.4C161,100,159,96,159,96s1.5,3.6,0.7,3.9c-1.2,0.4-3.8-4.8-3.9-6.4c-0.1-1.6,0.5-1,0.5-1L159.6,90.3z"/>
<path class="st4" d="M143.4,56.5c0,0-3.3,5,5.3,26.4c2.4,6.1,7.2,10.7,7.2,10.7l4.4-3c0,0-3.1-5.8-6.4-12.5
	c-3.3-6.7-4.7-14.8-7.5-18.8C145.4,57.9,143.4,56.5,143.4,56.5z"/>
<path class="st5" d="M143.4,57.9l-4.3,22l-10.7-25.3L143.4,57.9z"/>
<path class="st3" d="M110.6,92.6c0,0,2.4,5.5,1.5,5.7c-1.7,0.5-1.8-1.8-1.8-1.8s-0.6,4.3-1.6,4c-1.4-0.3-0.5-4.2-0.5-4.2
	s-1.1,4.1-2.2,3.9c-1.5-0.3,0-4.3,0-4.3s-1.5,3.5-2.4,3.1c-1.2-0.5,0.8-5.9,1.9-7c1.1-1.2,1.1-0.3,1.1-0.3L110.6,92.6z"/>
<path class="st4" d="M123.9,57.1c0,0-6.1,1.1-15.5,22.1c-2.7,6-2.6,12.6-2.6,12.6l5.3,1c0,0,2-6.3,4.6-13.3c2.5-7,8.3-12.9,8.3-12.9
	V57.1z"/>
<path class="st6" d="M132,96.1c-1.2-0.1-3.5,0.4-6,0.3c-2.5-0.1-5.3-0.2-5.3-0.2l1.3,0.8c0,0,1.9,0.2,5.3,0.3
	c3.4,0.1,6.3-0.5,6.3-0.5L132,96.1z"/>
<path class="st4" d="M142,57.6c0,0,0.1,3.3-0.2,5.8c-0.3,3.6-2.5,8.2-2.5,8.2s-3.5-3.7-4.9-7.1c-1.4-3.3-2.8-8.5-2.8-8.5
	s-3.1-0.2-4.8,0c-1.7,0.3-3.3,1.1-3.3,1.1s-5.9,35.9-4.6,41.2c3.3,2.1,10.3,2.5,17.3,2.4c8.9-0.1,10-0.6,11.9-2.5
	c1.6-2.8-0.6-30.8-2.2-38.5C145.2,58.9,142,57.6,142,57.6z"/>
<path class="st7" d="M137.8,18.9c2.4,0.3,5.6,2.7,8.2,5.5c2.5,2.8,3.8,5.5,5.3,6.8c2.3,2,7.1,5.6,6.4,9.3c-0.7,3.4-3.7,2-4.5,2.1
	c0.3,6.2-2.5,13-4.8,14.7c-2.3,1.7-8.5,2.5-13.6,1.2c-5.6-1.5-9.8-3.3-12.2-6.7c-2.4-3.4-2.6-4.7-2.6-4.7s-2.6,0.9-3.5-1.7
	c-0.9-2.6,2.7-3.7,2.7-3.7s-1.3-4.7-0.9-8.9c0.4-4.2,4.6-8.9,7.6-11.2C128.6,19.3,134.8,18.5,137.8,18.9z"/>
<path class="st8" d="M142.5,30.5c-2.4,0-3.6,1.3-3.6,3.4c0,2.1,1.3,3.7,3.7,3.7c2.3,0,4.1-1.5,4.1-3.6
	C146.7,32,144.8,30.5,142.5,30.5z"/>
<path class="st1" d="M144,33.1c-0.4,0-0.6,0.2-0.6,0.6c0,0.4,0.2,0.7,0.6,0.7c0.4,0,0.7-0.3,0.7-0.7C144.7,33.4,144.4,33.1,144,33.1
	z"/>
<path class="st2" d="M122.6,30.5c0,0,3.5,6.6,2.4,8.1c-1,1.5-2.9-2.5-2.9-2.5s3.1,8,1.1,7.4c-2-0.6-2.9-5.3-2.9-5.3s1.7,6.2-0.1,5.2
	c-1.8-1-2.7-4.5-2.7-4.5c0.8,4.7,0,5.1-1.4,2.5c-1.6-3,0.1-8.9,0.1-8.9s3.2-0.4,4.3-0.1C121.6,32.6,122.6,30.5,122.6,30.5z"/>
<path class="st9" d="M145.4,49.4c0.7,1.6,4.7,1.7,5.2-0.1"/>
<path class="st10" d="M135,27.8c0,0,15.8,1,19.7-2.8c2.2-2.2-4.7-4.9-4.7-4.9s-1.2,3.5-2.5,3.9C142.9,25.2,135,27.8,135,27.8z"/>
<path class="st11" d="M146.1,25.1c-3.7,1.3,0.7-0.2-11.6,3.3c-7,2-19.1,6.6-19.1,6.6s-6.5-9.6-3.9-13.9c2.5-4.1,5.7-6.6,19.5-6.9
	c10.9-0.2,18.3,2.4,21.1,6.3C154.1,23.4,147.4,24.7,146.1,25.1z"/>
<path class="st10" d="M125.3,14.1c0.1,1.1,1,0.9,2,0.6c1.1-0.2,2-0.4,1.8-1.5c-0.1-1.1-1.1-1.7-2.2-1.5
	C125.9,12,125.1,13,125.3,14.1z"/>
<path class="st12" d="M145.4,23.9c0,0-7.9-3.1-14.9-2.4c-12.5,1.3-18.2,5.7-18.2,5.7"/>
<path class="st13" d="M142.4,55.8c0.4,0,0.4-1.3,0-1.3S142,55.8,142.4,55.8z"/>
<path class="st13" d="M140.5,53.2c0.4,0,0.4-0.6,0-0.6C140.1,52.6,140.1,53.2,140.5,53.2z"/>
<path class="st13" d="M137.9,56.5c0.4,0,0.4-0.6,0-0.6S137.5,56.5,137.9,56.5z"/>
<path class="st13" d="M136,51.9c0.4,0,0.4-0.6,0-0.6S135.5,51.9,136,51.9z"/>
<path class="st13" d="M134,49.3c0.4,0,0.4-0.6,0-0.6S133.6,49.3,134,49.3z"/>
<path class="st13" d="M132.7,53.2c0.4,0,0.4-0.6,0-0.6S132.3,53.2,132.7,53.2z"/>
<path class="st13" d="M127.8,52.6c0.9,0,0.9-0.6,0-0.6S127,52.6,127.8,52.6z"/>
<path class="st13" d="M128.8,49.3c0.4,0,0.4-0.6,0-0.6C128.4,48.7,128.4,49.3,128.8,49.3z"/>
<path class="st13" d="M126.9,46.1c0.4,0,0.4-0.6,0-0.6C126.4,45.4,126.4,46.1,126.9,46.1z"/>
<path class="st13" d="M125.6,49.3c0.4,0,0.4-0.6,0-0.6C125.1,48.7,125.1,49.3,125.6,49.3z"/>
<path class="st13" d="M122.6,45.4c0.9,0,0.9-0.6,0-0.6C121.8,44.8,121.8,45.4,122.6,45.4z"/>
<path class="st13" d="M144.4,52.6c0.4,0,0.4-0.6,0-0.6S144,52.6,144.4,52.6z"/>
<path class="st13" d="M145,56.5c0.4,0,0.4-0.6,0-0.6C144.6,55.8,144.6,56.5,145,56.5z"/>
<path class="st13" d="M148,53.2c0.9,0,0.9-0.6,0-0.6C147.1,52.6,147.1,53.2,148,53.2z"/>
<path class="st13" d="M134,57.1c0.4,0,0.4-1.3,0-1.3S133.6,57.1,134,57.1z"/>
<path class="st13" d="M124.3,51.9c0.4,0,0.4-0.6,0-0.6C123.8,51.3,123.8,51.9,124.3,51.9z"/>
<path class="st13" d="M121.3,48.7c0.9,0,0.9-0.6,0-0.6S120.5,48.7,121.3,48.7z"/>
</svg>
