<?xml version="1.0" encoding="UTF-8" standalone="no"?>
<svg
   width="250"
   height="150"
   viewBox="0 0 250 150"
   fill="none"
   version="1.1"
   id="svg359"
   sodipodi:docname="heladera.svg"
   inkscape:version="1.2.1 (9c6d41e410, 2022-07-14)"
   xmlns:inkscape="http://www.inkscape.org/namespaces/inkscape"
   xmlns:sodipodi="http://sodipodi.sourceforge.net/DTD/sodipodi-0.dtd"
   xmlns="http://www.w3.org/2000/svg"
   xmlns:svg="http://www.w3.org/2000/svg">
  <defs
     id="defs363" />
  <sodipodi:namedview
     id="namedview361"
     pagecolor="#ffffff"
     bordercolor="#000000"
     borderopacity="0.25"
     inkscape:showpageshadow="2"
     inkscape:pageopacity="0.0"
     inkscape:pagecheckerboard="0"
     inkscape:deskcolor="#d1d1d1"
     showgrid="false"
     inkscape:zoom="1.1372283"
     inkscape:cx="65.949821"
     inkscape:cy="93.648745"
     inkscape:window-width="1920"
     inkscape:window-height="1018"
     inkscape:window-x="-8"
     inkscape:window-y="-8"
     inkscape:window-maximized="1"
     inkscape:current-layer="svg359" />
  <path
     d="m 99.221007,12.531244 c 16.679003,-0.612617 63.291933,0.245043 63.291933,0.245043 l -10.162,5.513557 H 86.407982 c 0,0 11.70845,-5.7586 12.813025,-5.7586 z"
     fill="#bab9aa"
     id="path327"
     style="stroke-width:0.657984" />
  <path
     d="m 151.46718,18.412326 c 0,0 9.6095,-6.003664 11.04576,-5.636094 1.43564,0.367575 2.54003,0.61261 2.3194,4.778414 -0.22125,3.675684 1.32564,91.402944 1.6569,108.678194 0,2.20557 -0.99439,3.92138 -1.87815,4.65634 -3.09253,2.69529 -14.02767,7.96398 -14.02767,7.96398 l -1.43626,-84.786404 -0.22063,-1.837873 z"
     fill="#a8a7a1"
     id="path329"
     style="stroke-width:0.657984" />
  <path
     d="m 87.402625,23.19081 c 0.110457,0.490085 0.220909,25.484936 0.220909,25.484936 0,0 -2.761421,5.39108 10.714338,4.655917 7.400648,-0.367548 21.318248,-0.122539 33.910338,0.122538 10.60387,0.245008 19.2196,0.367547 19.44023,0.367547 0.5525,0 3.64504,0.980171 4.19754,-4.655917 0.55251,-5.636088 0.22126,-27.935363 0.22126,-27.935363 0,0 -0.44188,-3.920775 -5.30256,-3.79825 -5.96438,0.122525 -57.216489,0.367575 -59.536078,0.980192 -2.209121,0.367568 -4.528722,-1.592816 -3.865977,4.7784 z"
     fill="#bab9aa"
     id="path331"
     style="stroke-width:0.657984" />
  <path
     d="m 93.808443,60.070461 c 0,0 -5.854243,0.735163 -5.522871,7.106344 0.441831,6.371255 0.441825,67.265235 0.441825,67.265235 0,0 -1.435942,4.41112 3.092773,4.28851 3.866046,-0.12261 45.83972,0.36782 57.10636,0.24521 7.84259,0.61235 7.17946,-7.35162 7.17946,-7.35162 0.11062,-5.3906 -1.32502,-70.45097 -1.32502,-70.45097 0,0 0.22063,-1.960411 -2.43003,-2.08288 -2.8719,-0.245078 -58.542497,0.980171 -58.542497,0.980171 z"
     fill="#bab9aa"
     id="path333"
     style="stroke-width:0.657984" />
  <path
     d="M 150.36217,61.785795 87.070202,66.68672 86.959744,52.964046 150.25154,48.063121 Z"
     fill="#bab9aa"
     id="path335"
     style="stroke-width:0.657984" />
  <path
     d="m 84.419554,23.31328 c 0.110456,0.490155 0.22091,22.666891 0.22091,25.484935 0,3.675746 1.104572,5.023464 5.52285,4.900994 1.546417,0 58.100706,0.490086 58.652586,0.367547 0.44188,-0.245008 3.64504,0.980171 4.19755,-4.655917 0.55251,-5.636088 0.22063,-18.010974 0.22063,-27.200269 0,-3.06308 0,-4.900925 -4.86006,-4.778401 -5.96451,0.122526 -56.00153,0.122526 -58.431615,0.367575 -3.313708,0.367568 -5.633308,-0.367575 -5.522851,5.513536 z"
     fill="#d3d2c2"
     id="path337"
     style="stroke-width:0.657984" />
  <path
     d="m 153.2347,46.960342 c -2.54065,0.367616 -5.52256,-0.122469 -9.60973,0.367616 -0.11051,3.063052 -2.31959,3.063122 -2.31959,3.063122 h -12.03984 v 3.675676 c 9.05749,0.245078 19.32974,0 19.55099,-0.122539 0.55251,0 3.53441,0.857633 4.19755,-4.655917 0.11,-0.490085 0.22062,-1.102709 0.22062,-2.327958 z"
     fill="#ed1c24"
     id="path339"
     style="stroke-width:0.657984" />
  <path
     d="m 90.605137,58.600134 c -4.08691,-0.122538 -5.522852,-0.612624 -5.522852,4.533379 0.441824,6.371251 0.44183,71.431127 0.44183,71.431127 0,0 -0.441837,4.28852 3.092792,4.28852 4.528716,0 60.640873,0.24521 60.640873,0.24521 0,0 3.31379,0.98017 3.42442,-4.41111 0.11,-5.3906 -1.21502,-73.39162 -1.21502,-73.39162 0,0 0.22063,-1.960342 -2.43002,-2.082881 -2.65122,-0.122539 -56.222853,-0.367617 -58.432023,-0.612625 z"
     fill="#d3d2c2"
     id="path341"
     style="stroke-width:0.657984" />
  <path
     d="m 149.03653,59.212759 c -0.99376,0 -9.49911,-0.122539 -19.66111,-0.245078 v 4.41084 c 0,0 6.95877,0 9.27836,0 1.43596,0 3.31373,-0.12247 3.53467,4.28837 2.20909,0.122539 6.2962,0.122539 9.49936,-0.245078 -0.11063,-3.920754 -0.11063,-6.248712 -0.11063,-6.248712 0,0 0.11063,-1.837873 -2.54065,-1.960342 z"
     fill="#000000"
     id="path343"
     style="stroke-width:0.657984" />
  <path
     d="m 94.581266,23.19081 c 0.220877,-1.470257 -1.215077,-1.347717 -1.877772,0.122539 -1.215077,2.818044 -0.22094,6.616259 -2.209158,9.066757"
     stroke="#ffffff"
     stroke-width="0.227663"
     stroke-miterlimit="10"
     stroke-linecap="round"
     stroke-linejoin="round"
     id="path345" />
  <path
     d="m 89.942567,27.724189 c 0.994093,-0.245008 2.540487,-0.490086 3.645062,-0.612625"
     stroke="#ffffff"
     stroke-width="0.227663"
     stroke-miterlimit="10"
     stroke-linecap="round"
     stroke-linejoin="round"
     id="path347" />
  <path
     d="m 97.895305,27.60158 c -0.662758,-0.245008 -1.988274,1.225249 -1.325516,1.592796 1.325516,0.735163 2.209151,-3.675677 2.098712,-4.2883 -0.441818,1.470256 -0.994136,4.778455 0.331379,4.2883"
     stroke="#ffffff"
     stroke-width="0.227663"
     stroke-miterlimit="10"
     stroke-linecap="round"
     stroke-linejoin="round"
     id="path349" />
  <path
     d="m 101.20891,28.091666 c -0.66276,-0.490086 -2.209155,0 -1.988215,0.857702 0.110439,0.490085 0.883635,0.367547 1.546395,-0.857702 -0.773199,1.347787 0.11044,5.881166 -0.994139,5.146002 -1.877772,-2.327958 3.092789,-3.308129 2.982349,-5.881165 -1.43595,0.490155 -0.88364,2.818113 0.7732,2.08295"
     stroke="#ffffff"
     stroke-width="0.227663"
     stroke-miterlimit="10"
     stroke-linecap="round"
     stroke-linejoin="round"
     id="path351" />
  <path
     d="m 93.697443,27.111564 c 0,0.612625 -0.220878,2.082881 -0.220878,2.20542"
     stroke="#ffffff"
     stroke-width="0.227663"
     stroke-miterlimit="10"
     stroke-linecap="round"
     stroke-linejoin="round"
     id="path353" />
  <path
     d="m 94.912457,27.356503 c -0.662695,0 -1.215014,0.612694 -1.435892,1.347787"
     stroke="#ffffff"
     stroke-width="0.227663"
     stroke-miterlimit="10"
     stroke-linecap="round"
     stroke-linejoin="round"
     id="path355" />
  <path
     d="m 95.575527,27.356503 c -0.110438,0.612625 -0.773196,2.327958 0.331379,1.837873"
     stroke="#ffffff"
     stroke-width="0.227663"
     stroke-miterlimit="10"
     stroke-linecap="round"
     stroke-linejoin="round"
     id="path357" />
</svg>
