<?xml version="1.0" encoding="utf-8"?>
<!-- Generator: Adobe Illustrator 26.2.1, SVG Export Plug-In . SVG Version: 6.00 Build 0)  -->
<svg version="1.1" id="Layer_1" xmlns="http://www.w3.org/2000/svg" xmlns:xlink="http://www.w3.org/1999/xlink" x="0px" y="0px"
	 viewBox="0 0 254.2 197" style="enable-background:new 0 0 254.2 197;" xml:space="preserve">
<style type="text/css">
	.st0{fill:#DDCEB1;}
	.st1{fill:#BA2026;}
	.st2{fill:#231F20;}
	.st3{fill:#7A411B;}
	.st4{fill:#FFFFFF;}
	.st5{fill:none;stroke:#231F20;stroke-width:0.4589;stroke-linecap:round;}
	.st6{fill:#A9B750;}
	.st7{fill:#918A3E;}
	.st8{fill:none;stroke:#A9B750;stroke-width:0.4977;stroke-linecap:round;stroke-dasharray:0.9954,1.9908;}
	.st9{fill:#A35625;}
	.st10{fill:#F59FBB;}
	.st11{fill:none;stroke:#E9729E;stroke-width:0.453;stroke-linecap:round;stroke-miterlimit:10;}
	.st12{fill:none;stroke:#231F20;stroke-width:0.453;stroke-linecap:round;}
</style>
<path class="st0" d="M157.6,91.2c0,0-2.4-6.4-3.4-6c-1.7,0.8,0,2.9,0,2.9s-3.8-3.3-4.5-2.2c-0.9,1.3,3,4,3,4s-4.1-2.7-4.9-1.7
	c-1,1.4,3.4,3.7,3.4,3.7s-4-1.8-4.4-0.8c-0.5,1.4,5.3,4.4,7.1,4.6c1.8,0.2,1.2-0.5,1.2-0.5L157.6,91.2z"/>
<path class="st0" d="M174.3,68.2c0,0-2-6.6-3-6.3c-1.7,0.7-0.2,2.9-0.2,2.9s-3.7-3.5-4.3-2.6c-0.9,1.3,2.7,4.1,2.7,4.1s-4-3-4.7-2
	c-1,1.3,3.2,3.9,3.2,3.9s-3.9-2-4.3-1.1c-0.6,1.3,5,4.8,6.8,5c1.8,0.3,1.2-0.4,1.2-0.4L174.3,68.2z"/>
<path class="st1" d="M201.5,91.9C181.2,86.7,169,72.2,169,72.2l5.5-4.6c0,0,13.4,12.1,29,14.1C221.2,79.7,203.9,96.7,201.5,91.9z"/>
<path class="st2" d="M215.4,179.4c0,0-4.7,2-6.9,2.7c-2.3,0.8-3.6,1.8-4,3.4c-0.4,1.6-0.1,2.4,2.9,2.5c2.9,0,10.2-0.3,11.9-1.2
	c1.7-1,1-6.4,1-6.4L215.4,179.4z"/>
<path class="st2" d="M239.3,175.6c0,0-2.3,1.7-4.3,3c-2,1.3-4.5,1.5-4.8,5c-0.2,1.6,2.9,1.6,5.8,0.9c2.9-0.7,7.4-1.5,8.7-2.9
	c1.4-1.3-1.2-6.5-1.2-6.5L239.3,175.6z"/>
<path class="st3" d="M239.2,157.2c-0.6,4.6,4.9,18.2,4.9,18.2l-6.9,2.8c0,0-6.9-7.3-8.4-14.8c-1.1-5.9-2-10.7-2.7-11
	c-2.7,1.8-5.8,8.4-6.2,13.2c-0.4,4.5,0.8,16,0.8,16l-8.6-0.7c0,0-2.9-10-2.5-19.8c0.5-9.7-1-19.6-1-19.6s10.7-1.6,15.7-2.6
	c8.4-1.7,15.3-9.9,15.3-9.9S241.1,141.3,239.2,157.2z"/>
<path class="st0" d="M192.6,55.5c-2.7,0.7-7.5,3.9-10,7.4c-2.6,3.5-3.6,6.7-5.2,8.3c-2.5,2.6-8,6.8-6.7,10.7c1.2,3.7,5.1,2.2,6,2.2
	c0.4,7,6.1,14.1,8.9,15.7c2.9,1.6,10.1,1.7,15.6-0.5c6.2-2.5,10.8-5,13.1-9.1c2.3-4.1,2.4-5.6,2.4-5.6s3.1,0.7,3.8-2.4
	c0.7-3.1-3.6-3.8-3.6-3.8s0.9-5.5-0.1-10.1c-1-4.7-6.5-9.4-10.2-11.4C203,54.6,195.9,54.6,192.6,55.5z"/>
<path class="st4" d="M186,67.7c2.5-0.3,4.1,1.2,4.4,4c0.3,2.7-0.9,4.9-3.4,5.3c-2.6,0.3-4.7-1.4-5-4.1C181.6,70.1,183.4,68,186,67.7
	z"/>
<path class="st2" d="M184.5,73.5c0.6-0.1,0.8,0.3,0.9,0.8c0.1,0.6-0.2,1-0.7,1c-0.6,0.1-1-0.3-1.1-0.8C183.6,74,184,73.6,184.5,73.5
	z"/>
<path class="st3" d="M209.7,65.8c0,0-3,8-1.6,9.6c1.3,1.6,2.9-3.2,2.9-3.2s-2.3,9.6-0.2,8.6c2.1-0.9,2.5-6.4,2.5-6.4s-1,7.4,0.8,5.9
	c1.8-1.4,2.4-5.5,2.4-5.5c-0.3,5.5,0.7,6,1.9,2.6c1.4-3.6-1.3-10.2-1.3-10.2s-3.6,0-4.8,0.4C211.1,68.1,209.7,65.8,209.7,65.8z"/>
<path class="st3" d="M221.4,70.9c0,0,3.1,9.2,0.3,8.7c-2.8-0.5-3.4-5.8-3.4-5.8l-0.5-3L221.4,70.9z"/>
<path class="st5" d="M186.4,90.2c-0.5,2.4-5.2,3-6.1,0.6"/>
<path class="st6" d="M187.8,64.4c0,0-9.6,4.6-14.6,0.9c-2.9-2.1,4.2-4.3,4.2-4.3s2,2.2,3.4,2.4C185.8,64.1,187.8,64.4,187.8,64.4z"
	/>
<path class="st7" d="M178.2,62.8c4.3,1,3.5,0.4,17.8,2.9c8.1,1.4,25.8,6.2,25.8,6.2s2.6-13-0.9-17.8c-3.4-4.4-7.3-7-23-5.4
	c-12.3,1.3-21.3,7-22.8,10.2C173.2,62.6,176.7,62.5,178.2,62.8z"/>
<path class="st6" d="M204.7,48.5c-0.1,1-1.1,0.9-2.4,0.9c-1.3,0-2.5-0.1-2.4-1.2c0.1-1,1.1-1.8,2.5-1.7
	C203.7,46.7,204.8,47.5,204.7,48.5z"/>
<path class="st8" d="M182.4,62.9c0,0,11.6-5.5,19.6-5.5c14.1,0,18.7,4.7,18.7,4.7"/>
<path class="st3" d="M192.3,97.4c0.6-0.1,0.5-0.9-0.1-0.8C191.7,96.6,191.8,97.4,192.3,97.4z"/>
<path class="st3" d="M194.3,94.3c0.6-0.1,0.5-0.9-0.1-0.8C193.6,93.5,193.7,94.3,194.3,94.3z"/>
<path class="st3" d="M197.1,97.2c0.6-0.1,0.5-0.9-0.1-0.9C196.4,96.4,196.5,97.2,197.1,97.2z"/>
<path class="st3" d="M198.6,92.2c0.6-0.1,0.5-0.9-0.1-0.8C198,91.3,198.1,92.3,198.6,92.2z"/>
<path class="st3" d="M200.9,89.2c0.6-0.1,0.5-0.9-0.1-0.9C200.2,88.4,200.3,89.2,200.9,89.2z"/>
<path class="st3" d="M203.1,93.1c0.6-0.1,0.5-0.9-0.1-0.9S202.5,93.2,203.1,93.1z"/>
<path class="st3" d="M207.9,92.1c0.6-0.1,0.5-0.9-0.1-0.9C207.2,91.2,207.3,92.1,207.9,92.1z"/>
<path class="st3" d="M206.2,88.4c0.6-0.1,0.5-0.9-0.1-0.8C205.6,87.7,205.7,88.5,206.2,88.4z"/>
<path class="st3" d="M208.2,84.7c0.6-0.1,0.5-0.9-0.1-0.8C207.5,83.8,207.6,84.7,208.2,84.7z"/>
<path class="st3" d="M209.9,87.5c0.6-0.1,0.5-0.9-0.1-0.8S209.3,87.6,209.9,87.5z"/>
<path class="st3" d="M213.1,83.3c0.6-0.1,0.5-0.9-0.1-0.8C212.4,82.4,212.5,83.4,213.1,83.3z"/>
<path class="st3" d="M189.4,94.3c0.6-0.1,0.5-0.9-0.1-0.9C188.7,93.4,188.8,94.3,189.4,94.3z"/>
<path class="st3" d="M188.6,98.3c0.6-0.1,0.5-0.9-0.1-0.8S188.1,98.3,188.6,98.3z"/>
<path class="st3" d="M185.2,95.8c0.6-0.1,0.5-0.9-0.1-0.8C184.5,95,184.6,95.9,185.2,95.8z"/>
<path class="st3" d="M202,97.1c0.6-0.1,0.5-0.9-0.1-0.8C201.3,96.3,201.4,97.1,202,97.1z"/>
<path class="st3" d="M211.8,90.7c0.6-0.1,0.5-0.9-0.1-0.8C211.1,89.8,211.2,90.7,211.8,90.7z"/>
<path class="st3" d="M214.3,86.2c0.6-0.1,0.5-0.9-0.1-0.8S213.7,86.3,214.3,86.2z"/>
<path class="st1" d="M213.4,91.4c0,0,5.5-0.2,18.5,21.6c6.3,10.6,7.7,17.8,7.7,17.8s-5.7,6.3-14.2,9c-3.9,1.2-16.2,3.6-16.2,3.6
	c-1.5-0.9-6.6-6.7-12.5-18c-5.1-9.8-3-10-6.1-14.3c-20.9-1.7-37.3-15.1-37.3-15.1l4.6-5.4c0,0,17.3,10.2,33,9.5
	C206.7,98.2,213.4,91.4,213.4,91.4z"/>
<path class="st3" d="M94.6,86.6c0,0-1.2-6.2-3.3-10.4c-2.1-4.3-5.6-8.5-8.7-7.5c-2.7,0.9-1.3,3,1.8,6c2.6,2.5,3.8,3.3,5.3,6.6
	c1.5,3.3,2,5.8,2,5.8L94.6,86.6z"/>
<path class="st4" d="M109.1,82.4c2,2.3,1.3,5.1-0.9,6.3c-2.2,1.2-4.6,1.1-6.4-1.4c-1.4-1.8-1.4-5.1,0.8-6.1
	C104.9,80,107.7,80.6,109.1,82.4z"/>
<path class="st3" d="M102.2,115.7c2.4,0.5,6.1-0.5,6.1-0.5s6.1-1.2,7.4,1.8c0.8,1.8-3.5,1.2-3.5,1.2s3.6,1.3,2.1,3
	c-1.5,1.7-3.5,0.1-3.5,0.1s1.3,2.8-1.4,2.7c-2.7-0.1-3.5-3-3.5-3s-2.9-1.5-7.7-1.6c-5,0-13.2,1.5-13.2,1.5l5.4-5.6
	C90.5,115.3,98.9,115,102.2,115.7z"/>
<path class="st3" d="M45.8,129.1c-8.6,2.8-13.5,2.3-16,2.6c-3.7,0.5-7.4,1.9-7.8-1.6c-0.4-3.5,3.8-0.2,3.8-0.2s-2.8-2-1.6-4
	c1.5-2.3,3.3,1.5,3.3,1.5s-1.6-4.1,1.1-4c1.6,0,2.3,3.2,2.3,3.2s3.9,0.7,9.3-1.8c4.6-2,8.9-9.7,8.9-9.7l11.8,5.5
	C60.9,120.7,50.2,127.7,45.8,129.1z"/>
<path class="st9" d="M79.9,90.8c0,0,8.7-10.5,21.6-7.1c22.7,5.9,31.7,16.7,30,20.5c-1.4,3.2-13.4,2.8-26,4.7
	c-6.2,5.5-12.5,7.9-16.6,7.3c-11.8,1.9-14.2-21.7-14.2-21.7L79.9,90.8z"/>
<path class="st9" d="M79.9,90.8c0,0-9-2.6-21.5-0.2c-12.5,2.4-23,9.1-23.7,19.3c-0.7,10.3,3.2,23.1,8.1,25.6c9.6,5.1,25,3,36.4-2.4
	c14.5-6.8,15.1-23.8,15.1-23.8L79.9,90.8z"/>
<path class="st9" d="M89.5,88.1c0,0-4.7-8.6-10.8-10.5c-5.3-1.7-13-2.1-11.3,1.3c1.8,3.5,7.6,2.2,12.2,4.9c4.6,2.6,8,6.1,8,6.1
	L89.5,88.1z"/>
<path class="st9" d="M100,125.9c2.2,1.2,6,1.3,6,1.3s6.3,0.7,6.5,3.9c0.2,2-3.7,0.1-3.7,0.1s3.1,2.3,1.1,3.5c-2,1.2-3.4-0.9-3.4-0.9
	s0.5,3.1-2.1,2.2c-2.5-0.9-2.5-4-2.5-4s-2.3-2.3-6.9-3.7c-4.8-1.6-13-2.5-13-2.5l6.9-3.7C88.9,122.2,97,124.4,100,125.9z"/>
<path class="st9" d="M40.6,142.1c-8.7,2.4-13.5,2.3-16,2.6c-3.7,0.5-7.4,1.9-7.8-1.6c-0.4-3.5,3.8-0.2,3.8-0.2s-2.8-2-1.6-4
	c1.5-2.3,3.3,1.5,3.3,1.5s-1.6-3.9,1.1-4c1.6-0.1,2.3,3.2,2.3,3.2s3.1,0.7,9.3-1.7c4.7-1.8,8.8-9.7,8.8-9.7l11.8,5.5
	C55.7,133.7,50.2,139.4,40.6,142.1z"/>
<path class="st9" d="M37.4,106.1c0,0-10,2.2-17.3-0.3c-4.3-1.5-6.4-7-5.8-4.4c0.6,2.6,2.5,6.2,7.9,8.7c6.8,3.2,14.5,1.7,14.5,1.7
	L37.4,106.1z"/>
<path class="st4" d="M100.2,90.3c2.1,2.3,1.6,5.3-0.5,6.6c-2.2,1.3-4.7,1.5-6.6-0.8c-1.4-1.8-1.5-5.5,0.7-6.6
	C95.8,88.1,98.6,88.6,100.2,90.3z"/>
<path class="st2" d="M99.9,92.2c0.4,0.4,0.3,0.9,0,1.2c-0.4,0.2-0.8,0.3-1.2-0.2c-0.3-0.3-0.2-1,0.1-1.2
	C99,91.7,99.6,91.8,99.9,92.2z"/>
<path class="st2" d="M108,83.3c0.4,0.4,0.3,0.9-0.1,1.1c-0.4,0.2-0.8,0.3-1.2-0.2c-0.2-0.3-0.3-0.9,0.1-1.1
	C107.3,82.9,107.7,82.9,108,83.3z"/>
<path class="st2" d="M121.3,107.2c0,0,0-3.5,1.1-7.3c0.9-3.2,2.5-6,2.5-6s12.6,8.5,7.9,11.1C128.4,107.5,121.3,107.2,121.3,107.2z"
	/>
<path class="st10" d="M92.8,105.9c-1.7,0.4-6,1.5-3.1,3.9c1.5,1.2,6-2.4,6-2.4L92.8,105.9z"/>
<path class="st11" d="M91.5,107.9c1-0.6,1.8-0.9,2.4-1.1"/>
<path class="st12" d="M91.7,103.9c0,0,0,2.2,2.6,3.1c1.4,0.5,3-0.4,3-0.4"/>
</svg>
