<?xml version="1.0" encoding="UTF-8" standalone="no"?>
<!-- Generator: Adobe Illustrator 26.5.0, SVG Export Plug-In . SVG Version: 6.00 Build 0)  -->

<svg
   version="1.1"
   id="Capa_1"
   x="0px"
   y="0px"
   viewBox="0 0 250 150"
   xml:space="preserve"
   sodipodi:docname="svgenriqueta.svg"
   width="250"
   height="150"
   inkscape:version="1.2.1 (9c6d41e410, 2022-07-14)"
   xmlns:inkscape="http://www.inkscape.org/namespaces/inkscape"
   xmlns:sodipodi="http://sodipodi.sourceforge.net/DTD/sodipodi-0.dtd"
   xmlns="http://www.w3.org/2000/svg"
   xmlns:svg="http://www.w3.org/2000/svg"><defs
   id="defs796">
	
	
	
	
	
	
	
	
	
	
	
	
	
	
	
	
	
	
	
	
	
	
	
	
	
	
	
	
</defs><sodipodi:namedview
   id="namedview794"
   pagecolor="#ffffff"
   bordercolor="#000000"
   borderopacity="0.25"
   inkscape:showpageshadow="2"
   inkscape:pageopacity="0.0"
   inkscape:pagecheckerboard="0"
   inkscape:deskcolor="#d1d1d1"
   showgrid="false"
   inkscape:zoom="2.4927184"
   inkscape:cx="15.444985"
   inkscape:cy="125.96689"
   inkscape:window-width="3840"
   inkscape:window-height="2066"
   inkscape:window-x="-11"
   inkscape:window-y="-11"
   inkscape:window-maximized="1"
   inkscape:current-layer="Capa_1" />
<style
   type="text/css"
   id="style675">
	.st0{fill-rule:evenodd;clip-rule:evenodd;fill:#E48225;}
	.st1{fill-rule:evenodd;clip-rule:evenodd;fill:#F7941E;}
	.st2{fill:#9E9980;}
	.st3{fill:#AE7DAF;}
	.st4{fill:#DDCEB1;}
	.st5{fill:none;stroke:#231F20;stroke-width:0.723;stroke-linecap:round;}
	.st6{fill-rule:evenodd;clip-rule:evenodd;fill:#FFFFFF;}
	.st7{fill-rule:evenodd;clip-rule:evenodd;fill:#231F20;}
	.st8{fill:none;stroke:#ED1C24;stroke-width:1.303;stroke-linecap:round;stroke-linejoin:round;}
	.st9{fill:#ED1C24;}
	.st10{fill:#F59FBB;}
	.st11{fill:#231F20;}
	.st12{fill:#FFFFFF;}
	.st13{fill-rule:evenodd;clip-rule:evenodd;fill:#7A411B;}
</style>


<rect
   style="fill:#0e6a60;fill-opacity:1"
   id="rect2881"
   width="250.73029"
   height="153.24635"
   x="8.9442947e-06"
   y="0.80233574" /><path
   class="st0"
   d="m 227.97254,143.89856 v -8.42049 h -7.77435 v -7.96119 h -7.54736 l -1.64567,-30.977213 -35.41018,-16.126514 -1.07819,124.572247 60.83287,-4.7461 v -56.23867 z m -44.54646,-41.89833 c 0,0.6124 -2.04289,-0.7655 -2.04289,-0.7655 0,0 -0.79446,-10.614923 0,-13.268653 0.17024,-0.56136 2.04289,0.7655 2.04289,0.7655 0,0 0.0567,8.42049 0,13.268653 z m 5.84495,2.7558 c 0,0.6124 -2.04289,-0.7655 -2.04289,-0.7655 0,0 -0.79446,-10.614923 0,-13.268653 0.17024,-0.56137 2.04289,0.7655 2.04289,0.7655 0,0 0.0567,8.36946 0,13.268653 z m 6.07194,2.55167 c 0,0.61239 -2.0429,-0.7655 -2.0429,-0.7655 0,0 -0.79446,-10.614933 0,-13.268663 0.17024,-0.56136 2.0429,0.7655 2.0429,0.7655 0,0 0.0567,8.369463 0,13.268663 z m 6.29892,2.55166 c 0,0.6124 -2.04289,-0.71447 -2.04289,-0.71447 0,0 -0.79446,-10.614923 0,-13.268653 0.17024,-0.56137 2.04289,0.71447 2.04289,0.71447 0,0 0.0568,8.369453 0,13.268653 z m 5.61796,2.09236 c 0,0.6124 -2.04289,-0.7655 -2.04289,-0.7655 0,0 -0.79446,-10.61492 0,-13.268653 0.17024,-0.56136 2.04289,0.7655 2.04289,0.7655 0,0 0,8.369463 0,13.268653 z"
   id="path677"
   style="stroke-width:0.538144" /><path
   class="st9"
   d="m 82.359536,82.760683 c 0.624218,0 1.191689,-0.255167 1.305183,-0.510333 0.113494,-0.3062 -0.170241,-0.357233 -0.964701,-0.561366 -0.56747,-0.1531 -1.021447,-0.204133 -1.305182,0.510333 -0.170242,0.459299 0.340482,0.561366 0.9647,0.561366 z"
   id="path717"
   style="stroke-width:0.538144" /><path
   class="st9"
   d="m 85.026649,82.760683 c -0.624218,0 -1.191689,-0.255167 -1.248436,-0.510333 -0.113494,-0.3062 0.170241,-0.357233 0.9647,-0.561366 0.624218,-0.1531 1.021448,-0.204133 1.305183,0.510333 0.113494,0.459299 -0.39723,0.561366 -1.021447,0.561366 z"
   id="path719"
   style="stroke-width:0.538144" /><path
   id="path679"
   style="stroke-width:0.538144"
   class="st1"
   d="m 83.411071,80.045219 c -23.72021,0 -82.56640662,1.17383 -82.56640662,1.17383 0,0 -2.66796798,75.938121 -2.66796798,95.994141 0,32.09985 2.66796798,27.35352 2.66796798,27.35352 H 176.24896 c 0,0 1.36328,5.20487 1.36328,-20.87305 0,-26.02688 -1.41992,-102.474611 -1.41992,-102.474611 -72.63605,-1.17377 -72.63611,-1.17383 -92.781249,-1.17383 z m -6.78125,4.25391 c 0.276639,0.02631 0.482315,0.09599 0.539062,0.23633 1.021444,2.4496 0,13.26953 0,13.26953 h -2.837891 v -13.26953 c 0,0 1.468903,-0.31527 2.298829,-0.23633 z m 32.402339,0 c 0.82993,-0.07894 2.29883,0.23633 2.29883,0.23633 v 13.26953 h -2.83789 c 0,0 -1.07819,-10.76893 0,-13.26953 0.0568,-0.14034 0.26242,-0.21002 0.53906,-0.23633 z m 11.23633,0 c 0.82993,-0.07894 2.29883,0.23633 2.29883,0.23633 0,0 0.0567,8.37033 0,13.26953 0,0.61239 -2.83789,0 -2.83789,0 0,0 -1.07819,-10.61583 0,-13.26953 0.0568,-0.14034 0.26242,-0.21002 0.53906,-0.23633 z m 34.72852,0 c 0.82993,-0.07894 2.29883,0.23633 2.29883,0.23633 v 13.26953 h -2.83789 c 0,0 -1.07819,-10.76893 0,-13.26953 0.0567,-0.14034 0.26242,-0.21002 0.53906,-0.23633 z m 11.17969,0 c 0.8299,-0.07894 2.29882,0.23633 2.29882,0.23633 0,0 0.0567,8.37033 0,13.26953 0,0.61239 -2.83789,0 -2.83789,0 0,0 -1.0782,-10.61583 0,-13.26953 0.0567,-0.14034 0.26242,-0.21002 0.53907,-0.23633 z m -125.552739,0.23633 h 2.837891 v 13.26953 c 0,0 -2.610903,0.56136 -2.837891,0 -1.078192,-2.4496 0,-13.26953 0,-13.26953 z m 44.886719,0 h 2.83789 v 13.26953 c 0,0 -2.6109,0.56136 -2.83789,0 -1.13494,-2.95993 0,-13.26953 0,-13.26953 z m 11.74609,0 h 2.83789 c 0,0 1.13494,10.3096 0,13.26953 -0.22699,0.56136 -2.83789,0 -2.83789,0 z m 34.21875,0 h 2.83789 v 13.26953 c 0,0 -2.6109,0.56136 -2.83789,0 -1.13494,-2.95993 0,-13.26953 0,-13.26953 z m 11.74805,0 h 2.83594 c 0,0 1.13494,10.3096 0,13.26953 -0.22699,0.56136 -2.83594,0 -2.83594,0 z m -112.757812,0.10351 h 2.837891 v 13.26758 c 0,0 -2.610903,0.56137 -2.837891,0 -1.134939,-2.95993 0,-13.26758 0,-13.26758 z m -10.128906,0.01758 c 0.276642,0.02632 0.482315,0.09599 0.539062,0.23633 1.134939,2.95993 0,13.26953 0,13.26953 h -2.83789 v -13.26953 c 0,0 1.468905,-0.31527 2.298828,-0.23633 z m 34.484375,0.13086 c 0.266002,0.02871 0.443359,0.10667 0.443359,0.25977 0.05675,4.89917 0,13.26757 0,13.26757 0,0 -2.610905,0.56136 -2.83789,0 -1.078192,-2.6537 0,-13.26757 0,-13.26757 0,0 1.596528,-0.34589 2.394531,-0.25977 z m 11.140625,0.02148 c 0.276642,0.02632 0.482315,0.09795 0.539062,0.23829 1.078192,2.65371 0,13.26757 0,13.26757 0,0 -2.83789,0.6124 -2.83789,0 -0.05675,-4.89917 0,-13.26757 0,-13.26757 0,0 1.468905,-0.31721 2.298828,-0.23829 z m -58.1367186,0.79883 h 2.8359376 c 0,0 1.134936,10.30963 0,13.26953 -0.226988,0.56137 -2.8359376,0 -2.8359376,0 z" /><g
   id="g5168"><g
     id="g5136"><path
       class="st2"
       d="m 100.97258,39.688593 c 0,-2.857864 2.8941,-5.154362 6.46916,-5.154362 3.57507,0 6.46917,2.296498 6.46917,5.154362 0,2.857863 -2.8941,5.154361 -6.46917,5.154361 -3.57506,0 -6.46916,-2.296498 -6.46916,-5.154361 z"
       id="path681"
       style="stroke-width:0.538144" /><path
       class="st2"
       d="m 78.103505,8.3031242 c 0,0 0.9647,-5.4095279 5.561214,-5.2564281 4.539766,0.1530999 6.752902,5.2564281 6.752902,5.2564281 0,0 5.674708,-5.0012616 11.235919,-2.8068305 5.56122,2.1944311 2.55362,7.3487923 2.55362,7.3487923 0,0 8.05809,-0.102066 10.32797,3.980596 2.26988,4.082663 -0.56747,7.757059 -0.56747,7.757059 0,0 4.59651,2.041331 5.22073,5.868828 0.62422,3.827496 -4.42627,6.583293 -12.59785,5.409527 -8.114834,-1.173765 -11.065682,3.215097 -11.065682,3.215097 l -35.466924,5.001262 c 0,0 -8.228326,1.479965 -10.498209,-1.735132 -2.269883,-3.215096 -0.170241,-4.337829 -0.170241,-4.337829 0,0 -3.802055,-0.714466 -5.05049,-5.052295 -1.532171,-5.358494 5.390972,-5.715727 5.390972,-5.715727 0,0 -5.561214,-5.715728 -2.099642,-8.879791 3.404825,-3.164064 8.171579,-1.122732 8.171579,-1.122732 0,0 -2.213136,-7.2467265 3.461572,-8.5735918 5.731455,-1.3268654 6.866397,2.7047638 6.866397,2.7047638 0,0 -0.170242,-6.1239937 4.539766,-6.9915595 4.710007,-0.9185991 7.433867,3.9295627 7.433867,3.9295627 z"
       id="path683"
       style="stroke-width:0.538144" /><path
       class="st3"
       d="m 68.116019,58.519874 c 0,0 -5.05049,4.695062 -8.398567,8.114292 -3.348078,3.419229 -3.348078,4.490928 -3.348078,4.490928 l 8.398568,3.57233 2.667112,-3.674396 -2.894101,11.839721 39.212227,0.714466 -3.34807,-10.461823 2.95084,3.113031 7.54737,-4.082663 c 0,0 -6.01519,-6.583293 -8.73905,-8.675658 C 99.440406,61.326704 96.773294,58.62194 96.773294,58.62194 H 68.116019 Z"
       id="path685"
       style="stroke-width:0.538144" /><path
       class="st4"
       d="m 57.731304,33.411499 c 0,0 -1.418677,16.126517 5.390973,22.097411 6.582661,5.817794 16.910629,7.706026 25.195702,6.328127 8.114832,-1.377899 17.364611,-4.899195 19.123761,-16.994083 2.0429,-13.830019 -0.73771,-24.189776 -0.73771,-24.189776 0,0 -5.7882,-8.420491 -26.160401,-6.634326 -20.826177,1.786165 -22.812325,19.392647 -22.812325,19.392647 z"
       id="path687"
       style="stroke-width:0.538144" /><path
       class="st5"
       d="m 85.650866,38.412761 c 0,0 8.398568,2.194431 7.150132,4.899195 -1.9294,4.388862 -10.271221,1.071699 -10.271221,1.071699"
       id="path689" /><path
       class="st6"
       d="m 71.634338,26.368906 c -3.631813,-0.05103 -5.504466,2.245464 -5.561213,5.715728 -0.05675,3.521296 1.986147,6.07296 5.674707,6.123993 3.631813,0.05103 6.355673,-2.50063 6.41242,-5.970894 0.05675,-3.470263 -2.894101,-5.817794 -6.525914,-5.868827 z"
       id="path691"
       style="stroke-width:0.538144" /><path
       class="st7"
       d="m 73.847474,32.3398 c -0.737712,0 -1.134941,0.408266 -1.134941,1.122732 0,0.663433 0.397229,1.173766 1.191688,1.224799 0.794459,0 1.305183,-0.510333 1.36193,-1.173765 C 75.209404,32.7991 74.585186,32.3398 73.847474,32.3398 Z"
       id="path693"
       style="stroke-width:0.538144" /><path
       class="st6"
       d="m 97.964982,26.368906 c -3.631813,-0.05103 -5.504466,2.245464 -5.561213,5.715728 -0.05675,3.521296 1.986148,6.07296 5.674708,6.123993 3.631813,0.05103 6.355673,-2.50063 6.412423,-5.970894 0,-3.470263 -2.8941,-5.817794 -6.525918,-5.868827 z"
       id="path695"
       style="stroke-width:0.538144" /><path
       class="st7"
       d="m 100.12137,32.3398 c -0.794458,0 -1.13494,0.408266 -1.13494,1.122732 0,0.663433 0.397229,1.173766 1.19169,1.224799 0.79446,0 1.30518,-0.510333 1.36193,-1.173765 C 101.4833,32.7991 100.91583,32.3398 100.12137,32.3398 Z"
       id="path697"
       style="stroke-width:0.538144" /><path
       class="st2"
       d="m 77.649528,13.763685 c 0,0 6.696156,8.573592 11.916887,7.603959 3.972295,-0.714466 3.802054,-3.368196 3.802054,-3.368196 0,0 3.915548,7.654992 8.625551,7.654992 1.92941,0 2.44013,-2.602697 2.44013,-2.602697 0,0 1.87265,6.634326 5.27748,6.37916 3.34808,-0.255166 0.51072,-10.053557 0.51072,-10.053557 0,0 -8.05808,-4.746095 -9.53351,-5.562627 -1.475422,-0.816533 -12.087125,-2.398565 -12.484355,-2.398565 -0.453977,-0.05103 -10.554957,2.347531 -10.554957,2.347531 z"
       id="path699"
       style="stroke-width:0.538144" /><path
       class="st2"
       d="m 79.635676,14.274018 c 0,0 -1.021447,8.675658 -4.710007,8.267392 -3.68856,-0.408266 -3.68856,-3.776463 -3.68856,-3.776463 0,0 -1.645666,6.83846 -5.163984,7.246726 -3.518319,0.408266 -3.291331,-2.296498 -3.291331,-2.296498 0,0 -0.283735,8.267392 -4.426272,9.849424 -4.08579,1.582032 -2.667113,-4.184729 -2.667113,-4.184729 l 2.950848,-8.114292 9.079533,-6.481227 9.079532,-2.551664 h 11.179175 z"
       id="path701"
       style="stroke-width:0.538144" /><path
       class="st8"
       d="m 60.114681,30.196402 21.109913,-0.612399 c 0,0 -0.680965,9.134957 -9.647003,8.828758 -8.966038,-0.255167 -11.46291,-8.216359 -11.46291,-8.216359 z"
       id="path703" /><path
       class="st8"
       d="m 111.52753,29.124703 -21.109909,0.561366 c 0,0 1.305183,9.083925 10.214479,8.267392 8.90929,-0.816532 10.89543,-8.828758 10.89543,-8.828758 z"
       id="path705" /><path
       class="st8"
       d="m 81.224594,29.584003 c 0,0 2.099642,-0.663433 4.596514,-0.663433 2.496871,0 4.596513,0.765499 4.596513,0.765499"
       id="path707" /><path
       class="st9"
       d="m 77.082058,51.528314 c 1.418677,0.102067 3.404824,-0.969632 3.631813,-0.102067 0.283735,1.173766 0.226988,1.275833 0.226988,1.275833 0,0 1.815907,-1.735132 2.440124,-0.663433 0.567471,1.071699 1.475424,2.092364 1.475424,2.092364 0,0 -1.815906,3.929563 -4.993742,3.26613 -4.48302,-0.969632 -2.780607,-5.868827 -2.780607,-5.868827 z"
       id="path709"
       style="stroke-width:0.538144" /><path
       class="st5"
       d="m 76.571334,48.772517 c 0,0 -0.113494,3.164063 1.702412,4.592995 3.177837,2.551664 7.604109,0.357233 7.604109,0.357233"
       id="path711" /><path
       class="st4"
       d="m 83.83496,82.40345 c 0.453977,-0.918599 3.348078,-0.714466 5.220731,-1.530999 0.113494,-0.05103 0.226988,-0.102066 0.340483,-0.1531 4.312778,-2.551664 17.137616,-2.95993 17.137616,-2.95993 l -1.98615,-2.347531 5.78821,-3.11303 c 0,0 7.49061,7.144659 5.05049,9.747357 -2.49688,2.602697 -17.024128,1.939264 -17.024128,1.939264 0,0 2.780608,3.674397 1.305183,4.848162 -1.305183,1.020666 -3.177837,-1.428932 -4.256031,-3.11303 0.680965,1.326865 1.305183,3.26613 0,4.133696 -1.75916,1.122732 -3.518319,-2.653731 -4.142537,-4.337829 0.453977,1.326865 1.134942,3.980596 -0.737712,3.980596 -1.532171,0 -2.72386,-2.449598 -2.610365,-5.256428 -0.170242,0 -0.340483,0.05103 -0.510724,0.05103 -3.064342,0.1531 -4.029043,-0.969632 -3.575066,-1.888231 z"
       id="path713"
       style="stroke-width:0.538144" /><path
       class="st4"
       d="m 83.551225,82.40345 c -0.453977,-0.918599 -3.348078,-0.714466 -5.220732,-1.530999 -0.113494,-0.05103 -0.226988,-0.102066 -0.340482,-0.1531 -4.312778,-2.551664 -17.137618,-2.95993 -17.137618,-2.95993 l 2.950848,-3.57233 -6.128684,-2.602697 c 0,0 -8.171579,7.910159 -5.674708,10.512856 2.496872,2.602697 17.024124,1.939265 17.024124,1.939265 0,0 -2.780607,3.674396 -1.305183,4.848161 1.305183,1.020666 3.177836,-1.428931 4.199284,-3.11303 -0.680965,1.326866 -1.305183,3.26613 0,4.133696 1.759159,1.122732 3.518318,-2.653731 4.142536,-4.337829 -0.453976,1.326865 -1.134941,3.980596 0.737712,3.980596 1.532171,0 2.72386,-2.500631 2.610366,-5.256428 0.170241,0 0.340482,0.05103 0.510724,0.05103 3.121089,0.102067 4.029042,-1.020665 3.631813,-1.939264 z"
       id="path715"
       style="stroke-width:0.538144" /><path
       class="st10"
       d="m 71.237109,45.608453 c 0,2.500631 -2.326631,4.541962 -5.163984,4.541962 -2.837354,0 -5.163985,-2.041331 -5.163985,-4.541962 0,-2.50063 2.326631,-4.541962 5.163985,-4.541962 2.837353,0 5.163984,2.041332 5.163984,4.541962 z"
       id="path721"
       style="stroke-width:0.538144" /><path
       class="st10"
       d="m 106.64729,45.608453 c 0,2.500631 -2.32663,4.541962 -5.16399,4.541962 -2.837353,0 -5.163983,-2.041331 -5.163983,-4.541962 0,-2.50063 2.32663,-4.541962 5.163983,-4.541962 2.83736,0 5.16399,2.041332 5.16399,4.541962 z"
       id="path723"
       style="stroke-width:0.538144" /></g><path
     class="st9"
     d="m 99.270165,89.752242 c 0.340483,0.408267 0.964705,0.510333 1.361935,0.3062 0.39722,-0.255166 0.39722,-0.765499 0.0567,-1.173766 -0.34048,-0.408266 -0.851204,-0.612399 -1.361928,-0.306199 -0.56747,0.306199 -0.397229,0.765499 -0.05675,1.173765 z"
     id="path725"
     style="stroke-width:0.538144" /><path
     class="st9"
     d="m 94.503411,90.619808 c 0.56747,0.408266 1.418677,0.510333 1.986147,0.3062 0.567471,-0.255167 0.567471,-0.765499 0.05675,-1.173766 -0.510723,-0.408266 -1.305182,-0.612399 -1.986147,-0.306199 -0.794459,0.357233 -0.567471,0.765499 -0.05675,1.173765 z"
     id="path727"
     style="stroke-width:0.538144" /><path
     class="st9"
     d="m 90.304127,89.548109 c 0.283735,0.4593 0.851206,0.663433 1.305183,0.510333 0.453976,-0.1531 0.624218,-0.663433 0.340482,-1.122732 -0.283735,-0.4593 -0.737712,-0.714466 -1.305183,-0.510333 -0.624218,0.255166 -0.56747,0.714466 -0.340482,1.122732 z"
     id="path729"
     style="stroke-width:0.538144" /><path
     class="st9"
     d="m 70.102167,89.701209 c -0.567471,0.408266 -1.418677,0.561366 -1.986148,0.3062 -0.56747,-0.255167 -0.56747,-0.7655 -0.05675,-1.173766 0.510724,-0.408266 1.305183,-0.612399 1.986148,-0.3062 0.794459,0.357233 0.567471,0.816533 0.05675,1.173766 z"
     id="path731"
     style="stroke-width:0.538144" /><path
     class="st9"
     d="m 74.13121,90.619808 c -0.340483,0.408266 -0.964701,0.561366 -1.305183,0.3062 -0.39723,-0.255167 -0.39723,-0.765499 -0.05675,-1.173766 0.340482,-0.408266 0.851206,-0.612399 1.36193,-0.306199 0.510723,0.357233 0.397229,0.765499 0,1.173765 z"
     id="path733"
     style="stroke-width:0.538144" /><path
     class="st9"
     d="m 78.216999,89.548109 c -0.283735,0.4593 -0.851206,0.663433 -1.305183,0.510333 -0.453976,-0.1531 -0.624217,-0.663433 -0.340482,-1.122732 0.283735,-0.4593 0.737712,-0.714466 1.305183,-0.510333 0.624218,0.255166 0.567471,0.714466 0.340482,1.122732 z"
     id="path735"
     style="stroke-width:0.538144" /></g><g
   id="g791"
   transform="matrix(0.56747078,0,0,0.51033282,-5.4281937,-7.3130601)">
	<path
   class="st11"
   d="m 264,356 h -68.2 v 4 H 264 Z"
   id="path739" />
	<path
   class="st12"
   d="m 262.4,234.1 h -63.6 v 122.1 h 63.6 z"
   id="path741" />
	<path
   class="st13"
   d="m 232.8,356.3 h -3.4 c 0,0 -0.5,-36.7 -0.8,-56.5 C 228.4,285.4 229,235 229,235 h 2.8 z"
   id="path743" />
	<path
   class="st7"
   d="m 201.7,331.2 c 0,2.4 -2,4.3 -4.4,4.3 -2.4,0 -4.4,-1.9 -4.4,-4.3 0,-2.4 2,-4.3 4.4,-4.3 2.4,0 4.4,1.9 4.4,4.3 z"
   id="path745" />
	<path
   class="st7"
   d="m 195.8,358 h 3.1 v -54 l -2.9,-0.8 z"
   id="path747" />
	<path
   class="st7"
   d="m 223.4,331.2 c 0,2.4 -2,4.3 -4.4,4.3 -2.4,0 -4.4,-1.9 -4.4,-4.3 0,-2.4 2,-4.3 4.4,-4.3 2.4,0 4.4,1.9 4.4,4.3 z"
   id="path749" />
	<path
   class="st7"
   d="m 217.5,358 h 3.1 v -54 l -2.9,-0.8 z"
   id="path751" />
	<path
   class="st7"
   d="m 245.1,331.2 c 0,2.4 -2,4.3 -4.4,4.3 -2.4,0 -4.4,-1.9 -4.4,-4.3 0,-2.4 2,-4.3 4.4,-4.3 2.5,0 4.4,1.9 4.4,4.3 z"
   id="path753" />
	<path
   class="st7"
   d="m 239.2,358 h 3.1 v -54 l -2.9,-0.8 z"
   id="path755" />
	<path
   class="st11"
   d="m 264,301.2 h -68.2 v 4 H 264 Z"
   id="path757" />
	<path
   class="st7"
   d="m 266.8,331.2 c 0,2.4 -2,4.3 -4.4,4.3 -2.4,0 -4.4,-1.9 -4.4,-4.3 0,-2.4 2,-4.3 4.4,-4.3 2.5,0 4.4,1.9 4.4,4.3 z"
   id="path759" />
	<path
   class="st7"
   d="m 260.9,358 h 3.1 v -54 l -2.9,-0.8 z"
   id="path761" />
	<path
   class="st13"
   d="m 261,257.7 v 3 c 0,0 -3.6,0.1 -24,0.4 -14.9,0.2 -36.3,-0.4 -36.3,-0.4 v -2.8 z"
   id="path763" />
	<path
   class="st11"
   d="M 124.5,356 H 56.3 v 4 h 68.2 z"
   id="path765" />
	<path
   class="st12"
   d="M 122.9,234.1 H 59.4 V 358 H 123 V 234.1 Z"
   id="path767" />
	<path
   class="st13"
   d="m 93.2,356.3 h -3.4 c 0,0 -0.5,-36.7 -0.8,-56.5 -0.2,-14.4 0.4,-64.8 0.4,-64.8 h 2.8 z"
   id="path769" />
	<path
   class="st7"
   d="m 78,359.8 h 3.1 v -54 L 78.2,305 Z"
   id="path771" />
	<path
   class="st7"
   d="m 56,357.8 h 3.1 v -54 L 56.2,303 Z"
   id="path773" />
	<path
   class="st7"
   d="m 83.9,331.2 c 0,2.4 -2,4.3 -4.4,4.3 -2.4,0 -4.4,-1.9 -4.4,-4.3 0,-2.4 2,-4.3 4.4,-4.3 2.4,0 4.4,1.9 4.4,4.3 z"
   id="path775" />
	<path
   class="st7"
   d="m 60.8,333.3 c 0,2.4 -2,4.3 -4.4,4.3 -2.4,0 -4.4,-1.9 -4.4,-4.3 0,-2.4 2,-4.3 4.4,-4.3 2.4,0 4.4,1.9 4.4,4.3 z"
   id="path777" />
	<path
   class="st7"
   d="m 105.6,331.2 c 0,2.4 -2,4.3 -4.4,4.3 -2.4,0 -4.4,-1.9 -4.4,-4.3 0,-2.4 2,-4.3 4.4,-4.3 2.4,0 4.4,1.9 4.4,4.3 z"
   id="path779" />
	<path
   class="st7"
   d="m 99.7,358 h 3.1 v -54 l -2.9,-0.8 z"
   id="path781" />
	<path
   class="st11"
   d="M 124.5,301.2 H 56.3 v 4 h 68.2 z"
   id="path783" />
	<path
   class="st7"
   d="m 127.3,331.2 c 0,2.4 -2,4.3 -4.4,4.3 -2.4,0 -4.4,-1.9 -4.4,-4.3 0,-2.4 2,-4.3 4.4,-4.3 2.4,0 4.4,1.9 4.4,4.3 z"
   id="path785" />
	<path
   class="st7"
   d="m 121.4,358 h 3.1 v -54 l -2.9,-0.8 z"
   id="path787" />
	<path
   class="st13"
   d="m 121.5,257.7 v 3 c 0,0 -3.6,0.1 -24,0.4 -14.9,0.2 -36.3,-0.4 -36.3,-0.4 v -2.8 z"
   id="path789" />
</g>

</svg>
