<svg width="194" height="187" viewBox="0 0 194 187" fill="none" xmlns="http://www.w3.org/2000/svg">
<path d="M150.686 158.158C152.661 157.961 154.636 157.566 156.808 157.763C158.585 149.464 163.126 128.321 166.878 107.573C170.827 86.6281 171.617 65.09 171.814 43.7495C153.846 38.6119 91.2514 25.7681 46.2308 25.3729C45.441 25.3729 37.9376 54.6173 37.5427 59.5572C36.9503 65.4852 33.396 87.0233 32.8037 92.556C31.8164 100.262 31.8164 108.166 30.8291 115.872C29.6443 125.16 29.052 135.039 28.8545 144.524C57.6834 152.428 121.857 162.901 150.686 158.158Z" fill="#7F587E"/>
<path d="M30.6316 145.907C29.6444 142.351 26.0901 139.387 22.5359 141.165C20.5613 142.153 19.7714 143.536 20.3638 145.512C20.3638 145.71 20.5613 145.907 20.5613 146.105L11.0833 145.512C9.30613 145.315 -0.56679 144.327 0.0255855 147.291C0.617961 150.057 11.2807 149.069 13.2553 149.267C11.2807 152.033 6.93663 153.811 7.13409 157.763C10.2934 157.961 13.6502 155.787 16.8096 154.799C14.835 158.158 9.50358 162.703 11.4782 166.853C15.0324 165.272 17.4019 162.703 18.9816 158.949C18.1918 165.667 22.7333 171.2 24.313 162.11C24.7079 159.146 24.7079 153.416 24.1155 149.662C24.1155 149.662 24.1155 149.662 24.313 149.662C27.6698 151.44 31.8164 150.452 30.6316 145.907Z" fill="#F7941E"/>
<path d="M174.579 170.212C173.394 165.272 166.68 161.122 161.546 160.925C162.731 158.158 162.139 155.194 158.387 155.985C157.202 155.985 156.017 156.578 155.03 157.368C154.833 157.566 154.635 157.566 154.24 157.763L154.833 157.566C153.056 159.146 152.068 161.518 153.648 163.296C154.635 164.481 155.623 165.074 156.61 165.074C155.425 168.038 153.253 184.241 156.61 186.81C158.979 182.463 160.164 177.128 160.362 171.793C161.349 173.571 164.113 179.499 166.088 176.733C167.273 174.954 164.113 169.619 163.916 167.841C166.878 170.409 177.145 180.289 174.579 170.212Z" fill="#F7941E"/>
<path d="M193.337 38.4143C191.363 36.2407 188.203 36.2407 185.439 36.0431C187.809 33.2767 192.35 32.2888 193.732 29.5224C191.363 29.3248 188.401 30.5104 186.426 31.8936C184.649 33.0791 183.267 34.8575 181.49 35.8455C181.885 33.8695 183.464 32.684 184.452 31.1032C185.439 29.5224 186.229 28.1392 187.414 26.5585C189.388 23.9897 191.955 20.8281 191.363 17.2714C187.809 19.4449 185.439 22.8041 183.267 26.3608C182.28 28.1392 180.898 29.72 179.713 31.4984C179.12 32.2888 178.923 33.4744 178.331 34.2647C177.738 35.0551 176.948 35.4503 176.553 36.2407C177.343 32.2888 177.936 28.3368 178.528 24.1873C179.12 20.6305 179.91 16.4809 178.725 12.9242C173.197 17.4689 172.999 30.5104 172.407 37.2287C170.827 37.2287 169.445 38.6119 168.853 41.971C169.84 44.3422 171.025 45.923 173.592 45.7254C177.936 45.5278 177.936 42.1686 176.356 39.7974C181.095 39.5998 189.191 40.3903 193.337 38.4143Z" fill="#F7941E"/>
<path d="M44.4539 70.0299C41.0971 70.0299 39.32 69.4372 35.9632 70.0299C35.5683 71.8083 33.1988 87.0233 32.6064 92.556C32.0141 96.9032 31.8166 101.25 31.6191 105.597C50.9701 110.933 70.9134 114.687 90.6592 117.651C112.972 121.01 141.011 124.369 164.311 120.812C166.088 115.082 169.248 94.532 169.84 86.4305C170.037 83.6641 75.06 69.8323 44.4539 70.0299Z" fill="#F7941E"/>
<path d="M169.444 92.1609C169.642 89.3945 74.8616 75.5627 44.0581 75.5627C40.7013 75.5627 38.9242 74.9699 35.5674 75.5627" stroke="#7F587E" stroke-width="0.488" stroke-dasharray="1.43 1.43"/>
<path d="M32.0137 99.8671C51.3646 105.202 71.3079 108.957 91.0538 111.921C113.367 115.28 141.406 118.639 164.706 115.082" stroke="#7F587E" stroke-width="0.488" stroke-dasharray="1.43 1.43"/>
<path d="M49.785 22.6066C49.5875 19.6426 47.8104 18.6546 46.0333 18.8522C46.8231 14.1098 48.4028 9.16994 48.0079 4.62519C47.0206 -6.44029 44.4536 5.41558 42.479 8.57715C41.0968 6.99636 37.3451 0.0804041 34.3832 2.05638C32.0137 4.22996 37.5426 10.9483 38.5299 12.7267C36.5553 13.5171 33.7909 11.3435 31.8163 10.5531C28.6569 9.16994 25.4976 8.18194 21.9434 8.37954C25.1027 15.8883 34.1858 19.6426 41.4917 22.0138C40.8994 23.397 40.8994 24.9778 42.2816 26.3609C44.4536 27.9417 49.9825 25.9658 49.785 22.6066Z" fill="#F7941E"/>
</svg>
