<?xml version="1.0" encoding="utf-8"?>
<!-- Generator: Adobe Illustrator 26.2.1, SVG Export Plug-In . SVG Version: 6.00 Build 0)  -->
<svg version="1.1" id="Layer_1" xmlns="http://www.w3.org/2000/svg" xmlns:xlink="http://www.w3.org/1999/xlink" x="0px" y="0px"
	width="546px" height="398px" viewBox="0 0 546 398" style="enable-background:new 0 0 546 398;" xml:space="preserve">
<style type="text/css">
	.st0{fill:#9E9980;}
	.st1{fill:#B7682A;}
	.st2{fill:#7A411B;}
	.st3{fill:#A35625;}
	.st4{fill:#FFFFFF;}
	.st5{fill:none;stroke:#D3D2C2;stroke-width:0.3;stroke-linecap:round;}
	.st6{fill:#231F20;}
	.st7{fill:#0B647D;}
	.st8{fill:#FFDE17;}
	.st9{fill:#DDCEB1;}
	.st10{fill-rule:evenodd;clip-rule:evenodd;fill:#7C7869;}
	.st11{fill-rule:evenodd;clip-rule:evenodd;fill:#231F20;}
	.st12{fill:#D3D2C2;}
	.st13{fill:#7C7869;}
	.st14{fill:#117289;}
	.st15{fill:none;stroke:#231F20;stroke-width:0.558;stroke-linecap:round;}
	.st16{fill-rule:evenodd;clip-rule:evenodd;fill:#FFFFFF;}
	.st17{fill-rule:evenodd;clip-rule:evenodd;fill:#DDCEB1;}
	.st18{fill:#AE7DAF;}
	.st19{fill:#7F587E;}
	.st20{fill:#2BB673;}
	.st21{fill:none;stroke:#231F20;stroke-width:0.571;stroke-linecap:round;}
	.st22{fill:#F7941E;}
	.st23{fill:#EADAC2;}
	.st24{fill:#131313;fill-opacity:0.3;}
	.st25{fill:none;stroke:#2BB673;stroke-linecap:round;stroke-dasharray:2,3;}
</style>
<g>
	<g>
		<g>
			<path class="st0" d="M512.6,290.7C482.9,225.2,27,288.3,27,288.3s-44.5,61.4-12.7,97.4s498.4-16,498.4-16
				S542.3,356.2,512.6,290.7z"/>
			<path class="st1" d="M515.5,33.3c0,0-1.2-9.9-4-16.8s-7.7-14-12.7-12.6c-4.2,1.1-2.4,4.6,2.1,9.7c3.7,4.2,5.5,5.5,7.5,10.9
				s2.5,9.4,2.5,9.4L515.5,33.3z"/>
			<path class="st2" d="M526.1,79c3.7,1.2,9.5,0.4,9.5,0.4s9.7-0.7,11.1,4.2c0.9,2.9-5.6,1.1-5.6,1.1s5.4,2.7,2.7,5
				s-5.4-0.5-5.4-0.5s1.5,4.5-2.7,3.8s-4.9-5.3-4.9-5.3s-4.2-2.7-11.6-3.7c-7.8-1-20.6-0.3-20.6-0.3l9.5-7.4
				C508.2,76.2,521.2,77.4,526.1,79z"/>
			<path class="st2" d="M434.8,88.1c-13.8,2.6-21.2,1-25.1,1c-5.7,0-11.8,1.5-11.8-4s5.8,0.5,5.8,0.5s-3.9-3.7-1.6-6.4
				c2.7-3.3,4.9,2.9,4.9,2.9s-1.7-6.7,2.5-6c2.4,0.4,2.9,5.4,2.9,5.4s5.9,1.7,14.6-0.9c7.5-2.2,15.4-13.2,15.4-13.2l17,10.7
				C459.5,78,441.8,86.8,434.8,88.1z"/>
			<path class="st3" d="M496.4,36.2c0,0-13.6-5.7-33.7-4.5c-20.1,1.2-38.1,9.4-41.2,25.1c-3.1,15.6,0.5,35.9,7.7,40.8
				c14.2,9.7,38.8,9.3,57.8,3.3c24.2-7.7,28.5-33.5,28.5-33.5L496.4,36.2z"/>
			<path class="st3" d="M492,25.7c0,0-7.3-8.2-14.6-10.1c-7.7-2-15.6,0-12.9,3.7c2.7,3.7,9.2,1.2,15.1,3.4
				c5.9,2.2,10.4,5.6,10.4,5.6L492,25.7z"/>
			<path class="st3" d="M519.6,93.7c3.2,2.4,9,3.4,9,3.4s9.4,2.4,9.4,7.9c-0.1,3.3-5.6-0.6-5.6-0.6s4.3,4.5,1,6.1s-5-2.3-5-2.3
				s0.1,5.2-3.7,3.2s-3.1-7.1-3.1-7.1s-3.2-4.2-10-7.6c-7.1-3.6-19.6-6.8-19.6-6.8l11.3-4.8C503.3,85.2,515.3,90.5,519.6,93.7z"/>
			<path class="st3" d="M425.4,108.4c-14.1,2.2-21.6,1-25.5,1c-5.8,0-12,1.5-12-4c0-5.6,5.9,0.5,5.9,0.5s-3.9-3.7-1.6-6.5
				c2.8-3.3,5,2.9,5,2.9s-1.7-6.4,2.5-6.1c2.6,0.2,3,5.4,3,5.4s4.7,1.7,14.9-0.9c7.7-1.9,15.7-13.3,15.7-13.3l17.3,10.8
				C450.6,98.2,440.8,106.1,425.4,108.4z"/>
			<path class="st3" d="M425.9,51.5c0,0-15.8,1.5-26.6-4c-6.4-3.2-8.5-12.4-8-8.1S394,49.8,401.9,55c10,6.5,22,5.6,22,5.6
				L425.9,51.5z"/>
			<path class="st4" d="M464.3,34.9c-1.2,5.1,1.5,8.8,5.2,9s6.8-1.7,7.8-6.7c0.7-3.8-1.4-8.7-5-8.9
				C468.6,28.1,465.2,31.1,464.3,34.9z"/>
			<path class="st5" d="M476.3,30.9c-0.9-1.3-2.3-2.6-3.8-2.6c-2.3-0.1-4.7,1.4-6.3,3.3"/>
			<path class="st1" d="M516.7,72.1c17.7-32.5-5.4-45.3-5.4-45.3s-19.4-8.9-35.7,4.3c-28.4,23.1-33.9,44-29,48.3
				c4.2,3.6,21.1-5,40.3-10.6c12.5,3.6,16.2,9.8,20,16.5C507.5,84.2,515.6,74,516.7,72.1z"/>
			<path class="st4" d="M481.2,39.9c-1.6,5,1.4,9.2,5.5,9.5s8.2-1.1,9.5-6c1-3.7-1.6-9.2-5.8-9.6C486.3,33.5,482.4,36.3,481.2,39.9z
				"/>
			<path class="st6" d="M484.2,41.8c-0.2,1,0.2,1.7,0.8,2s1.2-0.2,1.3-1.2c0.1-0.8-0.1-1.7-0.8-2C485,40.3,484.4,41.1,484.2,41.8z"
				/>
			<path class="st6" d="M466.3,35.8c-0.2,0.7,0.2,1.1,0.8,1.3c0.6,0.2,1.2-0.2,1.4-0.8c0.1-0.5-0.1-1.2-0.8-1.3
				C467,34.8,466.5,35.3,466.3,35.8z"/>
			<path class="st6" d="M462.9,77.3c0,0-2.2-4.8-6.3-9.1c-3.4-3.6-7.3-6.4-7.3-6.4s-11.9,19.5-3.8,20.1
				C453.3,82.3,462.9,77.3,462.9,77.3z"/>
			<path class="st6" d="M497.9,61c-0.7,2.1-0.2,3.9,4.2,4c2.4,0.1,4.4-1.7,4.5-3.8c0.1-2.2-1.1-3.9-3.5-4
				C500.7,57.2,498.6,59,497.9,61z"/>
			<path class="st6" d="M453.9,127.6c-0.1,0.6,1.5,16.2,13.6,25.4c7.3,5.5,11.3,3.9,11.9,1c0.5-2.9,0.1-4.4,0.1-4.4
				s-6.5-10.4-13-14.4C459.9,131.1,453.9,127.6,453.9,127.6z"/>
			<path class="st7" d="M496.5,133.5c0,0-3.2-3.5-4.9-8c-1.7-4.4-2.2-11.6-2.2-11.6s-9.9,1-16.8-1.6c-7-2.6-31.1-12.6-31.1-12.6
				s-2.2,4.6-3.3,7.5c-1,2.9-2.2,14.9-2.2,14.9s18.8,6.6,26.8,12.5c5.3,4,16,13.1,16,13.1s12.1-9,14.2-10.6
				C495.1,135.4,496.5,133.5,496.5,133.5z"/>
			<path class="st6" d="M481.8,146.5c0,0-9.4-8.8-14.5-12.4c-7.9-5.7-16.1-9.3-31.3-15.3l0.6-2.4c0,0,18.8,5.7,29.8,12.3
				c8.9,5.3,18.9,15.2,18.9,15.2L481.8,146.5z"/>
			<path class="st8" d="M486.4,128.9c0,0-1.1-1.6-1.7-3.2c-0.6-1.6-0.2-3.7-0.2-3.7s-1.6,0.4-3.3,0.2c-1.8-0.3-4.1-1.4-4.1-1.4
				s-3,3.8-3.1,6.3c-0.1,3.1,0.7,5.5,0.7,5.5s4,1.1,6.8-0.1C484.3,131.4,486.4,128.9,486.4,128.9z"/>
			<path class="st9" d="M330.3,139.7c0.8-3.6,1.7-10.2,2.1-13.4c0,0-1.2-6.7-3-11.1c-1-2.5-0.9-4.7,2.2-3c1.2,0.7,2.1,2.6,2.1,2.6
				s-0.1-0.9,0.3-3.9c0.3-3,1-6.1,3-5.6c1.7,0.5,0.7,8.5,0.7,8.5s0.7-2.2,2-4.5s2.8-3.4,4-2.1c1.3,1.3-2.6,8.4-2.6,8.4
				s0.6-0.2,2.1-2.7c1.4-2.4,3.2-3.6,4.1-2.1c1,1.8-2.2,7.3-2.2,7.3s-4.4,6.7-5.1,7.6h-0.1c-0.4,4.8-1,13.4-1.6,17.9
				c-1,8.1-10.8,19.7-10.8,19.7l-8-7.3C319.6,156,329.3,144.5,330.3,139.7z"/>
			<path class="st9" d="M258.1,137.6c4.4,25,19.4,34.6,46.1,25.9c13.2-4.3,20.4-15.9,18.4-32.8c-0.4-8-5.1-19.6-9.5-26.3
				c-5.9-11.5-21.4-18.5-38-9.9C258.1,103.3,254.6,117.8,258.1,137.6z"/>
			<path class="st10" d="M247.1,125c1.9-2.6,5.7-1.1,5.7-1.1s-6.4-3.3-4.2-5.1c2.2-1.8,5.8-1.1,5-1.4s-8.7-3.1-5.2-5.5
				c1.3-0.9,3.5-0.4,5.5,0.3c0.6,0,1.1,0.2,1.1,0.2s-8.3-4.3-4.8-6s8.2,1.6,8.2,1.6s-7.9-7.1-4.6-7.9c3.3-0.8,8.3,1.6,7.8,1
				c-0.5-0.7-8.4-7.1-3.4-7.9c3.7-0.6,9.8,6.2,9.8,6.2s-0.9,4.1-3.5,7.2c-7.7,9-7.3,23.5-7.3,23.5s-5.3,3.3-6.1,1.6
				c-0.8-1.8,2.8-3,2.8-3S245.2,127.6,247.1,125z"/>
			<path class="st9" d="M279.3,165.9c0.3,11.1,6.8,19.9,14.6,19.7c7.7-0.2,14.8-11.3,14.5-22.4s-7.9-18-15.6-17.8
				C285,145.6,279,154.8,279.3,165.9z"/>
			<path class="st11" d="M332.7,302.7c0,0,7.9,2.2,11.5,3c3.5,0.8,5.7,2.1,6.4,4.2c0.8,2.1,0.5,3.3-4,3.6
				c-4.5,0.4-15.5,0.6-18.1-0.5c-2.7-1.1-4.4-8.1-4.4-8.1L332.7,302.7z"/>
			<path class="st11" d="M291.9,305c0,0,6.9,3.1,10,4.2c3.1,1.2,4.9,2.7,5.3,4.9c0.4,2.2,0,3.3-4.1,3.1c-4.1-0.1-14.1-1.1-16.4-2.5
				c-2.3-1.4-2.9-8.5-2.9-8.5L291.9,305z"/>
			<path class="st7" d="M324.5,234.7c0,0,3.7,18.5,6,32.3c2.2,13.8,4.9,35.4,3.1,36.6c-1.8,1.2-6.9,3.3-9.1,2.1
				c-2.2-1.2-8.8-28.8-11.2-34s-8-16.4-10.9-15.3c-2.9,1.1-5,49.6-6.7,49.9c-1.7,0.3-12.4,2.1-12.7,0s-1.6-33.6-2.3-41.7
				c-0.7-8.1-3.6-26.9-3.6-26.9L324.5,234.7z"/>
			<path class="st9" d="M264.7,164.7c0,0-13.3-11.4-15.3-16s-1.5-14.6-1.5-14.6s2-3.1,2.2-4.8c0.2-1.7,0.6-4.1,0.6-4.1
				s4.9-4.9,3.6-6.6c-1.3-1.7-4.5,0.6-6.3,2.7l-1.8,2.2c0,0,4.3-7.2,2.8-8.3c-1.5-1.1-3.6,0-4.6,2.4c-0.9,2.5-1.8,4.5-1.8,4.5
				s2.6-8.9,0.8-9.1s-3.9,4-4.1,6.9c-0.2,2.7-0.8,4-0.8,4s-1-2.5-2.3-2.9s-2,0.6-1.5,3.1c0.5,2.6,2.3,4.9,3.2,6.5c1,1.6,2,2.3,2,2.3
				s0.1,14.6,2.1,20.9c2.5,7.9,16,19.3,16,19.3L264.7,164.7z"/>
			<path class="st7" d="M316.2,178c0,0,6.9,27.2,7.3,35.6c0.4,8.3,1.6,11.8,0,14.4c-1.6,2.6-8.9,4.9-21.4,4.5s-25.5,1.3-25.5-2.2
				s-5.7-48.8-5.7-48.8s-4.3-0.8-8-2.6c-3.6-1.8-8.2-5.3-8.2-5.3l6.9-12.7c0,0,5.7,3.1,9.7,4c4,0.9,19,2.5,19,2.5l8.9,13.7l0.5-14.7
				c0,0,9-2.2,14.1-5.5c4-2.6,6.9-5.4,6.9-5.4l10.1,8.8c0,0-4.4,5.3-8.3,7.8C317.9,175.1,316.2,178,316.2,178z"/>
			<path class="st12" d="M322.8,226.9c0.6,2.2,1.2,7.3,1.2,7.3s-7.7,3.3-16.5,4.5c-8.9,1.2-31.1-0.3-31.1-0.3l-0.5-7.6
				c0,0,16.4,1.8,23.9,1.3C307.4,231.5,315.7,230.4,322.8,226.9z"/>
			<path class="st13" d="M296.2,236.9c0.1,1.3,1.3,2.3,2.9,2.3l5.5-0.2c1.5,0,2.8-1.1,2.7-2.4l-0.1-3c0-1.3-1.3-2.3-2.9-2.3
				l-5.5,0.2c-1.5,0-2.7,1.1-2.7,2.4L296.2,236.9z"/>
			<path class="st6" d="M290.4,232c0,0,0.4,4.2-1.7,6.3c-2.1,2.1-7.1,2.3-7.1,2.3s2.6,13.7-0.4,14.2c-3.1,0.5-5.8-11.5-6.9-16.7
				c-1.1-5.2-0.3-8.5-0.3-8.5s-0.6-0.6,5.6-0.4C288.6,229.4,290.4,232,290.4,232z"/>
			<path class="st14" d="M290.5,166.6l-1.1,12.3c0,0-4.7-3-7.3-5.3c-2.5-2.2-6.2-8.8-6.2-8.8l0.7-1.6c0,0,4.9,1.4,7.5,2.1
				C286.4,166,290.5,166.6,290.5,166.6z"/>
			<path class="st14" d="M298.3,165.4l4.6,7.9c0,0,1.7-1.1,3.8-3.4s2.8-7.5,2.8-7.5l-2.1-1.4c0,0-2.8,1.7-5.2,2.7
				C300.1,164.6,298.3,165.4,298.3,165.4z"/>
			<path class="st14" d="M316.2,158l11.3,10.8l3.2-4.3l-11.2-10.2L316.2,158z"/>
			<path class="st14" d="M260.8,158.8l-9.5,13.9l4.6,4l8.8-15.2L260.8,158.8z"/>
			<path class="st15" d="M291.6,123.1c0,0,13.5,5.1,10.9,8.9c-2.3,3.3-8,3.4-8,3.4"/>
			<path class="st16" d="M270.8,118.1c-3.6,2.6-3.5,6.4-0.7,10.1c2.8,3.8,7,5,10.6,2.4s4.1-7.3,1.3-11
				C279.2,115.8,274.4,115.5,270.8,118.1z"/>
			<path class="st11" d="M275.4,119c-0.8,0.6-0.8,1.4-0.2,2.2c0.6,0.8,1.5,1,2.2,0.5c0.8-0.6,0.9-1.6,0.3-2.4
				C277.2,118.5,276.2,118.4,275.4,119z"/>
			<path class="st16" d="M300.7,106.7c-3.1,2.2-3,5.5-0.6,8.7s6,4.3,9,2.1c3.1-2.2,3.5-6.2,1.1-9.5
				C307.8,104.8,303.7,104.5,300.7,106.7z"/>
			<path class="st11" d="M305.4,107.9c-0.5,0.6-0.5,1.4-0.1,2.2c0.4,0.8,1,1,1.5,0.5c0.5-0.6,0.6-1.6,0.2-2.4
				C306.6,107.3,306,107.3,305.4,107.9z"/>
			<path class="st10" d="M267.1,88.8c1.3-1.4,3.6,5.4,3.6,5.4s-1.5-6.4,2-10.2c2.6-2.8,3,8.8,3,8.8s0.1-8,1.8-9.5
				c2.5-2.2,4.3,6.7,4.1,6c-0.1-0.8,0.3-7.6,4.5-9.4c1.7-0.8,1.8,2.3,1.4,5.3c1.8-3.3,3.9-6.3,5.9-6.7c1.9-0.3-1.1,10.5-1.1,10.5
				s2.1-7.8,7.1-8.8c3.7-0.8-2.3,10.6-2.3,10.6s4.7-6.5,6.9-6.6c3.3-0.2-0.4,8-0.1,7.3c0.4-0.7,4.6-6,9-4.9c3.5,0.8-3.4,6.6-3.4,6.6
				s-0.6,0.6-1.3,1.7l0.2-0.2c0,0,2.9-2.7,4.1-1.7c1.2,0.9-0.1,3.6-1.1,4.6s-2.1,3.3-2.2,3.2c-0.1-0.1-3.4-2.3-8.8-4.1
				c-6.2-2.1-12.9-1.5-18.4,0.2c-3.1,0.9-14.1,2.5-14.1,2.5S263.8,92.3,267.1,88.8z"/>
			<path class="st17" d="M253.7,136.1c0.6,2.7,3,4.3,5.4,3.6c2.4-0.7,3.9-3.4,3.3-6.1c-0.6-2.7-3-4.3-5.4-3.6
				C254.5,130.6,253.1,133.4,253.7,136.1z"/>
			<path class="st6" d="M295.1,147.9c-0.6,3.6,0.2,6.7,5.2,6.5c2.7-0.1,4.8-3.3,4.7-7s-1.6-6.5-4.4-6.4
				C297.9,141.1,295.7,144.3,295.1,147.9z"/>
			<path class="st6" d="M297.2,188.4c0,0.9,0.8,1.7,1.7,1.7s1.7-0.8,1.7-1.7s-0.8-1.7-1.7-1.7C297.9,186.7,297.2,187.4,297.2,188.4z
				"/>
			<path class="st6" d="M299.4,200.7c0,0.9,0.7,1.7,1.7,1.7c0.9,0,1.7-0.7,1.7-1.7c0-0.9-0.8-1.7-1.7-1.7
				C300.2,199,299.4,199.7,299.4,200.7z"/>
			<path class="st6" d="M300.5,212.9c0,0.9,1,1.7,2.2,1.7s2.2-0.7,2.2-1.7c0-0.9-1-1.7-2.2-1.7C301.6,211.2,300.5,212,300.5,212.9z"
				/>
			<path class="st6" d="M301.7,225.2c0,0.9,1,1.7,2.2,1.7s2.2-0.7,2.2-1.7c0-0.9-1-1.7-2.2-1.7S301.7,224.3,301.7,225.2z"/>
			<path class="st9" d="M119.6,250.3c0,0,10.2,9.5,8.5,10.2c-1.8,0.7-4.9-2.6-4.9-2.6s4.1,5.8,2.8,6.5s-5.9-4.2-5.9-4.2
				s3.9,6.3,2,6.7c-2,0.4-4.8-6.4-4.8-6.4s-0.2,2.9-2.5,3.2c-2,0.3-0.2-5.3-0.3-6.2c-0.1-2.2-0.8-4.1-0.8-4.1L119.6,250.3z"/>
			<path class="st18" d="M121.5,251.1l-8.1,4.8c0,0-6-10.5-9.7-15.4c-2.8-3.7-13.8-17.1-12.3-19.2c2.9-4,8.7,3.3,14,8.5
				C112.5,236.7,121.5,251.1,121.5,251.1z"/>
			<path class="st19" d="M94.4,221.3c0.1,0.3,3.9,11.9,6.9,19.3c3,7.5,4.6,14.3,4.6,14.3s-8.5,6.6-14.8,7.5
				c-6.3,0.8-19.9-1.5-19.9-1.5s-4.7-28.2-4.5-31.2s0.2-4.7,0.2-4.7s8.1,0.7,14-0.2C86.9,223.8,94.4,221.3,94.4,221.3z"/>
			<path class="st17" d="M105.5,295.9l0.9,14.7l3.9,1.5l-8.1,2.8c-1.4-3.8-4.2-15.1-4.5-17.9c-0.6-5.4-0.8-11.3-0.8-11.3l8-0.9
				L105.5,295.9z"/>
			<path class="st11" d="M109.4,311.7c1,0.3,3.7,0.6,4.5,0.9c2.4,0.7,5.3,3.6,0.8,4s-11.6,0.8-13.2,0.6c-1.8-0.2-1.1-5.4-1.1-5.4
				S108.5,314.3,109.4,311.7z"/>
			<path class="st17" d="M84.2,296.7l-1.9,14.8l3.4,2.3l-8.2,1.2c-0.6-4-1-14.3-0.7-17.1c0.5-5.5,1.2-13,1.2-13l7.7,0.7L84.2,296.7z
				"/>
			<path class="st11" d="M86,313c0.9,0.4,3.3,1.2,4,1.5c2.1,1,4.2,4.1-0.1,3.8s-11-1.1-12.4-1.6c-1.7-0.5,0.1-5.1,0.1-5.1
				S84.6,315.3,86,313z"/>
			<path class="st20" d="M105.6,254.8c0.3,0.4,5.6,10.6,8.3,15.9c2.1,4.2,5.8,9.1,3.6,10.1c-2.2,1.1-15.3,6.8-28.1,7.3
				c-10.1,0.4-19.9,0.3-19.3-1.9c0.9-3.5,2-24,2-24s12.5,0.6,18.9-1.3C97.4,259,105.6,254.8,105.6,254.8z"/>
			<path class="st18" d="M87.9,230.6l-8.6-2.6c0,0-1.4,11.2-2.7,13.8c-2.2,4.2-4,7.4-2.8,9.7c1.2,2.4,4.9,4.5,8.7-3.4
				C86.3,240.3,87.9,230.6,87.9,230.6z"/>
			<path class="st18" d="M74.6,229.4c0,0,1,6.5,2,9.6c0.9,3.1,4.6,5.3,4.6,5.3l-7.3,7.1c0,0-2-1.7-4.3-7.7c-2.6-6.9-4-26.7-4-26.7
				s3.3-7.3,6.2-1C74.6,222.3,74.6,229.4,74.6,229.4z"/>
			<path class="st17" d="M83.6,152.1c0,0,30.1,25.9,22.1,52.8c-5.7,19.3-27.4,27.6-46.6,17.8c-13.2-6.7-21.5-43.4-21.5-43.4
				l11.3-14.6l18.7-10.9L83.6,152.1z"/>
			<path class="st21" d="M80.1,193.1c0,0,5.6-3.9,6.6-0.5s-4.6,6.4-4.6,6.4"/>
			<path class="st17" d="M43,201.3c2.4-0.6,4.9,0.7,5.6,2.8c0.7,2.1-0.7,4.2-3,4.8c-2.4,0.5-4.8-0.7-5.6-2.8
				C39.3,204,40.6,201.9,43,201.3z"/>
			<path class="st16" d="M83.5,170.4c-3.4,1.8-4.3,6-2.3,9.5s6,4.3,9.4,2.5s3.9-5.8,1.5-9c-2.4-3.3-6-4.4-9.5-2.5"/>
			<path class="st16" d="M58.2,183.9c-3.6,1.7-4.8,5.5-3.1,9.6s5.6,5.4,9.1,3.7c3.6-1.7,4.4-5.3,2.7-9.4c-1.7-4.1-5.7-5.4-9.3-3.7"
				/>
			<path class="st11" d="M62.8,187.9c-0.6,0.3-0.7,0.8-0.5,1.4c0.3,0.6,0.8,0.9,1.4,0.6c0.6-0.3,0.8-0.9,0.6-1.5
				C64,187.8,63.4,187.7,62.8,187.9z"/>
			<path class="st11" d="M87.3,174.7c-0.6,0.5-0.7,1.3-0.3,2.1c0.3,0.9,0.9,1.2,1.5,0.7s0.8-1.4,0.5-2.3
				C88.6,174.4,87.9,174.2,87.3,174.7z"/>
			<path class="st22" d="M75.2,157.2c0,0-0.9,7.7-2.6,11.8c-1.7,4.1-6.4-2.3-6.4-2.3s1.1,9.4-1.5,10.9s-7-9-7-9s-1.2,19.1-5.1,17.4
				c-3.9-1.7-6.3-7.9-6.3-7.9s1.1,15.5-2.1,15.1c-3.3-0.5-3.8-2.2-3.8-2.2s14.3,28.6,14.1,33.8c-0.4,9.8-14.5,15.4-14.5,15.4
				s6.1-14.3-1.8-32.6c-5.1-11.8-7.4-29.7-2.2-39.5c8.1-15.3,23.3-10.7,23.3-10.7s10.6-13.3,25.1-4.6c11,6.5,28.7,34.6,31.7,38.4
				c4.5,5.6,13.2,6.9,13.2,6.9s-5.3,3.7-11.6,3s-8.7-3.5-10.6-6.8c-4-15.6-20.2-32.9-20.2-32.9s2.4,6.2-1.3,4.6
				C80.9,163.9,75.2,157.2,75.2,157.2z"/>
			<path class="st6" d="M78,209.9c-0.4,2.7,0.4,5,4.8,4.7c2.4-0.2,4.2-2.6,4-5.3c-0.2-2.8-1.6-4.8-4.1-4.6
				C80.3,204.8,78.4,207.3,78,209.9z"/>
			<path class="st23" d="M88.6,231.3c0,0,7.9-11.5,5.7-11.8s-4.4,3.6-4.4,3.6s2.4-6.5,0.8-7c-1.7-0.4-5,5.4-5,5.4s2.1-7-0.2-6.9
				c-2.3,0-2.9,7.3-2.9,7.3s-1.3-2.7-3.9-2.5c-2.3,0.2,1.6,5.2,1.9,6c0.6,2.2,0.5,4.1,0.5,4.1L88.6,231.3z"/>
			<path class="st24" d="M275.5,308.7c-1.2,0.1,0.7,0.3-0.8,0.2C274.9,308.7,275.1,308.6,275.5,308.7z"/>
			<path class="st24" d="M291,314.3c-2,0.5-4.2,0.5-6.6,0.4l-3.5-0.2c-1.7,0.5,1.2,1.2,1.6,1.6c0.3,0.2-0.1,0.5,0.2,0.8
				c4,1.5,10.6,1.5,15.7,2.2l-0.3,0.2c1,0.1,2.2-0.5,3.2-0.4c0,0.1-0.3,0.2-0.1,0.3c0.2-0.3,1.9-0.3,2.3-0.5
				c0.4,0.1,0.4,0.4,0.9,0.5l0.6-0.4c1.6-0.9,4-0.3,6.2-0.9c-0.1,0.1-0.3,0.2-0.1,0.2c3.5-0.9,8-1.3,11.9-2.2
				c-0.1,0.2-0.2,0.4,0,0.5c0.1-0.4,1.3-0.7,2.4-1c0.6,0.3,1.7-0.7,3-0.7l-0.1,0.1c0.8-0.6,1.4,0,2-0.7l0.6,0.2
				c0.3-0.6,1.4,0,2.1-0.5v-0.1c0.7-0.3,1.1-0.1,1.7-0.3h0.1c1.5-0.5,2.4-0.5,2.3-0.9c0.6,0.2-1.4,0.6-0.5,0.8
				c2.4-0.9,4.9-1.7,7.3-2.8c1.1-0.2,2.6-1.8,3.1-1.1c-1.3-0.3-2.5-0.5-3.8-0.6c-0.6-0.2-0.9-0.3-1.1-0.5c-0.5,0.1-2,0-2.4,0.2
				c0.2,0-0.3-0.2-0.6-0.2c-0.9-0.2-1,0.5-2.1,0.3c0.4-0.1,0.6-0.3,0.4-0.4c-0.9,0.3-2.1,0.3-3.1,0.4c0.2-0.1,0.4-0.1,0.4-0.3
				c-1.1,0.4-2.1,0-3.1,0.2l0.4-0.3c-1.6-0.2-0.5,0.5-1.9,0.4c0.3-0.1,0.2-0.2,0.3-0.3c-1.3,0.5-3.4,0.5-4.7,0.7v-0.1
				c-1.4,0.1-2.9,0.1-4.4,0.4c-0.6-0.1,0.1-0.6-1.3-0.4c0.1,0.5-2.5,0.4-1.6,0.9c-1.3,0-3.3,0-4.2,0.2c0.6-0.2-0.7-0.6,0.4-0.7
				l-0.8-0.2c0.1-0.2,0.8,0,0.6-0.2c-0.5,0.1-2.1,0.4-2.6,0.3c-1,0.4-1.8,1-3.4,1.2c0.7-0.3-0.5-0.5,0-0.6l-2.1,1.1
				c-0.5,0.1-0.1-0.4-0.9-0.2c0.1,0.1-0.3,0.2-0.5,0.4c-0.2,0-2.2,0.3-2.5-0.2c-0.3-0.2,0.9-0.2,0.3-0.3c-1,0.1-1,0.3-2,0.4v-0.1
				c-0.7,0-1.9,0.4-1.2,0.6c0.5,0-0.2-0.3,0.5-0.2c-0.4,0.3-1.6,0.5-2.6,0.6c0.3-0.1,0.3-0.2,0.4-0.4c-1.3,0.5-2.7,0.7-4.2,1
				c0,0.2,0.5-0.5,0.8-0.4c-2-0.2-3.9,0.6-5.5,0.3c0.3-0.1,0.2,0.3,0.1,0.3c-0.9,0-0.9-0.3-1.5-0.2c-0.1-0.2-0.7,0.1-1.3,0.2
				c-0.3,0.2-0.2-0.1,0.4-0.1c-0.8,0.2-4.2,0.8-6.2,0.7c0,0.1-1.1,0.6-1.6,0.6l0.1-0.3c-0.4-0.1-1.5,0.2-1.6,0
				c-0.9,0.5,3.6-0.7,2.4-0.3c-0.4-0.2-1.7,0.7-1.5,0.2c-0.9,0.1-1.7,0.6-2.6,0.4c0.3,0,0.7-0.5-0.1-0.4c-1.3,0.2-0.3,0.2-1.3,0.5
				l-0.6,0.2c0,0.3-1.1,0.2-0.6,0.4c-0.2-0.2-1.7,0.5-1.7,0.1v-0.4c-0.5,0.2-0.7,0.6-0.8,0.9l-0.2-0.1c0.2,1.4,0-1.3,0.3-1
				c0.4,0.5,2.1,0.8,2.5,1.1c0.8-0.1,1.6-0.3,2.6-0.2c-0.2,0.1-0.5,0.1-0.5,0.2c0.6,0.2,0.8,0,1.4-0.1c-0.1,0.1,1.3,0.3,2,0.5
				c0.9-0.2,0.6-0.5,0.6-0.7c0.8,0.6,2.5-0.5,3.5-0.1c-0.3,0.1-1.3,0.4-0.5,0.5c0.9,0.5,1.6-0.6,2.9-0.4l-0.4-0.5
				c0.6,0.3,1.9-0.4,1.8,0.1c0.4-0.2,1.6,0,1.4-0.4c2.2,0.2,5.2-0.7,6.6,0c0.3-0.1,1.1-0.1,0.9-0.3c-0.5-0.2-0.7,0.3-0.9,0.1
				c0.3,0,0.3-0.2,0.3-0.2c0.7,0,1.2,0,0.6,0.5c1.5,0.2,1.5-1,3.4-0.9c-0.1,0.2,0.1,0.3,0.6,0.2l1-0.4c1.2,0,0.7,0.4,0.8,0.7
				c0.7-0.1,1.5-0.2,1.7-0.4l0.8,0.4c-0.6-0.3,0.5-0.2,0.8-0.3l-0.3,0.1c0.1,0.1,0.9,0,1.3-0.1c-0.1-0.2-0.9-0.2-1.3-0.3
				c0.3-0.2,0.9-0.2,1.3-0.4c-0.1,0.3,1.1,0.2,1.6,0.2c0.6,0,0.7-0.3,0.8-0.3c0,0.2,1,0,0.5,0.2c-0.2,0.1-0.5-0.1-0.8,0
				c0.4,0.1,0.4,0.4,1.2,0.2c0.6-0.2-0.2-0.6,1-0.5c-0.3,0.1-0.4,0.2-0.6,0.4l1.1,0.1v-0.3c0.2,0.1,0,0.1,0.1,0.1
				c0.3-0.3,1.7-0.1,2-0.5c0.6,0,1.2,0.2,1.7,0.2H314c0.7,0.2,1.5,0.1,2.1-0.1v0.1c0.4,0,1.2,0,1.7-0.2c0.9,0.2,0.3,1.1,1.3,0.8
				c0.9,0,1.4-0.5,1.1-0.7c1.6,0.3,3.5-0.1,5,0.4c0.2-0.1,0.1-0.2,0.6-0.2c2.4,0.3,5-0.1,6.9,0.5c-0.7,0.1-0.1,0.3,0,0.5
				c0.6-0.2,0.7,0.3,0.9-0.2c-0.1-0.3,0-0.4-0.7-0.5c1.4-0.1,3.5-0.1,4.3,0.1c-0.4-0.1-0.1-0.2,0.2-0.3c-0.1,0.4,0.9,0.5,1.7,0.3
				l0.1-0.3l0.5,0.2c0.3-0.1,0.3-0.6,1.1-0.4l0.2,0.3c0.8-0.2,1.9-0.7,2.8-0.6l0.7,0.3c0.4-0.1,1-0.4,0.3-0.4c1.5,0.1,2.4,0,3,0.2
				c1.2-0.7,2.7-1.2,4.2-1.7c0.6-0.2,1.6-0.5,1.7-0.7c0.4-1.1-1.2,2.5-0.1,2.6c1,0.6-0.1,0.1-0.1,0.1l0.1-0.2
				c-0.5-0.3-0.4,0.3-0.8,0c0.3-0.1-0.5-0.5,0.1-0.6c-1-0.4-1.5,0.1-2.2,0.1c-0.1,0.2,0.6-0.1,0.4,0.2c-0.1,0.1-1.5-0.4-1.7,0
				c-0.3-0.2,0-0.4,0.2-0.6l-0.7,0.1c-0.8-0.5,2-0.6,1.2-1.3h-0.7c-0.6-0.5,1.8-0.3,0.2-0.6c-0.7,0.1-1.4,0.6-0.8,0.9
				c-1.5,0-0.8,0.9-2.4,0.7c-0.4-0.3,1.3,0,1-0.3c-0.7-0.4-1.5,0.1-2.2-0.1c0.7,0.2,0.1,0.5-0.4,0.6c-0.8-0.2,0.6-0.3-0.6-0.5
				c-0.2,0.2-1.3,0.3-0.4,0.5c-0.4,0.5-1.2-0.2-1.8,0.1c-0.4-0.4,1.2-0.8,0-1c0.2,0.4-1.6,0.4-0.9,0.9c-0.5-0.1-0.5-0.4-0.2-0.6
				c-0.7-0.3-1.8,0.5-2-0.2l-0.3,0.3c-0.2-0.1-0.5-0.2-0.9-0.4c-0.6,0-2,0.4-2-0.1c-0.2,0-1.6,0-1.1,0.4c0.9,0.3,1-0.2,1.5,0.3
				c-0.6-0.4-1.3,0-1.8,0.1l-0.1-0.2c-0.3,0.1-1,0-1.2,0.2c0.2-0.1,0.1-0.3-0.1-0.3l-0.3,0.3c-1.3,0.1-0.3-0.6-1.5-0.5l0.9-0.2
				c-0.2,0-0.6-0.3-1.2-0.2c-0.2,0.3-0.7,0.6-0.9,0.8c-0.7,0.1-0.3-0.3-1-0.1l0.9-0.3c0.1-0.1-0.6-0.5-1.5-0.5
				c-0.6,0.1-1.5,0.4-0.6,0.6c-0.5,0-1.1-0.2-0.7-0.4c-1.1,0.1,0.1,0.3-0.8,0.5c-0.4-0.2-1.5-0.5-2.2-0.8l1-0.4h-0.6
				c0.8-0.3-0.4-0.3,0.1-0.7c-0.4-0.1-1,0-1.3,0.1c1.2,0.7-1.4,0.9-1.1,1.5c-1.7,0.1-1-1.5-2.8-0.6c0.3,0.2-0.5,0.6,0.5,0.4
				c-1-0.1-0.7,0.6-2,0.3c0.9-0.3-1-0.6,0.3-1c-0.1,0.2,0.7,0.2,0.9,0.1c-0.4-0.2,0.1-0.6-1-0.6c-0.7,0.1-1.6,0.1-1.4,0.4
				c0,0.3,1,0,0.6,0.3c-1.3,0.1-1.5-0.4-2.1,0.2c0.8-0.1,1,0.3,1,0.5l-1,0.1l0.2-0.2c-1.5-0.2-0.5,0.4-2,0.4l-0.7-0.4
				c0.4-0.4,2.2,0.2,1.9-0.5c-1,0-1.3,0.3-2.2,0.1l0.7-0.1c-0.3,0-0.7-0.9-2.1-0.3c-0.7,0.2-0.2,0.2-0.2,0.5c-1.6,0.1-2,0.3-3,0.4
				c0.2-0.5-1.8,0-0.7-0.5c0.5,0.3,2.8,0.2,3.3-0.3c-0.6-0.5,1.2,0.1,1.6-0.5c-1.3,0-1.2-0.5-1.4-0.9c-0.4,0-0.7,0.1-0.9,0.2
				c-0.1,0.3,0.3,0.3,0.3,0.7c-1.4-0.1-2.8,0.1-3.5,0.5c-0.5-0.2-0.3-0.5,0.2-0.5c-1.7,0.1-3.5,0.1-5.1,0.1c1,0.5-1.8,0.2-1.1,0.6
				c0.9,0.1,1.6,0.5,1.1,0.7c-0.5,0,0-0.2-0.2-0.3c-0.7,0.3-1.1-0.4-1.7,0c1.5-0.2,0.3-0.7,0.5-1.1c-1.1,0.3,0-0.3-1-0.3
				c-1.1,0.3-2.4,0.5-3.7,0.6c-1.5-0.4-3.9,0.1-5.3,0.2c-0.7-0.2-0.3-0.7-1-0.7c-0.9,0,0.7,0.5-0.7,0.3l0.1-0.1
				c-0.4,0.1-2.5-0.2-2.9,0.4l0.4-0.5c-0.3,0-0.5,0.1-0.7,0.1c0-0.2-0.3-0.3,0.1-0.4c-0.8-0.3-1.8,0.1-2.7,0.2l0.6,0.3
				c-1.5,0.3-2.6,0-4.1,0.2v-0.3l-0.9,0.2c0.2-0.3-0.6-0.5-1.1-0.2l2.3-0.8c0.7,0.2-0.7,0.4-0.3,0.7c0.4,0.2,1.7,0.1,2-0.2
				c-0.5,0-0.6,0.1-1,0.2c-0.2-0.4,0.6-0.4,1-0.7c-0.3,0-0.7-0.1-0.7,0c0.5-0.2,1.1-0.3,2-0.3c-0.6,0.2,0.3,0.2,0.1,0.4
				c0.1-0.4,0.9-0.5,2.1-0.4c0.8,0.4,2.1-0.3,3.4-0.3c-0.5,0.4-1.2,0.7-2,0.9c0.8,0.2,0.9,0,1.7,0.1c0.4-0.3,0.7-0.7,1.7-0.9
				l0.1,0.3c1-0.2,1-0.6,2.2-0.5c2.1,0.1,4.3,0,5.9,0l0.1,0.3c0.9-0.6,3-0.3,4.2-0.6c2.1,0.2,4.5-0.4,5.5,0.1
				c3.6-0.3,6.8-0.5,10.6-0.4l-0.6,0.4c0.7-0.3,0.4,0.2,1.1,0.2c-0.8-0.3,0.9-0.4,1.4-0.6c1.7,0.3,3.9,0,5.4-0.1v0.3
				c1.5-0.4,3.3,0.1,5.2,0.2c0.2,0.1,0.5,0.4,1.1,0.4c1-0.4,1.6-0.3,3.1-0.6c1.1,0,2.8,0.2,3.9,0.5c4.1-0.4,8.3,0.2,12.7,0.4
				l0.3,0.4c1.2,0.1,2-0.1,4,0.9c0.7,0.6,1.6,1.4,0.6,3.2c-0.9,1.2-0.9,0.7-1.4,1.1c-0.8,0.5-1.3,0.5-1.9,0.7
				c-2.3,0.6-4.4,0.9-6.2,1.5l0.3-0.6c-1.1,0-2.5,0.5-2.2,0.8c-1.1,0-2.8,0.7-3.6,0.2c-1.2,0-1.4,0.3-2.4,0.4
				c-2.3-0.1-3.2-0.1-5.4,0h0.5c0.2-0.1,0.3-0.4-0.3-0.4c-0.8,0.2-3-0.2-2.2,0.5c-2.3-0.5-5.4,0.1-7.6-0.5c0.2,0.2-0.4,0.2-0.6,0.3
				c-2-0.1-4-0.5-5.6-0.3c-0.3-0.1,0.5-0.3-0.3-0.3c-0.5,0.1,0,0.2-0.6,0.3c-3.2,0.3-6.4-0.5-9.3-0.2c-5.1,0.6-10.5,1-15.5,1.5v-0.1
				c-1.6,0.7-4-0.1-5.2,0.7c-0.4-0.1-1.5,0.1-1.2-0.2c-1.3,0.5-3.8,0-5.7,0.6l0.5-0.1c-2-0.2-3.7,0.3-5.9,0.1
				c0.2-0.1,0.6-0.1,0.7-0.2c-0.8-0.3-2,0.5-2.4-0.1c-0.5,0-0.4,0.3-0.1,0.3c-1.1-0.1-2.8-0.4-4-1c-0.6-0.5-1.5,0-2.4-2.5
				c0.2-2.7,1.9-2.8,2.4-3.1c2.6-1,4.9-1.4,7.4-1.8c3.5,0,0.3,1,3,0.3c0.2,0.1,0.1-0.3,0.2-0.1c1-0.3,1.7,0.5,2.4,0.2
				c-0.3-0.4,0.5-0.3,0.5-0.5c2.1,0.1,2.5,0.4,4.1,0l-0.1,0.2c1.9-0.7,4.1-0.5,5.7-1.2c10.2-0.9,20.3-2.3,30.6-3
				c5.1-0.2,10.1-0.5,15.3-0.5c2.6,0,5.2,0.1,8,0.6l1.1,0.2l0.5,0.1l0,0l0,0c-0.8-4.5,1.1,6.1,0.9,5l0,0h-0.1l-0.1,0.1l-0.2,0.1
				l-2,1.1c-1.3,0.5-2.6,1.1-3.9,1.5c-2.6,0.3-2.7,0.4-5.3,1.3c0.1-0.1,0.2-0.2,0-0.2c0,0.5-1.8,0.6-2,1c-3.8,0.8-7.3,1.7-11.2,2.3
				c0.6-0.1,0.9-0.6,0.1-0.4l-0.7,0.4l-0.1-0.1c-0.5,0.1-1,0.5-0.5,0.5c-9.8,1.9-19.6,2-29.5,1.9c-2.3-0.2-5.7-0.3-8.4-0.7
				c-2.1,0-3.9-2.2-5-3c-0.1-0.8-1.4,0.9-1.7-3.5c0.8-0.9,0.4-1.2,2.4-1.3h0.1h0.2l0.5,0.1l2.6,0.2c3.7,0.3,6.5,0,11.3,0.3
				C295.4,313.1,293.9,314,291,314.3z"/>
			<path class="st24" d="M277,308.6c0.3,0.2,1.1,0.3,0.5,0.6C277.3,309,276.9,308.8,277,308.6z"/>
			<path class="st24" d="M299.8,310.2c0-0.1,0.3,0.1,0.4,0.1c-0.3,0-0.5,0.2-0.8,0.1C299.8,310.4,299.7,310.3,299.8,310.2z"/>
			<path class="st24" d="M305.7,310.2c-0.1,0.2-1.3,0.4-2.1,0.4L305.7,310.2z"/>
			<path class="st24" d="M311.1,310.9c0.5,0.2,0.3,0.3-0.3,0.3C310.8,311.1,311,311,311.1,310.9z"/>
			<path class="st24" d="M311.5,310.5c0.5,0,0.7,0.1,0.9,0.2C312.4,310.5,311.3,310.8,311.5,310.5z"/>
			<path class="st24" d="M323.2,311.1c0.3,0,0.8-0.1,1.1,0.1C323.9,311,323,311.3,323.2,311.1z"/>
			<path class="st24" d="M328.6,311h0.5c0.3,0.1,0,0.2-0.3,0.2L328.6,311z"/>
			<path class="st24" d="M283.7,314.8l0.6-0.1l-0.1,0.2L283.7,314.8z"/>
			<path class="st24" d="M296.7,312.5c0.6-0.2,0.4,0.2,0.5,0.2C296.7,312.7,297.4,312.4,296.7,312.5z"/>
			<path class="st24" d="M320.1,309.6h-0.2v-0.4L320.1,309.6z"/>
			<path class="st24" d="M119.3,315.7c0.8-0.1-0.4-0.4,0.5-0.1C119.7,315.8,119.5,315.9,119.3,315.7z"/>
			<path class="st24" d="M106.1,321c2.4-1.1,5.8,0,8.4-0.9c0.3-0.1,0,0.6,0.7,0.3c-1.2,0.3-1.2,2.4-3.3,2.6
				c-1.8,0.1-3.6-0.2-5.2-0.5l0.2-0.2c-0.6-0.1-1.4,0.4-2,0.3c0-0.1,0.2-0.1,0.1-0.3c-0.2,0.3-1.2,0.1-1.5,0.3
				c-0.2-0.1-0.2-0.4-0.5-0.6l-0.4,0.3c-1.1,0.8-2.5-0.3-3.9,0c0.1-0.1,0.2-0.1,0.1-0.2c-2.3,0.3-5.1-0.3-7.6-0.5
				c0.1-0.1,0.3-0.3,0.1-0.5c-0.2,0.3-1,0.3-1.7,0.2c-0.2-0.4-1.2,0.1-1.9-0.3l0.1-0.1c-0.7,0.3-0.8-0.4-1.4-0.1l-0.3-0.4
				c-0.4,0.5-0.7-0.5-1.3-0.4v0.1c-0.5,0-0.6-0.3-1.1-0.4v-0.1c-1-0.1-1.4-0.6-1.6-0.2c-0.2-0.4,1,0.2,0.6-0.5
				c-2.5-0.7-8.1-1.8-7.3-4.5c0.4,0.1,0.7,0.1,0.8,0.2c0.3-0.2,1.2-0.3,1.4-0.6c-0.1,0,0.2,0.2,0.4,0.2c0.6,0.1,0.6-0.5,1.3-0.4
				c-0.3,0.1-0.3,0.3-0.2,0.4c0.5-0.4,1.3-0.4,1.9-0.5c-0.1,0.1-0.3,0.1-0.2,0.3c0.7-0.5,1.3,0.1,2-0.2l-0.2,0.2
				c1,0.3,0.3-0.5,1.2-0.3c-0.2,0.1-0.1,0.2-0.2,0.3c0.8-0.4,2.2-0.2,3-0.3v0.1c0.9,0,1.8,0.3,2.8,0.2c0.3,0.2-0.2,0.6,0.8,0.6
				c0-0.5,1.6,0,1.1-0.6c0.8,0.2,2,0.5,2.6,0.4c-0.4,0.1,0.3,0.7-0.4,0.6l0.5,0.4c-0.1,0.2-0.5-0.1-0.4,0.1c0.3,0,1.3,0,1.6,0.1
				c0.7-0.2,1.3-0.7,2.3-0.6c-0.5,0.1,0.2,0.6-0.1,0.6l1.5-0.8c0.3,0,0,0.4,0.5,0.3c0-0.1,0.2-0.2,0.4-0.3c0.1,0.1,1.4,0.1,1.5,0.6
				c0.1,0.2-0.6,0-0.2,0.3c0.6,0.1,0.7-0.1,1.3,0v0.1c0.4,0.1,1.2-0.1,0.8-0.4c-0.3,0,0.1,0.3-0.3,0.1c0.3-0.3,1-0.3,1.6-0.2
				c-0.2,0.1-0.2,0.2-0.3,0.3c0.9-0.3,1.6-0.4,2.6-0.5c0-0.2-0.3,0.4-0.5,0.3c1.2,0.3,2.4-0.4,3.4,0c-0.2,0-0.1-0.3-0.1-0.3
				c0.6,0,0.5,0.4,0.9,0.2c0,0.2,0.5-0.1,0.9-0.1c0.2-0.1,0.1,0.1-0.2,0.1c0.5-0.2,2.7-0.5,3.9-0.2c0-0.1,0.8-0.5,1.1-0.4l-0.1,0.3
				c0.3,0.2,1,0,1,0.3c0.6-0.4-2.4,0.3-1.5,0c0.2,0.3,1.2-0.5,1,0c0.6,0,1.2-0.3,1.7,0c-0.2-0.1-0.5,0.4,0,0.4
				c0.8,0,0.2-0.1,0.9-0.2l0.4-0.1c0.1-0.3,0.8,0.1,0.5-0.2c0,0.2,1.4,0.1,1.2,0.6l-0.2,0.3c0.3,0,0.8-0.2,1.5,0
				c0,0,0.2,0.4,0.1,0.4c1.7,0.7-0.6,3.2-0.7,3.1c-1,0.4-2,0.9-2.5,0.7c-0.5,0.3-1.1,0.8-1.8,0.7c0.1-0.1,0.3-0.1,0.3-0.3
				c-0.5-0.1-0.5,0.1-0.9,0.2c0.1-0.1-0.9-0.2-1.4-0.3c-0.5,0.3-0.3,0.6-0.3,0.8c-0.6-0.5-1.6,0.6-2.3,0.1c0.2-0.1,0.8-0.4,0.3-0.5
				c-0.6-0.5-1,0.5-1.9,0.3l0.3,0.5c-0.4-0.3-1.2,0.4-1.2-0.1c-0.3,0.2-1-0.1-0.9,0.4c-1.4-0.3-3.3,0.5-4.2-0.4
				c-0.2,0.1-0.7,0-0.6,0.3c0.3,0.3,0.4-0.2,0.6,0c-0.2,0-0.2,0.2-0.2,0.2c-0.4-0.1-0.8-0.1-0.4-0.5c-1-0.3-1,0.9-2.2,0.7
				c0-0.2,0-0.3-0.4-0.2l-0.7,0.4c-0.8-0.1-0.5-0.4-0.5-0.8c-0.4,0.1-0.9,0.1-1.1,0.3l-0.5-0.4c0.4,0.3-0.3,0.2-0.5,0.3l0.2-0.1
				c-0.1-0.1-0.6,0-0.8,0c0.1,0.2,0.6,0.3,0.8,0.3c-0.2,0.2-0.5,0.1-0.8,0.3c0.1-0.3-0.7-0.2-1-0.3c-0.4-0.1-0.4,0.3-0.5,0.3
				c0-0.2-0.6,0-0.3-0.3c0.1-0.1,0.3,0.2,0.5,0c-0.3-0.1-0.2-0.4-0.7-0.2c-0.4,0.2,0.1,0.7-0.6,0.4l0.4-0.3l-0.7-0.2v0.3l-0.1-0.1
				c-0.2,0.3-1.1,0.1-1.2,0.5c-0.4,0-0.7-0.2-1.1-0.3h0.1c-0.4-0.2-1-0.1-1.3,0.1v-0.1c-0.2,0-0.8,0-1,0.2c-0.6-0.2-0.2-1.1-0.8-0.8
				c-0.6,0-0.9,0.5-0.7,0.7c-1-0.2-2.2,0.2-3.2-0.2c-0.2,0.1-0.1,0.2-0.4,0.3c-1.5-0.1-3.3,0.2-4.4-0.4c0.5-0.1,0-0.3,0-0.5
				c-0.4,0.2-0.4-0.3-0.6,0.1c0,0.3,0,0.4,0.4,0.5c-0.9,0.1-2.3,0-2.8-0.3c0.2,0.2,0,0.2-0.2,0.3c0.1-0.4-0.6-0.6-1.1-0.5L77,322
				l-0.3-0.3c-0.2,0.1-0.3,0.5-0.8,0.2l-0.1-0.3c-0.6,0.2-1.4,0.4-1.9,0.1l-0.4-0.5c-0.2,0-0.7,0.2-0.3,0.3
				c-0.9-0.4-1.6-0.5-1.8-0.9c-1,0.2-1.9,0.3-3.5-0.2c-0.2,0.8-3.6-2.9-1-4.7c0.9-0.7,1.6-0.9,2.1-1.1v0.2c0.7,0,0.2-0.4,0.6-0.4
				c-0.1,0.2,0.5,0.3,0.2,0.6c0.8,0,0.9-0.6,1.4-0.8c0-0.3-0.4,0.3-0.3-0.1c0.1-0.1,1.1,0,1.1-0.4c0.2,0.1,0.1,0.4,0.1,0.6l0.4-0.3
				c0.6,0.3-1.1,1.1-0.4,1.5l0.4-0.2c0.5,0.3-1,0.7,0.1,0.6c0.4-0.3,0.7-0.9,0.2-1c0.9-0.3,0.3-1,1.3-1.2c0.3,0.2-0.8,0.2-0.6,0.5
				c0.5,0.2,0.9-0.4,1.4-0.3c-0.5-0.1-0.2-0.5,0.1-0.6c0.6,0.1-0.3,0.4,0.5,0.3c0.1-0.2,0.7-0.5,0.1-0.6c0.2-0.5,0.8,0,1.1-0.4
				c0.3,0.3-0.6,0.9,0.2,1c-0.2-0.3,0.9-0.6,0.4-1.1c0.3,0.1,0.4,0.3,0.2,0.6c0.5,0.1,1-0.8,1.3-0.1l0.1-0.4l0.6,0.3
				c0.4,0,1.2-0.6,1.3-0.1c0.1-0.1,1-0.2,0.6-0.5c-0.6-0.1-0.6,0.4-1-0.1c0.5,0.4,0.8-0.2,1.1-0.3l0.1,0.2c0.2-0.1,0.6-0.1,0.7-0.3
				c-0.1,0.1,0,0.3,0.1,0.3l0.2-0.3c0.8-0.2,0.3,0.5,1,0.3l-0.6,0.3c0.1-0.1,0.4,0.2,0.8,0.1l0.4-0.9c0.4-0.2,0.2,0.3,0.6,0
				l-0.5,0.4c-0.1,0.1,0.4,0.4,1,0.4c0.4-0.1,0.9-0.6,0.3-0.7c0.3,0,0.7,0.1,0.5,0.3c0.7-0.2-0.1-0.3,0.4-0.5c0.3,0.2,1,0.4,1.5,0.6
				l-0.5,0.5h0.4c-0.5,0.4,0.3,0.3,0,0.7c0.3,0,0.6-0.1,0.8-0.3c-0.8-0.6,0.8-1,0.5-1.5c1.1-0.2,0.7,1.4,1.9,0.4
				c-0.2-0.2,0.3-0.6-0.4-0.4c0.7,0.1,0.4-0.6,1.3-0.4c-0.6,0.3,0.7,0.6-0.2,1c0-0.2-0.5-0.1-0.6-0.1c0.3,0.2,0,0.6,0.7,0.6
				c0.4-0.1,1-0.1,0.9-0.4c0-0.3-0.6,0-0.4-0.3c0.8-0.1,1,0.4,1.3-0.2c-0.5,0.1-0.7-0.3-0.7-0.5l0.6-0.2l-0.1,0.2
				c1,0.1,0.3-0.4,1.3-0.4l0.5,0.4c-0.2,0.4-1.4-0.1-1.2,0.5c0.6,0,0.8-0.3,1.4-0.2l-0.4,0.1c0.2,0,0.5,0.8,1.3,0.3
				c0.5-0.2,0.1-0.2,0.1-0.5c1-0.1,1.3-0.3,2-0.3c-0.1,0.5,1.1,0.1,0.4,0.5c-0.3-0.3-1.8-0.3-2.1,0.2c0.4,0.5-0.8-0.1-1,0.5
				c0.8,0,0.8,0.5,0.9,0.9c0.2,0,0.4-0.1,0.6-0.2c0.1-0.3-0.2-0.3-0.2-0.7c0.9,0.1,1.8-0.1,2.3-0.4c0.3,0.2,0.2,0.5-0.2,0.5
				c1.1-0.1,2.2,0,3.2,0.1c-0.6-0.6,1.1-0.1,0.7-0.6c-0.5-0.1-1-0.5-0.7-0.8c0.3,0,0,0.2,0.1,0.4c0.4-0.3,0.7,0.5,1.1,0
				c-1,0.1-0.2,0.6-0.4,1.1c0.7-0.2,0,0.3,0.7,0.3c0.7-0.2,1.6-0.4,2.3-0.4c1,0.4,2.5,0.1,3.3,0.2c0.4,0.2,0.1,0.7,0.6,0.8
				c0.6,0-0.4-0.5,0.4-0.3l-0.1,0.1c0.3-0.1,1.5,0.4,1.8-0.3l-0.3,0.5c0.2,0.1,0.3-0.1,0.4-0.1c0,0.2,0.2,0.3-0.1,0.4
				c0.5,0.4,1.1,0,1.7,0l-0.4-0.3c1-0.2,1.6,0.1,2.6,0.1v0.3l0.6-0.2c-0.1,0.3,0.4,0.5,0.7,0.3l-1.5,0.7c-0.4-0.2,0.5-0.3,0.2-0.6
				c-0.2-0.3-1.1-0.2-1.2,0.1c0.3,0,0.4,0,0.6-0.1c0.1,0.4-0.4,0.4-0.7,0.7c0.2,0,0.4,0.1,0.5,0c-0.4,0.2-0.7,0.2-1.3,0.2
				c0.4-0.1-0.2-0.3,0-0.4c-0.1,0.4-0.6,0.5-1.3,0.3c-0.5-0.4-1.3,0.2-2.2,0.1c0.4-0.4,0.8-0.6,1.3-0.8c-0.5-0.2-0.6,0-1.1-0.2
				c-0.3,0.3-0.5,0.7-1.1,0.8v-0.3c-0.6,0.1-0.6,0.5-1.4,0.4c-1.3-0.2-2.7-0.3-3.7-0.3v-0.3c-0.6,0.6-1.9,0.2-2.7,0.4
				c-1.3-0.3-2.8,0.2-3.5-0.3c-2.3,0.2-4.2,0.5-6.6,0.4l0.4-0.4c-0.4,0.3-0.3-0.2-0.7-0.2c0.5,0.3-0.5,0.4-0.8,0.7
				c-1.1-0.2-2.4,0.2-3.3,0.6l-0.1-0.3c-0.9,0.6-2,0.3-3.2,0.3c-0.1-0.1-0.4-0.3-0.7-0.3c-0.6,0.5-0.9,0.5-1.8,0.9
				c-0.7,0.1-1.8,0.1-2.5,0c-2.4,1-5.1,1-7.5,1.9l-0.3-0.3c-0.4,0.7-3.5,1.6-1.9-1.2c0.5,0.3,2.1,0.7,3.1,0.7l-0.3,0.5
				c0.6,0.3,1.6,0.1,1.4-0.3c0.6,0.3,1.7,0,2.1,0.5c0.7,0.2,0.9-0.2,1.5-0.2c1.4,0.3,1.9,0.4,3.2,0.4H80c-0.2,0.1-0.2,0.3,0.1,0.4
				c0.5-0.1,1.8,0.2,1.4-0.4c1.4,0.5,3.3-0.1,4.6,0.4c-0.1-0.2,0.2-0.2,0.4-0.3c1.2,0,2.5,0.4,3.5,0.1c0.2,0.1-0.3,0.3,0.2,0.3
				c0.3-0.1,0-0.2,0.4-0.3c2-0.3,4.1,0.4,5.9,0.3c3.3-0.4,6.7-0.3,9.8-0.5v0.1c1-0.5,2.5,0.4,3.3-0.4c0.3,0.1,0.9,0,0.8,0.3
				c0.8-0.4,2.3,0.1,3.5-0.4l-0.3,0.1c1.3,0.2,2.2-0.4,3.4-0.3c-0.1,0.1-0.3,0.2-0.3,0.3c0.6,0.2,0.9-0.8,1.3-0.2
				c0.2-0.1,0.1-0.3-0.1-0.3c1.1,0.9,2.7-3.2,2.5,1.5c-0.3,0-2.3-0.1-3.6,0c-2-0.4-0.1-1.1-1.7-0.6c-0.1-0.1-0.1,0.2-0.1,0.1
				c-0.6,0.2-1-0.7-1.4-0.4c0.2,0.4-0.3,0.2-0.3,0.5c-1.3-0.3-1.5-0.6-2.6-0.3l0.1-0.2c-1.2,0.6-2.6,0.3-3.6,0.9
				c-7.1-0.1-13.2-1.2-19.5-1.7c-3.1-0.4-6.1-0.5-8.9-0.2c-0.8,0-1.3,0.2-2,0.3l-1,0.2h-0.2l0,0l0,0c-0.9,4.3,1.2-5.8,1-4.8l0,0l0,0
				l0,0l0.1,0.1l0.4,0.3c0.9,0.8,2.2,1.5,3.5,2.1c1,1.1,1.2,1,2.8,1.4c-0.1,0.1-0.2,0-0.1,0.2c0.2-0.4,1.1,0.3,1.4-0.1
				c2.2,0.7,4.3,1.1,6.6,1.6c-0.4,0-0.6,0.3-0.2,0.3l0.5-0.2l0.1,0.1c0.3,0,0.7-0.1,0.4-0.4c5.9,0.7,11.8,2.3,17.6,2
				c0.7,0.1,1.5,0,2.2-0.1l0.5-0.1h0.1h0.1l0,0l0,0c0.2-0.9-1.8,8-1,4.2l0,0l0,0l-0.1-0.1l-0.1-0.2c-0.3-0.4-0.7-1.4-0.6-2.3
				c1.1-3,1.1-1.6,1.7-2.5c0.5-2.6,4.2,5.2,1.3,3l-3.4-0.2c-2.2-0.8-4.4,1.4-6.7-1.3C104.7,323.9,103.7,320.7,106.1,321z"/>
			<path class="st24" d="M118.4,315.7c-0.2-0.2-0.7-0.4-0.3-0.6C118.2,315.3,118.4,315.5,118.4,315.7z"/>
			<path class="st24" d="M104.1,312.8c0,0.1-0.2-0.1-0.2-0.1c0.2,0,0.4-0.2,0.5-0.1C104.2,312.7,104.2,312.8,104.1,312.8z"/>
			<path class="st24" d="M100.4,312.6c0.1-0.2,0.9-0.3,1.3-0.3L100.4,312.6z"/>
			<path class="st24" d="M96.9,311.8c-0.3-0.2-0.2-0.3,0.2-0.3C97.2,311.6,97,311.7,96.9,311.8z"/>
			<path class="st24" d="M96.7,312.2c-0.3,0-0.4-0.1-0.6-0.2C96.1,312.2,96.8,311.9,96.7,312.2z"/>
			<path class="st24" d="M89.1,311.9c-0.2,0-0.6,0.2-0.7,0C88.5,312,89.2,311.6,89.1,311.9z"/>
			<path class="st24" d="M85.6,312.5h-0.3c-0.2-0.1,0-0.2,0.2-0.3L85.6,312.5z"/>
			<path class="st24" d="M112.5,322.2l-0.4,0.1v-0.2L112.5,322.2z"/>
			<path class="st24" d="M104.9,315.4c-0.4,0.1-0.2-0.2-0.3-0.2C105,315.2,104.5,315.4,104.9,315.4z"/>
			<path class="st24" d="M90.2,314.5L90.2,314.5v0.4V314.5z"/>
			<path class="st25" d="M385.7,50.7c0,0-68-53.4-139.1-3.2c-54,38.1-68,114.4-125.3,116.7C64,166.4,17.2,104.9,37,61.9
				c15.2-33.1,50,9,26.8,48.7c-13.6,23.3-49.7,64.6-132.5,47.2c-185.6-38.9-250.8,84.7-250.8,84.7"/>
		</g>
	</g>
</g>
</svg>
