<?xml version="1.0" encoding="UTF-8" standalone="no"?>
<svg
   width="159"
   height="92"
   viewBox="0 0 159 92"
   fill="none"
   version="1.1"
   id="svg1360"
   sodipodi:docname="svgPage70Dog.svg"
   inkscape:version="1.2.1 (9c6d41e410, 2022-07-14)"
   xmlns:inkscape="http://www.inkscape.org/namespaces/inkscape"
   xmlns:sodipodi="http://sodipodi.sourceforge.net/DTD/sodipodi-0.dtd"
   xmlns="http://www.w3.org/2000/svg"
   xmlns:svg="http://www.w3.org/2000/svg">
  <defs
     id="defs1364" />
  <sodipodi:namedview
     id="namedview1362"
     pagecolor="#ffffff"
     bordercolor="#000000"
     borderopacity="0.25"
     inkscape:showpageshadow="2"
     inkscape:pageopacity="0.0"
     inkscape:pagecheckerboard="0"
     inkscape:deskcolor="#d1d1d1"
     showgrid="false"
     inkscape:zoom="3.631149"
     inkscape:cx="79.589133"
     inkscape:cy="45.990952"
     inkscape:window-width="3840"
     inkscape:window-height="2066"
     inkscape:window-x="-11"
     inkscape:window-y="-11"
     inkscape:window-maximized="1"
     inkscape:current-layer="svg1360" />
  <path
     d="M113 26.6779C113 26.6779 112.99 18.3918 111.344 12.4367C109.689 6.47627 106.404 0.138293 102.185 0.714475C98.6353 1.20442 99.7879 4.26564 102.949 8.86986C105.591 12.7254 106.936 13.9562 108.049 18.6297C109.162 23.3084 109.143 26.6282 109.143 26.6282L113 26.6779Z"
     fill="#7A411B"
     id="path1330" />
  <path
     d="M132.102 24.9192C134.116 28.2692 132.528 31.447 129.469 32.3211C126.416 33.2001 123.396 32.5571 121.631 29.2441C120.275 26.703 121.099 22.8219 124.154 21.9417C127.213 21.0664 130.611 22.4482 132.102 24.9192Z"
     fill="white"
     id="path1332" />
  <path
     d="M115.059 65.7701C118.048 66.8919 122.95 66.5431 122.95 66.5431C122.95 66.5431 131.029 66.4566 131.958 70.4554C132.521 72.871 127.282 71.1023 127.282 71.1023C127.282 71.1023 131.6 73.529 129.228 75.2878C126.861 77.0405 124.786 74.5841 124.786 74.5841C124.786 74.5841 125.824 78.3206 122.381 77.581C118.934 76.8364 118.601 73.0763 118.601 73.0763C118.601 73.0763 115.274 70.6397 109.14 69.4783C102.734 68.2661 92 68.25 92 68.25L100.278 62.6779C100.278 62.6779 110.989 64.2413 115.059 65.7701Z"
     fill="#7A411B"
     id="path1334" />
  <path
     d="M40.7451 68.1098C29.0521 69.5463 22.9463 67.8283 19.6588 67.6398C14.8532 67.3621 9.71065 68.2581 10.0127 63.8344C10.316 59.3817 14.8079 64.513 14.8079 64.513C14.8079 64.513 11.7627 61.3473 13.8356 59.2284C16.274 56.7413 17.7998 61.8022 17.7998 61.8022C17.7998 61.8022 16.7485 56.3103 20.2071 57.0769C22.2165 57.5218 22.3643 61.5685 22.3643 61.5685C22.3643 61.5685 27.2048 63.2487 34.6808 61.581C41.077 60.1647 48.2821 51.6779 48.2821 51.6779L62 61.1801C62 61.1789 46.6954 67.3834 40.7451 68.1098Z"
     fill="#7A411B"
     id="path1336" />
  <path
     d="M93.6321 28.1898C93.6321 28.1898 107.003 16.7486 122.531 24.197C149.677 37.2214 158.42 53.3039 155.447 57.8406C152.928 61.6844 137.841 58.2159 121.623 57.5752C112.584 63.1749 103.925 64.7778 98.955 62.9696C83.6997 62.6035 86.1439 31.5041 86.1439 31.5041L93.6321 28.1898Z"
     fill="#A35625"
     id="path1338" />
  <path
     d="M93.1366 28.1502C93.1366 28.1502 82.4087 22.6636 66.136 22.6779C49.8685 22.691 34.941 28.7126 31.6328 41.7742C28.3284 54.837 30.2095 72.1404 35.7416 76.6296C46.6881 85.5144 66.5504 86.461 82.2629 82.3011C102.22 77.0203 107 55.449 107 55.449L93.1366 28.1502Z"
     fill="#A35625"
     id="path1340" />
  <path
     d="M106 26.8286C106 26.8286 102.047 15.028 94.7617 11.284C88.4254 8.03035 78.723 5.58603 80.1393 10.3234C81.5544 15.0633 89.2106 14.8906 94.4506 19.2359C99.6855 23.5813 103.108 28.6779 103.108 28.6779L106 26.8286Z"
     fill="#A35625"
     id="path1342" />
  <path
     d="M110.478 77.8359C112.957 79.7625 117.68 80.814 117.68 80.814C117.68 80.814 125.322 83.0263 124.989 87.1267C124.783 89.6051 120.379 86.427 120.379 86.427C120.379 86.427 123.723 89.9768 120.956 90.9935C118.197 92.0065 116.977 89.0607 116.977 89.0607C116.977 89.0607 116.826 92.9411 113.804 91.252C110.782 89.5641 111.606 85.854 111.606 85.854C111.606 85.854 109.209 82.5764 103.775 79.7177C98.1089 76.7347 88 73.6821 88 73.6821L97.4784 70.6779C97.4784 70.6779 107.104 75.2158 110.478 77.8359Z"
     fill="#A35625"
     id="path1344" />
  <path
     d="M30.7442 84.2808C19.0079 85.3258 12.9511 84.0002 9.65823 83.8046C4.85377 83.5252 -0.292944 84.4319 0.0130061 79.9596C0.313771 75.4632 4.80581 80.644 4.80581 80.644C4.80581 80.644 1.76056 77.4466 3.83869 75.307C6.27204 72.7927 7.80439 77.9088 7.80439 77.9088C7.80439 77.9088 6.68819 72.6708 10.204 73.1318C12.3586 73.4149 12.3638 77.6701 12.3638 77.6701C12.3638 77.6701 16.1675 79.2548 24.6757 77.6892C31.1305 76.5019 38.2815 67.6779 38.2815 67.6779L52 77.2777C52 77.2777 43.5526 83.143 30.7442 84.2808Z"
     fill="#A35625"
     id="path1346" />
  <path
     d="M35 38.3287C35 38.3287 21.867 38.6974 13.2338 33.6809C8.12448 30.7114 6.83915 23.0385 7.01547 26.604C7.18795 30.1682 8.69813 35.2786 14.9804 39.9317C22.9019 45.7862 32.8842 45.6778 32.8842 45.6778L35 38.3287Z"
     fill="#A35625"
     id="path1348" />
  <path
     d="M118.881 31.8432C121.18 35.2928 119.713 39.0769 116.512 40.1362C113.307 41.198 109.777 40.8922 107.748 37.4646C106.182 34.8387 107.094 30.1164 110.299 29.0481C113.498 27.9875 117.177 29.294 118.881 31.8432Z"
     fill="white"
     id="path1350" />
  <path
     d="M117.828 35.2045C118.18 35.7817 117.957 36.4132 117.465 36.5875C116.97 36.7653 116.427 36.7122 116.117 36.1431C115.875 35.7055 116.01 34.9193 116.509 34.7381C116.998 34.5638 117.562 34.7831 117.828 35.2045Z"
     fill="#231F20"
     id="path1352" />
  <path
     d="M130.825 25.2037C131.183 25.7778 130.957 26.4117 130.461 26.5872C129.97 26.7651 129.426 26.7127 129.113 26.1447C128.877 25.7059 129.012 24.9173 129.51 24.7406C130 24.5626 130.566 24.7784 130.825 25.2037Z"
     fill="#231F20"
     id="path1354" />
  <path
     d="M142 59.6451C142 59.6451 142.767 54.8833 145.129 50.0693C147.093 46.059 149.732 42.6779 149.732 42.6779C149.732 42.6779 163.81 57.3824 157.264 59.7069C151.026 61.9271 142 59.6451 142 59.6451Z"
     fill="#231F20"
     id="path1356" />
  <path
     d="M105 48.6779C105 48.6779 104.9 50.4773 107.6 52.1319C109.416 53.2419 112 52.3159 112 52.3159"
     stroke="#231F20"
     stroke-width="0.68"
     stroke-linecap="round"
     id="path1358" />
</svg>
