<svg width="159" height="151" viewBox="0 0 159 151" fill="none" xmlns="http://www.w3.org/2000/svg">
<path d="M36.1164 139.007C34.7469 139.068 36.8464 139.363 35.2183 139.141C35.4061 138.987 35.6747 138.875 36.1164 139.007Z" fill="#D3D2C2"/>
<path d="M55.819 145.754C52.2347 146.795 41.7077 144.79 50.3544 145.338C50.9164 145.393 50.1039 145.869 51.4009 145.946C56.137 145.806 63.4292 145.998 69.1821 146.268L68.8459 146.444C69.9402 146.499 71.2321 145.886 72.3824 145.877C72.3989 145.981 72.0248 146.052 72.3 146.176C72.567 145.846 74.3665 145.881 74.8329 145.604C75.2959 145.689 75.2729 145.942 75.8694 146.031L76.4973 145.623C78.2457 144.623 80.9286 145.296 83.3741 144.612C83.2621 144.704 83.0215 144.793 83.2274 144.854C87.1644 143.948 92.151 143.494 96.5724 142.766C96.4109 142.911 96.2758 143.16 96.5526 143.269C96.7273 142.868 98.0869 142.609 99.2685 142.387C99.8551 142.7 101.266 141.779 102.688 141.809L102.579 141.911C103.558 141.373 104.138 141.94 104.911 141.349L105.606 141.563C105.985 140.963 107.136 141.64 107.95 141.25L107.907 141.143C108.691 140.902 109.146 141.116 109.88 140.919L109.959 140.971C111.679 140.584 112.737 140.739 112.633 140.322C113.292 140.573 110.965 140.719 111.997 141.072C114.833 140.442 117.727 139.922 120.627 139.419L124.973 138.658L127.097 138.218C127.745 139.218 125.853 138.452 125.551 138.476C124.956 138.183 124.551 138.025 124.423 137.863C123.831 137.895 122.224 137.743 121.689 137.911C121.885 137.913 121.328 137.666 121.016 137.644C119.965 137.451 119.843 138.076 118.689 137.85C119.154 137.751 119.317 137.618 119.162 137.456C118.164 137.74 116.839 137.699 115.665 137.817C115.848 137.745 116.132 137.7 116.086 137.567C114.805 137.959 113.742 137.486 112.623 137.771L113.037 137.512C111.216 137.272 112.515 138.041 110.946 137.914C111.32 137.824 111.185 137.733 111.249 137.631C109.8 138.109 107.437 138.063 105.989 138.293C106.074 138.254 106.046 138.188 106.046 138.188C104.466 138.312 102.8 138.267 101.068 138.572C100.427 138.501 101.239 137.961 99.5667 138.153C99.659 138.635 96.7323 138.536 97.7557 139.028C96.3203 139.048 94.0379 139.019 93.0986 139.253C93.7281 139.022 92.357 138.701 93.5468 138.577L92.6223 138.341C92.741 138.129 93.5534 138.345 93.2502 138.111C92.6536 138.17 90.9299 138.501 90.3894 138.458C89.305 138.847 88.3328 139.48 86.5497 139.684C87.3753 139.426 86.0306 139.182 86.5942 139.052L84.1734 140.192C83.5818 140.263 84.0135 139.815 83.1632 140.012C83.2176 140.139 82.8484 140.248 82.5963 140.375C82.3672 140.335 80.1326 140.699 79.8344 140.236C79.5542 140.07 80.7934 140.057 80.1211 139.938C79.0236 140.032 78.989 140.202 77.8914 140.299L77.8618 140.236C77.1334 140.225 75.7409 140.62 76.5517 140.821C77.0592 140.795 76.3358 140.546 77.0955 140.627C76.6077 140.948 75.3371 141.133 74.2379 141.228C74.6054 141.12 74.5494 140.994 74.6879 140.844C73.2426 141.347 71.6886 141.598 70.0472 141.888C70.0407 142.12 70.629 141.42 70.8844 141.522C68.7438 141.377 66.5454 142.323 64.7442 141.983C65.0309 141.922 64.9222 142.298 64.8975 142.235C63.8741 142.285 63.8988 141.947 63.2396 142.112C63.1589 141.921 62.4025 142.227 61.717 142.331C61.3692 142.492 61.534 142.245 62.1289 142.188C61.2407 142.466 57.223 142.875 55.0774 142.517C55.1186 142.647 53.7278 142.985 53.2251 142.977L53.4213 142.674C52.9598 142.492 51.7305 142.703 51.6431 142.445C50.567 142.815 55.7976 142.122 54.3408 142.41C53.9601 142.151 52.3089 142.899 52.622 142.483C51.6052 142.492 50.628 142.85 49.6573 142.578C49.9375 142.624 50.4731 142.148 49.6541 142.179C48.2105 142.253 49.2454 142.329 48.077 142.455L47.3453 142.596C47.3074 142.893 46.0583 142.585 46.6021 142.904C46.4175 142.661 44.5207 143.124 44.6493 142.629L44.8355 142.235C44.2142 142.286 43.8319 142.675 43.3524 142.871C43.2683 142.84 43.1019 142.769 43.1315 142.707C43.0607 143.307 41.6451 142.723 40.9398 143.232C39.628 143.101 37.6719 143.465 37.0325 143.165C36.0833 143.471 35.2083 143.766 34.1783 143.868C34.3711 143.775 34.6513 143.7 34.6875 143.564C34.0267 143.539 33.7894 143.681 33.3576 143.951C33.239 143.835 32.2601 144.124 32.5238 143.372C32.972 143.536 33.1714 143.165 33.2472 143.021C33.6674 143.966 35.4785 143.412 36.5134 144.088C36.1706 144.121 35.0896 144.119 35.8477 144.412C36.6321 145.141 37.6933 144.269 39.1023 144.709L38.8024 144.188C39.4171 144.556 40.9629 144.149 40.7668 144.618C41.2727 144.49 42.4757 144.94 42.357 144.453C44.7218 145.078 48.2286 144.686 49.6541 145.63C50.0067 145.574 50.8669 145.711 50.7038 145.455C50.1468 145.157 49.8881 145.591 49.6854 145.399C49.9985 145.404 50.0726 145.281 50.1105 145.218C50.8538 145.375 51.4437 145.444 50.7087 145.792C52.3633 146.192 52.4852 145.104 54.6044 145.414C54.494 145.604 54.6523 145.686 55.2785 145.693L56.4798 145.427C57.8525 145.582 57.2395 145.915 57.2527 146.246C57.9926 146.23 58.894 146.296 59.2434 146.067L60.1168 146.53C59.4774 146.197 60.7331 146.362 61.0825 146.299L60.7331 146.362C60.8617 146.51 61.7202 146.467 62.1553 146.447C62.0597 146.238 61.1962 146.11 60.7233 146.026C61.1056 145.9 61.6906 145.965 62.1998 145.82C62.0169 146.134 63.3913 146.113 63.973 146.174C64.642 146.276 64.7459 145.922 64.942 145.94C64.9518 146.11 66.0362 146.022 65.5023 146.233C65.2699 146.276 64.9864 146.044 64.5992 146.172C65.0359 146.321 64.9716 146.611 65.9011 146.443C66.6014 146.316 65.7544 145.793 67.0562 146.062C66.7085 146.126 66.6393 146.253 66.3641 146.355L67.5902 146.583L67.6577 146.289C67.8192 146.373 67.7039 146.393 67.778 146.436C68.1587 146.141 69.66 146.428 69.9566 146.092C70.5795 146.088 71.2569 146.355 71.8501 146.416L71.7331 146.438C72.4516 146.645 73.4206 146.574 74.0386 146.403L74.0023 146.467C74.3978 146.507 75.3355 146.503 75.8414 146.352C76.8318 146.619 76.1265 147.482 77.252 147.161C78.2705 147.201 78.8571 146.685 78.4633 146.482C80.2727 146.737 82.354 146.319 84.0251 146.828C84.2887 146.718 84.1272 146.637 84.6694 146.584C87.3407 146.818 90.302 146.386 92.413 146.907C91.6435 147.039 92.3636 147.204 92.3817 147.372C93.0145 147.1 93.1497 147.641 93.3754 147.182C93.3095 146.915 93.3705 146.785 92.6223 146.685C94.206 146.527 96.6136 146.502 97.5019 146.742C97.0569 146.622 97.3964 146.538 97.7392 146.454C97.637 146.864 98.8186 146.975 99.687 146.726L99.7991 146.457L100.384 146.681C100.717 146.571 100.727 146.108 101.61 146.289C101.663 146.388 101.721 146.485 101.884 146.546C102.78 146.266 104.029 145.808 105.031 145.953L105.873 146.269C106.29 146.197 106.977 145.917 106.226 145.862C107.93 145.965 109.018 145.925 109.581 146.129C112.289 144.826 116.593 144.236 119.642 143.59L119.607 143.799C120.402 143.779 120.075 143.354 120.303 143.382C120.255 143.6 120.756 143.638 120.553 143.961C120.566 144.06 121.229 143.641 120.627 144.126C120.135 145.724 120.959 145.732 120.647 145.829C120.947 146.164 120.533 146.123 120.204 146.121C120.037 146.344 120.762 146.088 120.543 146.367C120.479 146.424 119.202 145.846 118.864 146.218C118.587 146.021 118.864 145.778 119.057 145.65L118.284 145.717C117.411 145.121 120.515 145.253 119.642 144.552L118.915 144.498C118.277 143.989 120.911 144.351 119.103 143.926C118.277 143.976 117.531 144.473 118.215 144.719C116.552 144.64 117.346 145.539 115.591 145.32C115.133 145.042 117.007 145.414 116.7 145.066C115.906 144.653 115.008 145.073 114.275 144.895C115.089 145.113 114.355 145.441 113.813 145.464C112.925 145.202 114.433 145.151 113.154 144.999C112.923 145.205 111.725 145.284 112.739 145.515C112.233 145.984 111.409 145.276 110.679 145.614C110.285 145.228 112.066 144.893 110.659 144.61C110.862 144.964 108.876 144.954 109.593 145.513C109.044 145.376 109.001 145.103 109.42 144.921C108.639 144.658 107.45 145.418 107.231 144.722L106.936 145.053C106.691 144.925 106.34 144.819 105.944 144.605C105.241 144.554 103.649 144.94 103.744 144.414C103.514 144.457 101.908 144.338 102.507 144.74C103.494 145.022 103.673 144.541 104.199 145.068C103.517 144.622 102.754 145.034 102.169 145.134L102.086 144.925C101.737 144.984 100.948 144.893 100.719 145.101C100.991 145.001 100.86 144.852 100.592 144.786L100.209 145.075C98.7988 145.146 99.9128 144.508 98.5434 144.516L99.5931 144.34C99.3624 144.376 98.9174 144.058 98.2583 144.114C97.988 144.383 97.4903 144.694 97.258 144.9C96.4818 144.976 96.9333 144.557 96.1572 144.801L97.1706 144.524C97.3272 144.44 96.5312 144.01 95.5029 143.951C94.8404 144.007 93.7907 144.348 94.8174 144.572C94.3032 144.546 93.588 144.322 94.0132 144.142C92.8333 144.154 94.1483 144.46 93.1216 144.561C92.7195 144.34 91.4506 143.982 90.6942 143.639L91.7868 143.247L91.0881 143.191C92.0241 142.881 90.653 142.867 91.1969 142.506C90.7239 142.402 90.1323 142.486 89.661 142.55C91.0288 143.316 87.9587 143.28 88.402 143.91C86.5118 143.941 87.3292 142.392 85.2923 143.188C85.6054 143.361 84.6496 143.751 85.8526 143.653C84.6793 143.519 85.0171 144.193 83.6427 143.867C84.6859 143.689 82.5699 143.209 84.0761 142.949C83.9674 143.137 84.9001 143.145 85.1308 143.105C84.6595 142.85 85.2676 142.519 84.058 142.448C83.3181 142.456 82.3013 142.423 82.4331 142.735C82.4447 143.071 83.5636 142.756 83.0725 143.071C81.596 143.11 81.3735 142.588 80.7358 143.153C81.6685 143.153 81.8811 143.511 81.8531 143.74L80.7687 143.826L80.9862 143.613C79.2625 143.366 80.4556 143.992 78.7813 143.855L78.0134 143.379C78.4303 143.016 80.449 143.658 80.1788 143.026C79.0862 142.952 78.7105 143.247 77.6887 143.041L78.4616 142.954C78.0711 142.918 77.7184 142.076 76.1364 142.492C75.3223 142.644 75.9139 142.702 75.8843 142.932C74.1226 142.931 73.5903 143.143 72.4565 143.138C72.7054 142.697 70.4559 143.02 71.7232 142.604C72.2901 142.89 74.8329 142.964 75.4739 142.56C74.8559 142 76.8516 142.692 77.2487 142.166C75.8398 142.094 75.9304 141.573 75.7178 141.217C75.3273 141.177 74.9416 141.308 74.706 141.352C74.528 141.668 75.0388 141.685 75.0553 142.021C73.4848 141.868 71.9622 141.995 71.0822 142.278C70.5614 142.097 70.7394 141.779 71.364 141.771C69.487 141.795 67.488 141.685 65.7099 141.525C66.8437 142.092 63.7225 141.584 64.4921 142.051C65.4429 142.201 66.2488 142.604 65.7148 142.825C65.1216 142.771 65.7412 142.593 65.4957 142.473C64.7261 142.738 64.3339 141.97 63.5725 142.403C65.2897 142.286 63.9252 141.767 64.2531 141.364C63.0106 141.556 64.3174 141.069 63.0946 141.031C61.857 141.22 60.3393 141.357 58.9698 141.405C57.2626 140.961 54.6176 141.273 53.0851 141.248C52.2858 141.016 52.8428 140.561 51.9744 140.456C50.951 140.437 52.7176 140.983 51.2097 140.727L51.3597 140.639C50.8966 140.734 48.5878 140.246 48.1248 140.91L48.6043 140.414C48.3225 140.36 48.0589 140.47 47.8232 140.518C47.8166 140.353 47.4903 140.194 47.955 140.095C47.0273 139.722 45.9891 140.103 44.9739 140.093L45.6216 140.409C43.8764 140.604 42.7179 140.278 41.0337 140.345L41.0914 140.052L40.0845 140.207C40.3366 139.927 39.422 139.722 38.8881 139.95L41.5067 139.286C42.2252 139.475 40.7091 139.623 41.1573 139.923C41.5363 140.187 43.0936 140.142 43.3524 139.864C42.7558 139.816 42.7278 139.882 42.2614 139.978C42.0752 139.562 42.9799 139.6 43.4331 139.335C43.12 139.345 42.6784 139.211 42.6091 139.338C43.2271 139.154 43.8467 139.136 44.8685 139.15C44.1747 139.295 45.2393 139.414 44.9756 139.525C45.0646 139.167 46.0434 139.078 47.3058 139.21C48.1957 139.651 49.6821 139 51.1438 139.155C50.5407 139.505 49.7744 139.778 48.8812 139.904C49.7958 140.111 49.9045 139.918 50.8191 140.128C51.2723 139.867 51.6003 139.459 52.8033 139.325L52.8609 139.597C53.9502 139.487 53.9601 139.088 55.3411 139.201C57.7075 139.401 60.1448 139.473 61.9526 139.562L62.0119 139.833C63.0369 139.29 65.3704 139.727 66.7316 139.52C69.0272 139.856 71.7463 139.44 72.9097 139.95C76.9851 139.904 80.5512 139.849 84.765 140.19L84.0316 140.54C84.8045 140.296 84.5112 140.793 85.2544 140.779C84.4206 140.419 86.3058 140.429 86.8463 140.231C88.7217 140.645 91.1458 140.578 92.8052 140.405L92.8497 140.678C94.5504 140.302 96.5164 140.868 98.5994 141.082C98.8317 141.207 99.1926 141.482 99.8172 141.49C100.974 141.125 101.567 141.189 103.247 141.017C104.461 141.09 106.43 141.317 107.653 141.565C112.426 141.393 116.578 141.637 122.195 142.665L122.803 143.407C123.086 143.735 123.419 143.488 123.566 144.739C123.503 146.162 122.575 146.625 122.631 146.563L121.42 147.214L119.495 147.814L115.731 148.471C113.228 148.844 110.814 149.218 108.853 149.649L109.174 149.083C107.914 149.015 106.353 149.44 106.707 149.798C105.442 149.728 103.601 150.299 102.774 149.915C101.49 149.911 101.226 150.284 100.162 150.437C97.5892 150.396 96.6482 150.353 94.2373 150.511L94.8371 150.538C95.0992 150.416 95.1189 150.185 94.5174 150.157C93.6193 150.318 91.2133 150.045 92.1098 150.683C89.5291 150.388 86.108 150.943 83.6279 150.356C83.8339 150.539 83.2044 150.554 82.9374 150.665C80.6962 150.597 78.3215 150.188 76.5368 150.393C76.1875 150.289 77.1169 150.117 76.2072 150.058C75.6667 150.103 76.1875 150.289 75.5184 150.356C71.8847 150.524 68.2032 149.686 64.9074 149.608C59.0325 149.663 52.9285 149.162 47.2992 148.811L47.3717 148.685C45.4502 149.05 42.9947 147.843 41.4144 148.438C40.9793 148.275 39.7104 148.216 40.0664 147.998C38.4563 148.145 36.0091 147.299 33.3659 147.061C33.6081 147.141 33.7597 147.158 34.0564 147.179C32.537 146.433 32.003 146.818 30.0354 144.895C29.8426 138.992 33.1747 141.228 33.7235 140.416C33.4796 140.521 33.0297 140.653 32.9868 140.795C33.9937 140.82 35.1588 139.823 35.7405 140.398C36.2679 140.32 36.08 140.035 35.7554 140.096C40.9793 139.714 46.3417 139.218 51.653 139.01C55.4449 139.375 51.8854 140.055 54.8747 139.594C55.1186 139.716 55.0527 139.355 55.0939 139.485C56.2524 139.314 56.8868 140.198 57.6943 139.882C57.368 139.493 58.2316 139.676 58.2596 139.442C60.3689 139.615 60.9441 139.932 62.7008 139.521L62.5788 139.732C64.6486 139.027 67.1238 139.142 68.8607 138.343C80.5364 137.28 91.739 135.917 103.232 135.189C108.93 134.96 114.548 134.656 120.367 134.826C121.797 134.826 123.341 135.021 124.841 135.149L127.348 135.673L127.506 135.708C127.074 135.657 128.58 135.85 126.56 135.596L126.655 135.593L127.049 135.581L127.438 135.576C127.608 135.67 128.17 135.395 129.401 136.449C130.873 138 129.897 140.016 129.676 140.108C129.18 140.739 129.228 140.531 128.949 140.767C126.962 141.664 127.657 141.191 126.921 141.448C123.991 142.006 121.201 142.39 118.317 142.753C115.562 142.634 115.367 142.679 112.459 143.318C112.569 143.216 112.747 143.17 112.539 143.117C112.455 143.572 110.476 143.451 110.254 143.901C106.022 144.414 102.142 145.042 97.7886 145.581C98.4708 145.449 98.7724 145.055 97.9567 145.184L97.136 145.564L96.9828 145.459C96.4307 145.591 95.844 145.881 96.4389 145.948C85.5247 147.627 74.645 147.871 63.7785 148.417C61.183 148.32 57.4982 148.545 54.5946 148.474C52.4539 148.216 50.3808 147.917 48.077 147.089L47.6485 146.929L47.5941 146.909L47.581 146.902L47.5744 146.901C47.4096 145.246 47.9303 150.599 47.2069 143.193C47.1525 143.227 47.0718 143.254 47.0784 143.396C47.0174 143.829 47.024 144.478 47.3799 144.844C48.5203 145.332 48.5104 144.417 48.0193 145.653C49.4118 148.025 48.1528 146.354 48.2962 146.922L46.9861 147.29C46.8822 147.316 46.7191 147.382 46.841 147.314C46.6598 146.988 47.2909 148 46.4455 146.569C44.9311 143.929 47.604 149.13 47.754 146.22C47.8759 143.01 45.0711 143.714 45.6661 143.694C45.9099 143.864 44.5043 143.432 46.3829 144.063C46.5741 143.376 46.4735 143.877 46.5329 143.728L47.0635 143.824C47.4425 143.893 47.9798 143.939 48.4329 143.999C52.4803 144.485 55.7844 144.353 60.9441 144.867C60.7496 144.795 59.0802 145.62 55.819 145.754Z" fill="#D3D2C2"/>
<path d="M37.761 138.997C38.0511 139.223 39.0036 139.361 38.2356 139.637C38.1434 139.429 37.6572 139.19 37.761 138.997Z" fill="#D3D2C2"/>
<path d="M63.23 141.906C63.2646 141.843 63.5909 142.006 63.6716 142.044C63.3552 142.051 63.0569 142.224 62.8081 142.103C63.1295 142.097 63.0817 141.993 63.23 141.906Z" fill="#D3D2C2"/>
<path d="M69.7472 142.255C69.6417 142.445 68.241 142.552 67.417 142.547L69.7472 142.255Z" fill="#D3D2C2"/>
<path d="M75.783 143.29C76.2988 143.475 76.1522 143.559 75.4468 143.524C75.4007 143.42 75.6347 143.377 75.783 143.29Z" fill="#D3D2C2"/>
<path d="M76.2336 142.867C76.7379 142.883 76.9834 143.007 77.224 143.129C77.2108 142.96 76.0523 143.183 76.2336 142.867Z" fill="#D3D2C2"/>
<path d="M89.2693 144.172C89.5923 144.185 90.3026 144.086 90.586 144.328C90.263 144.147 88.9958 144.432 89.2693 144.172Z" fill="#D3D2C2"/>
<path d="M95.4766 144.351C95.6727 144.378 95.7534 144.417 95.9874 144.381C96.345 144.491 95.9528 144.607 95.6447 144.605L95.4766 144.351Z" fill="#D3D2C2"/>
<path d="M37.728 144.193L38.3806 144.185L38.2636 144.364L37.728 144.193Z" fill="#D3D2C2"/>
<path d="M73.6445 141.663C74.2955 141.489 74.1175 141.807 74.2296 141.827C73.6363 141.897 74.4322 141.57 73.6445 141.663Z" fill="#D3D2C2"/>
<path d="M99.8837 138.687L99.6826 138.705L99.7238 138.305L99.8837 138.687Z" fill="#D3D2C2"/>
<path d="M41.907 115.707C42.4673 116.069 42.965 125.67 41.9103 126.25C38.1893 128.104 22.2438 133.477 7.81781 122.078C2.37962 117.782 0.878349 111.455 0 104.771C4.46755 111.637 8.3468 118.797 24.368 119.807C27.949 120.034 37.8366 117.32 41.907 115.707Z" fill="#A35625"/>
<path d="M105.177 80.451C109.327 87.0312 112.628 101.24 114.791 107.075C117.019 113.232 118.479 122.259 120.755 121.305C128.37 118.118 132.998 128.594 123.865 126.913C125.453 127.208 129.379 129.762 128.431 131.605C127.103 134.841 121.709 132.405 120.312 130.598C122.589 133.538 124.122 136.833 118.283 136.033C113.967 135.438 113.389 130.665 113.387 127.371C113.066 120.829 104.292 100.838 100.352 90.0239C96.2109 78.6515 103.195 77.31 105.177 80.451Z" fill="#7A411B"/>
<path d="M120.075 6.34666C118.01 7.41617 113.874 7.00255 112.33 7.23326C108.052 7.87596 104.777 10.0446 104.357 14.649C103.993 18.6551 104.199 23.3797 103.887 27.5078C103.755 29.2925 105.593 30.1214 103.698 30.4181C102.857 30.5548 99.7987 29.5941 98.9203 29.342C97.0252 28.7965 96.4649 28.3598 95.8172 26.4465C94.5088 22.564 94.5533 16.404 95.1943 12.477C95.9342 7.89078 97.9431 3.96375 102.313 1.89395C106.427 -0.0588568 111.41 -0.426356 115.84 0.447049C117.575 0.794764 119.826 0.957907 120.714 2.64869C121.762 4.6361 121.255 5.73198 120.075 6.34666Z" fill="#7A411B"/>
<path d="M108.021 79.4572C110.702 89.3448 110.923 89.6563 111.755 97.5713C112.343 103.099 112.935 108.601 113.032 114.168C113.078 116.999 112.482 120.016 111.455 122.648C110.115 126.067 107.872 129.752 105.165 132.222C97.1971 139.496 85.7176 137.493 75.278 137.493C76.8072 139.277 44.628 132.262 42.1264 130.805C39.5804 129.325 37.677 126.461 36.2548 123.932C33.4451 118.937 33.3429 110.921 33.539 105.289C34.0285 91.5283 39.32 64.7494 66.2687 42.4314C66.6905 30.4345 77.3478 24.3601 79.3269 22.5985C76.3112 20.2337 71.2537 15.9639 67.4404 16.3677C61.8258 17.1323 57.7423 23.5098 51.3681 21.7235C43.0674 19.3125 49.2455 13.3124 53.9487 9.57983C58.6931 5.8143 64.8976 4.02629 70.7395 5.33311C75.6487 6.43393 85.4292 16.9626 86.4114 19.5383C90.3351 19.4032 101.917 16.2902 117.047 25.812C126.547 31.794 140.152 45.0994 143.768 49.3478C148.822 55.2771 153.319 60.5851 156.435 67.9826C158.1 71.9377 159.184 75.2797 154.478 77.1633C149.55 79.1326 140.264 75.4396 135.405 74.4063C131.512 73.5741 118.513 70.3672 115.043 69.3405C113.222 73.8279 110.4 77.6923 108.021 79.4572Z" fill="#A35625"/>
<path d="M97.9269 89.5312C100.692 96.8002 101.132 111.381 102.104 117.53C103.073 123.999 102.732 133.139 105.148 132.658C113.241 131.031 115.716 142.212 107.094 138.767C108.594 139.366 111.938 142.644 110.647 144.264C108.706 147.174 103.901 143.724 102.884 141.68C104.535 145.007 105.387 148.54 99.822 146.606C95.7104 145.175 96.0828 140.377 96.7288 137.147C97.7011 130.672 93.0374 109.341 91.3088 97.9653C89.4911 85.9963 96.597 86.0623 97.9269 89.5312Z" fill="#B7682A"/>
<path d="M65.6913 141.019C64.3779 139.065 53.2511 141.927 45.3245 138.56C34.4778 133.953 32.4838 116.023 32.4706 110.387C32.4525 102.947 33.0705 99.712 34.4778 96.3536C38.7855 92.6968 45.4283 94.2129 49.9437 95.9119C59.9813 99.6906 62.1681 108.186 60.563 117.813C59.6566 123.233 59.1078 126.802 58.1273 132.216C58.04 132.7 58.5558 133.228 59.0353 133.221C66.7279 133.075 70.5099 131.997 78.4431 134.869C80.6529 135.67 85.165 137.175 84.5108 140.185C83.3259 144.356 78.9325 140.769 77.4741 140.037C78.9045 141.818 82.3635 145.767 78.2832 147.43C75.1538 148.631 72.5237 143.719 71.0422 141.688C72.6209 143.654 73.3477 148.479 69.6085 148.85C66.4807 149.158 67.1498 143.208 65.6913 141.019Z" fill="#B7682A"/>
<path d="M135.404 74.4047C136.363 70.4661 140.098 66.5161 141.556 64.2831C142.759 62.4786 144.761 57.454 148.173 54.145C151.178 57.8083 154.947 61.5821 156.949 66.3298C158.612 70.2898 160.537 76.0592 155.832 77.9428C150.905 79.9121 136.238 74.5794 135.404 74.4047Z" fill="#231F20"/>
<path d="M103.283 27.6232C104.408 27.6232 106.974 28.5395 106.974 28.5395C112.907 31.0081 115.095 40.5578 107.294 44.0399C102.248 46.2152 97.5627 43.1303 96.1504 39.3466C94.1317 33.9233 97.3155 27.4057 103.283 27.6232Z" fill="white"/>
<path d="M101.608 35.6206C102.986 35.8316 103.333 38.4699 101.372 38.4023C99.1343 38.2639 99.6188 35.3223 101.608 35.6206Z" fill="#231F20"/>
<path d="M105.593 62.5907C105.593 62.5907 101.58 62.6072 97.5855 59.9903C93.2168 57.1345 92.9729 54.3741 92.9729 54.3741C92.9729 54.3741 90.707 64.8155 95.5025 66.2607C100.293 67.7027 105.593 62.5907 105.593 62.5907Z" fill="#231F20"/>
</svg>
