<?xml version="1.0" encoding="UTF-8" standalone="no"?>
<!-- Generator: Adobe Illustrator 23.0.1, SVG Export Plug-In . SVG Version: 6.00 Build 0)  -->

<svg
   version="1.1"
   id="Layer_1"
   x="0px"
   y="0px"
   viewBox="0 0 250 150"
   xml:space="preserve"
   sodipodi:docname="svgPage70Carnicero.svg"
   inkscape:version="1.2.1 (9c6d41e410, 2022-07-14)"
   width="250"
   height="150"
   xmlns:inkscape="http://www.inkscape.org/namespaces/inkscape"
   xmlns:sodipodi="http://sodipodi.sourceforge.net/DTD/sodipodi-0.dtd"
   xmlns="http://www.w3.org/2000/svg"
   xmlns:svg="http://www.w3.org/2000/svg"><defs
   id="defs673" /><sodipodi:namedview
   id="namedview671"
   pagecolor="#ffffff"
   bordercolor="#000000"
   borderopacity="0.25"
   inkscape:showpageshadow="2"
   inkscape:pageopacity="0.0"
   inkscape:pagecheckerboard="0"
   inkscape:deskcolor="#d1d1d1"
   showgrid="false"
   inkscape:zoom="2.7831978"
   inkscape:cx="-39.163583"
   inkscape:cy="165.63681"
   inkscape:window-width="3840"
   inkscape:window-height="2066"
   inkscape:window-x="-11"
   inkscape:window-y="-11"
   inkscape:window-maximized="1"
   inkscape:current-layer="Layer_1" />
<style
   type="text/css"
   id="style566">
	.st0{fill-rule:evenodd;clip-rule:evenodd;fill:#2BB673;}
	.st1{fill-rule:evenodd;clip-rule:evenodd;fill:#AC1C22;}
	.st2{fill-rule:evenodd;clip-rule:evenodd;fill:#228E58;}
	.st3{fill:none;stroke:#228E58;}
	.st4{fill:#ED1C24;}
	.st5{fill-rule:evenodd;clip-rule:evenodd;fill:#FFFFFF;}
	.st6{fill-rule:evenodd;clip-rule:evenodd;fill:#9E9980;}
	.st7{fill:none;stroke:#228E58;stroke-width:2.81;stroke-linecap:round;}
	.st8{fill:none;stroke:#1B6C42;stroke-width:2.81;stroke-linecap:round;}
	.st9{fill-rule:evenodd;clip-rule:evenodd;fill:#2D292A;}
	.st10{fill-rule:evenodd;clip-rule:evenodd;fill:#231F20;}
	.st11{fill-rule:evenodd;clip-rule:evenodd;fill:#D3D2C2;}
	.st12{fill:#FFFFFF;}
	.st13{fill-rule:evenodd;clip-rule:evenodd;fill:#7F7B6C;}
	.st14{fill:#F9F9F9;}
</style>
<path
   class="st0"
   d="M 185.05919,-34.000269 H 0.5350838 L -17.128416,10.311478 H 201.39618 Z"
   id="path568"
   style="stroke-width:0.633859" />
<path
   class="st1"
   d="m 250.96564,167.8196 -50.9658,9.38028 V 10.311478 l 50.9658,17.034116 z"
   id="path570"
   style="stroke-width:0.633859" />
<path
   class="st2"
   d="M 230.85859,-15.297264 250.96564,27.000319 200.55837,10.081286 185.33845,-34.000269 Z"
   id="path572"
   style="stroke-width:0.633859" />
<path
   class="st3"
   d="M 230.85859,-15.297264 250.96564,27.000319 200.55837,10.081286 185.33845,-34.000269 Z"
   id="path574"
   style="stroke-width:0.633859" />
<path
   class="st4"
   d="M 201.39618,10.311478 H -17.128416 V 177.19988 H 201.39618 Z"
   id="path576"
   style="stroke-width:0.633859" />
<path
   class="st5"
   d="m 4.5145964,107.22185 c 0,13.40861 1.3963191,46.95893 1.3963191,46.95893 H 99.394762 c 0,0 0.767968,-33.37768 0.767968,-44.25419 0,-10.87652 -0.767968,-42.757961 -0.767968,-42.757961 0,0 -38.747969,-0.460383 -49.499656,-0.460383 -12.636727,0 -44.0540094,0.460383 -44.0540094,0.460383 0,0 -1.3265002,31.651249 -1.3265002,40.053221 z"
   id="path578"
   style="stroke-width:0.633859" />
<path
   class="st6"
   d="m 36.630032,153.02984 h -2.79265 c 0,0 -0.418902,-21.75305 -0.698166,-33.49278 -0.209445,-8.57461 0.279264,-38.441886 0.279264,-38.441886 h 2.303942 z"
   id="path580"
   style="stroke-width:0.633859" />
<path
   class="st6"
   d="m 69.443621,153.02984 h -2.23411 c 0,0 -0.349083,-21.75305 -0.558528,-33.49278 -0.139638,-8.57461 0.209445,-38.441886 0.209445,-38.441886 h 1.88504 z"
   id="path582"
   style="stroke-width:0.633859" />
<path
   class="st6"
   d="m 98.068253,130.58622 v 2.3019 c 0,0 -27.437757,0.34529 -42.238776,0.57548 -10.821506,0.1151 -48.5222304,-0.28774 -48.5222304,-0.28774 v -1.89907 z"
   id="path584"
   style="stroke-width:0.633859" />
<path
   class="st7"
   d="M 10.099885,-28.245504 -1.0706921,4.5567001"
   id="path586" />
<path
   class="st7"
   d="M 22.666793,-28.245504 13.590701,4.5567001"
   id="path588" />
<path
   class="st7"
   d="M 35.931866,-28.245504 28.252093,4.5567001"
   id="path590" />
<path
   class="st7"
   d="M 49.19694,-28.245504 44.309805,4.5567001"
   id="path592" />
<path
   class="st7"
   d="M 63.160167,-28.245504 58.971198,4.5567001"
   id="path594" />
<path
   class="st7"
   d="M 76.425241,-28.245504 75.028922,4.5567001"
   id="path596" />
<path
   class="st7"
   d="M 92.482965,-28.245504 V 4.5567001"
   id="path598" />
<path
   class="st7"
   d="M 174.16786,-28.245504 185.33845,4.5567001"
   id="path600" />
<path
   class="st8"
   d="M 221.64286,-15.009524 234.90793,17.79268"
   id="path602" />
<path
   class="st8"
   d="m 207.67963,-20.188823 13.26506,32.802204"
   id="path604" />
<path
   class="st8"
   d="M 196.50904,-24.217163 209.07595,8.0095617"
   id="path606" />
<path
   class="st7"
   d="m 160.9028,-28.245504 9.07609,32.8022041"
   id="path608" />
<path
   class="st7"
   d="m 148.33588,-28.245504 7.67979,32.8022041"
   id="path610" />
<path
   class="st7"
   d="m 135.07082,-28.245504 4.88712,32.8022041"
   id="path612" />
<path
   class="st7"
   d="M 121.10758,-28.245504 124.5984,4.5567001"
   id="path614" />
<path
   class="st7"
   d="m 107.84251,-28.245504 1.39633,32.8022041"
   id="path616" />
<path
   class="st5"
   d="M 24.272569,66.132767 -0.3725266,94.331154 H 18.338198 L 42.913486,66.132767 Z"
   id="path618"
   style="stroke-width:0.633859" />
<path
   class="st9"
   d="M 43.122931,66.132767 18.477824,94.331154 H 37.18856 L 61.763848,66.132767 Z"
   id="path620"
   style="stroke-width:0.633859" />
<path
   class="st5"
   d="m 62.322376,66.132767 -24.99419,28.198387 h 18.99 l 24.99419,-28.198387 z"
   id="path622"
   style="stroke-width:0.633859" />
<path
   class="st9"
   d="M 81.172738,66.132767 56.17856,94.331154 H 75.168548 L 100.16273,66.132767 Z"
   id="path624"
   style="stroke-width:0.633859" />
<path
   class="st9"
   d="M 5.4222068,66.132767 -19.222901,94.331154 H -0.5121645 L 24.063124,66.132767 Z"
   id="path626"
   style="stroke-width:0.633859" />
<path
   class="st10"
   d="m -19.222901,94.331154 c 0,0.517931 0,1.208506 0,1.208506 0,4.085888 4.18897,7.42365 9.425187,7.42365 5.1663991,0 9.4251874,-3.337762 9.4251874,-7.42365 0,0 -0.069831,-0.517931 0,-1.208506 z"
   id="path628"
   style="stroke-width:0.633859" />
<path
   class="st11"
   d="m -0.3725266,94.331154 c 0,0.517931 0,1.208506 0,1.208506 0,4.085888 4.1889693,7.42365 9.4251751,7.42365 5.1663865,0 9.4251755,-3.337762 9.4251755,-7.42365 0,0 -0.06983,-0.517931 0,-1.208506 z"
   id="path630"
   style="stroke-width:0.633859" />
<path
   class="st10"
   d="m 18.477824,94.331154 c 0,0.517931 0,1.208506 0,1.208506 0,4.085888 4.188969,7.42365 9.425187,7.42365 5.166398,0 9.425175,-3.337762 9.425175,-7.42365 0,0 0,-0.517931 0,-1.208506 z"
   id="path632"
   style="stroke-width:0.633859" />
<path
   class="st11"
   d="m 37.328186,94.331154 c 0,0.517931 0,1.208506 0,1.208506 0,4.085888 4.188969,7.42365 9.425187,7.42365 5.166398,0 9.425187,-3.337762 9.425187,-7.42365 0,0 -0.06983,-0.517931 0,-1.208506 z"
   id="path634"
   style="stroke-width:0.633859" />
<path
   class="st10"
   d="m 56.876713,94.331154 c 0,0.517931 0,1.208506 0,1.208506 0,4.085888 4.18897,7.42365 9.425187,7.42365 5.236206,0 9.425175,-3.337762 9.425175,-7.42365 0,0 0,-0.517931 0,-1.208506 z"
   id="path636"
   style="stroke-width:0.633859" />
<path
   class="st6"
   d="m 98.068253,105.8407 v 2.30191 c 0,0 -27.437757,0.34528 -42.238776,0.57547 -10.821506,0.1151 -48.5222304,-0.28774 -48.5222304,-0.28774 v -1.89907 z"
   id="path638"
   style="stroke-width:0.633859" />
<path
   class="st12"
   d="m 217.66333,66.132767 c -0.48871,9.95575 0.13964,15.307695 0.13964,25.263457 0,9.955746 0,21.004926 0.97743,33.377666 5.44565,0.34529 9.84408,-0.46037 15.28974,-0.63301 0.48871,-10.3586 -0.48872,-14.44449 -0.4189,-24.803071 0.13964,-13.753911 -0.83779,-29.119153 -0.83779,-29.119153 -5.44567,-1.726437 -9.70445,-2.417012 -15.15012,-4.085889 z"
   id="path640"
   style="stroke-width:0.633859" />
<path
   class="st13"
   d="m 218.15205,96.690606 v -1.783973 l 14.59158,1.09341 v 1.783973 z"
   id="path642"
   style="stroke-width:0.633859" />
<path
   class="st6"
   d="m 118.31493,117.58043 c 0,16.97658 0.97743,59.61945 0.97743,59.61945 h 66.18573 c 0,0 0.48871,-42.35513 0.48871,-56.16659 0,-13.81144 -0.48871,-54.267496 -0.48871,-54.267496 0,0 -27.43776,-0.633027 -35.04772,-0.633027 -8.93647,0 -31.20783,0.633027 -31.20783,0.633027 0,0 -0.90761,40.168316 -0.90761,50.814636 z"
   id="path644"
   style="stroke-width:0.633859" />
<path
   class="st10"
   d="m 124.5984,120.97574 c 0,15.99827 0.83779,56.22414 0.83779,56.22414 h 53.89807 c 0,0 0.4189,-39.93813 0.4189,-53.00145 0,-13.00579 -0.4189,-51.159939 -0.4189,-51.159939 0,0 -22.34116,-0.575479 -28.55481,-0.575479 -7.26088,0 -25.41308,0.575479 -25.41308,0.575479 0,0 -0.76797,37.923959 -0.76797,47.937249 z"
   id="path646"
   style="stroke-width:0.633859" />
<g
   id="g668"
   transform="matrix(0.69816163,0,0,0.57547724,-19.222901,-34.978583)">
	<path
   class="st14"
   d="m 46.6,121.1 c -2,0 -3.5,0.8 -4.6,2.4 -1.1,1.6 -1.7,3.8 -1.7,6.7 0,5.9 2.2,8.9 6.7,8.9 1.4,0 2.7,-0.2 3.9,-0.6 1.3,-0.4 2.6,-0.8 3.8,-1.4 v 7 c -2.6,1.1 -5.5,1.7 -8.7,1.7 -4.6,0 -8.2,-1.3 -10.7,-4 -2.5,-2.7 -3.7,-6.6 -3.7,-11.7 0,-3.2 0.6,-6 1.8,-8.4 1.2,-2.4 2.9,-4.3 5.2,-5.6 2.2,-1.3 4.9,-1.9 7.9,-1.9 3.3,0 6.5,0.7 9.5,2.2 l -2.5,6.5 c -1.1,-0.5 -2.3,-1 -3.4,-1.3 -1,-0.3 -2.2,-0.5 -3.5,-0.5 z"
   id="path648" />
	<path
   class="st14"
   d="m 79.7,145.4 -1.5,-5.8 h -10 l -1.6,5.8 h -9.1 l 10,-30.8 h 11.1 l 10.1,30.8 z m -3.3,-12.5 -1.3,-5 c -0.3,-1.1 -0.7,-2.6 -1.1,-4.3 -0.4,-1.8 -0.7,-3.1 -0.9,-3.8 -0.1,0.7 -0.4,1.9 -0.7,3.5 -0.3,1.6 -1.2,4.9 -2.5,9.7 h 6.5 z"
   id="path650" />
	<path
   class="st14"
   d="m 100.4,134.2 v 11.2 h -8.3 v -30.7 h 10.1 c 8.3,0 12.5,3 12.5,9.1 0,3.6 -1.7,6.3 -5.2,8.3 l 8.9,13.4 H 109 l -6.5,-11.2 h -2.1 z m 0,-6.2 h 1.6 c 2.9,0 4.3,-1.3 4.3,-3.8 0,-2.1 -1.4,-3.2 -4.3,-3.2 h -1.6 z"
   id="path652" />
	<path
   class="st14"
   d="m 150.4,145.4 h -10.9 l -11.2,-21.6 h -0.2 c 0.3,3.4 0.4,6 0.4,7.8 v 13.8 h -7.4 V 114.7 H 132 l 11.2,21.3 h 0.1 c -0.2,-3.1 -0.3,-5.6 -0.3,-7.5 v -13.9 h 7.4 z"
   id="path654" />
	<path
   class="st14"
   d="m 157,145.4 v -30.7 h 8.3 v 30.7 z"
   id="path656" />
	<path
   class="st14"
   d="m 185.7,121.1 c -2,0 -3.5,0.8 -4.6,2.4 -1.1,1.6 -1.7,3.8 -1.7,6.7 0,5.9 2.2,8.9 6.7,8.9 1.4,0 2.7,-0.2 3.9,-0.6 1.3,-0.4 2.6,-0.8 3.8,-1.4 v 7 c -2.6,1.1 -5.5,1.7 -8.7,1.7 -4.6,0 -8.2,-1.3 -10.7,-4 -2.5,-2.7 -3.7,-6.6 -3.7,-11.7 0,-3.2 0.6,-6 1.8,-8.4 1.2,-2.4 2.9,-4.3 5.2,-5.6 2.2,-1.3 4.9,-1.9 7.9,-1.9 3.3,0 6.5,0.7 9.5,2.2 l -2.5,6.5 c -1.1,-0.5 -2.3,-1 -3.4,-1.3 -1,-0.3 -2.2,-0.5 -3.5,-0.5 z"
   id="path658" />
	<path
   class="st14"
   d="M 218.2,145.4 H 200 v -30.7 h 18.2 v 6.7 h -9.9 v 4.8 h 9.2 v 6.7 h -9.2 v 5.8 h 9.9 z"
   id="path660" />
	<path
   class="st14"
   d="m 231.8,134.2 v 11.2 h -8.3 v -30.7 h 10.1 c 8.3,0 12.5,3 12.5,9.1 0,3.6 -1.7,6.3 -5.2,8.3 l 8.9,13.4 h -9.4 l -6.5,-11.2 h -2.1 z m 0,-6.2 h 1.6 c 2.9,0 4.3,-1.3 4.3,-3.8 0,-2.1 -1.4,-3.2 -4.3,-3.2 h -1.6 z"
   id="path662" />
	<path
   class="st14"
   d="m 252.6,112.3 v -0.6 c 2.2,-2.3 3.5,-3.8 4.1,-4.5 0.6,-0.7 1.1,-1.3 1.4,-1.8 h 9 v 0.4 c -1.1,0.9 -2.7,2 -4.6,3.4 -2,1.4 -3.4,2.4 -4.5,3 h -5.4 z m 0,33.1 v -30.7 h 8.3 v 30.7 z"
   id="path664" />
	<path
   class="st14"
   d="m 286.5,145.4 -1.5,-5.8 h -10 l -1.6,5.8 h -9.1 l 10,-30.8 h 11.1 l 10.1,30.8 z m -3.3,-12.5 -1.3,-5 c -0.3,-1.1 -0.7,-2.6 -1.1,-4.3 -0.4,-1.8 -0.7,-3.1 -0.9,-3.8 -0.1,0.7 -0.4,1.9 -0.7,3.5 -0.4,1.6 -1.2,4.9 -2.5,9.7 h 6.5 z"
   id="path666" />
</g>
<g
   id="g1176"
   transform="matrix(0.882424,0,0,0.59186353,204.93325,-18.69305)"><path
     d="m -152.67631,178.74004 c 0.29848,-1.6983 2.17915,-0.521 4.99952,0.129 -2.61042,-1.612 -4.55938,-4.173 -2.76851,-6.0842 1.11171,-1.1889 3.42872,2.0156 5.19683,3.8339 -0.83093,-1.6042 -1.76813,-4.1253 -0.91949,-5.6573 0.88279,-1.5926 3.7398,1.0252 5.5244,4.5044 3.7904,-6.3923 5.451,-0.0296 2.2917,3.9577 7.1559,14.4095 18.6068,14.6635 24.9735,16.5721 0.0519,0.0142 0.0987,0.0219 0.1442,0.0322 2.0185,1.4121 4.2964,3.4573 6.5438,6.3576 -1.6176,1.4572 -5.04,2.138 -7.5998,2.0967 -15.8978,-0.254 -23.9378,-10.9986 -27.7762,-19.5509 -4.5961,-0.6616 -10.96281,-4.1859 -10.60995,-6.1912 z"
     fill="#ddceb1"
     id="path860" /><path
     fill-rule="evenodd"
     clip-rule="evenodd"
     d="m -94.69036,195.61154 c 0,0 -10.0032,-0.2184 -15.3878,-1.1717 l -5.3807,-0.9559 -3.2315,12.0669 c 0,0 6.8148,2.8063 13.304,2.8965 6.4932,0.0824 9.1613,0 9.1613,0 z"
     fill="#ffffff"
     id="path862" /><path
     fill-rule="evenodd"
     clip-rule="evenodd"
     d="m -84.04726,309.92604 c 0,0 -4.335,2.345 -6.8971,3.195 -2.5609,0.849 -4.0875,2.178 -4.5594,4.149 -0.4791,1.967 -0.2269,3.012 3.0726,3.167 3.2934,0.157 14.2068,-0.044 16.1317,-1.166 1.9177,-1.116 -1.3058,-10.787 -1.3058,-10.787 z"
     fill="#cfccbf"
     id="path864" /><path
     fill-rule="evenodd"
     clip-rule="evenodd"
     d="m -106.46796,308.48404 c 0,0 -4.5472,2.223 -7.2402,3.03 -2.6854,0.797 -4.2924,2.059 -4.7854,3.927 -0.5056,1.864 -0.2369,2.849 3.2254,2.999 3.4547,0.147 14.9188,-0.043 16.9363,-1.105 2.0163,-1.056 -1.3649,-8.574 -1.3649,-8.574 z"
     fill="#cfccbf"
     id="path866" /><path
     d="m -78.69036,204.48464 c 0,9.9443 -5.1472,17.9993 -11.5,17.9993 -6.3527,0 -11.5,-8.055 -11.5,-17.9993 0,-9.9418 5.1473,-18.0007 11.5,-18.0007 6.3528,0 11.5,8.0589 11.5,18.0007 z"
     fill="#ddceb1"
     id="path868" /><path
     d="m -93.61846,195.81014 1.0354,20.7131 11.4294,-20.7131 11.6032,-3.3262 c 0,0 6.2253,6.7419 8.891,14.3128 2.3593,6.701 3.9691,16.4122 3.9691,16.4122 l -10.1209,0.9876 -3.2299,-10.6182 1.0354,40.9057 c 0,0 -18.341,-1.359 -27.3107,-1.503 -8.8383,-0.145 -15.3739,-2.618 -15.3739,-2.618 l 10.7983,-54.5555 h 7.2736 z"
     fill="#ffffff"
     id="path870" /><path
     d="m -107.48376,251.48404 c 0,0 -3.7701,55.754 -3.1344,58.089 0.624,2.332 10.415,1.272 11.8784,0 1.4647,-1.274 4.3928,-33.708 8.5793,-34.135 4.1878,-0.421 3.3471,35.294 4.3928,35.93 1.0469,0.637 9.0034,1.909 10.2541,0.423 1.2571,-1.483 3.8232,-59.034 3.8232,-59.034 z"
     fill="#ffffff"
     id="path872" /><path
     d="m -52.89506,159.48394 c 0,0 4.7247,10.2881 6.4367,11.5312 1.68,1.2224 4.768,1.405 4.768,1.405 0,0 -2.075,1.5137 -5.457,1.2198 -3.043,-0.2655 -4.356,-1.1499 -4.356,-1.1499 0,0 1.308,3.0431 2.512,4.3082 1.553,1.6381 3.135,2.7517 3.135,2.7517 0,0 -3.171,0.0919 -5.275,-0.944 -2.1252,-1.0463 -2.8842,-4.0622 -2.8842,-4.0622 0,0 -0.2441,3.7863 0.2517,5.6847 0.7655,2.9135 2.1625,4.0194 2.1625,4.0194 0,0 -2.5382,1.3053 -5.0699,-2.2221 -1.4252,-1.9954 -2.0191,-6.3657 -2.0191,-6.3657 l 1.229,-4.6397 z"
     fill="#a35625"
     id="path874" /><path
     d="m -98.58136,138.48394 c 0,0 -4.2826,2.9385 -6.1673,2.3135 -1.8846,-0.6239 -3.9442,-1.6689 -3.9442,-1.6689 0,0 0.6781,1.8312 1.7161,3.2262 1.1141,1.4986 2.8568,1.9498 2.8568,1.9498 0,0 -2.5121,0.7009 -4.5717,-0.0772 -2.0595,-0.7838 -3.9987,-2.1822 -3.9987,-2.1822 0,0 0.7883,2.8015 1.9886,3.9478 1.2002,1.143 4.8872,3.491 4.8872,3.491 l 2.6134,-0.7436 10.5108,-7.9832 z"
     fill="#a35625"
     id="path876" /><path
     d="m -98.17026,138.48394 c 0,0 -17.1238,22.264 -17.4989,33.292 -0.3674,11.0279 4.019,22.0598 15.54,25.3662 11.5145,3.3065 23.9118,0.492 33.949,-8.3317 10.0333,-8.8211 14.4898,-27.5692 14.4898,-27.5692 0,0 -5.5755,-7.7228 -16.3527,-13.2348 -10.7707,-5.5159 -30.1272,-9.5225 -30.1272,-9.5225 z"
     fill="#ddceb1"
     id="path878" /><path
     d="m -99.69036,139.04814 c 0,0 12.2221,-11.6624 15.0632,-12.35832 3.7984,-0.93127 13.9692,1.30454 22.7495,6.5556 8.7815,5.24722 13.5323,9.59242 13.1673,12.85182 -0.364,3.2582 -2.938,17.3867 -2.938,17.3867 0,0 -10.5297,-8.5029 -21.4021,-14.393 -10.8827,-5.8849 -26.6399,-10.0428 -26.6399,-10.0428 z"
     fill="#ffffff"
     id="path880" /><path
     d="m -81.69036,158.50994 c 0,0 -5.0788,-0.3581 -10.6592,1.5861 -5.5756,1.9456 -8.5251,4.2452 -4.4255,6.3684 4.1008,2.118 10.9851,3.0195 10.9851,3.0195"
     stroke="#231f20"
     stroke-width="0.723"
     stroke-linecap="round"
     id="path882"
     style="fill:none" /><path
     d="m -95.93246,174.48394 c 0,0 -1.7053,4.8818 0,7.2217 1.7052,2.3471 5.2421,-1.3626 5.2421,-1.3626"
     stroke="#231f20"
     stroke-width="0.723"
     stroke-linecap="round"
     id="path884" /><path
     fill-rule="evenodd"
     clip-rule="evenodd"
     d="m -66.78916,158.05784 c -3.4587,-1.4947 -6.3237,0.0233 -8.0206,3.4721 -1.7108,3.4554 -0.9573,6.8655 2.5096,8.3666 3.4421,1.4973 7.2231,0.0504 8.9365,-3.4101 1.7053,-3.445 0.029,-6.9326 -3.4255,-8.4286 z"
     fill="#ffffff"
     id="path886" /><path
     fill-rule="evenodd"
     clip-rule="evenodd"
     d="m -71.25026,163.65404 c -0.5404,-0.3823 -1.0677,-0.1069 -1.3162,0.6933 -0.2495,0.8068 -0.1269,1.6021 0.4112,1.9828 0.5447,0.371 1.1198,0.0518 1.3726,-0.7517 0.2474,-0.8099 -0.0228,-1.6377 -0.5686,-2.0005"
     fill="#231f20"
     id="path888" /><path
     fill-rule="evenodd"
     clip-rule="evenodd"
     d="m -94.15686,146.01564 c -2.9268,-1.3845 -5.3528,0.0225 -6.7881,3.2022 -1.4476,3.1897 -0.8111,6.3382 2.123,7.7214 2.911,1.387 6.1151,0.0487 7.5626,-3.1435 1.4426,-3.1834 0.0208,-6.4018 -2.8975,-7.7801 z"
     fill="#ffffff"
     id="path890" /><path
     fill-rule="evenodd"
     clip-rule="evenodd"
     d="m -98.34996,150.63394 c -0.5406,-0.372 -0.9683,-0.0269 -1.2169,0.7584 -0.2486,0.7868 -0.127,1.5658 0.4114,1.941 0.5471,0.3641 1.1192,0.049 1.3743,-0.7394 0.2431,-0.7963 -0.0206,-1.599 -0.5688,-1.96 z"
     fill="#231f20"
     id="path892" /><path
     d="m -120.69036,266.18004 48.8805,-10.696 c 0,0 3.6415,9.648 -2.2108,11.214 -5.8496,1.568 -18.0535,4.463 -27.4808,4.762 -13.9154,0.434 -19.1889,-5.28 -19.1889,-5.28 z"
     fill="#d3d2c2"
     id="path894" /><path
     d="m -71.69036,256.61304 14.0723,-3.879 c 0,0 1.8965,-1.114 2.7286,1.363 0.5921,1.767 -0.1612,2.745 -1.929,3.575 -1.7678,0.83 -13.9261,3.812 -13.9261,3.812 z"
     fill="#a35625"
     id="path896" /><path
     d="m -67.13676,252.06204 c -0.6418,0.07 -6.3761,3.179 -3.965,4.146 2.4072,0.97 3.7959,-0.38 3.7959,-0.38 0,0 -1.8051,5.042 0.4369,5.409 1.2503,0.202 1.5181,-1.423 1.5181,-1.423 0,0 -0.1037,2.042 1.5848,1.61 1.7513,-0.451 1.6744,-2.148 1.6744,-2.148 0,0 0.2652,2.25 1.8794,1.173 2.7096,-1.819 -0.2896,-8.252 -0.2896,-8.252 0,0 3.0363,-14.972 3.6769,-19.658 0.6482,-4.692 -1.2555,-9.0551 -1.2555,-9.0551 l -7.5574,0.7409 c 0,0 1.3401,4.4022 1.2197,7.0962 -0.3715,8.248 -2.7186,20.741 -2.7186,20.741 z"
     fill="#ddceb1"
     id="path898" /></g></svg>
