<svg width="77" height="100" viewBox="0 0 77 100" fill="none" xmlns="http://www.w3.org/2000/svg">
<path d="M58.0723 41.6858C58.0723 38.4645 61.0394 35.8535 64.7018 35.8535C68.3694 35.8535 71.339 38.4645 71.339 41.6858C71.339 44.9083 68.3694 47.5167 64.7018 47.5167C61.0394 47.5167 58.0723 44.9083 58.0723 41.6858Z" fill="#9E9980"/>
<path d="M34.7278 5.99941C34.7278 5.99941 35.7314 -0.163104 40.3936 0.00331079C45.0558 0.167146 47.2798 5.99941 47.2798 5.99941C47.2798 5.99941 53.1083 0.333552 58.7664 2.83236C64.4296 5.33246 61.3787 11.1596 61.3787 11.1596C61.3787 11.1596 69.6285 11.0254 71.9609 15.6915C74.2946 20.3524 71.3675 24.4857 71.3675 24.4857C71.3675 24.4857 76.0607 26.8336 76.7289 31.1655C77.3894 35.491 72.1802 38.671 63.853 37.341C55.5335 36.0096 52.5497 40.9763 52.5497 40.9763L16.3163 46.637C16.3163 46.637 7.91555 48.3037 5.58445 44.64C3.25205 40.9763 5.3961 39.7237 5.3961 39.7237C5.3961 39.7237 1.50663 38.938 0.226909 33.9946C-1.34307 27.9095 5.74828 27.485 5.74828 27.485C5.74828 27.485 0.0798408 21.0013 3.58359 17.3814C7.08605 13.7655 11.9108 16.1211 11.9108 16.1211C11.9108 16.1211 9.64679 7.88417 15.4739 6.38385C21.3062 4.88224 22.4788 9.45931 22.4788 9.45931C22.4788 9.45931 22.3124 2.49825 27.1049 1.50234C31.8974 0.50385 34.7278 5.99941 34.7278 5.99941Z" fill="#9E9980"/>
<path d="M24.4721 63.0424C24.4721 63.0424 19.299 68.3612 15.8946 72.252C12.4863 76.1389 12.4863 77.3296 12.4863 77.3296L21.0793 81.3661L23.7987 77.1683L20.8135 90.6015L60.8654 91.4323L57.4597 79.5304L60.4771 83.0651L68.2199 78.4274C68.2199 78.4274 62.0626 70.971 59.3058 68.5393C56.5489 66.1037 53.7895 63.0424 53.7895 63.0424H24.4721Z" fill="#AE7DAF"/>
<path d="M13.8848 34.5131C13.8848 34.5131 12.458 52.8369 19.3997 59.638C26.1337 66.2301 36.6733 68.3948 45.1386 66.8119C53.4284 65.2638 62.905 61.2183 64.7008 47.5155C66.7661 31.7731 63.928 20.0363 63.928 20.0363C63.928 20.0363 58.0274 10.4706 37.17 12.4741C15.9088 14.5201 13.8848 34.5131 13.8848 34.5131Z" fill="#DDCEB1"/>
<path d="M42.4308 40.2267C42.4308 40.2267 50.9915 42.7268 49.7556 45.8036C47.7612 50.8012 39.2676 47.0162 39.2676 47.0162" stroke="#231F20" stroke-width="0.723" stroke-linecap="round"/>
<path fill-rule="evenodd" clip-rule="evenodd" d="M28.1149 26.5149C24.388 26.4633 22.471 29.0434 22.4116 33.0051C22.3458 36.9849 24.468 39.9352 28.1988 39.9907C31.9102 40.0564 34.6799 37.1745 34.7418 33.1921C34.8076 29.2343 31.8251 26.5717 28.1149 26.5149Z" fill="white"/>
<path fill-rule="evenodd" clip-rule="evenodd" d="M30.348 33.3237C29.5662 33.3044 29.1779 33.8101 29.1663 34.5867C29.1534 35.3633 29.5856 35.9386 30.3609 35.9528C31.1452 35.9657 31.7193 35.4007 31.7348 34.6228C31.7387 33.8423 31.1233 33.3276 30.348 33.3237Z" fill="#231F20"/>
<path fill-rule="evenodd" clip-rule="evenodd" d="M54.9877 26.5149C51.262 26.4633 49.345 29.0434 49.2909 33.0051C49.2186 36.9849 51.3381 39.9352 55.0741 39.9907C58.7843 40.0564 61.5527 37.1745 61.6146 33.1921C61.6791 29.2343 58.7017 26.5717 54.9877 26.5149Z" fill="white"/>
<path fill-rule="evenodd" clip-rule="evenodd" d="M57.217 33.3237C56.434 33.3044 56.0534 33.8101 56.0353 34.5867C56.025 35.3633 56.4559 35.9386 57.2325 35.9528C58.0181 35.9657 58.5922 35.4007 58.6103 34.6228C58.6103 33.8423 58.0001 33.3276 57.217 33.3237Z" fill="#231F20"/>
<path d="M34.25 12.198C34.25 12.198 41.0692 21.9133 46.419 20.849C50.4568 20.0441 50.3188 16.9957 50.3188 16.9957C50.3188 16.9957 54.3256 25.7022 59.1142 25.7022C61.0674 25.7022 61.6156 22.7312 61.6156 22.7312C61.6156 22.7312 63.5558 30.2651 67.0093 29.9542C70.4524 29.6407 67.5202 18.5141 67.5202 18.5141C67.5202 18.5141 59.2948 13.1075 57.7765 12.198C56.2581 11.2924 45.4514 9.49283 45.0025 9.49283C44.5484 9.49154 34.25 12.198 34.25 12.198Z" fill="#9E9980"/>
<path d="M36.2934 12.7928C36.2934 12.7928 35.2316 22.6397 31.4621 22.1869C27.6926 21.7353 27.6849 17.8975 27.6849 17.8975C27.6849 17.8975 26.013 25.6661 22.4086 26.1163C18.8081 26.5653 19.0261 23.5079 19.0261 23.5079C19.0261 23.5079 18.714 32.8839 14.5226 34.6783C10.3377 36.4715 11.8251 29.9452 11.8251 29.9452L14.8258 20.7459L24.1334 13.3926L33.4411 10.472H44.8515L36.2934 12.7928Z" fill="#9E9980"/>
<path d="M16.3145 30.8907L37.8968 30.176C37.8968 30.176 37.1822 40.548 28.0358 40.2229C18.8868 39.8939 16.3145 30.8907 16.3145 30.8907Z" stroke="#ED1C24" stroke-width="1.303" stroke-linecap="round" stroke-linejoin="round"/>
<path d="M68.8656 29.6278L47.2793 30.256C47.2793 30.256 48.6351 40.5647 57.7441 39.6682C66.8518 38.778 68.8656 29.6278 68.8656 29.6278Z" stroke="#ED1C24" stroke-width="1.303" stroke-linecap="round" stroke-linejoin="round"/>
<path d="M37.8984 30.1761C37.8984 30.1761 40.0205 29.4304 42.5877 29.402C45.1626 29.3762 47.2796 30.2573 47.2796 30.2573" stroke="#ED1C24" stroke-width="1.303" stroke-linecap="round" stroke-linejoin="round"/>
<path d="M33.6727 55.1009C35.1382 55.1951 37.1584 53.9954 37.3622 54.9758C37.6344 56.2813 37.6034 56.4232 37.6034 56.4232C37.6034 56.4232 39.4869 54.4559 40.0687 55.6944C40.6338 56.9018 41.5703 58.0577 41.5703 58.0577C41.5703 58.0577 39.7088 62.5096 36.4411 61.7434C31.9427 60.6868 33.6727 55.1009 33.6727 55.1009Z" fill="#ED1C24"/>
<path d="M33.1651 51.9558C33.1651 51.9558 33.0632 55.5498 34.877 57.1972C38.0995 60.105 42.6405 57.5868 42.6405 57.5868" stroke="#231F20" stroke-width="0.723" stroke-linecap="round"/>
<path d="M40.5627 90.2042C40.9988 89.1657 43.9736 89.4121 45.8867 88.4691C46.0106 88.4059 46.1099 88.3672 46.2222 88.3194C50.6135 85.4439 63.7112 84.9731 63.7112 84.9731L61.6988 82.3285L67.642 78.7719C67.642 78.7719 75.3061 86.8914 72.7815 89.843C70.2556 92.7972 55.3737 92.0412 55.3737 92.0412C55.3737 92.0412 58.2208 96.2377 56.7102 97.5471C55.3944 98.6901 53.4902 95.9204 52.3847 94.0008C53.0736 95.5321 53.7186 97.7058 52.3628 98.6707C50.5619 99.9505 48.7829 95.6366 48.1082 93.7402C48.5726 95.2586 49.2538 98.2657 47.3574 98.285C45.7848 98.3057 44.5657 95.4727 44.6689 92.3199C44.4948 92.3405 44.3232 92.3715 44.1517 92.3779C41.0749 92.534 40.128 91.2349 40.5627 90.2042Z" fill="#DDCEB1"/>
<path d="M40.2471 90.2042C39.8097 89.1683 36.8375 89.4121 34.9231 88.4691C34.7992 88.4059 34.6986 88.371 34.5851 88.322C30.1977 85.4439 17.0973 84.9731 17.0973 84.9731L20.1057 80.9107L13.8438 77.9256C13.8438 77.9256 5.50886 86.8914 8.0296 89.8456C10.5529 92.7972 25.4348 92.0412 25.4348 92.0412C25.4348 92.0412 22.589 96.2377 24.1035 97.551C25.4168 98.6901 27.3235 95.9204 28.4213 94.0008C27.7363 95.5321 27.0925 97.7071 28.4445 98.6707C30.2441 99.9505 32.0269 95.6379 32.7042 93.7402C32.2385 95.2612 31.5599 98.2657 33.4537 98.2876C35.0237 98.3057 36.2415 95.4727 36.1396 92.3199C36.3137 92.3405 36.4892 92.3715 36.6543 92.3779C39.7311 92.534 40.6805 91.2362 40.2471 90.2042Z" fill="#DDCEB1"/>
<path d="M39.0313 90.6015C39.6763 90.6067 40.2581 90.3332 40.342 89.9939C40.4297 89.6533 40.142 89.5772 39.3383 89.3721C38.7294 89.2134 38.2831 89.167 38.0289 89.9784C37.8754 90.4725 38.3992 90.5976 39.0313 90.6015Z" fill="#ED1C24"/>
<path d="M41.7831 90.6015C41.1446 90.6067 40.5602 90.3332 40.4802 89.9939C40.3925 89.6533 40.675 89.5772 41.48 89.3721C42.0902 89.2134 42.5314 89.167 42.7907 89.9784C42.9455 90.4699 42.4217 90.5951 41.7831 90.6015Z" fill="#ED1C24"/>
<path d="M27.6873 48.3914C27.6873 51.2282 25.3291 53.5297 22.4084 53.5297C19.4955 53.5297 17.1348 51.2282 17.1348 48.3914C17.1348 45.5508 19.4955 43.2493 22.4084 43.2493C25.3291 43.2493 27.6873 45.5508 27.6873 48.3914Z" fill="#F59FBB"/>
<path d="M63.8917 48.3914C63.8917 51.2282 61.5309 53.5297 58.6102 53.5297C55.696 53.5297 53.334 51.2282 53.334 48.3914C53.334 45.5508 55.696 43.2493 58.6102 43.2493C61.5309 43.2493 63.8917 45.5508 63.8917 48.3914Z" fill="#F59FBB"/>
<path d="M56.3342 98.5283C56.6986 98.9963 57.3098 99.1369 57.6982 98.8557C58.0853 98.5744 58.1021 97.9705 57.7365 97.506C57.3686 97.0415 56.8604 96.819 56.3702 97.1775C55.8032 97.5913 55.9662 98.0684 56.3342 98.5283Z" fill="#ED1C24"/>
<path d="M51.4954 99.5294C52.0479 99.9942 52.9676 100.137 53.5525 99.8573C54.1266 99.5743 54.1536 98.9702 53.6029 98.5066C53.0558 98.0429 52.2927 97.8197 51.553 98.1752C50.7035 98.5929 50.9537 99.068 51.4954 99.5294Z" fill="#ED1C24"/>
<path d="M47.189 98.3531C47.4507 98.8681 48.0424 99.1284 48.5115 98.9374C48.9781 98.7519 49.1387 98.1833 48.8694 97.6672C48.6064 97.1578 48.1373 96.8405 47.543 97.0829C46.8615 97.3566 46.9184 97.8437 47.189 98.3531Z" fill="#ED1C24"/>
<path d="M26.5057 98.5274C25.9502 98.9953 25.0353 99.1381 24.4529 98.8547C23.8722 98.5735 23.8453 97.9697 24.3989 97.5053C24.9436 97.041 25.7094 96.8197 26.4446 97.1769C27.2984 97.5929 27.045 98.0677 26.5057 98.5274Z" fill="#ED1C24"/>
<path d="M30.6646 99.5285C30.299 99.9937 29.69 100.138 29.304 99.8567C28.9156 99.5734 28.8965 98.97 29.2633 98.5048C29.6301 98.0408 30.1371 97.8208 30.6274 98.1755C31.198 98.5935 31.0338 99.0667 30.6646 99.5285Z" fill="#ED1C24"/>
<path d="M34.8168 98.3518C34.549 98.8666 33.9564 99.128 33.4902 98.9381C33.0214 98.7505 32.8635 98.182 33.1276 97.6661C33.3942 97.1568 33.8642 96.8419 34.4555 97.082C35.1378 97.3601 35.0797 97.8437 34.8168 98.3518Z" fill="#ED1C24"/>
</svg>
