<?xml version="1.0" encoding="utf-8"?>
<!-- Generator: Adobe Illustrator 23.0.1, SVG Export Plug-In . SVG Version: 6.00 Build 0)  -->
<svg version="1.1" id="Layer_1" xmlns="http://www.w3.org/2000/svg" xmlns:xlink="http://www.w3.org/1999/xlink" x="0px" y="0px"
	 viewBox="0 0 940 542" style="enable-background:new 0 0 940 542;" xml:space="preserve">
<style type="text/css">
	.st0{fill:#2BB673;}
</style>
<path class="st0" d="M14.7,22.4c0.1,0.9,0.2,1.9,0.2,3.1c0,1.2-0.1,2.4-0.2,3.6c-0.1,1.2-0.4,2.4-0.7,3.6c-0.3,1.2-0.7,2.2-1.2,3
	c-0.6,0.9-1.3,1.8-2.2,2.7C9.7,39.3,8.8,40.2,8,41c-0.6,0.9-0.8,1.8-0.7,2.7c0.1,0.8,0.4,1.4,0.8,1.8c0.5,0.4,1.2,0.6,2.2,0.5
	c1.6-0.2,2.8-0.7,3.7-1.7c0.9-0.9,1.3-2,1.1-3.3c-0.1-0.7-0.2-1.4-0.3-2.1c-0.2-0.7-0.3-1.4-0.3-2.2c0-0.3,0-0.6,0.3-1
	c0.2-0.4,0.5-0.8,0.8-1.2c0.3-0.4,0.6-0.7,1-1c0.4-0.3,0.7-0.4,0.9-0.4h0.3c0.2,0,0.5,0,0.9,0c0.5,0,0.8,0,0.9,0
	c1.1,0.9,1.8,1.9,2.1,3.2c0.4,1.3,0.7,2.5,0.8,3.7c0.1,0.6,0.1,1.3,0,1.8c-0.1,0.6-0.2,1.2-0.4,1.8c-0.7,2.8-2,5.1-3.9,6.6
	c-1.9,1.6-4.8,2.5-8.4,2.8c-1.4,0.1-2.7,0-3.9-0.4C4.8,52.3,3.8,51.7,3,51c-0.8-0.7-1.5-1.6-2-2.5c-0.5-1-0.8-2-0.9-3
	C0,44.7,0,43.9,0,43.1c0.1-0.8,0.2-1.6,0.5-2.3s0.6-1.5,1.1-2.1c0.5-0.7,1.2-1.2,2-1.7c0.5-0.3,1.1-0.7,1.8-1.1
	C6.1,35.5,6.6,35,7,34.5c0.5-0.8,0.8-1.6,1.1-2.6c0.2-1,0.4-2.1,0.4-3.1c0.1-1.1,0.1-2.1,0-3.2c0-1-0.1-2-0.1-2.8
	c-0.1-0.7-0.1-1.3-0.1-1.8c0-0.5,0.1-0.9,0.3-1.2c0.2-0.3,0.5-0.5,1-0.7c0.5-0.2,1.2-0.3,2.2-0.4c0.6,0,1.1,0.1,1.5,0.3
	c0.4,0.2,0.6,0.5,0.8,0.9c0.2,0.4,0.3,0.8,0.4,1.3C14.6,21.6,14.7,22,14.7,22.4z M14.9,11.8c0,0.5,0,1.1,0,1.6
	c-0.1,0.5-0.2,1-0.5,1.5c-0.2,0.5-0.6,0.8-1.1,1.1c-0.5,0.3-1.1,0.5-1.8,0.6c-0.5,0-1,0-1.5-0.2c-0.5-0.2-0.9-0.4-1.4-0.7
	c-0.4-0.3-0.8-0.7-1-1.1c-0.3-0.4-0.4-0.8-0.5-1.2c0-0.5,0-0.9,0.2-1.4c0.2-0.5,0.4-0.9,0.7-1.3c0.3-0.4,0.7-0.7,1.2-1
	c0.5-0.3,1-0.4,1.5-0.5c1-0.1,1.9,0.1,2.7,0.6C14.3,10.4,14.7,11,14.9,11.8z"/>
<path class="st0" d="M43.6,49.3c-0.5,0.1-0.9,0.3-1.3,0.6c-0.4,0.3-0.7,0.6-1.1,0.9c-0.4,0.3-0.7,0.6-1.2,0.8
	c-0.4,0.3-0.9,0.4-1.4,0.4c-0.8,0.1-1.5,0-2.2-0.3c-0.7-0.3-1.4-0.6-2-1c-1.2-0.6-2.1-1.4-2.9-2.3c-0.8-1-1.4-2-1.9-3.2
	c-0.5-1.1-0.9-2.3-1.2-3.6c-0.3-1.3-0.4-2.5-0.5-3.7c0-0.1,0-0.2-0.1-0.3c0-0.1-0.1-0.2-0.1-0.2c0-2.2-0.1-4.4-0.3-6.6
	c-0.1-2.2-0.1-4.4,0.2-6.5c0.2-2.1,0.8-4.1,1.6-6c0.8-1.9,2.3-3.6,4.3-5.2c0.7-0.6,1.6-1.1,2.6-1.7c1-0.6,2-0.9,2.9-1
	c0.9,0,1.7,0.1,2.4,0.3c0.7,0.3,1.3,0.6,1.9,1.1c0.6,0.5,1.1,1,1.5,1.6c0.5,0.6,0.9,1.2,1.3,1.8c0.4,0.7,0.9,1.3,1.4,2
	c0.5,0.6,0.8,1.3,1,2.1c0,0.2,0,0.6,0.1,1.2c0.1,0.5,0.1,1.1,0.1,1.7c0,0.6,0.1,1.2,0.1,1.7c0.1,0.5,0.1,0.9,0.1,1.1
	c0,0.4,0.1,0.9,0.1,1.5c0,0.6,0.1,1.2,0.1,1.8c0,0.6,0.1,1.1,0.1,1.6c0,0.5,0.1,0.7,0.1,0.8c0,0.5,0.1,1.1,0.1,1.8
	c0,0.7,0,1.4,0,2.2c0,0.8-0.1,1.5-0.1,2.3c-0.1,0.7-0.2,1.4-0.3,1.9c0,0.1,0,0.2-0.1,0.5c-0.1,0.2-0.1,0.5-0.2,0.8
	c-0.1,0.3-0.1,0.5-0.2,0.8c-0.1,0.2-0.1,0.4-0.1,0.4s0,0.1,0,0.1c0,0.1,0,0.1,0,0.1c0,0.5,0.3,1,0.8,1.4c0.5,0.5,1,0.9,1.5,1.4
	c0.6,0.5,1.1,1,1.6,1.5c0.5,0.5,0.7,1,0.8,1.6c0,0.2-0.2,0.6-0.5,1.3c-0.3,0.7-0.7,1.3-1.1,2c-0.4,0.7-0.9,1.3-1.3,1.9
	c-0.4,0.6-0.8,0.8-1,0.8c-0.1,0-0.1,0-0.2,0c0,0-0.1,0-0.1,0l-5-4.1c0-0.1-0.1-0.1-0.2-0.2C43.7,49.3,43.7,49.3,43.6,49.3z
	 M34.6,33.5c0.1,0.8,0.2,1.7,0.3,2.7c0.1,1,0.3,2,0.6,3c0.3,1,0.7,1.9,1.2,2.6c0.5,0.8,1.2,1.4,2.1,1.7c0.2-0.1,0.3-0.3,0.5-0.6
	c0.1-0.3,0.2-0.5,0.2-0.6v-0.1c0-0.1,0-0.1-0.1-0.2c-0.5-0.6-1.1-1.3-1.8-2.1c-0.7-0.8-1.1-1.6-1.2-2.5c0-0.3,0.1-0.7,0.2-1
	c0.2-0.3,0.3-0.6,0.6-0.8c0.2-0.2,0.5-0.5,0.9-0.6c0.3-0.2,0.7-0.3,1-0.3c0.3,0,0.6,0,0.9,0.2c0.3,0.2,0.5,0.4,0.8,0.6
	c0.2,0.2,0.5,0.4,0.6,0.6c0.2,0.2,0.4,0.2,0.6,0.2c0.3-0.1,0.5-0.5,0.6-1.1c0.1-0.6,0.2-1.3,0.3-2.1c0-0.7,0-1.5,0-2.2
	c0-0.7-0.1-1.2-0.1-1.5c0-0.2,0-0.6-0.1-1.2c-0.1-0.6-0.1-1.3-0.2-2.1c-0.1-0.8-0.2-1.6-0.4-2.4c-0.1-0.8-0.3-1.6-0.6-2.3
	c-0.2-0.7-0.5-1.3-0.8-1.7c-0.3-0.4-0.7-0.7-1.1-0.6c-0.7,0-1.3,0.4-1.9,1c-0.5,0.6-1,1.4-1.4,2.3c-0.4,0.9-0.7,1.9-1,3
	c-0.2,1.1-0.4,2.2-0.6,3.2c-0.1,1.1-0.2,2-0.3,2.9C34.6,32.4,34.6,33.1,34.6,33.5z"/>
<path class="st0" d="M75.2,52.1c-0.3-0.1-0.6-0.3-0.8-0.6c-0.2-0.3-0.3-0.7-0.4-1.1c-0.1-0.4-0.2-0.7-0.2-1
	c-0.1-0.3-0.2-0.4-0.3-0.4c-0.2,0-0.5,0.2-0.9,0.5c-0.4,0.3-0.8,0.6-1.2,1c-0.5,0.4-1,0.7-1.5,1.1c-0.6,0.3-1.1,0.5-1.7,0.6
	c-0.8,0.1-1.5,0-2.2-0.1c-0.7-0.2-1.4-0.4-2-0.8c-1.4-0.8-2.4-1.8-3.2-2.9c-0.8-1.2-1.4-2.4-1.8-3.8c-0.4-1.4-0.7-2.8-0.9-4.3
	c-0.2-1.5-0.3-2.9-0.5-4.3c-0.3-2.6-0.3-5.2-0.1-7.8c0.2-2.6,0.3-5.2,0.5-7.9v-0.5c0-0.3,0-0.6,0.1-0.9c0-0.3,0.1-0.6,0.1-0.9v-0.5
	c0-0.6,0.1-1.1,0.1-1.6c0-0.5,0.1-0.8,0.2-1.2c0.1-0.3,0.4-0.6,0.8-0.8c0.4-0.2,0.9-0.4,1.7-0.5c0.2,0,0.5,0,0.8,0
	c0.4,0.1,0.7,0.1,1.1,0.3c0.4,0.1,0.8,0.2,1.1,0.4c0.4,0.1,0.6,0.3,0.7,0.5c0,0.1,0,0.2,0.1,0.4c0,0.2,0.1,0.3,0.1,0.4
	c0.1,0.8,0.1,1.7,0.1,2.6c0,0.9-0.1,1.8-0.2,2.7c-0.1,0.9-0.2,1.8-0.3,2.7c-0.1,0.9-0.2,1.8-0.2,2.6c-0.1,1.7-0.1,3.3,0.1,5
	c0.1,1.6,0.3,3.3,0.5,5c0.1,1.2,0.3,2.3,0.5,3.4c0.2,1.1,0.8,2.1,1.7,2.9c0.1,0.1,0.3,0.2,0.6,0.5c0.3,0.3,0.5,0.4,0.6,0.5
	c0,0,0.1,0,0.2,0.1c0.1,0,0.2,0.1,0.2,0.1h0.1h0.1c0.1,0,0.2-0.1,0.5-0.2c0.2-0.1,0.4-0.3,0.5-0.5c0.7-1.5,1.3-3.1,1.6-4.6
	c0.3-1.5,0.5-3,0.6-4.5c0.1-1.5,0.1-3,0.1-4.5c0-1.5,0-3.1,0-4.8v-0.4c0-0.2,0-0.4,0-0.7c0-0.2,0-0.5,0.1-0.7c0-0.2,0-0.4,0-0.5
	c0,0,0-0.2,0.1-0.4c0-0.3,0.1-0.6,0.1-0.9c0-0.3,0.1-0.6,0.1-0.8c0-0.2,0.1-0.4,0.1-0.5c0-1,0-1.8-0.1-2.6c-0.1-0.7-0.1-1.4,0-1.9
	c0.1-0.5,0.4-0.9,0.9-1.3c0.5-0.3,1.4-0.5,2.6-0.6c0.2,0,0.5-0.1,0.9-0.1c0.4,0,0.7,0,1.1,0c0.4,0,0.7,0.1,1,0.2
	c0.3,0.1,0.6,0.4,0.7,0.7c0,0.2,0,0.5,0.1,1c0.1,0.5,0.1,0.8,0.2,0.9c0.2,1.8,0.2,3.6,0.1,5.3c-0.1,1.7-0.2,3.5-0.3,5.3
	c0,0.5,0,1.1,0.1,1.7c0.1,0.6,0.1,1.3-0.1,1.9c0.3,1.7,0.4,3.4,0.5,5.1c0.1,1.7,0.2,3.4,0.2,5.1c0,1.7,0.1,3.5,0.1,5.2
	c0,1.7,0.1,3.5,0.2,5.2c-0.1,0.3-0.2,0.6-0.3,0.9c-0.1,0.3-0.3,0.5-0.7,0.5c-0.8,0.1-1.5,0.1-2.1,0.1C76.8,51.9,76.1,52,75.2,52.1z"
	/>
<path class="st0" d="M87.3,49.1c0-0.1,0-0.2,0.1-0.3c0-0.1,0-0.2,0-0.2c0-0.5,0.1-1.1,0.2-1.8c0.1-0.7,0.2-1.3,0.4-1.7
	c0.1-0.3,0.3-0.5,0.6-0.6c0.3-0.1,0.5-0.2,0.8-0.3c0.3-0.1,0.6-0.2,0.8-0.3c0.3-0.1,0.5-0.3,0.6-0.5c0,0,0.1-0.1,0.1-0.2
	c0-0.1,0-0.2,0-0.3c0-0.1,0-0.2,0-0.5c0-0.2,0-0.5,0.1-0.8c0-0.3,0-0.6,0-0.8v-0.6c-0.1-3-0.1-6.1-0.1-9.1c0.1-3,0-6-0.2-9
	c0-0.1,0-0.2-0.1-0.5c0-0.2-0.1-0.5-0.1-0.7c0-0.3,0-0.5-0.1-0.7c0-0.2,0-0.4,0-0.5c-0.1-0.3-0.3-0.5-0.5-0.6
	c-0.3-0.1-0.6-0.1-0.9-0.2c-0.3-0.1-0.6-0.2-0.9-0.4c-0.3-0.2-0.4-0.5-0.5-0.9c0,0,0-0.1,0-0.1c0,0,0-0.1,0-0.1v-1.2
	c0-0.5,0-1.1,0-1.7c0-0.6,0-1.2,0-1.7v-1.1c0.1-0.3,0.2-0.7,0.3-1.1c0.1-0.5,0.3-0.7,0.6-0.8l0.1,0.1h0.1c0.6,0.1,1.4,0.2,2.4,0.1
	c1,0,2,0,3.1,0.1c1,0.1,2,0.2,3,0.4c0.9,0.2,1.6,0.6,1.9,1.1c0.2,0.2,0.3,0.6,0.3,1.1c0,0.5,0,0.9,0.1,1.1c0.1,1.6,0.1,2.7-0.1,3.4
	c-0.2,0.6-0.4,1.1-0.7,1.3c-0.3,0.2-0.6,0.4-0.9,0.4c-0.3,0.1-0.5,0.4-0.6,0.9c-0.3,1.6-0.4,3.2-0.5,4.7c0,1.6,0,3.2,0,4.7
	c0.1,1.6,0.1,3.1,0.3,4.7c0.1,1.6,0.2,3.1,0.3,4.7v0.6v1c0,0.4,0,0.7,0,1c0,0.3,0,0.5,0,0.6v0.4c0,0.5,0.2,0.7,0.5,0.9
	c0.3,0.1,0.6,0.3,1,0.4c0.4,0.1,0.7,0.3,1,0.5c0.3,0.2,0.5,0.6,0.6,1.2c0,0.3,0,0.6,0,1.2c0,0.5,0,1-0.1,1.5c-0.1,0.5-0.2,1-0.4,1.4
	c-0.2,0.4-0.5,0.6-1,0.7c-0.8,0.2-1.6,0.2-2.6,0.1c-1-0.1-1.8-0.1-2.6,0c-0.1,0-0.4,0-0.8,0.1c-0.4,0.1-0.9,0.1-1.4,0.2
	c-0.5,0.1-0.9,0.1-1.4,0.1c-0.4,0-0.7,0.1-0.8,0.1c-0.5,0-1-0.1-1.5-0.3C87.6,50.2,87.4,49.8,87.3,49.1z"/>
<path class="st0" d="M108.7,51.5c-0.1-0.1-0.3-0.2-0.4-0.4c-0.2-0.1-0.2-0.3-0.2-0.5c-0.2-1.8-0.2-3.6,0-5.5
	c0.2-1.8,0.3-3.7,0.3-5.5c0-2.2-0.1-4.5-0.2-6.8c-0.1-2.3-0.3-4.5-0.4-6.8c-0.1-2.3-0.3-4.5-0.4-6.8c-0.1-2.3-0.1-4.5,0-6.7
	c0-0.2,0.1-0.5,0.2-0.7c0.1-0.3,0.3-0.4,0.6-0.5c0.4,0,0.8,0,1.3,0.1c0.5,0.1,0.9,0.1,1.3,0.1c0.2,0,0.4,0,0.8,0
	c0.4,0,0.9,0,1.3-0.1c0.5,0,0.9,0,1.3-0.1c0.4,0,0.7,0,0.8,0c0,0,0.2,0,0.4-0.1c0.3,0,0.5-0.1,0.8-0.1c0.3,0,0.6-0.1,0.8-0.1
	c0.2,0,0.4-0.1,0.5-0.1c0.2,0,0.6,0,1.1-0.1c0.5,0,1,0,1.5,0c0.5,0,1,0.1,1.4,0.2c0.4,0.1,0.6,0.3,0.7,0.7l0.4,4.7
	c0,0.3-0.1,0.6-0.4,0.8c-0.3,0.2-0.6,0.3-0.8,0.4c-0.8,0.1-1.5,0.1-2.2-0.1c-0.8-0.1-1.5-0.2-2.3-0.1c-0.2,0-0.4,0-0.7,0
	c-0.3,0-0.6,0.1-0.9,0.1c-0.3,0.1-0.6,0.2-0.8,0.3c-0.2,0.2-0.3,0.4-0.3,0.7c0.1,1.5,0.1,3.1,0,4.7c-0.1,1.6-0.1,3.2,0.1,4.7
	c0,0.2,0,0.4,0.1,0.7c0,0.3,0.1,0.5,0.3,0.7c0.2,0.1,0.4,0.2,0.7,0.3c0.3,0.1,0.6,0.1,1,0.1c0.3,0,0.7,0,1,0c0.3,0,0.5,0,0.7,0
	c0.2,0,0.4,0,0.8-0.1c0.4,0,0.8-0.1,1.3-0.1c0.5-0.1,0.9-0.1,1.3-0.1c0.4,0,0.7-0.1,0.8-0.1c0.1,0,0.2,0.1,0.3,0.2
	c0.1,0.1,0.1,0.2,0.1,0.3l0.4,3.7c0,0.3,0,0.7-0.3,1c-0.2,0.3-0.5,0.5-0.8,0.6c-0.8,0.1-1.6,0.1-2.5,0c-0.8-0.1-1.7-0.2-2.5-0.1
	c-0.5,0.1-0.9,0.2-1.1,0.4c-0.2,0.2-0.4,0.5-0.5,0.8c-0.1,0.3-0.1,0.6-0.1,1v1.2c0,0.1,0,0.4-0.1,0.8c0,0.4-0.1,0.9-0.1,1.4
	c-0.1,0.5-0.1,0.9-0.1,1.3c0,0.4-0.1,0.7-0.1,0.8c0.1,0,0.1,0.1,0.1,0.3c0,0.2,0,0.3,0.1,0.4c0,0.2,0,0.5,0.1,0.8
	c0.1,0.3,0.3,0.5,0.6,0.5h1.3h2h2h1.3c0.6,0,1.1,0.1,1.6,0.2c0.5,0.1,0.8,0.5,1,1.2c0,0.1,0,0.3,0.1,0.5c0.1,0.3,0.1,0.6,0.2,1
	c0.1,0.4,0.1,0.7,0.2,1.1c0.1,0.4,0.1,0.6,0.1,0.8v0.3c0.1,0.5-0.1,0.8-0.4,0.9c-0.3,0.1-0.7,0.1-1.1,0.2c-1.6,0.2-3.2,0.2-4.7,0.1
	c-1.6-0.1-3.2-0.2-4.7-0.2c-0.1,0-0.4,0-0.8,0c-0.5,0.1-0.7,0.1-0.8,0.1c-0.1,0-0.4,0-0.8,0c-0.4,0-0.8,0-1.2,0.1
	c-0.4,0-0.8,0.1-1.2,0.1C109.1,51.5,108.8,51.5,108.7,51.5z M108.4,8.5c0-0.1,0.2-0.3,0.5-0.7c0.3-0.3,0.7-0.7,1.1-1.1
	c0.4-0.4,0.8-0.8,1.2-1.1c0.4-0.4,0.7-0.6,0.9-0.8c0.1,0,0.2-0.2,0.5-0.4c0.2-0.2,0.4-0.4,0.4-0.5c0.1-0.1,0.3-0.3,0.5-0.5
	c0.2-0.2,0.5-0.5,0.7-0.8c0.3-0.3,0.5-0.5,0.8-0.8c0.2-0.2,0.4-0.4,0.5-0.5c0.1-0.3,0.4-0.6,0.9-0.9c0.5-0.4,0.9-0.5,1.2-0.5
	c0.1,0,0.3,0.1,0.6,0.2c0.2,0.1,0.5,0.3,0.7,0.5c0.2,0.2,0.5,0.4,0.6,0.6c0.2,0.2,0.3,0.3,0.3,0.4v0.6v0.6c0,0.2-0.1,0.4-0.3,0.5
	c-0.1,0.1-0.3,0.3-0.6,0.5c-0.3,0.2-0.5,0.4-0.6,0.5c-1.2,0.9-2.5,1.8-3.7,2.7c-1.3,0.9-2.5,1.8-3.8,2.7c-0.1,0-0.2,0.1-0.3,0.1
	s-0.2,0-0.3,0c-0.4,0-0.8-0.1-1.1-0.4C108.6,9.1,108.4,8.8,108.4,8.5z"/>
<path class="st0" d="M139.5,36.9c0.1-0.2,0-0.5-0.1-0.8c-0.2-0.3-0.4-0.4-0.7-0.4h-0.2c0,0.3,0,0.8,0,1.5c0,0.7,0,1.5-0.1,2.3
	c0,0.8,0,1.6-0.1,2.4c0,0.7,0,1.3,0,1.5v1.2c0,0.7,0.1,1.5,0.2,2.2c0.1,0.7,0.2,1.5,0.2,2.2c0,0.3,0,0.6-0.1,0.8
	c-0.1,0.2-0.3,0.3-0.8,0.3c-0.8,0.1-1.5,0.1-2.3,0.1c-0.7,0-1.5,0-2.3,0.1c-0.2-0.1-0.3-0.2-0.4-0.5l-0.2-0.5c0-0.1,0-0.3-0.1-0.6
	c-0.1-0.4-0.1-0.6-0.1-0.7c-0.1-1.2-0.1-2.3,0-3.5c0.1-1.2,0.1-2.3,0.2-3.5c0-1.9,0-3.8-0.1-5.6c-0.1-1.8,0.1-3.7,0.4-5.6L132.2,14
	c0-0.2,0-0.4,0-0.7c0-0.3,0.1-0.6,0.2-0.9c0.1-0.3,0.2-0.5,0.4-0.7c0.2-0.2,0.4-0.3,0.6-0.3h0.2c0.9,0.1,1.6,0.2,2.2,0.2
	c0.6,0.1,1,0.5,1.2,1.3c0.3,0.8,0.6,1.7,1,2.5c0.4,0.8,0.7,1.6,1,2.4c0,0,0.1,0.1,0.1,0.2v0.2c0.2,1,0.5,2.1,0.9,3.1
	c0.4,1.1,0.8,2.1,1.2,3c-0.1,0.4,0,0.8,0.2,1.3c0.2,0.5,0.5,1,0.8,1.5c0.3,0.5,0.6,1,0.8,1.4c0.2,0.4,0.3,0.8,0.3,1.1
	c0,0.1,0.1,0.3,0.3,0.7c0.2,0.4,0.3,0.7,0.4,1.2c0.1,0.4,0.3,0.8,0.4,1.2c0.1,0.4,0.2,0.6,0.3,0.8c0,0.1,0.1,0.3,0.1,0.5
	c0.1,0.2,0.1,0.4,0.2,0.7c0.1,0.2,0.1,0.5,0.2,0.7c0.1,0.2,0.1,0.4,0.1,0.5c0.2,0.5,0.3,0.9,0.4,1.4c0.1,0.5,0.3,0.9,0.8,1.2
	c0.2-0.4,0.3-0.8,0.3-1.2c0.5-4.2,0.8-8.3,0.7-12.3c-0.1-4-0.1-8.1-0.2-12.3c0-0.1,0.1-0.2,0.3-0.5c0.2-0.2,0.3-0.3,0.3-0.3l4.5-0.3
	c0.3,0,0.5,0.1,0.5,0.3c0,0.2,0.1,0.3,0.3,0.4c-0.1,1.7-0.1,3.4,0,5c0.1,1.6,0.1,3.3-0.1,5c-0.3,2.4-0.5,4.8-0.7,7.1
	c-0.2,2.3-0.2,4.7,0,7.2l-0.4,12.4c0,0.3-0.2,0.8-0.6,1.4c-0.3,0.6-0.7,0.9-1.1,1.1c-0.1,0-0.3,0-0.6,0c-0.3,0-0.5,0-0.6,0
	c-0.9,0.1-1.8,0.1-2.7,0.1c-0.9,0-1.8-0.1-2.7-0.3c-0.5,0-0.9-0.4-1.1-1c-0.3-0.7-0.5-1.4-0.6-2.2c-0.1-0.8-0.2-1.6-0.3-2.3
	c-0.1-0.7-0.1-1.2-0.1-1.4c0-0.1-0.1-0.5-0.2-1c-0.1-0.5-0.2-0.8-0.3-1c-0.1-0.2-0.2-0.5-0.3-1c-0.2-0.5-0.3-1-0.5-1.5
	c-0.2-0.5-0.3-1.1-0.5-1.5C139.7,37.4,139.6,37,139.5,36.9z"/>
<path class="st0" d="M185.6,51.5c-0.2-0.1-0.3-0.2-0.5-0.4c-0.2-0.1-0.2-0.3-0.2-0.5c-0.2-1.8-0.2-3.6,0-5.5
	c0.2-1.8,0.3-3.7,0.3-5.5c0-2.2-0.1-4.5-0.2-6.8c-0.1-2.3-0.3-4.5-0.4-6.8c-0.2-2.3-0.3-4.5-0.4-6.8c-0.1-2.3-0.1-4.5,0-6.7
	c0-0.2,0.1-0.5,0.2-0.7c0.1-0.3,0.3-0.4,0.6-0.5c0.4,0,0.8,0,1.3,0.1c0.5,0.1,0.9,0.1,1.3,0.1c0.2,0,0.4,0,0.8,0
	c0.4,0,0.9,0,1.3-0.1c0.5,0,0.9,0,1.3-0.1c0.4,0,0.7,0,0.8,0c0,0,0.2,0,0.4-0.1c0.3,0,0.5-0.1,0.8-0.1c0.3,0,0.6-0.1,0.8-0.1
	c0.2,0,0.4-0.1,0.5-0.1c0.2,0,0.6,0,1.1-0.1c0.5,0,1,0,1.5,0c0.5,0,1,0.1,1.4,0.2c0.4,0.1,0.6,0.3,0.7,0.7l0.4,4.7
	c0,0.3-0.1,0.6-0.4,0.8c-0.3,0.2-0.6,0.3-0.8,0.4c-0.8,0.1-1.5,0.1-2.3-0.1c-0.8-0.1-1.5-0.2-2.3-0.1c-0.2,0-0.4,0-0.7,0
	c-0.3,0-0.6,0.1-0.9,0.1c-0.3,0.1-0.6,0.2-0.8,0.3c-0.2,0.2-0.3,0.4-0.3,0.7c0.1,1.5,0.1,3.1,0,4.7c-0.1,1.6-0.1,3.2,0.1,4.7
	c0,0.2,0,0.4,0.1,0.7c0,0.3,0.1,0.5,0.3,0.7c0.2,0.1,0.4,0.2,0.7,0.3c0.3,0.1,0.6,0.1,1,0.1c0.3,0,0.7,0,1,0c0.3,0,0.5,0,0.7,0
	s0.4,0,0.8-0.1c0.4,0,0.8-0.1,1.3-0.1c0.5-0.1,0.9-0.1,1.3-0.1c0.4,0,0.7-0.1,0.8-0.1c0.1,0,0.2,0.1,0.3,0.2
	c0.1,0.1,0.1,0.2,0.1,0.3l0.4,3.7c0,0.3,0,0.7-0.3,1c-0.2,0.3-0.5,0.5-0.8,0.6c-0.8,0.1-1.7,0.1-2.5,0c-0.8-0.1-1.7-0.2-2.5-0.1
	c-0.5,0.1-0.9,0.2-1.1,0.4c-0.2,0.2-0.4,0.5-0.4,0.8c-0.1,0.3-0.1,0.6-0.1,1v1.2c0,0.1,0,0.4-0.1,0.8c0,0.4-0.1,0.9-0.1,1.4
	c-0.1,0.5-0.1,0.9-0.1,1.3c0,0.4-0.1,0.7-0.1,0.8c0.1,0,0.1,0.1,0.1,0.3c0,0.2,0,0.3,0.1,0.4c0,0.2,0,0.5,0.1,0.8
	c0.1,0.3,0.3,0.5,0.6,0.5h1.3h2h2h1.3c0.6,0,1.1,0.1,1.6,0.2c0.5,0.1,0.8,0.5,1,1.2c0,0.1,0,0.3,0.1,0.5s0.1,0.6,0.2,1
	c0.1,0.4,0.1,0.7,0.2,1.1c0.1,0.4,0.1,0.6,0.1,0.8v0.3c0.1,0.5-0.1,0.8-0.4,0.9c-0.3,0.1-0.7,0.1-1.1,0.2c-1.6,0.2-3.2,0.2-4.7,0.1
	c-1.6-0.1-3.2-0.2-4.7-0.2c-0.1,0-0.4,0-0.8,0c-0.5,0.1-0.7,0.1-0.8,0.1c-0.2,0-0.4,0-0.8,0s-0.8,0-1.2,0.1c-0.4,0-0.8,0.1-1.2,0.1
	C186,51.5,185.8,51.5,185.6,51.5z"/>
<path class="st0" d="M207.3,42.6c0.3-0.7,0.7-1.2,1.4-1.4c0.7-0.2,1.5-0.3,2.5-0.2c1,0.1,2,0.3,3.2,0.5c1.2,0.3,2.4,0.5,3.7,0.7
	c0.5,0,1-0.2,1.4-0.4c0.4-0.2,0.8-0.5,1.1-0.9c0.3-0.4,0.7-0.8,1-1.2c0.3-0.5,0.6-0.9,1-1.4c0,0,0.1-0.1,0.1-0.3
	c0-0.1,0.1-0.2,0.1-0.3l-0.2-3.3c-0.1,0-0.3-0.2-0.7-0.6c-0.4-0.3-0.7-0.6-0.9-0.8c-0.1-0.1-0.2-0.2-0.4-0.3
	c-0.2-0.1-0.3-0.2-0.4-0.2c-1.3-0.6-2.5-1-3.7-1.4c-1.1-0.3-2.2-0.7-3.2-1.2c-1-0.5-1.9-1.1-2.7-1.9c-0.8-0.8-1.5-2-2.1-3.5
	c0-0.1,0-0.3,0-0.5c0-0.2,0-0.5-0.1-0.7c0-0.2-0.1-0.5-0.1-0.7c0-0.2,0-0.3,0-0.4c0-0.5-0.1-1.1-0.1-1.7c-0.1-0.6,0-1.2,0.2-1.7
	c0-0.2,0.1-0.4,0.2-0.8c0.1-0.4,0.2-0.8,0.4-1.2c0.1-0.4,0.3-0.8,0.4-1.2c0.1-0.4,0.2-0.6,0.3-0.8v-0.3c0.2-0.3,0.4-0.6,0.6-0.8
	c0.2-0.2,0.4-0.4,0.5-0.6c0.2-0.2,0.3-0.4,0.4-0.5c1.2-1.4,2.5-2.4,3.7-3.2c1.2-0.7,2.7-1.2,4.5-1.4c0.5,0,1.2,0,2.1,0.2
	c0.9,0.2,1.9,0.4,2.8,0.7c0.9,0.3,1.8,0.7,2.5,1.2c0.7,0.5,1.1,1,1.1,1.5c0,0.3,0,0.8-0.1,1.4c-0.1,0.6-0.2,1.1-0.4,1.7
	c-0.2,0.6-0.4,1.1-0.7,1.5c-0.3,0.4-0.6,0.7-1,0.7c-1,0.1-2,0.1-2.9,0c-1-0.1-2-0.1-2.9,0c-0.2,0-0.6,0-1.2,0.1
	c-0.6,0.1-1,0.1-1.2,0.1c-0.1,0.1-0.3,0.2-0.5,0.3c-0.2,0.1-0.5,0.2-0.7,0.4c-0.2,0.1-0.4,0.3-0.6,0.4c-0.2,0.2-0.3,0.3-0.3,0.5
	l0.3,3.4c0,0.2,0.1,0.4,0.4,0.5c0.2,0.2,0.5,0.3,0.8,0.5c0.3,0.2,0.6,0.3,0.9,0.5c0.3,0.1,0.5,0.2,0.6,0.3c1.5,0.7,2.9,1.4,4.1,2
	c1.2,0.6,2.3,1.4,3.2,2.3c0.9,0.9,1.6,1.9,2.2,3.1c0.5,1.2,0.9,2.7,1,4.4c0.1,1.5,0,3.1-0.3,4.6c-0.4,1.5-0.9,2.8-1.7,4
	c-0.8,1.2-1.8,2.2-3.1,3c-1.2,0.8-2.6,1.3-4.2,1.4c-1.3,0.2-2.7,0.2-4.1,0.1c-1.4-0.1-2.7-0.4-3.8-0.8c-1.1-0.5-2.1-1.1-2.9-2
	C207.8,45.2,207.4,44,207.3,42.6z"/>
<path class="st0" d="M274.3,49.3c-0.5,0.1-0.9,0.3-1.3,0.6c-0.4,0.3-0.7,0.6-1.1,0.9c-0.4,0.3-0.7,0.6-1.2,0.8
	c-0.4,0.3-0.9,0.4-1.4,0.4c-0.8,0.1-1.5,0-2.2-0.3c-0.7-0.3-1.4-0.6-2-1c-1.2-0.6-2.1-1.4-2.9-2.3c-0.8-1-1.4-2-1.9-3.2
	c-0.5-1.1-0.9-2.3-1.2-3.6c-0.3-1.3-0.4-2.5-0.5-3.7c0-0.1,0-0.2-0.1-0.3c0-0.1-0.1-0.2-0.1-0.2c0-2.2-0.1-4.4-0.3-6.6
	c-0.1-2.2-0.1-4.4,0.2-6.5c0.2-2.1,0.8-4.1,1.6-6c0.8-1.9,2.3-3.6,4.3-5.2c0.7-0.6,1.6-1.1,2.6-1.7c1-0.6,2-0.9,2.9-1
	c0.9,0,1.7,0.1,2.4,0.3c0.7,0.3,1.3,0.6,1.9,1.1c0.6,0.5,1.1,1,1.5,1.6c0.5,0.6,0.9,1.2,1.3,1.8c0.4,0.7,0.9,1.3,1.4,2
	c0.5,0.6,0.8,1.3,1,2.1c0,0.2,0,0.6,0.1,1.2c0.1,0.5,0.1,1.1,0.1,1.7c0,0.6,0.1,1.2,0.1,1.7c0.1,0.5,0.1,0.9,0.1,1.1
	c0,0.4,0.1,0.9,0.1,1.5c0,0.6,0.1,1.2,0.1,1.8c0,0.6,0.1,1.1,0.1,1.6c0,0.5,0.1,0.7,0.1,0.8c0,0.5,0.1,1.1,0.1,1.8
	c0,0.7,0,1.4,0,2.2c0,0.8-0.1,1.5-0.1,2.3c-0.1,0.7-0.2,1.4-0.3,1.9c0,0.1,0,0.2-0.1,0.5c-0.1,0.2-0.1,0.5-0.2,0.8
	c-0.1,0.3-0.1,0.5-0.2,0.8c-0.1,0.2-0.1,0.4-0.1,0.4s0,0.1,0,0.1c0,0.1,0,0.1,0,0.1c0,0.5,0.3,1,0.8,1.4c0.5,0.5,1,0.9,1.5,1.4
	c0.6,0.5,1.1,1,1.5,1.5c0.5,0.5,0.7,1,0.8,1.6c0,0.2-0.2,0.6-0.5,1.3c-0.3,0.7-0.7,1.3-1.1,2c-0.4,0.7-0.9,1.3-1.3,1.9
	c-0.4,0.6-0.8,0.8-1,0.8c-0.1,0-0.1,0-0.2,0c0,0-0.1,0-0.1,0l-5-4.1c0-0.1-0.1-0.1-0.2-0.2C274.4,49.3,274.3,49.3,274.3,49.3z
	 M265.3,33.5c0.1,0.8,0.2,1.7,0.3,2.7c0.1,1,0.3,2,0.6,3c0.3,1,0.7,1.9,1.2,2.6c0.5,0.8,1.2,1.4,2.1,1.7c0.2-0.1,0.3-0.3,0.4-0.6
	c0.1-0.3,0.2-0.5,0.2-0.6v-0.1c0-0.1,0-0.1-0.1-0.2c-0.5-0.6-1.1-1.3-1.8-2.1c-0.7-0.8-1.1-1.6-1.2-2.5c0-0.3,0.1-0.7,0.2-1
	c0.1-0.3,0.3-0.6,0.6-0.8c0.2-0.2,0.5-0.5,0.9-0.6c0.3-0.2,0.7-0.3,1-0.3c0.3,0,0.6,0,0.9,0.2c0.3,0.2,0.5,0.4,0.8,0.6
	c0.2,0.2,0.5,0.4,0.6,0.6c0.2,0.2,0.4,0.2,0.6,0.2c0.3-0.1,0.5-0.5,0.6-1.1c0.1-0.6,0.2-1.3,0.3-2.1c0-0.7,0-1.5,0-2.2
	c0-0.7-0.1-1.2-0.1-1.5c0-0.2,0-0.6-0.1-1.2c-0.1-0.6-0.1-1.3-0.2-2.1c-0.1-0.8-0.2-1.6-0.4-2.4c-0.1-0.8-0.3-1.6-0.6-2.3
	c-0.2-0.7-0.5-1.3-0.8-1.7c-0.3-0.4-0.7-0.7-1.1-0.6c-0.7,0-1.3,0.4-1.9,1c-0.5,0.6-1,1.4-1.4,2.3c-0.4,0.9-0.7,1.9-1,3
	c-0.2,1.1-0.4,2.2-0.6,3.2c-0.1,1.1-0.2,2-0.3,2.9C265.3,32.4,265.3,33.1,265.3,33.5z"/>
<path class="st0" d="M305.9,52.1c-0.3-0.1-0.6-0.3-0.8-0.6c-0.2-0.3-0.3-0.7-0.4-1.1c-0.1-0.4-0.2-0.7-0.2-1
	c-0.1-0.3-0.2-0.4-0.3-0.4c-0.2,0-0.5,0.2-0.9,0.5c-0.4,0.3-0.8,0.6-1.2,1c-0.4,0.4-1,0.7-1.5,1.1c-0.6,0.3-1.1,0.5-1.7,0.6
	c-0.8,0.1-1.5,0-2.2-0.1c-0.7-0.2-1.4-0.4-2-0.8c-1.4-0.8-2.4-1.8-3.2-2.9c-0.8-1.2-1.4-2.4-1.8-3.8c-0.4-1.4-0.7-2.8-0.9-4.3
	c-0.2-1.5-0.3-2.9-0.5-4.3c-0.3-2.6-0.3-5.2-0.1-7.8c0.2-2.6,0.3-5.2,0.5-7.9v-0.5c0-0.3,0-0.6,0.1-0.9c0-0.3,0.1-0.6,0.1-0.9v-0.5
	c0-0.6,0.1-1.1,0.1-1.6c0-0.5,0.1-0.8,0.2-1.2c0.1-0.3,0.4-0.6,0.8-0.8c0.4-0.2,0.9-0.4,1.7-0.5c0.2,0,0.5,0,0.8,0
	c0.4,0.1,0.7,0.1,1.1,0.3c0.4,0.1,0.8,0.2,1.1,0.4c0.4,0.1,0.6,0.3,0.7,0.5c0,0.1,0,0.2,0.1,0.4c0,0.2,0.1,0.3,0.1,0.4
	c0.1,0.8,0.1,1.7,0.1,2.6c0,0.9-0.1,1.8-0.2,2.7c-0.1,0.9-0.2,1.8-0.3,2.7c-0.1,0.9-0.2,1.8-0.2,2.6c-0.1,1.7-0.1,3.3,0.1,5
	c0.1,1.6,0.3,3.3,0.5,5c0.1,1.2,0.3,2.3,0.5,3.4c0.2,1.1,0.8,2.1,1.7,2.9c0.1,0.1,0.3,0.2,0.6,0.5c0.3,0.3,0.5,0.4,0.6,0.5
	c0,0,0.1,0,0.2,0.1c0.1,0,0.2,0.1,0.2,0.1h0.1h0.1c0.1,0,0.2-0.1,0.5-0.2c0.2-0.1,0.4-0.3,0.4-0.5c0.8-1.5,1.3-3.1,1.6-4.6
	c0.3-1.5,0.5-3,0.6-4.5c0.1-1.5,0.1-3,0.1-4.5c0-1.5,0-3.1,0-4.8v-0.4c0-0.2,0-0.4,0-0.7c0-0.2,0-0.5,0.1-0.7c0-0.2,0-0.4,0-0.5
	c0,0,0-0.2,0.1-0.4c0-0.3,0.1-0.6,0.1-0.9c0-0.3,0.1-0.6,0.1-0.8c0-0.2,0.1-0.4,0.1-0.5c0-1,0-1.8-0.1-2.6c-0.1-0.7-0.1-1.4,0-1.9
	c0.1-0.5,0.4-0.9,0.9-1.3c0.5-0.3,1.4-0.5,2.6-0.6c0.2,0,0.5-0.1,0.9-0.1c0.4,0,0.7,0,1.1,0c0.4,0,0.7,0.1,1,0.2
	c0.3,0.1,0.5,0.4,0.7,0.7c0,0.2,0,0.5,0.1,1c0.1,0.5,0.1,0.8,0.2,0.9c0.2,1.8,0.2,3.6,0.1,5.3c-0.1,1.7-0.2,3.5-0.3,5.3
	c0,0.5,0,1.1,0.1,1.7c0.1,0.6,0.1,1.3-0.1,1.9c0.3,1.7,0.4,3.4,0.5,5.1c0.1,1.7,0.2,3.4,0.2,5.1c0,1.7,0.1,3.5,0.1,5.2
	c0,1.7,0.1,3.5,0.2,5.2c-0.1,0.3-0.2,0.6-0.3,0.9c-0.1,0.3-0.3,0.5-0.7,0.5c-0.8,0.1-1.5,0.1-2.1,0.1
	C307.5,51.9,306.8,52,305.9,52.1z"/>
<path class="st0" d="M318,49.1c0-0.1,0-0.2,0.1-0.3c0-0.1,0-0.2,0-0.2c0-0.5,0.1-1.1,0.2-1.8c0.1-0.7,0.2-1.3,0.4-1.7
	c0.1-0.3,0.3-0.5,0.6-0.6c0.3-0.1,0.5-0.2,0.8-0.3c0.3-0.1,0.6-0.2,0.8-0.3c0.3-0.1,0.5-0.3,0.6-0.5c0,0,0.1-0.1,0.1-0.2
	c0-0.1,0-0.2,0-0.3c0-0.1,0-0.2,0-0.5c0-0.2,0-0.5,0.1-0.8c0-0.3,0-0.6,0-0.8v-0.6c-0.1-3-0.1-6.1-0.1-9.1c0.1-3,0-6-0.2-9
	c0-0.1,0-0.2-0.1-0.5c0-0.2-0.1-0.5-0.1-0.7c0-0.3,0-0.5-0.1-0.7c0-0.2,0-0.4,0-0.5c-0.1-0.3-0.3-0.5-0.5-0.6
	c-0.3-0.1-0.6-0.1-0.9-0.2c-0.3-0.1-0.6-0.2-0.9-0.4c-0.3-0.2-0.4-0.5-0.5-0.9c0,0,0-0.1,0-0.1c0,0,0-0.1,0-0.1v-1.2
	c0-0.5,0-1.1,0-1.7c0-0.6,0-1.2,0-1.7v-1.1c0.1-0.3,0.2-0.7,0.3-1.1c0.1-0.5,0.3-0.7,0.6-0.8l0.1,0.1h0.1c0.6,0.1,1.4,0.2,2.4,0.1
	c1,0,2,0,3.1,0.1c1,0.1,2,0.2,3,0.4c0.9,0.2,1.6,0.6,1.9,1.1c0.2,0.2,0.3,0.6,0.3,1.1c0,0.5,0,0.9,0.1,1.1c0.1,1.6,0.1,2.7-0.1,3.4
	c-0.2,0.6-0.4,1.1-0.7,1.3c-0.3,0.2-0.6,0.4-0.9,0.4c-0.3,0.1-0.5,0.4-0.6,0.9c-0.3,1.6-0.4,3.2-0.4,4.7c0,1.6,0,3.2,0,4.7
	c0.1,1.6,0.1,3.1,0.3,4.7c0.1,1.6,0.2,3.1,0.3,4.7v0.6v1c0,0.4,0,0.7,0,1c0,0.3,0,0.5,0,0.6v0.4c0,0.5,0.2,0.7,0.5,0.9
	c0.3,0.1,0.6,0.3,1,0.4c0.4,0.1,0.7,0.3,1,0.5c0.3,0.2,0.5,0.6,0.6,1.2c0,0.3,0,0.6,0,1.2c0,0.5,0,1-0.1,1.5c-0.1,0.5-0.2,1-0.4,1.4
	c-0.2,0.4-0.5,0.6-1,0.7c-0.8,0.2-1.6,0.2-2.6,0.1c-1-0.1-1.8-0.1-2.6,0c-0.1,0-0.4,0-0.8,0.1c-0.4,0.1-0.9,0.1-1.4,0.2
	c-0.5,0.1-0.9,0.1-1.4,0.1c-0.4,0-0.7,0.1-0.8,0.1c-0.5,0-1-0.1-1.5-0.3C318.3,50.2,318,49.8,318,49.1z"/>
<path class="st0" d="M339.4,51.5c-0.1-0.1-0.3-0.2-0.4-0.4c-0.2-0.1-0.2-0.3-0.2-0.5c-0.2-1.8-0.2-3.6,0-5.5
	c0.2-1.8,0.3-3.7,0.3-5.5c0-2.2-0.1-4.5-0.2-6.8c-0.1-2.3-0.3-4.5-0.4-6.8c-0.1-2.3-0.3-4.5-0.4-6.8c-0.1-2.3-0.1-4.5,0-6.7
	c0-0.2,0.1-0.5,0.2-0.7c0.1-0.3,0.3-0.4,0.6-0.5c0.4,0,0.8,0,1.3,0.1c0.5,0.1,0.9,0.1,1.3,0.1c0.2,0,0.4,0,0.8,0
	c0.4,0,0.9,0,1.3-0.1c0.5,0,0.9,0,1.3-0.1c0.4,0,0.7,0,0.8,0c0,0,0.2,0,0.4-0.1c0.3,0,0.5-0.1,0.8-0.1c0.3,0,0.6-0.1,0.8-0.1
	c0.2,0,0.4-0.1,0.5-0.1c0.2,0,0.6,0,1.1-0.1c0.5,0,1,0,1.5,0c0.5,0,1,0.1,1.4,0.2c0.4,0.1,0.6,0.3,0.7,0.7l0.4,4.7
	c0,0.3-0.1,0.6-0.4,0.8c-0.3,0.2-0.6,0.3-0.8,0.4c-0.8,0.1-1.5,0.1-2.2-0.1c-0.8-0.1-1.5-0.2-2.3-0.1c-0.2,0-0.4,0-0.7,0
	c-0.3,0-0.6,0.1-0.9,0.1c-0.3,0.1-0.6,0.2-0.8,0.3c-0.2,0.2-0.3,0.4-0.3,0.7c0.1,1.5,0.1,3.1,0,4.7c-0.1,1.6-0.1,3.2,0.1,4.7
	c0,0.2,0,0.4,0.1,0.7c0,0.3,0.1,0.5,0.3,0.7c0.2,0.1,0.4,0.2,0.7,0.3c0.3,0.1,0.6,0.1,1,0.1c0.3,0,0.7,0,1,0c0.3,0,0.5,0,0.7,0
	c0.2,0,0.4,0,0.8-0.1c0.4,0,0.8-0.1,1.3-0.1c0.4-0.1,0.9-0.1,1.3-0.1c0.4,0,0.7-0.1,0.8-0.1c0.1,0,0.2,0.1,0.3,0.2
	c0.1,0.1,0.1,0.2,0.1,0.3l0.4,3.7c0,0.3,0,0.7-0.3,1c-0.2,0.3-0.5,0.5-0.8,0.6c-0.8,0.1-1.6,0.1-2.5,0c-0.8-0.1-1.7-0.2-2.5-0.1
	c-0.5,0.1-0.9,0.2-1.1,0.4c-0.2,0.2-0.4,0.5-0.5,0.8c-0.1,0.3-0.1,0.6-0.1,1v1.2c0,0.1,0,0.4-0.1,0.8c0,0.4-0.1,0.9-0.1,1.4
	c-0.1,0.5-0.1,0.9-0.1,1.3c0,0.4-0.1,0.7-0.1,0.8c0.1,0,0.1,0.1,0.1,0.3c0,0.2,0,0.3,0.1,0.4c0,0.2,0,0.5,0.1,0.8
	c0.1,0.3,0.3,0.5,0.6,0.5h1.3h2h2h1.3c0.6,0,1.1,0.1,1.6,0.2c0.5,0.1,0.8,0.5,1,1.2c0,0.1,0,0.3,0.1,0.5c0.1,0.3,0.1,0.6,0.2,1
	c0.1,0.4,0.1,0.7,0.2,1.1c0.1,0.4,0.1,0.6,0.1,0.8v0.3c0.1,0.5-0.1,0.8-0.4,0.9c-0.3,0.1-0.7,0.1-1.1,0.2c-1.6,0.2-3.2,0.2-4.7,0.1
	c-1.6-0.1-3.2-0.2-4.7-0.2c-0.1,0-0.4,0-0.8,0c-0.4,0.1-0.7,0.1-0.8,0.1c-0.1,0-0.4,0-0.8,0c-0.4,0-0.8,0-1.2,0.1
	c-0.4,0-0.8,0.1-1.2,0.1C339.8,51.5,339.5,51.5,339.4,51.5z M339.1,8.5c0-0.1,0.2-0.3,0.5-0.7c0.3-0.3,0.7-0.7,1.1-1.1
	c0.4-0.4,0.8-0.8,1.2-1.1c0.4-0.4,0.7-0.6,0.9-0.8c0.1,0,0.2-0.2,0.5-0.4c0.2-0.2,0.4-0.4,0.4-0.5c0.1-0.1,0.3-0.3,0.5-0.5
	c0.2-0.2,0.5-0.5,0.7-0.8c0.3-0.3,0.5-0.5,0.8-0.8c0.2-0.2,0.4-0.4,0.5-0.5c0.1-0.3,0.4-0.6,0.9-0.9c0.5-0.4,0.9-0.5,1.2-0.5
	c0.1,0,0.3,0.1,0.6,0.2c0.2,0.1,0.5,0.3,0.7,0.5c0.2,0.2,0.5,0.4,0.6,0.6c0.2,0.2,0.3,0.3,0.3,0.4v0.6v0.6c0,0.2-0.1,0.4-0.3,0.5
	c-0.1,0.1-0.3,0.3-0.6,0.5c-0.3,0.2-0.5,0.4-0.6,0.5c-1.2,0.9-2.5,1.8-3.7,2.7c-1.3,0.9-2.5,1.8-3.8,2.7c-0.1,0-0.2,0.1-0.3,0.1
	c-0.1,0-0.2,0-0.3,0c-0.4,0-0.8-0.1-1.1-0.4C339.2,9.1,339.1,8.8,339.1,8.5z"/>
<path class="st0" d="M370.2,36.9c0.1-0.2,0-0.5-0.1-0.8c-0.2-0.3-0.4-0.4-0.7-0.4h-0.2c0,0.3,0,0.8,0,1.5c0,0.7,0,1.5-0.1,2.3
	c0,0.8,0,1.6-0.1,2.4c0,0.7,0,1.3,0,1.5v1.2c0,0.7,0.1,1.5,0.2,2.2c0.1,0.7,0.2,1.5,0.2,2.2c0,0.3,0,0.6-0.1,0.8
	c-0.1,0.2-0.3,0.3-0.8,0.3c-0.8,0.1-1.5,0.1-2.3,0.1c-0.7,0-1.5,0-2.3,0.1c-0.2-0.1-0.3-0.2-0.4-0.5l-0.2-0.5c0-0.1,0-0.3-0.1-0.6
	c-0.1-0.4-0.1-0.6-0.1-0.7c-0.1-1.2-0.1-2.3,0-3.5c0.1-1.2,0.1-2.3,0.2-3.5c0-1.9,0-3.8-0.1-5.6c-0.1-1.8,0.1-3.7,0.4-5.6L362.9,14
	c0-0.2,0-0.4,0-0.7c0-0.3,0.1-0.6,0.2-0.9c0.1-0.3,0.2-0.5,0.4-0.7c0.2-0.2,0.4-0.3,0.6-0.3h0.2c0.9,0.1,1.6,0.2,2.2,0.2
	c0.6,0.1,1,0.5,1.2,1.3c0.3,0.8,0.6,1.7,1,2.5c0.4,0.8,0.7,1.6,1,2.4c0,0,0.1,0.1,0.1,0.2v0.2c0.2,1,0.5,2.1,0.9,3.1
	c0.4,1.1,0.8,2.1,1.2,3c-0.1,0.4,0,0.8,0.2,1.3c0.2,0.5,0.5,1,0.8,1.5c0.3,0.5,0.6,1,0.8,1.4c0.2,0.4,0.3,0.8,0.3,1.1
	c0,0.1,0.1,0.3,0.3,0.7c0.2,0.4,0.3,0.7,0.4,1.2c0.1,0.4,0.3,0.8,0.4,1.2c0.1,0.4,0.2,0.6,0.3,0.8c0,0.1,0.1,0.3,0.1,0.5
	c0.1,0.2,0.1,0.4,0.2,0.7c0.1,0.2,0.1,0.5,0.2,0.7c0.1,0.2,0.1,0.4,0.1,0.5c0.2,0.5,0.3,0.9,0.4,1.4c0.1,0.5,0.3,0.9,0.8,1.2
	c0.2-0.4,0.3-0.8,0.3-1.2c0.5-4.2,0.8-8.3,0.7-12.3c-0.1-4-0.1-8.1-0.2-12.3c0-0.1,0.1-0.2,0.3-0.5c0.2-0.2,0.3-0.3,0.3-0.3l4.5-0.3
	c0.3,0,0.5,0.1,0.5,0.3c0,0.2,0.1,0.3,0.3,0.4c-0.1,1.7-0.1,3.4,0,5c0.1,1.6,0.1,3.3-0.1,5c-0.3,2.4-0.5,4.8-0.7,7.1
	c-0.2,2.3-0.2,4.7,0,7.2l-0.5,12.4c0,0.3-0.2,0.8-0.6,1.4c-0.3,0.6-0.7,0.9-1.1,1.1c-0.1,0-0.3,0-0.6,0c-0.3,0-0.5,0-0.6,0
	c-0.9,0.1-1.8,0.1-2.7,0.1c-0.9,0-1.8-0.1-2.7-0.3c-0.5,0-0.9-0.4-1.1-1c-0.3-0.7-0.5-1.4-0.6-2.2c-0.1-0.8-0.2-1.6-0.3-2.3
	c-0.1-0.7-0.1-1.2-0.1-1.4c0-0.1-0.1-0.5-0.2-1c-0.1-0.5-0.2-0.8-0.3-1c-0.1-0.2-0.2-0.5-0.3-1c-0.2-0.5-0.3-1-0.5-1.5
	c-0.2-0.5-0.3-1.1-0.5-1.5C370.4,37.4,370.3,37,370.2,36.9z"/>
<path class="st0" d="M398.6,40c-0.1-0.9-0.2-1.9-0.2-3.1c0-1.2,0.1-2.4,0.2-3.6c0.1-1.2,0.4-2.4,0.7-3.6c0.3-1.2,0.7-2.2,1.2-3
	c0.6-0.9,1.3-1.8,2.2-2.7c0.9-0.9,1.7-1.7,2.5-2.5c0.6-0.9,0.8-1.8,0.7-2.7c-0.1-0.8-0.4-1.4-0.8-1.8c-0.5-0.4-1.2-0.6-2.2-0.5
	c-1.6,0.2-2.8,0.7-3.7,1.7c-0.9,0.9-1.3,2-1.1,3.3c0.1,0.7,0.2,1.4,0.3,2.1c0.2,0.7,0.3,1.4,0.3,2.2c0,0.3,0,0.6-0.3,1
	c-0.2,0.4-0.5,0.8-0.8,1.2c-0.3,0.4-0.6,0.7-1,1c-0.4,0.3-0.7,0.4-0.9,0.4h-0.3c-0.2,0-0.5,0-0.9,0c-0.5,0-0.8,0-0.9,0
	c-1.1-0.9-1.8-1.9-2.1-3.2c-0.4-1.3-0.7-2.5-0.8-3.7c-0.1-0.6-0.1-1.3,0-1.8c0.1-0.6,0.2-1.2,0.4-1.8c0.7-2.8,2-5.1,3.9-6.6
	c1.9-1.6,4.8-2.5,8.4-2.8c1.4-0.1,2.7,0,3.9,0.4c1.1,0.4,2.1,0.9,2.9,1.7c0.8,0.7,1.5,1.6,2,2.5c0.5,1,0.8,2,0.9,3
	c0.1,0.8,0.1,1.5,0.1,2.3c-0.1,0.8-0.2,1.6-0.4,2.3c-0.2,0.7-0.6,1.5-1.1,2.1c-0.5,0.7-1.2,1.2-2,1.7c-0.5,0.3-1.1,0.7-1.8,1.1
	c-0.7,0.4-1.2,0.9-1.6,1.4c-0.5,0.8-0.8,1.6-1.1,2.6c-0.2,1-0.4,2.1-0.4,3.1s-0.1,2.1,0,3.2c0,1,0.1,2,0.1,2.8
	c0,0.7,0.1,1.3,0.1,1.8c0,0.5,0,0.9-0.2,1.2c-0.2,0.3-0.5,0.5-1,0.7c-0.5,0.2-1.2,0.3-2.2,0.4c-0.6,0.1-1.1,0-1.5-0.3
	c-0.4-0.2-0.7-0.6-0.8-0.9c-0.2-0.4-0.3-0.8-0.4-1.2C398.7,40.9,398.6,40.4,398.6,40z M398.4,50.6c-0.1-0.5-0.1-1,0-1.5
	c0.1-0.5,0.2-1,0.5-1.5c0.2-0.5,0.6-0.8,1.1-1.1c0.5-0.3,1.1-0.5,1.8-0.6c0.5,0,1,0,1.5,0.2c0.5,0.2,1,0.4,1.4,0.7
	c0.4,0.3,0.8,0.6,1,1c0.3,0.4,0.4,0.8,0.5,1.2c0,0.5,0,0.9-0.2,1.4c-0.2,0.5-0.4,0.9-0.7,1.3c-0.3,0.4-0.7,0.7-1.2,1
	c-0.5,0.3-1,0.4-1.5,0.5c-1,0.1-1.9-0.1-2.7-0.6C399,52.1,398.5,51.4,398.4,50.6z"/>
</svg>
