<?xml version="1.0" encoding="UTF-8" standalone="no"?>
<svg
   width="250"
   height="150"
   viewBox="0 0 250 150"
   fill="none"
   version="1.1"
   id="svg2388"
   sodipodi:docname="svgPage70DonFito.svg"
   inkscape:version="1.2.1 (9c6d41e410, 2022-07-14)"
   xmlns:inkscape="http://www.inkscape.org/namespaces/inkscape"
   xmlns:sodipodi="http://sodipodi.sourceforge.net/DTD/sodipodi-0.dtd"
   xmlns="http://www.w3.org/2000/svg"
   xmlns:svg="http://www.w3.org/2000/svg">
  <defs
     id="defs2392">
    <pattern
       id="EMFhbasepattern"
       patternUnits="userSpaceOnUse"
       width="6"
       height="6"
       x="0"
       y="0" />
  </defs>
  <sodipodi:namedview
     id="namedview2390"
     pagecolor="#ffffff"
     bordercolor="#000000"
     borderopacity="0.25"
     inkscape:showpageshadow="2"
     inkscape:pageopacity="0.0"
     inkscape:pagecheckerboard="0"
     inkscape:deskcolor="#d1d1d1"
     showgrid="false"
     inkscape:zoom="0.92627381"
     inkscape:cx="48.581747"
     inkscape:cy="98.243089"
     inkscape:window-width="3840"
     inkscape:window-height="2066"
     inkscape:window-x="-11"
     inkscape:window-y="-11"
     inkscape:window-maximized="1"
     inkscape:current-layer="svg2388" />
  <path
     style="fill:#f7941e;fill-opacity:1;fill-rule:evenodd;stroke:none;stroke-width:0.456991"
     d="m 258.9099,-28.640738 c -107.30771,-0.996448 -107.30771,-0.996448 -137.06882,-0.996448 -35.000764,0 -121.97869033,0.996448 -121.97869033,0.996448 0,0 -3.98212257,65.876168 -3.98212257,83.369336 0,27.789779 3.98212257,97.651732 3.98212257,97.651732 259.04751033,0 259.04751033,0 259.04751033,0 0,0 2.09585,-69.419089 2.09585,-92.005203 0,-22.696831 -2.09585,-89.015865 -2.09585,-89.015865 z"
     id="path2397" />
  <path
     style="fill:#ffffff;fill-opacity:1;fill-rule:nonzero;stroke:none;stroke-width:0.584274"
     d="M 89.570046,30.504564 H 66.449173 v 75.087546 h 23.120873 z"
     id="path2399" />
  <path
     style="fill:#7a411b;fill-opacity:1;fill-rule:evenodd;stroke:none;stroke-width:0.584274"
     d="m 88.36374,65.784389 c 0,2.075286 0,2.075286 0,2.075286 0,0 -1.206306,0.18866 -8.243094,0.37732 -5.026274,0.188666 -12.465167,-0.37732 -12.465167,-0.37732 0,-2.075286 0,-2.075286 0,-2.075286 z"
     id="path2401" />
  <path
     style="fill:#7a411b;fill-opacity:1;fill-rule:evenodd;stroke:none;stroke-width:0.584274"
     d="m 134.60547,74.462846 c 0,22.073475 1.2063,77.162834 1.2063,77.162834 77.40465,0 77.40465,0 77.40465,0 0,0 0.60316,-54.900693 0.60316,-72.634941 0,-17.922903 -0.60316,-70.3709891 -0.60316,-70.3709891 0,0 -32.16817,-0.7546467 -41.0144,-0.7546467 -10.45467,0 -36.39025,0.7546467 -36.39025,0.7546467 0,0 -1.2063,52.0707601 -1.2063,65.8430961 z"
     id="path2403" />
  <path
     style="fill:#a35625;fill-opacity:1;fill-rule:evenodd;stroke:none;stroke-width:0.584274"
     d="m 146.26644,46.540847 c 0,7.546485 0.80419,26.412706 0.80419,26.412706 53.27852,0 53.27852,0 53.27852,0 0,0 0.40211,-18.677555 0.40211,-24.903407 0,-6.037191 -0.40211,-23.9601 -0.40211,-23.9601 0,0 -22.1156,-0.18866 -28.14713,-0.18866 -7.23784,0 -25.13139,0.18866 -25.13139,0.18866 0,0 -0.80419,17.734248 -0.80419,22.450801 z"
     id="path2405" />
  <path
     style="fill:#a35625;fill-opacity:1;fill-rule:evenodd;stroke:none;stroke-width:0.584274"
     d="m 146.26644,109.55401 c 0,7.5465 0.80419,26.41271 0.80419,26.41271 53.27852,0 53.27852,0 53.27852,0 0,0 0.40211,-18.86621 0.40211,-24.90341 0,-6.03719 -0.40211,-23.960094 -0.40211,-23.960094 0,0 -22.1156,-0.188666 -28.14713,-0.188666 -7.23784,0 -25.13139,0.188666 -25.13139,0.188666 0,0 -0.80419,17.734244 -0.80419,22.450794 z"
     id="path2407" />
  <g
     id="g2465"
     transform="matrix(0.86644195,0,0,0.76747218,38.947137,2.3819147)">
    <path
       fill-rule="evenodd"
       clip-rule="evenodd"
       d="m 80.3287,185.678 c 0,0 7.1107,1.408 10.2553,1.842 3.1354,0.432 5.133,1.493 5.989,3.357 0.8559,1.858 0.711,2.922 -3.1434,3.588 -3.8504,0.664 -13.4106,1.727 -15.8389,0.927 C 75.1638,194.596 73,188.349 73,188.349 Z"
       fill="#231f20"
       id="path2316" />
    <path
       fill-rule="evenodd"
       clip-rule="evenodd"
       d="m 15.3433,179.509 c 0,0 -3.1731,4.578 -1.351,6.339 1.8343,1.759 3.383,1.985 4.4443,3.839 1.2224,2.13 0.976,4.87 -6.1175,3.719 -6.84846,-1.105 -8.10336,-4.725 -9.90246,-7.013 -2.86041,-3.64 -3.384299,-5.546 -0.47109,-8.07 2.91456,-2.514 5.47715,-2.645 5.47715,-2.645 z"
       fill="#231f20"
       id="path2318" />
    <path
       fill-rule="evenodd"
       clip-rule="evenodd"
       d="m 66.512,131.678 c 0,0 10.062,36.105 12.5545,43.573 C 81.5629,182.722 82,186.72 82,186.72 c 0,0 -8.8324,2.698 -10.301,2.954 -1.4598,0.261 -6.2441,-11.332 -11.0425,-20.604 -4.783,-9.272 -13.1629,-22.313 -14.4092,-20.511 -1.2513,1.807 -6.1494,16.647 -12.8881,22.828 -6.7323,6.181 -20.4244,13.996 -20.4244,13.996 0,0 -6.5176,-8.409 -5.89255,-10.083 0.84489,-2.258 14.65335,-9.838 16.39935,-16.016 1.7448,-6.185 1.2923,-26.644 1.2923,-26.644 z"
       fill="#7a411b"
       id="path2320" />
    <path
       d="m 86.9053,121.678 c 0,0 8.6853,3.562 8.0628,4.863 -1.1369,2.358 -3.938,-0.014 -3.938,-0.014 0,0 4.2744,5.393 2.9325,6.263 -1.7865,1.152 -5.2759,-4.144 -5.2759,-4.144 0,0 3.5345,5.837 2.2042,6.774 -1.8175,1.289 -4.8866,-4.844 -4.8866,-4.844 0,0 2.3344,5.579 1.0157,6.061 -1.8729,0.685 -5.8275,-7.431 -6.0003,-9.911 -0.1663,-2.478 0.7734,-1.593 0.7734,-1.593 z"
       fill="#ddceb1"
       id="path2322" />
    <path
       fill-rule="evenodd"
       clip-rule="evenodd"
       d="m 61.9748,69.6779 c 0,0 -5.1232,7.7459 8.1208,40.5781 3.7636,9.349 11.1496,16.422 11.1496,16.422 L 88,122.058 c 0,0 -4.8134,-8.964 -9.908,-19.213 C 72.9766,92.5996 70.9198,80.0044 66.5341,73.9459 64.975,71.7894 61.9748,69.6779 61.9748,69.6779 Z"
       fill="#ba2026"
       id="path2324" />
    <path
       fill-rule="evenodd"
       clip-rule="evenodd"
       d="M 62,71.8413 55.4132,105.678 39,66.6779 Z"
       fill="#2bb673"
       id="path2326" />
    <path
       d="m 11.3992,125.336 c 0,0 3.6794,8.407 2.2855,8.841 -2.5427,0.793 -2.8292,-2.737 -2.8292,-2.737 0,0 -0.8489,6.575 -2.45201,6.224 -2.14019,-0.47 -0.79824,-6.435 -0.79824,-6.435 0,0 -1.69244,6.359 -3.33823,6.069 -2.26413,-0.406 0,-6.634 0,-6.634 0,0 -2.37607,5.35 -3.692707,4.76 -1.848353,-0.845 1.210027,-9.019 2.897127,-10.792 1.68178,-1.772 1.71776,-0.533 1.71776,-0.533 z"
       fill="#ddceb1"
       id="path2328" />
    <path
       fill-rule="evenodd"
       clip-rule="evenodd"
       d="m 32,70.6779 c 0,0 -9.3157,1.7623 -23.91981,34.0631 -4.16186,9.196 -4.08007,19.372 -4.08007,19.372 l 8.18518,1.565 c 0,0 3.1382,-9.665 7.0059,-20.432 C 23.0537,94.4772 32,85.338 32,85.338 Z"
       fill="#ba2026"
       id="path2330" />
    <path
       fill-rule="evenodd"
       clip-rule="evenodd"
       d="m 44.4348,130.692 c -1.7886,-0.127 -5.3829,0.642 -9.2906,0.537 C 31.2353,131.123 27,130.922 27,130.922 l 2.065,1.3 c 0,0 2.9482,0.286 8.2324,0.438 C 42.5791,132.811 47,131.945 47,131.945 Z"
       fill="#00a5a5"
       id="path2332" />
    <path
       fill-rule="evenodd"
       clip-rule="evenodd"
       d="m 59.7751,71.3983 c 0,0 0.0785,5.0941 -0.2736,8.8679 -0.5078,5.5716 -3.8271,12.5681 -3.8271,12.5681 0,0 -5.4055,-5.7652 -7.5769,-10.9148 -2.1648,-5.1444 -4.3793,-13.0792 -4.3793,-13.0792 0,0 -4.8297,-0.3704 -7.3204,0.0077 -2.5693,0.4001 -5.0535,1.7514 -5.0535,1.7514 0,0 -9.1292,55.2336 -7.0311,63.4186 5.0535,3.256 15.837,3.792 26.5709,3.636 13.7271,-0.198 15.3305,-0.923 18.295,-3.871 2.3939,-4.309 -0.9659,-47.4793 -3.4606,-59.2046 -1.0353,-1.1964 -5.9434,-3.1801 -5.9434,-3.1801 z"
       fill="#ba2026"
       id="path2334" />
    <path
       fill-rule="evenodd"
       clip-rule="evenodd"
       d="m 53.3245,11.854 c 3.65,0.5287 8.6523,4.1427 12.558,8.4227 3.9108,4.2852 5.9209,8.3916 8.2045,10.435 3.4986,3.1138 10.955,8.6728 9.7909,14.2603 -1.0737,5.1987 -5.7198,3.0516 -6.8788,3.1682 0.5025,9.5954 -3.823,20.0913 -7.445,22.6855 -3.6182,2.5955 -13.1025,3.9172 -20.9508,1.7999 -8.6815,-2.3428 -15.1367,-5.0835 -18.8325,-10.3172 -3.6856,-5.2298 -4.0787,-7.1826 -4.0787,-7.1826 0,0 -4.0164,1.4332 -5.4552,-2.5682 -1.4402,-4.0053 4.1575,-5.7352 4.1575,-5.7352 0,0 -2.0279,-7.2357 -1.449,-13.7342 0.5814,-6.4958 7.1486,-13.7134 11.7311,-17.2017 4.5774,-3.4947 14.0184,-4.6998 18.648,-4.0325 z"
       fill="#ddceb1"
       id="path2336" />
    <path
       fill-rule="evenodd"
       clip-rule="evenodd"
       d="m 60.5483,29.6787 c -3.6243,-0.0462 -5.4894,2.0635 -5.5471,5.2994 -0.059,3.245 2.0033,5.6551 5.6329,5.6989 3.6096,0.0529 6.3007,-2.2986 6.3651,-5.5481 0.0576,-3.2337 -2.8346,-5.4052 -6.4509,-5.4502 z"
       fill="#ffffff"
       id="path2338" />
    <path
       fill-rule="evenodd"
       clip-rule="evenodd"
       d="m 62.9192,33.6781 c -0.612,-0.0105 -0.9071,0.3725 -0.9191,0.9628 -0.0076,0.5904 0.3234,1.0263 0.931,1.0369 0.6099,0.0085 1.0591,-0.419 1.0689,-1.0104 0.0043,-0.5925 -0.4753,-0.984 -1.0808,-0.9893 z"
       fill="#231f20"
       id="path2340" />
    <path
       fill-rule="evenodd"
       clip-rule="evenodd"
       d="m 29.9419,29.6779 c 0,0 5.3639,10.1613 3.7581,12.43 -1.5954,2.2674 -4.4591,-3.827 -4.4591,-3.827 0,0 4.7512,12.2937 1.7071,11.3448 -3.0415,-0.9401 -4.4279,-8.1361 -4.4279,-8.1361 0,0 2.5975,9.5518 -0.1208,8.0175 -2.7169,-1.5381 -4.1475,-6.9185 -4.1475,-6.9185 1.2488,7.1683 -0.0194,7.9279 -2.199,3.8056 -2.4301,-4.5765 0.1077,-13.6287 0.1077,-13.6287 0,0 4.9537,-0.5955 6.5764,-0.2006 1.6226,0.3811 3.205,-2.887 3.205,-2.887 z"
       fill="#7a411b"
       id="path2342" />
    <path
       d="m 65,58.7913 c 1.0329,2.474 7.2542,2.5947 8,-0.1134"
       stroke="#231f20"
       stroke-width="0.723"
       stroke-linecap="round"
       id="path2344" />
    <path
       fill-rule="evenodd"
       clip-rule="evenodd"
       d="m 49,25.4807 c 0,0 24.302,1.5893 30.312,-4.2547 3.4641,-3.371 -7.2798,-7.5481 -7.2798,-7.5481 0,0 -1.8426,5.4095 -3.7859,5.9294 C 61.261,21.4827 49,25.4807 49,25.4807 Z"
       fill="#a9b750"
       id="path2346" />
    <path
       fill-rule="evenodd"
       clip-rule="evenodd"
       d="m 66.1154,21.4218 c -5.732,2.0298 1.0645,-0.3784 -17.7892,5.0497 -10.7354,3.0925 -29.3651,10.2064 -29.3651,10.2064 0,0 -10.05053,-14.7655 -5.9984,-21.4054 3.814,-6.24869 8.7685,-10.18599 30.0576,-10.57845 16.8109,-0.30326 28.231,3.69649 32.4132,9.67375 3.0828,4.4228 -7.3281,6.3481 -9.3181,7.054 z"
       fill="#918a3e"
       id="path2348" />
    <path
       fill-rule="evenodd"
       clip-rule="evenodd"
       d="m 34.0229,4.42283 c 0.2068,1.64618 1.4732,1.32836 3.1166,0.95675 C 38.7818,5.0096 40.1904,4.7227 39.9789,3.07 39.7768,1.41893 38.2767,0.383966 36.6332,0.752319 34.9898,1.12393 33.8197,2.76361 34.0229,4.42283 Z"
       fill="#a9b750"
       id="path2350" />
    <path
       d="m 65,19.5419 c 0,0 -12.1243,-4.8451 -22.9383,-3.6844 C 22.8192,17.9252 14,24.6779 14,24.6779"
       stroke="#a9b750"
       stroke-width="0.774"
       stroke-linecap="round"
       stroke-dasharray="1.26, 3.1"
       id="path2352" />
    <path
       d="m 60.5,68.6779 c 0.6667,0 0.6667,-2 0,-2 -0.6667,0 -0.6667,2 0,2 z"
       fill="#7a411b"
       id="path2354" />
    <path
       d="m 57.5,64.6779 c 0.6667,0 0.6667,-1 0,-1 -0.6667,0 -0.6667,1 0,1 z"
       fill="#7a411b"
       id="path2356" />
    <path
       d="m 53.5,69.6779 c 0.6667,0 0.6667,-1 0,-1 -0.6667,0 -0.6667,1 0,1 z"
       fill="#7a411b"
       id="path2358" />
    <path
       d="m 50.5,62.6779 c 0.6667,0 0.6667,-1 0,-1 -0.6667,0 -0.6667,1 0,1 z"
       fill="#7a411b"
       id="path2360" />
    <path
       d="m 47.5,58.6779 c 0.6667,0 0.6667,-1 0,-1 -0.6667,0 -0.6667,1 0,1 z"
       fill="#7a411b"
       id="path2362" />
    <path
       d="m 45.5,64.6779 c 0.6667,0 0.6667,-1 0,-1 -0.6667,0 -0.6667,1 0,1 z"
       fill="#7a411b"
       id="path2364" />
    <path
       d="m 38,63.6779 c 1.3333,0 1.3333,-1 0,-1 -1.3333,0 -1.3333,1 0,1 z"
       fill="#7a411b"
       id="path2366" />
    <path
       d="m 39.5,58.6779 c 0.6667,0 0.6667,-1 0,-1 -0.6667,0 -0.6667,1 0,1 z"
       fill="#7a411b"
       id="path2368" />
    <path
       d="m 36.5,53.6779 c 0.6667,0 0.6667,-1 0,-1 -0.6667,0 -0.6667,1 0,1 z"
       fill="#7a411b"
       id="path2370" />
    <path
       d="m 34.5,58.6779 c 0.6667,0 0.6667,-1 0,-1 -0.6667,0 -0.6667,1 0,1 z"
       fill="#7a411b"
       id="path2372" />
    <path
       d="m 30,52.6779 c 1.3333,0 1.3333,-1 0,-1 -1.3333,0 -1.3333,1 0,1 z"
       fill="#7a411b"
       id="path2374" />
    <path
       d="m 63.5,63.6779 c 0.6667,0 0.6667,-1 0,-1 -0.6667,0 -0.6667,1 0,1 z"
       fill="#7a411b"
       id="path2376" />
    <path
       d="m 64.5,69.6779 c 0.6667,0 0.6667,-1 0,-1 -0.6667,0 -0.6667,1 0,1 z"
       fill="#7a411b"
       id="path2378" />
    <path
       d="m 69,64.6779 c 1.3333,0 1.3333,-1 0,-1 -1.3333,0 -1.3333,1 0,1 z"
       fill="#7a411b"
       id="path2380" />
    <path
       d="m 47.5,70.6779 c 0.6667,0 0.6667,-2 0,-2 -0.6667,0 -0.6667,2 0,2 z"
       fill="#7a411b"
       id="path2382" />
    <path
       d="m 32.5,62.6779 c 0.6667,0 0.6667,-1 0,-1 -0.6667,0 -0.6667,1 0,1 z"
       fill="#7a411b"
       id="path2384" />
    <path
       d="m 28,57.6779 c 1.3333,0 1.3333,-1 0,-1 -1.3333,0 -1.3333,1 0,1 z"
       fill="#7a411b"
       id="path2386" />
  </g>
</svg>
