<svg width="169" height="176" viewBox="0 0 169 176" fill="none" xmlns="http://www.w3.org/2000/svg">
<path d="M74.8975 157.231C74.8975 157.231 75.8848 172.643 76.872 174.027C77.8593 175.41 84.3755 174.027 84.3755 174.027" stroke="black" stroke-width="0.872" stroke-miterlimit="10" stroke-linecap="round" stroke-linejoin="round"/>
<path d="M89.1143 151.303C89.1143 151.303 90.1016 171.26 91.0888 172.643C92.0761 174.027 98.5923 172.643 98.5923 172.643" stroke="black" stroke-width="0.872" stroke-miterlimit="10" stroke-linecap="round" stroke-linejoin="round"/>
<path d="M103.528 145.375C103.528 145.375 104.516 168.296 105.503 169.679C106.49 171.063 113.006 169.679 113.006 169.679" stroke="black" stroke-width="0.872" stroke-miterlimit="10" stroke-linecap="round" stroke-linejoin="round"/>
<path d="M109.65 131.148C109.65 131.148 124.459 92.419 119.523 56.6538C114.586 20.8887 95.0377 2.31451 90.8911 0.140938C86.7445 -2.03263 79.4385 21.4815 77.2665 32.9421C74.897 45.5884 87.9292 142.214 87.9292 142.214L109.65 131.148Z" fill="#BA2026"/>
<path d="M102.738 79.7727C102.738 79.7727 103.133 79.5751 103.923 79.1799C105.7 78.3895 108.859 77.2039 110.636 78.3895C113.006 79.9703 107.082 104.077 104.515 108.622C101.751 113.167 102.738 79.7727 102.738 79.7727Z" fill="#D27C28"/>
<path d="M109.452 66.5337C109.452 66.5337 101.356 58.2345 91.2861 63.7673C81.2157 69.3 85.5598 34.5228 85.5598 34.5228C85.5598 34.5228 88.1268 17.3319 91.681 15.7511C95.4327 14.1703 110.045 47.9595 109.452 66.5337Z" fill="#D27C28"/>
<path d="M38.762 145.968C38.762 145.968 10.7229 136.088 3.2195 123.046C-4.28392 109.807 2.03475 102.299 14.8696 101.311C27.7044 100.125 47.8451 113.364 47.8451 113.364C47.8451 113.364 33.0357 78.1919 35.4052 47.5643C37.7747 17.5295 44.8832 6.66161 47.0553 5.47603C49.2273 4.29044 114.191 40.846 102.146 121.466L67.196 141.423L38.762 145.968Z" fill="#ED1C24"/>
<path d="M79.4384 86.0958C79.4384 86.0958 81.0181 75.2279 85.3622 74.4375C89.9037 73.6471 94.0503 87.6765 91.2859 98.742C88.5215 110.598 87.7317 115.143 87.7317 115.143C87.7317 115.143 72.5274 101.508 69.368 96.9636C63.8392 89.0597 58.9027 80.563 64.0367 77.0063C69.5655 73.8447 79.4384 86.0958 79.4384 86.0958Z" fill="#F59FBB"/>
<path d="M78.451 117.316C74.6992 119.49 60.2848 125.813 58.5076 125.813C54.1636 120.873 51.9915 112.771 50.2144 103.88C48.4373 94.5925 51.9915 83.527 51.9915 83.527C51.9915 83.527 55.3483 93.2093 60.2848 99.9277C64.8263 106.251 66.9984 108.424 78.451 117.316Z" fill="#F7941E"/>
<path d="M46.8579 79.575C46.8579 79.575 43.3037 63.7672 43.6986 48.9474C44.0935 36.3012 47.0554 20.0982 50.8071 19.7031C54.5588 19.3079 65.6165 29.9781 70.3555 37.4868C73.3174 42.2291 79.636 50.5282 84.77 68.9048C84.77 68.9048 74.897 64.3601 64.0368 67.324C53.5715 70.288 46.8579 79.575 46.8579 79.575Z" fill="#F7941E"/>
<path d="M49.6221 132.136C41.9212 134.112 24.15 132.334 17.4364 127.196C10.7228 122.059 7.36598 110.005 20.5957 110.598C33.8254 111.191 44.4882 124.825 46.4628 127.196C48.4373 129.567 49.6221 132.136 49.6221 132.136Z" fill="#F7941E"/>
<path d="M150.129 86.491C152.894 83.1319 157.83 82.1439 162.174 83.7247C166.518 85.3055 171.455 92.6166 166.518 99.9276C160.989 108.227 148.944 102.892 148.944 102.892L150.129 86.491Z" fill="#BAB9AE"/>
<path d="M154.078 89.4549C154.078 89.4549 156.842 86.491 161.581 88.467C165.53 90.0477 166.122 95.3829 163.95 98.5444C162.173 100.916 157.829 102.892 153.09 99.73C147.759 95.9757 154.078 89.4549 154.078 89.4549Z" fill="white"/>
<path d="M146.574 115.538C135.319 129.962 97.8019 160.59 53.7686 161.38C9.93286 162.171 11.3151 150.908 12.8947 147.549C14.4744 144.189 31.6533 147.944 54.9534 138.854C78.2535 129.765 107.872 118.897 116.166 101.311C116.166 101.311 120.707 93.4069 118.14 91.6285C115.573 89.8501 117.153 82.9343 121.694 78.3895C126.236 73.8448 130.58 76.2159 131.962 75.8207C133.542 75.4255 140.65 72.8567 145.784 73.6471C151.116 74.4375 155.855 81.9463 155.855 88.2694C156.052 94.3949 150.721 110.203 146.574 115.538Z" fill="#706F65"/>
<path d="M116.166 101.113C116.166 101.113 118.536 97.1613 118.141 92.8141C114.389 88.6646 113.797 81.9463 117.943 77.2039C121.695 72.8568 127.027 72.0664 132.358 75.6231C134.53 74.6351 138.282 72.4616 145.785 73.4496C151.116 74.0424 158.028 79.5751 158.028 87.8742C158.028 94.1973 153.683 107.634 146.575 115.538C144.403 117.909 141.638 121.268 138.084 124.43C128.804 122.651 116.956 118.897 108.86 110.993C112.02 108.029 114.587 104.67 116.166 101.113Z" fill="#BAB9AE"/>
<path d="M55.1503 138.854C56.1376 138.459 57.1249 138.064 58.1122 137.669C58.7046 142.016 59.6919 146.758 61.6665 149.327C63.8385 152.291 69.5648 156.045 74.6987 158.812C68.1826 160.195 61.2716 161.183 54.163 161.38C48.8317 161.38 44.0927 161.38 39.946 161.183C37.9715 158.812 36.3918 156.243 35.9969 153.872C35.602 151.105 35.4045 147.549 35.207 144.189C40.9333 143.201 47.6469 141.621 55.1503 138.854Z" fill="#BAB9AE"/>
<path d="M78.2535 140.633C76.4763 137.669 75.2916 134.112 74.6992 130.95C83.5848 127.196 92.4705 123.046 99.7764 118.107C100.171 123.046 101.751 129.567 106.49 133.124C109.847 135.693 114.586 137.866 118.93 139.447C112.019 143.992 104.121 148.339 95.4324 152.093C88.7188 149.129 81.0179 144.782 78.2535 140.633Z" fill="#BAB9AE"/>
<path d="M142.823 106.053C142.823 106.053 139.071 112.376 133.74 110.203C128.408 108.029 132.95 100.52 132.95 100.52" stroke="black" stroke-width="0.608" stroke-miterlimit="10" stroke-linecap="round" stroke-linejoin="round"/>
<path d="M138.479 75.6231C138.479 75.6231 137.294 51.9115 125.249 38.8701" stroke="#58595B" stroke-width="0.872" stroke-miterlimit="10" stroke-linecap="round" stroke-linejoin="round"/>
<path d="M148.549 77.2039C150.326 72.4616 150.128 54.6778 146.771 46.9715" stroke="#58595B" stroke-width="0.872" stroke-miterlimit="10" stroke-linecap="round" stroke-linejoin="round"/>
<path d="M146.179 48.9474C141.835 48.3546 141.44 42.4267 143.415 40.4508C145.39 38.4748 149.536 38.87 150.524 42.4267C151.906 46.7739 149.339 49.3426 146.179 48.9474Z" fill="#F7941E"/>
<path d="M127.223 46.5763C123.274 46.7739 121.694 40.0555 124.854 38.0796C128.013 36.3012 130.777 38.2772 131.37 40.6484C131.962 43.2171 131.172 46.3787 127.223 46.5763Z" fill="#F7941E"/>
<path d="M131.962 80.7606C134.726 85.503 133.147 93.0117 126.828 93.4069C120.509 93.8021 118.14 86.2934 120.312 81.9462C122.089 77.7967 129.197 76.2159 131.962 80.7606Z" fill="white"/>
<path d="M124.854 86.4909C124.854 87.4789 125.446 88.2694 126.631 88.2694C127.618 88.467 128.408 87.4789 128.408 86.4909C128.408 85.5029 127.618 84.7126 126.631 84.7126C125.643 84.515 124.854 85.5029 124.854 86.4909Z" fill="black"/>
<path d="M158.224 94.79C158.421 95.9756 158.816 96.5684 160.001 96.5684C160.988 96.5684 161.778 95.778 161.778 94.5924C161.58 93.6045 160.988 93.0117 160.001 93.0117C159.013 93.0117 158.026 93.8021 158.224 94.79Z" fill="black"/>
<path d="M49.2275 31.3613C49.2275 33.5349 51.0047 35.5109 53.3742 35.5109C55.5462 35.5109 57.5208 33.7325 57.5208 31.3613C57.5208 29.1877 55.7437 27.2117 53.3742 27.2117C51.0047 27.4093 49.2275 29.1877 49.2275 31.3613Z" fill="black"/>
<path d="M59.8896 39.4628C59.8896 41.2412 61.2719 42.6244 63.049 42.6244C64.8261 42.6244 66.2083 41.2412 66.2083 39.4628C66.2083 37.6845 64.8261 36.3013 63.049 36.3013C61.2719 36.4989 59.8896 37.8821 59.8896 39.4628Z" fill="black"/>
<path d="M49.2275 42.8219C49.2275 44.0075 50.2148 44.9955 51.3996 44.9955C52.5843 44.9955 53.5716 44.0075 53.5716 42.8219C53.5716 41.6363 52.5843 40.6483 51.3996 40.6483C50.2148 40.6483 49.2275 41.6363 49.2275 42.8219Z" fill="black"/>
<path d="M94.8405 35.5108C94.4456 36.4988 95.038 37.4868 96.0252 37.882C97.0125 38.2772 98.1973 37.6844 98.3947 36.4988C98.7897 35.5108 98.1973 34.5228 97.0125 34.1276C96.2227 33.93 95.038 34.5229 94.8405 35.5108Z" fill="black"/>
<path d="M87.9292 35.5108C87.7318 36.3012 88.1267 36.894 88.9165 37.0915C89.7063 37.2891 90.2987 36.894 90.4962 36.3012C90.6936 35.5108 90.2987 34.9181 89.7064 34.7205C88.9165 34.5229 88.1267 34.918 87.9292 35.5108Z" fill="black"/>
<path d="M90.2988 27.4094C90.2988 28.9901 91.4836 30.1757 93.0632 30.1757C94.6429 30.1757 95.8277 28.9901 95.8277 27.4094C95.8277 25.8286 94.6429 24.643 93.0632 24.643C91.4836 24.643 90.2988 25.8286 90.2988 27.4094Z" fill="black"/>
</svg>
