<?xml version="1.0" encoding="UTF-8" standalone="no"?>
<svg
   width="250"
   height="150"
   viewBox="0 0 250 150"
   fill="none"
   version="1.1"
   id="svg284"
   sodipodi:docname="svgPage63Table.svg"
   inkscape:version="1.2.1 (9c6d41e410, 2022-07-14)"
   xmlns:inkscape="http://www.inkscape.org/namespaces/inkscape"
   xmlns:sodipodi="http://sodipodi.sourceforge.net/DTD/sodipodi-0.dtd"
   xmlns="http://www.w3.org/2000/svg"
   xmlns:svg="http://www.w3.org/2000/svg">
  <defs
     id="defs288" />
  <sodipodi:namedview
     id="namedview286"
     pagecolor="#ffffff"
     bordercolor="#000000"
     borderopacity="0.25"
     inkscape:showpageshadow="2"
     inkscape:pageopacity="0.0"
     inkscape:pagecheckerboard="0"
     inkscape:deskcolor="#d1d1d1"
     showgrid="false"
     inkscape:zoom="2.1443782"
     inkscape:cx="86.272096"
     inkscape:cy="69.71718"
     inkscape:window-width="1920"
     inkscape:window-height="1018"
     inkscape:window-x="-8"
     inkscape:window-y="-8"
     inkscape:window-maximized="1"
     inkscape:current-layer="svg284" />
  <path
     d="m 145.44122,126.18565 c -0.277,1.75551 -0.8318,6.73082 0.27779,7.75501 3.60577,4.24398 4.43757,-6.73082 2.63508,-9.07205"
     fill="#00a5a5"
     id="path216"
     style="stroke-width:0.805721" />
  <path
     d="m 178.30823,80.384454 c -1.80327,4.097231 -0.97068,12.291694 -0.55479,16.974233 0.41591,4.243493 1.38659,10.096303 2.35729,14.193873 0.97069,4.244 2.35807,9.36492 4.43835,2.63409 1.2477,-3.80471 3.88277,-19.461886 3.88277,-23.266506 0,-8.340727 -1.10959,-16.388843 -9.29182,-12.291611"
     fill="#035f5a"
     id="path218"
     style="stroke-width:0.805721" />
  <path
     d="m 180.94409,119.89329 c -0.55479,1.75633 -0.97068,6.43879 0.83259,7.31655 2.77318,1.31703 3.32798,-7.31655 2.21839,-8.92563"
     fill="#037875"
     id="path220"
     style="stroke-width:0.805721" />
  <path
     d="m 180.3893,46.874948 c 1.52549,-1.02435 0.55479,-0.731655 2.21918,-1.316961 4.02167,-1.756004 5.68605,7.31646 5.82416,12.437958 0.13889,8.340811 -1.52549,12.14543 -4.02167,16.974316 -0.55479,1.024267 -3.32798,0 -4.43756,0 -1.3866,-2.194964 -2.21918,-8.048199 -2.49619,-10.68212 -0.83258,-8.926118 0.27701,-15.657273 2.91208,-17.413193 z"
     fill="#035f5a"
     id="path222"
     style="stroke-width:0.805721" />
  <path
     d="m 181.63779,74.823914 c 0.13889,-0.146265 0.55479,-0.292613 0.69368,-0.43896 -4.71535,-0.146348 -8.46001,4.536191 -1.66438,4.536191 1.94139,0 7.48854,-0.146347 6.79485,-2.341228 -0.6929,-2.194963 -6.65673,-2.487575 -8.18223,-1.316961"
     fill="#037875"
     id="path224"
     style="stroke-width:0.805721" />
  <path
     d="m 96.625028,75.99461 c -3.883164,3.950884 -3.883164,18.144846 -3.189711,23.997993 0.277318,2.926617 1.525486,11.852817 3.605688,13.316287 3.883165,2.77969 4.576535,-10.09705 5.131245,-12.87732 1.24818,-7.755422 3.46711,-24.144347 -5.547222,-25.02235"
     fill="#035f5a"
     id="path226"
     style="stroke-width:0.805721" />
  <path
     d="m 96.347081,114.47951 c -0.416056,0.1456 -1.248089,6.1451 -0.554715,7.46215 1.248168,2.92695 3.605767,1.90276 4.437794,-0.87776 0.5548,-1.90193 -0.554707,-3.95113 -0.832027,-6.14592"
     fill="#035f5a"
     id="path228"
     style="stroke-width:0.805721" />
  <path
     d="m 143.91573,91.944494 c 0,0 -0.6929,2.78027 -0.83179,3.804536 -0.69369,3.804533 -0.8318,8.48699 -0.69369,12.29169 0.1389,3.8047 0.69369,6.29236 1.52548,9.95063 0.1389,1.02418 0.2778,4.24317 0.97148,4.68246 0.8318,0.43846 2.91208,0.43846 3.32798,-0.29286 0.8318,-1.17061 1.52548,-3.65828 1.94139,-5.12175 0.83258,-2.92612 2.77397,-12.5839 2.91286,-15.51067 0.277,-4.682538 0.277,-15.949884 -6.24084,-11.706387"
     fill="#00a5a5"
     id="path230"
     style="stroke-width:0.805721" />
  <path
     d="m 67.639919,90.920144 c -4.576514,2.78027 -1.802883,16.681286 -1.386827,21.218146 0.416056,2.92611 1.802883,15.51083 5.131254,10.53552 1.664146,-2.63409 3.32837,-15.21882 3.32837,-19.16928 0,-3.511927 0.138659,-8.779766 -1.664146,-11.999079 -1.386827,-2.048616 -4.992595,-3.950884 -6.656818,-1.316961"
     fill="#00a5a5"
     id="path232"
     style="stroke-width:0.805721" />
  <path
     d="m 68.887773,124.86861 c -0.832111,1.46347 -1.386827,6.73082 0.415979,7.75583 5.131252,3.36541 2.634995,-8.63359 2.634995,-10.38992"
     fill="#00a5a5"
     id="path234"
     style="stroke-width:0.805721" />
  <path
     d="m 158.8936,44.387373 c -0.69369,2.78027 -0.27779,5.56054 0.13889,8.34081 0.277,2.194963 -2.49617,5.414193 -1.38738,7.170113 3.18988,-2.341227 24.82448,-11.706304 25.65627,-12.291694 0.69369,-0.585307 -0.13811,-11.120998 -0.55479,-14.779269 -3.60576,1.463309 -9.70771,0.58539 -12.8968,2.926617 -2.21917,1.463309 -4.99314,2.048616 -6.93453,3.804537"
     fill="#035f5a"
     id="path236"
     style="stroke-width:0.805721" />
  <path
     d="m 93.573662,53.459755 c -1.386827,3.950966 -0.554715,15.803618 2.496258,19.461808 6.65673,8.048198 11.23327,-17.852152 5.26999,-22.095649 h -0.55479"
     fill="#035f5a"
     id="path238"
     style="stroke-width:0.805721" />
  <path
     d="m 99.398363,71.897296 c -1.941616,0 -7.766244,0.439042 -5.685963,3.804619 0.554715,1.316961 7.76617,1.024267 9.01433,0 2.35761,-2.194963 -1.94161,-3.804619 -3.328367,-3.804619 z"
     fill="#037875"
     id="path240"
     style="stroke-width:0.805721" />
  <path
     d="m 161.11198,41.460755 c 0,1.902268 -1.24769,15.071965 -1.24769,19.608155 -1.80327,1.02435 -4.02245,2.633923 -6.65674,4.097232 -1.24848,-2.487575 -3.18987,-5.267846 -4.85425,-7.316461 2.35728,-3.950884 3.18987,-9.072465 3.05097,-13.901268"
     fill="#037875"
     id="path242"
     style="stroke-width:0.805721" />
  <path
     d="m 145.02376,63.263873 c -4.02167,4.243579 -3.32798,16.388926 -0.9707,21.656772 1.66438,3.804536 4.57646,5.56054 7.35043,2.048615 2.35729,-3.511924 3.18987,-10.974732 3.18987,-15.071964 0.1389,-6.292112 -1.66438,-15.218229 -7.76633,-8.194463"
     fill="#00a5a5"
     id="path244"
     style="stroke-width:0.805721" />
  <path
     d="m 146.55081,120.18615 c -0.97148,0 -3.74467,0.43929 -3.88355,2.04837 -0.1389,1.90276 2.35806,1.46347 3.32876,1.46347 0.97069,0 5.13125,0 4.85346,-1.90194 -0.1389,-1.6099 -2.49618,-1.46347 -4.29867,-1.6099 z"
     fill="#0fbbb6"
     id="path246"
     style="stroke-width:0.805721" />
  <path
     d="m 147.1056,126.62411 c 0.97069,0 3.74388,-0.43846 3.88278,-2.04836 0.13889,-1.90194 -2.35729,-1.46348 -3.32876,-1.46348 -0.9707,0 -5.13126,0 -4.85348,1.90276 0.1389,1.60908 2.49618,1.46347 4.29946,1.60908 z"
     fill="#0fbbb6"
     id="path248"
     style="stroke-width:0.805721" />
  <path
     d="m 69.720436,120.18615 c -0.970772,0 -3.744427,0.43929 -3.883086,2.04837 -0.138738,1.90276 2.35752,1.46347 3.32837,1.46347 0.970772,0 5.131175,0 4.853857,-1.90194 -0.138738,-1.6099 -2.496337,-1.46347 -4.299141,-1.6099 z"
     fill="#0fbbb6"
     id="path250"
     style="stroke-width:0.805721" />
  <path
     d="m 70.137276,126.62411 c 0.970772,0 3.744426,-0.43846 3.883085,-2.04836 0.138659,-1.90194 -2.357599,-1.46348 -3.32837,-1.46348 -0.970771,0 -5.131253,0 -4.853857,1.90276 0.277319,1.60908 2.496259,1.46347 4.299142,1.60908 z"
     fill="#0fbbb6"
     id="path252"
     style="stroke-width:0.805721" />
  <path
     d="m 97.734929,110.38194 c -0.970771,0 -3.744426,0.58573 -3.883164,2.04837 -0.138659,1.90277 2.357599,1.46348 3.328448,1.46348 0.970773,0 5.131167,0 4.853847,-1.90194 -0.13873,-1.75633 -2.496327,-1.60991 -4.299131,-1.60991 z"
     fill="#037875"
     id="path254"
     style="stroke-width:0.805721" />
  <path
     d="m 98.149419,116.67431 c 0.970774,0 3.744411,-0.43929 3.883151,-2.0492 0.13866,-1.90194 -2.357587,-1.46264 -3.328357,-1.46264 -0.970853,0 -5.131257,0 -4.853939,1.90193 0.277397,1.75634 2.496337,1.60991 4.299145,1.60991 z"
     fill="#037875"
     id="path256"
     style="stroke-width:0.805721" />
  <path
     d="m 182.74659,121.0639 c 0.97147,0 3.74466,-0.43929 3.88356,-2.04837 0.13889,-1.90276 -2.35807,-1.46347 -3.32877,-1.46347 -0.97069,0 -5.13125,0 -4.85347,1.90194 0.1389,1.75634 2.49618,1.6099 4.29868,1.6099 z"
     fill="#037875"
     id="path258"
     style="stroke-width:0.805721" />
  <path
     d="m 182.19258,114.77154 c -0.97148,0 -3.74467,0.58572 -3.88355,2.0492 -0.1389,1.90193 2.35728,1.46265 3.32876,1.46265 0.97069,0 5.13125,0 4.85346,-1.90195 -0.1389,-1.75633 -2.49618,-1.6099 -4.29867,-1.6099 z"
     fill="#037875"
     id="path260"
     style="stroke-width:0.805721" />
  <path
     d="m 148.21519,87.554567 c -1.38659,-0.146347 -5.27015,0.292695 -5.68604,2.633923 -0.5548,2.926618 3.05096,2.487575 4.43835,2.633923 1.38659,0.146347 7.21074,0.731654 7.07264,-2.341228 -0.1389,-2.487659 -3.32877,-2.633923 -5.82495,-2.926618 z"
     fill="#0fbbb6"
     id="path262"
     style="stroke-width:0.805721" />
  <path
     d="m 73.325967,57.264457 c -0.970772,-0.146347 8.736941,0.292612 16.919168,0.585306 5.824707,0.292613 33.561095,1.755922 45.349095,1.755922 2.77356,0 6.65712,0.292695 9.43031,0.292695 0.1389,-5.706888 -0.5548,-11.560041 -0.8318,-17.120581 -12.34294,-1.902268 -69.063968,-2.048616 -73.085713,-1.902268 -0.970771,6.145847 0.832113,9.950383 0.970771,15.364576"
     fill="#037875"
     id="path264"
     style="stroke-width:0.805721" />
  <path
     d="m 65.421372,60.190909 c -3.051012,5.267844 -3.328385,14.779269 -0.416056,21.510423 2.634996,5.56054 6.934137,7.170113 9.014339,0.43896 1.386827,-4.682539 2.357599,-9.804037 1.664224,-14.340227 -1.248168,-7.755503 -3.605766,-13.608656 -10.262507,-7.609156 z"
     fill="#00a5a5"
     id="path266"
     style="stroke-width:0.805721" />
  <path
     d="m 70.829944,85.505952 c -3.050973,-0.146265 -8.598259,1.609655 -4.715197,4.975233 1.941543,1.609573 8.598282,1.024266 8.598282,-2.048616 0,-2.34131 -1.802804,-2.78027 -3.883085,-2.926617 z"
     fill="#0fbbb6"
     id="path268"
     style="stroke-width:0.805721" />
  <path
     d="m 62.509309,40.143794 c -0.55473,1.756003 -0.277373,18.437541 -0.277373,20.778852 2.080233,0 12.342748,0.731654 13.452178,0.585307 0.277319,-2.194963 -0.277396,-18.730154 -0.693453,-21.364159"
     fill="#0fbbb6"
     id="path270"
     style="stroke-width:0.805721" />
  <path
     d="m 142.11246,43.509454 c -0.69369,7.901768 -0.83258,14.632922 -0.69369,21.071464 5.40905,0 7.48932,0.585306 12.2039,0.585306 -0.27701,-5.853152 1.52548,-15.803535 0.41589,-22.388425"
     fill="#0fbbb6"
     id="path272"
     style="stroke-width:0.805721" />
  <path
     d="m 57.932496,34.729684 c 5.824644,-4.828886 28.707186,-11.560081 31.480841,-13.608695 8.182226,-0.877978 94.858743,2.78026 102.208383,2.92659 -1.6636,3.9509 -13.31349,7.901835 -21.77271,11.706371 -12.34279,5.56054 -24.40779,6.145847 -36.33475,6.145847 -10.81722,0 -25.93359,-0.585307 -36.750809,-1.463309 -10.539825,-0.878001 -21.218309,-0.878001 -31.203419,-3.950884 -2.63498,-0.878001 -6.93413,2.487576 -7.627536,-1.75592 z"
     fill="#00a5a5"
     id="path274"
     style="stroke-width:0.805721" />
  <path
     d="m 181.2211,35.022296 c -0.27779,2.78027 -0.55479,7.462725 0.13811,15.218229 3.88355,-1.463309 6.37974,-2.194963 8.04412,-3.658272 -0.13889,-2.19488 0,-10.682038 0.1381,-17.41316 -0.97068,0.146315 -7.21074,4.975201 -7.62743,5.853203"
     fill="#037875"
     id="path276"
     style="stroke-width:0.805721" />
  <path
     d="m 155.70373,40.582836 c 0.277,-0.146265 22.18861,-8.77977 23.4371,-9.804036 0.6929,-0.439042 11.78799,-6.731187 12.34278,-6.584856 0.13811,1.902276 0.277,4.389901 0,6.877468 -0.4159,1.024349 -34.80919,16.242578 -35.22509,16.242578 -0.27779,0 -1.38738,-2.341228 -1.80327,-3.365577 -0.41591,-1.024267 -0.27701,-1.609573 0.27779,-2.487576 0.277,-0.438959 0.6929,-0.731654 0.97069,-0.878001 z"
     fill="#037875"
     id="path278"
     style="stroke-width:0.805721" />
  <path
     d="m 58.071089,34.583337 c 15.116376,0.292694 86.676441,4.975232 94.858671,5.267844 h 3.60577 c -0.13889,2.341311 -0.13889,5.267929 -0.13889,7.316544 -4.57647,0 -97.216093,-5.414275 -99.018962,-5.414275 0.277363,-3.072882 2e-6,-4.682538 0.55473,-7.023766 z"
     fill="#0fbbb6"
     id="path280"
     style="stroke-width:0.805721" />
  <path
     d="m 57.377624,41.75345 c -0.138683,-2.487575 0.554732,-4.389843 0.554732,-7.023766 z"
     fill="#db7e2d"
     id="path282"
     style="stroke-width:0.805721" />
</svg>
