<?xml version="1.0" encoding="UTF-8" standalone="no"?>
<svg
   width="250"
   height="150"
   viewBox="0 0 250 150"
   fill="none"
   version="1.1"
   id="svg876"
   sodipodi:docname="svgPage60Chair.svg"
   inkscape:version="1.2.1 (9c6d41e410, 2022-07-14)"
   xmlns:inkscape="http://www.inkscape.org/namespaces/inkscape"
   xmlns:sodipodi="http://sodipodi.sourceforge.net/DTD/sodipodi-0.dtd"
   xmlns="http://www.w3.org/2000/svg"
   xmlns:svg="http://www.w3.org/2000/svg">
  <defs
     id="defs880" />
  <sodipodi:namedview
     id="namedview878"
     pagecolor="#ffffff"
     bordercolor="#000000"
     borderopacity="0.25"
     inkscape:showpageshadow="2"
     inkscape:pageopacity="0.0"
     inkscape:pagecheckerboard="0"
     inkscape:deskcolor="#d1d1d1"
     showgrid="false"
     inkscape:zoom="4.9854369"
     inkscape:cx="80.033106"
     inkscape:cy="71.107108"
     inkscape:window-width="1920"
     inkscape:window-height="1018"
     inkscape:window-x="-8"
     inkscape:window-y="-8"
     inkscape:window-maximized="1"
     inkscape:current-layer="svg876" />
  <path
     d="m 78.79309,75.176265 c 4.447036,5.03478 25.53451,37.374975 30.55534,46.985975 -0.57379,0.3046 -1.86489,1.37301 -2.43868,1.67761 -2.86907,-3.0506 -28.403585,-43.476832 -34.428569,-52.019379"
     fill="#000000"
     id="path826"
     style="stroke-width:0.632775" />
  <path
     d="m 103.75388,69.074469 c -0.86072,6.86494 -6.311869,25.018552 -7.889836,29.594791 -3.586321,10.37349 -7.02918,19.22135 -10.902426,29.44222 -0.57379,-0.30525 -2.151756,-0.61051 -2.725546,-0.91512 0.430327,-4.42425 7.889834,-24.4081 9.898188,-29.442217 3.586321,-8.543261 5.88154,-16.018122 8.17676,-26.391426"
     fill="#000000"
     id="path828"
     style="stroke-width:0.632775" />
  <path
     d="m 138.75656,85.54976 c -0.71762,6.865013 -6.31205,25.01862 -7.89002,29.59485 -3.58632,10.3735 -6.88572,18.00099 -10.61544,28.22186 -0.57385,-0.30526 -2.15182,-0.61052 -2.72561,-0.91512 0.43033,-4.42426 7.60297,-23.34036 9.61127,-28.22185 3.58632,-8.54326 5.8816,-16.018126 8.17657,-26.391621"
     fill="#000000"
     id="path830"
     style="stroke-width:0.632775" />
  <path
     d="m 115.23015,92.262143 c 4.7339,4.576228 25.82169,34.323717 31.55958,43.629457 -0.57397,0.30526 -1.72131,1.52563 -2.29528,1.83024 -3.15593,-2.89798 -26.68215,-37.06972 -33.28094,-45.154439"
     fill="#000000"
     id="path832"
     style="stroke-width:0.632775" />
  <path
     d="m 105.90563,63.582726 c 1.14758,-6.712246 6.31187,-17.84836 8.17676,-22.272292 4.30357,-10.068306 7.02918,-18.916237 11.33275,-28.831991 0.57379,0.3051 2.15176,0.76275 2.72561,1.067856 -0.71731,4.271403 -2.29528,8.08515 -4.01671,12.356519 -1.72143,5.186747 -4.16011,11.746366 -6.45533,16.627988 -4.16011,8.390242 -6.45539,14.492237 -9.46786,24.560541"
     fill="#000000"
     id="path834"
     style="stroke-width:0.632775" />
  <path
     d="m 137.46619,82.041277 c 1.14795,-6.712382 6.31187,-17.848364 8.17683,-22.272297 4.30387,-10.068305 8.32045,-20.441735 12.76737,-30.357475 0.57398,0.30506 2.15163,0.762749 2.72561,1.067809 -0.71763,4.271435 -3.72991,9.610681 -5.45122,13.882051 -1.72131,5.186748 -4.16024,11.746366 -6.4555,16.627988 -4.16025,8.390241 -6.45552,14.49217 -9.46781,24.560407"
     fill="#000000"
     id="path836"
     style="stroke-width:0.632775" />
  <path
     d="m 125.55898,92.567401 c 0,0 -0.14347,-1.220374 -0.14347,-1.983517 -12.91072,-6.864357 -49.204165,-16.932859 -53.507735,-19.221101 -0.286904,0.915312 0.143461,1.983187 0.143461,1.983187 9.037503,6.712446 33.280914,20.899035 38.301804,23.797659 2.00829,-0.762488 15.20594,-4.576228 15.20594,-4.576228 z"
     fill="#ba2026"
     id="path838"
     style="stroke-width:0.632775" />
  <path
     d="m 104.04154,66.786286 c -5.594677,3.356123 -16.066654,5.796869 -25.964903,8.542609 -0.143444,-0.60986 -0.860703,-2.288051 -0.860703,-2.898238 3.586309,-2.13575 9.324387,-3.050997 13.484498,-4.423997 4.877424,-1.83056 4.447035,-0.457624 13.771428,-4.576497"
     fill="#000000"
     id="path840"
     style="stroke-width:0.632775" />
  <path
     d="m 133.16225,83.719527 c -5.59467,3.355864 -16.06665,5.796611 -25.9649,8.542616 -0.14346,-0.610514 -0.86072,-2.288118 -0.86072,-2.898633 3.58633,-2.13549 9.3244,-3.050607 13.48451,-4.423609 4.87743,-1.830889 4.44704,-0.457886 13.7715,-4.576883"
     fill="#000000"
     id="path842"
     style="stroke-width:0.632775" />
  <path
     d="m 144.35081,86.617505 c 0,0 -0.14304,-1.220374 -0.14304,-1.982862 -12.91084,-6.865001 -49.204256,-16.933044 -53.50783,-19.221291 -0.286925,0.915311 0.143402,1.983186 0.143402,1.983186 9.037534,6.712183 34.285118,20.899227 39.305948,23.797861 2.15182,-0.763144 14.20152,-4.576894 14.20152,-4.576894 z"
     fill="#ba2026"
     id="path844"
     style="stroke-width:0.632775" />
  <path
     d="m 170.02921,34.598252 c -1.72131,4.728993 -5.88155,11.7463 -7.45981,14.339674 -16.64032,-9.305555 -31.9896,-16.627987 -48.63004,-25.933541 1.29104,-3.966245 3.44286,-9.610623 6.025,-13.5769267 2.43868,0.4576503 40.16672,18.7636737 50.06485,25.1707937 z"
     fill="#ed1c24"
     id="path846"
     style="stroke-width:0.632775" />
  <path
     d="m 104.32822,61.294478 c -6.885718,1.983123 -8.894073,2.745871 -14.63215,4.423933 6.168464,3.813747 10.04165,5.949431 13.9149,8.237681 5.02082,3.051062 6.59879,3.051062 11.33269,6.406926 5.59467,3.661111 5.88154,4.118997 15.63632,8.695235 3.58602,-0.915117 10.18518,-2.897978 13.62779,-4.576238 -0.86065,-1.220374 -31.84626,-17.848292 -39.87955,-23.187537 z"
     fill="#ed1c24"
     id="path848"
     style="stroke-width:0.632775" />
  <path
     d="m 125.41441,90.583884 c -9.3244,-6.711729 -35.002377,-21.051661 -39.592815,-23.492472 -3.442857,0.915313 -10.472044,2.745872 -13.771448,4.271371 9.037487,6.712116 33.280963,20.89936 38.301783,23.797984 1.86483,-0.763133 15.06248,-4.576883 15.06248,-4.576883 z"
     fill="#ed1c24"
     id="path850"
     style="stroke-width:0.632775" />
  <path
     d="m 157.11941,34.293127 c 0,0.610185 0.43033,1.220372 1.14734,1.220372 0.57396,0 1.14795,-0.457623 1.14795,-1.220372 0,-0.610188 -0.43033,-1.220439 -1.14795,-1.220439 -0.57398,0 -1.14734,0.610251 -1.14734,1.220439 z"
     fill="#000000"
     id="path852"
     style="stroke-width:0.632775" />
  <path
     d="m 154.39318,39.632437 c 0,0.610186 0.43033,1.220373 1.14796,1.220373 0.57397,0 1.14734,-0.457624 1.14734,-1.220373 0,-0.610251 -0.43034,-1.220439 -1.14734,-1.220439 -0.71763,0 -1.14796,0.610188 -1.14796,1.220439 z"
     fill="#000000"
     id="path854"
     style="stroke-width:0.632775" />
  <path
     d="m 133.59264,82.193896 c 0,0.457886 0.43033,0.915116 1.14733,0.915116 0.57398,0 1.14733,-0.45723 1.14733,-0.915116 0,-0.457875 -0.43032,-0.915116 -1.14733,-0.915116 -0.717,0 -1.14733,0.304612 -1.14733,0.915116 z"
     fill="#000000"
     id="path856"
     style="stroke-width:0.632775" />
  <path
     d="m 127.85407,83.109012 c 0,0.457886 0.43033,0.915117 1.14758,0.915117 0.57385,0 1.14764,-0.457231 1.14764,-0.915117 0,-0.45723 -0.43039,-0.915116 -1.14764,-0.915116 -0.71725,0 -1.14758,0.305257 -1.14758,0.915116 z"
     fill="#000000"
     id="path858"
     style="stroke-width:0.632775" />
  <path
     d="m 103.75345,65.260722 c 0,0.457689 0.43038,0.915313 1.14764,0.915313 0.57379,0 1.14764,-0.457624 1.14764,-0.915313 0,-0.457623 -0.43039,-0.915312 -1.14764,-0.915312 -0.71726,0 -1.14764,0.305127 -1.14764,0.915312 z"
     fill="#000000"
     id="path860"
     style="stroke-width:0.632775" />
  <path
     d="m 98.59008,67.091347 c 0,0.457689 0.430326,0.915313 1.147578,0.915313 0.573852,0 1.147642,-0.457624 1.147642,-0.915313 0,-0.457624 -0.43039,-0.915312 -1.147642,-0.915312 -0.717252,0 -1.147578,0.305126 -1.147578,0.915312 z"
     fill="#000000"
     id="path862"
     style="stroke-width:0.632775" />
  <path
     d="m 84.100473,71.362847 c 0,0.457624 0.430327,0.915248 1.147579,0.915248 0.717313,0 1.147639,-0.457624 1.147639,-0.915248 0,-0.457688 -0.430326,-0.915311 -1.147639,-0.915311 -0.717252,0 -1.147579,0.457623 -1.147579,0.915311 z"
     fill="#000000"
     id="path864"
     style="stroke-width:0.632775" />
  <path
     d="m 78.793214,73.193342 c 0,0.457683 0.430326,0.915316 1.147578,0.915316 0.573851,0 1.14764,-0.457633 1.14764,-0.915316 0,-0.457624 -0.430388,-0.915312 -1.14764,-0.915312 -0.573789,0 -1.147578,0.457688 -1.147578,0.915312 z"
     fill="#000000"
     id="path866"
     style="stroke-width:0.632775" />
  <path
     d="m 113.79669,87.837879 c 0,0.457886 0.43033,0.915771 1.14758,0.915771 0.57379,0 1.14764,-0.457885 1.14764,-0.915771 0,-0.457231 -0.43039,-0.915116 -1.14764,-0.915116 -0.57379,0 -1.14758,0.305257 -1.14758,0.915116 z"
     fill="#000000"
     id="path868"
     style="stroke-width:0.632775" />
  <path
     d="m 108.05837,88.75365 c 0,0.457232 0.43033,0.915118 1.14764,0.915118 0.57379,0 1.14758,-0.457886 1.14758,-0.915118 0,-0.457885 -0.43033,-0.915771 -1.14758,-0.915771 -0.71731,0 -1.14764,0.305257 -1.14764,0.915771 z"
     fill="#000000"
     id="path870"
     style="stroke-width:0.632775" />
  <path
     d="m 124.41183,17.207516 c 0,0.610186 0.43032,1.220437 1.14757,1.220437 0.57379,0 1.14764,-0.457688 1.14764,-1.220437 0,-0.610187 -0.43038,-1.220374 -1.14764,-1.220374 -0.57379,0.152563 -1.14757,0.610187 -1.14757,1.220374 z"
     fill="#000000"
     id="path872"
     style="stroke-width:0.632775" />
  <path
     d="m 121.68653,22.546695 c 0,0.610187 0.43032,1.220439 1.14757,1.220439 0.57386,0 1.14764,-0.457689 1.14764,-1.220439 0,-0.610186 -0.43032,-1.220373 -1.14764,-1.220373 -0.71725,0.152564 -1.14757,0.610187 -1.14757,1.220373 z"
     fill="#000000"
     id="path874"
     style="stroke-width:0.632775" />
</svg>
