<?xml version="1.0" encoding="utf-8"?>
<!-- Generator: Adobe Illustrator 26.2.1, SVG Export Plug-In . SVG Version: 6.00 Build 0)  -->
<svg version="1.1" id="Capa_1" xmlns="http://www.w3.org/2000/svg" xmlns:xlink="http://www.w3.org/1999/xlink" x="0px" y="0px"
	width="1507px" height="689px"  viewBox="0 0 1507.1 689" style="enable-background:new 0 0 1507.1 689;" xml:space="preserve">
<style type="text/css">
	.st0{fill:#00A5A5;}
	.st1{fill:#73F0E9;}
	.st2{fill:#FFDE17;}
	.st3{opacity:0.45;}
	.st4{clip-path:url(#SVGID_00000125570362084572293600000004050632683316256901_);fill:#657567;}
	.st5{fill:#FCEB88;}
	.st6{fill:#959488;}
	.st7{fill:#E48625;}
	.st8{fill:#FFFFFF;}
	.st9{fill:#F7941E;}
	.st10{fill:#BA2026;}
	.st11{fill:#ED1C24;}
	.st12{fill:#037875;}
	.st13{fill:#231F20;}
	.st14{fill:#D3D2C2;}
	.st15{fill:#BAC1BB;}
</style>
<path class="st0" d="M980.3,582.7c-0.1-6.3-1.7-58.6-29.6-75c-27.9-16.4-51.6,22.3-51.6,22.3s-3.4-72.2-37.2-63.7
	c-33.9,8.6-33,49.6-33,49.6s-11.1-24.9-29.6-16.4c-20.5,9.4-16.9,35.6-16.9,35.6s-11.4-19.1-28.2-5.1c-16.8,14-26,38.7-21.7,65.6
	c4.2,27,21,62.1,123.9,49.2C959.2,631.9,980.8,627.2,980.3,582.7"/>
<path class="st1" d="M792.3,652.2c0,0,93.1,4.7,108.7-45.9c14.8-47.9,1.3-89.7-47.6-96c-43.5-5.6-66.3,31.7-66.3,31.7
	s5.2-51.7-37.1-60.3c-42.4-8.6-45.2,35.4-45.2,35.4s-37.9-39.6-70.4-13.8c-32.5,25.8-27,63.3-27,63.3s-33.9-44.1-64.9,0
	c-31.1,44.1-21.2,90,22.6,92.8C608.8,662.2,792.3,652.2,792.3,652.2"/>
<path class="st0" d="M757.3,623.3c-0.1-4.4-1.8-40.9-30.7-52.4c-28.9-11.5-53.5,15.5-53.5,15.5s-3.5-50.4-38.6-44.4
	c-35.1,6-34.2,34.6-34.2,34.6s-11.5-17.4-30.7-11.5c-21.2,6.5-17.5,24.8-17.5,24.8s-11.8-13.3-29.2-3.6c-17.4,9.8-26.9,27-22.5,45.8
	s21.7,43.4,128.4,34.4C735.4,657.6,757.8,654.4,757.3,623.3"/>
<path class="st2" d="M48.6,104.4c0,44.2,36,80,80.5,80c44.5,0,80.5-35.8,80.5-80s-36-80-80.5-80C84.7,24.4,48.6,60.2,48.6,104.4"/>
<path class="st1" d="M354.1,158.7c-0.1-4.3-1.6-40.2-28.1-51.4c-26.5-11.3-49,12.2-49,12.2s-3.2-46.5-35.4-40.6
	c-32.2,5.9-31.3,34-31.3,34s-10.6-17.1-28.1-11.3C162.6,108,166,126,166,126s-10.8-13.1-26.8-3.5c-16,9.6-24.7,26.5-20.6,45
	c4,18.5,19.9,42.6,117.7,33.8C334,192.4,354.6,189.2,354.1,158.7"/>
<g>
	<g class="st3">
		<g>
			<g>
				<defs>
					<rect id="SVGID_1_" x="790.4" y="182.9" width="674.5" height="389.7"/>
				</defs>
				<clipPath id="SVGID_00000018952593021379148470000003816397622122640787_">
					<use xlink:href="#SVGID_1_"  style="overflow:visible;"/>
				</clipPath>
				<path style="clip-path:url(#SVGID_00000018952593021379148470000003816397622122640787_);fill:#657567;" d="M834.3,182.9
					l588.4,3.5c23.4,0.1,42.3,19.2,42.2,42.7l-1.3,301.4c-0.1,23.4-19.2,42.3-42.7,42.2l-588.4-3.5c-23.4-0.1-42.3-19.2-42.2-42.7
					l1.3-301.4C791.8,201.6,810.9,182.7,834.3,182.9"/>
			</g>
		</g>
	</g>
	<path class="st5" d="M833.3,169.8l588.4,3.5c23.4,0.1,42.3,19.2,42.2,42.7l-1.3,301.4c-0.1,23.4-19.2,42.3-42.7,42.2L831.6,556
		c-23.4-0.1-42.3-19.2-42.2-42.7l1.3-301.4C790.8,188.5,809.9,169.7,833.3,169.8"/>
</g>
<path class="st6" d="M827,283.8c0,0.6-4.5-0.9-4.5-0.9s-7.1-35.5-14.6-50.2c-1.9-3.8-10.7-19.9-25.2-33.2
	c-2.9-2.2-15.5-13.9-21.8-15.8c-14.8-7-68.6-1.1-78.6,5.1c-11.4,6.6-19,15.2-25.5,23.5c-5.4,7.1-11,14.8-15.1,22c0,0-4.7,7.7-6,10.2
	c-3.6,7-4.5,9-6.8,14.1c-1.7,3.8-4.1,8.5-5.5,12.3c-1.4,3.6-2.8,6.4-4.2,10.2c-7,14.7-13.3,29.5-19.4,44.4l-5.9,19.2
	c-4.2,13.6-12,37.4-18.1,50.9c-3.2,7.4-10.2,30.7-11.9,34.8c-9.5,24.1-16.4,49-41.4,71.9c-9,7.6-23.3,14.5-38.6,14.6
	c-14.7-0.9-23.3-6.4-30.9-12.2c-5.7-4.6-10.7-10.6-15.1-15.7c-1.2-2.8-4-6.2-5.4-9c-4.1-7.9-8.9-15.2-13.3-23.1
	c-5-9.1-9.7-18.4-13.7-27.8c-0.2-0.4-2.4-6.9-2.9-6.9l2.9,0c-1.2,0.3,21.8,45.1,23.5,45.3c4.1,6.3,4.3,8.2,8.7,15.7
	c7,11.4,21.2,26.7,40.3,31.4c2,0.4,4.1,0.8,6.3,0.8c12.7,0.1,26.1-5.7,34.5-12.4c8.7-6.9,14.5-14.8,19.4-22.6
	c9.6-15.8,15.6-31.8,21.6-47.8c2.6-7,7.4-21,9.8-27.9c1.2-3.2,5-11.5,6.8-16c6.3-19,15.6-48.3,22.5-67.3c3.1-7.8,6.2-15.5,9.5-23.3
	c4.8-13.1,10.9-26.2,16.5-39.3c2.6-5,5.2-10,8-15c2.2-4.1,4.6-8.1,7-12.2c8-13.6,16.9-27.4,32.9-39.7c7.9-6,50.7-13.7,63.3-14.1
	c12.4-0.5,20.7,0.4,31.3,6c6.5,4,18.1,14.4,24.5,21c7.4,7.6,19.9,26.4,22.6,34.3C818.6,248.3,827.2,280.8,827,283.8"/>
<g>
	<path class="st7" d="M263.1,259.7c0,0,15.8-10.7,24-16.4c8.3-5.6,30.3-18.1,30.8-16.5c0.4,1.5-4,16.2-9.4,32.2
		c-5,14.8-11.8,22.1-11.8,22.1L263.1,259.7z"/>
	<path class="st8" d="M294.4,248.2c1.9-0.3,1.6,2.2,0.2,6.4c-1.4,4.2-5.2,15.5-5.2,15.5l-14.6-9
		C274.8,261.1,292.6,248.5,294.4,248.2"/>
	<path class="st9" d="M308.3,286.6c0,0,18.8-3.2,28.7-4.9c9.9-1.7,35.1-3.8,34.9-2.3c-0.2,1.6-10.3,13.1-21.9,25.4
		c-10.7,11.4-26.8,23.1-26.8,23.1L308.3,286.6z"/>
	<path class="st8" d="M342.8,290.7c1.8,0.8,0.1,2.7-3.4,5.5c-3.5,2.8-15.2,14.8-15.2,14.8l-7-17.4
		C317.3,293.5,341.1,289.9,342.8,290.7"/>
	<path class="st10" d="M157.9,413c-4.5-3.8-54.1-76.7-62-91.9c-7.8-14.8-10.9-38-4.1-46.8c18.1-24.2,61.6,14,76.1,26.5
		c14,11.7,24.7,26.8,37.8,39.7c12.6,12.1,25.6,25.6,37.3,39c6.1,7,15.4,15.3,17.1,24.9c-20.4,6.5-39,6-59.3,4.5
		C185.6,407.7,172.6,408.9,157.9,413"/>
	<path class="st11" d="M159.7,402.5c-4.5-3.8-55.4-76.1-62-91.9c-3.7-9.3-10.6-31.7-3.7-40.6c18.1-24.2,61.2,7.8,75.8,20.2
		c14,11.7,63.4,65.4,75.1,78.7c6.1,7,27.6,35.8,34.6,49.2c-20.4,6.5-37.7,25.5-58.1,24C206.2,441,174,419.4,159.7,402.5"/>
	<path class="st2" d="M126,297.2c0.1-4.3-0.8-9.9-0.8-13.6c2.6,2.3,7.4,6.4,10.1,8.8c4.3-2,7.9-4.6,11.8-6.6
		c-0.8,4.8-3.2,9.3-4.3,12.9c4.8,3.2,8,5.3,11.8,8.5c-6.7,1-10.8,1.1-14.8,1.3c-1.9,3.9-3.5,8.2-6.5,13.1c-1.6-5.2-2.6-8.4-3.9-14.8
		c-6.9-0.4-9.9-0.9-15-1.3C118.7,301.9,123,300.1,126,297.2"/>
	<polygon class="st12" points="205.3,325.2 116.9,341.9 115,351.7 120,359.1 122,350 210.5,331.6 	"/>
	<path class="st9" d="M261.1,254.9c-8,0.2-38.7,8.6-63.3,12c-16.8,2.3-54.8,4.3-71.4,4c-14.4,0.1-38.5-0.9-16.9,16.3
		c21,16.3,83.2,48.5,106.8,61.3c15.7,8.5,12.6,13.6,13.8,32.6c0.9,14.4-2,28.8-6.1,41.6c13.1,6.4,63.9,7.7,78.4,7.6
		c23.6-0.6,11.6-54.3,10.3-70.6c11.4-30.3,28.7-41.1,1.1-70.1C305.2,280.3,281.5,254.3,261.1,254.9"/>
	<path class="st8" d="M186.5,332.5c0,0,57,12.9,65.3,63.4c7.5,46.1-19.9,90.4-19.9,90.4l-18-21.4c0,0,12.4-37.3,15.1-56.7
		C233,378.9,228,358.9,186.5,332.5"/>
	<path class="st13" d="M121.5,271.1c-14.3,0-26.3,0.2-17.3,11.2c8.4,10.2,27.1,19.6,27.1,19.6s7.3-22.9,6.2-31
		C137.5,270.8,125.5,271.1,121.5,271.1"/>
	<path class="st8" d="M303.1,307c-1.7,8.7-10.6,15.8-20.8,13.7c-7.7-1.5-16.7-10.7-10-21.4c6.2-9.9,13-10.8,20.7-8.1
		C300.5,293.7,304.8,298.3,303.1,307"/>
	<path class="st8" d="M260.1,270.1c-3.1,7.2-12,11.3-19.9,7.8c-6-2.6-11.2-11.9-3.6-20.1c7-7.5,14.4-5.7,20.1-2.7
		C261.1,257.4,263.2,262.8,260.1,270.1"/>
	<path class="st13" d="M290.7,306.6c-0.3,1.6,0.7,3.2,2.3,3.5c1.6,0.3,3.2-0.7,3.5-2.3c0.3-1.6-0.7-3.2-2.3-3.5
		C292.5,304,291,305,290.7,306.6"/>
	<path class="st13" d="M247.7,264.8c-0.5,1.3,0,2.7,1.3,3.3c1.3,0.6,2.7,0,3.3-1.3c0.5-1.3,0-2.7-1.3-3.3
		C249.8,262.9,248.3,263.5,247.7,264.8"/>
	<path class="st13" d="M249.4,470.9c0,0,16.3-67.3,33.5-83.2c16.8-15.6,31.9-15.3,31.9-15.3l-1.3-6.6c0,0-18.6-2-40,18.2
		c-18.5,17.5-35.7,81.9-35.7,81.9L249.4,470.9z"/>
	<path class="st11" d="M456.3,355c-7.9-6.8-30.8-31.6-45.4-29.7c-21.4,2.8,20.5,37,27.9,42.4C444.8,362.5,451.8,359.8,456.3,355"/>
	<path class="st10" d="M508.4,304.4c-19.6-5.9-25.2,5.7-36.2,20.2c-10.9,14.5-21.7,25.1-37.7,34.6c-15.3,9.7-24.1,13.3-42.3,14.3
		c-17.6,1.2-57.6,2.3-65.9,3c-9.5,33-13.3,44.3-53.2,51.3c-30.2,5.3-52.3-38.3-52.6-39.9c-43.1,5.9-74.2,10.8-93.5,13.4
		c-14.8,2-55.7,14.4-70,18.9c-6.6,2.7-6.4,25.5-8.4,32.4c-3.7,15.3,7,51.7,6.7,67c55.4,28,237.7-10.8,275.4-25.3
		c31.9-12.4,117-51.3,128.5-64c7.7-15.2,16.7-29.7,21.9-46.1C490.3,358.1,502.2,331.5,508.4,304.4"/>
	<path class="st11" d="M122.3,478.5c-0.6-55.2-30.3-67.6-31.5-68.3c-18.5,5.4-29.5,8.4-37.3,11.8c-6.2,3.4-4.2,28.2-5.6,35.3
		c-2.1,15.6,12.4,50.7,13.6,65.9c11.2,4.3,33.4,7.2,51.7,6.3C118.9,524.7,122.5,498.4,122.3,478.5"/>
	<path class="st2" d="M47.6,428.9c7.1-17.1,25.5-5.3,31.5,8.9c10.1,23.7,12.1,81.5-13.4,85.5c-19.7,3.4-25.8-24.9-26.6-42.6
		C38.5,467.6,40.4,446.3,47.6,428.9"/>
	<path class="st9" d="M44.1,461.1c0.2-1.5,1.9-11.8,3.2-15.1c9.1-21.7,21.6-3.4,23.7,10.4c2,13.1,5.7,28.6-3,47.3
		c-7.2,15.4-15.5,6.9-20.3-7.1C43.6,484.6,42.8,472.9,44.1,461.1"/>
	<path class="st12" d="M401.7,398.1c-17.1-1.7-34.3,25.6-15.8,40.4C418.5,464.6,447.6,402.5,401.7,398.1"/>
	<path class="st8" d="M404.1,409.1c-14.4-3.9-22.5,19.3-7.7,23.9C415,438.8,421.2,413.7,404.1,409.1"/>
	<path class="st11" d="M402.6,415.2c-7.4-3.3-11.7,8.7-5,11.9C406.4,431.3,411.7,419.3,402.6,415.2"/>
	<path class="st10" d="M223.7,471.4c0,0-0.9,6.1-4.1,12.1c29.4,35.3,61.6,63.8,90.2,89.7c56.8,51.4,104.7,57.8,129.1,45
		c1.6-0.9,4.4-2.8,6-4.9c3.7-4.5,4.1-11.9,4.1-11.9c-6.8-9.4-24.8-45.8-30.8-55.7c-12.9-19.3-27.7-28.9-47.2-41.6
		c-25-15.7-49-29.2-78.9-33.8C283.7,469.4,229.8,470.4,223.7,471.4"/>
	<path class="st11" d="M223.7,471.4c31.6-7.7,68.2-16.5,100.7-22c22,20.5,97,89.7,106.4,102.9c9.8,14.7,16,20,19,37.1
		c5.3,30.5-35.9,28.4-58,22c-29.2-7.8-52.1-26.8-75.1-45.5c-17.2-14.2-48-46-56.7-53C251.5,505.2,230.7,480.2,223.7,471.4"/>
	<path class="st11" d="M449.1,377.4c9.2-2.7,19.3-5.2,27.5-7.7c13.1,8.5,21.4,12.4,31.2,20.4c9,8.5,22.7,25.3,2.5,22.6
		C486.9,409.3,466.1,390.1,449.1,377.4"/>
	<path class="st13" d="M49.1,457.5c8.1-1.9,10.7,33.5-0.4,30.8C42.4,486.8,42.3,459.1,49.1,457.5"/>
	<path class="st14" d="M47.3,463.4c-19,2.8-20.4,18.7-0.8,23.1C48.3,479.7,48.7,470.5,47.3,463.4"/>
	<path class="st14" d="M44.1,472c-1.6-5.1-10-49.9-10.6-59c-1-16,5.3-43.6,14.7-23.6c4.3,9,0.7,30.8,0.5,40.7
		C47.4,443.9,45.1,466,44.1,472"/>
	<path class="st14" d="M44.9,550.3C47.6,563.7,51.2,567,57,567c6.4-0.1,4.8-14.5,4.2-20.2c-2.2-13.1-5.9-22.7-8.8-35.7
		c-1.6-7.4-5.2-27.9-9.7-33.4C41.8,479.3,43.5,543.5,44.9,550.3"/>
	<path class="st2" d="M380.3,563.4c0.1-0.6-2.1-10.5-2.8-13.9c5.9,3.5,9.1,5.7,13.6,9.9c4.4-1.6,10.8-3.6,13-4.6
		c-1.9,5.3-3.7,8.3-5.9,12.5c4.1,2.8,9.3,8.6,12.7,12.8c-6,0.1-11.6-2.3-17-3.4c-2.3,3.7-5.3,11.1-8.2,15.2
		c-2.7-7.3-3.2-11.8-4.5-18.8c-5.8-1.2-13.9-2.7-18.8-5C368.3,566.1,373.9,564.2,380.3,563.4"/>
	<polygon class="st12" points="394,514.7 294.5,545.9 290.9,556.2 297.5,562.1 300.6,553 399.7,520.2 	"/>
	<path class="st9" d="M385.8,357.8c-0.1-3.4-4.1-1.9-10-1.7c5.8-2.1,10.4-6.2,7.9-10.8c-2.7-4.8-7.6,2.6-11.8,5.4
		c2.3-2.8,5.2-7.4,4-10.7c-2.1-5.8-7.8,0.5-12.8,6.6c-5-14-10.8-2.2-6.1,6.8c-19.9,25.3-42.7,21.2-56.2,22.4c-0.1,0-0.2,0-0.3,0
		c-4.6,2-9.9,5-15.5,9.8c2.6,3.5,9.2,6.2,14.3,7.1c31.7,5.8,53.6-14.2,64.6-29.3C373.4,364,386.1,365.2,385.8,357.8"/>
	<path class="st9" d="M317.2,356.4c0,0,2.4,0.8,4.9,2c4.1,1.9,6.4,8.5,5.8,3.2c-0.6-5.3-6.1-11.2-6.1-11.2s2.7-2.6,11.9,0.5
		c6,2-5.7-10.3-5.7-10.3s7.6,0.6,12.6,1.4c2.5,0.4-12.5-12.1-12.5-12.1s-0.3-1,1.1-5.6c0.7-2.3,1.7-9.5,1.7-9.5s0.2-0.4,0.5-1.2
		l-12.7-3.2l-13.8,54.5l8.6,0.4C314.2,361.2,317.2,356.4,317.2,356.4"/>
	<path class="st8" d="M230.2,327.8c4.5-2.4,4.7,7.3,18.6,9.9c9.3,1.8,17.9-7.5,21.2-3c4.7,6.4-5.3,18.5-22.1,16.8
		C234.7,350.4,223.8,331.3,230.2,327.8"/>
</g>
<g>
	<path class="st15" d="M827.8,259.2c7.2,0.4,12.7,6.5,12.3,13.7c-0.4,7.2-6.5,12.7-13.7,12.3s-12.7-6.5-12.3-13.7
		C814.5,264.3,820.6,258.8,827.8,259.2"/>
	<path class="st8" d="M827.5,264.2c7.2,0.4,12.7,6.5,12.3,13.7c-0.4,7.2-6.5,12.7-13.7,12.3s-12.7-6.5-12.3-13.7
		C814.2,269.3,820.4,263.8,827.5,264.2"/>
</g>
<path class="st0" d="M19.1,198.8c-0.4-4-2.8-37.5,20.6-50.7c23.3-13.2,46.9,9,46.9,9s-2.3-46.3,28.1-44.2
	c30.3,2.1,32.5,28.3,32.5,28.3s8-16.9,24.8-13.4c18.7,3.9,17.4,21,17.4,21s8.6-13.3,24.4-6.1c15.8,7.2,25.6,22,23.8,39.6
	s-13.9,41.6-105.1,43.7C41.3,228,21.9,227.2,19.1,198.8"/>
</svg>
