<?xml version="1.0" encoding="utf-8"?>
<!-- Generator: Adobe Illustrator 26.2.1, SVG Export Plug-In . SVG Version: 6.00 Build 0)  -->
<svg version="1.1" id="Layer_1" xmlns="http://www.w3.org/2000/svg" xmlns:xlink="http://www.w3.org/1999/xlink" x="0px" y="0px"
	width="606px" height="495px"  viewBox="0 0 606 495" style="enable-background:new 0 0 606 495;" xml:space="preserve">
<style type="text/css">
	.st0{fill:#777C77;}
	.st1{fill:#F7941E;}
	.st2{fill:#CC7D25;}
	.st3{fill:#BCB69F;}
	.st4{fill:#9E9980;}
	.st5{fill:#BA2026;}
	.st6{fill:#228E58;}
	.st7{fill:#2BB673;}
	.st8{fill:#FFFFFF;}
	.st9{fill:#ED1C24;}
	.st10{fill:#F6B64D;}
	.st11{fill:#E48225;}
	.st12{fill:#231F20;}
	.st13{fill:#DDCEB1;}
	.st14{fill:#7A411B;}
	.st15{fill:none;stroke:#231F20;stroke-width:0.4589;stroke-linecap:round;}
	.st16{fill:#A9B750;}
	.st17{fill:#918A3E;}
	.st18{fill:none;stroke:#A9B750;stroke-width:0.4977;stroke-linecap:round;stroke-dasharray:0.9954,1.9908;}
	.st19{fill:#7F7B6C;}
	.st20{fill:#A35625;}
	.st21{fill:#F59FBB;}
	.st22{fill:none;stroke:#E9729E;stroke-width:0.4977;stroke-linecap:round;stroke-miterlimit:10;}
	.st23{fill:none;stroke:#231F20;stroke-width:0.4977;stroke-linecap:round;}
</style>
<rect x="247.6" y="422.9" class="st0" width="181.4" height="103.1"/>
<polygon class="st1" points="709.9,416.3 551.9,469.3 551.9,514.9 709.9,461.8 "/>
<polygon class="st2" points="706.8,408.1 548.8,461.1 548.8,506.6 706.8,453.6 "/>
<polygon class="st1" points="705.2,393.1 547.2,446.2 547.2,491.7 705.2,438.6 "/>
<polygon class="st2" points="703.7,387 545.7,440 545.7,485.5 703.7,432.5 "/>
<polygon class="st1" points="680.7,378.3 522.8,431.3 522.8,476.9 680.7,423.8 "/>
<polygon class="st2" points="674.9,370.1 516.9,423.1 516.9,468.6 674.9,415.6 "/>
<polygon class="st1" points="674.9,356.1 516.9,409.1 516.9,454.6 674.9,401.6 "/>
<polygon class="st2" points="671.8,349 513.8,402 513.8,447.5 671.8,394.5 "/>
<path class="st3" d="M417.4,428.1c0,0-3.9-102.7-1.6-171.6c2.2-68.9,8.8-123.9,0-125.9c-8.8-2.1-101.4,22.9-143.4,35.8
	c-42.1,12.7-123.2,35.7-131.7,39.6c0.1,8-1,76.6-2.1,164.3c-1,87.7,4,167.3,3.5,176.7C141.8,551.4,417.4,428.1,417.4,428.1z"/>
<path class="st4" d="M22.7,162c0,0-0.7,309.9,1.7,317.2c2.4,7.2,103.4,65.2,117.7,67.6c0.3-4.7,3.3-116.1,2.8-191.4
	c-0.6-75.3,3.9-167-1.5-171.6C137.8,179.2,22.7,162,22.7,162z"/>
<path class="st5" d="M34.9,133.7c-0.5,1.7-21.8,40.7-21.4,44.4c1.2,11.7,19.5,5.1,25.8-6.3c-4.1,27.7,18.1,23.4,25.6,8.4
	c-1.3,9-2.5,18.3,4.4,20.6c11,3.8,17-0.9,23.1-8.7c-13.9,25.1,19.1,24.5,28.2,8.4c-6.7,19.8,9.3,28.4,20.6,14.3
	c6.5-10.7,14.6-52.8,16.2-61.6c-19.7-6.6-36.9-2.8-57.2-8.7c-10.4-2.9-28.8-2.1-39.3-4.5C50.1,137.4,43.5,137,34.9,133.7z"/>
<path class="st6" d="M246.1,503.1c-0.7-19.3-0.8-45.8-1.7-69.7c-1.1-27.8-0.9-70.4,0.3-81c18.2-6.7,83.3-25.1,100.1-30
	c0.1,18.4,1,39.4,1.4,66.9c0.4,21.8,1.5,43.6-0.2,70.1C314,475.1,246.1,503.1,246.1,503.1z"/>
<path class="st7" d="M257.3,363.3c0,0-0.3,10,0.2,23.8s0.6,24,0.6,24s7.2-2.7,16.5-6.1c9.5-3.5,16.3-5.8,16.3-5.8v-45.9L257.3,363.3
	z"/>
<path class="st7" d="M307.1,349.4c0,0-0.1,13.3,0,21.4c0.1,7.8,1,24.5,1,24.5l29.4-10.8l-1.4-43.6L307.1,349.4z"/>
<path class="st8" d="M62.6,237.6c-0.2,4.5-1.4,39.2-1.7,49.3c-0.5,21.4,0.2,28.3,0.2,47.4c9.6,3.3,41.1,15.9,45,15.6
	c-0.3-3.7,1.4-52.6,1.4-64.3c0-6.2,1-26.8,1.6-34.7C98.7,247.8,68.1,237.6,62.6,237.6z"/>
<path class="st8" d="M59.3,376.7c6.9,1.7,39.2,14.2,42.7,14.8c0.4,4.4,0.7,90.5,0.7,92.2C92,481.6,63.9,466.3,57.6,462
	C57.9,453.7,59.3,380.1,59.3,376.7z"/>
<path class="st8" d="M174.1,249.9c16.8-3.6,26-5,45.1-12.2c1,10-1.3,38.4-0.2,47.9c0.6,13.4-1,39.4-1.1,51.7
	c-5.6,3.9-32.9,13.7-43.1,18.7c-0.3-16.8,0-39.3-0.6-54.9C174.2,291.7,174.1,258.2,174.1,249.9z"/>
<path class="st8" d="M263.3,228.4c0,7.6,0.4,35.8,0.2,44.7c-0.3,17.6-0.8,30-0.3,46.7c15-4.2,33.4-10.5,45.6-17.7
	c0-15.6,1.1-31.3,0.6-46.9c-0.6-13.4-0.3-25.3-1.9-40C292.6,219,274,225.7,263.3,228.4z"/>
<path class="st8" d="M347.9,201.5c-0.5,6.4-1.5,33.3-1.5,42.7c-0.6,16.7-0.9,30.5,0.3,47.3c9.6-0.6,36.8-15.6,42.5-17.8
	c0.4-6.9,1.8-62.8,0.8-82.8C380.8,191.8,357.5,199.3,347.9,201.5z"/>
<path class="st8" d="M190.9,393.1c0.2,4.2,0,23.9,0,31.2c0.6,16.2,0.5,33.4,2.2,51.2c8.3-2.6,10.6-3.6,15.1-6.1
	c0.2-15,0-20.4,0.1-36.8c0.2-17.3-1.2-28.2-1.7-45C201.4,387.5,194.6,390.8,190.9,393.1z"/>
<path class="st8" d="M365.4,398.6c-0.6-13.4,0.2-20.5,0.2-33.9s0-28.1,1-44.8c4.8-1.1,10.3-3.1,15-4.9c0.6,14,0.8,25,0.9,39
	c0.1,18.4-0.9,37.8-0.9,37.8C375.8,393.9,371.3,396.3,365.4,398.6z"/>
<path class="st4" d="M83.3,245.5c0-0.7,2.7-0.3,2.7,0.4c0.5,40.2-1,96-1,96l-2.7-0.4C82.4,341.4,83.8,267.4,83.3,245.5z"/>
<path class="st4" d="M62,289.1v-2.9l44.4,11.5v2.9L62,289.1z"/>
<path class="st4" d="M78.9,384.9c0-0.7,2.8,0.2,2.8,1c0.5,40.2-1,89-1,89L78,474C77.9,473.9,79.4,406.8,78.9,384.9z"/>
<path class="st3" d="M197.8,343.3c0,0.7,2.8-0.2,2.8-1c0.5-40.2-1-96.6-1-96.6l-2.7,0.9C196.9,246.6,198.3,321.4,197.8,343.3z"/>
<path class="st3" d="M176.1,302.5v2.9l41.4-15v-2.9L176.1,302.5z"/>
<path class="st3" d="M285.7,310.9c0,0.7,2.8-0.2,2.8-1c0.5-40.2-1-87.9-1-87.9l-2.7,0.9C284.8,223,286.2,289,285.7,310.9z"/>
<path class="st3" d="M265.6,275.3v2.9l41.4-15v-2.9L265.6,275.3z"/>
<path class="st3" d="M367.6,281.9c0,0.7,2.8-0.2,2.8-1c0.5-40.2-1-84.4-1-84.4l-2.7,0.9C366.6,197.5,368.1,260,367.6,281.9z"/>
<path class="st3" d="M347.4,248.1v2.9l41.4-15v-3L347.4,248.1z"/>
<path class="st3" d="M366.4,358.3v2.9l15-7.3V351L366.4,358.3z"/>
<path class="st9" d="M41.5,118.1c-2.8,6.6-15,28-13,34.8c4.6,15.3,22.8-0.6,27.8-10.7c0,7.7-3.6,21.3,4.6,24.3
	c9.9,3.6,20.9-7,25.3-13.5c-0.9,9.1-5.6,19.8,3.6,25.2c9.3,5.3,22.7-4.5,25.5-14c-6,15.7,8.9,29.1,19.9,18.4
	c7.1-7.1,11.5-11.9,16-36.2c-19.1-2.9-40.3-19-58.9-23.8C80.1,120.1,51.9,109.1,41.5,118.1z"/>
<path class="st5" d="M418.9,129.7l-15.8-29.3c0,0-250.8,70.7-256.8,72.3c-1.2,4.3-8.3,29.9-7.9,33.9c2,25,34.1,21.5,25.9-5.4
	c10.8,26.1,37.8,17.2,26.5-7.5c5.3,8.8,15.7,17.5,24.8,13.9c8.1-3,7.7-12.9,5.2-21.2c5.2,8.7,13.9,15.7,23.1,12.6
	c9.1-3,11-9.3,8.2-23.3c4.5,8.3,10.6,17.7,21.9,14.2c10.3-3,8.8-12.2,5-21c5.1,9.6,13.5,18.2,24.3,14.1c8.1-3,6.6-12.4,2.6-19.9
	c18.6,25,36.4,14.6,30.1-6.8c10.7,18,36.4,16.5,27.3-9.4c13.4,20.9,38.3,6.9,28.1-10.3c2.7,1.9,11,17.1,19.9,11.5
	C420.3,142.7,418.9,129.7,418.9,129.7z"/>
<path class="st9" d="M406.5,106l-20.3-33.5c-5.1,1.8-108.6,33.2-135.8,39.9c-19.8,4.5-92.7,28.1-107.5,31.1
	c-1.9,13.3,2.8,33.5,4.5,39.1c3.4,12.5,31.1,7.8,25-16.4c10.8,24.3,35.4,11.6,27.4-10c1.6,7.2,12.2,16.7,21.3,13.3
	c8-2.8,8.8-8.4,6-20.6c12.5,24.9,34.3,11.8,28.1-7.6c15.1,27,37.2,4.8,28.7-7.6c9.7,14.4,36.9,15.5,33-4.9
	c22.7,24.3,38.9,3.8,30.4-11.8c13.6,23.6,34,7.8,28.1-8.4C383.2,126,409.4,123.9,406.5,106z M315.4,124c0.2,0.4,0.4,0.7,0.5,1v0.6
	C315.8,125,315.6,124.5,315.4,124z"/>
<path class="st5" d="M157.2,110.3c-1.1,4.4-11.7,26.7-4.8,41.3c10.2,21.4,30.7,13.4,23-11c4.2,14.1,10.2,20.1,17.8,16.5
	c7.8-3.6,10.7-14.6,6.8-26.4c5.6,8.7,16.3,16.9,25.3,13c8-3.3,7.3-13.1,4.6-21.4c5.5,8.5,14.5,15.2,23.5,11.8
	c9-3.3,10.7-9.7,7.4-23.6c4.8,8.1,11.1,17.3,22.3,13.4c10.2-3.3,8.5-12.5,4.4-21.2c5.4,9.4,14.1,17.7,24.7,13.2
	c8-3.3,6.2-12.6,1.9-20c19.4,24.3,36.8,13.4,29.9-7.8c11.3,17.6,36.9,20.3,27-10.4c14.1,20.4,25.3,17.6,23.3,4.9
	c-2.9-6.5-15.1-28.9-20-34.3C345.1,58.3,163.4,108.5,157.2,110.3z"/>
<path class="st9" d="M157.3,91c-0.1,19.3,1.3,28.1,4.3,35c6.4,15.1,28.3,2.1,21.5-20.6c4.9,29.3,34.2,16.8,28.2-6.2
	c1.6,7.2,12.2,16.7,21.3,13.3c8-2.8,8.8-8.4,6-20.6c12.5,24.9,34.3,11.8,28.1-7.6c15.1,27,37.2,4.9,28.7-7.6
	c10.4,15.4,40.9,15.6,31.6-9.7c8.7,19.1,37.4,18.4,27.4-5.7c7.5,15,29.6,14,24.7-4.1c-2.4-8.9-9.8-15.9-12.1-18.9
	C340.4,46,291.7,59.4,264.5,66C244.7,70.6,172,88,157.3,91z"/>
<path class="st5" d="M57.8,85c-3.7,7.7-12.9,21.7-15.6,29.4c-5.8,15.5,5.2,17.2,14.3,6.6c2.1,19.6,14.7,22,24.8,6.6
	c-1.6,23.8,18,26.7,27.4,5.3c-2.1,6.6-1.3,19.3,5,23.4c8.5,6,15-5.6,18.2-12.7c-4.5,23.2,15.3,28.8,20.6,6.2
	c3.1-13.1,5.2-27.6,5.2-40.7c-8.9-2.4-19-1.8-28-4.2C119.8,102.5,65.2,74.3,57.8,85z"/>
<path class="st9" d="M72,61.8C67.6,70,58.4,81.3,52.3,95c6,11.3,16.4,4,24.5-2.6c1.6,6.6-0.8,18.5,6.4,20.4
	c8.2,2.4,14.9-5.3,19.9-10.7c1.1,8.4-0.4,18.3,8.4,21.8c9.3,2.9,14.7-6.6,19.1-13.7c-6.5,27.9,21.6,23.5,25.4,10.1
	c3.8-13,2.2-13.3,3.7-28.3C138.5,86.5,83,65.3,72,61.8z"/>
<path class="st5" d="M72,61.8c0,0,208.5-43.5,211.9-43.5s80.3,18.4,83.1,20.1c-3.5,1-50.7,15.7-107,28.8
	c-56.3,13.2-102.3,25-102.3,25s-30.8-10.7-51-18C87.3,67.3,72,61.8,72,61.8z"/>
<path class="st10" d="M387.9,361.1c0,0,122.5-33.1,138.7-37.9c16.3-4.8,79.4-20,79.4-20V335l-212,59.9L387.9,361.1z"/>
<path class="st8" d="M516.4,331.5c0,0-3.7,0.2-4.1,1.2c-1.8,5.4-1,20.6-1,20.6l4.1-1.2L516.4,331.5z"/>
<path class="st8" d="M500.3,336.3l-4.1,1.2l-1,20.6c0,0,3.7-0.2,4.1-1.2C501.1,352.3,500.3,336.3,500.3,336.3z"/>
<path class="st8" d="M484.4,341.2c0,0-4,0.2-4.1,1.2c-0.4,8.2-1,20.6-1,20.6s3.7-0.2,4.1-1.2C485.1,356.9,484.4,341.2,484.4,341.2z"
	/>
<path class="st8" d="M431.2,379.1c0,0,3.7-0.2,4.1-1.2c1.8-5.4,1-22.1,1-22.1l-4.1,1.2L431.2,379.1z"/>
<path class="st8" d="M447.3,374.2l4.1-1.2l1-22.1c0,0-3.7,0.2-4.1,1.2C446.5,356.7,447.3,374.2,447.3,374.2z"/>
<path class="st8" d="M463.3,369.3c0,0,4-0.2,4.1-1.2c0.4-8.2,0.9-22.1,0.9-22.1s-3.7,0.2-4.1,1.2
	C462.5,352.1,463.3,369.3,463.3,369.3z"/>
<path class="st8" d="M418.5,382.9c0,0-3.8,2.1-4.1,1.2c-1.4-4.5,1-22.1,1-22.1l4.1-1.2L418.5,382.9z"/>
<path class="st8" d="M544,345c0,0,3.7-0.2,4.1-1.2c1.8-5.2,1-21.5,1-21.5l-4.1,1.2L544,345z"/>
<path class="st8" d="M560,341l4.1-1.2l1-21.5c0,0-3.7,0.2-4.1,1.2C559.2,324,560,341,560,341z"/>
<path class="st8" d="M576,336.7c0,0,4-0.2,4.1-1.2c0.4-7.9,1-21.5,1-21.5s-3.7,0.2-4.1,1.2C575.3,320,576,336.7,576,336.7z"/>
<path class="st8" d="M590.3,333.6c0,0,4-0.2,4.1-1.2c0.4-7.9,1-21.5,1-21.5s-3.7,0.2-4.1,1.2C589.6,316.9,590.3,333.6,590.3,333.6z"
	/>
<path class="st8" d="M531.3,348.2c0,0-3.8,2.1-4.1,1.2c-1.4-4.3,0.9-21.5,0.9-21.5l4.1-1.2L531.3,348.2z"/>
<path class="st1" d="M605.1,333.7L728,362.9l-210.9,69.8c0,0-45.4-11.5-73.7-20.7c-28.3-9.1-49.4-17.3-49.4-17.3L605.1,333.7z"/>
<path class="st11" d="M387.9,361.1l0.7,265.6l160.2,14.5l35.6-15.5l4.7-121.4l-19.3-3.5l-1-16.5l-18.6-0.3v-16.7l-18.2-3.1v-14.7
	l-14.8-3.6l1.4-46.7L387.9,361.1z"/>
<path class="st8" d="M415.6,378.4l4,1.1l-0.4,22.4c0,0-3.7-0.1-4-1.1C413.8,396.2,415.6,378.4,415.6,378.4z"/>
<path class="st8" d="M431.5,382.9c0,0,4,0.1,4,1.1c0,8.3-0.4,22.4-0.4,22.4s-3.7-0.1-4-1.1C429.7,400.4,431.5,382.9,431.5,382.9z"/>
<path class="st8" d="M482.8,419.8c0,0-3.7-0.1-4-1.1c-1.5-5.4,0.4-22.4,0.4-22.4l4,1.1L482.8,419.8z"/>
<path class="st8" d="M466.9,415.3l-4-1.1l0.4-22.4c0,0,3.7,0.1,4,1.1C468.7,397.6,466.9,415.3,466.9,415.3z"/>
<path class="st8" d="M451,410.9c0,0-4-0.1-4-1.1c0-8.3,0.4-22.4,0.4-22.4s3.7,0.1,4,1.1C452.8,393.4,451,410.9,451,410.9z"/>
<path class="st12" d="M573.7,333.6c-2.5,2.7-6.3,8.9-7.6,11.1c-2.9,5-6.1,10.1-8.9,15.1c0.3,0.2,1,0.8,1.3,0.9
	c1.6-1.6,2.9-4.7,4.2-6.7c1.6-2.4,3.7-5.5,5-8c2.2-4.5,5.9-9.8,9.3-14.3"/>
<path class="st12" d="M560.8,330.3c0.5,3.6,3.5,13.2,4.5,15.6c2,5.5,4,11.1,6.1,16.5c0.3-0.1,1.2-0.4,1.5-0.5
	c-0.2-2.3-1.7-5.1-2.6-7.5c-0.8-2.8-1.9-6.4-2.9-8.9c-2-4.6-3.2-8.5-4.6-13.9"/>
<path class="st12" d="M541.2,339c0.5,3.6,3.5,13.2,4.4,15.6c2,5.5,4,11.1,6.1,16.5c0.3-0.1,1.2-0.4,1.5-0.5
	c-0.2-2.3-1.8-5.1-2.6-7.5c-0.8-2.8-1.9-6.4-2.9-8.9c-2-4.6-3.2-8.5-4.6-13.9"/>
<path class="st12" d="M554.4,342.6c-2.7,2.5-6.2,7.9-7.6,10.1c-3.3,4.9-6.8,9.7-9.9,14.5c0.3,0.2,1,0.8,1.2,1
	c1.7-1.5,3.2-4.5,4.7-6.4c1.8-2.3,4.1-5.2,5.6-7.6c2.5-4.3,4.6-7.1,8.3-11.3"/>
<path class="st12" d="M559.6,327.4c-0.7-3.5-3.5-9.4-4.6-11.8c-2.4-5.3-4.7-10.8-7.2-16.1c-0.3,0.2-1.2,0.4-1.5,0.6
	c0.4,2.3,2.1,5,3,7.3c1,2.7,2.3,6.2,3.6,8.7c2.4,4.4,3.6,7.6,5.3,13"/>
<path class="st12" d="M541.9,337.1c-0.7-3.5-3.5-9.4-4.6-11.8c-2.4-5.3-4.7-10.8-7.1-16.1c-0.3,0.2-1.2,0.4-1.5,0.6
	c0.4,2.3,2.1,5,3,7.3c0.9,2.7,2.3,6.2,3.6,8.8c2.4,4.4,3.6,7.6,5.3,13"/>
<path class="st6" d="M548.7,342.7c0,0,0.1-0.6,0.1-1c7.2-3.6,27.6-8.9,30-10.2c0.2,0.5-0.1,1-0.1,1c-5,3.5-18.6,11-21.4,12.6
	C556,344.7,548.7,342.7,548.7,342.7z"/>
<path class="st12" d="M560.6,329.1c3.1,1.7,9,3,14.5,4.5c0.1-0.3,0.5-1.2,0.5-1.5c-2-1.1-5.2-1.6-7.6-2.4c-2.8-1-2.6-0.3-7.7-2.4"/>
<path class="st12" d="M544.3,338c3.1,1.7,9,3,14.5,4.5c0.1-0.3,0.5-1.2,0.6-1.5c-2-1.1-5.2-1.6-7.6-2.4c-2.8-0.9-2.6-0.3-7.7-2.4"/>
<path class="st6" d="M538.1,339.5c0,0,0.1-0.6,0.1-1c7.2-3.6,27.6-8.9,30-10.1c0.2,0.5-0.1,1-0.1,1c-5,3.5-19.2,11-22.1,12.6
	C544.8,341.5,538.1,339.5,538.1,339.5z"/>
<path class="st7" d="M520.5,305.8c1,2.5,3.3,6.2,4.2,7.6c9.3-4.9,18-8.7,27.3-13.7c-0.8-2.1-1.9-5-3.4-7.1
	C547.2,292.7,526,302.4,520.5,305.8z"/>
<path class="st7" d="M560.4,326.2c3.8,1,4.9,1.4,8.3,2.4c-3.4,2-5.6,3.1-7.8,4.4c-2.9,1.6-3.7,1.6-6.4,3.4c-3.1,1.9-3.2,2.2-8.7,4.6
	c-2-0.5-5.7-1.5-7.7-2.4C538.7,337.8,556,329,560.4,326.2z"/>
<path class="st7" d="M548.7,341.6c5.2-3.5,19.6-11.1,22.3-12.4c1.9,0.5,5.9,1.4,7.7,2.3c-5,3.6-18.6,11-21.4,12.6
	C556.1,343.6,548.7,341.6,548.7,341.6z"/>
<path class="st12" d="M527.7,305.6c0,0.4-0.3,0.6-0.6,0.6c-0.4,0-0.6-0.3-0.6-0.6c0-0.3,0.3-0.6,0.6-0.6
	C527.5,304.9,527.7,305.2,527.7,305.6z"/>
<path class="st12" d="M529.3,308.4c0,0.4-0.3,0.6-0.6,0.6c-0.4,0-0.6-0.3-0.6-0.6c0-0.4,0.3-0.6,0.6-0.6S529.3,308.1,529.3,308.4z"
	/>
<path class="st12" d="M544.1,337.2c0,0.3-0.3,0.5-0.6,0.5s-0.6-0.2-0.6-0.5s0.3-0.5,0.6-0.5S544.1,337,544.1,337.2z"/>
<path class="st12" d="M547.3,337.6c0,0.3-0.3,0.5-0.6,0.5c-0.4,0-0.6-0.2-0.6-0.5s0.3-0.5,0.6-0.5
	C547,337.2,547.3,337.5,547.3,337.6z"/>
<path class="st12" d="M560.8,328.2c0,0.3-0.3,0.5-0.6,0.5s-0.6-0.2-0.6-0.5s0.3-0.5,0.6-0.5C560.5,327.8,560.8,328,560.8,328.2z"/>
<path class="st12" d="M563.7,329.3c0,0.3-0.3,0.5-0.6,0.5c-0.4,0-0.6-0.2-0.6-0.5s0.3-0.5,0.6-0.5
	C563.5,328.8,563.7,329,563.7,329.3z"/>
<path class="st12" d="M571.9,331.6c0,0.3-0.3,0.5-0.6,0.5s-0.6-0.2-0.6-0.5s0.3-0.5,0.6-0.5C571.6,331.1,571.9,331.3,571.9,331.6z"
	/>
<path class="st12" d="M574.8,332.5c0,0.3-0.3,0.5-0.6,0.5s-0.6-0.2-0.6-0.5s0.3-0.5,0.6-0.5S574.8,332.2,574.8,332.5z"/>
<path class="st12" d="M555.2,340.2c0,0.3-0.3,0.5-0.6,0.5c-0.4,0-0.6-0.2-0.6-0.5s0.3-0.5,0.6-0.5
	C554.9,339.6,555.2,339.9,555.2,340.2z"/>
<path class="st12" d="M558.4,340.7c0,0.3-0.3,0.5-0.6,0.5c-0.4,0-0.6-0.2-0.6-0.5s0.3-0.5,0.6-0.5
	C558.2,340.2,558.4,340.4,558.4,340.7z"/>
<path class="st12" d="M546,296.6c0,0.3-0.3,0.6-0.6,0.6c-0.4,0-0.6-0.3-0.6-0.6c0-0.4,0.3-0.6,0.6-0.6S546,296.3,546,296.6z"/>
<path class="st12" d="M547.6,299.4c0,0.4-0.3,0.6-0.6,0.6s-0.6-0.3-0.6-0.6c0-0.3,0.3-0.6,0.6-0.6S547.6,299,547.6,299.4z"/>
<path class="st13" d="M434.4,273.6c0,0-1.6-6.7-2.7-6.4c-1.8,0.6-0.4,2.9-0.4,2.9s-3.4-3.7-4.2-2.8c-1,1.1,2.5,4.3,2.5,4.3
	s-3.8-3.1-4.7-2.3c-1.1,1.2,2.9,4.1,2.9,4.1s-3.8-2.3-4.3-1.3c-0.7,1.3,4.8,5,6.5,5.4c1.8,0.4,1.2-0.4,1.2-0.4L434.4,273.6z"/>
<path class="st13" d="M453.7,252.6c0,0-1.2-6.8-2.3-6.6c-1.8,0.5-0.6,2.9-0.6,2.9s-3.2-3.9-4-3c-1,1.1,2.2,4.4,2.2,4.4
	s-3.6-3.4-4.5-2.6c-1.1,1.1,2.8,4.3,2.8,4.3s-3.6-2.5-4.2-1.6c-0.8,1.2,4.4,5.3,6.2,5.8c1.7,0.5,1.2-0.3,1.2-0.3L453.7,252.6z"/>
<path class="st5" d="M477.9,279.3c-19.5-7.5-30-23.3-30-23.3l6-3.9c0,0,11.9,13.6,27.1,17.4C498.9,269.6,479.7,284.4,477.9,279.3z"
	/>
<path class="st12" d="M486.4,369.5c0,0-4.7,2-6.9,2.7c-2.3,0.8-3.6,1.8-4,3.4s-0.1,2.4,2.9,2.5c2.9,0,10.2-0.3,11.9-1.2
	c1.7-1,1-6.4,1-6.4L486.4,369.5z"/>
<path class="st12" d="M510.3,365.7c0,0-2.3,1.7-4.3,3s-4.5,1.5-4.8,5c-0.2,1.6,2.9,1.6,5.8,0.9s7.4-1.5,8.7-2.9
	c1.4-1.3-1.2-6.5-1.2-6.5L510.3,365.7z"/>
<path class="st14" d="M510.1,347.3c-0.6,4.6,4.9,18.2,4.9,18.2l-6.9,2.8c0,0-6.9-7.3-8.4-14.8c-1.1-5.9-2-10.7-2.7-11
	c-2.7,1.8-5.8,8.4-6.2,13.2c-0.4,4.5,0.8,16,0.8,16L483,371c0,0-2.9-10-2.5-19.8c0.5-9.7-1-19.6-1-19.6s10.7-1.6,15.7-2.6
	c8.4-1.7,15.9-6.5,15.9-6.5S512,331.5,510.1,347.3z"/>
<path class="st13" d="M473.3,242.2c-2.8,0.4-7.9,3-10.8,6.2c-2.9,3.1-4.4,6.2-6.1,7.6c-2.8,2.3-8.7,5.8-7.9,9.9
	c0.8,3.8,4.8,2.8,5.7,2.9c-0.4,7,4.4,14.7,7,16.6c2.7,1.9,9.8,2.9,15.6,1.3c6.5-1.7,11.3-3.7,14.1-7.5c2.8-3.8,3-5.2,3-5.2
	s2.9,1,4.1-1.9c1-3-3.1-4.2-3.1-4.2s1.5-5.3,1-10.1c-0.5-4.8-5.3-10.1-8.7-12.6C483.8,242.5,476.8,241.7,473.3,242.2z"/>
<path class="st8" d="M465.4,253.6c2.6,0,3.9,1.7,3.9,4.5c0,2.8-1.4,4.8-4,4.9c-2.6,0-4.5-1.9-4.5-4.7
	C460.7,255.4,462.8,253.6,465.4,253.6z"/>
<path class="st12" d="M462.6,257.3c0.6,0,0.8,0.4,0.9,0.9c0,0.6-0.3,0.9-0.9,0.9s-1-0.4-1-0.9C461.6,257.7,462,257.4,462.6,257.3z"
	/>
<path class="st14" d="M489.1,254.4c0,0-3.9,7.6-2.8,9.3c1.1,1.7,3.2-2.9,3.2-2.9s-3.4,9.2-1.2,8.6c2.2-0.7,3.2-6.1,3.2-6.1
	s-1.9,7.2,0.1,6c2-1.1,3-5.2,3-5.2c-0.9,5.4,0,6,1.6,2.9c1.8-3.4-0.1-10.3-0.1-10.3s-3.6-0.5-4.9-0.2
	C490.3,256.9,489.1,254.4,489.1,254.4z"/>
<path class="st14" d="M500.2,260.9c0,0,2,9.5-0.8,8.7c-2.8-0.9-2.7-6.2-2.7-6.2l-0.2-3L500.2,260.9z"/>
<path class="st15" d="M463.2,275.9c-0.8,2.3-5.5,2.4-6.1-0.1"/>
<path class="st16" d="M467.5,250.4c0,0-10.1,3.4-14.6-0.9c-2.7-2.5,4.7-3.8,4.7-3.8s1.7,2.4,3.1,2.8
	C465.6,250,467.5,250.4,467.5,250.4z"/>
<path class="st17" d="M458.2,247.8c4.2,1.5,3.4,0.9,17.3,4.9c7.9,2.4,24.9,9.2,24.9,9.2s4.1-12.6,1.1-17.8
	c-2.9-4.8-6.5-7.8-22.2-8.1c-12.4-0.2-22,4.5-23.9,7.4C453.3,246.9,456.7,247.3,458.2,247.8z"/>
<path class="st16" d="M486.2,236.7c-0.2,1-1.2,0.8-2.5,0.6s-2.5-0.4-2.3-1.4c0.2-0.9,1.3-1.6,2.7-1.4
	C485.4,234.8,486.4,235.7,486.2,236.7z"/>
<path class="st18" d="M462.4,248.3c0,0,12.2-4.1,20.1-3.1c14,1.6,18,6.8,18,6.8"/>
<path class="st14" d="M468.2,283.7c0.6,0,0.6-0.9,0-0.9C467.6,282.9,467.6,283.7,468.2,283.7z"/>
<path class="st14" d="M470.5,280.9c0.6,0,0.6-0.9,0-0.9S469.9,280.9,470.5,280.9z"/>
<path class="st14" d="M473,284.1c0.6,0,0.6-0.9,0-0.9S472.4,284.1,473,284.1z"/>
<path class="st14" d="M475.1,279.3c0.6,0,0.6-0.9,0-0.9S474.5,279.3,475.1,279.3z"/>
<path class="st14" d="M477.6,276.6c0.6,0,0.6-0.9,0-0.9S477,276.6,477.6,276.6z"/>
<path class="st14" d="M479.3,280.8c0.6,0,0.6-0.9,0-0.9C478.8,279.9,478.8,280.8,479.3,280.8z"/>
<path class="st14" d="M484.3,280.3c0.6,0,0.6-0.9,0-0.9C483.7,279.3,483.7,280.3,484.3,280.3z"/>
<path class="st14" d="M483,276.5c0.6,0,0.6-0.9,0-0.9C482.5,275.6,482.5,276.5,483,276.5z"/>
<path class="st14" d="M485.4,273c0.6,0,0.6-0.9,0-0.9C484.8,272,484.8,273,485.4,273z"/>
<path class="st14" d="M486.7,276c0.6,0,0.6-0.9,0-0.9S486.2,276,486.7,276z"/>
<path class="st14" d="M490.5,272.2c0.6,0,0.6-0.9,0-0.9C489.9,271.3,489.9,272.2,490.5,272.2z"/>
<path class="st14" d="M465.6,280.3c0.6,0,0.6-0.9,0-0.9C465.1,279.3,465.1,280.3,465.6,280.3z"/>
<path class="st14" d="M464.4,284.2c0.6,0,0.6-0.9,0-0.9C463.8,283.3,463.8,284.2,464.4,284.2z"/>
<path class="st14" d="M461.3,281.3c0.6,0,0.6-0.9,0-0.9C460.7,280.5,460.7,281.3,461.3,281.3z"/>
<path class="st14" d="M477.8,284.6c0.6,0,0.6-0.9,0-0.9C477.2,283.7,477.2,284.6,477.8,284.6z"/>
<path class="st14" d="M488.3,279.3c0.6,0,0.6-0.9,0-0.9C487.7,278.4,487.7,279.3,488.3,279.3z"/>
<path class="st14" d="M491.3,275.3c0.6,0,0.6-0.9,0-0.9S490.7,275.3,491.3,275.3z"/>
<path class="st5" d="M489.8,280.3c0,0,5.5,0.5,15.9,23.6c5,11.2,5.6,18.5,5.6,18.5s-6.4,5.6-15.1,7.3c-4,0.8-16.5,1.7-16.5,1.7
	c-1.4-1-5.8-7.4-10.3-19.3c-3.9-10.4-1.8-10.3-4.4-14.9c-20.5-4.1-35.3-19.4-35.3-19.4l5.2-4.9c0,0,16,12.2,31.7,13.3
	C482.4,286.2,489.8,280.3,489.8,280.3z"/>
<path class="st4" d="M117.5,35c-0.6,4.3,0.7,15.8,0.6,18.4c0,1.6,0.6,4,0.6,5.7c4.7-0.2,18.4-2.4,23.3-3.3c0.1-2.3-1-20.3-0.3-23.8
	C133.1,32.4,124.9,34.7,117.5,35z"/>
<path class="st19" d="M117.9,34.8c-0.4-0.1,1.2,24.5,0.7,24.5c-2.7-0.6-5.8-1.1-9.7-2.4c0.3-3.7-1.5-14.3-1.1-22.6
	C110.7,33.8,115,34.9,117.9,34.8z"/>
<path class="st3" d="M143.7,32c-6,0.7-20.9,4.5-26.4,4.9c0,0-1.5-8.9-0.2-10.4c2.3,0.1,20.3-3.3,26.4-3.6
	C143.8,26.9,143.7,28.6,143.7,32z"/>
<path class="st4" d="M116.7,37c0.4-0.2-0.6-10.3-0.3-10.5c-3.7,0.3-9.6-0.4-10.8-0.2c-0.3,1.4,0.1,7.3,0.3,9.4
	C108.9,36.3,113.3,37.2,116.7,37z"/>
<path class="st19" d="M130.7,22.1l-25.5,4.1l11.1,1l27.2-4.5L130.7,22.1z"/>
<path class="st14" d="M379.8,212.4c0,0,2.1-6.7,2.3-11.8c0.2-5.2-1-11.1-4.6-11.8c-3-0.6-2.9,2.2-1.4,6.8c1.2,3.8,2,5.1,1.7,9.1
	s-1.1,6.7-1.1,6.7L379.8,212.4z"/>
<path class="st8" d="M396,215.8c0.8,3.3-1.4,5.6-4.1,5.6c-2.8,0-5-1.3-5.5-4.7c-0.4-2.5,1.3-5.6,4-5.5
	C393.2,211.4,395.6,213.4,396,215.8z"/>
<path class="st14" d="M372,244.5c2.1,1.7,6.2,2.7,6.2,2.7s6.6,2,6.3,5.6c-0.2,2.2-4-0.7-4-0.7s2.9,3.1,0.5,4s-3.4-1.7-3.4-1.7
	s-0.2,3.4-2.8,1.9c-2.6-1.5-1.8-4.8-1.8-4.8s-2-3-6.7-5.5c-4.9-2.7-13.5-5.4-13.5-5.4l8.2-2.6C360.8,238,369.1,242.1,372,244.5z"/>
<path class="st14" d="M310.4,228.1c-9.8-1.8-14.3-4.8-16.8-5.8c-3.8-1.4-8.2-2-6.8-5.6c1.4-3.6,3.7,1.8,3.7,1.8s-1.6-3.4,0.6-4.7
	c2.7-1.4,2.5,3.1,2.5,3.1s0.6-4.9,3.1-3.3c1.5,0.9,0.6,4.3,0.6,4.3s3.4,2.7,9.9,3.1c5.5,0.5,13.6-4.8,13.6-4.8l8.6,11.4
	C329.4,227.8,315.4,229,310.4,228.1z"/>
<path class="st20" d="M363.3,208.8c0,0,13.9-5.6,24.6,4.4c18.9,17.5,22,32.6,18.4,35.5c-3,2.4-14.5-4.3-27.6-9
	c-8.8,2.1-16.3,1.1-19.9-1.6c-12.4-4.3-2.5-28.4-2.5-28.4L363.3,208.8z"/>
<path class="st20" d="M363.3,208.8c0,0-7.3-7.2-20.6-11.4c-13.3-4.2-27-3.2-33,6.4c-6,9.6-8.9,24-5.5,29c6.7,10,22.6,15.9,36.5,16.6
	c17.6,0.9,27-15.1,27-15.1L363.3,208.8z"/>
<path class="st20" d="M374.1,211.2c0,0-0.1-10.7-5-15.8c-4.3-4.4-11.5-8.8-11.6-4.6c-0.1,4.3,6.2,6.1,9.2,11
	c3.1,4.9,4.6,10.1,4.6,10.1L374.1,211.2z"/>
<path class="st20" d="M364.5,253.2c1.5,2.3,5.1,4.4,5.1,4.4s5.7,3.9,4.3,7.2c-0.9,2-3.6-1.8-3.6-1.8s1.8,3.9-0.8,4
	c-2.6,0.1-2.8-2.7-2.8-2.7s-1.1,3.2-3.2,1c-2-2.2-0.4-5.1-0.4-5.1s-1-3.4-4.8-7.2c-3.8-4-11.3-9.2-11.3-9.2h8.6
	C355.7,243.8,362.4,250.2,364.5,253.2z"/>
<path class="st20" d="M298.6,238c-9.7-2.2-14.3-4.8-16.8-5.8c-3.8-1.4-8.2-2-6.8-5.6c1.4-3.6,3.7,1.8,3.7,1.8s-1.6-3.4,0.6-4.7
	c2.7-1.4,2.5,3.1,2.5,3.1s0.5-4.6,3.1-3.3c1.6,0.8,0.6,4.3,0.6,4.3s2.7,2.3,9.9,3.1c5.5,0.7,13.6-4.8,13.6-4.8l8.6,11.4
	C317.6,237.7,309.3,240.4,298.6,238z"/>
<path class="st20" d="M314.2,201.5c0,0-10.8-3.1-16.5-9.3c-3.4-3.7-2.6-10.1-3.3-7.2c-0.8,2.9-0.8,7.3,3.1,12.6
	c4.9,6.7,13.1,9.2,13.1,9.2L314.2,201.5z"/>
<path class="st8" d="M383.3,218.9c0.9,3.3-1.2,6-3.9,6.1c-2.8,0.1-5.3-1-6-4.3c-0.5-2.5,1.4-6.1,4.1-6.1
	C380.1,214.5,382.6,216.4,383.3,218.9z"/>
<path class="st12" d="M382,220.5c0.2,0.6-0.2,1-0.7,1.1c-0.5,0-1-0.2-1-0.8c-0.1-0.5,0.3-1,0.8-1.1C381.4,219.6,381.9,220,382,220.5
	z"/>
<path class="st12" d="M394.4,216.1c0.2,0.6-0.2,1-0.7,1s-1-0.2-1-0.8c-0.1-0.4,0.2-1,0.7-1C393.9,215.4,394.3,215.6,394.4,216.1z"/>
<path class="st12" d="M394.9,246.2c0,0,1.8-3.4,4.9-6.5c2.6-2.6,5.5-4.5,5.5-4.5s7.8,14.7,1.9,14.8
	C401.6,250.2,394.9,246.2,394.9,246.2z"/>
<path class="st21" d="M368,230.1c-1.9-0.5-6.6-1.6-5,2.1c0.9,2,7,0.8,7,0.8L368,230.1z"/>
<path class="st22" d="M365.7,231.3c1.2-0.1,2.2,0,2.9,0.2"/>
<path class="st23" d="M368,227.6c0,0-1.1,2.1,1,4.4c1.1,1.2,3.1,1.1,3.1,1.1"/>
</svg>
