<?xml version="1.0" encoding="utf-8"?>
<!-- Generator: Adobe Illustrator 26.2.1, SVG Export Plug-In . SVG Version: 6.00 Build 0)  -->
<svg version="1.1" id="Capa_1" xmlns="http://www.w3.org/2000/svg" xmlns:xlink="http://www.w3.org/1999/xlink" x="0px" y="0px"
	 width="1204px" height="768px"	 viewBox="0 0 1024 768" style="enable-background:new 0 0 1024 768;" xml:space="preserve">
<style type="text/css">
	.st0{fill:none;}
	.st1{fill:#FFDE17;}
	.st2{fill:#73F0E9;}
	.st3{opacity:0.45;}
	.st4{clip-path:url(#SVGID_00000024004069843300485510000005922493624905000338_);fill:#657567;}
	.st5{fill:#FCEB88;}
	.st6{fill:#959488;}
	.st7{fill:#E48625;}
	.st8{fill:#FFFFFF;}
	.st9{fill:#F7941E;}
	.st10{fill:#BA2026;}
	.st11{fill:#ED1C24;}
	.st12{fill:#037875;}
	.st13{fill:#231F20;}
	.st14{fill:#D3D2C2;}
	.st15{fill:#00A5A5;}
	.st16{fill:#BAC1BB;}
</style>
<rect x="32" class="st0" width="1024" height="768"/>
<rect x="32" class="st0" width="1024" height="768"/>
<path class="st1" d="M38,190c0,44.2,36,80,80.5,80c44.5,0,80.5-35.8,80.5-80s-36-80-80.5-80C74,110,38,145.8,38,190"/>
<rect x="32" class="st0" width="1024" height="768"/>
<path class="st2" d="M343.5,244.3c-0.1-4.3-1.6-40.2-28.1-51.4c-26.5-11.3-49,12.2-49,12.2s-3.2-46.5-35.4-40.6
	c-32.2,5.9-31.3,34-31.3,34s-10.6-17.1-28.1-11.3c-19.5,6.4-16.1,24.4-16.1,24.4s-10.8-13.1-26.8-3.5c-16,9.6-24.7,26.5-20.6,45
	c4,18.5,19.9,42.6,117.7,33.8C323.4,278.1,343.9,274.9,343.5,244.3"/>
<rect x="32" class="st0" width="1024" height="768"/>
<rect x="32" class="st0" width="1024" height="768"/>
<g>
	<g class="st3">
		<g>
			<g>
				<defs>
					<rect id="SVGID_1_" x="426.1" y="180.9" width="449.4" height="202.6"/>
				</defs>
				<clipPath id="SVGID_00000116193775906870545040000017922485796926330266_">
					<use xlink:href="#SVGID_1_"  style="overflow:visible;"/>
				</clipPath>
				<path style="clip-path:url(#SVGID_00000116193775906870545040000017922485796926330266_);fill:#657567;" d="M455.4,180.9
					l392,2.3c15.6,0.1,28.2,12.8,28.1,28.4l-0.8,143.8c-0.1,15.6-12.8,28.2-28.4,28.1l-392-2.3c-15.6-0.1-28.2-12.8-28.1-28.4
					L427,209C427.1,193.4,439.8,180.8,455.4,180.9"/>
			</g>
		</g>
	</g>
	<path class="st5" d="M454.8,172.2l392,2.3c15.6,0.1,28.2,12.8,28.1,28.4L874,346.7c-0.1,15.6-12.8,28.2-28.4,28.1l-392-2.3
		c-15.6-0.1-28.2-12.8-28.1-28.4l0.8-143.8C426.4,184.7,439.2,172.1,454.8,172.2"/>
</g>
<rect x="32" class="st0" width="1024" height="768"/>
<path class="st6" d="M452.5,260.7c0.7,0-1.7,2.6-1.7,2.6s-44.6,1.8-63.8,5.1c-5,0.8-26,4.9-44.4,12.5c-3.2,1.5-19.3,8.1-22.5,11.6
	c-10.7,8.1-11.1,39.9-4.9,46.1c6.5,7.1,15.9,12.1,25.3,16.4c7.9,3.6,16.6,7.4,24.9,10.3c0,0,8.8,3.2,11.7,4.2
	c8.1,2.6,10.5,3.2,16.4,4.9c4.4,1.3,9.9,2.9,14.4,4c4.2,1,7.5,2,11.9,3.1c17.1,5,34.4,9.7,51.8,14.3l22.7,4.7
	c16.1,3.3,44.2,9.5,60.1,13.9c8.6,2.4,36.2,8,41.1,9.3c28.2,7.2,57.9,12.8,82.4,28.9c8,5.7,14.5,14.6,12.4,23.5
	c-3.2,8.5-11.2,13.1-19.4,17.2c-6.5,3-14.5,5.5-21.5,7.8c-3.6,0.5-8.2,1.9-11.8,2.5c-10.3,1.8-20,4.2-30.3,6.2
	c-11.9,2.3-24,4.4-36.1,6.1c-0.5,0.1-8.8,1-8.8,1.2l0.4-1.7c0.2,0.7,58.5-9.7,59-10.6c8.4-2,10.7-2,20.5-4
	c14.9-3.3,35.8-10.5,44.3-21.4c0.7-1.2,1.5-2.3,1.9-3.6c2-7.4-3.3-15.6-10.4-20.9c-7.3-5.5-16.1-9.5-25-12.8
	c-18-6.6-36.9-11.2-55.7-15.8c-8.2-2-24.7-5.7-32.9-7.6c-3.8-0.9-13.5-3.7-18.7-5c-22.5-4.9-57.2-12.4-79.5-17.6
	c-9.1-2.3-18.2-4.7-27.2-7.1c-15.5-3.7-30.7-8.1-46-12.3c-5.8-1.8-11.6-3.7-17.3-5.7c-4.7-1.6-9.3-3.2-13.9-4.9
	c-15.5-5.6-31.3-11.7-44.1-21.8c-6.2-5-9.6-30.4-8.3-37.8c1.1-7.3,3.4-12,11.9-17.8c5.9-3.5,20.2-9.6,29.3-12.8
	c10.4-3.8,35.3-9.8,45.4-10.9C407.8,263.2,448.8,260.4,452.5,260.7"/>
<rect x="32" class="st0" width="1024" height="768"/>
<path class="st7" d="M331.1,391.9c0,0,15.8-10.7,24-16.4c8.3-5.6,30.3-18.1,30.8-16.5c0.4,1.5-4,16.2-9.4,32.2
	c-5,14.8-11.8,22.1-11.8,22.1L331.1,391.9z"/>
<rect x="32" class="st0" width="1024" height="768"/>
<path class="st8" d="M362.5,380.4c1.9-0.3,1.6,2.2,0.2,6.4c-1.4,4.2-5.2,15.5-5.2,15.5l-14.6-9C342.9,393.4,360.6,380.8,362.5,380.4
	"/>
<rect x="32" class="st0" width="1024" height="768"/>
<path class="st9" d="M376.4,418.9c0,0,18.8-3.2,28.7-4.9c9.9-1.7,35.1-3.8,34.9-2.3c-0.2,1.6-10.3,13.1-21.9,25.4
	c-10.7,11.4-26.8,23.1-26.8,23.1L376.4,418.9z"/>
<rect x="32" class="st0" width="1024" height="768"/>
<path class="st8" d="M410.9,422.9c1.8,0.8,0.1,2.7-3.4,5.5c-3.5,2.8-15.2,14.8-15.2,14.8l-7-17.4
	C385.3,425.8,409.2,422.2,410.9,422.9"/>
<rect x="32" class="st0" width="1024" height="768"/>
<path class="st10" d="M226,545.3c-4.5-3.8-54.1-76.7-62-91.9c-7.8-14.8-10.9-38-4.1-46.8c18.1-24.2,61.6,14,76.1,26.5
	c14,11.7,24.7,26.8,37.8,39.7c12.6,12.1,25.6,25.6,37.3,39c6.1,7,15.4,15.3,17.1,24.9c-20.4,6.5-39,6-59.3,4.5
	C253.7,539.9,240.6,541.2,226,545.3"/>
<rect x="32" class="st0" width="1024" height="768"/>
<path class="st11" d="M227.8,534.8c-4.5-3.8-55.4-76.1-62-91.9c-3.7-9.3-10.6-31.7-3.7-40.6c18.1-24.2,61.2,7.8,75.8,20.2
	c14,11.7,63.4,65.4,75.1,78.7c6.1,7,27.6,35.8,34.6,49.2c-20.4,6.5-37.7,25.5-58.1,24C274.3,573.2,242.1,551.6,227.8,534.8"/>
<rect x="32" class="st0" width="1024" height="768"/>
<path class="st1" d="M194,429.5c0.1-4.3-0.8-9.9-0.8-13.6c2.6,2.3,7.4,6.4,10.1,8.8c4.3-2,7.9-4.6,11.8-6.6
	c-0.8,4.8-3.2,9.3-4.3,12.9c4.8,3.2,8,5.3,11.8,8.5c-6.7,1-10.8,1.1-14.8,1.3c-1.9,3.9-3.5,8.2-6.5,13.1c-1.6-5.2-2.6-8.4-3.9-14.8
	c-6.9-0.4-9.9-0.9-15-1.3C186.8,434.1,191.1,432.4,194,429.5"/>
<rect x="32" class="st0" width="1024" height="768"/>
<polygon class="st12" points="273.4,457.5 185,474.2 183.1,484 188,491.4 190,482.3 278.6,463.9 "/>
<rect x="32" class="st0" width="1024" height="768"/>
<path class="st9" d="M329.2,387.2c-8,0.2-38.7,8.6-63.3,12c-16.8,2.3-54.8,4.3-71.4,4c-14.4,0.1-38.5-0.9-16.9,16.3
	c21,16.3,83.2,48.5,106.8,61.3c15.7,8.5,12.6,13.6,13.8,32.6c0.9,14.4-2,28.8-6.1,41.6c13.1,6.4,63.9,7.7,78.4,7.6
	c23.6-0.6,11.6-54.3,10.3-70.6c11.4-30.3,28.7-41.1,1.1-70.1C373.2,412.6,349.6,386.6,329.2,387.2"/>
<rect x="32" class="st0" width="1024" height="768"/>
<path class="st8" d="M254.6,464.8c0,0,57,12.9,65.3,63.4c7.5,46.1-19.9,90.4-19.9,90.4l-18-21.4c0,0,12.4-37.3,15.1-56.7
	C301.1,511.2,296,491.1,254.6,464.8"/>
<rect x="32" class="st0" width="1024" height="768"/>
<path class="st13" d="M189.6,403.3c-14.3,0-26.3,0.2-17.3,11.2c8.4,10.2,27.1,19.6,27.1,19.6s7.3-22.9,6.2-31
	C205.6,403.1,193.5,403.4,189.6,403.3"/>
<rect x="32" class="st0" width="1024" height="768"/>
<path class="st8" d="M371.2,439.3c-1.7,8.7-10.6,15.8-20.8,13.7c-7.7-1.5-16.7-10.7-10-21.4c6.2-9.9,13-10.8,20.7-8.1
	C368.5,426,372.9,430.6,371.2,439.3"/>
<rect x="32" class="st0" width="1024" height="768"/>
<path class="st8" d="M328.2,402.3c-3.1,7.2-12,11.3-19.9,7.8c-6-2.6-11.2-11.9-3.6-20.1c7-7.5,14.4-5.7,20.1-2.7
	C329.1,389.7,331.3,395.1,328.2,402.3"/>
<rect x="32" class="st0" width="1024" height="768"/>
<path class="st13" d="M358.7,438.9c-0.3,1.6,0.7,3.2,2.3,3.5c1.6,0.3,3.2-0.7,3.5-2.3c0.3-1.6-0.7-3.2-2.3-3.5
	C360.6,436.2,359,437.3,358.7,438.9"/>
<rect x="32" class="st0" width="1024" height="768"/>
<path class="st13" d="M315.8,397.1c-0.5,1.3,0,2.7,1.3,3.3c1.3,0.6,2.7,0,3.3-1.3c0.5-1.3,0-2.7-1.3-3.3
	C317.8,395.2,316.4,395.8,315.8,397.1"/>
<rect x="32" class="st0" width="1024" height="768"/>
<path class="st13" d="M317.5,603.2c0,0,16.3-67.3,33.5-83.2c16.8-15.6,31.9-15.3,31.9-15.3l-1.3-6.6c0,0-18.6-2-40,18.2
	c-18.5,17.5-35.7,81.9-35.7,81.9L317.5,603.2z"/>
<rect x="32" class="st0" width="1024" height="768"/>
<path class="st11" d="M524.4,487.3c-7.9-6.8-30.8-31.6-45.4-29.7c-21.4,2.8,20.5,37,27.9,42.4C512.9,494.8,519.9,492.1,524.4,487.3"
	/>
<rect x="32" class="st0" width="1024" height="768"/>
<path class="st10" d="M576.5,436.7c-19.6-5.9-25.2,5.7-36.2,20.2c-10.9,14.5-21.7,25.1-37.7,34.6c-15.3,9.7-24.1,13.3-42.3,14.3
	c-17.6,1.2-57.6,2.3-65.9,3c-9.5,33-13.3,44.3-53.2,51.3c-30.2,5.3-52.3-38.3-52.6-39.9c-43.1,5.9-74.2,10.8-93.5,13.4
	c-14.8,2-55.7,14.4-70,18.9c-6.6,2.7-6.4,25.5-8.4,32.4c-3.7,15.3,7,51.7,6.7,67c55.4,28,237.7-10.8,275.4-25.3
	c31.9-12.4,117-51.3,128.5-64c7.7-15.2,16.7-29.7,21.9-46.1C558.4,490.4,570.2,463.8,576.5,436.7"/>
<rect x="32" class="st0" width="1024" height="768"/>
<path class="st11" d="M190.4,610.8c-0.6-55.2-30.3-67.6-31.5-68.3c-18.5,5.4-29.5,8.4-37.3,11.8c-6.2,3.4-4.2,28.2-5.6,35.3
	c-2.1,15.6,12.4,50.7,13.6,65.9c11.2,4.3,33.4,7.2,51.7,6.3C187,657,190.6,630.7,190.4,610.8"/>
<rect x="32" class="st0" width="1024" height="768"/>
<path class="st1" d="M115.7,561.2c7.1-17.1,25.5-5.3,31.5,8.9c10.1,23.7,12.1,81.5-13.4,85.5c-19.7,3.4-25.8-24.9-26.6-42.6
	C106.6,599.9,108.5,578.6,115.7,561.2"/>
<rect x="32" class="st0" width="1024" height="768"/>
<path class="st9" d="M112.1,593.4c0.2-1.5,1.9-11.8,3.2-15.1c9.1-21.7,21.6-3.4,23.7,10.4c2,13.1,5.7,28.6-3,47.3
	c-7.2,15.4-15.5,6.9-20.3-7.1C111.7,616.8,110.9,605.2,112.1,593.4"/>
<rect x="32" class="st0" width="1024" height="768"/>
<path class="st12" d="M469.8,530.3c-17.1-1.7-34.3,25.6-15.8,40.4C486.6,596.9,515.7,534.8,469.8,530.3"/>
<rect x="32" class="st0" width="1024" height="768"/>
<path class="st8" d="M472.2,541.4c-14.4-3.9-22.5,19.3-7.7,23.9C483,571,489.2,546,472.2,541.4"/>
<rect x="32" class="st0" width="1024" height="768"/>
<path class="st11" d="M470.7,547.5c-7.4-3.3-11.7,8.7-5,11.9C474.4,563.6,479.8,551.6,470.7,547.5"/>
<rect x="32" class="st0" width="1024" height="768"/>
<path class="st10" d="M291.8,603.7c0,0-0.9,6.1-4.1,12.1c29.4,35.3,61.6,63.8,90.2,89.7c56.8,51.4,104.7,57.8,129.1,45
	c1.6-0.9,4.4-2.8,6-4.9c3.7-4.5,4.1-11.9,4.1-11.9c-6.8-9.4-24.8-45.8-30.8-55.7c-12.9-19.3-27.7-28.9-47.2-41.6
	c-25-15.7-49-29.2-78.9-33.8C351.8,601.7,297.9,602.7,291.8,603.7"/>
<rect x="32" class="st0" width="1024" height="768"/>
<path class="st11" d="M291.8,603.7c31.6-7.7,68.2-16.5,100.7-22c22,20.5,97,89.7,106.4,102.9c9.8,14.7,16,20,19,37.1
	c5.3,30.5-35.9,28.4-58,22c-29.2-7.8-52.1-26.8-75.1-45.5c-17.2-14.2-48-46-56.7-53C319.5,637.5,298.7,612.5,291.8,603.7"/>
<rect x="32" class="st0" width="1024" height="768"/>
<path class="st11" d="M517.2,509.7c9.2-2.7,19.3-5.2,27.5-7.7c13.1,8.5,21.4,12.4,31.2,20.4c9,8.5,22.7,25.3,2.5,22.6
	C555,541.6,534.1,522.4,517.2,509.7"/>
<rect x="32" class="st0" width="1024" height="768"/>
<path class="st13" d="M117.2,589.8c8.1-1.9,10.7,33.5-0.4,30.8C110.5,619.1,110.3,591.3,117.2,589.8"/>
<rect x="32" class="st0" width="1024" height="768"/>
<path class="st14" d="M115.3,595.7c-19,2.8-20.4,18.7-0.8,23.1C116.4,612,116.8,602.8,115.3,595.7"/>
<rect x="32" class="st0" width="1024" height="768"/>
<path class="st14" d="M112.2,604.3c-1.6-5.1-10-49.9-10.6-59c-1-16,5.3-43.6,14.7-23.6c4.3,9,0.7,30.8,0.5,40.7
	C115.5,576.2,113.2,598.3,112.2,604.3"/>
<rect x="32" class="st0" width="1024" height="768"/>
<path class="st14" d="M113,682.6c2.7,13.4,6.3,16.7,12.1,16.7c6.4-0.1,4.8-14.5,4.2-20.2c-2.2-13.1-5.9-22.7-8.8-35.7
	c-1.6-7.4-5.2-27.9-9.7-33.4C109.8,611.6,111.6,675.8,113,682.6"/>
<rect x="32" class="st0" width="1024" height="768"/>
<path class="st1" d="M448.3,695.7c0.1-0.6-2.1-10.5-2.8-13.9c5.9,3.5,9.1,5.7,13.6,9.9c4.4-1.6,10.8-3.6,13-4.6
	c-1.9,5.3-3.7,8.3-5.9,12.5c4.1,2.8,9.3,8.6,12.7,12.8c-6,0.1-11.6-2.3-17-3.4c-2.3,3.7-5.3,11.1-8.2,15.2
	c-2.7-7.3-3.2-11.8-4.5-18.8c-5.8-1.2-13.9-2.7-18.8-5C436.4,698.4,442,696.4,448.3,695.7"/>
<rect x="32" class="st0" width="1024" height="768"/>
<polygon class="st12" points="462,646.9 362.6,678.2 359,688.5 365.5,694.4 368.6,685.3 467.8,652.5 "/>
<rect x="32" class="st0" width="1024" height="768"/>
<path class="st9" d="M453.9,490.1c-0.1-3.4-4.1-1.9-10-1.7c5.8-2.1,10.4-6.2,7.9-10.8c-2.7-4.8-7.6,2.6-11.8,5.4
	c2.3-2.8,5.2-7.4,4-10.7c-2.1-5.8-7.8,0.5-12.8,6.6c-5-14-10.8-2.2-6.1,6.8c-19.9,25.3-42.7,21.2-56.2,22.4c-0.1,0-0.2,0-0.3,0
	c-4.6,2-9.9,5-15.5,9.8c2.6,3.5,9.2,6.2,14.3,7.1c31.7,5.8,53.6-14.2,64.6-29.3C441.5,496.3,454.1,497.5,453.9,490.1"/>
<rect x="32" class="st0" width="1024" height="768"/>
<path class="st9" d="M385.3,488.7c0,0,2.4,0.8,4.9,2c4.1,1.9,6.4,8.5,5.8,3.2c-0.6-5.3-6.1-11.2-6.1-11.2s2.7-2.6,11.9,0.5
	c6,2-5.7-10.3-5.7-10.3s7.6,0.6,12.6,1.4c2.5,0.4-12.5-12.1-12.5-12.1s-0.3-1,1.1-5.6c0.7-2.3,1.7-9.5,1.7-9.5s0.2-0.4,0.5-1.2
	l-12.7-3.2l-13.8,54.5l8.6,0.4C382.3,493.5,385.3,488.7,385.3,488.7"/>
<rect x="32" class="st0" width="1024" height="768"/>
<path class="st8" d="M298.3,460.1c4.5-2.4,4.7,7.3,18.6,9.9c9.3,1.8,17.9-7.5,21.2-3c4.7,6.4-5.3,18.5-22.1,16.8
	C302.7,482.6,291.9,463.5,298.3,460.1"/>
<rect x="32" class="st0" width="1024" height="768"/>
<rect x="32" class="st0" width="1024" height="768"/>
<path class="st15" d="M1010,648.1c-0.1-6.3-1.7-58.6-29.6-75c-27.9-16.4-51.6,22.3-51.6,22.3s-3.4-72.2-37.2-63.7
	c-33.9,8.6-33,49.6-33,49.6s-11.1-24.9-29.6-16.4c-20.5,9.4-16.9,35.6-16.9,35.6s-11.4-19.1-28.2-5.1c-16.8,14-26,38.7-21.7,65.6
	c4.2,27,21,62.1,123.9,49.2C988.8,697.4,1010.4,692.7,1010,648.1"/>
<rect x="32" class="st0" width="1024" height="768"/>
<path class="st2" d="M822,717.6c0,0,93.1,4.7,108.7-45.9c14.8-47.9,1.3-89.7-47.6-96c-43.5-5.6-66.3,31.7-66.3,31.7
	s5.2-51.7-37.1-60.3c-42.4-8.6-45.2,35.4-45.2,35.4s-37.9-39.6-70.4-13.8c-32.5,25.8-27,63.3-27,63.3s-33.9-44.1-64.9,0
	c-31.1,44.1-21.2,90,22.6,92.8C638.4,727.7,822,717.6,822,717.6"/>
<rect x="32" class="st0" width="1024" height="768"/>
<path class="st15" d="M787,688.7c-0.1-4.4-1.8-40.9-30.7-52.4c-28.9-11.5-53.5,15.5-53.5,15.5s-3.5-50.4-38.6-44.4
	c-35.1,6-34.2,34.6-34.2,34.6s-11.5-17.4-30.7-11.5c-21.2,6.5-17.5,24.8-17.5,24.8s-11.8-13.3-29.2-3.6c-17.4,9.8-26.9,27-22.5,45.8
	s21.7,43.4,128.4,34.4C765.1,723.1,787.5,719.8,787,688.7"/>
<rect x="32" class="st0" width="1024" height="768"/>
<g>
	<path class="st16" d="M452.6,246.8c7.2,0.4,12.7,6.5,12.3,13.7c-0.4,7.2-6.5,12.7-13.7,12.3s-12.7-6.5-12.3-13.7
		S445.4,246.4,452.6,246.8"/>
	<path class="st8" d="M452.3,251.8c7.2,0.4,12.7,6.5,12.3,13.7s-6.5,12.7-13.7,12.3s-12.7-6.5-12.3-13.7
		C439,256.9,445.2,251.4,452.3,251.8"/>
</g>
<path class="st15" d="M8.5,284.4c-0.4-4-2.8-37.5,20.6-50.7c23.3-13.2,46.9,9,46.9,9s-2.3-46.3,28.1-44.2
	c30.3,2.1,32.5,28.3,32.5,28.3s8-16.9,24.8-13.4c18.7,3.9,17.4,21,17.4,21s8.6-13.3,24.4-6.1c15.8,7.2,25.6,22,23.8,39.6
	s-13.9,41.6-105.1,43.7C30.6,313.6,11.3,312.8,8.5,284.4"/>
</svg>
