<?xml version="1.0" encoding="utf-8"?>
<!-- Generator: Adobe Illustrator 26.2.1, SVG Export Plug-In . SVG Version: 6.00 Build 0)  -->
<svg version="1.1" id="Capa_1" xmlns="http://www.w3.org/2000/svg" xmlns:xlink="http://www.w3.org/1999/xlink" x="0px" y="0px"
	 viewBox="0 0 250 150" style="enable-background:new 0 0 250 150;" xml:space="preserve">
<style type="text/css">
	.st0{opacity:0.68;fill:#42BD6A;}
	.st1{fill:#7A411B;}
	.st2{fill:#FFFFFF;}
	.st3{fill:#A35625;}
	.st4{fill:#231F20;}
	.st5{fill:none;stroke:#231F20;stroke-width:0.7975;stroke-linecap:round;}
</style>
<path class="st0" d="M196.8,109.6c-9.6,37.9-71.8,38.7-109.8,29.1S40.5,91.2,50.2,53.3S125.5,4,163.4,13.6S206.4,71.7,196.8,109.6z"
	/>
<g id="g1484" transform="matrix(0.93937838,0,0,1.1150001,15.511375,31.680893)">
	<path id="path1330" class="st1" d="M161.3,15.5c0,0,0-9.7-1.9-16.7s-5.8-14.4-10.8-13.8c-4.2,0.6-2.8,4.2,0.9,9.6
		c3.1,4.5,4.7,6,6,11.5s1.3,9.4,1.3,9.4H161.3z"/>
	<path id="path1332" class="st2" d="M183.6,13.5c2.3,3.9,0.4,7.7-3.1,8.7c-3.6,1-7.1,0.3-9.2-3.6c-1.6-3.1-0.6-7.6,2.9-8.6
		C177.8,9,181.9,10.6,183.6,13.5L183.6,13.5z"/>
	<path id="path1334" class="st1" d="M163.6,61.3c3.5,1.3,9.3,0.9,9.3,0.9s9.4-0.1,10.6,4.7c0.7,2.8-5.5,0.7-5.5,0.7s5.1,2.9,2.3,4.9
		c-2.8,2-5.2-0.9-5.2-0.9s1.2,4.4-2.8,3.5c-4.1-0.9-4.4-5.2-4.4-5.2s-3.9-2.9-11-4.2c-7.6-1.5-20.1-1.5-20.1-1.5l9.7-6.5
		C146.3,57.8,158.8,59.6,163.6,61.3z"/>
	<path id="path1336" class="st1" d="M76.5,64.1c-13.7,1.7-20.9-0.3-24.7-0.6c-5.7-0.3-11.6,0.7-11.3-4.5c0.3-5.2,5.7,0.7,5.7,0.7
		s-3.6-3.8-1.2-6.3c2.9-2.9,4.7,3.1,4.7,3.1s-1.2-6.4,2.8-5.5c2.3,0.6,2.5,5.2,2.5,5.2s5.7,2,14.4,0c7.6-1.6,16-11.6,16-11.6
		l16.1,11.2C101.4,55.9,83.5,63.2,76.5,64.1z"/>
	<path id="path1338" class="st3" d="M138.4,17.3c0,0,15.7-13.4,33.9-4.7C204.1,27.9,214.5,46.8,211,52c-2.9,4.5-20.6,0.4-39.7-0.3
		c-10.6,6.5-20.8,8.4-26.6,6.4c-17.9-0.4-15-36.9-15-36.9L138.4,17.3z"/>
	<path id="path1340" class="st3" d="M137.8,17.3c0,0-12.6-6.4-31.7-6.4S69.5,18,65.7,33.3c-3.9,15.3-1.6,35.6,4.8,40.8
		c12.8,10.5,36.2,11.5,54.5,6.7c23.4-6.3,29.1-31.5,29.1-31.5L137.8,17.3z"/>
	<path id="path1342" class="st3" d="M153,15.7c0,0-4.7-13.8-13.2-18.2c-7.4-3.8-18.8-6.7-17.2-1.2c1.6,5.5,10.6,5.4,16.7,10.5
		s10.2,11,10.2,11L153,15.7z"/>
	<path id="path1344" class="st3" d="M158.2,75.6c2.9,2.3,8.4,3.5,8.4,3.5s9,2.6,8.6,7.4c-0.3,2.9-5.4-0.9-5.4-0.9s3.9,4.2,0.7,5.4
		c-3.2,1.2-4.7-2.3-4.7-2.3s-0.1,4.5-3.8,2.6c-3.5-2-2.6-6.4-2.6-6.4s-2.8-3.8-9.2-7.3c-6.7-3.5-18.5-7.1-18.5-7.1l11-3.5
		C142.9,67.1,154.3,72.5,158.2,75.6z"/>
	<path id="path1346" class="st3" d="M64.7,83.1c-13.8,1.2-20.9-0.3-24.7-0.6c-5.7-0.3-11.6,0.7-11.3-4.5s5.7,0.9,5.7,0.9
		s-3.6-3.8-1.2-6.3c2.9-2.9,4.7,3.1,4.7,3.1s-1.3-6.1,2.8-5.7c2.5,0.3,2.5,5.4,2.5,5.4s4.5,1.9,14.4,0c7.6-1.5,16-11.8,16-11.8
		l16.1,11.2C89.6,74.8,79.7,81.8,64.7,83.1z"/>
	<path id="path1348" class="st3" d="M69.7,29.2c0,0-15.4,0.4-25.6-5.4c-6-3.5-7.6-12.5-7.3-8.3c0.1,4.2,2,10.2,9.3,15.7
		c9.3,6.8,20.9,6.7,20.9,6.7L69.7,29.2z"/>
	<path id="path1350" class="st2" d="M168.1,21.6c2.8,4.1,1,8.4-2.8,9.7c-3.8,1.3-7.8,0.9-10.3-3.2c-1.9-3.1-0.7-8.6,3.1-9.9
		C161.8,17.1,166,18.6,168.1,21.6z"/>
	<path id="path1352" class="st4" d="M166.8,25.6c0.4,0.7,0.1,1.5-0.4,1.6c-0.6,0.1-1.2,0.1-1.6-0.6c-0.3-0.6-0.1-1.5,0.4-1.6
		C165.9,24.8,166.5,25,166.8,25.6z"/>
	<path id="path1354" class="st4" d="M182,13.8c0.4,0.7,0.1,1.5-0.4,1.6c-0.6,0.1-1.2,0.1-1.6-0.6c-0.3-0.6-0.1-1.5,0.4-1.6
		C181.2,13.1,181.7,13.4,182,13.8z"/>
	<path id="path1356" class="st4" d="M195.3,54.2c0,0,0.9-5.5,3.6-11.2c2.3-4.7,5.4-8.7,5.4-8.7s16.6,17.3,8.9,19.9
		C205.7,56.8,195.3,54.2,195.3,54.2z"/>
	<path id="path1358" class="st5" d="M151.8,41.4c0,0-0.1,2.2,3.1,4.1c2.2,1.3,5.1,0.1,5.1,0.1"/>
</g>
</svg>
