<?xml version="1.0" encoding="utf-8"?>
<!-- Generator: Adobe Illustrator 26.2.1, SVG Export Plug-In . SVG Version: 6.00 Build 0)  -->
<svg version="1.1" id="Capa_1" xmlns="http://www.w3.org/2000/svg" xmlns:xlink="http://www.w3.org/1999/xlink" x="0px" y="0px"
	width="418px" height="341px" viewBox="0 0 418 341" style="enable-background:new 0 0 418 341;" xml:space="preserve">
<style type="text/css">
	.st0{fill:#D3D2C2;}
	.st1{fill:none;stroke:#D3D2C2;stroke-width:0.3;stroke-linecap:round;}
	.st2{fill-rule:evenodd;clip-rule:evenodd;fill:#231F20;}
	.st3{fill:#DCCEB0;}
	.st4{fill-rule:evenodd;clip-rule:evenodd;fill:#BA2327;}
	.st5{fill-rule:evenodd;clip-rule:evenodd;fill:#3CAF73;}
	.st6{fill-rule:evenodd;clip-rule:evenodd;fill:#7B421C;}
	.st7{fill-rule:evenodd;clip-rule:evenodd;fill:#00A6A6;}
	.st8{fill-rule:evenodd;clip-rule:evenodd;fill:#DCCEB0;}
	.st9{fill-rule:evenodd;clip-rule:evenodd;fill:#FFFFFF;}
	.st10{fill:none;stroke:#231F20;stroke-width:0.809;stroke-linecap:round;}
	.st11{fill-rule:evenodd;clip-rule:evenodd;fill:#AAB850;}
	.st12{fill-rule:evenodd;clip-rule:evenodd;fill:#918A3E;}
	.st13{fill:none;stroke:#AAB850;stroke-width:0.877;stroke-linecap:round;stroke-dasharray:1.75,3.51;}
	.st14{fill:#7B421C;}
	.st15{fill:#A45725;}
	.st16{fill:#B8692A;}
	.st17{fill:#231F20;}
	.st18{fill:#FFFFFF;}
</style>
<g>
	<path class="st0" d="M312,307.3c1.3-0.1-0.7-0.3,0.8-0.2C312.7,307.3,312.4,307.4,312,307.3z"/>
	<path class="st0" d="M291.5,300c2-0.5,4.4-0.5,6.8-0.4c1.2-0.1,2.4,0.4,3.6-0.1c-0.8-1-2.1-1-2.9-2c0-0.2,0.9-0.4-0.3-0.8
		c-4.4-0.5-11-1.1-16.3-1.5l0.3-0.2c-1-0.1-2.2,0.5-3.3,0.5c0-0.1,0.3-0.2,0.1-0.3c-0.2,0.3-1.9,0.3-2.3,0.5c-0.4-0.1-0.4-0.4-1-0.5
		l-0.6,0.4c-1.6,1-4.1,0.3-6.3,1c0.1-0.1,0.3-0.2,0.1-0.2c-3.6,0.9-8.2,1.5-12.2,2.4c0.1-0.2,0.2-0.4,0-0.5c-0.1,0.4-1.4,0.7-2.4,1
		c-0.6-0.3-1.8,0.7-3.1,0.8l0.1-0.1c-0.8,0.6-1.4,0.1-2.1,0.7l-0.7-0.2c-0.3,0.6-1.4,0-2.1,0.5l0.1,0.1c-0.7,0.3-1.1,0.2-1.8,0.4
		h-0.1c-1.5,0.6-2.5,0.6-2.3,1c-0.6-0.1,1.4-0.6,0.4-0.8c-2.4,0.8-5.1,2.6-7,2.9c2.6,0.6,5.3,0.7,8,0.7c0.6,0.2,1,0.2,1.1,0.4
		c0.5-0.1,2-0.1,2.5-0.3c-0.2,0,0.3,0.2,0.6,0.2c1,0.1,1.1-0.5,2.1-0.3c-0.4,0.1-0.6,0.3-0.4,0.4c0.9-0.4,2.1-0.4,3.2-0.5
		c-0.2,0.1-0.4,0.1-0.4,0.3c1.2-0.4,2.2,0,3.2-0.3l-0.4,0.3c1.7,0.2,0.5-0.5,1.9-0.4c-0.3,0.1-0.2,0.2-0.3,0.3
		c1.3-0.5,3.5-0.5,4.8-0.7l-0.1,0.1c1.5-0.2,3-0.1,4.6-0.4c0.6,0.1-0.1,0.6,1.4,0.4c-0.1-0.5,2.6-0.4,1.7-0.9c1.3,0,3.4,0,4.3-0.3
		c-0.6,0.2,0.7,0.5-0.4,0.7l0.9,0.2c-0.1,0.2-0.9,0-0.6,0.2c0.5-0.1,2.1-0.4,2.6-0.4c1-0.4,1.9-1,3.5-1.2c-0.8,0.3,0.5,0.5,0,0.6
		l2.2-1.1c0.5-0.1,0.2,0.4,0.9,0.2c-0.1-0.1,0.3-0.2,0.5-0.4c0.2,0,2.3-0.3,2.6,0.2c0.3,0.2-0.9,0.2-0.3,0.3c1-0.1,1-0.3,2.1-0.3
		v0.1c0.6,0,2-0.3,1.2-0.6c-0.5,0,0.2,0.3-0.5,0.2c0.4-0.3,1.7-0.4,2.7-0.5c-0.3,0.1-0.3,0.2-0.4,0.4c1.3-0.4,2.8-0.6,4.3-0.9
		c0-0.2-0.5,0.5-0.8,0.3c2,0.2,4-0.7,5.6-0.4c-0.3,0.1-0.2-0.3-0.1-0.3c0.9,0,0.9,0.3,1.5,0.1c0.1,0.2,0.8-0.1,1.4-0.3
		c0.3-0.2,0.2,0.1-0.4,0.2c0.9-0.3,4.3-0.9,6.2-1.1c-0.1-0.1,1.1-0.7,1.5-0.8l-0.1,0.3c0.4,0.1,1.3-0.4,1.4-0.2
		c0.9-0.5-3.2,1.3-2.1,0.7c0.4,0.2,1.6-0.9,1.4-0.4c1.2-0.3,0.6-1.1,1,0.5c-0.2-0.1,0.1-0.7,0.3-0.3c-0.8-0.4-0.2,0-1.1-0.3
		l-0.6-0.1c-0.1,0.2-0.9-0.2-0.6,0.1c0-0.3-1.7-0.1-1.5-0.5l0.2-0.4c-0.5,0-0.9,0.4-1.4,0.5c-0.1,0-0.2-0.1-0.2-0.2
		c-0.1,0.6-1.3-0.1-2,0.4c-1.2-0.2-3,0.1-3.6-0.2c-0.9,0.2-1.7,0.5-2.8,0.5c0.2-0.1,0.5-0.1,0.5-0.2c-0.7-0.1-0.8,0.1-1.4,0.2
		c0.1-0.1-1.3-0.2-2.1-0.4c-0.9,0.3-0.6,0.5-0.6,0.8c-0.9-0.5-2.6,0.6-3.7,0.2c0.3-0.1,1.3-0.4,0.5-0.5c-0.9-0.5-1.7,0.6-3,0.4
		l0.4,0.5c-0.6-0.2-2,0.5-1.9,0c-0.4,0.2-1.6,0-1.4,0.4c-2.3-0.2-5.4,0.7-6.9,0c-0.3,0.1-1.1,0.1-0.9,0.3c0.6,0.2,0.7-0.2,0.9-0.1
		c-0.3,0-0.3,0.2-0.4,0.2c-0.7-0.1-1.3,0-0.6-0.5c-1.6-0.2-1.5,0.9-3.5,0.8c0.1-0.2-0.1-0.3-0.7-0.2l-1.1,0.4
		c-1.3,0-0.7-0.4-0.8-0.7c-0.7,0.1-1.5,0.1-1.8,0.3l-0.8-0.4c0.6,0.3-0.6,0.2-0.9,0.3l0.3-0.1c-0.1-0.1-0.9-0.1-1.3,0
		c0.1,0.2,0.9,0.3,1.3,0.4c-0.4,0.1-0.9,0.1-1.4,0.3c0.2-0.3-1.1-0.2-1.7-0.3c-0.6-0.1-0.7,0.3-0.9,0.3c0-0.2-1,0-0.5-0.3
		c0.2-0.1,0.5,0.2,0.8,0c-0.4-0.1-0.4-0.4-1.2-0.2c-0.6,0.1,0.1,0.6-1.1,0.4c0.3-0.1,0.4-0.2,0.6-0.3l-1.1-0.2l-0.1,0.3
		c-0.1-0.1,0-0.1-0.1-0.1c-0.4,0.3-1.7,0-2,0.4c-0.6,0-1.2-0.3-1.8-0.3h0.1c-0.7-0.2-1.6-0.1-2.1,0.1v-0.1c-0.4,0-1.2,0-1.7,0.1
		c-0.9-0.3-0.3-1.1-1.3-0.8c-0.9,0-1.5,0.5-1.1,0.7c-1.7-0.3-3.6,0.2-5.1-0.3c-0.2,0.1-0.1,0.2-0.6,0.3c-2.4-0.1-5.2,0.3-7.1-0.2
		c0.7-0.2,0-0.3,0-0.5c-0.6,0.3-0.7-0.2-0.9,0.2c0.1,0.3,0,0.4,0.7,0.5c-1.4,0.2-3.6,0.3-4.4,0.2c0.4,0.1,0.1,0.2-0.2,0.3
		c0.1-0.4-1-0.4-1.8-0.1l-0.1,0.3l-0.6-0.2c-0.3,0.1-0.3,0.6-1.1,0.4c-0.1-0.1-0.1-0.2-0.3-0.2c-0.8,0.3-1.8,1-2.7,0.9l-0.8-0.2
		c-0.4,0.1-0.9,0.5-0.3,0.4c-1.6,0-2.3,0.4-2.9,0.2c-1.8-3.5,4.1-0.6,6.6-1.1l-0.1,0.2c0.8,0.2,0.5-0.3,1-0.1
		c-0.3,0.2,0.6,0.5-0.1,0.6c1.2,0.3,1.6-0.2,2.4-0.3c0.1-0.2-0.6,0.1-0.5-0.2c0.1-0.1,1.6,0.3,1.9-0.1c0.3,0.2,0,0.4-0.1,0.6
		l0.7-0.1c0.9,0.5-2.1,0.7-1.2,1.3h0.7c0.6,0.4-1.8,0.3-0.1,0.6c0.8-0.1,1.4-0.7,0.8-0.9c1.5,0,0.8-0.9,2.4-0.8c0.4,0.3-1.3,0-1,0.3
		c0.8,0.3,1.6-0.1,2.3,0c-0.8-0.2-0.1-0.5,0.4-0.6c0.8,0.2-0.6,0.3,0.6,0.4c0.2-0.2,1.3-0.3,0.4-0.5c0.5-0.5,1.2,0.2,1.9-0.2
		c0.4,0.4-1.3,0.8,0,1c-0.2-0.4,1.6-0.4,1-0.9c0.5,0.1,0.6,0.4,0.2,0.6c0.7,0.2,1.8-0.6,2,0.1l0.3-0.3c0.2,0.1,0.6,0.2,0.9,0.4
		c0.6,0,2.1-0.4,2,0.1c0.2,0,1.7,0,1.1-0.4c-0.9-0.3-1.1,0.2-1.6-0.3c0.6,0.4,1.3,0,1.9-0.1l0.1,0.2c0.3-0.1,1.1,0,1.3-0.2
		c-0.2,0.1-0.1,0.3,0.1,0.3l0.3-0.3c1.3-0.1,0.3,0.6,1.5,0.5l-1,0.2c0.2,0,0.6,0.3,1.2,0.2c0.2-0.3,0.7-0.6,0.9-0.8
		c0.7-0.1,0.3,0.3,1,0.1l-0.9,0.3c-0.1,0.1,0.6,0.5,1.5,0.5c0.6-0.1,1.6-0.4,0.6-0.6c0.5,0,1.1,0.2,0.7,0.4c1.1,0-0.1-0.3,0.8-0.4
		c0.3,0.2,1.5,0.5,2.2,0.8l-1,0.4h0.6c-0.8,0.4,0.4,0.3-0.1,0.7c0.4,0.1,1,0,1.4-0.1c-1.3-0.7,1.5-0.8,1.1-1.4
		c1.8-0.1,1.1,1.5,2.9,0.6c-0.3-0.2,0.6-0.6-0.5-0.4c1.1,0.1,0.8-0.6,2-0.3c-1,0.2,1,0.6-0.4,0.9c0.1-0.2-0.8-0.2-1-0.1
		c0.4,0.2-0.1,0.6,1,0.6c0.7,0,1.6,0,1.5-0.3c0-0.3-1,0-0.6-0.3c1.4-0.1,1.6,0.4,2.2-0.1c-0.9,0-1.1-0.3-1-0.6l1-0.1l-0.2,0.2
		c1.6,0.2,0.5-0.4,2-0.3l0.7,0.5c-0.4,0.4-2.3-0.2-2,0.4c1,0.1,1.4-0.3,2.3-0.1l-0.7,0.1c0.4,0,0.7,0.9,2.2,0.4
		c0.7-0.2,0.2-0.2,0.2-0.4c1.6,0,2.1-0.3,3.2-0.3c-0.2,0.4,1.8,0.1,0.7,0.5c-0.5-0.3-2.9-0.3-3.5,0.1c0.6,0.6-1.3-0.1-1.6,0.4
		c1.3,0,1.2,0.6,1.4,0.9c0.4,0,0.7-0.1,0.9-0.2c0.2-0.3-0.3-0.3-0.3-0.7c1.4,0.1,2.9,0,3.7-0.3c0.5,0.2,0.3,0.5-0.3,0.5
		c1.7-0.1,3.6,0,5.2,0.2c-1-0.6,1.8-0.1,1.1-0.5c-0.9-0.1-1.6-0.5-1.1-0.8c0.5,0,0,0.2,0.2,0.3c0.7-0.3,1.1,0.5,1.8,0
		c-1.6,0.1-0.3,0.6-0.6,1c1.1-0.2-0.1,0.3,1.1,0.3c1.1-0.2,2.5-0.4,3.8-0.4c1.6,0.4,4,0.1,5.4,0.1c0.7,0.2,0.2,0.7,1,0.8
		c0.9,0-0.7-0.5,0.7-0.3l-0.1,0.1c0.4-0.1,2.6,0.3,3-0.3l-0.4,0.5c0.3,0.1,0.5-0.1,0.7-0.1c0,0.2,0.3,0.3-0.1,0.4
		c0.9,0.4,1.8,0,2.7-0.1l-0.6-0.3c1.6-0.2,2.7,0.1,4.2,0v0.3l0.9-0.2c-0.2,0.3,0.6,0.5,1.1,0.2l-2.4,0.7c-0.7-0.2,0.7-0.4,0.3-0.6
		c-0.4-0.3-1.8-0.2-2,0.1c0.6,0,0.6,0,1-0.1c0.2,0.4-0.7,0.4-1.1,0.7c0.3,0,0.7,0.1,0.8,0c-0.6,0.2-1.1,0.2-2.1,0.2
		c0.6-0.2-0.3-0.3-0.1-0.4c-0.1,0.4-1,0.5-2.1,0.4c-0.8-0.4-2.2,0.2-3.5,0.1c0.6-0.4,1.3-0.6,2.1-0.8c-0.8-0.2-0.9,0-1.8-0.2
		c-0.4,0.3-0.7,0.7-1.8,0.8l-0.1-0.3c-1,0.1-1,0.5-2.3,0.4c-2.2-0.2-4.4-0.2-6.1-0.3l-0.1-0.3c-0.9,0.6-3.1,0.2-4.3,0.4
		c-2.1-0.3-4.6,0.2-5.7-0.3c-3.7,0.1-7,0.2-10.9,0l0.7-0.4c-0.7,0.3-0.4-0.2-1.1-0.2c0.8,0.3-1,0.4-1.4,0.6
		c-1.7-0.4-3.9-0.1-5.5,0.1l-0.1-0.3c-1.6,0.4-3.4-0.1-5.3-0.3c-0.2-0.1-0.6-0.4-1.1-0.4c-1.1,0.4-1.6,0.3-3.1,0.6
		c-1.1,0-2.9-0.2-4.1-0.4c-4.2,0.4-8.5-0.1-13,0l-0.3-0.3c-2.2,0.2-4.5,0-6.9-0.3c-1.3-0.3-2.1-0.1-4-1.2c-0.3,0.8-1.6-2.8-0.5-3.3
		l1.2-0.9c0.7-0.4,1.1-0.4,1.6-0.7l-0.2,0.6c1.3-0.3,2.6-0.8,2.2-1.1c1.2-0.1,2.8-0.9,3.7-0.6c1.2-0.1,1.4-0.4,2.4-0.6
		c2.4-0.1,3.3-0.3,5.5-0.4h-0.6c-0.2,0.1-0.2,0.4,0.3,0.4c0.8-0.2,3.1,0,2.2-0.6c2.4,0.2,5.6-0.3,7.9,0.2c-0.2-0.2,0.4-0.2,0.6-0.3
		c2.1,0.1,4.2,0.5,5.9,0.3c0.3,0.1-0.5,0.3,0.3,0.3c0.5,0,0-0.2,0.6-0.3c3.4-0.2,6.7,0.6,9.7,0.6c5.3-0.1,10.8-0.3,15.9-0.8v0.1
		c1.7-0.6,4.1,0.2,5.4-0.7c0.4,0.1,1.6-0.1,1.3,0.2c1.3-0.5,3.9,0,5.8-0.7l-0.5,0.1c2,0.1,3.8-0.5,5.9-0.4c-0.2,0.1-0.6,0.1-0.7,0.3
		c0.8,0.2,1.9-0.7,2.4-0.1c0.5,0,0.3-0.3,0-0.3c2.4,0,4.8-0.2,7.3-0.3c1.2,0,2.8,0,4.3,0.6c0.6,0.2,1.5,0.5,2.4,1.3
		c2.1,3.1-1.2,4.7-1.4,4.8c-4.2,1-0.6-0.8-3.4,0.4c-0.3-0.1-0.1,0.3-0.2,0.2c-1.1,0.4-1.8-0.4-2.5,0c0.4,0.3-0.5,0.3-0.4,0.5
		c-2.2,0-2.6-0.3-4.3,0.2l0.1-0.2c-1.9,0.8-4.2,0.6-5.9,1.4c-10.8,0.5-21,2.1-31.6,2.9c-5.2,0.3-10.4,0.7-15.7,0.8
		c-2.6,0.1-5.3,0.1-8-0.1c-1.4-0.1-2.7-0.2-4.2-0.5l-1.1-0.2l-0.6-0.1l0,0l0,0c0.2,1-1.6-9.1-0.9-4.8l0,0h0.1l0.1-0.1l0.3-0.1
		l2.1-1.1c2.7-0.6,2.8-0.7,5.5-1.8c-0.1,0.1-0.2,0.2,0,0.2c0-0.5,1.9-0.7,2-1.1c3.9-1.1,7.5-1.9,11.5-2.7c-0.6,0.2-0.9,0.6-0.1,0.4
		l0.7-0.4l0.2,0.1c0.5-0.1,1-0.5,0.5-0.5c10.1-2.1,20.2-2.3,30.3-2.4c2.4,0.2,5.8,0.2,8.6,0.6c1,0.2,2,0.5,3,0.9l0.7,0.2l0.2,0.1
		l0,0l0,0c-0.8,5.2-0.2,1.4-0.4,2.6l0,0l0,0v-0.1c-0.2-0.2-0.2,0,0.4-0.3c1.7-2.1,0.6-0.4,1.4-0.6c0.3,0.3,0.7,0.4,1.2,0.9
		c-0.1,0.3,1.5,0.1,1.1,2.8c-0.8,0.9-0.4,1.3-2.4,1.4h-0.1h-0.2c-0.6-0.1-1.7-0.2-2.5-0.2c-3.8-0.3-6.8,0-11.6-0.3
		C287,301.2,288.6,300.3,291.5,300z"/>
	<path class="st0" d="M310.5,307.4c-0.3-0.2-1.2-0.3-0.5-0.6C310.1,307,310.6,307.2,310.5,307.4z"/>
	<path class="st0" d="M287,304.9c0,0.1-0.3-0.1-0.4-0.1c0.3,0,0.6-0.2,0.8-0.1C287.1,304.7,287.1,304.8,287,304.9z"/>
	<path class="st0" d="M281,304.7c0.1-0.2,1.4-0.3,2.1-0.3L281,304.7z"/>
	<path class="st0" d="M275.4,303.7c-0.5-0.2-0.3-0.3,0.3-0.2C275.8,303.6,275.6,303.6,275.4,303.7z"/>
	<path class="st0" d="M275,304.2c-0.5,0-0.7-0.1-0.9-0.2C274.1,304.1,275.2,303.8,275,304.2z"/>
	<path class="st0" d="M262.9,303.3c-0.3,0-0.9,0.1-1.2-0.1C262,303.4,263.1,303,262.9,303.3z"/>
	<path class="st0" d="M257.3,303.3h-0.5c-0.3-0.1,0-0.2,0.3-0.2L257.3,303.3z"/>
	<path class="st0" d="M290.3,300.2l-0.6,0.2l0.1-0.2H290.3z"/>
	<path class="st0" d="M292.1,301.4c-0.6,0.1-0.4-0.2-0.5-0.2C292.1,301.2,291.4,301.5,292.1,301.4z"/>
	<path class="st0" d="M267.9,304.3h0.2v0.4L267.9,304.3z"/>
	<path class="st1" d="M246.1,55.3c5-0.1,7.5,3.4,7.6,8.7c0.1,5.3-2.8,9.3-7.7,9.3c-5,0.1-8.7-3.8-8.8-9.1
		C237.2,58.9,241.2,55.4,246.1,55.3z"/>
	<path class="st2" d="M244.1,62.8c0.9,0,1.3,0.5,1.3,1.4s-0.5,1.5-1.3,1.5c-0.9,0-1.5-0.6-1.5-1.5C242.6,63.4,243.3,62.8,244.1,62.8
		z"/>
	<path class="st3" d="M226,195.9c0,0-12.4,5-11.5,6.9c1.6,3.3,5.6,0,5.6,0s-6.1,7.6-4.2,8.8c2.6,1.6,7.5-5.8,7.5-5.8
		s-5.1,8.2-3.2,9.5c2.6,1.8,7-6.8,7-6.8s-3.3,7.9-1.4,8.5c2.7,1,8.3-10.5,8.6-14c0.2-3.5-1.1-2.3-1.1-2.3L226,195.9z"/>
	<path class="st4" d="M261.8,121.6c0,0,7.3,11.1-11.5,58c-5.4,13.4-15.9,23.5-15.9,23.5l-9.6-6.6c0,0,6.8-12.8,14.1-27.5
		c7.3-14.6,10.2-32.7,16.4-41.3C257.6,124.6,261.8,121.6,261.8,121.6z"/>
	<path class="st5" d="M263.1,125.9l9,48.4l22.4-55.7L263.1,125.9z"/>
	<path class="st3" d="M334.4,200.6c0,0-5.1,12.4-3.2,13c3.5,1.2,3.9-4,3.9-4s1.2,9.7,3.4,9.2c3-0.7,1.1-9.5,1.1-9.5s2.3,9.4,4.6,8.9
		c3.1-0.6,0-9.8,0-9.8s3.3,7.9,5.1,7c2.6-1.2-1.7-13.3-4-15.9c-2.3-2.6-2.4-0.8-2.4-0.8L334.4,200.6z"/>
	<path class="st2" d="M263.5,285.9c0,0-8.6,4.8-12.8,6.7c-4.2,1.9-6.6,4.3-7,7.5c-0.4,3.1,0.3,4.7,5.9,4.2
		c5.7-0.5,19.6-2.7,22.6-4.9c3.1-2.2,0.5-12.4,0.5-12.4L263.5,285.9z"/>
	<path class="st2" d="M303,284.7c0,0-6.3,4.5-10.5,6.4s-6.6,4.3-7,7.4s0.2,4.7,5.9,4.2c5.7-0.5,17.2-2.5,20.3-4.7
		c3.1-2.2-0.4-12.7-0.4-12.7L303,284.7z"/>
	<path class="st6" d="M309.3,256.6c0.4,9,3.6,29.3,3.6,29.3l-15.5,1.9c0,0-4.6-11.9-8.9-26.1c-3.4-11.2-3-26.1-7.3-25.7
		c-4.1,0.4-8.8,8.5-9.2,25c-0.2,8.7,2.1,27.4,2.1,27.4l-16.6,0.6c0,0-5.1-13.7-6.3-32.6c-1.2-18.9,1.8-43.3,1.8-43.3
		s18.1,3.4,27.8,2.3c9.7-1.1,35.4-2,35.4-2S308.9,247.6,309.3,256.6z"/>
	<path class="st4" d="M306.2,123c0,0,13,2.5,33.4,48.8c5.8,13.2,5.7,27.8,5.7,27.8l-11.4,2.2c0,0-4.4-13.8-9.8-29.3
		c-5.4-15.4-17.9-28.5-17.9-28.5L306.2,123L306.2,123z"/>
	<path class="st7" d="M287.8,210c2.5-0.2,7.5,0.9,13,0.7c5.5-0.1,11.4-0.4,11.4-0.4l-2.9,1.7c0,0-4.1,0.4-11.5,0.6
		c-7.4,0.2-13.6-1-13.6-1L287.8,210z"/>
	<path class="st4" d="M266.2,124.2c0,0-0.1,7.3,0.4,12.7c0.7,8,5.4,17.9,5.4,17.9s7.6-8.2,10.7-15.6c3.1-7.3,6.2-18.7,6.2-18.7
		s6.8-0.5,10.3,0c3.6,0.6,7.1,2.5,7.1,2.5s12.9,78.9,9.9,90.6c-7.1,4.7-22.3,5.4-37.4,5.2c-19.3-0.3-21.6-1.3-25.8-5.5
		c-3.4-6.2,1.4-67.8,4.9-84.5C259.3,127,266.2,124.2,266.2,124.2z"/>
	<path class="st8" d="M275.1,39.9c-5.3,0.7-12.5,5.9-18.2,12s-8.6,11.9-11.9,14.8c-5.1,4.4-15.9,12.3-14.2,20.3
		c1.6,7.4,8.3,4.3,10,4.5c-0.7,13.6,5.5,28.6,10.8,32.3c5.2,3.7,19,5.6,30.4,2.6c12.6-3.3,21.9-7.2,27.3-14.7
		c5.3-7.4,5.9-10.2,5.9-10.2s5.8,2,7.9-3.7s-6-8.2-6-8.2s2.9-10.3,2.1-19.5s-10.4-19.5-17-24.5C295.5,40.7,281.8,39,275.1,39.9z"/>
	<path class="st9" d="M268.8,63.8c5-0.1,7.5,3.4,7.6,8.7c0.1,5.3-2.7,9.3-7.7,9.3c-5,0.1-8.7-3.8-8.8-9.1
		C259.9,67.4,263.9,63.8,268.8,63.8z"/>
	<path class="st2" d="M270.4,73c0.9,0,1.4,0.6,1.4,1.5s-0.5,1.6-1.4,1.6s-1.6-0.7-1.6-1.6C268.8,73.7,269.5,73,270.4,73z"/>
	<path class="st6" d="M305.8,63.9c0,0-7.6,14.8-5.3,18.2c2.3,3.3,6.3-5.6,6.3-5.6s-6.7,18-2.4,16.6c4.3-1.4,6.3-11.9,6.3-11.9
		s-3.7,14,0.2,11.7c3.9-2.2,5.9-10.1,5.9-10.1c-1.8,10.5,0,11.6,3.1,5.6c3.4-6.7-0.2-19.9-0.2-19.9s-7-0.9-9.3-0.3
		C308.1,68.7,305.8,63.9,305.8,63.9z"/>
	<path class="st10" d="M258.2,105.6c-1.5,4.4-10.7,4.6-11.8-0.2"/>
	<path class="st11" d="M279.3,60.6c0,0-36,2.3-45-6c-5.1-4.8,10.8-10.7,10.8-10.7s2.7,7.7,5.6,8.4C261.1,55,279.3,60.6,279.3,60.6z"
		/>
	<path class="st12" d="M253.8,53.1c8.2,3-1.5-0.6,25.5,7.5c15.4,4.6,42,15.2,42,15.2s14.4-21.9,8.6-31.8c-5.5-9.3-12.6-15.1-43-15.7
		c-24.1-0.5-40.4,5.5-46.4,14.4C236.1,49.2,251,52.1,253.8,53.1z"/>
	<path class="st11" d="M300.1,29.3c-0.3,1.9-2.3,1.5-4.9,1.1s-4.8-0.8-4.5-2.7c0.3-1.9,2.7-3.1,5.3-2.7
		C298.6,25.5,300.5,27.4,300.1,29.3z"/>
	<path class="st13" d="M254,51.9c0,0,19-8.2,34.3-6.4c27.1,3.2,39.6,13.5,39.6,13.5"/>
	<path class="st14" d="M265.3,120.8c1.1,0,1.1-1.7,0-1.7C264.2,119,264.2,120.8,265.3,120.8z"/>
	<path class="st14" d="M269.6,115.1c1.1,0,1.1-1.7,0-1.7S268.5,115.1,269.6,115.1z"/>
	<path class="st14" d="M274.5,121.5c1.1,0,1.1-1.7,0-1.7C273.3,119.8,273.3,121.5,274.5,121.5z"/>
	<path class="st14" d="M278.6,112.1c1.1,0,1.1-1.7,0-1.7S277.5,112.1,278.6,112.1z"/>
	<path class="st14" d="M283.4,106.9c1.1,0,1.1-1.7,0-1.7S282.3,106.9,283.4,106.9z"/>
	<path class="st14" d="M286.8,115c1.1,0,1.1-1.7,0-1.7C285.7,113.2,285.7,115,286.8,115z"/>
	<path class="st14" d="M296.4,114c1.1,0,1.1-1.7,0-1.7C295.2,112.3,295.2,114,296.4,114z"/>
	<path class="st14" d="M294.1,106.7c1.1,0,1.1-1.7,0-1.7C293,105,293,106.7,294.1,106.7z"/>
	<path class="st14" d="M298.6,99.8c1.1,0,1.1-1.7,0-1.7C297.5,98.1,297.5,99.8,298.6,99.8z"/>
	<path class="st14" d="M301.2,105.8c1.1,0,1.1-1.7,0-1.7C300.1,104,300.1,105.8,301.2,105.8z"/>
	<path class="st14" d="M308.5,98.3c1.1,0,1.1-1.7,0-1.7C307.4,96.6,307.4,98.3,308.5,98.3z"/>
	<path class="st14" d="M260.2,114c1.1,0,1.1-1.7,0-1.7S259.1,114,260.2,114z"/>
	<path class="st14" d="M257.8,121.7c1.1,0,1.1-1.7,0-1.7C256.7,119.9,256.7,121.7,257.8,121.7z"/>
	<path class="st14" d="M251.6,116.1c1.1,0,1.1-1.7,0-1.7C250.5,114.3,250.5,116.1,251.6,116.1z"/>
	<path class="st14" d="M283.8,122.4c1.1,0,1.1-1.7,0-1.7C282.7,120.7,282.7,122.4,283.8,122.4z"/>
	<path class="st14" d="M304.2,112.1c1.1,0,1.1-1.7,0-1.7S303.1,112.1,304.2,112.1z"/>
	<path class="st14" d="M310.2,104.3c1.1,0,1.1-1.7,0-1.7C309.1,102.5,309.1,104.3,310.2,104.3z"/>
</g>
<g>
	<path class="st0" d="M72.8,289.9c-1.4,0.1,0.7,0.4-0.9,0.1C72.1,289.9,72.3,289.8,72.8,289.9z"/>
	<path class="st0" d="M92.5,296.6c-3.6,1-14.1-1-5.5-0.4c0.6,0.1-0.3,0.5,1,0.6c4.7-0.1,12,0.1,17.8,0.3l-0.3,0.2
		c1.1,0.1,2.4-0.6,3.5-0.6c0,0.1-0.4,0.2-0.1,0.3c0.3-0.3,2.1-0.3,2.5-0.6c0.5,0.1,0.4,0.3,1,0.4l0.6-0.4c1.7-1,4.4-0.3,6.9-1
		c-0.1,0.1-0.4,0.2-0.1,0.2c3.9-0.9,8.9-1.4,13.3-2.1c-0.2,0.1-0.3,0.4,0,0.5c0.2-0.4,1.5-0.7,2.7-0.9c0.6,0.3,2-0.6,3.4-0.6
		l-0.1,0.1c1-0.5,1.6,0,2.3-0.6l0.7,0.2c0.4-0.6,1.5,0.1,2.3-0.3v-0.1c0.8-0.2,1.2,0,2-0.2l0.1,0.1c1.7-0.4,2.8-0.2,2.7-0.6
		c0.7,0.3-1.7,0.4-0.6,0.8c2.8-0.6,5.7-1.1,8.6-1.7l4.3-0.8l2.1-0.4c0.6,1-1.2,0.2-1.5,0.3c-0.6-0.3-1-0.5-1.1-0.6
		c-0.6,0-2.2-0.1-2.7,0c0.2,0-0.4-0.2-0.7-0.3c-1.1-0.2-1.2,0.4-2.3,0.2c0.5-0.1,0.6-0.2,0.5-0.4c-1,0.3-2.3,0.2-3.5,0.4
		c0.2-0.1,0.5-0.1,0.4-0.3c-1.3,0.4-2.3-0.1-3.5,0.2l0.4-0.3c-1.8-0.2-0.5,0.5-2.1,0.4c0.4-0.1,0.2-0.2,0.3-0.3
		c-1.4,0.5-3.8,0.4-5.3,0.7c0.1,0,0.1-0.1,0.1-0.1c-1.6,0.1-3.2,0.1-5,0.4c-0.6-0.1,0.2-0.6-1.5-0.4c0.1,0.5-2.8,0.4-1.8,0.9
		c-1.4,0-3.7,0-4.7,0.2c0.6-0.2-0.7-0.6,0.4-0.7l-0.9-0.2c0.1-0.2,0.9,0,0.6-0.2c-0.6,0.1-2.3,0.4-2.9,0.3c-1.1,0.4-2.1,1-3.8,1.2
		c0.8-0.3-0.5-0.5,0-0.6l-2.4,1.1c-0.6,0.1-0.2-0.4-1-0.2c0.1,0.1-0.3,0.2-0.6,0.4c-0.2,0-2.5,0.3-2.8-0.1c-0.3-0.2,1-0.2,0.3-0.3
		c-1.1,0.1-1.1,0.3-2.2,0.4V291c-0.7,0-2.1,0.4-1.3,0.6c0.5,0-0.2-0.3,0.5-0.2c-0.5,0.3-1.8,0.5-2.9,0.6c0.4-0.1,0.3-0.2,0.4-0.4
		c-1.4,0.5-3,0.8-4.6,1c0,0.2,0.6-0.5,0.8-0.4c-2.1-0.1-4.3,0.8-6.1,0.5c0.3-0.1,0.2,0.3,0.2,0.3c-1,0.1-1-0.3-1.7-0.1
		c-0.1-0.2-0.8,0.1-1.5,0.2c-0.3,0.2-0.2-0.1,0.4-0.1c-0.9,0.3-4.9,0.7-7.1,0.3c0,0.1-1.3,0.5-1.9,0.5l0.2-0.3
		c-0.5-0.2-1.7,0-1.8-0.2c-1.1,0.4,4.2-0.3,2.7,0c-0.4-0.3-2,0.5-1.7,0.1c-1,0-2,0.4-3,0.1c0.3,0,0.8-0.4,0-0.4
		c-1.4,0.1-0.4,0.1-1.6,0.3l-0.7,0.1c0,0.3-1.3,0-0.7,0.3c-0.2-0.2-2.1,0.2-2-0.3l0.2-0.4c-0.6,0.1-1,0.4-1.5,0.6
		c-0.1,0-0.3-0.1-0.2-0.2c-0.1,0.6-1.5,0-2.2,0.5c-1.3-0.1-3.3,0.2-3.9-0.1c-0.9,0.3-1.8,0.6-2.9,0.7c0.2-0.1,0.5-0.2,0.5-0.3
		c-0.7,0-0.9,0.1-1.3,0.4c-0.1-0.1-1.1,0.2-0.8-0.6c0.4,0.2,0.6-0.2,0.7-0.4c0.4,0.9,2.2,0.4,3.3,1.1c-0.3,0-1.4,0-0.7,0.3
		c0.8,0.7,1.8-0.1,3.3,0.3l-0.3-0.5c0.6,0.4,2.2,0,2,0.4c0.5-0.1,1.7,0.3,1.6-0.2c2.4,0.6,5.9,0.2,7.3,1.2c0.4-0.1,1.2,0.1,1-0.2
		c-0.6-0.3-0.8,0.1-1-0.1c0.3,0,0.4-0.1,0.4-0.2c0.7,0.2,1.3,0.2,0.6,0.6c1.7,0.4,1.8-0.7,3.9-0.4c-0.1,0.2,0,0.3,0.7,0.3l1.2-0.3
		c1.4,0.2,0.8,0.5,0.8,0.8c0.7,0,1.6,0,2-0.2l0.9,0.5c-0.6-0.3,0.6-0.2,1-0.2l-0.3,0.1c0.1,0.1,1,0.1,1.4,0.1
		c-0.1-0.2-1-0.3-1.4-0.4c0.4-0.1,1-0.1,1.5-0.2c-0.2,0.3,1.2,0.3,1.8,0.4c0.7,0.1,0.8-0.3,1-0.2c0,0.2,1.1,0.1,0.6,0.3
		c-0.2,0-0.5-0.2-0.9-0.1c0.4,0.1,0.4,0.4,1.3,0.3c0.7-0.1-0.1-0.6,1.2-0.4c-0.3,0.1-0.4,0.2-0.7,0.3l1.2,0.2l0.1-0.3
		c0.2,0.1,0,0.1,0.1,0.1c0.4-0.3,1.9,0,2.2-0.3c0.6,0,1.3,0.3,1.9,0.3h-0.1c0.7,0.2,1.7,0.1,2.3,0v0.1c0.4,0,1.3,0,1.8-0.1
		c1,0.3,0.3,1.1,1.4,0.8c1,0,1.6-0.5,1.2-0.7c1.8,0.3,3.9-0.2,5.6,0.3c0.3-0.1,0.1-0.2,0.6-0.2c2.7,0.2,5.6-0.2,7.7,0.3
		c-0.8,0.1,0,0.3,0,0.5c0.6-0.3,0.8,0.3,1-0.2c-0.1-0.3,0-0.4-0.8-0.5c1.6-0.2,4-0.2,4.9,0.1c-0.4-0.1-0.1-0.2,0.2-0.3
		c-0.1,0.4,1.1,0.5,1.9,0.3l0.1-0.3l0.6,0.2c0.3-0.1,0.3-0.6,1.2-0.4c0.1,0.1,0.1,0.2,0.3,0.3c0.9-0.3,2.1-0.7,3.1-0.6l0.8,0.3
		c0.4-0.1,1.1-0.4,0.4-0.4c1.7,0.1,2.8,0.1,3.4,0.3c2.7-1.3,7-1.9,10.1-2.5v0.2c0.8,0,0.5-0.4,0.7-0.4c0,0.2,0.5,0.3,0.3,0.6
		c0,0.1,0.7-0.3,0.1,0.2c-0.5,1.6,0.3,1.6,0,1.7c0.3,0.3-0.1,0.3-0.4,0.3c-0.2,0.2,0.6,0,0.3,0.2c-0.1,0.1-1.3-0.5-1.7-0.1
		c-0.3-0.2,0-0.4,0.2-0.6l-0.8,0.1c-0.9-0.6,2.2-0.5,1.4-1.2l-0.7-0.1c-0.6-0.5,2-0.1,0.2-0.6c-0.8,0-1.6,0.5-0.9,0.8
		c-1.7-0.1-0.9,0.8-2.6,0.6c-0.5-0.3,1.4,0.1,1.1-0.3c-0.8-0.4-1.7,0-2.4-0.2c0.8,0.2,0.1,0.5-0.5,0.6c-0.9-0.3,0.6-0.3-0.7-0.5
		c-0.2,0.2-1.4,0.3-0.4,0.5c-0.5,0.5-1.3-0.2-2.1,0.1c-0.4-0.4,1.4-0.7,0-1c0.2,0.4-1.8,0.3-1.1,0.9c-0.5-0.1-0.6-0.4-0.2-0.6
		c-0.8-0.3-2,0.5-2.2-0.2l-0.3,0.3c-0.2-0.1-0.6-0.2-1-0.4c-0.7-0.1-2.3,0.3-2.2-0.2c-0.2,0-1.8-0.1-1.2,0.3c1,0.3,1.2-0.2,1.7,0.3
		c-0.7-0.4-1.4,0-2,0.1l-0.1-0.2c-0.3,0.1-1.1,0-1.4,0.2c0.3-0.1,0.1-0.2-0.1-0.3l-0.4,0.3c-1.4,0.1-0.3-0.6-1.7-0.6l1-0.2
		c-0.2,0-0.7-0.3-1.3-0.2c-0.3,0.3-0.8,0.6-1,0.8c-0.8,0.1-0.3-0.3-1.1-0.1l1-0.3c0.2-0.1-0.6-0.5-1.7-0.6c-0.7,0.1-1.7,0.4-0.7,0.6
		c-0.5,0-1.2-0.3-0.8-0.4c-1.2,0,0.1,0.3-0.9,0.4c-0.4-0.2-1.7-0.6-2.4-0.9l1.1-0.4l-0.7-0.1c0.9-0.3-0.4-0.3,0.1-0.7
		c-0.5-0.1-1.1,0-1.5,0c1.4,0.8-1.7,0.7-1.3,1.4c-1.9,0-1.1-1.5-3.1-0.7c0.3,0.2-0.6,0.6,0.6,0.5c-1.2-0.1-0.8,0.5-2.2,0.2
		c1-0.2-1.1-0.7,0.4-0.9c-0.1,0.2,0.8,0.2,1.1,0.2c-0.5-0.3,0.1-0.6-1.1-0.7c-0.7,0-1.8,0-1.6,0.3c0,0.3,1.1,0,0.6,0.3
		c-1.5,0-1.7-0.5-2.3,0.1c0.9,0,1.1,0.4,1.1,0.6l-1.1,0.1l0.2-0.2c-1.7-0.2-0.5,0.4-2.2,0.2l-0.8-0.5c0.4-0.4,2.4,0.3,2.2-0.4
		c-1.1-0.1-1.5,0.2-2.5,0l0.8-0.1c-0.4,0-0.7-0.9-2.3-0.5c-0.8,0.2-0.2,0.2-0.3,0.4c-1.8,0-2.3,0.2-3.4,0.2c0.2-0.4-2-0.1-0.7-0.5
		c0.6,0.3,3.1,0.4,3.8,0c-0.6-0.6,1.4,0.1,1.8-0.4c-1.4-0.1-1.3-0.6-1.5-0.9c-0.4,0-0.8,0.1-1,0.1c-0.2,0.3,0.3,0.3,0.3,0.7
		c-1.6-0.2-3.1,0-4,0.3c-0.5-0.2-0.3-0.5,0.3-0.5c-1.9,0-3.9-0.1-5.7-0.2c1.1,0.6-2,0.1-1.2,0.5c1,0.1,1.8,0.6,1.2,0.8
		c-0.6-0.1,0-0.2-0.2-0.4c-0.8,0.3-1.2-0.5-1.9-0.1c1.7-0.1,0.4-0.6,0.7-1c-1.2,0.2,0.1-0.3-1.2-0.3c-1.2,0.2-2.8,0.3-4.1,0.4
		c-1.7-0.4-4.4-0.1-5.9-0.2c-0.8-0.2-0.2-0.7-1.1-0.8c-1,0,0.7,0.5-0.8,0.3l0.1-0.1c-0.5,0.1-2.8-0.4-3.2,0.3l0.5-0.5
		c-0.3-0.1-0.5,0.1-0.8,0.1c0-0.2-0.3-0.3,0.1-0.4c-0.9-0.4-2,0-3,0l0.6,0.3c-1.7,0.2-2.9-0.1-4.6-0.1l0.1-0.3l-1,0.2
		c0.3-0.3-0.7-0.5-1.2-0.3l2.6-0.7c0.7,0.2-0.8,0.3-0.3,0.6c0.4,0.3,1.9,0.2,2.2-0.1c-0.6,0-0.6,0-1.1,0.1c-0.2-0.4,0.7-0.4,1.2-0.6
		c-0.3,0-0.8-0.1-0.8,0c0.6-0.2,1.2-0.2,2.3-0.2c-0.7,0.1,0.4,0.3,0.1,0.4c0.1-0.4,1.1-0.4,2.3-0.3c0.9,0.4,2.4-0.2,3.8-0.1
		c-0.6,0.4-1.4,0.6-2.3,0.7c0.9,0.2,1,0,1.9,0.2c0.5-0.3,0.8-0.7,2-0.8l0.1,0.3c1.1-0.1,1.1-0.5,2.5-0.4c2.4,0.2,4.8,0.3,6.6,0.4
		l0.1,0.3c1-0.5,3.4-0.1,4.7-0.3c2.3,0.3,5-0.1,6.2,0.4c4.1,0,7.6-0.1,11.9,0.2l-0.7,0.3c0.8-0.2,0.5,0.3,1.2,0.2
		c-0.8-0.4,1.1-0.4,1.6-0.5c1.9,0.4,4.3,0.3,6,0.2v0.3c1.7-0.4,3.7,0.2,5.7,0.4c0.2,0.1,0.6,0.4,1.2,0.4c1.2-0.4,1.7-0.3,3.4-0.5
		c1.2,0.1,3.2,0.3,4.4,0.5c4.8-0.2,8.9,0.1,14.5,1.1l0.6,0.7c0.3,0.3,0.6,0.1,0.8,1.3c-0.1,1.4-1,1.9-0.9,1.8l-1.2,0.7l-1.9,0.6
		l-3.8,0.7c-2.5,0.4-4.9,0.7-6.9,1.2l0.3-0.6c-1.3-0.1-2.8,0.4-2.5,0.7c-1.3-0.1-3.1,0.5-3.9,0.1c-1.3,0-1.5,0.4-2.6,0.5
		c-2.6,0-3.5-0.1-5.9,0.1h0.6c0.3-0.1,0.3-0.4-0.3-0.4c-0.9,0.2-3.3-0.1-2.4,0.5c-2.6-0.3-6,0.3-8.5-0.3c0.2,0.2-0.4,0.2-0.7,0.3
		c-2.2-0.1-4.6-0.5-6.4-0.3c-0.3-0.1,0.6-0.3-0.3-0.3c-0.5,0,0,0.2-0.7,0.3c-3.6,0.2-7.3-0.7-10.6-0.7c-5.9,0.1-12-0.4-17.6-0.8
		l0.1-0.1c-1.9,0.4-4.4-0.8-6-0.2c-0.4-0.2-1.7-0.2-1.3-0.4c-1.6,0.1-4.1-0.7-6.7-0.9c0.2,0.1,0.4,0.1,0.7,0.1
		c-1.5-0.7-2.1-0.4-4-2.3c-0.2-5.9,3.1-3.7,3.7-4.5c-0.2,0.1-0.7,0.2-0.7,0.4c1,0,2.2-1,2.8-0.4c0.5-0.1,0.3-0.4,0-0.3
		c5.2-0.4,10.6-0.9,15.9-1.1c3.8,0.4,0.2,1,3.2,0.6c0.2,0.1,0.2-0.2,0.2-0.1c1.2-0.2,1.8,0.7,2.6,0.4c-0.3-0.4,0.5-0.2,0.6-0.4
		c2.1,0.2,2.7,0.5,4.4,0.1l-0.1,0.2c2.1-0.7,4.5-0.6,6.3-1.4c11.7-1.1,22.9-2.4,34.4-3.2c5.7-0.2,11.3-0.5,17.1-0.4
		c1.4,0,3,0.2,4.5,0.3l2.5,0.5h0.2c-0.4-0.1,1.1,0.1-0.9-0.1h0.1h0.4h0.4c0.2,0.1,0.7-0.2,2,0.9c1.5,1.6,0.5,3.6,0.3,3.7
		c-0.5,0.6-0.4,0.4-0.7,0.7c-2,0.9-1.3,0.4-2,0.7c-2.9,0.6-5.7,0.9-8.6,1.3c-2.8-0.1-3-0.1-5.9,0.6c0.1-0.1,0.3-0.1,0.1-0.2
		c-0.1,0.5-2.1,0.3-2.3,0.8c-4.2,0.5-8.1,1.1-12.5,1.7c0.7-0.1,1-0.5,0.2-0.4l-0.8,0.4l-0.2-0.1c-0.6,0.1-1.1,0.4-0.5,0.5
		c-10.9,1.7-21.8,1.9-32.7,2.5c-2.6-0.1-6.3,0.1-9.2,0.1c-2.1-0.3-4.2-0.6-6.5-1.4l-0.4-0.2h-0.1l0,0l0,0c-0.2-1.7,0.4,3.7-0.4-3.7
		c-0.1,0-0.1,0.1-0.1,0.2c-0.1,0.4-0.1,1.1,0.3,1.4c1.1,0.5,1.1-0.4,0.6,0.8c1.4,2.4,0.1,0.7,0.3,1.3l-1.3,0.4c-0.1,0-0.3,0.1-0.1,0
		c-0.2-0.3,0.4,0.7-0.4-0.7c-1.5-2.6,1.2,2.6,1.3-0.3c0.1-3.2-2.7-2.5-2.1-2.5c0.2,0.2-1.2-0.3,0.7,0.4c0.2-0.7,0.1-0.2,0.1-0.3
		l0.5,0.1c0.4,0.1,0.9,0.1,1.4,0.2c4,0.5,7.4,0.4,12.5,0.9C97.4,295.7,95.7,296.5,92.5,296.6z"/>
	<path class="st0" d="M74.4,289.9c0.3,0.2,1.2,0.4,0.5,0.6C74.8,290.3,74.3,290.1,74.4,289.9z"/>
	<path class="st0" d="M99.9,292.8c0-0.1,0.4,0.1,0.4,0.1c-0.3,0-0.6,0.2-0.9,0.1C99.8,293,99.7,292.9,99.9,292.8z"/>
	<path class="st0" d="M106.4,293.1c-0.1,0.2-1.5,0.3-2.3,0.3L106.4,293.1z"/>
	<path class="st0" d="M112.4,294.2c0.5,0.2,0.4,0.3-0.3,0.2C112.1,294.3,112.3,294.3,112.4,294.2z"/>
	<path class="st0" d="M112.9,293.8c0.5,0,0.7,0.1,1,0.3C113.9,293.8,112.7,294.1,112.9,293.8z"/>
	<path class="st0" d="M125.9,295.1c0.3,0,1-0.1,1.3,0.2C126.9,295,125.7,295.3,125.9,295.1z"/>
	<path class="st0" d="M132.1,295.2c0.2,0,0.3,0.1,0.5,0c0.4,0.1,0,0.2-0.3,0.2L132.1,295.2z"/>
	<path class="st0" d="M74.4,295.1h0.7l-0.1,0.2L74.4,295.1z"/>
	<path class="st0" d="M110.3,292.6c0.7-0.2,0.5,0.1,0.6,0.2C110.3,292.8,111.1,292.5,110.3,292.6z"/>
	<path class="st0" d="M136.5,289.6h-0.2v-0.4L136.5,289.6z"/>
	<path class="st15" d="M78.6,266.6c0.6,0.4,1.1,10,0,10.5c-3.7,1.9-19.7,7.2-34.1-4.2c-5.4-4.3-6.9-10.6-7.8-17.3
		c4.5,6.9,8.3,14,24.4,15C64.6,270.9,74.5,268.2,78.6,266.6z"/>
	<path class="st14" d="M141.8,231.3c4.1,6.6,7.5,20.8,9.6,26.6c2.2,6.2,3.7,15.2,6,14.2c7.6-3.2,12.2,7.3,3.1,5.6
		c1.6,0.3,5.5,2.8,4.6,4.7c-1.3,3.2-6.7,0.8-8.1-1c2.3,2.9,3.8,6.2-2,5.4c-4.3-0.6-4.9-5.4-4.9-8.7c-0.3-6.5-9.1-26.5-13-37.3
		C132.9,229.5,139.9,228.2,141.8,231.3z"/>
	<path class="st14" d="M156.7,157.2c-2.1,1.1-6.2,0.7-7.7,0.9c-4.3,0.6-7.6,2.8-8,7.4c-0.4,4-0.2,8.7-0.5,12.9
		c-0.1,1.8,1.7,2.6-0.2,2.9c-0.8,0.1-3.9-0.8-4.8-1.1c-1.9-0.5-2.5-1-3.1-2.9c-1.3-3.9-1.3-10-0.6-14c0.7-4.6,2.7-8.5,7.1-10.6
		c4.1-2,9.1-2.3,13.5-1.4c1.7,0.3,4,0.5,4.9,2.2C158.4,155.5,157.9,156.6,156.7,157.2z"/>
	<path class="st15" d="M144.7,230.3c2.7,9.9,2.9,10.2,3.7,18.1c0.6,5.5,1.2,11,1.3,16.6c0,2.8-0.6,5.8-1.6,8.5
		c-1.3,3.4-3.6,7.1-6.3,9.6c-8,7.3-19.4,5.3-29.9,5.3c1.5,1.8-30.7-5.2-33.2-6.7s-4.4-4.3-5.9-6.9c-2.8-5-2.9-13-2.7-18.6
		c0.5-13.8,5.8-40.5,32.7-62.9c0.4-12,11.1-18.1,13.1-19.8c-3-2.4-8.1-6.6-11.9-6.2c-5.6,0.8-9.7,7.1-16.1,5.4
		c-8.3-2.4-2.1-8.4,2.6-12.1c4.7-3.8,10.9-5.6,16.8-4.2c4.9,1.1,14.7,11.6,15.7,14.2c3.9-0.1,15.5-3.2,30.6,6.3
		c9.5,6,23.1,19.3,26.7,23.5c5.1,5.9,9.6,11.2,12.7,18.6c1.7,4,2.7,7.3-2,9.2c-4.9,2-14.2-1.7-19.1-2.8c-3.9-0.8-16.9-4-20.4-5.1
		C149.9,224.7,147.1,228.6,144.7,230.3z"/>
	<path class="st16" d="M134.6,240.4c2.8,7.3,3.2,21.8,4.2,28c1,6.5,0.6,15.6,3,15.1c8.1-1.6,10.6,9.6,1.9,6.1
		c1.5,0.6,4.8,3.9,3.6,5.5c-1.9,2.9-6.7-0.5-7.8-2.6c1.7,3.3,2.5,6.9-3.1,4.9c-4.1-1.4-3.7-6.2-3.1-9.5c1-6.5-3.7-27.8-5.4-39.2
		C126.2,236.9,133.3,237,134.6,240.4z"/>
	<path class="st16" d="M102.4,291.9c-1.3-2-12.4,0.9-20.4-2.5c-10.8-4.6-12.8-22.5-12.9-28.2c0-7.4,0.6-10.7,2-14
		c4.3-3.7,11-2.1,15.5-0.4c10,3.8,12.2,12.3,10.6,21.9c-0.9,5.4-1.5,9-2.4,14.4c-0.1,0.5,0.4,1,0.9,1c7.7-0.1,11.5-1.2,19.4,1.6
		c2.2,0.8,6.7,2.3,6.1,5.3c-1.2,4.2-5.6,0.6-7-0.1c1.4,1.8,4.9,5.7,0.8,7.4c-3.1,1.2-5.8-3.7-7.2-5.7c1.6,2,2.3,6.8-1.4,7.2
		C103.1,300,103.8,294.1,102.4,291.9z"/>
	<path class="st17" d="M172.1,225.3c1-3.9,4.7-7.9,6.2-10.1c1.2-1.8,3.2-6.8,6.6-10.1c3,3.7,6.8,7.4,8.8,12.2
		c1.7,4,3.6,9.7-1.1,11.6C187.6,230.8,172.9,225.5,172.1,225.3z"/>
	<path class="st18" d="M139.9,178.5c1.1,0,3.7,0.9,3.7,0.9c5.9,2.5,8.1,12,0.3,15.5c-5,2.2-9.7-0.9-11.1-4.7
		C130.8,184.8,134,178.3,139.9,178.5z"/>
	<path class="st17" d="M138.3,186.5c1.4,0.2,1.7,2.8-0.2,2.8C135.8,189.2,136.3,186.2,138.3,186.5z"/>
	<path class="st17" d="M142.3,213.5c0,0-4,0-8-2.6c-4.4-2.9-4.6-5.6-4.6-5.6s-2.3,10.4,2.5,11.9C137,218.6,142.3,213.5,142.3,213.5z
		"/>
</g>
</svg>
