<?xml version="1.0" encoding="utf-8"?>
<!-- Generator: Adobe Illustrator 26.2.1, SVG Export Plug-In . SVG Version: 6.00 Build 0)  -->
<svg version="1.1"
	 id="svg1360" xmlns:inkscape="http://www.inkscape.org/namespaces/inkscape" xmlns:sodipodi="http://sodipodi.sourceforge.net/DTD/sodipodi-0.dtd" xmlns:svg="http://www.w3.org/2000/svg"
	 xmlns="http://www.w3.org/2000/svg" xmlns:xlink="http://www.w3.org/1999/xlink" x="0px" y="0px" width="250"
   height="150" viewBox="0 0 250 150"
	 style="enable-background:new 0 0 250 150;" xml:space="preserve">
<style type="text/css">
	.st0{fill:#ED1C24;}
	.st1{fill-rule:evenodd;clip-rule:evenodd;fill:#FFFFFF;}
	.st2{fill-rule:evenodd;clip-rule:evenodd;fill:#9E9980;}
	.st3{fill-rule:evenodd;clip-rule:evenodd;fill:#2D292A;}
	.st4{fill-rule:evenodd;clip-rule:evenodd;fill:#231F20;}
	.st5{fill-rule:evenodd;clip-rule:evenodd;fill:#D3D2C2;}
	.st6{fill:#7A411B;}
	.st7{fill:#FFFFFF;}
	.st8{fill:#A35625;}
	.st9{fill:#231F20;}
	.st10{fill:none;stroke:#231F20;stroke-width:0.5486;stroke-linecap:round;}
</style>
<sodipodi:namedview  bordercolor="#000000" borderopacity="0.25" id="namedview1362" inkscape:current-layer="svg1360" inkscape:cx="79.864528" inkscape:cy="45.990952" inkscape:deskcolor="#d1d1d1" inkscape:pagecheckerboard="0" inkscape:pageopacity="0.0" inkscape:showpageshadow="2" inkscape:window-height="2066" inkscape:window-maximized="1" inkscape:window-width="3840" inkscape:window-x="-11" inkscape:window-y="-11" inkscape:zoom="3.631149" pagecolor="#ffffff" showgrid="false">
	</sodipodi:namedview>
<g id="g1905" transform="matrix(1.5628052,0,0,1.5282884,-8.3438006,9.9819424)">
	<path id="path576" class="st0" d="M210.8-51.7H9.2v159.5h201.6V-51.7z"/>
	<path id="path578" class="st1" d="M30.8,41.8c0,9.6,1,33.5,1,33.5h64.4c0,0,0.5-23.8,0.5-31.6c0-7.8-0.5-30.5-0.5-30.5
		S69.4,12.9,62,12.9c-8.7,0-30.3,0.3-30.3,0.3S30.8,35.8,30.8,41.8z"/>
	<path id="path580" class="st2" d="M52.9,74.4H51c0,0-0.3-15.5-0.5-23.9c-0.1-6.1,0.2-27.4,0.2-27.4h1.6L52.9,74.4z"/>
	<path id="path582" class="st2" d="M75.5,74.4h-1.5c0,0-0.2-15.5-0.4-23.9c-0.1-6.1,0.1-27.4,0.1-27.4H75L75.5,74.4z"/>
	<path id="path584" class="st2" d="M95.2,58.4v1.6c0,0-18.9,0.2-29.1,0.4c-7.4,0.1-33.4-0.2-33.4-0.2v-1.4L95.2,58.4z"/>
	<path id="path618" class="st1" d="M44.4,12.5l-17,20.1h12.9l16.9-20.1H44.4z"/>
	<path id="path620" class="st3" d="M57.4,12.5l-17,20.1h12.9l16.9-20.1H57.4z"/>
	<path id="path622" class="st1" d="M70.6,12.5L53.4,32.6h13.1l17.2-20.1H70.6z"/>
	<path id="path624" class="st3" d="M83.5,12.5L66.3,32.6h13.1l17.2-20.1H83.5z"/>
	<path id="path626" class="st3" d="M31.4,12.5l-17,20.1h12.9l16.9-20.1H31.4z"/>
	<path id="path628" class="st4" d="M14.4,32.6c0,0.4,0,0.9,0,0.9c0,2.9,2.9,5.3,6.5,5.3c3.6,0,6.5-2.4,6.5-5.3c0,0,0-0.4,0-0.9
		L14.4,32.6z"/>
	<path id="path630" class="st5" d="M27.4,32.6c0,0.4,0,0.9,0,0.9c0,2.9,2.9,5.3,6.5,5.3c3.6,0,6.5-2.4,6.5-5.3c0,0,0-0.4,0-0.9
		L27.4,32.6z"/>
	<path id="path632" class="st4" d="M40.4,32.6c0,0.4,0,0.9,0,0.9c0,2.9,2.9,5.3,6.5,5.3c3.6,0,6.5-2.4,6.5-5.3c0,0,0-0.4,0-0.9
		L40.4,32.6z"/>
	<path id="path634" class="st5" d="M53.4,32.6c0,0.4,0,0.9,0,0.9c0,2.9,2.9,5.3,6.5,5.3c3.6,0,6.5-2.4,6.5-5.3c0,0,0-0.4,0-0.9
		L53.4,32.6z"/>
	<path id="path636" class="st4" d="M66.8,32.6c0,0.4,0,0.9,0,0.9c0,2.9,2.9,5.3,6.5,5.3s6.5-2.4,6.5-5.3c0,0,0-0.4,0-0.9L66.8,32.6z
		"/>
	<path id="path638" class="st2" d="M95.2,40.8v1.6c0,0-18.9,0.2-29.1,0.4c-7.4,0.1-33.4-0.2-33.4-0.2v-1.4L95.2,40.8z"/>
	<path id="path644" class="st2" d="M114.2,49.2c0,12.1,0.7,42.5,0.7,42.5h45.6c0,0,0.3-30.2,0.3-40.1c0-9.8-0.3-38.7-0.3-38.7
		s-18.9-0.5-24.1-0.5c-6.2,0-21.5,0.5-21.5,0.5S114.2,41.6,114.2,49.2L114.2,49.2z"/>
	<path id="path646" class="st4" d="M118.5,51.6c0,11.4,0.6,40.1,0.6,40.1h37.1c0,0,0.3-28.5,0.3-37.8c0-9.3-0.3-36.5-0.3-36.5
		S140.8,17,136.5,17c-5,0-17.5,0.4-17.5,0.4S118.5,44.4,118.5,51.6z"/>
</g>
<g id="g1484" transform="matrix(0.93937838,0,0,1.1150001,15.511375,31.680893)">
	<path id="path1330" class="st6" d="M124.1,30.5c0,0,0-6.7-1.3-11.5c-1.3-4.8-4-9.9-7.4-9.5c-2.9,0.4-1.9,2.9,0.6,6.6
		c2.1,3.1,3.2,4.1,4.1,7.9c0.9,3.8,0.9,6.5,0.9,6.5L124.1,30.5z"/>
	<path id="path1332" class="st7" d="M139.5,29.1c1.6,2.7,0.3,5.3-2.1,6c-2.5,0.7-4.9,0.2-6.3-2.5c-1.1-2.1-0.4-5.2,2-5.9
		C135.5,26,138.3,27.1,139.5,29.1L139.5,29.1z"/>
	<path id="path1334" class="st6" d="M125.7,62c2.4,0.9,6.4,0.6,6.4,0.6s6.5-0.1,7.3,3.2c0.5,1.9-3.8,0.5-3.8,0.5s3.5,2,1.6,3.4
		c-1.9,1.4-3.6-0.6-3.6-0.6s0.8,3-1.9,2.4c-2.8-0.6-3-3.6-3-3.6s-2.7-2-7.6-2.9c-5.2-1-13.8-1-13.8-1l6.7-4.5
		C113.8,59.6,122.4,60.8,125.7,62z"/>
	<path id="path1336" class="st6" d="M65.8,63.9c-9.4,1.2-14.4-0.2-17-0.4c-3.9-0.2-8,0.5-7.8-3.1c0.2-3.6,3.9,0.5,3.9,0.5
		s-2.5-2.6-0.8-4.3c2-2,3.2,2.1,3.2,2.1s-0.8-4.4,1.9-3.8c1.6,0.4,1.7,3.6,1.7,3.6s3.9,1.4,9.9,0c5.2-1.1,11-8,11-8l11.1,7.7
		C82.9,58.3,70.6,63.3,65.8,63.9z"/>
	<path id="path1338" class="st8" d="M108.4,31.7c0,0,10.8-9.2,23.3-3.2c21.9,10.5,29,23.5,26.6,27.1c-2,3.1-14.2,0.3-27.3-0.2
		c-7.3,4.5-14.3,5.8-18.3,4.4c-12.3-0.3-10.3-25.4-10.3-25.4L108.4,31.7z"/>
	<path id="path1340" class="st8" d="M108,31.7c0,0-8.7-4.4-21.8-4.4c-13.1,0-25.2,4.9-27.8,15.4c-2.7,10.5-1.1,24.5,3.3,28.1
		c8.8,7.2,24.9,7.9,37.5,4.6c16.1-4.3,20-21.7,20-21.7L108,31.7z"/>
	<path id="path1342" class="st8" d="M118.4,30.6c0,0-3.2-9.5-9.1-12.5c-5.1-2.6-12.9-4.6-11.8-0.8c1.1,3.8,7.3,3.7,11.5,7.2
		c4.2,3.5,7,7.6,7,7.6L118.4,30.6z"/>
	<path id="path1344" class="st8" d="M122,71.8c2,1.6,5.8,2.4,5.8,2.4s6.2,1.8,5.9,5.1c-0.2,2-3.7-0.6-3.7-0.6s2.7,2.9,0.5,3.7
		c-2.2,0.8-3.2-1.6-3.2-1.6s-0.1,3.1-2.6,1.8c-2.4-1.4-1.8-4.4-1.8-4.4s-1.9-2.6-6.3-5c-4.6-2.4-12.7-4.9-12.7-4.9l7.6-2.4
		C111.5,66,119.3,69.7,122,71.8z"/>
	<path id="path1346" class="st8" d="M57.7,77c-9.5,0.8-14.4-0.2-17-0.4c-3.9-0.2-8,0.5-7.8-3.1c0.2-3.6,3.9,0.6,3.9,0.6
		s-2.5-2.6-0.8-4.3c2-2,3.2,2.1,3.2,2.1s-0.9-4.2,1.9-3.9c1.7,0.2,1.7,3.7,1.7,3.7s3.1,1.3,9.9,0c5.2-1,11-8.1,11-8.1l11.1,7.7
		C74.8,71.3,68,76.1,57.7,77z"/>
	<path id="path1348" class="st8" d="M61.1,39.9c0,0-10.6,0.3-17.6-3.7c-4.1-2.4-5.2-8.6-5-5.7c0.1,2.9,1.4,7,6.4,10.8
		c6.4,4.7,14.4,4.6,14.4,4.6L61.1,39.9z"/>
	<path id="path1350" class="st7" d="M128.8,34.7c1.9,2.8,0.7,5.8-1.9,6.7c-2.6,0.9-5.4,0.6-7.1-2.2c-1.3-2.1-0.5-5.9,2.1-6.8
		C124.5,31.6,127.4,32.6,128.8,34.7z"/>
	<path id="path1352" class="st9" d="M127.9,37.4c0.3,0.5,0.1,1-0.3,1.1c-0.4,0.1-0.8,0.1-1.1-0.4c-0.2-0.4-0.1-1,0.3-1.1
		C127.3,36.9,127.7,37,127.9,37.4z"/>
	<path id="path1354" class="st9" d="M138.4,29.3c0.3,0.5,0.1,1-0.3,1.1c-0.4,0.1-0.8,0.1-1.1-0.4c-0.2-0.4-0.1-1,0.3-1.1
		C137.8,28.8,138.2,29,138.4,29.3z"/>
	<path id="path1356" class="st9" d="M147.5,57.1c0,0,0.6-3.8,2.5-7.7c1.6-3.2,3.7-6,3.7-6s11.4,11.9,6.1,13.7
		C154.7,58.9,147.5,57.1,147.5,57.1z"/>
	<path id="path1358" class="st10" d="M117.6,48.3c0,0-0.1,1.5,2.1,2.8c1.5,0.9,3.5,0.1,3.5,0.1"/>
</g>
</svg>
