<?xml version="1.0" encoding="UTF-8" standalone="no"?>
<!-- Generator: Adobe Illustrator 27.0.0, SVG Export Plug-In . SVG Version: 6.00 Build 0)  -->

<svg
   version="1.1"
   id="Capa_1"
   x="0px"
   y="0px"
   viewBox="0 0 355 238"
   xml:space="preserve"
   sodipodi:docname="zorrito.svg"
   width="355"
   height="238"
   inkscape:version="1.2.1 (9c6d41e410, 2022-07-14)"
   xmlns:inkscape="http://www.inkscape.org/namespaces/inkscape"
   xmlns:sodipodi="http://sodipodi.sourceforge.net/DTD/sodipodi-0.dtd"
   xmlns="http://www.w3.org/2000/svg"
   xmlns:svg="http://www.w3.org/2000/svg"><defs
   id="defs733" /><sodipodi:namedview
   id="namedview731"
   pagecolor="#ffffff"
   bordercolor="#000000"
   borderopacity="0.25"
   inkscape:showpageshadow="2"
   inkscape:pageopacity="0.0"
   inkscape:pagecheckerboard="0"
   inkscape:deskcolor="#d1d1d1"
   showgrid="false"
   inkscape:zoom="2.9016787"
   inkscape:cx="172.65868"
   inkscape:cy="137.67892"
   inkscape:window-width="1920"
   inkscape:window-height="1018"
   inkscape:window-x="-8"
   inkscape:window-y="-8"
   inkscape:window-maximized="1"
   inkscape:current-layer="Layer_2-5" />
<style
   type="text/css"
   id="style684">
	.st0{fill:#FFFFFF;}
	.st1{fill:#F7941E;}
	.st2{fill-rule:evenodd;clip-rule:evenodd;fill:#F7941E;}
	.st3{fill:#48484A;}
	.st4{fill:none;stroke:#000000;stroke-width:1.01;stroke-linecap:round;}
	.st5{fill:#E1D7D7;}
	.st6{fill:#ED1C24;}
	.st7{fill:#00A5A5;}
</style>

<path
   class="st7"
   d="M 288.77875,2.1687604 H 45.590935 C 22.33802,2.1687604 3.4943939,19.721426 3.4943939,41.3813 v 0 c 0,21.659874 18.8468001,38.828363 42.0965411,39.212539 l 166.850955,2.757025 c 13.07162,13.865877 -13.62713,45.429956 -13.62713,45.429956 0,0 30.32688,-14.55311 39.56206,-33.148751 1.9703,-3.961678 2.76016,-8.392292 2.9945,-12.281205 l 47.39875,-2.757025 C 311.98375,79.243578 330.86662,63.041174 330.86662,41.3813 v 0 C 330.87529,19.721426 312.02299,2.1687604 288.77875,2.1687604 Z"
   id="path728"
   style="stroke-width:0.83771"
   sodipodi:nodetypes="sssssccccssss" />
<g
   id="Layer_2-5"
   data-name="Layer 2"
   transform="matrix(0.6571671,0,0,0.62897544,147.82132,125.01625)"><g
     id="Layer_1-2-2"
     data-name="Layer 1"
     transform="translate(34.611371)"><path
       d="M 136.91,275.87 152.54,274.39 143.46,0 125.52,1.23 Z"
       id="path347" /><path
       class="cls-1"
       d="m 266.1,17.72 9.84,7.15 -267.49,67.18 -7,-10 L 0,25.67 Z"
       id="path349"
       style="fill:#ba2026" /><path
       class="cls-2"
       d="m 275.94,25.5 0.5,59.49 L 9.13,92.06 9.52,34.11 Z"
       id="path351"
       style="fill:#ed1c24" /></g><g
     id="Layer_2"
     transform="matrix(1.4748587,0,0,1.4673874,-249.17277,-242.96098)"
     style="display:inline">
	<g
   id="Layer_1-2">
		<path
   class="st0"
   d="m 142.47,141.11 c 1.9,3.06 6.87,3.26 10.24,1.31 2.63,-1.52 3.81,-6.32 -0.19,-9.54 -2.46,-2.09 -6.02,-2.27 -8.67,-0.43 -2.63,1.47 -3.31,5.4 -1.38,8.66 z"
   id="path686" />
		<path
   d="m 149.19,136.05 c 0.26,0.61 -0.02,1.31 -0.63,1.58 -0.47,0.2 -1.03,0.08 -1.37,-0.31 -0.44,-0.5 -0.4,-1.25 0.1,-1.69 0.5,-0.44 1.25,-0.4 1.69,0.1 0.09,0.09 0.16,0.2 0.21,0.32 z"
   id="path688" />
		<path
   class="st1"
   d="m 128,229.87 13.59,0.32 c 3.77,0.15 7.44,1.23 10.68,3.15 1.28,1.08 3.72,6.61 6.2,5.11 1.61,-0.88 0.58,-4.55 0.58,-4.55 0,0 2.83,0.84 4.61,-0.07 2.5,-1.34 -2.61,-4.54 -2.61,-4.54 0,0 7.34,1.11 6.65,-3.41 -0.4,-2.65 -5.21,-3.83 -14.35,-2.11 -8.82,1.66 -24.06,-3.19 -24.06,-3.19"
   id="path690" />
		<path
   class="st1"
   d="m 91.75,224.24 -12.88,4.36 c -5,1.72 -8.61,3.07 -9.51,4.48 -0.9,1.41 -1.32,9.13 -4.11,8.6 -1.81,-0.36 -1.91,-4.17 -1.91,-4.17 0,0 -2.46,1.65 -4.42,1.31 -2.79,-0.53 1.13,-5.11 1.13,-5.11 0,0 -6.67,3.25 -7.36,-1.27 -0.41,-2.65 3.82,-5.21 13.08,-6.15 8.92,-1 22,-10.22 22,-10.22"
   id="path692" />
		<path
   class="st2"
   d="m 123.52,135.98 c -7.59,1.71 -14.95,4.33 -21.91,7.81 -2.58,-3.11 -5.37,-6.04 -8.35,-8.77 C 86.78,130.11 74,122.81 74,122.81 c 0.22,3.84 0.8,7.64 1.74,11.37 1.45,5.36 6.08,19 6.08,19 0,0 0.36,6.48 0.67,8.51 0.8,4.18 0.45,5 0.45,5 0,0 -14.11,9.7 -11.94,9.52 4.43,-0.2 11.14,-0.1 11.14,-0.1 0,0 -11.25,9.85 -5.87,8.55 8.32,-1.91 10.46,0.63 10.46,0.63 0,0 -5.35,4.65 -6.24,9.25 -0.48,2.49 0,2 1.2,0.79 1.15,-1.31 2.58,-2.34 4.19,-3 1.45,-0.52 2.92,-0.95 4.42,-1.31 0,0 5,9.76 1.52,16.19 -17.82,33.3 -6.65,67.12 -6.65,67.12 0,0 34.37,-4.74 44.85,-5.06 -0.89,-13.1 -1.52,-41.23 9.27,-65.53 6.22,-13.72 26.39,-23.89 40.84,-31.17 4.28,-2.03 8.45,-4.3 12.48,-6.79 10.53,-7.19 14.79,-11.67 14.12,-16 -0.67,-4.33 -20.51,-6 -26.59,-6.15 h -0.76 c -5,-0.13 -22.66,-0.59 -29.32,-2.88 -8.9,-3 -21,-6.09 -26.54,-4.77 z"
   id="path694" />
		<path
   class="st0"
   d="m 141.4,202.94 c -11.33,23.9 -11.88,45.35 -9.12,65.51 -6,1.08 -13.3,1.55 -19.15,2.92 -1,-3.67 -0.72,-7.86 -1.32,-11.76 -5.81,-38.34 6.11,-61.21 34.87,-73.26 2.55,-1 17.13,-6.76 19.69,-6.68 -10.1,5.85 -21,14.85 -24.97,23.27 z"
   id="path696" />
		<path
   class="st1"
   d="m 125.67,136.45 c 0,0 -7.13,-7 -10.89,-10.78 -3.76,-3.78 -13.97,-12.21 -14.34,-11.56 -0.37,0.65 -1.6,5.19 0.12,12.26 1.72,7.07 4.67,16 4.67,16 z"
   id="path698" />
		<path
   class="st0"
   d="m 96,147.84 c 0,0 -13,-10.45 -13.12,-8.84 -0.12,1.61 2.12,13.87 2.12,13.87 0,0 4.07,-2.54 5.6,-2.93 1.49,-0.71 5.4,-2.1 5.4,-2.1 z"
   id="path700" />
		<path
   class="st0"
   d="m 107.63,127.88 c -1,-0.32 -1,1 -0.77,3.31 0.36,2.34 1.31,8.57 1.31,8.57 l 8.41,-3.36 c 0.03,0.16 -7.94,-8.19 -8.95,-8.52 z"
   id="path702" />
		<path
   class="st0"
   d="m 118,154.85 c 0.79,5.14 6.78,10 12.86,9 4.51,-0.69 8.91,-6.3 5.22,-12.76 -3.29,-5.87 -7.22,-6.55 -11.79,-5.21 -4.57,1.34 -7.11,3.83 -6.29,8.97 z"
   id="path704" />
		<path
   d="m 126.42,155.95 c 0.17,0.8 -0.34,1.6 -1.14,1.77 -0.06,0.01 -0.12,0.02 -0.18,0.03 -0.86,0.17 -1.69,-0.38 -1.86,-1.24 -0.17,-0.86 0.38,-1.69 1.24,-1.86 0.05,-0.01 0.09,-0.02 0.14,-0.02 0.81,-0.17 1.61,0.35 1.78,1.16 0.01,0.05 0.01,0.11 0.02,0.16 z"
   id="path706" />
		<path
   d="m 119.74,257.28 c 0,0 -3.54,-27.36 -14.19,-38.66 -4.36,-4.59 -17.82,-7.16 -17.82,-7.16 l 1.33,-2.76 c 0,0 12.31,1.31 20.85,9.26 9.11,8.5 15.26,38.34 15.26,38.34 l -5.45,0.83 z"
   id="path708" />
		<path
   class="st3"
   d="m 125.69,259.72 -5.45,0.84 -0.57,-3.74 5.61,-0.86 z"
   id="path710" />
		<path
   class="st4"
   d="m 145.05,174.64 c 0,0 0.7,7.71 -3.56,8 -4.26,0.29 -5.8,-7.73 -5.8,-7.73"
   id="path712" />
		<path
   class="st5"
   d="m 57.21,168.11 c 0,0 -34.36,-41.31 -36.13,-38.33 -3.58,5.81 5.67,51.76 5.67,51.76 0,0 11.05,16 22.11,10.18 10.86,-6.13 8.35,-23.61 8.35,-23.61 z"
   id="path714" />
		<path
   class="st6"
   d="m 57.2,168.11 c 0,0 -0.18,8.16 -3.92,8.73 -3.43,0.52 -6.08,-4.33 -6.08,-4.33 0,0 0.52,7.57 -2.45,9 -3.86,1.87 -8.51,-4.6 -8.51,-4.6 0,0 1.14,7.48 -2.73,8.23 -4,0.62 -6.92,-3.57 -6.92,-3.57 l 40.46,86.48 21.88,-11.15 z"
   id="path716" />
		<path
   d="m 89.09,256.86 c 0,0 2,10.71 -7.83,15.55 -9.83,4.84 -13.92,-4.57 -13.92,-4.57 z"
   id="path718" />
		<path
   class="st6"
   d="m 39.54,147.37 c -3.63,2.74 -7.77,4.72 -12.17,5.85 -1.74,0.42 -3.51,0.69 -5.3,0.81 -1.51,-10.92 -3.01,-22.83 -1.34,-25.48 0.72,-1.54 10.14,8.98 18.81,18.82 z"
   id="path720" />
		<path
   class="st1"
   d="m 49.17,230.26 c -0.22,2.75 -0.1,7.68 2,9.1 1.25,0.93 8.5,3.49 9.49,0.63 0.54,-1.68 -2.64,-3.75 -2.64,-3.75 0,0 2.66,-1.36 3.33,-3.22 1,-2.7 -5,-1.46 -5,-1.46 0,0 6.06,-4.12 2.58,-7.1 -2.12,-1.58 -4.37,-1.72 -9.76,5.8 z"
   id="path722" />
		<path
   d="m 200.94,145.21 c 6.49,0.76 15.55,1.61 11.21,6.58 -5.31,5.92 -15.8,11.32 -15.8,11.32 0,0 -7.55,-14 -6.69,-18.76 0,0.03 8.85,0.59 11.28,0.86 z"
   id="path724" />
	</g>
</g></g></svg>
