<svg width="546" height="245" viewBox="0 0 546 245" fill="none" xmlns="http://www.w3.org/2000/svg">
<path d="M56.4826 183.005L315.117 183.005C306.296 166.097 301.241 146.912 301.241 126.522C301.241 106.132 306.296 86.9462 315.117 70.0391L56.4826 70.0391C25.2853 70.0391 -0.000129063 95.3245 -0.000129063 126.522C-0.000129063 157.719 25.2853 183.005 56.4826 183.005Z" fill="#2E61F6"/>
<path d="M423.588 0C356 0 301.209 54.7911 301.209 122.379C301.209 189.968 356 244.759 423.588 244.759C491.177 244.759 545.968 189.968 545.968 122.379C545.968 54.7911 491.177 0 423.588 0Z" fill="#F1F1F1"/>
<path d="M472.731 117.742C476.525 120.087 476.524 125.604 472.731 127.949L405.391 169.58C401.394 172.051 396.236 169.176 396.236 164.476V81.214C396.236 76.5145 401.394 73.6393 405.391 76.1105L472.731 117.742Z" fill="#2E61F6"/>
</svg>
