<svg width="546" height="245" viewBox="0 0 546 245" fill="none" xmlns="http://www.w3.org/2000/svg">
<path d="M224.743 69.8793H487.387C517.98 69.8793 542.5 93.5303 542.5 122.379C542.5 151.228 517.98 174.879 487.387 174.879H224.743C232.507 158.924 236.899 141.154 236.899 122.379C236.899 103.605 232.507 85.8341 224.743 69.8793Z" fill="#AAAAAA" stroke="#D2D2D2" stroke-width="7"/>
<path d="M122.379 244.759C189.968 244.759 244.759 189.968 244.759 122.379C244.759 54.7911 189.968 0 122.379 0C54.7911 0 0 54.7911 0 122.379C0 189.968 54.7911 244.759 122.379 244.759Z" fill="#D2D2D2"/>
<path d="M170.745 121.776C174.538 124.121 174.538 129.638 170.745 131.983L103.405 173.614C99.4078 176.085 94.25 173.21 94.25 168.51V85.2481C94.25 80.5487 99.4078 77.6735 103.405 80.1447L170.745 121.776Z" fill="#888888"/>
</svg>
