<?xml version="1.0" encoding="utf-8"?>
<!-- Generator: Adobe Illustrator 15.1.0, SVG Export Plug-In . SVG Version: 6.00 Build 0)  -->
<!DOCTYPE svg PUBLIC "-//W3C//DTD SVG 1.1//EN" "http://www.w3.org/Graphics/SVG/1.1/DTD/svg11.dtd">
<svg version="1.1" id="Layer_1" xmlns="http://www.w3.org/2000/svg" xmlns:xlink="http://www.w3.org/1999/xlink" x="0px" y="0px"
	 width="841.889px" height="595.281px" viewBox="0 0 841.889 595.281" enable-background="new 0 0 841.889 595.281"
	 xml:space="preserve">
<g>
	<g id="XMLID_2_">
		<g id="Shape_1_copy_2_1_">
			<g id="XMLID_583_">
				<path id="XMLID_584_" fill="#FFFFFF" d="M357.482,292.854c32.48-30.074,9.623-58.944-15.639-73.38
					c-26.464-14.435-61.35-16.84-93.83-7.217c-9.623,4.812-19.247,8.42-31.276,13.232c13.231-8.42,22.855-22.855,40.899-28.871
					c31.277-10.826,87.814-10.826,74.583-57.741c-16.841-58.944-110.672-13.232-152.775,15.638c0,0,0-1.203-1.203-1.203
					c4.812-6.015,8.42-15.638,16.841-24.059c25.262-26.464,63.756-37.292,21.654-83.003
					c-46.916-26.465-99.845,58.943-114.279,87.815c0-9.624,1.203-25.262,6.014-40.901c6.015-24.058,15.639-48.117,2.408-62.553
					C69.978-16.302,36.296,52.266,31.483,81.137c-6.013,38.494-9.624,80.597-6.013,120.294c4.811,40.9,18.044,49.321,24.059,80.597
					c1.204,40.901,1.204,80.596,2.406,121.499C44.717,429.99,6.223,454.05,9.831,481.718c1.203,16.842,49.321,57.74,57.742,63.756
					c26.465,16.841,89.018,57.739,110.67,24.058c21.654-33.684,24.059-33.684,45.711-64.96
					c45.713-22.854,110.671-22.854,153.978-58.941c43.305-36.093,43.305-117.89,28.869-139.542
					C389.963,282.028,375.527,286.84,357.482,292.854z M350.264,337.363c-1.203,15.64-18.043,57.743-55.334,67.365
					c-42.103,10.825-91.424-54.131-57.742-96.234c21.652-26.465,55.335-37.292,73.379-25.263
					c19.249,13.232,28.872,15.638,42.103,13.232C341.844,313.304,350.264,321.725,350.264,337.363z M790.541,401.118
					c1.202-40.898,1.202-80.597,2.405-121.496c7.218-31.276,19.248-39.697,25.263-80.597c4.812-40.901,1.202-81.8-4.812-120.295
					c-4.813-30.074-39.698-97.438-80.599-50.523c-10.826,14.436-2.405,38.494,2.407,62.553c4.811,15.638,6.013,31.277,6.013,40.9
					c-15.636-28.87-67.362-115.482-114.279-87.814c-42.103,46.915-4.811,55.336,21.653,83.003
					c7.219,8.42,10.827,19.248,16.843,24.059c0,0,0,1.203-1.202,1.203c-42.104-28.871-137.138-74.583-153.979-15.639
					c-13.23,46.916,43.307,46.916,74.583,57.742c18.045,7.218,30.073,19.247,40.899,28.87c-9.623-4.812-21.651-8.42-31.276-13.232
					c-32.479-8.42-67.365-7.217-93.829,7.218c-25.262,14.435-49.322,43.306-15.639,73.379c-18.045-6.015-32.48-9.624-48.116,13.231
					c-15.64,22.855-15.64,103.453,28.869,139.541c43.306,37.292,109.469,37.292,153.978,58.945
					c21.651,31.276,24.059,31.276,45.712,64.96c21.651,33.682,83.001-7.217,110.671-24.058c9.624-6.016,56.538-46.918,57.74-63.759
					C836.252,452.845,798.961,428.79,790.541,401.118z M547.546,404.728c-37.291-9.622-55.335-52.93-55.335-67.365
					c0-15.638,7.218-24.059-2.405-42.102c13.231,4.812,22.854,0,42.103-13.233c19.248-13.232,54.133-1.203,73.38,25.261
					C638.97,349.393,590.853,414.353,547.546,404.728z"/>
			</g>
		</g>
	</g>
</g>
</svg>
