<?xml version="1.0" encoding="utf-8"?>
<!-- Generator: Adobe Illustrator 15.1.0, SVG Export Plug-In . SVG Version: 6.00 Build 0)  -->
<!DOCTYPE svg PUBLIC "-//W3C//DTD SVG 1.1//EN" "http://www.w3.org/Graphics/SVG/1.1/DTD/svg11.dtd">
<svg version="1.1" id="Capa_1" xmlns="http://www.w3.org/2000/svg" xmlns:xlink="http://www.w3.org/1999/xlink" x="0px" y="0px"
	 width="841.891px" height="595.281px" viewBox="0 0 841.891 595.281" enable-background="new 0 0 841.891 595.281"
	 xml:space="preserve">
<g>
	<path fill="#FFFFFF" d="M586.17,298.071c0-45.76-12.369-89.048-35.867-127.387c-8.656-14.842-24.736-21.027-38.341-12.369
		c-8.286,5.274-12.418,13.307-12.165,22.132c-0.316,6.419,1.644,13.406,5.984,19.917c2.47,4.949,6.184,8.659,7.42,13.606
		c16.781,36.479,23.22,72.528,18.581,108.148c-3.622,23.923-12.276,47.65-26.005,71.188c-3.804,7.067-5.455,14.131-4.963,20.671
		c-0.592,10.485,3.513,19.016,12.385,23.852c13.603,7.422,29.683,2.473,38.339-13.604c8.158-14.049,14.972-28.771,20.349-43.964
		C581.193,355.13,586.17,327.847,586.17,298.071z"/>
	<path fill="#FFFFFF" d="M737.056,86.583c-13.604-22.262-28.445-44.524-43.288-65.55c-4.996-7.854-13.289-11.562-21.549-11.649
		c-6.196-0.229-12.59,1.66-18.03,5.466c-12.367,8.657-13.602,24.734-4.947,38.339c2.473,2.474,6.185,6.185,7.421,8.656
		c86.574,122.442,102.651,251.067,49.471,388.349c-3.802,11.41-8.637,22.522-14.215,33.356
		c-5.909,11.089-12.324,21.728-19.157,32.227c-6.242,9.296-12.906,18.355-19.809,27.176c-9.896,14.839-8.657,30.919,4.948,39.577
		c1.726,0.94,3.492,1.717,5.274,2.342c11.661,5.639,25.453,2.403,34.303-9.766c58.707-79.076,89.561-167.438,92.553-268.457
		c0.097-3.26,0.166-6.53,0.203-9.815C789.002,223.863,774.158,152.13,737.056,86.583z"/>
	<path fill="#FFFFFF" d="M458.782,150.895c0-38.34,0-76.679,0-115.02c0-12.368-4.947-21.025-14.842-24.736
		c-9.894-4.947-21.021-2.473-29.681,4.947c-1.238,1.235-2.474,1.235-2.474,2.474c-55.656,46.996-111.307,96.467-166.965,143.465
		c-2.47,2.473-8.654,6.183-14.84,6.183c-50.708,0-100.18,0-150.885,0c-11.561,0-19.76,2.699-24.998,8.383
		c-5.692,5.236-8.395,13.439-8.395,25.01c0,65.55,0,128.623,0,194.175c0,22.258,8.657,32.157,32.155,32.157
		c49.473,0,97.705,0,147.177,0c6.181,0,11.132,1.233,16.079,6.184c13.605,12.365,28.444,23.497,42.049,35.864
		c43.292,37.104,85.338,74.206,128.625,111.31c14.959,12.82,34.525,9.941,42.763-4.635c1.791-2.592,3.241-5.585,4.234-8.973
		c1.239-4.946,1.239-8.653,1.239-13.599c-1.239-84.104-1.239-169.436-1.239-256.013
		C458.782,248.599,458.782,200.364,458.782,150.895z"/>
	<path fill="#FFFFFF" d="M684.655,232.405c-3.682-19.904-8.875-39.58-15.62-59.25c-12.367-29.684-27.209-58.129-45.76-84.102
		c-6.206-7.092-14.948-10.981-23.052-10.352c-4.495-0.353-9.272,0.543-14.054,2.935c-11.133,6.183-16.077,18.552-13.604,30.919
		c1.234,4.946,6.185,9.895,8.655,14.841c44.524,63.076,60.601,132.335,51.945,207.778c-6.185,50.707-23.5,93.993-53.181,136.047
		c-8.656,14.835-7.42,30.919,6.184,39.572c4.644,3.611,10.359,5.04,16.164,4.528c10.072,1.847,19.912-2.372,27.123-13.189
		c38.339-56.887,60.6-123.674,61.837-196.645C691.974,280.349,690.021,256.332,684.655,232.405z"/>
</g>
</svg>
