<svg width="22" height="24" viewBox="0 0 22 24" fill="none" xmlns="http://www.w3.org/2000/svg">
<path d="M8.78416 22.6913V15.6027L2.7316 19.1841C2.33509 19.5039 1.85416 19.3427 1.61626 18.9488L0.419044 16.7155C0.183695 16.3165 0.262997 15.8406 0.738811 15.6027L6.79649 12.2592L0.738811 8.75204C0.262997 8.51157 0.183695 8.03577 0.419044 7.6367L1.61626 5.40344C1.85416 5.00949 2.33509 4.84832 2.7316 5.16809L8.78416 8.83136V1.66089C8.78416 1.17996 9.10392 0.867859 9.58229 0.867859H11.9716C12.4525 0.867859 12.7672 1.18252 12.7672 1.66089L12.6853 8.83136L18.8223 5.16809C19.2188 4.84832 19.6972 5.00949 19.9351 5.40344L21.1297 7.6367C21.3702 8.03577 21.2909 8.51157 20.81 8.75204L14.76 12.2592L20.81 15.6027C21.2909 15.8406 21.3702 16.3165 21.1297 16.7155L19.9351 18.9488C19.6972 19.3427 19.2188 19.5039 18.8223 19.1841L12.6853 15.6027L12.7672 22.6913C12.7672 23.1672 12.4525 23.4869 11.9716 23.4869H9.58229C9.10392 23.4869 8.78416 23.1672 8.78416 22.6913Z" fill="#2BB673"/>
</svg>
