<svg xmlns="http://www.w3.org/2000/svg" viewBox="0 0 130 126.86"><defs><style>.cls-1{fill:#ffb300;}.cls-2{fill:#6a2403;}.cls-3{fill:#9b3403;}.cls-4{fill:#d0b208;}</style></defs><title>banana</title><g id="Layer_2" data-name="Layer 2"><g id="Layer_1-2" data-name="Layer 1"><path class="cls-1" d="M22.75,7.13s-3.7,35.2,15,56.5c14.87,16.9,29.11,23.56,46,21.29s40.76-11.44,44.06-2.29-13.92,39.16-47.67,43.28-56.33-5-71.28-32.5c-20.2-37.18.43-66.69.43-66.69L13.77,2.47s.93-3.28,5.44-2S22.75,7.13,22.75,7.13Z"/><path class="cls-2" d="M19.81,56.62C23.3,66.41,31.28,84.23,53.3,94.37c7.15,3.3,18.43,7.23,27,7.74,17.71,1.06,31.18-4.16,24.48-1-9.46,4.41-32,12.16-59.64-4.07C34.47,90.75,24.71,76.92,19.69,66.37S19,54.33,19.81,56.62Z"/><path class="cls-3" d="M24.53,90.19A36.29,36.29,0,0,0,45.42,108.1c11.29,3.77,23.12,2.89,20.77,6s-14.1,2.26-20.83-.27c-9.1-3.42-12.81-8.47-18.69-14.9C22.09,93.89,23.76,88.54,24.53,90.19Z"/><path class="cls-2" d="M130,84.76c-.05,3.7-.73,7.28-3.47,7.24s-7.18-1.31-7.13-5,.51-8.08,3.25-8S130.05,81.05,130,84.76Z"/><path class="cls-4" d="M13.79,1.51C13.91.51,15.3,0,17.5,0,20,0,23.31,2.08,22.84,5.75,22.6,7.53,19.9,6.82,17.76,6S13.61,3.05,13.79,1.51Z"/></g></g></svg>