<svg xmlns="http://www.w3.org/2000/svg" xmlns:xlink="http://www.w3.org/1999/xlink" viewBox="0 0 256.49 115.87"><defs><style>.cls-1{fill:#fff;}.cls-2,.cls-8{fill:none;}.cls-3{clip-path:url(#clip-path);}.cls-4{fill:#bc0003;}.cls-5{fill:red;}.cls-6{clip-path:url(#clip-path-2);}.cls-7{mask:url(#mask);}.cls-8{stroke:#000;stroke-width:0.8px;}</style><clipPath id="clip-path"><path class="cls-2" d="M190.42,57.59s16.13,2.14,21.26-2.21a35.07,35.07,0,0,0,8-10.7l4.38,4.89s-1.8,8.75-8.73,13.13c-8.32,5.25-22.14,3.93-22.14,3.93Z"/></clipPath><clipPath id="clip-path-2"><path class="cls-2" d="M71.73,55.63S55.56,57.54,50.5,53.11a35.21,35.21,0,0,1-7.88-10.82L38.17,47.1s1.67,8.79,8.54,13.27c8.23,5.38,22.07,4.27,22.07,4.27Z"/></clipPath><mask id="mask" x="112.65" y="59.48" width="34.07" height="23.41" maskUnits="userSpaceOnUse"><g id="mask2"><path class="cls-1" d="M112.65,60s6.69,8.35,17,8.17c9.93-.17,17-8.72,17-8.72s-1.85,22.9-16.24,22.9C114.43,82.38,112.65,60,112.65,60Z"/></g></mask></defs><title>crab</title><g id="Layer_2" data-name="Layer 2"><g id="Layer_1-2" data-name="Layer 1"><g class="cls-3"><path class="cls-4" d="M190.42,57.59s16.13,2.14,21.26-2.21a35.07,35.07,0,0,0,8-10.7l4.38,4.89s-1.8,8.75-8.73,13.13c-8.32,5.25-22.14,3.93-22.14,3.93Z"/><path class="cls-5" d="M222.15,57.82s-2.22,0-5.48-4-4.54-5.36-4.54-5.36l-3.44,3.89s5.46,9.16,8.43,10.6S222.15,57.82,222.15,57.82Z"/><path class="cls-5" d="M209.5,67.48s-2.07-.82-3.74-5.65-2.36-6.61-2.36-6.61l-4.59,2.43s1.89,10.5,4.16,12.89S209.5,67.48,209.5,67.48Z"/></g><path class="cls-5" d="M219.18,41.83l4.34,8s-7.37-.28-12.63-8.35c-3.92-6-5.38-15.83-.72-24.92C218,1.28,237.6,8.15,237.6,8.15L230.49,13l3.19,7.23L227,22.69l3,6.85-7.76,2.05,3,8.08Z"/><path class="cls-5" d="M227.1,46.79,218,47s3.93,6.24,13.56,6.75c7.17.39,16.43-3.25,22-11.83C262.86,27.55,247.1,14,247.1,14l-.65,8.57-7.86.86,1.18,7-7.45.8L234.41,39,225.9,40.4Z"/><path class="cls-4" d="M63.77,73.93c-5.16,1.85-9.79,4.4-17.35,11.48-5.87,5.51-2.48,8.7,3.55,5,5.44-3.33,6.6-5.52,13-8.42,3.6-1.64,9.49-2.13,9.49-2.13l-1.64-7.07A24.19,24.19,0,0,0,63.77,73.93Z"/><path class="cls-4" d="M198.64,72.82c5.43.68,15.21,5.54,23.86,16,5.14,6.2,2.49,8.7-3.55,5-5.44-3.33-11.59-10.37-18-13.27a10.82,10.82,0,0,0-7.15-.49l1.5-7.19A32.48,32.48,0,0,1,198.64,72.82Z"/><path class="cls-4" d="M193.11,83.45a28.63,28.63,0,0,1,9.51,5.83c5.25,5.09,11,15,8.9,17.64s-7.23-5.82-11-10-11.44-7.43-11.44-7.43Z"/><path class="cls-4" d="M182.68,93.22a55,55,0,0,1,6.44,6.07c4.09,4.56,8.12,13.83,6.51,16.14s-5.65-5.21-8.57-8.92-8.22-8.94-8.22-8.94Z"/><path class="cls-4" d="M72.38,83.45a28.63,28.63,0,0,0-9.51,5.83c-5.25,5.09-11,15-8.9,17.64s7.23-5.83,11-10,11.44-7.43,11.44-7.43Z"/><path class="cls-4" d="M82.81,93.22a54,54,0,0,0-6.44,6.07c-4.09,4.56-8.13,13.83-6.51,16.14s5.65-5.21,8.57-8.92,8.22-8.94,8.22-8.94Z"/><path class="cls-5" d="M127.6,36.27c25.2-.83,39.85,3.61,57.7,15.46,15.54,10.32,14.11,31.77-3.07,44.19C167.74,106.39,143.78,109,106,103.71,69.61,98.59,66.66,80,67,69.25S73.27,38.07,127.6,36.27Z"/><path class="cls-5" d="M116,16.4c0,9.61-6.81,15.07-16.43,15.07S83.17,25,83.17,15.41,91,0,100.59,0,116,6.79,116,16.4Z"/><path class="cls-1" d="M110.6,16.18c0,6.44-4.56,10.1-11,10.1s-11-4.33-11-10.77S93.82,5.2,100.26,5.2,110.6,9.74,110.6,16.18Z"/><path class="cls-5" d="M168.12,6.89c5.41-4.25,15.57-4.5,22.75,1.88a15.08,15.08,0,0,1,1.44,21.65C186,37.66,177.07,38.83,168.42,33,160.46,27.59,160.57,12.85,168.12,6.89Z"/><path class="cls-1" d="M172.24,11.64a11.48,11.48,0,0,1,14.59,1.2c4.36,4.35,4.79,9.08.93,13.88s-9.79,5.4-15.33,1.65C167.32,24.91,167.39,15.46,172.24,11.64Z"/><path class="cls-5" d="M100.64,33.06l2.57,9,9.44-2.57a52.36,52.36,0,0,1-2.58-8c-.4-2.63-1.07-5.69-1.07-5.69l-9.41,1.28Z"/><path class="cls-5" d="M164.68,42.93a32.35,32.35,0,0,0,4.51-6.21,72.07,72.07,0,0,0,3.43-6.52l7,3.72a38.67,38.67,0,0,1-3.66,8.14,33.89,33.89,0,0,0-3.32,6.64Z"/><g class="cls-6"><path class="cls-4" d="M71.73,55.63S55.56,57.54,50.5,53.11a35.21,35.21,0,0,1-7.88-10.82L38.17,47.1s1.67,8.79,8.54,13.27c8.23,5.38,22.07,4.27,22.07,4.27Z"/><path class="cls-5" d="M40,55.39s2.23,0,5.54-3.89,4.62-5.29,4.62-5.29l3.38,3.93S47.93,59.22,45,60.62,40,55.39,40,55.39Z"/><path class="cls-5" d="M52.51,65.24s2.07-.79,3.81-5.59,2.47-6.58,2.47-6.58l4.55,2.5S61.29,66,59,68.39,52.51,65.24,52.51,65.24Z"/></g><path class="cls-5" d="M40.78,39.63l-3.63,8.31S44.48,47,49,38.51c3.36-6.34,4-16.25-1.51-24.89C38.35-.86,19.43,7.72,19.43,7.72l7.51,4.19L24.41,19.4l6.83,1.86-2.4,7.09,7.91,1.36L34.47,38Z"/><path class="cls-5" d="M32.55,47.06l8.86-2s-2.3,7-11.51,9.84C23,57,13.18,55.73,5.7,48.75c-12.52-11.69-.52-28.63-.52-28.63l2.71,8.15,7.84-1.08.55,7.06,7.43-1-.16,8,8.6-.68Z"/><path d="M102.14,18.11a2.27,2.27,0,0,1-2.52,2.36,2.37,2.37,0,1,1,0-4.73A2.5,2.5,0,0,1,102.14,18.11Z"/><path d="M182.05,20.47a2.28,2.28,0,0,1-2.52,2.37,2.37,2.37,0,1,1,0-4.73A2.5,2.5,0,0,1,182.05,20.47Z"/><g class="cls-7"><path class="cls-1" d="M112.65,60s6.69,8.35,17,8.17c9.93-.17,17-8.72,17-8.72s-1.85,22.9-16.24,22.9C114.43,82.38,112.65,60,112.65,60Z"/><path class="cls-8" d="M118.62,63.86,118,78.5"/><path class="cls-8" d="M137.38,66l2.1,13.6"/><path class="cls-8" d="M128,67.89l-.42,15"/></g></g></g></svg>