<svg xmlns="http://www.w3.org/2000/svg" xmlns:xlink="http://www.w3.org/1999/xlink" viewBox="0 0 145.06 127.42"><defs><style>.cls-1,.cls-6{fill:none;}.cls-2{fill:#869a2a;}.cls-3{fill:#fff;}.cls-4{clip-path:url(#clip-path);}.cls-5{fill:#6a2403;}.cls-6{stroke:#000;stroke-linecap:round;stroke-width:0.61px;}.cls-7{fill:#68701f;}.cls-8{fill:#9db22d;}</style><clipPath id="clip-path"><path class="cls-1" d="M79.2,10.59c23.63-3.13,69.79,8,65.6,29.54-3.46,17.7-24,20.81-24,20.81S117.09,81.12,91,82.48c-14.53,20.36-38.55,32.93-61.48,31.28S-5.17,89.3,10.62,61.54c15-26.38,40.55-31.73,40.55-31.73S57.68,13.44,79.2,10.59Z"/></clipPath></defs><title>frog</title><g id="Layer_2" data-name="Layer 2"><g id="Layer_1-2" data-name="Layer 1"><path class="cls-2" d="M119.94,12.24a11.71,11.71,0,1,1-23.41-.3,11.71,11.71,0,1,1,23.41.3Z"/><path class="cls-2" d="M83.89,16c.71,7.56-5.56,12.39-12.2,12.3s-11.44-5.19-11.9-12.6C59.37,8.79,65.37,3.9,72,3.36,79.07,2.79,83.22,9.12,83.89,16Z"/><path class="cls-2" d="M98.92,73.42s9,17.43,13.62,20.85C116.31,97,118,95.65,118,95.65s11-3.54,9.4-1.08-8.85,3.88-8.85,3.88,13,.79,11.2,2.38-12.57,1.61-12.57,1.61,13.66,3.84,10.45,4.53c-4.48,1-16-1-17.62-3.58S94.44,86.54,91,82.48,98.92,73.42,98.92,73.42Z"/><path class="cls-3" d="M117.54,12.22A9.32,9.32,0,1,1,98.92,12a9.32,9.32,0,1,1,18.62.24Z"/><g class="cls-4"><path class="cls-2" d="M79.2,10.59c23.63-3.13,69.79,8,65.6,29.54-3.46,17.7-24,20.81-24,20.81S117.09,81.12,91,82.48c-14.53,20.36-38.55,32.93-61.48,31.28S-5.17,89.3,10.62,61.54c15-26.38,40.55-31.73,40.55-31.73S57.68,13.44,79.2,10.59Z"/><path class="cls-5" d="M74.07,62.26c2.75,1.95,1.26,5-1.57,3.18S71.26,60.28,74.07,62.26Z"/><path class="cls-5" d="M66.78,66.79c2.86,1.82,1.5,5.09-1.45,3.36S63.88,65,66.78,66.79Z"/><path class="cls-5" d="M59.15,59c2.83,1.86,1.25,5.28-1.64,3.52S56.28,57.07,59.15,59Z"/><path class="cls-5" d="M68.21,47.12c-2.69-2.11-.59-5.45,2-3.25S70.89,49.21,68.21,47.12Z"/><path class="cls-5" d="M44.28,55.15c-2.94-1.77-1.09-5.71,1.81-3.83S47.17,56.9,44.28,55.15Z"/><path class="cls-5" d="M23.67,56.35l.08-.63c1.11-2.79,6.08-1,5,1.65a2.38,2.38,0,0,1-2.83,1.29,2.08,2.08,0,0,1-3.16,2.25C20,59.54,21.13,55.77,23.67,56.35Z"/><path class="cls-5" d="M44.53,43.33c-2.82-1.91-.66-5.85,2.09-3.84S47.34,45.25,44.53,43.33Z"/><path class="cls-5" d="M24.66,75.9A2.6,2.6,0,0,1,23,72.72a2.08,2.08,0,0,1,.05-1C23.86,69,29,70.37,28.14,73l-.45.79C27.86,75.29,26.71,76.75,24.66,75.9Z"/><path class="cls-5" d="M39.82,17.1c-3.22.31-4.62-4.77-1.19-5.06S43,16.84,39.82,17.1Z"/><path class="cls-5" d="M51.3,30.15c3.15,0,4.48,4.7,1.46,4.78S48.1,30.24,51.3,30.15Z"/><path class="cls-5" d="M72.6,58.87c3.18-.33,4.75,4.55,1.58,4.87S69.37,59.27,72.6,58.87Z"/><path class="cls-5" d="M58.28,45.47c-3.21.56-4.94-4.4-1.61-4.93S61.46,45,58.28,45.47Z"/><path class="cls-5" d="M38.63,40.78c-3.09.49-5.07-4.21-1.86-4.66S41.76,40.38,38.63,40.78Z"/><path class="cls-5" d="M62.62,53.43c-2.95.17-5-4.22-2-4.4S65.56,53.32,62.62,53.43Z"/><path class="cls-5" d="M34.65,59.65c-3,.7-5.43-3.68-2.37-4.4S37.68,59,34.65,59.65Z"/><path class="cls-5" d="M44.31,44.15c3.06-.34,5,4.16,2,4.54S41.22,44.57,44.31,44.15Z"/><path class="cls-5" d="M37.19,51.46c-3.14.66-5.2-4.05-2-4.69S40.35,50.88,37.19,51.46Z"/><path class="cls-5" d="M56.06,12.32c3.17,0,4.23,5,1.06,4.95S52.79,12.32,56.06,12.32Z"/><path class="cls-5" d="M11.77,25.09c3.26-.74,5.06,4.22,1.8,4.95S8.47,25.89,11.77,25.09Z"/><path class="cls-5" d="M.89,47.86a2.13,2.13,0,0,1-.72-2.6c1.26-3.13,6.34-1.54,5.09,1.49l-.56.87c1.34,1.19,1.7,3.43-.39,4.15C1.68,52.7-.38,49.59.89,47.86Z"/><path class="cls-5" d="M60.84,43.64c-3,.11-4.84-4.46-1.79-4.57S63.79,43.55,60.84,43.64Z"/><path class="cls-5" d="M51.84,64.08v.29l0,.62a1.58,1.58,0,0,1-.86.86c.79,1.66-.57,3.46-2.86,2.27-1.88-1-2-2.8-1.12-3.66a1.58,1.58,0,0,1-.11-1.28l.07-.11a1.37,1.37,0,0,1,1.19-2A3.37,3.37,0,0,1,51.84,64.08Z"/><path class="cls-5" d="M22.21,50.83c-3.1.83-5.39-3.77-2.25-4.61S25.26,50,22.21,50.83Z"/><path class="cls-5" d="M3,14.31c3.41-.78,4.89,4.31,1.6,5.13S-.5,15.16,3,14.31Z"/><path class="cls-5" d="M70.7,34.18c3,.28,4.27,5,1.32,4.68S67.66,34,70.7,34.18Z"/><path class="cls-5" d="M17.31,62.69c-3,1-5.65-3.42-2.49-4.43S20.38,61.74,17.31,62.69Z"/><path class="cls-5" d="M66.32,59.93c2.87-.13,5.13,4.08,2.27,4.22S63.42,60.13,66.32,59.93Z"/><path class="cls-5" d="M35.51,70.24c-.44-1.59.87-3.26,3-2.16,2.41,1.24,2,3.91.18,4.19a1.44,1.44,0,0,1-1.05,2.12c-2.9.83-5.72-3.29-2.73-4.11Z"/><path class="cls-5" d="M8.91,52.35c1.11-3,6.14-1.47,5.07,1.48S7.8,55.37,8.91,52.35Z"/><path class="cls-5" d="M12.12,67.22c-.83,3-6.06,2.13-5.19-1S13,64.15,12.12,67.22Z"/><path class="cls-5" d="M21.08,81.83c-.71,3.16-6,2.57-5.26-.73S21.8,78.63,21.08,81.83Z"/><path class="cls-5" d="M17.62,74.43c-.73,2.84-6,1.89-5.17-1.07S18.38,71.55,17.62,74.43Z"/><path class="cls-5" d="M38.85,63.29c-1,2.5-6,.94-5-1.71S39.82,60.74,38.85,63.29Z"/><path class="cls-5" d="M14.45,84c-.6,2.88-5.88,2.26-5.23-.75S15.07,81.1,14.45,84Z"/><path class="cls-5" d="M11.62,98.26c-.83,3.6-6.16,3.25-5.31-.51S12.5,94.64,11.62,98.26Z"/><path class="cls-5" d="M9.35,76.21c-.4,3.24-5.71,3.14-5.28-.28S9.88,73,9.35,76.21Z"/><path class="cls-5" d="M13.66,86.71c-.34,3.55-5.62,3.84-5.32.07S14.12,83.19,13.66,86.71Z"/><path class="cls-5" d="M26.14,41.72c1.32-2.9,6.23-1,4.94,1.87S24.83,44.63,26.14,41.72Z"/></g><path class="cls-3" d="M81.15,15.92c.56,5.84-4.29,9.56-9.43,9.49s-8.82-4-9.18-9.73c-.33-5.3,4.3-9.08,9.43-9.49C77.44,5.74,80.63,10.63,81.15,15.92Z"/><path d="M75.42,15.86a1.67,1.67,0,0,1-1.8,1.79,1.81,1.81,0,0,1-1.75-1.83A1.83,1.83,0,0,1,73.67,14C74.72,13.93,75.33,14.86,75.42,15.86Z"/><path d="M112,8.49a1.48,1.48,0,0,1-1.6,1.59,1.59,1.59,0,0,1-1.54-1.63,1.63,1.63,0,0,1,1.59-1.62C111.37,6.77,111.9,7.58,112,8.49Z"/><path class="cls-6" d="M120.79,60.93C99,62.78,91.41,49.83,91.41,49.83"/><path class="cls-7" d="M100.91,81.06c-2.82-3.39-17.4-.87-32.34,7.67-21.12,12.06-52.39,15.15-45.74,21s10.48,5.69,21.5,3.16c11.5-2.65,23-4.17,39.63-16.67C93.62,89,96.5,85.33,100.91,81.06Z"/><path class="cls-8" d="M27.84,80.63c6.9-6.56,30.77-15.7,38.48-6.78S57,113.15,57,113.15s33.33-2,31.6.4-16.54,1.94-16.54,1.94,18.15,2.1,17.8,4.16-18.52-1.17-18.52-1.17,14.73,6.93,13.34,8.6S70.26,123.71,60,121s-16.68,2.44-16.29-1.93,8.87-20.51,8.87-20.51-13.59,20.61-26.86,15.25C3.85,105,22,86.23,27.84,80.63Z"/><path d="M133.67,40.59a1.58,1.58,0,0,1-3.16,0,1.58,1.58,0,0,1,3.16,0Z"/><path d="M140.06,38.41a1.25,1.25,0,0,1-1.27,1.24,1.27,1.27,0,0,1-1.24-1.27,1.26,1.26,0,0,1,2.51,0Z"/><path class="cls-2" d="M88,73.28S92,100.34,95.9,104.6c3.14,3.47,5,2.43,5,2.43s11.49-1.26,9.42.82-9.45,2-9.45,2,12.57,3.36,10.52,4.56-12.65-.93-12.65-.93,12.63,6.5,9.34,6.53c-4.57,0-15.49-4.17-16.54-7S79,85.25,76.38,80.57,88,73.28,88,73.28Z"/></g></g></svg>