<svg xmlns="http://www.w3.org/2000/svg" viewBox="0 0 171.26 124.02"><defs><style>.cls-1{fill:#dfdfcc;}.cls-2,.cls-3,.cls-6,.cls-7{fill:none;}.cls-2{stroke:#fff;stroke-width:0.42px;}.cls-3{stroke:#000;stroke-width:0.76px;}.cls-3,.cls-6,.cls-7{stroke-linecap:round;}.cls-4{fill:#333;}.cls-5{fill:#fff;}.cls-6,.cls-7{stroke:#ccccb8;}.cls-6{stroke-width:0.2px;}.cls-7{stroke-width:0.66px;}</style></defs><title>mosquito</title><g id="Layer_2" data-name="Layer 2"><g id="Layer_1-2" data-name="Layer 1"><path class="cls-1" d="M63.09,70.27c3.55-8,14.27-31.09,35.44-51.2,20.87-19.82,40.11-26.43,35.11-9S96.76,52.26,81.43,66.23C75.09,72,60.47,76.21,63.09,70.27Z"/><path class="cls-2" d="M70.84,71.09S77.11,51.57,89,45.68s22.11-5.19,22.11-5.19"/><path class="cls-2" d="M99.13,25.63a45.36,45.36,0,0,1,.47,8.14,36.09,36.09,0,0,1-1.6,8.4"/><path class="cls-2" d="M84.18,49S84,40.61,82.29,36.45a20.91,20.91,0,0,0-3.23-5.87"/><path class="cls-2" d="M74.6,62.25S83.1,58,86.77,58.13l3.67.16"/><path class="cls-2" d="M99.62,32.87s7.67-6.77,16.46-8.53c6.14-1.22,9.56-.25,9.56-.25"/><path class="cls-2" d="M82,35.69s10-3.75,17.15-10c9.61-8.46,10.92-21.78,10.92-21.78"/><path class="cls-2" d="M115.6,24.45s5.08-7.91,4.29-17.09C119.32.91,118.65,1,118.65,1"/><path class="cls-2" d="M77.23,57.88s-4.52-6.62-7.25-8-2-.66-2-.66"/><path class="cls-3" d="M107.83,102.47c-2,13.79-1.84,12.94-2.13,18.12,0,.46-6.82-.1-6.46-.08"/><path class="cls-3" d="M84.22,101.86c-2,13.78-1.85,12.93-2.14,18.12,0,.45-6.81-.1-6.45-.08"/><path class="cls-3" d="M61.44,100c-5.63,12.76-5.25,12-6.9,16.92-.15.42-6.55-1.89-6.21-1.77"/><path class="cls-4" d="M111.35,75.8c-13.8-7.82-45-8.41-45-8.41s-16.3-12-26.85-10.13S18.09,70.36,14.19,81.07c-2.25,6.17.5,9.73,1.15,12.9C16.47,99.57,3.5,114.48.82,119s2,6.42,4,3.84,13.66-18,17.66-21.88c0,0,5.12,3.26,15.87,1.8,5.86-.8,11.91-4.9,11.91-4.9s14.61,5.77,40.93,6.1,35.3,0,36.71-7.47S120.8,81.16,111.35,75.8Z"/><path class="cls-5" d="M25.58,74.72c-5.45,1.46-9.47-3.16-9.4-9s6.76-10.33,12.28-9.18C36.52,58.24,38.41,71.28,25.58,74.72Z"/><path class="cls-6" d="M18.57,72.7a10.15,10.15,0,0,1-2.39-7c.07-5.83,6.76-10.33,12.28-9.18a7.84,7.84,0,0,1,4.64,2.9"/><path class="cls-5" d="M49.32,70.26A10.86,10.86,0,0,1,63,71.55c4.05,4.12,2.71,9-1,13.42s-9.53,5.1-15.16.46C42.41,81.76,44.71,73.76,49.32,70.26Z"/><path d="M24.73,64.66a1.91,1.91,0,0,1-2,2.09,2.12,2.12,0,0,1,.05-4.22A2.1,2.1,0,0,1,24.73,64.66Z"/><path d="M55,78.51a2.06,2.06,0,0,1-2.31,2.11,2.13,2.13,0,1,1,.06-4.26A2.26,2.26,0,0,1,55,78.51Z"/><path class="cls-7" d="M82.81,69.42A54.94,54.94,0,0,1,79.6,92.55c-2.57,6.57-5.13,8.88-5.13,8.88"/><path class="cls-7" d="M111.39,78.7s-.09,10.57-5.28,17.2a51.84,51.84,0,0,1-7.4,7.62"/><path class="cls-7" d="M97.59,71.63a34.55,34.55,0,0,1-2.71,18.92c-2.56,5.9-9.24,10.91-9.24,10.91"/><path class="cls-1" d="M72,71.6c7.09-5.27,25.93-21.45,56-32.2,27.19-9.7,52.7-3.83,39.68,8.89s-59.38,22.83-79.66,27.5C79.69,77.73,66.79,75.49,72,71.6Z"/><path class="cls-2" d="M76.45,74.87s15.17-13.94,28.46-13.26,21.82,6.27,21.82,6.27"/><path class="cls-2" d="M123.67,49.1A45.15,45.15,0,0,1,120,56.4,37,37,0,0,1,114.47,63"/><path class="cls-2" d="M99,62.16s4-7.43,4.61-11.86a20.69,20.69,0,0,0,.1-6.68"/><path class="cls-2" d="M84.13,69s9.51.43,12.63,2.36l3.11,1.92"/><path class="cls-2" d="M120.51,55.63s10-2.15,18.57.61c5.95,1.93,8.43,4.43,8.43,4.43"/><path class="cls-2" d="M103.76,49.34s10.55,1.75,19.91-.24c12.58-2.68,21.18-15.73,21.18-15.73"/><path class="cls-2" d="M138.6,56.1s8.35-4.41,12.22-12.79a28.74,28.74,0,0,0,2.5-11.78"/><path class="cls-2" d="M88.58,66.47s-.64-8-2.36-10.46-1.43-1.55-1.43-1.55"/></g></g></svg>