<svg xmlns="http://www.w3.org/2000/svg" xmlns:xlink="http://www.w3.org/1999/xlink" viewBox="0 0 141.71 195.63"><defs><style>.cls-1{fill:#fff;}.cls-2{fill:#6a2403;}.cls-3{mask:url(#mask);}.cls-4{fill:#9b3403;}.cls-5{fill:#f989b8;}.cls-6{fill:none;stroke:#000;stroke-linecap:round;stroke-width:0.35px;}</style><mask id="mask" x="26.75" y="87.55" width="104.45" height="108.08" maskUnits="userSpaceOnUse"><g id="mask3"><path class="cls-1" d="M51.86,103.67s36.41-13.46,58.39.69c13.71,8.83,21.3,28.19,14.29,46.45-4.71,12.28-42.66,11.54-64.57,2.54-5.31-2.18-30.06-12.65-31.11-32.42S51.86,103.67,51.86,103.67Z"/></g></mask></defs><title>rabbit</title><g id="Layer_2" data-name="Layer 2"><g id="Layer_1-2" data-name="Layer 1"><path class="cls-2" d="M121.42,135.11c-.55-8.56,4.69-9.85,6-12.31s2-4.56,3-5.1c3.13-1.87,9,.87,10.83,9.77C145.26,146.85,122.14,146.33,121.42,135.11Z"/><g class="cls-3"><path class="cls-1" d="M51.86,103.67s36.41-13.46,58.39.69c13.71,8.83,21.3,28.19,14.29,46.45-4.71,12.28-42.66,11.54-64.57,2.54-5.31-2.18-30.06-12.65-31.11-32.42S51.86,103.67,51.86,103.67Z"/><path class="cls-2" d="M76.54,148.59C101.31,149.91,114.82,168,106,182.7s-37,17.88-59.55,4.26-24.07-42.4-12.82-55.34C39.13,125.24,57,147.56,76.54,148.59Z"/><path class="cls-2" d="M71.2,88.75S55.65,90.86,52,106.4c-3,13.1-1.69,20.91,11.61,26.8,12.26,5.43,23.31-.34,38,5.84,12.39,5.2,20.22-1.45,25-7.14,5.49-6.57,6.37-18.08.6-26.46s-14-10.56-25.14-15.35S71.2,88.75,71.2,88.75Z"/></g><path class="cls-2" d="M35,118.73C40.47,140,30.12,149.3,27.68,154c-.53,1-3.12,6.6-5.52,6.59-3.15,0,.08-4.18.08-4.18s-5,4.06-6.07,1c-.43-1.27,2.87-3.85,2.87-3.85s-5.09,1.4-4.4-1.2,7-3.68,7-3.68,4.91-5.2,5.9-11.56c1.21-7.73-3.28-19.59.15-21.95S34.58,117,35,118.73Z"/><path class="cls-4" d="M48.18,128.66c-3.69,18.81-10.34,28.11-12.79,32.84-.53,1-3.11,6.6-5.51,6.58-3.15,0,.07-4.17.07-4.17s-5,4.05-6.07,1c-.43-1.27,2.88-3.85,2.88-3.85s-5.1,1.4-4.41-1.2,7-3.69,7-3.69a54.62,54.62,0,0,0,5.9-11.54c2.55-7.41,3.66-16.08,6-19.51S48.53,126.89,48.18,128.66Z"/><path class="cls-4" d="M114.86,169.92S113.2,160,116.46,156c4.66-1.65,18.81-14.52,9.07-28.2-4.79-6.73-29.64-10.1-34.33,6.22-3.37,11.73,6.54,31.31,6.54,31.31S78.74,160,72.9,163c-4.69,2.42,0,4.29,2.19,4,.93-.1,4.2-1,4.2-1s-5.19,1.39-2.1,2.88a6.23,6.23,0,0,0,5.06,0s-3.31.87-1.36,2.29C83.79,173.38,112.4,172.2,114.86,169.92Z"/><path class="cls-4" d="M.22,97c2.2,22.56,19,30.21,25.53,31.88C38,132,66.64,137.55,78.18,107.43c5.38-14.07-.4-35.22-.4-35.22a253.44,253.44,0,0,0,4.88-27.93c1.66-14.73,2.54-25.48.45-35.09s-12.58,5.23-17.92,19.9-7.76,31.35-7.76,31.35A43.44,43.44,0,0,0,44.56,58a120.74,120.74,0,0,0-13.79,0s1.4-24.56-.72-43.52C28.32-1,22-7.18,15.49,11.74,3.66,45.89,6.38,63.47,6.38,63.47S-1.4,80.44.22,97Z"/><path class="cls-1" d="M15.32,125.53s-3.1-13.85.91-20c3.61-5.58,8.37-7.31,12.45-8.76s5-10.14,8.21-10.18S40.12,92,42.44,96.9s12.11,7,11.61,17.08c-.38,7.58-2.32,17.91-9.68,19.72S15.32,125.53,15.32,125.53Z"/><path class="cls-1" d="M26.49,86.14c-.92,5.15-4.76,8.23-9.75,7.33A9.34,9.34,0,0,1,9.37,82.54c.93-5.16,4.23-7.34,9.27-6.88A9,9,0,0,1,26.49,86.14Z"/><path d="M18.72,85.66a1.72,1.72,0,0,1-2.55-.06,1.94,1.94,0,0,1,.2-2.74,1.58,1.58,0,0,1,2.4.06A1.88,1.88,0,0,1,18.72,85.66Z"/><path class="cls-1" d="M49,85.36c1.32-4.7,5.18-7.19,9.72-5.9a8.7,8.7,0,0,1,5.83,10.83C63.25,95,60,96.71,55.34,95.82A8.37,8.37,0,0,1,49,85.36Z"/><path d="M56.21,86.53a1.6,1.6,0,0,1,2.36.29,1.82,1.82,0,0,1-.45,2.53,1.48,1.48,0,0,1-2.22-.29A1.74,1.74,0,0,1,56.21,86.53Z"/><path class="cls-1" d="M58.07,109.64a1,1,0,0,1,1.41.18,1.08,1.08,0,0,1-.26,1.5.89.89,0,0,1-1.33-.17A1,1,0,0,1,58.07,109.64Z"/><path class="cls-1" d="M62,104.28a1,1,0,0,1,1.41.17,1.08,1.08,0,0,1-.26,1.5.89.89,0,0,1-1.33-.16A1.05,1.05,0,0,1,62,104.28Z"/><path class="cls-1" d="M64,109.72a1,1,0,0,1,1.41.17,1.08,1.08,0,0,1-.26,1.51.89.89,0,0,1-1.33-.17A1.05,1.05,0,0,1,64,109.72Z"/><path class="cls-1" d="M11.19,98.9a1,1,0,0,1-.83,1.15,1.08,1.08,0,0,1-1.19-1A.9.9,0,0,1,10,98,1,1,0,0,1,11.19,98.9Z"/><path class="cls-1" d="M13.92,105a1,1,0,0,1-.84,1.15,1.09,1.09,0,0,1-1.18-1,.89.89,0,0,1,.8-1.08A1.06,1.06,0,0,1,13.92,105Z"/><path class="cls-1" d="M8.22,104a1,1,0,0,1-.84,1.14,1.07,1.07,0,0,1-1.18-1A.89.89,0,0,1,7,103.15,1,1,0,0,1,8.22,104Z"/><path class="cls-5" d="M64.27,63.17S65.74,49.5,67.7,41.66c1.55-6.19,6.49-12.93,6.49-12.93A44,44,0,0,1,74,47.26c-2.32,9.45-3.93,17-3.93,17Z"/><path class="cls-6" d="M34.4,111.31S34.05,116,36,117.63c3.18,2.58,5.39-1.47,5.39-1.47"/><path class="cls-6" d="M26.48,113.74s.55,4.91,4.73,3.28c2.89-1.13,2.81-4.86,2.95-5.75"/><path class="cls-5" d="M27.92,99.12c-.52,3.41,4.6,11.76,5.91,12.46s10.66-9,10.15-9.85C42.7,99.62,28,98.59,27.92,99.12Z"/><path class="cls-5" d="M14.91,59.44s-1.1-6,.24-17.79C16,34.09,19.76,23.7,19.76,23.7A49.19,49.19,0,0,1,22,44.82C21,53.17,20.71,58.63,20.71,58.63Z"/></g></g></svg>