<svg xmlns="http://www.w3.org/2000/svg" xmlns:xlink="http://www.w3.org/1999/xlink" viewBox="0 0 244.44 158.02"><defs><style>.cls-1,.cls-9{fill:none;}.cls-2{fill:#9b3403;}.cls-3{clip-path:url(#clip-path);}.cls-4{fill:#db6303;}.cls-5{fill:#6a2403;}.cls-6{clip-path:url(#clip-path-2);}.cls-7{fill:#ff8000;}.cls-8{fill:#fff;}.cls-9{stroke:#000;stroke-linecap:round;stroke-width:0.37px;}.cls-10{clip-path:url(#clip-path-3);}</style><clipPath id="clip-path"><path class="cls-1" d="M101.08,52.16S158.8,58.71,165,65.26s6.57,26.22,4.5,46.17a336.57,336.57,0,0,0-1.78,38.68c0,2.84-.53,4.37-2.21,5.59-3,2.19-4.2,2.52-5.26,2.24-2.5-.65-1.63-2.4-1.63-2.4s-2,2.56-4.67,2.08c-2.78-.51-.08-3.08-.08-3.08s-4.07,1.56-4.11-.82,8.43-5,8.43-5l-2-33.28S133.83,125,113.05,122s-38.26-6.56-38.26-6.56.94,15.5.43,30.34c-.1,2.68-2.64,7.5-6.41,7.55s-1.51-3.07-1.51-3.07-2.86,4.54-4.78,2.2.84-4.35.84-4.35-3.87,4.18-5.84,1.12c-1.83-2.83,7.8-6.34,7.8-6.34l-5.16-55Z"/></clipPath><clipPath id="clip-path-2"><path class="cls-1" d="M166.45,86.57s31,3.8,45.79-1.17c10.75-3.61,30.28-11.3,25.48-17.87-5.43-7.42-19.83,7-32.59,8.35-12.51,1.33-38.84-.68-38.84-.68Z"/></clipPath><clipPath id="clip-path-3"><path class="cls-1" d="M107.67,67.77a18.82,18.82,0,0,0-6.91-3.48c1.3-7.33,3.22-13.85,2.88-20.47-.25-4.88-.41-7-.5-7.78,1.6-.87,16.19-9.16,9.86-18.33-6.83-9.88-21.26,4.49-21.26,4.49a134.94,134.94,0,0,0-19.38-6.7c-12-3.14-28.5-2.52-28.5-2.52S43.58-3.91,31,.84C18.21,5.71,28.61,23,28.61,23s-5.75,6.85-8.41,12.85c-1.34,3-2.81,8.92-3.77,15.43-2.57,0-6.48.16-9.32,1.3-4.6,1.86-10.31,3.8-4.93,4.65s10.21,2.09,10.21,2.09-11.8,7-7,6.33,10-1,10-1-9.72,7.9-5.85,7a29.26,29.26,0,0,0,6.09-1.74,2.48,2.48,0,0,0,0,.27c1.21,11,6.79,24.38,27.84,29S83.72,100.4,92,85.91c.92-1.59,1.79-3.26,2.62-5,.43.53,6.56,3.71,8.48,5.47,2.35,2.15-1.82-6.44-1.82-6.44s2.47-.22,7,1.59S102.91,73,102.91,73s3,0,8.39.54S111.67,70.71,107.67,67.77Z"/></clipPath></defs><title>tiger</title><g id="Layer_2" data-name="Layer 2"><g id="Layer_1-2" data-name="Layer 1"><path class="cls-2" d="M161.6,108.71a337.07,337.07,0,0,0-6.33,38.19c-.3,2.83-1.05,4.28-2.86,5.29-3.26,1.81-4.46,2-5.48,1.59-2.41-.94-1.33-2.57-1.33-2.57s-2.33,2.29-4.89,1.5.29-3.07.29-3.07-4.23,1.06-4-1.3,9-3.94,9-3.94l2-33.28"/><path class="cls-2" d="M79.41,100.81s7.7,38.76,8.33,41.53.49,4.36-.58,5.84c-1.94,2.64-2.79,3.16-3.7,3.08a1.79,1.79,0,0,1-1.79-2.08S80.59,152,78.4,152s-.71-3-.71-3-2.9,2.21-3.43-.1,5.63-6.28,5.63-6.28L67.61,101Z"/><g class="cls-3"><path class="cls-4" d="M101.08,52.16S158.8,58.71,165,65.26s6.57,26.22,4.5,46.17a336.57,336.57,0,0,0-1.78,38.68c0,2.84-.53,4.37-2.21,5.59-3,2.19-4.2,2.52-5.26,2.24-2.5-.65-1.63-2.4-1.63-2.4s-2,2.56-4.67,2.08c-2.78-.51-.08-3.08-.08-3.08s-4.07,1.56-4.11-.82,8.43-5,8.43-5l-2-33.28S133.83,125,113.05,122s-38.26-6.56-38.26-6.56.94,15.5.43,30.34c-.1,2.68-2.64,7.5-6.41,7.55s-1.51-3.07-1.51-3.07-2.86,4.54-4.78,2.2.84-4.35.84-4.35-3.87,4.18-5.84,1.12c-1.83-2.83,7.8-6.34,7.8-6.34l-5.16-55Z"/><path class="cls-5" d="M137.16,80.51A6.24,6.24,0,0,1,131,86.86c-3.44,0-5-2.26-5.07-5.72s1.46-6.75,4.89-6.81A6.26,6.26,0,0,1,137.16,80.51Z"/><path class="cls-5" d="M142.92,85.29a2.32,2.32,0,1,1-2.34-2.5A2.42,2.42,0,0,1,142.92,85.29Z"/><path class="cls-5" d="M143.35,77.74a2.31,2.31,0,1,1-2.34-2.2A2.28,2.28,0,0,1,143.35,77.74Z"/><path class="cls-5" d="M139.35,72.63a2.38,2.38,0,1,1-2.41-2.46A2.44,2.44,0,0,1,139.35,72.63Z"/><path class="cls-5" d="M111.46,91.05C113,88,117.2,87.46,120.28,89s3.87,4.5,2.36,7.61a6.21,6.21,0,0,1-8.34,2.85A6.29,6.29,0,0,1,111.46,91.05Z"/><path class="cls-5" d="M108.48,84.16a2.32,2.32,0,1,1,1,3.3A2.45,2.45,0,0,1,108.48,84.16Z"/><path class="cls-5" d="M104.7,90.69a2.26,2.26,0,0,1,3-1,2.29,2.29,0,0,1,1.09,3,2.26,2.26,0,0,1-3,1A2.29,2.29,0,0,1,104.7,90.69Z"/><path class="cls-5" d="M106,97.07a2.42,2.42,0,0,1,3.23-1.18A2.5,2.5,0,1,1,106,97.07Z"/><path class="cls-5" d="M137.7,98.57a6.22,6.22,0,0,1,7.59,4.49c.87,3.34-1.66,6.17-5,7s-6.19-.54-7.05-3.88A6.26,6.26,0,0,1,137.7,98.57Z"/><path class="cls-5" d="M140.94,91.79a2.33,2.33,0,1,1-1.85,2.89A2.43,2.43,0,0,1,140.94,91.79Z"/><path class="cls-5" d="M133.57,93.17a2.26,2.26,0,0,1,2.72,1.69,2.29,2.29,0,0,1-1.57,2.81,2.32,2.32,0,0,1-1.15-4.5Z"/><path class="cls-5" d="M129.58,98.29a2.39,2.39,0,1,1-1.81,2.95A2.44,2.44,0,0,1,129.58,98.29Z"/><path class="cls-5" d="M113.77,67.9a6.19,6.19,0,0,1,8.65,1.62c2,2.85.53,6.37-2.3,8.33s-6,1.62-8-1.23A6.3,6.3,0,0,1,113.77,67.9Z"/><path class="cls-5" d="M114.53,60.42a2.4,2.4,0,0,1,3.37.48,2.44,2.44,0,0,1-.76,3.35,2.41,2.41,0,0,1-3.38-.48A2.44,2.44,0,0,1,114.53,60.42Z"/><path class="cls-5" d="M108.05,64.26a2.25,2.25,0,0,1,3.13.65,2.22,2.22,0,1,1-3.13-.65Z"/><path class="cls-5" d="M106,70.44a2.39,2.39,0,1,1-.7,3.39A2.46,2.46,0,0,1,106,70.44Z"/><path class="cls-5" d="M98.78,48a6.2,6.2,0,0,1,8.65,1.62c2,2.85.53,6.37-2.3,8.33s-6,1.62-7.95-1.23A6.29,6.29,0,0,1,98.78,48Z"/><path class="cls-5" d="M91.05,50.56a2.42,2.42,0,0,1,3.39.56,2.46,2.46,0,0,1-.69,3.38,2.39,2.39,0,1,1-2.7-3.94Z"/><path class="cls-5" d="M87.21,85.44A6.29,6.29,0,0,1,89.94,77c3.06-1.57,6.34.31,7.9,3.39s.8,6.2-2.25,7.77A6.22,6.22,0,0,1,87.21,85.44Z"/><path class="cls-5" d="M79.94,83.7a2.44,2.44,0,0,1,.92-3.31,2.41,2.41,0,0,1,3.19,1.21,2.44,2.44,0,0,1-.91,3.31A2.41,2.41,0,0,1,79.94,83.7Z"/><path class="cls-5" d="M82.86,90.67a2.3,2.3,0,0,1,1.06-3,2.23,2.23,0,0,1,3,.93,2.31,2.31,0,0,1-4.11,2.11Z"/><path class="cls-5" d="M88.69,93.49a2.45,2.45,0,0,1,1-3.31,2.43,2.43,0,0,1,3.25,1.14,2.46,2.46,0,0,1-1,3.31A2.42,2.42,0,0,1,88.69,93.49Z"/><path class="cls-5" d="M156.33,89.83c-3.06-1.56-5.37-4.86-3.82-8a6.19,6.19,0,0,1,8.36-2.76,6.27,6.27,0,0,1,2.74,8.41C162.06,90.62,159.4,91.39,156.33,89.83Z"/><path class="cls-5" d="M148.48,92.63a2.32,2.32,0,1,1,3.28-.92A2.4,2.4,0,0,1,148.48,92.63Z"/><path class="cls-5" d="M154.92,96.51a2.32,2.32,0,1,1,3-1.06A2.24,2.24,0,0,1,154.92,96.51Z"/><path class="cls-5" d="M161.28,95.32a2.39,2.39,0,1,1,2.15-4.26,2.45,2.45,0,0,1,1.14,3.26A2.42,2.42,0,0,1,161.28,95.32Z"/><path class="cls-5" d="M93.86,107.85C90.79,106.29,88.48,103,90,99.9a6.22,6.22,0,0,1,8.37-2.76,6.28,6.28,0,0,1,2.74,8.42C99.59,108.65,96.92,109.41,93.86,107.85Z"/><path class="cls-5" d="M86,110.66a2.44,2.44,0,0,1-1.2-3.22,2.41,2.41,0,0,1,3.28-.93,2.44,2.44,0,0,1,1.2,3.22A2.41,2.41,0,0,1,86,110.66Z"/><path class="cls-5" d="M92.45,114.54a2.29,2.29,0,0,1-.94-3.08,2.25,2.25,0,0,1,3-1.06,2.32,2.32,0,0,1-2.08,4.14Z"/><path class="cls-5" d="M98.81,113.35a2.39,2.39,0,1,1,3.29-1A2.45,2.45,0,0,1,98.81,113.35Z"/><path class="cls-5" d="M74.46,98.42c3.19-1.29,7.18-.85,8.46,2.36a6.28,6.28,0,0,1-3.47,8.15,6.22,6.22,0,0,1-8.09-3.49C70.08,102.23,71.27,99.7,74.46,98.42Z"/><path class="cls-5" d="M77.56,90.63a2.33,2.33,0,1,1-1.48,3.09A2.41,2.41,0,0,1,77.56,90.63Z"/><path class="cls-5" d="M70.41,92.94a2.25,2.25,0,0,1,2.91,1.32,2.22,2.22,0,1,1-2.91-1.32Z"/><path class="cls-5" d="M67.1,98.52a2.41,2.41,0,0,1,3.18,1.29A2.45,2.45,0,0,1,68.86,103a2.42,2.42,0,0,1-3.19-1.29A2.45,2.45,0,0,1,67.1,98.52Z"/><path class="cls-5" d="M114.11,109c3.19-1.28,7.18-.85,8.46,2.36a6.28,6.28,0,0,1-3.47,8.15,6.22,6.22,0,0,1-8.09-3.49C109.73,112.84,110.92,110.31,114.11,109Z"/><path class="cls-5" d="M117.21,101.24a2.33,2.33,0,1,1-1.48,3.1A2.45,2.45,0,0,1,117.21,101.24Z"/><path class="cls-5" d="M110.06,103.55a2.24,2.24,0,0,1,2.91,1.33,2.22,2.22,0,1,1-2.91-1.33Z"/><path class="cls-5" d="M106.75,109.13a2.39,2.39,0,1,1-1.42,3.15A2.42,2.42,0,0,1,106.75,109.13Z"/><path class="cls-5" d="M135.51,122.09c3.19-1.29,7.17-.85,8.45,2.36a6.23,6.23,0,1,1-11.56,4.66C131.12,125.9,132.31,123.37,135.51,122.09Z"/><path class="cls-5" d="M138.61,114.3a2.33,2.33,0,1,1-1.49,3.09A2.42,2.42,0,0,1,138.61,114.3Z"/><path class="cls-5" d="M131.45,116.61a2.32,2.32,0,1,1-1.21,3A2.28,2.28,0,0,1,131.45,116.61Z"/><path class="cls-5" d="M128.14,122.19a2.44,2.44,0,0,1,3.19,1.29,2.47,2.47,0,0,1-1.43,3.16,2.43,2.43,0,0,1-3.19-1.3A2.46,2.46,0,0,1,128.14,122.19Z"/><path class="cls-5" d="M157.71,107.7c3.19-1.28,7.18-.85,8.46,2.37a6.27,6.27,0,0,1-3.47,8.14,6.21,6.21,0,0,1-8.09-3.49C153.33,111.51,154.52,109,157.71,107.7Z"/><path class="cls-5" d="M160.81,99.92a2.32,2.32,0,1,1-1.48,3.09A2.41,2.41,0,0,1,160.81,99.92Z"/><path class="cls-5" d="M153.66,102.22a2.32,2.32,0,1,1-1.2,3A2.28,2.28,0,0,1,153.66,102.22Z"/><path class="cls-5" d="M150.34,107.8a2.43,2.43,0,0,1,3.19,1.3,2.45,2.45,0,0,1-1.42,3.15,2.43,2.43,0,0,1-3.19-1.3A2.45,2.45,0,0,1,150.34,107.8Z"/><path class="cls-5" d="M151.5,64.77c3.19-1.28,7.18-.85,8.46,2.36a6.28,6.28,0,0,1-3.47,8.15,6.21,6.21,0,0,1-8.09-3.49C147.12,68.58,148.31,66.05,151.5,64.77Z"/><path class="cls-5" d="M154.6,57a2.32,2.32,0,1,1-1.48,3.09A2.43,2.43,0,0,1,154.6,57Z"/><path class="cls-5" d="M147.45,59.29a2.25,2.25,0,0,1,2.91,1.33,2.28,2.28,0,0,1-1.2,3,2.32,2.32,0,0,1-1.71-4.31Z"/><path class="cls-5" d="M144.13,64.87a2.43,2.43,0,0,1,3.19,1.3,2.46,2.46,0,0,1-1.42,3.15,2.43,2.43,0,0,1-3.19-1.3A2.46,2.46,0,0,1,144.13,64.87Z"/><path class="cls-5" d="M130.16,60.78c-3.43.27-7.1-1.35-7.37-4.79a6.22,6.22,0,1,1,12.41-1C135.46,58.46,133.58,60.52,130.16,60.78Z"/><path class="cls-5" d="M124.89,67.29a2.33,2.33,0,1,1,2.34-2.51A2.42,2.42,0,0,1,124.89,67.29Z"/><path class="cls-5" d="M132.4,67.23a2.32,2.32,0,1,1,2-2.48A2.26,2.26,0,0,1,132.4,67.23Z"/><path class="cls-5" d="M137.22,62.9a2.39,2.39,0,1,1,2.29-2.58A2.44,2.44,0,0,1,137.22,62.9Z"/></g><g class="cls-6"><path class="cls-4" d="M166.45,86.57s31,3.8,45.79-1.17c10.75-3.61,30.28-11.3,25.48-17.87-5.43-7.42-19.83,7-32.59,8.35-12.51,1.33-38.84-.68-38.84-.68Z"/><path class="cls-5" d="M221.19,71.78a6.25,6.25,0,0,1-6.13,6.36c-3.44,0-5-2.27-5.08-5.73s1.46-6.75,4.9-6.8A6.23,6.23,0,0,1,221.19,71.78Z"/><path class="cls-5" d="M227,76.56a2.32,2.32,0,1,1-2.34-2.5A2.42,2.42,0,0,1,227,76.56Z"/><path class="cls-5" d="M227.38,69a2.31,2.31,0,1,1-2.34-2.2A2.27,2.27,0,0,1,227.38,69Z"/><path class="cls-5" d="M223.39,63.9A2.38,2.38,0,1,1,221,61.44,2.44,2.44,0,0,1,223.39,63.9Z"/><path class="cls-5" d="M195.49,82.33c1.53-3.1,5.75-3.6,8.83-2.07s3.86,4.5,2.35,7.6a6.21,6.21,0,0,1-8.34,2.85A6.29,6.29,0,0,1,195.49,82.33Z"/><path class="cls-5" d="M192.52,75.43a2.41,2.41,0,0,1,3.18-1.24,2.54,2.54,0,1,1-3.18,1.24Z"/><path class="cls-5" d="M188.73,82a2.32,2.32,0,1,1,1.1,3A2.29,2.29,0,0,1,188.73,82Z"/><path class="cls-5" d="M190,88.34a2.42,2.42,0,0,1,3.22-1.18,2.45,2.45,0,0,1,1,3.3A2.41,2.41,0,0,1,191,91.64,2.45,2.45,0,0,1,190,88.34Z"/><path class="cls-5" d="M171.24,76.72A6.3,6.3,0,0,1,174,68.29c3.06-1.57,6.34.31,7.9,3.4s.81,6.2-2.26,7.76A6.2,6.2,0,0,1,171.24,76.72Z"/><path class="cls-5" d="M164,75a2.32,2.32,0,1,1,3.2,1.21A2.44,2.44,0,0,1,164,75Z"/><path class="cls-5" d="M166.9,81.94a2.29,2.29,0,0,1,1-3,2.26,2.26,0,0,1,3.06.93,2.28,2.28,0,0,1-1,3A2.26,2.26,0,0,1,166.9,81.94Z"/><path class="cls-5" d="M172.73,84.76a2.45,2.45,0,0,1,1-3.31A2.42,2.42,0,0,1,177,82.59a2.45,2.45,0,0,1-1,3.31A2.41,2.41,0,0,1,172.73,84.76Z"/><path class="cls-5" d="M235.53,56c3.2-1.28,7.19-.84,8.46,2.37a6.29,6.29,0,0,1-3.47,8.15,6.22,6.22,0,0,1-8.09-3.49C231.16,59.85,232.34,57.33,235.53,56Z"/></g><path class="cls-7" d="M107.67,67.77a18.82,18.82,0,0,0-6.91-3.48c1.3-7.33,3.22-13.85,2.88-20.47-.25-4.88-.41-7-.5-7.78,1.6-.87,16.19-9.16,9.86-18.33-6.83-9.88-21.26,4.49-21.26,4.49a134.94,134.94,0,0,0-19.38-6.7c-12-3.14-28.5-2.52-28.5-2.52S43.58-3.91,31,.84C18.21,5.71,28.61,23,28.61,23s-5.75,6.85-8.41,12.85c-1.34,3-2.81,8.92-3.77,15.43-2.57,0-6.48.16-9.32,1.3-4.6,1.86-10.31,3.8-4.93,4.65s10.21,2.09,10.21,2.09-11.8,7-7,6.33,10-1,10-1-9.72,7.9-5.85,7a29.26,29.26,0,0,0,6.09-1.74,2.48,2.48,0,0,0,0,.27c1.21,11,6.79,24.38,27.84,29S83.72,100.4,92,85.91c.92-1.59,1.79-3.26,2.62-5,.43.53,6.56,3.71,8.48,5.47,2.35,2.15-1.82-6.44-1.82-6.44s2.47-.22,7,1.59S102.91,73,102.91,73s3,0,8.39.54S111.67,70.71,107.67,67.77Z"/><path class="cls-4" d="M48.19,50.78c-2.89,5.36-7,9.9-5.15,9.87s19.73,4.19,19.73,4.19,1.42-3.86,1.7-13.65,1.65-18.33-1.73-18.28C59.14,33,51.07,45.42,48.19,50.78Z"/><path class="cls-2" d="M94.69,28.38s5.1-5.69,7.53-3.67-2.79,7.67-2.79,7.67Z"/><path class="cls-2" d="M34,16.94s-3.92-6.4-1.27-8.13,6.42,5.26,6.42,5.26Z"/><path class="cls-8" d="M95,46.6c.08,6-5.82,11.07-11.76,11.16A10.8,10.8,0,0,1,72.27,47.08c-.08-6,5.69-9.33,11.63-9.41S94.86,40.63,95,46.6Z"/><path class="cls-8" d="M27.92,32.22C26,37.4,29.59,43.68,34.75,45.62a9.94,9.94,0,0,0,12.83-5.86c1.92-5.17-2.09-9.9-7.25-11.84S29.84,27.05,27.92,32.22Z"/><path class="cls-8" d="M40.78,84l-2.22-1.78L37,91.86l6.67-6.54Z"/><path class="cls-8" d="M55.1,86.89,52,86.08l3.4,8.75L58,86.45Z"/><path class="cls-9" d="M50.66,73.36s-1.46,10.07.6,11.84C56.45,89.67,61,83.93,61,83.93"/><path class="cls-9" d="M37.66,79.93s2.22,7.2,8.46,4.69c3.06-1.23,4.15-10.34,4.27-11.29"/><path d="M42.56,60.36c-.5,3.66,6.08,12.57,7.49,13.31s13.91-8,13.36-8.84C62,62.59,42.63,59.79,42.56,60.36Z"/><path d="M86.71,45.75a2.45,2.45,0,1,1-2.48-2.43A2.45,2.45,0,0,1,86.71,45.75Z"/><path d="M40.18,36.59a2.45,2.45,0,1,1-2.48-2.43A2.45,2.45,0,0,1,40.18,36.59Z"/><g class="cls-10"><path class="cls-2" d="M83.1,74.06a6.22,6.22,0,0,1-7,5.34c-3.4-.47-4.62-3-4.15-6.43s2.46-6.45,5.86-6A6.25,6.25,0,0,1,83.1,74.06Zm5,5.61a2.31,2.31,0,1,1-1.93-2.83A2.41,2.41,0,0,1,88.08,79.67Zm1.56-7.4a2.31,2.31,0,1,1-2-2.53A2.27,2.27,0,0,1,89.64,72.27Zm-3.18-5.66a2.38,2.38,0,1,1-2-2.81A2.44,2.44,0,0,1,86.46,66.61Z"/><path class="cls-2" d="M64.3,18.73a6.73,6.73,0,0,1-4.07-8.56c1.23-3.5,4.13-4.24,7.61-3s6.2,4,5,7.48A6.67,6.67,0,0,1,64.3,18.73Zm-6.91,4.06a2.6,2.6,0,0,1-1.72-3.25A2.57,2.57,0,0,1,59,18.1a2.62,2.62,0,0,1,1.73,3.25A2.6,2.6,0,0,1,57.39,22.79ZM64.77,26a2.45,2.45,0,0,1-1.42-3.14,2.42,2.42,0,0,1,3.06-1.55,2.44,2.44,0,0,1,1.42,3.14A2.41,2.41,0,0,1,64.77,26Zm6.59-2.14a2.62,2.62,0,0,1-1.66-3.31A2.6,2.6,0,0,1,73.05,19a2.62,2.62,0,0,1,1.66,3.31A2.6,2.6,0,0,1,71.36,23.88Z"/><path class="cls-2" d="M23.6,62.27a6.24,6.24,0,0,0,6.32,6.17c3.43,0,4.95-2.41,4.91-5.87s-1.65-6.71-5.09-6.66A6.26,6.26,0,0,0,23.6,62.27ZM18,67.21a2.43,2.43,0,0,0,2.34,2.5,2.55,2.55,0,0,0-.07-5.07A2.43,2.43,0,0,0,18,67.21Zm-.64-7.53a2.31,2.31,0,1,0,2.27-2.27A2.26,2.26,0,0,0,17.34,59.68Zm3.85-5.23a2.38,2.38,0,1,0,2.34-2.53A2.44,2.44,0,0,0,21.19,54.45Z"/></g></g></g></svg>