<svg xmlns="http://www.w3.org/2000/svg" viewBox="0 0 133 97.37"><defs><style>.cls-1{fill:#e30613;}.cls-2{fill:#b91919;}.cls-3{fill:#2fac66;}.cls-4{fill:none;stroke:#1b8a4f;stroke-linecap:round;stroke-linejoin:round;stroke-width:0.36px;}</style></defs><title>calzoncillo</title><g id="Layer_2" data-name="Layer 2"><g id="Layer_1-2" data-name="Layer 1"><path class="cls-1" d="M8.68,0C7.21,4.25-.24,45.06,0,46.14S26.55,51,39.83,91.73c10.21,3,39.31,5.64,41.61,5.64C89,83.88,111.68,64.73,127.75,62.09,129.73,52,133,14.22,133,12.35,120.11,13.2,30.11,6.69,8.68,0Z"/><path class="cls-2" d="M50.79,16.48,30.11,67.65l2.56,3.58L54.1,17.39Z"/><path class="cls-2" d="M89.22,20.43C91.76,33.67,98,74.72,98,74.72l-3.49,3L85.64,20.18Z"/><path class="cls-3" d="M8.68,0C8,1.41,7,4.9,5.64,11.31,19.41,13.84,52.81,17.62,85,20.1c24,1.86,39.13,1.62,47.3,2.46.58-6,.68-10.32.68-10.81C88.91,7.47,37.65,3.16,8.68,0Z"/><path class="cls-4" d="M19.06,3.7l-.79,7.84"/><path class="cls-4" d="M27.05,4.3l-1,8.27"/><path class="cls-4" d="M13.25,2.52l-2.09,8.23"/><path class="cls-4" d="M35,4.51l-1,8.35"/><path class="cls-4" d="M42.62,5.21l-1.28,8.54"/><path class="cls-4" d="M50.79,6.37l-1.53,8.44"/><path class="cls-4" d="M57.51,7l-1.18,8.56"/><path class="cls-4" d="M64.83,7.59l-.91,8.85"/><path class="cls-4" d="M71.68,8.46,71,17"/><path class="cls-4" d="M78.75,8.6l.12,8.61"/><path class="cls-4" d="M87.05,9.27l.24,8.56"/><path class="cls-4" d="M96,10.46V19"/><path class="cls-4" d="M104.4,11.11,104,19"/><path class="cls-4" d="M112.15,12l-.47,7.5"/><path class="cls-4" d="M119.47,12.53v7.88"/><path class="cls-4" d="M126.86,13.34l-.65,7.07"/><path class="cls-2" d="M44.46,41.61S50.06,55.26,49.13,64c-1,9.59-9.32,23.35-9.32,23.35l2.81,1S51.7,74,52.57,63.52s-6.39-26.27-6.39-26.27Z"/></g></g></svg>