<svg xmlns="http://www.w3.org/2000/svg" viewBox="0 0 154 124.35"><defs><style>.cls-1{fill:#dad8cc;}.cls-2{fill:#b780b1;}.cls-3{fill:#2fac66;}.cls-4{fill:none;stroke:#b780b1;stroke-width:0.25px;stroke-dasharray:0.75 0.75;}.cls-5{fill:#fff;}.cls-6{fill:#ffde00;}</style></defs><title>cama</title><g id="Layer_2" data-name="Layer 2"><g id="Layer_1-2" data-name="Layer 1"><path class="cls-1" d="M5.51,69.29l93.13-14s-.71-27.24,0-40c.08-1.29,5.14-1.29,5.22,0a128.45,128.45,0,0,1,0,15.19s6.81-16.16,23.13-10c12,4.49,20.26,22.08,20.26,22.08s.15-10.13,0-13.88c-.11-2.76,5.86-2.27,5.89-.84.25,15.63,0,60.56,0,62.18,0,0,.25,19.41,0,25.28-.07,1.44-5.84,1.44-5.89,0-.11-4.82,0-16,0-16L36.82,108.93s.44,9.24.65,14.08c.07,1.47-5.49,2.26-6-.48-.73-4.15-1.23-13.13-1.23-13.13l-.1-1.2L8.85,85.81a51,51,0,0,1,.41,8.52c0,1.3-5.17.1-5.17-1.2,0-6.92-.75-22.08-.75-22.08Z"/><path class="cls-2" d="M101.62,44.16s-7.58-4.61-17.2.2c-6.66,3.34-6.66,8.14-6.66,8.14s-67.7,6-71.62,10.07S4.07,73,4.07,73,27.37,94,32,100.59c3.92,1.85,114-9,114-9s4.52-17-1.47-23.74C140.23,63.09,101.62,44.16,101.62,44.16Z"/><path class="cls-3" d="M68.16,52.06a116.46,116.46,0,0,1,18,11.62c6.22,5,16.46,12.86,22.77,20.18,3.06,3.54,2.77,14.25,2.21,14.84l-78.69,6.2s.29-3-3.63-6.76C23,92.68,7.2,73.21.32,74c-1-2.68.56-8.25,2.3-10.91S9,56,32,54.71,68.16,52.06,68.16,52.06Z"/><path class="cls-4" d="M66.81,53.06s10.8,5.07,23.87,16.08c4.91,4.13,17.78,15.58,17.8,17.28,1.55,2.78.75,11.65.75,11.65"/><path class="cls-5" d="M121.26,33.94c0-.25,5.32-5.69,3.34-6.84-1.48-.87-2.74,1-2.74,1s-.68-2.55-2.14-1.84C117.86,27.11,121.26,33.94,121.26,33.94Z"/><path class="cls-1" d="M104.81,14.6a1,1,0,0,1-1,1H98.73a1,1,0,0,1-1-1v-.11a1,1,0,0,1,1-1h5.07a1,1,0,0,1,1,1Z"/><path class="cls-1" d="M99.61,13.8a12.93,12.93,0,0,1-.77-3.87c0-1.84,2.43-9.93,2.43-9.93s2.44,7.67,2.44,10.21a19.85,19.85,0,0,1-.64,3.59Z"/><path class="cls-1" d="M102.44,1.24a1.18,1.18,0,1,1-2.35,0,1.18,1.18,0,0,1,2.35,0Z"/><path class="cls-1" d="M154,27.55a1,1,0,0,1-1.06,1H147.6a1,1,0,0,1-1.06-1v-.11a1,1,0,0,1,1.06-1h5.34a1,1,0,0,1,1.06,1Z"/><path class="cls-1" d="M148.4,26.75a12.93,12.93,0,0,1-.77-3.87c0-1.83,2.44-9.93,2.44-9.93s2.43,7.67,2.42,10.21a19.85,19.85,0,0,1-.64,3.59Z"/><path class="cls-1" d="M151.23,14.18A1.18,1.18,0,1,1,150.06,13,1.18,1.18,0,0,1,151.23,14.18Z"/><path class="cls-6" d="M18.56,60.47l.53,1.06,1.17.17-.85.81.2,1.17-1.05-.55-1,.55.2-1.17-.85-.81,1.18-.17Z"/><path class="cls-6" d="M44.24,65.15l.51,1.06,1.17.16-.83.83.19,1.17-1-.55-1.05.55.2-1.17-.85-.83,1.17-.16Z"/><path class="cls-6" d="M74.53,89.2l.52,1.06,1.17.17-.85.81.2,1.17-1-.55-1,.55.2-1.17-.85-.81L74,90.26Z"/><path class="cls-6" d="M32.3,62.51l-.6,1,.5,1.08L31,64.34l-.86.81L30.06,64l-1-.57,1.09-.47.23-1.15.79.89Z"/><path class="cls-6" d="M41.77,57.69l-.6,1,.5,1.07L40.5,59.5l-.86.8-.11-1.18-1-.57,1.09-.45.23-1.17.77.89Z"/><path class="cls-6" d="M25.19,70.11l-.6,1,.49,1.08-1.15-.28-.87.81L23,71.55l-1-.58L23,70.5l.23-1.15.79.89Z"/><path class="cls-6" d="M27.6,79.21l.18,1.17,1.06.52-1.05.52-.16,1.18-.84-.83L25.63,82l.54-1-.56-1.05,1.17.2Z"/><path class="cls-6" d="M36.69,71.38l-.23,1.16.83.84-1.16.15-.55,1.06-.5-1.08-1.16-.18.85-.82-.18-1.16,1,.56Z"/><path class="cls-6" d="M84.18,83.9,84,85.05l.83.85-1.16.15-.55,1L82.57,86l-1.16-.2.85-.8-.18-1.18,1,.57Z"/><path class="cls-6" d="M81.06,73.1l-.22,1.15.83.85-1.17.15-.54,1-.5-1.06L78.29,75l.85-.8L79,73.06l1,.57Z"/><path class="cls-6" d="M45.92,73.65l.53,1.06,1.16.16-.85.84L47,76.87l-1.06-.56-1,.56.19-1.16-.84-.84,1.16-.16Z"/><path class="cls-6" d="M70.73,77.52l.53,1.06,1.16.17-.84.83.19,1.16-1-.56-1,.56.22-1.16-.85-.83,1.16-.17Z"/><path class="cls-6" d="M96.22,88.34l.53,1.06,1.16.18-.84.82.19,1.16-1-.54-1,.54.19-1.16-.84-.82,1.18-.18Z"/><path class="cls-6" d="M65.86,57.6l.53,1,1.16.19-.84.81.19,1.17-1-.55-1,.55.2-1.17-.85-.81,1.18-.19Z"/><path class="cls-6" d="M54.84,58.75l-.6,1,.5,1.07-1.15-.25-.88.8L52.6,60.2l-1-.58,1.08-.47L52.89,58l.79.87Z"/><path class="cls-6" d="M58.08,65.18l-.23,1.16.84.83-1.17.15L57,68.37l-.5-1.06-1.17-.2.85-.8L56,65.15l1,.56Z"/><path class="cls-6" d="M75.65,63.38l.51,1.05,1.16.19-.84.81.21,1.17-1-.55-1.06.55.19-1.17L74,64.62l1.17-.19Z"/><path class="cls-6" d="M59.65,75.71l-.6,1,.5,1.07-1.15-.27-.88.8-.11-1.18-1-.57,1.09-.47L57.7,75l.79.89Z"/><path class="cls-6" d="M92.74,78l-.6,1,.5,1.08-1.15-.26-.88.8-.11-1.18-1-.57,1.09-.47.23-1.15.79.88Z"/><path class="cls-6" d="M55.83,93l-.61,1,.49,1.07-1.15-.27-.87.8-.1-1.17-1-.58,1.07-.46.25-1.16.77.89Z"/><path class="cls-6" d="M40.14,83.29l-.61,1L40,85.37l-1.15-.27-.86.8-.11-1.18-1-.57L38,83.68l.23-1.15.77.89Z"/><path class="cls-6" d="M69.13,67.82l-.61,1,.5,1.07-1.15-.26-.88.81-.1-1.18-1-.58L67,68.23l.22-1.16L68,68Z"/><path class="cls-6" d="M51,84.8l-.6,1,.5,1.08-1.15-.26-.88.8-.11-1.18-1-.59,1.09-.45L49.08,84l.79.89Z"/><path class="cls-6" d="M64,84.56l-.21,1.16.83.83-1.18.15L63,87.76l-.51-1.07-1.17-.18.87-.82L62,84.53l1,.56Z"/><path class="cls-6" d="M39.82,92.41l-.23,1.16.84.83-1.17.16-.54,1-.5-1.06-1.17-.2.85-.8-.18-1.16,1,.56Z"/><path class="cls-6" d="M12.35,66.05l-.22,1.17.84.83-1.18.15-.53,1.06-.52-1.07L9.58,68l.86-.82L10.26,66l1,.56Z"/></g></g></svg>