<svg xmlns="http://www.w3.org/2000/svg" viewBox="0 0 103.95 158"><defs><style>.cls-1,.cls-10,.cls-12,.cls-7{fill:none;stroke-miterlimit:10;stroke-width:0.28px;}.cls-1,.cls-12{stroke:#000;}.cls-2{fill:#b4b0a5;}.cls-3{fill:#3c3c3b;}.cls-4{fill:#fafafb;}.cls-5{fill:#dad8cc;}.cls-6{fill:#e30613;}.cls-7{stroke:#dadada;}.cls-8{fill:#908b84;}.cls-9{fill:#814114;}.cls-10{stroke:#a85318;}.cls-10,.cls-12{stroke-linecap:round;}.cls-11{fill:#a85318;}</style></defs><title>castillo</title><g id="Layer_2" data-name="Layer 2"><g id="Layer_1-2" data-name="Layer 1"><path class="cls-1" d="M21.07,48.79c0-1.53.89-12.76,1-14.16"/><path class="cls-1" d="M87.92,51.3c0-1.46-.18-12.89-.09-14.16"/><path class="cls-1" d="M53.48,15.83,53.38,0"/><path d="M39.39,52.92c0,.82,6.53,1.42,13.65,1.3s13.62-.86,13.61-1.69S60.12,51.12,53,51.22,39.37,52.09,39.39,52.92Z"/><path d="M80.09,71.3c0,.56,3.94.92,8.75.79s8.7-.68,8.69-1.24-3.93-.91-8.75-.79S80.07,70.73,80.09,71.3Z"/><path d="M27.88,69.69c0,.56-3.94.92-8.75.79s-8.71-.68-8.69-1.25,3.93-.91,8.75-.79S27.9,69.13,27.88,69.69Z"/><path class="cls-2" d="M23.44,151.7c-3.09.85-3.92,2-12.9,1.2A28.63,28.63,0,0,1,0,150s6.71-37,7.45-40.95a263.88,263.88,0,0,0,3.82-30.72c.6-7.8.07-12.84,3.27-14.84,2.18-1.37,10.9,2.72,11.45,4.26s-2,22-2,24.91,2,30.53,2.17,32.75S23.44,151.7,23.44,151.7Z"/><path class="cls-2" d="M34.89,115.78s2.72-33.28,3.27-35.15a4.8,4.8,0,0,1,2.54-2.72s1-24.56,1.46-27.65c.34-2.35,14-1.7,14-1.7s7.45-.52,8,2.9.55,27.48,1.1,27.82a3.77,3.77,0,0,1,2,2C67.78,82.7,70,115.62,69,116.47S36.88,115.43,34.89,115.78Z"/><path class="cls-2" d="M78.12,152.17a64.82,64.82,0,0,0,13.2,1c7.87-.12,12.11-3.19,12.6-3.65s-4-23-4-27.07-3.63-26.84-3.76-28-.44-22.8-.69-23.82-3.55-1.88-3.55-1.88-9.9.8-9.9,2.29a192.75,192.75,0,0,1-.17,21.83c-.6,8.52-2.37,21.2-2.88,24.23C77.77,124.19,76.55,150.24,78.12,152.17Z"/><path class="cls-3" d="M10.45,69.33a39.74,39.74,0,0,1,8.27-.89,43.8,43.8,0,0,1,9.17,1.15c-.7-3.88-6-25.67-6.45-26.27S13.2,61.07,10.45,69.33Z"/><path class="cls-3" d="M97.52,70.94a40,40,0,0,0-8.27-.89,43.67,43.67,0,0,0-9.17,1.15c.7-3.89,7.08-25.68,7.54-26.28S96,66.31,97.52,70.94Z"/><path class="cls-3" d="M66.64,52.66c-.42,0-4.24-2.29-12.93-2.13a49.36,49.36,0,0,0-14.32,2.23C40.49,47,52.51,12.49,53.2,11.62S64.44,45.79,66.64,52.66Z"/><path class="cls-4" d="M15.19,104.08s-.08-5.09.45-6.41,2.45-1.32,2.74,1a33.38,33.38,0,0,1,.08,5.44Z"/><path class="cls-4" d="M16.89,79.26c0-.32,0-4.89.52-5.93s2.15-.92,2.52.64-.74,5.68-.74,5.68Z"/><path class="cls-5" d="M14.68,105.25a40.89,40.89,0,0,0,4.6.08s.29-1.82,0-1.82-4.38-.42-4.68-.13S14.08,105.05,14.68,105.25Z"/><path class="cls-4" d="M13.18,138.21s-.07-5.08.45-6.4,2.45-1.32,2.75,1a34.56,34.56,0,0,1,.08,5.43Z"/><path class="cls-5" d="M12.66,139.4a40.69,40.69,0,0,0,4.6.07s.3-1.81,0-1.81-4.38-.42-4.67-.13S12.07,139.2,12.66,139.4Z"/><path class="cls-4" d="M87.79,138.56s-.07-5.09.45-6.4,2.46-1.32,2.75,1a34.56,34.56,0,0,1,.08,5.43Z"/><path class="cls-5" d="M87.27,139.74a40.66,40.66,0,0,0,4.6.07s.29-1.81,0-1.81-4.38-.42-4.68-.13S86.67,139.53,87.27,139.74Z"/><path class="cls-5" d="M16.58,80c.3,0,2.6.27,3,.27s.59-1.46.08-1.46-3.19-.28-3.41-.07S15.7,79.86,16.58,80Z"/><path class="cls-4" d="M87.87,104s-.08-4.38.45-5.51,2.45-1.14,2.75.84a25.16,25.16,0,0,1,.07,4.67Z"/><path class="cls-5" d="M87.35,105.48a40.64,40.64,0,0,0,4.6.07s.29-1.81,0-1.81-4.38-.42-4.68-.14S86.76,105.28,87.35,105.48Z"/><path class="cls-4" d="M88.19,81.1c0-.3-.56-4.56-.15-5.59a1.38,1.38,0,0,1,2.58.33c.55,1.42-.09,5.38-.09,5.38Z"/><path class="cls-5" d="M88,81.84c.3,0,2.61,0,3.06,0s.4-1.53-.11-1.47-3.2.06-3.39.3S87.08,81.8,88,81.84Z"/><path class="cls-6" d="M31.86,37.16a19.17,19.17,0,0,0-3.46-1.45c-1.86-.37-2.57.09-4.11-.06A8.8,8.8,0,0,1,22,34.88l-.3,3.4a4.89,4.89,0,0,0,4.52,0A10.41,10.41,0,0,1,31.86,37.16Z"/><path class="cls-6" d="M97.9,39.66a19.86,19.86,0,0,1-3.56,1.24c-1.89.26-2.56-.25-4.1-.19a8.39,8.39,0,0,0-2.37.64l-.06-3.41a4.9,4.9,0,0,1,4.51.31A10.41,10.41,0,0,0,97.9,39.66Z"/><path class="cls-6" d="M66.71,2.27a12.93,12.93,0,0,1-5,2.36c-2.42.33-3.26-.32-5.26-.25a11.16,11.16,0,0,0-3,.8L53.38.83a6.26,6.26,0,0,1,5.77.39C61.94,2.75,63.66,2.28,66.71,2.27Z"/><path class="cls-4" d="M50.43,64.21a36.62,36.62,0,0,1-.38-6.06c.46-2.48,4.64-2.91,4.55.6-.07,3.16-.27,5.71-.27,5.71Z"/><path class="cls-4" d="M46,100s0-6.69.09-10.62c.18-5.54,10.61-6.62,10.91-.2.4,8.23-.59,10.82-.59,10.82Z"/><path class="cls-7" d="M51.92,99.82l-.21-8.23L46,91.47"/><path class="cls-7" d="M51.54,84.44l.17,7.15,5.59-.12"/><path class="cls-5" d="M49.7,65.32c.7.4,4.81.25,5.27.09s.54-1.54-.08-1.62-5.09-.26-5.37,0A1.21,1.21,0,0,0,49.7,65.32Z"/><path class="cls-5" d="M45.06,101.83c.51.39,12.8.09,13.44,0,.33-.7.64-7,.18-7.24s-2.91-.35-2.91.16.37,2.48,0,2.56a8.72,8.72,0,0,1-2.55,0c-.35-.17,0-2.72-.35-2.72S50,94.42,50,94.75s.36,2.56.09,2.56-2.54.35-2.54,0,0-2.56-.37-2.56-2.36-.16-2.36.26S44.88,101.13,45.06,101.83Z"/><path class="cls-8" d="M77.29,121.58s-1.77,4.32-.34,4.49,10,.21,14.21,0a63.93,63.93,0,0,0,9.39-1.17c.18-.17-.12-4-.57-4.29S77.29,121.58,77.29,121.58Z"/><path class="cls-8" d="M81,89.58s.18,4.11.65,4.11a39.38,39.38,0,0,1,8-.72c3.39.08,6.68.83,7,.77s.82-4.11.59-4.38S89.4,88.3,89.4,88.3Z"/><path class="cls-8" d="M27.48,121.58s1.78,4.32.35,4.49-10,.21-14.21,0a63.93,63.93,0,0,1-9.39-1.17c-.18-.17.11-4,.55-4.29S27.48,121.58,27.48,121.58Z"/><path class="cls-8" d="M9.71,87.23s-.23,4.3,0,4.72c1.21.06,3.46-.54,7.91-.36s7,1.29,7,1,.64-4.14,0-4.23S10.26,87.05,9.71,87.23Z"/><path class="cls-8" d="M37,79.7c-.06.38.13,3.75.36,3.81a151.64,151.64,0,0,1,15.14-1,93.22,93.22,0,0,1,15.4,1.2c0-.26.14-4.41-.4-4.77s-19.72-.77-19.72-.77Z"/><path class="cls-5" d="M75.84,122.65a115.22,115.22,0,0,0,14.34.45,98.66,98.66,0,0,0,10.91-1.1c.17-.08.81-6.57.44-6.66a19.29,19.29,0,0,0-3.63,0c-.17.15.08,3.76-.2,3.76s-3,.39-3.42.39.59-3.77-.16-3.88a16.12,16.12,0,0,0-4.41.35c-.09.24.41,3.73,0,3.73s-3.58.28-3.79.19-.08-4-.41-4-3.75-.31-3.87.08-.13,3.76-.39,3.76-3-.17-3.19-.24.61-4,.37-4-3-.71-3.12-.4-1.66,6-1.42,6.41A9.66,9.66,0,0,0,75.84,122.65Z"/><path class="cls-5" d="M28.94,122.65a115.32,115.32,0,0,1-14.35.45A99,99,0,0,1,3.68,122c-.17-.08.28-6.57.65-6.66a15.13,15.13,0,0,1,3.27.29c.17.16-.44,3.42-.15,3.42s2.67.39,3.05.39.14-3.77.9-3.88a13.3,13.3,0,0,1,4,.35c.09.24-.4,3.73,0,3.73s3.22.28,3.43.19.07-4,.41-4,3.74-.32,3.87.08.13,3.76.38,3.76,3-.17,3.19-.24-.61-3.95-.37-4,3-.71,3.12-.4,1.66,6,1.42,6.41A9.6,9.6,0,0,1,28.94,122.65Z"/><path class="cls-5" d="M79.67,86.31c-.06.27,1.11,4.77,1.35,4.77a36.85,36.85,0,0,1,8.74-1.29,30.4,30.4,0,0,1,7.9,1.13c.29,0,1.65-4.94,1.35-5.1a16.67,16.67,0,0,0-2.65-.72c-.23,0-.41,2.71-.66,2.71s-1.12-.28-1.41-.34.34-2.83,0-2.88a13.36,13.36,0,0,0-2.84-.17c0,.17,0,2.61-.23,2.61s-1.65.06-2,0-.17-2.77-.35-2.77a25.81,25.81,0,0,0-3,.33c-.18.11.41,2.67.18,2.67s-2,.46-2.27.42S83.09,85,82.92,85,79.85,85.59,79.67,86.31Z"/><path class="cls-5" d="M8.24,83.93c-.17.72.92,5.1,1,5.45s3-.76,8.07-.59a28,28,0,0,1,8.13,1.3,45.62,45.62,0,0,0,1.35-5.59c.09-.56-2.44-.94-2.53-.7s-.37,2.87-.37,2.87-1.59-.13-2.08-.24c0-.45.46-2.29.4-2.7a5.64,5.64,0,0,0-2.93-.07A24.73,24.73,0,0,0,19,86.22a19.14,19.14,0,0,1-2.43,0c-.15-.32.26-2.8,0-2.88s-2.67-.2-2.78,0,.14,2.86,0,2.86-1.71.34-1.88.34a13.73,13.73,0,0,1-.38-3A8.08,8.08,0,0,0,8.24,83.93Z"/><path class="cls-5" d="M35.73,74.11c-.06.3.36,6.26.81,6.37s8.23-1.26,16.11-1.14a129.4,129.4,0,0,1,15.27,1.14c.33,0,1.53-6.06,1.09-6.37a8.34,8.34,0,0,0-3.15-.74,21,21,0,0,1-.5,3.16c-.18,0-2.4,0-2.68-.13s.09-3.71-.14-3.76-3.55-.13-3.77-.08,0,3.45-.23,3.49-3.22-.25-3.36-.22.14-3.58-.27-3.58-3.18.16-3.45.16,0,3.54-.32,3.54a26.26,26.26,0,0,1-3.77,0c-.27-.16-.09-3.32-.27-3.45a24.08,24.08,0,0,0-4.22.17c-.23.13.17,3.4,0,3.45s-3,.3-3.23.3-.06-3.28-.55-3.24S35.81,73.73,35.73,74.11Z"/><path class="cls-5" d="M31.8,110.65c.47.42,5.29.33,5.49.11s0-5.16.28-5.35a33.93,33.93,0,0,1,6.47-.26c.35.21,0,5,.23,5.16s4.83.52,4.93.28-.28-5,0-5.11a28.94,28.94,0,0,1,5.21-.14c.41.19.23,5.47.52,5.53s4.43.28,4.6,0,0-4.82.31-4.82S66,105.65,66,106a46.67,46.67,0,0,0,0,5c.18.16,5.21,0,5.7,0s.66-4.34.91-4.68,6.17-.51,6.54-.06,3.2,42.46,4.11,50.28c-15.84,1.61-51.18,1.63-64.3.07.87-5.79,6.26-45.56,6.44-46.41s.64-4.78,1-5a23.65,23.65,0,0,1,5.36.34C32.07,105.84,31.26,110.16,31.8,110.65Z"/><path class="cls-4" d="M28.21,134.37c0-.57.06-7.07,1.57-8.42s3.54-.38,3.54,2.7a34.09,34.09,0,0,1-.59,6Z"/><path class="cls-4" d="M70.18,135.69c-.08-.38-.62-6.75.12-8.49a2.35,2.35,0,0,1,4-.22c1.1,2.22,1.1,7.81,1.1,8.33S70.18,135.69,70.18,135.69Z"/><path class="cls-9" d="M38,144.15c-.19,2.82-.75,10.48-.93,13.77,6.41.07,26.46.07,26.56.08.14-4.33-.28-13.29-.28-16.39,0-6.06-2.19-12.81-12.26-13.22C39.72,127.9,38.26,140.05,38,144.15Z"/><path class="cls-10" d="M55.55,157.47l.61-27.68"/><path class="cls-10" d="M46.49,129.79l-1.34,27.54"/><path class="cls-10" d="M40.59,157.27l1-22.06"/><path class="cls-10" d="M60.06,132.08l-.16,25.46"/><path class="cls-11" d="M37.62,149.09c5.93.39,20.47.4,25.9.68,0-1.61.06-3.17.09-4.51-6-.34-20.34-.21-25.68-.45C37.74,145.91,37.78,147.47,37.62,149.09Z"/><path class="cls-8" d="M27.16,135c.86.13,5.78.52,6,.52s.41-1.88.08-1.94a50.65,50.65,0,0,0-6-.34C27.25,133.45,26.75,135,27.16,135Z"/><path class="cls-8" d="M70.11,136.71a27.51,27.51,0,0,0,5.75-.06c.49-.19.76-1.93-.2-1.93s-5.89-.26-6.09.27S69.49,136.52,70.11,136.71Z"/><path d="M63.29,140.43c-1.15,0-2.58-.09-2.58-.09a1.7,1.7,0,0,0,.09-1.23c-.22-.58-1.14-.27-1.35.15a1.65,1.65,0,0,1-1.15.86c-.42,0-.4.16-.23.21a2.05,2.05,0,0,1,1.08,1.06c.2.58.31,1.46,1,1.16s.45-1.19.45-1.19l2.71.32C63.31,141.32,63.33,140.82,63.29,140.43Z"/><path d="M41.2,140.69s-.42.82.24,1.18,1-.42,1.24-1a2.06,2.06,0,0,1,.91-1c.31-.11.2-.1-.14-.27a2.3,2.3,0,0,1-1-1c-.23-.41-1.06-.83-1.34-.26a1.32,1.32,0,0,0,.23,1.22l-2.77-.06a3.41,3.41,0,0,0-.22,1.07Z"/><path d="M63.61,153.42c-1.15,0-2.58-.1-2.58-.1a1.67,1.67,0,0,0,.09-1.22c-.22-.59-1.14-.28-1.35.14s-.73,1-1.15,1-.41.14-.23.19a1.76,1.76,0,0,1,1.08.93c.19.59.31,1.46,1,1.16s.45-1.19.45-1.19l2.71.32C63.61,154.3,63.65,153.81,63.61,153.42Z"/><path d="M40,153.68s-.42.83.25,1.19,1-.42,1.24-1a1.57,1.57,0,0,1,.9-.83c.31-.11.21-.1-.14-.27a2.6,2.6,0,0,1-.94-1.11c-.23-.41-1.06-.83-1.34-.27a1.3,1.3,0,0,0,.23,1.23l-2.83-.06a9.45,9.45,0,0,0-.07,1.12Z"/><path class="cls-12" d="M50.25,157.75l1.07-28.41"/></g></g></svg>