<svg xmlns="http://www.w3.org/2000/svg" viewBox="0 0 157 124.11"><defs><style>.cls-1{fill:#92c131;}.cls-2{fill:#a85318;}.cls-3{fill:#814114;}.cls-4{fill:none;stroke:#000;stroke-linecap:round;stroke-linejoin:round;stroke-width:0.45px;}.cls-5{fill:#fff;}</style></defs><title>hormiguero</title><g id="Layer_2" data-name="Layer 2"><g id="Layer_1-2" data-name="Layer 1"><path class="cls-1" d="M105.63,53.32a11.39,11.39,0,0,1,2.31-4.52c1.73-2,3.29-3.77,3.29-3.77l-.92,5.4a44,44,0,0,1,7-8.8c3.78-3.39,5-3.11,5-3.11s-4.69,5.88-6.37,9.59a25,25,0,0,0-2,7.06,42.41,42.41,0,0,1,4.55-4.5,5.92,5.92,0,0,1,3.81-1.56,17.46,17.46,0,0,0-4.75,5.43,60.32,60.32,0,0,0-2.86,6.5Z"/><path class="cls-1" d="M139.44,79.56c3.86-2.1,7.18-3.47,7.18-3.47a65.37,65.37,0,0,0-6.12,6.63A40.92,40.92,0,0,0,137.39,88s3.11-2,6.62-3.75,13-2.76,13-2.76-9.13,3.71-12.29,6.52-7.91,7.14-7.91,7.14L131,89.39S135.58,81.66,139.44,79.56Z"/><path class="cls-1" d="M21.25,88.2a11.61,11.61,0,0,0-2.72-4.29c-1.91-1.78-5-5.51-5-5.51l2.81,7.37a43.18,43.18,0,0,0-7.77-8.1c-4.1-3-5.32-2.62-5.32-2.62s5.23,5.41,7.27,9a25.15,25.15,0,0,1,2.66,6.84s-2.48-1.43-4.81-2.94a5.86,5.86,0,0,0-3.93-1.19,17.61,17.61,0,0,1,5.25,5c2,3.11,3.32,5.08,3.32,5.08Z"/><path class="cls-1" d="M47.54,42.56c-1.49-2.73-2.94-4.8-2.94-4.8A48.25,48.25,0,0,1,45.71,44a29.36,29.36,0,0,1-.17,4.32S44.46,46,43.06,43.6,36.41,37,36.41,37s4,5.69,4.8,8.56,2,7.26,2,7.26l5.62-1.19S49,45.28,47.54,42.56Z"/><path class="cls-2" d="M.13,116.28c23.12,6.13,34.76,8.93,74.78,7.43,43.7-1.64,63.24-8.86,72.83-14.75-3.55-7.41-8.7-9.32-13.41-18.66-3-5.93-4.42-7.5-9.74-14.52-4.6-6.06-6-9-10.08-17-3.36-6.55-10-9.77-13.55-16.17C96.89,35.26,91.62,31.48,87,26c-2-2.31-2.8-8.27-4.54-8s-3,1.72-4.38,2.82c-2.47,2-5.59,2.71-8.49,3.35A19.08,19.08,0,0,1,60.63,24c-1.4-.36-1.48-4.26-2.68-3.87S55.3,22.05,54,27c-1,3.77-5.72,5.73-8.41,11S37.4,50.24,36.38,54.53C34.82,61.22,25.51,68.87,23.9,76.3c-1,4.78-12.24,20.81-14.85,25.07-3,4.85-6.89,7.35-9,14.47"/><path class="cls-3" d="M56.62,21.86c-1,2.14,7.49,5.67,14.64,4.34,6.75-1.25,13.88-3.87,12-7.5-5.16-3.16-8.45-3-13.9-2.46C61.31,17.06,58.2,20.13,56.62,21.86Z"/><path class="cls-3" d="M64.74,56.66a2.25,2.25,0,0,1-2.26,2.25c-1.24,0-3-1-3-2.25s1.73-2.25,3-2.25A2.26,2.26,0,0,1,64.74,56.66Z"/><path class="cls-3" d="M79.62,42.39a2.25,2.25,0,0,1-2.25,2.25c-1.25,0-3-1-3-2.25s1.73-2.25,3-2.25A2.24,2.24,0,0,1,79.62,42.39Z"/><path class="cls-3" d="M107.85,71.64a2.24,2.24,0,0,1-2.24,2.25c-1.24,0-3-1-3-2.25s1.74-2.25,3-2.25A2.26,2.26,0,0,1,107.85,71.64Z"/><path class="cls-3" d="M71.1,92.58a2.25,2.25,0,0,1-2.25,2.25c-1.24,0-3-1-3-2.25s1.73-2.25,3-2.25A2.25,2.25,0,0,1,71.1,92.58Z"/><path class="cls-3" d="M83,71.64c.53,1.36-1,2.25-2.25,2.25a2.25,2.25,0,1,1,0-4.5C82,69.39,82.57,70.49,83,71.64Z"/><path class="cls-3" d="M52.11,75c.52,1.35-1,2.25-2.25,2.25a2.25,2.25,0,1,1,0-4.5C51.1,72.79,51.66,73.88,52.11,75Z"/><path class="cls-3" d="M80.66,112c.52,1.36-1,2.25-2.25,2.25a2.25,2.25,0,1,1,0-4.5C79.65,109.72,80.21,110.82,80.66,112Z"/><path class="cls-3" d="M118.92,80.29a1.74,1.74,0,0,1-1.7,2.27c-1.09,0-2.07-.54-2.07-1.61a2,2,0,0,1,2.07-2C118.32,79,118.53,79.28,118.92,80.29Z"/><path class="cls-3" d="M51.69,103.66a1.72,1.72,0,0,1-1.7,2.26c-1.08,0-2.07-.53-2.07-1.6a2.06,2.06,0,0,1,2.07-2C51.08,102.35,51.29,102.65,51.69,103.66Z"/><path class="cls-3" d="M66.57,35.06a1.73,1.73,0,0,1-1.7,2.27c-1.08,0-2.07-.54-2.07-1.61a2.06,2.06,0,0,1,2.07-2C66,33.75,66.17,34.07,66.57,35.06Z"/><path class="cls-3" d="M119.89,111.49a1.74,1.74,0,0,1-1.7,2.27c-1.09,0-2.07-.54-2.07-1.61a2,2,0,0,1,2.07-2C119.27,110.18,119.48,110.5,119.89,111.49Z"/><path class="cls-3" d="M92,86.92a1.73,1.73,0,0,1-1.7,2.27c-1.08,0-2.07-.54-2.07-1.61a2,2,0,0,1,2.07-2C91.4,85.6,91.61,85.91,92,86.92Z"/><path class="cls-3" d="M32.72,111.49a1.74,1.74,0,0,1-1.7,2.27c-1.08,0-2.07-.54-2.07-1.61a2,2,0,0,1,2.07-2C32.12,110.18,32.33,110.5,32.72,111.49Z"/><path class="cls-3" d="M36.29,82.08a1.73,1.73,0,0,1-1.69,2.27c-1.09,0-2.08-.54-2.08-1.61a2.05,2.05,0,0,1,2.08-2C35.7,80.77,35.91,81.07,36.29,82.08Z"/><path class="cls-3" d="M100.05,51.89a2.25,2.25,0,0,1-2.25,2.25c-1.25,0-3-1-3-2.25s1.73-2.24,3-2.24A2.25,2.25,0,0,1,100.05,51.89Z"/><path class="cls-3" d="M132,99a2.24,2.24,0,0,1-2.24,2.25c-1.26,0-3-1-3-2.25s1.72-2.25,3-2.25A2.25,2.25,0,0,1,132,99Z"/><path class="cls-3" d="M102,101.89a2.25,2.25,0,0,1-2.25,2.25c-1.23,0-3-1-3-2.25s1.73-2.25,3-2.25A2.24,2.24,0,0,1,102,101.89Z"/><path class="cls-3" d="M32.06,98.46a2.25,2.25,0,0,1-2.25,2.25c-1.25,0-3-1-3-2.25s1.73-2.25,3-2.25A2.25,2.25,0,0,1,32.06,98.46Z"/><path class="cls-1" d="M101.06,102.1c.78-1.77,1.34-4.44,3.37-7s4.7-5.58,4.7-5.58a18.93,18.93,0,0,0-6,4.21,43.87,43.87,0,0,0-4.93,7.48s-1,2,.16,2.58C99.68,104.47,100.73,102.83,101.06,102.1Z"/><path class="cls-1" d="M61.25,57.54a18.45,18.45,0,0,0-2.36-4.92c-1.42-1.78-3.31-3.93-3.31-3.93a13.19,13.19,0,0,1,4.24,3,31.23,31.23,0,0,1,3.47,5.25s.67,1.42-.11,1.8C62.24,59.21,61.48,58.06,61.25,57.54Z"/><path class="cls-4" d="M122.79,55.62s-4,9.19-4.91,9.78-4-1.31-4-1.31"/><path class="cls-4" d="M116.18,47s-4.13,9.38-5.06,10-4-1.33-4-1.33"/><path class="cls-4" d="M110.36,38.85s-9.91,2-10.9,1.52-1.06-3.59-1.06-3.59"/><path class="cls-4" d="M126,15.39s6.88-10.13,6.56-11.2S128,2.39,128,2.39"/><path class="cls-4" d="M118.55,13.4s3.57-11.71,3-12.63-4.86-.39-4.86-.39"/><path class="cls-3" d="M131.88,48.42a19.92,19.92,0,0,0-9.54-6.7c1.73-4.15.2-9.92-6.73-10.5-1.87-.09-4.35.12-5.54,1.83a11.59,11.59,0,0,0-1.77,4.68c-.28,4.13,1.88,6.26,5.61,7.74a7,7,0,0,0,1.9.47c-1.54,4.29,3.53,10.51,6.74,12.24,2.79,1.53,9.19,4.17,11.65,1.5C137.25,56.73,134,50.81,131.88,48.42Z"/><path class="cls-2" d="M104.82,22.26c-.17,10.14,11.18,13,18.55,9,4.51-2.55,6.78-6.45,5.69-11.89-1.25-5.64-7.39-8.08-8.91-8.49S105,8.32,104.82,22.26Z"/><path class="cls-5" d="M108.7,10.07c-4.53.29-5.21,6.44-1.55,7.9,2.55,1,5.47-1.06,5.71-3.86A3.64,3.64,0,0,0,108.7,10.07Z"/><path class="cls-5" d="M116.76,23.66c4.62,2,6.43-1,7.13-2.65,1.82-4.46-3.93-8.11-7.5-5C114.14,17.92,114,22.32,116.76,23.66Z"/><path d="M109,13.6a.74.74,0,0,0,.16,1.27.75.75,0,0,0,1-.6C110.18,13.74,109.7,13.28,109,13.6Z"/><path d="M120.27,20.37a.89.89,0,0,0,1.45,0,.79.79,0,0,0-.48-1.2A.86.86,0,0,0,120.27,20.37Z"/><path class="cls-4" d="M108.82,24.63c.88,4.25,4.86,3.38,5.94,1.53"/></g></g></svg>