<svg xmlns="http://www.w3.org/2000/svg" viewBox="0 0 151.63 103.58"><defs><style>.cls-1{fill:#f39200;}.cls-2{fill:#00a0a4;}.cls-3{fill:#007572;}.cls-4{fill:#2fac66;}.cls-5{fill:#fff;}.cls-6{fill:none;stroke:#007572;stroke-linecap:round;stroke-width:0.66px;}</style></defs><title>pajaro</title><g id="Layer_2" data-name="Layer 2"><g id="Layer_1-2" data-name="Layer 1"><path class="cls-1" d="M86.89,84.35c-.81,5.45.85,12.23,1.47,17.73.09.85-1.26.85-1.36,0-.61-5.62-2.43-12.54-1.4-18.09C85.74,83.12,87,83.52,86.89,84.35Z"/><path class="cls-1" d="M85.49,95.16c-.58,1-1.18,2.06-1.78,3.08-.42.71-1.82,2.71-1.92,3-.17.58,0,1.53.84,1A5.86,5.86,0,0,0,84,100.46c.94-1.51,1.84-3.06,2.72-4.61C87.07,95.08,85.91,94.4,85.49,95.16Z"/><path class="cls-1" d="M86.18,94.66A34.5,34.5,0,0,0,80,97.09c-.72.34-.41,1.63.33,1.28a32.59,32.59,0,0,1,6.14-2.44C87.28,95.7,86.94,94.43,86.18,94.66Z"/><path class="cls-1" d="M74.34,83.2a69.29,69.29,0,0,0,.39,12c.09.86,1.4.58,1.32-.27A70.14,70.14,0,0,1,75.7,83.3.68.68,0,0,0,74.34,83.2Z"/><path class="cls-1" d="M74.65,93.83c-1.1.37-5.31,1.33-5.89,1.67-.87.51-.82,1.54,0,1.45a16.1,16.1,0,0,0,2.3-.57c1.37-.37,2.71-.84,4-1.29A.67.67,0,0,0,74.65,93.83Z"/><path class="cls-1" d="M74.66,94.41c-.93,1.42-4.14,4.54-4.48,5,0,0-.08.08-.11.13-.44.64.43,1.34,1,.87a23.66,23.66,0,0,0,4.73-5.26C76.28,94.43,75.15,93.69,74.66,94.41Z"/><path class="cls-1" d="M74.87,95.43c0,1,.16,5,.32,6.15.12.85,1.46.8,1.34,0-.17-1.36-.09-5.78-.74-7.08C75.4,93.67,74.71,94.45,74.87,95.43Z"/><path d="M0,7.1c5.42-.56,29.56,1.09,35.93,1.52,7.16.5,14.36,1.13,21.55.71-1,.07-2.81,5.21-3.11,6.1-.76,2.26-.66,4.56-1.15,6.81-1.53-.29-3.4-1.78-5-2.37a108.45,108.45,0,0,0-10.6-3C29.89,14.83,22.1,13,14.37,11,11.52,10.22,2.89,7.67,0,7.1Z"/><path class="cls-2" d="M98.38,31.77C93.44,21.3,89.41,2.85,75.76.49,51.25-3.72,50.59,20.09,51.32,36.84,54.4,49.37,63.84,52.86,76,49.37c7.2-2,11.91-5.55,16.23-11.5A54.18,54.18,0,0,1,98.38,31.77Z"/><path class="cls-3" d="M102.86,72.36c2.26,1.86,4.73,3.91,7.18,5.74,3.91,3.09,5.92,5.52,9.83,8.81a98.61,98.61,0,0,0,27.95,16.67c-7.59-6.16-14.37-10.7-21.15-18.3A143.18,143.18,0,0,0,115.38,74c-2.47-2-7-9.24-10.07-9.65"/><path class="cls-3" d="M120.32,70.72c3.08,5.13,7.14,6.76,11.66,10.66a106.83,106.83,0,0,0,19.65,12.74c-9-2.71-13.95-4.43-21.86-8.63-5.5-2.9-9.65-6.56-14.16-10.68-2.26-2.26-4.31-4.72-6.57-7.18-.21-.42-2.05-2.67-1-1.24"/><path class="cls-4" d="M68.26,44.08c5.13,0,9.11-1.19,12.81-4.47,3.48-3.08,6-8.42,10.68-9.86,6-1.64,8.42,1.86,10.26,6.57,1.85,4.31,4.51,8,6.16,12.12,3.29,8,4.84,17.79-.5,25.39-4.94,7.39-14.29,10.34-22.91,10.76-4.92.23-20.68,1.79-31.21-13.1-5.64-7.94-6.46-25.8-2.7-32.35.26-.74.84-1.69.61-1.67C51.48,37.47,55.27,44.08,68.26,44.08Z"/><path class="cls-2" d="M131.26,77.49c-3.12,0-10.3-2.08-13.25-3-3.74-1.21-13.81-4.28-19.68-9.7-8.23-7.6-12.62-17.18-13.54-22.52C82.57,29.34,94.64,25.32,97.52,28c3.1,2.84,15.31,21.43,17.38,26.49C119.9,66.67,125.26,71.93,131.26,77.49Z"/><path class="cls-5" d="M65.26,11.06c-6.18,1.76-5.75,10.82.21,12.35C77.18,26.29,74.15,7.89,65.26,11.06Z"/><path d="M66.35,15.9c-1.19.34-1.13,2.22,0,2.37C68.53,18.54,68.06,15.28,66.35,15.9Z"/><path class="cls-6" d="M58.64,65.81a14.11,14.11,0,0,0,1.42,6.08"/><path class="cls-6" d="M66.56,58.47a8.94,8.94,0,0,0,1.7,4.5"/><path class="cls-6" d="M72.16,48.61a13.29,13.29,0,0,0,1.73,5.7"/><path class="cls-6" d="M81.83,44.08a13.45,13.45,0,0,0,3.06,5.1"/><path class="cls-6" d="M74.18,66a9.7,9.7,0,0,0,3.72,5.68"/><path class="cls-6" d="M53.51,44.4a30.68,30.68,0,0,0-1.93,6.1"/><path class="cls-6" d="M87.28,71.73a10.65,10.65,0,0,0,5,3.26"/><path class="cls-6" d="M58.64,52.32A18.45,18.45,0,0,0,57.38,58"/><path class="cls-6" d="M68.81,72.67a21.62,21.62,0,0,0,2.24,5"/><path class="cls-6" d="M82.21,59.41c1.44,3.13,3.45,4.38,4,5.13"/></g></g></svg>