<svg xmlns="http://www.w3.org/2000/svg" viewBox="0 0 165.7 138.05"><defs><style>.cls-1{fill:#c4c0b4;}.cls-2{fill:#fff;}</style></defs><title>burbujasRana</title><g id="Layer_2" data-name="Layer 2"><g id="Layer_1-2" data-name="Layer 1"><path class="cls-1" d="M56.93,47.78a25,25,0,1,1-25-25A25,25,0,0,1,56.93,47.78Z"/><path class="cls-2" d="M37,58.28c-.23,0-.31-.08-.4-.31l-4.32-8.83H27.5a.17.17,0,0,0-.19.19V58a.29.29,0,0,1-.32.31H24.81a.29.29,0,0,1-.32-.31V37a.29.29,0,0,1,.32-.32h7.8c4,0,6.77,2.46,6.77,6.22a5.89,5.89,0,0,1-4.26,5.87l4.59,9.1c.13.2,0,.39-.19.39H37Zm-.44-15.36c0-2.26-1.5-3.58-4-3.58h-5a.18.18,0,0,0-.19.2v6.78a.17.17,0,0,0,.19.19h5C35,46.51,36.54,45.18,36.54,42.92Z"/><path class="cls-1" d="M165.7,53.67a25,25,0,1,1-25-25A25,25,0,0,1,165.7,53.67Z"/><path class="cls-2" d="M139.47,65.84a.29.29,0,0,1-.32-.31V47.1a.18.18,0,0,0-.19-.2h-5.91a.29.29,0,0,1-.31-.31v-2a.29.29,0,0,1,.31-.31h15a.29.29,0,0,1,.31.31v2a.29.29,0,0,1-.31.31h-5.91a.18.18,0,0,0-.19.2V65.53a.29.29,0,0,1-.32.31Z"/><path class="cls-1" d="M105.71,83.3a25,25,0,1,1-25-25A25,25,0,0,1,105.71,83.3Z"/><path class="cls-2" d="M79,73.86a.3.3,0,0,1,.31-.32h2.19a.3.3,0,0,1,.31.32V94.79a.29.29,0,0,1-.31.32H79.28a.29.29,0,0,1-.31-.32Z"/><path class="cls-1" d="M157.91,113.08a25,25,0,1,1-25-25A25,25,0,0,1,157.91,113.08Z"/><path class="cls-2" d="M131.2,102.09c.07-.2.16-.32.39-.32h2.06a.41.41,0,0,1,.42.32L141.46,123c.07.19,0,.31-.23.31H139a.36.36,0,0,1-.41-.31L137,118.31h-8.72L126.57,123a.42.42,0,0,1-.42.31h-2.22c-.2,0-.29-.12-.23-.31ZM136,115.72l-3.4-9.79h-.07l-3.42,9.79Z"/><path class="cls-1" d="M49.93,107.46a25,25,0,1,1-25-25A25,25,0,0,1,49.93,107.46Z"/><path class="cls-2" d="M16.91,96.69a.3.3,0,0,1,.32-.31h2a.53.53,0,0,1,.54.31l9.76,16.18h.13V96.69a.29.29,0,0,1,.31-.31h2a.29.29,0,0,1,.32.31v20.94a.29.29,0,0,1-.32.31H30a.57.57,0,0,1-.55-.31L19.63,101.5h-.09v16.13a.3.3,0,0,1-.32.31h-2a.3.3,0,0,1-.32-.31Z"/><path class="cls-1" d="M114.13,25a25,25,0,1,1-25-25A25,25,0,0,1,114.13,25Z"/><path class="cls-2" d="M87.44,14c.07-.19.16-.32.37-.32h2.06a.42.42,0,0,1,.42.32L97.68,34.9c.07.2,0,.32-.23.32H95.23a.37.37,0,0,1-.41-.32l-1.65-4.7H84.45l-1.66,4.7a.43.43,0,0,1-.42.32H80.18c-.19,0-.28-.12-.23-.32Zm4.83,13.64-3.4-9.8H88.8l-3.42,9.8Z"/></g></g></svg>