<svg xmlns="http://www.w3.org/2000/svg" viewBox="0 0 210.19 163.01"><defs><style>.cls-1{fill:#c4c0b4;}.cls-2{fill:#fff;}</style></defs><title>burbujasChicharra</title><g id="Layer_2" data-name="Layer 2"><g id="Layer_1-2" data-name="Layer 1"><path class="cls-1" d="M50,92.48a25,25,0,1,1-25-25A25,25,0,0,1,50,92.48Z"/><path class="cls-1" d="M110.24,84.48a25,25,0,1,1-25-25A25,25,0,0,1,110.24,84.48Z"/><path class="cls-1" d="M78.72,38.45a25,25,0,1,1-25-25A25,25,0,0,1,78.72,38.45Z"/><path class="cls-1" d="M90.51,138.05a25,25,0,1,1-25-25A25,25,0,0,1,90.51,138.05Z"/><path class="cls-1" d="M210.19,115.69a25,25,0,1,1-25-25A25,25,0,0,1,210.19,115.69Z"/><path class="cls-1" d="M152.22,131.58a25,25,0,1,1-25-25A25,25,0,0,1,152.22,131.58Z"/><path class="cls-1" d="M168.47,75a25,25,0,1,1-25-25A25,25,0,0,1,168.47,75Z"/><path class="cls-1" d="M138.2,25a25,25,0,1,1-25-25A25,25,0,0,1,138.2,25Z"/><path class="cls-1" d="M199.62,25a25,25,0,1,1-25-25A25,25,0,0,1,199.62,25Z"/><path class="cls-2" d="M17.25,81.74a.29.29,0,0,1,.32-.32h2.18a.3.3,0,0,1,.32.32v8.84a.17.17,0,0,0,.19.19h9.36a.17.17,0,0,0,.19-.19V81.74a.29.29,0,0,1,.32-.32h2.18a.29.29,0,0,1,.32.32v20.93a.29.29,0,0,1-.32.31H30.13a.29.29,0,0,1-.32-.31V93.59a.17.17,0,0,0-.19-.19H20.26a.17.17,0,0,0-.19.19v9.08a.3.3,0,0,1-.32.31H17.57a.29.29,0,0,1-.32-.31Z"/><path class="cls-2" d="M83.85,73.75c.07-.19.15-.31.38-.31h2.06a.42.42,0,0,1,.43.31L94.1,94.68c.07.2,0,.32-.23.32H91.65a.35.35,0,0,1-.4-.32L89.59,90H80.87l-1.66,4.68a.43.43,0,0,1-.42.32H76.57c-.19,0-.28-.12-.23-.32Zm4.82,13.66-3.4-9.8H85.2l-3.42,9.8Z"/><path class="cls-2" d="M59.46,49.49c-.23,0-.31-.09-.4-.31l-4.32-8.83H50a.17.17,0,0,0-.19.19v8.64a.29.29,0,0,1-.32.31H47.29a.3.3,0,0,1-.32-.31V28.24a.3.3,0,0,1,.32-.31h7.8c4,0,6.75,2.48,6.75,6.22A5.87,5.87,0,0,1,57.6,40l4.59,9.11c.13.2,0,.39-.19.39H59.46ZM59,34.15c0-2.26-1.5-3.58-4-3.58H50a.18.18,0,0,0-.2.19v6.79a.18.18,0,0,0,.2.19h5C57.53,37.72,59,36.4,59,34.15Z"/><path class="cls-2" d="M58.44,137.78c0-3.57.16-4.83.56-6.06,1.08-3.4,3.65-5.07,7.17-5.07A7.17,7.17,0,0,1,73.08,131a.28.28,0,0,1-.12.4l-1.9.92a.32.32,0,0,1-.45-.16,4.73,4.73,0,0,0-4.44-2.89,4.34,4.34,0,0,0-4.47,3.17c-.28.88-.41,1.94-.41,5.32s.13,4.44.41,5.34a4.33,4.33,0,0,0,4.47,3.17,4.69,4.69,0,0,0,4.44-2.88.32.32,0,0,1,.45-.16l1.9.91a.3.3,0,0,1,.12.41,7.21,7.21,0,0,1-6.91,4.35c-3.52,0-6.09-1.67-7.17-5.07C58.6,142.59,58.44,141.36,58.44,137.78Z"/><path class="cls-2" d="M167.55,24.7c0-3.57.16-4.82.57-6.06,1.07-3.4,3.64-5.07,7.17-5.07a7.17,7.17,0,0,1,6.9,4.35.28.28,0,0,1-.12.4l-1.9.92a.31.31,0,0,1-.44-.16,4.75,4.75,0,0,0-4.44-2.89,4.34,4.34,0,0,0-4.48,3.17c-.28.88-.41,1.94-.41,5.32s.13,4.45.41,5.34a4.34,4.34,0,0,0,4.48,3.18,4.72,4.72,0,0,0,4.44-2.89.31.31,0,0,1,.44-.16l1.9.91a.3.3,0,0,1,.12.41,7.2,7.2,0,0,1-6.9,4.35c-3.53,0-6.1-1.67-7.17-5.07C167.71,29.53,167.55,28.28,167.55,24.7Z"/><path class="cls-2" d="M190.56,126.21c-.23,0-.32-.09-.4-.32l-4.32-8.83h-4.76a.18.18,0,0,0-.19.2v8.63a.3.3,0,0,1-.32.32h-2.18a.3.3,0,0,1-.32-.32V105a.29.29,0,0,1,.32-.32h7.8c4,0,6.77,2.49,6.77,6.22a5.88,5.88,0,0,1-4.25,5.87l4.6,9.11c.12.19,0,.38-.19.38h-2.56Zm-.44-15.35c0-2.25-1.5-3.58-4-3.58h-5a.18.18,0,0,0-.19.2v6.78a.17.17,0,0,0,.19.19h5C188.62,114.44,190.12,113.1,190.12,110.86Z"/><path class="cls-2" d="M125.81,120.83a.29.29,0,0,1,.32-.31h2.18a.29.29,0,0,1,.32.31v20.93a.29.29,0,0,1-.32.32h-2.18a.29.29,0,0,1-.32-.32Z"/><path class="cls-2" d="M142.07,63.48c.08-.19.16-.31.39-.31h2.06a.42.42,0,0,1,.43.31l7.38,20.93c.07.2,0,.32-.23.32h-2.22a.35.35,0,0,1-.4-.32l-1.66-4.68H139.1l-1.66,4.68a.43.43,0,0,1-.42.32H134.8c-.2,0-.28-.12-.23-.32Zm4.83,13.66-3.4-9.8h-.07L140,77.14Z"/><path class="cls-2" d="M105.52,14.24a.29.29,0,0,1,.31-.32H108a.3.3,0,0,1,.32.32v8.84a.17.17,0,0,0,.19.19h9.36a.17.17,0,0,0,.19-.19V14.24a.29.29,0,0,1,.32-.32h2.18a.3.3,0,0,1,.32.32V35.17a.3.3,0,0,1-.32.32H118.4a.3.3,0,0,1-.32-.32V26.09a.17.17,0,0,0-.19-.19h-9.36a.17.17,0,0,0-.19.19v9.08a.3.3,0,0,1-.32.32h-2.19a.3.3,0,0,1-.31-.32Z"/></g></g></svg>