<svg xmlns="http://www.w3.org/2000/svg" viewBox="0 0 202.63 120.66"><defs><style>.cls-1{fill:#2fac66;}.cls-2{fill:#fff;}</style></defs><title>burbujasTero</title><g id="Layer_2" data-name="Layer 2"><g id="Layer_1-2" data-name="Layer 1"><path class="cls-1" d="M49.93,49.93A25,25,0,1,1,25,25,25,25,0,0,1,49.93,49.93Z"/><path class="cls-1" d="M105.53,31.17a25,25,0,1,1-25-25A25,25,0,0,1,105.53,31.17Z"/><path class="cls-1" d="M163.11,25a25,25,0,1,1-25-25A25,25,0,0,1,163.11,25Z"/><path class="cls-1" d="M142.87,79.16a25,25,0,1,1-25-25A25,25,0,0,1,142.87,79.16Z"/><path class="cls-2" d="M18.34,39a.3.3,0,0,1,.32-.32h13a.3.3,0,0,1,.31.32v2a.29.29,0,0,1-.31.32H21.35a.17.17,0,0,0-.19.19v6.35a.17.17,0,0,0,.19.19h8.73a.29.29,0,0,1,.31.32v2a.29.29,0,0,1-.31.31H21.35a.18.18,0,0,0-.19.2v6.57a.17.17,0,0,0,.19.19H31.63a.3.3,0,0,1,.31.32v2a.29.29,0,0,1-.31.32h-13a.3.3,0,0,1-.32-.32Z"/><path class="cls-2" d="M79.28,41.37a.29.29,0,0,1-.31-.32V22.62a.18.18,0,0,0-.2-.19h-5.9a.3.3,0,0,1-.32-.32v-2a.3.3,0,0,1,.32-.32h15a.3.3,0,0,1,.32.32v2a.3.3,0,0,1-.32.32H82a.18.18,0,0,0-.2.19V41.05a.29.29,0,0,1-.31.32Z"/><path class="cls-2" d="M143.52,36.6c-.23,0-.32-.09-.4-.32l-4.32-8.83H134a.17.17,0,0,0-.19.19v8.64a.3.3,0,0,1-.32.32h-2.18a.3.3,0,0,1-.32-.32V15.35a.29.29,0,0,1,.32-.32h7.8c4,0,6.77,2.47,6.77,6.22a5.89,5.89,0,0,1-4.25,5.87l4.6,9.11c.12.19,0,.38-.19.38h-2.56Zm-.44-15.37c0-2.25-1.5-3.58-4-3.58h-5a.18.18,0,0,0-.19.2v6.78a.18.18,0,0,0,.19.2h5C141.58,24.83,143.08,23.49,143.08,21.23Z"/><path class="cls-2" d="M116.14,68.59a.3.3,0,0,1,.32-.32h2.18a.3.3,0,0,1,.32.32V89.52a.29.29,0,0,1-.32.32h-2.18a.29.29,0,0,1-.32-.32Z"/><path class="cls-1" d="M202.63,70.72a25,25,0,1,1-25-25A25,25,0,0,1,202.63,70.72Z"/><path class="cls-2" d="M170,77.65c-.41-1.24-.56-2.54-.56-6.1s.15-4.86.56-6.1c1.11-3.32,3.72-5,7.33-5s6.25,1.71,7.36,5c.41,1.24.57,2.54.57,6.1s-.16,4.85-.57,6.1c-1.11,3.33-3.71,5-7.36,5S171.11,81,170,77.65Zm11.93-.79a19.24,19.24,0,0,0,.47-5.31,19.2,19.2,0,0,0-.47-5.3,4.87,4.87,0,0,0-9.16,0,18.51,18.51,0,0,0-.48,5.3,18.77,18.77,0,0,0,.48,5.31,4.88,4.88,0,0,0,9.16,0Z"/><path class="cls-1" d="M86.67,95.69a25,25,0,1,1-25-25A25,25,0,0,1,86.67,95.69Z"/><path class="cls-2" d="M60.41,106.38a.29.29,0,0,1-.31-.31V87.64a.18.18,0,0,0-.2-.2H54a.3.3,0,0,1-.32-.31v-2a.3.3,0,0,1,.32-.32H69a.3.3,0,0,1,.32.32v2a.3.3,0,0,1-.32.31h-5.9a.18.18,0,0,0-.2.2v18.43a.29.29,0,0,1-.31.31Z"/></g></g></svg>