<svg xmlns="http://www.w3.org/2000/svg" viewBox="0 0 188.41 112.82"><defs><style>.cls-1{fill:#e30613;}.cls-2{fill:#fff;}.cls-3{fill:#b91919;}.cls-4{fill:none;stroke:#000;stroke-linecap:round;stroke-width:0.64px;}</style></defs><title>guitarrero</title><g id="Layer_2" data-name="Layer 2"><g id="Layer_1-2" data-name="Layer 1"><path class="cls-1" d="M167.21,16.73A34.24,34.24,0,0,0,155.41,4a14,14,0,0,0-13.88-.77c-3.92,2.08-4.13,7.85-4.53,11.66-1.56,15.35,3.36,31.53,4.8,46.56a.85.85,0,0,1-1.69.12c-1-10.53-4.24-22.9-5-33.5-.46-6.4-1.43-18.33,3-23.74,4.67-5.76,12.11-5,18.1-1.86,4.6,2.45,11.1,9.42,12.66,14.47a.89.89,0,0,1-.32,1C168.39,18,167.87,18.14,167.21,16.73Z"/><path class="cls-1" d="M186.69,56c-.41-12.24-20.4-41.07-34.15-27.38-5,5-7,13.81-6.54,20.58.18,2.93,1.47,10.86.07,13.63a.85.85,0,0,1-1.53-.76c1.35-2.62-.14-11.23-.32-14a29.82,29.82,0,0,1,1.83-11c1.69-5.12,5.25-12.08,11.19-13.18C165,22.4,170.15,26,175.4,31.38c5.81,6,12.71,15.91,13,24.5C188.43,57,186.74,57.08,186.69,56Z"/><path d="M140.77,3.38a9.55,9.55,0,0,1,4.75,6.06c1.52,4.85-3.63,10-7.74,9.88-6.16-.09-10.67-4.69-9.14-11.3S137.47,1.44,140.77,3.38Z"/><path d="M174.79,26.37c6.75.86,11.09,9.63,6.53,15.72-3.45,4.62-9.34,3.37-12.53,1.53-3-1.85-3.76-5.52-3.67-9.27C165.23,30.25,169.87,25.74,174.79,26.37Z"/><path class="cls-1" d="M107.26,61.49a126.74,126.74,0,0,1,13.22,0c4.11.18,7.83,1.29,11.91,1,5-.34,8-2.82,12.93-4.08,11.2-2.59,18,3.35,23.2,13,3.14,6.16,9.87,18,8.13,25.88-1.78,7.42-3.84,3.9-7.31-.42-3.93-4.29-4.94-5.59-10.92-6.54a179.56,179.56,0,0,0-27.51-2.69c-11.56-.65-23.11.46-34.65,1.06-7,.36-14,.32-21,.79-4.86.32-9.76.39-14.63.45-5.87.07-11.75-.17-17.6-.09-3.55,0-7.15-.15-10.72-.27-2.87-.09-5.69-.38-8.53-.7C19,88.34,1.85,88.7.13,83s14.1-11,18.5-12.72c12.85-5,27-5.48,40.58-6,15.93-.18,33.63-.92,48.47-3.76"/><path class="cls-2" d="M149.81,61.33c7.27-.94,13.88,8.79,7.34,14.2-4.27,3.73-10.06,1.33-12.3-3.28C141.89,66.84,147.26,61.43,149.81,61.33Z"/><path d="M153.18,67.49c1.6-.2,3.06,1.92,1.62,3.11a1.78,1.78,0,1,1-1.62-3.11Z"/><path d="M111.63,61.87C111.11,71,109.44,77.41,99.76,79c-9.91,1.58-27.13,4.62-37,3.91C50.92,82.1,39.21,85.27,27.27,84A264.3,264.3,0,0,0,0,82.23C2,77.09,7.21,73.76,11.09,70.31c3.88-3.21,7.77-6.22,12.12-9.25,9.78-6.82,20.45-7.32,31.71-9.22,11.47-1.93,22.61-2.45,34.16,0,6.69,1.37,19,2.35,22.48,9.18l.63.17Z"/><path class="cls-3" d="M125,102.31c-.37-5.49-1.07-11.09-3.26-16.27-.58-1.13-1.64-4.39-3.42-3.77-1.31.43-.61,3.37-1.68,4.44-1.55,1.77-3.11.88-3.59-1.26-.27-1.64.77-3.38,1.49-4.93,4.18-9.45,9.82,0,11.36,5.56,1.56,5.89,2.34,12.33,4.38,18,2.07-1.47,5.37-1.87,7.19.35,2.53,3-1.48,2.93-3.79,2.93C130,107.47,125.49,109.08,125,102.31Z"/><path class="cls-3" d="M80.58,77.52c1.13,1.92,9.18,15,2.43,13.66-3.72-.75-3.92-6.06-5.43-8.63-1.34-2.75-5.51-7.8-9.21-5.71-4.49,2.64-1.8,13.75-1.18,17.86.53,3.13.68,11,.62,7.82,0,0,1.78,7-2.78,8.81-2.33.93-9,3.23-9.61-.88-.57-3.63,5.17-3.43,7.49-3.58,0-4.65-.68-7.46-.7-10.44-.05-3.33,0-6.83-.2-10.32C61.58,79.8,64,69,72.88,71.88,74.4,72.27,79,75.47,80.58,77.52Z"/><path class="cls-3" d="M29.76,64.47c-9.73,1.17-7.4,13.66-6.12,20.08,1.29,6.74,2.78,14,3.09,21-2.8.36-7.49-2.32-9.47.46-2.73,4,4.12,6.56,6.93,6.53,4.33-.13,7.33,0,7.67-4.86.24-3.84-.36-7.8-.63-11.79A135.85,135.85,0,0,0,29.13,82c-.32-2.32-2.78-9.15-.07-10.82,3.05-1.71,8.8,4.4,10.6,6.45,2.51,2.84,4,6.9,6.3,9.58,4.15,4.73,4.43-3.31,3.25-6.06A23.41,23.41,0,0,0,44,73C39.89,69.09,33.68,64,29.76,64.47Z"/><path class="cls-4" d="M164.06,91.45c-4.76-4.39-3.16-8.14-3.16-8.14"/></g></g></svg>