<svg xmlns="http://www.w3.org/2000/svg" viewBox="0 0 196.38 184.71"><defs><style>.cls-1{fill:#fbba00;}.cls-2{fill:#e30613;}.cls-3{fill:#f0eedf;}.cls-4{fill:#fff;}.cls-5,.cls-7,.cls-8{fill:none;stroke:#dad8cc;stroke-linecap:round;}.cls-5{stroke-width:0.25px;}.cls-6{fill:#c4c0b4;}.cls-7{stroke-width:0.26px;}.cls-8{stroke-width:0.9px;}</style></defs><title>pajaro</title><g id="Layer_2" data-name="Layer 2"><g id="Layer_1-2" data-name="Layer 1"><path class="cls-1" d="M92.21,157.36c1.22,8.11-1.27,18.2-2.17,26.4-.14,1.27,1.85,1.27,2,0,.92-8.36,3.63-18.66,2.11-26.93C93.91,155.56,92,156.14,92.21,157.36Z"/><path class="cls-1" d="M94.31,173.44Q95.62,175.75,97,178c.62,1.06,2.73,4,2.87,4.46.28.86,0,2.28-1.24,1.48a8.21,8.21,0,0,1-2-2.65c-1.4-2.26-2.72-4.56-4-6.89A1,1,0,0,1,94.31,173.44Z"/><path class="cls-1" d="M93.29,172.73a51.76,51.76,0,0,1,9.17,3.63c1.09.51.62,2.42-.5,1.89a49.81,49.81,0,0,0-9.15-3.63C91.64,174.27,92.14,172.38,93.29,172.73Z"/><path class="cls-1" d="M110.91,155.67a109.59,109.59,0,0,1-.57,17.93c-.14,1.27-2.1.86-2-.41a106.42,106.42,0,0,0,.53-17.4A1,1,0,0,1,110.91,155.67Z"/><path class="cls-1" d="M110.43,171.5c1.62.54,7.89,2,8.76,2.49,1.31.78,1.22,2.31,0,2.15a21.22,21.22,0,0,1-3.43-.84c-2-.55-4-1.24-6-1.91A1,1,0,0,1,110.43,171.5Z"/><path class="cls-1" d="M110.41,172.35c1.4,2.11,6.18,6.74,6.68,7.42a1.93,1.93,0,0,1,.17.21,1,1,0,0,1-1.5,1.29,34.73,34.73,0,0,1-7-7.83A1,1,0,0,1,110.41,172.35Z"/><path class="cls-1" d="M110.11,173.86c0,1.47-.25,7.41-.48,9.16-.16,1.27-2.15,1.22-2-.07.24-2,.14-8.59,1.11-10.55C109.31,171.25,110.34,172.4,110.11,173.86Z"/><path class="cls-2" d="M170.11,53.89c-5.86,8-10.26,9.74-6.54,20.41-6.92,5.34-4.66,27.58-6.78,36.11-3.2,11.21-6.93,24-16,32-1.61,1.59-13.32,10.67-14.4,10.13-4.28-.53-3.73-12.27-4.28-15.46-1.06-13.33.53-26.67-.53-40-1.07-16.53-24.18-35.19,1.52-51.25-.17-6-5.24-11.86-12.38-15.43,9.5-.12,16.64,5.67,21.52,11.29-3.2-11.73-13.34-18.22-24.54-22.47,12.79-2.14,27.74,7.47,34.13,18.66C134.92,17.6,115.18,13.34,101.31,0c14.93,8.53,30.39,12.79,41.59,26.13,5.34,5.87,7.48,13.33,13.87,18.13,2.67,2.14,15.29,8.62,13.69,10.21"/><path class="cls-3" d="M112.16,57.18c-3.41,6.61-8.69,30.53-11.38,35.44-10.67,20.27-30.94,30.92-45.32,48,11.73,6.93,19.21,12.79,33.61,16,10.67,2.14,21.32,1.06,32-1.61,20.8-4.8,32-40.53,22.94-59.19-2.67-5.33-8.54-7.47-11.73-12.26s-3.2-11.2-6.4-16C123.52,63.82,112.71,56.14,112.16,57.18Z"/><path class="cls-4" d="M125.85,67.57c-2.33-3.73-13.14-11.43-13.69-10.39Z"/><path class="cls-5" d="M65.87,147c6.87,4.12,13.43,7.51,23.18,9.67,10.67,2.14,21.32,1.06,32-1.61a24.39,24.39,0,0,0,10.69-5.71"/><path class="cls-5" d="M112.16,57.18c-1.71,3.3-3.89,10.93-6,18.36"/><path class="cls-6" d="M105.23,78.1c8,3.2,8.34,26.25,6.75,34.26-3.73,12.79-18.46,20.53-29.06,26.54-10.09,5.72-19.46,9.18-30.66,12.91C36.8,157.68,16.54,160.35,0,160.35c9.59-6.4,20.8-10.68,29.86-18.13,9.06-8,43.18-38.4,51.72-46.93C89.6,86.76,95.64,83.43,105.23,78.1Z"/><path class="cls-1" d="M170.11,52.62c8.89,5.56,16.15,8.92,26.27,15.85C182.51,70.61,175.87,74,162,76.07,160.94,69.14,163.73,48.66,170.11,52.62Z"/><path class="cls-4" d="M145.32,49.83c4.72-1.35,12.34,3.8,10.43,10.42S145.61,68.89,142,62.62C137.73,55.22,142.21,50.71,145.32,49.83Z"/><path d="M150.8,59.35a1.6,1.6,0,0,1,0-3.2A1.6,1.6,0,0,1,150.8,59.35Z"/><path class="cls-7" d="M112.42,57.35c-2,3.93-4.7,11.95-7.1,20.5"/><path class="cls-8" d="M101.42,104.39a18.19,18.19,0,0,1-6.82,7"/><path class="cls-8" d="M82.55,115.66a25.64,25.64,0,0,1-8,6.1"/><path class="cls-8" d="M101.24,90.47c-2,3.23-3.41,6-6.63,8.37"/><path class="cls-8" d="M66.45,117.85a24.24,24.24,0,0,1-7.65,6.72"/><path class="cls-8" d="M93.47,121.21a33.57,33.57,0,0,1-8.94,8.06"/><path class="cls-8" d="M84.53,103.89c-2,3.24-3.41,4.12-6,6"/><path class="cls-8" d="M54.49,145.22c-3.55,1.38-5.19,1.26-8.39,1.27"/><path class="cls-8" d="M64,131a19.76,19.76,0,0,1-7.95,4.6"/><path class="cls-8" d="M74.56,134.53c-3,2.51-5.6,3.86-10.88,5"/><path class="cls-8" d="M37.09,148.08A44.74,44.74,0,0,1,27.6,151"/><path class="cls-8" d="M48.7,134.53a44.82,44.82,0,0,1-7.76,6.19"/></g></g></svg>