<svg xmlns="http://www.w3.org/2000/svg" xmlns:xlink="http://www.w3.org/1999/xlink" viewBox="0 0 146.85 150.69"><defs><style>.cls-1{fill:#7dc327;}.cls-2{fill:#96ce17;}.cls-3{mask:url(#mask);}.cls-4{fill:red;}.cls-5{fill:#fff;}.cls-6{fill:#ffe610;}.cls-7{mask:url(#mask-2);}.cls-8{fill:#fd0706;}.cls-9{fill:none;stroke:#000;stroke-linecap:round;stroke-width:0.67px;}.cls-10{mask:url(#mask-3);}</style><mask id="mask" x="89.67" y="73.99" width="53.06" height="49.86" maskUnits="userSpaceOnUse"><g id="mask0"><path class="cls-1" d="M95,74s13.1,25,18.31,28.68c4.21,3,6,1.46,6,1.46s12.16-4.09,10.42-1.33-9.78,4.44-9.78,4.44,14.43.69,12.48,2.48-13.93,2-13.93,2,15.22,4.09,11.67,4.89c-5,1.13-17.81-.87-19.62-3.72s-16-23-19.9-27.46S95,74,95,74Z"/></g></mask><mask id="mask-2" x="72.3" y="80.93" width="49.59" height="55.36" maskUnits="userSpaceOnUse"><g id="mask1"><path class="cls-1" d="M81.39,80.93S90.62,109.7,95,114.39c3.53,3.81,5.63,2.64,5.63,2.64s12.74-1.58,10.48.78-10.48,2.39-10.48,2.39,14,3.55,11.75,4.91-14-.85-14-.85,14.1,7,10.45,7.12c-5.08.12-17.26-4.41-18.46-7.56S75.87,93.12,73,88C69.4,82,81.39,80.93,81.39,80.93Z"/></g></mask><mask id="mask-3" x="8.79" y="87.84" width="80.29" height="62.85" maskUnits="userSpaceOnUse"><g id="mask2"><path class="cls-2" d="M27.24,99.32C36.79,94.78,57.15,81.24,65,91.73S50.66,128,50.66,128s37.05.41,35,2.89-18.46.86-18.46.86,19.93,3.73,19.39,6S66.12,135,66.12,135s15.78,8.81,14.11,10.56-15.7-4.85-26.91-8.66-18.67,1.43-17.9-3.4S49,115.25,49,115.25s-19.81,11.42-29.59,11.37C-4.67,126.52,18.46,103.49,27.24,99.32Z"/></g></mask></defs><title>rana</title><g id="Layer_2" data-name="Layer 2"><g id="Layer_1-2" data-name="Layer 1"><path class="cls-1" d="M118.34,13.43a13,13,0,1,1-26,0,13,13,0,1,1,26,0Z"/><path class="cls-1" d="M82.76,18.1c.9,8.39-6,13.83-13.38,13.83S56.62,26.34,56,18.1C55.43,10.48,62,5,69.38,4.27,77.23,3.53,81.92,10.5,82.76,18.1Z"/><path class="cls-1" d="M95,74s13.1,25,18.31,28.68c4.21,3,6,1.46,6,1.46s12.16-4.09,10.42-1.33-9.78,4.44-9.78,4.44,14.43.69,12.48,2.48-13.93,2-13.93,2,15.22,4.09,11.67,4.89c-5,1.13-17.81-.87-19.62-3.72s-16-23-19.9-27.46S95,74,95,74Z"/><g class="cls-3"><path class="cls-4" d="M118.39,100.61s1.58,4.92,1.61,6.63c0,1.42-1.35,4.84-1.89,6.16l-1.64,3.91s2.27,4.52,3.36,4.79,6.84,2.88,10.94,1.17,10.66-4.18,11.75-9.37-2.46-14.5-2.46-14.5l-12.57-1.11Z"/></g><path class="cls-5" d="M115.67,13.43a10.34,10.34,0,1,1-20.67,0,10.34,10.34,0,1,1,20.67,0Z"/><path class="cls-1" d="M75.1,10.15C101.3,6.33,147,31.91,146.85,45.88c-.19,20.1-36.91,19.36-36.91,19.36s-13.45,10-19.23,20.15c-17.89,20.8-63.23,41.79-79.88,39.15C-.1,122.81-2.45,114.32,2.4,82c5-33.35,43.67-47.37,43.67-47.37A34.86,34.86,0,0,1,75.1,10.15Z"/><path class="cls-5" d="M79.72,18.09c.69,6.48-4.64,10.69-10.33,10.69s-9.86-4.32-10.34-10.69C58.61,12.21,63.7,7.94,69.39,7.41,75.45,6.84,79.07,12.23,79.72,18.09Z"/><path d="M71.33,18.11a1.85,1.85,0,0,1-2,2,2,2,0,0,1-2-2,2,2,0,0,1,2-2C70.52,16,71.21,17,71.33,18.11Z"/><path d="M109.45,11.39a1.64,1.64,0,0,1-1.74,1.81,1.81,1.81,0,0,1,0-3.61C108.73,9.49,109.35,10.4,109.45,11.39Z"/><path class="cls-6" d="M109.94,65.24S98.81,66,81.33,56.18c-34.11,50-67.54,59-70.51,68.36C10.47,125.66,54,119,79.19,97.28,89.63,88.29,109.94,65.24,109.94,65.24Z"/><path d="M136,46.23A1.21,1.21,0,1,1,134.79,45,1.2,1.2,0,0,1,136,46.23Z"/><path d="M143.07,44.26a1.39,1.39,0,1,1-1.39-1.38A1.39,1.39,0,0,1,143.07,44.26Z"/><path class="cls-1" d="M81.39,80.93S90.62,109.7,95,114.39c3.53,3.81,5.63,2.64,5.63,2.64s12.74-1.58,10.48.78-10.48,2.39-10.48,2.39,14,3.55,11.75,4.91-14-.85-14-.85,14.1,7,10.45,7.12c-5.08.12-17.26-4.41-18.46-7.56S75.87,93.12,73,88C69.4,82,81.39,80.93,81.39,80.93Z"/><g class="cls-7"><path class="cls-4" d="M99.51,111.67s.72,5.12.46,6.81c-.22,1.4-2.17,4.55-2.92,5.74l-2.29,3.57s1.47,4.85,2.49,5.3,6.25,4,10.58,3,11.22-2.29,13.18-7.22,0-14.7,0-14.7L108.86,111Z"/></g><path class="cls-8" d="M128.49,101.41a2.09,2.09,0,1,0,2.08-2.09A2.08,2.08,0,0,0,128.49,101.41Z"/><path class="cls-8" d="M131.19,109.43a2.09,2.09,0,1,0,2.09-2.09A2.09,2.09,0,0,0,131.19,109.43Z"/><path class="cls-8" d="M129.11,116.52a2.09,2.09,0,1,0,2.08-2.09A2.09,2.09,0,0,0,129.11,116.52Z"/><path class="cls-8" d="M109.71,116.9a2.09,2.09,0,1,0,2.08-2.09A2.08,2.08,0,0,0,109.71,116.9Z"/><path class="cls-8" d="M110.52,124.55a2.09,2.09,0,1,0,2.09-2.09A2.08,2.08,0,0,0,110.52,124.55Z"/><path class="cls-8" d="M106.79,131a2.09,2.09,0,1,0,2.08-2.09A2.09,2.09,0,0,0,106.79,131Z"/><path class="cls-9" d="M109.94,64.58c-29.87,0-29.87-14.49-29.87-14.49"/><path class="cls-2" d="M27.24,99.32C36.79,94.78,57.15,81.24,65,91.73S50.66,128,50.66,128s37.05.41,35,2.89-18.46.86-18.46.86,19.93,3.73,19.39,6S66.12,135,66.12,135s15.78,8.81,14.11,10.56-15.7-4.85-26.91-8.66-18.67,1.43-17.9-3.4S49,115.25,49,115.25s-19.81,11.42-29.59,11.37C-4.67,126.52,18.46,103.49,27.24,99.32Z"/><g class="cls-10"><path class="cls-4" d="M67.54,125.57s.26,4.63-.4,6.21a32.71,32.71,0,0,1-3.08,6.1c-.75,1-2.57,3.38-2.57,3.38s1.06,4.94,2,5.48,5.89,4.51,10.29,3.88,11.37-1.36,13.73-6.12,1.27-14.64,1.27-14.64l-11.9-4.24Z"/></g><path class="cls-8" d="M83.39,130.72a2.08,2.08,0,1,0,2.24-1.91A2.08,2.08,0,0,0,83.39,130.72Z"/><path class="cls-8" d="M84,137.16a2.09,2.09,0,1,0,2.25-1.91A2.09,2.09,0,0,0,84,137.16Z"/><path class="cls-8" d="M78,145.38a2.09,2.09,0,1,0,2.25-1.91A2.08,2.08,0,0,0,78,145.38Z"/><path class="cls-4" d="M25.36,89.52a4.18,4.18,0,1,0-2.8,5.21A4.2,4.2,0,0,0,25.36,89.52Z"/><path class="cls-4" d="M10.51,96.21a2.39,2.39,0,1,0-1.6,3A2.4,2.4,0,0,0,10.51,96.21Z"/><path class="cls-4" d="M39.47,77.82a1.83,1.83,0,1,0-1.23,2.28A1.85,1.85,0,0,0,39.47,77.82Z"/><path class="cls-4" d="M17.35,101.49a1.83,1.83,0,1,0-1.22,2.28A1.83,1.83,0,0,0,17.35,101.49Z"/><path class="cls-4" d="M8.13,85.31a3.37,3.37,0,1,0,2.26-4.2A3.38,3.38,0,0,0,8.13,85.31Z"/><path class="cls-4" d="M27.43,68.07a3.37,3.37,0,1,0,3.05-3.67A3.38,3.38,0,0,0,27.43,68.07Z"/><path class="cls-4" d="M13.6,72.41A4,4,0,1,0,17.25,68,4.05,4.05,0,0,0,13.6,72.41Z"/><path class="cls-4" d="M29.3,79.79a2.4,2.4,0,1,0-1.6,3A2.41,2.41,0,0,0,29.3,79.79Z"/></g></g></svg>