<svg xmlns="http://www.w3.org/2000/svg" viewBox="0 0 408.46 632.24"><defs><style>.cls-1{fill:#2fac66;}.cls-2{fill:#010202;}.cls-3{fill:#dad8cc;}.cls-4{fill:#a85318;}.cls-5{fill:#92c131;}.cls-6{fill:#3c3c3b;}.cls-7{fill:#814114;}.cls-8{fill:none;stroke:#dad8cc;stroke-width:0.48px;}.cls-9{fill:#1b8a4f;}</style></defs><title>arbol</title><g id="Layer_2" data-name="Layer 2"><g id="Layer_1-2" data-name="Layer 1"><path class="cls-1" d="M315.39,356.41c21.54-12.52,58.82-46.37,77.16-92.13,21.66-54,20.72-79.83.11-135.13s-59-84.1-101.38-103.82-78.06-45.42-186.39-.11C43.56,50.87-23.4,144.1,8,230.18S92.26,356.79,123.26,364.72,220.87,411.33,315.39,356.41Z"/><path class="cls-2" d="M274.33,434.13s-3.68,2.32-4.45.74-1.85-3.6-1.85-3.6l-9.66,4-.62-1.5,9.44-4.3s-1.17-3.7-1-4.57,4.45-2.43,5.32-1S275.51,431.94,274.33,434.13Z"/><path class="cls-2" d="M279,450.65c-1.24.85-4.06,1.41-4.62.37s-1.58-3.17-1.58-3.17l-8.43,1.61-.49-1.38,8.41-2.43s-1.16-3.71.11-4.72,3.93-1.74,4.68-.18S280.16,449.55,279,450.65Z"/><path class="cls-3" d="M290.83,552.86l-.21-.65c-.15-.5-.33-1.06-.55-1.7s-.4-1.15-.56-1.59-.5-1.15-.92-2.08-.78-1.87-1.21-3c-.08-.17-.16-.34-.23-.51h.2l.46.09h.12a3.73,3.73,0,0,0,2.53-.8,2.73,2.73,0,0,0,1-2,2.88,2.88,0,0,0-.81-2.16,3.88,3.88,0,0,0-2.37-1.23h-.08l-.55-.11h-.12c-.45,0-1.23,0-2.54,0l-.36,0c-.22-.62-.45-1.21-.69-1.79-.57-1.6-1.07-3-1.5-4.26s-.78-2.37-1.08-3.23-.64-1.82-.93-2.68a24.48,24.48,0,0,0-1.11-2.66,10.77,10.77,0,0,0-1.4-2.16,5.12,5.12,0,0,0-2.76-1.59,3.77,3.77,0,0,0-.94-.6l-.15-.07a4.29,4.29,0,0,0-2.85,0,2.75,2.75,0,0,0-1.71,1.63l-1,2.58q-1,2.58-1.84,4.63T264,533.93c-1.18,3.2-2,5.62-2.57,7.2-.33,1-.6,2-.85,2.83a2.5,2.5,0,0,0-1,1.45,2.93,2.93,0,0,0,.05,1.69c-.11.52-.21,1-.27,1.34-.15.71-.31,1.53-.47,2.5a1.49,1.49,0,0,0-.45.69,2.48,2.48,0,0,0-.14.87,2.77,2.77,0,0,0,.39,1.21,4.59,4.59,0,0,0,1.15,1.29,5.13,5.13,0,0,0,2.29,1.23l.2,0a2.8,2.8,0,0,0,2-.33,2.94,2.94,0,0,0,.93-1,3.74,3.74,0,0,0,.4-.87,1.55,1.55,0,0,0,.08-.47c.29-.75.91-2.55,1.88-5.51,0-.15.08-.28.13-.43.66-.25,1.64-.59,2.89-1,1.73-.59,3.23-1.09,4.47-1.47a31.53,31.53,0,0,1,4.35-1l.59-.13q.38.9.66,1.65c.43,1.08.86,2.1,1.3,3.08s.69,1.48.83,1.83.31.8.49,1.36.33,1,.42,1.4l.2.62a3.18,3.18,0,0,0,1.56,2,4,4,0,0,0,1.5.56,4,4,0,0,0,1.38,0,3.11,3.11,0,0,0,2-1.38A2.67,2.67,0,0,0,290.83,552.86Zm-13.08-14.8-.13,0a46,46,0,0,0-5.15,1.17c-.67.19-1.42.43-2.25.7.38-1.19.77-2.39,1.17-3.58.52-1.54,1-3,1.51-4.26s.85-2.41,1.27-3.37c.07-.15.12-.3.18-.44.11.32.23.65.33,1,.29.89.66,2,1.08,3.28s1,2.78,1.58,4.37Z"/><path class="cls-4" d="M92.08,188.76l30,15.93s14.9,2.72,22.74,4c7.24,1.21,25.14,4.78,25.14,4.78l6.25-31.39h6.92s-4.13,32,0,34.3c3.33,1.88,25.16,8.44,38.73,11.61,3.09-29.08,6.54-61.31,6.54-65.11s-10.73-10.2-19.34-13.72-27.78-8.32-35.44-10.6-11.49-3.71-11.49-3.71,8.61-13.13,14.36-10.4,30.65,14.11,30.65,14.11l8.47-16.19h9.83l-5.85,16.19s4.79,3.19,8.81,0,7.48-17.75,7.48-29.92-.13-17.61-.13-17.61c-3.61-.73-18.38,6-18.38,6l-2.86-4.24,17.79-10.66s-4.38-5.4-9.93-13.6-5.24-7.85,4.34-12.41c0,0,6.17,8.91,11,16.08,3.09,4.61,12,20.11,15.14,20.59s4.32-.16,12.8-3l8.08-1.92,3.21,6.66s-19.31,5-20.27,10.94-1.91,52-1.91,52L273.4,135l6.65,2s2.39-.11-.49,5a44.45,44.45,0,0,1-6.16,8.53l23-6.81.24,8.56s-17,4.51-23.74,7.26-19.14,9.09-19.14,9.09l-1.92,15.61C249.89,199.94,248,248,248,248l24.16-8.52,6.5-14.27-11.5-4.78,2.88-4.14h14.35L296,199.93l7.38,3.44S293,215.61,293,218.12s-8.18,21.19-8.18,21.19,16.12-5,20.69-6.55,60.39-13.7,60.39-13.7l1,12.47s-35.54,11.9-45.32,16.34l-1.41.6a26.66,26.66,0,0,1,2.41,1.79c8.47,7,20.76,11,20.76,11l-4.53,11-32.27-19.12c-5.78,1.63-24.51,8.37-27.55,9.41-8.7,3-26.21,9.74-29.08,20s.87,41.11,1,57c.09,11.54,2.09,12.39,7.89,11.29,6.64-1.27,17.91-5,17.91-5s-.4-2.39.35-10.46a72.47,72.47,0,0,1,3.45-14.56l7.72-2.78c1.22,4,1.52,12.39,1.3,17.34s12.77,2.24,18.68-.85a180.51,180.51,0,0,1,27.84-12c9.06-3,21.47-6.14,21.47-6.14l4.74,10.57S343,333.5,329.81,340.49c-1.31.7-2.67,1.38-4.06,2.06l16.89,3.62-4.35,7.18c-1-.39-5.48-.45-10.53-2.08-5.89-1.9-11.56-2.36-14.61-3.08C302,353,293,356.12,282.06,360.92c-13.59,6-25.46,8.19-31.2,12.07s-1,116.29-1,143.38,1,108.4,1,108.4H206.8l8.63-285.37L180,309.92l-2.45,3.28c-2.46,3.28-9,8.66-9,8.66l-5.74-6.48,2.87-2.18c2.87-2.18,5.75-8.75,5.75-8.75L156,290.84l3.83-6s15.32,8.7,25.62,14.86l1.13.68V271.8s-2-6.14,0-7,5.76,0,5.76,0,1.29,5.73,2.41,12.2c.88,5,3,22.56,4,30.49,9,5.27,17.88,10.4,17.88,10.4s-.61-29.35.45-43.92c.28-3.66,1.11-12.1,2.23-22.77-16.85-4.92-43.15-14.61-58.2-18.43-19.34-4.9-23.51-9.34-29.68-6.47s-5.61,28.38-7.54,31.23l-8.26-2.86V237.5H98.1l-2.77-5.72,20.36-2.86V211.75S88.5,198.13,88,195,92.08,188.76,92.08,188.76Z"/><path class="cls-5" d="M155.67,173.32s5.66,12,11.37,16.61c9.71,7.74,20.64,2.89,20.64,2.89s.1-15.32-10.94-19.75A28.71,28.71,0,0,0,155.67,173.32Z"/><path class="cls-5" d="M123.68,284s12,10.94,20.57,13.53c14.49,4.41,24.31-5.7,24.31-5.7s-7.21-17.06-21.59-17.21A33.56,33.56,0,0,0,123.68,284Z"/><path class="cls-5" d="M300.85,174.59s7.59,6.17,9.74,10.85c3.65,7.95-2.11,14.13-2.11,14.13s-11.14-3-12.11-11.2A18.26,18.26,0,0,1,300.85,174.59Z"/><path class="cls-5" d="M75.58,208.94s9.9,1.26,15-.35a13.9,13.9,0,0,0,9.66-10.93s-9.83-5.84-16.85-1.09A18.55,18.55,0,0,0,75.58,208.94Z"/><path class="cls-5" d="M181.9,351s-5.42-8-6.08-13c-1.11-8.61,6.25-13,6.25-13s9.76,5.95,8.24,14S181.9,351,181.9,351Z"/><path class="cls-5" d="M159.58,89.38s1.84,15.74,6.62,22.94c8.12,12.23,22.48,10.48,22.48,10.48s5-15.94-6-24.84A38.59,38.59,0,0,0,159.58,89.38Z"/><path class="cls-5" d="M368.6,181.68s5.91,15.69,3.78,24c-3.6,14.06-20.17,16.53-20.17,16.53s-10-13.62-2.68-25.36A37.17,37.17,0,0,1,368.6,181.68Z"/><path class="cls-5" d="M311.39,106.13s-11.91,4.72-16.5,9.66c-7.8,8.39-3.31,18.17-3.31,18.17s13.53,0,18.11-9.6A26.17,26.17,0,0,0,311.39,106.13Z"/><path class="cls-2" d="M244.28,449.91s3.61-2.45,4.38-.86,1.92,3.71,1.92,3.71l9.65-4,.63,1.51-9.45,4.31s1.18,3.23,1,4.1-4.46,2.89-5.32,1.43S242.68,450.54,244.28,449.91Z"/><path class="cls-2" d="M240.45,434.73c1.19-1.05,3.34-1.51,4.09-.5a14.51,14.51,0,0,1,1.46,3.31l9.26-3.06.72,1.36-9,4s2.36,3.46,1.19,4.69-3.86,2.35-4.87.83S238.63,436.35,240.45,434.73Z"/><path class="cls-6" d="M291,531.32c-2.73-11.53-24.09-80.57-33.11-107.58,10.63-3.71,3.31-8.56-3.27-7.76.68-12.05-13.62-7.33-8.3,3.54-10.78.63-6.58,9.89,3.81,7.36,6.38,38,21.15,94.06,26.25,111.44C280.37,536.87,286.65,534.61,291,531.32Z"/><path class="cls-7" d="M252,559.4c3.17-3.58,5.78-5.81,5.67-12.09-.07-4.26-3.41-8.92-2.79-13.2,1.36-9.27,10-16.27,20.11-19.12,19.91-5.62,36,28,39.1,43.14,3.7,18.32,14.78,55.88-8.71,58.08-26.9,2.52-42.23-12.39-50-27.5C270.9,583.91,265.18,561.42,252,559.4Z"/><path class="cls-4" d="M332.18,565.5c-12.64,5.19-23.28-13.83-9.39-24.85-18.81-4-12.42-36.72-41.07-28.13-7.66,2.09-19.14,9.68-19.9,18.13s13.67,23.08.75,29.77c13.14,3.16,16.76,13.57,16.18,19.33-.48,4.69-6.89,14.14-10,14.24,2.42,5.48,12.37,16.51,18.55,19.45C319.9,627.21,338.71,591.51,332.18,565.5Z"/><path d="M293.17,530.66c-2.73-11.54-24.08-80.56-33.11-107.58,10.63-3.7,3.32-8.56-3.27-7.76.66-12.05-13.63-7.32-8.31,3.54-10.77.62-6.57,9.88,3.82,7.36,6.37,38,21.15,94.06,26.24,111.43C282.59,536.21,288.86,534,293.17,530.66Z"/><path d="M290.57,573.71c2.87,7.54-5.92,13.11-9.41,6.89,3.55.53,4.43.58,5.7-1.93.91-1.3-.71-4.94-1-6.3-.88-4.34-1.53-10.43,4.21-11.27C287.75,565.28,288.19,567.44,290.57,573.71Z"/><path d="M301.43,558c3.51.8,4.34,4.89,5.44,7.75.95,2.33,1.27,5.69,3.74,7,2.83,1.55,6.47.59,6.07-3-4.5,4.32-5.88-3.92-6.9-6.52C308.91,561.19,306,555.64,301.43,558Z"/><path class="cls-8" d="M259,448.52,301.3,595.86"/><path class="cls-8" d="M257.78,434l46.07,161.51"/><path class="cls-8" d="M260.33,433.73,306.4,595.25"/><path class="cls-8" d="M265.87,446.85s18,58.36,24.43,84.38c6.09,24.66,18.37,62.71,18.37,62.71"/><path d="M312.43,615.26c-1.06-7.44-4-14.92-3.19-22.42-3.13.61-6.26,2.16-9.38,2.78,4.16,6,5.74,13.48,7.3,21.14A15.5,15.5,0,0,0,312.43,615.26Z"/><path class="cls-3" d="M279.91,483.56s33.74,46.62,48.88,67.93C342.93,571.37,362.85,605,362.85,605l1.57-1s-26.85-43.05-35-54.19-47.72-67.38-47.72-67.38Z"/><path d="M363.1,604.81l-4,2.65s-21.21-33.93-36.2-55.84c-16.61-24.24-46.78-65.57-46.78-65.57l3.79-2.49,2.47,3.38s-1.35.87-1,2.14,29.33,41.57,42.06,59.26C335.94,565.74,355,596.87,358.7,603a3.78,3.78,0,0,0,1.3,1.33c.65.28,2.16-.84,2.16-.84Z"/><path d="M271.9,476.51l-1.85,1.22,6.8,9.33,1.85-1.23Z"/><path class="cls-5" d="M276.43,297.09s9.05,4,12.44,8a13.26,13.26,0,0,1,2,14.16s-11.6-.11-14.82-7.71A18,18,0,0,1,276.43,297.09Z"/><path class="cls-9" d="M75.58,609.73s8.35-90.39,10.79-110.2c4.26-34.65,22.4-67.8,22.4-67.8s-15.28,65.1-15.83,84.37,2.11,20.54,2.11,20.54,6.21-26.33,13.48-44.73c9.23-23.36,25.33-40,25.33-40a241.9,241.9,0,0,0-18.3,42c-9.42,28.73-4.47,46.32-4.47,46.32s13.8-30.1,24.18-47.82C148.9,469.11,171.41,450,171.41,450s-23.93,35.26-32.28,55.18-13.37,44.71-13.37,44.71S148.26,511,156,497.12a88.59,88.59,0,0,1,27.14-29.58s-24,39.91-30.11,57c-13.88,38.71,30.11,85.17,30.11,85.17Z"/><path class="cls-1" d="M166.58,632.24a463.2,463.2,0,0,1,11.78-48.37,272.89,272.89,0,0,1,17.93-44c11.58-22.78,29.49-38.11,29.49-38.11a245.3,245.3,0,0,0-22.55,40.79c-12.28,28.2-8.95,46.5-8.95,46.5s16.85-29.17,29.06-46.13c16-22.28,40.66-39.47,40.66-39.47s-27.6,33.43-38,52.82-17.82,44-17.82,44,26.51-37.24,35.7-50.57a90.16,90.16,0,0,1,30.32-27.38s-28.1,38.14-35.94,54.88c-17.75,37.88-14.95,55.06-14.95,55.06Z"/></g></g></svg>