<svg xmlns="http://www.w3.org/2000/svg" viewBox="0 0 929 327.66"><defs><style>.cls-1{fill:#79a637;}.cls-2{fill:#00a0a4;}.cls-2,.cls-4{fill-rule:evenodd;}.cls-3{fill:#4fbcc1;}.cls-4{fill:#e3d7c2;}</style></defs><title>piso</title><g id="Layer_2" data-name="Layer 2"><g id="Layer_1-2" data-name="Layer 1"><path class="cls-1" d="M29.72,122c-6.11,49,11.06,28.33,54.81,44.74s197.93-9.43,249-8.33,158.24-29.11,361.89-21.51,19.05-74.95-51.14-97.67S309.39-7.33,208.69,2.13,35.84,72.93,29.72,122Z"/><path class="cls-2" d="M180.29,93.6S128.57,63.24,342.1,78.51c140.14,10,139.63,24.5,240.9,9.71,96-32,163-.65,193,12C825.2,121,940.29,239,879,195.66S792.9,142.8,761.51,140.1c-119.37-10.26-117.84-8.3-184.44,0-108.51,13.53-22.7,55.56-362.72,55.56-100.35-6-188.42-26.49-203.87-43.3S-23.15,93.6,114.92,106.25C229.34,109.83,199.13,103.62,180.29,93.6Z"/><path class="cls-3" d="M235.32,123c2-.93,5.26-1.22,7.63-2,.28-.07.06.26.69.06a42.35,42.35,0,0,1,9.35-1.74l-.14.1c.59,0,1.18-.41,1.8-.49,0,0-.16.1,0,.13.09-.16,1.06-.27,1.28-.42.26,0,.29.12.62.12l.28-.21c.8-.53,2.37-.38,3.61-.79-.05,0-.17.09-.05.11,2-.61,4.72-1,7.09-1.43-.07.07-.13.19,0,.23.05-.19.78-.34,1.4-.47.36.12,1.05-.33,1.84-.35l-.05,0c.5-.25.87,0,1.25-.28l.41.08c.16-.27.85,0,1.27-.17l0,0c.41-.12.68,0,1.08-.13l.05,0c.93-.19,1.52-.14,1.44-.32.38.1-.9.19-.3.34,3.05-.6,6.31-.93,9.48-1.27a2.79,2.79,0,0,1,.72.1,11.26,11.26,0,0,0,1.45-.28c-.11,0,.22.08.4.07.59,0,.58-.27,1.24-.25-.24.08-.31.15-.22.21a10,10,0,0,1,1.88-.35c-.1,0-.25.07-.21.13.67-.23,1.28-.07,1.88-.23l-.21.13c1,.05.25-.25,1.12-.24-.2,0-.12.09-.15.13a20.84,20.84,0,0,1,2.85-.43s0,0,0,0c.86-.11,1.78-.1,2.72-.24.36,0-.07.28.84.17-.06-.21,1.55-.18,1-.4a19.36,19.36,0,0,0,2.56-.12c-.35.11.41.25-.24.31l.52.1c-.07.09-.52,0-.34.11a14.33,14.33,0,0,1,1.56-.14,8.67,8.67,0,0,1,2.11-.51c-.46.1.28.23,0,.28l1.33-.49c.33,0,.08.18.56.1,0-.06.18-.11.32-.16s1.37-.11,1.52.11-.53.06-.16.13c.6,0,.63-.1,1.23-.12v0c.4,0,1.18-.13.74-.24-.28,0,.11.13-.31.08a5.6,5.6,0,0,1,1.59-.21c-.21,0-.18.1-.27.16a20.18,20.18,0,0,1,2.59-.37c0-.11-.33.19-.47.14,1.17.12,2.42-.24,3.39,0-.17,0-.09-.14-.08-.12.57,0,.54.16.9.1,0,.08.47,0,.84-.07.2-.07.1,0-.23,0a21.24,21.24,0,0,1,3.85-.11,3.28,3.28,0,0,1,1-.21l-.12.14c.26.08.94,0,1,.1.6-.17-2.31.15-1.49,0,.21.11,1.13-.23.95,0a7,7,0,0,1,1.64,0c-.15,0-.46.19,0,.18.79,0,.23-.07.88-.11l.41-.05c0-.14.71,0,.42-.13.09.11,1.17,0,1.07.17l-.12.17a3.27,3.27,0,0,0,.85-.25c.05,0,.13,0,.11.08.08-.27.82,0,1.25-.17a12.2,12.2,0,0,1,2.16.2,6.87,6.87,0,0,1,1.71-.08c-.13,0-.3,0-.34.08a1.92,1.92,0,0,0,.86,0,8.25,8.25,0,0,0,1.21.28c.55-.07.39-.21.45-.3.48.27,1.58-.13,2.18.13-.2,0-.82.1-.37.18.46.28,1-.16,1.83,0l-.18-.22c.35.14,1.21-.09,1.1.13.28-.07.95.1.89-.11,1.31.21,3.25,0,4,.42.2,0,.67,0,.58-.09-.29-.13-.45.07-.56,0a.29.29,0,0,0,.25-.09c.4.06.72.09.31.25.89.17,1-.32,2.17-.19-.07.09,0,.12.35.12l.68-.12c.76.07.39.22.39.37a3.92,3.92,0,0,0,1.11-.08l.46.21c-.33-.15.35-.07.55-.1l-.2,0a2.9,2.9,0,0,0,.78,0c-.05-.09-.52-.15-.77-.19.22-.06.54,0,.82-.09-.11.14.65.13,1,.16s.44-.11.55-.1.6,0,.29.13c-.13,0-.27-.09-.49,0,.23.07.17.19.7.12s0-.29.66-.16a2.09,2.09,0,0,0-.4.13l.65.11.06-.14c.08,0,0,.05.05.07.23-.13,1,0,1.22-.14.35,0,.7.13,1,.16h-.07a3.39,3.39,0,0,0,1.27,0l0,0a4.5,4.5,0,0,0,1,0c.52.13.08.51.72.38s.91-.2.71-.3a24.28,24.28,0,0,1,3,.25c.15,0,.07-.09.37-.1a28,28,0,0,1,4.24.33c-.44,0-.06.13-.06.21.37-.1.39.15.56-.05,0-.12,0-.18-.36-.25a12.48,12.48,0,0,1,2.67.19c-.23-.07,0-.09.17-.11-.1.18.53.25,1,.21l.1-.12.29.14c.2,0,.26-.23.72-.09a.18.18,0,0,0,.12.13,5.66,5.66,0,0,1,1.79-.07l.41.2c.23,0,.65-.09.25-.16a7,7,0,0,1,1.78.36,30.06,30.06,0,0,1,5.86,0l-.07.09c.49.1.29-.14.62-.07-.18.08.35.2-.06.29a4.29,4.29,0,0,0,1.43-.13c.09-.11-.39.06-.28-.08s1,.13,1.12,0c.17.08,0,.19-.1.26l.45-.06c.5.22-1.29.3-.78.57h.42c.35.2-1.11.15-.11.26.46-.06.88-.29.5-.39.93,0,.5-.39,1.48-.33.25.11-.79,0-.63.14.43.16.95,0,1.35,0-.45-.09,0-.24.27-.26.49.1-.35.15.35.2.14-.1.8-.15.25-.24.3-.22.73.1,1.14-.06.21.16-.79.33,0,.44-.1-.16,1-.16.62-.41.3.06.31.18.08.26.41.12,1.1-.23,1.2.08l.14-.14c.12,0,.32.1.53.19.38,0,1.27-.16,1.2.08.13,0,1,0,.69-.16-.53-.12-.65.1-.92-.13.35.19.79,0,1.12,0l0,.09a2.61,2.61,0,0,0,.76-.08c-.15,0-.09.11.06.14l.21-.13c.78,0,.15.25.9.24l-.58.08a4.32,4.32,0,0,0,.72.09c.16-.12.44-.26.58-.36.43,0,.17.16.6,0l-.56.13c-.09.05.33.23.89.24.37,0,.94-.19.39-.28.29,0,.67.1.44.18.64,0-.07-.13.49-.2.22.09.9.23,1.31.37l-.61.19.38,0c-.51.15.23.14-.07.31a3.48,3.48,0,0,0,.85-.06c-.72-.31.9-.37.71-.64,1,0,.57.66,1.71.28-.17-.07.37-.26-.3-.2.64,0,.47-.25,1.23-.13-.58.1.57.29-.27.42.07-.09-.45-.08-.58-.06.25.11-.08.27.58.29.4,0,1,0,.9-.15s-.63,0-.35-.14c.81,0,.93.2,1.29-.07-.52,0-.62-.14-.61-.25l.6,0-.12.1c.94.09.3-.17,1.21-.13l.42.21c-.24.16-1.33-.1-1.2.18a8.93,8.93,0,0,1,1.36,0l-.43,0a1.59,1.59,0,0,0,1.27.19c.45-.08.13-.1.15-.21,1,0,1.27-.11,1.88-.12-.14.2,1.1,0,.39.24a4.6,4.6,0,0,0-2.05,0c.33.25-.75,0-1,.19.78,0,.71.26.83.42a2.08,2.08,0,0,0,.56-.08c.1-.14-.18-.14-.18-.29a7.74,7.74,0,0,0,2.18-.14c.28.07.18.22-.17.22,1,0,2.12,0,3.1,0-.61-.25,1.09,0,.67-.25s-.95-.23-.65-.34,0,.11.11.16c.43-.13.63.21,1.05,0-.93.07-.2.29-.38.47.68-.1,0,.13.63.14s1.51-.17,2.27-.21a19.32,19.32,0,0,0,3.23,0c.43.09.13.3.6.34s-.41-.23.42-.13l-.08,0c.25,0,1.51.14,1.77-.17l-.26.23a1.45,1.45,0,0,0,.43,0c0,.07.19.14-.07.19a5.36,5.36,0,0,0,1.64-.06l-.36-.13c1-.12,1.59,0,2.52-.05l0,.13.55-.09c-.13.13.37.21.66.1l-1.43.34c-.39-.07.43-.17.18-.29a2,2,0,0,0-1.2.07,2,2,0,0,0,.59-.07c.1.18-.39.18-.64.3.18,0,.42,0,.45,0a5,5,0,0,1-1.24.12c.39-.07-.21-.11-.06-.16-.05.16-.59.22-1.28.18-.49-.18-1.31.13-2.11.08a4,4,0,0,1,1.24-.37c-.5-.08-.56,0-1.06-.08a2.21,2.21,0,0,1-1.09.39l0-.12c-.6.07-.61.25-1.37.21-1.3,0-2.64,0-3.63-.08l0-.12a13.92,13.92,0,0,1-2.6.19,29.92,29.92,0,0,1-3.39-.14c-2.23.05-4.2.12-6.5,0l.4-.16c-.43.12-.26-.11-.66-.09.45.15-.59.16-.89.26a13.27,13.27,0,0,0-3.28,0l0-.12a12.36,12.36,0,0,1-3.17-.13,1.49,1.49,0,0,0-.66-.17,10.06,10.06,0,0,1-1.91.23,21.4,21.4,0,0,1-2.4-.22c-2.56.17-5.09-.12-7.71-.08l-.16-.15c-2.58.18-5.62-.27-7.8-.22l.26-.23c-.66-.11-1.55,0-1.41.17a11.87,11.87,0,0,1-2.1-.2,8.29,8.29,0,0,0-1.45.07,23.26,23.26,0,0,0-3.19-.2l.33,0c.15,0,.18-.14-.13-.18-.51,0-1.78-.16-1.35.15-1.36-.24-3.27,0-4.57-.34.09.09-.24.08-.4.13a31.8,31.8,0,0,0-3.47-.21c-.18,0,.33-.12-.16-.15-.29,0,0,.11-.4.13-2,0-4-.36-5.76-.41-3.22,0-6.53-.22-9.59-.31l.05-.06c-1.06.18-2.37-.31-3.23,0-.24-.07-.92-.06-.73-.17-.83.14-2.26-.22-3.46,0l.3,0c-1.18-.16-2.25,0-3.5-.15.13,0,.36,0,.41-.09-.47-.12-1.17.22-1.41-.06-.28,0-.21.13,0,.13-2.74-.16-5.7,0-8.57,0-2-.16-.1-.48-1.73-.26-.13-.06-.1.1-.12,0-.62.08-1-.31-1.4-.17.17.18-.29.1-.31.21a8.4,8.4,0,0,0-2.5-.11l.08-.09c-1.17.27-2.52.15-3.49.47-6.4.2-12.51.64-18.7,1.1s-12.08,1.07-18.28,1.68a9.33,9.33,0,0,0-3.18.26c.05,0,.15-.07,0-.09,0,.2-1.1.17-1.2.37-2.27.28-4.36.6-6.67,1,.36-.08.49-.26.06-.18l-.41.19-.1,0c-.29.07-.57.22-.24.23-5.76,1-11.6,1.69-17.19,2.82a44.32,44.32,0,0,0-4.65,1,95.55,95.55,0,0,0-12.54,2.46S233.6,123.56,235.32,123Z"/><path class="cls-3" d="M339.26,97.35c-1.47.44-3.32-.16-4.91.09-.19,0,.08-.27-.34-.22a15.72,15.72,0,0,1-5.73-.5l.12-.07c-.35-.08-.81.15-1.17.09,0,0,.13-.07,0-.14-.11.15-.68,0-.86.13-.13-.07-.1-.19-.28-.27l-.24.16c-.66.38-1.43-.14-2.27,0,0,0,.13-.06.07-.11a38.45,38.45,0,0,1-4.42,0c.07-.06.14-.17.07-.25-.11.19-.56.2-1,.21-.15-.21-.7.12-1.13,0l0,0c-.37.17-.48-.16-.79.06l-.19-.17c-.19.26-.46-.18-.77-.06v.05c-.28,0-.39-.1-.64-.07l0,0c-.58,0-.89-.15-.91.06-.17-.19.56,0,.3-.31a47.33,47.33,0,0,1-5.72-.29c-.2-.1-.34-.14-.36-.22a4,4,0,0,0-.92.07c.07,0-.1-.12-.2-.14-.33-.1-.42.2-.78.08.16-.05.22-.11.19-.2a3.79,3.79,0,0,1-1.17.1c.07,0,.16,0,.16-.11-.45.15-.75-.1-1.13,0l.16-.11c-.56-.2-.22.24-.72.11.13,0,.1-.08.13-.12a7.5,7.5,0,0,1-1.76.08l0,0c-.51,0-1-.12-1.63-.08-.2-.07.12-.29-.43-.29,0,.24-.94,0-.67.33a6.15,6.15,0,0,0-1.5-.17c.22-.08-.17-.32.21-.31l-.27-.18c.07-.09.3.06.23-.07a5.86,5.86,0,0,1-.94,0,3.33,3.33,0,0,1-1.35.36c.29-.07-.11-.28.08-.31l-.89.4c-.19,0,0-.19-.3-.15,0,.07-.13.1-.22.14s-.81,0-.86-.24c-.07-.1.33,0,.13-.13-.36,0-.39.06-.74,0v0c-.23-.05-.7,0-.48.21s0-.15.2-.07a1.79,1.79,0,0,1-1,.11c.13,0,.12-.09.18-.16a6.92,6.92,0,0,1-1.58.22c0,.12.23-.19.3-.13-.66-.21-1.45.12-2-.15.1,0,0,.16,0,.13-.33,0-.29-.2-.51-.16,0-.1-.28,0-.51,0s-.05-.05.15-.05a7.46,7.46,0,0,1-2.28-.06c0,.06-.47.21-.63.19l.08-.14c-.13-.1-.55,0-.56-.16-.38.16,1.37-.07.87,0-.1-.13-.69.2-.56,0-.33,0-.67.13-1,0,.08,0,.29-.19,0-.2-.47,0-.14.07-.53.09l-.25,0c0,.15-.42,0-.27.13,0-.13-.7,0-.61-.21l.09-.19c-.2,0-.35.19-.52.26l-.06-.09c-.07.29-.49-.06-.75.16-.41-.13-1.08-.08-1.26-.28a2.29,2.29,0,0,1-1,.08c.07,0,.18,0,.21-.1-.22-.09-.29,0-.51,0,.06,0-.45-.2-.69-.32-.34.08-.24.24-.28.34-.27-.31-.94.15-1.29-.14.12,0,.49-.12.23-.2-.27-.31-.62.18-1.09,0l.1.24c-.2-.16-.71.11-.64-.14-.17.08-.56-.1-.53.14-.77-.24-1.92,0-2.37-.43-.11,0-.39,0-.35.11s.27-.08.33,0a.13.13,0,0,0-.14.1c-.24-.06-.43-.09-.19-.28-.53-.17-.58.39-1.27.27,0-.09,0-.13-.21-.12l-.4.16c-.45-.06-.24-.24-.24-.4-.24,0-.54,0-.66.13l-.27-.22c.2.16-.2.1-.32.14l.12,0c0-.08-.32,0-.46,0,0,.1.31.15.46.19-.12.07-.31,0-.47.13.06-.17-.39-.13-.58-.15s-.25.13-.31.13-.36,0-.19-.14.17.09.29,0c-.14-.07-.12-.22-.42-.12s.05.33-.37.21c.11,0,.13-.1.21-.16l-.4-.09v.15c-.06,0,0-.06,0-.08-.13.15-.61,0-.7.21a6.21,6.21,0,0,1-.62-.14h0a1.07,1.07,0,0,0-.75,0v0a1.16,1.16,0,0,0-.59.09c-.32-.11-.1-.56-.47-.37-.33,0-.51.27-.38.36-.59-.1-1.26.14-1.81-.09-.08.06,0,.1-.2.13a9,9,0,0,1-2.52-.12c.25-.06,0-.15,0-.24-.2.14-.26-.14-.32.09s0,.2.25.26a4.21,4.21,0,0,1-1.58-.06c.14.06,0,.1-.08.14,0-.21-.36-.24-.64-.15l0,.13-.19-.13c-.11.05-.1.28-.39.16l-.1-.14a1.58,1.58,0,0,1-1,.21l-.29-.18c-.14,0-.35.15-.1.2a3,3,0,0,1-1.12-.26A8.66,8.66,0,0,1,249,94l0-.1c-.31-.08-.13.17-.34.11.08-.1-.26-.19,0-.32-.44-.07-.51.21-.77.27,0,.14.2-.09.18.07s-.6-.06-.63.14c-.12-.07-.07-.21,0-.3l-.23.11c-.36-.2.64-.45.25-.71l-.24.05c-.27-.19.58-.27,0-.3-.25.11-.41.4-.15.48-.54.09-.16.48-.74.5-.18-.1.46-.06.31-.21s-.53.13-.77.09c.29.05.1.26-.07.31s.15-.2-.26-.19c0,.12-.41.23-.06.28-.09.27-.44,0-.63.17-.17-.17.33-.44-.15-.5.11.17-.5.27-.2.51-.19,0-.24-.17-.14-.28-.28-.09-.53.35-.71,0l0,.18a3.53,3.53,0,0,1-.37-.17c-.23,0-.66.28-.72,0-.06,0-.58,0-.32.22s.33-.15.57.08c-.28-.19-.45.06-.62.14l-.06-.1c-.09,0-.36,0-.39.15.06-.06,0-.13-.09-.15l-.07.17c-.41.13-.18-.26-.59-.17l.28-.15c-.06,0-.25-.1-.43,0s-.13.34-.17.46c-.22.09-.16-.15-.35,0l.26-.21s-.28-.21-.6-.17-.43.31-.09.35c-.16,0-.42,0-.32-.15-.35.08.09.14-.19.26-.16-.08-.6-.16-.9-.27l.25-.27-.22,0c.21-.22-.2-.13-.11-.34a.8.8,0,0,0-.45.14c.56.27-.33.49-.09.77-.56.14-.64-.66-1.09-.14.14.07-.08.32.27.19-.38,0-.14.32-.62.25.27-.15-.47-.25-.06-.47,0,.09.29,0,.35,0-.19-.09-.08-.29-.46-.25s-.55.1-.44.24.34-.06.27.13c-.44.12-.62-.13-.69.19a.38.38,0,0,1,.47.21l-.31.11,0-.11c-.57,0-.07.21-.62.24l-.33-.18c0-.22.79,0,.57-.31-.34,0-.4.19-.74.17l.21-.1c-.12,0-.42-.37-.8-.06-.2.13,0,.12,0,.24-.52.12-.63.26-1,.34,0-.23-.61.08-.34-.2.24.1,1,0,1.09-.29-.31-.23.45,0,.44-.33-.43.07-.53-.19-.68-.35a.57.57,0,0,0-.27.14c0,.16.18.13.27.3a1.86,1.86,0,0,0-1.12.41c-.2,0-.23-.22,0-.26a11.19,11.19,0,0,1-1.75.27c.49.2-.58.17-.22.34.32,0,.67.15.57.29s-.06-.12-.16-.16c-.16.18-.48-.16-.59.1.47-.17-.07-.33-.09-.55-.31.18-.06-.14-.44-.08a5.8,5.8,0,0,1-1.13.46,3.91,3.91,0,0,0-1.76.38c-.3,0-.28-.3-.57-.28s.38.19-.14.2V96c-.11.09-.93,0-.84.4l0-.28a.29.29,0,0,0-.19.12c-.05-.08-.2-.12-.1-.21-.39-.09-.57.17-.87.25l.3.09a8.63,8.63,0,0,1-1.35.35l-.09-.14-.23.15c0-.14-.37-.16-.44,0l.53-.52c.28,0-.11.23.12.32s.64-.05.62-.2c-.19,0-.18.06-.28.14-.2-.18.07-.24.11-.4-.09,0-.26,0-.24.08a1.08,1.08,0,0,1,.59-.28c-.15.12.2.09.16.17-.1-.18.17-.3.57-.34.41.13.63-.3,1.12-.35a1,1,0,0,1-.43.54c.34,0,.3-.08.64-.06.05-.16,0-.38.33-.55l.1.13c.29-.15.17-.34.61-.4.75-.12,1.54-.21,2.11-.31l.09.13c.16-.33,1-.28,1.35-.48.79,0,1.51-.39,2-.23a17.12,17.12,0,0,1,3.69-.68l-.15.22c.18-.17.2.09.42,0-.33-.13.25-.24.38-.38a4,4,0,0,0,1.86-.37l.06.13c.46-.31,1.18-.16,1.87-.2a.64.64,0,0,0,.45.12c.3-.26.51-.25,1-.42a8.21,8.21,0,0,1,1.48,0c1.42-.41,3-.32,4.51-.61l.14.15c1.45-.41,3.37-.14,4.64-.35l-.09.27c.42.08.91-.09.79-.29.42.08,1-.16,1.29.06.42,0,.49-.14.84-.19a9.52,9.52,0,0,0,1.92,0H257c-.08.06-.08.17.11.19s1.09.08.77-.25c.85.18,2-.15,2.77.1-.07-.09.14-.1.22-.16a10,10,0,0,0,2.11,0c.11,0-.19.15.11.17s0-.12.22-.17a31.84,31.84,0,0,1,3.48.22c1.93-.1,3.94,0,5.78.08l0,.06c.63-.22,1.42.33,1.94,0,.15.07.56.06.44.18.51-.15,1.36.23,2.08,0l-.18,0c.7.18,1.35,0,2.09.18-.08,0-.22,0-.25.1.28.15.72-.24.85.09.17,0,.14-.15,0-.15a48.11,48.11,0,0,0,5.14.18c1.19.26,0,.53,1,.36.07.06.08-.12.08-.05.38-.06.53.39.82.24-.08-.2.19-.1.21-.22.73.18.85.37,1.46.26l-.06.1c.74-.23,1.51,0,2.15-.31,3.83.22,7.51.34,11.24.6s7.27.53,10.95,1a3.19,3.19,0,0,0,1.86.3c-.05,0-.11,0-.05.09.09-.21.68,0,.8-.16,1.37.15,2.64.2,4.05.3-.23,0-.37.18-.1.19l.3-.12,0,.07c.19,0,.41-.11.23-.2,3.57.08,7,.79,10.47.93a20.84,20.84,0,0,0,2.9.15,38.67,38.67,0,0,0,7.71.68A2.48,2.48,0,0,1,339.26,97.35Z"/><path class="cls-3" d="M118.56,150.12c.5-.63,1.45-.29,2-.75.08,0,0,.28.21.17a3.22,3.22,0,0,1,2.57-.28l0,.08c.17,0,.3-.25.47-.24,0,.05,0,.08,0,.14,0-.16.28-.12.33-.25.07,0,.1.18.19.24l.06-.19c.17-.46.65-.06,1-.33,0,0,0,.08,0,.12a7.5,7.5,0,0,1,1.88-.58.36.36,0,0,0,0,.25c0-.19.18-.27.35-.33.12.18.26-.21.49-.13v.05c.11-.22.25.08.32-.17l.13.14c0-.28.24.12.34,0l0-.06c.11-.08.2,0,.3,0l0,0c.24-.1.42,0,.37-.17.12.15-.23.1,0,.33a9.78,9.78,0,0,1,2.51-.48c.12.07.18.09.22.17s.31-.08.37-.2.07.1.12.11.12-.25.31-.18a.2.2,0,0,0,0,.22c.12-.19.31-.18.47-.26,0,0-.05.07,0,.13.15-.2.34,0,.48-.13l0,.13c.29.12,0-.27.27-.21-.05.05,0,.09,0,.15.17-.25.53-.22.72-.32v0a3.16,3.16,0,0,0,.72-.14c.1,0,0,.3.26.22-.06-.24.39-.15.19-.41.22,0,.57.07.69,0-.07.11.16.28,0,.33l.17.13c0,.1-.15,0-.08.1s.32-.14.4-.12c.13-.17.22-.46.48-.53-.11.11.12.26.05.32l.26-.51c.09,0,.06.19.17.11s0-.12.06-.18.34-.11.43.13c.06.09-.13.07,0,.14s.15-.11.31-.13v0c.11,0,.28-.15.14-.26s.06.14-.06.08a.47.47,0,0,1,.38-.24c-.05,0,0,.11,0,.19a1.7,1.7,0,0,1,.61-.43c0-.12,0,.22-.1.17.35.11.59-.31.89-.12,0,0-.05-.15-.05-.13.16,0,.18.16.26.09,0,.1.12,0,.21-.09s0,0-.05.06a1.49,1.49,0,0,1,1-.24c0-.06.14-.27.21-.28v.16c.08.08.24-.05.28.07.11-.21-.56.26-.38.08.08.12.24-.28.24-.07.14,0,.25-.22.42-.11-.05,0-.07.23,0,.2s0-.08.2-.16l.09-.08c0-.15.19,0,.08-.16.05.12.29-.12.32.12v.2c.09,0,.1-.23.15-.32l0,.08c0-.3.22,0,.27-.26.21.07.49-.07.62.1.12-.11.23-.24.4-.2,0,0-.06,0-.06.11s.13,0,.21-.08.25.13.39.21c.12-.11,0-.26,0-.36.2.26.36-.27.59,0,0,.05-.18.18,0,.23.2.27.21-.27.45-.17l-.11-.22c.13.13.27-.2.31.05,0-.1.27,0,.19-.2.39.13.81-.29,1.12.09,0,0,.17,0,.12-.15s-.09.11-.14,0,0-.08,0-.11.21,0,.16.24c.27.1.14-.45.46-.43,0,.1,0,.13.13.09l.12-.21c.21,0,.17.2.21.36.1,0,.23-.08.25-.22l.17.18c-.13-.13.06-.13.1-.17l0,0c0,.06.15,0,.2,0s-.17-.11-.25-.13.12-.08.17-.19c0,.17.2.07.28.07s.07-.17.1-.17.16,0,.12.11-.1-.06-.13,0,.11.2.21.06-.11-.31.1-.25c0,0,0,.11,0,.18l.2,0,0-.15s0,.05,0,.07c0-.17.25-.12.24-.3s.22.06.3,0v0a.24.24,0,0,0,.3-.14v0a.27.27,0,0,0,.22-.17c.17.07.21.54.31.3.14,0,.14-.33.06-.4.28,0,.5-.31.79-.16,0-.06,0-.1.05-.15.39-.06.72-.41,1.11-.22-.09.09,0,.15.06.23.05-.16.15.1.11-.13s-.06-.19-.18-.21a.85.85,0,0,1,.69-.16c-.07,0,0-.1,0-.15,0,.21.23.19.32.06l0-.13.12.1c0-.06,0-.28.11-.21l.09.12c.08-.15.2-.39.37-.34l.17.14c.05,0,.11-.19,0-.21.27,0,.42,0,.55.11a2,2,0,0,1,1.29-.93l0,.1c.15,0,0-.19.11-.15s.16.15.11.3c.21,0,.16-.27.25-.37s-.06.12-.09,0,.27,0,.22-.22c.08,0,.09.2.1.29l.07-.14c.2.15-.15.52.09.72l.08-.07c.17.14-.17.34.1.29.07-.15.06-.46-.07-.49.2-.16-.06-.49.18-.59.1.07-.18.12-.08.24s.19-.19.31-.19c-.14,0-.12-.24-.06-.31s0,.21.16.15c0-.12.11-.28-.05-.28,0-.27.2,0,.22-.25.12.14,0,.47.2.46-.09-.14.14-.33-.06-.52.09,0,.15.14.14.26s.13-.42.3-.12l0-.18s.11.05.2.12.2-.37.3-.12c0,0,.23-.13.08-.26s-.1.2-.27,0c.17.15.17-.11.22-.21l.06.09c0-.06.14-.09.12-.21a.13.13,0,0,0,.08.14l0-.18c.14-.17.15.23.3.09l-.08.19s.14.06.2,0,0-.34-.06-.46.11.12.14-.08l0,.24a.22.22,0,0,0,.3.08c.06-.09.1-.36-.06-.35a.11.11,0,0,1,.18.11c.12-.13-.08-.13,0-.29.09.06.3.08.45.15l0,.3.09-.06c0,.25.12.1.14.32.08,0,.12-.11.15-.2-.31-.18,0-.52-.17-.76.2-.21.45.56.5,0-.08-.05-.06-.32-.17-.15.16-.06,0-.33.2-.33-.08.19.26.18.16.46,0-.09-.14,0-.16,0s.12.28.27.18.2-.17.12-.29-.13.1-.15-.09c.15-.17.3,0,.24-.27-.11.09-.21,0-.26-.15l.1-.15,0,.12c.25-.06,0-.22.2-.33l.19.14c0,.21-.34.11-.16.37.14-.08.12-.23.27-.26l-.06.13c.05,0,.28.3.35-.06,0-.15,0-.11-.07-.22.18-.19.19-.34.31-.46.08.22.24-.17.2.15-.13-.06-.41.18-.38.43.19.18-.18.09-.1.37.16-.12.28.12.39.25,0,0,.06-.13.07-.17s-.11-.1-.19-.26a.71.71,0,0,0,.36-.54.17.17,0,0,1,.09.25,2.22,2.22,0,0,1,.66-.5c-.26-.13.2-.24,0-.36a.26.26,0,0,1-.33-.21c.08,0,.06.1.11.13,0-.19.25.1.23-.17-.16.23.12.31.18.52.09-.21.07.13.21,0a2.39,2.39,0,0,1,.36-.6c.31,0,.48-.43.64-.61.14,0,.2.26.32.2s-.21-.13,0-.21v.06c0-.1.37-.18.24-.5l.09.26s0-.09.05-.14.12.09.1.19c.19,0,.19-.24.3-.36l-.15-.05c.12-.29.32-.29.47-.52l.08.13.06-.19c.05.15.2.12.19,0l-.08.57c-.13,0,0-.23-.14-.29s-.26.14-.21.28c.07-.05.06-.08.08-.17.14.14,0,.24.06.4,0-.05.11-.05.09-.11a.57.57,0,0,1-.18.35c0-.14-.11-.06-.11-.14.09.16,0,.31-.15.41-.21-.08-.19.37-.38.49a1.36,1.36,0,0,1,0-.58c-.14,0-.1.11-.25.14a1,1,0,0,1,0,.57l-.08-.1c-.08.18,0,.34-.14.47s-.6.41-.82.58l-.07-.11c0,.34-.34.4-.44.64-.34.11-.53.59-.78.5a4.34,4.34,0,0,1-1.38,1.16v-.24c0,.19-.11-.06-.19,0,.18.08,0,.27-.06.42-.3,0-.53.35-.68.61l-.07-.12c-.1.37-.45.32-.73.45-.06,0-.15-.13-.23-.06-.05.3-.14.31-.31.55a1.68,1.68,0,0,1-.64.16c-.49.58-1.18.71-1.74,1.19l-.11-.13c-.5.6-1.39.59-1.87,1l0-.28a.27.27,0,0,0-.25.39c-.2,0-.38.29-.56.12-.19,0-.17.2-.31.3a1.91,1.91,0,0,0-.82.24l.09,0c0-.06,0-.18-.1-.17s-.49.07-.26.35c-.41-.07-.79.41-1.21.27.06.08,0,.12,0,.19-.32.1-.7,0-.91.25-.06,0,0-.17-.09-.15s0,.12-.05.19c-.46.3-1.08.1-1.54.26a12.52,12.52,0,0,1-2.47.7v-.07c-.21.3-.69-.12-.82.29-.08,0-.25,0-.23-.12-.18.22-.64,0-.9.24l.07,0c-.34-.08-.57.17-.94.11,0,0,.09-.07.08-.13s-.24.33-.38,0c-.07,0,0,.16,0,.15a9,9,0,0,0-2.24.52c-.58-.1-.14-.52-.52-.22-.05,0,0,.12,0,.06-.15.11-.33-.31-.42-.13.09.19-.05.13,0,.24-.35-.07-.46-.24-.69-.05v-.1c-.25.32-.64.22-.83.58-1.68.31-3.28.69-4.93.93s-3.23.46-4.93.49a.77.77,0,0,0-.87-.05s0,0,0-.09c0,.22-.29.06-.29.27-.62,0-1.18.16-1.81.24.1,0,.11-.22,0-.19l-.09.16,0-.06c-.08,0-.14.16,0,.22-1.54.4-3.19.17-4.71.49a4.47,4.47,0,0,0-1.27.25,7.9,7.9,0,0,0-3.46.38S118.11,150.35,118.56,150.12Z"/><path class="cls-3" d="M330.09,154.32c-1.56.64-3.77.14-5.49.58-.21,0,0-.31-.45-.22a18.55,18.55,0,0,1-6.55.2l.11-.1c-.41,0-.85.28-1.27.26,0-.06.13-.09,0-.16-.07.18-.75.12-.91.26-.18,0-.19-.2-.42-.26l-.2.21c-.58.53-1.64.08-2.51.39,0,0,.12-.09,0-.13a40.66,40.66,0,0,1-4.88.69.2.2,0,0,0,0-.29c0,.22-.53.3-1,.38-.24-.21-.71.25-1.25.17l0-.05c-.34.26-.59-.09-.85.21l-.28-.16c-.1.32-.58-.12-.86.06l0,.07c-.28.09-.47-.05-.73,0l0,0c-.63.13-1,0-1,.23-.27-.18.6-.14.19-.39a56.67,56.67,0,0,1-6.4.7c-.26-.08-.42-.09-.49-.18a4.3,4.3,0,0,0-1,.24c.07,0-.16-.11-.27-.11-.41-.06-.37.29-.82.22.15-.08.2-.16.12-.24a3.71,3.71,0,0,1-1.23.31c.05,0,.15-.08.12-.15-.43.25-.87,0-1.25.19l.12-.15c-.7-.11-.13.31-.73.25.12-.06.07-.1.08-.16a7.69,7.69,0,0,1-1.88.4v-.06a14.72,14.72,0,0,0-1.81.2c-.25,0,0-.34-.6-.24.08.28-1,.2-.59.48a7.59,7.59,0,0,0-1.72.08c.22-.13-.33-.32.1-.38l-.37-.15c0-.11.35,0,.22-.12a7.71,7.71,0,0,1-1,.16,3.25,3.25,0,0,1-1.32.63c.28-.13-.24-.3,0-.36l-.81.61c-.22,0-.1-.22-.4-.13,0,.08-.1.13-.18.2s-.9.13-1.05-.14c-.12-.1.35-.08.09-.16s-.41.12-.8.16l0,0c-.28,0-.76.17-.45.3s-.09-.16.19-.1a1.77,1.77,0,0,1-1,.29c.13-.05.1-.13.14-.21a7.14,7.14,0,0,1-1.66.5c0,.13.19-.26.29-.19-.81-.13-1.57.37-2.26.15.11,0,.09.18.08.14-.38,0-.39-.18-.63-.09-.05-.11-.3,0-.55.11s-.08-.05.14-.08a7.37,7.37,0,0,1-2.55.27c0,.07-.45.3-.64.3l0-.18c-.19-.09-.63.05-.69-.09-.36.23,1.51-.27,1-.07-.16-.14-.71.31-.63.07-.38,0-.71.25-1.09.11.11,0,.27-.26,0-.23-.53.07-.14.09-.56.18l-.27.08c0,.17-.48,0-.25.18-.08-.13-.76.13-.76-.15l0-.22c-.24,0-.35.25-.51.36l-.09-.09c0,.33-.56,0-.79.27-.5-.09-1.23.06-1.49-.13a2.27,2.27,0,0,1-1.12.21c.08,0,.2,0,.21-.12-.29-.09-.34,0-.57.07.05-.05-.56-.17-.88-.28-.35.11-.2.29-.22.4-.38-.32-1,.26-1.48,0,.12-.06.52-.19.2-.26-.38-.32-.66.27-1.22.14l.16.27c-.26-.16-.79.2-.76-.09-.17.1-.65-.06-.57.2-.92-.18-2.17.23-2.77-.22-.13,0-.45,0-.38.15.23.14.29-.12.38,0-.12,0-.14.09-.14.13-.29-.05-.51-.06-.27-.29-.64-.15-.6.47-1.4.38,0-.11,0-.15-.27-.13l-.43.21c-.51,0-.31-.25-.34-.44-.27,0-.61,0-.72.18l-.35-.22c.26.16-.21.12-.34.17l.12-.05c-.06-.08-.36,0-.52,0,0,.11.37.16.55.19-.13.08-.35.07-.53.17,0-.19-.45-.12-.67-.14s-.27.18-.34.17-.41,0-.23-.14.21.09.34,0c-.16-.07-.16-.24-.5-.11s.09.36-.41.26c.13,0,.15-.13.24-.19l-.46-.09v.17c-.06,0,0-.06,0-.08-.13.18-.69.08-.79.28a6.2,6.2,0,0,1-.71-.12l0,0a1.21,1.21,0,0,0-.86.1v0a1.63,1.63,0,0,0-.68.13c-.37-.13-.14-.64-.54-.43-.38,0-.58.31-.43.42-.68-.12-1.45.15-2.09-.11-.09.07,0,.11-.24.15-1-.06-2.12.2-2.9-.14.29-.07,0-.16,0-.26-.24.15-.28-.16-.37.1s0,.22.27.28a4.73,4.73,0,0,1-1.84-.06c.16.07,0,.12-.09.16.05-.24-.39-.28-.72-.21l-.06.15-.21-.16c-.13,0-.16.31-.48.15l-.09-.15a2.07,2.07,0,0,1-1.22.15l-.29-.22c-.16,0-.45.14-.17.21-.63-.15-1-.18-1.21-.37a10.79,10.79,0,0,1-4,.3l.06-.11c-.33-.11-.21.19-.45.1.13-.1-.23-.24.07-.35-.47-.15-.66.14-1,.17-.07.14.28-.08.18.1s-.66-.16-.77,0c-.1-.09,0-.24.1-.33l-.31.09c-.32-.29.9-.4.57-.74h-.28c-.22-.24.76-.21.09-.33-.31.08-.62.38-.37.5-.64,0-.38.5-1.05.43-.17-.14.54,0,.45-.18-.28-.2-.65,0-.93,0,.3.1,0,.3-.22.33-.32-.12.27-.18-.21-.24-.1.12-.58.18-.2.29-.24.28-.49-.11-.81.09-.11-.21.6-.42.09-.56,0,.2-.72.21-.49.52-.2-.08-.18-.23,0-.34-.27-.13-.8.3-.82-.09l-.14.19c-.08-.07-.2-.13-.32-.24s-.91.2-.82-.09c-.09,0-.69,0-.51.18.34.16.47-.12.61.18-.21-.25-.55,0-.79,0v-.12c-.14,0-.43,0-.53.11.11-.06.08-.15,0-.18l-.19.16c-.54,0,0-.32-.56-.33l.42-.08c-.09,0-.21-.17-.47-.14s-.36.31-.48.43c-.31,0-.08-.19-.41-.06l.46-.15c.07-.05-.18-.29-.55-.33s-.71.21-.35.34c-.19,0-.43-.15-.24-.24-.45,0,0,.17-.39.23-.13-.13-.55-.33-.79-.52l.48-.22-.26,0c.4-.17-.11-.18.14-.38a1.19,1.19,0,0,0-.59,0c.4.42-.74.43-.7.77-.74,0-.17-.85-1.07-.43.08.1-.35.31.13.26-.43-.08-.42.3-.89.1.43-.09-.29-.38.33-.51-.08.11.28.12.38.1-.14-.15.15-.33-.29-.38-.29,0-.66,0-.67.13s.42,0,.18.2c-.57,0-.56-.29-.91,0,.35,0,.37.22.31.34l-.43,0,.13-.11c-.61-.17-.28.2-.89.09l-.19-.29c.22-.17.87.21.88-.14-.4-.07-.6.1-.94-.05l.31,0c-.14,0-.09-.52-.76-.35-.34,0-.12.11-.19.24-.66-.08-.91,0-1.33,0,.2-.23-.72-.15-.15-.32a1.73,1.73,0,0,0,1.4.12c-.1-.33.48.13.75-.14-.51-.09-.35-.38-.36-.59a1.2,1.2,0,0,0-.4,0c-.13.17,0,.2,0,.38a3,3,0,0,0-1.52,0c-.15-.12,0-.28.22-.26a12.13,12.13,0,0,1-2-.39c.26.37-.75-.05-.59.24.31.12.5.38.24.47s.07-.12,0-.2c-.36.11-.3-.32-.7-.12.67,0,.31-.33.54-.54-.51,0,.1-.15-.34-.23a9.72,9.72,0,0,1-1.62,0,8.21,8.21,0,0,0-2.07-.43c-.21-.18.13-.39-.14-.5s.09.33-.36.09l.09,0c-.2,0-.85-.4-1.24-.08l.33-.22c-.08-.05-.21,0-.31,0,.05-.09,0-.2.19-.22-.2-.26-.69-.13-1.06-.21l.12.21a11,11,0,0,1-1.6-.36l.13-.14h-.41c.19-.13,0-.29-.32-.22l1.17-.16c.18.15-.4.12-.36.31s.6.25.79.12a.63.63,0,0,0-.43,0c.09-.23.39-.15.65-.26-.11,0-.22-.12-.29-.05a1.85,1.85,0,0,1,.86.06c-.29,0,0,.16-.1.2.16-.18.53-.16.92,0,.16.3.9,0,1.35.23a2.43,2.43,0,0,1-1,.24c.25.18.35.08.6.26a1.88,1.88,0,0,1,1-.3l-.07.15c.42,0,.54-.2,1,0a16.57,16.57,0,0,0,2.25.52l-.06.15c.52-.25,1.24.09,1.79,0,.73.28,1.81.17,2.12.49,1.47.16,2.77.22,4.26.43l-.34.19c.33-.13.14.15.42.14-.24-.2.45-.18.68-.29a4.85,4.85,0,0,0,2.18.09l0,.15a4.31,4.31,0,0,1,2.07.26.52.52,0,0,0,.4.23,5.45,5.45,0,0,1,1.33-.27,8.46,8.46,0,0,1,1.57.27c1.73-.22,3.37.11,5.13,0l.09.19c1.73-.29,3.75.1,5.2,0l-.16.3c.44.11,1-.05.93-.27.44.11,1.14-.11,1.4.16.46.07.57-.13,1-.16a7.65,7.65,0,0,0,2.13.06l-.21,0c-.1.07-.12.2.1.22s1.2.08.88-.28c.93.21,2.16-.17,3.08.12-.08-.1.15-.12.24-.19a10.75,10.75,0,0,0,2.32,0c.14,0-.2.17.13.18s0-.14.25-.19c1.32-.2,2.69.14,3.89.06,2.12-.25,4.36-.17,6.41-.3v.07c.66-.31,1.65.22,2.15-.23.17.07.63,0,.52.16.52-.22,1.56.12,2.32-.17l-.19.05c.82.13,1.49-.13,2.36,0-.09,0-.24.06-.26.14.36.13.73-.34,1,0,.18,0,.1-.19,0-.17a51.06,51.06,0,0,0,5.71-.51c1.41.13.18.59,1.22.26.11.07,0-.14.07-.07.4-.12.73.36,1,.16-.16-.21.18-.13.16-.27.87.1,1.07.27,1.71.07l0,.12c.72-.38,1.66-.27,2.24-.68,4.27-.36,8.35-.88,12.52-1.24s8.17-.74,12.42-.87a3.76,3.76,0,0,0,2.18,0s-.09.07,0,.11c0-.25.76-.08.8-.32,1.57-.07,3-.26,4.6-.37-.25,0-.34.25,0,.22l.29-.18.06.07c.2-.06.41-.19.17-.26,4-.49,8.08-.28,12.05-.55a25.13,25.13,0,0,0,3.31-.23,50.48,50.48,0,0,0,8.95,0A2.23,2.23,0,0,1,330.09,154.32Z"/><path class="cls-3" d="M151.7,122.06c-1.1.94-3.09,1.11-4.48,1.79-.17.08-.06-.27-.43-.09-1.29.83-3.76,1.13-5.65,1.22l.09-.1c-.36,0-.71.38-1.09.39,0,0,.1-.09,0-.15,0,.17-.65.18-.78.32-.16,0-.17-.16-.38-.19l-.18.21c-.49.51-1.44.21-2.2.56,0,0,.1-.09,0-.12a32.29,32.29,0,0,1-4.38.79.17.17,0,0,0,0-.25c-.06.2-.5.27-.9.34-.19-.19-.66.22-1.14.14l0,0c-.33.22-.52-.09-.78.17l-.23-.14c-.14.28-.51-.11-.79,0V127c-.26.08-.4-.06-.66,0l0,0c-.58.09-.93,0-.91.16-.21-.17.57-.09.24-.33a35.26,35.26,0,0,1-5.81.23c-.21-.09-.35-.12-.4-.2a4.45,4.45,0,0,0-.9.14c.07,0-.12-.12-.22-.13-.35-.1-.4.22-.77.11.15,0,.21-.12.16-.2a4,4,0,0,1-1.16.15c.06,0,.15,0,.14-.12-.44.18-.76-.07-1.14,0l.14-.11c-.58-.17-.19.25-.7.14.12,0,.09-.08.11-.13a6.58,6.58,0,0,1-1.76.14l0-.05a12.81,12.81,0,0,0-1.65,0c-.2-.07.1-.3-.46-.29,0,.25-1,0-.66.35a6.79,6.79,0,0,0-1.53-.15c.23-.08-.19-.32.2-.31l-.27-.17c.05-.1.3,0,.22-.08a6.07,6.07,0,0,1-1,0,3.74,3.74,0,0,1-1.35.38c.29-.08-.13-.28.07-.32l-.88.42c-.2,0,0-.19-.31-.15,0,.06-.12.09-.22.14s-.82,0-.87-.24.32,0,.12-.13c-.37,0-.39.06-.76,0v0c-.24,0-.72,0-.48.21s0-.15.2-.06a1.83,1.83,0,0,1-1,.11c.13,0,.13-.09.18-.16a7.43,7.43,0,0,1-1.59.23c0,.11.24-.2.31-.13-.68-.21-1.47.12-2-.15.09,0,0,.16,0,.13-.33,0-.29-.2-.52-.15,0-.1-.27,0-.5,0s0-.06.14-.06a7.54,7.54,0,0,1-2.3,0c0,.07-.47.21-.64.19l.08-.15c-.14-.09-.55,0-.57-.15-.38.16,1.39-.07.88,0-.1-.14-.69.2-.57,0-.33,0-.67.14-1,0,.08,0,.29-.19,0-.2-.48,0-.14.06-.54.09l-.25,0c0,.15-.42,0-.26.14-.05-.13-.7,0-.63-.21l.09-.19c-.21,0-.36.19-.53.27,0,0-.08-.06-.06-.09-.06.29-.48,0-.76.17-.41-.12-1.08-.06-1.27-.26a2.19,2.19,0,0,1-1,.09c.08,0,.18,0,.21-.09-.23-.1-.3,0-.52,0,0,0-.46-.19-.71-.3-.34.08-.24.24-.28.34-.28-.3-.94.17-1.3-.11.12,0,.49-.13.23-.21-.29-.3-.62.2-1.1,0l.1.25c-.2-.16-.71.12-.65-.12-.17.07-.58-.09-.53.15-.79-.21-1.94.1-2.42-.32-.11,0-.4,0-.35.12s.27-.1.34,0a.14.14,0,0,0-.14.11c-.24-.06-.44-.08-.2-.27-.55-.15-.58.4-1.28.3,0-.1,0-.14-.22-.12l-.4.17c-.45,0-.25-.22-.26-.39-.24,0-.54,0-.65.15l-.29-.2c.21.15-.2.1-.32.15l.12-.05c0-.06-.33,0-.47,0,0,.1.32.14.48.17-.13.08-.32.06-.49.15,0-.17-.4-.11-.59-.13s-.25.15-.31.15-.37,0-.19-.14.17.08.29,0c-.14-.07-.13-.21-.43-.1s.06.32-.37.22c.11,0,.13-.11.22-.16l-.41-.08v.15c-.06,0,0,0,0-.07-.12.16-.61.05-.71.23a4.22,4.22,0,0,1-.62-.1l0,0a1,1,0,0,0-.76.1v0a1.39,1.39,0,0,0-.6.12c-.33-.1-.11-.56-.48-.36-.33,0-.52.28-.38.38-.6-.08-1.28.17-1.84,0-.09.06,0,.1-.2.14a9.12,9.12,0,0,1-2.56,0c.25-.07,0-.15,0-.23-.2.14-.26-.12-.32.11s0,.2.25.24a4.4,4.4,0,0,1-1.61,0c.15.06,0,.1-.07.15,0-.22-.36-.22-.65-.13l0,.13-.2-.12c-.11,0-.1.28-.4.17l-.1-.14a1.73,1.73,0,0,1-1,.25l-.28-.17c-.14,0-.37.16-.11.19-.58-.08-.94,0-1.13-.2a9.79,9.79,0,0,1-3.43.68l0-.1c-.31-.06-.14.18-.35.14.08-.11-.26-.18,0-.32-.44,0-.53.23-.8.3,0,.13.21-.11.18.06s-.6,0-.64.16c-.12-.07-.06-.22,0-.3l-.25.12c-.35-.2.68-.48.31-.72l-.24.05c-.26-.18.61-.29,0-.3-.25.12-.44.42-.19.48-.54.11-.19.49-.79.53-.18-.09.47-.07.33-.22-.3-.12-.54.14-.8.12.29,0,.08.26-.09.32s.17-.21-.25-.18c-.06.12-.43.25-.09.29-.11.27-.45,0-.64.2-.17-.16.37-.46-.11-.49.1.16-.54.3-.25.52-.19,0-.23-.16-.11-.28-.28-.08-.59.38-.72,0l-.06.19c-.1,0-.22-.08-.36-.15s-.7.33-.72.06c-.08,0-.6.09-.37.25s.35-.19.58,0c-.26-.17-.46.09-.64.18l-.05-.1c-.11.06-.36.07-.41.19.07-.07,0-.13-.07-.15l-.09.17c-.44.14-.16-.25-.59-.15l.32-.16c-.08,0-.25-.09-.45,0s-.18.33-.23.46c-.23.09-.14-.15-.36,0l.29-.21c0-.06-.26-.21-.59-.16s-.49.33-.14.36c-.17,0-.41,0-.31-.15-.36.1.08.14-.23.28-.15-.07-.59-.15-.87-.24l.29-.29L50,128c.26-.23-.17-.12-.05-.34a1,1,0,0,0-.47.16c.52.25-.42.51-.22.78-.6.17-.54-.65-1.08-.1.12.06-.13.33.23.19-.39,0-.19.33-.67.28.31-.17-.42-.23,0-.48,0,.1.29,0,.35,0-.18-.08,0-.3-.42-.23-.23.06-.56.13-.48.27s.36-.08.24.11c-.46.14-.59-.1-.73.23.3-.07.41.08.43.2l-.33.13,0-.13c-.58,0-.12.23-.67.29l-.31-.18c.09-.2.81,0,.64-.33-.35,0-.44.22-.78.2L46,129c-.12,0-.35-.37-.8,0-.24.13,0,.12,0,.23-.56.14-.69.28-1,.37,0-.24-.65.09-.31-.21A1.46,1.46,0,0,0,45,129c-.27-.23.45,0,.51-.33-.45.07-.49-.19-.61-.35a.82.82,0,0,0-.31.15c0,.17.15.14.2.3a2.3,2.3,0,0,0-1.22.43c-.19-.05-.18-.21,0-.26a13,13,0,0,1-1.83.32c.44.18-.61.18-.3.35.32,0,.63.13.49.28s0-.12-.12-.15c-.2.18-.43-.16-.62.11.52-.19,0-.33.07-.56-.37.2,0-.14-.42-.07a6.65,6.65,0,0,1-1.25.5,6.09,6.09,0,0,0-1.88.4c-.28,0-.18-.31-.47-.29s.31.19-.2.2l0-.06c-.13.08-.94,0-1,.39l.08-.28c-.1,0-.17.08-.23.12s-.16-.13,0-.21c-.35-.11-.62.16-.94.24l.25.1a12.89,12.89,0,0,1-1.46.35l0-.15-.29.16c0-.16-.29-.18-.42,0l.72-.54c.26,0-.19.23,0,.34s.64-.06.68-.21c-.19,0-.19.06-.32.14-.13-.18.16-.24.27-.4-.1,0-.27,0-.26.07a1.4,1.4,0,0,1,.68-.27c-.19.12.16.09.09.16,0-.17.27-.3.69-.34.35.14.72-.29,1.21-.34a1.6,1.6,0,0,1-.6.55c.32,0,.33-.07.65,0a1,1,0,0,1,.5-.55l.06.13c.33-.14.27-.33.73-.39.78-.1,1.57-.26,2.15-.35l.06.12c.25-.34,1.06-.31,1.46-.52.78,0,1.59-.43,2-.27a27.23,27.23,0,0,1,3.8-.81l-.18.23c.21-.18.18.08.41,0-.3-.11.29-.25.44-.4a4.29,4.29,0,0,0,1.91-.44l0,.13a4,4,0,0,1,1.9-.26.61.61,0,0,0,.44.11A3.43,3.43,0,0,1,53.6,126a8.11,8.11,0,0,1,1.48,0,44.17,44.17,0,0,1,4.58-.79l.13.15c1.48-.5,3.4-.33,4.68-.61l-.1.28c.42,0,.93-.15.8-.33.42.06,1-.19,1.29,0,.43,0,.5-.15.85-.21a9.61,9.61,0,0,0,2-.08h-.2c-.08.06-.08.18.11.19s1.09,0,.78-.29c.85.15,2-.24,2.8,0-.07-.08.13-.11.22-.17a10.39,10.39,0,0,0,2.11,0c.13,0-.18.16.12.16s0-.12.22-.17a25.71,25.71,0,0,1,3.53,0c1.94-.19,4-.12,5.83-.12l0,.06c.63-.25,1.45.26,2-.1.14,0,.56,0,.45.16.5-.16,1.38.2,2.11,0l-.18,0c.71.16,1.37,0,2.12.14-.08,0-.22,0-.25.11.29.13.72-.25.86.07.17,0,.13-.15,0-.15,1.66.2,3.46.06,5.2.11,1.22.27,0,.54,1,.36.07.06.07-.11.08-.05.39-.07.54.38.83.23-.08-.19.18-.09.21-.21.74.17.87.36,1.49.26l-.07.09c.74-.24,1.53,0,2.17-.31,3.86.21,7.56.31,11.3.47s7.29.22,11,.35a3.3,3.3,0,0,0,1.9.1s-.1,0,0,.1c0-.23.68,0,.76-.25,1.38,0,2.64-.19,4-.27-.22,0-.32.22-.05.19l.26-.16.05.06c.18,0,.36-.18.17-.22,3.46-.56,7-.55,10.34-1.42a12.19,12.19,0,0,0,2.76-.71,26.81,26.81,0,0,0,7.38-2S152.68,121.58,151.7,122.06Z"/><path class="cls-4" d="M802,140.66s-92-91-370,0c-276.24,90.43-432-8-432-8V321.57l929,6.09C922.78,291.79,928.48,165.09,802,140.66Z"/></g></g></svg>