<svg xmlns="http://www.w3.org/2000/svg" viewBox="0 0 83.82 84.21"><defs><style>.cls-1{fill:#3f3c29;fill-opacity:0.38;}.cls-2{fill:#92c131;}.cls-3{fill:#e30613;}.cls-4{fill:#fff;}.cls-5{fill:#ffde00;}</style></defs><title>rana</title><g id="Layer_2" data-name="Layer 2"><g id="Layer_1-2" data-name="Layer 1"><path class="cls-1" d="M82.53,59.78c1.51.26-.86.87,1,.41C83.32,59.77,83,59.47,82.53,59.78Z"/><path class="cls-1" d="M80.7,59.62c-.35.57-1.43.89-.6,1.66C80.22,60.73,80.79,60.13,80.7,59.62Z"/><path class="cls-1" d="M52.13,67.23c0-.18-.41.27-.5.36.35,0,.68.46,1,.14C52.24,67.71,52.3,67.45,52.13,67.23Z"/><path class="cls-1" d="M44.87,68.24c.1.49,1.65.76,2.57.74Z"/><path class="cls-1" d="M38.07,71c-.6.49-.43.72.35.61C38.48,71.36,38.22,71.25,38.07,71Z"/><path class="cls-1" d="M37.59,69.92a1.58,1.58,0,0,0-1.13.69C36.49,70.16,37.78,70.74,37.59,69.92Z"/><path class="cls-1" d="M22.82,72.78c-.37,0-1-.39-1.39.21C21.82,72.56,23,73.51,22.82,72.78Z"/><path class="cls-1" d="M16,72.55c-.22,0-.31.17-.57,0-.41.27,0,.6.35.62Z"/><path class="cls-1" d="M49.67,76l-.73-.2.09.49Z"/><path class="cls-1" d="M80.71,73.61c-.7-.48-.54.37-.67.42C80.69,74.21,79.85,73.36,80.71,73.61Z"/><path class="cls-1" d="M51.81,67.1l.22,0,0-1.05Z"/><path class="cls-2" d="M16.29,7.66a7.56,7.56,0,0,0,7.41,7.67,7.55,7.55,0,0,0,7.42-7.67A7.55,7.55,0,0,0,23.7,0,7.53,7.53,0,0,0,16.29,7.66Z"/><path class="cls-2" d="M36.59,10.32c-.53,4.79,3.42,7.9,7.63,7.9s7.28-3.19,7.64-7.9c.32-4.34-3.44-7.49-7.64-7.89C39.75,2,37.06,6,36.59,10.32Z"/><path class="cls-2" d="M29.59,42.2S22.1,56.44,19.13,58.55c-2.4,1.72-3.46.84-3.46.84s-6.93-2.34-5.94-.76,5.58,2.53,5.58,2.53-8.22.41-7.11,1.42,7.94,1.12,7.94,1.12S7.46,66,9.49,66.49c2.83.65,10.16-.5,11.2-2.13S29.82,51.24,32.05,48.7,29.59,42.2,29.59,42.2Z"/><path class="cls-3" d="M17,66c-.21-.48-.43-1-.57-1.36s-.24-.57-.38-1C15,64,7.6,66.05,9.48,66.49A20.29,20.29,0,0,0,17,66Z"/><path class="cls-3" d="M15.32,61.17a8.4,8.4,0,0,1,.35-1.78c-.25-.08-6.9-2.29-5.92-.74s5.57,2.52,5.57,2.52-8.23.4-7.12,1.42S15.1,63.7,16,63.71A9.84,9.84,0,0,1,15.32,61.17Z"/><path class="cls-4" d="M17.8,7.66a5.9,5.9,0,1,0,11.8,0,5.9,5.9,0,1,0-11.8,0Z"/><path class="cls-2" d="M41,5.79C26,3.61-.06,18.2,0,26.17c.11,11.47,21.07,11,21.07,11s7.68,5.69,11,11.5C42.26,60.57,68.15,72.54,77.64,71c6.24-1,7.58-5.84,4.8-24.28-2.86-19-24.92-27-24.92-27A19.85,19.85,0,0,0,41,5.79Z"/><path class="cls-4" d="M38.32,10.32c-.39,3.7,2.66,6.1,5.9,6.1s5.62-2.47,5.9-6.1c.26-3.36-2.65-5.79-5.9-6.09C40.76,3.9,38.69,7,38.32,10.32Z"/><path d="M39.7,10.28a1.06,1.06,0,0,0,1.12,1.15,1.14,1.14,0,0,0,1.12-1.15,1.12,1.12,0,0,0-1.12-1.15C40.16,9.06,39.78,9.64,39.7,10.28Z"/><path d="M19.07,6.5a.94.94,0,0,0,1,1,1,1,0,0,0,1-1,1,1,0,0,0-1-1C19.48,5.42,19.13,5.94,19.07,6.5Z"/><path class="cls-5" d="M21.07,37.23s6.35.42,16.34-5.18C56.87,60.56,76,65.69,77.64,71c.21.63-24.63-3.17-39-15.55C32.67,50.36,21.07,37.23,21.07,37.23Z"/><path d="M6.19,26.36a.67.67,0,0,0,.68.68.69.69,0,1,0,0-1.37A.69.69,0,0,0,6.19,26.36Z"/><path d="M2.16,25.24A.79.79,0,1,0,3,24.45.81.81,0,0,0,2.16,25.24Z"/><path class="cls-2" d="M37.38,46.16S32.1,62.58,29.62,65.25c-2,2.16-3.22,1.49-3.22,1.49s-7.27-.89-6,.45,6,1.36,6,1.36-8,2-6.7,2.81,8-.5,8-.5-8,4-6,4.06c2.89.08,9.86-2.51,10.54-4.31s8.23-17.5,9.89-20.44C44.22,46.77,37.38,46.16,37.38,46.16Z"/><path class="cls-3" d="M28.43,70.86a14.35,14.35,0,0,1-1.67-3.26,5.4,5.4,0,0,1,0-.74,1.16,1.16,0,0,1-.35-.08s-7.27-.9-6,.44,6,1.36,6,1.36-8,2-6.7,2.79,8-.49,8-.49-8.06,4-6,4.06c1.86,0,5.38-1,7.86-2.24C29.35,72.29,28.73,71.32,28.43,70.86Z"/><path class="cls-3" d="M69.35,51.07a2.38,2.38,0,1,1,1.59,3A2.39,2.39,0,0,1,69.35,51.07Z"/><path class="cls-3" d="M77.82,54.87a1.37,1.37,0,1,1,.91,1.71A1.39,1.39,0,0,1,77.82,54.87Z"/><path class="cls-3" d="M61.29,44.39a1.05,1.05,0,0,1,2,.62,1,1,0,0,1-1.3.69A1.07,1.07,0,0,1,61.29,44.39Z"/><path class="cls-3" d="M73.91,57.89a1.05,1.05,0,1,1,.71,1.31A1.07,1.07,0,0,1,73.91,57.89Z"/><path class="cls-3" d="M79.17,48.65a1.9,1.9,0,0,1-2.4,1.28,1.93,1.93,0,1,1,2.4-1.28Z"/><path class="cls-3" d="M68.16,38.83a1.92,1.92,0,1,1-1.73-2.1A1.92,1.92,0,0,1,68.16,38.83Z"/><path class="cls-3" d="M76.06,41.31A2.3,2.3,0,1,1,74,38.8,2.31,2.31,0,0,1,76.06,41.31Z"/><path class="cls-3" d="M67.11,45.51a1.37,1.37,0,0,1,2.62.79,1.38,1.38,0,0,1-1.71.92A1.35,1.35,0,0,1,67.11,45.51Z"/><path class="cls-2" d="M68.27,56.66c-4-1.9-11.31-6.55-16.68-6.55a5.66,5.66,0,0,0-4.86,2.22c-4.47,6,8.2,20.7,8.2,20.7s-4.79,0-9.67.27a5.9,5.9,0,0,0,.25,1.87,19.8,19.8,0,0,0,1.75,3.48c.26.33.7.91,1,1.36,1.71-.67,3.46-1.33,5.12-1.88a17.88,17.88,0,0,1,7.36-.78c2,.15,3.08.29,2.84-1.16-.45-2.75-7.78-10.44-7.78-10.44s11.31,6.51,16.9,6.49C86.49,72.18,73.3,59,68.27,56.66Z"/><path class="cls-3" d="M45.49,75.16a73.78,73.78,0,0,0-9.85,2.49,1.16,1.16,0,0,1,.23.59,1.08,1.08,0,0,1-.17.68c3,0,10.38-1.88,10.38-1.88S40.5,80.15,38.59,82a1.19,1.19,0,0,1,.71,1,.78.78,0,0,1,0,.22,71.63,71.63,0,0,0,9-3.16l-1-1.36A18.48,18.48,0,0,1,45.49,75.16Z"/><path class="cls-3" d="M36.22,74.56a1.15,1.15,0,0,1-.14.61c2.81.64,9.4,0,9.4,0a6,6,0,0,1-.25-1.88,76.5,76.5,0,0,0-9.2.77A1,1,0,0,1,36.22,74.56Z"/><path class="cls-3" d="M36.05,74.05a1.14,1.14,0,0,0-1.11-.56,1.18,1.18,0,1,0,.19,2.36,1.14,1.14,0,0,0,.95-.66,2.21,2.21,0,0,1-1.14-.5C34.75,74.43,35.2,74.23,36.05,74.05Z"/><path class="cls-3" d="M36.05,74.05c-.85.18-1.3.38-1.09.62a2.21,2.21,0,0,0,1.14.5,1.25,1.25,0,0,0,.14-.61A1.49,1.49,0,0,0,36.05,74.05Z"/><path class="cls-3" d="M34.6,77.15a1.18,1.18,0,0,0-1.09,1.28,1.17,1.17,0,0,0,2.19.49c-.74,0-1.23-.08-1.28-.34s.43-.6,1.22-.91A1.13,1.13,0,0,0,34.6,77.15Z"/><path class="cls-3" d="M34.42,78.58c.07.26.55.35,1.28.34a1.33,1.33,0,0,0,.18-.68,1.28,1.28,0,0,0-.24-.59C34.86,78,34.36,78.3,34.42,78.58Z"/><path class="cls-3" d="M36.93,83.12a1.22,1.22,0,0,0,1.3,1.08,1.17,1.17,0,0,0,1.06-1c-.63.11-1.08.09-1.25-.1s.06-.61.58-1.1a.94.94,0,0,0-.58-.11A1.19,1.19,0,0,0,36.93,83.12Z"/><path class="cls-3" d="M38,83.05c.18.19.62.21,1.25.1a.83.83,0,0,0,0-.22,1.17,1.17,0,0,0-.71-1C38.09,82.44,37.82,82.85,38,83.05Z"/></g></g></svg>