<svg xmlns="http://www.w3.org/2000/svg" viewBox="0 0 725.93 567.94"><defs><style>.cls-1{fill:#095d5b;}.cls-2{fill:#f7941e;}.cls-20,.cls-3{fill:#fff;}.cls-20,.cls-21,.cls-4,.cls-5{opacity:0.8;}.cls-10,.cls-14,.cls-15,.cls-21,.cls-22,.cls-5,.cls-9{fill:none;}.cls-21,.cls-5{stroke:#d3d2c2;}.cls-14,.cls-15,.cls-21,.cls-22,.cls-5,.cls-9{stroke-linecap:round;}.cls-5{stroke-width:0.59px;}.cls-20,.cls-21,.cls-5{isolation:isolate;}.cls-6{fill:#625558;}.cls-7{fill:#231f20;}.cls-8{fill:#fcb22c;}.cls-10,.cls-22,.cls-9{stroke:#231f20;}.cls-9{stroke-width:1.54px;}.cls-10{stroke-width:0.6px;}.cls-11{fill:#a35625;}.cls-12{fill:#2bb673;}.cls-13{fill:#7a411b;}.cls-14,.cls-15{stroke:#2bb673;}.cls-14{stroke-width:1.04px;}.cls-15{stroke-width:1.18px;}.cls-16{fill:#956599;}.cls-17{fill:#9d68a0;}.cls-18{fill:#ae7daf;}.cls-19{fill:#f59fbb;}.cls-21{stroke-width:0.28px;}.cls-22{stroke-width:0.9px;}</style></defs><title>amigosZorrito</title><g id="Layer_2" data-name="Layer 2"><g id="Layer_1-2" data-name="Layer 1"><path class="cls-1" d="M725.93,165.48A141.14,141.14,0,1,1,584.79,24.34,141.14,141.14,0,0,1,725.93,165.48Z"/><path class="cls-2" d="M590.3,249.9s-17.07,2.95-28.17,5.12-19,7.57-21.34,10.07-5.54,18.67-11.24,16.58c-3.62-1.34-2.55-9.29-2.55-9.29s-5.8,2.71-9.68,1.42c-5.78-1.93,4-10.25,4-10.25s-14.88,4.68-15.08-4.88c-.12-5.79,9.67-9.63,29.21-8.82,18.83.79,49.25-14.36,49.25-14.36"/><path class="cls-2" d="M560.94,55.63c28.82,2.31,57.15,10.14,57.15,10.14a125.83,125.83,0,0,1,15.36-20.22c11.87-12.29,36.21-31.64,36.21-31.64a117.79,117.79,0,0,1,0,24.2C668.21,49.64,663,79.6,663,79.6s1.47,13.36,1.33,17.81c-.28,9,.66,10.58.66,10.58s32.66,15.49,27.94,16c-9.34.93-23.31,3.27-23.31,3.27s26.58,16.8,14.91,15.87c-17.85-1.43-21.53,4.51-21.53,4.51s12.68,8.06,16.14,17.28-3.57-1.66-11.84-3.15c-5-.91-9.65-1.27-9.65-1.27s-7.21,21.95,2,34.28c35.82,55.28,35.82,60.67,35.82,60.67s-35.82,48.5-108.85,48.5c-2.31-27.67-10-61.8-28.48-101S459,152.21,434.82,140.69s-34.52-19.62-34.52-28.84,40.83-18.94,53.51-21.25c7.39-1.34,48.11-8.53,62-15.68C533.67,65.72,548.93,54.67,560.94,55.63Z"/><path class="cls-3" d="M557.13,207.45c17.27,36.7,22.19,40.68,26.81,99.16,12.76.26,52.81-8.08,58.64-14,0,8.27,1-7.89,0,0-12.29-80.83-39.17-107.38-104.76-123.14-12.05-2.89-36.39-10-41.81-8.81C518.51,169.43,548.92,190,557.13,207.45Z"/><g class="cls-4"><g class="cls-4"><path class="cls-5" d="M496,160.65c22.5,8.78,51.82,29.9,61.13,46.8,16.54,30.08,22.28,58.18,30.38,107"/></g></g><path class="cls-6" d="M411.22,100.41c-13.45,3.81-32,8.48-21.29,17.43,13,10.79,36.51,18.71,36.51,18.71s4.58-30.38,1.35-40C427.79,96.51,416.1,99,411.22,100.41Z"/><path class="cls-2" d="M542.57,61.11s9.93-18.81,15.16-28.68S578.2-1.21,579.42.05s6.5,9.44,7.51,24.84.8,35.27.8,35.27Z"/><path class="cls-3" d="M631.12,72.47s24.07-25.93,24.71-22.73,0,29.45,0,29.45-9.32-3.84-12.66-4.47S631.12,72.47,631.12,72.47Z"/><path class="cls-3" d="M573.54,32.59c1.7-1.3,2.69,1.38,3.56,6.25s3,18.06,3,18.06l-19.14-1.27S571.84,33.89,573.54,32.59Z"/><path class="cls-3" d="M612.71,109c0,10.52-10.7,22.17-23.05,22.17-9.27,0-19.9-9.9-14.53-24,4.91-12.92,12.62-15.58,22.24-14.28C606.56,94.11,612.71,98.46,612.71,109Z"/><path class="cls-3" d="M547.6,82.84c0,7.62-7.3,16.06-15.7,16.06-6.31,0-13.55-7.17-9.9-17.38,3.34-9.36,8.85-10.35,15.15-10.35S547.6,75.21,547.6,82.84Z"/><path class="cls-7" d="M593,116.6a3.48,3.48,0,1,0,3.48-3.47A3.48,3.48,0,0,0,593,116.6Z"/><path class="cls-7" d="M533.28,86.56a3,3,0,1,0,3-3A3,3,0,0,0,533.28,86.56Z"/><path class="cls-8" d="M648.15,213s6.18,16.78,11.24,26.9,5.61,19.67,5.05,23-9.94,12.93-8.06,16.3,8.24,0,8.24,0-1.1,8.86,2.29,11.15c5.06,3.39,6.28-7.64,7.66-8.9,1.23-1.15,5.22,10.74,12.92,5.06,4.65-3.45-.26-11.35-7.7-28.67-11-25.59-21.86-52.3-21.86-52.3"/><path class="cls-7" d="M647,292.06s-10.8-54.43-3.2-68.7c10.39-19.45,24.93-20.5,24.93-20.5l-3.67-5.18s-19.58,3.95-30.62,26.07c-7.82,15.69,0,73.7,0,73.7Z"/><path class="cls-7" d="M588.79,305.53S581.51,253,574,238.69a70.17,70.17,0,0,0-8.25-12.47l-4.16-8.69s8.48.7,19.4,18c9.37,14.81,16.92,70,16.92,70Z"/><path class="cls-3" d="M566,149.76c4.69-3.87,7.16,7.33,23.86,7.21,11.21-.08,18.93-12.88,23.83-8.38,6.88,6.34-1.84,22.6-21.7,24.62C576.41,174.79,559.43,155.18,566,149.76Z"/><path class="cls-9" d="M588.39,154.36l1.7,18.9"/><path class="cls-9" d="M601.32,150.61,605,173"/><path class="cls-9" d="M578,152.13,574.31,170"/><path class="cls-10" d="M139.7,324.13l.58,8.78"/><path class="cls-10" d="M145.74,322.54l1.44,10.4"/><path class="cls-10" d="M134.89,323,133,331.23"/><path class="cls-11" d="M132.58,388.5c-8.73-36.57-27.29-92.79-30.57-117.35s-2.19-34.89-4.91-49.62-7.1-20.2-3.82-22.38,11.62,2.58,24.71-2.33,28.78-29.88,22.77-31-20.13-6.77-31.11-1.64c-15.51,7.25-25,20.38-25,20.38S63.24,170,43.06,169.12c-23.94-1-29.7,7.1-32.2,10.92,0,0-7.64,13.65-8.19,37.12S-5.17,325.85,7,327c12.5,1.18,16.45-.14,24.09-8.88s35.47-48.58,35.47-48.58,9.28,2.69,4.92,18-4.37,22.38-9.28,34.39-30,80.18-32.2,122.76c-1.37,26.71-1.78,31.58.91,37v11.44l6.82,52.46H50.83s-3.43-10-4.08-32.8c-.36-12.62.19-18,1.47-21.6,11.83,2.52,28.22,2.26,44,1a287.62,287.62,0,0,0,39.17-5.87s1.65,6.83,2.06,23.66a261.05,261.05,0,0,1-2.06,35.26s11,2.2,11.49-.74c2-11.11,5-66,5-66C148.41,471.92,141.31,425.07,132.58,388.5Z"/><path class="cls-2" d="M133.32,443.79c.89-.12.74-2.71-.14-2.56S132.43,443.92,133.32,443.79Z"/><path class="cls-2" d="M135.78,435.8c.87-.19.54-2.85-.34-2.62S134.89,436,135.78,435.8Z"/><path class="cls-2" d="M131.72,438.47c.87-.18.57-2.71-.3-2.49S130.83,438.65,131.72,438.47Z"/><path class="cls-2" d="M129.22,440.66c.93-.16.61-2.61-.26-2.41S128.38,440.82,129.22,440.66Z"/><path class="cls-2" d="M129.28,430.11c-.86.27-.43,2.67.44,2.42S130.14,429.83,129.28,430.11Z"/><path class="cls-2" d="M137.47,440.91c.88-.14.73-2.89-.2-2.68S136.58,441.06,137.47,440.91Z"/><path class="cls-2" d="M130.2,450.06c-.89.07-.93,2.48,0,2.45S131.09,450,130.2,450.06Z"/><path class="cls-2" d="M125,438.73c-.87.21-.61,2.48.27,2.3S125.88,438.53,125,438.73Z"/><path class="cls-2" d="M119.51,434.26v.3c.23,1.38,1.62,1.47,1.42.05a1.17,1.17,0,0,0-.75-1c.09-.72-.26-1.67-.85-1.47C118.56,432.37,118.81,434.14,119.51,434.26Z"/><path class="cls-2" d="M137.27,449.09c.88-.06.92-2.78,0-2.68S136.36,449.15,137.27,449.09Z"/><path class="cls-2" d="M124.12,444.38c-.89.13-.78,2.37.11,2.26S125,444.23,124.12,444.38Z"/><path class="cls-2" d="M139.88,433.41c.87-.2.51-3-.36-2.74S139,433.63,139.88,433.41Z"/><path class="cls-2" d="M119.57,453.39c-.65-1-1.71.34-1.06,1.3S120.21,454.38,119.57,453.39Z"/><path class="cls-2" d="M123.78,454.4c.65,1.05,1.71-.34,1.06-1.41S123.13,453.36,123.78,454.4Z"/><path class="cls-2" d="M119.94,450.47c.64,1,1.7-.43,1-1.4S119.3,449.53,119.94,450.47Z"/><path class="cls-2" d="M118.21,447.21c-.7-.88-1.67.5-1,1.38S118.93,448.12,118.21,447.21Z"/><path class="cls-2" d="M122.41,444c-.7-.92-1.66.59-1,1.52S123.13,445,122.41,444Z"/><path class="cls-2" d="M129.6,444.75c-.72-1-1.66.57-.94,1.62S130.34,445.83,129.6,444.75Z"/><path class="cls-2" d="M122.63,434.54c-.83-.85-1.58.78-.83,1.65S123.42,435.43,122.63,434.54Z"/><path class="cls-2" d="M124.15,443.94c.71,1,1.67-.59.94-1.57S123.43,443,124.15,443.94Z"/><path class="cls-2" d="M119.8,441.22c-.78-.86-1.6.65-.88,1.51S120.62,442.1,119.8,441.22Z"/><path class="cls-2" d="M122.29,458.51c.57,1.08,1.72-.23,1.15-1.31S121.72,457.46,122.29,458.51Z"/><path class="cls-2" d="M112.58,455.36c.58.9,1.74-.26,1.06-1.17S111.94,454.48,112.58,455.36Z"/><path class="cls-2" d="M114.27,444.56c.7.82,1.67-.58,1-1.41S113.59,443.75,114.27,444.56Z"/><path class="cls-2" d="M113.09,434.92a.8.8,0,0,0-.28.88c.2,1.27,1.63,1.3,1.42,0l-.12-.39a1.11,1.11,0,0,0,0-1.63C113.45,433.15,112.81,434.15,113.09,434.92Z"/><path class="cls-2" d="M128.07,449.13c-.64-1.06-1.7.47-1,1.52S128.72,450.22,128.07,449.13Z"/><path class="cls-2" d="M127.47,434.48v-.14h0V434l-.2-.68c.22-.75-.18-2.08-.84-1.86s-.57,1.13-.32,1.76l-.05.68,0,.06a1.46,1.46,0,0,0,.25,1.32C126.89,435.91,127.46,435.26,127.47,434.48Z"/><path class="cls-2" d="M118.91,436.45c-.75-.83-1.61.75-.85,1.57S119.68,437.3,118.91,436.45Z"/><path class="cls-2" d="M118.48,461.61c.58,1.06,1.72-.13,1.14-1.18S117.9,460.59,118.48,461.61Z"/><path class="cls-2" d="M111,446.53c.69.79,1.67-.52,1-1.31S110.25,445.77,111,446.53Z"/><path class="cls-2" d="M127.22,459c.56,1.13,1.72-.26,1.16-1.42S126.65,457.91,127.22,459Z"/><path class="cls-2" d="M117.88,430.62c-.82-.77-1.58.88-.76,1.65S118.7,431.42,117.88,430.62Z"/><path class="cls-2" d="M131.14,442.38c.73,1.08,1.66-.62.92-1.71S130.41,441.33,131.14,442.38Z"/><path class="cls-2" d="M115.39,434c.21,1.32,1.63,1.34,1.4,0S115.17,432.71,115.39,434Z"/><path class="cls-2" d="M123.87,433.52c-.25-1.46-1.68-1.49-1.43,0S124.11,435,123.87,433.52Z"/><path class="cls-2" d="M108.43,435.17c.19,1.21,1.6,1.19,1.4-.05S108.25,434,108.43,435.17Z"/><path class="cls-2" d="M116.89,440.54c.14,1.32,1.56,1.48,1.42.12S116.76,439.22,116.89,440.54Z"/><path class="cls-7" d="M149.29,395.4s5.61,19.17,9.1,17.6,1.39-14.27,1.39-14.27,9.38,10.11,11.56,5.75-12.26-16.65-12.26-16.65Z"/><path class="cls-2" d="M35.65,171.62s.17-1.58,5.52-9.21c6.31-9,19.67-18.75,17.34-14.62s-5.21,10.87-8.71,17.7a28,28,0,0,0-2.58,6.89Z"/><path class="cls-2" d="M66.39,177.37s1.11-1.67,4.8-6.28c7.46-9.33,17.57-16.37,21.93-17.87,2.76-.95-7.64,11-13.12,22.6-3,6.29-3.79,6.49-3.79,6.49Z"/><path class="cls-7" d="M37.69,545.53s-11.33,12.33-10.51,14S39.51,555,39.51,555s-2.06,10.68,0,11.09,12-10.67,12-14.37a26.66,26.66,0,0,0-.65-6.17Z"/><path class="cls-7" d="M131.35,545.16c-1.22,0-15.85,13.33-13,13.75s11.33-3.66,11.33-3.66-2.05,15.21,2,12.33,11.49-12.27,11.5-14c0-2.17-.42-9.2-.42-9.2Z"/><path class="cls-11" d="M31.56,173.35c1.21-1,3.58-6,6.41-16,3.19-11.33-14.14-41.46-18.45-37.64-5.83,5.16-13.35,24.84-11.58,40.1.82,7,5.92,13.37,8.62,16.46l2.67.27Z"/><path class="cls-11" d="M74.39,313.72c-19.87,11.65-36.55,31.85-46.2,48.46C15,384.92,18,383.91,18,383.91l9.26,8.22s7.94-14,17.11-27.73C54.77,348.77,61.83,343,61.83,343Z"/><path class="cls-7" d="M17.67,383.45s-17.14,15.38-14.36,18S17,397.27,17,397.27s-5.75,12.53-.89,12.88,11.07-18,11.07-18Z"/><path class="cls-11" d="M102.69,305.32c19,13,34.26,34.28,42.75,51.52,11.62,23.59,13.64,31,13.64,31l-9.79,7.57c-10.61-20.69-10.5-20.75-20.09-37.46-9.36-16.3-16-22.55-16-22.55Z"/><path class="cls-3" d="M79.37,219.15c2.36,7.17-2.31,17.5-10.72,20.28-6.32,2.08-15.55-2.67-15.29-13.08.19-8,4.29-13.36,10.61-15.44S77,212,79.37,219.15Z"/><path class="cls-3" d="M26.71,204.46c2.44,5,0,13.38-6.66,16.61-5,2.42-12.82.14-13.38-7.66-.43-6,1.74-10,6.52-12.74C17.35,198.24,24.26,199.44,26.71,204.46Z"/><path class="cls-7" d="M64.09,228.33a2.43,2.43,0,1,0,1.55-3.05A2.42,2.42,0,0,0,64.09,228.33Z"/><path class="cls-7" d="M13.2,211.52a2,2,0,0,0,1.65,2.26,2.06,2.06,0,0,0,.47-4.08A2,2,0,0,0,13.2,211.52Z"/><path class="cls-7" d="M4.73,295c1.28-2.38,7-2.31,14.27.85,5.16,2.23,6.7,3.72,6.7,6.59s.18,11.58-7.37,11.9S7.18,312.83,5,309.94C2.28,306.5,3,298.21,4.73,295Z"/><path class="cls-12" d="M108.19,272s-35.95,2.73-39.36,8.4C64,288.45,64,304.89,64,304.89l47.28-3.55Z"/><path class="cls-12" d="M108.32,277.77s35.76,1.05,50.46,6,38.48,19.32,38.48,19.32l-16.79,29s-41.38-31.43-58.13-34.61-14,0-14,0Z"/><path class="cls-13" d="M91.75,191s9.58-10.9,18.06-13.43,12.56-.79,12.56-.79-9.05,11.87-15.31,14.22C99.72,193.78,91.75,191,91.75,191Z"/><path class="cls-13" d="M21.15,174s-6.72-13.52-3.89-20a48.56,48.56,0,0,1,7-11.16s6.69,10.24,4.33,17A69.89,69.89,0,0,1,21.15,174Z"/><path class="cls-14" d="M179.84,328.75l9.8,11.05"/><path class="cls-14" d="M182.18,322.64l13.52,9"/><path class="cls-14" d="M186.37,313.72l13.53,11.2"/><path class="cls-14" d="M192.83,309.45l10,8.54"/><path class="cls-14" d="M195.7,303.5l12.74,5.95"/><path class="cls-2" d="M133.2,422.93c.85-.32.25-2.83-.59-2.48S132.35,423.25,133.2,422.93Z"/><path class="cls-2" d="M124.66,424.9l.3-.33c.51.9,1.52.72,1.22-.58-.23-1-1-1.3-1.3-.9-.17-.37-.45-.62-.77-.49C123.27,423,123.8,425.24,124.66,424.9Z"/><path class="cls-2" d="M130,427.67c.86-.29.4-2.77-.46-2.46S129.15,428,130,427.67Z"/><path class="cls-2" d="M134.52,425.7c-.85.3-.39,2.84.48,2.57S135.38,425.4,134.52,425.7Z"/><path class="cls-2" d="M119.71,425.24c-.42.18-.5.83-.37,1.38l0,.46c.31,1.39,1.75,1.35,1.43-.06l-.16-.44C120.66,425.87,120.26,425,119.71,425.24Z"/><path class="cls-2" d="M131.82,416.61c.86-.39.17-2.83-.67-2.44S131,417,131.82,416.61Z"/><path class="cls-2" d="M121.35,418.28c.84-.39.19-2.64-.63-2.23S120.52,418.66,121.35,418.28Z"/><path class="cls-2" d="M122.94,429.42c-.12.75.25,1.79.84,1.59s.56-1.72,0-2.17a1.4,1.4,0,0,0-.33-1.29c-.83-.83-1.56.91-.73,1.75Z"/><path class="cls-2" d="M111.94,429.57c-.28-1.3-1.68-1.17-1.41.12S112.23,430.87,111.94,429.57Z"/><path class="cls-2" d="M114.63,427.53c-.29-1.33-1.7-1.2-1.41.12S114.93,428.88,114.63,427.53Z"/><path class="cls-2" d="M112.78,423.58c-.36-1.32-1.77-1.14-1.42.17S113.12,424.91,112.78,423.58Z"/><path class="cls-2" d="M117.78,425.35c-.31-1.39-1.72-1.27-1.42.1S118.08,426.74,117.78,425.35Z"/><path class="cls-2" d="M121.69,419.32c-.39-1.44-1.81-1.28-1.42.14S122.09,420.75,121.69,419.32Z"/><path class="cls-2" d="M116.42,420.71c-.38-1.38-1.79-1.19-1.42.17S116.79,422.09,116.42,420.71Z"/><path class="cls-2" d="M106.15,425.43c-.33-1.26-1.73-1-1.4.21S106.49,426.68,106.15,425.43Z"/><path class="cls-2" d="M111.4,417.6c-.4-1.33-1.81-1.08-1.4.25S111.76,418.94,111.4,417.6Z"/><path class="cls-2" d="M114.13,409.64c-.43-1.38-1.82-1.1-1.38.27S114.57,411,114.13,409.64Z"/><path class="cls-2" d="M116.08,416.69c.37,1.39,1.78,1.22,1.39-.2S115.69,415.3,116.08,416.69Z"/><path class="cls-2" d="M107.49,416.24c-.4-1.3-1.8-1-1.39.28S107.91,417.56,107.49,416.24Z"/><path class="cls-2" d="M119,411.61c-.44-1.4-1.85-1.17-1.41.23S119.46,413,119,411.61Z"/><path class="cls-2" d="M125.2,417.44c.17.54.53,1,.93.8.83-.37.17-2.7-.66-2.31l-.07.06c-.51-1.13-1.67-.91-1.29.45C124.33,417.22,124.84,417.53,125.2,417.44Z"/><path class="cls-15" d="M391.6,553.65,390,535.16"/><path class="cls-15" d="M374.43,535.27l.34,21.56"/><path class="cls-15" d="M321.71,552.63l1.62-17.3"/><path class="cls-16" d="M379.38,518.56s12.73,24.82,29.37,30,51-.75,51-.75-29.33,15.38-51.21,10.67c-13.73-3-20-3.3-40.26-25.71a49.16,49.16,0,0,0-6.17-5.33Z"/><path class="cls-17" d="M407.46,558.32a69.5,69.5,0,0,0,9.66-8.85,59,59,0,0,1-11-1.6,82.62,82.62,0,0,1-9.93,7.29C400.15,556.52,403.88,557.34,407.46,558.32Z"/><path class="cls-18" d="M397.81,555.92a103.08,103.08,0,0,0,12-8.56,28.48,28.48,0,0,1-3.47-1.06,34.84,34.84,0,0,1-7.84-4.31,135.09,135.09,0,0,1-13.2,7.92A56.35,56.35,0,0,0,397.81,555.92Z"/><path class="cls-17" d="M390.25,531.62c-5.13,3.69-12.9,8-17.1,10.32,4,3.8,9.64,6.6,13.32,8.82a116.4,116.4,0,0,0,14-9C396.42,539,393.47,535.08,390.25,531.62Z"/><path class="cls-18" d="M391.51,531c-4.47-4.74-7.69-10.3-9.67-13.23-5.25,4-15.28,7-19.71,9.66-1.88,1.48,7.63,11.6,11.94,15.65C378.19,540.69,386.31,534.73,391.51,531Z"/><path class="cls-19" d="M420.89,397.34s6.3-2.75,5.9-2.8-8.56-.58-8.56-.58Z"/><path class="cls-19" d="M416.8,392.25s5.18-5.79,4.77-5.8-8,2.66-8,2.66Z"/><path class="cls-19" d="M409.9,385s2.9-5.76,2.49-5.77S406.5,383,406.5,383Z"/><path class="cls-16" d="M375.08,412.61s14.37-2.1,19.56-5.79,10.81-11.28,10.81-11.28a25,25,0,0,1,.21-8.44c.35-2.17,1-5,1-5a91.37,91.37,0,0,1,11.7,11.06,14.63,14.63,0,0,1,2.52,4.21,7.49,7.49,0,0,1-4.72,3.16c-3.19.73-5.86,1.16-5.86,1.16a68.71,68.71,0,0,1-15.68,14.64c-9.55,6.31-16,7-18.28,7.21S375.08,412.61,375.08,412.61Z"/><path class="cls-3" d="M302.13,399.87a136.52,136.52,0,0,0,35.26-1.06c18.2-3.13,28.6-18,28.6-18s7.14.14,7.69,3.57-10.23,5.07-10.23,5.07,7.67,4.23,1.62,9c-5.31,4.17-10.14-1.33-10.14-1.33s2.22,6-3.44,8.57-8.61-3.93-8.61-3.93-.55,8.41-4.68,7.86-6.46-5.31-6.46-5.31-.05,8-5.47,7.37-4.83-6.74-4.83-6.74-3.26,7.43-7.69,6.31-3.42-6.94-3.42-6.94-6.72,8.12-10,4.1S302.13,399.87,302.13,399.87Z"/><path class="cls-19" d="M307.79,546.27s-6.54.86-6.17,1,7.95,2.2,7.95,2.2Z"/><path class="cls-19" d="M310.33,550.34s-7.34,3.92-6.91,4,9.22-.58,9.22-.58Z"/><path class="cls-19" d="M314.07,556.63s-4.68,5.29-4.24,5.41,7.29-2.43,7.29-2.43Z"/><path class="cls-19" d="M356.91,552.11s-7.25,1.87-6.82,2,9.27,1.39,9.27,1.39Z"/><path class="cls-19" d="M360.49,556.73s-7.35,3.93-6.92,4,9.22-.58,9.22-.58Z"/><path class="cls-19" d="M364.47,562.41s-4.68,5.28-4.24,5.4,7.29-2.43,7.29-2.43Z"/><path class="cls-16" d="M368.76,390.31l-70.17,20.83c.52,10.4,1.78,30.06,1.78,30.06s26.25,16.08,50.5,22.46a119.45,119.45,0,0,0,53,1.25S401.54,429,378.06,401.2C374.52,397,371.4,393.48,368.76,390.31Z"/><path class="cls-16" d="M320.82,516.05v31s-15-4-13.52-.82,8.59,13.59,8.59,13.59,13.84.22,13.08-5.4-.26-30.64-.26-30.64"/><path class="cls-16" d="M308.83,500.48c4.71,21.83,7.45,33.06,35.06,33.06,40.46,0,44.71-26.32,44.71-26.32Z"/><path class="cls-18" d="M361.63,360s11-12.28,27.33-11.16,32.84,6,30.26,10.14-5.47,11.19-21,17.4-37.61,1-37.61,1Z"/><path class="cls-18" d="M324.56,330.72c.39-1.4-4-14.49,8.51-25s31.58-19.1,30.41-13.25-7.16,23.38-14.11,31.18a127.44,127.44,0,0,1-13.2,12.86Z"/><path class="cls-16" d="M369.19,511.28v39.09s-13.52-.83-12.08,2.37,10.41,13.6,10.41,13.6,10.6-3,9.83-8.6.68-47.15.68-47.15"/><path class="cls-19" d="M361.66,365.51s11-6.27,18.71-5.93S391,362.49,391,362.49s-10.84,7.22-16.67,7.37C367.45,370,361.66,365.51,361.66,365.51Z"/><path class="cls-19" d="M326.53,332.89s3.68-12.11,9.5-17.17,9.69-5.16,9.69-5.16-2.91,12.7-7,16.81C333.85,332.2,326.53,332.89,326.53,332.89Z"/><path class="cls-18" d="M274.83,347.44c12.56-4.25,32.29-18.49,43.25-18.49s30.63,10.84,37.89,18.49c4.62,4.88,9.1,14.84,7.47,25.8-1,6.6,1.66,12,6.88,18.76l-16.63,13.09-38,11.33s-9.27.07-18.11.08c0-3.77,0-6.66,0-7.77,0-4.88-81.5-29.24-94.91-40C189.83,358.44,229.3,362.86,274.83,347.44Z"/><path class="cls-3" d="M339.14,361.39c2.06,6.25-.66,14.73-8,17.15-5.5,1.81-14.89-1.8-14.68-10.86.17-7,3.75-11.65,9.26-13.47S337.08,355.14,339.14,361.39Z"/><path class="cls-7" d="M328.08,367.14a2.12,2.12,0,1,0,1.35-2.66A2.1,2.1,0,0,0,328.08,367.14Z"/><path class="cls-3" d="M299.71,334.9c1.59,4.81-1.56,11.75-7.2,13.61-4.24,1.41-10.44-1.79-10.27-8.77.14-5.38,2.89-9,7.13-10.37S298.12,330.09,299.71,334.9Z"/><g class="cls-4"><g class="cls-4"><path class="cls-20" d="M282.92,343.67a9.7,9.7,0,0,1-.67-3.94c.13-5.37,2.88-9,7.12-10.36s8.75.72,10.34,5.53"/><path class="cls-21" d="M282.92,343.67a9.7,9.7,0,0,1-.67-3.94c.13-5.37,2.88-9,7.12-10.36s8.75.72,10.34,5.53"/></g></g><path class="cls-7" d="M289.62,341a1.65,1.65,0,0,0,2.08,1,1.63,1.63,0,0,0,1-2.06,1.64,1.64,0,0,0-3.11,1Z"/><path class="cls-19" d="M214.4,359.55c-13.84,2.12-20.31,3.72-13.76,9,2.52,2,7.38,4.51,13.6,7.26A87.06,87.06,0,0,0,214.4,359.55Z"/><path class="cls-2" d="M303.7,368.2c0-12,10.39-23,23-21.77,18.4,1.88,36.81,21.83,36.81,21.83s-22.48,21.92-37.81,20.47C310.94,387.34,303.7,377.24,303.7,368.2Zm23-17c-10.05,0-18.22,7.6-18.22,17s9.09,15,19.14,15c8.92,0,22.83-10.27,26.32-14.62C348,362.79,334.6,351.24,326.72,351.24Z"/><path class="cls-2" d="M289.55,357c-10.55,0-19.12-8.12-19.12-18.11,0-9.67,17.87-27.36,17.87-27.36s20.37,17.85,20.37,27.36C308.67,348.88,300.09,357,289.55,357Zm-.67-38.42c-3.63,1.64-13.65,13-13.65,20.31s6.43,13.3,14.32,13.3,14.32-6,14.32-13.3C303.87,333.65,295,324,288.88,318.58Z"/><path class="cls-2" d="M310.82,356.59c-2.23-1.34-8.26-4.95-9.45-5.55l2.18-4.28c1.54.79,8.91,5.22,9.75,5.73Z"/><path class="cls-18" d="M298.36,457.56s17.27,14,57.68,22c19,3.79,47.08,1.25,47.08,1.25l.95-18.58s-28.53,2.7-54.52-3.19c-35.64-8.09-50.46-20.63-50.46-20.63Z"/><path class="cls-17" d="M299.53,472.17s16.23,16.51,55.7,21.57c19.43,2.5,43.49-.9,43.49-.9l2.11-12.11a198,198,0,0,1-51.64-3.36c-30.78-6.48-49.1-19.38-49.1-19.38Z"/><path class="cls-18" d="M302.47,487.94s15.24,11.85,50.51,15.47c19.14,2,40.33-1,40.33-1l3.32-9.34s-25.51,3.29-49.14-1.74c-27.41-5.84-45-18-45-18Z"/><path class="cls-17" d="M307.34,503.19s11.34,9.32,46.82,9.28a183.55,183.55,0,0,0,34.53-3.29l3.1-6.81a232.45,232.45,0,0,1-44.2-.44c-27.88-3-42-12.14-42-12.14Z"/><path class="cls-3" d="M297.4,410.24a150.9,150.9,0,0,0,38.84-1.17c20-3.45,31.75-20.27,31.75-20.27s7.6.6,8.21,4.38-11.27,5.59-11.27,5.59,8.46,4.66,1.78,9.89c-5.84,4.58-11.16-1.46-11.16-1.46s2.45,6.64-3.79,9.44-9.48-4.33-9.48-4.33-.62,9.26-5.15,8.65-7.12-5.85-7.12-5.85-.05,8.78-6,8.13-5.32-7.43-5.32-7.43-3.6,8.18-8.47,6.95-3.77-7.65-3.77-7.65-7.4,8.95-11,4.51S297.4,410.24,297.4,410.24Z"/><path class="cls-22" d="M290.46,384.74s.62,8.93,5.54,8.62,5.24-9.85,5.24-9.85"/></g></g></svg>