<?xml version="1.0" encoding="UTF-8" standalone="no"?>
<!-- Generator: Adobe Illustrator 26.5.0, SVG Export Plug-In . SVG Version: 6.00 Build 0)  -->

<svg
   version="1.1"
   id="Capa_1"
   x="0px"
   y="0px"
   width="1024"
   height="600"
   viewBox="0 56.641 1024 600"
   enable-background="new 0 56.641 841.891 482"
   xml:space="preserve"
   sodipodi:docname="familia.svg"
   inkscape:version="1.2.1 (9c6d41e410, 2022-07-14)"
   xmlns:inkscape="http://www.inkscape.org/namespaces/inkscape"
   xmlns:sodipodi="http://sodipodi.sourceforge.net/DTD/sodipodi-0.dtd"
   xmlns="http://www.w3.org/2000/svg"
   xmlns:svg="http://www.w3.org/2000/svg"><defs
   id="defs6317">
	
	
	
</defs><sodipodi:namedview
   id="namedview6315"
   pagecolor="#ffffff"
   bordercolor="#000000"
   borderopacity="0.25"
   inkscape:showpageshadow="2"
   inkscape:pageopacity="0.0"
   inkscape:pagecheckerboard="0"
   inkscape:deskcolor="#d1d1d1"
   showgrid="false"
   inkscape:zoom="0.71862035"
   inkscape:cx="421.64127"
   inkscape:cy="243.52219"
   inkscape:window-width="3840"
   inkscape:window-height="2066"
   inkscape:window-x="-11"
   inkscape:window-y="-11"
   inkscape:window-maximized="1"
   inkscape:current-layer="g6312" />
<style
   type="text/css"
   id="style6152">
	.st0{fill:#E7DAC6;}
	.st1{fill:#2BB673;}
	.st2{fill:#F39200;}
	.st3{fill:#FFFFFF;}
	.st4{fill:none;stroke:#000000;stroke-width:0.723;stroke-linecap:round;}
	.st5{fill:#E30613;}
	.st6{fill:#85557C;}
	.st7{fill:none;stroke:#B780B1;stroke-width:0.72;stroke-linecap:round;}
	.st8{fill:#2FAC66;}
	.st9{fill:#FAB415;}
	.st10{fill:#00A0A4;}
	.st11{fill:#424343;}
	.st12{fill:#E83B4B;}
</style>
<path
   fill="#45b9a7"
   d="m 290.72042,133.13067 c 16.03501,-10.21999 34.76376,-31.83034 229.9766,-10.06003 97.91191,10.91831 125.20544,42.52107 147.62725,64.94418 13.16689,13.16804 27.36403,30.09818 24.23866,51.24818 -4.77031,32.29589 -32.05024,52.88411 -56.55481,66.63733 -13.42167,7.53202 -27.531,13.17194 -41.51417,19.23839 -6.58716,2.85832 -15.33128,5.5944 -21.10339,10.61791 -2.07534,1.80628 -1.30482,3.7335 0.62582,5.38764 7.60627,6.51379 18.3441,10.69203 27.16367,14.12124 l 0.48977,0.18986 c 59.06426,22.98879 121.63606,31.75881 181.92969,49.71108 26.33749,7.84153 52.33363,17.69089 76.82336,31.0865 14.6968,8.03919 35.29929,19.60121 42.48876,37.54958 13.31036,33.24649 -19.49185,72.19531 -41.65269,88.49216 -26.95837,19.82487 -59.01603,28.28799 -90.1968,35.4741 -38.02147,8.76092 -76.72936,14.68693 -115.27523,19.77546 -82.58434,10.90531 -157.60817,-35.63536 -239.60503,-19.77546 -58.77238,11.36696 -13.42909,6.10807 -73.60276,0 -47.31596,-13.46583 -126.35689,11.75058 -134.02129,0 -13.38828,-20.5258 -32.59443,9.05091 -42.90433,-13.46583 -10.26785,-22.42311 -6.63416,23.15265 -15.54153,0 -6.95078,-18.07321 -20.18198,19.90811 -21.02548,0 8.26672,-18.86386 -102.267886,-110.50043 34.12929,-213.30109 20.82758,-11.54772 42.40961,-20.33724 59.75934,-38.32073 13.82981,-14.33321 26.8285,-36.47152 22.22021,-58.32765 -5.42334,-25.71057 -30.2705,-39.04376 -36.6375,-64.71401 -7.67306,-30.93955 27.66581,-44.1375 47.15271,-54.4017 13.16936,-6.93773 23.62892,-13.30068 35.00988,-22.10711 z"
   id="path2"
   style="stroke-width:1.26821" /><path
   fill="#1a8171"
   fill-opacity="0.7"
   d="m 791.74502,578.79049 c 31.15604,37.97741 -39.54396,59.79843 -84.94785,51.73064 -45.40883,-8.0678 -391.65134,-2.43439 -497.08171,-2.04166 -105.43284,0.39143 -23.33827,-18.31249 -58.60788,-18.13043 -35.26961,0.18466 -32.83684,-32.0267 -7.22657,-40.63547 25.60902,-8.60877 317.41411,-22.25796 336.59181,-20.8496 19.1777,1.40835 280.11616,-8.05349 311.2722,29.92652 z"
   id="path4"
   style="stroke-width:1.26821" /><path
   fill="#2bb572"
   d="m 811.19358,591.98713 c 33.34269,35.67698 -11.09032,42.2779 -109.20753,52.91532 -98.11722,10.63742 -403.97598,-9.10293 -517.44921,-9.24467 -113.471987,-0.14435 -25.02525,-17.24485 -62.98488,-17.24485 -37.959637,0 -35.179328,-30.11768 -7.57412,-38.04763 27.6052,-7.92995 341.72945,-19.28651 362.36038,-17.87815 20.63217,1.41225 301.51515,-6.17699 334.85536,29.49998 z"
   id="path6"
   style="stroke-width:1.26821" />
<path
   class="st1"
   d="m 570.84579,279.25 c -0.85318,-48.388 -13.52913,-67.50424 -82.88112,-74.31441 -76.54315,-7.52702 -203.18063,-4.0622 -284.23349,8.24389 -62.03897,9.31916 -62.16085,139.78754 13.89477,143.49132 33.15245,1.67267 73.37417,2.50901 115.30227,1.67267 -3.16899,17.802 -16.82,44.92318 -16.82,44.92318 0,0 30.10535,-16.48776 41.31868,-31.18338 3.41275,-4.42062 5.60666,-9.55812 7.06928,-14.69561 52.77576,-2.15058 105.91719,-7.04912 149.18602,-16.72672 48.02229,-10.51393 57.65112,-33.57291 57.16359,-61.41094 z"
   id="path6156"
   style="stroke-width:1.20674" />
<g
   id="g6312"
   transform="matrix(1.21884,0,0,1.1947654,0.42865962,69.9271)">
	<path
   class="st2"
   d="m 371.2,309 c 0,0 -10.9,-3.2 -24.3,-4.3 -5.5,-0.5 -18.6,4.3 -26.9,8.5 -6.5,3.2 -25.2,6.6 -28.6,7.2 -5.8,1.1 -24.8,5.5 -24.8,9.8 0,4.3 4.8,8 16,13.2 11.2,5.4 49.4,13.2 60.2,30 14,21.8 14,42.3 17.2,57.5 3.1,14.3 2.8,22.8 2.8,22.8 0,0 -14.8,-0.6 -12.2,3.2 2.6,3.7 6.2,0 6.2,0 0,0 -1.5,3.8 0.5,4.8 2.6,1.2 6,-3.2 6,-3.2 0,0 -1.8,2.5 2.2,3.7 1.5,0.5 7.2,-2.2 6.2,-6.9 -1.1,-4.8 -0.9,-13.8 -0.5,-14.2 0.5,-0.5 23.5,0 23.5,0 l 1.8,12 c 0,0 -14,3.2 -12.5,5.4 1.5,2.2 8.3,-0.9 8.3,-0.9 0,0 -5.1,3.8 -2,4.8 3.2,0.9 6.3,-2.2 6.3,-2.2 -1.7,7.2 10.6,3.1 8.9,-3.2 l 0.2,-20.3 c 0,0 11.5,17.5 31.4,17.7 24.6,0.2 42.9,-13.2 53.5,-24.3 10.9,-11.4 10.2,-11.8 -3.1,-8.5 -18.3,4.6 -25.7,2 -34.9,-0.8 -6.9,-2 -13.7,-5.1 -23.5,-2.8 -8.2,2 -19.7,9.4 -19.7,9.4 0,0 3.1,-29.5 -19.1,-59.2 -4.3,-5.7 -0.9,-15.8 -0.9,-15.8 0,0 2.2,0.2 4.5,0.6 3.8,0.6 7.1,5.7 5.4,1.4 -1.5,-4.3 -7.4,-8 -7.4,-8 0,0 1.7,-2.8 9.8,-2.2 5.4,0.5 -6.9,-7.4 -6.9,-7.4 0,0 6.5,-1.1 10.8,-1.5 2.2,-0.2 -12.9,-7.4 -12.9,-7.4 l 2,-11.2 c 0,0 1.7,-14.6 2.3,-19.8 0.6,-5.4 0.8,-16.3 0.8,-16.3 0,0 -14.2,12.9 -19.5,18.6 -4,4.7 -7.1,9.8 -7.1,9.8"
   id="path6158" />
	<path
   class="st3"
   d="m 339.6,372.4 c 17.8,20.3 16.8,45.2 22.2,68.5 0,1.1 5.1,0.8 10.9,0.6 6,-2.2 6.6,-13.7 5.5,-19.2 -6.6,-37.1 -18.9,-58 -48.3,-65.4 -2.6,-0.6 -17.4,-4 -20,-3.5 10.7,3.9 23.7,12.1 29.7,19"
   id="path6160" />
	<path
   d="m 271.9,325 c -6.2,1.7 -14.8,3.8 -9.8,8 6,4.9 16.8,8.6 16.8,8.6 0,0 5.2,-14.6 3.7,-19.1 -0.1,0 -8.6,1.9 -10.7,2.5"
   id="path6162" />
	<path
   class="st2"
   d="m 344.2,309.9 c 2.5,-9.7 2.3,-8.9 3.7,-14.5 1.2,-4.9 3.2,-21.8 4,-21.4 0.6,0.5 6.2,8 8.3,14.8 2.1,6.8 6.6,21.1 6.6,21.1 z"
   id="path6164" />
	<path
   class="st3"
   d="m 487.7,421.9 c -17.1,4.3 -25.7,1.7 -34.9,-0.8 3.7,3.7 11.2,7.8 9.4,7.8 -2.6,0 -13.5,4.6 -10.3,4.6 3.1,0 10.8,1.5 10.8,1.5 0,0 -8.6,7.5 -7.5,8 1.1,0.5 11.4,-2.6 11.4,-2.6 0,0 -1.4,5.1 -1.4,8.2 15.5,-6.2 19.7,-12 25.8,-18.5 10.6,-11.2 10,-11.7 -3.3,-8.2"
   id="path6166" />
	<path
   class="st3"
   d="m 377.2,312.1 c 0,0 13.1,-14 13.4,-12.5 0.3,1.5 -2,15.5 -2,15.5 0,0 -4.3,-1.7 -5.8,-2 -1.6,-0.2 -5.6,-1 -5.6,-1"
   id="path6168" />
	<path
   class="st3"
   d="m 354.9,289.8 c 0.6,-0.8 1.4,0.3 2.3,2.5 0.9,2.2 5.4,15.2 5.4,15.2 l -10.9,-1.8 c 0.2,-0.2 2.6,-15.2 3.2,-15.9"
   id="path6170" />
	<path
   class="st3"
   d="m 369.7,325.9 c 0,5.5 -5.7,11.7 -12.2,11.7 -4.9,0 -10.5,-5.2 -7.7,-12.6 2.6,-6.8 6.6,-8.2 11.7,-7.5 4.8,0.6 8.2,2.9 8.2,8.4"
   id="path6172" />
	<path
   d="m 361.1,328.2 c 0,0.9 0.6,1.5 1.5,1.5 0.9,0 1.5,-0.6 1.5,-1.5 0,-0.9 -0.8,-1.5 -1.5,-1.5 -0.7,0 -1.5,0.6 -1.5,1.5"
   id="path6174" />
	<path
   class="st4"
   d="m 339.9,351 c 6,0.9 6,-6.9 6,-6.9"
   id="path6176" />
	<path
   class="st5"
   d="m 394,373.6 8,11.8 c 0,0 1.2,0.3 6.3,13.7 3.8,10.2 2.6,22.6 2.6,22.6 h -53.4 c 0,0 -1.1,-6.3 -3.4,-15.7 -1.7,-6.9 -3.7,-16.8 -3.7,-16.8 0,0 7.8,2.8 16.6,1.8 8.6,-0.9 27,-17.4 27,-17.4"
   id="path6178" />
	<path
   class="st3"
   d="m 335.1,315.5 c -1.7,4 -7.4,6.9 -11.8,5.1 -3.4,-1.4 -5.7,-6.8 -1.4,-11.4 3.8,-4.3 6.9,-3.5 10.3,-2.2 3.4,1.2 4.6,4.3 2.9,8.5"
   id="path6180" />
	<path
   d="m 325.6,313.3 c -0.3,0.8 0,1.7 0.8,2 0.8,0.3 1.7,0 2,-0.8 0.3,-0.8 0,-1.7 -0.8,-2 -0.8,-0.4 -1.7,0 -2,0.8"
   id="path6182" />
	<path
   class="st2"
   d="m 622.7,250.4 c 0,0 -17.1,-4.8 -34.3,-6.2 -7.2,-0.6 -16.5,6 -27.1,11.5 -8.3,4.3 -32.9,8.6 -37.2,9.4 -7.7,1.4 -32.2,7.2 -32.2,12.8 0,5.5 6.2,10.5 20.8,17.4 14.6,6.9 59.1,13.8 75.1,39.1 16,25.1 17.8,62.2 19.2,78.8 1.4,16.6 6.3,37.4 6.3,37.4 0,0 -23.8,-0.8 -20.3,4.2 3.4,4.8 12.6,0.2 12.6,0.2 0,0 -2.6,6.2 0.2,6.9 2.8,0.8 6.3,-5.4 6.3,-5.4 0,0 -0.8,4.8 4.8,5.4 5.5,0.6 6.8,-2.9 5.4,-9.1 -1.4,-6.3 -1.1,-29.4 -0.6,-29.7 0.6,-0.5 34.8,0 34.8,0 l 2.3,27.1 c 0,0 -18.3,4.2 -16.2,6.9 2.1,2.7 10.9,-1.2 10.9,-1.2 0,0 -6.8,4.9 -2.5,6.3 4.2,1.2 8.2,-2.8 8.2,-2.8 -2.2,9.4 11.4,4.2 9.1,-4.3 v -34.6 c 0,0 13.8,22 39.5,22.2 32,0.2 74.3,-26.9 88.2,-41.4 14.2,-14.9 8.8,-10.8 -8.5,-6.5 -23.8,6.2 -42.6,2.8 -54.8,-0.8 -8.9,-2.6 -21.2,-6.5 -34.2,-3.4 -10.6,2.5 -25.5,14.6 -25.5,14.6 0,0 3.8,-38.6 -24.8,-77.1 -5.5,-7.4 -1.2,-20.6 -1.2,-20.6 0,0 2.8,0.2 5.8,0.8 4.9,0.9 9.2,7.4 7.1,1.8 -2.2,-5.5 -9.7,-10.5 -9.7,-10.5 0,0 2.2,-3.5 12.9,-2.8 7.1,0.6 -8.9,-9.5 -8.9,-9.5 0,0 8.5,-1.4 14,-2 2.9,-0.3 -16.8,-9.5 -16.8,-9.5 0,0 -0.6,-0.9 -0.5,-6.3 0.2,-2.6 2.3,-28.8 3.2,-35.7 0.9,-6.9 0,-12.5 0,-12.5 0,0 -14.6,11.7 -21.8,19.1 -5.6,5.4 -9.6,10 -9.6,10"
   id="path6184" />
	<line
   class="st4"
   x1="612.5"
   y1="267.29999"
   x2="614.5"
   y2="264.70001"
   id="line6186" />
	<line
   class="st4"
   x1="616"
   y1="270.20001"
   x2="620.5"
   y2="268.70001"
   id="line6188" />
	<line
   class="st4"
   x1="618.29999"
   y1="276.20001"
   x2="625.90002"
   y2="276.70001"
   id="line6190" />
	<line
   class="st4"
   x1="576.29999"
   y1="254.2"
   x2="575.90002"
   y2="250.8"
   id="line6192" />
	<line
   class="st4"
   x1="571.59998"
   y1="254.8"
   x2="568.70001"
   y2="251.2"
   id="line6194" />
	<line
   class="st4"
   x1="566.70001"
   y1="258.79999"
   x2="559.90002"
   y2="255.2"
   id="line6196" />
	<path
   class="st3"
   d="m 586.8,334.1 c 16.2,24.2 15.8,53.9 19.8,79.2 7.8,0.2 23.5,0 31.8,-0.5 0.6,-4.9 -0.6,-10 -0.6,-15.1 0,-49.1 -26.8,-68.2 -63.9,-85.2 -6.5,-2.9 -25.8,-5.8 -27.8,-5.4 13.9,5.3 30.4,11.6 40.7,27"
   id="path6198" />
	<path
   d="m 498.2,271.2 c -8.2,2.3 -19.2,5.1 -12.8,10.5 7.8,6.5 22,11.2 22,11.2 0,0 2.8,-18.3 0.8,-24 0,0 -7.1,1.5 -10,2.3"
   id="path6200" />
	<path
   class="st2"
   d="m 577.1,247.6 c 0,0 6,-11.4 9.1,-17.2 3.1,-5.8 12.3,-20.2 13.1,-19.5 0.8,0.8 3.8,5.7 4.5,14.9 0.6,9.2 0.5,21.2 0.5,21.2 z"
   id="path6202" />
	<path
   class="st3"
   d="m 791,392.9 c -22,6.5 -40.6,5.2 -52.8,2.3 4.9,4.6 13.4,10.5 10.9,10.6 -3.4,0.2 -17.4,6.8 -13.2,6.6 4,-0.2 14,1.5 14,1.5 0,0 -10.9,10.2 -9.5,10.8 1.4,0.6 14.8,-3.8 14.8,-3.8 0,0 -2.3,4.9 -2,8.9 20.3,-9.5 38.8,-22.8 46.5,-31.5 13.6,-15.4 8.4,-10.5 -8.7,-5.4"
   id="path6204" />
	<path
   class="st3"
   d="m 630.5,254.4 c 0,0 14.5,-15.5 14.9,-13.7 0.5,1.8 0,17.7 0,17.7 0,0 -5.5,-2.3 -7.7,-2.8 -2,-0.3 -7.2,-1.2 -7.2,-1.2"
   id="path6206" />
	<path
   class="st3"
   d="m 595.7,230.4 c 1.1,-0.8 1.5,0.8 2.2,3.7 0.5,2.9 1.8,10.9 1.8,10.9 l -11.5,-0.8 c 0,0 6.6,-13 7.5,-13.8"
   id="path6208" />
	<path
   class="st3"
   d="m 619.1,278.1 c 0,6.3 -6.3,11.5 -13.7,11.5 -5.5,0 -12,-6 -8.8,-14.5 2.9,-7.8 7.5,-9.4 13.4,-8.6 5.7,1 9.1,5.3 9.1,11.6"
   id="path6210" />
	<path
   class="st3"
   d="m 582.2,261.8 c 0,5.2 -4.9,11.2 -10.6,11.2 -4.3,0 -9.2,-4.9 -6.8,-12.2 2.3,-6.5 6,-7.2 10.3,-7.2 4.3,0 7.1,2.8 7.1,8.2"
   id="path6212" />
	<path
   d="m 607.7,280.9 c 0,1.1 0.8,1.8 1.8,1.8 1,0 1.8,-0.9 1.8,-1.8 0,-1.1 -0.9,-1.8 -1.8,-1.8 -0.9,0 -1.8,0.7 -1.8,1.8"
   id="path6214" />
	<path
   d="m 571.6,262.9 c 0,0.9 0.8,1.8 1.8,1.8 1.1,0 1.8,-0.8 1.8,-1.8 0,-1 -0.8,-1.7 -1.8,-1.7 -1.1,-0.2 -1.8,0.7 -1.8,1.7"
   id="path6216" />
	<path
   class="st5"
   d="m 577.7,303 c 0,0 2.5,0.2 4.5,-1.2 2,-1.4 2.9,-2.3 2.9,-2.3 l 2.5,3.5 3.2,-3.2 c 0,0 1.8,4.9 5.1,5.5 -5.4,10.2 -15.4,5.6 -18.2,-2.3"
   id="path6218" />
	<path
   class="st4"
   d="m 575.1,300.2 c 0,0 4.2,4.3 10.3,5.1 11.4,1.4 14.3,-3.4 14.3,-3.4"
   id="path6220" />
	<path
   class="st6"
   d="m 596,427 c 0,0 18.8,5.1 40.9,5.1 28.5,0 43.9,-3.5 43.9,-3.5 l -8.9,-39.8 c 0,0 -17.2,4.2 -34.9,3.8 -22,-0.3 -34.5,-2.2 -34.5,-2.2 z"
   id="path6222" />
	<line
   class="st7"
   x1="617.40002"
   y1="400.20001"
   x2="613.70001"
   y2="421.79999"
   id="line6224" />
	<line
   class="st7"
   x1="638.70001"
   y1="400.20001"
   x2="642.5"
   y2="424.70001"
   id="line6226" />
	<path
   class="st2"
   d="m 470.5,402.2 c 8.2,7.1 22.8,28.9 24.9,36.3 l 24.5,-8.2 c 12,-29.1 -6,-17.1 -12.9,-26.3 -3.4,-4.6 -0.8,-12.8 -0.8,-12.8 0,0 1.7,0.2 3.5,0.5 3.1,0.6 5.7,4.6 4.5,1.2 -1.2,-3.4 -6,-6.5 -6,-6.5 0,0 1.4,-2.2 8,-1.7 4.3,0.3 -5.5,-5.8 -5.5,-5.8 0,0 5.2,-0.9 8.6,-1.2 1.7,-0.2 -10.5,-6 -10.5,-6 l 1.5,-9.1 c 0,0 1.4,-11.7 1.8,-16 0.6,-4.3 0.6,-13.2 0.6,-13.2 0,0 -11.4,10.5 -15.8,15.1 -3.2,3.4 -5.7,7.5 -5.7,7.5 0,0 -4.9,-2.6 -15.5,-3.4 -4.5,-0.3 -15.1,3.4 -21.7,6.8 -5.2,2.6 -15.2,5.4 -18,5.8 -4.8,0.9 -19.8,4.5 -19.8,7.8 0,3.3 3.8,6.5 12.9,10.8 9.1,4.6 29.2,7.8 41.4,18.4"
   id="path6228" />
	<path
   d="m 420.3,369 c -4.9,1.4 -12,3.2 -7.8,6.5 4.8,4 13.5,6.9 13.5,6.9 0,0 4.2,-11.8 2.9,-15.4 0,0 -6.7,1.6 -8.6,2"
   id="path6230" />
	<path
   class="st2"
   d="m 471.6,356.9 c 2,-7.8 1.8,-7.2 2.9,-11.7 1.1,-4 2.6,-17.5 3.2,-17.2 0.6,0.3 4.9,6.5 6.8,12 1.8,5.5 5.4,16.9 5.4,16.9 z"
   id="path6232" />
	<path
   class="st3"
   d="m 496.3,358.7 c 0,0 10.6,-11.2 10.8,-10 0.3,1.2 -1.5,12.6 -1.5,12.6 0,0 -3.4,-1.4 -4.8,-1.7 -1.2,-0.3 -4.5,-0.9 -4.5,-0.9"
   id="path6234" />
	<path
   class="st3"
   d="m 480.3,340.5 c 0.5,-0.6 1.1,0.3 1.8,2 0.8,1.7 4.5,12.3 4.5,12.3 l -8.8,-1.5 c -0.1,0 2.1,-12 2.5,-12.8"
   id="path6236" />
	<path
   class="st3"
   d="m 480.2,365.8 c 0,4.5 -4.6,9.4 -9.8,9.4 -4,0 -8.5,-4.2 -6.2,-10.2 2.2,-5.5 5.4,-6.6 9.4,-6 4,0.5 6.6,2.3 6.6,6.8"
   id="path6238" />
	<path
   d="m 469.4,367.6 c 0,0.6 0.6,1.2 1.2,1.2 0.6,0 1.2,-0.6 1.2,-1.2 0,-0.6 -0.6,-1.2 -1.2,-1.2 -0.7,0 -1.2,0.6 -1.2,1.2"
   id="path6240" />
	<path
   class="st2"
   d="m 503.7,403.9 c 0,0 24,-8.2 40.6,-4.3 16.6,3.8 19.8,16.9 19.8,16.9 0,0 3.2,10.8 -6.9,26.3 -0.6,0.9 -8,7.7 -30.3,5.5 -22.3,-2.2 -21.7,-5.5 -21.7,-5.5 l -8,-1.2 z"
   id="path6242" />
	<path
   class="st2"
   d="m 628.2,404.6 c -13.8,4.8 -25.2,3.8 -32.5,2.3 -5.4,-1.1 -12.9,-2.6 -20.5,-0.2 -6.2,2 -14.6,9.7 -14.6,9.7 0,0 0.5,17.5 22.2,19.8 18.9,2.2 43.1,-19.4 50.6,-28.5 7.9,-9.1 4.8,-6.5 -5.2,-3.1"
   id="path6244" />
	<path
   class="st2"
   d="m 564.5,426.2 -9.1,6 1.7,22 c 0,0 -13.8,3.1 -12.3,5.2 1.5,2.2 8.2,-0.9 8.2,-0.9 0,0 -5.1,3.8 -1.8,4.8 3.1,0.9 6.2,-2.2 6.2,-2.2 -1.7,7.1 8.6,3.1 6.9,-3.2 z"
   id="path6246" />
	<path
   class="st3"
   d="m 629.3,403 c -13.4,4.9 -24.3,5.1 -31.7,4.3 3.1,2.3 8.6,7.2 7.2,7.4 -2,0.3 -10,4.9 -7.5,4.6 2.5,-0.3 8.5,0 8.5,0 0,0 -6,6.6 -5.2,6.9 0.8,0.3 8.6,-3.2 8.6,-3.2 0,0 0,3.2 0.3,5.5 11.1,-6.9 20.9,-15.8 25.1,-21.4 7.3,-9.6 4.7,-7.6 -5.3,-4.1"
   id="path6248" />
	<path
   class="st3"
   d="m 473.1,406.1 c 9.5,9.7 13.1,34.2 31.1,40.8 11.2,4.2 17.1,0 21.7,-1.2 -4,0 -2.6,3.8 -16.3,-2.8 -26.2,-12.6 -12.3,-41.4 -43.9,-50.6 -2.2,-0.6 -17.5,-3.1 -19.4,-2.2 2.5,0.6 19.4,8.3 26.8,16"
   id="path6250" />
	<path
   class="st2"
   d="m 505.7,432.3 -10,-5.1 c 1.5,10.5 3.8,27.7 3.8,27.7 0,0 -18,-0.6 -15.4,3.1 2.6,3.7 9.5,0 9.5,0 0,0 -2,4.6 0,5.2 2,0.6 4.8,-4 4.8,-4 0,0 -0.6,3.7 3.5,4.2 4.2,0.5 5.1,-2.2 4.2,-6.9 -0.8,-4.6 -0.7,-21.6 -0.4,-24.2"
   id="path6252" />
	<path
   class="st4"
   d="m 465.7,385.5 c 2.5,4.2 7.4,1.8 7.4,1.8"
   id="path6254" />
	<path
   class="st8"
   d="m 506.6,401.5 c 0,0 -2.5,9.1 -9.4,12.9 -6.9,3.8 -16.2,4.6 -16.2,4.6 0,0 6.9,15.7 11.4,20.5 3.8,4.2 5.5,11.7 5.5,11.7 l 9.4,1.2 -0.2,-3.5 22.2,1.8 v -52.2 c 0,0 -3.8,0 -9.8,0.3 -6.1,0.1 -12.9,2.7 -12.9,2.7"
   id="path6256"
   style="fill:#000080" />
	<path
   class="st9"
   d="m 380.6,396.7 c 0,0 3.4,6.9 6.2,11.4 2.8,4.5 4.3,8.6 4.2,10.3 -0.2,1.5 -4.6,7.7 -2.2,8.9 1.5,0.8 4,-2 4,-2 0,0 0.9,2.8 2.5,3.7 2.5,1.4 2.3,-4.6 2.3,-4.6 0,0 2.3,5.8 5.5,2.9 2,-1.7 -0.3,-4.5 -5.4,-12 -5.1,-7.7 -10.5,-21.2 -10.5,-21.2"
   id="path6258" />
	<path
   class="st9"
   d="m 635.7,337 c -2.2,-3.7 -10.5,-2.6 -7.1,2.6 2,3.2 7.7,10 9.5,14.9 2.3,6.3 2.2,12 1.5,14 -0.6,2 -7.7,8.6 -4.9,10.9 1.8,1.4 5.5,-1.7 5.5,-1.7 0,0 0.5,3.8 2.3,5.4 2.8,2.3 4,-5.2 4,-5.2 0,0 2.3,9.1 7.2,6.2 2.9,-1.7 -3.8,-15.1 -4.6,-17.7 C 644.7,353.6 635.7,337 635.7,337"
   id="path6260" />
	<path
   class="st2"
   d="m 215.4,347.9 c 0,0 7.8,6.9 13.1,11.2 5.2,4.3 10.8,6 12.8,6.2 2,0.2 10.8,-4.5 12,-0.9 0.8,2.2 -3.4,4.8 -3.4,4.8 0,0 3.4,1.7 4.3,4 1.2,3.4 -6.3,2 -6.3,2 0,0 6.6,3.8 2.3,7.5 -2.6,2.3 -8.8,-2.9 -14,-8.9 -7.4,-8.6 -25.4,-17.5 -25.4,-17.5"
   id="path6262" />
	<path
   class="st2"
   d="m 162.8,353.2 c 0,0 -6.9,7.8 -12,12.5 -5.1,4.6 -8.2,9.5 -8.6,11.5 -0.5,2 0.6,12.6 -2.9,13.4 -2.3,0.5 -4.2,-4 -4.2,-4 0,0 -2.2,3.2 -4.6,3.7 -3.5,0.8 -1.1,-6.5 -1.1,-6.5 0,0 -6.2,7.1 -9.2,2.2 -1.8,-2.9 2,-8 12.3,-13.5 10,-5.4 31.4,-34 31.4,-34"
   id="path6264" />
	<path
   class="st2"
   d="m 170.6,317 c -4.6,12 -6.9,19.8 -13.8,49.4 -6.9,29.5 -14.8,46.9 0,52.9 14.8,6 41.5,6.5 49.4,4.5 2.2,-0.5 5.8,-7.2 5.8,-23.8 0,-16.6 8.5,-79.7 8.5,-79.7 l -35.7,-28 c 0.1,-0.1 -8.3,10.1 -14.2,24.7"
   id="path6266" />
	<path
   class="st3"
   d="m 203.2,400.9 c -0.2,1.7 0.6,3.2 0.6,4.8 -1.8,21.8 -8.2,7.8 -16.8,7.8 -8.6,0 -20,16.8 -20,-5.2 0,-22 14,-74.8 22.6,-75.1 14.7,-0.5 16.2,39.7 13.6,67.7"
   id="path6268" />
	<path
   class="st2"
   d="m 195.5,425.3 h 12.3 c -1.8,12.9 -4.8,25.4 -4.8,25.4 0,0 22.3,-0.6 19.1,3.8 -3.2,4.6 -11.8,0.2 -11.8,0.2 0,0 2.5,5.8 -0.2,6.5 -2.6,0.6 -5.8,-5.1 -5.8,-5.1 0,0 0.8,4.5 -4.5,5.1 -5.2,0.6 -6.3,-2.8 -5.1,-8.5 1.3,-5.4 1.1,-24.1 0.8,-27.4"
   id="path6270" />
	<path
   class="st2"
   d="m 48.6,392.9 c 22.2,6.9 40.2,5.5 51.9,3.4 8.6,-1.5 20.6,-3.8 32.5,-0.3 9.8,2.9 23.2,14 23.2,14 0,0 -0.6,25.2 -35.2,28.6 -30.3,3.1 -68.6,-28 -80.8,-41.1 -12.5,-13.4 -7.8,-9.7 8.4,-4.6"
   id="path6272" />
	<path
   class="st2"
   d="m 151.7,417.9 11.2,7.4 -2.2,24.8 c 0,0 17.1,3.8 15.2,6.5 -2,2.6 -10.2,-1.2 -10.2,-1.2 0,0 6.3,4.6 2.5,5.8 -3.8,1.2 -7.7,-2.6 -7.7,-2.6 2,8.8 -10.6,3.8 -8.5,-4 z"
   id="path6274" />
	<path
   class="st3"
   d="m 46.6,390.7 c 21.4,7.1 38.8,7.4 50.5,6.2 -4.9,3.4 -13.7,10.5 -11.5,10.6 3.2,0.5 15.8,7.1 12.2,6.6 -3.8,-0.5 -13.4,0 -13.4,0 0,0 9.5,9.5 8.2,9.8 -1.4,0.5 -13.7,-4.6 -13.7,-4.6 0,0 0.2,4.2 -0.3,7.5 -17.7,-10 -33.4,-22.3 -40,-30.3 -11.8,-13.9 -7.8,-11.2 8,-5.8"
   id="path6276" />
	<path
   class="st3"
   d="m 46.6,390.7 c 21.4,7.1 38.8,7.4 50.5,6.2 -4.9,3.4 -13.7,10.5 -11.5,10.6 3.2,0.5 15.8,7.1 12.2,6.6 -3.8,-0.5 -13.4,0 -13.4,0 0,0 9.5,9.5 8.2,9.8 -1.4,0.5 -13.7,-4.6 -13.7,-4.6 0,0 0.2,4.2 -0.3,7.5 -17.7,-10 -33.4,-22.3 -40,-30.3 -11.8,-13.9 -7.8,-11.2 8,-5.8"
   id="path6278" />
	<path
   class="st10"
   d="m 212.2,416.7 c 0.3,-3.4 1.2,-14.6 1.2,-14.6 0,0 -32.6,-1.8 -43.7,-3.7 -11.1,-1.7 -20.2,-6.2 -20.2,-6.2 0,0 -1.8,9.1 -2.8,34.9 -0.2,2.3 -0.2,4.3 -0.2,4.3 0,0 18.5,-0.8 21.8,0 l 1.7,-5.7 24.3,-0.3 v 7.4 l 16.5,1.5 c 0,0 0.7,-13.1 1.4,-17.6"
   id="path6280" />
	<path
   d="m 165.7,397.9 c 0,0 4.3,-44 3.1,-53.1 C 166.5,328 164.6,327 164.6,327 l 2.2,-2.9 c 0,0 4.8,4.2 7.2,21.1 1.4,9.8 -1.7,52.9 -1.7,52.9 z"
   id="path6282" />
	<path
   d="m 203.5,402.1 c 0,0 6.9,-54.2 11.4,-63.7 2.5,-5.1 5.2,-8.3 5.2,-8.3 l 1.2,-5.5 c 0,0 -4,-0.3 -10.6,11.2 -5.7,9.8 -12.9,65.2 -12.9,65.2 z"
   id="path6284" />
	<polygon
   class="st11"
   points="165.1,401.2 165.7,397.2 172.6,398.1 171.8,402.1 "
   id="polygon6286" />
	
		<rect
   x="198.5"
   y="399.60001"
   transform="matrix(0.03630297,-0.9993,0.9993,0.03630297,-209.4106,588.585)"
   class="st11"
   width="4"
   height="6.5"
   id="rect6288" />
	<path
   class="st2"
   d="m 235.2,281.6 c 0,0 -1.4,-2.3 1.2,-3.7 2.5,-1.4 10.8,-3.7 10.8,-3.7 0,0 -2.9,-2.8 -6,-4.2 -2.6,-1.1 -8.8,-2.5 -8.8,-2.5 0,0 -3.5,-8.5 -5.1,-12.6 -5.2,-13.7 -10.6,-23.4 -14.2,-31.2 -3.5,-7.8 -4.5,-1.1 -5.4,1.7 -0.9,2.6 -8.3,29.7 -8.3,29.7 0,0 -3.4,1.1 -13.8,3.7 -10.5,2.6 -21.7,6.6 -21.7,6.6 0,0 -25.4,-15.2 -29.4,-17.1 -4,-1.9 1.5,14.5 3.2,20.3 3.2,10.9 3.5,21.5 3.5,21.5 0,0 -3.8,3.7 -7.1,8.3 -3.1,4.5 -5.8,13.8 -3.4,10.5 2.5,-3.4 12,-5.2 12,-5.2 0,0 -1.8,4.9 -2.3,6.5 -1.7,5.4 -3.2,10.5 -3.2,10.5 0,0 3.4,-1.5 8,-6 4.6,-4.5 6.2,-5.5 3.5,1.4 -2.6,6.9 -2,11.2 -2,11.2 0,0 2.2,-2.3 4.9,-4.6 2.6,-2 5.5,-0.2 5.5,-0.2 0,0 18.2,12.2 35.5,30.9 15.8,17.1 25.2,28.2 27.1,18.8 0.9,-5.1 5.2,-41.2 6.9,-66.8 0.5,-0.5 0,-1.4 1.2,-2.5 6.6,-5.5 12,-5.5 12,-5.5 0,0 0,-0.8 -1.7,-2.5 -3.2,-3.2 -6.5,-4.9 -6.5,-4.9 0,0 -0.2,-1.2 5.2,-1.7 4.6,-0.3 8.2,-0.3 8.2,-0.3 0,0 -1.8,-2.2 -4.3,-3.5 -2.1,-1.3 -5.5,-2.9 -5.5,-2.9"
   id="path6290" />
	<path
   class="st3"
   d="m 221.5,272.4 c 4.8,3.5 6.3,12.3 2.2,17.8 -3.1,4.2 -11.2,5.7 -15.7,-1.5 -4.2,-6.6 -2,-10.6 1.1,-14.8 3.2,-4.3 7.8,-5 12.4,-1.5"
   id="path6292" />
	<path
   d="m 221.4,283 c 0.8,0.6 1.8,0.5 2.3,-0.3 0.6,-0.8 0.5,-1.8 -0.3,-2.3 -0.8,-0.6 -1.8,-0.5 -2.3,0.3 -0.6,0.6 -0.5,1.7 0.3,2.3"
   id="path6294" />
	<path
   class="st3"
   d="m 162.6,290.1 c -2.2,4.6 0.2,11.8 5.7,14.3 4,1.8 10.6,-0.3 11.2,-7.5 0.5,-6.6 -1.2,-9.5 -5.4,-11.4 -3.9,-1.9 -9.3,0 -11.5,4.6"
   id="path6296" />
	<path
   d="m 172.3,295.9 c 0.5,0.8 1.5,1.1 2.3,0.6 0.8,-0.5 1.1,-1.5 0.6,-2.3 -0.5,-0.8 -1.5,-1.1 -2.3,-0.6 -0.9,0.5 -1.2,1.6 -0.6,2.3"
   id="path6298" />
	<path
   class="st3"
   d="m 191.2,337 c -7.7,-10.8 -22.5,-14 -33.2,-13.7 7.4,7.4 13.4,12.2 25.7,23.1 4,3.5 12.5,10.9 13.7,12.2 -0.5,-6.8 -1.6,-15.3 -6.2,-21.6"
   id="path6300" />
	<path
   class="st3"
   d="m 218.2,327.8 c -0.3,6.5 1.1,18.6 4.8,21.8 1.8,-20.3 3.8,-41.9 4.9,-46.5 -4.2,2.1 -9.1,13 -9.7,24.7"
   id="path6302" />
	<path
   class="st3"
   d="m 206.5,253.8 c 0,0 3.8,-19.4 4.9,-17.8 1.1,1.5 9.4,16 9.4,16 0,0 -5.7,0 -7.5,0.5 -1.9,0.2 -6.8,1.3 -6.8,1.3"
   id="path6304" />
	<path
   class="st3"
   d="m 146.3,277.8 c 0,0 -3.8,-17.1 -2.3,-16.2 1.5,0.9 13.7,9.5 13.7,9.5 0,0 -4.9,2 -6.3,2.9 -1.4,1.2 -5.1,3.8 -5.1,3.8"
   id="path6306" />
	<path
   d="m 205.7,367.6 c 7.8,7.5 15.1,13.5 15.8,6.5 1.2,-10.3 1.7,-24.6 1.7,-24.6 0,0 -20.2,6 -25.2,10 -0.2,0 5.4,6 7.7,8.1"
   id="path6308" />
	<path
   class="st12"
   d="m 386,391.5 c -2.6,-1.7 -8.6,0.5 -6.2,6.8 1.1,2.6 2.6,6.5 3.8,7.7 0,0 7.5,-1.8 8.9,-2.8 -0.5,-2.2 -3.3,-9.7 -6.5,-11.7"
   id="path6310" />
</g>
</svg>
