<?xml version="1.0" encoding="utf-8"?>
<!-- Generator: Adobe Illustrator 26.5.0, SVG Export Plug-In . SVG Version: 6.00 Build 0)  -->
<svg version="1.1" id="Capa_1" xmlns="http://www.w3.org/2000/svg" xmlns:xlink="http://www.w3.org/1999/xlink" x="0px" y="0px"
	 viewBox="0 0 230 243" style="enable-background:new 0 0 230 243;" xml:space="preserve">
<style type="text/css">
	.st0{fill:none;}
	.st1{fill:#E20613;}
	.st2{fill:#B91919;}
	.st3{fill:#40403C;fill-opacity:0.4;}
	.st4{fill:#A85218;}
	.st5{fill:#814115;}
	.st6{clip-path:url(#SVGID_00000075880057760266204580000007711440168326201228_);fill:#FFFFFF;}
	.st7{clip-path:url(#SVGID_00000126304475195248786550000009667175721778037655_);fill:#FFFFFF;}
	.st8{clip-path:url(#SVGID_00000088849590799493918170000015112772077221918088_);fill:#FFFFFF;}
	.st9{clip-path:url(#SVGID_00000108282866642150434350000013238011075123916956_);fill:#FFFFFF;}
	.st10{clip-path:url(#SVGID_00000095330664972322142100000012476539677911980977_);fill:#FFFFFF;}
	.st11{clip-path:url(#SVGID_00000006694451399008292480000010481192285320105883_);fill:#FFFFFF;}
	.st12{clip-path:url(#SVGID_00000074405076771631022180000012837015419735819182_);fill:#FFFFFF;}
	.st13{clip-path:url(#SVGID_00000177443572434663938240000011608744164995270021_);fill:#FFFFFF;}
	.st14{clip-path:url(#SVGID_00000100368611554415413470000015411720066554867094_);fill:#FFFFFF;}
	.st15{clip-path:url(#SVGID_00000170280664524799651220000016082777432132863144_);fill:#FFFFFF;}
	.st16{clip-path:url(#SVGID_00000042700069779888412270000004504367062561345697_);fill:#FFFFFF;}
	.st17{clip-path:url(#SVGID_00000106128372610930719280000010237508853122148996_);fill:#FFFFFF;}
	.st18{clip-path:url(#SVGID_00000066476863394737708370000015530047784744573583_);fill:#FFFFFF;}
	.st19{clip-path:url(#SVGID_00000101782178431295315750000002602797607486009259_);fill:#FFFFFF;}
	.st20{clip-path:url(#SVGID_00000175289636241788058550000006431792422218569906_);fill:#FFFFFF;}
	.st21{clip-path:url(#SVGID_00000078029568273874949610000013471823593546445226_);fill:#FFFFFF;}
	.st22{clip-path:url(#SVGID_00000105427043889763395940000007221493576275082164_);fill:#FFFFFF;}
	.st23{clip-path:url(#SVGID_00000163780820205623560370000000173624648121352082_);fill:#FFFFFF;}
	.st24{clip-path:url(#SVGID_00000167373837590777854720000017369102226234818721_);fill:#FFFFFF;}
	.st25{clip-path:url(#SVGID_00000148663046637907790010000000017031574002106301_);fill:#FFFFFF;}
	.st26{clip-path:url(#SVGID_00000161619997186046761770000013277392011587127937_);fill:#FFFFFF;}
	.st27{clip-path:url(#SVGID_00000040552845254738851690000009453856804750675329_);fill:#FFFFFF;}
	.st28{clip-path:url(#SVGID_00000152946851438517321230000002640878895023013536_);fill:#FFFFFF;}
	.st29{clip-path:url(#SVGID_00000011729218490586777690000000556678427734079909_);fill:#FFFFFF;}
	.st30{clip-path:url(#SVGID_00000170976414900057987210000018345343016040840103_);fill:#FFFFFF;}
	.st31{clip-path:url(#SVGID_00000000197973080849227550000004031623551946427562_);fill:#FFFFFF;}
	.st32{clip-path:url(#SVGID_00000129889259002308867700000014429661393195904386_);fill:#FFFFFF;}
	.st33{clip-path:url(#SVGID_00000175324178936062484010000006322570320857455012_);fill:#FFFFFF;}
	.st34{clip-path:url(#SVGID_00000110453071858773303960000005563883961902275258_);fill:#FFFFFF;}
	.st35{clip-path:url(#SVGID_00000052806468730952666230000012915533792298255542_);fill:#FFFFFF;}
	.st36{clip-path:url(#SVGID_00000115493417603018318640000005247919915425264819_);fill:#FFFFFF;}
	.st37{clip-path:url(#SVGID_00000045581483462565680760000011854993295975201468_);fill:#FFFFFF;}
	.st38{clip-path:url(#SVGID_00000028317051669375429260000007586195833836727718_);fill:#FFFFFF;}
	.st39{clip-path:url(#SVGID_00000133499033284983906440000014453907338332105402_);fill:#FFFFFF;}
	.st40{clip-path:url(#SVGID_00000096055457930330486360000000896633504954413736_);fill:#FFFFFF;}
	.st41{clip-path:url(#SVGID_00000083063030682796034630000004890382223615129011_);fill:#FFFFFF;}
	.st42{clip-path:url(#SVGID_00000044889534797089329690000008448765129615673752_);fill:#FFFFFF;}
	.st43{clip-path:url(#SVGID_00000008830071529085589750000005425218472171756695_);fill:#FFFFFF;}
	.st44{clip-path:url(#SVGID_00000147933758596910389390000006685037204609113767_);fill:#FFFFFF;}
	.st45{clip-path:url(#SVGID_00000045584350320472700340000010667023652101746101_);fill:#FFFFFF;}
	.st46{clip-path:url(#SVGID_00000090290645884187807720000010845639827185742236_);fill:#FFFFFF;}
	.st47{clip-path:url(#SVGID_00000168829706356116087280000000442573452532258952_);fill:#FFFFFF;}
	.st48{clip-path:url(#SVGID_00000009590850220262958190000016362147658039974034_);fill:#FFFFFF;}
	.st49{clip-path:url(#SVGID_00000058566245043781357860000003287094944834422662_);fill:#FFFFFF;}
	.st50{clip-path:url(#SVGID_00000152961934985964175490000012831507293520767928_);fill:#FFFFFF;}
	.st51{clip-path:url(#SVGID_00000024693949486859410370000004640250427712179102_);fill:#FFFFFF;}
	.st52{clip-path:url(#SVGID_00000155109186658291452430000015766602333965085058_);fill:#FFFFFF;}
	.st53{clip-path:url(#SVGID_00000079448716485765956810000002295089212055321475_);fill:#FFFFFF;}
	.st54{clip-path:url(#SVGID_00000154403067778790905900000015554185983043356302_);fill:#FFFFFF;}
	.st55{clip-path:url(#SVGID_00000183933804720532665840000004783807694916878228_);fill:#FFFFFF;}
	.st56{clip-path:url(#SVGID_00000144302308201251909610000018275293189115868039_);fill:#FFFFFF;}
	.st57{clip-path:url(#SVGID_00000171692246155719229960000002339585436938479237_);fill:#FFFFFF;}
	.st58{clip-path:url(#SVGID_00000139985309947273564260000014786209674287909005_);fill:#A85218;}
	.st59{clip-path:url(#SVGID_00000131361255652205180190000002269125993340469695_);fill:#FFFFFF;}
	.st60{fill:#FFFFFF;}
	.st61{fill:#1D1D1B;}
	.st62{fill:#0D181C;}
	.st63{fill:none;stroke:#1D1D1B;stroke-width:0.7;stroke-linecap:round;}
	.st64{fill:none;stroke:#D9D7CB;stroke-width:0.195;stroke-linecap:round;}
	.st65{fill:url(#SVGID_00000005260543945043756530000015782270703749278131_);}
	.st66{clip-path:url(#SVGID_00000061432913106903266400000011508075158016452248_);fill:#0D181C;}
	.st67{fill:none;stroke:#231F20;stroke-width:0.76;stroke-linecap:round;}
</style>
<pattern  y="243" width="16.6" height="16.6" patternUnits="userSpaceOnUse" id="SVGID_0000000162772748444367610" viewBox="0 -16.6 16.6 16.6" style="overflow:visible;">
	<g>
		<rect y="-16.6" class="st0" width="16.6" height="16.6"/>
		<g>
			<rect y="-16.6" class="st0" width="16.6" height="16.6"/>
			<rect y="-16.6" class="st1" width="16.6" height="16.6"/>
			<path class="st2" d="M7.2-12.5c-0.1-1.6-1.4-2.8-3-2.8c-1.6,0.1-2.8,1.4-2.8,3c0.1,1.6,1.4,2.8,3,2.8C6-9.5,7.3-10.9,7.2-12.5"/>
			<path class="st2" d="M15.2-4.4c-0.1-1.6-1.4-2.8-3-2.8c-1.6,0.1-2.8,1.4-2.8,3c0.1,1.6,1.4,2.8,3,2.8C14-1.4,15.2-2.8,15.2-4.4"
				/>
		</g>
	</g>
</pattern>
<path class="st3" d="M141.7,235.1c2.5-0.8,5.5-0.7,8.5-1c0.7-0.2,1.6-0.2,2.1-0.7l-2.2-0.4c-1.5-0.3-3-0.3-4.4-0.4
	c-0.7,0,0.3-0.5-1.3-0.5c-5.6,0.2-14.1-0.4-20.9-0.7l0.4-0.1c-1.3-0.1-2.8,0.4-4.2,0.4c0-0.1,0.4-0.1,0.1-0.3
	c-0.3,0.3-2.4,0.2-3,0.5c-0.5-0.1-0.5-0.3-1.2-0.4l-0.7,0.3c-2.1,0.9-5.2,0.3-8.1,0.9c0.1-0.1,0.4-0.2,0.2-0.2
	c-4.6,0.8-10.5,1.4-15.5,2.4c0.2-0.1,0.3-0.4,0-0.4c-0.2,0.3-1.7,0.7-3,1c-0.8-0.2-2.2,0.7-3.8,1l0.1-0.1c-1,0.6-1.8,0.2-2.4,0.9
	l-0.9,0c0.1,0.4-2.6,0.7-1.7,0.4l0-0.1c0.7,0,1.3,0.3,2.1,0.3l0.1,0.1c2.1,0,3.2,0.3,3.2-0.1c0.7,0.3-2,0.1-0.9,0.5
	c6.8-0.2,13.8-0.3,20.7-0.4c0.8,0.1,1.3,0.2,1.5,0.3c0.7-0.1,2.6-0.1,3.2-0.3c-0.2,0,0.5,0.2,0.8,0.2c1.3,0.1,1.3-0.4,2.7-0.3
	c-0.5,0.1-0.7,0.2-0.5,0.4c1.2-0.3,2.7-0.3,4.1-0.4c-0.2,0.1-0.5,0.1-0.5,0.2c1.5-0.4,2.8,0,4.1-0.2l-0.5,0.2
	c2.1,0.2,0.6-0.5,2.5-0.4c-0.4,0.1-0.3,0.2-0.4,0.3c1.7-0.4,4.5-0.4,6.2-0.5c-0.1,0-0.1,0.1-0.1,0.1c1.9-0.1,3.8,0,5.9-0.2
	c0.8,0.1-0.2,0.5,1.8,0.4c-0.1-0.4,3.3-0.3,2.2-0.7c1.7,0,4.4,0.1,5.5-0.1c-0.7,0.2,0.9,0.5-0.5,0.6l1.1,0.2c-0.1,0.2-1.1,0-0.7,0.2
	c0.7,0,2.7-0.3,3.4-0.2c1.3-0.3,2.4-0.9,4.5-1c-1,0.2,0.6,0.4-0.1,0.6l2.9-1c0.7-0.1,0.2,0.3,1.2,0.2c-0.1-0.1,0.4-0.2,0.7-0.3
	c0.3,0,2.9-0.3,3.2,0.1c0.3,0.1-1.1,0.2-0.3,0.3c1.3-0.1,1.3-0.2,2.6-0.3l0,0.1c0.9,0,2.5-0.4,1.5-0.5c-0.6,0,0.3,0.2-0.6,0.2
	c0.6-0.3,2-0.5,3.3-0.6c-0.4,0.1-0.3,0.2-0.5,0.4c0.8-0.3,1.7-0.5,2.4-0.7c0.3,0.2,1-0.9,0,0.5c1.1,1.5,0.1,0.4-0.1,0.7
	c-0.1,0.2,0.8-0.2,0.7-0.1c-1.4-0.6-4.9-0.2-6.6-0.8c0.3,0,0.1,0.3,0.1,0.2c-1.2-0.1-1.1-0.4-1.9-0.4c-0.1-0.2-1,0-1.8,0
	c-0.4,0.1-0.2-0.1,0.5-0.1c-1.1,0-5.6,0-8.1-0.4c0,0.1-1.6,0.3-2.2,0.3l0.3-0.3c-0.5-0.2-2-0.1-2.1-0.3c-1.3,0.3,4.9-0.1,3.2,0.1
	c-0.4-0.2-2.4,0.3-2,0c-1.2,0-2.4,0.2-3.5-0.1c0.3,0.1,1-0.3,0-0.4c-1.7,0-0.5,0.1-1.9,0.2l-0.9,0.1c-0.1,0.3-1.5-0.1-0.9,0.2
	c-0.2-0.2-2.5,0.1-2.3-0.3l0.3-0.3c-0.7,0-1.2,0.3-1.8,0.5c-0.1,0-0.3-0.1-0.2-0.2c-0.1,0.5-1.8-0.1-2.6,0.3
	c-1.5-0.2-3.9-0.1-4.6-0.4c-1.2,0.1-2.3,0.3-3.6,0.2c0.3,0,0.6-0.1,0.7-0.2c-0.8-0.2-1.1,0-1.8,0.1c0.2-0.1-1.7-0.3-2.6-0.5
	c-1.2,0.1-0.8,0.4-0.9,0.6c-1.1-0.5-3.3,0.3-4.7-0.2c0.4-0.1,1.7-0.2,0.8-0.4c-1.1-0.5-2.2,0.3-3.9,0.1l0.4,0.4
	c-0.8-0.3-2.6,0.2-2.4-0.2c-0.6,0.1-2.1-0.2-1.9,0.2c-2.9-0.4-7,0-8.7-0.8c-0.4,0.1-1.4,0-1.2,0.2c0.7,0.3,1-0.1,1.2,0
	c-0.4,0-0.5,0.1-0.5,0.2c-0.9-0.1-1.6-0.2-0.7-0.5c-2-0.3-2.1,0.6-4.6,0.4c0.1-0.2-0.1-0.2-0.8-0.2l-1.4,0.3
	c-1.6-0.1-0.9-0.4-0.9-0.7c-0.9,0-1.9,0-2.3,0.2l-1-0.4c0.8,0.3-0.7,0.2-1.1,0.2l0.4-0.1c-0.2-0.1-1.2-0.1-1.7,0
	c0.1,0.2,1.1,0.3,1.7,0.3c-0.4,0.1-1.1,0.1-1.7,0.2c0.2-0.3-1.4-0.2-2.1-0.3c-0.8-0.1-0.9,0.2-1.1,0.2c0-0.1-1.3,0-0.7-0.2
	c0.3,0,0.6,0.1,1.1,0c-0.5-0.1-0.5-0.4-1.5-0.2c-0.8,0.1,0.2,0.6-1.3,0.4c0.4-0.1,0.5-0.2,0.8-0.3l-1.4-0.2l-0.1,0.3
	c-0.2-0.1-0.1-0.1-0.1-0.1c-0.4,0.3-2.2,0.1-2.5,0.4c-0.7,0-1.5-0.2-2.2-0.2l0.1,0c-0.9-0.1-2,0-2.7,0.2l0-0.1c-0.5,0-1.6,0-2.1,0.2
	c-1.2-0.2-0.4-1-1.7-0.6c-1.2,0-1.8,0.5-1.3,0.7c-2.1-0.1-4.5,0.4-6.5,0.2c-0.3,0.1-0.1,0.2-0.7,0.3c-3.1,0.1-6.3,1-8.9,0.9
	c0.8-0.2,0-0.3-0.1-0.4c-0.6,0.4-0.9-0.1-1.1,0.4c0.2,0.2,0.1,0.3,1,0.3c-0.8,0.2-2,0.5-2.9,0.6c-0.4,0-0.9,0.3-0.5,0
	c0.3-0.3,0.3-0.2,0.5-1c-0.1-0.8-0.8-1-0.7-1c-0.3-0.1-0.4-0.1-0.3-0.1c-0.1-0.1,0-0.2,0.2-0.2c-0.4,0.3,0.8,0.6,1.8,0.5l0.2-0.2
	l0.6,0.3c0.4,0,0.5-0.4,1.5-0.2c0,0.1,0.1,0.2,0.3,0.3c1.1-0.1,2.6-0.4,3.8-0.2l0.9,0.4c0.5,0,1.4-0.2,0.5-0.3
	c2,0.3,3.3,0.3,3.9,0.6c3.5-0.6,8.5-0.6,12.5-0.5l-0.1,0.2c1.1,0.2,0.6-0.3,1.3-0.2c-0.4,0.2,0.8,0.4,0,0.6c1.5,0.2,2-0.3,3-0.3
	c0.2-0.2-0.8,0.1-0.6-0.1c0.2-0.1,2.1,0.2,2.4-0.1c0.4,0.1,0.1,0.4-0.1,0.5l1-0.2c1.2,0.4-2.7,0.7-1.5,1.2l0.9,0
	c0.8,0.4-2.3,0.4-0.1,0.5c1-0.2,1.8-0.6,0.9-0.8c2-0.1,0.9-0.8,3.1-0.7c0.6,0.2-1.7,0-1.3,0.3c1,0.3,2-0.1,2.9,0
	c-1-0.1-0.1-0.5,0.5-0.5c1.1,0.2-0.7,0.3,0.8,0.4c0.3-0.2,1.7-0.3,0.5-0.5c0.6-0.4,1.6,0.2,2.4-0.2c0.5,0.3-1.6,0.7,0.1,0.9
	c-0.3-0.3,2.1-0.4,1.2-0.8c0.7,0.1,0.7,0.3,0.2,0.5c0.9,0.2,2.3-0.5,2.6,0.1l0.3-0.3c0.3,0.1,0.7,0.2,1.2,0.4c0.8,0,2.7-0.3,2.6,0.1
	c0.3,0,2.2,0.1,1.5-0.3c-1.2-0.2-1.4,0.2-2-0.3c0.8,0.4,1.7,0,2.4-0.1c-0.1,0.1,0,0.1,0.1,0.2c0.4-0.1,1.4,0,1.6-0.2
	c-0.3,0.1-0.2,0.2,0.2,0.3l0.5-0.3c1.7-0.1,0.4,0.5,2,0.5l-1.2,0.2c0.3,0,0.8,0.2,1.6,0.2c0.3-0.2,0.9-0.5,1.2-0.7
	c0.9-0.1,0.4,0.3,1.3,0.1l-1.2,0.2c-0.2,0.1,0.8,0.4,2,0.5c0.8-0.1,2-0.4,0.8-0.5c0.6,0,1.4,0.2,0.9,0.4c1.4,0-0.2-0.3,1-0.4
	c0.5,0.2,2,0.5,2.8,0.8l-1.3,0.4l0.8,0c-1.1,0.3,0.5,0.3-0.1,0.6c0.6,0.1,1.2,0,1.8-0.1c-1.6-0.6,1.9-0.7,1.5-1.2
	c2.3,0,1.3,1.3,3.7,0.6c-0.4-0.2,0.8-0.5-0.7-0.4c1.4,0.1,1-0.5,2.6-0.2c-1.2,0.2,1.3,0.6-0.5,0.8c0.1-0.2-1-0.2-1.2-0.1
	c0.6,0.2-0.2,0.5,1.3,0.6c0.9,0,2.1,0,1.9-0.2c0-0.3-1.3,0-0.7-0.3c1.7,0,2,0.4,2.8,0c-1.1,0-1.4-0.3-1.3-0.5l1.3-0.1l-0.3,0.2
	c2,0.2,0.6-0.3,2.6-0.2l0.9,0.4c-0.5,0.3-2.9-0.3-2.6,0.3c1.3,0.1,1.7-0.2,2.9,0l-0.9,0.1c0.5,0,0.9,0.8,2.7,0.4
	c1-0.1,0.3-0.2,0.3-0.4c2.1,0,2.7-0.1,4.1-0.1c-0.3,0.4,2.4,0.1,0.8,0.5c-0.7-0.3-3.7-0.4-4.4,0c0.7,0.5-1.6-0.1-2.1,0.3
	c1.7,0.1,1.5,0.5,1.8,0.9c0.5,0,0.9-0.1,1.2-0.1c0.2-0.3-0.4-0.3-0.4-0.6c1.8,0.2,3.6,0.1,4.7-0.1c0.6,0.2,0.4,0.4-0.4,0.4
	c2.2,0,4.6,0.2,6.6,0.3c-1.3-0.5,2.3,0,1.5-0.4c-1.1-0.2-2-0.5-1.4-0.7c0.7,0.1,0,0.2,0.2,0.3c0.9-0.2,1.4,0.5,2.3,0.1
	c-2,0.1-0.4,0.5-0.8,0.9c1.5-0.1-0.1,0.3,1.4,0.3c1.5-0.1,3.3-0.2,4.9-0.2c2,0.4,5.1,0.2,6.9,0.3c0.9,0.2,0.3,0.6,1.3,0.7
	c1.2,0-0.9-0.5,0.9-0.2l-0.2,0.1c0.5-0.1,3.2,0.4,3.8-0.2l-0.6,0.4c0.3,0.1,0.6,0,0.9-0.1c0,0.1,0.4,0.3-0.2,0.4
	c1.1,0.3,2.3,0,3.5,0.1l-0.7-0.3c2.1-0.1,3.4,0.2,5.4,0.1l-0.1,0.3l1.2-0.1c-0.3,0.2,0.8,0.4,1.4,0.2l-3.1,0.6
	c-0.8-0.2,0.9-0.3,0.4-0.6c-0.4-0.2-2.3-0.2-2.6,0c0.7,0.1,0.7,0,1.3-0.1c0.2,0.4-0.9,0.3-1.4,0.5c0.4,0,0.9,0.1,1,0
	c-0.7,0.2-1.5,0.2-2.7,0.1c0.8-0.1-0.4-0.2-0.1-0.3c-0.1,0.3-1.3,0.4-2.8,0.2c-1-0.4-2.8,0.1-4.5,0c0.7-0.3,1.6-0.5,2.7-0.6
	c-1.1-0.2-1.2,0-2.3-0.2c-0.5,0.2-0.9,0.6-2.4,0.7l-0.1-0.2c-1.3,0.1-1.3,0.4-2.9,0.3c-2.8-0.2-5.6-0.4-7.8-0.5l-0.1-0.2
	c-1.2,0.5-4,0-5.6,0.2c-2.7-0.3-5.9,0-7.3-0.5c-4.8,0-9-0.1-13.9-0.4l0.9-0.3c-0.9,0.2-0.6-0.2-1.4-0.2c1,0.3-1.2,0.3-1.9,0.5
	c-2.2-0.4-5-0.2-7-0.1l-0.1-0.2c-2,0.4-4.3-0.1-6.8-0.3c-0.3-0.1-0.7-0.4-1.4-0.4c-1.4,0.3-2,0.3-4,0.4c-1.4-0.1-3.7-0.2-5.1-0.4
	c-5.4,0.4-10.9,0-16.5,0.3l-0.4-0.3c-5.4,0.5-12.1-0.1-16.8,0.1l0.5-0.5c-1.5-0.2-3.3,0-3,0.4c-1.5-0.2-3.7,0.1-4.6-0.3
	c-1.5-0.2-1.9,0.1-3.2,0.1c-1.8-0.4-2.1,0-4.8-1.2c-1.9-1.6,0.5-3.1,0.6-3c0.4-0.2,0.9-0.4,1.2-0.4c0.7-0.2,1.3-0.3,2-0.5l-0.7,0.1
	c-0.3,0.2-0.2,0.4,0.5,0.3c1-0.4,3.9-0.6,2.7-1c3.1-0.2,7.1-1.2,10.1-1c-0.3-0.1,0.5-0.2,0.8-0.4c2.7-0.2,5.5,0,7.6-0.3
	c0.4,0.1-0.7,0.3,0.4,0.3c0.6-0.1,0-0.2,0.8-0.3c4.3-0.4,8.8,0.2,12.6,0.2c7-0.2,14.2,0.1,20.8,0.3l-0.1,0.1c2.2-0.4,5.2,0.6,6.9,0
	c0.5,0.1,2,0.1,1.6,0.3c1.8-0.3,4.9,0.4,7.5,0c-0.2,0-0.4,0-0.6,0.1c2.6,0.3,4.8,0,7.6,0.2c-0.3,0-0.8,0.1-0.9,0.2
	c1,0.2,2.5-0.5,3.1,0.1c0.6,0,0.4-0.3,0.1-0.3c5.9,0.3,12.3,0,18.6,0.1c4.4,0.5,0.2,0.9,3.7,0.7c0.3,0.1,0.2-0.2,0.3-0.1
	c1.4-0.1,2.1,0.7,3,0.5c-0.4-0.4,0.6-0.2,0.7-0.4c2.7,0.4,3.2,0.8,5.4,0.7l-0.2,0.2c2.6-0.4,5.5,0.3,7.7,0c0.6,0.1,0.6,0,1.6,0.2
	c0.3,0.1,0.5,0.1,1.1,0.3c-0.1,0.2,2.4,0.2,1.6,2.9c-3.3,2.5-3.1,1.2-4.4,1.8c-1.8,0.3-3.6,0.4-5.3,0.6c-3.4,0.3-6.8,0.6-10.2,0.8
	c-6.8,0.4-13.5,0.8-20.3,0.9c-13.3,0-26.3,0.8-40,0.5c-3.2-0.5-3.4-0.4-7-0.3c0.2-0.1,0.4-0.1,0.1-0.2c-0.2,0.4-2.5-0.1-3,0.3
	c-0.7-0.1-1.3-0.1-2.3-0.3c-0.3-0.1-0.4,0-1.1-0.3c-0.3-0.1-0.4-0.1-0.9-0.4c-1-0.5-1.3-2-1-2.4c0.9-1.5,1.7-1.5,1.8-1.6
	c0.4-0.2,0.7-0.2,0.8-0.3c0.4-0.1,2.3-0.8,3.3-1.1c2.4-0.7,4.9-1.2,7.5-1.7c-0.8,0.2-1.1,0.6-0.1,0.4l0.9-0.4l0.2,0.1
	c0.6-0.2,1.3-0.5,0.6-0.5c13-2.3,26-2.4,38.8-2.5c3.1,0.1,7.4,0.1,10.8,0.2c2.5,0.3,4.9,0.6,7.3,1c1.2,0.2,2.4,0.4,3.6,0.7l0.9,0.2
	l0.4,0.1l0.1,0l0,0c0.2,1.4-0.4-3,0.4,3.1l0,0l0,0l-0.1,0l-0.3,0.1c-0.6,0.2-1.4,0.4-2.1,0.5c-5.9,0.2-8.4,0.7-15.3,0.9
	C136.1,236.6,138,235.8,141.7,235.1z"/>
<path class="st4" d="M22,34.6c0,5-3,7.4-9.8,6.4c-5.5-0.8-10.5-4-10.1-9c0.6-7.6,6.1-10.4,11.4-8.5C20.3,25.9,22,29.6,22,34.6"/>
<path class="st5" d="M17.6,34.1c0,2.3-1.4,3.4-4.5,2.9c-2.5-0.4-4.8-1.8-4.6-4.1c0.3-3.5,2.8-4.8,5.2-3.9
	C16.9,30.1,17.6,31.8,17.6,34.1"/>
<path class="st4" d="M82.8,134.4l-14-7C67.1,121,58.4,110,43,100.2C31.8,93.1,7.9,71.9,15.1,36.8C20.6,10.4,39.4,6.3,60.8,3.3
	c21.4-3,41,6.1,51.6,22.3c20.6,31.6-2.9,56.8-9,67.1c-9.1,15.5-7.9,29.7-7.9,29.7L82.8,134.4z"/>
<g>
	<g>
		<defs>
			<path id="SVGID_1_" d="M60.8,3.3c-21.4,3-40.2,7.2-45.6,33.5C7.9,71.9,31.8,93.1,43,100.2c15.5,9.8,24.1,20.9,25.8,27.2l14,7
				l12.7-12c0,0-1.2-14.2,7.9-29.7c6.1-10.3,29.7-35.5,9-67.1C103.1,11.4,87,2.7,68.8,2.7C66.2,2.7,63.5,2.9,60.8,3.3"/>
		</defs>
		<clipPath id="SVGID_00000036234890976000113950000016462038944867990927_">
			<use xlink:href="#SVGID_1_"  style="overflow:visible;"/>
		</clipPath>
		<path style="clip-path:url(#SVGID_00000036234890976000113950000016462038944867990927_);fill:#FFFFFF;" d="M81.8,144.5
			c-0.8,1.4-4-1.6-3.2-3C79.5,140.1,82.7,143.1,81.8,144.5"/>
	</g>
	<g>
		<defs>
			<path id="SVGID_00000052064153507491806040000000542004790603809212_" d="M60.8,3.3c-21.4,3-40.2,7.2-45.6,33.5
				C7.9,71.9,31.8,93.1,43,100.2c15.5,9.8,24.1,20.9,25.8,27.2l14,7l12.7-12c0,0-1.2-14.2,7.9-29.7c6.1-10.3,29.7-35.5,9-67.1
				C103.1,11.4,87,2.7,68.8,2.7C66.2,2.7,63.5,2.9,60.8,3.3"/>
		</defs>
		<clipPath id="SVGID_00000103257915317091281930000007920342217494706608_">
			<use xlink:href="#SVGID_00000052064153507491806040000000542004790603809212_"  style="overflow:visible;"/>
		</clipPath>
		<path style="clip-path:url(#SVGID_00000103257915317091281930000007920342217494706608_);fill:#FFFFFF;" d="M74.8,141.9
			c-0.9,1.4-4.2-1.8-3.3-3.1C72.4,137.4,75.7,140.6,74.8,141.9"/>
	</g>
	<g>
		<defs>
			<path id="SVGID_00000014602011210793725730000008000766132387711905_" d="M60.8,3.3c-21.4,3-40.2,7.2-45.6,33.5
				C7.9,71.9,31.8,93.1,43,100.2c15.5,9.8,24.1,20.9,25.8,27.2l14,7l12.7-12c0,0-1.2-14.2,7.9-29.7c6.1-10.3,29.7-35.5,9-67.1
				C103.1,11.4,87,2.7,68.8,2.7C66.2,2.7,63.5,2.9,60.8,3.3"/>
		</defs>
		<clipPath id="SVGID_00000013893281311436476860000004716438225532648077_">
			<use xlink:href="#SVGID_00000014602011210793725730000008000766132387711905_"  style="overflow:visible;"/>
		</clipPath>
		<path style="clip-path:url(#SVGID_00000013893281311436476860000004716438225532648077_);fill:#FFFFFF;" d="M78.3,145
			c-0.9,1.4-4.1-1.6-3.2-3C76,140.7,79.1,143.6,78.3,145"/>
	</g>
	<g>
		<defs>
			<path id="SVGID_00000098909936081201375520000010975873163062594695_" d="M60.8,3.3c-21.4,3-40.2,7.2-45.6,33.5
				C7.9,71.9,31.8,93.1,43,100.2c15.5,9.8,24.1,20.9,25.8,27.2l14,7l12.7-12c0,0-1.2-14.2,7.9-29.7c6.1-10.3,29.7-35.5,9-67.1
				C103.1,11.4,87,2.7,68.8,2.7C66.2,2.7,63.5,2.9,60.8,3.3"/>
		</defs>
		<clipPath id="SVGID_00000139290865470190815830000002114464918878198928_">
			<use xlink:href="#SVGID_00000098909936081201375520000010975873163062594695_"  style="overflow:visible;"/>
		</clipPath>
		<path style="clip-path:url(#SVGID_00000139290865470190815830000002114464918878198928_);fill:#FFFFFF;" d="M88.1,139.2
			c-0.8,1.4-4-1.5-3.1-2.9C85.9,134.9,88.9,137.8,88.1,139.2"/>
	</g>
	<g>
		<defs>
			<path id="SVGID_00000142176813234356886630000013213896220410486672_" d="M60.8,3.3c-21.4,3-40.2,7.2-45.6,33.5
				C7.9,71.9,31.8,93.1,43,100.2c15.5,9.8,24.1,20.9,25.8,27.2l14,7l12.7-12c0,0-1.2-14.2,7.9-29.7c6.1-10.3,29.7-35.5,9-67.1
				C103.1,11.4,87,2.7,68.8,2.7C66.2,2.7,63.5,2.9,60.8,3.3"/>
		</defs>
		<clipPath id="SVGID_00000134250984073535064220000000619791976174429591_">
			<use xlink:href="#SVGID_00000142176813234356886630000013213896220410486672_"  style="overflow:visible;"/>
		</clipPath>
		<path style="clip-path:url(#SVGID_00000134250984073535064220000000619791976174429591_);fill:#FFFFFF;" d="M74.2,139.3
			c-1,1.2-4-2.4-3-3.5C72.2,134.6,75.2,138.1,74.2,139.3"/>
	</g>
	<g>
		<defs>
			<path id="SVGID_00000093136264478390793060000013394792642647031227_" d="M60.8,3.3c-21.4,3-40.2,7.2-45.6,33.5
				C7.9,71.9,31.8,93.1,43,100.2c15.5,9.8,24.1,20.9,25.8,27.2l14,7l12.7-12c0,0-1.2-14.2,7.9-29.7c6.1-10.3,29.7-35.5,9-67.1
				C103.1,11.4,87,2.7,68.8,2.7C66.2,2.7,63.5,2.9,60.8,3.3"/>
		</defs>
		<clipPath id="SVGID_00000057830764300889162670000006214989874637912224_">
			<use xlink:href="#SVGID_00000093136264478390793060000013394792642647031227_"  style="overflow:visible;"/>
		</clipPath>
		<path style="clip-path:url(#SVGID_00000057830764300889162670000006214989874637912224_);fill:#FFFFFF;" d="M76.4,133.5l-0.6,0.2
			c0.9,1.8-0.1,3.4-1.6,1.6c-1.3-1.4-1.1-3-0.4-3.2c-0.4-0.7-0.5-1.4-0.2-1.9C74.7,129,77.5,132.3,76.4,133.5"/>
	</g>
	<g>
		<defs>
			<path id="SVGID_00000052070328231946653810000013833216042100572570_" d="M60.8,3.3c-21.4,3-40.2,7.2-45.6,33.5
				C7.9,71.9,31.8,93.1,43,100.2c15.5,9.8,24.1,20.9,25.8,27.2l14,7l12.7-12c0,0-1.2-14.2,7.9-29.7c6.1-10.3,29.7-35.5,9-67.1
				C103.1,11.4,87,2.7,68.8,2.7C66.2,2.7,63.5,2.9,60.8,3.3"/>
		</defs>
		<clipPath id="SVGID_00000123433934716873241570000012808805446432643233_">
			<use xlink:href="#SVGID_00000052070328231946653810000013833216042100572570_"  style="overflow:visible;"/>
		</clipPath>
		<path style="clip-path:url(#SVGID_00000123433934716873241570000012808805446432643233_);fill:#FFFFFF;" d="M73.3,120.9
			c-1.5,0.2-2.4-4.5-0.9-4.6C73.9,116.2,74.8,120.8,73.3,120.9"/>
	</g>
	<g>
		<defs>
			<path id="SVGID_00000069376645101061519310000008655458092001030039_" d="M60.8,3.3c-21.4,3-40.2,7.2-45.6,33.5
				C7.9,71.9,31.8,93.1,43,100.2c15.5,9.8,24.1,20.9,25.8,27.2l14,7l12.7-12c0,0-1.2-14.2,7.9-29.7c6.1-10.3,29.7-35.5,9-67.1
				C103.1,11.4,87,2.7,68.8,2.7C66.2,2.7,63.5,2.9,60.8,3.3"/>
		</defs>
		<clipPath id="SVGID_00000155866850277493588610000007446345933630400161_">
			<use xlink:href="#SVGID_00000069376645101061519310000008655458092001030039_"  style="overflow:visible;"/>
		</clipPath>
		<path style="clip-path:url(#SVGID_00000155866850277493588610000007446345933630400161_);fill:#FFFFFF;" d="M78.8,140.4
			c-1.3,1.7-5.3-3-3.9-4.7C76.2,134,80.2,138.6,78.8,140.4"/>
	</g>
	<g>
		<defs>
			<path id="SVGID_00000148655484476985473550000008726695652987477134_" d="M60.8,3.3c-21.4,3-40.2,7.2-45.6,33.5
				C7.9,71.9,31.8,93.1,43,100.2c15.5,9.8,24.1,20.9,25.8,27.2l14,7l12.7-12c0,0-1.2-14.2,7.9-29.7c6.1-10.3,29.7-35.5,9-67.1
				C103.1,11.4,87,2.7,68.8,2.7C66.2,2.7,63.5,2.9,60.8,3.3"/>
		</defs>
		<clipPath id="SVGID_00000150101986249722225310000002124350093404843421_">
			<use xlink:href="#SVGID_00000148655484476985473550000008726695652987477134_"  style="overflow:visible;"/>
		</clipPath>
		<path style="clip-path:url(#SVGID_00000150101986249722225310000002124350093404843421_);fill:#FFFFFF;" d="M71.4,137
			c-1.3,1.7-5.3-3-3.9-4.7C68.8,130.7,72.7,135.3,71.4,137"/>
	</g>
	<g>
		<defs>
			<path id="SVGID_00000157282789897632442250000004821706831855785130_" d="M60.8,3.3c-21.4,3-40.2,7.2-45.6,33.5
				C7.9,71.9,31.8,93.1,43,100.2c15.5,9.8,24.1,20.9,25.8,27.2l14,7l12.7-12c0,0-1.2-14.2,7.9-29.7c6.1-10.3,29.7-35.5,9-67.1
				C103.1,11.4,87,2.7,68.8,2.7C66.2,2.7,63.5,2.9,60.8,3.3"/>
		</defs>
		<clipPath id="SVGID_00000158748332248585086800000009964267168301868417_">
			<use xlink:href="#SVGID_00000157282789897632442250000004821706831855785130_"  style="overflow:visible;"/>
		</clipPath>
		<path style="clip-path:url(#SVGID_00000158748332248585086800000009964267168301868417_);fill:#FFFFFF;" d="M88.7,130.8
			c-0.8,1.4-4.2-1.8-3.3-3.2C86.3,126.2,89.6,129.3,88.7,130.8"/>
	</g>
	<g>
		<defs>
			<path id="SVGID_00000101805274578304586500000013479373589419468701_" d="M60.8,3.3c-21.4,3-40.2,7.2-45.6,33.5
				C7.9,71.9,31.8,93.1,43,100.2c15.5,9.8,24.1,20.9,25.8,27.2l14,7l12.7-12c0,0-1.2-14.2,7.9-29.7c6.1-10.3,29.7-35.5,9-67.1
				C103.1,11.4,87,2.7,68.8,2.7C66.2,2.7,63.5,2.9,60.8,3.3"/>
		</defs>
		<clipPath id="SVGID_00000028299367394012811520000016784429513233563542_">
			<use xlink:href="#SVGID_00000101805274578304586500000013479373589419468701_"  style="overflow:visible;"/>
		</clipPath>
		<path style="clip-path:url(#SVGID_00000028299367394012811520000016784429513233563542_);fill:#FFFFFF;" d="M79.2,137.6
			c0.7-1.5,4,0.8,3.3,2.3C81.9,141.4,78.5,139.1,79.2,137.6"/>
	</g>
	<g>
		<defs>
			<path id="SVGID_00000078725252370742595570000003285431688607628448_" d="M60.8,3.3c-21.4,3-40.2,7.2-45.6,33.5
				C7.9,71.9,31.8,93.1,43,100.2c15.5,9.8,24.1,20.9,25.8,27.2l14,7l12.7-12c0,0-1.2-14.2,7.9-29.7c6.1-10.3,29.7-35.5,9-67.1
				C103.1,11.4,87,2.7,68.8,2.7C66.2,2.7,63.5,2.9,60.8,3.3"/>
		</defs>
		<clipPath id="SVGID_00000121972627479162797040000008732354441190165689_">
			<use xlink:href="#SVGID_00000078725252370742595570000003285431688607628448_"  style="overflow:visible;"/>
		</clipPath>
		<path style="clip-path:url(#SVGID_00000121972627479162797040000008732354441190165689_);fill:#FFFFFF;" d="M77.2,134
			c0.9-1.4,3.8,1.4,2.9,2.8C79.3,138.1,76.2,135.4,77.2,134"/>
	</g>
	<g>
		<defs>
			<path id="SVGID_00000176764890458865174630000007720973189980922525_" d="M60.8,3.3c-21.4,3-40.2,7.2-45.6,33.5
				C7.9,71.9,31.8,93.1,43,100.2c15.5,9.8,24.1,20.9,25.8,27.2l14,7l12.7-12c0,0-1.2-14.2,7.9-29.7c6.1-10.3,29.7-35.5,9-67.1
				C103.1,11.4,87,2.7,68.8,2.7C66.2,2.7,63.5,2.9,60.8,3.3"/>
		</defs>
		<clipPath id="SVGID_00000019662116399411506660000004924928608739215794_">
			<use xlink:href="#SVGID_00000176764890458865174630000007720973189980922525_"  style="overflow:visible;"/>
		</clipPath>
		<path style="clip-path:url(#SVGID_00000019662116399411506660000004924928608739215794_);fill:#FFFFFF;" d="M67.7,136.8
			c0.7-1.5,4.1,1.1,3.4,2.7C70.6,140.9,67.1,138.2,67.7,136.8"/>
	</g>
	<g>
		<defs>
			<path id="SVGID_00000000937549546723643260000009798881491744807061_" d="M60.8,3.3c-21.4,3-40.2,7.2-45.6,33.5
				C7.9,71.9,31.8,93.1,43,100.2c15.5,9.8,24.1,20.9,25.8,27.2l14,7l12.7-12c0,0-1.2-14.2,7.9-29.7c6.1-10.3,29.7-35.5,9-67.1
				C103.1,11.4,87,2.7,68.8,2.7C66.2,2.7,63.5,2.9,60.8,3.3"/>
		</defs>
		<clipPath id="SVGID_00000013156226269254848030000003940564342659174574_">
			<use xlink:href="#SVGID_00000000937549546723643260000009798881491744807061_"  style="overflow:visible;"/>
		</clipPath>
		<path style="clip-path:url(#SVGID_00000013156226269254848030000003940564342659174574_);fill:#FFFFFF;" d="M78.6,147.2
			c-0.7,1.5-4.4-1-3.6-2.7C75.8,143.3,79.4,145.7,78.6,147.2"/>
	</g>
	<g>
		<defs>
			<path id="SVGID_00000035513115279709814830000014106964539202140862_" d="M60.8,3.3c-21.4,3-40.2,7.2-45.6,33.5
				C7.9,71.9,31.8,93.1,43,100.2c15.5,9.8,24.1,20.9,25.8,27.2l14,7l12.7-12c0,0-1.2-14.2,7.9-29.7c6.1-10.3,29.7-35.5,9-67.1
				C103.1,11.4,87,2.7,68.8,2.7C66.2,2.7,63.5,2.9,60.8,3.3"/>
		</defs>
		<clipPath id="SVGID_00000142870777313704728380000010981090598786971797_">
			<use xlink:href="#SVGID_00000035513115279709814830000014106964539202140862_"  style="overflow:visible;"/>
		</clipPath>
		<path style="clip-path:url(#SVGID_00000142870777313704728380000010981090598786971797_);fill:#FFFFFF;" d="M79.7,129.2
			c0.8-1.4,3.7,1.2,2.9,2.7C81.9,133.4,78.9,130.7,79.7,129.2"/>
	</g>
	<g>
		<defs>
			<path id="SVGID_00000176732931855713184100000016091432852743096228_" d="M60.8,3.3c-21.4,3-40.2,7.2-45.6,33.5
				C7.9,71.9,31.8,93.1,43,100.2c15.5,9.8,24.1,20.9,25.8,27.2l14,7l12.7-12c0,0-1.2-14.2,7.9-29.7c6.1-10.3,29.7-35.5,9-67.1
				C103.1,11.4,87,2.7,68.8,2.7C66.2,2.7,63.5,2.9,60.8,3.3"/>
		</defs>
		<clipPath id="SVGID_00000108307197942798733350000008651307152215947146_">
			<use xlink:href="#SVGID_00000176732931855713184100000016091432852743096228_"  style="overflow:visible;"/>
		</clipPath>
		<path style="clip-path:url(#SVGID_00000108307197942798733350000008651307152215947146_);fill:#FFFFFF;" d="M70.5,138.9
			c-1.2,1.1,2.5,5.5,3.7,4.4C75.4,142.2,71.6,137.7,70.5,138.9"/>
	</g>
	<g>
		<defs>
			<path id="SVGID_00000060015352004705299250000005904566181065924499_" d="M60.8,3.3c-21.4,3-40.2,7.2-45.6,33.5
				C7.9,71.9,31.8,93.1,43,100.2c15.5,9.8,24.1,20.9,25.8,27.2l14,7l12.7-12c0,0-1.2-14.2,7.9-29.7c6.1-10.3,29.7-35.5,9-67.1
				C103.1,11.4,87,2.7,68.8,2.7C66.2,2.7,63.5,2.9,60.8,3.3"/>
		</defs>
		<clipPath id="SVGID_00000035523879711699351340000015919835305744964020_">
			<use xlink:href="#SVGID_00000060015352004705299250000005904566181065924499_"  style="overflow:visible;"/>
		</clipPath>
		<path style="clip-path:url(#SVGID_00000035523879711699351340000015919835305744964020_);fill:#FFFFFF;" d="M79,125.2
			c0.5-0.6,1.5-0.1,2.1,0.7l0.6,0.5c1.7,1.9,0.7,4.5-1,2.5l-0.5-0.7C79.2,127.5,78.4,125.9,79,125.2"/>
	</g>
	<g>
		<defs>
			<path id="SVGID_00000076575460270154402920000013957026400401265292_" d="M60.8,3.3c-21.4,3-40.2,7.2-45.6,33.5
				C7.9,71.9,31.8,93.1,43,100.2c15.5,9.8,24.1,20.9,25.8,27.2l14,7l12.7-12c0,0-1.2-14.2,7.9-29.7c6.1-10.3,29.7-35.5,9-67.1
				C103.1,11.4,87,2.7,68.8,2.7C66.2,2.7,63.5,2.9,60.8,3.3"/>
		</defs>
		<clipPath id="SVGID_00000027598131530091173600000002632446836836751018_">
			<use xlink:href="#SVGID_00000076575460270154402920000013957026400401265292_"  style="overflow:visible;"/>
		</clipPath>
		<path style="clip-path:url(#SVGID_00000027598131530091173600000002632446836836751018_);fill:#FFFFFF;" d="M66.3,134.7
			c-1.1,1.2-3.9-2.5-2.8-3.7C64.6,130,67.3,133.6,66.3,134.7"/>
	</g>
	<g>
		<defs>
			<path id="SVGID_00000150820717415057630270000002029455968699745671_" d="M60.8,3.3c-21.4,3-40.2,7.2-45.6,33.5
				C7.9,71.9,31.8,93.1,43,100.2c15.5,9.8,24.1,20.9,25.8,27.2l14,7l12.7-12c0,0-1.2-14.2,7.9-29.7c6.1-10.3,29.7-35.5,9-67.1
				C103.1,11.4,87,2.7,68.8,2.7C66.2,2.7,63.5,2.9,60.8,3.3"/>
		</defs>
		<clipPath id="SVGID_00000072244384973875147540000004404591101420207013_">
			<use xlink:href="#SVGID_00000150820717415057630270000002029455968699745671_"  style="overflow:visible;"/>
		</clipPath>
		<path style="clip-path:url(#SVGID_00000072244384973875147540000004404591101420207013_);fill:#FFFFFF;" d="M71,125
			c-1.1,1.1-3.6-2.4-2.5-3.5C69.6,120.4,72.1,123.9,71,125"/>
	</g>
	<g>
		<defs>
			<path id="SVGID_00000028322399618200891980000010770788158588348822_" d="M60.8,3.3c-21.4,3-40.2,7.2-45.6,33.5
				C7.9,71.9,31.8,93.1,43,100.2c15.5,9.8,24.1,20.9,25.8,27.2l14,7l12.7-12c0,0-1.2-14.2,7.9-29.7c6.1-10.3,29.7-35.5,9-67.1
				C103.1,11.4,87,2.7,68.8,2.7C66.2,2.7,63.5,2.9,60.8,3.3"/>
		</defs>
		<clipPath id="SVGID_00000121241782435227766720000011265564382374452641_">
			<use xlink:href="#SVGID_00000028322399618200891980000010770788158588348822_"  style="overflow:visible;"/>
		</clipPath>
		<path style="clip-path:url(#SVGID_00000121241782435227766720000011265564382374452641_);fill:#FFFFFF;" d="M86.3,120.6
			c-0.1-2.2,2.6-1.3,2.7,1C89,123.8,86.4,122.9,86.3,120.6"/>
	</g>
	<g>
		<defs>
			<path id="SVGID_00000015327892598801209570000015723695980186834053_" d="M60.8,3.3c-21.4,3-40.2,7.2-45.6,33.5
				C7.9,71.9,31.8,93.1,43,100.2c15.5,9.8,24.1,20.9,25.8,27.2l14,7l12.7-12c0,0-1.2-14.2,7.9-29.7c6.1-10.3,29.7-35.5,9-67.1
				C103.1,11.4,87,2.7,68.8,2.7C66.2,2.7,63.5,2.9,60.8,3.3"/>
		</defs>
		<clipPath id="SVGID_00000153673560657261677620000011493425160546112167_">
			<use xlink:href="#SVGID_00000015327892598801209570000015723695980186834053_"  style="overflow:visible;"/>
		</clipPath>
		<path style="clip-path:url(#SVGID_00000153673560657261677620000011493425160546112167_);fill:#FFFFFF;" d="M85.6,133.5
			c1,2.2-1.7,2.6-2.7,0.4C81.9,131.8,84.6,131.3,85.6,133.5"/>
	</g>
	<g>
		<defs>
			<path id="SVGID_00000129913575770992994450000009131666487094011558_" d="M60.8,3.3c-21.4,3-40.2,7.2-45.6,33.5
				C7.9,71.9,31.8,93.1,43,100.2c15.5,9.8,24.1,20.9,25.8,27.2l14,7l12.7-12c0,0-1.2-14.2,7.9-29.7c6.1-10.3,29.7-35.5,9-67.1
				C103.1,11.4,87,2.7,68.8,2.7C66.2,2.7,63.5,2.9,60.8,3.3"/>
		</defs>
		<clipPath id="SVGID_00000110465786086929368040000008286633583472588939_">
			<use xlink:href="#SVGID_00000129913575770992994450000009131666487094011558_"  style="overflow:visible;"/>
		</clipPath>
		<path style="clip-path:url(#SVGID_00000110465786086929368040000008286633583472588939_);fill:#FFFFFF;" d="M75.5,125.4
			c-0.7,2-2.9-0.4-2.3-2.4C73.9,121.1,76.2,123.5,75.5,125.4"/>
	</g>
	<g>
		<defs>
			<path id="SVGID_00000039120317079704778310000001317746967139979157_" d="M60.8,3.3c-21.4,3-40.2,7.2-45.6,33.5
				C7.9,71.9,31.8,93.1,43,100.2c15.5,9.8,24.1,20.9,25.8,27.2l14,7l12.7-12c0,0-1.2-14.2,7.9-29.7c6.1-10.3,29.7-35.5,9-67.1
				C103.1,11.4,87,2.7,68.8,2.7C66.2,2.7,63.5,2.9,60.8,3.3"/>
		</defs>
		<clipPath id="SVGID_00000178189613466370017740000017856075786732498091_">
			<use xlink:href="#SVGID_00000039120317079704778310000001317746967139979157_"  style="overflow:visible;"/>
		</clipPath>
		<path style="clip-path:url(#SVGID_00000178189613466370017740000017856075786732498091_);fill:#FFFFFF;" d="M92.5,128.9
			c-0.7-2.3,1.9-2.4,2.5-0.2C95.8,131,93.2,131.2,92.5,128.9"/>
	</g>
	<g>
		<defs>
			<path id="SVGID_00000125592744775567835780000005175590040350174849_" d="M60.8,3.3c-21.4,3-40.2,7.2-45.6,33.5
				C7.9,71.9,31.8,93.1,43,100.2c15.5,9.8,24.1,20.9,25.8,27.2l14,7l12.7-12c0,0-1.2-14.2,7.9-29.7c6.1-10.3,29.7-35.5,9-67.1
				C103.1,11.4,87,2.7,68.8,2.7C66.2,2.7,63.5,2.9,60.8,3.3"/>
		</defs>
		<clipPath id="SVGID_00000003799795428723338720000003765675426616902031_">
			<use xlink:href="#SVGID_00000125592744775567835780000005175590040350174849_"  style="overflow:visible;"/>
		</clipPath>
		<path style="clip-path:url(#SVGID_00000003799795428723338720000003765675426616902031_);fill:#FFFFFF;" d="M97.1,134.4
			c-1-3.4,2.8-3.7,3.8-0.3C102,137.6,98.2,137.9,97.1,134.4"/>
	</g>
	<g>
		<defs>
			<path id="SVGID_00000035503304844460442800000001589942368759708593_" d="M60.8,3.3c-21.4,3-40.2,7.2-45.6,33.5
				C7.9,71.9,31.8,93.1,43,100.2c15.5,9.8,24.1,20.9,25.8,27.2l14,7l12.7-12c0,0-1.2-14.2,7.9-29.7c6.1-10.3,29.7-35.5,9-67.1
				C103.1,11.4,87,2.7,68.8,2.7C66.2,2.7,63.5,2.9,60.8,3.3"/>
		</defs>
		<clipPath id="SVGID_00000012435589823509754850000016716182104731187627_">
			<use xlink:href="#SVGID_00000035503304844460442800000001589942368759708593_"  style="overflow:visible;"/>
		</clipPath>
		<path style="clip-path:url(#SVGID_00000012435589823509754850000016716182104731187627_);fill:#FFFFFF;" d="M81.2,137.1
			c-1.2-3.8,3.3-3.9,4.4-0.1C86.8,140.9,82.4,141.1,81.2,137.1"/>
	</g>
	<g>
		<defs>
			<path id="SVGID_00000043421421419200665620000002391248883086092707_" d="M60.8,3.3c-21.4,3-40.2,7.2-45.6,33.5
				C7.9,71.9,31.8,93.1,43,100.2c15.5,9.8,24.1,20.9,25.8,27.2l14,7l12.7-12c0,0-1.2-14.2,7.9-29.7c6.1-10.3,29.7-35.5,9-67.1
				C103.1,11.4,87,2.7,68.8,2.7C66.2,2.7,63.5,2.9,60.8,3.3"/>
		</defs>
		<clipPath id="SVGID_00000161624336436616737170000002317188102131893926_">
			<use xlink:href="#SVGID_00000043421421419200665620000002391248883086092707_"  style="overflow:visible;"/>
		</clipPath>
		<path style="clip-path:url(#SVGID_00000161624336436616737170000002317188102131893926_);fill:#FFFFFF;" d="M93,136
			c-1.2-3.8,3.3-3.9,4.4-0.1C98.6,139.8,94.2,139.9,93,136"/>
	</g>
	<g>
		<defs>
			<path id="SVGID_00000160874624879444049980000010857028736632845195_" d="M60.8,3.3c-21.4,3-40.2,7.2-45.6,33.5
				C7.9,71.9,31.8,93.1,43,100.2c15.5,9.8,24.1,20.9,25.8,27.2l14,7l12.7-12c0,0-1.2-14.2,7.9-29.7c6.1-10.3,29.7-35.5,9-67.1
				C103.1,11.4,87,2.7,68.8,2.7C66.2,2.7,63.5,2.9,60.8,3.3"/>
		</defs>
		<clipPath id="SVGID_00000048462366299632828640000018133655780763531672_">
			<use xlink:href="#SVGID_00000160874624879444049980000010857028736632845195_"  style="overflow:visible;"/>
		</clipPath>
		<path style="clip-path:url(#SVGID_00000048462366299632828640000018133655780763531672_);fill:#FFFFFF;" d="M94.3,132.3
			c-0.1-2.6,2.7-2,2.8,0.6C97.1,135.6,94.4,135,94.3,132.3"/>
	</g>
	<g>
		<defs>
			<path id="SVGID_00000097477145813841153070000008787506477323426487_" d="M60.8,3.3c-21.4,3-40.2,7.2-45.6,33.5
				C7.9,71.9,31.8,93.1,43,100.2c15.5,9.8,24.1,20.9,25.8,27.2l14,7l12.7-12c0,0-1.2-14.2,7.9-29.7c6.1-10.3,29.7-35.5,9-67.1
				C103.1,11.4,87,2.7,68.8,2.7C66.2,2.7,63.5,2.9,60.8,3.3"/>
		</defs>
		<clipPath id="SVGID_00000026121408772530278730000004508224246620991924_">
			<use xlink:href="#SVGID_00000097477145813841153070000008787506477323426487_"  style="overflow:visible;"/>
		</clipPath>
		<path style="clip-path:url(#SVGID_00000026121408772530278730000004508224246620991924_);fill:#FFFFFF;" d="M88.3,136.8
			c-0.8-2.4,1.9-2.4,2.8,0.1C91.9,139.3,89.1,139.2,88.3,136.8"/>
	</g>
	<g>
		<defs>
			<path id="SVGID_00000173140166681902133510000010919300617445324428_" d="M60.8,3.3c-21.4,3-40.2,7.2-45.6,33.5
				C7.9,71.9,31.8,93.1,43,100.2c15.5,9.8,24.1,20.9,25.8,27.2l14,7l12.7-12c0,0-1.2-14.2,7.9-29.7c6.1-10.3,29.7-35.5,9-67.1
				C103.1,11.4,87,2.7,68.8,2.7C66.2,2.7,63.5,2.9,60.8,3.3"/>
		</defs>
		<clipPath id="SVGID_00000142160306630178989700000017417737132577629602_">
			<use xlink:href="#SVGID_00000173140166681902133510000010919300617445324428_"  style="overflow:visible;"/>
		</clipPath>
		<path style="clip-path:url(#SVGID_00000142160306630178989700000017417737132577629602_);fill:#FFFFFF;" d="M76,126.3
			c-0.6-2.4,2.1-2,2.8,0.1C79.5,128.7,76.7,128.6,76,126.3"/>
	</g>
	<g>
		<defs>
			<path id="SVGID_00000098914626143302463730000002087432272585836168_" d="M60.8,3.3c-21.4,3-40.2,7.2-45.6,33.5
				C7.9,71.9,31.8,93.1,43,100.2c15.5,9.8,24.1,20.9,25.8,27.2l14,7l12.7-12c0,0-1.2-14.2,7.9-29.7c6.1-10.3,29.7-35.5,9-67.1
				C103.1,11.4,87,2.7,68.8,2.7C66.2,2.7,63.5,2.9,60.8,3.3"/>
		</defs>
		<clipPath id="SVGID_00000140699374831333753770000016788916136507658675_">
			<use xlink:href="#SVGID_00000098914626143302463730000002087432272585836168_"  style="overflow:visible;"/>
		</clipPath>
		<path style="clip-path:url(#SVGID_00000140699374831333753770000016788916136507658675_);fill:#FFFFFF;" d="M85.9,130.6
			c0.8,2.4-2,2.3-2.7,0C82.5,128.2,85.2,128.2,85.9,130.6"/>
	</g>
	<g>
		<defs>
			<path id="SVGID_00000085964968730491516600000015462811288140373937_" d="M60.8,3.3c-21.4,3-40.2,7.2-45.6,33.5
				C7.9,71.9,31.8,93.1,43,100.2c15.5,9.8,24.1,20.9,25.8,27.2l14,7l12.7-12c0,0-1.2-14.2,7.9-29.7c6.1-10.3,29.7-35.5,9-67.1
				C103.1,11.4,87,2.7,68.8,2.7C66.2,2.7,63.5,2.9,60.8,3.3"/>
		</defs>
		<clipPath id="SVGID_00000111872172538758018930000010140843522007833764_">
			<use xlink:href="#SVGID_00000085964968730491516600000015462811288140373937_"  style="overflow:visible;"/>
		</clipPath>
		<path style="clip-path:url(#SVGID_00000111872172538758018930000010140843522007833764_);fill:#FFFFFF;" d="M90.6,132.8
			c-0.7-2.2,2-2.3,2.7,0C93.9,135,91.3,135.1,90.6,132.8"/>
	</g>
	<g>
		<defs>
			<path id="SVGID_00000142164390977949555050000007965730982039402112_" d="M60.8,3.3c-21.4,3-40.2,7.2-45.6,33.5
				C7.9,71.9,31.8,93.1,43,100.2c15.5,9.8,24.1,20.9,25.8,27.2l14,7l12.7-12c0,0-1.2-14.2,7.9-29.7c6.1-10.3,29.7-35.5,9-67.1
				C103.1,11.4,87,2.7,68.8,2.7C66.2,2.7,63.5,2.9,60.8,3.3"/>
		</defs>
		<clipPath id="SVGID_00000165946637643452432240000000688432744438810529_">
			<use xlink:href="#SVGID_00000142164390977949555050000007965730982039402112_"  style="overflow:visible;"/>
		</clipPath>
		<path style="clip-path:url(#SVGID_00000165946637643452432240000000688432744438810529_);fill:#FFFFFF;" d="M90.4,132.8
			c1,2.2-1.6,2.7-2.6,0.5C86.9,131.2,89.5,130.6,90.4,132.8"/>
	</g>
	<g>
		<defs>
			<path id="SVGID_00000091711953571616669570000008701457274381563827_" d="M60.8,3.3c-21.4,3-40.2,7.2-45.6,33.5
				C7.9,71.9,31.8,93.1,43,100.2c15.5,9.8,24.1,20.9,25.8,27.2l14,7l12.7-12c0,0-1.2-14.2,7.9-29.7c6.1-10.3,29.7-35.5,9-67.1
				C103.1,11.4,87,2.7,68.8,2.7C66.2,2.7,63.5,2.9,60.8,3.3"/>
		</defs>
		<clipPath id="SVGID_00000053544011231339713130000010852858861967727779_">
			<use xlink:href="#SVGID_00000091711953571616669570000008701457274381563827_"  style="overflow:visible;"/>
		</clipPath>
		<path style="clip-path:url(#SVGID_00000053544011231339713130000010852858861967727779_);fill:#FFFFFF;" d="M99.5,130.1
			c1.1,2.5-1.8,3.1-3,0.6C95.4,128.2,98.4,127.6,99.5,130.1"/>
	</g>
	<g>
		<defs>
			<path id="SVGID_00000026854294310970947680000004621855158696595125_" d="M60.8,3.3c-21.4,3-40.2,7.2-45.6,33.5
				C7.9,71.9,31.8,93.1,43,100.2c15.5,9.8,24.1,20.9,25.8,27.2l14,7l12.7-12c0,0-1.2-14.2,7.9-29.7c6.1-10.3,29.7-35.5,9-67.1
				C103.1,11.4,87,2.7,68.8,2.7C66.2,2.7,63.5,2.9,60.8,3.3"/>
		</defs>
		<clipPath id="SVGID_00000029725698484024137070000015452517960768114818_">
			<use xlink:href="#SVGID_00000026854294310970947680000004621855158696595125_"  style="overflow:visible;"/>
		</clipPath>
		<path style="clip-path:url(#SVGID_00000029725698484024137070000015452517960768114818_);fill:#FFFFFF;" d="M88.8,124.4
			c0,2.1-2.5,1.4-2.6-0.8C86.2,121.5,88.7,122.3,88.8,124.4"/>
	</g>
	<g>
		<defs>
			<path id="SVGID_00000088125099156974433730000015067121239434702510_" d="M60.8,3.3c-21.4,3-40.2,7.2-45.6,33.5
				C7.9,71.9,31.8,93.1,43,100.2c15.5,9.8,24.1,20.9,25.8,27.2l14,7l12.7-12c0,0-1.2-14.2,7.9-29.7c6.1-10.3,29.7-35.5,9-67.1
				C103.1,11.4,87,2.7,68.8,2.7C66.2,2.7,63.5,2.9,60.8,3.3"/>
		</defs>
		<clipPath id="SVGID_00000162310906506271540490000015898252355908830861_">
			<use xlink:href="#SVGID_00000088125099156974433730000015067121239434702510_"  style="overflow:visible;"/>
		</clipPath>
		<path style="clip-path:url(#SVGID_00000162310906506271540490000015898252355908830861_);fill:#FFFFFF;" d="M78.9,133.1
			c-1-2.2,1.9-2.5,2.8-0.3C82.7,134.9,79.9,135.3,78.9,133.1"/>
	</g>
	<g>
		<defs>
			<path id="SVGID_00000145021988499575734950000013033073394795390140_" d="M60.8,3.3c-21.4,3-40.2,7.2-45.6,33.5
				C7.9,71.9,31.8,93.1,43,100.2c15.5,9.8,24.1,20.9,25.8,27.2l14,7l12.7-12c0,0-1.2-14.2,7.9-29.7c6.1-10.3,29.7-35.5,9-67.1
				C103.1,11.4,87,2.7,68.8,2.7C66.2,2.7,63.5,2.9,60.8,3.3"/>
		</defs>
		<clipPath id="SVGID_00000138549418879925268700000015925275286792311483_">
			<use xlink:href="#SVGID_00000145021988499575734950000013033073394795390140_"  style="overflow:visible;"/>
		</clipPath>
		<path style="clip-path:url(#SVGID_00000138549418879925268700000015925275286792311483_);fill:#FFFFFF;" d="M84.6,126.4
			c-0.6-2.2,2.2-2.1,2.8,0.1C88,128.7,85.3,128.6,84.6,126.4"/>
	</g>
	<g>
		<defs>
			<path id="SVGID_00000046325686541885611240000011600520115282301340_" d="M60.8,3.3c-21.4,3-40.2,7.2-45.6,33.5
				C7.9,71.9,31.8,93.1,43,100.2c15.5,9.8,24.1,20.9,25.8,27.2l14,7l12.7-12c0,0-1.2-14.2,7.9-29.7c6.1-10.3,29.7-35.5,9-67.1
				C103.1,11.4,87,2.7,68.8,2.7C66.2,2.7,63.5,2.9,60.8,3.3"/>
		</defs>
		<clipPath id="SVGID_00000178177161983741772960000006546061115315474618_">
			<use xlink:href="#SVGID_00000046325686541885611240000011600520115282301340_"  style="overflow:visible;"/>
		</clipPath>
		<path style="clip-path:url(#SVGID_00000178177161983741772960000006546061115315474618_);fill:#FFFFFF;" d="M92.9,135.9
			c1,2.2-1.5,2.8-2.4,0.6C89.6,134.4,92,133.7,92.9,135.9"/>
	</g>
	<g>
		<defs>
			<path id="SVGID_00000049206756258071952640000002317421036799517857_" d="M60.8,3.3c-21.4,3-40.2,7.2-45.6,33.5
				C7.9,71.9,31.8,93.1,43,100.2c15.5,9.8,24.1,20.9,25.8,27.2l14,7l12.7-12c0,0-1.2-14.2,7.9-29.7c6.1-10.3,29.7-35.5,9-67.1
				C103.1,11.4,87,2.7,68.8,2.7C66.2,2.7,63.5,2.9,60.8,3.3"/>
		</defs>
		<clipPath id="SVGID_00000152240374927897033800000016060797096969070760_">
			<use xlink:href="#SVGID_00000049206756258071952640000002317421036799517857_"  style="overflow:visible;"/>
		</clipPath>
		<path style="clip-path:url(#SVGID_00000152240374927897033800000016060797096969070760_);fill:#FFFFFF;" d="M89.2,135.4
			c1.3,2.8-2,3.4-3.4,0.6C84.5,133.1,87.8,132.5,89.2,135.4"/>
	</g>
	<g>
		<defs>
			<path id="SVGID_00000139973685755792552180000014179790901264700584_" d="M60.8,3.3c-21.4,3-40.2,7.2-45.6,33.5
				C7.9,71.9,31.8,93.1,43,100.2c15.5,9.8,24.1,20.9,25.8,27.2l14,7l12.7-12c0,0-1.2-14.2,7.9-29.7c6.1-10.3,29.7-35.5,9-67.1
				C103.1,11.4,87,2.7,68.8,2.7C66.2,2.7,63.5,2.9,60.8,3.3"/>
		</defs>
		<clipPath id="SVGID_00000024723952125728091870000013113203276103964058_">
			<use xlink:href="#SVGID_00000139973685755792552180000014179790901264700584_"  style="overflow:visible;"/>
		</clipPath>
		<path style="clip-path:url(#SVGID_00000024723952125728091870000013113203276103964058_);fill:#FFFFFF;" d="M88.2,126.8
			c-0.5-2.3,2.2-1.9,2.7,0.4C91.4,129.6,88.7,129.2,88.2,126.8"/>
	</g>
	<g>
		<defs>
			<path id="SVGID_00000057118011199477016610000007097936106369377692_" d="M60.8,3.3c-21.4,3-40.2,7.2-45.6,33.5
				C7.9,71.9,31.8,93.1,43,100.2c15.5,9.8,24.1,20.9,25.8,27.2l14,7l12.7-12c0,0-1.2-14.2,7.9-29.7c6.1-10.3,29.7-35.5,9-67.1
				C103.1,11.4,87,2.7,68.8,2.7C66.2,2.7,63.5,2.9,60.8,3.3"/>
		</defs>
		<clipPath id="SVGID_00000173120316090781023000000012900214301883738797_">
			<use xlink:href="#SVGID_00000057118011199477016610000007097936106369377692_"  style="overflow:visible;"/>
		</clipPath>
		<path style="clip-path:url(#SVGID_00000173120316090781023000000012900214301883738797_);fill:#FFFFFF;" d="M77.2,140.6
			c0.9,2.5-2,2.3-2.9-0.2C73.4,138,76.3,138.2,77.2,140.6"/>
	</g>
	<g>
		<defs>
			<path id="SVGID_00000072281861189760252690000016590048854004297896_" d="M60.8,3.3c-21.4,3-40.2,7.2-45.6,33.5
				C7.9,71.9,31.8,93.1,43,100.2c15.5,9.8,24.1,20.9,25.8,27.2l14,7l12.7-12c0,0-1.2-14.2,7.9-29.7c6.1-10.3,29.7-35.5,9-67.1
				C103.1,11.4,87,2.7,68.8,2.7C66.2,2.7,63.5,2.9,60.8,3.3"/>
		</defs>
		<clipPath id="SVGID_00000164485275371084110520000012779597529885855142_">
			<use xlink:href="#SVGID_00000072281861189760252690000016590048854004297896_"  style="overflow:visible;"/>
		</clipPath>
		<path style="clip-path:url(#SVGID_00000164485275371084110520000012779597529885855142_);fill:#FFFFFF;" d="M77.5,129
			c1.1,0.3,2.5,1.7,2,2.8c-0.5,1.3-2.6,0-3.1-1.4c-0.6-0.1-1.3-0.6-1.7-1.5c-0.9-2.3,1.8-2.6,2.7-0.3L77.5,129z"/>
	</g>
	<g>
		<defs>
			<path id="SVGID_00000078755552245102014710000005542489530399666845_" d="M60.8,3.3c-21.4,3-40.2,7.2-45.6,33.5
				C7.9,71.9,31.8,93.1,43,100.2c15.5,9.8,24.1,20.9,25.8,27.2l14,7l12.7-12c0,0-1.2-14.2,7.9-29.7c6.1-10.3,29.7-35.5,9-67.1
				C103.1,11.4,87,2.7,68.8,2.7C66.2,2.7,63.5,2.9,60.8,3.3"/>
		</defs>
		<clipPath id="SVGID_00000073713144404222814880000004253738790062836364_">
			<use xlink:href="#SVGID_00000078755552245102014710000005542489530399666845_"  style="overflow:visible;"/>
		</clipPath>
		<path style="clip-path:url(#SVGID_00000073713144404222814880000004253738790062836364_);fill:#FFFFFF;" d="M84.3,121
			c1.6,1.8,0.6,4.5-1,2.6S82.7,119.2,84.3,121"/>
	</g>
	<g>
		<defs>
			<path id="SVGID_00000096032134236865547560000012124827371197003701_" d="M60.8,3.3c-21.4,3-40.2,7.2-45.6,33.5
				C7.9,71.9,31.8,93.1,43,100.2c15.5,9.8,24.1,20.9,25.8,27.2l14,7l12.7-12c0,0-1.2-14.2,7.9-29.7c6.1-10.3,29.7-35.5,9-67.1
				C103.1,11.4,87,2.7,68.8,2.7C66.2,2.7,63.5,2.9,60.8,3.3"/>
		</defs>
		<clipPath id="SVGID_00000121997887211545700560000006800866265144970404_">
			<use xlink:href="#SVGID_00000096032134236865547560000012124827371197003701_"  style="overflow:visible;"/>
		</clipPath>
		<path style="clip-path:url(#SVGID_00000121997887211545700560000006800866265144970404_);fill:#FFFFFF;" d="M82,125.1
			c-1.7-1.9-0.6-4.4,1.1-2.4C84.8,124.5,83.7,127,82,125.1"/>
	</g>
	<g>
		<defs>
			<path id="SVGID_00000004532077810875217490000004121069777336496290_" d="M60.8,3.3c-21.4,3-40.2,7.2-45.6,33.5
				C7.9,71.9,31.8,93.1,43,100.2c15.5,9.8,24.1,20.9,25.8,27.2l14,7l12.7-12c0,0-1.2-14.2,7.9-29.7c6.1-10.3,29.7-35.5,9-67.1
				C103.1,11.4,87,2.7,68.8,2.7C66.2,2.7,63.5,2.9,60.8,3.3"/>
		</defs>
		<clipPath id="SVGID_00000171694772888806380760000012790291237659903643_">
			<use xlink:href="#SVGID_00000004532077810875217490000004121069777336496290_"  style="overflow:visible;"/>
		</clipPath>
		<path style="clip-path:url(#SVGID_00000171694772888806380760000012790291237659903643_);fill:#FFFFFF;" d="M71.2,130.2
			c-1.7-2-0.8-4.6,0.9-2.7C73.8,129.6,73,132.2,71.2,130.2"/>
	</g>
	<g>
		<defs>
			<path id="SVGID_00000015346499892872103500000015188709490238481799_" d="M60.8,3.3c-21.4,3-40.2,7.2-45.6,33.5
				C7.9,71.9,31.8,93.1,43,100.2c15.5,9.8,24.1,20.9,25.8,27.2l14,7l12.7-12c0,0-1.2-14.2,7.9-29.7c6.1-10.3,29.7-35.5,9-67.1
				C103.1,11.4,87,2.7,68.8,2.7C66.2,2.7,63.5,2.9,60.8,3.3"/>
		</defs>
		<clipPath id="SVGID_00000106852002403780455470000001533618312054715314_">
			<use xlink:href="#SVGID_00000015346499892872103500000015188709490238481799_"  style="overflow:visible;"/>
		</clipPath>
		<path style="clip-path:url(#SVGID_00000106852002403780455470000001533618312054715314_);fill:#FFFFFF;" d="M71,133.9
			c-2.3-1.5-2.1-4.2,0.1-2.8C73.4,132.6,73.3,135.3,71,133.9"/>
	</g>
	<g>
		<defs>
			<path id="SVGID_00000090261453033339071610000008458372818400806286_" d="M60.8,3.3c-21.4,3-40.2,7.2-45.6,33.5
				C7.9,71.9,31.8,93.1,43,100.2c15.5,9.8,24.1,20.9,25.8,27.2l14,7l12.7-12c0,0-1.2-14.2,7.9-29.7c6.1-10.3,29.7-35.5,9-67.1
				C103.1,11.4,87,2.7,68.8,2.7C66.2,2.7,63.5,2.9,60.8,3.3"/>
		</defs>
		<clipPath id="SVGID_00000033347339486288517440000013099661876121965493_">
			<use xlink:href="#SVGID_00000090261453033339071610000008458372818400806286_"  style="overflow:visible;"/>
		</clipPath>
		<path style="clip-path:url(#SVGID_00000033347339486288517440000013099661876121965493_);fill:#FFFFFF;" d="M72.2,126.7
			c-1.6-2.2-0.4-4.7,1.2-2.5C74.9,126.5,73.8,128.9,72.2,126.7"/>
	</g>
	<g>
		<defs>
			<path id="SVGID_00000165915839015079362220000007791378512089644424_" d="M60.8,3.3c-21.4,3-40.2,7.2-45.6,33.5
				C7.9,71.9,31.8,93.1,43,100.2c15.5,9.8,24.1,20.9,25.8,27.2l14,7l12.7-12c0,0-1.2-14.2,7.9-29.7c6.1-10.3,29.7-35.5,9-67.1
				C103.1,11.4,87,2.7,68.8,2.7C66.2,2.7,63.5,2.9,60.8,3.3"/>
		</defs>
		<clipPath id="SVGID_00000088099831356924014030000001089446385459559048_">
			<use xlink:href="#SVGID_00000165915839015079362220000007791378512089644424_"  style="overflow:visible;"/>
		</clipPath>
		<path style="clip-path:url(#SVGID_00000088099831356924014030000001089446385459559048_);fill:#FFFFFF;" d="M78.9,122.7
			c-1.6-2.1-0.4-4.5,1.2-2.4C81.6,122.4,80.4,124.8,78.9,122.7"/>
	</g>
	<g>
		<defs>
			<path id="SVGID_00000015353166230828777320000005912434486005297811_" d="M60.8,3.3c-21.4,3-40.2,7.2-45.6,33.5
				C7.9,71.9,31.8,93.1,43,100.2c15.5,9.8,24.1,20.9,25.8,27.2l14,7l12.7-12c0,0-1.2-14.2,7.9-29.7c6.1-10.3,29.7-35.5,9-67.1
				C103.1,11.4,87,2.7,68.8,2.7C66.2,2.7,63.5,2.9,60.8,3.3"/>
		</defs>
		<clipPath id="SVGID_00000008146546132376392290000001882916721715697299_">
			<use xlink:href="#SVGID_00000015353166230828777320000005912434486005297811_"  style="overflow:visible;"/>
		</clipPath>
		<path style="clip-path:url(#SVGID_00000008146546132376392290000001882916721715697299_);fill:#FFFFFF;" d="M76.7,120
			c1.6,2.2,0.4,4.6-1.2,2.4C73.9,120.2,75.2,117.8,76.7,120"/>
	</g>
	<g>
		<defs>
			<path id="SVGID_00000086679409310680364510000005816046136634945708_" d="M60.8,3.3c-21.4,3-40.2,7.2-45.6,33.5
				C7.9,71.9,31.8,93.1,43,100.2c15.5,9.8,24.1,20.9,25.8,27.2l14,7l12.7-12c0,0-1.2-14.2,7.9-29.7c6.1-10.3,29.7-35.5,9-67.1
				C103.1,11.4,87,2.7,68.8,2.7C66.2,2.7,63.5,2.9,60.8,3.3"/>
		</defs>
		<clipPath id="SVGID_00000090260139953217910780000003686238259013431743_">
			<use xlink:href="#SVGID_00000086679409310680364510000005816046136634945708_"  style="overflow:visible;"/>
		</clipPath>
		<path style="clip-path:url(#SVGID_00000090260139953217910780000003686238259013431743_);fill:#FFFFFF;" d="M91.6,128.2
			c1.7,1.5,1,4.2-0.8,2.6C89,129.2,89.8,126.6,91.6,128.2"/>
	</g>
	<g>
		<defs>
			<path id="SVGID_00000067931375171154930090000017102901582731721356_" d="M60.8,3.3c-21.4,3-40.2,7.2-45.6,33.5
				C7.9,71.9,31.8,93.1,43,100.2c15.5,9.8,24.1,20.9,25.8,27.2l14,7l12.7-12c0,0-1.2-14.2,7.9-29.7c6.1-10.3,29.7-35.5,9-67.1
				C103.1,11.4,87,2.7,68.8,2.7C66.2,2.7,63.5,2.9,60.8,3.3"/>
		</defs>
		<clipPath id="SVGID_00000113345811208068286160000017671543127587039380_">
			<use xlink:href="#SVGID_00000067931375171154930090000017102901582731721356_"  style="overflow:visible;"/>
		</clipPath>
		<path style="clip-path:url(#SVGID_00000113345811208068286160000017671543127587039380_);fill:#FFFFFF;" d="M92,123.5
			c1.4,1.4,0.6,3.7-0.9,2.2C89.8,124.2,90.6,122.1,92,123.5"/>
	</g>
	<g>
		<defs>
			<path id="SVGID_00000157302521864467417130000006127436849681505970_" d="M60.8,3.3c-21.4,3-40.2,7.2-45.6,33.5
				C7.9,71.9,31.8,93.1,43,100.2c15.5,9.8,24.1,20.9,25.8,27.2l14,7l12.7-12c0,0-1.2-14.2,7.9-29.7c6.1-10.3,29.7-35.5,9-67.1
				C103.1,11.4,87,2.7,68.8,2.7C66.2,2.7,63.5,2.9,60.8,3.3"/>
		</defs>
		<clipPath id="SVGID_00000076576414731359901530000017854060746334070687_">
			<use xlink:href="#SVGID_00000157302521864467417130000006127436849681505970_"  style="overflow:visible;"/>
		</clipPath>
		<path style="clip-path:url(#SVGID_00000076576414731359901530000017854060746334070687_);fill:#FFFFFF;" d="M69.6,121.1
			c-1.6-2.2-0.4-4.6,1.2-2.3C72.4,121,71.2,123.4,69.6,121.1"/>
	</g>
	<g>
		<defs>
			<path id="SVGID_00000070115217305873990220000010829391289330294406_" d="M60.8,3.3c-21.4,3-40.2,7.2-45.6,33.5
				C7.9,71.9,31.8,93.1,43,100.2c15.5,9.8,24.1,20.9,25.8,27.2l14,7l12.7-12c0,0-1.2-14.2,7.9-29.7c6.1-10.3,29.7-35.5,9-67.1
				C103.1,11.4,87,2.7,68.8,2.7C66.2,2.7,63.5,2.9,60.8,3.3"/>
		</defs>
		<clipPath id="SVGID_00000176035386270661632920000005376806558034453432_">
			<use xlink:href="#SVGID_00000070115217305873990220000010829391289330294406_"  style="overflow:visible;"/>
		</clipPath>
		<path style="clip-path:url(#SVGID_00000176035386270661632920000005376806558034453432_);fill:#FFFFFF;" d="M67.8,128.6
			c0.6,0.9,0.9,2,0.4,2.5c-1.1,1.1-3.7-2.5-2.6-3.6l0.1,0c-1.1-2.1,0-4,1.5-1.9C68.1,126.8,68.2,128,67.8,128.6"/>
	</g>
	<g>
		<defs>
			<path id="SVGID_00000183943493826090235900000002575234592268597949_" d="M60.8,3.3c-21.4,3-40.2,7.2-45.6,33.5
				C7.9,71.9,31.8,93.1,43,100.2c15.5,9.8,24.1,20.9,25.8,27.2l14,7l12.7-12c0,0-1.2-14.2,7.9-29.7c6.1-10.3,29.7-35.5,9-67.1
				C103.1,11.4,87,2.7,68.8,2.7C66.2,2.7,63.5,2.9,60.8,3.3"/>
		</defs>
		<clipPath id="SVGID_00000043443590088282796490000012889690276079284382_">
			<use xlink:href="#SVGID_00000183943493826090235900000002575234592268597949_"  style="overflow:visible;"/>
		</clipPath>
		<path style="clip-path:url(#SVGID_00000043443590088282796490000012889690276079284382_);fill:#A85218;" d="M65.3,116.6
			c1.4,1.1,2.8,2.2,2.8,2.2s-0.4-1.9-3.3-5.3c-1.6-1.8-5-4.5-6-6.4c-1.7-3.3,3-1.2,6.7,1.5c2.6,1.8,6.3,5.6,6.3,5.6s-0.8-3-3.2-6.8
			c-2.3-3.5-4.1-5.7-4.6-7.4c-1.1-3.6,6.7,0.5,10.8,6.3c2.6,3.7,4.8,7.1,4.8,7.1s0.1-2.4-0.6-4.9c-0.7-2.5-2.3-4.9-1.2-6
			c1.2-1.3,4.7,2.7,7,6.5c2.3,3.7,4.2,7.7,4.2,7.7s0.9-0.9,0.3-4.8c-0.3-1.7-1.3-4.7-0.2-5.9s4.5,4.1,4.6,12.5
			c0.2-0.5,1.5-6.1,1.7-6.4c1.6-3.5,1.7-3.7,2.7-4.3c1.1-0.6-1.8,15.7-1.8,15.7l1.3,9.3l-25.8,6.9L67.4,127c0,0-1.6-4.4-6.2-10.6
			C57.8,112.1,62,114,65.3,116.6"/>
	</g>
	<g>
		<defs>
			<path id="SVGID_00000083067178030666636070000001458312508614185392_" d="M60.8,3.3c-21.4,3-40.2,7.2-45.6,33.5
				C7.9,71.9,31.8,93.1,43,100.2c15.5,9.8,24.1,20.9,25.8,27.2l14,7l12.7-12c0,0-1.2-14.2,7.9-29.7c6.1-10.3,29.7-35.5,9-67.1
				C103.1,11.4,87,2.7,68.8,2.7C66.2,2.7,63.5,2.9,60.8,3.3"/>
		</defs>
		<clipPath id="SVGID_00000165955007248611525170000015764242979061568174_">
			<use xlink:href="#SVGID_00000083067178030666636070000001458312508614185392_"  style="overflow:visible;"/>
		</clipPath>
		<path style="clip-path:url(#SVGID_00000165955007248611525170000015764242979061568174_);fill:#FFFFFF;" d="M75.8,136.5
			c0.1-2.2-0.5-4.9,1.3-5.1c2-0.3,3.4,3.8,3.8,8.2c0.3,3.2-0.4,4.8-1.3,10.5c2.3-2.1,4.7-5.3,5.3-10.8c0.5-4.1-0.6-7.1,1.1-7.4
			c2.4-0.4,3.7,5,4.4,7.9c1.3,5.7-0.1,9.1,0.4,12.6c4.7-6.7,5.3-12,4.8-17.7c-0.5-5.9-3.9-9.3-1.3-10.6c1.4-0.7,3.8,1.6,5.4,4.7
			c1.5,3,1.5,6,2.5,9.1c1.8-3.3,2.8-6.9,1.1-12.4c-1.5-5.2-5.7-8-3.9-10.2c1-1.2,3.6,0.6,5.3,2.4c1.9,2.1,3.7,5,5.6,9.9
			c2.7-12.8-8.8-19.5-6.8-21.8c0.9-1.1,2.3-0.3,5.2,3c3.9,4.4,5.4,6.9,6.8,10.1c3.1-12.2-46-62.9-64.4-60.1c-6.5,1-6,45.6-6,45.6
			L66,124.7c0,0,5.3,13.1,6.1,23.1C74.5,144.6,75.4,142.3,75.8,136.5"/>
	</g>
</g>
<path class="st4" d="M122.7,11.1c2.8,4.5,2.8,11.1-4.1,13.8c-5.5,2.2-11.4,2-14.2-2.5c-2.8-4.5-1.1-8.1,4.1-13.8
	C112.5,4.2,119.9,6.6,122.7,11.1"/>
<path class="st5" d="M109.8,21.4c-2.2-1-2.6-2.9-0.8-5.6c1.5-2.3,4-3.8,6.1-2.6c3.2,1.9,3.3,4.9,1.4,6.8
	C113.9,22.5,111.9,22.4,109.8,21.4"/>
<path class="st60" d="M78.7,28.1c-5.2,4.1-6.5,12.4-1.6,18.4c3.6,4.5,13.4,6.6,18-1.6c3.7-6.7,1.8-12.2-2.6-16.4
	C88.2,24.5,82.8,24.8,78.7,28.1"/>
<path class="st61" d="M87.6,40.3c-0.9,0.7-2.2,0.5-2.8-0.3s-0.6-2.1,0.3-2.8c0.9-0.7,2.1-0.5,2.8,0.3C88.6,38.4,88.4,39.7,87.6,40.3
	"/>
<path class="st60" d="M22.9,34.1c-4.7,3.8-5.9,11.3-1.5,16.8c3.3,4.1,12.4,4.8,16.4-1.5c3.8-5.8,1.6-11.1-2.4-14.9
	C31.6,30.8,26.7,31.1,22.9,34.1"/>
<path class="st61" d="M31.5,45.3c-0.8,0.7-2,0.5-2.6-0.3s-0.5-2,0.3-2.6c0.8-0.6,2-0.5,2.6,0.3C32.4,43.5,32.3,44.7,31.5,45.3"/>
<path class="st62" d="M43.7,52.5c5.2-3.2,19.5-5,24.1-1.2c4.7,3.8,0,14-2.7,17.5c-5,6.5-9.7,6.9-16,2.2
	C38.1,62.9,38.6,55.5,43.7,52.5"/>
<line class="st63" x1="24.1" y1="60" x2="11.2" y2="59.4"/>
<line class="st63" x1="25.5" y1="66.8" x2="10.8" y2="70.5"/>
<line class="st63" x1="27.9" y1="72" x2="17.1" y2="80.6"/>
<line class="st63" x1="89" y1="58.1" x2="101.7" y2="55.7"/>
<line class="st63" x1="88.7" y1="65.1" x2="103.7" y2="66.6"/>
<line class="st63" x1="87.1" y1="70.6" x2="99.1" y2="77.5"/>
<path class="st64" d="M68.6,126.6c-1.3-4.5-9.6-15.9-23.5-25.1"/>
<path class="st64" d="M102.2,94.8c-7.2,13.2-6.8,25.4-6.7,27.3"/>
<path class="st5" d="M108.6,193.3c0,0,9.2,16.1,30.9,24.1c17.9,6.6,36.1,8.6,36.1,8.6s-13.6,5.7-36.8,0.8
	c-22.3-4.7-37.2-18.4-37.2-18.4L108.6,193.3z"/>
<path class="st4" d="M83.3,136.6l-8.2-12c0,0-3.2,40.6-3.2,49.9s-1.9,29.8,2.2,32.8c5.8,4.1,29.1,6.8,37.4,1.9
	c7.1-4.2,6.9-16.3-1.3-38.6c-8.2-22.3-14.6-46.9-14.6-46.9L83.3,136.6z"/>
<path class="st62" d="M65.6,225.1c0,0-4.2,0.6-4,0.6c0.2,0.1,5.1,1.4,5.1,1.4L65.6,225.1z"/>
<path class="st62" d="M67.2,227.7c0,0-4.7,2.5-4.4,2.6c0.3,0.1,5.9-0.4,5.9-0.4L67.2,227.7z"/>
<path class="st62" d="M69.6,231.8c0,0-3,3.4-2.7,3.5c0.3,0.1,4.7-1.6,4.7-1.6L69.6,231.8z"/>
<path class="st62" d="M112.7,229.4c0,0-3.1,2.9-2.8,2.8c0.2-0.1,4.9-1.9,4.9-1.9L112.7,229.4z"/>
<path class="st62" d="M115.5,230.6c0,0-2.3,4.8-2.1,4.7c0.3-0.1,4.6-3.8,4.6-3.8L115.5,230.6z"/>
<path class="st62" d="M119.8,232.4c0,0-0.4,4.5-0.2,4.4c0.3-0.1,2.8-4,2.8-4L119.8,232.4z"/>
<path class="st61" d="M137.3,178.3c0,0,3.7,1.8,3.4,1.8s-5.1-0.3-5.1-0.3L137.3,178.3z"/>
<path class="st61" d="M134.2,180.9c0,0,3.5,3.7,3.3,3.7c-0.3,0-5.3-2.1-5.3-2.1L134.2,180.9z"/>
<path class="st61" d="M130.6,183.7c0,0,1.9,3.9,1.6,3.9s-3.9-2.6-3.9-2.6L130.6,183.7z"/>
<path class="st61" d="M31.9,142.5c0,0-2.7-3.1-2.7-2.9c0,0.2,1.4,4.7,1.4,4.7L31.9,142.5z"/>
<path class="st61" d="M30,146.2c0,0-4.4-2.7-4.3-2.4c0,0.3,3,4.6,3,4.6L30,146.2z"/>
<path class="st61" d="M27.4,150.2c0,0-4.1-1.4-4.1-1.1c0,0.3,3.5,3.3,3.5,3.3L27.4,150.2z"/>
<path class="st4" d="M56.6,159.1c0,0-10.1-5.7-14.8-8.1c-4.7-2.4-5-2.6-5.8-3.5c-0.8-0.9-2.5-4-3.8-5c-1.3-1-6.6,10.1-5.7,10.1
	c0.9,0.1,5.5,0.6,7.3,1.4c1.8,0.8,14.6,9.8,18.5,9.4C54.9,163.3,56.6,159.1,56.6,159.1"/>
<path class="st4" d="M94.7,131.2c0,0,29.2,34.8,32.5,38.9c3.2,4.2,3.5,4.5,4.6,5c1.1,0.6,4.4,1.7,5.6,2.7c1.2,1.1-8.8,8-9.1,7.2
	c-0.2-0.8-1.4-4.9-2.6-6.5c-1.1-1.6-23.4-29.9-23.4-29.9L94.7,131.2z"/>
<path class="st4" d="M73.9,205.7v19.9c0,0-9.6-2.6-8.7-0.5c0.9,2.1,5.5,8.7,5.5,8.7s10,0.1,9.5-3.5c-0.4-2.9-0.1-17.5,0-22.7
	C80.3,206.4,73.9,205.7,73.9,205.7"/>
<path class="st4" d="M108,208.8c0,0,4.6,8.3,6.3,10.9c2.6,3.9,5.4,5.2,5.4,5.2s-9.3,3.6-7.3,4.7c2,1.1,9.8,3.8,9.8,3.8
	s5.8-7.8,3.3-10.4c-1.1-1.2-3.4-2.3-6.4-6.5c-2.5-3.4-3.8-7.7-5.2-9.6C113.2,205.9,108,208.8,108,208.8"/>
<pattern  id="SVGID_00000128443994324409879960000014643139785250713018_" xlink:href="#SVGID_0000000162772748444367610" patternTransform="matrix(-0.459 3.690000e-02 -3.690000e-02 -0.459 -28471.5879 -7267.6914)">
</pattern>
<path style="fill:url(#SVGID_00000128443994324409879960000014643139785250713018_);" d="M51.1,155.5c0.6,3,1.6,7.1,2.1,9
	c9.7-3.3,16.2-10.8,16.2-10.8c-0.6,6.9,0.3,17.3,0.2,28.6c0,3.8,0.2,11,0.2,11s7.9,0.3,22.5-1.4c16.8-2.1,26-5.7,26-5.7
	s-2.3-8.1-5.7-15.3c-3.6-7.6-7.3-15.6-7.3-15.6l10.2,12l6.6-5.2c0,0-12.4-16.7-18.3-22.4c-5.9-5.7-6.8-10.2-7-12.7
	c-0.2-2.6,0.3-5.3,0.3-5.3l-15.8,1.3l-0.6,8.7l-3.1-8.4L67,124c0,0,2.2,6.1,2.3,7.9c0.4,4.9,0.8,6.5-4.2,12
	C58.6,151.2,56.3,152.9,51.1,155.5"/>
<g>
	<g>
		<defs>
			<path id="SVGID_00000012456253405652971020000003339660718212486588_" d="M81.2,122.9l-0.6,8.7l-3.1-8.4L67,124
				c0,0,2.2,6.1,2.3,7.9c0.4,4.9,0.8,6.5-4.2,12c-6.5,7.2-8.9,8.9-14.1,11.5c0.6,3,1.6,7.1,2.1,9c9.7-3.3,16.2-10.8,16.2-10.8
				c-0.6,6.9,0.3,17.3,0.2,28.6c0,3.8,0.2,11,0.2,11s7.9,0.3,22.5-1.4c16.8-2,26-5.7,26-5.7s-2.3-8.1-5.7-15.3
				c-3.6-7.6-7.3-15.6-7.3-15.6l10.2,12l6.6-5.2c0,0-12.4-16.7-18.3-22.4c-5.9-5.7-6.8-10.2-7-12.7s0.3-5.3,0.3-5.3L81.2,122.9z"/>
		</defs>
		<clipPath id="SVGID_00000062177405659386454870000005316537707210276750_">
			<use xlink:href="#SVGID_00000012456253405652971020000003339660718212486588_"  style="overflow:visible;"/>
		</clipPath>
		<path style="clip-path:url(#SVGID_00000062177405659386454870000005316537707210276750_);fill:#0D181C;" d="M83.1,120.2
			c0,0-0.5,7.4-1.1,11.5c-0.2,1,3.1,28.6,3.1,28.6l-2.3,0.2c0,0-3.1-27.4-3.4-28.4c-0.3-0.9-4.4-11.1-4.4-11.1L83.1,120.2z"/>
	</g>
</g>
<path class="st67" d="M52.3,84.2c0,0,0.8,7.8,7.6,7.5c6.7-0.3,7.2-8.6,7.2-8.6"/>
</svg>
