<?xml version="1.0" encoding="UTF-8" standalone="no"?>
<!-- Generator: Adobe Illustrator 15.1.0, SVG Export Plug-In . SVG Version: 6.00 Build 0)  -->

<svg
   version="1.1"
   id="Capa_1"
   x="0px"
   y="0px"
   width="1024"
   height="600"
   viewBox="-123.305 221.445 1024 600"
   enable-background="new -123.305 221.445 841.891 482"
   xml:space="preserve"
   sodipodi:docname="madriguera.svg"
   inkscape:version="1.2.1 (9c6d41e410, 2022-07-14)"
   xmlns:inkscape="http://www.inkscape.org/namespaces/inkscape"
   xmlns:sodipodi="http://sodipodi.sourceforge.net/DTD/sodipodi-0.dtd"
   xmlns:xlink="http://www.w3.org/1999/xlink"
   xmlns="http://www.w3.org/2000/svg"
   xmlns:svg="http://www.w3.org/2000/svg"><defs
   id="defs5834" /><sodipodi:namedview
   id="namedview5832"
   pagecolor="#ffffff"
   bordercolor="#000000"
   borderopacity="0.25"
   inkscape:showpageshadow="2"
   inkscape:pageopacity="0.0"
   inkscape:pagecheckerboard="0"
   inkscape:deskcolor="#d1d1d1"
   showgrid="false"
   inkscape:zoom="0.71862035"
   inkscape:cx="421.64127"
   inkscape:cy="243.52219"
   inkscape:window-width="3840"
   inkscape:window-height="2066"
   inkscape:window-x="-11"
   inkscape:window-y="-11"
   inkscape:window-maximized="1"
   inkscape:current-layer="Capa_1" />
<g
   id="g8"
   transform="matrix(1.304547,0,0,1.3647627,-71.691525,98.943766)">
	<path
   fill="#45b9a7"
   d="m 209.718,129.177 c 12.965,-7.859 28.108,-24.477 185.946,-7.736 79.166,8.396 101.234,32.698 119.363,49.941 10.646,10.126 22.125,23.145 19.598,39.409 -3.857,24.835 -25.914,40.667 -45.727,51.243 -10.852,5.792 -22.26,10.129 -33.566,14.794 -5.326,2.198 -12.396,4.302 -17.063,8.165 -1.678,1.389 -1.055,2.871 0.506,4.143 6.15,5.009 14.832,8.222 21.963,10.859 l 0.396,0.146 c 47.756,17.678 98.348,24.422 147.098,38.227 21.295,6.03 42.314,13.604 62.115,23.905 11.883,6.182 28.541,15.073 34.354,28.875 10.762,25.566 -15.76,55.517 -33.678,68.049 -21.797,15.245 -47.717,21.753 -72.928,27.279 -30.742,6.737 -62.039,11.294 -93.205,15.207 -66.773,8.386 -127.433,-27.403 -193.731,-15.207 -47.52,8.741 -10.858,4.697 -59.511,0 -38.257,-10.355 -102.165,9.036 -108.362,0 -10.825,-15.784 -26.354,6.96 -34.69,-10.355 -8.302,-17.243 -5.364,17.804 -12.566,0 -5.62,-13.898 -16.318,15.309 -17,0 6.684,-14.506 -82.688,-84.973 27.595,-164.025 16.84,-8.88 34.29,-15.639 48.318,-29.468 11.182,-11.022 21.692,-28.046 17.966,-44.853 -4.385,-19.771 -24.475,-30.024 -29.623,-49.764 -6.204,-23.792 22.369,-33.941 38.125,-41.834 10.648,-5.335 19.105,-10.228 28.307,-17 z"
   id="path2"
   style="fill:#e7dac6;fill-opacity:1" />
	<path
   fill="#1a8171"
   fill-opacity="0.7"
   d="m 614.818,471.882 c 25.191,29.204 -31.973,45.984 -68.684,39.78 -36.715,-6.204 -316.667,-1.872 -401.912,-1.57 -85.247,0.301 -18.87,-14.082 -47.387,-13.942 -28.517,0.142 -26.55,-24.628 -5.843,-31.248 20.706,-6.62 256.643,-17.116 272.149,-16.033 15.506,1.083 226.486,-6.193 251.677,23.013 z"
   id="path4" />
	<path
   fill="#2bb572"
   d="m 630.543,482.03 c 26.959,27.435 -8.967,32.511 -88.299,40.691 -79.332,8.18 -326.632,-7 -418.38,-7.109 -91.747,-0.111 -20.234,-13.261 -50.926,-13.261 -30.692,0 -28.444,-23.16 -6.124,-29.258 22.32,-6.098 276.303,-14.831 292.984,-13.748 16.682,1.086 243.788,-4.75 270.745,22.685 z"
   id="path6" />
</g>
<line
   fill="none"
   stroke="#2fac66"
   stroke-linecap="round"
   x1="741.17517"
   y1="252.40775"
   x2="743.93445"
   y2="237.97517"
   id="line5219"
   style="stroke-width:1.21023" />
<line
   fill="none"
   stroke="#2fac66"
   stroke-linecap="round"
   x1="736.82941"
   y1="253.73059"
   x2="737.09198"
   y2="237.2103"
   id="line5221"
   style="stroke-width:1.21023" />
<line
   fill="none"
   stroke="#2fac66"
   stroke-linecap="round"
   x1="730.21204"
   y1="255.00015"
   x2="731.70178"
   y2="237.28412"
   id="line5223"
   style="stroke-width:1.21023" />
<line
   fill="none"
   stroke="#2fac66"
   stroke-linecap="round"
   x1="725.41846"
   y1="238.55249"
   x2="726.66742"
   y2="251.82922"
   id="line5225"
   style="stroke-width:1.21023" />
<line
   fill="none"
   stroke="#2fac66"
   stroke-linecap="round"
   x1="720.98315"
   y1="237.76944"
   x2="719.77179"
   y2="251.95995"
   id="line5227"
   style="stroke-width:1.21023" />
<line
   fill="none"
   stroke="#2fac66"
   stroke-linecap="round"
   x1="712.16449"
   y1="237.91953"
   x2="714.92249"
   y2="252.35086"
   id="line5229"
   style="stroke-width:1.21023" />
<line
   fill="none"
   stroke="#2fac66"
   stroke-linecap="round"
   x1="707.81866"
   y1="238.46049"
   x2="708.0788"
   y2="255.00015"
   id="line5231"
   style="stroke-width:1.21023" />
<line
   fill="none"
   stroke="#2fac66"
   stroke-linecap="round"
   x1="701.20129"
   y1="237.19214"
   x2="702.68982"
   y2="254.92511"
   id="line5233"
   style="stroke-width:1.21023" />
<line
   fill="none"
   stroke="#2fac66"
   stroke-linecap="round"
   x1="696.40771"
   y1="251.77354"
   x2="697.65546"
   y2="238.51497"
   id="line5235"
   style="stroke-width:1.21023" />
<line
   fill="none"
   stroke="#2fac66"
   stroke-linecap="round"
   x1="691.96997"
   y1="252.55661"
   x2="690.74042"
   y2="238.38547"
   id="line5237"
   style="stroke-width:1.21023" />
<line
   fill="none"
   stroke="#2fac66"
   stroke-linecap="round"
   x1="683.13196"
   y1="237.91953"
   x2="685.89117"
   y2="252.35086"
   id="line5239"
   style="stroke-width:1.21023" />
<line
   fill="none"
   stroke="#2fac66"
   stroke-linecap="round"
   x1="678.78613"
   y1="238.46049"
   x2="679.04877"
   y2="255.00015"
   id="line5241"
   style="stroke-width:1.21023" />
<line
   fill="none"
   stroke="#2fac66"
   stroke-linecap="round"
   x1="672.16882"
   y1="237.19214"
   x2="673.65973"
   y2="254.92511"
   id="line5243"
   style="stroke-width:1.21023" />
<line
   fill="none"
   stroke="#2fac66"
   stroke-linecap="round"
   x1="667.37769"
   y1="238.55249"
   x2="668.62537"
   y2="251.82922"
   id="line5245"
   style="stroke-width:1.21023" />
<line
   fill="none"
   stroke="#2fac66"
   stroke-linecap="round"
   x1="662.93866"
   y1="252.55661"
   x2="661.72968"
   y2="238.38547"
   id="line5247"
   style="stroke-width:1.21023" />
<line
   fill="none"
   stroke="#2fac66"
   stroke-linecap="round"
   x1="654.12115"
   y1="252.40775"
   x2="656.88043"
   y2="237.97517"
   id="line5249"
   style="stroke-width:1.21023" />
<line
   fill="none"
   stroke="#2fac66"
   stroke-linecap="round"
   x1="649.77661"
   y1="253.73059"
   x2="650.03558"
   y2="237.2103"
   id="line5251"
   style="stroke-width:1.21023" />
<line
   fill="none"
   stroke="#2fac66"
   stroke-linecap="round"
   x1="643.15808"
   y1="255.00015"
   x2="644.64661"
   y2="237.28412"
   id="line5253"
   style="stroke-width:1.21023" />
<line
   fill="none"
   stroke="#2fac66"
   stroke-linecap="round"
   x1="638.36444"
   y1="251.77354"
   x2="639.59528"
   y2="238.51497"
   id="line5255"
   style="stroke-width:1.21023" />
<line
   fill="none"
   stroke="#2fac66"
   stroke-linecap="round"
   x1="633.9267"
   y1="252.55661"
   x2="632.69836"
   y2="238.38547"
   id="line5257"
   style="stroke-width:1.21023" />
<line
   fill="none"
   stroke="#2fac66"
   stroke-linecap="round"
   x1="606.44446"
   y1="252.40775"
   x2="603.68274"
   y2="237.97517"
   id="line5259"
   style="stroke-width:1.21023" />
<line
   fill="none"
   stroke="#2fac66"
   stroke-linecap="round"
   x1="610.77087"
   y1="253.73059"
   x2="610.52521"
   y2="237.2103"
   id="line5261"
   style="stroke-width:1.21023" />
<line
   fill="none"
   stroke="#2fac66"
   stroke-linecap="round"
   x1="617.40759"
   y1="255.00015"
   x2="615.91418"
   y2="237.28412"
   id="line5263"
   style="stroke-width:1.21023" />
<line
   fill="none"
   stroke="#2fac66"
   stroke-linecap="round"
   x1="622.18176"
   y1="251.77354"
   x2="620.94861"
   y2="238.51497"
   id="line5265"
   style="stroke-width:1.21023" />
<line
   fill="none"
   stroke="#2fac66"
   stroke-linecap="round"
   x1="626.63654"
   y1="252.55661"
   x2="627.8479"
   y2="238.38547"
   id="line5267"
   style="stroke-width:1.21023" />
<line
   fill="none"
   stroke="#2fac66"
   stroke-linecap="round"
   x1="597.23486"
   y1="252.40775"
   x2="599.99408"
   y2="237.97517"
   id="line5269"
   style="stroke-width:1.21023" />
<line
   fill="none"
   stroke="#2fac66"
   stroke-linecap="round"
   x1="592.90723"
   y1="253.73059"
   x2="593.15167"
   y2="237.2103"
   id="line5271"
   style="stroke-width:1.21023" />
<line
   fill="none"
   stroke="#2fac66"
   stroke-linecap="round"
   x1="586.27051"
   y1="255.00015"
   x2="587.76025"
   y2="237.28412"
   id="line5273"
   style="stroke-width:1.21023" />
<line
   fill="none"
   stroke="#2fac66"
   stroke-linecap="round"
   x1="581.4939"
   y1="238.55249"
   x2="582.72705"
   y2="251.82922"
   id="line5275"
   style="stroke-width:1.21023" />
<line
   fill="none"
   stroke="#2fac66"
   stroke-linecap="round"
   x1="577.03918"
   y1="237.76944"
   x2="575.82654"
   y2="251.95995"
   id="line5277"
   style="stroke-width:1.21023" />
<line
   fill="none"
   stroke="#2fac66"
   stroke-linecap="round"
   x1="568.2193"
   y1="237.91953"
   x2="570.98218"
   y2="252.35086"
   id="line5279"
   style="stroke-width:1.21023" />
<line
   fill="none"
   stroke="#2fac66"
   stroke-linecap="round"
   x1="563.87585"
   y1="238.46049"
   x2="564.13849"
   y2="255.00015"
   id="line5281"
   style="stroke-width:1.21023" />
<line
   fill="none"
   stroke="#2fac66"
   stroke-linecap="round"
   x1="557.25494"
   y1="237.19214"
   x2="558.74951"
   y2="254.92511"
   id="line5283"
   style="stroke-width:1.21023" />
<line
   fill="none"
   stroke="#2fac66"
   stroke-linecap="round"
   x1="552.46497"
   y1="251.77354"
   x2="553.71509"
   y2="238.51497"
   id="line5285"
   style="stroke-width:1.21023" />
<line
   fill="none"
   stroke="#2fac66"
   stroke-linecap="round"
   x1="548.02722"
   y1="252.55661"
   x2="546.79645"
   y2="238.38547"
   id="line5287"
   style="stroke-width:1.21023" />
<line
   fill="none"
   stroke="#2fac66"
   stroke-linecap="round"
   x1="539.19159"
   y1="237.91953"
   x2="541.95081"
   y2="252.35086"
   id="line5289"
   style="stroke-width:1.21023" />
<line
   fill="none"
   stroke="#2fac66"
   stroke-linecap="round"
   x1="534.84583"
   y1="238.46049"
   x2="535.1084"
   y2="255.00015"
   id="line5291"
   style="stroke-width:1.21023" />
<line
   fill="none"
   stroke="#2fac66"
   stroke-linecap="round"
   x1="528.22485"
   y1="237.19214"
   x2="529.71942"
   y2="254.92511"
   id="line5293"
   style="stroke-width:1.21023" />
<line
   fill="none"
   stroke="#2fac66"
   stroke-linecap="round"
   x1="523.43488"
   y1="238.55249"
   x2="524.68384"
   y2="251.82922"
   id="line5295"
   style="stroke-width:1.21023" />
<line
   fill="none"
   stroke="#2fac66"
   stroke-linecap="round"
   x1="518.99591"
   y1="252.55661"
   x2="517.78448"
   y2="238.38547"
   id="line5297"
   style="stroke-width:1.21023" />
<line
   fill="none"
   stroke="#2fac66"
   stroke-linecap="round"
   x1="510.17603"
   y1="252.40775"
   x2="512.93402"
   y2="237.97517"
   id="line5299"
   style="stroke-width:1.21023" />
<line
   fill="none"
   stroke="#2fac66"
   stroke-linecap="round"
   x1="505.83383"
   y1="253.73059"
   x2="506.09161"
   y2="237.2103"
   id="line5301"
   style="stroke-width:1.21023" />
<line
   fill="none"
   stroke="#2fac66"
   stroke-linecap="round"
   x1="499.21289"
   y1="255.00015"
   x2="500.70746"
   y2="237.28412"
   id="line5303"
   style="stroke-width:1.21023" />
<line
   fill="none"
   stroke="#2fac66"
   stroke-linecap="round"
   x1="494.4205"
   y1="251.77354"
   x2="495.67303"
   y2="238.51497"
   id="line5305"
   style="stroke-width:1.21023" />
<line
   fill="none"
   stroke="#2fac66"
   stroke-linecap="round"
   x1="489.98395"
   y1="252.55661"
   x2="488.75317"
   y2="238.38547"
   id="line5307"
   style="stroke-width:1.21023" />
<line
   fill="none"
   stroke="#2fac66"
   stroke-linecap="round"
   x1="462.50165"
   y1="252.40775"
   x2="459.74121"
   y2="237.97517"
   id="line5309"
   style="stroke-width:1.21023" />
<line
   fill="none"
   stroke="#2fac66"
   stroke-linecap="round"
   x1="466.8269"
   y1="253.73059"
   x2="466.58484"
   y2="237.2103"
   id="line5311"
   style="stroke-width:1.21023" />
<line
   fill="none"
   stroke="#2fac66"
   stroke-linecap="round"
   x1="473.46359"
   y1="255.00015"
   x2="471.97385"
   y2="237.28412"
   id="line5313"
   style="stroke-width:1.21023" />
<line
   fill="none"
   stroke="#2fac66"
   stroke-linecap="round"
   x1="478.2366"
   y1="251.77354"
   x2="477.00824"
   y2="238.51497"
   id="line5315"
   style="stroke-width:1.21023" />
<line
   fill="none"
   stroke="#2fac66"
   stroke-linecap="round"
   x1="482.69495"
   y1="252.55661"
   x2="483.90634"
   y2="238.38547"
   id="line5317"
   style="stroke-width:1.21023" />
<line
   fill="none"
   stroke="#2fac66"
   stroke-linecap="round"
   x1="453.28845"
   y1="252.40775"
   x2="456.04892"
   y2="237.97517"
   id="line5319"
   style="stroke-width:1.21023" />
<line
   fill="none"
   stroke="#2fac66"
   stroke-linecap="round"
   x1="448.96445"
   y1="253.73059"
   x2="449.20526"
   y2="237.2103"
   id="line5321"
   style="stroke-width:1.21023" />
<line
   fill="none"
   stroke="#2fac66"
   stroke-linecap="round"
   x1="442.32654"
   y1="255.00015"
   x2="443.81628"
   y2="237.28412"
   id="line5323"
   style="stroke-width:1.21023" />
<line
   fill="none"
   stroke="#2fac66"
   stroke-linecap="round"
   x1="437.55353"
   y1="238.55249"
   x2="438.7843"
   y2="251.82922"
   id="line5325"
   style="stroke-width:1.21023" />
<line
   fill="none"
   stroke="#2fac66"
   stroke-linecap="round"
   x1="433.09882"
   y1="237.76944"
   x2="431.88501"
   y2="251.95995"
   id="line5327"
   style="stroke-width:1.21023" />
<line
   fill="none"
   stroke="#2fac66"
   stroke-linecap="round"
   x1="424.27771"
   y1="237.91953"
   x2="427.03696"
   y2="252.35086"
   id="line5329"
   style="stroke-width:1.21023" />
<line
   fill="none"
   stroke="#2fac66"
   stroke-linecap="round"
   x1="419.93192"
   y1="238.46049"
   x2="420.19455"
   y2="255.00015"
   id="line5331"
   style="stroke-width:1.21023" />
<line
   fill="none"
   stroke="#2fac66"
   stroke-linecap="round"
   x1="413.31339"
   y1="237.19214"
   x2="414.80432"
   y2="254.92511"
   id="line5333"
   style="stroke-width:1.21023" />
<line
   fill="none"
   stroke="#2fac66"
   stroke-linecap="round"
   x1="408.52222"
   y1="251.77354"
   x2="409.76993"
   y2="238.51497"
   id="line5335"
   style="stroke-width:1.21023" />
<line
   fill="none"
   stroke="#2fac66"
   stroke-linecap="round"
   x1="404.08322"
   y1="252.55661"
   x2="402.85367"
   y2="238.38547"
   id="line5337"
   style="stroke-width:1.21023" />
<line
   fill="none"
   stroke="#2fac66"
   stroke-linecap="round"
   x1="395.2464"
   y1="237.91953"
   x2="398.00684"
   y2="252.35086"
   id="line5339"
   style="stroke-width:1.21023" />
<line
   fill="none"
   stroke="#2fac66"
   stroke-linecap="round"
   x1="390.91998"
   y1="238.46049"
   x2="391.16321"
   y2="255.00015"
   id="line5341"
   style="stroke-width:1.21023" />
<line
   fill="none"
   stroke="#2fac66"
   stroke-linecap="round"
   x1="384.28326"
   y1="237.19214"
   x2="385.77542"
   y2="254.92511"
   id="line5343"
   style="stroke-width:1.21023" />
<line
   fill="none"
   stroke="#2fac66"
   stroke-linecap="round"
   x1="379.49091"
   y1="238.55249"
   x2="380.73981"
   y2="251.82922"
   id="line5345"
   style="stroke-width:1.21023" />
<line
   fill="none"
   stroke="#2fac66"
   stroke-linecap="round"
   x1="375.05313"
   y1="252.55661"
   x2="373.84052"
   y2="238.38547"
   id="line5347"
   style="stroke-width:1.21023" />
<line
   fill="none"
   stroke="#2fac66"
   stroke-linecap="round"
   x1="366.23444"
   y1="252.40775"
   x2="368.99368"
   y2="237.97517"
   id="line5349"
   style="stroke-width:1.21023" />
<line
   fill="none"
   stroke="#2fac66"
   stroke-linecap="round"
   x1="361.88986"
   y1="253.73059"
   x2="362.15128"
   y2="237.2103"
   id="line5351"
   style="stroke-width:1.21023" />
<line
   fill="none"
   stroke="#2fac66"
   stroke-linecap="round"
   x1="355.27133"
   y1="255.00015"
   x2="356.76227"
   y2="237.28412"
   id="line5353"
   style="stroke-width:1.21023" />
<line
   fill="none"
   stroke="#2fac66"
   stroke-linecap="round"
   x1="350.48016"
   y1="251.77354"
   x2="351.7291"
   y2="238.51497"
   id="line5355"
   style="stroke-width:1.21023" />
<line
   fill="none"
   stroke="#2fac66"
   stroke-linecap="round"
   x1="346.04117"
   y1="252.55661"
   x2="344.81161"
   y2="238.38547"
   id="line5357"
   style="stroke-width:1.21023" />
<line
   fill="none"
   stroke="#2fac66"
   stroke-linecap="round"
   x1="318.55768"
   y1="252.40775"
   x2="315.79846"
   y2="237.97517"
   id="line5359"
   style="stroke-width:1.21023" />
<line
   fill="none"
   stroke="#2fac66"
   stroke-linecap="round"
   x1="322.90228"
   y1="253.73059"
   x2="322.64087"
   y2="237.2103"
   id="line5361"
   style="stroke-width:1.21023" />
<line
   fill="none"
   stroke="#2fac66"
   stroke-linecap="round"
   x1="329.52084"
   y1="255.00015"
   x2="328.02866"
   y2="237.28412"
   id="line5363"
   style="stroke-width:1.21023" />
<line
   fill="none"
   stroke="#2fac66"
   stroke-linecap="round"
   x1="334.3132"
   y1="251.77354"
   x2="333.06308"
   y2="238.51497"
   id="line5365"
   style="stroke-width:1.21023" />
<line
   fill="none"
   stroke="#2fac66"
   stroke-linecap="round"
   x1="338.75098"
   y1="252.55661"
   x2="339.96356"
   y2="238.38547"
   id="line5367"
   style="stroke-width:1.21023" />
<line
   fill="none"
   stroke="#2fac66"
   stroke-linecap="round"
   x1="309.34692"
   y1="252.40775"
   x2="312.10736"
   y2="237.97517"
   id="line5369"
   style="stroke-width:1.21023" />
<line
   fill="none"
   stroke="#2fac66"
   stroke-linecap="round"
   x1="305.02048"
   y1="253.73059"
   x2="305.28186"
   y2="237.2103"
   id="line5371"
   style="stroke-width:1.21023" />
<line
   fill="none"
   stroke="#2fac66"
   stroke-linecap="round"
   x1="298.38379"
   y1="255.00015"
   x2="299.87473"
   y2="237.28412"
   id="line5373"
   style="stroke-width:1.21023" />
<line
   fill="none"
   stroke="#2fac66"
   stroke-linecap="round"
   x1="293.60956"
   y1="238.55249"
   x2="294.84033"
   y2="251.82922"
   id="line5375"
   style="stroke-width:1.21023" />
<line
   fill="none"
   stroke="#2fac66"
   stroke-linecap="round"
   x1="289.15485"
   y1="237.76944"
   x2="287.94223"
   y2="251.95995"
   id="line5377"
   style="stroke-width:1.21023" />
<line
   fill="none"
   stroke="#2fac66"
   stroke-linecap="round"
   x1="280.33496"
   y1="237.91953"
   x2="283.09299"
   y2="252.35086"
   id="line5379"
   style="stroke-width:1.21023" />
<line
   fill="none"
   stroke="#2fac66"
   stroke-linecap="round"
   x1="275.98917"
   y1="238.46049"
   x2="276.25177"
   y2="255.00015"
   id="line5381"
   style="stroke-width:1.21023" />
<line
   fill="none"
   stroke="#2fac66"
   stroke-linecap="round"
   x1="269.37183"
   y1="237.19214"
   x2="270.86279"
   y2="254.92511"
   id="line5383"
   style="stroke-width:1.21023" />
<line
   fill="none"
   stroke="#2fac66"
   stroke-linecap="round"
   x1="264.57947"
   y1="251.77354"
   x2="265.82837"
   y2="238.51497"
   id="line5385"
   style="stroke-width:1.21023" />
<line
   fill="none"
   stroke="#2fac66"
   stroke-linecap="round"
   x1="260.14166"
   y1="252.55661"
   x2="258.91092"
   y2="238.38547"
   id="line5387"
   style="stroke-width:1.21023" />
<line
   fill="none"
   stroke="#2fac66"
   stroke-linecap="round"
   x1="251.30365"
   y1="237.91953"
   x2="254.06288"
   y2="252.35086"
   id="line5389"
   style="stroke-width:1.21023" />
<line
   fill="none"
   stroke="#2fac66"
   stroke-linecap="round"
   x1="246.97841"
   y1="238.46049"
   x2="247.22044"
   y2="255.00015"
   id="line5391"
   style="stroke-width:1.21023" />
<line
   fill="none"
   stroke="#2fac66"
   stroke-linecap="round"
   x1="240.3405"
   y1="237.19214"
   x2="241.83147"
   y2="254.92511"
   id="line5393"
   style="stroke-width:1.21023" />
<line
   fill="none"
   stroke="#2fac66"
   stroke-linecap="round"
   x1="235.5663"
   y1="238.55249"
   x2="236.79826"
   y2="251.82922"
   id="line5395"
   style="stroke-width:1.21023" />
<line
   fill="none"
   stroke="#2fac66"
   stroke-linecap="round"
   x1="231.11037"
   y1="252.55661"
   x2="229.89775"
   y2="238.38547"
   id="line5397"
   style="stroke-width:1.21023" />
<line
   fill="none"
   stroke="#2fac66"
   stroke-linecap="round"
   x1="222.29169"
   y1="252.40775"
   x2="225.05092"
   y2="237.97517"
   id="line5399"
   style="stroke-width:1.21023" />
<line
   fill="none"
   stroke="#2fac66"
   stroke-linecap="round"
   x1="217.9471"
   y1="253.73059"
   x2="218.20728"
   y2="237.2103"
   id="line5401"
   style="stroke-width:1.21023" />
<line
   fill="none"
   stroke="#2fac66"
   stroke-linecap="round"
   x1="211.32733"
   y1="255.00015"
   x2="212.8195"
   y2="237.28412"
   id="line5403"
   style="stroke-width:1.21023" />
<line
   fill="none"
   stroke="#2fac66"
   stroke-linecap="round"
   x1="206.53618"
   y1="251.77354"
   x2="207.7851"
   y2="238.51497"
   id="line5405"
   style="stroke-width:1.21023" />
<line
   fill="none"
   stroke="#2fac66"
   stroke-linecap="round"
   x1="202.09842"
   y1="252.55661"
   x2="200.86765"
   y2="238.38547"
   id="line5407"
   style="stroke-width:1.21023" />
<line
   fill="none"
   stroke="#2fac66"
   stroke-linecap="round"
   x1="174.61372"
   y1="252.40775"
   x2="171.85448"
   y2="237.97517"
   id="line5409"
   style="stroke-width:1.21023" />
<line
   fill="none"
   stroke="#2fac66"
   stroke-linecap="round"
   x1="178.95952"
   y1="253.73059"
   x2="178.69812"
   y2="237.2103"
   id="line5411"
   style="stroke-width:1.21023" />
<line
   fill="none"
   stroke="#2fac66"
   stroke-linecap="round"
   x1="185.57806"
   y1="255.00015"
   x2="184.0871"
   y2="237.28412"
   id="line5413"
   style="stroke-width:1.21023" />
<line
   fill="none"
   stroke="#2fac66"
   stroke-linecap="round"
   x1="190.37042"
   y1="251.77354"
   x2="189.12151"
   y2="238.51497"
   id="line5415"
   style="stroke-width:1.21023" />
<line
   fill="none"
   stroke="#2fac66"
   stroke-linecap="round"
   x1="194.80821"
   y1="252.55661"
   x2="196.01961"
   y2="238.38547"
   id="line5417"
   style="stroke-width:1.21023" />
<line
   fill="none"
   stroke="#2fac66"
   stroke-linecap="round"
   x1="165.40414"
   y1="252.40775"
   x2="168.18153"
   y2="237.97517"
   id="line5419"
   style="stroke-width:1.21023" />
<line
   fill="none"
   stroke="#2fac66"
   stroke-linecap="round"
   x1="161.07771"
   y1="253.73059"
   x2="161.33911"
   y2="237.2103"
   id="line5421"
   style="stroke-width:1.21023" />
<line
   fill="none"
   stroke="#2fac66"
   stroke-linecap="round"
   x1="154.44101"
   y1="255.00015"
   x2="155.95134"
   y2="237.28412"
   id="line5423"
   style="stroke-width:1.21023" />
<line
   fill="none"
   stroke="#2fac66"
   stroke-linecap="round"
   x1="149.66801"
   y1="238.55249"
   x2="150.89757"
   y2="251.82922"
   id="line5425"
   style="stroke-width:1.21023" />
<line
   fill="none"
   stroke="#2fac66"
   stroke-linecap="round"
   x1="145.21088"
   y1="237.76944"
   x2="143.99826"
   y2="251.95995"
   id="line5427"
   style="stroke-width:1.21023" />
<line
   fill="none"
   stroke="#2fac66"
   stroke-linecap="round"
   x1="136.3922"
   y1="237.91953"
   x2="139.15143"
   y2="252.35086"
   id="line5429"
   style="stroke-width:1.21023" />
<line
   fill="none"
   stroke="#2fac66"
   stroke-linecap="round"
   x1="132.0464"
   y1="238.46049"
   x2="132.30901"
   y2="255.00015"
   id="line5431"
   style="stroke-width:1.21023" />
<line
   fill="none"
   stroke="#2fac66"
   stroke-linecap="round"
   x1="125.42785"
   y1="237.19214"
   x2="126.92002"
   y2="254.92511"
   id="line5433"
   style="stroke-width:1.21023" />
<line
   fill="none"
   stroke="#2fac66"
   stroke-linecap="round"
   x1="120.6367"
   y1="251.77354"
   x2="121.88561"
   y2="238.51497"
   id="line5435"
   style="stroke-width:1.21023" />
<line
   fill="none"
   stroke="#2fac66"
   stroke-linecap="round"
   x1="116.19892"
   y1="252.55661"
   x2="114.98631"
   y2="238.38547"
   id="line5437"
   style="stroke-width:1.21023" />
<line
   fill="none"
   stroke="#2fac66"
   stroke-linecap="round"
   x1="107.36088"
   y1="237.91953"
   x2="110.12012"
   y2="252.35086"
   id="line5439"
   style="stroke-width:1.21023" />
<line
   fill="none"
   stroke="#2fac66"
   stroke-linecap="round"
   x1="103.03445"
   y1="238.46049"
   x2="103.29584"
   y2="255.00015"
   id="line5441"
   style="stroke-width:1.21023" />
<line
   fill="none"
   stroke="#2fac66"
   stroke-linecap="round"
   x1="96.39653"
   y1="237.19214"
   x2="97.889908"
   y2="254.92511"
   id="line5443"
   style="stroke-width:1.21023" />
<line
   fill="none"
   stroke="#2fac66"
   stroke-linecap="round"
   x1="91.624741"
   y1="238.55249"
   x2="92.855507"
   y2="251.82922"
   id="line5445"
   style="stroke-width:1.21023" />
<line
   fill="none"
   stroke="#2fac66"
   stroke-linecap="round"
   x1="87.167603"
   y1="252.55661"
   x2="85.9562"
   y2="238.38547"
   id="line5447"
   style="stroke-width:1.21023" />
<line
   fill="none"
   stroke="#2fac66"
   stroke-linecap="round"
   x1="78.347717"
   y1="252.40775"
   x2="81.108162"
   y2="237.97517"
   id="line5449"
   style="stroke-width:1.21023" />
<line
   fill="none"
   stroke="#2fac66"
   stroke-linecap="round"
   x1="74.004333"
   y1="253.73059"
   x2="74.264526"
   y2="237.2103"
   id="line5451"
   style="stroke-width:1.21023" />
<line
   fill="none"
   stroke="#2fac66"
   stroke-linecap="round"
   x1="67.384575"
   y1="255.00015"
   x2="68.876747"
   y2="237.28412"
   id="line5453"
   style="stroke-width:1.21023" />
<line
   fill="none"
   stroke="#2fac66"
   stroke-linecap="round"
   x1="62.592213"
   y1="251.77354"
   x2="63.842346"
   y2="238.51497"
   id="line5455"
   style="stroke-width:1.21023" />
<line
   fill="none"
   stroke="#2fac66"
   stroke-linecap="round"
   x1="58.154438"
   y1="252.55661"
   x2="56.924881"
   y2="238.38547"
   id="line5457"
   style="stroke-width:1.21023" />
<line
   fill="none"
   stroke="#2fac66"
   stroke-linecap="round"
   x1="30.672165"
   y1="252.40775"
   x2="27.912926"
   y2="237.97517"
   id="line5459"
   style="stroke-width:1.21023" />
<line
   fill="none"
   stroke="#2fac66"
   stroke-linecap="round"
   x1="35.016758"
   y1="253.73059"
   x2="34.755356"
   y2="237.2103"
   id="line5461"
   style="stroke-width:1.21023" />
<line
   fill="none"
   stroke="#2fac66"
   stroke-linecap="round"
   x1="41.635303"
   y1="255.00015"
   x2="40.144344"
   y2="237.28412"
   id="line5463"
   style="stroke-width:1.21023" />
<line
   fill="none"
   stroke="#2fac66"
   stroke-linecap="round"
   x1="46.427666"
   y1="251.77354"
   x2="45.17754"
   y2="238.51497"
   id="line5465"
   style="stroke-width:1.21023" />
<line
   fill="none"
   stroke="#2fac66"
   stroke-linecap="round"
   x1="50.864235"
   y1="252.55661"
   x2="52.076847"
   y2="238.38547"
   id="line5467"
   style="stroke-width:1.21023" />
<line
   fill="none"
   stroke="#2fac66"
   stroke-linecap="round"
   x1="21.480751"
   y1="252.40775"
   x2="24.238781"
   y2="237.97517"
   id="line5469"
   style="stroke-width:1.21023" />
<line
   fill="none"
   stroke="#2fac66"
   stroke-linecap="round"
   x1="17.134949"
   y1="253.73059"
   x2="17.396351"
   y2="237.2103"
   id="line5471"
   style="stroke-width:1.21023" />
<line
   fill="none"
   stroke="#2fac66"
   stroke-linecap="round"
   x1="10.516403"
   y1="255.00015"
   x2="12.008571"
   y2="237.28412"
   id="line5473"
   style="stroke-width:1.21023" />
<line
   fill="none"
   stroke="#2fac66"
   stroke-linecap="round"
   x1="5.7240396"
   y1="238.55249"
   x2="6.9741688"
   y2="251.82922"
   id="line5475"
   style="stroke-width:1.21023" />
<line
   fill="none"
   stroke="#2fac66"
   stroke-linecap="round"
   x1="1.2862612"
   y1="237.76944"
   x2="0.056706622"
   y2="251.95995"
   id="line5477"
   style="stroke-width:1.21023" />
<line
   fill="none"
   stroke="#2fac66"
   stroke-linecap="round"
   x1="-7.5517769"
   y1="237.91953"
   x2="-4.7913265"
   y2="252.35086"
   id="line5479"
   style="stroke-width:1.21023" />
<line
   fill="none"
   stroke="#2fac66"
   stroke-linecap="round"
   x1="-11.89516"
   y1="238.46049"
   x2="-11.633757"
   y2="255.00015"
   id="line5481"
   style="stroke-width:1.21023" />
<line
   fill="none"
   stroke="#2fac66"
   stroke-linecap="round"
   x1="-18.514914"
   y1="237.19214"
   x2="-17.023958"
   y2="254.92511"
   id="line5483"
   style="stroke-width:1.21023" />
<line
   fill="none"
   stroke="#2fac66"
   stroke-linecap="round"
   x1="-23.307278"
   y1="251.77354"
   x2="-22.055937"
   y2="238.51497"
   id="line5485"
   style="stroke-width:1.21023" />
<line
   fill="none"
   stroke="#2fac66"
   stroke-linecap="round"
   x1="-27.743845"
   y1="252.55661"
   x2="-28.956457"
   y2="238.38547"
   id="line5487"
   style="stroke-width:1.21023" />
<line
   fill="none"
   stroke="#2fac66"
   stroke-linecap="round"
   x1="-36.581886"
   y1="237.91953"
   x2="-33.80328"
   y2="252.35086"
   id="line5489"
   style="stroke-width:1.21023" />
<line
   fill="none"
   stroke="#2fac66"
   stroke-linecap="round"
   x1="-40.908325"
   y1="238.46049"
   x2="-40.646919"
   y2="255.00015"
   id="line5491"
   style="stroke-width:1.21023" />
<line
   fill="none"
   stroke="#2fac66"
   stroke-linecap="round"
   x1="-47.54623"
   y1="237.19214"
   x2="-46.034702"
   y2="254.92511"
   id="line5493"
   style="stroke-width:1.21023" />
<line
   fill="none"
   stroke="#2fac66"
   stroke-linecap="round"
   x1="-52.319229"
   y1="238.55249"
   x2="-51.088467"
   y2="251.82922"
   id="line5495"
   style="stroke-width:1.21023" />
<line
   fill="none"
   stroke="#2fac66"
   stroke-linecap="round"
   x1="-56.775162"
   y1="252.55661"
   x2="-57.986561"
   y2="238.38547"
   id="line5497"
   style="stroke-width:1.21023" />
<line
   fill="none"
   stroke="#2fac66"
   stroke-linecap="round"
   x1="-65.595047"
   y1="252.40775"
   x2="-62.834602"
   y2="237.97517"
   id="line5499"
   style="stroke-width:1.21023" />
<line
   fill="none"
   stroke="#2fac66"
   stroke-linecap="round"
   x1="-69.938423"
   y1="253.73059"
   x2="-69.678238"
   y2="237.2103"
   id="line5501"
   style="stroke-width:1.21023" />
<line
   fill="none"
   stroke="#2fac66"
   stroke-linecap="round"
   x1="-76.558182"
   y1="255.00015"
   x2="-75.066017"
   y2="237.28412"
   id="line5503"
   style="stroke-width:1.21023" />
<line
   fill="none"
   stroke="#2fac66"
   stroke-linecap="round"
   x1="-81.350548"
   y1="251.77354"
   x2="-80.100418"
   y2="238.51497"
   id="line5505"
   style="stroke-width:1.21023" />
<line
   fill="none"
   stroke="#2fac66"
   stroke-linecap="round"
   x1="-85.788322"
   y1="252.55661"
   x2="-86.999725"
   y2="238.38547"
   id="line5507"
   style="stroke-width:1.21023" />
<line
   fill="none"
   stroke="#2fac66"
   stroke-linecap="round"
   x1="-97.515099"
   y1="251.77354"
   x2="-98.765221"
   y2="238.51497"
   id="line5509"
   style="stroke-width:1.21023" />
<line
   fill="none"
   stroke="#2fac66"
   stroke-linecap="round"
   x1="-93.077316"
   y1="252.55661"
   x2="-91.865913"
   y2="238.38547"
   id="line5511"
   style="stroke-width:1.21023" />
<line
   fill="none"
   stroke="#2fac66"
   stroke-linecap="round"
   x1="874.15607"
   y1="255.00015"
   x2="875.64703"
   y2="237.28412"
   id="line5513"
   style="stroke-width:1.21023" />
<line
   fill="none"
   stroke="#2fac66"
   stroke-linecap="round"
   x1="869.36487"
   y1="238.55249"
   x2="870.61261"
   y2="251.82922"
   id="line5515"
   style="stroke-width:1.21023" />
<line
   fill="none"
   stroke="#2fac66"
   stroke-linecap="round"
   x1="864.92468"
   y1="237.76944"
   x2="863.71326"
   y2="251.95995"
   id="line5517"
   style="stroke-width:1.21023" />
<line
   fill="none"
   stroke="#2fac66"
   stroke-linecap="round"
   x1="856.1048"
   y1="237.91953"
   x2="858.86761"
   y2="252.35086"
   id="line5519"
   style="stroke-width:1.21023" />
<line
   fill="none"
   stroke="#2fac66"
   stroke-linecap="round"
   x1="851.76379"
   y1="238.46049"
   x2="852.02521"
   y2="255.00015"
   id="line5521"
   style="stroke-width:1.21023" />
<line
   fill="none"
   stroke="#2fac66"
   stroke-linecap="round"
   x1="845.14166"
   y1="237.19214"
   x2="846.63507"
   y2="254.92511"
   id="line5523"
   style="stroke-width:1.21023" />
<line
   fill="none"
   stroke="#2fac66"
   stroke-linecap="round"
   x1="840.35297"
   y1="251.77354"
   x2="841.60065"
   y2="238.51497"
   id="line5525"
   style="stroke-width:1.21023" />
<line
   fill="none"
   stroke="#2fac66"
   stroke-linecap="round"
   x1="835.91394"
   y1="252.55661"
   x2="834.68195"
   y2="238.38547"
   id="line5527"
   style="stroke-width:1.21023" />
<line
   fill="none"
   stroke="#2fac66"
   stroke-linecap="round"
   x1="827.07349"
   y1="237.91953"
   x2="829.83636"
   y2="252.35086"
   id="line5529"
   style="stroke-width:1.21023" />
<line
   fill="none"
   stroke="#2fac66"
   stroke-linecap="round"
   x1="822.73132"
   y1="238.46049"
   x2="822.99268"
   y2="255.00015"
   id="line5531"
   style="stroke-width:1.21023" />
<line
   fill="none"
   stroke="#2fac66"
   stroke-linecap="round"
   x1="816.11035"
   y1="237.19214"
   x2="817.6037"
   y2="254.92511"
   id="line5533"
   style="stroke-width:1.21023" />
<line
   fill="none"
   stroke="#2fac66"
   stroke-linecap="round"
   x1="811.32166"
   y1="238.55249"
   x2="812.56934"
   y2="251.82922"
   id="line5535"
   style="stroke-width:1.21023" />
<line
   fill="none"
   stroke="#2fac66"
   stroke-linecap="round"
   x1="806.88141"
   y1="252.55661"
   x2="805.67004"
   y2="238.38547"
   id="line5537"
   style="stroke-width:1.21023" />
<line
   fill="none"
   stroke="#2fac66"
   stroke-linecap="round"
   x1="798.04578"
   y1="252.40775"
   x2="800.82196"
   y2="237.97517"
   id="line5539"
   style="stroke-width:1.21023" />
<line
   fill="none"
   stroke="#2fac66"
   stroke-linecap="round"
   x1="793.72058"
   y1="253.73059"
   x2="793.97955"
   y2="237.2103"
   id="line5541"
   style="stroke-width:1.21023" />
<line
   fill="none"
   stroke="#2fac66"
   stroke-linecap="round"
   x1="787.0827"
   y1="255.00015"
   x2="788.59296"
   y2="237.28412"
   id="line5543"
   style="stroke-width:1.21023" />
<line
   fill="none"
   stroke="#2fac66"
   stroke-linecap="round"
   x1="782.30487"
   y1="251.77354"
   x2="783.53802"
   y2="238.51497"
   id="line5545"
   style="stroke-width:1.21023" />
<line
   fill="none"
   stroke="#2fac66"
   stroke-linecap="round"
   x1="777.85132"
   y1="252.55661"
   x2="776.63873"
   y2="238.38547"
   id="line5547"
   style="stroke-width:1.21023" />
<line
   fill="none"
   stroke="#2fac66"
   stroke-linecap="round"
   x1="750.38599"
   y1="252.40775"
   x2="747.62671"
   y2="237.97517"
   id="line5549"
   style="stroke-width:1.21023" />
<line
   fill="none"
   stroke="#2fac66"
   stroke-linecap="round"
   x1="754.7124"
   y1="253.73059"
   x2="754.45105"
   y2="237.2103"
   id="line5551"
   style="stroke-width:1.21023" />
<line
   fill="none"
   stroke="#2fac66"
   stroke-linecap="round"
   x1="761.35034"
   y1="255.00015"
   x2="759.83997"
   y2="237.28412"
   id="line5553"
   style="stroke-width:1.21023" />
<line
   fill="none"
   stroke="#2fac66"
   stroke-linecap="round"
   x1="766.12213"
   y1="251.77354"
   x2="764.8938"
   y2="238.51497"
   id="line5555"
   style="stroke-width:1.21023" />
<line
   fill="none"
   stroke="#2fac66"
   stroke-linecap="round"
   x1="770.58167"
   y1="252.55661"
   x2="771.79309"
   y2="238.38547"
   id="line5557"
   style="stroke-width:1.21023" />
<rect
   x="-118.305"
   y="250.91547"
   fill="#2fac66"
   width="1009.503"
   height="51.130585"
   id="rect5559"
   style="stroke-width:1.21023" />
<path
   fill="#f3a5c2"
   d="m 541.14847,246.90582 c 0,0 -5.01746,0.65355 -4.73548,0.74674 0.27713,0.11135 6.09695,1.69681 6.09695,1.69681 z"
   id="path5561"
   style="stroke-width:1.21023" />
<path
   fill="#a85318"
   d="m 457.39344,494.81538 c 1.02382,-57.30179 -0.85803,-105.78307 -67.45978,-126.10847 -66.60176,-20.32418 -197.90284,-17.35901 -240.5452,-6.18936 -89.294085,23.38256 -88.641791,204.3311 -17.73175,231.70515 61.30595,23.64277 200.49508,19.93206 276.5678,-8.07497 46.16402,-16.98866 48.56989,-58.38256 49.16893,-91.33235"
   id="path5563"
   style="stroke-width:1.21023" />
<path
   fill="#a85318"
   d="m 606.49889,662.4303 c -24.77991,0.13071 -52.0032,-6.58149 -74.02145,-22.80405 -28.71304,-21.14717 -42.68108,-54.00257 -39.28528,-92.52569 4.17516,-47.69823 -3.99122,-58.6815 -5.66734,-60.39646 -2.87299,-2.94824 -14.0818,-2.21844 -23.08321,-1.64114 -5.05498,0.33525 -10.29512,0.67171 -15.66353,0.61603 l -1.19204,-0.0363 -49.74377,-2.70254 2.86816,-53.08881 49.09268,2.66745 c 3.28083,-0.0206 7.10383,-0.24327 11.16887,-0.52284 17.75353,-1.15703 44.58109,-2.9083 64.55169,17.52723 18.77735,19.2071 25.13571,50.73724 20.62048,102.22122 -1.77172,20.17533 4.06383,34.90803 17.84671,45.06952 18.92258,13.92908 48.13906,15.38383 64.34233,8.7261 l 20.17512,49.1905 c -11.7667,4.82901 -26.40398,7.62596 -42.00942,7.69979"
   id="path5565"
   style="stroke-width:1.21023" />
<path
   fill="#a85318"
   d="m 453.02707,669.08682 c -1.60351,-57.28121 10.20192,-118.55391 79.20712,-127.91541 57.24212,-7.75666 133.18415,-3.31858 175.93784,7.42263 89.53491,22.46759 87.26217,187.30614 12.97811,203.39798 -77.28413,16.7454 -132.32612,16.81922 -198.871,7.86922 -56.77862,-7.66468 -68.31781,-57.84399 -69.25207,-90.77442"
   id="path5567"
   style="stroke-width:1.21023" />
<path
   fill="#a85318"
   d="M -41.915204,466.21047 C -56.253569,436.54416 -57.95026,390.41202 -33.691943,353.02414 -14.28287,323.0964 21.66591,305.102 63.170686,304.87931 c 47.844974,-0.24205 57.315944,-29.38795 55.171484,-45.57299 -0.20573,-1.54794 -1.3421,-6.19057 -1.80924,-10.94453 18.81366,-0.0932 68.70749,1.30467 68.70749,1.30467 0,0 -1.77051,9.86376 -2.75924,16.91242 -2.6479,18.96383 -7.62663,47.10157 -26.83118,68.24632 -18.04882,19.87759 -49.14836,28.10143 -100.816333,26.62731 C 34.622235,360.89457 20.228201,367.5874 10.924238,381.94613 -1.8662906,401.6555 -2.6686484,431.49004 6.0205365,446.70565 26.80923,483.10473 100.17959,476.01977 106.85381,478.237 l -11.130146,46.76753 c 2.388921,0.80362 -106.611943,5.35064 -137.638868,-58.79406"
   id="path5569"
   style="stroke-width:1.21023" />
<path
   d="m 503.98587,706.97818 c 0,1.32404 0.56032,5.55638 -0.50223,8.46468 -1.06497,2.91072 -6.78797,1.56731 -7.06632,6.56333 -0.11255,2.12767 -0.18516,6.04292 -0.24083,9.86376 h 8.96632 c 0.0194,-2.23659 0.0762,-4.30737 0.13191,-5.4995 0.18395,-3.65503 6.26275,-1.52979 6.41161,-6.54518 0.16942,-5.01781 -0.0569,-12.94149 -0.0569,-12.94149 z"
   id="path5571"
   style="stroke-width:1.21023" />
<path
   d="m 632.56523,705.80421 c 0,0 -0.80115,6.73035 0.2614,9.63865 1.06376,2.91072 6.80734,1.56731 7.06874,6.56333 0.11013,2.12767 0.18516,6.04292 0.24204,9.86376 h -8.96995 c -0.0194,-2.23659 -0.0569,-4.30737 -0.12707,-5.4995 -0.20694,-3.65503 -6.2688,-1.52979 -6.43339,-6.54518 -0.15127,-5.01781 0.0533,-14.11667 0.0533,-14.11667 z"
   id="path5573"
   style="stroke-width:1.21023" />
<path
   fill="#796f68"
   d="m 503.7644,600.9349 0.0351,105.05448 c 0,0.42965 -0.11376,1.26959 1.80803,1.23207 1.92178,-0.0363 124.53127,-0.4466 124.53127,-0.4466 0.56032,-0.0569 2.7786,0.27837 2.72414,-1.94007 -0.0569,-2.22086 -0.18637,-103.99428 -0.18637,-103.99428 z"
   id="path5575"
   style="stroke-width:1.21023" />
<path
   fill="#5b5654"
   d="m 592.86849,657.1898 h 28.86673 c 0.44656,0 0.78178,0.35582 0.78178,0.80241 v 37.85142 c 0,0.44901 -0.35459,0.80241 -0.78178,0.80241 h -28.86673 c -0.42841,0 -0.80115,-0.3534 -0.80115,-0.80241 v -37.85142 c 0.0194,-0.44659 0.37395,-0.80241 0.80115,-0.80241"
   id="path5577"
   style="stroke-width:1.21023" />
<path
   fill="#5b5654"
   d="m 592.86849,624.1105 h 28.86673 c 0.44656,0 0.78178,0.35461 0.78178,0.80241 v 23.17802 c 0,0.42844 -0.35459,0.80121 -0.78178,0.80121 h -28.86673 c -0.42841,0 -0.80115,-0.35461 -0.80115,-0.80121 v -23.17802 c 0.0194,-0.4478 0.37395,-0.80241 0.80115,-0.80241"
   id="path5579"
   style="stroke-width:1.21023" />
<path
   fill="#fdd600"
   d="m 641.01117,606.22865 c 2.89236,0.0569 5.18326,2.36973 5.14574,5.2042 -0.0351,2.81389 -2.42402,5.07106 -5.31154,5.01539 -2.89357,-0.0363 -5.20383,-2.36731 -5.14816,-5.20178 0.0375,-2.81631 2.42644,-5.07227 5.31396,-5.01781"
   id="path5581"
   style="stroke-width:1.21023" />
<path
   fill="#5b5654"
   d="m 511.4455,607.0698 c 0.78299,0.0545 1.52968,0.20332 1.9,0.50226 0.41026,0.6705 0.54217,2.87078 0.52401,4.96093 -0.0351,2.08894 -0.56032,4.00844 -0.97057,4.28801 -0.26261,0.2239 -0.9137,0.37277 -1.6023,0.41149 z"
   id="path5583"
   style="stroke-width:1.21023" />
<path
   fill="#5b5654"
   d="m 620.82031,605.55816 c -0.7842,0.0194 -1.54663,0.14886 -1.92058,0.42844 -0.43082,0.6717 -0.63172,2.83447 -0.67286,4.94035 -0.0375,2.09015 0.42962,4.00965 0.82172,4.30859 0.26261,0.24447 0.89433,0.41149 1.60229,0.46716 z"
   id="path5585"
   style="stroke-width:1.21023" />
<path
   fill="#5b5654"
   d="m 512.882,624.93228 c 0,0 63.54117,-0.48411 65.66748,-0.48411 2.12752,0 3.00007,0.18638 2.81612,2.64808 -0.17064,2.47986 1.06255,67.0893 1.06255,67.61214 0,0.52284 -0.16943,1.51043 -1.10006,1.54673 -0.93306,0.0375 -65.40851,0.91497 -65.40851,0.91497 0,0 -2.6479,0.8944 -2.6479,-0.35582 0,-1.22964 -1.11943,-70.8 -1.11943,-70.8 -0.0557,-0.54221 0.15006,-0.70802 0.72975,-1.08199"
   id="path5587"
   style="stroke-width:1.21023" />
<path
   d="m 525.01781,636.92249 c -1.36026,0.0182 -2.53293,1.36157 -3.03637,3.2617 h -9.58594 v 4.14036 h 9.58594 c 0.50344,1.92071 1.67611,3.26412 3.03637,3.26412 2.96376,0 4.16064,-3.9915 8.78479,-5.33369 -4.43778,-1.52858 -5.94931,-5.38937 -8.78479,-5.33249"
   id="path5589"
   style="stroke-width:1.21023" />
<path
   d="m 525.74635,676.99477 c -1.36147,0.0194 -2.53778,1.36157 -3.04122,3.26291 h -9.58231 v 4.14036 h 9.58231 c 0.50344,1.9195 1.67975,3.26291 3.04122,3.26291 2.96376,0 4.15701,-3.99271 8.78116,-5.33249 -4.43899,-1.51163 -5.94931,-5.37242 -8.78116,-5.33369"
   id="path5591"
   style="stroke-width:1.21023" />
<path
   d="m 573.75591,651.52207 h -3.11262 c -0.16579,0 -0.2977,0.1295 -0.2977,0.30015 v 21.01283 c 0,0.16702 0.13191,0.29773 0.2977,0.29773 h 3.11262 c 0.17064,0 0.29892,-0.13071 0.29892,-0.29773 v -21.01283 c 0,-0.17065 -0.12828,-0.30015 -0.29892,-0.30015"
   id="path5593"
   style="stroke-width:1.21023" />
<path
   d="m 568.05348,657.09782 c -1.08433,0 -1.95688,0.87745 -1.95688,1.95822 0,1.08078 0.87376,1.95702 1.95688,1.95702 1.0807,0 1.95688,-0.87745 1.95688,-1.95702 0,-1.08077 -0.87618,-1.95822 -1.95688,-1.95822"
   id="path5595"
   style="stroke-width:1.21023" />
<path
   d="m 568.05348,664.10895 c -1.08433,0 -1.95688,0.87624 -1.95688,1.95702 0,1.0832 0.87376,1.95702 1.95688,1.95702 1.0807,0 1.95688,-0.87503 1.95688,-1.95702 0,-1.08078 -0.87618,-1.95702 -1.95688,-1.95702"
   id="path5597"
   style="stroke-width:1.21023" />
<path
   d="m 499.75261,595.91709 135.57065,0.16702 c 0.44777,0 0.82172,0.37519 0.82172,0.82178 v 4.75639 c 0,0.4478 -0.37395,0.81936 -0.82172,0.81936 H 499.95835 c -0.44656,0 -1.3409,-0.55915 -1.3409,-1.00695 l 0.16943,-4.56759 c -0.0218,-0.4478 0.50223,-0.99001 0.96573,-0.99001"
   id="path5599"
   style="stroke-width:1.21023" />
<path
   fill="#2fac66"
   d="m 615.91419,584.09632 c 1.14,-0.53979 5.09128,-1.95823 6.86421,-5.66773 1.75115,-3.71192 1.07949,-9.21263 4.45472,-13.23923 3.39459,-4.00964 5.50154,-5.92914 5.50154,-5.92914 l -3.60032,-0.63419 1.71605,-2.91072 c 0.20573,-0.33282 -6.09574,1.36278 -8.90944,6.30434 -2.81612,4.94035 -2.74351,10.21837 -4.64472,11.84014 -1.9,1.62298 -2.7786,1.73554 -3.60032,2.1434 1.4014,2.46171 2.21828,5.16667 2.21828,7.96242 z"
   id="path5601"
   style="stroke-width:1.21023" />
<path
   fill="#ef7800"
   d="m 592.7753,552.30233 c 1.62408,-0.13071 2.66727,1.32405 2.50026,2.94703 -0.18879,1.82752 -2.07064,2.94823 -2.50026,2.94823 -0.4272,0 -2.3272,-0.97064 -2.49663,-2.94823 -0.15006,-1.62298 1.11822,-2.94703 2.49663,-2.94703"
   id="path5603"
   style="stroke-width:1.21023" />
<polygon
   fill="#2fac66"
   points="455.096,508.512 449.059,508.512 448.35,513.719 455.096,513.856 "
   id="polygon5605"
   transform="matrix(1.2101929,0,0,1.2102772,24.86687,-37.646084)" />
<path
   d="m 617.25871,667.6708 h -2.25822 c -0.10891,0 -0.2021,0.0932 -0.2021,0.20332 v 15.29186 c 0,0.11134 0.0932,0.22511 0.2021,0.22511 h 2.25822 c 0.11013,0 0.20332,-0.0944 0.20332,-0.22511 v -15.29186 c 0,-0.10892 -0.0932,-0.20332 -0.20332,-0.20332"
   id="path5607"
   style="stroke-width:1.21023" />
<path
   d="m 613.09928,671.73612 c -0.78178,0 -1.41714,0.63297 -1.41714,1.41844 0,0.78184 0.63415,1.41482 1.41714,1.41482 0.7842,0 1.41835,-0.63298 1.41835,-1.41482 0,-0.78547 -0.63415,-1.41844 -1.41835,-1.41844"
   id="path5609"
   style="stroke-width:1.21023" />
<path
   d="m 613.09928,676.82654 c -0.78178,0 -1.41714,0.63298 -1.41714,1.41603 0,0.78426 0.63415,1.41844 1.41714,1.41844 0.7842,0 1.41835,-0.63297 1.41835,-1.41844 0,-0.78305 -0.63415,-1.41603 -1.41835,-1.41603"
   id="path5611"
   style="stroke-width:1.21023" />
<path
   d="m 617.25871,629.29412 h -2.25822 c -0.10891,0 -0.2021,0.0932 -0.2021,0.20574 v 12.62441 c 0,0.11255 0.0932,0.22511 0.2021,0.22511 h 2.25822 c 0.11013,0 0.20332,-0.0932 0.20332,-0.22511 v -12.62441 c 0,-0.11134 -0.0932,-0.20574 -0.20332,-0.20574"
   id="path5613"
   style="stroke-width:1.21023" />
<path
   d="m 613.09928,634.40391 c -0.78178,0 -1.41714,0.63539 -1.41714,1.4366 0,0.78426 0.63415,1.41844 1.41714,1.41844 0.7842,0 1.41835,-0.63297 1.41835,-1.41844 0,-0.8 -0.63415,-1.4366 -1.41835,-1.4366"
   id="path5615"
   style="stroke-width:1.21023" />
<path
   fill="#6e6560"
   d="m 494.04897,734.65117 h 12.99627 v -1.54916 c 0,-0.85808 -0.69102,-1.54673 -1.54905,-1.54673 h -9.91632 c -0.85803,0 -1.54905,0.68865 -1.54905,1.54673 v 1.54916 z"
   id="path5617"
   style="stroke-width:1.21023" />
<path
   fill="#6e6560"
   d="m 642.44888,734.65117 h -12.99747 v -1.54916 c 0,-0.85808 0.6886,-1.54673 1.54783,-1.54673 h 9.91874 c 0.84109,0 1.54663,0.68865 1.54663,1.54673 v 1.54916 z"
   id="path5619"
   style="stroke-width:1.21023" />
<path
   fill="#fdd600"
   d="m 495.00019,606.22865 c 2.89236,0.0569 5.20262,2.36973 5.14574,5.2042 -0.0545,2.81389 -2.42402,5.07106 -5.31517,5.01539 -2.88994,-0.0363 -5.18326,-2.36731 -5.14453,-5.20178 0.0375,-2.81631 2.42159,-5.07227 5.31396,-5.01781"
   id="path5621"
   style="stroke-width:1.21023" />
<path
   fill="#ef7800"
   d="m 499.00834,609.58596 c 0,0 40.7593,-0.13071 62.27532,-0.18638 21.51965,-0.0569 66.75061,-0.59546 75.44222,-0.27957 1.9,0.075 1.82497,4.38241 -0.0956,4.40056 -41.50235,0.61725 -112.98845,-0.0545 -137.43314,0.63419 -2.31267,0.0569 -1.84917,-4.60753 -0.18879,-4.5688"
   id="path5623"
   style="stroke-width:1.21023" />
<path
   d="m 513.21722,607.49824 c -0.57968,-0.50227 -3.24695,-0.68986 -4.1195,-0.0375 -0.42962,0.65234 -0.8786,2.87198 -0.9149,4.96092 -0.0363,2.08773 0.35458,4.04596 0.76605,4.34369 0.57605,0.5422 3.24211,0.69107 3.8944,0.0569 -1.15694,-3.26291 -1.00688,-6.3588 0.37395,-9.32397"
   id="path5625"
   style="stroke-width:1.21023" />
<path
   d="m 619.01228,605.93093 c 0.59542,-0.48411 3.26147,-0.57731 4.1195,0.11376 0.41146,0.6705 0.78178,2.9083 0.74548,4.99603 -0.0363,2.08894 -0.48287,4.0278 -0.91491,4.30979 -0.59541,0.52163 -3.26147,0.57731 -3.89561,-0.0569 1.28523,-3.26412 1.22956,-6.36122 -0.0545,-9.3627"
   id="path5627"
   style="stroke-width:1.21023" />
<path
   fill="#2fac66"
   d="m 616.26878,595.93525 c 0,0 -19.07507,4.90525 -44.24345,0 -0.74548,-0.14887 0,-13.48128 0,-13.48128 0,-10.34787 10.57104,-18.49667 19.3522,-18.49667 h 3.02064 c 9.75173,0 21.86939,9.32277 21.86939,20.04582 v 11.93213 z"
   id="path5629"
   style="stroke-width:1.21023" />
<path
   fill="#ef7800"
   d="m 566.30112,571.28553 c -1.49338,3.59815 -2.3514,7.81355 -2.64911,12.0471 -0.14886,2.18092 -0.0569,4.47439 0.20573,6.54276 0.20452,1.531 4.66166,1.36156 4.7367,0.26142 -0.27835,-2.31042 -0.20574,-3.24475 -0.0569,-6.6771 0.14885,-3.42872 0.97057,-8.52035 3.02064,-12.47312 0.26261,-0.63297 -4.69918,-1.0251 -5.25708,0.29894"
   id="path5631"
   style="stroke-width:1.21023" />
<path
   fill="#56b470"
   d="m 587.40567,558.43844 c 3.11262,-0.56036 6.54473,-0.35461 10.08575,0.11255 2.25822,0.29773 4.51402,1.41603 4.5709,3.69135 0.0363,1.38093 0,2.59362 -0.13191,3.33915 -6.20708,-0.53978 -12.23263,-0.65355 -18.31022,0.52284 v -3.30163 c -0.0714,-2.25717 1.54784,-3.97213 3.78548,-4.36426"
   id="path5633"
   style="stroke-width:1.21023" />
<path
   d="m 250.42746,552.73198 c 0.54096,6.17363 3.00128,8.85802 6.02313,12.8483 -2.2558,1.77064 -4.6423,1.30347 -7.0288,0.40908 -2.49905,-2.96276 -3.1707,-9.15454 -3.9537,-13.18234 z"
   id="path5635"
   style="stroke-width:1.21023" />
<path
   fill="#85557c"
   d="m 251.11727,488.88623 c 0,0 -29.16202,-3.13341 -52.05765,-0.93313 -22.89685,2.19908 -19.76487,13.48128 -19.76487,13.48128 l 10.66543,15.68277 5.96746,16.93057 c 0,0 0.93184,9.10008 3.13198,10.34908 2.19892,1.25022 34.81119,-4.6995 34.81119,-4.6995 l 8.78237,-1.88441 v -19.44673 z"
   id="path5637"
   style="stroke-width:1.21023" />
<path
   fill="#b780b1"
   d="m 253.16734,552.91836 c -0.74669,-16.3339 -0.65229,-30.80397 1.56599,-46.5049 0,0 7.17886,0.18517 8.18574,-7.96241 1.02504,-8.13064 -6.30268,-10.68312 -11.85868,-9.88313 -5.5572,0.80242 -9.49033,6.00419 -9.95746,15.83043 -0.22389,4.64504 -0.44656,16.27823 -0.57848,27.24334 -2.5172,-0.0545 -8.8937,-0.12829 -14.8418,0.56036 -6.69358,0.76489 -18.98067,3.91646 -21.88876,4.68014 0.61478,11.4117 1.02624,22.11419 0.78299,23.21554 15.42149,-2.10709 40.20019,-5.63142 48.59046,-7.17937"
   id="path5639"
   style="stroke-width:1.21023" />
<path
   d="m 137.45475,557.41212 c -0.76364,6.17363 -3.33772,8.85802 -6.50721,12.8471 2.20013,1.77305 4.58663,1.30467 7.00944,0.41028 2.59223,-2.96397 3.50592,-9.15333 4.45714,-13.18355 z"
   id="path5641"
   style="stroke-width:1.21023" />
<path
   d="m 192.79445,560.06021 c 0.68981,6.9361 -1.23077,9.95816 -3.46721,14.43256 2.60918,1.99574 4.90371,1.4729 7.10384,0.48532 1.90242,-3.34037 1.3421,-10.29341 1.32395,-14.82469 z"
   id="path5643"
   style="stroke-width:1.21023" />
<path
   fill="#85557c"
   d="m 137.32405,497.98388 c -0.54096,-2.10588 -8.50282,-33.63844 -11.48595,-41.20873 -3.09446,-7.8317 -13.1088,-16.94993 -23.34462,-9.95816 -10.235808,6.99298 -8.539118,19.69242 -2.964969,25.26696 5.575359,5.57454 15.531619,-0.87866 14.972509,-1.43539 -0.55911,-0.56157 2.14325,5.38815 4.38211,14.63588 1.51032,6.28497 3.45026,15.12363 4.53096,20.15838 2.94682,-3.37425 8.27893,-5.77907 13.90996,-7.45894"
   id="path5645"
   style="stroke-width:1.21023" />
<path
   fill="#b780b1"
   d="m 183.0052,494.9473 c 0.0932,0 0.18637,0 0.27955,-0.0206 -0.0932,0.0206 -0.18637,0.0206 -0.27955,0.0206 m -2.96377,0.3897 c 0.075,-0.0181 0.16701,-0.0363 0.24204,-0.0557 -0.075,0.0194 -0.15006,0.0375 -0.24204,0.0557 m -7.36523,5.94852 v 0 l 0.0181,-0.0194 z m -63.97322,-57.13356 c 0,0 14.76678,-6.91794 28.3403,-10.47858 13.57352,-3.58 39.67859,-6.62022 43.66739,-3.91646 14.71111,13.94724 20.60232,46.71065 25.1708,66.32683 l -10.53473,2.31284 c -2.81491,-2.14462 -6.3765,-3.26291 -10.38587,-3.44929 -0.1307,0 -0.24325,-0.0206 -0.37395,-0.0206 l -0.0545,-0.24084 c 0,0 -20.13761,-1.41845 -27.01756,-0.52405 -3.33771,0.42843 -12.10193,1.39787 -20.19328,3.82205 -0.54095,-2.10588 -8.50281,-33.63844 -11.48594,-41.20873 -2.44338,-6.19057 -9.21077,-13.18355 -17.00442,-12.38113 z"
   id="path5647"
   style="stroke-width:1.21023" />
<text
   font-family="Calibri"
   font-size="25.7418px"
   id="text5649"
   x="771.78308"
   y="568.87097"
   transform="scale(0.9999652,1.0000348)"
   style="stroke-width:1.21023"> </text>
<path
   fill="#f39200"
   d="m 194.71502,543.20347 19.37277,14.67461 c 3.72861,4.7927 12.39964,-0.55794 6.24581,-3.27985 0,0 3.97064,-0.56157 5.0344,-3.41298 1.06255,-2.85263 -4.56848,-1.23086 -4.56848,-1.23086 0,0 5.96625,-3.20723 5.31396,-5.53822 -0.67045,-2.33221 -10.74046,6.13489 -10.74046,6.13489 l -14.11448,-12.75511 c 0,0 14.15199,-19.30029 14.71231,-19.42979 0.39089,-0.0944 13.46219,9.54788 16.35213,12.95844 2.90809,3.41177 5.40714,4.21418 7.40275,0.83993 1.9944,-3.37546 -1.02625,-4.97908 -1.02625,-4.97908 0,0 4.90371,0.59667 5.6867,-1.25022 0.78299,-1.84325 -3.78548,-2.94581 -3.78548,-2.94581 0,0 6.52657,-3.11283 5.27644,-7.10312 -1.25013,-3.99028 -10.90747,9.6205 -10.90747,9.6205 0,0 -7.1595,-8.5966 -14.73047,-15.97929 z"
   id="path5651"
   style="stroke-width:1.21023" />
<path
   fill="#f39200"
   d="m 177.1878,562.27865 -0.31707,-1.19334 c 0.0557,0.43086 0.15006,0.83994 0.31707,1.19334"
   id="path5653"
   style="stroke-width:1.21023" />
<path
   fill="#f39200"
   d="m 241.68261,406.57891 c -3.1695,0.2239 -20.54787,1.52979 -26.97883,0.0557 -8.25957,-1.90135 -15.64295,-4.82901 -20.45468,-3.16972 -11.52225,3.95277 -22.29902,10.10582 -22.29902,10.10582 0,0 -3.91497,-3.8971 -8.39147,-6.65653 -6.13447,-3.78453 -18.10449,-9.15575 -18.10449,-9.15575 0,0 0.72733,5.3337 2.5172,9.88434 1.78988,4.54943 7.0288,16.26007 7.0288,16.26007 0,0 0.80115,5.61327 1.32395,7.42142 1.0444,3.63689 0.83867,4.40057 0.83867,4.40057 0,0 -11.72798,9.73426 -9.75174,9.43532 3.91498,-0.59666 9.86308,-1.10014 9.86308,-1.10014 0,0 -9.09945,9.64107 -4.43778,8.03745 7.14135,-2.44355 9.26765,-0.41028 9.26765,-0.41028 0,0 -4.34459,4.62447 -4.79236,8.74546 -0.44777,4.12099 1.28644,-1.06262 4.51281,-2.51738 1.95809,-0.89318 3.823,-1.52858 3.823,-1.52858 0,0 5.23892,8.22263 2.75803,14.20866 -12.8462,31.15858 -3.50472,56.70512 -3.50472,56.70512 0,0 -12.1939,-5.61327 -19.89436,-5.48135 -9.26766,0.14886 -19.00003,42.51341 2.75803,36.86504 16.35213,-4.25291 22.24455,-19.76745 22.93436,-21.72447 l -0.93184,-3.65383 41.4491,-10.57298 c -0.0557,-0.42844 -0.1307,-0.83872 -0.20452,-1.24901 -1.93873,-11.54241 -3.7286,-40.18362 -0.27955,-58.12235 3.44905,-17.93752 35.22145,-31.06418 43.91063,-38.30043 8.68919,-7.23504 12.06321,-11.61624 11.09384,-15.38262 -0.93306,-3.75307 -18.62729,-3.47229 -24.05379,-3.09952"
   id="path5655"
   style="stroke-width:1.21023" />
<path
   fill="#f39200"
   d="m 206.23848,471.76807 c 0,0 4.40026,8.76361 8.96753,10.16148 4.56848,1.37972 8.57785,0.95128 9.9381,0.46717 1.36147,-0.46717 5.76173,-5.85653 7.47778,-3.95518 1.08071,1.21269 -0.89554,3.97212 -0.89554,3.97212 0,0 2.70357,0.14887 3.87867,1.38093 1.77172,1.86383 -3.50472,3.02085 -3.50472,3.02085 0,0 6.46969,1.21149 4.6423,4.81086 -1.09885,2.18212 -4.54911,-0.83873 -12.62231,-2.49802 -15.28958,-3.15156 -21.81494,-8.80113 -21.81494,-8.80113"
   id="path5657"
   style="stroke-width:1.21023" />
<path
   fill="#ffffff"
   d="m 210.67505,466.99473 c -3.30141,17.19199 -1.80803,27.29902 2.18197,53.68185 -5.31395,1.47533 -18.57162,4.27107 -23.56729,6.00539 -1.25013,-3.18908 -1.32395,-6.86106 -2.2195,-10.31156 -8.52096,-33.39639 4.2139,-55.84824 28.61986,-69.01121 2.14446,-1.15582 13.6667,-7.73852 16.05442,-7.83292 -8.44594,6.08043 -19.50347,19.3015 -21.06946,27.46845"
   id="path5659"
   style="stroke-width:1.21023" />
<path
   d="m 260.12353,406.14926 c 5.89243,0.16823 13.96562,0.13071 10.51536,4.90525 -4.17637,5.76092 -12.95874,11.44801 -12.95874,11.44801 0,0 -5.03319,-11.93333 -4.71733,-16.22255 -0.0182,0 5.01504,-0.18518 7.16071,-0.13071"
   id="path5661"
   style="stroke-width:1.21023" />
<path
   fill="#f39200"
   d="m 202.34045,403.78195 c 0,0 -6.02313,-6.63837 -9.19142,-10.14454 -3.1707,-3.48681 -11.87804,-11.61624 -12.25078,-10.96511 -0.37395,0.63418 -1.66038,4.53128 -0.48529,10.92759 1.19446,6.39632 3.35708,14.48823 3.35708,14.48823 z"
   id="path5663"
   style="stroke-width:1.21023" />
<path
   fill="#ffffff"
   d="m 167.34288,417.67352 c 0,0 -12.53034,-8.09313 -12.47467,-6.7122 0.075,1.37971 3.07631,12.02652 3.07631,12.02652 0,0 3.41154,-2.53553 4.69797,-3.15035 1.30822,-0.61603 4.70039,-2.16397 4.70039,-2.16397"
   id="path5665"
   style="stroke-width:1.21023" />
<path
   fill="#ffffff"
   d="m 186.71565,395.37174 c -0.83867,-0.35461 -0.95121,0.83993 -0.80115,2.92766 0.14885,2.06957 0.67166,7.68284 0.67166,7.68284 l 7.6823,-2.51738 c -0.001,0 -6.7323,-7.75666 -7.55281,-8.09312"
   id="path5667"
   style="stroke-width:1.21023" />
<path
   fill="#ffffff"
   d="m 179.09022,431.80834 c 1.10007,4.30859 6.26396,6.8066 11.31773,5.50071 3.78427,-0.96943 7.10383,-6.11553 3.44905,-11.31851 -3.35587,-4.77333 -6.78677,-5.05291 -10.58919,-3.52433 -3.63663,1.47291 -5.27886,5.05291 -4.17759,9.34213"
   id="path5669"
   style="stroke-width:1.21023" />
<path
   fill="#ffffff"
   d="m 202.54618,413.19912 c 0.80236,3.11404 4.66166,5.79965 8.09256,4.9222 2.57287,-0.65355 4.79115,-4.3449 2.23765,-8.12943 -2.34899,-3.46866 -4.69797,-3.30164 -7.27205,-2.64809 -2.57287,0.65113 -3.84115,2.74007 -3.05816,5.85532"
   id="path5671"
   style="stroke-width:1.21023" />
<path
   d="m 187.29412,431.65948 c 0.18637,0.72738 -0.2614,1.45354 -0.96936,1.64114 -0.72733,0.18517 -1.45466,-0.24327 -1.64103,-0.97065 -0.18516,-0.70922 0.26141,-1.4366 0.96937,-1.64113 0.72732,-0.16823 1.45465,0.26142 1.64102,0.97064"
   id="path5673"
   style="stroke-width:1.21023" />
<path
   d="m 208.79199,413.21607 c 0.167,0.6717 -0.24325,1.3434 -0.89555,1.51163 -0.67165,0.16823 -1.36146,-0.2239 -1.52968,-0.8956 -0.16701,-0.6705 0.2251,-1.3422 0.91491,-1.51164 0.65229,-0.16702 1.3421,0.24327 1.51032,0.89561"
   id="path5675"
   style="stroke-width:1.21023" />
<path
   fill="#00a0a4"
   d="m 208.41925,497.10885 c 0,0 -11.67231,14.80532 -19.46596,17.80802 -14.95435,5.72461 -25.5629,6.62022 -25.5629,6.62022 0,0 2.31147,16.87368 25.50724,21.50057 7.55039,1.51043 12.36091,7.25198 12.36091,7.25198 0,0 6.65606,-12.13787 8.50281,-13.9666 l -2.98433,-3.2629 8.94937,-13.94482 3.74797,2.83205 7.56976,-9.99447 z"
   id="path5677"
   style="stroke-width:1.21023" />
<path
   d="m 186.41794,515.84757 c 0,0 -3.91618,-30.15163 -8.52218,-35.18397 -6.26396,-6.86348 -12.32339,-5.78149 -12.32339,-5.78149 l 0.95,-2.4968 c 0,0 8.40963,-0.42965 15.23391,7.45773 4.82867,5.5939 8.74485,33.00547 8.74485,33.00547 z"
   id="path5679"
   style="stroke-width:1.21023" />
<path
   d="m 208.49428,500.85587 c 0,0 -1.24892,-21.77773 0.85682,-29.3117 0.96936,-3.41299 3.69229,-10.70491 3.69229,-10.70491 0,0 -4.53217,2.61057 -6.80612,10.90823 -2.94682,10.72306 -1.49217,30.37675 -1.49217,30.37675 z"
   id="path5681"
   style="stroke-width:1.21023" />
<polygon
   fill="#454444"
   points="137.497,457.299 133.399,458.269 132.891,455.789 137.066,454.896 "
   id="polygon5683"
   transform="matrix(1.2101929,0,0,1.2102772,24.86687,-37.646084)" />
<rect
   x="130.22325"
   y="-528.4491"
   transform="matrix(-0.80293452,0.59606724,-0.59601369,-0.80297427,0,0)"
   fill="#424343"
   width="4.7921576"
   height="3.0399351"
   id="rect5685"
   style="stroke-width:1.21015" />
<path
   fill="#b780b1"
   d="m 189.69877,562.55822 c 0.74669,-16.59532 -0.11133,-30.26298 -2.34898,-45.17844 0,0 -13.96563,1.80816 -15.34525,-8.13064 -1.37962,-9.94001 4.06504,-14.67582 12.95875,-14.2849 8.89371,0.39092 15.55098,5.40752 16.89187,15.99865 1.34332,10.6105 3.3002,49.47009 2.6479,49.26555 -0.63293,-0.2239 -9.91874,1.84567 -14.80429,2.32978"
   id="path5687"
   style="stroke-width:1.21023" />
<path
   fill="#a4659e"
   d="m 184.53488,494.70282 c 0,0 -20.13761,-1.41723 -27.01756,-0.52284 -6.87994,0.87745 -36.73177,4.06411 -36.5454,17.49093 0.18637,13.4256 8.65167,14.48701 8.65167,14.48701 2.72293,14.06101 3.11261,23.62704 3.00128,32.502 l 57.03639,3.87773 0.0932,-1.13645 c 0.65351,-16.07369 -0.22509,-29.44121 -2.3865,-44.00447 0,0 -13.96562,1.80815 -15.34524,-8.13064 -1.34332,-9.80809 3.91497,-14.54512 12.58479,-14.30185 z"
   id="path5689"
   style="stroke-width:1.21023" />
<path
   fill="#f39200"
   d="m 175.77066,481.40792 c 0,0 -0.59662,10.18207 3.78549,12.04589 4.38211,1.88319 5.01504,1.04326 6.43217,0.72738 1.39777,-0.31709 5.18326,-4.51312 6.65606,-3.80511 1.47402,0.71043 0.20453,3.46986 0.20453,3.46986 0,0 3.70924,-0.69106 4.75363,0.68986 1.5672,2.03206 -3.05694,2.83205 -3.56038,3.44808 -0.44899,0.541 4.66045,1.92071 2.46153,5.31675 -1.32395,2.05021 -4.77421,0.18517 -12.25078,-2.51859 -2.92746,-1.06262 -5.91059,-2.10709 -8.67104,-3.07652 -7.68109,-2.6844 -3.69109,-17.34206 -3.69109,-17.34206"
   id="path5691"
   style="stroke-width:1.21023" />
<path
   fill="#e33a13"
   d="m 665.85038,736.42059 c 0.10892,2.36731 7.9788,2.33221 7.86504,-0.11013 -0.37153,-8.82171 -0.76484,-34.47959 -1.13516,-43.29888 -0.092,-2.2378 -7.96186,-2.32978 -7.86988,0.11256 0.37274,8.81929 0.76484,34.49653 1.14,43.29645"
   id="path5693"
   style="stroke-width:1.21023" />
<path
   fill="#e33a13"
   d="m 643.67722,734.81819 c -0.10891,2.3673 -7.9788,2.33099 -7.86504,-0.11377 0.37153,-8.81808 0.76484,-34.47596 1.13516,-43.29646 0.092,-2.23659 7.96186,-2.33099 7.86989,0.11256 -0.37395,8.8205 -0.76485,34.47717 -1.14001,43.29767"
   id="path5695"
   style="stroke-width:1.21023" />
<path
   fill="#e33a13"
   d="m 671.92676,718.05343 c 0.0169,-0.76369 -0.61599,-1.41603 -1.43771,-1.43539 -12.60295,-0.4115 -22.39462,-0.78305 -35.01814,-1.19333 -2.34778,-0.075 -2.516,5.37 -0.18395,5.44503 12.62352,0.39092 22.39341,0.78184 35.01693,1.17518 0.82172,0.0182 1.48854,-0.57851 1.52968,-1.36156 0.0375,-0.85809 0.0569,-1.73312 0.0932,-2.62993"
   id="path5697"
   style="stroke-width:1.21023" />
<path
   fill="#e30613"
   d="m 676.60778,721.03676 c 0.0169,-0.78184 -0.69344,-1.41602 -1.60471,-1.45354 -14.152,-0.39092 -25.13571,-0.78184 -39.30586,-1.17639 -2.62975,-0.075 -2.83427,5.37121 -0.2263,5.44625 14.17378,0.39092 25.13691,0.78184 39.30585,1.17396 0.9137,0.0194 1.67975,-0.5773 1.71605,-1.36156 0.0375,-0.87503 0.075,-1.75127 0.11497,-2.62872"
   id="path5699"
   style="stroke-width:1.21023" />
<path
   fill="#e30613"
   d="m 672.67224,739.48018 c 0.27834,2.79574 8.95058,0.89318 8.68918,-1.68108 -0.96815,-10.01262 -1.95688,-36.90256 -2.92746,-46.91398 -0.24203,-2.53674 -8.96632,-1.13766 -8.68918,1.67866 0.96936,10.03199 1.95688,36.90377 2.92746,46.9164"
   id="path5701"
   style="stroke-width:1.21023" />
<path
   fill="#e30613"
   d="m 636.9667,736.56946 c -0.28076,2.79816 -9.06071,2.20028 -8.79931,-0.37277 0.96816,-10.01262 1.95688,-36.90256 2.92746,-46.91639 0.24325,-2.53553 8.96632,-1.13524 8.68918,1.67986 -0.97057,10.01142 -1.95688,36.8832 -2.92745,46.91398"
   id="path5703"
   style="stroke-width:1.21023" />
<path
   fill="#e30613"
   d="m 625.74217,680.76116 -0.0762,7.10432 c 0,0 2.06943,7.14064 28.75298,7.49525 26.67991,0.35582 28.50972,-6.56333 28.50972,-6.56333 l 0.092,-7.29071 z"
   id="path5705"
   style="stroke-width:1.21023" />
<path
   fill="#e33a13"
   d="m 683.01938,681.45101 c 0.0363,-2.3322 -12.77237,-4.3812 -28.58475,-4.56879 -15.80875,-0.18517 -28.65737,1.5661 -28.69246,3.89709 -0.0363,2.3322 13.18263,6.37937 28.99501,6.56333 15.80996,0.1876 28.2459,-3.56063 28.2822,-5.89163"
   id="path5707"
   style="stroke-width:1.21023" />
<path
   fill="#00a0a4"
   d="m 690.36647,717.86704 c -0.18516,0.80242 0.31828,1.58547 1.10006,1.79 l 3.99001,0.95128 c 0.78299,0.18518 1.58414,-0.29773 1.77293,-1.10014 l 31.97572,-148.52159 -4.86619,-1.15702 z"
   id="path5709"
   style="stroke-width:1.21023" />
<path
   fill="#edc150"
   d="m 697.86119,705.00059 c -7.08447,-2.1434 -17.24646,-1.30468 -19.50105,7.06681 l -3.65478,13.50185 0.0375,0.0181 c -0.74548,2.51738 -5.4253,18.51603 -2.90931,15.49639 2.51841,-3.02085 6.39345,-14.26553 6.39345,-14.26553 0,0 -5.03198,21.81766 -1.7693,15.36567 3.24332,-6.45198 5.09007,-12.68128 5.74357,-14.82347 l 0.0351,0.0181 c -0.89312,3.91525 -4.92064,22.46638 -0.89312,14.84284 4.04325,-7.62595 5.79682,-11.86071 6.48784,-13.52 l 0.0533,0.0181 c -1.05892,3.48923 -5.59109,18.92874 -2.27274,14.52817 3.31956,-4.40178 5.77988,-11.31972 6.52536,-13.52001 l 0.0738,0.0194 c -0.76121,3.60057 -4.2865,20.08213 -0.91128,14.84526 3.37523,-5.2405 5.77989,-13.29611 5.77989,-13.29611 0,0 -4.94243,19.87759 -1.24892,14.73028 3.68987,-5.12794 5.79682,-12.23106 6.30026,-13.94723 v 0 c -0.85682,2.79816 -6.20708,20.68001 -1.67612,14.35752 5.79683,-8.09191 7.47537,-17.3227 10.10511,-26.7205 2.12389,-7.81597 -6.52778,-12.83136 -12.69855,-14.71576"
   id="path5711"
   style="stroke-width:1.21023" />
<path
   fill="#e30613"
   d="m 676.55211,718.76144 -0.57968,2.14461 31.94062,8.68979 c 0.20574,-0.70801 0.41026,-1.43539 0.59905,-2.1434 z"
   id="path5713"
   style="stroke-width:1.21023" />
<path
   fill="#f39200"
   d="m 677.83613,713.98932 -0.57726,2.1434 31.94062,8.68979 c 0.18516,-0.70922 0.37153,-1.4366 0.57726,-2.1434 z"
   id="path5715"
   style="stroke-width:1.21023" />
<path
   fill="#2fac66"
   d="m 288.37064,522.69048 c 0,0 -2.27516,5.2054 -2.27516,8.78419 0,3.58121 4.19574,10.81504 4.54911,16.35327 l 1.11822,7.51461 6.84364,0.0206 0.55911,-7.53518 c 0.18637,-5.68709 3.99122,-13.09036 3.99122,-16.66915 0,-3.58121 -2.27516,-8.61596 -2.27516,-8.61596 z"
   id="path5717"
   style="stroke-width:1.21023" />
<path
   fill="#2fac66"
   d="m 385.06747,522.69048 c 0,0 -2.27516,5.2054 -2.27516,8.78419 0,3.58121 4.17638,10.81504 4.54791,16.35327 l 1.11942,7.51461 6.84365,0.0206 0.5591,-7.53518 c 0.18516,-5.68709 3.97065,-13.09036 3.97065,-16.66915 0,-3.58121 -2.27517,-8.61596 -2.27517,-8.61596 z"
   id="path5719"
   style="stroke-width:1.21023" />
<rect
   x="301.21805"
   y="498.39536"
   fill="#22985a"
   width="84.781273"
   height="17.322697"
   id="rect5721"
   style="stroke-width:1.21023" />
<path
   fill="#2fac66"
   d="m 287.88535,498.62049 h 13.46219 c 0.33522,0 0.61478,0.37276 0.61478,0.79999 v 18.03313 c 0,0.44659 -0.27956,0.79999 -0.61478,0.79999 h -13.46219 c -0.33522,0 -0.61477,-0.3534 -0.61477,-0.79999 v -18.03313 c 0,-0.44659 0.27955,-0.79999 0.61477,-0.79999"
   id="path5723"
   style="stroke-width:1.21023" />
<path
   fill="#73bc7c"
   d="m 289.8616,556.48021 h 10.79613 c 0.80115,0 1.4728,-0.65355 1.4728,-1.45475 0,-0.80121 -0.6535,-1.45355 -1.4728,-1.45355 H 289.8616 c -0.80115,0 -1.45344,0.65234 -1.45344,1.45355 -0.0194,0.78426 0.63414,1.45475 1.45344,1.45475"
   id="path5725"
   style="stroke-width:1.21023" />
<rect
   x="292.08231"
   y="558.73621"
   fill="#2fac66"
   width="6.3389902"
   height="7.4214196"
   id="rect5727"
   style="stroke-width:1.21023" />
<path
   fill="#2fac66"
   d="m 384.58098,498.62049 h 13.46097 c 0.33765,0 0.61599,0.37276 0.61599,0.79999 v 18.03313 c 0,0.44659 -0.27713,0.79999 -0.61599,0.79999 h -13.46097 c -0.33523,0 -0.61599,-0.3534 -0.61599,-0.79999 v -18.03313 c 0,-0.44659 0.28076,-0.79999 0.61599,-0.79999"
   id="path5729"
   style="stroke-width:1.21023" />
<path
   fill="#73bc7c"
   d="m 386.55843,556.48021 h 10.79492 c 0.80236,0 1.47523,-0.65355 1.47523,-1.45475 0,-0.80121 -0.65351,-1.45355 -1.47523,-1.45355 h -10.79492 c -0.80236,0 -1.45344,0.65234 -1.45344,1.45355 -0.0206,0.78426 0.65108,1.45475 1.45344,1.45475"
   id="path5731"
   style="stroke-width:1.21023" />
<rect
   x="388.77792"
   y="558.73621"
   fill="#2fac66"
   width="6.3389902"
   height="7.4214196"
   id="rect5733"
   style="stroke-width:1.21023" />
<path
   fill="#56b470"
   d="m 283.11356,496.1019 h 120.46623 c 0.7479,0 1.36147,0.61603 1.36147,1.36156 0,0.74553 -0.61357,1.36156 -1.36147,1.36156 H 283.11356 c -0.74669,0 -1.36146,-0.61603 -1.36146,-1.36156 0,-0.76368 0.61477,-1.36156 1.36146,-1.36156"
   id="path5735"
   style="stroke-width:1.21023" />
<path
   fill="#73bc7c"
   d="m 281.35999,496.45651 h 123.99153 c 1.06497,0 1.94115,-0.87624 1.94115,-1.94007 v -1.48985 c 0,-0.24327 -0.18758,-0.42965 -0.42841,-0.42965 H 279.86904 c -0.24325,0 -0.42962,0.18638 -0.42962,0.42965 v 1.48985 c -0.0182,1.08198 0.85802,1.94007 1.92057,1.94007"
   id="path5737"
   style="stroke-width:1.21023" />
<path
   fill="#56b470"
   d="m 291.93224,558.83057 h 6.61854 c 0.80115,0 1.45466,-0.65355 1.45466,-1.45476 0,-0.80241 -0.65351,-1.45475 -1.45466,-1.45475 h -6.61854 c -0.80236,0 -1.45465,0.65234 -1.45465,1.45475 0,0.78184 0.65229,1.45476 1.45465,1.45476"
   id="path5739"
   style="stroke-width:1.21023" />
<path
   fill="#56b470"
   d="m 388.6448,558.83057 h 6.62097 c 0.80236,0 1.47159,-0.65355 1.47159,-1.45476 0,-0.80241 -0.65229,-1.45475 -1.47159,-1.45475 h -6.62097 c -0.80235,0 -1.45344,0.65234 -1.45344,1.45475 -0.0181,0.78184 0.63414,1.45476 1.45344,1.45476"
   id="path5741"
   style="stroke-width:1.21023" />
<path
   fill="#73bc7c"
   d="M 286.71147,517.13531 H 302.542 c 1.10007,0 2.01376,0.91497 2.01376,2.0139 0,1.10014 -0.89554,2.0139 -2.01376,2.0139 h -15.83053 c -1.10128,0 -2.01376,-0.89439 -2.01376,-2.0139 0,-1.1183 0.89554,-2.0139 2.01376,-2.0139"
   id="path5743"
   style="stroke-width:1.21023" />
<path
   fill="#73bc7c"
   d="m 383.4083,517.13531 h 15.83053 c 1.10007,0 2.01376,0.91497 2.01376,2.0139 0,1.10014 -0.89675,2.0139 -2.01376,2.0139 H 383.4083 c -1.10249,0 -2.01497,-0.89439 -2.01497,-2.0139 0,-1.1183 0.89433,-2.0139 2.01497,-2.0139"
   id="path5745"
   style="stroke-width:1.21023" />
<path
   fill="#56b470"
   d="m 287.01038,523.86687 h 15.21334 c 0.80236,0 1.45586,-0.65234 1.45586,-1.45596 0,-0.8 -0.6535,-1.45355 -1.45586,-1.45355 h -15.21334 c -0.80235,0 -1.47401,0.65355 -1.47401,1.45355 0.0194,0.80362 0.67166,1.45596 1.47401,1.45596"
   id="path5747"
   style="stroke-width:1.21023" />
<path
   fill="#56b470"
   d="m 383.7048,523.86687 h 15.21575 c 0.79994,0 1.45344,-0.65234 1.45344,-1.45596 0,-0.8 -0.6535,-1.45355 -1.45344,-1.45355 H 383.7048 c -0.80115,0 -1.47281,0.65355 -1.47281,1.45355 0.0194,0.80362 0.67166,1.45596 1.47281,1.45596"
   id="path5749"
   style="stroke-width:1.21023" />
<line
   fill="none"
   stroke="#388835"
   stroke-width="0.761238"
   stroke-miterlimit="2.613"
   x1="340.74539"
   y1="432.29364"
   x2="341.99551"
   y2="463.84317"
   id="line5751" />
<line
   fill="none"
   stroke="#388835"
   stroke-width="0.761238"
   stroke-miterlimit="2.613"
   x1="359.11127"
   y1="433.80289"
   x2="359.29764"
   y2="465.37177"
   id="line5753" />
<path
   fill="#00a0a4"
   d="m 330.73344,463.99204 h 35.74305 c -1.88306,9.47162 -3.7286,19.37411 -5.61166,28.84574 -8.48467,1.38093 -17.04315,1.17518 -24.9094,-0.2239 -1.86612,-9.49099 -3.33893,-19.149 -5.22199,-28.62184"
   id="path5755"
   style="stroke-width:1.21023" />
<path
   fill="#e30613"
   d="m 329.76287,415.34252 2.873,4.43809 1.95688,-4.67893 c 0,0 1.80924,4.54943 2.36835,4.30737 0.27955,-0.11255 2.06943,-5.18482 2.06943,-5.18482 l 2.36834,4.4756 c 0,0 1.5672,-4.21297 2.12631,-4.53007 l 2.03192,4.34369 2.27516,-4.69951 c 0,0 4.97752,19.05703 -6.95498,20.95837 -11.48594,1.8844 -11.11441,-19.42979 -11.11441,-19.42979"
   id="path5757"
   style="stroke-width:1.21023" />
<path
   fill="#f3a5c2"
   d="m 350.70284,424.68586 2.31146,4.32553 2.16262,-4.17666 1.84675,4.17666 2.31147,-4.62568 1.84555,4.32674 2.31267,-4.00964 1.54784,4.17666 2.4809,-4.17666 c 0,0 2.77739,18.70241 -8.03689,18.85127 -10.79613,0.13192 -8.78237,-18.86822 -8.78237,-18.86822"
   id="path5759"
   style="stroke-width:1.21023" />
<path
   fill="#388835"
   d="m 333.67905,443.07118 c 4.23205,-0.33645 6.87995,4.13794 7.49594,7.5134 -3.35587,-0.40907 -8.80053,-2.40603 -7.49594,-7.5134"
   id="path5761"
   style="stroke-width:1.21023" />
<path
   fill="#4cb9ad"
   d="m 330.50956,465.27977 c 12.62352,0.42844 35.96693,0.67049 36.18961,0 0.91369,-2.74249 2.08879,-9.23078 2.16382,-9.23078 -13.05193,-0.42844 -26.85055,0.0375 -40.53662,0 0.7479,3.07652 1.45586,6.15305 2.18319,9.23078"
   id="path5763"
   style="stroke-width:1.21023" />
<path
   fill="#ffffff"
   d="m 183.3973,447.00458 c 1.91936,-1.51042 2.85242,3.69135 9.58352,3.80391 4.51281,0.075 7.813,-5.77908 9.62103,-3.80391 1.77172,1.95702 -0.65229,8.31703 -8.67103,8.93185 -6.28332,0.48532 -13.21894,-6.80539 -10.53352,-8.93185"
   id="path5765"
   style="stroke-width:1.21023" />
<g
   id="g5827"
   transform="matrix(1.2101929,0,0,1.2102772,24.86687,-37.646084)">
	<g
   id="g5775">
		<defs
   id="defs5768">
			<path
   id="SVGID_1_"
   d="m 143.167,401.849 c -1.217,0.894 -2.635,1.771 -4.253,1.74 -5.546,-0.093 -6.316,-4.391 -7.919,-3.143 -2.234,1.757 3.513,7.78 8.705,7.38 6.625,-0.508 8.628,-5.763 7.165,-7.38 -0.215,-0.231 -0.462,-0.339 -0.724,-0.339 -0.77,0 -1.772,0.879 -2.974,1.742" />
		</defs>
		<clipPath
   id="SVGID_2_">
			<use
   xlink:href="#SVGID_1_"
   overflow="visible"
   id="use5770" />
		</clipPath>
		<line
   clip-path="url(#SVGID_2_)"
   fill="none"
   x1="138.407"
   y1="402.15601"
   x2="138.82201"
   y2="408.45801"
   id="line5773" />
	</g>
	<g
   id="g5785">
		<defs
   id="defs5778">
			<path
   id="SVGID_3_"
   d="m 143.167,401.849 c -1.217,0.894 -2.635,1.771 -4.253,1.74 -5.546,-0.093 -6.316,-4.391 -7.919,-3.143 -2.234,1.757 3.513,7.78 8.705,7.38 6.625,-0.508 8.628,-5.763 7.165,-7.38 -0.215,-0.231 -0.462,-0.339 -0.724,-0.339 -0.77,0 -1.772,0.879 -2.974,1.742" />
		</defs>
		<clipPath
   id="SVGID_4_">
			<use
   xlink:href="#SVGID_3_"
   overflow="visible"
   id="use5780" />
		</clipPath>
		
			<line
   clip-path="url(#SVGID_4_)"
   fill="none"
   stroke="#000000"
   stroke-width="0.6"
   x1="138.407"
   y1="402.15601"
   x2="138.82201"
   y2="408.45801"
   id="line5783" />
	</g>
	<g
   id="g5795">
		<defs
   id="defs5788">
			<path
   id="SVGID_5_"
   d="m 143.167,401.849 c -1.217,0.894 -2.635,1.771 -4.253,1.74 -5.546,-0.093 -6.316,-4.391 -7.919,-3.143 -2.234,1.757 3.513,7.78 8.705,7.38 6.625,-0.508 8.628,-5.763 7.165,-7.38 -0.215,-0.231 -0.462,-0.339 -0.724,-0.339 -0.77,0 -1.772,0.879 -2.974,1.742" />
		</defs>
		<clipPath
   id="SVGID_6_">
			<use
   xlink:href="#SVGID_5_"
   overflow="visible"
   id="use5790" />
		</clipPath>
		<line
   clip-path="url(#SVGID_6_)"
   fill="none"
   x1="142.735"
   y1="401.017"
   x2="143.76801"
   y2="408.474"
   id="line5793" />
	</g>
	<g
   id="g5805">
		<defs
   id="defs5798">
			<path
   id="SVGID_7_"
   d="m 143.167,401.849 c -1.217,0.894 -2.635,1.771 -4.253,1.74 -5.546,-0.093 -6.316,-4.391 -7.919,-3.143 -2.234,1.757 3.513,7.78 8.705,7.38 6.625,-0.508 8.628,-5.763 7.165,-7.38 -0.215,-0.231 -0.462,-0.339 -0.724,-0.339 -0.77,0 -1.772,0.879 -2.974,1.742" />
		</defs>
		<clipPath
   id="SVGID_8_">
			<use
   xlink:href="#SVGID_7_"
   overflow="visible"
   id="use5800" />
		</clipPath>
		
			<line
   clip-path="url(#SVGID_8_)"
   fill="none"
   stroke="#000000"
   stroke-width="0.6"
   x1="142.735"
   y1="401.017"
   x2="143.76801"
   y2="408.474"
   id="line5803" />
	</g>
	<g
   id="g5815">
		<defs
   id="defs5808">
			<path
   id="SVGID_9_"
   d="m 143.167,401.849 c -1.217,0.894 -2.635,1.771 -4.253,1.74 -5.546,-0.093 -6.316,-4.391 -7.919,-3.143 -2.234,1.757 3.513,7.78 8.705,7.38 6.625,-0.508 8.628,-5.763 7.165,-7.38 -0.215,-0.231 -0.462,-0.339 -0.724,-0.339 -0.77,0 -1.772,0.879 -2.974,1.742" />
		</defs>
		<clipPath
   id="SVGID_10_">
			<use
   xlink:href="#SVGID_9_"
   overflow="visible"
   id="use5810" />
		</clipPath>
		<line
   clip-path="url(#SVGID_10_)"
   fill="none"
   x1="134.95599"
   y1="401.32401"
   x2="133.60001"
   y2="407.25601"
   id="line5813" />
	</g>
	<g
   id="g5825">
		<defs
   id="defs5818">
			<path
   id="SVGID_11_"
   d="m 143.167,401.849 c -1.217,0.894 -2.635,1.771 -4.253,1.74 -5.546,-0.093 -6.316,-4.391 -7.919,-3.143 -2.234,1.757 3.513,7.78 8.705,7.38 6.625,-0.508 8.628,-5.763 7.165,-7.38 -0.215,-0.231 -0.462,-0.339 -0.724,-0.339 -0.77,0 -1.772,0.879 -2.974,1.742" />
		</defs>
		<clipPath
   id="SVGID_12_">
			<use
   xlink:href="#SVGID_11_"
   overflow="visible"
   id="use5820" />
		</clipPath>
		
			<line
   clip-path="url(#SVGID_12_)"
   fill="none"
   stroke="#000000"
   stroke-width="0.6"
   x1="134.95599"
   y1="401.32401"
   x2="133.60001"
   y2="407.25601"
   id="line5823" />
	</g>
</g>
<path
   fill="#ed1c24"
   d="m 535.48961,257.39408 c -64.80099,-2.87561 -145.81977,-3.11646 -215.09363,-1.75732 -31.47954,0.63782 -37.63216,29.48478 -36.3542,55.45369 1.03835,20.1366 4.71491,88.37566 27.16641,95.32749 -0.8786,2.79695 -1.99682,5.43293 -3.99364,7.11159 -5.67459,4.95487 -14.86237,6.79207 -22.77341,8.70915 23.01182,5.59269 40.50879,3.0378 48.33995,-13.18476 67.51666,2.79695 134.07364,4.07622 216.8472,0.0787 40.11064,-1.99696 41.62943,-74.95126 42.26962,-95.32627 1.11701,-35.23723 0.47924,-53.85613 -56.4083,-56.41224 z"
   id="path5829"
   style="stroke-width:1.21023" />
</svg>
