<?xml version="1.0" encoding="utf-8"?>
<!-- Generator: Adobe Illustrator 26.5.0, SVG Export Plug-In . SVG Version: 6.00 Build 0)  -->
<svg version="1.1" id="Capa_1" xmlns="http://www.w3.org/2000/svg" xmlns:xlink="http://www.w3.org/1999/xlink" x="0px" y="0px"
	 viewBox="0 0 541.42 135" style="enable-background:new 0 0 541.42 135;" xml:space="preserve">
<style type="text/css">
	.st0{fill:#E7DAC6;}
	.st1{fill:none;stroke:#2FAC66;stroke-linecap:round;}
	.st2{fill:#2FAC66;}
	.st3{fill:#F3A5C2;}
</style>
<rect x="-14.29" y="36.43" class="st0" width="565" height="98.57"/>
<line class="st1" x1="460.96" y1="23.52" x2="462.44" y2="15.78"/>
<line class="st1" x1="458.63" y1="24.23" x2="458.77" y2="15.37"/>
<line class="st1" x1="455.08" y1="24.91" x2="455.88" y2="15.41"/>
<line class="st1" x1="452.51" y1="16.09" x2="453.18" y2="23.21"/>
<line class="st1" x1="450.13" y1="15.67" x2="449.48" y2="23.28"/>
<line class="st1" x1="445.4" y1="15.75" x2="446.88" y2="23.49"/>
<line class="st1" x1="443.07" y1="16.04" x2="443.21" y2="24.91"/>
<line class="st1" x1="439.52" y1="15.36" x2="440.32" y2="24.87"/>
<line class="st1" x1="436.95" y1="23.18" x2="437.62" y2="16.07"/>
<line class="st1" x1="434.57" y1="23.6" x2="433.91" y2="16"/>
<line class="st1" x1="429.83" y1="15.75" x2="431.31" y2="23.49"/>
<line class="st1" x1="427.5" y1="16.04" x2="427.64" y2="24.91"/>
<line class="st1" x1="423.95" y1="15.36" x2="424.75" y2="24.87"/>
<line class="st1" x1="421.38" y1="16.09" x2="422.05" y2="23.21"/>
<line class="st1" x1="419" y1="23.6" x2="418.35" y2="16"/>
<line class="st1" x1="414.27" y1="23.52" x2="415.75" y2="15.78"/>
<line class="st1" x1="411.94" y1="24.23" x2="412.08" y2="15.37"/>
<line class="st1" x1="408.39" y1="24.91" x2="409.19" y2="15.41"/>
<line class="st1" x1="405.82" y1="23.18" x2="406.48" y2="16.07"/>
<line class="st1" x1="403.44" y1="23.6" x2="402.78" y2="16"/>
<line class="st1" x1="388.7" y1="23.52" x2="387.22" y2="15.78"/>
<line class="st1" x1="391.02" y1="24.23" x2="390.89" y2="15.37"/>
<line class="st1" x1="394.58" y1="24.91" x2="393.78" y2="15.41"/>
<line class="st1" x1="397.14" y1="23.18" x2="396.48" y2="16.07"/>
<line class="st1" x1="399.53" y1="23.6" x2="400.18" y2="16"/>
<line class="st1" x1="383.76" y1="23.52" x2="385.24" y2="15.78"/>
<line class="st1" x1="381.44" y1="24.23" x2="381.57" y2="15.37"/>
<line class="st1" x1="377.88" y1="24.91" x2="378.68" y2="15.41"/>
<line class="st1" x1="375.32" y1="16.09" x2="375.98" y2="23.21"/>
<line class="st1" x1="372.93" y1="15.67" x2="372.28" y2="23.28"/>
<line class="st1" x1="368.2" y1="15.75" x2="369.68" y2="23.49"/>
<line class="st1" x1="365.87" y1="16.04" x2="366.01" y2="24.91"/>
<line class="st1" x1="362.32" y1="15.36" x2="363.12" y2="24.87"/>
<line class="st1" x1="359.75" y1="23.18" x2="360.42" y2="16.07"/>
<line class="st1" x1="357.37" y1="23.6" x2="356.71" y2="16"/>
<line class="st1" x1="352.63" y1="15.75" x2="354.11" y2="23.49"/>
<line class="st1" x1="350.3" y1="16.04" x2="350.44" y2="24.91"/>
<line class="st1" x1="346.75" y1="15.36" x2="347.55" y2="24.87"/>
<line class="st1" x1="344.18" y1="16.09" x2="344.85" y2="23.21"/>
<line class="st1" x1="341.8" y1="23.6" x2="341.15" y2="16"/>
<line class="st1" x1="337.07" y1="23.52" x2="338.55" y2="15.78"/>
<line class="st1" x1="334.74" y1="24.23" x2="334.88" y2="15.37"/>
<line class="st1" x1="331.19" y1="24.91" x2="331.99" y2="15.41"/>
<line class="st1" x1="328.62" y1="23.18" x2="329.29" y2="16.07"/>
<line class="st1" x1="326.24" y1="23.6" x2="325.58" y2="16"/>
<line class="st1" x1="311.5" y1="23.52" x2="310.02" y2="15.78"/>
<line class="st1" x1="313.82" y1="24.23" x2="313.69" y2="15.37"/>
<line class="st1" x1="317.38" y1="24.91" x2="316.58" y2="15.41"/>
<line class="st1" x1="319.94" y1="23.18" x2="319.28" y2="16.07"/>
<line class="st1" x1="322.33" y1="23.6" x2="322.98" y2="16"/>
<line class="st1" x1="306.56" y1="23.52" x2="308.04" y2="15.78"/>
<line class="st1" x1="304.24" y1="24.23" x2="304.37" y2="15.37"/>
<line class="st1" x1="300.68" y1="24.91" x2="301.48" y2="15.41"/>
<line class="st1" x1="298.12" y1="16.09" x2="298.78" y2="23.21"/>
<line class="st1" x1="295.73" y1="15.67" x2="295.08" y2="23.28"/>
<line class="st1" x1="291" y1="15.75" x2="292.48" y2="23.49"/>
<line class="st1" x1="288.67" y1="16.04" x2="288.81" y2="24.91"/>
<line class="st1" x1="285.12" y1="15.36" x2="285.92" y2="24.87"/>
<line class="st1" x1="282.55" y1="23.18" x2="283.22" y2="16.07"/>
<line class="st1" x1="280.17" y1="23.6" x2="279.51" y2="16"/>
<line class="st1" x1="275.43" y1="15.75" x2="276.91" y2="23.49"/>
<line class="st1" x1="273.11" y1="16.04" x2="273.24" y2="24.91"/>
<line class="st1" x1="269.55" y1="15.36" x2="270.35" y2="24.87"/>
<line class="st1" x1="266.98" y1="16.09" x2="267.65" y2="23.21"/>
<line class="st1" x1="264.6" y1="23.6" x2="263.95" y2="16"/>
<line class="st1" x1="259.87" y1="23.52" x2="261.35" y2="15.78"/>
<line class="st1" x1="257.54" y1="24.23" x2="257.68" y2="15.37"/>
<line class="st1" x1="253.99" y1="24.91" x2="254.79" y2="15.41"/>
<line class="st1" x1="251.42" y1="23.18" x2="252.09" y2="16.07"/>
<line class="st1" x1="249.04" y1="23.6" x2="248.38" y2="16"/>
<line class="st1" x1="234.3" y1="23.52" x2="232.82" y2="15.78"/>
<line class="st1" x1="236.63" y1="24.23" x2="236.49" y2="15.37"/>
<line class="st1" x1="240.18" y1="24.91" x2="239.38" y2="15.41"/>
<line class="st1" x1="242.75" y1="23.18" x2="242.08" y2="16.07"/>
<line class="st1" x1="245.13" y1="23.6" x2="245.78" y2="16"/>
<line class="st1" x1="229.36" y1="23.52" x2="230.84" y2="15.78"/>
<line class="st1" x1="227.04" y1="24.23" x2="227.18" y2="15.37"/>
<line class="st1" x1="223.48" y1="24.91" x2="224.28" y2="15.41"/>
<line class="st1" x1="220.92" y1="16.09" x2="221.58" y2="23.21"/>
<line class="st1" x1="218.53" y1="15.67" x2="217.88" y2="23.28"/>
<line class="st1" x1="213.8" y1="15.75" x2="215.28" y2="23.49"/>
<line class="st1" x1="211.47" y1="16.04" x2="211.61" y2="24.91"/>
<line class="st1" x1="207.92" y1="15.36" x2="208.72" y2="24.87"/>
<line class="st1" x1="205.35" y1="23.18" x2="206.02" y2="16.07"/>
<line class="st1" x1="202.97" y1="23.6" x2="202.31" y2="16"/>
<line class="st1" x1="198.23" y1="15.75" x2="199.71" y2="23.49"/>
<line class="st1" x1="195.91" y1="16.04" x2="196.04" y2="24.91"/>
<line class="st1" x1="192.35" y1="15.36" x2="193.15" y2="24.87"/>
<line class="st1" x1="189.79" y1="16.09" x2="190.45" y2="23.21"/>
<line class="st1" x1="187.4" y1="23.6" x2="186.75" y2="16"/>
<line class="st1" x1="182.67" y1="23.52" x2="184.15" y2="15.78"/>
<line class="st1" x1="180.34" y1="24.23" x2="180.48" y2="15.37"/>
<line class="st1" x1="176.79" y1="24.91" x2="177.59" y2="15.41"/>
<line class="st1" x1="174.22" y1="23.18" x2="174.89" y2="16.07"/>
<line class="st1" x1="171.84" y1="23.6" x2="171.18" y2="16"/>
<line class="st1" x1="157.1" y1="23.52" x2="155.62" y2="15.78"/>
<line class="st1" x1="159.43" y1="24.23" x2="159.29" y2="15.37"/>
<line class="st1" x1="162.98" y1="24.91" x2="162.18" y2="15.41"/>
<line class="st1" x1="165.55" y1="23.18" x2="164.88" y2="16.07"/>
<line class="st1" x1="167.93" y1="23.6" x2="168.58" y2="16"/>
<line class="st1" x1="152.16" y1="23.52" x2="153.65" y2="15.78"/>
<line class="st1" x1="149.84" y1="24.23" x2="149.98" y2="15.37"/>
<line class="st1" x1="146.28" y1="24.91" x2="147.09" y2="15.41"/>
<line class="st1" x1="143.72" y1="16.09" x2="144.38" y2="23.21"/>
<line class="st1" x1="141.33" y1="15.67" x2="140.68" y2="23.28"/>
<line class="st1" x1="136.6" y1="15.75" x2="138.08" y2="23.49"/>
<line class="st1" x1="134.27" y1="16.04" x2="134.41" y2="24.91"/>
<line class="st1" x1="130.72" y1="15.36" x2="131.52" y2="24.87"/>
<line class="st1" x1="128.15" y1="23.18" x2="128.82" y2="16.07"/>
<line class="st1" x1="125.77" y1="23.6" x2="125.12" y2="16"/>
<line class="st1" x1="121.03" y1="15.75" x2="122.51" y2="23.49"/>
<line class="st1" x1="118.71" y1="16.04" x2="118.85" y2="24.91"/>
<line class="st1" x1="115.15" y1="15.36" x2="115.95" y2="24.87"/>
<line class="st1" x1="112.59" y1="16.09" x2="113.25" y2="23.21"/>
<line class="st1" x1="110.2" y1="23.6" x2="109.55" y2="16"/>
<line class="st1" x1="105.47" y1="23.52" x2="106.95" y2="15.78"/>
<line class="st1" x1="103.14" y1="24.23" x2="103.28" y2="15.37"/>
<line class="st1" x1="99.59" y1="24.91" x2="100.39" y2="15.41"/>
<line class="st1" x1="97.02" y1="23.18" x2="97.69" y2="16.07"/>
<line class="st1" x1="94.64" y1="23.6" x2="93.98" y2="16"/>
<line class="st1" x1="79.9" y1="23.52" x2="78.42" y2="15.78"/>
<line class="st1" x1="82.23" y1="24.23" x2="82.09" y2="15.37"/>
<line class="st1" x1="85.78" y1="24.91" x2="84.98" y2="15.41"/>
<line class="st1" x1="88.35" y1="23.18" x2="87.68" y2="16.07"/>
<line class="st1" x1="90.73" y1="23.6" x2="91.38" y2="16"/>
<line class="st1" x1="74.97" y1="23.52" x2="76.45" y2="15.78"/>
<line class="st1" x1="72.64" y1="24.23" x2="72.78" y2="15.37"/>
<line class="st1" x1="69.09" y1="24.91" x2="69.89" y2="15.41"/>
<line class="st1" x1="66.52" y1="16.09" x2="67.19" y2="23.21"/>
<line class="st1" x1="64.14" y1="15.67" x2="63.48" y2="23.28"/>
<line class="st1" x1="59.4" y1="15.75" x2="60.88" y2="23.49"/>
<line class="st1" x1="57.07" y1="16.04" x2="57.21" y2="24.91"/>
<line class="st1" x1="53.52" y1="15.36" x2="54.32" y2="24.87"/>
<line class="st1" x1="50.95" y1="23.18" x2="51.62" y2="16.07"/>
<line class="st1" x1="48.57" y1="23.6" x2="47.92" y2="16"/>
<line class="st1" x1="43.83" y1="15.75" x2="45.32" y2="23.49"/>
<line class="st1" x1="41.51" y1="16.04" x2="41.65" y2="24.91"/>
<line class="st1" x1="37.95" y1="15.36" x2="38.76" y2="24.87"/>
<line class="st1" x1="35.39" y1="16.09" x2="36.05" y2="23.21"/>
<line class="st1" x1="33" y1="23.6" x2="32.35" y2="16"/>
<line class="st1" x1="28.27" y1="23.52" x2="29.75" y2="15.78"/>
<line class="st1" x1="25.94" y1="24.23" x2="26.08" y2="15.37"/>
<line class="st1" x1="22.39" y1="24.91" x2="23.19" y2="15.41"/>
<line class="st1" x1="19.82" y1="23.18" x2="20.49" y2="16.07"/>
<line class="st1" x1="17.44" y1="23.6" x2="16.79" y2="16"/>
<line class="st1" x1="11.15" y1="23.18" x2="10.48" y2="16.07"/>
<line class="st1" x1="13.53" y1="23.6" x2="14.18" y2="16"/>
<line class="st1" x1="532.28" y1="24.91" x2="533.08" y2="15.41"/>
<line class="st1" x1="529.71" y1="16.09" x2="530.38" y2="23.21"/>
<line class="st1" x1="527.33" y1="15.67" x2="526.68" y2="23.28"/>
<line class="st1" x1="522.6" y1="15.75" x2="524.08" y2="23.49"/>
<line class="st1" x1="520.27" y1="16.04" x2="520.41" y2="24.91"/>
<line class="st1" x1="516.72" y1="15.36" x2="517.52" y2="24.87"/>
<line class="st1" x1="514.15" y1="23.18" x2="514.82" y2="16.07"/>
<line class="st1" x1="511.77" y1="23.6" x2="511.11" y2="16"/>
<line class="st1" x1="507.03" y1="15.75" x2="508.51" y2="23.49"/>
<line class="st1" x1="504.7" y1="16.04" x2="504.84" y2="24.91"/>
<line class="st1" x1="501.15" y1="15.36" x2="501.95" y2="24.87"/>
<line class="st1" x1="498.58" y1="16.09" x2="499.25" y2="23.21"/>
<line class="st1" x1="496.2" y1="23.6" x2="495.55" y2="16"/>
<line class="st1" x1="491.46" y1="23.52" x2="492.95" y2="15.78"/>
<line class="st1" x1="489.14" y1="24.23" x2="489.28" y2="15.37"/>
<line class="st1" x1="485.58" y1="24.91" x2="486.39" y2="15.41"/>
<line class="st1" x1="483.02" y1="23.18" x2="483.68" y2="16.07"/>
<line class="st1" x1="480.63" y1="23.6" x2="479.98" y2="16"/>
<line class="st1" x1="465.9" y1="23.52" x2="464.42" y2="15.78"/>
<line class="st1" x1="468.22" y1="24.23" x2="468.08" y2="15.37"/>
<line class="st1" x1="471.78" y1="24.91" x2="470.97" y2="15.41"/>
<line class="st1" x1="474.34" y1="23.18" x2="473.68" y2="16.07"/>
<line class="st1" x1="476.73" y1="23.6" x2="477.38" y2="16"/>
<rect y="22.72" class="st2" width="541.42" height="27.42"/>
<path class="st3" d="M353.68,20.57c0,0-2.69,0.35-2.54,0.4c0.15,0.06,3.27,0.91,3.27,0.91L353.68,20.57z"/>
</svg>
