<?xml version="1.0" encoding="utf-8"?>
<!-- Generator: Adobe Illustrator 25.3.1, SVG Export Plug-In . SVG Version: 6.00 Build 0)  -->
<svg version="1.1" id="Layer_1" xmlns="http://www.w3.org/2000/svg" xmlns:xlink="http://www.w3.org/1999/xlink" x="0px" y="0px"
	 viewBox="0 0 778 732" style="enable-background:new 0 0 778 732;" xml:space="preserve">
<style type="text/css">
	.st0{fill:#DACFB9;}
	.st1{opacity:0.59;fill:#C2A86F;enable-background:new    ;}
	.st2{fill-rule:evenodd;clip-rule:evenodd;fill:#231F20;}
	.st3{fill-rule:evenodd;clip-rule:evenodd;fill:#67625F;}
	.st4{fill-rule:evenodd;clip-rule:evenodd;fill:#716C67;}
	.st5{fill-rule:evenodd;clip-rule:evenodd;fill:#2A2A2B;}
	.st6{fill-rule:evenodd;clip-rule:evenodd;fill:#545557;}
	.st7{fill-rule:evenodd;clip-rule:evenodd;fill:#545353;}
	.st8{fill-rule:evenodd;clip-rule:evenodd;fill:#A8A9AD;}
	.st9{fill-rule:evenodd;clip-rule:evenodd;fill:#CBCBCE;}
	.st10{fill:#F57E20;}
	.st11{fill-rule:evenodd;clip-rule:evenodd;fill:#F57E20;}
	.st12{fill-rule:evenodd;clip-rule:evenodd;fill:#2BB673;}
	.st13{fill-rule:evenodd;clip-rule:evenodd;fill:#51BB7B;}
	.st14{opacity:0.31;fill-rule:evenodd;clip-rule:evenodd;fill:#CBCBCE;enable-background:new    ;}
	.st15{opacity:0.18;fill-rule:evenodd;clip-rule:evenodd;fill:#CBCBCE;enable-background:new    ;}
	.st16{fill-rule:evenodd;clip-rule:evenodd;fill:#E94824;}
	.st17{fill-rule:evenodd;clip-rule:evenodd;fill:#ED1C24;}
	.st18{fill-rule:evenodd;clip-rule:evenodd;fill:#00A5A5;}
	.st19{fill-rule:evenodd;clip-rule:evenodd;fill:#E9BD59;}
	.st20{fill-rule:evenodd;clip-rule:evenodd;fill:#F7941E;}
	.st21{fill:#279E64;}
	.st22{fill-rule:evenodd;clip-rule:evenodd;fill:#6AC185;}
	.st23{fill:#2BB673;}
	.st24{fill:none;stroke:#3A8C42;stroke-width:0.629;stroke-miterlimit:2.613;}
	.st25{fill-rule:evenodd;clip-rule:evenodd;fill:#F59FBB;}
	.st26{fill-rule:evenodd;clip-rule:evenodd;fill:#3A8C42;}
	.st27{fill-rule:evenodd;clip-rule:evenodd;fill:#44BFAF;}
</style>
<path class="st0" d="M697.7,404.5c76.4,37.5,80.8,92,78.8,152.6c5.8,152.4-32.7,164.1-86.1,172.4c-34.8,5.5-232.6,5.3-272-55.5
	c-28.3-43.7-23.2-70.7-99.1-68.5c-112.3,3.3-300.1-16-302.2-83.1c-45.7-127.9,10.6-239,74.4-259.6c103.2-58.1,167.2-52.7,221.4-52.7
	c54.2,0,129.1,48.1,146.3,71.9c15.7,21.7,29.2,104.1,54.2,105.6C562.8,390.5,631.3,371.9,697.7,404.5z"/>
<path class="st1" d="M632.8,678.7c-51.1,0-127.5,13.8-171.4-15.4c-23.9-15.9-16-34.8,8.1-39.1c28-5,57.9-1.2,86.4-2.5
	c49.1-2.3,102.2-7.9,151.3-10.5c24-1.3,45.7,1.9,39.8,33.8c-5,26.7-28.4,29.1-51.5,30.5c-28.4,1.7-60.8-3.7-87.6,3.2"/>
<path class="st1" d="M304.1,564.7c55.5,24.7,137,10.2,165.7-25.7c23.2-29,20.1-29.6-10.3-33.1c-35.3-4.1-73.1-0.7-109-1.7
	c-62-1.6-129-6.1-191-8.1c-30.3-1-57.7,1.9-50.1,28.9c6.4,22.6,35.9,24.5,65,25.6c35.8,1.3,75.9,1.3,127.2,13.2"/>
<path class="st2" d="M527.1,621.7c0,1.5,0.8,6.1-0.7,9.3c-1.6,3.2-10.1,1.7-10.5,7.2c-0.2,2.3-0.3,6.6-0.4,10.8h13.3
	c0-2.5,0.1-4.7,0.2-6c0.3-4,9.3-1.7,9.5-7.2c0.2-5.5-0.1-14.2-0.1-14.2L527.1,621.7z"/>
<path class="st3" d="M512.4,652.1h19.2v-1.7c0-0.9-1-1.7-2.3-1.7h-14.7c-1.3,0-2.3,0.8-2.3,1.7V652.1z"/>
<path class="st2" d="M635.2,621.7c0,1.5-0.8,6.1,0.7,9.3c1.6,3.2,10.1,1.7,10.5,7.2c0.2,2.3,0.3,6.6,0.4,10.8h-13.3
	c0-2.5-0.1-4.7-0.2-6c-0.3-4-9.3-1.7-9.5-7.2c-0.2-5.5,0.1-14.2,0.1-14.2L635.2,621.7z"/>
<path class="st3" d="M649.9,652.1h-19.2v-1.7c0-0.9,1-1.7,2.3-1.7h14.7c1.2,0,2.3,0.8,2.3,1.7V652.1z"/>
<path class="st4" d="M511.1,511l0,129.3c0,0.5-0.1,1.6,2,1.5c2.1,0,136.8-0.5,136.8-0.5c0.6-0.1,3,0.3,3-2.4
	c-0.1-2.7-0.2-128-0.2-128L511.1,511z"/>
<path class="st2" d="M506.7,505.5l148.9,0.2c0.5,0,0.9,0.4,0.9,0.9v5.2c0,0.5-0.4,0.9-0.9,0.9H506.9c-0.5,0-1.5-0.6-1.5-1.1l0.2-5
	C505.7,506.1,506.2,505.5,506.7,505.5z"/>
<path class="st5" d="M511.9,541.5l139.5,0.2c0.5,0,0.9,0.4,0.9,0.9v5.2c0,0.5-0.4,0.9-0.9,0.9H512.1c-0.5,0-1.4-0.6-1.4-1.1l0.2-5
	C510.9,542.1,511.4,541.5,511.9,541.5z"/>
<path class="st2" d="M631.3,588.8c-0.9,0-1.6,0.7-1.6,1.6c0,0.9,0.7,1.6,1.6,1.6c0.9,0,1.6-0.7,1.6-1.6
	C632.8,589.5,632.1,588.8,631.3,588.8z"/>
<path class="st2" d="M631.3,594.4c-0.9,0-1.6,0.7-1.6,1.6c0,0.9,0.7,1.6,1.6,1.6c0.9,0,1.6-0.7,1.6-1.6
	C632.8,595.1,632.1,594.4,631.3,594.4z"/>
<path class="st6" d="M646.7,513.1h-5.9c-0.3,0-0.6,0.2-0.6,0.5v27.7c0,0.2,0.2,0.5,0.6,0.5h5.9c0.3,0,0.6-0.2,0.6-0.5v-27.7
	C647.3,513.3,647,513.1,646.7,513.1z"/>
<path class="st6" d="M527.6,513.1h-5.9c-0.3,0-0.6,0.2-0.6,0.5v27.7c0,0.2,0.2,0.5,0.6,0.5h5.9c0.3,0,0.5-0.2,0.5-0.5v-27.7
	C528.1,513.3,527.9,513.1,527.6,513.1z"/>
<path class="st7" d="M581.5,501.3c0,0,52.8,0,54.6,0c1.8,0,2.5,0,2.3,0.2c-0.1,0.2,0.9,4.5,0.9,4.6c0,0-0.1,0.1-0.9,0.1
	c-0.8,0-54.4,0.1-54.4,0.1s-3.7,0.1-3.7,0c0-0.1,0.6-4.9,0.6-4.9C580.9,501.4,581.1,501.3,581.5,501.3z"/>
<path class="st7" d="M517.8,501.3c0,0,52.8,0,54.6,0c1.8,0,2.5,0,2.3,0.2c-0.1,0.2,0.9,4.5,0.9,4.6c0,0-0.1,0.1-0.9,0.1
	c-0.8,0-54.4,0.1-54.4,0.1s-3.7,0.1-3.7,0c0-0.1,0.6-4.9,0.6-4.9C517.2,501.4,517.3,501.3,517.8,501.3z"/>
<path class="st7" d="M529.3,559.3c0,0,101-0.5,104.4-0.5c3.4,0,4.8,0.2,4.5,2.6c-0.3,2.4,1.7,65,1.7,65.6s-0.3,1.5-1.7,1.5
	c-1.5,0-104,0.9-104,0.9s-4.2,0.9-4.2-0.3c0-1.2-1.8-68.7-1.8-68.7C528.1,559.8,528.4,559.6,529.3,559.3z"/>
<path class="st8" d="M540.1,567.1c0,0,79.6-0.4,82.3-0.4c2.7,0,3.8,0.1,3.5,2c-0.2,1.9,1.3,50.4,1.3,50.8c0,0.4-0.2,1.1-1.4,1.2
	c-1.2,0-82,0.7-82,0.7s-3.3,0.7-3.3-0.3c0-0.9-1.4-53.2-1.4-53.2C539.2,567.5,539.4,567.4,540.1,567.1z"/>
<path class="st9" d="M523.4,555.9c0,0,110.6-0.1,114.3-0.1c3.7,0,5.2,0,4.9,0.3c-0.3,0.3,1.8,8.6,1.8,8.7c0,0.1-0.3,0.2-1.9,0.2
	c-1.6,0-113.8,0.1-113.8,0.1s-4.6,0.1-4.6,0c0-0.2-1.9-9.1-1.9-9.1C522.1,555.9,522.4,555.9,523.4,555.9z"/>
<path class="st10" d="M547.4,535.3c4.3,0,7.8-3.5,7.8-7.8c0-4.3-3.5-7.8-7.8-7.8c-4.3,0-7.8,3.5-7.8,7.8
	C539.5,531.8,543.1,535.3,547.4,535.3z"/>
<path class="st7" d="M541.2,527c0.1-0.9,0.3-1.7,0.6-2.1c0.8-0.4,3.3-0.6,5.8-0.6c2.4,0,4.7,0.6,5,1.1c0.3,0.3,0.4,1,0.5,1.8
	L541.2,527z"/>
<path class="st2" d="M541.7,525.1c-0.6,0.6-0.8,3.6,0,4.5c0.8,0.5,3.4,1,5.8,1c2.4,0,4.7-0.4,5.1-0.8c0.6-0.6,0.8-3.6,0.1-4.3
	C548.8,526.8,545.2,526.6,541.7,525.1z"/>
<path class="st11" d="M592.7,521.9c3.1,3.1,3.1,8,0,11.1c-3.1,3.1-8,3.1-11.1,0c-3.1-3.1-3.1-8,0-11.1
	C584.7,518.8,589.7,518.8,592.7,521.9z"/>
<path class="st7" d="M582.5,531.5c-0.6-0.6-1-1.4-1.1-1.9c0.2-0.9,1.9-2.8,3.7-4.5c1.7-1.7,3.7-2.9,4.3-2.8c0.4,0,1,0.4,1.6,0.9
	L582.5,531.5z"/>
<path class="st2" d="M581.5,529.8c0,0.9,1.9,3.1,3.2,3.2c0.9-0.2,3.1-1.7,4.8-3.4c1.7-1.7,3.1-3.6,3-4.2c0-0.9-1.9-3.1-3-3.1
	C587.7,526,585,528.4,581.5,529.8z"/>
<path class="st10" d="M620.8,535.3c4.3,0,7.8-3.5,7.8-7.8s-3.5-7.8-7.8-7.8s-7.8,3.5-7.8,7.8S616.4,535.3,620.8,535.3z"/>
<path class="st7" d="M614.6,527c0.1-0.9,0.2-1.7,0.6-2.1c0.8-0.4,3.4-0.6,5.8-0.6c2.4,0,4.7,0.6,5,1.1c0.3,0.3,0.4,1,0.5,1.8
	L614.6,527z"/>
<path class="st2" d="M615.1,525.1c-0.6,0.6-0.8,3.6,0,4.5c0.8,0.5,3.4,1,5.8,1c2.4,0,4.7-0.4,5.1-0.8c0.6-0.6,0.8-3.6,0.1-4.3
	C622.2,526.8,618.5,526.6,615.1,525.1z"/>
<path class="st12" d="M635.1,488.1c1.3-0.6,5.6-2.1,7.5-6.2c1.9-4.1,1.2-10.1,4.9-14.5c3.7-4.4,6-6.5,6-6.5l-4-0.7l1.9-3.2
	c0.2-0.4-6.7,1.5-9.8,6.9c-3.1,5.4-3,11.2-5.1,13c-2.1,1.8-3.1,1.9-4,2.4c1.5,2.7,2.4,5.7,2.4,8.8V488.1z"/>
<path class="st11" d="M609.7,453.2c1.8-0.1,2.9,1.5,2.7,3.2c-0.2,2-2.3,3.2-2.7,3.2s-2.6-1.1-2.7-3.2
	C606.8,454.6,608.2,453.2,609.7,453.2z"/>
<path class="st12" d="M590.9,481.2h-8l-1,6.9l9,0.2V481.2z"/>
<path class="st12" d="M635.5,501.1c0,0-20.9,5.4-48.6,0c-0.8-0.2,0-14.8,0-14.8c0-11.4,11.6-20.3,21.3-20.3h3.3
	c10.7,0,24,10.2,24,22V501.1z"/>
<path class="st11" d="M580.7,474c-1.6,4-2.6,8.6-2.9,13.2c-0.2,2.4-0.1,4.9,0.2,7.2c0.2,1.7,5.1,1.5,5.2,0.3
	c-0.3-2.5-0.2-3.6-0.1-7.3c0.2-3.8,1.1-9.4,3.3-13.7C586.7,473,581.3,472.6,580.7,474z"/>
<path class="st13" d="M603.8,459.9c3.4-0.6,7.2-0.4,11.1,0.1c2.5,0.3,4.9,1.6,5,4.1c0,1.5,0,2.9-0.1,3.7c-6.8-0.6-13.4-0.7-20.1,0.6
	l0-3.6C599.6,462.2,601.4,460.3,603.8,459.9z"/>
<path class="st14" d="M604.6,566.7l-45.5,54.3l22.5,0.3l44.9-49.5l-1.7-5.2L604.6,566.7z"/>
<path class="st15" d="M595.5,566.5l-4.6,0.2l-45.5,54.3l6.8,0.3"/>
<path class="st3" d="M656.9,651.4h-14.3v-1.7c0-0.9,0.8-1.7,1.7-1.7h10.9c0.9,0,1.7,0.8,1.7,1.7L656.9,651.4L656.9,651.4z"/>
<path class="st16" d="M682.6,653.4c0.1,2.6,8.8,2.6,8.7-0.1c-0.4-9.7-0.8-37.9-1.3-47.6c-0.1-2.5-8.8-2.6-8.6,0.1
	C681.7,615.5,682.2,643.7,682.6,653.4z"/>
<path class="st16" d="M658.2,651.6c-0.1,2.6-8.8,2.6-8.6-0.1c0.4-9.7,0.8-37.9,1.3-47.6c0.1-2.5,8.8-2.6,8.6,0.1
	C659.1,613.7,658.6,641.9,658.2,651.6z"/>
<path class="st16" d="M689.3,633.2c0-0.8-0.7-1.6-1.6-1.6c-13.9-0.4-24.6-0.9-38.5-1.3c-2.6-0.1-2.8,5.9-0.2,6
	c13.9,0.4,24.6,0.9,38.5,1.3c0.9,0,1.6-0.6,1.7-1.5C689.2,635.1,689.2,634.2,689.3,633.2z"/>
<path class="st17" d="M694.4,636.4c0-0.9-0.8-1.6-1.8-1.6c-15.6-0.4-27.6-0.9-43.2-1.3c-2.9-0.1-3.1,5.9-0.2,6
	c15.6,0.4,27.6,0.9,43.2,1.3c1,0,1.8-0.6,1.9-1.5C694.3,638.4,694.4,637.4,694.4,636.4z"/>
<path class="st17" d="M690.1,656.7c0.3,3.1,9.8,1,9.5-1.8c-1.1-11-2.1-40.5-3.2-51.5c-0.3-2.8-9.8-1.2-9.5,1.8
	C687.9,616.2,689,645.7,690.1,656.7z"/>
<path class="st17" d="M650.9,653.5c-0.3,3.1-10,2.4-9.7-0.4c1.1-11,2.1-40.5,3.2-51.5c0.3-2.8,9.8-1.2,9.5,1.8
	c-1.1,11-2.1,40.5-3.2,51.5"/>
<path class="st17" d="M638.5,592.2l-0.1,7.8c0,0,2.3,7.8,31.6,8.2c29.3,0.4,31.3-7.2,31.3-7.2l0.1-8L638.5,592.2z"/>
<path class="st16" d="M701.4,593c0-2.6-14-4.8-31.4-5c-17.4-0.2-31.5,1.7-31.5,4.3c0,2.6,14.5,7,31.8,7.2
	C687.8,599.7,701.4,595.5,701.4,593z"/>
<path class="st18" d="M709.5,633c-0.2,0.9,0.3,1.8,1.2,2l4.4,1c0.9,0.2,1.7-0.3,2-1.2l35.1-163.1l-5.3-1.3L709.5,633z"/>
<path class="st19" d="M717.7,618.8c-7.8-2.4-19-1.4-21.4,7.8l-4,14.8l0,0c-0.8,2.8-6,20.3-3.2,17c2.8-3.3,7-15.7,7-15.7
	s-5.5,24-2,16.9c3.6-7.1,5.6-13.9,6.3-16.3l0,0c-1,4.3-5.4,24.7-1,16.3c4.4-8.4,6.4-13,7.1-14.9l0.1,0c-1.2,3.8-6.1,20.8-2.5,15.9
	c3.6-4.8,6.3-12.4,7.2-14.8l0.1,0c-0.8,3.9-4.7,22.1-1,16.3c3.7-5.8,6.4-14.6,6.4-14.6s-5.4,21.8-1.4,16.2
	c4.1-5.6,6.4-13.4,6.9-15.3h0c-1,3.1-6.8,22.7-1.8,15.8c6.4-8.9,8.2-19,11.1-29.3C734,626.4,724.5,620.9,717.7,618.8z"/>
<path class="st17" d="M694.3,634l-0.6,2.4l35.1,9.5c0.2-0.8,0.4-1.6,0.7-2.4L694.3,634z"/>
<path class="st20" d="M695.7,628.7l-0.6,2.4l35.1,9.5c0.2-0.8,0.4-1.6,0.6-2.4L695.7,628.7z"/>
<path class="st0" d="M186,69c0-24-19-46-78-36S45.6,99.7,45.6,99.7s-35.2,96.6,12.2,181c10.7,16.9,111.8-1.5,96.5-38.3
	C139,205.5,149,203,150.5,155S186,93,186,69z"/>
<path class="st12" d="M322.1,463.9c0,0-3.1,7.1-3.1,11.9c0,4.9,5.7,14.7,6.2,22.2l1.5,10.2l9.3,0l0.8-10.2
	c0.3-7.7,5.4-17.8,5.4-22.7c0-4.9-3.1-11.7-3.1-11.7L322.1,463.9z"/>
<path class="st12" d="M453.6,463.9c0,0-3.1,7.1-3.1,11.9c0,4.9,5.7,14.7,6.2,22.2l1.5,10.2l9.3,0l0.8-10.2
	c0.3-7.7,5.4-17.8,5.4-22.7c0-4.9-3.1-11.7-3.1-11.7L453.6,463.9z"/>
<path class="st21" d="M456.1,430.8H340.8v23.6h115.3V430.8z"/>
<path class="st12" d="M321.4,431.1h18.3c0.5,0,0.8,0.5,0.8,1.1v24.5c0,0.6-0.4,1.1-0.8,1.1h-18.3c-0.5,0-0.8-0.5-0.8-1.1v-24.5
	C320.6,431.6,321,431.1,321.4,431.1z"/>
<path class="st22" d="M324.1,509.8h14.7c1.1,0,2-0.9,2-2c0-1.1-0.9-2-2-2h-14.7c-1.1,0-2,0.9-2,2C322.1,508.9,323,509.8,324.1,509.8
	z"/>
<path class="st23" d="M335.8,512.9h-8.6V523h8.6V512.9z"/>
<path class="st12" d="M453,431.1h18.3c0.5,0,0.8,0.5,0.8,1.1v24.5c0,0.6-0.4,1.1-0.8,1.1H453c-0.5,0-0.8-0.5-0.8-1.1v-24.5
	C452.2,431.6,452.5,431.1,453,431.1z"/>
<path class="st22" d="M455.7,509.8h14.7c1.1,0,2-0.9,2-2c0-1.1-0.9-2-2-2h-14.7c-1.1,0-2,0.9-2,2
	C453.7,508.9,454.6,509.8,455.7,509.8z"/>
<path class="st23" d="M467.3,512.9h-8.6V523h8.6V512.9z"/>
<path class="st13" d="M316.2,427.7h163.9c1,0,1.9,0.8,1.9,1.8s-0.8,1.8-1.9,1.8H316.2c-1,0-1.8-0.8-1.8-1.8S315.2,427.7,316.2,427.7
	z"/>
<path class="st22" d="M313.8,428.2h168.7c1.4,0,2.6-1.2,2.6-2.6v-2c0-0.3-0.3-0.6-0.6-0.6H311.7c-0.3,0-0.6,0.3-0.6,0.6v2
	C311.2,427,312.3,428.2,313.8,428.2z"/>
<path class="st13" d="M326.9,513h9c1.1,0,2-0.9,2-2c0-1.1-0.9-2-2-2h-9c-1.1,0-2,0.9-2,2C324.9,512.1,325.8,513,326.9,513z"/>
<path class="st13" d="M458.5,513h9c1.1,0,2-0.9,2-2c0-1.1-0.9-2-2-2h-9c-1.1,0-2,0.9-2,2C456.5,512.1,457.4,513,458.5,513z"/>
<path class="st22" d="M319.8,456.3h21.5c1.5,0,2.7,1.2,2.7,2.7c0,1.5-1.2,2.7-2.7,2.7h-21.5c-1.5,0-2.7-1.2-2.7-2.7
	C317.1,457.5,318.3,456.3,319.8,456.3z"/>
<path class="st22" d="M451.4,456.3h21.5c1.5,0,2.7,1.2,2.7,2.7c0,1.5-1.2,2.7-2.7,2.7h-21.5c-1.5,0-2.7-1.2-2.7-2.7
	C448.6,457.5,449.9,456.3,451.4,456.3z"/>
<path class="st13" d="M320.2,465.5h20.7c1.1,0,2-0.9,2-2c0-1.1-0.9-2-2-2h-20.7c-1.1,0-2,0.9-2,2
	C318.2,464.6,319.1,465.5,320.2,465.5z"/>
<path class="st13" d="M451.8,465.5h20.7c1.1,0,2-0.9,2-2c0-1.1-0.9-2-2-2h-20.7c-1.1,0-2,0.9-2,2
	C449.8,464.6,450.7,465.5,451.8,465.5z"/>
<path class="st24" d="M393.4,340.9l1.7,42.9"/>
<path class="st24" d="M418.3,342.9l0.3,43"/>
<path class="st18" d="M381,384h48.6c-2.6,12.9-5.1,26.4-7.6,39.2c-11.5,1.9-23.2,1.6-33.9-0.3C385.5,410,383.5,396.9,381,384z"/>
<path class="st17" d="M378.4,317.8l3.9,6l2.7-6.4c0,0,2.5,6.2,3.2,5.9c0.4-0.2,2.8-7.1,2.8-7.1l3.2,6.1c0,0,2.1-5.7,2.9-6.2l2.8,5.9
	l3.1-6.4c0,0,6.8,25.9-9.5,28.5C377.9,346.8,378.4,317.8,378.4,317.8z"/>
<path class="st25" d="M406.9,330.5l3.2,5.9l2.9-5.7l2.5,5.7l3.2-6.3l2.5,5.9l3.2-5.5l2.1,5.7l3.4-5.7c0,0,3.8,25.4-10.9,25.6
	C404.1,356.4,406.9,330.5,406.9,330.5z"/>
<path class="st26" d="M383.7,355.5c5.8-0.5,9.4,5.6,10.2,10.2C389.4,365.2,382,362.5,383.7,355.5z"/>
<path class="st27" d="M379.4,385.7c17.2,0.6,48.9,0.9,49.2,0c1.2-3.7,2.8-12.6,2.9-12.6c-17.8-0.6-36.5,0-55.1,0
	C377.4,377.4,378.4,381.6,379.4,385.7z"/>
</svg>
