<svg width="504" height="228" viewBox="0 0 504 228" fill="none" xmlns="http://www.w3.org/2000/svg">
<path d="M321.936 179.085L322.088 178.431L321.417 178.473C309.413 179.224 169.199 179.268 57.6255 174.013C38.155 173.096 23.9392 162.617 14.5484 147.248C5.14835 131.863 0.594309 111.589 0.501451 91.1742C0.4086 70.7611 4.77676 50.2609 13.1655 34.4368C21.555 18.6112 33.9251 7.52692 49.8259 5.76943L49.7709 5.27245L49.8259 5.76942C133.963 -3.5343 333.601 1.7413 413.054 4.56536C448.465 5.82392 471.264 14.8378 485.051 29.8327C498.839 44.8288 503.706 65.9068 503.023 91.5074C502.631 106.242 501.017 124.962 493.26 140.824C485.52 156.649 471.656 169.65 446.668 172.976C401.89 178.937 357.057 179.696 352.047 179.332L351.719 179.308L351.567 179.6C348.453 185.606 343.334 193.642 335.637 200.403C327.428 207.611 317.629 214.223 309.874 219.038C305.998 221.443 302.637 223.398 300.244 224.751C299.59 225.121 299.009 225.445 298.509 225.722C298.964 225.116 299.513 224.373 300.138 223.506C302.019 220.896 304.587 217.158 307.334 212.647C312.824 203.631 319.05 191.498 321.936 179.085Z" fill="white" stroke="black"/>
</svg>
