<svg width="445" height="411" viewBox="0 0 445 411" fill="none" xmlns="http://www.w3.org/2000/svg">
<path d="M2.46581 382.98C0.352813 383.077 3.59782 383.6 1.08582 383.2C1.37082 382.937 1.77981 382.74 2.46581 382.98Z" fill="#0B0B0B" fill-opacity="0.15"/>
<path d="M37.3438 394.741C34.1248 395.997 30.2618 396.665 26.2448 396.5C25.1448 396.819 20.5038 397.771 22.5838 398.479C24.5608 398.548 26.5088 398.539 28.3688 398.342C29.2398 398.307 28.0968 399.298 30.0558 399.152C37.2918 398.139 48.5158 399.32 57.2608 400.367L56.7308 400.639C58.3968 400.838 60.4338 399.938 62.1998 400.068C62.2098 400.248 61.6328 400.324 62.0388 400.572C62.4828 400.027 65.2348 400.324 65.9778 399.92C66.6768 400.135 66.6218 400.563 67.5248 400.772L68.5188 400.121C71.2808 398.55 75.3488 399.996 79.1418 399.107C78.9688 399.256 78.5948 399.384 78.9028 399.516C84.9668 398.158 92.6838 398.066 99.3568 396.528C99.1238 396.782 98.9478 397.213 99.3808 397.398C99.6088 396.7 101.67 396.224 103.45 395.83C104.422 396.408 106.418 394.773 108.521 394.527L108.386 394.715C109.709 393.648 110.764 394.527 111.741 393.402L112.87 393.659C113.203 392.552 115.289 393.641 116.307 392.695L116.196 392.532C117.19 391.831 117.958 392.011 118.907 391.411L119.059 391.468C121.312 390.187 122.985 390.025 122.508 389.418C123.696 389.555 120.347 390.68 122.138 390.838C120.81 388.421 106.437 388.194 99.1478 387.914C98.1408 387.618 97.4928 387.531 97.2638 387.25C96.3738 387.4 93.8998 387.396 93.1018 387.777C93.3918 387.758 92.5158 387.393 92.0358 387.368C90.4018 387.139 90.2858 388.235 88.4938 387.958C89.1948 387.74 89.4308 387.496 89.1838 387.229C87.6818 387.85 85.6418 387.822 83.8578 388.067C84.1268 387.935 84.5578 387.845 84.4828 387.616C82.5418 388.332 80.8818 387.638 79.1828 388.131L79.8008 387.672C76.9958 387.281 79.0268 388.6 76.6218 388.407C77.1848 388.243 76.9738 388.086 77.0618 387.909C74.8708 388.785 71.2328 388.718 69.0168 389.096L69.1048 388.913C66.6768 389.145 64.1158 388.994 61.4498 389.445C60.4668 389.295 61.7258 388.388 59.1538 388.652C59.2578 389.517 54.7868 389.05 56.3148 390.006C54.1288 389.895 50.6408 389.667 49.1888 390.022C50.1608 389.657 48.0728 389.013 49.8968 388.875L48.4978 388.405C48.6868 388.042 49.9188 388.471 49.4678 388.042C48.5428 388.117 45.8918 388.546 45.0608 388.449C43.3868 389.059 41.8818 390.093 39.1488 390.359C40.4128 389.951 38.3528 389.455 39.2208 389.256L35.5068 391.11C34.5958 391.204 35.2588 390.447 33.9578 390.754C34.0378 390.979 33.4748 391.155 33.0898 391.365C32.7398 391.293 29.3188 391.819 28.8518 391.019C28.4148 390.719 30.3198 390.728 29.2898 390.503C27.6088 390.641 27.5578 390.933 25.8768 391.076L25.8328 390.967C24.7078 390.916 22.5988 391.591 23.8488 391.953C24.6198 391.913 23.5028 391.467 24.6708 391.618C23.9328 392.169 22.0058 392.485 20.3338 392.638C20.8888 392.45 20.7958 392.234 20.9998 391.978C18.8158 392.825 16.4738 393.293 14.0278 393.851C14.0398 394.251 14.8458 393.005 15.2488 393.183C11.9698 393.005 8.77583 394.752 6.19583 394.514C6.57483 394.356 6.55883 395.021 6.50383 394.92C5.06583 395.156 4.96083 394.621 4.46183 395.039C3.76683 396.171 5.20784 393.112 4.45684 392.751C4.75284 392.673 4.20483 392.694 4.56383 393.143C4.09383 392.232 11.3548 394.32 13.5538 394.801C13.5428 394.573 15.6508 394.177 16.3628 394.274L16.0188 394.77C16.6628 395.147 18.4918 394.971 18.5838 395.435C20.2308 394.953 12.4168 395.369 14.6128 395.091C15.1268 395.583 17.6878 394.548 17.1608 395.22C18.6338 395.399 20.1528 394.801 21.5968 395.315C21.1788 395.22 20.3168 396.025 21.5638 396.006C23.7658 395.942 22.1968 395.762 23.9788 395.61L25.0908 395.409C25.1648 394.899 27.0378 395.508 26.2308 394.92C26.4938 395.385 29.4028 394.646 29.1918 395.487L28.9068 396.169C29.8558 396.092 30.4498 395.416 31.1888 395.097C31.3178 395.152 31.5678 395.284 31.5278 395.389C31.6498 394.36 33.7998 395.41 34.9068 394.586C36.9088 394.907 39.9848 394.422 40.9688 395.017C42.4928 394.632 43.8818 394.196 45.6488 394.329C45.3028 394.443 44.8248 394.493 44.7388 394.72C45.8628 394.971 46.1208 394.688 47.1238 394.471C46.9018 394.637 49.3728 394.966 50.6248 395.266C52.1458 394.883 51.5828 394.356 51.7168 394.01C53.1778 394.952 56.0278 393.138 57.8418 393.973C57.3118 394.137 55.6248 394.58 56.9168 394.771C58.3748 395.707 59.7188 393.897 62.0168 394.302L61.4208 393.479C62.4638 393.965 64.7628 392.871 64.5668 393.737C65.3178 393.406 67.2638 393.921 66.9878 393.107C70.7408 393.653 76.1988 392.628 78.4788 394.068C79.0118 393.919 80.3518 394.123 80.0848 393.686C79.2008 393.195 78.8408 393.973 78.5078 393.664C79.0008 393.637 79.0998 393.415 79.1518 393.31C80.3138 393.535 81.2318 393.622 80.1098 394.267C82.6738 394.863 82.8228 392.956 86.1128 393.387C85.9458 393.724 86.1868 393.861 87.1528 393.837L89.0108 393.313C91.1278 393.535 90.1798 394.138 90.2098 394.711C91.3468 394.661 92.7338 394.748 93.2668 394.343L94.6068 395.124C93.6218 394.56 95.5538 394.819 96.0938 394.698L95.5538 394.819C95.7478 395.072 97.0718 394.976 97.7318 394.93C97.5968 394.571 96.2628 394.369 95.5358 394.237C96.1278 394.003 97.0308 394.103 97.8158 393.838C97.5268 394.394 99.6408 394.324 100.53 394.415C101.556 394.574 101.72 393.953 102.013 393.983C102.03 394.275 103.693 394.093 102.867 394.471C102.515 394.555 102.082 394.163 101.485 394.397C102.153 394.641 102.059 395.147 103.482 394.829C104.552 394.587 103.26 393.705 105.25 394.133C104.723 394.252 104.612 394.472 104.197 394.665L106.07 395.03L106.17 394.516C106.421 394.656 106.241 394.693 106.352 394.766C106.936 394.246 109.231 394.705 109.683 394.112C110.63 394.103 111.662 394.508 112.57 394.587L112.388 394.629C113.484 394.948 114.965 394.767 115.888 394.434L115.842 394.546C116.445 394.597 117.866 394.535 118.621 394.24C120.138 394.647 119.132 396.199 120.823 395.563C122.363 395.501 123.218 394.553 122.596 394.24C125.361 394.508 128.451 393.618 131.051 394.31C131.426 394.068 131.173 393.956 131.963 393.765C135.981 393.566 140.335 392.597 143.577 392.924C142.477 393.328 143.596 393.442 143.677 393.728C144.54 393.12 144.908 394.01 145.089 393.175C144.913 392.736 144.954 392.496 143.825 392.496C146.096 391.808 149.678 391.382 151.012 391.364C150.327 391.333 150.784 391.06 151.23 390.787C151.266 391.554 152.973 391.196 154.161 390.602L154.191 390.118L155.164 390.341C155.603 390.069 155.386 389.287 156.774 389.362L157.307 389.72C160.232 389.762 156.189 385.716 159.256 393.419C159.435 393.311 159.635 393.009 159.15 392.772C158.559 392.799 157.606 393.112 158.542 393.385C156.463 392.772 154.572 392.815 153.858 392.19C149.45 393.596 142.975 393.91 137.725 394.037L137.866 393.69C136.443 393.441 137.166 394.314 136.174 394.127C136.605 393.781 135.06 393.475 136.148 393.028C134.113 392.762 133.58 393.731 132.279 393.945C132.098 394.396 133.321 393.611 133.093 394.186C132.877 394.355 130.282 393.964 130.001 394.65C129.481 394.411 129.849 393.9 130.108 393.615L128.894 393.997C127.343 393.281 132.254 392.44 130.623 391.547L129.494 391.699C128.369 391.045 132.455 390.771 129.587 390.658C128.369 391.045 127.362 392.064 128.481 392.315C125.916 392.615 127.374 393.973 124.595 394.037C123.821 393.673 126.819 393.846 126.245 393.318C124.916 392.832 123.64 393.731 122.47 393.589C123.775 393.786 122.715 394.513 121.882 394.672C120.461 394.413 122.774 393.996 120.764 394.009C120.461 394.413 118.628 394.779 120.231 394.984C119.553 395.895 118.136 394.824 117.078 395.541C116.391 394.947 119.078 394.037 116.853 393.809C117.233 394.393 114.172 394.71 115.373 395.555C114.501 395.416 114.39 394.948 115.005 394.562C113.763 394.24 112.053 395.752 111.596 394.574L111.199 395.194C110.801 395.006 110.239 394.873 109.594 394.555C108.507 394.574 106.1 395.469 106.182 394.545C105.836 394.647 103.332 394.627 104.309 395.256C105.871 395.628 106.089 394.778 106.973 395.61C105.861 394.947 104.724 395.734 103.828 395.983L103.677 395.628C103.138 395.773 101.904 395.702 101.57 396.092C101.979 395.885 101.764 395.643 101.341 395.56L100.775 396.107C98.5838 396.383 100.257 395.157 98.1218 395.294L99.7498 394.9C99.3908 394.984 98.6728 394.468 97.6478 394.622C97.2438 395.11 96.4888 395.692 96.1298 396.07C94.9198 396.269 95.6078 395.502 94.3978 395.995L95.9778 395.424C96.2108 395.249 94.9638 394.622 93.3428 394.553C92.2948 394.674 90.6258 395.304 92.2658 395.657C91.4408 395.621 90.3108 395.266 90.9858 394.938C89.1158 395.017 91.1958 395.481 89.5628 395.708C89.0988 395.369 87.0268 394.737 85.9038 394.184L87.5888 393.471L86.5118 393.388C87.9478 392.825 85.8448 392.835 86.6758 392.192C85.9488 392.033 85.0498 392.208 84.3258 392.339C86.3838 393.608 81.7928 393.696 82.3258 394.756C79.3298 394.825 80.7008 392.165 77.4928 393.487C77.9668 393.793 76.4458 394.442 78.3258 394.311C76.5088 394.04 76.9898 395.22 74.8768 394.614C76.5018 394.333 73.2668 393.432 75.6248 393.028C75.4438 393.35 76.8838 393.396 77.2538 393.337C76.5398 392.878 77.5048 392.323 75.6438 392.159C74.5018 392.152 72.9348 392.038 73.1088 392.588C73.0938 393.173 74.8518 392.677 74.0598 393.2C71.7688 393.205 71.4878 392.289 70.4368 393.237C71.8798 393.278 72.1758 393.911 72.1068 394.31L70.4108 394.403L70.7738 394.048C68.1328 393.529 69.9078 394.684 67.3368 394.333L66.2098 393.452C66.8978 392.854 69.9328 394.105 69.5888 392.991C67.9158 392.789 67.3008 393.275 65.7548 392.85L66.9578 392.746C66.3568 392.654 65.9148 391.178 63.4348 391.781C62.1618 391.986 63.0658 392.131 62.9928 392.531C60.2838 392.39 59.4378 392.721 57.6928 392.615C58.1408 391.871 54.6448 392.247 56.6478 391.633C57.4698 392.174 61.3728 392.504 62.4088 391.851C61.5298 390.831 64.5108 392.186 65.1858 391.3C63.0358 391.071 63.2468 390.171 62.9608 389.544C62.3728 389.443 61.7638 389.639 61.3908 389.694C61.0778 390.231 61.8618 390.298 61.8368 390.885C59.4488 390.499 57.0918 390.593 55.7058 391.007C54.9338 390.657 55.2538 390.117 56.2108 390.154C53.3308 390.044 50.2778 389.674 47.5838 389.238C49.2398 390.329 44.5308 389.162 45.6478 390.04C47.0768 390.389 48.2538 391.158 47.4028 391.493C46.4998 391.348 47.4768 391.094 47.1218 390.863C45.9038 391.25 45.4088 389.881 44.1848 390.565C46.8288 390.519 44.8158 389.498 45.3748 388.822C43.4508 389.049 45.5198 388.319 43.6518 388.142C41.7298 388.369 39.3908 388.47 37.2888 388.433C34.7388 387.502 30.6488 387.82 28.3098 387.669C27.1198 387.204 28.0328 386.456 26.7148 386.204C25.1528 386.092 27.7878 387.179 25.5098 386.617L25.7488 386.473C25.0358 386.604 21.5518 385.573 20.7708 386.687L21.5598 385.867C21.1378 385.747 20.7218 385.918 20.3568 385.996C20.3628 385.704 19.8828 385.413 20.6018 385.267C19.2208 384.573 17.5908 385.174 16.0398 385.105L16.9958 385.688C14.3128 385.937 12.5658 385.3 9.98883 385.332L10.0908 384.826L8.55083 385.088C8.95083 384.605 7.55683 384.244 6.72583 384.638L10.7878 383.513C11.8738 383.881 9.53483 384.059 10.2028 384.601C10.7668 385.08 13.1548 385.088 13.5698 384.62C12.6658 384.506 12.6108 384.615 11.8908 384.757C11.6368 384.028 13.0208 384.143 13.7408 383.706C13.2538 383.706 12.5848 383.445 12.4678 383.668C13.4338 383.379 14.3908 383.384 15.9558 383.464C14.8788 383.678 16.5038 383.942 16.0858 384.119C16.2598 383.5 17.7738 383.399 19.6978 383.696C21.0268 384.487 23.3768 383.508 25.6008 383.888C24.6308 384.445 23.4268 384.859 22.0438 385.005C23.4208 385.437 23.6078 385.11 24.9858 385.547C25.7078 385.134 26.2628 384.449 28.1248 384.309L28.1798 384.788C29.8618 384.679 29.9298 383.99 32.0358 384.294C35.6338 384.84 39.3568 385.194 42.1138 385.505L42.1658 385.98C43.8088 385.12 47.3248 386.089 49.4348 385.851C52.9028 386.641 57.1288 386.147 58.8308 387.123C65.0748 387.361 70.5278 387.541 76.9228 388.257L75.7718 388.84C76.9798 388.443 76.4878 389.298 77.6248 389.298C76.3778 388.639 79.2568 388.731 80.0898 388.387C82.8918 389.125 86.6108 388.797 89.1498 388.498L89.2278 388.975C91.8958 388.235 94.7478 389.169 97.9648 389.32C98.3278 389.518 98.8898 389.967 99.8448 389.93C101.577 389.162 102.48 389.201 104.996 388.71C106.847 388.693 109.86 388.785 111.751 389.047C118.702 387.764 125.861 388.121 133.113 387.151L133.676 387.674C140.696 386.192 149.395 386.824 155.694 386.324L155.061 387.252C156.936 387.515 159.682 387.215 159.266 386.524C160.02 388.38 162.328 382.985 164.956 392.211C163.2 395.108 160.927 395.2 160.424 395.076C158.429 395.444 158.207 396.142 156.619 396.71C152.622 397.471 151.221 397.946 147.503 398.669L148.44 398.571C148.81 398.3 148.758 397.902 147.822 397.997C146.48 398.489 142.674 398.599 144.25 399.476C140.175 399.618 134.953 400.944 130.979 400.485C131.331 400.781 130.346 400.866 129.954 401.085C126.442 401.182 122.743 400.686 119.967 401.228C119.418 401.071 120.845 400.717 119.434 400.668C118.592 400.772 119.417 401.07 118.38 401.227C112.72 401.762 107 400.439 101.948 400.357C92.9098 400.613 83.5918 399.776 75.1468 399.881L75.2478 399.656C72.4398 400.524 68.6138 398.764 66.3578 400.189C65.6788 400 63.7798 400.179 64.2648 399.724C62.0218 400.411 57.8838 399.374 54.6088 400.335L55.4228 400.17C52.0528 399.834 49.1728 400.667 45.5928 400.388C45.9408 400.272 46.5958 400.171 46.6848 399.94C45.2888 399.577 43.4968 401.047 42.6878 400C41.9068 400.047 42.1578 400.572 42.6398 400.516C34.8678 400.495 26.5518 401.439 18.1628 401.394C12.0808 400.145 17.9798 399.537 13.0818 399.867C12.7278 399.621 12.7338 400.249 12.7058 400.017C10.7978 400.217 10.0428 398.366 8.59183 398.549C8.94183 399.345 7.58283 398.656 7.39883 399.027C4.82683 398.039 5.43583 397.952 4.13483 397.511C3.53483 397.267 3.22383 397.223 2.36583 396.901C1.77583 396.277 -2.01117 395.702 1.42183 391.327C1.30283 391.547 1.05184 391.926 0.914836 392.299C5.94584 388.32 8.79783 389.644 11.7438 387.765C29.8378 385.424 47.4478 384.202 64.7678 383.657C81.9638 383.164 99.2238 381.036 117.706 384.029C119.808 384.92 120.904 385.379 122.103 385.687L124.094 386.081L124.709 386.166L125.042 386.214L125.083 386.221L125.094 386.222C124.084 379.95 126.482 394.767 126.238 393.243L126.231 393.246L126.209 393.255L126.131 393.297L125.974 393.384L124.532 394.183C124.632 393.967 124.897 393.81 124.517 393.826C124.71 394.588 121.371 395.331 121.279 396.168C114.606 398.843 108.464 400.387 101.608 401.374C102.685 401.13 103.102 400.446 101.83 400.683L100.572 401.363L100.316 401.185C99.4598 401.428 98.5578 401.94 99.5058 402.047C82.2668 405.031 65.3938 403.6 48.7988 403.561C44.8678 403.125 39.2448 403.299 34.9568 403.29L25.6798 402.161L23.4148 401.908L22.2778 401.786L21.7098 401.726L21.4288 401.699H21.4228C23.0488 407.309 19.1878 394.053 19.5918 395.412L19.6158 395.409L19.6598 395.388L19.7448 395.351L19.9238 395.273C21.8638 394.382 23.6588 393.808 24.9738 393.601C33.1218 393.726 35.6698 392.099 45.5048 392.011C44.9648 391.821 41.9558 393.507 37.3438 394.741Z" fill="#0B0B0B" fill-opacity="0.15"/>
<path d="M5.00486 382.97C5.44786 383.364 6.91686 383.609 5.72686 384.085C5.58786 383.722 4.84386 383.304 5.00486 382.97Z" fill="#0B0B0B" fill-opacity="0.15"/>
<path d="M43.7249 389.676C43.7839 389.571 44.2649 389.88 44.3839 389.953C43.8969 389.938 43.4109 390.215 43.0479 389.983C43.5399 389.997 43.4879 389.816 43.7249 389.676Z" fill="#0B0B0B" fill-opacity="0.15"/>
<path d="M53.6548 390.862C53.4698 391.18 51.3078 391.244 50.0498 391.157L53.6548 390.862Z" fill="#0B0B0B" fill-opacity="0.15"/>
<path d="M62.7889 393.138C63.5599 393.495 63.3219 393.632 62.2449 393.518C62.1859 393.334 62.5519 393.279 62.7889 393.138Z" fill="#0B0B0B" fill-opacity="0.15"/>
<path d="M63.5378 392.439C64.3068 392.502 64.6668 392.739 65.0238 392.963C65.0308 392.674 63.2138 392.977 63.5378 392.439Z" fill="#0B0B0B" fill-opacity="0.15"/>
<path d="M83.7229 395.172C84.2209 395.182 85.3038 394.976 85.7368 395.383C85.2438 395.085 83.2999 395.641 83.7229 395.172Z" fill="#0B0B0B" fill-opacity="0.15"/>
<path d="M93.3069 395.241L94.1199 395.273C94.6879 395.441 94.0739 395.676 93.5809 395.677L93.3069 395.241Z" fill="#0B0B0B" fill-opacity="0.15"/>
<path d="M59.7559 393.779L60.7759 393.576L60.6389 393.916L59.7559 393.779Z" fill="#0B0B0B" fill-opacity="0.15"/>
<path d="M19.4608 393.384C20.4388 393.084 20.1938 393.637 20.3648 393.671C19.4648 393.785 20.6568 393.23 19.4608 393.384Z" fill="#0B0B0B" fill-opacity="0.15"/>
<path d="M59.6278 389.591L59.3138 389.616L59.3928 388.919L59.6278 389.591Z" fill="#0B0B0B" fill-opacity="0.15"/>
<path d="M433.512 382.519C435.206 382.247 432.598 381.584 434.62 382.081C434.391 382.519 434.065 382.86 433.512 382.519Z" fill="#0B0B0B" fill-opacity="0.15"/>
<path d="M396.264 400.265C399.049 399.909 402.328 400.122 405.417 401.253C406.215 401.645 406.855 402.67 407.577 403.332C407.625 403.122 406.248 404.028 405.668 404.351C404.157 405.423 402.601 405.96 401.172 407.028C400.483 407.386 401.209 405.488 399.684 406.338C394.08 410.348 384.668 409.481 377.68 407.062L378.114 406.664C376.784 406.213 375.096 407.512 373.673 407.139C373.673 406.859 374.143 406.785 373.827 406.36C373.44 407.169 371.237 406.339 370.606 406.888C370.054 406.454 370.143 405.773 369.435 405.272L368.574 406.131C366.177 407.977 363.077 404.886 359.923 405.113C360.094 404.926 360.409 404.837 360.184 404.546C355.122 404.656 348.972 402.055 343.505 399.595C343.769 399.383 344.057 398.864 343.802 398.313C343.392 399.129 341.661 398.645 340.207 397.797C339.77 396.27 337.562 397.258 336.038 395.221L336.227 395.117C334.78 395.108 334.581 393.033 333.297 393.365L332.768 391.788C332.413 391.912 330.091 390.624 331.411 387.446L331.337 387.161C332.289 386.364 332.913 386.881 333.808 386.234L333.915 386.361C336.044 384.922 337.401 385.541 337.255 384.398C338.101 385.145 335.156 385.339 336.484 386.402C343.572 383.026 351.169 383.541 358.433 384.061C359.247 384.612 359.773 384.799 359.947 385.263C360.683 385.066 362.691 385.308 363.372 384.786C363.126 384.783 363.82 385.454 364.207 385.555C365.514 386.155 365.693 384.416 367.131 385.119C366.54 385.368 366.328 385.729 366.508 386.193C367.776 385.402 369.434 385.767 370.904 385.645C370.673 385.817 370.313 385.887 370.356 386.268C371.992 385.414 373.273 386.867 374.696 386.356L374.149 386.987C376.388 388.053 374.861 385.621 376.8 386.313C376.322 386.48 376.484 386.766 376.388 387.038C378.256 386.033 381.161 386.651 383.009 386.268L382.925 386.547C384.92 386.534 386.986 387.116 389.185 386.84C389.972 387.237 388.872 388.461 390.976 388.49C390.949 387.11 394.556 388.407 393.382 386.686C395.169 387.175 397.982 388.119 399.196 387.878C398.368 388.258 399.989 389.705 398.494 389.562L399.579 390.589C399.386 391.117 398.433 390.197 398.76 390.969C399.503 391.04 401.697 390.875 402.347 391.22C403.768 390.664 405.121 389.303 407.366 389.613C406.287 389.925 407.876 391.253 407.15 391.329L410.418 389.388C411.17 389.496 410.514 390.505 411.606 390.405C411.58 390.034 412.061 389.926 412.409 389.707C412.679 389.914 415.532 390.139 415.755 391.593C416.041 392.208 414.522 391.544 415.311 392.243C416.673 392.624 416.772 392.135 418.145 392.558L418.156 392.745C419.037 393.23 420.866 393.032 419.957 391.975C419.33 391.732 420.121 392.858 419.221 392.166C419.924 391.559 421.561 391.955 422.967 392.521C422.461 392.535 422.477 392.917 422.245 393.211C423.334 393.247 424.047 392.857 425.644 394.147C428.31 404.365 423.101 401.41 423.41 402.778C423.448 403.414 424.055 401.396 424.393 401.638C421.66 401.541 419.033 404.524 416.706 403.88C417.056 403.663 416.97 404.735 416.933 404.561C415.646 404.867 415.631 403.919 414.825 404.508C414.703 403.987 413.792 404.998 412.942 405.415C412.523 405.941 412.703 405.215 413.447 404.936C412.294 405.975 407.519 407.717 404.708 407.101C404.779 407.455 403.059 408.634 402.416 408.678L402.635 407.801C402.033 407.362 400.498 408.134 400.369 407.426C399.045 408.619 405.582 405.899 403.765 406.917C403.265 406.272 401.245 408.588 401.605 407.384C400.326 407.58 399.109 408.686 397.865 408.044C398.224 408.134 398.87 406.737 397.842 406.929C396.029 407.307 397.338 407.4 395.865 407.862L394.944 408.322C394.902 409.168 393.322 408.288 394.011 409.181C393.775 408.506 391.379 409.712 391.544 408.332L391.78 407.242C390.997 407.352 390.51 408.428 389.901 408.932C389.794 408.83 389.587 408.619 389.624 408.449C389.52 410.11 387.747 408.385 386.831 409.7C385.177 409.186 382.645 409.811 381.854 408.815C380.596 409.359 379.441 410.012 378.004 409.684C378.291 409.52 378.682 409.464 378.761 409.103C377.858 408.641 377.635 409.076 376.814 409.368C376.993 409.113 375.002 408.44 373.995 407.879C372.749 408.4 373.184 409.282 373.06 409.838C371.903 408.228 369.536 410.973 368.088 409.521C368.522 409.283 369.909 408.678 368.863 408.288C367.701 406.687 366.57 409.547 364.706 408.809L365.179 410.153C364.335 409.338 362.452 410.996 362.627 409.611C362.01 410.115 360.439 409.213 360.65 410.525C357.601 409.521 353.236 411.257 351.369 408.866C350.93 409.094 349.841 408.858 350.061 409.54C350.783 410.283 351.08 409.016 351.349 409.526C350.953 409.556 350.868 409.924 350.824 410.107C349.877 409.794 349.136 409.692 350.033 408.599C347.933 407.783 347.85 410.807 345.167 410.185C345.293 409.649 345.091 409.431 344.303 409.484L342.803 410.354C341.067 410.066 341.83 409.067 341.803 408.141C340.873 408.26 339.742 408.179 339.308 408.842L338.205 407.58C339.012 408.488 337.432 408.069 336.992 408.26L337.431 408.07C337.271 407.661 336.196 407.813 335.648 407.889C335.765 408.472 336.855 408.789 337.45 409.01C336.969 409.373 336.232 409.216 335.592 409.649C335.822 408.754 334.096 408.866 333.362 408.712C332.522 408.441 332.385 409.447 332.14 409.391C332.129 408.92 330.762 409.197 331.436 408.588C331.729 408.472 332.088 409.104 332.574 408.732C332.026 408.333 332.116 407.516 330.942 408.019C330.055 408.379 331.113 409.865 329.476 409.067C329.918 408.903 330.008 408.558 330.357 408.279L328.825 407.594L328.731 408.412C328.528 408.172 328.674 408.114 328.585 407.998C328.095 408.8 326.212 407.939 325.825 408.865C325.036 408.848 324.198 408.069 323.456 407.879L323.604 407.825C322.71 407.204 321.489 407.39 320.698 407.794L320.746 407.623C320.251 407.455 319.076 407.352 318.427 407.705C317.199 406.84 318.165 404.522 316.724 405.281C315.454 405.049 314.642 406.392 315.124 407.014C312.87 406.077 310.177 406.737 308.147 404.842C307.793 405.081 307.987 405.343 307.295 405.347C303.957 404.227 300.109 404.152 297.611 401.524C298.614 401.54 297.761 400.736 297.79 400.266C296.918 400.698 296.912 399.158 296.498 400.293C296.498 401.06 296.375 401.381 297.285 402.025C295.888 401.436 295.851 402.417 293.003 400.09C292.672 398.388 289.844 399.319 291.857 389.796C292.917 388.224 293.512 388.3 294.085 387.978C292.98 388.442 293.856 387.435 294.44 386.968C294.408 388.212 296.121 387.748 297.272 387.156L297.399 386.413L298.196 387.047C298.63 386.751 298.634 385.45 299.818 385.988C299.883 386.264 299.96 386.544 300.172 386.742C301.322 386.084 302.998 384.917 304.266 385.525L305.313 386.558C305.85 386.435 306.761 385.774 305.803 385.492C307.973 386.065 309.35 386.189 310.033 387.098C313.739 384.871 319.103 384.921 323.381 385.186L323.248 385.727C324.394 386.264 323.853 384.794 324.649 385.192C324.278 385.693 325.517 386.338 324.612 386.952C326.254 387.561 326.738 386.065 327.805 385.841C327.974 385.123 326.947 386.276 327.158 385.373C327.342 385.123 329.422 385.976 329.682 384.894C330.092 385.333 329.771 386.119 329.544 386.553L330.55 386.047C331.771 387.33 327.742 388.255 329.027 389.828L329.951 389.672C330.834 390.824 327.494 390.906 329.82 391.342C330.834 390.824 331.695 389.269 330.803 388.777C332.904 388.512 331.785 386.229 334.03 386.337C334.642 386.969 332.233 386.477 332.663 387.36C333.719 388.241 334.791 386.892 335.732 387.202C334.685 386.792 335.568 385.693 336.247 385.505C337.389 386.021 335.502 386.526 337.123 386.637C337.389 386.03 338.871 385.522 337.588 385.116C338.167 383.686 339.266 385.477 340.14 384.367C340.666 385.351 338.489 386.697 340.265 387.159C339.979 386.213 342.445 385.819 341.496 384.413C342.189 384.683 342.269 385.429 341.77 386.03C342.769 386.586 344.138 384.153 344.492 386.049L344.813 385.049C345.127 385.352 345.57 385.57 346.085 386.067C346.958 386.022 348.812 384.455 348.782 385.951C348.996 385.776 351.091 385.604 350.288 384.673C348.915 384.206 348.876 385.572 348.128 384.27C348.963 385.306 349.944 383.93 350.642 383.467L350.773 384.028C351.193 383.759 352.179 383.764 352.425 383.114C352.108 383.482 352.292 383.85 352.632 383.949L353.052 383.025C354.773 382.379 353.513 384.501 355.197 384.032L353.934 384.875C354.211 384.691 354.816 385.431 355.617 385.051C355.906 384.218 356.462 383.19 356.707 382.545C357.65 382.071 357.168 383.379 358.08 382.439L356.887 383.559C356.707 383.842 357.759 384.766 359.038 384.562C359.843 384.173 361.065 382.854 359.763 382.596C360.405 382.492 361.319 382.854 360.834 383.505C362.273 383.026 360.607 382.672 361.84 382.008C362.371 382.473 364 382.994 364.989 383.625L363.734 385.141L364.601 385.021C363.517 386.251 365.205 385.753 364.612 386.964C365.215 387.05 365.924 386.568 366.483 386.198C364.679 384.651 368.337 383.468 367.767 381.903C370.129 381.111 369.413 385.663 371.794 382.752C371.37 382.379 372.493 380.965 371.012 381.655C372.497 381.618 371.956 379.87 373.727 380.295C372.458 381.152 375.181 381.746 373.349 382.994C373.454 382.436 372.289 382.733 372.013 382.927C372.643 383.468 371.95 384.597 373.464 384.374C374.384 384.087 375.653 383.868 375.435 383.041C375.361 382.11 374.027 383.351 374.582 382.312C376.411 381.715 376.775 383.1 377.474 381.323C376.312 381.626 375.982 380.708 375.982 380.059L377.318 379.47L377.082 380.13C379.271 380.265 377.682 378.906 379.789 378.773L380.828 379.859C380.365 380.991 377.747 379.831 378.191 381.506C379.559 381.369 379.978 380.429 381.286 380.681L380.336 381.169C380.828 381.159 381.408 383.378 383.303 381.752C384.291 381.092 383.545 381.099 383.545 380.457C385.738 379.939 386.37 379.185 387.779 378.888C387.534 380.185 390.283 378.652 388.769 380.162C388.025 379.524 384.845 380.058 384.119 381.369C384.977 382.751 382.383 381.412 381.973 382.987C383.732 382.769 383.704 384.244 384.025 385.172C384.519 385.172 384.977 384.691 385.259 384.5C385.435 383.567 384.792 383.67 384.724 382.741C386.695 382.704 388.572 381.93 389.622 380.895C390.298 381.245 390.122 382.18 389.349 382.377C391.673 381.777 394.179 381.554 396.413 381.523C394.919 380.24 398.876 380.831 397.852 379.742C396.649 379.574 395.583 378.656 396.221 377.91C396.965 377.901 396.215 378.552 396.541 378.829C397.46 377.892 398.059 379.918 398.947 378.517C396.824 379.287 398.597 380.374 398.248 381.588C399.761 380.726 398.21 382.422 399.734 382.217C401.248 381.368 403.115 380.613 404.817 380.136C407.002 380.957 410.252 379.45 412.17 379.184C413.193 379.658 412.553 381.047 413.649 381.146C414.926 380.969 412.657 379.841 414.567 380.218L414.393 380.505C414.959 380.129 417.889 380.989 418.391 379.058L417.85 380.537C418.209 380.641 418.526 380.277 418.813 380.093C418.84 380.554 419.264 380.935 418.7 381.294C419.892 382.154 421.141 380.882 422.411 380.722L421.571 379.955C423.731 379.1 425.208 379.808 427.308 379.34L427.26 380.168L428.504 379.601C428.208 380.42 429.366 380.865 430.018 380.157L426.803 382.372C425.891 381.963 427.768 381.306 427.188 380.538C426.694 379.859 424.75 380.257 424.458 381.079C425.204 381.1 425.231 380.92 425.808 380.57C426.076 381.697 424.945 381.748 424.404 382.562C424.793 382.481 425.355 382.779 425.43 382.406C424.675 383.037 423.912 383.189 422.638 383.331C423.488 382.806 422.154 382.656 422.468 382.302C422.392 383.316 421.186 383.76 419.605 383.636C418.446 382.586 416.671 384.692 414.837 384.588C415.548 383.483 416.468 382.545 417.568 382.018C416.403 381.619 416.288 382.189 415.13 381.807C414.597 382.634 414.237 383.842 412.757 384.485L412.653 383.739C411.313 384.284 411.346 385.391 409.62 385.402C406.658 385.399 403.615 385.791 401.362 386.006L401.249 385.274C400.056 387.038 397.099 386.422 395.438 387.378C392.536 387.038 389.231 388.969 387.711 387.884C382.663 389.18 378.26 390.398 373.001 390.885L373.84 389.661C372.93 390.6 373.203 389.116 372.288 389.415C373.383 390.132 371.054 390.729 370.431 391.489C368.059 390.985 365.09 392.337 363.049 393.403L362.941 392.661C360.895 394.354 358.346 393.48 355.725 393.583C355.413 393.31 354.914 392.669 354.139 392.854C352.778 394.243 351.969 394.248 349.985 395.236C348.434 395.417 345.905 395.384 344.348 394.945C338.59 396.955 332.718 395.763 326.766 396.668L326.342 395.772C320.56 397.53 313.488 395.587 308.606 396.583L309.079 395.076C307.542 394.575 305.591 395.516 305.991 396.575C304.444 396.109 302.197 397.417 301.222 396.261C299.659 396.056 299.377 397.154 298.147 397.512C296.911 397.351 295.26 397.893 295.595 397.739C294.283 393.76 293.813 394.477 296.106 391.131C295.997 390.888 295.009 390.208 296.491 390.807L295.788 390.45C295.434 390.655 295.331 391.28 296.043 391.642C297.166 391.621 299.958 393.504 299.071 391.332C302.028 393.627 306.305 393.017 309.229 395.148C309.007 394.592 309.776 394.71 310.117 394.465C312.829 395.293 315.673 396.714 317.903 396.351C318.329 396.691 317.165 397.054 318.28 397.327C318.956 397.269 318.329 396.691 319.157 396.576C323.639 396.535 328.151 398.929 332.237 399.146C339.505 398.878 347.065 399.761 354.038 399.56L353.958 399.918C356.288 398.583 359.437 401.31 361.297 399.183C361.847 399.511 363.4 399.298 362.999 400.006C364.843 398.991 368.224 400.806 370.923 399.5L370.247 399.716C372.987 400.455 375.393 399.305 378.284 399.962C377.99 400.119 377.458 400.249 377.374 400.612C378.495 401.285 380.011 399.019 380.623 400.741C381.255 400.696 381.071 399.832 380.68 399.907C386.95 400.196 393.695 399.312 400.113 397.841C404.777 398.306 400.496 400.741 404.113 398.991C404.424 399.286 404.302 398.295 404.361 398.645C405.758 397.985 406.664 400.316 407.607 399.286C407.15 398.265 408.234 398.612 408.23 397.949C411.103 398.313 411.692 398.743 413.852 397.391L413.724 398.002C416.19 395.653 419.247 395.611 421.228 393.169C421.796 393.008 423.68 392.353 423.167 392.578C422.302 390.989 424.863 397.603 424.58 397.148C424.888 397.611 424.076 398.961 422.892 402.108C423.226 402.516 422.987 402.233 422.53 402.071C421.166 401.364 419.321 400.838 417.628 400.364C414.157 399.468 410.634 398.76 407.116 398.196C400.082 397.026 393.038 396.222 386.004 395.579C371.866 394.791 357.871 391.805 344.133 392.239C340.845 390.98 340.628 391.438 337.171 392.684C337.294 392.414 337.512 392.311 337.255 392.142C337.147 393.231 334.907 393.231 334.709 394.461L332.945 395.155L332.077 395.509L332.048 395.514C331.812 398.293 334.077 371.297 333.12 382.734H333.124L333.128 382.743L333.138 382.753L333.185 382.798L333.275 382.897L333.45 383.09L333.804 383.484C334.738 384.529 335.629 385.63 336.761 386.433C338.855 388.278 341.214 389.681 343.689 391.155C342.874 390.842 342.318 391.58 343.283 392.02L344.388 391.81L344.501 392.227C345.181 392.409 345.968 392.206 345.354 391.466C358.146 396.923 371.337 402.222 384.472 402.153C387.591 402.702 392 401.901 395.296 401.081C397.745 400.92 400.153 400.767 402.438 400.092C403.63 399.91 404.668 399.297 405.767 398.828L406.584 398.457L406.785 398.365L406.839 398.335C406.974 396.299 405.687 416.104 406.23 407.721L406.225 407.709L406.22 407.704L406.2 407.692L406.139 407.618L405.884 407.34C405.483 406.979 405.373 406.485 404.735 406.087C401.612 403.601 394.522 406.679 390.956 399.19C391.768 406.87 391.212 397.935 396.264 400.265Z" fill="#0B0B0B" fill-opacity="0.15"/>
<path d="M431.477 382.679C431.108 382.067 429.911 381.817 430.853 380.947C430.98 381.51 431.592 382.127 431.477 382.679Z" fill="#0B0B0B" fill-opacity="0.15"/>
<path d="M399.445 379.814C399.407 380.001 398.984 379.627 398.875 379.548C399.268 379.444 399.614 378.889 399.945 379.163C399.546 379.251 399.614 379.538 399.445 379.814Z" fill="#0B0B0B" fill-opacity="0.15"/>
<path d="M391.28 380.582C391.388 380.021 393.115 379.347 394.138 379.145L391.28 380.582Z" fill="#0B0B0B" fill-opacity="0.15"/>
<path d="M383.611 379.433C382.941 379.072 383.109 378.799 383.988 378.691C384.067 378.962 383.783 379.15 383.611 379.433Z" fill="#0B0B0B" fill-opacity="0.15"/>
<path d="M383.121 380.741C382.49 380.847 382.164 380.577 381.85 380.309C381.887 380.772 383.297 379.811 383.121 380.741Z" fill="#0B0B0B" fill-opacity="0.15"/>
<path d="M366.601 381.556C366.209 381.654 365.37 382.224 364.979 381.68C365.408 382.035 366.873 380.723 366.601 381.556Z" fill="#0B0B0B" fill-opacity="0.15"/>
<path d="M358.997 383.445L358.361 383.549C357.902 383.357 358.361 382.899 358.744 382.796L358.997 383.445Z" fill="#0B0B0B" fill-opacity="0.15"/>
<path d="M366.529 409.733L365.703 410.02L365.822 409.485L366.529 409.733Z" fill="#0B0B0B" fill-opacity="0.15"/>
<path d="M423.943 391.94C422.999 391.781 423.381 391.111 423.236 390.953C424.07 391.339 422.848 391.437 423.943 391.94Z" fill="#0B0B0B" fill-opacity="0.15"/>
<path d="M390.677 386.904L390.929 386.923L390.811 388.021L390.677 386.904Z" fill="#0B0B0B" fill-opacity="0.15"/>
<path d="M384.724 387.362L383.335 371.203" stroke="#2BB673" stroke-linecap="round"/>
<path d="M369.716 371.299L370.009 390.15" stroke="#2BB673" stroke-linecap="round"/>
<path d="M323.623 386.471L325.039 371.351" stroke="#2BB673" stroke-linecap="round"/>
<path d="M374.045 356.686C374.045 356.686 385.171 378.385 399.72 382.885C414.272 387.388 444.324 382.228 444.324 382.228C444.324 382.228 418.68 395.673 399.554 391.556C387.55 388.971 382.106 388.671 364.361 369.077C362.418 366.926 358.964 364.416 358.964 364.416L374.045 356.686Z" fill="#956599"/>
<path d="M398.593 391.452C400.951 389.704 403.814 387.217 407.039 383.712C403.502 383.476 400.174 383.043 397.441 382.312C394.121 385.129 391.144 387.207 388.758 388.684C392.198 389.876 395.464 390.591 398.593 391.452Z" fill="#9D68A0"/>
<path d="M390.152 389.348C393.153 387.535 396.706 385.102 400.637 381.871C399.546 381.602 398.522 381.294 397.602 380.944C395.22 380.041 392.921 378.721 390.752 377.169C386.467 380.083 382.515 382.365 379.214 384.097C383.026 386.556 386.66 388.152 390.152 389.348Z" fill="#AE7DAF"/>
<path d="M383.542 368.106C379.063 371.336 372.271 375.06 368.601 377.131C372.08 380.451 377.025 382.898 380.243 384.836C383.773 383.072 388.123 380.101 392.528 376.951C388.937 374.595 386.359 371.135 383.542 368.106Z" fill="#9D68A0"/>
<path d="M384.644 367.537C380.74 363.39 377.921 358.531 376.196 355.976C371.6 359.497 362.836 362.131 358.964 364.415C357.317 365.713 365.636 374.56 369.405 378.103C373 376.037 380.102 370.825 384.644 367.537Z" fill="#AE7DAF"/>
<path d="M410.337 250.71C410.337 250.71 415.839 248.312 415.487 248.261C415.132 248.207 408.01 247.762 408.01 247.762L410.337 250.71Z" fill="#F59FBB"/>
<path d="M406.757 246.267C406.757 246.267 411.284 241.204 410.928 241.197C410.574 241.194 403.916 243.518 403.916 243.518L406.757 246.267Z" fill="#F59FBB"/>
<path d="M400.722 239.878C400.722 239.878 403.26 234.849 402.906 234.84C402.544 234.834 397.752 238.197 397.752 238.197L400.722 239.878Z" fill="#F59FBB"/>
<path d="M370.282 264.064C370.282 264.064 382.845 262.228 387.382 259.001C391.929 255.779 396.836 249.14 396.836 249.14C396.836 249.14 396.259 246.516 397.022 241.757C397.325 239.861 397.913 237.362 397.913 237.362C397.913 237.362 403.729 241.873 408.138 247.029C409.699 248.855 410.338 250.71 410.338 250.71C410.338 250.71 409.145 252.812 406.216 253.476C403.429 254.113 401.091 254.487 401.091 254.487C401.091 254.487 395.731 261.763 387.383 267.287C379.034 272.808 373.427 273.416 371.403 273.589C369.368 273.756 370.282 264.064 370.282 264.064Z" fill="#956599"/>
<path d="M306.508 252.928C306.508 252.928 321.426 254.742 337.332 251.999C353.247 249.258 362.338 236.27 362.338 236.27C362.338 236.27 368.575 236.389 369.064 239.392C369.552 242.392 360.113 243.825 360.113 243.825C360.113 243.825 366.822 247.519 361.53 251.674C356.892 255.32 352.672 250.514 352.672 250.514C352.672 250.514 354.61 255.784 349.659 258.007C344.709 260.231 342.134 254.572 342.134 254.572C342.134 254.572 341.649 261.925 338.04 261.439C334.436 260.952 332.39 256.796 332.39 256.796C332.39 256.796 332.352 263.758 327.612 263.244C322.869 262.727 323.388 257.347 323.388 257.347C323.388 257.347 320.538 263.843 316.67 262.868C312.793 261.894 313.676 256.796 313.676 256.796C313.676 256.796 307.799 263.896 304.91 260.38C302.016 256.868 306.508 252.928 306.508 252.928Z" fill="white"/>
<path d="M311.456 380.917C311.456 380.917 305.74 381.662 306.066 381.776C306.388 381.9 313.011 383.705 313.011 383.705L311.456 380.917Z" fill="#F59FBB"/>
<path d="M313.681 384.474C313.681 384.474 307.26 387.899 307.636 387.997C308.009 388.106 315.693 387.489 315.693 387.489L313.681 384.474Z" fill="#F59FBB"/>
<path d="M316.949 389.975C316.949 389.975 312.855 394.597 313.237 394.701C313.614 394.802 319.611 392.577 319.611 392.577L316.949 389.975Z" fill="#F59FBB"/>
<path d="M354.401 386.024C354.401 386.024 348.064 387.653 348.44 387.736C348.821 387.833 356.541 388.952 356.541 388.952L354.401 386.024Z" fill="#F59FBB"/>
<path d="M357.528 390.056C357.528 390.056 351.103 393.491 351.479 393.595C351.855 393.698 359.541 393.085 359.541 393.085L357.528 390.056Z" fill="#F59FBB"/>
<path d="M361.004 395.025C361.004 395.025 356.92 399.64 357.299 399.745C357.673 399.852 363.674 397.619 363.674 397.619L361.004 395.025Z" fill="#F59FBB"/>
<path d="M364.758 244.563L303.416 262.779C303.87 271.869 304.97 289.06 304.97 289.06C304.97 289.06 327.916 303.119 349.12 308.696C373.53 315.12 395.417 309.785 395.417 309.785C395.417 309.785 393.417 278.392 372.889 254.092C369.795 250.437 367.07 247.338 364.758 244.563Z" fill="#956599"/>
<path d="M322.846 354.493V381.567C322.846 381.567 309.77 378.044 311.025 380.85C312.276 383.643 318.536 392.734 318.536 392.734C318.536 392.734 330.64 392.923 329.977 388.015C329.312 383.102 329.742 361.226 329.742 361.226" fill="#956599"/>
<path d="M312.368 340.884C316.481 359.964 318.881 369.787 343.015 369.787C378.391 369.787 382.1 346.773 382.1 346.773L312.368 340.884Z" fill="#956599"/>
<path d="M358.523 218.092C358.523 218.092 368.139 207.363 382.419 208.338C396.704 209.311 411.131 213.583 408.869 217.206C406.604 220.828 404.087 226.985 390.496 232.413C376.904 237.835 357.614 233.321 357.614 233.321L358.523 218.092Z" fill="#AE7DAF"/>
<path d="M326.113 192.472C326.459 191.245 322.652 179.806 333.558 170.603C344.462 161.4 361.162 153.904 360.141 159.019C359.116 164.128 353.882 179.462 347.808 186.278C341.734 193.095 336.267 197.527 336.267 197.527L326.113 192.472Z" fill="#AE7DAF"/>
<path d="M365.139 350.327V384.498C365.139 384.498 353.318 383.773 354.576 386.573C355.827 389.374 363.674 398.46 363.674 398.46C363.674 398.46 372.939 395.86 372.272 390.946C371.603 386.026 372.865 349.725 372.865 349.725" fill="#956599"/>
<path d="M358.555 222.886C358.555 222.886 368.172 217.407 374.909 217.701C381.649 217.991 384.157 220.247 384.157 220.247C384.157 220.247 374.685 226.556 369.583 226.692C363.61 226.85 358.555 222.886 358.555 222.886Z" fill="#F59FBB"/>
<path d="M327.836 194.364C327.836 194.364 331.053 183.779 336.149 179.353C341.249 174.936 344.617 174.846 344.617 174.846C344.617 174.846 342.071 185.946 338.468 189.545C334.237 193.762 327.836 194.364 327.836 194.364Z" fill="#F59FBB"/>
<path d="M282.642 207.091C293.622 203.371 310.87 190.923 320.448 190.923C330.023 190.923 347.232 200.404 353.576 207.091C357.618 211.351 361.53 220.066 360.111 229.646C359.256 235.416 361.559 240.131 366.119 246.044L351.582 257.49L318.387 267.39C318.387 267.39 310.285 267.454 302.561 267.466C302.543 264.165 302.534 261.642 302.534 260.667C302.534 256.401 231.28 235.108 219.554 225.709C208.335 216.706 242.833 220.57 282.642 207.091Z" fill="#AE7DAF"/>
<path d="M338.865 219.286C340.667 224.749 338.291 232.158 331.873 234.274C327.062 235.861 318.848 232.707 319.039 224.779C319.185 218.666 322.318 214.594 327.132 213.003C331.939 211.418 337.063 213.824 338.865 219.286Z" fill="white"/>
<path d="M329.198 224.312C329.513 225.281 330.559 225.809 331.53 225.486C332.491 225.164 333.025 224.124 332.708 223.155C332.386 222.189 331.343 221.666 330.372 221.984C329.406 222.31 328.874 223.346 329.198 224.312Z" fill="#231F20"/>
<path d="M304.39 196.127C305.782 200.334 303.026 206.4 298.098 208.026C294.39 209.254 288.975 206.457 289.122 200.355C289.24 195.649 291.648 192.509 295.353 191.29C299.055 190.069 303.004 191.919 304.39 196.127Z" fill="white"/>
<g opacity="0.8">
<g opacity="0.8">
<path opacity="0.8" d="M289.714 203.792C289.315 202.804 289.096 201.652 289.13 200.351C289.24 195.65 291.649 192.508 295.354 191.29C299.056 190.069 303.004 191.919 304.39 196.127" fill="white"/>
<path opacity="0.8" d="M289.714 203.792C289.315 202.804 289.096 201.652 289.13 200.351C289.24 195.65 291.649 192.508 295.354 191.29C299.056 190.069 303.004 191.919 304.39 196.127" stroke="#D3D2C2" stroke-width="0.24" stroke-linecap="round"/>
</g>
</g>
<path d="M295.574 201.48C295.83 202.226 296.63 202.63 297.386 202.381C298.129 202.134 298.531 201.332 298.288 200.588C298.042 199.847 297.235 199.444 296.49 199.686C295.746 199.931 295.341 200.734 295.574 201.48Z" fill="#231F20"/>
<path d="M229.81 217.677C217.711 219.53 212.056 220.927 217.78 225.518C219.984 227.288 224.23 229.459 229.671 231.864C230.118 227.4 230.25 222.22 229.81 217.677Z" fill="#F59FBB"/>
<path d="M307.878 225.241C307.878 214.747 316.967 205.093 328.005 206.209C344.096 207.845 360.183 225.289 360.183 225.289C360.183 225.289 340.536 244.452 327.128 243.187C314.211 241.971 307.878 233.141 307.878 225.241ZM328.005 210.407C319.22 210.407 312.081 217.058 312.081 225.241C312.081 233.42 320.021 238.387 328.81 238.387C336.608 238.387 348.768 229.412 351.821 225.601C346.633 220.512 334.894 210.407 328.005 210.407Z" fill="#F7941E"/>
<path d="M295.511 215.443C286.29 215.443 278.797 208.345 278.797 199.617C278.797 191.16 294.42 175.691 294.42 175.691C294.42 175.691 312.226 191.302 312.226 199.617C312.226 208.346 304.723 215.443 295.511 215.443ZM294.925 181.862C291.75 183.29 282.991 193.228 282.991 199.617C282.991 206.03 288.612 211.245 295.511 211.245C302.413 211.245 308.031 206.03 308.031 199.617C308.03 195.031 300.304 186.601 294.925 181.862Z" fill="#F7941E"/>
<path d="M314.103 215.091C312.152 213.913 306.881 210.759 305.845 210.233L307.75 206.494C309.1 207.182 315.54 211.055 316.27 211.499L314.103 215.091Z" fill="#F7941E"/>
<path d="M303.214 303.359C303.214 303.359 318.311 315.563 353.642 322.63C370.212 325.941 394.795 323.717 394.795 323.717L395.627 307.482C395.627 307.482 370.682 309.842 347.962 304.687C316.808 297.62 303.853 286.653 303.853 286.653L303.214 303.359Z" fill="#AE7DAF"/>
<path d="M304.234 316.132C304.234 316.132 318.42 330.566 352.931 334.994C369.916 337.173 390.948 334.206 390.948 334.206L392.795 323.612C392.795 323.612 370.87 325.554 347.652 320.678C320.739 315.016 304.722 303.737 304.722 303.737L304.234 316.132Z" fill="#9D68A0"/>
<path d="M306.802 329.918C306.802 329.918 320.126 340.283 350.967 343.447C367.695 345.163 386.221 342.542 386.221 342.542L389.128 334.376C389.128 334.376 366.821 337.258 346.163 332.854C322.197 327.748 306.802 317.158 306.802 317.158V329.918Z" fill="#AE7DAF"/>
<path d="M311.065 343.249C311.065 343.249 320.975 351.399 351.993 351.369C368.811 351.355 382.179 348.49 382.179 348.49L384.893 342.538C384.893 342.538 367.275 344.404 346.254 342.152C321.873 339.538 309.531 331.54 309.531 331.54L311.065 343.249Z" fill="#9D68A0"/>
<path d="M302.375 261.992C302.375 261.992 318.799 263.983 336.329 260.968C353.848 257.95 364.085 243.251 364.085 243.251C364.085 243.251 370.734 243.772 371.266 247.08C371.807 250.388 361.414 251.964 361.414 251.964C361.414 251.964 368.804 256.034 362.971 260.608C357.86 264.618 353.213 259.331 353.213 259.331C353.213 259.331 355.35 265.138 349.897 267.584C344.442 270.028 341.607 263.801 341.607 263.801C341.607 263.801 341.071 271.9 337.107 271.359C333.13 270.822 330.881 266.246 330.881 266.246C330.881 266.246 330.841 273.92 325.618 273.352C320.393 272.785 320.965 266.858 320.965 266.858C320.965 266.858 317.825 274.014 313.56 272.935C309.294 271.863 310.266 266.246 310.266 266.246C310.266 266.246 303.801 274.07 300.615 270.195C297.429 266.327 302.375 261.992 302.375 261.992Z" fill="white"/>
<path d="M296.308 239.697C296.308 239.697 296.847 247.505 301.151 247.234C305.464 246.966 305.732 238.619 305.732 238.619" stroke="#231F20" stroke-width="0.76" stroke-linecap="round"/>
<path d="M126.317 183.788L126.835 191.667" stroke="#231F20" stroke-width="0.6"/>
<path d="M131.734 182.361L133.031 191.691" stroke="#231F20" stroke-width="0.6"/>
<path d="M122.002 182.755L120.304 190.156" stroke="#231F20" stroke-width="0.6"/>
<path d="M119.927 241.546C112.093 208.731 95.4356 158.277 92.4936 136.243C89.5556 114.201 90.5346 104.932 88.0876 91.7121C85.6366 78.4831 81.7206 73.5881 84.6586 71.6311C87.5976 69.6681 95.0886 73.9491 106.84 69.5411C118.593 65.1321 132.659 42.7311 127.272 41.7501C121.886 40.7681 109.203 35.6791 99.3536 40.2791C85.4366 46.7811 76.9246 58.5671 76.9246 58.5671C76.9246 58.5671 57.7046 45.4581 39.5926 44.6861C18.1156 43.7691 12.9466 51.0531 10.7016 54.4841C10.7016 54.4841 3.84264 66.7281 3.34964 87.7891C2.86364 108.852 -3.68236 185.323 7.20364 186.365C18.4196 187.43 21.9646 186.24 28.8196 178.404C35.6796 170.564 60.6526 134.808 60.6526 134.808C60.6526 134.808 68.9806 137.219 65.0646 150.928C61.1456 164.643 61.1456 171.012 56.7376 181.788C52.3256 192.564 29.8046 253.746 27.8426 291.954C26.6116 315.916 26.2486 320.292 28.6576 325.119V335.384L34.7756 382.459H46.5716C46.5716 382.459 43.4956 373.525 42.9116 353.027C42.5836 341.699 43.0766 336.867 44.2236 333.646C54.8416 335.906 69.5536 335.667 83.6796 334.525C93.8306 333.702 108.128 331.801 118.827 329.258C118.833 329.266 120.304 335.386 120.671 350.49C121.042 365.611 118.827 382.128 118.827 382.128C118.827 382.128 128.67 384.099 129.138 381.46C130.904 371.497 133.642 322.278 133.642 322.278C134.131 316.401 127.761 274.366 119.927 241.546Z" fill="#A35625"/>
<path d="M120.59 291.163C121.388 291.053 121.255 288.727 120.465 288.869C119.673 289.015 119.792 291.275 120.59 291.163Z" fill="#F7941E"/>
<path d="M122.797 283.994C123.578 283.818 123.284 281.431 122.499 281.644C121.723 281.85 122.005 284.175 122.797 283.994Z" fill="#F7941E"/>
<path d="M119.155 286.388C119.942 286.228 119.671 283.956 118.884 284.155C118.109 284.347 118.362 286.553 119.155 286.388Z" fill="#F7941E"/>
<path d="M116.915 288.357C117.745 288.207 117.461 286.013 116.679 286.19C115.88 286.371 116.158 288.499 116.915 288.357Z" fill="#F7941E"/>
<path d="M116.967 278.882C116.198 279.131 116.578 281.28 117.36 281.055C118.135 280.837 117.741 278.634 116.967 278.882Z" fill="#F7941E"/>
<path d="M124.318 288.576C125.105 288.449 124.974 285.988 124.141 286.169C123.399 286.313 123.518 288.711 124.318 288.576Z" fill="#F7941E"/>
<path d="M117.792 296.788C116.998 296.851 116.954 299.016 117.755 298.985C118.557 298.96 118.593 296.729 117.792 296.788Z" fill="#F7941E"/>
<path d="M113.125 286.624C112.343 286.812 112.577 288.844 113.369 288.687C114.162 288.534 113.915 286.44 113.125 286.624Z" fill="#F7941E"/>
<path d="M108.198 282.614L108.208 282.883C108.415 284.115 109.659 284.196 109.485 282.92C109.392 282.366 109.095 282.06 108.806 281.99C108.891 281.349 108.576 280.492 108.047 280.673C107.35 280.914 107.568 282.502 108.198 282.614Z" fill="#F7941E"/>
<path d="M124.133 295.916C124.927 295.861 124.966 293.42 124.123 293.514C123.366 293.6 123.325 295.975 124.133 295.916Z" fill="#F7941E"/>
<path d="M112.339 291.689C111.542 291.812 111.633 293.819 112.432 293.724C113.229 293.628 113.131 291.559 112.339 291.689Z" fill="#F7941E"/>
<path d="M126.478 281.85C127.259 281.667 126.94 279.169 126.156 279.388C125.38 279.613 125.69 282.049 126.478 281.85Z" fill="#F7941E"/>
<path d="M108.25 299.775C107.672 298.915 106.723 300.08 107.307 300.941C107.884 301.816 108.831 300.663 108.25 299.775Z" fill="#F7941E"/>
<path d="M112.035 300.684C112.618 301.626 113.564 300.379 112.981 299.419C112.399 298.492 111.453 299.751 112.035 300.684Z" fill="#F7941E"/>
<path d="M108.584 297.153C109.159 298.015 110.111 296.771 109.528 295.9C108.957 295.054 108.008 296.311 108.584 297.153Z" fill="#F7941E"/>
<path d="M107.036 294.231C106.401 293.438 105.536 294.676 106.174 295.466C106.816 296.274 107.68 295.047 107.036 294.231Z" fill="#F7941E"/>
<path d="M110.806 291.364C110.172 290.534 109.314 291.887 109.954 292.72C110.594 293.565 111.453 292.225 110.806 291.364Z" fill="#F7941E"/>
<path d="M117.257 292.027C116.609 291.094 115.763 292.536 116.413 293.478C117.066 294.425 117.915 292.99 117.257 292.027Z" fill="#F7941E"/>
<path d="M111.003 282.858C110.257 282.099 109.586 283.562 110.257 284.344C110.948 285.138 111.713 283.66 111.003 282.858Z" fill="#F7941E"/>
<path d="M112.361 291.297C113.004 292.173 113.859 290.768 113.211 289.884C112.569 289.025 111.716 290.442 112.361 291.297Z" fill="#F7941E"/>
<path d="M108.464 288.854C107.763 288.086 107.025 289.436 107.667 290.208C108.29 291.002 109.196 289.649 108.464 288.854Z" fill="#F7941E"/>
<path d="M110.697 304.375C111.208 305.336 112.238 304.167 111.729 303.198C111.219 302.25 110.182 303.43 110.697 304.375Z" fill="#F7941E"/>
<path d="M101.983 301.545C102.502 302.352 103.542 301.308 102.934 300.493C102.355 299.705 101.405 300.757 101.983 301.545Z" fill="#F7941E"/>
<path d="M103.495 291.849C104.125 292.587 104.993 291.334 104.366 290.584C103.702 289.86 102.89 291.127 103.495 291.849Z" fill="#F7941E"/>
<path d="M102.439 283.201C102.249 283.317 102.12 283.581 102.188 283.994C102.37 285.135 103.651 285.163 103.459 283.994L103.352 283.643C103.709 283.377 103.853 282.614 103.375 282.176C102.766 281.615 102.192 282.515 102.439 283.201Z" fill="#F7941E"/>
<path d="M115.885 295.95C115.305 295.003 114.36 296.374 114.943 297.32C115.524 298.282 116.468 296.928 115.885 295.95Z" fill="#F7941E"/>
<path d="M115.344 282.811L115.353 282.679V282.67L115.356 282.351L115.172 281.736C115.37 281.064 115.012 279.877 114.418 280.068C113.943 280.218 113.903 281.081 114.129 281.651L114.086 282.257L114.104 282.316C114.003 282.684 114.036 283.147 114.329 283.501C114.825 284.094 115.33 283.512 115.344 282.811Z" fill="#F7941E"/>
<path d="M107.664 284.572C106.985 283.835 106.218 285.251 106.903 285.985C107.587 286.733 108.357 285.335 107.664 284.572Z" fill="#F7941E"/>
<path d="M107.278 307.156C107.793 308.1 108.816 307.039 108.303 306.091C107.789 305.169 106.755 306.24 107.278 307.156Z" fill="#F7941E"/>
<path d="M100.516 293.624C101.142 294.327 102.02 293.158 101.391 292.445C100.778 291.754 99.8936 292.937 100.516 293.624Z" fill="#F7941E"/>
<path d="M115.121 304.843C115.625 305.864 116.665 304.612 116.156 303.577C115.645 302.569 114.604 303.829 115.121 304.843Z" fill="#F7941E"/>
<path d="M106.734 279.345C106.005 278.649 105.323 280.13 106.056 280.825C106.791 281.531 107.473 280.061 106.734 279.345Z" fill="#F7941E"/>
<path d="M118.633 289.9C119.287 290.865 120.122 289.338 119.46 288.359C118.812 287.411 117.978 288.954 118.633 289.9Z" fill="#F7941E"/>
<path d="M104.5 282.414C104.687 283.594 105.97 283.619 105.762 282.407C105.566 281.198 104.302 281.216 104.5 282.414Z" fill="#F7941E"/>
<path d="M112.11 281.942C111.886 280.637 110.608 280.606 110.825 281.898C111.041 283.176 112.325 283.261 112.11 281.942Z" fill="#F7941E"/>
<path d="M98.2576 283.43C98.4296 284.514 99.6946 284.493 99.5166 283.381C99.3406 282.261 98.0936 282.341 98.2576 283.43Z" fill="#F7941E"/>
<path d="M105.853 288.25C105.972 289.427 107.248 289.573 107.119 288.356C106.998 287.141 105.733 287.059 105.853 288.25Z" fill="#F7941E"/>
<path d="M134.923 247.736C134.923 247.736 139.956 264.94 143.086 263.528C146.211 262.123 144.341 250.723 144.341 250.723C144.341 250.723 152.758 259.802 154.707 255.884C156.659 251.969 143.711 240.947 143.711 240.947L134.923 247.736Z" fill="#231F20"/>
<path d="M32.9446 46.9281C32.9446 46.9281 33.1036 45.5101 37.9006 38.6641C43.5606 30.5751 55.5506 21.8351 53.4616 25.5451C51.3816 29.2501 48.7836 35.2971 45.6416 41.4231C43.8216 44.9671 43.3256 47.6061 43.3256 47.6061L32.9446 46.9281Z" fill="#F7941E"/>
<path d="M60.5295 52.0911C60.5295 52.0911 61.5245 50.5931 64.8375 46.4541C71.5365 38.0761 80.6035 31.7591 84.5215 30.4131C86.9915 29.5671 77.6655 40.2951 72.7415 50.6951C70.0715 56.3371 69.3425 56.5181 69.3425 56.5181L60.5295 52.0911Z" fill="#F7941E"/>
<path d="M34.7766 382.461C34.7766 382.461 24.6086 393.524 25.3476 394.998C26.0886 396.471 36.4116 390.943 36.4116 390.943C36.4116 390.943 34.5656 400.522 36.4116 400.892C38.2516 401.262 47.1546 391.313 47.1546 387.995C47.1546 384.679 46.5736 382.461 46.5736 382.461H34.7766Z" fill="#231F20"/>
<path d="M118.828 382.131C117.726 382.131 104.605 394.091 107.185 394.462C109.768 394.832 117.355 391.186 117.355 391.186C117.355 391.186 115.51 404.828 119.196 402.244C122.884 399.665 129.506 391.235 129.515 389.717C129.532 387.769 129.137 381.464 129.137 381.464L118.828 382.131Z" fill="#231F20"/>
<path d="M29.2756 48.4781C30.3646 47.5891 32.4906 43.0911 35.0256 34.0771C37.8876 23.9131 22.3386 -3.12888 18.4686 0.298116C13.2396 4.93512 6.49461 22.5901 8.08161 36.2881C8.81361 42.5931 13.3926 48.2811 15.8206 51.0561L18.2166 51.2951L29.2756 48.4781Z" fill="#A35625"/>
<path d="M67.7136 174.444C49.8806 184.895 34.9136 203.019 26.2526 217.926C14.3956 238.332 17.0666 237.429 17.0666 237.429L25.3696 244.806C25.3696 244.806 32.4966 232.205 40.7266 219.917C50.1076 205.896 56.4416 200.724 56.4416 200.724L67.7136 174.444Z" fill="#A35625"/>
<path d="M16.8136 237.014C16.8136 237.014 1.42958 250.817 3.92658 253.163C6.42558 255.514 16.2416 249.42 16.2416 249.42C16.2416 249.42 11.0786 260.665 15.4436 260.974C19.8096 261.274 25.3696 244.807 25.3696 244.807L16.8136 237.014Z" fill="#231F20"/>
<path d="M93.1025 166.901C110.173 178.557 123.854 197.664 131.473 213.133C141.898 234.301 143.712 240.947 143.712 240.947L134.923 247.735C125.403 229.176 125.505 229.116 116.896 214.123C108.499 199.493 102.541 193.89 102.541 193.89L93.1025 166.901Z" fill="#A35625"/>
<path d="M72.1796 89.5791C74.3016 96.0101 70.1046 105.286 62.5566 107.777C56.8896 109.647 48.6096 105.379 48.8356 96.0421C49.0096 88.8531 52.6936 84.0541 58.3596 82.1861C64.0276 80.3191 70.0556 83.1501 72.1796 89.5791Z" fill="white"/>
<path d="M24.9206 76.3991C27.1116 80.9041 24.8966 88.4041 18.9466 91.3011C14.4856 93.4761 7.4416 91.4301 6.9426 84.4311C6.5576 79.0391 8.5026 75.4871 12.7916 72.9931C16.5256 70.8191 22.7246 71.8911 24.9206 76.3991Z" fill="white"/>
<path d="M58.4725 97.8201C58.8445 98.9541 60.0755 99.5721 61.2115 99.1991C62.3585 98.8171 62.9835 97.5941 62.6035 96.4581C62.2265 95.3211 61.0005 94.7041 59.8575 95.0801C58.7155 95.4571 58.0955 96.6801 58.4725 97.8201Z" fill="#231F20"/>
<path d="M12.8056 82.7331C12.6896 83.7451 13.3506 84.6511 14.2846 84.7561C15.2256 84.8631 16.0816 84.1301 16.1916 83.1221C16.3066 82.1121 15.6416 81.2061 14.7056 81.0991C13.7726 80.9971 12.9216 81.7271 12.8056 82.7331Z" fill="#231F20"/>
<path d="M5.20161 157.678C6.34761 155.54 11.4496 155.603 18.0036 158.441C22.6326 160.443 24.0226 161.785 24.0226 164.359C24.0226 166.938 24.1826 174.75 17.4076 175.033C10.5506 175.317 7.40361 173.644 5.39761 171.054C3.00661 167.962 3.67561 160.524 5.20161 157.678Z" fill="#231F20"/>
<path d="M98.0396 137.008C98.0396 137.008 65.7846 139.457 62.7196 144.542C58.3606 151.763 58.3606 166.521 58.3606 166.521L100.788 163.334L98.0396 137.008Z" fill="#2BB673"/>
<path d="M98.1616 142.186C98.1616 142.186 130.25 143.129 143.435 147.527C156.621 151.919 177.967 164.868 177.967 164.868L162.899 190.853C162.899 190.853 125.766 162.653 110.738 159.799C95.7166 156.945 98.1616 159.799 98.1616 159.799V142.186Z" fill="#2BB673"/>
<path d="M83.2905 64.3361C83.2905 64.3361 91.8845 54.5561 99.4985 52.2881C107.115 50.0231 110.767 51.5761 110.767 51.5761C110.767 51.5761 102.647 62.2301 97.0295 64.3361C90.4395 66.8111 83.2905 64.3361 83.2905 64.3361Z" fill="#7A411B"/>
<path d="M19.9336 49.0311C19.9336 49.0311 13.9076 36.8921 16.4406 31.1221C18.9756 25.3511 22.6806 21.1091 22.6806 21.1091C22.6806 21.1091 28.6886 30.2981 26.5636 36.4001C24.4506 42.5041 19.9336 49.0311 19.9336 49.0311Z" fill="#7A411B"/>
<path d="M162.341 187.929L171.13 197.845" stroke="#2BB673" stroke-width="1.037" stroke-linecap="round"/>
<path d="M164.438 182.451L176.574 190.553" stroke="#2BB673" stroke-width="1.037" stroke-linecap="round"/>
<path d="M168.201 174.444L180.338 184.491" stroke="#2BB673" stroke-width="1.037" stroke-linecap="round"/>
<path d="M173.998 170.614L182.995 178.278" stroke="#2BB673" stroke-width="1.037" stroke-linecap="round"/>
<path d="M176.571 165.273L187.999 170.614" stroke="#2BB673" stroke-width="1.037" stroke-linecap="round"/>
<path d="M120.487 272.445C121.25 272.158 120.712 269.903 119.953 270.215C119.196 270.526 119.723 272.731 120.487 272.445Z" fill="#F7941E"/>
<path d="M112.82 274.215L113.087 273.917C113.546 274.723 114.453 274.558 114.185 273.395C113.977 272.478 113.315 272.23 113.019 272.583C112.862 272.251 112.612 272.032 112.329 272.151C111.577 272.472 112.053 274.514 112.82 274.215Z" fill="#F7941E"/>
<path d="M117.624 276.698C118.391 276.44 117.981 274.207 117.212 274.49C116.452 274.775 116.853 276.959 117.624 276.698Z" fill="#F7941E"/>
<path d="M121.666 274.93C120.904 275.196 121.32 277.479 122.099 277.233C122.873 276.991 122.44 274.66 121.666 274.93Z" fill="#F7941E"/>
<path d="M108.383 274.519C108.003 274.679 107.93 275.259 108.048 275.752L108.087 276.166C108.361 277.412 109.651 277.382 109.364 276.109L109.225 275.717C109.229 275.078 108.871 274.323 108.383 274.519Z" fill="#F7941E"/>
<path d="M119.243 266.774C120.014 266.424 119.402 264.229 118.647 264.585C117.912 264.927 118.509 267.079 119.243 266.774Z" fill="#F7941E"/>
<path d="M109.853 268.271C110.6 267.923 110.02 265.899 109.283 266.269C108.543 266.631 109.109 268.613 109.853 268.271Z" fill="#F7941E"/>
<path d="M111.279 278.263C111.171 278.939 111.501 279.871 112.035 279.697C112.66 279.502 112.536 278.149 112.077 277.748C112.162 277.375 112.097 276.914 111.785 276.593C111.037 275.84 110.379 277.408 111.126 278.161L111.279 278.263Z" fill="#F7941E"/>
<path d="M101.41 278.404C101.156 277.235 99.8975 277.354 100.144 278.505C100.392 279.643 101.666 279.566 101.41 278.404Z" fill="#F7941E"/>
<path d="M103.825 276.574C103.56 275.375 102.296 275.492 102.559 276.678C102.815 277.853 104.093 277.786 103.825 276.574Z" fill="#F7941E"/>
<path d="M102.159 273.026C101.836 271.838 100.574 272.004 100.889 273.181C101.208 274.354 102.465 274.224 102.159 273.026Z" fill="#F7941E"/>
<path d="M106.648 274.611C106.366 273.363 105.102 273.471 105.377 274.708C105.645 275.923 106.921 275.86 106.648 274.611Z" fill="#F7941E"/>
<path d="M110.159 269.2C109.805 267.916 108.533 268.054 108.88 269.326C109.227 270.593 110.515 270.49 110.159 269.2Z" fill="#F7941E"/>
<path d="M105.426 270.447C105.087 269.211 103.825 269.382 104.156 270.602C104.483 271.813 105.762 271.687 105.426 270.447Z" fill="#F7941E"/>
<path d="M96.2156 274.685C95.9196 273.558 94.6626 273.76 94.9586 274.874C95.2536 275.976 96.5186 275.811 96.2156 274.685Z" fill="#F7941E"/>
<path d="M100.924 267.657C100.562 266.468 99.2946 266.688 99.6676 267.882C100.015 269.055 101.248 268.867 100.924 267.657Z" fill="#F7941E"/>
<path d="M103.374 260.514C102.986 259.278 101.737 259.531 102.13 260.762C102.512 261.979 103.769 261.754 103.374 260.514Z" fill="#F7941E"/>
<path d="M105.118 266.848C105.456 268.089 106.723 267.935 106.371 266.666C106.028 265.413 104.771 265.599 105.118 266.848Z" fill="#F7941E"/>
<path d="M97.4136 266.442C97.0516 265.271 95.7986 265.522 96.1656 266.69C96.5226 267.842 97.7866 267.62 97.4136 266.442Z" fill="#F7941E"/>
<path d="M107.745 262.287C107.346 261.027 106.081 261.234 106.481 262.495C106.878 263.745 108.152 263.558 107.745 262.287Z" fill="#F7941E"/>
<path d="M113.306 267.52C113.462 268.005 113.778 268.396 114.14 268.234C114.889 267.899 114.292 265.813 113.55 266.166L113.489 266.213C113.032 265.199 111.991 265.397 112.329 266.615C112.523 267.319 112.981 267.6 113.306 267.52Z" fill="#F7941E"/>
</svg>
