<svg width="241" height="264" viewBox="0 0 241 264" fill="none" xmlns="http://www.w3.org/2000/svg">
<path fill-rule="evenodd" clip-rule="evenodd" d="M211.703 231.712C212.431 240.106 215.796 243.768 219.912 249.193C216.832 251.596 213.602 250.977 210.35 249.763C206.962 245.717 206.03 237.295 204.959 231.827L211.703 231.712Z" fill="#231F20"/>
<path fill-rule="evenodd" clip-rule="evenodd" d="M212.64 144.857C212.64 144.857 172.955 140.589 141.807 143.579C110.662 146.56 114.932 161.925 114.932 161.925L129.434 183.258L137.546 206.298C137.546 206.298 138.824 218.671 141.807 220.382C144.796 222.081 189.172 213.979 189.172 213.979L201.121 211.417V184.966L212.64 144.857Z" fill="#7F587E"/>
<path fill-rule="evenodd" clip-rule="evenodd" d="M215.438 231.977C214.434 209.747 214.541 190.064 217.575 168.712C217.575 168.712 227.33 168.955 228.706 157.889C230.092 146.824 220.134 143.346 212.582 144.446C205.031 145.547 199.661 152.608 199.023 165.986C198.729 172.294 198.405 188.135 198.243 203.058C194.823 202.968 186.144 202.886 178.041 203.806C168.94 204.843 152.222 209.139 148.245 210.184C149.092 225.699 149.639 240.277 149.309 241.779C170.289 238.884 204.017 234.071 215.438 231.977Z" fill="#AE7DAF"/>
<path fill-rule="evenodd" clip-rule="evenodd" d="M57.9878 238.1C56.9519 246.493 53.4502 250.16 49.1316 255.576C52.1229 257.981 55.3731 257.363 58.6746 256.147C62.2076 252.105 63.4499 243.683 64.7323 238.214L57.9878 238.1Z" fill="#231F20"/>
<path fill-rule="evenodd" clip-rule="evenodd" d="M133.294 241.689C134.24 251.122 131.609 255.249 128.576 261.338C132.146 264.049 135.248 263.352 138.255 261.989C140.834 257.44 140.082 247.974 140.059 241.819L133.294 241.689Z" fill="#231F20"/>
<path fill-rule="evenodd" clip-rule="evenodd" d="M57.8115 157.241C57.0871 154.382 46.2542 111.488 42.1883 101.189C37.9823 90.5351 24.3495 78.1334 10.4165 87.6364C-3.51153 97.1445 -1.21209 114.42 6.37807 122.009C13.9657 129.599 27.5172 120.822 26.7603 120.068C26.0021 119.306 29.679 127.399 32.7203 139.987C34.782 148.535 37.4043 160.562 38.8742 167.401C42.9026 162.785 50.1463 159.53 57.8115 157.241Z" fill="#7F587E"/>
<path fill-rule="evenodd" clip-rule="evenodd" d="M119.969 153.114C120.092 153.107 120.213 153.103 120.339 153.095C120.212 153.103 120.09 153.107 119.969 153.114ZM115.948 153.638C116.059 153.612 116.171 153.592 116.286 153.566C116.171 153.593 116.059 153.612 115.948 153.638ZM105.925 161.734L105.938 161.698L105.925 161.734ZM18.8674 84.0033C18.8674 84.0033 38.9619 74.5991 57.4325 69.745C75.9018 64.8822 111.418 60.7287 116.856 64.4281C136.88 83.4028 144.885 127.979 151.103 154.658L136.777 157.804C132.941 154.878 128.103 153.363 122.643 153.115C122.477 153.108 122.305 153.102 122.145 153.097L122.067 152.768C122.067 152.768 94.6752 150.846 85.301 152.045C80.7559 152.634 68.8434 153.949 57.8178 157.243C57.091 154.383 46.2581 111.489 42.1921 101.19C38.8706 92.772 29.6628 83.264 19.0714 84.3374L18.8674 84.0033Z" fill="#AE7DAF"/>
<path d="M135.897 218.761L162.263 238.71C167.344 245.242 179.142 237.956 170.76 234.248C170.76 234.248 176.171 233.488 177.609 229.603C179.06 225.718 171.396 227.93 171.396 227.93C171.396 227.93 179.523 223.576 178.613 220.403C177.7 217.225 163.988 228.747 163.988 228.747L144.786 211.393C144.786 211.393 164.038 185.132 164.803 184.944C165.346 184.813 183.116 197.937 187.062 202.578C191.012 207.224 194.407 208.301 197.121 203.718C199.832 199.141 195.728 196.945 195.728 196.945C195.728 196.945 202.392 197.758 203.463 195.244C204.526 192.739 198.305 191.228 198.305 191.228C198.305 191.228 207.172 186.998 205.48 181.567C203.791 176.141 190.638 194.661 190.638 194.661C190.638 194.661 180.896 182.957 170.597 172.921L135.897 218.761Z" fill="#F7941E"/>
<path d="M112.047 244.716L111.631 243.08C111.712 243.669 111.837 244.216 112.047 244.716Z" fill="#F7941E"/>
<path d="M199.818 32.8902C195.519 33.1917 171.853 34.9745 163.114 32.9628C151.879 30.3856 141.836 26.401 135.288 28.6466C119.594 34.0124 104.953 42.392 104.953 42.392C104.953 42.392 99.6382 37.0812 93.5405 33.3243C85.1947 28.1762 68.921 20.8713 68.921 20.8713C68.921 20.8713 69.9118 28.1249 72.3601 34.3277C74.8022 40.5291 81.9207 56.4563 81.9207 56.4563C81.9207 56.4563 83.0041 64.0903 83.716 66.5486C85.1347 71.494 84.8507 72.5274 84.8507 72.5274C84.8507 72.5274 68.8785 85.7698 71.5757 85.3632C76.9077 84.5563 84.9996 83.8707 84.9996 83.8707C84.9996 83.8707 72.6104 96.9868 78.9657 94.815C88.6839 91.4897 91.5701 94.2683 91.5701 94.2683C91.5701 94.2683 85.6651 100.552 85.0509 106.167C84.4378 111.786 86.7973 104.736 91.1835 102.742C93.8458 101.518 96.3742 100.657 96.3742 100.657C96.3742 100.657 103.495 111.839 100.14 119.996C82.6651 162.4 95.3871 197.153 95.3871 197.153C95.3871 197.153 78.7856 189.509 68.328 189.69C55.7299 189.908 42.4774 247.541 72.0724 239.849C94.3162 234.057 102.335 212.951 103.267 210.3L101.995 205.323L158.393 190.931C158.303 190.359 158.22 189.781 158.121 189.223C155.479 173.514 153.04 134.546 157.731 110.144C162.432 85.7398 205.66 67.8822 217.476 58.0427C229.298 48.2044 233.89 42.2381 232.583 37.1138C231.272 31.9857 207.191 32.3723 199.818 32.8902Z" fill="#F7941E"/>
<path d="M151.576 121.566C151.576 121.566 157.572 133.494 163.787 135.387C169.991 137.271 175.448 136.669 177.302 136.029C179.156 135.389 185.141 128.066 187.467 130.664C188.936 132.313 186.264 136.056 186.264 136.056C186.264 136.056 189.928 136.249 191.538 137.948C193.953 140.48 186.768 142.064 186.768 142.064C186.768 142.064 195.569 143.704 193.091 148.598C191.587 151.567 186.902 147.459 175.917 145.19C155.107 140.906 146.235 133.224 146.235 133.224" fill="#F7941E"/>
<path d="M157.608 115.077C153.114 138.454 155.159 152.213 160.592 188.099C153.372 190.097 135.309 193.922 128.534 196.279C126.825 191.933 126.723 186.95 125.52 182.243C113.935 136.817 131.251 106.275 164.458 88.362C167.385 86.7832 183.052 77.8331 186.309 77.713C174.78 85.9713 159.741 103.955 157.608 115.077Z" fill="white"/>
<path d="M224.89 32.2985C232.902 32.5136 243.899 32.4736 239.192 38.9728C233.51 46.8132 221.546 54.551 221.546 54.551C221.546 54.551 214.698 38.3073 215.119 32.4786C215.119 32.4799 221.971 32.2284 224.89 32.2985Z" fill="#231F20"/>
<path d="M146.277 29.087C146.277 29.087 138.092 20.0431 133.777 15.2891C129.471 10.5476 117.631 -0.51174 117.127 0.36525C116.626 1.23348 114.855 6.53922 116.476 15.2441C118.092 23.9414 121.041 34.9645 121.041 34.9645L146.277 29.087Z" fill="#F7941E"/>
<path d="M98.6547 47.9655C98.6547 47.9655 81.5991 36.9599 81.6992 38.834C81.793 40.7081 85.8777 55.2028 85.8777 55.2028C85.8777 55.2028 90.5091 51.7486 92.2756 50.9204C94.0508 50.0948 98.6547 47.9655 98.6547 47.9655Z" fill="white"/>
<path d="M125.02 17.6248C123.884 17.1432 123.718 18.7721 123.92 21.6057C124.136 24.4306 124.832 32.0658 124.832 32.0658L135.288 28.6504C135.287 28.6504 126.143 18.1027 125.02 17.6248Z" fill="white"/>
<path d="M114.64 67.2154C116.138 73.0679 123.173 76.4632 130.032 74.708C135.192 73.3931 139.695 66.3872 134.721 59.31C130.15 52.8183 125.48 52.4329 120.317 54.5172C115.387 56.5101 113.153 61.3617 114.64 67.2154Z" fill="white"/>
<path d="M146.568 41.8778C147.651 46.1214 152.898 49.7757 157.572 48.5859C161.085 47.6914 164.088 42.6709 160.615 37.5191C157.428 32.7876 154.229 33.0165 150.723 33.9061C147.215 34.8068 145.483 37.6442 146.568 41.8778Z" fill="white"/>
<path d="M125.799 67.0128C126.04 67.9923 125.454 68.9832 124.477 69.2309C123.497 69.4823 122.5 68.8919 122.256 67.9135C122.001 66.944 122.595 65.9481 123.571 65.6942C124.555 65.4514 125.549 66.0369 125.799 67.0128Z" fill="#231F20"/>
<path d="M155.054 41.9166C155.288 42.8286 154.735 43.7569 153.829 43.9833C152.909 44.2198 151.986 43.673 151.751 42.7585C151.519 41.8578 152.069 40.927 152.991 40.6955C153.896 40.4603 154.823 41.0146 155.054 41.9166Z" fill="#231F20"/>
<path d="M154.547 156.033C154.547 156.033 138.671 176.184 128.051 180.255C107.71 188.05 93.2712 189.258 93.2712 189.258C93.2712 189.258 96.4114 212.209 127.979 218.513C138.258 220.562 144.786 228.365 144.786 228.365C144.786 228.365 153.85 211.865 156.353 209.38L152.305 204.93L164.473 185.956L169.581 189.823L179.879 176.221L154.547 156.033Z" fill="#00A5A5"/>
<path d="M124.603 181.533C124.603 181.533 119.267 140.507 113.018 133.654C104.487 124.314 96.2515 125.79 96.2515 125.79L97.5551 122.396C97.5551 122.396 109.006 121.809 118.275 132.541C124.849 140.156 130.185 177.442 130.185 177.442L124.603 181.533Z" fill="#231F20"/>
<path d="M154.644 161.157C154.644 161.157 152.942 131.516 155.818 121.277C157.125 116.623 160.827 106.724 160.827 106.724C160.827 106.724 154.679 110.262 151.576 121.568C147.58 136.164 149.549 162.9 149.549 162.9L154.644 161.157Z" fill="#231F20"/>
<path d="M131.221 181.493L124.454 183.098L123.631 179.005L130.502 177.522L131.221 181.493Z" fill="#48484A"/>
<path d="M154.728 159.253L149.494 163.142L151.97 166.475L157.204 162.586L154.728 159.253Z" fill="#48484A"/>
<path fill-rule="evenodd" clip-rule="evenodd" d="M129.082 245.086C130.088 222.51 128.924 203.921 125.892 183.611C125.892 183.611 106.879 186.077 105.016 172.546C103.154 159.01 110.55 152.572 122.639 153.114C134.735 153.657 143.79 160.464 145.623 174.886C147.445 189.313 150.102 242.193 149.226 241.907C148.36 241.611 135.721 244.418 129.082 245.086Z" fill="#AE7DAF"/>
<path fill-rule="evenodd" clip-rule="evenodd" d="M122.061 152.766C122.061 152.766 94.6689 150.841 85.2985 152.043C75.9306 153.244 35.3275 157.57 35.5652 175.828C35.8067 194.091 47.3402 195.531 47.3402 195.531C51.0508 214.652 51.5713 227.676 51.4261 239.739L129.032 245.026L129.149 243.487C130.034 221.628 128.85 203.433 125.894 183.612C125.894 183.612 106.882 186.078 105.019 172.547C103.189 159.203 110.345 152.755 122.14 153.097L122.061 152.766Z" fill="#9D68A0"/>
<path d="M110.136 134.676C110.136 134.676 109.336 148.525 115.298 151.069C121.269 153.62 122.126 152.491 124.04 152.055C125.947 151.618 131.102 145.914 133.091 146.881C135.088 147.837 133.379 151.595 133.379 151.595C133.379 151.595 138.417 150.66 139.843 152.527C141.963 155.304 135.681 156.386 135.004 157.216C134.399 157.96 141.342 159.837 138.35 164.437C136.544 167.225 131.849 164.685 121.669 161.023C117.676 159.587 113.635 158.158 109.861 156.831C99.4105 153.172 104.849 133.226 104.849 133.226" fill="#F7941E"/>
<path d="M120.513 87.8804C123.137 85.8274 124.404 92.9034 133.552 93.0597C139.683 93.1661 144.188 85.1881 146.646 87.8804C149.065 90.5401 145.756 99.1924 134.854 100.028C126.288 100.69 116.839 90.7628 120.513 87.8804Z" fill="white"/>
</svg>
