<svg width="337" height="311" viewBox="0 0 337 311" fill="none" xmlns="http://www.w3.org/2000/svg">
<path d="M152.453 35.6064C152.453 35.6064 131.198 28.5604 120.026 24.8796C108.841 21.2054 79.9492 14.2585 79.9333 16.0996C79.9267 17.9512 81.8972 28.0123 92.3558 40.4415C102.797 52.8719 117.46 67.8157 117.46 67.8157L152.453 35.6064Z" fill="#F07F17"/>
<path d="M102.836 31.6971C100.577 31.7407 103.458 36.0263 107.956 41.6895C112.145 46.9631 120.043 54.8701 120.043 54.8701L133.158 41.3567C133.158 41.358 105.086 31.6641 102.836 31.6971Z" fill="white"/>
<path d="M262.978 13.9257C255.396 16.1656 213.705 28.6951 197.248 28.5538C176.099 28.3676 156.512 25.1966 145.688 31.7948C119.678 47.6129 96.7475 68.4034 96.7475 68.4034C96.7475 68.4034 79.9508 64.4004 67.0422 62.0006C47.7296 58.4149 24.2805 62.3691 24.2805 62.3691C24.2805 62.3691 24.3108 64.5615 35.3004 77.9402C43.0754 87.3872 61.0317 102.705 61.0317 102.705C61.0317 102.705 65.9843 115.955 68.2177 120.071C72.7213 128.387 72.6103 130.347 72.6103 130.347C72.6103 130.347 49.2312 160.373 53.9118 158.585C63.129 155.042 77.3675 150.616 77.3675 150.616C77.3675 150.616 60.3476 179.01 70.8736 172.598C86.9769 162.803 93.2437 166.647 93.2437 166.647C93.2437 166.647 85.1438 180.233 86.2624 190.538C87.3771 200.85 88.8312 187.287 95.9049 181.976C100.185 178.738 104.379 176.194 104.379 176.194C104.379 176.194 119.165 191.048 119.04 205.93L216.564 160.01L219.776 155.175C230.477 113.814 288.996 72.0921 304.556 52.0333C321.854 29.7332 327.727 17.2327 323.357 8.55966C318.986 -0.104161 275.991 10.093 262.978 13.9257Z" fill="#FF9400"/>
<path d="M307.667 2.9744C322.116 0.196956 341.809 -4.2274 335.936 9.28472C328.862 25.5703 310.473 44.1658 310.473 44.1658C310.473 44.1658 291.777 17.7702 290.237 7.15971C290.237 7.15971 302.423 3.99134 307.667 2.9744Z" fill="#1F191A"/>
<path d="M91.3149 77.1187C91.3149 77.1187 50.6531 70.119 51.5617 73.4247C52.473 76.7476 71.2719 95.1437 71.2719 95.1437C71.2719 95.1437 78.2149 87.1191 81.0557 84.9426C83.8965 82.7489 91.3149 77.1187 91.3149 77.1187Z" fill="white"/>
<path d="M110.627 96.7985C115.608 106.692 129.558 110 141.159 104.152C149.876 99.7582 155.179 85.422 143.472 74.6979C132.716 64.8797 124.217 66.0354 115.779 71.8068C107.724 77.3168 105.636 86.9078 110.627 96.7985Z" fill="white"/>
<path d="M165.332 46.1033C168.942 53.2734 179.797 57.7546 187.702 53.7726C193.638 50.7773 197.045 40.6105 188.772 32.7417C181.199 25.5228 175.553 27.1974 169.626 30.1862C163.699 33.1749 161.728 38.9358 165.332 46.1033Z" fill="white"/>
<path d="M128.84 80.4482C129.667 82.0978 129.001 84.1039 127.345 84.9439C125.689 85.7786 123.679 85.1129 122.845 83.4673C122.012 81.8204 122.683 79.7998 124.334 78.9638C125.987 78.1304 128.004 78.8 128.84 80.4482Z" fill="#1F191A"/>
<path d="M178.866 31.2243C179.645 32.7708 179.011 34.6436 177.478 35.4215C175.934 36.1994 174.054 35.5866 173.278 34.04C172.501 32.5093 173.135 30.6339 174.671 29.8534C176.21 29.0808 178.093 29.6936 178.866 31.2243Z" fill="#1F191A"/>
<path d="M137.244 126.253C137.25 126.257 152.972 131.681 170.095 128.914C161.669 138.834 154.232 141.916 147.766 139.062C139.573 135.448 137.244 126.253 137.244 126.253Z" fill="#1F191A"/>
<path d="M230.676 133.612L100.423 158.769C106.929 178.076 117.56 200.879 113.626 221.926C99.6226 296.96 108.778 340.368 108.778 340.368C108.778 340.368 78.8361 338.486 59.6502 338.141C36.5405 337.717 16.8409 348.848 2.51122 356.64C-16.9256 367.202 84.2272 379.811 41.1471 378.238C10.0406 377.094 -0.72583 372.168 29.097 392.329C58.0957 411.92 8.49141 429.336 63.2478 417.146C107.225 407.362 122.575 364.492 122.575 364.492L135.486 423.781C134.777 438.941 147.05 444.307 145.503 428.577C145.503 428.577 148.633 444.15 155.271 440.467C161.927 436.779 154.379 424.592 154.379 424.592C154.379 424.592 164.747 434.32 167.265 428.796C169.792 423.285 149.799 411.944 149.799 411.944L143.763 364.846C143.763 364.846 201.932 351.239 203.221 351.897C204.127 352.361 213.223 391.846 213.177 403.033C213.136 414.226 208.698 423.76 213.43 424.272C223.143 425.318 220.81 410.729 220.81 410.729C220.81 410.729 223.296 424.106 227.789 421.889C232.269 419.668 227.327 406.838 227.327 406.838C227.327 406.838 234.629 423.426 238.751 413.844C242.879 404.261 227.607 396.268 227.607 396.268C227.607 396.268 229.285 354.105 228.221 324.901C226.385 274.516 228.368 137.783 230.676 133.612Z" fill="#FF9400"/>
<path d="M208.518 192.225C207.154 245.969 213.312 277.67 225.313 328.803C211.945 331.98 164.125 341.04 151.524 344.872C148.768 337.218 149.01 328.524 147.211 320.274C129.854 240.573 149.051 145.954 204.614 132.805C225.586 127.84 209.015 172.474 208.518 192.225Z" fill="white"/>
<path d="M227.231 297.622C227.231 297.622 166.077 312.993 145.485 316.347C124.905 319.712 106.275 317.203 106.275 317.203C106.275 317.203 107.459 338.252 111.838 354.71C116.767 373.295 123.488 388.501 123.488 388.501C123.488 388.501 155.823 376.33 162.272 375.845L161.952 364.822L201.558 352.904L204.06 364.397L234.648 357.735L227.231 297.622Z" fill="#00A6A6"/>
<path d="M150.452 315.725C150.452 315.725 130.882 226.442 119.811 213.507C116.001 209.069 113.21 204.635 112.085 203.716L113.012 195.974C113.012 195.974 116.805 196.331 129.517 211.812C141.233 226.08 162.543 313.093 162.543 313.093L150.452 315.725Z" fill="#1F191A"/>
<path d="M212.318 303.225C212.318 303.225 213.67 217.572 214.352 200.552C214.872 187.763 229.52 167.87 229.52 167.87L229.502 158.405C229.502 158.405 211.19 168.81 206.084 200.516C203.153 218.731 202.513 304.387 202.513 304.387L212.318 303.225Z" fill="#1F191A"/>
<path d="M214.364 308.156L202.682 310.699L201.063 303.262L212.745 300.719L214.364 308.156Z" fill="#464649"/>
<path d="M294.878 126.5C291.218 130.428 296.79 136.865 296.79 136.865C296.79 136.865 290.294 125.34 280.752 130.903C273.933 134.881 286.926 142.768 286.926 142.768C286.926 142.768 274.431 133.86 271.953 140.021C268.531 148.52 282.612 151.869 282.612 151.869C282.612 151.869 277.981 153.642 273.077 155.467C266.553 157.884 224.776 180.683 224.776 180.683L216.332 198.645C216.332 198.645 294.817 164.589 301.736 157.453C311.409 147.475 299.935 121.064 294.878 126.5Z" fill="#FF9400"/>
<path d="M21.9678 171.885C26.581 174.642 23.0138 182.364 23.0138 182.364C23.0138 182.364 26.0633 169.49 36.7623 172.196C44.4171 174.134 34.1354 185.307 34.1354 185.307C34.1354 185.307 43.663 173.279 47.7466 178.513C53.3834 185.736 40.7905 192.855 40.7905 192.855C40.7905 192.855 45.7325 193.276 50.9427 193.663C57.8883 194.182 114.863 207.879 114.863 207.879L116.341 224.363C116.341 224.363 32.5836 208.457 23.9713 203.521C11.8921 196.613 15.6139 168.057 21.9678 171.885Z" fill="#FF9400"/>
<path d="M91.3149 77.1187C91.3149 77.1187 50.6531 70.119 51.5617 73.4247C52.473 76.7476 71.2719 95.1437 71.2719 95.1437C71.2719 95.1437 78.2149 87.1191 81.0557 84.9426C83.8965 82.7489 91.3149 77.1187 91.3149 77.1187Z" fill="white"/>
<path d="M110.627 96.7985C115.608 106.692 129.558 110 141.159 104.152C149.876 99.7582 155.179 85.422 143.472 74.6979C132.716 64.8797 124.217 66.0354 115.779 71.8068C107.724 77.3168 105.636 86.9078 110.627 96.7985Z" fill="white"/>
<path d="M165.332 46.1033C168.942 53.2734 179.797 57.7546 187.702 53.7726C193.638 50.7773 197.045 40.6105 188.772 32.7417C181.199 25.5228 175.553 27.1974 169.626 30.1862C163.699 33.1749 161.728 38.9358 165.332 46.1033Z" fill="white"/>
<path d="M132.296 90.3852C133.126 92.0361 132.464 94.0409 130.801 94.8809C129.145 95.7156 127.139 95.0513 126.304 93.403C125.472 91.7561 126.143 89.7367 127.793 88.9034C129.448 88.0687 131.462 88.7383 132.296 90.3852Z" fill="#1F191A"/>
<path d="M182.323 41.1626C183.107 42.7078 182.473 44.5845 180.934 45.3611C179.389 46.139 177.513 45.5262 176.738 43.977C175.964 42.4463 176.594 40.5709 178.134 39.7917C179.671 39.019 181.552 39.6332 182.323 41.1626Z" fill="#1F191A"/>
<path d="M323.355 8.56097C319.662 1.23766 288.382 7.38818 270.924 11.7861L271.881 84.3298C285.729 71.1161 298.45 59.9033 304.554 52.0346C321.852 29.7358 327.725 17.2354 323.355 8.56097Z" fill="#FF9400"/>
<path d="M307.667 2.9744C322.116 0.196956 341.809 -4.2274 335.936 9.28472C328.862 25.5703 310.473 44.1658 310.473 44.1658C310.473 44.1658 291.777 17.7702 290.237 7.15971C290.237 7.15971 302.423 3.99134 307.667 2.9744Z" fill="#1F191A"/>
</svg>
