<svg width="702" height="230" viewBox="0 0 702 230" fill="none" xmlns="http://www.w3.org/2000/svg">
<path d="M307.064 88.8649C307.064 88.8649 297.147 85.965 285.124 85.002C280.105 84.5979 268.231 88.8398 260.784 92.6776C254.981 95.6657 237.994 98.6609 234.908 99.2234C229.616 100.189 212.582 104.242 212.582 108.09C212.582 111.938 216.889 115.319 226.989 120.125C237.086 124.933 271.658 132.108 281.444 147.301C294.141 167.02 294.065 185.541 297 199.402C299.749 212.354 299.536 220.012 299.536 220.012C299.536 220.012 286.161 219.511 288.568 222.876C290.969 226.24 294.179 222.951 294.179 222.951C294.179 222.951 292.752 226.43 294.56 227.25C296.945 228.333 299.977 224.358 299.977 224.358C299.977 224.358 298.26 226.55 301.939 227.747C303.305 228.19 308.462 225.746 307.501 221.418C306.539 217.087 306.731 208.872 307.043 208.614C307.486 208.249 328.346 208.614 328.346 208.614L329.979 219.521C329.979 219.521 317.287 222.414 318.729 224.342C320.169 226.262 326.263 223.46 326.263 223.46C326.263 223.46 321.615 226.93 324.5 227.8C327.383 228.669 330.202 225.866 330.202 225.866C328.672 232.356 339.873 228.71 338.324 222.895L338.395 204.578C338.395 204.578 348.873 220.451 366.728 220.532C388.957 220.637 405.574 208.586 415.153 198.554C425.003 188.236 424.357 187.827 412.403 190.888C395.855 195.135 389.187 192.651 380.77 190.202C374.563 188.391 368.371 185.578 359.454 187.687C352.056 189.442 341.633 196.194 341.633 196.194C341.633 196.194 344.346 169.418 324.412 142.68C320.575 137.541 323.585 128.381 323.585 128.381C323.585 128.381 325.523 128.538 327.613 128.909C331.064 129.535 333.996 134.073 332.555 130.224C331.112 126.379 325.823 123.01 325.823 123.01C325.823 123.01 327.357 120.537 334.803 121.131C339.673 121.519 328.582 114.51 328.582 114.51C328.582 114.51 334.411 113.537 338.308 113.143C340.279 112.947 326.654 106.487 326.654 106.487L328.427 96.2974C328.427 96.2974 329.936 83.1391 330.541 78.3275C331.146 73.5195 331.19 63.5674 331.19 63.5674C331.19 63.5674 318.428 75.2965 313.471 80.4264C309.858 84.1665 307.064 88.8649 307.064 88.8649Z" fill="#F7941E"/>
<path d="M278.45 146.099C294.569 164.448 293.641 186.987 298.544 207.992C298.571 208.939 303.178 208.663 308.459 208.5C313.928 206.622 314.382 196.085 313.492 191.105C307.499 157.542 296.415 138.609 269.797 131.952C267.448 131.366 254.026 128.294 251.712 128.788C261.314 132.536 273.012 139.906 278.45 146.099Z" fill="white"/>
<path d="M217.139 103.316C211.532 104.907 203.77 106.854 208.256 110.589C213.669 115.09 223.491 118.391 223.491 118.391C223.491 118.391 228.172 105.11 226.829 101.084C226.829 101.084 219.18 102.739 217.139 103.316Z" fill="#231F20"/>
<path d="M282.603 89.6348C284.841 80.8221 284.663 81.5086 285.942 76.5146C287.099 71.9963 288.896 56.7998 289.517 57.1872C290.135 57.5841 295.128 64.4505 297.048 70.5934C298.965 76.7375 303.053 89.6348 303.053 89.6348H282.603Z" fill="#F7941E"/>
<path d="M412.402 190.888C396.98 194.844 389.194 192.434 380.769 190.202C384.07 193.469 390.899 197.256 389.24 197.256C386.896 197.256 377.044 201.476 379.861 201.476C382.674 201.476 389.554 202.882 389.554 202.882C389.554 202.882 381.734 209.683 382.675 210.151C383.61 210.622 392.995 207.807 392.995 207.807C392.995 207.807 391.703 212.413 391.782 215.223C405.796 209.677 409.531 204.435 415.151 198.552C425.001 188.233 424.355 187.824 412.402 190.888Z" fill="white"/>
<path d="M312.5 91.6586C312.5 91.6586 324.345 79.0367 324.611 80.3692C324.878 81.7112 322.81 94.4643 322.81 94.4643C322.81 94.4643 318.925 92.8624 317.53 92.5942C316.131 92.3272 312.5 91.6586 312.5 91.6586Z" fill="white"/>
<path d="M292.369 71.4241C292.931 70.7329 293.595 71.7186 294.426 73.6113C295.25 75.5063 299.348 87.3476 299.348 87.3476L289.517 85.6086C289.517 85.6098 291.805 72.1178 292.369 71.4241Z" fill="white"/>
<path d="M305.641 104.117C305.641 109.136 300.538 114.694 294.649 114.694C290.231 114.694 285.164 109.971 287.716 103.251C290.057 97.0876 293.741 95.8183 298.328 96.4369C302.707 97.0233 305.641 99.1031 305.641 104.117Z" fill="white"/>
<path d="M297.934 106.21C297.934 106.993 298.565 107.627 299.351 107.627C300.131 107.627 300.768 106.993 300.768 106.21C300.768 105.433 300.131 104.795 299.351 104.795C298.565 104.795 297.934 105.433 297.934 106.21Z" fill="#231F20"/>
<path d="M278.735 126.838C284.16 127.613 284.16 120.564 284.16 120.564" stroke="#231F20" stroke-width="0.723" stroke-linecap="round"/>
<path d="M327.637 147.301L334.835 158.072C334.835 158.072 335.978 158.332 340.487 170.408C343.921 179.619 342.822 190.82 342.822 190.82H294.494C294.494 190.82 293.468 185.159 291.401 176.609C289.885 170.313 288.101 161.473 288.101 161.473C288.101 161.473 295.193 164.023 303.107 163.088C311.022 162.152 327.637 147.301 327.637 147.301Z" fill="#ED1C24"/>
<path d="M274.458 94.6133C272.937 98.2855 267.748 100.898 263.699 99.2247C260.657 97.9696 258.601 93.0734 262.39 88.8828C265.862 85.0366 268.706 85.66 271.747 86.9114C274.785 88.17 275.969 90.9376 274.458 94.6133Z" fill="white"/>
<path d="M265.767 92.7075C265.48 93.4023 265.812 94.2009 266.512 94.4869C267.211 94.7754 268.013 94.4476 268.297 93.7468C268.583 93.0555 268.251 92.2558 267.556 91.9626C266.858 91.6765 266.057 92.0078 265.767 92.7075Z" fill="#231F20"/>
<path d="M534.409 35.7823C534.409 35.7823 518.995 31.5154 503.318 30.2616C496.783 29.7395 488.486 35.7549 478.765 40.7548C471.204 44.6487 449.052 48.5568 445.031 49.2875C438.133 50.5449 415.921 55.8332 415.921 60.851C415.921 65.87 421.54 70.2716 434.704 76.5408C447.871 82.8101 488.069 89.0615 502.615 111.907C517.029 134.545 518.73 168.093 519.986 183.144C521.24 198.192 525.629 217.003 525.629 217.003C525.629 217.003 504.1 216.355 507.234 220.743C510.369 225.126 518.643 220.834 518.643 220.834C518.643 220.834 516.222 226.411 518.729 227.039C521.238 227.668 524.438 222.166 524.438 222.166C524.438 222.166 523.744 226.518 528.765 227.094C533.781 227.668 534.91 224.483 533.66 218.841C532.404 213.193 532.656 192.255 533.061 191.921C533.637 191.449 564.506 191.921 564.506 191.921L566.639 216.369C566.639 216.369 550.085 220.143 551.967 222.65C553.846 225.158 561.791 221.505 561.791 221.505C561.791 221.505 555.728 226.029 559.493 227.162C563.253 228.293 566.927 224.64 566.927 224.64C564.93 233.101 577.188 228.348 575.162 220.77V189.418C575.162 189.418 587.629 209.372 610.906 209.479C639.894 209.614 678.164 185.085 690.656 172.004C703.495 158.549 698.604 162.22 683.019 166.214C661.444 171.745 644.449 168.779 633.469 165.583C625.374 163.225 614.21 159.771 602.589 162.524C592.941 164.81 579.476 175.723 579.476 175.723C579.476 175.723 583.017 140.811 557.026 105.953C552.025 99.246 555.946 87.3023 555.946 87.3023C555.946 87.3023 558.473 87.5038 561.201 88.0008C565.699 88.81 569.522 94.7301 567.64 89.7123C565.761 84.6945 558.861 80.306 558.861 80.306C558.861 80.306 560.866 77.076 570.572 77.8531C576.919 78.3668 562.464 69.2204 562.464 69.2204C562.464 69.2204 570.062 67.9475 575.143 67.4409C577.714 67.1847 559.942 58.7592 559.942 58.7592C559.942 58.7592 559.436 57.8797 559.582 53.0001C559.66 50.5794 561.677 27.0102 562.464 20.7373C563.251 14.4645 562.464 9.48239 562.464 9.48239C562.464 9.48239 549.218 20.009 542.763 26.699C538.053 31.5738 534.409 35.7823 534.409 35.7823Z" fill="#F7941E"/>
<path d="M492.533 39.2591L492.165 36.2626" stroke="#231F20" stroke-width="0.723" stroke-linecap="round"/>
<path d="M488.333 39.8931L485.63 36.5428" stroke="#231F20" stroke-width="0.723" stroke-linecap="round"/>
<path d="M483.735 43.4616L477.743 40.1839" stroke="#231F20" stroke-width="0.723" stroke-linecap="round"/>
<path d="M502.037 111.509C516.619 133.384 516.311 160.22 519.987 183.145C527.086 183.285 541.25 183.156 548.819 182.689C549.371 178.296 548.301 173.689 548.301 169.09C548.301 124.639 524.138 107.499 490.52 91.9626C484.719 89.282 467.122 86.6611 465.301 87.0568C477.825 91.947 492.758 97.5906 502.037 111.509Z" fill="white"/>
<path d="M421.862 54.6295C414.547 56.7009 404.428 59.2408 410.285 64.1096C417.335 69.982 430.144 74.2883 430.144 74.2883C430.144 74.2883 432.629 57.7617 430.876 52.5056C430.877 52.5044 424.517 53.8774 421.862 54.6295Z" fill="#231F20"/>
<path d="M493.326 33.2472C493.326 33.2472 498.727 23.0126 501.574 17.642C504.423 12.2714 512.706 -0.658004 513.376 0.0261316C514.043 0.709076 516.906 5.16191 517.459 13.5408C518.016 21.9161 517.893 32.7276 517.893 32.7276L493.326 33.2472Z" fill="#F7941E"/>
<path d="M510.169 17.7314C511.104 17.0258 511.634 18.4846 512.11 21.1306C512.578 23.7801 513.725 30.954 513.725 30.954L503.317 30.2627C503.317 30.2615 509.247 18.4358 510.169 17.7314Z" fill="white"/>
<path d="M531.329 60.8605C531.329 66.5863 525.66 71.355 518.944 71.355C513.902 71.355 508.121 65.9701 511.035 58.3028C513.707 51.2707 517.902 49.8274 523.138 50.5294C528.137 51.1992 531.329 55.1359 531.329 60.8605Z" fill="white"/>
<path d="M497.882 46.0539C497.882 50.8524 493.414 56.1538 488.264 56.1538C484.397 56.1538 479.963 51.645 482.202 45.2268C484.245 39.3425 487.622 38.7167 491.482 38.7167C495.348 38.7167 497.882 41.2602 497.882 46.0539Z" fill="white"/>
<path d="M521.037 63.292C521.037 64.2467 521.811 65.0166 522.769 65.0166C523.726 65.0166 524.501 64.2467 524.501 63.292C524.501 62.3361 523.726 61.5578 522.769 61.5578C521.812 61.5578 521.037 62.3361 521.037 63.292Z" fill="#231F20"/>
<path d="M488.269 47.0897C488.269 47.9824 488.993 48.7022 489.884 48.7022C490.777 48.7022 491.502 47.9824 491.502 47.0897C491.502 46.2029 490.777 45.4842 489.884 45.4842C488.993 45.4854 488.269 46.2029 488.269 47.0897Z" fill="#231F20"/>
<path d="M493.829 83.4549C493.829 83.4549 496.132 83.6289 497.883 82.3691C499.638 81.1117 500.498 80.2273 500.498 80.2273L502.735 83.4549L505.612 80.4824C505.612 80.4824 507.338 84.9114 510.251 85.5252C505.378 94.6931 496.302 90.4381 493.829 83.4549Z" fill="#ED1C24"/>
<path d="M491.503 80.8591C491.503 80.8591 495.321 84.7851 500.782 85.4478C511.049 86.6945 513.725 82.3954 513.725 82.3954" stroke="#231F20" stroke-width="0.723" stroke-linecap="round"/>
<path d="M510.389 195.551C510.389 195.551 527.348 200.194 547.417 200.196C573.152 200.199 587.147 196.992 587.147 196.992L579.029 160.934C579.029 160.934 563.453 164.721 547.417 164.452C527.577 164.122 516.277 162.539 516.277 162.539L510.389 195.551Z" fill="#7F587E"/>
<path d="M529.784 171.287L526.367 190.805" stroke="#AE7DAF" stroke-width="0.72" stroke-linecap="round"/>
<path d="M548.978 171.287L552.468 193.488" stroke="#AE7DAF" stroke-width="0.72" stroke-linecap="round"/>
<path d="M571.011 169.35L576.377 189.097" stroke="#AE7DAF" stroke-width="0.72" stroke-linecap="round"/>
<path d="M396.832 173.198C404.245 179.669 417.396 199.337 419.333 206.083L441.414 198.695C452.274 172.415 436.003 183.227 429.768 174.868C426.677 170.722 429.103 163.333 429.103 163.333C429.103 163.333 430.667 163.46 432.348 163.761C435.134 164.263 437.497 167.925 436.335 164.823C435.168 161.721 430.905 159.005 430.905 159.005C430.905 159.005 432.143 157.008 438.146 157.489C442.072 157.804 433.131 152.151 433.131 152.151C433.131 152.151 437.83 151.367 440.975 151.044C442.562 150.888 431.576 145.677 431.576 145.677L433.003 137.464C433.003 137.464 434.222 126.856 434.71 122.975C435.201 119.099 435.235 111.074 435.235 111.074C435.235 111.074 424.942 120.532 420.947 124.668C418.032 127.682 415.778 131.468 415.778 131.468C415.778 131.468 411.385 129.129 401.689 128.359C397.643 128.033 388.068 131.453 382.061 134.548C377.385 136.958 368.314 139.375 365.829 139.827C361.563 140.603 347.824 143.873 347.824 146.976C347.824 150.078 351.299 152.801 359.444 156.677C367.587 160.556 385.851 163.612 396.832 173.198Z" fill="#F7941E"/>
<path d="M351.497 143.126C346.978 144.407 340.72 145.983 344.339 148.99C348.699 152.618 356.623 155.282 356.623 155.282C356.623 155.282 360.396 144.572 359.314 141.324C359.314 141.325 353.146 142.662 351.497 143.126Z" fill="#231F20"/>
<path d="M397.858 132.093C399.664 124.988 399.519 125.542 400.553 121.515C401.485 117.872 402.934 105.615 403.434 105.931C403.932 106.252 407.957 111.785 409.505 116.738C411.054 121.694 414.346 132.093 414.346 132.093H397.858Z" fill="#F7941E"/>
<path d="M420.165 133.726C420.165 133.726 429.718 123.548 429.931 124.619C430.148 125.704 428.478 135.989 428.478 135.989C428.478 135.989 425.346 134.697 424.221 134.479C423.093 134.263 420.165 133.726 420.165 133.726Z" fill="white"/>
<path d="M405.733 117.41C406.188 116.852 406.721 117.65 407.394 119.173C408.054 120.699 411.361 130.248 411.361 130.248L403.434 128.846C403.432 128.847 405.279 117.97 405.733 117.41Z" fill="white"/>
<path d="M405.636 140.173C405.636 144.218 401.523 148.696 396.77 148.696C393.209 148.696 389.125 144.889 391.182 139.474C393.07 134.501 396.036 133.481 399.74 133.977C403.272 134.454 405.636 136.126 405.636 140.173Z" fill="white"/>
<path d="M395.821 141.858C395.821 142.49 396.33 143 396.967 143C397.595 143 398.11 142.49 398.11 141.858C398.11 141.231 397.595 140.721 396.967 140.721C396.329 140.721 395.821 141.231 395.821 141.858Z" fill="#231F20"/>
<path d="M426.874 174.689C426.874 174.689 448.569 167.361 463.647 170.745C478.724 174.127 481.606 186.074 481.606 186.074C481.606 186.074 484.572 195.832 475.36 209.86C474.854 210.63 468.15 216.808 447.896 214.908C427.643 213.013 428.278 209.86 428.278 209.86L421.097 208.708L426.874 174.689Z" fill="#F7941E"/>
<path d="M539.421 175.271C526.845 179.574 516.642 178.719 510.001 177.426C505.098 176.471 498.333 175.04 491.552 177.227C485.926 179.042 478.379 186.047 478.379 186.047C478.379 186.047 478.746 201.852 498.398 204.012C515.561 205.893 537.308 186.453 544.182 178.238C551.257 169.787 548.499 172.161 539.421 175.271Z" fill="#F7941E"/>
<path d="M481.924 194.881L473.742 200.308L475.32 220.205C475.32 220.205 462.826 223.05 464.246 224.942C465.662 226.837 471.662 224.077 471.662 224.077C471.662 224.077 467.084 227.488 469.926 228.346C472.764 229.2 475.538 226.446 475.538 226.446C474.027 232.828 483.284 229.244 481.756 223.525L481.924 194.881Z" fill="#F7941E"/>
<path d="M540.482 173.91C528.329 178.357 518.539 178.53 511.862 177.755C514.691 179.857 519.649 184.274 518.375 184.454C516.577 184.708 509.353 188.942 511.516 188.637C513.684 188.333 519.102 188.65 519.102 188.65C519.102 188.65 513.67 194.608 514.431 194.858C515.193 195.112 522.17 191.986 522.17 191.986C522.17 191.986 522.12 194.868 522.426 196.973C532.495 190.722 541.291 182.696 545.108 177.663C551.801 168.84 549.511 170.608 540.482 173.91Z" fill="white"/>
<path d="M399.245 176.575C407.828 185.35 411.088 207.456 427.427 213.429C437.593 217.15 442.876 213.455 446.987 212.361C443.374 212.361 444.632 215.838 432.27 209.862C408.63 198.434 421.099 172.415 392.54 164.048C390.667 163.501 376.702 161.262 374.975 162.075C377.259 162.758 392.486 169.666 399.245 176.575Z" fill="white"/>
<path d="M428.724 200.308L419.724 195.681C421.056 205.143 423.18 220.683 423.18 220.683C423.18 220.683 406.935 220.193 409.299 223.504C411.668 226.815 417.908 223.575 417.908 223.575C417.908 223.575 416.084 227.783 417.976 228.256C419.873 228.73 422.283 224.581 422.283 224.581C422.283 224.581 421.766 227.866 425.548 228.296C429.338 228.73 430.193 226.33 429.246 222.068C428.352 218.038 428.461 202.689 428.724 200.308Z" fill="#F7941E"/>
<path d="M392.566 157.928C394.838 161.712 399.245 159.674 399.245 159.674" stroke="#231F20" stroke-width="0.723" stroke-linecap="round"/>
<path d="M429.6 172.415C429.6 172.415 427.297 180.64 421.096 184.087C414.899 187.538 406.478 188.2 406.478 188.2C406.478 188.2 412.736 202.434 416.792 206.692C420.318 210.387 421.818 217.225 421.818 217.225L430.273 218.36L430.059 215.109L450.039 216.723V169.587C450.039 169.587 446.564 169.612 441.103 169.85C435.637 170.089 429.6 172.415 429.6 172.415Z" fill="#2BB673"/>
<path d="M315.597 168.192C315.597 168.192 318.652 174.427 321.104 178.462C323.555 182.49 324.955 186.303 324.835 187.723C324.714 189.149 320.645 194.684 322.893 195.855C324.324 196.59 326.472 194.022 326.472 194.022C326.472 194.022 327.267 196.578 328.757 197.409C330.98 198.652 330.794 193.302 330.794 193.302C330.794 193.302 332.869 198.574 335.875 195.949C337.687 194.358 335.587 191.871 331.044 185.094C326.428 178.211 321.615 165.869 321.615 165.869" fill="#FCB22C"/>
<path d="M546.237 114.191C544.287 110.919 536.775 111.848 539.782 116.581C541.604 119.454 546.805 125.67 548.467 130.11C550.615 135.826 550.374 141 549.882 142.779C549.381 144.561 542.867 150.623 545.443 152.658C547.088 153.938 550.441 151.193 550.441 151.193C550.441 151.193 550.83 154.631 552.529 156.053C555.06 158.171 556.115 151.313 556.115 151.313C556.115 151.313 558.183 159.486 562.641 156.871C565.338 155.287 559.225 143.263 558.414 140.927C554.319 129.16 546.237 114.191 546.237 114.191Z" fill="#FCB22C"/>
<path d="M166.063 123.972C166.063 123.972 173.148 130.188 177.859 134.139C182.576 138.092 187.566 139.596 189.419 139.723C191.275 139.851 199.217 135.689 200.276 138.815C200.95 140.802 197.22 143.074 197.22 143.074C197.22 143.074 200.353 144.603 201.133 146.68C202.294 149.789 195.434 148.499 195.434 148.499C195.434 148.499 201.448 151.971 197.467 155.324C195.058 157.351 189.515 152.755 184.807 147.204C178.179 139.381 161.885 131.277 161.885 131.277" fill="#F7941E"/>
<path d="M118.562 128.688C118.562 128.688 112.263 135.77 107.707 139.891C103.138 144.019 100.311 148.521 99.931 150.343C99.5449 152.164 100.486 161.827 97.2398 162.449C95.179 162.84 93.4449 158.833 93.4449 158.833C93.4449 158.833 91.4997 161.728 89.3341 162.212C86.0946 162.934 88.315 156.318 88.315 156.318C88.315 156.318 82.6882 162.678 79.9147 158.27C78.2365 155.609 81.7216 151.065 91.0611 145.968C100.06 141.056 119.46 115.152 119.46 115.152" fill="#F7941E"/>
<path d="M125.678 96.0888C121.444 106.891 119.426 114.112 113.182 140.773C106.929 167.437 99.8464 183.267 113.182 188.683C126.512 194.099 150.725 194.501 157.893 192.741C159.808 192.271 163.186 186.183 163.178 171.185C163.171 156.189 170.887 99.0625 170.887 99.0625L138.593 73.6685C138.593 73.6696 130.879 82.8125 125.678 96.0888Z" fill="#F7941E"/>
<path d="M155.127 171.933C154.985 173.497 155.742 174.823 155.621 176.266C153.966 195.992 148.248 183.341 140.4 183.341C132.554 183.341 122.333 198.445 122.333 178.648C122.333 158.856 134.996 110.984 142.84 110.739C156.186 110.316 157.433 146.531 155.127 171.933Z" fill="white"/>
<path d="M148.16 194.061H159.318C157.67 205.796 155.03 217.096 155.03 217.096C155.03 217.096 175.184 216.486 172.248 220.591C169.31 224.699 161.575 220.683 161.575 220.683C161.575 220.683 163.835 225.899 161.49 226.485C159.142 227.072 156.147 221.928 156.147 221.928C156.147 221.928 156.796 226.004 152.098 226.538C147.4 227.072 146.341 224.096 147.517 218.814C148.595 213.951 148.484 196.989 148.16 194.061Z" fill="#F7941E"/>
<path d="M15.2353 164.61C35.2921 170.815 51.5624 169.581 62.1546 167.716C69.9709 166.338 80.7598 164.274 91.5748 167.43C100.551 170.043 112.582 180.149 112.582 180.149C112.582 180.149 111.996 202.939 80.6549 206.052C53.2835 208.766 18.6011 180.731 7.63826 168.884C-3.63926 156.7 0.750419 160.126 15.2353 164.61Z" fill="#F7941E"/>
<path d="M108.459 187.326L118.603 194.06L116.646 216.5C116.646 216.5 132.143 220.027 130.381 222.375C128.619 224.723 121.181 221.306 121.181 221.306C121.181 221.306 126.86 225.539 123.338 226.598C119.82 227.66 116.379 224.242 116.379 224.242C118.249 232.158 106.775 227.707 108.665 220.615L108.459 187.326Z" fill="#F7941E"/>
<path d="M13.5416 162.648C32.9227 169.055 48.5327 169.306 59.1868 168.191C54.6768 171.22 46.7663 177.586 48.7985 177.848C51.6721 178.216 63.1856 184.317 59.7327 183.882C56.2763 183.442 47.64 183.9 47.64 183.9C47.64 183.9 56.3061 192.49 55.0832 192.851C53.8711 193.217 42.7449 188.706 42.7449 188.706C42.7449 188.706 42.8832 192.449 42.3969 195.483C26.3376 186.47 12.2461 175.31 6.16511 168.057C-4.51171 155.342 -0.856226 157.883 13.5416 162.648Z" fill="white"/>
<path d="M13.5416 162.648C32.9227 169.055 48.5327 169.306 59.1868 168.191C54.6768 171.22 46.7663 177.586 48.7985 177.848C51.6721 178.216 63.1856 184.317 59.7327 183.882C56.2763 183.442 47.64 183.9 47.64 183.9C47.64 183.9 56.3061 192.49 55.0832 192.851C53.8711 193.217 42.7449 188.706 42.7449 188.706C42.7449 188.706 42.8832 192.449 42.3969 195.483C26.3376 186.47 12.2461 175.31 6.16511 168.057C-4.51171 155.342 -0.856226 157.883 13.5416 162.648Z" fill="white"/>
<path d="M163.178 186.161C163.529 183.044 164.286 172.935 164.286 172.935C164.286 172.935 134.766 171.211 124.798 169.655C114.834 168.097 106.522 164.015 106.522 164.015C106.522 164.015 104.888 172.247 103.957 195.623C103.872 197.704 103.818 199.507 103.818 199.507C103.818 199.507 120.51 198.781 123.55 199.532L125.059 194.416L147.077 194.062V200.793L161.891 202.11C161.888 202.11 162.718 190.228 163.178 186.161Z" fill="#00A5A5"/>
<path d="M121.22 169.206C121.22 169.206 125.094 129.379 124 121.221C121.957 106.011 120.238 105.068 120.238 105.068L122.205 102.501C122.205 102.501 126.578 106.288 128.758 121.593C130.012 130.431 127.204 169.425 127.204 169.425L121.22 169.206Z" fill="#231F20"/>
<path d="M155.426 173.031C155.426 173.031 161.626 124.106 165.769 115.371C167.934 110.822 170.554 107.885 170.554 107.885L171.626 102.906C171.626 102.906 168.01 102.649 161.961 113.086C156.771 122.047 150.326 172.101 150.326 172.101L155.426 173.031Z" fill="#231F20"/>
<path d="M126.798 172.967L120.674 172.213L121.243 168.556L127.419 169.437L126.798 172.967Z" fill="#48484A"/>
<path d="M155.622 171.921L149.839 171.711L149.705 175.391L155.488 175.602L155.622 171.921Z" fill="#48484A"/>
<path d="M184.135 64.0918C184.135 64.0918 182.951 61.9988 185.245 60.764C187.543 59.528 194.958 57.428 194.958 57.428C194.958 57.428 192.37 54.9131 189.462 53.6545C187.108 52.6343 181.546 51.4686 181.546 51.4686C181.546 51.4686 178.362 43.7595 176.927 40.0337C172.168 27.6716 167.336 18.8458 164.125 11.8125C160.911 4.78406 160.11 10.9007 159.235 13.306C158.367 15.7076 151.705 40.1756 151.705 40.1756C151.705 40.1756 148.59 41.1446 139.158 43.4866C129.724 45.8298 119.614 49.452 119.614 49.452C119.614 49.452 96.6986 35.619 93.0217 34.0732C89.3448 32.5237 94.3983 47.216 95.9144 52.4138C98.7785 62.2372 99.1158 71.914 99.1158 71.914C99.1158 71.914 95.6498 75.3026 92.7476 79.4467C89.9753 83.4145 87.4151 91.9602 89.6642 88.8363C91.9073 85.71 100.504 84.1081 100.504 84.1081C100.504 84.1081 98.8631 88.5061 98.3708 89.9936C96.794 94.841 95.4353 99.4785 95.4353 99.4785C95.4353 99.4785 98.4817 98.059 102.62 94.1222C106.76 90.189 108.2 89.1616 105.824 95.3653C103.445 101.568 103.966 105.495 103.966 105.495C103.966 105.495 105.903 103.366 108.467 101.366C110.832 99.5286 113.502 101.203 113.502 101.203C113.502 101.203 129.984 112.242 145.7 129.136C160.053 144.556 168.52 154.597 170.192 146.076C171.09 141.492 174.849 108.764 176.491 85.6301C176.859 85.1856 176.491 84.4251 177.634 83.4585C183.576 78.4383 188.506 78.4098 188.506 78.4098C188.506 78.4098 188.502 77.7292 186.997 76.2155C184.062 73.2764 181.136 71.7972 181.136 71.7972C181.136 71.7972 180.934 70.7388 185.937 70.33C190.101 69.9927 193.308 70.0976 193.308 70.0976C193.308 70.0976 191.695 68.218 189.461 66.8688C187.127 65.4552 184.135 64.0918 184.135 64.0918Z" fill="#F7941E"/>
<path d="M171.75 55.6604C176.041 58.8701 177.528 66.7865 173.763 71.8258C170.938 75.6052 163.657 76.9175 159.543 70.4384C155.77 64.4946 157.682 60.7843 160.501 57.0072C163.33 53.2254 167.458 52.4543 171.75 55.6604Z" fill="white"/>
<path d="M171.559 65.2753C172.23 65.7676 173.173 65.6328 173.671 64.9666C174.173 64.2944 174.033 63.348 173.373 62.8486C172.704 62.3457 171.756 62.4863 171.256 63.155C170.756 63.8272 170.892 64.7723 171.559 65.2753Z" fill="#231F20"/>
<path d="M118.468 71.7305C116.552 75.8925 118.665 82.4561 123.559 84.7064C127.217 86.3988 133.232 84.4167 133.681 77.8591C134.097 71.852 132.52 69.1965 128.848 67.5065C125.181 65.8188 120.387 67.5649 118.468 71.7305Z" fill="white"/>
<path d="M127.1 76.9831C127.53 77.7053 128.459 77.9437 129.171 77.511C129.892 77.0891 130.137 76.1618 129.715 75.4503C129.286 74.7304 128.36 74.4921 127.641 74.9152C126.919 75.3431 126.678 76.2727 127.1 76.9831Z" fill="#231F20"/>
<path d="M144.36 114.13C137.344 104.428 124.029 101.419 114.359 101.793C121.004 108.408 126.475 112.777 137.574 122.626C141.188 125.832 148.81 132.498 149.909 133.675C149.404 127.558 148.475 119.813 144.36 114.13Z" fill="white"/>
<path d="M168.575 105.781C168.233 111.655 169.596 122.65 172.832 125.515C174.521 107.107 176.32 87.6861 177.32 83.4597C173.658 85.2797 169.181 95.2605 168.575 105.781Z" fill="white"/>
<path d="M158.103 38.8752C158.103 38.8752 161.626 21.3415 162.546 22.7229C163.479 24.1007 171.031 37.203 171.031 37.203C171.031 37.203 165.901 37.2209 164.204 37.5725C162.507 37.9253 158.103 38.8752 158.103 38.8752Z" fill="white"/>
<path d="M103.614 60.5483C103.614 60.5483 100.169 45.0563 101.562 45.9705C102.941 46.8787 114.013 54.6175 114.013 54.6175C114.013 54.6175 109.613 56.3958 108.303 57.2957C106.994 58.1944 103.614 60.5483 103.614 60.5483Z" fill="white"/>
<path d="M157.297 141.858C164.405 148.727 170.882 154.039 171.626 147.736C172.721 138.43 173.148 125.515 173.148 125.515C173.148 125.515 154.855 130.933 150.326 134.528C150.326 134.528 155.301 139.932 157.297 141.858Z" fill="#231F20"/>
<path d="M320.434 163.384C318.098 161.873 312.578 163.781 314.904 169.467C315.876 171.835 317.234 175.258 318.345 176.369C318.345 176.369 325.14 174.675 326.38 173.853C325.888 172.079 323.305 165.233 320.434 163.384Z" fill="#EF4754"/>
<path d="M686.4 164.79C666.484 170.654 649.741 169.465 638.655 166.94C643.115 171.049 650.723 176.401 648.559 176.476C645.505 176.584 632.865 182.537 636.533 182.409C640.198 182.282 649.23 183.796 649.23 183.796C649.23 183.796 639.353 193.018 640.598 193.584C641.841 194.155 653.937 190.057 653.937 190.057C653.937 190.057 651.903 194.479 652.134 198.138C670.576 189.501 687.168 177.587 694.219 169.666C706.579 155.764 701.831 160.25 686.4 164.79Z" fill="white"/>
</svg>
