<svg width="927" height="535" viewBox="0 0 927 535" fill="none" xmlns="http://www.w3.org/2000/svg">
<path d="M186.5 491.5C106 491.5 63 474.999 20.5 396.999C-7.99998 290.499 -8.00003 246.499 32.5356 173.514C52.7072 137.195 115.845 72.9201 242.327 59.9847C333.619 43.9354 433.853 96.8923 504.664 43.7839C609.557 -34.885 722.334 3.06236 815.111 77.9213C873.344 124.908 939.167 204.087 924.552 301.873C891.06 453.464 822.284 502.038 773.5 524.709C724.826 536.959 645 543.5 542.5 511C510.839 497.719 456 474.999 373 474.999C300.217 474.999 245.356 485.48 186.5 491.5Z" fill="#DACFB9"/>
<path opacity="0.59" d="M541.559 455.151C645.812 483.585 785.706 470.783 823.474 440.6C832.722 413.423 823.964 401.113 767.31 398.472C701.504 395.404 631.472 362.211 564.656 363.281C449.362 365.11 324.73 363.611 209.435 365.019C153.091 365.71 102.315 371.147 117.698 405.745C130.54 434.652 185.473 435.264 239.681 434.764C306.257 434.146 323.047 421.295 418.798 433.458" fill="#CCB88D"/>
</svg>
