<svg width="867" height="321" viewBox="0 0 867 321" fill="none" xmlns="http://www.w3.org/2000/svg">
<path fill-rule="evenodd" clip-rule="evenodd" d="M592.357 263.598C592.357 265.387 593.352 271.053 591.447 274.957C589.544 278.854 579.18 277.059 578.697 283.745C578.497 286.591 578.359 291.847 578.258 296.959H594.446C594.498 293.95 594.565 291.182 594.675 289.584C595.02 284.687 605.993 287.53 606.266 280.803C606.556 274.084 606.168 263.473 606.168 263.473L592.357 263.598Z" fill="#231F20"/>
<path fill-rule="evenodd" clip-rule="evenodd" d="M574.424 300.695H597.892V298.64C597.892 297.499 596.632 296.569 595.108 296.569H577.211C575.685 296.569 574.424 297.499 574.424 298.64V300.695Z" fill="#67625F"/>
<path fill-rule="evenodd" clip-rule="evenodd" d="M724.292 263.598C724.292 265.387 723.297 271.053 725.2 274.957C727.103 278.854 737.464 277.059 737.95 283.745C738.151 286.591 738.287 291.847 738.385 296.959H722.201C722.149 293.95 722.081 291.182 721.972 289.584C721.624 284.687 710.651 287.53 710.38 280.803C710.088 274.084 710.477 263.473 710.477 263.473L724.292 263.598Z" fill="#231F20"/>
<path fill-rule="evenodd" clip-rule="evenodd" d="M742.219 300.695H718.755V298.64C718.755 297.499 720.014 296.569 721.535 296.569H739.435C740.96 296.569 742.219 297.499 742.219 298.64V300.695Z" fill="#67625F"/>
<path fill-rule="evenodd" clip-rule="evenodd" d="M572.923 128.569L572.964 286.346C572.964 286.98 572.82 288.244 575.386 288.194C577.962 288.153 742.275 287.525 742.275 287.525C743.028 287.435 745.993 287.937 745.915 284.616C745.84 281.28 745.66 128.432 745.66 128.432L572.923 128.569Z" fill="#716C67"/>
<path fill-rule="evenodd" clip-rule="evenodd" d="M567.54 121.834L749.218 122.061C749.828 122.061 750.324 122.561 750.324 123.166V129.534C750.324 130.136 749.83 130.64 749.218 130.64H567.805C567.201 130.64 566 129.894 566 129.283L566.223 123.166C566.223 122.561 566.929 121.834 567.54 121.834Z" fill="#231F20"/>
<path fill-rule="evenodd" clip-rule="evenodd" d="M573.858 165.815L744.026 166.039C744.598 166.039 745.066 166.542 745.066 167.144V173.513C745.066 174.117 744.598 174.618 744.026 174.618H574.108C573.539 174.618 572.419 173.873 572.419 173.263L572.62 167.144C572.62 166.542 573.284 165.815 573.858 165.815Z" fill="#2A2A2B"/>
<path fill-rule="evenodd" clip-rule="evenodd" d="M719.442 223.428C718.392 223.428 717.53 224.287 717.53 225.337C717.53 226.392 718.392 227.242 719.442 227.242C720.497 227.242 721.351 226.392 721.351 225.337C721.351 224.289 720.497 223.428 719.442 223.428Z" fill="#231F20"/>
<path fill-rule="evenodd" clip-rule="evenodd" d="M719.442 230.265C718.392 230.265 717.53 231.118 717.53 232.173C717.53 233.226 718.392 234.076 719.442 234.076C720.497 234.076 721.351 233.226 721.351 232.173C721.351 231.117 720.497 230.265 719.442 230.265Z" fill="#231F20"/>
<path fill-rule="evenodd" clip-rule="evenodd" d="M738.298 131.116H731.103C730.723 131.116 730.418 131.386 730.418 131.687V165.421C730.418 165.72 730.723 165.978 731.103 165.978H738.298C738.668 165.978 738.972 165.72 738.972 165.421V131.687C738.974 131.368 738.668 131.116 738.298 131.116Z" fill="#545557"/>
<path fill-rule="evenodd" clip-rule="evenodd" d="M592.979 131.116H585.777C585.402 131.116 585.1 131.386 585.1 131.687V165.421C585.1 165.72 585.402 165.978 585.777 165.978H592.979C593.347 165.978 593.649 165.72 593.649 165.421V131.687C593.651 131.368 593.349 131.116 592.979 131.116Z" fill="#545557"/>
<path fill-rule="evenodd" clip-rule="evenodd" d="M658.797 116.737C658.797 116.737 723.242 116.682 725.388 116.682C727.537 116.682 728.433 116.702 728.253 116.979C728.08 117.251 729.333 122.503 729.333 122.564C729.333 122.62 729.162 122.728 728.219 122.735C727.274 122.739 661.88 122.834 661.88 122.834C661.88 122.834 657.379 122.934 657.379 122.799C657.379 122.66 658.069 116.857 658.069 116.857C658.016 116.793 658.211 116.778 658.797 116.737Z" fill="#545353"/>
<path fill-rule="evenodd" clip-rule="evenodd" d="M581.034 116.737C581.034 116.737 645.483 116.682 647.63 116.682C649.781 116.682 650.675 116.702 650.495 116.979C650.319 117.251 651.568 122.503 651.568 122.564C651.568 122.62 651.404 122.728 650.455 122.735C649.515 122.739 584.12 122.834 584.12 122.834C584.12 122.834 579.62 122.934 579.62 122.799C579.62 122.66 580.309 116.857 580.309 116.857C580.258 116.793 580.447 116.778 581.034 116.737Z" fill="#545353"/>
<path fill-rule="evenodd" clip-rule="evenodd" d="M595.126 187.427C595.126 187.427 718.332 186.855 722.436 186.855C726.546 186.855 728.251 187.061 727.917 189.988C727.579 192.912 729.972 269.341 729.972 269.967C729.972 270.592 729.652 271.748 727.843 271.81C726.044 271.859 601.025 272.886 601.025 272.886C601.025 272.886 595.89 273.938 595.89 272.477C595.89 271.017 593.736 188.712 593.736 188.712C593.637 188.056 594.005 187.853 595.126 187.427Z" fill="#545353"/>
<path fill-rule="evenodd" clip-rule="evenodd" d="M608.278 197.037C608.278 197.037 705.435 196.593 708.669 196.593C711.909 196.593 713.258 196.754 712.994 199.02C712.722 201.285 714.61 260.486 714.61 260.97C714.61 261.454 714.36 262.35 712.934 262.402C711.515 262.437 612.931 263.235 612.931 263.235C612.931 263.235 608.876 264.045 608.876 262.916C608.876 261.785 607.18 198.036 607.18 198.036C607.103 197.523 607.391 197.369 608.278 197.037Z" fill="#A8A9AD"/>
<path fill-rule="evenodd" clip-rule="evenodd" d="M587.888 183.284C587.888 183.284 722.786 183.209 727.274 183.209C731.777 183.209 733.646 183.239 733.275 183.629C732.904 184.015 735.526 194.164 735.526 194.243C735.526 194.325 735.178 194.483 733.201 194.489C731.233 194.493 594.344 194.634 594.344 194.634C594.344 194.634 588.723 194.771 588.723 194.579C588.723 194.386 586.365 183.458 586.365 183.458C586.254 183.371 586.66 183.342 587.888 183.284Z" fill="#CBCBCE"/>
<path d="M617.135 158.183C622.416 158.183 626.697 153.902 626.697 148.621C626.697 143.341 622.416 139.06 617.135 139.06C611.855 139.06 607.574 143.341 607.574 148.621C607.574 153.902 611.855 158.183 617.135 158.183Z" fill="#F57E20"/>
<path fill-rule="evenodd" clip-rule="evenodd" d="M609.594 148.11C609.665 147.063 609.901 146.056 610.321 145.557C611.281 145.016 614.403 144.826 617.389 144.876C620.354 144.923 623.1 145.61 623.507 146.178C623.837 146.527 624.037 147.399 624.082 148.334L609.594 148.11Z" fill="#545353"/>
<path fill-rule="evenodd" clip-rule="evenodd" d="M610.199 145.714C609.483 146.494 609.213 150.062 610.158 151.234C611.093 151.808 614.26 152.418 617.245 152.464C620.22 152.505 623.011 151.988 623.446 151.443C624.221 150.677 624.433 147.098 623.539 146.213C618.843 147.777 614.437 147.577 610.199 145.714Z" fill="#231F20"/>
<path fill-rule="evenodd" clip-rule="evenodd" d="M672.441 141.864C676.176 145.595 676.176 151.649 672.441 155.385C668.711 159.117 662.658 159.117 658.925 155.385C655.188 151.649 655.188 145.595 658.925 141.864C662.655 138.129 668.708 138.129 672.441 141.864Z" fill="#F57E20"/>
<path fill-rule="evenodd" clip-rule="evenodd" d="M659.99 153.592C659.302 152.8 658.748 151.922 658.695 151.271C658.992 150.21 661.066 147.866 663.209 145.79C665.343 143.728 667.768 142.273 668.457 142.384C668.938 142.398 669.695 142.875 670.393 143.504L659.99 153.592Z" fill="#545353"/>
<path fill-rule="evenodd" clip-rule="evenodd" d="M658.723 151.467C658.764 152.528 661.102 155.24 662.595 155.406C663.659 155.145 666.336 153.341 668.475 151.261C670.607 149.189 672.216 146.846 672.138 146.155C672.141 145.065 669.762 142.385 668.503 142.394C666.288 146.819 663.033 149.793 658.723 151.467Z" fill="#231F20"/>
<path d="M706.639 158.181C711.919 158.181 716.199 153.901 716.199 148.621C716.199 143.342 711.919 139.061 706.639 139.061C701.359 139.061 697.079 143.342 697.079 148.621C697.079 153.901 701.359 158.181 706.639 158.181Z" fill="#F57E20"/>
<path fill-rule="evenodd" clip-rule="evenodd" d="M699.102 148.11C699.174 147.063 699.404 146.056 699.826 145.557C700.79 145.017 703.914 144.826 706.896 144.876C709.862 144.923 712.603 145.61 713.016 146.178C713.343 146.527 713.544 147.399 713.59 148.334L699.102 148.11Z" fill="#545353"/>
<path fill-rule="evenodd" clip-rule="evenodd" d="M699.704 145.714C698.987 146.494 698.723 150.062 699.66 151.234C700.599 151.808 703.765 152.418 706.751 152.464C709.724 152.505 712.518 151.988 712.951 151.443C713.725 150.677 713.939 147.098 713.038 146.213C708.348 147.777 703.939 147.577 699.704 145.714Z" fill="#231F20"/>
<path fill-rule="evenodd" clip-rule="evenodd" d="M724.181 100.607C725.709 99.8924 731.009 97.9907 733.376 93.0093C735.731 88.0249 734.815 80.6718 739.356 75.2723C743.893 69.8971 746.725 67.3423 746.725 67.3423L741.903 66.4846L744.203 62.5746C744.474 62.1182 736.033 64.4044 732.254 71.0311C728.475 77.6577 728.584 84.7192 726.023 86.9093C723.467 89.0902 722.296 89.229 721.205 89.7952C723.074 93.0963 724.181 96.721 724.181 100.474V100.607Z" fill="#2BB673"/>
<path fill-rule="evenodd" clip-rule="evenodd" d="M693.174 58.0113C695.353 57.8328 696.75 59.7954 696.527 61.9686C696.273 64.4288 693.755 65.9306 693.174 65.9306C692.592 65.9306 690.056 64.6257 689.821 61.9686C689.629 59.7923 691.321 58.0113 693.174 58.0113Z" fill="#F57E20"/>
<path fill-rule="evenodd" clip-rule="evenodd" d="M670.199 92.1624H660.41L659.244 100.607L670.199 100.829V92.1624Z" fill="#2BB673"/>
<path fill-rule="evenodd" clip-rule="evenodd" d="M724.668 116.483C724.668 116.483 699.112 123.044 665.369 116.483C664.377 116.293 665.369 98.4043 665.369 98.4043C665.369 84.5452 679.533 73.6164 691.313 73.6164H695.362C708.432 73.6164 724.668 86.1065 724.668 100.474V116.483Z" fill="#2BB673"/>
<path fill-rule="evenodd" clip-rule="evenodd" d="M657.715 83.4526C655.703 88.2783 654.553 93.9083 654.169 99.5948C653.974 102.514 654.101 105.594 654.452 108.37C654.719 110.405 660.708 110.206 660.802 108.709C660.431 105.609 660.524 104.364 660.729 99.7688C660.932 95.169 662.029 88.3623 664.782 83.0482C665.103 82.1904 658.447 81.6746 657.715 83.4526Z" fill="#F57E20"/>
<path fill-rule="evenodd" clip-rule="evenodd" d="M685.987 66.2358C690.17 65.4956 694.756 65.7505 699.498 66.3884C702.52 66.7944 705.534 68.2931 705.604 71.3378C705.642 73.1906 705.604 74.822 705.442 75.8171C697.117 75.0799 689.054 74.9304 680.911 76.5283L680.914 72.1009C680.824 69.0501 682.988 66.7654 685.987 66.2358Z" fill="#51BB7B"/>
<path opacity="0.31" fill-rule="evenodd" clip-rule="evenodd" d="M686.968 196.45L631.488 262.632L658.91 263.01L713.702 202.574L711.674 196.259L686.968 196.45Z" fill="#CBCBCE"/>
<path opacity="0.18" fill-rule="evenodd" clip-rule="evenodd" d="M675.816 196.259L670.232 196.45L614.748 262.632L623.052 263.01" fill="#CBCBCE"/>
<path fill-rule="evenodd" clip-rule="evenodd" d="M750.695 299.834H733.28V297.78C733.28 296.635 734.211 295.709 735.342 295.709H748.63C749.763 295.709 750.697 296.635 750.697 297.78V299.834H750.695Z" fill="#67625F"/>
<path fill-rule="evenodd" clip-rule="evenodd" d="M782.056 302.218C782.197 305.395 792.752 305.342 792.608 302.059C792.092 290.253 791.583 255.854 791.073 244.046C790.945 241.057 780.391 240.934 780.533 244.205C781.043 256.013 781.553 290.411 782.056 302.218Z" fill="#E94824"/>
<path fill-rule="evenodd" clip-rule="evenodd" d="M752.349 300.054C752.213 303.234 741.657 303.178 741.81 299.901C742.321 288.095 742.823 253.693 743.337 241.885C743.467 238.896 754.019 238.77 753.877 242.044C753.378 253.855 752.856 288.25 752.349 300.054Z" fill="#E94824"/>
<path fill-rule="evenodd" clip-rule="evenodd" d="M790.204 277.602C790.241 276.573 789.383 275.694 788.289 275.67C771.382 275.128 758.27 274.62 741.367 274.075C738.22 273.982 737.984 281.286 741.1 281.381C758.009 281.923 771.121 282.432 788.036 282.963C789.127 282.999 790.046 282.191 790.079 281.15C790.127 279.969 790.166 278.786 790.204 277.602Z" fill="#E94824"/>
<path fill-rule="evenodd" clip-rule="evenodd" d="M796.479 281.585C796.514 280.545 795.549 279.678 794.331 279.643C775.352 279.105 760.646 278.593 741.669 278.06C738.141 277.956 737.872 285.262 741.373 285.369C760.35 285.906 775.06 286.413 794.044 286.948C795.268 286.98 796.291 286.167 796.329 285.134C796.384 283.948 796.422 282.765 796.479 281.585Z" fill="#ED1C24"/>
<path fill-rule="evenodd" clip-rule="evenodd" d="M791.209 306.314C791.58 310.067 803.194 307.509 802.844 304.072C801.541 290.649 800.23 254.635 798.925 241.215C798.586 237.814 786.911 239.701 787.283 243.457C788.591 256.88 789.902 292.897 791.209 306.314Z" fill="#ED1C24"/>
<path fill-rule="evenodd" clip-rule="evenodd" d="M743.367 302.393C743.002 306.155 731.214 305.348 731.568 301.908C732.871 288.491 734.182 252.474 735.49 239.054C735.821 235.648 747.498 237.534 747.129 241.293C745.824 254.719 744.514 290.73 743.205 304.154" fill="#ED1C24"/>
<path fill-rule="evenodd" clip-rule="evenodd" d="M728.32 227.625L728.215 237.137C728.215 237.137 730.988 246.708 766.749 247.176C802.501 247.642 804.946 238.377 804.946 238.377L805.062 228.617L728.32 227.625Z" fill="#ED1C24"/>
<path fill-rule="evenodd" clip-rule="evenodd" d="M805.062 228.545C805.1 225.41 787.95 222.669 766.761 222.433C745.57 222.19 728.358 224.53 728.32 227.657C728.282 230.79 745.982 236.214 767.17 236.461C788.367 236.705 805.02 231.674 805.062 228.545Z" fill="#E94824"/>
<path fill-rule="evenodd" clip-rule="evenodd" d="M814.912 277.34C814.658 278.41 815.325 279.479 816.383 279.727L821.734 280.996C822.785 281.25 823.863 280.587 824.116 279.53L866.96 80.5055L860.442 78.958L814.912 277.34Z" fill="#00A5A5"/>
<path fill-rule="evenodd" clip-rule="evenodd" d="M824.955 260.108C815.472 257.237 801.839 258.372 798.815 269.581L793.924 287.669L793.971 287.684C792.984 291.043 786.69 312.487 790.075 308.448C793.454 304.414 798.649 289.326 798.649 289.326C798.649 289.326 791.909 318.574 796.27 309.923C800.628 301.276 803.101 292.932 803.963 290.051L804.01 290.072C802.797 295.316 797.405 320.187 802.811 309.966C808.219 299.751 810.59 294.076 811.501 291.846L811.577 291.867C810.155 296.55 804.088 317.224 808.534 311.32C812.981 305.427 816.268 296.165 817.279 293.221L817.384 293.245C816.355 298.062 811.635 320.159 816.162 313.139C820.684 306.116 823.914 295.335 823.914 295.335C823.914 295.335 817.302 321.965 822.245 315.082C827.193 308.208 830.002 298.697 830.688 296.405H830.678C829.519 300.148 822.355 324.117 828.432 315.637C836.193 304.794 838.445 292.407 841.981 279.835C844.815 269.353 833.23 262.618 824.955 260.108Z" fill="#E9BD59"/>
<path fill-rule="evenodd" clip-rule="evenodd" d="M796.395 278.544L795.613 281.43L838.412 293.07C838.686 292.113 838.947 291.156 839.207 290.19L796.395 278.544Z" fill="#ED1C24"/>
<path fill-rule="evenodd" clip-rule="evenodd" d="M798.119 272.157L797.341 275.037L840.139 286.686C840.395 285.729 840.646 284.766 840.907 283.794L798.119 272.157Z" fill="#F7941E"/>
<path fill-rule="evenodd" clip-rule="evenodd" d="M257.873 282.28C258.761 292.521 262.866 296.988 267.887 303.605C264.13 306.537 260.189 305.782 256.223 304.301C252.09 299.366 250.953 289.092 249.646 282.421L257.873 282.28Z" fill="#231F20"/>
<path fill-rule="evenodd" clip-rule="evenodd" d="M259.016 176.326C259.016 176.326 210.604 171.119 172.607 174.766C134.613 178.403 139.822 197.148 139.822 197.148L157.513 223.172L167.409 251.278C167.409 251.278 168.967 266.372 172.607 268.459C176.253 270.532 230.388 260.648 230.388 260.648L244.964 257.523V225.255L259.016 176.326Z" fill="#7F587E"/>
<path fill-rule="evenodd" clip-rule="evenodd" d="M262.43 282.604C261.204 255.485 261.336 231.474 265.036 205.427C265.036 205.427 276.936 205.723 278.615 192.224C280.306 178.725 268.157 174.483 258.946 175.824C249.734 177.167 243.183 185.781 242.405 202.102C242.046 209.796 241.651 229.121 241.453 247.325C237.282 247.215 226.693 247.116 216.808 248.238C205.707 249.503 185.313 254.744 180.461 256.018C181.494 274.945 182.161 292.728 181.758 294.561C207.352 291.03 248.497 285.159 262.43 282.604Z" fill="#AE7DAF"/>
<path fill-rule="evenodd" clip-rule="evenodd" d="M70.3555 290.073C69.0918 300.312 64.8201 304.785 59.5518 311.392C63.2008 314.327 67.1658 313.573 71.1933 312.089C75.5032 307.158 77.0187 296.884 78.583 290.212L70.3555 290.073Z" fill="#231F20"/>
<path fill-rule="evenodd" clip-rule="evenodd" d="M162.222 294.451C163.376 305.959 160.166 310.994 156.467 318.421C160.821 321.729 164.606 320.878 168.273 319.215C171.42 313.666 170.503 302.119 170.474 294.61L162.222 294.451Z" fill="#231F20"/>
<path fill-rule="evenodd" clip-rule="evenodd" d="M70.1404 191.434C69.2568 187.945 56.0417 135.619 51.0817 123.055C45.9507 110.059 29.3201 94.9297 12.3232 106.522C-4.66762 118.121 -1.86253 139.196 7.39672 148.454C16.6529 157.713 33.1843 147.005 32.261 146.085C31.3362 145.156 35.8216 155.029 39.5317 170.385C42.0468 180.813 45.2456 195.484 47.0389 203.828C51.9531 198.196 60.7896 194.225 70.1404 191.434Z" fill="#7F587E"/>
<path fill-rule="evenodd" clip-rule="evenodd" d="M145.967 186.399C146.116 186.39 146.264 186.385 146.418 186.376C146.263 186.385 146.115 186.39 145.967 186.399ZM141.062 187.038C141.197 187.006 141.333 186.982 141.474 186.95C141.333 186.983 141.197 187.006 141.062 187.038ZM128.834 196.914L128.851 196.87L128.834 196.914ZM22.6326 102.09C22.6326 102.09 47.1458 90.6182 69.6782 84.6966C92.2089 78.7644 135.535 73.6976 142.17 78.2104C166.596 101.358 176.362 155.737 183.947 188.282L166.471 192.12C161.791 188.551 155.89 186.703 149.228 186.4C149.027 186.391 148.816 186.384 148.621 186.377L148.526 185.976C148.526 185.976 115.111 183.632 103.675 185.094C98.1305 185.813 83.5983 187.417 70.1482 191.435C69.2615 187.946 56.0464 135.62 51.0864 123.057C47.0344 112.787 35.8019 101.188 22.8813 102.498L22.6326 102.09Z" fill="#AE7DAF"/>
<path d="M165.397 266.481L197.561 290.818C203.759 298.786 218.152 289.897 207.927 285.374C207.927 285.374 214.528 284.447 216.281 279.707C218.052 274.968 208.702 277.667 208.702 277.667C208.702 277.667 218.616 272.356 217.507 268.485C216.393 264.607 199.666 278.663 199.666 278.663L176.241 257.494C176.241 257.494 199.727 225.458 200.66 225.228C201.322 225.069 223 241.078 227.813 246.74C232.633 252.407 236.773 253.721 240.085 248.131C243.392 242.546 238.385 239.868 238.385 239.868C238.385 239.868 246.515 240.86 247.821 237.792C249.118 234.737 241.529 232.894 241.529 232.894C241.529 232.894 252.346 227.734 250.281 221.108C248.221 214.489 232.176 237.081 232.176 237.081C232.176 237.081 220.292 222.804 207.727 210.561L165.397 266.481Z" fill="#F7941E"/>
<path d="M136.303 298.145L135.794 296.148C135.894 296.867 136.046 297.534 136.303 298.145Z" fill="#F7941E"/>
<path d="M243.374 39.7374C238.13 40.1052 209.26 42.28 198.599 39.8259C184.893 36.682 172.642 31.8211 164.654 34.5606C145.509 41.1063 127.648 51.3286 127.648 51.3286C127.648 51.3286 121.165 44.85 113.726 40.2669C103.545 33.9868 83.6929 25.0755 83.6929 25.0755C83.6929 25.0755 84.9016 33.9242 87.8884 41.4909C90.8674 49.0561 99.5513 68.4858 99.5513 68.4858C99.5513 68.4858 100.873 77.7984 101.741 80.7973C103.472 86.8303 103.126 88.0909 103.126 88.0909C103.126 88.0909 83.641 104.245 86.9314 103.749C93.436 102.765 103.307 101.929 103.307 101.929C103.307 101.929 88.1936 117.929 95.9465 115.28C107.802 111.223 111.323 114.613 111.323 114.613C111.323 114.613 104.119 122.279 103.37 129.128C102.622 135.982 105.5 127.382 110.851 124.949C114.099 123.457 117.183 122.407 117.183 122.407C117.183 122.407 125.87 136.048 121.777 145.998C100.459 197.726 115.979 240.121 115.979 240.121C115.979 240.121 95.7267 230.797 82.9695 231.018C67.601 231.283 51.4344 301.591 87.5373 292.206C114.673 285.142 124.455 259.394 125.592 256.16L124.04 250.089L192.84 232.532C192.73 231.834 192.629 231.129 192.509 230.449C189.285 211.285 186.309 163.747 192.032 133.98C197.768 104.209 250.501 82.4242 264.916 70.4209C279.337 58.4192 284.939 51.1409 283.344 44.8897C281.745 38.634 252.369 39.1055 243.374 39.7374Z" fill="#F7941E"/>
<path d="M184.523 147.914C184.523 147.914 191.838 162.464 199.42 164.773C206.989 167.072 213.646 166.337 215.908 165.556C218.169 164.776 225.471 155.842 228.308 159.012C230.099 161.023 226.84 165.59 226.84 165.59C226.84 165.59 231.31 165.825 233.274 167.897C236.219 170.986 227.455 172.918 227.455 172.918C227.455 172.918 238.191 174.919 235.168 180.889C233.333 184.511 227.618 179.501 214.218 176.732C188.832 171.507 178.008 162.134 178.008 162.134" fill="#F7941E"/>
<path d="M191.883 139.997C186.401 168.515 188.894 185.3 195.523 229.077C186.715 231.514 164.68 236.181 156.415 239.056C154.33 233.754 154.206 227.676 152.738 221.933C138.606 166.517 159.729 129.259 200.238 107.408C203.81 105.482 222.922 94.5633 226.894 94.4168C212.831 104.491 194.485 126.43 191.883 139.997Z" fill="white"/>
<path d="M273.96 39.0155C283.734 39.278 297.149 39.2292 291.407 47.1576C284.475 56.7221 269.881 66.1614 269.881 66.1614C269.881 66.1614 261.526 46.3457 262.041 39.2353C262.041 39.2368 270.399 38.9301 273.96 39.0155Z" fill="#625558"/>
<path d="M178.06 35.0978C178.06 35.0978 168.074 24.0652 162.811 18.2657C157.558 12.4816 143.114 -1.00974 142.499 0.0601062C141.889 1.11927 139.727 7.59174 141.705 18.2108C143.677 28.8207 147.274 42.2678 147.274 42.2678L178.06 35.0978Z" fill="#F7941E"/>
<path d="M119.965 58.1277C119.965 58.1277 99.159 44.702 99.2811 46.9882C99.3955 49.2744 104.378 66.9566 104.378 66.9566C104.378 66.9566 110.028 62.7428 112.183 61.7325C114.349 60.7252 119.965 58.1277 119.965 58.1277Z" fill="white"/>
<path d="M152.128 21.115C150.742 20.5275 150.54 22.5145 150.786 25.9713C151.05 29.4174 151.899 38.7316 151.899 38.7316L164.654 34.5651C164.653 34.5651 153.498 21.698 152.128 21.115Z" fill="white"/>
<path d="M139.466 81.6108C141.293 88.7502 149.875 92.8922 158.243 90.751C164.537 89.147 170.031 80.6005 163.963 71.9669C158.386 64.0477 152.689 63.5776 146.39 66.1202C140.377 68.5514 137.652 74.4699 139.466 81.6108Z" fill="white"/>
<path d="M178.415 50.7013C179.736 55.8781 186.137 60.336 191.839 58.8846C196.124 57.7934 199.787 51.6689 195.55 45.3841C191.663 39.6122 187.761 39.8915 183.483 40.9766C179.204 42.0754 177.091 45.5368 178.415 50.7013Z" fill="white"/>
<path d="M153.078 81.3636C153.373 82.5585 152.657 83.7673 151.465 84.0694C150.27 84.3762 149.054 83.6559 148.756 82.4624C148.445 81.2796 149.17 80.0648 150.36 79.755C151.561 79.4589 152.773 80.1731 153.078 81.3636Z" fill="#231F20"/>
<path d="M188.766 50.7487C189.052 51.8613 188.377 52.9937 187.272 53.2699C186.151 53.5583 185.024 52.8914 184.737 51.7758C184.455 50.6769 185.125 49.5415 186.25 49.2591C187.355 48.9722 188.486 49.6483 188.766 50.7487Z" fill="#231F20"/>
<path d="M188.148 189.959C188.148 189.959 168.781 214.541 155.825 219.507C131.011 229.017 113.398 230.491 113.398 230.491C113.398 230.491 117.229 258.489 155.738 266.179C168.277 268.679 176.241 278.198 176.241 278.198C176.241 278.198 187.298 258.069 190.352 255.038L185.413 249.61L200.257 226.462L206.488 231.18L219.051 214.587L188.148 189.959Z" fill="#00A5A5"/>
<path d="M151.619 221.067C151.619 221.067 145.11 171.02 137.487 162.659C127.08 151.265 117.033 153.066 117.033 153.066L118.624 148.925C118.624 148.925 132.593 148.21 143.9 161.301C151.92 170.591 158.429 216.077 158.429 216.077L151.619 221.067Z" fill="#231F20"/>
<path d="M188.267 196.211C188.267 196.211 186.19 160.051 189.699 147.561C191.294 141.884 195.809 129.807 195.809 129.807C195.809 129.807 188.31 134.123 184.523 147.915C179.649 165.721 182.051 198.337 182.051 198.337L188.267 196.211Z" fill="#231F20"/>
<path d="M159.693 221.018L151.438 222.976L150.434 217.983L158.815 216.174L159.693 221.018Z" fill="#48484A"/>
<path d="M188.369 193.887L181.984 198.631L185.005 202.697L191.39 197.953L188.369 193.887Z" fill="#48484A"/>
<path fill-rule="evenodd" clip-rule="evenodd" d="M157.083 298.595C158.31 271.055 156.891 248.378 153.191 223.602C153.191 223.602 129.998 226.61 127.726 210.103C125.453 193.592 134.476 185.738 149.223 186.399C163.98 187.061 175.026 195.365 177.262 212.959C179.484 230.558 182.726 295.066 181.657 294.717C180.601 294.357 165.182 297.78 157.083 298.595Z" fill="#AE7DAF"/>
<path fill-rule="evenodd" clip-rule="evenodd" d="M148.518 185.975C148.518 185.975 115.103 183.626 103.672 185.092C92.244 186.558 42.7123 191.835 43.0022 214.108C43.2968 236.387 57.3665 238.143 57.3665 238.143C61.8931 261.469 62.528 277.357 62.351 292.072L157.022 298.522L157.166 296.644C158.245 269.979 156.801 247.783 153.194 223.604C153.194 223.604 130.001 226.612 127.729 210.105C125.496 193.827 134.226 185.961 148.614 186.378L148.518 185.975Z" fill="#9D68A0"/>
<path d="M133.971 163.906C133.971 163.906 132.996 180.801 140.268 183.904C147.552 187.015 148.598 185.639 150.933 185.106C153.259 184.574 159.548 177.616 161.975 178.795C164.41 179.961 162.326 184.546 162.326 184.546C162.326 184.546 168.472 183.405 170.211 185.683C172.797 189.07 165.134 190.39 164.308 191.403C163.57 192.31 172.04 194.6 168.389 200.212C166.187 203.612 160.459 200.514 148.041 196.047C143.169 194.295 138.24 192.552 133.635 190.933C120.887 186.469 127.521 162.137 127.521 162.137" fill="#F7941E"/>
<path d="M146.63 106.82C149.831 104.316 151.377 112.948 162.536 113.138C170.016 113.268 175.511 103.536 178.51 106.82C181.46 110.065 177.424 120.62 164.125 121.639C153.675 122.446 142.148 110.336 146.63 106.82Z" fill="white"/>
<path fill-rule="evenodd" clip-rule="evenodd" d="M319.319 232.442C319.319 232.442 315.551 241.078 315.551 247.018C315.551 252.946 322.5 264.981 323.101 274.147L324.952 286.604L336.298 286.631L337.239 274.147C337.557 264.697 343.845 252.409 343.845 246.473C343.845 240.54 340.069 232.173 340.069 232.173L319.319 232.442Z" fill="#2BB673"/>
<path fill-rule="evenodd" clip-rule="evenodd" d="M479.813 232.442C479.813 232.442 476.044 241.078 476.044 247.018C476.044 252.946 482.993 264.981 483.591 274.147L485.443 286.604L496.794 286.631L497.736 274.147C498.052 264.697 504.338 252.409 504.338 246.473C504.338 240.54 500.561 232.173 500.561 232.173L479.813 232.442Z" fill="#2BB673"/>
<path d="M482.868 192.119H342.163V220.851H482.868V192.119Z" fill="#279E64"/>
<path fill-rule="evenodd" clip-rule="evenodd" d="M318.518 192.474H340.869C341.43 192.474 341.886 193.079 341.886 193.813V223.721C341.886 224.461 341.432 225.06 340.869 225.06H318.518C317.962 225.06 317.509 224.461 317.509 223.721V193.813C317.509 193.077 317.962 192.474 318.518 192.474Z" fill="#2BB673"/>
<path fill-rule="evenodd" clip-rule="evenodd" d="M321.795 288.498H339.695C341.034 288.498 342.123 287.405 342.123 286.07C342.123 284.736 341.034 283.637 339.695 283.637H321.795C320.455 283.637 319.359 284.736 319.359 286.07C319.359 287.405 320.453 288.498 321.795 288.498Z" fill="#6AC185"/>
<path d="M336.009 292.248H325.473V304.565H336.009V292.248Z" fill="#2BB673"/>
<path fill-rule="evenodd" clip-rule="evenodd" d="M479.025 192.474H501.369C501.933 192.474 502.38 193.079 502.38 193.813V223.721C502.38 224.461 501.933 225.06 501.369 225.06H479.025C478.465 225.06 478.005 224.461 478.005 223.721V193.813C478.007 193.077 478.465 192.474 479.025 192.474Z" fill="#2BB673"/>
<path fill-rule="evenodd" clip-rule="evenodd" d="M482.29 288.498H500.19C501.528 288.498 502.623 287.405 502.623 286.07C502.623 284.736 501.528 283.637 500.19 283.637H482.29C480.951 283.637 479.857 284.736 479.857 286.07C479.857 287.405 480.951 288.498 482.29 288.498Z" fill="#6AC185"/>
<path d="M496.501 292.248H485.973V304.565H496.501V292.248Z" fill="#2BB673"/>
<path fill-rule="evenodd" clip-rule="evenodd" d="M312.116 188.293H512.074C513.32 188.293 514.333 189.305 514.333 190.545C514.333 191.786 513.32 192.8 512.074 192.8H312.116C310.886 192.8 309.868 191.786 309.868 190.545C309.868 189.305 310.886 188.293 312.116 188.293Z" fill="#51BB7B"/>
<path fill-rule="evenodd" clip-rule="evenodd" d="M309.205 188.905H514.992C516.753 188.905 518.197 187.461 518.197 185.697V183.203C518.197 182.812 517.881 182.495 517.487 182.495H306.716C306.322 182.495 306.008 182.812 306.008 183.203V185.697C306.007 187.46 307.444 188.905 309.205 188.905Z" fill="#6AC185"/>
<path fill-rule="evenodd" clip-rule="evenodd" d="M325.25 292.397H336.237C337.568 292.397 338.66 291.312 338.66 289.971C338.66 288.632 337.568 287.546 336.237 287.546H325.25C323.918 287.546 322.825 288.632 322.825 289.971C322.825 291.311 323.918 292.397 325.25 292.397Z" fill="#51BB7B"/>
<path fill-rule="evenodd" clip-rule="evenodd" d="M485.748 292.397H496.729C498.064 292.397 499.161 291.312 499.161 289.971C499.161 288.632 498.064 287.546 496.729 287.546H485.748C484.412 287.546 483.324 288.632 483.324 289.971C483.324 291.311 484.412 292.397 485.748 292.397Z" fill="#51BB7B"/>
<path fill-rule="evenodd" clip-rule="evenodd" d="M316.559 223.202H342.83C344.672 223.202 346.169 224.7 346.169 226.546C346.169 228.375 344.672 229.873 342.83 229.873H316.559C314.723 229.873 313.222 228.375 313.222 226.546C313.222 224.7 314.723 223.202 316.559 223.202Z" fill="#6AC185"/>
<path fill-rule="evenodd" clip-rule="evenodd" d="M477.058 223.202H503.325C505.167 223.202 506.665 224.7 506.665 226.546C506.665 228.375 505.167 229.873 503.325 229.873H477.058C475.222 229.873 473.722 228.375 473.722 226.546C473.723 224.7 475.222 223.202 477.058 223.202Z" fill="#6AC185"/>
<path fill-rule="evenodd" clip-rule="evenodd" d="M317.071 234.397H342.326C343.66 234.397 344.747 233.306 344.747 231.973C344.747 230.63 343.659 229.54 342.326 229.54H317.071C315.736 229.54 314.643 230.629 314.643 231.973C314.643 233.304 315.736 234.397 317.071 234.397Z" fill="#51BB7B"/>
<path fill-rule="evenodd" clip-rule="evenodd" d="M477.567 234.397H502.821C504.156 234.397 505.244 233.306 505.244 231.973C505.244 230.63 504.156 229.54 502.821 229.54H477.567C476.232 229.54 475.135 230.629 475.135 231.973C475.136 233.304 476.232 234.397 477.567 234.397Z" fill="#51BB7B"/>
<path d="M406.273 82.4151L408.315 134.772" stroke="#3A8C42" stroke-width="0.629" stroke-miterlimit="2.613"/>
<path d="M436.732 84.9196L437.058 137.32" stroke="#3A8C42" stroke-width="0.629" stroke-miterlimit="2.613"/>
<path fill-rule="evenodd" clip-rule="evenodd" d="M391.165 135.002H450.493C447.372 150.723 444.296 167.151 441.179 182.869C427.105 185.155 412.912 184.807 399.846 182.495C396.742 166.777 394.283 150.722 391.165 135.002Z" fill="#00A5A5"/>
<path fill-rule="evenodd" clip-rule="evenodd" d="M388.04 54.271L392.808 61.6424L396.051 53.8895C396.051 53.8895 399.051 61.444 399.968 61.0503C400.42 60.858 403.414 52.4473 403.414 52.4473L407.358 59.8858C407.358 59.8858 409.969 52.8914 410.894 52.3816L414.268 59.5943L418.058 51.788C418.058 51.788 426.321 83.404 406.516 86.5784C387.411 89.6399 388.04 54.271 388.04 54.271Z" fill="#ED1C24"/>
<path fill-rule="evenodd" clip-rule="evenodd" d="M422.773 69.7601L426.624 76.9362L430.21 70.0196L433.292 76.9362L437.144 69.2504L440.214 76.4234L444.062 69.7601L446.626 76.6798L450.725 69.7601C450.725 69.7601 455.345 100.787 437.399 101.043C419.44 101.3 422.773 69.7601 422.773 69.7601Z" fill="#F59FBB"/>
<path fill-rule="evenodd" clip-rule="evenodd" d="M394.544 100.293C401.57 99.7279 405.95 107.166 406.973 112.777C401.404 112.091 392.365 108.772 394.544 100.293Z" fill="#3A8C42"/>
<path fill-rule="evenodd" clip-rule="evenodd" d="M389.267 137.153C410.23 137.864 448.969 138.277 449.341 137.153C450.858 132.589 452.793 121.828 452.931 121.833C431.267 121.128 408.36 121.894 385.676 121.833C386.871 126.938 388.073 132.051 389.267 137.153Z" fill="#44BFAF"/>
</svg>
