<svg width="891" height="406" viewBox="0 0 891 406" fill="none" xmlns="http://www.w3.org/2000/svg">
<path d="M229.213 191.328C229.213 191.328 238.992 199.909 245.495 205.362C252.004 210.818 258.893 212.894 261.451 213.07C264.012 213.246 274.974 207.501 276.436 211.816C277.366 214.558 272.218 217.694 272.218 217.694C272.218 217.694 276.541 219.805 277.619 222.672C279.221 226.963 269.752 225.183 269.752 225.183C269.752 225.183 278.053 229.975 272.559 234.603C269.234 237.401 261.582 231.057 255.084 223.394C245.936 212.598 223.445 201.411 223.445 201.411" fill="#F7941E"/>
<path d="M163.649 197.838C163.649 197.838 154.954 207.613 148.665 213.302C142.359 218.999 138.457 225.212 137.932 227.728C137.399 230.241 138.699 243.578 134.218 244.437C131.373 244.977 128.98 239.446 128.98 239.446C128.98 239.446 126.295 243.442 123.306 244.11C118.834 245.107 121.899 235.975 121.899 235.975C121.899 235.975 114.132 244.753 110.304 238.669C107.988 234.996 112.798 228.725 125.689 221.688C138.11 214.909 164.887 179.154 164.887 179.154" fill="#F7941E"/>
<path d="M173.47 152.842C167.626 167.752 164.841 177.719 156.222 214.519C147.591 251.322 137.815 273.172 156.222 280.648C174.621 288.123 208.042 288.677 217.936 286.249C220.579 285.599 225.242 277.196 225.23 256.496C225.22 235.797 235.871 156.946 235.871 156.946L191.296 121.896C191.296 121.897 180.649 134.517 173.47 152.842Z" fill="#F7941E"/>
<path d="M214.117 257.527C213.921 259.687 214.966 261.516 214.8 263.509C212.515 290.735 204.623 273.274 193.79 273.274C182.96 273.274 168.854 294.121 168.854 266.796C168.854 239.479 186.331 173.401 197.158 173.064C215.58 172.48 217.3 222.466 214.117 257.527Z" fill="white"/>
<path d="M204.502 288.07H219.903C217.628 304.268 213.984 319.866 213.984 319.866C213.984 319.866 241.801 319.023 237.749 324.689C233.694 330.36 223.017 324.816 223.017 324.816C223.017 324.816 226.136 332.016 222.9 332.824C219.66 333.635 215.525 326.535 215.525 326.535C215.525 326.535 216.422 332.161 209.937 332.898C203.452 333.635 201.991 329.527 203.613 322.236C205.102 315.524 204.949 292.112 204.502 288.07Z" fill="#F7941E"/>
<path d="M21.0289 247.42C48.7128 255.984 71.1703 254.281 85.7904 251.707C96.5791 249.805 111.471 246.956 126.398 251.312C138.788 254.92 155.393 268.869 155.393 268.869C155.393 268.869 154.586 300.325 111.326 304.622C73.5458 308.368 25.6747 269.671 10.5429 253.319C-5.02314 236.503 1.03581 241.231 21.0289 247.42Z" fill="#F7941E"/>
<path d="M149.703 278.774L163.704 288.069L161.003 319.043C161.003 319.043 182.393 323.911 179.961 327.151C177.53 330.392 167.263 325.676 167.263 325.676C167.263 325.676 175.102 331.519 170.24 332.98C165.384 334.446 160.635 329.728 160.635 329.728C163.216 340.655 147.378 334.512 149.987 324.722L149.703 278.774Z" fill="#F7941E"/>
<path d="M18.6911 244.712C45.4423 253.556 66.9884 253.901 81.694 252.363C75.4689 256.543 64.5503 265.33 67.3552 265.692C71.3216 266.2 87.2134 274.622 82.4475 274.021C77.6767 273.414 65.7562 274.046 65.7562 274.046C65.7562 274.046 77.7178 285.902 76.0299 286.4C74.3568 286.906 58.9997 280.679 58.9997 280.679C58.9997 280.679 59.1905 285.846 58.5193 290.033C36.3531 277.593 16.9029 262.189 8.50953 252.177C-6.22739 234.627 -1.18183 238.134 18.6911 244.712Z" fill="white"/>
<path d="M18.6911 244.712C45.4423 253.556 66.9884 253.901 81.694 252.363C75.4689 256.543 64.5503 265.33 67.3552 265.692C71.3216 266.2 87.2134 274.622 82.4475 274.021C77.6767 273.414 65.7562 274.046 65.7562 274.046C65.7562 274.046 77.7178 285.902 76.0299 286.4C74.3568 286.906 58.9997 280.679 58.9997 280.679C58.9997 280.679 59.1905 285.846 58.5193 290.033C36.3531 277.593 16.9029 262.189 8.50953 252.177C-6.22739 234.627 -1.18183 238.134 18.6911 244.712Z" fill="white"/>
<path d="M225.23 277.166C225.715 272.864 226.76 258.911 226.76 258.911C226.76 258.911 186.014 256.532 172.256 254.383C158.502 252.233 147.029 246.599 147.029 246.599C147.029 246.599 144.774 257.961 143.489 290.227C143.372 293.099 143.297 295.587 143.297 295.587C143.297 295.587 166.336 294.585 170.533 295.621L172.616 288.561L203.006 288.072V297.362L223.453 299.18C223.45 299.18 224.595 282.78 225.23 277.166Z" fill="#00A5A5"/>
<path d="M167.317 253.763C167.317 253.763 172.664 198.792 171.154 187.531C168.334 166.538 165.962 165.236 165.962 165.236L168.676 161.693C168.676 161.693 174.712 166.919 177.721 188.044C179.452 200.244 175.576 254.066 175.576 254.066L167.317 253.763Z" fill="#231F20"/>
<path d="M214.53 259.044C214.53 259.044 223.088 191.514 228.806 179.457C231.796 173.177 235.412 169.124 235.412 169.124L236.891 162.252C236.891 162.252 231.899 161.897 223.55 176.303C216.387 188.671 207.491 257.759 207.491 257.759L214.53 259.044Z" fill="#231F20"/>
<path d="M175.016 258.955L166.563 257.914L167.348 252.867L175.873 254.082L175.016 258.955Z" fill="#48484A"/>
<path d="M214.801 257.511L206.819 257.221L206.634 262.301L214.616 262.591L214.801 257.511Z" fill="#48484A"/>
<path d="M254.156 108.677C254.156 108.677 252.523 105.788 255.689 104.084C258.861 102.378 269.095 99.4795 269.095 99.4795C269.095 99.4795 265.524 96.0082 261.51 94.271C258.261 92.8628 250.583 91.2539 250.583 91.2539C250.583 91.2539 246.189 80.6132 244.208 75.4706C237.639 58.4075 230.97 46.2254 226.538 36.5176C222.101 26.8164 220.996 35.2591 219.788 38.5789C218.59 41.8938 209.394 75.6664 209.394 75.6664C209.394 75.6664 205.096 77.0039 192.076 80.2365C179.055 83.4708 165.1 88.4703 165.1 88.4703C165.1 88.4703 133.471 69.3771 128.395 67.2434C123.32 65.1048 130.296 85.3841 132.388 92.5584C136.341 106.117 136.807 119.474 136.807 119.474C136.807 119.474 132.023 124.151 128.017 129.871C124.191 135.348 120.657 147.143 123.761 142.831C126.857 138.516 138.724 136.305 138.724 136.305C138.724 136.305 136.458 142.376 135.779 144.429C133.602 151.12 131.727 157.521 131.727 157.521C131.727 157.521 135.932 155.561 141.644 150.128C147.359 144.699 149.346 143.281 146.066 151.843C142.782 160.404 143.501 165.825 143.501 165.825C143.501 165.825 146.176 162.887 149.715 160.127C152.978 157.59 156.663 159.901 156.663 159.901C156.663 159.901 179.414 175.138 201.106 198.456C220.917 219.741 232.604 233.599 234.912 221.838C236.15 215.511 241.339 170.338 243.606 138.406C244.114 137.792 243.606 136.743 245.184 135.409C253.385 128.479 260.19 128.44 260.19 128.44C260.19 128.44 260.184 127.501 258.108 125.411C254.056 121.355 250.017 119.313 250.017 119.313C250.017 119.313 249.739 117.852 256.644 117.288C262.392 116.822 266.819 116.967 266.819 116.967C266.819 116.967 264.591 114.373 261.508 112.51C258.287 110.559 254.156 108.677 254.156 108.677Z" fill="#F7941E"/>
<path d="M237.062 97.0398C242.984 101.47 245.037 112.397 239.841 119.352C235.942 124.569 225.892 126.38 220.213 117.438C215.006 109.233 217.645 104.112 221.535 98.8988C225.441 93.6789 231.138 92.6145 237.062 97.0398Z" fill="white"/>
<path d="M236.799 110.311C237.725 110.99 239.026 110.804 239.714 109.885C240.406 108.957 240.214 107.651 239.302 106.962C238.38 106.267 237.07 106.461 236.381 107.384C235.69 108.312 235.877 109.617 236.799 110.311Z" fill="#231F20"/>
<path d="M163.519 119.221C160.873 124.966 163.79 134.025 170.545 137.131C175.594 139.467 183.897 136.731 184.517 127.68C185.091 119.389 182.915 115.723 177.846 113.391C172.784 111.061 166.167 113.471 163.519 119.221Z" fill="white"/>
<path d="M175.433 126.471C176.027 127.468 177.308 127.797 178.292 127.2C179.287 126.617 179.624 125.337 179.042 124.355C178.45 123.362 177.172 123.033 176.18 123.617C175.183 124.207 174.85 125.49 175.433 126.471Z" fill="#231F20"/>
<path d="M199.256 177.744C189.572 164.353 171.193 160.199 157.846 160.716C167.018 169.846 174.571 175.877 189.89 189.471C194.878 193.896 205.398 203.097 206.915 204.721C206.218 196.278 204.936 185.588 199.256 177.744Z" fill="white"/>
<path d="M232.679 166.22C232.207 174.327 234.089 189.503 238.556 193.458C240.887 168.049 243.369 141.244 244.749 135.41C239.696 137.923 233.517 151.699 232.679 166.22Z" fill="white"/>
<path d="M218.225 73.8716C218.225 73.8716 223.088 49.6703 224.358 51.577C225.646 53.4787 236.069 71.5635 236.069 71.5635C236.069 71.5635 228.989 71.5882 226.646 72.0735C224.303 72.5605 218.225 73.8716 218.225 73.8716Z" fill="white"/>
<path d="M143.016 103.786C143.016 103.786 138.261 82.4032 140.183 83.665C142.086 84.9186 157.369 95.6003 157.369 95.6003C157.369 95.6003 151.295 98.0548 149.487 99.2969C147.681 100.537 143.016 103.786 143.016 103.786Z" fill="white"/>
<path d="M217.113 216.016C226.924 225.497 235.864 232.829 236.891 224.13C238.402 211.285 238.991 193.458 238.991 193.458C238.991 193.458 213.742 200.937 207.491 205.898C207.491 205.898 214.357 213.357 217.113 216.016Z" fill="#625558"/>
<path d="M691.531 42.167C691.531 42.167 673.367 37.1387 654.893 35.6612C647.191 35.046 637.414 42.1347 625.959 48.0268C617.049 52.6154 590.944 57.2209 586.205 58.0819C578.077 59.5637 551.902 65.7955 551.902 71.7087C551.902 77.6232 558.523 82.8102 574.036 90.198C589.552 97.5859 636.923 104.953 654.064 131.875C671.05 158.551 673.055 198.086 674.535 215.823C676.013 233.555 681.184 255.723 681.184 255.723C681.184 255.723 655.814 254.959 659.508 260.131C663.202 265.295 672.952 260.237 672.952 260.237C672.952 260.237 670.1 266.809 673.053 267.549C676.01 268.291 679.781 261.808 679.781 261.808C679.781 261.808 678.964 266.936 684.88 267.614C690.791 268.291 692.121 264.538 690.648 257.889C689.169 251.233 689.465 226.559 689.943 226.166C690.621 225.61 726.999 226.166 726.999 226.166L729.512 254.976C729.512 254.976 710.004 259.423 712.222 262.378C714.437 265.333 723.799 261.028 723.799 261.028C723.799 261.028 716.654 266.36 721.091 267.694C725.521 269.027 729.852 264.722 729.852 264.722C727.497 274.693 741.943 269.092 739.556 260.161V223.216C739.556 223.216 754.247 246.73 781.678 246.856C815.837 247.015 860.936 218.11 875.657 202.695C890.787 186.839 885.024 191.165 866.658 195.871C841.233 202.39 821.206 198.894 808.267 195.128C798.727 192.349 785.571 188.279 771.877 191.523C760.507 194.217 744.64 207.077 744.64 207.077C744.64 207.077 748.813 165.936 718.184 124.858C712.291 116.955 716.911 102.88 716.911 102.88C716.911 102.88 719.889 103.117 723.104 103.703C728.405 104.656 732.909 111.633 730.691 105.72C728.478 99.8065 720.346 94.635 720.346 94.635C720.346 94.635 722.709 90.8287 734.147 91.7445C741.626 92.3498 724.592 81.5714 724.592 81.5714C724.592 81.5714 733.545 80.0714 739.533 79.4744C742.563 79.1725 721.62 69.2437 721.62 69.2437C721.62 69.2437 721.024 68.2072 721.195 62.457C721.288 59.6044 723.665 31.8296 724.592 24.4375C725.52 17.0454 724.592 11.1744 724.592 11.1744C724.592 11.1744 708.983 23.5793 701.376 31.463C695.825 37.2075 691.531 42.167 691.531 42.167Z" fill="#F7941E"/>
<path d="M651.692 46.264L651.258 42.7329" stroke="#231F20" stroke-width="0.723" stroke-linecap="round"/>
<path d="M646.743 47.0112L643.557 43.0631" stroke="#231F20" stroke-width="0.723" stroke-linecap="round"/>
<path d="M641.324 51.2164L634.263 47.3539" stroke="#231F20" stroke-width="0.723" stroke-linecap="round"/>
<path d="M653.384 131.406C670.567 157.183 670.204 188.808 674.536 215.823C682.901 215.989 699.593 215.837 708.513 215.286C709.163 210.109 707.902 204.681 707.902 199.261C707.902 146.878 679.428 126.68 639.811 108.371C632.976 105.213 612.239 102.124 610.093 102.59C624.852 108.353 642.449 115.004 653.384 131.406Z" fill="white"/>
<path d="M567.104 62.1997C557.717 65.3646 544.729 69.2451 552.246 76.684C561.295 85.6561 577.734 92.2355 577.734 92.2355C577.734 92.2355 580.924 66.9853 578.674 58.9547C578.675 58.9528 570.513 61.0506 567.104 62.1997Z" fill="#625558"/>
<path d="M652.626 39.1795C652.626 39.1795 658.99 27.1187 662.346 20.7899C665.703 14.461 675.464 -0.775412 676.254 0.0307942C677.04 0.835596 680.414 6.08294 681.066 15.9569C681.721 25.8266 681.577 38.5672 681.577 38.5672L652.626 39.1795Z" fill="#F7941E"/>
<path d="M672.475 20.8952C673.576 20.0637 674.201 21.7829 674.762 24.901C675.314 28.0233 676.665 36.4772 676.665 36.4772L664.4 35.6625C664.4 35.6611 671.388 21.7253 672.475 20.8952Z" fill="white"/>
<path d="M697.41 71.7199C697.41 78.4673 690.73 84.0869 682.815 84.0869C676.874 84.0869 670.06 77.7411 673.495 68.7057C676.644 60.4189 681.587 58.7181 687.758 59.5453C693.648 60.3347 697.41 64.9739 697.41 71.7199Z" fill="white"/>
<path d="M657.995 54.2712C657.995 59.9259 652.73 66.1733 646.661 66.1733C642.105 66.1733 636.88 60.86 639.517 53.2965C641.925 46.3623 645.905 45.6249 650.453 45.6249C655.009 45.6249 657.995 48.6222 657.995 54.2712Z" fill="white"/>
<path d="M685.282 74.5851C685.282 75.7102 686.193 76.6174 687.323 76.6174C688.45 76.6174 689.363 75.7102 689.363 74.5851C689.363 73.4587 688.45 72.5415 687.323 72.5415C686.195 72.5415 685.282 73.4587 685.282 74.5851Z" fill="#231F20"/>
<path d="M646.667 55.4919C646.667 56.5439 647.52 57.3922 648.57 57.3922C649.623 57.3922 650.477 56.5439 650.477 55.4919C650.477 54.4469 649.623 53.6 648.57 53.6C647.52 53.6014 646.667 54.4469 646.667 55.4919Z" fill="#231F20"/>
<path d="M653.219 98.3459C653.219 98.3459 655.933 98.5509 657.996 97.0663C660.065 95.5845 661.078 94.5424 661.078 94.5424L663.714 98.3459L667.105 94.8429C667.105 94.8429 669.138 100.062 672.571 100.786C666.829 111.589 656.134 106.575 653.219 98.3459Z" fill="#ED1C24"/>
<path d="M650.479 95.2867C650.479 95.2867 654.977 99.9133 661.413 100.694C673.512 102.163 676.665 97.0972 676.665 97.0972" stroke="#231F20" stroke-width="0.723" stroke-linecap="round"/>
<path d="M663.225 230.443C663.225 230.443 683.21 235.915 706.859 235.916C737.186 235.92 753.678 232.141 753.678 232.141L744.112 189.649C744.112 189.649 725.758 194.111 706.859 193.795C683.479 193.406 670.163 191.541 670.163 191.541L663.225 230.443Z" fill="#7F587E"/>
<path d="M686.081 201.849L682.054 224.85" stroke="#AE7DAF" stroke-width="0.72" stroke-linecap="round"/>
<path d="M708.7 201.849L712.812 228.012" stroke="#AE7DAF" stroke-width="0.72" stroke-linecap="round"/>
<path d="M734.664 199.567L740.987 222.837" stroke="#AE7DAF" stroke-width="0.72" stroke-linecap="round"/>
<path d="M714.978 134.566C712.68 130.711 703.828 131.805 707.371 137.382C709.519 140.768 715.648 148.093 717.606 153.325C720.137 160.061 719.853 166.158 719.273 168.255C718.683 170.355 711.008 177.499 714.043 179.896C715.981 181.405 719.932 178.17 719.932 178.17C719.932 178.17 720.391 182.222 722.393 183.898C725.376 186.394 726.619 178.312 726.619 178.312C726.619 178.312 729.056 187.943 734.309 184.861C737.487 182.995 730.284 168.826 729.328 166.073C724.502 152.206 714.978 134.566 714.978 134.566Z" fill="#FCB22C"/>
<path d="M873.495 194.193C850.025 201.103 830.294 199.703 817.23 196.727C822.486 201.57 831.451 207.876 828.902 207.965C825.302 208.092 810.407 215.107 814.73 214.956C819.049 214.806 829.693 216.591 829.693 216.591C829.693 216.591 818.053 227.458 819.52 228.125C820.985 228.798 835.239 223.969 835.239 223.969C835.239 223.969 832.842 229.18 833.114 233.492C854.847 223.313 874.399 209.274 882.708 199.939C897.274 183.556 891.679 188.843 873.495 194.193Z" fill="white"/>
<path d="M338.341 341.771C346.691 349.059 361.503 371.212 363.685 378.81L388.554 370.488C400.787 340.889 382.46 353.066 375.437 343.652C371.957 338.981 374.688 330.659 374.688 330.659C374.688 330.659 376.45 330.802 378.344 331.141C381.481 331.707 384.143 335.832 382.834 332.337C381.52 328.843 376.718 325.785 376.718 325.785C376.718 325.785 378.113 323.535 384.873 324.078C389.295 324.432 379.226 318.065 379.226 318.065C379.226 318.065 384.518 317.181 388.06 316.818C389.847 316.642 377.474 310.773 377.474 310.773L379.081 301.522C379.081 301.522 380.454 289.574 381.003 285.204C381.556 280.838 381.595 271.799 381.595 271.799C381.595 271.799 370.002 282.452 365.502 287.11C362.219 290.505 359.68 294.77 359.68 294.77C359.68 294.77 354.732 292.134 343.811 291.267C339.255 290.901 328.47 294.752 321.704 298.238C316.438 300.953 306.22 303.675 303.422 304.184C298.617 305.058 283.143 308.742 283.143 312.236C283.143 315.73 287.056 318.796 296.23 323.162C305.402 327.532 325.973 330.974 338.341 341.771Z" fill="#F7941E"/>
<path d="M287.279 307.9C282.19 309.343 275.141 311.118 279.218 314.505C284.128 318.591 293.053 321.591 293.053 321.591C293.053 321.591 297.303 309.528 296.084 305.87C296.084 305.871 289.137 307.378 287.279 307.9Z" fill="#625558"/>
<path d="M339.497 295.473C341.53 287.471 341.368 288.095 342.532 283.559C343.582 279.455 345.214 265.651 345.776 266.007C346.338 266.368 350.871 272.599 352.615 278.179C354.36 283.76 358.068 295.473 358.068 295.473H339.497Z" fill="#F7941E"/>
<path d="M364.621 297.312C364.621 297.312 375.381 285.849 375.621 287.055C375.865 288.278 373.985 299.861 373.985 299.861C373.985 299.861 370.457 298.406 369.189 298.161C367.919 297.918 364.621 297.312 364.621 297.312Z" fill="white"/>
<path d="M348.366 278.936C348.879 278.307 349.479 279.205 350.238 280.921C350.981 282.639 354.705 293.395 354.705 293.395L345.777 291.816C345.776 291.818 347.855 279.567 348.366 278.936Z" fill="white"/>
<path d="M348.258 304.573C348.258 309.13 343.625 314.173 338.271 314.173C334.26 314.173 329.661 309.885 331.978 303.787C334.104 298.185 337.444 297.037 341.617 297.595C345.594 298.132 348.258 300.016 348.258 304.573Z" fill="white"/>
<path d="M337.203 306.472C337.203 307.183 337.776 307.758 338.493 307.758C339.2 307.758 339.78 307.183 339.78 306.472C339.78 305.765 339.2 305.191 338.493 305.191C337.775 305.191 337.203 305.765 337.203 306.472Z" fill="#231F20"/>
<path d="M372.178 343.45C372.178 343.45 396.613 335.195 413.596 339.008C430.578 342.816 433.824 356.273 433.824 356.273C433.824 356.273 437.164 367.263 426.788 383.064C426.219 383.931 418.668 390.889 395.856 388.749C373.044 386.614 373.76 383.064 373.76 383.064L365.671 381.766L372.178 343.45Z" fill="#F7941E"/>
<path d="M498.941 344.105C484.777 348.951 473.285 347.989 465.805 346.532C460.284 345.457 452.664 343.845 445.025 346.308C438.689 348.353 430.189 356.242 430.189 356.242C430.189 356.242 430.602 374.044 452.736 376.476C472.067 378.595 496.561 356.7 504.304 347.446C512.273 337.929 509.167 340.603 498.941 344.105Z" fill="#F7941E"/>
<path d="M434.182 366.192L424.966 372.304L426.743 394.715C426.743 394.715 412.671 397.919 414.271 400.051C415.866 402.185 422.623 399.076 422.623 399.076C422.623 399.076 417.467 402.918 420.668 403.885C423.864 404.846 426.989 401.745 426.989 401.745C425.287 408.932 435.713 404.896 433.992 398.455L434.182 366.192Z" fill="#F7941E"/>
<path d="M501.313 342.572C487.624 347.581 476.597 347.775 469.077 346.903C472.264 349.271 477.848 354.246 476.413 354.449C474.388 354.734 466.251 359.503 468.688 359.159C471.13 358.817 477.232 359.174 477.232 359.174C477.232 359.174 471.114 365.885 471.971 366.167C472.829 366.453 480.688 362.931 480.688 362.931C480.688 362.931 480.631 366.177 480.976 368.548C492.317 361.508 502.224 352.468 506.523 346.799C514.062 336.861 511.482 338.854 501.313 342.572Z" fill="white"/>
<path d="M341.06 345.574C350.726 355.457 354.398 380.356 372.801 387.083C384.251 391.274 390.202 387.113 394.832 385.88C390.763 385.88 392.179 389.796 378.256 383.065C351.63 370.194 365.674 340.889 333.507 331.465C331.398 330.849 315.669 328.326 313.724 329.242C316.296 330.011 333.447 337.792 341.06 345.574Z" fill="white"/>
<path d="M374.262 372.304L364.125 367.093C365.625 377.75 368.017 395.253 368.017 395.253C368.017 395.253 349.721 394.701 352.383 398.431C355.052 402.16 362.079 398.511 362.079 398.511C362.079 398.511 360.025 403.25 362.156 403.783C364.293 404.317 367.007 399.644 367.007 399.644C367.007 399.644 366.425 403.344 370.684 403.828C374.953 404.317 375.916 401.613 374.85 396.813C373.843 392.274 373.965 374.986 374.262 372.304Z" fill="#F7941E"/>
<path d="M333.536 324.572C336.095 328.834 341.059 326.538 341.059 326.538" stroke="#231F20" stroke-width="0.723" stroke-linecap="round"/>
<path d="M375.248 340.889C375.248 340.889 372.655 350.153 365.67 354.035C358.691 357.921 349.205 358.668 349.205 358.668C349.205 358.668 356.254 374.699 360.822 379.496C364.793 383.657 366.483 391.359 366.483 391.359L376.007 392.637L375.765 388.976L398.269 390.794V337.703C398.269 337.703 394.355 337.731 388.204 338C382.048 338.268 375.248 340.889 375.248 340.889Z" fill="#2BB673"/>
<path d="M564.804 206.322C564.804 206.322 553.435 202.998 539.653 201.894C533.9 201.431 520.287 206.293 511.751 210.693C505.098 214.118 485.626 217.552 482.088 218.196C476.022 219.303 456.495 223.95 456.495 228.36C456.495 232.772 461.432 236.647 473.011 242.157C484.585 247.669 524.217 255.894 535.434 273.311C549.99 295.915 549.902 317.147 553.267 333.036C556.418 347.884 556.175 356.662 556.175 356.662C556.175 356.662 540.842 356.088 543.601 359.945C546.354 363.802 550.033 360.031 550.033 360.031C550.033 360.031 548.398 364.02 550.471 364.96C553.205 366.202 556.68 361.645 556.68 361.645C556.68 361.645 554.712 364.158 558.929 365.529C560.495 366.038 566.407 363.235 565.305 358.274C564.202 353.309 564.422 343.893 564.78 343.596C565.288 343.178 589.201 343.596 589.201 343.596L591.073 356.099C591.073 356.099 576.523 359.417 578.176 361.626C579.827 363.827 586.813 360.615 586.813 360.615C586.813 360.615 581.484 364.593 584.792 365.591C588.097 366.587 591.329 363.373 591.329 363.373C589.574 370.813 602.415 366.633 600.639 359.967L600.721 338.97C600.721 338.97 612.732 357.166 633.2 357.259C658.682 357.379 677.731 343.565 688.712 332.064C700.003 320.236 699.263 319.768 685.56 323.276C666.59 328.145 658.946 325.297 649.297 322.489C642.181 320.414 635.083 317.19 624.862 319.607C616.381 321.619 604.433 329.359 604.433 329.359C604.433 329.359 607.542 298.664 584.691 268.013C580.293 262.122 583.743 251.622 583.743 251.622C583.743 251.622 585.964 251.801 588.361 252.227C592.316 252.944 595.677 258.146 594.026 253.734C592.371 249.326 586.309 245.464 586.309 245.464C586.309 245.464 588.067 242.629 596.603 243.311C602.185 243.755 589.472 235.721 589.472 235.721C589.472 235.721 596.153 234.604 600.621 234.154C602.881 233.928 587.261 226.523 587.261 226.523L589.294 214.842C589.294 214.842 591.024 199.758 591.717 194.242C592.411 188.731 592.461 177.322 592.461 177.322C592.461 177.322 577.831 190.768 572.148 196.648C568.007 200.936 564.804 206.322 564.804 206.322Z" fill="#F7941E"/>
<path d="M532.002 271.932C550.48 292.966 549.417 318.805 555.036 342.883C555.068 343.969 560.349 343.652 566.403 343.466C572.673 341.313 573.193 329.234 572.173 323.525C565.303 285.05 552.596 263.346 522.083 255.715C519.39 255.043 504.004 251.522 501.352 252.088C512.359 256.385 525.769 264.833 532.002 271.932Z" fill="white"/>
<path d="M461.718 222.888C455.291 224.712 446.392 226.944 451.535 231.226C457.741 236.385 469.001 240.17 469.001 240.17C469.001 240.17 474.366 224.945 472.826 220.329C472.826 220.329 464.059 222.227 461.718 222.888Z" fill="#625558"/>
<path d="M536.763 207.205C539.329 197.102 539.125 197.889 540.591 192.164C541.918 186.985 543.977 169.564 544.689 170.008C545.398 170.463 551.121 178.335 553.322 185.377C555.519 192.42 560.206 207.205 560.206 207.205H536.763Z" fill="#F7941E"/>
<path d="M685.559 323.276C667.879 327.811 658.954 325.049 649.296 322.489C653.081 326.234 660.908 330.577 659.006 330.577C656.32 330.577 645.026 335.413 648.255 335.413C651.479 335.413 659.367 337.026 659.367 337.026C659.367 337.026 650.403 344.822 651.481 345.359C652.553 345.898 663.312 342.671 663.312 342.671C663.312 342.671 661.831 347.952 661.921 351.172C677.986 344.815 682.268 338.806 688.71 332.062C700.001 320.232 699.261 319.764 685.559 323.276Z" fill="white"/>
<path d="M571.036 209.525C571.036 209.525 584.614 195.055 584.919 196.583C585.225 198.121 582.855 212.741 582.855 212.741C582.855 212.741 578.401 210.905 576.802 210.597C575.198 210.291 571.036 209.525 571.036 209.525Z" fill="white"/>
<path d="M547.959 186.329C548.603 185.536 549.364 186.666 550.317 188.836C551.261 191.008 555.96 204.583 555.96 204.583L544.689 202.589C544.689 202.591 547.312 187.124 547.959 186.329Z" fill="white"/>
<path d="M563.174 223.807C563.174 229.56 557.323 235.931 550.572 235.931C545.507 235.931 539.699 230.517 542.624 222.813C545.308 215.748 549.531 214.293 554.79 215.002C559.81 215.674 563.174 218.059 563.174 223.807Z" fill="white"/>
<path d="M554.337 226.206C554.337 227.104 555.062 227.83 555.962 227.83C556.857 227.83 557.586 227.104 557.586 226.206C557.586 225.315 556.857 224.584 555.962 224.584C555.062 224.584 554.337 225.315 554.337 226.206Z" fill="#231F20"/>
<path d="M532.33 249.853C538.548 250.741 538.548 242.66 538.548 242.66" stroke="#231F20" stroke-width="0.723" stroke-linecap="round"/>
<path d="M588.389 273.311L596.64 285.658C596.64 285.658 597.95 285.956 603.119 299.799C607.055 310.358 605.795 323.199 605.795 323.199H550.394C550.394 323.199 549.218 316.709 546.849 306.908C545.111 299.69 543.065 289.556 543.065 289.556C543.065 289.556 551.196 292.48 560.269 291.407C569.341 290.335 588.389 273.311 588.389 273.311Z" fill="#ED1C24"/>
<path d="M527.427 212.912C525.683 217.121 519.734 220.116 515.093 218.198C511.606 216.759 509.249 211.146 513.593 206.343C517.573 201.933 520.833 202.648 524.318 204.083C527.801 205.526 529.159 208.698 527.427 212.912Z" fill="white"/>
<path d="M517.464 210.727C517.134 211.523 517.514 212.439 518.318 212.767C519.118 213.097 520.038 212.722 520.363 211.918C520.691 211.126 520.311 210.209 519.515 209.873C518.714 209.545 517.796 209.925 517.464 210.727Z" fill="#231F20"/>
<path d="M574.586 297.259C574.586 297.259 578.088 304.406 580.899 309.031C583.709 313.649 585.313 318.02 585.177 319.648C585.037 321.283 580.373 327.628 582.95 328.97C584.591 329.813 587.053 326.868 587.053 326.868C587.053 326.868 587.964 329.799 589.672 330.751C592.22 332.177 592.007 326.043 592.007 326.043C592.007 326.043 594.386 332.088 597.831 329.078C599.91 327.254 597.502 324.404 592.294 316.635C587.002 308.744 581.485 294.596 581.485 294.596" fill="#FCB22C"/>
<path d="M580.131 291.748C577.453 290.015 571.126 292.203 573.791 298.72C574.906 301.435 576.463 305.359 577.736 306.632C577.736 306.632 585.525 304.691 586.948 303.748C586.383 301.715 583.423 293.867 580.131 291.748Z" fill="#EF4754"/>
</svg>
