<svg width="383" height="344" viewBox="0 0 383 344" fill="none" xmlns="http://www.w3.org/2000/svg">
<path d="M209.548 40.4301C209.548 40.4301 233.683 32.4296 246.369 28.2502C259.069 24.0782 291.875 16.1902 291.893 18.2806C291.9 20.3831 289.663 31.8073 277.787 45.9202C265.931 60.0347 249.282 77.003 249.282 77.003L209.548 40.4301Z" fill="#F07F17"/>
<path d="M265.887 35.9912C268.452 36.0407 265.181 40.907 260.073 47.3374C255.317 53.3254 246.349 62.3037 246.349 62.3037L231.458 46.9595C231.458 46.961 263.332 35.9538 265.887 35.9912Z" fill="white"/>
<path d="M84.0504 15.8122C92.6598 18.3556 139.998 32.5826 158.685 32.4221C182.699 32.2106 204.94 28.61 217.231 36.1022C246.764 54.0632 272.801 77.6703 272.801 77.6703C272.801 77.6703 291.873 73.1249 306.53 70.4001C328.459 66.3286 355.085 70.8185 355.085 70.8185C355.085 70.8185 355.051 73.3079 342.572 88.4991C333.744 99.2259 313.355 116.619 313.355 116.619C313.355 116.619 307.731 131.664 305.196 136.337C300.082 145.78 300.208 148.006 300.208 148.006C300.208 148.006 326.754 182.1 321.44 180.069C310.974 176.046 294.806 171.02 294.806 171.02C294.806 171.02 314.132 203.261 302.18 195.98C283.895 184.859 276.779 189.223 276.779 189.223C276.779 189.223 285.976 204.65 284.706 216.351C283.441 228.06 281.789 212.659 273.757 206.629C268.897 202.952 264.136 200.064 264.136 200.064C264.136 200.064 247.346 216.93 247.489 233.828L136.752 181.687L133.105 176.197C120.955 129.233 54.5078 81.8587 36.8392 59.0824C17.1986 33.7613 10.5298 19.5673 15.492 9.71927C20.4543 -0.118276 69.2746 11.4603 84.0504 15.8122Z" fill="#FF9400"/>
<path d="M33.3064 3.37735C16.9005 0.223639 -5.46041 -4.80011 1.20843 10.5426C9.24042 29.0344 30.1212 50.1492 30.1212 50.1492C30.1212 50.1492 51.3499 20.1777 53.0984 8.12966C53.0984 8.12966 39.2614 4.53206 33.3064 3.37735Z" fill="#1F191A"/>
<path d="M278.969 87.5664C278.969 87.5664 325.14 79.6184 324.108 83.3719C323.073 87.145 301.728 108.033 301.728 108.033C301.728 108.033 293.844 98.9215 290.618 96.4502C287.393 93.9593 278.969 87.5664 278.969 87.5664Z" fill="white"/>
<path d="M257.04 109.912C251.385 121.146 235.545 124.902 222.372 118.262C212.474 113.273 206.453 96.9944 219.746 84.8175C231.959 73.6693 241.609 74.9814 251.19 81.5348C260.336 87.7912 262.707 98.6815 257.04 109.912Z" fill="white"/>
<path d="M194.924 52.3491C190.826 60.4905 178.501 65.5788 169.524 61.0574C162.785 57.6563 158.916 46.1121 168.309 37.1774C176.908 28.9804 183.319 30.8819 190.049 34.2756C196.78 37.6692 199.017 44.2106 194.924 52.3491Z" fill="white"/>
<path d="M236.361 91.3468C235.422 93.2199 236.178 95.4978 238.058 96.4516C239.939 97.3993 242.221 96.6435 243.167 94.775C244.114 92.9049 243.352 90.6105 241.477 89.6612C239.6 88.715 237.31 89.4753 236.361 91.3468Z" fill="#1F191A"/>
<path d="M179.557 35.4543C178.673 37.2104 179.392 39.3368 181.134 40.2201C182.887 41.1034 185.021 40.4076 185.902 38.6515C186.784 36.9135 186.064 34.784 184.32 33.8977C182.573 33.0204 180.435 33.7162 179.557 35.4543Z" fill="#1F191A"/>
<path d="M226.818 143.357C226.811 143.361 208.959 149.52 189.517 146.379C199.084 157.642 207.529 161.142 214.871 157.902C224.173 153.797 226.818 143.357 226.818 143.357Z" fill="#1F191A"/>
<path d="M120.728 151.713L268.627 180.278C261.24 202.201 249.168 228.093 253.635 251.991C269.536 337.191 259.141 386.479 259.141 386.479C259.141 386.479 293.139 384.342 314.924 383.951C341.164 383.469 363.532 396.108 379.803 404.956C401.873 416.948 287.017 431.265 335.933 429.479C371.254 428.181 383.479 422.587 349.616 445.479C316.689 467.724 373.013 487.5 310.839 473.658C260.904 462.549 243.474 413.871 243.474 413.871L228.814 481.192C229.619 498.407 215.683 504.5 217.44 486.638C217.44 486.638 213.886 504.321 206.349 500.139C198.791 495.952 207.361 482.113 207.361 482.113C207.361 482.113 195.589 493.159 192.73 486.887C189.861 480.629 212.562 467.751 212.562 467.751L219.415 414.273C219.415 414.273 153.366 398.823 151.902 399.569C150.874 400.097 140.546 444.932 140.598 457.633C140.645 470.343 145.683 481.168 140.31 481.75C129.282 482.938 131.93 466.372 131.93 466.372C131.93 466.372 129.108 481.561 124.006 479.043C118.92 476.523 124.531 461.954 124.531 461.954C124.531 461.954 116.24 480.789 111.559 469.909C106.872 459.028 124.213 449.952 124.213 449.952C124.213 449.952 122.307 402.077 123.516 368.917C125.6 311.706 123.349 156.449 120.728 151.713Z" fill="#FF9400"/>
<path d="M145.888 218.266C147.437 279.292 140.444 315.287 126.817 373.347C141.997 376.955 196.295 387.242 210.603 391.593C213.733 382.903 213.458 373.031 215.501 363.662C235.209 273.164 213.412 165.727 150.321 150.796C126.508 145.159 145.324 195.839 145.888 218.266Z" fill="white"/>
<path d="M124.64 337.942C124.64 337.942 194.079 355.395 217.461 359.204C240.828 363.025 261.982 360.176 261.982 360.176C261.982 360.176 260.638 384.077 255.665 402.764C250.069 423.866 242.437 441.133 242.437 441.133C242.437 441.133 205.722 427.312 198.399 426.762L198.762 414.246L153.791 400.714L150.95 413.763L116.218 406.199L124.64 337.942Z" fill="#00A6A6"/>
<path d="M211.82 358.498C211.82 358.498 234.041 257.118 246.613 242.431C250.939 237.392 254.108 232.358 255.385 231.314L254.333 222.524C254.333 222.524 250.026 222.928 235.592 240.507C222.289 256.708 198.091 355.509 198.091 355.509L211.82 358.498Z" fill="#1F191A"/>
<path d="M141.573 344.304C141.573 344.304 140.038 247.047 139.264 227.721C138.673 213.2 122.041 190.612 122.041 190.612L122.062 179.865C122.062 179.865 142.854 191.679 148.651 227.681C151.979 248.364 152.706 345.623 152.706 345.623L141.573 344.304Z" fill="#1F191A"/>
<path d="M139.25 349.903L152.515 352.791L154.353 344.346L141.088 341.458L139.25 349.903Z" fill="#464649"/>
<path d="M47.8288 143.637C51.9843 148.097 45.6574 155.406 45.6574 155.406C45.6574 155.406 53.034 142.321 63.8688 148.637C71.6114 153.154 56.8581 162.11 56.8581 162.11C56.8581 162.11 71.046 151.995 73.8593 158.99C77.7448 168.641 61.7559 172.444 61.7559 172.444C61.7559 172.444 67.015 174.456 72.5831 176.529C79.9913 179.273 127.427 205.161 127.427 205.161L137.016 225.556C137.016 225.556 47.8978 186.886 40.0413 178.784C29.058 167.454 42.0867 137.465 47.8288 143.637Z" fill="#FF9400"/>
<path d="M357.711 195.17C352.473 198.302 356.523 207.07 356.523 207.07C356.523 207.07 353.061 192.452 340.912 195.524C332.22 197.724 343.895 210.411 343.895 210.411C343.895 210.411 333.077 196.754 328.44 202.697C322.039 210.898 336.338 218.981 336.338 218.981C336.338 218.981 330.727 219.46 324.811 219.899C316.924 220.489 252.23 236.041 252.23 236.041L250.552 254.758C250.552 254.758 345.657 236.698 355.436 231.092C369.152 223.249 364.926 190.825 357.711 195.17Z" fill="#FF9400"/>
<path d="M278.969 87.5664C278.969 87.5664 325.14 79.6184 324.108 83.3719C323.073 87.145 301.728 108.033 301.728 108.033C301.728 108.033 293.844 98.9215 290.618 96.4502C287.393 93.9593 278.969 87.5664 278.969 87.5664Z" fill="white"/>
<path d="M257.04 109.912C251.385 121.146 235.545 124.902 222.372 118.262C212.474 113.273 206.453 96.9944 219.746 84.8175C231.959 73.6693 241.609 74.9814 251.19 81.5348C260.336 87.7912 262.707 98.6815 257.04 109.912Z" fill="white"/>
<path d="M194.924 52.3491C190.826 60.4905 178.501 65.5788 169.524 61.0574C162.785 57.6563 158.916 46.1121 168.309 37.1774C176.908 28.9804 183.319 30.8819 190.049 34.2756C196.78 37.6692 199.017 44.2106 194.924 52.3491Z" fill="white"/>
<path d="M232.436 102.63C231.494 104.505 232.245 106.781 234.133 107.735C236.014 108.683 238.292 107.928 239.239 106.057C240.184 104.187 239.422 101.894 237.549 100.947C235.67 99.9997 233.383 100.76 232.436 102.63Z" fill="#1F191A"/>
<path d="M175.631 46.739C174.742 48.4936 175.462 50.6246 177.209 51.5063C178.964 52.3896 181.093 51.6938 181.973 49.9347C182.852 48.1967 182.137 46.0672 180.388 45.1824C178.643 44.3051 176.507 45.0025 175.631 46.739Z" fill="#1F191A"/>
<path d="M15.494 9.72077C19.6869 1.40535 55.2041 8.3891 75.0276 13.3829L73.9404 95.7543C58.2168 80.7505 43.7724 68.0187 36.8411 59.0839C17.2005 33.7643 10.5317 19.5703 15.494 9.72077Z" fill="#FF9400"/>
<path d="M33.3064 3.37735C16.9005 0.223639 -5.46041 -4.80011 1.20843 10.5426C9.24042 29.0344 30.1212 50.1492 30.1212 50.1492C30.1212 50.1492 51.3499 20.1777 53.0984 8.12966C53.0984 8.12966 39.2614 4.53206 33.3064 3.37735Z" fill="#625558"/>
</svg>
