<?xml version="1.0" encoding="utf-8"?>
<!-- Generator: Adobe Illustrator 26.5.0, SVG Export Plug-In . SVG Version: 6.00 Build 0)  -->
<svg version="1.1" id="Capa_1" xmlns="http://www.w3.org/2000/svg" xmlns:xlink="http://www.w3.org/1999/xlink" x="0px" y="0px"
	 viewBox="0 0 343 221" style="enable-background:new 0 0 343 221;" xml:space="preserve">
<style type="text/css">
	.st0{fill:#FF8000;}
	.st1{fill:#389789;}
	.st2{fill:#FFFFFF;}
	.st3{fill:#FF0000;}
	.st4{fill:#FFFFFF;stroke:#CCCBB7;stroke-width:0.2;}
	.st5{opacity:0.8;}
	.st6{opacity:0.8;fill:none;stroke:#CCCCB8;stroke-width:0.2;stroke-linecap:round;enable-background:new    ;}
	.st7{opacity:0.8;fill:none;stroke:#CCCCB8;stroke-width:0.196;stroke-linecap:round;enable-background:new    ;}
</style>
<path class="st0" d="M161.1,72.2l-5,3.2l0.1,13.9c0,0-9.7,1.8-8.7,3.3c1,1.6,5.8-0.3,5.8-0.3s-3.7,2.4-1.6,3.2
	c2.2,0.8,4.5-1.2,4.5-1.2c-1.5,4.9,6.3,2.8,4.7-5.1L161.1,72.2z"/>
<path class="st1" d="M162.5,55.6c-0.2,0.1-0.3,0.3-0.5,0.4c-4.9,4.1-8.1-2.2-8.1-2.2L151.6,76c0,0,11.4,2.1,13,1l7.4-12.1
	L162.5,55.6z"/>
<path class="st0" d="M186.9,74.5l4.8-1c0.8,7.4,3.2,14.5,3.2,14.5s9.9,0.4,8.7,3.3c-1.2,3-4.3-0.2-4.3-0.2s0.8,3.6-0.5,4.3
	c-1.3,0.7-3.6-2.3-3.6-2.3s0.5,3-2.3,4c-2.8,1.1-2.4-1.5-2.5-4.9C190.4,89,187.5,76.3,186.9,74.5z"/>
<path class="st1" d="M192.7,49.5c0,0-8.9,8.9-13.6,4.4l-1.2,11.4l0.6,0.5l4.7,11.6l12.8-2.8L192.7,49.5z"/>
<path class="st0" d="M159.2,53.7c0,0-13.5,3.3-17.1,3.3c-3.6,0-6.4,1.3-7.3,1.9c-0.9,0.7-2.8,5.6-4.5,4.6c-1.1-0.6-0.3-3.1-0.3-3.1
	s-2,0.5-3.1-0.1c-1.7-1,1.9-3,1.9-3s-5,0.6-4.5-2.4c0.3-1.8,3.6-2.5,9.7-1c5.9,1.4,24.3-5,24.3-5"/>
<path class="st0" d="M187.9,52c0,0,11.1,3.8,14.4,5.2c3.4,1.3,6.7,3,7.3,3.9c0.6,0.9,0.6,6.2,2.6,5.9c1.2-0.2,1.4-2.8,1.4-2.8
	s1.7,1.2,3,1c1.9-0.3-0.6-3.5-0.6-3.5s4.4,2.4,5-0.6c0.4-1.8-2.5-3.6-8.7-4.5c-6-0.9-21.7-8.8-21.7-8.8"/>
<path class="st0" d="M199.9,38.8c0,0-0.4-1.1,1.2-1.4c1.6-0.4,8.1,2.2,8.1,2.2s-1.3-2.3-3-4.9c-1.7-2.5-5.8-5.6-5.8-5.6
	s-0.6-4.6-0.6-6.3c-0.1-8.3-2.2-11.1-2.9-15.9c-0.8-4.8-2.3-1.2-3.2,0.1c-0.9,1.3-8.4,11.5-8.4,11.5s-2.9,0.4-9,0.2
	c-6.1-0.2-12.8,0.3-12.8,0.3s-9.6-9.5-11.6-11s-3.3,5.4-3.3,8.8c0.1,6.4-1.4,12.4-1.4,12.4s-2.7,1.5-5.1,3.5
	c-2.3,1.9-5.3,6.7-3.5,5.2c1.9-1.5,7.4-1,7.4-1s-1.7,2.4-2.3,3.2c-1.8,2.7-3.4,5.3-3.4,5.3s2.1-0.3,5.3-2c3.2-1.7,4.2-2.1,1.7,1.3
	c-2.5,3.4-2.8,5.8-2.8,5.8s1.5-1,3.4-1.7c1.7-0.7,3.1,0.8,3.1,0.8s8.5,8.8,14.3,22.1c5.2,11.9,8.5,18.9,11,14.1
	c1.3-2.6,11.2-21.5,15.5-34.9c0.3-0.2,0.2-0.7,1.1-1.1c4.4-2,8.7,0.2,8.7,0.2l-1.4-2.2c-1.4-2.2-3.3-4.4-3.3-4.4s0.1-0.7,3.2-0.1
	c2.6,0.5,4.7,2.1,4.7,2.1s-0.3-2.1-1.6-3.9C201.7,39.4,199.9,38.8,199.9,38.8z"/>
<path class="st2" d="M190.7,32c1.6,2.9,0.4,7.7-2.9,9.5c-2.5,1.4-7,0.3-7.6-4.3c-0.4-3.5,0.7-6.1,3.3-7.5
	C186,28.3,189.1,29.1,190.7,32z"/>
<path d="M185.5,34.2c0.3,0.5,0.9,0.6,1.3,0.4c0.5-0.3,0.6-0.9,0.4-1.3c-0.3-0.5-0.9-0.6-1.3-0.4C185.4,33.1,185.2,33.7,185.5,34.2z"
	/>
<path class="st2" d="M154.5,32.7c-1.3,2.6-0.1,6.8,3,8.3c2.3,1.1,6.1,0,6.5-4.1c0.4-3.8-0.6-5.5-2.9-6.6
	C158.8,29.1,155.8,30.1,154.5,32.7z"/>
<path d="M158.2,33.6c0.3,0.5,0.9,0.6,1.3,0.4c0.5-0.3,0.6-0.9,0.4-1.3c-0.3-0.5-0.9-0.6-1.3-0.4C158.1,32.5,157.9,33.1,158.2,33.6z"
	/>
<path class="st2" d="M165.6,63.4c-2.6-7.1-8.1-12-14-13.4c2.9,5.1,5.2,7.3,11.3,19.1c0.7,1.4,3.3,5.2,3.8,6.5
	C167.4,71.8,167.1,67.6,165.6,63.4z"/>
<path class="st2" d="M181.1,62.5c-1.5,4.6-0.8,8,0.5,12c3.5-7.3,11-23.1,12.3-25.5C187.5,51.1,183.1,56.2,181.1,62.5z"/>
<path class="st2" d="M188.9,18.5c0,0,5.8-8.3,6.1-7.3c0.2,1,1.9,9.3,1.9,9.3s-3-1.2-4.1-1.3C191.7,19,188.9,18.5,188.9,18.5z"/>
<path class="st2" d="M151.7,23c0,0,0.3-8.8,1-8c0.7,0.8,6.3,6.2,6.3,6.2s-3,0.3-3.9,0.7C154.2,22.2,151.7,23,151.7,23z"/>
<path d="M167.9,80.5c2,5,4.5,11.8,7.6,7.4c3.8-5.3,6.6-14.4,6.6-14.4s-13-0.5-16.7,1.1C165.4,74.6,167.2,78.7,167.9,80.5z"/>
<path class="st0" d="M159.4,151.5l-5-3.2l0.1-13.9c0,0-9.7-1.8-8.7-3.3c1-1.6,5.8,0.3,5.8,0.3s-3.7-2.4-1.6-3.2
	c2.2-0.8,4.5,1.2,4.5,1.2c-1.5-4.9,6.3-2.8,4.7,5.1L159.4,151.5z"/>
<path class="st3" d="M160.8,168c-0.2-0.1-0.3-0.3-0.5-0.4c-4.9-4.1-8.1,2.2-8.1,2.2l-2.4-22.2c0,0,11.4-2.1,13-1l7.4,12.1L160.8,168
	z"/>
<path class="st0" d="M185.1,149.2l4.8,1c0.8-7.4,3.2-14.5,3.2-14.5s9.9-0.4,8.7-3.3c-1.2-3-4.3,0.2-4.3,0.2s0.8-3.6-0.5-4.3
	c-1.3-0.7-3.6,2.3-3.6,2.3s0.5-3-2.3-4c-2.8-1.1-2.4,1.5-2.5,5C188.7,134.7,185.8,147.4,185.1,149.2z"/>
<path class="st3" d="M190.9,174.2c0,0-8.9-8.9-13.6-4.4l-1.2-11.4l0.6-0.5l4.7-11.6l12.8,2.8L190.9,174.2z"/>
<path class="st0" d="M157.5,169.9c0,0-13.5-3.3-17.1-3.3c-3.6,0-6.4-1.3-7.3-1.9c-0.9-0.7-2.8-5.5-4.5-4.6c-1.1,0.6-0.3,3.1-0.3,3.1
	s-2-0.5-3.1,0.1c-1.7,1,1.9,3,1.9,3s-5-0.6-4.5,2.4c0.3,1.8,3.6,2.5,9.7,1c5.9-1.4,24.3,5,24.3,5"/>
<path class="st0" d="M186.2,171.7c0,0,11.1-3.8,14.4-5.2c3.4-1.3,6.7-3,7.3-3.9c0.6-0.9,0.6-6.2,2.6-5.9c1.2,0.2,1.4,2.8,1.4,2.8
	s1.7-1.2,3-1c1.9,0.3-0.6,3.5-0.6,3.5s4.4-2.4,5,0.6c0.4,1.8-2.5,3.6-8.7,4.5c-6,0.9-21.7,8.8-21.7,8.8"/>
<path class="st0" d="M198.2,184.9c0,0-0.4,1.1,1.2,1.4c1.6,0.4,8.1-2.2,8.1-2.2s-1.3,2.3-3,4.9c-1.7,2.5-5.8,5.6-5.8,5.6
	s-0.6,4.6-0.6,6.3c-0.1,8.3-1.5,11.7-2.9,15.9c-1.6,4.6-2.3,1.2-3.2-0.1c-0.9-1.3-8.4-11.5-8.4-11.5s-2.9-0.4-9-0.2
	c-6.1,0.2-12.8-0.3-12.8-0.3s-9.6,9.5-11.6,11c-2,1.6-3.3-5.4-3.3-8.8c0.1-6.4-1.4-12.4-1.4-12.4s-2.7-1.5-5.1-3.5
	c-2.3-1.9-5.3-6.7-3.5-5.2c1.9,1.5,7.4,1,7.4,1s-1.7-2.4-2.3-3.2c-1.8-2.7-3.4-5.3-3.4-5.3s2.1,0.3,5.3,2c3.2,1.7,4.2,2.1,1.7-1.3
	c-2.5-3.4-2.8-5.8-2.8-5.8s1.5,1,3.4,1.7c1.7,0.7,3.1-0.8,3.1-0.8s8.5-8.8,14.3-22.1c5.2-11.9,8.5-18.9,11-14.1
	c1.3,2.6,11.2,21.5,15.5,34.9c0.3,0.2,0.2,0.7,1.1,1.1c4.4,2,8.7-0.2,8.7-0.2l-1.4,2.2c-1.4,2.2-3.3,4.4-3.3,4.4s0.1,0.7,3.2,0.1
	c2.6-0.5,4.7-2.1,4.7-2.1s-0.3,2.1-1.6,3.9C200,184.3,198.2,184.9,198.2,184.9z"/>
<path class="st2" d="M189.2,192c1.6-3,0.4-7.9-3-9.8c-2.6-1.4-7-0.3-7.8,4.5c-0.7,3.9,0.5,6.2,3.1,7.6
	C184.1,195.8,187.5,195,189.2,192z"/>
<path d="M183.7,189.5c0.3-0.5,0.9-0.6,1.3-0.4c0.5,0.3,0.6,0.9,0.4,1.3c-0.3,0.5-0.9,0.6-1.3,0.4C183.6,190.6,183.5,190,183.7,189.5
	z"/>
<path class="st2" d="M152.7,191c-1.3-2.6-0.1-6.8,3-8.3c2.3-1.1,6.1,0,6.5,4.1c0.4,3.8-0.6,5.5-2.9,6.6
	C157.1,194.6,154,193.6,152.7,191z"/>
<path d="M156.7,189.5c0.3-0.5,0.9-0.6,1.3-0.4c0.5,0.3,0.6,0.9,0.4,1.3c-0.3,0.5-0.9,0.6-1.3,0.4C156.6,190.6,156.4,190,156.7,189.5
	z"/>
<path class="st2" d="M163.9,160.3c-2.6,7.1-8.1,12-14,13.4c2.9-5.1,5.2-7.3,11.3-19.1c0.7-1.4,3.3-5.2,3.8-6.5
	C165.7,151.9,165.4,156.1,163.9,160.3z"/>
<path class="st2" d="M179.4,161.1c-1.5-4.6-0.8-8,0.5-12c3.5,7.3,11,23.1,12.3,25.5C185.8,172.6,181.4,167.4,179.4,161.1z"/>
<path class="st2" d="M187.2,205.1c0,0,5.8,8.3,6.1,7.3c0.2-1,1.9-9.3,1.9-9.3s-3,1.2-4.1,1.3C190,204.7,187.2,205.1,187.2,205.1z"/>
<path class="st2" d="M150,200.7c0,0,0.3,8.8,1,8c0.7-0.8,6.3-6.2,6.3-6.2s-3-0.3-3.9-0.7C152.5,201.5,150,200.7,150,200.7z"/>
<path d="M166.2,143.2c2-5,4.5-11.8,7.6-7.4c3.8,5.3,6.6,14.4,6.6,14.4s-13,0.5-16.7-1.1C163.6,149,165.4,145,166.2,143.2z"/>
<path class="st0" d="M229.7,99c0,0-3.3-13.6-3.3-17.2c0-3.6-1.3-6.4-1.9-7.3c-0.7-0.9-5.5-2.9-4.5-4.5c0.6-1.1,3.1-0.3,3.1-0.3
	s-0.5-2,0.1-3.1c0.9-1.7,3,1.9,3,1.9s-0.6-5,2.4-4.5c1.8,0.3,2.5,3.6,1,9.7c-1.4,5.9,5,24.4,5,24.4"/>
<path class="st0" d="M231.5,127.8c0,0-3.8,11.1-5.2,14.5c-1.3,3.4-3,6.7-3.9,7.3c-0.9,0.6-6.2,0.6-5.9,2.6c0.2,1.2,2.8,1.4,2.8,1.4
	s-1.2,1.7-1,3c0.3,1.9,3.5-0.6,3.5-0.6s-2.4,4.4,0.6,5c1.8,0.4,3.6-2.5,4.5-8.7c0.9-6,8.8-21.8,8.8-21.8"/>
<path class="st0" d="M211.2,131.9l6.1,3.5c-4.6,5.9-8.2,9.8-8.2,9.8s6.8,7.2,3.9,8.5c-2.9,1.3-2.9-3.1-2.9-3.1s-1.9,3.1-3.3,2.7
	c-1.5-0.4-0.9-4.2-0.9-4.2s-1.7,2.5-4.4,1.3c-2.7-1.2-0.6-2.8,1.7-5.3C205.1,142.8,210.4,133.6,211.2,131.9z"/>
<path class="st0" d="M212.2,98.5l3.1-5.2l-4.6-13c0,0,6.2-5.3,4.6-6.3c-1.6-0.9-5.1,2.8-5.1,2.8s2.3-3.8,0-3.6c-2.3,0.2-3.5,3-3.5,3
	c-0.8-5.1-6.4,0.3-3.6,4L212.2,98.5z"/>
<path class="st3" d="M225.3,130.4c0,0-0.9-16.6-0.3-22.9c0.7-6.3,2.3-12.5,2.3-12.5l-8.7-9.1c0,0-9.6,6.4-10,8.4l3.3,14.5l0.9,9.2
	l-6.3,15.3l12.2,8.5L225.3,130.4z"/>
<path class="st0" d="M244.6,139.7c0,0,1-0.4,1.4,1.2c0.4,1.6-2.2,8.1-2.2,8.1s2.3-1.3,4.8-3c2.5-1.7,5.6-5.9,5.6-5.9
	s4.5-0.6,6.3-0.6c8.3-0.1,11.1-2.2,15.9-2.9c4.8-0.8,1.2-2.3-0.1-3.2c-1.3-0.9-11.4-8.5-11.4-8.5s-0.4-2.9-0.2-9
	c0.2-6.1-0.3-12.9-0.3-12.9s9.4-9.6,11-11.6c1.6-2-5.4-3.3-8.8-3.3c-6.4,0.1-12.3-1.4-12.3-1.4s-1.5-2.7-3.5-5.1
	c-1.9-2.4-6.7-5.4-5.2-3.5c1.5,1.9,1,7.4,1,7.4s-2.4-1.7-3.2-2.3c-2.7-1.8-5.2-3.4-5.2-3.4s0.3,2.1,2,5.3c1.7,3.2,2.1,4.2-1.3,1.7
	c-3.4-2.5-5.8-2.8-5.8-2.8s1,1.5,1.7,3.4c0.7,1.7-0.8,3.1-0.8,3.1s-8.7,8.6-22,14.4c-11.9,5.2-18.9,8.5-14,11
	c2.6,1.3,21.5,11.2,34.8,15.5c0.2,0.3,0.7,0.2,1.1,1.1c2,4.5-0.2,8.8-0.2,8.8l2.2-1.4c2.2-1.4,4.4-3.3,4.4-3.3s0.7,0.1,0.1,3.2
	c-0.5,2.6-2.1,4.7-2.1,4.7s2.1-0.3,3.9-1.6C244,141.6,244.6,139.7,244.6,139.7z"/>
<path class="st2" d="M251.2,130.3c-2.8,1.6-7.5,0.5-9.3-2.8c-1.4-2.4-0.2-6.5,4.3-7.4c3.1-0.6,5.9,0.9,7.2,3.4
	C254.7,125.9,254,128.7,251.2,130.3z"/>
<path d="M249.2,125.3c-0.5,0.3-0.6,0.9-0.4,1.3c0.3,0.5,0.9,0.6,1.3,0.4c0.5-0.3,0.6-0.9,0.4-1.3C250.3,125.2,249.7,125,249.2,125.3
	z"/>
<path class="st2" d="M250.7,94.2c-2.6-1.3-6.7-0.1-8.2,3c-1.1,2.3,0,6.1,4.1,6.5c3.8,0.4,5.5-0.6,6.6-2.9
	C254.3,98.6,253.3,95.5,250.7,94.2z"/>
<path d="M249.8,98.6c-0.5,0.3-0.6,0.9-0.4,1.3c0.3,0.5,0.9,0.6,1.3,0.4c0.5-0.3,0.6-0.9,0.4-1.3C250.9,98.5,250.3,98.4,249.8,98.6z"
	/>
<path class="st2" d="M220.1,105.4c7.1-2.6,12-8.1,13.4-14c-5.1,2.9-7.3,5.2-19.1,11.4c-1.4,0.7-5.2,3.3-6.5,3.8
	C211.7,107.2,215.9,106.9,220.1,105.4z"/>
<path class="st2" d="M220.9,120.9c-4.6-1.5-8-0.8-11.9,0.5c7.3,3.5,23.1,11.1,25.5,12.4C232.4,127.4,227.2,122.9,220.9,120.9z"/>
<path class="st2" d="M264.8,128.7c0,0,8.3,5.8,7.3,6.1c-1,0.2-9.2,1.9-9.2,1.9s1.2-3,1.3-4.1C264.4,131.5,264.8,128.7,264.8,128.7z"
	/>
<path class="st2" d="M260.4,91.5c0,0,8.8,0.3,8,1c-0.8,0.7-6.2,6.3-6.2,6.3s-0.3-3-0.7-3.9C261.2,93.9,260.4,91.5,260.4,91.5z"/>
<path d="M203,107.7c-4.9,2-11.8,4.5-7.4,7.7c5.3,3.8,14.4,6.6,14.4,6.6s0.5-13.1-1.1-16.8C208.9,105.1,204.8,107,203,107.7z"/>
<path class="st0" d="M114,125.8c0,0,3.3,13.6,3.3,17.2c0,3.6,1.3,6.4,1.9,7.3c0.7,0.9,5.5,2.9,4.5,4.5c-0.6,1.1-3.1,0.3-3.1,0.3
	s0.5,2-0.1,3.1c-1,1.7-3-1.9-3-1.9s0.6,5-2.4,4.5c-1.8-0.3-2.5-3.6-1-9.7c1.4-5.9-5-24.4-5-24.4"/>
<path class="st0" d="M112.2,97.1c0,0,3.8-11.1,5.2-14.5c1.3-3.4,3-6.7,3.9-7.3c0.9-0.6,6.2-0.6,5.9-2.6c-0.2-1.2-2.8-1.4-2.8-1.4
	s1.2-1.7,1-3c-0.3-1.9-3.5,0.6-3.5,0.6s2.4-4.4-0.6-5c-1.8-0.4-3.6,2.5-4.5,8.7c-0.9,6-8.8,21.8-8.8,21.8"/>
<path class="st0" d="M132.5,93l-6.1-3.5c4.6-5.9,8.2-9.8,8.2-9.8s-6.8-7.2-3.9-8.5c2.9-1.3,2.9,3.1,2.9,3.1s1.9-3.1,3.3-2.7
	c1.5,0.4,0.9,4.2,0.9,4.2s1.7-2.5,4.5-1.3c2.7,1.2,0.6,2.8-1.7,5.3C138.6,82,133.3,91.3,132.5,93z"/>
<path class="st0" d="M131.5,126.4l-3.1,5.2l4.6,13c0,0-6.2,5.3-4.6,6.3c1.6,0.9,5.1-2.8,5.1-2.8s-2.3,3.8,0,3.6c2.3-0.2,3.5-3,3.5-3
	c0.8,5.1,6.4-0.3,3.6-4L131.5,126.4z"/>
<path class="st3" d="M118.3,94.4c0,0,0.9,16.6,0.3,22.9c-0.7,6.3-2.3,12.5-2.3,12.5l8.7,9.1c0,0,9.6-6.4,10-8.4l-3.3-14.5l-0.9-9.2
	l6.3-15.3L125,83.1L118.3,94.4z"/>
<path class="st0" d="M99.1,85.1c0,0-1,0.4-1.4-1.2c-0.4-1.6,2.2-8.1,2.2-8.1s-2.3,1.3-4.8,3c-2.5,1.7-5.6,5.9-5.6,5.9
	s-4.6,0.6-6.3,0.6c-8.3,0.1-11.1,2.2-15.9,2.9c-4.8,0.8-1.2,2.3,0.1,3.2c1.3,0.9,11.4,8.5,11.4,8.5s0.4,2.9,0.2,9
	c-0.2,6.1,0.3,12.9,0.3,12.9s-9.4,9.6-11,11.6c-1.6,2,5.4,3.3,8.8,3.3c6.4-0.1,12.3,1.4,12.3,1.4s1.5,2.7,3.5,5.1
	c1.9,2.4,6.7,5.4,5.2,3.5c-1.5-1.9-1-7.4-1-7.4s2.4,1.7,3.2,2.3c2.7,1.8,5.2,3.4,5.2,3.4s-0.3-2.1-2-5.3c-1.7-3.2-2.1-4.2,1.3-1.7
	c3.4,2.5,5.8,2.8,5.8,2.8s-1-1.5-1.7-3.4c-0.7-1.7,0.8-3.1,0.8-3.1s8.7-8.6,22-14.4c11.9-5.2,18.9-8.5,14-11
	c-2.6-1.3-21.5-11.2-34.8-15.5c-0.2-0.3-0.7-0.2-1.1-1.1c-2-4.5,0.2-8.8,0.2-8.8l-2.2,1.4c-2.2,1.4-4.4,3.3-4.4,3.3
	s-0.7-0.1-0.1-3.2c0.5-2.6,2.1-4.7,2.1-4.7s-2.1,0.3-3.9,1.6C99.6,83.3,99.1,85.1,99.1,85.1z"/>
<path class="st2" d="M91.9,94.1c2.9-1.6,7.9-0.4,9.8,3c1.4,2.6,0.3,7.3-4.5,7.8c-3.3,0.4-5.7-0.2-7.2-2.8
	C88.6,99.6,89,95.8,91.9,94.1z"/>
<path d="M93.5,99.6c0.5-0.3,0.6-0.9,0.4-1.3c-0.3-0.5-0.9-0.6-1.3-0.4c-0.5,0.3-0.6,0.9-0.4,1.3C92.4,99.7,93,99.8,93.5,99.6z"/>
<path class="st2" d="M93,130.6c2.6,1.3,6.7,0.1,8.2-3c1.1-2.3,0-6.1-4.1-6.5c-3.8-0.4-5.5,0.6-6.6,2.9
	C89.4,126.3,90.4,129.3,93,130.6z"/>
<path d="M93.8,126.2c0.5-0.3,0.6-0.9,0.4-1.3c-0.3-0.5-0.9-0.6-1.3-0.4c-0.5,0.3-0.6,0.9-0.4,1.3C92.8,126.3,93.4,126.5,93.8,126.2z
	"/>
<path class="st2" d="M123.6,119.5c-7.1,2.6-12,8.1-13.4,14c5.1-2.9,7.3-5.2,19.1-11.4c1.4-0.7,5.2-3.3,6.5-3.8
	C132,117.6,127.8,117.9,123.6,119.5z"/>
<path class="st2" d="M122.7,103.9c4.6,1.5,8,0.8,11.9-0.5c-7.3-3.5-23.1-11.1-25.5-12.4C111.3,97.5,116.5,101.9,122.7,103.9z"/>
<path class="st2" d="M78.9,96.1c0,0-8.3-5.8-7.3-6.1c1-0.2,9.2-1.9,9.2-1.9s-1.2,3-1.3,4.1C79.3,93.3,78.9,96.1,78.9,96.1z"/>
<path class="st2" d="M83.3,133.4c0,0-8.8-0.3-8-1c0.8-0.7,6.2-6.3,6.2-6.3s0.3,3,0.7,3.9C82.5,130.9,83.3,133.4,83.3,133.4z"/>
<path d="M140.7,117.2c4.9-2,11.8-4.5,7.4-7.7c-5.3-3.8-14.4-6.6-14.4-6.6s-0.5,13.1,1.1,16.8C134.8,119.7,138.9,117.9,140.7,117.2z"
	/>
<path class="st0" d="M38.8,90.8c8.5,5.9,16.3,7.8,21.6,8.5c3.9,0.5,9.3,1.2,13.9,4.3c3.8,2.6,8,9.2,8,9.2s-3.7,10.7-18.9,7.4
	C50.1,117.3,38,98.9,34.6,91.6C31.1,84.2,32.6,86.5,38.8,90.8z"/>
<path class="st4" d="M38.3,89.6c8.2,5.9,15.5,8.4,20.6,9.5c-2.6,0.8-7.3,2.6-6.3,3c1.3,0.6,5.8,5.2,4.2,4.5
	c-1.6-0.7-5.7-1.8-5.7-1.8s2.8,5.4,2.2,5.3c-0.6,0-5.2-3.8-5.2-3.8s-0.6,2-1.3,3.3C40.6,102.9,35.8,95.4,34,91
	C30.9,83.4,32.2,85.2,38.3,89.6z"/>
<g class="st5">
	<g class="st5">
		<path class="st6" d="M46.8,109.6C40.6,102.9,35.8,95.4,34,91c-3.1-7.6-1.8-5.9,4.3-1.4c5.4,3.9,10.4,6.3,14.7,7.8"/>
	</g>
</g>
<path class="st0" d="M303.8,134.8c-8.5-5.9-16.3-7.8-21.6-8.5c-3.9-0.5-9.3-1.2-13.9-4.3c-3.8-2.6-8-9.2-8-9.2s3.7-10.7,18.9-7.4
	c13.3,2.8,25.4,21.3,28.8,28.5C311.5,141.3,310,139.1,303.8,134.8z"/>
<path class="st4" d="M304.3,136c-8.2-5.9-15.5-8.4-20.6-9.5c2.6-0.8,7.3-2.6,6.3-3c-1.3-0.6-5.8-5.2-4.2-4.5
	c1.6,0.7,5.7,1.8,5.7,1.8s-2.8-5.3-2.2-5.3c0.6,0,5.2,3.8,5.2,3.8s0.6-2,1.3-3.3c6.2,6.7,11.1,14.2,12.8,18.6
	C311.7,142.1,310.4,140.4,304.3,136z"/>
<path class="st0" d="M104.6,212.3c8.9-5.3,16.8-6.6,22.1-7c3.9-0.3,9.3-0.5,14.1-3.3c4-2.3,8.6-8.6,8.6-8.6s-2.9-10.9-18.3-8.7
	c-13.4,1.9-26.8,19.4-30.7,26.4C96.5,218.4,98.2,216.2,104.6,212.3z"/>
<path class="st4" d="M104,213.5c8.5-5.4,16-7.3,21.3-8c-2.5-0.9-7.1-3.1-6.1-3.4c1.3-0.5,6.1-4.8,4.5-4.2c-1.6,0.6-5.8,1.4-5.8,1.4
	s3.2-5.1,2.5-5.2c-0.6,0-5.4,3.4-5.4,3.4s-0.4-2-1-3.4c-6.7,6.2-12,13.4-14.1,17.6C96.2,219.1,97.7,217.5,104,213.5z"/>
<g class="st5">
	<g class="st5">
		<path class="st6" d="M99.8,211.7c-3.5,7-2.3,5.8,3.3,2.3"/>
	</g>
</g>
<path class="st0" d="M238.1,12.3c-8.9,5.3-16.8,6.6-22.1,7c-3.9,0.3-9.3,0.5-14.1,3.3c-4,2.3-8.6,8.6-8.6,8.6s2.9,10.9,18.3,8.7
	c13.4-1.9,26.8-19.4,30.7-26.4C246.2,6.3,244.5,8.4,238.1,12.3z"/>
<path class="st4" d="M238.7,11.2c-8.5,5.4-16,7.3-21.2,8c2.5,0.9,7.1,3.1,6.1,3.4c-1.3,0.5-6.1,4.8-4.5,4.2c1.6-0.6,5.8-1.4,5.8-1.4
	s-3.2,5.1-2.5,5.2c0.6,0,5.4-3.4,5.4-3.4s0.4,2,1,3.4c6.6-6.2,12-13.4,14.1-17.6C246.5,5.5,245,7.2,238.7,11.2z"/>
<g class="st5">
	<g class="st5">
		<path class="st7" d="M295.8,116.2c6.1,6.5,10.9,14,12.6,18.2c3.1,7.5,1.8,5.7-4.2,1.4c-3.9-2.8-7.6-4.8-11-6.3"/>
	</g>
</g>
<g class="st5">
	<g class="st5">
		<path class="st6" d="M241.8,15c0.5-0.8,0.9-1.5,1.2-2.1c3.7-7.4,2.2-5.7-4.2-1.8c-0.5,0.3-1,0.6-1.6,0.9"/>
	</g>
</g>
</svg>
