<?xml version="1.0" encoding="utf-8"?>
<!-- Generator: Adobe Illustrator 26.5.0, SVG Export Plug-In . SVG Version: 6.00 Build 0)  -->
<svg version="1.1" id="Capa_1" xmlns="http://www.w3.org/2000/svg" xmlns:xlink="http://www.w3.org/1999/xlink" x="0px" y="0px"
	 viewBox="0 0 230 264" style="enable-background:new 0 0 230 264;" xml:space="preserve">
<style type="text/css">
	.st0{fill:none;stroke:#2BB673;stroke-linecap:round;}
	.st1{fill:#956599;}
	.st2{fill:#9D68A0;}
	.st3{fill:#AE7DAF;}
	.st4{fill:#F59FBB;}
	.st5{fill:#FFFFFF;}
	.st6{fill:#231F20;}
	.st7{opacity:0.8;}
	.st8{opacity:0.8;fill:#FFFFFF;enable-background:new    ;}
	.st9{opacity:0.8;fill:none;stroke:#D3D2C2;stroke-width:0.24;stroke-linecap:round;enable-background:new    ;}
	.st10{fill:#F7941E;}
	.st11{fill:none;stroke:#231F20;stroke-width:0.76;stroke-linecap:round;}
	.st12{fill:#40403C;fill-opacity:0.4;}
</style>
<path class="st0" d="M169.7,230.4l-1.4-16.2"/>
<path class="st0" d="M154.7,214.3l0.3,18.9"/>
<path class="st0" d="M108.6,229.5l1.4-15.1"/>
<path class="st1" d="M159,199.7c0,0,11.1,21.7,25.7,26.2s44.6-0.7,44.6-0.7s-25.6,13.4-44.8,9.3c-12-2.6-17.4-2.9-35.2-22.5
	c-1.9-2.1-5.4-4.7-5.4-4.7L159,199.7z"/>
<path class="st2" d="M183.6,234.4c2.4-1.8,5.2-4.2,8.4-7.7c-3.5-0.2-6.9-0.7-9.6-1.4c-3.3,2.8-6.3,4.9-8.7,6.4
	C177.2,232.9,180.5,233.6,183.6,234.4z"/>
<path class="st3" d="M175.1,232.4c3-1.8,6.6-4.2,10.5-7.5c-1.1-0.3-2.1-0.6-3-0.9c-2.4-0.9-4.7-2.2-6.9-3.8
	c-4.3,2.9-8.2,5.2-11.5,6.9C168,229.6,171.7,231.1,175.1,232.4z"/>
<path class="st2" d="M168.5,211.1c-4.5,3.2-11.3,6.9-14.9,9c3.5,3.3,8.4,5.8,11.6,7.7c3.5-1.8,7.9-4.7,12.3-7.9
	C173.9,217.6,171.4,214.1,168.5,211.1z"/>
<path class="st3" d="M169.6,210.5c-3.9-4.1-6.7-9-8.4-11.6c-4.6,3.5-13.4,6.1-17.2,8.4c-1.6,1.3,6.7,10.1,10.4,13.7
	C158,219,165.1,213.8,169.6,210.5z"/>
<path class="st4" d="M195.3,93.7c0,0,5.5-2.4,5.1-2.4c-0.4-0.1-7.5-0.5-7.5-0.5L195.3,93.7z"/>
<path class="st4" d="M191.8,89.3c0,0,4.5-5.1,4.2-5.1c-0.4,0-7,2.3-7,2.3L191.8,89.3z"/>
<path class="st4" d="M185.7,82.9c0,0,2.5-5,2.2-5s-5.1,3.4-5.1,3.4L185.7,82.9z"/>
<path class="st1" d="M155.3,107.1c0,0,12.6-1.8,17.1-5.1c4.6-3.2,9.4-9.9,9.4-9.9s-0.6-2.6,0.2-7.4c0.3-1.9,0.9-4.4,0.9-4.4
	s5.8,4.5,10.2,9.7c1.6,1.8,2.2,3.7,2.2,3.7s-1.2,2.1-4.1,2.8c-2.8,0.6-5.1,1-5.1,1s-5.4,7.3-13.7,12.8c-8.4,5.5-14,6.1-16,6.3
	C154.4,116.8,155.3,107.1,155.3,107.1z"/>
<path class="st5" d="M91.5,95.9c0,0,14.9,1.8,30.8-0.9c15.9-2.7,25-15.7,25-15.7s6.2,0.1,6.7,3.1c0.5,3-8.9,4.4-8.9,4.4
	s6.7,3.7,1.4,7.8c-4.6,3.7-8.9-1.2-8.9-1.2s1.9,5.3-3,7.5s-7.5-3.4-7.5-3.4s-0.5,7.3-4.1,6.9c-3.6-0.5-5.7-4.6-5.7-4.6s0,7-4.8,6.4
	c-4.7-0.5-4.2-5.9-4.2-5.9s-2.8,6.5-6.7,5.5c-3.9-1-3-6.1-3-6.1s-5.9,7.1-8.8,3.6C87,99.9,91.5,95.9,91.5,95.9z"/>
<path class="st4" d="M96.5,223.9c0,0-5.7,0.7-5.4,0.9c0.3,0.1,6.9,1.9,6.9,1.9L96.5,223.9z"/>
<path class="st4" d="M98.7,227.5c0,0-6.4,3.4-6,3.5c0.4,0.1,8.1-0.5,8.1-0.5L98.7,227.5z"/>
<path class="st4" d="M101.9,233c0,0-4.1,4.6-3.7,4.7c0.4,0.1,6.4-2.1,6.4-2.1L101.9,233z"/>
<path class="st4" d="M139.4,229c0,0-6.3,1.6-6,1.7c0.4,0.1,8.1,1.2,8.1,1.2L139.4,229z"/>
<path class="st4" d="M142.5,233.1c0,0-6.4,3.4-6.1,3.5c0.4,0.1,8.1-0.5,8.1-0.5L142.5,233.1z"/>
<path class="st4" d="M146,238c0,0-4.1,4.6-3.7,4.7c0.4,0.1,6.4-2.1,6.4-2.1L146,238z"/>
<path class="st1" d="M149.8,87.6l-61.3,18.2c0.4,9.1,1.6,26.3,1.6,26.3s22.9,14.1,44.1,19.6c24.4,6.4,46.3,1.1,46.3,1.1
	s-2-31.4-22.5-55.7C154.8,93.4,152.1,90.3,149.8,87.6z"/>
<path class="st1" d="M107.8,197.5v27.1c0,0-13.1-3.5-11.8-0.7c1.2,2.8,7.5,11.9,7.5,11.9s12.1,0.2,11.4-4.7
	c-0.7-4.9-0.2-26.8-0.2-26.8"/>
<path class="st1" d="M97.4,183.9c4.1,19.1,6.5,28.9,30.7,28.9c35.4,0,39.1-23,39.1-23L97.4,183.9z"/>
<path class="st3" d="M143.5,61.1c0,0,9.6-10.7,23.9-9.8c14.3,1,28.7,5.2,26.4,8.9c-2.3,3.6-4.8,9.8-18.4,15.2
	c-13.6,5.4-32.9,0.9-32.9,0.9L143.5,61.1z"/>
<path class="st3" d="M111.1,35.5c0.3-1.2-3.5-12.7,7.4-21.9S146.2-3.1,145.1,2c-1,5.1-6.3,20.4-12.3,27.3
	c-6.1,6.8-11.5,11.2-11.5,11.2L111.1,35.5z"/>
<path class="st1" d="M150.1,193.3v34.2c0,0-11.8-0.7-10.6,2.1c1.2,2.8,9.1,11.9,9.1,11.9s9.3-2.6,8.6-7.5
	c-0.7-4.9,0.6-41.2,0.6-41.2"/>
<path class="st4" d="M143.6,65.9c0,0,9.6-5.5,16.4-5.2c6.7,0.3,9.2,2.5,9.2,2.5s-9.5,6.3-14.6,6.4C148.6,69.8,143.6,65.9,143.6,65.9
	z"/>
<path class="st4" d="M112.8,37.4c0,0,3.2-10.6,8.3-15c5.1-4.4,8.5-4.5,8.5-4.5s-2.6,11.1-6.2,14.7C119.2,36.8,112.8,37.4,112.8,37.4
	z"/>
<path class="st3" d="M67.6,50.1c11-3.7,28.2-16.2,37.8-16.2s26.8,9.5,33.1,16.2c4,4.3,7.9,13,6.5,22.6c-0.9,5.8,1.4,10.5,6,16.4
	l-14.5,11.4l-33.2,9.9c0,0-8.1,0.1-15.8,0.1c0-3.3,0-5.8,0-6.8c0-4.3-71.2-25.6-83-35C-6.7,59.7,27.8,63.6,67.6,50.1z"/>
<path class="st5" d="M123.9,62.3c1.8,5.5-0.6,12.9-7,15c-4.8,1.6-13-1.6-12.8-9.5c0.2-6.1,3.3-10.2,8.1-11.8
	C116.9,54.4,122.1,56.8,123.9,62.3z"/>
<path class="st6" d="M114.2,67.3c0.3,1,1.4,1.5,2.3,1.2c1-0.3,1.5-1.4,1.2-2.3s-1.4-1.5-2.3-1.2C114.4,65.3,113.9,66.3,114.2,67.3z"
	/>
<path class="st5" d="M89.4,39.1c1.4,4.2-1.4,10.3-6.3,11.9c-3.7,1.2-9.1-1.6-9-7.7c0.1-4.7,2.5-7.8,6.2-9.1
	C84.1,33.1,88,34.9,89.4,39.1z"/>
<g class="st7">
	<g class="st7">
		<path class="st8" d="M74.7,46.8c-0.4-1-0.6-2.1-0.6-3.4c0.1-4.7,2.5-7.8,6.2-9.1c3.7-1.2,7.7,0.6,9,4.8"/>
		<path class="st9" d="M74.7,46.8c-0.4-1-0.6-2.1-0.6-3.4c0.1-4.7,2.5-7.8,6.2-9.1c3.7-1.2,7.7,0.6,9,4.8"/>
	</g>
</g>
<path class="st6" d="M80.6,44.5c0.3,0.8,1.1,1.2,1.8,0.9c0.7-0.2,1.2-1,0.9-1.8s-1.1-1.1-1.8-0.9C80.8,42.9,80.3,43.7,80.6,44.5z"/>
<path class="st4" d="M14.8,60.7c-12.1,1.8-17.8,3.2-12,7.8c2.2,1.8,6.4,3.9,11.9,6.3C15.1,70.4,15.2,65.2,14.8,60.7z"/>
<path class="st10" d="M92.9,68.2c0-10.5,9.1-20.2,20.1-19c16.1,1.6,32.2,19.1,32.2,19.1s-19.7,19.2-33.1,17.9
	C99.2,85,92.9,76.1,92.9,68.2z M113,53.4c-8.8,0-15.9,6.7-15.9,14.8s7.9,13.2,16.7,13.2c7.8,0,20-9,23-12.8
	C131.6,63.5,119.9,53.4,113,53.4z"/>
<path class="st10" d="M80.5,58.4c-9.2,0-16.7-7.1-16.7-15.8c0-8.5,15.6-23.9,15.6-23.9s17.8,15.6,17.8,23.9
	C97.2,51.3,89.7,58.4,80.5,58.4z M79.9,24.9C76.8,26.3,68,36.2,68,42.6c0,6.4,5.6,11.6,12.5,11.6C87.4,54.3,93,49,93,42.6
	C93,38,85.3,29.6,79.9,24.9z"/>
<path class="st10" d="M99.1,58.1c-1.9-1.2-7.2-4.3-8.3-4.9l1.9-3.7c1.3,0.7,7.8,4.6,8.5,5L99.1,58.1z"/>
<path class="st3" d="M88.2,146.4c0,0,15.1,12.2,50.4,19.3c16.6,3.3,41.2,1.1,41.2,1.1l0.8-16.2c0,0-24.9,2.4-47.7-2.8
	c-31.2-7.1-44.1-18-44.1-18L88.2,146.4z"/>
<path class="st2" d="M89.2,159.1c0,0,14.2,14.4,48.7,18.9c17,2.2,38-0.8,38-0.8l1.9-10.6c0,0-21.9,1.9-45.1-2.9
	c-26.9-5.7-42.9-16.9-42.9-16.9L89.2,159.1z"/>
<path class="st3" d="M91.8,172.9c0,0,13.3,10.4,44.2,13.5c16.7,1.7,35.2-0.9,35.2-0.9l2.9-8.2c0,0-22.3,2.9-43-1.5
	c-24-5.1-39.4-15.7-39.4-15.7V172.9z"/>
<path class="st2" d="M96.1,186.2c0,0,9.9,8.1,40.9,8.1c16.8,0,30.2-2.9,30.2-2.9l2.7-5.9c0,0-17.6,1.9-38.6-0.4
	c-24.4-2.6-36.7-10.6-36.7-10.6L96.1,186.2z"/>
<path class="st5" d="M87.4,105c0,0,16.4,2,34-1c17.5-3,27.8-17.7,27.8-17.7s6.6,0.5,7.2,3.8c0.5,3.3-9.9,4.9-9.9,4.9
	s7.4,4.1,1.6,8.6c-5.1,4-9.8-1.3-9.8-1.3s2.1,5.8-3.3,8.2s-8.3-3.8-8.3-3.8s-0.5,8.1-4.5,7.6c-4-0.5-6.2-5.1-6.2-5.1s0,7.7-5.3,7.1
	c-5.2-0.6-4.7-6.5-4.7-6.5s-3.1,7.2-7.4,6.1c-4.3-1.1-3.3-6.7-3.3-6.7s-6.5,7.8-9.7,3.9C82.4,109.3,87.4,105,87.4,105z"/>
<path class="st11" d="M81.3,82.7c0,0,0.5,7.8,4.8,7.5c4.3-0.3,4.6-8.6,4.6-8.6"/>
<path class="st12" d="M159.9,253.3c2.8-1.1,6.2-1,9.7-1.5c0.8-0.2,1.8-0.3,2.3-1l-2.5-0.6c-1.7-0.4-3.4-0.5-5-0.6
	c-0.8,0,0.3-0.7-1.4-0.7c-6.3,0.2-16-0.6-23.7-1.1l0.5-0.2c-1.5-0.1-3.2,0.6-4.7,0.6c0-0.1,0.5-0.2,0.1-0.4
	c-0.4,0.4-2.8,0.3-3.4,0.7c-0.6-0.1-0.6-0.4-1.4-0.6l-0.8,0.5c-2.3,1.3-5.9,0.4-9.2,1.3c0.1-0.1,0.5-0.2,0.2-0.3
	c-5.2,1.2-11.8,2-17.6,3.5c0.2-0.2,0.3-0.5,0-0.6c-0.2,0.5-1.9,1-3.4,1.5c-0.8-0.3-2.5,1.1-4.3,1.4l0.1-0.2c-1.1,0.9-2,0.4-2.8,1.4
	l-1,0c0.1,0.6-2.9,0.9-1.9,0.6l0-0.1c0.8,0.1,1.4,0.4,2.4,0.4l0.1,0.1c2.3,0,3.7,0.4,3.6-0.2c0.8,0.5-2.3,0.1-1,0.8
	c7.7-0.3,15.7-0.4,23.4-0.6c0.9,0.2,1.5,0.2,1.7,0.4c0.8-0.1,2.9-0.2,3.6-0.5c-0.3,0,0.5,0.3,0.9,0.3c1.4,0.2,1.5-0.6,3.1-0.4
	c-0.6,0.2-0.8,0.3-0.6,0.5c1.3-0.5,3.1-0.4,4.6-0.6c-0.2,0.1-0.6,0.2-0.6,0.3c1.7-0.5,3.1,0,4.6-0.3l-0.5,0.3
	c2.4,0.3,0.7-0.7,2.8-0.5c-0.5,0.1-0.3,0.2-0.4,0.4c1.9-0.6,5.1-0.5,7-0.7c-0.1,0-0.1,0.1-0.1,0.1c2.1-0.1,4.3,0,6.6-0.3
	c0.8,0.1-0.3,0.8,2,0.6c-0.1-0.6,3.8-0.4,2.4-1c1.9,0,4.9,0.1,6.2-0.1c-0.8,0.3,1,0.7-0.6,0.8l1.2,0.3c-0.2,0.3-1.2,0-0.8,0.3
	c0.8-0.1,3.1-0.4,3.8-0.4c1.5-0.5,2.8-1.2,5.1-1.5c-1.1,0.3,0.7,0.6-0.1,0.8l3.2-1.4c0.8-0.1,0.2,0.5,1.3,0.2
	c-0.1-0.2,0.4-0.3,0.8-0.5c0.3,0.1,3.3-0.4,3.7,0.2c0.4,0.2-1.3,0.2-0.4,0.4c1.5-0.1,1.5-0.3,3-0.5l0,0.1c1,0,2.8-0.6,1.7-0.8
	c-0.7,0.1,0.3,0.3-0.7,0.3c0.6-0.4,2.3-0.7,3.7-0.9c-0.5,0.2-0.4,0.3-0.5,0.5c0.9-0.4,1.9-0.7,2.7-1c0.3,0.3,1.1-1.3,0,0.7
	c1.2,2.1,0.1,0.6-0.1,1c-0.1,0.3,0.9-0.3,0.8-0.2c-1.6-0.9-5.5-0.3-7.4-1.2c0.4,0,0.1,0.4,0.1,0.4c-1.3-0.2-1.2-0.6-2.1-0.5
	c-0.1-0.3-1.1,0-2,0c-0.5,0.1-0.2-0.1,0.6-0.1c-1.3,0.1-6.3,0-9.2-0.5c0,0.2-1.8,0.5-2.5,0.4l0.3-0.4c-0.6-0.3-2.2-0.1-2.3-0.4
	c-1.5,0.4,5.5-0.1,3.6,0.2c-0.5-0.4-2.7,0.4-2.3-0.1c-1.3,0-2.7,0.3-4-0.1c0.4,0.1,1.1-0.5,0-0.5c-1.9,0-0.6,0.2-2.1,0.2l-1,0.1
	c-0.1,0.4-1.7-0.1-1,0.3c-0.2-0.3-2.8,0.1-2.6-0.5l0.3-0.5c-0.8,0-1.4,0.5-2,0.7c-0.1,0-0.3-0.2-0.3-0.2c-0.2,0.7-2-0.1-3,0.4
	c-1.7-0.3-4.4-0.1-5.3-0.6c-1.3,0.2-2.6,0.5-4.1,0.3c0.3-0.1,0.7-0.1,0.8-0.2c-1-0.2-1.2,0-2.1,0.1c0.2-0.1-1.9-0.5-3-0.7
	c-1.3,0.2-0.9,0.6-1,0.9c-1.2-0.8-3.8,0.4-5.3-0.3c0.5-0.1,2-0.3,0.9-0.5c-1.2-0.8-2.5,0.5-4.4,0.1l0.5,0.6
	c-0.9-0.4-2.9,0.3-2.7-0.3c-0.7,0.2-2.3-0.3-2.1,0.3c-3.2-0.6-7.9,0.1-9.8-1.1c-0.5,0.1-1.6-0.1-1.4,0.3c0.8,0.4,1.1-0.2,1.4,0
	c-0.4,0-0.5,0.2-0.6,0.2c-1-0.2-1.8-0.2-0.8-0.7c-2.2-0.4-2.4,0.9-5.2,0.6c0.1-0.2-0.1-0.3-0.9-0.3l-1.6,0.4c-1.8-0.2-1-0.6-1.1-1
	c-1,0-2.2,0-2.6,0.3l-1.2-0.6c0.9,0.4-0.8,0.2-1.3,0.3l0.5-0.1c-0.2-0.2-1.3-0.1-1.9-0.1c0.1,0.3,1.3,0.4,1.9,0.5
	c-0.5,0.2-1.3,0.1-2,0.3c0.2-0.4-1.6-0.3-2.4-0.4c-0.9-0.1-1,0.4-1.3,0.3c0-0.2-1.5-0.1-0.8-0.3c0.3-0.1,0.7,0.2,1.2,0
	c-0.6-0.2-0.5-0.5-1.7-0.3c-0.9,0.2,0.2,0.8-1.5,0.5c0.5-0.1,0.5-0.3,0.9-0.4l-1.6-0.2l-0.1,0.4c-0.2-0.1-0.1-0.1-0.2-0.2
	c-0.5,0.4-2.5,0.1-2.9,0.6c-0.8,0-1.7-0.3-2.5-0.3l0.2,0c-1-0.2-2.2,0-3,0.2l0-0.1c-0.5,0-1.8,0.1-2.4,0.3c-1.3-0.2-0.5-1.4-1.9-0.9
	c-1.3,0.1-2.1,0.8-1.5,1c-2.4-0.1-5.1,0.6-7.3,0.3c-0.3,0.2-0.1,0.3-0.8,0.4c-3.5,0.2-7.2,1.4-10,1.2c0.9-0.3,0-0.4-0.1-0.6
	c-0.7,0.5-1.1-0.1-1.2,0.5c0.2,0.3,0.1,0.5,1.1,0.4c-0.9,0.3-2.2,0.7-3.3,0.9c-0.4,0.1-1.1,0.4-0.5,0c0.4-0.5,0.3-0.3,0.5-1.4
	c-0.1-1.2-0.9-1.5-0.7-1.4c-0.3-0.2-0.4-0.1-0.3-0.1c-0.1-0.2,0-0.3,0.3-0.3c-0.4,0.5,0.9,0.8,2.1,0.8l0.2-0.3l0.7,0.4
	c0.5-0.1,0.6-0.6,1.7-0.2c0,0.1,0.1,0.3,0.3,0.4c1.2-0.2,2.9-0.6,4.3-0.2l1.1,0.5c0.6,0,1.5-0.3,0.5-0.5c2.2,0.4,3.7,0.4,4.4,0.9
	c3.9-0.9,9.6-0.9,14.2-0.7l-0.1,0.2c1.2,0.2,0.6-0.4,1.5-0.2c-0.4,0.2,0.9,0.5,0,0.8c1.8,0.3,2.3-0.4,3.4-0.5
	c0.2-0.3-0.9,0.2-0.7-0.2c0.2-0.1,2.4,0.3,2.7-0.2c0.4,0.2,0.1,0.6-0.2,0.7l1.1-0.2c1.3,0.6-3,1-1.6,1.7l1-0.1
	c0.9,0.5-2.6,0.5-0.1,0.8c1.1-0.2,2-0.9,1.1-1.2c2.2-0.1,1.1-1.2,3.5-1.1c0.7,0.3-1.9,0-1.5,0.4c1.1,0.4,2.3-0.2,3.3,0
	c-1.1-0.2-0.2-0.7,0.6-0.8c1.2,0.3-0.8,0.4,0.9,0.5c0.3-0.3,1.9-0.5,0.5-0.7c0.6-0.6,1.8,0.2,2.8-0.3c0.6,0.5-1.8,1,0.1,1.3
	c-0.3-0.4,2.4-0.5,1.4-1.2c0.7,0.1,0.8,0.5,0.3,0.7c1.1,0.3,2.6-0.7,3,0.2l0.4-0.4c0.3,0.2,0.8,0.3,1.4,0.5c0.9,0,3.1-0.5,3,0.2
	c0.3-0.1,2.5,0.1,1.7-0.4c-1.3-0.4-1.6,0.3-2.3-0.4c0.9,0.5,2,0,2.8-0.1c-0.1,0.1,0,0.2,0.1,0.3c0.5-0.1,1.5,0,1.8-0.2
	c-0.4,0.1-0.2,0.3,0.2,0.4l0.5-0.4c1.9-0.1,0.4,0.7,2.2,0.7l-1.4,0.2c0.3-0.1,0.9,0.4,1.8,0.3c0.4-0.3,1-0.7,1.3-1
	c1-0.1,0.4,0.4,1.5,0.1l-1.4,0.4c-0.2,0.1,0.9,0.6,2.2,0.7c0.9-0.1,2.3-0.5,0.9-0.8c0.7,0,1.6,0.3,1.1,0.5c1.6,0-0.2-0.4,1.2-0.5
	c0.5,0.3,2.2,0.7,3.2,1.1l-1.4,0.5l0.9,0.1c-1.2,0.4,0.6,0.4-0.1,0.9c0.6,0.1,1.4,0,2-0.1c-1.8-0.9,2.2-1,1.7-1.8
	c2.6-0.1,1.5,1.9,4.2,0.9c-0.4-0.2,0.9-0.7-0.7-0.6c1.6,0.2,1.1-0.7,3-0.3c-1.4,0.2,1.4,0.8-0.6,1.2c0.1-0.2-1.1-0.3-1.4-0.2
	c0.6,0.3-0.2,0.7,1.4,0.8c1,0,2.3,0.1,2.2-0.3c0-0.4-1.5,0-0.8-0.4c2,0,2.3,0.6,3.1-0.1c-1.2,0-1.5-0.5-1.5-0.8l1.5-0.1l-0.3,0.3
	c2.3,0.3,0.7-0.5,3-0.3l1,0.6c-0.6,0.4-3.2-0.4-2.9,0.4c1.5,0.1,2-0.2,3.3,0l-1,0.1c0.5,0.1,1,1.1,3.1,0.6c1.1-0.2,0.3-0.3,0.4-0.6
	c2.4,0.1,3.1-0.2,4.6-0.2c-0.4,0.6,2.7,0.2,1,0.7c-0.7-0.4-4.1-0.6-5-0.1c0.8,0.7-1.8-0.2-2.4,0.4c1.9,0.1,1.7,0.8,2,1.2
	c0.5,0.1,1-0.1,1.4-0.1c0.3-0.4-0.4-0.4-0.4-0.9c2.1,0.2,4.1,0.1,5.3-0.2c0.7,0.2,0.4,0.6-0.4,0.6c2.5,0,5.2,0.2,7.5,0.5
	c-1.5-0.8,2.7,0,1.6-0.6c-1.3-0.2-2.3-0.8-1.6-1c0.8,0.1,0,0.3,0.3,0.5c1-0.3,1.5,0.7,2.6,0.2c-2.3,0.1-0.5,0.8-1,1.3
	c1.7-0.2-0.1,0.4,1.5,0.5c1.7-0.2,3.7-0.3,5.5-0.3c2.3,0.6,5.8,0.3,7.8,0.4c1.1,0.3,0.3,0.9,1.4,1c1.4,0.1-1-0.7,1-0.3l-0.2,0.1
	c0.6-0.1,3.7,0.6,4.3-0.2l-0.7,0.6c0.4,0.1,0.7-0.1,1-0.1c0,0.2,0.4,0.4-0.2,0.5c1.2,0.5,2.6,0,4,0.1l-0.8-0.4
	c2.3-0.2,3.9,0.2,6.1,0.2l-0.1,0.4l1.3-0.2c-0.3,0.4,0.9,0.6,1.6,0.3l-3.5,0.8c-1-0.3,1.1-0.4,0.5-0.8c-0.5-0.3-2.6-0.3-2.9,0
	c0.8,0.1,0.8,0,1.5-0.1c0.2,0.5-1,0.5-1.6,0.8c0.4,0,1,0.2,1.1,0c-0.8,0.2-1.7,0.2-3,0.2c0.9-0.2-0.5-0.3-0.1-0.5
	c-0.1,0.5-1.4,0.5-3.1,0.3c-1.2-0.6-3.2,0.2-5.1,0c0.8-0.4,1.8-0.7,3-0.9c-1.2-0.3-1.4-0.1-2.6-0.3c-0.6,0.3-1.1,0.8-2.7,1l-0.1-0.3
	c-1.5,0.1-1.5,0.6-3.3,0.4c-3.1-0.3-6.4-0.5-8.8-0.7l-0.1-0.3c-1.4,0.7-4.5,0-6.3,0.2c-3-0.5-6.7-0.1-8.2-0.8
	c-5.4-0.1-10.2-0.1-15.8-0.6l1-0.4c-1,0.3-0.6-0.3-1.6-0.3c1.1,0.5-1.4,0.4-2.1,0.7c-2.5-0.5-5.7-0.3-7.9-0.1l-0.1-0.3
	c-2.3,0.5-4.9-0.2-7.7-0.5c-0.3-0.2-0.8-0.5-1.6-0.5c-1.6,0.5-2.3,0.4-4.6,0.6c-1.6-0.1-4.2-0.3-5.8-0.6c-6.1,0.6-12.3,0-18.6,0.4
	l-0.4-0.4c-6.2,0.8-13.7-0.1-19,0.2l0.5-0.7c-1.6-0.3-3.8,0.1-3.4,0.6c-1.6-0.3-4.2,0.2-5.2-0.5c-1.7-0.2-2.1,0.2-3.6,0.1
	c-2-0.6-2.4,0-5.4-1.7c-2.2-2.3,0.5-4.5,0.7-4.4c0.5-0.3,1-0.5,1.3-0.6c0.8-0.3,1.4-0.5,2.2-0.7l-0.8,0.2c-0.3,0.2-0.2,0.5,0.6,0.4
	c1.1-0.5,4.4-0.9,3-1.4c3.5-0.2,8-1.8,11.5-1.4c-0.3-0.2,0.5-0.3,0.9-0.5c3-0.3,6.3,0,8.6-0.5c0.5,0.1-0.7,0.4,0.5,0.4
	c0.7-0.1,0-0.3,0.9-0.5c4.9-0.6,9.9,0.3,14.3,0.2c7.9-0.3,16,0.2,23.5,0.4l-0.1,0.2c2.5-0.5,5.8,0.8,7.8-0.1
	c0.6,0.2,2.2,0.1,1.8,0.4c2-0.4,5.6,0.5,8.4,0c-0.3,0-0.4,0-0.7,0.1c2.9,0.4,5.5-0.1,8.5,0.3c-0.3,0.1-0.9,0.1-1,0.3
	c1.2,0.3,2.8-0.7,3.5,0.1c0.7,0,0.5-0.4,0.1-0.4c6.7,0.4,13.9,0.1,21,0.2c5,0.7,0.2,1.3,4.2,1c0.3,0.2,0.3-0.3,0.3-0.1
	c1.6-0.1,2.3,1,3.4,0.7c-0.4-0.5,0.7-0.2,0.8-0.5c3.1,0.6,3.6,1.1,6.1,1l-0.2,0.2c2.9-0.5,6.2,0.5,8.8,0c0.6,0.1,0.7,0,1.8,0.3
	c0.3,0.1,0.6,0.1,1.2,0.4c-0.1,0.3,2.7,0.3,1.8,4.1c-3.8,3.6-3.5,1.8-4.9,2.6c-2.1,0.4-4,0.6-6,0.9c-3.9,0.5-7.7,0.8-11.5,1.1
	c-7.6,0.6-15.2,1.1-22.9,1.3c-15,0-29.8,1.1-45.2,0.7c-3.6-0.7-3.9-0.6-7.9-0.5c0.2-0.1,0.4-0.1,0.2-0.2c-0.2,0.6-2.9-0.1-3.4,0.4
	c-0.8-0.1-1.5-0.1-2.6-0.4c-0.3-0.1-0.4-0.1-1.2-0.4c-0.4-0.2-0.4-0.1-1-0.6c-1.1-0.8-1.5-2.8-1.1-3.4c1-2.2,2-2.2,2.1-2.3
	c0.5-0.2,0.8-0.3,0.9-0.4c0.5-0.1,2.6-1.1,3.8-1.6c2.8-1,5.5-1.8,8.5-2.5c-0.9,0.3-1.3,0.8-0.2,0.5l1.1-0.6l0.2,0.1
	c0.7-0.2,1.5-0.7,0.7-0.7c14.7-3.4,29.4-3.4,43.9-3.6c3.5,0.2,8.4,0.2,12.2,0.3c2.8,0.4,5.5,0.8,8.2,1.5c1.3,0.2,2.7,0.6,4,1l1,0.3
	l0.5,0.1l0.1,0l0,0c0.2,2-0.5-4.4,0.5,4.4l0,0l0,0l-0.1,0.1l-0.3,0.1c-0.7,0.3-1.6,0.6-2.3,0.7c-6.6,0.3-9.5,1.1-17.3,1.4
	C153.5,255.5,155.7,254.2,159.9,253.3z"/>
</svg>
