<?xml version="1.0" encoding="utf-8"?>
<!-- Generator: Adobe Illustrator 26.5.0, SVG Export Plug-In . SVG Version: 6.00 Build 0)  -->
<svg version="1.1" id="Capa_1" xmlns="http://www.w3.org/2000/svg" xmlns:xlink="http://www.w3.org/1999/xlink" x="0px" y="0px"
	 viewBox="0 0 653 400" style="enable-background:new 0 0 653 400;" xml:space="preserve">
<style type="text/css">
	.st0{fill:#F7941E;}
	.st1{fill:#EFE5DA;}
	.st2{opacity:0.8;}
	.st3{opacity:0.8;fill:none;stroke:#D3D2C2;stroke-width:0.5;stroke-linecap:round;enable-background:new    ;}
	.st4{fill:#231F20;}
	.st5{fill:#FFFFFF;}
	.st6{fill:#00A5A5;}
	.st7{fill:#FCB22C;}
	.st8{fill:#48484A;}
	.st9{fill:none;stroke:#231F20;stroke-width:1.3;stroke-linecap:round;}
</style>
<path class="st0" d="M263.4,323.4c0,0-22.1,3.8-36.4,6.6c-14.4,2.8-24.6,9.8-27.6,13c-3,3.2-7.2,24.2-14.5,21.4
	c-4.7-1.7-3.3-12-3.3-12s-7.5,3.5-12.5,1.8c-7.5-2.5,5.1-13.3,5.1-13.3s-19.3,6.1-19.5-6.3c-0.2-7.5,12.5-12.5,37.8-11.4
	c24.4,1,63.7-18.6,63.7-18.6"/>
<path class="st0" d="M299.4,85.1c0,0-36.7-10.1-74-13.1c-15.5-1.2-35.3,13.1-58.4,25c-18,9.3-70.7,18.6-80.2,20.3
	c-16.4,3-69.2,15.6-69.2,27.5c0,11.9,13.4,22.4,44.7,37.3C93.6,197,198,211.9,221.8,262.6c23.9,50.7,40.3,137.2,43.2,173
	c3,35.8,13.4,80.5,13.4,80.5s-51.2-1.5-43.7,8.9c7.5,10.4,27.1,0.2,27.1,0.2s-5.8,13.3,0.2,14.8c6,1.5,13.6-11.6,13.6-11.6
	s-1.6,10.3,10.3,11.7c11.9,1.4,14.6-6.2,11.6-19.6c-3-13.4-2.4-63.2-1.4-64c1.4-1.1,74.8,0,74.8,0l5.1,58.1c0,0-39.4,9-34.9,14.9
	c4.5,6,23.4-2.7,23.4-2.7s-14.4,10.8-5.5,13.5c8.9,2.7,17.7-6,17.7-6c-4.7,20.1,24.4,8.8,19.6-9.2v-74.6c0,0,29.7,47.5,85,47.7
	c68.9,0.3,160-58,189.7-89.1c30.6-32,18.9-23.3-18.1-13.8c-51.3,13.2-91.7,6.1-117.8-1.5c-19.3-5.6-45.8-13.8-73.5-7.3
	c-22.9,5.4-55,31.4-55,31.4s8.4-83-53.4-165.9c-11.9-16-2.6-44.4-2.6-44.4s6,0.5,12.5,1.6c10.7,1.9,19.8,16,15.3,4.1
	c-4.5-11.9-20.9-22.4-20.9-22.4s4.8-7.7,27.8-5.8c15.1,1.2-19.3-20.5-19.3-20.5s18.1-3,30.2-4.2c6.1-0.6-36.1-20.7-36.1-20.7
	s-1.2-2.1-0.9-13.7c0.2-5.8-1.7-23-1.7-23s6.7-38.8,8.6-53.7c1.9-14.9,0-31.3,0-31.3s-31.5,25-46.9,40.9
	C308,70.5,299.4,85.1,299.4,85.1z"/>
<path class="st1" d="M220.5,268.4c22.3,47.5,34.1,86.1,40.1,161.8c16.5,0.3,54.7-1.3,70.5,0c1.3-10.2-1.2-20.9-1.2-31.6
	c0-103.4-49.5-158.9-134.3-179.3c-15.6-3.7-47.1-12.9-54.1-11.4C170.5,219.2,209.9,245.8,220.5,268.4z"/>
<g class="st2">
	<g class="st2">
		<path class="st3" d="M141.4,207.9c29.1,11.4,67.1,38.7,79.1,60.6c21.4,38.9,28.8,75.3,39.3,138.4"/>
	</g>
</g>
<path class="st4" d="M31.7,129.9c-17.4,4.9-41.5,11-27.5,22.5c16.8,14,47.2,24.2,47.2,24.2s5.9-39.3,1.7-51.8
	C53.1,124.9,38,128.1,31.7,129.9z"/>
<path class="st0" d="M201.7,79.1c0,0,12.8-24.3,19.6-37.1c6.8-12.8,26.5-43.5,28.1-41.9c1.6,1.6,8.4,12.2,9.7,32.1
	c1.3,19.9,1,45.6,1,45.6L201.7,79.1z"/>
<path class="st5" d="M316.2,93.8c0,0,31.1-33.6,32-29.4c0.8,4.1,0,38.1,0,38.1s-12-5-16.4-5.8C327.5,95.8,316.2,93.8,316.2,93.8z"/>
<path class="st5" d="M241.7,42.2c2.2-1.7,3.5,1.8,4.6,8.1c1.1,6.3,3.9,23.4,3.9,23.4L225.4,72C225.4,72,239.5,43.8,241.7,42.2z"/>
<path class="st5" d="M292.4,141c0,13.6-13.8,28.7-29.8,28.7c-12,0-25.7-12.8-18.8-31c6.4-16.7,16.3-20.2,28.8-18.5
	C284.5,121.8,292.4,127.4,292.4,141z"/>
<path class="st5" d="M208.2,107.2c0,9.9-9.4,20.8-20.3,20.8c-8.2,0-17.5-9.3-12.8-22.5c4.3-12.1,11.4-13.4,19.6-13.4
	C202.8,92.1,208.2,97.3,208.2,107.2z"/>
<path class="st4" d="M266.9,150.9c0,2.5,2,4.5,4.5,4.5c2.5,0,4.5-2,4.5-4.5c0-2.5-2-4.5-4.5-4.5
	C268.9,146.4,266.9,148.4,266.9,150.9z"/>
<path class="st4" d="M189.6,112c0,2.1,1.7,3.8,3.8,3.8c2.1,0,3.8-1.7,3.8-3.8c0-2.1-1.7-3.8-3.8-3.8
	C191.4,108.2,189.6,109.9,189.6,112z"/>
<path class="st6" d="M259.1,406.2c0,0,72.4,1.3,98.1,0c25.6-1.3,50.4-9.2,50.4-9.2s1,25.6,0,46.5c-1.1,23.6-5.1,43.6-5.1,43.6
	s-42-6.2-49.9-5l-2.5-13.3l-50.7-3.9v14.4h-38.5L259.1,406.2z"/>
<path class="st7" d="M338.3,275.6c0,0,8,21.7,14.5,34.8c6.5,13.1,7.3,25.5,6.5,29.8c-0.7,4.4-12.9,16.7-10.4,21.1
	c2.4,4.4,10.7,0,10.7,0s-1.4,11.5,3,14.4c6.6,4.4,8.1-9.9,9.9-11.5c1.6-1.5,6.8,13.9,16.7,6.5c6-4.5-0.3-14.7-10-37.1
	C365,300.6,350.9,266,350.9,266"/>
<path class="st4" d="M341,399.2c0,0-18.2-91.8-8.3-110.2c13.4-25.2,32.3-26.5,32.3-26.5l-4.7-6.7c0,0-25.3,5.1-39.6,33.7
	c-10.1,20.3,5.2,109.7,5.2,109.7H341z"/>
<path class="st4" d="M263.4,400.4c0,0-10-73-19.6-91.5c-5-9.7-10.7-16.1-10.7-16.1l-5.4-11.2c0,0,11,0.9,25.1,23.2
	c12.1,19.2,22.7,94.5,22.7,94.5L263.4,400.4z"/>
<path class="st8" d="M326.5,408.2l15.6-1.3l-1.1-9.3l-15.8,1.7L326.5,408.2z"/>
<path class="st8" d="M277,397.5h-14.7v9.4H277V397.5z"/>
<path class="st5" d="M232,193.8c6.1-5,9.3,9.5,30.9,9.3c14.5-0.1,24.5-16.7,30.8-10.8c8.9,8.2-2.4,29.2-28.1,31.9
	C245.4,226.2,223.5,200.8,232,193.8z"/>
<path class="st9" d="M261,199.7l2.2,24.4"/>
<path class="st9" d="M277.7,194.9l4.7,28.9"/>
<path class="st9" d="M247.5,196.8l-4.7,23.1"/>
<path class="st5" d="M666,391.3c-51.5,17.2-98,11.5-125.4,4c10.5,9.9,28.6,29.9,23.1,29.8c-7.7-0.3-40.5,10.8-31.2,11.2
	c9.3,0.3,31.7,5.2,31.7,5.2s-26.4,18.8-23.3,20.3c3,1.5,34.1-5.6,34.1-5.6s-2,9.8-2,17.9c46-16.8,72.9-41.7,92-58.1
	C698.3,387.1,697.6,380.7,666,391.3z"/>
<g class="st2">
	<g class="st2">
		<path class="st3" d="M573.6,474c47.4-23.4,72.9-41.7,92-58.1c33.4-28.8,32.7-35.2,1.1-24.6c-51.5,17.2-98,11.5-125.4,4"/>
	</g>
</g>
</svg>
