<?xml version="1.0" encoding="utf-8"?>
<!-- Generator: Adobe Illustrator 26.5.0, SVG Export Plug-In . SVG Version: 6.00 Build 0)  -->
<svg version="1.1" id="Capa_1" xmlns="http://www.w3.org/2000/svg" xmlns:xlink="http://www.w3.org/1999/xlink" x="0px" y="0px"
	 viewBox="0 0 343 304" style="enable-background:new 0 0 343 304;" xml:space="preserve">
<style type="text/css">
	.st0{fill:#2BB673;}
	.st1{fill:#037875;}
	.st2{fill:#F7941D;}
	.st3{opacity:0.8;fill:#FFFFFF;enable-background:new    ;}
	.st4{fill:#5D3D3D;}
	.st5{fill:#FFFFFF;}
	.st6{fill:none;stroke:#000000;stroke-width:0.494;stroke-linecap:round;}
	.st7{fill:#D3CACA;enable-background:new    ;}
	.st8{fill:#ED1C24;}
</style>
<g>
	<path class="st0" d="M34.4,152.5c0,75.5,61.2,136.6,136.6,136.6c75.5,0,136.6-61.2,136.6-136.6C307.6,77,246.5,15.9,171,15.9
		C95.5,15.9,34.4,77,34.4,152.5z"/>
	<path class="st1" d="M44.9,152.6c0,69.9,56.7,126.6,126.6,126.6c69.9,0,126.6-56.7,126.6-126.6C298.1,82.7,241.4,26,171.5,26
		C101.6,26,44.9,82.7,44.9,152.6z"/>
</g>
<path class="st2" d="M46.5,160.7c16.1,7.6,66.4,17.2,82,41.4c12.5,19.3,19.1,41.6,22.7,60.1h71.5c-2.1-16.4-8.4-41-26.7-65.6
	c-6.1-8.2-1.3-22.8-1.3-22.8s3.1,0.2,6.4,0.9c5.5,1,10.2,8.2,7.9,2.1c-2.3-6.1-10.7-11.5-10.7-11.5s2.5-4,14.3-3
	c7.8,0.6-9.9-10.5-9.9-10.5s9.3-1.5,15.5-2.2c3.1-0.3-18.6-10.6-18.6-10.6s-0.6-1.1-0.5-7c0.1-3-0.9-11.9-0.9-11.9
	s3.5-19.9,4.4-27.6c1-7.7,0-16.1,0-16.1s-16.2,12.8-24.1,21c-5.8,6.1-10.3,13.6-10.3,13.6s-12.9-4.6-32.1-6.2
	c-8-0.6-24,6.1-35.9,12.2c-9.3,4.8-36.3,9.5-41.2,10.4c-8.4,1.5-35.6,8-35.6,14.1C23.5,147.6,30.4,153,46.5,160.7z"/>
<g>
	<path class="st3" d="M108.2,115.9c-2,4.7-8.5,8-13.7,5.9c-3.9-1.6-6.5-7.9-1.7-13.2c4.4-4.9,8.1-4.1,11.9-2.5
		C108.6,107.7,110.2,111.2,108.2,115.9z"/>
	<path class="st3" d="M108.2,115.9c-2,4.7-8.5,8-13.7,5.9c-3.9-1.6-6.5-7.9-1.7-13.2c4.4-4.9,8.1-4.1,11.9-2.5
		C108.6,107.7,110.2,111.2,108.2,115.9z"/>
</g>
<path d="M99.8,111.1c-0.4,1,0,2.1,1,2.5s2.1,0,2.5-1s-0.1-2.1-1-2.5C101.3,109.7,100.2,110.1,99.8,111.1z"/>
<path class="st2" d="M149.9,233.3c0,0-11.4,2-18.7,3.4c-7.4,1.5-12.6,5-14.2,6.7c-1.5,1.7-3.7,12.4-7.5,11c-2.4-0.9-1.7-6.2-1.7-6.2
	s-3.9,1.8-6.4,1c-3.9-1.3,2.6-6.8,2.6-6.8s-9.9,3.1-10-3.3c-0.1-3.9,6.4-6.4,19.4-5.9c12.5,0.5,32.7-9.6,32.7-9.6"/>
<path class="st2" d="M199.1,217.9c0,0,11.4,2,18.8,3.4c7.4,1.5,12.6,5,14.2,6.7c1.5,1.7,3.7,12.4,7.5,11c2.4-0.9,1.7-6.2,1.7-6.2
	s3.9,1.8,6.4,1c3.9-1.3-2.6-6.8-2.6-6.8s9.9,3.1,10-3.3c0.1-3.9-6.4-6.4-19.4-5.9c-12.5,0.5-32.7-9.5-32.7-9.5"/>
<path class="st4" d="M30.8,133.9c-8.9,2.5-21.3,5.6-14.2,11.6c8.6,7.2,24.2,12.4,24.2,12.4s7.4-21.2,5.3-27.6
	C46.2,130.4,34.1,133,30.8,133.9z"/>
<path class="st2" d="M133.3,105.8c0,0,8.4-11.3,12.9-17.3c4.4-5.9,16.9-20,17.6-19c0.7,1,3.3,6.9,2.4,17.1
	c-0.9,10.2-3.1,23.2-3.1,23.2L133.3,105.8z"/>
<path class="st5" d="M177,115.3c0,0,16-17.3,16.4-15.1c0.5,2.1,0,19.6,0,19.6s-6.2-2.5-8.4-3C182.8,116.4,177,115.3,177,115.3z"/>
<path class="st5" d="M156.6,90.2c1.3-0.7,1.6,1.2,1.7,4.4c0.1,3.3,0.1,12.2,0.1,12.2L146,104C145.9,104.1,155.3,90.9,156.6,90.2z"/>
<path class="st5" d="M147.9,129.8c0,7.3-7.4,15.3-15.8,15.3c-6.4,0-13.7-6.8-10-16.5c3.4-8.9,8.7-10.7,15.3-9.8
	C143.7,119.6,147.9,122.6,147.9,129.8z"/>
<path d="M136.8,132.8c0,1.1,0.9,2,2,2s2-0.9,2-2s-0.9-2-2-2S136.8,131.7,136.8,132.8z"/>
<path class="st6" d="M114.5,162.9c0,0,0.7,10.9,6.7,10.5s6.4-11.9,6.4-11.9"/>
<path class="st2" d="M260.7,227.2c0,3.9-1.1,10.8-4.2,12.5c-2,1.1-12.5,3.5-13.3-0.5c-0.5-2.5,4.3-4.7,4.3-4.7s-3.6-2.3-4.2-5
	c-1-4,7.2-1.4,7.2-1.4s-7.9-6.7-2.6-10.2C251.1,215.8,254.2,215.9,260.7,227.2z"/>
<path class="st5" d="M125.6,201.5c14,20.6,21,40.9,24.1,60.6h28.5c-3-46.8-24.3-72.7-63.5-82.6c-3.7-0.9-25.1-5.8-28.8-5
	C101.2,180.5,118.2,190.6,125.6,201.5z"/>
<path d="M167.3,272.3c0,0-1-38.8,11.4-56.6c5.1-7.4,23.3-13.6,23.3-13.6l-2.5-3.5c0,0-16.8,4.4-27.1,17.3
	c-10.9,13.7-13,56.3-13,56.3h7.9V272.3z"/>
<g>
	<path class="st7" d="M244.9,144.1c0,0,14-13.6,27.9-26.3c18-8.6,20.7-9.9,21.8-7.6c1.9,4,0.7,4.8,1.6,19.5
		c-4.7,18.4-10.7,37.6-10.7,37.6s-17.9,20.6-32.3,10.8C238.8,168.2,244.9,144.1,244.9,144.1z"/>
	<path class="st8" d="M273.3,117.6c4.4,4.2,9.9,7.7,16.2,10c2.4,0.9,4.8,1.5,7.2,1.9c3.8-15.1,7.6-31.4,5.8-35.3
		C301.4,91.9,286.9,105.2,273.3,117.6z"/>
	<path class="st8" d="M225.6,266.7l60.4-99.6c0,0-4.7,5.5-10.2,3.9c-5.3-1.5-2.5-11.8-2.5-11.8s-7.4,8.2-12.5,5
		c-4-2.5-2.1-12.9-2.1-12.9s-4.5,6.3-9.2,5.1c-5.1-1.2-4.2-12.7-4.2-12.7L187.6,263l5.7,3.7H225.6z"/>
</g>
</svg>
