<svg width="653" height="400" viewBox="0 0 653 400" fill="none" xmlns="http://www.w3.org/2000/svg">
<path d="M263.42 323.353C263.42 323.353 241.339 327.167 226.977 329.982C212.615 332.795 202.377 339.778 199.366 343.014C196.359 346.26 192.195 367.167 184.819 364.461C180.138 362.729 181.513 352.442 181.513 352.442C181.513 352.442 174.007 355.955 168.993 354.282C161.508 351.787 174.142 341.024 174.142 341.024C174.142 341.024 154.887 347.079 154.629 334.704C154.475 327.217 167.145 322.248 192.426 323.296C216.79 324.311 256.153 304.705 256.153 304.705" fill="#F7941E"/>
<path d="M299.382 85.1073C299.382 85.1073 262.723 74.9656 225.431 71.9795C209.886 70.7344 190.142 85.0358 167.036 96.937C149.057 106.196 96.3644 115.497 86.8051 117.235C70.3973 120.217 17.5676 132.8 17.5676 144.728C17.5676 156.659 30.9293 167.137 62.2393 182.05C93.5583 196.956 197.963 211.876 221.827 262.587C245.688 313.29 262.089 399.795 265.071 435.589C268.051 471.38 278.493 516.125 278.493 516.125C278.493 516.125 227.29 514.576 234.748 525.011C242.208 535.441 261.878 525.235 261.878 525.235C261.878 525.235 256.123 538.501 262.089 539.99C268.051 541.48 275.665 528.402 275.665 528.402C275.665 528.402 274.02 538.751 285.955 540.117C297.887 541.48 300.572 533.916 297.597 520.487C294.611 507.061 295.213 457.265 296.172 456.467C297.552 455.339 370.97 456.467 370.97 456.467L376.042 514.612C376.042 514.612 336.667 523.584 341.141 529.548C345.614 535.51 364.511 526.823 364.511 526.823C364.511 526.823 350.087 537.585 359.039 540.277C367.983 542.972 376.72 534.273 376.72 534.273C371.977 554.397 401.128 543.096 396.316 525.074V450.505C396.316 450.505 425.967 497.969 481.331 498.228C550.268 498.54 641.292 440.202 670.992 409.083C701.542 377.093 689.907 385.811 652.843 395.32C601.524 408.479 561.102 401.418 534.997 393.809C515.739 388.207 489.179 379.994 461.54 386.544C438.598 391.973 406.577 417.932 406.577 417.932C406.577 417.932 414.998 334.904 353.175 251.995C341.286 236.042 350.613 207.64 350.613 207.64C350.613 207.64 356.616 208.113 363.11 209.289C373.806 211.212 382.905 225.3 378.427 213.363C373.951 201.433 357.547 190.998 357.547 190.998C357.547 190.998 362.307 183.316 385.394 185.166C400.495 186.375 366.107 164.624 366.107 164.624C366.107 164.624 384.182 161.606 396.268 160.396C402.384 159.78 360.118 139.743 360.118 139.743C360.118 139.743 358.908 137.653 359.259 126.049C359.442 120.286 357.548 103.004 357.548 103.004C357.548 103.004 364.235 64.2301 366.107 49.3118C367.983 34.398 366.107 17.9965 366.107 17.9965C366.107 17.9965 334.609 43.0343 319.252 58.9373C308.041 70.5385 299.382 85.1073 299.382 85.1073Z" fill="#F7941E"/>
<path d="M220.506 268.432C242.845 315.911 254.603 354.558 260.586 430.222C277.09 430.558 315.301 428.88 331.072 430.222C332.35 420.01 329.855 409.298 329.855 398.6C329.855 295.249 280.388 239.666 195.519 219.276C179.916 215.531 148.425 206.356 141.408 207.864C170.529 219.234 209.882 245.841 220.506 268.432Z" fill="white"/>
<g opacity="0.8">
<g opacity="0.8">
<path opacity="0.8" d="M141.409 207.865C170.528 219.235 208.473 246.563 220.51 268.433C241.922 307.351 249.349 343.712 259.826 406.834" stroke="#D3D2C2" stroke-width="0.5" stroke-linecap="round"/>
</g>
</g>
<path d="M31.6961 129.929C14.3001 134.86 -9.76094 140.897 4.1575 152.476C20.9315 166.441 51.3909 176.686 51.3909 176.686C51.3909 176.686 57.3128 137.378 53.1407 124.881C53.1407 124.881 38.0187 128.138 31.6961 129.929Z" fill="#625558"/>
<path d="M201.661 79.0768C201.661 79.0768 214.509 54.7379 221.28 41.9639C228.058 29.1944 247.766 -1.56505 249.349 0.0621384C250.935 1.69109 257.751 12.2828 259.061 32.2017C260.384 52.1206 260.098 77.8449 260.098 77.8449L201.661 79.0768Z" fill="#F7941E"/>
<path d="M316.245 93.7691C316.245 93.7691 347.385 60.215 348.211 64.3589C349.045 68.5063 348.211 102.472 348.211 102.472C348.211 102.472 336.163 97.5044 331.83 96.6785C327.502 95.8472 316.245 93.7691 316.245 93.7691Z" fill="white"/>
<path d="M241.728 42.1678C243.937 40.4885 245.216 43.9538 246.341 50.256C247.454 56.5583 250.194 73.6217 250.194 73.6217L225.431 71.9804C225.431 71.9795 239.533 43.8452 241.728 42.1678Z" fill="white"/>
<path d="M292.422 141.023C292.422 154.634 278.575 169.711 262.595 169.711C250.604 169.711 236.85 156.899 243.787 138.666C250.146 121.94 260.12 118.501 272.573 120.176C284.461 121.771 292.422 127.408 292.422 141.023Z" fill="white"/>
<path d="M208.17 107.191C208.17 117.055 198.731 127.973 187.853 127.973C179.687 127.973 170.326 118.695 175.048 105.482C179.369 93.3729 186.491 92.0934 194.645 92.0934C202.814 92.0925 208.17 97.3226 208.17 107.191Z" fill="white"/>
<path d="M266.851 150.877C266.851 153.364 268.866 155.374 271.36 155.374C273.836 155.374 275.856 153.365 275.856 150.877C275.856 148.399 273.836 146.384 271.36 146.384C268.866 146.384 266.851 148.4 266.851 150.877Z" fill="#231F20"/>
<path d="M189.641 111.997C189.641 114.124 191.365 115.833 193.482 115.833C195.607 115.833 197.325 114.124 197.325 111.997C197.325 109.894 195.607 108.17 193.482 108.17C191.365 108.17 189.641 109.894 189.641 111.997Z" fill="#231F20"/>
<path d="M259.057 406.246C259.057 406.246 331.502 407.589 357.108 406.246C382.694 404.902 407.543 397.016 407.543 397.016C407.543 397.016 408.498 422.608 407.543 443.512C406.477 467.119 402.395 487.141 402.395 487.141C402.395 487.141 360.377 480.983 352.5 482.097L350.014 468.769L299.329 464.823V479.268H260.856L259.057 406.246Z" fill="#00A5A5"/>
<path d="M338.271 275.592C338.271 275.592 346.268 297.307 352.816 310.398C359.359 323.485 360.083 335.852 359.359 340.215C358.632 344.573 346.496 356.943 348.929 361.303C351.359 365.669 359.587 361.303 359.587 361.303C359.587 361.303 358.16 372.778 362.554 375.734C369.105 380.125 370.674 365.845 372.459 364.215C374.055 362.732 379.218 378.122 389.175 370.762C395.203 366.306 388.843 356.085 379.218 333.671C365.002 300.564 350.937 265.992 350.937 265.992" fill="#FCB22C"/>
<path d="M340.988 399.229C340.988 399.229 322.803 307.475 332.639 289.018C346.075 263.846 364.891 262.489 364.891 262.489L360.146 255.782C360.146 255.782 334.8 260.9 320.528 289.516C310.406 309.822 325.769 399.229 325.769 399.229H340.988Z" fill="#231F20"/>
<path d="M263.42 400.398C263.42 400.398 253.44 327.417 243.771 308.854C238.743 299.184 233.099 292.718 233.099 292.718L227.718 281.476C227.718 281.476 238.695 282.374 252.813 304.704C264.941 323.87 275.498 399.229 275.498 399.229L263.42 400.398Z" fill="#231F20"/>
<path d="M326.466 408.244L342.096 406.904L340.988 397.57L325.22 399.229L326.466 408.244Z" fill="#48484A"/>
<path d="M276.952 397.477H262.256V406.834H276.952V397.477Z" fill="#48484A"/>
<path d="M232.002 193.784C238.073 188.779 241.269 203.266 262.873 203.105C277.377 203 287.377 186.44 293.707 192.265C302.619 200.472 291.333 221.514 265.632 224.126C245.448 226.175 223.475 200.798 232.002 193.784Z" fill="white"/>
<path d="M260.95 199.738L263.149 224.187" stroke="#231F20" stroke-width="1.3" stroke-linecap="round"/>
<path d="M277.681 194.887L282.417 223.802" stroke="#231F20" stroke-width="1.3" stroke-linecap="round"/>
<path d="M247.451 196.847L242.731 219.985" stroke="#231F20" stroke-width="1.3" stroke-linecap="round"/>
<path d="M665.95 391.254C614.483 408.412 567.984 402.747 540.523 395.282C551.063 405.157 569.089 425.225 563.649 425.036C555.954 424.772 523.156 435.874 532.4 436.204C541.651 436.52 564.108 441.407 564.108 441.407C564.108 441.407 537.731 460.24 540.77 461.698C543.798 463.173 574.906 456.095 574.906 456.095C574.906 456.095 572.949 465.852 572.916 474.013C618.89 457.222 645.821 432.301 664.868 415.876C698.282 387.074 697.605 380.701 665.95 391.254Z" fill="white"/>
<g opacity="0.8">
<g opacity="0.8">
<path opacity="0.8" d="M573.649 474.014C621 450.638 646.557 432.302 665.599 415.877C699.013 387.074 698.336 380.701 666.683 391.254C615.219 408.415 568.716 402.747 541.259 395.284" stroke="#D3D2C2" stroke-width="0.5" stroke-linecap="round"/>
</g>
</g>
</svg>
