<svg width="236" height="201" viewBox="0 0 236 201" fill="none" xmlns="http://www.w3.org/2000/svg">
<path d="M83.2844 118.503C83.2844 118.503 55.3223 119.936 36.3258 91.2997C30.5671 78.2546 31.7474 70.3172 33.7718 66.5111C40.0377 54.731 54.9027 54.0406 50.0568 48.1214C46.9689 44.3683 38.8891 48.0712 38.8891 48.0712C38.8891 48.0712 47.3264 43.8677 44.1827 39.7946C39.502 33.6965 29.926 45.5839 29.926 45.5839C29.926 45.5839 40.3247 29.5612 28.868 33.3124C21.928 35.5767 13.6714 42.4885 13.4259 66.4543C28.868 129.257 86.8692 126.389 86.8692 126.389" fill="#F6921E"/>
<path d="M161.538 116.937C161.538 116.937 186.506 125.568 194.082 128.589C201.655 131.615 209.251 135.239 210.563 137.322C211.879 139.413 212.003 151.291 216.317 150.575C219.062 150.104 219.373 144.33 219.373 144.33C219.373 144.33 223.119 147.028 226.043 146.635C230.395 146.043 224.587 138.841 224.587 138.841C224.587 138.841 234.511 144.139 235.924 137.396C236.784 133.312 230.356 129.279 216.403 127.246C202.951 125.288 167.437 107.472 167.437 107.472" fill="#F7941E"/>
<path d="M170.775 162.735L178.725 149.092C191.912 159.476 200.839 167.57 200.839 167.57C200.839 167.57 217.055 152.238 219.983 158.752C222.922 165.273 212.916 165.316 212.916 165.316C212.916 165.316 219.952 169.556 219.002 172.846C218.052 176.131 209.627 174.901 209.627 174.901C209.627 174.901 215.206 178.806 212.515 184.934C209.814 191.066 206.232 186.386 200.602 181.181C195.428 176.392 174.583 164.44 170.775 162.735Z" fill="#F7941E"/>
<path d="M95.6647 160.527L84.0665 153.609L54.7499 163.899C54.7499 163.899 42.7468 149.968 40.6366 153.546C38.5187 157.12 47.0256 164.996 47.0256 164.996C47.0256 164.996 38.4019 159.869 38.9313 165.055C39.453 170.225 45.7836 172.877 45.7836 172.877C34.4151 174.73 46.4533 187.332 54.7032 181.014L95.6647 160.527Z" fill="#F7941E"/>
<path d="M167.47 130.81C167.47 130.81 130.087 132.889 115.872 131.429C101.666 129.961 87.6847 126.329 87.6847 126.329L67.2292 145.978C67.2292 145.978 81.7201 167.629 86.0689 168.47L118.621 161.022L139.341 159.048L173.809 173.204L192.933 145.791L167.47 130.81Z" fill="#A35625"/>
<path d="M188.441 87.3795C188.441 87.3795 187.647 85.0202 191.245 84.2143C194.85 83.4045 209.45 89.077 209.45 89.077C209.45 89.077 206.436 83.8522 202.683 78.1446C198.922 72.4487 189.512 65.5964 189.512 65.5964C189.512 65.5964 188.118 55.3454 188.075 51.4209C189.512 29.2749 184.737 13.8398 181.41 6.39421C179.705 -4.41752 176.286 3.61438 174.18 6.56162C172.082 9.50886 155.2 41.6409 155.2 41.6409C155.2 41.6409 148.714 42.5247 134.955 42.1198C121.196 41.7188 106.02 42.8128 106.02 42.8128C106.02 42.8128 82.8119 9.90208 78.389 6.39421C73.9623 2.87855 69.415 21.6011 69.4967 29.2749C69.6564 43.7619 69.4967 65.6315 69.4967 65.6315C69.4967 65.6315 63.4699 68.9369 57.9375 73.4843C52.6426 77.837 45.8877 88.5164 50.147 85.1136C54.4101 81.7031 66.7364 82.7971 66.7364 82.7971C66.7364 82.7971 62.8158 88.166 61.5933 90.0153C57.5871 96.0266 53.9624 101.824 53.9624 101.824C53.9624 101.824 58.6616 101.057 65.8059 97.2608C72.9579 93.4765 75.3056 92.6316 69.7031 100.173C64.0928 107.73 63.2947 113.29 63.2947 113.29C63.2947 113.29 66.7597 111.125 71.0151 109.373C74.9435 107.765 77.9491 111.066 77.9491 111.066C77.9491 111.066 97.186 130.759 110.24 160.718C121.92 187.555 129.419 203.303 134.947 192.32C137.918 186.414 160.227 143.965 169.804 113.839C170.474 113.383 170.264 112.196 172.187 111.32C182.204 106.741 191.899 111.689 191.899 111.689L188.811 106.702C185.724 101.715 181.41 96.7468 181.41 96.7468C181.41 96.7468 181.542 95.2285 188.523 96.5755C194.332 97.7007 199.191 101.392 199.191 101.392C199.191 101.392 198.548 96.5756 195.562 92.6199C192.572 88.6527 188.441 87.3795 188.441 87.3795Z" fill="#F7941E"/>
<path d="M168.208 71.2224C171.883 77.8566 169.205 88.9564 161.418 93.2741C155.57 96.5133 145.105 94.0138 143.855 83.2255C143.003 75.8437 144.245 70.2997 150.089 67.0526C155.932 63.8134 164.521 64.5882 168.208 71.2224Z" fill="white"/>
<path d="M155.943 74.7144C156.531 75.7811 157.871 76.1627 158.945 75.5748C160.004 74.9752 160.401 73.6359 159.81 72.573C159.229 71.5063 157.875 71.1247 156.808 71.7165C155.733 72.3083 155.352 73.6515 155.943 74.7144Z" fill="#231F20"/>
<path d="M86.1096 73.6517C83.2285 79.4722 85.9733 88.8434 92.81 92.2267C97.9258 94.7574 106.518 92.1839 107.406 82.9256C108.224 74.4265 106.098 70.611 100.97 68.0726C95.8429 65.5458 88.9867 67.8312 86.1096 73.6517Z" fill="white"/>
<path d="M95.9774 75.5864C96.5652 76.6454 97.9201 77.0348 98.9791 76.443C100.05 75.8512 100.435 74.508 99.8512 73.4412C99.2595 72.3822 97.9123 71.989 96.8417 72.5847C95.7749 73.1765 95.3934 74.5236 95.9774 75.5864Z" fill="#231F20"/>
<path d="M111.195 142.68C105.32 126.771 92.9429 115.621 79.6122 112.44C86.1608 124.003 91.4012 128.808 105.164 155.415C106.78 158.541 112.499 167.196 113.632 170.05C115.283 161.519 114.64 152.004 111.195 142.68Z" fill="white"/>
<path d="M146.087 140.721C142.789 151.101 144.381 158.697 147.29 167.632C155.255 151.264 172.148 115.617 175.119 110.237C160.601 114.893 150.579 126.553 146.087 140.721Z" fill="white"/>
<path d="M166.216 43.2351C166.216 43.2351 177.525 24.0229 177.974 26.3899C178.424 28.7568 181.651 47.7969 181.651 47.7969C181.651 47.7969 175.816 45.1135 173.728 44.697C171.636 44.2764 166.216 43.2351 166.216 43.2351Z" fill="white"/>
<path d="M78.3822 52.3426C78.3822 52.3426 79.0162 25.9352 81.3232 27.7314C83.6345 29.5224 99.0444 44.3291 99.0444 44.3291C99.0444 44.3291 90.4886 46.4854 87.8517 47.7515C85.2097 49.0183 78.3822 52.3426 78.3822 52.3426Z" fill="white"/>
<path d="M116.343 181.088C120.785 192.242 126.384 207.703 133.563 197.821C142.214 185.904 148.369 165.413 148.369 165.413C148.369 165.413 119.01 164.393 110.632 167.925C110.628 167.921 114.727 177.043 116.343 181.088Z" fill="#231F20"/>
<path d="M60.2263 18.1261C58.7825 14.3059 57.353 10.4805 55.9244 6.65448" stroke="black" stroke-linecap="round" stroke-linejoin="round"/>
<path d="M49.8352 21.4985C46.5984 18.1651 43.3743 14.8199 40.1509 11.4736" stroke="black" stroke-linecap="round" stroke-linejoin="round"/>
<path d="M48.8265 31.1864C45.0996 30.0507 41.3804 28.8997 37.6613 27.7474" stroke="black" stroke-linecap="round" stroke-linejoin="round"/>
</svg>
