<svg width="305" height="283" viewBox="0 0 305 283" fill="none" xmlns="http://www.w3.org/2000/svg">
<path d="M304.188 148.394C304.188 218.295 247.523 274.96 177.621 274.96C107.722 274.96 51.0547 218.294 51.0547 148.394C51.0547 78.4945 107.722 21.8249 177.621 21.8249C247.523 21.8249 304.188 78.4945 304.188 148.394Z" fill="#095D5B"/>
<path d="M182.56 224.1C182.56 224.1 167.257 226.743 157.304 228.693C147.349 230.643 140.255 235.481 138.167 237.725C136.083 239.976 133.197 254.465 128.086 252.59C124.84 251.389 125.795 244.261 125.795 244.261C125.795 244.261 120.592 246.694 117.117 245.535C111.931 243.806 120.686 236.345 120.686 236.345C120.686 236.345 107.34 240.542 107.161 231.965C107.055 226.778 115.836 223.333 133.358 224.061C150.242 224.764 177.523 211.176 177.523 211.176" fill="#F7941E"/>
<path d="M156.232 49.8845C182.077 51.9547 207.484 58.9848 207.484 58.9848C207.484 58.9848 213.485 48.8871 221.255 40.8471C231.898 29.8246 253.729 12.4708 253.729 12.4708C253.729 12.4708 255.029 23.8383 253.729 34.1747C252.431 44.5129 247.797 71.3845 247.797 71.3845C247.797 71.3845 249.11 83.3629 248.983 87.3573C248.738 95.4002 249.577 96.846 249.577 96.846C249.577 96.846 278.87 110.734 274.632 111.161C266.257 112 253.729 114.092 253.729 114.092C253.729 114.092 277.562 129.164 267.096 128.327C251.095 127.044 247.797 132.369 247.797 132.369C247.797 132.369 259.167 139.601 262.268 147.87C265.371 156.141 259.064 146.378 251.652 145.046C247.152 144.231 242.991 143.901 242.991 143.901C242.991 143.901 236.528 163.586 244.768 174.644C276.892 224.22 276.892 229.052 276.892 229.052C276.892 229.052 244.768 272.543 179.279 272.543C177.212 247.734 170.272 217.124 153.736 181.986C137.196 146.841 64.842 136.501 43.1353 126.17C21.4362 115.834 12.1755 108.573 12.1755 100.303C12.1755 92.0369 48.7881 83.3155 60.1615 81.2502C66.7866 80.045 103.302 73.5996 115.762 67.1823C131.775 58.9335 145.46 49.0224 156.232 49.8845Z" fill="#F7941E"/>
<path d="M152.82 186.038C168.301 218.942 172.717 222.519 176.863 274.959C188.3 275.191 224.22 267.711 229.448 262.395C229.448 269.81 230.334 255.316 229.448 262.395C218.421 189.91 194.32 166.101 135.503 151.97C124.69 149.372 102.865 143.016 98.0024 144.062C118.184 151.94 145.458 170.381 152.82 186.038Z" fill="white"/>
<g opacity="0.8">
<g opacity="0.8">
<path opacity="0.8" d="M98.002 144.062C118.184 151.94 144.48 170.88 152.822 186.038C167.661 213.008 172.808 238.208 180.069 281.955" stroke="#D3D2C2" stroke-width="0.5" stroke-linecap="round"/>
</g>
</g>
<path d="M21.9657 90.0469C9.911 93.4644 -6.76437 97.6491 2.88095 105.674C14.5065 115.351 35.617 122.451 35.617 122.451C35.617 122.451 39.7216 95.2098 36.829 86.5474C36.829 86.5474 26.3486 88.807 21.9657 90.0469Z" fill="#625558"/>
<path d="M139.758 54.8048C139.758 54.8048 148.663 37.9361 153.355 29.0833C158.052 20.2334 171.71 -1.08389 172.808 0.0430044C173.906 1.17183 178.631 8.51213 179.539 22.3171C180.456 36.1221 180.258 53.9514 180.258 53.9514L139.758 54.8048Z" fill="#F7941E"/>
<path d="M219.172 64.9865C219.172 64.9865 240.753 41.7314 241.326 44.6038C241.904 47.4771 241.326 71.0182 241.326 71.0182C241.326 71.0182 232.974 67.5747 229.973 67.0026C226.974 66.4275 219.172 64.9865 219.172 64.9865Z" fill="white"/>
<path d="M167.529 29.2244C169.059 28.0608 169.945 30.4625 170.725 34.8299C171.496 39.1974 173.395 51.0231 173.395 51.0231L156.233 49.8846C156.232 49.8846 166.006 30.3871 167.529 29.2244Z" fill="white"/>
<path d="M202.66 97.7362C202.66 107.17 193.063 117.617 181.99 117.617C173.678 117.617 164.146 108.738 168.954 96.1009C173.361 84.5101 180.274 82.1278 188.904 83.2875C197.142 84.3941 202.66 88.2986 202.66 97.7362Z" fill="white"/>
<path d="M144.269 74.2887C144.269 81.1245 137.726 88.692 130.188 88.692C124.53 88.692 118.043 82.2621 121.314 73.1048C124.308 64.712 129.246 63.8248 134.896 63.8248C140.558 63.8248 144.269 67.45 144.269 74.2887Z" fill="white"/>
<path d="M184.938 104.564C184.938 106.289 186.334 107.682 188.063 107.682C189.78 107.682 191.179 106.289 191.179 104.564C191.179 102.848 189.781 101.45 188.063 101.45C186.335 101.451 184.938 102.849 184.938 104.564Z" fill="#231F20"/>
<path d="M131.428 77.6211C131.428 79.0949 132.622 80.2789 134.089 80.2789C135.561 80.2789 136.754 79.094 136.754 77.6211C136.754 76.1627 135.562 74.9672 134.089 74.9672C132.623 74.9672 131.428 76.1627 131.428 77.6211Z" fill="#231F20"/>
<path d="M234.436 190.999C234.436 190.999 239.979 206.049 244.516 215.121C249.051 224.191 249.554 232.762 249.051 235.785C248.547 238.806 240.136 247.38 241.823 250.401C243.505 253.427 249.21 250.401 249.21 250.401C249.21 250.401 248.22 258.353 251.265 260.403C255.805 263.446 256.893 253.55 258.131 252.419C259.237 251.391 262.814 262.057 269.715 256.957C273.891 253.869 269.486 246.784 262.813 231.252C252.962 208.305 243.215 184.346 243.215 184.346" fill="#FCB22C"/>
<path d="M233.401 261.912C233.401 261.912 223.715 213.095 230.534 200.303C239.845 182.858 252.886 181.918 252.886 181.918L249.598 177.269C249.598 177.269 232.033 180.815 222.139 200.648C215.125 214.722 222.139 266.744 222.139 266.744L233.401 261.912Z" fill="#231F20"/>
<path d="M181.212 273.993C181.212 273.993 174.678 226.917 167.977 214.052C164.493 207.349 160.58 202.869 160.58 202.869L156.851 195.077C156.851 195.077 164.459 195.7 174.245 211.176C182.649 224.459 189.427 273.993 189.427 273.993H181.212Z" fill="#231F20"/>
<path d="M160.786 134.301C164.994 130.832 167.209 140.872 182.182 140.761C192.234 140.69 199.165 129.212 203.552 133.25C209.728 138.937 201.906 153.52 184.094 155.33C170.104 156.749 154.879 139.163 160.786 134.301Z" fill="white"/>
<path d="M180.849 138.428L182.373 155.372" stroke="#231F20" stroke-width="1.3" stroke-linecap="round"/>
<path d="M192.443 135.066L195.726 155.105" stroke="#231F20" stroke-width="1.3" stroke-linecap="round"/>
<path d="M171.495 136.426L168.221 152.46" stroke="#231F20" stroke-width="1.3" stroke-linecap="round"/>
</svg>
