<?xml version="1.0" encoding="utf-8"?>
<!-- Generator: Adobe Illustrator 26.5.0, SVG Export Plug-In . SVG Version: 6.00 Build 0)  -->
<svg version="1.1" id="Capa_1" xmlns="http://www.w3.org/2000/svg" xmlns:xlink="http://www.w3.org/1999/xlink" x="0px" y="0px"
	 viewBox="0 0 566 470.2" style="enable-background:new 0 0 566 470.2;" xml:space="preserve">
<style type="text/css">
	.st0{fill:#F7941E;}
	.st1{fill:#EFE5DA;}
	.st2{opacity:0.8;}
	.st3{opacity:0.8;fill:none;stroke:#D3D2C2;stroke-width:0.5;stroke-linecap:round;enable-background:new    ;}
	.st4{fill:#231F20;}
	.st5{fill:#FFFFFF;}
	.st6{fill:#00A5A5;}
	.st7{fill:#FCB22C;}
	.st8{fill:#48484A;}
	.st9{fill:none;stroke:#231F20;stroke-width:1.3;stroke-linecap:round;}
</style>
<path class="st0" d="M359.5,251.8c0,0,29.8,14.9,48.3,14.1c19.2-0.8,28.8,3,28.7,8.6c-0.2,9.4-14.8,4.8-14.8,4.8s9.6,8.2,3.9,10.1
	c-3.8,1.3-9.5-1.4-9.5-1.4s1,7.8-2.5,9.1c-5.6,2.1-8.7-13.8-11-16.3c-2.3-2.5-10-7.7-20.9-9.9c-10.9-2.1-27.6-5-27.6-5"/>
<path class="st0" d="M311.6,65.5c-11.6-12.1-35.5-31-35.5-31s-1.4,12.4,0,23.7c1.4,11.3,6.5,40.7,6.5,40.7s-1.4,13.1-1.3,17.5
	c0.3,8.8-0.7,10.4-0.7,10.4s-32,15.2-27.4,15.7c9.2,0.9,22.9,3.2,22.9,3.2s-26.1,16.5-14.6,15.6c17.5-1.4,21.1,4.4,21.1,4.4
	s-12.4,7.9-15.8,17c-3.4,9,3.5-1.6,11.6-3.1c4.9-0.9,9.5-1.3,9.5-1.3s7.1,21.5-1.9,33.6c-46.9,62.9-40.5,125.8-40.5,125.8
	s-24.3-19.7-41.7-23.8c-21-5-41.1,1.3-55.7,5.5c-19.8,5.8-50.4,11.1-89.3,1.1c-28.1-7.2-36.9-13.8-13.8,10.4
	c22.5,23.6,91.5,67.8,143.8,67.6c42-0.2,64.5-36.2,64.5-36.2v56.5c-3.6,13.7,18.5,22.2,14.9,7c0,0,6.6,6.6,13.4,4.6
	c6.8-2-4.1-10.2-4.1-10.2s14.3,6.6,17.7,2.1c3.4-4.5-26.5-11.3-26.5-11.3l3.8-44.1c0,0,55.7-0.9,56.7,0c0.7,0.6,1.2,38.4-1.1,48.5
	c-2.3,10.2-0.2,15.9,8.8,14.9c9-1,7.8-8.9,7.8-8.9s5.8,9.9,10.3,8.8c4.5-1.1,0.2-11.2,0.2-11.2s14.9,7.7,20.6-0.2
	c5.7-7.9-33.2-6.7-33.2-6.7s7.9-33.9,10.2-61.1c2.3-27.1,14.7-92.7,32.8-131.2c18.1-38.4,97.2-49.8,121-61.1
	c23.7-11.3,33.9-19.2,33.9-28.3c0-9-40.1-18.6-52.5-20.8c-7.2-1.3-47.2-8.4-60.8-15.4c-17.5-9-32.5-19.9-44.3-18.9
	c-28.3,2.3-56.1,10-56.1,10S320.1,74.3,311.6,65.5z"/>
<path class="st1" d="M446.4,178.4c-5.3-1.1-29.2,5.8-41,8.7c-64.3,15.5-101.8,57.6-101.8,135.9c0,8.1-1.9,16.2-0.9,24
	c12-1,40.9,0.3,53.4,0c4.5-57.4,13.4-86.7,30.4-122.7C394.5,207.2,424.4,187,446.4,178.4z"/>
<g class="st2">
	<g class="st2">
		<path class="st3" d="M356.7,329.2c7.9-47.9,13.6-75.4,29.8-104.9c9.1-16.6,37.9-37.3,60-45.9"/>
	</g>
</g>
<path class="st4" d="M513.4,115.5c-3.2,9.5,1.3,39.3,1.3,39.3s23.1-7.8,35.8-18.4c10.6-8.8-7.7-13.4-20.9-17.1
	C524.8,117.9,513.4,115.5,513.4,115.5z"/>
<path class="st0" d="M356.5,79.8c0,0-0.2-19.5,0.8-34.6c1-15.1,6.2-23.1,7.4-24.4c1.2-1.2,16.1,22.1,21.3,31.8
	c5.1,9.7,14.9,28.1,14.9,28.1L356.5,79.8z"/>
<path class="st5" d="M302.1,94.1c-3.3,0.6-12.4,4.4-12.4,4.4s-0.6-25.7,0-28.9c0.6-3.1,24.2,22.3,24.2,22.3S305.4,93.5,302.1,94.1z"
	/>
<path class="st5" d="M382.7,75.4L364,76.6c0,0,2.1-12.9,2.9-17.7c0.9-4.8,1.8-7.4,3.5-6.1C372.1,54,382.7,75.4,382.7,75.4z"/>
<path class="st5" d="M347,111.9c9.4-1.3,17,1.3,21.8,14c5.3,13.8-5.2,23.5-14.3,23.5c-12.1,0-22.6-11.4-22.6-21.7
	C332,117.4,338,113.1,347,111.9z"/>
<path class="st5" d="M406.1,90.6c6.2,0,11.6,1,14.9,10.2c3.6,10-3.5,17.1-9.7,17.1c-8.2,0-15.4-8.3-15.4-15.8
	C395.8,94.6,399.9,90.6,406.1,90.6z"/>
<path class="st4" d="M347.9,131.8c-1.9,0-3.4,1.5-3.4,3.4c0,1.9,1.5,3.4,3.4,3.4c1.9,0,3.4-1.5,3.4-3.4
	C351.3,133.3,349.8,131.8,347.9,131.8z"/>
<path class="st4" d="M407,102.8c-1.6,0-2.9,1.3-2.9,2.9c0,1.6,1.3,2.9,2.9,2.9c1.6,0,2.9-1.3,2.9-2.9
	C409.9,104.1,408.6,102.8,407,102.8z"/>
<path class="st6" d="M355.9,384.1h-29.2v-11l-38.4,3l-1.9,10.1c-6-0.8-37.8,3.8-37.8,3.8s-3.1-15.2-3.9-33.1
	c-0.7-15.8,0-35.2,0-35.2s18.8,6,38.2,7c19.4,1,74.3,0,74.3,0L355.9,384.1z"/>
<path class="st7" d="M287.6,222.4c0,0-10.7,26.2-21.4,51.3c-7.3,17-12.1,24.7-7.5,28.1c7.5,5.6,11.5-6.1,12.7-5
	c1.4,1.2,2.5,12.1,7.5,8.7c3.3-2.2,2.2-10.9,2.2-10.9s6.2,3.3,8.1,0c1.8-3.3-7.4-12.7-7.9-16c-0.5-3.3,0-12.7,5-22.6
	c5-9.9,11-26.4,11-26.4"/>
<path class="st4" d="M306.7,323.5c0,0,11.6-67.8,4-83.2c-10.8-21.7-30-25.6-30-25.6l-3.6,5.1c0,0,14.3,1,24.5,20.1
	c7.5,14-6.3,83.6-6.3,83.6H306.7z"/>
<path class="st4" d="M344.8,323.5c0,0,8-57.1,17.2-71.7c10.7-16.9,19-17.6,19-17.6l-4.1,8.5c0,0-4.3,4.9-8.1,12.2
	c-7.3,14.1-14.9,69.4-14.9,69.4L344.8,323.5z"/>
<path class="st8" d="M307.1,323.5l-12-1.3l-0.8,7.1l11.8,1L307.1,323.5z"/>
<path class="st8" d="M343.7,329.2h11.1v-7.1h-11.1V329.2z"/>
<path class="st5" d="M352.3,190.7c-19.5-2-28-17.9-21.3-24.2c4.8-4.4,12.4,8.1,23.4,8.2c16.4,0.1,18.8-10.9,23.4-7.1
	C384.2,173,367.6,192.3,352.3,190.7z"/>
<path class="st9" d="M354.2,190.8l1.7-18.5"/>
<path class="st9" d="M339.5,190.5l3.6-21.9"/>
<path class="st9" d="M369.6,187.6l-3.6-17.5"/>
<path class="st1" d="M49.6,336.1c14.4,12.5,34.9,31.3,69.7,44.1c0-6.2-1.5-13.6-1.5-13.6s23.6,5.4,25.9,4.2
	c2.3-1.1-17.7-15.4-17.7-15.4s17-3.7,24-3.9c7-0.3-17.9-8.7-23.7-8.5c-4.1,0.1,9.5-15.1,17.5-22.6c-20.8,5.7-56.1,10-95.1-3.1
	C24.8,309.4,24.3,314.2,49.6,336.1z"/>
<g class="st2">
	<g class="st2">
		<path class="st3" d="M143.3,320.5c-20.8,5.7-56.1,10-95.1-3.1c-24-8-24.5-3.2,0.8,18.7c14.4,12.5,33.8,26.4,69.7,44.1"/>
	</g>
</g>
</svg>
