<?xml version="1.0" encoding="utf-8"?>
<!-- Generator: Adobe Illustrator 26.5.0, SVG Export Plug-In . SVG Version: 6.00 Build 0)  -->
<svg version="1.1" id="Capa_1" xmlns="http://www.w3.org/2000/svg" xmlns:xlink="http://www.w3.org/1999/xlink" x="0px" y="0px"
	 viewBox="0 0 343 273" style="enable-background:new 0 0 343 273;" xml:space="preserve">
<style type="text/css">
	.st0{fill:#2BB673;}
	.st1{fill:#037875;}
	.st2{fill:#F7941E;}
	.st3{fill:#FFFFFF;}
	.st4{fill:#48484A;}
	.st5{opacity:0.2;}
	.st6{opacity:0.2;fill:#FFF8AC;enable-background:new    ;}
	.st7{fill:#ED1C24;}
	.st8{fill:#D6CEBE;}
	.st9{fill:#E8E2D6;}
	.st10{fill:#7F587E;}
	.st11{fill:#AF69AF;}
</style>
<g>
	<path class="st0" d="M29.4,137.4C29.4,212.9,90.5,274,166,274c75.5,0,136.6-61.2,136.6-136.6C302.6,61.9,241.5,0.7,166,0.7
		C90.5,0.7,29.4,61.9,29.4,137.4z"/>
	<path class="st1" d="M39.4,137.5C39.4,207.4,96.1,264,166,264c69.9,0,126.6-56.7,126.6-126.6c0-69.9-56.7-126.6-126.6-126.6
		C96.1,10.9,39.4,67.6,39.4,137.5z"/>
</g>
<path class="st2" d="M126.3,109.8c-9.2,11.5-14.2,19.7-30.9,50.1c-17,30.3-31.3,46.9-15.4,58.1s47.6,20.1,57.8,20.7
	c2.8,0.3,9.2-6.2,14.1-24.5c4.9-18.3,33.6-85.1,33.6-85.1L151,86.8C150.8,87.2,137.6,95.9,126.3,109.8z"/>
<path class="st3" d="M137.6,225.1c-6.8,25.3-12.1,6.4-22.8,3.6c-10.2-2.7-29.1,12.9-22.3-12.4c6.8-25.3,36.6-82.1,46.8-79.3
	C158,141.4,144.3,199.8,137.6,225.1z"/>
<path d="M94.4,203.9c0,0,18.9-49.6,20-60.8c2.6-20.4,0.6-21.9,0.6-21.9l3.6-2.7c0,0,4.5,6.3,2.3,26.8c-1.2,11.6-18.6,60.7-18.6,60.7
	L94.4,203.9z"/>
<path d="M138.2,221.1c0,0,25.1-60.3,33.5-70.5c4.3-5.3,8.7-7.8,8.7-7.8l3-6.1c0,0-4.8-1.7-16.3,9.4c-10.2,9.7-35.8,71.7-35.8,71.7
	L138.2,221.1z"/>
<path class="st4" d="M100.6,210.6l-8.2-3.1l2.1-4.5l8.1,3.5L100.6,210.6z"/>
<path class="st4" d="M138.6,219.5l-7.5-2.3l-1.4,4.7l7.5,2.3L138.6,219.5z"/>
<g class="st5">
	<g class="st5">
		<path class="st6" d="M158.6,153.5c-2.6,2.5-7.8,4.3-13.5,4.2c-5.1-0.4-9-1.9-11.2-4.4c-0.3-0.5-0.8-0.7-1.1-1.2l-5.1,91.9
			c1.2,0.8,2,1.4,2,1.4c-1,5.7,20.9,8.8,23.3,1.6l0.1-0.4L158.6,153.5z"/>
	</g>
</g>
<path class="st7" d="M142.6,206.2c-4.2-0.2-8.4-2.2-9.6-3l-0.7,16.8c0,0,4.7,3.6,9.8,4s10.1-2.4,10.1-2.4l0.7-16.8
	C150.9,205.2,146.8,206.4,142.6,206.2z"/>
<path class="st7" d="M143.7,191.3c4.2,0.2,8.3-1,9.9-1.5l0.7-13.1c0,0-5,2.8-10.1,2.4c-4.7-0.3-9.8-4-9.8-4l-0.7,13.1
	C135.3,189.1,139.6,190.7,143.7,191.3z"/>
<path class="st7" d="M143.5,195.9c-4.2-0.2-8.4-2.2-9.6-3l-0.3,6.4c1.7,0.9,6,2.5,9.6,3c4.2,0.2,8.3-1,9.9-1.5l0.3-6.4
	C151.8,194.9,147.7,196.1,143.5,195.9z"/>
<path class="st2" d="M214.6,96.4c0,0-0.8-2.5,3.1-2.8c3.4-0.5,17.4,6,17.4,6s-2.4-5.2-5.7-10.7s-11.8-12.8-11.8-12.8
	s-0.7-9.8-0.7-13.5c0.9-17.7-1.2-31.1-2.2-41.5s-4.9-3.1-7-0.5s-21.8,30-21.8,30s-6.2,0.2-19.6-1.1c-13.3-1.3-28-1.5-28-1.5
	s-23.4-27.8-27.2-31.6c-4.2-3.9-4.1,17.3-4.5,24c-0.8,13.6-4.5,25.9-4.5,25.9s-5.9,2.6-11.7,6.5C85.2,76.5,77.9,86.1,82,83
	c4.6-2.9,16.3-0.7,16.3-0.7s-4.1,4.9-5.5,6.3c-4.3,5.3-8.1,10.7-8.1,10.7S89,99.1,96.5,96c7-3.2,9.5-3.4,3.4,3.2
	c-6,6.7-7,11.9-7,11.9s3.3-1.9,7.9-2.9c4.1-1.2,6.5,2.2,6.5,2.2s17.5,19.8,27.8,48.7c9.7,26,15.5,41.3,21.9,31.6
	c3.3-5.1,27.6-43.1,38.9-70.9c0.6-0.3,0.5-1.7,2.5-2.1c9.9-3.3,19,1.8,19,1.8l-2.5-4.8c-2.5-4.8-6.4-10-6.4-10s0.3-1.3,7,0.5
	c5.8,1.5,9.9,5.4,9.9,5.4s-0.2-4.6-2.9-8.6C218.5,97.9,214.6,96.4,214.6,96.4z"/>
<path class="st3" d="M204.9,78.4c4.3,8.6,0.1,21.7-10.9,26.1c-8.1,3.4-21.5-0.8-22.4-14.6c-0.5-10.6,3.9-16.9,12-20.3
	C191.5,66.8,200.6,69.8,204.9,78.4z"/>
<path d="M181.2,97.6c1.2,1.6,3.4,2.2,5,2c1.8-0.8,2.3-2.5,1.8-3.9c-1.2-1.6-3.4-2.2-5-2C180.5,94.3,180,96,181.2,97.6z"/>
<path class="st3" d="M116.1,75.4c-4.6,7.5-1.7,21.2,6.7,26.1c6.8,3.8,17.9,1.4,20.7-11.4c1.8-11.7-0.7-17.1-6.9-20.8
	C129.8,65.5,120.7,67.8,116.1,75.4z"/>
<path d="M128.8,94.4c0.8,1.9,2.6,2.3,4,1.9c1.6-1.2,2.2-3.6,2-5.3c-0.8-1.9-2.6-2.3-4-1.9C129.3,90.4,128.7,92.7,128.8,94.4z"/>
<path class="st3" d="M136.5,142.1c-4.4-15.4-16.1-26.8-28.4-30.5c5.6,11.1,10.4,16.1,22,42.1c1.5,3.2,6.3,11.8,7.1,14.3
	C139.3,159.9,139.3,151.1,136.5,142.1z"/>
<path class="st3" d="M170.4,142.9c-4,9.5-3,16.6-0.5,25.1c8.7-14.7,27.2-46.9,30.4-51.6C186,120,175.7,130.1,170.4,142.9z"/>
<path class="st3" d="M193.8,51.8c0,0,14.6-19.1,14.9-16.7c0.3,2.4,2.2,22.2,2.2,22.2s-6.3-3.1-8.5-3.7
	C199.7,52.9,193.8,51.8,193.8,51.8z"/>
<path class="st3" d="M112.4,54.4c0,0,2.7-20.9,4.1-19.1c1.4,1.8,12.2,16.6,12.2,16.6s-6.7,0.1-8.8,0.9
	C118,53.1,112.4,54.4,112.4,54.4z"/>
<path d="M141.3,179.2c3.1,9.6,7.1,23,14,15.2c8.2-9.3,14.6-26.4,14.6-26.4s-25.3-3.1-33.1-0.6C136.8,167.5,139.9,175.6,141.3,179.2z
	"/>
<path class="st8" d="M164.7,136.9c0,0,1.6-15.9,21.8-19c15.3-2.6,74.2-14,74.2-14l5.5,126.2c0,0-63.3,0.6-75.8,4.2
	c-12.5,4.2-16.9,1.2-16.9,1.2L164.7,136.9z"/>
<path class="st9" d="M164.9,139.9c0,0,2.2-15.8,22.4-18.9c15.3-2.6,76.4-12.5,76.4-12.5l2.4,126.9c0,0-63.3,0.6-75.9,4.8
	c-12.5,4.2-16.9,1.2-16.9,1.2L164.9,139.9z"/>
<path class="st3" d="M165.3,141.2c0,0,6.7-13.4,22-16.6c15.4-3.2,80-13.2,80-13.2v127.2c0,0-63.3,0.6-75.8,4.2
	c-12.5,4.2-16.9,1.2-16.9,1.2L165.3,141.2z"/>
<path class="st8" d="M165,134.6c0,0-2.9-13.5-20.7-14.3c-13.6-0.7-64.3-5.5-64.3-5.5l8,126c0,0,54.6-6.6,66.2-3.8
	c11,2.7,14.5-0.9,14.5-0.9L165,134.6z"/>
<path class="st9" d="M165.2,137.6c0,0-4.1-13.1-22.4-14.5c-13.6-0.7-66.9-4.1-66.9-4.1l11.3,118.6c0,0,55.3,1.2,66.3,4
	c11,2.7,14.5-0.9,14.5-0.9L165.2,137.6z"/>
<path class="st3" d="M165.3,141.2c0,0-7.2-12.4-20.7-14.3c-13.5-1.9-70.4-4-70.4-4l8.3,114.6c0,0,60.7,5.6,72.3,7.8
	c11,2.7,14.5-0.9,14.5-0.9L165.3,141.2z"/>
<path class="st10" d="M196.8,125.3c-8.7,2.4-13.2,0.5-16.2,4.9c-2.3,3.9-10,7.5-16.6,7.8s-11.8-1.1-15-3.9
	c-6.4-5.7-17.3-4.2-29.1-5.3c-21.8-1.9-49.1-3.3-49.1-3.3l7.1,119.2c0,0,12.8-1.8,38.9-0.5c26.7,1.4,40,12.2,40,12.2
	c-0.5,7.7,28.1,8.1,30.1-1.7c3-12.7,87-16.4,87-16.4L268.8,114C269.3,114.7,220.9,119.2,196.8,125.3z"/>
<path class="st2" d="M278.5,159.5c1.7,5,3.4,14.2-0.1,17.9c-2.1,2.1-14.5,9.9-17.4,4.7c-1.9-3.3,3.5-7.9,3.5-7.9s-5.8-1.4-7.7-4.7
	c-2.9-4.6,8.4-4.8,8.4-4.8s-13-5.4-7.9-11.9C261.5,148.8,265.2,147.5,278.5,159.5z"/>
<path class="st2" d="M64.9,159.3c-0.7,5.3-0.9,14.8,2.9,17.7c2.7,2.2,16.3,7.1,18.2,2c1.1-3.4-4.9-7.3-4.9-7.3s5.1-2.3,6.8-5.6
	c1.9-5.1-9.1-3.1-9.1-3.1s11.8-7.3,5.4-13C79.9,145.9,75.2,145.2,64.9,159.3z"/>
<path class="st11" d="M186.3,129.3c-2,0.4-3.5,1.1-4.8,3c-2.3,3.9-10,7.5-16.6,7.8c-6.6,0.3-11.8-1.1-15-3.9
	c-1.9-1.7-4.2-2.8-6.8-3.4v118.3c9.8,3.4,14.6,7.4,14.6,7.4c-0.4,6.9,22.3,7.9,28.6,1.1V129.3z"/>
<path class="st10" d="M180,151.6c-1.4,0.1-2.5,0.3-3.4,0.8c-1.6,1-7.1,1.9-11.8,2c-4.7,0.1-8.4-0.3-10.6-1c-1.4-0.4-3-0.7-4.9-0.9
	v30c6.9,0.9,10.4,1.9,10.4,1.9c-0.3,1.7,15.8,2,20.3,0.3V151.6z"/>
</svg>
