<?xml version="1.0" encoding="UTF-8" standalone="no"?>
<!-- Generator: Adobe Illustrator 15.1.0, SVG Export Plug-In . SVG Version: 6.00 Build 0)  -->

<svg
   version="1.1"
   id="Capa_1"
   x="0px"
   y="0px"
   width="1024"
   height="600"
   viewBox="-123.305 123.305 1024 600"
   enable-background="new -123.305 123.305 841.891 595.281"
   xml:space="preserve"
   sodipodi:docname="Zorrito01.svg"
   inkscape:version="1.2.1 (9c6d41e410, 2022-07-14)"
   xmlns:inkscape="http://www.inkscape.org/namespaces/inkscape"
   xmlns:sodipodi="http://sodipodi.sourceforge.net/DTD/sodipodi-0.dtd"
   xmlns="http://www.w3.org/2000/svg"
   xmlns:svg="http://www.w3.org/2000/svg"><defs
   id="defs67" /><sodipodi:namedview
   id="namedview65"
   pagecolor="#ffffff"
   bordercolor="#000000"
   borderopacity="0.25"
   inkscape:showpageshadow="2"
   inkscape:pageopacity="0.0"
   inkscape:pagecheckerboard="0"
   inkscape:deskcolor="#d1d1d1"
   showgrid="false"
   inkscape:zoom="0.8626178"
   inkscape:cx="420.81209"
   inkscape:cy="299.66922"
   inkscape:window-width="1920"
   inkscape:window-height="1018"
   inkscape:window-x="-8"
   inkscape:window-y="-8"
   inkscape:window-maximized="1"
   inkscape:current-layer="Capa_1" />
<g
   id="g58"
   transform="matrix(1.2032959,0,0,1.2517804,99.74503,-174.84162)">
	<path
   fill="#f7941e"
   d="m 164.922,549.404 c 0,0 23.71,11.825 38.432,11.222 15.263,-0.663 22.925,2.353 22.805,6.877 -0.121,7.481 -11.765,3.802 -11.765,3.802 0,0 7.602,6.516 3.077,8.023 -3.017,1.025 -7.542,-1.086 -7.542,-1.086 0,0 0.845,6.214 -1.99,7.24 -4.404,1.689 -6.938,-10.979 -8.749,-12.911 -1.81,-1.931 -7.963,-6.153 -16.65,-7.843 -8.628,-1.689 -21.961,-3.982 -21.961,-3.982"
   id="path2" />
	<path
   fill="#f7941e"
   d="m 126.915,401.171 c -9.292,-9.593 -28.296,-24.676 -28.296,-24.676 0,0 -1.146,9.895 0,18.884 1.146,8.989 5.188,32.397 5.188,32.397 0,0 -1.146,10.377 -1.025,13.877 0.181,6.998 -0.543,8.265 -0.543,8.265 0,0 -25.46,12.127 -21.779,12.489 7.301,0.724 18.22,2.533 18.22,2.533 0,0 -20.754,13.093 -11.645,12.368 13.877,-1.146 16.772,3.5 16.772,3.5 0,0 -9.895,6.334 -12.609,13.514 -2.714,7.179 2.775,-1.327 9.23,-2.474 3.922,-0.664 7.541,-0.966 7.541,-0.966 0,0 5.611,17.134 -1.567,26.787 -37.285,50.015 -32.217,100.09 -32.217,100.09 0,0 -19.367,-15.687 -33.183,-18.944 -16.712,-3.921 -32.7,1.025 -44.344,4.404 -15.746,4.585 -40.119,8.869 -71.069,0.904 -22.323,-5.73 -29.383,-10.979 -10.92,8.326 17.918,18.763 72.879,53.936 114.447,53.755 33.364,-0.12 51.282,-28.777 51.282,-28.777 v 45.006 c -2.896,10.86 14.66,17.679 11.824,5.552 0,0 5.31,5.248 10.68,3.619 5.369,-1.628 -3.318,-8.145 -3.318,-8.145 0,0 11.401,5.249 14.118,1.629 2.714,-3.56 -21.057,-8.989 -21.057,-8.989 l 3.077,-35.053 c 0,0 44.283,-0.664 45.127,0 0.604,0.482 0.966,30.528 -0.844,38.612 -1.811,8.085 -0.181,12.67 6.998,11.825 7.179,-0.845 6.214,-7.059 6.214,-7.059 0,0 4.585,7.903 8.205,6.997 3.619,-0.904 0.12,-8.928 0.12,-8.928 0,0 11.825,6.153 16.35,-0.121 4.525,-6.274 -26.364,-5.37 -26.364,-5.37 0,0 6.274,-26.968 8.085,-48.566 1.749,-21.599 11.643,-73.784 26.063,-104.372 14.358,-30.589 77.345,-39.577 96.229,-48.566 18.883,-8.989 26.968,-15.324 26.968,-22.504 0,-7.18 -31.855,-14.78 -41.749,-16.591 -5.731,-1.025 -37.526,-6.637 -48.386,-12.248 -13.937,-7.179 -25.882,-15.806 -35.233,-15.082 -22.504,1.81 -44.645,7.903 -44.645,7.903 0,0 -5.189,-8.807 -11.945,-15.805 z"
   id="path4" />
	<path
   fill="#efe5da"
   d="m 234.123,491.064 c -4.224,-0.905 -23.228,4.645 -32.64,6.877 -51.161,12.308 -81.024,45.792 -81.024,108.174 0,6.456 -1.509,12.911 -0.724,19.064 9.532,-0.783 32.579,0.182 42.533,0 3.62,-45.67 10.738,-68.958 24.192,-97.615 6.396,-13.634 30.166,-29.682 47.663,-36.5 z"
   id="path6" />
	<g
   opacity="0.8"
   id="g12">
		<g
   opacity="0.8"
   id="g10">
			<path
   opacity="0.8"
   fill="none"
   stroke="#d3d2c2"
   stroke-width="0.5"
   stroke-linecap="round"
   enable-background="new    "
   d="m 162.75,611.123 c 6.335,-38.069 10.799,-60.029 23.71,-83.498 7.239,-13.213 30.166,-29.684 47.723,-36.561"
   id="path8" />
		</g>
	</g>
	<path
   fill="#231f20"
   d="m 287.456,440.929 c -2.534,7.542 1.025,31.252 1.025,31.252 0,0 18.341,-6.154 28.476,-14.601 8.446,-6.938 -6.094,-10.618 -16.591,-13.574 -3.801,-1.086 -12.91,-3.017 -12.91,-3.077 z"
   id="path14" />
	<path
   fill="#f7941e"
   d="m 162.57,412.573 c 0,0 -0.181,-15.505 0.603,-27.511 0.784,-12.006 4.888,-18.401 5.853,-19.366 0.965,-0.966 12.851,17.556 16.953,25.279 4.103,7.722 11.825,22.382 11.825,22.382 z"
   id="path16" />
	<path
   fill="#ffffff"
   d="m 119.312,423.976 c -2.654,0.483 -9.894,3.499 -9.894,3.499 0,0 -0.483,-20.512 0,-22.985 0.543,-2.534 19.306,17.737 19.306,17.737 0,0 -6.817,1.206 -9.412,1.749 z"
   id="path18" />
	<path
   fill="#ffffff"
   d="m 183.504,409.074 -14.962,1.026 c 0,0 1.689,-10.317 2.353,-14.118 0.664,-3.801 1.448,-5.913 2.775,-4.887 1.328,0.966 9.834,17.979 9.834,17.979 z"
   id="path20" />
	<path
   fill="#ffffff"
   d="m 155.028,438.153 c 7.542,-1.025 13.515,1.086 17.375,11.161 4.164,10.98 -4.103,18.703 -11.342,18.703 -9.652,0 -17.979,-9.11 -17.979,-17.314 0.001,-8.206 4.767,-11.584 11.946,-12.55 z"
   id="path22" />
	<path
   fill="#ffffff"
   d="m 202.026,421.2 c 4.947,0 9.23,0.784 11.825,8.085 2.835,7.964 -2.775,13.574 -7.723,13.574 -6.576,0 -12.247,-6.576 -12.247,-12.549 0,-5.973 3.258,-9.11 8.145,-9.11 z"
   id="path24" />
	<path
   fill="#231f20"
   d="m 155.752,453.961 c -1.509,0 -2.715,1.206 -2.715,2.715 0,1.508 1.206,2.714 2.715,2.714 1.508,0 2.715,-1.206 2.715,-2.714 0,-1.509 -1.207,-2.715 -2.715,-2.715 z"
   id="path26" />
	<path
   fill="#231f20"
   d="m 202.81,430.914 c -1.267,0 -2.292,1.025 -2.292,2.293 0,1.267 1.025,2.292 2.292,2.292 1.268,0 2.293,-1.025 2.293,-2.292 0,-1.268 -1.086,-2.293 -2.293,-2.293 z"
   id="path28" />
	<path
   fill="#00a5a5"
   d="M 162.086,654.803 H 138.86 v -8.688 l -30.588,2.354 -1.508,8.024 c -4.767,-0.724 -30.106,3.017 -30.106,3.017 0,0 -2.412,-12.066 -3.077,-26.305 -0.604,-12.609 0,-28.054 0,-28.054 0,0 14.962,4.766 30.408,5.55 15.504,0.785 59.184,0 59.184,0 z"
   id="path30" />
	<path
   fill="#fcb22c"
   d="m 107.789,526.116 c 0,0 -8.507,20.875 -17.072,40.784 -5.853,13.514 -9.653,19.668 -6.034,22.383 5.973,4.465 9.11,-4.827 10.075,-3.922 1.086,0.966 1.991,9.593 5.974,6.938 2.654,-1.749 1.81,-8.687 1.81,-8.687 0,0 5.008,2.655 6.456,0 1.508,-2.655 -5.853,-10.075 -6.275,-12.73 -0.482,-2.594 0,-10.075 3.922,-17.979 3.921,-7.903 8.747,-20.995 8.747,-20.995"
   id="path32" />
	<path
   fill="#231f20"
   d="m 122.872,606.478 c 0,0 9.231,-53.937 3.138,-66.183 -8.627,-17.255 -23.892,-20.333 -23.892,-20.333 l -2.836,4.044 c 0,0 11.404,0.783 19.487,15.986 5.974,11.102 -5.008,66.485 -5.008,66.485 h 9.111 z"
   id="path34" />
	<path
   fill="#231f20"
   d="m 153.279,606.538 c 0,0 6.396,-45.43 13.695,-57.014 8.506,-13.454 15.143,-13.997 15.143,-13.997 l -3.258,6.758 c 0,0 -3.438,3.861 -6.456,9.713 -5.791,11.161 -11.824,55.204 -11.824,55.204 z"
   id="path36" />
	<path
   fill="#48484a"
   d="m 123.294,606.538 -9.533,-1.025 -0.663,5.61 9.412,0.784 z"
   id="path38" />
	<path
   fill="#48484a"
   d="m 152.374,611.123 h 8.869 v -5.671 h -8.869 z"
   id="path40" />
	<path
   fill="#ffffff"
   d="m 159.251,500.897 c -15.505,-1.629 -22.322,-14.298 -16.953,-19.245 3.802,-3.559 9.834,6.456 18.582,6.517 13.031,0.12 14.962,-8.629 18.642,-5.611 5.128,4.222 -8.083,19.546 -20.271,18.339 z"
   id="path42" />
	<path
   fill="none"
   stroke="#231f20"
   stroke-width="1.3"
   stroke-linecap="round"
   d="m 160.7,500.838 1.327,-14.721"
   id="path44" />
	<path
   fill="none"
   stroke="#231f20"
   stroke-width="1.3"
   stroke-linecap="round"
   d="m 149.116,500.657 2.835,-17.436"
   id="path46" />
	<path
   fill="none"
   stroke="#231f20"
   stroke-width="1.3"
   stroke-linecap="round"
   d="M 173.006,498.304 170.17,484.367"
   id="path48" />
	<path
   fill="#efe5da"
   d="m -81.711,616.613 c 11.523,9.894 27.754,24.916 55.505,35.053 0,-4.887 -1.207,-10.8 -1.207,-10.8 0,0 18.764,4.284 20.573,3.379 1.87,-0.906 -14.057,-12.248 -14.057,-12.248 0,0 13.514,-2.955 19.125,-3.136 5.611,-0.243 -14.179,-6.939 -18.824,-6.758 -3.317,0.061 7.602,-12.007 13.937,-17.979 -16.53,4.525 -44.584,7.965 -75.654,-2.413 -19.066,-6.395 -19.487,-2.533 0.602,14.902 z"
   id="path50" />
	<g
   opacity="0.8"
   id="g56">
		<g
   opacity="0.8"
   id="g54">
			<path
   opacity="0.8"
   fill="none"
   stroke="#d3d2c2"
   stroke-width="0.5"
   stroke-linecap="round"
   enable-background="new    "
   d="m -7.081,604.124 c -16.531,4.525 -44.586,7.965 -75.655,-2.413 -19.064,-6.395 -19.487,-2.533 0.663,14.843 11.522,9.894 26.907,20.935 55.505,35.051"
   id="path52" />
		</g>
	</g>
</g>
<path
   fill="#00a5a5"
   d="m 448.46109,160.25725 c 60.74478,-18.92566 247.94993,-15.04389 286.95958,-5.02214 81.6725,20.98109 81.91677,179.05718 17.27331,204.43828 -27.14756,10.66016 -124.55195,15.10147 -207.65877,11.8531 -1.39342,4.03574 -7.44359,13.12117 -13.71517,20.58553 -16.00503,19.02957 -36.44662,13.92606 -36.44662,13.92606 0,0 28.41101,-26.80563 27.12349,-35.64194 -40.13353,-2.37338 -74.62119,-6.73583 -92.62851,-13.27388 -42.25374,-15.34182 -46.35216,-62.32991 -47.04647,-92.47403 -1.20329,-52.44459 5.4004,-85.47031 66.13916,-104.39098 z"
   id="path60"
   style="stroke-width:1.2273" />

</svg>
