<svg xmlns="http://www.w3.org/2000/svg" viewBox="0 0 158.05 104.55"><defs><style>.cls-1{fill:#92c135;}.cls-2{fill:#92c133;}.cls-3{fill:#f3a5c2;}.cls-4{fill:#a85318;}.cls-5{fill:#814114;}.cls-6{fill:#fff;}.cls-7{fill:none;stroke:#000;stroke-linecap:round;stroke-width:0.44px;}</style></defs><title>caracol</title><g id="Layer_2" data-name="Layer 2"><g id="Layer_1-2" data-name="Layer 1"><path class="cls-1" d="M12.93,35.55l.36-8.76s-6.67.58-9-4.43c-1.68-3.66-.83-11.24,4.1-13.3S24,9,23.06,17.46c-.77,7.46-6.44,8.89-6.44,8.89L17,34.69Z"/><path class="cls-1" d="M26.31,38,32,30.78s-4.57-5.64-1.95-10.87S37.42,13,41.16,13.74s10.06,6,8.6,11.84-5,8.45-8.74,8.7a11.2,11.2,0,0,1-5.64-.77l-5.84,7Z"/><path class="cls-2" d="M156.52,79.91s3.25,10-12.23,10-85.86-4-96.11-8.72-12.72-8.24-14-16.72S38,34,23,32.24-1.73,35.49.26,59,10.75,88.14,19.48,94.14s21.71,8,55.92,9.47,34.46,1,48.67,0,29.78-3.74,32.72-9.71S156.52,79.91,156.52,79.91Z"/><path class="cls-3" d="M9.07,35.6A3.19,3.19,0,0,1,6,38.85a3.24,3.24,0,0,1,0-6.47A3.15,3.15,0,0,1,9.07,35.6Z"/><path class="cls-4" d="M56.17,23.3C71.76-.41,131.07-14.48,144.79,38c4.43,17-8.68,49.15-23.47,52.48s-48.81-1.32-54.68-3.58C51.79,81.15,39.32,49,56.17,23.3Z"/><path class="cls-5" d="M75.87,44.58C75.54,44.77,50,31.91,50,31.91L42,60.27l30.9,1.44a32,32,0,0,1,.5-9.61C73.8,50.17,75.87,44.58,75.87,44.58Z"/><path class="cls-5" d="M99.11,27.84C98.76,27.67,93.36,0,93.36,0L67.6,8.23,85.42,33.65a54.89,54.89,0,0,1,5.1-2.89C92.34,30,99.11,27.84,99.11,27.84Z"/><path class="cls-5" d="M120.47,38.11c0-.36,23.05-17.65,23.05-17.65L127.65,2,111.27,28.2a57.89,57.89,0,0,1,5.06,3.71A22.3,22.3,0,0,1,120.47,38.11Z"/><path class="cls-5" d="M118.29,62.09c.35-.14,25.42,11.62,25.42,11.62l9.09-21.28L122,50s-.55,4.43-1,5.84C120.52,57.52,118.29,62.09,118.29,62.09Z"/><path class="cls-5" d="M99.45,68.89c.25.28-3.8,26.79-3.8,26.79L119.83,98l-9.28-28.94a22.47,22.47,0,0,1-4,1A20.1,20.1,0,0,1,99.45,68.89Z"/><path class="cls-5" d="M93.22,56.67C93,56.94,72.9,62,72.9,62s2.14,6.31,3.3,9.14,4.55,8.68,4.55,8.68L96.17,65.53A18.68,18.68,0,0,1,93.8,61,23.2,23.2,0,0,1,93.22,56.67Z"/><path class="cls-5" d="M99.17,47.58c-.33-.11-14.24-13.68-14.24-13.68s-3.44,3.19-4.87,4.76a53.82,53.82,0,0,0-3.89,5.62l18.1,8a14.84,14.84,0,0,1,1.65-2.65A9,9,0,0,1,99.17,47.58Z"/><path class="cls-5" d="M106.47,47.64c-.08-.34,4-18.87,4-18.87a14.67,14.67,0,0,0-5.46-1.4,48.07,48.07,0,0,0-5.42.27l2.12,19.22h2A5.58,5.58,0,0,1,106.47,47.64Z"/><path class="cls-5" d="M108.48,52.07c.2-.17,13.5-2,13.5-2a26.69,26.69,0,0,0,.14-5.78c-.36-1.57-1.05-5.29-1.05-5.29L107.41,48.3a6.68,6.68,0,0,1,1,1.35A6,6,0,0,1,108.48,52.07Z"/><path class="cls-5" d="M103.88,56c.2.13,7.19,12.25,7.19,12.25s2.48-1.54,3.72-2.34a24.22,24.22,0,0,0,3.47-3.69l-11.37-7.32a9.53,9.53,0,0,1-1,.79A7.92,7.92,0,0,1,103.88,56Z"/><path class="cls-6" d="M45.82,24.56a6.17,6.17,0,0,1-6.59,6.17c-3.41-.22-6.17-2.7-6.17-6a6.35,6.35,0,0,1,6.17-6.31C42.65,18.42,45.82,21.23,45.82,24.56Z"/><path class="cls-6" d="M19.51,16.3a6,6,0,0,1-5,7.24C11.16,24,8,22.22,7.31,19a6.15,6.15,0,0,1,4.62-7.27C15.21,11.07,18.82,13.11,19.51,16.3Z"/><path d="M15.18,17.24a1.54,1.54,0,0,1-1.32,1.92A1.57,1.57,0,0,1,12,17.92,1.59,1.59,0,0,1,13.2,16,1.67,1.67,0,0,1,15.18,17.24Z"/><path d="M41.74,24.81A1.55,1.55,0,0,1,40,26.41a1.6,1.6,0,0,1,0-3.2A1.7,1.7,0,0,1,41.74,24.81Z"/><path class="cls-6" d="M7.8,39.43a11.63,11.63,0,0,0,8.1,7.3c6.28,1.73,9.23-2.92,9.23-2.92s-2.34,14.65-11.35,12C3.7,52.81,7.8,39.43,7.8,39.43Z"/><path class="cls-7" d="M9.79,42,6.67,51"/><path class="cls-7" d="M21.08,45.29,20,55.7"/><path class="cls-7" d="M14.91,46.2l-3,9.37"/></g></g></svg>