<svg xmlns="http://www.w3.org/2000/svg" viewBox="0 0 132 160.31"><defs><style>.cls-1{fill:#814114;}.cls-2{fill:#fff;}.cls-3{fill:#a85318;}.cls-4{fill:#f3a5c2;}.cls-5{fill:none;stroke:#000;stroke-linecap:round;stroke-width:0.5px;}</style></defs><title>conejo</title><g id="Layer_2" data-name="Layer 2"><g id="Layer_1-2" data-name="Layer 1"><path class="cls-1" d="M18.89,125.65c.52-8-4.37-9.15-5.62-11.45s-1.9-4.25-2.74-4.75c-2.94-1.72-8.39.82-10.09,9.09C-3.31,136.57,18.23,136.1,18.89,125.65Z"/><path class="cls-1" d="M52.15,102.6c-23.09,1.22-35.67,18.06-27.4,31.73s34.49,16.62,55.48,4,22.43-39.43,11.93-51.49C87,80.88,70.37,101.64,52.15,102.6Z"/><path class="cls-2" d="M48.58,97.24C25.49,98.47,12.9,115.3,21.17,129s34.49,16.63,55.49,4S99.09,93.51,88.59,81.45C83.41,75.53,66.8,96.29,48.58,97.24Z"/><path class="cls-1" d="M65.67,82.52s14.49,2,17.83,16.42c2.82,12.17,1.59,19.44-10.81,24.91-11.43,5.07-21.72-.31-35.42,5.43-11.55,4.84-25.63,1.34-30.06-4-5.12-6.11.86-19.51,6.22-27.3s13-9.81,23.43-14.29S65.67,82.52,65.67,82.52Z"/><path class="cls-1" d="M99.36,110.41c-5.06,19.78,4.57,28.44,6.87,32.84.5,1,2.9,6.13,5.13,6.13,2.93,0-.07-3.88-.07-3.88s4.68,3.77,5.66.93c.41-1.18-2.68-3.59-2.68-3.59s4.75,1.3,4.09-1.11-6.54-3.43-6.54-3.43-4.59-4.84-5.5-10.74c-1.14-7.2,3.06-18.22-.14-20.42S99.8,108.8,99.36,110.41Z"/><path class="cls-3" d="M87.12,119.65c3.43,17.51,9.63,26.15,11.9,30.55.5,1,2.89,6.13,5.14,6.13,2.93,0-.07-3.88-.07-3.88s4.68,3.77,5.66.93c.38-1.18-2.68-3.59-2.68-3.59s4.75,1.3,4.11-1.11-6.57-3.43-6.57-3.43a50.85,50.85,0,0,1-5.5-10.74c-2.36-6.88-3.4-15-5.61-18.15S86.8,118,87.12,119.65Z"/><path class="cls-3" d="M25,158s1.54-9.2-1.48-12.93c-4.34-1.54-17.52-13.51-8.45-26.23,4.45-6.27,27.61-9.41,32,5.77,3.13,10.9-6.09,29.12-6.09,29.12s17.7-5,23.13-2.19c4.36,2.25,0,4-2,3.78-.86-.1-3.9-.89-3.9-.89s4.84,1.29,1.95,2.68a5.84,5.84,0,0,1-4.73,0s3.09.82,1.28,2.14C54,161.24,27.29,160.15,25,158Z"/><path class="cls-3" d="M131.79,90.24c-2,21-17.68,28.12-23.79,29.66-11.43,2.89-38.1,8-48.83-20-5-13.09.37-32.76.37-32.76a234.94,234.94,0,0,1-4.55-26c-1.54-13.7-2.36-23.71-.41-32.64s11.73,4.86,16.7,18.51a169.37,169.37,0,0,1,7.23,29.17,40.44,40.44,0,0,1,12-2.3,109.83,109.83,0,0,1,12.86,0S102,31.05,104,13.4c1.62-14.31,7.46-20.08,13.57-2.47,11,31.77,8.5,48.1,8.5,48.1S133.31,74.79,131.79,90.24Z"/><path class="cls-2" d="M117.72,116.75s2.89-12.88-.84-18.63c-3.36-5.18-7.79-6.79-11.61-8.15s-4.68-9.43-7.63-9.47-3,5-5.18,9.63S81.19,96.64,81.64,106c.36,7,2.16,16.65,9,18.33S117.72,116.75,117.72,116.75Z"/><path class="cls-2" d="M107.32,80.11c.86,4.79,4.43,7.65,9.09,6.81a8.69,8.69,0,0,0,6.86-10.17c-.86-4.79-3.93-6.82-8.64-6.38A8.32,8.32,0,0,0,107.32,80.11Z"/><path d="M114.68,79.5a1.42,1.42,0,0,0,2.11,0,1.62,1.62,0,0,0-.16-2.27,1.34,1.34,0,0,0-2,0A1.59,1.59,0,0,0,114.68,79.5Z"/><path class="cls-2" d="M86.32,79.36c-1.25-4.36-4.84-6.68-9.06-5.47A8.08,8.08,0,0,0,71.83,84c1.25,4.38,4.29,6,8.61,5.13A7.75,7.75,0,0,0,86.32,79.36Z"/><path d="M79.6,80.52a1.41,1.41,0,0,0-2.09.27A1.62,1.62,0,0,0,77.89,83a1.33,1.33,0,0,0,2-.25A1.56,1.56,0,0,0,79.6,80.52Z"/><path class="cls-2" d="M77.92,102a.92.92,0,0,0-1.32.16,1,1,0,0,0,.25,1.41.82.82,0,0,0,1.23-.16A1,1,0,0,0,77.92,102Z"/><path class="cls-2" d="M74.21,97a.9.9,0,0,0-1.31.16,1,1,0,0,0,.25,1.41.81.81,0,0,0,1.22-.16A1,1,0,0,0,74.21,97Z"/><path class="cls-2" d="M72.37,102a.9.9,0,0,0-1.31.16,1,1,0,0,0,.25,1.4.83.83,0,0,0,1.24-.15A1,1,0,0,0,72.37,102Z"/><path class="cls-2" d="M121.59,92a.87.87,0,0,0,.77,1.06,1,1,0,0,0,1.11-.91.81.81,0,0,0-.75-1A1,1,0,0,0,121.59,92Z"/><path class="cls-2" d="M119,97.64a.9.9,0,0,0,.78,1.07,1,1,0,0,0,1.11-.91.83.83,0,0,0-.75-1A1,1,0,0,0,119,97.64Z"/><path class="cls-2" d="M124.36,96.76a.88.88,0,0,0,.77,1.07,1,1,0,0,0,1.09-.91.82.82,0,0,0-.73-1A1,1,0,0,0,124.36,96.76Z"/><path class="cls-4" d="M72.12,58.74s-1.36-12.72-3.18-20c-1.45-5.77-6-12-6-12a40.68,40.68,0,0,0,.23,17.24c2.15,8.79,3.65,15.83,3.65,15.83Z"/><path class="cls-5" d="M100,103.5s.31,4.41-1.53,5.89c-3,2.4-5-1.37-5-1.37"/><path class="cls-5" d="M107.34,105.78s-.5,4.56-4.41,3c-2.7-1-2.61-4.52-2.75-5.34"/><path class="cls-4" d="M106,92.17c.48,3.18-4.29,11-5.52,11.61S90.55,95.4,91,94.6C92.23,92.65,105.93,91.69,106,92.17Z"/><path class="cls-4" d="M118.11,55.26s1-5.61-.23-16.56c-.82-7-4.29-16.69-4.29-16.69a45.6,45.6,0,0,0-2.12,19.65c1,7.76,1.21,12.83,1.21,12.83Z"/></g></g></svg>