<svg xmlns="http://www.w3.org/2000/svg" viewBox="0 0 125 151.11"><defs><style>.cls-1{fill:#a85318;}.cls-2,.cls-5,.cls-8{fill:none;stroke-linecap:round;}.cls-2{stroke:#fbba00;stroke-width:0.89px;}.cls-2,.cls-5{stroke-linejoin:round;}.cls-3{fill:#e30613;}.cls-4{fill:#db7a1c;}.cls-5{stroke:#000;stroke-width:0.48px;}.cls-6{fill:#fff;}.cls-7{fill:#fbba00;}.cls-8{stroke:#a85318;stroke-width:0.59px;}</style></defs><title>gallina</title><g id="Layer_2" data-name="Layer 2"><g id="Layer_1-2" data-name="Layer 1"><path class="cls-1" d="M20.88,74s-.57-4.34-1-9.47c-.64-7.3-3.86-12-7.81-13.63-1.41-.25-2,3.78-.89,6.14,1.22,2.66,5.77,10,6.41,12.23,0,0-3.66-6.66-7.69-9.59s-9-4.49-9.78-3.23,4,6.78,9,9.62a78,78,0,0,0,8.14,3.8s-8.59-3.3-13,2.39c0,0,3.2,3.71,7.62,3.84A22.88,22.88,0,0,0,20.88,74Z"/><path class="cls-2" d="M80.14,142.65,70.93,138l2.77,9.83"/><path class="cls-2" d="M65.11,145.68l-9.36-4.57,2.1,9.56"/><path class="cls-2" d="M61.65,149.59l-5.9-8.48,1.78-16.24"/><path class="cls-2" d="M78.19,146.46l-7.47-8.62.85-15.67"/><path class="cls-3" d="M103.91,51s1.3-8.59,3.46-7.88,11,9.86,11.4,11.39-1.21,1.35-2.13.55-3-2.61-3-2.61,2.69,4.49,2.41,6-1.39.13-2-.65-3.43-4.23-3.43-4.23,3.46,5.72,2.44,7.38-6.86-5.92-6.86-5.92Z"/><path class="cls-3" d="M96.25,17.86s2.59-4,5.09-5.18,3.66-6,.87-6.06a45.18,45.18,0,0,0-7.77,1s4.13-.87,5.66-4.13S95.87-2.5,90.8,6.71c-.48-7.77-4.62-8.92-6-2.78S86.2,11.7,86.2,11.7s-6.25-2.31-6.82.39,4.71,5,4.71,5Z"/><path class="cls-4" d="M20.52,72.6s-9.46,24.31,13.07,41.85,54.26,16,70.93-6.29,5.84-47.95,4-51.76-2.57-11.15-.65-14.61c7.43-2.46,17.09-8.58,17.09-8.58s-18.07-5.12-20.08-5.91c-.67-.27-2.45-12.51-16.06-13.08S72.88,24.51,71,34.38s-2,21.55-12.92,28.92C48.57,69.69,33.69,75.13,20.52,72.6Z"/><path class="cls-1" d="M44.36,79.3c2.58-1.33,8.82-6.83,12.13-10.89s9.1-5.71,15.05-1.49,7.2,14.64,4.47,21.5S63,105.07,53.93,105.07c-6.71,0-2-5.95,2.31-12.67,0,0-7.21,8.68-14.81,8.94S49.78,90.5,49.78,90.5s-8.1,6-15.47,4.88S42,87.25,42,87.25s-11.57,3.09-13.88,0S37.46,82.85,44.36,79.3Z"/><path class="cls-5" d="M83.18,25.42s4.63,2.73,6.41,2.09"/><path class="cls-5" d="M85.63,22.45s2.34,3,4.17,3.82"/><path class="cls-5" d="M89.38,20.66s.67,4,2,5.52"/><path class="cls-6" d="M93.6,36.19c-5.61.92-8-6.07-6.14-9.16s5.23-3.46,8-1.61S101.27,34.91,93.6,36.19Z"/><path d="M94.88,30.61c-.5-.05-1.21-.58-1.21-1.13a1.22,1.22,0,0,1,1.08-1.23A1.14,1.14,0,0,1,96,29.41C96,30.24,95.52,30.67,94.88,30.61Z"/><path class="cls-7" d="M104.93,27.3c4.42,1.42,20.07,5.91,20.07,5.91s-9.65,6.12-17.09,8.58C107.8,42,104.89,31,104.93,27.3Z"/><path class="cls-8" d="M96.88,69.37a14,14,0,0,1-1.38,6"/><path class="cls-8" d="M92,57.74a8.94,8.94,0,0,1-1.67,4.42"/><path class="cls-8" d="M86.52,48.07a13.05,13.05,0,0,1-1.69,5.58"/><path class="cls-8" d="M77.06,43.62a12.85,12.85,0,0,1-3,5"/><path class="cls-8" d="M84.8,66a9.57,9.57,0,0,1-3.66,5.57"/><path class="cls-8" d="M102.94,82.25a32.27,32.27,0,0,1,.14,6.28"/><path class="cls-8" d="M90.4,82.52a10.48,10.48,0,0,1-2.85,5.16"/><path class="cls-8" d="M99.8,51.71A18.87,18.87,0,0,1,101,57.28"/><path class="cls-8" d="M105.81,66.05a21.92,21.92,0,0,1,.86,5.34"/><path class="cls-8" d="M74.69,56.13c-1.42,3.07-3.39,4.31-3.94,5"/></g></g></svg>