<svg xmlns="http://www.w3.org/2000/svg" viewBox="0 0 151.98 155.89"><defs><style>.cls-1{fill:#814114;}.cls-2{fill:#db7a1c;}.cls-3{fill:#a85318;}.cls-4{fill:#fff;}.cls-5{fill:none;stroke:#000;stroke-linecap:round;stroke-linejoin:round;stroke-width:0.51px;}.cls-6{fill:#f3a5c2;}.cls-7{fill:#010202;}</style></defs><title>mono</title><g id="Layer_2" data-name="Layer 2"><g id="Layer_1-2" data-name="Layer 1"><path class="cls-1" d="M79.69,113.88s13.74,4.72,20.39-2.93,6.8-33.37,16.29-46.72,27.5-16.78,33.82-5.21-5.85,20.84-9.79,20.35-4.27-5.2-1.27-5.37,9.16-9.92.48-14-20.56,7.48-24.19,31.9S102,124.62,83.34,124,79.69,113.88,79.69,113.88Z"/><path class="cls-2" d="M29.47,129.13s-27.73-3-28.65.23,12.84,1.88,15.92,2.11c0,0-17.24,3.82-16.73,6,1,4.29,18.65-1.89,18.65-1.89S2.76,143.33,7.24,145.7c2.09,1.11,10.11-6.38,20.65-8.79C34.27,135.44,29.47,129.13,29.47,129.13Z"/><path class="cls-2" d="M90.18,129.13s27.73-3,28.65.23-12.84,1.88-15.91,2.11c0,0,17.25,3.82,16.74,6-1,4.29-18.64-1.89-18.64-1.89s15.87,7.78,11.41,10.15c-2.09,1.11-10.11-6.38-20.65-8.79C85.38,135.44,90.18,129.13,90.18,129.13Z"/><path class="cls-1" d="M29.86,77.8s-10.33-6-14.11-1.32C6.07,88.36,29,129,29,129s2.52,4.58.84,7.12c8.55-1.21,16.27-1.85,20.13-2.37s34,.9,39.3,1.11c.91-5.69,4.37-5.84,4.37-5.84s22.16-44.61,8.28-53.93c-7-4.69-21.36,10.68-21.36,10.68Z"/><path class="cls-3" d="M38.92,54.51s-13.63,24.12-9.15,46.24S40.1,129,40.1,129s5.54,9.61,21.14,8.66,24.12-17.32,25.4-23.46A83.91,83.91,0,0,0,76.92,53l-20.16,11Z"/><path class="cls-2" d="M57.91,61.61C67.57,60.78,79.43,72.68,79.84,98c.27,17.77-5.25,34-17.52,33.91-13.2-.15-19.9-6.78-23.72-32.31C34.89,74.58,49.46,62.36,57.91,61.61Z"/><path class="cls-3" d="M31.88,56.82c-10.47,44.5,8.37,81.82,8.37,81.82s3.09-.21,11-1.56c-5.12-7.06-8.9-16-11.37-34.93-1.07-8.06.45-24.93,4.33-33"/><path class="cls-3" d="M73.69,67.73c5.42,10.86,6.51,22.76,5.63,36.58-1.15,18.4-6.72,25.5-10.53,31.75,3.47,2.88,5.33,7.48,8.49,4.2,4.65-4.84,9.23-15.7,11-21.84,4.06-14,5.19-25.67-2.26-56.76"/><path class="cls-2" d="M49.2,133.2s-22.65,4.42-22.16,8,8.81-.22,11.88-1.3c0,0-10.67,7.67-9.28,9.57,2.77,3.78,12.84-6.42,12.84-6.42s-7.68,11-2.34,11.41c2.47.19,5-7.65,8.55-11.71C53.26,137.57,49.2,133.2,49.2,133.2Z"/><path class="cls-2" d="M69.92,134.44a81.53,81.53,0,0,1,16.59,4.33c5.08,2.07,10.12,3.9,7.88,6.22-2.41,2.5-12.5-3.75-12.5-3.75s9.66,7.27,7.89,10C88.29,153.52,78.05,145,78.05,145s7.76,9,4.48,10.77c-1.82,1-5.53-4.84-9.69-8.89-2.39-2.32-4.48-3.6-5.52-5.8C66.51,139.45,67.66,134.52,69.92,134.44Z"/><path class="cls-3" d="M18.53,33.81s-6.91-4.61-13.82-2-6.25,14.8,3,16.1S22.8,41.7,22.8,41.7Z"/><path class="cls-1" d="M16.16,37.26c-.36-1.06-2.18-1.9-4.27-1.51s-4.58,1.41-4.05,4.41,4.2,3.2,5.72,2.69A4.12,4.12,0,0,0,16.16,37.26Z"/><path class="cls-3" d="M95.24,43.3s6.91,3.62,12.16,1.32,11.18-6.57,7.89-14.14-16.11-5.27-18.41-1.64S95.24,43.3,95.24,43.3Z"/><path class="cls-1" d="M108.1,33.47c-.36-1.07-2.17-1.9-4.27-1.52s-4.58,1.41-4,4.42,4.2,3.2,5.72,2.68A4.11,4.11,0,0,0,108.1,33.47Z"/><path class="cls-3" d="M55.86.18C81.71-2,100,15.47,101,40.44S81.07,81,59.31,82.17,15.18,69.25,15.18,41.91,34.74,2,55.86.18Z"/><path class="cls-2" d="M57.25,20.05s5.46-9.72,14.89-9.21,22,14.61,20,31.48S77.6,76.93,58.21,77.44s-34-14.95-34.67-34.25C22.77,21.1,42.93-3.42,57.25,20.05Z"/><path class="cls-4" d="M41.25,39c5.61-1.5,6.57-13.05-.2-15.06-8.49-2.51-10.53,5.84-10.53,8.28S32.54,41.25,41.25,39Z"/><path class="cls-4" d="M72.88,39A8.6,8.6,0,0,0,83,31.48c.94-6-2.81-9.53-8.1-9.53-4.91,0-8.19,5.27-8.26,8.89C66.61,34.75,69.3,38.37,72.88,39Z"/><path class="cls-5" d="M57,47.31a58.92,58.92,0,0,0-.58,15.24"/><path class="cls-6" d="M76.47,43.15a6.67,6.67,0,0,0-3.4,6.78c.67,5,5.85,7.53,9.6,5.84s6-6,4.16-9.42S81.18,41.46,76.47,43.15Z"/><path class="cls-6" d="M36.4,55.26c4-1.19,5.66-6,3-10.36s-9-4-11.67.19C25.8,48.12,26.76,58.16,36.4,55.26Z"/><path class="cls-7" d="M37.36,32.91a1.57,1.57,0,0,0,1.92-1.58A1.45,1.45,0,0,0,37.71,30a1.38,1.38,0,0,0-1.26,1.5C36.51,32.38,36.7,32.76,37.36,32.91Z"/><path class="cls-7" d="M75.68,32.12a1.61,1.61,0,0,0,.25-2.24,1.39,1.39,0,0,0-2-.1,1.65,1.65,0,0,0-.13,2.3A1.32,1.32,0,0,0,75.68,32.12Z"/><path class="cls-7" d="M54.71,45.28a2,2,0,1,1-2-2A2,2,0,0,1,54.71,45.28Z"/><path class="cls-7" d="M62.92,45.28a2,2,0,1,1-2-2A2,2,0,0,1,62.92,45.28Z"/><path class="cls-7" d="M44.12,59.48a25,25,0,0,0,12,1.92c9.54-.64,14.57-3.9,14.57-3.9S68.72,68.89,57.93,69.63C47.37,70.36,44.12,59.48,44.12,59.48Z"/></g></g></svg>