<?xml version="1.0" encoding="utf-8"?>
<!-- Generator: Adobe Illustrator 26.2.1, SVG Export Plug-In . SVG Version: 6.00 Build 0)  -->
<svg version="1.1" id="Capa_1" xmlns="http://www.w3.org/2000/svg" xmlns:xlink="http://www.w3.org/1999/xlink" x="0px" y="0px"
	 viewBox="0 0 451 266.3" style="enable-background:new 0 0 451 266.3;" xml:space="preserve">
<style type="text/css">
	.st0{opacity:0.2;fill:#1E1E1C;}
	.st1{fill:#E2CEA2;}
	.st2{fill:none;}
	.st3{fill:#9C7862;}
	.st4{fill:#BAC1BB;}
	.st5{fill:#FFFFFF;}
</style>
<g>
	<path id="path955_00000115481089759601673400000005104613766131312539_" class="st0" d="M-0.1,70.5L55.8,5.2l56,0.3l112-0.2
		l112,0.1l56,0l55.8,65.1l-0.2,65.3l-0.1,130.4l-447.8,0L0,135.9L-0.1,70.5z"/>
	<path id="path955" class="st1" d="M3.4,66.1L59.3,0.8l56,0.3l112-0.2l112,0.1l56,0l55.8,65.1l-0.2,65.3l-0.1,130.4l-447.8,0
		l0.3-130.4L3.4,66.1z"/>
	<path id="path957" class="st2" d="M3.4,66.1L59.3,0.8l56,0.3l112-0.2l112,0.1l56,0l55.8,65.1l-0.2,65.3l-0.1,130.4l-447.8,0
		l0.3-130.4L3.4,66.1"/>
	<path id="path959" class="st3" d="M251.8,0.9l-48.9,0l-0.2,44.5l48.9,0L251.8,0.9z"/>
	<path id="path961" class="st2" d="M251.8,0.9l-48.9,0l-0.2,44.5l48.9,0L251.8,0.9"/>
	<path id="path963" class="st4" d="M227.7,10.6c5.8,0.1,10.3,5.2,10.2,11.1c-0.1,6.2-4.7,10.9-10.5,10.9c-5.5-0.1-10-4.9-10-11.1
		C217.5,15.6,222.1,10.5,227.7,10.6z"/>
	<path id="path965" class="st5" d="M227.6,14.9c5.8,0.1,10.3,5.2,10.2,11.1c-0.1,6.2-4.7,10.9-10.5,10.9
		c-5.8-0.1-10.3-4.9-10.2-11.1C217.3,19.8,221.8,14.8,227.6,14.9z"/>
</g>
</svg>
