<?xml version="1.0" encoding="utf-8"?>
<!-- Generator: Adobe Illustrator 26.2.1, SVG Export Plug-In . SVG Version: 6.00 Build 0)  -->
<svg version="1.1"
	 id="svg257" inkscape:version="1.2.1 (9c6d41e410, 2022-07-14)" xmlns:inkscape="http://www.inkscape.org/namespaces/inkscape" xmlns:sodipodi="http://sodipodi.sourceforge.net/DTD/sodipodi-0.dtd" xmlns:svg="http://www.w3.org/2000/svg"
	 xmlns="http://www.w3.org/2000/svg" xmlns:xlink="http://www.w3.org/1999/xlink" x="0px" y="0px" viewBox="0 0 2429.8 1266.4"
	 style="enable-background:new 0 0 2429.8 1266.4;" xml:space="preserve">
<style type="text/css">
	.st0{fill:#E52629;}
	.st1{fill:#2A9282;}
	.st2{fill:none;}
	.st3{fill:#3A7167;}
	.st4{fill:#3BAE72;}
	.st5{fill:#4B8163;}
	.st6{fill:#E76D12;}
	.st7{fill:#EF801C;}
	.st8{fill:#FFFFFF;}
	.st9{fill:#020202;}
	.st10{fill:#359789;}
	.st11{fill:#202020;}
	.st12{fill:#F7AA1C;}
</style>
<sodipodi:namedview  bordercolor="#000000" borderopacity="0.25" id="namedview259" inkscape:current-layer="layer1" inkscape:cx="396.76207" inkscape:cy="560.71334" inkscape:deskcolor="#d1d1d1" inkscape:document-units="mm" inkscape:pagecheckerboard="0" inkscape:pageopacity="0.0" inkscape:showpageshadow="2" inkscape:window-height="2066" inkscape:window-maximized="1" inkscape:window-width="3840" inkscape:window-x="-11" inkscape:window-y="-11" inkscape:zoom="0.914906" pagecolor="#ffffff" showgrid="false">
	</sodipodi:namedview>
<g>
	<path id="path267" class="st0" d="M2036.9,647.9c40.8-353.5-289.9-549.8-537.4-622.2C1251.4-46,538.6,238.7,266,275.4
		s309.5,382-41.9,441.9c-352,60.5-187.2,338.7,60.3,396.2c246.9,57.5,467,97.9,854.2,32c8.9-1.2,8.9-1.2,8.9-1.2
		C1532.4,1077.9,1996.1,999,2036.9,647.9L2036.9,647.9z"/>
	<path id="path271" class="st1" d="M1067.6,492.5l-6.1,35.6l4.5,0.6l6.1-35.6L1067.6,492.5z"/>
	<path id="path273" class="st2" d="M1067.6,492.5l-6.1,35.6l4.5,0.6l6.1-35.6"/>
	<path id="path275" class="st1" d="M1021.3,511.5l-8.4,38l4.5,1.2l7.8-38L1021.3,511.5z"/>
	<path id="path277" class="st2" d="M1021.3,511.5l-8.4,38l4.5,1.2l7.8-38L1021.3,511.5"/>
	<path id="path279" class="st1" d="M1278.3,570.8l-6.7,38l4.5,1.2l6.7-38.6L1278.3,570.8z"/>
	<path id="path281" class="st2" d="M1278.3,570.8l-6.7,38l4.5,1.2l6.7-38.6"/>
	<path id="path283" class="st1" d="M1174.3,512.1l-6.1,40.9l4.5,0.6l6.1-40.9L1174.3,512.1z"/>
	<path id="path285" class="st2" d="M1174.3,512.1l-6.1,40.9l4.5,0.6l6.1-40.9"/>
	<path id="path287" class="st1" d="M1212.9,541.2l-2.8,27.3l4.5,0.6l2.8-27.3L1212.9,541.2z"/>
	<path id="path289" class="st2" d="M1212.9,541.2l-2.8,27.3l4.5,0.6l2.8-27.3"/>
	<path id="path291" class="st1" d="M1114,529.3l-4.5,27.3l4.5,0.6l4.5-27.3L1114,529.3z"/>
	<path id="path293" class="st2" d="M1114,529.3l-4.5,27.3l4.5,0.6l4.5-27.3"/>
	<path id="path295" class="st1" d="M1309.5,537l5.6-35.6l-4.5-0.6l-5.6,35L1309.5,537z"/>
	<path id="path297" class="st2" d="M1309.5,537l5.6-35.6l-4.5-0.6l-5.6,35"/>
	<path id="path299" class="st1" d="M1355.9,518l7.8-38l-4.5-1.2l-7.8,38L1355.9,518z"/>
	<path id="path301" class="st2" d="M1355.9,518l7.8-38l-4.5-1.2l-7.8,38"/>
	<path id="path303" class="st1" d="M1098.9,458.7l6.1-38l-4.5-1.2l-6.1,38.6L1098.9,458.7z"/>
	<path id="path305" class="st2" d="M1098.9,458.7l6.1-38l-4.5-1.2l-6.1,38.6"/>
	<path id="path307" class="st1" d="M1202.3,517.4l6.1-40.9l-4.5-0.6l-6.1,40.9L1202.3,517.4z"/>
	<path id="path309" class="st2" d="M1202.3,517.4l6.1-40.9l-4.5-0.6l-6.1,40.9"/>
	<path id="path311" class="st1" d="M1163.7,488.4l2.8-27.3l-4.5-0.6l-2.8,27.3L1163.7,488.4z"/>
	<path id="path313" class="st2" d="M1163.7,488.4l2.8-27.3l-4.5-0.6l-2.8,27.3"/>
	<path id="path315" class="st1" d="M1262.6,500.2l4.5-27.3l-3.9-0.6l-4.5,27.3L1262.6,500.2z"/>
	<path id="path317" class="st2" d="M1262.6,500.2l4.5-27.3l-3.9-0.6l-4.5,27.3"/>
	<path id="path319" class="st1" d="M984.4,483.6l5-32.6l-4.5-0.6l-5,32.6L984.4,483.6z"/>
	<path id="path321" class="st2" d="M984.4,483.6l5-32.6l-4.5-0.6l-5,32.6L984.4,483.6"/>
	<path id="path323" class="st1" d="M1031.3,467l7.3-35l-3.9-1.2l-7.8,35L1031.3,467z"/>
	<path id="path325" class="st2" d="M1031.3,467l7.3-35l-3.9-1.2l-7.8,35L1031.3,467"/>
	<path id="path327" class="st1" d="M781.6,410.1l6.1-35l-4.5-1.2l-6.1,35.6L781.6,410.1z"/>
	<path id="path329" class="st2" d="M781.6,410.1l6.1-35l-4.5-1.2l-6.1,35.6L781.6,410.1"/>
	<path id="path331" class="st1" d="M881.6,464.6l5.6-37.4l-4.5-0.6l-5.6,37.4L881.6,464.6z"/>
	<path id="path333" class="st2" d="M881.6,464.6l5.6-37.4l-4.5-0.6l-5.6,37.4L881.6,464.6"/>
	<path id="path335" class="st1" d="M844.7,438l2.2-25.5h-4.5l-2.2,24.9L844.7,438z"/>
	<path id="path337" class="st2" d="M844.7,438l2.2-25.5h-4.5l-2.2,24.9L844.7,438"/>
	<path id="path339" class="st1" d="M939.1,449.2l3.9-24.9l-4.5-0.6l-3.9,24.9L939.1,449.2z"/>
	<path id="path341" class="st2" d="M939.1,449.2l3.9-24.9l-4.5-0.6l-3.9,24.9L939.1,449.2"/>
	<path id="path343" class="st1" d="M752,440.9l-5.6,32.6l4.5,1.2l5.6-33.2L752,440.9z"/>
	<path id="path345" class="st2" d="M752,440.9l-5.6,32.6l4.5,1.2l5.6-33.2L752,440.9"/>
	<path id="path347" class="st1" d="M707.3,458.1l-7.3,35l4.5,1.2l7.3-35L707.3,458.1z"/>
	<path id="path349" class="st2" d="M707.3,458.1l-7.3,35l4.5,1.2l7.3-35L707.3,458.1"/>
	<path id="path351" class="st1" d="M954.2,514.5l-5.6,35.6l4.5,0.6l5.6-35L954.2,514.5z"/>
	<path id="path353" class="st2" d="M954.2,514.5l-5.6,35.6l4.5,0.6l5.6-35L954.2,514.5"/>
	<path id="path355" class="st1" d="M849.2,488.4l-5.6,37.4l4.5,0.6l5.6-37.4L849.2,488.4z"/>
	<path id="path357" class="st2" d="M849.2,488.4l-5.6,37.4l4.5,0.6l5.6-37.4L849.2,488.4"/>
	<path id="path359" class="st1" d="M891.7,486.6l-2.2,25.5l3.9,0.6l2.8-25.5L891.7,486.6z"/>
	<path id="path361" class="st2" d="M891.7,486.6l-2.2,25.5l3.9,0.6l2.8-25.5L891.7,486.6"/>
	<path id="path363" class="st1" d="M796.7,475.3l-3.9,24.9l4.5,1.2l3.9-25.5L796.7,475.3z"/>
	<path id="path365" class="st2" d="M796.7,475.3l-3.9,24.9l4.5,1.2l3.9-25.5L796.7,475.3"/>
	<path id="path367" class="st1" d="M1188.9,672.2l-5.6,35.6l4.5,0.6l5.6-35L1188.9,672.2z"/>
	<path id="path369" class="st2" d="M1188.9,672.2l-5.6,35.6l4.5,0.6l5.6-35"/>
	<path id="path371" class="st1" d="M1142.5,691.2l-7.8,38l4.5,1.2l7.8-38L1142.5,691.2z"/>
	<path id="path373" class="st2" d="M1142.5,691.2l-7.8,38l4.5,1.2l7.8-38"/>
	<path id="path375" class="st1" d="M1399.5,750.5l-6.1,38l4.5,1.2l6.1-38.6L1399.5,750.5z"/>
	<path id="path377" class="st2" d="M1399.5,750.5l-6.1,38l4.5,1.2l6.1-38.6"/>
	<path id="path379" class="st1" d="M1296.1,691.8l-6.1,40.9l4.5,0.6l6.1-40.3L1296.1,691.8z"/>
	<path id="path381" class="st2" d="M1296.1,691.8l-6.1,40.9l4.5,0.6l6.1-40.3"/>
	<path id="path383" class="st1" d="M1334.7,720.9l-2.8,27.3l4.5,0.6l2.8-27.3L1334.7,720.9z"/>
	<path id="path385" class="st2" d="M1334.7,720.9l-2.8,27.3l4.5,0.6l2.8-27.3"/>
	<path id="path387" class="st1" d="M1235.8,709l-4.5,27.3l4.5,1.2l4.5-27.3L1235.8,709z"/>
	<path id="path389" class="st2" d="M1235.8,709l-4.5,27.3l4.5,1.2l4.5-27.3"/>
	<path id="path391" class="st1" d="M1430.8,716.7l6.1-35.6l-4.5-0.6l-6.1,35.6L1430.8,716.7z"/>
	<path id="path393" class="st2" d="M1430.8,716.7l6.1-35.6l-4.5-0.6l-6.1,35.6"/>
	<path id="path395" class="st1" d="M1477.1,697.7l8.4-38l-4.5-0.6l-7.8,38L1477.1,697.7z"/>
	<path id="path397" class="st2" d="M1477.1,697.7l8.4-38l-4.5-0.6l-7.8,38"/>
	<path id="path399" class="st1" d="M1220.2,639l6.1-38.6l-4.5-0.6l-6.1,38.6L1220.2,639z"/>
	<path id="path401" class="st2" d="M1220.2,639l6.1-38.6l-4.5-0.6l-6.1,38.6"/>
	<path id="path403" class="st1" d="M1324.1,697.2l6.1-40.9l-4.5-0.6l-6.1,40.9L1324.1,697.2z"/>
	<path id="path405" class="st2" d="M1324.1,697.2l6.1-40.9l-4.5-0.6l-6.1,40.9"/>
	<path id="path407" class="st1" d="M1285.5,668.1l2.8-27.3l-4.5-0.6l-2.8,27.9H1285.5z"/>
	<path id="path409" class="st2" d="M1285.5,668.1l2.8-27.3l-4.5-0.6l-2.8,27.9"/>
	<path id="path411" class="st1" d="M1384.4,679.9l4.5-27.3l-4.5-0.6l-4.5,27.3L1384.4,679.9z"/>
	<path id="path413" class="st2" d="M1384.4,679.9l4.5-27.3l-4.5-0.6l-4.5,27.3"/>
	<path id="path415" class="st1" d="M1105.6,663.3l5.6-32.6l-4.5-0.6l-5.6,32.6L1105.6,663.3z"/>
	<path id="path417" class="st2" d="M1105.6,663.3l5.6-32.6l-4.5-0.6l-5.6,32.6"/>
	<path id="path419" class="st1" d="M1153.1,646.7l7.3-35l-4.5-1.2l-7.3,35L1153.1,646.7z"/>
	<path id="path421" class="st2" d="M1153.1,646.7l7.3-35l-4.5-1.2l-7.3,35"/>
	<path id="path423" class="st1" d="M903.4,590.4l5.6-35.6l-4.5-0.6l-5.6,35L903.4,590.4z"/>
	<path id="path425" class="st2" d="M903.4,590.4l5.6-35.6l-4.5-0.6l-5.6,35L903.4,590.4"/>
	<path id="path427" class="st1" d="M1002.8,645l5.6-37.4l-4.5-1.2l-5,37.4L1002.8,645z"/>
	<path id="path429" class="st2" d="M1002.8,645l5.6-37.4l-4.5-1.2l-5,37.4L1002.8,645"/>
	<path id="path431" class="st1" d="M966,617.7l2.2-24.9l-4.5-0.6l-2.2,25.5H966z"/>
	<path id="path433" class="st2" d="M966,617.7l2.2-24.9l-4.5-0.6l-2.2,25.5H966"/>
	<path id="path435" class="st1" d="M1060.9,629.5l3.9-24.9l-4.5-1.2l-3.9,25.5L1060.9,629.5z"/>
	<path id="path437" class="st2" d="M1060.9,629.5l3.9-24.9l-4.5-1.2l-3.9,25.5"/>
	<path id="path439" class="st1" d="M873.2,621.2l-5,32.6l4.5,0.6l5-32.6L873.2,621.2z"/>
	<path id="path441" class="st2" d="M873.2,621.2l-5,32.6l4.5,0.6l5-32.6L873.2,621.2"/>
	<path id="path443" class="st1" d="M829.1,637.8l-7.3,35.6l4.5,0.6l7.3-35L829.1,637.8z"/>
	<path id="path445" class="st2" d="M829.1,637.8l-7.3,35.6l4.5,0.6l7.3-35L829.1,637.8"/>
	<path id="path447" class="st1" d="M1076,694.2l-6.1,35.6l4.5,1.2l6.1-35.6L1076,694.2z"/>
	<path id="path449" class="st2" d="M1076,694.2l-6.1,35.6l4.5,1.2l6.1-35.6"/>
	<path id="path451" class="st1" d="M970.4,668.1l-5.6,37.4l4.5,1.2l5.6-37.4L970.4,668.1z"/>
	<path id="path453" class="st2" d="M970.4,668.1l-5.6,37.4l4.5,1.2l5.6-37.4L970.4,668.1"/>
	<path id="path455" class="st1" d="M1012.9,666.9l-2.2,25.5h4.5l2.2-24.9L1012.9,666.9z"/>
	<path id="path457" class="st2" d="M1012.9,666.9l-2.2,25.5h4.5l2.2-24.9L1012.9,666.9"/>
	<path id="path459" class="st1" d="M918.5,655l-3.9,25.5l4.5,0.6l3.9-24.9L918.5,655z"/>
	<path id="path461" class="st2" d="M918.5,655l-3.9,25.5l4.5,0.6l3.9-24.9L918.5,655"/>
	<path id="path463" class="st1" d="M683.3,628.9l-5.6,35l4.5,1.2l5.6-35.6L683.3,628.9z"/>
	<path id="path465" class="st2" d="M683.3,628.9l-5.6,35l4.5,1.2l5.6-35.6L683.3,628.9"/>
	<path id="path471" class="st1" d="M620.7,601.1l-2.2,25.5h4.5l2.2-24.9L620.7,601.1z"/>
	<path id="path473" class="st2" d="M620.7,601.1l-2.2,25.5h4.5l2.2-24.9L620.7,601.1"/>
	<path id="path475" class="st1" d="M712.9,597.5l5.6-32.6l-4.5-0.6l-5,32.6L712.9,597.5z"/>
	<path id="path477" class="st2" d="M712.9,597.5l5.6-32.6l-4.5-0.6l-5,32.6L712.9,597.5"/>
	<path id="path479" class="st1" d="M757.6,580.9l7.8-35l-4.5-1.2l-7.3,35L757.6,580.9z"/>
	<path id="path481" class="st2" d="M757.6,580.9l7.8-35l-4.5-1.2l-7.3,35L757.6,580.9"/>
	<path id="path483" class="st1" d="M616.2,550.1l5-37.4l-3.9-0.6l-5.6,37.4L616.2,550.1z"/>
	<path id="path485" class="st2" d="M616.2,550.1l5-37.4l-3.9-0.6l-5.6,37.4L616.2,550.1"/>
	<path id="path487" class="st1" d="M668.2,563.7l3.9-24.9l-4.5-1.2l-3.9,25.5L668.2,563.7z"/>
	<path id="path489" class="st2" d="M668.2,563.7l3.9-24.9l-4.5-1.2l-3.9,25.5L668.2,563.7"/>
	<path id="path491" class="st1" d="M1076,961.1l6.1-35l-3.9-1.2l-6.7,35L1076,961.1z"/>
	<path id="path493" class="st2" d="M1076,961.1l6.1-35l-3.9-1.2l-6.7,35"/>
	<path id="path495" class="st1" d="M1122.9,943.3l8.9-38l-4.5-1.2l-8.9,38L1122.9,943.3z"/>
	<path id="path497" class="st2" d="M1122.9,943.3l8.9-38l-4.5-1.2l-8.9,38"/>
	<path id="path499" class="st1" d="M866.5,879.2l7.3-38.6l-4.5-0.6l-6.7,38L866.5,879.2z"/>
	<path id="path501" class="st2" d="M866.5,879.2l7.3-38.6l-4.5-0.6l-6.7,38"/>
	<path id="path503" class="st1" d="M969.9,939.1l6.7-40.3l-4.5-0.6l-6.7,40.3L969.9,939.1z"/>
	<path id="path505" class="st2" d="M969.9,939.1l6.7-40.3l-4.5-0.6l-6.7,40.3"/>
	<path id="path507" class="st1" d="M931.3,910.1l3.4-27.9l-4.5-0.6l-3.4,27.9L931.3,910.1z"/>
	<path id="path509" class="st2" d="M931.3,910.1l3.4-27.9l-4.5-0.6l-3.4,27.9"/>
	<path id="path511" class="st1" d="M1030.2,923.7l5-27.3l-4.5-0.6l-5,26.7L1030.2,923.7z"/>
	<path id="path513" class="st2" d="M1030.2,923.7l5-27.3l-4.5-0.6l-5,26.7"/>
	<path id="path515" class="st1" d="M835.2,911.9l-6.7,35l4.5,1.2l6.7-35L835.2,911.9z"/>
	<path id="path517" class="st2" d="M835.2,911.9l-6.7,35l4.5,1.2l6.7-35"/>
	<path id="path519" class="st1" d="M788.3,929.7l-8.4,38l3.9,1.2l8.9-38L788.3,929.7z"/>
	<path id="path521" class="st2" d="M788.3,929.7l-8.4,38l3.9,1.2l8.9-38"/>
	<path id="path523" class="st1" d="M1044.2,994.3l-6.7,38l4.5,1.2l6.7-38.6L1044.2,994.3z"/>
	<path id="path525" class="st2" d="M1044.2,994.3l-6.7,38l4.5,1.2l6.7-38.6"/>
	<path id="path527" class="st1" d="M941.9,933.8l-7.3,40.3l4.5,0.6l6.7-40.3L941.9,933.8z"/>
	<path id="path529" class="st2" d="M941.9,933.8l-7.3,40.3l4.5,0.6l6.7-40.3"/>
	<path id="path531" class="st1" d="M979.9,963.5l-3.4,27.3l4.5,0.6l3.4-27.3L979.9,963.5z"/>
	<path id="path533" class="st2" d="M979.9,963.5l-3.4,27.3l4.5,0.6l3.4-27.3"/>
	<path id="path535" class="st1" d="M881,949.8l-5,26.7l4.5,1.2l5-27.3L881,949.8z"/>
	<path id="path537" class="st2" d="M881,949.8l-5,26.7l4.5,1.2l5-27.3"/>
	<path id="path539" class="st1" d="M1159.3,971.8l-5.6,32.6l4.5,1.2l5.6-32.6L1159.3,971.8z"/>
	<path id="path541" class="st2" d="M1159.3,971.8l-5.6,32.6l4.5,1.2l5.6-32.6"/>
	<path id="path543" class="st1" d="M1111.8,987.2l-8.4,35l4.5,1.2l8.4-35L1111.8,987.2z"/>
	<path id="path545" class="st2" d="M1111.8,987.2l-8.4,35l4.5,1.2l8.4-35"/>
	<path id="path547" class="st1" d="M1360.4,1049.5l-6.1,35l4.5,1.2l6.1-35.6L1360.4,1049.5z"/>
	<path id="path549" class="st2" d="M1360.4,1049.5l-6.1,35l4.5,1.2l6.1-35.6"/>
	<path id="path551" class="st1" d="M1261.5,992.5l-6.1,37.4l4.5,1.2l6.1-37.4L1261.5,992.5z"/>
	<path id="path553" class="st2" d="M1261.5,992.5l-6.1,37.4l4.5,1.2l6.1-37.4"/>
	<path id="path555" class="st1" d="M1298.4,1020.4l-2.8,25.5l4.5,0.6l2.8-25.5L1298.4,1020.4z"/>
	<path id="path557" class="st2" d="M1298.4,1020.4l-2.8,25.5l4.5,0.6l2.8-25.5"/>
	<path id="path559" class="st1" d="M1203.4,1006.8l-4.5,25.5l4.5,0.6l4.5-24.9L1203.4,1006.8z"/>
	<path id="path561" class="st2" d="M1203.4,1006.8l-4.5,25.5l4.5,0.6l4.5-24.9"/>
	<path id="path563" class="st1" d="M1390.5,1019.2l6.1-32.6l-4.5-1.2l-6.1,32.6L1390.5,1019.2z"/>
	<path id="path565" class="st2" d="M1390.5,1019.2l6.1-32.6l-4.5-1.2l-6.1,32.6"/>
	<path id="path567" class="st1" d="M1435.8,1003.2l7.8-35l-4.5-1.2l-7.8,35L1435.8,1003.2z"/>
	<path id="path569" class="st2" d="M1435.8,1003.2l7.8-35l-4.5-1.2l-7.8,35"/>
	<path id="path571" class="st1" d="M1189.4,941.5l6.7-35l-4.5-1.2l-6.7,35.6L1189.4,941.5z"/>
	<path id="path573" class="st2" d="M1189.4,941.5l6.7-35l-4.5-1.2l-6.7,35.6"/>
	<path id="path575" class="st1" d="M1294.5,969.4l6.1-37.4l-4.5-0.6l-6.1,37.4L1294.5,969.4z"/>
	<path id="path577" class="st2" d="M1294.5,969.4l6.1-37.4l-4.5-0.6l-6.1,37.4"/>
	<path id="path579" class="st1" d="M1252,970.6l2.8-25.5l-4.5-0.6l-2.8,25.5L1252,970.6z"/>
	<path id="path581" class="st2" d="M1252,970.6l2.8-25.5l-4.5-0.6l-2.8,25.5"/>
	<path id="path583" class="st1" d="M1346.4,983.6l4.5-24.9l-4.5-0.6l-4.5,24.9L1346.4,983.6z"/>
	<path id="path585" class="st2" d="M1346.4,983.6l4.5-24.9l-4.5-0.6l-4.5,24.9"/>
	<path id="path587" class="st1" d="M958.1,778.4l6.1-35l-4.5-0.6l-6.1,35L958.1,778.4z"/>
	<path id="path589" class="st2" d="M958.1,778.4l6.1-35l-4.5-0.6l-6.1,35"/>
	<path id="path591" class="st1" d="M1004.5,761.2l8.9-38l-4.5-1.2l-8.9,38L1004.5,761.2z"/>
	<path id="path593" class="st2" d="M1004.5,761.2l8.9-38l-4.5-1.2l-8.9,38"/>
	<path id="path595" class="st1" d="M748.6,696.6l6.7-38l-4.5-1.2l-6.7,38.6L748.6,696.6z"/>
	<path id="path597" class="st2" d="M748.6,696.6l6.7-38l-4.5-1.2l-6.7,38.6L748.6,696.6"/>
	<path id="path599" class="st1" d="M851.4,757.1l6.7-40.3l-4.5-0.6l-6.7,40.3L851.4,757.1z"/>
	<path id="path601" class="st2" d="M851.4,757.1l6.7-40.3l-4.5-0.6l-6.7,40.3"/>
	<path id="path603" class="st1" d="M813.4,727.4l2.8-27.3l-4.5-0.6l-2.8,27.3L813.4,727.4z"/>
	<path id="path605" class="st2" d="M813.4,727.4l2.8-27.3l-4.5-0.6l-2.8,27.3"/>
	<path id="path607" class="st1" d="M911.8,741l5-26.7l-4.5-1.2l-5,27.3L911.8,741z"/>
	<path id="path609" class="st2" d="M911.8,741l5-26.7l-4.5-1.2l-5,27.3"/>
	<path id="path611" class="st1" d="M716.8,729.8l-6.1,35l4.5,1.2l6.1-35L716.8,729.8z"/>
	<path id="path613" class="st2" d="M716.8,729.8l-6.1,35l4.5,1.2l6.1-35"/>
	<path id="path615" class="st1" d="M669.9,747.6l-8.4,38l3.9,1.2l8.9-38L669.9,747.6z"/>
	<path id="path617" class="st2" d="M669.9,747.6l-8.4,38l3.9,1.2l8.9-38"/>
	<path id="path619" class="st1" d="M926.3,811.6l-6.7,38.6l3.9,0.6l7.3-38L926.3,811.6z"/>
	<path id="path621" class="st2" d="M926.3,811.6l-6.7,38.6l3.9,0.6l7.3-38"/>
	<path id="path623" class="st1" d="M823.5,751.1l-7.3,40.9l4.5,0.6l6.7-40.3L823.5,751.1z"/>
	<path id="path625" class="st2" d="M823.5,751.1l-7.3,40.9l4.5,0.6l6.7-40.3"/>
	<path id="path627" class="st1" d="M861.5,780.8l-2.8,27.9l3.9,0.6l3.4-27.9L861.5,780.8z"/>
	<path id="path629" class="st2" d="M861.5,780.8l-2.8,27.9l3.9,0.6l3.4-27.9"/>
	<path id="path631" class="st1" d="M762.6,767.1l-4.5,27.3l3.9,0.6l5-26.7L762.6,767.1z"/>
	<path id="path633" class="st2" d="M762.6,767.1l-4.5,27.3l3.9,0.6l5-26.7"/>
	<path id="path635" class="st1" d="M1040.8,789.7l-5.6,32.6l4.5,0.6l5.6-32.6L1040.8,789.7z"/>
	<path id="path637" class="st2" d="M1040.8,789.7l-5.6,32.6l4.5,0.6l5.6-32.6"/>
	<path id="path639" class="st1" d="M993.3,805.1l-7.8,35l3.9,1.2l8.4-35L993.3,805.1z"/>
	<path id="path641" class="st2" d="M993.3,805.1l-7.8,35l3.9,1.2l8.4-35"/>
	<path id="path643" class="st1" d="M1241.9,866.8l-6.1,35.6l4.5,0.6l6.1-35L1241.9,866.8z"/>
	<path id="path645" class="st2" d="M1241.9,866.8l-6.1,35.6l4.5,0.6l6.1-35"/>
	<path id="path647" class="st1" d="M1143.1,810.4l-6.1,37.4l4.5,0.6l6.1-37.4L1143.1,810.4z"/>
	<path id="path649" class="st2" d="M1143.1,810.4l-6.1,37.4l4.5,0.6l6.1-37.4"/>
	<path id="path651" class="st1" d="M1179.9,837.7l-2.8,25.5l4.5,0.6l2.8-25.5L1179.9,837.7z"/>
	<path id="path653" class="st2" d="M1179.9,837.7l-2.8,25.5l4.5,0.6l2.8-25.5"/>
	<path id="path655" class="st1" d="M1085.5,824.7l-4.5,24.9l4.5,1.2l4.5-25.5L1085.5,824.7z"/>
	<path id="path657" class="st2" d="M1085.5,824.7l-4.5,24.9l4.5,1.2l4.5-25.5"/>
	<path id="path659" class="st1" d="M1272.7,836.5l5.6-32.6l-4.5-0.6l-5.6,32.6L1272.7,836.5z"/>
	<path id="path661" class="st2" d="M1272.7,836.5l5.6-32.6l-4.5-0.6l-5.6,32.6"/>
	<path id="path663" class="st1" d="M1317.4,820.5l7.8-35l-4.5-0.6l-7.8,34.4L1317.4,820.5z"/>
	<path id="path665" class="st2" d="M1317.4,820.5l7.8-35l-4.5-0.6l-7.8,34.4"/>
	<path id="path667" class="st1" d="M1071.6,759.4l6.1-35.6l-4.5-0.6l-6.1,35L1071.6,759.4z"/>
	<path id="path669" class="st2" d="M1071.6,759.4l6.1-35.6l-4.5-0.6l-6.1,35"/>
	<path id="path671" class="st1" d="M1176,787.3l6.1-37.4l-4.5-0.6l-6.1,37.4L1176,787.3z"/>
	<path id="path673" class="st2" d="M1176,787.3l6.1-37.4l-4.5-0.6l-6.1,37.4"/>
	<path id="path675" class="st1" d="M1133.6,788.5l2.8-25.5l-4.5-0.6l-2.8,25.5L1133.6,788.5z"/>
	<path id="path677" class="st2" d="M1133.6,788.5l2.8-25.5l-4.5-0.6l-2.8,25.5"/>
	<path id="path679" class="st1" d="M1228,801.5l4.5-24.9l-4.5-1.2l-4.5,25.5L1228,801.5z"/>
	<path id="path681" class="st2" d="M1228,801.5l4.5-24.9l-4.5-1.2l-4.5,25.5"/>
	<path id="path683" class="st1" d="M1462.6,833l6.1-35.6l-3.9-0.6l-6.7,35L1462.6,833z"/>
	<path id="path685" class="st2" d="M1462.6,833l6.1-35.6l-3.9-0.6l-6.7,35"/>
	<path id="path687" class="st1" d="M1561.5,889.3l6.1-37.4l-4.5-0.6l-6.1,37.4L1561.5,889.3z"/>
	<path id="path689" class="st2" d="M1561.5,889.3l6.1-37.4l-4.5-0.6l-6.1,37.4"/>
	<path id="path691" class="st1" d="M1524.6,862l2.8-25.5l-4.5-0.6l-2.8,25.5L1524.6,862z"/>
	<path id="path693" class="st2" d="M1524.6,862l2.8-25.5l-4.5-0.6l-2.8,25.5"/>
	<path id="path695" class="st1" d="M1432.4,863.2l-6.1,32.6l4.5,0.6l6.1-32.6L1432.4,863.2z"/>
	<path id="path697" class="st2" d="M1432.4,863.2l-6.1,32.6l4.5,0.6l6.1-32.6"/>
	<path id="path699" class="st1" d="M1387.2,879.2l-7.8,35l4.5,1.2l7.8-35L1387.2,879.2z"/>
	<path id="path701" class="st2" d="M1387.2,879.2l-7.8,35l4.5,1.2l7.8-35"/>
	<path id="path703" class="st1" d="M1528.5,912.5l-6.1,37.4l4.5,0.6l6.1-37.4L1528.5,912.5z"/>
	<path id="path705" class="st2" d="M1528.5,912.5l-6.1,37.4l4.5,0.6l6.1-37.4"/>
	<path id="path707" class="st1" d="M1476.6,898.2l-4.5,24.9l4.5,1.2l4.5-24.9L1476.6,898.2z"/>
	<path id="path709" class="st2" d="M1476.6,898.2l-4.5,24.9l4.5,1.2l4.5-24.9"/>
	<path id="path711" class="st1" d="M1388.3,132.5l-5.6,35l4.5,1.2l5.6-35.6L1388.3,132.5z"/>
	<path id="path713" class="st2" d="M1388.3,132.5l-5.6,35l4.5,1.2l5.6-35.6"/>
	<path id="path715" class="st1" d="M1341.9,151.5l-8.4,37.4l4.5,1.2l7.8-38L1341.9,151.5z"/>
	<path id="path717" class="st2" d="M1341.9,151.5l-8.4,37.4l4.5,1.2l7.8-38"/>
	<path id="path719" class="st1" d="M1598.9,210.2l-6.1,38.6l4.5,0.6l6.1-38L1598.9,210.2z"/>
	<path id="path721" class="st2" d="M1598.9,210.2l-6.1,38.6l4.5,0.6l6.1-38"/>
	<path id="path723" class="st1" d="M1495,152.1l-5.6,40.3l4.5,1.2l5.6-40.9L1495,152.1z"/>
	<path id="path725" class="st2" d="M1495,152.1l-5.6,40.3l4.5,1.2l5.6-40.9"/>
	<path id="path727" class="st1" d="M1534.1,180.5l-2.8,27.9l4.5,0.6l2.8-27.9L1534.1,180.5z"/>
	<path id="path729" class="st2" d="M1534.1,180.5l-2.8,27.9l4.5,0.6l2.8-27.9"/>
	<path id="path731" class="st1" d="M1434.7,169.3l-4.5,27.3l4.5,0.6l4.5-27.3L1434.7,169.3z"/>
	<path id="path733" class="st2" d="M1434.7,169.3l-4.5,27.3l4.5,0.6l4.5-27.3"/>
	<path id="path735" class="st1" d="M1630.2,176.4l5.6-35l-3.9-1.2l-6.1,35.6L1630.2,176.4z"/>
	<path id="path737" class="st2" d="M1630.2,176.4l5.6-35l-3.9-1.2l-6.1,35.6"/>
	<path id="path739" class="st1" d="M1676.6,158l7.8-38l-3.9-1.2l-8.4,38L1676.6,158z"/>
	<path id="path741" class="st2" d="M1676.6,158l7.8-38l-3.9-1.2l-8.4,38"/>
	<path id="path743" class="st1" d="M1275.5,154.4l-6.1,35.6l4.5,0.6l5.6-35.6L1275.5,154.4z"/>
	<path id="path745" class="st2" d="M1275.5,154.4l-6.1,35.6l4.5,0.6l5.6-35.6"/>
	<path id="path747" class="st1" d="M1169.9,128.4l-5.6,37.4l4.5,0.6l5.6-37.4L1169.9,128.4z"/>
	<path id="path749" class="st2" d="M1169.9,128.4l-5.6,37.4l4.5,0.6l5.6-37.4"/>
	<path id="path751" class="st1" d="M1275.5,420.8l6.1-35l-4.5-0.6l-6.1,35L1275.5,420.8z"/>
	<path id="path753" class="st2" d="M1275.5,420.8l6.1-35l-4.5-0.6l-6.1,35"/>
	<path id="path755" class="st1" d="M1322.4,403l8.4-38l-4.5-0.6l-8.4,38L1322.4,403z"/>
	<path id="path757" class="st2" d="M1322.4,403l8.4-38l-4.5-0.6l-8.4,38"/>
	<path id="path759" class="st1" d="M1066,338.9l7.3-38l-4.5-1.2l-7.3,38.6L1066,338.9z"/>
	<path id="path761" class="st2" d="M1066,338.9l7.3-38l-4.5-1.2l-7.3,38.6"/>
	<path id="path763" class="st1" d="M1169.3,399.4l6.7-40.9l-4.5-0.6l-6.7,40.3L1169.3,399.4z"/>
	<path id="path765" class="st2" d="M1169.3,399.4l6.7-40.9l-4.5-0.6l-6.7,40.3"/>
	<path id="path767" class="st1" d="M1130.8,369.7l3.4-27.9h-4.5l-3.4,27.3L1130.8,369.7z"/>
	<path id="path769" class="st2" d="M1130.8,369.7l3.4-27.9h-4.5l-3.4,27.3"/>
	<path id="path771" class="st1" d="M1229.7,383.4l5-26.7l-4.5-1.2l-5,27.3L1229.7,383.4z"/>
	<path id="path773" class="st2" d="M1229.7,383.4l5-26.7l-4.5-1.2l-5,27.3"/>
	<path id="path775" class="st1" d="M1034.7,371.5l-6.7,35.6l4.5,0.6l6.1-35L1034.7,371.5z"/>
	<path id="path777" class="st2" d="M1034.7,371.5l-6.7,35.6l4.5,0.6l6.1-35L1034.7,371.5"/>
	<path id="path779" class="st1" d="M987.8,389.9l-8.9,38l4.5,1.2l8.9-38L987.8,389.9z"/>
	<path id="path781" class="st2" d="M987.8,389.9l-8.9,38l4.5,1.2l8.9-38L987.8,389.9"/>
	<path id="path783" class="st1" d="M1243.6,454l-6.7,38.6l4.5,0.6l6.7-38L1243.6,454z"/>
	<path id="path785" class="st2" d="M1243.6,454l-6.7,38.6l4.5,0.6l6.7-38"/>
	<path id="path787" class="st1" d="M1140.8,393.5l-6.7,40.3l4.5,1.2l6.7-40.3L1140.8,393.5z"/>
	<path id="path789" class="st2" d="M1140.8,393.5l-6.7,40.3l4.5,1.2l6.7-40.3"/>
	<path id="path791" class="st1" d="M1179.4,423.1L1176,451l4.5,0.6l2.8-27.9L1179.4,423.1z"/>
	<path id="path793" class="st2" d="M1179.4,423.1L1176,451l4.5,0.6l2.8-27.9"/>
	<path id="path795" class="st1" d="M1080.5,409.5l-5,27.3l4.5,0.6l5-27.3L1080.5,409.5z"/>
	<path id="path797" class="st2" d="M1080.5,409.5l-5,27.3l4.5,0.6l5-27.3"/>
	<path id="path799" class="st1" d="M1358.7,432l-6.1,32.6l4.5,0.6l6.1-32.6L1358.7,432z"/>
	<path id="path801" class="st2" d="M1358.7,432l-6.1,32.6l4.5,0.6l6.1-32.6"/>
	<path id="path803" class="st1" d="M1311.2,447.4l-8.4,34.4l4.5,1.2l7.8-34.4L1311.2,447.4z"/>
	<path id="path805" class="st2" d="M1311.2,447.4l-8.4,34.4l4.5,1.2l7.8-34.4"/>
	<path id="path807" class="st1" d="M1559.8,509.1l-6.7,35l4.5,1.2l6.7-35L1559.8,509.1z"/>
	<path id="path809" class="st2" d="M1559.8,509.1l-6.7,35l4.5,1.2l6.7-35"/>
	<path id="path811" class="st1" d="M1460.9,452.8l-6.1,37.4l4.5,0.6l5.6-37.4L1460.9,452.8z"/>
	<path id="path813" class="st2" d="M1460.9,452.8l-6.1,37.4l4.5,0.6l5.6-37.4"/>
	<path id="path815" class="st1" d="M1497.3,480.1l-2.8,25.5l4.5,0.6l2.8-25.5L1497.3,480.1z"/>
	<path id="path817" class="st2" d="M1497.3,480.1l-2.8,25.5l4.5,0.6l2.8-25.5"/>
	<path id="path819" class="st1" d="M1402.8,467l-4.5,24.9l4.5,1.2l4.5-25.5L1402.8,467z"/>
	<path id="path821" class="st2" d="M1402.8,467l-4.5,24.9l4.5,1.2l4.5-25.5"/>
	<path id="path823" class="st1" d="M1590,478.9l5.6-32.6l-3.9-0.6l-6.1,32.6L1590,478.9z"/>
	<path id="path825" class="st2" d="M1590,478.9l5.6-32.6l-3.9-0.6l-6.1,32.6"/>
	<path id="path827" class="st1" d="M1634.7,462.9l8.4-35l-4.5-1.2l-8.4,35L1634.7,462.9z"/>
	<path id="path829" class="st2" d="M1634.7,462.9l8.4-35l-4.5-1.2l-8.4,35"/>
	<path id="path831" class="st1" d="M1388.9,401.2l6.1-35l-4.5-0.6l-6.1,35L1388.9,401.2z"/>
	<path id="path833" class="st2" d="M1388.9,401.2l6.1-35l-4.5-0.6l-6.1,35"/>
	<path id="path835" class="st1" d="M1493.9,429.7l5.6-37.4l-3.9-1.2l-6.1,37.4L1493.9,429.7z"/>
	<path id="path837" class="st2" d="M1493.9,429.7l5.6-37.4l-3.9-1.2l-6.1,37.4"/>
	<path id="path839" class="st1" d="M1451.4,430.8l2.8-25.5l-4.5-0.6l-2.8,25.5L1451.4,430.8z"/>
	<path id="path841" class="st2" d="M1451.4,430.8l2.8-25.5l-4.5-0.6l-2.8,25.5"/>
	<path id="path843" class="st1" d="M1545.9,443.9l4.5-24.9l-4.5-1.2l-4.5,24.9L1545.9,443.9z"/>
	<path id="path845" class="st2" d="M1545.9,443.9l4.5-24.9l-4.5-1.2l-4.5,24.9"/>
	<path id="path847" class="st1" d="M1157,238.7l6.1-35l-4.5-1.2l-6.1,35L1157,238.7z"/>
	<path id="path849" class="st2" d="M1157,238.7l6.1-35l-4.5-1.2l-6.1,35"/>
	<path id="path851" class="st1" d="M1204,220.9l8.9-38l-4.5-1.2l-8.9,38L1204,220.9z"/>
	<path id="path853" class="st2" d="M1204,220.9l8.9-38l-4.5-1.2l-8.9,38"/>
	<path id="path855" class="st1" d="M948.1,156.8l6.7-38.6l-4.5-0.6l-6.7,38L948.1,156.8z"/>
	<path id="path857" class="st2" d="M948.1,156.8l6.7-38.6l-4.5-0.6l-6.7,38L948.1,156.8"/>
	<path id="path859" class="st1" d="M1111.2,201.3l5-27.3l-4.5-1.2l-5,27.3L1111.2,201.3z"/>
	<path id="path861" class="st2" d="M1111.2,201.3l5-27.3l-4.5-1.2l-5,27.3"/>
	<path id="path863" class="st1" d="M1125.2,271.9l-6.7,38l4.5,1.2l6.7-38.6L1125.2,271.9z"/>
	<path id="path865" class="st2" d="M1125.2,271.9l-6.7,38l4.5,1.2l6.7-38.6"/>
	<path id="path867" class="st1" d="M1060.9,241l-3.4,27.3l4.5,0.6l2.8-27.3L1060.9,241z"/>
	<path id="path869" class="st2" d="M1060.9,241l-3.4,27.3l4.5,0.6l2.8-27.3"/>
	<path id="path871" class="st1" d="M1240.3,249.3l-5.6,32.6l4.5,1.2l5.6-32.6L1240.3,249.3z"/>
	<path id="path873" class="st2" d="M1240.3,249.3l-5.6,32.6l4.5,1.2l5.6-32.6"/>
	<path id="path875" class="st1" d="M1192.8,264.8l-8.4,35l4.5,1.2l8.4-35L1192.8,264.8z"/>
	<path id="path877" class="st2" d="M1192.8,264.8l-8.4,35l4.5,1.2l8.4-35"/>
	<path id="path879" class="st1" d="M1441.4,327l-6.7,35l4.5,1.2l6.7-35.6L1441.4,327z"/>
	<path id="path881" class="st2" d="M1441.4,327l-6.7,35l4.5,1.2l6.7-35.6"/>
	<path id="path883" class="st1" d="M1342.5,270.1l-6.1,37.4l4.5,1.2l6.1-37.4L1342.5,270.1z"/>
	<path id="path885" class="st2" d="M1342.5,270.1l-6.1,37.4l4.5,1.2l6.1-37.4"/>
	<path id="path887" class="st1" d="M1379.4,298l-2.8,24.9l4.5,0.6l2.8-24.9L1379.4,298z"/>
	<path id="path889" class="st2" d="M1379.4,298l-2.8,24.9l4.5,0.6l2.8-24.9"/>
	<path id="path891" class="st1" d="M1284.4,284.3l-4.5,25.5l4.5,0.6l4.5-24.9L1284.4,284.3z"/>
	<path id="path893" class="st2" d="M1284.4,284.3l-4.5,25.5l4.5,0.6l4.5-24.9"/>
	<path id="path895" class="st1" d="M1471.6,296.8l5.6-32.6l-3.9-1.2l-6.1,32.6L1471.6,296.8z"/>
	<path id="path897" class="st2" d="M1471.6,296.8l5.6-32.6l-3.9-1.2l-6.1,32.6"/>
	<path id="path899" class="st1" d="M1516.2,280.8l8.4-35l-4.5-1.2l-7.8,35L1516.2,280.8z"/>
	<path id="path901" class="st2" d="M1516.2,280.8l8.4-35l-4.5-1.2l-7.8,35"/>
	<path id="path903" class="st1" d="M1270.4,219.1l6.7-35l-4.5-1.2l-6.1,35L1270.4,219.1z"/>
	<path id="path905" class="st2" d="M1270.4,219.1l6.7-35l-4.5-1.2l-6.1,35"/>
	<path id="path907" class="st1" d="M1375.5,247l6.1-37.4l-4.5-0.6l-6.1,37.4L1375.5,247z"/>
	<path id="path909" class="st2" d="M1375.5,247l6.1-37.4l-4.5-0.6l-6.1,37.4"/>
	<path id="path911" class="st1" d="M1332.4,248.2l3.4-25.5l-4.5-0.6l-2.8,25.5L1332.4,248.2z"/>
	<path id="path913" class="st2" d="M1332.4,248.2l3.4-25.5l-4.5-0.6l-2.8,25.5"/>
	<path id="path915" class="st1" d="M1427.4,261.2l4.5-24.9l-4.5-0.6l-4.5,24.9L1427.4,261.2z"/>
	<path id="path917" class="st2" d="M1427.4,261.2l4.5-24.9l-4.5-0.6l-4.5,24.9"/>
	<path id="path919" class="st1" d="M1661.5,292.6l6.7-35l-4.5-1.2l-6.1,35.6L1661.5,292.6z"/>
	<path id="path921" class="st2" d="M1661.5,292.6l6.7-35l-4.5-1.2l-6.1,35.6"/>
	<path id="path923" class="st1" d="M1631.9,322.9l-6.1,32.6l4.5,1.2l5.6-32.6L1631.9,322.9z"/>
	<path id="path925" class="st2" d="M1631.9,322.9l-6.1,32.6l4.5,1.2l5.6-32.6"/>
	<path id="path927" class="st1" d="M1586.6,338.9l-7.8,35l3.9,1.2l8.4-35L1586.6,338.9z"/>
	<path id="path929" class="st2" d="M1586.6,338.9l-7.8,35l3.9,1.2l8.4-35"/>
	<path id="path935" class="st3" d="M826.9,671.6h-5v1.8l4.5,0.6L826.9,671.6z"/>
	<path id="path937" class="st2" d="M826.9,671.6h-5v1.8l4.5,0.6L826.9,671.6"/>
	<path id="path939" class="st3" d="M974.9,669.9l-4.5,0.6l-1.7,11.3h4.5L974.9,669.9z"/>
	<path id="path941" class="st2" d="M974.9,669.9l-4.5,0.6l-1.7,11.3h4.5L974.9,669.9"/>
	<path id="path943" class="st3" d="M1017.4,669.9h-4.5l-1.1,11.3h4.5L1017.4,669.9z"/>
	<path id="path945" class="st2" d="M1017.4,669.9h-4.5l-1.1,11.3h4.5L1017.4,669.9"/>
	<path id="path947" class="st3" d="M920.2,670.5h-4.5l-1.1,10.1l4.5,0.6L920.2,670.5z"/>
	<path id="path949" class="st2" d="M920.2,670.5h-4.5l-1.1,10.1l4.5,0.6L920.2,670.5"/>
	<path id="path951" class="st3" d="M753.1,672.2h-4.5l-2.2,11.9h4.5L753.1,672.2z"/>
	<path id="path953" class="st2" d="M753.1,672.2h-4.5l-2.2,11.9h4.5L753.1,672.2"/>
</g>
<g>
	<path id="path269" class="st4" d="M542.1,1058.3c-86.6,113.6,28.9,135.3,285,169.1c255.5,33.8,1052.1-29.4,1347.9-29.4
		c295.8-0.6,65.5-54.9,164.1-54.9c99.2,0,92-96.4,19.8-121.9c-71.5-24.9-890.4-61.3-943.9-56.8c-9,0.6-38.5,0.6-80.6,0.6
		C1130,964.5,614.2,963.8,542.1,1058.3L542.1,1058.3z"/>
	<path id="path967" class="st5" d="M1479.3,1101.7L1479.3,1101.7L1479.3,1101.7L1479.3,1101.7 M1488.3,1100.4c-0.6,0-0.6,0-0.6,0
		H1488.3 M1428.2,1092.1c-1.2,0-1.8,0-1.8,0.6l0,0c0,0,0,0,0.6,0C1427,1092.8,1427.6,1092.8,1428.2,1092.1 M1374.7,1086.4
		c0,0-0.6,0-1.2,0c0.6,0,0.6,0,0.6,0c0.6,0,0.6,0,1.2,0C1374.7,1086.4,1374.7,1086.4,1374.7,1086.4 M1297.2,1085.1h-0.6
		C1297.2,1085.1,1297.2,1085.1,1297.2,1085.1 M1419.8,1083.8L1419.8,1083.8L1419.8,1083.8 M1427.6,1083.2c0,0.6,0,0.6,0,0.6
		S1427.6,1083.8,1427.6,1083.2 M1336.8,1083.2c0,0,0,0-0.6,0C1336.8,1083.2,1336.8,1083.2,1336.8,1083.2 M1225.6,1078.7
		c-1.2,0-1.2,0-1.2,0h-0.6C1224.4,1078.7,1225,1078.7,1225.6,1078.7 M1395.2,1074.9L1395.2,1074.9L1395.2,1074.9 M1375.3,1074.2
		c-0.6,0-0.6,0-0.6,0l0,0C1374.7,1074.2,1374.7,1074.2,1375.3,1074.2 M1473.3,1101.1L1473.3,1101.1L1473.3,1101.1 M1465.5,1097.9
		c0.6-0.6,0.6-0.6,0.6-0.6L1465.5,1097.9 M1356.7,1094.7L1356.7,1094.7L1356.7,1094.7 M1306.2,1095.3c4.8,0,9,0,13.8-0.6
		c0.6,0,2.4,0,3.6,0.6c-6.6,0-13.2,0-19.8,0.6c-0.6-0.6-0.6-0.6-0.6-0.6C1304.4,1095.3,1305,1095.3,1306.2,1095.3 M1338.7,1094.7
		c0,0,0,0,0.6,0h0.6C1339.3,1094.7,1339.3,1094.7,1338.7,1094.7 M1305,1094.7L1305,1094.7L1305,1094.7 M1371.7,1094L1371.7,1094
		L1371.7,1094 M1378.9,1094L1378.9,1094L1378.9,1094 M1425.8,1093.4c-0.6,0-0.6,0-0.6,0C1425.8,1093.4,1425.8,1093.4,1425.8,1093.4
		L1425.8,1093.4 M1395.2,1093.4L1395.2,1093.4L1395.2,1093.4 M1476.3,1088.9L1476.3,1088.9c0,0,0,0,0.6,0l0,0H1476.3 M1290,1088.9
		c-1.2,0,0,0,0.6,0l0,0C1290.6,1088.9,1290.6,1088.9,1290,1088.9 M1477.5,1088.9c0-0.6,0-0.6,0-0.6l0,0V1088.9 M1472.7,1086.4
		L1472.7,1086.4L1472.7,1086.4 M1320,1084.5c0.6-0.6,1.2-0.6,1.2-0.6c-0.6,0.6-0.6,0.6-0.6,0.6S1320.6,1084.5,1320,1084.5
		 M1242.5,1083.8c1.2,0,1.8-0.6,2.4-0.6c0.6,0.6-0.6,0.6-1.8,0.6C1242.5,1083.8,1242.5,1083.8,1242.5,1083.8 M1244.9,1083.2
		c-0.6,0-0.6,0-0.6,0S1244.3,1083.2,1244.9,1083.2 M1317,1084.5c0.6-0.6,1.2-0.6,1.2-1.3c0.6,0,0.6,0.6,0.6,0.6
		c-0.6,0-0.6,0.6-1.2,0.6H1317 M1223.8,1081.3L1223.8,1081.3L1223.8,1081.3 M1333.2,1081.3c1.2-0.6,1.8-0.6,3-0.6
		c3.6,1.9,12,0.6,17.4,1.9c0-0.6,0.6-0.6,1.2-0.6c0,0,0.6,0,1.2,0h0.6c0.6,0,0.6,0,1.2,0c-0.6,0.6,0,0.6,0.6,0.6c0,0,0.6,0,1.2,0
		s1.2,0,1.2,0c0.6,0,1.2,0,1.8,0c-0.6-1.3-0.6-1.3-0.6-1.3c0.6,0,0.6,0,1.2,0c1.2,0,1.8,0,3,0c0.6-0.6,1.2-0.6,2.4-0.6
		c0.6,0,0.6,0,1.2,0.6c2.4,0.6-0.6,0.6-1.8,1.3c1.2,0,1.8,0,3,0c0.6,0,1.8,0,2.4,0c1.2,0,1.8,0,2.4,0c1.2,0,1.8,0,2.4,0.6
		c0-0.6-0.6-1.9,1.8-1.9c2.4,0.6,6,1.3,6,1.3c1.2,0,1.8-0.6,2.4-0.6s0.6,0,1.2,0.6c0,0-0.6,0.6-1.2,0.6c0.6,0,1.2,0,1.2,0
		c2.4,0,4.2-0.6,6.6-0.6c1.2,0.6,6,0.6,9.6,0.6c0,0,1.2,0,1.8,0s0.6,0,1.2,0s0.6,0,1.2,0s1.2,0,1.2-0.6c0,0.6,0,0.6,0.6,0.6
		c1.2-0.6,2.4-1.3,3.6-1.3c-0.6,0.6-0.6,0.6-0.6,0.6c0,1.3,3.6,0.6,4.8,1.3c-0.6-0.6,0-0.6,0-0.6s0,0,0.6,0c0,0.6,0.6,0.6,0.6,0.6
		c0.6,0,0.6-0.6,0.6-0.6c1.8,0,1.8,0,1.8,0c3-0.6,0.6-0.6,4.2-0.6c1.8,0,0.6,1.3,0,1.3l0,0h0.6c-1.8,0-3,0.6-4.8,1.3
		c-7.8,1.9-12,5.1-12.6,5.7c14.4-0.6,19.8-2.6,32.5-2.6c1.2-0.6,2.4-1.3,4.2-1.9c0.6,0,0.6,0,0.6,0l0,0c0-0.6,0-0.6,0-1.3
		c4.2,0.6,8.4,0.6,9.6,0.6c-1.2,0-1.8,0-1.2,0l0,0c1.2,0,2.4,0,3,0c0.6,0,0.6,0,0.6,0c1.8,0,1.8,0.6,4.2,1.3v-0.6
		c1.2,0.6,2.4,0.6,4.2,0.6c-1.2,0.6-1.8,0.6-2.4,1.3c1.8,0,0-0.6,1.2-0.6c1.8,0.6-1.2,1.9-3,1.9c0-0.6,0-0.6,0-0.6
		c-2.4,0.6-2.4,1.3-5.4,1.3c-1.8,0,1.2-0.6,0.6-0.6c-0.6-0.6-1.2-0.6-2.4-0.6c-1.8,0-4.2,0-4.2,0c-0.6,0.6-1.8,0.6-1.8,1.3h-0.6
		c-0.6,0-0.6,0-0.6-0.6c-0.6,0-0.6,0-0.6,0c-0.6,0-0.6,0-0.6,0c-6,2.6-6,2.6-6,2.6c0.6,0-1.8-0.6,0-1.3c-4.2,0-6.6,1.9-9.6,2.6
		c-1.2,0-4.8,1.3-6.6,1.3c0,0,0,0,0-0.6c0.6,0,1.2,0,1.2,0c-1.8-0.6-1.8-0.6-1.8-0.6l0,0c1.2,0,0.6-0.6,0.6-0.6l0,0l0,0
		c-0.6-0.6-0.6-0.6,0-1.3c-0.6,0-1.2,0.6-1.8,0.6l-0.6-0.6c-0.6,0-0.6,0.6-0.6,0.6c-0.6-0.6,0.6-0.6-0.6-1.3c-0.6,0.6-0.6,0.6,0,1.3
		c-0.6,0-1.2,0-1.8,0c-1.8,0-4.2,0-6,0c1.8,0.6-1.2,0.6-3,1.3c-1.2,0-2.4,0-3.6,0c1.8,0,2.4-1.3,1.2-1.9c-1.8,0.6-3.6,0.6-6,0.6
		c-1.2,0-2.4,0-4.2,0c0,0.6,1.2,0.6,1.2,1.3c-1.2,0-2.4,0-3,0c-0.6-0.6-0.6-1.9-3.6-1.9c0.6-0.6,1.2-0.6,1.8-0.6c0.6,0,1.2,0,1.2,0
		c0.6,0,1.2,0,1.2,0c0.6,0,1.2,0,0.6-0.6c0.6-0.6,2.4-0.6,4.2-0.6s4.2,0.6,4.8,0.6c3-0.6-1.8,0-1.8-1.3c-2.4,0-4.2,0-8.4,0
		c0,0.6,1.8,1.3-0.6,1.3c-0.6,0.6-1.2,0.6-1.2,0.6c-3,0-3.6-1.9-4.2-1.9c1.8-0.6,1.8-0.6,1.8-0.6c-0.6,0-1.2,0-1.8,0
		c0,0-0.6,0-1.2,0s-1.2,0.6-1.8,0.6s-0.6,0-1.2-0.6c0-0.6,0-0.6,1.2-0.6c0.6,0,0.6,0,1.2,0s1.2,0,1.8,0s0.6,0,1.2,0
		c-1.8-1.3-1.8-1.3-1.8-1.3c-0.6,0-1.2,0-1.2,0c-1.2,0-1.2,0-1.8,0.6c0,0,0,0-1.2,0c0,0-0.6,0-1.2,0c0.6-0.6,0.6-0.6,0.6-0.6
		c-3,0.6-3,0.6-3,0.6c0,0.6,0.6,1.3,3,1.3c-0.6,0.6-1.2,0.6-1.8,0.6c-0.6,0-1.8-0.6-4.2-0.6c-1.2,0.6,1.8,0,1.8,0.6
		c0.6,0.6-2.4,0.6-4.2,0.6c-2.4,0-1.2-1.3-2.4-1.3c0.6-0.6,0.6-0.6,1.2-0.6c1.2,0,1.8,0,1.2,0.6c4.2-0.6-1.2-1.9,1.2-2.6
		c-0.6,0-1.2,0-1.2,0c-1.2,0-1.2,0-1.8,0.6h-0.6c0.6,0-0.6,0.6,0,1.3c-1.2,0.6-1.8,0.6-2.4,0.6c-1.8,0-1.8-2.6-5.4-2.6
		c0.6,1.9-6.6,1.9-3,3.8c-0.6,0.6-1.8,0.6-2.4,0.6s-1.2,0-1.2,0c1.2-1.3-2.4-1.3,0-1.9c-1.8,0-1.8,0-1.8,0c3-1.3,3-1.3,3-1.3
		c-2.4-0.6-5.4-1.9-6-2.6c-2.4,0.6,0.6,1.3-2.4,1.3c1.2-0.6-0.6-1.3-1.8-1.3c2.4,0.6,0,1.9-1.8,1.9c-2.4,0-4.8-1.3-4.2-1.3
		c2.4-1.3,2.4-1.3,2.4-1.3c-0.6,0.6-0.6,0.6-0.6,0.6c-0.6,0-0.6-0.6-0.6-0.6c-0.6,0-0.6,0-1.2,0c0,0,0,0-0.6,0
		c-0.6,0.6-1.8,1.3-2.4,1.9h-0.6c-1.2,0-2.4-0.6-2.4-0.6c2.4-0.6,2.4-0.6,2.4-0.6c-3,0-1.2-1.3-3.6-1.3h-0.6
		c-1.2,0.6-1.2,0.6-1.2,0.6s-0.6,0-0.6-0.6c-0.6,0.6-2.4,0.6-3,0.6c0-0.6,0-0.6,0-0.6c-0.6,0-1.8,0.6-3,0.6c-0.6,0-1.2,0-1.8-0.6
		c0.6,0.6,0.6,1.3,1.2,1.3h0.6c0-0.6,0.6-0.6,0.6-0.6c0.6,0,1.2,0.6,1.8,0.6c0.6,0.6-0.6,0.6-1.8,0.6c-0.6,0-1.2,0-1.2,0
		s-0.6-0.6-1.8-0.6c-1.2,0-3,0.6-3.6,0.6c-1.2-0.6-2.4-1.3-3-1.3C1325.4,1082.5,1329,1081.9,1333.2,1081.3c0,0,0.6,0,1.2,0
		s0.6-0.6,1.2-0.6l0,0c-0.6,0-0.6,0-0.6,0c-0.6,0.6-0.6,0.6-1.2,0.6C1333.8,1081.3,1333.8,1081.3,1333.2,1081.3 M1314.6,1079.4
		c0.6,0,1.2,0,1.8,0c-1.8,1.3-1.8,1.3-1.8,1.3c-0.6,0-0.6,0-1.2,0S1313.4,1080,1314.6,1079.4 M1316.4,1079.4h0.6l0,0
		C1316.4,1079.4,1316.4,1079.4,1316.4,1079.4 M1314.6,1079.4L1314.6,1079.4L1314.6,1079.4 M1265.3,1081.3c-0.6-0.6,0.6-2.6,3-2.6
		c0.6,0,1.2,0,1.2,0c1.2,0,0.6,1.9,2.4,1.9c1.8-0.6,3.6-0.6,4.8-0.6c0,0.6,0,0.6,0,0.6c0.6-0.6,2.4-0.6,4.2-0.6c0,0,0.6,0,1.2,0l0,0
		c1.2,0,3,0.6,4.2,0.6c1.2-1.3,4.8-0.6,5.4-1.3c0.6,0,0,0,0.6,0c0-0.6,0-0.6,0-0.6c3,0.6,3,0.6,3,0.6c-0.6,0-1.2,0.6-1.8,0.6
		c0.6,0,0.6,0.6,1.2,0.6c1.2,0,0-1.3,1.8-1.9c0,0,0.6,0,1.2,0s0.6,0.6,1.8,0.6c-0.6,0.6-0.6,0.6-1.2,0.6s-0.6-0.6-1.2-0.6
		c-1.2,0.6,1.2,0,1.2,0.6c0,0,0,0,0.6,0l0,0c0.6,0,0.6-0.6,1.2-0.6s0.6,0,0.6,0c1.2,0.6,4.8,0,4.2,1.3c1.8-0.6,3-0.6,3.6-0.6
		c-1.2,0-3-0.6-3.6-1.3c0.6,0,1.2,0,1.8,0c1.2,0,1.8,0,1.8,0c-1.2,0.6-1.2,0.6-1.2,0.6c0.6,0,1.2,0,1.8,0c1.2,0,1.8,0,0.6-0.6
		c2.4,1.3,2.4,1.3,2.4,1.3c0.6-0.6,1.2-0.6,2.4-0.6c-5.4,1.3-10.2,3.2-15,5.1l0,0c-1.2,0-1.8,0-2.4,0.6c0.6-0.6,1.2-0.6,1.8-0.6
		c-0.6,0.6-1.2,0.6-1.8,1.3v-0.6c-0.6,0-0.6,0-0.6,0c-0.6,0.6-0.6,1.3-3.6,1.9c0.6,0,0.6,0,1.2,0c-1.2,0.6-1.8,0.6-1.8,1.3
		c-0.6,0-0.6,0-0.6,0v-0.6c-1.8,0-1.8,0-1.8,0c-2.4-1.3,5.4-2.6,3-3.8c-1.8,0.6-1.8,0.6-1.8,0.6c0.6,0,1.2-1.3,0-1.3
		c0,0.6-0.6,0.6-1.8,0.6c-0.6,0-1.2,0-1.2,0c-0.6-0.6-1.2-0.6-1.8-0.6l0,0c-0.6,0.6,0,0.6,0,0.6c0.6,0,0.6,0,0.6,0s0,0,0.6,0l0,0
		c-1.8,0.6-3,1.9-4.8,1.9c-0.6,0-0.6-0.6-1.2-0.6c1.2-0.6-1.2-1.3,0-1.9c-0.6,0-0.6,0-0.6,0c-0.6,0-0.6,0.6-0.6,0.6
		s-0.6,0.6-1.2,0.6c0,0,0,0-0.6-0.6c0-0.6,0-0.6,0-0.6c-2.4,0-4.8,0-7.2,0c-6.6,0-13.8,0.6-18.6,1.9c-1.8-0.6-3.6-1.3-7.8-1.9
		c1.8,0,3.6-0.6,5.4-0.6c1.2,0,1.2-0.6,1.8-0.6s1.8,0,2.4,0c1.8,0,3.6,0,4.8-0.6c1.8,0,3.6,0,5.4,0L1265.3,1081.3 M1368.1,1074.2
		c0.6-0.6,0.6-0.6,0.6-0.6c1.2,0.6,1.2,0.6,1.8,0.6C1369.9,1074.2,1369.3,1074.2,1368.1,1074.2 M1377.7,1074.2
		c2.4,0,4.8-1.3,7.8-1.3c0,0,0.6,0,0.6,0.6c-0.6,0-0.6,0-0.6,0c5.4,0.6,12,1.3,18.6,1.9c-3,0-6,0-9-0.6c0.6,0.6,0.6,1.3,0,1.3
		c-0.6-0.6-1.2-0.6-1.8-0.6s-1.2,0-1.8,0s-1.2,0-2.4,0h-0.6c0,0,1.2-0.6,1.8-0.6c-1.8,0-3.6,0-4.8,0c-1.2,0-1.8,0-3,0
		c-0.6,0-1.2,0-2.4,0c-1.8,0-3.6,0-6-0.6h0.6c-0.6,0-1.2,0-1.2,0s0.6,0,1.2,0c0,0,0.6,0,1.2,0c-0.6,0-0.6,0-0.6,0
		c1.2,0,2.4,0,2.4-0.6C1378.3,1073.6,1377.7,1074.2,1377.7,1074.2 M1399.4,1070.4c-18,0-36.1,0.6-54.1,2.6c0,0,0,0-0.6,0
		s-1.2,0-2.4,0.6c0.6-0.6,0.6-0.6,0.6-0.6c-11.4,0-23.4-1.3-35.5-1.3c-2.4,0-5.4,0-8.4,0.6c-6,0-12.6-1.3-19.8-1.3
		c-1.8,0-4.2,0-6.6,0.6c-1.8,0,0,0.6-1.8,0.6s0-0.6-0.6-0.6c-4.8,0.6-10.8,0-16.2,0.6c-0.6,0.6-2.4,1.3-1.8,1.3c-0.6,0-1.2,0-2.4,0
		c-6,0-12.6,2.6-18.6,3.2c2.4,1.3-3.6,1.9-5.4,2.6c-0.6,0-0.6,0.6-1.2,0.6s-0.6-0.6-0.6-1.3c-0.6,0.6-1.2,0.6-2.4,1.3
		c-0.6,0-1.8,0.6-2.4,1.3l0,0c-1.2,0-5.4,4.5-1.8,8.9c6,3.8,6.6,2.6,10.2,3.8c2.4,0,3.6-0.6,4.8-0.6c0.6,0,1.2,0,2.4,0
		c0.6,0.6,2.4,1.3,4.2,1.3h0.6c0.6,0,0.6,0,1.2,0c1.2,0,2.4,0,3.6,0c-0.6-0.6,1.2-1.3,3.6-1.3c0.6,0,1.8,0,2.4,0
		c-0.6,1.3-0.6,1.3-0.6,1.3c1.2,0,3,0,4.2,0c3,0,6,0,9.6,0.6c3,0,6.6,0,9.6,0c4.2,0,7.8,0,11.4-0.6c0.6,0.6,0.6,0.6,0.6,0.6
		c0.6,0,0.6,0,1.2,0c0,1.9,0.6,4.5,2.4,5.7c1.2,1.3,1.2,1.3,1.8,1.3c1.8,1.3,1.8,0.6,2.4,1.3c1.8,0,3.6,0,4.8,0.6
		c0-0.6,1.2-0.6,1.8-0.6c0.6,0,1.2,0,1.2,0c0.6,0,1.2,0,1.8,0s1.2,0,1.2,0c0.6,0,0,0,0,0c3,0,4.8,0,6,0c2.4,0,4.2,0,8.4,1.3
		c4.8,0,9,0,13.8,0c23.4,0,46.9-1.3,69.7-1.3c12.6-0.6,25.9-1.3,38.5-2.6c2.4,0,5.4,0.6,8.4,0.6c0,0,0.6,0,1.2,0
		c1.8,0,2.4-0.6,4.8-0.6c0,0.6,0,0.6,0,0.6c3-0.6,3.6-1.9,4.8-2.6c2.4,0.6,2.4,0,4.8,0.6c-2.4,0.6-4.2,1.3-6,1.9c0.6,0,1.2,0,1.2,0
		c1.2,0,2.4,0,3,0c1.2,0,2.4-0.6,3-0.6c1.2,0,1.8,0.6,2.4,0.6c1.2,0.6,1.8,0.6,3,0.6s2.4-0.6,2.4-1.3c0.6,0.6,1.8,0.6,0.6,1.3
		c1.2,0,1.8,0,2.4,0c1.2,0,1.8,0,3-0.6c-0.6,0-1.2,0-1.8,0c1.2-0.6,3.6-0.6,3-1.9c-1.2,0.6-1.8,0.6-1.8,0.6c-0.6,0-0.6,0-1.2,0
		c0-0.6,1.2-0.6,2.4-0.6s2.4,0,3,0.6c1.2,0.6-2.4,1.3-1.2,1.9c6-1.9,6-1.9,6-1.9h-0.6c-0.6,0-1.8,0-1.2-0.6c-3,0-3,0-3,0
		c0.6-0.6,0.6-0.6,0.6-0.6c-0.6,0-1.2,0-1.8,0c-1.2,0-3,0-4.2,0s-2.4-0.6-3.6-0.6c-0.6,0-1.2,0-1.8,0c1.8,1.3,1.8,1.3,1.8,1.3
		c-0.6,0-0.6,0-1.2,0s-1.2,0-1.8,0s-1.2,0-1.8,0c-1.2,0-1.8,0-2.4-0.6c0.6,0,0-0.6,0-0.6c-0.6,0-0.6,0-1.2,0s-0.6,0-0.6,0l0,0
		c0.6,0,0.6,0,1.2,0c3.6-0.6,6.6-1.3,10.8-1.9c2.4-1.9,1.8,1.9,9-5.7c1.8-8.3-3.6-8.3-3.6-8.9c-0.6-0.6-1.2-0.6-1.8-1.3
		c-2.4-0.6-2.4,0-3.6-0.6c-1.2,0.6-1.8,0.6-3,0.6c-1.2,0-3-0.6-4.2-0.6c-1.8,0-3.6,0-4.8,0c-1.8,0-3,0-4.2,0
		c0.6-0.6,0.6-0.6,0.6-0.6c-0.6,0-1.2,0-1.8,0c-3,0-4.8-0.6-9.6-1.9c0,0.6-2.4,0-1.2,1.3c-0.6,0-0.6,0-1.2,0l0,0c0-0.6,0-0.6,0-1.3
		c0,0,0,0,0-0.6l0,0c-0.6-0.6-0.6-0.6-0.6-0.6s0,0,0.6,0.6c-1.2,0-1.2,0-1.2,0c-1.8-0.6-1.8-0.6-1.8-0.6c-2.4-1.3-4.8-1.9-7.2-2.6
		c-5.4-0.6-10.2-1.9-15.6-2.6C1415,1070.4,1406,1071.1,1399.4,1070.4L1399.4,1070.4z"/>
	<path id="path969" class="st6" d="M1315.2,455.8c0,0,29.5-20.4,44.5-31.3c15.6-10.9,56.5-34.5,57.7-31.9
		c0.6,3.2-8.4,32.6-16.2,64.5c-5.4,26.2-19.2,35.1-19.2,35.1L1315.2,455.8z"/>
	<path id="path971" class="st7" d="M1761.3,891.7c-66.1,17.9-118.4,8.3-152.1-1.9c-24.6-7.7-58.9-18.5-94.4-10.2
		c-29.5,7.7-70.9,42.8-70.9,42.8s10.8-112.3-68.5-224c-4.8-6.4-7.2-14-7.2-21.7c0,0-150.3,35.1-149.7,35.7
		c48.7,86.8,39.7,185.1,43.3,233c3.6,48.5,16.8,108.5,16.8,108.5s-65.5-1.9-55.9,12.1c9.6,14,34.9,0,34.9,0s-7.2,17.9,0.6,19.8
		c7.2,2.6,17.4-15.3,17.4-15.3s-2.4,13.4,13.2,16c15,1.9,18.6-8.3,15-26.8c-4.2-17.9-3-84.9-1.8-86.2c1.8-1.3,96.2,0,96.2,0
		c6.6,78.5,6.6,78.5,6.6,78.5s-51.1,12.1-45.1,20.4c6,7.7,30.7-3.8,30.7-3.8s-18.6,14.7-7.2,17.9c11.4,3.8,22.8-7.7,22.8-7.7
		c-6,26.8,31.3,11.5,25.3-12.8c0-100.2,0-100.2,0-100.2s37.9,63.8,109.4,63.8c89,0.6,206.2-77.9,244.7-120
		S1808.8,878.9,1761.3,891.7L1761.3,891.7z"/>
	<path id="path973" class="st7" d="M1380.7,668.3c0,0,7.2,3.8,14.4,8.3c12,7,16.8,29.4,16.8,12.1c0-17.2-15-38.3-15-38.3
		s9-7.7,36.1,6.4c17.4,8.3-13.8-35.1-13.8-35.1s23.4,4.5,38.5,8.9c7.2,1.9-34.3-43.4-34.3-43.4s-0.6-3.2,4.8-17.9
		c3-7,1.2-32.6,1.2-32.6s25.9-46,34.9-63.8c9-17.9,14.4-39.6,14.4-39.6s-49.3,16.6-75.1,29.4c-18.6,9.6-36.1,23.6-36.1,23.6
		s3-13.4-40.3-35.1c-18-8.9-84.2-14-117.2-10.2c-26.5,3.2-93.8-10.2-106.4-12.1c-21-3.8-90.2-13.4-95.6,1.9
		c-5.4,14.7,5.4,34.5,36.7,67.7c30.7,33.2,143.7,105.3,159.3,178.1c47.5,45.3,47.5,45.3,47.5,45.3c112.4-20.4,112.4-20.4,112.4-20.4
		C1368.7,683.6,1380.7,668.3,1380.7,668.3z"/>
	<path id="path975" class="st7" d="M1258.1,745.5c0,0-9,28.7-15.6,47.2c-6.6,18.5-17.4,30.6-22.2,34.5c-4.8,3.2-31.9,4.5-30.1,14.7
		c1.2,6.4,14.4,7,14.4,7s-6,8.9-4.8,16c1.8,10.9,18-3.8,18-3.8s-11.4,24.3,4.2,26.8c9.6,1.9,18.6-14,21.6-47.9
		c3.6-32.6,36.1-81.1,36.1-81.1L1258.1,745.5z"/>
	<path id="path977" class="st8" d="M1236.4,769.1c16.8,81.7,21,91.9,19.8,175.5c22.2,0.6,57.7-1.9,78.8,0c1.2-14,0-29.4-1.8-43.4
		c-18-125.7-51.7-159.6-69.1-194.7c-11.4-21.7-54.1-71.5-94.4-91.9C1190.2,642.8,1228.6,733.4,1236.4,769.1L1236.4,769.1z"/>
	<path id="path979" class="st9" d="M1031.4,418.7c-22.8-1.9-54.7-5.7-43.3,15.3c13.8,25.5,45.7,53,45.7,53s25.3-46.6,25.9-64.5
		C1059.7,422.6,1039.9,419.4,1031.4,418.7L1031.4,418.7z"/>
	<path id="path981" class="st8" d="M1374.7,493.4c0,0,52.9-27.4,51.7-21.7c-0.6,5.7-16.8,47.9-16.8,47.9s-12.6-12.1-17.4-14.7
		C1387.3,501.1,1374.7,493.4,1374.7,493.4z"/>
	<path id="path983" class="st8" d="M1373.5,434.1c3.6-0.6,3,3.8,0,12.1c-2.4,8.3-9.6,30.6-9.6,30.6c-27.1-17.9-27.1-17.9-27.1-17.9
		S1369.9,434.7,1373.5,434.1z"/>
	<path id="path985" class="st8" d="M1300.8,523.4c-6,17.2-27.7,24.9-46.9,17.9c-14.4-5.7-25.3-28.7-8.4-48.5
		c15-17.9,28.9-17.2,43.3-9.6C1302,490.9,1306.8,506.2,1300.8,523.4z"/>
	<path id="path987" class="st9" d="M1267.1,496c-1.2,2.6,0.6,5.7,3,7c3,1.3,6-0.6,7.2-3.2c1.2-3.2-0.6-6.4-3.6-7.7
		C1271.3,491.5,1268.3,492.8,1267.1,496L1267.1,496z"/>
	<path id="path989" class="st10" d="M1252.7,896.2c0,0,93.2,1.9,126.3,0c33.1-1.9,64.9-12.1,64.9-12.1s1.2,34.5,0,62.6
		c-1.2,31.9-6,58.7-6,58.7s-54.7-8.3-64.3-7c-3-17.9-3-17.9-3-17.9c-65.5-5.1-65.5-5.1-65.5-5.1c0,19.1,0,19.1,0,19.1
		c-49.3,0-49.3,0-49.3,0L1252.7,896.2z"/>
	<path id="path991" class="st9" d="M1302.6,897.4c0,0-7.8-123.8,4.8-148.7c17.4-33.8,80-37,80-37c-6-8.9-6-8.9-6-8.9
		s-61.9-5.7-89.6,46.6c-13.8,26.8-8.4,148.1-8.4,148.1L1302.6,897.4z"/>
	<path id="path993" class="st11" d="M1281.5,908.9l20.4,1.3l0.6-12.8l-19.8-0.6L1281.5,908.9z"/>
	<path id="path995" class="st12" d="M1356.7,748.1c0-9.6-15-7.7-16.2-7.7c-7.2,0-28.9-0.6-47.5-12.8c-37.9-23.6-31.9-37-34.3-42.1
		c-3-5.7,0-28.7-6-31.3c-6-2.6-10.8,8.3-10.8,8.3s-7.8-13.4-14.4-12.8c-10.2,0.6-0.6,17.2-1.2,20.4s-18-8.9-22.2,6.4
		c-3,10.2,16.8,16.6,29.5,30.6c55.3,61.3,97.4,57.4,107,55.5C1341.7,762.1,1356.7,758.9,1356.7,748.1L1356.7,748.1z"/>
	<path id="path997" class="st9" d="M1223.2,593L1223.2,593c0.6,0.6,4.8,2.6,9,5.7c4.2,3.8,9,8.9,11.4,16.6c0.6,0.6,1.2,1.3,2.4,1.3
		c1.2-0.6,1.2-1.9,1.2-2.6c-2.4-8.9-8.4-14.7-13.2-18.5c-4.8-3.8-9-5.7-9.6-5.7c-0.6-0.6-1.8,0-2.4,0.6
		C1222,591.7,1222,593,1223.2,593L1223.2,593z"/>
</g>
</svg>
