<?xml version="1.0" encoding="utf-8"?>
<!-- Generator: Adobe Illustrator 26.5.0, SVG Export Plug-In . SVG Version: 6.00 Build 0)  -->
<svg version="1.1" id="Capa_1" xmlns="http://www.w3.org/2000/svg" xmlns:xlink="http://www.w3.org/1999/xlink" x="0px" y="0px"
	 viewBox="0 0 841.9 595.3" style="enable-background:new 0 0 841.9 595.3;" xml:space="preserve">
<style type="text/css">
	.st0{fill:#E52629;}
	.st1{fill:#FFFFFF;}
	.st2{fill:#020203;}
	.st3{fill:#F49523;}
	.st4{fill:#F0E6DB;}
	.st5{fill:#00A6A6;}
	.st6{fill:#49484B;}
	.st7{fill:none;stroke:#020203;stroke-width:1.0136;stroke-linecap:round;}
	.st8{fill:#E2D7D7;}
	.st9{opacity:0.8;}
	.st10{opacity:0.8;fill:none;stroke:#D3D2C2;stroke-width:0.2318;stroke-linecap:round;enable-background:new    ;}
</style>
<image style="overflow:visible;" width="804" height="770" xlink:href="../../../../libro-colihue.png"  transform="matrix(0.5869 0 0 0.5869 20.4722 69.4167)">
</image>
<path class="st0" d="M555.6,349.2c0,0-1.4,21.9,3.1,38.8c8.7,31.8,35.5,56.7,35.5,56.7s-25.4-56.5-12.9-79.2
	c5.2-9.4,7.8-7.4,7.8-7.4L555.6,349.2z"/>
<path class="st0" d="M383,397.6c-1-64.5,7.7-97.5,58.9-100.5c57.5-3.5,130.8-4.9,192,1.4c26.6,2.7,44,29.4,44,85.5
	c0.2,63.2-10.9,98.3-41.9,100.2c-67.9,3.8-143.5,3.3-211.9-1.6C387.5,479.5,383.7,434.6,383,397.6z"/>
<g>
	<path class="st1" d="M636.6,484.6c-1.5,3.4-6.5,4.4-10.2,2.9c-2.9-1.1-4.9-5.8-1.3-9.7c2.6-2.8,5.8-3.1,8.7-1.8
		C636.8,477.2,638.1,481,636.6,484.6z"/>
	<path class="st2" d="M629,480.6c-0.3,0.6,0,1.3,0.6,1.6s1.3,0,1.6-0.6c0.3-0.6,0-1.3-0.6-1.6C630,479.6,629.4,479.9,629,480.6z"/>
	<path class="st3" d="M665.2,572.7c0,0-8.3,1.5-13.8,2.4c-5.3,1.1-9.2,3.7-10.4,4.9c-1.1,1.3-2.8,7.3-5.5,6.2
		c-1.8-0.6-1.3-4.5-1.3-4.5s-2.8,1.3-4.7,0.6c-2.8-1,1.9-5,1.9-5s-7.3,2.3-7.3-2.4c0-2.8,4.7-4.7,14.2-4.4c9.2,0.3,24-7,24-7"/>
	<path class="st3" d="M701.2,561.3c0,0,8.3,1.5,13.8,2.4c5.3,1,9.2,1.8,10.4,3.1c1.1,1.3,2.8,9.1,5.5,8.1c1.8-0.6,1.3-4.5,1.3-4.5
		s2.8,1.3,4.7,0.6c2.8-1-1.9-5-1.9-5s7.3,2.3,7.3-2.4c0-2.8-4.7-4.7-14.2-4.2c-9.2,0.3-24-7-24-7"/>
	<path class="st3" d="M678.7,481c0,0-9.4-3.4-23.5-4.5c-5.8-0.5-17.6,4.5-26.2,8.9c-6.8,3.6-26.5,7-30.1,7.6
		c-6.2,1.1-26.1,5.8-26.1,10.4c0,4.5,5,8.4,16.8,14.1c11.8,5.7,48.6,12.6,60,30.3c14.7,23,18.5,51.7,19.6,65.1
		c1.1,13.4,5,30.3,5,30.3s-19.3-0.6-16.5,3.4c2.8,3.9,10.2,0.2,10.2,0.2s-2.1,5,0.2,5.5c2.3,0.5,5.2-4.4,5.2-4.4s-0.6,3.9,3.9,4.4
		c4.5,0.5,5.5-2.3,4.4-7.5c-1.1-5-1-23.8-0.5-24.1c0.5-0.5,24.8,0,24.8,0l1.6,21.9c0,0-14.7,3.4-13.1,5.7s8.7-1,8.7-1
		s-5.5,4.1-2.1,5c3.4,1,6.6-2.3,6.6-2.3c-1.8,7.6,9.2,3.2,7.3-3.4v-28c0,0,11.2,17.8,31.9,18c25.9,0.2,60.2-21.9,71.2-33.5
		c11.5-12,7.1-8.7-6.8-5.2c-19.3,5-34.5,2.3-44.3-0.6c-7.3-2.1-17.2-5.2-27.7-2.8c-8.6,2.1-20.7,11.8-20.7,11.8s3.2-31.3-20.1-62.4
		c-4.5-6-1-16.7-1-16.7s2.3,0.2,4.7,0.6c4,0.6,7.4,6,5.8,1.5c-1.6-4.5-7.8-8.4-7.8-8.4s1.8-2.9,10.5-2.3c5.7,0.5-7.3-7.8-7.3-7.8
		s6.8-1.1,11.3-1.6c2.3-0.2-13.6-7.8-13.6-7.8s-0.5-0.8-0.3-5.2c0-2.1-0.6-8.7-0.6-8.7s2.6-14.6,3.2-20.2c0.6-5.7,0-11.8,0-11.8
		s-11.8,9.4-17.6,15.4C681.9,475.5,678.7,481,678.7,481z"/>
	<path class="st4" d="M647.4,547.4c15.2,22.5,19.1,44.2,19.4,65.1c6.3,0.2,13.8-0.5,19.9,0c0.5-3.9-0.5-8.1-0.5-12.1
		c0-39.8-15.7-61.2-46.8-69c-2.8-0.6-18.5-4.2-21-3.7C629.5,532,642,539.5,647.4,547.4z"/>
	<path class="st2" d="M577.9,497.9c-6.5,1.8-15.5,4-10.4,8.4c6.3,5.2,17.8,9.1,17.8,9.1s5.5-15.4,3.9-20.1
		C589.2,495.3,580.3,497.2,577.9,497.9z"/>
	<path class="st3" d="M653.1,477.3c0,0,6.2-8.3,9.4-12.6c3.2-4.4,12.3-14.6,12.8-13.9c0.5,0.6,2.4,5,1.8,12.5
		c-0.6,7.5-2.3,17-2.3,17L653.1,477.3z"/>
	<path class="st1" d="M811.5,597.8c-18,4.5-32.4,2.6-42.2,0c3.9,3.9,10,9.9,8.1,9.9c-2.8,0-14.2,4.9-11,4.9s11.3,1.6,11.3,1.6
		s-9.1,7.9-8.1,8.4c1.1,0.5,12-2.8,12-2.8s-0.6,4.4-0.5,7.6c16-7.5,30.6-17.8,37.1-24.6C829.8,591,825.5,594.2,811.5,597.8z"/>
	<path class="st1" d="M685,484.3c0,0,11.7-12.6,12-11c0.3,1.6,0,14.4,0,14.4s-4.5-1.9-6.1-2.1C689.2,485.1,685,484.3,685,484.3z"/>
	<path class="st1" d="M670.1,465.8c1-0.5,1.1,0.8,1.3,3.2c0,2.4,0,8.9,0,8.9l-9.1-2.1C662.3,476,669.1,466.3,670.1,465.8z"/>
	<path class="st1" d="M663.8,494.8c0,5.3-5.3,11.2-11.7,11.2c-4.7,0-10-5-7.3-12.1c2.4-6.5,6.3-7.8,11.2-7.1
		C660.7,487.4,663.8,489.5,663.8,494.8z"/>
	<path class="st2" d="M655.4,497.2c0,1,0.6,1.6,1.6,1.6s1.6-0.8,1.6-1.6c0-1-0.8-1.6-1.6-1.6C656,495.6,655.4,496.3,655.4,497.2z"/>
	<path class="st5" d="M665.2,597.6c22.7,1.6,34.6,1.5,38.2,1.1c9.5-0.6,15.7-3.2,15.7-3.2s0.3,9.6,0,17.5
		c-0.3,8.9-1.9,16.4-1.9,16.4s-15.9-2.3-18.8-1.9l-1-5l-15.7-1.5v5.5h-14.4L665.2,597.6z"/>
	<path class="st2" d="M677.9,599.2c0,0-0.6-28.3,8.4-41.5c3.7-5.3,17-10,17-10l-1.8-2.6c0,0-12.3,3.2-19.7,12.6
		c-7.9,10-9.5,41.3-9.5,41.3h5.7v0.2H677.9z"/>
	<path class="st6" d="M672.2,602.6h5.7v-3.9h-5.8L672.2,602.6z"/>
	<path class="st7" d="M639.2,519.2c0,0,0.5,7.9,4.9,7.6c4.4-0.3,4.7-8.7,4.7-8.7"/>
	<path class="st8" d="M727.5,498.9c0,0,28.5-47.3,30.8-44.5c4.5,5.3,2.3,53.5,2.3,53.5s-8.7,18-20.9,13.8
		C727.7,517.1,727.5,498.9,727.5,498.9z"/>
	<path class="st0" d="M727.5,498.9c0,0,1.5,8.3,5.3,8.3c3.6,0,5.5-5.3,5.5-5.3s0.6,7.8,3.9,8.7c4.2,1.3,7.9-6,7.9-6s0,7.8,4,7.9
		c4.2,0,6.5-4.7,6.5-4.7L732.9,602l-24-7.9L727.5,498.9z"/>
	<path class="st2" d="M708.9,594.1c0,0-0.3,11.2,10.4,14.6c10.7,3.4,13.4-6.8,13.4-6.8L708.9,594.1z"/>
	<path class="st0" d="M742.3,475.1c3.9,2.1,8.4,3.6,13.3,4c1.9,0.2,3.7,0.2,5.5,0c-0.2-11.3-0.5-23.7-2.6-26.1
		C757.5,451.6,749.6,463.7,742.3,475.1z"/>
	<path class="st3" d="M745.3,560.8c0.6,2.8,1.3,7.8-0.6,9.6c-1.1,1.1-8.1,4.9-9.6,2.1c-0.8-1.6,2.1-4.2,2.1-4.2s-2.9-1-3.9-2.8
		c-1.5-2.6,4.9-2.3,4.9-2.3s-6.8-3.2-3.7-6.8C736.4,554.5,738.7,554,745.3,560.8z"/>
	<g class="st9">
		<g class="st9">
			<path class="st10" d="M808.1,611.9c4.4-3.2,7.8-6.3,10.4-8.7c10.8-11.3,7.6-9.1-4.5-5.8"/>
		</g>
	</g>
</g>
</svg>
