<svg width="43" height="43" viewBox="0 0 43 43" fill="none" xmlns="http://www.w3.org/2000/svg">
<path fill-rule="evenodd" clip-rule="evenodd" d="M16.8643 0H37.9447C40.3738 0 42.1608 1.78702 42.1608 4.21608V25.2965C42.1608 27.7255 40.3738 29.5126 37.9447 29.5126H29.5126V37.9447C29.5126 40.3738 27.7255 42.1608 25.2965 42.1608H4.21608C1.78702 42.1608 0 40.3738 0 37.9447V16.8643C0 14.4353 1.78702 12.6482 4.21608 12.6482H12.6482V4.21608C12.6482 1.78702 14.4353 0 16.8643 0ZM12.6482 16.8643H4.21608V37.9447H25.2965V29.5126H16.8643C14.4353 29.5126 12.6482 27.7255 12.6482 25.2965V16.8643ZM16.8643 4.21608V25.2965H37.9447V4.21608H16.8643Z" fill="white"/>
</svg>
