<?xml version="1.0" encoding="utf-8"?>
<!-- Generator: Adobe Illustrator 23.0.1, SVG Export Plug-In . SVG Version: 6.00 Build 0)  -->
<svg version="1.1" id="Layer_1" xmlns="http://www.w3.org/2000/svg" xmlns:xlink="http://www.w3.org/1999/xlink" x="0px" y="0px"
	 viewBox="0 0 672 693" style="enable-background:new 0 0 672 693;" xml:space="preserve">
<style type="text/css">
	.st0{fill:#2BB673;}
</style>
<path class="st0" d="M52.8,28.7v-7.1l-6.1,3.6c-0.4,0.3-0.9,0.2-1.1-0.2l-1.2-2.2c-0.2-0.4-0.2-0.9,0.3-1.1l6.1-3.3l-6.1-3.5
	c-0.5-0.2-0.6-0.7-0.3-1.1l1.2-2.2c0.2-0.4,0.7-0.6,1.1-0.2l6.1,3.7V7.7c0-0.5,0.3-0.8,0.8-0.8H56c0.5,0,0.8,0.3,0.8,0.8l-0.1,7.2
	l6.1-3.7c0.4-0.3,0.9-0.2,1.1,0.2l1.2,2.2c0.2,0.4,0.2,0.9-0.3,1.1l-6,3.5l6,3.3c0.5,0.2,0.6,0.7,0.3,1.1l-1.2,2.2
	c-0.2,0.4-0.7,0.6-1.1,0.2l-6.1-3.6l0.1,7.1c0,0.5-0.3,0.8-0.8,0.8h-2.4C53.1,29.5,52.8,29.2,52.8,28.7z"/>
<path class="st0" d="M52.8,77.7v-7.1l-6.1,3.6c-0.4,0.3-0.9,0.2-1.1-0.2l-1.2-2.2c-0.2-0.4-0.2-0.9,0.3-1.1l6.1-3.3l-6.1-3.5
	c-0.5-0.2-0.6-0.7-0.3-1.1l1.2-2.2c0.2-0.4,0.7-0.6,1.1-0.2l6.1,3.7v-7.2c0-0.5,0.3-0.8,0.8-0.8H56c0.5,0,0.8,0.3,0.8,0.8l-0.1,7.2
	l6.1-3.7c0.4-0.3,0.9-0.2,1.1,0.2l1.2,2.2c0.2,0.4,0.2,0.9-0.3,1.1l-6,3.5l6,3.3c0.5,0.2,0.6,0.7,0.3,1.1l-1.2,2.2
	c-0.2,0.4-0.7,0.6-1.1,0.2l-6.1-3.6l0.1,7.1c0,0.5-0.3,0.8-0.8,0.8h-2.4C53.1,78.5,52.8,78.2,52.8,77.7z"/>
<path class="st0" d="M52.8,127.7v-7.1l-6.1,3.6c-0.4,0.3-0.9,0.2-1.1-0.2l-1.2-2.2c-0.2-0.4-0.2-0.9,0.3-1.1l6.1-3.3l-6.1-3.5
	c-0.5-0.2-0.6-0.7-0.3-1.1l1.2-2.2c0.2-0.4,0.7-0.6,1.1-0.2l6.1,3.7v-7.2c0-0.5,0.3-0.8,0.8-0.8H56c0.5,0,0.8,0.3,0.8,0.8l-0.1,7.2
	l6.1-3.7c0.4-0.3,0.9-0.2,1.1,0.2l1.2,2.2c0.2,0.4,0.2,0.9-0.3,1.1l-6,3.5l6,3.3c0.5,0.2,0.6,0.7,0.3,1.1l-1.2,2.2
	c-0.2,0.4-0.7,0.6-1.1,0.2l-6.1-3.6l0.1,7.1c0,0.5-0.3,0.8-0.8,0.8h-2.4C53.1,128.5,52.8,128.2,52.8,127.7z"/>
<path d="M93,69.4c0,1.5-0.5,2.7-1.6,3.5c-1.1,0.8-2.6,1.3-4.5,1.3c-2,0-3.6-0.3-4.7-0.8v-1.9c0.7,0.3,1.5,0.5,2.3,0.7
	c0.8,0.2,1.6,0.3,2.5,0.3c1.3,0,2.3-0.3,3-0.8c0.7-0.5,1-1.2,1-2.1c0-0.6-0.1-1.1-0.4-1.5c-0.2-0.4-0.6-0.7-1.2-1.1
	c-0.6-0.3-1.4-0.7-2.5-1.1c-1.6-0.6-2.7-1.2-3.4-2c-0.7-0.8-1-1.8-1-3.1c0-1.3,0.5-2.4,1.5-3.2c1-0.8,2.3-1.2,3.9-1.2
	c1.7,0,3.3,0.3,4.7,0.9L92,59.3c-1.4-0.6-2.8-0.9-4.1-0.9c-1.1,0-1.9,0.2-2.5,0.7c-0.6,0.5-0.9,1.1-0.9,1.9c0,0.6,0.1,1.1,0.3,1.5
	c0.2,0.4,0.6,0.7,1.1,1c0.5,0.3,1.3,0.7,2.4,1c1.8,0.6,3,1.3,3.7,2.1C92.7,67.3,93,68.3,93,69.4z M101.7,74.2
	c-1.9,0-3.4-0.6-4.5-1.7c-1.1-1.2-1.6-2.8-1.6-4.8c0-2.1,0.5-3.7,1.5-4.9c1-1.2,2.4-1.8,4.1-1.8c1.6,0,2.9,0.5,3.8,1.6
	c0.9,1.1,1.4,2.4,1.4,4.2v1.2h-8.8c0,1.5,0.4,2.7,1.1,3.4c0.7,0.8,1.7,1.2,3.1,1.2c1.4,0,2.8-0.3,4.1-0.9v1.7
	c-0.7,0.3-1.3,0.5-2,0.6C103.3,74.2,102.5,74.2,101.7,74.2z M101.1,62.6c-1,0-1.9,0.3-2.5,1c-0.6,0.7-1,1.6-1.1,2.8h6.7
	c0-1.2-0.3-2.2-0.8-2.8C102.9,62.9,102.1,62.6,101.1,62.6z M118.5,74v-8.3c0-1-0.2-1.8-0.7-2.3c-0.5-0.5-1.2-0.8-2.2-0.8
	c-1.3,0-2.3,0.4-3,1.1c-0.6,0.7-0.9,1.9-0.9,3.6V74h-1.9V61.2h1.6l0.3,1.8h0.1c0.4-0.6,1-1.1,1.7-1.5c0.7-0.4,1.5-0.5,2.4-0.5
	c1.5,0,2.7,0.4,3.5,1.1c0.8,0.7,1.2,1.9,1.2,3.6V74H118.5z M117,59.4c-0.3,0-0.7-0.1-1-0.2c-0.3-0.1-0.6-0.3-0.9-0.5
	c-0.3-0.2-0.6-0.3-0.9-0.5c-0.3-0.1-0.6-0.2-0.8-0.2c-0.4,0-0.7,0.1-0.9,0.4c-0.2,0.2-0.3,0.6-0.5,1.1h-1.1c0.1-0.9,0.4-1.7,0.8-2.2
	c0.5-0.5,1-0.8,1.7-0.8c0.4,0,0.7,0.1,1,0.2c0.3,0.1,0.7,0.3,1,0.5c0.3,0.2,0.6,0.3,0.9,0.5c0.3,0.1,0.5,0.2,0.8,0.2
	c0.4,0,0.7-0.1,0.9-0.3c0.2-0.2,0.3-0.6,0.5-1.1h1.2c-0.1,0.9-0.4,1.7-0.8,2.2C118.4,59.2,117.8,59.4,117,59.4z M132.4,74l-0.4-1.8
	h-0.1c-0.6,0.8-1.3,1.4-1.9,1.6c-0.6,0.3-1.4,0.4-2.4,0.4c-1.3,0-2.3-0.3-3-1c-0.7-0.7-1.1-1.6-1.1-2.8c0-2.6,2.1-4,6.2-4.1l2.2-0.1
	v-0.8c0-1-0.2-1.8-0.7-2.2c-0.4-0.5-1.1-0.7-2.1-0.7c-1.1,0-2.3,0.3-3.6,1l-0.6-1.5c0.6-0.3,1.3-0.6,2.1-0.8
	c0.8-0.2,1.5-0.3,2.3-0.3c1.5,0,2.7,0.3,3.4,1c0.7,0.7,1.1,1.8,1.1,3.3V74H132.4z M128,72.6c1.2,0,2.2-0.3,2.8-1
	c0.7-0.7,1-1.6,1-2.8v-1.2l-1.9,0.1c-1.5,0.1-2.7,0.3-3.4,0.7c-0.7,0.4-1,1.1-1,2c0,0.7,0.2,1.2,0.6,1.6
	C126.6,72.4,127.2,72.6,128,72.6z M139.8,74h-1.9V55.8h1.9V74z M151.8,74l-0.4-1.8h-0.1c-0.6,0.8-1.3,1.4-1.9,1.6
	c-0.6,0.3-1.4,0.4-2.4,0.4c-1.3,0-2.3-0.3-3-1c-0.7-0.7-1.1-1.6-1.1-2.8c0-2.6,2.1-4,6.2-4.1l2.2-0.1v-0.8c0-1-0.2-1.8-0.7-2.2
	c-0.4-0.5-1.1-0.7-2.1-0.7c-1.1,0-2.3,0.3-3.6,1l-0.6-1.5c0.6-0.3,1.3-0.6,2.1-0.8c0.8-0.2,1.5-0.3,2.3-0.3c1.5,0,2.7,0.3,3.4,1
	c0.7,0.7,1.1,1.8,1.1,3.3V74H151.8z M147.4,72.6c1.2,0,2.2-0.3,2.8-1c0.7-0.7,1-1.6,1-2.8v-1.2l-1.9,0.1c-1.5,0.1-2.7,0.3-3.4,0.7
	c-0.7,0.4-1,1.1-1,2c0,0.7,0.2,1.2,0.6,1.6C146,72.4,146.6,72.6,147.4,72.6z M168.9,74.2c-1.9,0-3.4-0.6-4.5-1.7
	c-1.1-1.2-1.6-2.8-1.6-4.8c0-2.1,0.5-3.7,1.5-4.9c1-1.2,2.4-1.8,4.1-1.8c1.6,0,2.9,0.5,3.8,1.6c0.9,1.1,1.4,2.4,1.4,4.2v1.2h-8.8
	c0,1.5,0.4,2.7,1.1,3.4c0.7,0.8,1.7,1.2,3.1,1.2c1.4,0,2.8-0.3,4.1-0.9v1.7c-0.7,0.3-1.3,0.5-2,0.6
	C170.5,74.2,169.8,74.2,168.9,74.2z M168.4,62.6c-1,0-1.9,0.3-2.5,1c-0.6,0.7-1,1.6-1.1,2.8h6.7c0-1.2-0.3-2.2-0.8-2.8
	C170.2,62.9,169.4,62.6,168.4,62.6z M178.9,74H177V55.8h1.9V74z M198,72.3h-0.1c-0.9,1.3-2.2,2-4,2c-1.7,0-3-0.6-3.9-1.7
	c-0.9-1.1-1.4-2.8-1.4-4.9c0-2.1,0.5-3.8,1.4-4.9c0.9-1.2,2.2-1.8,3.9-1.8c1.7,0,3.1,0.6,4,1.9h0.2l-0.1-0.9l0-0.9v-5.2h1.9V74h-1.6
	L198,72.3z M194.1,72.6c1.3,0,2.3-0.4,2.9-1.1c0.6-0.7,0.9-1.9,0.9-3.5v-0.4c0-1.8-0.3-3.1-0.9-3.9c-0.6-0.8-1.6-1.2-2.9-1.2
	c-1.1,0-2,0.4-2.6,1.3c-0.6,0.9-0.9,2.1-0.9,3.8c0,1.6,0.3,2.9,0.9,3.7C192.1,72.2,192.9,72.6,194.1,72.6z M205.9,74H204V61.2h1.9
	V74z M203.8,57.7c0-0.4,0.1-0.8,0.3-1c0.2-0.2,0.5-0.3,0.8-0.3c0.3,0,0.6,0.1,0.8,0.3c0.2,0.2,0.3,0.5,0.3,1s-0.1,0.8-0.3,1
	c-0.2,0.2-0.5,0.3-0.8,0.3c-0.3,0-0.6-0.1-0.8-0.3C203.9,58.4,203.8,58.1,203.8,57.7z M216,60.9c1.7,0,3,0.6,3.9,1.7
	c0.9,1.1,1.4,2.8,1.4,4.9s-0.5,3.8-1.4,4.9c-0.9,1.2-2.2,1.7-3.9,1.7c-0.8,0-1.6-0.2-2.3-0.5c-0.7-0.3-1.3-0.8-1.7-1.4h-0.1
	l-0.4,1.7H210V55.8h1.9v4.4c0,1,0,1.9-0.1,2.7h0.1C212.9,61.6,214.2,60.9,216,60.9z M215.7,62.6c-1.3,0-2.3,0.4-2.9,1.1
	c-0.6,0.8-0.9,2-0.9,3.8c0,1.8,0.3,3.1,0.9,3.9c0.6,0.8,1.6,1.2,2.9,1.2c1.2,0,2.1-0.4,2.7-1.3c0.6-0.9,0.9-2.1,0.9-3.8
	c0-1.7-0.3-2.9-0.9-3.7C217.9,63,217,62.6,215.7,62.6z M226.6,61.2v8.3c0,1,0.2,1.8,0.7,2.3c0.5,0.5,1.2,0.8,2.2,0.8
	c1.3,0,2.3-0.4,2.9-1.1c0.6-0.7,0.9-1.9,0.9-3.6v-6.7h1.9V74h-1.6l-0.3-1.7h-0.1c-0.4,0.6-1,1.1-1.7,1.5c-0.7,0.3-1.5,0.5-2.4,0.5
	c-1.6,0-2.7-0.4-3.5-1.1c-0.8-0.7-1.2-1.9-1.2-3.6v-8.4H226.6z M237.9,79.8c-0.7,0-1.3-0.1-1.8-0.3v-1.6c0.5,0.2,1.1,0.2,1.6,0.2
	c0.6,0,1.1-0.2,1.3-0.5c0.3-0.3,0.4-0.8,0.4-1.5v-15h1.9V76C241.5,78.5,240.3,79.8,237.9,79.8z M239.3,57.7c0-0.4,0.1-0.8,0.3-1
	c0.2-0.2,0.5-0.3,0.8-0.3c0.3,0,0.6,0.1,0.8,0.3c0.2,0.2,0.3,0.5,0.3,1s-0.1,0.8-0.3,1c-0.2,0.2-0.5,0.3-0.8,0.3
	c-0.3,0-0.6-0.1-0.8-0.3C239.5,58.4,239.3,58.1,239.3,57.7z M256.7,67.6c0,2.1-0.5,3.7-1.6,4.9c-1.1,1.2-2.5,1.8-4.4,1.8
	c-1.1,0-2.2-0.3-3.1-0.8c-0.9-0.5-1.6-1.3-2.1-2.3c-0.5-1-0.7-2.2-0.7-3.5c0-2.1,0.5-3.7,1.6-4.9c1-1.2,2.5-1.8,4.4-1.8
	c1.8,0,3.2,0.6,4.3,1.8C256.1,63.9,256.7,65.5,256.7,67.6z M246.9,67.6c0,1.6,0.3,2.9,1,3.8c0.7,0.9,1.6,1.3,2.9,1.3
	c1.3,0,2.2-0.4,2.9-1.3c0.7-0.9,1-2.1,1-3.8c0-1.6-0.3-2.9-1-3.7c-0.7-0.9-1.6-1.3-2.9-1.3c-1.3,0-2.2,0.4-2.9,1.3
	C247.2,64.7,246.9,65.9,246.9,67.6z M271.5,74.2c-1.9,0-3.3-0.6-4.3-1.7c-1-1.1-1.5-2.8-1.5-4.9c0-2.1,0.5-3.8,1.5-5
	c1-1.2,2.5-1.8,4.4-1.8c0.6,0,1.2,0.1,1.9,0.2c0.6,0.1,1.1,0.3,1.5,0.5l-0.6,1.7c-0.4-0.2-0.9-0.3-1.4-0.4c-0.5-0.1-1-0.2-1.3-0.2
	c-2.6,0-3.9,1.7-3.9,5c0,1.6,0.3,2.8,0.9,3.6c0.6,0.8,1.6,1.3,2.8,1.3c1.1,0,2.2-0.2,3.3-0.7v1.7C273.8,74,272.8,74.2,271.5,74.2z
	 M279.6,61.2v8.3c0,1,0.2,1.8,0.7,2.3c0.5,0.5,1.2,0.8,2.2,0.8c1.3,0,2.3-0.4,2.9-1.1c0.6-0.7,0.9-1.9,0.9-3.6v-6.7h1.9V74h-1.6
	l-0.3-1.7h-0.1c-0.4,0.6-1,1.1-1.7,1.5c-0.7,0.3-1.5,0.5-2.4,0.5c-1.6,0-2.7-0.4-3.5-1.1c-0.8-0.7-1.2-1.9-1.2-3.6v-8.4H279.6z
	 M290.5,61.2h2.1l2.8,7.3c0.6,1.7,1,2.9,1.1,3.6h0.1c0.1-0.4,0.3-1.1,0.6-2c0.3-1,1.4-3.9,3.2-8.9h2.1L297,75.8
	c-0.5,1.4-1.2,2.5-1.9,3.1c-0.7,0.6-1.6,0.9-2.7,0.9c-0.6,0-1.2-0.1-1.8-0.2V78c0.4,0.1,0.9,0.1,1.4,0.1c1.3,0,2.3-0.8,2.9-2.3
	l0.7-1.8L290.5,61.2z M315.7,67.6c0,2.1-0.5,3.7-1.6,4.9c-1.1,1.2-2.5,1.8-4.4,1.8c-1.1,0-2.2-0.3-3.1-0.8c-0.9-0.5-1.6-1.3-2.1-2.3
	c-0.5-1-0.7-2.2-0.7-3.5c0-2.1,0.5-3.7,1.6-4.9c1-1.2,2.5-1.8,4.4-1.8c1.8,0,3.2,0.6,4.3,1.8C315.1,63.9,315.7,65.5,315.7,67.6z
	 M305.9,67.6c0,1.6,0.3,2.9,1,3.8s1.6,1.3,2.9,1.3c1.3,0,2.2-0.4,2.9-1.3c0.7-0.9,1-2.1,1-3.8c0-1.6-0.3-2.9-1-3.7
	c-0.7-0.9-1.6-1.3-2.9-1.3c-1.3,0-2.2,0.4-2.9,1.3C306.2,64.7,305.9,65.9,305.9,67.6z M334.1,74v-8.3c0-1-0.2-1.8-0.7-2.3
	c-0.5-0.5-1.2-0.8-2.2-0.8c-1.3,0-2.3,0.4-3,1.1c-0.6,0.7-0.9,1.9-0.9,3.6V74h-1.9V61.2h1.6l0.3,1.8h0.1c0.4-0.6,1-1.1,1.7-1.5
	c0.7-0.4,1.5-0.5,2.4-0.5c1.5,0,2.7,0.4,3.5,1.1c0.8,0.7,1.2,1.9,1.2,3.6V74H334.1z M351.2,67.6c0,2.1-0.5,3.7-1.6,4.9
	c-1.1,1.2-2.5,1.8-4.4,1.8c-1.1,0-2.2-0.3-3.1-0.8c-0.9-0.5-1.6-1.3-2.1-2.3c-0.5-1-0.7-2.2-0.7-3.5c0-2.1,0.5-3.7,1.6-4.9
	c1-1.2,2.5-1.8,4.4-1.8c1.8,0,3.2,0.6,4.3,1.8C350.6,63.9,351.2,65.5,351.2,67.6z M341.4,67.6c0,1.6,0.3,2.9,1,3.8
	c0.7,0.9,1.6,1.3,2.9,1.3c1.3,0,2.2-0.4,2.9-1.3c0.7-0.9,1-2.1,1-3.8c0-1.6-0.3-2.9-1-3.7c-0.7-0.9-1.6-1.3-2.9-1.3
	c-1.3,0-2.2,0.4-2.9,1.3C341.7,64.7,341.4,65.9,341.4,67.6z M371,74v-8.4c0-1-0.2-1.8-0.7-2.3c-0.4-0.5-1.1-0.8-2-0.8
	c-1.2,0-2.1,0.3-2.7,1c-0.6,0.7-0.9,1.8-0.9,3.2V74h-1.9v-8.4c0-1-0.2-1.8-0.7-2.3c-0.4-0.5-1.1-0.8-2.1-0.8c-1.2,0-2.1,0.4-2.7,1.1
	c-0.6,0.7-0.8,1.9-0.8,3.6V74h-1.9V61.2h1.6l0.3,1.8h0.1c0.4-0.6,0.9-1.1,1.5-1.5c0.7-0.4,1.4-0.5,2.3-0.5c2,0,3.3,0.7,3.9,2.2h0.1
	c0.4-0.7,0.9-1.2,1.7-1.6c0.7-0.4,1.6-0.6,2.5-0.6c1.5,0,2.5,0.4,3.3,1.1c0.7,0.7,1.1,1.9,1.1,3.6V74H371z M382.9,60.9
	c1.7,0,3,0.6,3.9,1.7c0.9,1.1,1.4,2.8,1.4,4.9s-0.5,3.8-1.4,4.9c-0.9,1.2-2.2,1.7-3.9,1.7c-0.8,0-1.6-0.2-2.3-0.5
	c-0.7-0.3-1.3-0.8-1.7-1.4h-0.1l-0.4,1.7h-1.4V55.8h1.9v4.4c0,1,0,1.9-0.1,2.7h0.1C379.8,61.6,381.1,60.9,382.9,60.9z M382.6,62.6
	c-1.3,0-2.3,0.4-2.9,1.1c-0.6,0.8-0.9,2-0.9,3.8c0,1.8,0.3,3.1,0.9,3.9c0.6,0.8,1.6,1.2,2.9,1.2c1.2,0,2.1-0.4,2.7-1.3
	c0.6-0.9,0.9-2.1,0.9-3.8c0-1.7-0.3-2.9-0.9-3.7C384.8,63,383.8,62.6,382.6,62.6z M397.5,60.9c0.6,0,1.1,0,1.5,0.1l-0.3,1.8
	c-0.5-0.1-1-0.2-1.4-0.2c-1,0-1.9,0.4-2.7,1.3c-0.7,0.8-1.1,1.9-1.1,3.2V74h-1.9V61.2h1.6l0.2,2.4h0.1c0.5-0.8,1.1-1.5,1.7-1.9
	C396,61.1,396.7,60.9,397.5,60.9z M406.9,74.2c-1.9,0-3.4-0.6-4.5-1.7c-1.1-1.2-1.6-2.8-1.6-4.8c0-2.1,0.5-3.7,1.5-4.9
	c1-1.2,2.4-1.8,4.1-1.8c1.6,0,2.9,0.5,3.8,1.6c0.9,1.1,1.4,2.4,1.4,4.2v1.2h-8.8c0,1.5,0.4,2.7,1.1,3.4c0.7,0.8,1.7,1.2,3.1,1.2
	c1.4,0,2.8-0.3,4.1-0.9v1.7c-0.7,0.3-1.3,0.5-2,0.6C408.5,74.2,407.7,74.2,406.9,74.2z M406.3,62.6c-1,0-1.9,0.3-2.5,1
	c-0.6,0.7-1,1.6-1.1,2.8h6.7c0-1.2-0.3-2.2-0.8-2.8C408.1,62.9,407.4,62.6,406.3,62.6z M429.9,74v-8.3c0-1-0.2-1.8-0.7-2.3
	c-0.5-0.5-1.2-0.8-2.2-0.8c-1.3,0-2.3,0.4-3,1.1c-0.6,0.7-0.9,1.9-0.9,3.6V74h-1.9V61.2h1.6l0.3,1.8h0.1c0.4-0.6,1-1.1,1.7-1.5
	c0.7-0.4,1.5-0.5,2.4-0.5c1.5,0,2.7,0.4,3.5,1.1c0.8,0.7,1.2,1.9,1.2,3.6V74H429.9z M447,67.6c0,2.1-0.5,3.7-1.6,4.9
	c-1.1,1.2-2.5,1.8-4.4,1.8c-1.1,0-2.2-0.3-3.1-0.8c-0.9-0.5-1.6-1.3-2.1-2.3c-0.5-1-0.7-2.2-0.7-3.5c0-2.1,0.5-3.7,1.6-4.9
	c1-1.2,2.5-1.8,4.4-1.8c1.8,0,3.2,0.6,4.3,1.8C446.4,63.9,447,65.5,447,67.6z M437.2,67.6c0,1.6,0.3,2.9,1,3.8s1.6,1.3,2.9,1.3
	c1.3,0,2.2-0.4,2.9-1.3c0.7-0.9,1-2.1,1-3.8c0-1.6-0.3-2.9-1-3.7c-0.7-0.9-1.6-1.3-2.9-1.3c-1.3,0-2.2,0.4-2.9,1.3
	C437.5,64.7,437.2,65.9,437.2,67.6z M462.5,60.9c0.6,0,1.1,0,1.5,0.1l-0.3,1.8c-0.5-0.1-1-0.2-1.4-0.2c-1,0-1.9,0.4-2.7,1.3
	c-0.7,0.8-1.1,1.9-1.1,3.2V74h-1.9V61.2h1.6l0.2,2.4h0.1c0.5-0.8,1.1-1.5,1.7-1.9C460.9,61.1,461.7,60.9,462.5,60.9z M468.4,74h-1.9
	V61.2h1.9V74z M466.3,57.7c0-0.4,0.1-0.8,0.3-1c0.2-0.2,0.5-0.3,0.8-0.3c0.3,0,0.6,0.1,0.8,0.3c0.2,0.2,0.3,0.5,0.3,1
	s-0.1,0.8-0.3,1c-0.2,0.2-0.5,0.3-0.8,0.3c-0.3,0-0.6-0.1-0.8-0.3C466.4,58.4,466.3,58.1,466.3,57.7z M488.9,74v-8.4
	c0-1-0.2-1.8-0.7-2.3c-0.4-0.5-1.1-0.8-2-0.8c-1.2,0-2.1,0.3-2.7,1c-0.6,0.7-0.9,1.8-0.9,3.2V74h-1.9v-8.4c0-1-0.2-1.8-0.7-2.3
	c-0.4-0.5-1.1-0.8-2.1-0.8c-1.2,0-2.1,0.4-2.7,1.1c-0.6,0.7-0.8,1.9-0.8,3.6V74h-1.9V61.2h1.6l0.3,1.8h0.1c0.4-0.6,0.9-1.1,1.5-1.5
	c0.7-0.4,1.4-0.5,2.3-0.5c2,0,3.3,0.7,3.9,2.2h0.1c0.4-0.7,0.9-1.2,1.7-1.6c0.7-0.4,1.6-0.6,2.5-0.6c1.5,0,2.5,0.4,3.3,1.1
	c0.7,0.7,1.1,1.9,1.1,3.6V74H488.9z M502.7,74l-0.4-1.8h-0.1c-0.6,0.8-1.3,1.4-1.9,1.6c-0.6,0.3-1.4,0.4-2.4,0.4c-1.3,0-2.3-0.3-3-1
	c-0.7-0.7-1.1-1.6-1.1-2.8c0-2.6,2.1-4,6.2-4.1l2.2-0.1v-0.8c0-1-0.2-1.8-0.7-2.2c-0.4-0.5-1.1-0.7-2.1-0.7c-1.1,0-2.3,0.3-3.6,1
	l-0.6-1.5c0.6-0.3,1.3-0.6,2.1-0.8c0.8-0.2,1.5-0.3,2.3-0.3c1.5,0,2.7,0.3,3.4,1c0.7,0.7,1.1,1.8,1.1,3.3V74H502.7z M498.3,72.6
	c1.2,0,2.2-0.3,2.8-1c0.7-0.7,1-1.6,1-2.8v-1.2l-1.9,0.1c-1.5,0.1-2.7,0.3-3.4,0.7c-0.7,0.4-1,1.1-1,2c0,0.7,0.2,1.2,0.6,1.6
	C497,72.4,497.6,72.6,498.3,72.6z M507.9,72.8c0-0.5,0.1-0.9,0.4-1.2c0.2-0.3,0.6-0.4,1-0.4c0.5,0,0.8,0.1,1.1,0.4
	c0.3,0.3,0.4,0.7,0.4,1.2c0,0.5-0.1,0.9-0.4,1.2c-0.3,0.3-0.6,0.4-1.1,0.4c-0.4,0-0.7-0.1-1-0.4C508,73.7,507.9,73.3,507.9,72.8z"/>
<path d="M100,17.3c0,2.8-0.8,5-2.3,6.5C96.2,25.3,94,26,91.1,26h-4.7V8.9h5.3c2.7,0,4.7,0.7,6.2,2.2C99.3,12.6,100,14.6,100,17.3z
	 M97.9,17.3c0-2.2-0.6-3.9-1.7-5.1c-1.1-1.1-2.8-1.7-5-1.7h-2.9v13.7h2.4c2.4,0,4.2-0.6,5.4-1.7C97.3,21.4,97.9,19.6,97.9,17.3z
	 M105.5,26h-1.9V13.2h1.9V26z M103.4,9.7c0-0.4,0.1-0.8,0.3-1c0.2-0.2,0.5-0.3,0.8-0.3c0.3,0,0.6,0.1,0.8,0.3c0.2,0.2,0.3,0.5,0.3,1
	c0,0.4-0.1,0.8-0.3,1c-0.2,0.2-0.5,0.3-0.8,0.3c-0.3,0-0.6-0.1-0.8-0.3C103.5,10.4,103.4,10.1,103.4,9.7z M121.3,26.2
	c-1.9,0-3.4-0.6-4.5-1.7c-1.1-1.2-1.6-2.8-1.6-4.8c0-2.1,0.5-3.7,1.5-4.9c1-1.2,2.4-1.8,4.1-1.8c1.6,0,2.9,0.5,3.8,1.6
	c0.9,1.1,1.4,2.4,1.4,4.2v1.2h-8.8c0,1.5,0.4,2.7,1.1,3.4c0.7,0.8,1.7,1.2,3.1,1.2c1.4,0,2.8-0.3,4.1-0.9v1.7
	c-0.7,0.3-1.3,0.5-2,0.6C122.9,26.2,122.2,26.2,121.3,26.2z M120.8,14.6c-1,0-1.9,0.3-2.5,1c-0.6,0.7-1,1.6-1.1,2.8h6.7
	c0-1.2-0.3-2.2-0.8-2.8C122.6,14.9,121.8,14.6,120.8,14.6z M138.1,26v-8.3c0-1-0.2-1.8-0.7-2.3c-0.5-0.5-1.2-0.8-2.2-0.8
	c-1.3,0-2.3,0.4-3,1.1c-0.6,0.7-0.9,1.9-0.9,3.6V26h-1.9V13.2h1.6l0.3,1.8h0.1c0.4-0.6,1-1.1,1.7-1.5c0.7-0.4,1.5-0.5,2.4-0.5
	c1.5,0,2.7,0.4,3.5,1.1c0.8,0.7,1.2,1.9,1.2,3.6V26H138.1z M153.1,26l-4.9-12.8h2.1l2.8,7.6c0.6,1.8,1,2.9,1.1,3.5h0.1
	c0.1-0.4,0.4-1.3,0.8-2.6c0.5-1.3,1.5-4.1,3.1-8.5h2.1L155.4,26H153.1z M173.4,19.6c0,2.1-0.5,3.7-1.6,4.9c-1.1,1.2-2.5,1.8-4.4,1.8
	c-1.1,0-2.2-0.3-3.1-0.8c-0.9-0.5-1.6-1.3-2.1-2.3c-0.5-1-0.7-2.2-0.7-3.5c0-2.1,0.5-3.7,1.6-4.9c1-1.2,2.5-1.8,4.4-1.8
	c1.8,0,3.2,0.6,4.3,1.8C172.9,15.9,173.4,17.5,173.4,19.6z M163.7,19.6c0,1.6,0.3,2.9,1,3.8c0.7,0.9,1.6,1.3,2.9,1.3
	c1.3,0,2.2-0.4,2.9-1.3c0.7-0.9,1-2.1,1-3.8c0-1.6-0.3-2.9-1-3.7c-0.7-0.9-1.6-1.3-2.9-1.3c-1.3,0-2.2,0.4-2.9,1.3
	C164,16.7,163.7,17.9,163.7,19.6z M185.1,26h-9.3v-1.3l7-10h-6.6v-1.5h8.7v1.5l-6.9,9.8h7.1V26z M202.2,26l-0.4-1.8h-0.1
	c-0.6,0.8-1.3,1.4-1.9,1.6c-0.6,0.3-1.4,0.4-2.4,0.4c-1.3,0-2.3-0.3-3-1c-0.7-0.7-1.1-1.6-1.1-2.8c0-2.6,2.1-4,6.2-4.1l2.2-0.1v-0.8
	c0-1-0.2-1.8-0.7-2.2c-0.4-0.5-1.1-0.7-2.1-0.7c-1.1,0-2.3,0.3-3.6,1l-0.6-1.5c0.6-0.3,1.3-0.6,2.1-0.8c0.8-0.2,1.5-0.3,2.3-0.3
	c1.5,0,2.7,0.3,3.4,1c0.7,0.7,1.1,1.8,1.1,3.3V26H202.2z M197.8,24.6c1.2,0,2.2-0.3,2.8-1c0.7-0.7,1-1.6,1-2.8v-1.2l-1.9,0.1
	c-1.5,0.1-2.7,0.3-3.4,0.7c-0.7,0.4-1,1.1-1,2c0,0.7,0.2,1.2,0.6,1.6C196.5,24.4,197.1,24.6,197.8,24.6z M209.6,26h-1.9V7.8h1.9V26z
	 M217.9,24.6c0.3,0,0.7,0,1-0.1c0.3-0.1,0.6-0.1,0.8-0.2v1.5c-0.2,0.1-0.5,0.2-0.9,0.2c-0.4,0.1-0.8,0.1-1.1,0.1
	c-2.5,0-3.7-1.3-3.7-3.9v-7.6h-1.8v-0.9l1.8-0.8l0.8-2.7h1.1v3h3.7v1.5h-3.7v7.6c0,0.8,0.2,1.4,0.6,1.8
	C216.8,24.4,217.3,24.6,217.9,24.6z M230.1,26l-0.4-1.8h-0.1c-0.6,0.8-1.3,1.4-1.9,1.6c-0.6,0.3-1.4,0.4-2.4,0.4c-1.3,0-2.3-0.3-3-1
	c-0.7-0.7-1.1-1.6-1.1-2.8c0-2.6,2.1-4,6.2-4.1l2.2-0.1v-0.8c0-1-0.2-1.8-0.7-2.2c-0.4-0.5-1.1-0.7-2.1-0.7c-1.1,0-2.3,0.3-3.6,1
	l-0.6-1.5c0.6-0.3,1.3-0.6,2.1-0.8c0.8-0.2,1.5-0.3,2.3-0.3c1.5,0,2.7,0.3,3.4,1c0.7,0.7,1.1,1.8,1.1,3.3V26H230.1z M225.7,24.6
	c1.2,0,2.2-0.3,2.8-1c0.7-0.7,1-1.6,1-2.8v-1.2l-1.9,0.1c-1.5,0.1-2.7,0.3-3.4,0.7c-0.7,0.4-1,1.1-1,2c0,0.7,0.2,1.2,0.6,1.6
	C224.4,24.4,225,24.6,225.7,24.6z M247.3,26.2c-1.9,0-3.4-0.6-4.5-1.7c-1.1-1.2-1.6-2.8-1.6-4.8c0-2.1,0.5-3.7,1.5-4.9
	c1-1.2,2.4-1.8,4.1-1.8c1.6,0,2.9,0.5,3.8,1.6c0.9,1.1,1.4,2.4,1.4,4.2v1.2h-8.8c0,1.5,0.4,2.7,1.1,3.4c0.7,0.8,1.7,1.2,3.1,1.2
	c1.4,0,2.8-0.3,4.1-0.9v1.7c-0.7,0.3-1.3,0.5-2,0.6C248.9,26.2,248.1,26.2,247.3,26.2z M246.7,14.6c-1,0-1.9,0.3-2.5,1
	c-0.6,0.7-1,1.6-1.1,2.8h6.7c0-1.2-0.3-2.2-0.8-2.8C248.5,14.9,247.7,14.6,246.7,14.6z M257.3,26h-1.9V7.8h1.9V26z M276.4,26v-8.3
	c0-1-0.2-1.8-0.7-2.3c-0.5-0.5-1.2-0.8-2.2-0.8c-1.3,0-2.3,0.4-3,1.1c-0.6,0.7-0.9,1.9-0.9,3.6V26h-1.9V13.2h1.6l0.3,1.8h0.1
	c0.4-0.6,1-1.1,1.7-1.5c0.7-0.4,1.5-0.5,2.4-0.5c1.5,0,2.7,0.4,3.5,1.1c0.8,0.7,1.2,1.9,1.2,3.6V26H276.4z M293.4,19.6
	c0,2.1-0.5,3.7-1.6,4.9c-1.1,1.2-2.5,1.8-4.4,1.8c-1.1,0-2.2-0.3-3.1-0.8c-0.9-0.5-1.6-1.3-2.1-2.3c-0.5-1-0.7-2.2-0.7-3.5
	c0-2.1,0.5-3.7,1.6-4.9c1-1.2,2.5-1.8,4.4-1.8c1.8,0,3.2,0.6,4.3,1.8C292.9,15.9,293.4,17.5,293.4,19.6z M283.7,19.6
	c0,1.6,0.3,2.9,1,3.8c0.7,0.9,1.6,1.3,2.9,1.3c1.3,0,2.2-0.4,2.9-1.3c0.7-0.9,1-2.1,1-3.8c0-1.6-0.3-2.9-1-3.7
	c-0.7-0.9-1.6-1.3-2.9-1.3c-1.3,0-2.2,0.4-2.9,1.3C284,16.7,283.7,17.9,283.7,19.6z M313.2,26v-8.4c0-1-0.2-1.8-0.7-2.3
	c-0.4-0.5-1.1-0.8-2-0.8c-1.2,0-2.1,0.3-2.7,1c-0.6,0.7-0.9,1.8-0.9,3.2V26H305v-8.4c0-1-0.2-1.8-0.7-2.3c-0.4-0.5-1.1-0.8-2.1-0.8
	c-1.2,0-2.1,0.4-2.7,1.1c-0.6,0.7-0.8,1.9-0.8,3.6V26h-1.9V13.2h1.6l0.3,1.8h0.1c0.4-0.6,0.9-1.1,1.5-1.5c0.7-0.4,1.4-0.5,2.3-0.5
	c2,0,3.3,0.7,3.9,2.2h0.1c0.4-0.7,0.9-1.2,1.7-1.6c0.7-0.4,1.6-0.6,2.5-0.6c1.5,0,2.5,0.4,3.3,1.1c0.7,0.7,1.1,1.9,1.1,3.6V26H313.2
	z M325.2,12.9c1.7,0,3,0.6,3.9,1.7c0.9,1.1,1.4,2.8,1.4,4.9s-0.5,3.8-1.4,4.9c-0.9,1.2-2.2,1.7-3.9,1.7c-0.8,0-1.6-0.2-2.3-0.5
	c-0.7-0.3-1.3-0.8-1.7-1.4H321l-0.4,1.7h-1.4V7.8h1.9v4.4c0,1,0,1.9-0.1,2.7h0.1C322,13.6,323.4,12.9,325.2,12.9z M324.9,14.6
	c-1.3,0-2.3,0.4-2.9,1.1c-0.6,0.8-0.9,2-0.9,3.8c0,1.8,0.3,3.1,0.9,3.9c0.6,0.8,1.6,1.2,2.9,1.2c1.2,0,2.1-0.4,2.7-1.3
	c0.6-0.9,0.9-2.1,0.9-3.8c0-1.7-0.3-2.9-0.9-3.7S326.1,14.6,324.9,14.6z M339.8,12.9c0.6,0,1.1,0,1.5,0.1l-0.3,1.8
	c-0.5-0.1-1-0.2-1.4-0.2c-1,0-1.9,0.4-2.7,1.3c-0.7,0.8-1.1,1.9-1.1,3.2V26h-1.9V13.2h1.6l0.2,2.4h0.1c0.5-0.8,1.1-1.5,1.7-1.9
	C338.2,13.1,339,12.9,339.8,12.9z M349.1,26.2c-1.9,0-3.4-0.6-4.5-1.7c-1.1-1.2-1.6-2.8-1.6-4.8c0-2.1,0.5-3.7,1.5-4.9
	c1-1.2,2.4-1.8,4.1-1.8c1.6,0,2.9,0.5,3.8,1.6c0.9,1.1,1.4,2.4,1.4,4.2v1.2H345c0,1.5,0.4,2.7,1.1,3.4c0.7,0.8,1.7,1.2,3.1,1.2
	c1.4,0,2.8-0.3,4.1-0.9v1.7c-0.7,0.3-1.3,0.5-2,0.6C350.7,26.2,350,26.2,349.1,26.2z M348.6,14.6c-1,0-1.9,0.3-2.5,1
	c-0.6,0.7-1,1.6-1.1,2.8h6.7c0-1.2-0.3-2.2-0.8-2.8C350.4,14.9,349.6,14.6,348.6,14.6z M372.2,24.3h-0.1c-0.9,1.3-2.2,2-4,2
	c-1.7,0-3-0.6-3.9-1.7c-0.9-1.1-1.4-2.8-1.4-4.9s0.5-3.8,1.4-4.9c0.9-1.2,2.2-1.8,3.9-1.8c1.7,0,3.1,0.6,4,1.9h0.2l-0.1-0.9l0-0.9
	V7.8h1.9V26h-1.6L372.2,24.3z M368.3,24.6c1.3,0,2.3-0.4,2.9-1.1c0.6-0.7,0.9-1.9,0.9-3.5v-0.4c0-1.8-0.3-3.1-0.9-3.9
	c-0.6-0.8-1.6-1.2-2.9-1.2c-1.1,0-2,0.4-2.6,1.3c-0.6,0.9-0.9,2.1-0.9,3.8c0,1.6,0.3,2.9,0.9,3.7C366.2,24.2,367.1,24.6,368.3,24.6z
	 M383.6,26.2c-1.9,0-3.4-0.6-4.5-1.7c-1.1-1.2-1.6-2.8-1.6-4.8c0-2.1,0.5-3.7,1.5-4.9c1-1.2,2.4-1.8,4.1-1.8c1.6,0,2.9,0.5,3.8,1.6
	c0.9,1.1,1.4,2.4,1.4,4.2v1.2h-8.8c0,1.5,0.4,2.7,1.1,3.4c0.7,0.8,1.7,1.2,3.1,1.2c1.4,0,2.8-0.3,4.1-0.9v1.7
	c-0.7,0.3-1.3,0.5-2,0.6C385.2,26.2,384.4,26.2,383.6,26.2z M383,14.6c-1,0-1.9,0.3-2.5,1c-0.6,0.7-1,1.6-1.1,2.8h6.7
	c0-1.2-0.3-2.2-0.8-2.8C384.8,14.9,384.1,14.6,383,14.6z M403,26.2c-1.9,0-3.3-0.6-4.3-1.7c-1-1.1-1.5-2.8-1.5-4.9
	c0-2.1,0.5-3.8,1.5-5c1-1.2,2.5-1.8,4.4-1.8c0.6,0,1.2,0.1,1.9,0.2c0.6,0.1,1.1,0.3,1.5,0.5l-0.6,1.7c-0.4-0.2-0.9-0.3-1.4-0.4
	c-0.5-0.1-1-0.2-1.3-0.2c-2.6,0-3.9,1.7-3.9,5c0,1.6,0.3,2.8,0.9,3.6c0.6,0.8,1.6,1.3,2.8,1.3c1.1,0,2.2-0.2,3.3-0.7v1.7
	C405.4,26,404.3,26.2,403,26.2z M417.2,26l-0.4-1.8h-0.1c-0.6,0.8-1.3,1.4-1.9,1.6c-0.6,0.3-1.4,0.4-2.4,0.4c-1.3,0-2.3-0.3-3-1
	c-0.7-0.7-1.1-1.6-1.1-2.8c0-2.6,2.1-4,6.2-4.1l2.2-0.1v-0.8c0-1-0.2-1.8-0.7-2.2c-0.4-0.5-1.1-0.7-2.1-0.7c-1.1,0-2.3,0.3-3.6,1
	l-0.6-1.5c0.6-0.3,1.3-0.6,2.1-0.8c0.8-0.2,1.5-0.3,2.3-0.3c1.5,0,2.7,0.3,3.4,1c0.7,0.7,1.1,1.8,1.1,3.3V26H417.2z M412.8,24.6
	c1.2,0,2.2-0.3,2.8-1c0.7-0.7,1-1.6,1-2.8v-1.2l-1.9,0.1c-1.5,0.1-2.7,0.3-3.4,0.7c-0.7,0.4-1,1.1-1,2c0,0.7,0.2,1.2,0.6,1.6
	C411.4,24.4,412,24.6,412.8,24.6z M431.4,24.3h-0.1c-0.9,1.3-2.2,2-4,2c-1.7,0-3-0.6-3.9-1.7c-0.9-1.1-1.4-2.8-1.4-4.9
	s0.5-3.8,1.4-4.9c0.9-1.2,2.2-1.8,3.9-1.8c1.7,0,3.1,0.6,4,1.9h0.2l-0.1-0.9l0-0.9V7.8h1.9V26h-1.6L431.4,24.3z M427.5,24.6
	c1.3,0,2.3-0.4,2.9-1.1c0.6-0.7,0.9-1.9,0.9-3.5v-0.4c0-1.8-0.3-3.1-0.9-3.9c-0.6-0.8-1.6-1.2-2.9-1.2c-1.1,0-2,0.4-2.6,1.3
	c-0.6,0.9-0.9,2.1-0.9,3.8c0,1.6,0.3,2.9,0.9,3.7C425.5,24.2,426.3,24.6,427.5,24.6z M445.3,26l-0.4-1.8h-0.1
	c-0.6,0.8-1.3,1.4-1.9,1.6c-0.6,0.3-1.4,0.4-2.4,0.4c-1.3,0-2.3-0.3-3-1c-0.7-0.7-1.1-1.6-1.1-2.8c0-2.6,2.1-4,6.2-4.1l2.2-0.1v-0.8
	c0-1-0.2-1.8-0.7-2.2c-0.4-0.5-1.1-0.7-2.1-0.7c-1.1,0-2.3,0.3-3.6,1l-0.6-1.5c0.6-0.3,1.3-0.6,2.1-0.8c0.8-0.2,1.5-0.3,2.3-0.3
	c1.5,0,2.7,0.3,3.4,1c0.7,0.7,1.1,1.8,1.1,3.3V26H445.3z M440.9,24.6c1.2,0,2.2-0.3,2.8-1c0.7-0.7,1-1.6,1-2.8v-1.2l-1.9,0.1
	c-1.5,0.1-2.7,0.3-3.4,0.7c-0.7,0.4-1,1.1-1,2c0,0.7,0.2,1.2,0.6,1.6C439.5,24.4,440.1,24.6,440.9,24.6z M465.7,24.3h-0.1
	c-0.9,1.3-2.2,2-4,2c-1.7,0-3-0.6-3.9-1.7c-0.9-1.1-1.4-2.8-1.4-4.9s0.5-3.8,1.4-4.9c0.9-1.2,2.2-1.8,3.9-1.8c1.7,0,3.1,0.6,4,1.9
	h0.2l-0.1-0.9l0-0.9V7.8h1.9V26H466L465.7,24.3z M461.8,24.6c1.3,0,2.3-0.4,2.9-1.1c0.6-0.7,0.9-1.9,0.9-3.5v-0.4
	c0-1.8-0.3-3.1-0.9-3.9c-0.6-0.8-1.6-1.2-2.9-1.2c-1.1,0-2,0.4-2.6,1.3c-0.6,0.9-0.9,2.1-0.9,3.8c0,1.6,0.3,2.9,0.9,3.7
	C459.8,24.2,460.6,24.6,461.8,24.6z M473.6,26h-1.9V13.2h1.9V26z M471.5,9.7c0-0.4,0.1-0.8,0.3-1c0.2-0.2,0.5-0.3,0.8-0.3
	c0.3,0,0.6,0.1,0.8,0.3c0.2,0.2,0.3,0.5,0.3,1c0,0.4-0.1,0.8-0.3,1c-0.2,0.2-0.5,0.3-0.8,0.3c-0.3,0-0.6-0.1-0.8-0.3
	C471.6,10.4,471.5,10.1,471.5,9.7z M483.7,12.9c1.7,0,3,0.6,3.9,1.7c0.9,1.1,1.4,2.8,1.4,4.9s-0.5,3.8-1.4,4.9
	c-0.9,1.2-2.2,1.7-3.9,1.7c-0.8,0-1.6-0.2-2.3-0.5c-0.7-0.3-1.3-0.8-1.7-1.4h-0.1l-0.4,1.7h-1.4V7.8h1.9v4.4c0,1,0,1.9-0.1,2.7h0.1
	C480.6,13.6,481.9,12.9,483.7,12.9z M483.4,14.6c-1.3,0-2.3,0.4-2.9,1.1c-0.6,0.8-0.9,2-0.9,3.8c0,1.8,0.3,3.1,0.9,3.9
	c0.6,0.8,1.6,1.2,2.9,1.2c1.2,0,2.1-0.4,2.7-1.3c0.6-0.9,0.9-2.1,0.9-3.8c0-1.7-0.3-2.9-0.9-3.7S484.7,14.6,483.4,14.6z M494.3,13.2
	v8.3c0,1,0.2,1.8,0.7,2.3c0.5,0.5,1.2,0.8,2.2,0.8c1.3,0,2.3-0.4,2.9-1.1c0.6-0.7,0.9-1.9,0.9-3.6v-6.8h1.9V26h-1.6l-0.3-1.7h-0.1
	c-0.4,0.6-1,1.1-1.7,1.5c-0.7,0.3-1.5,0.5-2.4,0.5c-1.6,0-2.7-0.4-3.5-1.1c-0.8-0.7-1.2-1.9-1.2-3.6v-8.4H494.3z M505.7,31.8
	c-0.7,0-1.3-0.1-1.8-0.3v-1.6c0.5,0.2,1.1,0.2,1.6,0.2c0.6,0,1.1-0.2,1.3-0.5c0.3-0.3,0.4-0.8,0.4-1.5v-15h1.9V28
	C509.2,30.5,508,31.8,505.7,31.8z M507,9.7c0-0.4,0.1-0.8,0.3-1c0.2-0.2,0.5-0.3,0.8-0.3c0.3,0,0.6,0.1,0.8,0.3
	c0.2,0.2,0.3,0.5,0.3,1c0,0.4-0.1,0.8-0.3,1c-0.2,0.2-0.5,0.3-0.8,0.3c-0.3,0-0.6-0.1-0.8-0.3C507.2,10.4,507,10.1,507,9.7z
	 M524.4,19.6c0,2.1-0.5,3.7-1.6,4.9c-1.1,1.2-2.5,1.8-4.4,1.8c-1.1,0-2.2-0.3-3.1-0.8c-0.9-0.5-1.6-1.3-2.1-2.3
	c-0.5-1-0.7-2.2-0.7-3.5c0-2.1,0.5-3.7,1.6-4.9c1-1.2,2.5-1.8,4.4-1.8c1.8,0,3.2,0.6,4.3,1.8C523.8,15.9,524.4,17.5,524.4,19.6z
	 M514.6,19.6c0,1.6,0.3,2.9,1,3.8c0.7,0.9,1.6,1.3,2.9,1.3s2.2-0.4,2.9-1.3c0.7-0.9,1-2.1,1-3.8c0-1.6-0.3-2.9-1-3.7
	c-0.7-0.9-1.6-1.3-2.9-1.3c-1.3,0-2.2,0.4-2.9,1.3C514.9,16.7,514.6,17.9,514.6,19.6z M527.5,24.8c0-0.5,0.1-0.9,0.4-1.2
	c0.2-0.3,0.6-0.4,1-0.4c0.5,0,0.8,0.1,1.1,0.4c0.3,0.3,0.4,0.7,0.4,1.2c0,0.5-0.1,0.9-0.4,1.2c-0.3,0.3-0.6,0.4-1.1,0.4
	c-0.4,0-0.7-0.1-1-0.4C527.6,25.7,527.5,25.3,527.5,24.8z"/>
<path d="M95.9,126h-9.6v-17.1h9.6v1.8h-7.6v5.5h7.1v1.8h-7.1v6.3h7.6V126z M107.7,122.5c0,1.2-0.4,2.1-1.3,2.8c-0.9,0.6-2.1,1-3.8,1
	c-1.7,0-3-0.3-4-0.8v-1.8c0.6,0.3,1.3,0.6,2,0.7c0.7,0.2,1.4,0.3,2.1,0.3c1,0,1.8-0.2,2.3-0.5c0.5-0.3,0.8-0.8,0.8-1.5
	c0-0.5-0.2-0.9-0.7-1.3c-0.4-0.4-1.3-0.8-2.5-1.3c-1.2-0.4-2-0.8-2.6-1.2c-0.5-0.3-0.9-0.7-1.1-1.1c-0.2-0.4-0.4-0.9-0.4-1.5
	c0-1,0.4-1.9,1.3-2.5c0.9-0.6,2-0.9,3.5-0.9c1.4,0,2.7,0.3,4.1,0.8l-0.7,1.6c-1.3-0.5-2.5-0.8-3.5-0.8c-0.9,0-1.6,0.1-2.1,0.4
	c-0.5,0.3-0.7,0.7-0.7,1.2c0,0.3,0.1,0.6,0.3,0.9c0.2,0.2,0.5,0.5,0.9,0.7c0.4,0.2,1.1,0.5,2.3,0.9c1.5,0.6,2.6,1.1,3.1,1.7
	C107.4,120.9,107.7,121.6,107.7,122.5z M116,126.2c-1.9,0-3.3-0.6-4.3-1.7c-1-1.1-1.5-2.8-1.5-4.9c0-2.1,0.5-3.8,1.5-5
	c1-1.2,2.5-1.8,4.4-1.8c0.6,0,1.2,0.1,1.9,0.2c0.6,0.1,1.1,0.3,1.5,0.5l-0.6,1.7c-0.4-0.2-0.9-0.3-1.4-0.4c-0.5-0.1-1-0.2-1.3-0.2
	c-2.6,0-3.9,1.7-3.9,5c0,1.6,0.3,2.8,0.9,3.6c0.6,0.8,1.6,1.3,2.8,1.3c1.1,0,2.2-0.2,3.3-0.7v1.7C118.4,126,117.3,126.2,116,126.2z
	 M128.2,112.9c0.6,0,1.1,0,1.5,0.1l-0.3,1.8c-0.5-0.1-1-0.2-1.4-0.2c-1,0-1.9,0.4-2.7,1.3c-0.7,0.8-1.1,1.9-1.1,3.2v6.9h-1.9v-12.8
	h1.6l0.2,2.4h0.1c0.5-0.8,1.1-1.5,1.7-1.9C126.6,113.1,127.4,112.9,128.2,112.9z M134.1,126h-1.9v-12.8h1.9V126z M132,109.7
	c0-0.4,0.1-0.8,0.3-1c0.2-0.2,0.5-0.3,0.8-0.3c0.3,0,0.6,0.1,0.8,0.3c0.2,0.2,0.3,0.5,0.3,1c0,0.4-0.1,0.8-0.3,1
	c-0.2,0.2-0.5,0.3-0.8,0.3c-0.3,0-0.6-0.1-0.8-0.3C132.1,110.4,132,110.1,132,109.7z M144.2,112.9c1.7,0,3,0.6,3.9,1.7
	c0.9,1.1,1.4,2.8,1.4,4.9c0,2.1-0.5,3.8-1.4,4.9c-0.9,1.2-2.2,1.7-3.9,1.7c-0.8,0-1.6-0.2-2.3-0.5c-0.7-0.3-1.3-0.8-1.7-1.4H140
	l-0.4,1.7h-1.4v-18.2h1.9v4.4c0,1,0,1.9-0.1,2.7h0.1C141,113.6,142.4,112.9,144.2,112.9z M143.9,114.6c-1.3,0-2.3,0.4-2.9,1.1
	c-0.6,0.8-0.9,2-0.9,3.8c0,1.8,0.3,3.1,0.9,3.9c0.6,0.8,1.6,1.2,2.9,1.2c1.2,0,2.1-0.4,2.7-1.3c0.6-0.9,0.9-2.1,0.9-3.8
	c0-1.7-0.3-2.9-0.9-3.7C146,115,145.1,114.6,143.9,114.6z M158.3,126.2c-1.9,0-3.4-0.6-4.5-1.7c-1.1-1.2-1.6-2.8-1.6-4.8
	c0-2.1,0.5-3.7,1.5-4.9c1-1.2,2.4-1.8,4.1-1.8c1.6,0,2.9,0.5,3.8,1.6c0.9,1.1,1.4,2.4,1.4,4.2v1.2h-8.8c0,1.5,0.4,2.7,1.1,3.4
	c0.7,0.8,1.7,1.2,3.1,1.2c1.4,0,2.8-0.3,4.1-0.9v1.7c-0.7,0.3-1.3,0.5-2,0.6C159.9,126.2,159.2,126.2,158.3,126.2z M157.8,114.6
	c-1,0-1.9,0.3-2.5,1c-0.6,0.7-1,1.6-1.1,2.8h6.7c0-1.2-0.3-2.2-0.8-2.8C159.6,114.9,158.8,114.6,157.8,114.6z M174.6,126h-1.9v-18.2
	h1.9V126z M186.6,126l-0.4-1.8h-0.1c-0.6,0.8-1.3,1.4-1.9,1.6c-0.6,0.3-1.4,0.4-2.4,0.4c-1.3,0-2.3-0.3-3-1
	c-0.7-0.7-1.1-1.6-1.1-2.8c0-2.6,2.1-4,6.2-4.1l2.2-0.1v-0.8c0-1-0.2-1.8-0.7-2.2c-0.4-0.5-1.1-0.7-2.1-0.7c-1.1,0-2.3,0.3-3.6,1
	l-0.6-1.5c0.6-0.3,1.3-0.6,2.1-0.8c0.8-0.2,1.5-0.3,2.3-0.3c1.5,0,2.7,0.3,3.4,1c0.7,0.7,1.1,1.8,1.1,3.3v8.8H186.6z M182.2,124.6
	c1.2,0,2.2-0.3,2.8-1c0.7-0.7,1-1.6,1-2.8v-1.2l-1.9,0.1c-1.5,0.1-2.7,0.3-3.4,0.7c-0.7,0.4-1,1.1-1,2c0,0.7,0.2,1.2,0.6,1.6
	C180.8,124.4,181.4,124.6,182.2,124.6z M200.3,122.5c0,1.2-0.4,2.1-1.3,2.8c-0.9,0.6-2.1,1-3.8,1c-1.7,0-3-0.3-4-0.8v-1.8
	c0.6,0.3,1.3,0.6,2,0.7c0.7,0.2,1.4,0.3,2.1,0.3c1,0,1.8-0.2,2.3-0.5c0.5-0.3,0.8-0.8,0.8-1.5c0-0.5-0.2-0.9-0.7-1.3
	c-0.4-0.4-1.3-0.8-2.5-1.3c-1.2-0.4-2-0.8-2.6-1.2c-0.5-0.3-0.9-0.7-1.1-1.1c-0.2-0.4-0.4-0.9-0.4-1.5c0-1,0.4-1.9,1.3-2.5
	c0.9-0.6,2-0.9,3.5-0.9c1.4,0,2.7,0.3,4.1,0.8l-0.7,1.6c-1.3-0.5-2.5-0.8-3.5-0.8c-0.9,0-1.6,0.1-2.1,0.4c-0.5,0.3-0.7,0.7-0.7,1.2
	c0,0.3,0.1,0.6,0.3,0.9c0.2,0.2,0.5,0.5,0.9,0.7c0.4,0.2,1.1,0.5,2.3,0.9c1.5,0.6,2.6,1.1,3.1,1.7
	C200.1,120.9,200.3,121.6,200.3,122.5z M215.7,126.2c-0.8,0-1.6-0.2-2.3-0.5c-0.7-0.3-1.3-0.8-1.7-1.4h-0.1c0.1,0.8,0.1,1.5,0.1,2.1
	v5.3h-1.9v-18.6h1.6l0.3,1.8h0.1c0.5-0.7,1.1-1.2,1.7-1.5c0.7-0.3,1.4-0.5,2.3-0.5c1.7,0,3,0.6,3.9,1.7c0.9,1.2,1.4,2.8,1.4,4.9
	c0,2.1-0.5,3.8-1.4,4.9C218.7,125.7,217.4,126.2,215.7,126.2z M215.4,114.6c-1.3,0-2.3,0.4-2.8,1.1c-0.6,0.7-0.9,1.9-0.9,3.5v0.4
	c0,1.8,0.3,3.1,0.9,3.9c0.6,0.8,1.6,1.2,2.9,1.2c1.1,0,2-0.4,2.6-1.3c0.6-0.9,0.9-2.1,0.9-3.7c0-1.6-0.3-2.8-0.9-3.7
	C217.5,115,216.6,114.6,215.4,114.6z M232.4,126l-0.4-1.8h-0.1c-0.6,0.8-1.3,1.4-1.9,1.6c-0.6,0.3-1.4,0.4-2.4,0.4
	c-1.3,0-2.3-0.3-3-1c-0.7-0.7-1.1-1.6-1.1-2.8c0-2.6,2.1-4,6.2-4.1l2.2-0.1v-0.8c0-1-0.2-1.8-0.7-2.2c-0.4-0.5-1.1-0.7-2.1-0.7
	c-1.1,0-2.3,0.3-3.6,1l-0.6-1.5c0.6-0.3,1.3-0.6,2.1-0.8c0.8-0.2,1.5-0.3,2.3-0.3c1.5,0,2.7,0.3,3.4,1c0.7,0.7,1.1,1.8,1.1,3.3v8.8
	H232.4z M228,124.6c1.2,0,2.2-0.3,2.8-1c0.7-0.7,1-1.6,1-2.8v-1.2l-1.9,0.1c-1.5,0.1-2.7,0.3-3.4,0.7c-0.7,0.4-1,1.1-1,2
	c0,0.7,0.2,1.2,0.6,1.6C226.6,124.4,227.2,124.6,228,124.6z M239.8,126h-1.9v-18.2h1.9V126z M251.8,126l-0.4-1.8h-0.1
	c-0.6,0.8-1.3,1.4-1.9,1.6c-0.6,0.3-1.4,0.4-2.4,0.4c-1.3,0-2.3-0.3-3-1c-0.7-0.7-1.1-1.6-1.1-2.8c0-2.6,2.1-4,6.2-4.1l2.2-0.1v-0.8
	c0-1-0.2-1.8-0.7-2.2c-0.4-0.5-1.1-0.7-2.1-0.7c-1.1,0-2.3,0.3-3.6,1l-0.6-1.5c0.6-0.3,1.3-0.6,2.1-0.8c0.8-0.2,1.5-0.3,2.3-0.3
	c1.5,0,2.7,0.3,3.4,1c0.7,0.7,1.1,1.8,1.1,3.3v8.8H251.8z M247.4,124.6c1.2,0,2.2-0.3,2.8-1c0.7-0.7,1-1.6,1-2.8v-1.2l-1.9,0.1
	c-1.5,0.1-2.7,0.3-3.4,0.7c-0.7,0.4-1,1.1-1,2c0,0.7,0.2,1.2,0.6,1.6C246,124.4,246.6,124.6,247.4,124.6z M263.2,112.9
	c1.7,0,3,0.6,3.9,1.7c0.9,1.1,1.4,2.8,1.4,4.9c0,2.1-0.5,3.8-1.4,4.9c-0.9,1.2-2.2,1.7-3.9,1.7c-0.8,0-1.6-0.2-2.3-0.5
	c-0.7-0.3-1.3-0.8-1.7-1.4h-0.1l-0.4,1.7h-1.4v-18.2h1.9v4.4c0,1,0,1.9-0.1,2.7h0.1C260.1,113.6,261.4,112.9,263.2,112.9z
	 M262.9,114.6c-1.3,0-2.3,0.4-2.9,1.1c-0.6,0.8-0.9,2-0.9,3.8c0,1.8,0.3,3.1,0.9,3.9c0.6,0.8,1.6,1.2,2.9,1.2c1.2,0,2.1-0.4,2.7-1.3
	c0.6-0.9,0.9-2.1,0.9-3.8c0-1.7-0.3-2.9-0.9-3.7C265.1,115,264.2,114.6,262.9,114.6z M277.8,112.9c0.6,0,1.1,0,1.5,0.1l-0.3,1.8
	c-0.5-0.1-1-0.2-1.4-0.2c-1,0-1.9,0.4-2.7,1.3c-0.7,0.8-1.1,1.9-1.1,3.2v6.9H272v-12.8h1.6l0.2,2.4h0.1c0.5-0.8,1.1-1.5,1.7-1.9
	C276.3,113.1,277,112.9,277.8,112.9z M289.7,126l-0.4-1.8h-0.1c-0.6,0.8-1.3,1.4-1.9,1.6c-0.6,0.3-1.4,0.4-2.4,0.4
	c-1.3,0-2.3-0.3-3-1c-0.7-0.7-1.1-1.6-1.1-2.8c0-2.6,2.1-4,6.2-4.1l2.2-0.1v-0.8c0-1-0.2-1.8-0.7-2.2c-0.4-0.5-1.1-0.7-2.1-0.7
	c-1.1,0-2.3,0.3-3.6,1l-0.6-1.5c0.6-0.3,1.3-0.6,2.1-0.8c0.8-0.2,1.5-0.3,2.3-0.3c1.5,0,2.7,0.3,3.4,1c0.7,0.7,1.1,1.8,1.1,3.3v8.8
	H289.7z M285.3,124.6c1.2,0,2.2-0.3,2.8-1c0.7-0.7,1-1.6,1-2.8v-1.2l-1.9,0.1c-1.5,0.1-2.7,0.3-3.4,0.7c-0.7,0.4-1,1.1-1,2
	c0,0.7,0.2,1.2,0.6,1.6C283.9,124.4,284.5,124.6,285.3,124.6z M303.4,122.5c0,1.2-0.4,2.1-1.3,2.8c-0.9,0.6-2.1,1-3.8,1
	c-1.7,0-3-0.3-4-0.8v-1.8c0.6,0.3,1.3,0.6,2,0.7c0.7,0.2,1.4,0.3,2.1,0.3c1,0,1.8-0.2,2.3-0.5c0.5-0.3,0.8-0.8,0.8-1.5
	c0-0.5-0.2-0.9-0.7-1.3c-0.4-0.4-1.3-0.8-2.5-1.3c-1.2-0.4-2-0.8-2.6-1.2c-0.5-0.3-0.9-0.7-1.1-1.1c-0.2-0.4-0.4-0.9-0.4-1.5
	c0-1,0.4-1.9,1.3-2.5c0.9-0.6,2-0.9,3.5-0.9c1.4,0,2.7,0.3,4.1,0.8l-0.7,1.6c-1.3-0.5-2.5-0.8-3.5-0.8c-0.9,0-1.6,0.1-2.1,0.4
	c-0.5,0.3-0.7,0.7-0.7,1.2c0,0.3,0.1,0.6,0.3,0.9c0.2,0.2,0.5,0.5,0.9,0.7c0.4,0.2,1.1,0.5,2.3,0.9c1.5,0.6,2.6,1.1,3.1,1.7
	C303.1,120.9,303.4,121.6,303.4,122.5z M317.7,124.6c1.3,0,2.2-0.3,2.8-1c0.6-0.7,0.9-1.9,0.9-3.5v-0.4c0-1.8-0.3-3.1-0.9-3.9
	s-1.6-1.2-2.9-1.2c-1.1,0-2,0.4-2.6,1.3c-0.6,0.9-0.9,2.1-0.9,3.8c0,1.6,0.3,2.9,0.9,3.7C315.6,124.2,316.5,124.6,317.7,124.6z
	 M317.4,126.2c-1.7,0-2.9-0.6-3.9-1.7s-1.4-2.8-1.4-4.9c0-2.1,0.5-3.7,1.4-4.9c0.9-1.2,2.2-1.8,3.9-1.8c1.8,0,3.1,0.7,4.1,2h0.1
	l0.3-1.8h1.5v18.6h-1.9v-5.5c0-0.8,0-1.4,0.1-2h-0.2C320.5,125.6,319.2,126.2,317.4,126.2z M329.4,113.2v8.3c0,1,0.2,1.8,0.7,2.3
	s1.2,0.8,2.2,0.8c1.3,0,2.3-0.4,2.9-1.1c0.6-0.7,0.9-1.9,0.9-3.6v-6.8h1.9V126h-1.6l-0.3-1.7h-0.1c-0.4,0.6-1,1.1-1.7,1.5
	c-0.7,0.3-1.5,0.5-2.4,0.5c-1.6,0-2.7-0.4-3.5-1.1c-0.8-0.7-1.2-1.9-1.2-3.6v-8.4H329.4z M347.7,126.2c-1.9,0-3.4-0.6-4.5-1.7
	c-1.1-1.2-1.6-2.8-1.6-4.8c0-2.1,0.5-3.7,1.5-4.9c1-1.2,2.4-1.8,4.1-1.8c1.6,0,2.9,0.5,3.8,1.6c0.9,1.1,1.4,2.4,1.4,4.2v1.2h-8.8
	c0,1.5,0.4,2.7,1.1,3.4c0.7,0.8,1.7,1.2,3.1,1.2c1.4,0,2.8-0.3,4.1-0.9v1.7c-0.7,0.3-1.3,0.5-2,0.6
	C349.3,126.2,348.6,126.2,347.7,126.2z M347.2,114.6c-1,0-1.9,0.3-2.5,1c-0.6,0.7-1,1.6-1.1,2.8h6.7c0-1.2-0.3-2.2-0.8-2.8
	C349,114.9,348.2,114.6,347.2,114.6z M367.9,112.9c0.6,0,1.1,0,1.5,0.1l-0.3,1.8c-0.5-0.1-1-0.2-1.4-0.2c-1,0-1.9,0.4-2.7,1.3
	c-0.7,0.8-1.1,1.9-1.1,3.2v6.9H362v-12.8h1.6l0.2,2.4h0.1c0.5-0.8,1.1-1.5,1.7-1.9C366.3,113.1,367,112.9,367.9,112.9z M373.7,126
	h-1.9v-12.8h1.9V126z M371.6,109.7c0-0.4,0.1-0.8,0.3-1c0.2-0.2,0.5-0.3,0.8-0.3c0.3,0,0.6,0.1,0.8,0.3c0.2,0.2,0.3,0.5,0.3,1
	c0,0.4-0.1,0.8-0.3,1c-0.2,0.2-0.5,0.3-0.8,0.3c-0.3,0-0.6-0.1-0.8-0.3C371.7,110.4,371.6,110.1,371.6,109.7z M394.2,126v-8.4
	c0-1-0.2-1.8-0.7-2.3c-0.4-0.5-1.1-0.8-2-0.8c-1.2,0-2.1,0.3-2.7,1c-0.6,0.7-0.9,1.8-0.9,3.2v7.2H386v-8.4c0-1-0.2-1.8-0.7-2.3
	c-0.4-0.5-1.1-0.8-2.1-0.8c-1.2,0-2.1,0.4-2.7,1.1c-0.6,0.7-0.8,1.9-0.8,3.6v6.7h-1.9v-12.8h1.6l0.3,1.8h0.1
	c0.4-0.6,0.9-1.1,1.5-1.5c0.7-0.4,1.4-0.5,2.3-0.5c2,0,3.3,0.7,3.9,2.2h0.1c0.4-0.7,0.9-1.2,1.7-1.6c0.7-0.4,1.6-0.6,2.5-0.6
	c1.5,0,2.5,0.4,3.3,1.1c0.7,0.7,1.1,1.9,1.1,3.6v8.4H394.2z M408.1,126l-0.4-1.8h-0.1c-0.6,0.8-1.3,1.4-1.9,1.6
	c-0.6,0.3-1.4,0.4-2.4,0.4c-1.3,0-2.3-0.3-3-1c-0.7-0.7-1.1-1.6-1.1-2.8c0-2.6,2.1-4,6.2-4.1l2.2-0.1v-0.8c0-1-0.2-1.8-0.7-2.2
	c-0.4-0.5-1.1-0.7-2.1-0.7c-1.1,0-2.3,0.3-3.6,1l-0.6-1.5c0.6-0.3,1.3-0.6,2.1-0.8c0.8-0.2,1.5-0.3,2.3-0.3c1.5,0,2.7,0.3,3.4,1
	c0.7,0.7,1.1,1.8,1.1,3.3v8.8H408.1z M403.7,124.6c1.2,0,2.2-0.3,2.8-1c0.7-0.7,1-1.6,1-2.8v-1.2l-1.9,0.1c-1.5,0.1-2.7,0.3-3.4,0.7
	c-0.7,0.4-1,1.1-1,2c0,0.7,0.2,1.2,0.6,1.6C402.3,124.4,402.9,124.6,403.7,124.6z M422.3,126v-8.3c0-1-0.2-1.8-0.7-2.3
	c-0.5-0.5-1.2-0.8-2.2-0.8c-1.3,0-2.3,0.4-3,1.1c-0.6,0.7-0.9,1.9-0.9,3.6v6.7h-1.9v-12.8h1.6l0.3,1.8h0.1c0.4-0.6,1-1.1,1.7-1.5
	c0.7-0.4,1.5-0.5,2.4-0.5c1.5,0,2.7,0.4,3.5,1.1c0.8,0.7,1.2,1.9,1.2,3.6v8.4H422.3z M428,124.8c0-0.5,0.1-0.9,0.4-1.2
	c0.2-0.3,0.6-0.4,1-0.4c0.5,0,0.8,0.1,1.1,0.4c0.3,0.3,0.4,0.7,0.4,1.2c0,0.5-0.1,0.9-0.4,1.2c-0.3,0.3-0.6,0.4-1.1,0.4
	c-0.4,0-0.7-0.1-1-0.4C428.1,125.7,428,125.3,428,124.8z"/>
</svg>
