<?xml version="1.0" encoding="UTF-8" standalone="no"?>
<!-- Generator: Adobe Illustrator 15.1.0, SVG Export Plug-In . SVG Version: 6.00 Build 0)  -->

<svg
   version="1.1"
   id="Capa_1"
   x="0px"
   y="0px"
   width="1024"
   height="600"
   viewBox="0 56.641 1024 600"
   enable-background="new 0 56.641 841.891 482"
   xml:space="preserve"
   sodipodi:docname="svgGlo1bg.svg"
   inkscape:version="1.2.1 (9c6d41e410, 2022-07-14)"
   xmlns:inkscape="http://www.inkscape.org/namespaces/inkscape"
   xmlns:sodipodi="http://sodipodi.sourceforge.net/DTD/sodipodi-0.dtd"
   xmlns:xlink="http://www.w3.org/1999/xlink"
   xmlns="http://www.w3.org/2000/svg"
   xmlns:svg="http://www.w3.org/2000/svg"><defs
   id="defs749" /><sodipodi:namedview
   id="namedview747"
   pagecolor="#ffffff"
   bordercolor="#000000"
   borderopacity="0.25"
   inkscape:showpageshadow="2"
   inkscape:pageopacity="0.0"
   inkscape:pagecheckerboard="0"
   inkscape:deskcolor="#d1d1d1"
   showgrid="false"
   inkscape:zoom="1.0162826"
   inkscape:cx="421.14268"
   inkscape:cy="241.56666"
   inkscape:window-width="1920"
   inkscape:window-height="1018"
   inkscape:window-x="-8"
   inkscape:window-y="-8"
   inkscape:window-maximized="1"
   inkscape:current-layer="Capa_1" />
<g
   id="g8"
   transform="matrix(1.2367924,0,0,1.3004182,-21.205468,-32.732284)">
	<path
   fill="#45b9a7"
   d="m 209.718,129.177 c 12.965,-7.859 28.108,-24.477 185.946,-7.736 79.166,8.396 101.234,32.698 119.363,49.941 10.646,10.126 22.125,23.145 19.598,39.409 -3.857,24.835 -25.914,40.667 -45.727,51.243 -10.852,5.792 -22.26,10.129 -33.566,14.794 -5.326,2.198 -12.396,4.302 -17.063,8.165 -1.678,1.389 -1.055,2.871 0.506,4.143 6.15,5.009 14.832,8.222 21.963,10.859 l 0.396,0.146 c 47.756,17.678 98.348,24.422 147.098,38.227 21.295,6.03 42.314,13.604 62.115,23.905 11.883,6.182 28.541,15.073 34.354,28.875 10.762,25.566 -15.76,55.517 -33.678,68.049 -21.797,15.245 -47.717,21.753 -72.928,27.279 -30.742,6.737 -62.039,11.294 -93.205,15.207 -66.773,8.386 -127.433,-27.403 -193.731,-15.207 -47.52,8.741 -10.858,4.697 -59.511,0 -38.257,-10.355 -102.165,9.036 -108.362,0 -10.825,-15.784 -26.354,6.96 -34.69,-10.355 -8.302,-17.243 -5.364,17.804 -12.566,0 -5.62,-13.898 -16.318,15.309 -17,0 6.684,-14.506 -82.688,-84.973 27.595,-164.025 16.84,-8.88 34.29,-15.639 48.318,-29.468 11.182,-11.022 21.692,-28.046 17.966,-44.853 -4.385,-19.771 -24.475,-30.024 -29.623,-49.764 -6.204,-23.792 22.369,-33.941 38.125,-41.834 10.648,-5.335 19.105,-10.228 28.307,-17 z"
   id="path2" />
	<path
   fill="#1a8171"
   fill-opacity="0.7"
   d="m 614.818,471.882 c 25.191,29.204 -31.973,45.984 -68.684,39.78 -36.715,-6.204 -316.667,-1.872 -401.912,-1.57 -85.247,0.301 -18.87,-14.082 -47.387,-13.942 -28.517,0.142 -26.55,-24.628 -5.843,-31.248 20.706,-6.62 256.643,-17.116 272.149,-16.033 15.506,1.083 226.486,-6.193 251.677,23.013 z"
   id="path4" />
	<path
   fill="#2bb572"
   d="m 630.543,482.03 c 26.959,27.435 -8.967,32.511 -88.299,40.691 -79.332,8.18 -326.632,-7 -418.38,-7.109 -91.747,-0.111 -20.234,-13.261 -50.926,-13.261 -30.692,0 -28.444,-23.16 -6.124,-29.258 22.32,-6.098 276.303,-14.831 292.984,-13.748 16.682,1.086 243.788,-4.75 270.745,22.685 z"
   id="path6" />
</g>
<g
   id="g114"
   transform="matrix(1.2367924,0,0,1.3004182,-21.205468,-32.732284)">
	<path
   fill="#e5b32c"
   d="m 646.807,275.884 -3.675,1.022 5.33,19.911 4.31,-2.121 z"
   id="path10" />
	<path
   fill="#d9a015"
   d="m 648.129,275.825 5.12,19.009 -1.198,2.157 -0.564,-2.097 c 0.336,-0.637 0.353,-2.157 0.028,-3.529 -0.352,-1.46 -0.956,-2.198 -1.359,-1.647 -0.016,0.021 -0.03,0.044 -0.041,0.068 l -2.149,-7.967 -1.194,-5.926 z"
   id="path12" />
	<path
   fill="#e5b32c"
   d="m 695.623,268.016 -3.798,-0.402 -2.613,20.43 4.803,-0.381 z"
   id="path14" />
	<path
   fill="#d9a015"
   d="m 696.871,268.451 -2.464,19.517 -1.93,1.558 0.271,-2.152 c 0.553,-0.465 1.147,-1.872 1.366,-3.264 0.23,-1.485 -0.054,-2.391 -0.636,-2.03 -0.021,0.019 -0.045,0.034 -0.067,0.048 l 1.031,-8.175 1.145,-5.938 z"
   id="path16" />
	<path
   fill="#fa0f0c"
   d="m 688.823,285.456 c 0,0 3.737,32.422 -11.293,35.755 -15.029,3.336 -23.586,-28.01 -23.586,-28.01 l -8.354,2.742 c 0,0 6.696,25.474 6.202,28.392 -0.494,2.914 -3.95,5.83 -3.95,5.83 l 13.822,58.316 c 0,0 21.235,-1.459 35.061,-6.32 13.821,-4.859 20.168,-6.801 20.168,-6.801 l -8.814,-56.373 c 0,0 -4.442,-1.461 -5.924,-6.803 -1.48,-5.348 -5.43,-27.701 -5.43,-27.701 z"
   id="path18" />
	<path
   fill="#e5b32c"
   d="m 643.897,276.124 -3.629,1.181 6.93,22.813 3.899,-1.024 z"
   id="path20" />
	<path
   fill="#d9a015"
   d="m 645.213,276.017 2.353,6.129 2.37,7.558 c -0.342,0.617 -0.308,2.183 0.077,3.579 0.403,1.45 1.037,2.165 1.419,1.598 0.031,-0.042 0.058,-0.091 0.084,-0.148 l 0.67,2.139 -1.111,2.225 -7.177,-22.967 z"
   id="path22" />
	
		<path
   fill="none"
   stroke="#0d0d0c"
   stroke-width="0.438"
   stroke-linecap="round"
   stroke-linejoin="round"
   stroke-miterlimit="2.613"
   d="m 647.889,281.468 c 0.213,-0.297 0.537,0.095 0.72,0.869 0.186,0.775 0.162,1.636 -0.053,1.926 -0.209,0.294 -0.533,-0.097 -0.716,-0.869 -0.186,-0.774 -0.163,-1.636 0.049,-1.926 z"
   id="path24" />
	
		<path
   fill="none"
   stroke="#0d0d0c"
   stroke-width="0.438"
   stroke-linecap="round"
   stroke-linejoin="round"
   stroke-miterlimit="2.613"
   d="m 648.184,284.225 2.974,2.882"
   id="path26" />
	<path
   fill="#e5b32c"
   d="m 692.833,267.171 -3.81,-0.242 -2.237,23.713 4.007,0.483 z"
   id="path28" />
	<path
   fill="#d9a015"
   d="m 694.093,267.557 -0.144,6.55 -0.672,7.883 c -0.545,0.445 -1.115,1.911 -1.284,3.348 -0.18,1.491 0.138,2.391 0.709,2.007 0.042,-0.031 0.087,-0.069 0.134,-0.111 l -0.19,2.231 -1.876,1.655 2.061,-23.942 z"
   id="path30" />
	
		<path
   fill="none"
   stroke="#0d0d0c"
   stroke-width="0.438"
   stroke-linecap="round"
   stroke-linejoin="round"
   stroke-miterlimit="2.613"
   d="m 694.509,273.596 c 0.308,-0.193 0.458,0.288 0.335,1.073 -0.123,0.786 -0.473,1.579 -0.777,1.771 -0.309,0.192 -0.461,-0.291 -0.34,-1.075 0.126,-0.785 0.473,-1.578 0.782,-1.769 z"
   id="path32" />
	
		<path
   fill="none"
   stroke="#0d0d0c"
   stroke-width="0.438"
   stroke-linecap="round"
   stroke-linejoin="round"
   stroke-miterlimit="2.613"
   d="m 693.731,276.264 1.667,3.767"
   id="path34" />
	<path
   fill="none"
   stroke="#0d0d0c"
   stroke-width="1.413"
   stroke-miterlimit="2.613"
   d="M 464.473,295.132 C 334.509,294.258 207.425,266.063 102.423,217.648"
   id="path36" />
	<path
   fill="none"
   stroke="#0d0d0c"
   stroke-width="1.413"
   stroke-miterlimit="2.613"
   d="m 763.438,254.676 c 0,0 -139.124,41.515 -298.965,40.436"
   id="path38" />
	<path
   fill="#e5b32c"
   d="m 502.705,282.005 -3.815,-0.109 -0.985,20.57 4.756,-0.75 z"
   id="path40" />
	<path
   fill="#d9a015"
   d="m 503.983,282.339 -0.911,19.647 -1.794,1.703 0.096,-2.166 c 0.515,-0.511 0.995,-1.955 1.101,-3.358 0.116,-1.497 -0.241,-2.38 -0.792,-1.973 -0.021,0.016 -0.043,0.033 -0.066,0.055 l 0.381,-8.236 0.671,-6.009 z"
   id="path42" />
	<path
   fill="#e5b32c"
   d="m 563.563,283.822 3.636,-1.157 6.789,19.479 -4.781,0.588 z"
   id="path44" />
	<path
   fill="#d9a015"
   d="m 562.432,284.496 6.452,18.614 2.214,1.137 -0.712,-2.051 c -0.639,-0.346 -1.51,-1.602 -2.011,-2.921 -0.534,-1.408 -0.444,-2.352 0.2,-2.115 0.023,0.011 0.051,0.02 0.075,0.033 l -2.702,-7.8 -2.352,-5.586 z"
   id="path46" />
	<path
   fill="#e5b32c"
   d="m 606.788,280.655 -3.817,-0.108 -0.986,20.571 4.754,-0.752 z"
   id="path48" />
	<path
   fill="#d9a015"
   d="m 608.064,280.989 -0.91,19.649 -1.797,1.702 0.098,-2.164 c 0.517,-0.514 0.997,-1.958 1.102,-3.36 0.116,-1.497 -0.241,-2.38 -0.794,-1.973 -0.022,0.017 -0.042,0.033 -0.063,0.051 l 0.379,-8.231 0.67,-6.011 z"
   id="path50" />
	<path
   fill="#40a653"
   d="m 588.734,300.395 c -11.699,-0.116 -19.74,-1.674 -22.565,-1.325 -2.824,0.347 -2.245,2.493 -4.365,11.878 -2.121,9.385 -8.825,66.723 -5.65,72.979 3.177,6.258 13.771,12.164 17.652,0.348 3.886,-11.814 1.293,-53.611 3.761,-59.516 2.471,-5.91 11.421,-3.386 14.953,-0.258 3.53,3.129 9.887,47.611 12.711,57.342 2.824,9.729 18.359,12.166 16.592,-0.695 -1.763,-12.859 -11.601,-71.506 -11.517,-77.078 0.115,-7.567 -11.009,-3.569 -21.572,-3.675 z"
   id="path52" />
	<g
   id="g80">
		<defs
   id="defs55">
			<path
   id="SVGID_1_"
   d="m 588.734,300.395 c -11.699,-0.116 -19.74,-1.674 -22.565,-1.325 -2.824,0.347 -2.245,2.493 -4.365,11.878 -2.121,9.385 -8.825,66.723 -5.65,72.979 3.177,6.258 13.771,12.164 17.652,0.348 3.886,-11.814 1.293,-53.611 3.761,-59.516 2.471,-5.91 11.421,-3.386 14.953,-0.258 3.53,3.129 9.887,47.611 12.711,57.342 2.824,9.729 18.359,12.166 16.592,-0.695 -1.763,-12.859 -11.601,-71.506 -11.517,-77.078 0.115,-7.567 -11.009,-3.569 -21.572,-3.675 z" />
		</defs>
		<clipPath
   id="SVGID_2_">
			<use
   xlink:href="#SVGID_1_"
   overflow="visible"
   id="use57" />
		</clipPath>
		<path
   clip-path="url(#SVGID_2_)"
   fill="#ffffff"
   d="m 633.967,368.568 -37.28,4.943 0.798,5.834 37.283,-4.949 z"
   id="path60" />
		<path
   clip-path="url(#SVGID_2_)"
   fill="#ffffff"
   d="m 633.967,357.84 -37.28,4.945 0.798,5.832 37.283,-4.947 z"
   id="path62" />
		<path
   clip-path="url(#SVGID_2_)"
   fill="#ffffff"
   d="m 632.563,347.114 -37.281,4.942 0.798,5.832 37.281,-4.947 z"
   id="path64" />
		<path
   clip-path="url(#SVGID_2_)"
   fill="#ffffff"
   d="m 630.453,336.385 -37.281,4.945 0.798,5.833 37.28,-4.946 z"
   id="path66" />
		<path
   clip-path="url(#SVGID_2_)"
   fill="#ffffff"
   d="m 629.047,325.659 -37.282,4.946 0.8,5.83 37.282,-4.947 z"
   id="path68" />
		<path
   clip-path="url(#SVGID_2_)"
   fill="#ffffff"
   d="m 549.562,368.568 37.282,4.943 -0.8,5.834 -37.281,-4.949 z"
   id="path70" />
		<path
   clip-path="url(#SVGID_2_)"
   fill="#ffffff"
   d="m 549.562,357.84 37.282,4.945 -0.8,5.832 -37.281,-4.947 z"
   id="path72" />
		<path
   clip-path="url(#SVGID_2_)"
   fill="#ffffff"
   d="m 550.966,347.114 37.282,4.942 -0.797,5.832 -37.282,-4.947 z"
   id="path74" />
		<path
   clip-path="url(#SVGID_2_)"
   fill="#ffffff"
   d="m 553.076,336.385 37.281,4.945 -0.797,5.833 -37.283,-4.946 z"
   id="path76" />
		<path
   clip-path="url(#SVGID_2_)"
   fill="#ffffff"
   d="m 554.483,325.659 37.281,4.946 -0.8,5.83 -37.28,-4.947 z"
   id="path78" />
	</g>
	<path
   fill="#aa61a1"
   d="m 536.109,362.793 c 3.122,4.387 -1.651,7.441 -5.415,9.637 -3.761,2.197 -26.651,-41.757 -26.651,-41.757 0,0 -4.098,49.202 -3.564,54.3 0.536,5.092 -2.404,7.887 -23.462,3.885 -21.056,-4.002 -28.027,0.551 -27.957,-5.447 0.069,-5.998 8.062,-55.654 8.062,-55.654 0,0 -19.811,35.959 -22.685,39.078 -2.879,3.117 -2.373,4.486 -7.239,0.58 -4.864,-3.91 -4.31,-6.393 0.369,-16.41 4.015,-8.602 18.49,-36.326 25.11,-46.693 1.465,-2.289 3.469,-6.039 6.452,-6.354 6.96,-0.744 44.976,2.53 49.996,7.571 6.474,6.499 21.021,48.875 26.984,57.264 z"
   id="path82" />
	<path
   fill="#6d3466"
   d="m 465.149,297.751 c 6.224,0.008 25.932,0.727 31.108,3.067 -1.851,2.076 -4.67,5.713 -7.574,6.957 -4.218,1.807 -12.028,2.778 -18.376,-1.318 -2.49,-1.609 -4.627,-6.65 -5.158,-8.706 z"
   id="path84" />
	<path
   fill="#e5b32c"
   d="m 603.2,280.008 -3.812,0.267 0.999,23.79 4.036,-0.047 z"
   id="path86" />
	<path
   fill="#d9a015"
   d="m 604.502,280.228 0.746,6.51 0.406,7.901 c -0.485,0.512 -0.85,2.04 -0.823,3.488 0.028,1.502 0.464,2.348 0.975,1.896 0.036,-0.037 0.078,-0.081 0.116,-0.128 l 0.115,2.237 -1.632,1.883 -1.203,-23.999 z"
   id="path88" />
	
		<path
   fill="none"
   stroke="#0d0d0c"
   stroke-width="0.438"
   stroke-linecap="round"
   stroke-linejoin="round"
   stroke-miterlimit="2.613"
   d="m 605.732,286.157 c 0.278,-0.234 0.494,0.225 0.478,1.021 -0.015,0.793 -0.253,1.621 -0.533,1.854 -0.277,0.23 -0.495,-0.227 -0.476,-1.023 0.013,-0.791 0.253,-1.622 0.531,-1.852 z"
   id="path90" />
	
		<path
   fill="none"
   stroke="#0d0d0c"
   stroke-width="0.438"
   stroke-linecap="round"
   stroke-linejoin="round"
   stroke-miterlimit="2.613"
   d="m 605.326,288.902 2.158,3.515"
   id="path92" />
	<path
   fill="#e5b32c"
   d="m 499.117,281.356 -3.81,0.268 0.999,23.79 4.034,-0.046 z"
   id="path94" />
	<path
   fill="#d9a015"
   d="m 500.419,281.576 0.747,6.51 0.405,7.897 c -0.482,0.516 -0.848,2.043 -0.822,3.491 0.028,1.502 0.463,2.348 0.973,1.893 0.038,-0.033 0.082,-0.077 0.118,-0.124 l 0.113,2.236 -1.631,1.884 -1.203,-24 z"
   id="path96" />
	
		<path
   fill="none"
   stroke="#0d0d0c"
   stroke-width="0.438"
   stroke-linecap="round"
   stroke-linejoin="round"
   stroke-miterlimit="2.613"
   d="m 501.649,287.506 c 0.28,-0.233 0.494,0.226 0.479,1.021 -0.013,0.792 -0.253,1.624 -0.531,1.853 -0.281,0.232 -0.493,-0.225 -0.478,-1.022 0.012,-0.79 0.254,-1.623 0.53,-1.852 z"
   id="path98" />
	
		<path
   fill="none"
   stroke="#0d0d0c"
   stroke-width="0.438"
   stroke-linecap="round"
   stroke-linejoin="round"
   stroke-miterlimit="2.613"
   d="m 501.243,290.251 2.159,3.516"
   id="path100" />
	<path
   fill="#e5b32c"
   d="m 566.821,282.213 3.736,-0.797 5.802,23.119 -3.888,1.066 z"
   id="path102" />
	<path
   fill="#d9a015"
   d="m 565.637,282.781 1.131,6.456 1.858,7.699 c 0.615,0.356 1.399,1.725 1.783,3.121 0.4,1.45 0.224,2.385 -0.398,2.086 -0.049,-0.022 -0.096,-0.052 -0.146,-0.086 l 0.524,2.178 2.104,1.361 -5.663,-23.373 z"
   id="path104" />
	
		<path
   fill="none"
   stroke="#0d0d0c"
   stroke-width="0.438"
   stroke-linecap="round"
   stroke-linejoin="round"
   stroke-miterlimit="2.613"
   d="m 566.138,288.814 c -0.33,-0.145 -0.407,0.35 -0.168,1.108 0.24,0.758 0.704,1.491 1.039,1.635 0.334,0.146 0.407,-0.352 0.171,-1.111 -0.242,-0.757 -0.707,-1.488 -1.042,-1.632 z"
   id="path106" />
	
		<path
   fill="none"
   stroke="#0d0d0c"
   stroke-width="0.438"
   stroke-linecap="round"
   stroke-linejoin="round"
   stroke-miterlimit="2.613"
   d="m 567.31,291.336 -1.073,3.97"
   id="path108" />
	<path
   fill="#e5b32c"
   d="m 457.026,278.998 3.73,-0.799 5.803,23.12 -3.885,1.068 z"
   id="path110" />
	<path
   fill="#1f5c56"
   d="m 549.347,327.024 -0.063,-0.103 -0.229,0.07 c 0.163,0.064 0.196,0.039 0.253,0"
   id="path112" />
</g>
<g
   id="g400"
   transform="matrix(1.2367924,0,0,1.3004182,-21.205468,-32.732284)">
	<path
   fill="#1f5c56"
   d="m 329.21,316.78 -0.064,-0.149 c -0.24,-0.148 -0.355,-0.137 -0.482,-0.132 l -0.153,-0.103 c -0.062,0.008 0.084,0.149 0.049,0.172 l -0.209,-0.002 c -0.033,0.028 0.023,0.104 -0.066,0.104 l 0.268,0.211 0.14,-0.004 c 0.134,0.104 0.178,0.199 0.362,0.241 0.146,0.033 -0.008,-0.115 0.139,-0.065 -0.125,-0.161 0.033,-0.081 0.036,-0.174 l 0.074,0.032 -0.111,-0.144"
   id="path116" />
	<path
   fill="#1f5c56"
   d="m 329.015,317.412 -0.284,-0.273 -0.077,0.149 -0.11,-0.155 -0.276,-0.111 -0.093,0.069 -0.158,-0.032 -0.074,-0.088 c -0.179,-0.018 -0.074,0.106 0.014,0.236 0.089,0.129 0.021,0.098 -0.058,0.142 0.08,0.093 0.077,0.19 0.01,0.205 -0.155,0.034 -0.194,-0.118 -0.373,-0.21 -0.361,-0.178 -0.109,0.326 0.171,0.412 -0.04,0.01 -0.077,0.104 -0.158,0.083 -0.137,-0.039 -0.313,-0.195 -0.467,-0.21 0.083,0.13 0.263,0.266 0.449,0.385 L 327.543,318 c 0.049,0.074 -0.059,0.119 -0.077,0.163 0.154,0.102 0.3,0.125 0.281,0.044 0.158,0.104 0.073,0.146 0.271,0.256 0.107,0.061 0.16,0.051 0.214,0.039 l 0.025,-0.042 0.074,0.007 c 0.036,-0.023 0.135,0.035 0.013,-0.077 -0.108,-0.095 -0.13,-0.076 -0.197,-0.085 -0.075,-0.012 -0.135,0.074 -0.313,-0.073 -0.054,-0.042 -0.049,-0.208 0.014,-0.22 0.13,-0.028 0.325,0.207 0.493,0.236 0.086,0.015 -0.012,-0.059 0.107,-0.02 0.13,0.044 0.13,0.11 0.213,0.083 0.105,-0.037 -0.095,-0.251 -0.259,-0.232 0.067,-0.012 0.141,-0.009 0.013,-0.109 l -0.3,-0.158 c -0.115,-0.104 0.052,-0.146 0.084,-0.176 0.051,-0.045 -0.02,-0.094 0.17,0.029 0.104,0.065 0.234,0.2 0.325,0.205 0.081,0.002 -0.063,-0.098 0.079,-0.051 l 0.104,0.078 0.165,0.061 c -0.118,-0.144 -0.275,-0.192 -0.267,-0.285 0.005,-0.037 0.113,-0.005 0.03,-0.093 l -0.202,-0.119 c 0.078,-0.059 0.109,-0.03 0.291,0.012 0.079,0.016 0.228,0.046 0.135,-0.042"
   id="path118" />
	<path
   fill="#1f5c56"
   d="m 328.333,319.058 -0.223,-0.229 -0.224,-0.093 c -0.013,-0.072 0.078,-0.05 0.103,-0.09 0.025,-0.049 -0.063,-0.138 -0.14,-0.113 -0.035,0.012 -0.038,0.123 -0.167,-0.019 l -0.01,-0.139 c -0.277,-0.195 -0.223,0.115 -0.371,-0.02 l -0.124,-0.012 c 0.138,0.08 0.071,0.087 0.042,0.103 l -0.056,0.017 0.074,0.109 c 0.177,0.083 0.177,0.053 0.278,0.179 -0.078,-0.049 -0.383,-0.229 -0.401,-0.198 l 0.066,0.101 -0.049,0.039 -0.077,0.151 c -0.023,0.03 -0.095,0.025 -0.014,0.107 0.135,0.059 0.148,-0.003 0.295,0.108 l -0.073,-0.123 c 0,-0.037 0.102,-0.052 0.155,-0.053 l -0.052,0.077 c -0.009,-0.053 -0.016,-0.176 0.069,-0.151 l 0.422,0.229 -0.058,-0.111 0.222,0.16 c 0.165,0.072 0.041,-0.069 0.038,-0.113 0.084,0.039 0.435,0.192 0.266,0.039"
   id="path120" />
	<path
   fill="#1f5c56"
   d="m 327.128,319.999 -0.093,0.044 0.011,0.104 c -0.008,0.07 -0.063,0.149 -0.16,0.153 -0.035,-0.034 -0.269,-0.173 -0.319,-0.181 l -0.075,0.079 c 0.064,0.058 0.439,0.27 0.354,0.292 -0.08,0.023 -0.338,-0.183 -0.439,-0.256 l 0.009,0.136 c -0.025,0.021 -0.12,-0.03 -0.053,0.053 0.176,0.103 0.342,0.188 0.338,0.291 l -0.041,0.069 0.007,0.08 c -0.027,0.044 -0.162,0.008 -0.206,-0.097 l 0.032,-0.197 c -0.205,-0.116 -0.394,-0.229 -0.354,-0.315 l 0.19,-0.237 0.088,-0.214 0.067,-0.072 c 0.044,-0.021 0.049,-0.016 0.154,0.026 l -0.101,0.162 0.009,0.128 0.268,0.121 c 0,-0.111 0.182,-0.146 0.308,-0.165"
   id="path122" />
	<path
   fill="#1f5c56"
   d="m 326.167,320.272 -0.182,-0.014 -0.067,-0.069 c 0.02,0.07 0.124,0.167 0.254,0.244 -0.024,0.053 -0.137,0.034 -0.113,0.113 l -0.259,-0.172 0.142,0.168 c 0.025,0.076 -0.039,0.073 0.044,0.166 l 0.177,-0.012 c 0.098,0.085 0.172,0.175 0.185,0.233 0.179,0.066 0.245,0.025 0.271,-0.039 0.169,0.154 0.269,0.117 0.146,-0.008 -0.276,-0.082 -0.192,-0.165 -0.217,-0.248 -0.057,-0.187 -0.129,-0.138 -0.401,-0.327 l 0.022,-0.05 0.053,0.049"
   id="path124" />
	<path
   fill="#1f5c56"
   d="m 326.426,321.062 -0.603,-0.373 -0.017,0.2 c 0.129,0.043 0.242,0.07 0.175,-0.032 0.079,0.121 0.251,0.237 0.414,0.301 l -0.065,-0.185"
   id="path126" />
	<path
   fill="#1f5c56"
   d="m 325.494,320.587 c -0.015,0.054 -0.032,0.132 -0.2,0.021 l 0.188,-0.065 0.068,0.078"
   id="path128" />
	<path
   fill="#1f5c56"
   d="m 327.718,319.165 -0.124,-0.14 -0.061,0.091 -0.251,-0.168 c 0.097,0.086 0.154,0.129 0.142,0.168 l -0.109,0.093 -0.12,-0.106 c 0.122,0.187 0.17,0.384 -0.056,0.369 -0.181,-0.11 -0.014,-0.111 -0.001,-0.142 l -0.013,-0.093 0.069,-0.014 -0.032,-0.073 -0.002,-0.086 c -0.223,-0.059 -0.197,-0.036 -0.218,0.062 l -0.19,0.202 c -0.028,0.043 -0.14,0.049 -0.132,0.112 l 0.066,0.141 -0.142,0.042 0.172,0.023 c 0.017,-0.01 -0.027,-0.104 0.097,-0.03 l 0.062,-0.088 0.146,-0.04 0.142,0.137 c -0.068,0.004 -0.287,-0.043 -0.091,0.102 l 0.158,-0.026 0.002,0.021 -0.005,-0.049 -0.104,0.156 0.172,-0.12 0.029,0.063 0.079,-0.044 -0.004,0.008 0.125,-0.275 0.183,-0.256 -0.065,-0.037 0.088,0.005 -0.004,-0.021"
   id="path130" />
	<path
   fill="#1f5c56"
   d="m 327.125,318.709 -0.359,-0.149 c 0.077,0.091 0.336,0.294 0.378,0.354"
   id="path132" />
	<path
   fill="#1f5c56"
   d="m 327.277,319.721 -0.05,0.195 -0.214,-0.21 0.127,-0.021"
   id="path134" />
	<path
   fill="#1f5c56"
   d="m 325.963,320.997 0.317,0.277 -0.404,-0.258 -0.022,0.072 -0.166,-0.081 0.085,-0.137"
   id="path136" />
	<path
   fill="#1f5c56"
   d="m 325.743,321.149 c 0.039,0.145 0.321,0.358 0.546,0.521 -0.132,-0.1 -0.458,-0.24 -0.605,-0.312 l 0.114,0.153 -0.146,-0.109 0.071,0.119 -0.104,-0.063 c 0.109,0.098 0.208,0.262 -0.05,0.084 0.04,0.111 -0.119,0.064 -0.294,-0.04 0.053,-0.116 0.198,-0.163 0.172,-0.325 -0.147,-0.092 -0.314,-0.219 -0.373,-0.307 l 0.253,0.135 -0.165,-0.146 c 0.189,0.03 0.428,0.274 0.615,0.299"
   id="path138" />
	<path
   fill="#1f5c56"
   d="m 325.029,321.279 -0.084,-0.039 0.133,0.176 -0.049,-0.015 c 0.071,0.107 0.272,0.259 0.416,0.308 -10e-4,0.079 -0.064,0.175 0.14,0.304 l -0.002,-10e-4 c -0.166,-0.025 -0.179,0.09 -0.321,0.093 l 0.028,-0.167 c -0.227,0.069 -0.311,0.273 -0.413,0.437 -0.088,0.135 0.025,0.409 -0.197,0.453 l -0.18,-0.118 c 0.038,-0.094 0.212,-0.203 0.139,-0.345 -0.125,0.047 -0.328,-0.144 -0.46,-0.28 l 0.394,0.142 c -0.412,-0.278 -0.373,-0.386 0.05,-0.184 l -0.092,-0.078 0.2,0.092 -0.232,-0.154 c 0.142,-0.018 0.336,0.208 0.422,0.072 0.117,-0.183 -0.252,-0.123 -0.365,-0.332 l 0.23,0.043 0.215,0.108 c -0.137,-0.113 -0.315,-0.216 -0.367,-0.316 l 0.322,0.181 -0.297,-0.231 0.166,-0.07 0.198,0.153 c -0.292,-0.215 -0.13,-0.215 -0.184,-0.351 l 0.13,0.097"
   id="path140" />
	<path
   fill="#1f5c56"
   d="m 324.473,323.029 c 0.037,-0.056 0.229,-0.146 -0.034,-0.283 -0.024,-0.104 0.117,-0.123 0.012,-0.263 -0.179,-0.091 -0.21,-0.023 -0.199,0.054 -0.061,-0.079 -0.031,-0.124 -0.039,-0.181 -0.186,-0.045 -0.171,0.15 -0.216,0.22 l -0.16,0.246 0.298,0.187 c -0.266,-0.069 0.175,0.238 0.29,0.313 0.044,-0.034 -0.035,-0.119 -0.028,-0.168 l 0.069,-0.115"
   id="path142" />
	<path
   fill="#1f5c56"
   d="m 323.241,324.378 c 0.088,-0.083 0.024,-0.257 0.149,-0.314 l 0.269,0.248 c 0.117,-0.033 0.137,-0.191 -0.024,-0.372 l -0.308,0.073 0.108,-0.175 -0.13,-0.019 -0.091,-0.074 -0.088,0.089 -0.152,-0.2 -0.117,0.145 0.47,0.241"
   id="path144" />
	<path
   fill="#1f5c56"
   d="m 323.712,323.911 c -0.059,-0.157 0.216,-0.077 0.327,-0.12 0.224,0.063 0.057,-0.167 -0.227,-0.334 l 0.274,0.005 c -0.011,-0.005 0.138,0.103 0.153,0.113 l 0.072,-0.074 c 0.274,0.144 0.269,0.082 0.075,-0.109 l -0.25,-0.019 -0.164,-0.202 c -0.261,-0.009 -0.316,0.125 -0.404,0.259 0.012,0.034 0.012,-0.02 0.022,-0.033 l -0.173,0.033 0.127,0.162 -0.112,0.053 0.188,0.17 0.165,-0.014"
   id="path146" />
	<path
   fill="#1f5c56"
   d="m 301.695,365.108 -0.012,-0.133 -0.251,0.062 c 0.125,0.096 0.171,0.067 0.241,0.024"
   id="path148" />
	<path
   fill="#1f5c56"
   d="m 301.362,365.348 c 0.121,0.158 -0.023,0.197 -0.172,0.172 l 0.157,-0.152"
   id="path150" />
	<path
   fill="#1f5c56"
   d="m 301.513,366.317 c -0.063,-0.07 -0.035,-0.1 -0.146,-0.158 -0.038,0.061 0.036,0.076 0.041,0.081"
   id="path152" />
	<path
   fill="#1f5c56"
   d="m 300.992,365.856 c -0.095,-0.02 -0.146,-0.007 -0.126,0.114 l 0.146,0.073 -0.006,-0.205"
   id="path154" />
	<path
   fill="#1f5c56"
   d="m 300.474,366.5 c -0.095,0.135 -0.166,0.188 -0.084,0.394 0.074,0.19 0.275,0.307 0.224,0.467 0.344,0.145 -0.016,0.335 -0.167,0.282 0.051,0.385 -0.514,0.124 -0.807,-0.131 0.202,-0.1 0.241,-0.239 0.304,-0.406 0.054,-0.154 -0.045,-0.438 0.138,-0.491 0.339,0.242 0.186,-0.229 0.526,-0.078"
   id="path156" />
	<path
   fill="#1f5c56"
   d="m 299.664,367.768 -0.165,-0.137 c 0.072,0.124 0.061,0.2 -0.076,0.174 l -0.008,-0.116 -0.15,0.125 c 0.248,0.146 0.589,0.002 0.307,-0.14"
   id="path158" />
	<path
   fill="#1f5c56"
   d="m 300.061,368.619 c -0.036,-0.082 -0.062,-0.139 -0.17,-0.196 l -0.081,0.111 0.095,0.075 c -0.206,-0.042 -0.297,0.056 -0.292,0.202 l 0.08,0.021 0.025,-0.088 c 0.327,0.314 0.145,-0.159 0.406,-0.137"
   id="path160" />
	<path
   fill="#1f5c56"
   d="m 299.261,368.253 c 0.072,0.042 0.027,-0.038 0.086,0.024 v 0.146 c -0.112,-0.118 -0.12,-0.108 -0.055,-0.204 l 0.075,0.105"
   id="path162" />
	<path
   fill="#1f5c56"
   d="m 300.441,367.949 c 0.017,0.144 -0.183,0.297 -0.4,0.109 -0.217,-0.19 0.074,-0.25 0.247,0.014 l 0.103,-0.126"
   id="path164" />
	<path
   fill="#1f5c56"
   d="m 299.247,369.12 c -0.13,0.201 0.179,0.611 -0.321,0.569 0.093,0.232 0.2,0.563 -0.251,0.414 0.115,0.193 -0.031,0.266 0.07,0.441 l -0.225,-0.109 c 0.025,0.261 -0.274,0.261 -0.533,-0.061 l -0.239,0.104 c -0.063,-0.148 0.084,-0.198 0.062,-0.331 -0.022,-0.119 -0.205,-0.306 -0.265,-0.438 0.118,-0.041 0.283,-0.023 0.446,0.081 l -0.017,-0.119 -0.093,-0.07 c 0.025,-0.083 0.108,-0.13 0.225,-0.13 l 0.162,0.153 c -0.016,-0.106 0.032,-0.216 0.123,-0.26 l -0.258,-0.21 0.14,-0.073 c -0.434,-0.225 -0.038,-0.416 0.33,-0.108 0.119,-0.049 0.292,-0.049 0.289,-0.174 0.248,0.106 0.138,-0.086 0.272,-0.114 l -0.053,0.401 0.137,0.028 c 0.073,0.09 -10e-4,0.006 -10e-4,0.006 z"
   id="path166" />
	<path
   fill="#1f5c56"
   d="m 299.703,368.232 c 0.018,0.143 -0.015,0.143 -0.061,0.236 -0.04,0.076 0.023,0.174 -0.127,0.176 -0.135,0.003 -0.182,-0.035 -0.12,-0.124 l 0.093,-0.028 0.052,-0.104 c 0.158,0.098 0.105,-0.135 0.135,-0.186 l 0.076,0.035"
   id="path168" />
	<path
   fill="#1f5c56"
   d="m 297.677,370.589 c -0.025,0.076 -0.08,0.296 -0.239,0.237 -0.039,-0.076 0.077,-0.31 0.231,-0.228"
   id="path170" />
	<path
   fill="#1f5c56"
   d="m 298.04,370.782 c -0.066,0.017 -0.031,0.446 -0.205,0.339 -0.146,-0.088 0.074,-0.151 0.098,-0.18 l 0.054,-0.194"
   id="path172" />
	<path
   fill="#1f5c56"
   d="m 297.453,370.992 c -0.109,0.024 -0.084,0.191 0.03,0.296 l -0.104,0.202 0.17,0.053 c 0.205,0.225 0.152,0.562 0.025,0.684 -0.135,0.135 -0.291,0.02 -0.51,-0.13 -0.091,-0.06 -0.014,-0.065 -0.125,-0.098 l -0.2,0.005 c -0.142,-0.225 0.146,-0.214 0.367,-0.1 l -0.239,-0.182 -0.072,-0.117 c -0.075,-0.141 -0.033,-0.196 0.025,-0.289 l 0.206,-0.261 c 0.11,-0.078 0.23,-0.063 0.369,-0.089"
   id="path174" />
	<path
   fill="#1f5c56"
   d="m 296.506,370.5 c -0.097,-0.192 -0.288,-0.057 -0.39,-0.036 0.214,0.251 0.369,0.092 0.346,-0.05"
   id="path176" />
	<path
   fill="#1f5c56"
   d="m 297.345,369.343 c -0.099,-0.014 -0.271,0.032 -0.104,0.149 z"
   id="path178" />
	<path
   fill="#1f5c56"
   d="m 296.63,372.177 c 0.108,-0.013 0.13,0.095 0.108,0.156 -0.03,0.069 -0.122,0.002 -0.077,0.111 l 0.154,0.165 0.133,0.224 -0.21,-0.031 c -0.104,-0.054 -0.08,-0.135 -0.17,-0.173 -0.185,-0.084 -0.134,0.193 -0.268,0.186 l 0.248,0.215 0.194,0.287 -0.238,-0.035 -0.221,-0.194 c -0.225,-0.127 -0.056,0.097 -0.276,0.054 -0.165,-0.195 -0.076,-0.135 10e-4,-0.234 0.09,-0.119 -0.027,-0.171 -0.209,-0.273 0.06,-0.047 0.284,-0.161 0.418,-0.098 -0.002,-0.084 0.098,-0.2 -0.086,-0.299 0.064,-0.093 0.137,-0.06 0.257,-0.094 0.105,-0.03 0.122,-0.124 0.264,0.036"
   id="path180" />
	<path
   fill="#1f5c56"
   d="m 296.491,373.638 c -0.166,-0.093 -0.325,-0.254 -0.505,-0.292 0.025,0.118 -0.156,0.105 -0.29,0.007 l -0.09,-0.219 c -0.008,-0.132 0.404,-0.092 0.072,-0.232 -0.298,-0.13 -0.483,0.163 -0.288,0.379 0.124,0.134 0.322,0.09 0.406,0.201 0.087,0.117 -0.123,0.087 -0.215,0.069 l 0.002,0.26 c 0.04,0.102 0.227,0.212 0.092,0.264 0.15,0.218 0.208,0.016 0.235,-0.035 0.236,0.237 0.236,0.067 0.478,0.16 -0.039,-0.162 -0.139,-0.18 0.026,-0.231 0.085,-0.027 0.138,0.046 0.136,-0.049 l -0.135,-0.159 c 0.044,-0.029 0.089,-0.08 0.062,-0.142"
   id="path182" />
	<path
   fill="#1f5c56"
   d="m 295.377,374.164 c 0.098,0.203 -0.102,0.182 -0.161,0.311 -0.044,0.096 -0.009,0.204 -0.214,0.168 -0.075,-0.1 -0.127,-0.184 -0.104,-0.247 0.016,-0.049 0.093,-0.083 0.18,-0.039 -0.087,-0.104 -0.13,-0.255 0.08,-0.1 0.038,-0.062 0.157,-0.175 0.295,-0.063"
   id="path184" />
	<path
   fill="#1f5c56"
   d="m 295.855,374.413 c -0.1,-0.032 -0.207,-0.015 -0.194,0.061 0.011,0.067 0.129,0.114 0.069,0.159 -0.15,-0.189 -0.207,0.068 -0.258,0.105 -0.14,0.095 -0.121,0.063 -0.08,0.231 l -0.025,0.141 c 0.252,0.039 0.362,-0.043 0.344,-0.213 l -0.015,-0.209 0.147,-0.104 0.023,-0.186"
   id="path186" />
	<path
   fill="#1f5c56"
   d="m 295.235,375.634 c -0.026,0.082 0.251,0.198 0.322,0.284 0.054,0.07 0.035,0.244 -0.025,0.263 -0.095,0.037 -0.259,-0.073 -0.345,-0.153 -0.174,-0.16 -0.11,-0.19 0,-0.253 l -0.143,-0.02 -0.112,-0.037 -0.095,-0.056 -0.075,0.072 c -0.139,0.027 -0.251,-0.15 -0.386,-0.188 -0.073,-0.145 0.142,-0.237 -0.109,-0.319 l -0.228,-0.063 c -0.068,-0.059 -0.046,-0.159 0.005,-0.177 0.109,-0.032 0.312,0.098 0.439,0.135 l 0.223,0.034 c 0.083,0.024 0.146,0.086 0.213,0.056 l -0.172,-0.216 c -0.044,-0.027 -0.174,-0.047 -0.191,-0.063 -0.081,-0.075 0.084,-0.273 0.13,-0.302 0.112,0.076 0.2,0.044 0.284,0.094 0.092,0.057 0.085,0.213 0.208,0.223 0.093,0.134 0.25,0.231 0.225,0.354 -0.025,0.104 -0.228,0.195 -0.208,0.299"
   id="path188" />
	<path
   fill="#1f5c56"
   d="m 294.75,375.985 c -0.081,0.047 -0.079,0.242 -0.186,0.256 -0.105,0.012 -0.188,-0.069 -0.121,-0.127 -0.258,-0.138 -0.32,-0.2 -0.408,-0.032 l 0.258,0.112 0.217,0.143 c 0.142,0.076 0.378,0.172 0.51,0.172 -0.047,-0.107 -0.277,-0.261 -0.268,-0.35 0.002,-0.032 0.113,0 0.104,-0.067 l -0.134,-0.135 0.023,0.039"
   id="path190" />
	<path
   fill="#1f5c56"
   d="m 294.417,376.782 -0.032,-0.201 c -0.249,-0.14 -0.387,-0.084 -0.538,-0.034 -0.023,-0.066 -0.085,-0.125 -0.156,-0.101 -0.074,0.029 0.062,0.19 0.01,0.239 -0.055,0.048 -0.189,-0.002 -0.247,0.065 -0.046,0.051 0,0.146 -0.105,0.176 l 0.258,0.224 0.173,-0.053 c 0.129,0.109 0.158,0.236 0.363,0.236 0.164,0.003 0.023,-0.171 0.184,-0.144 -0.107,-0.195 0.062,-0.13 0.086,-0.268 l 0.077,0.025 -0.093,-0.177"
   id="path192" />
	<path
   fill="#1f5c56"
   d="m 294.017,377.778 -0.268,-0.305 -0.13,0.243 -0.09,-0.189 c -0.1,0.032 -0.176,-0.094 -0.3,-0.073 l -0.127,0.134 -0.176,0.008 -0.066,-0.106 c -0.208,0.041 -0.114,0.188 -0.041,0.349 0.075,0.162 0,0.141 -0.103,0.233 0.076,0.111 0.046,0.259 -0.035,0.306 -0.189,0.106 -0.201,-0.109 -0.392,-0.179 -0.381,-0.14 -0.202,0.524 0.108,0.551 -0.054,0.029 -0.117,0.188 -0.206,0.183 -0.154,-0.009 -0.324,-0.178 -0.504,-0.146 0.073,0.165 0.247,0.305 0.439,0.417 l 0.017,-0.025 c 0.044,0.09 -0.093,0.195 -0.126,0.27 0.158,0.096 0.326,0.076 0.323,-0.039 0.164,0.1 0.051,0.192 0.258,0.285 0.113,0.049 0.178,0.017 0.244,-0.019 l 0.04,-0.072 0.085,-0.018 c 0.044,-0.048 0.151,0.005 0.031,-0.115 -0.106,-0.105 -0.136,-0.072 -0.214,-0.062 -0.083,0.012 -0.175,0.158 -0.353,0.007 -0.049,-0.044 -0.005,-0.294 0.069,-0.334 0.159,-0.086 0.335,0.192 0.525,0.174 0.098,-0.01 0,-0.081 0.13,-0.066 0.144,0.018 0.125,0.119 0.232,0.044 0.129,-0.09 -0.053,-0.338 -0.249,-0.253 0.079,-0.036 0.166,-0.063 0.036,-0.165 -0.099,-0.081 -0.223,-0.035 -0.315,-0.13 -0.109,-0.114 0.094,-0.237 0.141,-0.292 0.072,-0.084 -10e-4,-0.13 0.193,-0.018 0.107,0.063 0.227,0.217 0.334,0.19 0.092,-0.025 -0.054,-0.121 0.102,-0.105 l 0.103,0.082 0.178,0.032 c -0.102,-0.173 -0.273,-0.188 -0.245,-0.332 0.015,-0.056 0.13,-0.044 0.059,-0.148 l -0.209,-0.105 c 0.104,-0.114 0.133,-0.081 0.341,-0.085 0.088,0 0.258,-0.005 0.17,-0.107"
   id="path194" />
	<path
   fill="#1f5c56"
   d="m 292.834,380.46 c -0.051,-0.079 -0.091,-0.2 -0.207,-0.263 l -0.244,-0.054 c 0.002,-0.105 0.105,-0.105 0.138,-0.17 0.042,-0.082 -0.04,-0.187 -0.138,-0.117 -0.042,0.027 -0.072,0.195 -0.193,0.03 -0.036,-0.055 -0.006,-0.17 0.024,-0.202 -0.284,-0.19 -0.293,0.253 -0.436,0.106 l -0.141,0.025 c 0.141,0.067 0.061,0.104 0.027,0.139 l -0.071,0.044 0.06,0.137 c 0.191,0.056 0.202,0.013 0.288,0.16 -0.079,-0.041 -0.4,-0.196 -0.428,-0.143 l 0.057,0.125 -0.067,0.074 -0.125,0.254 c -0.035,0.054 -0.122,0.075 -0.041,0.168 0.146,0.031 0.176,-0.059 0.326,0.053 l -0.06,-0.158 c 0.007,-0.056 0.129,-0.116 0.195,-0.137 l -0.079,0.132 c 0.001,-0.074 0.024,-0.253 0.113,-0.248 0.144,0.007 0.299,0.174 0.445,0.188 l -0.039,-0.147 0.224,0.156 c 0.175,0.049 0.062,-0.115 0.068,-0.179 0.089,0.028 0.47,0.128 0.304,-0.036"
   id="path196" />
	<path
   fill="#1f5c56"
   d="m 292.085,380.841 -0.116,-0.161 -0.091,0.156 c -0.086,-0.1 -0.19,-0.044 -0.26,-0.153 0.096,0.091 0.154,0.13 0.131,0.194 l -0.147,0.182 -0.118,-0.119 c 0.103,0.231 0.118,0.509 -0.144,0.571 -0.191,-0.096 0.007,-0.16 0.028,-0.209 l 0.001,-0.136 0.087,-0.045 -0.023,-0.098 0.017,-0.125 c -0.251,-0.003 -0.224,0.019 -0.272,0.174 l -0.264,0.371 c -0.045,0.076 -0.177,0.126 -0.185,0.22 l 0.047,0.183 -0.176,0.117 0.197,-0.029 c 0.025,-0.024 -0.009,-0.146 0.125,-0.081 l 0.092,-0.156 0.18,-0.114 0.137,0.146 c -0.084,0.032 -0.326,0.047 -0.129,0.186 l 0.192,-0.095 -0.005,0.031 0.007,-0.072 -0.156,0.271 0.227,-0.239 0.024,0.081 0.103,-0.096 -0.006,0.011 0.202,-0.454 0.272,-0.451 -0.071,-0.03 0.105,-0.024 v -0.027"
   id="path198" />
	<path
   fill="#1f5c56"
   d="m 291.209,382.302 -0.118,0.101 -0.012,0.153 c -0.025,0.104 -0.103,0.244 -0.219,0.286 -0.033,-0.037 -0.279,-0.152 -0.337,-0.149 -0.075,0.003 -0.074,0.116 -0.105,0.146 0.065,0.063 0.459,0.232 0.354,0.3 -0.095,0.065 -0.358,-0.142 -0.461,-0.212 l -0.021,0.195 c -0.033,0.044 -0.132,0.005 -0.075,0.103 0.185,0.083 0.365,0.148 0.339,0.302 l -0.064,0.119 -0.007,0.112 c -0.043,0.075 -0.193,0.075 -0.223,-0.062 -0.021,-0.101 0.036,-0.229 0.08,-0.307 -0.216,-0.096 -0.419,-0.19 -0.35,-0.332 l 0.277,-0.425 0.151,-0.354 0.093,-0.134 c 0.059,-0.047 0.061,-0.04 0.174,-0.017 l -0.152,0.277 -0.021,0.187 0.292,0.078 c 0.023,-0.165 0.244,-0.285 0.395,-0.36"
   id="path200" />
	<path
   fill="#1f5c56"
   d="m 290.02,383.074 -0.215,0.05 -0.063,-0.076 c 0.008,0.096 0.11,0.198 0.25,0.263 -0.038,0.089 -0.173,0.105 -0.159,0.215 l -0.27,-0.16 0.131,0.197 c 0.013,0.104 -0.06,0.125 0.013,0.231 l 0.217,-0.086 c 0.097,0.086 0.165,0.194 0.17,0.274 0.196,0.029 0.285,-0.058 0.329,-0.165 0.165,0.167 0.291,0.074 0.175,-0.068 -0.312,-0.012 -0.192,-0.168 -0.205,-0.28 -0.027,-0.257 -0.124,-0.156 -0.404,-0.33 l 0.038,-0.086 0.05,0.054"
   id="path202" />
	<path
   fill="#1f5c56"
   d="m 290.154,384.145 -0.629,-0.323 -0.064,0.307 c 0.141,0.017 0.272,0.012 0.215,-0.117 0.067,0.151 0.244,0.259 0.426,0.288 0.029,-0.07 0.002,-0.156 -0.042,-0.249"
   id="path204" />
	<path
   fill="#1f5c56"
   d="m 289.155,383.8 c -0.029,0.087 -0.069,0.209 -0.244,0.111 l 0.238,-0.171 0.064,0.092"
   id="path206" />
	<path
   fill="#1f5c56"
   d="m 291.491,380.381 c -0.107,0.023 -0.256,-0.013 -0.391,-0.086 0.069,0.106 0.33,0.312 0.367,0.385"
   id="path208" />
	<path
   fill="#1f5c56"
   d="m 291.444,381.831 -0.1,0.313 -0.205,-0.233 c 0.035,-0.065 0.097,-0.109 0.157,-0.078"
   id="path210" />
	<path
   fill="#1f5c56"
   d="m 289.622,384.226 0.317,0.295 -0.424,-0.229 -0.042,0.117 -0.177,-0.056 0.129,-0.236"
   id="path212" />
	<path
   fill="#1f5c56"
   d="m 289.33,384.541 c 0.018,0.197 0.305,0.409 0.537,0.563 -0.135,-0.096 -0.491,-0.177 -0.647,-0.228 l 0.104,0.181 -0.151,-0.103 0.058,0.149 -0.113,-0.054 c 0.113,0.103 0.194,0.31 -0.071,0.144 0.021,0.151 -0.154,0.145 -0.338,0.057 0.084,-0.195 0.263,-0.32 0.266,-0.555 -0.154,-0.075 -0.323,-0.201 -0.374,-0.309 l 0.27,0.103 -0.164,-0.155 c 0.214,-0.025 0.449,0.241 0.663,0.207"
   id="path214" />
	<path
   fill="#1f5c56"
   d="m 288.462,385.016 -0.093,-0.025 0.123,0.209 -0.055,-0.007 c 0.061,0.135 0.268,0.284 0.425,0.3 -0.019,0.119 -0.11,0.283 0.105,0.397 h -0.002 c -0.188,0.024 -0.23,0.202 -0.397,0.261 l 0.068,-0.261 c -0.282,0.193 -0.42,0.53 -0.577,0.812 -0.13,0.236 -0.056,0.598 -0.325,0.751 l -0.189,-0.106 c 0.066,-0.151 0.294,-0.381 0.234,-0.565 -0.157,0.118 -0.354,-0.086 -0.481,-0.239 l 0.434,0.061 c -0.426,-0.255 -0.363,-0.43 0.095,-0.295 l -0.093,-0.077 0.217,0.06 -0.244,-0.14 c 0.173,-0.082 0.357,0.176 0.486,-0.059 0.174,-0.318 -0.272,-0.083 -0.364,-0.351 l 0.264,-0.029 0.228,0.08 c -0.134,-0.116 -0.325,-0.2 -0.362,-0.33 l 0.34,0.147 -0.301,-0.229 0.209,-0.172 0.2,0.152 c -0.297,-0.207 -0.111,-0.271 -0.142,-0.449 l 0.131,0.091"
   id="path216" />
	<path
   fill="#1f5c56"
   d="m 287.443,387.832 c 0.055,-0.098 0.302,-0.308 0.019,-0.407 -0.007,-0.146 0.166,-0.229 0.072,-0.397 -0.195,-0.063 -0.244,0.049 -0.244,0.156 -0.058,-0.093 -0.016,-0.17 -0.01,-0.251 -0.21,0.005 -0.231,0.287 -0.303,0.411 l -0.241,0.425 c 0.105,-0.009 0.215,0.059 0.312,0.161 -0.297,-0.002 0.158,0.285 0.274,0.355 0.063,-0.072 -0.015,-0.162 0.005,-0.244 l 0.107,-0.192"
   id="path218" />
	<path
   fill="#1f5c56"
   d="m 285.694,390.307 c 0.124,-0.158 0.083,-0.388 0.247,-0.522 l 0.262,0.267 c 0.145,-0.098 0.206,-0.34 0.052,-0.547 l -0.377,0.227 0.161,-0.299 -0.148,0.023 -0.091,-0.075 -0.124,0.163 -0.135,-0.237 -0.17,0.259 c 0.204,0.015 0.313,0.105 0.503,0.179"
   id="path220" />
	<path
   fill="#1f5c56"
   d="m 286.354,389.432 c -0.035,-0.21 0.271,-0.196 0.415,-0.304 0.249,0.011 0.101,-0.268 -0.2,-0.409 l 0.323,-0.098 c -0.012,-0.004 0.141,0.102 0.158,0.11 l 0.103,-0.14 c 0.295,0.106 0.3,0.02 0.111,-0.189 l -0.292,0.069 -0.153,-0.236 c -0.305,0.086 -0.397,0.307 -0.532,0.536 0.006,0.05 0.021,-0.029 0.034,-0.056 l -0.209,0.116 0.116,0.19 -0.145,0.125 0.188,0.178 0.195,-0.083"
   id="path222" />
	<path
   fill="#1f5c56"
   d="m 226.751,341.292 -0.024,-0.114 -0.221,0.021 c 0.124,0.095 0.16,0.076 0.221,0.052"
   id="path224" />
	<path
   fill="#1f5c56"
   d="m 226.476,341.458 c 0.126,0.148 0.001,0.167 -0.135,0.13 l 0.123,-0.116"
   id="path226" />
	<path
   fill="#1f5c56"
   d="m 226.725,342.301 c -0.067,-0.065 -0.044,-0.088 -0.151,-0.15 l 0.045,0.076"
   id="path228" />
	<path
   fill="#1f5c56"
   d="m 211.633,295.616 c -0.002,0.125 -0.188,0.184 -0.35,-0.054 -0.164,-0.234 0.091,-0.178 0.206,0.103 l 0.104,-0.072"
   id="path230" />
	<path
   fill="#1f5c56"
   d="m 235.964,400.425 0.012,-0.126 -0.247,-0.007 c 0.1,0.118 0.146,0.104 0.222,0.084"
   id="path232" />
	<path
   fill="#1f5c56"
   d="m 235.607,400.561 c 0.081,0.179 -0.057,0.179 -0.192,0.122 l 0.173,-0.105"
   id="path234" />
	<path
   fill="#1f5c56"
   d="m 235.574,401.502 c -0.046,-0.078 -0.017,-0.1 -0.111,-0.184 -0.047,0.047 0.023,0.082 0.025,0.089"
   id="path236" />
	<path
   fill="#1f5c56"
   d="m 235.165,400.943 c -0.086,-0.041 -0.136,-0.044 -0.142,0.076 l 0.125,0.104 0.035,-0.193"
   id="path238" />
	<path
   fill="#1f5c56"
   d="m 234.559,401.412 c -0.113,0.103 -0.19,0.134 -0.151,0.345 0.033,0.197 0.202,0.357 0.125,0.494 0.296,0.224 -0.076,0.309 -0.21,0.222 -0.024,0.373 -0.507,-0.012 -0.732,-0.325 0.208,-0.042 0.273,-0.164 0.358,-0.306 0.081,-0.129 0.041,-0.422 0.222,-0.422 0.274,0.314 0.219,-0.165 0.511,0.061"
   id="path240" />
	<path
   fill="#1f5c56"
   d="m 233.566,402.39 -0.129,-0.17 c 0.042,0.132 0.018,0.203 -0.105,0.142 l 0.016,-0.111 -0.164,0.081 c 0.207,0.199 0.551,0.149 0.311,-0.055"
   id="path242" />
	<path
   fill="#1f5c56"
   d="m 233.777,403.295 c -0.022,-0.091 -0.031,-0.149 -0.124,-0.23 l -0.097,0.084 0.076,0.093 c -0.183,-0.089 -0.291,-0.024 -0.317,0.111 l 0.073,0.041 0.044,-0.075 c 0.244,0.377 0.167,-0.109 0.406,-0.022"
   id="path244" />
	<path
   fill="#1f5c56"
   d="m 233.096,402.743 c 0.064,0.059 0.035,-0.027 0.076,0.046 l -0.026,0.136 c -0.079,-0.137 -0.087,-0.131 -0.012,-0.205 l 0.052,0.119"
   id="path246" />
	<path
   fill="#1f5c56"
   d="m 234.26,402.758 c -0.015,0.139 -0.229,0.231 -0.397,0 -0.168,-0.234 0.116,-0.215 0.229,0.076 l 0.121,-0.094"
   id="path248" />
	<path
   fill="#1f5c56"
   d="m 232.913,403.541 c -0.167,0.153 0.044,0.615 -0.417,0.443 0.038,0.239 0.075,0.573 -0.321,0.314 0.071,0.212 -0.083,0.238 -0.025,0.429 l -0.189,-0.162 c -0.028,0.249 -0.311,0.165 -0.489,-0.199 l -0.244,0.031 c -0.028,-0.155 0.121,-0.16 0.124,-0.293 0.003,-0.117 -0.13,-0.337 -0.157,-0.477 0.115,-0.003 0.265,0.057 0.401,0.198 l 0.005,-0.114 -0.072,-0.09 c 0.039,-0.071 0.126,-0.092 0.237,-0.059 l 0.124,0.184 c 0.005,-0.103 0.073,-0.191 0.166,-0.207 l -0.202,-0.264 0.146,-0.027 c -0.362,-0.324 0.047,-0.396 0.334,-0.014 0.12,-0.012 0.282,0.031 0.306,-0.084 0.214,0.165 0.147,-0.042 0.275,-0.032 l -0.128,0.358 0.126,0.065 c 0.056,0.098 0,0 0,0 z"
   id="path250" />
	<path
   fill="#1f5c56"
   d="m 233.513,402.837 c -0.009,0.138 -0.036,0.132 -0.098,0.209 -0.05,0.063 -0.014,0.168 -0.153,0.127 -0.129,-0.032 -0.168,-0.078 -0.089,-0.146 h 0.094 l 0.068,-0.086 c 0.127,0.132 0.123,-0.101 0.159,-0.142 l 0.069,0.053"
   id="path252" />
	<path
   fill="#1f5c56"
   d="m 231.138,404.48 c -0.04,0.062 -0.134,0.252 -0.273,0.153 -0.021,-0.081 0.138,-0.267 0.265,-0.147"
   id="path254" />
	<path
   fill="#1f5c56"
   d="m 231.442,404.757 c -0.068,-0.002 -0.123,0.407 -0.264,0.261 -0.116,-0.121 0.101,-0.121 0.127,-0.141 l 0.091,-0.166"
   id="path256" />
	<path
   fill="#1f5c56"
   d="m 230.849,404.796 c -0.107,-0.007 -0.119,0.156 -0.03,0.283 l -0.135,0.163 0.146,0.095 c 0.148,0.269 0.026,0.561 -0.118,0.641 -0.156,0.085 -0.279,-0.066 -0.453,-0.265 -0.072,-0.078 0,-0.063 -0.096,-0.123 l -0.189,-0.054 c -0.085,-0.244 0.185,-0.155 0.365,0.01 l -0.184,-0.229 -0.044,-0.128 c -0.041,-0.15 0.007,-0.192 0.083,-0.261 l 0.242,-0.188 c 0.118,-0.045 0.227,0.002 0.359,0.017"
   id="path258" />
	<path
   fill="#1f5c56"
   d="m 230.063,404.082 c -0.051,-0.207 -0.258,-0.13 -0.355,-0.137 0.148,0.29 0.324,0.184 0.331,0.044"
   id="path260" />
	<path
   fill="#1f5c56"
   d="m 231.08,403.236 c -0.09,-0.038 -0.261,-0.043 -0.127,0.109 z"
   id="path262" />
	<path
   fill="#1f5c56"
   d="m 229.834,405.665 c 0.107,0.021 0.107,0.125 0.072,0.173 -0.046,0.06 -0.114,-0.029 -0.096,0.081 l 0.107,0.195 0.077,0.242 -0.188,-0.086 -0.121,-0.207 c -0.161,-0.128 -0.171,0.139 -0.293,0.098 l 0.189,0.266 0.118,0.321 c -0.083,-0.079 -0.141,-0.045 -0.211,-0.101 l -0.168,-0.241 c -0.182,-0.179 -0.074,0.076 -0.271,-0.024 -0.115,-0.226 -0.042,-0.147 0.05,-0.218 0.112,-0.083 0.014,-0.165 -0.137,-0.312 0.064,-0.024 0.304,-0.067 0.412,0.025 0.019,-0.076 0.136,-0.155 -0.017,-0.297 0.079,-0.066 0.14,-0.018 0.26,-0.018 0.105,0.002 0.143,-0.078 0.243,0.11"
   id="path264" />
	<path
   fill="#1f5c56"
   d="m 229.392,406.976 c -0.132,-0.135 -0.248,-0.326 -0.407,-0.411 -0.003,0.116 -0.171,0.053 -0.274,-0.076 l -0.039,-0.224 c 0.021,-0.125 0.396,0.027 0.117,-0.195 -0.252,-0.202 -0.491,0.015 -0.353,0.268 0.086,0.159 0.285,0.174 0.338,0.3 0.06,0.13 -0.135,0.047 -0.214,0.002 l -0.055,0.242 c 0.017,0.105 0.168,0.259 0.029,0.268 0.096,0.243 0.19,0.073 0.229,0.032 0.168,0.286 0.205,0.127 0.412,0.28 -0.002,-0.159 -0.092,-0.204 0.075,-0.206 0.085,0 0.121,0.08 0.137,-0.008 l -0.09,-0.183 0.085,-0.111"
   id="path266" />
	<path
   fill="#1f5c56"
   d="m 228.239,407.152 c 0.049,0.214 -0.132,0.139 -0.212,0.244 -0.062,0.075 -0.053,0.185 -0.234,0.093 -0.049,-0.112 -0.083,-0.203 -0.049,-0.254 0.027,-0.039 0.107,-0.053 0.178,0.012 -0.06,-0.121 -0.069,-0.273 0.095,-0.07 0.047,-0.046 0.183,-0.122 0.29,0.02"
   id="path268" />
	<path
   fill="#1f5c56"
   d="m 228.632,407.513 c -0.083,-0.062 -0.188,-0.069 -0.193,0.003 -0.002,0.065 0.102,0.141 0.032,0.167 -0.103,-0.219 -0.206,0.01 -0.26,0.028 -0.15,0.048 -0.125,0.024 -0.124,0.192 l -0.057,0.121 c 0.228,0.105 0.348,0.061 0.368,-0.1 l 0.031,-0.198 0.153,-0.058 0.059,-0.168"
   id="path270" />
	<path
   fill="#1f5c56"
   d="m 227.798,408.468 c -0.044,0.068 0.195,0.254 0.241,0.352 0.035,0.078 -0.021,0.231 -0.076,0.236 -0.101,0.005 -0.228,-0.141 -0.292,-0.241 -0.127,-0.193 -0.063,-0.205 0.052,-0.232 l -0.129,-0.053 -0.095,-0.067 -0.079,-0.079 -0.086,0.046 c -0.133,-0.012 -0.205,-0.209 -0.323,-0.281 -0.037,-0.149 0.184,-0.175 -0.035,-0.321 l -0.2,-0.122 c -0.051,-0.074 -0.009,-0.16 0.041,-0.16 0.11,-0.003 0.272,0.174 0.384,0.244 l 0.202,0.095 c 0.073,0.044 0.119,0.122 0.188,0.111 l -0.116,-0.248 -0.166,-0.109 c -0.061,-0.091 0.138,-0.229 0.189,-0.242 0.087,0.103 0.174,0.097 0.246,0.169 0.076,0.078 0.033,0.218 0.148,0.26 0.062,0.151 0.184,0.286 0.132,0.391 -0.043,0.086 -0.253,0.116 -0.255,0.217"
   id="path272" />
	<path
   fill="#1f5c56"
   d="m 227.268,408.653 c -0.085,0.022 -0.126,0.203 -0.229,0.183 -0.1,-0.018 -0.162,-0.115 -0.088,-0.15 -0.211,-0.197 -0.256,-0.27 -0.375,-0.141 l 0.221,0.174 0.174,0.192 c 0.116,0.106 0.318,0.261 0.439,0.297 -0.022,-0.11 -0.202,-0.316 -0.176,-0.395 0.009,-0.03 0.107,0.032 0.113,-0.032 0.008,-0.059 -0.022,-0.121 -0.099,-0.16 l 0.013,0.041"
   id="path274" />
	<path
   fill="#1f5c56"
   d="m 226.786,409.295 0.009,-0.194 c -0.202,-0.198 -0.341,-0.184 -0.497,-0.182 -0.007,-0.065 -0.054,-0.139 -0.125,-0.135 -0.075,0.007 0.018,0.193 -0.04,0.222 -0.065,0.032 -0.177,-0.053 -0.247,-0.008 -0.056,0.035 -0.032,0.136 -0.138,0.133 l 0.197,0.276 h 0.171 c 0.101,0.137 0.099,0.26 0.294,0.319 0.153,0.046 0.057,-0.152 0.203,-0.081 -0.059,-0.21 0.086,-0.103 0.139,-0.222 l 0.066,0.043 -0.049,-0.185"
   id="path276" />
	<path
   fill="#1f5c56"
   d="m 226.198,410.098 -0.187,-0.354 -0.171,0.188 -0.046,-0.2 c -0.1,0.003 -0.147,-0.135 -0.267,-0.146 l -0.147,0.088 -0.169,-0.042 -0.038,-0.116 c -0.208,-0.02 -0.146,0.144 -0.11,0.312 0.035,0.173 -0.032,0.13 -0.144,0.19 0.045,0.121 -0.01,0.251 -0.095,0.271 -0.202,0.049 -0.17,-0.157 -0.334,-0.271 -0.33,-0.231 -0.3,0.43 -0.009,0.537 -0.058,0.014 -0.147,0.142 -0.234,0.114 -0.14,-0.05 -0.268,-0.251 -0.443,-0.271 0.033,0.173 0.171,0.347 0.33,0.5 l 0.022,-0.02 c 0.021,0.095 -0.129,0.156 -0.174,0.215 0.127,0.132 0.293,0.159 0.311,0.051 0.135,0.134 0.009,0.19 0.188,0.33 0.097,0.076 0.165,0.065 0.231,0.051 l 0.053,-0.059 0.085,0.01 c 0.051,-0.032 0.139,0.044 0.051,-0.101 -0.081,-0.123 -0.114,-0.1 -0.188,-0.108 -0.082,-0.015 -0.198,0.098 -0.335,-0.092 -0.038,-0.05 0.055,-0.271 0.13,-0.289 0.171,-0.035 0.278,0.269 0.465,0.305 0.091,0.017 0.016,-0.076 0.135,-0.025 0.129,0.054 0.093,0.142 0.209,0.104 0.139,-0.049 0.016,-0.327 -0.184,-0.302 0.08,-0.015 0.168,-0.015 0.069,-0.142 l -0.271,-0.205 c -0.081,-0.135 0.137,-0.192 0.193,-0.231 0.083,-0.059 0.024,-0.122 0.18,0.036 0.088,0.089 0.173,0.263 0.278,0.266 0.092,0.005 -0.026,-0.125 0.116,-0.065 l 0.079,0.103 0.165,0.078 c -0.064,-0.188 -0.221,-0.251 -0.165,-0.373 0.025,-0.047 0.132,-0.005 0.085,-0.122 l -0.175,-0.153 c 0.124,-0.076 0.143,-0.039 0.337,0.015 0.085,0.023 0.242,0.064 0.179,-0.054"
   id="path278" />
	<path
   fill="#1f5c56"
   d="m 224.555,412.244 c -0.033,-0.086 -0.049,-0.207 -0.146,-0.296 l -0.221,-0.113 c 0.023,-0.096 0.121,-0.068 0.167,-0.122 0.056,-0.06 -0.002,-0.178 -0.109,-0.144 -0.045,0.016 -0.108,0.161 -0.188,-0.021 -0.025,-0.061 0.026,-0.158 0.061,-0.181 -0.229,-0.251 -0.323,0.155 -0.431,-0.017 l -0.14,-0.015 c 0.124,0.1 0.039,0.112 -0.004,0.135 l -0.076,0.024 0.032,0.141 c 0.171,0.103 0.187,0.063 0.239,0.224 -0.065,-0.061 -0.337,-0.287 -0.376,-0.246 l 0.026,0.129 -0.078,0.053 -0.17,0.199 c -0.044,0.039 -0.127,0.037 -0.07,0.142 0.132,0.07 0.175,-0.008 0.297,0.135 l -0.026,-0.161 c 0.021,-0.049 0.149,-0.072 0.214,-0.075 l -0.101,0.103 c 0.017,-0.067 0.072,-0.228 0.158,-0.197 0.134,0.041 0.249,0.236 0.386,0.288 l -0.014,-0.146 0.185,0.204 c 0.157,0.091 0.081,-0.09 0.101,-0.146 0.075,0.049 0.417,0.242 0.295,0.048"
   id="path280" />
	<path
   fill="#1f5c56"
   d="m 223.77,412.393 -0.076,-0.173 -0.12,0.118 c -0.061,-0.114 -0.172,-0.093 -0.215,-0.21 0.071,0.108 0.12,0.161 0.086,0.213 l -0.174,0.13 -0.09,-0.14 c 0.056,0.241 0.021,0.502 -0.237,0.496 -0.162,-0.136 0.038,-0.15 0.063,-0.189 l 0.027,-0.123 0.091,-0.021 -0.005,-0.096 0.036,-0.114 c -0.231,-0.067 -0.213,-0.039 -0.285,0.093 l -0.318,0.281 c -0.052,0.058 -0.19,0.072 -0.213,0.157 l 0.014,0.183 c -0.028,0.072 -0.113,0.036 -0.188,0.064 l 0.192,0.021 c 0.027,-0.018 0.019,-0.139 0.131,-0.047 l 0.115,-0.124 0.19,-0.058 0.102,0.167 c -0.083,0.013 -0.319,-0.036 -0.154,0.142 l 0.198,-0.041 -0.01,0.029 0.019,-0.065 -0.193,0.213 0.256,-0.168 0.008,0.08 0.113,-0.063 -0.006,0.011 0.269,-0.372 0.343,-0.343 -0.06,-0.049 0.103,0.005 0.004,-0.025"
   id="path282" />
	<path
   fill="#1f5c56"
   d="m 222.682,413.525 -0.127,0.065 -0.038,0.138 c -0.038,0.09 -0.14,0.199 -0.256,0.211 -0.026,-0.044 -0.243,-0.206 -0.297,-0.219 -0.07,-0.016 -0.089,0.091 -0.125,0.11 0.052,0.073 0.398,0.323 0.286,0.362 -0.104,0.034 -0.316,-0.22 -0.401,-0.307 l -0.052,0.175 c -0.043,0.03 -0.13,-0.026 -0.088,0.076 0.162,0.123 0.321,0.224 0.269,0.36 l -0.079,0.093 -0.025,0.1 c -0.056,0.061 -0.2,0.025 -0.205,-0.106 -0.003,-0.098 0.074,-0.203 0.127,-0.264 -0.188,-0.139 -0.365,-0.273 -0.277,-0.391 l 0.339,-0.327 0.205,-0.29 0.114,-0.1 c 0.063,-0.032 0.064,-0.025 0.168,0.024 l -0.193,0.221 -0.05,0.17 0.266,0.143 c 0.049,-0.146 0.279,-0.204 0.436,-0.237"
   id="path284" />
	<path
   fill="#1f5c56"
   d="m 221.419,413.952 -0.216,-0.004 -0.048,-0.086 c -0.009,0.09 0.072,0.209 0.194,0.302 -0.052,0.072 -0.183,0.057 -0.188,0.159 l -0.229,-0.207 c 0.009,0.037 0.093,0.189 0.09,0.212 -0.002,0.1 -0.078,0.1 -0.025,0.217 l 0.221,-0.027 c 0.079,0.1 0.125,0.213 0.119,0.29 0.184,0.074 0.282,0.015 0.341,-0.075 0.131,0.192 0.265,0.137 0.177,-0.022 -0.296,-0.085 -0.157,-0.199 -0.149,-0.307 0.021,-0.241 -0.091,-0.172 -0.327,-0.399 l 0.05,-0.069 0.037,0.06"
   id="path286" />
	<path
   fill="#1f5c56"
   d="m 221.367,414.969 -0.554,-0.443 -0.11,0.27 c 0.134,0.044 0.257,0.072 0.224,-0.058 0.039,0.15 0.191,0.29 0.361,0.36 l 0.005,-0.237"
   id="path288" />
	<path
   fill="#1f5c56"
   d="m 220.462,414.423 c -0.043,0.072 -0.094,0.181 -0.248,0.052 l 0.252,-0.107 0.044,0.098"
   id="path290" />
	<path
   fill="#1f5c56"
   d="m 223.296,411.816 c -0.107,-0.005 -0.238,-0.078 -0.351,-0.18 0.041,0.115 0.249,0.372 0.271,0.447"
   id="path292" />
	<path
   fill="#1f5c56"
   d="m 222.986,413.146 -0.148,0.265 -0.154,-0.265 c 0.047,-0.054 0.113,-0.079 0.162,-0.037"
   id="path294" />
	<path
   fill="#1f5c56"
   d="m 220.846,414.922 0.256,0.345 -0.372,-0.305 -0.05,0.1 -0.165,-0.092 0.155,-0.195"
   id="path296" />
	<path
   fill="#1f5c56"
   d="m 220.523,415.157 c -0.009,0.188 0.233,0.446 0.437,0.637 -0.117,-0.116 -0.444,-0.268 -0.587,-0.346 l 0.076,0.189 -0.13,-0.127 0.035,0.153 -0.102,-0.075 c 0.094,0.119 0.147,0.328 -0.087,0.122 0.003,0.144 -0.167,0.103 -0.332,-0.018 0.11,-0.165 0.297,-0.245 0.329,-0.465 -0.134,-0.103 -0.279,-0.256 -0.314,-0.367 l 0.245,0.151 -0.138,-0.182 c 0.21,0.02 0.395,0.321 0.606,0.332"
   id="path298" />
	<path
   fill="#1f5c56"
   d="m 219.628,415.424 -0.082,-0.042 0.089,0.222 -0.052,-0.019 c 0.04,0.139 0.219,0.318 0.368,0.366 -0.035,0.105 -0.142,0.243 0.049,0.391 v -0.002 c -0.186,-0.017 -0.248,0.143 -0.417,0.166 l 0.098,-0.23 c -0.295,0.126 -0.472,0.413 -0.659,0.644 -0.156,0.198 -0.127,0.54 -0.405,0.64 l -0.174,-0.133 c 0.075,-0.134 0.33,-0.304 0.293,-0.482 -0.168,0.081 -0.334,-0.144 -0.439,-0.31 l 0.415,0.132 c -0.379,-0.313 -0.296,-0.465 0.134,-0.256 l -0.083,-0.088 0.203,0.093 -0.219,-0.174 c 0.179,-0.044 0.326,0.23 0.479,0.037 0.209,-0.266 -0.253,-0.129 -0.304,-0.397 l 0.258,0.023 0.209,0.119 c -0.114,-0.134 -0.287,-0.248 -0.307,-0.378 l 0.312,0.202 -0.261,-0.272 0.224,-0.119 0.173,0.182 c -0.261,-0.255 -0.069,-0.276 -0.074,-0.451 l 0.115,0.111"
   id="path300" />
	<path
   fill="#1f5c56"
   d="m 218.314,417.874 c 0.062,-0.083 0.312,-0.245 0.047,-0.384 0.005,-0.142 0.177,-0.193 0.112,-0.363 -0.184,-0.09 -0.252,0 -0.258,0.105 -0.044,-0.1 0.005,-0.163 0.019,-0.237 -0.209,-0.035 -0.253,0.237 -0.331,0.345 l -0.265,0.372 c 0.103,0.005 0.203,0.089 0.289,0.198 -0.287,-0.045 0.132,0.292 0.241,0.375 0.063,-0.059 -0.007,-0.156 0.021,-0.229 l 0.113,-0.168"
   id="path302" />
	<path
   fill="#1f5c56"
   d="m 216.448,419.974 c 0.13,-0.136 0.107,-0.354 0.273,-0.461 l 0.246,0.276 c 0.148,-0.075 0.22,-0.291 0.08,-0.502 l -0.385,0.17 0.177,-0.264 -0.148,0.005 -0.083,-0.081 -0.134,0.14 -0.12,-0.237 -0.186,0.226 0.489,0.221"
   id="path304" />
	<path
   fill="#1f5c56"
   d="m 217.153,419.231 c -0.022,-0.199 0.275,-0.148 0.422,-0.229 0.244,0.041 0.115,-0.238 -0.169,-0.411 l 0.323,-0.048 c -0.01,-0.007 0.131,0.111 0.146,0.124 l 0.108,-0.117 c 0.277,0.142 0.286,0.059 0.122,-0.163 l -0.287,0.024 -0.134,-0.246 c -0.3,0.041 -0.407,0.238 -0.554,0.438 0.002,0.047 0.021,-0.027 0.037,-0.049 l -0.215,0.084 0.099,0.194 -0.149,0.096 0.174,0.19 0.195,-0.052"
   id="path306" />
	<path
   fill="#f989b8"
   d="m 323.602,382.748 c 0,0 5.211,2.683 5.032,2.387 -0.175,-0.299 -4.208,-5.922 -4.208,-5.922 z"
   id="path308" />
	<path
   fill="#f989b8"
   d="m 324.796,377.373 c 0,0 6.645,0.336 6.43,0.068 -0.215,-0.273 -6.074,-3.863 -6.074,-3.863 z"
   id="path310" />
	<path
   fill="#f989b8"
   d="m 325.963,368.979 c 0,0 5.401,-1.135 5.184,-1.409 -0.218,-0.275 -5.727,-1.839 -5.727,-1.839 z"
   id="path312" />
	<path
   fill="#894289"
   d="m 288.809,360.734 c 0,0 9.115,8.322 14.366,9.782 5.254,1.464 13.328,1.142 13.328,1.142 0,0 1.651,-2.021 5.751,-4.326 1.637,-0.917 3.904,-1.989 3.904,-1.989 0,0 0.132,7.101 -1.1,13.526 -0.434,2.275 -1.457,3.879 -1.457,3.879 0,0 -2.337,0.374 -4.639,-1.425 -2.197,-1.711 -3.921,-3.239 -3.921,-3.239 0,0 -8.846,0.373 -18.187,-2.556 -9.346,-2.934 -13.252,-6.782 -14.629,-8.206 -1.375,-1.417 6.584,-6.588 6.584,-6.588 z"
   id="path314" />
	<path
   fill="#894289"
   d="m 289.151,294.628 c -0.568,-1.06 0.666,-12.242 -11.29,-18.481 -11.961,-6.242 -28.942,-9.778 -26.968,-5.316 1.976,4.461 9.907,17.418 16.909,22.434 6.994,5.018 12.959,7.977 12.959,7.977 z"
   id="path316" />
	<path
   fill="#f989b8"
   d="m 287.928,296.688 c 0,0 -5.104,-9.019 -10.723,-12.046 -5.613,-3.026 -8.748,-2.438 -8.748,-2.438 0,0 4.586,9.618 8.653,12.19 4.768,3.012 10.818,2.294 10.818,2.294 z"
   id="path318" />
	<path
   fill="#aa61a5"
   d="m 327.806,315.56 c -9.573,-5.323 -23.435,-19.748 -32.357,-21.419 -8.922,-1.668 -26.632,4.027 -33.736,9.05 -4.518,3.201 -9.705,10.515 -10.081,19.544 -0.346,8.358 -7.178,13.14 -18.955,22.397 l 14.938,10.243 23.701,7.328 27.012,5.895 c 0.708,-3.581 1.26,-6.371 1.456,-7.372 0.753,-3.911 70.913,-11.017 83.5,-17.595 12.048,-6.297 -20.779,-8.775 -55.478,-28.071 z"
   id="path320" />
	<path
   fill="#894289"
   d="m 289.586,362.211 -29.953,-8.362 -10.658,-14.228 -4.493,-4.975 c -3.21,2.76 -4.064,3.045 -8.892,6.9 -24.302,19.404 -32.004,48.903 -32.004,48.903 0,0 20.17,9.031 44.942,7.337 21.518,-1.473 46.275,-10.692 46.275,-10.692 0,0 2.731,-15.606 4.517,-24.634 z"
   id="path322" />
	<path
   fill="#f989b8"
   d="m 283.122,468.252 c 0,0 4.979,-1.363 4.752,-1.161 -0.224,0.212 -5.059,3.962 -5.059,3.962 z"
   id="path324" />
	<path
   fill="#f989b8"
   d="m 282.227,472.147 c 0,0 6.459,0.908 6.174,1.104 -0.288,0.204 -6.942,2.005 -6.942,2.005 z"
   id="path326" />
	<path
   fill="#f989b8"
   d="m 281.474,476.931 c 0,0 5.263,1.618 5.023,1.871 -0.241,0.252 -5.88,1.311 -5.88,1.311 z"
   id="path328" />
	<path
   fill="#ffffff"
   d="m 309.484,301.714 c -2.04,3.614 -0.556,9.659 3.752,12.009 3.235,1.772 8.775,0.154 9.723,-5.471 0.727,-4.333 -0.963,-7.634 -4.2,-9.397 -3.233,-1.765 -7.238,-0.753 -9.275,2.859 z"
   id="path330" />
	<path
   fill="#884187"
   d="m 216.239,428.774 c 0,0 -21.056,5.821 -35.771,3.396 -16.485,-2.721 -44.291,-10.002 -44.291,-10.002 0,0 16.546,10.412 35.422,17.081 11.318,4.005 18.119,5.774 44.088,4.682 2.835,-0.118 6.981,-0.089 6.981,-0.089 z"
   id="path332" />
	<path
   fill="#944692"
   d="m 174.963,440.516 c -1.064,-2.629 -1.473,-6.613 -2.708,-10.52 4.283,1.132 6.214,1.385 8.865,2.18 1.308,3.998 2.239,8.651 3.456,11.078 -3.475,-0.776 -6.567,-1.851 -9.613,-2.738 z"
   id="path334" />
	<path
   fill="#aa61a5"
   d="m 183.221,443.075 c -1.56,-3.007 -1.893,-7.168 -3.495,-11.812 1.05,0.328 8.456,1.258 11.062,1.09 2.057,4.564 2.545,9.725 4.398,12.824 -4.207,-0.412 -8.44,-1.299 -11.965,-2.102 z"
   id="path336" />
	<path
   fill="#944692"
   d="m 201.281,431.192 c 1.322,5.168 4.446,11.691 5.899,15.498 -4.711,0.294 -9.957,-0.968 -13.597,-1.541 -1.531,-3.494 -3.297,-7.949 -4.621,-13.004 4.185,0.489 8.296,-0.461 12.319,-0.953 z"
   id="path338" />
	<path
   fill="#aa61a5"
   d="m 199.665,430.317 c 5.546,-0.639 10.717,-2.471 13.624,-3.291 1.227,5.449 6.135,12.84 7.594,16.928 0.421,1.983 -11.397,3.345 -16.455,3.62 -1.397,-3.761 -3.432,-12.016 -4.763,-17.257 z"
   id="path340" />
	<path
   fill="#894289"
   d="m 265.328,450.059 8.293,22.445 c 0,0 9.93,-6.864 9.733,-4.165 -0.2,2.699 -2.681,12.123 -2.681,12.123 0,0 -10.139,3.807 -11.083,-0.464 -0.946,-4.281 -9.885,-26.127 -9.885,-26.127"
   id="path342" />
	<path
   fill="#894289"
   d="m 278.131,435.051 c -7.481,17.403 -11.602,26.311 -34.929,21.943 -34.186,-6.396 -33.542,-28.953 -33.542,-28.953 z"
   id="path344" />
	<path
   fill="#aa61a5"
   d="m 255.165,311.527 c 0,0 -7.535,-11.224 -21.071,-12.274 -13.535,-1.053 -27.662,0.925 -26.04,4.575 1.619,3.654 3.131,9.685 15.122,16.552 11.995,6.863 30.724,5.332 30.724,5.332 z"
   id="path346" />
	<path
   fill="#f989b8"
   d="m 184.34,455.777 c 0,0 -5.769,1.14 -5.511,0.906 0.252,-0.241 5.735,-4.524 5.735,-4.524 z"
   id="path348" />
	<path
   fill="#f989b8"
   d="m 184.735,450.287 c 0,0 -6.471,-1.509 -6.186,-1.709 0.284,-0.2 6.935,-2.035 6.935,-2.035 z"
   id="path350" />
	<path
   fill="#f989b8"
   d="m 186.023,441.903 c 0,0 -4.856,-2.576 -4.569,-2.778 0.284,-0.2 6.02,-0.189 6.02,-0.189 z"
   id="path352" />
	<path
   fill="#f989b8"
   d="m 258.067,320.697 c 0,0 -6.21,-8.324 -12.164,-10.637 -5.953,-2.317 -8.992,-1.345 -8.992,-1.345 0,0 5.771,8.981 10.13,11.032 5.116,2.407 11.026,0.95 11.026,0.95 z"
   id="path354" />
	<path
   fill="#ffffff"
   d="m 281.126,317.172 c -0.867,5.3 3.05,11.296 9.369,12.303 4.742,0.754 11.489,-3.483 10.127,-10.766 -1.05,-5.61 -4.693,-8.297 -9.441,-9.055 -4.738,-0.753 -9.182,2.217 -10.055,7.518 z"
   id="path356" />
	<path
   d="m 295.843,317.047 c -0.147,0.897 -0.915,1.462 -1.823,1.315 -0.916,-0.145 -1.597,-1.107 -1.448,-2.005 0.149,-0.895 1.009,-1.503 1.918,-1.356 0.911,0.145 1.498,1.149 1.353,2.046 z"
   id="path358" />
	<path
   d="m 321.575,305.205 c -0.386,0.695 -1.202,0.833 -1.906,0.449 -0.699,-0.386 -0.954,-1.256 -0.569,-1.942 0.39,-0.69 1.116,-0.877 1.817,-0.494 0.703,0.386 1.047,1.3 0.658,1.987 z"
   id="path360" />
	<path
   fill="#f989b8"
   d="m 375.154,334.48 c 10.946,3.806 15.961,6.074 9.819,9.284 -2.368,1.24 -6.707,2.495 -12.204,3.749 0.372,-4.173 1.168,-8.944 2.385,-13.033 z"
   id="path362" />
	<path
   fill="#ff8000"
   d="m 310.37,323.319 c 1.858,-9.619 -4.891,-20.06 -15.375,-20.957 -15.285,-1.308 -33.362,11.883 -33.362,11.883 0,0 14.914,20.999 27.628,22.18 12.253,1.138 19.71,-5.86 21.109,-13.106 z M 294.25,306.21 c 8.182,1.531 13.661,8.878 12.213,16.378 -1.452,7.502 -9.737,10.669 -17.92,9.142 -7.266,-1.361 -16.999,-11.709 -19.172,-15.739 5.734,-3.76 18.461,-10.983 24.879,-9.781 z"
   id="path364" />
	<path
   fill="#ff8000"
   d="m 323.466,316.2 c 8.728,0.564 13.604,-1.065 14.143,-9.194 0.522,-7.878 -12.836,-20.828 -12.836,-20.828 0,0 -15.622,6.52 -16.14,14.262 -0.54,8.128 6.116,15.2 14.833,15.76 z m 0.444,-24.301 c 2.914,1.522 10.122,8.901 9.724,14.851 -0.395,5.975 -3.372,5.967 -9.905,5.546 -6.533,-0.422 -11.522,-5.626 -11.126,-11.601 0.285,-4.27 5.926,-4.715 11.307,-8.796 z"
   id="path366" />
	<path
   fill="#ff8000"
   d="m 306.375,312.926 c 2.021,-0.736 7.493,-2.714 8.549,-3.013 l -1.106,-3.762 c -1.387,0.392 -8.067,2.827 -8.826,3.103 z"
   id="path368" />
	<path
   d="m 296.44,343.462 c 0,0 14.863,7.947 5.838,11.424 -6.511,2.509 -5.838,-11.424 -5.838,-11.424 z"
   id="path370" />
	<path
   fill="#aa61a5"
   d="m 293.873,401.01 c 0,0 -16.834,8.879 -52.274,9.211 -16.624,0.157 -39.973,-6.408 -39.973,-6.408 l 2.181,-15.592 c 0,0 23.669,6.755 46.577,5.96 31.409,-1.091 45.938,-9.177 45.938,-9.177 z"
   id="path372" />
	<path
   fill="#944692"
   d="m 290.541,412.975 c 0,0 -16.361,11.161 -50.53,9.137 -16.821,-0.997 -36.588,-7.628 -36.588,-7.628 l 0.157,-10.404 c 0,0 20.837,5.81 44.164,5.368 27.052,-0.514 44.6,-8.351 44.6,-8.351 z"
   id="path374" />
	<path
   fill="#aa61a5"
   d="m 285.528,425.626 c 0,0 -14.78,7.453 -45.17,4.883 -16.479,-1.395 -33.902,-7.24 -33.902,-7.24 l -1.307,-8.292 c 0,0 21.026,6.775 41.803,6.323 24.092,-0.527 40.922,-7.816 40.922,-7.816 z"
   id="path376" />
	<path
   fill="#944692"
   d="m 278.952,437.538 c 0,0 -11.072,5.957 -41.038,0.319 -16.253,-3.054 -28.643,-8.193 -28.643,-8.193 l -1.53,-6.151 c 0,0 16.683,4.956 37.413,6.617 24.036,1.921 37.433,-3.456 37.433,-3.456 z"
   id="path378" />
	<path
   fill="#894289"
   d="m 225.815,441.914 c 0,0 -12.917,7.787 -18.372,7.745 -5.459,-0.041 -13.113,-2.576 -13.113,-2.576 0,0 -1.006,-2.395 -4.278,-5.737 -1.308,-1.332 -3.173,-2.984 -3.173,-2.984 0,0 -2.163,6.779 -2.825,13.291 -0.233,2.304 0.287,4.125 0.287,4.125 0,0 2.133,1.003 4.858,-0.089 2.595,-1.038 4.689,-2.03 4.689,-2.03 0,0 8.376,2.791 18.18,2.554 9.804,-0.241 18.058,-6.896 19.782,-7.881 1.727,-0.988 -6.035,-6.418 -6.035,-6.418 z"
   id="path380" />
	<path
   fill="#ffffff"
   d="m 299.876,361.53 c 0,0 -15.66,-1.036 -31.45,-6.86 -15.792,-5.821 -22.583,-20.686 -22.583,-20.686 0,0 -6.425,-1.08 -7.511,1.861 -1.088,2.938 8.318,6.195 8.318,6.195 0,0 -7.605,2.444 -2.985,7.656 4.049,4.567 9.32,0.529 9.32,0.529 0,0 -3.021,4.95 1.626,8.144 4.646,3.198 8.393,-2.021 8.393,-2.021 0,0 -0.937,7.517 2.855,7.718 3.794,0.199 6.703,-3.601 6.703,-3.601 0,0 -1.317,7.038 3.647,7.429 4.966,0.391 5.482,-5.146 5.482,-5.146 0,0 1.657,7.109 5.821,6.867 4.16,-0.241 4.254,-5.56 4.254,-5.56 0,0 4.636,8.298 8.291,5.303 3.662,-2.987 -0.181,-7.828 -0.181,-7.828 z"
   id="path382" />
	<path
   fill="#c35604"
   d="m 353.418,379.194 c -31.199,10.566 -62.201,14.72 -92.343,21.465 -1.747,0.39 -3.483,-0.559 -3.864,-2.142 -0.192,-0.807 -0.385,-1.612 -0.581,-2.421 -0.377,-1.583 0.859,-2.883 2.484,-3.617 30.2,-11.583 61.003,-18.547 92.341,-21.461 1.783,-0.165 3.484,0.556 3.863,2.139 0.195,0.81 0.389,1.617 0.581,2.424 0.379,1.581 -0.79,3.041 -2.481,3.613 z"
   id="path384" />
	<path
   fill="#ff8000"
   d="m 353.995,378.661 0.183,49.115 c 0.003,0.865 1.106,3.545 -6.637,7.252 -14.464,6.921 -43.942,13.728 -59.175,14.436 -5.336,0.246 -6.953,-2.324 -8.04,-4.011 -1.09,-1.69 -19.958,-44.714 -19.958,-44.714 0,0 29.406,-1.891 47.281,-6.066 17.874,-4.173 47.241,-16.092 46.346,-16.012 z"
   id="path386" />
	<path
   fill="#f89c34"
   d="m 351.496,371.184 c -29.2,13.15 -59.942,20.451 -92.342,21.465 -1.793,0.055 -2.836,2.142 -2.424,3.859 0.212,0.877 0.422,1.753 0.631,2.628 0.413,1.718 2.131,2.42 3.921,2.388 32.221,-1.766 62.965,-9.049 92.343,-21.463 1.648,-0.697 2.836,-2.144 2.422,-3.86 -0.212,-0.876 -0.419,-1.756 -0.631,-2.629 -0.412,-1.721 -2.314,-3.172 -3.92,-2.388 z"
   id="path388" />
	<path
   fill="#f89c34"
   d="m 353.907,405.553 c -25.425,10.504 -54.165,17.296 -82.477,19.172 -2.421,0.158 -2.722,2.758 2.266,2.328 27.604,-2.387 53.186,-8.3 79.351,-18.271 4.676,-1.776 3.095,-4.151 0.86,-3.229 z"
   id="path390" />
	<path
   fill="#f989b8"
   d="m 276.203,408.084 c 0,0 2.414,5.279 2.456,4.936 0.052,-0.342 0.414,-7.215 0.414,-7.215 z"
   id="path392" />
	<path
   fill="#f989b8"
   d="m 280.519,404.586 c 0,0 5.013,4.307 5.013,3.966 0.002,-0.344 -2.351,-6.734 -2.351,-6.734 z"
   id="path394" />
	<path
   fill="#f989b8"
   d="m 286.711,398.7 c 0,0 4.955,2.394 4.957,2.047 0.003,-0.345 -3.342,-4.929 -3.342,-4.929 z"
   id="path396" />
	<path
   fill="#944692"
   d="m 262.69,369.607 c 0,0 1.934,12.085 5.141,16.428 3.213,4.351 9.764,9.01 9.764,9.01 0,0 2.563,-0.584 7.233,0.103 1.864,0.274 4.321,0.813 4.321,0.813 0,0 -4.36,5.659 -9.362,9.963 -1.771,1.521 -3.583,2.16 -3.583,2.16 0,0 -2.069,-1.129 -2.75,-3.945 -0.654,-2.677 -1.046,-4.933 -1.046,-4.933 0,0 -7.186,-5.089 -12.69,-13.077 -5.504,-7.995 -6.26,-13.388 -6.345,-15.349 -0.357,-8.136 8.181,-9.323 9.317,-1.173 z"
   id="path398" />
</g>
<g
   id="g726"
   transform="matrix(1.2367924,0,0,1.3004182,-21.205468,-32.732284)">
	<path
   fill="none"
   stroke="#279281"
   stroke-width="2"
   d="m 503.511,287.271 -2.446,14.148"
   id="path402" />
	<path
   fill="none"
   stroke="#279281"
   stroke-width="2"
   d="m 483.735,294.8 -3.387,15.194"
   id="path404" />
	<path
   fill="none"
   stroke="#279281"
   stroke-width="2"
   d="m 593.027,318.442 -2.63,15.325"
   id="path406" />
	<path
   fill="none"
   stroke="#279281"
   stroke-width="2"
   d="m 548.894,295.084 -2.54,16.25"
   id="path408" />
	<path
   fill="none"
   stroke="#279281"
   stroke-width="2"
   d="m 565.331,306.543 -1.124,11.03"
   id="path410" />
	<path
   fill="none"
   stroke="#279281"
   stroke-width="2"
   d="m 523.305,301.908 -1.87,10.901"
   id="path412" />
	<path
   fill="none"
   stroke="#279281"
   stroke-width="2"
   d="m 604.367,304.627 2.447,-14.149"
   id="path414" />
	<path
   fill="none"
   stroke="#279281"
   stroke-width="2"
   d="m 624.143,297.099 3.387,-15.195"
   id="path416" />
	<path
   fill="none"
   stroke="#279281"
   stroke-width="2"
   d="m 514.851,273.454 2.63,-15.324"
   id="path418" />
	<path
   fill="none"
   stroke="#279281"
   stroke-width="2"
   d="m 558.985,296.813 2.539,-16.25"
   id="path420" />
	<path
   fill="none"
   stroke="#279281"
   stroke-width="2"
   d="m 542.547,285.354 1.125,-11.03"
   id="path422" />
	<path
   fill="none"
   stroke="#279281"
   stroke-width="2"
   d="m 584.574,289.989 1.869,-10.901"
   id="path424" />
	<path
   fill="none"
   stroke="#279281"
   stroke-width="2"
   d="m 466.218,283.309 2.259,-13.063"
   id="path426" />
	<path
   fill="none"
   stroke="#279281"
   stroke-width="2"
   d="M 486.306,276.673 489.46,262.65"
   id="path428" />
	<path
   fill="none"
   stroke="#279281"
   stroke-width="2"
   d="m 380.223,253.953 2.428,-14.148"
   id="path430" />
	<path
   fill="none"
   stroke="#279281"
   stroke-width="2"
   d="m 422.669,275.812 2.335,-15.005"
   id="path432" />
	<path
   fill="none"
   stroke="#279281"
   stroke-width="2"
   d="m 406.843,265.12 1.011,-10.188"
   id="path434" />
	<path
   fill="none"
   stroke="#279281"
   stroke-width="2"
   d="m 447.155,269.659 1.726,-10.064"
   id="path436" />
	<path
   fill="none"
   stroke="#279281"
   stroke-width="2"
   d="m 369.437,266.654 -2.26,13.063"
   id="path438" />
	<path
   fill="none"
   stroke="#279281"
   stroke-width="2"
   d="m 350.526,273.493 -3.154,14.023"
   id="path440" />
	<path
   fill="none"
   stroke="#279281"
   stroke-width="2"
   d="m 455.431,296.01 -2.428,14.148"
   id="path442" />
	<path
   fill="none"
   stroke="#279281"
   stroke-width="2"
   d="m 410.715,285.595 -2.336,15.004"
   id="path444" />
	<path
   fill="none"
   stroke="#279281"
   stroke-width="2"
   d="M 428.811,284.843 427.8,295.031"
   id="path446" />
	<path
   fill="none"
   stroke="#279281"
   stroke-width="2"
   d="m 388.498,280.304 -1.726,10.065"
   id="path448" />
	<path
   fill="none"
   stroke="#279281"
   stroke-width="2"
   d="m 555.153,359.256 -2.447,14.149"
   id="path450" />
	<path
   fill="none"
   stroke="#279281"
   stroke-width="2"
   d="m 535.378,366.785 -3.386,15.195"
   id="path452" />
	<path
   fill="none"
   stroke="#279281"
   stroke-width="2"
   d="m 644.67,390.428 -2.63,15.325"
   id="path454" />
	<path
   fill="none"
   stroke="#279281"
   stroke-width="2"
   d="m 600.535,367.069 -2.539,16.251"
   id="path456" />
	<path
   fill="none"
   stroke="#279281"
   stroke-width="2"
   d="m 616.974,378.529 -1.125,11.03"
   id="path458" />
	<path
   fill="none"
   stroke="#279281"
   stroke-width="2"
   d="m 574.946,373.894 -1.869,10.902"
   id="path460" />
	<path
   fill="none"
   stroke="#279281"
   stroke-width="2"
   d="m 656.011,376.612 2.446,-14.147"
   id="path462" />
	<path
   fill="none"
   stroke="#279281"
   stroke-width="2"
   d="m 675.785,369.084 3.387,-15.194"
   id="path464" />
	<path
   fill="none"
   stroke="#279281"
   stroke-width="2"
   d="m 566.493,345.44 2.63,-15.325"
   id="path466" />
	<path
   fill="none"
   stroke="#279281"
   stroke-width="2"
   d="m 610.628,368.799 2.539,-16.25"
   id="path468" />
	<path
   fill="none"
   stroke="#279281"
   stroke-width="2"
   d="m 594.19,357.341 1.124,-11.03"
   id="path470" />
	<path
   fill="none"
   stroke="#279281"
   stroke-width="2"
   d="m 636.217,361.976 1.869,-10.902"
   id="path472" />
	<path
   fill="none"
   stroke="#279281"
   stroke-width="2"
   d="m 517.859,355.295 2.26,-13.063"
   id="path474" />
	<path
   fill="none"
   stroke="#279281"
   stroke-width="2"
   d="m 537.948,348.658 3.154,-14.023"
   id="path476" />
	<path
   fill="none"
   stroke="#279281"
   stroke-width="2"
   d="m 431.865,325.939 2.428,-14.148"
   id="path478" />
	<path
   fill="none"
   stroke="#279281"
   stroke-width="2"
   d="m 474.312,347.797 2.335,-15.004"
   id="path480" />
	<path
   fill="none"
   stroke="#279281"
   stroke-width="2"
   d="m 458.485,337.106 1.011,-10.188"
   id="path482" />
	<path
   fill="none"
   stroke="#279281"
   stroke-width="2"
   d="m 498.799,341.646 1.725,-10.065"
   id="path484" />
	<path
   fill="none"
   stroke="#279281"
   stroke-width="2"
   d="m 421.079,338.64 -2.26,13.063"
   id="path486" />
	<path
   fill="none"
   stroke="#279281"
   stroke-width="2"
   d="m 402.17,345.479 -3.154,14.024"
   id="path488" />
	<path
   fill="none"
   stroke="#279281"
   stroke-width="2"
   d="m 507.074,367.995 -2.429,14.149"
   id="path490" />
	<path
   fill="none"
   stroke="#279281"
   stroke-width="2"
   d="m 462.357,357.58 -2.336,15.005"
   id="path492" />
	<path
   fill="none"
   stroke="#279281"
   stroke-width="2"
   d="m 480.453,356.829 -1.011,10.188"
   id="path494" />
	<path
   fill="none"
   stroke="#279281"
   stroke-width="2"
   d="m 440.141,352.289 -1.726,10.066"
   id="path496" />
	<path
   fill="none"
   stroke="#279281"
   stroke-width="2"
   d="m 340.327,341.689 -2.428,14.148"
   id="path498" />
	<path
   fill="none"
   stroke="#279281"
   stroke-width="2"
   d="m 297.882,319.831 -2.336,15.005"
   id="path500" />
	<path
   fill="none"
   stroke="#279281"
   stroke-width="2"
   d="m 313.707,330.522 -1.011,10.188"
   id="path502" />
	<path
   fill="none"
   stroke="#279281"
   stroke-width="2"
   d="m 351.113,328.988 2.26,-13.063"
   id="path504" />
	<path
   fill="none"
   stroke="#279281"
   stroke-width="2"
   d="m 370.023,322.149 3.154,-14.023"
   id="path506" />
	<path
   fill="none"
   stroke="#279281"
   stroke-width="2"
   d="m 309.836,310.049 2.335,-15.005"
   id="path508" />
	<path
   fill="none"
   stroke="#279281"
   stroke-width="2"
   d="m 332.052,315.339 1.726,-10.064"
   id="path510" />
	<path
   fill="none"
   stroke="#279281"
   stroke-width="2"
   d="m 505.311,474.369 2.715,-14.099"
   id="path512" />
	<path
   fill="none"
   stroke="#279281"
   stroke-width="2"
   d="M 525.225,467.218 528.9,452.09"
   id="path514" />
	<path
   fill="none"
   stroke="#279281"
   stroke-width="2"
   d="m 416.402,441.502 2.921,-15.272"
   id="path516" />
	<path
   fill="none"
   stroke="#279281"
   stroke-width="2"
   d="m 460.084,465.695 2.849,-16.199"
   id="path518" />
	<path
   fill="none"
   stroke="#279281"
   stroke-width="2"
   d="m 443.867,453.926 1.334,-11.007"
   id="path520" />
	<path
   fill="none"
   stroke="#279281"
   stroke-width="2"
   d="m 485.799,459.358 2.076,-10.864"
   id="path522" />
	<path
   fill="none"
   stroke="#279281"
   stroke-width="2"
   d="m 404.801,455.1 -2.715,14.1"
   id="path524" />
	<path
   fill="none"
   stroke="#279281"
   stroke-width="2"
   d="m 384.887,462.25 -3.675,15.129"
   id="path526" />
	<path
   fill="none"
   stroke="#279281"
   stroke-width="2"
   d="m 493.71,487.967 -2.921,15.272"
   id="path528" />
	<path
   fill="none"
   stroke="#279281"
   stroke-width="2"
   d="m 450.027,463.773 -2.848,16.199"
   id="path530" />
	<path
   fill="none"
   stroke="#279281"
   stroke-width="2"
   d="M 466.244,475.543 464.91,486.55"
   id="path532" />
	<path
   fill="none"
   stroke="#279281"
   stroke-width="2"
   d="m 424.313,470.11 -2.076,10.864"
   id="path534" />
	<path
   fill="none"
   stroke="#279281"
   stroke-width="2"
   d="m 542.521,479.039 -2.507,13.018"
   id="path536" />
	<path
   fill="none"
   stroke="#279281"
   stroke-width="2"
   d="m 522.311,485.292 -3.42,13.962"
   id="path538" />
	<path
   fill="none"
   stroke="#279281"
   stroke-width="2"
   d="m 585.92,487.363 -2.62,14.958"
   id="path540" />
	<path
   fill="none"
   stroke="#279281"
   stroke-width="2"
   d="m 601.539,498.354 -1.204,10.166"
   id="path542" />
	<path
   fill="none"
   stroke="#279281"
   stroke-width="2"
   d="m 561.32,493.049 -1.917,10.03"
   id="path544" />
	<path
   fill="none"
   stroke="#279281"
   stroke-width="2"
   d="m 638.969,497.53 2.507,-13.017"
   id="path546" />
	<path
   fill="none"
   stroke="#279281"
   stroke-width="2"
   d="m 658.005,491.053 3.42,-13.962"
   id="path548" />
	<path
   fill="none"
   stroke="#279281"
   stroke-width="2"
   d="m 553.548,466.546 2.696,-14.101"
   id="path550" />
	<path
   fill="none"
   stroke="#279281"
   stroke-width="2"
   d="m 598.059,477.81 2.62,-14.957"
   id="path552" />
	<path
   fill="none"
   stroke="#279281"
   stroke-width="2"
   d="m 579.951,478.216 1.204,-10.166"
   id="path554" />
	<path
   fill="none"
   stroke="#279281"
   stroke-width="2"
   d="m 620.17,483.521 1.917,-10.03"
   id="path556" />
	<path
   fill="none"
   stroke="#279281"
   stroke-width="2"
   d="m 455.045,401.415 2.716,-14.1"
   id="path558" />
	<path
   fill="none"
   stroke="#279281"
   stroke-width="2"
   d="m 474.961,394.264 3.674,-15.128"
   id="path560" />
	<path
   fill="none"
   stroke="#279281"
   stroke-width="2"
   d="m 366.138,368.548 2.92,-15.273"
   id="path562" />
	<path
   fill="none"
   stroke="#279281"
   stroke-width="2"
   d="m 409.819,392.74 2.848,-16.199"
   id="path564" />
	<path
   fill="none"
   stroke="#279281"
   stroke-width="2"
   d="m 393.603,380.971 1.334,-11.006"
   id="path566" />
	<path
   fill="none"
   stroke="#279281"
   stroke-width="2"
   d="M 435.534,386.404 437.61,375.54"
   id="path568" />
	<path
   fill="none"
   stroke="#279281"
   stroke-width="2"
   d="m 354.536,382.145 -2.715,14.1"
   id="path570" />
	<path
   fill="none"
   stroke="#279281"
   stroke-width="2"
   d="m 334.622,389.296 -3.675,15.128"
   id="path572" />
	<path
   fill="none"
   stroke="#279281"
   stroke-width="2"
   d="m 443.444,415.013 -2.92,15.272"
   id="path574" />
	<path
   fill="none"
   stroke="#279281"
   stroke-width="2"
   d="m 399.763,390.819 -2.848,16.199"
   id="path576" />
	<path
   fill="none"
   stroke="#279281"
   stroke-width="2"
   d="m 415.979,402.589 -1.334,11.007"
   id="path578" />
	<path
   fill="none"
   stroke="#279281"
   stroke-width="2"
   d="m 374.049,397.156 -2.077,10.864"
   id="path580" />
	<path
   fill="none"
   stroke="#279281"
   stroke-width="2"
   d="m 492.257,406.085 -2.508,13.018"
   id="path582" />
	<path
   fill="none"
   stroke="#279281"
   stroke-width="2"
   d="m 472.046,412.338 -3.42,13.962"
   id="path584" />
	<path
   fill="none"
   stroke="#279281"
   stroke-width="2"
   d="m 577.678,437.069 -2.696,14.101"
   id="path586" />
	<path
   fill="none"
   stroke="#279281"
   stroke-width="2"
   d="m 535.654,414.408 -2.619,14.958"
   id="path588" />
	<path
   fill="none"
   stroke="#279281"
   stroke-width="2"
   d="m 551.274,425.399 -1.204,10.166"
   id="path590" />
	<path
   fill="none"
   stroke="#279281"
   stroke-width="2"
   d="m 511.056,420.094 -1.917,10.03"
   id="path592" />
	<path
   fill="none"
   stroke="#279281"
   stroke-width="2"
   d="m 588.704,424.576 2.507,-13.018"
   id="path594" />
	<path
   fill="none"
   stroke="#279281"
   stroke-width="2"
   d="m 607.74,418.098 3.42,-13.961"
   id="path596" />
	<path
   fill="none"
   stroke="#279281"
   stroke-width="2"
   d="m 503.282,393.592 2.696,-14.101"
   id="path598" />
	<path
   fill="none"
   stroke="#279281"
   stroke-width="2"
   d="m 547.793,404.854 2.62,-14.957"
   id="path600" />
	<path
   fill="none"
   stroke="#279281"
   stroke-width="2"
   d="m 529.686,405.262 1.205,-10.167"
   id="path602" />
	<path
   fill="none"
   stroke="#279281"
   stroke-width="2"
   d="m 569.904,410.566 1.917,-10.03"
   id="path604" />
	<path
   fill="none"
   stroke="#279281"
   stroke-width="2"
   d="m 669.499,423.063 2.696,-14.1"
   id="path606" />
	<path
   fill="none"
   stroke="#279281"
   stroke-width="2"
   d="m 711.521,445.724 2.62,-14.958"
   id="path608" />
	<path
   fill="none"
   stroke="#279281"
   stroke-width="2"
   d="m 695.902,434.733 1.204,-10.167"
   id="path610" />
	<path
   fill="none"
   stroke="#279281"
   stroke-width="2"
   d="m 658.473,435.556 -2.507,13.018"
   id="path612" />
	<path
   fill="none"
   stroke="#279281"
   stroke-width="2"
   d="m 639.437,442.034 -3.42,13.961"
   id="path614" />
	<path
   fill="none"
   stroke="#279281"
   stroke-width="2"
   d="m 699.383,455.277 -2.62,14.957"
   id="path616" />
	<path
   fill="none"
   stroke="#279281"
   stroke-width="2"
   d="m 677.271,449.565 -1.917,10.03"
   id="path618" />
	<path
   fill="none"
   stroke="#279281"
   stroke-width="2"
   d="m 639.813,143.142 -2.447,14.149"
   id="path620" />
	<path
   fill="none"
   stroke="#279281"
   stroke-width="2"
   d="m 620.037,150.671 -3.387,15.194"
   id="path622" />
	<path
   fill="none"
   stroke="#279281"
   stroke-width="2"
   d="m 729.329,174.314 -2.63,15.325"
   id="path624" />
	<path
   fill="none"
   stroke="#279281"
   stroke-width="2"
   d="m 685.194,150.956 -2.538,16.25"
   id="path626" />
	<path
   fill="none"
   stroke="#279281"
   stroke-width="2"
   d="m 701.633,162.415 -1.125,11.029"
   id="path628" />
	<path
   fill="none"
   stroke="#279281"
   stroke-width="2"
   d="m 659.605,157.779 -1.869,10.902"
   id="path630" />
	<path
   fill="none"
   stroke="#279281"
   stroke-width="2"
   d="m 591.732,151.881 -2.428,14.148"
   id="path632" />
	<path
   fill="none"
   stroke="#279281"
   stroke-width="2"
   d="m 547.016,141.466 -2.335,15.004"
   id="path634" />
	<path
   fill="none"
   stroke="#279281"
   stroke-width="2"
   d="m 454.683,106.035 3.153,-14.023"
   id="path636" />
	<path
   fill="none"
   stroke="#279281"
   stroke-width="2"
   d="m 589.969,258.256 2.715,-14.1"
   id="path638" />
	<path
   fill="none"
   stroke="#279281"
   stroke-width="2"
   d="m 609.884,251.104 3.675,-15.127"
   id="path640" />
	<path
   fill="none"
   stroke="#279281"
   stroke-width="2"
   d="m 501.061,225.388 2.922,-15.272"
   id="path642" />
	<path
   fill="none"
   stroke="#279281"
   stroke-width="2"
   d="m 544.743,249.58 2.848,-16.198"
   id="path644" />
	<path
   fill="none"
   stroke="#279281"
   stroke-width="2"
   d="m 528.526,237.812 1.334,-11.007"
   id="path646" />
	<path
   fill="none"
   stroke="#279281"
   stroke-width="2"
   d="m 570.458,243.244 2.075,-10.864"
   id="path648" />
	<path
   fill="none"
   stroke="#279281"
   stroke-width="2"
   d="m 489.461,238.985 -2.716,14.1"
   id="path650" />
	<path
   fill="none"
   stroke="#279281"
   stroke-width="2"
   d="m 469.545,246.137 -3.674,15.128"
   id="path652" />
	<path
   fill="none"
   stroke="#279281"
   stroke-width="2"
   d="m 578.369,271.853 -2.922,15.273"
   id="path654" />
	<path
   fill="none"
   stroke="#279281"
   stroke-width="2"
   d="m 534.687,247.66 -2.848,16.199"
   id="path656" />
	<path
   fill="none"
   stroke="#279281"
   stroke-width="2"
   d="m 550.903,259.429 -1.334,11.007"
   id="path658" />
	<path
   fill="none"
   stroke="#279281"
   stroke-width="2"
   d="m 508.973,253.996 -2.077,10.864"
   id="path660" />
	<path
   fill="none"
   stroke="#279281"
   stroke-width="2"
   d="m 627.181,262.925 -2.507,13.018"
   id="path662" />
	<path
   fill="none"
   stroke="#279281"
   stroke-width="2"
   d="m 606.97,269.179 -3.42,13.961"
   id="path664" />
	<path
   fill="none"
   stroke="#279281"
   stroke-width="2"
   d="m 712.602,293.91 -2.696,14.1"
   id="path666" />
	<path
   fill="none"
   stroke="#279281"
   stroke-width="2"
   d="m 670.578,271.249 -2.619,14.957"
   id="path668" />
	<path
   fill="none"
   stroke="#279281"
   stroke-width="2"
   d="m 686.198,282.239 -1.204,10.167"
   id="path670" />
	<path
   fill="none"
   stroke="#279281"
   stroke-width="2"
   d="m 645.979,276.935 -1.917,10.03"
   id="path672" />
	<path
   fill="none"
   stroke="#279281"
   stroke-width="2"
   d="m 723.628,281.417 2.507,-13.018"
   id="path674" />
	<path
   fill="none"
   stroke="#279281"
   stroke-width="2"
   d="m 742.664,274.938 3.419,-13.962"
   id="path676" />
	<path
   fill="none"
   stroke="#279281"
   stroke-width="2"
   d="m 638.206,250.432 2.696,-14.1"
   id="path678" />
	<path
   fill="none"
   stroke="#279281"
   stroke-width="2"
   d="m 682.717,261.695 2.62,-14.958"
   id="path680" />
	<path
   fill="none"
   stroke="#279281"
   stroke-width="2"
   d="m 664.609,262.103 1.205,-10.167"
   id="path682" />
	<path
   fill="none"
   stroke="#279281"
   stroke-width="2"
   d="m 704.829,267.407 1.916,-10.03"
   id="path684" />
	<path
   fill="none"
   stroke="#279281"
   stroke-width="2"
   d="m 539.704,185.301 2.716,-14.1"
   id="path686" />
	<path
   fill="none"
   stroke="#279281"
   stroke-width="2"
   d="m 559.619,178.149 3.675,-15.128"
   id="path688" />
	<path
   fill="none"
   stroke="#279281"
   stroke-width="2"
   d="m 450.796,152.433 2.921,-15.271"
   id="path690" />
	<path
   fill="none"
   stroke="#279281"
   stroke-width="2"
   d="m 520.192,170.29 2.076,-10.864"
   id="path692" />
	<path
   fill="none"
   stroke="#279281"
   stroke-width="2"
   d="m 528.104,198.898 -2.921,15.272"
   id="path694" />
	<path
   fill="none"
   stroke="#279281"
   stroke-width="2"
   d="m 500.639,186.475 -1.334,11.007"
   id="path696" />
	<path
   fill="none"
   stroke="#279281"
   stroke-width="2"
   d="m 576.916,189.971 -2.508,13.018"
   id="path698" />
	<path
   fill="none"
   stroke="#279281"
   stroke-width="2"
   d="m 556.705,196.224 -3.42,13.962"
   id="path700" />
	<path
   fill="none"
   stroke="#279281"
   stroke-width="2"
   d="m 662.337,220.955 -2.696,14.1"
   id="path702" />
	<path
   fill="none"
   stroke="#279281"
   stroke-width="2"
   d="m 620.314,198.295 -2.621,14.957"
   id="path704" />
	<path
   fill="none"
   stroke="#279281"
   stroke-width="2"
   d="m 635.934,209.285 -1.204,10.166"
   id="path706" />
	<path
   fill="none"
   stroke="#279281"
   stroke-width="2"
   d="m 595.715,203.979 -1.917,10.031"
   id="path708" />
	<path
   fill="none"
   stroke="#279281"
   stroke-width="2"
   d="m 673.362,208.462 2.507,-13.018"
   id="path710" />
	<path
   fill="none"
   stroke="#279281"
   stroke-width="2"
   d="m 692.398,201.983 3.421,-13.961"
   id="path712" />
	<path
   fill="none"
   stroke="#279281"
   stroke-width="2"
   d="m 587.941,177.478 2.696,-14.1"
   id="path714" />
	<path
   fill="none"
   stroke="#279281"
   stroke-width="2"
   d="m 632.452,188.741 2.62,-14.958"
   id="path716" />
	<path
   fill="none"
   stroke="#279281"
   stroke-width="2"
   d="m 614.345,189.148 1.205,-10.167"
   id="path718" />
	<path
   fill="none"
   stroke="#279281"
   stroke-width="2"
   d="m 654.563,194.452 1.917,-10.03"
   id="path720" />
	<path
   fill="none"
   stroke="#279281"
   stroke-width="2"
   d="m 743.132,219.442 -2.507,13.017"
   id="path722" />
	<path
   fill="none"
   stroke="#279281"
   stroke-width="2"
   d="m 724.095,225.92 -3.419,13.961"
   id="path724" />
</g>
<g
   id="g734"
   transform="matrix(1.2367924,0,0,1.3004182,-21.205468,-32.732284)">
	<path
   fill="#e3dfcd"
   d="m 111.931,183.589 c 0,0 -69.868,10.455 -72.687,-22.738 -2.82,-33.195 10.589,-59.234 39.045,-59.594 28.455,-0.358 36.593,8.89 36.593,8.89 0,0 -11.563,-27.932 15.349,-35.64 26.912,-7.708 31.077,19.697 31.077,19.697 0,0 16.211,-25.521 38.565,-11.156 22.354,14.366 27.014,36.763 27.014,36.763 0,0 19.549,-29.469 41.967,-3.565 22.415,25.904 18.468,55.155 -9.661,59.351 -28.13,4.198 -147.262,7.992 -147.262,7.992 z"
   id="path728" />
	<path
   fill="#989282"
   d="m 420.325,191.357 c -0.041,-3.443 -1.094,-31.977 -19.16,-40.931 -18.063,-8.955 -33.389,12.151 -33.389,12.151 0,0 -2.189,-39.402 -24.086,-34.73 -21.895,4.67 -21.347,27.056 -21.347,27.056 0,0 -7.192,-13.568 -19.16,-8.954 -13.265,5.118 -10.946,19.406 -10.946,19.406 0,0 -7.352,-10.42 -18.24,-2.777 -10.889,7.646 -16.792,21.105 -14.055,35.815 2.736,14.71 13.563,33.897 80.131,26.862 66.568,-7.036 80.551,-9.592 80.252,-33.898 z"
   id="path730" />
	<path
   fill="#bcb49f"
   d="m 102.979,201.004 c 0.057,-3.937 1.482,-36.567 25.94,-46.807 24.458,-10.239 45.21,13.896 45.21,13.896 0,0 2.964,-45.059 32.61,-39.716 29.646,5.342 28.904,30.94 28.904,30.94 0,0 9.736,-15.518 25.941,-10.239 17.962,5.851 14.821,22.189 14.821,22.189 0,0 9.953,-11.916 24.696,-3.174 14.744,8.742 22.738,24.134 19.031,40.956 -3.705,16.821 -18.363,38.763 -108.494,30.718 -90.129,-8.044 -109.062,-10.97 -108.659,-38.763 z"
   id="path732" />
</g>
<g
   id="g742"
   transform="matrix(1.2367924,0,0,1.3004182,-21.205468,-32.732284)">
	<path
   fill="#e3dfcd"
   d="m 520.013,187.933 c 0,0 -69.868,10.454 -72.687,-22.738 -2.82,-33.195 10.588,-59.234 39.045,-59.594 28.455,-0.358 36.593,8.89 36.593,8.89 0,0 -11.563,-27.932 15.349,-35.64 26.912,-7.708 31.077,19.696 31.077,19.696 0,0 16.211,-25.521 38.565,-11.155 22.354,14.365 27.014,36.762 27.014,36.762 0,0 19.549,-29.469 41.967,-3.564 22.415,25.904 18.468,55.154 -9.661,59.352 -28.129,4.198 -147.262,7.991 -147.262,7.991 z"
   id="path736" />
	<path
   fill="#989282"
   d="m 828.406,195.701 c -0.041,-3.443 -1.094,-31.978 -19.16,-40.932 -18.063,-8.955 -33.389,12.152 -33.389,12.152 0,0 -2.189,-39.402 -24.086,-34.73 -21.895,4.67 -21.347,27.055 -21.347,27.055 0,0 -7.192,-13.568 -19.16,-8.953 -13.265,5.117 -10.946,19.405 -10.946,19.405 0,0 -7.352,-10.421 -18.24,-2.776 -10.888,7.645 -16.792,21.105 -14.055,35.814 2.736,14.711 13.563,33.897 80.131,26.863 66.569,-7.037 80.551,-9.593 80.252,-33.898 z"
   id="path738" />
	<path
   fill="#bcb49f"
   d="m 511.062,205.347 c 0.057,-3.938 1.482,-36.567 25.94,-46.807 24.458,-10.24 45.21,13.896 45.21,13.896 0,0 2.964,-45.059 32.61,-39.717 29.646,5.342 28.904,30.939 28.904,30.939 0,0 9.736,-15.518 25.941,-10.238 17.962,5.851 14.821,22.189 14.821,22.189 0,0 9.953,-11.916 24.696,-3.174 14.744,8.741 22.738,24.133 19.031,40.955 -3.705,16.822 -18.363,38.764 -108.494,30.719 -90.13,-8.043 -109.063,-10.969 -108.659,-38.762 z"
   id="path740" />
</g>
<path
   fill="#00a5a5"
   d="m 424.54687,212.5786 c 87.9953,-2.11318 406.73031,1.37324 458.12645,5.37723 49.36286,3.84274 39.96942,76.23962 -6.43255,75.73375 -74.28918,-0.81146 -391.03789,-2.4994 -441.73772,-1.72045 -84.73883,-4.32259 -90.10775,-11.63354 -88.93651,-36.86946 2.13966,-46.32089 20.03357,-41.10231 78.98033,-42.52107 z"
   id="path744"
   style="stroke-width:1.26821" />
</svg>
