<svg width="222" height="560" viewBox="0 0 222 560" fill="none" xmlns="http://www.w3.org/2000/svg">
<path d="M73.2934 491.224C73.2934 505.027 62.0463 516.218 48.1727 516.218C34.299 516.218 23.0537 505.027 23.0537 491.224C23.0537 477.42 34.299 466.229 48.1727 466.229C62.0445 466.229 73.2934 477.42 73.2934 491.224Z" fill="#BAB9AE"/>
<path d="M40.4696 497.664C40.0531 496.426 39.8936 495.125 39.8936 491.568C39.8936 488.013 40.0531 486.71 40.4696 485.472C41.5861 482.139 44.2038 480.425 47.8424 480.425C51.511 480.425 54.1287 482.14 55.2453 485.472C55.6582 486.71 55.8213 488.013 55.8213 491.568C55.8213 495.125 55.6582 496.426 55.2453 497.664C54.1287 500.999 51.511 502.713 47.8424 502.713C44.2038 502.715 41.5843 500.999 40.4696 497.664ZM52.4699 496.871C52.7233 496.077 52.9484 494.681 52.9484 491.568C52.9484 488.457 52.7233 487.061 52.4699 486.265C51.7982 484.202 50.2651 483.059 47.8424 483.059C45.4462 483.059 43.9167 484.202 43.245 486.265C42.9916 487.061 42.7665 488.457 42.7665 491.568C42.7665 494.681 42.9916 496.077 43.245 496.871C43.9167 498.936 45.4462 500.077 47.8424 500.077C50.2633 500.079 51.7982 498.936 52.4699 496.871Z" fill="white"/>
<path d="M145.174 474.21C145.174 488.013 133.927 499.204 120.054 499.204C106.18 499.204 94.9346 488.013 94.9346 474.21C94.9346 460.405 106.18 449.214 120.054 449.214C133.927 449.214 145.174 460.404 145.174 474.21Z" fill="#BAB9AE"/>
<path d="M118.811 485.35C118.621 485.35 118.492 485.223 118.492 485.033V466.583C118.492 466.458 118.428 466.394 118.3 466.394H112.365C112.174 466.394 112.046 466.267 112.046 466.075V464.075C112.046 463.885 112.172 463.756 112.365 463.756H127.46C127.651 463.756 127.78 463.883 127.78 464.075V466.075C127.78 466.266 127.653 466.394 127.46 466.394H121.524C121.397 466.394 121.333 466.458 121.333 466.583V485.033C121.333 485.221 121.207 485.35 121.014 485.35H118.811Z" fill="white"/>
<path d="M98.7026 438.91C98.7026 452.713 87.4537 463.904 73.5818 463.904C59.71 463.904 48.4629 452.713 48.4629 438.91C48.4629 425.106 59.71 413.915 73.5818 413.915C87.4519 413.915 98.7026 425.106 98.7026 438.91Z" fill="#BAB9AE"/>
<path d="M79.2437 450.05C79.0204 450.05 78.9246 449.955 78.8289 449.733L74.4886 440.907H69.7015C69.5757 440.907 69.5119 440.97 69.5119 441.097V449.733C69.5119 449.922 69.3825 450.05 69.1911 450.05H66.9899C66.7967 450.05 66.6709 449.923 66.6709 449.733V428.777C66.6709 428.587 66.7967 428.458 66.9899 428.458H74.8412C78.8927 428.458 81.6381 430.936 81.6381 434.682C81.6381 437.602 79.9774 439.73 77.3597 440.556L81.989 449.669C82.1148 449.858 82.0191 450.05 81.7958 450.05H79.2437ZM78.797 434.683C78.797 432.43 77.2959 431.096 74.7757 431.096H69.7015C69.5757 431.096 69.5119 431.16 69.5119 431.285V438.082C69.5119 438.209 69.5757 438.272 69.7015 438.272H74.7757C77.2959 438.272 78.797 436.937 78.797 434.683Z" fill="white"/>
<path d="M120.477 525.57C120.477 539.373 109.23 550.564 95.3562 550.564C81.4826 550.564 70.2373 539.373 70.2373 525.57C70.2373 511.765 81.4826 500.574 95.3562 500.574C109.228 500.574 120.477 511.764 120.477 525.57Z" fill="#BAB9AE"/>
<path d="M87.0781 525.914C87.0781 522.357 87.2713 521.055 87.6523 519.817C88.7405 516.483 91.4185 514.77 95.089 514.77C98.8852 514.77 101.216 516.675 102.302 519.057C102.396 519.246 102.364 519.406 102.205 519.502L100.291 520.422C100.101 520.517 99.9415 520.454 99.8441 520.262C98.7913 518.325 97.3859 517.405 95.089 517.405C92.6308 517.405 91.0694 518.548 90.3977 520.611C90.1105 521.405 89.951 522.612 89.951 525.914C89.951 529.217 90.1105 530.423 90.3977 531.217C91.0694 533.282 92.6308 534.423 95.089 534.423C97.2902 534.423 99.0784 533.345 99.7466 531.312C99.9717 530.582 100.163 529.532 100.163 527.914C100.163 527.788 100.101 527.723 99.9717 527.723H95.7589C95.5693 527.723 95.4416 527.596 95.4416 527.406V525.563C95.4416 525.374 95.5693 525.245 95.7589 525.245H102.683C102.876 525.245 103.004 525.372 103.004 525.563V527.183C103.004 529.12 102.779 530.897 102.462 531.945C101.409 535.214 98.6956 537.057 95.089 537.057C91.4185 537.057 88.7405 535.341 87.6523 532.008C87.2713 530.772 87.0781 529.471 87.0781 525.914Z" fill="white"/>
<path d="M192.917 508.221C192.917 522.024 181.669 533.215 167.796 533.215C153.922 533.215 142.679 522.024 142.679 508.221C142.679 494.416 153.922 483.225 167.796 483.225C181.669 483.225 192.917 494.416 192.917 508.221Z" fill="#BAB9AE"/>
<path d="M166.555 519.36C166.367 519.36 166.234 519.234 166.234 519.043V500.593C166.234 500.468 166.172 500.405 166.045 500.405H160.107C159.918 500.405 159.792 500.278 159.792 500.086V498.088C159.792 497.895 159.916 497.767 160.107 497.767H175.204C175.394 497.767 175.523 497.894 175.523 498.088V500.086C175.523 500.276 175.395 500.405 175.204 500.405H169.267C169.141 500.405 169.077 500.468 169.077 500.593V519.043C169.077 519.232 168.95 519.36 168.758 519.36H166.555Z" fill="white"/>
<path d="M214.911 454.955C214.911 468.757 203.664 479.948 189.792 479.948C175.92 479.948 164.673 468.757 164.673 454.955C164.673 441.15 175.92 429.959 189.792 429.959C203.664 429.959 214.911 441.15 214.911 454.955Z" fill="#BAB9AE"/>
<path d="M181.802 458.568V444.822C181.802 444.631 181.924 444.502 182.123 444.502H184.322C184.51 444.502 184.643 444.629 184.643 444.822V458.538C184.643 462.03 186.585 463.807 189.49 463.807C192.363 463.807 194.311 462.03 194.311 458.538V444.822C194.311 444.631 194.437 444.502 194.626 444.502H196.831C197.022 444.502 197.152 444.629 197.152 444.822V458.57C197.152 463.65 194.245 466.445 189.492 466.445C184.703 466.444 181.802 463.649 181.802 458.568Z" fill="white"/>
<path d="M167.394 421.895C167.394 435.697 156.147 446.888 142.273 446.888C128.399 446.888 117.152 435.697 117.152 421.895C117.152 408.09 128.399 396.899 142.273 396.899C156.147 396.899 167.394 408.088 167.394 421.895Z" fill="#BAB9AE"/>
<path d="M140.572 409.996C140.635 409.806 140.731 409.677 140.953 409.677H143.026C143.251 409.677 143.379 409.804 143.443 409.996L150.878 430.954C150.941 431.142 150.847 431.271 150.654 431.271H148.418C148.196 431.271 148.07 431.176 148.006 430.954L146.344 426.254H137.569L135.91 430.954C135.815 431.176 135.687 431.271 135.496 431.271H133.263C133.069 431.271 132.975 431.144 133.038 430.954L140.572 409.996ZM145.421 423.651L142.004 413.841H141.943L138.496 423.651H145.421Z" fill="white"/>
<path d="M55.9481 98.4638C55.9481 112.329 44.7399 123.571 30.9141 123.571C17.0883 123.571 5.88184 112.329 5.88184 98.4638C5.88184 84.5965 17.0883 73.3545 30.9141 73.3545C44.7399 73.3545 55.9481 84.5947 55.9481 98.4638Z" fill="#BAB9AE"/>
<path d="M116.386 90.4267C116.386 104.292 105.176 115.534 91.3506 115.534C77.5249 115.534 66.3184 104.292 66.3184 90.4267C66.3184 76.5594 77.5249 65.3174 91.3506 65.3174C105.176 65.3192 116.386 76.5594 116.386 90.4267Z" fill="#BAB9AE"/>
<path d="M84.8017 44.1406C84.8017 58.0062 73.5916 69.2482 59.7676 69.2482C45.9436 69.2482 34.7354 58.0062 34.7354 44.1406C34.7354 30.2732 45.9436 19.0312 59.7676 19.0312C73.5916 19.0312 84.8017 30.2715 84.8017 44.1406Z" fill="#BAB9AE"/>
<path d="M96.6122 144.279C96.6122 158.144 85.4057 169.386 71.5782 169.386C57.7524 169.386 46.5459 158.144 46.5459 144.279C46.5459 130.411 57.7524 119.169 71.5782 119.169C85.4057 119.169 96.6122 130.411 96.6122 144.279Z" fill="#BAB9AE"/>
<path d="M216.587 121.8C216.587 135.666 205.379 146.908 191.553 146.908C177.727 146.908 166.522 135.666 166.522 121.8C166.522 107.933 177.727 96.6907 191.553 96.6907C205.379 96.6907 216.587 107.933 216.587 121.8Z" fill="#BAB9AE"/>
<path d="M158.487 137.772C158.487 151.637 147.279 162.879 133.455 162.879C119.631 162.879 108.423 151.637 108.423 137.772C108.423 123.904 119.631 112.662 133.455 112.662C147.279 112.662 158.487 123.904 158.487 137.772Z" fill="#BAB9AE"/>
<path d="M174.756 80.8923C174.756 94.7579 163.548 106 149.724 106C135.9 106 124.693 94.7579 124.693 80.8923C124.693 67.0249 135.902 55.783 149.726 55.783C163.55 55.783 174.756 67.0232 174.756 80.8923Z" fill="#BAB9AE"/>
<path d="M144.425 30.5886C144.425 44.4542 133.215 55.6961 119.391 55.6961C105.565 55.6961 94.3584 44.4542 94.3584 30.5886C94.3584 16.7212 105.565 5.47925 119.391 5.47925C133.216 5.47925 144.425 16.7212 144.425 30.5886Z" fill="#BAB9AE"/>
<path d="M22.9922 99.0679C22.9922 95.4948 23.1829 94.1874 23.5644 92.9438C24.6471 89.5939 27.3176 87.8738 30.9754 87.8738C34.7586 87.8738 37.0811 89.787 38.162 92.1803C38.2574 92.3699 38.2256 92.5328 38.0667 92.6267L36.1574 93.5514C35.9684 93.6471 35.8095 93.5833 35.7123 93.3902C34.6632 91.4451 33.2644 90.5204 30.9754 90.5204C28.5257 90.5204 26.9679 91.6683 26.3003 93.741C26.0141 94.5382 25.8552 95.7517 25.8552 99.0679C25.8552 102.386 26.0141 103.598 26.3003 104.395C26.9679 106.469 28.5257 107.615 30.9754 107.615C33.169 107.615 34.9511 106.533 35.6169 104.492C35.8395 103.757 36.032 102.703 36.032 101.077C36.032 100.951 35.9684 100.885 35.8395 100.885H31.6412C31.4523 100.885 31.3251 100.758 31.3251 100.567V98.7154C31.3251 98.5258 31.4523 98.3965 31.6412 98.3965H38.5435C38.7343 98.3965 38.8614 98.5241 38.8614 98.7154V100.343C38.8614 102.289 38.6389 104.074 38.321 105.126C37.2719 108.411 34.5696 110.262 30.9754 110.262C27.3176 110.262 24.6471 108.538 23.5644 105.19C23.1812 103.948 22.9922 102.641 22.9922 99.0679Z" fill="white"/>
<path d="M84.1943 80.5079C84.1943 80.3166 84.3197 80.1873 84.5123 80.1873H86.5469C86.803 80.1873 86.9602 80.2493 87.0891 80.5079L96.8827 96.7757H97.0098V80.5079C97.0098 80.3166 97.137 80.1873 97.3277 80.1873H99.3306C99.5231 80.1873 99.6485 80.3148 99.6485 80.5079V101.56C99.6485 101.75 99.5231 101.879 99.3306 101.879H97.296C97.0734 101.879 96.8827 101.816 96.7555 101.56L86.9284 85.3565H86.833V101.56C86.833 101.75 86.7059 101.879 86.5151 101.879H84.5123C84.3197 101.879 84.1943 101.752 84.1943 101.56V80.5079Z" fill="white"/>
<path d="M65.1387 55.5897C64.9162 55.5897 64.8208 55.4941 64.7255 55.2709L60.4001 46.4027H55.6296C55.5042 46.4027 55.4406 46.4665 55.4406 46.594V55.2691C55.4406 55.4586 55.3116 55.588 55.1209 55.588H52.9273C52.7348 55.588 52.6094 55.4604 52.6094 55.2691V34.2201C52.6094 34.0287 52.7348 33.8994 52.9273 33.8994H60.7515C64.789 33.8994 67.5249 36.3884 67.5249 40.1511C67.5249 43.0847 65.8699 45.2229 63.2613 46.0519L67.8746 55.2071C68 55.3966 67.9046 55.5897 67.6821 55.5897H65.1387ZM64.6937 40.1528C64.6937 37.8888 63.1977 36.5496 60.6862 36.5496H55.6296C55.5042 36.5496 55.4406 36.6134 55.4406 36.7391V43.5665C55.4406 43.6941 55.5042 43.7578 55.6296 43.7578H60.6862C63.1977 43.7578 64.6937 42.4168 64.6937 40.1528Z" fill="white"/>
<path d="M63.1806 153.685L64.7702 152.314C64.9292 152.188 65.0899 152.219 65.2488 152.378C65.9165 153.016 67.0609 153.717 68.3962 153.717C70.9095 153.717 72.4037 152.25 72.4037 149.062V134.643C72.4037 134.452 72.5308 134.323 72.7216 134.323H74.917C75.106 134.323 75.2331 134.45 75.2331 134.643V149.062C75.2331 153.878 72.5308 156.366 68.3008 156.366C66.2026 156.366 64.2315 155.409 63.1806 154.132C63.057 154.004 63.057 153.815 63.1806 153.685Z" fill="white"/>
<path d="M184.959 111.881C184.959 111.69 185.084 111.561 185.279 111.561H198.283C198.472 111.561 198.601 111.688 198.601 111.881V113.89C198.601 114.082 198.474 114.211 198.283 114.211H187.979C187.856 114.211 187.79 114.275 187.79 114.401V120.781C187.79 120.909 187.856 120.973 187.979 120.973H196.725C196.916 120.973 197.043 121.099 197.043 121.293V123.302C197.043 123.492 196.918 123.621 196.725 123.621H187.979C187.856 123.621 187.79 123.685 187.79 123.811V130.415C187.79 130.542 187.856 130.606 187.979 130.606H198.283C198.472 130.606 198.601 130.732 198.601 130.925V132.936C198.601 133.125 198.474 133.255 198.283 133.255H185.279C185.086 133.255 184.959 133.127 184.959 132.936V111.881Z" fill="white"/>
<path d="M125.534 138.378C125.534 134.774 125.693 133.531 126.106 132.287C127.189 128.874 129.762 127.184 133.295 127.184C136.504 127.184 138.986 128.778 140.225 131.552C140.287 131.713 140.259 131.873 140.1 131.967L138.191 132.891C138.002 132.987 137.809 132.891 137.746 132.73C136.887 131.042 135.552 129.828 133.295 129.828C130.942 129.828 129.508 130.976 128.807 133.019C128.521 133.91 128.397 134.964 128.397 138.376C128.397 141.788 128.521 142.842 128.807 143.735C129.508 145.776 130.942 146.923 133.295 146.923C135.55 146.923 136.886 145.712 137.746 144.022C137.809 143.861 138.002 143.765 138.191 143.861L140.1 144.785C140.259 144.881 140.287 145.042 140.225 145.2C138.986 147.974 136.506 149.57 133.295 149.57C129.762 149.57 127.189 147.88 126.106 144.466C125.693 143.226 125.534 141.983 125.534 138.378Z" fill="white"/>
<path d="M142.375 87.6205C141.962 86.3769 141.803 85.0695 141.803 81.4964C141.803 77.9233 141.962 76.6159 142.375 75.3723C143.486 72.0241 146.095 70.3022 149.722 70.3022C153.378 70.3022 155.987 72.0259 157.098 75.3723C157.511 76.6159 157.674 77.9233 157.674 81.4964C157.674 85.0695 157.511 86.3769 157.098 87.6205C155.987 90.9704 153.38 92.6923 149.722 92.6923C146.096 92.6941 143.486 90.9704 142.375 87.6205ZM154.334 86.8233C154.588 86.0261 154.813 84.6231 154.813 81.4964C154.813 78.3715 154.588 76.9684 154.334 76.1695C153.664 74.0968 152.138 72.9489 149.724 72.9489C147.336 72.9489 145.81 74.0968 145.143 76.1695C144.887 76.9684 144.666 78.3715 144.666 81.4964C144.666 84.6231 144.887 86.0261 145.143 86.8233C145.81 88.8978 147.336 90.0439 149.724 90.0439C152.138 90.0457 153.664 88.8978 154.334 86.8233Z" fill="white"/>
<path d="M117.697 18.8968C117.759 18.7055 117.856 18.5762 118.076 18.5762H120.143C120.364 18.5762 120.494 18.7037 120.556 18.8968L127.965 39.9494C128.027 40.139 127.934 40.2683 127.743 40.2683H125.516C125.291 40.2683 125.168 40.1726 125.104 39.9494L123.449 35.2283H114.705L113.05 39.9494C112.955 40.1726 112.827 40.2683 112.635 40.2683H110.411C110.219 40.2683 110.125 40.1407 110.187 39.9494L117.697 18.8968ZM122.527 32.6136L119.124 22.7587H119.062L115.627 32.6136H122.527Z" fill="white"/>
<path d="M96.9497 253.993C96.9497 267.865 85.6527 279.112 71.7176 279.112C57.7825 279.112 46.4873 267.865 46.4873 253.993C46.4873 240.12 57.7825 228.873 71.7176 228.873C85.6527 228.874 96.9497 240.12 96.9497 253.993Z" fill="#2BB673"/>
<path d="M153.128 235.122C153.128 248.994 141.833 260.241 127.896 260.241C113.961 260.241 102.666 248.994 102.666 235.122C102.666 221.248 113.961 210.001 127.896 210.001C141.835 210.001 153.128 221.248 153.128 235.122Z" fill="#2BB673"/>
<path d="M132.748 302.034C132.748 315.906 121.449 327.153 107.516 327.153C93.5805 327.153 82.2871 315.906 82.2871 302.034C82.2871 288.16 93.5805 276.913 107.516 276.913C121.449 276.913 132.748 288.16 132.748 302.034Z" fill="#2BB673"/>
<path d="M190.859 283.391C190.859 297.263 179.558 308.51 165.628 308.51C151.693 308.51 140.395 297.263 140.395 283.391C140.395 269.517 151.693 258.27 165.628 258.27C179.558 258.272 190.859 269.517 190.859 283.391Z" fill="#2BB673"/>
<path d="M70.6728 242.262C70.7368 242.071 70.833 241.943 71.0555 241.943H73.1383C73.3644 241.943 73.4925 242.069 73.5566 242.262L81.0244 263.325C81.0885 263.514 80.9942 263.644 80.8001 263.644H78.5553C78.331 263.644 78.2046 263.548 78.1405 263.325L76.4725 258.601H67.6589L65.9927 263.325C65.8966 263.548 65.7684 263.644 65.5744 263.644H63.3331C63.1391 263.644 63.0447 263.516 63.1088 263.325L70.6728 242.262ZM75.5415 255.985L72.1111 246.124H72.0488L68.5864 255.984H75.5415V255.985Z" fill="white"/>
<path d="M126.853 223.391C126.915 223.199 127.013 223.07 127.236 223.07H129.319C129.541 223.07 129.673 223.198 129.735 223.391L137.203 244.453C137.267 244.643 137.171 244.772 136.979 244.772H134.734C134.508 244.772 134.383 244.676 134.319 244.453L132.651 239.73H123.838L122.17 244.453C122.073 244.676 121.945 244.772 121.751 244.772H119.512C119.318 244.772 119.223 244.644 119.286 244.453L126.853 223.391ZM131.722 237.112L128.292 227.253H128.229L124.767 237.112H131.722Z" fill="white"/>
<path d="M113.206 313.454C112.98 313.454 112.885 313.359 112.789 313.135L108.426 304.265H103.619C103.495 304.265 103.429 304.329 103.429 304.456V313.135C103.429 313.325 103.299 313.454 103.109 313.454H100.898C100.704 313.454 100.577 313.327 100.577 313.135V292.075C100.577 291.884 100.704 291.754 100.898 291.754H108.784C112.851 291.754 115.609 294.244 115.609 298.009C115.609 300.944 113.943 303.083 111.313 303.912L115.963 313.072C116.088 313.261 115.993 313.454 115.767 313.454H113.206ZM112.757 298.009C112.757 295.744 111.247 294.404 108.716 294.404H103.619C103.495 294.404 103.429 294.468 103.429 294.593V301.424C103.429 301.551 103.495 301.615 103.619 301.615H108.716C111.246 301.617 112.757 300.275 112.757 298.009Z" fill="white"/>
<path d="M158.103 273.432C158.103 273.241 158.227 273.112 158.423 273.112H160.474C160.732 273.112 160.89 273.174 161.02 273.432L170.891 289.708H171.019V273.432C171.019 273.241 171.148 273.112 171.34 273.112H173.36C173.553 273.112 173.681 273.239 173.681 273.432V294.495C173.681 294.684 173.554 294.812 173.36 294.812H171.31C171.085 294.812 170.893 294.75 170.763 294.495L160.86 278.283H160.764V294.495C160.764 294.684 160.636 294.812 160.443 294.812H158.423C158.229 294.812 158.103 294.686 158.103 294.495V273.432Z" fill="white"/>
</svg>
