<?xml version="1.0" encoding="UTF-8" standalone="no"?>
<svg
   width="250"
   height="150"
   viewBox="0 0 250 150"
   fill="none"
   version="1.1"
   id="svg57"
   sodipodi:docname="svgGlo8Tortoise.svg"
   inkscape:version="1.2.1 (9c6d41e410, 2022-07-14)"
   xmlns:inkscape="http://www.inkscape.org/namespaces/inkscape"
   xmlns:sodipodi="http://sodipodi.sourceforge.net/DTD/sodipodi-0.dtd"
   xmlns="http://www.w3.org/2000/svg"
   xmlns:svg="http://www.w3.org/2000/svg">
  <defs
     id="defs61" />
  <sodipodi:namedview
     id="namedview59"
     pagecolor="#ffffff"
     bordercolor="#000000"
     borderopacity="0.25"
     inkscape:showpageshadow="2"
     inkscape:pageopacity="0.0"
     inkscape:pagecheckerboard="0"
     inkscape:deskcolor="#d1d1d1"
     showgrid="false"
     inkscape:zoom="7.6308411"
     inkscape:cx="106.93448"
     inkscape:cy="49.535824"
     inkscape:window-width="3840"
     inkscape:window-height="2066"
     inkscape:window-x="-11"
     inkscape:window-y="-11"
     inkscape:window-maximized="1"
     inkscape:current-layer="svg57" />
  <path
     d="m 214.7053,80.269682 c 0,0 2.994,2.6537 9.515,3.166 6.518,0.4968 11.233,-2.5164 11.177,-0.9088 -0.051,1.6092 -4.515,9.0951 -14.513,9.0967 -9.999,0.0092 -14.863,-4.0392 -14.863,-4.0392 z"
     fill="#7dc328"
     id="path2" />
  <path
     d="m 29.269619,47.015082 c 5.14988,-5.6839 19.92598,-10.25224 32.56358,-4.2259 12.6236,6.0171 25.9195,23.1844 25.9195,23.1844 0,0 8.8365,-0.7143 19.493301,-1.5737 l 5.6103,31.859798 -17.623701,11.755 c -7.2883,-2.6213 -15.7526,-6.0156 -25.9087,-10.4374 C 17.095569,74.909782 20.501019,56.668682 29.269619,47.015082 Z"
     fill="#77b121"
     id="path4" />
  <path
     d="m 107.9554,102.22758 c 0,0 -17.863201,-3.7445 -27.203501,-9.215498 -14.8085,-8.6708 -20.2906,-21.2265 -20.2906,-21.2265 0,0 9.4314,9.3744 18.8737,15.5874 9.4237,6.2223 28.255701,9.806398 30.935001,10.611698 2.673,0.8054 -0.8035,4.4542 -0.8035,4.4542 z"
     fill="#ffe610"
     id="path6" />
  <path
     d="m 116.3779,90.453982 c 0,0 -19.899701,-5.7826 -25.440501,-8.3237 -15.5764,-7.1279 -17.7813,-17.2382 -17.7813,-17.2382 0,0 6.1929,6.1451 15.9982,11.7133 9.807,5.5727 23.994301,10.732 26.716801,11.3523 2.7287,0.6279 2.0195,2.6058 2.0195,2.6058 z"
     fill="#ffe610"
     id="path8" />
  <path
     d="m 111.0837,96.27808 -5.2318,-31.858298 c 19.9924,-1.7295 53.4844,-4.4758 73.3174,-5.3536 16.218,-0.719 36.713,20.5245 40.524,20.165 0,0 -0.114,9.1645 -19.193,22.522498 -8.457,5.9215 -42.006,14.8607 -60.846,14.9224 -14.134,0.0386 -24.6259,-0.7899 -44.919601,-8.6523 z"
     fill="#ffe610"
     id="path10" />
  <path
     d="m 109.1202,91.478482 c 0,0 -17.778201,3.962 -19.990801,8.138498 -2.2204,4.1796 -0.4589,12.7733 -0.4589,12.7733 0,0 -6.1388,-1.9394 -10.2365,-3.3789 -4.0884,-1.4317 -7.9404,-1.9902 -9.5365,0.4891 -0.6011,0.9319 4.1069,1.0137 6.9515,2.4007 l 2.8477,1.3901 c 0,0 -5.6521,-0.2793 -8.1938,1.2312 -2.5433,1.4966 -5.5702,3.8617 -4.0344,5.1238 0.5547,0.452 6.0029,-2.6367 9.3573,-2.0551 4.7884,0.8285 6.7708,2.6722 6.7708,2.6722 0,0 -5.3446,0.6959 -7.137,2.7046 -0.7694,0.8748 -1.4848,2.032 -1.4539,2.7124 0.0386,0.9056 0.9023,1.1108 4.6956,-0.4505 3.7778,-1.5583 17.0814,-2.7664 19.2368,-5.2349 2.160101,-2.4809 -0.924,-9.035 5.043301,-13.6897 5.9488,-4.6517 16.4742,-6.6003 16.4742,-6.6003 z"
     fill="#7dc328"
     id="path12" />
  <path
     d="m 219.5483,114.66268 c -0.646,1.5382 -3.768,2.7015 -6.998,4.9171 -3.512,2.4053 -7.194,5.8072 -8.498,5.9816 -2.498,0.3301 2.492,-6.3288 2.492,-6.3288 0,0 -10.137,5.5203 -11.341,4.6023 -1.213,-0.9257 0.621,-5.9708 4.823,-7.5167 4.195,-1.5382 -5.662,0.236 -10.439,2.268 -1.514,0.6387 -2.406,-2.2187 3.92,-5.4494 6.329,-3.2199 13.849,-5.0636 13.067,-6.3673 -0.779,-1.3176 -8.372,-5.6252 -8.372,-5.6252 l 8.565,-3.7615 c 0,0 14.138,14.097 12.781,17.2799 z"
     fill="#7dc328"
     id="path14" />
  <path
     d="m 54.737799,46.590682 c -1.9824,0.2993 -4.6385,1.4734 -6.2779,5.1115 -2.8322,6.2825 1.4834,13.1636 7.3471,12.747 5.8669,-0.4181 9.0545,-4.9217 8.5786,-9.6552 -0.4883,-4.738 -3.7995,-9.092 -9.6478,-8.2033 z"
     fill="#ffffff"
     id="path16" />
  <path
     d="m 52.905299,53.132382 c -0.3322,0.0077 -0.9966,0.0154 -1.2824,0.9643 -0.2812,0.9442 0.2781,2.0628 1.2438,1.9918 0.9642,-0.0664 1.4818,-0.8069 1.4123,-1.5799 -0.085,-0.793 -0.4126,-1.4024 -1.3737,-1.3762 z"
     fill="#000000"
     id="path18" />
  <path
     d="m 40.572399,66.974782 c 0,0 -2.0411,3.817 -5.2967,4.1395 -4.87024,0.4706 -6.33347,-3.4282 -6.33347,-3.4282"
     stroke="#000000"
     stroke-width="0.949"
     stroke-linecap="round"
     id="path20" />
  <path
     d="m 133.8273,32.135662 c -30.8519,7.83152 -46.074501,33.83772 -46.074501,33.83772 0,0 9.4639,20.9566 17.730301,27.273 8.2572,6.317898 28.7902,23.411198 71.3802,14.117098 38.571,-8.4178 43.101,-29.027198 43.101,-29.027198 0,0 -17.705,-19.0203 -25.136,-27.0138 -7.441,-7.9827 -27.464,-22.851088 -48.957,-21.16938 -4.24,0.33634 -8.257,1.01828 -12.044,1.98256 z"
     fill="#ffe610"
     id="path22" />
  <mask
     id="mask0"
     mask-type="alpha"
     maskUnits="userSpaceOnUse"
     x="64"
     y="0"
     width="133"
     height="82">
    <path
       d="M 110.763,3.11178 C 79.9111,10.9433 64.6885,36.9495 64.6885,36.9495 c 0,0 9.4639,20.9566 17.7303,27.273 8.2572,6.318 28.7902,23.4112 71.3802,14.1171 38.571,-8.4178 43.101,-29.0272 43.101,-29.0272 0,0 -17.705,-19.0202 -25.136,-27.0138 C 164.323,14.3159 144.3,-0.552488 122.807,1.12922 118.567,1.46556 114.55,2.1475 110.763,3.11178 Z"
       fill="#ffe610"
       id="path24" />
  </mask>
  <g
     mask="url(#mask0)"
     id="g55"
     transform="translate(23.064299,29.023882)">
    <path
       d="m 109.486,10.948 1.191,18.7626 12.715,-10.8046 5.117,-18.53271 -9.001,-3.42358 -7.698,1.43176 z"
       fill="#2a773a"
       id="path27" />
    <path
       d="M 151.096,3.40027 146.454,20.8005 134.79,37.488 124.985,19.8949 129.835,-0.535533 141.583,-2.12158 Z"
       fill="#2a773a"
       id="path29" />
    <path
       d="m 164.244,29.4251 0.658,-18.7317 14.175,6.5478 6.757,9.2602 0.548,6.3951 c 0,0 -1.545,2.5565 -3.121,4.4064 -1.554,1.8406 -6.346,6.9351 -6.346,6.9351 z"
       fill="#2a773a"
       id="path31" />
    <path
       d="M 109.628,2.23096 107.967,10.9095 87.2622,12.9553 97.6949,2.95301 Z"
       fill="#2a773a"
       id="path33" />
    <path
       d="m 163.387,10.3293 -0.573,18.0468 -14.288,-8.2296 3.685,-15.36061 z"
       fill="#2a773a"
       id="path35" />
    <path
       d="m 169.121,51.1963 c 0,0 -4.131,2.1631 -11.95,4.0669 -7.807,1.8993 -9.508,1.9903 -9.508,1.9903 l 4.261,23.0178 c 0,0 8.169,-0.0494 16.649,-5.9338 8.486,-5.8922 11.37,-2.6599 11.37,-2.6599 z"
       fill="#2a773a"
       id="path37" />
    <path
       d="m 145.597,57.5588 c 0,0 -5.695,0.935 -13.7,1.1155 l -8.004,0.1713 -2.279,21.4132 c 0,0 7.438,4.0947 19.757,1.674 9.866,-1.9348 9.132,-1.2281 9.132,-1.2281 z"
       fill="#2a773a"
       id="path39" />
    <path
       d="m 189.057,32.3303 c 0,0 -4.705,6.9938 -10.798,12.7393 -6.084,5.7425 -7.174,5.2179 -7.174,5.2179 l 9.549,18.3322 c 0,0 10.013,-3.4467 15.024,-13.071 4.997,-9.612 3.166,-7.2962 3.166,-7.2962 z"
       fill="#2a773a"
       id="path41" />
    <path
       d="m 98.5373,50.1548 c 0,0 -2.0194,-1.0383 -8.8118,-5.3197 -4.6632,-2.9253 -8.3112,-6.0573 -8.3112,-6.0573 l -14.175,18.2566 c 0,0 5.7525,6.9011 15.3724,10.0424 9.6215,3.135 7.6314,2.8404 7.6314,2.8404 z"
       fill="#2a773a"
       id="path43" />
    <path
       d="m 80.0048,37.471 c 0,0 -3.9957,-3.3757 -6.7985,-6.7607 -5.4203,-6.5525 -5.2967,-8.7218 -5.2967,-8.7218 L 49.5488,34.8559 c 0,0 3.6867,8.4533 12.0752,14.5691 8.3885,6.102 4.8795,4.8014 4.8795,4.8014 z"
       fill="#2a773a"
       id="path45" />
    <path
       d="m 122.243,58.8119 c 0,0 -4.724,-0.7514 -11.617,-2.7092 -7.753,-2.2109 -10.547,-4.2228 -10.547,-4.2228 L 92.23,70.6101 c 0,0 7.2343,7.3609 17.22,8.302 9.996,0.9489 9.67,3.1197 9.67,3.1197 z"
       fill="#2a773a"
       id="path47" />
    <path
       d="m 135.843,56.8108 -0.544,-16.797 12.222,-18.5265 15.593,9.1337 12.775,14.7049 c -4.596,3.8725 -8.194,4.8245 -13.462,6.6234 -13.664,4.6934 -26.584,4.8615 -26.584,4.8615 z"
       fill="#2a773a"
       id="path49" />
    <path
       d="m 71.1357,24.7533 10.8669,-10.0347 25.8204,-2.339 1.59,18.9848 -9.66,17.0238 c 0,0 -3.6727,-2.1214 -9.844,-5.7687 C 77.2637,35.1367 71.1357,24.7533 71.1357,24.7533 Z"
       fill="#2a773a"
       id="path51" />
    <path
       d="m 133.676,56.7242 0.547,-17.0161 -10.227,-18.3228 -13.475,10.641 -9.542,17.9094 c 0,0 5.299,3.4066 15.318,5.5558 10.116,2.1615 17.379,1.2327 17.379,1.2327 z"
       fill="#2a773a"
       id="path53" />
  </g>
</svg>
