<svg width="931" height="400" viewBox="0 0 931 400" fill="none" xmlns="http://www.w3.org/2000/svg">
<path d="M708.448 7.04321C794.928 7.04321 813.519 7.04321 900 7.04321V130.5H684.089L678.553 34.7241L708.448 7.04321Z" fill="#D2D1C2"/>
<ellipse cx="794.813" cy="21.4374" rx="17.7158" ry="17.7157" transform="rotate(90 794.813 21.4374)" fill="#0DBEBE"/>
<ellipse cx="795.366" cy="13.1331" rx="12.7332" ry="12.7332" transform="rotate(90 795.366 13.1331)" fill="#00A5A5"/>
<path d="M708.448 35.2779L678 35.2778L708.448 7.04335L708.448 35.2779Z" fill="#C4C4C4"/>
<path d="M714 109H867" stroke="#231F20" stroke-width="3" stroke-linecap="round" stroke-linejoin="round" stroke-dasharray="6 6"/>
<path d="M726.881 73.5171C726.881 76.1812 726 78.2168 724.239 79.624C722.477 81.0312 719.894 81.7349 716.488 81.7349H714.313L712.331 91H709.592L714.571 67.4424H719.888C722.187 67.4424 723.927 67.9526 725.109 68.9731C726.291 69.9829 726.881 71.4976 726.881 73.5171ZM714.812 79.3823H716.956C719.276 79.3823 721.038 78.8936 722.241 77.916C723.444 76.9385 724.045 75.5044 724.045 73.6138C724.045 72.271 723.669 71.3042 722.917 70.7134C722.176 70.1118 721.032 69.811 719.485 69.811H716.859L714.812 79.3823ZM739.998 83.5073H732.005L728.058 91H725.012L737.887 67.4424H740.69L743.655 91H740.916L739.998 83.5073ZM739.708 80.9937L739.144 76.1758C738.886 74.2529 738.73 72.373 738.676 70.5361C738.279 71.4814 737.844 72.4214 737.371 73.356C736.909 74.2905 735.572 76.8364 733.359 80.9937H739.708ZM763.587 91H760.671L753.259 71.2935H753.162C752.818 73.6675 752.421 75.9126 751.97 78.0288L749.198 91H746.588L751.567 67.4424H754.467L761.863 87.1006H761.96C762.282 84.6943 762.669 82.519 763.12 80.5747L765.924 67.4424H768.566L763.587 91ZM776.252 91H773.481L777.944 69.8755H771.402L771.934 67.4424H787.806L787.322 69.8755H780.748L776.252 91ZM797.941 83.5073H789.949L786.001 91H782.956L795.83 67.4424H798.634L801.599 91H798.859L797.941 83.5073ZM797.651 80.9937L797.087 76.1758C796.829 74.2529 796.673 72.373 796.62 70.5361C796.222 71.4814 795.787 72.4214 795.314 73.356C794.853 74.2905 793.515 76.8364 791.302 80.9937H797.651ZM804.563 91L809.542 67.4424H812.282L807.834 88.5186H816.938L816.407 91H804.563ZM841.576 76.3853C841.576 79.2749 841.103 81.8638 840.158 84.1519C839.212 86.4292 837.859 88.1963 836.097 89.4531C834.335 90.6992 832.3 91.3223 829.99 91.3223C827.24 91.3223 825.097 90.522 823.561 88.9214C822.025 87.3101 821.257 85.0542 821.257 82.1538C821.257 79.3179 821.772 76.729 822.804 74.3872C823.835 72.0454 825.248 70.2407 827.042 68.9731C828.846 67.7056 830.876 67.0718 833.132 67.0718C835.753 67.0718 837.816 67.8989 839.32 69.5532C840.824 71.2075 841.576 73.4849 841.576 76.3853ZM832.923 69.521C831.236 69.521 829.727 70.0635 828.395 71.1484C827.063 72.2334 826.026 73.7427 825.285 75.6763C824.555 77.6099 824.189 79.7476 824.189 82.0894C824.189 84.2271 824.716 85.8975 825.769 87.1006C826.821 88.293 828.25 88.8892 830.055 88.8892C831.688 88.8892 833.148 88.3682 834.438 87.3262C835.737 86.2734 836.763 84.7695 837.515 82.8145C838.267 80.8594 838.643 78.6948 838.643 76.3208C838.643 74.1831 838.138 72.5181 837.128 71.3257C836.119 70.1226 834.717 69.521 832.923 69.521ZM832.069 65.1221C832.67 64.4775 833.342 63.6665 834.083 62.689C834.835 61.7007 835.41 60.895 835.807 60.272H838.869V60.6104C838.46 61.1367 837.708 61.9478 836.613 63.0435C835.517 64.1392 834.566 64.9771 833.761 65.5571H832.069V65.1221ZM860.976 91H858.06L850.647 71.2935H850.551C850.207 73.6675 849.81 75.9126 849.358 78.0288L846.587 91H843.977L848.956 67.4424H851.856L859.252 87.1006H859.349C859.671 84.6943 860.058 82.519 860.509 80.5747L863.312 67.4424H865.955L860.976 91Z" fill="#00A5A5"/>
<path d="M463.5 110.019C449.693 110.019 438.5 98.8264 438.5 85.0193C438.5 71.2122 449.693 60.0193 463.5 60.0193C477.307 60.0193 488.5 71.2122 488.5 85.0193C488.5 98.8264 477.307 110.019 463.5 110.019Z" stroke="black"/>
<ellipse cx="337" cy="85.0193" rx="25.5" ry="25" transform="rotate(90 337 85.0193)" fill="#2BB673"/>
<ellipse cx="275" cy="85.0193" rx="25.5" ry="25" transform="rotate(90 275 85.0193)" fill="#2BB673"/>
<path d="M526 110.019C512.478 110.019 501.5 98.8358 501.5 85.0193C501.5 71.2028 512.478 60.0193 526 60.0193C539.522 60.0193 550.5 71.2028 550.5 85.0193C550.5 98.8358 539.522 110.019 526 110.019Z" stroke="black"/>
<path d="M2 185L929 185" stroke="#231F20" stroke-width="3" stroke-linecap="round" stroke-linejoin="round" stroke-dasharray="6 6"/>
<path d="M590.5 110.019C576.693 110.019 565.5 98.8264 565.5 85.0193C565.5 71.2122 576.693 60.0193 590.5 60.0193C604.307 60.0193 615.5 71.2122 615.5 85.0193C615.5 98.8264 604.307 110.019 590.5 110.019Z" stroke="black"/>
<ellipse cx="400" cy="85.0193" rx="25.5" ry="25" transform="rotate(90 400 85.0193)" fill="#2BB673"/>
<path d="M708.448 275.643C794.928 275.643 813.519 275.643 900 275.643V399.1H684.089L678.553 303.324L708.448 275.643Z" fill="#D2D1C2"/>
<ellipse cx="794.813" cy="290.038" rx="17.7158" ry="17.7157" transform="rotate(90 794.813 290.038)" fill="#0DBEBE"/>
<ellipse cx="795.366" cy="281.733" rx="12.7332" ry="12.7332" transform="rotate(90 795.366 281.733)" fill="#00A5A5"/>
<path d="M708.448 303.878L678 303.878L708.448 275.643L708.448 303.878Z" fill="#C4C4C4"/>
<path d="M714 377.6H867" stroke="#231F20" stroke-width="3" stroke-linecap="round" stroke-linejoin="round" stroke-dasharray="6 6"/>
</svg>
