<svg width="419" height="87" viewBox="0 0 419 87" fill="none" xmlns="http://www.w3.org/2000/svg">
<path d="M58.1324 0.678771C122.798 -1.57059 357.026 2.13964 394.794 6.40049C431.069 10.4909 424.167 87.5366 390.067 86.9972C335.474 86.1338 102.707 84.3377 65.4484 85.1674C3.17684 80.5675 -0.768725 72.7874 0.0922848 45.9319C1.66525 -3.36484 14.8136 2.18833 58.1324 0.678771Z" fill="#EE1D23"/>
<path d="M50.2259 67.4873C50.2654 67.3304 50.2549 67.0167 50.1969 66.5408C50.1389 66.0571 50.1099 65.7407 50.1099 65.5864C50.0308 64.4019 50.0413 63.2619 50.1389 62.1664C50.2338 61.0734 50.3603 59.9177 50.5133 58.6862C50.5528 58.6103 50.5528 58.5031 50.5133 58.3698C50.4764 58.2338 50.4579 58.1501 50.4579 58.1109C50.4579 57.1513 50.5238 56.2074 50.6609 55.2922C50.7954 54.3692 50.8824 53.4332 50.9219 52.4762C50.9984 50.672 50.9799 48.9123 50.8639 47.1814C50.7479 45.4556 50.7084 43.709 50.7479 41.9467C50.7479 41.795 50.7558 41.5649 50.7769 41.2564C50.7954 40.9505 50.8165 40.6419 50.8323 40.3334C50.8534 40.0275 50.8718 39.7529 50.8929 39.5019C50.9114 39.2509 50.9219 39.0914 50.9219 39.0103C50.9219 38.9345 50.9404 38.7646 50.9799 38.4952C51.0168 38.2285 51.0564 37.9488 51.0959 37.6611C51.1329 37.3709 51.1724 37.1068 51.2119 36.8558C51.2515 36.6048 51.27 36.4427 51.27 36.3669V36.1917C51.27 35.9276 51.1724 35.7263 50.9799 35.5903C50.7848 35.4569 50.5924 35.3706 50.3973 35.3288C49.2398 35.4073 48.1272 35.4151 47.0647 35.3602C45.9995 35.3027 44.8896 35.3157 43.7295 35.389C43.4184 35.3131 43.131 35.1798 42.8594 34.9863C42.8594 34.7928 42.8384 34.4398 42.8014 33.9221C42.7619 33.4044 42.7223 33.0671 42.6854 32.9154C42.6459 32.5729 42.58 32.0343 42.4798 31.3074C42.3849 30.5752 42.3269 29.8405 42.3084 29.0875C42.2873 28.3423 42.3559 27.6703 42.5114 27.0767C42.6643 26.4858 42.9939 26.1459 43.4975 26.0701H43.7295L63.042 26.2453C63.3136 26.2453 63.5271 26.3289 63.6827 26.4989C63.8356 26.6741 63.9622 26.8754 64.0597 27.1055C64.1546 27.3382 64.2232 27.5762 64.2627 27.8245C64.2996 28.0729 64.3207 28.2769 64.3207 28.4286C64.3207 28.4652 64.3313 28.6116 64.3471 28.86C64.3682 29.1084 64.3972 29.3986 64.4367 29.7228C64.4737 30.0497 64.5132 30.3765 64.5527 30.7007C64.5897 31.0276 64.6108 31.3047 64.6108 31.5348C64.6108 31.6499 64.6187 31.8408 64.6398 32.1101C64.6582 32.3768 64.6767 32.6775 64.6978 33.0017C64.7162 33.3285 64.7347 33.6345 64.7558 33.9221C64.7742 34.2097 64.7821 34.411 64.7821 34.5287C64.7821 34.717 64.7268 34.9105 64.6108 35.0987C64.4947 35.2922 64.3392 35.4073 64.1467 35.4465C63.1791 35.6007 62.2115 35.6766 61.2465 35.6766C60.2789 35.6766 59.3113 35.7315 58.3464 35.8491C58.1513 35.8857 57.9773 35.8962 57.8243 35.8753C57.6688 35.8596 57.4948 35.9459 57.3023 36.1368C57.0703 36.4061 56.9253 36.7303 56.8673 37.1147C56.8093 37.499 56.7776 37.8912 56.7776 38.2939C56.7776 38.694 56.7987 39.0992 56.8383 39.5019C56.8752 39.9046 56.8963 40.2576 56.8963 40.5661C56.7012 44.8621 56.6063 49.1633 56.6063 53.4802C56.6063 57.7919 56.8752 62.0592 57.4183 66.2793C57.4183 66.5852 57.3682 66.9696 57.2733 67.4324C57.1758 67.89 56.9147 68.1384 56.4903 68.1776H56.4323C56.3532 68.1776 56.2002 68.1672 55.9682 68.1462C55.7362 68.1253 55.4752 68.0939 55.1852 68.06C54.8952 68.0207 54.6342 68.0024 54.4021 68.0024H53.9961C53.7641 67.9684 53.4635 67.9684 53.0971 68.0024C52.7279 68.0443 52.3615 68.06 51.995 68.06C51.6259 68.06 51.2779 68.0207 50.9483 67.9475C50.6214 67.8691 50.3814 67.7174 50.2259 67.4873Z" fill="white"/>
<path d="M69.5944 57.878C69.5575 57.7264 69.5285 57.5146 69.51 57.2479C69.4889 56.9786 69.4705 56.7119 69.452 56.4425C69.4309 56.1732 69.4125 55.9353 69.394 55.7235C69.3729 55.5117 69.3624 55.3653 69.3624 55.2921C69.3255 54.5652 69.2859 53.6134 69.2464 52.4446C69.2095 51.2758 69.1699 50.1149 69.1304 48.9644C69.0934 47.8192 69.0539 46.7994 69.017 45.9157C68.9774 45.0319 68.959 44.5351 68.959 44.42C68.959 43.2696 68.988 42.0145 69.0434 40.6496C69.104 39.2926 69.2305 37.912 69.423 36.5079C69.6155 35.109 69.9345 33.7493 70.3801 32.4263C70.823 31.1032 71.4136 29.924 72.1492 28.8886C72.8821 27.8531 73.8207 27.0112 74.9597 26.3575C76.1013 25.7064 77.4829 25.3221 79.1096 25.207H80.2697C81.3506 25.3613 82.3947 25.6019 83.4018 25.9287C84.4064 26.2529 85.316 26.6948 86.128 27.2491C86.9374 27.8061 87.644 28.465 88.2425 29.2311C88.8436 30.0024 89.2971 30.9228 89.6082 31.9949C89.6451 32.1465 89.6926 32.5204 89.7532 33.1192C89.8086 33.7101 89.8402 34.1049 89.8402 34.2958C89.8402 34.6044 89.8481 35.0541 89.8692 35.645C89.8877 36.2438 89.8956 36.5785 89.8956 36.6543C89.8956 37.0387 89.9061 37.8728 89.9272 39.1566C89.9457 40.4404 89.9747 41.8419 90.0116 43.3585C90.0511 44.8724 90.0802 46.3471 90.1012 47.7852C90.1197 49.2233 90.1276 50.2875 90.1276 50.9804C90.1276 51.9374 90.1382 53.0408 90.1592 54.2854C90.1777 55.5352 90.1382 56.8295 90.0432 58.1709C89.9457 59.5096 89.7717 60.8353 89.5212 62.14C89.2681 63.4422 88.8542 64.6162 88.2741 65.649C87.6941 66.6844 86.9374 67.5394 86.012 68.2114C85.0813 68.8756 83.9028 69.2495 82.4738 69.3305C81.2346 69.4064 80.0666 69.3305 78.9646 69.0952C77.8625 68.8651 76.7288 68.5592 75.5714 68.1774C74.4087 67.8323 73.4622 67.2963 72.7292 66.572C71.9936 65.8372 71.403 64.9953 70.9601 64.0357C70.5145 63.0787 70.185 62.0616 69.974 60.9869C69.7605 59.9175 69.6339 58.8769 69.5944 57.878ZM77.3115 57.478C77.3879 58.2885 77.6305 59.0024 78.0339 59.6351C78.4425 60.2627 79.1096 60.5477 80.0376 60.4718C80.6572 60.4274 81.1186 60.247 81.4297 59.9254C81.7382 59.5985 81.9597 59.1906 82.0941 58.7147C82.2312 58.231 82.3103 57.7264 82.3261 57.193C82.3472 56.6517 82.3762 56.1549 82.4158 55.6921V55.2032C82.4158 54.9522 82.4237 54.6907 82.4421 54.3926C82.4632 54.1102 82.4738 53.8409 82.4738 53.5951V53.1611C82.5898 51.2052 82.6452 49.4089 82.6452 47.78C82.6452 46.151 82.5898 44.3573 82.4738 42.4015C82.4738 42.1714 82.4527 41.7975 82.4158 41.2797C82.3762 40.762 82.3367 40.2051 82.2998 39.6116C82.2602 39.0154 82.2207 38.4611 82.1838 37.9434C82.1442 37.4256 82.1258 37.0491 82.1258 36.8216C82.0467 36.5915 81.9017 36.2752 81.6907 35.8699C81.4772 35.4698 81.2452 35.0855 80.9921 34.722C80.7416 34.3586 80.4516 34.0422 80.122 33.7729C79.7951 33.5062 79.4761 33.3702 79.1676 33.3702C78.78 33.4094 78.4426 33.5925 78.1499 33.9167C77.8625 34.2409 77.6305 34.6357 77.4565 35.0933C77.2798 35.5561 77.1454 36.0268 77.0478 36.5026C76.9529 36.9838 76.8844 37.376 76.8448 37.6845C76.8079 37.7603 76.7684 37.9538 76.7288 38.2597C76.6919 38.5683 76.6444 38.9108 76.5864 39.2952C76.5284 39.6795 76.4704 40.043 76.4124 40.3881C76.3544 40.7333 76.3254 40.9451 76.3254 41.0209V41.8262V43.3768C76.3254 43.9546 76.3149 44.522 76.2938 45.0763C76.2753 45.6333 76.2674 46.0647 76.2674 46.3706V46.8308C76.2674 46.9066 76.2753 46.9642 76.2938 47.0034C76.3149 47.0426 76.3254 47.1001 76.3254 47.176V47.4034C76.365 47.7878 76.4309 48.4598 76.5284 49.4194C76.6233 50.379 76.7288 51.3857 76.8448 52.4394C76.9635 53.4957 77.0584 54.4972 77.1375 55.4568C77.2139 56.4242 77.2719 57.0988 77.3115 57.478Z" fill="white"/>
<path d="M99.2939 68.1201C99.2174 68.0808 99.1568 67.9187 99.1225 67.6311C99.0803 67.3409 99.0619 67.1578 99.0619 67.0846C98.8299 65.7014 98.7929 64.3287 98.9459 62.9743C99.1014 61.6094 99.1568 60.2576 99.1225 58.9136C99.0408 57.1931 98.8589 55.4753 98.5715 53.7652C98.2788 52.0604 98.0547 50.3373 97.9044 48.6142C97.8622 47.2755 97.8622 45.9786 97.9044 44.734C97.9387 43.4867 97.9598 42.1951 97.9598 40.8537C97.9993 39.6248 97.9598 38.3854 97.8438 37.1408C97.7278 35.8936 97.6302 34.6568 97.5538 33.4331V33.088V32.484V31.88V31.4799C97.5142 31.2838 97.4773 30.957 97.4378 30.4994C97.3982 30.0392 97.3613 29.5476 97.3218 29.0325C97.2822 28.5148 97.2453 28.0259 97.2058 27.5683C97.1688 27.1055 97.1504 26.7813 97.1504 26.5878C97.2268 26.2792 97.3033 26.0491 97.3824 25.8975C97.4589 25.7432 97.6118 25.6099 97.8438 25.4948C97.9229 25.4582 98.1444 25.4059 98.5108 25.351C98.8799 25.2935 99.1225 25.2647 99.2385 25.2647C101.361 24.998 103.278 25.0895 104.978 25.5523C106.681 26.0125 108.158 26.7603 109.415 27.7958C110.673 28.8312 111.696 30.1046 112.49 31.6211C113.283 33.135 113.834 34.7928 114.143 36.5969C114.335 38.056 114.433 39.4705 114.433 40.8563C114.433 42.2343 114.375 43.675 114.259 45.168C114.414 45.9367 114.433 46.6819 114.317 47.4088C114.201 48.1383 114.182 48.8861 114.259 49.6549C114.298 50.8812 114.375 52.3062 114.493 53.9352C114.609 55.5694 114.578 57.1984 114.406 58.8326C114.23 60.4615 113.824 61.9728 113.188 63.3717C112.55 64.7732 111.514 65.8557 110.083 66.6218C108.693 67.3147 107.211 67.7671 105.645 67.9972C104.082 68.2299 102.524 68.4417 100.979 68.6352C100.9 68.6352 100.715 68.6509 100.428 68.6901C100.135 68.7319 99.9504 68.745 99.8739 68.745C99.7975 68.6692 99.692 68.5829 99.5575 68.4861C99.4204 68.3998 99.3334 68.2743 99.2939 68.1201ZM104.804 60.5269C104.997 60.8328 105.25 60.9688 105.558 60.9296C105.983 60.8904 106.323 60.6603 106.573 60.2419C106.826 59.8183 107.019 59.345 107.156 58.8326C107.288 58.3096 107.385 57.7841 107.443 57.248C107.501 56.712 107.551 56.2884 107.591 55.9851C107.628 55.7158 107.667 55.3419 107.707 54.8608C107.744 54.3797 107.783 53.9221 107.823 53.4828C107.86 53.0436 107.889 52.6592 107.91 52.3324C107.928 52.0055 107.936 51.8251 107.936 51.7859L107.878 51.3231C107.878 49.2156 107.899 47.0375 107.936 44.7915C107.976 42.5507 107.823 40.3334 107.475 38.1475C107.277 37.0388 107.056 36.1577 106.808 35.504C106.555 34.8529 106.004 34.1234 105.155 33.3181C105.036 33.1272 104.931 32.9729 104.836 32.8579C104.738 32.7428 104.554 32.7036 104.285 32.7428C104.09 32.782 104.021 32.9442 104.082 33.2318C104.137 33.5194 104.169 33.6815 104.169 33.7207C104.285 36.0609 104.361 38.3985 104.401 40.7387C104.435 43.0762 104.496 45.419 104.572 47.7566C104.612 49.6758 104.554 51.6238 104.401 53.5979C104.243 55.5694 104.319 57.5147 104.633 59.4313C104.633 59.5072 104.659 59.6954 104.72 59.9778C104.778 60.2628 104.804 60.4537 104.804 60.5269Z" fill="white"/>
<path d="M122.145 57.878C122.108 57.7264 122.079 57.5146 122.061 57.2479C122.04 56.9786 122.021 56.7119 122.003 56.4425C121.982 56.1732 121.963 55.9353 121.945 55.7235C121.924 55.5117 121.913 55.3653 121.913 55.2921C121.876 54.5652 121.837 53.6134 121.797 52.4446C121.76 51.2758 121.721 50.1149 121.681 48.9644C121.644 47.8192 121.605 46.7994 121.568 45.9157C121.528 45.0319 121.51 44.5351 121.51 44.42C121.51 43.2696 121.539 42.0145 121.594 40.6496C121.655 39.2926 121.781 37.912 121.974 36.5079C122.166 35.109 122.485 33.7493 122.931 32.4263C123.374 31.1032 123.964 29.924 124.7 28.8886C125.433 27.8531 126.372 27.0112 127.51 26.3575C128.652 25.7064 130.034 25.3221 131.66 25.207H132.82C133.901 25.3613 134.945 25.6019 135.953 25.9287C136.957 26.2529 137.867 26.6948 138.679 27.2491C139.488 27.8061 140.195 28.465 140.793 29.2311C141.394 30.0024 141.848 30.9228 142.159 31.9949C142.196 32.1465 142.243 32.5204 142.304 33.1192C142.359 33.7101 142.391 34.1049 142.391 34.2958C142.391 34.6044 142.399 35.0541 142.42 35.645C142.438 36.2438 142.446 36.5785 142.446 36.6543C142.446 37.0387 142.457 37.8728 142.478 39.1566C142.496 40.4404 142.525 41.8419 142.562 43.3585C142.602 44.8724 142.631 46.3471 142.652 47.7852C142.67 49.2233 142.678 50.2875 142.678 50.9804C142.678 51.9374 142.689 53.0408 142.71 54.2854C142.728 55.5352 142.689 56.8295 142.594 58.1709C142.496 59.5096 142.322 60.8353 142.072 62.14C141.819 63.4422 141.405 64.6162 140.825 65.649C140.245 66.6844 139.488 67.5394 138.563 68.2114C137.632 68.8756 136.454 69.2495 135.025 69.3305C133.785 69.4064 132.617 69.3305 131.515 69.0952C130.413 68.8651 129.28 68.5592 128.122 68.1774C126.959 67.8323 126.013 67.2963 125.28 66.572C124.544 65.8372 123.954 64.9953 123.511 64.0357C123.065 63.0787 122.736 62.0616 122.525 60.9869C122.311 59.9175 122.185 58.8769 122.145 57.878ZM129.862 57.478C129.939 58.2885 130.181 59.0024 130.585 59.6351C130.993 60.2627 131.66 60.5477 132.588 60.4718C133.208 60.4274 133.669 60.247 133.981 59.9254C134.289 59.5985 134.51 59.1906 134.645 58.7147C134.782 58.231 134.861 57.7264 134.877 57.193C134.898 56.6517 134.927 56.1549 134.967 55.6921V55.2032C134.967 54.9522 134.974 54.6907 134.993 54.3926C135.014 54.1102 135.025 53.8409 135.025 53.5951V53.1611C135.141 51.2052 135.196 49.4089 135.196 47.78C135.196 46.151 135.141 44.3573 135.025 42.4015C135.025 42.1714 135.003 41.7975 134.967 41.2797C134.927 40.762 134.887 40.2051 134.851 39.6116C134.811 39.0154 134.771 38.4611 134.735 37.9434C134.695 37.4256 134.677 37.0491 134.677 36.8216C134.597 36.5915 134.452 36.2752 134.242 35.8699C134.028 35.4698 133.796 35.0855 133.543 34.722C133.292 34.3586 133.002 34.0422 132.673 33.7729C132.346 33.5062 132.027 33.3702 131.718 33.3702C131.331 33.4147 130.993 33.5977 130.701 33.9219C130.413 34.2461 130.181 34.641 130.007 35.0985C129.831 35.5613 129.696 36.032 129.599 36.5079C129.504 36.989 129.435 37.3812 129.396 37.6897C129.359 37.7656 129.319 37.959 129.28 38.265C129.243 38.5735 129.195 38.916 129.137 39.3004C129.079 39.6848 129.021 40.0482 128.963 40.3934C128.905 40.7385 128.876 40.9503 128.876 41.0261V41.8315V43.382C128.876 43.9598 128.866 44.5272 128.845 45.0816C128.826 45.6385 128.818 46.0699 128.818 46.3759V46.836C128.818 46.9119 128.826 46.9694 128.845 47.0086C128.866 47.0478 128.876 47.1054 128.876 47.1812V47.4087C128.916 47.793 128.982 48.465 129.079 49.4246C129.174 50.3842 129.28 51.3909 129.396 52.4446C129.514 53.501 129.609 54.5024 129.688 55.462C129.765 56.4242 129.823 57.0988 129.862 57.478Z" fill="white"/>
<path d="M147.842 58.4557C148.113 57.7314 148.604 57.2581 149.321 57.0464C150.035 56.8346 150.887 56.7744 151.87 56.879C152.856 56.9705 153.959 57.1509 155.179 57.4203C156.397 57.6896 157.663 57.9406 158.978 58.1707C159.519 58.1315 159.991 57.9955 160.4 57.7654C160.806 57.5327 161.183 57.2398 161.528 56.879C161.879 56.5103 162.206 56.1024 162.514 55.637C162.825 55.1768 163.155 54.714 163.5 54.2591C163.54 54.2198 163.579 54.1362 163.616 53.9976C163.656 53.8616 163.677 53.7779 163.677 53.7387L163.445 50.3396C163.368 50.3082 163.126 50.1147 162.72 49.767C162.314 49.4218 161.995 49.1551 161.763 48.9616C161.684 48.8858 161.539 48.7812 161.328 48.6452C161.114 48.5119 160.969 48.4439 160.893 48.4439C159.54 47.8687 158.272 47.4085 157.093 47.0633C155.915 46.7208 154.813 46.3051 153.787 45.8266C152.762 45.3455 151.833 44.697 151.003 43.8708C150.17 43.0471 149.445 41.8679 148.828 40.3304C148.828 40.218 148.817 40.0454 148.796 39.8153C148.778 39.5852 148.749 39.3447 148.712 39.0963C148.672 38.8479 148.643 38.6152 148.625 38.406C148.604 38.1968 148.596 38.053 148.596 37.9745C148.556 37.4385 148.509 36.8633 148.448 36.2488C148.393 35.6344 148.459 35.0617 148.654 34.5257C148.691 34.3715 148.77 34.0917 148.886 33.6864C148.999 33.2863 149.136 32.8758 149.292 32.4522C149.445 32.0313 149.59 31.6286 149.727 31.2442C149.861 30.8625 149.948 30.5932 149.985 30.4389V30.1513C150.217 29.8061 150.431 29.5368 150.626 29.3459C150.818 29.1551 151.003 28.9537 151.177 28.7446C151.351 28.5328 151.496 28.368 151.612 28.253C152.888 26.8332 154.154 25.7612 155.411 25.0317C156.669 24.3021 158.206 23.8446 160.023 23.6511C160.526 23.6119 161.259 23.672 162.227 23.8236C163.192 23.9779 164.159 24.208 165.127 24.5166C166.092 24.8225 166.943 25.2147 167.676 25.6958C168.412 26.1717 168.8 26.6998 168.839 27.2751C168.879 27.6202 168.858 28.0804 168.778 28.6557C168.702 29.2283 168.578 29.8061 168.404 30.384C168.227 30.954 167.998 31.4665 167.708 31.9058C167.418 32.3477 167.078 32.5856 166.69 32.6248C165.688 32.7006 164.681 32.6902 163.677 32.5934C162.67 32.5019 161.665 32.4915 160.658 32.5699C160.465 32.5699 160.07 32.6039 159.471 32.6823C158.873 32.7582 158.475 32.7974 158.282 32.7974C158.166 32.8758 157.982 32.9621 157.731 33.0562C157.478 33.1504 157.228 33.2785 156.977 33.4328C156.727 33.587 156.516 33.7413 156.342 33.893C156.168 34.0472 156.081 34.2015 156.081 34.3531L156.368 37.8072C156.368 37.9955 156.495 38.1785 156.748 38.3537C156.998 38.5236 157.27 38.6936 157.56 38.8688C157.85 39.0414 158.148 39.1956 158.456 39.329C158.768 39.4623 158.981 39.5512 159.097 39.5878C160.642 40.3173 162.055 41.0076 163.331 41.6587C164.605 42.3098 165.707 43.0759 166.638 43.9597C167.563 44.8434 168.309 45.8841 168.871 47.0947C169.432 48.3027 169.788 49.8036 169.944 51.6103C170.097 53.1818 169.991 54.7349 169.625 56.2698C169.256 57.8046 168.657 59.1695 167.827 60.3827C166.996 61.5881 165.942 62.5974 164.665 63.4028C163.389 64.2081 161.939 64.6892 160.313 64.8382C158.96 64.9951 157.568 65.0108 156.139 64.8958C154.707 64.7807 153.402 64.4957 152.224 64.0355C151.043 63.5727 150.049 62.8929 149.234 61.9934C148.424 61.0966 147.958 59.9173 147.842 58.4557Z" fill="white"/>
<path d="M216.75 67.2571C216.555 67.1838 216.365 67.0557 216.17 66.8832C215.975 66.7106 215.862 66.5276 215.822 66.3367L214.433 54.1416C214.433 53.9899 214.362 53.8514 214.227 53.7389C214.093 53.6213 213.964 53.5821 213.85 53.6213L207.122 54.254L208.224 64.3233C208.3 64.9352 208.477 65.5 208.746 66.0203C209.017 66.538 209.189 67.0845 209.271 67.6597C209.305 67.8898 209.286 68.0363 209.21 68.0885C209.133 68.1461 208.957 68.1958 208.688 68.2324C208.611 68.2324 208.503 68.2428 208.369 68.2663C208.234 68.2873 208.147 68.2925 208.108 68.2925H207.383C207.056 68.2925 206.716 68.303 206.368 68.3213C206.02 68.3422 205.701 68.3657 205.411 68.3788C205.121 68.3945 204.936 68.4049 204.86 68.4049C204.164 68.4049 203.602 68.3317 203.178 68.1748C202.753 68.0232 202.424 67.7931 202.191 67.4898C201.959 67.1839 201.796 66.8073 201.698 66.3628C201.601 65.9236 201.514 65.4163 201.437 64.8411C201.245 62.7284 201.089 60.6366 200.973 58.5422C200.857 56.4504 200.76 54.3351 200.683 52.1858C200.683 52.1466 200.675 51.9374 200.654 51.553C200.633 51.1713 200.604 50.7294 200.567 50.23C200.528 49.7332 200.488 49.2416 200.451 48.7605C200.412 48.282 200.372 47.9081 200.335 47.6388C200.259 46.1798 200.325 44.841 200.538 43.6095C200.749 42.3832 200.992 41.0418 201.263 39.5854C201.031 38.9317 201.079 38.2415 201.408 37.5146C201.735 36.7877 201.999 36.134 202.191 35.5587C202.268 35.2528 202.318 34.9626 202.337 34.6959C202.355 34.4266 202.424 34.1206 202.54 33.7729C202.54 33.7389 202.561 33.6709 202.598 33.5742C202.637 33.4774 202.677 33.4304 202.714 33.4304C203.138 32.6616 203.507 31.8877 203.816 31.1006C204.124 30.3162 204.549 29.537 205.094 28.7683C205.44 28.3081 205.864 27.8401 206.368 27.359C206.869 26.8805 207.412 26.4307 207.992 26.0098C208.572 25.5862 209.181 25.2437 209.819 24.9743C210.457 24.705 211.084 24.5324 211.704 24.4566C213.444 24.3024 214.799 24.5403 215.764 25.1731C216.732 25.8058 217.497 26.6242 218.058 27.6204C218.614 28.6167 219.049 29.7174 219.361 30.9281C219.669 32.1335 220.02 33.2578 220.405 34.2906C220.405 34.4057 220.431 34.6174 220.489 34.926C220.547 35.2345 220.594 35.5587 220.637 35.9039C220.676 36.249 220.721 36.5654 220.782 36.853C220.837 37.138 220.869 37.3394 220.869 37.4544C221.138 39.9881 221.301 42.5375 221.362 45.1051C221.42 47.6754 221.509 50.2274 221.623 52.7558C221.623 53.4095 221.575 54.0815 221.478 54.7717C221.38 55.4647 221.354 56.134 221.391 56.7877C221.391 56.8635 221.412 57.0649 221.449 57.3865C221.486 57.7133 221.522 58.0715 221.565 58.4533C221.602 58.8377 221.652 59.1906 221.71 59.5175C221.768 59.8443 221.797 60.043 221.797 60.1162V62.0198C221.797 62.0956 221.805 62.2969 221.828 62.6185C221.844 62.9454 221.865 63.3036 221.884 63.6853C221.905 64.0697 221.921 64.4227 221.939 64.7495C221.958 65.0764 221.971 65.296 221.971 65.4111C221.971 65.6412 221.929 65.9889 221.852 66.4465C221.778 66.9067 221.522 67.1786 221.101 67.2544H220.982C220.942 67.2544 220.816 67.2335 220.605 67.1969C220.391 67.1603 220.265 67.1394 220.228 67.1394C220.109 67.1394 219.877 67.1499 219.532 67.1734C219.181 67.1943 218.823 67.1995 218.456 67.1995C218.09 67.1995 217.742 67.21 217.412 67.2283C217.088 67.2466 216.866 67.2571 216.75 67.2571ZM207.238 46.5484C207.277 47.0086 207.546 47.3381 208.05 47.5237C208.551 47.7172 209.133 47.8401 209.79 47.9002C210.446 47.9604 211.106 47.9787 211.762 47.9578C212.419 47.9369 212.922 47.9081 213.27 47.8715C213.347 47.8715 213.502 47.861 213.734 47.8401C213.966 47.8218 214.119 47.8113 214.201 47.8113C214.275 47.6937 214.335 47.5917 214.372 47.4976C214.414 47.4008 214.449 47.2936 214.491 47.1812C214.491 46.9511 214.47 46.5772 214.436 46.0569C214.393 45.5418 214.364 44.9744 214.346 44.3625C214.327 43.7507 214.309 43.1833 214.288 42.6656C214.267 42.1452 214.261 41.7739 214.261 41.5439C214.298 41.468 214.317 41.2928 214.317 41.0261V40.4509L213.734 34.8685C213.695 34.6044 213.6 34.2932 213.447 33.9507C213.291 33.6055 213.099 33.2892 212.867 32.9989C212.635 32.7139 212.353 32.4838 212.026 32.3113C211.696 32.1361 211.361 32.0707 211.011 32.1099C210.702 32.1465 210.41 32.2433 210.141 32.3975C208.865 33.6997 208.071 35.0619 207.762 36.4817C207.451 37.8989 207.28 39.4547 207.24 41.1412C207.24 42.059 207.219 42.9636 207.185 43.8448C207.14 44.7286 207.161 45.6254 207.238 46.5484Z" fill="white"/>
<path d="M228.756 64.3835C228.482 62.2368 228.406 60.03 228.524 57.7682C228.638 55.5065 228.659 53.2814 228.58 51.0955C228.501 49.022 228.385 47.0008 228.229 45.0241C228.074 43.0526 228.018 41.0262 228.055 38.9553C228.055 36.7328 228.066 34.6619 228.087 32.7427C228.108 30.8261 227.96 28.7945 227.654 26.6452C227.728 26.0333 228.047 25.5627 228.606 25.2358C229.168 24.9116 229.719 24.7103 230.259 24.6318C230.881 24.556 231.564 24.556 232.321 24.6318C233.075 24.7103 233.702 24.9979 234.203 25.4947C234.203 25.5705 234.214 25.7248 234.235 25.9549C234.256 26.1876 234.267 26.3392 234.267 26.4151C234.42 27.759 234.401 29.2181 234.206 30.7869C234.016 32.361 233.956 33.7991 234.037 35.1012C234.037 35.2555 234.064 35.8412 234.124 36.8583C234.18 37.8728 234.248 39.0337 234.322 40.3359C234.401 41.6432 234.48 42.9558 234.557 44.2789C234.633 45.5993 234.691 46.6478 234.731 47.4165C234.847 49.2521 234.91 51.0432 234.931 52.7898C234.952 54.5364 235.06 56.3118 235.25 58.116C235.369 58.8429 235.688 59.2613 236.207 59.3789C236.727 59.4914 237.299 59.541 237.918 59.5253C238.533 59.5044 239.105 59.5149 239.629 59.5515C240.146 59.5907 240.452 59.9175 240.526 60.5268C240.526 61.7583 240.499 62.7467 240.441 63.4919C240.383 64.2397 240.294 64.9221 240.18 65.5314C240.062 66.1458 239.867 66.4544 239.595 66.4544C239.558 66.4988 239.49 66.5119 239.397 66.5119H239.192C237.721 66.4361 236.215 66.3681 234.67 66.3106C233.12 66.2556 231.572 66.1458 230.025 65.9942C229.526 65.9602 229.205 65.8138 229.073 65.5627C228.938 65.3091 228.833 64.9195 228.756 64.3835Z" fill="white"/>
<path d="M288.846 67.2571C288.651 67.1838 288.461 67.0557 288.264 66.8832C288.071 66.7106 287.958 66.5276 287.918 66.3367L286.529 54.1416C286.529 53.9899 286.458 53.8514 286.323 53.7389C286.189 53.6213 286.059 53.5821 285.946 53.6213L279.215 54.254L280.317 64.3233C280.394 64.9352 280.57 65.5 280.839 66.0203C281.111 66.538 281.282 67.0845 281.364 67.6597C281.398 67.8898 281.38 68.0363 281.306 68.0885C281.229 68.1461 281.05 68.1958 280.781 68.2324C280.707 68.2324 280.599 68.2428 280.462 68.2663C280.328 68.2873 280.241 68.2925 280.204 68.2925H279.479C279.152 68.2925 278.809 68.303 278.464 68.3213C278.113 68.3422 277.794 68.3657 277.507 68.3788C277.217 68.3945 277.032 68.4049 276.956 68.4049C276.259 68.4049 275.698 68.3317 275.271 68.1748C274.849 68.0232 274.519 67.7931 274.287 67.4898C274.055 67.1839 273.892 66.8073 273.792 66.3628C273.694 65.9236 273.607 65.4163 273.528 64.8411C273.338 62.7284 273.183 60.6366 273.064 58.5422C272.951 56.4504 272.853 54.3351 272.777 52.1858C272.777 52.1466 272.766 51.9374 272.745 51.553C272.724 51.1713 272.695 50.7294 272.658 50.23C272.621 49.7332 272.582 49.2416 272.545 48.7605C272.502 48.282 272.466 47.9081 272.426 47.6388C272.352 46.1798 272.415 44.841 272.632 43.6095C272.843 42.3832 273.085 41.0418 273.354 39.5854C273.122 38.9317 273.172 38.2415 273.502 37.5146C273.826 36.7877 274.09 36.134 274.285 35.5587C274.359 35.2528 274.409 34.9626 274.43 34.6959C274.448 34.4266 274.517 34.1206 274.63 33.7729C274.63 33.7389 274.654 33.6709 274.688 33.5742C274.728 33.4774 274.767 33.4304 274.804 33.4304C275.229 32.6616 275.598 31.8877 275.906 31.1006C276.215 30.3162 276.639 29.537 277.185 28.7683C277.53 28.3081 277.955 27.8401 278.458 27.359C278.957 26.8805 279.502 26.4307 280.08 26.0098C280.662 25.5862 281.269 25.2437 281.907 24.9743C282.545 24.705 283.172 24.5324 283.792 24.4566C285.532 24.3024 286.887 24.5403 287.852 25.1731C288.82 25.8058 289.584 26.6242 290.146 27.6204C290.702 28.6167 291.137 29.7174 291.448 30.9281C291.757 32.1335 292.108 33.2578 292.493 34.2906C292.493 34.4057 292.519 34.6174 292.577 34.926C292.635 35.2345 292.682 35.5587 292.725 35.9039C292.764 36.249 292.809 36.5654 292.87 36.853C292.925 37.138 292.957 37.3394 292.957 37.4544C293.225 39.9881 293.389 42.5375 293.45 45.1051C293.508 47.6754 293.597 50.2274 293.711 52.7558C293.711 53.4095 293.663 54.0815 293.566 54.7717C293.468 55.4647 293.442 56.134 293.479 56.7877C293.479 56.8635 293.5 57.0649 293.537 57.3865C293.574 57.7133 293.61 58.0715 293.653 58.4533C293.69 58.8377 293.74 59.1906 293.798 59.5175C293.856 59.8443 293.885 60.043 293.885 60.1162V62.0198C293.885 62.0956 293.893 62.2969 293.914 62.6185C293.932 62.9454 293.953 63.3036 293.972 63.6853C293.993 64.0697 294.009 64.4227 294.027 64.7495C294.045 65.0764 294.059 65.296 294.059 65.4111C294.059 65.6412 294.016 65.9889 293.94 66.4465C293.866 66.9067 293.61 67.1786 293.189 67.2544H293.07C293.03 67.2544 292.904 67.2335 292.693 67.1969C292.479 67.1603 292.353 67.1394 292.316 67.1394C292.197 67.1394 291.965 67.1499 291.62 67.1734C291.269 67.1943 290.911 67.1995 290.544 67.1995C290.178 67.1995 289.83 67.21 289.5 67.2283C289.184 67.2466 288.962 67.2571 288.846 67.2571ZM279.336 46.5484C279.376 47.0086 279.645 47.3381 280.148 47.5237C280.649 47.7172 281.232 47.8401 281.886 47.9002C282.545 47.9578 283.204 47.9787 283.858 47.9578C284.517 47.9369 285.018 47.9081 285.366 47.8715C285.442 47.8715 285.598 47.861 285.83 47.8401C286.062 47.8218 286.215 47.8113 286.297 47.8113C286.371 47.6937 286.431 47.5917 286.468 47.4976C286.51 47.4008 286.545 47.2936 286.587 47.1812C286.587 46.9511 286.566 46.5772 286.531 46.0569C286.489 45.5418 286.46 44.9744 286.442 44.3625C286.423 43.7507 286.405 43.1833 286.384 42.6656C286.363 42.1452 286.357 41.7739 286.357 41.5439C286.394 41.468 286.413 41.2928 286.413 41.0261V40.4509L285.83 34.8685C285.791 34.6044 285.696 34.2932 285.543 33.9507C285.387 33.6055 285.195 33.2892 284.96 32.9989C284.728 32.7139 284.449 32.4838 284.122 32.3113C283.792 32.1361 283.457 32.0707 283.107 32.1099C282.798 32.1465 282.503 32.2433 282.236 32.3975C280.96 33.6997 280.167 35.0619 279.858 36.4817C279.55 37.8989 279.376 39.4547 279.339 41.1412C279.339 42.059 279.318 42.9636 279.284 43.8448C279.239 44.7286 279.26 45.6254 279.336 46.5484Z" fill="white"/>
<path d="M316.398 65.8762C316.242 65.8762 316.063 65.9311 315.847 66.0435C315.636 66.1638 315.425 66.2867 315.209 66.4227C315 66.5612 314.813 66.6946 314.658 66.8253C314.502 66.9613 314.41 67.0476 314.37 67.0842C313.827 67.3535 313.231 67.5078 312.572 67.547C311.913 67.5862 311.296 67.6019 310.716 67.6019C309.363 67.6437 308.098 67.3352 306.917 66.6815C305.741 66.0331 304.686 65.165 303.758 64.0877C302.83 63.0183 302.063 61.8207 301.467 60.4925C300.863 59.1746 300.468 57.8777 300.278 56.6148C300.046 55.1218 299.917 53.6 299.901 52.0417C299.877 50.4885 299.851 48.9406 299.814 47.411C299.738 45.4552 299.869 43.3686 300.217 41.1435C300.565 38.9184 301.148 36.905 301.957 35.1009C302.305 34.3374 302.77 33.5216 303.35 32.6587C303.93 31.7958 304.597 30.9801 305.353 30.2139C306.105 29.4478 306.906 28.768 307.76 28.1718C308.607 27.5809 309.458 27.1652 310.31 26.9351C310.468 26.9351 310.777 26.9168 311.241 26.8775C311.705 26.8383 312.013 26.82 312.171 26.82C313.83 26.7834 315.188 26.9272 316.232 27.2541C317.273 27.5809 318.077 28.1065 318.639 28.8334C319.198 29.5603 319.572 30.5016 319.767 31.652C319.962 32.8051 320.078 34.204 320.115 35.8539V36.4004C320.115 36.6488 320.126 36.9155 320.147 37.2031C320.168 37.4933 320.178 37.7679 320.178 38.0398V38.6124C320.136 38.9184 320.097 39.253 320.06 39.6191C320.018 39.9852 319.954 40.3225 319.859 40.6284C319.759 40.9343 319.617 41.201 319.424 41.4285C319.227 41.6612 318.958 41.7763 318.607 41.7763C317.835 41.7396 317.12 41.6429 316.464 41.4886C315.92 41.3736 315.42 41.2298 314.958 41.0572C314.491 40.882 314.262 40.6467 314.262 40.3355L314.201 36.1389C314.201 35.6029 313.959 35.1427 313.482 34.7609C312.997 34.3766 312.504 34.1831 311.997 34.1831C310.758 34.2249 309.727 34.7714 308.894 35.8225C308.064 36.8789 307.399 38.1339 306.896 39.5903C306.389 41.0467 306.031 42.5424 305.82 44.0772C305.606 45.6121 305.504 46.8959 305.504 47.9339C305.54 48.8543 305.67 49.997 305.881 51.3566C306.092 52.7189 306.442 54.0315 306.925 55.297C307.412 56.5651 308.045 57.6398 308.839 58.521C309.635 59.3995 310.647 59.8388 311.887 59.8388C312.583 59.8022 313.144 59.5538 313.566 59.0936C313.993 58.6334 314.167 58.0608 314.091 57.3679C314.091 57.326 314.08 57.2293 314.059 57.0829C314.041 56.926 314.022 56.7665 314.004 56.5913C313.985 56.4161 313.946 56.2671 313.885 56.1311C313.83 55.9977 313.761 55.9298 313.685 55.9298L310.961 55.9847C310.845 55.9847 310.719 55.9167 310.579 55.7886C310.442 55.65 310.318 55.4879 310.202 55.297C310.088 55.1061 309.988 54.9257 309.914 54.7505C309.838 54.5806 309.796 54.4341 309.796 54.3191L309.74 50.5748C309.74 50.1931 309.893 49.8793 310.204 49.6309C310.516 49.3825 310.845 49.257 311.193 49.257H311.423C311.618 49.2962 311.955 49.3746 312.44 49.4819C312.925 49.5995 313.223 49.6806 313.337 49.7119L320.819 49.4819C320.896 49.4819 321.004 49.5943 321.138 49.8035C321.278 50.0126 321.383 50.1774 321.457 50.2924C321.499 50.3316 321.523 50.3656 321.544 50.4075C321.565 50.4493 321.597 50.4859 321.631 50.5225C321.673 50.5983 321.71 50.6585 321.747 50.6925C321.747 50.8075 321.729 51.0402 321.689 51.3854C321.65 51.7305 321.615 51.9658 321.576 52.0783L321.863 67.2646C321.863 67.5731 321.755 67.8111 321.544 67.9863C321.333 68.1536 321.128 68.2373 320.938 68.2373C320.397 68.2817 319.825 68.2216 319.227 68.0699C318.628 67.9183 318.117 67.6882 317.69 67.3797C317.421 67.2254 317.228 66.9378 317.112 66.5168C316.978 66.088 316.746 65.8762 316.398 65.8762Z" fill="white"/>
<path d="M347.192 68.1777C346.847 68.1019 346.589 67.8953 346.409 67.5449C346.238 67.1998 346.101 66.8337 346.003 66.452C345.911 66.0676 345.832 65.7355 345.771 65.4453C345.716 65.1603 345.605 65.0139 345.452 65.0139C345.22 65.0557 344.925 65.2257 344.556 65.529C344.184 65.8349 343.773 66.1826 343.306 66.567C342.842 66.9488 342.32 67.3122 341.74 67.66C341.16 68.0051 340.559 68.196 339.939 68.23C339.167 68.3084 338.405 68.2744 337.648 68.1228C336.897 67.9659 336.211 67.694 335.592 67.3122C334.2 66.5069 333.108 65.508 332.314 64.321C331.523 63.1313 330.901 61.837 330.458 60.4381C330.013 59.0392 329.704 57.5828 329.528 56.0663C329.356 54.5523 329.193 53.0855 329.035 51.6657C328.766 48.983 328.718 46.3186 328.89 43.6699C329.061 41.0211 329.245 38.3384 329.441 35.6165V35.1302C329.441 34.8425 329.459 34.5366 329.499 34.2124C329.538 33.8856 329.554 33.5796 329.554 33.2894V32.7429C329.591 32.1311 329.609 31.5924 329.609 31.1322C329.609 30.6721 329.686 30.2798 329.841 29.953C329.997 29.6288 330.258 29.349 330.624 29.1189C330.993 28.8914 331.56 28.7162 332.338 28.6012C332.528 28.5646 332.813 28.575 333.177 28.63C333.54 28.6849 333.931 28.7738 334.334 28.8914C334.74 29.0039 335.13 29.1398 335.494 29.2941C335.863 29.4457 336.103 29.6 336.216 29.7543C336.216 29.8301 336.24 29.9635 336.274 30.1543C336.314 30.3452 336.332 30.4812 336.332 30.557C336.409 31.4042 336.43 32.2801 336.388 33.2031C336.351 34.1261 336.272 35.0543 336.156 35.993C336.04 36.9343 335.932 37.8625 335.837 38.7829C335.739 39.7033 335.673 40.5845 335.636 41.429C335.518 43.1548 335.539 44.8439 335.694 46.4911C335.847 48.141 336.021 49.8249 336.211 51.5585C336.33 52.7482 336.493 53.9039 336.707 55.0361C336.918 56.1656 337.511 57.154 338.479 57.9933C338.552 58.0744 338.766 58.247 339.114 58.5189C339.462 58.7804 339.673 58.9582 339.752 59.0314C339.792 59.0314 339.86 59.0523 339.955 59.0889C340.053 59.1281 340.121 59.1464 340.155 59.1464H340.274H340.329C340.409 59.102 340.561 59.0288 340.793 58.9137C341.025 58.7987 341.181 58.6418 341.257 58.4535C342.03 56.8847 342.581 55.3289 342.911 53.7941C343.24 52.2618 343.451 50.7348 343.549 49.2209C343.646 47.707 343.678 46.1643 343.636 44.5902C343.599 43.0188 343.599 41.3898 343.636 39.7007V39.3268C343.636 39.1176 343.646 38.8875 343.667 38.6365C343.688 38.3855 343.707 38.1476 343.723 37.9175C343.744 37.6874 343.754 37.5148 343.754 37.3997C343.754 37.3631 343.77 37.2063 343.81 36.9422C343.847 36.6702 343.886 36.3748 343.926 36.0479C343.965 35.7237 343.999 35.4361 344.042 35.1851C344.079 34.9367 344.097 34.7746 344.097 34.6961C344.139 33.6973 344.108 32.8187 344.01 32.05C343.918 31.2839 343.926 30.6328 344.042 30.0942C344.158 29.5556 344.469 29.1268 344.97 28.7999C345.471 28.4731 346.362 28.2534 347.638 28.1358C347.873 28.1018 348.178 28.0626 348.569 28.026C348.956 27.9867 349.331 27.9763 349.7 27.9946C350.071 28.0155 350.417 28.0913 350.746 28.2247C351.073 28.3606 351.313 28.5986 351.469 28.9437C351.469 29.1372 351.508 29.4693 351.582 29.9504C351.659 30.4289 351.722 30.7479 351.756 30.8995C351.951 32.7403 351.978 34.5445 351.843 36.3068C351.709 38.0691 351.603 39.8733 351.524 41.7167C351.487 42.2527 351.506 42.8436 351.579 43.4973C351.656 44.151 351.637 44.7837 351.524 45.3956C351.798 47.1605 351.978 48.915 352.075 50.659C352.173 52.4057 352.241 54.1601 352.281 55.9225C352.318 57.6848 352.352 59.455 352.394 61.2147C352.431 62.9848 352.51 64.7419 352.626 66.5069C352.55 66.8128 352.452 67.1239 352.339 67.4299C352.22 67.7358 351.988 67.9084 351.64 67.945C350.828 68.0182 350.103 68.0417 349.465 68.0025C348.827 67.9633 348.083 68.0208 347.192 68.1777Z" fill="white"/>
<path d="M376.079 67.2571C375.887 67.1838 375.692 67.0557 375.499 66.8832C375.304 66.7106 375.191 66.5276 375.149 66.3367L373.762 54.1416C373.762 53.9899 373.693 53.8514 373.556 53.7389C373.422 53.6213 373.295 53.5821 373.176 53.6213L366.451 54.254L367.553 64.3233C367.627 64.9352 367.806 65.5 368.072 66.0203C368.346 66.538 368.515 67.0845 368.597 67.6597C368.634 67.8898 368.613 68.0363 368.536 68.0885C368.462 68.1461 368.283 68.1958 368.017 68.2324C367.94 68.2324 367.832 68.2428 367.698 68.2663C367.563 68.2873 367.476 68.2925 367.434 68.2925H366.712C366.385 68.2925 366.045 68.303 365.694 68.3213C365.349 68.3422 365.03 68.3657 364.74 68.3788C364.45 68.3919 364.262 68.4049 364.189 68.4049C363.49 68.4049 362.928 68.3317 362.506 68.1748C362.079 68.0232 361.75 67.7931 361.518 67.4898C361.286 67.1839 361.125 66.8073 361.025 66.3628C360.927 65.9236 360.843 65.4163 360.764 64.8411C360.571 62.7284 360.413 60.6366 360.3 58.5422C360.181 56.4504 360.083 54.3351 360.01 52.1858C360.01 52.1466 360.002 51.9374 359.981 51.553C359.96 51.1713 359.928 50.7294 359.894 50.23C359.851 49.7332 359.815 49.2416 359.778 48.7605C359.738 48.282 359.699 47.9081 359.662 47.6388C359.585 46.1798 359.651 44.841 359.862 43.6095C360.073 42.3832 360.315 41.0418 360.587 39.5854C360.355 38.9317 360.402 38.2415 360.732 37.5146C361.062 36.7877 361.325 36.134 361.515 35.5587C361.592 35.2528 361.644 34.9626 361.663 34.6959C361.681 34.4266 361.747 34.1206 361.866 33.7729C361.866 33.7389 361.887 33.6709 361.921 33.5742C361.963 33.4774 362 33.4304 362.04 33.4304C362.462 32.6616 362.833 31.8877 363.142 31.1006C363.448 30.3162 363.872 29.537 364.418 28.7683C364.763 28.3081 365.188 27.8401 365.689 27.359C366.19 26.8805 366.733 26.4307 367.315 26.0098C367.893 25.5862 368.502 25.2437 369.14 24.9743C369.778 24.705 370.403 24.5324 371.025 24.4566C372.765 24.3024 374.118 24.5403 375.085 25.1731C376.053 25.8058 376.817 26.6242 377.379 27.6204C377.935 28.6167 378.37 29.7174 378.681 30.9281C378.987 32.1335 379.341 33.2578 379.726 34.2906C379.726 34.4057 379.757 34.6174 379.813 34.926C379.868 35.2345 379.918 35.5587 379.958 35.9039C380 36.249 380.045 36.5654 380.105 36.853C380.163 37.138 380.19 37.3394 380.19 37.4544C380.461 39.9881 380.627 42.5375 380.685 45.1051C380.741 47.6754 380.83 50.2274 380.949 52.7558C380.949 53.4095 380.899 54.0815 380.801 54.7717C380.706 55.4647 380.677 56.134 380.717 56.7877C380.717 56.8635 380.733 57.0649 380.772 57.3865C380.809 57.7133 380.849 58.0715 380.888 58.4533C380.928 58.8377 380.973 59.1906 381.036 59.5175C381.091 59.8443 381.12 60.043 381.12 60.1162V62.0198C381.12 62.0956 381.128 62.2969 381.149 62.6185C381.17 62.9454 381.191 63.3036 381.207 63.6853C381.228 64.0697 381.244 64.4227 381.265 64.7495C381.281 65.0764 381.292 65.296 381.292 65.4111C381.292 65.6412 381.255 65.9889 381.178 66.4465C381.102 66.9067 380.849 67.1786 380.422 67.2544H380.308C380.266 67.2544 380.142 67.2335 379.931 67.1969C379.715 67.1603 379.588 67.1394 379.552 67.1394C379.436 67.1394 379.204 67.1499 378.853 67.1734C378.507 67.1943 378.146 67.1995 377.782 67.1995C377.411 67.1995 377.065 67.21 376.738 67.2283C376.417 67.2466 376.195 67.2571 376.079 67.2571ZM366.567 46.5484C366.609 47.0086 366.875 47.3381 367.381 47.5237C367.88 47.7172 368.465 47.8401 369.121 47.9002C369.775 47.9578 370.434 47.9787 371.094 47.9578C371.747 47.9369 372.251 47.9081 372.602 47.8715C372.675 47.8715 372.834 47.861 373.066 47.8401C373.298 47.8218 373.451 47.8113 373.53 47.8113C373.606 47.6937 373.664 47.5917 373.704 47.4976C373.743 47.4008 373.778 47.2936 373.817 47.1812C373.817 46.9511 373.796 46.5772 373.762 46.0569C373.717 45.5418 373.693 44.9744 373.672 44.3625C373.654 43.7507 373.635 43.1833 373.617 42.6656C373.596 42.1452 373.585 41.7739 373.585 41.5439C373.627 41.468 373.643 41.2928 373.643 41.0261V40.4509L373.063 34.8685C373.021 34.6044 372.923 34.2932 372.773 33.9507C372.615 33.6055 372.425 33.2892 372.193 32.9989C371.961 32.7139 371.679 32.4838 371.352 32.3113C371.022 32.1361 370.688 32.0707 370.337 32.1099C370.028 32.1465 369.736 32.2433 369.467 32.3975C368.193 33.6997 367.397 35.0619 367.091 36.4817C366.778 37.8989 366.606 39.4547 366.567 41.1412C366.567 42.059 366.546 42.9636 366.511 43.8448C366.469 44.7286 366.493 45.6254 366.567 46.5484Z" fill="white"/>
</svg>
