<svg width="427" height="52" viewBox="0 0 427 52" fill="none" xmlns="http://www.w3.org/2000/svg">
<path d="M50.191 26.1168C50.191 39.9133 39.0571 51.2336 25.0955 51.2336C11.1339 51.2336 0 40.0902 0 26.1168C0 12.3203 11.1339 1 25.0955 1C39.0571 1 50.191 12.3203 50.191 26.1168Z" fill="#2BB673"/>
<path d="M18.3789 25.1433C18.3789 21.6057 18.5556 20.3675 18.9091 19.1294C19.9694 15.7687 22.6204 14 26.155 14C29.3361 14 31.8103 15.5919 33.0474 18.4219C33.0474 18.5988 33.0474 18.7757 32.8707 18.7757L30.9267 19.6601C30.75 19.837 30.5732 19.66 30.3965 19.4832C29.5128 17.7144 28.2757 16.6532 25.9782 16.6532C23.6808 16.6532 22.2669 17.7144 21.56 19.8369C21.2065 20.7213 21.2066 21.7826 21.2066 25.1433C21.2066 28.504 21.3833 29.5652 21.56 30.4496C22.2669 32.5722 23.6808 33.6334 25.9782 33.6334C28.2757 33.6334 29.5128 32.3953 30.3965 30.8034C30.3965 30.6265 30.5732 30.6265 30.9267 30.6265L32.8707 31.5108C33.0474 31.6877 33.0474 31.6877 33.0474 31.8646C31.8103 34.6947 29.3361 36.2866 26.155 36.2866C22.6204 36.2866 19.9694 34.5179 18.9091 31.1572C18.3789 30.0959 18.3789 28.8577 18.3789 25.1433Z" fill="white"/>
<path d="M146.191 26.1168C146.191 39.9133 135.057 51.2336 121.095 51.2336C107.134 51.2336 96 40.0902 96 26.1168C96 12.3203 107.134 1 121.095 1C135.057 1 146.191 12.3203 146.191 26.1168Z" fill="#2BB673"/>
<path d="M111 15.3252C111 15.1312 111.134 15 111.341 15H113.557C113.827 15 113.997 15.0988 114.102 15.3252L121.016 30.1416H121.12L127.9 15.3252C128.001 15.0988 128.171 15 128.445 15H130.659C130.864 15 131 15.1312 131 15.3252V36.6784C131 36.8706 130.864 37 130.659 37H128.513C128.307 37 128.171 36.8724 128.171 36.6784V21.375H128.071L122.312 33.4747C122.174 33.7658 122.004 33.8628 121.697 33.8628H120.337C119.994 33.8628 119.824 33.7658 119.688 33.4747L113.929 21.375H113.827V36.6784C113.827 36.8706 113.691 37 113.487 37H111.341C111.134 37 111 36.8724 111 36.6784V15.3252Z" fill="white"/>
<path d="M336.191 26.1168C336.191 39.9133 325.057 51.2336 311.095 51.2336C297.134 51.2336 286 40.0902 286 26.1168C286 12.3203 297.134 1 311.095 1C325.057 1 336.191 12.3203 336.191 26.1168Z" fill="#2BB673"/>
<path d="M304.379 25.1433C304.379 21.6057 304.556 20.3675 304.909 19.1294C305.969 15.7687 308.62 14 312.155 14C315.336 14 317.81 15.5919 319.047 18.4219C319.047 18.5988 319.047 18.7757 318.871 18.7757L316.927 19.6601C316.75 19.837 316.573 19.66 316.396 19.4832C315.513 17.7144 314.276 16.6532 311.978 16.6532C309.681 16.6532 308.267 17.7144 307.56 19.8369C307.207 20.7213 307.207 21.7826 307.207 25.1433C307.207 28.504 307.383 29.5652 307.56 30.4496C308.267 32.5722 309.681 33.6334 311.978 33.6334C314.276 33.6334 315.513 32.3953 316.396 30.8034C316.396 30.6265 316.573 30.6265 316.927 30.6265L318.871 31.5108C319.047 31.6877 319.047 31.6877 319.047 31.8646C317.81 34.6947 315.336 36.2866 312.155 36.2866C308.62 36.2866 305.969 34.5179 304.909 31.1572C304.379 30.0959 304.379 28.8577 304.379 25.1433Z" fill="white"/>
<path d="M426.191 26.1167C426.191 39.9132 415.057 51.2335 401.096 51.2335C387.134 51.2335 376 40.0901 376 26.1167C376 12.3202 387.134 1 401.096 1C415.057 1 426.191 12.1434 426.191 26.1167Z" fill="#2BB673"/>
<path d="M400.212 36.7561C400.035 36.7561 399.858 36.5792 399.858 36.4023V17.8301C399.858 17.6532 399.858 17.6532 399.682 17.6532H393.85C393.673 17.6532 393.496 17.4764 393.496 17.2995V15.3538C393.496 15.1769 393.673 15 393.85 15H408.872C409.048 15 409.225 15.1769 409.225 15.3538V17.2995C409.225 17.4764 409.048 17.6532 408.872 17.6532H402.863C402.686 17.6532 402.686 17.6532 402.686 17.8301V36.4023C402.686 36.5792 402.509 36.7561 402.333 36.7561H400.212Z" fill="white"/>
<path d="M216.299 37C216.118 37 216 36.8706 216 36.6766V15.3234C216 15.1294 216.118 15 216.299 15H223.536C227.455 15 230 17.589 230 21.5668C230 25.5463 227.456 28.1335 223.536 28.1335H218.841C218.723 28.1335 218.663 28.1982 218.663 28.3294V36.6766C218.663 36.8688 218.542 37 218.362 37H216.299ZM227.367 21.5668C227.367 19.1736 225.902 17.686 223.386 17.686H218.841C218.723 17.686 218.663 17.7507 218.663 17.8782V25.2553C218.663 25.3846 218.723 25.4493 218.841 25.4493H223.386C225.903 25.4511 227.367 23.9617 227.367 21.5668Z" fill="#41AA54"/>
<path d="M222 51C235.807 51 247 39.8071 247 26C247 12.1929 235.807 1 222 1C208.193 1 197 12.1929 197 26C197 39.8071 208.193 51 222 51Z" stroke="#41AA54" stroke-dasharray="2 3"/>
</svg>
