<svg width="436" height="137" viewBox="0 0 436 137" fill="none" xmlns="http://www.w3.org/2000/svg">
<path d="M2 135H434" stroke="#231F20" stroke-width="3" stroke-linecap="round" stroke-linejoin="round" stroke-dasharray="6 6"/>
<path d="M145 57H190" stroke="#231F20" stroke-width="3" stroke-linecap="round" stroke-linejoin="round" stroke-dasharray="6 6"/>
<path d="M211.345 39.4414H202.644L199.655 47H198L206.613 25.4961H207.565L216.003 47H214.318L211.345 39.4414ZM203.186 38.0938H210.847L207.932 30.374C207.688 29.7686 207.395 28.9287 207.053 27.8545C206.789 28.792 206.501 29.6416 206.188 30.4033L203.186 38.0938ZM224.631 47H223.122V26.9902H216.164V25.584H231.589V26.9902H224.631V47ZM252.785 36.2627C252.785 39.6611 251.936 42.3516 250.236 44.334C248.537 46.3066 246.193 47.293 243.205 47.293C240.227 47.293 237.888 46.3066 236.188 44.334C234.489 42.3516 233.64 39.6514 233.64 36.2334C233.64 32.8252 234.494 30.1445 236.203 28.1914C237.922 26.2285 240.266 25.2471 243.234 25.2471C246.223 25.2471 248.562 26.2334 250.251 28.2061C251.94 30.1689 252.785 32.8545 252.785 36.2627ZM235.266 36.2627C235.266 39.3291 235.949 41.7021 237.316 43.3818C238.684 45.0518 240.646 45.8867 243.205 45.8867C245.783 45.8867 247.751 45.0566 249.108 43.3965C250.476 41.7363 251.159 39.3584 251.159 36.2627C251.159 33.1768 250.476 30.8135 249.108 29.1729C247.751 27.5225 245.793 26.6973 243.234 26.6973C240.686 26.6973 238.718 27.5273 237.331 29.1875C235.954 30.8477 235.266 33.2061 235.266 36.2627Z" fill="black"/>
<path d="M179.828 28.7891C179.828 31.3906 178.938 33.3945 177.156 34.8008C175.387 36.1953 172.85 36.8926 169.545 36.8926H166.521V47H163.533V21.3008H170.195C176.617 21.3008 179.828 23.7969 179.828 28.7891ZM166.521 34.3262H169.211C171.859 34.3262 173.775 33.8984 174.959 33.043C176.143 32.1875 176.734 30.8164 176.734 28.9297C176.734 27.2305 176.178 25.9648 175.064 25.1328C173.951 24.3008 172.217 23.8848 169.861 23.8848H166.521V34.3262Z" fill="#2BB673"/>
<path d="M169.828 104.789C169.828 107.391 168.938 109.395 167.156 110.801C165.387 112.195 162.85 112.893 159.545 112.893H156.521V123H153.533V97.3008H160.195C166.617 97.3008 169.828 99.7969 169.828 104.789ZM156.521 110.326H159.211C161.859 110.326 163.775 109.898 164.959 109.043C166.143 108.188 166.734 106.816 166.734 104.93C166.734 103.23 166.178 101.965 165.064 101.133C163.951 100.301 162.217 99.8848 159.861 99.8848H156.521V110.326ZM194.979 123L191.78 114.826H181.479L178.315 123H175.291L185.452 97.1953H187.965L198.073 123H194.979ZM190.848 112.137L187.86 104.174C187.473 103.166 187.075 101.93 186.664 100.465C186.407 101.59 186.038 102.826 185.557 104.174L182.534 112.137H190.848ZM213.116 123H210.128V99.9551H201.989V97.3008H221.255V99.9551H213.116V123ZM251.046 110.115C251.046 114.229 250.003 117.463 247.917 119.818C245.843 122.174 242.954 123.352 239.251 123.352C235.466 123.352 232.542 122.197 230.48 119.889C228.429 117.568 227.404 114.299 227.404 110.08C227.404 105.896 228.435 102.656 230.497 100.359C232.56 98.0508 235.489 96.8965 239.286 96.8965C242.978 96.8965 245.861 98.0684 247.935 100.412C250.009 102.756 251.046 105.99 251.046 110.115ZM230.568 110.115C230.568 113.596 231.306 116.238 232.782 118.043C234.271 119.836 236.427 120.732 239.251 120.732C242.099 120.732 244.249 119.836 245.702 118.043C247.155 116.25 247.882 113.607 247.882 110.115C247.882 106.658 247.155 104.039 245.702 102.258C244.261 100.465 242.122 99.5684 239.286 99.5684C236.439 99.5684 234.271 100.471 232.782 102.275C231.306 104.068 230.568 106.682 230.568 110.115Z" fill="#2BB673"/>
</svg>
