<svg width="151" height="214" viewBox="0 0 151 214" fill="none" xmlns="http://www.w3.org/2000/svg">
<path fill-rule="evenodd" clip-rule="evenodd" d="M83.2439 36.0537H85.1002L85.5797 68.0711H83.2439V36.0537Z" fill="black"/>
<path fill-rule="evenodd" clip-rule="evenodd" d="M90.386 36.0537H92.7202V68.0711H91.0422L90.386 36.0537Z" fill="black"/>
<path d="M99.8397 36.0537H97.5129V68.0726H99.8397V36.0537Z" fill="black"/>
<path fill-rule="evenodd" clip-rule="evenodd" d="M104.646 36.0537H106.975L106.516 68.6045L104.646 68.0711V36.0537Z" fill="black"/>
<path d="M114.129 36.0537H111.788V68.0726H114.129V36.0537Z" fill="black"/>
<path fill-rule="evenodd" clip-rule="evenodd" d="M118.71 67.0611L78.3582 66.3614V37.294L119.185 36.7637L118.71 67.0611Z" fill="black"/>
<path fill-rule="evenodd" clip-rule="evenodd" d="M69.2172 136.744C69.5678 137.116 71.3268 132.238 71.3268 132.238C71.3268 132.238 69.8959 131.264 69.7446 130.865C68.9191 128.694 70.3724 127.635 69.436 127.178C67.7879 126.371 66.9729 129.806 66.3811 130.199C60.1784 134.344 69.0195 136.529 69.2172 136.744Z" fill="#DDCB9F"/>
<path fill-rule="evenodd" clip-rule="evenodd" d="M100.643 190.386L113.332 202.267L116.343 199.489C114.876 196.788 108.951 190.184 107.484 188.596C104.667 185.544 101.281 181.875 101.281 181.875C101.281 181.875 94.325 178.782 96.6922 186.109C97.1402 187.491 100.643 190.386 100.643 190.386Z" fill="#DDCB9F"/>
<path fill-rule="evenodd" clip-rule="evenodd" d="M79.5043 187.246L77.7334 205.28L81.7831 205.936C83.0042 203.118 84.7856 193.667 85.1332 191.534C85.7984 187.429 86.597 182.501 86.597 182.501L80.4392 181.5L79.5043 187.246Z" fill="#DDCB9F"/>
<path fill-rule="evenodd" clip-rule="evenodd" d="M82.9578 109.524C82.4289 116.374 76.2906 122.499 77.6135 129.072C78.3567 132.756 79.4968 132.563 80.2849 135.682C80.9921 138.494 78.7926 154.314 78.066 157.685C75.1909 171.071 73.6267 184.721 73.6267 184.721L109.222 185.771C109.222 185.771 105.92 161.007 103.539 154.394C101.158 147.778 99.6137 140.029 99.0414 134.097C97.0352 113.198 96.4195 111.077 96.4195 111.077L82.9578 109.524Z" fill="#FF0000"/>
<path fill-rule="evenodd" clip-rule="evenodd" d="M73.5833 62.6609C73.5833 62.6609 64.6852 140.742 63.124 147.905C61.5599 155.068 56.5932 157.652 53.6357 157.085C50.6782 156.52 51.6745 149.25 51.6745 149.25L47.8869 148.528C47.8869 148.528 44.0365 161.143 54.6095 161.982C65.1826 162.826 66.7213 148.591 66.7213 148.591L76.7371 63.2617L73.5833 62.6609Z" fill="black"/>
<path fill-rule="evenodd" clip-rule="evenodd" d="M99.4909 134.924C98.0646 133.472 99.3531 139.284 94.6786 140.202C83.668 142.361 72.8717 140.03 69.1755 137.153L70.9749 130.709C82.0709 137.176 99.7696 132.112 99.7696 132.112L99.4909 134.924Z" fill="#FF0000"/>
<path fill-rule="evenodd" clip-rule="evenodd" d="M77.1596 203.075L82.778 203.873C82.778 203.873 82.5877 206.142 82.8199 208.031C83.0537 209.919 82.2551 213.072 82.2551 213.072H80.4962L80.6565 211.17C80.6565 211.17 79.7396 212.762 77.7334 212.633C74.2919 212.412 67.5199 211.82 68.8099 209.793C69.5995 208.552 71.3119 208.274 72.509 208.031C73.9444 207.739 75.2688 207.911 75.919 206.591C76.5693 205.274 77.1596 203.075 77.1596 203.075Z" fill="#FF0000"/>
<path fill-rule="evenodd" clip-rule="evenodd" d="M111.369 201.494L116.244 198.589C116.244 198.589 117.519 200.473 118.889 201.799C120.256 203.122 121.615 206.077 121.615 206.077L120.247 207.183L119.176 205.599C119.176 205.599 119.458 207.413 117.82 208.571C115.001 210.561 108.666 211.98 108.396 209.593C108.233 208.129 109.833 207.211 110.678 206.88C112.075 206.33 112.935 206.444 112.612 205.01C112.289 203.576 111.369 201.494 111.369 201.494Z" fill="#FF0000"/>
<path fill-rule="evenodd" clip-rule="evenodd" d="M67.1664 87.1706C66.2765 89.6546 60.9517 91.1888 62.8335 93.2774C63.6486 94.1793 66.6571 95.6236 66.6571 95.6236C66.6571 95.6236 68.6887 98.6381 67.592 100.072C68.798 101.988 71.5788 100.649 71.5788 100.649C71.3061 102.107 69.5996 103.056 71.5593 104.552C74.6592 106.916 65.0689 115.326 85.5783 113.594C96.2129 112.698 104.455 107.984 106.87 104.012C112.789 94.2857 102.243 79.0021 101.15 78.3864C100.056 77.7706 93.7512 70.3019 86.0937 68.7002C78.4377 67.1031 75.7229 70.0816 73.0306 71.1813C70.3382 72.2825 68.9179 82.2863 67.1664 87.1706Z" fill="#DDCB9F"/>
<path fill-rule="evenodd" clip-rule="evenodd" d="M67.5496 72.0802C67.5496 72.0802 62.8317 78.8283 66.4574 79.5894C70.0862 80.3505 76.3308 72.5866 76.3308 72.5866C76.3308 72.5866 74.5824 76.7337 78.725 77.9967C82.8692 79.2612 84.8903 74.4699 84.8903 74.4699C84.8903 74.4699 87.5317 81.9176 90.3828 79.7632C93.234 77.6087 93.9681 72.3364 93.6011 74.9733C93.234 77.6102 95.0753 105.503 111.394 108.272C125.672 110.694 126.664 86.5472 126.664 86.5472C126.664 86.5472 120.201 96.9675 114.388 87.1645C111.075 81.576 111.763 73.3612 109.58 69.9617C104.459 61.979 95.823 58.608 83.389 58.0641C70.9521 57.5173 58.4104 67.4746 59.7153 71.5798C61.0173 75.6879 65.999 72.63 67.5496 72.0802Z" fill="#FFE610"/>
<path fill-rule="evenodd" clip-rule="evenodd" d="M78.7194 79.4547C79.2587 79.4727 79.7666 79.5506 80.2371 79.6915C82.4365 80.3492 83.8059 82.3074 83.8074 85.0057C83.8104 87.716 81.7998 89.9739 78.7194 89.884C75.6555 89.7926 73.531 87.9842 73.6313 84.7046C73.7272 81.4324 76.2757 79.3528 79.3456 79.4427" fill="white"/>
<path fill-rule="evenodd" clip-rule="evenodd" d="M76.2229 83.1584C76.8732 83.1764 77.1758 83.6064 77.1548 84.2476C77.1354 84.8889 76.7563 85.3503 76.115 85.3338C75.4678 85.3159 75.0168 84.8274 75.0378 84.1862C75.0543 83.5449 75.5832 83.1389 76.2229 83.1584Z" fill="black"/>
<path fill-rule="evenodd" clip-rule="evenodd" d="M69.8302 99.4667C69.8302 99.4667 65.9003 98.6966 66.6149 100.21C67.46 102.003 68.5012 101.687 70.6437 101.044C72.7877 100.397 73.0724 100.21 73.0724 100.21L69.8302 99.4667Z" fill="#FF0000"/>
<path fill-rule="evenodd" clip-rule="evenodd" d="M69.8003 102.005C69.4766 102.306 68.8324 103.714 69.4212 104.221C70.013 104.73 71.0108 105.133 71.7719 103.696C72.5331 102.26 73.0724 100.211 73.0724 100.211C73.0724 100.211 70.9165 100.959 69.8003 102.005Z" fill="#FF0000"/>
<path fill-rule="evenodd" clip-rule="evenodd" d="M90.6211 136.956C89.1109 141.939 97.6029 147.133 104.24 146.624C110.874 146.114 116.831 143.551 116.568 138.598C116.299 133.652 114.46 130.33 104.504 130.068C92.4999 129.748 91.9785 132.446 90.6211 136.956Z" fill="#41AA54"/>
<path fill-rule="evenodd" clip-rule="evenodd" d="M107.228 140.285C107.228 140.285 107.259 141.642 106.733 142.866C106.212 144.089 105.578 145.084 104.396 146.615C103.968 147.171 103.544 147.852 103.121 148.282C102.179 149.228 101.692 149.304 101.488 148.826C101.337 148.273 101.626 148.025 102.129 147.371C102.814 146.466 103.46 145.458 103.28 145.281C103.28 145.281 102.221 146.49 101.068 147.253C99.9133 147.999 98.6293 148.254 98.7971 147.165C98.9185 146.459 102.633 144.481 102.084 143.603C101.822 144.086 100.541 144.829 99.344 144.958C97.9237 145.118 96.7071 143.588 97.8562 143.211C99.1657 142.863 99.5013 144.077 101.065 142.002C100.932 141.344 101.065 141.618 100.444 142.096C99.7875 142.606 98.3836 143.311 98.3132 141.801C98.2698 141.328 100.641 139.524 102.667 139.323C104.168 139.17 104.841 138.482 105.04 137.652C105.238 136.821 107.228 140.285 107.228 140.285Z" fill="#DDCB9F"/>
<path fill-rule="evenodd" clip-rule="evenodd" d="M95.8622 112.374C97.6871 114.563 115.278 123.887 115.765 127.403C116.255 130.924 106.735 142.865 106.735 142.865L102.67 139.324C102.67 139.324 110.466 129.061 108.095 127.75C105.202 126.141 95.1326 120.435 95.1326 120.435L95.8622 112.374Z" fill="#FF0000"/>
<path d="M96.4211 131.782H100.135C100.105 127.858 100.24 117.905 103.102 117.607C105.644 117.329 106.81 119.673 106.825 119.711L109.742 121.695C109.087 119.398 107.089 114.074 102.696 114.71C97.356 115.459 97.2736 123.588 96.932 126.189L96.4211 131.782Z" fill="#41AA54"/>
<path fill-rule="evenodd" clip-rule="evenodd" d="M63.2184 133.18C63.7832 133.546 64.5968 134.767 65.644 134.338C66.6973 133.908 64.4334 131.008 64.4334 131.008C64.4334 131.008 66.7168 133.415 66.7947 132.38C66.8681 131.345 65.4537 129.285 65.4537 129.285C65.4537 129.285 66.949 131.219 67.403 129.806C67.8734 128.326 65.644 125.533 64.2492 127.915C63.1255 129.826 62.5831 130.88 62.5442 131.468C62.5052 132.056 63.0011 133.036 63.2184 133.18Z" fill="#DDCB9F"/>
<path fill-rule="evenodd" clip-rule="evenodd" d="M0 69.5572C0 69.5572 7.89573 63.5643 17.2238 63.2976C26.5533 63.0369 26.8365 71.878 26.8365 71.878C26.8365 71.878 33.9531 62.7627 44.2536 62.5754C54.557 62.3882 57.3167 71.878 57.3167 71.878C57.3167 71.878 67.0808 61.5476 78.1662 63.9568C89.2502 66.3675 88.7918 72.2121 88.7918 72.2121C88.7918 72.2121 95.5533 64.4662 105.16 66.9653C114.768 69.4644 117.955 79.0186 117.955 79.0186C117.955 79.0186 122.295 67.1001 131.814 70.7723C141.332 74.4415 150.438 83.4729 150.438 83.4729C150.438 83.4729 141.406 33.4107 107.397 18.7998C85.578 9.42683 50.5222 9.71449 30.5686 24.8662C11.8691 39.0695 0 69.5572 0 69.5572Z" fill="black"/>
<path fill-rule="evenodd" clip-rule="evenodd" d="M35.1174 46.6461C49.2338 18.7968 76.9094 12.4817 76.9094 12.4817C76.9094 12.4817 63.6559 16.9824 59.0818 42.1214C55.7197 60.5947 57.7708 73.2474 57.7708 73.2474L26.8381 71.878C26.8381 71.878 30.8999 54.9658 35.1174 46.6461Z" fill="white"/>
<path fill-rule="evenodd" clip-rule="evenodd" d="M109.748 44.6699C95.9039 16.6843 76.9077 12.4817 76.9077 12.4817C76.9077 12.4817 83.1734 15.0362 86.7991 41.5775C89.3401 60.1812 89.3821 74.4355 89.3821 74.4355L117.955 79.0156C117.955 79.0156 117.278 59.892 109.748 44.6699Z" fill="white"/>
<path fill-rule="evenodd" clip-rule="evenodd" d="M78.9708 0V12.386C78.9708 12.386 78.0314 14.4161 75.2192 13.1995" fill="black"/>
<path d="M113.165 35.8364C113.086 35.9353 112.984 36.0731 112.818 35.8889L113.186 35.76L113.221 35.8978" fill="#389789"/>
<path d="M117.598 32.3304C117.456 32.3244 117.294 32.2285 117.165 32.0847C117.197 32.245 117.423 32.5941 117.432 32.702" fill="#389789"/>
<path d="M116.87 34.1478C116.774 34.2092 116.711 34.4025 116.599 34.5043L116.46 34.1418C116.535 34.0714 116.632 34.0369 116.684 34.0953" fill="#389789"/>
<path d="M113.534 36.5391L113.776 37.0216L113.37 36.5826L113.263 36.7174L113.072 36.5796L113.343 36.3279" fill="#389789"/>
<path d="M109.174 40.3071C109.288 40.2052 109.683 40.0254 109.388 39.8007C109.449 39.6134 109.698 39.567 109.664 39.3243C109.455 39.1744 109.34 39.2973 109.289 39.4351C109.267 39.2943 109.354 39.2164 109.396 39.113C109.139 39.0456 108.979 39.3962 108.834 39.525L108.342 39.979C108.476 40.006 108.578 40.1318 108.646 40.2921C108.288 40.1843 108.706 40.7071 108.817 40.836C108.925 40.7686 108.873 40.6247 108.937 40.5319L109.154 40.3236" fill="#389789"/>
<path d="M49.1528 27.2124L49.1558 27.0716L48.8801 27.0251C49.003 27.178 49.0554 27.169 49.1348 27.157" fill="#389789"/>
<path d="M48.7694 27.3142C48.8788 27.5285 48.723 27.5075 48.5671 27.4191L48.7514 27.3247" fill="#389789"/>
<path d="M48.8165 28.3805C48.7579 28.2842 48.7895 28.2631 48.6781 28.1548C48.6285 28.2014 48.7082 28.2511 48.7112 28.2571" fill="#389789"/>
<path d="M48.3124 27.6813C48.212 27.6199 48.1566 27.6079 48.1625 27.7427L48.3124 27.8806L48.3304 27.6663" fill="#389789"/>
<path d="M47.6832 28.1172C47.5663 28.2131 47.4839 28.2371 47.5423 28.4858C47.5978 28.7165 47.7955 28.9308 47.7176 29.0746C48.0637 29.3788 47.6562 29.4192 47.5034 29.2934C47.5049 29.7234 46.946 29.1945 46.6733 28.7959C46.8996 28.781 46.9595 28.6521 47.0449 28.5068C47.1228 28.3719 47.0539 28.0303 47.2532 28.0588C47.5843 28.4648 47.4809 27.906 47.821 28.2146" fill="#389789"/>
<path d="M46.6676 29.0732L46.5133 28.8545C46.5717 29.0148 46.5493 29.0912 46.4084 29.0013L46.4189 28.8755L46.2451 28.9399C46.4848 29.2096 46.8594 29.2096 46.5822 28.9339" fill="#389789"/>
<path d="M46.9579 30.1504L46.8111 29.8643L46.7107 29.9467L46.7976 30.0665C46.5909 29.9317 46.4755 29.9841 46.4575 30.1369L46.5399 30.1984L46.5804 30.119C46.8725 30.5984 46.7602 30.0231 47.0284 30.1624" fill="#389789"/>
<path d="M46.1761 29.3952C46.248 29.4716 46.212 29.3682 46.2645 29.4626L46.2405 29.6125C46.1446 29.4402 46.1356 29.4491 46.2165 29.3757L46.2779 29.5226" fill="#389789"/>
<path d="M47.4556 29.6125C47.4526 29.7698 47.2219 29.8432 47.0226 29.5481C46.8204 29.2499 47.1335 29.3203 47.2773 29.6739L47.4047 29.5855" fill="#389789"/>
<path d="M46.0218 30.2821C45.8525 30.4289 46.1042 31.0012 45.5888 30.7181C45.6427 31.0012 45.6967 31.3998 45.2547 31.0222C45.3401 31.2829 45.1738 31.2859 45.2457 31.5196L45.0314 31.2949C45.009 31.5781 44.7018 31.4297 44.4951 30.9698L44.2314 30.9578C44.1924 30.7705 44.3542 30.7945 44.3527 30.6417C44.3512 30.5068 44.1954 30.2237 44.158 30.0559C44.2838 30.0738 44.4501 30.1727 44.6029 30.363L44.6059 30.2312L44.5205 30.1143C44.561 30.0409 44.6554 30.0319 44.7752 30.0903L44.9176 30.327C44.9176 30.2102 44.988 30.1188 45.0884 30.1188L44.8561 29.7757L45.012 29.7697C44.5999 29.3247 45.0419 29.3247 45.373 29.8191C45.5034 29.8281 45.6817 29.9105 45.7026 29.7787C45.9454 30.0094 45.8645 29.7577 46.0038 29.7937L45.8809 30.1832L46.0233 30.2776C46.0877 30.4049 46.0218 30.2821 46.0218 30.2821Z" fill="#389789"/>
<path d="M46.6404 29.5767C46.6389 29.734 46.6075 29.7235 46.546 29.7984C46.4921 29.8629 46.543 29.9887 46.3812 29.9183C46.2389 29.8569 46.197 29.7984 46.2779 29.734L46.3782 29.749L46.4487 29.6636C46.5985 29.8389 46.5775 29.5692 46.615 29.5317L46.6914 29.6022" fill="#389789"/>
<path d="M44.137 31.0344C44.098 31.0988 44.0021 31.3041 43.8523 31.1602C43.8268 31.0613 43.9871 30.8786 44.1295 31.0404" fill="#389789"/>
<path d="M44.4769 31.4179C44.4065 31.4029 44.3616 31.8718 44.2043 31.6726C44.0709 31.5063 44.3076 31.5497 44.3361 31.5317L44.4275 31.3564" fill="#389789"/>
<path d="M43.839 31.3445C43.7221 31.313 43.7131 31.5003 43.812 31.6666L43.6667 31.8194L43.827 31.9633C43.9948 32.3034 43.8599 32.6105 43.6996 32.666C43.5288 32.7274 43.394 32.5281 43.2007 32.2599C43.1243 32.1521 43.2007 32.1865 43.0958 32.0966L42.8876 31.9917C42.7932 31.6906 43.0869 31.8569 43.2876 32.0906L43.0809 31.7805C43.0269 31.6726 43.0584 31.7191 43.0344 31.6247C42.988 31.4434 43.0404 31.4074 43.1213 31.346L43.388 31.1902L43.7805 31.2891" fill="#389789"/>
<path d="M42.9682 30.3526C42.9023 30.1039 42.6866 30.1443 42.5757 30.1099C42.742 30.4754 42.9368 30.399 42.9368 30.2387" fill="#389789"/>
<path d="M44.0149 29.5799C43.9156 29.5182 43.732 29.4806 43.8825 29.6792L44.0149 29.5799Z" fill="#389789"/>
<path d="M42.7361 32.1028C42.8514 32.1493 42.8529 32.2691 42.814 32.3171C42.7675 32.3755 42.6896 32.2586 42.7106 32.3905L42.8304 32.6392L42.9143 32.9343L42.7046 32.7875L42.5757 32.5238C42.4019 32.3365 42.3915 32.6437 42.2566 32.5643L42.4589 32.9119L42.5907 33.3104L42.3585 33.1471L42.1772 32.828C41.9779 32.5793 42.0978 32.8984 41.8821 32.7321C41.7592 32.4459 41.8341 32.5538 41.9375 32.4954C42.0573 32.4279 41.9495 32.3111 41.7847 32.1088C41.8581 32.0938 42.1128 32.1028 42.2356 32.2377C42.2536 32.1523 42.3825 32.0908 42.2117 31.8931C42.3001 31.8346 42.3675 31.9081 42.4993 31.9365C42.6132 31.9635 42.6507 31.8781 42.763 32.1178" fill="#389789"/>
<path d="M42.2551 33.4974L41.8101 32.9266C41.8071 33.0584 41.6243 32.9475 41.512 32.7737L41.47 32.5041C41.4925 32.3662 41.9015 32.6329 41.5974 32.3078C41.3217 32.0156 41.067 32.2059 41.2168 32.5295C41.3097 32.7318 41.5224 32.7992 41.5824 32.9565C41.6453 33.1198 41.4356 32.9745 41.3487 32.9071L41.2902 33.1708C41.3067 33.2966 41.4715 33.5109 41.3217 33.4869C41.4236 33.791 41.5299 33.6187 41.5704 33.5813C41.7532 33.9499 41.7921 33.7806 42.0184 34.0053C42.0154 33.821 41.918 33.7476 42.1023 33.7865C42.1937 33.8045 42.2326 33.9094 42.2521 33.8105L42.1532 33.5798L42.2476 33.4689" fill="#389789"/>
<path d="M40.9966 33.4196C41.0491 33.6773 40.8498 33.5424 40.7629 33.6413C40.6955 33.7147 40.703 33.8406 40.5022 33.6848L40.4573 33.3836C40.4872 33.3462 40.5726 33.3521 40.652 33.445C40.5876 33.2892 40.5786 33.1139 40.7569 33.3896C40.8094 33.3521 40.9577 33.2982 41.0716 33.4885" fill="#389789"/>
<path d="M41.4251 33.9305C41.3307 33.8421 41.2198 33.8047 41.2138 33.8841C41.2078 33.9575 41.3202 34.0714 41.2468 34.0864C41.1389 33.8077 41.0206 34.0429 40.9591 34.0489C40.7928 34.0669 40.8198 34.0429 40.8183 34.2362L40.7554 34.359C41.0041 34.5403 41.1359 34.5193 41.1584 34.3411L41.2004 34.1238L41.3711 34.0968L41.4401 33.9215" fill="#389789"/>
<path d="M40.4869 34.8054C40.4375 34.8698 40.6922 35.1455 40.7401 35.2714C40.7776 35.3703 40.7102 35.5321 40.6488 35.5231C40.5379 35.5021 40.403 35.3013 40.3341 35.1695C40.2038 34.9118 40.2742 34.9178 40.4 34.9178L40.2637 34.8189L40.1573 34.717L40.0764 34.6091L39.9805 34.6361C39.8322 34.5897 39.7663 34.344 39.6389 34.2301C39.6015 34.0458 39.8412 34.0743 39.6075 33.8495L39.3947 33.6563C39.3393 33.5604 39.3872 33.475 39.4427 33.487C39.5595 33.5169 39.7333 33.7626 39.8532 33.8705L40.0719 34.0338L40.2727 34.2091L40.1543 33.896L39.976 33.7267C39.9116 33.6068 40.1304 33.502 40.1843 33.502L40.451 33.7596C40.5289 33.8675 40.4839 34.0173 40.6068 34.0968C40.6697 34.284 40.8031 34.4713 40.7431 34.5762C40.6937 34.6646 40.4645 34.6406 40.4555 34.7545" fill="#389789"/>
<path d="M39.9026 34.8759C39.8082 34.8759 39.7573 35.0721 39.6479 35.0257C39.54 34.9762 39.4771 34.8474 39.558 34.8264C39.3348 34.5447 39.2883 34.4489 39.1565 34.5627L39.3872 34.8234L39.5715 35.0901C39.6929 35.2459 39.9071 35.4766 40.039 35.5531C40.0195 35.4182 39.8292 35.135 39.8607 35.0496C39.8712 35.0197 39.9745 35.1171 39.985 35.0437L39.8801 34.8324L39.8936 34.8848" fill="#389789"/>
<path d="M39.3591 35.4828L39.3771 35.2641C39.1643 34.9809 39.0115 34.9569 38.8452 34.9195L38.7148 34.7292C38.6339 34.7142 38.7283 34.9539 38.6639 34.9719C38.595 34.9899 38.4736 34.861 38.3972 34.8955C38.3388 34.9225 38.3583 35.0423 38.2444 35.0094L38.4481 35.3839L38.6324 35.4274C38.7358 35.6147 38.7283 35.7555 38.9351 35.8753C39.1014 35.9712 39.004 35.7195 39.1598 35.8409C39.1029 35.5802 39.2557 35.745 39.3186 35.6221L39.3905 35.6926L39.3441 35.4648" fill="#389789"/>
<path d="M38.6909 36.2482L38.5052 35.7852L38.3104 35.9545L38.2699 35.7118L37.9883 35.4661L37.825 35.5245L37.6437 35.4226L37.6062 35.2818C37.3845 35.1964 37.4414 35.3987 37.4714 35.6009C37.4998 35.8062 37.4294 35.7388 37.3036 35.7732C37.3455 35.926 37.2781 36.0549 37.1837 36.0519C36.9635 36.0429 37.0099 35.8242 36.8391 35.6429C36.4915 35.2803 36.49 36.0414 36.7942 36.2482C36.7327 36.2482 36.6264 36.365 36.5365 36.3066C36.3867 36.2107 36.2608 35.941 36.072 35.8646C36.099 36.0699 36.2353 36.3126 36.4001 36.5343L36.4226 36.5193C36.4406 36.6332 36.2743 36.6572 36.2233 36.7096C36.3522 36.8969 36.529 36.9793 36.556 36.8624C36.6923 37.0557 36.5545 37.0812 36.7372 37.2954C36.8391 37.4123 36.9125 37.4183 36.9874 37.4213L37.0474 37.3748L37.1403 37.4093C37.1987 37.3883 37.2886 37.5037 37.2017 37.3134C37.1238 37.1501 37.0863 37.1636 37.0054 37.1291C36.917 37.0917 36.7867 37.1816 36.6488 36.9269C36.6099 36.8535 36.7238 36.6317 36.8077 36.6377C36.9934 36.6467 37.0968 37.0272 37.2916 37.1201C37.389 37.1696 37.3126 37.0407 37.4414 37.1321C37.5793 37.234 37.5328 37.3254 37.6602 37.3134C37.816 37.3014 37.6991 36.9478 37.4789 36.9179C37.5688 36.9239 37.6632 36.9523 37.5643 36.777L37.2811 36.4639C37.2017 36.2826 37.4414 36.2826 37.5028 36.2557C37.5987 36.2152 37.5358 36.1268 37.6991 36.3515C37.7905 36.4774 37.8714 36.6991 37.9853 36.7381C38.0887 36.7696 37.9658 36.5883 38.1171 36.6976L38.1995 36.8385L38.3703 36.9763C38.3134 36.7456 38.1441 36.6257 38.216 36.5029C38.243 36.4564 38.3568 36.5343 38.3134 36.392L38.1321 36.1643C38.2699 36.1148 38.2894 36.1643 38.4977 36.2841C38.5891 36.3336 38.7584 36.428 38.6984 36.2781" fill="#389789"/>
<path d="M36.7686 38.1947L36.6307 37.8111L36.4015 37.6148C36.4315 37.513 36.5349 37.5774 36.5888 37.5294C36.6532 37.477 36.5978 37.3242 36.4794 37.3332C36.4315 37.3362 36.3536 37.483 36.2772 37.2508L36.3566 37.0635C36.1213 36.7069 35.9925 37.1399 35.8891 36.9107L35.7393 36.8552C35.8636 37.005 35.7738 36.9931 35.7273 37.005L35.6449 37.008L35.6689 37.1773C35.8472 37.3496 35.8666 37.3092 35.9146 37.5085C35.8472 37.4171 35.567 37.0755 35.522 37.1099L35.546 37.2672L35.4561 37.3017L35.2614 37.477C35.2119 37.5085 35.1205 37.477 35.1745 37.6148C35.3123 37.7347 35.3662 37.6613 35.4876 37.8605L35.4726 37.6703L35.7033 37.6523L35.5895 37.7392C35.6119 37.6688 35.6824 37.5055 35.7738 37.5639C35.9146 37.6553 36.0255 37.9115 36.1708 38.0119L36.1678 37.8426L36.3536 38.1287C36.5169 38.2816 36.4465 38.0493 36.4704 37.9939C36.5513 38.0733 36.9064 38.3954 36.7866 38.1347" fill="#389789"/>
<path d="M35.9131 38.1273L35.8397 37.9025L35.7034 38.0014L35.4876 37.6973C35.5581 37.8411 35.6045 37.916 35.5641 37.9669L35.3648 38.0553L35.2794 37.8711C35.3183 38.1572 35.2569 38.4359 34.9723 38.3445C34.8089 38.1362 35.0262 38.1887 35.0606 38.1542L35.1011 38.0254L35.2 38.0314L35.206 37.9235L35.2569 37.8096C35.0067 37.6598 35.0262 37.6928 34.9348 37.8186L34.5632 38.0239L34.3175 38.1318L34.3145 38.337C34.2741 38.4074 34.1872 38.34 34.1033 38.346L34.3115 38.4344C34.34 38.4254 34.343 38.2846 34.4569 38.4284L34.5932 38.3295L34.8074 38.3265L34.9048 38.5513C34.8134 38.5363 34.5617 38.4014 34.7235 38.6561L34.9438 38.6741L34.9318 38.7041L34.9573 38.6397L34.725 38.809L35.0217 38.7101V38.8045L35.1505 38.773L35.1416 38.779L35.4742 38.4569L35.8772 38.1812L35.8158 38.1078L35.9266 38.1452L35.9326 38.1153" fill="#389789"/>
<path d="M34.6214 39.0379L34.4745 39.0649L34.4206 39.2057C34.3667 39.2971 34.2483 39.384 34.118 39.3585C34.0955 39.3001 33.8782 39.0424 33.8198 39.0109C33.7434 38.9705 33.7149 39.0843 33.6715 39.0933C33.7194 39.1922 34.073 39.5938 33.9487 39.5967C33.8318 39.5997 33.625 39.2462 33.5411 39.1173L33.4677 39.2956C33.4183 39.3196 33.3299 39.2192 33.3629 39.351C33.5277 39.5443 33.691 39.7106 33.6206 39.8455L33.5247 39.9249L33.4857 40.0297C33.4213 40.0792 33.27 39.9893 33.279 39.8365L33.4423 39.5848C33.252 39.366 33.0737 39.1518 33.1816 39.0529L33.5801 38.8012L33.8303 38.5465L33.9636 38.4731C34.0326 38.4611 34.0356 38.4671 34.1449 38.5615L33.9127 38.7428L33.8423 38.9121L34.115 39.1608C34.1824 39.0139 34.4401 39.0259 34.6154 39.0439" fill="#389789"/>
<path d="M33.2013 39.0846L32.9705 39.0052L32.9271 38.8914C32.9091 38.9902 32.984 39.1521 33.1069 39.2974C33.0454 39.3618 32.9046 39.2974 32.8881 39.4112L32.6604 39.0981C32.6679 39.1416 32.7413 39.3438 32.7383 39.3678C32.7248 39.4757 32.6424 39.4532 32.6904 39.6015C32.7982 39.6749 32.8866 39.6929 32.9301 39.645L33.029 40.0105C33.2192 40.1604 33.3301 40.1244 33.4065 40.045C33.5264 40.3057 33.6807 40.2907 33.6028 40.0825C33.2897 39.8862 33.4515 39.8038 33.4724 39.6839C33.5174 39.4202 33.39 39.4622 33.1548 39.1251L33.2162 39.0637L33.2507 39.1461" fill="#389789"/>
<path d="M33.0438 40.208L32.494 39.5173L32.3486 39.787C32.4895 39.8829 32.6198 39.9533 32.5943 39.796C32.6258 39.9833 32.7741 40.1945 32.9479 40.3264L32.9734 40.0597" fill="#389789"/>
<path d="M32.1285 39.2836C32.0745 39.354 32.0056 39.4529 31.8528 39.2521L32.1374 39.2222L32.1779 39.348" fill="#389789"/>
<path d="M35.4383 37.3225C35.3245 37.285 35.1866 37.1592 35.0728 37.0063C35.1102 37.1532 35.3155 37.5068 35.3334 37.6026" fill="#389789"/>
<path d="M34.9886 38.7158L34.7998 38.9586L34.6589 38.611C34.7144 38.5705 34.7893 38.5615 34.8372 38.626" fill="#389789"/>
<path d="M32.4881 39.9774L32.7308 40.4538L32.3622 39.9834L32.2918 40.0763L32.1255 39.916L32.3173 39.7542" fill="#389789"/>
<path d="M32.1135 40.1226C32.0806 40.3309 32.3158 40.7054 32.5136 40.9886C32.3997 40.8163 32.0641 40.5316 31.9143 40.3923L31.9757 40.632L31.8483 40.4447L31.8708 40.626L31.7704 40.5062C31.8558 40.6725 31.8888 40.9272 31.6596 40.611C31.6446 40.7714 31.4663 40.6635 31.303 40.4702C31.4378 40.3264 31.6521 40.3069 31.712 40.0717C31.5787 39.9084 31.4378 39.6851 31.4124 39.5503L31.6626 39.805L31.5322 39.5563C31.7599 39.6522 31.9247 40.0537 32.151 40.1451" fill="#389789"/>
<path d="M31.1128 40.1003L31.0259 40.0209L31.0978 40.2996L31.0439 40.2651C31.0724 40.4314 31.2447 40.6981 31.399 40.803C31.3525 40.9079 31.2162 41.0203 31.405 41.257C31.2087 41.1686 31.1218 41.3244 30.9375 41.2869L31.0709 41.0697C30.7352 41.1012 30.5105 41.3529 30.2798 41.5461C30.088 41.7064 30.082 42.105 29.7644 42.108L29.5936 41.8967C29.7 41.7829 29.9891 41.6795 29.9726 41.4667C29.7824 41.4982 29.6295 41.1836 29.5352 40.9603L29.9666 41.2615C29.5921 40.77 29.703 40.6322 30.1404 41.0248L30.0625 40.8959L30.2693 41.0742L30.0565 40.7985C30.2528 40.8165 30.3787 41.1761 30.5689 41.0128C30.8266 40.7955 30.3082 40.779 30.2843 40.4599L30.5615 40.5798L30.7727 40.791C30.6648 40.5978 30.4925 40.4105 30.4865 40.2591L30.7997 40.5963L30.548 40.1977L30.8057 40.1453L30.969 40.412C30.7173 40.0344 30.9285 40.0809 30.9405 39.8816L31.0514 40.0479" fill="#389789"/>
<path d="M29.3748 42.3235C29.4573 42.2591 29.7614 42.1857 29.4917 41.931C29.5217 41.7812 29.7179 41.7932 29.661 41.5774C29.4752 41.4081 29.3988 41.489 29.3704 41.5954L29.4213 41.3407C29.2055 41.2298 29.1112 41.501 29.0108 41.5834L28.6587 41.8726C28.7711 41.922 28.8684 42.0509 28.9449 42.2037C28.6377 42.0404 29.0422 42.5722 29.1471 42.7071C29.228 42.6696 29.1696 42.5348 29.21 42.4674L29.3629 42.3355" fill="#389789"/>
<path d="M26.9834 43.8187C27.1482 43.7273 27.1587 43.4816 27.3595 43.4322L27.5782 43.8367C27.7535 43.8187 27.8674 43.615 27.7565 43.3273L27.3056 43.3513L27.5438 43.14L27.382 43.0846L27.3026 42.9617L27.1363 43.0576L27.0464 42.7505L26.8066 42.9138L27.2996 43.3558" fill="#389789"/>
<path d="M27.8763 43.3094C27.8883 43.0847 28.2044 43.263 28.3767 43.233C28.6344 43.3799 28.543 43.0248 28.2628 42.7236L28.6224 42.803C28.6104 42.794 28.7483 42.9783 28.7632 42.9963L28.9011 42.9169C29.1797 43.1806 29.2067 43.0952 29.0584 42.7881L28.7393 42.6967L28.6374 42.3775C28.2973 42.2981 28.149 42.4659 27.9557 42.6232C27.9512 42.6697 27.9827 42.5993 28.0051 42.5858H27.7564L27.8328 42.8375L27.6545 42.8779L27.8089 43.1566L28.0336 43.1806" fill="#389789"/>
<g opacity="0.5">
<g opacity="0.5">
<path opacity="0.5" fill-rule="evenodd" clip-rule="evenodd" d="M94.1571 97.1429C94.1571 100.157 91.715 102.601 88.7005 102.601C85.6875 102.601 83.2439 100.157 83.2439 97.1429C83.2439 94.1284 85.6875 91.6848 88.7005 91.6848C91.715 91.6863 94.1571 94.1299 94.1571 97.1429Z" fill="#F989B8"/>
</g>
</g>
<path d="M99.0459 110.08C97.6705 110.08 82.8454 112.374 80.3134 113.182C79.3051 114.025 79.2766 116.854 80.673 117.846C82.0724 118.835 97.8668 116.108 98.6549 115.522C99.398 114.972 100.174 114.656 100.051 112.338C99.9239 109.987 99.0459 110.08 99.0459 110.08Z" fill="#FF0000"/>
</svg>
