<svg width="442" height="320" viewBox="0 0 442 320" fill="none" xmlns="http://www.w3.org/2000/svg">
<path d="M112.999 245.575C112.999 245.575 115.379 270.788 123.714 284.115C139.357 309.136 155.113 319.699 155.113 319.699C155.113 319.699 137.48 299.435 139.714 274.438C140.642 264.084 139.715 241 139.715 241L112.999 245.575Z" fill="#1FA5A5"/>
<path d="M0.127859 116.241C-0.308314 225.927 16.7459 256.841 70.4299 267.93C99.5405 273.944 368.361 272.391 401.741 267.739C435.121 263.087 442.026 200.472 441.886 139.328C441.752 80.0307 423.63 8.25855 394.774 8.27522C359.976 -2.20075 102.322 -0.464515 58.0109 8.4698C13.6995 17.4041 0.378637 53.2038 0.127859 116.241Z" fill="#1FA5A5"/>
</svg>
