<svg width="637" height="47" viewBox="0 0 637 47" fill="none" xmlns="http://www.w3.org/2000/svg">
<g clip-path="url(#clip0)">
<path d="M1.1052 41.1977C0.830222 39.0244 0.756196 36.7954 0.872533 34.5057C0.98887 32.2186 1.00739 29.9712 0.93071 27.7608C0.851389 25.6641 0.735042 23.6203 0.581689 21.6214C0.425691 19.6278 0.367519 17.5787 0.404535 15.4846C0.404535 13.2372 0.415114 11.1431 0.436266 9.2024C0.454775 7.26433 0.309351 5.20992 0 3.03653C0.0766767 2.41783 0.396602 1.9419 0.957136 1.6114C1.52031 1.28354 2.07293 1.07994 2.61496 1.00062C3.23895 0.923946 3.92374 0.923946 4.68258 1.00062C5.43877 1.07994 6.06804 1.37079 6.5704 1.87316C6.5704 1.94983 6.58098 2.10584 6.60213 2.33851C6.62064 2.57383 6.63122 2.72717 6.63122 2.80385C6.78458 4.16287 6.76606 5.63825 6.5704 7.22467C6.37739 8.81637 6.31923 10.2706 6.39855 11.5873C6.39855 11.7433 6.42763 12.3356 6.4858 13.3641C6.54397 14.39 6.61006 15.5639 6.68674 16.8806C6.76606 18.2027 6.84275 19.5299 6.92207 20.8678C6.99874 22.2031 7.05692 23.2633 7.09658 24.038C7.21291 25.8968 7.279 27.7079 7.30016 29.4741C7.31866 31.2403 7.42707 33.033 7.62009 34.8574C7.73643 35.595 8.05635 36.0181 8.57987 36.1371C9.10074 36.2508 9.6745 36.301 10.2958 36.2825C10.9145 36.2613 11.4883 36.2719 12.0118 36.3089C12.5327 36.3486 12.8367 36.6791 12.9134 37.2978C12.9134 38.5405 12.8843 39.5399 12.8262 40.2935C12.768 41.0497 12.6808 41.7398 12.5644 42.3585C12.4481 42.9798 12.2524 43.2892 11.9801 43.2892C11.9431 43.3315 11.8743 43.3473 11.7791 43.3473H11.5756C10.1002 43.2706 8.5878 43.2019 7.0384 43.1437C5.48636 43.0882 3.93431 42.9798 2.38227 42.8238C1.8799 42.7894 1.55998 42.6414 1.42513 42.3875C1.285 42.1364 1.17923 41.7398 1.1052 41.1977Z" fill="#2BB673"/>
<path d="M36.4729 44.1037C36.2773 44.027 36.0843 43.9001 35.8913 43.7256C35.6956 43.5511 35.5819 43.366 35.5423 43.173L34.1488 30.8412C34.1488 30.6879 34.0775 30.5478 33.9426 30.4341C33.8078 30.3151 33.6809 30.2781 33.5645 30.3151L26.817 30.9549L27.9222 41.1371C27.9989 41.7558 28.176 42.3269 28.4457 42.8531C28.718 43.3766 28.8899 43.9292 28.9718 44.5108C29.0062 44.7435 28.9877 44.889 28.911 44.9445C28.8344 45.0053 28.6572 45.0529 28.3875 45.0899C28.3108 45.0899 28.2024 45.1005 28.0676 45.1216C27.9328 45.1428 27.8455 45.1507 27.8058 45.1507H27.0787C26.7509 45.1507 26.4098 45.1586 26.0608 45.1771C25.7118 45.1983 25.3918 45.2195 25.101 45.238C24.8102 45.2538 24.6251 45.2644 24.5484 45.2644C23.8504 45.2644 23.2872 45.1877 22.8615 45.0317C22.4358 44.8784 22.1053 44.6457 21.8726 44.3363C21.64 44.027 21.476 43.6489 21.3782 43.1994C21.2804 42.7552 21.1931 42.2423 21.1164 41.6606C20.9234 39.5269 20.7675 37.4064 20.6511 35.2911C20.5348 33.1759 20.4369 31.0343 20.3603 28.8635C20.3603 28.8239 20.3523 28.6123 20.3312 28.2237C20.31 27.8376 20.281 27.3908 20.2439 26.8858C20.2043 26.3808 20.1646 25.8863 20.1276 25.4025C20.0879 24.9186 20.0483 24.5405 20.0112 24.2682C19.9346 22.7928 20.0007 21.4391 20.2148 20.1938C20.4264 18.9537 20.6696 17.5973 20.942 16.1246C20.7093 15.4636 20.7569 14.7656 21.0874 14.0305C21.4152 13.2955 21.6796 12.6345 21.8726 12.0528C21.9493 11.7435 21.9996 11.45 22.0181 11.1803C22.0366 10.9079 22.1053 10.5986 22.2216 10.2469C22.2216 10.2126 22.2428 10.1438 22.2798 10.046C22.3195 9.94817 22.3591 9.90058 22.3962 9.90058C22.8218 9.12324 23.192 8.34059 23.5014 7.54474C23.8107 6.75153 24.2364 5.96362 24.7837 5.18627C25.1301 4.72093 25.5558 4.24764 26.0608 3.76114C26.5631 3.27728 27.1078 2.82252 27.6895 2.39683C28.2712 1.9685 28.882 1.62214 29.5218 1.3498C30.1617 1.07747 30.7909 0.902949 31.4123 0.826272C33.1574 0.670275 34.5137 0.910886 35.4841 1.55074C36.4545 2.19059 37.2212 3.01819 37.7844 4.02556C38.3423 5.03293 38.7785 6.14607 39.0905 7.37025C39.3999 8.58914 39.7515 9.72606 40.1376 10.7705C40.1376 10.8868 40.1667 11.101 40.2248 11.413C40.283 11.725 40.3306 12.0528 40.3703 12.4018C40.4099 12.7508 40.4575 13.0708 40.5157 13.3616C40.5738 13.6498 40.6029 13.8534 40.6029 13.9697C40.8726 16.5318 41.0392 19.1097 41.0973 21.7061C41.1555 24.3079 41.2428 26.8858 41.3591 29.4426C41.3591 30.1036 41.3115 30.7831 41.2137 31.4811C41.1159 32.1791 41.0894 32.856 41.1264 33.517C41.1264 33.5937 41.1449 33.7973 41.1846 34.1251C41.2216 34.4556 41.2613 34.8152 41.3009 35.2039C41.338 35.5926 41.3882 35.9495 41.4464 36.28C41.5045 36.6105 41.5336 36.8114 41.5336 36.8881V38.8103C41.5336 38.887 41.5415 39.0906 41.5627 39.4185C41.5812 39.749 41.6024 40.1086 41.6209 40.4972C41.642 40.8859 41.6579 41.2428 41.679 41.5733C41.6975 41.9038 41.7081 42.1259 41.7081 42.2423C41.7081 42.4749 41.6685 42.824 41.5918 43.2893C41.5151 43.7547 41.2613 44.0296 40.8356 44.1063H40.7193C40.6796 44.1063 40.5527 44.0852 40.3412 44.0455C40.127 44.0085 40.0001 43.9873 39.9631 43.9873C39.8467 43.9873 39.6141 43.9979 39.2651 44.0191C38.916 44.0402 38.5564 44.0455 38.1889 44.0455C37.8188 44.0455 37.4698 44.0561 37.1419 44.0746C36.8114 44.0931 36.5893 44.1037 36.4729 44.1037ZM26.9333 23.163C26.973 23.6284 27.2427 23.9589 27.7477 24.1492C28.25 24.3449 28.8344 24.4691 29.4927 24.53C30.1511 24.5881 30.8121 24.6093 31.4705 24.5881C32.1288 24.567 32.6338 24.5405 32.9828 24.5009C33.0595 24.5009 33.2155 24.4903 33.4482 24.4691C33.6809 24.4506 33.8342 24.4427 33.9135 24.4427C33.9902 24.3237 34.0484 24.218 34.088 24.1228C34.1277 24.025 34.1647 23.9165 34.2044 23.8028C34.2044 23.5702 34.1832 23.1921 34.1488 22.6659C34.1065 22.145 34.0775 21.5713 34.059 20.9526C34.0405 20.3339 34.0219 19.7601 34.0008 19.2366C33.9796 18.7105 33.9717 18.335 33.9717 18.1023C34.0114 18.0257 34.0299 17.8485 34.0299 17.5788V16.9971L33.4482 11.3521C33.4085 11.0851 33.3107 10.7705 33.1573 10.4241C33.0013 10.0751 32.8083 9.75516 32.5757 9.46167C32.343 9.17347 32.0601 8.9408 31.7322 8.76629C31.4017 8.58914 31.0659 8.52303 30.7143 8.56269C30.4049 8.59971 30.1114 8.69754 29.8417 8.85354C28.562 10.1703 27.7662 11.5478 27.4568 12.9835C27.1448 14.4166 26.973 15.9898 26.9333 17.6952C26.9333 18.6232 26.9122 19.538 26.8778 20.4291C26.8355 21.3228 26.8566 22.2297 26.9333 23.163Z" fill="#2BB673"/>
<path d="M70.0376 41.0206C69.998 40.7482 70.1434 40.4098 70.4739 40.0026C70.8017 39.5954 71.2089 39.1883 71.6954 38.7784C72.1819 38.3713 72.6843 37.9932 73.2078 37.6468C73.7313 37.2978 74.1702 37.0255 74.5166 36.8324C74.5959 36.8324 74.6911 36.8113 74.8074 36.7743C74.9238 36.7346 75.0216 36.7135 75.0983 36.7135C75.5636 36.6764 75.9417 36.7743 76.2326 37.007C76.5234 37.2396 76.8619 37.5014 77.2532 37.7922C77.6392 38.0831 78.1046 38.3448 78.6466 38.5775C79.1886 38.8102 79.9659 38.8869 80.9733 38.8102C81.325 38.7705 81.6713 38.6753 82.0204 38.5193C82.3694 38.3633 82.6681 38.1703 82.922 37.9376C83.1758 37.705 83.3582 37.4829 83.4746 37.2661C83.5909 37.0545 83.5698 36.8721 83.419 36.7135C83.4534 36.5998 83.5142 36.3962 83.5909 36.1053C83.6676 35.8145 83.7469 35.5051 83.8236 35.1746C83.9003 34.8441 83.9716 34.5454 84.0272 34.2704C84.0853 34.0033 84.1144 33.805 84.1144 33.6913C84.2704 33.033 84.4158 32.2371 84.5507 31.3064C84.6855 30.3757 84.6194 29.5825 84.3471 28.9215L82.951 9.43506L82.602 7.34099L80.5661 7.5155L80.2753 7.28281C80.1986 7.05014 80.1193 6.83598 80.0426 6.64297C79.9659 6.44731 79.8972 6.26487 79.839 6.09037C79.7835 5.91586 79.7518 5.77044 79.7518 5.65146C79.7121 5.57743 79.6566 5.36327 79.5773 5.01426C79.4979 4.66525 79.4213 4.43255 79.3472 4.31357C79.4609 4.31357 79.6566 4.30565 79.9263 4.28715C80.1986 4.26864 80.3705 4.25806 80.4498 4.25806C80.9152 4.25806 81.7507 4.24748 82.951 4.22897C84.1541 4.21046 85.4312 4.17874 86.7902 4.14172C88.1492 4.10206 89.4157 4.07297 90.6002 4.05446C91.7847 4.03595 92.607 4.02539 93.0724 4.02539C93.0724 4.06241 93.0935 4.14172 93.1305 4.25806C93.1676 4.3744 93.2099 4.45371 93.2469 4.49073V5.18611C93.2469 5.4981 93.2363 5.81011 93.2178 6.11946C93.1993 6.43145 93.1596 6.70114 93.1015 6.93117C93.0433 7.16385 92.9772 7.28281 92.8979 7.28281L90.4548 7.39651C90.4548 7.47583 90.5024 7.62125 90.6002 7.83541C90.6954 8.04694 90.7456 8.19236 90.7456 8.26904C90.7456 8.4647 90.7351 8.81372 90.7166 9.31873C90.6954 9.82373 90.6901 10.3446 90.6901 10.8893V12.4307V13.4487C90.6901 13.9537 90.6478 14.4666 90.5711 14.9875C90.4918 15.5137 90.4257 16.0478 90.3675 16.5898C90.3094 17.1318 90.2882 17.6659 90.3094 18.1894C90.3279 18.7103 90.4363 19.2285 90.6293 19.7282L91.1528 33.8658C90.9201 34.4845 90.8831 35.135 91.0365 35.8145C91.1925 36.4914 91.2321 37.1206 91.1528 37.705C90.8831 39.487 89.9128 41.0708 88.2444 42.4457C86.576 43.8232 84.0933 44.6244 80.7988 44.857C78.8607 44.976 77.084 44.6852 75.4764 43.9845C73.8662 43.2865 72.404 42.5911 71.0847 41.8931C70.6563 41.6974 70.3866 41.5626 70.2703 41.4859C70.154 41.4066 70.0773 41.2533 70.0376 41.0206Z" fill="#2BB673"/>
<path d="M115.348 44.1037C115.152 44.027 114.959 43.9001 114.766 43.7256C114.571 43.5511 114.457 43.366 114.417 43.173L113.024 30.8412C113.024 30.6879 112.952 30.5478 112.818 30.4341C112.683 30.3151 112.556 30.2781 112.44 30.3151L105.692 30.9549L106.797 41.1371C106.874 41.7558 107.051 42.3269 107.321 42.8531C107.593 43.3766 107.765 43.9292 107.847 44.5108C107.881 44.7435 107.863 44.889 107.786 44.9445C107.709 45.0053 107.532 45.0529 107.263 45.0899C107.186 45.0899 107.077 45.1005 106.943 45.1216C106.808 45.1428 106.72 45.1507 106.681 45.1507H105.954C105.626 45.1507 105.285 45.1586 104.936 45.1771C104.587 45.1983 104.267 45.2195 103.976 45.238C103.685 45.2538 103.5 45.2644 103.423 45.2644C102.725 45.2644 102.162 45.1877 101.737 45.0317C101.311 44.8784 100.98 44.6457 100.748 44.3363C100.515 44.027 100.351 43.6489 100.253 43.1994C100.155 42.7552 100.068 42.2423 99.9914 41.6606C99.7984 39.5269 99.6425 37.4064 99.5261 35.2911C99.4098 33.1759 99.3119 31.0343 99.2353 28.8635C99.2353 28.8239 99.2273 28.6123 99.2062 28.2237C99.185 27.8376 99.1559 27.3908 99.1189 26.8858C99.0793 26.3808 99.0396 25.8863 99.0026 25.4025C98.9629 24.9186 98.9233 24.5405 98.8862 24.2682C98.8096 22.7928 98.8757 21.4391 99.0898 20.1938C99.3014 18.9537 99.5446 17.5973 99.8169 16.1246C99.5843 15.4636 99.6319 14.7656 99.9624 14.0305C100.29 13.2955 100.555 12.6345 100.748 12.0528C100.824 11.7435 100.875 11.45 100.893 11.1803C100.912 10.9079 100.98 10.5986 101.097 10.2469C101.097 10.2126 101.118 10.1438 101.155 10.046C101.194 9.94817 101.234 9.90058 101.271 9.90058C101.697 9.12324 102.067 8.34059 102.376 7.54474C102.686 6.75153 103.111 5.96362 103.659 5.18627C104.005 4.72093 104.431 4.24764 104.936 3.76114C105.438 3.27728 105.983 2.82252 106.564 2.39683C107.146 1.9685 107.757 1.62214 108.397 1.3498C109.037 1.07747 109.666 0.902949 110.287 0.826272C112.032 0.670275 113.389 0.910886 114.359 1.55074C115.329 2.19059 116.096 3.01819 116.659 4.02556C117.217 5.03293 117.654 6.14607 117.966 7.37025C118.275 8.58914 118.627 9.72606 119.013 10.7705C119.013 10.8868 119.042 11.101 119.1 11.413C119.158 11.725 119.206 12.0528 119.245 12.4018C119.285 12.7508 119.332 13.0708 119.391 13.3616C119.449 13.6498 119.478 13.8534 119.478 13.9697C119.748 16.5318 119.914 19.1097 119.972 21.7061C120.031 24.3079 120.118 26.8858 120.234 29.4426C120.234 30.1036 120.187 30.7831 120.089 31.4811C119.991 32.1791 119.964 32.856 120.001 33.517C120.001 33.5937 120.02 33.7973 120.06 34.1251C120.097 34.4556 120.136 34.8152 120.176 35.2039C120.213 35.5926 120.263 35.9495 120.321 36.28C120.38 36.6105 120.409 36.8114 120.409 36.8881V38.8103C120.409 38.887 120.417 39.0906 120.438 39.4185C120.456 39.749 120.477 40.1086 120.496 40.4972C120.517 40.8859 120.533 41.2428 120.554 41.5733C120.573 41.9038 120.583 42.1259 120.583 42.2423C120.583 42.4749 120.543 42.824 120.467 43.2893C120.39 43.7547 120.136 44.0296 119.711 44.1063H119.594C119.555 44.1063 119.428 44.0852 119.216 44.0455C119.002 44.0085 118.875 43.9873 118.838 43.9873C118.722 43.9873 118.489 43.9979 118.14 44.0191C117.791 44.0402 117.431 44.0455 117.064 44.0455C116.694 44.0455 116.345 44.0561 116.017 44.0746C115.686 44.0931 115.464 44.1037 115.348 44.1037ZM105.808 23.163C105.848 23.6284 106.118 23.9589 106.623 24.1492C107.125 24.3449 107.709 24.4691 108.368 24.53C109.026 24.5881 109.687 24.6093 110.345 24.5881C111.004 24.567 111.509 24.5405 111.858 24.5009C111.935 24.5009 112.091 24.4903 112.323 24.4691C112.556 24.4506 112.709 24.4427 112.789 24.4427C112.865 24.3237 112.923 24.218 112.963 24.1228C113.003 24.025 113.04 23.9165 113.079 23.8028C113.079 23.5702 113.058 23.1921 113.024 22.6659C112.982 22.145 112.952 21.5713 112.934 20.9526C112.915 20.3339 112.897 19.7601 112.876 19.2366C112.855 18.7105 112.847 18.335 112.847 18.1023C112.886 18.0257 112.905 17.8485 112.905 17.5788V16.9971L112.323 11.3521C112.284 11.0851 112.186 10.7705 112.032 10.4241C111.876 10.0751 111.683 9.75516 111.451 9.46167C111.218 9.17347 110.935 8.9408 110.607 8.76629C110.277 8.58914 109.941 8.52303 109.589 8.56269C109.28 8.59971 108.986 8.69754 108.717 8.85354C107.437 10.1703 106.641 11.5478 106.332 12.9835C106.02 14.4166 105.848 15.9898 105.808 17.6952C105.808 18.6232 105.787 19.538 105.753 20.4291C105.71 21.3228 105.732 22.2297 105.808 23.163Z" fill="#2BB673"/>
<path d="M142.329 45.9067C141.594 44.8571 141.012 43.9396 140.587 43.1437C140.158 42.3479 139.675 41.4859 139.13 40.5552C139.053 40.4363 138.918 40.275 138.725 40.0582C138.53 39.8466 138.345 39.6219 138.173 39.3892C137.998 39.1566 137.853 38.9318 137.737 38.7203C137.62 38.5088 137.599 38.3025 137.678 38.1095C137.213 37.4485 136.756 36.7716 136.311 36.0736C135.865 35.3729 135.428 34.6961 135.003 34.0351H134.886C134.847 34.0351 134.81 34.0192 134.77 33.9795C134.421 33.9029 134.283 34.0562 134.363 34.4449C134.4 34.8309 134.439 35.529 134.479 36.539C134.516 37.549 134.566 38.6225 134.622 39.7673C134.683 40.9095 134.741 41.9962 134.799 43.0248C134.857 44.0507 134.905 44.7592 134.942 45.1505L135.003 45.3224C134.926 45.4388 134.81 45.5842 134.654 45.7587C134.498 45.9332 134.4 46.0019 134.363 45.9596L128.427 46.3668C128.081 46.4065 127.787 46.2611 127.554 45.9332C127.324 45.6027 127.187 45.3013 127.15 45.0316C127.15 44.9919 127.158 44.9628 127.179 44.9417C127.197 44.9232 127.208 44.8756 127.208 44.7989V44.6217C127.208 44.5874 127.227 44.479 127.266 44.3018C127.303 44.13 127.343 43.9449 127.383 43.7492C127.42 43.5588 127.459 43.3843 127.499 43.2283C127.539 43.0723 127.554 42.9745 127.554 42.9375C127.554 42.8212 127.528 42.5594 127.47 42.1522C127.412 41.7451 127.361 41.3167 127.324 40.8725C127.285 40.4257 127.245 40.0106 127.208 39.6219C127.168 39.2359 127.15 38.982 127.15 38.8657V37.4406C127.15 36.6844 127.139 35.8806 127.118 35.0266C127.102 34.1726 127.081 33.3688 127.063 32.61C127.041 31.8564 127.034 31.3805 127.034 31.1848C127.034 30.9944 127.012 30.6428 126.975 30.1404C126.936 29.6354 126.896 29.0934 126.859 28.5117C126.819 27.93 126.78 27.388 126.743 26.883C126.703 26.378 126.682 26.0316 126.682 25.836C126.722 25.7593 126.743 25.5821 126.743 25.3124V24.7863C126.859 21.4152 126.878 18.0784 126.798 14.7839C126.722 11.4895 126.626 8.17124 126.51 4.83712C126.51 4.72079 126.499 4.50661 126.481 4.19726C126.46 3.88791 126.433 3.5574 126.394 3.20575C126.354 2.85938 126.325 2.51832 126.306 2.18781C126.285 1.85995 126.277 1.63519 126.277 1.52415C126.354 1.28883 126.46 1.15134 126.597 1.11432C126.732 1.07731 126.878 1.05617 127.034 1.05617C128.583 0.939831 130.095 0.871077 131.571 0.852569C133.043 0.83406 134.429 0.987422 135.727 1.31528C137.025 1.64578 138.202 2.19838 139.246 2.97308C140.296 3.75042 141.168 4.85562 141.867 6.28868C142.369 7.30134 142.874 8.27699 143.379 9.22884C143.881 10.178 144.175 11.2171 144.251 12.3409C144.405 14.665 144.008 16.8304 143.059 18.8267C142.107 20.8229 140.761 22.6367 139.014 24.2654C138.86 24.4584 138.784 24.6726 138.784 24.9053C138.86 25.2516 139.006 25.5821 139.22 25.8915C139.434 26.2035 139.5 26.534 139.423 26.883L141.808 31.6528V31.8247L144.191 35.6664C144.191 35.7035 144.357 36.0234 144.688 36.6262C145.016 37.2264 145.394 37.9033 145.822 38.6621C146.248 39.4183 146.634 40.1745 146.985 40.9307C147.334 41.6869 147.527 42.258 147.567 42.644C147.604 42.9957 147.48 43.3843 147.186 43.81C146.898 44.2357 146.538 44.6218 146.113 44.9734C145.684 45.3224 145.24 45.6212 144.775 45.875C144.307 46.1262 143.902 46.2531 143.551 46.2531C143.009 46.3324 142.602 46.2161 142.329 45.9067ZM132.56 18.2185C132.716 18.4115 132.837 18.557 132.938 18.6548C133.033 18.7526 133.199 18.8214 133.432 18.8557C134.207 18.779 134.836 18.4988 135.323 18.0149C135.806 17.5284 136.174 16.9653 136.428 16.3254C136.679 15.6882 136.843 15.0193 136.92 14.3212C136.999 13.6232 137.036 13.0204 137.036 12.518C136.999 12.1293 136.904 11.6561 136.748 11.0929C136.592 10.5323 136.378 9.99824 136.108 9.49323C135.835 8.98823 135.494 8.57312 135.09 8.24261C134.683 7.91475 134.186 7.76935 133.607 7.80637C133.218 7.84603 132.916 8.05754 132.705 8.44621C132.491 8.83224 132.345 9.27907 132.269 9.78408C132.189 10.2891 132.152 10.7809 132.152 11.2647V12.2853C132.152 12.325 132.163 12.4572 132.179 12.6899C132.2 12.9226 132.218 13.1975 132.24 13.5069C132.258 13.8162 132.279 14.1362 132.295 14.4667C132.316 14.7972 132.345 15.0589 132.385 15.2519C132.385 15.3683 132.393 15.5613 132.411 15.8336C132.433 16.1033 132.451 16.4047 132.472 16.7326C132.491 17.0631 132.509 17.3645 132.528 17.6368C132.549 17.9092 132.56 18.1022 132.56 18.2185Z" fill="#2BB673"/>
<path d="M168.614 44.1037C168.418 44.027 168.225 43.9001 168.032 43.7256C167.836 43.5511 167.723 43.366 167.683 43.173L166.289 30.8412C166.289 30.6879 166.218 30.5478 166.083 30.4341C165.948 30.3151 165.821 30.2781 165.705 30.3151L158.958 30.9549L160.063 41.1371C160.139 41.7558 160.317 42.3269 160.586 42.8531C160.859 43.3766 161.031 43.9292 161.112 44.5108C161.147 44.7435 161.128 44.889 161.052 44.9445C160.975 45.0053 160.798 45.0529 160.528 45.0899C160.451 45.0899 160.343 45.1005 160.208 45.1216C160.073 45.1428 159.986 45.1507 159.946 45.1507H159.219C158.891 45.1507 158.55 45.1586 158.201 45.1771C157.852 45.1983 157.532 45.2195 157.242 45.238C156.951 45.2538 156.766 45.2644 156.689 45.2644C155.991 45.2644 155.428 45.1877 155.002 45.0317C154.576 44.8784 154.246 44.6457 154.013 44.3363C153.781 44.027 153.617 43.6489 153.519 43.1994C153.421 42.7552 153.334 42.2423 153.257 41.6606C153.064 39.5269 152.908 37.4064 152.792 35.2911C152.675 33.1759 152.578 31.0343 152.501 28.8635C152.501 28.8239 152.493 28.6123 152.472 28.2237C152.451 27.8376 152.422 27.3908 152.385 26.8858C152.345 26.3808 152.305 25.8863 152.268 25.4025C152.229 24.9186 152.189 24.5405 152.152 24.2682C152.075 22.7928 152.141 21.4391 152.355 20.1938C152.567 18.9537 152.81 17.5973 153.083 16.1246C152.85 15.4636 152.897 14.7656 153.228 14.0305C153.556 13.2955 153.82 12.6345 154.013 12.0528C154.09 11.7435 154.14 11.45 154.159 11.1803C154.177 10.9079 154.246 10.5986 154.362 10.2469C154.362 10.2126 154.383 10.1438 154.42 10.046C154.46 9.94817 154.5 9.90058 154.537 9.90058C154.962 9.12324 155.333 8.34059 155.642 7.54474C155.951 6.75153 156.377 5.96362 156.924 5.18627C157.271 4.72093 157.696 4.24764 158.201 3.76114C158.704 3.27728 159.248 2.82252 159.83 2.39683C160.412 1.9685 161.023 1.62214 161.662 1.3498C162.302 1.07747 162.932 0.902949 163.553 0.826272C165.298 0.670275 166.654 0.910886 167.625 1.55074C168.595 2.19059 169.362 3.01819 169.925 4.02556C170.483 5.03293 170.919 6.14607 171.231 7.37025C171.54 8.58914 171.892 9.72606 172.278 10.7705C172.278 10.8868 172.307 11.101 172.365 11.413C172.424 11.725 172.471 12.0528 172.511 12.4018C172.551 12.7508 172.598 13.0708 172.656 13.3616C172.714 13.6498 172.744 13.8534 172.744 13.9697C173.013 16.5318 173.18 19.1097 173.238 21.7061C173.296 24.3079 173.383 26.8858 173.5 29.4426C173.5 30.1036 173.452 30.7831 173.354 31.4811C173.256 32.1791 173.23 32.856 173.267 33.517C173.267 33.5937 173.286 33.7973 173.325 34.1251C173.362 34.4556 173.402 34.8152 173.442 35.2039C173.479 35.5926 173.529 35.9495 173.587 36.28C173.645 36.6105 173.674 36.8114 173.674 36.8881V38.8103C173.674 38.887 173.682 39.0906 173.703 39.4185C173.722 39.749 173.743 40.1086 173.761 40.4972C173.783 40.8859 173.799 41.2428 173.82 41.5733C173.838 41.9038 173.849 42.1259 173.849 42.2423C173.849 42.4749 173.809 42.824 173.732 43.2893C173.656 43.7547 173.402 44.0296 172.976 44.1063H172.86C172.82 44.1063 172.693 44.0852 172.482 44.0455C172.268 44.0085 172.141 43.9873 172.104 43.9873C171.987 43.9873 171.755 43.9979 171.406 44.0191C171.057 44.0402 170.697 44.0455 170.33 44.0455C169.959 44.0455 169.61 44.0561 169.282 44.0746C168.952 44.0931 168.73 44.1037 168.614 44.1037ZM159.074 23.163C159.114 23.6284 159.383 23.9589 159.888 24.1492C160.391 24.3449 160.975 24.4691 161.633 24.53C162.292 24.5881 162.953 24.6093 163.611 24.5881C164.269 24.567 164.774 24.5405 165.123 24.5009C165.2 24.5009 165.356 24.4903 165.589 24.4691C165.821 24.4506 165.975 24.4427 166.054 24.4427C166.131 24.3237 166.189 24.218 166.229 24.1228C166.268 24.025 166.305 23.9165 166.345 23.8028C166.345 23.5702 166.324 23.1921 166.289 22.6659C166.247 22.145 166.218 21.5713 166.2 20.9526C166.181 20.3339 166.163 19.7601 166.141 19.2366C166.12 18.7105 166.112 18.335 166.112 18.1023C166.152 18.0257 166.17 17.8485 166.17 17.5788V16.9971L165.589 11.3521C165.549 11.0851 165.451 10.7705 165.298 10.4241C165.142 10.0751 164.949 9.75516 164.716 9.46167C164.484 9.17347 164.201 8.9408 163.873 8.76629C163.542 8.58914 163.207 8.52303 162.855 8.56269C162.546 8.59971 162.252 8.69754 161.982 8.85354C160.703 10.1703 159.907 11.5478 159.597 12.9835C159.285 14.4166 159.114 15.9898 159.074 17.6952C159.074 18.6232 159.053 19.538 159.018 20.4291C158.976 21.3228 159 22.2297 159.074 23.163Z" fill="#2BB673"/>
<path d="M187.179 29.2705C187.256 29.0378 187.208 28.7681 187.034 28.4561C186.859 28.1467 186.616 27.9934 186.307 27.9934H186.132C186.132 28.3027 186.121 28.8342 186.103 29.5904C186.082 30.3466 186.063 31.153 186.045 32.0044C186.024 32.8557 186.005 33.6728 185.987 34.4475C185.966 35.2222 185.958 35.7483 185.958 36.018V37.2422C185.997 38.0169 186.074 38.781 186.19 39.5399C186.307 40.2934 186.383 41.0602 186.423 41.8349C186.423 42.1839 186.373 42.4668 186.278 42.6783C186.18 42.8898 185.918 42.9982 185.492 42.9982C184.678 43.0776 183.903 43.0961 183.163 43.0564C182.428 43.0194 181.632 43.0564 180.781 43.1754C180.625 43.0961 180.49 42.9401 180.373 42.7074L180.141 42.242C180.141 42.1654 180.112 41.9406 180.053 41.5731C179.995 41.2056 179.964 40.9623 179.964 40.846C179.887 39.6456 179.879 38.4426 179.937 37.2422C179.995 36.0392 180.064 34.8335 180.141 33.6305C180.141 31.6554 180.112 29.7173 180.053 27.8162C179.995 25.9152 180.12 23.9771 180.432 21.9994L179.617 5.65139C179.617 5.46102 179.628 5.20718 179.644 4.89783C179.665 4.58848 179.723 4.28972 179.821 3.99359C179.916 3.70539 180.053 3.45155 180.228 3.24003C180.402 3.02851 180.625 2.9201 180.897 2.9201H181.13C182.058 2.99677 182.827 3.07611 183.427 3.15278C184.027 3.22946 184.445 3.67629 184.678 4.49065C184.987 5.34203 185.326 6.19605 185.693 7.05272C186.063 7.90409 186.423 8.7211 186.772 9.4958C186.809 9.53018 186.83 9.60156 186.83 9.69674V9.90298C187.023 10.9474 187.335 12.0261 187.761 13.1313C188.186 14.2339 188.594 15.2518 188.982 16.1825C188.903 16.5686 188.982 17.018 189.215 17.5204C189.445 18.0254 189.717 18.5278 190.029 19.0328C190.339 19.5378 190.622 20.0217 190.87 20.4897C191.124 20.9524 191.211 21.341 191.135 21.6504C191.174 21.7667 191.269 22.01 191.423 22.3801C191.579 22.745 191.727 23.1443 191.862 23.5726C191.997 23.9983 192.131 24.3922 192.269 24.7624C192.404 25.1326 192.512 25.3943 192.589 25.5503C192.628 25.664 192.676 25.8279 192.734 26.0421C192.792 26.2563 192.858 26.4889 192.938 26.7401C193.014 26.9939 193.081 27.2319 193.141 27.4646C193.197 27.6999 193.229 27.8559 193.229 27.9326C193.422 28.3979 193.557 28.8844 193.633 29.3868C193.713 29.8918 193.985 30.299 194.45 30.611C194.643 30.2223 194.738 29.794 194.738 29.3286C195.283 25.0242 195.526 20.799 195.468 16.6479C195.41 12.4994 195.341 8.2531 195.265 3.90896C195.302 3.83229 195.399 3.6763 195.555 3.44099C195.711 3.21096 195.828 3.09725 195.904 3.09725L200.558 2.74561C200.904 2.74561 201.081 2.84344 201.081 3.03645C201.081 3.22946 201.198 3.36695 201.43 3.44099C201.314 5.18869 201.314 6.90465 201.43 8.59154C201.547 10.2784 201.528 11.9944 201.372 13.7395C201.1 16.2592 200.857 18.7234 200.645 21.1269C200.431 23.5303 200.42 26.0157 200.616 28.5724L200.151 41.4303C200.111 41.774 199.915 42.25 199.569 42.8555C199.22 43.453 198.831 43.8337 198.406 43.9845C198.326 43.9845 198.125 43.995 197.795 44.0162C197.464 44.0373 197.261 44.0453 197.184 44.0453C196.214 44.1246 195.283 44.1431 194.392 44.1034C193.501 44.0664 192.568 43.9712 191.6 43.8126C191.095 43.7729 190.706 43.4186 190.434 42.7365C190.164 42.0596 189.961 41.3034 189.826 40.4679C189.688 39.635 189.593 38.8392 189.535 38.083C189.477 37.3268 189.429 36.8324 189.39 36.5997C189.35 36.4463 189.273 36.1158 189.157 35.6082C189.04 35.1085 188.943 34.7568 188.866 34.5638C188.787 34.3708 188.67 34.0218 188.517 33.5168C188.361 33.0118 188.197 32.4803 188.023 31.9171C187.848 31.3539 187.681 30.8225 187.528 30.3175C187.375 29.8151 187.256 29.4635 187.179 29.2705Z" fill="#2BB673"/>
<path d="M224.989 44.1037C224.793 44.027 224.6 43.9001 224.407 43.7256C224.211 43.5511 224.098 43.366 224.058 43.173L222.664 30.8412C222.664 30.6879 222.593 30.5478 222.458 30.4341C222.323 30.3151 222.196 30.2781 222.08 30.3151L215.333 30.9549L216.438 41.1371C216.514 41.7558 216.692 42.3269 216.961 42.8531C217.234 43.3766 217.405 43.9292 217.487 44.5108C217.522 44.7435 217.503 44.889 217.427 44.9445C217.35 45.0053 217.173 45.0529 216.903 45.0899C216.826 45.0899 216.718 45.1005 216.583 45.1216C216.448 45.1428 216.361 45.1507 216.321 45.1507H215.594C215.267 45.1507 214.925 45.1586 214.576 45.1771C214.227 45.1983 213.907 45.2195 213.617 45.238C213.326 45.2538 213.141 45.2644 213.064 45.2644C212.366 45.2644 211.803 45.1877 211.377 45.0317C210.951 44.8784 210.621 44.6457 210.388 44.3363C210.156 44.027 209.992 43.6489 209.894 43.1994C209.796 42.7552 209.709 42.2423 209.632 41.6606C209.439 39.5269 209.283 37.4064 209.167 35.2911C209.05 33.1759 208.953 31.0343 208.876 28.8635C208.876 28.8239 208.868 28.6123 208.847 28.2237C208.826 27.8376 208.797 27.3908 208.76 26.8858C208.72 26.3808 208.68 25.8863 208.643 25.4025C208.604 24.9186 208.564 24.5405 208.527 24.2682C208.45 22.7928 208.516 21.4391 208.73 20.1938C208.942 18.9537 209.185 17.5973 209.458 16.1246C209.225 15.4636 209.272 14.7656 209.603 14.0305C209.931 13.2955 210.195 12.6345 210.388 12.0528C210.465 11.7435 210.515 11.45 210.534 11.1803C210.552 10.9079 210.621 10.5986 210.737 10.2469C210.737 10.2126 210.758 10.1438 210.795 10.046C210.835 9.94817 210.875 9.90058 210.912 9.90058C211.337 9.12324 211.708 8.34059 212.017 7.54474C212.326 6.75153 212.752 5.96362 213.299 5.18627C213.646 4.72093 214.071 4.24764 214.576 3.76114C215.079 3.27728 215.623 2.82252 216.205 2.39683C216.787 1.9685 217.398 1.62214 218.037 1.3498C218.677 1.07747 219.307 0.902949 219.928 0.826272C221.673 0.670275 223.029 0.910886 224 1.55074C224.97 2.19059 225.737 3.01819 226.3 4.02556C226.858 5.03293 227.294 6.14607 227.606 7.37025C227.916 8.58914 228.267 9.72606 228.653 10.7705C228.653 10.8868 228.682 11.101 228.74 11.413C228.799 11.725 228.846 12.0528 228.886 12.4018C228.926 12.7508 228.973 13.0708 229.031 13.3616C229.089 13.6498 229.119 13.8534 229.119 13.9697C229.388 16.5318 229.555 19.1097 229.613 21.7061C229.671 24.3079 229.758 26.8858 229.875 29.4426C229.875 30.1036 229.827 30.7831 229.729 31.4811C229.631 32.1791 229.605 32.856 229.642 33.517C229.642 33.5937 229.661 33.7973 229.7 34.1251C229.737 34.4556 229.777 34.8152 229.817 35.2039C229.854 35.5926 229.904 35.9495 229.962 36.28C230.02 36.6105 230.049 36.8114 230.049 36.8881V38.8103C230.049 38.887 230.057 39.0906 230.078 39.4185C230.097 39.749 230.118 40.1086 230.137 40.4972C230.158 40.8859 230.173 41.2428 230.195 41.5733C230.213 41.9038 230.224 42.1259 230.224 42.2423C230.224 42.4749 230.184 42.824 230.107 43.2893C230.031 43.7547 229.777 44.0296 229.351 44.1063H229.235C229.195 44.1063 229.068 44.0852 228.857 44.0455C228.643 44.0085 228.516 43.9873 228.479 43.9873C228.362 43.9873 228.13 43.9979 227.781 44.0191C227.432 44.0402 227.072 44.0455 226.705 44.0455C226.334 44.0455 225.985 44.0561 225.658 44.0746C225.327 44.0931 225.105 44.1037 224.989 44.1037ZM215.449 23.163C215.489 23.6284 215.758 23.9589 216.263 24.1492C216.766 24.3449 217.35 24.4691 218.008 24.53C218.667 24.5881 219.328 24.6093 219.986 24.5881C220.644 24.567 221.149 24.5405 221.498 24.5009C221.575 24.5009 221.731 24.4903 221.964 24.4691C222.196 24.4506 222.35 24.4427 222.429 24.4427C222.506 24.3237 222.564 24.218 222.604 24.1228C222.643 24.025 222.68 23.9165 222.72 23.8028C222.72 23.5702 222.699 23.1921 222.664 22.6659C222.622 22.145 222.593 21.5713 222.575 20.9526C222.556 20.3339 222.538 19.7601 222.516 19.2366C222.495 18.7105 222.487 18.335 222.487 18.1023C222.527 18.0257 222.546 17.8485 222.546 17.5788V16.9971L221.964 11.3521C221.924 11.0851 221.826 10.7705 221.673 10.4241C221.517 10.0751 221.324 9.75516 221.091 9.46167C220.859 9.17347 220.576 8.9408 220.248 8.76629C219.917 8.58914 219.582 8.52303 219.23 8.56269C218.921 8.59971 218.627 8.69754 218.357 8.85354C217.078 10.1703 216.282 11.5478 215.972 12.9835C215.66 14.4166 215.489 15.9898 215.449 17.6952C215.449 18.6232 215.428 19.538 215.393 20.4291C215.351 21.3228 215.372 22.2297 215.449 23.163Z" fill="#2BB673"/>
<path d="M262.97 44.9762C262.893 44.9365 262.832 44.7726 262.798 44.4818C262.756 44.1909 262.737 44.0058 262.737 43.9292C262.505 42.5331 262.468 41.145 262.621 39.7728C262.777 38.3926 262.832 37.0256 262.798 35.6692C262.716 33.9268 262.534 32.1897 262.245 30.4632C261.952 28.7393 261.727 26.9995 261.577 25.2544C261.534 23.9007 261.534 22.5892 261.577 21.3307C261.611 20.0695 261.632 18.7633 261.632 17.407C261.672 16.1643 261.632 14.911 261.516 13.6524C261.399 12.3912 261.302 11.1406 261.225 9.90322V9.55155V8.94078V8.33002V7.92548C261.185 7.72718 261.148 7.39668 261.109 6.93398C261.069 6.46863 261.032 5.97154 260.992 5.45066C260.953 4.92715 260.916 4.43272 260.876 3.97002C260.839 3.50203 260.82 3.17417 260.82 2.97851C260.897 2.66651 260.974 2.43384 261.053 2.28049C261.13 2.12449 261.283 1.98965 261.516 1.87331C261.595 1.83629 261.817 1.78341 262.185 1.72789C262.555 1.66972 262.798 1.64064 262.914 1.64064C265.043 1.37095 266.965 1.46349 268.67 1.93148C270.378 2.39683 271.859 3.15301 273.12 4.20004C274.382 5.24708 275.407 6.53473 276.203 8.06826C276.999 9.59915 277.552 11.2755 277.861 13.0998C278.054 14.5752 278.152 16.0056 278.152 17.407C278.152 18.8004 278.094 20.2572 277.977 21.767C278.133 22.5443 278.152 23.2978 278.036 24.0355C277.919 24.7732 277.901 25.5294 277.977 26.3041C278.017 27.5468 278.094 28.9878 278.213 30.635C278.329 32.2849 278.297 33.9347 278.125 35.5846C277.948 37.2318 277.541 38.7627 276.904 40.1773C276.264 41.5945 275.225 42.6891 273.789 43.4638C272.396 44.1618 270.91 44.6245 269.339 44.8572C267.771 45.0899 266.209 45.3041 264.659 45.4997C264.58 45.4997 264.395 45.5182 264.107 45.5579C263.813 45.5975 263.628 45.616 263.552 45.616C263.475 45.5367 263.369 45.4521 263.234 45.3543C263.094 45.2565 263.007 45.1322 262.97 44.9762ZM268.493 37.298C268.686 37.6073 268.94 37.7448 269.249 37.7051C269.675 37.6681 270.016 37.4354 270.267 37.0098C270.521 36.5814 270.714 36.1055 270.852 35.5846C270.984 35.0558 271.082 34.5244 271.14 33.9823C271.198 33.4403 271.248 33.012 271.288 32.7026C271.325 32.433 271.365 32.0549 271.404 31.5684C271.441 31.0845 271.481 30.6192 271.521 30.1723C271.558 29.7281 271.587 29.3394 271.608 29.0089C271.626 28.6784 271.634 28.496 271.634 28.4563L271.576 27.991C271.576 25.8599 271.597 23.6574 271.634 21.3862C271.674 19.1203 271.521 16.8781 271.172 14.6677C270.973 13.5467 270.751 12.6556 270.503 11.9946C270.249 11.3363 269.696 10.5986 268.845 9.78422C268.726 9.59121 268.62 9.43522 268.525 9.31889C268.427 9.20255 268.242 9.16289 267.972 9.20255C267.777 9.24221 267.708 9.40613 267.769 9.69698C267.824 9.98782 267.856 10.1517 267.856 10.1914C267.972 12.5578 268.049 14.9216 268.089 17.288C268.123 19.6517 268.184 22.0208 268.261 24.3845C268.3 26.3252 268.242 28.2924 268.089 30.2913C267.93 32.2849 268.007 34.2547 268.321 36.1928C268.321 36.2694 268.348 36.4572 268.409 36.7454C268.467 37.0336 268.493 37.2213 268.493 37.298Z" fill="#2BB673"/>
<path d="M286.703 44.4526C286.547 44.3363 286.391 44.212 286.238 44.0719C286.082 43.9397 286.005 43.7731 286.005 43.5801C285.809 41.7187 285.82 39.8388 286.034 37.9377C286.246 36.0367 286.354 34.1568 286.354 32.2927C286.354 29.9686 286.285 27.634 286.15 25.2861C286.013 22.9408 285.87 20.5956 285.714 18.2477C285.558 15.9024 285.434 13.5625 285.333 11.2384C285.238 8.91162 285.228 6.60602 285.307 4.31365C285.307 4.08098 285.373 3.83245 285.51 3.56012C285.648 3.29043 285.849 3.13178 286.121 3.09476C286.51 3.0551 286.965 3.07626 287.488 3.15294C288.012 3.22962 288.448 3.25076 288.797 3.20845C288.953 3.20845 289.241 3.20053 289.67 3.18467C290.095 3.16352 290.55 3.14236 291.036 3.12385C291.52 3.10534 291.975 3.08418 292.403 3.06567C292.829 3.04717 293.12 3.03661 293.276 3.03661C293.313 3.03661 293.472 3.01809 293.741 2.97579C294.014 2.94141 294.302 2.89911 294.614 2.86474C294.923 2.82243 295.203 2.78542 295.457 2.74576C295.708 2.70874 295.875 2.68758 295.952 2.68758C296.184 2.68758 296.562 2.66644 297.086 2.63207C297.61 2.58977 298.133 2.58977 298.657 2.63207C299.18 2.66644 299.653 2.74576 300.082 2.86474C300.507 2.97579 300.743 3.20846 300.78 3.56012L301.187 8.44627C301.224 8.75562 301.089 9.02002 300.78 9.23154C300.468 9.44571 300.179 9.57264 299.907 9.60701C299.13 9.68897 298.355 9.65987 297.58 9.52239C296.803 9.3849 296.01 9.35846 295.196 9.43514C295.003 9.43514 294.749 9.44572 294.439 9.46423C294.13 9.48274 293.81 9.53033 293.48 9.60701C293.149 9.68897 292.869 9.8053 292.636 9.95865C292.403 10.1146 292.287 10.3473 292.287 10.6567C292.403 12.2087 292.403 13.8163 292.287 15.4847C292.171 17.1531 292.189 18.7791 292.345 20.3708C292.345 20.5665 292.364 20.8177 292.403 21.127C292.44 21.439 292.557 21.6902 292.752 21.8832C292.908 21.9995 293.149 22.0868 293.48 22.145C293.81 22.2031 294.146 22.2322 294.498 22.2322C294.847 22.2322 295.174 22.2243 295.486 22.2031C295.796 22.182 296.028 22.1714 296.184 22.1714C296.34 22.1714 296.629 22.1555 297.057 22.1159C297.483 22.0789 297.929 22.0286 298.395 21.9705C298.86 21.9149 299.307 21.862 299.733 21.825C300.158 21.7854 300.449 21.7669 300.605 21.7669C300.722 21.7669 300.817 21.8356 300.896 21.9705C300.973 22.1053 301.012 22.2137 301.012 22.2904L301.417 26.0713C301.457 26.4204 301.369 26.7694 301.158 27.1184C300.944 27.4647 300.682 27.6604 300.373 27.7001C299.519 27.8164 298.664 27.8058 297.813 27.671C296.959 27.5361 296.087 27.507 295.196 27.5837C294.651 27.6604 294.265 27.8058 294.03 28.02C293.799 28.2342 293.643 28.4959 293.567 28.8053C293.487 29.1172 293.45 29.4636 293.45 29.8523V31.0738C293.45 31.1875 293.429 31.4731 293.392 31.9173C293.353 32.3641 293.305 32.8374 293.247 33.3424C293.189 33.8474 293.141 34.3128 293.101 34.7358C293.062 35.1641 293.025 35.4365 292.985 35.5528C293.062 35.5925 293.08 35.7062 293.041 35.9045C293.004 36.0948 293.025 36.2482 293.101 36.3672C293.101 36.5998 293.141 36.8828 293.218 37.2106C293.294 37.5411 293.509 37.7051 293.858 37.7051H295.225H297.261H299.296H300.605C301.224 37.7051 301.787 37.7632 302.292 37.8822C302.794 37.9959 303.146 38.4242 303.339 39.1593C303.339 39.2359 303.368 39.421 303.426 39.7119C303.485 40.0027 303.543 40.3332 303.601 40.7007C303.659 41.0709 303.717 41.4384 303.775 41.8059C303.834 42.1761 303.881 42.4564 303.921 42.6467V42.9984C303.997 43.5404 303.863 43.8498 303.511 43.9291C303.165 44.0058 302.776 44.0824 302.35 44.1618C300.722 44.3574 299.093 44.4024 297.464 44.3045C295.835 44.212 294.207 44.1432 292.578 44.1036C292.462 44.0666 292.171 44.0719 291.705 44.1327C291.24 44.1908 290.968 44.2199 290.891 44.2199C290.735 44.2199 290.455 44.2279 290.048 44.249C289.64 44.2702 289.212 44.2966 288.768 44.3363C288.321 44.3759 287.903 44.4024 287.517 44.4235C287.129 44.4447 286.859 44.4526 286.703 44.4526Z" fill="#2BB673"/>
<path d="M336.961 41.1977C336.686 39.0244 336.612 36.7954 336.728 34.5057C336.844 32.2186 336.863 29.9712 336.786 27.7608C336.707 25.6641 336.591 23.6203 336.437 21.6214C336.281 19.6278 336.223 17.5787 336.26 15.4846C336.26 13.2372 336.271 11.1431 336.292 9.2024C336.31 7.26433 336.165 5.20992 335.855 3.03653C335.932 2.41783 336.252 1.9419 336.813 1.6114C337.376 1.28354 337.928 1.07994 338.47 1.00062C339.094 0.923946 339.779 0.923946 340.538 1.00062C341.294 1.07994 341.924 1.37079 342.426 1.87316C342.426 1.94983 342.436 2.10584 342.458 2.33851C342.476 2.57383 342.487 2.72717 342.487 2.80385C342.64 4.16287 342.622 5.63825 342.426 7.22467C342.233 8.81637 342.175 10.2706 342.254 11.5873C342.254 11.7433 342.283 12.3356 342.341 13.3641C342.399 14.39 342.466 15.5639 342.542 16.8806C342.622 18.2027 342.698 19.5299 342.778 20.8678C342.854 22.2031 342.912 23.2633 342.952 24.038C343.068 25.8968 343.134 27.7079 343.156 29.4741C343.174 31.2403 343.283 33.033 343.476 34.8574C343.592 35.595 343.912 36.0181 344.435 36.1371C344.956 36.2508 345.53 36.301 346.151 36.2825C346.77 36.2613 347.344 36.2719 347.867 36.3089C348.388 36.3486 348.692 36.6791 348.769 37.2978C348.769 38.5405 348.74 39.5399 348.682 40.2935C348.623 41.0497 348.536 41.7398 348.42 42.3585C348.304 42.9798 348.108 43.2892 347.836 43.2892C347.799 43.3315 347.73 43.3473 347.635 43.3473H347.431C345.956 43.2706 344.443 43.2019 342.894 43.1437C341.342 43.0882 339.79 42.9798 338.238 42.8238C337.735 42.7894 337.415 42.6414 337.281 42.3875C337.143 42.1364 337.037 41.7398 336.961 41.1977Z" fill="#2BB673"/>
<path d="M372.321 44.1037C372.125 44.027 371.932 43.9001 371.739 43.7256C371.543 43.5511 371.43 43.366 371.39 43.173L369.997 30.8412C369.997 30.6879 369.925 30.5478 369.79 30.4341C369.655 30.3151 369.528 30.2781 369.412 30.3151L362.665 30.9549L363.77 41.1371C363.846 41.7558 364.024 42.3269 364.293 42.8531C364.566 43.3766 364.738 43.9292 364.819 44.5108C364.854 44.7435 364.835 44.889 364.759 44.9445C364.682 45.0053 364.505 45.0529 364.235 45.0899C364.159 45.0899 364.05 45.1005 363.915 45.1216C363.78 45.1428 363.693 45.1507 363.653 45.1507H362.926C362.598 45.1507 362.257 45.1586 361.908 45.1771C361.559 45.1983 361.239 45.2195 360.949 45.238C360.658 45.2538 360.473 45.2644 360.396 45.2644C359.698 45.2644 359.135 45.1877 358.709 45.0317C358.283 44.8784 357.953 44.6457 357.72 44.3363C357.488 44.027 357.324 43.6489 357.226 43.1994C357.128 42.7552 357.041 42.2423 356.964 41.6606C356.771 39.5269 356.615 37.4064 356.499 35.2911C356.382 33.1759 356.285 31.0343 356.208 28.8635C356.208 28.8239 356.2 28.6123 356.179 28.2237C356.158 27.8376 356.129 27.3908 356.092 26.8858C356.052 26.3808 356.012 25.8863 355.975 25.4025C355.936 24.9186 355.896 24.5405 355.859 24.2682C355.782 22.7928 355.848 21.4391 356.062 20.1938C356.274 18.9537 356.517 17.5973 356.79 16.1246C356.557 15.4636 356.605 14.7656 356.935 14.0305C357.263 13.2955 357.527 12.6345 357.72 12.0528C357.797 11.7435 357.847 11.45 357.866 11.1803C357.884 10.9079 357.953 10.5986 358.069 10.2469C358.069 10.2126 358.09 10.1438 358.127 10.046C358.167 9.94817 358.207 9.90058 358.244 9.90058C358.669 9.12324 359.04 8.34059 359.349 7.54474C359.658 6.75153 360.084 5.96362 360.631 5.18627C360.978 4.72093 361.403 4.24764 361.908 3.76114C362.411 3.27728 362.955 2.82252 363.537 2.39683C364.119 1.9685 364.73 1.62214 365.369 1.3498C366.009 1.07747 366.639 0.902949 367.26 0.826272C369.005 0.670275 370.361 0.910886 371.332 1.55074C372.302 2.19059 373.069 3.01819 373.632 4.02556C374.19 5.03293 374.626 6.14607 374.938 7.37025C375.248 8.58914 375.599 9.72606 375.985 10.7705C375.985 10.8868 376.014 11.101 376.072 11.413C376.131 11.725 376.178 12.0528 376.218 12.4018C376.258 12.7508 376.305 13.0708 376.363 13.3616C376.421 13.6498 376.451 13.8534 376.451 13.9697C376.72 16.5318 376.887 19.1097 376.945 21.7061C377.003 24.3079 377.09 26.8858 377.207 29.4426C377.207 30.1036 377.159 30.7831 377.061 31.4811C376.964 32.1791 376.937 32.856 376.974 33.517C376.974 33.5937 376.993 33.7973 377.032 34.1251C377.069 34.4556 377.109 34.8152 377.149 35.2039C377.186 35.5926 377.236 35.9495 377.294 36.28C377.352 36.6105 377.381 36.8114 377.381 36.8881V38.8103C377.381 38.887 377.389 39.0906 377.41 39.4185C377.429 39.749 377.45 40.1086 377.468 40.4972C377.49 40.8859 377.506 41.2428 377.527 41.5733C377.545 41.9038 377.556 42.1259 377.556 42.2423C377.556 42.4749 377.516 42.824 377.439 43.2893C377.363 43.7547 377.109 44.0296 376.683 44.1063H376.567C376.527 44.1063 376.4 44.0852 376.189 44.0455C375.975 44.0085 375.848 43.9873 375.811 43.9873C375.694 43.9873 375.462 43.9979 375.113 44.0191C374.764 44.0402 374.404 44.0455 374.037 44.0455C373.666 44.0455 373.317 44.0561 372.99 44.0746C372.659 44.0931 372.437 44.1037 372.321 44.1037ZM362.781 23.163C362.821 23.6284 363.09 23.9589 363.595 24.1492C364.098 24.3449 364.682 24.4691 365.34 24.53C365.999 24.5881 366.66 24.6093 367.318 24.5881C367.976 24.567 368.481 24.5405 368.83 24.5009C368.907 24.5009 369.063 24.4903 369.296 24.4691C369.528 24.4506 369.682 24.4427 369.761 24.4427C369.838 24.3237 369.896 24.218 369.936 24.1228C369.975 24.025 370.012 23.9165 370.052 23.8028C370.052 23.5702 370.031 23.1921 369.997 22.6659C369.954 22.145 369.925 21.5713 369.907 20.9526C369.888 20.3339 369.87 19.7601 369.848 19.2366C369.827 18.7105 369.819 18.335 369.819 18.1023C369.859 18.0257 369.877 17.8485 369.877 17.5788V16.9971L369.296 11.3521C369.256 11.0851 369.158 10.7705 369.005 10.4241C368.849 10.0751 368.656 9.75516 368.423 9.46167C368.191 9.17347 367.908 8.9408 367.58 8.76629C367.249 8.58914 366.914 8.52303 366.562 8.56269C366.253 8.59971 365.959 8.69754 365.689 8.85354C364.41 10.1703 363.614 11.5478 363.304 12.9835C362.992 14.4166 362.821 15.9898 362.781 17.6952C362.781 18.6232 362.76 19.538 362.725 20.4291C362.683 21.3228 362.707 22.2297 362.781 23.163Z" fill="#2BB673"/>
<path d="M381.402 35.2038C381.675 34.4688 382.166 33.9928 382.886 33.7787C383.602 33.5645 384.456 33.5063 385.442 33.6068C386.431 33.702 387.536 33.8844 388.761 34.1567C389.982 34.4264 391.251 34.6803 392.571 34.9129C393.113 34.8759 393.586 34.7358 393.996 34.5031C394.403 34.2704 394.781 33.9717 395.127 33.6068C395.479 33.2366 395.807 32.8215 396.116 32.3535C396.428 31.8882 396.759 31.4202 397.105 30.9575C397.145 30.9205 397.185 30.8332 397.222 30.6957C397.261 30.5582 397.282 30.4736 397.282 30.434L397.05 26.9994C396.973 26.965 396.73 26.7693 396.323 26.4203C395.915 26.0713 395.595 25.799 395.363 25.606C395.283 25.5293 395.138 25.4209 394.927 25.2861C394.712 25.1512 394.567 25.0825 394.49 25.0825C393.134 24.5008 391.862 24.0354 390.68 23.6864C389.498 23.34 388.393 22.9196 387.365 22.4358C386.336 21.9493 385.405 21.2936 384.573 20.4581C383.737 19.6252 383.01 18.4327 382.391 16.8781C382.391 16.7644 382.381 16.5898 382.359 16.3572C382.341 16.1245 382.312 15.8813 382.275 15.6301C382.235 15.3789 382.206 15.1436 382.188 14.932C382.166 14.7205 382.159 14.5751 382.159 14.4958C382.119 13.9538 382.071 13.3721 382.01 12.7507C381.955 12.1294 382.021 11.5503 382.217 11.0083C382.254 10.8523 382.333 10.5694 382.449 10.1596C382.563 9.75505 382.701 9.33994 382.857 8.9116C383.01 8.48592 383.155 8.07872 383.293 7.69005C383.428 7.30402 383.515 7.03169 383.552 6.87569V6.58485C383.785 6.23584 383.999 5.96351 384.194 5.77049C384.387 5.57748 384.573 5.3739 384.747 5.16238C384.922 4.94821 385.067 4.78163 385.183 4.66529C386.463 3.22959 387.732 2.14553 388.993 1.40785C390.255 0.670165 391.796 0.207461 393.618 0.0118028C394.123 -0.0278576 394.858 0.03296 395.828 0.186313C396.796 0.342311 397.766 0.574983 398.737 0.886978C399.704 1.19633 400.558 1.59294 401.293 2.07944C402.031 2.56066 402.42 3.09474 402.459 3.67643C402.499 4.02544 402.478 4.49078 402.399 5.07247C402.322 5.65151 402.198 6.23585 402.023 6.82018C401.846 7.39658 401.616 7.91481 401.325 8.359C401.034 8.80584 400.693 9.04643 400.304 9.08609C399.3 9.16277 398.29 9.15221 397.282 9.05438C396.272 8.96184 395.265 8.95126 394.255 9.03058C394.062 9.03058 393.665 9.06495 393.065 9.14427C392.465 9.22095 392.066 9.2606 391.873 9.2606C391.756 9.33992 391.571 9.42718 391.32 9.52236C391.066 9.61755 390.815 9.74712 390.564 9.90311C390.31 10.0565 390.099 10.2125 389.924 10.3658C389.75 10.5218 389.662 10.6778 389.662 10.8312L389.95 14.3239C389.95 14.5143 390.077 14.6994 390.331 14.8765C390.582 15.0484 390.855 15.2202 391.146 15.3974C391.436 15.5719 391.735 15.7279 392.045 15.8627C392.357 15.9976 392.571 16.0875 392.687 16.1245C394.236 16.8622 395.654 17.5602 396.933 18.2186C398.21 18.8769 399.316 19.6516 400.249 20.5453C401.177 21.439 401.925 22.4913 402.488 23.7155C403.052 24.937 403.409 26.4573 403.565 28.2817C403.718 29.8708 403.612 31.4413 403.245 32.9934C402.874 34.5454 402.274 35.9282 401.441 37.1524C400.609 38.3713 399.551 39.3919 398.271 40.2063C396.991 41.0206 395.537 41.5071 393.906 41.6605C392.55 41.8165 391.153 41.835 389.72 41.7187C388.285 41.6023 386.976 41.3115 385.794 40.8461C384.61 40.3808 383.613 39.6933 382.796 38.7811C381.984 37.8716 381.516 36.6792 381.402 35.2038Z" fill="#2BB673"/>
<path d="M435.9 43.5193C435.551 40.9995 435.366 38.5115 435.347 36.0472C435.326 33.5857 435.318 31.1109 435.318 28.6334C435.242 24.2099 435.094 19.8182 434.882 15.4529C434.668 11.0929 434.369 6.68269 433.98 2.22222C434.06 1.98955 434.187 1.78333 434.359 1.61147C434.533 1.43696 434.774 1.31268 435.086 1.23071H435.318C437.954 1.31268 440.379 1.49513 442.589 1.78333C444.8 2.07946 446.73 2.64791 448.377 3.50193C450.027 4.35595 451.381 5.54842 452.449 7.07667C453.515 8.6102 454.223 10.6382 454.575 13.1579C454.725 14.3213 454.725 15.5931 454.575 16.9653C454.416 18.3455 454.049 19.6411 453.47 20.8652C452.885 22.0868 452.071 23.1417 451.024 24.0354C449.977 24.9291 448.639 25.45 447.01 25.606C446.233 25.6827 445.477 25.6562 444.742 25.5187C444.004 25.3839 443.266 25.2755 442.531 25.1988C442.222 25.3151 442.016 25.4606 441.92 25.6351C441.823 25.8069 441.775 26.0502 441.775 26.3595C441.775 26.5552 441.786 26.9042 441.804 27.4092C441.823 27.9142 441.841 28.4351 441.862 28.9771C441.883 29.5218 441.902 30.048 441.92 30.5477C441.939 31.0553 441.968 31.4043 442.01 31.5973C442.01 31.674 442.016 31.8882 442.037 32.2372C442.055 32.5862 442.084 32.8004 442.124 32.877L442.24 43.4637C442.161 43.6964 442.095 43.9767 442.037 44.3045C441.979 44.635 441.794 44.8571 441.484 44.9761C441.331 44.9761 441.011 44.9946 440.524 45.0343C440.038 45.0713 439.739 45.111 439.623 45.1533C439.12 45.2273 438.652 45.2749 438.227 45.296C437.801 45.3145 437.431 45.2749 437.122 45.1771C436.812 45.0819 436.548 44.91 436.336 44.6562C436.122 44.4024 435.977 44.0269 435.9 43.5193ZM443.171 16.2408C443.248 16.7855 443.404 17.198 443.636 17.4915C443.869 17.7823 444.334 17.8907 445.033 17.8114C445.575 17.7717 445.992 17.5787 446.283 17.2297C446.574 16.8781 446.796 16.4735 446.952 16.0055C447.105 15.5402 447.187 15.0695 447.187 14.583C447.187 14.0965 447.166 13.6814 447.127 13.3298C447.087 13.0627 446.981 12.5762 446.807 11.8782C446.635 11.1802 446.399 10.4795 446.109 9.78413C445.818 9.08611 445.448 8.48328 445.003 7.98091C444.557 7.47855 444.062 7.26175 443.52 7.34107C443.364 7.34107 443.248 7.55522 443.171 7.98091C443.094 8.40924 443.044 8.9407 443.026 9.58055C443.005 10.2204 442.999 10.9184 442.999 11.672C442.999 12.4335 443.005 13.1288 443.026 13.7687C443.044 14.4085 443.073 14.9611 443.116 15.4265C443.15 15.8918 443.171 16.1642 443.171 16.2408Z" fill="#2BB673"/>
<path d="M477.27 44.1037C477.074 44.027 476.881 43.9001 476.688 43.7256C476.493 43.5511 476.379 43.366 476.339 43.173L474.946 30.8412C474.946 30.6879 474.874 30.5478 474.739 30.4341C474.605 30.3151 474.478 30.2781 474.361 30.3151L467.614 30.9549L468.719 41.1371C468.796 41.7558 468.973 42.3269 469.243 42.8531C469.515 43.3766 469.687 43.9292 469.769 44.5108C469.803 44.7435 469.785 44.889 469.708 44.9445C469.631 45.0053 469.454 45.0529 469.184 45.0899C469.108 45.0899 468.999 45.1005 468.864 45.1216C468.73 45.1428 468.642 45.1507 468.603 45.1507H467.876C467.548 45.1507 467.207 45.1586 466.858 45.1771C466.509 45.1983 466.189 45.2195 465.898 45.238C465.607 45.2538 465.422 45.2644 465.345 45.2644C464.647 45.2644 464.084 45.1877 463.658 45.0317C463.233 44.8784 462.902 44.6457 462.67 44.3363C462.437 44.027 462.273 43.6489 462.175 43.1994C462.077 42.7552 461.99 42.2423 461.913 41.6606C461.72 39.5269 461.564 37.4064 461.448 35.2911C461.332 33.1759 461.234 31.0343 461.157 28.8635C461.157 28.8239 461.149 28.6123 461.128 28.2237C461.107 27.8376 461.078 27.3908 461.041 26.8858C461.001 26.3808 460.961 25.8863 460.924 25.4025C460.885 24.9186 460.845 24.5405 460.808 24.2682C460.731 22.7928 460.798 21.4391 461.012 20.1938C461.223 18.9537 461.466 17.5973 461.739 16.1246C461.506 15.4636 461.554 14.7656 461.884 14.0305C462.212 13.2955 462.477 12.6345 462.67 12.0528C462.746 11.7435 462.796 11.45 462.815 11.1803C462.833 10.9079 462.902 10.5986 463.019 10.2469C463.019 10.2126 463.04 10.1438 463.077 10.046C463.116 9.94817 463.156 9.90058 463.193 9.90058C463.619 9.12324 463.989 8.34059 464.298 7.54474C464.608 6.75153 465.033 5.96362 465.581 5.18627C465.927 4.72093 466.353 4.24764 466.858 3.76114C467.36 3.27728 467.905 2.82252 468.486 2.39683C469.068 1.9685 469.679 1.62214 470.319 1.3498C470.959 1.07747 471.588 0.902949 472.209 0.826272C473.954 0.670275 475.311 0.910886 476.281 1.55074C477.251 2.19059 478.018 3.01819 478.581 4.02556C479.139 5.03293 479.575 6.14607 479.887 7.37025C480.197 8.58914 480.548 9.72606 480.934 10.7705C480.934 10.8868 480.964 11.101 481.022 11.413C481.08 11.725 481.127 12.0528 481.167 12.4018C481.207 12.7508 481.254 13.0708 481.313 13.3616C481.371 13.6498 481.4 13.8534 481.4 13.9697C481.67 16.5318 481.836 19.1097 481.894 21.7061C481.952 24.3079 482.04 26.8858 482.156 29.4426C482.156 30.1036 482.108 30.7831 482.011 31.4811C481.913 32.1791 481.886 32.856 481.923 33.517C481.923 33.5937 481.942 33.7973 481.981 34.1251C482.019 34.4556 482.058 34.8152 482.098 35.2039C482.135 35.5926 482.185 35.9495 482.243 36.28C482.301 36.6105 482.33 36.8114 482.33 36.8881V38.8103C482.33 38.887 482.338 39.0906 482.36 39.4185C482.378 39.749 482.399 40.1086 482.418 40.4972C482.439 40.8859 482.455 41.2428 482.476 41.5733C482.494 41.9038 482.505 42.1259 482.505 42.2423C482.505 42.4749 482.465 42.824 482.389 43.2893C482.312 43.7547 482.058 44.0296 481.632 44.1063H481.516C481.476 44.1063 481.35 44.0852 481.138 44.0455C480.924 44.0085 480.797 43.9873 480.76 43.9873C480.644 43.9873 480.411 43.9979 480.062 44.0191C479.713 44.0402 479.353 44.0455 478.986 44.0455C478.616 44.0455 478.267 44.0561 477.939 44.0746C477.608 44.0931 477.386 44.1037 477.27 44.1037ZM467.73 23.163C467.77 23.6284 468.04 23.9589 468.545 24.1492C469.047 24.3449 469.631 24.4691 470.29 24.53C470.948 24.5881 471.609 24.6093 472.267 24.5881C472.926 24.567 473.431 24.5405 473.78 24.5009C473.856 24.5009 474.012 24.4903 474.245 24.4691C474.478 24.4506 474.631 24.4427 474.71 24.4427C474.787 24.3237 474.845 24.218 474.885 24.1228C474.925 24.025 474.962 23.9165 475.001 23.8028C475.001 23.5702 474.98 23.1921 474.946 22.6659C474.903 22.145 474.874 21.5713 474.856 20.9526C474.837 20.3339 474.819 19.7601 474.798 19.2366C474.777 18.7105 474.769 18.335 474.769 18.1023C474.808 18.0257 474.827 17.8485 474.827 17.5788V16.9971L474.245 11.3521C474.205 11.0851 474.108 10.7705 473.954 10.4241C473.798 10.0751 473.605 9.75516 473.373 9.46167C473.14 9.17347 472.857 8.9408 472.529 8.76629C472.199 8.58914 471.863 8.52303 471.511 8.56269C471.202 8.59971 470.908 8.69754 470.639 8.85354C469.359 10.1703 468.563 11.5478 468.254 12.9835C467.942 14.4166 467.77 15.9898 467.73 17.6952C467.73 18.6232 467.709 19.538 467.675 20.4291C467.632 21.3228 467.654 22.2297 467.73 23.163Z" fill="#2BB673"/>
<path d="M489.304 41.1977C489.029 39.0244 488.955 36.7954 489.072 34.5057C489.188 32.2186 489.207 29.9712 489.13 27.7608C489.051 25.6641 488.934 23.6203 488.781 21.6214C488.625 19.6278 488.567 17.5787 488.604 15.4846C488.604 13.2372 488.614 11.1431 488.636 9.2024C488.654 7.26433 488.509 5.20992 488.199 3.03653C488.276 2.41783 488.596 1.9419 489.156 1.6114C489.72 1.28354 490.272 1.07994 490.814 1.00062C491.438 0.923946 492.123 0.923946 492.882 1.00062C493.638 1.07994 494.267 1.37079 494.77 1.87316C494.77 1.94983 494.78 2.10584 494.801 2.33851C494.82 2.57383 494.83 2.72717 494.83 2.80385C494.984 4.16287 494.965 5.63825 494.77 7.22467C494.577 8.81637 494.518 10.2706 494.598 11.5873C494.598 11.7433 494.627 12.3356 494.685 13.3641C494.743 14.39 494.809 15.5639 494.886 16.8806C494.965 18.2027 495.042 19.5299 495.121 20.8678C495.198 22.2031 495.256 23.2633 495.296 24.038C495.412 25.8968 495.478 27.7079 495.499 29.4741C495.518 31.2403 495.626 33.033 495.819 34.8574C495.936 35.595 496.256 36.0181 496.779 36.1371C497.3 36.2508 497.874 36.301 498.495 36.2825C499.114 36.2613 499.688 36.2719 500.211 36.3089C500.732 36.3486 501.036 36.6791 501.113 37.2978C501.113 38.5405 501.084 39.5399 501.025 40.2935C500.967 41.0497 500.88 41.7398 500.764 42.3585C500.647 42.9798 500.452 43.2892 500.179 43.2892C500.142 43.3315 500.074 43.3473 499.978 43.3473H499.775C498.299 43.2706 496.787 43.2019 495.238 43.1437C493.686 43.0882 492.134 42.9798 490.581 42.8238C490.079 42.7894 489.759 42.6414 489.624 42.3875C489.487 42.1364 489.381 41.7398 489.304 41.1977Z" fill="#2BB673"/>
<path d="M524.672 44.1037C524.476 44.027 524.284 43.9001 524.091 43.7256C523.895 43.5511 523.781 43.366 523.741 43.173L522.348 30.8412C522.348 30.6879 522.277 30.5478 522.142 30.4341C522.007 30.3151 521.88 30.2781 521.764 30.3151L515.016 30.9549L516.121 41.1371C516.198 41.7558 516.375 42.3269 516.645 42.8531C516.917 43.3766 517.089 43.9292 517.171 44.5108C517.205 44.7435 517.187 44.889 517.11 44.9445C517.034 45.0053 516.856 45.0529 516.587 45.0899C516.51 45.0899 516.402 45.1005 516.267 45.1216C516.132 45.1428 516.045 45.1507 516.005 45.1507H515.278C514.95 45.1507 514.609 45.1586 514.26 45.1771C513.911 45.1983 513.591 45.2195 513.3 45.238C513.009 45.2538 512.824 45.2644 512.748 45.2644C512.05 45.2644 511.486 45.1877 511.061 45.0317C510.635 44.8784 510.305 44.6457 510.072 44.3363C509.839 44.027 509.675 43.6489 509.577 43.1994C509.48 42.7552 509.392 42.2423 509.316 41.6606C509.123 39.5269 508.967 37.4064 508.85 35.2911C508.734 33.1759 508.636 31.0343 508.559 28.8635C508.559 28.8239 508.552 28.6123 508.53 28.2237C508.509 27.8376 508.48 27.3908 508.443 26.8858C508.403 26.3808 508.364 25.8863 508.327 25.4025C508.287 24.9186 508.247 24.5405 508.21 24.2682C508.134 22.7928 508.2 21.4391 508.414 20.1938C508.626 18.9537 508.869 17.5973 509.141 16.1246C508.908 15.4636 508.956 14.7656 509.287 14.0305C509.614 13.2955 509.879 12.6345 510.072 12.0528C510.149 11.7435 510.199 11.45 510.217 11.1803C510.236 10.9079 510.305 10.5986 510.421 10.2469C510.421 10.2126 510.442 10.1438 510.479 10.046C510.519 9.94817 510.558 9.90058 510.595 9.90058C511.021 9.12324 511.391 8.34059 511.701 7.54474C512.01 6.75153 512.436 5.96362 512.983 5.18627C513.329 4.72093 513.755 4.24764 514.26 3.76114C514.762 3.27728 515.307 2.82252 515.889 2.39683C516.47 1.9685 517.081 1.62214 517.721 1.3498C518.361 1.07747 518.99 0.902949 519.612 0.826272C521.357 0.670275 522.713 0.910886 523.683 1.55074C524.654 2.19059 525.42 3.01819 525.984 4.02556C526.541 5.03293 526.978 6.14607 527.29 7.37025C527.599 8.58914 527.951 9.72606 528.337 10.7705C528.337 10.8868 528.366 11.101 528.424 11.413C528.482 11.725 528.53 12.0528 528.569 12.4018C528.609 12.7508 528.657 13.0708 528.715 13.3616C528.773 13.6498 528.802 13.8534 528.802 13.9697C529.072 16.5318 529.238 19.1097 529.297 21.7061C529.355 24.3079 529.442 26.8858 529.558 29.4426C529.558 30.1036 529.511 30.7831 529.413 31.4811C529.315 32.1791 529.289 32.856 529.326 33.517C529.326 33.5937 529.344 33.7973 529.384 34.1251C529.421 34.4556 529.461 34.8152 529.5 35.2039C529.537 35.5926 529.587 35.9495 529.646 36.28C529.704 36.6105 529.733 36.8114 529.733 36.8881V38.8103C529.733 38.887 529.741 39.0906 529.762 39.4185C529.78 39.749 529.802 40.1086 529.82 40.4972C529.841 40.8859 529.857 41.2428 529.878 41.5733C529.897 41.9038 529.907 42.1259 529.907 42.2423C529.907 42.4749 529.868 42.824 529.791 43.2893C529.714 43.7547 529.461 44.0296 529.035 44.1063H528.918C528.879 44.1063 528.752 44.0852 528.54 44.0455C528.326 44.0085 528.199 43.9873 528.162 43.9873C528.046 43.9873 527.813 43.9979 527.464 44.0191C527.115 44.0402 526.756 44.0455 526.388 44.0455C526.018 44.0455 525.669 44.0561 525.341 44.0746C525.008 44.0931 524.788 44.1037 524.672 44.1037ZM515.133 23.163C515.172 23.6284 515.442 23.9589 515.947 24.1492C516.449 24.3449 517.034 24.4691 517.692 24.53C518.35 24.5881 519.011 24.6093 519.67 24.5881C520.328 24.567 520.833 24.5405 521.182 24.5009C521.259 24.5009 521.415 24.4903 521.647 24.4691C521.88 24.4506 522.033 24.4427 522.113 24.4427C522.189 24.3237 522.248 24.218 522.287 24.1228C522.327 24.025 522.364 23.9165 522.404 23.8028C522.404 23.5702 522.382 23.1921 522.348 22.6659C522.306 22.145 522.277 21.5713 522.258 20.9526C522.24 20.3339 522.221 19.7601 522.2 19.2366C522.179 18.7105 522.171 18.335 522.171 18.1023C522.211 18.0257 522.229 17.8485 522.229 17.5788V16.9971L521.647 11.3521C521.608 11.0851 521.51 10.7705 521.357 10.4241C521.201 10.0751 521.008 9.75516 520.775 9.46167C520.542 9.17347 520.259 8.9408 519.931 8.76629C519.601 8.58914 519.265 8.52303 518.913 8.56269C518.604 8.59971 518.311 8.69754 518.041 8.85354C516.761 10.1703 515.965 11.5478 515.656 12.9835C515.344 14.4166 515.172 15.9898 515.133 17.6952C515.133 18.6232 515.111 19.538 515.077 20.4291C515.035 21.3228 515.053 22.2297 515.133 23.163Z" fill="#2BB673"/>
<path d="M537.057 44.5717C537.017 44.2624 536.996 44.0085 536.996 43.8155C536.996 43.6199 537.036 43.3687 537.112 43.0567L537.057 30.9021C536.629 27.954 536.396 24.9583 536.359 21.9151C536.317 18.8692 536.24 15.8946 536.124 12.9862C536.007 11.6298 535.902 10.2708 535.806 8.91176C535.709 7.55802 535.679 6.19898 535.719 4.8426C535.719 4.60728 535.687 4.38519 535.632 4.17102C535.571 3.9595 535.603 3.73739 535.719 3.50471C535.952 3.1557 536.29 2.88337 536.737 2.69036C537.181 2.49734 537.665 2.34927 538.189 2.25409C538.715 2.1589 539.228 2.09811 539.73 2.0796C540.235 2.06109 540.663 2.02935 541.012 1.99233C541.94 1.91566 542.813 1.99235 543.63 2.22502C544.444 2.4577 545.201 2.79876 545.896 3.24296C546.594 3.68715 547.234 4.2239 547.818 4.8426C548.4 5.46395 548.902 6.12231 549.328 6.82033C549.484 7.13233 549.611 7.48662 549.709 7.89644C549.804 8.30362 549.931 8.64471 550.084 8.91176L550.494 12.7535C550.454 12.8328 550.415 13.0444 550.378 13.3934C550.338 13.7424 550.317 13.9724 550.317 14.0914C550.24 14.7127 550.084 15.342 549.854 15.9819C549.621 16.6217 549.542 17.2325 549.621 17.8142C549.658 18.3165 549.902 18.774 550.348 19.1785C550.793 19.5883 551.171 19.9638 551.483 20.3154C551.599 20.4318 551.811 20.6644 552.123 21.0134C552.432 21.3625 552.643 21.5951 552.76 21.7088C552.723 21.8278 552.81 22.0605 553.024 22.4095C553.236 22.7585 553.49 23.1551 553.78 23.5993C554.069 24.0488 554.322 24.493 554.537 24.9398C554.748 25.3867 554.835 25.7251 554.798 25.9578C554.835 26.0741 554.923 26.2883 555.057 26.5976C555.195 26.907 555.33 27.2348 555.467 27.5865C555.6 27.9355 555.716 28.2554 555.814 28.5463C555.912 28.8371 555.98 29.0407 556.02 29.157C556.02 29.1941 556.036 29.4373 556.078 29.8842C556.115 30.3284 556.173 30.6694 556.25 30.9021C556.446 32.6472 556.395 34.3261 556.107 35.931C555.814 37.5439 555.399 39.162 554.854 40.7908C554.894 40.8674 554.894 40.9626 554.854 41.079C554.814 41.1979 554.777 41.2931 554.738 41.3724C554.352 42.1075 553.915 42.7976 553.431 43.4348C552.945 44.0746 552.257 44.532 551.366 44.8044C551.21 44.8044 550.967 44.8229 550.637 44.8599C550.306 44.9022 549.949 44.9472 549.561 45.008C549.175 45.0662 548.815 45.1137 548.487 45.1534C548.157 45.1904 547.913 45.2116 547.76 45.2116C547.527 45.2116 547.215 45.2301 546.829 45.2671C546.441 45.3068 546.052 45.3464 545.666 45.3861C545.277 45.4231 544.936 45.4548 544.648 45.4733C544.354 45.4892 544.191 45.4998 544.151 45.4998C544.114 45.4998 544.016 45.5103 543.863 45.5315C543.704 45.55 543.532 45.5606 543.339 45.5606C543.144 45.5606 542.95 45.55 542.757 45.5315C542.562 45.5103 542.427 45.4998 542.35 45.4998C541.845 45.4998 541.311 45.4733 540.748 45.4125C540.187 45.357 539.635 45.3279 539.09 45.3279C538.509 45.3676 538.046 45.4046 537.697 45.4442C537.348 45.476 537.134 45.1878 537.057 44.5717ZM542.35 15.075C542.387 15.1939 542.475 15.2733 542.609 15.3076C542.747 15.35 542.853 15.3684 542.929 15.3684C543.125 15.3288 543.241 15.231 543.278 15.075C543.63 14.3796 543.842 13.7186 543.918 13.0972C543.998 12.4785 543.998 11.7805 543.918 11.0058C543.881 10.8102 543.831 10.5881 543.775 10.3342C543.715 10.083 543.619 9.85037 543.482 9.63885C543.347 9.42733 543.183 9.25018 542.99 9.11534C542.795 8.97785 542.562 8.93025 542.289 8.96991C542.252 8.96991 542.184 8.98843 542.089 9.02809C541.991 9.06511 541.922 9.08625 541.885 9.08625L541.708 9.43527L542.35 15.075ZM542.641 38.8104C542.678 39.1964 542.94 39.4714 543.426 39.6247C543.908 39.7807 544.307 39.8389 544.619 39.7966C545.666 39.6829 546.499 39.4106 547.118 38.9849C547.739 38.5566 548.186 38.0357 548.455 37.4143C548.728 36.793 548.881 36.095 548.923 35.3203C548.96 34.5456 548.923 33.7709 548.807 32.9935C548.648 31.5182 548.302 30.0375 547.76 28.5436C547.215 27.0524 546.266 25.8388 544.907 24.9081C544.637 24.7547 544.394 24.6252 544.183 24.53C543.968 24.4322 543.704 24.4031 543.395 24.4428C543.162 24.4428 542.99 24.5406 542.874 24.7336C542.757 24.9292 542.678 25.1514 542.641 25.4025C542.599 25.6537 542.583 25.9155 542.583 26.1878V26.8277V31.6556C542.62 31.7323 542.66 31.9571 542.697 32.3246C542.736 32.6921 542.757 32.9168 542.757 32.9935C542.794 34.0035 542.765 34.9713 542.67 35.902C542.572 36.8327 542.562 37.8057 542.641 38.8104Z" fill="#2BB673"/>
<path d="M579.407 45.9067C578.672 44.8571 578.091 43.9396 577.665 43.1437C577.237 42.3479 576.753 41.4859 576.208 40.5552C576.131 40.4363 575.997 40.275 575.804 40.0582C575.608 39.8466 575.423 39.6219 575.251 39.3892C575.076 39.1566 574.931 38.9318 574.815 38.7203C574.698 38.5088 574.677 38.3025 574.757 38.1095C574.291 37.4485 573.834 36.7716 573.39 36.0736C572.943 35.3729 572.506 34.6961 572.081 34.0351H571.964C571.925 34.0351 571.888 34.0192 571.848 33.9795C571.499 33.9029 571.362 34.0562 571.441 34.4449C571.478 34.8309 571.518 35.529 571.557 36.539C571.594 37.549 571.645 38.6225 571.7 39.7673C571.761 40.9095 571.819 41.9962 571.877 43.0248C571.935 44.0507 571.983 44.7592 572.02 45.1505L572.081 45.3224C572.004 45.4388 571.888 45.5842 571.732 45.7587C571.576 45.9332 571.478 46.0019 571.441 45.9596L565.505 46.3668C565.159 46.4065 564.865 46.2611 564.633 45.9332C564.403 45.6027 564.265 45.3013 564.228 45.0316C564.228 44.9919 564.236 44.9628 564.257 44.9417C564.276 44.9232 564.286 44.8756 564.286 44.7989V44.6217C564.286 44.5874 564.305 44.479 564.344 44.3018C564.381 44.13 564.421 43.9449 564.461 43.7492C564.498 43.5588 564.537 43.3843 564.577 43.2283C564.617 43.0723 564.633 42.9745 564.633 42.9375C564.633 42.8212 564.606 42.5594 564.548 42.1522C564.49 41.7451 564.44 41.3167 564.402 40.8725C564.363 40.4257 564.323 40.0106 564.286 39.6219C564.247 39.2359 564.228 38.982 564.228 38.8657V37.4406C564.228 36.6844 564.217 35.8806 564.196 35.0266C564.18 34.1726 564.159 33.3688 564.141 32.61C564.12 31.8564 564.112 31.3805 564.112 31.1848C564.112 30.9944 564.091 30.6428 564.054 30.1404C564.014 29.6354 563.974 29.0934 563.937 28.5117C563.897 27.93 563.858 27.388 563.821 26.883C563.781 26.378 563.76 26.0316 563.76 25.836C563.8 25.7593 563.821 25.5821 563.821 25.3124V24.7863C563.937 21.4152 563.956 18.0784 563.876 14.7839C563.8 11.4895 563.705 8.17124 563.588 4.83712C563.588 4.72079 563.578 4.50661 563.559 4.19726C563.538 3.88791 563.511 3.5574 563.472 3.20575C563.432 2.85938 563.403 2.51832 563.385 2.18781C563.363 1.85995 563.355 1.63519 563.355 1.52415C563.432 1.28883 563.538 1.15134 563.675 1.11432C563.81 1.07731 563.956 1.05617 564.112 1.05617C565.661 0.939831 567.173 0.871077 568.649 0.852569C570.122 0.83406 571.507 0.987422 572.805 1.31528C574.103 1.64578 575.28 2.19838 576.324 2.97308C577.374 3.75042 578.247 4.85562 578.945 6.28868C579.447 7.30134 579.952 8.27699 580.457 9.22884C580.959 10.178 581.253 11.2171 581.33 12.3409C581.483 14.665 581.086 16.8304 580.137 18.8267C579.185 20.8229 577.839 22.6367 576.092 24.2654C575.938 24.4584 575.862 24.6726 575.862 24.9053C575.938 25.2516 576.084 25.5821 576.298 25.8915C576.512 26.2035 576.578 26.534 576.502 26.883L578.887 31.6528V31.8247L581.269 35.6664C581.269 35.7035 581.435 36.0234 581.766 36.6262C582.094 37.2264 582.472 37.9033 582.9 38.6621C583.326 39.4183 583.712 40.1745 584.063 40.9307C584.412 41.6869 584.605 42.258 584.645 42.644C584.682 42.9957 584.558 43.3843 584.264 43.81C583.976 44.2357 583.617 44.6218 583.191 44.9734C582.763 45.3224 582.318 45.6212 581.853 45.875C581.385 46.1262 580.981 46.2531 580.629 46.2531C580.087 46.3324 579.68 46.2161 579.407 45.9067ZM569.638 18.2185C569.794 18.4115 569.915 18.557 570.016 18.6548C570.111 18.7526 570.278 18.8214 570.51 18.8557C571.285 18.779 571.914 18.4988 572.401 18.0149C572.885 17.5284 573.252 16.9653 573.506 16.3254C573.757 15.6882 573.921 15.0193 573.998 14.3212C574.077 13.6232 574.114 13.0204 574.114 12.518C574.077 12.1293 573.982 11.6561 573.826 11.0929C573.67 10.5323 573.456 9.99824 573.186 9.49323C572.914 8.98823 572.573 8.57312 572.168 8.24261C571.761 7.91475 571.264 7.76935 570.685 7.80637C570.296 7.84603 569.995 8.05754 569.783 8.44621C569.569 8.83224 569.424 9.27907 569.347 9.78408C569.268 10.2891 569.231 10.7809 569.231 11.2647V12.2853C569.231 12.325 569.241 12.4572 569.257 12.6899C569.278 12.9226 569.297 13.1975 569.318 13.5069C569.336 13.8162 569.357 14.1362 569.373 14.4667C569.394 14.7972 569.423 15.0589 569.463 15.2519C569.463 15.3683 569.471 15.5613 569.49 15.8336C569.511 16.1033 569.529 16.4047 569.55 16.7326C569.569 17.0631 569.587 17.3645 569.606 17.6368C569.627 17.9092 569.638 18.1022 569.638 18.2185Z" fill="#2BB673"/>
<path d="M605.698 44.1037C605.503 44.027 605.31 43.9001 605.114 43.7256C604.921 43.5511 604.807 43.366 604.765 43.173L603.372 30.8412C603.372 30.6879 603.303 30.5478 603.168 30.4341C603.03 30.3151 602.904 30.2781 602.787 30.3151L596.04 30.9549L597.145 41.1371C597.222 41.7558 597.399 42.3269 597.668 42.8531C597.941 43.3766 598.113 43.9292 598.195 44.5108C598.229 44.7435 598.21 44.889 598.134 44.9445C598.057 45.0053 597.88 45.0529 597.61 45.0899C597.534 45.0899 597.425 45.1005 597.29 45.1216C597.155 45.1428 597.068 45.1507 597.028 45.1507H596.301C595.974 45.1507 595.632 45.1586 595.283 45.1771C594.934 45.1983 594.615 45.2195 594.324 45.238C594.033 45.2538 593.848 45.2644 593.771 45.2644C593.073 45.2644 592.51 45.1877 592.084 45.0317C591.658 44.8784 591.328 44.6457 591.095 44.3363C590.863 44.027 590.699 43.6489 590.601 43.1994C590.503 42.7552 590.416 42.2423 590.339 41.6606C590.146 39.5269 589.99 37.4064 589.874 35.2911C589.757 33.1759 589.66 31.0343 589.583 28.8635C589.583 28.8239 589.575 28.6123 589.554 28.2237C589.533 27.8376 589.504 27.3908 589.467 26.8858C589.427 26.3808 589.387 25.8863 589.35 25.4025C589.311 24.9186 589.271 24.5405 589.234 24.2682C589.157 22.7928 589.223 21.4391 589.437 20.1938C589.649 18.9537 589.892 17.5973 590.165 16.1246C589.932 15.4636 589.98 14.7656 590.31 14.0305C590.638 13.2955 590.902 12.6345 591.095 12.0528C591.172 11.7435 591.222 11.45 591.241 11.1803C591.259 10.9079 591.328 10.5986 591.444 10.2469C591.444 10.2126 591.465 10.1438 591.502 10.046C591.542 9.94817 591.582 9.90058 591.619 9.90058C592.045 9.12324 592.415 8.34059 592.724 7.54474C593.033 6.75153 593.459 5.96362 594.006 5.18627C594.353 4.72093 594.778 4.24764 595.283 3.76114C595.786 3.27728 596.331 2.82252 596.912 2.39683C597.494 1.9685 598.105 1.62214 598.745 1.3498C599.384 1.07747 600.014 0.902949 600.635 0.826272C602.377 0.670275 603.736 0.910886 604.707 1.55074C605.675 2.19059 606.441 3.01819 607.004 4.02556C607.565 5.03293 608.001 6.14607 608.311 7.37025C608.62 8.58914 608.972 9.72606 609.358 10.7705C609.358 10.8868 609.387 11.101 609.445 11.413C609.5 11.725 609.551 12.0528 609.59 12.4018C609.63 12.7508 609.678 13.0708 609.736 13.3616C609.794 13.6498 609.823 13.8534 609.823 13.9697C610.095 16.5318 610.259 19.1097 610.32 21.7061C610.376 24.3079 610.465 26.8858 610.582 29.4426C610.582 30.1036 610.534 30.7831 610.436 31.4811C610.339 32.1791 610.309 32.856 610.349 33.517C610.349 33.5937 610.368 33.7973 610.405 34.1251C610.444 34.4556 610.481 34.8152 610.521 35.2039C610.561 35.5926 610.608 35.9495 610.669 36.28C610.725 36.6105 610.756 36.8114 610.756 36.8881V38.8103C610.756 38.887 610.764 39.0906 610.785 39.4185C610.804 39.749 610.825 40.1086 610.841 40.4972C610.865 40.8859 610.881 41.2428 610.899 41.5733C610.918 41.9038 610.928 42.1259 610.928 42.2423C610.928 42.4749 610.888 42.824 610.812 43.2893C610.735 43.7547 610.481 44.0296 610.056 44.1063H609.939C609.9 44.1063 609.773 44.0852 609.561 44.0455C609.347 44.0085 609.22 43.9873 609.18 43.9873C609.064 43.9873 608.831 43.9979 608.482 44.0191C608.133 44.0402 607.774 44.0455 607.406 44.0455C607.039 44.0455 606.69 44.0561 606.359 44.0746C606.034 44.0931 605.815 44.1037 605.698 44.1037ZM596.156 23.163C596.196 23.6284 596.465 23.9589 596.97 24.1492C597.473 24.3449 598.057 24.4691 598.715 24.53C599.374 24.5881 600.035 24.6093 600.693 24.5881C601.352 24.567 601.856 24.5405 602.206 24.5009C602.282 24.5009 602.438 24.4903 602.671 24.4691C602.904 24.4506 603.057 24.4427 603.136 24.4427C603.213 24.3237 603.274 24.218 603.311 24.1228C603.35 24.025 603.387 23.9165 603.427 23.8028C603.427 23.5702 603.406 23.1921 603.372 22.6659C603.329 22.145 603.303 21.5713 603.284 20.9526C603.266 20.3339 603.245 19.7601 603.226 19.2366C603.205 18.7105 603.197 18.335 603.197 18.1023C603.237 18.0257 603.253 17.8485 603.253 17.5788V16.9971L602.671 11.3521C602.631 11.0851 602.533 10.7705 602.38 10.4241C602.224 10.0751 602.031 9.75516 601.798 9.46167C601.566 9.17347 601.285 8.9408 600.958 8.76629C600.627 8.58914 600.291 8.52303 599.937 8.56269C599.628 8.59971 599.334 8.69754 599.064 8.85354C597.785 10.1703 596.989 11.5478 596.68 12.9835C596.368 14.4166 596.196 15.9898 596.156 17.6952C596.156 18.6232 596.135 19.538 596.1 20.4291C596.058 21.3228 596.079 22.2297 596.156 23.163Z" fill="#2BB673"/>
<path d="M614.77 35.2038C615.042 34.4688 615.534 33.9928 616.253 33.7787C616.972 33.5645 617.826 33.5063 618.812 33.6068C619.801 33.702 620.906 33.8844 622.13 34.1567C623.352 34.4264 624.619 34.6803 625.938 34.9129C626.48 34.8759 626.956 34.7358 627.363 34.5031C627.77 34.2704 628.148 33.9717 628.497 33.6068C628.849 33.2366 629.177 32.8215 629.486 32.3535C629.795 31.8882 630.126 31.4202 630.475 30.9575C630.515 30.9205 630.552 30.8332 630.591 30.6957C630.631 30.5582 630.649 30.4736 630.649 30.434L630.417 26.9994C630.34 26.965 630.097 26.7693 629.69 26.4203C629.285 26.0713 628.965 25.799 628.733 25.606C628.653 25.5293 628.508 25.4209 628.296 25.2861C628.082 25.1512 627.934 25.0825 627.86 25.0825C626.501 24.5008 625.232 24.0354 624.05 23.6864C622.868 23.34 621.763 22.9196 620.734 22.4358C619.706 21.9493 618.775 21.2936 617.942 20.4581C617.107 19.6252 616.38 18.4327 615.761 16.8781C615.761 16.7644 615.75 16.5898 615.729 16.3572C615.708 16.1245 615.679 15.8813 615.645 15.6301C615.605 15.3789 615.576 15.1436 615.557 14.932C615.536 14.7205 615.528 14.5751 615.528 14.4958C615.486 13.9538 615.441 13.3721 615.378 12.7507C615.322 12.1294 615.391 11.5503 615.584 11.0083C615.624 10.8523 615.7 10.5694 615.817 10.1596C615.933 9.75505 616.07 9.33994 616.224 8.9116C616.38 8.48592 616.523 8.07872 616.66 7.69005C616.795 7.30402 616.882 7.03169 616.922 6.87569V6.58485C617.154 6.23584 617.369 5.96351 617.562 5.77049C617.755 5.57748 617.942 5.3739 618.114 5.16238C618.289 4.94821 618.434 4.78163 618.55 4.66529C619.83 3.22959 621.099 2.14553 622.361 1.40785C623.622 0.670165 625.163 0.207461 626.985 0.0118028C627.487 -0.0278576 628.225 0.03296 629.195 0.186313C630.163 0.342311 631.133 0.574983 632.104 0.886978C633.071 1.19633 633.925 1.59294 634.663 2.07944C635.398 2.56066 635.789 3.09474 635.827 3.67643C635.866 4.02544 635.845 4.49078 635.768 5.07247C635.692 5.65151 635.567 6.23585 635.39 6.82018C635.216 7.39658 634.983 7.91481 634.692 8.359C634.401 8.80584 634.06 9.04643 633.672 9.08609C632.664 9.16277 631.654 9.15221 630.647 9.05438C629.637 8.96184 628.629 8.95126 627.619 9.03058C627.426 9.03058 627.027 9.06495 626.43 9.14427C625.827 9.22095 625.43 9.2606 625.237 9.2606C625.121 9.33992 624.936 9.42718 624.685 9.52236C624.431 9.61755 624.18 9.74712 623.928 9.90311C623.675 10.0565 623.463 10.2125 623.289 10.3658C623.117 10.5218 623.027 10.6778 623.027 10.8312L623.315 14.3239C623.315 14.5143 623.442 14.6994 623.696 14.8765C623.947 15.0484 624.219 15.2202 624.51 15.3974C624.801 15.5719 625.102 15.7279 625.412 15.8627C625.721 15.9976 625.935 16.0875 626.052 16.1245C627.601 16.8622 629.018 17.5602 630.298 18.2186C631.575 18.8769 632.68 19.6516 633.613 20.5453C634.542 21.439 635.29 22.4913 635.853 23.7155C636.419 24.937 636.776 26.4573 636.929 28.2817C637.085 29.8708 636.979 31.4413 636.609 32.9934C636.239 34.5454 635.639 35.9282 634.806 37.1524C633.973 38.3713 632.915 39.3919 631.636 40.2063C630.356 41.0206 628.902 41.5071 627.27 41.6605C625.914 41.8165 624.521 41.835 623.085 41.7187C621.649 41.6023 620.343 41.3115 619.161 40.8461C617.977 40.3808 616.98 39.6933 616.163 38.7811C615.351 37.8716 614.886 36.6792 614.77 35.2038Z" fill="#2BB673"/>
</g>
<defs>
<clipPath id="clip0">
<rect width="636.999" height="46.3732" fill="white"/>
</clipPath>
</defs>
</svg>
