<?xml version="1.0" encoding="UTF-8" standalone="no"?>
<svg
   width="250"
   height="150"
   viewBox="0 0 250 150"
   fill="none"
   version="1.1"
   id="svg1193"
   sodipodi:docname="svgGlo7DuckFlip.svg"
   inkscape:version="1.2.1 (9c6d41e410, 2022-07-14)"
   xmlns:inkscape="http://www.inkscape.org/namespaces/inkscape"
   xmlns:sodipodi="http://sodipodi.sourceforge.net/DTD/sodipodi-0.dtd"
   xmlns="http://www.w3.org/2000/svg"
   xmlns:svg="http://www.w3.org/2000/svg">
  <defs
     id="defs1197" />
  <sodipodi:namedview
     id="namedview1195"
     pagecolor="#ffffff"
     bordercolor="#000000"
     borderopacity="0.25"
     inkscape:showpageshadow="2"
     inkscape:pageopacity="0.0"
     inkscape:pagecheckerboard="0"
     inkscape:deskcolor="#d1d1d1"
     showgrid="false"
     inkscape:zoom="6.3395062"
     inkscape:cx="83.444985"
     inkscape:cy="80.92113"
     inkscape:window-width="3840"
     inkscape:window-height="2066"
     inkscape:window-x="-11"
     inkscape:window-y="-11"
     inkscape:window-maximized="1"
     inkscape:current-layer="svg1193" />
  <path
     d="m 158.54084,40.972461 c -0.26089,-2.854594 -2.00517,-11.403988 -2.00517,-11.403988 0,0 9.99201,2.062586 13.50613,0.871567 3.52239,-1.189802 10.85363,-7.419829 10.85363,-1.189802 0,6.237245 -5.53132,12.988005 -8.02744,15.048154 -8.21466,6.771316 -14.35723,6.791795 -14.35723,6.791795 0,0 0.26165,-7.588599 0.0301,-10.117726 z"
     fill="#ffb300"
     id="path1173"
     style="stroke-width:0.756571" />
  <path
     d="m 98.193442,109.66924 c 0,0 -2.947681,5.89952 -5.829802,8.95168 -2.540482,2.68368 -6.176252,4.839 -5.370274,5.23793 1.717889,0.86106 14.291734,6.97528 13.881004,7.61251 -0.40479,0.6319 -3.090458,-0.67758 -4.158377,1.25771 -1.071379,1.93681 -1.823825,3.22117 -2.50477,3.07423 -0.680946,-0.15074 -3.772605,-1.30719 -4.339271,0.25657 -0.576213,1.563 -0.48336,4.47356 -1.779766,2.74382 -1.294074,-1.72745 -7.973836,-13.57674 -7.713172,-15.93304 0.128641,-1.1793 5.053598,-3.74421 8.446521,-7.22347 3.395255,-3.47774 5.258325,-7.8645 5.258325,-7.8645 z"
     fill="#ffb300"
     id="path1175"
     style="stroke-width:0.756571" />
  <path
     d="m 120.20076,110.03392 c 0,0 2.18448,3.60945 3.25473,8.20482 1.081,4.6715 1.05958,10.3213 1.90239,9.85004 1.68098,-0.93871 12.51927,-7.20519 12.79745,-6.50477 0.28119,0.70118 -1.04356,2.6319 -0.0925,4.62886 0.95334,2.00153 1.6097,2.23906 1.09769,2.71946 -0.512,0.47735 -3.21338,2.38219 -2.27658,3.7503 0.94432,1.36886 3.35247,2.96232 1.21197,3.04454 -2.14877,0.0891 -13.27133,-0.39817 -15.3392,-1.51047 -2.9643,-1.59041 -2.23336,-8.58929 -4.0762,-15.01641 -1.44888,-5.03237 -3.66314,-9.19378 -3.66314,-9.19378 z"
     fill="#ffb300"
     id="path1177"
     style="stroke-width:0.756571" />
  <path
     d="M 157.57397,29.833719 C 153.20124,11.372721 117.26195,9.1329131 117.0691,42.840985 c -0.075,13.769201 -4.11312,16.029504 -4.11312,16.029504 l 43.58119,13.192877 c 0,0 4.91556,-25.843385 1.0368,-42.229647 z"
     fill="#41aa54"
     id="path1179"
     style="stroke-width:0.756571" />
  <path
     d="m 156.95219,69.027957 c 0,0 8.50261,27.429989 -16.94732,39.917263 -17.89774,8.78267 -42.318096,8.82226 -57.879998,-3.15113 C 66.567631,93.823756 53.499703,66.139636 55.987813,65.539253 c 2.489295,-0.607538 6.226218,2.548465 6.226218,2.548465 0,0 -4.976218,-7.565683 -3.11311,-7.565683 1.864296,0 7.465507,5.017218 7.465507,5.017218 0,0 -4.547636,-5.779154 -1.864273,-5.017218 3.273831,0.93666 7.638138,6.695259 16.238186,7.822403 19.013169,2.4954 33.003719,-9.706611 33.003719,-9.706611 z"
     fill="#b7b19a"
     id="path1181"
     style="stroke-width:0.756571" />
  <path
     d="m 158.05214,65.339329 v 8.988146 c 0,0 -16.9571,-2.578537 -24.1906,-4.033584 -16.36893,-3.301798 -20.90586,-11.42325 -20.90586,-11.42325 l 1.90954,-6.46747 c 0,0 1.20114,5.323425 15.46198,9.422103 6.33196,1.820332 27.72494,3.514055 27.72494,3.514055 z"
     fill="#ffffff"
     id="path1183"
     style="stroke-width:0.756571" />
  <path
     d="m 136.78923,40.566141 c 3.65922,0.502704 6.08994,-1.829925 6.59292,-5.53317 0.49847,-3.703321 -1.60895,-6.662826 -5.26667,-7.169108 -3.65847,-0.501486 -6.27038,2.191554 -6.77036,5.897312 -0.49419,3.699667 1.78638,6.296247 5.44411,6.804966 z"
     fill="#ffffff"
     id="path1185"
     style="stroke-width:0.756571" />
  <path
     d="m 138.85154,35.380136 c 0.77891,0.108565 1.17513,-0.417055 1.26159,-1.033044 0.0812,-0.618426 -0.34359,-1.185005 -0.95334,-1.268218 -0.60674,-0.08436 -1.16761,0.345947 -1.24881,0.964372 -0.0857,0.614848 0.33231,1.256189 0.94056,1.33689 z"
     fill="#000000"
     id="path1187"
     style="stroke-width:0.756571" />
  <path
     d="m 95.487328,74.250124 c -11.758396,0.702781 -19.514348,-8.413192 -17.66669,-2.339861 1.841643,6.075691 8.979804,25.4963 26.056072,22.694614 17.07266,-2.802747 20.92864,-15.992046 13.62387,-22.222058 -7.21913,-6.161341 -13.34651,1.3477 -22.013252,1.867305 z"
     fill="#ccccb8"
     id="path1189"
     style="stroke-width:0.756571" />
  <path
     d="m 154.15834,43.760896 c 0,0 -0.915,2.049339 -2.46004,2.351966 -1.97133,0.383328 -3.01264,-1.177772 -3.01264,-1.177772"
     stroke="#000000"
     stroke-width="0.722525"
     stroke-linecap="round"
     id="path1191" />
</svg>
