<svg width="625" height="86" viewBox="0 0 625 86" fill="none" xmlns="http://www.w3.org/2000/svg">
<path d="M8.78416 28.6914V21.6028L2.7316 25.1842C2.33509 25.504 1.85416 25.3428 1.61626 24.9489L0.419044 22.7156C0.183695 22.3165 0.262997 21.8407 0.738811 21.6028L6.79649 18.2593L0.738811 14.7521C0.262997 14.5116 0.183695 14.0358 0.419044 13.6368L1.61626 11.4035C1.85416 11.0096 2.33509 10.8484 2.7316 11.1681L8.78416 14.8314V7.66096C8.78416 7.18003 9.10392 6.86792 9.58229 6.86792H11.9716C12.4525 6.86792 12.7672 7.18258 12.7672 7.66096L12.6853 14.8314L18.8223 11.1681C19.2188 10.8484 19.6972 11.0096 19.9351 11.4035L21.1297 13.6368C21.3702 14.0358 21.2909 14.5116 20.81 14.7521L14.76 18.2593L20.81 21.6028C21.2909 21.8407 21.3702 22.3165 21.1297 22.7156L19.9351 24.9489C19.6972 25.3428 19.2188 25.504 18.8223 25.1842L12.6853 21.6028L12.7672 28.6914C12.7672 29.1672 12.4525 29.487 11.9716 29.487H9.58229C9.10392 29.487 8.78416 29.1672 8.78416 28.6914Z" fill="#2BB673"/>
<path d="M8.78416 77.6914V70.6028L2.7316 74.1842C2.33509 74.504 1.85416 74.3428 1.61626 73.9489L0.419044 71.7156C0.183695 71.3165 0.262997 70.8407 0.738811 70.6028L6.79649 67.2593L0.738811 63.7521C0.262997 63.5116 0.183695 63.0358 0.419044 62.6368L1.61626 60.4035C1.85416 60.0096 2.33509 59.8484 2.7316 60.1681L8.78416 63.8314V56.661C8.78416 56.18 9.10392 55.8679 9.58229 55.8679H11.9716C12.4525 55.8679 12.7672 56.1826 12.7672 56.661L12.6853 63.8314L18.8223 60.1681C19.2188 59.8484 19.6972 60.0096 19.9351 60.4035L21.1297 62.6368C21.3702 63.0358 21.2909 63.5116 20.81 63.7521L14.76 67.2593L20.81 70.6028C21.2909 70.8407 21.3702 71.3165 21.1297 71.7156L19.9351 73.9489C19.6972 74.3428 19.2188 74.504 18.8223 74.1842L12.6853 70.6028L12.7672 77.6914C12.7672 78.1672 12.4525 78.487 11.9716 78.487H9.58229C9.10392 78.487 8.78416 78.1672 8.78416 77.6914Z" fill="#2BB673"/>
<path d="M46.6914 58.4023C44.8086 58.4023 43.3203 59.0312 42.2266 60.2891C41.1406 61.5391 40.5977 63.2539 40.5977 65.4336C40.5977 67.6758 41.1211 69.4102 42.168 70.6367C43.2227 71.8555 44.7227 72.4648 46.668 72.4648C47.8633 72.4648 49.2266 72.25 50.7578 71.8203V73.5664C49.5703 74.0117 48.1055 74.2344 46.3633 74.2344C43.8398 74.2344 41.8906 73.4688 40.5156 71.9375C39.1484 70.4062 38.4648 68.2305 38.4648 65.4102C38.4648 63.6445 38.793 62.0977 39.4492 60.7695C40.1133 59.4414 41.0664 58.418 42.3086 57.6992C43.5586 56.9805 45.0273 56.6211 46.7148 56.6211C48.5117 56.6211 50.082 56.9492 51.4258 57.6055L50.582 59.3164C49.2852 58.707 47.9883 58.4023 46.6914 58.4023ZM65.2891 67.5664C65.2891 69.6602 64.7617 71.2969 63.707 72.4766C62.6523 73.6484 61.1953 74.2344 59.3359 74.2344C58.1875 74.2344 57.168 73.9648 56.2773 73.4258C55.3867 72.8867 54.6992 72.1133 54.2148 71.1055C53.7305 70.0977 53.4883 68.918 53.4883 67.5664C53.4883 65.4727 54.0117 63.8438 55.0586 62.6797C56.1055 61.5078 57.5586 60.9219 59.418 60.9219C61.2148 60.9219 62.6406 61.5195 63.6953 62.7148C64.7578 63.9102 65.2891 65.5273 65.2891 67.5664ZM55.5039 67.5664C55.5039 69.207 55.832 70.457 56.4883 71.3164C57.1445 72.1758 58.1094 72.6055 59.3828 72.6055C60.6562 72.6055 61.6211 72.1797 62.2773 71.3281C62.9414 70.4688 63.2734 69.2148 63.2734 67.5664C63.2734 65.9336 62.9414 64.6953 62.2773 63.8516C61.6211 63 60.6484 62.5742 59.3594 62.5742C58.0859 62.5742 57.125 62.9922 56.4766 63.8281C55.8281 64.6641 55.5039 65.9102 55.5039 67.5664ZM74.6875 74.2344C73.8516 74.2344 73.0859 74.082 72.3906 73.7773C71.7031 73.4648 71.125 72.9883 70.6562 72.3477H70.5156C70.6094 73.0977 70.6562 73.8086 70.6562 74.4805V79.7656H68.7109V61.1562H70.293L70.5625 62.9141H70.6562C71.1562 62.2109 71.7383 61.7031 72.4023 61.3906C73.0664 61.0781 73.8281 60.9219 74.6875 60.9219C76.3906 60.9219 77.7031 61.5039 78.625 62.668C79.5547 63.832 80.0195 65.4648 80.0195 67.5664C80.0195 69.6758 79.5469 71.3164 78.6016 72.4883C77.6641 73.6523 76.3594 74.2344 74.6875 74.2344ZM74.4062 62.5742C73.0938 62.5742 72.1445 62.9375 71.5586 63.6641C70.9727 64.3906 70.6719 65.5469 70.6562 67.1328V67.5664C70.6562 69.3711 70.957 70.6641 71.5586 71.4453C72.1602 72.2188 73.125 72.6055 74.4531 72.6055C75.5625 72.6055 76.4297 72.1562 77.0547 71.2578C77.6875 70.3594 78.0039 69.1211 78.0039 67.543C78.0039 65.9414 77.6875 64.7148 77.0547 63.8633C76.4297 63.0039 75.5469 62.5742 74.4062 62.5742ZM85.375 74H83.4297V61.1562H85.375V74ZM83.2656 57.6758C83.2656 57.2305 83.375 56.9062 83.5938 56.7031C83.8125 56.4922 84.0859 56.3867 84.4141 56.3867C84.7266 56.3867 84.9961 56.4922 85.2227 56.7031C85.4492 56.9141 85.5625 57.2383 85.5625 57.6758C85.5625 58.1133 85.4492 58.4414 85.2227 58.6602C84.9961 58.8711 84.7266 58.9766 84.4141 58.9766C84.0859 58.9766 83.8125 58.8711 83.5938 58.6602C83.375 58.4414 83.2656 58.1133 83.2656 57.6758ZM97.3984 74L97.0117 72.1719H96.918C96.2773 72.9766 95.6367 73.5234 94.9961 73.8125C94.3633 74.0938 93.5703 74.2344 92.6172 74.2344C91.3438 74.2344 90.3438 73.9062 89.6172 73.25C88.8984 72.5938 88.5391 71.6602 88.5391 70.4492C88.5391 67.8555 90.6133 66.4961 94.7617 66.3711L96.9414 66.3008V65.5039C96.9414 64.4961 96.7227 63.7539 96.2852 63.2773C95.8555 62.793 95.1641 62.5508 94.2109 62.5508C93.1406 62.5508 91.9297 62.8789 90.5781 63.5352L89.9805 62.0469C90.6133 61.7031 91.3047 61.4336 92.0547 61.2383C92.8125 61.043 93.5703 60.9453 94.3281 60.9453C95.8594 60.9453 96.9922 61.2852 97.7266 61.9648C98.4688 62.6445 98.8398 63.7344 98.8398 65.2344V74H97.3984ZM93.0039 72.6289C94.2148 72.6289 95.1641 72.2969 95.8516 71.6328C96.5469 70.9688 96.8945 70.0391 96.8945 68.8438V67.6836L94.9492 67.7656C93.4023 67.8203 92.2852 68.0625 91.5977 68.4922C90.918 68.9141 90.5781 69.5742 90.5781 70.4727C90.5781 71.1758 90.7891 71.7109 91.2109 72.0781C91.6406 72.4453 92.2383 72.6289 93.0039 72.6289ZM111.039 74H109.094V55.7656H111.039V74ZM126.25 67.5664C126.25 69.6602 125.723 71.2969 124.668 72.4766C123.613 73.6484 122.156 74.2344 120.297 74.2344C119.148 74.2344 118.129 73.9648 117.238 73.4258C116.348 72.8867 115.66 72.1133 115.176 71.1055C114.691 70.0977 114.449 68.918 114.449 67.5664C114.449 65.4727 114.973 63.8438 116.02 62.6797C117.066 61.5078 118.52 60.9219 120.379 60.9219C122.176 60.9219 123.602 61.5195 124.656 62.7148C125.719 63.9102 126.25 65.5273 126.25 67.5664ZM116.465 67.5664C116.465 69.207 116.793 70.457 117.449 71.3164C118.105 72.1758 119.07 72.6055 120.344 72.6055C121.617 72.6055 122.582 72.1797 123.238 71.3281C123.902 70.4688 124.234 69.2148 124.234 67.5664C124.234 65.9336 123.902 64.6953 123.238 63.8516C122.582 63 121.609 62.5742 120.32 62.5742C119.047 62.5742 118.086 62.9922 117.438 63.8281C116.789 64.6641 116.465 65.9102 116.465 67.5664ZM137.957 70.4961C137.957 71.6914 137.512 72.6133 136.621 73.2617C135.73 73.9102 134.48 74.2344 132.871 74.2344C131.168 74.2344 129.84 73.9648 128.887 73.4258V71.6211C129.504 71.9336 130.164 72.1797 130.867 72.3594C131.578 72.5391 132.262 72.6289 132.918 72.6289C133.934 72.6289 134.715 72.4688 135.262 72.1484C135.809 71.8203 136.082 71.3242 136.082 70.6602C136.082 70.1602 135.863 69.7344 135.426 69.3828C134.996 69.0234 134.152 68.6016 132.895 68.1172C131.699 67.6719 130.848 67.2852 130.34 66.957C129.84 66.6211 129.465 66.2422 129.215 65.8203C128.973 65.3984 128.852 64.8945 128.852 64.3086C128.852 63.2617 129.277 62.4375 130.129 61.8359C130.98 61.2266 132.148 60.9219 133.633 60.9219C135.016 60.9219 136.367 61.2031 137.688 61.7656L136.996 63.3477C135.707 62.8164 134.539 62.5508 133.492 62.5508C132.57 62.5508 131.875 62.6953 131.406 62.9844C130.938 63.2734 130.703 63.6719 130.703 64.1797C130.703 64.5234 130.789 64.8164 130.961 65.0586C131.141 65.3008 131.426 65.5312 131.816 65.75C132.207 65.9688 132.957 66.2852 134.066 66.6992C135.59 67.2539 136.617 67.8125 137.148 68.375C137.688 68.9375 137.957 69.6445 137.957 70.4961ZM156.156 74V65.6914C156.156 64.6445 155.918 63.8633 155.441 63.3477C154.965 62.832 154.219 62.5742 153.203 62.5742C151.859 62.5742 150.875 62.9375 150.25 63.6641C149.625 64.3906 149.312 65.5898 149.312 67.2617V74H147.367V61.1562H148.949L149.266 62.9141H149.359C149.758 62.2812 150.316 61.793 151.035 61.4492C151.754 61.0977 152.555 60.9219 153.438 60.9219C154.984 60.9219 156.148 61.2969 156.93 62.0469C157.711 62.7891 158.102 63.9805 158.102 65.6211V74H156.156ZM173.195 67.5664C173.195 69.6602 172.668 71.2969 171.613 72.4766C170.559 73.6484 169.102 74.2344 167.242 74.2344C166.094 74.2344 165.074 73.9648 164.184 73.4258C163.293 72.8867 162.605 72.1133 162.121 71.1055C161.637 70.0977 161.395 68.918 161.395 67.5664C161.395 65.4727 161.918 63.8438 162.965 62.6797C164.012 61.5078 165.465 60.9219 167.324 60.9219C169.121 60.9219 170.547 61.5195 171.602 62.7148C172.664 63.9102 173.195 65.5273 173.195 67.5664ZM163.41 67.5664C163.41 69.207 163.738 70.457 164.395 71.3164C165.051 72.1758 166.016 72.6055 167.289 72.6055C168.562 72.6055 169.527 72.1797 170.184 71.3281C170.848 70.4688 171.18 69.2148 171.18 67.5664C171.18 65.9336 170.848 64.6953 170.184 63.8516C169.527 63 168.555 62.5742 167.266 62.5742C165.992 62.5742 165.031 62.9922 164.383 63.8281C163.734 64.6641 163.41 65.9102 163.41 67.5664ZM192.988 74V65.6445C192.988 64.6211 192.77 63.8555 192.332 63.3477C191.895 62.832 191.215 62.5742 190.293 62.5742C189.082 62.5742 188.188 62.9219 187.609 63.6172C187.031 64.3125 186.742 65.3828 186.742 66.8281V74H184.797V65.6445C184.797 64.6211 184.578 63.8555 184.141 63.3477C183.703 62.832 183.02 62.5742 182.09 62.5742C180.871 62.5742 179.977 62.9414 179.406 63.6758C178.844 64.4023 178.562 65.5977 178.562 67.2617V74H176.617V61.1562H178.199L178.516 62.9141H178.609C178.977 62.2891 179.492 61.8008 180.156 61.4492C180.828 61.0977 181.578 60.9219 182.406 60.9219C184.414 60.9219 185.727 61.6484 186.344 63.1016H186.438C186.82 62.4297 187.375 61.8984 188.102 61.5078C188.828 61.1172 189.656 60.9219 190.586 60.9219C192.039 60.9219 193.125 61.2969 193.844 62.0469C194.57 62.7891 194.934 63.9805 194.934 65.6211V74H192.988ZM204.93 60.9453C206.617 60.9453 207.926 61.5234 208.855 62.6797C209.793 63.8281 210.262 65.457 210.262 67.5664C210.262 69.6758 209.789 71.3164 208.844 72.4883C207.906 73.6523 206.602 74.2344 204.93 74.2344C204.094 74.2344 203.328 74.082 202.633 73.7773C201.945 73.4648 201.367 72.9883 200.898 72.3477H200.758L200.348 74H198.953V55.7656H200.898V60.1953C200.898 61.1875 200.867 62.0781 200.805 62.8672H200.898C201.805 61.5859 203.148 60.9453 204.93 60.9453ZM204.648 62.5742C203.32 62.5742 202.363 62.957 201.777 63.7227C201.191 64.4805 200.898 65.7617 200.898 67.5664C200.898 69.3711 201.199 70.6641 201.801 71.4453C202.402 72.2188 203.367 72.6055 204.695 72.6055C205.891 72.6055 206.781 72.1719 207.367 71.3047C207.953 70.4297 208.246 69.1758 208.246 67.543C208.246 65.8711 207.953 64.625 207.367 63.8047C206.781 62.9844 205.875 62.5742 204.648 62.5742ZM219.531 60.9219C220.102 60.9219 220.613 60.9688 221.066 61.0625L220.797 62.8672C220.266 62.75 219.797 62.6914 219.391 62.6914C218.352 62.6914 217.461 63.1133 216.719 63.957C215.984 64.8008 215.617 65.8516 215.617 67.1094V74H213.672V61.1562H215.277L215.5 63.5352H215.594C216.07 62.6992 216.645 62.0547 217.316 61.6016C217.988 61.1484 218.727 60.9219 219.531 60.9219ZM228.895 74.2344C226.996 74.2344 225.496 73.6562 224.395 72.5C223.301 71.3438 222.754 69.7383 222.754 67.6836C222.754 65.6133 223.262 63.9688 224.277 62.75C225.301 61.5312 226.672 60.9219 228.391 60.9219C230 60.9219 231.273 61.4531 232.211 62.5156C233.148 63.5703 233.617 64.9648 233.617 66.6992V67.9297H224.77C224.809 69.4375 225.188 70.582 225.906 71.3633C226.633 72.1445 227.652 72.5352 228.965 72.5352C230.348 72.5352 231.715 72.2461 233.066 71.668V73.4023C232.379 73.6992 231.727 73.9102 231.109 74.0352C230.5 74.168 229.762 74.2344 228.895 74.2344ZM228.367 62.5508C227.336 62.5508 226.512 62.8867 225.895 63.5586C225.285 64.2305 224.926 65.1602 224.816 66.3477H231.531C231.531 65.1211 231.258 64.1836 230.711 63.5352C230.164 62.8789 229.383 62.5508 228.367 62.5508ZM245.23 70.4961C245.23 71.6914 244.785 72.6133 243.895 73.2617C243.004 73.9102 241.754 74.2344 240.145 74.2344C238.441 74.2344 237.113 73.9648 236.16 73.4258V71.6211C236.777 71.9336 237.438 72.1797 238.141 72.3594C238.852 72.5391 239.535 72.6289 240.191 72.6289C241.207 72.6289 241.988 72.4688 242.535 72.1484C243.082 71.8203 243.355 71.3242 243.355 70.6602C243.355 70.1602 243.137 69.7344 242.699 69.3828C242.27 69.0234 241.426 68.6016 240.168 68.1172C238.973 67.6719 238.121 67.2852 237.613 66.957C237.113 66.6211 236.738 66.2422 236.488 65.8203C236.246 65.3984 236.125 64.8945 236.125 64.3086C236.125 63.2617 236.551 62.4375 237.402 61.8359C238.254 61.2266 239.422 60.9219 240.906 60.9219C242.289 60.9219 243.641 61.2031 244.961 61.7656L244.27 63.3477C242.98 62.8164 241.812 62.5508 240.766 62.5508C239.844 62.5508 239.148 62.6953 238.68 62.9844C238.211 63.2734 237.977 63.6719 237.977 64.1797C237.977 64.5234 238.062 64.8164 238.234 65.0586C238.414 65.3008 238.699 65.5312 239.09 65.75C239.48 65.9688 240.23 66.2852 241.34 66.6992C242.863 67.2539 243.891 67.8125 244.422 68.375C244.961 68.9375 245.23 69.6445 245.23 70.4961ZM262.539 74L262.152 72.1719H262.059C261.418 72.9766 260.777 73.5234 260.137 73.8125C259.504 74.0938 258.711 74.2344 257.758 74.2344C256.484 74.2344 255.484 73.9062 254.758 73.25C254.039 72.5938 253.68 71.6602 253.68 70.4492C253.68 67.8555 255.754 66.4961 259.902 66.3711L262.082 66.3008V65.5039C262.082 64.4961 261.863 63.7539 261.426 63.2773C260.996 62.793 260.305 62.5508 259.352 62.5508C258.281 62.5508 257.07 62.8789 255.719 63.5352L255.121 62.0469C255.754 61.7031 256.445 61.4336 257.195 61.2383C257.953 61.043 258.711 60.9453 259.469 60.9453C261 60.9453 262.133 61.2852 262.867 61.9648C263.609 62.6445 263.98 63.7344 263.98 65.2344V74H262.539ZM258.145 72.6289C259.355 72.6289 260.305 72.2969 260.992 71.6328C261.688 70.9688 262.035 70.0391 262.035 68.8438V67.6836L260.09 67.7656C258.543 67.8203 257.426 68.0625 256.738 68.4922C256.059 68.9141 255.719 69.5742 255.719 70.4727C255.719 71.1758 255.93 71.7109 256.352 72.0781C256.781 72.4453 257.379 72.6289 258.145 72.6289ZM273.977 60.9453C275.664 60.9453 276.973 61.5234 277.902 62.6797C278.84 63.8281 279.309 65.457 279.309 67.5664C279.309 69.6758 278.836 71.3164 277.891 72.4883C276.953 73.6523 275.648 74.2344 273.977 74.2344C273.141 74.2344 272.375 74.082 271.68 73.7773C270.992 73.4648 270.414 72.9883 269.945 72.3477H269.805L269.395 74H268V55.7656H269.945V60.1953C269.945 61.1875 269.914 62.0781 269.852 62.8672H269.945C270.852 61.5859 272.195 60.9453 273.977 60.9453ZM273.695 62.5742C272.367 62.5742 271.41 62.957 270.824 63.7227C270.238 64.4805 269.945 65.7617 269.945 67.5664C269.945 69.3711 270.246 70.6641 270.848 71.4453C271.449 72.2188 272.414 72.6055 273.742 72.6055C274.938 72.6055 275.828 72.1719 276.414 71.3047C277 70.4297 277.293 69.1758 277.293 67.543C277.293 65.8711 277 64.625 276.414 63.8047C275.828 62.9844 274.922 62.5742 273.695 62.5742ZM290.617 74L290.23 72.1719H290.137C289.496 72.9766 288.855 73.5234 288.215 73.8125C287.582 74.0938 286.789 74.2344 285.836 74.2344C284.562 74.2344 283.562 73.9062 282.836 73.25C282.117 72.5938 281.758 71.6602 281.758 70.4492C281.758 67.8555 283.832 66.4961 287.98 66.3711L290.16 66.3008V65.5039C290.16 64.4961 289.941 63.7539 289.504 63.2773C289.074 62.793 288.383 62.5508 287.43 62.5508C286.359 62.5508 285.148 62.8789 283.797 63.5352L283.199 62.0469C283.832 61.7031 284.523 61.4336 285.273 61.2383C286.031 61.043 286.789 60.9453 287.547 60.9453C289.078 60.9453 290.211 61.2852 290.945 61.9648C291.688 62.6445 292.059 63.7344 292.059 65.2344V74H290.617ZM286.223 72.6289C287.434 72.6289 288.383 72.2969 289.07 71.6328C289.766 70.9688 290.113 70.0391 290.113 68.8438V67.6836L288.168 67.7656C286.621 67.8203 285.504 68.0625 284.816 68.4922C284.137 68.9141 283.797 69.5742 283.797 70.4727C283.797 71.1758 284.008 71.7109 284.43 72.0781C284.859 72.4453 285.457 72.6289 286.223 72.6289ZM294.52 79.7656C293.777 79.7656 293.176 79.668 292.715 79.4727V77.8906C293.254 78.0469 293.785 78.125 294.309 78.125C294.918 78.125 295.363 77.957 295.645 77.6211C295.934 77.293 296.078 76.7891 296.078 76.1094V61.1562H298.023V75.9688C298.023 78.5 296.855 79.7656 294.52 79.7656ZM295.914 57.6758C295.914 57.2305 296.023 56.9062 296.242 56.7031C296.461 56.4922 296.734 56.3867 297.062 56.3867C297.375 56.3867 297.645 56.4922 297.871 56.7031C298.098 56.9141 298.211 57.2383 298.211 57.6758C298.211 58.1133 298.098 58.4414 297.871 58.6602C297.645 58.8711 297.375 58.9766 297.062 58.9766C296.734 58.9766 296.461 58.8711 296.242 58.6602C296.023 58.4414 295.914 58.1133 295.914 57.6758ZM313.234 67.5664C313.234 69.6602 312.707 71.2969 311.652 72.4766C310.598 73.6484 309.141 74.2344 307.281 74.2344C306.133 74.2344 305.113 73.9648 304.223 73.4258C303.332 72.8867 302.645 72.1133 302.16 71.1055C301.676 70.0977 301.434 68.918 301.434 67.5664C301.434 65.4727 301.957 63.8438 303.004 62.6797C304.051 61.5078 305.504 60.9219 307.363 60.9219C309.16 60.9219 310.586 61.5195 311.641 62.7148C312.703 63.9102 313.234 65.5273 313.234 67.5664ZM303.449 67.5664C303.449 69.207 303.777 70.457 304.434 71.3164C305.09 72.1758 306.055 72.6055 307.328 72.6055C308.602 72.6055 309.566 72.1797 310.223 71.3281C310.887 70.4688 311.219 69.2148 311.219 67.5664C311.219 65.9336 310.887 64.6953 310.223 63.8516C309.566 63 308.594 62.5742 307.305 62.5742C306.031 62.5742 305.07 62.9922 304.422 63.8281C303.773 64.6641 303.449 65.9102 303.449 67.5664ZM316.375 72.7578C316.375 72.2344 316.492 71.8398 316.727 71.5742C316.969 71.3008 317.312 71.1641 317.758 71.1641C318.211 71.1641 318.562 71.3008 318.812 71.5742C319.07 71.8398 319.199 72.2344 319.199 72.7578C319.199 73.2656 319.07 73.6562 318.812 73.9297C318.555 74.2031 318.203 74.3398 317.758 74.3398C317.359 74.3398 317.027 74.2188 316.762 73.9766C316.504 73.7266 316.375 73.3203 316.375 72.7578Z" fill="black"/>
<path d="M49.6914 10.4023C47.8086 10.4023 46.3203 11.0312 45.2266 12.2891C44.1406 13.5391 43.5977 15.2539 43.5977 17.4336C43.5977 19.6758 44.1211 21.4102 45.168 22.6367C46.2227 23.8555 47.7227 24.4648 49.668 24.4648C50.8633 24.4648 52.2266 24.25 53.7578 23.8203V25.5664C52.5703 26.0117 51.1055 26.2344 49.3633 26.2344C46.8398 26.2344 44.8906 25.4688 43.5156 23.9375C42.1484 22.4062 41.4648 20.2305 41.4648 17.4102C41.4648 15.6445 41.793 14.0977 42.4492 12.7695C43.1133 11.4414 44.0664 10.418 45.3086 9.69922C46.5586 8.98047 48.0273 8.62109 49.7148 8.62109C51.5117 8.62109 53.082 8.94922 54.4258 9.60547L53.582 11.3164C52.2852 10.707 50.9883 10.4023 49.6914 10.4023ZM68.2891 19.5664C68.2891 21.6602 67.7617 23.2969 66.707 24.4766C65.6523 25.6484 64.1953 26.2344 62.3359 26.2344C61.1875 26.2344 60.168 25.9648 59.2773 25.4258C58.3867 24.8867 57.6992 24.1133 57.2148 23.1055C56.7305 22.0977 56.4883 20.918 56.4883 19.5664C56.4883 17.4727 57.0117 15.8438 58.0586 14.6797C59.1055 13.5078 60.5586 12.9219 62.418 12.9219C64.2148 12.9219 65.6406 13.5195 66.6953 14.7148C67.7578 15.9102 68.2891 17.5273 68.2891 19.5664ZM58.5039 19.5664C58.5039 21.207 58.832 22.457 59.4883 23.3164C60.1445 24.1758 61.1094 24.6055 62.3828 24.6055C63.6562 24.6055 64.6211 24.1797 65.2773 23.3281C65.9414 22.4688 66.2734 21.2148 66.2734 19.5664C66.2734 17.9336 65.9414 16.6953 65.2773 15.8516C64.6211 15 63.6484 14.5742 62.3594 14.5742C61.0859 14.5742 60.125 14.9922 59.4766 15.8281C58.8281 16.6641 58.5039 17.9102 58.5039 19.5664ZM88.082 26V17.6445C88.082 16.6211 87.8633 15.8555 87.4258 15.3477C86.9883 14.832 86.3086 14.5742 85.3867 14.5742C84.1758 14.5742 83.2812 14.9219 82.7031 15.6172C82.125 16.3125 81.8359 17.3828 81.8359 18.8281V26H79.8906V17.6445C79.8906 16.6211 79.6719 15.8555 79.2344 15.3477C78.7969 14.832 78.1133 14.5742 77.1836 14.5742C75.9648 14.5742 75.0703 14.9414 74.5 15.6758C73.9375 16.4023 73.6562 17.5977 73.6562 19.2617V26H71.7109V13.1562H73.293L73.6094 14.9141H73.7031C74.0703 14.2891 74.5859 13.8008 75.25 13.4492C75.9219 13.0977 76.6719 12.9219 77.5 12.9219C79.5078 12.9219 80.8203 13.6484 81.4375 15.1016H81.5312C81.9141 14.4297 82.4688 13.8984 83.1953 13.5078C83.9219 13.1172 84.75 12.9219 85.6797 12.9219C87.1328 12.9219 88.2188 13.2969 88.9375 14.0469C89.6641 14.7891 90.0273 15.9805 90.0273 17.6211V26H88.082ZM100.023 26.2344C99.1875 26.2344 98.4219 26.082 97.7266 25.7773C97.0391 25.4648 96.4609 24.9883 95.9922 24.3477H95.8516C95.9453 25.0977 95.9922 25.8086 95.9922 26.4805V31.7656H94.0469V13.1562H95.6289L95.8984 14.9141H95.9922C96.4922 14.2109 97.0742 13.7031 97.7383 13.3906C98.4023 13.0781 99.1641 12.9219 100.023 12.9219C101.727 12.9219 103.039 13.5039 103.961 14.668C104.891 15.832 105.355 17.4648 105.355 19.5664C105.355 21.6758 104.883 23.3164 103.938 24.4883C103 25.6523 101.695 26.2344 100.023 26.2344ZM99.7422 14.5742C98.4297 14.5742 97.4805 14.9375 96.8945 15.6641C96.3086 16.3906 96.0078 17.5469 95.9922 19.1328V19.5664C95.9922 21.3711 96.293 22.6641 96.8945 23.4453C97.4961 24.2188 98.4609 24.6055 99.7891 24.6055C100.898 24.6055 101.766 24.1562 102.391 23.2578C103.023 22.3594 103.34 21.1211 103.34 19.543C103.34 17.9414 103.023 16.7148 102.391 15.8633C101.766 15.0039 100.883 14.5742 99.7422 14.5742ZM110.711 26H108.766V7.76562H110.711V26ZM120.262 26.2344C118.363 26.2344 116.863 25.6562 115.762 24.5C114.668 23.3438 114.121 21.7383 114.121 19.6836C114.121 17.6133 114.629 15.9688 115.645 14.75C116.668 13.5312 118.039 12.9219 119.758 12.9219C121.367 12.9219 122.641 13.4531 123.578 14.5156C124.516 15.5703 124.984 16.9648 124.984 18.6992V19.9297H116.137C116.176 21.4375 116.555 22.582 117.273 23.3633C118 24.1445 119.02 24.5352 120.332 24.5352C121.715 24.5352 123.082 24.2461 124.434 23.668V25.4023C123.746 25.6992 123.094 25.9102 122.477 26.0352C121.867 26.168 121.129 26.2344 120.262 26.2344ZM119.734 14.5508C118.703 14.5508 117.879 14.8867 117.262 15.5586C116.652 16.2305 116.293 17.1602 116.184 18.3477H122.898C122.898 17.1211 122.625 16.1836 122.078 15.5352C121.531 14.8789 120.75 14.5508 119.734 14.5508ZM132.461 24.6289C132.805 24.6289 133.137 24.6055 133.457 24.5586C133.777 24.5039 134.031 24.4492 134.219 24.3945V25.8828C134.008 25.9844 133.695 26.0664 133.281 26.1289C132.875 26.1992 132.508 26.2344 132.18 26.2344C129.695 26.2344 128.453 24.9258 128.453 22.3086V14.668H126.613V13.7305L128.453 12.9219L129.273 10.1797H130.398V13.1562H134.125V14.668H130.398V22.2266C130.398 23 130.582 23.5938 130.949 24.0078C131.316 24.4219 131.82 24.6289 132.461 24.6289ZM144.695 26L144.309 24.1719H144.215C143.574 24.9766 142.934 25.5234 142.293 25.8125C141.66 26.0938 140.867 26.2344 139.914 26.2344C138.641 26.2344 137.641 25.9062 136.914 25.25C136.195 24.5938 135.836 23.6602 135.836 22.4492C135.836 19.8555 137.91 18.4961 142.059 18.3711L144.238 18.3008V17.5039C144.238 16.4961 144.02 15.7539 143.582 15.2773C143.152 14.793 142.461 14.5508 141.508 14.5508C140.438 14.5508 139.227 14.8789 137.875 15.5352L137.277 14.0469C137.91 13.7031 138.602 13.4336 139.352 13.2383C140.109 13.043 140.867 12.9453 141.625 12.9453C143.156 12.9453 144.289 13.2852 145.023 13.9648C145.766 14.6445 146.137 15.7344 146.137 17.2344V26H144.695ZM140.301 24.6289C141.512 24.6289 142.461 24.2969 143.148 23.6328C143.844 22.9688 144.191 22.0391 144.191 20.8438V19.6836L142.246 19.7656C140.699 19.8203 139.582 20.0625 138.895 20.4922C138.215 20.9141 137.875 21.5742 137.875 22.4727C137.875 23.1758 138.086 23.7109 138.508 24.0781C138.938 24.4453 139.535 24.6289 140.301 24.6289ZM158.336 26H156.391V7.76562H158.336V26ZM173.547 19.5664C173.547 21.6602 173.02 23.2969 171.965 24.4766C170.91 25.6484 169.453 26.2344 167.594 26.2344C166.445 26.2344 165.426 25.9648 164.535 25.4258C163.645 24.8867 162.957 24.1133 162.473 23.1055C161.988 22.0977 161.746 20.918 161.746 19.5664C161.746 17.4727 162.27 15.8438 163.316 14.6797C164.363 13.5078 165.816 12.9219 167.676 12.9219C169.473 12.9219 170.898 13.5195 171.953 14.7148C173.016 15.9102 173.547 17.5273 173.547 19.5664ZM163.762 19.5664C163.762 21.207 164.09 22.457 164.746 23.3164C165.402 24.1758 166.367 24.6055 167.641 24.6055C168.914 24.6055 169.879 24.1797 170.535 23.3281C171.199 22.4688 171.531 21.2148 171.531 19.5664C171.531 17.9336 171.199 16.6953 170.535 15.8516C169.879 15 168.906 14.5742 167.617 14.5742C166.344 14.5742 165.383 14.9922 164.734 15.8281C164.086 16.6641 163.762 17.9102 163.762 19.5664ZM185.254 22.4961C185.254 23.6914 184.809 24.6133 183.918 25.2617C183.027 25.9102 181.777 26.2344 180.168 26.2344C178.465 26.2344 177.137 25.9648 176.184 25.4258V23.6211C176.801 23.9336 177.461 24.1797 178.164 24.3594C178.875 24.5391 179.559 24.6289 180.215 24.6289C181.23 24.6289 182.012 24.4688 182.559 24.1484C183.105 23.8203 183.379 23.3242 183.379 22.6602C183.379 22.1602 183.16 21.7344 182.723 21.3828C182.293 21.0234 181.449 20.6016 180.191 20.1172C178.996 19.6719 178.145 19.2852 177.637 18.957C177.137 18.6211 176.762 18.2422 176.512 17.8203C176.27 17.3984 176.148 16.8945 176.148 16.3086C176.148 15.2617 176.574 14.4375 177.426 13.8359C178.277 13.2266 179.445 12.9219 180.93 12.9219C182.312 12.9219 183.664 13.2031 184.984 13.7656L184.293 15.3477C183.004 14.8164 181.836 14.5508 180.789 14.5508C179.867 14.5508 179.172 14.6953 178.703 14.9844C178.234 15.2734 178 15.6719 178 16.1797C178 16.5234 178.086 16.8164 178.258 17.0586C178.438 17.3008 178.723 17.5312 179.113 17.75C179.504 17.9688 180.254 18.2852 181.363 18.6992C182.887 19.2539 183.914 19.8125 184.445 20.375C184.984 20.9375 185.254 21.6445 185.254 22.4961ZM203.453 26V17.6914C203.453 16.6445 203.215 15.8633 202.738 15.3477C202.262 14.832 201.516 14.5742 200.5 14.5742C199.156 14.5742 198.172 14.9375 197.547 15.6641C196.922 16.3906 196.609 17.5898 196.609 19.2617V26H194.664V13.1562H196.246L196.562 14.9141H196.656C197.055 14.2812 197.613 13.793 198.332 13.4492C199.051 13.0977 199.852 12.9219 200.734 12.9219C202.281 12.9219 203.445 13.2969 204.227 14.0469C205.008 14.7891 205.398 15.9805 205.398 17.6211V26H203.453ZM220.492 19.5664C220.492 21.6602 219.965 23.2969 218.91 24.4766C217.855 25.6484 216.398 26.2344 214.539 26.2344C213.391 26.2344 212.371 25.9648 211.48 25.4258C210.59 24.8867 209.902 24.1133 209.418 23.1055C208.934 22.0977 208.691 20.918 208.691 19.5664C208.691 17.4727 209.215 15.8438 210.262 14.6797C211.309 13.5078 212.762 12.9219 214.621 12.9219C216.418 12.9219 217.844 13.5195 218.898 14.7148C219.961 15.9102 220.492 17.5273 220.492 19.5664ZM210.707 19.5664C210.707 21.207 211.035 22.457 211.691 23.3164C212.348 24.1758 213.312 24.6055 214.586 24.6055C215.859 24.6055 216.824 24.1797 217.48 23.3281C218.145 22.4688 218.477 21.2148 218.477 19.5664C218.477 17.9336 218.145 16.6953 217.48 15.8516C216.824 15 215.852 14.5742 214.562 14.5742C213.289 14.5742 212.328 14.9922 211.68 15.8281C211.031 16.6641 210.707 17.9102 210.707 19.5664ZM240.285 26V17.6445C240.285 16.6211 240.066 15.8555 239.629 15.3477C239.191 14.832 238.512 14.5742 237.59 14.5742C236.379 14.5742 235.484 14.9219 234.906 15.6172C234.328 16.3125 234.039 17.3828 234.039 18.8281V26H232.094V17.6445C232.094 16.6211 231.875 15.8555 231.438 15.3477C231 14.832 230.316 14.5742 229.387 14.5742C228.168 14.5742 227.273 14.9414 226.703 15.6758C226.141 16.4023 225.859 17.5977 225.859 19.2617V26H223.914V13.1562H225.496L225.812 14.9141H225.906C226.273 14.2891 226.789 13.8008 227.453 13.4492C228.125 13.0977 228.875 12.9219 229.703 12.9219C231.711 12.9219 233.023 13.6484 233.641 15.1016H233.734C234.117 14.4297 234.672 13.8984 235.398 13.5078C236.125 13.1172 236.953 12.9219 237.883 12.9219C239.336 12.9219 240.422 13.2969 241.141 14.0469C241.867 14.7891 242.23 15.9805 242.23 17.6211V26H240.285ZM252.227 12.9453C253.914 12.9453 255.223 13.5234 256.152 14.6797C257.09 15.8281 257.559 17.457 257.559 19.5664C257.559 21.6758 257.086 23.3164 256.141 24.4883C255.203 25.6523 253.898 26.2344 252.227 26.2344C251.391 26.2344 250.625 26.082 249.93 25.7773C249.242 25.4648 248.664 24.9883 248.195 24.3477H248.055L247.645 26H246.25V7.76562H248.195V12.1953C248.195 13.1875 248.164 14.0781 248.102 14.8672H248.195C249.102 13.5859 250.445 12.9453 252.227 12.9453ZM251.945 14.5742C250.617 14.5742 249.66 14.957 249.074 15.7227C248.488 16.4805 248.195 17.7617 248.195 19.5664C248.195 21.3711 248.496 22.6641 249.098 23.4453C249.699 24.2188 250.664 24.6055 251.992 24.6055C253.188 24.6055 254.078 24.1719 254.664 23.3047C255.25 22.4297 255.543 21.1758 255.543 19.543C255.543 17.8711 255.25 16.625 254.664 15.8047C254.078 14.9844 253.172 14.5742 251.945 14.5742ZM266.828 12.9219C267.398 12.9219 267.91 12.9688 268.363 13.0625L268.094 14.8672C267.562 14.75 267.094 14.6914 266.688 14.6914C265.648 14.6914 264.758 15.1133 264.016 15.957C263.281 16.8008 262.914 17.8516 262.914 19.1094V26H260.969V13.1562H262.574L262.797 15.5352H262.891C263.367 14.6992 263.941 14.0547 264.613 13.6016C265.285 13.1484 266.023 12.9219 266.828 12.9219ZM276.191 26.2344C274.293 26.2344 272.793 25.6562 271.691 24.5C270.598 23.3438 270.051 21.7383 270.051 19.6836C270.051 17.6133 270.559 15.9688 271.574 14.75C272.598 13.5312 273.969 12.9219 275.688 12.9219C277.297 12.9219 278.57 13.4531 279.508 14.5156C280.445 15.5703 280.914 16.9648 280.914 18.6992V19.9297H272.066C272.105 21.4375 272.484 22.582 273.203 23.3633C273.93 24.1445 274.949 24.5352 276.262 24.5352C277.645 24.5352 279.012 24.2461 280.363 23.668V25.4023C279.676 25.6992 279.023 25.9102 278.406 26.0352C277.797 26.168 277.059 26.2344 276.191 26.2344ZM275.664 14.5508C274.633 14.5508 273.809 14.8867 273.191 15.5586C272.582 16.2305 272.223 17.1602 272.113 18.3477H278.828C278.828 17.1211 278.555 16.1836 278.008 15.5352C277.461 14.8789 276.68 14.5508 275.664 14.5508ZM292.527 22.4961C292.527 23.6914 292.082 24.6133 291.191 25.2617C290.301 25.9102 289.051 26.2344 287.441 26.2344C285.738 26.2344 284.41 25.9648 283.457 25.4258V23.6211C284.074 23.9336 284.734 24.1797 285.438 24.3594C286.148 24.5391 286.832 24.6289 287.488 24.6289C288.504 24.6289 289.285 24.4688 289.832 24.1484C290.379 23.8203 290.652 23.3242 290.652 22.6602C290.652 22.1602 290.434 21.7344 289.996 21.3828C289.566 21.0234 288.723 20.6016 287.465 20.1172C286.27 19.6719 285.418 19.2852 284.91 18.957C284.41 18.6211 284.035 18.2422 283.785 17.8203C283.543 17.3984 283.422 16.8945 283.422 16.3086C283.422 15.2617 283.848 14.4375 284.699 13.8359C285.551 13.2266 286.719 12.9219 288.203 12.9219C289.586 12.9219 290.938 13.2031 292.258 13.7656L291.566 15.3477C290.277 14.8164 289.109 14.5508 288.062 14.5508C287.141 14.5508 286.445 14.6953 285.977 14.9844C285.508 15.2734 285.273 15.6719 285.273 16.1797C285.273 16.5234 285.359 16.8164 285.531 17.0586C285.711 17.3008 285.996 17.5312 286.387 17.75C286.777 17.9688 287.527 18.2852 288.637 18.6992C290.16 19.2539 291.188 19.8125 291.719 20.375C292.258 20.9375 292.527 21.6445 292.527 22.4961ZM307.07 26.2344C305.211 26.2344 303.77 25.6641 302.746 24.5234C301.73 23.375 301.223 21.7539 301.223 19.6602C301.223 17.5117 301.738 15.8516 302.77 14.6797C303.809 13.5078 305.285 12.9219 307.199 12.9219C307.816 12.9219 308.434 12.9883 309.051 13.1211C309.668 13.2539 310.152 13.4102 310.504 13.5898L309.906 15.2422C309.477 15.0703 309.008 14.9297 308.5 14.8203C307.992 14.7031 307.543 14.6445 307.152 14.6445C304.543 14.6445 303.238 16.3086 303.238 19.6367C303.238 21.2148 303.555 22.4258 304.188 23.2695C304.828 24.1133 305.773 24.5352 307.023 24.5352C308.094 24.5352 309.191 24.3047 310.316 23.8438V25.5664C309.457 26.0117 308.375 26.2344 307.07 26.2344ZM324.461 19.5664C324.461 21.6602 323.934 23.2969 322.879 24.4766C321.824 25.6484 320.367 26.2344 318.508 26.2344C317.359 26.2344 316.34 25.9648 315.449 25.4258C314.559 24.8867 313.871 24.1133 313.387 23.1055C312.902 22.0977 312.66 20.918 312.66 19.5664C312.66 17.4727 313.184 15.8438 314.23 14.6797C315.277 13.5078 316.73 12.9219 318.59 12.9219C320.387 12.9219 321.812 13.5195 322.867 14.7148C323.93 15.9102 324.461 17.5273 324.461 19.5664ZM314.676 19.5664C314.676 21.207 315.004 22.457 315.66 23.3164C316.316 24.1758 317.281 24.6055 318.555 24.6055C319.828 24.6055 320.793 24.1797 321.449 23.3281C322.113 22.4688 322.445 21.2148 322.445 19.5664C322.445 17.9336 322.113 16.6953 321.449 15.8516C320.793 15 319.82 14.5742 318.531 14.5742C317.258 14.5742 316.297 14.9922 315.648 15.8281C315 16.6641 314.676 17.9102 314.676 19.5664ZM336.672 26V17.6914C336.672 16.6445 336.434 15.8633 335.957 15.3477C335.48 14.832 334.734 14.5742 333.719 14.5742C332.375 14.5742 331.391 14.9375 330.766 15.6641C330.141 16.3906 329.828 17.5898 329.828 19.2617V26H327.883V13.1562H329.465L329.781 14.9141H329.875C330.273 14.2812 330.832 13.793 331.551 13.4492C332.27 13.0977 333.07 12.9219 333.953 12.9219C335.5 12.9219 336.664 13.2969 337.445 14.0469C338.227 14.7891 338.617 15.9805 338.617 17.6211V26H336.672ZM350.805 26H348.859V7.76562H350.805V26ZM362.828 26L362.441 24.1719H362.348C361.707 24.9766 361.066 25.5234 360.426 25.8125C359.793 26.0938 359 26.2344 358.047 26.2344C356.773 26.2344 355.773 25.9062 355.047 25.25C354.328 24.5938 353.969 23.6602 353.969 22.4492C353.969 19.8555 356.043 18.4961 360.191 18.3711L362.371 18.3008V17.5039C362.371 16.4961 362.152 15.7539 361.715 15.2773C361.285 14.793 360.594 14.5508 359.641 14.5508C358.57 14.5508 357.359 14.8789 356.008 15.5352L355.41 14.0469C356.043 13.7031 356.734 13.4336 357.484 13.2383C358.242 13.043 359 12.9453 359.758 12.9453C361.289 12.9453 362.422 13.2852 363.156 13.9648C363.898 14.6445 364.27 15.7344 364.27 17.2344V26H362.828ZM358.434 24.6289C359.645 24.6289 360.594 24.2969 361.281 23.6328C361.977 22.9688 362.324 22.0391 362.324 20.8438V19.6836L360.379 19.7656C358.832 19.8203 357.715 20.0625 357.027 20.4922C356.348 20.9141 356.008 21.5742 356.008 22.4727C356.008 23.1758 356.219 23.7109 356.641 24.0781C357.07 24.4453 357.668 24.6289 358.434 24.6289ZM376.469 26H374.523V7.76562H376.469V26ZM386.02 26.2344C384.121 26.2344 382.621 25.6562 381.52 24.5C380.426 23.3438 379.879 21.7383 379.879 19.6836C379.879 17.6133 380.387 15.9688 381.402 14.75C382.426 13.5312 383.797 12.9219 385.516 12.9219C387.125 12.9219 388.398 13.4531 389.336 14.5156C390.273 15.5703 390.742 16.9648 390.742 18.6992V19.9297H381.895C381.934 21.4375 382.312 22.582 383.031 23.3633C383.758 24.1445 384.777 24.5352 386.09 24.5352C387.473 24.5352 388.84 24.2461 390.191 23.668V25.4023C389.504 25.6992 388.852 25.9102 388.234 26.0352C387.625 26.168 386.887 26.2344 386.02 26.2344ZM385.492 14.5508C384.461 14.5508 383.637 14.8867 383.02 15.5586C382.41 16.2305 382.051 17.1602 381.941 18.3477H388.656C388.656 17.1211 388.383 16.1836 387.836 15.5352C387.289 14.8789 386.508 14.5508 385.492 14.5508ZM398.219 24.6289C398.562 24.6289 398.895 24.6055 399.215 24.5586C399.535 24.5039 399.789 24.4492 399.977 24.3945V25.8828C399.766 25.9844 399.453 26.0664 399.039 26.1289C398.633 26.1992 398.266 26.2344 397.938 26.2344C395.453 26.2344 394.211 24.9258 394.211 22.3086V14.668H392.371V13.7305L394.211 12.9219L395.031 10.1797H396.156V13.1562H399.883V14.668H396.156V22.2266C396.156 23 396.34 23.5938 396.707 24.0078C397.074 24.4219 397.578 24.6289 398.219 24.6289ZM408.414 12.9219C408.984 12.9219 409.496 12.9688 409.949 13.0625L409.68 14.8672C409.148 14.75 408.68 14.6914 408.273 14.6914C407.234 14.6914 406.344 15.1133 405.602 15.957C404.867 16.8008 404.5 17.8516 404.5 19.1094V26H402.555V13.1562H404.16L404.383 15.5352H404.477C404.953 14.6992 405.527 14.0547 406.199 13.6016C406.871 13.1484 407.609 12.9219 408.414 12.9219ZM420.25 26L419.863 24.1719H419.77C419.129 24.9766 418.488 25.5234 417.848 25.8125C417.215 26.0938 416.422 26.2344 415.469 26.2344C414.195 26.2344 413.195 25.9062 412.469 25.25C411.75 24.5938 411.391 23.6602 411.391 22.4492C411.391 19.8555 413.465 18.4961 417.613 18.3711L419.793 18.3008V17.5039C419.793 16.4961 419.574 15.7539 419.137 15.2773C418.707 14.793 418.016 14.5508 417.062 14.5508C415.992 14.5508 414.781 14.8789 413.43 15.5352L412.832 14.0469C413.465 13.7031 414.156 13.4336 414.906 13.2383C415.664 13.043 416.422 12.9453 417.18 12.9453C418.711 12.9453 419.844 13.2852 420.578 13.9648C421.32 14.6445 421.691 15.7344 421.691 17.2344V26H420.25ZM415.855 24.6289C417.066 24.6289 418.016 24.2969 418.703 23.6328C419.398 22.9688 419.746 22.0391 419.746 20.8438V19.6836L417.801 19.7656C416.254 19.8203 415.137 20.0625 414.449 20.4922C413.77 20.9141 413.43 21.5742 413.43 22.4727C413.43 23.1758 413.641 23.7109 414.062 24.0781C414.492 24.4453 415.09 24.6289 415.855 24.6289ZM433.891 26H431.945V13.1562H433.891V26ZM431.781 9.67578C431.781 9.23047 431.891 8.90625 432.109 8.70312C432.328 8.49219 432.602 8.38672 432.93 8.38672C433.242 8.38672 433.512 8.49219 433.738 8.70312C433.965 8.91406 434.078 9.23828 434.078 9.67578C434.078 10.1133 433.965 10.4414 433.738 10.6602C433.512 10.8711 433.242 10.9766 432.93 10.9766C432.602 10.9766 432.328 10.8711 432.109 10.6602C431.891 10.4414 431.781 10.1133 431.781 9.67578ZM446.805 26V17.6914C446.805 16.6445 446.566 15.8633 446.09 15.3477C445.613 14.832 444.867 14.5742 443.852 14.5742C442.508 14.5742 441.523 14.9375 440.898 15.6641C440.273 16.3906 439.961 17.5898 439.961 19.2617V26H438.016V13.1562H439.598L439.914 14.9141H440.008C440.406 14.2812 440.965 13.793 441.684 13.4492C442.402 13.0977 443.203 12.9219 444.086 12.9219C445.633 12.9219 446.797 13.2969 447.578 14.0469C448.359 14.7891 448.75 15.9805 448.75 17.6211V26H446.805ZM454.703 26H452.758V13.1562H454.703V26ZM452.594 9.67578C452.594 9.23047 452.703 8.90625 452.922 8.70312C453.141 8.49219 453.414 8.38672 453.742 8.38672C454.055 8.38672 454.324 8.49219 454.551 8.70312C454.777 8.91406 454.891 9.23828 454.891 9.67578C454.891 10.1133 454.777 10.4414 454.551 10.6602C454.324 10.8711 454.055 10.9766 453.742 10.9766C453.414 10.9766 453.141 10.8711 452.922 10.6602C452.703 10.4414 452.594 10.1133 452.594 9.67578ZM463.961 26.2344C462.102 26.2344 460.66 25.6641 459.637 24.5234C458.621 23.375 458.113 21.7539 458.113 19.6602C458.113 17.5117 458.629 15.8516 459.66 14.6797C460.699 13.5078 462.176 12.9219 464.09 12.9219C464.707 12.9219 465.324 12.9883 465.941 13.1211C466.559 13.2539 467.043 13.4102 467.395 13.5898L466.797 15.2422C466.367 15.0703 465.898 14.9297 465.391 14.8203C464.883 14.7031 464.434 14.6445 464.043 14.6445C461.434 14.6445 460.129 16.3086 460.129 19.6367C460.129 21.2148 460.445 22.4258 461.078 23.2695C461.719 24.1133 462.664 24.5352 463.914 24.5352C464.984 24.5352 466.082 24.3047 467.207 23.8438V25.5664C466.348 26.0117 465.266 26.2344 463.961 26.2344ZM472.211 26H470.266V13.1562H472.211V26ZM470.102 9.67578C470.102 9.23047 470.211 8.90625 470.43 8.70312C470.648 8.49219 470.922 8.38672 471.25 8.38672C471.562 8.38672 471.832 8.49219 472.059 8.70312C472.285 8.91406 472.398 9.23828 472.398 9.67578C472.398 10.1133 472.285 10.4414 472.059 10.6602C471.832 10.8711 471.562 10.9766 471.25 10.9766C470.922 10.9766 470.648 10.8711 470.43 10.6602C470.211 10.4414 470.102 10.1133 470.102 9.67578ZM484.234 26L483.848 24.1719H483.754C483.113 24.9766 482.473 25.5234 481.832 25.8125C481.199 26.0938 480.406 26.2344 479.453 26.2344C478.18 26.2344 477.18 25.9062 476.453 25.25C475.734 24.5938 475.375 23.6602 475.375 22.4492C475.375 19.8555 477.449 18.4961 481.598 18.3711L483.777 18.3008V17.5039C483.777 16.4961 483.559 15.7539 483.121 15.2773C482.691 14.793 482 14.5508 481.047 14.5508C479.977 14.5508 478.766 14.8789 477.414 15.5352L476.816 14.0469C477.449 13.7031 478.141 13.4336 478.891 13.2383C479.648 13.043 480.406 12.9453 481.164 12.9453C482.695 12.9453 483.828 13.2852 484.562 13.9648C485.305 14.6445 485.676 15.7344 485.676 17.2344V26H484.234ZM479.84 24.6289C481.051 24.6289 482 24.2969 482.688 23.6328C483.383 22.9688 483.73 22.0391 483.73 20.8438V19.6836L481.785 19.7656C480.238 19.8203 479.121 20.0625 478.434 20.4922C477.754 20.9141 477.414 21.5742 477.414 22.4727C477.414 23.1758 477.625 23.7109 478.047 24.0781C478.477 24.4453 479.074 24.6289 479.84 24.6289ZM491.641 26H489.695V7.76562H491.641V26ZM495.484 24.7578C495.484 24.2344 495.602 23.8398 495.836 23.5742C496.078 23.3008 496.422 23.1641 496.867 23.1641C497.32 23.1641 497.672 23.3008 497.922 23.5742C498.18 23.8398 498.309 24.2344 498.309 24.7578C498.309 25.2656 498.18 25.6562 497.922 25.9297C497.664 26.2031 497.312 26.3398 496.867 26.3398C496.469 26.3398 496.137 26.2188 495.871 25.9766C495.613 25.7266 495.484 25.3203 495.484 24.7578Z" fill="black"/>
</svg>
