<?xml version="1.0" encoding="UTF-8" standalone="no"?>
<!-- Generator: Adobe Illustrator 26.5.0, SVG Export Plug-In . SVG Version: 6.00 Build 0)  -->

<svg
   version="1.1"
   id="Capa_1"
   x="0px"
   y="0px"
   viewBox="0 0 251 158"
   xml:space="preserve"
   sodipodi:docname="svgGlo5Bed.svg"
   width="251"
   height="158"
   inkscape:version="1.2.1 (9c6d41e410, 2022-07-14)"
   xmlns:inkscape="http://www.inkscape.org/namespaces/inkscape"
   xmlns:sodipodi="http://sodipodi.sourceforge.net/DTD/sodipodi-0.dtd"
   xmlns:xlink="http://www.w3.org/1999/xlink"
   xmlns="http://www.w3.org/2000/svg"
   xmlns:svg="http://www.w3.org/2000/svg"><defs
   id="defs155" /><sodipodi:namedview
   id="namedview153"
   pagecolor="#ffffff"
   bordercolor="#000000"
   borderopacity="0.25"
   inkscape:showpageshadow="2"
   inkscape:pageopacity="0.0"
   inkscape:pagecheckerboard="0"
   inkscape:deskcolor="#d1d1d1"
   showgrid="false"
   inkscape:zoom="4.4"
   inkscape:cx="137.5"
   inkscape:cy="82.613636"
   inkscape:window-width="1920"
   inkscape:window-height="1018"
   inkscape:window-x="-8"
   inkscape:window-y="-8"
   inkscape:window-maximized="1"
   inkscape:current-layer="Capa_1" />
<style
   type="text/css"
   id="style2">
	.st0{clip-path:url(#SVGID_00000016077105557226002710000009232082286563531153_);}
	.st1{fill:#1F5C56;}
	.st2{fill:#869A2A;}
	.st3{fill:#FFFFFF;}
	.st4{fill:#869A2A;filter:url(#Adobe_OpacityMaskFilter);}
	.st5{mask:url(#mask0_00000170993018809745075100000017882609708773269923_);}
	.st6{fill:#6A2403;}
	.st7{fill:none;stroke:#000000;stroke-width:0.346;stroke-linecap:round;}
	.st8{fill:#68701F;}
	.st9{fill:#9DB22D;}
	.st10{fill:#FF8000;}
	.st11{fill:#AA61A5;}
	.st12{fill:#41AA54;}
	.st13{fill:#2A773A;}
</style>
<g
   id="g150"
   transform="matrix(0.85862563,0,0,0.76264692,9.226915,17.57235)">
	<defs
   id="defs5">
		<rect
   id="SVGID_1_"
   x="-36"
   y="0"
   width="351"
   height="165" />
	</defs>
	<clipPath
   id="SVGID_00000157999738968075626360000002435317441953329285_">
		<use
   xlink:href="#SVGID_1_"
   style="overflow:visible"
   id="use7" />
	</clipPath>
	<g
   clip-path="url(#SVGID_00000157999738968075626360000002435317441953329285_)"
   id="g148">
		<path
   class="st1"
   d="M 263,166 9,154.6 22.3,108 263,112.7 Z"
   id="path10" />
		<path
   class="st2"
   d="m 107,99.9 c 0,3 -2.3,5.4 -5.2,5.4 -2.9,0 -5.2,-2.4 -5.2,-5.4 0,-3 2.3,-5.4 5.2,-5.4 2.9,0 5.2,2.4 5.2,5.4 z"
   id="path12" />
		<path
   class="st2"
   d="m 91,101.7 c 0.4,3.4 -2.4,5.5 -5.4,5.5 -3,0 -5.1,-2.2 -5.4,-5.5 -0.2,-3.1 2.4,-5.3 5.4,-5.5 3.2,-0.3 5,2.5 5.4,5.5 z"
   id="path14" />
		<path
   class="st2"
   d="m 98,127.2 c 0,0 4.1,7.7 6.2,9.2 1.7,1.2 2.4,0.6 2.4,0.6 0,0 4.9,-1.6 4.2,-0.5 -0.7,1.1 -3.9,1.8 -3.9,1.8 0,0 5.8,0.3 5,1 -0.8,0.7 -5.6,0.8 -5.6,0.8 0,0 6.1,1.6 4.7,2 -2,0.4 -7.1,-0.4 -7.9,-1.5 -0.7,-1.2 -7,-7.4 -8.6,-9.2 -1.5,-1.9 3.5,-4.2 3.5,-4.2 z"
   id="path16" />
		<path
   class="st3"
   d="m 105.9,99.9 c 0,2.4 -1.9,4.3 -4.1,4.3 -2.3,0 -4.1,-1.9 -4.1,-4.3 0,-2.4 1.9,-4.3 4.1,-4.3 2.3,0 4.1,1.9 4.1,4.3 z"
   id="path18" />
		<defs
   id="defs23">
			<filter
   id="Adobe_OpacityMaskFilter"
   filterUnits="userSpaceOnUse"
   x="53.799999"
   y="99.099998"
   width="64.599998"
   height="46.599998">
				<feColorMatrix
   type="matrix"
   values="1 0 0 0 0  0 1 0 0 0  0 0 1 0 0  0 0 0 1 0"
   id="feColorMatrix20" />
			</filter>
		</defs>
		
			<mask
   maskUnits="userSpaceOnUse"
   x="53.8"
   y="99.1"
   width="64.6"
   height="46.6"
   id="mask0_00000170993018809745075100000017882609708773269923_">
			<path
   class="st4"
   d="m 88.9,99.4 c 10.5,-1.5 31.1,3.2 29.4,12.8 -1.4,7.9 -10.6,9.4 -10.6,9.4 0,0 -1.5,9 -13.1,9.8 -6.4,9.2 -17,14.9 -27.2,14.3 -10.2,-0.6 -15.6,-10.7 -8.7,-23.2 6.5,-11.8 17.9,-14.4 17.9,-14.4 0,0 2.7,-7.3 12.3,-8.7 z"
   id="path25" />
		</mask>
		<g
   class="st5"
   mask="url(#mask0_00000170993018809745075100000017882609708773269923_)"
   id="g106">
			<path
   class="st2"
   d="m 88.9,99.4 c 10.5,-1.5 31.1,3.2 29.4,12.8 -1.4,7.9 -10.6,9.4 -10.6,9.4 0,0 -1.5,9 -13.1,9.8 -6.4,9.2 -17,14.9 -27.2,14.3 -10.2,-0.6 -15.6,-10.7 -8.7,-23.2 6.5,-11.8 17.9,-14.4 17.9,-14.4 0,0 2.7,-7.3 12.3,-8.7 z"
   id="path28" />
			<path
   class="st6"
   d="m 86.9,122.4 c 1.2,0.9 0.6,2.2 -0.7,1.4 -1.3,-0.8 -0.6,-2.3 0.7,-1.4 z"
   id="path30" />
			<path
   class="st6"
   d="m 83.6,124.5 c 1.3,0.8 0.7,2.3 -0.6,1.5 -1.3,-0.8 -0.7,-2.3 0.6,-1.5 z"
   id="path32" />
			<path
   class="st6"
   d="m 80.2,121 c 1.3,0.8 0.6,2.3 -0.7,1.6 -1.3,-0.8 -0.6,-2.4 0.7,-1.6 z"
   id="path34" />
			<path
   class="st6"
   d="m 84.2,115.7 c -1.2,-0.9 -0.3,-2.4 0.9,-1.5 1.1,1 0.3,2.4 -0.9,1.5 z"
   id="path36" />
			<path
   class="st6"
   d="m 73.6,119.4 c -1.3,-0.8 -0.5,-2.5 0.8,-1.7 1.2,0.8 0.5,2.5 -0.8,1.7 z"
   id="path38" />
			<path
   class="st6"
   d="m 64.4,120.1 v -0.3 c 0.5,-1.2 2.7,-0.5 2.2,0.7 -0.2,0.5 -0.8,0.7 -1.3,0.6 0.1,0.7 -0.5,1.5 -1.4,1 -1.1,-0.6 -0.6,-2.3 0.5,-2 z"
   id="path40" />
			<path
   class="st6"
   d="m 73.6,114.1 c -1.3,-0.8 -0.3,-2.6 0.9,-1.7 1.3,0.9 0.4,2.6 -0.9,1.7 z"
   id="path42" />
			<path
   class="st6"
   d="m 64.9,128.8 c -0.7,-0.3 -0.9,-0.9 -0.8,-1.4 0,-0.1 0,-0.3 0,-0.4 0.4,-1.2 2.6,-0.7 2.3,0.5 l -0.2,0.3 c 0.2,0.7 -0.3,1.3 -1.3,1 z"
   id="path44" />
			<path
   class="st6"
   d="m 71.4,102.5 c -1.4,0.2 -2.1,-2.1 -0.6,-2.2 1.5,-0.2 2,2.1 0.6,2.2 z"
   id="path46" />
			<path
   class="st6"
   d="m 76.5,108.2 c 1.4,0 2,2.1 0.7,2.1 -1.4,0.1 -2.1,-2 -0.7,-2.1 z"
   id="path48" />
			<path
   class="st6"
   d="m 86.2,120.9 c 1.4,-0.2 2.1,2 0.7,2.2 -1.4,0.2 -2.1,-2 -0.7,-2.2 z"
   id="path50" />
			<path
   class="st6"
   d="m 79.7,115 c -1.4,0.3 -2.2,-1.9 -0.7,-2.2 1.5,-0.2 2.2,2 0.7,2.2 z"
   id="path52" />
			<path
   class="st6"
   d="m 71,113 c -1.4,0.2 -2.3,-1.8 -0.9,-2.1 1.4,-0.1 2.3,1.9 0.9,2.1 z"
   id="path54" />
			<path
   class="st6"
   d="m 81.7,118.5 c -1.3,0.1 -2.3,-1.8 -0.9,-1.9 1.3,-0.1 2.2,1.9 0.9,1.9 z"
   id="path56" />
			<path
   class="st6"
   d="m 69.3,121.5 c -1.3,0.3 -2.4,-1.6 -1.1,-1.9 1.4,-0.4 2.4,1.6 1.1,1.9 z"
   id="path58" />
			<path
   class="st6"
   d="m 73.5,114.5 c 1.4,-0.2 2.3,1.8 0.9,2 -1.3,0.2 -2.3,-1.8 -0.9,-2 z"
   id="path60" />
			<path
   class="st6"
   d="m 70.4,117.8 c -1.4,0.3 -2.3,-1.8 -0.9,-2.1 1.4,-0.3 2.3,1.8 0.9,2.1 z"
   id="path62" />
			<path
   class="st6"
   d="m 78.6,100.3 c 1.4,0 1.9,2.2 0.5,2.2 -1.5,0 -2,-2.2 -0.5,-2.2 z"
   id="path64" />
			<path
   class="st6"
   d="m 58.9,106.2 c 1.4,-0.3 2.3,1.8 0.8,2.2 -1.4,0.4 -2.3,-1.8 -0.8,-2.2 z"
   id="path66" />
			<path
   class="st6"
   d="m 54.2,116.4 c -0.3,-0.2 -0.5,-0.6 -0.3,-1.2 0.5,-1.4 2.8,-0.7 2.3,0.6 l -0.2,0.4 c 0.6,0.5 0.8,1.5 -0.1,1.8 -1.3,0.6 -2.3,-0.8 -1.7,-1.6 z"
   id="path68" />
			<path
   class="st6"
   d="m 80.9,114.2 c -1.3,0.1 -2.2,-2 -0.8,-2 1.3,-0.1 2.1,1.9 0.8,2 z"
   id="path70" />
			<path
   class="st6"
   d="m 77,123.3 v 0.1 0 0.3 c -0.1,0.2 -0.2,0.3 -0.4,0.4 0.4,0.7 -0.2,1.5 -1.3,1 -0.8,-0.4 -0.9,-1.2 -0.5,-1.6 -0.1,-0.2 -0.1,-0.4 -0.1,-0.6 v 0 c -0.1,-0.4 0,-0.8 0.5,-0.9 1,-0.1 1.8,0.7 1.8,1.3 z"
   id="path72" />
			<path
   class="st6"
   d="m 63.7,117.6 c -1.4,0.4 -2.4,-1.7 -1,-2 1.4,-0.4 2.4,1.6 1,2 z"
   id="path74" />
			<path
   class="st6"
   d="m 54.9,101.5 c 1.5,-0.4 2.2,1.9 0.7,2.3 -1.4,0.3 -2.2,-2 -0.7,-2.3 z"
   id="path76" />
			<path
   class="st6"
   d="m 85.2,109.9 c 1.3,0.1 1.9,2.2 0.6,2.1 -1.3,-0.1 -1.9,-2.2 -0.6,-2.1 z"
   id="path78" />
			<path
   class="st6"
   d="m 61.6,122.9 c -1.3,0.5 -2.5,-1.5 -1.1,-2 1.3,-0.4 2.5,1.6 1.1,2 z"
   id="path80" />
			<path
   class="st6"
   d="m 83.4,121.4 c 1.3,-0.1 2.3,1.8 1,1.9 -1.2,0.1 -2.3,-1.8 -1,-1.9 z"
   id="path82" />
			<path
   class="st6"
   d="m 69.7,126.2 c -0.2,-0.7 0.4,-1.5 1.3,-1 1.1,0.5 0.9,1.7 0.1,1.9 0.2,0.4 0.1,0.8 -0.5,0.9 -1.3,0.4 -2.6,-1.4 -1.2,-1.8 z"
   id="path84" />
			<path
   class="st6"
   d="m 57.8,118.4 c 0.5,-1.4 2.7,-0.7 2.3,0.6 -0.5,1.3 -2.8,0.7 -2.3,-0.6 z"
   id="path86" />
			<path
   class="st6"
   d="m 59.3,125 c -0.3,1.4 -2.7,1 -2.3,-0.4 0.4,-1.5 2.7,-1 2.3,0.4 z"
   id="path88" />
			<path
   class="st6"
   d="m 63.4,131.4 c -0.3,1.4 -2.7,1.2 -2.3,-0.3 0.3,-1.4 2.6,-1.1 2.3,0.3 z"
   id="path90" />
			<path
   class="st6"
   d="m 61.8,128.2 c -0.3,1.3 -2.6,0.9 -2.3,-0.4 0.3,-1.4 2.6,-0.9 2.3,0.4 z"
   id="path92" />
			<path
   class="st6"
   d="m 71.2,123.1 c -0.4,1.1 -2.6,0.5 -2.2,-0.7 0.4,-1.2 2.6,-0.5 2.2,0.7 z"
   id="path94" />
			<path
   class="st6"
   d="m 60.4,132.4 c -0.3,1.3 -2.6,1 -2.3,-0.3 0.3,-1.3 2.6,-1 2.3,0.3 z"
   id="path96" />
			<path
   class="st6"
   d="m 59.3,138.8 c -0.4,1.6 -2.7,1.5 -2.4,-0.2 0.4,-1.7 2.7,-1.4 2.4,0.2 z"
   id="path98" />
			<path
   class="st6"
   d="m 58.1,129 c -0.2,1.5 -2.5,1.4 -2.4,-0.1 0.3,-1.5 2.6,-1.4 2.4,0.1 z"
   id="path100" />
			<path
   class="st6"
   d="m 60.1,133.6 c -0.1,1.6 -2.5,1.7 -2.4,0.1 0.2,-1.6 2.6,-1.6 2.4,-0.1 z"
   id="path102" />
			<path
   class="st6"
   d="m 65.4,113.5 c 0.6,-1.3 2.8,-0.5 2.2,0.8 -0.5,1.3 -2.8,0.5 -2.2,-0.8 z"
   id="path104" />
		</g>
		<path
   class="st3"
   d="m 89.8,101.7 c 0.3,2.6 -1.9,4.3 -4.1,4.3 -2.3,0 -4,-1.7 -4.1,-4.3 -0.2,-2.4 1.9,-4.1 4.1,-4.3 2.3,-0.2 3.8,2 4.1,4.3 z"
   id="path108" />
		<path
   d="m 87.2,101.7 c 0.1,0.5 -0.4,0.8 -0.8,0.8 -0.4,0 -0.7,-0.3 -0.8,-0.8 0,-0.4 0.4,-0.8 0.8,-0.8 0.5,0 0.8,0.4 0.8,0.8 z"
   id="path110" />
		<path
   d="m 103.5,98.2 c 0.1,0.4 -0.3,0.7 -0.7,0.7 -0.4,0 -0.7,-0.3 -0.7,-0.7 0,-0.4 0.3,-0.7 0.7,-0.7 0.4,0 0.6,0.3 0.7,0.7 z"
   id="path112" />
		<path
   class="st7"
   d="M 107.7,121.6 C 98,122.5 94.6,116.8 94.6,116.8"
   id="path114" />
		<path
   class="st8"
   d="m 98.9,130.6 c -1.3,-1.5 -7.8,-0.3 -14.4,3.6 -9.3,5.5 -23.2,7 -20.2,9.6 3,2.6 4.7,2.5 9.6,1.3 5.1,-1.2 10.2,-2 17.6,-7.6 4.2,-3.3 5.5,-4.9 7.4,-6.9 z"
   id="path116" />
		<path
   class="st9"
   d="m 66.4,130.9 c 3,-3 13.6,-7.2 17.1,-3.2 3.5,3.9 -3.9,17.6 -3.9,17.6 0,0 14.8,-1.1 14.1,0 -0.8,1.1 -7.4,1 -7.4,1 0,0 8.1,0.8 8,1.7 -0.1,0.9 -8.3,-0.4 -8.3,-0.4 0,0 6.6,3 6,3.8 -0.6,0.8 -6.4,-1.4 -11,-2.6 -4.6,-1.1 -7.4,1.2 -7.3,-0.8 0.2,-2 3.8,-9.2 3.8,-9.2 0,0 -5.9,9.3 -11.9,6.9 -9.8,-3.9 -1.8,-12.3 0.8,-14.8 z"
   id="path118" />
		<path
   d="m 113.3,112.4 c 0,0.4 -0.3,0.7 -0.7,0.7 -0.4,0 -0.7,-0.3 -0.7,-0.7 0,-0.4 0.3,-0.7 0.7,-0.7 0.4,0 0.7,0.3 0.7,0.7 z"
   id="path120" />
		<path
   d="m 116.1,111.4 c 0,0.3 -0.2,0.6 -0.6,0.6 -0.3,0 -0.6,-0.3 -0.6,-0.6 0,-0.3 0.2,-0.6 0.6,-0.6 0.4,0.1 0.6,0.3 0.6,0.6 z"
   id="path122" />
		<path
   class="st2"
   d="m 93.1,127.2 c 0,0 2,12 3.7,13.9 1.4,1.5 2.3,1.1 2.3,1.1 0,0 5.1,-0.6 4.2,0.3 -0.9,0.9 -4.2,1 -4.2,1 0,0 5.6,1.4 4.7,2 -0.9,0.5 -5.6,-0.3 -5.6,-0.3 0,0 5.7,2.8 4.2,2.8 -2,0.1 -6.9,-1.8 -7.4,-3 -0.5,-1.3 -5.8,-12.3 -7,-14.4 -1.2,-2.1 5.1,-3.4 5.1,-3.4 z"
   id="path124" />
		<path
   class="st6"
   d="M 243.7,81.5 115.6,62.3 c 0,0 1,-37.4 0,-54.9 -0.1,-1.8 -7.1,-1.8 -7.2,0 -0.7,10.8 0,20.9 0,20.9 0,0 -9.3,-22.3 -31.8,-13.9 -16.5,6.2 -27.9,30.4 -27.9,30.4 0,0 -0.2,-13.9 0,-19.1 0.1,-3.8 -8.1,-3.1 -8.1,-1.1 -0.3,21.5 0,83.2 0,85.5 0,0 -0.3,26.7 0,34.8 0.1,2 8,2 8.1,0 0.1,-6.6 0,-22 0,-22 L 200.6,136 c 0,0 -0.6,12.7 -0.9,19.4 -0.1,2 7.6,3.1 8.2,-0.7 1,-5.7 1.7,-18.1 1.7,-18.1 l 0.2,-1.6 29.3,-30.8 c 0,0 -0.6,3.5 -0.6,11.7 0,1.8 7.1,0.1 7.1,-1.6 0,-9.5 1,-30.4 1,-30.4 z"
   id="path126" />
		<path
   class="st10"
   d="m 111.5,47 c 0,0 10.4,-6.3 23.7,0.3 9.2,4.6 9.2,11.2 9.2,11.2 0,0 96,5.3 101.4,10.9 5.4,5.6 0,17.3 0,17.3 0,0 -33,35.4 -38.4,37.9 -5.4,2.5 -156.8,-12.3 -156.8,-12.3 0,0 -6.2,-23.4 2,-32.6 C 58.4,73 111.5,47 111.5,47 Z"
   id="path128" />
		<path
   class="st11"
   d="m 131.4,62.6 c -1.9,4 -21.6,15.5 -23.8,15.6 -6.7,0.2 -15.9,-19.5 -15,-22 2.4,-6.6 17.7,-14.5 23.8,-15.6 1.6,-0.3 15.8,20.2 15,22 z"
   id="path130" />
		<path
   class="st12"
   d="m 93.7,56.6 c 0,0.8 -0.7,1.5 -1.6,1.5 -0.9,0 -1.6,-0.7 -1.6,-1.5 0,-0.8 0.7,-1.5 1.6,-1.5 0.9,0 1.6,0.7 1.6,1.5 z"
   id="path132" />
		<path
   class="st12"
   d="m 118.1,39.9 c 0,0.8 -0.7,1.5 -1.6,1.5 -0.9,0 -1.6,-0.7 -1.6,-1.5 0,-0.8 0.7,-1.5 1.6,-1.5 0.9,0 1.6,0.7 1.6,1.5 z"
   id="path134" />
		<path
   class="st12"
   d="m 133.7,62.6 c 0,0.8 -0.7,1.5 -1.6,1.5 -0.9,0 -1.6,-0.7 -1.6,-1.5 0,-0.8 0.7,-1.5 1.6,-1.5 0.9,-0.1 1.6,0.6 1.6,1.5 z"
   id="path136" />
		<path
   class="st12"
   d="m 107.9,79 c 0,0.8 -0.7,1.5 -1.6,1.5 -0.9,0 -1.6,-0.7 -1.6,-1.5 0,-0.8 0.7,-1.5 1.6,-1.5 0.9,0 1.6,0.7 1.6,1.5 z"
   id="path138" />
		<path
   class="st13"
   d="m 116,39.2 c 0,0 -2.1,-4.9 -1,-4.2 1,0.7 1.6,2.1 1.6,2.1 0,0 0.9,-5.2 1.6,-3.2 0.7,2.2 -1,3.7 -1,3.7 0,0 1.7,-3.2 1.6,-1.3 -0.1,1.9 -2.1,2.8 -2.1,2.8 z"
   id="path140" />
		<path
   class="st13"
   d="m 132.2,62.2 c 0.7,-0.4 7,-2.6 5.6,-1.2 -1.4,1.4 -4.5,1.9 -4,1.5 0.4,-0.3 5.9,1.5 3.3,1.5 h -2.7 c 0.3,0 2.3,3.2 0.9,2.1 -1.5,-1.1 -3.1,-3.9 -3.1,-3.9 z"
   id="path142" />
		<path
   class="st13"
   d="m 107,80.1 c 0,0 2.1,4.9 1,4.2 -1,-0.7 -1.6,-2.1 -1.6,-2.1 0,0 -0.9,5.2 -1.6,3.2 -0.7,-2.2 1,-3.7 1,-3.7 0,0 -1.7,3.2 -1.6,1.3 0.1,-1.9 2.1,-2.8 2.1,-2.8 z"
   id="path144" />
		<path
   class="st13"
   d="m 91.7,56.4 c -0.6,0.4 -7,2.6 -5.6,1.2 1.4,-1.4 4.5,-1.9 4,-1.5 -0.4,0.3 -5.9,-1.5 -3.3,-1.5 h 2.7 c -0.3,0 -2.3,-3.2 -0.9,-2.1 1.5,1.1 3.1,3.9 3.1,3.9 z"
   id="path146" />
	</g>
</g>
</svg>
