<svg width="974" height="450" viewBox="0 0 974 450" fill="none" xmlns="http://www.w3.org/2000/svg">
<path d="M45.4931 22.6914V15.6028L39.4406 19.1842C39.0441 19.504 38.5631 19.3428 38.3252 18.9489L37.128 16.7156C36.8927 16.3165 36.972 15.8407 37.4478 15.6028L43.5055 12.2593L37.4478 8.7521C36.972 8.51163 36.8927 8.03583 37.128 7.63676L38.3252 5.4035C38.5631 5.00955 39.0441 4.84838 39.4406 5.16815L45.4931 8.83142V1.66096C45.4931 1.18003 45.8129 0.86792 46.2913 0.86792H48.6806C49.1615 0.86792 49.4762 1.18258 49.4762 1.66096L49.3943 8.83142L55.5313 5.16815C55.9278 4.84838 56.4062 5.00955 56.6441 5.4035L57.8387 7.63676C58.0792 8.03583 57.9999 8.51163 57.5189 8.7521L51.4689 12.2593L57.5189 15.6028C57.9999 15.8407 58.0792 16.3165 57.8387 16.7156L56.6441 18.9489C56.4062 19.3428 55.9278 19.504 55.5313 19.1842L49.3943 15.6028L49.4762 22.6914C49.4762 23.1672 49.1615 23.487 48.6806 23.487H46.2913C45.8129 23.487 45.4931 23.1672 45.4931 22.6914Z" fill="#2BB673"/>
<path d="M89.9062 20H80.3555V2.86719H89.9062V4.63672H82.3477V10.1562H89.4492V11.9141H82.3477V18.2188H89.9062V20ZM102.211 20V11.6914C102.211 10.6445 101.973 9.86328 101.496 9.34766C101.02 8.83203 100.273 8.57422 99.2578 8.57422C97.9141 8.57422 96.9297 8.9375 96.3047 9.66406C95.6797 10.3906 95.3672 11.5898 95.3672 13.2617V20H93.4219V7.15625H95.0039L95.3203 8.91406H95.4141C95.8125 8.28125 96.3711 7.79297 97.0898 7.44922C97.8086 7.09766 98.6094 6.92188 99.4922 6.92188C101.039 6.92188 102.203 7.29688 102.984 8.04688C103.766 8.78906 104.156 9.98047 104.156 11.6211V20H102.211ZM119.531 20.2344C117.672 20.2344 116.23 19.6641 115.207 18.5234C114.191 17.375 113.684 15.7539 113.684 13.6602C113.684 11.5117 114.199 9.85156 115.23 8.67969C116.27 7.50781 117.746 6.92188 119.66 6.92188C120.277 6.92188 120.895 6.98828 121.512 7.12109C122.129 7.25391 122.613 7.41016 122.965 7.58984L122.367 9.24219C121.938 9.07031 121.469 8.92969 120.961 8.82031C120.453 8.70312 120.004 8.64453 119.613 8.64453C117.004 8.64453 115.699 10.3086 115.699 13.6367C115.699 15.2148 116.016 16.4258 116.648 17.2695C117.289 18.1133 118.234 18.5352 119.484 18.5352C120.555 18.5352 121.652 18.3047 122.777 17.8438V19.5664C121.918 20.0117 120.836 20.2344 119.531 20.2344ZM133.734 20L133.348 18.1719H133.254C132.613 18.9766 131.973 19.5234 131.332 19.8125C130.699 20.0938 129.906 20.2344 128.953 20.2344C127.68 20.2344 126.68 19.9062 125.953 19.25C125.234 18.5938 124.875 17.6602 124.875 16.4492C124.875 13.8555 126.949 12.4961 131.098 12.3711L133.277 12.3008V11.5039C133.277 10.4961 133.059 9.75391 132.621 9.27734C132.191 8.79297 131.5 8.55078 130.547 8.55078C129.477 8.55078 128.266 8.87891 126.914 9.53516L126.316 8.04688C126.949 7.70312 127.641 7.43359 128.391 7.23828C129.148 7.04297 129.906 6.94531 130.664 6.94531C132.195 6.94531 133.328 7.28516 134.062 7.96484C134.805 8.64453 135.176 9.73438 135.176 11.2344V20H133.734ZM129.34 18.6289C130.551 18.6289 131.5 18.2969 132.188 17.6328C132.883 16.9688 133.23 16.0391 133.23 14.8438V13.6836L131.285 13.7656C129.738 13.8203 128.621 14.0625 127.934 14.4922C127.254 14.9141 126.914 15.5742 126.914 16.4727C126.914 17.1758 127.125 17.7109 127.547 18.0781C127.977 18.4453 128.574 18.6289 129.34 18.6289ZM147.938 18.2773H147.832C146.934 19.582 145.59 20.2344 143.801 20.2344C142.121 20.2344 140.812 19.6602 139.875 18.5117C138.945 17.3633 138.48 15.7305 138.48 13.6133C138.48 11.4961 138.949 9.85156 139.887 8.67969C140.824 7.50781 142.129 6.92188 143.801 6.92188C145.543 6.92188 146.879 7.55469 147.809 8.82031H147.961L147.879 7.89453L147.832 6.99219V1.76562H149.777V20H148.195L147.938 18.2773ZM144.047 18.6055C145.375 18.6055 146.336 18.2461 146.93 17.5273C147.531 16.8008 147.832 15.6328 147.832 14.0234V13.6133C147.832 11.793 147.527 10.4961 146.918 9.72266C146.316 8.94141 145.352 8.55078 144.023 8.55078C142.883 8.55078 142.008 8.99609 141.398 9.88672C140.797 10.7695 140.496 12.0195 140.496 13.6367C140.496 15.2773 140.797 16.5156 141.398 17.3516C142 18.1875 142.883 18.6055 144.047 18.6055ZM161.812 20L161.426 18.1719H161.332C160.691 18.9766 160.051 19.5234 159.41 19.8125C158.777 20.0938 157.984 20.2344 157.031 20.2344C155.758 20.2344 154.758 19.9062 154.031 19.25C153.312 18.5938 152.953 17.6602 152.953 16.4492C152.953 13.8555 155.027 12.4961 159.176 12.3711L161.355 12.3008V11.5039C161.355 10.4961 161.137 9.75391 160.699 9.27734C160.27 8.79297 159.578 8.55078 158.625 8.55078C157.555 8.55078 156.344 8.87891 154.992 9.53516L154.395 8.04688C155.027 7.70312 155.719 7.43359 156.469 7.23828C157.227 7.04297 157.984 6.94531 158.742 6.94531C160.273 6.94531 161.406 7.28516 162.141 7.96484C162.883 8.64453 163.254 9.73438 163.254 11.2344V20H161.812ZM157.418 18.6289C158.629 18.6289 159.578 18.2969 160.266 17.6328C160.961 16.9688 161.309 16.0391 161.309 14.8438V13.6836L159.363 13.7656C157.816 13.8203 156.699 14.0625 156.012 14.4922C155.332 14.9141 154.992 15.5742 154.992 16.4727C154.992 17.1758 155.203 17.7109 155.625 18.0781C156.055 18.4453 156.652 18.6289 157.418 18.6289ZM175.453 20H173.508V1.76562H175.453V20ZM181.523 20H179.578V7.15625H181.523V20ZM179.496 5.16406C179.871 4.67969 180.273 4.09375 180.703 3.40625C181.141 2.71875 181.484 2.12109 181.734 1.61328H184.102V1.85938C183.758 2.36719 183.246 2.99219 182.566 3.73438C181.887 4.47656 181.297 5.05078 180.797 5.45703H179.496V5.16406ZM194.438 20V11.6914C194.438 10.6445 194.199 9.86328 193.723 9.34766C193.246 8.83203 192.5 8.57422 191.484 8.57422C190.141 8.57422 189.156 8.9375 188.531 9.66406C187.906 10.3906 187.594 11.5898 187.594 13.2617V20H185.648V7.15625H187.23L187.547 8.91406H187.641C188.039 8.28125 188.598 7.79297 189.316 7.44922C190.035 7.09766 190.836 6.92188 191.719 6.92188C193.266 6.92188 194.43 7.29688 195.211 8.04688C195.992 8.78906 196.383 9.98047 196.383 11.6211V20H194.438ZM205.816 20.2344C203.918 20.2344 202.418 19.6562 201.316 18.5C200.223 17.3438 199.676 15.7383 199.676 13.6836C199.676 11.6133 200.184 9.96875 201.199 8.75C202.223 7.53125 203.594 6.92188 205.312 6.92188C206.922 6.92188 208.195 7.45312 209.133 8.51562C210.07 9.57031 210.539 10.9648 210.539 12.6992V13.9297H201.691C201.73 15.4375 202.109 16.582 202.828 17.3633C203.555 18.1445 204.574 18.5352 205.887 18.5352C207.27 18.5352 208.637 18.2461 209.988 17.668V19.4023C209.301 19.6992 208.648 19.9102 208.031 20.0352C207.422 20.168 206.684 20.2344 205.816 20.2344ZM205.289 8.55078C204.258 8.55078 203.434 8.88672 202.816 9.55859C202.207 10.2305 201.848 11.1602 201.738 12.3477H208.453C208.453 11.1211 208.18 10.1836 207.633 9.53516C207.086 8.87891 206.305 8.55078 205.289 8.55078ZM221.766 20L221.379 18.1719H221.285C220.645 18.9766 220.004 19.5234 219.363 19.8125C218.73 20.0938 217.938 20.2344 216.984 20.2344C215.711 20.2344 214.711 19.9062 213.984 19.25C213.266 18.5938 212.906 17.6602 212.906 16.4492C212.906 13.8555 214.98 12.4961 219.129 12.3711L221.309 12.3008V11.5039C221.309 10.4961 221.09 9.75391 220.652 9.27734C220.223 8.79297 219.531 8.55078 218.578 8.55078C217.508 8.55078 216.297 8.87891 214.945 9.53516L214.348 8.04688C214.98 7.70312 215.672 7.43359 216.422 7.23828C217.18 7.04297 217.938 6.94531 218.695 6.94531C220.227 6.94531 221.359 7.28516 222.094 7.96484C222.836 8.64453 223.207 9.73438 223.207 11.2344V20H221.766ZM217.371 18.6289C218.582 18.6289 219.531 18.2969 220.219 17.6328C220.914 16.9688 221.262 16.0391 221.262 14.8438V13.6836L219.316 13.7656C217.77 13.8203 216.652 14.0625 215.965 14.4922C215.285 14.9141 214.945 15.5742 214.945 16.4727C214.945 17.1758 215.156 17.7109 215.578 18.0781C216.008 18.4453 216.605 18.6289 217.371 18.6289ZM242.25 20V11.6914C242.25 10.6445 242.012 9.86328 241.535 9.34766C241.059 8.83203 240.312 8.57422 239.297 8.57422C237.945 8.57422 236.957 8.94141 236.332 9.67578C235.715 10.4102 235.406 11.6133 235.406 13.2852V20H233.461V1.76562H235.406V7.28516C235.406 7.94922 235.375 8.5 235.312 8.9375H235.43C235.812 8.32031 236.355 7.83594 237.059 7.48438C237.77 7.125 238.578 6.94531 239.484 6.94531C241.055 6.94531 242.23 7.32031 243.012 8.07031C243.801 8.8125 244.195 9.99609 244.195 11.6211V20H242.25ZM256.102 20L255.715 18.1719H255.621C254.98 18.9766 254.34 19.5234 253.699 19.8125C253.066 20.0938 252.273 20.2344 251.32 20.2344C250.047 20.2344 249.047 19.9062 248.32 19.25C247.602 18.5938 247.242 17.6602 247.242 16.4492C247.242 13.8555 249.316 12.4961 253.465 12.3711L255.645 12.3008V11.5039C255.645 10.4961 255.426 9.75391 254.988 9.27734C254.559 8.79297 253.867 8.55078 252.914 8.55078C251.844 8.55078 250.633 8.87891 249.281 9.53516L248.684 8.04688C249.316 7.70312 250.008 7.43359 250.758 7.23828C251.516 7.04297 252.273 6.94531 253.031 6.94531C254.562 6.94531 255.695 7.28516 256.43 7.96484C257.172 8.64453 257.543 9.73438 257.543 11.2344V20H256.102ZM251.707 18.6289C252.918 18.6289 253.867 18.2969 254.555 17.6328C255.25 16.9688 255.598 16.0391 255.598 14.8438V13.6836L253.652 13.7656C252.105 13.8203 250.988 14.0625 250.301 14.4922C249.621 14.9141 249.281 15.5742 249.281 16.4727C249.281 17.1758 249.492 17.7109 249.914 18.0781C250.344 18.4453 250.941 18.6289 251.707 18.6289ZM259.523 7.15625H261.609L264.422 14.4805C265.039 16.1523 265.422 17.3594 265.57 18.1016H265.664C265.766 17.7031 265.977 17.0234 266.297 16.0625C266.625 15.0938 267.688 12.125 269.484 7.15625H271.57L266.051 21.7812C265.504 23.2266 264.863 24.25 264.129 24.8516C263.402 25.4609 262.508 25.7656 261.445 25.7656C260.852 25.7656 260.266 25.6992 259.688 25.5664V24.0078C260.117 24.1016 260.598 24.1484 261.129 24.1484C262.465 24.1484 263.418 23.3984 263.988 21.8984L264.703 20.0703L259.523 7.15625ZM281.719 7.15625V15.4883C281.719 16.5352 281.957 17.3164 282.434 17.832C282.91 18.3477 283.656 18.6055 284.672 18.6055C286.016 18.6055 286.996 18.2383 287.613 17.5039C288.238 16.7695 288.551 15.5703 288.551 13.9062V7.15625H290.496V20H288.891L288.609 18.2773H288.504C288.105 18.9102 287.551 19.3945 286.84 19.7305C286.137 20.0664 285.332 20.2344 284.426 20.2344C282.863 20.2344 281.691 19.8633 280.91 19.1211C280.137 18.3789 279.75 17.1914 279.75 15.5586V7.15625H281.719ZM303.422 20V11.6914C303.422 10.6445 303.184 9.86328 302.707 9.34766C302.23 8.83203 301.484 8.57422 300.469 8.57422C299.125 8.57422 298.141 8.9375 297.516 9.66406C296.891 10.3906 296.578 11.5898 296.578 13.2617V20H294.633V7.15625H296.215L296.531 8.91406H296.625C297.023 8.28125 297.582 7.79297 298.301 7.44922C299.02 7.09766 299.82 6.92188 300.703 6.92188C302.25 6.92188 303.414 7.29688 304.195 8.04688C304.977 8.78906 305.367 9.98047 305.367 11.6211V20H303.422ZM317.273 20L316.887 18.1719H316.793C316.152 18.9766 315.512 19.5234 314.871 19.8125C314.238 20.0938 313.445 20.2344 312.492 20.2344C311.219 20.2344 310.219 19.9062 309.492 19.25C308.773 18.5938 308.414 17.6602 308.414 16.4492C308.414 13.8555 310.488 12.4961 314.637 12.3711L316.816 12.3008V11.5039C316.816 10.4961 316.598 9.75391 316.16 9.27734C315.73 8.79297 315.039 8.55078 314.086 8.55078C313.016 8.55078 311.805 8.87891 310.453 9.53516L309.855 8.04688C310.488 7.70312 311.18 7.43359 311.93 7.23828C312.688 7.04297 313.445 6.94531 314.203 6.94531C315.734 6.94531 316.867 7.28516 317.602 7.96484C318.344 8.64453 318.715 9.73438 318.715 11.2344V20H317.273ZM312.879 18.6289C314.09 18.6289 315.039 18.2969 315.727 17.6328C316.422 16.9688 316.77 16.0391 316.77 14.8438V13.6836L314.824 13.7656C313.277 13.8203 312.16 14.0625 311.473 14.4922C310.793 14.9141 310.453 15.5742 310.453 16.4727C310.453 17.1758 310.664 17.7109 311.086 18.0781C311.516 18.4453 312.113 18.6289 312.879 18.6289ZM334.945 20.2344C334.109 20.2344 333.344 20.082 332.648 19.7773C331.961 19.4648 331.383 18.9883 330.914 18.3477H330.773C330.867 19.0977 330.914 19.8086 330.914 20.4805V25.7656H328.969V7.15625H330.551L330.82 8.91406H330.914C331.414 8.21094 331.996 7.70312 332.66 7.39062C333.324 7.07812 334.086 6.92188 334.945 6.92188C336.648 6.92188 337.961 7.50391 338.883 8.66797C339.812 9.83203 340.277 11.4648 340.277 13.5664C340.277 15.6758 339.805 17.3164 338.859 18.4883C337.922 19.6523 336.617 20.2344 334.945 20.2344ZM334.664 8.57422C333.352 8.57422 332.402 8.9375 331.816 9.66406C331.23 10.3906 330.93 11.5469 330.914 13.1328V13.5664C330.914 15.3711 331.215 16.6641 331.816 17.4453C332.418 18.2188 333.383 18.6055 334.711 18.6055C335.82 18.6055 336.688 18.1562 337.312 17.2578C337.945 16.3594 338.262 15.1211 338.262 13.543C338.262 11.9414 337.945 10.7148 337.312 9.86328C336.688 9.00391 335.805 8.57422 334.664 8.57422ZM351.586 20L351.199 18.1719H351.105C350.465 18.9766 349.824 19.5234 349.184 19.8125C348.551 20.0938 347.758 20.2344 346.805 20.2344C345.531 20.2344 344.531 19.9062 343.805 19.25C343.086 18.5938 342.727 17.6602 342.727 16.4492C342.727 13.8555 344.801 12.4961 348.949 12.3711L351.129 12.3008V11.5039C351.129 10.4961 350.91 9.75391 350.473 9.27734C350.043 8.79297 349.352 8.55078 348.398 8.55078C347.328 8.55078 346.117 8.87891 344.766 9.53516L344.168 8.04688C344.801 7.70312 345.492 7.43359 346.242 7.23828C347 7.04297 347.758 6.94531 348.516 6.94531C350.047 6.94531 351.18 7.28516 351.914 7.96484C352.656 8.64453 353.027 9.73438 353.027 11.2344V20H351.586ZM347.191 18.6289C348.402 18.6289 349.352 18.2969 350.039 17.6328C350.734 16.9688 351.082 16.0391 351.082 14.8438V13.6836L349.137 13.7656C347.59 13.8203 346.473 14.0625 345.785 14.4922C345.105 14.9141 344.766 15.5742 344.766 16.4727C344.766 17.1758 344.977 17.7109 345.398 18.0781C345.828 18.4453 346.426 18.6289 347.191 18.6289ZM358.992 20H357.047V1.76562H358.992V20ZM371.016 20L370.629 18.1719H370.535C369.895 18.9766 369.254 19.5234 368.613 19.8125C367.98 20.0938 367.188 20.2344 366.234 20.2344C364.961 20.2344 363.961 19.9062 363.234 19.25C362.516 18.5938 362.156 17.6602 362.156 16.4492C362.156 13.8555 364.23 12.4961 368.379 12.3711L370.559 12.3008V11.5039C370.559 10.4961 370.34 9.75391 369.902 9.27734C369.473 8.79297 368.781 8.55078 367.828 8.55078C366.758 8.55078 365.547 8.87891 364.195 9.53516L363.598 8.04688C364.23 7.70312 364.922 7.43359 365.672 7.23828C366.43 7.04297 367.188 6.94531 367.945 6.94531C369.477 6.94531 370.609 7.28516 371.344 7.96484C372.086 8.64453 372.457 9.73438 372.457 11.2344V20H371.016ZM366.621 18.6289C367.832 18.6289 368.781 18.2969 369.469 17.6328C370.164 16.9688 370.512 16.0391 370.512 14.8438V13.6836L368.566 13.7656C367.02 13.8203 365.902 14.0625 365.215 14.4922C364.535 14.9141 364.195 15.5742 364.195 16.4727C364.195 17.1758 364.406 17.7109 364.828 18.0781C365.258 18.4453 365.855 18.6289 366.621 18.6289ZM382.453 6.94531C384.141 6.94531 385.449 7.52344 386.379 8.67969C387.316 9.82812 387.785 11.457 387.785 13.5664C387.785 15.6758 387.312 17.3164 386.367 18.4883C385.43 19.6523 384.125 20.2344 382.453 20.2344C381.617 20.2344 380.852 20.082 380.156 19.7773C379.469 19.4648 378.891 18.9883 378.422 18.3477H378.281L377.871 20H376.477V1.76562H378.422V6.19531C378.422 7.1875 378.391 8.07812 378.328 8.86719H378.422C379.328 7.58594 380.672 6.94531 382.453 6.94531ZM382.172 8.57422C380.844 8.57422 379.887 8.95703 379.301 9.72266C378.715 10.4805 378.422 11.7617 378.422 13.5664C378.422 15.3711 378.723 16.6641 379.324 17.4453C379.926 18.2188 380.891 18.6055 382.219 18.6055C383.414 18.6055 384.305 18.1719 384.891 17.3047C385.477 16.4297 385.77 15.1758 385.77 13.543C385.77 11.8711 385.477 10.625 384.891 9.80469C384.305 8.98438 383.398 8.57422 382.172 8.57422ZM397.055 6.92188C397.625 6.92188 398.137 6.96875 398.59 7.0625L398.32 8.86719C397.789 8.75 397.32 8.69141 396.914 8.69141C395.875 8.69141 394.984 9.11328 394.242 9.95703C393.508 10.8008 393.141 11.8516 393.141 13.1094V20H391.195V7.15625H392.801L393.023 9.53516H393.117C393.594 8.69922 394.168 8.05469 394.84 7.60156C395.512 7.14844 396.25 6.92188 397.055 6.92188ZM408.891 20L408.504 18.1719H408.41C407.77 18.9766 407.129 19.5234 406.488 19.8125C405.855 20.0938 405.062 20.2344 404.109 20.2344C402.836 20.2344 401.836 19.9062 401.109 19.25C400.391 18.5938 400.031 17.6602 400.031 16.4492C400.031 13.8555 402.105 12.4961 406.254 12.3711L408.434 12.3008V11.5039C408.434 10.4961 408.215 9.75391 407.777 9.27734C407.348 8.79297 406.656 8.55078 405.703 8.55078C404.633 8.55078 403.422 8.87891 402.07 9.53516L401.473 8.04688C402.105 7.70312 402.797 7.43359 403.547 7.23828C404.305 7.04297 405.062 6.94531 405.82 6.94531C407.352 6.94531 408.484 7.28516 409.219 7.96484C409.961 8.64453 410.332 9.73438 410.332 11.2344V20H408.891ZM404.496 18.6289C405.707 18.6289 406.656 18.2969 407.344 17.6328C408.039 16.9688 408.387 16.0391 408.387 14.8438V13.6836L406.441 13.7656C404.895 13.8203 403.777 14.0625 403.09 14.4922C402.41 14.9141 402.07 15.5742 402.07 16.4727C402.07 17.1758 402.281 17.7109 402.703 18.0781C403.133 18.4453 403.73 18.6289 404.496 18.6289ZM422.531 20H420.586V7.15625H422.531V20ZM420.422 3.67578C420.422 3.23047 420.531 2.90625 420.75 2.70312C420.969 2.49219 421.242 2.38672 421.57 2.38672C421.883 2.38672 422.152 2.49219 422.379 2.70312C422.605 2.91406 422.719 3.23828 422.719 3.67578C422.719 4.11328 422.605 4.44141 422.379 4.66016C422.152 4.87109 421.883 4.97656 421.57 4.97656C421.242 4.97656 420.969 4.87109 420.75 4.66016C420.531 4.44141 420.422 4.11328 420.422 3.67578ZM435.445 20V11.6914C435.445 10.6445 435.207 9.86328 434.73 9.34766C434.254 8.83203 433.508 8.57422 432.492 8.57422C431.148 8.57422 430.164 8.9375 429.539 9.66406C428.914 10.3906 428.602 11.5898 428.602 13.2617V20H426.656V7.15625H428.238L428.555 8.91406H428.648C429.047 8.28125 429.605 7.79297 430.324 7.44922C431.043 7.09766 431.844 6.92188 432.727 6.92188C434.273 6.92188 435.438 7.29688 436.219 8.04688C437 8.78906 437.391 9.98047 437.391 11.6211V20H435.445ZM445.547 18.6289C445.891 18.6289 446.223 18.6055 446.543 18.5586C446.863 18.5039 447.117 18.4492 447.305 18.3945V19.8828C447.094 19.9844 446.781 20.0664 446.367 20.1289C445.961 20.1992 445.594 20.2344 445.266 20.2344C442.781 20.2344 441.539 18.9258 441.539 16.3086V8.66797H439.699V7.73047L441.539 6.92188L442.359 4.17969H443.484V7.15625H447.211V8.66797H443.484V16.2266C443.484 17 443.668 17.5938 444.035 18.0078C444.402 18.4219 444.906 18.6289 445.547 18.6289ZM455.742 6.92188C456.312 6.92188 456.824 6.96875 457.277 7.0625L457.008 8.86719C456.477 8.75 456.008 8.69141 455.602 8.69141C454.562 8.69141 453.672 9.11328 452.93 9.95703C452.195 10.8008 451.828 11.8516 451.828 13.1094V20H449.883V7.15625H451.488L451.711 9.53516H451.805C452.281 8.69922 452.855 8.05469 453.527 7.60156C454.199 7.14844 454.938 6.92188 455.742 6.92188ZM461.508 7.15625V15.4883C461.508 16.5352 461.746 17.3164 462.223 17.832C462.699 18.3477 463.445 18.6055 464.461 18.6055C465.805 18.6055 466.785 18.2383 467.402 17.5039C468.027 16.7695 468.34 15.5703 468.34 13.9062V7.15625H470.285V20H468.68L468.398 18.2773H468.293C467.895 18.9102 467.34 19.3945 466.629 19.7305C465.926 20.0664 465.121 20.2344 464.215 20.2344C462.652 20.2344 461.48 19.8633 460.699 19.1211C459.926 18.3789 459.539 17.1914 459.539 15.5586V7.15625H461.508ZM482.707 16.4961C482.707 17.6914 482.262 18.6133 481.371 19.2617C480.48 19.9102 479.23 20.2344 477.621 20.2344C475.918 20.2344 474.59 19.9648 473.637 19.4258V17.6211C474.254 17.9336 474.914 18.1797 475.617 18.3594C476.328 18.5391 477.012 18.6289 477.668 18.6289C478.684 18.6289 479.465 18.4688 480.012 18.1484C480.559 17.8203 480.832 17.3242 480.832 16.6602C480.832 16.1602 480.613 15.7344 480.176 15.3828C479.746 15.0234 478.902 14.6016 477.645 14.1172C476.449 13.6719 475.598 13.2852 475.09 12.957C474.59 12.6211 474.215 12.2422 473.965 11.8203C473.723 11.3984 473.602 10.8945 473.602 10.3086C473.602 9.26172 474.027 8.4375 474.879 7.83594C475.73 7.22656 476.898 6.92188 478.383 6.92188C479.766 6.92188 481.117 7.20312 482.438 7.76562L481.746 9.34766C480.457 8.81641 479.289 8.55078 478.242 8.55078C477.32 8.55078 476.625 8.69531 476.156 8.98438C475.688 9.27344 475.453 9.67188 475.453 10.1797C475.453 10.5234 475.539 10.8164 475.711 11.0586C475.891 11.3008 476.176 11.5312 476.566 11.75C476.957 11.9688 477.707 12.2852 478.816 12.6992C480.34 13.2539 481.367 13.8125 481.898 14.375C482.438 14.9375 482.707 15.6445 482.707 16.4961ZM493.781 20L493.395 18.1719H493.301C492.66 18.9766 492.02 19.5234 491.379 19.8125C490.746 20.0938 489.953 20.2344 489 20.2344C487.727 20.2344 486.727 19.9062 486 19.25C485.281 18.5938 484.922 17.6602 484.922 16.4492C484.922 13.8555 486.996 12.4961 491.145 12.3711L493.324 12.3008V11.5039C493.324 10.4961 493.105 9.75391 492.668 9.27734C492.238 8.79297 491.547 8.55078 490.594 8.55078C489.523 8.55078 488.312 8.87891 486.961 9.53516L486.363 8.04688C486.996 7.70312 487.688 7.43359 488.438 7.23828C489.195 7.04297 489.953 6.94531 490.711 6.94531C492.242 6.94531 493.375 7.28516 494.109 7.96484C494.852 8.64453 495.223 9.73438 495.223 11.2344V20H493.781ZM489.387 18.6289C490.598 18.6289 491.547 18.2969 492.234 17.6328C492.93 16.9688 493.277 16.0391 493.277 14.8438V13.6836L491.332 13.7656C489.785 13.8203 488.668 14.0625 487.98 14.4922C487.301 14.9141 486.961 15.5742 486.961 16.4727C486.961 17.1758 487.172 17.7109 487.594 18.0781C488.023 18.4453 488.621 18.6289 489.387 18.6289ZM510.328 18.6055C511.625 18.6055 512.57 18.2578 513.164 17.5625C513.758 16.8672 514.074 15.6953 514.113 14.0469V13.6133C514.113 11.8164 513.809 10.5234 513.199 9.73438C512.59 8.94531 511.625 8.55078 510.305 8.55078C509.164 8.55078 508.289 8.99609 507.68 9.88672C507.078 10.7695 506.777 12.0195 506.777 13.6367C506.777 15.2539 507.074 16.4883 507.668 17.3398C508.27 18.1836 509.156 18.6055 510.328 18.6055ZM510.035 20.2344C508.379 20.2344 507.086 19.6523 506.156 18.4883C505.227 17.3242 504.762 15.6992 504.762 13.6133C504.762 11.5117 505.23 9.87109 506.168 8.69141C507.105 7.51172 508.41 6.92188 510.082 6.92188C511.84 6.92188 513.191 7.58594 514.137 8.91406H514.242L514.523 7.15625H516.059V25.7656H514.113V20.2695C514.113 19.4883 514.156 18.8242 514.242 18.2773H514.09C513.191 19.582 511.84 20.2344 510.035 20.2344ZM522.023 7.15625V15.4883C522.023 16.5352 522.262 17.3164 522.738 17.832C523.215 18.3477 523.961 18.6055 524.977 18.6055C526.32 18.6055 527.301 18.2383 527.918 17.5039C528.543 16.7695 528.855 15.5703 528.855 13.9062V7.15625H530.801V20H529.195L528.914 18.2773H528.809C528.41 18.9102 527.855 19.3945 527.145 19.7305C526.441 20.0664 525.637 20.2344 524.73 20.2344C523.168 20.2344 521.996 19.8633 521.215 19.1211C520.441 18.3789 520.055 17.1914 520.055 15.5586V7.15625H522.023ZM540.363 20.2344C538.465 20.2344 536.965 19.6562 535.863 18.5C534.77 17.3438 534.223 15.7383 534.223 13.6836C534.223 11.6133 534.73 9.96875 535.746 8.75C536.77 7.53125 538.141 6.92188 539.859 6.92188C541.469 6.92188 542.742 7.45312 543.68 8.51562C544.617 9.57031 545.086 10.9648 545.086 12.6992V13.9297H536.238C536.277 15.4375 536.656 16.582 537.375 17.3633C538.102 18.1445 539.121 18.5352 540.434 18.5352C541.816 18.5352 543.184 18.2461 544.535 17.668V19.4023C543.848 19.6992 543.195 19.9102 542.578 20.0352C541.969 20.168 541.23 20.2344 540.363 20.2344ZM539.836 8.55078C538.805 8.55078 537.98 8.88672 537.363 9.55859C536.754 10.2305 536.395 11.1602 536.285 12.3477H543C543 11.1211 542.727 10.1836 542.18 9.53516C541.633 8.87891 540.852 8.55078 539.836 8.55078ZM563.438 20V11.6914C563.438 10.6445 563.199 9.86328 562.723 9.34766C562.246 8.83203 561.5 8.57422 560.484 8.57422C559.141 8.57422 558.156 8.9375 557.531 9.66406C556.906 10.3906 556.594 11.5898 556.594 13.2617V20H554.648V7.15625H556.23L556.547 8.91406H556.641C557.039 8.28125 557.598 7.79297 558.316 7.44922C559.035 7.09766 559.836 6.92188 560.719 6.92188C562.266 6.92188 563.43 7.29688 564.211 8.04688C564.992 8.78906 565.383 9.98047 565.383 11.6211V20H563.438ZM580.477 13.5664C580.477 15.6602 579.949 17.2969 578.895 18.4766C577.84 19.6484 576.383 20.2344 574.523 20.2344C573.375 20.2344 572.355 19.9648 571.465 19.4258C570.574 18.8867 569.887 18.1133 569.402 17.1055C568.918 16.0977 568.676 14.918 568.676 13.5664C568.676 11.4727 569.199 9.84375 570.246 8.67969C571.293 7.50781 572.746 6.92188 574.605 6.92188C576.402 6.92188 577.828 7.51953 578.883 8.71484C579.945 9.91016 580.477 11.5273 580.477 13.5664ZM570.691 13.5664C570.691 15.207 571.02 16.457 571.676 17.3164C572.332 18.1758 573.297 18.6055 574.57 18.6055C575.844 18.6055 576.809 18.1797 577.465 17.3281C578.129 16.4688 578.461 15.2148 578.461 13.5664C578.461 11.9336 578.129 10.6953 577.465 9.85156C576.809 9 575.836 8.57422 574.547 8.57422C573.273 8.57422 572.312 8.99219 571.664 9.82812C571.016 10.6641 570.691 11.9102 570.691 13.5664ZM595.922 8.66797H592.652V20H590.707V8.66797H588.41V7.78906L590.707 7.08594V6.37109C590.707 3.21484 592.086 1.63672 594.844 1.63672C595.523 1.63672 596.32 1.77344 597.234 2.04688L596.73 3.60547C595.98 3.36328 595.34 3.24219 594.809 3.24219C594.074 3.24219 593.531 3.48828 593.18 3.98047C592.828 4.46484 592.652 5.24609 592.652 6.32422V7.15625H595.922V8.66797ZM609.352 13.5664C609.352 15.6602 608.824 17.2969 607.77 18.4766C606.715 19.6484 605.258 20.2344 603.398 20.2344C602.25 20.2344 601.23 19.9648 600.34 19.4258C599.449 18.8867 598.762 18.1133 598.277 17.1055C597.793 16.0977 597.551 14.918 597.551 13.5664C597.551 11.4727 598.074 9.84375 599.121 8.67969C600.168 7.50781 601.621 6.92188 603.48 6.92188C605.277 6.92188 606.703 7.51953 607.758 8.71484C608.82 9.91016 609.352 11.5273 609.352 13.5664ZM599.566 13.5664C599.566 15.207 599.895 16.457 600.551 17.3164C601.207 18.1758 602.172 18.6055 603.445 18.6055C604.719 18.6055 605.684 18.1797 606.34 17.3281C607.004 16.4688 607.336 15.2148 607.336 13.5664C607.336 11.9336 607.004 10.6953 606.34 9.85156C605.684 9 604.711 8.57422 603.422 8.57422C602.148 8.57422 601.188 8.99219 600.539 9.82812C599.891 10.6641 599.566 11.9102 599.566 13.5664ZM618.633 6.92188C619.203 6.92188 619.715 6.96875 620.168 7.0625L619.898 8.86719C619.367 8.75 618.898 8.69141 618.492 8.69141C617.453 8.69141 616.562 9.11328 615.82 9.95703C615.086 10.8008 614.719 11.8516 614.719 13.1094V20H612.773V7.15625H614.379L614.602 9.53516H614.695C615.172 8.69922 615.746 8.05469 616.418 7.60156C617.09 7.14844 617.828 6.92188 618.633 6.92188ZM638.941 20V11.6445C638.941 10.6211 638.723 9.85547 638.285 9.34766C637.848 8.83203 637.168 8.57422 636.246 8.57422C635.035 8.57422 634.141 8.92188 633.562 9.61719C632.984 10.3125 632.695 11.3828 632.695 12.8281V20H630.75V11.6445C630.75 10.6211 630.531 9.85547 630.094 9.34766C629.656 8.83203 628.973 8.57422 628.043 8.57422C626.824 8.57422 625.93 8.94141 625.359 9.67578C624.797 10.4023 624.516 11.5977 624.516 13.2617V20H622.57V7.15625H624.152L624.469 8.91406H624.562C624.93 8.28906 625.445 7.80078 626.109 7.44922C626.781 7.09766 627.531 6.92188 628.359 6.92188C630.367 6.92188 631.68 7.64844 632.297 9.10156H632.391C632.773 8.42969 633.328 7.89844 634.055 7.50781C634.781 7.11719 635.609 6.92188 636.539 6.92188C637.992 6.92188 639.078 7.29688 639.797 8.04688C640.523 8.78906 640.887 9.98047 640.887 11.6211V20H638.941ZM652.805 20L652.418 18.1719H652.324C651.684 18.9766 651.043 19.5234 650.402 19.8125C649.77 20.0938 648.977 20.2344 648.023 20.2344C646.75 20.2344 645.75 19.9062 645.023 19.25C644.305 18.5938 643.945 17.6602 643.945 16.4492C643.945 13.8555 646.02 12.4961 650.168 12.3711L652.348 12.3008V11.5039C652.348 10.4961 652.129 9.75391 651.691 9.27734C651.262 8.79297 650.57 8.55078 649.617 8.55078C648.547 8.55078 647.336 8.87891 645.984 9.53516L645.387 8.04688C646.02 7.70312 646.711 7.43359 647.461 7.23828C648.219 7.04297 648.977 6.94531 649.734 6.94531C651.266 6.94531 652.398 7.28516 653.133 7.96484C653.875 8.64453 654.246 9.73438 654.246 11.2344V20H652.805ZM648.41 18.6289C649.621 18.6289 650.57 18.2969 651.258 17.6328C651.953 16.9688 652.301 16.0391 652.301 14.8438V13.6836L650.355 13.7656C648.809 13.8203 647.691 14.0625 647.004 14.4922C646.324 14.9141 645.984 15.5742 645.984 16.4727C645.984 17.1758 646.195 17.7109 646.617 18.0781C647.047 18.4453 647.645 18.6289 648.41 18.6289ZM670.477 20.2344C669.641 20.2344 668.875 20.082 668.18 19.7773C667.492 19.4648 666.914 18.9883 666.445 18.3477H666.305C666.398 19.0977 666.445 19.8086 666.445 20.4805V25.7656H664.5V7.15625H666.082L666.352 8.91406H666.445C666.945 8.21094 667.527 7.70312 668.191 7.39062C668.855 7.07812 669.617 6.92188 670.477 6.92188C672.18 6.92188 673.492 7.50391 674.414 8.66797C675.344 9.83203 675.809 11.4648 675.809 13.5664C675.809 15.6758 675.336 17.3164 674.391 18.4883C673.453 19.6523 672.148 20.2344 670.477 20.2344ZM670.195 8.57422C668.883 8.57422 667.934 8.9375 667.348 9.66406C666.762 10.3906 666.461 11.5469 666.445 13.1328V13.5664C666.445 15.3711 666.746 16.6641 667.348 17.4453C667.949 18.2188 668.914 18.6055 670.242 18.6055C671.352 18.6055 672.219 18.1562 672.844 17.2578C673.477 16.3594 673.793 15.1211 673.793 13.543C673.793 11.9414 673.477 10.7148 672.844 9.86328C672.219 9.00391 671.336 8.57422 670.195 8.57422ZM687.117 20L686.73 18.1719H686.637C685.996 18.9766 685.355 19.5234 684.715 19.8125C684.082 20.0938 683.289 20.2344 682.336 20.2344C681.062 20.2344 680.062 19.9062 679.336 19.25C678.617 18.5938 678.258 17.6602 678.258 16.4492C678.258 13.8555 680.332 12.4961 684.48 12.3711L686.66 12.3008V11.5039C686.66 10.4961 686.441 9.75391 686.004 9.27734C685.574 8.79297 684.883 8.55078 683.93 8.55078C682.859 8.55078 681.648 8.87891 680.297 9.53516L679.699 8.04688C680.332 7.70312 681.023 7.43359 681.773 7.23828C682.531 7.04297 683.289 6.94531 684.047 6.94531C685.578 6.94531 686.711 7.28516 687.445 7.96484C688.188 8.64453 688.559 9.73438 688.559 11.2344V20H687.117ZM682.723 18.6289C683.934 18.6289 684.883 18.2969 685.57 17.6328C686.266 16.9688 686.613 16.0391 686.613 14.8438V13.6836L684.668 13.7656C683.121 13.8203 682.004 14.0625 681.316 14.4922C680.637 14.9141 680.297 15.5742 680.297 16.4727C680.297 17.1758 680.508 17.7109 680.93 18.0781C681.359 18.4453 681.957 18.6289 682.723 18.6289ZM698.438 6.92188C699.008 6.92188 699.52 6.96875 699.973 7.0625L699.703 8.86719C699.172 8.75 698.703 8.69141 698.297 8.69141C697.258 8.69141 696.367 9.11328 695.625 9.95703C694.891 10.8008 694.523 11.8516 694.523 13.1094V20H692.578V7.15625H694.184L694.406 9.53516H694.5C694.977 8.69922 695.551 8.05469 696.223 7.60156C696.895 7.14844 697.633 6.92188 698.438 6.92188ZM706.523 18.6289C706.867 18.6289 707.199 18.6055 707.52 18.5586C707.84 18.5039 708.094 18.4492 708.281 18.3945V19.8828C708.07 19.9844 707.758 20.0664 707.344 20.1289C706.938 20.1992 706.57 20.2344 706.242 20.2344C703.758 20.2344 702.516 18.9258 702.516 16.3086V8.66797H700.676V7.73047L702.516 6.92188L703.336 4.17969H704.461V7.15625H708.188V8.66797H704.461V16.2266C704.461 17 704.645 17.5938 705.012 18.0078C705.379 18.4219 705.883 18.6289 706.523 18.6289ZM716.285 20.2344C714.387 20.2344 712.887 19.6562 711.785 18.5C710.691 17.3438 710.145 15.7383 710.145 13.6836C710.145 11.6133 710.652 9.96875 711.668 8.75C712.691 7.53125 714.062 6.92188 715.781 6.92188C717.391 6.92188 718.664 7.45312 719.602 8.51562C720.539 9.57031 721.008 10.9648 721.008 12.6992V13.9297H712.16C712.199 15.4375 712.578 16.582 713.297 17.3633C714.023 18.1445 715.043 18.5352 716.355 18.5352C717.738 18.5352 719.105 18.2461 720.457 17.668V19.4023C719.77 19.6992 719.117 19.9102 718.5 20.0352C717.891 20.168 717.152 20.2344 716.285 20.2344ZM715.758 8.55078C714.727 8.55078 713.902 8.88672 713.285 9.55859C712.676 10.2305 712.316 11.1602 712.207 12.3477H718.922C718.922 11.1211 718.648 10.1836 718.102 9.53516C717.555 8.87891 716.773 8.55078 715.758 8.55078ZM739.312 18.2773H739.207C738.309 19.582 736.965 20.2344 735.176 20.2344C733.496 20.2344 732.188 19.6602 731.25 18.5117C730.32 17.3633 729.855 15.7305 729.855 13.6133C729.855 11.4961 730.324 9.85156 731.262 8.67969C732.199 7.50781 733.504 6.92188 735.176 6.92188C736.918 6.92188 738.254 7.55469 739.184 8.82031H739.336L739.254 7.89453L739.207 6.99219V1.76562H741.152V20H739.57L739.312 18.2773ZM735.422 18.6055C736.75 18.6055 737.711 18.2461 738.305 17.5273C738.906 16.8008 739.207 15.6328 739.207 14.0234V13.6133C739.207 11.793 738.902 10.4961 738.293 9.72266C737.691 8.94141 736.727 8.55078 735.398 8.55078C734.258 8.55078 733.383 8.99609 732.773 9.88672C732.172 10.7695 731.871 12.0195 731.871 13.6367C731.871 15.2773 732.172 16.5156 732.773 17.3516C733.375 18.1875 734.258 18.6055 735.422 18.6055ZM750.715 20.2344C748.816 20.2344 747.316 19.6562 746.215 18.5C745.121 17.3438 744.574 15.7383 744.574 13.6836C744.574 11.6133 745.082 9.96875 746.098 8.75C747.121 7.53125 748.492 6.92188 750.211 6.92188C751.82 6.92188 753.094 7.45312 754.031 8.51562C754.969 9.57031 755.438 10.9648 755.438 12.6992V13.9297H746.59C746.629 15.4375 747.008 16.582 747.727 17.3633C748.453 18.1445 749.473 18.5352 750.785 18.5352C752.168 18.5352 753.535 18.2461 754.887 17.668V19.4023C754.199 19.6992 753.547 19.9102 752.93 20.0352C752.32 20.168 751.582 20.2344 750.715 20.2344ZM750.188 8.55078C749.156 8.55078 748.332 8.88672 747.715 9.55859C747.105 10.2305 746.746 11.1602 746.637 12.3477H753.352C753.352 11.1211 753.078 10.1836 752.531 9.53516C751.984 8.87891 751.203 8.55078 750.188 8.55078ZM760.711 20H758.766V1.76562H760.711V20ZM781.582 7.15625V8.38672L779.203 8.66797C779.422 8.94141 779.617 9.30078 779.789 9.74609C779.961 10.1836 780.047 10.6797 780.047 11.2344C780.047 12.4922 779.617 13.4961 778.758 14.2461C777.898 14.9961 776.719 15.3711 775.219 15.3711C774.836 15.3711 774.477 15.3398 774.141 15.2773C773.312 15.7148 772.898 16.2656 772.898 16.9297C772.898 17.2812 773.043 17.543 773.332 17.7148C773.621 17.8789 774.117 17.9609 774.82 17.9609H777.094C778.484 17.9609 779.551 18.2539 780.293 18.8398C781.043 19.4258 781.418 20.2773 781.418 21.3945C781.418 22.8164 780.848 23.8984 779.707 24.6406C778.566 25.3906 776.902 25.7656 774.715 25.7656C773.035 25.7656 771.738 25.4531 770.824 24.8281C769.918 24.2031 769.465 23.3203 769.465 22.1797C769.465 21.3984 769.715 20.7227 770.215 20.1523C770.715 19.582 771.418 19.1953 772.324 18.9922C771.996 18.8438 771.719 18.6133 771.492 18.3008C771.273 17.9883 771.164 17.625 771.164 17.2109C771.164 16.7422 771.289 16.332 771.539 15.9805C771.789 15.6289 772.184 15.2891 772.723 14.9609C772.059 14.6875 771.516 14.2227 771.094 13.5664C770.68 12.9102 770.473 12.1602 770.473 11.3164C770.473 9.91016 770.895 8.82812 771.738 8.07031C772.582 7.30469 773.777 6.92188 775.324 6.92188C775.996 6.92188 776.602 7 777.141 7.15625H781.582ZM771.34 22.1562C771.34 22.8516 771.633 23.3789 772.219 23.7383C772.805 24.0977 773.645 24.2773 774.738 24.2773C776.371 24.2773 777.578 24.0312 778.359 23.5391C779.148 23.0547 779.543 22.3945 779.543 21.5586C779.543 20.8633 779.328 20.3789 778.898 20.1055C778.469 19.8398 777.66 19.707 776.473 19.707H774.141C773.258 19.707 772.57 19.918 772.078 20.3398C771.586 20.7617 771.34 21.3672 771.34 22.1562ZM772.395 11.2695C772.395 12.168 772.648 12.8477 773.156 13.3086C773.664 13.7695 774.371 14 775.277 14C777.176 14 778.125 13.0781 778.125 11.2344C778.125 9.30469 777.164 8.33984 775.242 8.33984C774.328 8.33984 773.625 8.58594 773.133 9.07812C772.641 9.57031 772.395 10.3008 772.395 11.2695ZM790.078 6.92188C790.648 6.92188 791.16 6.96875 791.613 7.0625L791.344 8.86719C790.812 8.75 790.344 8.69141 789.938 8.69141C788.898 8.69141 788.008 9.11328 787.266 9.95703C786.531 10.8008 786.164 11.8516 786.164 13.1094V20H784.219V7.15625H785.824L786.047 9.53516H786.141C786.617 8.69922 787.191 8.05469 787.863 7.60156C788.535 7.14844 789.273 6.92188 790.078 6.92188ZM795.844 7.15625V15.4883C795.844 16.5352 796.082 17.3164 796.559 17.832C797.035 18.3477 797.781 18.6055 798.797 18.6055C800.141 18.6055 801.121 18.2383 801.738 17.5039C802.363 16.7695 802.676 15.5703 802.676 13.9062V7.15625H804.621V20H803.016L802.734 18.2773H802.629C802.23 18.9102 801.676 19.3945 800.965 19.7305C800.262 20.0664 799.457 20.2344 798.551 20.2344C796.988 20.2344 795.816 19.8633 795.035 19.1211C794.262 18.3789 793.875 17.1914 793.875 15.5586V7.15625H795.844ZM814.734 20.2344C813.898 20.2344 813.133 20.082 812.438 19.7773C811.75 19.4648 811.172 18.9883 810.703 18.3477H810.562C810.656 19.0977 810.703 19.8086 810.703 20.4805V25.7656H808.758V7.15625H810.34L810.609 8.91406H810.703C811.203 8.21094 811.785 7.70312 812.449 7.39062C813.113 7.07812 813.875 6.92188 814.734 6.92188C816.438 6.92188 817.75 7.50391 818.672 8.66797C819.602 9.83203 820.066 11.4648 820.066 13.5664C820.066 15.6758 819.594 17.3164 818.648 18.4883C817.711 19.6523 816.406 20.2344 814.734 20.2344ZM814.453 8.57422C813.141 8.57422 812.191 8.9375 811.605 9.66406C811.02 10.3906 810.719 11.5469 810.703 13.1328V13.5664C810.703 15.3711 811.004 16.6641 811.605 17.4453C812.207 18.2188 813.172 18.6055 814.5 18.6055C815.609 18.6055 816.477 18.1562 817.102 17.2578C817.734 16.3594 818.051 15.1211 818.051 13.543C818.051 11.9414 817.734 10.7148 817.102 9.86328C816.477 9.00391 815.594 8.57422 814.453 8.57422ZM834.562 13.5664C834.562 15.6602 834.035 17.2969 832.98 18.4766C831.926 19.6484 830.469 20.2344 828.609 20.2344C827.461 20.2344 826.441 19.9648 825.551 19.4258C824.66 18.8867 823.973 18.1133 823.488 17.1055C823.004 16.0977 822.762 14.918 822.762 13.5664C822.762 11.4727 823.285 9.84375 824.332 8.67969C825.379 7.50781 826.832 6.92188 828.691 6.92188C830.488 6.92188 831.914 7.51953 832.969 8.71484C834.031 9.91016 834.562 11.5273 834.562 13.5664ZM824.777 13.5664C824.777 15.207 825.105 16.457 825.762 17.3164C826.418 18.1758 827.383 18.6055 828.656 18.6055C829.93 18.6055 830.895 18.1797 831.551 17.3281C832.215 16.4688 832.547 15.2148 832.547 13.5664C832.547 11.9336 832.215 10.6953 831.551 9.85156C830.895 9 829.922 8.57422 828.633 8.57422C827.359 8.57422 826.398 8.99219 825.75 9.82812C825.102 10.6641 824.777 11.9102 824.777 13.5664ZM837.703 18.7578C837.703 18.2344 837.82 17.8398 838.055 17.5742C838.297 17.3008 838.641 17.1641 839.086 17.1641C839.539 17.1641 839.891 17.3008 840.141 17.5742C840.398 17.8398 840.527 18.2344 840.527 18.7578C840.527 19.2656 840.398 19.6562 840.141 19.9297C839.883 20.2031 839.531 20.3398 839.086 20.3398C838.688 20.3398 838.355 20.2188 838.09 19.9766C837.832 19.7266 837.703 19.3203 837.703 18.7578Z" fill="black"/>
<path d="M45.4931 82.6914V75.6028L39.4406 79.1842C39.0441 79.504 38.5631 79.3428 38.3252 78.9489L37.128 76.7156C36.8927 76.3165 36.972 75.8407 37.4478 75.6028L43.5055 72.2593L37.4478 68.7521C36.972 68.5116 36.8927 68.0358 37.128 67.6368L38.3252 65.4035C38.5631 65.0096 39.0441 64.8484 39.4406 65.1681L45.4931 68.8314V61.661C45.4931 61.18 45.8129 60.8679 46.2913 60.8679H48.6806C49.1615 60.8679 49.4762 61.1826 49.4762 61.661L49.3943 68.8314L55.5313 65.1681C55.9278 64.8484 56.4062 65.0096 56.6441 65.4035L57.8387 67.6368C58.0792 68.0358 57.9999 68.5116 57.5189 68.7521L51.4689 72.2593L57.5189 75.6028C57.9999 75.8407 58.0792 76.3165 57.8387 76.7156L56.6441 78.9489C56.4062 79.3428 55.9278 79.504 55.5313 79.1842L49.3943 75.6028L49.4762 82.6914C49.4762 83.1672 49.1615 83.487 48.6806 83.487H46.2913C45.8129 83.487 45.4931 83.1672 45.4931 82.6914Z" fill="#2BB673"/>
<path d="M80.3555 80V62.8672H82.3477V78.1953H89.9062V80H80.3555ZM97.957 80.2344C96.0586 80.2344 94.5586 79.6562 93.457 78.5C92.3633 77.3438 91.8164 75.7383 91.8164 73.6836C91.8164 71.6133 92.3242 69.9688 93.3398 68.75C94.3633 67.5312 95.7344 66.9219 97.4531 66.9219C99.0625 66.9219 100.336 67.4531 101.273 68.5156C102.211 69.5703 102.68 70.9648 102.68 72.6992V73.9297H93.832C93.8711 75.4375 94.25 76.582 94.9688 77.3633C95.6953 78.1445 96.7148 78.5352 98.0273 78.5352C99.4102 78.5352 100.777 78.2461 102.129 77.668V79.4023C101.441 79.6992 100.789 79.9102 100.172 80.0352C99.5625 80.168 98.8242 80.2344 97.957 80.2344ZM97.4297 68.5508C96.3984 68.5508 95.5742 68.8867 94.957 69.5586C94.3477 70.2305 93.9883 71.1602 93.8789 72.3477H100.594C100.594 71.1211 100.32 70.1836 99.7734 69.5352C99.2266 68.8789 98.4453 68.5508 97.4297 68.5508ZM111.434 80.2344C109.535 80.2344 108.035 79.6562 106.934 78.5C105.84 77.3438 105.293 75.7383 105.293 73.6836C105.293 71.6133 105.801 69.9688 106.816 68.75C107.84 67.5312 109.211 66.9219 110.93 66.9219C112.539 66.9219 113.812 67.4531 114.75 68.5156C115.688 69.5703 116.156 70.9648 116.156 72.6992V73.9297H107.309C107.348 75.4375 107.727 76.582 108.445 77.3633C109.172 78.1445 110.191 78.5352 111.504 78.5352C112.887 78.5352 114.254 78.2461 115.605 77.668V79.4023C114.918 79.6992 114.266 79.9102 113.648 80.0352C113.039 80.168 112.301 80.2344 111.434 80.2344ZM110.906 68.5508C109.875 68.5508 109.051 68.8867 108.434 69.5586C107.824 70.2305 107.465 71.1602 107.355 72.3477H114.07C114.07 71.1211 113.797 70.1836 113.25 69.5352C112.703 68.8789 111.922 68.5508 110.906 68.5508ZM130.852 80.2344C128.992 80.2344 127.551 79.6641 126.527 78.5234C125.512 77.375 125.004 75.7539 125.004 73.6602C125.004 71.5117 125.52 69.8516 126.551 68.6797C127.59 67.5078 129.066 66.9219 130.98 66.9219C131.598 66.9219 132.215 66.9883 132.832 67.1211C133.449 67.2539 133.934 67.4102 134.285 67.5898L133.688 69.2422C133.258 69.0703 132.789 68.9297 132.281 68.8203C131.773 68.7031 131.324 68.6445 130.934 68.6445C128.324 68.6445 127.02 70.3086 127.02 73.6367C127.02 75.2148 127.336 76.4258 127.969 77.2695C128.609 78.1133 129.555 78.5352 130.805 78.5352C131.875 78.5352 132.973 78.3047 134.098 77.8438V79.5664C133.238 80.0117 132.156 80.2344 130.852 80.2344ZM148.242 73.5664C148.242 75.6602 147.715 77.2969 146.66 78.4766C145.605 79.6484 144.148 80.2344 142.289 80.2344C141.141 80.2344 140.121 79.9648 139.23 79.4258C138.34 78.8867 137.652 78.1133 137.168 77.1055C136.684 76.0977 136.441 74.918 136.441 73.5664C136.441 71.4727 136.965 69.8438 138.012 68.6797C139.059 67.5078 140.512 66.9219 142.371 66.9219C144.168 66.9219 145.594 67.5195 146.648 68.7148C147.711 69.9102 148.242 71.5273 148.242 73.5664ZM138.457 73.5664C138.457 75.207 138.785 76.457 139.441 77.3164C140.098 78.1758 141.062 78.6055 142.336 78.6055C143.609 78.6055 144.574 78.1797 145.23 77.3281C145.895 76.4688 146.227 75.2148 146.227 73.5664C146.227 71.9336 145.895 70.6953 145.23 69.8516C144.574 69 143.602 68.5742 142.312 68.5742C141.039 68.5742 140.078 68.9922 139.43 69.8281C138.781 70.6641 138.457 71.9102 138.457 73.5664ZM160.453 80V71.6914C160.453 70.6445 160.215 69.8633 159.738 69.3477C159.262 68.832 158.516 68.5742 157.5 68.5742C156.156 68.5742 155.172 68.9375 154.547 69.6641C153.922 70.3906 153.609 71.5898 153.609 73.2617V80H151.664V67.1562H153.246L153.562 68.9141H153.656C154.055 68.2812 154.613 67.793 155.332 67.4492C156.051 67.0977 156.852 66.9219 157.734 66.9219C159.281 66.9219 160.445 67.2969 161.227 68.0469C162.008 68.7891 162.398 69.9805 162.398 71.6211V80H160.453ZM180.539 80L180.152 78.1719H180.059C179.418 78.9766 178.777 79.5234 178.137 79.8125C177.504 80.0938 176.711 80.2344 175.758 80.2344C174.484 80.2344 173.484 79.9062 172.758 79.25C172.039 78.5938 171.68 77.6602 171.68 76.4492C171.68 73.8555 173.754 72.4961 177.902 72.3711L180.082 72.3008V71.5039C180.082 70.4961 179.863 69.7539 179.426 69.2773C178.996 68.793 178.305 68.5508 177.352 68.5508C176.281 68.5508 175.07 68.8789 173.719 69.5352L173.121 68.0469C173.754 67.7031 174.445 67.4336 175.195 67.2383C175.953 67.043 176.711 66.9453 177.469 66.9453C179 66.9453 180.133 67.2852 180.867 67.9648C181.609 68.6445 181.98 69.7344 181.98 71.2344V80H180.539ZM176.145 78.6289C177.355 78.6289 178.305 78.2969 178.992 77.6328C179.688 76.9688 180.035 76.0391 180.035 74.8438V73.6836L178.09 73.7656C176.543 73.8203 175.426 74.0625 174.738 74.4922C174.059 74.9141 173.719 75.5742 173.719 76.4727C173.719 77.1758 173.93 77.7109 174.352 78.0781C174.781 78.4453 175.379 78.6289 176.145 78.6289ZM190.148 78.6289C190.492 78.6289 190.824 78.6055 191.145 78.5586C191.465 78.5039 191.719 78.4492 191.906 78.3945V79.8828C191.695 79.9844 191.383 80.0664 190.969 80.1289C190.562 80.1992 190.195 80.2344 189.867 80.2344C187.383 80.2344 186.141 78.9258 186.141 76.3086V68.668H184.301V67.7305L186.141 66.9219L186.961 64.1797H188.086V67.1562H191.812V68.668H188.086V76.2266C188.086 77 188.27 77.5938 188.637 78.0078C189.004 78.4219 189.508 78.6289 190.148 78.6289ZM199.91 80.2344C198.012 80.2344 196.512 79.6562 195.41 78.5C194.316 77.3438 193.77 75.7383 193.77 73.6836C193.77 71.6133 194.277 69.9688 195.293 68.75C196.316 67.5312 197.688 66.9219 199.406 66.9219C201.016 66.9219 202.289 67.4531 203.227 68.5156C204.164 69.5703 204.633 70.9648 204.633 72.6992V73.9297H195.785C195.824 75.4375 196.203 76.582 196.922 77.3633C197.648 78.1445 198.668 78.5352 199.98 78.5352C201.363 78.5352 202.73 78.2461 204.082 77.668V79.4023C203.395 79.6992 202.742 79.9102 202.125 80.0352C201.516 80.168 200.777 80.2344 199.91 80.2344ZM199.383 68.5508C198.352 68.5508 197.527 68.8867 196.91 69.5586C196.301 70.2305 195.941 71.1602 195.832 72.3477H202.547C202.547 71.1211 202.273 70.1836 201.727 69.5352C201.18 68.8789 200.398 68.5508 199.383 68.5508ZM216.75 80V71.6914C216.75 70.6445 216.512 69.8633 216.035 69.3477C215.559 68.832 214.812 68.5742 213.797 68.5742C212.453 68.5742 211.469 68.9375 210.844 69.6641C210.219 70.3906 209.906 71.5898 209.906 73.2617V80H207.961V67.1562H209.543L209.859 68.9141H209.953C210.352 68.2812 210.91 67.793 211.629 67.4492C212.348 67.0977 213.148 66.9219 214.031 66.9219C215.578 66.9219 216.742 67.2969 217.523 68.0469C218.305 68.7891 218.695 69.9805 218.695 71.6211V80H216.75ZM227.836 80.2344C225.977 80.2344 224.535 79.6641 223.512 78.5234C222.496 77.375 221.988 75.7539 221.988 73.6602C221.988 71.5117 222.504 69.8516 223.535 68.6797C224.574 67.5078 226.051 66.9219 227.965 66.9219C228.582 66.9219 229.199 66.9883 229.816 67.1211C230.434 67.2539 230.918 67.4102 231.27 67.5898L230.672 69.2422C230.242 69.0703 229.773 68.9297 229.266 68.8203C228.758 68.7031 228.309 68.6445 227.918 68.6445C225.309 68.6445 224.004 70.3086 224.004 73.6367C224.004 75.2148 224.32 76.4258 224.953 77.2695C225.594 78.1133 226.539 78.5352 227.789 78.5352C228.859 78.5352 229.957 78.3047 231.082 77.8438V79.5664C230.223 80.0117 229.141 80.2344 227.836 80.2344ZM236.086 80H234.141V67.1562H236.086V80ZM233.977 63.6758C233.977 63.2305 234.086 62.9062 234.305 62.7031C234.523 62.4922 234.797 62.3867 235.125 62.3867C235.438 62.3867 235.707 62.4922 235.934 62.7031C236.16 62.9141 236.273 63.2383 236.273 63.6758C236.273 64.1133 236.16 64.4414 235.934 64.6602C235.707 64.8711 235.438 64.9766 235.125 64.9766C234.797 64.9766 234.523 64.8711 234.305 64.6602C234.086 64.4414 233.977 64.1133 233.977 63.6758ZM251.297 73.5664C251.297 75.6602 250.77 77.2969 249.715 78.4766C248.66 79.6484 247.203 80.2344 245.344 80.2344C244.195 80.2344 243.176 79.9648 242.285 79.4258C241.395 78.8867 240.707 78.1133 240.223 77.1055C239.738 76.0977 239.496 74.918 239.496 73.5664C239.496 71.4727 240.02 69.8438 241.066 68.6797C242.113 67.5078 243.566 66.9219 245.426 66.9219C247.223 66.9219 248.648 67.5195 249.703 68.7148C250.766 69.9102 251.297 71.5273 251.297 73.5664ZM241.512 73.5664C241.512 75.207 241.84 76.457 242.496 77.3164C243.152 78.1758 244.117 78.6055 245.391 78.6055C246.664 78.6055 247.629 78.1797 248.285 77.3281C248.949 76.4688 249.281 75.2148 249.281 73.5664C249.281 71.9336 248.949 70.6953 248.285 69.8516C247.629 69 246.656 68.5742 245.367 68.5742C244.094 68.5742 243.133 68.9922 242.484 69.8281C241.836 70.6641 241.512 71.9102 241.512 73.5664ZM243.762 65.1641C244.137 64.6797 244.539 64.0938 244.969 63.4062C245.406 62.7188 245.75 62.1211 246 61.6133H248.367V61.8594C248.023 62.3672 247.512 62.9922 246.832 63.7344C246.152 64.4766 245.562 65.0508 245.062 65.457H243.762V65.1641ZM263.508 80V71.6914C263.508 70.6445 263.27 69.8633 262.793 69.3477C262.316 68.832 261.57 68.5742 260.555 68.5742C259.211 68.5742 258.227 68.9375 257.602 69.6641C256.977 70.3906 256.664 71.5898 256.664 73.2617V80H254.719V67.1562H256.301L256.617 68.9141H256.711C257.109 68.2812 257.668 67.793 258.387 67.4492C259.105 67.0977 259.906 66.9219 260.789 66.9219C262.336 66.9219 263.5 67.2969 264.281 68.0469C265.062 68.7891 265.453 69.9805 265.453 71.6211V80H263.508ZM273.656 67.1562H275.742L278.555 74.4805C279.172 76.1523 279.555 77.3594 279.703 78.1016H279.797C279.898 77.7031 280.109 77.0234 280.43 76.0625C280.758 75.0938 281.82 72.125 283.617 67.1562H285.703L280.184 81.7812C279.637 83.2266 278.996 84.25 278.262 84.8516C277.535 85.4609 276.641 85.7656 275.578 85.7656C274.984 85.7656 274.398 85.6992 273.82 85.5664V84.0078C274.25 84.1016 274.73 84.1484 275.262 84.1484C276.598 84.1484 277.551 83.3984 278.121 81.8984L278.836 80.0703L273.656 67.1562ZM310.395 80V71.6445C310.395 70.6211 310.176 69.8555 309.738 69.3477C309.301 68.832 308.621 68.5742 307.699 68.5742C306.488 68.5742 305.594 68.9219 305.016 69.6172C304.438 70.3125 304.148 71.3828 304.148 72.8281V80H302.203V71.6445C302.203 70.6211 301.984 69.8555 301.547 69.3477C301.109 68.832 300.426 68.5742 299.496 68.5742C298.277 68.5742 297.383 68.9414 296.812 69.6758C296.25 70.4023 295.969 71.5977 295.969 73.2617V80H294.023V67.1562H295.605L295.922 68.9141H296.016C296.383 68.2891 296.898 67.8008 297.562 67.4492C298.234 67.0977 298.984 66.9219 299.812 66.9219C301.82 66.9219 303.133 67.6484 303.75 69.1016H303.844C304.227 68.4297 304.781 67.8984 305.508 67.5078C306.234 67.1172 307.062 66.9219 307.992 66.9219C309.445 66.9219 310.531 67.2969 311.25 68.0469C311.977 68.7891 312.34 69.9805 312.34 71.6211V80H310.395ZM324.258 80L323.871 78.1719H323.777C323.137 78.9766 322.496 79.5234 321.855 79.8125C321.223 80.0938 320.43 80.2344 319.477 80.2344C318.203 80.2344 317.203 79.9062 316.477 79.25C315.758 78.5938 315.398 77.6602 315.398 76.4492C315.398 73.8555 317.473 72.4961 321.621 72.3711L323.801 72.3008V71.5039C323.801 70.4961 323.582 69.7539 323.145 69.2773C322.715 68.793 322.023 68.5508 321.07 68.5508C320 68.5508 318.789 68.8789 317.438 69.5352L316.84 68.0469C317.473 67.7031 318.164 67.4336 318.914 67.2383C319.672 67.043 320.43 66.9453 321.188 66.9453C322.719 66.9453 323.852 67.2852 324.586 67.9648C325.328 68.6445 325.699 69.7344 325.699 71.2344V80H324.258ZM319.863 78.6289C321.074 78.6289 322.023 78.2969 322.711 77.6328C323.406 76.9688 323.754 76.0391 323.754 74.8438V73.6836L321.809 73.7656C320.262 73.8203 319.145 74.0625 318.457 74.4922C317.777 74.9141 317.438 75.5742 317.438 76.4727C317.438 77.1758 317.648 77.7109 318.07 78.0781C318.5 78.4453 319.098 78.6289 319.863 78.6289ZM319.406 65.1641C319.781 64.6797 320.184 64.0938 320.613 63.4062C321.051 62.7188 321.395 62.1211 321.645 61.6133H324.012V61.8594C323.668 62.3672 323.156 62.9922 322.477 63.7344C321.797 64.4766 321.207 65.0508 320.707 65.457H319.406V65.1641ZM335.578 66.9219C336.148 66.9219 336.66 66.9688 337.113 67.0625L336.844 68.8672C336.312 68.75 335.844 68.6914 335.438 68.6914C334.398 68.6914 333.508 69.1133 332.766 69.957C332.031 70.8008 331.664 71.8516 331.664 73.1094V80H329.719V67.1562H331.324L331.547 69.5352H331.641C332.117 68.6992 332.691 68.0547 333.363 67.6016C334.035 67.1484 334.773 66.9219 335.578 66.9219ZM344.648 80.2344C342.789 80.2344 341.348 79.6641 340.324 78.5234C339.309 77.375 338.801 75.7539 338.801 73.6602C338.801 71.5117 339.316 69.8516 340.348 68.6797C341.387 67.5078 342.863 66.9219 344.777 66.9219C345.395 66.9219 346.012 66.9883 346.629 67.1211C347.246 67.2539 347.73 67.4102 348.082 67.5898L347.484 69.2422C347.055 69.0703 346.586 68.9297 346.078 68.8203C345.57 68.7031 345.121 68.6445 344.73 68.6445C342.121 68.6445 340.816 70.3086 340.816 73.6367C340.816 75.2148 341.133 76.4258 341.766 77.2695C342.406 78.1133 343.352 78.5352 344.602 78.5352C345.672 78.5352 346.77 78.3047 347.895 77.8438V79.5664C347.035 80.0117 345.953 80.2344 344.648 80.2344ZM358.852 80L358.465 78.1719H358.371C357.73 78.9766 357.09 79.5234 356.449 79.8125C355.816 80.0938 355.023 80.2344 354.07 80.2344C352.797 80.2344 351.797 79.9062 351.07 79.25C350.352 78.5938 349.992 77.6602 349.992 76.4492C349.992 73.8555 352.066 72.4961 356.215 72.3711L358.395 72.3008V71.5039C358.395 70.4961 358.176 69.7539 357.738 69.2773C357.309 68.793 356.617 68.5508 355.664 68.5508C354.594 68.5508 353.383 68.8789 352.031 69.5352L351.434 68.0469C352.066 67.7031 352.758 67.4336 353.508 67.2383C354.266 67.043 355.023 66.9453 355.781 66.9453C357.312 66.9453 358.445 67.2852 359.18 67.9648C359.922 68.6445 360.293 69.7344 360.293 71.2344V80H358.852ZM354.457 78.6289C355.668 78.6289 356.617 78.2969 357.305 77.6328C358 76.9688 358.348 76.0391 358.348 74.8438V73.6836L356.402 73.7656C354.855 73.8203 353.738 74.0625 353.051 74.4922C352.371 74.9141 352.031 75.5742 352.031 76.4727C352.031 77.1758 352.242 77.7109 352.664 78.0781C353.094 78.4453 353.691 78.6289 354.457 78.6289ZM366.258 80H364.312V61.7656H366.258V80ZM378.281 80L377.895 78.1719H377.801C377.16 78.9766 376.52 79.5234 375.879 79.8125C375.246 80.0938 374.453 80.2344 373.5 80.2344C372.227 80.2344 371.227 79.9062 370.5 79.25C369.781 78.5938 369.422 77.6602 369.422 76.4492C369.422 73.8555 371.496 72.4961 375.645 72.3711L377.824 72.3008V71.5039C377.824 70.4961 377.605 69.7539 377.168 69.2773C376.738 68.793 376.047 68.5508 375.094 68.5508C374.023 68.5508 372.812 68.8789 371.461 69.5352L370.863 68.0469C371.496 67.7031 372.188 67.4336 372.938 67.2383C373.695 67.043 374.453 66.9453 375.211 66.9453C376.742 66.9453 377.875 67.2852 378.609 67.9648C379.352 68.6445 379.723 69.7344 379.723 71.2344V80H378.281ZM373.887 78.6289C375.098 78.6289 376.047 78.2969 376.734 77.6328C377.43 76.9688 377.777 76.0391 377.777 74.8438V73.6836L375.832 73.7656C374.285 73.8203 373.168 74.0625 372.48 74.4922C371.801 74.9141 371.461 75.5742 371.461 76.4727C371.461 77.1758 371.672 77.7109 372.094 78.0781C372.523 78.4453 373.121 78.6289 373.887 78.6289ZM383.461 78.7578C383.461 78.2344 383.578 77.8398 383.812 77.5742C384.055 77.3008 384.398 77.1641 384.844 77.1641C385.297 77.1641 385.648 77.3008 385.898 77.5742C386.156 77.8398 386.285 78.2344 386.285 78.7578C386.285 79.2656 386.156 79.6562 385.898 79.9297C385.641 80.2031 385.289 80.3398 384.844 80.3398C384.445 80.3398 384.113 80.2188 383.848 79.9766C383.59 79.7266 383.461 79.3203 383.461 78.7578Z" fill="black"/>
<rect y="151" width="233.887" height="60.8485" rx="8" fill="#D2D1C2"/>
<path d="M83.241 195.508H80.5018V171.95H93.6341V174.383H83.241V183.004H93.0057V185.437H83.241V195.508ZM97.5496 195.508V171.95H100.289V193.026H110.682V195.508H97.5496ZM135.142 183.697C135.142 187.467 134.186 190.432 132.274 192.591C130.372 194.75 127.724 195.83 124.33 195.83C120.86 195.83 118.18 194.772 116.289 192.656C114.409 190.529 113.47 187.532 113.47 183.665C113.47 179.83 114.415 176.859 116.305 174.754C118.196 172.638 120.882 171.58 124.362 171.58C127.746 171.58 130.388 172.654 132.29 174.802C134.191 176.951 135.142 179.916 135.142 183.697ZM116.37 183.697C116.37 186.887 117.047 189.31 118.4 190.964C119.764 192.607 121.741 193.429 124.33 193.429C126.94 193.429 128.911 192.607 130.243 190.964C131.575 189.32 132.242 186.898 132.242 183.697C132.242 180.528 131.575 178.127 130.243 176.494C128.922 174.851 126.962 174.029 124.362 174.029C121.752 174.029 119.764 174.856 118.4 176.51C117.047 178.154 116.37 180.549 116.37 183.697ZM143.15 185.711V195.508H140.411V171.95H146.872C149.762 171.95 151.894 172.503 153.269 173.61C154.655 174.716 155.348 176.381 155.348 178.605C155.348 181.72 153.769 183.826 150.611 184.921L157.008 195.508H153.769L148.065 185.711H143.15ZM143.15 183.358H146.905C148.838 183.358 150.256 182.977 151.158 182.214C152.061 181.441 152.512 180.286 152.512 178.75C152.512 177.192 152.05 176.07 151.126 175.382C150.213 174.695 148.742 174.351 146.711 174.351H143.15V183.358Z" fill="black"/>
<rect x="246.705" y="151" width="233.887" height="60.8485" rx="8" fill="#D2D1C2"/>
<path d="M295.351 195.508H292.612V171.95H305.744V174.383H295.351V183.004H305.116V185.437H295.351V195.508ZM309.659 195.508V171.95H312.399V193.026H322.792V195.508H309.659ZM347.252 183.697C347.252 187.467 346.296 190.432 344.384 192.591C342.482 194.75 339.834 195.83 336.44 195.83C332.97 195.83 330.29 194.772 328.399 192.656C326.519 190.529 325.579 187.532 325.579 183.665C325.579 179.83 326.525 176.859 328.415 174.754C330.306 172.638 332.992 171.58 336.472 171.58C339.856 171.58 342.498 172.654 344.4 174.802C346.301 176.951 347.252 179.916 347.252 183.697ZM328.48 183.697C328.48 186.887 329.157 189.31 330.51 190.964C331.874 192.607 333.851 193.429 336.44 193.429C339.05 193.429 341.021 192.607 342.353 190.964C343.685 189.32 344.351 186.898 344.351 183.697C344.351 180.528 343.685 178.127 342.353 176.494C341.032 174.851 339.072 174.029 336.472 174.029C333.862 174.029 331.874 174.856 330.51 176.51C329.157 178.154 328.48 180.549 328.48 183.697ZM355.26 185.711V195.508H352.521V171.95H358.982C361.872 171.95 364.004 172.503 365.379 173.61C366.765 174.716 367.458 176.381 367.458 178.605C367.458 181.72 365.879 183.826 362.721 184.921L369.117 195.508H365.879L360.175 185.711H355.26ZM355.26 183.358H359.014C360.948 183.358 362.366 182.977 363.268 182.214C364.171 181.441 364.622 180.286 364.622 178.75C364.622 177.192 364.16 176.07 363.236 175.382C362.323 174.695 360.851 174.351 358.821 174.351H355.26V183.358ZM383.007 174.061C380.418 174.061 378.372 174.926 376.868 176.655C375.375 178.374 374.628 180.732 374.628 183.729C374.628 186.812 375.348 189.197 376.787 190.883C378.238 192.559 380.3 193.397 382.975 193.397C384.618 193.397 386.493 193.102 388.598 192.511V194.912C386.966 195.524 384.951 195.83 382.556 195.83C379.086 195.83 376.406 194.777 374.515 192.672C372.636 190.566 371.696 187.575 371.696 183.697C371.696 181.269 372.147 179.142 373.049 177.316C373.962 175.49 375.273 174.083 376.981 173.094C378.7 172.106 380.719 171.612 383.039 171.612C385.51 171.612 387.669 172.063 389.517 172.965L388.357 175.318C386.574 174.48 384.79 174.061 383.007 174.061ZM393.739 195.508V171.95H396.478V195.508H393.739ZM410.206 195.508H407.467V174.383H400.007V171.95H417.667V174.383H410.206V195.508ZM436.036 195.508L433.103 188.015H423.661L420.761 195.508H417.989L427.303 171.854H429.607L438.872 195.508H436.036ZM432.249 185.55L429.51 178.25C429.156 177.327 428.79 176.193 428.414 174.851C428.178 175.882 427.84 177.015 427.399 178.25L424.628 185.55H432.249Z" fill="black"/>
<rect x="493.41" y="151" width="233.887" height="60.8485" rx="8" fill="#D82A2A"/>
<path d="M562.198 195.508H559.458V171.95H572.591V174.383H562.198V183.004H571.962V185.437H562.198V195.508ZM594.295 171.95V187.193C594.295 189.879 593.484 191.99 591.862 193.526C590.24 195.062 588.011 195.83 585.175 195.83C582.339 195.83 580.142 195.057 578.585 193.51C577.038 191.963 576.264 189.836 576.264 187.129V171.95H579.004V187.322C579.004 189.288 579.541 190.797 580.615 191.85C581.689 192.903 583.268 193.429 585.352 193.429C587.34 193.429 588.87 192.903 589.945 191.85C591.019 190.787 591.556 189.267 591.556 187.29V171.95H594.295ZM613.679 195.508H600.547V171.95H613.679V174.383H603.286V181.973H613.051V184.39H603.286V193.059H613.679V195.508ZM629.277 183.165H637.285V194.622C636.039 195.019 634.772 195.32 633.483 195.524C632.194 195.728 630.7 195.83 629.003 195.83C625.437 195.83 622.66 194.772 620.673 192.656C618.685 190.529 617.692 187.553 617.692 183.729C617.692 181.28 618.18 179.137 619.158 177.3C620.146 175.452 621.564 174.045 623.412 173.078C625.26 172.101 627.424 171.612 629.906 171.612C632.419 171.612 634.761 172.074 636.931 172.998L635.867 175.415C633.741 174.512 631.694 174.061 629.728 174.061C626.86 174.061 624.62 174.915 623.009 176.623C621.398 178.331 620.592 180.7 620.592 183.729C620.592 186.909 621.366 189.32 622.912 190.964C624.47 192.607 626.753 193.429 629.761 193.429C631.393 193.429 632.989 193.241 634.546 192.865V185.614H629.277V183.165ZM663.405 183.697C663.405 187.467 662.449 190.432 660.537 192.591C658.636 194.75 655.988 195.83 652.593 195.83C649.123 195.83 646.443 194.772 644.553 192.656C642.673 190.529 641.733 187.532 641.733 183.665C641.733 179.83 642.678 176.859 644.569 174.754C646.459 172.638 649.145 171.58 652.625 171.58C656.009 171.58 658.652 172.654 660.553 174.802C662.454 176.951 663.405 179.916 663.405 183.697ZM644.633 183.697C644.633 186.887 645.31 189.31 646.663 190.964C648.028 192.607 650.004 193.429 652.593 193.429C655.203 193.429 657.175 192.607 658.507 190.964C659.839 189.32 660.505 186.898 660.505 183.697C660.505 180.528 659.839 178.127 658.507 176.494C657.185 174.851 655.225 174.029 652.625 174.029C650.015 174.029 648.028 174.856 646.663 176.51C645.31 178.154 644.633 180.549 644.633 183.697Z" fill="white"/>
<rect x="740.113" y="151" width="233.887" height="60.8485" rx="8" fill="#D2D1C2"/>
<path d="M791.112 195.508H788.372V171.95H801.505V174.383H791.112V183.004H800.876V185.437H791.112V195.508ZM805.42 195.508V171.95H808.159V193.026H818.553V195.508H805.42ZM843.012 183.697C843.012 187.467 842.056 190.432 840.144 192.591C838.243 194.75 835.595 195.83 832.2 195.83C828.731 195.83 826.051 194.772 824.16 192.656C822.28 190.529 821.34 187.532 821.34 183.665C821.34 179.83 822.285 176.859 824.176 174.754C826.067 172.638 828.752 171.58 832.233 171.58C835.617 171.58 838.259 172.654 840.16 174.802C842.062 176.951 843.012 179.916 843.012 183.697ZM824.241 183.697C824.241 186.887 824.917 189.31 826.271 190.964C827.635 192.607 829.612 193.429 832.2 193.429C834.811 193.429 836.782 192.607 838.114 190.964C839.446 189.32 840.112 186.898 840.112 183.697C840.112 180.528 839.446 178.127 838.114 176.494C836.793 174.851 834.832 174.029 832.233 174.029C829.622 174.029 827.635 174.856 826.271 176.51C824.917 178.154 824.241 180.549 824.241 183.697ZM851.021 185.711V195.508H848.282V171.95H854.743C857.633 171.95 859.765 172.503 861.14 173.61C862.526 174.716 863.219 176.381 863.219 178.605C863.219 181.72 861.639 183.826 858.481 184.921L864.878 195.508H861.639L855.935 185.711H851.021ZM851.021 183.358H854.775C856.709 183.358 858.127 182.977 859.029 182.214C859.931 181.441 860.383 180.286 860.383 178.75C860.383 177.192 859.921 176.07 858.997 175.382C858.084 174.695 856.612 174.351 854.582 174.351H851.021V183.358ZM881.813 195.508H868.681V171.95H881.813V174.383H871.42V181.973H881.185V184.39H871.42V193.059H881.813V195.508ZM889.789 185.711V195.508H887.05V171.95H893.512C896.401 171.95 898.533 172.503 899.908 173.61C901.294 174.716 901.987 176.381 901.987 178.605C901.987 181.72 900.408 183.826 897.25 184.921L903.647 195.508H900.408L894.704 185.711H889.789ZM889.789 183.358H893.544C895.477 183.358 896.895 182.977 897.798 182.214C898.7 181.441 899.151 180.286 899.151 178.75C899.151 177.192 898.689 176.07 897.765 175.382C896.852 174.695 895.381 174.351 893.35 174.351H889.789V183.358ZM927.897 183.697C927.897 187.467 926.941 190.432 925.029 192.591C923.128 194.75 920.48 195.83 917.085 195.83C913.616 195.83 910.935 194.772 909.045 192.656C907.165 190.529 906.225 187.532 906.225 183.665C906.225 179.83 907.17 176.859 909.061 174.754C910.951 172.638 913.637 171.58 917.117 171.58C920.501 171.58 923.144 172.654 925.045 174.802C926.947 176.951 927.897 179.916 927.897 183.697ZM909.125 183.697C909.125 186.887 909.802 189.31 911.156 190.964C912.52 192.607 914.496 193.429 917.085 193.429C919.696 193.429 921.667 192.607 922.999 190.964C924.331 189.32 924.997 186.898 924.997 183.697C924.997 180.528 924.331 178.127 922.999 176.494C921.678 174.851 919.717 174.029 917.117 174.029C914.507 174.029 912.52 174.856 911.156 176.51C909.802 178.154 909.125 180.549 909.125 183.697Z" fill="black"/>
<rect y="231" width="233.887" height="60.8485" rx="8" fill="#D2D1C2"/>
<path d="M60.4407 265.711V275.508H57.7015V251.95H64.1629C67.0525 251.95 69.1849 252.503 70.5599 253.61C71.9456 254.716 72.6385 256.381 72.6385 258.605C72.6385 261.72 71.0594 263.826 67.9012 264.921L74.2981 275.508H71.0594L65.3553 265.711H60.4407ZM60.4407 263.358H64.1951C66.1287 263.358 67.5467 262.977 68.449 262.214C69.3514 261.441 69.8025 260.286 69.8025 258.75C69.8025 257.192 69.3406 256.07 68.4168 255.382C67.5037 254.695 66.032 254.351 64.0018 254.351H60.4407V263.358ZM78.1009 275.508V251.95H80.8401V275.508H78.1009ZM105.719 275.508H102.593L89.7186 255.737H89.5896C89.7615 258.057 89.8475 260.184 89.8475 262.118V275.508H87.3177V251.95H90.4114L103.254 271.641H103.383C103.361 271.351 103.313 270.421 103.238 268.853C103.162 267.274 103.136 266.146 103.157 265.469V251.95H105.719V275.508ZM122.283 254.061C119.695 254.061 117.648 254.926 116.144 256.655C114.651 258.374 113.905 260.732 113.905 263.729C113.905 266.812 114.624 269.197 116.064 270.883C117.514 272.559 119.576 273.397 122.251 273.397C123.895 273.397 125.769 273.102 127.875 272.511V274.912C126.242 275.524 124.228 275.83 121.832 275.83C118.363 275.83 115.682 274.777 113.792 272.672C111.912 270.566 110.972 267.575 110.972 263.697C110.972 261.269 111.423 259.142 112.325 257.316C113.239 255.49 114.549 254.083 116.257 253.094C117.976 252.106 119.995 251.612 122.316 251.612C124.786 251.612 126.946 252.063 128.793 252.965L127.633 255.318C125.85 254.48 124.067 254.061 122.283 254.061ZM153.463 263.697C153.463 267.467 152.507 270.432 150.595 272.591C148.693 274.75 146.045 275.83 142.651 275.83C139.181 275.83 136.501 274.772 134.61 272.656C132.73 270.529 131.79 267.532 131.79 263.665C131.79 259.83 132.736 256.859 134.626 254.754C136.517 252.638 139.202 251.58 142.683 251.58C146.067 251.58 148.709 252.654 150.611 254.802C152.512 256.951 153.463 259.916 153.463 263.697ZM134.691 263.697C134.691 266.887 135.367 269.31 136.721 270.964C138.085 272.607 140.062 273.429 142.651 273.429C145.261 273.429 147.232 272.607 148.564 270.964C149.896 269.32 150.562 266.898 150.562 263.697C150.562 260.528 149.896 258.127 148.564 256.494C147.243 254.851 145.283 254.029 142.683 254.029C140.073 254.029 138.085 254.856 136.721 256.51C135.367 258.154 134.691 260.549 134.691 263.697ZM140.395 249.662C140.91 248.996 141.464 248.19 142.054 247.245C142.656 246.3 143.129 245.478 143.472 244.78H146.727V245.118C146.255 245.816 145.551 246.676 144.617 247.696C143.682 248.717 142.871 249.506 142.183 250.065H140.395V249.662ZM177.133 275.508H174.007L161.133 255.737H161.004C161.176 258.057 161.262 260.184 161.262 262.118V275.508H158.732V251.95H161.825L174.668 271.641H174.797C174.775 271.351 174.727 270.421 174.652 268.853C174.576 267.274 174.55 266.146 174.571 265.469V251.95H177.133V275.508Z" fill="black"/>
<rect x="246.705" y="231" width="233.887" height="60.8485" rx="8" fill="#D2D1C2"/>
<path d="M335.795 265.711V275.508H333.056V251.95H339.517C342.407 251.95 344.539 252.503 345.914 253.61C347.3 254.716 347.993 256.381 347.993 258.605C347.993 261.72 346.414 263.826 343.256 264.921L349.653 275.508H346.414L340.71 265.711H335.795ZM335.795 263.358H339.55C341.483 263.358 342.901 262.977 343.804 262.214C344.706 261.441 345.157 260.286 345.157 258.75C345.157 257.192 344.695 256.07 343.771 255.382C342.858 254.695 341.387 254.351 339.356 254.351H335.795V263.358ZM353.455 275.508V251.95H356.195V275.508H353.455ZM375.966 269.24C375.966 271.313 375.214 272.93 373.71 274.09C372.206 275.25 370.165 275.83 367.587 275.83C364.794 275.83 362.645 275.47 361.141 274.75V272.108C362.108 272.516 363.161 272.838 364.3 273.075C365.438 273.311 366.566 273.429 367.683 273.429C369.51 273.429 370.885 273.085 371.808 272.398C372.732 271.7 373.194 270.733 373.194 269.498C373.194 268.681 373.028 268.015 372.695 267.5C372.372 266.973 371.825 266.49 371.051 266.049C370.288 265.609 369.123 265.109 367.554 264.551C365.363 263.767 363.795 262.837 362.849 261.763C361.915 260.689 361.448 259.287 361.448 257.558C361.448 255.742 362.13 254.297 363.494 253.223C364.858 252.149 366.663 251.612 368.908 251.612C371.25 251.612 373.404 252.042 375.369 252.901L374.515 255.286C372.571 254.469 370.68 254.061 368.844 254.061C367.393 254.061 366.26 254.373 365.444 254.996C364.627 255.619 364.219 256.483 364.219 257.59C364.219 258.406 364.369 259.078 364.67 259.604C364.971 260.12 365.476 260.598 366.185 261.038C366.905 261.468 368 261.946 369.472 262.472C371.943 263.353 373.64 264.298 374.564 265.308C375.498 266.318 375.966 267.628 375.966 269.24ZM395.592 275.508L392.659 268.015H383.217L380.316 275.508H377.545L386.858 251.854H389.162L398.428 275.508H395.592ZM391.805 265.55L389.066 258.25C388.711 257.327 388.346 256.193 387.97 254.851C387.734 255.882 387.395 257.015 386.955 258.25L384.183 265.55H391.805Z" fill="black"/>
<rect x="493.41" y="231" width="233.887" height="60.8485" rx="8" fill="#D2D1C2"/>
<path d="M524.025 265.711V275.508H521.286V251.95H527.747C530.637 251.95 532.769 252.503 534.144 253.61C535.53 254.716 536.223 256.381 536.223 258.605C536.223 261.72 534.644 263.826 531.486 264.921L537.883 275.508H534.644L528.94 265.711H524.025ZM524.025 263.358H527.78C529.713 263.358 531.131 262.977 532.033 262.214C532.936 261.441 533.387 260.286 533.387 258.75C533.387 257.192 532.925 256.07 532.001 255.382C531.088 254.695 529.617 254.351 527.586 254.351H524.025V263.358ZM541.685 275.508V251.95H544.425V275.508H541.685ZM569.304 275.508H566.178L553.303 255.737H553.174C553.346 258.057 553.432 260.184 553.432 262.118V275.508H550.902V251.95H553.996L566.838 271.641H566.967C566.946 271.351 566.897 270.421 566.822 268.853C566.747 267.274 566.72 266.146 566.742 265.469V251.95H569.304V275.508ZM585.868 254.061C583.279 254.061 581.233 254.926 579.729 256.655C578.236 258.374 577.489 260.732 577.489 263.729C577.489 266.812 578.209 269.197 579.648 270.883C581.098 272.559 583.161 273.397 585.836 273.397C587.479 273.397 589.354 273.102 591.459 272.511V274.912C589.826 275.524 587.812 275.83 585.417 275.83C581.947 275.83 579.267 274.777 577.376 272.672C575.496 270.566 574.556 267.575 574.556 263.697C574.556 261.269 575.008 259.142 575.91 257.316C576.823 255.49 578.134 254.083 579.842 253.094C581.56 252.106 583.58 251.612 585.9 251.612C588.371 251.612 590.53 252.063 592.378 252.965L591.218 255.318C589.434 254.48 587.651 254.061 585.868 254.061ZM617.047 263.697C617.047 267.467 616.091 270.432 614.179 272.591C612.278 274.75 609.63 275.83 606.235 275.83C602.765 275.83 600.085 274.772 598.195 272.656C596.315 270.529 595.375 267.532 595.375 263.665C595.375 259.83 596.32 256.859 598.211 254.754C600.101 252.638 602.787 251.58 606.267 251.58C609.651 251.58 612.294 252.654 614.195 254.802C616.096 256.951 617.047 259.916 617.047 263.697ZM598.275 263.697C598.275 266.887 598.952 269.31 600.305 270.964C601.67 272.607 603.646 273.429 606.235 273.429C608.846 273.429 610.817 272.607 612.149 270.964C613.481 269.32 614.147 266.898 614.147 263.697C614.147 260.528 613.481 258.127 612.149 256.494C610.827 254.851 608.867 254.029 606.267 254.029C603.657 254.029 601.67 254.856 600.305 256.51C598.952 258.154 598.275 260.549 598.275 263.697ZM640.718 275.508H637.592L624.717 255.737H624.588C624.76 258.057 624.846 260.184 624.846 262.118V275.508H622.316V251.95H625.41L638.252 271.641H638.381C638.36 271.351 638.311 270.421 638.236 268.853C638.161 267.274 638.134 266.146 638.156 265.469V251.95H640.718V275.508ZM660.327 275.508H647.195V251.95H660.327V254.383H649.934V261.973H659.699V264.39H649.934V273.059H660.327V275.508ZM668.304 265.711V275.508H665.564V251.95H672.026C674.915 251.95 677.048 252.503 678.423 253.61C679.808 254.716 680.501 256.381 680.501 258.605C680.501 261.72 678.922 263.826 675.764 264.921L682.161 275.508H678.922L673.218 265.711H668.304ZM668.304 263.358H672.058C673.992 263.358 675.409 262.977 676.312 262.214C677.214 261.441 677.665 260.286 677.665 258.75C677.665 257.192 677.203 256.07 676.28 255.382C675.367 254.695 673.895 254.351 671.865 254.351H668.304V263.358ZM700.772 275.508L697.839 268.015H688.397L685.496 275.508H682.725L692.038 251.854H694.343L703.608 275.508H700.772ZM696.985 265.55L694.246 258.25C693.891 257.327 693.526 256.193 693.15 254.851C692.914 255.882 692.575 257.015 692.135 258.25L689.364 265.55H696.985Z" fill="black"/>
<rect x="740.113" y="231" width="233.887" height="60.8485" rx="8" fill="#D2D1C2"/>
<path d="M762.511 266.203V276H759.772V252.442H766.233C769.123 252.442 771.255 252.996 772.63 254.102C774.016 255.208 774.709 256.874 774.709 259.097C774.709 262.212 773.13 264.318 769.972 265.414L776.369 276H773.13L767.426 266.203H762.511ZM762.511 263.851H766.266C768.199 263.851 769.617 263.469 770.52 262.707C771.422 261.933 771.873 260.778 771.873 259.242C771.873 257.685 771.411 256.562 770.487 255.875C769.574 255.187 768.103 254.843 766.072 254.843H762.511V263.851ZM780.171 276V252.442H782.911V276H780.171ZM807.79 276H804.664L791.789 256.229H791.66C791.832 258.549 791.918 260.676 791.918 262.61V276H789.388V252.442H792.482L805.324 272.133H805.453C805.432 271.843 805.383 270.914 805.308 269.345C805.233 267.766 805.206 266.638 805.228 265.961V252.442H807.79V276ZM824.354 254.553C821.765 254.553 819.719 255.418 818.215 257.147C816.722 258.866 815.975 261.224 815.975 264.221C815.975 267.304 816.695 269.689 818.134 271.375C819.584 273.051 821.647 273.889 824.322 273.889C825.965 273.889 827.84 273.594 829.945 273.003V275.404C828.312 276.016 826.298 276.322 823.903 276.322C820.433 276.322 817.753 275.27 815.862 273.164C813.982 271.059 813.042 268.067 813.042 264.189C813.042 261.761 813.494 259.634 814.396 257.808C815.309 255.982 816.62 254.575 818.328 253.586C820.046 252.598 822.066 252.104 824.386 252.104C826.857 252.104 829.016 252.555 830.864 253.458L829.704 255.81C827.92 254.972 826.137 254.553 824.354 254.553ZM855.533 264.189C855.533 267.959 854.577 270.924 852.665 273.083C850.764 275.243 848.116 276.322 844.721 276.322C841.251 276.322 838.571 275.264 836.681 273.148C834.801 271.021 833.861 268.024 833.861 264.157C833.861 260.322 834.806 257.352 836.697 255.246C838.587 253.13 841.273 252.072 844.753 252.072C848.137 252.072 850.78 253.146 852.681 255.294C854.583 257.443 855.533 260.408 855.533 264.189ZM836.761 264.189C836.761 267.379 837.438 269.802 838.792 271.456C840.156 273.1 842.132 273.921 844.721 273.921C847.332 273.921 849.303 273.1 850.635 271.456C851.967 269.812 852.633 267.39 852.633 264.189C852.633 261.02 851.967 258.619 850.635 256.986C849.313 255.343 847.353 254.521 844.753 254.521C842.143 254.521 840.156 255.348 838.792 257.002C837.438 258.646 836.761 261.042 836.761 264.189ZM879.204 276H876.078L863.203 256.229H863.074C863.246 258.549 863.332 260.676 863.332 262.61V276H860.802V252.442H863.896L876.738 272.133H876.867C876.846 271.843 876.797 270.914 876.722 269.345C876.647 267.766 876.62 266.638 876.642 265.961V252.442H879.204V276ZM895.768 254.553C893.179 254.553 891.133 255.418 889.629 257.147C888.136 258.866 887.389 261.224 887.389 264.221C887.389 267.304 888.109 269.689 889.548 271.375C890.999 273.051 893.061 273.889 895.736 273.889C897.379 273.889 899.254 273.594 901.359 273.003V275.404C899.727 276.016 897.712 276.322 895.317 276.322C891.847 276.322 889.167 275.27 887.276 273.164C885.396 271.059 884.457 268.067 884.457 264.189C884.457 261.761 884.908 259.634 885.81 257.808C886.723 255.982 888.034 254.575 889.742 253.586C891.46 252.598 893.48 252.104 895.8 252.104C898.271 252.104 900.43 252.555 902.278 253.458L901.118 255.81C899.334 254.972 897.551 254.553 895.768 254.553ZM906.5 276V252.442H909.239V276H906.5ZM922.967 276H920.228V254.875H912.768V252.442H930.428V254.875H922.967V276ZM954.437 264.189C954.437 267.959 953.48 270.924 951.568 273.083C949.667 275.243 947.019 276.322 943.625 276.322C940.155 276.322 937.475 275.264 935.584 273.148C933.704 271.021 932.764 268.024 932.764 264.157C932.764 260.322 933.709 257.352 935.6 255.246C937.491 253.13 940.176 252.072 943.657 252.072C947.041 252.072 949.683 253.146 951.584 255.294C953.486 257.443 954.437 260.408 954.437 264.189ZM935.665 264.189C935.665 267.379 936.341 269.802 937.695 271.456C939.059 273.1 941.036 273.921 943.625 273.921C946.235 273.921 948.206 273.1 949.538 271.456C950.87 269.812 951.536 267.39 951.536 264.189C951.536 261.02 950.87 258.619 949.538 256.986C948.217 255.343 946.256 254.521 943.657 254.521C941.046 254.521 939.059 255.348 937.695 257.002C936.341 258.646 935.665 261.042 935.665 264.189Z" fill="black"/>
<rect y="309" width="233.887" height="60.8485" rx="8" fill="#D2D1C2"/>
<path d="M90.3953 332.061C87.8064 332.061 85.7601 332.926 84.2561 334.655C82.763 336.374 82.0164 338.732 82.0164 341.729C82.0164 344.812 82.7361 347.197 84.1756 348.883C85.6258 350.559 87.6883 351.397 90.3631 351.397C92.0066 351.397 93.8811 351.102 95.9866 350.511V352.912C94.3538 353.524 92.3396 353.83 89.9441 353.83C86.4744 353.83 83.7942 352.777 81.9036 350.672C80.0237 348.566 79.0838 345.575 79.0838 341.697C79.0838 339.269 79.535 337.142 80.4373 335.316C81.3504 333.49 82.6609 332.083 84.3689 331.094C86.0877 330.106 88.1072 329.612 90.4275 329.612C92.8982 329.612 95.0574 330.063 96.9051 330.965L95.7449 333.318C93.9617 332.48 92.1785 332.061 90.3953 332.061ZM115.935 353.508L113.002 346.015H103.56L100.659 353.508H97.888L107.201 329.854H109.506L118.771 353.508H115.935ZM112.148 343.55L109.409 336.25C109.054 335.327 108.689 334.193 108.313 332.851C108.077 333.882 107.739 335.015 107.298 336.25L104.527 343.55H112.148ZM135.303 347.24C135.303 349.313 134.551 350.93 133.047 352.09C131.543 353.25 129.502 353.83 126.924 353.83C124.131 353.83 121.983 353.47 120.479 352.75V350.108C121.446 350.516 122.498 350.838 123.637 351.075C124.776 351.311 125.904 351.429 127.021 351.429C128.847 351.429 130.222 351.085 131.146 350.398C132.07 349.7 132.532 348.733 132.532 347.498C132.532 346.681 132.365 346.015 132.032 345.5C131.71 344.973 131.162 344.49 130.388 344.049C129.626 343.609 128.46 343.109 126.892 342.551C124.7 341.767 123.132 340.837 122.187 339.763C121.252 338.689 120.785 337.287 120.785 335.558C120.785 333.742 121.467 332.297 122.831 331.223C124.196 330.149 126 329.612 128.245 329.612C130.587 329.612 132.741 330.042 134.707 330.901L133.853 333.286C131.908 332.469 130.018 332.061 128.181 332.061C126.731 332.061 125.597 332.373 124.781 332.996C123.965 333.619 123.556 334.483 123.556 335.59C123.556 336.406 123.707 337.078 124.008 337.604C124.308 338.12 124.813 338.598 125.522 339.038C126.242 339.468 127.338 339.946 128.809 340.472C131.28 341.353 132.977 342.298 133.901 343.308C134.836 344.318 135.303 345.628 135.303 347.24ZM154.929 353.508L151.996 346.015H142.554L139.654 353.508H136.882L146.196 329.854H148.5L157.765 353.508H154.929ZM151.142 343.55L148.403 336.25C148.049 335.327 147.683 334.193 147.307 332.851C147.071 333.882 146.733 335.015 146.292 336.25L143.521 343.55H151.142Z" fill="black"/>
<rect x="246.705" y="309" width="233.887" height="60.8485" rx="8" fill="#D2D1C2"/>
<path d="M310.691 332.061C308.102 332.061 306.055 332.926 304.552 334.655C303.058 336.374 302.312 338.732 302.312 341.729C302.312 344.812 303.032 347.197 304.471 348.883C305.921 350.559 307.984 351.397 310.658 351.397C312.302 351.397 314.177 351.102 316.282 350.511V352.912C314.649 353.524 312.635 353.83 310.24 353.83C306.77 353.83 304.09 352.777 302.199 350.672C300.319 348.566 299.379 345.575 299.379 341.697C299.379 339.269 299.83 337.142 300.733 335.316C301.646 333.49 302.956 332.083 304.664 331.094C306.383 330.106 308.403 329.612 310.723 329.612C313.194 329.612 315.353 330.063 317.2 330.965L316.04 333.318C314.257 332.48 312.474 332.061 310.691 332.061ZM336.23 353.508L333.298 346.015H323.855L320.955 353.508H318.183L327.497 329.854H329.801L339.066 353.508H336.23ZM332.444 343.55L329.704 336.25C329.35 335.327 328.985 334.193 328.609 332.851C328.372 333.882 328.034 335.015 327.594 336.25L324.822 343.55H332.444ZM355.598 347.24C355.598 349.313 354.846 350.93 353.343 352.09C351.839 353.25 349.798 353.83 347.22 353.83C344.427 353.83 342.278 353.47 340.774 352.75V350.108C341.741 350.516 342.794 350.838 343.932 351.075C345.071 351.311 346.199 351.429 347.316 351.429C349.142 351.429 350.517 351.085 351.441 350.398C352.365 349.7 352.827 348.733 352.827 347.498C352.827 346.681 352.66 346.015 352.327 345.5C352.005 344.973 351.457 344.49 350.684 344.049C349.921 343.609 348.756 343.109 347.187 342.551C344.996 341.767 343.428 340.837 342.482 339.763C341.548 338.689 341.08 337.287 341.08 335.558C341.08 333.742 341.762 332.297 343.127 331.223C344.491 330.149 346.296 329.612 348.541 329.612C350.883 329.612 353.036 330.042 355.002 330.901L354.148 333.286C352.204 332.469 350.313 332.061 348.476 332.061C347.026 332.061 345.893 332.373 345.076 332.996C344.26 333.619 343.852 334.483 343.852 335.59C343.852 336.406 344.002 337.078 344.303 337.604C344.604 338.12 345.109 338.598 345.818 339.038C346.537 339.468 347.633 339.946 349.105 340.472C351.575 341.353 353.273 342.298 354.197 343.308C355.131 344.318 355.598 345.628 355.598 347.24ZM373.549 353.508H360.416V329.95H373.549V332.383H363.156V339.973H372.92V342.39H363.156V351.059H373.549V353.508ZM381.525 343.711V353.508H378.785V329.95H385.247C388.137 329.95 390.269 330.503 391.644 331.61C393.03 332.716 393.722 334.381 393.722 336.605C393.722 339.72 392.143 341.826 388.985 342.921L395.382 353.508H392.143L386.439 343.711H381.525ZM381.525 341.358H385.279C387.213 341.358 388.631 340.977 389.533 340.214C390.435 339.441 390.887 338.286 390.887 336.75C390.887 335.192 390.425 334.07 389.501 333.382C388.588 332.695 387.116 332.351 385.086 332.351H381.525V341.358ZM399.185 353.508V329.95H401.924V353.508H399.185ZM398.83 327.662C399.346 326.996 399.899 326.19 400.49 325.245C401.092 324.3 401.564 323.478 401.908 322.78H405.163V323.118C404.69 323.816 403.987 324.676 403.052 325.696C402.117 326.717 401.306 327.506 400.619 328.065H398.83V327.662ZM428.849 341.697C428.849 345.467 427.893 348.432 425.981 350.591C424.08 352.75 421.432 353.83 418.037 353.83C414.568 353.83 411.887 352.772 409.997 350.656C408.117 348.529 407.177 345.532 407.177 341.665C407.177 337.83 408.122 334.859 410.013 332.754C411.904 330.638 414.589 329.58 418.07 329.58C421.453 329.58 424.096 330.654 425.997 332.802C427.899 334.951 428.849 337.916 428.849 341.697ZM410.077 341.697C410.077 344.887 410.754 347.31 412.108 348.964C413.472 350.607 415.449 351.429 418.037 351.429C420.648 351.429 422.619 350.607 423.951 348.964C425.283 347.32 425.949 344.898 425.949 341.697C425.949 338.528 425.283 336.127 423.951 334.494C422.63 332.851 420.669 332.029 418.07 332.029C415.459 332.029 413.472 332.856 412.108 334.51C410.754 336.154 410.077 338.549 410.077 341.697Z" fill="black"/>
<rect x="493.41" y="309" width="233.887" height="60.8485" rx="8" fill="#D2D1C2"/>
<path d="M570.061 332.061C567.472 332.061 565.426 332.926 563.922 334.655C562.429 336.374 561.682 338.732 561.682 341.729C561.682 344.812 562.402 347.197 563.841 348.883C565.291 350.559 567.354 351.397 570.029 351.397C571.672 351.397 573.547 351.102 575.652 350.511V352.912C574.019 353.524 572.005 353.83 569.61 353.83C566.14 353.83 563.46 352.777 561.569 350.672C559.689 348.566 558.749 345.575 558.749 341.697C558.749 339.269 559.2 337.142 560.103 335.316C561.016 333.49 562.326 332.083 564.034 331.094C565.753 330.106 567.773 329.612 570.093 329.612C572.564 329.612 574.723 330.063 576.571 330.965L575.41 333.318C573.627 332.48 571.844 332.061 570.061 332.061ZM595.6 353.508L592.668 346.015H583.225L580.325 353.508H577.554L586.867 329.854H589.171L598.436 353.508H595.6ZM591.814 343.55L589.075 336.25C588.72 335.327 588.355 334.193 587.979 332.851C587.742 333.882 587.404 335.015 586.964 336.25L584.192 343.55H591.814ZM614.969 347.24C614.969 349.313 614.217 350.93 612.713 352.09C611.209 353.25 609.168 353.83 606.59 353.83C603.797 353.83 601.648 353.47 600.144 352.75V350.108C601.111 350.516 602.164 350.838 603.303 351.075C604.441 351.311 605.569 351.429 606.686 351.429C608.512 351.429 609.887 351.085 610.811 350.398C611.735 349.7 612.197 348.733 612.197 347.498C612.197 346.681 612.031 346.015 611.698 345.5C611.375 344.973 610.827 344.49 610.054 344.049C609.291 343.609 608.126 343.109 606.557 342.551C604.366 341.767 602.798 340.837 601.852 339.763C600.918 338.689 600.45 337.287 600.45 335.558C600.45 333.742 601.133 332.297 602.497 331.223C603.861 330.149 605.666 329.612 607.911 329.612C610.253 329.612 612.407 330.042 614.372 330.901L613.518 333.286C611.574 332.469 609.683 332.061 607.846 332.061C606.396 332.061 605.263 332.373 604.447 332.996C603.63 333.619 603.222 334.483 603.222 335.59C603.222 336.406 603.372 337.078 603.673 337.604C603.974 338.12 604.479 338.598 605.188 339.038C605.908 339.468 607.003 339.946 608.475 340.472C610.946 341.353 612.643 342.298 613.567 343.308C614.501 344.318 614.969 345.628 614.969 347.24ZM619.786 353.508V329.95H622.526V353.508H619.786ZM636.254 353.508H633.515V332.383H626.054V329.95H643.715V332.383H636.254V353.508ZM662.084 353.508L659.151 346.015H649.709L646.808 353.508H644.037L653.35 329.854H655.655L664.92 353.508H662.084ZM658.297 343.55L655.558 336.25C655.203 335.327 654.838 334.193 654.462 332.851C654.226 333.882 653.887 335.015 653.447 336.25L650.676 343.55H658.297Z" fill="black"/>
<rect x="740.113" y="309" width="233.887" height="60.8485" rx="8" fill="#D2D1C2"/>
<path d="M818.182 332.061C815.593 332.061 813.547 332.926 812.043 334.655C810.55 336.374 809.803 338.732 809.803 341.729C809.803 344.812 810.523 347.197 811.962 348.883C813.412 350.559 815.475 351.397 818.15 351.397C819.793 351.397 821.668 351.102 823.773 350.511V352.912C822.14 353.524 820.126 353.83 817.731 353.83C814.261 353.83 811.581 352.777 809.69 350.672C807.81 348.566 806.87 345.575 806.87 341.697C806.87 339.269 807.322 337.142 808.224 335.316C809.137 333.49 810.448 332.083 812.156 331.094C813.874 330.106 815.894 329.612 818.214 329.612C820.685 329.612 822.844 330.063 824.692 330.965L823.532 333.318C821.748 332.48 819.965 332.061 818.182 332.061ZM843.721 353.508L840.789 346.015H831.346L828.446 353.508H825.675L834.988 329.854H837.292L846.557 353.508H843.721ZM839.935 343.55L837.196 336.25C836.841 335.327 836.476 334.193 836.1 332.851C835.864 333.882 835.525 335.015 835.085 336.25L832.313 343.55H839.935ZM852.535 343.711V353.508H849.796V329.95H856.258C859.147 329.95 861.28 330.503 862.655 331.61C864.04 332.716 864.733 334.381 864.733 336.605C864.733 339.72 863.154 341.826 859.996 342.921L866.393 353.508H863.154L857.45 343.711H852.535ZM852.535 341.358H856.29C858.223 341.358 859.641 340.977 860.544 340.214C861.446 339.441 861.897 338.286 861.897 336.75C861.897 335.192 861.435 334.07 860.512 333.382C859.598 332.695 858.127 332.351 856.096 332.351H852.535V341.358ZM888.597 353.508H885.471L872.596 333.737H872.468C872.639 336.057 872.725 338.184 872.725 340.118V353.508H870.196V329.95H873.289L886.132 349.641H886.261C886.239 349.351 886.191 348.421 886.116 346.853C886.04 345.274 886.013 344.146 886.035 343.469V329.95H888.597V353.508ZM908.207 353.508H895.075V329.95H908.207V332.383H897.814V339.973H907.578V342.39H897.814V351.059H908.207V353.508Z" fill="black"/>
<rect y="389" width="233.887" height="60.8485" rx="8" fill="#D2D1C2"/>
<path d="M66.6121 433.508V409.95H69.3514V431.026H79.7444V433.508H66.6121ZM83.7566 433.508V409.95H86.4959V431.026H96.889V433.508H83.7566ZM118.69 409.95V425.193C118.69 427.879 117.879 429.99 116.257 431.526C114.635 433.062 112.406 433.83 109.57 433.83C106.734 433.83 104.537 433.057 102.98 431.51C101.433 429.963 100.659 427.836 100.659 425.129V409.95H103.399V425.322C103.399 427.288 103.936 428.797 105.01 429.85C106.084 430.903 107.663 431.429 109.747 431.429C111.735 431.429 113.265 430.903 114.34 429.85C115.414 428.787 115.951 427.267 115.951 425.29V409.95H118.69ZM138.397 409.95H141.346L132.854 433.508H130.147L121.703 409.95H124.604L130.018 425.193C130.641 426.944 131.135 428.647 131.5 430.301C131.887 428.561 132.392 426.826 133.015 425.097L138.397 409.95ZM144.6 433.508V409.95H147.34V433.508H144.6ZM168.625 433.508L165.693 426.015H156.25L153.35 433.508H150.578L159.892 409.854H162.196L171.461 433.508H168.625ZM164.839 423.55L162.099 416.25C161.745 415.327 161.38 414.193 161.004 412.851C160.767 413.882 160.429 415.015 159.989 416.25L157.217 423.55H164.839Z" fill="black"/>
<rect x="246.705" y="389" width="233.887" height="60.8485" rx="8" fill="#D2D1C2"/>
<path d="M290.614 433.508V409.95H293.353V431.026H303.746V433.508H290.614ZM307.758 433.508V409.95H310.497V431.026H320.89V433.508H307.758ZM345.35 421.697C345.35 425.467 344.394 428.432 342.482 430.591C340.581 432.75 337.933 433.83 334.538 433.83C331.069 433.83 328.388 432.772 326.498 430.656C324.618 428.529 323.678 425.532 323.678 421.665C323.678 417.83 324.623 414.859 326.514 412.754C328.405 410.638 331.09 409.58 334.571 409.58C337.954 409.58 340.597 410.654 342.498 412.802C344.4 414.951 345.35 417.916 345.35 421.697ZM326.578 421.697C326.578 424.887 327.255 427.31 328.609 428.964C329.973 430.607 331.95 431.429 334.538 431.429C337.149 431.429 339.12 430.607 340.452 428.964C341.784 427.32 342.45 424.898 342.45 421.697C342.45 418.528 341.784 416.127 340.452 414.494C339.131 412.851 337.17 412.029 334.571 412.029C331.96 412.029 329.973 412.856 328.609 414.51C327.255 416.154 326.578 418.549 326.578 421.697ZM364.074 409.95H367.023L358.531 433.508H355.824L347.381 409.95H350.281L355.695 425.193C356.318 426.944 356.812 428.647 357.178 430.301C357.564 428.561 358.069 426.826 358.692 425.097L364.074 409.95ZM370.278 433.508V409.95H373.017V433.508H370.278ZM393.771 433.508H377.577V431.365L390.081 412.416H377.964V409.95H393.416V412.093L380.912 431.026H393.771V433.508ZM416.748 433.508H413.622L400.748 413.737H400.619C400.791 416.057 400.877 418.184 400.877 420.118V433.508H398.347V409.95H401.441L414.283 429.641H414.412C414.39 429.351 414.342 428.421 414.267 426.853C414.192 425.274 414.165 424.146 414.186 423.469V409.95H416.748V433.508ZM438.034 433.508L435.101 426.015H425.659L422.759 433.508H419.987L429.301 409.854H431.605L440.87 433.508H438.034ZM434.247 423.55L431.508 416.25C431.154 415.327 430.788 414.193 430.412 412.851C430.176 413.882 429.838 415.015 429.397 416.25L426.626 423.55H434.247Z" fill="black"/>
<rect x="493.41" y="389" width="233.887" height="60.8485" rx="8" fill="#D2D1C2"/>
<path d="M556.703 433.508V409.95H559.442V431.026H569.835V433.508H556.703ZM573.847 433.508V409.95H576.587V431.026H586.98V433.508H573.847ZM608.781 409.95V425.193C608.781 427.879 607.97 429.99 606.348 431.526C604.726 433.062 602.497 433.83 599.661 433.83C596.825 433.83 594.628 433.057 593.071 431.51C591.524 429.963 590.75 427.836 590.75 425.129V409.95H593.49V425.322C593.49 427.288 594.027 428.797 595.101 429.85C596.175 430.903 597.754 431.429 599.838 431.429C601.825 431.429 603.356 430.903 604.43 429.85C605.505 428.787 606.042 427.267 606.042 425.29V409.95H608.781ZM628.165 433.508H615.033V409.95H628.165V412.383H617.772V419.973H627.537V422.39H617.772V431.059H628.165V433.508ZM646.857 409.95H649.805L641.314 433.508H638.607L630.163 409.95H633.064L638.478 425.193C639.101 426.944 639.595 428.647 639.96 430.301C640.347 428.561 640.852 426.826 641.475 425.097L646.857 409.95ZM666.193 433.508H653.06V409.95H666.193V412.383H655.8V419.973H665.564V422.39H655.8V431.059H666.193V433.508Z" fill="black"/>
<rect x="740.113" y="389" width="233.887" height="60.8485" rx="8" fill="#D2D1C2"/>
<path d="M791.112 433.508V409.95H793.851V431.026H804.244V433.508H791.112ZM808.256 433.508V409.95H810.995V431.026H821.388V433.508H808.256ZM840.209 433.508L837.276 426.015H827.834L824.933 433.508H822.162L831.475 409.854H833.78L843.045 433.508H840.209ZM836.422 423.55L833.683 416.25C833.328 415.327 832.963 414.193 832.587 412.851C832.351 413.882 832.012 415.015 831.572 416.25L828.801 423.55H836.422ZM859.738 409.95H862.687L854.195 433.508H851.488L843.045 409.95H845.945L851.359 425.193C851.982 426.944 852.476 428.647 852.842 430.301C853.228 428.561 853.733 426.826 854.356 425.097L859.738 409.95ZM879.074 433.508H865.942V409.95H879.074V412.383H868.681V419.973H878.446V422.39H868.681V431.059H879.074V433.508ZM887.05 423.711V433.508H884.311V409.95H890.772C893.662 409.95 895.794 410.503 897.169 411.61C898.555 412.716 899.248 414.381 899.248 416.605C899.248 419.72 897.669 421.826 894.511 422.921L900.908 433.508H897.669L891.965 423.711H887.05ZM887.05 421.358H890.804C892.738 421.358 894.156 420.977 895.058 420.214C895.961 419.441 896.412 418.286 896.412 416.75C896.412 415.192 895.95 414.07 895.026 413.382C894.113 412.695 892.641 412.351 890.611 412.351H887.05V421.358ZM925.158 421.697C925.158 425.467 924.202 428.432 922.29 430.591C920.388 432.75 917.741 433.83 914.346 433.83C910.876 433.83 908.196 432.772 906.305 430.656C904.426 428.529 903.486 425.532 903.486 421.665C903.486 417.83 904.431 414.859 906.322 412.754C908.212 410.638 910.898 409.58 914.378 409.58C917.762 409.58 920.405 410.654 922.306 412.802C924.207 414.951 925.158 417.916 925.158 421.697ZM906.386 421.697C906.386 424.887 907.063 427.31 908.416 428.964C909.781 430.607 911.757 431.429 914.346 431.429C916.956 431.429 918.928 430.607 920.26 428.964C921.592 427.32 922.258 424.898 922.258 421.697C922.258 418.528 921.592 416.127 920.26 414.494C918.938 412.851 916.978 412.029 914.378 412.029C911.768 412.029 909.781 412.856 908.416 414.51C907.063 416.154 906.386 418.549 906.386 421.697Z" fill="black"/>
<path d="M529.744 156.24C529.744 156.24 588.801 178.346 618.754 188.085C648.711 197.823 693.121 213.862 693.121 213.862" stroke="#100F0F" stroke-width="3" stroke-linecap="round"/>
<path d="M544.409 213.605C544.409 213.605 591.708 193.578 615.064 183.42C638.419 173.259 681.237 157.662 681.237 157.662" stroke="#100F0F" stroke-width="3" stroke-linecap="round"/>
</svg>
