<?xml version="1.0" encoding="utf-8"?>
<!-- Generator: Adobe Illustrator 26.5.0, SVG Export Plug-In . SVG Version: 6.00 Build 0)  -->
<svg version="1.1" id="Capa_1" xmlns="http://www.w3.org/2000/svg" xmlns:xlink="http://www.w3.org/1999/xlink" x="0px" y="0px"
	 viewBox="0 0 444 170.1" style="enable-background:new 0 0 444 170.1;" xml:space="preserve">
<style type="text/css">
	.st0{fill:#00A5A5;}
</style>
<path class="st0" d="M220,134.1c0,0-6,11.2-13.5,18c-14,12.8-34.7,16.7-34.7,16.7s29.7-19.7,30.8-34.7c0.4-6.2-1.5-6.1-1.5-6.1
	L220,134.1z"/>
<path class="st0" d="M442.2,101c0.7-27.1,4.7-88-32.7-89.3c-42-1.5-337.5-4.3-382,0.6c-34,3.8-37.2,119.8,4.2,123.7
	c44.9,4.2,326.7,7.3,380.5-0.5C438.7,131.6,441.8,116.6,442.2,101z"/>
</svg>
