<svg width="661" height="283" viewBox="0 0 661 283" fill="none" xmlns="http://www.w3.org/2000/svg">
<path fill-rule="evenodd" clip-rule="evenodd" d="M646.881 128.049H412.003V276.728H646.881C651.224 232.238 646.881 128.049 646.881 128.049Z" fill="#968A64"/>
<path fill-rule="evenodd" clip-rule="evenodd" d="M412.055 129.276H646.682L530.094 44.1729L412.055 129.276Z" fill="#968B64"/>
<path fill-rule="evenodd" clip-rule="evenodd" d="M441.309 277.031C441.309 277.031 440.509 237.379 441.165 216.006C441.834 194.177 441.165 161.175 441.165 161.175C441.165 161.175 465.193 160.433 475.406 159.822C485.619 159.21 497.195 160.232 497.195 160.232C497.195 160.232 497.265 213.712 497.195 231.349C497.109 252.925 497.225 277.032 497.225 277.032H441.309V277.031Z" fill="#BC0003"/>
<path fill-rule="evenodd" clip-rule="evenodd" d="M412.022 128.097H313.041V267.713L412.022 276.774V128.097Z" fill="#70644E"/>
<path fill-rule="evenodd" clip-rule="evenodd" d="M374.314 164.807H341.217L341.224 236.104L374.314 238.519V164.807Z" fill="white"/>
<path fill-rule="evenodd" clip-rule="evenodd" d="M363.399 164.807H361.678V237.589L363.399 237.749V164.807Z" fill="black"/>
<path fill-rule="evenodd" clip-rule="evenodd" d="M353.315 164.807H351.594L351.552 236.907L353.315 237.071V164.807Z" fill="black"/>
<path d="M374.322 212.921H341.206V214.848H374.322V212.921Z" fill="black"/>
<path d="M374.322 188.479H341.206V190.407H374.322V188.479Z" fill="black"/>
<path fill-rule="evenodd" clip-rule="evenodd" d="M374.314 78.2778L306.555 130.038H411.794C411.794 130.038 457.969 98.3459 472.396 87.5422C486.894 76.6875 533.026 43.4094 533.026 43.4094H422.251L374.314 78.2778Z" fill="#BC0003"/>
<path fill-rule="evenodd" clip-rule="evenodd" d="M657.136 131.797L648.856 131.743L529.189 45.9662L533.15 43.2881L657.136 131.797Z" fill="#FF0000"/>
<path fill-rule="evenodd" clip-rule="evenodd" d="M451.638 171.712V209.942C451.638 209.942 476.137 209.866 480.042 209.78C484.177 209.686 487.405 209.351 487.405 209.351C487.405 209.351 487.647 200.599 487.312 191.178C486.978 181.755 486.687 171.849 486.687 171.849C486.687 171.849 478.313 171.243 469.523 171.388C461.342 171.523 451.638 171.712 451.638 171.712Z" fill="#FF0000"/>
<path fill-rule="evenodd" clip-rule="evenodd" d="M452.788 222.485C452.788 222.485 456.662 222.754 466.405 222.485C476.866 222.196 486.181 222.485 486.181 222.485C486.181 222.485 485.858 234.476 486.181 244.842C486.504 255.208 486.222 265.722 486.222 265.722C486.222 265.722 471.915 265.252 464.782 265.577C457.651 265.9 452.786 265.577 452.786 265.577V242.658V222.485H452.788Z" fill="#FF0000"/>
<path fill-rule="evenodd" clip-rule="evenodd" d="M546.776 110.08C547.663 99.7072 547.684 94.4061 546.776 89.2859C545.371 81.3702 540.255 76.4888 532.212 76.4888C524.168 76.4888 517.645 83.006 517.645 91.0432V110.08H546.776Z" fill="white"/>
<path fill-rule="evenodd" clip-rule="evenodd" d="M534.138 76.5895L531.864 76.4956V110.08H533.591L534.138 76.5895Z" fill="black"/>
<path fill-rule="evenodd" clip-rule="evenodd" d="M517.651 93.5735L517.64 95.8789L547.412 95.5283L547.338 94.0056L517.651 93.5735Z" fill="black"/>
<path d="M535.432 209.921V238.521C535.432 238.521 593.948 241.565 626.765 238.521C629.066 238.308 626.765 209.921 626.765 209.921C626.765 181.166 604.118 164.286 578.898 164.286C553.678 164.286 535.432 184.719 535.432 209.921Z" fill="#FEFEFE"/>
<path fill-rule="evenodd" clip-rule="evenodd" d="M555.364 239.549H529.437V156.408H554.95L555.364 239.549Z" fill="#6D3466"/>
<path fill-rule="evenodd" clip-rule="evenodd" d="M608.695 239.549H627.685V156.408H610.713L608.695 239.549Z" fill="#6D3466"/>
<path fill-rule="evenodd" clip-rule="evenodd" d="M595.667 166.909L593.948 166.381V239.854H595.826L595.667 166.909Z" fill="black"/>
<path fill-rule="evenodd" clip-rule="evenodd" d="M566.91 165.918L564.584 166.648V239.639H566.362L566.91 165.918Z" fill="black"/>
<path fill-rule="evenodd" clip-rule="evenodd" d="M627.178 215.71L627.033 213.555L535.434 213.778V215.71H627.178Z" fill="black"/>
<path fill-rule="evenodd" clip-rule="evenodd" d="M623.099 191.265L622.213 189.339H539.867L539.035 191.265H623.099Z" fill="black"/>
<path d="M451.588 31.7554H432.392V65.2308H451.588V31.7554Z" fill="#6A2403"/>
<path d="M453.754 29.6086H430.363V36.5456H453.754V29.6086Z" fill="#9B3403"/>
<path fill-rule="evenodd" clip-rule="evenodd" d="M231.463 182.599C231.463 150.813 230.679 11.0633 235.308 7.34009C241.927 2.01831 391.631 7.34009 391.631 7.34009V99.2405C391.631 136.721 388.849 277.507 388.849 277.507H235.306C235.306 277.507 231.463 218.355 231.463 182.599Z" fill="#FF8000"/>
<path fill-rule="evenodd" clip-rule="evenodd" d="M258.17 85.5046C257.91 57.1659 258.17 51.7006 258.17 51.7006C258.17 51.7006 258.17 50.9993 272.534 50.9993C277.768 50.9993 297.877 51.7006 297.877 51.7006C297.877 51.7006 298.569 79.7617 298.569 88.1703C298.569 101.384 297.877 138.202 297.877 138.202H258.17C258.17 138.202 258.309 100.708 258.17 85.5046Z" fill="white"/>
<path fill-rule="evenodd" clip-rule="evenodd" d="M276.167 69.4661C276.121 68.9319 278.3 68.9305 278.312 69.4661C279.039 100.096 278.312 139.472 278.312 139.472H276.167C276.167 139.472 277.525 85.4798 276.167 69.4661Z" fill="#6A2403"/>
<path fill-rule="evenodd" clip-rule="evenodd" d="M257.999 70.2296V68.0857H298.251L298.295 70.2296H257.999Z" fill="#6A2403"/>
<path fill-rule="evenodd" clip-rule="evenodd" d="M249.893 13.7553C249.893 13.7553 253.405 12.8524 253.704 13.7553C255.214 18.3247 253.704 34.1879 253.704 34.1879H249.893V13.7553Z" fill="white"/>
<path fill-rule="evenodd" clip-rule="evenodd" d="M264.968 13.7551H268.778V34.1877C268.778 34.1877 265.299 35.0781 264.968 34.1877C263.539 30.3748 264.968 13.7551 264.968 13.7551Z" fill="white"/>
<path fill-rule="evenodd" clip-rule="evenodd" d="M280.033 13.7553C280.033 13.7553 283.843 12.8013 283.853 13.7553C283.929 21.2637 283.853 34.1879 283.853 34.1879C283.853 34.1879 280.356 35.0866 280.033 34.1879C278.573 30.1168 280.033 13.7553 280.033 13.7553Z" fill="white"/>
<path fill-rule="evenodd" clip-rule="evenodd" d="M329.074 34.1643C329.074 34.1643 325.563 35.0671 325.263 34.1643C323.752 29.5949 325.263 13.7317 325.263 13.7317H329.074V34.1643Z" fill="white"/>
<path fill-rule="evenodd" clip-rule="evenodd" d="M314.002 34.1643H310.189V13.7317C310.189 13.7317 313.669 12.8413 314.002 13.7317C315.426 17.5432 314.002 34.1643 314.002 34.1643Z" fill="white"/>
<path fill-rule="evenodd" clip-rule="evenodd" d="M298.934 34.1643C298.934 34.1643 295.125 35.1182 295.114 34.1643C295.038 26.6558 295.114 13.7317 295.114 13.7317C295.114 13.7317 298.612 12.833 298.934 13.7317C300.395 17.8028 298.934 34.1643 298.934 34.1643Z" fill="white"/>
<path fill-rule="evenodd" clip-rule="evenodd" d="M341.039 34.167C341.039 34.167 344.551 35.0698 344.85 34.167C346.36 29.5976 344.85 13.7344 344.85 13.7344H341.039V34.167Z" fill="white"/>
<path fill-rule="evenodd" clip-rule="evenodd" d="M356.111 34.1671H359.922V13.7331C359.922 13.7331 356.444 12.8427 356.111 13.7331C354.686 17.546 356.111 34.1671 356.111 34.1671Z" fill="white"/>
<path fill-rule="evenodd" clip-rule="evenodd" d="M371.178 34.167C371.178 34.167 374.988 35.1209 374.999 34.167C375.075 26.6585 374.999 13.7344 374.999 13.7344C374.999 13.7344 371.5 12.8357 371.178 13.7344C369.719 17.8041 371.178 34.167 371.178 34.167Z" fill="white"/>
<path fill-rule="evenodd" clip-rule="evenodd" d="M366.585 277.807L319.902 277.659C319.902 277.659 318.259 192.459 319.917 165.537C320.027 163.73 365.666 165.537 365.666 165.537L366.585 277.807Z" fill="#6A2403"/>
<path fill-rule="evenodd" clip-rule="evenodd" d="M356.007 216.847L328.595 218.157V179.949H356.977L356.007 216.847Z" fill="#9B3403"/>
<path fill-rule="evenodd" clip-rule="evenodd" d="M356.977 264.086H328.595V225.885C328.595 225.885 354.822 223.656 356.977 225.885C358.964 227.939 356.977 264.086 356.977 264.086Z" fill="#9B3403"/>
<path fill-rule="evenodd" clip-rule="evenodd" d="M263.864 109.382H265.576L266.016 138.883H263.864V109.382Z" fill="black"/>
<path fill-rule="evenodd" clip-rule="evenodd" d="M270.448 109.382H272.601V138.883H271.054L270.448 109.382Z" fill="black"/>
<path d="M279.166 109.382H277.021V138.881H279.166V109.382Z" fill="black"/>
<path fill-rule="evenodd" clip-rule="evenodd" d="M283.599 109.382H285.745L285.321 139.373L283.599 138.883V109.382Z" fill="black"/>
<path d="M292.337 109.382H290.181V138.881H292.337V109.382Z" fill="black"/>
<path fill-rule="evenodd" clip-rule="evenodd" d="M257.197 108.209V140.274C257.197 140.274 297.694 141.341 298.637 140.274C299.345 139.473 298.637 108.209 298.637 108.209H257.197ZM296.567 137.955L259.361 137.307V110.526L297.001 110.037L296.567 137.955Z" fill="black"/>
<path fill-rule="evenodd" clip-rule="evenodd" d="M366.522 103.695C366.781 132.035 366.522 137.501 366.522 137.501C366.522 137.501 366.522 138.202 352.158 138.202C346.924 138.202 326.813 137.501 326.813 137.501C326.813 137.501 326.121 109.441 326.121 101.031C326.121 87.8143 326.813 50.9967 326.813 50.9967C326.813 50.9967 366.225 49.5402 366.522 50.9967C367.718 56.9065 366.382 88.4948 366.522 103.695Z" fill="white"/>
<path fill-rule="evenodd" clip-rule="evenodd" d="M344.232 139.07C344.187 139.605 346.365 139.607 346.378 139.07C347.104 108.44 346.378 69.0659 346.378 69.0659H344.232C344.232 69.0659 345.593 123.058 344.232 139.07Z" fill="#6A2403"/>
<path fill-rule="evenodd" clip-rule="evenodd" d="M326.515 70.2296V68.0857H366.994L367.023 70.2296H326.515Z" fill="#6A2403"/>
<path fill-rule="evenodd" clip-rule="evenodd" d="M332.362 109.382H334.075L334.514 138.883H332.362V109.382Z" fill="black"/>
<path fill-rule="evenodd" clip-rule="evenodd" d="M338.946 109.382H341.101V138.883H339.552L338.946 109.382Z" fill="black"/>
<path d="M347.665 109.382H345.519V138.881H347.665V109.382Z" fill="black"/>
<path fill-rule="evenodd" clip-rule="evenodd" d="M352.097 109.382H354.244L353.82 139.373L352.097 138.883V109.382Z" fill="black"/>
<path d="M360.835 109.382H358.678V138.881H360.835V109.382Z" fill="black"/>
<path fill-rule="evenodd" clip-rule="evenodd" d="M325.694 108.209V140.274C325.694 140.274 366.193 141.341 367.135 140.274C367.845 139.473 367.135 108.209 367.135 108.209H325.694ZM365.064 137.955L327.859 137.307V110.526L365.499 110.037L365.064 137.955Z" fill="black"/>
<path fill-rule="evenodd" clip-rule="evenodd" d="M297.951 220.562C298.211 248.902 297.951 254.367 297.951 254.367C297.951 254.367 297.951 255.069 283.587 255.069C278.353 255.069 258.244 254.367 258.244 254.367C258.244 254.367 257.552 226.307 257.552 217.898C257.552 204.681 258.244 167.863 258.244 167.863C258.244 167.863 297.656 166.407 297.951 167.863C299.15 173.774 297.812 205.361 297.951 220.562Z" fill="white"/>
<path fill-rule="evenodd" clip-rule="evenodd" d="M275.665 255.937C275.62 256.471 277.798 256.474 277.811 255.937C278.537 225.307 277.811 185.931 277.811 185.931H275.665C275.665 185.932 277.023 239.925 275.665 255.937Z" fill="#6A2403"/>
<path fill-rule="evenodd" clip-rule="evenodd" d="M258.065 187.096V184.954H298.155L298.202 187.096H258.065Z" fill="#6A2403"/>
<path fill-rule="evenodd" clip-rule="evenodd" d="M263.793 226.25H265.506L265.947 255.749H263.793V226.25Z" fill="black"/>
<path fill-rule="evenodd" clip-rule="evenodd" d="M270.38 226.25H272.532V255.749H270.985L270.38 226.25Z" fill="black"/>
<path d="M279.095 226.25H276.95V255.749H279.095V226.25Z" fill="black"/>
<path fill-rule="evenodd" clip-rule="evenodd" d="M283.528 226.25H285.674L285.251 256.239L283.528 255.749V226.25Z" fill="black"/>
<path d="M292.268 226.25H290.112V255.749H292.268V226.25Z" fill="black"/>
<path fill-rule="evenodd" clip-rule="evenodd" d="M257.125 225.076V257.141C257.125 257.141 297.624 258.208 298.566 257.141C299.275 256.34 298.566 225.076 298.566 225.076H257.125ZM296.495 254.822L259.29 254.174V227.393L296.933 226.904L296.495 254.822Z" fill="black"/>
<path fill-rule="evenodd" clip-rule="evenodd" d="M208.631 25.3291L235.308 7.34131V277.507C235.308 277.507 222.712 272.004 214.157 270.591L205.602 269.181L208.631 25.3291Z" fill="#D94502"/>
<path fill-rule="evenodd" clip-rule="evenodd" d="M41.536 124.34C41.9214 120.344 214.867 124.34 214.867 124.34C214.867 124.34 217.706 219.402 214.963 278.124L41.536 277.492C41.536 277.492 38.537 155.396 41.536 124.34Z" fill="#389789"/>
<path fill-rule="evenodd" clip-rule="evenodd" d="M191.122 278.562H140.669V166.259C140.669 166.259 190.872 163.15 191.122 166.259C192.705 185.935 191.122 278.562 191.122 278.562Z" fill="#4D4D4D"/>
<path fill-rule="evenodd" clip-rule="evenodd" d="M63.6812 83.1855C79.117 74.7701 192.73 83.1855 192.73 83.1855L214.773 124.8C202.681 122.565 41.623 124.8 41.623 124.8C41.623 124.8 53.3401 88.8234 63.6812 83.1855Z" fill="#4D4D4D"/>
<path fill-rule="evenodd" clip-rule="evenodd" d="M74.4269 201.243C74.1672 172.453 74.4269 166.898 74.4269 166.898C74.4269 166.898 74.427 166.186 88.7908 166.186C94.0249 166.186 114.134 166.898 114.134 166.898C114.134 166.898 114.826 195.408 114.826 203.953C114.826 217.378 114.134 254.785 114.134 254.785H74.4269C74.4269 254.787 74.5665 216.691 74.4269 201.243Z" fill="white"/>
<path fill-rule="evenodd" clip-rule="evenodd" d="M91.7581 166.225L95.2544 166.306C96.4479 205.709 95.3663 256.417 95.3663 256.417H91.8492C91.8492 256.417 93.9863 186.824 91.7581 166.225Z" fill="#4D4D4D"/>
<path fill-rule="evenodd" clip-rule="evenodd" d="M74.3372 188.753L74.3262 185.88L114.593 185.738L114.637 188.753H74.3372Z" fill="#4D4D4D"/>
<path d="M114.822 206.202H74.5017V209.217H114.822V206.202Z" fill="#4D4D4D"/>
<path fill-rule="evenodd" clip-rule="evenodd" d="M74.5017 231.178V226.136H114.591L114.638 231.178H74.5017Z" fill="#4D4D4D"/>
<path d="M118.838 229.766H68.9058V259.84H118.838V229.766Z" fill="#CCCCB8"/>
<path fill-rule="evenodd" clip-rule="evenodd" d="M76.875 234.599C76.875 234.599 80.3879 233.696 80.6877 234.599C82.1961 239.167 80.6877 255.031 80.6877 255.031H76.875V234.599Z" fill="#4D4D4D"/>
<path fill-rule="evenodd" clip-rule="evenodd" d="M91.9503 234.599H95.7601V255.031C95.7601 255.031 92.2818 255.922 91.9503 255.031C90.5219 251.22 91.9503 234.599 91.9503 234.599Z" fill="#4D4D4D"/>
<path fill-rule="evenodd" clip-rule="evenodd" d="M107.016 234.599C107.016 234.599 110.826 233.645 110.835 234.599C110.911 242.107 110.835 255.031 110.835 255.031C110.835 255.031 107.338 255.929 107.016 255.031C105.556 250.96 107.016 234.599 107.016 234.599Z" fill="#4D4D4D"/>
<path fill-rule="evenodd" clip-rule="evenodd" d="M151.231 227.006L182.686 225.696V263.908H150.115L151.231 227.006Z" fill="#CCCCB8"/>
<path fill-rule="evenodd" clip-rule="evenodd" d="M150.117 179.771H182.685V217.972C182.685 217.972 152.589 220.202 150.117 217.972C147.84 215.914 150.117 179.771 150.117 179.771Z" fill="#CCCCB8"/>
<path fill-rule="evenodd" clip-rule="evenodd" d="M7.77588 129.48C7.77588 129.48 13.5487 116.889 21.5968 104.988C29.6448 93.0836 31.8385 87.2331 36.5947 85.7712C41.3536 84.3093 63.6811 83.1855 63.6811 83.1855C63.6811 83.1855 50.2733 101.89 47.0878 110.1C43.9023 118.307 41.5359 124.341 41.5359 124.341L7.77588 129.48Z" fill="#3B3339"/>
<path d="M425.256 255.198C425.194 255.082 424.926 255.085 425.127 255.08C425.27 255.164 425.377 255.231 425.256 255.198Z" fill="white"/>
<path d="M425.271 255.306C425.061 255.225 424.931 255.233 424.666 255.066L425.271 255.306Z" fill="white"/>
<path d="M422.619 256.555C422.685 256.561 422.529 256.584 422.49 256.593C422.471 256.564 422.28 256.525 422.399 256.506C422.414 256.536 422.522 256.536 422.619 256.555Z" fill="white"/>
<path d="M422.514 257.178C422.312 257.184 422.144 257.051 422.115 256.968L422.514 257.178Z" fill="white"/>
<path d="M421.748 257.911C421.588 257.999 421.494 258.002 421.489 257.922L421.748 257.911Z" fill="white"/>
<path d="M422.204 257.871C422.215 257.922 422.102 257.971 421.991 258.022C422.161 257.984 421.871 257.919 422.204 257.871Z" fill="white"/>
<path d="M422.112 259.413C422.143 259.442 422.327 259.438 422.141 259.569C422.266 259.467 421.833 259.512 422.112 259.413Z" fill="white"/>
<path d="M422.692 259.896L422.722 259.942C422.662 260.026 422.519 260.069 422.486 260.047L422.692 259.896Z" fill="white"/>
<path d="M431.945 258.909L431.993 259.025L431.835 258.895L431.945 258.909Z" fill="white"/>
<path d="M431.744 254.064C431.6 254.104 431.838 253.894 431.849 253.864C431.914 253.897 431.658 254.026 431.744 254.064Z" fill="white"/>
<path d="M429.273 253.851H429.29L429.185 254.25L429.273 253.851Z" fill="white"/>
<path d="M291.382 226.046C291.31 226.138 291.214 226.267 291.061 226.095L291.401 225.976L291.433 226.103" fill="#389789"/>
<path d="M363.746 109.376C363.732 109.268 363.725 109.198 363.626 109.101L363.499 109.206L363.577 109.317C363.367 109.212 363.225 109.289 363.178 109.457L363.262 109.506L363.322 109.415C363.576 109.873 363.543 109.277 363.823 109.38" fill="#389789"/>
<path d="M362.986 108.719C363.054 108.786 363.03 108.682 363.073 108.773L363.019 108.94C362.938 108.773 362.931 108.781 363.033 108.688L363.079 108.833" fill="#389789"/>
<path d="M364.405 108.719C364.374 108.889 364.095 109.005 363.923 108.724C363.747 108.444 364.09 108.463 364.189 108.815L364.35 108.7" fill="#389789"/>
<path d="M360.373 110.865C360.316 110.941 360.172 111.176 360.022 111.057C360.005 110.958 360.222 110.732 360.362 110.874" fill="#389789"/>
<path d="M359.11 110.393C359.073 110.142 358.808 110.235 358.689 110.226C358.834 110.58 359.063 110.447 359.091 110.28" fill="#389789"/>
<path d="M360.458 109.35C360.355 109.304 360.146 109.301 360.288 109.485L360.458 109.35Z" fill="#389789"/>
<path d="M346.197 123.293C346.135 123.381 346.056 123.513 345.889 123.36L346.208 123.222L346.252 123.341" fill="#389789"/>
<path fill-rule="evenodd" clip-rule="evenodd" d="M41.5856 124.364L8.07837 129.628C8.07837 129.628 4.69946 175.642 4.69946 209.239V263.931L41.5856 277.515C41.5856 277.515 40.0509 203.663 40.2526 177.342C40.4542 151.02 41.5856 124.364 41.5856 124.364Z" fill="#1F5C56"/>
</svg>
