<svg width="501" height="386" viewBox="0 0 501 386" fill="none" xmlns="http://www.w3.org/2000/svg">
<g clip-path="url(#clip0)">
<path d="M186.07 75.8287C186.07 75.8287 161.253 63.0769 148.204 56.4022C135.147 49.7245 100.872 35.5955 100.478 37.8417C100.086 40.0917 109.724 60.9404 118.101 83.9542C124.952 102.782 136.281 108.141 136.281 108.141L186.07 75.8287Z" fill="#E86D11"/>
<path d="M-128.862 437.409C-75.4364 444.75 -35.2851 433.173 -9.68471 422.654C9.18171 414.898 35.1637 403.728 63.8788 407.144C87.7145 409.979 123.01 432.245 123.01 432.245C123.01 432.245 105.297 350.438 158.718 260.854C161.763 255.754 162.79 249.77 162.745 243.871C162.745 243.871 283.356 256.8 282.928 257.747C252.175 326.212 267.313 397.925 268.245 433.932C269.19 469.942 263.573 515.708 263.573 515.708C263.573 515.708 315.251 508.415 308.849 519.648C302.451 530.878 281.404 522.915 281.404 522.915C281.404 522.915 288.707 535.491 282.832 537.648C276.952 539.806 267.796 527.623 267.796 527.623C267.796 527.623 270.613 537.758 258.676 540.457C246.748 543.16 243.19 535.916 244.711 522.2C246.246 508.484 240.126 458.918 239.068 458.235C237.554 457.268 163.336 466.645 163.336 466.645L164.635 525.163C164.635 525.163 205.498 529.68 201.622 536.128C197.761 542.574 177.665 536.045 177.665 536.045C177.665 536.045 193.457 545.144 184.688 548.837C175.926 552.529 166.117 544.846 166.117 544.846C173.152 564.367 142.377 556.381 145.261 537.877L137.008 463.557C137.008 463.557 112.239 514.194 56.2108 520.673C-13.5643 528.742 -112.186 480.831 -145.707 453.162C-180.185 424.711 -167.44 432.104 -128.862 437.409Z" fill="#F88011"/>
<path d="M151.793 238.678C151.793 238.678 146.553 241.848 141.2 245.865C132.366 252.466 130.596 269.194 129.166 256.498C127.727 243.805 137.82 226.984 137.82 226.984C137.82 226.984 129.955 222.306 109.839 234.502C96.6814 242.479 117.884 207.347 117.884 207.347C117.884 207.347 100.081 212.904 88.5489 217.346C82.7098 219.596 111.873 182.393 111.873 182.393C111.873 182.393 112.006 179.975 106.344 169.768C103.525 164.713 102.639 145.713 102.639 145.713C102.639 145.713 78.7065 114.15 70.1239 101.689C61.5486 89.2256 55.6949 73.7253 55.6949 73.7253C55.6949 73.7253 95.8515 81.6863 117.127 88.8739C132.66 94.1153 147.242 103.162 147.242 103.162C147.242 103.162 143.703 93.5297 176.203 73.841C189.743 65.6247 241.077 55.9006 267.553 55.9659C288.153 56.022 340.302 40.2576 349.787 37.4403C366.068 32.6116 419.861 19.7139 425.359 30.3622C430.858 41.0219 423.547 56.4794 401.969 84.0954C380.783 111.197 297.63 174.408 291.612 229.673L257.986 267.55L167.587 262.178C162.464 249.139 151.793 238.678 151.793 238.678Z" fill="#F88011"/>
<path d="M254.784 285.277C254.784 285.277 264.326 305.667 270.845 318.835C277.376 332.004 286.924 340.102 290.907 342.163C294.879 344.235 316.556 342.812 315.816 350.656C315.336 355.644 304.853 356.999 304.853 356.999C304.853 356.999 310.28 363.349 309.935 368.643C309.441 376.538 295.543 367.112 295.543 367.112C295.543 367.112 306.537 384.187 294.423 387.666C287.095 389.765 278.879 378.786 273.307 354.036C267.93 330.174 238.329 297.175 238.329 297.175" fill="#F88011"/>
<path d="M273.564 300.937C266.847 362.617 264.41 370.72 272.229 432.41C255.175 434.644 226.817 436.063 210.642 439.25C208.155 428.982 207.869 417.839 208.32 406.869C212.191 312.282 235.601 284.394 246.734 256.982C253.753 239.69 283.296 199.36 313.041 180.506C299.547 203.376 276.506 273.921 273.564 300.937Z" fill="white"/>
<path d="M405.703 23.6107C423.777 20.0704 448.417 14.4643 441.108 31.1668C432.309 51.292 409.347 74.3553 409.347 74.3553C409.347 74.3553 385.862 41.9624 383.895 28.8968C383.893 28.897 399.139 24.8984 405.703 23.6107Z" fill="black"/>
<path d="M142.122 108.847C142.122 108.847 98.3773 93.1144 99.5347 97.1832C100.681 101.27 117.097 131.214 117.097 131.214C117.097 131.214 125.75 121.275 129.306 118.573C132.846 115.847 142.122 108.847 142.122 108.847Z" fill="white"/>
<path d="M138.303 64.6412C135.469 64.5192 136.401 68.102 139.088 73.944C141.777 79.7784 149.316 95.4156 149.316 95.4156L169.169 79.9365C169.169 79.9384 141.113 64.7697 138.303 64.6412Z" fill="white"/>
<path d="M202.72 124.648C208.993 136.801 226.464 140.776 240.974 133.475C251.869 127.999 258.462 110.279 243.759 97.1614C230.276 85.1306 219.633 86.6233 209.087 93.8051C199.028 100.658 196.446 112.49 202.72 124.648Z" fill="white"/>
<path d="M226.9 101.057C227.945 103.084 227.122 105.565 225.048 106.606C222.98 107.646 220.461 106.85 219.409 104.82C218.362 102.793 219.188 100.298 221.256 99.2619C223.331 98.219 225.855 99.0296 226.9 101.057Z" fill="black"/>
<path d="M231.783 401.308C231.783 401.308 228.088 309.143 216.081 291.851C199.695 268.277 150.026 271.68 150.026 271.68L154.085 264.461C154.085 264.461 202.239 254.386 228.401 290.979C241.685 309.559 247.184 399.593 247.184 399.593L231.783 401.308Z" fill="black"/>
<path d="M177.417 295.59C176.655 288.733 188.357 288.429 189.512 288.333C194.984 287.884 211.938 285.687 225.857 275.149C253.748 254.031 247.899 244.789 249.56 240.659C251.215 236.532 247.107 219.644 251.531 217.137C255.937 214.62 260.827 222.609 260.827 222.609C260.827 222.609 265.608 211.998 271.005 211.713C279.024 211.3 272.899 224.402 273.595 226.722C274.212 228.823 286.788 218.224 291.611 229.683C294.545 236.613 279.747 243.207 270.758 254.892C232.417 304.687 198.996 305.654 191.24 305.119C190.133 305.04 178.308 303.62 177.417 295.59Z" fill="#FAAA12"/>
<path d="M268.764 168.202C268.764 168.202 256.293 175.049 253.798 187.081" stroke="black" stroke-width="1.574" stroke-linecap="round"/>
<ellipse cx="264.572" cy="179.538" rx="16.3783" ry="16.3783" transform="rotate(13.0759 264.572 179.538)" fill="black"/>
</g>
<defs>
<clipPath id="clip0">
<rect width="649.555" height="556.365" fill="white" transform="matrix(-0.993891 0.110368 0.110368 0.993891 439.586 0)"/>
</clipPath>
</defs>
</svg>
