<svg width="352" height="287" viewBox="0 0 352 287" fill="none" xmlns="http://www.w3.org/2000/svg">
<path d="M110.553 268.952C109.187 269.023 111.288 269.291 109.66 269.088C109.843 268.938 110.11 268.826 110.553 268.952Z" fill="black" fill-opacity="0.22"/>
<path d="M155.715 275.121C151.434 276.456 145.515 275.569 140.915 276.735C140.423 277.007 140.884 276.161 139.722 276.827C141.744 278.143 150.95 277.317 156.047 278.157L155.71 278.317C156.792 278.404 158.098 277.859 159.243 277.895C159.254 277.997 158.88 278.052 159.149 278.18C159.427 277.865 161.213 277.969 161.688 277.722C162.145 277.822 162.112 278.064 162.701 278.173L163.341 277.799C165.12 276.895 167.762 277.647 170.216 277.05C170.1 277.139 169.86 277.218 170.062 277.283C174.004 276.525 178.975 276.185 183.351 275.369C183.196 275.517 183.065 275.757 183.341 275.86C183.507 275.456 184.852 275.179 186.008 274.894C186.608 275.175 187.948 274.195 189.332 274.073L189.237 274.184C190.124 273.551 190.777 274.037 191.42 273.329L192.129 273.414C192.347 272.765 193.608 273.152 194.216 272.496L194.138 272.414C194.028 273.929 193.179 272.455 192.59 272.734L192.535 272.658C190.819 272.396 189.865 271.967 189.838 272.394C189.289 271.965 191.528 272.508 190.666 271.873C184.92 271.332 179.015 271.018 173.217 270.986C172.562 270.805 172.141 270.77 171.994 270.61C171.415 270.694 169.811 270.697 169.288 270.91C169.483 270.9 168.911 270.699 168.604 270.682C167.546 270.537 167.459 271.155 166.299 270.99C166.756 270.87 166.911 270.735 166.753 270.585C165.772 270.929 164.449 270.898 163.285 271.033C163.465 270.957 163.744 270.909 163.698 270.781C162.431 271.183 161.367 270.771 160.254 271.033L160.665 270.784C158.86 270.544 160.139 271.3 158.58 271.152C158.953 271.073 158.821 270.982 158.887 270.883C157.44 271.323 155.092 271.254 153.649 271.462C153.734 271.424 153.709 271.361 153.709 271.361C152.133 271.475 150.477 271.419 148.754 271.699C148.116 271.626 148.929 271.101 147.263 271.285C147.35 271.76 144.441 271.651 145.459 272.133C144.03 272.131 141.764 272.121 140.828 272.347C141.455 272.121 140.092 271.811 141.273 271.691L140.356 271.462C140.475 271.259 141.282 271.465 140.981 271.239C140.385 271.292 138.672 271.622 138.135 271.588C137.057 271.968 136.094 272.589 134.327 272.821C135.144 272.556 133.803 272.341 134.362 272.205L131.976 273.354C131.392 273.439 131.81 272.993 130.971 273.209C131.028 273.331 130.666 273.449 130.419 273.58C130.19 273.547 127.992 273.966 127.681 273.547C127.396 273.399 128.625 273.323 127.954 273.241C126.869 273.386 126.842 273.554 125.758 273.704L125.728 273.643C125.001 273.666 123.665 274.174 124.474 274.302C124.969 274.236 124.244 274.053 124.995 274.069C124.539 274.425 123.301 274.682 122.25 274.89C122.59 274.738 122.526 274.623 122.648 274.468C121.35 275.101 119.679 275.556 118.696 276.177C118.703 276.39 118.821 275.632 119.171 275.675C118.587 275.729 118.44 275.942 118.116 276.059C118.439 275.291 118.168 275.429 118.615 275.565C119.019 275.555 120.432 275.723 121.112 276.055C120.826 276.06 121.009 275.72 121.019 275.786C122.004 275.936 121.917 276.254 122.579 276.215C122.623 276.406 123.399 276.271 124.076 276.268C124.436 276.164 124.242 276.378 123.654 276.344C124.609 276.288 128.363 276.316 130.529 276.679C130.494 276.55 131.889 276.277 132.384 276.311L132.178 276.596C132.627 276.797 133.856 276.642 133.931 276.891C135.015 276.584 129.797 277.029 131.256 276.812C131.622 277.074 133.292 276.431 132.964 276.819C133.972 276.845 134.958 276.535 135.912 276.842C135.636 276.786 135.084 277.227 135.899 277.23C137.336 277.215 136.31 277.103 137.478 277.026L138.21 276.917C138.263 276.632 139.493 276.976 138.963 276.646C139.138 276.888 141.05 276.531 140.9 277.002L140.696 277.375C141.316 277.35 141.717 276.987 142.205 276.826C142.286 276.859 142.449 276.937 142.418 276.998C142.521 276.421 143.9 277.059 144.641 276.61C145.944 276.808 147.951 276.627 148.568 276.978C149.571 276.798 150.483 276.589 151.628 276.701C151.399 276.757 151.089 276.777 151.025 276.9C151.745 277.065 151.922 276.91 152.578 276.811C152.431 276.897 154.018 277.136 154.819 277.332C155.814 277.151 155.468 276.844 155.568 276.653C156.486 277.213 158.383 276.261 159.534 276.767C159.187 276.847 158.077 277.055 158.91 277.191C159.828 277.751 160.748 276.757 162.221 277.022L161.858 276.554C162.517 276.842 164.028 276.272 163.88 276.75C164.372 276.577 165.621 276.905 165.458 276.45C167.889 276.828 171.378 276.292 172.826 277.126C173.171 277.057 174.034 277.136 173.859 276.9C173.288 276.643 173.055 277.077 172.845 276.9C173.155 276.89 173.224 276.767 173.256 276.704C174.003 276.813 174.592 276.847 173.882 277.225C175.548 277.513 175.604 276.462 177.724 276.636C177.628 276.824 177.789 276.897 178.41 276.866L179.586 276.536C180.958 276.61 180.369 276.966 180.403 277.287C181.136 277.226 182.034 277.231 182.365 276.989L183.26 277.381C182.607 277.097 183.863 277.183 184.206 277.1L183.864 277.182C183.998 277.317 184.847 277.225 185.278 277.177C185.171 276.981 184.305 276.912 183.832 276.857C184.204 276.714 184.788 276.74 185.283 276.564C185.122 276.881 186.482 276.77 187.064 276.792C187.734 276.85 187.814 276.499 188.009 276.507C188.03 276.669 189.1 276.517 188.584 276.754C188.356 276.809 188.06 276.603 187.685 276.754C188.126 276.868 188.081 277.153 188.995 276.931C189.679 276.759 188.806 276.313 190.113 276.483C189.773 276.567 189.712 276.696 189.447 276.816L190.675 276.951L190.722 276.663C190.889 276.734 190.776 276.76 190.852 276.796C191.21 276.486 192.718 276.66 192.987 276.316C193.604 276.272 194.292 276.476 194.883 276.493L194.769 276.522C195.495 276.667 196.449 276.529 197.047 276.318L197.018 276.381C197.412 276.394 198.34 276.316 198.828 276.127C199.825 276.307 199.2 277.198 200.285 276.796C201.295 276.747 201.844 276.209 201.43 276.043C203.247 276.154 205.278 275.602 206.973 275.943C207.226 275.813 207.058 275.75 207.588 275.651C210.252 275.625 213.129 274.931 215.253 275.267C214.51 275.463 215.234 275.558 215.269 275.72C215.867 275.405 216.052 275.898 216.218 275.43C216.121 275.178 216.175 275.059 215.435 275.038C216.737 274.849 219.747 274.076 219.178 274.606C218.841 274.749 219.533 273.596 218.486 275.34C218.669 275.094 218.492 275.633 218.913 276.242C219.507 276.792 220.154 276.894 219.574 276.695C219.218 276.562 218.722 276.469 218.285 276.443L218.103 276.662L217.623 276.283C217.282 276.286 217.142 276.715 216.371 276.288C216.349 276.182 216.323 276.075 216.186 275.968C215.263 275.997 214.018 275.963 213.075 275.684L212.342 275.221C211.921 275.209 211.196 275.34 211.906 275.536C210.291 275.107 209.231 274.942 208.739 274.558C205.791 275.069 201.656 274.817 198.276 274.786L198.379 274.597C197.475 274.414 197.904 274.925 197.275 274.786C197.568 274.608 196.587 274.389 197.301 274.176C196.002 273.965 195.627 274.488 194.786 274.565C194.659 274.812 195.463 274.412 195.301 274.725C195.16 274.801 193.502 274.541 193.302 274.924C192.974 274.781 193.225 274.502 193.401 274.347L192.606 274.543C191.625 274.121 194.819 273.721 193.789 273.198L193.053 273.271C192.346 272.89 195 272.793 193.146 272.692C192.344 272.89 191.667 273.445 192.385 273.597C190.717 273.73 191.626 274.506 189.834 274.506C189.341 274.292 191.266 274.427 190.916 274.125C190.066 273.837 189.228 274.323 188.474 274.229C189.313 274.358 188.616 274.747 188.08 274.824C187.161 274.669 188.666 274.456 187.367 274.448C187.161 274.669 185.971 274.86 187.005 274.987C186.548 275.488 185.653 274.883 184.955 275.28C184.527 274.945 186.274 274.451 184.843 274.311C185.079 274.638 183.097 274.805 183.861 275.28C183.302 275.198 183.236 274.938 183.638 274.725C182.836 274.537 181.718 275.379 181.435 274.718L181.165 275.059C180.909 274.95 180.549 274.87 180.135 274.688C179.429 274.688 177.855 275.168 177.917 274.654C177.692 274.708 176.073 274.698 176.695 275.049C177.703 275.257 177.853 274.78 178.418 275.255C177.703 274.869 176.963 275.318 176.378 275.453L176.284 275.255C175.942 275.349 175.121 275.255 174.898 275.468C175.174 275.364 175.034 275.224 174.756 275.166L174.378 275.453C172.937 275.553 174.057 274.91 172.663 274.95L173.727 274.754C173.492 274.795 173.034 274.494 172.366 274.565C172.095 274.832 171.59 275.144 171.353 275.35C170.58 275.44 170.966 275.028 170.281 275.277C170.621 275.188 170.881 275.079 171.262 274.987C171.392 274.898 170.646 274.514 169.625 274.458C168.967 274.517 167.93 274.858 168.951 275.066C168.438 275.041 167.731 274.833 168.148 274.654C166.982 274.68 168.283 274.96 167.274 275.074C166.875 274.865 165.614 274.53 164.861 274.219L165.931 273.819L165.239 273.776C166.158 273.458 164.799 273.468 165.33 273.107C164.859 273.02 164.276 273.117 163.812 273.192C165.162 273.896 162.209 273.95 162.579 274.544C160.67 274.585 161.474 273.09 159.439 273.86C159.755 274.03 158.796 274.405 160.002 274.313C158.826 274.18 159.166 274.834 157.787 274.517C158.833 274.344 156.715 273.874 158.225 273.625C158.116 273.806 159.047 273.816 159.279 273.777C158.807 273.53 159.415 273.21 158.207 273.14C157.467 273.149 156.456 273.101 156.584 273.406C156.594 273.734 157.712 273.437 157.22 273.739C155.745 273.764 155.529 273.254 154.887 273.797C155.817 273.805 156.03 274.153 155.999 274.376L154.912 274.45L155.135 274.246C153.414 273.987 154.6 274.607 152.929 274.45L152.17 273.977C152.59 273.631 154.597 274.285 154.334 273.667C153.245 273.578 152.864 273.86 151.848 273.645L152.623 273.571C152.233 273.528 151.892 272.712 150.312 273.084C149.5 273.216 150.087 273.285 150.054 273.508C148.3 273.472 147.765 273.671 146.637 273.641C146.893 273.217 144.647 273.481 145.918 273.105C146.475 273.395 149.005 273.517 149.65 273.136C149.045 272.581 151.02 273.291 151.426 272.787C150.024 272.693 150.122 272.187 149.917 271.839C149.528 271.791 149.142 271.913 148.907 271.949C148.724 272.256 149.233 272.281 149.244 272.605C147.683 272.427 146.165 272.518 145.284 272.775C144.77 272.589 144.953 272.284 145.573 272.287C143.705 272.272 141.719 272.117 139.955 271.921C141.07 272.501 137.976 271.934 138.734 272.404C139.674 272.574 140.468 272.983 139.931 273.184C139.342 273.118 139.963 272.961 139.722 272.838C138.952 273.075 138.576 272.322 137.81 272.724C139.52 272.651 138.175 272.116 138.511 271.733C137.273 271.888 138.581 271.449 137.366 271.382C136.133 271.537 134.62 271.631 133.256 271.646C131.57 271.171 128.933 271.415 127.408 271.353C126.62 271.111 127.184 270.679 126.324 270.56C125.306 270.519 127.051 271.086 125.558 270.807L125.709 270.723C125.247 270.807 122.963 270.284 122.488 270.916L122.975 270.446C122.695 270.388 122.431 270.487 122.197 270.531C122.192 270.368 121.872 270.208 122.333 270.124C121.42 269.745 120.38 270.095 119.37 270.065L120.008 270.385C118.27 270.535 117.127 270.213 115.452 270.255L115.512 269.971L114.511 270.111C114.764 269.839 113.855 269.639 113.324 269.857L115.933 269.232C116.647 269.425 115.136 269.549 115.577 269.847C115.954 270.106 117.502 270.084 117.764 269.818C117.171 269.765 117.141 269.828 116.677 269.913C116.496 269.508 117.396 269.557 117.851 269.307C117.539 269.312 117.101 269.177 117.03 269.3C117.648 269.13 118.266 269.116 119.283 269.15C118.588 269.279 119.647 269.411 119.383 269.516C119.478 269.17 120.453 269.101 121.706 269.251C122.584 269.692 124.075 269.101 125.527 269.28C124.919 269.607 124.151 269.854 123.26 269.956C124.166 270.177 124.276 269.995 125.184 270.215C125.639 269.973 125.974 269.58 127.173 269.481L127.225 269.745C128.31 269.666 128.33 269.28 129.698 269.42C132.048 269.667 134.47 269.801 136.265 269.929L136.317 270.193C137.347 269.692 139.658 270.171 141.017 270C143.291 270.383 146 270.036 147.147 270.554C151.198 270.588 154.74 270.602 158.915 270.946L158.188 271.282C158.954 271.049 158.662 271.529 159.402 271.517C158.574 271.163 160.443 271.184 160.976 270.983C162.819 271.388 165.23 271.212 166.894 271.039L166.945 271.306C168.613 270.906 170.645 271.476 172.674 271.614C172.905 271.73 173.265 271.987 173.88 271.982C175.012 271.585 175.577 271.692 177.228 271.393C178.43 271.383 180.378 271.471 181.604 271.626C186.13 270.932 190.786 271.183 195.548 270.8L195.893 271.11C200.524 270.461 206.228 271.224 210.228 271.425L209.786 271.898C211.005 272.218 212.629 272.123 212.369 271.714C213.594 271.986 215.537 271.903 216.236 272.563C217.478 272.949 217.838 272.684 218.914 272.86C219.538 273.056 220.064 273.214 220.542 273.35L220.89 273.445C222.53 274.266 222.37 275.357 222.178 276.363C221.615 277.514 221.365 277.179 220.892 277.593C219.405 278.209 218.798 278.245 217.491 278.514L218.106 278.461C218.359 278.308 218.341 278.085 217.729 278.138C216.822 278.443 214.38 278.41 215.349 278.933C212.729 278.87 209.389 279.724 206.874 279.384C207.093 279.541 206.468 279.612 206.212 279.742C203.977 279.859 201.613 279.623 199.846 279.973C199.49 279.9 200.401 279.66 199.491 279.678C198.955 279.762 199.49 279.901 198.829 280.021C195.223 280.472 191.501 279.915 188.219 280.057C182.383 280.492 176.292 280.368 170.663 280.329L170.73 280.205C168.848 280.648 166.393 279.648 164.895 280.375C164.457 280.256 163.215 280.324 163.541 280.08C162.062 280.421 159.387 279.784 157.239 280.237C157.436 280.247 157.55 280.22 157.78 280.164C155.605 279.907 153.69 280.304 151.392 280.072C151.624 280.016 152.046 279.973 152.115 279.846C151.227 279.613 150.015 280.391 149.527 279.788C149.018 279.796 149.165 280.096 149.477 280.076C144.446 279.865 139.072 280.248 133.793 280.216C130.031 279.708 133.604 279.189 130.606 279.516C130.368 279.387 130.419 279.74 130.385 279.613C129.221 279.735 128.629 278.828 127.812 279.1C128.117 279.492 127.266 279.275 127.225 279.497C124.924 279.075 124.502 278.706 122.644 278.78L122.803 278.602C121.701 278.737 120.534 278.684 119.396 278.544C118.878 277.817 115.512 279.962 115.425 274.504C120.137 270.785 122.06 272.038 125.258 271.011C128.149 270.57 131.01 270.182 133.858 269.869C139.556 269.229 145.211 268.745 150.939 268.43C162.419 268.263 173.175 267.304 184.985 268.636C187.67 269.353 187.866 269.477 190.91 269.661C190.773 269.724 190.581 269.719 190.771 269.823C190.992 269.397 192.9 270.23 193.275 269.892L194.893 270.267L195.094 270.311L195.119 270.318L195.132 270.321C194.994 269.332 196.355 278.94 195.778 274.874H195.774L195.767 274.879L195.713 274.907L195.604 274.963L195.165 275.192L194.3 275.606C193.184 276.071 192.116 276.417 191.057 276.711C188.94 277.303 186.851 277.715 184.643 278.056C185.334 277.904 185.625 277.509 184.803 277.664L183.981 278.066L183.821 277.969C183.264 278.115 182.678 278.401 183.28 278.459C172.229 280.284 161.391 279.824 150.628 280.064C148.064 279.908 144.438 280.064 141.59 280.038L139.972 279.837C139.714 279.806 139.357 279.74 138.991 279.669L138.092 279.337C137.836 278.988 138.176 279.889 137.059 278.118C136.932 274.561 139.163 275.2 138.48 275.128C138.377 275.182 139.907 274.704 138.471 275.245C140.251 274.589 140.074 274.358 142.694 274.21C144.069 274.365 146.353 274.319 148.191 274.283C152.343 274.271 155.42 273.726 160.787 273.747C160.263 273.592 159.043 274.668 155.715 275.121Z" fill="black" fill-opacity="0.22"/>
<path d="M112.198 268.928C112.484 269.149 113.435 269.289 112.67 269.551C112.58 269.35 112.095 269.115 112.198 268.928Z" fill="black" fill-opacity="0.22"/>
<path d="M137.479 272.238C137.515 272.177 137.835 272.342 137.915 272.38C137.601 272.38 137.298 272.54 137.055 272.419C137.373 272.423 137.331 272.318 137.479 272.238Z" fill="black" fill-opacity="0.22"/>
<path d="M143.954 272.728C143.846 272.909 142.451 272.982 141.633 272.959L143.954 272.728Z" fill="black" fill-opacity="0.22"/>
<path d="M149.945 273.854C150.456 274.043 150.308 274.121 149.608 274.075C149.56 273.973 149.796 273.936 149.945 273.854Z" fill="black" fill-opacity="0.22"/>
<path d="M150.399 273.452C150.901 273.477 151.145 273.602 151.381 273.724C151.373 273.56 150.212 273.755 150.399 273.452Z" fill="black" fill-opacity="0.22"/>
<path d="M163.481 274.777C163.798 274.78 164.489 274.663 164.77 274.891C164.449 274.726 163.221 275.036 163.481 274.777Z" fill="black" fill-opacity="0.22"/>
<path d="M169.602 274.848C169.798 274.873 169.877 274.909 170.108 274.873C170.467 274.977 170.077 275.094 169.77 275.094L169.602 274.848Z" fill="black" fill-opacity="0.22"/>
<path d="M160.777 276.696L161.437 276.597L161.341 276.783L160.777 276.696Z" fill="black" fill-opacity="0.22"/>
<path d="M121.738 275.383C122.334 275.136 122.202 275.464 122.311 275.469C121.759 275.608 122.473 275.199 121.738 275.383Z" fill="black" fill-opacity="0.22"/>
<path d="M147.574 271.806L147.375 271.823L147.42 271.436L147.574 271.806Z" fill="black" fill-opacity="0.22"/>
<path d="M115.999 135.681C115.999 135.681 100.201 136.4 93.1115 134.941C86.0558 133.487 80.5205 128.939 78.8755 127.5C78.6127 127.267 78.4209 126.844 78.2578 126.308V138.191C85.5913 140.934 91.1203 143.461 97.6618 144.569C109.786 146.623 120.218 144.884 120.218 144.884L115.999 135.681Z" fill="#FF8000"/>
<path d="M155.037 47.9644C155.037 47.9644 142.932 42.9634 124.484 41.492C116.795 40.8791 100.992 47.9284 89.5604 53.7941C80.6641 58.3597 54.5954 62.9438 49.8646 63.7986C41.7478 65.27 15.6094 71.4707 15.6094 77.3513C15.6094 83.2319 22.2206 88.3954 37.7106 95.745C53.2057 103.094 104.86 110.448 116.666 135.443C128.474 160.435 136.586 203.075 138.063 220.717C139.54 238.359 144.704 260.415 144.704 260.415C144.704 260.415 119.371 259.649 123.06 264.793C126.751 269.935 136.481 264.904 136.481 264.904C136.481 264.904 133.636 271.443 136.586 272.176C139.539 272.913 143.306 266.464 143.306 266.464C143.306 266.464 142.49 271.564 148.395 272.238C154.298 272.911 155.629 269.18 154.154 262.562C152.898 256.941 153.45 231.005 153.45 231.005C152.766 231.56 190.457 231.005 190.457 231.005L192.966 259.666C192.966 259.666 173.484 264.088 175.7 267.028C177.913 269.97 187.261 265.686 187.261 265.686C187.261 265.686 180.126 270.992 184.554 272.318C188.98 273.646 193.304 269.36 193.304 269.36C190.955 279.28 205.378 273.709 202.998 264.824V228.067C202.998 228.067 217.668 251.465 245.057 251.591C279.167 251.746 324.2 222.991 338.896 207.653C354.008 191.881 348.253 196.182 329.913 200.868C304.523 207.355 284.524 203.873 271.609 200.123C262.083 197.36 248.944 193.312 235.267 196.539C223.916 199.216 208.073 212.014 208.073 212.014C208.073 212.014 212.239 171.088 181.651 130.219C175.769 122.358 180.381 108.357 180.381 108.357C180.381 108.357 183.354 108.592 186.567 109.169C191.858 110.119 196.358 117.06 194.144 111.177C191.933 105.299 183.813 100.155 183.813 100.155C183.813 100.155 186.171 96.3678 197.591 97.2796C205.06 97.8751 188.05 87.156 188.05 87.156C188.05 87.156 196.991 85.6685 202.968 85.0718C205.997 84.7691 185.086 74.8924 185.086 74.8924C185.086 74.8924 184.488 73.8626 184.659 68.1421C184.75 65.3022 183.812 56.7828 183.812 56.7828C183.812 56.7828 187.122 37.672 188.048 30.32C188.975 22.968 188.048 14.8828 188.048 14.8828C188.048 14.8828 172.463 27.2234 164.866 35.063C159.324 40.7823 155.037 47.9644 155.037 47.9644Z" fill="#FF8000"/>
<path d="M116.016 138.325C127.429 161.187 132.887 180.778 135.846 218.074C144.012 218.239 162.917 217.413 170.72 218.074C171.354 213.038 170.117 207.761 170.117 202.487C170.117 151.543 145.642 124.147 103.655 114.096C95.9356 112.25 80.3559 107.728 76.8828 108.473C91.2882 114.077 110.515 127.309 116.016 138.325Z" fill="white"/>
<g opacity="0.8">
<g opacity="0.8">
<path opacity="0.8" d="M76.8828 108.471C91.2895 114.076 110.062 127.546 116.017 138.325C126.611 157.509 130.287 175.432 135.471 206.545" stroke="#CCCCB8" stroke-width="0.485" stroke-linecap="round"/>
</g>
</g>
<path d="M22.5997 70.0561C13.9923 72.489 2.08867 75.4615 8.97507 81.171C17.2736 88.0528 32.344 93.1021 32.344 93.1021C32.344 93.1021 35.2754 73.7271 33.2095 67.5674C33.2083 67.5674 25.7278 69.1715 22.5997 70.0561Z" fill="black"/>
<path d="M107.898 46.1926C107.898 46.1926 113.048 32.9934 116.399 26.6985C119.75 20.4035 129.5 5.24166 130.286 6.04435C131.069 6.84828 134.442 12.0676 135.09 21.8873C135.743 31.7057 135.602 44.3862 135.602 44.3862L107.898 46.1926Z" fill="#FF8000"/>
<path d="M163.383 52.2345C163.383 52.2345 178.788 35.6943 179.198 37.7364C179.61 39.781 179.198 56.5234 179.198 56.5234C179.198 56.5234 173.235 54.0756 171.092 53.6687C168.95 53.2592 163.383 52.2345 163.383 52.2345Z" fill="white"/>
<path d="M126.516 26.7989C127.61 25.9702 128.24 27.681 128.796 30.7876C129.348 33.8941 130.703 42.3044 130.703 42.3044L118.453 41.493C118.454 41.4918 125.428 27.6252 126.516 26.7989Z" fill="white"/>
<path d="M151.597 75.5249C151.597 82.2342 144.745 89.6656 136.839 89.6656C130.904 89.6656 124.103 83.3508 127.533 74.3636C130.677 66.1184 135.613 64.4237 141.775 65.2499C147.655 66.0365 151.597 68.8155 151.597 75.5249Z" fill="white"/>
<path d="M110.443 60.6546C110.027 65.5005 104.196 70.2447 99.0857 68.9048C95.1755 67.8826 90.837 63.6073 93.7235 57.3198C96.3648 51.5558 101.067 49.7234 104.789 51.2791C108.952 53.016 110.861 55.8099 110.443 60.6546Z" fill="white"/>
<path d="M134.09 72.4644C134.09 73.6281 135.039 74.5648 136.206 74.5648C137.371 74.5648 138.316 73.6269 138.316 72.4644C138.316 71.3057 137.37 70.364 136.206 70.364C135.039 70.364 134.09 71.3069 134.09 72.4644Z" fill="black"/>
<path d="M97.8086 55.6649C97.8086 56.712 98.6629 57.5544 99.7101 57.5544C100.761 57.5544 101.612 56.7107 101.612 55.6649C101.612 54.6252 100.76 53.7754 99.7101 53.7754C98.6616 53.7754 97.8086 54.6252 97.8086 55.6649Z" fill="black"/>
<path d="M135.086 206.255C135.086 206.255 170.929 206.918 183.598 206.255C196.258 205.593 208.55 201.704 208.55 201.704C208.55 201.704 209.025 214.321 208.55 224.625C208.025 236.263 206.006 246.13 206.006 246.13C206.006 246.13 185.216 243.094 181.317 243.644L180.089 237.072L155.013 235.129V242.25H135.979L135.086 206.255Z" fill="#389789"/>
<path d="M170.789 146.427C170.789 146.427 175.657 156.752 179.443 162.902C183.224 169.054 184.109 175.095 183.937 177.268C183.761 179.442 178.307 186.028 179.694 188.068C181.076 190.109 184.945 187.615 184.945 187.615C184.945 187.615 184.73 193.312 187.024 194.576C190.438 196.455 190.604 189.377 191.415 188.5C192.138 187.705 195.339 195.042 199.932 191.006C202.716 188.566 199.145 183.811 193.447 173.213C185.029 157.557 176.627 141.177 176.627 141.177" fill="#FFAA12"/>
<path d="M175.622 202.796C175.622 202.796 166.624 157.568 171.494 148.472C178.139 136.063 187.45 135.397 187.45 135.397L185.101 132.092C185.101 132.092 172.561 134.612 165.5 148.716C160.493 158.728 168.093 202.796 168.093 202.796H175.622Z" fill="black"/>
<path d="M137.248 203.372C137.248 203.372 132.31 167.399 127.526 158.249C125.039 153.483 122.248 150.294 122.248 150.294L119.582 144.757C119.582 144.757 125.015 145.198 132.001 156.205C138 165.652 143.224 202.797 143.224 202.797L137.248 203.372Z" fill="black"/>
<path d="M168.438 207.24L176.17 206.581L175.622 201.979L167.82 202.796L168.438 207.24Z" fill="#202020"/>
<path d="M143.94 201.933H136.668V206.545H143.94V201.933Z" fill="#202020"/>
<path d="M336.401 198.865C310.939 207.324 287.932 204.53 274.347 200.85C279.561 205.719 288.48 215.609 285.788 215.517C281.981 215.387 265.756 220.861 270.329 221.023C274.906 221.178 286.017 223.586 286.017 223.586C286.017 223.586 272.966 232.869 274.469 233.589C275.967 234.316 291.359 230.827 291.359 230.827C291.359 230.827 290.389 235.634 290.378 239.659C313.122 231.381 326.445 219.099 335.868 211.002C352.398 196.806 352.063 193.663 336.401 198.865Z" fill="white"/>
<g opacity="0.8">
<g opacity="0.8">
<path opacity="0.8" d="M290.736 239.658C314.164 228.137 326.806 219.099 336.23 211.002C352.759 196.806 352.426 193.662 336.765 198.865C311.302 207.324 288.294 204.532 274.711 200.85" stroke="#CCCCB8" stroke-width="0.485" stroke-linecap="round"/>
</g>
</g>
<path d="M112.402 108.471C112.402 108.471 121.107 109.269 124.576 104.767C128.046 100.264 128.742 93.1023 128.742 93.1023C128.742 93.1023 135.416 104.242 131.403 108.525C123.891 116.54 112.402 108.471 112.402 108.471Z" fill="black"/>
<path d="M67.1877 127.856C62.7408 125.293 57.1196 120.384 60.3299 119.304C65.2451 117.659 70.621 124.664 70.621 124.664C70.621 124.664 68.7655 115.895 73.4403 118.163C74.764 118.806 76.5584 122.619 77.6331 124.885C79.3429 128.485 87.685 137.609 84.3452 138.038C78.13 138.833 67.824 136.928 67.7132 134.781C67.5974 132.637 67.1877 127.856 67.1877 127.856Z" fill="#FF8000"/>
<path d="M67.2119 128.111C67.2119 128.111 76.0547 128.965 76.026 132.069C76.0036 134.342 70.7186 133.747 70.7186 133.747C70.7186 133.747 76.9114 135.427 76.1668 138.295C75.5279 140.754 70.167 140.291 68.1085 137.047C66.0538 133.803 67.2119 128.111 67.2119 128.111Z" fill="#FFAA12"/>
</svg>
