<svg width="383" height="99" viewBox="0 0 383 99" fill="none" xmlns="http://www.w3.org/2000/svg">
<path d="M189.775 68.0116C189.775 68.0116 184.591 77.6374 178.135 83.5135C166.02 94.5375 148.204 97.8928 148.204 97.8928C148.204 97.8928 173.848 80.9577 174.726 68.0116C175.088 62.6458 173.404 62.7966 173.404 62.7966L189.775 68.0116Z" fill="#00A5A5"/>
<path d="M335.978 39.2376C336.456 15.907 329.162 4.01577 304.357 2.87016C276.585 1.5861 90.8002 -0.848125 61.3647 3.38287C38.8189 6.62344 36.6931 65.9395 64.1047 69.3003C93.8327 72.944 280.481 75.5578 316.123 68.8606C333.693 65.5592 335.705 52.6456 335.978 39.2376Z" fill="#00A5A5"/>
<g clip-path="url(#clip0)">
<path d="M74.6067 50.3385C74.5617 49.6969 74.6067 49.0485 74.7451 48.3966C74.8836 47.7447 74.9753 47.0946 75.0221 46.4547C75.0913 45.9955 75.138 45.538 75.1605 45.0787C75.183 44.6195 75.2194 44.1637 75.2644 43.7045C75.2402 43.6821 75.2298 43.646 75.2298 43.6013V43.4637L75.5759 41.195C75.46 40.8269 75.4652 40.4537 75.5932 40.0787C75.7196 39.6986 75.8061 39.3494 75.8529 39.0295C75.8736 38.8007 75.9221 38.3587 75.9913 37.7051C76.0606 37.0515 76.1523 36.3085 76.2683 35.4708C76.3825 34.6349 76.5037 33.7525 76.63 32.8237C76.7564 31.8967 76.8896 31.0367 77.0281 30.2455C77.1666 29.456 77.2999 28.7921 77.4262 28.252C77.5526 27.7153 77.6737 27.4109 77.7897 27.3421C78.1359 27.1357 78.5339 27.0205 78.9822 26.9998C79.4323 26.9757 79.8528 26.9517 80.2458 26.931C80.5227 26.9069 80.7408 26.8949 80.9035 26.8949C81.0627 26.8949 81.305 26.9069 81.6304 26.931C81.9056 27.0893 82.1272 27.4006 82.2864 27.8598C82.4474 29.1206 82.6949 30.316 83.0289 31.4529C83.3647 32.5864 83.6919 33.7594 84.0173 34.9737C84.038 35.0219 84.0726 35.1526 84.1194 35.3711C84.1644 35.5878 84.218 35.8234 84.2752 36.0745C84.3323 36.3274 84.3894 36.5613 84.4482 36.7797C84.5054 36.9965 84.533 37.1289 84.533 37.1736C84.5815 37.2871 84.6438 37.4815 84.7252 37.7584C84.8065 38.0319 84.8567 38.228 84.8809 38.3415C84.8809 38.3639 84.8913 38.3879 84.9156 38.4103C84.9381 38.4327 84.9606 38.4447 84.9848 38.4447H85.0194C85.1579 38.4447 85.2652 38.1523 85.3465 37.5675C85.4279 36.9827 85.4971 36.2551 85.5542 35.3865C85.6114 34.5145 85.6702 33.5754 85.7273 32.5675C85.7844 31.5595 85.8537 30.6187 85.935 29.7484C86.0164 28.8763 86.1185 28.1505 86.2466 27.5657C86.3729 26.9809 86.5408 26.6782 86.7485 26.6541L90.3798 26.3789C90.4491 26.3789 90.5408 26.4322 90.6568 26.5337C90.7727 26.6386 90.842 26.7349 90.8645 26.8261L91.5205 31.7763C91.5672 31.9586 91.6191 32.1547 91.6762 32.3611C91.7351 32.5675 91.787 32.7618 91.832 32.9459C91.8562 33.197 91.9012 33.5926 91.9705 34.1309C92.0397 34.671 92.1211 35.2765 92.2145 35.9524C92.3063 36.6284 92.398 37.3319 92.4897 38.0663C92.5832 38.8007 92.6732 39.5042 92.7667 40.1802C92.8584 40.8579 92.9449 41.4599 93.0263 41.9879C93.1059 42.5159 93.17 42.9047 93.2167 43.1558C93.2392 43.3863 93.298 43.775 93.3898 44.3237C93.4815 44.8741 93.5854 45.4657 93.6996 46.0935C93.8173 46.7248 93.9246 47.3165 94.0302 47.8651C94.1323 48.4138 94.2067 48.8043 94.2552 49.033V49.1379C94.276 49.2515 94.2708 49.3994 94.2379 49.5851C94.2015 49.7692 94.1271 49.8827 94.0129 49.9274L90.8645 50.1355L88.8567 34.9428L88.72 34.358L86.7831 50.0994L84.7079 50.2749L80.5573 34.4629L77.9974 51.2329C77.9732 51.3911 77.968 51.4892 77.9801 51.5236C77.9905 51.558 77.9403 51.5735 77.8226 51.5735C77.8018 51.5735 77.7897 51.5821 77.7897 51.5924C77.7897 51.6027 77.7776 51.6096 77.7551 51.6096H77.7205C77.5353 51.5872 77.2756 51.558 76.9433 51.5236C76.6075 51.4892 76.2683 51.4255 75.9221 51.3361C75.5759 51.2415 75.2765 51.1245 75.0221 50.9732C74.7711 50.8235 74.6309 50.6137 74.6067 50.3385Z" fill="white"/>
<path d="M99.3058 50.3384C99.214 50.2713 99.1223 50.1973 99.0306 50.1165C98.9371 50.0339 98.8921 49.9376 98.8921 49.8241C98.7744 48.7233 98.7813 47.6105 98.9094 46.489C99.0358 45.3659 99.0998 44.2547 99.0998 43.1557C99.0998 41.7797 99.0583 40.3985 98.9786 39.0139C98.8973 37.6259 98.8108 36.2413 98.719 34.8549C98.6256 33.4669 98.5494 32.0875 98.494 30.7132C98.4352 29.3372 98.43 27.9749 98.4767 26.6213C98.4767 26.4854 98.5165 26.3358 98.5979 26.1741C98.6792 26.0141 98.7986 25.923 98.9613 25.9006C99.1915 25.8765 99.4633 25.8886 99.7748 25.935C100.085 25.9815 100.344 25.9918 100.552 25.9694C100.644 25.9694 100.817 25.9625 101.071 25.9505C101.324 25.9402 101.594 25.9299 101.883 25.9178C102.17 25.9058 102.444 25.8937 102.696 25.8817C102.949 25.8714 103.122 25.8662 103.216 25.8662C103.237 25.8662 103.33 25.8542 103.493 25.8318C103.654 25.8077 103.825 25.7871 104.012 25.763C104.195 25.7389 104.362 25.7183 104.512 25.6942C104.663 25.6701 104.76 25.6581 104.806 25.6581C104.945 25.6581 105.17 25.6495 105.48 25.6254C105.791 25.6031 106.105 25.6031 106.414 25.6254C106.726 25.6495 107.008 25.6942 107.262 25.763C107.515 25.8318 107.654 25.9694 107.678 26.1741L107.92 29.062C107.941 29.246 107.861 29.4008 107.678 29.5264C107.491 29.6537 107.32 29.7276 107.159 29.75C106.698 29.7964 106.236 29.7792 105.774 29.6984C105.314 29.6175 104.841 29.6003 104.356 29.6468C104.242 29.6468 104.092 29.6537 103.906 29.664C103.723 29.676 103.531 29.7035 103.337 29.75C103.14 29.7964 102.973 29.8652 102.835 29.9547C102.696 30.0475 102.627 30.1851 102.627 30.3692C102.696 31.2859 102.696 32.2371 102.627 33.2227C102.558 34.2065 102.57 35.1697 102.66 36.1088C102.66 36.2241 102.672 36.372 102.696 36.556C102.719 36.7401 102.788 36.888 102.904 37.0032C102.996 37.0703 103.14 37.1219 103.337 37.158C103.531 37.1907 103.735 37.2079 103.943 37.2079C104.149 37.2079 104.344 37.2027 104.531 37.1907C104.715 37.1804 104.851 37.1752 104.945 37.1752C105.037 37.1752 105.21 37.1632 105.464 37.1391C105.717 37.1167 105.982 37.0892 106.26 37.0531C106.536 37.0204 106.8 36.9912 107.055 36.9688C107.307 36.9465 107.482 36.9344 107.572 36.9344C107.642 36.9344 107.7 36.974 107.747 37.0531C107.792 37.1339 107.816 37.1976 107.816 37.244L108.059 39.4783C108.079 39.6847 108.029 39.8911 107.903 40.0958C107.777 40.3005 107.621 40.4174 107.434 40.4381C106.927 40.5086 106.42 40.5017 105.912 40.4209C105.405 40.34 104.888 40.3228 104.356 40.371C104.033 40.4157 103.804 40.5017 103.666 40.6273C103.526 40.7528 103.434 40.9093 103.387 41.0934C103.342 41.274 103.318 41.4838 103.318 41.7091V42.4315C103.318 42.5003 103.307 42.6689 103.285 42.9303C103.261 43.1952 103.233 43.4739 103.198 43.7731C103.164 44.069 103.134 44.3459 103.11 44.597C103.089 44.8499 103.065 45.0098 103.043 45.0786C103.089 45.101 103.098 45.1715 103.077 45.285C103.053 45.3985 103.065 45.4914 103.11 45.5602C103.11 45.6978 103.134 45.8629 103.179 46.0573C103.228 46.2517 103.354 46.3514 103.562 46.3514H104.374H105.585H106.795H107.572C107.941 46.3514 108.277 46.3841 108.576 46.4546C108.876 46.5217 109.083 46.7745 109.199 47.2097C109.199 47.2561 109.217 47.3645 109.251 47.5348C109.286 47.7051 109.32 47.9011 109.355 48.1196C109.39 48.338 109.424 48.5565 109.459 48.7715C109.494 48.9899 109.521 49.1567 109.545 49.272V49.4767C109.59 49.8 109.511 49.9806 109.303 50.0253C109.095 50.0735 108.863 50.1182 108.611 50.1629C107.642 50.2782 106.674 50.3074 105.705 50.2489C104.737 50.1956 103.768 50.1543 102.8 50.132C102.731 50.1079 102.558 50.1148 102.281 50.1492C102.006 50.1836 101.843 50.1991 101.796 50.1991C101.705 50.1991 101.537 50.2059 101.295 50.218C101.054 50.23 100.799 50.2455 100.535 50.2696C100.27 50.2919 100.021 50.3074 99.7904 50.3177C99.5585 50.3315 99.3992 50.3384 99.3058 50.3384Z" fill="white"/>
<path d="M134.019 49.3065C133.925 49.3065 133.816 49.3426 133.692 49.4114C133.562 49.4802 133.436 49.5542 133.311 49.6333C133.183 49.7141 133.072 49.795 132.98 49.8758C132.889 49.9566 132.83 50.0065 132.809 50.0306C132.485 50.1923 132.127 50.2817 131.736 50.3058C131.343 50.3299 130.974 50.3419 130.63 50.3419C129.822 50.3626 129.067 50.1785 128.362 49.7898C127.66 49.3994 127.031 48.8868 126.479 48.2452C125.924 47.6037 125.47 46.8882 125.112 46.0952C124.754 45.3058 124.518 44.5335 124.402 43.7767C124.264 42.8823 124.189 41.9707 124.177 41.0419C124.167 40.1148 124.15 39.1946 124.125 38.2761C124.08 37.1065 124.162 35.8595 124.369 34.5282C124.575 33.2004 124.921 31.9981 125.404 30.9197C125.614 30.4622 125.891 29.9754 126.237 29.4594C126.581 28.9434 126.981 28.4566 127.429 27.9974C127.88 27.5399 128.357 27.1322 128.864 26.7779C129.371 26.4219 129.879 26.1759 130.386 26.04C130.479 26.04 130.664 26.028 130.941 26.0039C131.217 25.9816 131.4 25.9712 131.494 25.9712C132.485 25.9472 133.292 26.0332 133.915 26.2275C134.538 26.4219 135.016 26.7384 135.352 27.1735C135.684 27.6087 135.911 28.1694 136.025 28.8574C136.141 29.5454 136.21 30.3813 136.233 31.3652V31.6937C136.233 31.8433 136.238 32.0016 136.25 32.1736C136.262 32.3473 136.267 32.5124 136.267 32.6724V33.0164C136.243 33.2004 136.22 33.3999 136.198 33.6184C136.175 33.8368 136.136 34.0363 136.077 34.2204C136.018 34.4027 135.931 34.5644 135.817 34.7002C135.703 34.8378 135.54 34.9066 135.334 34.9066C134.872 34.8843 134.445 34.8275 134.053 34.7346C133.73 34.6658 133.43 34.5816 133.153 34.4766C132.878 34.3734 132.74 34.2307 132.74 34.0484L132.703 31.5389C132.703 31.2172 132.56 30.942 132.272 30.7133C131.983 30.4845 131.689 30.3693 131.39 30.3693C130.652 30.3934 130.034 30.7184 129.539 31.3497C129.043 31.9809 128.646 32.7291 128.347 33.6012C128.046 34.4715 127.833 35.3659 127.706 36.2826C127.578 37.1994 127.516 37.9665 127.516 38.5857C127.539 39.1327 127.615 39.8155 127.741 40.6308C127.867 41.4444 128.073 42.227 128.362 42.982C128.651 43.7406 129.032 44.3821 129.505 44.9067C129.977 45.4348 130.583 45.6979 131.32 45.6979C131.736 45.6773 132.07 45.5276 132.324 45.2524C132.577 44.9755 132.683 44.635 132.634 44.2204C132.634 44.1964 132.629 44.1396 132.617 44.0467C132.606 43.9556 132.594 43.8575 132.584 43.7543C132.572 43.6511 132.548 43.5617 132.515 43.4791C132.478 43.3983 132.439 43.3604 132.394 43.3604L130.767 43.3948C130.697 43.3948 130.623 43.3553 130.542 43.2744C130.46 43.1953 130.386 43.099 130.317 42.982C130.247 42.8685 130.19 42.7584 130.145 42.657C130.098 42.5555 130.076 42.4678 130.076 42.399L130.041 40.1664C130.041 39.9359 130.133 39.7467 130.317 39.5988C130.502 39.4509 130.697 39.3769 130.905 39.3769H131.043C131.159 39.3976 131.36 39.4457 131.649 39.5128C131.938 39.5799 132.117 39.6263 132.184 39.6504L136.648 39.5128C136.693 39.5128 136.757 39.5764 136.838 39.7003C136.918 39.8258 136.982 39.9256 137.027 39.9927C137.051 40.0185 137.069 40.0374 137.081 40.0632C137.091 40.0873 137.108 40.1062 137.133 40.1303C137.155 40.175 137.178 40.2111 137.202 40.2352C137.202 40.304 137.19 40.4399 137.165 40.648C137.145 40.8527 137.12 40.9903 137.096 41.0574L137.271 50.1321C137.271 50.3144 137.207 50.4589 137.081 50.5621C136.953 50.6653 136.831 50.7169 136.717 50.7169C136.394 50.7392 136.054 50.7066 135.698 50.6137C135.339 50.5225 135.033 50.3849 134.779 50.2026C134.619 50.1097 134.503 49.9394 134.434 49.6866C134.365 49.4338 134.228 49.3065 134.019 49.3065Z" fill="white"/>
<path d="M152.386 50.6806C152.179 50.6376 152.023 50.5086 151.919 50.3039C151.815 50.0958 151.734 49.8808 151.677 49.6486C151.62 49.4216 151.573 49.2203 151.54 49.0483C151.504 48.8746 151.44 48.7903 151.348 48.7903C151.209 48.8127 151.031 48.9176 150.813 49.1016C150.593 49.2822 150.346 49.4921 150.069 49.7174C149.792 49.9479 149.48 50.1663 149.134 50.371C148.79 50.5774 148.431 50.6944 148.063 50.7167C147.601 50.7597 147.147 50.7374 146.697 50.6462C146.247 50.555 145.837 50.3951 145.468 50.1663C144.637 49.6864 143.985 49.0879 143.514 48.3792C143.042 47.6672 142.673 46.8949 142.406 46.0572C142.141 45.2213 141.958 44.351 141.854 43.4463C141.749 42.5416 141.652 41.6626 141.56 40.8164C141.397 39.2099 141.37 37.6189 141.473 36.0382C141.577 34.4558 141.686 32.8528 141.802 31.2257V30.9367C141.802 30.763 141.814 30.579 141.835 30.3846C141.859 30.1902 141.871 30.0062 141.871 29.8359V29.5074C141.892 29.1428 141.904 28.8211 141.904 28.5459C141.904 28.2724 141.953 28.0368 142.043 27.8424C142.136 27.6464 142.292 27.4812 142.51 27.3436C142.73 27.206 143.069 27.1028 143.531 27.034C143.646 27.0117 143.813 27.0168 144.033 27.0512C144.251 27.0856 144.483 27.1372 144.724 27.206C144.966 27.2748 145.198 27.354 145.416 27.4468C145.636 27.538 145.78 27.6309 145.849 27.7203C145.849 27.7685 145.859 27.8476 145.884 27.9628C145.906 28.0764 145.918 28.1572 145.918 28.2036C145.963 28.7076 145.975 29.2339 145.953 29.7843C145.93 30.3347 145.884 30.8886 145.814 31.451C145.745 32.0134 145.681 32.569 145.624 33.1177C145.567 33.6681 145.525 34.1961 145.503 34.6984C145.434 35.7304 145.444 36.74 145.537 37.7238C145.629 38.7094 145.733 39.7173 145.849 40.7493C145.918 41.4597 146.015 42.1511 146.143 42.8288C146.27 43.5065 146.621 44.093 147.197 44.597C147.244 44.6434 147.372 44.7483 147.578 44.9083C147.786 45.0682 147.912 45.1714 147.959 45.2162C147.981 45.2162 148.023 45.2299 148.08 45.2523C148.137 45.2746 148.177 45.2867 148.201 45.2867H148.27H148.305C148.35 45.2643 148.443 45.2162 148.582 45.1491C148.72 45.082 148.812 44.9874 148.859 44.8739C149.319 43.9365 149.648 43.006 149.844 42.0892C150.041 41.1759 150.167 40.2608 150.225 39.3578C150.282 38.4548 150.299 37.5312 150.276 36.5921C150.254 35.653 150.254 34.6777 150.276 33.6698V33.4479C150.276 33.3206 150.282 33.183 150.294 33.0334C150.306 32.8838 150.316 32.741 150.328 32.6034C150.339 32.4658 150.346 32.3643 150.346 32.2955C150.346 32.2732 150.356 32.1803 150.38 32.0186C150.403 31.8604 150.425 31.6815 150.45 31.4871C150.472 31.2928 150.495 31.1208 150.519 30.9711C150.541 30.8232 150.552 30.7252 150.552 30.6787C150.576 30.0836 150.559 29.5573 150.501 29.098C150.443 28.6405 150.45 28.2501 150.519 27.9302C150.588 27.6085 150.771 27.3522 151.071 27.1562C151.37 26.9618 151.902 26.8294 152.663 26.7606C152.802 26.7382 152.987 26.7141 153.215 26.6918C153.446 26.6694 153.671 26.6625 153.89 26.6746C154.11 26.6866 154.316 26.7313 154.514 26.8122C154.709 26.893 154.855 27.0358 154.946 27.2422C154.946 27.3557 154.969 27.5569 155.016 27.8442C155.061 28.1314 155.095 28.3189 155.119 28.4118C155.235 29.5091 155.251 30.5876 155.17 31.6419C155.09 32.6963 155.026 33.773 154.981 34.8738C154.957 35.1937 154.969 35.548 155.016 35.9385C155.061 36.3272 155.05 36.7056 154.981 37.072C155.142 38.1263 155.251 39.1755 155.308 40.2196C155.367 41.2602 155.407 42.3094 155.431 43.3637C155.452 44.4164 155.476 45.4742 155.5 46.5251C155.523 47.5794 155.569 48.6355 155.639 49.6899C155.592 49.8705 155.533 50.0562 155.464 50.2368C155.395 50.4226 155.256 50.5258 155.05 50.5464C154.565 50.5929 154.133 50.6032 153.752 50.5826C153.371 50.5568 152.918 50.5894 152.386 50.6806Z" fill="white"/>
<path d="M158.682 44.8722C158.843 44.4388 159.137 44.1567 159.564 44.0294C159.99 43.9056 160.497 43.8712 161.086 43.9279C161.674 43.983 162.33 44.0931 163.057 44.253C163.782 44.413 164.539 44.5626 165.323 44.7002C165.645 44.6779 165.929 44.5953 166.169 44.4577C166.413 44.3218 166.638 44.1447 166.846 43.9262C167.052 43.7078 167.248 43.4618 167.433 43.1866C167.616 42.9097 167.814 42.6362 168.021 42.361C168.044 42.3387 168.066 42.2871 168.091 42.2062C168.113 42.1254 168.125 42.0755 168.125 42.0514L167.987 40.0235C167.94 40.0012 167.796 39.8877 167.554 39.6795C167.312 39.4731 167.121 39.3149 166.983 39.1997C166.938 39.1532 166.851 39.0913 166.723 39.0105C166.597 38.9296 166.51 38.8883 166.464 38.8883C165.657 38.5443 164.902 38.2709 164.2 38.0645C163.495 37.8581 162.837 37.6121 162.228 37.3249C161.615 37.0393 161.062 36.6506 160.567 36.157C160.072 35.6633 159.639 34.9581 159.27 34.0431C159.27 33.9743 159.263 33.8694 159.253 33.7318C159.241 33.5959 159.223 33.4531 159.201 33.3035C159.177 33.1539 159.159 33.0163 159.149 32.8907C159.137 32.7651 159.132 32.6791 159.132 32.6344C159.107 32.3128 159.078 31.9688 159.045 31.6024C159.009 31.2361 159.05 30.8921 159.165 30.5721C159.189 30.4793 159.234 30.3124 159.303 30.0716C159.372 29.8325 159.454 29.5849 159.547 29.3337C159.639 29.0809 159.725 28.8418 159.805 28.6113C159.886 28.3826 159.938 28.2226 159.961 28.1315V27.9595C160.099 27.7531 160.227 27.5914 160.342 27.4779C160.456 27.3626 160.567 27.2422 160.67 27.1167C160.774 26.9894 160.861 26.8931 160.93 26.8243C161.69 25.978 162.446 25.3365 163.196 24.8996C163.945 24.4644 164.861 24.1909 165.944 24.074C166.245 24.0516 166.683 24.086 167.26 24.1772C167.836 24.2683 168.412 24.4077 168.989 24.59C169.565 24.7723 170.072 25.0079 170.512 25.2952C170.95 25.5807 171.18 25.8972 171.203 26.2395C171.225 26.4459 171.215 26.7211 171.17 27.0633C171.123 27.4091 171.049 27.7531 170.943 28.0953C170.839 28.4393 170.701 28.7438 170.529 29.0069C170.356 29.2718 170.154 29.4146 169.923 29.4352C169.321 29.4868 168.722 29.4799 168.125 29.4232C167.525 29.3647 166.926 29.3595 166.327 29.406C166.211 29.406 165.974 29.4301 165.617 29.4748C165.259 29.5195 165.023 29.5436 164.909 29.5436C164.84 29.5883 164.729 29.6416 164.579 29.6984C164.428 29.7551 164.279 29.8308 164.129 29.922C163.98 30.0131 163.852 30.1043 163.75 30.1972C163.646 30.2883 163.594 30.3795 163.594 30.4707L163.767 32.5329C163.767 32.6499 163.84 32.7565 163.99 32.8615C164.141 32.9629 164.302 33.0661 164.477 33.1693C164.648 33.2725 164.828 33.3654 165.011 33.4445C165.197 33.5237 165.323 33.577 165.392 33.5993C166.315 34.0345 167.156 34.4473 167.917 34.836C168.677 35.2265 169.335 35.684 169.889 36.212C170.443 36.7401 170.886 37.3627 171.22 38.0851C171.556 38.8075 171.769 39.7053 171.86 40.7838C171.952 41.7212 171.89 42.6517 171.67 43.565C171.45 44.4818 171.094 45.3022 170.599 46.0246C170.102 46.747 169.473 47.3473 168.714 47.8306C167.95 48.3088 167.087 48.5977 166.119 48.6889C165.311 48.7801 164.482 48.7921 163.627 48.7233C162.773 48.6562 161.996 48.4842 161.293 48.2073C160.591 47.9321 159.997 47.5262 159.511 46.9878C159.028 46.4478 158.751 45.7425 158.682 44.8722Z" fill="white"/>
<path d="M178.364 50.2713C178.386 50.1767 178.381 49.9892 178.347 49.7037C178.312 49.4182 178.295 49.229 178.295 49.1361C178.25 48.4274 178.255 47.7446 178.312 47.091C178.369 46.4374 178.445 45.7442 178.537 45.0115C178.56 44.9685 178.56 44.9032 178.537 44.824C178.515 44.7432 178.502 44.6933 178.502 44.6692C178.502 44.0948 178.544 43.534 178.622 42.9854C178.703 42.435 178.757 41.8742 178.779 41.3015C178.826 40.223 178.814 39.1721 178.745 38.1384C178.676 37.1081 178.651 36.0641 178.676 35.0114C178.676 34.9186 178.681 34.781 178.691 34.5986L178.727 34.0482C178.74 33.8659 178.75 33.6991 178.76 33.5494C178.772 33.3998 178.779 33.3035 178.779 33.257C178.779 33.2123 178.79 33.1091 178.814 32.9492C178.835 32.7892 178.859 32.6206 178.883 32.4504C178.906 32.2784 178.928 32.1167 178.952 31.9688C178.975 31.8191 178.985 31.7228 178.985 31.6764V31.5732C178.985 31.4132 178.928 31.2928 178.814 31.212C178.698 31.1328 178.582 31.0812 178.468 31.0572C177.775 31.1036 177.113 31.1088 176.479 31.0761C175.844 31.04 175.181 31.0468 174.49 31.0933C174.305 31.0468 174.132 30.966 173.971 30.8508C173.971 30.7372 173.959 30.5257 173.936 30.2161C173.914 29.9065 173.89 29.7052 173.867 29.6141C173.845 29.4077 173.803 29.0878 173.746 28.6526C173.689 28.2174 173.653 27.7754 173.642 27.3282C173.632 26.881 173.672 26.4802 173.763 26.1259C173.857 25.7699 174.052 25.5704 174.352 25.5239H174.49L186.009 25.6271C186.17 25.6271 186.296 25.6787 186.392 25.7819C186.48 25.8834 186.554 26.0055 186.615 26.1431C186.672 26.2807 186.714 26.4235 186.734 26.5731C186.76 26.7228 186.771 26.8414 186.771 26.9343C186.771 26.955 186.774 27.0427 186.788 27.1906C186.8 27.3402 186.817 27.5122 186.838 27.7066C186.862 27.901 186.885 28.0953 186.909 28.2914C186.932 28.4858 186.944 28.6526 186.944 28.7902C186.944 28.859 186.949 28.9725 186.961 29.1325C186.975 29.2942 186.985 29.4713 186.996 29.6657C187.008 29.8618 187.02 30.0441 187.032 30.2161C187.044 30.3864 187.051 30.5085 187.051 30.5773C187.051 30.6908 187.015 30.806 186.945 30.9196C186.876 31.0348 186.783 31.1036 186.669 31.126C186.092 31.2188 185.516 31.2636 184.939 31.2636C184.363 31.2636 183.787 31.2997 183.21 31.3668C183.096 31.3891 182.99 31.396 182.899 31.3857C182.802 31.3719 182.698 31.4218 182.584 31.5353C182.445 31.6953 182.36 31.8896 182.324 32.1201C182.291 32.3489 182.272 32.5845 182.272 32.8236C182.272 33.0644 182.284 33.3069 182.307 33.546C182.329 33.7868 182.341 33.9984 182.341 34.1824C182.225 36.7504 182.168 39.3218 182.168 41.8983C182.168 44.4749 182.329 47.0239 182.655 49.5472C182.655 49.7295 182.624 49.9582 182.566 50.2317C182.509 50.5086 182.354 50.6566 182.099 50.6789H182.066C182.018 50.6789 181.928 50.6738 181.789 50.6617C181.649 50.6514 181.495 50.6342 181.322 50.6118C181.147 50.5895 180.993 50.5774 180.853 50.5774H180.612C180.474 50.5534 180.294 50.5534 180.076 50.5774C179.856 50.5981 179.638 50.6118 179.418 50.6118C179.198 50.6118 178.992 50.5895 178.797 50.5413C178.601 50.5 178.456 50.4089 178.364 50.2713Z" fill="white"/>
<path d="M199.357 50.1321C199.243 50.0874 199.127 50.0135 199.012 49.9085C198.898 49.8036 198.831 49.697 198.805 49.5835L197.976 42.2975C197.976 42.2064 197.936 42.1255 197.854 42.055C197.773 41.9879 197.699 41.9621 197.628 41.9879L193.619 42.3663L194.275 48.3812C194.322 48.7493 194.426 49.0864 194.59 49.396C194.749 49.7039 194.851 50.0307 194.9 50.3729C194.922 50.5105 194.91 50.5983 194.864 50.6309C194.817 50.6653 194.713 50.6946 194.552 50.7187C194.509 50.7187 194.443 50.7221 194.363 50.7359C194.282 50.7462 194.232 50.7531 194.206 50.7531H193.775C193.579 50.7531 193.377 50.7582 193.169 50.7685C192.961 50.7806 192.771 50.7943 192.598 50.8047C192.425 50.8184 192.316 50.8236 192.271 50.8236C191.855 50.8236 191.52 50.7771 191.267 50.686C191.014 50.5931 190.817 50.4555 190.678 50.2732C190.54 50.0909 190.441 49.869 190.384 49.6024C190.327 49.3392 190.273 49.0365 190.228 48.6908C190.114 47.4335 190.021 46.1779 189.951 44.9291C189.882 43.677 189.827 42.4128 189.778 41.1297C189.778 41.1056 189.771 40.9817 189.761 40.7495C189.751 40.5208 189.732 40.2593 189.709 39.9583C189.683 39.6608 189.664 39.3701 189.64 39.0846C189.616 38.7973 189.595 38.5737 189.571 38.4138C189.526 37.5417 189.565 36.7402 189.69 36.0058C189.818 35.2748 189.964 34.4715 190.123 33.6012C189.984 33.2108 190.014 32.798 190.211 32.3628C190.407 31.9277 190.562 31.5389 190.678 31.1949C190.723 31.0109 190.753 30.8406 190.767 30.6789C190.777 30.519 190.817 30.3367 190.886 30.1285C190.886 30.1062 190.898 30.0649 190.919 30.0081C190.945 29.9514 190.967 29.9221 190.99 29.9221C191.243 29.4646 191.462 29.0002 191.646 28.5307C191.831 28.0611 192.086 27.5967 192.407 27.1375C192.615 26.864 192.87 26.5836 193.169 26.2964C193.469 26.0109 193.79 25.7408 194.138 25.488C194.483 25.2369 194.846 25.0305 195.229 24.8705C195.608 24.7088 195.983 24.6073 196.35 24.5609C197.389 24.468 198.195 24.6108 198.774 24.9892C199.348 25.3676 199.803 25.8543 200.139 26.4512C200.471 27.0463 200.731 27.7051 200.916 28.4275C201.1 29.1499 201.306 29.8207 201.538 30.4381C201.538 30.5069 201.555 30.6325 201.588 30.8165C201.624 30.9989 201.652 31.1949 201.676 31.4013C201.699 31.6077 201.726 31.7952 201.763 31.9689C201.799 32.1392 201.815 32.2613 201.815 32.3284C201.976 33.842 202.074 35.3642 202.109 36.9002C202.143 38.4361 202.195 39.9583 202.265 41.4719C202.265 41.8624 202.233 42.2649 202.176 42.6742C202.119 43.0887 202.102 43.4912 202.126 43.8782C202.126 43.9229 202.137 44.0433 202.161 44.2394C202.185 44.4338 202.206 44.6453 202.232 44.8758C202.254 45.1046 202.282 45.3179 202.317 45.5088C202.353 45.7031 202.37 45.8253 202.37 45.8717V47.0069C202.37 47.0499 202.374 47.1737 202.384 47.3664C202.398 47.5607 202.41 47.7723 202.42 48.0011C202.431 48.2333 202.445 48.4448 202.455 48.6392C202.465 48.8318 202.472 48.9643 202.472 49.0331C202.472 49.1689 202.452 49.3771 202.403 49.6488C202.358 49.924 202.208 50.0857 201.951 50.1304H201.884C201.863 50.1304 201.785 50.1201 201.657 50.0943C201.532 50.0737 201.458 50.0599 201.434 50.0599C201.366 50.0599 201.228 50.0668 201.018 50.0771C200.812 50.0909 200.6 50.0943 200.38 50.0943C200.16 50.0943 199.954 50.1029 199.758 50.1149C199.561 50.127 199.43 50.1321 199.357 50.1321ZM193.687 37.7585C193.709 38.0319 193.87 38.228 194.168 38.3433C194.469 38.4568 194.813 38.5307 195.208 38.5669C195.599 38.5995 195.992 38.6116 196.387 38.5995C196.778 38.5875 197.076 38.572 197.285 38.5479C197.33 38.5479 197.423 38.5428 197.56 38.5307C197.699 38.5187 197.792 38.5135 197.837 38.5135C197.882 38.4447 197.918 38.3828 197.943 38.3243C197.967 38.2693 197.986 38.2057 198.012 38.1369C198.012 37.9993 197.996 37.7757 197.976 37.4661C197.951 37.1565 197.936 36.8193 197.922 36.4513C197.912 36.0849 197.901 35.7478 197.889 35.4365C197.877 35.1286 197.872 34.905 197.872 34.7674C197.894 34.7209 197.908 34.6195 197.908 34.4578V34.1155L197.56 30.7804C197.539 30.6205 197.479 30.4364 197.387 30.23C197.295 30.0236 197.181 29.8361 197.043 29.6624C196.904 29.4904 196.738 29.3528 196.539 29.2513C196.345 29.1481 196.143 29.1086 195.935 29.1292C195.748 29.1533 195.577 29.2101 195.416 29.3029C194.656 30.0821 194.182 30.8957 194 31.7436C193.811 32.5899 193.709 33.5187 193.687 34.5266C193.687 35.077 193.673 35.6153 193.65 36.1434C193.628 36.6697 193.642 37.2081 193.687 37.7585Z" fill="white"/>
<path d="M220.756 41.3653C220.801 41.2311 220.773 41.0694 220.668 40.8871C220.564 40.7048 220.422 40.6119 220.237 40.6119H220.131C220.131 40.7942 220.128 41.1107 220.114 41.5562C220.102 42.0051 220.089 42.4781 220.079 42.9821C220.069 43.4877 220.055 43.9693 220.043 44.4269C220.031 44.8878 220.025 45.1957 220.025 45.3539V46.0763C220.048 46.5373 220.095 46.9879 220.164 47.4334C220.233 47.8806 220.28 48.3347 220.302 48.7922C220.302 49.0003 220.273 49.1672 220.212 49.2893C220.157 49.4183 219.999 49.4802 219.747 49.4802C219.266 49.5249 218.802 49.5353 218.364 49.5129C217.924 49.4923 217.453 49.5129 216.946 49.5817C216.853 49.537 216.771 49.4458 216.702 49.3082C216.633 49.1706 216.588 49.0777 216.564 49.033C216.564 48.99 216.546 48.8559 216.514 48.6391C216.477 48.4207 216.46 48.2779 216.46 48.2091C216.417 47.4971 216.41 46.7867 216.446 46.0763C216.479 45.3677 216.52 44.6556 216.564 43.947C216.564 42.7774 216.546 41.6319 216.514 40.5104C216.477 39.389 216.552 38.2417 216.74 37.0704L216.254 27.4126C216.254 27.2974 216.261 27.1477 216.273 26.9654C216.283 26.7831 216.318 26.6042 216.377 26.4322C216.434 26.2619 216.515 26.1123 216.617 25.9867C216.725 25.8595 216.856 25.7958 217.017 25.7958H217.154C217.708 25.844 218.163 25.8887 218.521 25.9334C218.878 25.9816 219.129 26.243 219.267 26.7246C219.449 27.2286 219.65 27.7325 219.871 28.2365C220.089 28.7405 220.304 29.2221 220.508 29.6813C220.534 29.7037 220.545 29.7432 220.545 29.8V29.9221C220.659 30.5396 220.846 31.176 221.097 31.8296C221.351 32.4832 221.592 33.0852 221.824 33.6339C221.779 33.8643 221.824 34.1275 221.962 34.4251C222.099 34.7226 222.262 35.0219 222.447 35.3177C222.629 35.6153 222.798 35.9025 222.947 36.176C223.096 36.4529 223.148 36.6817 223.103 36.8657C223.127 36.9345 223.184 37.0773 223.278 37.2957C223.371 37.5125 223.456 37.7481 223.536 37.9992C223.615 38.2503 223.697 38.486 223.778 38.7044C223.859 38.9211 223.922 39.0759 223.968 39.1688C223.991 39.2376 224.018 39.3339 224.055 39.4612C224.091 39.5851 224.129 39.7227 224.178 39.8706C224.221 40.0219 224.262 40.1647 224.295 40.3006C224.33 40.4382 224.347 40.5328 224.347 40.5758C224.463 40.851 224.541 41.1365 224.59 41.4358C224.635 41.7351 224.797 41.9741 225.074 42.1582C225.187 41.9294 225.249 41.6783 225.249 41.4031C225.571 38.8592 225.715 36.3618 225.682 33.9091C225.645 31.4563 225.604 28.9469 225.557 26.3806C225.583 26.3359 225.64 26.243 225.732 26.1054C225.825 25.9695 225.896 25.9007 225.94 25.9007L228.709 25.6943C228.915 25.6943 229.021 25.7511 229.021 25.8646C229.021 25.9816 229.088 26.0607 229.227 26.1054C229.156 27.1374 229.156 28.1505 229.227 29.1481C229.298 30.1457 229.284 31.1588 229.192 32.1908C229.029 33.6803 228.886 35.1354 228.759 36.5561C228.635 37.9769 228.626 39.444 228.742 40.9559L228.465 48.5514C228.441 48.7561 228.327 49.0382 228.119 49.3942C227.915 49.7503 227.681 49.9721 227.428 50.065C227.383 50.065 227.26 50.0702 227.063 50.0805C226.869 50.0943 226.748 50.0977 226.701 50.0977C226.127 50.1459 225.573 50.1562 225.041 50.1338C224.51 50.1097 223.96 50.053 223.381 49.9618C223.08 49.936 222.85 49.7245 222.691 49.3237C222.526 48.9247 222.407 48.4775 222.327 47.9855C222.246 47.4936 222.189 47.0223 222.154 46.5769C222.118 46.1297 222.09 45.8373 222.066 45.6997C222.044 45.6085 221.999 45.4141 221.928 45.1149C221.86 44.8156 221.8 44.6109 221.755 44.4957C221.711 44.3839 221.64 44.1757 221.547 43.8765C221.455 43.5806 221.36 43.2676 221.253 42.9322C221.149 42.6019 221.052 42.2837 220.958 41.9862C220.868 41.6903 220.801 41.4822 220.756 41.3653Z" fill="white"/>
<path d="M243.237 50.1321C243.123 50.0874 243.007 50.0135 242.893 49.9085C242.779 49.8036 242.711 49.697 242.685 49.5835L241.856 42.2975C241.856 42.2064 241.816 42.1255 241.735 42.055C241.654 41.9879 241.579 41.9621 241.508 41.9879L237.5 42.3663L238.155 48.3812C238.202 48.7493 238.306 49.0864 238.471 49.396C238.63 49.7039 238.732 50.0307 238.78 50.3729C238.803 50.5105 238.791 50.5983 238.744 50.6309C238.697 50.6653 238.593 50.6946 238.432 50.7187C238.389 50.7187 238.323 50.7221 238.244 50.7359C238.162 50.7462 238.112 50.7531 238.086 50.7531H237.652C237.456 50.7531 237.254 50.7582 237.046 50.7685C236.838 50.7806 236.648 50.7943 236.475 50.8047C236.302 50.8184 236.193 50.8236 236.148 50.8236C235.732 50.8236 235.397 50.7771 235.144 50.686C234.891 50.5931 234.694 50.4555 234.555 50.2732C234.417 50.0909 234.318 49.869 234.261 49.6024C234.204 49.3392 234.15 49.0365 234.105 48.6908C233.991 47.4335 233.898 46.1779 233.828 44.9291C233.759 43.677 233.704 42.4128 233.655 41.1297C233.655 41.1056 233.648 40.9817 233.638 40.7495C233.628 40.5208 233.609 40.2593 233.586 39.9583C233.56 39.6608 233.541 39.3701 233.517 39.0846C233.493 38.7973 233.472 38.5737 233.448 38.4138C233.403 37.5417 233.442 36.7402 233.567 36.0058C233.695 35.2748 233.84 34.4715 234 33.6012C233.861 33.2108 233.891 32.798 234.088 32.3628C234.284 31.9277 234.439 31.5389 234.555 31.1949C234.6 31.0109 234.63 30.8406 234.644 30.6789C234.654 30.519 234.694 30.3367 234.763 30.1285C234.763 30.1062 234.775 30.0649 234.796 30.0081C234.822 29.9514 234.846 29.9221 234.867 29.9221C235.12 29.4646 235.339 29.0002 235.523 28.5307C235.708 28.0611 235.963 27.5967 236.284 27.1375C236.492 26.864 236.747 26.5836 237.046 26.2964C237.345 26.0109 237.667 25.7408 238.015 25.488C238.36 25.2369 238.723 25.0305 239.106 24.8705C239.485 24.7088 239.86 24.6073 240.227 24.5609C241.266 24.468 242.072 24.6108 242.65 24.9892C243.225 25.3676 243.68 25.8543 244.016 26.4512C244.348 27.0463 244.608 27.7051 244.793 28.4275C244.977 29.1499 245.183 29.8207 245.415 30.4381C245.415 30.5069 245.432 30.6325 245.465 30.8165C245.501 30.9989 245.529 31.1949 245.553 31.4013C245.576 31.6077 245.603 31.7952 245.64 31.9689C245.676 32.1392 245.692 32.2613 245.692 32.3284C245.853 33.842 245.951 35.3642 245.986 36.9002C246.02 38.4361 246.072 39.9583 246.142 41.4719C246.142 41.8624 246.11 42.2649 246.053 42.6742C245.996 43.0887 245.979 43.4912 246.003 43.8782C246.003 43.9229 246.014 44.0433 246.038 44.2394C246.062 44.4338 246.083 44.6453 246.109 44.8758C246.131 45.1046 246.159 45.3179 246.194 45.5088C246.23 45.7031 246.247 45.8253 246.247 45.8717V47.0069C246.247 47.0499 246.251 47.1737 246.261 47.3664C246.275 47.5607 246.287 47.7723 246.297 48.0011C246.308 48.2333 246.322 48.4448 246.332 48.6392C246.342 48.8318 246.349 48.9643 246.349 49.0331C246.349 49.1689 246.329 49.3771 246.28 49.6488C246.235 49.924 246.084 50.0857 245.828 50.1304H245.761C245.74 50.1304 245.662 50.1201 245.534 50.0943C245.409 50.0737 245.335 50.0599 245.311 50.0599C245.243 50.0599 245.105 50.0668 244.895 50.0771C244.689 50.0909 244.477 50.0943 244.257 50.0943C244.039 50.0943 243.831 50.1029 243.635 50.1149C243.44 50.127 243.308 50.1321 243.237 50.1321ZM237.567 37.7585C237.589 38.0319 237.75 38.228 238.048 38.3433C238.349 38.4568 238.694 38.5307 239.088 38.5669C239.48 38.5995 239.872 38.6116 240.267 38.5995C240.658 38.5875 240.956 38.572 241.165 38.5479C241.21 38.5479 241.304 38.5428 241.441 38.5307C241.579 38.5187 241.673 38.5135 241.718 38.5135C241.763 38.4447 241.799 38.3828 241.823 38.3243C241.847 38.2693 241.866 38.2057 241.892 38.1369C241.892 37.9993 241.879 37.7757 241.856 37.4661C241.832 37.1565 241.816 36.8193 241.802 36.4513C241.792 36.0849 241.782 35.7478 241.771 35.4365C241.757 35.1286 241.752 34.905 241.752 34.7674C241.775 34.7209 241.789 34.6195 241.789 34.4578V34.1155L241.441 30.7804C241.42 30.6205 241.359 30.4364 241.268 30.23C241.176 30.0236 241.062 29.8361 240.923 29.6624C240.785 29.4904 240.618 29.3528 240.419 29.2513C240.226 29.1481 240.023 29.1086 239.815 29.1292C239.628 29.1533 239.457 29.2101 239.296 29.3029C238.536 30.0821 238.062 30.8957 237.88 31.7436C237.692 32.5899 237.589 33.5187 237.567 34.5266C237.567 35.077 237.553 35.6153 237.531 36.1434C237.508 36.6697 237.52 37.2081 237.567 37.7585Z" fill="white"/>
<path d="M251.023 50.6497C250.976 50.6239 250.942 50.5276 250.918 50.3556C250.893 50.1836 250.881 50.0769 250.881 50.0288C250.743 49.2049 250.722 48.3862 250.814 47.5726C250.907 46.7573 250.942 45.9507 250.919 45.1491C250.873 44.1171 250.764 43.0937 250.592 42.0721C250.417 41.0538 250.284 40.027 250.194 38.995C250.17 38.1935 250.17 37.4212 250.194 36.6764C250.218 35.9317 250.229 35.1594 250.229 34.3561C250.253 33.6217 250.229 32.8838 250.161 32.1391C250.09 31.3943 250.033 30.6564 249.986 29.922V29.7156V29.3544V28.9932V28.7524C249.962 28.6389 249.941 28.4445 249.917 28.1676C249.893 27.8941 249.874 27.6017 249.848 27.2921C249.824 26.9825 249.803 26.6901 249.779 26.4166C249.756 26.1414 249.744 25.9453 249.744 25.8318C249.791 25.6495 249.836 25.5102 249.883 25.419C249.929 25.3279 250.021 25.247 250.16 25.1782C250.205 25.1541 250.338 25.1266 250.556 25.0922C250.774 25.0578 250.919 25.0406 250.989 25.0406C252.254 24.8807 253.398 24.9374 254.412 25.2126C255.426 25.4878 256.309 25.935 257.059 26.5525C257.806 27.1717 258.419 27.9354 258.892 28.8384C259.364 29.7431 259.693 30.7355 259.878 31.8123C259.992 32.6826 260.051 33.5323 260.051 34.3561C260.051 35.1817 260.017 36.0417 259.947 36.9344C260.041 37.3937 260.051 37.8391 259.98 38.2743C259.913 38.7095 259.899 39.1567 259.947 39.6159C259.97 40.3486 260.017 41.2035 260.086 42.1753C260.155 43.1471 260.136 44.124 260.034 45.0975C259.932 46.0711 259.686 46.9758 259.307 47.8117C258.926 48.6493 258.31 49.2961 257.455 49.7536C256.626 50.1647 255.745 50.4416 254.812 50.5792C253.877 50.7168 252.95 50.8406 252.027 50.9559C251.98 50.9559 251.871 50.9696 251.7 50.9903C251.527 51.0161 251.418 51.0264 251.373 51.0264C251.326 50.9817 251.264 50.9301 251.181 50.8733C251.098 50.8131 251.044 50.7374 251.023 50.6497ZM254.308 46.1123C254.421 46.2929 254.573 46.3738 254.76 46.3531C255.013 46.3273 255.214 46.1897 255.362 45.9386C255.515 45.6875 255.629 45.4071 255.71 45.0993C255.792 44.7879 255.849 44.4749 255.883 44.1515C255.92 43.8316 255.947 43.5788 255.97 43.3965C255.996 43.2382 256.015 43.0129 256.039 42.7257C256.063 42.4384 256.082 42.1667 256.108 41.9018C256.134 41.6386 256.15 41.4099 256.16 41.2138C256.172 41.0229 256.178 40.9128 256.178 40.8887L256.143 40.6135C256.143 39.3545 256.153 38.0541 256.178 36.7143C256.202 35.3744 256.108 34.05 255.901 32.7445C255.787 32.0789 255.653 31.5525 255.503 31.1638C255.354 30.7734 255.027 30.3382 254.52 29.8566C254.45 29.7414 254.386 29.6502 254.331 29.5814C254.274 29.5126 254.161 29.4903 254 29.5126C253.886 29.535 253.845 29.633 253.881 29.805C253.917 29.977 253.933 30.0751 253.933 30.0974C254 31.4958 254.047 32.8924 254.071 34.2908C254.094 35.6874 254.128 37.0875 254.175 38.4841C254.201 39.6297 254.163 40.7924 254.071 41.974C253.98 43.1522 254.025 44.3149 254.21 45.4605C254.21 45.5052 254.227 45.6153 254.26 45.7873C254.291 45.9541 254.308 46.0659 254.308 46.1123Z" fill="white"/>
<path d="M274.091 50.1321C273.977 50.0874 273.861 50.0135 273.747 49.9085C273.633 49.8036 273.565 49.697 273.539 49.5835L272.71 42.2975C272.71 42.2064 272.67 42.1255 272.589 42.055C272.507 41.9879 272.433 41.9621 272.362 41.9879L268.353 42.3663L269.009 48.3812C269.056 48.7493 269.162 49.0864 269.324 49.396C269.484 49.7039 269.586 50.0307 269.634 50.3729C269.657 50.5105 269.645 50.5983 269.598 50.6309C269.551 50.6653 269.447 50.6946 269.286 50.7187C269.243 50.7187 269.177 50.7221 269.098 50.7359C269.016 50.7462 268.966 50.7531 268.94 50.7531H268.509C268.314 50.7531 268.111 50.7582 267.903 50.7685C267.696 50.7806 267.505 50.7943 267.332 50.8047C267.159 50.8184 267.05 50.8236 267.005 50.8236C266.59 50.8236 266.254 50.7771 266.001 50.686C265.749 50.5931 265.551 50.4555 265.413 50.2732C265.274 50.0909 265.176 49.869 265.119 49.6024C265.061 49.3392 265.008 49.0365 264.963 48.6908C264.848 47.4335 264.755 46.1779 264.686 44.9291C264.618 43.677 264.561 42.4128 264.513 41.1297C264.513 41.1056 264.508 40.9817 264.495 40.7495C264.485 40.5208 264.466 40.2593 264.443 39.9583C264.418 39.6608 264.398 39.3701 264.374 39.0846C264.35 38.7973 264.331 38.5737 264.305 38.4138C264.26 37.5417 264.3 36.7402 264.424 36.0058C264.553 35.2748 264.698 34.4715 264.857 33.6012C264.719 33.2108 264.748 32.798 264.945 32.3628C265.141 31.9277 265.297 31.5389 265.413 31.1949C265.458 31.0109 265.487 30.8406 265.501 30.6789C265.511 30.519 265.551 30.3367 265.62 30.1285C265.62 30.1062 265.633 30.0649 265.653 30.0081C265.679 29.9514 265.704 29.9221 265.724 29.9221C265.977 29.4646 266.197 29.0002 266.38 28.5307C266.565 28.0611 266.82 27.5967 267.144 27.1375C267.35 26.864 267.604 26.5836 267.903 26.2964C268.203 26.0109 268.525 25.7408 268.874 25.488C269.217 25.2369 269.581 25.0305 269.963 24.8705C270.342 24.7088 270.718 24.6073 271.085 24.5609C272.123 24.468 272.93 24.6108 273.508 24.9892C274.083 25.3676 274.538 25.8543 274.874 26.4512C275.206 27.0463 275.465 27.7051 275.651 28.4275C275.834 29.1499 276.04 29.8207 276.272 30.4381C276.272 30.5069 276.289 30.6325 276.322 30.8165C276.359 30.9989 276.386 31.1949 276.411 31.4013C276.433 31.6077 276.461 31.7952 276.497 31.9689C276.533 32.1392 276.549 32.2613 276.549 32.3284C276.71 33.842 276.809 35.3642 276.843 36.9002C276.878 38.4361 276.93 39.9583 276.999 41.4719C276.999 41.8624 276.968 42.2649 276.911 42.6742C276.854 43.0887 276.836 43.4912 276.861 43.8782C276.861 43.9229 276.871 44.0433 276.895 44.2394C276.919 44.4338 276.94 44.6453 276.966 44.8758C276.989 45.1046 277.016 45.3179 277.051 45.5088C277.087 45.7031 277.105 45.8253 277.105 45.8717V47.0069C277.105 47.0499 277.108 47.1737 277.118 47.3664C277.132 47.5607 277.144 47.7723 277.155 48.0011C277.165 48.2333 277.179 48.4448 277.189 48.6392C277.202 48.8318 277.207 48.9643 277.207 49.0331C277.207 49.1689 277.186 49.3771 277.137 49.6488C277.092 49.924 276.942 50.0857 276.686 50.1304H276.618C276.597 50.1304 276.52 50.1201 276.391 50.0943C276.267 50.0737 276.192 50.0599 276.168 50.0599C276.101 50.0599 275.962 50.0668 275.753 50.0771C275.547 50.0909 275.334 50.0943 275.114 50.0943C274.896 50.0943 274.688 50.1029 274.493 50.1149C274.294 50.127 274.162 50.1321 274.091 50.1321ZM268.421 37.7585C268.443 38.0319 268.604 38.228 268.902 38.3433C269.203 38.4568 269.548 38.5307 269.942 38.5669C270.334 38.5995 270.726 38.6116 271.121 38.5995C271.512 38.5875 271.81 38.572 272.019 38.5479C272.064 38.5479 272.158 38.5428 272.296 38.5307C272.433 38.5187 272.527 38.5135 272.572 38.5135C272.617 38.4447 272.653 38.3828 272.677 38.3243C272.701 38.2693 272.72 38.2057 272.746 38.1369C272.746 37.9993 272.732 37.7757 272.71 37.4661C272.686 37.1565 272.67 36.8193 272.658 36.4513C272.646 36.0849 272.636 35.7478 272.625 35.4365C272.611 35.1286 272.606 34.905 272.606 34.7674C272.629 34.7209 272.642 34.6195 272.642 34.4578V34.1155L272.296 30.7804C272.274 30.6205 272.213 30.4364 272.121 30.23C272.03 30.0236 271.916 29.8361 271.777 29.6624C271.639 29.4904 271.472 29.3528 271.273 29.2513C271.08 29.1481 270.877 29.1086 270.669 29.1292C270.482 29.1533 270.311 29.2101 270.15 29.3029C269.39 30.0821 268.916 30.8957 268.734 31.7436C268.547 32.5899 268.443 33.5187 268.421 34.5266C268.421 35.077 268.407 35.6153 268.385 36.1434C268.362 36.6697 268.374 37.2081 268.421 37.7585Z" fill="white"/>
<path d="M290.143 51.1984C289.703 50.5792 289.359 50.0357 289.105 49.5644C288.852 49.0966 288.561 48.5857 288.239 48.037C288.192 47.9682 288.115 47.8685 287.997 47.7446C287.883 47.6191 287.772 47.4849 287.67 47.3473C287.564 47.2097 287.479 47.0807 287.408 46.9534C287.341 46.8296 287.327 46.7058 287.375 46.594C287.1 46.2018 286.827 45.801 286.562 45.3917C286.297 44.9789 286.034 44.5781 285.783 44.1894H285.716C285.691 44.1894 285.667 44.1774 285.646 44.1533C285.44 44.1103 285.357 44.1997 285.402 44.4285C285.426 44.6572 285.449 45.07 285.471 45.6652C285.496 46.2637 285.523 46.9001 285.558 47.5726C285.593 48.252 285.627 48.8936 285.664 49.4973C285.698 50.1062 285.728 50.5259 285.748 50.7529L285.785 50.8561C285.74 50.9249 285.669 51.0109 285.579 51.1124C285.485 51.2156 285.428 51.2569 285.404 51.2328L281.877 51.4753C281.669 51.4977 281.496 51.4117 281.357 51.2156C281.219 51.023 281.137 50.8458 281.117 50.6824C281.117 50.6583 281.12 50.6428 281.131 50.6342C281.144 50.6222 281.15 50.593 281.15 50.5448V50.4433C281.15 50.421 281.162 50.3556 281.186 50.2524C281.207 50.1492 281.231 50.0408 281.257 49.9273C281.278 49.8138 281.3 49.7106 281.324 49.6194C281.345 49.5266 281.359 49.4698 281.359 49.4457C281.359 49.3786 281.342 49.2238 281.307 48.9813C281.272 48.7388 281.245 48.4894 281.221 48.2262C281.196 47.9614 281.176 47.7154 281.151 47.4849C281.129 47.2579 281.118 47.1082 281.118 47.0394V46.1966C281.118 45.7512 281.111 45.2747 281.099 44.769C281.087 44.2668 281.075 43.7921 281.063 43.3449C281.049 42.8977 281.046 42.6156 281.046 42.5021C281.046 42.3903 281.034 42.1822 281.009 41.8846C280.987 41.5853 280.964 41.2671 280.94 40.9197C280.916 40.5774 280.897 40.2558 280.873 39.9582C280.848 39.6606 280.836 39.456 280.836 39.339C280.862 39.2926 280.873 39.1911 280.873 39.0277V38.7198C280.94 36.7263 280.952 34.7552 280.907 32.8064C280.862 30.8594 280.803 28.9003 280.734 26.9292C280.734 26.8604 280.727 26.7348 280.715 26.5508C280.703 26.3668 280.686 26.1724 280.665 25.9677C280.641 25.7613 280.623 25.5601 280.613 25.364C280.601 25.1714 280.596 25.0389 280.596 24.9701C280.641 24.8325 280.705 24.7534 280.784 24.7293C280.864 24.7052 280.952 24.6932 281.044 24.6932C281.965 24.6261 282.863 24.5866 283.742 24.5745C284.618 24.5625 285.442 24.6554 286.216 24.8497C286.988 25.0458 287.685 25.3709 288.308 25.8301C288.931 26.2876 289.451 26.9412 289.864 27.7875C290.164 28.3843 290.465 28.9622 290.764 29.5247C291.066 30.0854 291.237 30.6994 291.285 31.3616C291.377 32.7376 291.14 34.0156 290.576 35.1955C290.008 36.3754 289.207 37.4487 288.17 38.4102C288.078 38.5254 288.033 38.651 288.033 38.7886C288.078 38.9933 288.165 39.1911 288.291 39.3734C288.417 39.5557 288.459 39.7501 288.41 39.9565L289.83 42.7756V42.8805L291.247 45.1474C291.247 45.1715 291.346 45.359 291.542 45.715C291.735 46.0711 291.96 46.4701 292.217 46.9156C292.469 47.3645 292.7 47.8117 292.907 48.2589C293.115 48.7044 293.231 49.0432 293.253 49.272C293.276 49.4784 293.201 49.7072 293.027 49.96C292.854 50.2111 292.641 50.4399 292.388 50.6446C292.135 50.851 291.867 51.0281 291.59 51.1795C291.317 51.3274 291.073 51.4014 290.867 51.4014C290.545 51.4495 290.302 51.379 290.143 51.1984ZM284.331 34.836C284.423 34.9513 284.5 35.0373 284.556 35.094C284.613 35.1525 284.712 35.1921 284.85 35.2144C285.312 35.168 285.683 35.0029 285.973 34.7174C286.261 34.4301 286.481 34.0964 286.631 33.7198C286.78 33.3414 286.88 32.9458 286.925 32.533C286.97 32.1219 286.995 31.7658 286.995 31.4683C286.97 31.2395 286.913 30.9574 286.818 30.6255C286.728 30.2935 286.602 29.9788 286.439 29.6812C286.278 29.3836 286.076 29.1377 285.833 28.9416C285.589 28.7472 285.298 28.6612 284.951 28.6836C284.72 28.7077 284.542 28.8332 284.414 29.062C284.286 29.2908 284.201 29.5556 284.156 29.8532C284.109 30.149 284.085 30.4414 284.085 30.7287V31.3307C284.085 31.3548 284.092 31.4322 284.104 31.5715C284.116 31.7091 284.127 31.869 284.14 32.0531C284.151 32.2354 284.161 32.4263 284.175 32.619C284.187 32.8133 284.205 32.9698 284.225 33.0834C284.225 33.1522 284.232 33.2674 284.244 33.4274C284.256 33.5873 284.267 33.7662 284.279 33.9588C284.291 34.1549 284.301 34.3321 284.315 34.4938C284.324 34.6537 284.331 34.7672 284.331 34.836Z" fill="white"/>
<path d="M295.953 48.3089C295.953 48.013 296.003 47.7017 296.109 47.3818C296.211 47.0602 296.367 46.7695 296.576 46.5046C296.782 46.2432 297.049 46.0247 297.371 45.8527C297.696 45.6807 298.077 45.5947 298.513 45.5947C298.722 45.5947 298.928 45.6085 299.136 45.6291C299.342 45.6532 299.536 45.71 299.723 45.8011C300.183 46.238 300.628 46.6869 301.056 47.141C301.481 47.602 301.694 48.1162 301.694 48.689C301.694 48.9401 301.62 49.2102 301.471 49.4957C301.322 49.7829 301.12 50.0478 300.865 50.2869C300.609 50.5277 300.322 50.722 300 50.8734C299.674 51.0213 299.342 51.0953 298.998 51.0953C298.536 51.0953 298.115 51.0144 297.736 50.8545C297.357 50.6945 297.031 50.483 296.768 50.2181C296.502 49.9566 296.299 49.6574 296.161 49.3237C296.022 48.9917 295.953 48.6546 295.953 48.3089Z" fill="white"/>
</g>
<defs>
<clipPath id="clip0">
<rect width="235" height="43" fill="white" transform="translate(65 14)"/>
</clipPath>
</defs>
</svg>
