<svg width="946" height="474" viewBox="0 0 946 474" fill="none" xmlns="http://www.w3.org/2000/svg">
<path d="M2 472H434" stroke="#231F20" stroke-width="3" stroke-linecap="round" stroke-linejoin="round" stroke-dasharray="6 6"/>
<path d="M512 472H944" stroke="#231F20" stroke-width="3" stroke-linecap="round" stroke-linejoin="round" stroke-dasharray="6 6"/>
<g clip-path="url(#clip0)">
<path d="M344 166L90 154.578L103.33 108L344 112.741V166Z" fill="#1F5C56"/>
<path d="M188.012 99.8694C188.012 102.843 185.673 105.255 182.799 105.255C179.92 105.255 177.584 102.843 177.584 99.8694C177.584 96.8925 179.92 94.4834 182.799 94.4834C185.673 94.4834 188.012 96.8925 188.012 99.8694Z" fill="#869A2A"/>
<path d="M171.979 101.727C172.341 105.089 169.57 107.273 166.614 107.273C163.65 107.273 161.494 105.028 161.246 101.727C161.016 98.6721 163.662 96.4573 166.614 96.1817C169.761 95.8861 171.643 98.6821 171.979 101.727Z" fill="#869A2A"/>
<path d="M178.998 127.238C178.998 127.238 183.097 134.955 185.187 136.454C186.876 137.665 187.614 137.035 187.614 137.035C187.614 137.035 192.49 135.398 191.787 136.504C191.088 137.613 187.867 138.284 187.867 138.284C187.867 138.284 193.655 138.559 192.874 139.273C192.093 139.984 187.288 140.065 187.288 140.065C187.288 140.065 193.392 141.702 191.967 142.025C189.973 142.474 184.826 141.674 184.095 140.534C183.369 139.383 177.078 133.114 175.521 131.324C173.972 129.534 178.998 127.238 178.998 127.238Z" fill="#869A2A"/>
<path d="M186.944 99.8694C186.944 102.23 185.085 104.153 182.799 104.153C180.511 104.153 178.65 102.23 178.65 99.8694C178.65 97.5018 180.511 95.5891 182.799 95.5891C185.085 95.5891 186.944 97.5018 186.944 99.8694Z" fill="white"/>
<mask id="mask0" mask-type="alpha" maskUnits="userSpaceOnUse" x="136" y="99" width="64" height="47">
<path d="M169.858 99.3663C180.367 97.8321 200.988 102.531 199.244 112.149C197.802 120.049 188.668 121.556 188.668 121.556C188.668 121.556 187.138 130.565 175.521 131.321C169.16 140.472 158.539 146.209 148.318 145.603C138.152 145.003 132.729 134.905 139.606 122.45C146.141 110.613 157.482 108.085 157.482 108.085C157.482 108.085 160.288 100.758 169.858 99.3663Z" fill="#869A2A"/>
</mask>
<g mask="url(#mask0)">
<path d="M169.858 99.3663C180.367 97.8321 200.988 102.531 199.244 112.149C197.802 120.049 188.668 121.556 188.668 121.556C188.668 121.556 187.138 130.565 175.521 131.321C169.16 140.472 158.539 146.209 148.318 145.603C138.152 145.003 132.729 134.905 139.606 122.45C146.141 110.613 157.482 108.085 157.482 108.085C157.482 108.085 160.288 100.758 169.858 99.3663Z" fill="#869A2A"/>
<path d="M167.866 122.41C169.108 123.267 168.451 124.651 167.189 123.833C165.901 123.013 166.602 121.545 167.866 122.41Z" fill="#6A2403"/>
<path d="M164.648 124.465C165.935 125.26 165.346 126.728 164.025 125.973C162.714 125.221 163.349 123.672 164.648 124.465Z" fill="#6A2403"/>
<path d="M161.208 121.018C162.473 121.829 161.789 123.366 160.493 122.597C159.179 121.82 159.915 120.201 161.208 121.018Z" fill="#6A2403"/>
<path d="M165.176 115.697C163.963 114.776 164.88 113.275 166.053 114.238C167.226 115.201 166.377 116.615 165.176 115.697Z" fill="#6A2403"/>
<path d="M154.557 119.413C153.24 118.638 154.041 116.878 155.345 117.698C156.608 118.496 155.857 120.175 154.557 119.413Z" fill="#6A2403"/>
<path d="M145.382 120.065L145.42 119.78C145.898 118.538 148.123 119.28 147.668 120.487C147.468 121.018 146.915 121.161 146.41 121.08C146.536 121.812 145.947 122.546 145.018 122.094C143.782 121.501 144.25 119.82 145.382 120.065Z" fill="#6A2403"/>
<path d="M154.605 114.145C153.344 113.308 154.278 111.545 155.519 112.423C156.753 113.301 155.871 114.987 154.605 114.145Z" fill="#6A2403"/>
<path d="M145.94 128.769C145.232 128.487 144.999 127.837 145.164 127.358C145.135 127.231 145.135 127.089 145.18 126.933C145.542 125.694 147.817 126.275 147.476 127.477L147.277 127.821C147.36 128.48 146.853 129.129 145.94 128.769Z" fill="#6A2403"/>
<path d="M152.359 102.486C150.929 102.645 150.276 100.391 151.798 100.238C153.278 100.118 153.786 102.357 152.359 102.486Z" fill="#6A2403"/>
<path d="M157.542 108.232C158.945 108.206 159.568 110.305 158.217 110.356C156.845 110.434 156.122 108.294 157.542 108.232Z" fill="#6A2403"/>
<path d="M167.195 120.909C168.609 120.743 169.335 122.91 167.923 123.072C166.501 123.263 165.756 121.103 167.195 120.909Z" fill="#6A2403"/>
<path d="M160.744 115.023C159.317 115.292 158.518 113.09 159.998 112.835C161.465 112.604 162.153 114.776 160.744 115.023Z" fill="#6A2403"/>
<path d="M151.964 113.044C150.591 113.278 149.679 111.199 151.106 110.972C152.493 110.774 153.352 112.846 151.964 113.044Z" fill="#6A2403"/>
<path d="M162.716 118.541C161.405 118.636 160.458 116.697 161.784 116.592C163.089 116.514 164.025 118.473 162.716 118.541Z" fill="#6A2403"/>
<path d="M150.298 121.47C148.955 121.797 147.86 119.861 149.218 119.524C150.555 119.215 151.643 121.168 150.298 121.47Z" fill="#6A2403"/>
<path d="M154.506 114.514C155.872 114.341 156.777 116.337 155.448 116.524C154.096 116.725 153.139 114.718 154.506 114.514Z" fill="#6A2403"/>
<path d="M151.381 117.812C149.984 118.121 149.046 116.036 150.479 115.734C151.882 115.448 152.784 117.533 151.381 117.812Z" fill="#6A2403"/>
<path d="M159.561 100.265C160.977 100.268 161.475 102.48 160.063 102.463C158.633 102.486 158.108 100.288 159.561 100.265Z" fill="#6A2403"/>
<path d="M139.913 106.208C141.362 105.861 142.186 108.056 140.743 108.397C139.29 108.767 138.443 106.582 139.913 106.208Z" fill="#6A2403"/>
<path d="M135.196 116.414C134.862 116.172 134.674 115.769 134.862 115.254C135.4 113.856 137.671 114.54 137.136 115.893L136.888 116.285C137.493 116.801 137.661 117.802 136.741 118.133C135.573 118.558 134.634 117.19 135.196 116.414Z" fill="#6A2403"/>
<path d="M161.87 114.19C160.539 114.258 159.692 112.23 161.047 112.166C162.39 112.134 163.184 114.135 161.87 114.19Z" fill="#6A2403"/>
<path d="M157.977 123.35V123.466V123.476L157.957 123.748C157.89 123.946 157.744 124.057 157.583 124.137C157.94 124.875 157.344 125.681 156.319 125.168C155.476 124.743 155.398 123.932 155.795 123.542C155.711 123.368 155.668 123.179 155.742 122.968L155.776 122.926C155.634 122.534 155.742 122.141 156.291 122.038C157.203 121.869 158.012 122.747 157.977 123.35Z" fill="#6A2403"/>
<path d="M144.707 117.613C143.326 117.995 142.28 115.963 143.675 115.571C145.069 115.221 146.063 117.245 144.707 117.613Z" fill="#6A2403"/>
<path d="M135.925 101.455C137.437 101.085 138.13 103.346 136.664 103.731C135.194 104.14 134.383 101.85 135.925 101.455Z" fill="#6A2403"/>
<path d="M166.208 109.923C167.523 110.029 168.138 112.118 166.821 111.998C165.482 111.917 164.855 109.848 166.208 109.923Z" fill="#6A2403"/>
<path d="M142.589 122.926C141.25 123.406 140.06 121.432 141.456 120.967C142.816 120.525 143.951 122.485 142.589 122.926Z" fill="#6A2403"/>
<path d="M164.404 121.42C165.677 121.342 166.712 123.203 165.442 123.281C164.158 123.373 163.106 121.521 164.404 121.42Z" fill="#6A2403"/>
<path d="M150.74 126.182C150.536 125.478 151.108 124.729 152.068 125.202C153.148 125.747 152.983 126.934 152.169 127.074C152.327 127.462 152.261 127.865 151.716 128.023C150.428 128.405 149.154 126.587 150.478 126.204L150.74 126.182Z" fill="#6A2403"/>
<path d="M138.791 118.364C139.265 117.012 141.514 117.676 141.056 118.993C140.604 120.296 138.316 119.712 138.791 118.364Z" fill="#6A2403"/>
<path d="M140.301 124.968C139.956 126.333 137.613 125.951 137.985 124.527C138.367 123.107 140.68 123.6 140.301 124.968Z" fill="#6A2403"/>
<path d="M144.375 131.429C144.077 132.84 141.72 132.606 142.032 131.133C142.355 129.66 144.686 130.001 144.375 131.429Z" fill="#6A2403"/>
<path d="M142.798 128.153C142.486 129.421 140.15 129.031 140.484 127.703C140.823 126.38 143.119 126.866 142.798 128.153Z" fill="#6A2403"/>
<path d="M152.191 123.066C151.776 124.185 149.543 123.522 149.955 122.338C150.393 121.161 152.61 121.923 152.191 123.066Z" fill="#6A2403"/>
<path d="M141.439 132.436C141.188 133.72 138.834 133.474 139.101 132.131C139.377 130.783 141.7 131.136 141.439 132.436Z" fill="#6A2403"/>
<path d="M140.265 138.802C139.908 140.411 137.531 140.285 137.893 138.605C138.272 136.938 140.633 137.182 140.265 138.802Z" fill="#6A2403"/>
<path d="M139.121 128.986C138.962 130.439 136.595 130.426 136.769 128.898C136.95 127.371 139.342 127.547 139.121 128.986Z" fill="#6A2403"/>
<path d="M141.104 133.647C140.973 135.226 138.62 135.389 138.737 133.705C138.903 132.061 141.287 132.076 141.104 133.647Z" fill="#6A2403"/>
<path d="M146.404 113.53C146.977 112.234 149.172 113.07 148.617 114.334C148.075 115.591 145.836 114.835 146.404 113.53Z" fill="#6A2403"/>
</g>
<path d="M170.76 101.727C171.039 104.322 168.899 106.008 166.617 106.008C164.329 106.008 162.661 104.273 162.47 101.727C162.292 99.3663 164.336 97.6545 166.617 97.4403C169.044 97.2129 170.498 99.3729 170.76 101.727Z" fill="white"/>
<path d="M168.202 101.731C168.262 102.22 167.851 102.541 167.414 102.541C166.982 102.541 166.667 102.214 166.629 101.731C166.599 101.286 166.986 100.959 167.414 100.917C167.883 100.877 168.16 101.286 168.202 101.731Z" fill="black"/>
<path d="M184.45 98.2372C184.5 98.6755 184.141 98.9611 183.749 98.9611C183.367 98.9611 183.081 98.6689 183.055 98.2372C183.023 97.8387 183.37 97.5498 183.749 97.5133C184.161 97.4751 184.41 97.8387 184.45 98.2372Z" fill="black"/>
<path d="M188.669 121.556C178.956 122.503 175.527 116.773 175.527 116.773" stroke="black" stroke-width="0.346" stroke-linecap="round"/>
<path d="M179.929 130.63C178.65 129.136 172.174 130.341 165.565 134.233C156.235 139.723 142.317 141.282 145.318 143.854C148.318 146.423 150.015 146.331 154.907 145.138C160.018 143.892 165.106 143.15 172.463 137.489C176.726 134.208 177.985 132.556 179.929 130.63Z" fill="#68701F"/>
<path d="M147.383 130.854C150.422 127.894 161 123.688 164.485 127.615C167.961 131.545 160.556 145.177 160.556 145.177C160.556 145.177 175.382 144.12 174.625 145.177C173.872 146.235 167.273 146.137 167.273 146.137C167.273 146.137 175.366 146.967 175.226 147.885C175.083 148.81 166.969 147.47 166.969 147.47C166.969 147.47 173.573 150.474 172.962 151.229C172.36 151.981 166.522 149.806 161.915 148.657C157.311 147.507 154.497 149.844 154.652 147.885C154.806 145.933 158.483 138.702 158.483 138.702C158.483 138.702 152.547 147.963 146.609 145.649C136.838 141.843 144.801 133.379 147.383 130.854Z" fill="#9DB22D"/>
<path d="M194.288 112.416C194.288 112.798 193.976 113.114 193.587 113.114C193.198 113.114 192.883 112.8 192.883 112.416C192.883 112.031 193.198 111.719 193.587 111.719C193.976 111.719 194.288 112.029 194.288 112.416Z" fill="black"/>
<path d="M197.121 111.414C197.121 111.719 196.872 111.971 196.566 111.971C196.256 111.971 196.01 111.719 196.01 111.414C196.01 111.105 196.256 110.862 196.566 110.862C196.874 110.862 197.121 111.105 197.121 111.414Z" fill="black"/>
<path d="M174.116 127.238C174.116 127.238 176.084 139.265 177.834 141.146C179.249 142.674 180.097 142.204 180.097 142.204C180.097 142.204 185.202 141.571 184.295 142.516C183.385 143.466 180.097 143.476 180.097 143.476C180.097 143.476 185.71 144.899 184.805 145.448C183.9 145.989 179.166 145.108 179.166 145.108C179.166 145.108 184.827 147.929 183.36 147.958C181.324 148.01 176.438 146.194 175.953 144.93C175.468 143.655 170.168 132.621 169.002 130.558C167.844 128.493 174.116 127.238 174.116 127.238Z" fill="#869A2A"/>
<path d="M324.694 81.5378L196.603 62.2549C196.603 62.2549 197.576 24.8282 196.603 7.3053C196.506 5.54537 189.53 5.54537 189.414 7.3053C188.704 18.0575 189.414 28.1903 189.414 28.1903C189.414 28.1903 180.054 5.98535 157.594 14.4147C141.104 20.6011 129.731 44.7719 129.731 44.7719C129.731 44.7719 129.53 30.8402 129.731 25.6683C129.877 21.8762 121.675 22.5503 121.641 24.531C121.296 46.0088 121.641 107.774 121.641 110.005C121.641 110.005 121.293 136.68 121.641 144.766C121.728 146.746 129.689 146.746 129.731 144.766C129.877 138.128 129.731 122.747 129.731 122.747L281.623 136.036C281.623 136.036 281.012 148.729 280.725 155.405C280.635 157.422 288.287 158.508 288.938 154.741C289.935 149.033 290.626 136.682 290.626 136.682L290.778 135.048L320.087 104.264C320.087 104.264 319.446 107.776 319.533 115.971C319.546 117.761 326.64 116.12 326.64 114.331C326.64 104.804 327.668 83.9718 327.668 83.9718L324.694 81.5378Z" fill="#6A2403"/>
<path d="M192.473 46.995C192.473 46.995 202.899 40.656 216.125 47.2723C225.293 51.8597 225.276 58.4611 225.276 58.4611C225.276 58.4611 321.247 63.7193 326.64 69.3644C332.031 75.0061 326.64 86.6731 326.64 86.6731C326.64 86.6731 293.672 122.033 288.287 124.566C282.901 127.098 131.464 112.244 131.464 112.244C131.464 112.244 125.233 88.8365 133.477 79.6151C139.382 73.0104 192.473 46.995 192.473 46.995Z" fill="#FF8000"/>
<path d="M212.363 62.5704C210.475 66.5402 190.732 78.1175 188.549 78.1889C181.802 78.4164 172.661 58.6454 173.535 56.2064C175.901 49.5785 191.21 41.7534 197.349 40.5879C198.962 40.2807 213.19 60.8304 212.363 62.5704Z" fill="#AA61A5"/>
<path d="M174.663 56.5951C174.663 57.4435 173.965 58.1292 173.099 58.1292C172.239 58.1292 171.541 57.4435 171.541 56.5951C171.541 55.7516 172.239 55.0659 173.099 55.0659C173.965 55.0659 174.663 55.7516 174.663 56.5951Z" fill="#41AA54"/>
<path d="M199.095 39.9304C199.095 40.7772 198.396 41.4629 197.534 41.4629C196.67 41.4629 195.969 40.7772 195.969 39.9304C195.969 39.087 196.67 38.3979 197.534 38.3979C198.396 38.3979 199.095 39.087 199.095 39.9304Z" fill="#41AA54"/>
<path d="M214.74 62.5571C214.74 63.4038 214.039 64.0879 213.175 64.0879C212.315 64.0879 211.615 63.4038 211.615 62.5571C211.615 61.7136 212.315 61.0229 213.175 61.0229C214.039 61.0229 214.74 61.7136 214.74 62.5571Z" fill="#41AA54"/>
<path d="M188.852 79.0142C188.852 79.861 188.151 80.5483 187.29 80.5483C186.426 80.5483 185.729 79.861 185.729 79.0142C185.729 78.1708 186.426 77.4834 187.29 77.4834C188.151 77.4834 188.852 78.1724 188.852 79.0142Z" fill="#41AA54"/>
<path d="M196.994 39.1866C196.994 39.1866 194.924 34.2837 195.969 34.9694C197.017 35.6551 197.532 37.0448 197.532 37.0448C197.532 37.0448 198.471 31.8314 199.095 33.8918C199.755 36.0668 198.07 37.6159 198.07 37.6159C198.07 37.6159 199.738 34.4364 199.67 36.296C199.605 38.1605 197.532 39.0853 197.532 39.0853L196.994 39.1866Z" fill="#2A773A"/>
<path d="M213.176 62.2268C213.827 61.8167 220.178 59.6517 218.775 61.0231C217.376 62.4012 214.301 62.8876 214.741 62.5572C215.179 62.2268 220.682 64.088 218.08 64.088H215.379C215.681 64.0897 217.67 67.3123 216.251 66.1501C214.832 64.9863 213.176 62.2268 213.176 62.2268Z" fill="#2A773A"/>
<path d="M187.971 80.1101C187.971 80.1101 190.041 85.013 188.992 84.329C187.947 83.6416 187.429 82.2502 187.429 82.2502C187.429 82.2502 186.49 87.4653 185.867 85.4082C185.208 83.2282 186.892 81.6824 186.892 81.6824C186.892 81.6824 185.226 84.8603 185.291 82.999C185.362 81.1378 187.429 80.2097 187.429 80.2097L187.971 80.1101Z" fill="#2A773A"/>
<path d="M172.746 56.3859C172.097 56.7943 165.747 58.961 167.146 57.5863C168.545 56.2149 171.62 55.7218 171.185 56.0555C170.745 56.3859 165.24 54.5247 167.844 54.5247H170.545C170.244 54.5247 168.252 51.3004 169.673 52.4643C171.092 53.6265 172.746 56.3859 172.746 56.3859Z" fill="#2A773A"/>
</g>
<path d="M826 112.161H577.709V159.11H826V112.161Z" fill="#2A773A"/>
<path d="M822.316 102.422L823.374 114.963" stroke="#2A773A" stroke-width="0.722" stroke-linecap="round"/>
<path d="M818.926 103.384L819.809 112.776" stroke="#2A773A" stroke-width="0.722" stroke-linecap="round"/>
<path d="M815.781 113.291L814.916 103.252" stroke="#2A773A" stroke-width="0.722" stroke-linecap="round"/>
<path d="M809.529 113.19L811.483 102.972" stroke="#2A773A" stroke-width="0.722" stroke-linecap="round"/>
<path d="M806.453 114.127L806.64 102.422" stroke="#2A773A" stroke-width="0.722" stroke-linecap="round"/>
<path d="M801.768 115.019L802.825 102.475" stroke="#2A773A" stroke-width="0.722" stroke-linecap="round"/>
<path d="M798.381 112.735L799.257 103.346" stroke="#2A773A" stroke-width="0.722" stroke-linecap="round"/>
<path d="M795.231 113.291L794.371 103.252" stroke="#2A773A" stroke-width="0.722" stroke-linecap="round"/>
<path d="M775.773 113.19L773.818 102.972" stroke="#2A773A" stroke-width="0.722" stroke-linecap="round"/>
<path d="M778.843 114.127L778.662 102.422" stroke="#2A773A" stroke-width="0.722" stroke-linecap="round"/>
<path d="M783.539 115.019L782.479 102.475" stroke="#2A773A" stroke-width="0.722" stroke-linecap="round"/>
<path d="M786.925 112.735L786.051 103.346" stroke="#2A773A" stroke-width="0.722" stroke-linecap="round"/>
<path d="M790.072 113.291L790.937 103.252" stroke="#2A773A" stroke-width="0.722" stroke-linecap="round"/>
<path d="M769.258 113.19L771.213 102.972" stroke="#2A773A" stroke-width="0.722" stroke-linecap="round"/>
<path d="M766.188 114.127L766.369 102.422" stroke="#2A773A" stroke-width="0.722" stroke-linecap="round"/>
<path d="M761.496 115.019L762.553 102.475" stroke="#2A773A" stroke-width="0.722" stroke-linecap="round"/>
<path d="M758.107 103.384L758.985 112.776" stroke="#2A773A" stroke-width="0.722" stroke-linecap="round"/>
<path d="M754.959 102.828L754.098 112.868" stroke="#2A773A" stroke-width="0.722" stroke-linecap="round"/>
<path d="M748.707 102.93L750.66 113.15" stroke="#2A773A" stroke-width="0.722" stroke-linecap="round"/>
<path d="M745.631 103.311L745.817 115.02" stroke="#2A773A" stroke-width="0.722" stroke-linecap="round"/>
<path d="M740.945 102.422L742.002 114.963" stroke="#2A773A" stroke-width="0.722" stroke-linecap="round"/>
<path d="M737.555 112.735L738.434 103.346" stroke="#2A773A" stroke-width="0.722" stroke-linecap="round"/>
<path d="M734.41 113.291L733.545 103.252" stroke="#2A773A" stroke-width="0.722" stroke-linecap="round"/>
<path d="M728.158 102.93L730.115 113.15" stroke="#2A773A" stroke-width="0.722" stroke-linecap="round"/>
<path d="M725.082 103.311L725.265 115.02" stroke="#2A773A" stroke-width="0.722" stroke-linecap="round"/>
<path d="M720.393 102.422L721.45 114.963" stroke="#2A773A" stroke-width="0.722" stroke-linecap="round"/>
<path d="M717.006 103.384L717.884 112.776" stroke="#2A773A" stroke-width="0.722" stroke-linecap="round"/>
<path d="M713.859 113.291L712.996 103.252" stroke="#2A773A" stroke-width="0.722" stroke-linecap="round"/>
<path d="M707.607 113.19L709.563 102.972" stroke="#2A773A" stroke-width="0.722" stroke-linecap="round"/>
<path d="M704.537 114.127L704.718 102.422" stroke="#2A773A" stroke-width="0.722" stroke-linecap="round"/>
<path d="M699.842 115.019L700.903 102.475" stroke="#2A773A" stroke-width="0.722" stroke-linecap="round"/>
<path d="M696.455 112.735L697.337 103.346" stroke="#2A773A" stroke-width="0.722" stroke-linecap="round"/>
<path d="M693.309 113.291L692.445 103.252" stroke="#2A773A" stroke-width="0.722" stroke-linecap="round"/>
<path d="M673.85 113.19L671.895 102.972" stroke="#2A773A" stroke-width="0.722" stroke-linecap="round"/>
<path d="M676.921 114.127L676.74 102.422" stroke="#2A773A" stroke-width="0.722" stroke-linecap="round"/>
<path d="M681.615 115.019L680.555 102.475" stroke="#2A773A" stroke-width="0.722" stroke-linecap="round"/>
<path d="M685.001 112.735L684.123 103.346" stroke="#2A773A" stroke-width="0.722" stroke-linecap="round"/>
<path d="M688.152 113.291L689.014 103.252" stroke="#2A773A" stroke-width="0.722" stroke-linecap="round"/>
<path d="M667.336 113.19L669.289 102.972" stroke="#2A773A" stroke-width="0.722" stroke-linecap="round"/>
<path d="M664.264 114.127L664.445 102.422" stroke="#2A773A" stroke-width="0.722" stroke-linecap="round"/>
<path d="M659.572 115.019L660.626 102.475" stroke="#2A773A" stroke-width="0.722" stroke-linecap="round"/>
<path d="M656.184 103.384L657.058 112.776" stroke="#2A773A" stroke-width="0.722" stroke-linecap="round"/>
<path d="M653.039 102.828L652.172 112.868" stroke="#2A773A" stroke-width="0.722" stroke-linecap="round"/>
<path d="M646.785 102.93L648.74 113.15" stroke="#2A773A" stroke-width="0.722" stroke-linecap="round"/>
<path d="M643.713 103.311L643.894 115.02" stroke="#2A773A" stroke-width="0.722" stroke-linecap="round"/>
<path d="M639.021 102.422L640.079 114.963" stroke="#2A773A" stroke-width="0.722" stroke-linecap="round"/>
<path d="M635.631 112.735L636.512 103.346" stroke="#2A773A" stroke-width="0.722" stroke-linecap="round"/>
<path d="M632.486 113.291L631.623 103.252" stroke="#2A773A" stroke-width="0.722" stroke-linecap="round"/>
<path d="M626.234 102.93L628.191 113.15" stroke="#2A773A" stroke-width="0.722" stroke-linecap="round"/>
<path d="M623.164 103.311L623.345 115.02" stroke="#2A773A" stroke-width="0.722" stroke-linecap="round"/>
<path d="M618.473 102.422L619.53 114.963" stroke="#2A773A" stroke-width="0.722" stroke-linecap="round"/>
<path d="M615.082 103.384L615.964 112.776" stroke="#2A773A" stroke-width="0.722" stroke-linecap="round"/>
<path d="M611.936 113.291L611.076 103.252" stroke="#2A773A" stroke-width="0.722" stroke-linecap="round"/>
<path d="M605.684 113.19L607.642 102.972" stroke="#2A773A" stroke-width="0.722" stroke-linecap="round"/>
<path d="M602.613 114.127L602.794 102.422" stroke="#2A773A" stroke-width="0.722" stroke-linecap="round"/>
<path d="M597.922 115.019L598.979 102.475" stroke="#2A773A" stroke-width="0.722" stroke-linecap="round"/>
<path d="M594.533 112.735L595.409 103.346" stroke="#2A773A" stroke-width="0.722" stroke-linecap="round"/>
<path d="M591.385 113.291L590.52 103.252" stroke="#2A773A" stroke-width="0.722" stroke-linecap="round"/>
<path d="M579.688 115.019L578.631 102.475" stroke="#2A773A" stroke-width="0.722" stroke-linecap="round"/>
<path d="M583.081 112.735L582.201 103.346" stroke="#2A773A" stroke-width="0.722" stroke-linecap="round"/>
<path d="M586.227 113.291L587.088 103.252" stroke="#2A773A" stroke-width="0.722" stroke-linecap="round"/>
<path d="M741.571 96.4666C741.571 99.7421 738.996 102.4 735.83 102.4C732.663 102.4 730.086 99.7421 730.086 96.4666C730.086 93.1856 732.661 90.5337 735.83 90.5337C738.994 90.5337 741.571 93.1856 741.571 96.4666Z" fill="#869A2A"/>
<path d="M723.92 98.5132C724.313 102.215 721.27 104.623 718.014 104.623C714.75 104.623 712.374 102.151 712.103 98.5132C711.849 95.148 714.761 92.7083 718.014 92.4065C721.476 92.0828 723.549 95.1608 723.92 98.5132Z" fill="#869A2A"/>
<path d="M731.648 126.616C731.648 126.616 736.16 135.117 738.461 136.764C740.326 138.101 741.129 137.406 741.129 137.406C741.129 137.406 746.503 135.603 745.731 136.823C744.959 138.043 741.416 138.782 741.416 138.782C741.416 138.782 747.785 139.083 746.929 139.874C746.067 140.655 740.778 140.746 740.778 140.746C740.778 140.746 747.497 142.546 745.928 142.904C743.732 143.401 738.066 142.518 737.267 141.258C736.464 139.994 729.536 133.087 727.822 131.117C726.118 129.145 731.648 126.616 731.648 126.616Z" fill="#869A2A"/>
<path d="M740.395 96.4665C740.395 99.069 738.345 101.185 735.831 101.185C733.312 101.185 731.266 99.069 731.266 96.4665C731.266 93.8585 733.312 91.7498 735.831 91.7498C738.345 91.7498 740.395 93.8585 740.395 96.4665Z" fill="white"/>
<path d="M721.586 95.9128C733.152 94.2229 755.856 99.395 753.932 109.993C752.35 118.699 742.298 120.358 742.298 120.358C742.298 120.358 740.612 130.279 727.821 131.113C720.82 141.194 709.124 147.511 697.873 146.845C686.682 146.183 680.714 135.062 688.282 121.34C695.477 108.302 707.963 105.52 707.963 105.52C707.963 105.52 711.052 97.4472 721.586 95.9128Z" fill="#869A2A"/>
<path d="M719.392 121.295C720.76 122.239 720.04 123.764 718.646 122.863C717.23 121.957 718.006 120.344 719.392 121.295Z" fill="#6A2403"/>
<path d="M715.848 123.563C717.266 124.439 716.616 126.05 715.162 125.218C713.719 124.395 714.416 122.689 715.848 123.563Z" fill="#6A2403"/>
<path d="M712.059 119.762C713.456 120.655 712.703 122.349 711.276 121.504C709.829 120.646 710.64 118.863 712.059 119.762Z" fill="#6A2403"/>
<path d="M716.422 113.903C715.093 112.884 716.104 111.234 717.397 112.295C718.687 113.356 717.75 114.914 716.422 113.903Z" fill="#6A2403"/>
<path d="M704.742 117.994C703.291 117.142 704.169 115.201 705.607 116.105C706.999 116.986 706.17 118.833 704.742 117.994Z" fill="#6A2403"/>
<path d="M694.639 118.713L694.681 118.397C695.206 117.03 697.658 117.85 697.157 119.179C696.936 119.763 696.327 119.922 695.769 119.83C695.913 120.639 695.261 121.447 694.238 120.952C692.879 120.297 693.397 118.446 694.639 118.713Z" fill="#6A2403"/>
<path d="M704.792 112.191C703.406 111.271 704.432 109.327 705.796 110.294C707.157 111.262 706.189 113.12 704.792 112.191Z" fill="#6A2403"/>
<path d="M695.253 128.298C694.472 127.987 694.222 127.275 694.401 126.745C694.366 126.602 694.368 126.451 694.419 126.28C694.818 124.911 697.323 125.553 696.945 126.877L696.724 127.257C696.815 127.979 696.259 128.7 695.253 128.298Z" fill="#6A2403"/>
<path d="M702.324 99.3484C700.742 99.5221 700.027 97.0403 701.703 96.8739C703.334 96.7404 703.888 99.2039 702.324 99.3484Z" fill="#6A2403"/>
<path d="M708.029 105.678C709.573 105.653 710.259 107.963 708.775 108.019C707.261 108.102 706.464 105.746 708.029 105.678Z" fill="#6A2403"/>
<path d="M718.651 119.642C720.21 119.457 721.009 121.846 719.454 122.025C717.887 122.235 717.069 119.858 718.651 119.642Z" fill="#6A2403"/>
<path d="M711.552 113.158C709.981 113.455 709.101 111.033 710.735 110.746C712.344 110.496 713.101 112.884 711.552 113.158Z" fill="#6A2403"/>
<path d="M701.883 110.978C700.369 111.238 699.368 108.946 700.939 108.698C702.47 108.48 703.412 110.761 701.883 110.978Z" fill="#6A2403"/>
<path d="M713.722 117.036C712.279 117.14 711.236 115 712.696 114.887C714.133 114.803 715.161 116.957 713.722 117.036Z" fill="#6A2403"/>
<path d="M700.05 120.26C698.574 120.622 697.369 118.489 698.861 118.12C700.337 117.774 701.53 119.927 700.05 120.26Z" fill="#6A2403"/>
<path d="M704.686 112.597C706.189 112.409 707.186 114.607 705.725 114.81C704.236 115.033 703.177 112.822 704.686 112.597Z" fill="#6A2403"/>
<path d="M701.245 116.231C699.705 116.571 698.674 114.274 700.248 113.94C701.796 113.629 702.791 115.924 701.245 116.231Z" fill="#6A2403"/>
<path d="M710.251 96.9014C711.805 96.9069 712.358 99.3393 710.801 99.3228C709.232 99.3484 708.647 96.9288 710.251 96.9014Z" fill="#6A2403"/>
<path d="M693.821 88.9677C695.542 88.7227 695.987 91.3581 694.275 91.5977C692.576 91.8757 692.049 89.2512 693.821 88.9677Z" fill="#6A2403"/>
<path d="M688.622 103.449C690.213 103.068 691.125 105.482 689.53 105.859C687.934 106.267 687.005 103.866 688.622 103.449Z" fill="#6A2403"/>
<path d="M683.429 114.691C683.061 114.424 682.853 113.982 683.061 113.415C683.652 111.873 686.154 112.625 685.565 114.117L685.293 114.55C685.955 115.119 686.145 116.22 685.13 116.584C683.842 117.054 682.811 115.549 683.429 114.691Z" fill="#6A2403"/>
<path d="M712.789 112.24C711.324 112.317 710.391 110.084 711.886 110.011C713.365 109.98 714.236 112.18 712.789 112.24Z" fill="#6A2403"/>
<path d="M708.504 122.332V122.462V122.47L708.482 122.773C708.407 122.989 708.25 123.111 708.071 123.201C708.46 124.013 707.809 124.902 706.681 124.335C705.748 123.869 705.666 122.972 706.103 122.545C706.01 122.353 705.964 122.146 706.05 121.914L706.083 121.866C705.929 121.434 706.05 121.003 706.648 120.889C707.654 120.701 708.543 121.667 708.504 122.332Z" fill="#6A2403"/>
<path d="M693.898 116.01C692.38 116.434 691.226 114.192 692.764 113.76C694.297 113.376 695.389 115.605 693.898 116.01Z" fill="#6A2403"/>
<path d="M707.821 90.879C709.478 90.8662 709.744 93.4723 708.099 93.4778C706.422 93.5253 706.119 90.9283 707.821 90.879Z" fill="#6A2403"/>
<path d="M684.233 98.2108C685.901 97.8048 686.658 100.298 685.046 100.724C683.424 101.172 682.535 98.6461 684.233 98.2108Z" fill="#6A2403"/>
<path d="M717.566 107.54C719.013 107.657 719.688 109.96 718.241 109.832C716.765 109.735 716.076 107.46 717.566 107.54Z" fill="#6A2403"/>
<path d="M691.568 121.864C690.088 122.393 688.782 120.22 690.317 119.706C691.818 119.22 693.069 121.38 691.568 121.864Z" fill="#6A2403"/>
<path d="M715.581 120.203C716.982 120.123 718.125 122.169 716.724 122.255C715.313 122.356 714.151 120.32 715.581 120.203Z" fill="#6A2403"/>
<path d="M700.537 125.452C700.312 124.675 700.941 123.85 701.999 124.373C703.187 124.971 703.003 126.279 702.11 126.431C702.286 126.859 702.211 127.307 701.611 127.477C700.201 127.899 698.793 125.898 700.25 125.474L700.537 125.452Z" fill="#6A2403"/>
<path d="M680.932 121.078C680.482 122.647 677.921 122.252 678.371 120.582C678.867 118.965 681.42 119.501 680.932 121.078Z" fill="#6A2403"/>
<path d="M687.383 116.838C687.91 115.351 690.388 116.083 689.88 117.531C689.384 118.965 686.86 118.327 687.383 116.838Z" fill="#6A2403"/>
<path d="M689.051 124.117C688.665 125.617 686.091 125.2 686.501 123.631C686.918 122.067 689.466 122.607 689.051 124.117Z" fill="#6A2403"/>
<path d="M693.537 131.23C693.204 132.786 690.609 132.527 690.958 130.905C691.309 129.282 693.875 129.659 693.537 131.23Z" fill="#6A2403"/>
<path d="M691.797 127.619C691.452 129.018 688.886 128.59 689.248 127.129C689.623 125.67 692.148 126.204 691.797 127.619Z" fill="#6A2403"/>
<path d="M702.135 122.019C701.674 123.256 699.219 122.522 699.673 121.216C700.156 119.923 702.595 120.761 702.135 122.019Z" fill="#6A2403"/>
<path d="M690.298 132.34C690.023 133.753 687.43 133.486 687.724 132.001C688.03 130.52 690.583 130.907 690.298 132.34Z" fill="#6A2403"/>
<path d="M689.008 139.352C688.613 141.124 685.998 140.985 686.397 139.134C686.816 137.298 689.413 137.568 689.008 139.352Z" fill="#6A2403"/>
<path d="M687.75 128.541C687.574 130.139 684.968 130.123 685.156 128.442C685.359 126.763 687.991 126.955 687.75 128.541Z" fill="#6A2403"/>
<path d="M675.067 112.432C675.68 110.764 678.198 111.411 677.607 113.043C677.024 114.652 674.467 114.102 675.067 112.432Z" fill="#6A2403"/>
<path d="M689.935 133.673C689.792 135.414 687.195 135.592 687.323 133.737C687.509 131.926 690.134 131.943 689.935 133.673Z" fill="#6A2403"/>
<path d="M695.764 111.514C696.397 110.086 698.813 111.008 698.202 112.401C697.602 113.788 695.141 112.952 695.764 111.514Z" fill="#6A2403"/>
<path d="M722.579 98.5116C722.886 101.37 720.532 103.226 718.018 103.226C715.499 103.226 713.663 101.323 713.453 98.5116C713.261 95.9128 715.507 94.029 718.018 93.7931C720.69 93.5444 722.29 95.9219 722.579 98.5116Z" fill="white"/>
<path d="M719.769 98.5167C719.829 99.058 719.379 99.4092 718.896 99.4092C718.421 99.4092 718.075 99.0507 718.031 98.5167C717.998 98.0247 718.421 97.6681 718.896 97.6224C719.41 97.573 719.717 98.0247 719.769 98.5167Z" fill="black"/>
<path d="M737.647 94.6713C737.7 95.1559 737.307 95.4723 736.872 95.4723C736.453 95.4723 736.14 95.1468 736.107 94.6713C736.075 94.236 736.457 93.9141 736.872 93.8739C737.329 93.8318 737.602 94.2342 737.647 94.6713Z" fill="black"/>
<path d="M742.296 120.358C731.601 121.398 727.822 115.087 727.822 115.087" stroke="black" stroke-width="0.346" stroke-linecap="round"/>
<path d="M732.671 130.354C731.261 128.708 724.133 130.034 716.858 134.319C706.589 140.369 691.272 142.085 694.569 144.918C697.871 147.745 699.741 147.648 705.124 146.333C710.75 144.961 716.359 144.144 724.452 137.904C729.15 134.294 730.531 132.474 732.671 130.354Z" fill="#68701F"/>
<path d="M696.843 130.599C700.19 127.338 711.835 122.704 715.666 127.029C719.5 131.36 711.345 146.375 711.345 146.375C711.345 146.375 727.669 145.21 726.834 146.375C726.005 147.542 718.743 147.43 718.743 147.43C718.743 147.43 727.647 148.349 727.494 149.362C727.336 150.377 718.406 148.903 718.406 148.903C718.406 148.903 725.669 152.209 724.999 153.043C724.339 153.87 717.909 151.474 712.841 150.208C707.769 148.941 704.675 151.512 704.843 149.362C705.011 147.209 709.062 139.244 709.062 139.244C709.062 139.244 702.529 149.442 695.989 146.895C685.235 142.705 694.001 133.381 696.843 130.599Z" fill="#9DB22D"/>
<path d="M748.479 110.292C748.479 110.711 748.135 111.056 747.703 111.056C747.275 111.056 746.932 110.712 746.932 110.292C746.932 109.862 747.275 109.52 747.703 109.52C748.135 109.52 748.479 109.86 748.479 110.292Z" fill="black"/>
<path d="M751.598 109.183C751.598 109.521 751.324 109.796 750.988 109.796C750.647 109.796 750.373 109.521 750.373 109.183C750.373 108.845 750.647 108.578 750.988 108.578C751.324 108.578 751.598 108.845 751.598 109.183Z" fill="black"/>
<path d="M726.272 126.616C726.272 126.616 728.437 139.866 730.365 141.935C731.919 143.617 732.85 143.1 732.85 143.1C732.85 143.1 738.472 142.403 737.475 143.444C736.471 144.484 732.85 144.499 732.85 144.499C732.85 144.499 739.034 146.068 738.037 146.672C737.04 147.271 731.831 146.297 731.831 146.297C731.831 146.297 738.061 149.406 736.446 149.439C734.205 149.494 728.827 147.493 728.291 146.101C727.758 144.698 721.923 132.543 720.639 130.272C719.368 127.995 726.272 126.616 726.272 126.616Z" fill="#869A2A"/>
<path d="M694.003 57.5571C694.003 57.5571 693.51 91.7829 695.68 119.88C697.851 147.983 697.851 152.378 697.851 152.378" stroke="#41AA54" stroke-width="1.083"/>
<path d="M683.88 53.8556C683.88 53.8556 661.826 68.3916 655.787 56.8605C649.744 45.3312 681.029 40.8504 681.029 40.8504L689.722 39.1605C689.722 39.1605 660.306 8.96008 676.48 2.67419C692.547 -3.57877 699.316 35.7222 699.316 35.7222C699.316 35.7222 726.382 6.02655 733.948 26.3144C738.238 37.8126 705.818 44.424 705.818 44.424C705.818 44.424 724.128 73.3351 713.698 79.5002C692.608 91.9678 694.457 46.0115 694.457 46.0115L683.88 53.8556Z" fill="#FF0000"/>
<path d="M693.202 24.2532C693.202 24.2532 697.986 -2.25104 709.995 2.62111C722.003 7.50241 705.719 31.9985 705.719 31.9985L701.476 39.2903C701.476 39.2903 741.011 37.5126 737.925 53.2593C734.257 71.9414 696.397 48.0763 696.397 48.0763C696.397 48.0763 694.932 88.0667 676.125 77.5049C665.47 71.5244 685.853 45.6438 685.853 45.6438C685.853 45.6438 652.032 41.185 655.783 29.7216C662.209 10.0628 693.469 37.1285 693.469 37.1285L693.202 24.2532Z" fill="#FF0000"/>
<path d="M713.248 42.3573C713.248 52.0084 705.422 59.8323 695.766 59.8323C686.115 59.8323 678.285 52.0102 678.285 42.3573C678.285 32.7045 686.113 24.875 695.766 24.875C705.422 24.875 713.248 32.7045 713.248 42.3573Z" fill="#F989B8"/>
<path d="M688.42 42.1251C688.42 42.1251 682.644 38.3521 682.454 41.9678C682.26 45.5835 688.42 42.1251 688.42 42.1251Z" fill="white"/>
<path d="M690.858 48.1948C690.858 48.1948 684.051 49.3489 686.374 52.1324C688.685 54.916 690.858 48.1948 690.858 48.1948Z" fill="white"/>
<path d="M689.894 36.0993C689.894 36.0993 689.072 29.2538 686.177 31.4284C683.286 33.612 689.894 36.0993 689.894 36.0993Z" fill="white"/>
<path d="M696.515 35.2634C696.515 35.2634 701.071 30.084 697.523 29.3798C693.971 28.6739 696.515 35.2634 696.515 35.2634Z" fill="white"/>
<path d="M702.914 36.3511C702.914 36.3511 709.772 35.647 707.647 32.719C705.518 29.7854 702.914 36.3511 702.914 36.3511Z" fill="white"/>
<path d="M704.174 42.1874C704.174 42.1874 709.9 46.028 710.132 42.4141C710.368 38.8021 704.174 42.1874 704.174 42.1874Z" fill="white"/>
<path d="M702.965 47.8201C702.965 47.8201 703.618 54.6839 706.566 52.5825C709.509 50.472 702.965 47.8201 702.965 47.8201Z" fill="white"/>
<path d="M697.27 51.1199C697.27 51.1199 692.151 55.7488 695.606 56.8516C699.053 57.9508 697.27 51.1199 697.27 51.1199Z" fill="white"/>
<path d="M695.63 103.341C695.63 103.341 694.255 95.095 704.654 90.0894C715.053 85.0819 718.746 86.737 718.746 86.737C718.746 86.737 716.789 102.111 708.244 103.883C699.692 105.65 695.63 103.341 695.63 103.341Z" fill="#41AA54"/>
<path d="M694.664 115.321C694.664 115.321 695.332 106.987 684.552 102.873C673.766 98.7566 670.23 100.724 670.23 100.724C670.23 100.724 673.475 115.875 682.142 116.919C690.8 117.965 694.664 115.321 694.664 115.321Z" fill="#41AA54"/>
<path d="M777.678 54.9146C777.678 54.9146 777.182 89.1403 779.353 117.239C781.526 145.34 781.526 149.737 781.526 149.737" stroke="#41AA54" stroke-width="1.083"/>
<path d="M791.484 64.3057C791.484 64.3057 810.788 69.9734 807.056 79.1562C803.323 88.3391 785.33 72.3601 785.33 72.3601L780.072 68.1372C780.072 68.1372 776.985 100.095 765.373 93.7819C753.839 87.5179 773.353 64.2526 773.353 64.2526C773.353 64.2526 742.779 63.1279 750.848 48.7492C755.421 40.5997 775.216 56.1873 775.216 56.1873C775.216 56.1873 783.011 31.3235 791.726 34.354C809.347 40.4808 781.724 62.0141 781.724 62.0141L791.484 64.3057Z" fill="#FF0000"/>
<path d="M769.69 73.448C769.69 73.448 751.93 83.7044 748.858 74.3259C745.785 64.9437 768.039 62.3613 768.039 62.3613L774.365 61.242C774.365 61.242 753.88 39.1308 764.557 33.1796C777.216 26.1256 781.968 59.8722 781.968 59.8722C781.968 59.8722 805.934 41.053 809.048 57.1764C810.813 66.3117 785.741 67.1969 785.741 67.1969C785.741 67.1969 799.787 89.0466 791.277 92.5105C776.688 98.4416 777.046 66.9555 777.046 66.9555L769.69 73.448Z" fill="#FF0000"/>
<path d="M770.35 52.8899C775.965 48.1385 784.36 48.8426 789.111 54.4518C793.862 60.0628 793.162 68.4647 787.553 73.2144C781.938 77.9621 773.536 77.2617 768.788 71.6525C764.042 66.0341 764.743 57.6377 770.35 52.8899Z" fill="#F989B8"/>
<path d="M782.434 67.4368C782.434 67.4368 783.081 72.6509 785.274 70.9811C787.47 69.3114 782.434 67.4368 782.434 67.4368Z" fill="white"/>
<path d="M784.764 63.0349C784.764 63.0349 788.778 66.4202 789.261 63.7043C789.736 60.9884 784.764 63.0349 784.764 63.0349Z" fill="white"/>
<path d="M778.205 69.5403C778.205 69.5403 774.626 73.3883 777.316 73.9991C780.005 74.6081 778.205 69.5403 778.205 69.5403Z" fill="white"/>
<path d="M774.459 66.1016C774.459 66.1016 769.208 66.0029 770.544 68.4115C771.884 70.8257 774.459 66.1016 774.459 66.1016Z" fill="white"/>
<path d="M771.947 61.8498C771.947 61.8498 768.161 58.2085 767.506 60.8878C766.846 63.5671 771.947 61.8498 771.947 61.8498Z" fill="white"/>
<path d="M774.718 58.2487C774.718 58.2487 774.14 53.0291 771.921 54.6678C769.705 56.3101 774.718 58.2487 774.718 58.2487Z" fill="white"/>
<path d="M778.591 56.178C778.591 56.178 782.26 52.4196 779.584 51.7448C776.912 51.0699 778.591 56.178 778.591 56.178Z" fill="white"/>
<path d="M783.311 57.8683C783.311 57.8683 788.516 58.5633 787.458 56.0156C786.403 53.4698 783.311 57.8683 783.311 57.8683Z" fill="white"/>
<path d="M778.288 109.88C778.288 109.88 777.235 103.539 785.232 99.6929C793.219 95.8449 796.059 97.1178 796.059 97.1178C796.059 97.1178 794.552 108.934 787.987 110.299C781.414 111.654 778.288 109.88 778.288 109.88Z" fill="#41AA54"/>
<path d="M779.525 119.089C779.525 119.089 780.039 112.682 771.756 109.522C763.462 106.359 760.744 107.866 760.744 107.866C760.744 107.866 763.237 119.513 769.9 120.319C776.557 121.119 779.525 119.089 779.525 119.089Z" fill="#41AA54"/>
<path d="M609.457 54.9146C609.457 54.9146 608.969 89.1403 611.14 117.239C613.309 145.34 613.309 149.737 613.309 149.737" stroke="#41AA54" stroke-width="1.083"/>
<path d="M622.312 46.9736C622.312 46.9736 642.534 35.9326 646.953 46.3957C651.366 56.8532 623.852 58.4846 623.852 58.4846L616.178 59.3204C616.178 59.3204 639.558 87.7047 625.044 91.9935C610.624 96.2639 607.588 61.6175 607.588 61.6175C607.588 61.6175 581.914 85.468 576.809 67.287C573.912 56.9849 602.567 53.5814 602.567 53.5814C602.567 53.5814 588.745 27.1302 598.257 22.5269C617.489 13.2142 612.558 53.0272 612.558 53.0272L622.312 46.9736Z" fill="#FF0000"/>
<path d="M612.068 72.0289C612.068 72.0289 605.996 94.7199 595.908 89.6118C585.823 84.5056 601.754 64.3897 601.754 64.3897L605.968 58.3598C605.968 58.3598 571.472 57.0394 575.296 43.5788C579.839 27.6089 611.02 51.09 611.02 51.09C611.02 51.09 615.184 16.4399 630.762 26.9743C639.59 32.9475 620.003 53.9687 620.003 53.9687C620.003 53.9687 649.075 60.2911 644.986 69.9824C637.977 86.6033 612.766 60.8142 612.766 60.8142L612.068 72.0289Z" fill="#FF0000"/>
<path d="M595.954 54.8427C596.65 46.45 604.023 40.2171 612.414 40.9157C620.804 41.6162 627.039 48.9793 626.342 57.3721C625.646 65.763 618.275 71.9995 609.881 71.3009C601.49 70.6022 595.257 63.2318 595.954 54.8427Z" fill="#F989B8"/>
<path d="M617.52 56.8405C617.52 56.8405 622.264 60.5367 622.693 57.4093C623.12 54.28 617.52 56.8405 617.52 56.8405Z" fill="white"/>
<path d="M615.842 51.3881C615.842 51.3881 621.835 50.876 620.023 48.2881C618.21 45.7039 615.842 51.3881 615.842 51.3881Z" fill="white"/>
<path d="M615.801 61.9705C615.801 61.9705 616.018 67.982 618.69 66.2976C621.362 64.6114 615.801 61.9705 615.801 61.9705Z" fill="white"/>
<path d="M609.983 62.2156C609.983 62.2156 605.648 66.3891 608.68 67.2596C611.716 68.1302 609.983 62.2156 609.983 62.2156Z" fill="white"/>
<path d="M604.505 60.8088C604.505 60.8088 598.49 60.9241 600.123 63.6272C601.76 66.3229 604.505 60.8088 604.505 60.8088Z" fill="white"/>
<path d="M603.829 55.6464C603.829 55.6464 599.134 51.8935 598.666 55.0172C598.2 58.1392 603.829 55.6464 603.829 55.6464Z" fill="white"/>
<path d="M605.288 50.8377C605.288 50.8377 605.217 44.8225 602.502 46.4411C599.794 48.0578 605.288 50.8377 605.288 50.8377Z" fill="white"/>
<path d="M610.479 48.3821C610.479 48.3821 615.256 44.7335 612.338 43.5209C609.425 42.3138 610.479 48.3821 610.479 48.3821Z" fill="white"/>
<path d="M610.713 109.702C610.713 109.702 609.502 102.44 618.665 98.0304C627.813 93.6246 631.067 95.0841 631.067 95.0841C631.067 95.0841 629.342 108.616 621.814 110.176C614.292 111.732 610.713 109.702 610.713 109.702Z" fill="#41AA54"/>
<path d="M612.127 120.25C612.127 120.25 612.717 112.914 603.227 109.293C593.734 105.672 590.617 107.398 590.617 107.398C590.617 107.398 593.476 120.738 601.104 121.658C608.729 122.574 612.127 120.25 612.127 120.25Z" fill="#41AA54"/>
<defs>
<clipPath id="clip0">
<rect width="351" height="165" fill="white" transform="translate(45)"/>
</clipPath>
</defs>
</svg>
