<?xml version="1.0" encoding="UTF-8" standalone="no"?>
<!-- Generator: Adobe Illustrator 26.5.0, SVG Export Plug-In . SVG Version: 6.00 Build 0)  -->

<svg
   version="1.1"
   id="Capa_1"
   x="0px"
   y="0px"
   viewBox="0 0 250 150"
   xml:space="preserve"
   sodipodi:docname="svgGlo8Snail.svg"
   width="250"
   height="150"
   inkscape:version="1.2.1 (9c6d41e410, 2022-07-14)"
   xmlns:inkscape="http://www.inkscape.org/namespaces/inkscape"
   xmlns:sodipodi="http://sodipodi.sourceforge.net/DTD/sodipodi-0.dtd"
   xmlns="http://www.w3.org/2000/svg"
   xmlns:svg="http://www.w3.org/2000/svg"><sodipodi:namedview
   id="namedview964"
   pagecolor="#ffffff"
   bordercolor="#000000"
   borderopacity="0.25"
   inkscape:showpageshadow="2"
   inkscape:pageopacity="0.0"
   inkscape:pagecheckerboard="0"
   inkscape:deskcolor="#d1d1d1"
   showgrid="false"
   inkscape:zoom="7.6641791"
   inkscape:cx="90.55112"
   inkscape:cy="66.934761"
   inkscape:window-width="3840"
   inkscape:window-height="2066"
   inkscape:window-x="-11"
   inkscape:window-y="-11"
   inkscape:window-maximized="1"
   inkscape:current-layer="Capa_1" />
<style
   type="text/css"
   id="style899">
	.st0{fill:#7DC32A;}
	.st1{fill:#7DC328;}
	.st2{fill:#F989B8;}
	.st3{fill:#9B3403;}
	.st4{fill:#6A2403;}
	.st5{fill:#FFFFFF;}
	.st6{fill:#FFFFFF;filter:url(#Adobe_OpacityMaskFilter);}
	.st7{mask:url(#mask1_00000079456904229017364170000009368321876214740370_);}
	.st8{fill:none;stroke:#000000;stroke-width:0.8;}
</style>









<defs
   id="defs946">
	<filter
   id="Adobe_OpacityMaskFilter"
   filterUnits="userSpaceOnUse"
   x="11.6"
   y="55.400002"
   width="20.5"
   height="18.299999">
		<feColorMatrix
   type="matrix"
   values="1 0 0 0 0  0 1 0 0 0  0 0 1 0 0  0 0 0 1 0"
   id="feColorMatrix943" />
	</filter>
</defs>
<mask
   maskUnits="userSpaceOnUse"
   x="11.6"
   y="55.4"
   width="20.5"
   height="18.3"
   id="mask1_00000079456904229017364170000009368321876214740370_">
	<path
   class="st6"
   d="m 13.2,55.4 c 0,0 1.7,6 8.9,8 6.8,1.9 10.1,-3.2 10.1,-3.2 0,0 -2.5,16.1 -12.4,13.1 C 8.7,70.1 13.2,55.4 13.2,55.4 Z"
   id="path948" />
</mask>

<g
   id="g993"
   transform="translate(30.009737,1.9143135)"><path
     class="st0"
     d="m 18.8,51.1 0.4,-9.6 c 0,0 -7.3,0.6 -9.8,-4.9 -1.8,-4 -0.9,-12.3 4.5,-14.6 5.4,-2.3 17,-0.1 16,9.2 -0.8,8.2 -7,9.7 -7,9.7 l 0.4,9.2 z"
     id="path901" /><path
     class="st0"
     d="M 33.4,53.9 39.7,46 c 0,0 -5,-6.2 -2.1,-11.9 2.9,-5.7 8,-7.6 12.1,-6.8 4.1,0.8 11,6.6 9.4,13 -1.6,6.6 -5.5,9.3 -9.5,9.5 C 45.5,50.1 43.4,49 43.4,49 L 37,56.7 Z"
     id="path903" /><path
     class="st1"
     d="m 175.6,99.8 c 0,0 3.5,10.9 -13.4,10.9 -16.9,0 -93.8,-4.4 -104.9,-9.6 C 46.1,96 43.4,92.1 42,82.8 40.6,73.5 46.1,49.4 29.7,47.5 13.4,45.6 2.8,51.1 5,76.8 c 2.2,25.7 11.4,32 21,38.6 9.5,6.6 23.7,8.8 61.1,10.4 37.3,1.6 37.6,1.1 53.1,0 15.5,-1.1 32.5,-4.1 35.7,-10.7 3.2,-6.5 -0.3,-15.3 -0.3,-15.3 z"
     id="path905" /><path
     class="st2"
     d="m 14.5,51.2 c 0,2 -1.5,3.5 -3.4,3.5 -1.9,0 -3.4,-1.6 -3.4,-3.5 0,-2 1.5,-3.5 3.4,-3.5 1.9,0 3.4,1.5 3.4,3.5 z"
     id="path907" /><g
     id="g933">
	<path
   class="st3"
   d="m 66.3,38.4 c 17,-26 81.8,-41.5 96.8,16.1 4.8,18.6 -9.5,53.9 -25.6,57.6 -16.1,3.7 -53.3,-1.5 -59.7,-3.9 C 61.5,101.9 47.9,66.6 66.3,38.4 Z"
   id="path909" />
	<g
   id="g931">
		<path
   class="st4"
   d="m 98,49.8 c 0,0 -3.8,3.5 -5.3,5.2 -1.5,1.7 -4.2,6.2 -4.2,6.2 l 19.8,8.8 c 0,0 1.2,-2.3 1.8,-2.9 1.8,-1.7 3.5,-2.3 3.5,-2.3 C 113.2,64.7 98,49.8 98,49.8 Z"
   id="path911" />
		<path
   class="st4"
   d="m 116.2,64 h 2.1 c 1.8,0 3.1,0.8 3.1,0.8 -0.1,-0.4 4.3,-20.7 4.3,-20.7 0,0 -2.4,-1.3 -6,-1.5 -1.8,-0.1 -5.9,0.3 -5.9,0.3 z"
   id="path913" />
		<path
   class="st4"
   d="m 85.4,69.8 c 0.4,-2.1 2.7,-8.2 2.7,-8.2 C 87.8,61.8 67.2,51.4 61.4,48.5 57.4,58.9 57,69.7 58.9,79.2 l 26,1.2 c -0.1,-0.1 -0.7,-4.9 0.5,-10.6 z"
   id="path915" />
		<path
   class="st4"
   d="m 138.4,67.5 c 0,0 0.5,-4.5 0.1,-6.3 -0.4,-1.7 -1.2,-5.8 -1.2,-5.8 l -14.9,10.2 c 0,0 0.9,1 1.1,1.5 0.4,1.2 0.1,2.7 0.1,2.7 0.3,-0.2 14.8,-2.3 14.8,-2.3 z"
   id="path917" />
		<path
   class="st4"
   d="m 140.5,21.4 -13.8,22.2 c 0,0 4.3,2.9 5.5,4.1 2.8,2.7 4.5,6.8 4.5,6.8 0,-0.3 13.1,-10.2 20.4,-15.8 C 152.8,30.8 147,25.2 140.5,21.4 Z"
   id="path919" />
		<path
   class="st4"
   d="m 120.9,73.7 c -0.6,0.3 -2.3,0.3 -2.3,0.3 0.2,0.1 7.9,13.4 7.9,13.4 0,0 2.7,-1.7 4.1,-2.6 1.3,-0.8 3.8,-4 3.8,-4 l -12.4,-8 c 0,0 -0.8,0.8 -1.1,0.9 z"
   id="path921" />
		<path
   class="st4"
   d="m 163.8,69.5 -25.4,-2 c 0,0 -0.6,4.9 -1.1,6.4 -0.5,1.8 -3,6.8 -3,6.8 0.3,-0.1 15,6.7 22.9,10.5 3.3,-6.8 5.6,-14.5 6.6,-21.7 z"
   id="path923" />
		<path
   class="st4"
   d="m 98.5,49.5 c 0,0 3.8,-2.4 5.6,-3.2 2,-0.9 9.4,-3.2 9.4,-3.2 -0.3,-0.2 -4.3,-20.3 -5.7,-27.8 -9.6,1.2 -18.9,4.6 -26.5,9.3 z"
   id="path925" />
		<path
   class="st4"
   d="M 133.7,112.6 126,88.4 c 0,0 -3.2,1.1 -4.3,1 -5.1,0 -7.8,-1.2 -7.8,-1.2 0.2,0.2 -2.2,16.2 -3.4,24.5 8.3,0.6 16.7,0.7 23.2,-0.1 z"
   id="path927" />
		<path
   class="st4"
   d="m 107,74.8 c -0.3,0.3 -22.2,5.8 -22.2,5.8 0,0 2.3,6.9 3.6,10 1.2,3 5,9.5 5,9.5 l 16.8,-15.7 c 0,0 -1.4,-1.8 -2.6,-4.9 -0.4,-1.1 -0.6,-4.7 -0.6,-4.7 z"
   id="path929" />
	</g>
</g><path
     class="st5"
     d="m 54.7,39.1 c 0,3.7 -3,7 -7.2,6.8 -3.7,-0.3 -6.7,-3 -6.7,-6.6 0,-3.7 3,-6.9 6.7,-6.9 3.7,-0.1 7.2,3 7.2,6.7 z"
     id="path935" /><path
     class="st5"
     d="m 26,30 c 0.7,3.5 -1.4,7.4 -5.5,7.9 -3.6,0.5 -7.1,-1.4 -7.8,-4.9 -0.7,-3.5 1.5,-7.2 5.1,-8 3.5,-0.7 7.4,1.5 8.2,5 z"
     id="path937" /><path
     d="m 21.2,31.1 c 0.3,1.2 -0.5,1.9 -1.5,2.1 -0.9,0.2 -1.9,-0.4 -2.1,-1.4 -0.2,-0.9 0.4,-1.9 1.3,-2.1 1.1,-0.2 2.1,0.4 2.3,1.4 z"
     id="path939" /><path
     d="m 50.2,39.4 c 0,1.2 -0.9,1.8 -1.9,1.8 -1,0 -1.8,-0.8 -1.8,-1.8 0,-1 0.8,-1.8 1.8,-1.8 1,0 1.9,0.8 1.9,1.8 z"
     id="path941" /><g
     class="st7"
     mask="url(#mask1_00000079456904229017364170000009368321876214740370_)"
     id="g959">
	<path
   class="st5"
   d="m 13.2,55.4 c 0,0 1.7,6 8.9,8 6.8,1.9 10.1,-3.2 10.1,-3.2 0,0 -2.5,16.1 -12.4,13.1 C 8.7,70.1 13.2,55.4 13.2,55.4 Z"
   id="path951" />
	<path
   class="st8"
   d="m 15.3,58.2 -3.4,10"
   id="path953" />
	<path
   class="st8"
   d="M 27.7,61.8 26.4,73.2"
   id="path955" />
	<path
   class="st8"
   d="M 20.9,62.9 17.6,73.1"
   id="path957" />
</g><path
     class="st2"
     d="m 40.2,59.6 c 0,2 -1.5,3.5 -3.4,3.5 -1.9,0 -3.4,-1.6 -3.4,-3.5 0,-1.9 1.5,-3.5 3.4,-3.5 1.9,0 3.4,1.6 3.4,3.5 z"
     id="path961" /></g>
</svg>
