<svg width="197" height="507" viewBox="0 0 197 507" fill="none" xmlns="http://www.w3.org/2000/svg">
<path d="M196.191 393.117C196.191 406.913 185.057 418.234 171.095 418.234C157.134 418.234 146 407.09 146 393.117C146 379.32 157.134 368 171.095 368C185.057 368 196.191 379.32 196.191 393.117Z" fill="#2BB673"/>
<path d="M163.379 395.143C163.379 391.606 163.556 390.368 163.909 389.129C164.969 385.769 167.62 384 171.155 384C174.336 384 176.81 385.592 178.047 388.422C178.047 388.599 178.047 388.776 177.871 388.776L175.927 389.66C175.75 389.837 175.573 389.66 175.396 389.483C174.513 387.714 173.276 386.653 170.978 386.653C168.681 386.653 167.267 387.714 166.56 389.837C166.207 390.721 166.207 391.783 166.207 395.143C166.207 398.504 166.383 399.565 166.56 400.45C167.267 402.572 168.681 403.633 170.978 403.633C173.276 403.633 174.513 402.395 175.396 400.803C175.396 400.627 175.573 400.626 175.927 400.626L177.871 401.511C178.047 401.688 178.047 401.688 178.047 401.865C176.81 404.695 174.336 406.287 171.155 406.287C167.62 406.287 164.969 404.518 163.909 401.157C163.379 400.096 163.379 398.858 163.379 395.143Z" fill="white"/>
<path d="M184.191 458.117C184.191 471.913 173.057 483.234 159.095 483.234C145.134 483.234 134 472.09 134 458.117C134 444.32 145.134 433 159.095 433C173.057 433 184.191 444.32 184.191 458.117Z" fill="#2BB673"/>
<path d="M151.379 458.143C151.379 454.606 151.556 453.368 151.909 452.129C152.969 448.769 155.62 447 159.155 447C162.336 447 164.81 448.592 166.047 451.422C166.047 451.599 166.047 451.776 165.871 451.776L163.927 452.66C163.75 452.837 163.573 452.66 163.396 452.483C162.513 450.714 161.276 449.653 158.978 449.653C156.681 449.653 155.267 450.714 154.56 452.837C154.207 453.721 154.207 454.783 154.207 458.143C154.207 461.504 154.383 462.565 154.56 463.45C155.267 465.572 156.681 466.633 158.978 466.633C161.276 466.633 162.513 465.395 163.396 463.803C163.396 463.627 163.573 463.626 163.927 463.626L165.871 464.511C166.047 464.688 166.047 464.688 166.047 464.865C164.81 467.695 162.336 469.287 159.155 469.287C155.62 469.287 152.969 467.518 151.909 464.157C151.379 463.096 151.379 461.858 151.379 458.143Z" fill="white"/>
<path d="M140.191 365.117C140.191 378.913 129.057 390.233 115.096 390.233C101.134 390.233 90 379.09 90 365.117C90 351.32 101.134 340 115.096 340C129.057 340 140.191 351.32 140.191 365.117Z" fill="#2BB673"/>
<path d="M113.328 353.62C113.328 353.443 113.505 353.266 113.681 353.266H115.802C115.979 353.266 116.156 353.443 116.156 353.62L123.578 374.668C123.578 374.845 123.578 375.022 123.401 375.022H121.104C120.927 375.022 120.75 374.845 120.75 374.668L119.16 369.892H110.323L108.733 374.668C108.556 374.845 108.556 375.022 108.379 375.022H106.082C105.905 375.022 105.729 374.845 105.905 374.668L113.328 353.62ZM118.276 367.416L114.918 357.511L111.561 367.416H118.276Z" fill="white"/>
<path d="M50.1911 435.117C50.1911 448.913 39.0572 460.233 25.0956 460.233C11.1339 460.233 0 449.09 0 435.117C0 421.32 11.1339 410 25.0956 410C39.0572 410 50.1911 421.32 50.1911 435.117Z" fill="#2BB673"/>
<path d="M23.3279 423.62C23.3279 423.443 23.5046 423.266 23.6813 423.266H25.8021C25.9788 423.266 26.1555 423.443 26.1555 423.62L33.5782 444.668C33.5782 444.845 33.5781 445.022 33.4014 445.022H31.1039C30.9272 445.022 30.7505 444.845 30.7505 444.668L29.1599 439.892H20.3235L18.7329 444.668C18.5562 444.845 18.5562 445.022 18.3794 445.022H16.082C15.9052 445.022 15.7285 444.845 15.9052 444.668L23.3279 423.62ZM28.2763 437.416L24.9184 427.511L21.5606 437.416H28.2763Z" fill="white"/>
<path d="M125.191 425.117C125.191 438.913 114.057 450.233 100.096 450.233C86.1339 450.233 75 439.09 75 425.117C75 411.32 86.1339 400 100.096 400C114.057 400 125.191 411.143 125.191 425.117Z" fill="#2BB673"/>
<path d="M105.574 436.083C105.397 436.083 105.221 435.906 105.221 435.729L100.979 426.885H96.2075C96.0308 426.885 96.0308 426.886 96.0308 427.062V435.729C96.0308 435.906 95.8541 436.083 95.6773 436.083H93.5566C93.3799 436.083 93.2031 435.906 93.2031 435.729V414.681C93.2031 414.504 93.3799 414.327 93.5566 414.327H101.333C105.397 414.327 108.048 416.803 108.048 420.518C108.048 423.525 106.458 425.647 103.807 426.355L108.402 435.553C108.579 435.729 108.402 435.906 108.225 435.906H105.574V436.083ZM105.044 420.695C105.044 418.395 103.63 417.157 100.979 417.157H95.8541C95.6773 417.157 95.6773 417.157 95.6773 417.334V424.232C95.6773 424.409 95.6773 424.409 95.8541 424.409H100.979C103.63 424.232 105.044 422.994 105.044 420.695Z" fill="white"/>
<path d="M79.1911 377.117C79.1911 390.913 68.0571 402.233 54.0955 402.233C40.3107 402.233 29 391.09 29 377.117C29 363.32 40.1339 352 54.0955 352C67.8804 352 79.1911 363.32 79.1911 377.117Z" fill="#2BB673"/>
<path d="M49.6767 365.62C49.6767 365.443 49.8534 365.266 50.0302 365.266H52.1509C52.3277 365.266 52.5044 365.443 52.5044 365.62V384.192C52.5044 384.369 52.5044 384.369 52.6811 384.369H62.9314C63.1081 384.369 63.2849 384.546 63.2849 384.722V386.668C63.2849 386.845 63.1081 387.022 62.9314 387.022H49.8535C49.6767 387.022 49.5 386.845 49.5 386.668V365.62H49.6767Z" fill="white"/>
<path d="M101.191 481.117C101.191 494.913 90.0571 506.234 76.0955 506.234C62.3106 506.234 51 495.09 51 481.117C51 467.32 62.1339 456 76.0955 456C89.8804 456 101.191 467.32 101.191 481.117Z" fill="#2BB673"/>
<path d="M69.0263 487.661C68.6728 486.423 68.4961 485.185 68.4961 481.47C68.4961 477.933 68.6728 476.518 69.0263 475.28C70.0866 471.919 72.7376 470.15 76.4489 470.15C80.1602 470.15 82.6344 471.919 83.8715 475.28C84.225 476.518 84.4017 477.756 84.4017 481.47C84.4017 485.008 84.225 486.423 83.8715 487.661C82.8111 491.022 80.1602 492.79 76.4489 492.79C72.7376 492.79 70.0866 491.022 69.0263 487.661ZM81.0439 486.954C81.2206 486.069 81.5741 484.831 81.5741 481.647C81.5741 478.463 81.3973 477.048 81.0439 476.341C80.337 474.218 78.9231 473.157 76.4489 473.157C73.9747 473.157 72.5609 474.218 71.8539 476.341C71.6772 477.225 71.3238 478.463 71.3238 481.647C71.3238 484.831 71.5005 486.246 71.8539 486.954C72.5609 489.076 73.9747 490.137 76.4489 490.137C78.7464 490.137 80.337 489.076 81.0439 486.954Z" fill="white"/>
<path d="M181.191 253.117C181.191 266.913 170.057 278.233 156.096 278.233C142.134 278.233 131 267.09 131 253.117C131 239.32 142.134 228 156.096 228C170.057 228 181.191 239.143 181.191 253.117Z" fill="#BAB9AE"/>
<path d="M78.1911 220.117C78.1911 233.913 67.0571 245.234 53.0955 245.234C39.3106 245.234 28 234.09 28 220.117C28 206.32 39.1339 195 53.0955 195C66.8804 195 78.1911 206.32 78.1911 220.117Z" fill="#BAB9AE"/>
<path d="M155.212 265.675C155.035 265.675 154.858 265.498 154.858 265.321V246.749C154.858 246.572 154.858 246.572 154.682 246.572H148.85C148.673 246.572 148.496 246.395 148.496 246.218V244.273C148.496 244.096 148.673 243.919 148.85 243.919H163.872C164.048 243.919 164.225 244.096 164.225 244.273V246.218C164.225 246.395 164.048 246.572 163.872 246.572H157.863C157.686 246.572 157.686 246.572 157.686 246.749V265.321C157.686 265.498 157.509 265.675 157.333 265.675H155.212Z" fill="white"/>
<path d="M46.0263 226.661C45.6728 225.423 45.4961 224.185 45.4961 220.47C45.4961 216.933 45.6728 215.518 46.0263 214.28C47.0866 210.919 49.7376 209.15 53.4489 209.15C57.1602 209.15 59.6344 210.919 60.8715 214.28C61.225 215.518 61.4017 216.756 61.4017 220.47C61.4017 224.008 61.225 225.423 60.8715 226.661C59.8111 230.022 57.1602 231.79 53.4489 231.79C49.7376 231.79 47.0866 230.022 46.0263 226.661ZM58.0439 225.954C58.2206 225.069 58.5741 223.831 58.5741 220.647C58.5741 217.463 58.3973 216.048 58.0439 215.341C57.337 213.218 55.9231 212.157 53.4489 212.157C50.9747 212.157 49.5609 213.218 48.8539 215.341C48.6772 216.225 48.3238 217.463 48.3238 220.647C48.3238 223.831 48.5005 225.246 48.8539 225.954C49.5609 228.076 50.9747 229.137 53.4489 229.137C55.7464 229.137 57.337 228.076 58.0439 225.954Z" fill="white"/>
<path d="M121.191 273.117C121.191 286.913 110.057 298.233 96.0956 298.233C82.1339 298.233 71 287.09 71 273.117C71 259.32 82.1339 248 96.0956 248C110.057 248 121.191 259.32 121.191 273.117Z" fill="#BAB9AE"/>
<path d="M94.3279 261.62C94.3279 261.443 94.5046 261.266 94.6813 261.266H96.8021C96.9788 261.266 97.1555 261.443 97.1555 261.62L104.578 282.668C104.578 282.845 104.578 283.022 104.401 283.022H102.104C101.927 283.022 101.75 282.845 101.75 282.668L100.16 277.892H91.3235L89.7329 282.668C89.5562 282.845 89.5562 283.022 89.3794 283.022H87.082C86.9052 283.022 86.7285 282.845 86.9052 282.668L94.3279 261.62ZM99.2763 275.416L95.9184 265.511L92.5606 275.416H99.2763Z" fill="white"/>
<path d="M143.191 204.117C143.191 217.913 132.057 229.234 118.095 229.234C104.134 229.234 93 218.09 93 204.117C93 190.32 104.134 179 118.095 179C132.057 179 143.191 190.32 143.191 204.117Z" fill="#BAB9AE"/>
<path d="M111.299 215C111.118 215 111 214.871 111 214.677V193.323C111 193.129 111.118 193 111.299 193H118.536C122.455 193 125 195.589 125 199.567C125 203.546 122.456 206.134 118.536 206.134H113.841C113.723 206.134 113.663 206.198 113.663 206.329V214.677C113.663 214.869 113.542 215 113.362 215H111.299ZM122.367 199.567C122.367 197.174 120.902 195.686 118.386 195.686H113.841C113.723 195.686 113.663 195.751 113.663 195.878V203.255C113.663 203.385 113.723 203.449 113.841 203.449H118.386C120.903 203.451 122.367 201.962 122.367 199.567Z" fill="white"/>
<path d="M155.191 25.1168C155.191 38.9133 144.057 50.2336 130.095 50.2336C116.134 50.2336 105 39.0902 105 25.1168C105 11.3203 116.134 0 130.095 0C144.057 0 155.191 11.3203 155.191 25.1168Z" fill="#2BB673"/>
<path d="M120 14.3252C120 14.1312 120.134 14 120.341 14H122.557C122.827 14 122.997 14.0988 123.102 14.3252L130.016 29.1416H130.12L136.9 14.3252C137.001 14.0988 137.171 14 137.445 14H139.659C139.864 14 140 14.1312 140 14.3252V35.6784C140 35.8706 139.864 36 139.659 36H137.513C137.307 36 137.171 35.8724 137.171 35.6784V20.375H137.071L131.312 32.4747C131.174 32.7658 131.004 32.8628 130.697 32.8628H129.337C128.994 32.8628 128.824 32.7658 128.688 32.4747L122.929 20.375H122.827V35.6784C122.827 35.8706 122.691 36 122.487 36H120.341C120.134 36 120 35.8724 120 35.6784V14.3252Z" fill="white"/>
<path d="M192.191 75.1168C192.191 88.9133 181.057 100.234 167.096 100.234C153.311 100.234 142 89.0902 142 75.1168C142 61.3203 153.134 50 167.096 50C180.88 50 192.191 61.3203 192.191 75.1168Z" fill="#2BB673"/>
<path d="M160.026 81.6611C159.673 80.423 159.496 79.1848 159.496 75.4704C159.496 71.9328 159.673 70.5178 160.026 69.2796C161.087 65.919 163.738 64.1501 167.449 64.1501C171.16 64.1501 173.634 65.919 174.872 69.2796C175.225 70.5178 175.402 71.7559 175.402 75.4704C175.402 79.0079 175.225 80.423 174.872 81.6611C173.811 85.0218 171.16 86.7905 167.449 86.7905C163.738 86.7905 161.087 85.0218 160.026 81.6611ZM172.044 80.9535C172.221 80.0692 172.574 78.831 172.574 75.6472C172.574 72.4634 172.397 71.0484 172.044 70.3409C171.337 68.2183 169.923 67.1571 167.449 67.1571C164.975 67.1571 163.561 68.2183 162.854 70.3409C162.677 71.2253 162.324 72.4634 162.324 75.6472C162.324 78.831 162.5 80.246 162.854 80.9535C163.561 83.0761 164.975 84.1373 167.449 84.1373C169.746 84.1373 171.337 83.0761 172.044 80.9535Z" fill="white"/>
<path d="M128.191 89.1167C128.191 102.913 117.057 114.233 103.096 114.233C89.3107 114.233 78 103.09 78 89.1167C78 75.3202 89.1339 64 103.096 64C117.057 64 128.191 75.3202 128.191 89.1167Z" fill="#2BB673"/>
<path d="M95.6726 97.9607C95.4959 97.7838 95.4959 97.6069 95.6726 97.43L97.0864 95.8381C97.2632 95.6613 97.4399 95.6613 97.6166 95.8381C99.0304 96.8994 101.151 98.1375 103.625 98.1375C106.63 98.1375 108.397 96.7225 108.397 94.4231C108.397 92.6543 107.337 91.4162 103.802 90.8855L102.742 90.7086C98.5002 90.178 96.3795 88.0555 96.3795 84.6948C96.3795 80.8035 99.2072 78.3271 103.449 78.3271C105.923 78.3271 108.397 79.2116 109.988 80.2728C110.164 80.4497 110.164 80.6266 109.988 80.8035L108.927 82.5723C108.751 82.7492 108.574 82.7492 108.397 82.5723C106.63 81.511 105.039 80.9803 103.095 80.9803C100.444 80.9803 99.0304 82.3954 99.0304 84.5179C99.0304 86.2867 100.268 87.5248 103.625 88.0555L104.686 88.2323C108.927 88.763 111.048 90.7086 111.048 94.2462C111.048 97.9606 108.397 100.791 103.095 100.791C100.268 100.791 97.2631 99.5526 95.6726 97.9607Z" fill="white"/>
<path d="M87.191 34.1168C87.191 47.9133 76.0571 59.2336 62.0955 59.2336C48.1339 59.2336 37 48.0902 37 34.1168C37 20.3203 48.1339 9 62.0955 9C76.0571 9 87.191 20.3203 87.191 34.1168Z" fill="#2BB673"/>
<path d="M55.3789 33.1433C55.3789 29.6057 55.5556 28.3675 55.9091 27.1294C56.9694 23.7687 59.6204 22 63.155 22C66.3361 22 68.8103 23.5919 70.0474 26.4219C70.0474 26.5988 70.0474 26.7757 69.8707 26.7757L67.9267 27.6601C67.75 27.837 67.5732 27.66 67.3965 27.4832C66.5128 25.7144 65.2757 24.6532 62.9782 24.6532C60.6808 24.6532 59.2669 25.7144 58.56 27.8369C58.2065 28.7213 58.2066 29.7826 58.2066 33.1433C58.2066 36.504 58.3833 37.5652 58.56 38.4496C59.2669 40.5722 60.6808 41.6334 62.9782 41.6334C65.2757 41.6334 66.5128 40.3953 67.3965 38.8034C67.3965 38.6265 67.5732 38.6265 67.9267 38.6265L69.8707 39.5108C70.0474 39.6877 70.0474 39.6877 70.0474 39.8646C68.8103 42.6947 66.3361 44.2866 63.155 44.2866C59.6204 44.2866 56.9694 42.5179 55.9091 39.1572C55.3789 38.0959 55.3789 36.8577 55.3789 33.1433Z" fill="white"/>
<path d="M63.191 93.1167C63.191 106.913 52.0571 118.233 38.0955 118.233C24.1339 118.233 13 107.09 13 93.1167C13 79.3202 24.1339 68 38.0955 68C52.0571 68 63.191 79.3202 63.191 93.1167Z" fill="#2BB673"/>
<path d="M36.3278 81.9731C36.3278 81.7962 36.5046 81.6194 36.6813 81.6194H38.8021C38.9788 81.6194 39.1555 81.7962 39.1555 81.9731L46.5781 103.022C46.5781 103.199 46.5781 103.376 46.4014 103.376H44.1039C43.9272 103.376 43.7504 103.199 43.7504 103.022L42.1599 98.246H33.3235L31.7329 103.022C31.5562 103.199 31.5562 103.376 31.3794 103.376H29.082C28.9052 103.376 28.7285 103.199 28.9052 103.022L36.3278 81.9731ZM41.2763 95.5928L37.9184 85.6876L34.5605 95.5928H41.2763Z" fill="white"/>
<line y1="-1.5" x2="52.4976" y2="-1.5" transform="matrix(0.761939 0.647648 -0.125722 0.992065 42 19)" stroke="black" stroke-width="3"/>
<line y1="-1.5" x2="52.4976" y2="-1.5" transform="matrix(-0.761939 0.647648 0.125722 0.992065 82 19)" stroke="black" stroke-width="3"/>
<line y1="-1.5" x2="52.4976" y2="-1.5" transform="matrix(0.761939 0.647648 -0.125722 0.992065 110 9)" stroke="black" stroke-width="3"/>
<line y1="-1.5" x2="52.4976" y2="-1.5" transform="matrix(-0.761939 0.647648 0.125722 0.992065 150 9)" stroke="black" stroke-width="3"/>
<line y1="-1.5" x2="52.4976" y2="-1.5" transform="matrix(0.761939 0.647648 -0.125722 0.992065 82 72)" stroke="black" stroke-width="3"/>
<line y1="-1.5" x2="52.4976" y2="-1.5" transform="matrix(-0.761939 0.647648 0.125722 0.992065 122 72)" stroke="black" stroke-width="3"/>
<line y1="-1.5" x2="52.4976" y2="-1.5" transform="matrix(0.761939 0.647648 -0.125722 0.992065 149 59)" stroke="black" stroke-width="3"/>
<line y1="-1.5" x2="52.4976" y2="-1.5" transform="matrix(-0.761939 0.647648 0.125722 0.992065 189 59)" stroke="black" stroke-width="3"/>
<line y1="-1.5" x2="52.4976" y2="-1.5" transform="matrix(0.761939 0.647648 -0.125722 0.992065 18 78)" stroke="black" stroke-width="3"/>
<line y1="-1.5" x2="52.4976" y2="-1.5" transform="matrix(-0.761939 0.647648 0.125722 0.992065 58 78)" stroke="black" stroke-width="3"/>
</svg>
