<svg width="509" height="392" viewBox="0 0 509 392" fill="none" xmlns="http://www.w3.org/2000/svg">
<path d="M68.0565 111.763L65.7413 111.804L66.2319 139.185L68.5471 139.144L68.0565 111.763Z" fill="black"/>
<path d="M88.2341 110.912L85.9189 110.954L86.4248 139.185L88.7399 139.143L88.2341 110.912Z" fill="black"/>
<path d="M108.441 110.247L106.126 110.289L106.628 138.287L108.943 138.246L108.441 110.247Z" fill="black"/>
<path d="M128.634 109.492L126.319 109.533L126.818 137.408L129.134 137.366L128.634 109.492Z" fill="black"/>
<path d="M41.4038 117.909L39.225 117.95L39.7457 145.333L41.9246 145.291L41.4038 117.909Z" fill="black"/>
<path d="M28.9236 121.972L26.7448 122.01L27.2271 149.391L29.406 149.353L28.9236 121.972Z" fill="black"/>
<path d="M54.75 112.517L52.5726 112.556L53.0717 140.727L55.2491 140.688L54.75 112.517Z" fill="black"/>
<path d="M148.829 108.755L146.513 108.797L147.03 137.651L149.346 137.61L148.829 108.755Z" fill="black"/>
<path d="M169.02 108.735L166.705 108.776L167.195 136.157L169.51 136.116L169.02 108.735Z" fill="black"/>
<path d="M189.215 107.22L186.898 107.261L187.416 136.187L189.733 136.146L189.215 107.22Z" fill="black"/>
<path d="M209.729 107.221L207.414 107.262L207.931 136.117L210.246 136.075L209.729 107.221Z" fill="black"/>
<path d="M230.246 107.219L227.929 107.26L228.42 134.641L230.737 134.6L230.246 107.219Z" fill="black"/>
<path d="M250.761 105.705L248.445 105.747L248.935 133.127L251.252 133.086L250.761 105.705Z" fill="black"/>
<path d="M271.276 104.191L268.959 104.233L269.449 131.614L271.766 131.572L271.276 104.191Z" fill="black"/>
<path d="M291.794 104.188L289.476 104.229L289.966 131.61L292.284 131.568L291.794 104.188Z" fill="black"/>
<path d="M312.307 102.677L309.99 102.719L310.481 130.1L312.797 130.058L312.307 102.677Z" fill="black"/>
<path d="M332.822 102.677L330.505 102.718L330.996 130.099L333.313 130.058L332.822 102.677Z" fill="black"/>
<path d="M353.341 102.672L351.022 102.714L351.513 130.094L353.831 130.053L353.341 102.672Z" fill="black"/>
<path d="M373.853 102.676L371.537 102.717L372.027 130.098L374.344 130.057L373.853 102.676Z" fill="black"/>
<path d="M394.369 102.675L392.052 102.717L392.543 130.098L394.86 130.056L394.369 102.675Z" fill="black"/>
<path d="M414.888 101.153L412.572 101.194L413.069 129.433L415.386 129.392L414.888 101.153Z" fill="black"/>
<path d="M435.404 101.165L433.087 101.205L433.584 129.444L435.901 129.403L435.404 101.165Z" fill="black"/>
<path d="M455.916 102.668L453.598 102.71L454.089 130.091L456.407 130.049L455.916 102.668Z" fill="black"/>
<path d="M476.397 102.211L474.081 102.252L474.568 129.919L476.885 129.878L476.397 102.211Z" fill="black"/>
<path fill-rule="evenodd" clip-rule="evenodd" d="M495.199 131.606L492.883 131.646L494.04 102.73L496.359 102.694L495.199 131.606Z" fill="black"/>
<path d="M1.66077 131.077C1.66077 131.077 54.5093 112.084 57.9774 111.772C76.8415 110.076 143.302 107.232 173.723 107.232C209.737 107.232 240.933 105.023 289.482 104.243C335.75 103.499 430.89 100.693 447.199 101.028C462.688 101.344 496.36 102.692 496.36 102.692" stroke="black" stroke-width="2" stroke-linecap="round"/>
<path fill-rule="evenodd" clip-rule="evenodd" d="M55.8951 139.193C55.8951 139.193 253.655 133.325 292.61 131.006C349.399 127.624 495.341 129.939 495.341 129.939C495.341 129.939 502.362 179.122 500.848 224.521C499.333 269.92 501.004 378.878 501.004 378.878L55.8967 390.228C55.8967 390.228 60.1417 259.327 58.6272 225.278C57.1128 191.228 55.8951 139.193 55.8951 139.193Z" fill="#CCCBB7"/>
<path fill-rule="evenodd" clip-rule="evenodd" d="M193.699 202.433C193.864 211.54 195.495 231.715 195.495 231.715C195.495 231.715 154.132 232.46 140.346 232.708C129.324 232.906 94.7258 233.53 94.7258 233.53C94.7258 233.53 94.4911 220.431 94.3911 214.843C94.226 205.779 95.2029 174.886 95.2029 174.886C95.2029 174.886 112.63 173.84 144.789 172.318C157.19 171.729 194.436 173.102 194.436 173.102C194.436 173.102 193.602 196.885 193.699 202.433Z" fill="white"/>
<path fill-rule="evenodd" clip-rule="evenodd" d="M112.521 233.212H94.3715V168.303H109.492L112.521 233.212Z" fill="#194360"/>
<path fill-rule="evenodd" clip-rule="evenodd" d="M182.633 233.207H200.782V168.299H185.662L182.633 233.207Z" fill="#194360"/>
<path fill-rule="evenodd" clip-rule="evenodd" d="M147.589 233.127L143.084 233.211L141.987 172.324L146.491 172.253L147.589 233.127Z" fill="black"/>
<path d="M3.17668 129.21L1 129.343L2.74085 157.806L4.91753 157.673L3.17668 129.21Z" fill="black"/>
<path d="M16.2539 126.23L14.0751 126.268L14.5575 153.651L16.7363 153.612L16.2539 126.23Z" fill="black"/>
<path fill-rule="evenodd" clip-rule="evenodd" d="M193.022 200.733L193.222 205.235L95.2362 207L95.1544 202.495L193.022 200.733Z" fill="black"/>
<path fill-rule="evenodd" clip-rule="evenodd" d="M326.941 200.033C327.104 209.143 325.707 229.318 325.707 229.318C325.707 229.318 287.376 231.576 273.589 231.824C262.567 232.022 227.969 231.133 227.969 231.133C227.969 231.133 227.733 218.033 227.632 212.443C227.47 203.382 228.445 172.489 228.445 172.489C228.445 172.489 245.87 172.956 278.031 171.431C290.432 170.845 327.677 170.702 327.677 170.702C327.677 170.702 326.841 194.485 326.941 200.033Z" fill="white"/>
<path fill-rule="evenodd" clip-rule="evenodd" d="M241.618 233.212H223.468V168.303H238.589L241.618 233.212Z" fill="#194360"/>
<path fill-rule="evenodd" clip-rule="evenodd" d="M313.246 233.207H331.395V168.299H316.275L313.246 233.207Z" fill="#194360"/>
<path fill-rule="evenodd" clip-rule="evenodd" d="M280.833 230.701L276.327 230.781L275.229 171.407L279.735 171.336L280.833 230.701Z" fill="black"/>
<path fill-rule="evenodd" clip-rule="evenodd" d="M326.111 198.31L326.465 202.835L228.478 204.6L228.396 200.098L326.111 198.31Z" fill="black"/>
<path fill-rule="evenodd" clip-rule="evenodd" d="M362.655 199.383C362.818 208.49 361.922 228.713 361.922 228.713C361.922 228.713 403.282 227.965 417.069 227.714C428.09 227.516 462.686 226.889 462.686 226.889C462.686 226.889 462.45 213.793 462.345 208.2C462.183 199.138 460.089 168.302 460.089 168.302C460.089 168.302 448.789 169.141 416.594 168.78C404.183 168.644 360.854 170.098 360.854 170.098C360.854 170.098 362.555 193.836 362.655 199.383Z" fill="white"/>
<path fill-rule="evenodd" clip-rule="evenodd" d="M384.834 233.212H347.934V168.303H378.675L384.834 233.212Z" fill="#194360"/>
<path fill-rule="evenodd" clip-rule="evenodd" d="M441.962 233.207H469.489V168.299H446.557L441.962 233.207Z" fill="#194360"/>
<path fill-rule="evenodd" clip-rule="evenodd" d="M414.075 228.332L409.571 228.41L408.473 169.04L412.979 168.969L414.075 228.332Z" fill="black"/>
<path fill-rule="evenodd" clip-rule="evenodd" d="M460.868 195.914L461.222 200.435L361.721 202.2L361.637 197.698L460.868 195.914Z" fill="black"/>
<path fill-rule="evenodd" clip-rule="evenodd" d="M2.58923 157.011C2.58923 157.011 9.4043 243.855 7.88984 278.072C6.37538 312.293 8.10943 383.75 8.10943 383.75L55.8936 390.228C55.8936 390.228 63.5992 249.89 60.649 206.216C57.6989 162.544 55.8936 139.192 55.8936 139.192L2.58923 157.011Z" fill="#B6B295"/>
<path fill-rule="evenodd" clip-rule="evenodd" d="M425.556 329.007C425.82 345.116 427.704 381.577 427.704 381.577L267.515 385.703L264.4 268.803C264.4 268.803 313.043 266.108 331.631 265.56C352.828 264.937 423.535 264.109 423.535 264.109C423.535 264.109 425.316 314.377 425.556 329.007Z" fill="#194360"/>
<path fill-rule="evenodd" clip-rule="evenodd" d="M408.493 314.277L282.367 316.349L281.73 281.113L407.854 275.495L408.493 314.277Z" fill="white"/>
<path fill-rule="evenodd" clip-rule="evenodd" d="M96.1662 318.278C96.0011 309.171 94.37 288.996 94.37 288.996C94.37 288.996 135.734 288.251 149.519 288.003C160.541 287.805 195.139 287.181 195.139 287.181C195.139 287.181 195.374 300.28 195.474 305.867C195.639 314.932 194.662 345.825 194.662 345.825C194.662 345.825 177.235 346.871 145.076 348.393C132.675 348.982 95.4286 347.609 95.4286 347.609C95.4286 347.609 96.2646 323.826 96.1662 318.278Z" fill="white"/>
<path fill-rule="evenodd" clip-rule="evenodd" d="M110.7 350.197H92.5509V285.286H107.671L110.7 350.197Z" fill="#194360"/>
<path fill-rule="evenodd" clip-rule="evenodd" d="M182.327 350.197H200.477V285.286H185.355L182.327 350.197Z" fill="#194360"/>
<path d="M492.346 391.5L492.427 391.503L492.306 391.456L492.346 391.5Z" fill="#6A2403"/>
<path d="M492.092 386.724L492.1 386.705L492.092 386.724Z" fill="#6A2403"/>
<path d="M494.241 387.702L494.257 387.598C494.228 387.675 494.11 387.649 494.241 387.702Z" fill="#6A2403"/>
<path d="M498.689 391.017L498.655 391.008L498.689 391.017Z" fill="#6A2403"/>
<path d="M495.984 388.485L495.983 388.488L495.936 388.456L495.984 388.485ZM496.163 388.635L496.089 388.567L496.153 388.52L496.163 388.635ZM496.227 387.674L496.254 387.733L496.195 387.701L496.183 387.71L496.227 387.674Z" fill="#6A2403"/>
<path d="M496.092 387.751L496.076 387.745L496.079 387.786L496.109 387.764L496.092 387.751Z" fill="#6A2403"/>
<path d="M498.451 390.89L498.474 390.867L498.439 390.873L498.451 390.89Z" fill="#6A2403"/>
<path d="M499.65 390.619L499.711 390.631L499.63 390.579L499.65 390.619Z" fill="#6A2403"/>
<path d="M508.599 355.741L508.782 355.395L508.602 355.416L508.487 355.319L508.346 355.505L508.167 355.215L507.972 355.511L508.596 355.754" fill="#389789"/>
<path d="M508.403 356.412C508.544 356.232 508.488 355.956 508.677 355.81L508.403 356.412Z" fill="#389789"/>
<path d="M287.109 316.476C287.032 316.386 287.071 316.342 286.929 316.274C286.873 316.361 286.97 316.374 286.976 316.38" fill="#389789"/>
<path d="M320.356 198.878C320.247 199.036 320.1 199.25 319.917 199.076L320.391 198.772L320.418 198.934" fill="#389789"/>
<path d="M352.874 120.473C352.942 120.416 353.214 120.368 352.942 120.109C352.953 119.971 353.136 119.994 353.062 119.785C352.876 119.612 352.814 119.685 352.799 119.785L352.82 119.547C352.609 119.429 352.553 119.679 352.471 119.749L352.181 120.001C352.285 120.054 352.387 120.183 352.471 120.333C352.176 120.157 352.596 120.69 352.702 120.823C352.771 120.793 352.705 120.663 352.737 120.601L352.864 120.483" fill="#389789"/>
<path d="M351.6 121.315C351.591 121.102 351.893 121.292 352.049 121.277C352.296 121.431 352.181 121.089 351.899 120.782L352.234 120.884C352.221 120.872 352.362 121.058 352.377 121.076L352.494 121.008C352.776 121.279 352.789 121.198 352.629 120.897L352.329 120.788L352.208 120.48C351.894 120.383 351.773 120.531 351.613 120.666C351.613 120.714 351.635 120.649 351.654 120.634L351.429 120.617L351.522 120.862L351.364 120.891L351.526 121.165L351.732 121.204" fill="#389789"/>
<path d="M108.332 315.568C108.242 315.574 108.138 316.15 107.956 315.97C107.803 315.822 108.1 315.787 108.139 315.754L108.274 315.509" fill="#389789"/>
<path d="M103.679 319.283C103.72 319.572 103.478 319.49 103.357 319.64C103.263 319.752 103.26 319.9 103.016 319.791C102.966 319.643 102.934 319.519 102.987 319.445C103.031 319.389 103.142 319.362 103.233 319.445C103.161 319.286 103.17 319.076 103.373 319.339C103.443 319.274 103.638 319.156 103.767 319.339" fill="#389789"/>
<path d="M167.283 203.31C167.221 203.397 167.065 203.651 166.899 203.521C166.881 203.415 167.118 203.167 167.271 203.319" fill="#389789"/>
<path d="M165.899 202.794C165.858 202.522 165.569 202.623 165.439 202.614C165.598 203.002 165.849 202.853 165.878 202.67" fill="#389789"/>
<path d="M167.377 201.65C167.264 201.6 167.035 201.6 167.191 201.799L167.377 201.65Z" fill="#389789"/>
<path d="M168.669 110.504C168.662 110.572 168.656 110.669 168.428 110.56L168.643 110.454L168.745 110.539" fill="#389789"/>
<path d="M170.396 108.061L169.935 107.908C170.041 108.016 170.388 108.24 170.449 108.309" fill="#389789"/>
<path d="M105.628 203.828L105.483 203.604L105.527 203.701" fill="#389789"/>
<path d="M104.452 205.14L104.277 204.871L104.209 204.927L104.303 205.045C104.108 204.899 104.026 204.933 104.038 205.063L104.117 205.128L104.135 205.063C104.47 205.521 104.265 205.001 104.511 205.16" fill="#389789"/>
<path d="M103.67 204.377C103.743 204.455 103.696 204.356 103.755 204.448L103.764 204.576C103.65 204.414 103.644 204.418 103.699 204.365L103.776 204.501" fill="#389789"/>
<path d="M104.753 204.733C104.78 204.872 104.604 204.907 104.389 204.618C104.17 204.329 104.436 204.432 104.62 204.766L104.706 204.701" fill="#389789"/>
<path d="M102.289 205.578C102.269 205.627 102.231 205.794 102.074 205.658C102.032 205.568 102.13 205.428 102.283 205.581" fill="#389789"/>
<path d="M102.657 205.945C102.595 205.924 102.657 206.317 102.483 206.131C102.334 205.977 102.542 206.036 102.562 206.028L102.602 205.883" fill="#389789"/>
<path d="M101.152 204.875C101.044 204.654 100.868 204.671 100.773 204.633C100.996 204.971 101.133 204.911 101.102 204.772" fill="#389789"/>
<path d="M101.894 204.302C101.799 204.237 101.633 204.186 101.802 204.376L101.894 204.302Z" fill="#389789"/>
<path fill-rule="evenodd" clip-rule="evenodd" d="M130.18 132.28H125V11.4172L127.591 0L130.18 11.4172V132.28Z" fill="#6A2403"/>
<path fill-rule="evenodd" clip-rule="evenodd" d="M199 16.1479V61.5152H125.002V16.1479" fill="white"/>
<path d="M199 51.4639H125.002V56.4879H199V51.4639Z" fill="#389789"/>
<path d="M199 41.3386H125.002V46.3579H199V41.3386Z" fill="#389789"/>
<path d="M199 31.2922H149.084V36.3163H199V31.2922Z" fill="#389789"/>
<path d="M199 21.167H149.084V26.1911H199V21.167Z" fill="#389789"/>
<path fill-rule="evenodd" clip-rule="evenodd" d="M146.438 29.0093C146.438 33.8378 142.52 37.7509 137.688 37.7509C132.858 37.7509 128.942 33.8378 128.942 29.0093C128.942 24.1824 132.858 20.2693 137.688 20.2693C142.519 20.2693 146.438 24.1824 146.438 29.0093Z" fill="#FFE610"/>
</svg>
