<svg width="644" height="362" viewBox="0 0 644 362" fill="none" xmlns="http://www.w3.org/2000/svg">
<path fill-rule="evenodd" clip-rule="evenodd" d="M407.614 138.412C407.508 130.952 404.843 69.1405 359.124 49.7445C313.405 30.3485 274.613 76.0675 274.613 76.0675C274.613 76.0675 269.071 -9.28545 213.654 0.833548C158.237 10.9525 159.623 59.4425 159.623 59.4425C159.623 59.4425 141.421 30.0495 111.133 40.0465C77.5561 51.1295 83.426 82.0805 83.426 82.0805C83.426 82.0805 64.819 59.5085 37.26 76.0675C9.69901 92.6275 -5.24197 121.786 1.68402 153.651C8.61203 185.516 36.014 227.079 204.497 211.84C372.978 196.6 408.368 191.058 407.614 138.412Z" fill="#D4CCB4"/>
<path fill-rule="evenodd" clip-rule="evenodd" d="M569.691 284.557C569.585 277.096 566.92 215.286 521.201 195.889C475.482 176.493 436.69 222.212 436.69 222.212C436.69 222.212 431.148 136.859 375.731 146.978C320.314 157.097 321.7 205.587 321.7 205.587C321.7 205.587 303.498 176.194 273.211 186.191C239.633 197.274 245.503 228.225 245.503 228.225C245.503 228.225 226.896 205.654 199.337 222.212C171.776 238.772 156.836 267.93 163.762 299.795C170.689 331.66 198.091 373.225 366.574 357.984C535.057 342.743 570.445 337.202 569.691 284.557Z" fill="#BCB49F"/>
<path fill-rule="evenodd" clip-rule="evenodd" d="M516.434 88.6675C478.026 85.8935 466.121 131.994 466.121 131.994C466.121 131.994 448.191 76.0175 392.694 85.8935C337.197 95.7695 350.998 149.383 350.998 149.383C350.998 149.383 322.84 137.097 312.34 180.484C301.84 223.873 370.885 248.142 453.381 248.298C535.877 248.454 608.858 249.952 630.865 215.454C652.872 180.956 645.258 147.427 619.905 131.994C588.04 112.599 556.175 141.692 556.175 141.692C556.175 141.692 548.52 90.9845 516.434 88.6675Z" fill="#E7E6D0"/>
</svg>
