<svg width="946" height="473" viewBox="0 0 946 473" fill="none" xmlns="http://www.w3.org/2000/svg">
<g clip-path="url(#clip0)">
<path d="M354 176H88L102.521 117L346.739 117L354 176Z" fill="#1F5C56"/>
<path d="M273.698 78.3489H164.049V147.264H273.698V78.3489Z" fill="#5B5647"/>
<path d="M273.698 90.0947H164.049V135.672H273.698V90.0947Z" fill="#362E27"/>
<path d="M273.698 58.4033H164.049V90.0948H273.698V58.4033Z" fill="#E76901"/>
<mask id="mask0" mask-type="alpha" maskUnits="userSpaceOnUse" x="170" y="0" width="100" height="60">
<path d="M170.521 59.3996L206.283 19.5201V0H236.149C236.149 0 234.877 15.8473 236.149 19.1934C237.426 22.5411 269.205 58.6945 269.205 58.6945L170.521 59.3996Z" fill="#E76901"/>
</mask>
<g mask="url(#mask0)">
<path d="M170.521 59.3996L206.283 19.5201V0H236.149C236.149 0 234.877 15.8473 236.149 19.1934C237.426 22.5411 269.205 58.6945 269.205 58.6945L170.521 59.3996Z" fill="#E76901"/>
<path d="M202.768 51.4135C202.768 51.6464 202.54 51.8356 202.265 51.8356H183.357C183.078 51.8356 182.854 51.6464 182.854 51.4135V45.8049C182.854 45.5736 183.078 45.3828 183.357 45.3828H202.265C202.54 45.3828 202.768 45.5736 202.768 45.8049V51.4135Z" fill="#FF8000"/>
<path d="M282.412 51.4135C282.412 51.6464 282.189 51.8356 281.91 51.8356H263.002C262.724 51.8356 262.502 51.6464 262.502 51.4135V45.8049C262.502 45.5736 262.724 45.3828 263.002 45.3828H281.91C282.189 45.3828 282.412 45.5736 282.412 45.8049V51.4135Z" fill="#FF8000"/>
<path d="M222.676 51.4135C222.676 51.6464 222.453 51.8356 222.178 51.8356H203.264C202.989 51.8356 202.768 51.6464 202.768 51.4135V45.8049C202.768 45.5736 202.989 45.3828 203.264 45.3828H222.178C222.453 45.3828 222.676 45.5736 222.676 45.8049V51.4135Z" fill="#FE9625"/>
<path d="M242.59 51.4135C242.59 51.6464 242.364 51.8356 242.085 51.8356H223.178C222.9 51.8356 222.674 51.6464 222.674 51.4135V45.8049C222.674 45.5736 222.9 45.3828 223.178 45.3828H242.085C242.364 45.3828 242.59 45.5736 242.59 45.8049V51.4135Z" fill="#E76901"/>
<path d="M182.852 51.4135C182.852 51.6464 182.63 51.8356 182.352 51.8356H163.443C163.165 51.8356 162.943 51.6464 162.943 51.4135V45.8049C162.943 45.5736 163.165 45.3828 163.443 45.3828H182.352C182.63 45.3828 182.852 45.5736 182.852 45.8049V51.4135Z" fill="#E76901"/>
<path d="M262.503 51.4135C262.503 51.6464 262.278 51.8356 262 51.8356H243.089C242.816 51.8356 242.588 51.6464 242.588 51.4135V45.8049C242.588 45.5736 242.816 45.3828 243.089 45.3828H262C262.278 45.3828 262.503 45.5736 262.503 45.8049V51.4135Z" fill="#FE9625"/>
<path d="M192.81 57.8647C192.81 58.0976 192.586 58.2884 192.307 58.2884H173.396C173.12 58.2884 172.896 58.0976 172.896 57.8647V52.2561C172.896 52.0248 173.12 51.834 173.396 51.834H192.307C192.586 51.834 192.81 52.0248 192.81 52.2561V57.8647Z" fill="#E76901"/>
<path d="M212.725 57.8647C212.725 58.0976 212.497 58.2884 212.222 58.2884H193.314C193.035 58.2884 192.811 58.0976 192.811 57.8647V52.2561C192.811 52.0248 193.035 51.834 193.314 51.834H212.222C212.497 51.834 212.725 52.0248 212.725 52.2561V57.8647Z" fill="#FF8000"/>
<path d="M232.632 57.8647C232.632 58.0976 232.406 58.2884 232.131 58.2884H213.221C212.944 58.2884 212.723 58.0976 212.723 57.8647V52.2561C212.723 52.0248 212.944 51.834 213.221 51.834H232.131C232.406 51.834 232.632 52.0248 232.632 52.2561V57.8647Z" fill="#E76901"/>
<path d="M252.542 57.8647C252.542 58.0976 252.317 58.2884 252.043 58.2884H233.135C232.857 58.2884 232.631 58.0976 232.631 57.8647V52.2561C232.631 52.0248 232.857 51.834 233.135 51.834H252.043C252.317 51.834 252.542 52.0248 252.542 52.2561V57.8647Z" fill="#FF8000"/>
<path d="M272.457 57.8647C272.457 58.0976 272.231 58.2884 271.953 58.2884H253.046C252.767 58.2884 252.541 58.0976 252.541 57.8647V52.2561C252.541 52.0248 252.767 51.834 253.046 51.834H271.953C272.231 51.834 272.457 52.0248 272.457 52.2561V57.8647Z" fill="#E76901"/>
<path d="M242.592 38.5065C242.592 38.7443 242.815 38.9319 243.093 38.9319H262C262.282 38.9319 262.502 38.7443 262.502 38.5065V32.8995C262.502 32.6667 262.282 32.4758 262 32.4758H243.093C242.815 32.4758 242.592 32.6667 242.592 32.8995V38.5065Z" fill="#FF8000"/>
<path d="M222.676 38.5065C222.676 38.7443 222.905 38.9319 223.18 38.9319H242.091C242.366 38.9319 242.592 38.7443 242.592 38.5065V32.8995C242.592 32.6667 242.366 32.4758 242.091 32.4758H223.18C222.905 32.4758 222.676 32.6667 222.676 32.8995V38.5065Z" fill="#E76901"/>
<path d="M202.768 38.5065C202.768 38.7443 202.989 38.9319 203.267 38.9319H222.179C222.457 38.9319 222.677 38.7443 222.677 38.5065V32.8995C222.677 32.6667 222.457 32.4758 222.179 32.4758H203.267C202.989 32.4758 202.768 32.6667 202.768 32.8995V38.5065Z" fill="#FF8000"/>
<path d="M182.855 38.5065C182.855 38.7443 183.084 38.9319 183.358 38.9319H202.267C202.542 38.9319 202.77 38.7443 202.77 38.5065V32.8995C202.77 32.6667 202.542 32.4758 202.267 32.4758H183.358C183.084 32.4758 182.855 32.6667 182.855 32.8995V38.5065Z" fill="#FE9625"/>
<path d="M252.547 44.9623C252.547 45.1952 252.773 45.3828 253.048 45.3828H271.959C272.237 45.3828 272.46 45.1952 272.46 44.9623V39.3537C272.46 39.1192 272.237 38.9316 271.959 38.9316H253.048C252.773 38.9316 252.547 39.1192 252.547 39.3537V44.9623Z" fill="#E76901"/>
<path d="M232.633 44.9623C232.633 45.1952 232.862 45.3828 233.137 45.3828H252.048C252.323 45.3828 252.549 45.1952 252.549 44.9623V39.3537C252.549 39.1192 252.323 38.9316 252.048 38.9316H233.137C232.862 38.9316 232.633 39.1192 232.633 39.3537V44.9623Z" fill="#FF8000"/>
<path d="M212.725 44.9623C212.725 45.1952 212.946 45.3828 213.226 45.3828H232.136C232.413 45.3828 232.636 45.1952 232.636 44.9623V39.3537C232.636 39.1192 232.413 38.9316 232.136 38.9316H213.226C212.946 38.9316 212.725 39.1192 212.725 39.3537V44.9623Z" fill="#FE9625"/>
<path d="M192.812 44.9623C192.812 45.1952 193.039 45.3828 193.312 45.3828H212.221C212.502 45.3828 212.724 45.1952 212.724 44.9623V39.3537C212.724 39.1192 212.502 38.9316 212.221 38.9316H193.312C193.039 38.9316 192.812 39.1192 192.812 39.3537V44.9623Z" fill="#E76901"/>
<path d="M172.898 44.9623C172.898 45.1952 173.128 45.3828 173.401 45.3828H192.312C192.592 45.3828 192.813 45.1952 192.813 44.9623V39.3537C192.813 39.1192 192.592 38.9316 192.312 38.9316H173.401C173.128 38.9316 172.898 39.1192 172.898 39.3537V44.9623Z" fill="#FF8000"/>
<path d="M202.768 25.6042C202.768 25.8354 202.54 26.0263 202.265 26.0263H183.357C183.078 26.0263 182.854 25.8354 182.854 25.6042V19.9972C182.854 19.7659 183.078 19.5735 183.357 19.5735H202.265C202.54 19.5735 202.768 19.7659 202.768 19.9972V25.6042Z" fill="#FF8000"/>
<path d="M222.676 25.6042C222.676 25.8354 222.453 26.0263 222.178 26.0263H203.264C202.989 26.0263 202.768 25.8354 202.768 25.6042V19.9972C202.768 19.7659 202.989 19.5735 203.264 19.5735H222.178C222.453 19.5735 222.676 19.7659 222.676 19.9972V25.6042Z" fill="#FE9625"/>
<path d="M242.59 25.6042C242.59 25.8354 242.364 26.0263 242.085 26.0263H223.178C222.9 26.0263 222.674 25.8354 222.674 25.6042V19.9972C222.674 19.7659 222.9 19.5735 223.178 19.5735H242.085C242.364 19.5735 242.59 19.7659 242.59 19.9972V25.6042Z" fill="#E76901"/>
<path d="M262.503 25.6042C262.503 25.8354 262.278 26.0263 262 26.0263H243.089C242.816 26.0263 242.588 25.8354 242.588 25.6042V19.9972C242.588 19.7659 242.816 19.5735 243.089 19.5735H262C262.278 19.5735 262.503 19.7659 262.503 19.9972V25.6042Z" fill="#FE9625"/>
<path d="M192.81 32.0553C192.81 32.2915 192.586 32.4791 192.307 32.4791H173.396C173.12 32.4791 172.896 32.2915 172.896 32.0553V26.4468C172.896 26.2139 173.12 26.0247 173.396 26.0247H192.307C192.586 26.0247 192.81 26.2139 192.81 26.4468V32.0553Z" fill="#E76901"/>
<path d="M212.725 32.0553C212.725 32.2915 212.497 32.4791 212.222 32.4791H193.314C193.035 32.4791 192.811 32.2915 192.811 32.0553V26.4468C192.811 26.2139 193.035 26.0247 193.314 26.0247H212.222C212.497 26.0247 212.725 26.2139 212.725 26.4468V32.0553Z" fill="#FF8000"/>
<path d="M232.632 32.0553C232.632 32.2915 232.406 32.4791 232.131 32.4791H213.221C212.944 32.4791 212.723 32.2915 212.723 32.0553V26.4468C212.723 26.2139 212.944 26.0247 213.221 26.0247H232.131C232.406 26.0247 232.632 26.2139 232.632 26.4468V32.0553Z" fill="#E76901"/>
<path d="M252.542 32.0553C252.542 32.2915 252.317 32.4791 252.043 32.4791H233.135C232.857 32.4791 232.631 32.2915 232.631 32.0553V26.4468C232.631 26.2139 232.857 26.0247 233.135 26.0247H252.043C252.317 26.0247 252.542 26.2139 252.542 26.4468V32.0553Z" fill="#FF8000"/>
<path d="M272.457 32.0553C272.457 32.2915 272.231 32.4791 271.953 32.4791H253.046C252.767 32.4791 252.541 32.2915 252.541 32.0553V26.4468C252.541 26.2139 252.767 26.0247 253.046 26.0247H271.953C272.231 26.0247 272.457 26.2139 272.457 26.4468V32.0553Z" fill="#E76901"/>
<path d="M242.592 12.6984C242.592 12.9329 242.815 13.1237 243.093 13.1237H262C262.282 13.1237 262.502 12.9329 262.502 12.6984V7.08982C262.502 6.86018 262.282 6.66772 262 6.66772H243.093C242.815 6.66772 242.592 6.86018 242.592 7.08982V12.6984Z" fill="#FF8000"/>
<path d="M222.676 12.6984C222.676 12.9329 222.905 13.1237 223.18 13.1237H242.091C242.366 13.1237 242.592 12.9329 242.592 12.6984V7.08982C242.592 6.86018 242.366 6.66772 242.091 6.66772H223.18C222.905 6.66772 222.676 6.86018 222.676 7.08982V12.6984Z" fill="#FE9625"/>
<path d="M202.768 12.6984C202.768 12.9329 202.989 13.1237 203.267 13.1237H222.179C222.457 13.1237 222.677 12.9329 222.677 12.6984V7.08982C222.677 6.86018 222.457 6.66772 222.179 6.66772H203.267C202.989 6.66772 202.768 6.86018 202.768 7.08982V12.6984Z" fill="#E76901"/>
<path d="M182.855 12.6984C182.855 12.9329 183.084 13.1237 183.358 13.1237H202.267C202.542 13.1237 202.77 12.9329 202.77 12.6984V7.08982C202.77 6.86018 202.542 6.66772 202.267 6.66772H183.358C183.084 6.66772 182.855 6.86018 182.855 7.08982V12.6984Z" fill="#FE9625"/>
<path d="M252.547 19.1545C252.547 19.3873 252.773 19.575 253.048 19.575H271.959C272.237 19.575 272.46 19.3873 272.46 19.1545V13.541C272.46 13.313 272.237 13.1238 271.959 13.1238H253.048C252.773 13.1238 252.547 13.313 252.547 13.541V19.1545Z" fill="#E76901"/>
<path d="M232.633 19.1545C232.633 19.3873 232.862 19.575 233.137 19.575H252.048C252.323 19.575 252.549 19.3873 252.549 19.1545V13.541C252.549 13.313 252.323 13.1238 252.048 13.1238H233.137C232.862 13.1238 232.633 13.313 232.633 13.541V19.1545Z" fill="#E76901"/>
<path d="M212.725 19.1545C212.725 19.3873 212.946 19.575 213.226 19.575H232.136C232.413 19.575 232.636 19.3873 232.636 19.1545V13.541C232.636 13.313 232.413 13.1238 232.136 13.1238H213.226C212.946 13.1238 212.725 13.313 212.725 13.541V19.1545Z" fill="#FF8000"/>
<path d="M192.812 19.1545C192.812 19.3873 193.039 19.575 193.312 19.575H212.221C212.502 19.575 212.724 19.3873 212.724 19.1545V13.541C212.724 13.313 212.502 13.1238 212.221 13.1238H193.312C193.039 13.1238 192.812 13.313 192.812 13.541V19.1545Z" fill="#E76901"/>
<path d="M172.898 19.1545C172.898 19.3873 173.128 19.575 173.401 19.575H192.312C192.592 19.575 192.813 19.3873 192.813 19.1545V13.541C192.813 13.313 192.592 13.1238 192.312 13.1238H173.401C173.128 13.1238 172.898 13.313 172.898 13.541V19.1545Z" fill="#E76901"/>
<path d="M202.768 -0.203932C202.768 0.0257158 202.54 0.21655 202.265 0.21655H183.357C183.078 0.21655 182.854 0.0257158 182.854 -0.203932V-5.81414C182.854 -6.0454 183.078 -6.23462 183.357 -6.23462H202.265C202.54 -6.23462 202.768 -6.0454 202.768 -5.81414V-0.203932Z" fill="#FF8000"/>
<path d="M222.676 -0.203932C222.676 0.0257158 222.453 0.21655 222.178 0.21655H203.264C202.989 0.21655 202.768 0.0257158 202.768 -0.203932V-5.81414C202.768 -6.0454 202.989 -6.23462 203.264 -6.23462H222.178C222.453 -6.23462 222.676 -6.0454 222.676 -5.81414V-0.203932Z" fill="#FE9625"/>
<path d="M242.59 -0.203932C242.59 0.0257158 242.364 0.21655 242.085 0.21655H223.178C222.9 0.21655 222.674 0.0257158 222.674 -0.203932V-5.81414C222.674 -6.0454 222.9 -6.23462 223.178 -6.23462H242.085C242.364 -6.23462 242.59 -6.0454 242.59 -5.81414V-0.203932Z" fill="#E76901"/>
<path d="M262.503 -0.203932C262.503 0.0257158 262.278 0.21655 262 0.21655H243.089C242.816 0.21655 242.588 0.0257158 242.588 -0.203932V-5.81414C242.588 -6.0454 242.816 -6.23462 243.089 -6.23462H262C262.278 -6.23462 262.503 -6.0454 262.503 -5.81414V-0.203932Z" fill="#FE9625"/>
<path d="M192.81 6.24886C192.81 6.48174 192.586 6.66934 192.307 6.66934H173.396C173.12 6.66934 172.896 6.48174 172.896 6.24886V0.637035C172.896 0.407387 173.12 0.216553 173.396 0.216553H192.307C192.586 0.216553 192.81 0.407387 192.81 0.637035V6.24886Z" fill="#E76901"/>
<path d="M212.725 6.24886C212.725 6.48174 212.497 6.66934 212.222 6.66934H193.314C193.035 6.66934 192.811 6.48174 192.811 6.24886V0.637035C192.811 0.407387 193.035 0.216553 193.314 0.216553H212.222C212.497 0.216553 212.725 0.407387 212.725 0.637035V6.24886Z" fill="#FF8000"/>
<path d="M232.632 6.24886C232.632 6.48174 232.406 6.66934 232.131 6.66934H213.221C212.944 6.66934 212.723 6.48174 212.723 6.24886V0.637035C212.723 0.407387 212.944 0.216553 213.221 0.216553H232.131C232.406 0.216553 232.632 0.407387 232.632 0.637035V6.24886Z" fill="#E76901"/>
<path d="M252.542 6.24886C252.542 6.48174 252.317 6.66934 252.043 6.66934H233.135C232.857 6.66934 232.631 6.48174 232.631 6.24886V0.637035C232.631 0.407387 232.857 0.216553 233.135 0.216553H252.043C252.317 0.216553 252.542 0.407387 252.542 0.637035V6.24886Z" fill="#FF8000"/>
<path d="M272.457 6.24886C272.457 6.48174 272.231 6.66934 271.953 6.66934H253.046C252.767 6.66934 252.541 6.48174 252.541 6.24886V0.637035C252.541 0.407387 252.767 0.216553 253.046 0.216553H271.953C272.231 0.216553 272.457 0.407387 272.457 0.637035V6.24886Z" fill="#E76901"/>
</g>
<path d="M201.262 67.3742C201.262 67.6071 201.04 67.7979 200.765 67.7979H181.847C181.578 67.7979 181.354 67.6071 181.354 67.3742V61.7656C181.354 61.5327 181.578 61.3435 181.847 61.3435H200.765C201.04 61.3435 201.262 61.5327 201.262 61.7656V67.3742Z" fill="#FF8000"/>
<path d="M280.913 67.3742C280.913 67.6071 280.685 67.7979 280.41 67.7979H261.499C261.224 67.7979 260.998 67.6071 260.998 67.3742V61.7656C260.998 61.5327 261.224 61.3435 261.499 61.3435H280.41C280.685 61.3435 280.913 61.5327 280.913 61.7656V67.3742Z" fill="#FF8000"/>
<path d="M221.174 67.3742C221.174 67.6071 220.945 67.7979 220.67 67.7979H201.763C201.485 67.7979 201.26 67.6071 201.26 67.3742V61.7656C201.26 61.5327 201.485 61.3435 201.763 61.3435H220.67C220.945 61.3435 221.174 61.5327 221.174 61.7656V67.3742Z" fill="#FE9625"/>
<path d="M241.088 67.3742C241.088 67.6071 240.859 67.7979 240.582 67.7979H221.675C221.397 67.7979 221.174 67.6071 221.174 67.3742V61.7656C221.174 61.5327 221.397 61.3435 221.675 61.3435H240.582C240.86 61.3435 241.088 61.5327 241.088 61.7656V67.3742Z" fill="#E76901"/>
<path d="M181.35 67.3742C181.35 67.6071 181.129 67.7979 180.85 67.7979H161.939C161.66 67.7979 161.436 67.6071 161.436 67.3742V61.7656C161.436 61.5327 161.66 61.3435 161.939 61.3435H180.85C181.129 61.3435 181.35 61.5327 181.35 61.7656V67.3742Z" fill="#E76901"/>
<path d="M260.996 67.3742C260.996 67.6071 260.773 67.7979 260.494 67.7979H241.587C241.309 67.7979 241.086 67.6071 241.086 67.3742V61.7656C241.086 61.5327 241.309 61.3435 241.587 61.3435H260.494C260.773 61.3435 260.996 61.5327 260.996 61.7656V67.3742Z" fill="#FE9625"/>
<path d="M191.306 73.8255C191.306 74.0617 191.08 74.2509 190.803 74.2509H171.895C171.618 74.2509 171.396 74.0633 171.396 73.8255V68.2153C171.396 67.9873 171.618 67.7981 171.895 67.7981H190.805C191.081 67.7981 191.308 67.9873 191.308 68.2153V73.8255H191.306Z" fill="#E76901"/>
<path d="M211.221 73.8255C211.221 74.0617 210.993 74.2509 210.72 74.2509H191.81C191.53 74.2509 191.307 74.0633 191.307 73.8255V68.2153C191.307 67.9873 191.53 67.7981 191.81 67.7981H210.72C210.993 67.7981 211.221 67.9873 211.221 68.2153V73.8255Z" fill="#FF8000"/>
<path d="M182.999 90.976C182.748 90.976 182.543 90.7901 182.543 90.5556V74.6646C182.543 74.4349 182.748 74.2473 182.999 74.2473H189.1C189.354 74.2473 189.562 74.4349 189.562 74.6646V90.5556C189.562 90.7901 189.354 90.976 189.1 90.976H182.999Z" fill="#FF8000"/>
<path d="M190.02 90.976C189.766 90.976 189.562 90.7901 189.562 90.5556V74.6646C189.562 74.4349 189.766 74.2473 190.02 74.2473H196.114C196.367 74.2473 196.579 74.4349 196.579 74.6646V90.5556C196.579 90.7901 196.367 90.976 196.114 90.976H190.02Z" fill="#E76901"/>
<path d="M197.034 90.976C196.784 90.976 196.578 90.7901 196.578 90.5556V74.6646C196.578 74.4349 196.784 74.2473 197.034 74.2473H203.133C203.386 74.2473 203.591 74.4349 203.591 74.6646V90.5556C203.591 90.7901 203.386 90.976 203.133 90.976H197.034Z" fill="#FF8000"/>
<path d="M204.048 90.976C203.798 90.976 203.59 90.7901 203.59 90.5556V74.6646C203.59 74.4349 203.798 74.2473 204.048 74.2473H210.147C210.407 74.2473 210.611 74.4349 210.611 74.6646V90.5556C210.611 90.7901 210.407 90.976 210.147 90.976H204.048Z" fill="#E76901"/>
<path d="M211.065 90.976C210.813 90.976 210.609 90.7901 210.609 90.5556V74.6646C210.609 74.4349 210.813 74.2473 211.065 74.2473H217.165C217.422 74.2473 217.624 74.4349 217.624 74.6646V90.5556C217.624 90.7901 217.422 90.976 217.165 90.976H211.065Z" fill="#FE9625"/>
<path d="M175.984 90.976C175.731 90.976 175.529 90.7901 175.529 90.5556V74.6646C175.529 74.4349 175.731 74.2473 175.984 74.2473H182.083C182.337 74.2473 182.542 74.4349 182.542 74.6646V90.5556C182.542 90.7901 182.337 90.976 182.083 90.976H175.984Z" fill="#FE9625"/>
<path d="M218.083 90.976C217.834 90.976 217.625 90.7901 217.625 90.5556V74.6646C217.625 74.4349 217.834 74.2473 218.083 74.2473H224.182C224.437 74.2473 224.643 74.4349 224.643 74.6646V90.5556C224.643 90.7901 224.437 90.976 224.182 90.976H218.083Z" fill="#E76901"/>
<path d="M225.098 90.976C224.848 90.976 224.641 90.7901 224.641 90.5556V74.6646C224.641 74.4349 224.848 74.2473 225.098 74.2473H231.199C231.451 74.2473 231.66 74.4349 231.66 74.6646V90.5556C231.66 90.7901 231.451 90.976 231.199 90.976H225.098Z" fill="#FF8000"/>
<path d="M232.113 90.976C231.864 90.976 231.662 90.7901 231.662 90.5556V74.6646C231.662 74.4349 231.864 74.2473 232.113 74.2473H238.216C238.471 74.2473 238.673 74.4349 238.673 74.6646V90.5556C238.673 90.7901 238.471 90.976 238.216 90.976H232.113Z" fill="#FE9625"/>
<path d="M253.166 90.976C252.915 90.976 252.713 90.7901 252.713 90.5556V74.6646C252.713 74.4349 252.915 74.2473 253.166 74.2473H259.265C259.52 74.2473 259.723 74.4349 259.723 74.6646V90.5556C259.723 90.7901 259.52 90.976 259.265 90.976H253.166Z" fill="#FE9625"/>
<path d="M239.132 90.976C238.881 90.976 238.676 90.7901 238.676 90.5556V74.6646C238.676 74.4349 238.881 74.2473 239.132 74.2473H245.236C245.491 74.2473 245.697 74.4349 245.697 74.6646V90.5556C245.697 90.7901 245.491 90.976 245.236 90.976H239.132Z" fill="#E76901"/>
<path d="M260.18 90.976C259.931 90.976 259.721 90.7901 259.721 90.5556V74.6646C259.721 74.4349 259.931 74.2473 260.18 74.2473H266.279C266.535 74.2473 266.743 74.4349 266.743 74.6646V90.5556C266.743 90.7901 266.535 90.976 266.279 90.976H260.18Z" fill="#E76901"/>
<path d="M246.15 90.976C245.902 90.976 245.695 90.7901 245.695 90.5556V74.6646C245.695 74.4349 245.902 74.2473 246.15 74.2473H252.249C252.504 74.2473 252.713 74.4349 252.713 74.6646V90.5556C252.713 90.7901 252.504 90.976 252.249 90.976H246.15Z" fill="#FF8000"/>
<path d="M231.134 73.8255C231.134 74.0617 230.906 74.2509 230.628 74.2509H211.719C211.442 74.2509 211.221 74.0633 211.221 73.8255V68.2153C211.221 67.9873 211.442 67.7981 211.719 67.7981H230.628C230.906 67.7981 231.134 67.9873 231.134 68.2153V73.8255Z" fill="#E76901"/>
<path d="M251.039 73.8255C251.039 74.0617 250.813 74.2509 250.538 74.2509H231.631C231.353 74.2509 231.133 74.0633 231.133 73.8255V68.2153C231.133 67.9873 231.353 67.7981 231.631 67.7981H250.538C250.813 67.7981 251.039 67.9873 251.039 68.2153V73.8255Z" fill="#FF8000"/>
<path d="M270.957 73.8255C270.957 74.0617 270.731 74.2509 270.453 74.2509H251.542C251.263 74.2509 251.041 74.0633 251.041 73.8255V68.2153C251.041 67.9873 251.263 67.7981 251.542 67.7981H270.453C270.731 67.7981 270.957 67.9873 270.957 68.2153V73.8255Z" fill="#E76901"/>
<path d="M204.738 90.4556C204.738 93.3488 202.462 95.7019 199.663 95.7019C196.86 95.7019 194.584 93.3488 194.584 90.4556C194.584 87.5558 196.86 85.2092 199.663 85.2092C202.462 85.2092 204.738 87.5558 204.738 90.4556Z" fill="#869A2A"/>
<path d="M189.128 92.2651C189.479 95.5384 186.787 97.6634 183.905 97.6634C181.021 97.6634 178.921 95.4801 178.68 92.2651C178.456 89.2893 181.031 87.1287 183.905 86.8635C186.967 86.5756 188.803 89.299 189.128 92.2651Z" fill="#869A2A"/>
<path d="M195.962 117.116C195.962 117.116 199.954 124.633 201.988 126.09C203.633 127.27 204.348 126.656 204.348 126.656C204.348 126.656 209.098 125.061 208.416 126.142C207.733 127.219 204.597 127.874 204.597 127.874C204.597 127.874 210.232 128.139 209.472 128.836C208.712 129.528 204.034 129.611 204.034 129.611C204.034 129.611 209.973 131.202 208.587 131.519C206.646 131.96 201.636 131.176 200.926 130.063C200.216 128.947 194.096 122.836 192.58 121.096C191.071 119.351 195.962 117.116 195.962 117.116Z" fill="#869A2A"/>
<path d="M203.701 90.4554C203.701 92.7551 201.888 94.6247 199.664 94.6247C197.437 94.6247 195.629 92.7551 195.629 90.4554C195.629 88.146 197.437 86.283 199.664 86.283C201.886 86.283 203.701 88.146 203.701 90.4554Z" fill="white"/>
<mask id="mask1" mask-type="alpha" maskUnits="userSpaceOnUse" x="154" y="89" width="62" height="47">
<path d="M187.064 89.9621C197.294 88.4678 217.37 93.0446 215.669 102.416C214.268 110.111 205.376 111.577 205.376 111.577C205.376 111.577 203.886 120.352 192.579 121.091C186.385 130.002 176.043 135.589 166.092 135.004C156.2 134.414 150.916 124.582 157.613 112.448C163.976 100.917 175.016 98.4575 175.016 98.4575C175.016 98.4575 177.745 91.3206 187.064 89.9621Z" fill="#869A2A"/>
</mask>
<g mask="url(#mask1)">
<path d="M187.064 89.9621C197.294 88.4678 217.37 93.0446 215.669 102.416C214.268 110.111 205.376 111.577 205.376 111.577C205.376 111.577 203.886 120.352 192.579 121.091C186.385 130.002 176.043 135.589 166.092 135.004C156.2 134.414 150.916 124.582 157.613 112.448C163.976 100.917 175.016 98.4575 175.016 98.4575C175.016 98.4575 177.745 91.3206 187.064 89.9621Z" fill="#869A2A"/>
<path d="M185.124 112.411C186.334 113.244 185.693 114.594 184.464 113.795C183.211 112.997 183.898 111.567 185.124 112.411Z" fill="#6A2403"/>
<path d="M181.991 114.415C183.246 115.19 182.672 116.616 181.386 115.88C180.108 115.151 180.726 113.64 181.991 114.415Z" fill="#6A2403"/>
<path d="M178.637 111.053C179.87 111.842 179.204 113.343 177.945 112.594C176.666 111.836 177.384 110.257 178.637 111.053Z" fill="#6A2403"/>
<path d="M182.503 105.873C181.324 104.973 182.217 103.513 183.362 104.451C184.501 105.391 183.679 106.767 182.503 105.873Z" fill="#6A2403"/>
<path d="M172.169 109.49C170.883 108.738 171.662 107.024 172.937 107.82C174.165 108.596 173.433 110.233 172.169 109.49Z" fill="#6A2403"/>
<path d="M163.234 110.124L163.271 109.849C163.74 108.637 165.906 109.359 165.463 110.535C165.272 111.053 164.728 111.195 164.235 111.116C164.364 111.831 163.787 112.544 162.883 112.107C161.68 111.523 162.137 109.89 163.234 110.124Z" fill="#6A2403"/>
<path d="M172.211 104.357C170.985 103.545 171.894 101.826 173.102 102.683C174.302 103.539 173.449 105.182 172.211 104.357Z" fill="#6A2403"/>
<path d="M163.779 118.602C163.087 118.327 162.862 117.699 163.022 117.227C162.993 117.104 162.996 116.968 163.038 116.816C163.391 115.607 165.608 116.176 165.273 117.344L165.078 117.68C165.16 118.322 164.667 118.956 163.779 118.602Z" fill="#6A2403"/>
<path d="M170.03 93.0042C168.633 93.1578 167.997 90.96 169.482 90.8144C170.923 90.6996 171.414 92.8748 170.03 93.0042Z" fill="#6A2403"/>
<path d="M175.075 98.5983C176.438 98.5789 177.046 100.62 175.73 100.67C174.395 100.746 173.692 98.6581 175.075 98.5983Z" fill="#6A2403"/>
<path d="M184.471 110.949C185.849 110.784 186.554 112.898 185.181 113.053C183.794 113.239 183.072 111.138 184.471 110.949Z" fill="#6A2403"/>
<path d="M178.191 105.213C176.801 105.475 176.023 103.334 177.468 103.083C178.891 102.86 179.562 104.977 178.191 105.213Z" fill="#6A2403"/>
<path d="M169.643 103.29C168.307 103.518 167.419 101.492 168.807 101.272C170.16 101.078 170.995 103.094 169.643 103.29Z" fill="#6A2403"/>
<path d="M180.109 108.64C178.833 108.735 177.913 106.843 179.2 106.744C180.472 106.67 181.384 108.573 180.109 108.64Z" fill="#6A2403"/>
<path d="M168.022 111.496C166.713 111.814 165.647 109.929 166.969 109.6C168.271 109.298 169.33 111.197 168.022 111.496Z" fill="#6A2403"/>
<path d="M172.119 104.716C173.447 104.551 174.326 106.497 173.034 106.675C171.718 106.872 170.786 104.917 172.119 104.716Z" fill="#6A2403"/>
<path d="M169.075 107.93C167.715 108.234 166.801 106.201 168.196 105.905C169.562 105.63 170.444 107.658 169.075 107.93Z" fill="#6A2403"/>
<path d="M177.041 90.8372C178.412 90.8436 178.902 92.9946 177.528 92.9816C176.137 93.0043 175.625 90.863 177.041 90.8372Z" fill="#6A2403"/>
<path d="M157.91 96.6284C159.319 96.2904 160.124 98.4284 158.717 98.7615C157.304 99.1206 156.48 96.9939 157.91 96.6284Z" fill="#6A2403"/>
<path d="M153.32 106.568C152.993 106.332 152.809 105.939 152.993 105.438C153.519 104.076 155.73 104.742 155.206 106.062L154.966 106.445C155.555 106.95 155.718 107.92 154.824 108.242C153.687 108.659 152.773 107.328 153.32 106.568Z" fill="#6A2403"/>
<path d="M179.287 104.401C177.989 104.47 177.166 102.493 178.488 102.429C179.794 102.404 180.566 104.349 179.287 104.401Z" fill="#6A2403"/>
<path d="M175.496 113.325V113.44V113.448L175.477 113.716C175.409 113.905 175.268 114.017 175.113 114.095C175.459 114.811 174.883 115.599 173.882 115.099C173.06 114.682 172.984 113.893 173.373 113.514C173.29 113.344 173.253 113.162 173.322 112.958L173.353 112.914C173.216 112.532 173.322 112.149 173.856 112.052C174.742 111.884 175.53 112.736 175.496 113.325Z" fill="#6A2403"/>
<path d="M162.578 107.741C161.237 108.113 160.216 106.13 161.577 105.75C162.932 105.409 163.896 107.377 162.578 107.741Z" fill="#6A2403"/>
<path d="M154.031 91.9967C155.503 91.6361 156.176 93.842 154.751 94.2172C153.318 94.615 152.529 92.3832 154.031 91.9967Z" fill="#6A2403"/>
<path d="M183.51 100.245C184.793 100.351 185.386 102.383 184.107 102.269C182.802 102.187 182.194 100.172 183.51 100.245Z" fill="#6A2403"/>
<path d="M160.519 112.911C159.211 113.381 158.056 111.459 159.413 111.006C160.741 110.575 161.846 112.481 160.519 112.911Z" fill="#6A2403"/>
<path d="M181.753 111.446C182.992 111.373 184.002 113.186 182.763 113.259C181.514 113.351 180.49 111.546 181.753 111.446Z" fill="#6A2403"/>
<path d="M168.454 116.082C168.252 115.4 168.813 114.67 169.743 115.131C170.796 115.659 170.633 116.818 169.842 116.951C169.997 117.329 169.931 117.725 169.402 117.874C168.15 118.248 166.908 116.48 168.197 116.107L168.454 116.082Z" fill="#6A2403"/>
<path d="M156.819 108.47C157.281 107.152 159.473 107.8 159.022 109.08C158.585 110.349 156.356 109.783 156.819 108.47Z" fill="#6A2403"/>
<path d="M158.292 114.903C157.951 116.229 155.673 115.861 156.037 114.473C156.406 113.09 158.657 113.571 158.292 114.903Z" fill="#6A2403"/>
<path d="M162.26 121.196C161.967 122.569 159.671 122.339 159.98 120.903C160.289 119.474 162.559 119.807 162.26 121.196Z" fill="#6A2403"/>
<path d="M160.721 118.002C160.415 119.239 158.144 118.857 158.464 117.565C158.798 116.278 161.031 116.75 160.721 118.002Z" fill="#6A2403"/>
<path d="M169.862 113.05C169.458 114.14 167.286 113.495 167.686 112.342C168.111 111.197 170.272 111.937 169.862 113.05Z" fill="#6A2403"/>
<path d="M159.395 122.174C159.151 123.428 156.859 123.188 157.118 121.875C157.388 120.564 159.649 120.908 159.395 122.174Z" fill="#6A2403"/>
<path d="M158.256 128.378C157.908 129.944 155.593 129.821 155.944 128.183C156.316 126.559 158.616 126.798 158.256 128.378Z" fill="#6A2403"/>
<path d="M157.141 118.82C156.988 120.229 154.681 120.216 154.853 118.727C155.029 117.245 157.355 117.415 157.141 118.82Z" fill="#6A2403"/>
<path d="M159.073 123.357C158.947 124.895 156.651 125.05 156.764 123.413C156.929 121.812 159.25 121.827 159.073 123.357Z" fill="#6A2403"/>
<path d="M164.232 103.76C164.788 102.499 166.926 103.316 166.386 104.545C165.856 105.769 163.679 105.03 164.232 103.76Z" fill="#6A2403"/>
</g>
<path d="M187.941 92.262C188.213 94.7897 186.133 96.4312 183.909 96.4312C181.682 96.4312 180.058 94.7477 179.872 92.262C179.697 89.9623 181.688 88.2981 183.909 88.0927C186.272 87.8695 187.687 89.972 187.941 92.262Z" fill="white"/>
<path d="M185.458 92.2684C185.511 92.7455 185.113 93.0544 184.686 93.0544C184.267 93.0544 183.96 92.739 183.919 92.2684C183.892 91.8301 184.267 91.5164 184.686 91.476C185.142 91.4339 185.411 91.8318 185.458 92.2684Z" fill="black"/>
<path d="M201.272 88.8642C201.319 89.2928 200.969 89.5725 200.589 89.5725C200.217 89.5725 199.939 89.2847 199.91 88.8642C199.882 88.4793 200.217 88.1946 200.589 88.1607C200.99 88.1251 201.231 88.4777 201.272 88.8642Z" fill="black"/>
<path d="M205.379 111.578C195.924 112.5 192.582 106.919 192.582 106.919" stroke="black" stroke-width="0.346" stroke-linecap="round"/>
<path d="M196.869 120.421C195.627 118.964 189.32 120.14 182.887 123.924C173.803 129.274 160.257 130.791 163.178 133.299C166.094 135.798 167.749 135.712 172.51 134.546C177.485 133.337 182.443 132.614 189.603 127.096C193.754 123.903 194.977 122.296 196.869 120.421Z" fill="#68701F"/>
<path d="M165.183 120.636C168.143 117.753 178.441 113.655 181.831 117.481C185.219 121.309 178.007 134.585 178.007 134.585C178.007 134.585 192.442 133.555 191.705 134.585C190.972 135.62 184.55 135.52 184.55 135.52C184.55 135.52 192.426 136.332 192.29 137.226C192.15 138.125 184.25 136.822 184.25 136.822C184.25 136.822 190.676 139.743 190.086 140.482C189.497 141.216 183.815 139.094 179.33 137.976C174.847 136.856 172.11 139.131 172.259 137.226C172.411 135.321 175.99 128.283 175.99 128.283C175.99 128.283 170.212 137.299 164.428 135.048C154.916 131.341 162.671 123.096 165.183 120.636Z" fill="#9DB22D"/>
<path d="M210.85 102.677C210.85 103.047 210.546 103.356 210.166 103.356C209.789 103.356 209.479 103.049 209.479 102.677C209.479 102.3 209.789 101.994 210.166 101.994C210.546 101.994 210.85 102.298 210.85 102.677Z" fill="black"/>
<path d="M213.605 101.7C213.605 101.998 213.361 102.24 213.067 102.24C212.763 102.24 212.523 101.998 212.523 101.7C212.523 101.398 212.763 101.163 213.067 101.163C213.361 101.163 213.605 101.399 213.605 101.7Z" fill="black"/>
<path d="M191.208 117.116C191.208 117.116 193.128 128.831 194.826 130.66C196.207 132.148 197.029 131.694 197.029 131.694C197.029 131.694 202 131.074 201.117 131.994C200.231 132.919 197.029 132.931 197.029 132.931C197.029 132.931 202.495 134.315 201.614 134.852C200.732 135.379 196.126 134.517 196.126 134.517C196.126 134.517 201.635 137.268 200.205 137.299C198.225 137.344 193.469 135.58 192.997 134.344C192.524 133.102 187.365 122.354 186.231 120.349C185.102 118.334 191.208 117.116 191.208 117.116Z" fill="#869A2A"/>
<path d="M289.751 67.8545H265.766V139.671H289.751V67.8545Z" fill="#E4E3CD"/>
<path d="M260.739 150.221C260.739 150.221 260.029 142.791 260.739 140.653C261.453 138.512 262.171 137.757 265.025 137.757C267.88 137.757 291.466 137.005 293.184 137.757C294.893 138.512 296.035 139.943 296.035 142.081V149.792L260.739 150.221Z" fill="#CCCCB8"/>
<path d="M205.866 130.024C205.866 130.024 225.355 127.393 232.929 126.694C234.847 126.518 239.054 127.923 238.981 131.249C238.908 134.57 236.508 135.898 234.951 136.388C228.693 138.353 214.032 139.669 208.976 140.15C205.154 140.514 200.541 140.999 200.226 135.531C199.899 129.968 205.866 130.024 205.866 130.024Z" fill="#9B3403"/>
<path d="M200.229 135.533C200.509 137.892 201.031 139.367 203.1 139.799C205.173 140.228 206.234 137.122 206.158 135.141C206.056 132.428 205.294 130.778 203.798 130.476C201.938 130.107 199.92 132.995 200.229 135.533Z" fill="#6A2403"/>
<path d="M236.745 137.195C236.745 137.195 222.543 126.471 217.125 123.594C215.796 122.886 213.213 123.062 212.2 125.107C211.186 127.149 213.25 128.466 213.25 128.466C213.25 128.466 227.774 140.404 231.117 142.079C234.065 143.567 237.252 146 239.252 142.81C241.293 139.566 236.745 137.195 236.745 137.195Z" fill="#B43C0A"/>
<path d="M239.254 142.807C238.282 144.125 237.41 144.813 235.701 144.235C233.988 143.663 234.177 141.35 234.873 140.179C235.828 138.575 236.94 137.883 238.17 138.306C239.7 138.827 240.304 141.392 239.254 142.807Z" fill="#6A2403"/>
<path d="M175.849 67.8545H151.863V139.671H175.849V67.8545Z" fill="#E4E3CD"/>
<path d="M146.84 150.221C146.84 150.221 146.128 142.791 146.84 140.653C147.55 138.512 148.269 137.757 151.121 137.757C153.982 137.757 177.565 137.005 179.279 137.757C180.989 138.512 182.134 139.943 182.134 142.081V149.792L146.84 150.221Z" fill="#CCCCB8"/>
<path d="M149.026 56.2265C145.96 61.3677 147.833 74.4835 149.869 74.5676C160.304 75.0059 203.071 74.5676 232.429 74.5676C261.797 74.5676 279.542 75.4038 290.436 74.5676C292.411 74.4156 292.531 55.8352 290.548 55.8157C270.394 55.6492 238.779 55.8157 210.609 55.8157C182.446 55.8157 149.785 54.9521 149.026 56.2265Z" fill="#6A2403"/>
</g>
<path d="M814.657 125.422H585.991L584 160H820L814.657 125.422Z" fill="#1F5C56"/>
<path d="M668.791 132.219L584 160V53.4357L668.791 34V132.219Z" fill="#B7B19A"/>
<path d="M820 160L668.791 132.219V34L820 47.605V160Z" fill="#CCCCB8"/>
<path d="M705.371 99.9019C705.371 103.16 702.809 105.806 699.664 105.806C696.513 105.806 693.949 103.16 693.949 99.9019C693.949 96.638 696.511 94 699.664 94C702.809 94 705.371 96.638 705.371 99.9019Z" fill="#869A2A"/>
<path d="M687.815 101.941C688.21 105.625 685.179 108.018 681.941 108.018C678.697 108.018 676.334 105.556 676.066 101.941C675.813 98.5954 678.71 96.1648 681.941 95.8646C685.387 95.5408 687.448 98.6064 687.815 101.941Z" fill="#869A2A"/>
<path d="M695.504 129.897C695.504 129.897 699.992 138.35 702.281 139.991C704.133 141.319 704.939 140.629 704.939 140.629C704.939 140.629 710.279 138.834 709.509 140.045C708.745 141.261 705.216 141.994 705.216 141.994C705.216 141.994 711.552 142.292 710.701 143.082C709.844 143.861 704.584 143.95 704.584 143.95C704.584 143.95 711.267 145.742 709.706 146.097C707.523 146.59 701.888 145.713 701.089 144.461C700.291 143.206 693.403 136.33 691.698 134.371C690.001 132.412 695.504 129.897 695.504 129.897Z" fill="#869A2A"/>
<path d="M704.203 99.9019C704.203 102.493 702.167 104.594 699.666 104.594C697.161 104.594 695.123 102.493 695.123 99.9019C695.123 97.3075 697.161 95.2117 699.666 95.2117C702.167 95.2117 704.203 97.3094 704.203 99.9019Z" fill="white"/>
<mask id="mask2" mask-type="alpha" maskUnits="userSpaceOnUse" x="649" y="99" width="69" height="52">
<path d="M685.496 99.3524C697.002 97.6714 719.587 102.818 717.669 113.361C716.096 122.018 706.095 123.668 706.095 123.668C706.095 123.668 704.419 133.54 691.698 134.369C684.73 144.397 673.099 150.679 661.907 150.019C650.776 149.362 644.836 138.297 652.366 124.648C659.524 111.678 671.946 108.908 671.946 108.908C671.946 108.908 675.015 100.877 685.496 99.3524Z" fill="#869A2A"/>
</mask>
<g mask="url(#mask2)">
<path d="M685.496 99.3524C697.002 97.6714 719.587 102.818 717.669 113.361C716.096 122.018 706.095 123.668 706.095 123.668C706.095 123.668 704.419 133.54 691.698 134.369C684.73 144.397 673.099 150.679 661.907 150.019C650.776 149.362 644.836 138.297 652.366 124.648C659.524 111.678 671.946 108.908 671.946 108.908C671.946 108.908 675.015 100.877 685.496 99.3524Z" fill="#869A2A"/>
<path d="M683.313 124.606C684.674 125.543 683.954 127.061 682.571 126.164C681.161 125.261 681.933 123.651 683.313 124.606Z" fill="#6A2403"/>
<path d="M679.789 126.857C681.197 127.728 680.553 129.337 679.103 128.507C677.671 127.687 678.364 125.985 679.789 126.857Z" fill="#6A2403"/>
<path d="M676.019 123.078C677.407 123.968 676.658 125.653 675.237 124.81C673.798 123.953 674.604 122.181 676.019 123.078Z" fill="#6A2403"/>
<path d="M680.361 117.251C679.038 116.238 680.044 114.595 681.327 115.648C682.611 116.705 681.683 118.254 680.361 117.251Z" fill="#6A2403"/>
<path d="M668.741 121.319C667.298 120.471 668.175 118.543 669.603 119.44C670.986 120.313 670.162 122.156 668.741 121.319Z" fill="#6A2403"/>
<path d="M658.691 122.032L658.729 121.718C659.255 120.359 661.695 121.174 661.196 122.496C660.976 123.077 660.368 123.235 659.812 123.142C659.955 123.948 659.308 124.752 658.289 124.257C656.937 123.61 657.45 121.765 658.691 122.032Z" fill="#6A2403"/>
<path d="M668.789 115.546C667.41 114.63 668.429 112.697 669.789 113.656C671.139 114.622 670.177 116.469 668.789 115.546Z" fill="#6A2403"/>
<path d="M659.303 131.569C658.524 131.26 658.27 130.552 658.45 130.026C658.419 129.884 658.419 129.731 658.472 129.56C658.866 128.196 661.357 128.84 660.98 130.157L660.764 130.534C660.853 131.252 660.302 131.966 659.303 131.569Z" fill="#6A2403"/>
<path d="M666.331 102.773C664.761 102.944 664.048 100.477 665.716 100.31C667.337 100.179 667.892 102.626 666.331 102.773Z" fill="#6A2403"/>
<path d="M672.009 109.068C673.545 109.04 674.225 111.338 672.744 111.396C671.243 111.478 670.454 109.137 672.009 109.068Z" fill="#6A2403"/>
<path d="M682.578 122.958C684.126 122.773 684.919 125.147 683.374 125.329C681.817 125.538 681.002 123.173 682.578 122.958Z" fill="#6A2403"/>
<path d="M675.511 116.507C673.946 116.801 673.075 114.391 674.692 114.107C676.299 113.858 677.052 116.239 675.511 116.507Z" fill="#6A2403"/>
<path d="M665.894 114.341C664.391 114.598 663.396 112.318 664.959 112.071C666.476 111.854 667.415 114.125 665.894 114.341Z" fill="#6A2403"/>
<path d="M677.676 120.364C676.236 120.468 675.203 118.339 676.651 118.228C678.078 118.144 679.104 120.289 677.676 120.364Z" fill="#6A2403"/>
<path d="M664.076 123.571C662.604 123.931 661.403 121.812 662.89 121.442C664.356 121.104 665.546 123.24 664.076 123.571Z" fill="#6A2403"/>
<path d="M668.684 115.948C670.176 115.763 671.169 117.95 669.714 118.152C668.233 118.375 667.185 116.174 668.684 115.948Z" fill="#6A2403"/>
<path d="M665.257 119.563C663.729 119.903 662.703 117.618 664.273 117.282C665.806 116.974 666.796 119.257 665.257 119.563Z" fill="#6A2403"/>
<path d="M674.218 100.336C675.765 100.344 676.312 102.763 674.768 102.745C673.203 102.773 672.624 100.362 674.218 100.336Z" fill="#6A2403"/>
<path d="M652.701 106.85C654.282 106.471 655.19 108.875 653.607 109.25C652.019 109.655 651.091 107.259 652.701 106.85Z" fill="#6A2403"/>
<path d="M647.538 118.029C647.169 117.764 646.965 117.325 647.169 116.76C647.758 115.229 650.249 115.975 649.659 117.462L649.39 117.891C650.05 118.457 650.24 119.552 649.23 119.916C647.951 120.382 646.923 118.886 647.538 118.029Z" fill="#6A2403"/>
<path d="M676.747 115.593C675.286 115.672 674.358 113.448 675.844 113.376C677.316 113.343 678.186 115.533 676.747 115.593Z" fill="#6A2403"/>
<path d="M672.483 125.633V125.762V125.769L672.459 126.071C672.383 126.284 672.226 126.408 672.052 126.497C672.439 127.305 671.786 128.187 670.665 127.627C669.738 127.159 669.657 126.27 670.092 125.846C669.998 125.656 669.956 125.445 670.036 125.218L670.07 125.171C669.918 124.741 670.036 124.312 670.636 124.199C671.633 124.01 672.521 124.974 672.483 125.633Z" fill="#6A2403"/>
<path d="M657.954 119.345C656.441 119.767 655.293 117.537 656.823 117.109C658.349 116.725 659.437 118.939 657.954 119.345Z" fill="#6A2403"/>
<path d="M648.336 101.641C649.994 101.233 650.747 103.715 649.146 104.137C647.536 104.583 646.648 102.074 648.336 101.641Z" fill="#6A2403"/>
<path d="M681.498 110.917C682.937 111.032 683.609 113.324 682.17 113.195C680.701 113.102 680.014 110.835 681.498 110.917Z" fill="#6A2403"/>
<path d="M655.633 125.166C654.161 125.692 652.862 123.535 654.392 123.018C655.882 122.539 657.126 124.684 655.633 125.166Z" fill="#6A2403"/>
<path d="M679.52 123.515C680.912 123.435 682.049 125.476 680.659 125.56C679.249 125.664 678.101 123.63 679.52 123.515Z" fill="#6A2403"/>
<path d="M664.558 128.736C664.336 127.963 664.962 127.144 666.01 127.665C667.196 128.256 667.012 129.56 666.125 129.713C666.297 130.135 666.223 130.585 665.628 130.75C664.22 131.171 662.821 129.182 664.271 128.76L664.558 128.736Z" fill="#6A2403"/>
<path d="M651.471 120.167C651.99 118.688 654.455 119.418 653.953 120.859C653.458 122.285 650.949 121.648 651.471 120.167Z" fill="#6A2403"/>
<path d="M653.127 127.41C652.747 128.903 650.185 128.485 650.593 126.924C651.009 125.366 653.54 125.907 653.127 127.41Z" fill="#6A2403"/>
<path d="M657.592 134.484C657.264 136.032 654.683 135.774 655.023 134.16C655.376 132.55 657.93 132.923 657.592 134.484Z" fill="#6A2403"/>
<path d="M655.862 130.896C655.518 132.288 652.962 131.86 653.322 130.403C653.697 128.953 656.209 129.486 655.862 130.896Z" fill="#6A2403"/>
<path d="M666.144 125.323C665.69 126.55 663.246 125.822 663.696 124.527C664.178 123.24 666.606 124.072 666.144 125.323Z" fill="#6A2403"/>
<path d="M654.37 135.59C654.097 136.998 651.515 136.729 651.808 135.253C652.11 133.779 654.654 134.165 654.37 135.59Z" fill="#6A2403"/>
<path d="M653.089 142.567C652.696 144.328 650.095 144.191 650.488 142.348C650.904 140.522 653.491 140.789 653.089 142.567Z" fill="#6A2403"/>
<path d="M651.834 131.811C651.663 133.401 649.067 133.385 649.258 131.713C649.456 130.041 652.073 130.233 651.834 131.811Z" fill="#6A2403"/>
<path d="M654.005 136.916C653.863 138.646 651.283 138.823 651.411 136.978C651.596 135.179 654.203 135.197 654.005 136.916Z" fill="#6A2403"/>
<path d="M659.809 114.875C660.437 113.452 662.842 114.371 662.234 115.756C661.637 117.131 659.188 116.303 659.809 114.875Z" fill="#6A2403"/>
</g>
<path d="M686.481 101.938C686.79 104.783 684.445 106.63 681.945 106.63C679.44 106.63 677.612 104.732 677.404 101.938C677.21 99.3525 679.449 97.4804 681.945 97.2439C684.603 96.9965 686.192 99.3634 686.481 101.938Z" fill="white"/>
<path d="M683.683 101.943C683.747 102.482 683.299 102.831 682.815 102.831C682.342 102.831 682 102.473 681.953 101.943C681.922 101.452 682.342 101.098 682.815 101.052C683.332 101.007 683.637 101.454 683.683 101.943Z" fill="black"/>
<path d="M701.474 98.1152C701.526 98.5974 701.133 98.9121 700.704 98.9121C700.286 98.9121 699.975 98.5865 699.944 98.1152C699.909 97.6804 700.287 97.362 700.704 97.3238C701.155 97.2838 701.428 97.6804 701.474 98.1152Z" fill="black"/>
<path d="M706.094 123.668C695.46 124.703 691.697 118.428 691.697 118.428" stroke="black" stroke-width="0.346" stroke-linecap="round"/>
<path d="M696.525 133.613C695.122 131.979 688.028 133.296 680.795 137.561C670.577 143.577 655.337 145.284 658.621 148.104C661.904 150.918 663.762 150.816 669.12 149.51C674.718 148.142 680.294 147.33 688.348 141.126C693.017 137.531 694.392 135.723 696.525 133.613Z" fill="#68701F"/>
<path d="M660.879 133.858C664.21 130.614 675.794 126.004 679.607 130.306C683.417 134.615 675.308 149.549 675.308 149.549C675.308 149.549 691.542 148.391 690.716 149.549C689.892 150.71 682.664 150.601 682.664 150.601C682.664 150.601 691.526 151.513 691.371 152.519C691.213 153.532 682.329 152.064 682.329 152.064C682.329 152.064 689.557 155.351 688.891 156.183C688.231 157.007 681.84 154.624 676.796 153.365C671.751 152.106 668.671 154.665 668.837 152.519C669.008 150.377 673.034 142.456 673.034 142.456C673.034 142.456 666.535 152.6 660.033 150.066C649.335 145.902 658.054 136.625 660.879 133.858Z" fill="#9DB22D"/>
<path d="M712.25 113.652C712.25 114.071 711.906 114.416 711.478 114.416C711.051 114.416 710.705 114.072 710.705 113.652C710.705 113.226 711.051 112.886 711.478 112.886C711.906 112.886 712.25 113.226 712.25 113.652Z" fill="black"/>
<path d="M715.346 112.555C715.346 112.89 715.075 113.163 714.744 113.163C714.4 113.163 714.127 112.89 714.127 112.555C714.127 112.217 714.398 111.949 714.744 111.949C715.073 111.949 715.346 112.217 715.346 112.555Z" fill="black"/>
<path d="M690.156 129.897C690.156 129.897 692.31 143.076 694.222 145.136C695.774 146.808 696.7 146.291 696.7 146.291C696.7 146.291 702.291 145.6 701.298 146.635C700.299 147.672 696.7 147.683 696.7 147.683C696.7 147.683 702.85 149.246 701.858 149.844C700.868 150.441 695.683 149.471 695.683 149.471C695.683 149.471 701.884 152.566 700.275 152.602C698.045 152.655 692.694 150.663 692.165 149.277C691.635 147.883 685.83 135.792 684.553 133.532C683.285 131.269 690.156 129.897 690.156 129.897Z" fill="#869A2A"/>
<path d="M2 471H434" stroke="#231F20" stroke-width="3" stroke-linecap="round" stroke-linejoin="round" stroke-dasharray="6 6"/>
<path d="M512 471H944" stroke="#231F20" stroke-width="3" stroke-linecap="round" stroke-linejoin="round" stroke-dasharray="6 6"/>
<defs>
<clipPath id="clip0">
<rect width="340" height="160" fill="white" transform="translate(48)"/>
</clipPath>
</defs>
</svg>
