<svg width="1002" height="368" viewBox="0 0 1002 368" fill="none" xmlns="http://www.w3.org/2000/svg">
<path fill-rule="evenodd" clip-rule="evenodd" d="M437.536 314.002C437.902 308.78 439.688 265.413 408.872 249.155C378.056 232.897 348.239 262.568 348.239 262.568C348.239 262.568 349.403 202.573 310.065 206.375C270.728 210.178 268.834 244.158 268.834 244.158C268.834 244.158 257.845 222.535 236.081 227.736C211.954 233.502 214.231 255.485 214.231 255.485C214.231 255.485 202.555 238.608 182.312 248.557C162.067 258.506 149.901 278.008 152.862 300.693C155.824 323.378 172.527 354.051 291.208 353.343C409.888 352.635 434.956 350.85 437.536 314.002Z" fill="#BEBAB2"/>
<path fill-rule="evenodd" clip-rule="evenodd" d="M209.228 178.691C208.454 171.63 203.739 112.916 244.806 89.216C285.874 65.5158 328.004 104.152 328.004 104.152C328.004 104.152 323.257 22.857 376.976 25.9033C430.695 28.9497 435.062 74.9272 435.062 74.9272C435.062 74.9272 448.873 45.0163 478.757 50.9013C511.885 57.4258 509.947 87.3591 509.947 87.3591C509.947 87.3591 524.941 63.8452 553.006 76.251C581.073 88.6575 598.653 114.45 595.821 145.371C592.987 176.293 571.88 218.784 410.379 224.191C248.879 229.597 214.681 228.521 209.228 178.691Z" fill="#BEBAB2"/>
<path fill-rule="evenodd" clip-rule="evenodd" d="M877.643 262.706C878.313 253.135 881.566 173.649 824.74 143.82C767.915 113.993 712.972 168.35 712.972 168.35C712.972 168.35 715.063 58.3859 642.545 65.3201C570.027 72.2543 566.567 134.534 566.567 134.534C566.567 134.534 546.288 94.8928 506.172 104.406C461.696 114.952 465.913 155.247 465.913 155.247C465.913 155.247 444.374 124.303 407.063 142.519C369.75 160.737 347.34 196.471 352.819 238.053C358.299 279.634 389.119 335.873 607.914 334.681C826.71 333.489 872.919 330.241 877.643 262.706Z" fill="#A6A39C"/>
<path fill-rule="evenodd" clip-rule="evenodd" d="M865.389 134.65C824.814 128.255 808.023 176.186 808.023 176.186C808.023 176.186 793.989 115.08 734.116 120.596C674.242 126.112 684.099 184.336 684.099 184.336C684.099 184.336 655.273 168.75 640.219 213.923C625.164 259.098 696.373 291.09 784.043 298.66C871.713 306.23 949.15 314.373 975.637 279.68C1002.12 244.988 997.041 208.667 971.478 189.988C939.35 166.513 902.87 194.576 902.87 194.576C902.87 194.576 899.285 139.993 865.389 134.65Z" fill="#D3CEC2"/>
<path fill-rule="evenodd" clip-rule="evenodd" d="M276.838 60.7057C224.972 57.6832 209.775 90.0979 209.775 90.0979C209.775 90.0979 184.537 44.919 109.854 59.2822C35.17 73.6455 54.793 145.714 54.793 145.714C54.793 145.714 16.5759 129.667 3.22385 188.396C-10.1282 247.127 83.4724 278.573 194.767 277.238C306.062 275.902 404.546 276.556 433.588 229.603C462.631 182.651 456.731 131.561 422.239 111.216C386.999 78.0001 331.445 101.494 331.445 101.494C331.445 101.494 320.168 63.2302 276.838 60.7057Z" fill="#9C9A94"/>
</svg>
