<svg width="322" height="272" viewBox="0 0 322 272" fill="none" xmlns="http://www.w3.org/2000/svg">
<path d="M246.079 63.0913L245.999 62.9067C245.701 62.7221 245.559 62.7368 245.401 62.7428L245.21 62.6157C245.134 62.6246 245.315 62.8004 245.271 62.8284L245.011 62.8255C244.971 62.8609 245.041 62.9555 244.93 62.9555L245.261 63.2184L245.435 63.2125C245.602 63.3424 245.656 63.4606 245.885 63.5123C246.067 63.5537 245.875 63.369 246.057 63.4311C245.903 63.2302 246.098 63.3306 246.101 63.2154L246.194 63.2553L246.054 63.0766" fill="#1F5C56"/>
<path d="M245.837 63.8755L245.484 63.5373L245.388 63.7219L245.252 63.5299L244.909 63.3911L244.794 63.4767L244.597 63.4369L244.506 63.3276C244.283 63.3069 244.414 63.4605 244.524 63.6215C244.634 63.781 244.549 63.7426 244.451 63.7973C244.55 63.9125 244.547 64.0336 244.464 64.0513C244.271 64.0942 244.222 63.9051 244.001 63.7914C243.553 63.5698 243.865 64.1961 244.213 64.3024C244.163 64.3142 244.117 64.4324 244.018 64.4058C243.847 64.3571 243.628 64.1636 243.438 64.1444C243.541 64.3054 243.763 64.4752 243.995 64.6229L244.01 64.6052C244.07 64.6983 243.937 64.7529 243.915 64.8076C244.106 64.9346 244.287 64.9627 244.264 64.8622C244.46 64.9922 244.354 65.0439 244.599 65.1798C244.732 65.2551 244.798 65.2433 244.865 65.2285L244.896 65.1768L244.989 65.1857C245.032 65.1562 245.156 65.2285 245.004 65.0897C244.869 64.9715 244.843 64.9952 244.76 64.9833C244.667 64.9686 244.592 65.0764 244.371 64.8932C244.305 64.8415 244.311 64.6348 244.388 64.62C244.55 64.5845 244.792 64.877 245.001 64.9139C245.107 64.9316 244.986 64.8415 245.134 64.8888C245.295 64.9435 245.295 65.0262 245.399 64.9922C245.529 64.9464 245.281 64.6805 245.077 64.7042C245.16 64.6894 245.252 64.6924 245.094 64.5683L244.721 64.3718C244.578 64.2419 244.785 64.1902 244.825 64.1532C244.888 64.0971 244.801 64.0365 245.036 64.1902C245.166 64.2714 245.326 64.4383 245.439 64.4442C245.54 64.4472 245.361 64.3231 245.537 64.3807L245.667 64.4782L245.871 64.5535C245.724 64.3748 245.529 64.3142 245.54 64.199C245.546 64.1532 245.679 64.1931 245.577 64.0838L245.326 63.9361C245.423 63.8637 245.462 63.8992 245.687 63.9509C245.786 63.9701 245.971 64.0085 245.856 63.8992" fill="#1F5C56"/>
<path d="M244.99 65.9185L244.714 65.6335L244.436 65.5182C244.419 65.4281 244.532 65.4562 244.563 65.4075C244.594 65.3469 244.485 65.2347 244.388 65.2672C244.346 65.2804 244.342 65.4193 244.182 65.2435L244.169 65.0707C243.825 64.8285 243.893 65.214 243.708 65.0471L243.555 65.0323C243.726 65.1313 243.642 65.1401 243.608 65.1593L243.538 65.18L243.63 65.3159C243.849 65.4193 243.85 65.3824 243.974 65.5375C243.878 65.4769 243.5 65.2524 243.476 65.2923L243.558 65.4163L243.497 65.4651L243.402 65.6527C243.373 65.6911 243.284 65.6852 243.385 65.7856C243.552 65.858 243.569 65.7826 243.751 65.9215L243.661 65.7679C243.661 65.7221 243.787 65.7044 243.853 65.7029L243.789 65.7974C243.778 65.7339 243.77 65.5803 243.875 65.6098L244.398 65.8949L244.326 65.7575L244.602 65.9555C244.806 66.0456 244.652 65.8698 244.649 65.8151C244.753 65.8639 245.188 66.0544 244.978 65.8639" fill="#1F5C56"/>
<path d="M243.494 67.0867L243.379 67.1414L243.392 67.2713C243.382 67.3585 243.315 67.456 243.194 67.4619C243.151 67.4191 242.86 67.2477 242.798 67.2374L242.705 67.3349C242.785 67.4072 243.25 67.6702 243.144 67.6982C243.045 67.7278 242.724 67.4708 242.6 67.3807L242.612 67.549C242.58 67.5741 242.463 67.5106 242.546 67.614C242.763 67.7411 242.97 67.8489 242.965 67.9759L242.915 68.0616L242.924 68.1605C242.891 68.2152 242.723 68.1709 242.668 68.0409L242.708 67.7957C242.454 67.6524 242.219 67.5106 242.27 67.4043L242.506 67.1104L242.615 66.8445L242.699 66.7544C242.754 66.7293 242.76 66.7352 242.89 66.7869L242.766 66.9892L242.778 67.1473L243.11 67.2979C243.109 67.1591 243.335 67.1163 243.491 67.0926" fill="#1F5C56"/>
<path d="M242.302 67.4264L242.076 67.4087L241.993 67.323C242.017 67.4116 242.147 67.5298 242.308 67.6258C242.28 67.6923 242.138 67.6686 242.169 67.7661L241.847 67.5534L242.023 67.7617C242.055 67.8562 241.974 67.8533 242.078 67.9685L242.298 67.9537C242.419 68.0586 242.512 68.1708 242.528 68.2432C242.75 68.3259 242.831 68.2742 242.863 68.1945C243.073 68.3865 243.197 68.3407 243.045 68.1856C242.702 68.0837 242.806 67.9803 242.776 67.8769C242.705 67.645 242.615 67.7056 242.277 67.4722L242.304 67.4087L242.37 67.4692" fill="#1F5C56"/>
<path d="M242.623 68.4057L241.875 67.9419L241.853 68.1915C242.013 68.2447 242.154 68.2787 242.07 68.1516C242.168 68.3023 242.382 68.4456 242.584 68.5238L242.503 68.2964" fill="#1F5C56"/>
<path d="M241.466 67.8164C241.447 67.8828 241.426 67.9803 241.218 67.843L241.451 67.7617L241.535 67.8592" fill="#1F5C56"/>
<path d="M244.227 66.0513L244.073 65.8785L243.998 65.9907L243.686 65.7825C243.807 65.8903 243.877 65.942 243.862 65.9907L243.726 66.106L243.578 65.973C243.729 66.2049 243.789 66.4501 243.509 66.4324C243.284 66.2965 243.491 66.2935 243.507 66.2566L243.491 66.1414L243.577 66.1237L243.538 66.0336L243.535 65.9272C243.258 65.8548 243.29 65.8814 243.264 66.0026L243.027 66.2537C242.993 66.3083 242.853 66.3142 242.863 66.394L242.945 66.5683L242.769 66.62L242.983 66.6495C243.004 66.6377 242.949 66.5195 243.103 66.6126L243.179 66.5033L243.361 66.4531L243.537 66.6214C243.453 66.6274 243.182 66.5697 243.425 66.7485L243.621 66.716L243.624 66.7426L243.618 66.682L243.488 66.8755L243.702 66.7278L243.739 66.8061L243.837 66.7514L243.832 66.7603L243.986 66.4191L244.213 66.1015L244.132 66.0557L244.241 66.0616L244.236 66.0351" fill="#1F5C56"/>
<path d="M243.491 65.4857L243.046 65.301C243.141 65.4133 243.463 65.6644 243.516 65.7397" fill="#1F5C56"/>
<path d="M243.679 66.7411L243.618 66.9833L243.352 66.7234L243.51 66.6982" fill="#1F5C56"/>
<path d="M242.048 68.3245L242.442 68.6702L241.939 68.3511L241.912 68.4397L241.707 68.3393L241.812 68.1694" fill="#1F5C56"/>
<path d="M241.775 68.5152C241.823 68.6939 242.174 68.9598 242.453 69.1621C242.289 69.0381 241.884 68.8638 241.702 68.7752L241.844 68.9657L241.662 68.8298L241.75 68.9775L241.62 68.8992C241.756 69.0203 241.878 69.2242 241.559 69.0026C241.608 69.1415 241.411 69.0839 241.193 68.9539C241.259 68.8091 241.439 68.7515 241.407 68.5492C241.225 68.4369 241.017 68.2789 240.945 68.1696L241.259 68.3365L241.055 68.1548C241.289 68.1917 241.586 68.4945 241.819 68.527" fill="#1F5C56"/>
<path d="M240.888 68.676L240.784 68.6273L240.949 68.8459L240.888 68.8267C240.977 68.9611 241.227 69.1487 241.405 69.2093C241.403 69.3082 241.324 69.4264 241.578 69.5874L241.575 69.5844C241.37 69.5534 241.354 69.6967 241.177 69.6997L241.212 69.4929C240.93 69.5785 240.826 69.8326 240.699 70.0349C240.59 70.2019 240.73 70.5431 240.454 70.5977L240.231 70.45C240.278 70.3348 240.494 70.1989 240.403 70.0231C240.247 70.0807 239.995 69.8444 239.831 69.6745L240.321 69.8503C239.809 69.5047 239.857 69.3717 240.382 69.6228L240.267 69.5268L240.515 69.6391L240.227 69.4486C240.403 69.4264 240.645 69.7056 240.751 69.5387C240.896 69.3112 240.437 69.385 240.298 69.1266L240.583 69.1782L240.849 69.3141C240.68 69.1723 240.459 69.0453 240.395 68.9212L240.795 69.1458L240.426 68.8577L240.631 68.7706L240.877 68.9611C240.516 68.6938 240.716 68.6938 240.649 68.5254L240.81 68.645" fill="#1F5C56"/>
<path d="M240.199 70.849C240.244 70.7795 240.482 70.6673 240.156 70.4974C240.126 70.3674 240.302 70.3438 240.172 70.171C239.949 70.0587 239.911 70.1414 239.925 70.2375C239.85 70.14 239.886 70.0838 239.877 70.0129C239.646 69.9568 239.665 70.2005 239.609 70.2862L239.411 70.5919L239.781 70.8224C239.451 70.7367 239.999 71.1178 240.141 71.2123C240.196 71.1695 240.097 71.0646 240.106 71.0026L240.191 70.8608" fill="#1F5C56"/>
<path d="M238.67 72.5223C238.779 72.4189 238.699 72.2047 238.855 72.1323L239.19 72.441C239.335 72.3982 239.36 72.2018 239.159 71.9772L238.778 72.0688L238.911 71.8532L238.75 71.8295L238.637 71.738L238.527 71.8473L238.339 71.5991L238.193 71.7778L238.778 72.0777" fill="#1F5C56"/>
<path d="M239.255 71.9418C239.182 71.7483 239.524 71.8472 239.66 71.7941C239.937 71.8724 239.73 71.5873 239.379 71.379L239.719 71.3849C239.705 71.379 239.89 71.512 239.909 71.5267L239.999 71.4337C240.339 71.6124 240.333 71.5356 240.092 71.2978L239.782 71.2756L239.578 71.0245C239.255 71.0127 239.185 71.1796 239.076 71.345C239.091 71.3879 239.091 71.3214 239.104 71.3037L238.889 71.345L239.047 71.5459L238.908 71.6124L239.141 71.8236L239.345 71.8059" fill="#1F5C56"/>
<path d="M211.925 123.079L211.91 122.915L211.598 122.991C211.753 123.109 211.81 123.075 211.897 123.022" fill="#1F5C56"/>
<path d="M211.511 123.376C211.662 123.573 211.483 123.621 211.298 123.59L211.492 123.4" fill="#1F5C56"/>
<path d="M211.699 124.58C211.62 124.493 211.656 124.456 211.517 124.384C211.471 124.459 211.563 124.478 211.569 124.484" fill="#1F5C56"/>
<path d="M211.053 124.008C210.935 123.985 210.872 124 210.897 124.15L211.078 124.24L211.071 123.986" fill="#1F5C56"/>
<path d="M210.409 124.807C210.291 124.974 210.203 125.041 210.304 125.295C210.397 125.531 210.646 125.676 210.582 125.875C211.009 126.054 210.563 126.29 210.374 126.224C210.437 126.702 209.736 126.379 209.372 126.063C209.623 125.939 209.672 125.766 209.749 125.558C209.817 125.367 209.693 125.013 209.92 124.949C210.341 125.249 210.151 124.664 210.573 124.852" fill="#1F5C56"/>
<path d="M209.405 126.381L209.2 126.211C209.29 126.364 209.275 126.459 209.105 126.426L209.096 126.282L208.909 126.437C209.217 126.618 209.641 126.44 209.29 126.264" fill="#1F5C56"/>
<path d="M209.897 127.438C209.851 127.335 209.82 127.265 209.686 127.193L209.585 127.332L209.703 127.425C209.448 127.373 209.334 127.494 209.34 127.676L209.439 127.702L209.471 127.593C209.876 127.983 209.65 127.394 209.974 127.423" fill="#1F5C56"/>
<path d="M208.904 126.983C208.994 127.035 208.937 126.935 209.011 127.014V127.196C208.872 127.048 208.863 127.06 208.943 126.942L209.036 127.072" fill="#1F5C56"/>
<path d="M210.369 126.605C210.39 126.784 210.143 126.974 209.873 126.741C209.603 126.505 209.965 126.432 210.179 126.759L210.306 126.601" fill="#1F5C56"/>
<path d="M208.886 128.058C208.725 128.309 209.109 128.818 208.489 128.766C208.603 129.054 208.737 129.465 208.177 129.28C208.321 129.519 208.139 129.609 208.263 129.828L207.984 129.692C208.015 130.016 207.644 130.016 207.322 129.617L207.025 129.747C206.947 129.562 207.13 129.501 207.102 129.335C207.074 129.187 206.848 128.956 206.774 128.792C206.92 128.741 207.124 128.763 207.327 128.893L207.307 128.745L207.192 128.658C207.223 128.555 207.325 128.497 207.47 128.497L207.672 128.688C207.652 128.555 207.712 128.419 207.824 128.364L207.504 128.104L207.678 128.014C207.138 127.735 207.631 127.497 208.087 127.878C208.235 127.818 208.448 127.818 208.445 127.663C208.753 127.795 208.616 127.556 208.783 127.521L208.717 128.02L208.886 128.054C208.979 128.163 208.886 128.058 208.886 128.058Z" fill="#1F5C56"/>
<path d="M209.452 126.957C209.474 127.135 209.434 127.135 209.377 127.251C209.328 127.345 209.406 127.466 209.219 127.469C209.052 127.472 208.993 127.426 209.071 127.314L209.185 127.28L209.25 127.15C209.446 127.271 209.38 126.983 209.418 126.92L209.511 126.963" fill="#1F5C56"/>
<path d="M206.937 129.883C206.906 129.976 206.838 130.249 206.64 130.177C206.593 130.082 206.736 129.793 206.928 129.894" fill="#1F5C56"/>
<path d="M207.389 130.122C207.306 130.143 207.349 130.676 207.135 130.543C206.953 130.434 207.226 130.355 207.256 130.321L207.322 130.079" fill="#1F5C56"/>
<path d="M206.659 130.383C206.523 130.413 206.554 130.62 206.697 130.75L206.569 131.001L206.78 131.067C207.034 131.346 206.968 131.763 206.811 131.915C206.643 132.082 206.449 131.939 206.177 131.754C206.065 131.679 206.16 131.673 206.022 131.633L205.773 131.639C205.597 131.36 205.954 131.373 206.228 131.515L205.931 131.29L205.842 131.145C205.749 130.97 205.801 130.9 205.873 130.785L206.129 130.462C206.265 130.364 206.415 130.383 206.587 130.352" fill="#1F5C56"/>
<path d="M205.485 129.772C205.364 129.533 205.127 129.702 205 129.726C205.265 130.038 205.458 129.841 205.43 129.665" fill="#1F5C56"/>
<path d="M206.526 128.336C206.402 128.318 206.189 128.376 206.396 128.521L206.526 128.336Z" fill="#1F5C56"/>
<path d="M205.638 131.853C205.774 131.838 205.801 131.971 205.774 132.047C205.737 132.134 205.622 132.05 205.678 132.185L205.869 132.391L206.034 132.668L205.774 132.629C205.644 132.562 205.674 132.462 205.563 132.414C205.333 132.311 205.396 132.654 205.231 132.645L205.538 132.911L205.779 133.268L205.485 133.225L205.21 132.983C204.932 132.825 205.141 133.104 204.867 133.05C204.662 132.807 204.773 132.883 204.869 132.759C204.981 132.611 204.836 132.547 204.61 132.419C204.684 132.361 204.962 132.219 205.129 132.298C205.126 132.194 205.25 132.05 205.021 131.928C205.102 131.813 205.191 131.853 205.341 131.81C205.471 131.773 205.491 131.657 205.668 131.856" fill="#1F5C56"/>
<path d="M205.466 133.667C205.26 133.552 205.062 133.352 204.839 133.304C204.87 133.451 204.644 133.436 204.479 133.312L204.367 133.041C204.358 132.877 204.869 132.928 204.457 132.753C204.087 132.592 203.857 132.955 204.099 133.222C204.253 133.389 204.5 133.335 204.604 133.473C204.712 133.618 204.451 133.58 204.337 133.558L204.34 133.881C204.389 134.008 204.621 134.144 204.454 134.208C204.641 134.479 204.712 134.228 204.746 134.165C205.039 134.459 205.039 134.249 205.339 134.364C205.29 134.162 205.166 134.14 205.371 134.076C205.476 134.042 205.542 134.134 205.539 134.015L205.372 133.819C205.427 133.782 205.482 133.719 205.449 133.643" fill="#1F5C56"/>
<path d="M204.083 134.321C204.204 134.572 203.956 134.546 203.884 134.705C203.829 134.824 203.872 134.959 203.618 134.914C203.525 134.79 203.46 134.686 203.488 134.608C203.508 134.547 203.604 134.504 203.712 134.559C203.603 134.429 203.551 134.242 203.811 134.435C203.858 134.36 204.006 134.219 204.178 134.357" fill="#1F5C56"/>
<path d="M204.677 134.629C204.553 134.589 204.42 134.611 204.435 134.704C204.449 134.788 204.596 134.846 204.522 134.903C204.336 134.667 204.265 134.987 204.201 135.033C204.028 135.151 204.051 135.112 204.101 135.321L204.07 135.494C204.384 135.543 204.519 135.442 204.497 135.231L204.479 134.971L204.661 134.841L204.69 134.611" fill="#1F5C56"/>
<path d="M203.907 136.145C203.875 136.246 204.219 136.391 204.306 136.497C204.374 136.584 204.349 136.8 204.276 136.823C204.158 136.869 203.954 136.733 203.847 136.633C203.632 136.433 203.711 136.396 203.847 136.318L203.671 136.295L203.532 136.249L203.414 136.179L203.321 136.269C203.149 136.303 203.009 136.082 202.842 136.036C202.751 135.857 203.018 135.742 202.706 135.64L202.423 135.562C202.339 135.489 202.365 135.365 202.429 135.343C202.565 135.303 202.816 135.464 202.974 135.51L203.251 135.553C203.353 135.583 203.432 135.659 203.516 135.622L203.302 135.354C203.247 135.32 203.086 135.296 203.065 135.275C202.965 135.182 203.169 134.936 203.226 134.9C203.365 134.995 203.474 134.955 203.579 135.018C203.693 135.088 203.686 135.281 203.838 135.293C203.954 135.46 204.149 135.581 204.117 135.732C204.086 135.862 203.835 135.974 203.86 136.104" fill="#1F5C56"/>
<path d="M203.305 136.581C203.204 136.639 203.207 136.881 203.074 136.899C202.944 136.913 202.842 136.812 202.924 136.741C202.603 136.571 202.528 136.492 202.418 136.701L202.739 136.84L203.008 137.018C203.183 137.111 203.477 137.23 203.64 137.23C203.582 137.097 203.297 136.906 203.308 136.797C203.311 136.757 203.449 136.797 203.438 136.713L203.271 136.546L203.3 136.594" fill="#1F5C56"/>
<path d="M202.891 137.571L202.851 137.32C202.542 137.147 202.371 137.216 202.184 137.277C202.155 137.196 202.077 137.122 201.99 137.153C201.898 137.19 202.067 137.389 202.002 137.45C201.934 137.51 201.767 137.447 201.695 137.531C201.638 137.594 201.695 137.713 201.565 137.749L201.885 138.027L202.099 137.961C202.26 138.097 202.296 138.255 202.551 138.255C202.754 138.258 202.579 138.043 202.78 138.076C202.647 137.834 202.856 137.915 202.887 137.744L202.983 137.775L202.867 137.556" fill="#1F5C56"/>
<path d="M202.395 138.806L202.062 138.428L201.901 138.73L201.789 138.494C201.665 138.534 201.571 138.379 201.417 138.404L201.259 138.571L201.04 138.58L200.958 138.447C200.699 138.498 200.817 138.68 200.907 138.88C201 139.082 200.907 139.055 200.78 139.17C200.873 139.309 200.836 139.491 200.737 139.549C200.501 139.682 200.486 139.413 200.25 139.327C199.777 139.154 199.999 139.978 200.384 140.011C200.317 140.048 200.238 140.244 200.129 140.238C199.938 140.227 199.727 140.017 199.503 140.057C199.593 140.262 199.808 140.435 200.048 140.574L200.068 140.543C200.123 140.655 199.953 140.785 199.912 140.878C200.107 140.996 200.317 140.973 200.312 140.829C200.516 140.953 200.376 141.069 200.633 141.184C200.773 141.244 200.854 141.204 200.935 141.16L200.984 141.07L201.09 141.049C201.145 140.989 201.278 141.055 201.129 140.905C200.997 140.775 200.96 140.817 200.864 140.829C200.76 140.844 200.647 141.026 200.426 140.838C200.365 140.783 200.42 140.472 200.511 140.423C200.709 140.317 200.928 140.662 201.164 140.639C201.285 140.627 201.164 140.538 201.325 140.557C201.504 140.578 201.48 140.705 201.613 140.612C201.774 140.5 201.547 140.191 201.305 140.297C201.402 140.252 201.51 140.219 201.35 140.092C201.226 139.992 201.073 140.049 200.958 139.931C200.822 139.789 201.074 139.637 201.133 139.568C201.223 139.464 201.132 139.407 201.373 139.547C201.506 139.625 201.655 139.816 201.788 139.783C201.903 139.752 201.721 139.633 201.915 139.653L202.043 139.754L202.263 139.794C202.136 139.58 201.924 139.56 201.96 139.382C201.978 139.312 202.121 139.327 202.033 139.197L201.773 139.067C201.903 138.925 201.94 138.967 202.197 138.961C202.306 138.961 202.517 138.955 202.408 138.828" fill="#1F5C56"/>
<path d="M200.927 142.135C200.863 142.037 200.814 141.887 200.67 141.808L200.367 141.742C200.37 141.612 200.497 141.612 200.538 141.531C200.591 141.43 200.488 141.3 200.367 141.386C200.315 141.42 200.277 141.628 200.127 141.423C200.082 141.356 200.119 141.212 200.157 141.172C199.804 140.935 199.794 141.486 199.616 141.305L199.442 141.336C199.616 141.42 199.517 141.466 199.475 141.509L199.386 141.563L199.461 141.733C199.698 141.802 199.712 141.748 199.819 141.932C199.721 141.881 199.322 141.687 199.287 141.754L199.358 141.909L199.274 142.002L199.119 142.317C199.076 142.383 198.968 142.41 199.068 142.525C199.25 142.565 199.287 142.452 199.472 142.591L199.398 142.395C199.407 142.325 199.559 142.25 199.64 142.225L199.543 142.389C199.544 142.296 199.572 142.074 199.684 142.08C199.862 142.089 200.054 142.296 200.237 142.314L200.187 142.132L200.466 142.325C200.684 142.386 200.542 142.181 200.55 142.104C200.661 142.138 201.133 142.262 200.928 142.058" fill="#1F5C56"/>
<path d="M199.997 142.608L199.853 142.408L199.74 142.602C199.634 142.478 199.504 142.547 199.418 142.411C199.537 142.523 199.61 142.572 199.581 142.653L199.398 142.878L199.252 142.73C199.379 143.018 199.398 143.362 199.073 143.439C198.836 143.321 199.082 143.24 199.107 143.179L199.11 143.012L199.218 142.955L199.189 142.834L199.21 142.679C198.899 142.676 198.931 142.702 198.872 142.894L198.544 143.356C198.488 143.45 198.324 143.512 198.315 143.628L198.373 143.856L198.154 144L198.399 143.964C198.43 143.934 198.387 143.782 198.553 143.863L198.667 143.67L198.89 143.528L199.06 143.71C198.956 143.749 198.656 143.767 198.901 143.94L199.138 143.822L199.132 143.862L199.141 143.772L198.947 144.107L199.228 143.81L199.259 143.91L199.386 143.792L199.38 143.804L199.631 143.241L199.969 142.681L199.881 142.645L200.012 142.614V142.58" fill="#1F5C56"/>
<path d="M198.91 144.421L198.763 144.546L198.749 144.736C198.718 144.866 198.621 145.039 198.476 145.091C198.436 145.045 198.13 144.903 198.058 144.906C197.965 144.909 197.967 145.051 197.928 145.088C198.009 145.166 198.498 145.376 198.367 145.46C198.249 145.541 197.922 145.284 197.795 145.197L197.77 145.439C197.729 145.494 197.605 145.445 197.677 145.566C197.906 145.67 198.13 145.751 198.098 145.941L198.018 146.089L198.009 146.228C197.955 146.322 197.769 146.322 197.733 146.153C197.707 146.028 197.777 145.867 197.831 145.771C197.562 145.653 197.311 145.535 197.396 145.359L197.74 144.832L197.928 144.393L198.043 144.226C198.116 144.169 198.119 144.178 198.26 144.206L198.071 144.551L198.045 144.782L198.408 144.879C198.438 144.674 198.711 144.525 198.899 144.432" fill="#1F5C56"/>
<path d="M197.433 145.38L197.166 145.441L197.088 145.348C197.098 145.466 197.224 145.593 197.398 145.674C197.351 145.783 197.184 145.804 197.201 145.94L196.866 145.741L197.029 145.986C197.046 146.116 196.955 146.141 197.046 146.274L197.314 146.167C197.435 146.274 197.519 146.407 197.526 146.507C197.77 146.544 197.879 146.435 197.934 146.302C198.139 146.51 198.294 146.395 198.15 146.218C197.764 146.203 197.912 146.009 197.896 145.869C197.863 145.551 197.743 145.676 197.395 145.46L197.441 145.354L197.504 145.42" fill="#1F5C56"/>
<path d="M197.6 146.709L196.819 146.306L196.738 146.687C196.913 146.708 197.076 146.702 197.006 146.542C197.089 146.73 197.309 146.863 197.534 146.9C197.571 146.813 197.537 146.706 197.482 146.591" fill="#1F5C56"/>
<path d="M196.359 146.28C196.323 146.389 196.274 146.54 196.057 146.419L196.351 146.207L196.432 146.32" fill="#1F5C56"/>
<path d="M199.259 142.036C199.126 142.067 198.941 142.021 198.774 141.93C198.86 142.063 199.184 142.317 199.229 142.408" fill="#1F5C56"/>
<path d="M199.201 143.837L199.077 144.224L198.823 143.935C198.867 143.854 198.944 143.8 199.017 143.838" fill="#1F5C56"/>
<path d="M196.94 146.808L197.333 147.175L196.807 146.891L196.755 147.036L196.535 146.967L196.695 146.673" fill="#1F5C56"/>
<path d="M196.577 147.2C196.6 147.445 196.955 147.708 197.243 147.898C197.076 147.78 196.634 147.68 196.439 147.616L196.568 147.841L196.38 147.714L196.452 147.898L196.312 147.832C196.452 147.959 196.553 148.216 196.224 148.011C196.25 148.198 196.033 148.189 195.804 148.08C195.909 147.838 196.131 147.684 196.135 147.393C195.943 147.299 195.735 147.142 195.671 147.009L196.006 147.136L195.803 146.943C196.068 146.912 196.359 147.243 196.625 147.2" fill="#1F5C56"/>
<path d="M195.5 147.789L195.385 147.758L195.537 148.018L195.469 148.009C195.544 148.176 195.801 148.361 195.996 148.381C195.972 148.529 195.86 148.733 196.126 148.875H196.123C195.89 148.904 195.838 149.126 195.63 149.198L195.715 148.875C195.365 149.114 195.193 149.532 194.999 149.882C194.838 150.176 194.93 150.624 194.596 150.814L194.361 150.681C194.444 150.494 194.726 150.209 194.653 149.98C194.457 150.127 194.212 149.873 194.054 149.683L194.593 149.758C194.064 149.441 194.142 149.225 194.711 149.392L194.596 149.297L194.865 149.37L194.562 149.197C194.778 149.096 195.006 149.415 195.166 149.124C195.383 148.729 194.828 149.021 194.714 148.689L195.042 148.652L195.325 148.752C195.159 148.607 194.922 148.504 194.875 148.343L195.297 148.525L194.924 148.24L195.184 148.028L195.432 148.216C195.063 147.959 195.294 147.881 195.256 147.659L195.419 147.771" fill="#1F5C56"/>
<path d="M194.234 151.285C194.303 151.164 194.609 150.904 194.258 150.78C194.249 150.599 194.464 150.495 194.348 150.287C194.105 150.209 194.045 150.347 194.045 150.48C193.972 150.365 194.026 150.269 194.032 150.169C193.772 150.175 193.745 150.526 193.656 150.68L193.357 151.207C193.488 151.195 193.624 151.279 193.745 151.406C193.376 151.404 193.941 151.761 194.085 151.848C194.163 151.758 194.067 151.646 194.092 151.545L194.224 151.306" fill="#1F5C56"/>
<path d="M192.064 154.358C192.218 154.161 192.168 153.876 192.37 153.709L192.696 154.039C192.875 153.918 192.95 153.618 192.76 153.361L192.292 153.643L192.492 153.271L192.308 153.3L192.196 153.207L192.042 153.409L191.874 153.115L191.662 153.436C191.915 153.454 192.052 153.566 192.287 153.658" fill="#1F5C56"/>
<path d="M192.884 153.271C192.841 153.011 193.221 153.028 193.399 152.895C193.707 152.907 193.523 152.563 193.151 152.387L193.552 152.266C193.537 152.26 193.727 152.39 193.748 152.402L193.875 152.229C194.241 152.362 194.247 152.253 194.014 151.993L193.651 152.08L193.461 151.786C193.082 151.892 192.968 152.167 192.801 152.452C192.809 152.513 192.826 152.415 192.843 152.383L192.583 152.528L192.726 152.764L192.547 152.918L192.779 153.139L193.021 153.036" fill="#1F5C56"/>
<path d="M118.901 93.5173L118.87 93.3755L118.595 93.4021C118.749 93.5202 118.794 93.4966 118.87 93.4656" fill="#1F5C56"/>
<path d="M118.558 93.7227C118.715 93.9073 118.561 93.9309 118.391 93.8837L118.543 93.7404" fill="#1F5C56"/>
<path d="M118.867 94.7699C118.784 94.6886 118.812 94.6606 118.679 94.5823L118.737 94.6768" fill="#1F5C56"/>
<path d="M100.135 36.8217C100.132 36.9768 99.9012 37.0491 99.7018 36.7552C99.498 36.4642 99.8141 36.5336 99.9559 36.8822L100.086 36.7921" fill="#1F5C56"/>
<path d="M130.336 166.916L130.351 166.761L130.045 166.752C130.169 166.899 130.227 166.882 130.321 166.855" fill="#1F5C56"/>
<path d="M129.892 167.085C129.993 167.307 129.822 167.307 129.655 167.236L129.869 167.106" fill="#1F5C56"/>
<path d="M129.852 168.254C129.794 168.156 129.83 168.13 129.713 168.026C129.655 168.084 129.742 168.127 129.744 168.136" fill="#1F5C56"/>
<path d="M129.344 167.561C129.236 167.509 129.175 167.506 129.168 167.654L129.323 167.784L129.366 167.545" fill="#1F5C56"/>
<path d="M128.592 168.142C128.451 168.269 128.355 168.309 128.404 168.571C128.445 168.814 128.655 169.013 128.558 169.183C128.927 169.461 128.465 169.567 128.298 169.458C128.267 169.921 127.669 169.443 127.389 169.054C127.646 169.003 127.728 168.852 127.834 168.676C127.934 168.515 127.884 168.153 128.109 168.152C128.45 168.542 128.381 167.947 128.744 168.227" fill="#1F5C56"/>
<path d="M127.36 169.356L127.199 169.145C127.251 169.308 127.221 169.396 127.069 169.32L127.088 169.181L126.884 169.282C127.14 169.53 127.568 169.469 127.27 169.215" fill="#1F5C56"/>
<path d="M127.621 170.478C127.593 170.366 127.583 170.294 127.468 170.193L127.348 170.297L127.441 170.412C127.215 170.302 127.081 170.382 127.048 170.551L127.138 170.602L127.193 170.508C127.496 170.977 127.401 170.372 127.697 170.481" fill="#1F5C56"/>
<path d="M126.776 169.794C126.855 169.867 126.818 169.76 126.869 169.852L126.837 170.019C126.738 169.849 126.728 169.858 126.822 169.765L126.886 169.913" fill="#1F5C56"/>
<path d="M128.22 169.812C128.202 169.985 127.937 170.1 127.729 169.812C127.519 169.521 127.872 169.546 128.011 169.907L128.162 169.791" fill="#1F5C56"/>
<path d="M126.549 170.784C126.342 170.975 126.604 171.549 126.031 171.335C126.078 171.632 126.124 172.047 125.633 171.725C125.72 171.988 125.53 172.022 125.601 172.258L125.366 172.056C125.332 172.365 124.98 172.261 124.76 171.808L124.457 171.848C124.423 171.654 124.608 171.648 124.611 171.484C124.615 171.339 124.449 171.066 124.416 170.893C124.558 170.888 124.745 170.963 124.914 171.139L124.921 170.997L124.831 170.885C124.88 170.797 124.988 170.772 125.125 170.812L125.279 171.04C125.285 170.913 125.369 170.803 125.484 170.783L125.234 170.456L125.416 170.422C124.967 170.019 125.475 169.932 125.831 170.405C125.98 170.39 126.181 170.444 126.211 170.301C126.477 170.506 126.395 170.249 126.553 170.261L126.394 170.706L126.549 170.784C126.618 170.905 126.549 170.784 126.549 170.784Z" fill="#1F5C56"/>
<path d="M127.293 169.91C127.282 170.082 127.248 170.074 127.172 170.17C127.109 170.248 127.155 170.378 126.982 170.328C126.822 170.288 126.773 170.23 126.872 170.146H126.988L127.072 170.04C127.23 170.204 127.225 169.915 127.27 169.864L127.355 169.93" fill="#1F5C56"/>
<path d="M124.345 171.95C124.296 172.028 124.18 172.264 124.007 172.14C123.98 172.04 124.178 171.811 124.336 171.958" fill="#1F5C56"/>
<path d="M124.722 172.294C124.639 172.291 124.57 172.799 124.395 172.617C124.251 172.467 124.519 172.467 124.553 172.444L124.666 172.236" fill="#1F5C56"/>
<path d="M123.986 172.342C123.853 172.334 123.839 172.536 123.949 172.694L123.781 172.896L123.963 173.014C124.147 173.347 123.995 173.71 123.816 173.808C123.623 173.914 123.471 173.726 123.254 173.481C123.165 173.384 123.254 173.403 123.135 173.328L122.901 173.261C122.794 172.958 123.13 173.068 123.353 173.273L123.125 172.988L123.07 172.83C123.019 172.642 123.079 172.591 123.174 172.506L123.474 172.273C123.621 172.218 123.756 172.276 123.921 172.294" fill="#1F5C56"/>
<path d="M123.011 171.456C122.948 171.199 122.691 171.295 122.57 171.286C122.754 171.647 122.973 171.514 122.98 171.341" fill="#1F5C56"/>
<path d="M124.273 170.406C124.161 170.36 123.949 170.354 124.115 170.542L124.273 170.406Z" fill="#1F5C56"/>
<path d="M122.726 173.421C122.859 173.447 122.859 173.576 122.816 173.636C122.76 173.709 122.675 173.599 122.697 173.737L122.83 173.979L122.926 174.279L122.691 174.173L122.542 173.916C122.342 173.757 122.33 174.088 122.178 174.037L122.412 174.366L122.559 174.765C122.455 174.667 122.384 174.71 122.296 174.641L122.087 174.341C121.861 174.119 121.995 174.435 121.75 174.31C121.608 174.031 121.698 174.128 121.813 174.041C121.951 173.938 121.83 173.836 121.642 173.654C121.723 173.623 122.019 173.57 122.155 173.685C122.178 173.591 122.323 173.492 122.133 173.316C122.231 173.235 122.307 173.295 122.456 173.295C122.586 173.298 122.633 173.198 122.757 173.431" fill="#1F5C56"/>
<path d="M122.178 175.048C122.014 174.881 121.87 174.642 121.673 174.537C121.669 174.682 121.46 174.604 121.333 174.444L121.285 174.165C121.311 174.01 121.777 174.199 121.429 173.923C121.116 173.672 120.821 173.941 120.992 174.255C121.1 174.452 121.345 174.471 121.412 174.627C121.486 174.788 121.245 174.685 121.146 174.63L121.079 174.93C121.1 175.06 121.288 175.251 121.115 175.262C121.234 175.565 121.351 175.353 121.4 175.302C121.61 175.657 121.655 175.46 121.911 175.651C121.908 175.452 121.797 175.397 122.004 175.394C122.11 175.394 122.155 175.494 122.174 175.385L122.062 175.158L122.168 175.019" fill="#1F5C56"/>
<path d="M120.747 175.267C120.808 175.533 120.583 175.44 120.484 175.57C120.407 175.664 120.419 175.8 120.193 175.685C120.133 175.546 120.09 175.434 120.133 175.37C120.167 175.322 120.266 175.304 120.354 175.385C120.279 175.235 120.267 175.045 120.471 175.298C120.53 175.24 120.698 175.147 120.83 175.322" fill="#1F5C56"/>
<path d="M121.234 175.715C121.131 175.639 121.001 175.628 120.995 175.718C120.992 175.799 121.122 175.893 121.035 175.926C120.908 175.654 120.78 175.938 120.712 175.96C120.525 176.02 120.557 175.991 120.558 176.199L120.489 176.35C120.772 176.48 120.921 176.425 120.945 176.226L120.985 175.981L121.175 175.908L121.248 175.7" fill="#1F5C56"/>
<path d="M120.199 176.901C120.144 176.985 120.441 177.215 120.499 177.336C120.542 177.434 120.472 177.624 120.404 177.63C120.28 177.636 120.122 177.455 120.041 177.33C119.883 177.091 119.963 177.076 120.105 177.042L119.946 176.976L119.828 176.892L119.731 176.794L119.623 176.852C119.458 176.837 119.369 176.592 119.223 176.503C119.177 176.316 119.45 176.285 119.18 176.103L118.932 175.952C118.868 175.859 118.92 175.753 118.983 175.753C119.119 175.75 119.32 175.969 119.459 176.056L119.71 176.174C119.8 176.229 119.858 176.325 119.944 176.313L119.799 176.004L119.593 175.868C119.518 175.756 119.763 175.583 119.827 175.568C119.936 175.695 120.044 175.687 120.133 175.777C120.226 175.874 120.174 176.048 120.317 176.1C120.393 176.288 120.545 176.455 120.481 176.585C120.427 176.691 120.167 176.729 120.164 176.853" fill="#1F5C56"/>
<path d="M119.542 177.131C119.435 177.158 119.385 177.382 119.258 177.358C119.134 177.335 119.057 177.214 119.149 177.171C118.887 176.926 118.831 176.836 118.684 176.995L118.958 177.211L119.174 177.45C119.319 177.583 119.568 177.774 119.719 177.819C119.692 177.681 119.468 177.426 119.5 177.329C119.512 177.292 119.633 177.369 119.641 177.289C119.651 177.217 119.613 177.138 119.517 177.09L119.533 177.141" fill="#1F5C56"/>
<path d="M118.944 177.927L118.955 177.685C118.704 177.44 118.531 177.457 118.338 177.46C118.329 177.379 118.271 177.288 118.184 177.293C118.091 177.302 118.206 177.533 118.134 177.568C118.053 177.608 117.914 177.502 117.828 177.559C117.759 177.602 117.788 177.726 117.656 177.723L117.901 178.066H118.113C118.238 178.236 118.236 178.389 118.478 178.462C118.669 178.519 118.549 178.274 118.731 178.361C118.657 178.101 118.837 178.234 118.902 178.087L118.985 178.141L118.924 177.911" fill="#1F5C56"/>
<path d="M118.214 178.923L117.983 178.484L117.769 178.717L117.712 178.469C117.588 178.472 117.53 178.302 117.381 178.288L117.198 178.397L116.989 178.345L116.941 178.2C116.684 178.177 116.76 178.379 116.805 178.587C116.848 178.802 116.766 178.748 116.626 178.824C116.681 178.974 116.614 179.135 116.508 179.159C116.257 179.22 116.297 178.965 116.093 178.824C115.684 178.536 115.721 179.357 116.081 179.49C116.009 179.508 115.898 179.666 115.791 179.632C115.617 179.571 115.458 179.32 115.241 179.296C115.282 179.511 115.453 179.726 115.65 179.917L115.678 179.893C115.704 180.011 115.517 180.087 115.462 180.159C115.62 180.323 115.825 180.358 115.848 180.222C116.016 180.389 115.859 180.459 116.081 180.632C116.201 180.726 116.285 180.713 116.368 180.695L116.434 180.623L116.54 180.635C116.604 180.595 116.713 180.689 116.604 180.51C116.503 180.357 116.462 180.386 116.371 180.375C116.269 180.357 116.125 180.496 115.955 180.262C115.908 180.199 116.023 179.924 116.116 179.902C116.328 179.859 116.462 180.237 116.694 180.28C116.806 180.301 116.713 180.186 116.861 180.249C117.022 180.316 116.976 180.425 117.121 180.379C117.294 180.318 117.14 179.973 116.892 180.004C116.991 179.986 117.102 179.986 116.978 179.828L116.642 179.574C116.542 179.407 116.812 179.335 116.882 179.286C116.985 179.214 116.911 179.135 117.106 179.332C117.215 179.441 117.32 179.658 117.45 179.661C117.565 179.667 117.418 179.506 117.594 179.58L117.692 179.707L117.896 179.804C117.817 179.571 117.622 179.493 117.692 179.341C117.723 179.283 117.855 179.335 117.797 179.19L117.579 178.999C117.732 178.905 117.757 178.951 117.998 179.017C118.103 179.047 118.298 179.098 118.221 178.951" fill="#1F5C56"/>
<path d="M116.174 181.587C116.133 181.481 116.113 181.33 115.992 181.221L115.718 181.079C115.747 180.961 115.868 180.995 115.926 180.928C115.995 180.853 115.923 180.707 115.79 180.75C115.735 180.77 115.656 180.949 115.557 180.723C115.526 180.648 115.589 180.527 115.632 180.499C115.348 180.187 115.23 180.692 115.097 180.478L114.924 180.46C115.077 180.584 114.973 180.599 114.919 180.627L114.825 180.657L114.865 180.832C115.077 180.959 115.097 180.911 115.162 181.11C115.081 181.035 114.744 180.753 114.696 180.804L114.728 180.965L114.632 181.029L114.421 181.277C114.366 181.326 114.263 181.323 114.334 181.453C114.498 181.54 114.551 181.444 114.703 181.62L114.67 181.42C114.696 181.36 114.855 181.33 114.935 181.327L114.811 181.454C114.831 181.37 114.901 181.172 115.007 181.209C115.174 181.261 115.316 181.503 115.486 181.567L115.469 181.385L115.698 181.639C115.893 181.751 115.799 181.527 115.823 181.457C115.917 181.518 116.342 181.757 116.189 181.515" fill="#1F5C56"/>
<path d="M115.199 181.772L115.105 181.556L114.957 181.704C114.882 181.562 114.743 181.589 114.69 181.444C114.778 181.577 114.839 181.643 114.796 181.707L114.58 181.868L114.468 181.695C114.537 181.995 114.493 182.319 114.174 182.31C113.972 182.143 114.22 182.125 114.252 182.076L114.286 181.923L114.399 181.896L114.393 181.778L114.438 181.636C114.15 181.552 114.173 181.587 114.084 181.751L113.69 182.1C113.625 182.172 113.453 182.19 113.425 182.296L113.441 182.521C113.406 182.611 113.301 182.567 113.208 182.602L113.447 182.629C113.48 182.608 113.47 182.456 113.61 182.571L113.752 182.417L113.988 182.345L114.115 182.553C114.012 182.568 113.719 182.508 113.924 182.729L114.17 182.677L114.158 182.714L114.181 182.633L113.941 182.896L114.26 182.688L114.269 182.788L114.41 182.71L114.402 182.722L114.737 182.262L115.162 181.836L115.088 181.775L115.215 181.781L115.221 181.75" fill="#1F5C56"/>
<path d="M113.849 183.178L113.691 183.259L113.644 183.429C113.597 183.541 113.47 183.677 113.326 183.692C113.294 183.637 113.026 183.435 112.958 183.42C112.871 183.4 112.848 183.533 112.803 183.556C112.867 183.649 113.297 183.959 113.158 184.007C113.029 184.049 112.766 183.735 112.66 183.626L112.595 183.844C112.542 183.881 112.434 183.81 112.486 183.937C112.688 184.091 112.885 184.215 112.821 184.385L112.722 184.5L112.691 184.624C112.622 184.699 112.443 184.655 112.437 184.491C112.434 184.37 112.53 184.24 112.595 184.165C112.362 183.992 112.142 183.825 112.252 183.68L112.673 183.274L112.927 182.914L113.069 182.79C113.146 182.75 113.148 182.759 113.278 182.821L113.037 183.095L112.975 183.304L113.304 183.482C113.365 183.301 113.651 183.228 113.846 183.188" fill="#1F5C56"/>
<path d="M112.281 183.708L112.013 183.703L111.954 183.596C111.944 183.708 112.044 183.856 112.195 183.971C112.131 184.061 111.969 184.041 111.963 184.168L111.678 183.911C111.69 183.957 111.793 184.147 111.79 184.174C111.787 184.298 111.693 184.298 111.759 184.443L112.032 184.409C112.131 184.533 112.187 184.674 112.18 184.769C112.408 184.862 112.529 184.787 112.604 184.676C112.765 184.915 112.932 184.846 112.823 184.649C112.456 184.543 112.628 184.401 112.638 184.268C112.665 183.968 112.526 184.054 112.232 183.772L112.295 183.685L112.341 183.76" fill="#1F5C56"/>
<path d="M112.217 184.97L111.53 184.419L111.393 184.754C111.558 184.809 111.712 184.844 111.67 184.682C111.719 184.869 111.907 185.042 112.118 185.129L112.124 184.835" fill="#1F5C56"/>
<path d="M111.094 184.292C111.04 184.382 110.976 184.516 110.786 184.355L111.1 184.222L111.155 184.344" fill="#1F5C56"/>
<path d="M114.611 181.057C114.478 181.051 114.317 180.96 114.176 180.833C114.226 180.977 114.484 181.295 114.511 181.389" fill="#1F5C56"/>
<path d="M114.227 182.707L114.043 183.036L113.852 182.707C113.91 182.64 113.991 182.609 114.052 182.661" fill="#1F5C56"/>
<path d="M111.57 184.911L111.888 185.339L111.427 184.961L111.365 185.085L111.161 184.971L111.354 184.729" fill="#1F5C56"/>
<path d="M111.17 185.203C111.158 185.437 111.459 185.757 111.712 185.994C111.567 185.849 111.161 185.661 110.982 185.564L111.077 185.8L110.916 185.642L110.959 185.833L110.833 185.739C110.95 185.887 111.016 186.146 110.725 185.89C110.728 186.069 110.517 186.017 110.313 185.869C110.449 185.664 110.682 185.564 110.721 185.292C110.555 185.165 110.374 184.974 110.331 184.836L110.635 185.023L110.464 184.799C110.725 184.822 110.954 185.197 111.216 185.211" fill="#1F5C56"/>
<path d="M110.059 185.534L109.957 185.482L110.068 185.757L110.004 185.734C110.053 185.906 110.276 186.129 110.461 186.19C110.418 186.32 110.284 186.49 110.521 186.674V186.671C110.291 186.651 110.214 186.847 110.004 186.877L110.125 186.592C109.759 186.747 109.539 187.103 109.306 187.391C109.114 187.636 109.148 188.06 108.805 188.184L108.589 188.02C108.682 187.853 108.998 187.642 108.953 187.42C108.744 187.521 108.538 187.242 108.408 187.036L108.923 187.2C108.452 186.81 108.555 186.623 109.089 186.883L108.987 186.773L109.238 186.889L108.967 186.673C109.189 186.618 109.371 186.958 109.561 186.719C109.821 186.389 109.247 186.558 109.183 186.225L109.504 186.255L109.764 186.403C109.622 186.236 109.408 186.094 109.383 185.933L109.77 186.184L109.446 185.846L109.722 185.698L109.938 185.923C109.614 185.608 109.852 185.58 109.845 185.363L109.988 185.502" fill="#1F5C56"/>
<path d="M108.428 188.575C108.504 188.472 108.815 188.272 108.486 188.1C108.492 187.924 108.706 187.86 108.625 187.649C108.397 187.537 108.313 187.649 108.304 187.779C108.25 187.655 108.31 187.577 108.328 187.485C108.068 187.442 108.013 187.779 107.917 187.912L107.589 188.374C107.716 188.38 107.84 188.484 107.947 188.62C107.591 188.565 108.111 188.983 108.247 189.086C108.325 189.014 108.238 188.893 108.273 188.801L108.414 188.593" fill="#1F5C56"/>
<path d="M106.112 191.181C106.273 191.014 106.245 190.742 106.451 190.609L106.756 190.952C106.939 190.859 107.03 190.592 106.855 190.329L106.378 190.54L106.598 190.213L106.414 190.219L106.31 190.119L106.145 190.292L105.996 189.998L105.765 190.277L106.372 190.552" fill="#1F5C56"/>
<path d="M106.987 190.261C106.959 190.013 107.328 190.076 107.51 189.976C107.812 190.027 107.653 189.682 107.3 189.467L107.7 189.407C107.687 189.398 107.863 189.546 107.882 189.561L108.016 189.416C108.36 189.592 108.371 189.488 108.167 189.213L107.811 189.243L107.645 188.937C107.272 188.989 107.139 189.234 106.957 189.482C106.96 189.54 106.982 189.448 107.003 189.422L106.736 189.525L106.86 189.767L106.675 189.886L106.891 190.122L107.133 190.058" fill="#1F5C56"/>
<path d="M239.117 144.975C239.117 144.975 245.586 148.305 245.364 147.938C245.147 147.566 240.14 140.587 240.14 140.587L239.117 144.975Z" fill="#F989B8"/>
<path d="M240.6 138.303C240.6 138.303 248.848 138.721 248.581 138.388C248.315 138.049 241.042 133.593 241.042 133.593L240.6 138.303Z" fill="#F989B8"/>
<path d="M242.048 127.883C242.048 127.883 248.752 126.475 248.482 126.134C248.212 125.793 241.374 123.852 241.374 123.852L242.048 127.883Z" fill="#F989B8"/>
<path d="M195.93 117.65C195.93 117.65 207.244 127.98 213.761 129.793C220.283 131.609 230.304 131.209 230.304 131.209C230.304 131.209 232.354 128.7 237.444 125.84C239.475 124.701 242.289 123.37 242.289 123.37C242.289 123.37 242.453 132.184 240.924 140.16C240.385 142.984 239.115 144.975 239.115 144.975C239.115 144.975 236.215 145.439 233.357 143.207C230.63 141.083 228.49 139.185 228.49 139.185C228.49 139.185 217.51 139.648 205.915 136.013C194.314 132.372 189.466 127.595 187.757 125.828C186.051 124.069 195.93 117.65 195.93 117.65Z" fill="#894289"/>
<path d="M196.355 35.5944C195.65 34.2798 197.181 20.3984 182.342 12.6541C167.495 4.90694 146.417 0.517108 148.867 6.05462C151.321 11.5921 161.165 27.6759 169.855 33.9017C178.536 40.129 185.942 43.8025 185.942 43.8025L196.355 35.5944Z" fill="#894289"/>
<path d="M194.837 38.1512C194.837 38.1512 188.501 26.9565 181.528 23.1989C174.561 19.4427 170.669 20.1724 170.669 20.1724C170.669 20.1724 176.361 32.1115 181.409 35.3034C187.327 39.0433 194.837 38.1512 194.837 38.1512Z" fill="#F989B8"/>
<path d="M244.336 61.5759C232.453 54.969 215.247 37.064 204.173 34.9902C193.098 32.9194 171.115 39.9886 162.298 46.2233C156.69 50.1966 150.251 59.2747 149.785 70.4826C149.355 80.8575 140.875 86.7924 126.257 98.2839L144.798 110.998L174.217 120.094L207.746 127.41C208.625 122.966 209.31 119.503 209.553 118.26C210.488 113.405 297.574 104.585 313.198 96.4199C328.153 88.6047 287.407 85.5295 244.336 61.5759Z" fill="#AA61A5"/>
<path d="M196.894 119.483L159.716 109.103L146.486 91.4437L140.909 85.2681C136.925 88.6934 135.865 89.0479 129.872 93.8336C99.7077 117.92 90.1467 154.535 90.1467 154.535C90.1467 154.535 115.183 165.746 145.932 163.643C172.641 161.814 203.371 150.37 203.371 150.37C203.371 150.37 206.761 130.999 208.978 119.794L196.894 119.483Z" fill="#894289"/>
<path d="M188.871 251.107C188.871 251.107 195.051 249.416 194.77 249.667C194.492 249.93 188.49 254.585 188.49 254.585L188.871 251.107Z" fill="#F989B8"/>
<path d="M187.76 255.943C187.76 255.943 195.777 257.07 195.424 257.313C195.067 257.566 186.807 259.802 186.807 259.802L187.76 255.943Z" fill="#F989B8"/>
<path d="M186.825 261.881C186.825 261.881 193.357 263.889 193.061 264.203C192.761 264.516 185.761 265.83 185.761 265.83L186.825 261.881Z" fill="#F989B8"/>
<path d="M221.594 44.3903C219.063 48.8762 220.904 56.3797 226.252 59.2969C230.268 61.4962 237.144 59.4874 238.32 52.5053C239.222 47.1273 237.125 43.0299 233.107 40.8409C229.093 38.6504 224.121 39.906 221.594 44.3903Z" fill="white"/>
<path d="M105.852 202.105C105.852 202.105 79.7157 209.332 61.4518 206.321C40.9885 202.943 6.47397 193.905 6.47397 193.905C6.47397 193.905 27.0125 206.829 50.4432 215.108C64.4916 220.078 72.933 222.275 105.168 220.919C108.688 220.771 113.833 220.809 113.833 220.809L105.852 202.105Z" fill="#884187"/>
<path d="M54.6174 216.679C53.2969 213.416 52.7888 208.471 51.2556 203.622C56.5716 205.027 58.9688 205.341 62.2597 206.328C63.883 211.29 65.0396 217.066 66.5491 220.078C62.2361 219.115 58.3987 217.781 54.6174 216.679Z" fill="#944692"/>
<path d="M64.8668 219.857C62.9318 216.124 62.5182 210.96 60.5286 205.195C61.8329 205.604 71.0246 206.757 74.2594 206.548C76.8133 212.214 77.4189 218.619 79.7186 222.467C74.4987 221.954 69.2433 220.854 64.8668 219.857Z" fill="#AA61A5"/>
<path d="M87.2856 205.108C88.9266 211.522 92.8039 219.619 94.6074 224.345C88.7597 224.709 82.2488 223.142 77.7305 222.431C75.8295 218.095 73.6376 212.564 71.9951 206.29C77.1884 206.897 82.2917 205.717 87.2856 205.108Z" fill="#944692"/>
<path d="M85.2798 204.021C92.1629 203.228 98.5822 200.954 102.189 199.935C103.712 206.7 109.805 215.874 111.616 220.947C112.139 223.41 97.4685 225.1 91.191 225.441C89.4569 220.774 86.9311 210.526 85.2798 204.021Z" fill="#AA61A5"/>
<path d="M166.784 228.525L177.078 256.386C177.078 256.386 189.405 247.865 189.159 251.216C188.911 254.567 185.831 266.264 185.831 266.264C185.831 266.264 173.246 270.989 172.075 265.687C170.901 260.374 159.804 233.258 159.804 233.258" fill="#894289"/>
<path d="M182.677 209.897C173.391 231.499 168.276 242.555 139.321 237.134C96.8866 229.195 97.6857 201.195 97.6857 201.195L182.677 209.897Z" fill="#894289"/>
<path d="M154.169 56.5716C154.169 56.5716 144.816 42.6399 128.014 41.3357C111.213 40.0284 93.6784 42.4833 95.6916 47.015C97.7004 51.551 99.5777 59.0353 114.461 67.5594C129.349 76.0792 152.597 74.1782 152.597 74.1782L154.169 56.5716Z" fill="#AA61A5"/>
<path d="M66.2567 235.624C66.2567 235.624 59.0959 237.038 59.4164 236.748C59.7281 236.449 66.5344 231.133 66.5344 231.133L66.2567 235.624Z" fill="#F989B8"/>
<path d="M66.7471 228.809C66.7471 228.809 58.7148 226.936 59.0678 226.688C59.4208 226.44 67.6761 224.161 67.6761 224.161L66.7471 228.809Z" fill="#F989B8"/>
<path d="M68.3452 218.402C68.3452 218.402 62.3188 215.205 62.6733 214.954C63.0263 214.705 70.1458 214.719 70.1458 214.719L68.3452 218.402Z" fill="#F989B8"/>
<path d="M157.771 67.9539C157.771 67.9539 150.062 57.6204 142.673 54.7504C135.284 51.8746 131.512 53.0813 131.512 53.0813C131.512 53.0813 138.676 64.2302 144.086 66.7752C150.436 69.7633 157.771 67.9539 157.771 67.9539Z" fill="#F989B8"/>
<path d="M186.395 63.5773C185.318 70.1562 190.179 77.5991 198.024 78.8487C203.909 79.7837 212.284 74.5253 210.594 65.4857C209.29 58.5214 204.767 55.1876 198.875 54.2467C192.993 53.3117 187.476 56.9985 186.395 63.5773Z" fill="white"/>
<path d="M204.661 63.4223C204.479 64.536 203.525 65.2376 202.399 65.0559C201.262 64.8757 200.417 63.6808 200.602 62.567C200.786 61.4563 201.853 60.7015 202.983 60.8832C204.114 61.0634 204.842 62.31 204.661 63.4223Z" fill="black"/>
<path d="M236.602 48.7239C236.123 49.5865 235.11 49.7578 234.237 49.2807C233.369 48.8022 233.053 47.7224 233.53 46.8702C234.014 46.0135 234.915 45.7816 235.785 46.2572C236.657 46.7372 237.084 47.8701 236.602 48.7239Z" fill="black"/>
<path d="M303.107 85.0627C316.694 89.7864 322.92 92.6017 315.296 96.5868C312.356 98.1259 306.972 99.6842 300.147 101.24C300.608 96.058 301.597 90.1379 303.107 85.0627Z" fill="#F989B8"/>
<path d="M222.694 71.2078C225 59.2687 216.622 46.3089 203.61 45.1952C184.636 43.5719 162.198 59.9452 162.198 59.9452C162.198 59.9452 180.71 86.0095 196.492 87.4762C211.7 88.8883 220.957 80.2016 222.694 71.2078ZM202.684 49.9706C212.839 51.8716 219.641 60.991 217.843 70.3009C216.041 79.6123 205.757 83.5442 195.599 81.6477C186.581 79.9579 174.499 67.1134 171.802 62.1106C178.921 57.446 194.717 48.4787 202.684 49.9706Z" fill="#FF8000"/>
<path d="M238.949 62.372C249.782 63.0722 255.835 61.0486 256.504 50.9588C257.152 41.1806 240.571 25.1057 240.571 25.1057C240.571 25.1057 221.179 33.1985 220.537 42.8083C219.867 52.8981 228.128 61.6763 238.949 62.372ZM239.5 32.2074C243.117 34.0981 252.064 43.2574 251.571 50.6412C251.08 58.0575 247.385 58.0472 239.276 57.5258C231.166 57.0014 224.972 50.5422 225.465 43.1259C225.818 37.8247 232.821 37.2738 239.5 32.2074Z" fill="#FF8000"/>
<path d="M217.734 58.3071C220.242 57.3928 227.035 54.9379 228.345 54.5672L226.972 49.8982C225.252 50.3841 216.96 53.4077 216.018 53.7489L217.734 58.3071Z" fill="#FF8000"/>
<path d="M205.402 96.2114C205.402 96.2114 223.851 106.075 212.648 110.39C204.567 113.505 205.402 96.2114 205.402 96.2114Z" fill="black"/>
<path d="M202.216 167.642C202.216 167.642 181.321 178.663 137.329 179.075C116.695 179.271 87.7125 171.121 87.7125 171.121L90.42 151.768C90.42 151.768 119.8 160.152 148.234 159.166C187.221 157.813 205.256 147.776 205.256 147.776L202.216 167.642Z" fill="#AA61A5"/>
<path d="M198.08 182.494C198.08 182.494 177.771 196.348 135.36 193.835C114.481 192.597 89.9429 184.367 89.9429 184.367L90.1393 171.452C90.1393 171.452 116.003 178.664 144.958 178.116C178.537 177.478 200.318 167.75 200.318 167.75L198.08 182.494Z" fill="#944692"/>
<path d="M191.857 198.197C191.857 198.197 173.512 207.449 135.789 204.259C115.335 202.528 93.7079 195.272 93.7079 195.272L92.0861 184.979C92.0861 184.979 118.186 193.388 143.974 192.828C173.879 192.173 194.769 183.126 194.769 183.126L191.857 198.197Z" fill="#AA61A5"/>
<path d="M183.695 212.984C183.695 212.984 169.952 220.378 132.757 213.38C112.583 209.59 97.2041 203.21 97.2041 203.21L95.3046 195.574C95.3046 195.574 116.012 201.727 141.744 203.788C171.579 206.173 188.208 199.498 188.208 199.498L183.695 212.984Z" fill="#944692"/>
<path d="M117.738 218.415C117.738 218.415 101.705 228.082 94.9339 228.029C88.1571 227.979 78.6566 224.831 78.6566 224.831C78.6566 224.831 77.407 221.859 73.3451 217.71C71.7233 216.057 69.4073 214.006 69.4073 214.006C69.4073 214.006 66.722 222.421 65.9007 230.503C65.6112 233.363 66.2567 235.624 66.2567 235.624C66.2567 235.624 68.9036 236.868 72.2875 235.513C75.509 234.225 78.1072 232.993 78.1072 232.993C78.1072 232.993 88.5042 236.457 100.674 236.163C112.843 235.863 123.088 227.604 125.228 226.381C127.373 225.155 117.738 218.415 117.738 218.415Z" fill="#894289"/>
<path d="M209.668 118.638C209.668 118.638 190.23 117.351 170.63 110.122C151.028 102.897 142.597 84.4466 142.597 84.4466C142.597 84.4466 134.623 83.1054 133.276 86.7567C131.925 90.4036 143.6 94.4478 143.6 94.4478C143.6 94.4478 134.16 97.4817 139.894 103.95C144.921 109.619 151.464 104.607 151.464 104.607C151.464 104.607 147.714 110.752 153.483 114.716C159.25 118.686 163.901 112.207 163.901 112.207C163.901 112.207 162.738 121.537 167.446 121.787C172.155 122.035 175.766 117.319 175.766 117.319C175.766 117.319 174.13 126.054 180.293 126.539C186.457 127.024 187.098 120.152 187.098 120.152C187.098 120.152 189.154 128.976 194.323 128.676C199.486 128.377 199.603 121.776 199.603 121.776C199.603 121.776 205.358 132.075 209.895 128.358C214.437 124.646 209.668 118.638 209.668 118.638Z" fill="white"/>
<path fill-rule="evenodd" clip-rule="evenodd" d="M276.127 140.565C237.4 153.68 198.919 158.835 161.505 167.207C159.337 167.691 157.182 166.514 156.709 164.549C156.47 163.548 156.231 162.548 155.988 161.544C155.519 159.579 157.055 157.966 159.072 157.055C196.559 142.677 234.793 134.033 273.691 130.416C275.904 130.211 278.015 131.106 278.486 133.07C278.728 134.075 278.969 135.078 279.208 136.079C279.678 138.041 278.227 139.853 276.127 140.565Z" fill="#C35604"/>
<path fill-rule="evenodd" clip-rule="evenodd" d="M276.843 139.902L277.071 200.867C277.074 201.941 278.444 205.268 268.832 209.869C250.879 218.459 214.288 226.908 195.38 227.787C188.757 228.093 186.75 224.902 185.4 222.808C184.047 220.71 160.628 167.306 160.628 167.306C160.628 167.306 197.129 164.96 219.316 159.778C241.503 154.597 277.954 139.803 276.843 139.902Z" fill="#FF8000"/>
<path fill-rule="evenodd" clip-rule="evenodd" d="M273.741 130.621C237.496 146.944 199.337 156.006 159.12 157.263C156.895 157.332 155.6 159.923 156.112 162.055C156.375 163.142 156.635 164.23 156.895 165.317C157.406 167.449 159.539 168.32 161.762 168.28C201.757 166.089 239.918 157.049 276.384 141.639C278.43 140.773 279.904 138.978 279.39 136.847C279.128 135.76 278.87 134.668 278.608 133.584C278.096 131.448 275.735 129.648 273.741 130.621Z" fill="#F89C34"/>
<path fill-rule="evenodd" clip-rule="evenodd" d="M276.734 173.282C245.176 186.321 209.502 194.751 174.359 197.079C171.354 197.275 170.981 200.502 177.172 199.969C211.436 197.006 243.19 189.667 275.667 177.29C281.471 175.085 279.508 172.137 276.734 173.282Z" fill="#F89C34"/>
<path d="M180.283 176.424C180.283 176.424 183.279 182.976 183.332 182.55C183.397 182.126 183.846 173.594 183.846 173.594L180.283 176.424Z" fill="#F989B8"/>
<path d="M185.64 172.082C185.64 172.082 191.863 177.428 191.863 177.004C191.866 176.577 188.946 168.644 188.946 168.644L185.64 172.082Z" fill="#F989B8"/>
<path d="M193.326 164.775C193.326 164.775 199.476 167.747 199.479 167.317C199.482 166.888 195.33 161.198 195.33 161.198L193.326 164.775Z" fill="#F989B8"/>
<path d="M163.51 128.664C163.51 128.664 165.91 143.665 169.89 149.055C173.879 154.455 182.01 160.239 182.01 160.239C182.01 160.239 185.191 159.513 190.989 160.366C193.303 160.706 196.351 161.374 196.351 161.374C196.351 161.374 190.94 168.399 184.731 173.741C182.533 175.63 180.282 176.423 180.282 176.423C180.282 176.423 177.714 175.022 176.868 171.526C176.057 168.202 175.57 165.403 175.57 165.403C175.57 165.403 166.65 159.086 159.818 149.17C152.987 139.246 152.049 132.553 151.943 130.119C151.502 120.019 162.099 118.548 163.51 128.664Z" fill="#944692"/>
</svg>
