<svg width="946" height="865" viewBox="0 0 946 865" fill="none" xmlns="http://www.w3.org/2000/svg">
<path d="M444.408 374.962L439.713 402.117" stroke="#279281" stroke-width="2"/>
<path d="M406.455 389.412L399.955 418.575" stroke="#279281" stroke-width="2"/>
<path d="M616.215 434.79L611.168 464.202" stroke="#279281" stroke-width="2"/>
<path d="M531.51 389.958L526.636 421.147" stroke="#279281" stroke-width="2"/>
<path d="M563.058 411.951L560.9 433.121" stroke="#279281" stroke-width="2"/>
<path d="M482.398 403.055L478.81 423.979" stroke="#279281" stroke-width="2"/>
<path d="M637.98 408.274L642.676 381.118" stroke="#279281" stroke-width="2"/>
<path d="M675.934 393.824L682.434 364.661" stroke="#279281" stroke-width="2"/>
<path d="M466.173 348.446L471.221 319.033" stroke="#279281" stroke-width="2"/>
<path d="M550.879 393.278L555.752 362.089" stroke="#279281" stroke-width="2"/>
<path d="M519.33 371.285L521.488 350.115" stroke="#279281" stroke-width="2"/>
<path d="M599.991 380.181L603.579 359.257" stroke="#279281" stroke-width="2"/>
<path d="M372.833 367.359L377.169 342.288" stroke="#279281" stroke-width="2"/>
<path d="M411.388 354.622L417.441 327.707" stroke="#279281" stroke-width="2"/>
<path d="M207.786 311.018L212.446 283.863" stroke="#279281" stroke-width="2"/>
<path d="M289.251 352.969L293.734 324.171" stroke="#279281" stroke-width="2"/>
<path d="M258.878 332.45L260.818 312.897" stroke="#279281" stroke-width="2"/>
<path d="M336.248 341.162L339.56 321.845" stroke="#279281" stroke-width="2"/>
<path d="M187.084 335.394L182.748 360.465" stroke="#279281" stroke-width="2"/>
<path d="M150.792 348.52L144.738 375.435" stroke="#279281" stroke-width="2"/>
<path d="M352.131 391.735L347.471 418.89" stroke="#279281" stroke-width="2"/>
<path d="M266.308 371.745L261.826 400.543" stroke="#279281" stroke-width="2"/>
<path d="M301.039 370.303L299.099 389.857" stroke="#279281" stroke-width="2"/>
<path d="M223.669 361.591L220.357 380.909" stroke="#279281" stroke-width="2"/>
<path d="M543.524 513.122L538.828 540.277" stroke="#279281" stroke-width="2"/>
<path d="M505.57 527.572L499.071 556.735" stroke="#279281" stroke-width="2"/>
<path d="M715.331 572.949L710.283 602.362" stroke="#279281" stroke-width="2"/>
<path d="M630.625 528.118L625.752 559.307" stroke="#279281" stroke-width="2"/>
<path d="M662.174 550.111L660.016 571.281" stroke="#279281" stroke-width="2"/>
<path d="M581.513 541.215L577.925 562.139" stroke="#279281" stroke-width="2"/>
<path d="M737.096 546.434L741.791 519.279" stroke="#279281" stroke-width="2"/>
<path d="M775.05 531.984L781.549 502.821" stroke="#279281" stroke-width="2"/>
<path d="M565.289 486.606L570.336 457.193" stroke="#279281" stroke-width="2"/>
<path d="M649.994 531.438L654.868 500.248" stroke="#279281" stroke-width="2"/>
<path d="M618.446 509.445L620.604 488.275" stroke="#279281" stroke-width="2"/>
<path d="M699.106 518.341L702.694 497.417" stroke="#279281" stroke-width="2"/>
<path d="M471.948 505.519L476.285 480.448" stroke="#279281" stroke-width="2"/>
<path d="M510.503 492.782L516.557 465.867" stroke="#279281" stroke-width="2"/>
<path d="M306.902 449.178L311.561 422.023" stroke="#279281" stroke-width="2"/>
<path d="M388.367 491.129L392.849 462.331" stroke="#279281" stroke-width="2"/>
<path d="M357.993 470.61L359.934 451.056" stroke="#279281" stroke-width="2"/>
<path d="M435.364 479.322L438.676 460.004" stroke="#279281" stroke-width="2"/>
<path d="M286.2 473.554L281.864 498.625" stroke="#279281" stroke-width="2"/>
<path d="M249.908 486.68L243.854 513.595" stroke="#279281" stroke-width="2"/>
<path d="M451.247 529.895L446.587 557.05" stroke="#279281" stroke-width="2"/>
<path d="M365.424 509.905L360.941 538.703" stroke="#279281" stroke-width="2"/>
<path d="M400.155 508.463L398.215 528.016" stroke="#279281" stroke-width="2"/>
<path d="M322.785 499.751L319.473 519.069" stroke="#279281" stroke-width="2"/>
<path d="M131.217 479.406L126.557 506.561" stroke="#279281" stroke-width="2"/>
<path d="M49.7513 437.455L45.2691 466.253" stroke="#279281" stroke-width="2"/>
<path d="M80.1252 457.974L78.185 477.528" stroke="#279281" stroke-width="2"/>
<path d="M151.918 455.03L156.255 429.959" stroke="#279281" stroke-width="2"/>
<path d="M188.211 441.904L194.264 414.989" stroke="#279281" stroke-width="2"/>
<path d="M72.6949 418.68L77.1772 389.882" stroke="#279281" stroke-width="2"/>
<path d="M115.334 428.833L118.646 409.516" stroke="#279281" stroke-width="2"/>
<path d="M447.863 734.055L453.074 706.994" stroke="#279281" stroke-width="2"/>
<path d="M486.084 720.329L493.137 691.295" stroke="#279281" stroke-width="2"/>
<path d="M277.224 670.973L282.83 641.661" stroke="#279281" stroke-width="2"/>
<path d="M361.062 717.406L366.528 686.315" stroke="#279281" stroke-width="2"/>
<path d="M329.937 694.817L332.498 673.693" stroke="#279281" stroke-width="2"/>
<path d="M410.414 705.245L414.399 684.393" stroke="#279281" stroke-width="2"/>
<path d="M254.959 697.07L249.748 724.131" stroke="#279281" stroke-width="2"/>
<path d="M216.738 710.795L209.685 739.83" stroke="#279281" stroke-width="2"/>
<path d="M425.598 760.152L419.992 789.464" stroke="#279281" stroke-width="2"/>
<path d="M341.76 713.719L336.294 744.81" stroke="#279281" stroke-width="2"/>
<path d="M372.885 736.308L370.324 757.432" stroke="#279281" stroke-width="2"/>
<path d="M292.408 725.88L288.423 746.731" stroke="#279281" stroke-width="2"/>
<path d="M519.281 743.018L514.469 768.001" stroke="#279281" stroke-width="2"/>
<path d="M480.491 755.019L473.927 781.814" stroke="#279281" stroke-width="2"/>
<path d="M683.227 802.485L678.052 829.547" stroke="#279281" stroke-width="2"/>
<path d="M602.574 758.993L597.545 787.701" stroke="#279281" stroke-width="2"/>
<path d="M632.552 780.086L630.24 799.599" stroke="#279281" stroke-width="2"/>
<path d="M555.361 769.905L551.682 789.156" stroke="#279281" stroke-width="2"/>
<path d="M704.388 778.507L709.2 753.523" stroke="#279281" stroke-width="2"/>
<path d="M740.924 766.074L747.488 739.278" stroke="#279281" stroke-width="2"/>
<path d="M540.442 719.039L545.617 691.977" stroke="#279281" stroke-width="2"/>
<path d="M625.87 740.657L630.899 711.95" stroke="#279281" stroke-width="2"/>
<path d="M591.117 741.438L593.429 721.925" stroke="#279281" stroke-width="2"/>
<path d="M668.308 751.62L671.987 732.369" stroke="#279281" stroke-width="2"/>
<path d="M351.391 594.036L356.602 566.975" stroke="#279281" stroke-width="2"/>
<path d="M389.613 580.311L396.666 551.276" stroke="#279281" stroke-width="2"/>
<path d="M180.753 530.954L186.358 501.642" stroke="#279281" stroke-width="2"/>
<path d="M264.59 577.387L270.056 546.296" stroke="#279281" stroke-width="2"/>
<path d="M233.466 554.798L236.026 533.674" stroke="#279281" stroke-width="2"/>
<path d="M313.943 565.226L317.928 544.374" stroke="#279281" stroke-width="2"/>
<path d="M158.488 557.051L153.277 584.112" stroke="#279281" stroke-width="2"/>
<path d="M120.266 570.776L113.213 599.811" stroke="#279281" stroke-width="2"/>
<path d="M329.126 620.133L323.521 649.445" stroke="#279281" stroke-width="2"/>
<path d="M245.288 573.7L239.823 604.791" stroke="#279281" stroke-width="2"/>
<path d="M276.413 596.289L273.853 617.413" stroke="#279281" stroke-width="2"/>
<path d="M195.936 585.861L191.951 606.713" stroke="#279281" stroke-width="2"/>
<path d="M422.809 602.999L417.997 627.982" stroke="#279281" stroke-width="2"/>
<path d="M384.019 615L377.455 641.796" stroke="#279281" stroke-width="2"/>
<path d="M586.755 662.466L581.58 689.528" stroke="#279281" stroke-width="2"/>
<path d="M506.102 618.974L501.073 647.682" stroke="#279281" stroke-width="2"/>
<path d="M536.08 640.067L533.769 659.58" stroke="#279281" stroke-width="2"/>
<path d="M458.89 629.886L455.211 649.137" stroke="#279281" stroke-width="2"/>
<path d="M607.917 638.488L612.729 613.504" stroke="#279281" stroke-width="2"/>
<path d="M644.452 626.055L651.016 599.259" stroke="#279281" stroke-width="2"/>
<path d="M443.971 579.021L449.146 551.959" stroke="#279281" stroke-width="2"/>
<path d="M529.398 600.638L534.427 571.93" stroke="#279281" stroke-width="2"/>
<path d="M494.646 601.419L496.957 581.906" stroke="#279281" stroke-width="2"/>
<path d="M571.836 611.601L575.515 592.349" stroke="#279281" stroke-width="2"/>
<path d="M762.983 635.583L768.158 608.522" stroke="#279281" stroke-width="2"/>
<path d="M843.636 679.075L848.665 650.367" stroke="#279281" stroke-width="2"/>
<path d="M813.658 657.982L815.97 638.469" stroke="#279281" stroke-width="2"/>
<path d="M741.822 659.561L737.01 684.545" stroke="#279281" stroke-width="2"/>
<path d="M705.286 671.995L698.722 698.79" stroke="#279281" stroke-width="2"/>
<path d="M820.34 697.411L815.311 726.119" stroke="#279281" stroke-width="2"/>
<path d="M777.902 686.449L774.223 705.7" stroke="#279281" stroke-width="2"/>
<path d="M706.007 98.3413L701.311 125.497" stroke="#279281" stroke-width="2"/>
<path d="M668.053 112.791L661.553 141.954" stroke="#279281" stroke-width="2"/>
<path d="M877.814 158.169L872.766 187.582" stroke="#279281" stroke-width="2"/>
<path d="M793.108 113.338L788.235 144.527" stroke="#279281" stroke-width="2"/>
<path d="M824.657 135.331L822.499 156.5" stroke="#279281" stroke-width="2"/>
<path d="M743.996 126.435L740.408 147.359" stroke="#279281" stroke-width="2"/>
<path d="M899.579 131.653L904.274 104.498" stroke="#279281" stroke-width="2"/>
<path d="M937.532 117.204L944.032 88.0405" stroke="#279281" stroke-width="2"/>
<path d="M613.73 115.114L609.07 142.269" stroke="#279281" stroke-width="2"/>
<path d="M527.906 95.124L523.424 123.922" stroke="#279281" stroke-width="2"/>
<path d="M350.694 27.124L356.747 0.20849" stroke="#279281" stroke-width="2"/>
<path d="M610.345 319.275L615.556 292.214" stroke="#279281" stroke-width="2"/>
<path d="M648.567 305.549L655.62 276.515" stroke="#279281" stroke-width="2"/>
<path d="M439.707 256.192L445.313 226.881" stroke="#279281" stroke-width="2"/>
<path d="M523.545 302.625L529.01 271.535" stroke="#279281" stroke-width="2"/>
<path d="M492.42 280.037L494.98 258.913" stroke="#279281" stroke-width="2"/>
<path d="M572.897 290.464L576.882 269.613" stroke="#279281" stroke-width="2"/>
<path d="M417.442 282.29L412.231 309.351" stroke="#279281" stroke-width="2"/>
<path d="M379.22 296.015L372.168 325.05" stroke="#279281" stroke-width="2"/>
<path d="M588.081 345.372L582.475 374.684" stroke="#279281" stroke-width="2"/>
<path d="M504.243 298.939L498.777 330.03" stroke="#279281" stroke-width="2"/>
<path d="M535.367 321.527L532.807 342.652" stroke="#279281" stroke-width="2"/>
<path d="M454.891 311.1L450.905 331.951" stroke="#279281" stroke-width="2"/>
<path d="M681.764 328.237L676.952 353.221" stroke="#279281" stroke-width="2"/>
<path d="M642.974 340.239L636.41 367.034" stroke="#279281" stroke-width="2"/>
<path d="M845.71 387.705L840.535 414.766" stroke="#279281" stroke-width="2"/>
<path d="M765.056 344.213L760.028 372.92" stroke="#279281" stroke-width="2"/>
<path d="M795.035 365.306L792.723 384.819" stroke="#279281" stroke-width="2"/>
<path d="M717.844 355.125L714.165 374.376" stroke="#279281" stroke-width="2"/>
<path d="M866.871 363.727L871.683 338.743" stroke="#279281" stroke-width="2"/>
<path d="M903.406 351.293L909.97 324.498" stroke="#279281" stroke-width="2"/>
<path d="M702.925 304.259L708.1 277.197" stroke="#279281" stroke-width="2"/>
<path d="M788.353 325.877L793.382 297.169" stroke="#279281" stroke-width="2"/>
<path d="M753.6 326.658L755.912 307.145" stroke="#279281" stroke-width="2"/>
<path d="M830.791 336.839L834.47 317.588" stroke="#279281" stroke-width="2"/>
<path d="M513.874 179.256L519.085 152.195" stroke="#279281" stroke-width="2"/>
<path d="M552.095 165.53L559.148 136.496" stroke="#279281" stroke-width="2"/>
<path d="M343.235 116.173L348.841 86.8618" stroke="#279281" stroke-width="2"/>
<path d="M476.425 150.446L480.41 129.594" stroke="#279281" stroke-width="2"/>
<path d="M491.609 205.353L486.003 234.665" stroke="#279281" stroke-width="2"/>
<path d="M438.896 181.508L436.336 202.633" stroke="#279281" stroke-width="2"/>
<path d="M585.292 188.218L580.48 213.202" stroke="#279281" stroke-width="2"/>
<path d="M546.502 200.22L539.938 227.015" stroke="#279281" stroke-width="2"/>
<path d="M749.238 247.686L744.063 274.747" stroke="#279281" stroke-width="2"/>
<path d="M668.585 204.194L663.556 232.902" stroke="#279281" stroke-width="2"/>
<path d="M698.563 225.287L696.252 244.8" stroke="#279281" stroke-width="2"/>
<path d="M621.372 215.105L617.694 234.357" stroke="#279281" stroke-width="2"/>
<path d="M770.399 223.708L775.211 198.724" stroke="#279281" stroke-width="2"/>
<path d="M806.935 211.274L813.499 184.479" stroke="#279281" stroke-width="2"/>
<path d="M606.453 164.24L611.628 137.179" stroke="#279281" stroke-width="2"/>
<path d="M691.881 185.858L696.91 157.15" stroke="#279281" stroke-width="2"/>
<path d="M657.128 186.639L659.44 167.126" stroke="#279281" stroke-width="2"/>
<path d="M734.319 196.82L737.998 177.569" stroke="#279281" stroke-width="2"/>
<path d="M925.466 220.803L930.641 193.741" stroke="#279281" stroke-width="2"/>
<path d="M904.305 244.781L899.493 269.765" stroke="#279281" stroke-width="2"/>
<path d="M867.769 257.214L861.205 284.01" stroke="#279281" stroke-width="2"/>
</svg>
