<svg width="895" height="311" viewBox="0 0 895 311" fill="none" xmlns="http://www.w3.org/2000/svg">
<path d="M353.51 276.407C345.574 226.749 343.697 198.807 345.085 148.78C348.45 189.169 351.284 210.765 362.834 242.039C360.158 220.587 359.892 209.153 363.217 190.561C364.153 209.437 365.63 219.99 371.096 238.738L387.326 244.253C379.173 205.546 379.83 184.539 384.112 147.484C386.26 182.927 387.343 202.804 397.579 237.858L431.928 242.772C425.291 212.845 425.629 195.931 429.367 165.659C430.335 197.505 431.198 215.207 441.685 242.448C440.328 207.791 442.857 192.389 447.487 165.057C446.795 196.092 446.728 213.409 455.623 241.985C452.114 212.351 452.53 195.419 457.243 164.733C457.232 196.213 458.135 213.119 469.361 235.474C469.83 211.692 473.3 188.693 490.369 153.794C476.972 198.793 475.639 225.509 470.591 272.518L353.51 276.407Z" fill="#88C549" stroke="#88C549"/>
<path d="M438.712 208.482C371.681 211.078 294.469 237.199 296.817 297.816C297.159 306.664 297.912 326.11 336.12 336.897C406.64 356.81 478.112 344.979 533.949 325.726C547.309 321.123 553.68 301.645 554.508 292.827C561.066 222.825 505.741 205.885 438.712 208.482Z" fill="#B7B19A"/>
<path d="M569.003 338.138C591.07 306.665 525.189 268.363 474.21 290.353C433.806 307.78 392.483 309.985 409.862 344.302C422.132 368.527 544.414 373.206 569.003 338.138Z" fill="#CCCCB8"/>
<path d="M287.868 269.119C287.649 285.891 274.281 299.327 258.098 299.129C241.874 298.918 228.886 285.131 229.104 268.364C229.315 251.563 242.65 238.151 258.874 238.35C275.069 238.552 288.074 252.302 287.868 269.119Z" fill="#869A2A"/>
<path d="M278.199 260.525C278.199 260.525 287.788 260.285 294.906 257.569C302.031 254.849 307.404 250.705 307.404 250.705" stroke="black" stroke-width="0.786" stroke-linecap="round"/>
<path d="M272.273 255.666C272.273 255.666 281.211 252.186 286.979 247.204C292.747 242.221 296.39 236.492 296.39 236.492" stroke="black" stroke-width="0.786" stroke-linecap="round"/>
<path d="M265.133 253.817C265.133 253.817 272.296 247.423 275.947 240.748C279.624 234.056 281.039 227.415 281.039 227.415" stroke="black" stroke-width="0.786" stroke-linecap="round"/>
<path d="M281.835 269.045C281.674 282.374 271.045 293.057 258.184 292.883C245.282 292.722 234.95 281.771 235.119 268.45C235.288 255.084 245.901 244.422 258.803 244.583C271.664 244.748 282.012 255.687 281.835 269.045Z" fill="white"/>
<path d="M197.381 278.44C199.172 297.436 183.415 309.56 166.741 309.345C150.035 309.127 138.036 296.309 136.877 277.668C135.82 260.43 150.889 248.133 167.525 246.787C185.275 245.359 195.681 261.251 197.381 278.44Z" fill="#869A2A"/>
<mask id="mask0" mask-type="alpha" maskUnits="userSpaceOnUse" x="7" y="263" width="344" height="262">
<path d="M185.595 264.962C131.581 272.132 115.237 313.263 115.237 313.263C115.237 313.263 67.9234 329.589 30.2565 395.903C-9.37862 465.69 3.65566 520.112 60.8967 524.248C118.443 528.409 178.717 496.814 215.212 445.649C280.722 442.214 289.997 391.495 289.997 391.495C289.997 391.495 341.581 383.668 350.254 339.211C359.608 291.1 269.198 263.645 207.298 263.649C199.537 263.649 192.209 264.083 185.595 264.962Z" fill="#869A2A"/>
</mask>
<g mask="url(#mask0)">
<path d="M185.611 264.958C131.596 272.129 115.253 313.259 115.253 313.259C115.253 313.259 67.939 329.585 30.2721 395.9C-9.36299 465.686 3.67128 520.108 60.9123 524.245C118.459 528.406 178.732 496.811 215.227 445.645C280.737 442.211 290.013 391.491 290.013 391.491C290.013 391.491 341.597 383.665 350.27 339.207C359.624 291.096 269.213 263.642 207.314 263.646C199.553 263.646 192.225 264.079 185.611 264.958Z" fill="#869A2A"/>
<path d="M86.7655 281.321C78.6742 282.113 75.1671 269.333 83.7741 268.607C92.1252 268.017 94.8113 280.673 86.7655 281.321Z" fill="#6A2403"/>
<path d="M127.52 269.292C135.475 269.432 138.132 281.923 130.173 281.746C122.132 281.767 119.318 269.317 127.52 269.292Z" fill="#6A2403"/>
<path d="M16.3625 301.404C24.5321 299.559 29.0626 312.012 20.8682 313.849C12.6573 315.806 8.06085 303.418 16.3625 301.404Z" fill="#6A2403"/>
</g>
<path d="M273.098 250.171C273.342 252.639 271.299 254.212 269.108 254.183C266.942 254.154 265.378 252.503 265.218 250.068C265.081 247.81 267.062 246.212 269.216 246.022C271.543 245.845 272.896 247.905 273.098 250.171Z" fill="black"/>
<path d="M143.736 275.505C143.736 275.505 134.251 276.95 126.774 275.505C119.289 274.068 113.27 270.923 113.27 270.923" stroke="black" stroke-width="0.786" stroke-linecap="round"/>
<path d="M148.724 269.693C148.724 269.693 139.321 267.819 132.785 263.922C126.225 260.021 121.641 255.014 121.641 255.014" stroke="black" stroke-width="0.786" stroke-linecap="round"/>
<path d="M155.438 266.63C155.438 266.63 147.281 261.573 142.511 255.641C137.733 249.689 135.188 243.398 135.188 243.398" stroke="black" stroke-width="0.786" stroke-linecap="round"/>
<path d="M190.491 278.349C191.894 293.02 179.718 302.369 166.832 302.208C153.954 302.051 144.687 292.149 143.775 277.759C142.954 264.43 154.573 254.923 167.459 253.883C181.174 252.777 189.187 265.065 190.491 278.349Z" fill="white"/>
<path d="M181.314 264.626C181.586 267.392 179.276 269.151 176.817 269.118C174.391 269.101 172.633 267.231 172.427 264.511C172.307 261.989 174.498 260.16 176.949 259.966C179.565 259.772 181.079 262.096 181.314 264.626Z" fill="black"/>
<path d="M847.68 67C847.68 67 810.145 36.014 822.493 30.8663C834.839 25.7169 842.818 37.628 842.818 37.628C842.818 37.628 849.629 20.7692 858.656 24.5536C867.694 28.3444 847.68 67 847.68 67Z" fill="#FF0000"/>
<path d="M883.748 20.5434C883.748 20.5434 869.832 1.2922 876.295 0.373903C882.756 -0.545551 885.06 6.06348 885.06 6.06348C885.06 6.06348 890.346 -1.06975 894.143 1.82648C897.945 4.72714 883.748 20.5434 883.748 20.5434Z" fill="#FF0000"/>
</svg>
