<?xml version="1.0" encoding="utf-8"?>
<!-- Generator: Adobe Illustrator 15.1.0, SVG Export Plug-In . SVG Version: 6.00 Build 0)  -->
<!DOCTYPE svg PUBLIC "-//W3C//DTD SVG 1.1//EN" "http://www.w3.org/Graphics/SVG/1.1/DTD/svg11.dtd">
<svg version="1.1" id="Capa_1" xmlns="http://www.w3.org/2000/svg" xmlns:xlink="http://www.w3.org/1999/xlink" x="0px" y="0px"
	 width="159px" height="158px" viewBox="0 0 159 158" enable-background="new 0 0 159 158" xml:space="preserve">
<g>
	<path fill="#7DC327" d="M48.509,38.021c0,4.878,3.835,8.836,8.545,8.836c4.718,0,8.55-3.958,8.55-8.836
		c0-4.882-3.833-8.833-8.55-8.833C52.345,29.188,48.509,33.139,48.509,38.021z"/>
	<path fill="#7DC327" d="M71.908,41.087c-0.595,5.519,3.943,9.1,8.792,9.1c4.855,0,8.394-3.682,8.8-9.098
		c0.376-5.012-3.961-8.643-8.8-9.095C75.541,31.512,72.459,36.095,71.908,41.087z"/>
	<path fill="#7DC327" d="M63.851,77.839c0,0-8.615,16.411-12.04,18.861c-2.771,1.989-3.976,0.957-3.976,0.957
		s-7.997-2.686-6.85-0.873c1.148,1.819,6.429,2.92,6.429,2.92s-9.489,0.454-8.203,1.627c1.276,1.164,9.155,1.295,9.155,1.295
		s-10.006,2.685-7.668,3.215c3.266,0.742,11.706-0.571,12.899-2.451c1.194-1.883,10.528-15.116,13.082-18.052
		C69.218,82.406,63.851,77.839,63.851,77.839z"/>
	<defs>
		<filter id="Adobe_OpacityMaskFilter" filterUnits="userSpaceOnUse" x="32.47" y="93.82" width="17.268" height="16.805">
			<feColorMatrix  type="matrix" values="1 0 0 0 0  0 1 0 0 0  0 0 1 0 0  0 0 0 1 0"/>
		</filter>
	</defs>
	<mask maskUnits="userSpaceOnUse" x="32.47" y="93.82" width="17.268" height="16.805" id="mask0_2_">
		<path fill="#7DC327" filter="url(#Adobe_OpacityMaskFilter)" d="M63.851,77.839c0,0-8.615,16.411-12.04,18.861
			c-2.771,1.989-3.976,0.957-3.976,0.957s-7.997-2.686-6.85-0.873c1.148,1.819,6.429,2.92,6.429,2.92s-9.489,0.454-8.203,1.627
			c1.276,1.164,9.155,1.295,9.155,1.295s-10.006,2.685-7.668,3.215c3.266,0.742,11.706-0.571,12.899-2.451
			c1.194-1.883,10.528-15.116,13.082-18.052C69.218,82.406,63.851,77.839,63.851,77.839z"/>
	</mask>
	<g mask="url(#mask0_2_)">
		<path fill="#FF0000" d="M48.478,95.342c0,0-1.041,3.238-1.063,4.362c-0.02,0.934,0.892,3.185,1.247,4.049
			c0.313,0.76,1.076,2.572,1.076,2.572s-1.492,2.973-2.211,3.149c-0.719,0.18-4.495,1.897-7.19,0.77
			c-2.697-1.129-7.01-2.745-7.729-6.162c-0.72-3.417,1.618-9.531,1.618-9.531l8.269-0.73L48.478,95.342z"/>
	</g>
	<path fill="#FFFFFF" d="M50.261,38.021c0,3.878,3.05,7.025,6.793,7.025c3.753,0,6.799-3.146,6.799-7.025
		c0-3.881-3.044-7.024-6.799-7.024C53.313,30.997,50.261,34.14,50.261,38.021z"/>
	<path fill="#7DC327" d="M76.939,35.864c-17.229-2.513-47.26,14.306-47.176,23.494c0.125,13.215,24.27,12.732,24.27,12.732
		s8.845,6.551,12.645,13.248c11.759,13.679,41.577,27.48,52.527,25.744c7.182-1.14,8.73-6.726,5.537-27.981
		c-3.297-21.93-28.711-31.15-28.711-31.15S92.626,38.153,76.939,35.864z"/>
	<path fill="#FFFFFF" d="M73.904,41.084c-0.457,4.261,3.048,7.026,6.793,7.026c3.75,0,6.483-2.842,6.798-7.026
		c0.288-3.87-3.059-6.675-6.798-7.024C76.711,33.686,74.333,37.229,73.904,41.084z"/>
	<path d="M79.421,41.094c-0.091,0.806,0.579,1.327,1.296,1.327c0.709,0,1.225-0.533,1.288-1.327
		c0.047-0.733-0.582-1.271-1.288-1.334C79.949,39.69,79.497,40.365,79.421,41.094z"/>
	<path d="M54.353,36.68c-0.084,0.719,0.506,1.187,1.148,1.187c0.626,0,1.093-0.481,1.144-1.187c0.048-0.654-0.521-1.132-1.144-1.188
		C54.826,35.43,54.418,36.026,54.353,36.68z"/>
	<path fill="#FFE610" d="M54.033,72.09c0,0,7.315,0.498,18.812-5.962c22.432,32.865,44.409,38.778,46.361,44.955
		c0.232,0.731-28.366-3.659-44.952-17.929C67.384,87.241,54.033,72.09,54.033,72.09z"/>
	<path d="M36.894,59.583c0,0.433,0.352,0.789,0.795,0.789c0.442,0,0.798-0.356,0.798-0.789c0-0.443-0.356-0.793-0.798-0.793
		C37.247,58.791,36.894,59.141,36.894,59.583z"/>
	<path d="M32.25,58.293c0,0.502,0.407,0.912,0.909,0.912c0.508,0,0.915-0.409,0.915-0.912c0-0.502-0.405-0.906-0.915-0.906
		C32.657,57.388,32.25,57.792,32.25,58.293z"/>
	<path fill="#7DC327" d="M72.807,82.402c0,0-6.071,18.92-8.94,22.004c-2.32,2.503-3.702,1.733-3.702,1.733s-8.376-1.035-6.888,0.513
		c1.492,1.553,6.888,1.571,6.888,1.571s-9.21,2.336-7.722,3.231c1.485,0.889,9.239-0.557,9.239-0.557s-9.274,4.631-6.871,4.679
		c3.335,0.08,11.346-2.897,12.139-4.973c0.798-2.089,9.483-20.188,11.394-23.575C80.689,83.1,72.807,82.402,72.807,82.402z"/>
	<defs>
		<filter id="Adobe_OpacityMaskFilter_1_" filterUnits="userSpaceOnUse" x="46.169" y="102.141" width="17.843" height="16.663">
			<feColorMatrix  type="matrix" values="1 0 0 0 0  0 1 0 0 0  0 0 1 0 0  0 0 0 1 0"/>
		</filter>
	</defs>
	<mask maskUnits="userSpaceOnUse" x="46.169" y="102.141" width="17.843" height="16.663" id="mask1_2_">
		<path fill="#7DC327" filter="url(#Adobe_OpacityMaskFilter_1_)" d="M72.807,82.402c0,0-6.071,18.92-8.94,22.004
			c-2.32,2.503-3.702,1.733-3.702,1.733s-8.376-1.035-6.888,0.513c1.492,1.553,6.888,1.571,6.888,1.571s-9.21,2.336-7.722,3.231
			c1.485,0.889,9.239-0.557,9.239-0.557s-9.274,4.631-6.871,4.679c3.335,0.08,11.346-2.897,12.139-4.973
			c0.798-2.089,9.483-20.188,11.394-23.575C80.689,83.1,72.807,82.402,72.807,82.402z"/>
	</mask>
	<g mask="url(#mask1_2_)">
		<path fill="#FF0000" d="M60.893,102.615c0,0-0.474,3.37-0.302,4.481c0.142,0.922,1.424,2.987,1.92,3.774
			c0.441,0.694,1.501,2.35,1.501,2.35s-0.962,3.184-1.638,3.482c-0.679,0.303-4.106,2.64-6.955,1.986
			c-2.849-0.651-7.376-1.505-8.668-4.751c-1.292-3.243-0.034-9.665-0.034-9.665l8.024-2.133L60.893,102.615z"/>
	</g>
	<path fill="#FD0706" d="M41.835,95.868c0,0.756-0.615,1.371-1.371,1.371c-0.759,0-1.373-0.615-1.373-1.371
		c0-0.758,0.614-1.374,1.373-1.374C41.22,94.494,41.835,95.11,41.835,95.868z"/>
	<path fill="#FD0706" d="M40.055,101.143c0,0.758-0.614,1.371-1.371,1.371s-1.374-0.613-1.374-1.371
		c0-0.756,0.617-1.371,1.374-1.371S40.055,100.385,40.055,101.143z"/>
	<path fill="#FD0706" d="M41.425,105.806c0,0.757-0.612,1.372-1.37,1.372s-1.373-0.615-1.373-1.372c0-0.758,0.615-1.371,1.373-1.371
		S41.425,105.048,41.425,105.806z"/>
	<path fill="#FD0706" d="M54.184,106.054c0,0.757-0.613,1.369-1.37,1.369c-0.757,0-1.372-0.612-1.372-1.369
		c0-0.758,0.615-1.373,1.372-1.373C53.571,104.681,54.184,105.296,54.184,106.054z"/>
	<path fill="#FD0706" d="M53.649,111.084c0,0.755-0.613,1.368-1.37,1.368c-0.757,0-1.372-0.613-1.372-1.368
		c0-0.759,0.615-1.374,1.372-1.374C53.037,109.71,53.649,110.325,53.649,111.084z"/>
	<path fill="#FD0706" d="M56.102,115.316c0,0.756-0.614,1.372-1.37,1.372c-0.757,0-1.373-0.616-1.373-1.372
		c0-0.758,0.616-1.373,1.373-1.373C55.49,113.943,56.102,114.559,56.102,115.316z"/>
	<path fill="none" stroke="#000000" stroke-width="0.665" stroke-linecap="round" d="M54.033,71.654
		c19.641,0,19.641-9.53,19.641-9.53"/>
	<path fill="#96CE17" d="M108.409,94.494c-6.28-2.983-19.667-11.888-24.829-4.991c-5.155,6.896,9.434,23.863,9.434,23.863
		s-24.367,0.271-22.984,1.9c1.373,1.631,12.139,0.569,12.139,0.569s-13.108,2.453-12.753,3.938c0.354,1.491,13.43-1.793,13.43-1.793
		s-10.376,5.798-9.281,6.949c1.087,1.153,10.329-3.193,17.701-5.695c7.364-2.505,12.276,0.937,11.767-2.237
		c-0.521-3.171-8.958-12.025-8.958-12.025s13.026,7.509,19.46,7.478C129.394,112.383,114.185,97.239,108.409,94.494z"/>
	<defs>
		<filter id="Adobe_OpacityMaskFilter_2_" filterUnits="userSpaceOnUse" x="67.747" y="111.757" width="18.141" height="16.517">
			<feColorMatrix  type="matrix" values="1 0 0 0 0  0 1 0 0 0  0 0 1 0 0  0 0 0 1 0"/>
		</filter>
	</defs>
	<mask maskUnits="userSpaceOnUse" x="67.747" y="111.757" width="18.141" height="16.517" id="mask2_2_">
		<path fill="#96CE17" filter="url(#Adobe_OpacityMaskFilter_2_)" d="M108.409,94.494c-6.28-2.983-19.667-11.888-24.829-4.991
			c-5.155,6.896,9.434,23.863,9.434,23.863s-24.367,0.271-22.984,1.9c1.373,1.631,12.139,0.569,12.139,0.569
			s-13.108,2.453-12.753,3.938c0.354,1.491,13.43-1.793,13.43-1.793s-10.376,5.798-9.281,6.949
			c1.087,1.153,10.329-3.193,17.701-5.695c7.364-2.505,12.276,0.937,11.767-2.237c-0.521-3.171-8.958-12.025-8.958-12.025
			s13.026,7.509,19.46,7.478C129.394,112.383,114.185,97.239,108.409,94.494z"/>
	</mask>
	<g mask="url(#mask2_2_)">
		<path fill="#FF0000" d="M81.907,111.757c0,0-0.168,3.044,0.265,4.08c0.764,1.823,1.47,3.271,2.03,4.014
			c0.493,0.659,1.686,2.221,1.686,2.221s-0.694,3.252-1.346,3.605c-0.653,0.355-3.872,2.967-6.766,2.552
			c-2.895-0.416-7.477-0.896-9.031-4.022c-1.554-3.126-0.831-9.63-0.831-9.63l7.822-2.786L81.907,111.757z"/>
	</g>
	<path fill="#FD0706" d="M71.492,115.146c0.063,0.756-0.501,1.415-1.252,1.479c-0.757,0.063-1.418-0.5-1.48-1.253
		c-0.063-0.756,0.498-1.418,1.253-1.481C70.767,113.829,71.431,114.389,71.492,115.146z"/>
	<path fill="#FD0706" d="M71.095,119.379c0.061,0.757-0.502,1.418-1.257,1.479c-0.751,0.063-1.415-0.499-1.479-1.251
		c-0.063-0.757,0.499-1.419,1.255-1.482C70.367,118.064,71.029,118.624,71.095,119.379z"/>
	<path fill="#FD0706" d="M75.04,124.781c0.061,0.753-0.499,1.415-1.253,1.476c-0.757,0.064-1.417-0.499-1.48-1.252
		c-0.062-0.756,0.499-1.418,1.254-1.479C74.313,123.462,74.977,124.023,75.04,124.781z"/>
	<path fill="#FF0000" d="M109.65,88.053c0.441-1.453,1.977-2.276,3.428-1.84c1.451,0.441,2.276,1.976,1.837,3.426
		c-0.438,1.455-1.973,2.276-3.425,1.837C110.036,91.039,109.215,89.504,109.65,88.053z"/>
	<path fill="#FF0000" d="M119.409,92.455c0.253-0.836,1.134-1.306,1.967-1.054c0.832,0.253,1.302,1.13,1.05,1.964
		c-0.253,0.832-1.128,1.302-1.961,1.049C119.633,94.165,119.16,93.288,119.409,92.455z"/>
	<path fill="#FF0000" d="M100.372,80.357c0.193-0.637,0.865-0.998,1.501-0.805c0.638,0.194,1,0.863,0.804,1.503
		c-0.189,0.634-0.861,0.993-1.5,0.803C100.541,81.665,100.184,80.996,100.372,80.357z"/>
	<path fill="#FF0000" d="M114.913,95.925c0.19-0.638,0.862-0.998,1.5-0.804c0.637,0.191,0.998,0.863,0.804,1.502
		c-0.195,0.634-0.863,0.993-1.5,0.802C115.079,97.23,114.719,96.561,114.913,95.925z"/>
	<path fill="#FF0000" d="M120.976,85.283c-0.358,1.174-1.592,1.839-2.766,1.481c-1.172-0.352-1.835-1.592-1.482-2.764
		c0.354-1.169,1.595-1.837,2.764-1.479C120.664,82.873,121.327,84.111,120.976,85.283z"/>
	<path fill="#FF0000" d="M108.283,73.949c-0.113,1.22-1.193,2.119-2.41,2.002c-1.22-0.112-2.117-1.195-2.003-2.415
		c0.11-1.216,1.193-2.113,2.412-2C107.5,71.649,108.397,72.731,108.283,73.949z"/>
	<path fill="#FF0000" d="M117.379,76.805c-0.136,1.465-1.432,2.543-2.897,2.406c-1.465-0.138-2.539-1.434-2.403-2.901
		c0.136-1.458,1.435-2.538,2.9-2.4C116.439,74.046,117.516,75.345,117.379,76.805z"/>
	<path fill="#FF0000" d="M107.059,81.651c0.252-0.834,1.133-1.305,1.965-1.055c0.833,0.251,1.304,1.133,1.052,1.966
		c-0.251,0.832-1.13,1.303-1.965,1.049C107.281,83.359,106.81,82.481,107.059,81.651z"/>
</g>
</svg>
