<svg width="881" height="360" viewBox="0 0 881 360" fill="none" xmlns="http://www.w3.org/2000/svg">
<path d="M8.78416 22.6914V15.6028L2.7316 19.1842C2.33509 19.504 1.85416 19.3428 1.61626 18.9489L0.419044 16.7156C0.183695 16.3165 0.262997 15.8407 0.738811 15.6028L6.79649 12.2593L0.738811 8.7521C0.262997 8.51163 0.183695 8.03583 0.419044 7.63676L1.61626 5.4035C1.85416 5.00955 2.33509 4.84838 2.7316 5.16815L8.78416 8.83142V1.66096C8.78416 1.18003 9.10392 0.86792 9.58229 0.86792H11.9716C12.4525 0.86792 12.7672 1.18258 12.7672 1.66096L12.6853 8.83142L18.8223 5.16815C19.2188 4.84838 19.6972 5.00955 19.9351 5.4035L21.1297 7.63676C21.3702 8.03583 21.2909 8.51163 20.81 8.7521L14.76 12.2593L20.81 15.6028C21.2909 15.8407 21.3702 16.3165 21.1297 16.7156L19.9351 18.9489C19.6972 19.3428 19.2188 19.504 18.8223 19.1842L12.6853 15.6028L12.7672 22.6914C12.7672 23.1672 12.4525 23.487 11.9716 23.487H9.58229C9.10392 23.487 8.78416 23.1672 8.78416 22.6914Z" fill="#2BB673"/>
<path d="M44.2305 11.3203V18H41.9805V0.9375H48.2734C50.1406 0.9375 51.6016 1.41406 52.6562 2.36719C53.7188 3.32031 54.25 4.58203 54.25 6.15234C54.25 7.80859 53.7305 9.08594 52.6914 9.98438C51.6602 10.875 50.1797 11.3203 48.25 11.3203H44.2305ZM44.2305 9.48047H48.2734C49.4766 9.48047 50.3984 9.19922 51.0391 8.63672C51.6797 8.06641 52 7.24609 52 6.17578C52 5.16016 51.6797 4.34766 51.0391 3.73828C50.3984 3.12891 49.5195 2.8125 48.4023 2.78906H44.2305V9.48047ZM64.4688 18C64.3438 17.75 64.2422 17.3047 64.1641 16.6641C63.1562 17.7109 61.9531 18.2344 60.5547 18.2344C59.3047 18.2344 58.2773 17.8828 57.4727 17.1797C56.6758 16.4688 56.2773 15.5703 56.2773 14.4844C56.2773 13.1641 56.7773 12.1406 57.7773 11.4141C58.7852 10.6797 60.1992 10.3125 62.0195 10.3125H64.1289V9.31641C64.1289 8.55859 63.9023 7.95703 63.4492 7.51172C62.9961 7.05859 62.3281 6.83203 61.4453 6.83203C60.6719 6.83203 60.0234 7.02734 59.5 7.41797C58.9766 7.80859 58.7148 8.28125 58.7148 8.83594H56.5352C56.5352 8.20312 56.7578 7.59375 57.2031 7.00781C57.6562 6.41406 58.2656 5.94531 59.0312 5.60156C59.8047 5.25781 60.6523 5.08594 61.5742 5.08594C63.0352 5.08594 64.1797 5.45312 65.0078 6.1875C65.8359 6.91406 66.2656 7.91797 66.2969 9.19922V15.0352C66.2969 16.1992 66.4453 17.125 66.7422 17.8125V18H64.4688ZM60.8711 16.3477C61.5508 16.3477 62.1953 16.1719 62.8047 15.8203C63.4141 15.4688 63.8555 15.0117 64.1289 14.4492V11.8477H62.4297C59.7734 11.8477 58.4453 12.625 58.4453 14.1797C58.4453 14.8594 58.6719 15.3906 59.125 15.7734C59.5781 16.1562 60.1602 16.3477 60.8711 16.3477ZM75.8242 7.26562C75.4961 7.21094 75.1406 7.18359 74.7578 7.18359C73.3359 7.18359 72.3711 7.78906 71.8633 9V18H69.6953V5.32031H71.8047L71.8398 6.78516C72.5508 5.65234 73.5586 5.08594 74.8633 5.08594C75.2852 5.08594 75.6055 5.14062 75.8242 5.25V7.26562ZM85.1875 18C85.0625 17.75 84.9609 17.3047 84.8828 16.6641C83.875 17.7109 82.6719 18.2344 81.2734 18.2344C80.0234 18.2344 78.9961 17.8828 78.1914 17.1797C77.3945 16.4688 76.9961 15.5703 76.9961 14.4844C76.9961 13.1641 77.4961 12.1406 78.4961 11.4141C79.5039 10.6797 80.918 10.3125 82.7383 10.3125H84.8477V9.31641C84.8477 8.55859 84.6211 7.95703 84.168 7.51172C83.7148 7.05859 83.0469 6.83203 82.1641 6.83203C81.3906 6.83203 80.7422 7.02734 80.2188 7.41797C79.6953 7.80859 79.4336 8.28125 79.4336 8.83594H77.2539C77.2539 8.20312 77.4766 7.59375 77.9219 7.00781C78.375 6.41406 78.9844 5.94531 79.75 5.60156C80.5234 5.25781 81.3711 5.08594 82.293 5.08594C83.7539 5.08594 84.8984 5.45312 85.7266 6.1875C86.5547 6.91406 86.9844 7.91797 87.0156 9.19922V15.0352C87.0156 16.1992 87.1641 17.125 87.4609 17.8125V18H85.1875ZM81.5898 16.3477C82.2695 16.3477 82.9141 16.1719 83.5234 15.8203C84.1328 15.4688 84.5742 15.0117 84.8477 14.4492V11.8477H83.1484C80.4922 11.8477 79.1641 12.625 79.1641 14.1797C79.1641 14.8594 79.3906 15.3906 79.8438 15.7734C80.2969 16.1562 80.8789 16.3477 81.5898 16.3477ZM102.496 7.26562C102.168 7.21094 101.812 7.18359 101.43 7.18359C100.008 7.18359 99.043 7.78906 98.5352 9V18H96.3672V5.32031H98.4766L98.5117 6.78516C99.2227 5.65234 100.23 5.08594 101.535 5.08594C101.957 5.08594 102.277 5.14062 102.496 5.25V7.26562ZM109.527 18.2344C107.809 18.2344 106.41 17.6719 105.332 16.5469C104.254 15.4141 103.715 13.9023 103.715 12.0117V11.6133C103.715 10.3555 103.953 9.23438 104.43 8.25C104.914 7.25781 105.586 6.48438 106.445 5.92969C107.312 5.36719 108.25 5.08594 109.258 5.08594C110.906 5.08594 112.188 5.62891 113.102 6.71484C114.016 7.80078 114.473 9.35547 114.473 11.3789V12.2812H105.883C105.914 13.5312 106.277 14.543 106.973 15.3164C107.676 16.082 108.566 16.4648 109.645 16.4648C110.41 16.4648 111.059 16.3086 111.59 15.9961C112.121 15.6836 112.586 15.2695 112.984 14.7539L114.309 15.7852C113.246 17.418 111.652 18.2344 109.527 18.2344ZM109.258 6.86719C108.383 6.86719 107.648 7.1875 107.055 7.82812C106.461 8.46094 106.094 9.35156 105.953 10.5H112.305V10.3359C112.242 9.23438 111.945 8.38281 111.414 7.78125C110.883 7.17188 110.164 6.86719 109.258 6.86719ZM124.82 18C124.695 17.75 124.594 17.3047 124.516 16.6641C123.508 17.7109 122.305 18.2344 120.906 18.2344C119.656 18.2344 118.629 17.8828 117.824 17.1797C117.027 16.4688 116.629 15.5703 116.629 14.4844C116.629 13.1641 117.129 12.1406 118.129 11.4141C119.137 10.6797 120.551 10.3125 122.371 10.3125H124.48V9.31641C124.48 8.55859 124.254 7.95703 123.801 7.51172C123.348 7.05859 122.68 6.83203 121.797 6.83203C121.023 6.83203 120.375 7.02734 119.852 7.41797C119.328 7.80859 119.066 8.28125 119.066 8.83594H116.887C116.887 8.20312 117.109 7.59375 117.555 7.00781C118.008 6.41406 118.617 5.94531 119.383 5.60156C120.156 5.25781 121.004 5.08594 121.926 5.08594C123.387 5.08594 124.531 5.45312 125.359 6.1875C126.188 6.91406 126.617 7.91797 126.648 9.19922V15.0352C126.648 16.1992 126.797 17.125 127.094 17.8125V18H124.82ZM121.223 16.3477C121.902 16.3477 122.547 16.1719 123.156 15.8203C123.766 15.4688 124.207 15.0117 124.48 14.4492V11.8477H122.781C120.125 11.8477 118.797 12.625 118.797 14.1797C118.797 14.8594 119.023 15.3906 119.477 15.7734C119.93 16.1562 120.512 16.3477 121.223 16.3477ZM132.402 18H130.234V0H132.402V18ZM138.238 18H136.07V5.32031H138.238V18ZM135.895 1.95703C135.895 1.60547 136 1.30859 136.211 1.06641C136.43 0.824219 136.75 0.703125 137.172 0.703125C137.594 0.703125 137.914 0.824219 138.133 1.06641C138.352 1.30859 138.461 1.60547 138.461 1.95703C138.461 2.30859 138.352 2.60156 138.133 2.83594C137.914 3.07031 137.594 3.1875 137.172 3.1875C136.75 3.1875 136.43 3.07031 136.211 2.83594C136 2.60156 135.895 2.30859 135.895 1.95703ZM143.758 16.2305H151.176V18H141.109V16.4062L148.105 7.11328H141.215V5.32031H150.824V6.85547L143.758 16.2305ZM161.453 18C161.328 17.75 161.227 17.3047 161.148 16.6641C160.141 17.7109 158.938 18.2344 157.539 18.2344C156.289 18.2344 155.262 17.8828 154.457 17.1797C153.66 16.4688 153.262 15.5703 153.262 14.4844C153.262 13.1641 153.762 12.1406 154.762 11.4141C155.77 10.6797 157.184 10.3125 159.004 10.3125H161.113V9.31641C161.113 8.55859 160.887 7.95703 160.434 7.51172C159.98 7.05859 159.312 6.83203 158.43 6.83203C157.656 6.83203 157.008 7.02734 156.484 7.41797C155.961 7.80859 155.699 8.28125 155.699 8.83594H153.52C153.52 8.20312 153.742 7.59375 154.188 7.00781C154.641 6.41406 155.25 5.94531 156.016 5.60156C156.789 5.25781 157.637 5.08594 158.559 5.08594C160.02 5.08594 161.164 5.45312 161.992 6.1875C162.82 6.91406 163.25 7.91797 163.281 9.19922V15.0352C163.281 16.1992 163.43 17.125 163.727 17.8125V18H161.453ZM157.855 16.3477C158.535 16.3477 159.18 16.1719 159.789 15.8203C160.398 15.4688 160.84 15.0117 161.113 14.4492V11.8477H159.414C156.758 11.8477 155.43 12.625 155.43 14.1797C155.43 14.8594 155.656 15.3906 156.109 15.7734C156.562 16.1562 157.145 16.3477 157.855 16.3477ZM172.809 7.26562C172.48 7.21094 172.125 7.18359 171.742 7.18359C170.32 7.18359 169.355 7.78906 168.848 9V18H166.68V5.32031H168.789L168.824 6.78516C169.535 5.65234 170.543 5.08594 171.848 5.08594C172.27 5.08594 172.59 5.14062 172.809 5.25V7.26562ZM186.027 18.2344C184.309 18.2344 182.91 17.6719 181.832 16.5469C180.754 15.4141 180.215 13.9023 180.215 12.0117V11.6133C180.215 10.3555 180.453 9.23438 180.93 8.25C181.414 7.25781 182.086 6.48438 182.945 5.92969C183.812 5.36719 184.75 5.08594 185.758 5.08594C187.406 5.08594 188.688 5.62891 189.602 6.71484C190.516 7.80078 190.973 9.35547 190.973 11.3789V12.2812H182.383C182.414 13.5312 182.777 14.543 183.473 15.3164C184.176 16.082 185.066 16.4648 186.145 16.4648C186.91 16.4648 187.559 16.3086 188.09 15.9961C188.621 15.6836 189.086 15.2695 189.484 14.7539L190.809 15.7852C189.746 17.418 188.152 18.2344 186.027 18.2344ZM185.758 6.86719C184.883 6.86719 184.148 7.1875 183.555 7.82812C182.961 8.46094 182.594 9.35156 182.453 10.5H188.805V10.3359C188.742 9.23438 188.445 8.38281 187.914 7.78125C187.383 7.17188 186.664 6.86719 185.758 6.86719ZM200.875 14.6367C200.875 14.0508 200.652 13.5977 200.207 13.2773C199.77 12.9492 199 12.668 197.898 12.4336C196.805 12.1992 195.934 11.918 195.285 11.5898C194.645 11.2617 194.168 10.8711 193.855 10.418C193.551 9.96484 193.398 9.42578 193.398 8.80078C193.398 7.76172 193.836 6.88281 194.711 6.16406C195.594 5.44531 196.719 5.08594 198.086 5.08594C199.523 5.08594 200.688 5.45703 201.578 6.19922C202.477 6.94141 202.926 7.89062 202.926 9.04688H200.746C200.746 8.45312 200.492 7.94141 199.984 7.51172C199.484 7.08203 198.852 6.86719 198.086 6.86719C197.297 6.86719 196.68 7.03906 196.234 7.38281C195.789 7.72656 195.566 8.17578 195.566 8.73047C195.566 9.25391 195.773 9.64844 196.188 9.91406C196.602 10.1797 197.348 10.4336 198.426 10.6758C199.512 10.918 200.391 11.207 201.062 11.543C201.734 11.8789 202.23 12.2852 202.551 12.7617C202.879 13.2305 203.043 13.8047 203.043 14.4844C203.043 15.6172 202.59 16.5273 201.684 17.2148C200.777 17.8945 199.602 18.2344 198.156 18.2344C197.141 18.2344 196.242 18.0547 195.461 17.6953C194.68 17.3359 194.066 16.8359 193.621 16.1953C193.184 15.5469 192.965 14.8477 192.965 14.0977H195.133C195.172 14.8242 195.461 15.4023 196 15.832C196.547 16.2539 197.266 16.4648 198.156 16.4648C198.977 16.4648 199.633 16.3008 200.125 15.9727C200.625 15.6367 200.875 15.1914 200.875 14.6367ZM208.809 2.25V5.32031H211.176V6.99609H208.809V14.8594C208.809 15.3672 208.914 15.75 209.125 16.0078C209.336 16.2578 209.695 16.3828 210.203 16.3828C210.453 16.3828 210.797 16.3359 211.234 16.2422V18C210.664 18.1562 210.109 18.2344 209.57 18.2344C208.602 18.2344 207.871 17.9414 207.379 17.3555C206.887 16.7695 206.641 15.9375 206.641 14.8594V6.99609H204.332V5.32031H206.641V2.25H208.809ZM221.547 18C221.422 17.75 221.32 17.3047 221.242 16.6641C220.234 17.7109 219.031 18.2344 217.633 18.2344C216.383 18.2344 215.355 17.8828 214.551 17.1797C213.754 16.4688 213.355 15.5703 213.355 14.4844C213.355 13.1641 213.855 12.1406 214.855 11.4141C215.863 10.6797 217.277 10.3125 219.098 10.3125H221.207V9.31641C221.207 8.55859 220.98 7.95703 220.527 7.51172C220.074 7.05859 219.406 6.83203 218.523 6.83203C217.75 6.83203 217.102 7.02734 216.578 7.41797C216.055 7.80859 215.793 8.28125 215.793 8.83594H213.613C213.613 8.20312 213.836 7.59375 214.281 7.00781C214.734 6.41406 215.344 5.94531 216.109 5.60156C216.883 5.25781 217.73 5.08594 218.652 5.08594C220.113 5.08594 221.258 5.45312 222.086 6.1875C222.914 6.91406 223.344 7.91797 223.375 9.19922V15.0352C223.375 16.1992 223.523 17.125 223.82 17.8125V18H221.547ZM217.949 16.3477C218.629 16.3477 219.273 16.1719 219.883 15.8203C220.492 15.4688 220.934 15.0117 221.207 14.4492V11.8477H219.508C216.852 11.8477 215.523 12.625 215.523 14.1797C215.523 14.8594 215.75 15.3906 216.203 15.7734C216.656 16.1562 217.238 16.3477 217.949 16.3477ZM240.555 18C240.43 17.75 240.328 17.3047 240.25 16.6641C239.242 17.7109 238.039 18.2344 236.641 18.2344C235.391 18.2344 234.363 17.8828 233.559 17.1797C232.762 16.4688 232.363 15.5703 232.363 14.4844C232.363 13.1641 232.863 12.1406 233.863 11.4141C234.871 10.6797 236.285 10.3125 238.105 10.3125H240.215V9.31641C240.215 8.55859 239.988 7.95703 239.535 7.51172C239.082 7.05859 238.414 6.83203 237.531 6.83203C236.758 6.83203 236.109 7.02734 235.586 7.41797C235.062 7.80859 234.801 8.28125 234.801 8.83594H232.621C232.621 8.20312 232.844 7.59375 233.289 7.00781C233.742 6.41406 234.352 5.94531 235.117 5.60156C235.891 5.25781 236.738 5.08594 237.66 5.08594C239.121 5.08594 240.266 5.45312 241.094 6.1875C241.922 6.91406 242.352 7.91797 242.383 9.19922V15.0352C242.383 16.1992 242.531 17.125 242.828 17.8125V18H240.555ZM236.957 16.3477C237.637 16.3477 238.281 16.1719 238.891 15.8203C239.5 15.4688 239.941 15.0117 240.215 14.4492V11.8477H238.516C235.859 11.8477 234.531 12.625 234.531 14.1797C234.531 14.8594 234.758 15.3906 235.211 15.7734C235.664 16.1562 236.246 16.3477 236.957 16.3477ZM250.867 16.4648C251.641 16.4648 252.316 16.2305 252.895 15.7617C253.473 15.293 253.793 14.707 253.855 14.0039H255.906C255.867 14.7305 255.617 15.4219 255.156 16.0781C254.695 16.7344 254.078 17.2578 253.305 17.6484C252.539 18.0391 251.727 18.2344 250.867 18.2344C249.141 18.2344 247.766 17.6602 246.742 16.5117C245.727 15.3555 245.219 13.7773 245.219 11.7773V11.4141C245.219 10.1797 245.445 9.08203 245.898 8.12109C246.352 7.16016 247 6.41406 247.844 5.88281C248.695 5.35156 249.699 5.08594 250.855 5.08594C252.277 5.08594 253.457 5.51172 254.395 6.36328C255.34 7.21484 255.844 8.32031 255.906 9.67969H253.855C253.793 8.85938 253.48 8.1875 252.918 7.66406C252.363 7.13281 251.676 6.86719 250.855 6.86719C249.754 6.86719 248.898 7.26562 248.289 8.0625C247.688 8.85156 247.387 9.99609 247.387 11.4961V11.9062C247.387 13.3672 247.688 14.4922 248.289 15.2812C248.891 16.0703 249.75 16.4648 250.867 16.4648ZM261.285 2.25V5.32031H263.652V6.99609H261.285V14.8594C261.285 15.3672 261.391 15.75 261.602 16.0078C261.812 16.2578 262.172 16.3828 262.68 16.3828C262.93 16.3828 263.273 16.3359 263.711 16.2422V18C263.141 18.1562 262.586 18.2344 262.047 18.2344C261.078 18.2344 260.348 17.9414 259.855 17.3555C259.363 16.7695 259.117 15.9375 259.117 14.8594V6.99609H256.809V5.32031H259.117V2.25H261.285ZM268.551 18H266.383V5.32031H268.551V18ZM266.207 1.95703C266.207 1.60547 266.312 1.30859 266.523 1.06641C266.742 0.824219 267.062 0.703125 267.484 0.703125C267.906 0.703125 268.227 0.824219 268.445 1.06641C268.664 1.30859 268.773 1.60547 268.773 1.95703C268.773 2.30859 268.664 2.60156 268.445 2.83594C268.227 3.07031 267.906 3.1875 267.484 3.1875C267.062 3.1875 266.742 3.07031 266.523 2.83594C266.312 2.60156 266.207 2.30859 266.207 1.95703ZM276.215 15.0586L279.355 5.32031H281.57L277.023 18H275.371L270.777 5.32031H272.992L276.215 15.0586ZM286.012 18H283.844V5.32031H286.012V18ZM283.668 1.95703C283.668 1.60547 283.773 1.30859 283.984 1.06641C284.203 0.824219 284.523 0.703125 284.945 0.703125C285.367 0.703125 285.688 0.824219 285.906 1.06641C286.125 1.30859 286.234 1.60547 286.234 1.95703C286.234 2.30859 286.125 2.60156 285.906 2.83594C285.688 3.07031 285.367 3.1875 284.945 3.1875C284.523 3.1875 284.203 3.07031 283.984 2.83594C283.773 2.60156 283.668 2.30859 283.668 1.95703ZM288.965 11.5547C288.965 9.60938 289.426 8.04688 290.348 6.86719C291.27 5.67969 292.477 5.08594 293.969 5.08594C295.453 5.08594 296.629 5.59375 297.496 6.60938V0H299.664V18H297.672L297.566 16.6406C296.699 17.7031 295.492 18.2344 293.945 18.2344C292.477 18.2344 291.277 17.6328 290.348 16.4297C289.426 15.2266 288.965 13.6562 288.965 11.7188V11.5547ZM291.133 11.8008C291.133 13.2383 291.43 14.3633 292.023 15.1758C292.617 15.9883 293.438 16.3945 294.484 16.3945C295.859 16.3945 296.863 15.7773 297.496 14.543V8.71875C296.848 7.52344 295.852 6.92578 294.508 6.92578C293.445 6.92578 292.617 7.33594 292.023 8.15625C291.43 8.97656 291.133 10.1914 291.133 11.8008ZM310.867 18C310.742 17.75 310.641 17.3047 310.562 16.6641C309.555 17.7109 308.352 18.2344 306.953 18.2344C305.703 18.2344 304.676 17.8828 303.871 17.1797C303.074 16.4688 302.676 15.5703 302.676 14.4844C302.676 13.1641 303.176 12.1406 304.176 11.4141C305.184 10.6797 306.598 10.3125 308.418 10.3125H310.527V9.31641C310.527 8.55859 310.301 7.95703 309.848 7.51172C309.395 7.05859 308.727 6.83203 307.844 6.83203C307.07 6.83203 306.422 7.02734 305.898 7.41797C305.375 7.80859 305.113 8.28125 305.113 8.83594H302.934C302.934 8.20312 303.156 7.59375 303.602 7.00781C304.055 6.41406 304.664 5.94531 305.43 5.60156C306.203 5.25781 307.051 5.08594 307.973 5.08594C309.434 5.08594 310.578 5.45312 311.406 6.1875C312.234 6.91406 312.664 7.91797 312.695 9.19922V15.0352C312.695 16.1992 312.844 17.125 313.141 17.8125V18H310.867ZM307.27 16.3477C307.949 16.3477 308.594 16.1719 309.203 15.8203C309.812 15.4688 310.254 15.0117 310.527 14.4492V11.8477H308.828C306.172 11.8477 304.844 12.625 304.844 14.1797C304.844 14.8594 305.07 15.3906 305.523 15.7734C305.977 16.1562 306.559 16.3477 307.27 16.3477ZM315.566 11.5547C315.566 9.60938 316.027 8.04688 316.949 6.86719C317.871 5.67969 319.078 5.08594 320.57 5.08594C322.055 5.08594 323.23 5.59375 324.098 6.60938V0H326.266V18H324.273L324.168 16.6406C323.301 17.7031 322.094 18.2344 320.547 18.2344C319.078 18.2344 317.879 17.6328 316.949 16.4297C316.027 15.2266 315.566 13.6562 315.566 11.7188V11.5547ZM317.734 11.8008C317.734 13.2383 318.031 14.3633 318.625 15.1758C319.219 15.9883 320.039 16.3945 321.086 16.3945C322.461 16.3945 323.465 15.7773 324.098 14.543V8.71875C323.449 7.52344 322.453 6.92578 321.109 6.92578C320.047 6.92578 319.219 7.33594 318.625 8.15625C318.031 8.97656 317.734 10.1914 317.734 11.8008ZM339.777 15.0586L342.918 5.32031H345.133L340.586 18H338.934L334.34 5.32031H336.555L339.777 15.0586ZM355.047 16.7461C354.203 17.7383 352.965 18.2344 351.332 18.2344C349.98 18.2344 348.949 17.8438 348.238 17.0625C347.535 16.2734 347.18 15.1094 347.172 13.5703V5.32031H349.34V13.5117C349.34 15.4336 350.121 16.3945 351.684 16.3945C353.34 16.3945 354.441 15.7773 354.988 14.543V5.32031H357.156V18H355.094L355.047 16.7461ZM365.723 18.2344C364.004 18.2344 362.605 17.6719 361.527 16.5469C360.449 15.4141 359.91 13.9023 359.91 12.0117V11.6133C359.91 10.3555 360.148 9.23438 360.625 8.25C361.109 7.25781 361.781 6.48438 362.641 5.92969C363.508 5.36719 364.445 5.08594 365.453 5.08594C367.102 5.08594 368.383 5.62891 369.297 6.71484C370.211 7.80078 370.668 9.35547 370.668 11.3789V12.2812H362.078C362.109 13.5312 362.473 14.543 363.168 15.3164C363.871 16.082 364.762 16.4648 365.84 16.4648C366.605 16.4648 367.254 16.3086 367.785 15.9961C368.316 15.6836 368.781 15.2695 369.18 14.7539L370.504 15.7852C369.441 17.418 367.848 18.2344 365.723 18.2344ZM365.453 6.86719C364.578 6.86719 363.844 7.1875 363.25 7.82812C362.656 8.46094 362.289 9.35156 362.148 10.5H368.5V10.3359C368.438 9.23438 368.141 8.38281 367.609 7.78125C367.078 7.17188 366.359 6.86719 365.453 6.86719ZM375.543 18H373.375V0H375.543V18ZM383.207 15.0586L386.348 5.32031H388.562L384.016 18H382.363L377.77 5.32031H379.984L383.207 15.0586ZM395.746 18.2344C394.027 18.2344 392.629 17.6719 391.551 16.5469C390.473 15.4141 389.934 13.9023 389.934 12.0117V11.6133C389.934 10.3555 390.172 9.23438 390.648 8.25C391.133 7.25781 391.805 6.48438 392.664 5.92969C393.531 5.36719 394.469 5.08594 395.477 5.08594C397.125 5.08594 398.406 5.62891 399.32 6.71484C400.234 7.80078 400.691 9.35547 400.691 11.3789V12.2812H392.102C392.133 13.5312 392.496 14.543 393.191 15.3164C393.895 16.082 394.785 16.4648 395.863 16.4648C396.629 16.4648 397.277 16.3086 397.809 15.9961C398.34 15.6836 398.805 15.2695 399.203 14.7539L400.527 15.7852C399.465 17.418 397.871 18.2344 395.746 18.2344ZM395.477 6.86719C394.602 6.86719 393.867 7.1875 393.273 7.82812C392.68 8.46094 392.312 9.35156 392.172 10.5H398.523V10.3359C398.461 9.23438 398.164 8.38281 397.633 7.78125C397.102 7.17188 396.383 6.86719 395.477 6.86719ZM416.992 18C416.867 17.75 416.766 17.3047 416.688 16.6641C415.68 17.7109 414.477 18.2344 413.078 18.2344C411.828 18.2344 410.801 17.8828 409.996 17.1797C409.199 16.4688 408.801 15.5703 408.801 14.4844C408.801 13.1641 409.301 12.1406 410.301 11.4141C411.309 10.6797 412.723 10.3125 414.543 10.3125H416.652V9.31641C416.652 8.55859 416.426 7.95703 415.973 7.51172C415.52 7.05859 414.852 6.83203 413.969 6.83203C413.195 6.83203 412.547 7.02734 412.023 7.41797C411.5 7.80859 411.238 8.28125 411.238 8.83594H409.059C409.059 8.20312 409.281 7.59375 409.727 7.00781C410.18 6.41406 410.789 5.94531 411.555 5.60156C412.328 5.25781 413.176 5.08594 414.098 5.08594C415.559 5.08594 416.703 5.45312 417.531 6.1875C418.359 6.91406 418.789 7.91797 418.82 9.19922V15.0352C418.82 16.1992 418.969 17.125 419.266 17.8125V18H416.992ZM413.395 16.3477C414.074 16.3477 414.719 16.1719 415.328 15.8203C415.938 15.4688 416.379 15.0117 416.652 14.4492V11.8477H414.953C412.297 11.8477 410.969 12.625 410.969 14.1797C410.969 14.8594 411.195 15.3906 411.648 15.7734C412.102 16.1562 412.684 16.3477 413.395 16.3477ZM430.527 18H428.359V0H430.527V18ZM439.27 18.2344C437.551 18.2344 436.152 17.6719 435.074 16.5469C433.996 15.4141 433.457 13.9023 433.457 12.0117V11.6133C433.457 10.3555 433.695 9.23438 434.172 8.25C434.656 7.25781 435.328 6.48438 436.188 5.92969C437.055 5.36719 437.992 5.08594 439 5.08594C440.648 5.08594 441.93 5.62891 442.844 6.71484C443.758 7.80078 444.215 9.35547 444.215 11.3789V12.2812H435.625C435.656 13.5312 436.02 14.543 436.715 15.3164C437.418 16.082 438.309 16.4648 439.387 16.4648C440.152 16.4648 440.801 16.3086 441.332 15.9961C441.863 15.6836 442.328 15.2695 442.727 14.7539L444.051 15.7852C442.988 17.418 441.395 18.2344 439.27 18.2344ZM439 6.86719C438.125 6.86719 437.391 7.1875 436.797 7.82812C436.203 8.46094 435.836 9.35156 435.695 10.5H442.047V10.3359C441.984 9.23438 441.688 8.38281 441.156 7.78125C440.625 7.17188 439.906 6.86719 439 6.86719ZM451.996 18.2344C450.277 18.2344 448.879 17.6719 447.801 16.5469C446.723 15.4141 446.184 13.9023 446.184 12.0117V11.6133C446.184 10.3555 446.422 9.23438 446.898 8.25C447.383 7.25781 448.055 6.48438 448.914 5.92969C449.781 5.36719 450.719 5.08594 451.727 5.08594C453.375 5.08594 454.656 5.62891 455.57 6.71484C456.484 7.80078 456.941 9.35547 456.941 11.3789V12.2812H448.352C448.383 13.5312 448.746 14.543 449.441 15.3164C450.145 16.082 451.035 16.4648 452.113 16.4648C452.879 16.4648 453.527 16.3086 454.059 15.9961C454.59 15.6836 455.055 15.2695 455.453 14.7539L456.777 15.7852C455.715 17.418 454.121 18.2344 451.996 18.2344ZM451.727 6.86719C450.852 6.86719 450.117 7.1875 449.523 7.82812C448.93 8.46094 448.562 9.35156 448.422 10.5H454.773V10.3359C454.711 9.23438 454.414 8.38281 453.883 7.78125C453.352 7.17188 452.633 6.86719 451.727 6.86719ZM465.59 7.26562C465.262 7.21094 464.906 7.18359 464.523 7.18359C463.102 7.18359 462.137 7.78906 461.629 9V18H459.461V5.32031H461.57L461.605 6.78516C462.316 5.65234 463.324 5.08594 464.629 5.08594C465.051 5.08594 465.371 5.14062 465.59 5.25V7.26562ZM478.809 18.2344C477.09 18.2344 475.691 17.6719 474.613 16.5469C473.535 15.4141 472.996 13.9023 472.996 12.0117V11.6133C472.996 10.3555 473.234 9.23438 473.711 8.25C474.195 7.25781 474.867 6.48438 475.727 5.92969C476.594 5.36719 477.531 5.08594 478.539 5.08594C480.188 5.08594 481.469 5.62891 482.383 6.71484C483.297 7.80078 483.754 9.35547 483.754 11.3789V12.2812H475.164C475.195 13.5312 475.559 14.543 476.254 15.3164C476.957 16.082 477.848 16.4648 478.926 16.4648C479.691 16.4648 480.34 16.3086 480.871 15.9961C481.402 15.6836 481.867 15.2695 482.266 14.7539L483.59 15.7852C482.527 17.418 480.934 18.2344 478.809 18.2344ZM478.539 6.86719C477.664 6.86719 476.93 7.1875 476.336 7.82812C475.742 8.46094 475.375 9.35156 475.234 10.5H481.586V10.3359C481.523 9.23438 481.227 8.38281 480.695 7.78125C480.164 7.17188 479.445 6.86719 478.539 6.86719ZM488.629 18H486.461V0H488.629V18ZM508.773 11.8008C508.773 13.7305 508.332 15.2852 507.449 16.4648C506.566 17.6445 505.371 18.2344 503.863 18.2344C502.324 18.2344 501.113 17.7461 500.23 16.7695V22.875H498.062V5.32031H500.043L500.148 6.72656C501.031 5.63281 502.258 5.08594 503.828 5.08594C505.352 5.08594 506.555 5.66016 507.438 6.80859C508.328 7.95703 508.773 9.55469 508.773 11.6016V11.8008ZM506.605 11.5547C506.605 10.125 506.301 8.99609 505.691 8.16797C505.082 7.33984 504.246 6.92578 503.184 6.92578C501.871 6.92578 500.887 7.50781 500.23 8.67188V14.7305C500.879 15.8867 501.871 16.4648 503.207 16.4648C504.246 16.4648 505.07 16.0547 505.68 15.2344C506.297 14.4062 506.605 13.1797 506.605 11.5547ZM510.965 11.543C510.965 10.3008 511.207 9.18359 511.691 8.19141C512.184 7.19922 512.863 6.43359 513.73 5.89453C514.605 5.35547 515.602 5.08594 516.719 5.08594C518.445 5.08594 519.84 5.68359 520.902 6.87891C521.973 8.07422 522.508 9.66406 522.508 11.6484V11.8008C522.508 13.0352 522.27 14.1445 521.793 15.1289C521.324 16.1055 520.648 16.8672 519.766 17.4141C518.891 17.9609 517.883 18.2344 516.742 18.2344C515.023 18.2344 513.629 17.6367 512.559 16.4414C511.496 15.2461 510.965 13.6641 510.965 11.6953V11.543ZM513.145 11.8008C513.145 13.207 513.469 14.3359 514.117 15.1875C514.773 16.0391 515.648 16.4648 516.742 16.4648C517.844 16.4648 518.719 16.0352 519.367 15.1758C520.016 14.3086 520.34 13.0977 520.34 11.543C520.34 10.1523 520.008 9.02734 519.344 8.16797C518.688 7.30078 517.812 6.86719 516.719 6.86719C515.648 6.86719 514.785 7.29297 514.129 8.14453C513.473 8.99609 513.145 10.2148 513.145 11.8008ZM530.488 18.2344C528.77 18.2344 527.371 17.6719 526.293 16.5469C525.215 15.4141 524.676 13.9023 524.676 12.0117V11.6133C524.676 10.3555 524.914 9.23438 525.391 8.25C525.875 7.25781 526.547 6.48438 527.406 5.92969C528.273 5.36719 529.211 5.08594 530.219 5.08594C531.867 5.08594 533.148 5.62891 534.062 6.71484C534.977 7.80078 535.434 9.35547 535.434 11.3789V12.2812H526.844C526.875 13.5312 527.238 14.543 527.934 15.3164C528.637 16.082 529.527 16.4648 530.605 16.4648C531.371 16.4648 532.02 16.3086 532.551 15.9961C533.082 15.6836 533.547 15.2695 533.945 14.7539L535.27 15.7852C534.207 17.418 532.613 18.2344 530.488 18.2344ZM530.219 6.86719C529.344 6.86719 528.609 7.1875 528.016 7.82812C527.422 8.46094 527.055 9.35156 526.914 10.5H533.266V10.3359C533.203 9.23438 532.906 8.38281 532.375 7.78125C531.844 7.17188 531.125 6.86719 530.219 6.86719ZM539.992 5.32031L540.051 6.72656C540.98 5.63281 542.234 5.08594 543.812 5.08594C545.586 5.08594 546.793 5.76562 547.434 7.125C547.855 6.51562 548.402 6.02344 549.074 5.64844C549.754 5.27344 550.555 5.08594 551.477 5.08594C554.258 5.08594 555.672 6.55859 555.719 9.50391V18H553.551V9.63281C553.551 8.72656 553.344 8.05078 552.93 7.60547C552.516 7.15234 551.82 6.92578 550.844 6.92578C550.039 6.92578 549.371 7.16797 548.84 7.65234C548.309 8.12891 548 8.77344 547.914 9.58594V18H545.734V9.69141C545.734 7.84766 544.832 6.92578 543.027 6.92578C541.605 6.92578 540.633 7.53125 540.109 8.74219V18H537.941V5.32031H539.992ZM566.828 18C566.703 17.75 566.602 17.3047 566.523 16.6641C565.516 17.7109 564.312 18.2344 562.914 18.2344C561.664 18.2344 560.637 17.8828 559.832 17.1797C559.035 16.4688 558.637 15.5703 558.637 14.4844C558.637 13.1641 559.137 12.1406 560.137 11.4141C561.145 10.6797 562.559 10.3125 564.379 10.3125H566.488V9.31641C566.488 8.55859 566.262 7.95703 565.809 7.51172C565.355 7.05859 564.688 6.83203 563.805 6.83203C563.031 6.83203 562.383 7.02734 561.859 7.41797C561.336 7.80859 561.074 8.28125 561.074 8.83594H558.895C558.895 8.20312 559.117 7.59375 559.562 7.00781C560.016 6.41406 560.625 5.94531 561.391 5.60156C562.164 5.25781 563.012 5.08594 563.934 5.08594C565.395 5.08594 566.539 5.45312 567.367 6.1875C568.195 6.91406 568.625 7.91797 568.656 9.19922V15.0352C568.656 16.1992 568.805 17.125 569.102 17.8125V18H566.828ZM563.23 16.3477C563.91 16.3477 564.555 16.1719 565.164 15.8203C565.773 15.4688 566.215 15.0117 566.488 14.4492V11.8477H564.789C562.133 11.8477 560.805 12.625 560.805 14.1797C560.805 14.8594 561.031 15.3906 561.484 15.7734C561.938 16.1562 562.52 16.3477 563.23 16.3477Z" fill="black"/>
<path d="M579.613 1.59375L579.262 5.78906H577.961L577.973 0H579.613V1.59375ZM582.777 1.59375L582.426 5.78906H581.125L581.137 0H582.777V1.59375ZM595.68 10.1133H588.285V16.1602H596.875V18H586.035V0.9375H596.758V2.78906H588.285V8.27344H595.68V10.1133ZM601.691 18H599.523V0H601.691V18ZM618.508 14.6367C618.508 14.0508 618.285 13.5977 617.84 13.2773C617.402 12.9492 616.633 12.668 615.531 12.4336C614.438 12.1992 613.566 11.918 612.918 11.5898C612.277 11.2617 611.801 10.8711 611.488 10.418C611.184 9.96484 611.031 9.42578 611.031 8.80078C611.031 7.76172 611.469 6.88281 612.344 6.16406C613.227 5.44531 614.352 5.08594 615.719 5.08594C617.156 5.08594 618.32 5.45703 619.211 6.19922C620.109 6.94141 620.559 7.89062 620.559 9.04688H618.379C618.379 8.45312 618.125 7.94141 617.617 7.51172C617.117 7.08203 616.484 6.86719 615.719 6.86719C614.93 6.86719 614.312 7.03906 613.867 7.38281C613.422 7.72656 613.199 8.17578 613.199 8.73047C613.199 9.25391 613.406 9.64844 613.82 9.91406C614.234 10.1797 614.98 10.4336 616.059 10.6758C617.145 10.918 618.023 11.207 618.695 11.543C619.367 11.8789 619.863 12.2852 620.184 12.7617C620.512 13.2305 620.676 13.8047 620.676 14.4844C620.676 15.6172 620.223 16.5273 619.316 17.2148C618.41 17.8945 617.234 18.2344 615.789 18.2344C614.773 18.2344 613.875 18.0547 613.094 17.6953C612.312 17.3359 611.699 16.8359 611.254 16.1953C610.816 15.5469 610.598 14.8477 610.598 14.0977H612.766C612.805 14.8242 613.094 15.4023 613.633 15.832C614.18 16.2539 614.898 16.4648 615.789 16.4648C616.609 16.4648 617.266 16.3008 617.758 15.9727C618.258 15.6367 618.508 15.1914 618.508 14.6367ZM631.328 18C631.203 17.75 631.102 17.3047 631.023 16.6641C630.016 17.7109 628.812 18.2344 627.414 18.2344C626.164 18.2344 625.137 17.8828 624.332 17.1797C623.535 16.4688 623.137 15.5703 623.137 14.4844C623.137 13.1641 623.637 12.1406 624.637 11.4141C625.645 10.6797 627.059 10.3125 628.879 10.3125H630.988V9.31641C630.988 8.55859 630.762 7.95703 630.309 7.51172C629.855 7.05859 629.188 6.83203 628.305 6.83203C627.531 6.83203 626.883 7.02734 626.359 7.41797C625.836 7.80859 625.574 8.28125 625.574 8.83594H623.395C623.395 8.20312 623.617 7.59375 624.062 7.00781C624.516 6.41406 625.125 5.94531 625.891 5.60156C626.664 5.25781 627.512 5.08594 628.434 5.08594C629.895 5.08594 631.039 5.45312 631.867 6.1875C632.695 6.91406 633.125 7.91797 633.156 9.19922V15.0352C633.156 16.1992 633.305 17.125 633.602 17.8125V18H631.328ZM627.73 16.3477C628.41 16.3477 629.055 16.1719 629.664 15.8203C630.273 15.4688 630.715 15.0117 630.988 14.4492V11.8477H629.289C626.633 11.8477 625.305 12.625 625.305 14.1797C625.305 14.8594 625.531 15.3906 625.984 15.7734C626.438 16.1562 627.02 16.3477 627.73 16.3477ZM647.266 11.8008C647.266 13.7305 646.824 15.2852 645.941 16.4648C645.059 17.6445 643.863 18.2344 642.355 18.2344C640.816 18.2344 639.605 17.7461 638.723 16.7695V22.875H636.555V5.32031H638.535L638.641 6.72656C639.523 5.63281 640.75 5.08594 642.32 5.08594C643.844 5.08594 645.047 5.66016 645.93 6.80859C646.82 7.95703 647.266 9.55469 647.266 11.6016V11.8008ZM645.098 11.5547C645.098 10.125 644.793 8.99609 644.184 8.16797C643.574 7.33984 642.738 6.92578 641.676 6.92578C640.363 6.92578 639.379 7.50781 638.723 8.67188V14.7305C639.371 15.8867 640.363 16.4648 641.699 16.4648C642.738 16.4648 643.562 16.0547 644.172 15.2344C644.789 14.4062 645.098 13.1797 645.098 11.5547ZM652.387 18H650.219V5.32031H652.387V18ZM650.043 1.95703C650.043 1.60547 650.148 1.30859 650.359 1.06641C650.578 0.824219 650.898 0.703125 651.32 0.703125C651.742 0.703125 652.062 0.824219 652.281 1.06641C652.5 1.30859 652.609 1.60547 652.609 1.95703C652.609 2.30859 652.5 2.60156 652.281 2.83594C652.062 3.07031 651.742 3.1875 651.32 3.1875C650.898 3.1875 650.578 3.07031 650.359 2.83594C650.148 2.60156 650.043 2.30859 650.043 1.95703ZM658.809 2.25V5.32031H661.176V6.99609H658.809V14.8594C658.809 15.3672 658.914 15.75 659.125 16.0078C659.336 16.2578 659.695 16.3828 660.203 16.3828C660.453 16.3828 660.797 16.3359 661.234 16.2422V18C660.664 18.1562 660.109 18.2344 659.57 18.2344C658.602 18.2344 657.871 17.9414 657.379 17.3555C656.887 16.7695 656.641 15.9375 656.641 14.8594V6.99609H654.332V5.32031H656.641V2.25H658.809ZM662.91 11.543C662.91 10.3008 663.152 9.18359 663.637 8.19141C664.129 7.19922 664.809 6.43359 665.676 5.89453C666.551 5.35547 667.547 5.08594 668.664 5.08594C670.391 5.08594 671.785 5.68359 672.848 6.87891C673.918 8.07422 674.453 9.66406 674.453 11.6484V11.8008C674.453 13.0352 674.215 14.1445 673.738 15.1289C673.27 16.1055 672.594 16.8672 671.711 17.4141C670.836 17.9609 669.828 18.2344 668.688 18.2344C666.969 18.2344 665.574 17.6367 664.504 16.4414C663.441 15.2461 662.91 13.6641 662.91 11.6953V11.543ZM665.09 11.8008C665.09 13.207 665.414 14.3359 666.062 15.1875C666.719 16.0391 667.594 16.4648 668.688 16.4648C669.789 16.4648 670.664 16.0352 671.312 15.1758C671.961 14.3086 672.285 13.0977 672.285 11.543C672.285 10.1523 671.953 9.02734 671.289 8.16797C670.633 7.30078 669.758 6.86719 668.664 6.86719C667.594 6.86719 666.73 7.29297 666.074 8.14453C665.418 8.99609 665.09 10.2148 665.09 11.8008ZM696.062 15.7617C695.484 16.5898 694.676 17.2109 693.637 17.625C692.605 18.0312 691.402 18.2344 690.027 18.2344C688.637 18.2344 687.402 17.9102 686.324 17.2617C685.246 16.6055 684.41 15.6758 683.816 14.4727C683.23 13.2695 682.93 11.875 682.914 10.2891V8.80078C682.914 6.23047 683.512 4.23828 684.707 2.82422C685.91 1.41016 687.598 0.703125 689.77 0.703125C691.551 0.703125 692.984 1.16016 694.07 2.07422C695.156 2.98047 695.82 4.26953 696.062 5.94141H693.812C693.391 3.68359 692.047 2.55469 689.781 2.55469C688.273 2.55469 687.129 3.08594 686.348 4.14844C685.574 5.20312 685.184 6.73438 685.176 8.74219V10.1367C685.176 12.0508 685.613 13.5742 686.488 14.707C687.363 15.832 688.547 16.3945 690.039 16.3945C690.883 16.3945 691.621 16.3008 692.254 16.1133C692.887 15.9258 693.41 15.6094 693.824 15.1641V11.332H689.875V9.50391H696.062V15.7617ZM701.84 18H699.672V0H701.84V18ZM704.746 11.543C704.746 10.3008 704.988 9.18359 705.473 8.19141C705.965 7.19922 706.645 6.43359 707.512 5.89453C708.387 5.35547 709.383 5.08594 710.5 5.08594C712.227 5.08594 713.621 5.68359 714.684 6.87891C715.754 8.07422 716.289 9.66406 716.289 11.6484V11.8008C716.289 13.0352 716.051 14.1445 715.574 15.1289C715.105 16.1055 714.43 16.8672 713.547 17.4141C712.672 17.9609 711.664 18.2344 710.523 18.2344C708.805 18.2344 707.41 17.6367 706.34 16.4414C705.277 15.2461 704.746 13.6641 704.746 11.6953V11.543ZM706.926 11.8008C706.926 13.207 707.25 14.3359 707.898 15.1875C708.555 16.0391 709.43 16.4648 710.523 16.4648C711.625 16.4648 712.5 16.0352 713.148 15.1758C713.797 14.3086 714.121 13.0977 714.121 11.543C714.121 10.1523 713.789 9.02734 713.125 8.16797C712.469 7.30078 711.594 6.86719 710.5 6.86719C709.43 6.86719 708.566 7.29297 707.91 8.14453C707.254 8.99609 706.926 10.2148 706.926 11.8008ZM737.898 15.7617C737.32 16.5898 736.512 17.2109 735.473 17.625C734.441 18.0312 733.238 18.2344 731.863 18.2344C730.473 18.2344 729.238 17.9102 728.16 17.2617C727.082 16.6055 726.246 15.6758 725.652 14.4727C725.066 13.2695 724.766 11.875 724.75 10.2891V8.80078C724.75 6.23047 725.348 4.23828 726.543 2.82422C727.746 1.41016 729.434 0.703125 731.605 0.703125C733.387 0.703125 734.82 1.16016 735.906 2.07422C736.992 2.98047 737.656 4.26953 737.898 5.94141H735.648C735.227 3.68359 733.883 2.55469 731.617 2.55469C730.109 2.55469 728.965 3.08594 728.184 4.14844C727.41 5.20312 727.02 6.73438 727.012 8.74219V10.1367C727.012 12.0508 727.449 13.5742 728.324 14.707C729.199 15.832 730.383 16.3945 731.875 16.3945C732.719 16.3945 733.457 16.3008 734.09 16.1133C734.723 15.9258 735.246 15.6094 735.66 15.1641V11.332H731.711V9.50391H737.898V15.7617ZM743.676 18H741.508V0H743.676V18ZM746.582 11.543C746.582 10.3008 746.824 9.18359 747.309 8.19141C747.801 7.19922 748.48 6.43359 749.348 5.89453C750.223 5.35547 751.219 5.08594 752.336 5.08594C754.062 5.08594 755.457 5.68359 756.52 6.87891C757.59 8.07422 758.125 9.66406 758.125 11.6484V11.8008C758.125 13.0352 757.887 14.1445 757.41 15.1289C756.941 16.1055 756.266 16.8672 755.383 17.4141C754.508 17.9609 753.5 18.2344 752.359 18.2344C750.641 18.2344 749.246 17.6367 748.176 16.4414C747.113 15.2461 746.582 13.6641 746.582 11.6953V11.543ZM748.762 11.8008C748.762 13.207 749.086 14.3359 749.734 15.1875C750.391 16.0391 751.266 16.4648 752.359 16.4648C753.461 16.4648 754.336 16.0352 754.984 15.1758C755.633 14.3086 755.957 13.0977 755.957 11.543C755.957 10.1523 755.625 9.02734 754.961 8.16797C754.305 7.30078 753.43 6.86719 752.336 6.86719C751.266 6.86719 750.402 7.29297 749.746 8.14453C749.09 8.99609 748.762 10.2148 748.762 11.8008ZM779.734 15.7617C779.156 16.5898 778.348 17.2109 777.309 17.625C776.277 18.0312 775.074 18.2344 773.699 18.2344C772.309 18.2344 771.074 17.9102 769.996 17.2617C768.918 16.6055 768.082 15.6758 767.488 14.4727C766.902 13.2695 766.602 11.875 766.586 10.2891V8.80078C766.586 6.23047 767.184 4.23828 768.379 2.82422C769.582 1.41016 771.27 0.703125 773.441 0.703125C775.223 0.703125 776.656 1.16016 777.742 2.07422C778.828 2.98047 779.492 4.26953 779.734 5.94141H777.484C777.062 3.68359 775.719 2.55469 773.453 2.55469C771.945 2.55469 770.801 3.08594 770.02 4.14844C769.246 5.20312 768.855 6.73438 768.848 8.74219V10.1367C768.848 12.0508 769.285 13.5742 770.16 14.707C771.035 15.832 772.219 16.3945 773.711 16.3945C774.555 16.3945 775.293 16.3008 775.926 16.1133C776.559 15.9258 777.082 15.6094 777.496 15.1641V11.332H773.547V9.50391H779.734V15.7617ZM785.758 16.1602H793.844V18H783.496V0.9375H785.758V16.1602ZM795.496 11.543C795.496 10.3008 795.738 9.18359 796.223 8.19141C796.715 7.19922 797.395 6.43359 798.262 5.89453C799.137 5.35547 800.133 5.08594 801.25 5.08594C802.977 5.08594 804.371 5.68359 805.434 6.87891C806.504 8.07422 807.039 9.66406 807.039 11.6484V11.8008C807.039 13.0352 806.801 14.1445 806.324 15.1289C805.855 16.1055 805.18 16.8672 804.297 17.4141C803.422 17.9609 802.414 18.2344 801.273 18.2344C799.555 18.2344 798.16 17.6367 797.09 16.4414C796.027 15.2461 795.496 13.6641 795.496 11.6953V11.543ZM797.676 11.8008C797.676 13.207 798 14.3359 798.648 15.1875C799.305 16.0391 800.18 16.4648 801.273 16.4648C802.375 16.4648 803.25 16.0352 803.898 15.1758C804.547 14.3086 804.871 13.0977 804.871 11.543C804.871 10.1523 804.539 9.02734 803.875 8.16797C803.219 7.30078 802.344 6.86719 801.25 6.86719C800.18 6.86719 799.316 7.29297 798.66 8.14453C798.004 8.99609 797.676 10.2148 797.676 11.8008ZM809.77 1.59375L809.418 5.78906H808.117L808.129 0H809.77V1.59375ZM812.934 1.59375L812.582 5.78906H811.281L811.293 0H812.934V1.59375ZM815.898 16.8633C815.898 16.4883 816.008 16.1758 816.227 15.9258C816.453 15.6758 816.789 15.5508 817.234 15.5508C817.68 15.5508 818.016 15.6758 818.242 15.9258C818.477 16.1758 818.594 16.4883 818.594 16.8633C818.594 17.2227 818.477 17.5234 818.242 17.7656C818.016 18.0078 817.68 18.1289 817.234 18.1289C816.789 18.1289 816.453 18.0078 816.227 17.7656C816.008 17.5234 815.898 17.2227 815.898 16.8633Z" fill="#2A5EE4"/>
<path d="M576.367 20.3438H820.527V21.5156H576.367V20.3438ZM40 48.3438H45.9414V49.5156H40V48.3438Z" fill="#2A5EE4"/>
<path d="M8.78416 71.6914V64.6028L2.7316 68.1842C2.33509 68.504 1.85416 68.3428 1.61626 67.9489L0.419044 65.7156C0.183695 65.3165 0.262997 64.8407 0.738811 64.6028L6.79649 61.2593L0.738811 57.7521C0.262997 57.5116 0.183695 57.0358 0.419044 56.6368L1.61626 54.4035C1.85416 54.0096 2.33509 53.8484 2.7316 54.1681L8.78416 57.8314V50.661C8.78416 50.18 9.10392 49.8679 9.58229 49.8679H11.9716C12.4525 49.8679 12.7672 50.1826 12.7672 50.661L12.6853 57.8314L18.8223 54.1681C19.2188 53.8484 19.6972 54.0096 19.9351 54.4035L21.1297 56.6368C21.3702 57.0358 21.2909 57.5116 20.81 57.7521L14.76 61.2593L20.81 64.6028C21.2909 64.8407 21.3702 65.3165 21.1297 65.7156L19.9351 67.9489C19.6972 68.3428 19.2188 68.504 18.8223 68.1842L12.6853 64.6028L12.7672 71.6914C12.7672 72.1672 12.4525 72.487 11.9716 72.487H9.58229C9.10392 72.487 8.78416 72.1672 8.78416 71.6914Z" fill="#2BB673"/>
<path d="M46.6914 53.4023C44.8086 53.4023 43.3203 54.0312 42.2266 55.2891C41.1406 56.5391 40.5977 58.2539 40.5977 60.4336C40.5977 62.6758 41.1211 64.4102 42.168 65.6367C43.2227 66.8555 44.7227 67.4648 46.668 67.4648C47.8633 67.4648 49.2266 67.25 50.7578 66.8203V68.5664C49.5703 69.0117 48.1055 69.2344 46.3633 69.2344C43.8398 69.2344 41.8906 68.4688 40.5156 66.9375C39.1484 65.4062 38.4648 63.2305 38.4648 60.4102C38.4648 58.6445 38.793 57.0977 39.4492 55.7695C40.1133 54.4414 41.0664 53.418 42.3086 52.6992C43.5586 51.9805 45.0273 51.6211 46.7148 51.6211C48.5117 51.6211 50.082 51.9492 51.4258 52.6055L50.582 54.3164C49.2852 53.707 47.9883 53.4023 46.6914 53.4023ZM65.2891 62.5664C65.2891 64.6602 64.7617 66.2969 63.707 67.4766C62.6523 68.6484 61.1953 69.2344 59.3359 69.2344C58.1875 69.2344 57.168 68.9648 56.2773 68.4258C55.3867 67.8867 54.6992 67.1133 54.2148 66.1055C53.7305 65.0977 53.4883 63.918 53.4883 62.5664C53.4883 60.4727 54.0117 58.8438 55.0586 57.6797C56.1055 56.5078 57.5586 55.9219 59.418 55.9219C61.2148 55.9219 62.6406 56.5195 63.6953 57.7148C64.7578 58.9102 65.2891 60.5273 65.2891 62.5664ZM55.5039 62.5664C55.5039 64.207 55.832 65.457 56.4883 66.3164C57.1445 67.1758 58.1094 67.6055 59.3828 67.6055C60.6562 67.6055 61.6211 67.1797 62.2773 66.3281C62.9414 65.4688 63.2734 64.2148 63.2734 62.5664C63.2734 60.9336 62.9414 59.6953 62.2773 58.8516C61.6211 58 60.6484 57.5742 59.3594 57.5742C58.0859 57.5742 57.125 57.9922 56.4766 58.8281C55.8281 59.6641 55.5039 60.9102 55.5039 62.5664ZM85.082 69V60.6445C85.082 59.6211 84.8633 58.8555 84.4258 58.3477C83.9883 57.832 83.3086 57.5742 82.3867 57.5742C81.1758 57.5742 80.2812 57.9219 79.7031 58.6172C79.125 59.3125 78.8359 60.3828 78.8359 61.8281V69H76.8906V60.6445C76.8906 59.6211 76.6719 58.8555 76.2344 58.3477C75.7969 57.832 75.1133 57.5742 74.1836 57.5742C72.9648 57.5742 72.0703 57.9414 71.5 58.6758C70.9375 59.4023 70.6562 60.5977 70.6562 62.2617V69H68.7109V56.1562H70.293L70.6094 57.9141H70.7031C71.0703 57.2891 71.5859 56.8008 72.25 56.4492C72.9219 56.0977 73.6719 55.9219 74.5 55.9219C76.5078 55.9219 77.8203 56.6484 78.4375 58.1016H78.5312C78.9141 57.4297 79.4688 56.8984 80.1953 56.5078C80.9219 56.1172 81.75 55.9219 82.6797 55.9219C84.1328 55.9219 85.2188 56.2969 85.9375 57.0469C86.6641 57.7891 87.0273 58.9805 87.0273 60.6211V69H85.082ZM97.0234 69.2344C96.1875 69.2344 95.4219 69.082 94.7266 68.7773C94.0391 68.4648 93.4609 67.9883 92.9922 67.3477H92.8516C92.9453 68.0977 92.9922 68.8086 92.9922 69.4805V74.7656H91.0469V56.1562H92.6289L92.8984 57.9141H92.9922C93.4922 57.2109 94.0742 56.7031 94.7383 56.3906C95.4023 56.0781 96.1641 55.9219 97.0234 55.9219C98.7266 55.9219 100.039 56.5039 100.961 57.668C101.891 58.832 102.355 60.4648 102.355 62.5664C102.355 64.6758 101.883 66.3164 100.938 67.4883C100 68.6523 98.6953 69.2344 97.0234 69.2344ZM96.7422 57.5742C95.4297 57.5742 94.4805 57.9375 93.8945 58.6641C93.3086 59.3906 93.0078 60.5469 92.9922 62.1328V62.5664C92.9922 64.3711 93.293 65.6641 93.8945 66.4453C94.4961 67.2188 95.4609 67.6055 96.7891 67.6055C97.8984 67.6055 98.7656 67.1562 99.3906 66.2578C100.023 65.3594 100.34 64.1211 100.34 62.543C100.34 60.9414 100.023 59.7148 99.3906 58.8633C98.7656 58.0039 97.8828 57.5742 96.7422 57.5742ZM107.711 69H105.766V50.7656H107.711V69ZM117.262 69.2344C115.363 69.2344 113.863 68.6562 112.762 67.5C111.668 66.3438 111.121 64.7383 111.121 62.6836C111.121 60.6133 111.629 58.9688 112.645 57.75C113.668 56.5312 115.039 55.9219 116.758 55.9219C118.367 55.9219 119.641 56.4531 120.578 57.5156C121.516 58.5703 121.984 59.9648 121.984 61.6992V62.9297H113.137C113.176 64.4375 113.555 65.582 114.273 66.3633C115 67.1445 116.02 67.5352 117.332 67.5352C118.715 67.5352 120.082 67.2461 121.434 66.668V68.4023C120.746 68.6992 120.094 68.9102 119.477 69.0352C118.867 69.168 118.129 69.2344 117.262 69.2344ZM116.734 57.5508C115.703 57.5508 114.879 57.8867 114.262 58.5586C113.652 59.2305 113.293 60.1602 113.184 61.3477H119.898C119.898 60.1211 119.625 59.1836 119.078 58.5352C118.531 57.8789 117.75 57.5508 116.734 57.5508ZM129.461 67.6289C129.805 67.6289 130.137 67.6055 130.457 67.5586C130.777 67.5039 131.031 67.4492 131.219 67.3945V68.8828C131.008 68.9844 130.695 69.0664 130.281 69.1289C129.875 69.1992 129.508 69.2344 129.18 69.2344C126.695 69.2344 125.453 67.9258 125.453 65.3086V57.668H123.613V56.7305L125.453 55.9219L126.273 53.1797H127.398V56.1562H131.125V57.668H127.398V65.2266C127.398 66 127.582 66.5938 127.949 67.0078C128.316 67.4219 128.82 67.6289 129.461 67.6289ZM141.695 69L141.309 67.1719H141.215C140.574 67.9766 139.934 68.5234 139.293 68.8125C138.66 69.0938 137.867 69.2344 136.914 69.2344C135.641 69.2344 134.641 68.9062 133.914 68.25C133.195 67.5938 132.836 66.6602 132.836 65.4492C132.836 62.8555 134.91 61.4961 139.059 61.3711L141.238 61.3008V60.5039C141.238 59.4961 141.02 58.7539 140.582 58.2773C140.152 57.793 139.461 57.5508 138.508 57.5508C137.438 57.5508 136.227 57.8789 134.875 58.5352L134.277 57.0469C134.91 56.7031 135.602 56.4336 136.352 56.2383C137.109 56.043 137.867 55.9453 138.625 55.9453C140.156 55.9453 141.289 56.2852 142.023 56.9648C142.766 57.6445 143.137 58.7344 143.137 60.2344V69H141.695ZM137.301 67.6289C138.512 67.6289 139.461 67.2969 140.148 66.6328C140.844 65.9688 141.191 65.0391 141.191 63.8438V62.6836L139.246 62.7656C137.699 62.8203 136.582 63.0625 135.895 63.4922C135.215 63.9141 134.875 64.5742 134.875 65.4727C134.875 66.1758 135.086 66.7109 135.508 67.0781C135.938 67.4453 136.535 67.6289 137.301 67.6289ZM158.816 69.2344C156.918 69.2344 155.418 68.6562 154.316 67.5C153.223 66.3438 152.676 64.7383 152.676 62.6836C152.676 60.6133 153.184 58.9688 154.199 57.75C155.223 56.5312 156.594 55.9219 158.312 55.9219C159.922 55.9219 161.195 56.4531 162.133 57.5156C163.07 58.5703 163.539 59.9648 163.539 61.6992V62.9297H154.691C154.73 64.4375 155.109 65.582 155.828 66.3633C156.555 67.1445 157.574 67.5352 158.887 67.5352C160.27 67.5352 161.637 67.2461 162.988 66.668V68.4023C162.301 68.6992 161.648 68.9102 161.031 69.0352C160.422 69.168 159.684 69.2344 158.816 69.2344ZM158.289 57.5508C157.258 57.5508 156.434 57.8867 155.816 58.5586C155.207 59.2305 154.848 60.1602 154.738 61.3477H161.453C161.453 60.1211 161.18 59.1836 160.633 58.5352C160.086 57.8789 159.305 57.5508 158.289 57.5508ZM168.812 69H166.867V50.7656H168.812V69ZM185.031 55.9219C185.602 55.9219 186.113 55.9688 186.566 56.0625L186.297 57.8672C185.766 57.75 185.297 57.6914 184.891 57.6914C183.852 57.6914 182.961 58.1133 182.219 58.957C181.484 59.8008 181.117 60.8516 181.117 62.1094V69H179.172V56.1562H180.777L181 58.5352H181.094C181.57 57.6992 182.145 57.0547 182.816 56.6016C183.488 56.1484 184.227 55.9219 185.031 55.9219ZM194.395 69.2344C192.496 69.2344 190.996 68.6562 189.895 67.5C188.801 66.3438 188.254 64.7383 188.254 62.6836C188.254 60.6133 188.762 58.9688 189.777 57.75C190.801 56.5312 192.172 55.9219 193.891 55.9219C195.5 55.9219 196.773 56.4531 197.711 57.5156C198.648 58.5703 199.117 59.9648 199.117 61.6992V62.9297H190.27C190.309 64.4375 190.688 65.582 191.406 66.3633C192.133 67.1445 193.152 67.5352 194.465 67.5352C195.848 67.5352 197.215 67.2461 198.566 66.668V68.4023C197.879 68.6992 197.227 68.9102 196.609 69.0352C196 69.168 195.262 69.2344 194.395 69.2344ZM193.867 57.5508C192.836 57.5508 192.012 57.8867 191.395 58.5586C190.785 59.2305 190.426 60.1602 190.316 61.3477H197.031C197.031 60.1211 196.758 59.1836 196.211 58.5352C195.664 57.8789 194.883 57.5508 193.867 57.5508ZM210.73 65.4961C210.73 66.6914 210.285 67.6133 209.395 68.2617C208.504 68.9102 207.254 69.2344 205.645 69.2344C203.941 69.2344 202.613 68.9648 201.66 68.4258V66.6211C202.277 66.9336 202.938 67.1797 203.641 67.3594C204.352 67.5391 205.035 67.6289 205.691 67.6289C206.707 67.6289 207.488 67.4688 208.035 67.1484C208.582 66.8203 208.855 66.3242 208.855 65.6602C208.855 65.1602 208.637 64.7344 208.199 64.3828C207.77 64.0234 206.926 63.6016 205.668 63.1172C204.473 62.6719 203.621 62.2852 203.113 61.957C202.613 61.6211 202.238 61.2422 201.988 60.8203C201.746 60.3984 201.625 59.8945 201.625 59.3086C201.625 58.2617 202.051 57.4375 202.902 56.8359C203.754 56.2266 204.922 55.9219 206.406 55.9219C207.789 55.9219 209.141 56.2031 210.461 56.7656L209.77 58.3477C208.48 57.8164 207.312 57.5508 206.266 57.5508C205.344 57.5508 204.648 57.6953 204.18 57.9844C203.711 58.2734 203.477 58.6719 203.477 59.1797C203.477 59.5234 203.562 59.8164 203.734 60.0586C203.914 60.3008 204.199 60.5312 204.59 60.75C204.98 60.9688 205.73 61.2852 206.84 61.6992C208.363 62.2539 209.391 62.8125 209.922 63.375C210.461 63.9375 210.73 64.6445 210.73 65.4961ZM215.734 56.1562V64.4883C215.734 65.5352 215.973 66.3164 216.449 66.832C216.926 67.3477 217.672 67.6055 218.688 67.6055C220.031 67.6055 221.012 67.2383 221.629 66.5039C222.254 65.7695 222.566 64.5703 222.566 62.9062V56.1562H224.512V69H222.906L222.625 67.2773H222.52C222.121 67.9102 221.566 68.3945 220.855 68.7305C220.152 69.0664 219.348 69.2344 218.441 69.2344C216.879 69.2344 215.707 68.8633 214.926 68.1211C214.152 67.3789 213.766 66.1914 213.766 64.5586V56.1562H215.734ZM245.02 69V60.6445C245.02 59.6211 244.801 58.8555 244.363 58.3477C243.926 57.832 243.246 57.5742 242.324 57.5742C241.113 57.5742 240.219 57.9219 239.641 58.6172C239.062 59.3125 238.773 60.3828 238.773 61.8281V69H236.828V60.6445C236.828 59.6211 236.609 58.8555 236.172 58.3477C235.734 57.832 235.051 57.5742 234.121 57.5742C232.902 57.5742 232.008 57.9414 231.438 58.6758C230.875 59.4023 230.594 60.5977 230.594 62.2617V69H228.648V56.1562H230.23L230.547 57.9141H230.641C231.008 57.2891 231.523 56.8008 232.188 56.4492C232.859 56.0977 233.609 55.9219 234.438 55.9219C236.445 55.9219 237.758 56.6484 238.375 58.1016H238.469C238.852 57.4297 239.406 56.8984 240.133 56.5078C240.859 56.1172 241.688 55.9219 242.617 55.9219C244.07 55.9219 245.156 56.2969 245.875 57.0469C246.602 57.7891 246.965 58.9805 246.965 60.6211V69H245.02ZM256.41 69.2344C254.512 69.2344 253.012 68.6562 251.91 67.5C250.816 66.3438 250.27 64.7383 250.27 62.6836C250.27 60.6133 250.777 58.9688 251.793 57.75C252.816 56.5312 254.188 55.9219 255.906 55.9219C257.516 55.9219 258.789 56.4531 259.727 57.5156C260.664 58.5703 261.133 59.9648 261.133 61.6992V62.9297H252.285C252.324 64.4375 252.703 65.582 253.422 66.3633C254.148 67.1445 255.168 67.5352 256.48 67.5352C257.863 67.5352 259.23 67.2461 260.582 66.668V68.4023C259.895 68.6992 259.242 68.9102 258.625 69.0352C258.016 69.168 257.277 69.2344 256.41 69.2344ZM255.883 57.5508C254.852 57.5508 254.027 57.8867 253.41 58.5586C252.801 59.2305 252.441 60.1602 252.332 61.3477H259.047C259.047 60.1211 258.773 59.1836 258.227 58.5352C257.68 57.8789 256.898 57.5508 255.883 57.5508ZM273.25 69V60.6914C273.25 59.6445 273.012 58.8633 272.535 58.3477C272.059 57.832 271.312 57.5742 270.297 57.5742C268.953 57.5742 267.969 57.9375 267.344 58.6641C266.719 59.3906 266.406 60.5898 266.406 62.2617V69H264.461V56.1562H266.043L266.359 57.9141H266.453C266.852 57.2812 267.41 56.793 268.129 56.4492C268.848 56.0977 269.648 55.9219 270.531 55.9219C272.078 55.9219 273.242 56.2969 274.023 57.0469C274.805 57.7891 275.195 58.9805 275.195 60.6211V69H273.25ZM278.922 67.7578C278.922 67.2344 279.039 66.8398 279.273 66.5742C279.516 66.3008 279.859 66.1641 280.305 66.1641C280.758 66.1641 281.109 66.3008 281.359 66.5742C281.617 66.8398 281.746 67.2344 281.746 67.7578C281.746 68.2656 281.617 68.6562 281.359 68.9297C281.102 69.2031 280.75 69.3398 280.305 69.3398C279.906 69.3398 279.574 69.2188 279.309 68.9766C279.051 68.7266 278.922 68.3203 278.922 67.7578Z" fill="black"/>
<path d="M25.1729 333.624C22.4873 333.624 20.373 334.483 18.8301 336.202C17.2871 337.921 16.5156 340.274 16.5156 343.263C16.5156 346.319 17.2432 348.692 18.6982 350.382C20.1533 352.071 22.2334 352.916 24.9385 352.916C26.7354 352.916 28.3857 352.687 29.8896 352.228V353.546C28.4736 354.044 26.7061 354.293 24.5869 354.293C21.5791 354.293 19.2109 353.321 17.4824 351.378C15.7539 349.435 14.8896 346.72 14.8896 343.233C14.8896 341.056 15.2998 339.137 16.1201 337.477C16.9502 335.816 18.1367 334.537 19.6797 333.639C21.2324 332.73 23.0342 332.276 25.085 332.276C27.1748 332.276 29.0449 332.667 30.6953 333.448L30.0947 334.796C28.5322 334.015 26.8916 333.624 25.1729 333.624ZM50.4121 332.584V346.441C50.4121 348.902 49.6992 350.826 48.2734 352.213C46.8477 353.6 44.8604 354.293 42.3115 354.293C39.8311 354.293 37.8926 353.6 36.4961 352.213C35.1094 350.816 34.416 348.873 34.416 346.383V332.584H35.9248V346.441C35.9248 348.502 36.4961 350.108 37.6387 351.261C38.7812 352.403 40.3975 352.975 42.4873 352.975C44.5283 352.975 46.1104 352.413 47.2334 351.29C48.3564 350.157 48.918 348.59 48.918 346.588V332.584H50.4121ZM66.5693 346.441H57.8682L54.8799 354H53.2246L61.8379 332.496H62.79L71.2275 354H69.543L66.5693 346.441ZM58.4102 345.094H66.0713L63.1562 337.374C62.9121 336.769 62.6191 335.929 62.2773 334.854C62.0137 335.792 61.7256 336.642 61.4131 337.403L58.4102 345.094ZM89.8457 354H88.3369L75.6514 334.986H75.5342C75.6514 337.252 75.71 338.961 75.71 340.113V354H74.2744V332.584H75.7686L88.4395 351.568H88.5273C88.4395 349.811 88.3955 348.141 88.3955 346.559V332.584H89.8457V354ZM112.185 343.087C112.185 346.681 111.242 349.4 109.357 351.246C107.473 353.082 104.704 354 101.052 354H95.9248V332.584H101.711C105.129 332.584 107.727 333.478 109.504 335.265C111.291 337.052 112.185 339.659 112.185 343.087ZM110.559 343.146C110.559 340.079 109.777 337.774 108.215 336.231C106.662 334.679 104.377 333.902 101.359 333.902H97.4189V352.682H100.964C107.36 352.682 110.559 349.503 110.559 343.146ZM135.109 343.263C135.109 346.661 134.26 349.352 132.561 351.334C130.861 353.307 128.518 354.293 125.529 354.293C122.551 354.293 120.212 353.307 118.513 351.334C116.813 349.352 115.964 346.651 115.964 343.233C115.964 339.825 116.818 337.145 118.527 335.191C120.246 333.229 122.59 332.247 125.559 332.247C128.547 332.247 130.886 333.233 132.575 335.206C134.265 337.169 135.109 339.854 135.109 343.263ZM117.59 343.263C117.59 346.329 118.273 348.702 119.641 350.382C121.008 352.052 122.971 352.887 125.529 352.887C128.107 352.887 130.075 352.057 131.433 350.396C132.8 348.736 133.483 346.358 133.483 343.263C133.483 340.177 132.8 337.813 131.433 336.173C130.075 334.522 128.117 333.697 125.559 333.697C123.01 333.697 121.042 334.527 119.655 336.188C118.278 337.848 117.59 340.206 117.59 343.263ZM156.979 333.624C154.294 333.624 152.18 334.483 150.637 336.202C149.094 337.921 148.322 340.274 148.322 343.263C148.322 346.319 149.05 348.692 150.505 350.382C151.96 352.071 154.04 352.916 156.745 352.916C158.542 352.916 160.192 352.687 161.696 352.228V353.546C160.28 354.044 158.513 354.293 156.394 354.293C153.386 354.293 151.018 353.321 149.289 351.378C147.561 349.435 146.696 346.72 146.696 343.233C146.696 341.056 147.106 339.137 147.927 337.477C148.757 335.816 149.943 334.537 151.486 333.639C153.039 332.73 154.841 332.276 156.892 332.276C158.981 332.276 160.852 332.667 162.502 333.448L161.901 334.796C160.339 334.015 158.698 333.624 156.979 333.624ZM184.475 343.263C184.475 346.661 183.625 349.352 181.926 351.334C180.227 353.307 177.883 354.293 174.895 354.293C171.916 354.293 169.577 353.307 167.878 351.334C166.179 349.352 165.329 346.651 165.329 343.233C165.329 339.825 166.184 337.145 167.893 335.191C169.611 333.229 171.955 332.247 174.924 332.247C177.912 332.247 180.251 333.233 181.94 335.206C183.63 337.169 184.475 339.854 184.475 343.263ZM166.955 343.263C166.955 346.329 167.639 348.702 169.006 350.382C170.373 352.052 172.336 352.887 174.895 352.887C177.473 352.887 179.44 352.057 180.798 350.396C182.165 348.736 182.849 346.358 182.849 343.263C182.849 340.177 182.165 337.813 180.798 336.173C179.44 334.522 177.482 333.697 174.924 333.697C172.375 333.697 170.407 334.527 169.021 336.188C167.644 337.848 166.955 340.206 166.955 343.263ZM198.83 354L190.847 334.225H190.729C190.808 335.436 190.847 336.676 190.847 337.945V354H189.411V332.584H191.726L199.313 351.422H199.401L206.989 332.584H209.245V354H207.736V337.77C207.736 336.637 207.795 335.465 207.912 334.254H207.795L199.782 354H198.83ZM215.31 354V332.584H216.804V354H215.31ZM234.572 354H222.868V332.584H234.572V333.961H224.362V342.062H234.001V343.438H224.362V352.623H234.572V354ZM254.992 354H253.483L240.798 334.986H240.681C240.798 337.252 240.856 338.961 240.856 340.113V354H239.421V332.584H240.915L253.586 351.568H253.674C253.586 349.811 253.542 348.141 253.542 346.559V332.584H254.992V354ZM270.212 333.624C267.526 333.624 265.412 334.483 263.869 336.202C262.326 337.921 261.555 340.274 261.555 343.263C261.555 346.319 262.282 348.692 263.737 350.382C265.192 352.071 267.272 352.916 269.978 352.916C271.774 352.916 273.425 352.687 274.929 352.228V353.546C273.513 354.044 271.745 354.293 269.626 354.293C266.618 354.293 264.25 353.321 262.521 351.378C260.793 349.435 259.929 346.72 259.929 343.233C259.929 341.056 260.339 339.137 261.159 337.477C261.989 335.816 263.176 334.537 264.719 333.639C266.271 332.73 268.073 332.276 270.124 332.276C272.214 332.276 274.084 332.667 275.734 333.448L275.134 334.796C273.571 334.015 271.931 333.624 270.212 333.624ZM291.408 354H279.704V332.584H291.408V333.961H281.198V342.062H290.837V343.438H281.198V352.623H291.408V354ZM314.362 346.441H305.661L302.673 354H301.018L309.631 332.496H310.583L319.021 354H317.336L314.362 346.441ZM306.203 345.094H313.864L310.949 337.374C310.705 336.769 310.412 335.929 310.07 334.854C309.807 335.792 309.519 336.642 309.206 337.403L306.203 345.094ZM329.86 354V332.584H331.354V352.594H341.564V354H329.86ZM345.271 354V332.584H346.765V352.594H356.975V354H345.271ZM378.684 343.263C378.684 346.661 377.834 349.352 376.135 351.334C374.436 353.307 372.092 354.293 369.104 354.293C366.125 354.293 363.786 353.307 362.087 351.334C360.388 349.352 359.538 346.651 359.538 343.233C359.538 339.825 360.393 337.145 362.102 335.191C363.82 333.229 366.164 332.247 369.133 332.247C372.121 332.247 374.46 333.233 376.149 335.206C377.839 337.169 378.684 339.854 378.684 343.263ZM361.164 343.263C361.164 346.329 361.848 348.702 363.215 350.382C364.582 352.052 366.545 352.887 369.104 352.887C371.682 352.887 373.649 352.057 375.007 350.396C376.374 348.736 377.058 346.358 377.058 343.263C377.058 340.177 376.374 337.813 375.007 336.173C373.649 334.522 371.691 333.697 369.133 333.697C366.584 333.697 364.616 334.527 363.229 336.188C361.853 337.848 361.164 340.206 361.164 343.263ZM396.276 332.584H397.902L389.89 354H388.571L380.588 332.584H382.185L387.575 347.159C388.396 349.356 388.947 351.007 389.23 352.11C389.426 351.378 389.812 350.24 390.388 348.697L396.276 332.584ZM412.639 354H400.935V332.584H412.639V333.961H402.429V342.062H412.067V343.438H402.429V352.623H412.639V354ZM418.981 344.669V354H417.487V332.584H422.585C425.241 332.584 427.204 333.077 428.474 334.063C429.743 335.04 430.378 336.515 430.378 338.487C430.378 339.923 429.997 341.134 429.235 342.12C428.483 343.106 427.336 343.814 425.793 344.244L431.608 354H429.821L424.299 344.669H418.981ZM418.981 343.38H423.068C424.875 343.38 426.276 342.979 427.272 342.179C428.269 341.368 428.767 340.177 428.767 338.604C428.767 336.974 428.278 335.787 427.302 335.045C426.325 334.303 424.733 333.932 422.526 333.932H418.981V343.38ZM458.693 354H457.185L444.499 334.986H444.382C444.499 337.252 444.558 338.961 444.558 340.113V354H443.122V332.584H444.616L457.287 351.568H457.375C457.287 349.811 457.243 348.141 457.243 346.559V332.584H458.693V354ZM482.775 343.263C482.775 346.661 481.926 349.352 480.227 351.334C478.527 353.307 476.184 354.293 473.195 354.293C470.217 354.293 467.878 353.307 466.179 351.334C464.479 349.352 463.63 346.651 463.63 343.233C463.63 339.825 464.484 337.145 466.193 335.191C467.912 333.229 470.256 332.247 473.225 332.247C476.213 332.247 478.552 333.233 480.241 335.206C481.931 337.169 482.775 339.854 482.775 343.263ZM465.256 343.263C465.256 346.329 465.939 348.702 467.307 350.382C468.674 352.052 470.637 352.887 473.195 352.887C475.773 352.887 477.741 352.057 479.099 350.396C480.466 348.736 481.149 346.358 481.149 343.263C481.149 340.177 480.466 337.813 479.099 336.173C477.741 334.522 475.783 333.697 473.225 333.697C470.676 333.697 468.708 334.527 467.321 336.188C465.944 337.848 465.256 340.206 465.256 343.263ZM511.765 343.087C511.765 346.681 510.822 349.4 508.938 351.246C507.053 353.082 504.284 354 500.632 354H495.505V332.584H501.291C504.709 332.584 507.307 333.478 509.084 335.265C510.871 337.052 511.765 339.659 511.765 343.087ZM510.139 343.146C510.139 340.079 509.357 337.774 507.795 336.231C506.242 334.679 503.957 333.902 500.939 333.902H496.999V352.682H500.544C506.94 352.682 510.139 349.503 510.139 343.146ZM528.391 354H516.687V332.584H528.391V333.961H518.181V342.062H527.819V343.438H518.181V352.623H528.391V354ZM529.724 359.405C528.825 359.405 528.088 359.273 527.512 359.01V357.721C528.273 357.916 529.001 358.014 529.694 358.014C532.058 358.014 533.239 356.725 533.239 354.146V332.584H534.733V354C534.733 357.604 533.063 359.405 529.724 359.405ZM552.355 354H540.651V332.584H552.355V333.961H542.146V342.062H551.784V343.438H542.146V352.623H552.355V354ZM569.025 348.478C569.025 350.265 568.366 351.681 567.048 352.726C565.739 353.771 563.996 354.293 561.818 354.293C559.201 354.293 557.194 354.005 555.798 353.429V351.935C557.341 352.589 559.309 352.916 561.701 352.916C563.459 352.916 564.851 352.516 565.876 351.715C566.911 350.904 567.429 349.845 567.429 348.536C567.429 347.726 567.258 347.057 566.916 346.529C566.574 345.992 566.018 345.504 565.246 345.064C564.475 344.625 563.342 344.151 561.848 343.644C559.66 342.892 558.146 342.081 557.307 341.212C556.477 340.333 556.062 339.166 556.062 337.711C556.062 336.109 556.687 334.806 557.937 333.8C559.196 332.784 560.812 332.276 562.785 332.276C564.797 332.276 566.687 332.657 568.454 333.419L567.912 334.708C566.135 333.966 564.436 333.595 562.814 333.595C561.232 333.595 559.973 333.961 559.035 334.693C558.098 335.426 557.629 336.422 557.629 337.682C557.629 338.473 557.771 339.122 558.054 339.63C558.347 340.138 558.82 340.597 559.475 341.007C560.129 341.407 561.252 341.891 562.844 342.457C564.514 343.033 565.769 343.595 566.608 344.142C567.448 344.679 568.059 345.294 568.439 345.987C568.83 346.671 569.025 347.501 569.025 348.478ZM597.604 343.087C597.604 346.681 596.662 349.4 594.777 351.246C592.893 353.082 590.124 354 586.472 354H581.345V332.584H587.131C590.549 332.584 593.146 333.478 594.924 335.265C596.711 337.052 597.604 339.659 597.604 343.087ZM595.979 343.146C595.979 340.079 595.197 337.774 593.635 336.231C592.082 334.679 589.797 333.902 586.779 333.902H582.839V352.682H586.384C592.78 352.682 595.979 349.503 595.979 343.146ZM614.23 354H602.526V332.584H614.23V333.961H604.021V342.062H613.659V343.438H604.021V352.623H614.23V354ZM626.872 332.584H632.746C635.393 332.584 637.336 333.033 638.576 333.932C639.816 334.83 640.437 336.188 640.437 338.004C640.437 339.244 640.056 340.279 639.294 341.109C638.542 341.93 637.438 342.457 635.983 342.691V342.779C637.692 343.033 638.947 343.575 639.748 344.405C640.559 345.226 640.964 346.373 640.964 347.848C640.964 349.82 640.31 351.339 639.001 352.403C637.692 353.468 635.837 354 633.435 354H626.872V332.584ZM628.366 342.12H633.083C635.095 342.12 636.555 341.788 637.463 341.124C638.381 340.45 638.84 339.4 638.84 337.975C638.84 336.549 638.322 335.514 637.287 334.869C636.262 334.225 634.729 333.902 632.688 333.902H628.366V342.12ZM628.366 343.438V352.682H633.405C637.37 352.682 639.353 351.07 639.353 347.848C639.353 344.908 637.263 343.438 633.083 343.438H628.366ZM661.428 332.584V346.441C661.428 348.902 660.715 350.826 659.289 352.213C657.863 353.6 655.876 354.293 653.327 354.293C650.847 354.293 648.908 353.6 647.512 352.213C646.125 350.816 645.432 348.873 645.432 346.383V332.584H646.94V346.441C646.94 348.502 647.512 350.108 648.654 351.261C649.797 352.403 651.413 352.975 653.503 352.975C655.544 352.975 657.126 352.413 658.249 351.29C659.372 350.157 659.934 348.59 659.934 346.588V332.584H661.428ZM679.094 348.478C679.094 350.265 678.435 351.681 677.116 352.726C675.808 353.771 674.064 354.293 671.887 354.293C669.27 354.293 667.263 354.005 665.866 353.429V351.935C667.409 352.589 669.377 352.916 671.77 352.916C673.527 352.916 674.919 352.516 675.944 351.715C676.979 350.904 677.497 349.845 677.497 348.536C677.497 347.726 677.326 347.057 676.984 346.529C676.643 345.992 676.086 345.504 675.314 345.064C674.543 344.625 673.41 344.151 671.916 343.644C669.729 342.892 668.215 342.081 667.375 341.212C666.545 340.333 666.13 339.166 666.13 337.711C666.13 336.109 666.755 334.806 668.005 333.8C669.265 332.784 670.881 332.276 672.854 332.276C674.865 332.276 676.755 332.657 678.522 333.419L677.98 334.708C676.203 333.966 674.504 333.595 672.883 333.595C671.301 333.595 670.041 333.961 669.104 334.693C668.166 335.426 667.697 336.422 667.697 337.682C667.697 338.473 667.839 339.122 668.122 339.63C668.415 340.138 668.889 340.597 669.543 341.007C670.197 341.407 671.32 341.891 672.912 342.457C674.582 343.033 675.837 343.595 676.677 344.142C677.517 344.679 678.127 345.294 678.508 345.987C678.898 346.671 679.094 347.501 679.094 348.478ZM692.761 333.624C690.075 333.624 687.961 334.483 686.418 336.202C684.875 337.921 684.104 340.274 684.104 343.263C684.104 346.319 684.831 348.692 686.286 350.382C687.741 352.071 689.821 352.916 692.526 352.916C694.323 352.916 695.974 352.687 697.478 352.228V353.546C696.062 354.044 694.294 354.293 692.175 354.293C689.167 354.293 686.799 353.321 685.07 351.378C683.342 349.435 682.478 346.72 682.478 343.233C682.478 341.056 682.888 339.137 683.708 337.477C684.538 335.816 685.725 334.537 687.268 333.639C688.82 332.73 690.622 332.276 692.673 332.276C694.763 332.276 696.633 332.667 698.283 333.448L697.683 334.796C696.12 334.015 694.479 333.624 692.761 333.624ZM712.565 346.441H703.864L700.876 354H699.221L707.834 332.496H708.786L717.224 354H715.539L712.565 346.441ZM704.406 345.094H712.067L709.152 337.374C708.908 336.769 708.615 335.929 708.273 334.854C708.01 335.792 707.722 336.642 707.409 337.403L704.406 345.094ZM721.765 344.669V354H720.271V332.584H725.368C728.024 332.584 729.987 333.077 731.257 334.063C732.526 335.04 733.161 336.515 733.161 338.487C733.161 339.923 732.78 341.134 732.019 342.12C731.267 343.106 730.119 343.814 728.576 344.244L734.392 354H732.604L727.082 344.669H721.765ZM721.765 343.38H725.852C727.658 343.38 729.06 342.979 730.056 342.179C731.052 341.368 731.55 340.177 731.55 338.604C731.55 336.974 731.062 335.787 730.085 335.045C729.108 334.303 727.517 333.932 725.31 333.932H721.765V343.38ZM756.218 346.441H747.517L744.528 354H742.873L751.486 332.496H752.438L760.876 354H759.191L756.218 346.441ZM748.059 345.094H755.72L752.805 337.374C752.561 336.769 752.268 335.929 751.926 334.854C751.662 335.792 751.374 336.642 751.062 337.403L748.059 345.094ZM763.923 354V332.584H765.417V352.594H775.627V354H763.923ZM798.947 348.478C798.947 350.265 798.288 351.681 796.97 352.726C795.661 353.771 793.918 354.293 791.74 354.293C789.123 354.293 787.116 354.005 785.72 353.429V351.935C787.263 352.589 789.23 352.916 791.623 352.916C793.381 352.916 794.772 352.516 795.798 351.715C796.833 350.904 797.351 349.845 797.351 348.536C797.351 347.726 797.18 347.057 796.838 346.529C796.496 345.992 795.939 345.504 795.168 345.064C794.396 344.625 793.264 344.151 791.77 343.644C789.582 342.892 788.068 342.081 787.229 341.212C786.398 340.333 785.983 339.166 785.983 337.711C785.983 336.109 786.608 334.806 787.858 333.8C789.118 332.784 790.734 332.276 792.707 332.276C794.719 332.276 796.608 332.657 798.376 333.419L797.834 334.708C796.057 333.966 794.357 333.595 792.736 333.595C791.154 333.595 789.895 333.961 788.957 334.693C788.02 335.426 787.551 336.422 787.551 337.682C787.551 338.473 787.692 339.122 787.976 339.63C788.269 340.138 788.742 340.597 789.396 341.007C790.051 341.407 791.174 341.891 792.766 342.457C794.436 343.033 795.69 343.595 796.53 344.142C797.37 344.679 797.98 345.294 798.361 345.987C798.752 346.671 798.947 347.501 798.947 348.478ZM813.786 346.441H805.085L802.097 354H800.441L809.055 332.496H810.007L818.444 354H816.76L813.786 346.441ZM805.627 345.094H813.288L810.373 337.374C810.129 336.769 809.836 335.929 809.494 334.854C809.23 335.792 808.942 336.642 808.63 337.403L805.627 345.094ZM834.382 338.736C834.382 340.807 833.679 342.394 832.272 343.497C830.866 344.601 828.874 345.152 826.296 345.152H822.985V354H821.491V332.584H826.735C831.833 332.584 834.382 334.635 834.382 338.736ZM822.985 343.863H825.93C828.342 343.863 830.085 343.468 831.159 342.677C832.233 341.876 832.771 340.582 832.771 338.795C832.771 337.145 832.263 335.924 831.247 335.133C830.231 334.332 828.659 333.932 826.53 333.932H822.985V343.863ZM839.04 354V332.584H840.534V354H839.04ZM852.18 354H850.671V333.99H843.713V332.584H859.138V333.99H852.18V354ZM880.334 343.263C880.334 346.661 879.484 349.352 877.785 351.334C876.086 353.307 873.742 354.293 870.754 354.293C867.775 354.293 865.437 353.307 863.737 351.334C862.038 349.352 861.188 346.651 861.188 343.233C861.188 339.825 862.043 337.145 863.752 335.191C865.471 333.229 867.814 332.247 870.783 332.247C873.771 332.247 876.11 333.233 877.8 335.206C879.489 337.169 880.334 339.854 880.334 343.263ZM862.814 343.263C862.814 346.329 863.498 348.702 864.865 350.382C866.232 352.052 868.195 352.887 870.754 352.887C873.332 352.887 875.3 352.057 876.657 350.396C878.024 348.736 878.708 346.358 878.708 343.263C878.708 340.177 878.024 337.813 876.657 336.173C875.3 334.522 873.342 333.697 870.783 333.697C868.234 333.697 866.267 334.527 864.88 336.188C863.503 337.848 862.814 340.206 862.814 343.263Z" fill="black"/>
</svg>
