<svg width="444" height="115" viewBox="0 0 444 115" fill="none" xmlns="http://www.w3.org/2000/svg">
<path d="M224 79.0032C224 79.0032 230.01 90.1847 237.495 97.0104C251.539 109.816 272.192 113.714 272.192 113.714C272.192 113.714 242.464 94.0416 241.447 79.0032C241.026 72.7702 242.978 72.9453 242.978 72.9453L224 79.0032Z" fill="#00A5A5"/>
<path d="M1.8199 45.9238C1.09914 18.7926 12.112 4.96432 49.5669 3.63209C91.5018 2.13886 372.034 -0.691912 416.481 4.22832C450.524 7.99678 453.734 76.9756 412.343 80.8838C367.455 85.1211 85.6191 88.1606 31.8004 80.3725C5.27002 76.5332 2.23328 61.516 1.8199 45.9238Z" fill="#00A5A5"/>
<path d="M90.0072 52.3887C90.0302 52.3444 90.0125 52.2365 89.9542 52.0702C89.8959 51.9074 89.8235 51.7217 89.7422 51.52C89.6592 51.3236 89.578 51.1325 89.4949 50.9574C89.4119 50.7822 89.3589 50.6425 89.3359 50.5504V49.3138V48.1107C89.3359 47.9691 89.3412 47.6578 89.3536 47.1748C89.366 46.6918 89.3783 46.1734 89.3907 45.6196C89.4013 45.0658 89.4137 44.5457 89.426 44.0627C89.4384 43.5832 89.4437 43.2683 89.4437 43.1268V40.9347C89.4684 40.7701 89.4843 40.5065 89.4967 40.1403C89.5091 39.7758 89.5267 39.3972 89.5497 39.0098C89.5727 38.6188 89.5886 38.2596 89.6009 37.9305C89.6133 37.6014 89.631 37.3768 89.6539 37.2582C89.6539 37.2122 89.6663 37.0654 89.6893 36.8159C89.714 36.5682 89.7475 36.3984 89.797 36.3046C89.8677 35.903 89.9136 35.4784 89.9383 35.0308C89.9613 34.5831 90.032 34.1585 90.1503 33.7569C90.2899 33.3801 90.5142 32.9324 90.8199 32.4141C91.1255 31.8957 91.4965 31.4056 91.9328 30.9456C92.3674 30.4856 92.8426 30.0928 93.362 29.762C93.8813 29.4311 94.4237 29.2666 94.9872 29.2666C95.4112 29.2666 95.7415 29.2808 95.9765 29.3038C96.2114 29.3268 96.4181 29.3745 96.5948 29.4453C96.7732 29.5161 96.9304 29.6275 97.0718 29.7797C97.2131 29.9336 97.3915 30.1512 97.6017 30.4343C97.6017 30.4803 97.6265 30.5298 97.6724 30.5741L97.7431 30.6448V33.8984L97.4622 34.1108C96.4022 34.1568 95.5613 34.3814 94.936 34.7831C94.3071 35.1829 93.8902 35.8074 93.6782 36.6549C93.6517 36.8442 93.6252 37.1556 93.5898 37.5926C93.5527 38.0278 93.5121 38.4896 93.4662 38.9708C93.4203 39.4521 93.3708 39.9121 93.3249 40.3491C93.2789 40.7843 93.2542 41.0851 93.2542 41.2514V42.6296C93.2542 43.5248 93.2613 44.3617 93.2736 45.1401C93.2825 45.9186 93.3125 46.7784 93.3602 47.7214C93.4079 48.4026 93.5492 48.9581 93.7842 49.381C94.0191 49.8056 94.3018 50.1418 94.6304 50.3895C94.9589 50.6371 95.314 50.8247 95.6903 50.9556C96.0666 51.083 96.4199 51.1909 96.7502 51.2741C97.0806 51.3572 97.3632 51.451 97.5964 51.5571C97.8332 51.6615 97.9727 51.8101 98.0204 51.9995V52.9531C98.0204 53.1424 98.0328 53.3706 98.0557 53.6413C98.0805 53.9138 98.0752 54.1845 98.0381 54.4569C98.0027 54.7258 97.9268 54.9682 97.8084 55.1788C97.6918 55.3928 97.4763 55.5344 97.1742 55.6034H96.2203C94.8088 55.6034 93.5545 55.3574 92.461 54.8603C91.3657 54.3684 90.546 53.544 90.0072 52.3887Z" fill="white"/>
<path d="M111.258 55.2882C111.14 55.244 111.021 55.1644 110.905 55.06C110.788 54.9521 110.718 54.8424 110.693 54.7221L109.847 47.2276C109.847 47.1339 109.806 47.0507 109.723 46.9817C109.64 46.9092 109.564 46.8844 109.493 46.9092L105.4 47.3002L106.07 53.4854C106.117 53.8658 106.223 54.2108 106.391 54.5292C106.554 54.8477 106.658 55.1821 106.708 55.5377C106.73 55.6792 106.718 55.7659 106.67 55.8031C106.624 55.8385 106.517 55.8686 106.352 55.8898C106.307 55.8898 106.241 55.8969 106.16 55.9075C106.077 55.9216 106.026 55.9252 105.999 55.9252H105.559C105.36 55.9252 105.153 55.9322 104.941 55.9429C104.729 55.957 104.535 55.9676 104.358 55.98C104.183 55.9906 104.07 55.9977 104.024 55.9977C103.6 55.9977 103.257 55.9499 102.999 55.8562C102.742 55.7624 102.54 55.6209 102.399 55.4316C102.258 55.2458 102.157 55.014 102.099 54.7433C102.04 54.4709 101.987 54.1595 101.94 53.8039C101.823 52.5088 101.728 51.219 101.657 49.9328C101.586 48.6466 101.528 47.3444 101.48 46.0246C101.48 46.0033 101.475 45.8724 101.463 45.6371C101.45 45.4018 101.433 45.1293 101.41 44.8232C101.383 44.5172 101.364 44.2164 101.339 43.9227C101.314 43.6272 101.293 43.3972 101.268 43.2327C101.222 42.3357 101.263 41.5112 101.392 40.7576C101.521 40.0039 101.667 39.1776 101.834 38.2842C101.692 37.8826 101.722 37.4579 101.922 37.0103C102.122 36.5627 102.28 36.1629 102.399 35.8072C102.445 35.6197 102.475 35.4428 102.487 35.2765C102.5 35.1119 102.54 34.9244 102.611 34.7121C102.611 34.6873 102.623 34.6466 102.646 34.5882C102.671 34.5299 102.694 34.4998 102.717 34.4998C102.975 34.0274 103.199 33.5515 103.388 33.0667C103.575 32.5855 103.835 32.106 104.164 31.6336C104.376 31.3523 104.635 31.0639 104.941 30.7685C105.247 30.4748 105.575 30.197 105.93 29.9369C106.282 29.6786 106.653 29.4646 107.041 29.3018C107.43 29.1355 107.813 29.0329 108.188 28.9833C109.248 28.8878 110.071 29.0346 110.661 29.4239C111.249 29.8131 111.712 30.3138 112.053 30.9277C112.394 31.5416 112.659 32.2175 112.848 32.9606C113.035 33.7036 113.247 34.3936 113.482 35.0288C113.482 35.0996 113.5 35.2287 113.535 35.418C113.571 35.6056 113.599 35.8072 113.624 36.0196C113.647 36.2319 113.677 36.4247 113.712 36.6034C113.747 36.7803 113.765 36.9042 113.765 36.9732C113.929 38.5301 114.028 40.0976 114.065 41.6758C114.101 43.2557 114.154 44.8215 114.224 46.3802C114.224 46.7818 114.192 47.1922 114.134 47.6169C114.076 48.0415 114.058 48.4537 114.083 48.8536C114.083 48.9013 114.094 49.0234 114.12 49.2233C114.143 49.4232 114.164 49.6444 114.189 49.8797C114.214 50.115 114.242 50.3326 114.277 50.5326C114.314 50.7325 114.33 50.8581 114.33 50.9023V52.07C114.33 52.1178 114.336 52.2434 114.348 52.4398C114.36 52.6432 114.373 52.8609 114.385 53.0962C114.396 53.3315 114.408 53.5491 114.42 53.749C114.433 53.9489 114.438 54.0834 114.438 54.1559C114.438 54.2975 114.417 54.508 114.367 54.7911C114.321 55.0742 114.168 55.2405 113.908 55.2847H113.839C113.814 55.2847 113.737 55.2741 113.608 55.2493C113.479 55.2246 113.403 55.2139 113.378 55.2139C113.309 55.2139 113.168 55.2175 112.956 55.2316C112.744 55.2422 112.527 55.2493 112.302 55.2493C112.08 55.2493 111.868 55.2564 111.668 55.267C111.463 55.2847 111.329 55.2882 111.258 55.2882ZM105.469 42.5604C105.492 42.8417 105.656 43.0434 105.962 43.1619C106.268 43.2805 106.621 43.3548 107.022 43.3919C107.423 43.4273 107.822 43.4379 108.223 43.4273C108.624 43.4167 108.928 43.3972 109.142 43.3742C109.188 43.3742 109.283 43.3689 109.425 43.3566C109.564 43.3442 109.659 43.3389 109.705 43.3389C109.751 43.2681 109.788 43.2044 109.813 43.1442C109.836 43.0876 109.859 43.0222 109.884 42.9514C109.884 42.8099 109.87 42.5799 109.847 42.2614C109.822 41.9429 109.806 41.5962 109.794 41.2176C109.781 40.8407 109.771 40.4939 109.758 40.1737C109.746 39.8552 109.741 39.6252 109.741 39.4837C109.764 39.4377 109.778 39.3316 109.778 39.1652V38.8132L109.423 35.3844C109.398 35.2181 109.34 35.0306 109.244 34.8182C109.151 34.6059 109.032 34.4131 108.893 34.2344C108.751 34.0575 108.58 33.9159 108.38 33.8116C108.181 33.7072 107.974 33.6647 107.762 33.6877C107.573 33.7125 107.396 33.7709 107.232 33.8664C106.457 34.6679 105.973 35.5047 105.785 36.3769C105.596 37.2474 105.49 38.2028 105.467 39.2396C105.467 39.8057 105.453 40.3595 105.43 40.9009C105.407 41.4405 105.42 41.9942 105.469 42.5604Z" fill="white"/>
<path d="M117.929 55.5024C117.883 54.8425 117.929 54.1755 118.071 53.5014C118.212 52.8309 118.306 52.1639 118.353 51.504C118.424 51.0334 118.47 50.5645 118.495 50.0904C118.518 49.6197 118.553 49.1474 118.601 48.6768C118.576 48.652 118.565 48.6184 118.565 48.5688V48.4273L118.917 46.0954C118.8 45.7186 118.805 45.3347 118.936 44.9454C119.063 44.5562 119.154 44.1971 119.199 43.868C119.222 43.6327 119.27 43.178 119.341 42.5057C119.411 41.8334 119.505 41.0673 119.623 40.2057C119.74 39.3476 119.864 38.44 119.993 37.4846C120.122 36.531 120.258 35.6464 120.399 34.8325C120.539 34.0204 120.675 33.3357 120.803 32.782C120.932 32.2282 121.056 31.9168 121.174 31.8461C121.528 31.6337 121.934 31.5152 122.392 31.494C122.851 31.4692 123.28 31.4462 123.679 31.4232C123.962 31.3984 124.185 31.3861 124.351 31.3861C124.515 31.3861 124.761 31.3984 125.093 31.4232C125.379 31.5877 125.603 31.9062 125.768 32.3768C125.934 33.6737 126.184 34.9051 126.527 36.0727C126.868 37.2387 127.204 38.4471 127.534 39.6961C127.557 39.7439 127.591 39.8801 127.64 40.1031C127.684 40.326 127.741 40.5684 127.799 40.8267C127.857 41.085 127.916 41.3274 127.976 41.5521C128.034 41.775 128.064 41.9112 128.064 41.9572C128.112 42.074 128.175 42.2757 128.258 42.5587C128.341 42.8401 128.393 43.0417 128.417 43.1603C128.417 43.1833 128.43 43.2063 128.455 43.2311C128.477 43.2541 128.5 43.2664 128.525 43.2664H128.561C128.702 43.2664 128.813 42.9657 128.894 42.3641C128.976 41.7626 129.048 41.0124 129.106 40.119C129.165 39.222 129.223 38.256 129.283 37.2192C129.343 36.1824 129.412 35.2147 129.495 34.3194C129.578 33.4207 129.682 32.6741 129.813 32.0725C129.944 31.471 130.113 31.1596 130.325 31.1366L134.033 30.8535C134.104 30.8535 134.198 30.9066 134.316 31.0127C134.433 31.1207 134.503 31.2197 134.526 31.3135L135.196 36.4054C135.243 36.5929 135.298 36.7946 135.357 37.0069C135.417 37.2192 135.468 37.4191 135.516 37.6084C135.54 37.8667 135.586 38.2737 135.657 38.8274C135.728 39.3812 135.811 40.0057 135.906 40.7011C136 41.3981 136.093 42.12 136.187 42.8754C136.282 43.6309 136.372 44.3545 136.469 45.0498C136.563 45.7451 136.651 46.3644 136.733 46.9057C136.814 47.4489 136.879 47.8487 136.927 48.1088C136.95 48.3441 137.01 48.744 137.104 49.3119C137.199 49.8781 137.303 50.4831 137.422 51.1324C137.54 51.7817 137.651 52.3868 137.757 52.953C137.863 53.5191 137.939 53.9208 137.987 54.1561V54.2604C138.01 54.3808 138.005 54.5329 137.969 54.7204C137.932 54.9098 137.858 55.0283 137.74 55.0761L134.526 55.2866L132.479 39.659L132.339 39.0574L130.362 55.2512L128.244 55.4281L124.008 39.1636L121.395 56.4189C121.371 56.5817 121.365 56.6807 121.378 56.7197C121.388 56.7551 121.337 56.771 121.217 56.771C121.194 56.771 121.182 56.7781 121.182 56.7887C121.182 56.7993 121.169 56.8064 121.146 56.8064H121.109C120.922 56.7816 120.655 56.7551 120.316 56.7197C119.975 56.6825 119.627 56.6153 119.274 56.5233C118.92 56.4313 118.615 56.3057 118.355 56.1535C118.095 55.9996 117.954 55.782 117.929 55.5024Z" fill="white"/>
<path d="M142.256 53.9827C142.256 53.935 142.268 53.8819 142.291 53.8235C142.316 53.7651 142.316 53.7227 142.291 53.6997C142.316 53.3918 142.349 53.0221 142.399 52.5833C142.443 52.1481 142.528 51.7889 142.646 51.5058C142.717 51.3431 142.834 51.2192 143 51.136C143.164 51.0529 143.333 50.9839 143.51 50.9255C143.689 50.8671 143.856 50.8052 144.022 50.745C144.187 50.6867 144.316 50.5858 144.411 50.4443C144.436 50.4443 144.452 50.4089 144.464 50.3399C144.476 50.2674 144.482 50.209 144.482 50.163C144.482 50.1152 144.487 50.0214 144.499 49.8799C144.512 49.7384 144.524 49.5791 144.537 49.4022C144.547 49.2253 144.554 49.0537 144.554 48.8874V48.5353C144.484 46.6245 144.466 44.7297 144.501 42.8419C144.538 40.9577 144.496 39.0717 144.379 37.1857C144.379 37.1397 144.367 37.0441 144.342 36.9044C144.317 36.7628 144.302 36.6089 144.291 36.4426C144.277 36.278 144.266 36.1241 144.254 35.9826C144.241 35.8428 144.236 35.7349 144.236 35.6641C144.188 35.4518 144.077 35.3244 143.901 35.2749C143.724 35.2289 143.531 35.1811 143.319 35.1334C143.106 35.0874 142.918 35.0113 142.754 34.9034C142.59 34.7972 142.496 34.6026 142.473 34.3213C142.473 34.2965 142.466 34.2735 142.454 34.2505C142.441 34.2257 142.436 34.2045 142.436 34.1797V33.4561C142.436 33.1164 142.441 32.7502 142.454 32.361C142.466 31.9735 142.473 31.6073 142.473 31.2658V30.5758C142.517 30.3865 142.579 30.1512 142.65 29.8681C142.72 29.585 142.849 29.4205 143.038 29.3745L143.107 29.4099H143.18C143.533 29.4807 144.026 29.5107 144.662 29.4984C145.298 29.4877 145.946 29.4984 146.605 29.5355C147.264 29.5709 147.882 29.6523 148.458 29.7832C149.034 29.9141 149.441 30.1424 149.675 30.4732C149.792 30.6147 149.854 30.8394 149.854 31.1455C149.854 31.4516 149.857 31.6834 149.88 31.8461C149.949 32.8599 149.921 33.5676 149.792 33.9674C149.663 34.3673 149.508 34.6397 149.333 34.7813C149.156 34.9246 148.974 35.0166 148.785 35.0626C148.596 35.1104 148.478 35.2997 148.432 35.6287C148.266 36.6195 148.174 37.6085 148.149 38.5993C148.126 39.5901 148.131 40.5791 148.169 41.5698C148.204 42.5606 148.255 43.5443 148.328 44.5227C148.398 45.5011 148.455 46.483 148.504 47.4737V47.8435V48.4999C148.504 48.7352 148.51 48.9528 148.522 49.1527C148.534 49.3527 148.54 49.4783 148.54 49.5225V49.8056C148.564 50.0887 148.669 50.2797 148.859 50.3717C149.047 50.4655 149.259 50.5557 149.494 50.6371C149.727 50.7203 149.946 50.8229 150.147 50.9556C150.345 51.083 150.47 51.3254 150.516 51.6774C150.516 51.8437 150.523 52.0844 150.536 52.4028C150.546 52.7213 150.529 53.038 150.483 53.36C150.435 53.6784 150.347 53.9651 150.218 54.2234C150.089 54.4817 149.884 54.625 149.599 54.648C149.128 54.7417 148.594 54.7647 147.994 54.717C147.393 54.6727 146.856 54.6727 146.388 54.717C146.317 54.717 146.146 54.7382 145.876 54.7718C145.605 54.8054 145.321 54.8461 145.026 54.8815C144.733 54.9187 144.45 54.947 144.18 54.9717C143.909 54.9965 143.738 55.0071 143.667 55.0071C143.337 55.0319 143.033 54.9664 142.749 54.8143C142.468 54.6604 142.302 54.3826 142.256 53.9827Z" fill="white"/>
<path d="M159.415 46.2723C159.461 46.1308 159.433 45.9644 159.325 45.7787C159.219 45.5894 159.072 45.4956 158.885 45.4956H158.777C158.777 45.6849 158.772 46.0069 158.76 46.4669C158.747 46.9269 158.735 47.4134 158.724 47.9354C158.712 48.4538 158.7 48.9474 158.687 49.4215C158.675 49.8921 158.67 50.2088 158.67 50.3751V51.1182C158.693 51.5888 158.74 52.0541 158.811 52.5141C158.882 52.9741 158.928 53.4394 158.952 53.9101C158.952 54.1241 158.921 54.294 158.862 54.4214C158.804 54.5523 158.645 54.6178 158.385 54.6178C157.892 54.6655 157.421 54.6761 156.974 54.6531C156.525 54.6284 156.045 54.6531 155.527 54.7221C155.432 54.6779 155.349 54.5841 155.278 54.4426C155.207 54.3011 155.161 54.2038 155.137 54.1595C155.137 54.1118 155.119 53.9755 155.085 53.7526C155.048 53.5279 155.032 53.3828 155.032 53.3103C154.986 52.5814 154.979 51.8489 155.015 51.12C155.05 50.3875 155.091 49.6586 155.137 48.9261C155.137 47.7266 155.119 46.5448 155.085 45.3912C155.048 44.2377 155.124 43.0576 155.315 41.8545L154.82 31.9203C154.82 31.8035 154.827 31.6496 154.84 31.4603C154.85 31.2728 154.884 31.0888 154.946 30.9118C155.004 30.7349 155.087 30.581 155.193 30.4518C155.301 30.3227 155.435 30.2572 155.599 30.2572H155.739C156.304 30.305 156.769 30.3528 157.135 30.3988C157.498 30.4465 157.753 30.7172 157.894 31.2126C158.081 31.731 158.288 32.2494 158.512 32.7678C158.735 33.2861 158.954 33.7815 159.164 34.2539C159.189 34.2769 159.201 34.3176 159.201 34.376V34.4998C159.318 35.135 159.507 35.7896 159.765 36.4619C160.023 37.1342 160.27 37.7517 160.507 38.3178C160.461 38.5549 160.507 38.8256 160.648 39.1317C160.79 39.4378 160.954 39.7456 161.141 40.0517C161.328 40.3578 161.5 40.6532 161.653 40.9345C161.807 41.2176 161.858 41.4547 161.812 41.6422C161.837 41.713 161.895 41.8598 161.991 42.0845C162.084 42.3074 162.173 42.5498 162.254 42.8081C162.337 43.0664 162.418 43.3088 162.501 43.5335C162.584 43.7564 162.648 43.9157 162.696 44.0112C162.719 44.082 162.747 44.1828 162.784 44.312C162.819 44.4411 162.86 44.5827 162.908 44.7348C162.954 44.8888 162.996 45.0356 163.03 45.1771C163.067 45.3204 163.083 45.4124 163.083 45.462C163.199 45.7451 163.282 46.0388 163.33 46.3431C163.376 46.6509 163.542 46.8986 163.825 47.0861C163.941 46.8508 164.001 46.5925 164.001 46.3094C164.332 43.6945 164.478 41.1256 164.443 38.6027C164.406 36.0798 164.365 33.4984 164.319 30.8588C164.344 30.8128 164.402 30.7172 164.496 30.5757C164.591 30.4359 164.662 30.3651 164.708 30.3651L167.533 30.1528C167.745 30.1528 167.852 30.2112 167.852 30.3298C167.852 30.4483 167.921 30.5297 168.064 30.5774C167.992 31.639 167.992 32.6811 168.064 33.7072C168.133 34.7334 168.121 35.7772 168.027 36.8388C167.861 38.3709 167.715 39.8677 167.586 41.3291C167.457 42.7904 167.45 44.2996 167.568 45.853L167.285 53.6659C167.261 53.88 167.144 54.1666 166.932 54.5328C166.722 54.8991 166.485 55.1308 166.227 55.2246C166.181 55.2246 166.056 55.2281 165.856 55.2423C165.656 55.2529 165.533 55.26 165.485 55.26C164.897 55.3078 164.333 55.3184 163.791 55.2954C163.249 55.2724 162.685 55.2122 162.097 55.1184C161.789 55.0937 161.554 54.8761 161.392 54.4656C161.226 54.0516 161.102 53.5916 161.021 53.0874C160.938 52.5796 160.88 52.0948 160.843 51.6366C160.807 51.1766 160.777 50.8758 160.754 50.7343C160.731 50.6405 160.684 50.4406 160.613 50.1328C160.542 49.8284 160.484 49.6144 160.436 49.4976C160.389 49.3808 160.32 49.1685 160.224 48.8624C160.131 48.5546 160.032 48.2344 159.924 47.8911C159.816 47.5479 159.719 47.2241 159.624 46.9163C159.532 46.6049 159.461 46.3908 159.415 46.2723Z" fill="white"/>
<path d="M172.723 49.5243C172.698 49.4305 172.682 49.3032 172.67 49.1369C172.657 48.9705 172.647 48.8042 172.634 48.6432C172.622 48.4769 172.61 48.3283 172.597 48.2009C172.587 48.07 172.581 47.9833 172.581 47.9355C172.557 47.4862 172.535 46.9059 172.511 46.184C172.486 45.4657 172.465 44.7545 172.44 44.0468C172.415 43.3409 172.394 42.7163 172.369 42.1732C172.346 41.63 172.334 41.3257 172.334 41.2532C172.334 40.5455 172.352 39.7741 172.387 38.9355C172.422 38.0986 172.498 37.2512 172.617 36.3913C172.733 35.5315 172.928 34.6946 173.198 33.8808C173.468 33.0669 173.827 32.3433 174.274 31.7064C174.721 31.0712 175.291 30.5529 175.985 30.1512C176.682 29.7496 177.522 29.5161 178.512 29.4453H179.217C179.875 29.5391 180.51 29.6877 181.123 29.8859C181.736 30.0858 182.289 30.3582 182.782 30.6997C183.276 31.0412 183.704 31.4481 184.069 31.9187C184.437 32.3893 184.714 32.9555 184.903 33.6154C184.926 33.7109 184.956 33.9409 184.991 34.3054C185.029 34.6716 185.044 34.914 185.044 35.0308C185.044 35.2183 185.05 35.4961 185.062 35.8623C185.075 36.2285 185.08 36.4338 185.08 36.4815C185.08 36.7169 185.087 37.2299 185.099 38.019C185.11 38.8081 185.129 39.6697 185.15 40.6003C185.175 41.5309 185.191 42.4385 185.203 43.3232C185.216 44.206 185.221 44.8606 185.221 45.2835C185.221 45.8726 185.226 46.5502 185.239 47.3181C185.251 48.0859 185.226 48.8803 185.17 49.7065C185.11 50.5292 185.004 51.3449 184.85 52.1463C184.696 52.9442 184.446 53.6661 184.091 54.303C183.739 54.9382 183.28 55.4636 182.714 55.8759C182.151 56.2863 181.43 56.5181 180.561 56.5676C179.807 56.6154 179.096 56.5676 178.425 56.4261C177.754 56.2845 177.065 56.0935 176.36 55.8599C175.653 55.6459 175.076 55.3168 174.631 54.8674C174.184 54.4215 173.825 53.9032 173.555 53.3122C173.284 52.7249 173.083 52.0985 172.954 51.4386C172.825 50.7787 172.744 50.14 172.723 49.5243ZM177.418 49.2802C177.464 49.7738 177.611 50.2161 177.858 50.6035C178.107 50.9945 178.512 51.1662 179.073 51.1184C179.453 51.0936 179.734 50.9839 179.923 50.784C180.11 50.5841 180.246 50.3346 180.328 50.0409C180.411 49.7437 180.457 49.4323 180.469 49.105C180.481 48.7724 180.499 48.4663 180.522 48.185V47.8842C180.522 47.7285 180.527 47.5622 180.54 47.3871C180.55 47.2102 180.557 47.0492 180.557 46.8935V46.6281C180.628 45.425 180.663 44.3263 180.663 43.3232C180.663 42.32 180.628 41.2195 180.557 40.0165C180.557 39.8749 180.543 39.6449 180.522 39.3265C180.497 39.008 180.473 38.6683 180.451 38.3021C180.427 37.9359 180.404 37.5979 180.381 37.2759C180.356 36.9575 180.344 36.7275 180.344 36.5859C180.298 36.4444 180.209 36.2515 180.08 36.0039C179.951 35.7544 179.808 35.5209 179.656 35.2962C179.503 35.0732 179.326 34.8786 179.126 34.7141C178.925 34.5478 178.733 34.4664 178.545 34.4664C178.309 34.4894 178.104 34.6009 177.925 34.8008C177.749 35.0007 177.607 35.2431 177.503 35.5244C177.395 35.8075 177.314 36.0959 177.256 36.3913C177.196 36.6868 177.153 36.9292 177.132 37.1149C177.107 37.1627 177.083 37.2812 177.061 37.4688C177.037 37.6563 177.008 37.8704 176.973 38.1057C176.936 38.341 176.902 38.5639 176.865 38.7762C176.83 38.9903 176.814 39.1177 176.814 39.1655V39.6609V40.6162C176.814 40.9683 176.807 41.3169 176.796 41.6583C176.784 41.9998 176.777 42.2652 176.777 42.4527V42.7358C176.777 42.7835 176.784 42.8189 176.796 42.8419C176.807 42.8667 176.814 42.9021 176.814 42.9499V43.0914C176.837 43.3267 176.878 43.7389 176.934 44.3281C176.994 44.9172 177.06 45.5365 177.13 46.1822C177.201 46.8315 177.259 47.4508 177.307 48.0417C177.358 48.6291 177.395 49.0449 177.418 49.2802Z" fill="white"/>
<path d="M201.374 55.8208C201.328 55.7961 201.291 55.697 201.268 55.5201C201.243 55.3431 201.231 55.2299 201.231 55.1821C201.089 54.3347 201.066 53.4925 201.16 52.6557C201.256 51.8188 201.289 50.9873 201.268 50.1646C201.22 49.1031 201.109 48.0468 200.932 46.9994C200.756 45.9485 200.62 44.8941 200.528 43.8325C200.503 43.0063 200.503 42.2137 200.528 41.4458C200.551 40.6798 200.563 39.8854 200.563 39.0591C200.588 38.3037 200.563 37.5447 200.492 36.7786C200.422 36.0125 200.363 35.2535 200.316 34.4981V34.2858V33.9142V33.5427V33.2968C200.291 33.18 200.27 32.9783 200.245 32.6952C200.22 32.4139 200.199 32.1131 200.174 31.7929C200.15 31.4744 200.13 31.1737 200.104 30.8924C200.081 30.6093 200.068 30.4094 200.068 30.2908C200.114 30.1033 200.162 29.96 200.21 29.8662C200.256 29.7724 200.349 29.6893 200.491 29.6185C200.538 29.5938 200.674 29.5654 200.897 29.5301C201.119 29.4929 201.268 29.477 201.339 29.477C202.632 29.3124 203.798 29.3708 204.833 29.6539C205.87 29.937 206.769 30.397 207.534 31.0321C208.299 31.6691 208.922 32.4546 209.406 33.3834C209.887 34.3158 210.223 35.3349 210.412 36.4424C210.528 37.3394 210.588 38.2117 210.588 39.0591C210.588 39.9066 210.553 40.7912 210.482 41.7112C210.576 42.1836 210.588 42.6418 210.518 43.0894C210.447 43.5371 210.435 43.9971 210.482 44.4677C210.507 45.2231 210.553 46.1007 210.624 47.1003C210.694 48.1017 210.675 49.1048 210.571 50.1062C210.466 51.1076 210.217 52.0418 209.829 52.9016C209.44 53.7614 208.811 54.4249 207.94 54.8991C207.094 55.3201 206.193 55.6032 205.241 55.7465C204.287 55.8881 203.34 56.019 202.398 56.1375C202.353 56.1375 202.239 56.1481 202.065 56.1729C201.89 56.1977 201.777 56.2083 201.731 56.2083C201.683 56.1605 201.619 56.1074 201.536 56.0491C201.453 55.9907 201.395 55.9146 201.374 55.8208ZM204.727 51.1518C204.843 51.3411 204.997 51.4243 205.186 51.4013C205.444 51.3765 205.649 51.235 205.804 50.9767C205.958 50.7184 206.075 50.4264 206.158 50.1098C206.241 49.7931 206.299 49.4675 206.334 49.1384C206.371 48.8058 206.4 48.5475 206.423 48.3618C206.447 48.1954 206.47 47.9672 206.493 47.67C206.518 47.3763 206.539 47.0932 206.564 46.8225C206.589 46.5501 206.605 46.3148 206.617 46.1148C206.629 45.9149 206.635 45.8034 206.635 45.7804L206.599 45.4974C206.599 44.2005 206.61 42.863 206.635 41.4848C206.659 40.1065 206.564 38.7442 206.352 37.3996C206.235 36.7149 206.099 36.1753 205.948 35.7737C205.796 35.3721 205.46 34.9262 204.942 34.4291C204.872 34.3105 204.806 34.2168 204.748 34.146C204.69 34.0752 204.577 34.0522 204.414 34.0752C204.296 34.1 204.255 34.1991 204.29 34.376C204.328 34.5547 204.343 34.6538 204.343 34.6768C204.414 36.1151 204.46 37.5518 204.485 38.9901C204.508 40.4268 204.543 41.8669 204.591 43.3035C204.616 44.4818 204.578 45.6796 204.485 46.8933C204.389 48.107 204.437 49.3048 204.626 50.4831C204.626 50.5273 204.644 50.6423 204.677 50.8174C204.709 50.9926 204.727 51.1041 204.727 51.1518Z" fill="white"/>
<path d="M215.777 55.5025C215.683 55.43 215.59 55.3539 215.496 55.2707C215.401 55.1876 215.355 55.0867 215.355 54.97C215.236 53.8394 215.243 52.6965 215.374 51.5412C215.501 50.3841 215.567 49.2394 215.567 48.1107C215.567 46.697 215.526 45.2763 215.443 43.8503C215.36 42.4226 215.272 40.9983 215.18 39.5723C215.084 38.1446 215.007 36.7256 214.95 35.312C214.89 33.8966 214.885 32.4954 214.932 31.103C214.932 30.9633 214.971 30.8093 215.054 30.643C215.137 30.4785 215.259 30.3847 215.425 30.3617C215.66 30.337 215.938 30.3493 216.257 30.3971C216.574 30.4449 216.837 30.4555 217.049 30.4343C217.144 30.4343 217.319 30.4272 217.581 30.4148C217.838 30.4042 218.114 30.3918 218.409 30.3794C218.702 30.367 218.981 30.3546 219.239 30.3423C219.497 30.3316 219.674 30.3246 219.769 30.3246C219.792 30.3246 219.886 30.3122 220.052 30.2892C220.216 30.2644 220.391 30.2432 220.582 30.2184C220.769 30.1936 220.939 30.1724 221.092 30.1476C221.246 30.1229 221.347 30.1105 221.393 30.1105C221.534 30.1105 221.764 30.0999 222.082 30.0751C222.4 30.0521 222.718 30.0521 223.036 30.0751C223.354 30.0999 223.642 30.1459 223.9 30.2166C224.157 30.2874 224.301 30.429 224.324 30.6395L224.569 33.6153C224.592 33.8047 224.511 33.9639 224.322 34.0948C224.133 34.224 223.956 34.3 223.792 34.3248C223.322 34.3708 222.85 34.3549 222.379 34.2717C221.907 34.1886 221.426 34.1709 220.932 34.2186C220.815 34.2186 220.661 34.2257 220.472 34.2363C220.285 34.2505 220.089 34.277 219.891 34.3266C219.69 34.3726 219.52 34.4433 219.379 34.5371C219.238 34.6326 219.167 34.7742 219.167 34.9617C219.238 35.9047 219.238 36.8831 219.167 37.8969C219.096 38.9089 219.109 39.8997 219.202 40.8657C219.202 40.9842 219.215 41.1363 219.239 41.3274C219.262 41.515 219.333 41.6671 219.451 41.7874C219.545 41.8564 219.692 41.9095 219.893 41.9467C220.091 41.982 220.298 41.998 220.511 41.998C220.721 41.998 220.921 41.9927 221.112 41.9803C221.299 41.9679 221.44 41.9626 221.534 41.9626C221.628 41.9626 221.804 41.9502 222.064 41.9254C222.324 41.9007 222.594 41.8741 222.877 41.837C223.158 41.8016 223.43 41.7733 223.688 41.7485C223.945 41.7255 224.124 41.7131 224.218 41.7131C224.288 41.7131 224.347 41.752 224.396 41.8352C224.442 41.9183 224.467 41.9838 224.467 42.0298L224.714 44.328C224.737 44.5403 224.684 44.7527 224.555 44.9632C224.426 45.1755 224.267 45.294 224.076 45.3188C223.559 45.3878 223.041 45.3843 222.523 45.3011C222.006 45.2162 221.476 45.2003 220.935 45.248C220.605 45.294 220.372 45.386 220.23 45.5134C220.089 45.6443 219.994 45.8036 219.948 45.9911C219.902 46.1787 219.877 46.3927 219.877 46.6263V47.3693C219.877 47.4419 219.865 47.6117 219.842 47.8842C219.817 48.1531 219.789 48.4433 219.753 48.7476C219.718 49.0519 219.688 49.3385 219.663 49.5968C219.64 49.8551 219.617 50.0214 219.594 50.0904C219.64 50.1152 219.651 50.1842 219.63 50.301C219.605 50.4213 219.617 50.515 219.665 50.584C219.665 50.7256 219.69 50.899 219.736 51.0989C219.783 51.2988 219.914 51.3997 220.126 51.3997H220.955H222.191H223.426H224.219C224.596 51.3997 224.937 51.435 225.244 51.504C225.55 51.5766 225.762 51.8367 225.878 52.2807C225.878 52.3285 225.896 52.44 225.931 52.6187C225.966 52.7956 226.002 52.9955 226.037 53.2202C226.074 53.4413 226.108 53.666 226.145 53.8907C226.18 54.1154 226.208 54.2853 226.233 54.402V54.6161C226.279 54.9452 226.198 55.1345 225.986 55.1787C225.774 55.2265 225.537 55.276 225.279 55.3203C224.29 55.4406 223.302 55.4689 222.313 55.4105C221.324 55.3521 220.336 55.3097 219.347 55.2867C219.278 55.2619 219.1 55.269 218.817 55.3043C218.536 55.3415 218.37 55.3592 218.324 55.3592C218.229 55.3592 218.059 55.3627 217.812 55.3769C217.565 55.3875 217.307 55.4052 217.036 55.4282C216.766 55.4512 216.512 55.4689 216.277 55.4795C216.037 55.4954 215.872 55.5025 215.777 55.5025Z" fill="white"/>
<path d="M241.746 52.3887C241.768 52.3444 241.751 52.2365 241.693 52.0702C241.636 51.9074 241.564 51.7217 241.481 51.52C241.398 51.3236 241.316 51.1325 241.233 50.9574C241.15 50.7822 241.097 50.6425 241.074 50.5505V49.3138V48.1107C241.074 47.9691 241.08 47.6578 241.092 47.1748C241.104 46.6918 241.117 46.1734 241.129 45.6196C241.14 45.0658 241.152 44.5457 241.164 44.0627C241.177 43.5832 241.182 43.2683 241.182 43.1268V40.9347C241.207 40.7701 241.223 40.5065 241.235 40.1403C241.247 39.7758 241.265 39.3972 241.288 39.0098C241.311 38.6188 241.327 38.2596 241.339 37.9305C241.352 37.6014 241.369 37.3768 241.392 37.2582C241.392 37.2122 241.405 37.0654 241.428 36.8159C241.452 36.5682 241.488 36.3984 241.535 36.3046C241.606 35.903 241.652 35.4784 241.677 35.0308C241.7 34.5831 241.77 34.1585 241.889 33.7569C242.028 33.3801 242.253 32.9324 242.558 32.4141C242.864 31.8957 243.235 31.4056 243.671 30.9456C244.106 30.4856 244.581 30.0928 245.102 29.762C245.62 29.4311 246.162 29.2666 246.725 29.2666C247.149 29.2666 247.48 29.2808 247.715 29.3038C247.95 29.3268 248.156 29.3745 248.333 29.4453C248.511 29.5161 248.669 29.6275 248.81 29.7797C248.951 29.9336 249.13 30.1512 249.34 30.4343C249.34 30.4803 249.365 30.5298 249.411 30.5741L249.481 30.6448V33.8984L249.2 34.1108C248.141 34.1568 247.3 34.3814 246.674 34.7831C246.051 35.1847 245.634 35.8074 245.422 36.6567C245.397 36.846 245.369 37.1574 245.333 37.5944C245.296 38.0296 245.256 38.4914 245.21 38.9726C245.164 39.4538 245.114 39.9138 245.068 40.3508C245.023 40.7861 244.998 41.0868 244.998 41.2531V42.6314C244.998 43.5266 245.005 44.3635 245.017 45.1419C245.026 45.9204 245.056 46.7802 245.106 47.7232C245.151 48.4044 245.293 48.9599 245.528 49.3828C245.764 49.8074 246.045 50.1435 246.374 50.3912C246.703 50.6389 247.058 50.8265 247.434 50.9574C247.81 51.0848 248.163 51.1927 248.494 51.2758C248.824 51.359 249.107 51.4528 249.34 51.5589C249.577 51.6633 249.716 51.8119 249.764 52.0012V52.9548C249.764 53.1441 249.776 53.3724 249.799 53.6431C249.824 53.9155 249.819 54.1862 249.782 54.4587C249.746 54.7276 249.67 54.97 249.552 55.1805C249.435 55.3946 249.22 55.5361 248.918 55.6051H247.964C246.552 55.6051 245.298 55.3592 244.205 54.8621C243.106 54.3685 242.286 53.544 241.746 52.3887Z" fill="white"/>
<path d="M253.359 49.5243C253.334 49.4305 253.319 49.3032 253.306 49.1369C253.294 48.9705 253.283 48.8042 253.271 48.6432C253.258 48.4769 253.246 48.3283 253.234 48.2009C253.221 48.07 253.216 47.9833 253.216 47.9355C253.191 47.4862 253.17 46.9059 253.145 46.184C253.121 45.4657 253.099 44.7545 253.075 44.0468C253.05 43.3409 253.029 42.7163 253.004 42.1732C252.981 41.63 252.969 41.3257 252.969 41.2532C252.969 40.5455 252.986 39.7741 253.022 38.9355C253.057 38.0986 253.133 37.2512 253.251 36.3913C253.368 35.5315 253.562 34.6946 253.833 33.8808C254.103 33.0669 254.462 32.3433 254.908 31.7064C255.355 31.0712 255.926 30.5529 256.622 30.1512C257.316 29.7496 258.157 29.5161 259.146 29.4453H259.851C260.51 29.5391 261.144 29.6877 261.757 29.8859C262.37 30.0858 262.923 30.3582 263.416 30.6997C263.911 31.0412 264.338 31.4481 264.704 31.9187C265.068 32.3911 265.345 32.9572 265.534 33.6154C265.557 33.7109 265.587 33.9409 265.623 34.3054C265.66 34.6716 265.676 34.914 265.676 35.0308C265.676 35.2183 265.681 35.4961 265.693 35.8623C265.706 36.2285 265.711 36.4338 265.711 36.4815C265.711 36.7169 265.718 37.2299 265.73 38.019C265.741 38.8081 265.761 39.6697 265.782 40.6003C265.806 41.5309 265.822 42.4385 265.835 43.3232C265.847 44.206 265.852 44.8606 265.852 45.2835C265.852 45.8726 265.858 46.5502 265.87 47.3181C265.882 48.0859 265.858 48.8803 265.801 49.7065C265.741 50.5292 265.635 51.3449 265.481 52.1463C265.328 52.9442 265.077 53.6661 264.722 54.303C264.37 54.9382 263.911 55.4636 263.346 55.8759C262.782 56.2863 262.063 56.5181 261.192 56.5676C260.438 56.6154 259.728 56.5676 259.056 56.4261C258.385 56.2845 257.696 56.0935 256.991 55.8599C256.285 55.6459 255.707 55.3168 255.262 54.8674C254.815 54.4215 254.456 53.9032 254.186 53.3122C253.916 52.7249 253.714 52.0985 253.585 51.4386C253.456 50.7787 253.38 50.14 253.359 49.5243ZM258.056 49.2802C258.102 49.7738 258.249 50.2161 258.496 50.6035C258.745 50.9945 259.15 51.1662 259.712 51.1184C260.092 51.0936 260.372 50.9839 260.561 50.784C260.749 50.5841 260.885 50.3346 260.966 50.0409C261.049 49.7437 261.095 49.4323 261.107 49.105C261.12 48.7724 261.137 48.4663 261.16 48.185V47.8842C261.16 47.7285 261.166 47.5622 261.178 47.3871C261.189 47.2102 261.196 47.0492 261.196 46.8935V46.6281C261.266 45.425 261.302 44.3263 261.302 43.3232C261.302 42.32 261.266 41.2195 261.196 40.0165C261.196 39.8749 261.183 39.6449 261.16 39.3265C261.136 39.008 261.113 38.6683 261.09 38.3021C261.065 37.9359 261.042 37.5979 261.019 37.2759C260.994 36.9575 260.982 36.7275 260.982 36.5859C260.936 36.4444 260.848 36.2515 260.719 36.0039C260.59 35.7544 260.448 35.5209 260.295 35.2962C260.141 35.0732 259.964 34.8786 259.765 34.7141C259.565 34.5478 259.371 34.4664 259.184 34.4664C258.947 34.4894 258.742 34.6009 258.563 34.8008C258.387 35.0007 258.246 35.2431 258.141 35.5244C258.034 35.8075 257.952 36.0959 257.894 36.3913C257.834 36.6868 257.791 36.9292 257.77 37.1149C257.746 37.1627 257.721 37.2812 257.7 37.4688C257.675 37.6563 257.647 37.8704 257.611 38.1057C257.574 38.341 257.541 38.5639 257.504 38.7762C257.468 38.9903 257.452 39.1177 257.452 39.1655V39.6609V40.6162C257.452 40.9683 257.445 41.3169 257.435 41.6583C257.422 41.9998 257.415 42.2652 257.415 42.4527V42.7358C257.415 42.7835 257.422 42.8189 257.435 42.8419C257.445 42.8667 257.452 42.9021 257.452 42.9499V43.0914C257.475 43.3267 257.516 43.7389 257.572 44.3281C257.633 44.9172 257.698 45.5365 257.769 46.1822C257.839 46.8315 257.897 47.4508 257.945 48.0417C257.995 48.6291 258.032 49.0449 258.056 49.2802Z" fill="white"/>
<path d="M268.998 49.8798C269.162 49.4304 269.463 49.1438 269.899 49.0129C270.334 48.8855 270.851 48.8466 271.452 48.905C272.052 48.9634 272.724 49.0784 273.466 49.2394C274.206 49.4057 274.976 49.5614 275.778 49.7029C276.107 49.6781 276.396 49.595 276.642 49.4534C276.891 49.3119 277.121 49.1279 277.333 48.9032C277.543 48.6821 277.743 48.4255 277.932 48.146C278.119 47.8594 278.322 47.5798 278.532 47.2968C278.557 47.272 278.578 47.2207 278.603 47.1375C278.628 47.0544 278.64 47.0031 278.64 46.9783L278.499 44.8906C278.451 44.8676 278.304 44.7508 278.057 44.5385C277.81 44.3262 277.615 44.1617 277.474 44.0431C277.428 43.9971 277.34 43.9317 277.209 43.8503C277.082 43.7671 276.992 43.7264 276.946 43.7264C276.123 43.3726 275.352 43.0913 274.633 42.879C273.914 42.6667 273.245 42.4137 272.621 42.1182C271.996 41.8245 271.431 41.4229 270.925 40.9151C270.42 40.4091 269.978 39.6838 269.602 38.7408C269.602 38.67 269.595 38.5603 269.585 38.4205C269.572 38.2808 269.553 38.1339 269.532 37.98C269.507 37.8261 269.491 37.6845 269.479 37.5554C269.466 37.4262 269.461 37.3378 269.461 37.2918C269.436 36.9609 269.406 36.6071 269.373 36.2302C269.335 35.8534 269.378 35.4995 269.494 35.1704C269.519 35.0731 269.565 34.9033 269.636 34.6556C269.706 34.4079 269.789 34.1549 269.885 33.8948C269.978 33.6365 270.067 33.3888 270.148 33.1518C270.231 32.9164 270.282 32.7519 270.307 32.6581V32.4812C270.448 32.2689 270.577 32.1026 270.696 31.9858C270.814 31.8691 270.925 31.7434 271.031 31.6143C271.137 31.4834 271.224 31.3843 271.295 31.3135C272.07 30.4431 272.842 29.7831 273.609 29.3337C274.374 28.8861 275.308 28.6048 276.414 28.4863C276.722 28.4633 277.168 28.4987 277.757 28.5924C278.345 28.688 278.933 28.8313 279.522 29.0171C280.11 29.2046 280.627 29.447 281.076 29.7424C281.523 30.0361 281.758 30.3617 281.781 30.7138C281.804 30.9261 281.793 31.2091 281.746 31.5612C281.698 31.9151 281.622 32.2689 281.514 32.6228C281.408 32.9766 281.267 33.2898 281.092 33.5604C280.917 33.8311 280.709 33.978 280.474 34.001C279.859 34.0488 279.249 34.0417 278.638 33.9833C278.025 33.9249 277.414 33.9196 276.803 33.9656C276.684 33.9656 276.442 33.9921 276.078 34.0364C275.713 34.0824 275.473 34.1071 275.356 34.1071C275.285 34.1531 275.172 34.208 275.02 34.2664C274.868 34.3248 274.715 34.4026 274.559 34.4964C274.407 34.5919 274.278 34.6839 274.172 34.7794C274.066 34.8732 274.013 34.967 274.013 35.0608L274.19 37.1821C274.19 37.3006 274.264 37.4121 274.42 37.5182C274.573 37.6244 274.738 37.7288 274.914 37.8367C275.091 37.9428 275.273 38.0366 275.462 38.1198C275.649 38.2011 275.78 38.2542 275.851 38.279C276.792 38.7266 277.651 39.1512 278.428 39.5511C279.204 39.9527 279.875 40.4233 280.44 40.9664C281.005 41.5114 281.458 42.1501 281.8 42.8931C282.143 43.6362 282.359 44.5615 282.454 45.6691C282.548 46.6368 282.484 47.5904 282.26 48.5334C282.035 49.4764 281.671 50.3204 281.166 51.0599C280.659 51.803 280.02 52.4222 279.242 52.9194C278.463 53.413 277.584 53.7067 276.594 53.8004C275.769 53.8978 274.923 53.9084 274.052 53.8376C273.181 53.7651 272.388 53.5881 271.669 53.3051C270.95 53.022 270.346 52.6044 269.85 52.0507C269.351 51.5004 269.069 50.7751 268.998 49.8798Z" fill="white"/>
<path d="M289.086 55.4299C289.109 55.3362 289.104 55.1433 289.069 54.8461C289.032 54.5524 289.016 54.3595 289.016 54.2622C288.97 53.5333 288.975 52.8309 289.033 52.1604C289.092 51.4863 289.169 50.7751 289.263 50.0214C289.288 49.9736 289.288 49.9082 289.263 49.825C289.24 49.7419 289.228 49.6905 289.228 49.6658C289.228 49.0784 289.268 48.5016 289.35 47.9337C289.433 47.3675 289.486 46.7908 289.51 46.2016C289.556 45.0923 289.546 44.0078 289.473 42.948C289.401 41.8882 289.378 40.8143 289.403 39.7315C289.403 39.636 289.408 39.4945 289.419 39.3069L289.456 38.7425C289.468 38.555 289.479 38.3834 289.489 38.2295C289.503 38.0755 289.51 37.9747 289.51 37.9287C289.51 37.8827 289.521 37.7766 289.546 37.6102C289.567 37.4457 289.592 37.2741 289.616 37.0972C289.639 36.9202 289.662 36.7557 289.687 36.6035C289.71 36.4496 289.722 36.3488 289.722 36.3028V36.1949C289.722 36.0303 289.664 35.9065 289.546 35.8233C289.429 35.7419 289.309 35.6889 289.192 35.6641C288.488 35.7119 287.811 35.7172 287.164 35.6835C286.516 35.6464 285.839 35.6535 285.135 35.7012C284.947 35.6552 284.769 35.5721 284.605 35.4518C284.605 35.335 284.592 35.1174 284.569 34.7989C284.545 34.4805 284.522 34.2735 284.499 34.1797C284.474 33.9674 284.433 33.6365 284.375 33.1889C284.317 32.7413 284.28 32.2866 284.267 31.8266C284.257 31.3666 284.299 30.9544 284.391 30.5899C284.486 30.2237 284.686 30.0185 284.992 29.9707H285.133L296.889 30.0769C297.054 30.0769 297.183 30.1299 297.278 30.2361C297.37 30.3422 297.448 30.4661 297.508 30.6076C297.566 30.7492 297.608 30.896 297.63 31.0499C297.654 31.2039 297.667 31.3259 297.667 31.4215C297.667 31.4445 297.672 31.5329 297.684 31.6851C297.697 31.839 297.714 32.0159 297.736 32.2159C297.76 32.4158 297.783 32.6175 297.808 32.8174C297.831 33.0173 297.843 33.1889 297.843 33.3305C297.843 33.4012 297.849 33.518 297.861 33.6825C297.873 33.8489 297.884 34.0311 297.898 34.231C297.909 34.4327 297.921 34.622 297.933 34.7972C297.946 34.9723 297.951 35.0979 297.951 35.1687C297.951 35.2855 297.916 35.404 297.845 35.5208C297.774 35.6393 297.679 35.7101 297.562 35.7331C296.974 35.8286 296.386 35.8746 295.798 35.8746C295.209 35.8746 294.621 35.9118 294.033 35.9808C293.916 36.0055 293.808 36.0126 293.715 36.0002C293.618 35.9879 293.515 36.0409 293.395 36.1595C293.256 36.324 293.167 36.5239 293.132 36.761C293.097 36.9963 293.079 37.2387 293.079 37.4846C293.079 37.7305 293.091 37.98 293.116 38.2277C293.139 38.4754 293.151 38.693 293.151 38.8823C293.035 41.522 292.975 44.167 292.975 46.8209C292.975 49.4712 293.139 52.0932 293.469 54.6851C293.469 54.8744 293.437 55.1097 293.379 55.3928C293.321 55.6759 293.162 55.828 292.902 55.8528H292.867C292.819 55.8528 292.726 55.8457 292.584 55.8351C292.441 55.8209 292.284 55.8032 292.107 55.7802C291.929 55.759 291.772 55.7449 291.629 55.7449H291.383C291.242 55.7201 291.058 55.7201 290.835 55.7449C290.611 55.7696 290.388 55.7802 290.164 55.7802C289.94 55.7802 289.729 55.759 289.53 55.7112C289.33 55.6635 289.18 55.5715 289.086 55.4299Z" fill="white"/>
<path d="M310.516 55.2882C310.398 55.244 310.279 55.1644 310.163 55.06C310.046 54.9521 309.975 54.8424 309.951 54.7221L309.105 47.2276C309.105 47.1339 309.064 47.0507 308.981 46.9817C308.898 46.9092 308.822 46.8844 308.751 46.9092L304.658 47.3002L305.328 53.4854C305.375 53.8658 305.481 54.2108 305.647 54.5292C305.812 54.8477 305.916 55.1821 305.965 55.5377C305.988 55.6792 305.976 55.7659 305.928 55.8031C305.882 55.8385 305.775 55.8686 305.61 55.8898C305.564 55.8898 305.499 55.8969 305.418 55.9075C305.335 55.9216 305.282 55.9252 305.257 55.9252H304.817C304.617 55.9252 304.411 55.9322 304.199 55.9429C303.987 55.957 303.792 55.9676 303.616 55.98C303.439 55.9906 303.328 55.9977 303.282 55.9977C302.858 55.9977 302.515 55.9499 302.257 55.8562C301.999 55.7624 301.798 55.6209 301.657 55.4316C301.515 55.2458 301.415 55.014 301.356 54.7433C301.298 54.4709 301.245 54.1595 301.197 53.8039C301.081 52.5088 300.985 51.219 300.915 49.9328C300.844 48.6466 300.786 47.3444 300.738 46.0246C300.738 46.0033 300.733 45.8724 300.72 45.6371C300.708 45.4018 300.69 45.1293 300.667 44.8232C300.641 44.5172 300.621 44.2164 300.597 43.9227C300.57 43.6272 300.551 43.3972 300.526 43.2327C300.48 42.3357 300.521 41.5112 300.65 40.7576C300.779 40.0039 300.925 39.1776 301.091 38.2842C300.95 37.8826 300.98 37.4579 301.18 37.0103C301.378 36.5627 301.538 36.1629 301.657 35.8072C301.703 35.6197 301.733 35.4428 301.745 35.2765C301.757 35.1119 301.798 34.9244 301.869 34.7121C301.869 34.6873 301.881 34.6466 301.904 34.5882C301.929 34.5299 301.952 34.4998 301.975 34.4998C302.233 34.0274 302.457 33.5515 302.646 33.0667C302.833 32.5855 303.093 32.106 303.421 31.6336C303.633 31.3523 303.893 31.0639 304.199 30.7685C304.504 30.4748 304.833 30.197 305.188 29.9369C305.54 29.6786 305.911 29.4646 306.299 29.3018C306.688 29.1355 307.071 29.0329 307.446 28.9833C308.506 28.8878 309.327 29.0346 309.917 29.4239C310.505 29.8131 310.97 30.3138 311.311 30.9277C311.652 31.5416 311.917 32.2175 312.106 32.9606C312.293 33.7036 312.505 34.3936 312.74 35.0288C312.74 35.0996 312.758 35.2287 312.793 35.418C312.828 35.6056 312.857 35.8072 312.881 36.0196C312.904 36.2319 312.933 36.4247 312.97 36.6034C313.005 36.7803 313.023 36.9042 313.023 36.9732C313.187 38.5301 313.286 40.0976 313.323 41.6758C313.358 43.2557 313.411 44.8215 313.482 46.3802C313.482 46.7818 313.449 47.1922 313.392 47.6169C313.334 48.0415 313.316 48.4537 313.341 48.8536C313.341 48.9013 313.351 49.0234 313.376 49.2233C313.401 49.4232 313.422 49.6444 313.447 49.8797C313.472 50.115 313.5 50.3326 313.535 50.5326C313.572 50.7325 313.588 50.8581 313.588 50.9023V52.07C313.588 52.1178 313.593 52.2434 313.606 52.4398C313.618 52.6432 313.631 52.8609 313.643 53.0962C313.653 53.3315 313.666 53.5491 313.678 53.749C313.691 53.9489 313.696 54.0834 313.696 54.1559C313.696 54.2975 313.673 54.508 313.625 54.7911C313.579 55.0742 313.426 55.2405 313.166 55.2847H313.097C313.072 55.2847 312.995 55.2741 312.864 55.2493C312.737 55.2246 312.661 55.2139 312.636 55.2139C312.567 55.2139 312.426 55.2175 312.214 55.2316C312.002 55.2422 311.784 55.2493 311.56 55.2493C311.337 55.2493 311.126 55.2564 310.926 55.267C310.721 55.2847 310.587 55.2882 310.516 55.2882ZM304.727 42.5604C304.75 42.8417 304.914 43.0434 305.22 43.1619C305.525 43.2805 305.879 43.3548 306.28 43.3919C306.679 43.4273 307.08 43.4379 307.481 43.4273C307.882 43.4167 308.186 43.3972 308.4 43.3742C308.444 43.3742 308.541 43.3689 308.682 43.3566C308.822 43.3442 308.917 43.3389 308.961 43.3389C309.009 43.2681 309.046 43.2044 309.071 43.1442C309.094 43.0876 309.117 43.0222 309.142 42.9514C309.142 42.8099 309.128 42.5799 309.105 42.2614C309.08 41.9429 309.064 41.5962 309.052 41.2176C309.039 40.8407 309.029 40.4939 309.016 40.1737C309.004 39.8552 308.999 39.6252 308.999 39.4837C309.022 39.4377 309.034 39.3316 309.034 39.1652V38.8132L308.681 35.3844C308.656 35.2181 308.598 35.0306 308.502 34.8182C308.409 34.6059 308.29 34.4131 308.149 34.2344C308.009 34.0575 307.838 33.9159 307.637 33.8116C307.439 33.7054 307.232 33.6647 307.02 33.6877C306.831 33.7125 306.654 33.7709 306.49 33.8664C305.714 34.6679 305.23 35.5047 305.043 36.3769C304.854 37.2474 304.748 38.2028 304.725 39.2396C304.725 39.8057 304.711 40.3595 304.688 40.9009C304.665 41.4405 304.678 41.9942 304.727 42.5604Z" fill="white"/>
<path d="M318.458 55.8208C318.412 55.7961 318.375 55.697 318.352 55.5201C318.327 55.3431 318.315 55.2299 318.315 55.1821C318.175 54.3347 318.152 53.4925 318.246 52.6557C318.341 51.8188 318.375 50.9873 318.354 50.1646C318.306 49.1031 318.195 48.0468 318.018 46.9994C317.841 45.9485 317.705 44.8941 317.614 43.8325C317.589 43.0063 317.589 42.2137 317.614 41.4458C317.637 40.6798 317.649 39.8854 317.649 39.0591C317.674 38.3037 317.649 37.5447 317.578 36.7786C317.508 36.0125 317.449 35.2535 317.402 34.4981V34.2858V33.9142V33.5427V33.2968C317.377 33.18 317.356 32.9783 317.331 32.6952C317.306 32.4139 317.285 32.1131 317.26 31.7929C317.236 31.4744 317.214 31.1737 317.19 30.8924C317.167 30.6093 317.154 30.4094 317.154 30.2908C317.2 30.1033 317.248 29.96 317.296 29.8662C317.342 29.7724 317.435 29.6893 317.577 29.6185C317.624 29.5938 317.76 29.5654 317.983 29.5301C318.205 29.4929 318.354 29.477 318.424 29.477C319.716 29.3124 320.884 29.3708 321.919 29.6539C322.954 29.937 323.855 30.397 324.62 31.0321C325.383 31.6691 326.008 32.4546 326.491 33.3834C326.973 34.3141 327.309 35.3349 327.498 36.4424C327.614 37.3394 327.674 38.2117 327.674 39.0591C327.674 39.9066 327.639 40.7912 327.568 41.7112C327.662 42.1836 327.674 42.6418 327.604 43.0894C327.533 43.5371 327.519 43.9971 327.568 44.4677C327.591 45.2231 327.639 46.1007 327.71 47.1003C327.78 48.1017 327.761 49.1048 327.657 50.1062C327.552 51.1076 327.303 52.0418 326.915 52.9016C326.526 53.7614 325.897 54.4249 325.026 54.8991C324.18 55.3201 323.279 55.6032 322.327 55.7465C321.373 55.8881 320.426 56.019 319.484 56.1375C319.438 56.1375 319.325 56.1481 319.151 56.1729C318.976 56.1977 318.863 56.2083 318.817 56.2083C318.769 56.1605 318.705 56.1074 318.622 56.0491C318.539 55.9907 318.481 55.9146 318.458 55.8208ZM321.811 51.1518C321.928 51.3411 322.081 51.4243 322.27 51.4013C322.528 51.3765 322.733 51.235 322.889 50.9767C323.042 50.7184 323.159 50.4264 323.242 50.1098C323.325 49.7931 323.383 49.4675 323.419 49.1384C323.456 48.8058 323.484 48.5475 323.507 48.3618C323.532 48.1954 323.555 47.9672 323.578 47.67C323.602 47.3763 323.623 47.0932 323.648 46.8225C323.673 46.5501 323.689 46.3148 323.701 46.1148C323.714 45.9149 323.719 45.8034 323.719 45.7804L323.684 45.4974C323.684 44.2005 323.694 42.863 323.719 41.4848C323.744 40.1065 323.648 38.7442 323.436 37.3996C323.32 36.7149 323.184 36.1753 323.03 35.7737C322.878 35.3721 322.544 34.9262 322.026 34.4291C321.956 34.3105 321.89 34.2168 321.832 34.146C321.774 34.0752 321.661 34.0522 321.498 34.0752C321.38 34.1 321.338 34.1991 321.375 34.376C321.412 34.5547 321.428 34.6538 321.428 34.6768C321.498 36.1151 321.544 37.5518 321.569 38.9901C321.592 40.4268 321.627 41.8669 321.675 43.3035C321.7 44.4818 321.663 45.6796 321.569 46.8933C321.474 48.107 321.521 49.3048 321.71 50.4831C321.71 50.5273 321.728 50.6423 321.762 50.8174C321.795 50.9926 321.811 51.1041 321.811 51.1518Z" fill="white"/>
<path d="M332.369 49.5243C332.344 49.4305 332.328 49.3032 332.316 49.1369C332.304 48.9705 332.293 48.8042 332.281 48.6432C332.268 48.4769 332.256 48.3283 332.244 48.2009C332.231 48.07 332.226 47.9833 332.226 47.9355C332.201 47.4862 332.18 46.9059 332.155 46.184C332.13 45.4657 332.109 44.7545 332.085 44.0468C332.06 43.3409 332.039 42.7163 332.014 42.1732C331.991 41.63 331.979 41.3257 331.979 41.2532C331.979 40.5455 331.996 39.7741 332.032 38.9355C332.067 38.0986 332.143 37.2512 332.261 36.3913C332.378 35.5315 332.572 34.6946 332.842 33.8808C333.113 33.0669 333.471 32.3433 333.918 31.7064C334.365 31.0712 334.936 30.5529 335.632 30.1512C336.326 29.7496 337.167 29.5161 338.156 29.4453H338.861C339.52 29.5391 340.154 29.6877 340.767 29.8859C341.38 30.0858 341.933 30.3582 342.426 30.6997C342.921 31.0412 343.348 31.4481 343.714 31.9187C344.078 32.3911 344.355 32.9572 344.544 33.6154C344.567 33.7109 344.597 33.9409 344.632 34.3054C344.67 34.6716 344.685 34.914 344.685 35.0308C344.685 35.2183 344.691 35.4961 344.703 35.8623C344.716 36.2285 344.721 36.4338 344.721 36.4815C344.721 36.7169 344.728 37.2299 344.74 38.019C344.751 38.8081 344.77 39.6697 344.791 40.6003C344.816 41.5309 344.832 42.4385 344.844 43.3232C344.857 44.206 344.862 44.8606 344.862 45.2835C344.862 45.8726 344.867 46.5502 344.88 47.3181C344.892 48.0859 344.867 48.8803 344.811 49.7065C344.751 50.5292 344.645 51.3449 344.491 52.1463C344.337 52.9442 344.087 53.6661 343.732 54.303C343.38 54.9382 342.921 55.4636 342.355 55.8759C341.792 56.2863 341.073 56.5181 340.202 56.5676C339.448 56.6154 338.737 56.5676 338.066 56.4261C337.395 56.2845 336.706 56.0935 336.001 55.8599C335.294 55.6459 334.717 55.3168 334.272 54.8674C333.825 54.4215 333.466 53.9032 333.196 53.3122C332.925 52.7249 332.724 52.0985 332.595 51.4386C332.466 50.7787 332.39 50.14 332.369 49.5243ZM337.064 49.2802C337.11 49.7738 337.257 50.2161 337.504 50.6035C337.753 50.9945 338.158 51.1662 338.72 51.1184C339.1 51.0936 339.38 50.9839 339.569 50.784C339.757 50.5841 339.893 50.3346 339.974 50.0409C340.057 49.7437 340.103 49.4323 340.115 49.105C340.128 48.7724 340.145 48.4663 340.168 48.185V47.8842C340.168 47.7285 340.174 47.5622 340.186 47.3871C340.197 47.2102 340.204 47.0492 340.204 46.8935V46.6281C340.274 45.425 340.31 44.3263 340.31 43.3232C340.31 42.32 340.274 41.2195 340.204 40.0165C340.204 39.8749 340.191 39.6449 340.168 39.3265C340.144 39.008 340.121 38.6683 340.098 38.3021C340.073 37.9359 340.05 37.5979 340.027 37.2759C340.002 36.9575 339.99 36.7275 339.99 36.5859C339.944 36.4444 339.856 36.2515 339.727 36.0039C339.598 35.7544 339.456 35.5209 339.303 35.2962C339.149 35.0732 338.972 34.8786 338.773 34.7141C338.573 34.5478 338.379 34.4664 338.192 34.4664C337.955 34.4894 337.75 34.6009 337.571 34.8008C337.395 35.0007 337.254 35.2431 337.149 35.5244C337.042 35.8075 336.96 36.0959 336.902 36.3913C336.842 36.6868 336.8 36.9292 336.778 37.1149C336.754 37.1627 336.729 37.2812 336.708 37.4688C336.683 37.6563 336.655 37.8704 336.619 38.1057C336.582 38.341 336.549 38.5639 336.512 38.7762C336.476 38.9903 336.46 39.1177 336.46 39.1655V39.6609V40.6162C336.46 40.9683 336.453 41.3169 336.443 41.6583C336.43 41.9998 336.423 42.2652 336.423 42.4527V42.7358C336.423 42.7835 336.43 42.8189 336.443 42.8419C336.453 42.8667 336.46 42.9021 336.46 42.9499V43.0914C336.483 43.3267 336.524 43.7389 336.58 44.3281C336.64 44.9172 336.706 45.5365 336.777 46.1822C336.847 46.8315 336.906 47.4508 336.953 48.0417C337.004 48.6291 337.042 49.0449 337.064 49.2802Z" fill="white"/>
<path d="M349.137 53.4146C349.137 53.1068 349.19 52.7883 349.296 52.461C349.402 52.1284 349.559 51.8294 349.773 51.5587C349.983 51.2863 350.255 51.0616 350.585 50.8846C350.916 50.7077 351.303 50.6228 351.749 50.6228C351.961 50.6228 352.173 50.6334 352.385 50.6582C352.596 50.683 352.795 50.7413 352.984 50.8351C353.456 51.2845 353.908 51.7445 354.345 52.2133C354.781 52.6875 354.998 53.2147 354.998 53.8021C354.998 54.064 354.92 54.3417 354.769 54.6354C354.615 54.9291 354.41 55.2016 354.15 55.4475C353.891 55.697 353.597 55.8969 353.267 56.049C352.937 56.2012 352.596 56.2808 352.244 56.2808C351.772 56.2808 351.343 56.1977 350.956 56.0313C350.569 55.865 350.237 55.6474 349.967 55.3785C349.697 55.106 349.488 54.8017 349.349 54.4585C349.207 54.117 349.137 53.7685 349.137 53.4146Z" fill="white"/>
</svg>
