<?xml version="1.0" encoding="utf-8"?>
<!-- Generator: Adobe Illustrator 15.1.0, SVG Export Plug-In . SVG Version: 6.00 Build 0)  -->
<!DOCTYPE svg PUBLIC "-//W3C//DTD SVG 1.1//EN" "http://www.w3.org/Graphics/SVG/1.1/DTD/svg11.dtd">
<svg version="1.1" id="Capa_1" xmlns="http://www.w3.org/2000/svg" xmlns:xlink="http://www.w3.org/1999/xlink" x="0px" y="0px"
	 width="589px" height="378px" viewBox="13.14 231.445 589 378" enable-background="new 13.14 231.445 589 378"
	 xml:space="preserve">
<path fill="#1F5C56" d="M582.679,417.175H27.97l-4.83,83.881h572.5L582.679,417.175z"/>
<path fill="#B7B19A" d="M228.828,433.662L23.14,501.056V315.322l205.688-47.148V433.662z"/>
<path fill="#CCCCB8" d="M595.64,501.056l-366.812-67.394V268.174l366.812,33.003V501.056z"/>
<path fill="#869A2A" d="M317.571,355.267c0,7.904-6.214,14.322-13.845,14.322c-7.644,0-13.864-6.417-13.864-14.322
	c0-7.917,6.215-14.317,13.864-14.317C311.357,340.949,317.571,347.349,317.571,355.267z"/>
<path fill="#869A2A" d="M274.979,360.214c0.958,8.937-6.393,14.74-14.249,14.74c-7.871,0-13.603-5.971-14.251-14.74
	c-0.614-8.117,6.412-14.013,14.251-14.741C269.09,344.688,274.09,352.124,274.979,360.214z"/>
<path fill="#869A2A" d="M293.632,428.031c0,0,10.888,20.503,16.439,24.483c4.493,3.223,6.45,1.55,6.45,1.55
	s12.949-4.354,11.085-1.418c-1.854,2.95-10.417,4.729-10.417,4.729s15.372,0.726,13.309,2.64c-2.08,1.888-14.84,2.103-14.84,2.103
	s16.209,4.35,12.424,5.211c-5.298,1.196-18.963-0.933-20.902-3.969c-1.937-3.047-18.647-19.725-22.78-24.477
	C280.28,434.132,293.632,428.031,293.632,428.031z"/>
<path fill="#FFFFFF" d="M314.737,355.267c0,6.284-4.939,11.381-11.009,11.381c-6.077,0-11.017-5.097-11.017-11.381
	c0-6.293,4.94-11.377,11.017-11.377C309.797,343.89,314.737,348.979,314.737,355.267z"/>
<path fill="#869A2A" d="M269.354,353.934c27.911-4.079,82.699,8.407,78.046,33.983c-3.817,20.999-28.075,25.002-28.075,25.002
	s-4.068,23.947-34.926,25.959c-16.903,24.329-45.118,39.567-72.27,37.967c-27-1.595-41.411-28.438-23.144-61.547
	c17.363-31.463,47.497-38.185,47.497-38.185S243.93,357.633,269.354,353.934z"/>
<path fill="#6A2403" d="M264.058,415.195c3.302,2.273,1.554,5.954-1.801,3.78C258.836,416.786,260.709,412.879,264.058,415.195z"/>
<path fill="#6A2403" d="M255.509,420.657c3.417,2.112,1.854,6.015-1.663,4C250.373,422.668,252.055,418.541,255.509,420.657z"/>
<path fill="#6A2403" d="M246.364,411.488c3.368,2.159,1.55,6.244-1.898,4.202C240.975,413.611,242.93,409.313,246.364,411.488z"/>
<path fill="#6A2403" d="M256.896,397.353c-3.208-2.456-0.767-6.443,2.343-3.888C262.354,396.029,260.104,399.785,256.896,397.353z"
	/>
<path fill="#6A2403" d="M228.708,407.221c-3.5-2.058-1.373-6.733,2.092-4.56C234.155,404.779,232.154,409.252,228.708,407.221z"/>
<path fill="#6A2403" d="M204.331,408.951l0.092-0.763c1.276-3.298,7.196-1.319,5.986,1.889c-0.534,1.406-2.009,1.791-3.36,1.567
	c0.349,1.954-1.222,3.904-3.693,2.705C200.077,412.777,201.322,408.302,204.331,408.951z"/>
<path fill="#6A2403" d="M228.827,393.218c-3.345-2.227-0.873-6.912,2.428-4.586C234.528,390.976,232.194,395.454,228.827,393.218z"
	/>
<path fill="#6A2403" d="M205.815,432.084c-1.888-0.748-2.507-2.466-2.07-3.74c-0.074-0.344-0.074-0.715,0.054-1.13
	c0.957-3.312,6.999-1.748,6.086,1.447l-0.526,0.913C209.575,431.316,208.237,433.049,205.815,432.084z"/>
<path fill="#6A2403" d="M236.638,377.5c3.725-0.066,5.376,5.508,1.783,5.65C234.779,383.349,232.864,377.669,236.638,377.5z"/>
<path fill="#6A2403" d="M262.276,411.196c3.753-0.449,5.678,5.31,1.933,5.75C260.43,417.456,258.454,411.719,262.276,411.196z"/>
<path fill="#6A2403" d="M245.135,395.548c-3.797,0.713-5.91-5.134-1.987-5.82C247.045,389.12,248.873,394.898,245.135,395.548z"/>
<path fill="#6A2403" d="M221.805,390.295c-3.646,0.621-6.061-4.908-2.269-5.508C223.217,384.262,225.494,389.77,221.805,390.295z"/>
<path fill="#6A2403" d="M250.382,404.903c-3.491,0.253-5.997-4.911-2.484-5.18C251.357,399.52,253.846,404.723,250.382,404.903z"/>
<path fill="#6A2403" d="M217.392,412.683c-3.57,0.877-6.482-4.268-2.877-5.161C218.072,406.698,220.958,411.882,217.392,412.683z"/>
<path fill="#6A2403" d="M228.568,394.192c3.619-0.449,6.028,4.854,2.498,5.345C227.474,400.08,224.932,394.739,228.568,394.192z"/>
<path fill="#6A2403" d="M220.258,402.961c-3.708,0.826-6.196-4.717-2.387-5.534C221.591,396.682,223.992,402.222,220.258,402.961z"
	/>
<path fill="#6A2403" d="M248.13,393.333c-3.543,0.188-5.794-5.205-2.188-5.383C249.511,387.871,251.621,393.186,248.13,393.333z"/>
<path fill="#6A2403" d="M237.785,417.686v0.313v0.019l-0.058,0.732c-0.185,0.517-0.565,0.817-0.989,1.033
	c0.94,1.958-0.645,4.101-3.363,2.74c-2.251-1.136-2.445-3.293-1.391-4.321c-0.229-0.46-0.33-0.971-0.137-1.522l0.083-0.115
	c-0.37-1.041-0.083-2.081,1.373-2.356C235.724,413.748,237.876,416.089,237.785,417.686z"/>
<path fill="#6A2403" d="M259.653,381.988c3.492,0.277,5.121,5.839,1.629,5.525C257.72,387.287,256.053,381.79,259.653,381.988z"/>
<path fill="#6A2403" d="M196.909,416.554c-3.57,1.276-6.721-3.957-3.009-5.212C197.513,410.181,200.533,415.386,196.909,416.554z"/>
<path fill="#6A2403" d="M254.858,412.55c3.375-0.194,6.134,4.757,2.761,4.961C254.2,417.761,251.414,412.824,254.858,412.55z"/>
<path fill="#6A2403" d="M218.561,425.215c-0.54-1.876,0.979-3.861,3.521-2.602c2.878,1.437,2.432,4.601,0.279,4.97
	c0.419,1.024,0.237,2.116-1.205,2.516c-3.417,1.02-6.81-3.804-3.294-4.827L218.561,425.215z"/>
<path fill="#6A2403" d="M192.672,423.148c-0.924,3.621-7.138,2.605-6.148-1.181C187.535,418.191,193.673,419.5,192.672,423.148z"/>
<path fill="#6A2403" d="M201.662,439.159c-0.796,3.755-7.059,3.126-6.233-0.787C196.286,434.465,202.482,435.37,201.662,439.159z"/>
<path fill="#6A2403" d="M197.468,430.455c-0.834,3.373-7.037,2.337-6.161-1.199C192.216,425.741,198.31,427.034,197.468,430.455z"/>
<path fill="#6A2403" d="M222.409,416.935c-1.104,2.976-7.031,1.211-5.941-1.933C217.637,411.882,223.53,413.899,222.409,416.935z"/>
<path fill="#6A2403" d="M193.848,441.84c-0.662,3.417-6.925,2.763-6.215-0.817C188.367,437.448,194.536,438.383,193.848,441.84z"/>
<path fill="#6A2403" d="M190.739,458.764c-0.954,4.274-7.265,3.942-6.311-0.53C185.438,453.804,191.714,454.453,190.739,458.764z"/>
<path fill="#6A2403" d="M189.539,433.363c-0.416,3.855-6.713,3.818-6.249-0.237C183.771,429.069,190.118,429.536,189.539,433.363z"
	/>
<path fill="#6A2403" d="M192.963,445.057c-0.344,4.198-6.603,4.624-6.294,0.151C187.119,440.844,193.445,440.888,192.963,445.057z"
	/>
<path fill="#6A2403" d="M208.422,393.892c1.524-3.452,7.359-1.223,5.883,2.136C212.858,399.363,206.918,397.355,208.422,393.892z"/>
<path fill="#FFFFFF" d="M271.744,360.206c0.75,6.902-4.939,11.381-11.004,11.381c-6.078,0-10.513-4.602-11.016-11.381
	c-0.474-6.272,4.959-10.813,11.016-11.387C267.187,348.219,271.04,353.96,271.744,360.206z"/>
<path d="M264.954,360.218c0.154,1.307-0.931,2.154-2.105,2.154c-1.146,0-1.978-0.87-2.092-2.154
	c-0.074-1.191,0.946-2.052,2.092-2.162C264.103,357.945,264.844,359.033,264.954,360.218z"/>
<path d="M308.112,350.933c0.128,1.169-0.826,1.933-1.866,1.933c-1.016,0-1.771-0.79-1.846-1.933
	c-0.081-1.055,0.835-1.828,1.846-1.921C307.34,348.915,308.003,349.878,308.112,350.933z"/>
<path fill="none" stroke="#000000" stroke-width="0.346" stroke-linecap="round" d="M319.322,412.919
	c-25.796,2.512-34.925-12.711-34.925-12.711"/>
<path fill="#68701F" d="M296.108,437.042c-3.403-3.962-20.613-0.767-38.159,9.578c-24.786,14.596-61.757,18.735-53.791,25.576
	c7.966,6.828,12.472,6.581,25.47,3.411c13.58-3.319,27.107-5.287,46.645-20.336C287.599,446.55,290.934,442.162,296.108,437.042z"/>
<path fill="#9DB22D" d="M209.636,437.638c8.081-7.869,36.182-19.051,45.433-8.614c9.241,10.452-10.43,46.679-10.43,46.679
	s39.381-2.81,37.377,0c-1.998,2.817-19.534,2.555-19.534,2.555s21.499,2.209,21.124,4.649c-0.385,2.459-21.935-1.101-21.935-1.101
	s17.533,7.974,15.918,9.989c-1.602,2-17.105-3.783-29.34-6.835c-12.238-3.056-19.71,3.156-19.309-2.054
	c0.415-5.194,10.183-24.409,10.183-24.409s-15.767,24.608-31.54,18.461C181.634,466.856,202.783,444.352,209.636,437.638z"/>
<path d="M334.252,388.623c0,1.014-0.836,1.854-1.869,1.854c-1.04,0-1.876-0.835-1.876-1.854c0-1.033,0.836-1.857,1.876-1.857
	C333.417,386.766,334.252,387.59,334.252,388.623z"/>
<path d="M341.77,385.96c0,0.813-0.658,1.474-1.463,1.474c-0.836,0-1.497-0.661-1.497-1.474c0-0.819,0.657-1.469,1.497-1.469
	C341.106,384.491,341.77,385.141,341.77,385.96z"/>
<path fill="#869A2A" d="M280.662,428.031c0,0,5.224,31.97,9.863,36.965c3.764,4.059,6.012,2.804,6.012,2.804
	s13.562-1.677,11.151,0.833c-2.424,2.517-11.151,2.545-11.151,2.545s14.915,3.791,12.511,5.24c-2.4,1.45-14.979-0.904-14.979-0.904
	s15.039,7.509,11.139,7.596c-5.411,0.129-18.39-4.704-19.675-8.065c-1.283-3.383-15.368-32.714-18.465-38.195
	C263.991,431.36,280.662,428.031,280.662,428.031z"/>
</svg>
