<svg width="251" height="158" viewBox="0 0 251 158" fill="none" xmlns="http://www.w3.org/2000/svg">
<path d="M251 110.161H2.7085V157.11H251V110.161Z" fill="#2A773A"/>
<path d="M247.317 100.422L248.374 112.963" stroke="#2A773A" stroke-width="0.722" stroke-linecap="round"/>
<path d="M243.926 101.384L244.809 110.776" stroke="#2A773A" stroke-width="0.722" stroke-linecap="round"/>
<path d="M240.781 111.291L239.916 101.252" stroke="#2A773A" stroke-width="0.722" stroke-linecap="round"/>
<path d="M234.529 111.19L236.482 100.972" stroke="#2A773A" stroke-width="0.722" stroke-linecap="round"/>
<path d="M231.453 112.127L231.64 100.422" stroke="#2A773A" stroke-width="0.722" stroke-linecap="round"/>
<path d="M226.768 113.019L227.825 100.475" stroke="#2A773A" stroke-width="0.722" stroke-linecap="round"/>
<path d="M223.381 110.735L224.257 101.346" stroke="#2A773A" stroke-width="0.722" stroke-linecap="round"/>
<path d="M220.23 111.291L219.37 101.252" stroke="#2A773A" stroke-width="0.722" stroke-linecap="round"/>
<path d="M200.773 111.19L198.818 100.972" stroke="#2A773A" stroke-width="0.722" stroke-linecap="round"/>
<path d="M203.844 112.127L203.663 100.422" stroke="#2A773A" stroke-width="0.722" stroke-linecap="round"/>
<path d="M208.538 113.019L207.478 100.475" stroke="#2A773A" stroke-width="0.722" stroke-linecap="round"/>
<path d="M211.924 110.735L211.05 101.346" stroke="#2A773A" stroke-width="0.722" stroke-linecap="round"/>
<path d="M215.072 111.291L215.937 101.252" stroke="#2A773A" stroke-width="0.722" stroke-linecap="round"/>
<path d="M194.257 111.19L196.212 100.972" stroke="#2A773A" stroke-width="0.722" stroke-linecap="round"/>
<path d="M191.187 112.127L191.368 100.422" stroke="#2A773A" stroke-width="0.722" stroke-linecap="round"/>
<path d="M186.496 113.019L187.553 100.475" stroke="#2A773A" stroke-width="0.722" stroke-linecap="round"/>
<path d="M183.106 101.384L183.984 110.776" stroke="#2A773A" stroke-width="0.722" stroke-linecap="round"/>
<path d="M179.959 100.828L179.098 110.868" stroke="#2A773A" stroke-width="0.722" stroke-linecap="round"/>
<path d="M173.708 100.93L175.661 111.15" stroke="#2A773A" stroke-width="0.722" stroke-linecap="round"/>
<path d="M170.631 101.311L170.817 113.02" stroke="#2A773A" stroke-width="0.722" stroke-linecap="round"/>
<path d="M165.946 100.422L167.003 112.963" stroke="#2A773A" stroke-width="0.722" stroke-linecap="round"/>
<path d="M162.555 110.735L163.435 101.346" stroke="#2A773A" stroke-width="0.722" stroke-linecap="round"/>
<path d="M159.409 111.291L158.544 101.252" stroke="#2A773A" stroke-width="0.722" stroke-linecap="round"/>
<path d="M153.159 100.93L155.116 111.15" stroke="#2A773A" stroke-width="0.722" stroke-linecap="round"/>
<path d="M150.082 101.311L150.265 113.02" stroke="#2A773A" stroke-width="0.722" stroke-linecap="round"/>
<path d="M145.393 100.422L146.45 112.963" stroke="#2A773A" stroke-width="0.722" stroke-linecap="round"/>
<path d="M142.006 101.384L142.884 110.776" stroke="#2A773A" stroke-width="0.722" stroke-linecap="round"/>
<path d="M138.858 111.291L137.995 101.252" stroke="#2A773A" stroke-width="0.722" stroke-linecap="round"/>
<path d="M132.606 111.19L134.562 100.972" stroke="#2A773A" stroke-width="0.722" stroke-linecap="round"/>
<path d="M129.537 112.127L129.718 100.422" stroke="#2A773A" stroke-width="0.722" stroke-linecap="round"/>
<path d="M124.842 113.019L125.903 100.475" stroke="#2A773A" stroke-width="0.722" stroke-linecap="round"/>
<path d="M121.455 110.735L122.336 101.346" stroke="#2A773A" stroke-width="0.722" stroke-linecap="round"/>
<path d="M118.309 111.291L117.445 101.252" stroke="#2A773A" stroke-width="0.722" stroke-linecap="round"/>
<path d="M98.8496 111.19L96.8945 100.972" stroke="#2A773A" stroke-width="0.722" stroke-linecap="round"/>
<path d="M101.92 112.127L101.739 100.422" stroke="#2A773A" stroke-width="0.722" stroke-linecap="round"/>
<path d="M106.614 113.019L105.554 100.475" stroke="#2A773A" stroke-width="0.722" stroke-linecap="round"/>
<path d="M110 110.735L109.123 101.346" stroke="#2A773A" stroke-width="0.722" stroke-linecap="round"/>
<path d="M113.151 111.291L114.013 101.252" stroke="#2A773A" stroke-width="0.722" stroke-linecap="round"/>
<path d="M92.3364 111.19L94.2897 100.972" stroke="#2A773A" stroke-width="0.722" stroke-linecap="round"/>
<path d="M89.2632 112.127L89.4442 100.422" stroke="#2A773A" stroke-width="0.722" stroke-linecap="round"/>
<path d="M84.5718 113.019L85.6252 100.475" stroke="#2A773A" stroke-width="0.722" stroke-linecap="round"/>
<path d="M81.1846 101.384L82.0588 110.776" stroke="#2A773A" stroke-width="0.722" stroke-linecap="round"/>
<path d="M78.0378 100.828L77.1709 110.868" stroke="#2A773A" stroke-width="0.722" stroke-linecap="round"/>
<path d="M71.7856 100.93L73.7407 111.15" stroke="#2A773A" stroke-width="0.722" stroke-linecap="round"/>
<path d="M68.7129 101.311L68.8939 113.02" stroke="#2A773A" stroke-width="0.722" stroke-linecap="round"/>
<path d="M64.022 100.422L65.0791 112.963" stroke="#2A773A" stroke-width="0.722" stroke-linecap="round"/>
<path d="M60.6313 110.735L61.5129 101.346" stroke="#2A773A" stroke-width="0.722" stroke-linecap="round"/>
<path d="M57.4873 111.291L56.624 101.252" stroke="#2A773A" stroke-width="0.722" stroke-linecap="round"/>
<path d="M51.2354 100.93L53.1923 111.15" stroke="#2A773A" stroke-width="0.722" stroke-linecap="round"/>
<path d="M48.1636 101.311L48.3446 113.02" stroke="#2A773A" stroke-width="0.722" stroke-linecap="round"/>
<path d="M43.4727 100.422L44.5298 112.963" stroke="#2A773A" stroke-width="0.722" stroke-linecap="round"/>
<path d="M40.082 101.384L40.9636 110.776" stroke="#2A773A" stroke-width="0.722" stroke-linecap="round"/>
<path d="M36.9348 111.291L36.0752 101.252" stroke="#2A773A" stroke-width="0.722" stroke-linecap="round"/>
<path d="M30.6826 111.19L32.6414 100.972" stroke="#2A773A" stroke-width="0.722" stroke-linecap="round"/>
<path d="M27.6128 112.127L27.7939 100.422" stroke="#2A773A" stroke-width="0.722" stroke-linecap="round"/>
<path d="M22.9219 113.019L23.979 100.475" stroke="#2A773A" stroke-width="0.722" stroke-linecap="round"/>
<path d="M19.5332 110.735L20.4092 101.346" stroke="#2A773A" stroke-width="0.722" stroke-linecap="round"/>
<path d="M16.3851 111.291L15.52 101.252" stroke="#2A773A" stroke-width="0.722" stroke-linecap="round"/>
<path d="M4.68893 113.019L3.63184 100.475" stroke="#2A773A" stroke-width="0.722" stroke-linecap="round"/>
<path d="M8.08038 110.735L7.20068 101.346" stroke="#2A773A" stroke-width="0.722" stroke-linecap="round"/>
<path d="M11.2261 111.291L12.0875 101.252" stroke="#2A773A" stroke-width="0.722" stroke-linecap="round"/>
<path d="M166.571 94.4666C166.571 97.7421 163.996 100.4 160.83 100.4C157.663 100.4 155.086 97.7421 155.086 94.4666C155.086 91.1856 157.661 88.5337 160.83 88.5337C163.994 88.5337 166.571 91.1856 166.571 94.4666Z" fill="#869A2A"/>
<path d="M148.921 96.5132C149.314 100.215 146.271 102.623 143.015 102.623C139.751 102.623 137.375 100.151 137.104 96.5132C136.85 93.148 139.762 90.7083 143.015 90.4065C146.477 90.0828 148.55 93.1608 148.921 96.5132Z" fill="#869A2A"/>
<path d="M156.649 124.616C156.649 124.616 161.161 133.117 163.461 134.764C165.327 136.101 166.13 135.406 166.13 135.406C166.13 135.406 171.503 133.603 170.731 134.823C169.959 136.043 166.417 136.782 166.417 136.782C166.417 136.782 172.785 137.083 171.929 137.874C171.068 138.655 165.779 138.746 165.779 138.746C165.779 138.746 172.498 140.546 170.929 140.904C168.732 141.401 163.066 140.518 162.267 139.258C161.464 137.994 154.536 131.087 152.823 129.117C151.118 127.145 156.649 124.616 156.649 124.616Z" fill="#869A2A"/>
<path d="M165.395 94.4665C165.395 97.069 163.345 99.185 160.831 99.185C158.312 99.185 156.266 97.069 156.266 94.4665C156.266 91.8585 158.312 89.7498 160.831 89.7498C163.345 89.7498 165.395 91.8585 165.395 94.4665Z" fill="white"/>
<path d="M146.585 93.9128C158.151 92.2229 180.855 97.395 178.931 107.993C177.349 116.699 167.297 118.358 167.297 118.358C167.297 118.358 165.611 128.279 152.82 129.113C145.819 139.194 134.123 145.511 122.872 144.845C111.681 144.183 105.713 133.062 113.281 119.34C120.476 106.302 132.962 103.52 132.962 103.52C132.962 103.52 136.051 95.4472 146.585 93.9128Z" fill="#869A2A"/>
<path d="M144.393 119.295C145.761 120.239 145.04 121.764 143.647 120.863C142.231 119.957 143.006 118.344 144.393 119.295Z" fill="#6A2403"/>
<path d="M140.848 121.563C142.265 122.439 141.616 124.05 140.162 123.218C138.719 122.395 139.416 120.689 140.848 121.563Z" fill="#6A2403"/>
<path d="M137.059 117.762C138.456 118.655 137.703 120.349 136.276 119.504C134.829 118.646 135.64 116.863 137.059 117.762Z" fill="#6A2403"/>
<path d="M141.424 111.903C140.094 110.884 141.106 109.234 142.399 110.295C143.688 111.356 142.752 112.914 141.424 111.903Z" fill="#6A2403"/>
<path d="M129.742 115.994C128.292 115.142 129.17 113.201 130.607 114.105C131.999 114.986 131.171 116.833 129.742 115.994Z" fill="#6A2403"/>
<path d="M119.64 116.713L119.682 116.397C120.207 115.03 122.659 115.85 122.158 117.179C121.937 117.763 121.328 117.922 120.77 117.83C120.914 118.639 120.262 119.447 119.239 118.952C117.88 118.297 118.398 116.446 119.64 116.713Z" fill="#6A2403"/>
<path d="M129.792 110.191C128.406 109.271 129.432 107.327 130.796 108.294C132.157 109.262 131.189 111.12 129.792 110.191Z" fill="#6A2403"/>
<path d="M120.255 126.298C119.474 125.987 119.223 125.275 119.402 124.745C119.368 124.602 119.369 124.451 119.421 124.28C119.819 122.911 122.325 123.553 121.946 124.877L121.725 125.257C121.816 125.979 121.26 126.7 120.255 126.298Z" fill="#6A2403"/>
<path d="M127.325 97.3484C125.743 97.5221 125.028 95.0403 126.704 94.8739C128.335 94.7404 128.889 97.2039 127.325 97.3484Z" fill="#6A2403"/>
<path d="M133.03 103.678C134.573 103.653 135.259 105.963 133.776 106.019C132.262 106.102 131.464 103.746 133.03 103.678Z" fill="#6A2403"/>
<path d="M143.651 117.642C145.21 117.457 146.009 119.846 144.454 120.025C142.887 120.235 142.069 117.858 143.651 117.642Z" fill="#6A2403"/>
<path d="M136.552 111.158C134.981 111.455 134.101 109.033 135.735 108.746C137.344 108.496 138.101 110.884 136.552 111.158Z" fill="#6A2403"/>
<path d="M126.884 108.978C125.37 109.238 124.369 106.946 125.94 106.698C127.471 106.48 128.413 108.761 126.884 108.978Z" fill="#6A2403"/>
<path d="M138.723 115.036C137.28 115.14 136.237 113 137.697 112.887C139.134 112.803 140.162 114.957 138.723 115.036Z" fill="#6A2403"/>
<path d="M125.052 118.26C123.576 118.622 122.37 116.489 123.863 116.12C125.339 115.774 126.531 117.927 125.052 118.26Z" fill="#6A2403"/>
<path d="M129.686 110.597C131.189 110.409 132.186 112.607 130.725 112.81C129.236 113.033 128.177 110.822 129.686 110.597Z" fill="#6A2403"/>
<path d="M126.246 114.231C124.706 114.571 123.675 112.274 125.249 111.94C126.797 111.629 127.792 113.924 126.246 114.231Z" fill="#6A2403"/>
<path d="M135.252 94.9014C136.806 94.9069 137.359 97.3393 135.802 97.3228C134.233 97.3484 133.648 94.9288 135.252 94.9014Z" fill="#6A2403"/>
<path d="M118.821 86.9677C120.542 86.7227 120.986 89.3581 119.274 89.5977C117.575 89.8757 117.049 87.2512 118.821 86.9677Z" fill="#6A2403"/>
<path d="M113.622 101.449C115.213 101.068 116.125 103.482 114.53 103.859C112.934 104.267 112.005 101.866 113.622 101.449Z" fill="#6A2403"/>
<path d="M108.429 112.691C108.061 112.424 107.853 111.982 108.061 111.415C108.652 109.873 111.154 110.625 110.565 112.117L110.293 112.55C110.955 113.119 111.145 114.22 110.13 114.584C108.842 115.054 107.811 113.549 108.429 112.691Z" fill="#6A2403"/>
<path d="M137.79 110.24C136.326 110.317 135.393 108.084 136.887 108.011C138.367 107.98 139.237 110.18 137.79 110.24Z" fill="#6A2403"/>
<path d="M133.505 120.332V120.462V120.47L133.483 120.773C133.408 120.989 133.25 121.111 133.071 121.201C133.461 122.013 132.81 122.902 131.681 122.335C130.749 121.869 130.666 120.972 131.103 120.545C131.01 120.353 130.964 120.146 131.05 119.914L131.083 119.866C130.93 119.434 131.05 119.003 131.648 118.889C132.654 118.701 133.543 119.667 133.505 120.332Z" fill="#6A2403"/>
<path d="M118.899 114.01C117.381 114.434 116.227 112.192 117.765 111.76C119.298 111.376 120.389 113.605 118.899 114.01Z" fill="#6A2403"/>
<path d="M132.821 88.879C134.478 88.8662 134.743 91.4723 133.099 91.4778C131.422 91.5253 131.118 88.9283 132.821 88.879Z" fill="#6A2403"/>
<path d="M109.234 96.2108C110.902 95.8048 111.659 98.2976 110.048 98.7237C108.426 99.1718 107.537 96.6461 109.234 96.2108Z" fill="#6A2403"/>
<path d="M142.567 105.54C144.014 105.657 144.689 107.96 143.242 107.832C141.766 107.735 141.077 105.46 142.567 105.54Z" fill="#6A2403"/>
<path d="M116.569 119.864C115.09 120.393 113.784 118.22 115.318 117.706C116.82 117.22 118.071 119.38 116.569 119.864Z" fill="#6A2403"/>
<path d="M140.581 118.203C141.982 118.123 143.125 120.169 141.724 120.255C140.313 120.356 139.151 118.32 140.581 118.203Z" fill="#6A2403"/>
<path d="M125.538 123.452C125.313 122.675 125.942 121.85 127 122.373C128.188 122.971 128.004 124.279 127.111 124.431C127.287 124.859 127.212 125.307 126.612 125.477C125.202 125.899 123.794 123.898 125.251 123.474L125.538 123.452Z" fill="#6A2403"/>
<path d="M105.933 119.078C105.483 120.647 102.922 120.252 103.372 118.582C103.868 116.965 106.421 117.501 105.933 119.078Z" fill="#6A2403"/>
<path d="M112.383 114.838C112.91 113.351 115.388 114.083 114.88 115.531C114.384 116.965 111.86 116.327 112.383 114.838Z" fill="#6A2403"/>
<path d="M114.051 122.117C113.665 123.617 111.092 123.2 111.502 121.631C111.919 120.067 114.466 120.607 114.051 122.117Z" fill="#6A2403"/>
<path d="M118.537 129.23C118.204 130.786 115.609 130.527 115.959 128.905C116.31 127.282 118.876 127.659 118.537 129.23Z" fill="#6A2403"/>
<path d="M116.798 125.619C116.452 127.018 113.886 126.59 114.248 125.129C114.623 123.67 117.149 124.204 116.798 125.619Z" fill="#6A2403"/>
<path d="M127.135 120.019C126.674 121.256 124.22 120.522 124.673 119.216C125.156 117.923 127.596 118.761 127.135 120.019Z" fill="#6A2403"/>
<path d="M115.298 130.34C115.024 131.753 112.43 131.486 112.725 130.001C113.03 128.52 115.583 128.907 115.298 130.34Z" fill="#6A2403"/>
<path d="M114.009 137.352C113.614 139.124 110.999 138.985 111.398 137.134C111.816 135.298 114.413 135.568 114.009 137.352Z" fill="#6A2403"/>
<path d="M112.751 126.541C112.575 128.139 109.969 128.123 110.157 126.442C110.36 124.763 112.992 124.955 112.751 126.541Z" fill="#6A2403"/>
<path d="M100.068 110.432C100.68 108.764 103.199 109.411 102.608 111.043C102.024 112.652 99.4677 112.102 100.068 110.432Z" fill="#6A2403"/>
<path d="M114.935 131.673C114.792 133.414 112.195 133.592 112.323 131.737C112.509 129.926 115.134 129.943 114.935 131.673Z" fill="#6A2403"/>
<path d="M120.765 109.514C121.398 108.086 123.814 109.008 123.203 110.401C122.603 111.788 120.141 110.952 120.765 109.514Z" fill="#6A2403"/>
<path d="M147.579 96.5116C147.886 99.3702 145.532 101.226 143.018 101.226C140.499 101.226 138.663 99.3226 138.453 96.5116C138.261 93.9128 140.507 92.029 143.018 91.7931C145.69 91.5444 147.29 93.9219 147.579 96.5116Z" fill="white"/>
<path d="M144.768 96.5167C144.828 97.058 144.378 97.4092 143.895 97.4092C143.42 97.4092 143.074 97.0507 143.03 96.5167C142.997 96.0247 143.42 95.6681 143.895 95.6224C144.409 95.573 144.716 96.0247 144.768 96.5167Z" fill="black"/>
<path d="M162.648 92.6713C162.701 93.1559 162.308 93.4723 161.873 93.4723C161.454 93.4723 161.141 93.1468 161.108 92.6713C161.076 92.236 161.458 91.9141 161.873 91.8739C162.33 91.8318 162.603 92.2342 162.648 92.6713Z" fill="black"/>
<path d="M167.296 118.358C156.601 119.398 152.822 113.087 152.822 113.087" stroke="black" stroke-width="0.346" stroke-linecap="round"/>
<path d="M157.672 128.354C156.261 126.708 149.134 128.034 141.859 132.319C131.59 138.369 116.273 140.085 119.57 142.918C122.872 145.745 124.742 145.648 130.125 144.333C135.751 142.961 141.36 142.144 149.453 135.904C154.151 132.294 155.532 130.474 157.672 128.354Z" fill="#68701F"/>
<path d="M121.842 128.599C125.189 125.338 136.834 120.704 140.665 125.029C144.499 129.36 136.344 144.375 136.344 144.375C136.344 144.375 152.668 143.21 151.833 144.375C151.004 145.542 143.742 145.43 143.742 145.43C143.742 145.43 152.646 146.349 152.493 147.362C152.335 148.377 143.405 146.903 143.405 146.903C143.405 146.903 150.668 150.209 149.998 151.043C149.338 151.87 142.908 149.474 137.84 148.208C132.768 146.941 129.674 149.512 129.842 147.362C130.01 145.209 134.061 137.244 134.061 137.244C134.061 137.244 127.528 147.442 120.988 144.895C110.235 140.705 119 131.381 121.842 128.599Z" fill="#9DB22D"/>
<path d="M173.479 108.292C173.479 108.711 173.136 109.056 172.704 109.056C172.276 109.056 171.932 108.712 171.932 108.292C171.932 107.862 172.276 107.52 172.704 107.52C173.136 107.52 173.479 107.86 173.479 108.292Z" fill="black"/>
<path d="M176.597 107.183C176.597 107.521 176.323 107.796 175.987 107.796C175.646 107.796 175.372 107.521 175.372 107.183C175.372 106.845 175.646 106.578 175.987 106.578C176.323 106.578 176.597 106.845 176.597 107.183Z" fill="black"/>
<path d="M151.272 124.616C151.272 124.616 153.437 137.866 155.365 139.935C156.92 141.617 157.851 141.1 157.851 141.1C157.851 141.1 163.473 140.403 162.476 141.444C161.472 142.484 157.851 142.499 157.851 142.499C157.851 142.499 164.034 144.068 163.037 144.672C162.041 145.271 156.832 144.297 156.832 144.297C156.832 144.297 163.061 147.406 161.446 147.439C159.206 147.494 153.827 145.493 153.291 144.101C152.759 142.698 146.923 130.543 145.639 128.272C144.368 125.995 151.272 124.616 151.272 124.616Z" fill="#869A2A"/>
<path d="M119.003 55.5571C119.003 55.5571 118.51 89.7829 120.68 117.88C122.851 145.983 122.851 150.378 122.851 150.378" stroke="#41AA54" stroke-width="1.083"/>
<path d="M108.88 51.8556C108.88 51.8556 86.825 66.3916 80.7861 54.8605C74.7434 43.3312 106.028 38.8504 106.028 38.8504L114.721 37.1605C114.721 37.1605 85.3052 6.96008 101.48 0.674195C117.547 -5.57877 124.315 33.7222 124.315 33.7222C124.315 33.7222 151.381 4.02655 158.947 24.3144C163.238 35.8126 130.817 42.424 130.817 42.424C130.817 42.424 149.128 71.3351 138.698 77.5002C117.607 89.9678 119.456 44.0115 119.456 44.0115L108.88 51.8556Z" fill="#FF0000"/>
<path d="M118.201 22.2532C118.201 22.2532 122.985 -4.25104 134.994 0.62111C147.002 5.50241 130.718 29.9985 130.718 29.9985L126.475 37.2903C126.475 37.2903 166.01 35.5126 162.924 51.2593C159.256 69.9414 121.396 46.0763 121.396 46.0763C121.396 46.0763 119.931 86.0667 101.124 75.5049C90.4693 69.5244 110.852 43.6438 110.852 43.6438C110.852 43.6438 77.0306 39.185 80.7817 27.7216C87.2084 8.06285 118.468 35.1285 118.468 35.1285L118.201 22.2532Z" fill="#FF0000"/>
<path d="M138.248 40.3573C138.248 50.0084 130.422 57.8323 120.765 57.8323C111.114 57.8323 103.285 50.0102 103.285 40.3573C103.285 30.7045 111.112 22.875 120.765 22.875C130.422 22.875 138.248 30.7045 138.248 40.3573Z" fill="#F989B8"/>
<path d="M113.42 40.1251C113.42 40.1251 107.644 36.3521 107.454 39.9678C107.26 43.5835 113.42 40.1251 113.42 40.1251Z" fill="white"/>
<path d="M115.858 46.1948C115.858 46.1948 109.051 47.3489 111.374 50.1324C113.685 52.916 115.858 46.1948 115.858 46.1948Z" fill="white"/>
<path d="M114.894 34.0993C114.894 34.0993 114.073 27.2538 111.178 29.4284C108.286 31.612 114.894 34.0993 114.894 34.0993Z" fill="white"/>
<path d="M121.515 33.2634C121.515 33.2634 126.07 28.084 122.522 27.3798C118.971 26.6739 121.515 33.2634 121.515 33.2634Z" fill="white"/>
<path d="M127.914 34.3511C127.914 34.3511 134.772 33.647 132.647 30.719C130.518 27.7854 127.914 34.3511 127.914 34.3511Z" fill="white"/>
<path d="M129.174 40.1874C129.174 40.1874 134.901 44.028 135.133 40.4141C135.369 36.8021 129.174 40.1874 129.174 40.1874Z" fill="white"/>
<path d="M127.964 45.8201C127.964 45.8201 128.617 52.6839 131.565 50.5825C134.508 48.472 127.964 45.8201 127.964 45.8201Z" fill="white"/>
<path d="M122.27 49.1199C122.27 49.1199 117.151 53.7488 120.606 54.8516C124.053 55.9508 122.27 49.1199 122.27 49.1199Z" fill="white"/>
<path d="M120.63 101.341C120.63 101.341 119.255 93.095 129.654 88.0894C140.053 83.0819 143.746 84.737 143.746 84.737C143.746 84.737 141.789 100.111 133.244 101.883C124.692 103.65 120.63 101.341 120.63 101.341Z" fill="#41AA54"/>
<path d="M119.664 113.321C119.664 113.321 120.331 104.987 109.552 100.873C98.7652 96.7566 95.23 98.7245 95.23 98.7245C95.23 98.7245 98.4744 113.875 107.142 114.919C115.799 115.965 119.664 113.321 119.664 113.321Z" fill="#41AA54"/>
<path d="M202.678 52.9146C202.678 52.9146 202.182 87.1403 204.353 115.239C206.526 143.34 206.526 147.737 206.526 147.737" stroke="#41AA54" stroke-width="1.083"/>
<path d="M216.484 62.3057C216.484 62.3057 235.788 67.9734 232.055 77.1562C228.322 86.3391 210.33 70.3601 210.33 70.3601L205.072 66.1372C205.072 66.1372 201.984 98.0952 190.373 91.7819C178.838 85.5179 198.352 62.2526 198.352 62.2526C198.352 62.2526 167.779 61.1279 175.848 46.7492C180.42 38.5997 200.216 54.1873 200.216 54.1873C200.216 54.1873 208.011 29.3235 216.725 32.354C234.347 38.4808 206.723 60.0141 206.723 60.0141L216.484 62.3057Z" fill="#FF0000"/>
<path d="M194.691 71.448C194.691 71.448 176.931 81.7044 173.858 72.3259C170.786 62.9437 193.039 60.3613 193.039 60.3613L199.366 59.242C199.366 59.242 178.88 37.1308 189.557 31.1796C202.217 24.1256 206.968 57.8722 206.968 57.8722C206.968 57.8722 230.934 39.053 234.049 55.1764C235.813 64.3117 210.741 65.1969 210.741 65.1969C210.741 65.1969 224.787 87.0466 216.277 90.5105C201.688 96.4416 202.047 64.9555 202.047 64.9555L194.691 71.448Z" fill="#FF0000"/>
<path d="M195.35 50.8899C200.965 46.1385 209.36 46.8426 214.111 52.4518C218.862 58.0628 218.162 66.4647 212.553 71.2144C206.938 75.9621 198.536 75.2617 193.788 69.6525C189.042 64.0341 189.743 55.6377 195.35 50.8899Z" fill="#F989B8"/>
<path d="M207.435 65.4368C207.435 65.4368 208.082 70.6509 210.275 68.9811C212.471 67.3114 207.435 65.4368 207.435 65.4368Z" fill="white"/>
<path d="M209.764 61.0349C209.764 61.0349 213.778 64.4202 214.261 61.7043C214.736 58.9884 209.764 61.0349 209.764 61.0349Z" fill="white"/>
<path d="M203.206 67.5403C203.206 67.5403 199.627 71.3883 202.317 71.9991C205.006 72.6081 203.206 67.5403 203.206 67.5403Z" fill="white"/>
<path d="M199.459 64.1016C199.459 64.1016 194.208 64.0029 195.543 66.4115C196.884 68.8257 199.459 64.1016 199.459 64.1016Z" fill="white"/>
<path d="M196.947 59.8498C196.947 59.8498 193.161 56.2085 192.507 58.8878C191.847 61.5671 196.947 59.8498 196.947 59.8498Z" fill="white"/>
<path d="M199.717 56.2487C199.717 56.2487 199.139 51.0291 196.92 52.6678C194.704 54.3101 199.717 56.2487 199.717 56.2487Z" fill="white"/>
<path d="M203.591 54.178C203.591 54.178 207.26 50.4196 204.585 49.7448C201.913 49.0699 203.591 54.178 203.591 54.178Z" fill="white"/>
<path d="M208.31 55.8683C208.31 55.8683 213.515 56.5633 212.458 54.0156C211.403 51.4698 208.31 55.8683 208.31 55.8683Z" fill="white"/>
<path d="M203.288 107.88C203.288 107.88 202.235 101.539 210.232 97.6929C218.219 93.8449 221.059 95.1178 221.059 95.1178C221.059 95.1178 219.552 106.934 212.987 108.299C206.414 109.654 203.288 107.88 203.288 107.88Z" fill="#41AA54"/>
<path d="M204.524 117.089C204.524 117.089 205.038 110.682 196.755 107.522C188.461 104.359 185.744 105.866 185.744 105.866C185.744 105.866 188.236 117.513 194.899 118.319C201.556 119.119 204.524 117.089 204.524 117.089Z" fill="#41AA54"/>
<path d="M34.4567 52.9146C34.4567 52.9146 33.9684 87.1403 36.1393 115.239C38.3083 143.34 38.3083 147.737 38.3083 147.737" stroke="#41AA54" stroke-width="1.083"/>
<path d="M47.3115 44.9736C47.3115 44.9736 67.5335 33.9326 71.9521 44.3957C76.3652 54.8532 48.8514 56.4846 48.8514 56.4846L41.1774 57.3204C41.1774 57.3204 64.5579 85.7047 50.0438 89.9935C35.623 94.2639 32.5871 59.6175 32.5871 59.6175C32.5871 59.6175 6.91318 83.468 1.80876 65.287C-1.0882 54.9849 27.5668 51.5814 27.5668 51.5814C27.5668 51.5814 13.7441 25.1302 23.2561 20.5269C42.4887 11.2142 37.558 51.0272 37.558 51.0272L47.3115 44.9736Z" fill="#FF0000"/>
<path d="M37.0676 70.0289C37.0676 70.0289 30.9957 92.7199 20.9075 87.6118C10.823 82.5056 26.7545 62.3897 26.7545 62.3897L30.9682 56.3598C30.9682 56.3598 -3.52822 55.0394 0.295985 41.5788C4.83894 25.6089 36.0196 49.09 36.0196 49.09C36.0196 49.09 40.184 14.4399 55.7625 24.9743C64.5905 30.9475 45.0031 51.9687 45.0031 51.9687C45.0031 51.9687 74.0751 58.2911 69.9857 67.9824C62.9774 84.6033 37.7662 58.8142 37.7662 58.8142L37.0676 70.0289Z" fill="#FF0000"/>
<path d="M20.9536 52.8427C21.6504 44.45 29.0226 38.2171 37.4135 38.9157C45.8045 39.6162 52.0391 46.9793 51.3423 55.3721C50.6455 63.763 43.2751 69.9995 34.8805 69.3009C26.4896 68.6022 20.2568 61.2318 20.9536 52.8427Z" fill="#F989B8"/>
<path d="M42.52 54.8405C42.52 54.8405 47.2642 58.5367 47.6939 55.4093C48.1201 52.28 42.52 54.8405 42.52 54.8405Z" fill="white"/>
<path d="M40.8423 49.3881C40.8423 49.3881 46.8355 48.876 45.0231 46.2881C43.2107 43.7039 40.8423 49.3881 40.8423 49.3881Z" fill="white"/>
<path d="M40.8008 59.9705C40.8008 59.9705 41.0184 65.982 43.6904 64.2976C46.3624 62.6114 40.8008 59.9705 40.8008 59.9705Z" fill="white"/>
<path d="M34.9826 60.2156C34.9826 60.2156 30.6481 64.3891 33.6804 65.2596C36.7163 66.1302 34.9826 60.2156 34.9826 60.2156Z" fill="white"/>
<path d="M29.5055 58.8088C29.5055 58.8088 23.4902 58.9241 25.1234 61.6272C26.7603 64.3229 29.5055 58.8088 29.5055 58.8088Z" fill="white"/>
<path d="M28.8286 53.6464C28.8286 53.6464 24.1338 49.8935 23.6656 53.0172C23.1993 56.1392 28.8286 53.6464 28.8286 53.6464Z" fill="white"/>
<path d="M30.2878 48.8377C30.2878 48.8377 30.2165 42.8225 27.5025 44.4411C24.7939 46.0578 30.2878 48.8377 30.2878 48.8377Z" fill="white"/>
<path d="M35.478 46.3821C35.478 46.3821 40.2551 42.7335 37.338 41.5209C34.4246 40.3138 35.478 46.3821 35.478 46.3821Z" fill="white"/>
<path d="M35.7126 107.702C35.7126 107.702 34.5018 100.44 43.6646 96.0304C52.8127 91.6246 56.0662 93.0841 56.0662 93.0841C56.0662 93.0841 54.3416 106.616 46.8139 108.176C39.2917 109.732 35.7126 107.702 35.7126 107.702Z" fill="#41AA54"/>
<path d="M37.1267 118.25C37.1267 118.25 37.7175 110.914 28.2274 107.293C18.7336 103.672 15.6172 105.398 15.6172 105.398C15.6172 105.398 18.4757 118.738 26.104 119.658C33.7287 120.574 37.1267 118.25 37.1267 118.25Z" fill="#41AA54"/>
</svg>
