<svg width="654" height="56" viewBox="0 0 654 56" fill="none" xmlns="http://www.w3.org/2000/svg">
<path d="M14.4308 24.1124C14.5439 24.9988 14.5966 26.0189 14.5966 27.1653C14.5966 28.3143 14.5238 29.4985 14.3755 30.7182C14.2297 31.9403 13.9985 33.1246 13.6843 34.2736C13.3727 35.4225 12.9731 36.425 12.4956 37.2734C11.9075 38.1976 11.1887 39.0966 10.3393 39.9677C9.49234 40.8389 8.66298 41.6596 7.85122 42.4398C7.29832 43.2933 7.07716 44.1796 7.18774 45.1089C7.26062 45.8841 7.53707 46.4851 8.01709 46.9144C8.4946 47.3386 9.21337 47.5153 10.1734 47.4421C11.7215 47.2578 12.948 46.7123 13.8502 45.8033C14.755 44.8993 15.1118 43.7958 14.9284 42.4954C14.8555 41.8288 14.7449 41.1444 14.5966 40.4425C14.4484 39.7405 14.3378 39.0158 14.2649 38.2759C14.2297 38.0183 14.3126 37.6976 14.5137 37.3037C14.7173 36.9148 14.9636 36.526 15.2601 36.1346C15.5542 35.7508 15.8784 35.4149 16.2277 35.1372C16.577 34.8594 16.8811 34.718 17.14 34.718H17.4164C17.5647 34.6826 17.8688 34.6725 18.3287 34.6927C18.7886 34.7079 19.0927 34.718 19.241 34.718C20.2739 35.5715 20.9726 36.6169 21.3421 37.8592C21.709 39.0966 21.9854 40.3137 22.1714 41.4929C22.2443 42.1242 22.2443 42.7252 22.1714 43.3034C22.096 43.8766 21.9703 44.4776 21.7844 45.1089C21.1209 47.9194 19.8291 50.1011 17.9141 51.6338C15.999 53.1716 13.232 54.0908 9.62302 54.3862C8.22066 54.4948 6.95652 54.3559 5.83312 53.967C4.70721 53.5807 3.7522 53.0353 2.95803 52.3333C2.16637 51.6263 1.52048 50.793 1.02287 49.8309C0.525258 48.8688 0.221161 47.8689 0.110581 46.831C-9.36238e-09 46.0912 -0.0276451 45.3311 0.0276451 44.5534C0.0829354 43.7756 0.2287 43.0156 0.469967 42.2757C0.711234 41.5358 1.07816 40.844 1.57577 40.195C2.07339 39.5435 2.72682 38.9829 3.53858 38.4981C4.0563 38.1673 4.64438 37.8062 5.30787 37.4174C5.97135 37.0285 6.48656 36.574 6.856 36.0563C7.3335 35.3114 7.68535 34.4453 7.90651 33.4428C8.12767 32.4428 8.2659 31.4151 8.32119 30.3596C8.37648 29.3041 8.38402 28.2688 8.34883 27.2487C8.31113 26.2336 8.27344 25.3144 8.23825 24.4988C8.16286 23.7968 8.11762 23.2009 8.10003 22.7211C8.07992 22.2413 8.16286 21.8525 8.34883 21.5545C8.5323 21.2565 8.87409 21.0192 9.3717 20.8323C9.86932 20.6505 10.5956 20.5192 11.5557 20.4434C12.1815 20.4081 12.669 20.499 13.0209 20.7212C13.3727 20.9459 13.6466 21.2414 13.8502 21.61C14.0513 21.9812 14.192 22.3979 14.2649 22.86C14.3378 23.3221 14.3931 23.7413 14.4308 24.1124ZM14.5966 13.666C14.6343 14.1836 14.6243 14.7038 14.569 15.2215C14.5137 15.7416 14.3654 16.2214 14.1267 16.6658C13.8879 17.1103 13.5361 17.4815 13.0787 17.7769C12.6162 18.0749 12.0181 18.2567 11.2792 18.3324C10.764 18.3703 10.2639 18.3046 9.78638 18.138C9.30887 17.9713 8.86655 17.7289 8.45941 17.4133C8.05227 17.1002 7.71299 16.7492 7.43654 16.3603C7.16009 15.9714 7.00427 15.5927 6.96658 15.2215C6.92888 14.7745 6.98668 14.325 7.13245 13.8604C7.28072 13.4008 7.51948 12.9817 7.85122 12.6105C8.18296 12.2418 8.57753 11.9262 9.03996 11.6661C9.50239 11.406 10.0075 11.2595 10.5604 11.2217C11.518 11.1484 12.4026 11.3328 13.2144 11.7772C14.0236 12.2216 14.4861 12.8529 14.5966 13.666Z" fill="#2BB673"/>
<path d="M31.2312 53.3862C31.1583 53.3484 31.1005 53.1943 31.0679 52.9115C31.0276 52.6363 31.0101 52.457 31.0101 52.3838C30.7889 51.053 30.7537 49.7248 30.8995 48.4168C31.0478 47.0987 31.1005 45.7932 31.0679 44.4978C30.9899 42.8337 30.8165 41.1747 30.5426 39.5258C30.2636 37.8794 30.05 36.2154 29.9068 34.5488C29.8666 33.2559 29.8666 32.0034 29.9068 30.8015C29.9394 29.597 29.9595 28.3521 29.9595 27.0567C29.9972 25.8699 29.9595 24.673 29.849 23.471C29.7384 22.2666 29.6454 21.0722 29.5725 19.8904V19.5546V18.9713V18.388V18.0016C29.5348 17.8122 29.4996 17.4966 29.4619 17.0547C29.4242 16.6103 29.389 16.1355 29.3513 15.6381C29.3136 15.1381 29.2785 14.6659 29.2408 14.224C29.2056 13.7771 29.188 13.464 29.188 13.2771C29.2609 12.9791 29.3338 12.7569 29.4092 12.6105C29.482 12.4615 29.6278 12.3327 29.849 12.2216C29.9244 12.1862 30.1355 12.1357 30.4848 12.0827C30.8366 12.0272 31.0679 11.9994 31.1784 11.9994C33.2016 11.7418 35.0287 11.8302 36.6497 12.2771C38.2732 12.7216 39.6806 13.4438 40.8794 14.4437C42.0782 15.4437 43.0533 16.6734 43.8098 18.138C44.5662 19.6 45.0915 21.2009 45.3855 22.9433C45.569 24.3523 45.662 25.7184 45.662 27.0567C45.662 28.3875 45.6067 29.7788 45.4961 31.2207C45.6444 31.9605 45.662 32.6802 45.5514 33.3847C45.4408 34.0892 45.4232 34.8089 45.4961 35.5487C45.5338 36.7381 45.6067 38.1143 45.7198 39.6874C45.8304 41.2631 45.8002 42.8388 45.6368 44.4145C45.4685 45.9876 45.0814 47.4497 44.4758 48.8006C43.8676 50.1516 42.8799 51.197 41.5152 51.9368C40.1908 52.606 38.7783 53.0453 37.2855 53.2676C35.7952 53.4898 34.3099 53.6943 32.8371 53.8812C32.7618 53.8812 32.5858 53.8988 32.3119 53.9367C32.0329 53.9746 31.857 53.9897 31.7841 53.9897C31.7112 53.9165 31.6107 53.8307 31.4825 53.7372C31.3518 53.6514 31.2689 53.5327 31.2312 53.3862ZM36.4838 46.0507C36.6673 46.3462 36.9085 46.48 37.2026 46.4396C37.6072 46.4043 37.9314 46.182 38.1701 45.7755C38.4114 45.3664 38.5949 44.9094 38.7256 44.4145C38.8512 43.9094 38.9442 43.4019 38.9995 42.8842C39.0548 42.3666 39.1025 41.9575 39.1402 41.6646C39.1754 41.4045 39.2131 41.0459 39.2508 40.5813C39.286 40.1167 39.3237 39.6748 39.3614 39.248C39.3966 38.8238 39.4242 38.4526 39.4443 38.137C39.4619 37.8213 39.4695 37.6496 39.4695 37.6092L39.4142 37.1648C39.4142 35.127 39.4343 33.0261 39.4695 30.857C39.5072 28.693 39.3614 26.5517 39.0297 24.4407C38.8412 23.37 38.6301 22.5191 38.3938 21.8878C38.1526 21.259 37.6273 20.5545 36.818 19.7768C36.705 19.5924 36.6044 19.4435 36.514 19.3324C36.421 19.2212 36.245 19.1834 35.9887 19.2212C35.8027 19.2591 35.7374 19.4157 35.7952 19.6934C35.848 19.9712 35.8781 20.1278 35.8781 20.1656C35.9887 22.4256 36.0616 24.6831 36.0993 26.9431C36.1319 29.2006 36.1897 31.4631 36.2626 33.7231C36.3003 35.574 36.245 37.4552 36.0993 39.3617C35.9485 41.2656 36.0214 43.1468 36.3204 44.9952C36.3204 45.0685 36.3456 45.2503 36.4034 45.523C36.4561 45.8008 36.4838 45.98 36.4838 46.0507Z" fill="#2BB673"/>
<path d="M55.2197 43.4979C55.1845 43.3514 55.1569 43.1469 55.1393 42.8868C55.1192 42.6292 55.1016 42.3691 55.084 42.109C55.0639 41.849 55.0463 41.6192 55.0287 41.4172C55.0086 41.2101 54.9985 41.0712 54.9985 40.998C54.9633 40.2985 54.9256 39.3769 54.8879 38.2506C54.8528 37.1219 54.8151 35.9982 54.7774 34.8872C54.7422 33.7812 54.7045 32.7964 54.6693 31.9429C54.6316 31.0894 54.614 30.6121 54.614 30.4985C54.614 29.39 54.6417 28.1779 54.6944 26.8598C54.7522 25.5493 54.8729 24.216 55.0563 22.86C55.2398 21.509 55.5439 20.196 55.9686 18.9183C56.3908 17.6405 56.9538 16.5017 57.655 15.5018C58.3536 14.5018 59.2483 13.6887 60.334 13.0574C61.4223 12.4287 62.7392 12.0575 64.2898 11.9464H65.3956C66.426 12.0954 67.4212 12.3277 68.3813 12.6433C69.3388 12.9564 70.2059 13.3832 70.9799 13.9185C71.7515 14.4564 72.425 15.0927 72.9955 15.8326C73.5685 16.5775 74.0008 17.4663 74.2973 18.5016C74.3325 18.6481 74.3778 19.0092 74.4356 19.5874C74.4884 20.1581 74.5185 20.5394 74.5185 20.7237C74.5185 21.0217 74.526 21.456 74.5462 22.0267C74.5637 22.6049 74.5713 22.9282 74.5713 23.0014C74.5713 23.3726 74.5813 24.1781 74.6014 25.4179C74.619 26.6578 74.6467 28.0113 74.6819 29.4758C74.7196 30.9379 74.7472 32.3646 74.7673 33.7483C74.7849 35.1397 74.7924 36.1649 74.7924 36.834C74.7924 37.7582 74.8025 38.8264 74.8226 40.0283C74.8402 41.2328 74.8025 42.4853 74.712 43.7782C74.619 45.0735 74.4532 46.3513 74.2144 47.6138C73.9731 48.8713 73.5786 50.0026 73.0257 51.0025C72.4728 52.0025 71.7515 52.8282 70.8693 53.4746C69.9822 54.1186 68.8588 54.4771 67.4966 54.5579C66.3154 54.6286 65.2021 54.5579 64.1516 54.3307C63.1011 54.1085 62.0204 53.813 60.9171 53.4443C59.8088 53.111 58.9065 52.5934 58.2079 51.8914C57.5067 51.1844 56.9437 50.3687 56.5215 49.4445C56.0968 48.5203 55.7826 47.5381 55.5816 46.5002C55.378 45.4624 55.2574 44.4574 55.2197 43.4979ZM57.9289 8.38848C57.9289 8.27737 58.0872 8.05516 58.4014 7.72184C58.713 7.38853 59.0649 7.02743 59.4519 6.63856C59.8389 6.24717 60.2235 5.8785 60.613 5.52751C61 5.17651 61.284 4.92653 61.47 4.77754C61.5429 4.74219 61.6987 4.61089 61.94 4.38867C62.1787 4.16646 62.3144 4.02 62.3547 3.94425C62.4652 3.83062 62.6286 3.65891 62.8498 3.4165C63.0709 3.17661 63.3122 2.92662 63.571 2.66654C63.8274 2.40645 64.0762 2.15898 64.3149 1.91657L64.7874 1.44437C64.898 1.18429 65.182 0.878745 65.6444 0.527752C66.1018 0.176759 66.4813 0 66.7779 0C66.9236 0 67.1096 0.0732287 67.3308 0.222211C67.5494 0.368669 67.7806 0.547953 68.0219 0.749963C68.2607 0.954499 68.4718 1.14893 68.6577 1.33327C68.8412 1.5176 68.9518 1.64638 68.9895 1.71961V2.27767V2.83319C68.9895 3.01753 68.8965 3.18419 68.7105 3.33317C68.5999 3.44428 68.3989 3.61851 68.1048 3.86092C67.8083 4.10333 67.6072 4.25989 67.4966 4.33565C66.2803 5.18409 65.0538 6.06536 63.8198 6.97188C62.5834 7.88093 61.3393 8.75715 60.0877 9.61064C59.9772 9.64599 59.8842 9.67629 59.8088 9.69649C59.7359 9.71164 59.6253 9.71922 59.4796 9.71922C59.0724 9.71922 58.713 9.57529 58.4014 9.27732C58.0872 8.97936 57.9289 8.68392 57.9289 8.38848ZM62.5758 43.1065C62.6487 43.8893 62.8799 44.5811 63.2644 45.1922C63.654 45.7983 64.2898 46.071 65.1745 45.9977C65.7651 45.9548 66.2049 45.7831 66.5014 45.47C66.7955 45.1544 67.0066 44.763 67.1347 44.3009C67.2654 43.8337 67.3408 43.3489 67.3559 42.8312C67.376 42.3111 67.4037 41.8288 67.4414 41.3843V40.9096C67.4414 40.6672 67.4489 40.4147 67.4665 40.1293C67.4866 39.8541 67.4966 39.5965 67.4966 39.3567V38.9375C67.6072 37.0487 67.66 35.3139 67.66 33.7408C67.66 32.1676 67.6072 30.4354 67.4966 28.5491C67.4966 28.3269 67.4765 27.9658 67.4414 27.4658C67.4037 26.9658 67.366 26.428 67.3308 25.8548C67.2931 25.2791 67.2554 24.7437 67.2202 24.2438C67.1825 23.7438 67.1649 23.3802 67.1649 23.1605C67.0895 22.9383 66.9513 22.6327 66.7502 22.2413C66.5467 21.855 66.3255 21.4838 66.0842 21.1328C65.8455 20.7818 65.569 20.4763 65.2549 20.2162C64.9432 19.9586 64.6391 19.8273 64.3451 19.8273C63.9757 19.8652 63.654 20.0419 63.375 20.3551C63.1011 20.6682 62.8799 21.0495 62.714 21.4914C62.5457 21.9383 62.4175 22.3928 62.3245 22.8524C62.234 23.317 62.1687 23.6958 62.131 23.9938C62.0958 24.067 62.0581 24.2539 62.0204 24.5493C61.9852 24.8473 61.94 25.1781 61.8847 25.5493C61.8294 25.9204 61.7741 26.2714 61.7188 26.6048C61.6635 26.9381 61.6359 27.1426 61.6359 27.2158V27.9936V29.491C61.6359 30.049 61.6258 30.597 61.6057 31.1323C61.5881 31.6702 61.5806 32.0868 61.5806 32.3797V32.8267C61.5806 32.8974 61.5881 32.9555 61.6057 32.9908C61.6258 33.0312 61.6359 33.0842 61.6359 33.1575V33.3797C61.6736 33.7483 61.7364 34.3998 61.8294 35.324C61.9199 36.2507 62.0204 37.2229 62.131 38.2431C62.2441 39.2607 62.3345 40.2303 62.4099 41.1571C62.4828 42.0914 62.5381 42.7403 62.5758 43.1065Z" fill="#2BB673"/>
<path d="M90.9321 38.3869C91.005 38.1647 90.9598 37.9072 90.7939 37.6067C90.628 37.3112 90.3968 37.1648 90.1028 37.1648H89.9369C89.9369 37.4577 89.9268 37.9652 89.9092 38.69C89.8891 39.4096 89.8716 40.1798 89.854 40.9929C89.8339 41.806 89.8163 42.5862 89.7987 43.3261C89.7786 44.066 89.771 44.5685 89.771 44.826V45.9977C89.8087 46.7375 89.8816 47.4673 89.9922 48.1895C90.1028 48.9092 90.1757 49.644 90.2134 50.3838C90.2134 50.7146 90.1656 50.9848 90.0751 51.1868C89.9821 51.3888 89.7333 51.4924 89.3287 51.4924C88.5546 51.5681 87.8183 51.5858 87.1146 51.5454C86.4159 51.51 85.6594 51.5454 84.8502 51.659C84.7019 51.5858 84.5737 51.4368 84.4632 51.2146L84.242 50.7677C84.242 50.6969 84.2144 50.4798 84.1591 50.1288C84.1038 49.7778 84.0736 49.548 84.0736 49.4344C84.0007 48.2905 83.9932 47.1416 84.0485 45.9952C84.1038 44.8462 84.1691 43.6948 84.242 42.5458C84.242 40.6596 84.2144 38.8086 84.1591 36.9931C84.1038 35.1775 84.2219 33.3291 84.5184 31.4403L83.7444 15.8249C83.7444 15.6431 83.7544 15.4007 83.7695 15.1053C83.7896 14.8098 83.8449 14.5245 83.9379 14.2417C84.0284 13.9664 84.1591 13.724 84.3249 13.522C84.4908 13.32 84.7019 13.2165 84.9608 13.2165H85.1819C86.0641 13.2897 86.7954 13.3654 87.3659 13.4387C87.9364 13.5119 88.3335 13.9386 88.5546 14.7164C88.8487 15.5295 89.1704 16.3451 89.5197 17.1632C89.8716 17.9763 90.2134 18.7566 90.5451 19.4965C90.5803 19.5293 90.6004 19.5975 90.6004 19.6884V19.8853C90.7838 20.8828 91.0804 21.913 91.485 22.9685C91.8896 24.0215 92.2767 24.9937 92.6461 25.8825C92.5707 26.2512 92.6461 26.6804 92.8673 27.1602C93.0859 27.6425 93.3448 28.1223 93.6413 28.6046C93.9354 29.0869 94.2043 29.5515 94.4405 29.9934C94.6818 30.4378 94.7647 30.8065 94.6919 31.1019C94.7296 31.2156 94.82 31.4479 94.9658 31.7989C95.1141 32.1474 95.2548 32.5286 95.383 32.9352C95.5112 33.3443 95.6393 33.7205 95.77 34.074C95.8982 34.4275 96.0012 34.675 96.0741 34.824C96.1118 34.9326 96.1571 35.0891 96.2123 35.2962C96.2676 35.5032 96.3305 35.7229 96.4059 35.9653C96.4787 36.2078 96.5416 36.435 96.5994 36.6547C96.6522 36.8794 96.6823 37.0284 96.6823 37.1042C96.8658 37.5486 96.9939 38.0107 97.0668 38.4905C97.1422 38.9728 97.4011 39.3642 97.8434 39.6596C98.0269 39.2909 98.1174 38.8793 98.1174 38.4374C98.6351 34.3265 98.8663 30.2889 98.811 26.3269C98.7557 22.365 98.6904 18.3096 98.6175 14.1609C98.6527 14.0876 98.7456 13.9387 98.8939 13.7139C99.0422 13.4942 99.1528 13.3856 99.2257 13.3856L103.649 13.0498C103.978 13.0498 104.146 13.1432 104.146 13.3276C104.146 13.5119 104.257 13.6432 104.478 13.7139C104.368 15.383 104.368 17.0218 104.478 18.6329C104.589 20.2439 104.571 21.8827 104.423 23.5493C104.164 25.9557 103.933 28.3092 103.732 30.6045C103.528 32.8973 103.518 35.2735 103.704 37.7127L103.262 49.9924C103.224 50.3207 103.038 50.7752 102.709 51.351C102.377 51.9242 102.008 52.2878 101.603 52.4317C101.528 52.4317 101.337 52.4418 101.023 52.462C100.708 52.4822 100.515 52.4923 100.442 52.4923C99.5197 52.5655 98.6351 52.5857 97.7881 52.5453C96.9412 52.51 96.054 52.4191 95.1342 52.2701C94.6542 52.2297 94.2847 51.8939 94.0259 51.2398C93.7695 50.5934 93.576 49.8738 93.4478 49.0758C93.3171 48.2829 93.2267 47.5229 93.1714 46.7981C93.1161 46.0785 93.0708 45.6038 93.0332 45.3815C92.9955 45.2326 92.9226 44.9169 92.812 44.4346C92.7014 43.9574 92.6084 43.6215 92.5355 43.4372C92.4601 43.2503 92.3496 42.9195 92.2038 42.4373C92.0555 41.955 91.8997 41.4449 91.7338 40.9095C91.568 40.3717 91.4096 39.8641 91.2639 39.3844C91.1156 38.9046 91.005 38.5688 90.9321 38.3869Z" fill="#2BB673"/>
<path d="M115.416 53.3862C115.343 53.3484 115.285 53.1943 115.252 52.9115C115.212 52.6363 115.195 52.457 115.195 52.3838C114.973 51.053 114.938 49.7248 115.084 48.4168C115.232 47.0987 115.285 45.7932 115.252 44.4978C115.175 42.8337 115.001 41.1747 114.727 39.5258C114.448 37.8794 114.235 36.2154 114.091 34.5488C114.051 33.2559 114.051 32.0034 114.091 30.8015C114.124 29.597 114.144 28.3521 114.144 27.0567C114.182 25.8699 114.144 24.673 114.034 23.471C113.923 22.2666 113.83 21.0722 113.757 19.8904V19.5546V18.9713V18.388V18.0016C113.719 17.8122 113.684 17.4966 113.646 17.0547C113.609 16.6103 113.574 16.1355 113.536 15.6381C113.498 15.1381 113.463 14.6659 113.425 14.224C113.39 13.7771 113.373 13.464 113.373 13.2771C113.445 12.9791 113.518 12.7569 113.594 12.6105C113.667 12.4615 113.812 12.3327 114.034 12.2216C114.109 12.1862 114.32 12.1357 114.669 12.0827C115.021 12.0272 115.252 11.9994 115.363 11.9994C117.386 11.7418 119.213 11.8302 120.834 12.2771C122.458 12.7216 123.865 13.4438 125.064 14.4437C126.263 15.4437 127.238 16.6734 127.994 18.138C128.751 19.6 129.276 21.2009 129.57 22.9433C129.754 24.3523 129.847 25.7184 129.847 27.0567C129.847 28.3875 129.791 29.7788 129.681 31.2207C129.829 31.9605 129.847 32.6802 129.736 33.3847C129.625 34.0892 129.608 34.8089 129.681 35.5487C129.718 36.7381 129.791 38.1143 129.904 39.6874C130.015 41.2631 129.985 42.8388 129.821 44.4145C129.653 45.9876 129.266 47.4497 128.66 48.8006C128.052 50.1516 127.064 51.197 125.7 51.9368C124.375 52.606 122.963 53.0453 121.47 53.2676C119.98 53.4898 118.494 53.6943 117.022 53.8812C116.946 53.8812 116.77 53.8988 116.496 53.9367C116.217 53.9746 116.042 53.9897 115.969 53.9897C115.896 53.9165 115.795 53.8307 115.667 53.7372C115.536 53.6514 115.453 53.5327 115.416 53.3862ZM120.668 46.0507C120.852 46.3462 121.093 46.48 121.387 46.4396C121.792 46.4043 122.116 46.182 122.355 45.7755C122.596 45.3664 122.779 44.9094 122.91 44.4145C123.036 43.9094 123.129 43.4019 123.184 42.8842C123.239 42.3666 123.287 41.9575 123.325 41.6646C123.36 41.4045 123.398 41.0459 123.435 40.5813C123.471 40.1167 123.508 39.6748 123.546 39.248C123.581 38.8238 123.609 38.4526 123.629 38.137C123.646 37.8213 123.654 37.6496 123.654 37.6092L123.599 37.1648C123.599 35.127 123.619 33.0261 123.654 30.857C123.692 28.693 123.546 26.5517 123.214 24.4407C123.026 23.37 122.815 22.5191 122.578 21.8878C122.337 21.259 121.812 20.5545 121.003 19.7768C120.89 19.5924 120.789 19.4435 120.699 19.3324C120.606 19.2212 120.43 19.1834 120.173 19.2212C119.987 19.2591 119.922 19.4157 119.98 19.6934C120.033 19.9712 120.063 20.1278 120.063 20.1656C120.173 22.4256 120.246 24.6831 120.284 26.9431C120.317 29.2006 120.374 31.4631 120.447 33.7231C120.485 35.574 120.43 37.4552 120.284 39.3617C120.133 41.2656 120.206 43.1468 120.505 44.9952C120.505 45.0685 120.53 45.2503 120.588 45.523C120.641 45.8008 120.668 45.98 120.668 46.0507Z" fill="#2BB673"/>
<path d="M140.183 52.8862C140.035 52.7726 139.887 52.6539 139.741 52.5201C139.593 52.3938 139.52 52.2347 139.52 52.0504C139.334 50.2702 139.344 48.4748 139.548 46.6592C139.749 44.8437 139.852 43.0483 139.852 41.2681C139.852 39.0485 139.786 36.8188 139.658 34.5765C139.528 32.3367 139.392 30.0994 139.244 27.8546C139.095 25.6148 138.977 23.3801 138.882 21.1605C138.791 18.9384 138.781 16.7365 138.856 14.5472C138.856 14.325 138.919 14.0876 139.05 13.8275C139.181 13.5699 139.372 13.4184 139.631 13.3831C140 13.3452 140.432 13.3654 140.93 13.4386C141.427 13.5119 141.842 13.5321 142.174 13.4917C142.322 13.4917 142.596 13.4841 143.003 13.4689C143.408 13.4487 143.84 13.4285 144.303 13.4109C144.762 13.3932 145.195 13.373 145.602 13.3553C146.007 13.3376 146.283 13.3275 146.431 13.3275C146.466 13.3275 146.617 13.3099 146.874 13.2695C147.132 13.2366 147.406 13.1962 147.703 13.1634C147.997 13.123 148.263 13.0876 148.505 13.0498C148.743 13.0144 148.902 12.9942 148.975 12.9942C149.196 12.9942 149.555 12.974 150.053 12.9412C150.55 12.9008 151.048 12.9008 151.546 12.9412C152.043 12.974 152.493 13.0498 152.9 13.1634C153.305 13.2695 153.529 13.4917 153.564 13.8275L153.951 18.4939C153.986 18.7894 153.858 19.0419 153.564 19.2439C153.267 19.4484 152.993 19.5697 152.734 19.6025C151.995 19.6808 151.259 19.653 150.523 19.5217C149.784 19.3904 149.03 19.3651 148.256 19.4383C148.072 19.4383 147.831 19.4484 147.537 19.4661C147.243 19.4838 146.939 19.5293 146.625 19.6025C146.311 19.6808 146.044 19.7919 145.823 19.9383C145.602 20.0873 145.491 20.3095 145.491 20.605C145.602 22.0872 145.602 23.6225 145.491 25.2158C145.381 26.8092 145.398 28.3622 145.547 29.8823C145.547 30.0666 145.564 30.309 145.602 30.6045C145.637 30.8999 145.748 31.1423 145.934 31.3241C146.082 31.4378 146.311 31.5211 146.625 31.5766C146.939 31.6322 147.258 31.66 147.592 31.66C147.924 31.66 148.236 31.6499 148.532 31.6297C148.826 31.6095 149.047 31.5994 149.196 31.5994C149.344 31.5994 149.618 31.5842 150.025 31.5463C150.43 31.511 150.854 31.4655 151.297 31.4075C151.739 31.3544 152.164 31.3039 152.568 31.2686C152.973 31.2282 153.25 31.2155 153.398 31.2155C153.508 31.2155 153.599 31.2787 153.674 31.4075C153.747 31.5362 153.785 31.6398 153.785 31.713L154.169 35.3239C154.207 35.6598 154.124 35.9931 153.923 36.3239C153.72 36.6547 153.471 36.8415 153.177 36.8819C152.365 36.9905 151.553 36.9804 150.744 36.8516C149.932 36.7229 149.103 36.6926 148.256 36.7683C147.738 36.8415 147.371 36.9804 147.148 37.1875C146.929 37.3895 146.781 37.642 146.708 37.9374C146.632 38.2329 146.597 38.5637 146.597 38.9374V40.104C146.597 40.2126 146.577 40.4828 146.542 40.907C146.504 41.3363 146.459 41.7883 146.404 42.268C146.348 42.7503 146.303 43.1948 146.265 43.5988C146.228 44.0079 146.193 44.2705 146.155 44.379C146.228 44.4194 146.245 44.528 146.208 44.7174C146.172 44.8967 146.193 45.0457 146.265 45.1593C146.265 45.3815 146.303 45.6517 146.376 45.9648C146.449 46.2805 146.652 46.437 146.984 46.437H148.283H150.219H152.154H153.398C153.986 46.437 154.521 46.4926 155.001 46.6062C155.479 46.7148 155.813 47.1239 155.996 47.8258C155.996 47.8965 156.024 48.0758 156.079 48.3536C156.135 48.6288 156.19 48.9445 156.245 49.2955C156.301 49.6515 156.356 50 156.411 50.351C156.466 50.707 156.512 50.9722 156.549 51.154V51.4898C156.622 52.0075 156.494 52.3029 156.16 52.3787C155.831 52.4519 155.461 52.5276 155.057 52.6034C153.508 52.7877 151.96 52.8332 150.412 52.7397C148.864 52.6514 147.316 52.5857 145.768 52.5478C145.657 52.5125 145.381 52.5175 144.938 52.5781C144.496 52.6312 144.237 52.6615 144.164 52.6615C144.016 52.6615 143.75 52.6665 143.363 52.6867C142.976 52.7094 142.568 52.7347 142.146 52.7701C141.722 52.8105 141.324 52.8332 140.958 52.8534C140.588 52.8761 140.332 52.8862 140.183 52.8862Z" fill="#2BB673"/>
<path d="M190.03 54.9973C189.515 54.9216 189.11 54.7802 188.816 54.5782C188.517 54.3762 188.281 54.0151 188.095 53.4924C187.911 52.9015 187.798 52.2929 187.766 51.6642C187.728 51.0329 187.635 50.4041 187.487 49.7754C187.082 47.8866 186.705 45.9877 186.353 44.0787C186.001 42.1722 185.664 40.2733 185.33 38.3845C185.071 37.122 184.732 35.8947 184.31 34.6903C183.885 33.4832 183.543 32.2939 183.284 31.1046C183.101 30.3243 182.97 29.6047 182.897 28.9431C182.825 28.2739 182.676 27.5517 182.455 26.774C181.978 25.1453 181.442 23.413 180.854 21.5798C180.261 19.7465 179.929 17.9588 179.857 16.2189C179.857 16.1836 179.846 16.07 179.829 15.8882C179.811 15.6988 179.819 15.5245 179.857 15.3604C179.894 15.1912 179.949 15.0347 180.025 14.8857C180.098 14.7392 180.226 14.6635 180.409 14.6635C180.482 14.7013 180.666 14.7821 180.965 14.9135C181.259 15.0448 181.422 15.1079 181.462 15.1079C182.272 15.2569 183.156 15.3503 184.114 15.3831C185.071 15.4235 185.938 15.4412 186.715 15.4412L187.434 15.8882C187.798 19.2188 188.381 22.3954 189.173 25.4129C189.967 28.4305 190.711 31.5338 191.415 34.718V35.5236C191.415 35.8341 191.432 36.1296 191.467 36.4149C191.505 36.6876 191.578 36.9578 191.689 37.2154C191.799 37.478 191.983 37.6623 192.242 37.776C192.465 37.6623 192.618 37.4275 192.711 37.079C192.804 36.7306 192.797 36.4377 192.686 36.2154L194.066 29.7764C193.993 29.6249 193.973 29.5213 194.011 29.4708C194.049 29.4153 194.094 29.3572 194.152 29.3016C194.204 29.2486 194.242 29.183 194.262 29.1097C194.277 29.0365 194.27 28.9254 194.232 28.7764L195.559 22.61L195.506 22.1656C195.539 22.0166 195.617 21.7692 195.727 21.4157C195.838 21.0647 195.946 20.6733 196.057 20.2491C196.167 19.8223 196.268 19.436 196.363 19.0799C196.454 18.7314 196.519 18.4789 196.557 18.33C196.667 17.8527 196.75 17.3805 196.803 16.9159C196.861 16.4513 196.971 16.027 197.135 15.6382C197.303 15.2493 197.549 14.9261 197.881 14.666C198.215 14.4084 198.693 14.2569 199.319 14.2241C199.467 14.1837 199.64 14.166 199.844 14.166H200.206C200.276 14.166 200.417 14.1837 200.618 14.2241C200.822 14.2569 201.033 14.2973 201.256 14.3327C201.478 14.3706 201.679 14.3983 201.862 14.416C202.043 14.4362 202.176 14.4438 202.247 14.4438C202.948 14.5195 203.576 14.6104 204.126 14.7215C204.679 14.8326 204.973 15.2947 205.011 16.1129C205.084 17.0724 204.931 18.0446 204.541 19.0269C204.154 20.0092 203.85 20.9258 203.629 21.7768C202.892 24.8145 202.221 27.8699 201.611 30.943C201.003 34.0161 200.146 37.0538 199.04 40.0536V40.2152C199.002 40.4046 198.919 40.7278 198.791 41.1925C198.663 41.652 198.525 42.1444 198.376 42.6621C198.23 43.1797 198.092 43.6721 197.962 44.1368C197.831 44.5963 197.73 44.9246 197.657 45.1089C197.512 45.513 197.474 45.922 197.547 46.3261C197.512 46.4397 197.446 46.6316 197.353 46.9119C197.263 47.1871 197.17 47.4851 197.079 47.8007C196.986 48.1164 196.891 48.4219 196.8 48.7199C196.707 49.0128 196.665 49.2148 196.665 49.3284C196.627 49.4395 196.579 49.6441 196.524 49.9395C196.469 50.235 196.403 50.5657 196.333 50.9395C196.258 51.3081 196.192 51.6642 196.139 51.995C196.082 52.3283 196.036 52.5707 195.999 52.7197C195.926 53.1616 195.84 53.6388 195.75 54.1615C195.657 54.6792 195.335 54.9544 194.785 54.9948C194.674 54.9948 194.544 54.9999 194.395 55.0226C194.25 55.0428 194.157 55.0504 194.119 55.0504H193.322H192.076C191.636 55.0504 191.221 55.0428 190.832 55.0226C190.445 55.0024 190.178 54.9973 190.03 54.9973Z" fill="#2BB673"/>
<path d="M213.91 50.4951C213.91 50.4219 213.928 50.336 213.963 50.2451C214.001 50.1542 214.001 50.0885 213.963 50.0507C214.001 49.5734 214.058 48.9851 214.131 48.3008C214.204 47.6165 214.332 47.0533 214.516 46.6089C214.629 46.3463 214.812 46.1544 215.071 46.0256C215.328 45.8943 215.597 45.7857 215.87 45.6948C216.149 45.6014 216.416 45.5054 216.675 45.4145C216.931 45.3236 217.135 45.1671 217.283 44.9423C217.318 44.9423 217.346 44.8868 217.366 44.7757C217.383 44.6646 217.393 44.5737 217.393 44.5004C217.393 44.4272 217.401 44.2782 217.419 44.056C217.439 43.8313 217.456 43.5813 217.476 43.3035C217.494 43.0258 217.504 42.7606 217.504 42.498V41.9425C217.393 38.9426 217.366 35.963 217.419 32.9985C217.476 30.034 217.411 27.0745 217.225 24.1125C217.225 24.0368 217.21 23.8903 217.172 23.6656C217.135 23.4434 217.104 23.2035 217.089 22.9434C217.069 22.6859 217.052 22.446 217.034 22.2238C217.014 22.0015 217.004 21.8324 217.004 21.7213C216.931 21.3905 216.758 21.1859 216.479 21.1102C216.205 21.0369 215.901 20.9637 215.569 20.888C215.235 20.8147 214.941 20.6935 214.684 20.5269C214.425 20.3602 214.277 20.0547 214.242 19.6102C214.242 19.5749 214.232 19.5345 214.214 19.5017C214.194 19.4638 214.184 19.4259 214.184 19.388V18.2492C214.184 17.7139 214.194 17.1381 214.214 16.5271C214.232 15.916 214.242 15.3428 214.242 14.8049V13.7216C214.315 13.4237 214.405 13.055 214.516 12.6106C214.629 12.1662 214.83 11.9086 215.124 11.8303L215.235 11.8909H215.345C215.901 11.9995 216.675 12.0475 217.67 12.0298C218.665 12.0096 219.678 12.0298 220.711 12.0828C221.741 12.1384 222.709 12.2697 223.611 12.4717C224.516 12.6737 225.152 13.0373 225.521 13.555C225.705 13.7772 225.795 14.1307 225.795 14.6105C225.795 15.0928 225.815 15.464 225.853 15.7241C225.963 17.3149 225.916 18.426 225.712 19.0572C225.511 19.686 225.272 20.1127 224.996 20.335C224.719 20.5572 224.433 20.7036 224.136 20.7769C223.842 20.8526 223.659 21.148 223.586 21.6657C223.327 23.2212 223.179 24.7767 223.144 26.3321C223.106 27.8901 223.116 29.4406 223.171 30.9986C223.227 32.5566 223.307 34.102 223.418 35.6372C223.531 37.1776 223.621 38.7204 223.697 40.2784V40.8617V41.8844C223.697 42.2531 223.704 42.599 223.722 42.9147C223.742 43.2303 223.752 43.4222 223.752 43.498V43.9399C223.787 44.3843 223.953 44.6797 224.247 44.8287C224.541 44.9777 224.875 45.1191 225.245 45.2479C225.612 45.3792 225.953 45.5433 226.268 45.7453C226.579 45.9524 226.773 46.3286 226.846 46.8842C226.846 47.1468 226.856 47.5255 226.873 48.023C226.893 48.5204 226.866 49.0229 226.793 49.5229C226.717 50.0204 226.579 50.4799 226.378 50.884C226.175 51.293 225.853 51.5153 225.411 51.5506C224.672 51.7021 223.832 51.7375 222.892 51.6642C221.955 51.5935 221.115 51.5935 220.377 51.6642C220.266 51.6642 220 51.692 219.577 51.7476C219.153 51.8031 218.71 51.8561 218.25 51.9117C217.788 51.9672 217.346 52.0152 216.921 52.0531C216.499 52.0885 216.232 52.1087 216.122 52.1087C215.604 52.1415 215.124 52.043 214.684 51.8031C214.242 51.5607 213.983 51.1264 213.91 50.4951Z" fill="#2BB673"/>
<path d="M245.968 54.9973C245.453 54.9216 245.049 54.7802 244.755 54.5782C244.455 54.3762 244.219 54.0151 244.033 53.4924C243.85 52.9015 243.737 52.2929 243.704 51.6642C243.666 51.0329 243.573 50.4041 243.425 49.7754C243.02 47.8866 242.643 45.9877 242.292 44.0787C241.94 42.1722 241.603 40.2733 241.269 38.3845C241.01 37.122 240.671 35.8947 240.248 34.6903C239.824 33.4832 239.482 32.2939 239.223 31.1046C239.04 30.3243 238.909 29.6047 238.836 28.9431C238.763 28.2739 238.615 27.5517 238.394 26.774C237.916 25.1453 237.381 23.413 236.793 21.5798C236.2 19.7465 235.868 17.9588 235.795 16.2189C235.795 16.1836 235.785 16.07 235.767 15.8882C235.75 15.6988 235.757 15.5245 235.795 15.3604C235.833 15.1912 235.888 15.0347 235.963 14.8857C236.036 14.7392 236.164 14.6635 236.348 14.6635C236.421 14.7013 236.604 14.7821 236.903 14.9135C237.197 15.0448 237.361 15.1079 237.401 15.1079C238.21 15.2569 239.095 15.3503 240.052 15.3831C241.01 15.4235 241.877 15.4412 242.653 15.4412L243.372 15.8882C243.737 19.2188 244.32 22.3954 245.111 25.4129C245.906 28.4305 246.649 31.5338 247.353 34.718V35.5236C247.353 35.8341 247.371 36.1296 247.406 36.4149C247.444 36.6876 247.517 36.9578 247.627 37.2154C247.738 37.478 247.921 37.6623 248.18 37.776C248.404 37.6623 248.557 37.4275 248.65 37.079C248.743 36.7306 248.735 36.4377 248.625 36.2154L250.005 29.7764C249.932 29.6249 249.912 29.5213 249.949 29.4708C249.987 29.4153 250.032 29.3572 250.09 29.3016C250.143 29.2486 250.18 29.183 250.201 29.1097C250.216 29.0365 250.208 28.9254 250.17 28.7764L251.497 22.61L251.445 22.1656C251.477 22.0166 251.555 21.7692 251.666 21.4157C251.776 21.0647 251.884 20.6733 251.995 20.2491C252.106 19.8223 252.206 19.436 252.302 19.0799C252.392 18.7314 252.457 18.4789 252.495 18.33C252.606 17.8527 252.689 17.3805 252.741 16.9159C252.799 16.4513 252.91 16.027 253.073 15.6382C253.242 15.2493 253.488 14.9261 253.82 14.666C254.154 14.4084 254.631 14.2569 255.257 14.2241C255.405 14.1837 255.579 14.166 255.782 14.166H256.144C256.215 14.166 256.355 14.1837 256.556 14.2241C256.76 14.2569 256.971 14.2973 257.195 14.3327C257.416 14.3706 257.617 14.3983 257.8 14.416C257.984 14.4362 258.115 14.4438 258.188 14.4438C258.889 14.5195 259.517 14.6104 260.067 14.7215C260.62 14.8326 260.914 15.2947 260.952 16.1129C261.025 17.0724 260.872 18.0446 260.482 19.0269C260.095 20.0092 259.791 20.9258 259.57 21.7768C258.833 24.8145 258.162 27.8699 257.552 30.943C256.943 34.0161 256.086 37.0538 254.981 40.0536V40.2152C254.943 40.4046 254.86 40.7278 254.732 41.1925C254.604 41.652 254.465 42.1444 254.317 42.6621C254.171 43.1797 254.033 43.6721 253.903 44.1368C253.772 44.5963 253.671 44.9246 253.598 45.1089C253.453 45.513 253.415 45.922 253.488 46.3261C253.453 46.4397 253.387 46.6316 253.294 46.9119C253.204 47.1871 253.111 47.4851 253.02 47.8007C252.927 48.1164 252.832 48.4219 252.741 48.7199C252.648 49.0128 252.606 49.2148 252.606 49.3284C252.568 49.4395 252.52 49.6441 252.465 49.9395C252.41 50.235 252.344 50.5657 252.274 50.9395C252.199 51.3081 252.133 51.6642 252.08 51.995C252.023 52.3283 251.977 52.5707 251.94 52.7197C251.867 53.1616 251.781 53.6388 251.691 54.1615C251.598 54.6792 251.276 54.9544 250.726 54.9948C250.615 54.9948 250.485 54.9999 250.336 55.0226C250.191 55.0428 250.098 55.0504 250.06 55.0504H249.261H248.014C247.574 55.0504 247.16 55.0428 246.77 55.0226C246.383 55.0024 246.117 54.9973 245.968 54.9973Z" fill="#2BB673"/>
<path d="M269.851 50.4951C269.851 50.4219 269.869 50.336 269.904 50.2451C269.942 50.1542 269.942 50.0885 269.904 50.0507C269.942 49.5734 269.999 48.9851 270.072 48.3008C270.145 47.6165 270.273 47.0533 270.457 46.6089C270.57 46.3463 270.753 46.1544 271.012 46.0256C271.269 45.8943 271.537 45.7857 271.811 45.6948C272.09 45.6014 272.357 45.5054 272.616 45.4145C272.872 45.3236 273.076 45.1671 273.224 44.9423C273.259 44.9423 273.287 44.8868 273.307 44.7757C273.324 44.6646 273.334 44.5737 273.334 44.5004C273.334 44.4272 273.342 44.2782 273.36 44.056C273.38 43.8313 273.397 43.5813 273.417 43.3035C273.435 43.0258 273.445 42.7606 273.445 42.498V41.9425C273.334 38.9426 273.307 35.963 273.36 32.9985C273.417 30.034 273.352 27.0745 273.166 24.1125C273.166 24.0368 273.151 23.8903 273.113 23.6656C273.076 23.4434 273.045 23.2035 273.03 22.9434C273.01 22.6859 272.993 22.446 272.975 22.2238C272.955 22.0015 272.945 21.8324 272.945 21.7213C272.872 21.3905 272.699 21.1859 272.42 21.1102C272.146 21.0369 271.842 20.9637 271.51 20.888C271.176 20.8147 270.881 20.6935 270.625 20.5269C270.366 20.3602 270.218 20.0547 270.183 19.6102C270.183 19.5749 270.173 19.5345 270.155 19.5017C270.135 19.4638 270.125 19.4259 270.125 19.388V18.2492C270.125 17.7139 270.135 17.1381 270.155 16.5271C270.173 15.916 270.183 15.3428 270.183 14.8049V13.7216C270.256 13.4237 270.346 13.055 270.457 12.6106C270.57 12.1662 270.771 11.9086 271.065 11.8303L271.176 11.8909H271.286C271.842 11.9995 272.616 12.0475 273.611 12.0298C274.606 12.0096 275.619 12.0298 276.652 12.0828C277.682 12.1384 278.65 12.2697 279.552 12.4717C280.457 12.6737 281.093 13.0373 281.462 13.555C281.646 13.7772 281.736 14.1307 281.736 14.6105C281.736 15.0928 281.756 15.464 281.794 15.7241C281.904 17.3149 281.857 18.426 281.653 19.0572C281.452 19.686 281.213 20.1127 280.937 20.335C280.66 20.5572 280.374 20.7036 280.077 20.7769C279.783 20.8526 279.6 21.148 279.527 21.6657C279.268 23.2212 279.12 24.7767 279.085 26.3321C279.047 27.8901 279.057 29.4406 279.112 30.9986C279.168 32.5566 279.248 34.102 279.359 35.6372C279.472 37.1776 279.562 38.7204 279.637 40.2784V40.8617V41.8844C279.637 42.2531 279.645 42.599 279.663 42.9147C279.683 43.2303 279.693 43.4222 279.693 43.498V43.9399C279.728 44.3843 279.894 44.6797 280.188 44.8287C280.482 44.9777 280.816 45.1191 281.186 45.2479C281.553 45.3792 281.894 45.5433 282.208 45.7453C282.52 45.9524 282.714 46.3286 282.787 46.8842C282.787 47.1468 282.797 47.5255 282.814 48.023C282.834 48.5204 282.807 49.0229 282.734 49.5229C282.658 50.0204 282.52 50.4799 282.319 50.884C282.115 51.293 281.794 51.5153 281.351 51.5506C280.613 51.7021 279.773 51.7375 278.833 51.6642C277.896 51.5935 277.056 51.5935 276.318 51.6642C276.207 51.6642 275.941 51.692 275.518 51.7476C275.094 51.8031 274.651 51.8561 274.191 51.9117C273.729 51.9672 273.287 52.0152 272.862 52.0531C272.44 52.0885 272.173 52.1087 272.063 52.1087C271.545 52.1415 271.065 52.043 270.625 51.8031C270.183 51.5607 269.924 51.1264 269.851 50.4951Z" fill="#2BB673"/>
<path d="M306.941 54.275C306.242 53.2725 305.689 52.3963 305.285 51.6362C304.877 50.8736 304.417 50.053 303.9 49.1641C303.827 49.0505 303.699 48.899 303.515 48.6919C303.329 48.4899 303.153 48.2753 302.99 48.0531C302.824 47.8309 302.686 47.6137 302.575 47.4117C302.465 47.2122 302.445 47.0152 302.52 46.8309C302.078 46.1996 301.643 45.5532 301.221 44.8865C300.796 44.2149 300.381 43.571 299.977 42.9397H299.866C299.828 42.9397 299.793 42.9245 299.755 42.8866C299.424 42.8159 299.293 42.9599 299.368 43.3336C299.404 43.7023 299.441 44.3664 299.479 45.3335C299.514 46.2981 299.562 47.3233 299.615 48.4167C299.673 49.5075 299.728 50.5479 299.783 51.5276C299.838 52.5074 299.884 53.1841 299.919 53.5578L299.977 53.722C299.904 53.8306 299.793 53.972 299.645 54.1361C299.497 54.3028 299.404 54.3709 299.368 54.328L293.726 54.7169C293.397 54.7573 293.118 54.6159 292.897 54.3028C292.678 53.9871 292.548 53.7018 292.512 53.4417C292.512 53.4038 292.52 53.376 292.54 53.3558C292.558 53.3382 292.568 53.2927 292.568 53.2195V53.0503C292.568 53.0175 292.585 52.9139 292.623 52.7448C292.658 52.5831 292.696 52.4039 292.734 52.217C292.769 52.0352 292.806 51.8685 292.844 51.7195C292.882 51.5706 292.897 51.4771 292.897 51.4443C292.897 51.3332 292.872 51.0832 292.817 50.6943C292.761 50.3055 292.714 49.8964 292.678 49.4722C292.641 49.0454 292.603 48.649 292.568 48.2778C292.53 47.9091 292.512 47.6667 292.512 47.5556V46.1946C292.512 45.4724 292.502 44.7047 292.482 43.8891C292.467 43.076 292.447 42.3059 292.43 41.5812C292.409 40.8615 292.402 40.407 292.402 40.2201C292.402 40.0383 292.382 39.7025 292.347 39.2227C292.309 38.7404 292.271 38.2227 292.236 37.6672C292.198 37.1117 292.161 36.594 292.125 36.1117C292.088 35.6294 292.068 35.2986 292.068 35.1118C292.105 35.0411 292.125 34.8694 292.125 34.6143V34.1118C292.236 30.8923 292.254 27.7056 292.178 24.5593C292.105 21.4129 292.015 18.2439 291.904 15.0597C291.904 14.9486 291.894 14.7441 291.877 14.4486C291.857 14.1532 291.831 13.8376 291.794 13.5017C291.756 13.1709 291.728 12.8452 291.711 12.5295C291.691 12.2164 291.683 12.0018 291.683 11.8957C291.756 11.671 291.857 11.5397 291.987 11.5043C292.115 11.469 292.254 11.4488 292.402 11.4488C293.875 11.3377 295.312 11.272 296.715 11.2544C298.114 11.2367 299.431 11.3831 300.665 11.6963C301.899 12.0119 303.018 12.5396 304.01 13.2795C305.008 14.0219 305.837 15.0774 306.501 16.446C306.978 17.4131 307.458 18.3449 307.938 19.254C308.416 20.1605 308.695 21.1529 308.768 22.226C308.914 24.4456 308.537 26.5137 307.634 28.4202C306.73 30.3292 305.45 32.0589 303.789 33.6144C303.643 33.8012 303.571 34.0032 303.571 34.2255C303.643 34.5562 303.782 34.8719 303.985 35.1673C304.189 35.4653 304.252 35.7809 304.179 36.1143L306.446 40.6721V40.8337L308.71 44.5027C308.71 44.5381 308.868 44.8436 309.182 45.4193C309.494 45.9926 309.854 46.6365 310.261 47.3637C310.665 48.0859 311.032 48.8081 311.366 49.5277C311.698 50.2524 311.882 50.7979 311.919 51.164C311.955 51.4999 311.836 51.8711 311.557 52.2776C311.284 52.6816 310.942 53.0528 310.537 53.3861C310.13 53.722 309.708 54.0073 309.265 54.2497C308.821 54.4896 308.436 54.6108 308.102 54.6108C307.587 54.6815 307.2 54.5679 306.941 54.275ZM297.654 27.8318C297.803 28.0162 297.918 28.155 298.014 28.2485C298.104 28.3419 298.263 28.4076 298.484 28.4404C299.22 28.3672 299.818 28.0995 300.281 27.6374C300.741 27.1728 301.09 26.6349 301.331 26.0238C301.57 25.4153 301.726 24.7764 301.799 24.1098C301.874 23.4432 301.909 22.8674 301.909 22.3877C301.874 22.0165 301.784 21.5645 301.635 21.0266C301.487 20.4913 301.284 19.9812 301.027 19.4989C300.768 19.0166 300.444 18.6202 300.06 18.3045C299.673 17.9914 299.2 17.8525 298.65 17.8879C298.28 17.9257 297.994 18.1278 297.793 18.499C297.589 18.8676 297.451 19.2944 297.378 19.7767C297.303 20.259 297.267 20.7286 297.267 21.1907V22.1654C297.267 22.2033 297.277 22.3296 297.293 22.5518C297.313 22.774 297.33 23.0366 297.35 23.332C297.368 23.6275 297.388 23.933 297.403 24.2487C297.423 24.5643 297.451 24.8143 297.489 24.9986C297.489 25.1097 297.496 25.2941 297.514 25.5542C297.534 25.8117 297.551 26.0996 297.572 26.4127C297.589 26.7283 297.607 27.0162 297.624 27.2763C297.644 27.5364 297.654 27.7207 297.654 27.8318Z" fill="#2BB673"/>
<path d="M334.139 52.553C333.953 52.4823 333.769 52.3611 333.583 52.1919C333.397 52.0253 333.289 51.8485 333.252 51.6642L331.93 39.887C331.93 39.7405 331.862 39.6067 331.734 39.4981C331.606 39.3845 331.482 39.3491 331.372 39.3845L324.958 39.9955L326.009 49.7223C326.082 50.3132 326.25 50.8561 326.506 51.3586C326.765 51.8586 326.929 52.3863 327.006 52.9419C327.039 53.1641 327.022 53.303 326.949 53.356C326.876 53.4141 326.707 53.4595 326.451 53.4949C326.378 53.4949 326.275 53.505 326.147 53.5277C326.019 53.5479 325.936 53.5555 325.898 53.5555H325.207C324.895 53.5555 324.571 53.5631 324.239 53.5807C323.908 53.6009 323.604 53.6211 323.327 53.6388C323.051 53.654 322.875 53.6641 322.802 53.6641C322.138 53.6641 321.603 53.5908 321.198 53.4418C320.794 53.2929 320.48 53.0732 320.258 52.7752C320.037 52.4823 319.882 52.1187 319.789 51.6894C319.696 51.2652 319.613 50.7778 319.54 50.2198C319.356 48.182 319.208 46.1594 319.097 44.1393C318.987 42.1166 318.894 40.0738 318.821 37.9982C318.821 37.9603 318.813 37.7583 318.793 37.3871C318.773 37.0184 318.746 36.5942 318.71 36.1094C318.673 35.6271 318.635 35.1574 318.6 34.6928C318.562 34.2281 318.524 33.8696 318.489 33.607C318.416 32.1979 318.479 30.9076 318.683 29.7157C318.884 28.534 319.115 27.2386 319.374 25.8296C319.153 25.1983 319.198 24.5317 319.512 23.8297C319.824 23.1277 320.075 22.4964 320.258 21.9409C320.331 21.6454 320.379 21.3651 320.397 21.1076C320.414 20.8475 320.48 20.552 320.59 20.2162C320.59 20.1834 320.61 20.1177 320.646 20.0243C320.683 19.9309 320.721 19.8854 320.756 19.8854C321.161 19.143 321.513 18.3956 321.807 17.6355C322.101 16.878 322.505 16.1255 323.026 15.3831C323.355 14.9387 323.759 14.4867 324.239 14.0221C324.717 13.56 325.235 13.1256 325.788 12.7191C326.34 12.31 326.921 11.9792 327.529 11.7191C328.137 11.4591 328.736 11.2924 329.326 11.2192C330.987 11.0702 332.274 11.3 333.196 11.9111C334.119 12.5221 334.85 13.3125 335.385 14.2746C335.916 15.2367 336.328 16.2997 336.627 17.4689C336.918 18.633 337.255 19.7188 337.622 20.7162C337.622 20.8273 337.65 21.0318 337.703 21.3298C337.758 21.6278 337.806 21.9409 337.843 22.2742C337.881 22.6075 337.924 22.913 337.982 23.1908C338.037 23.466 338.064 23.6605 338.064 23.7716C338.323 26.2184 338.479 28.6804 338.534 31.1601C338.59 33.6448 338.675 36.1068 338.786 38.5486C338.786 39.1799 338.741 39.8314 338.648 40.4955C338.555 41.1596 338.529 41.8086 338.565 42.4399C338.565 42.5131 338.582 42.7075 338.617 43.0206C338.653 43.3363 338.69 43.6822 338.73 44.0509C338.766 44.4196 338.811 44.7605 338.869 45.0761C338.921 45.3917 338.952 45.5836 338.952 45.6569V47.4926C338.952 47.5659 338.957 47.7603 338.979 48.0734C338.997 48.3891 339.017 48.735 339.035 49.1037C339.052 49.4723 339.07 49.8132 339.087 50.1289C339.105 50.4445 339.115 50.6566 339.115 50.7703C339.115 50.9925 339.077 51.3258 339.004 51.7677C338.932 52.2121 338.69 52.4747 338.286 52.548H338.175C338.135 52.548 338.017 52.5278 337.816 52.4924C337.61 52.4545 337.491 52.4368 337.454 52.4368C337.343 52.4368 337.122 52.4469 336.79 52.4697C336.459 52.4899 336.114 52.4949 335.767 52.4949C335.416 52.4949 335.086 52.505 334.772 52.5227C334.458 52.5429 334.247 52.553 334.139 52.553ZM321.312 9.49704C321.312 9.38846 321.467 9.16624 321.782 8.8304C322.093 8.49961 322.445 8.13599 322.832 7.74965C323.219 7.35825 323.606 6.99211 323.993 6.63607C324.38 6.2876 324.667 6.03508 324.85 5.8861C324.923 5.85328 325.081 5.71944 325.32 5.49723C325.559 5.27502 325.697 5.12856 325.735 5.05281C325.845 4.94423 326.011 4.76747 326.232 4.52506C326.454 4.2877 326.695 4.03771 326.951 3.77762C327.21 3.52006 327.456 3.26754 327.698 3.02766L328.168 2.55293C328.278 2.29789 328.565 1.98983 329.025 1.63884C329.484 1.28532 329.861 1.11108 330.158 1.11108C330.304 1.11108 330.49 1.18431 330.711 1.3333C330.932 1.47975 331.163 1.65651 331.399 1.86105C331.641 2.06558 331.852 2.25749 332.038 2.44435C332.224 2.62869 332.332 2.75999 332.367 2.8307V3.38622V3.94428C332.367 4.12861 332.277 4.29527 332.093 4.44173C331.983 4.55536 331.779 4.72959 331.485 4.96948C331.191 5.21189 330.99 5.36845 330.877 5.4442C329.663 6.2977 328.434 7.17392 327.202 8.08296C325.966 8.98948 324.722 9.87075 323.47 10.7217C323.36 10.7596 323.267 10.7849 323.194 10.8051C323.121 10.8253 323.01 10.8303 322.862 10.8303C322.455 10.8303 322.096 10.6864 321.784 10.3884C321.467 10.0904 321.312 9.795 321.312 9.49704ZM325.071 32.554C325.109 32.9984 325.365 33.3141 325.845 33.4959C326.323 33.6827 326.878 33.8014 327.504 33.862C328.13 33.915 328.758 33.9352 329.384 33.915C330.01 33.8948 330.49 33.8696 330.821 33.8317C330.894 33.8317 331.043 33.8216 331.264 33.8014C331.485 33.7862 331.631 33.7761 331.706 33.7761C331.779 33.6625 331.834 33.5615 331.872 33.4706C331.912 33.3772 331.945 33.2736 331.983 33.1651C331.983 32.9429 331.962 32.5843 331.93 32.0793C331.887 31.5818 331.862 31.0339 331.842 30.443C331.827 29.8546 331.807 29.3041 331.789 28.8067C331.769 28.3042 331.761 27.9456 331.761 27.7234C331.799 27.6502 331.817 27.481 331.817 27.2234V26.6679L331.261 21.2768C331.221 21.0217 331.131 20.7212 330.987 20.3904C330.837 20.0571 330.656 19.7516 330.432 19.4713C330.211 19.1961 329.942 18.9738 329.63 18.8072C329.316 18.638 328.997 18.5749 328.663 18.6127C328.369 18.6481 328.09 18.7415 327.833 18.8905C326.617 20.148 325.86 21.4636 325.566 22.8348C325.27 24.2034 325.106 25.7058 325.069 27.3345C325.069 28.2209 325.049 29.092 325.016 29.9455C324.978 30.794 324.998 31.6626 325.071 32.554Z" fill="#2BB673"/>
<path d="M378.182 51.2196C378.031 51.2196 377.86 51.2727 377.657 51.3813C377.453 51.4949 377.252 51.6136 377.049 51.7474C376.848 51.8787 376.669 52.0075 376.523 52.1363C376.373 52.265 376.285 52.3484 376.247 52.3837C375.732 52.6463 375.161 52.7928 374.533 52.8307C373.907 52.8686 373.317 52.8862 372.764 52.8862C371.474 52.9216 370.268 52.6261 369.145 51.9949C368.021 51.3686 367.018 50.5328 366.131 49.4925C365.247 48.4572 364.515 47.3032 363.947 46.0204C363.372 44.7452 362.997 43.4953 362.814 42.2731C362.593 40.8313 362.472 39.3616 362.455 37.8592C362.434 36.3593 362.409 34.8644 362.372 33.3872C362.299 31.4984 362.424 29.4808 362.759 27.3319C363.09 25.183 363.643 23.2387 364.417 21.4964C364.747 20.759 365.191 19.9712 365.742 19.1379C366.297 18.3046 366.931 17.5168 367.652 16.7769C368.368 16.037 369.135 15.3805 369.949 14.8048C370.756 14.2341 371.567 13.8326 372.379 13.6104C372.527 13.6104 372.821 13.5927 373.264 13.5548C373.706 13.5169 374 13.4993 374.153 13.4993C375.734 13.4639 377.026 13.6028 378.021 13.9184C379.016 14.2341 379.78 14.7416 380.318 15.4436C380.849 16.1456 381.208 17.0547 381.394 18.1657C381.58 19.2793 381.688 20.6302 381.723 22.2236V22.7513C381.723 22.9912 381.736 23.2488 381.753 23.5266C381.773 23.8068 381.783 24.072 381.783 24.3346V24.8876C381.743 25.183 381.706 25.5063 381.67 25.8598C381.633 26.2133 381.57 26.539 381.479 26.8345C381.386 27.1299 381.248 27.3875 381.067 27.6072C380.876 27.8319 380.62 27.943 380.288 27.943C379.552 27.9077 378.868 27.8142 378.245 27.6652C377.725 27.5541 377.25 27.4153 376.807 27.2486C376.365 27.0794 376.144 26.8522 376.144 26.5517L376.081 22.4988C376.081 21.9812 375.847 21.5368 375.392 21.1681C374.93 20.7969 374.46 20.61 373.98 20.61C372.799 20.6504 371.816 21.1782 371.022 22.1933C370.23 23.2134 369.595 24.4255 369.117 25.832C368.634 27.2385 368.293 28.6829 368.092 30.1651C367.886 31.6448 367.788 32.8872 367.788 33.8872C367.825 34.7785 367.946 35.877 368.147 37.1926C368.35 38.5081 368.682 39.7732 369.142 40.9979C369.605 42.2226 370.21 43.2604 370.967 44.1114C371.726 44.9599 372.688 45.3866 373.869 45.3866C374.533 45.3512 375.068 45.1114 375.473 44.6669C375.877 44.22 376.046 43.667 375.97 43.0004C375.97 42.9599 375.96 42.8665 375.94 42.7201C375.925 42.5711 375.905 42.417 375.888 42.2504C375.87 42.0837 375.835 41.9347 375.777 41.8034C375.722 41.6747 375.656 41.609 375.583 41.609L372.987 41.662C372.879 41.662 372.756 41.5989 372.625 41.4726C372.495 41.3413 372.377 41.1848 372.264 40.9979C372.155 40.8161 372.062 40.6394 371.99 40.4702C371.917 40.3035 371.879 40.1646 371.879 40.0561L371.824 36.4401C371.824 36.0714 371.972 35.7684 372.266 35.5285C372.565 35.2861 372.879 35.1649 373.208 35.1649H373.43C373.616 35.2028 373.935 35.2785 374.397 35.3846C374.86 35.4982 375.144 35.5739 375.254 35.6068L382.387 35.3846C382.46 35.3846 382.56 35.4906 382.691 35.6926C382.821 35.8972 382.922 36.0562 382.995 36.1648C383.033 36.2052 383.055 36.2381 383.075 36.2785C383.095 36.3163 383.126 36.3517 383.158 36.387C383.198 36.4603 383.234 36.5209 383.271 36.5537C383.271 36.6623 383.251 36.8895 383.216 37.2203C383.178 37.5562 383.146 37.7784 383.105 37.8895L383.379 52.5554C383.379 52.8534 383.276 53.0832 383.075 53.2524C382.874 53.4165 382.681 53.4973 382.497 53.4973C381.982 53.5377 381.437 53.4822 380.869 53.3357C380.296 53.1842 379.808 52.9645 379.401 52.6691C379.145 52.5201 378.964 52.2398 378.851 51.8358C378.732 51.4217 378.514 51.2196 378.182 51.2196Z" fill="#2BB673"/>
<path d="M393.272 49.7752C393.011 47.702 392.94 45.5734 393.051 43.3866C393.162 41.2024 393.179 39.0535 393.106 36.9425C393.028 34.94 392.92 32.9906 392.772 31.0817C392.624 29.1752 392.568 27.2207 392.606 25.2208C392.606 23.0745 392.616 21.0746 392.636 19.2211C392.654 17.3702 392.513 15.4082 392.222 13.3325C392.292 12.7416 392.596 12.2871 393.131 11.9715C393.667 11.6584 394.192 11.4639 394.707 11.3882C395.3 11.3149 395.949 11.3149 396.67 11.3882C397.391 11.4639 397.987 11.7417 398.467 12.2215C398.467 12.2947 398.477 12.4437 398.497 12.6659C398.515 12.8906 398.525 13.0371 398.525 13.1103C398.671 14.4082 398.655 15.8172 398.469 17.3323C398.286 18.8525 398.228 20.2413 398.306 21.4988C398.306 21.6478 398.334 22.2134 398.389 23.1957C398.444 24.1754 398.507 25.2966 398.578 26.5541C398.655 27.8167 398.728 29.0843 398.804 30.362C398.877 31.6372 398.932 32.6472 398.97 33.3871C399.078 35.1623 399.14 36.8945 399.161 38.5813C399.181 40.2681 399.284 41.9801 399.465 43.7224C399.575 44.4244 399.879 44.8285 400.377 44.9421C400.872 45.0507 401.417 45.1012 402.006 45.0835C402.594 45.0608 403.139 45.0734 403.637 45.1087C404.129 45.1466 404.421 45.4623 404.494 46.0531C404.494 47.2425 404.466 48.1945 404.411 48.9141C404.358 49.6363 404.272 50.2954 404.162 50.8862C404.051 51.4771 403.865 51.7751 403.604 51.7751C403.569 51.818 403.506 51.8306 403.415 51.8306H403.222C401.817 51.7599 400.382 51.6892 398.909 51.6362C397.434 51.5832 395.956 51.4771 394.484 51.3307C394.006 51.2978 393.699 51.1589 393.574 50.9165C393.446 50.6716 393.343 50.2928 393.272 49.7752Z" fill="#2BB673"/>
<path d="M413.996 43.498C413.958 43.3516 413.933 43.147 413.915 42.8869C413.895 42.6294 413.875 42.3693 413.863 42.1092C413.84 41.8491 413.822 41.6193 413.807 41.4173C413.785 41.2102 413.775 41.0714 413.775 40.9981C413.739 40.2987 413.704 39.377 413.667 38.2508C413.629 37.1221 413.594 35.9984 413.553 34.8873C413.518 33.7813 413.483 32.7965 413.445 31.943C413.408 31.0895 413.393 30.6123 413.393 30.4987C413.393 29.3901 413.42 28.1781 413.471 26.8599C413.528 25.5494 413.651 24.2161 413.835 22.8601C414.018 21.5092 414.322 20.1961 414.747 18.9184C415.169 17.6407 415.735 16.5019 416.434 15.5019C417.132 14.502 418.027 13.6889 419.11 13.0576C420.201 12.4288 421.515 12.0576 423.066 11.9465H424.172C425.202 12.0955 426.197 12.3278 427.157 12.6435C428.115 12.9566 428.982 13.3833 429.753 13.9187C430.525 14.4565 431.199 15.0928 431.772 15.8327C432.345 16.5776 432.774 17.4665 433.073 18.5018C433.109 18.6482 433.151 19.0093 433.212 19.5876C433.264 20.1583 433.295 20.5395 433.295 20.7239C433.295 21.0218 433.302 21.4562 433.325 22.0268C433.34 22.6051 433.35 22.9283 433.35 23.0015C433.35 23.3727 433.36 24.1783 433.38 25.4181C433.398 26.6579 433.425 28.0114 433.458 29.476C433.498 30.938 433.523 32.3647 433.546 33.7485C433.561 35.1398 433.571 36.165 433.571 36.8342C433.571 37.7584 433.581 38.8265 433.601 40.0285C433.619 41.233 433.581 42.4854 433.491 43.7783C433.398 45.0737 433.232 46.3514 432.993 47.614C432.752 48.8715 432.357 50.0027 431.804 51.0027C431.249 52.0026 430.528 52.8284 429.648 53.4748C428.761 54.1187 427.637 54.4773 426.275 54.5581C425.094 54.6288 423.981 54.5581 422.93 54.3308C421.88 54.1086 420.799 53.8132 419.696 53.4445C418.587 53.1112 417.685 52.5935 416.986 51.8915C416.285 51.1845 415.722 50.3689 415.3 49.4447C414.875 48.5205 414.561 47.5382 414.36 46.5004C414.152 45.4626 414.031 44.4576 413.996 43.498ZM421.352 43.1066C421.425 43.8894 421.656 44.5813 422.038 45.1924C422.43 45.7984 423.063 46.0711 423.951 45.9979C424.541 45.955 424.978 45.7833 425.277 45.4701C425.572 45.1545 425.783 44.7631 425.911 44.301C426.041 43.8339 426.117 43.349 426.132 42.8314C426.152 42.3112 426.18 41.8289 426.215 41.3845V40.9098C426.215 40.6673 426.225 40.4148 426.24 40.1295C426.263 39.8543 426.273 39.5967 426.273 39.3568V38.9376C426.383 37.0488 426.436 35.3141 426.436 33.7409C426.436 32.1678 426.383 30.4355 426.273 28.5493C426.273 28.327 426.253 27.9659 426.217 27.466C426.18 26.966 426.145 26.4281 426.109 25.8549C426.069 25.2792 426.031 24.7439 425.996 24.2439C425.959 23.7439 425.943 23.3803 425.943 23.1606C425.868 22.9384 425.73 22.6329 425.529 22.2415C425.325 21.8551 425.104 21.4839 424.863 21.133C424.622 20.782 424.348 20.4764 424.033 20.2163C423.719 19.9588 423.415 19.8275 423.124 19.8275C422.754 19.8653 422.435 20.0421 422.154 20.3552C421.88 20.6683 421.658 21.0496 421.49 21.4915C421.324 21.9385 421.196 22.393 421.103 22.8526C421.01 23.3172 420.945 23.696 420.91 23.9939C420.872 24.0671 420.837 24.254 420.799 24.5494C420.764 24.8474 420.719 25.1782 420.661 25.5494C420.608 25.9206 420.553 26.2716 420.497 26.6049C420.442 26.9382 420.414 27.1428 420.414 27.216V27.9937V29.4911C420.414 30.0492 420.404 30.5971 420.382 31.1325C420.367 31.6703 420.357 32.087 420.357 32.3799V32.8268C420.357 32.8975 420.367 32.9556 420.382 32.991C420.404 33.0314 420.414 33.0844 420.414 33.1576V33.3798C420.452 33.7485 420.515 34.4 420.608 35.3242C420.696 36.2509 420.799 37.2231 420.91 38.2432C421.023 39.2608 421.113 40.2305 421.186 41.1572C421.259 42.0839 421.312 42.7405 421.352 43.1066Z" fill="#2BB673"/>
<path d="M472.688 51.2196C472.54 51.2196 472.367 51.2727 472.163 51.3813C471.959 51.4949 471.758 51.6136 471.555 51.7474C471.354 51.8787 471.178 52.0075 471.029 52.1363C470.881 52.265 470.791 52.3484 470.756 52.3837C470.235 52.6463 469.667 52.7928 469.039 52.8307C468.413 52.8686 467.825 52.8862 467.27 52.8862C465.98 52.9216 464.777 52.6261 463.648 51.9949C462.527 51.3686 461.522 50.5328 460.637 49.4925C459.755 48.4572 459.024 47.3032 458.453 46.0204C457.88 44.7452 457.503 43.4953 457.32 42.2731C457.099 40.8313 456.978 39.3616 456.961 37.8592C456.938 36.3593 456.913 34.8644 456.878 33.3872C456.805 31.4984 456.933 29.4808 457.262 27.3319C457.596 25.183 458.149 23.2387 458.921 21.4964C459.255 20.759 459.697 19.9712 460.248 19.1379C460.806 18.3046 461.439 17.5168 462.16 16.7769C462.874 16.037 463.638 15.3805 464.452 14.8048C465.262 14.2341 466.073 13.8326 466.883 13.6104C467.033 13.6104 467.328 13.5927 467.77 13.5548C468.212 13.5169 468.506 13.4993 468.657 13.4993C470.238 13.4639 471.532 13.6028 472.53 13.9184C473.523 14.2341 474.287 14.7416 474.822 15.4436C475.357 16.1456 475.714 17.0547 475.898 18.1657C476.084 19.2793 476.197 20.6302 476.232 22.2236V22.7513C476.232 22.9912 476.242 23.2488 476.259 23.5266C476.28 23.8068 476.292 24.072 476.292 24.3346V24.8876C476.249 25.183 476.214 25.5063 476.177 25.8598C476.139 26.2133 476.076 26.539 475.988 26.8345C475.89 27.1299 475.754 27.3875 475.571 27.6072C475.385 27.8319 475.126 27.943 474.794 27.943C474.058 27.9077 473.377 27.8142 472.749 27.6652C472.233 27.5541 471.753 27.4153 471.313 27.2486C470.869 27.0794 470.652 26.8522 470.652 26.5517L470.595 22.4988C470.595 21.9812 470.363 21.5368 469.909 21.1681C469.444 20.7969 468.976 20.61 468.494 20.61C467.31 20.6504 466.33 21.1782 465.533 22.1933C464.744 23.2134 464.108 24.4255 463.628 25.832C463.148 27.2385 462.804 28.6829 462.603 30.1651C462.402 31.6448 462.299 32.8872 462.299 33.8872C462.339 34.7785 462.457 35.877 462.661 37.1926C462.864 38.5081 463.196 39.7732 463.656 40.9979C464.121 42.2226 464.726 43.2604 465.483 44.1114C466.239 44.9599 467.207 45.3866 468.386 45.3866C469.049 45.3512 469.584 45.1114 469.989 44.6669C470.394 44.22 470.56 43.667 470.487 43.0004C470.487 42.9599 470.477 42.8665 470.459 42.7201C470.439 42.5711 470.421 42.417 470.404 42.2504C470.386 42.0837 470.348 41.9347 470.293 41.8034C470.24 41.6747 470.173 41.609 470.1 41.609L467.506 41.662C467.393 41.662 467.272 41.5989 467.142 41.4726C467.008 41.3413 466.89 41.1848 466.782 40.9979C466.674 40.8161 466.576 40.6394 466.506 40.4702C466.433 40.3035 466.395 40.1646 466.395 40.0561L466.34 36.4401C466.34 36.0714 466.486 35.7684 466.785 35.5285C467.079 35.2861 467.393 35.1649 467.727 35.1649H467.943C468.129 35.2028 468.453 35.2785 468.913 35.3846C469.376 35.4982 469.66 35.5739 469.77 35.6068L476.903 35.3846C476.976 35.3846 477.076 35.4906 477.207 35.6926C477.338 35.8972 477.438 36.0562 477.511 36.1648C477.549 36.2052 477.574 36.2381 477.594 36.2785C477.612 36.3163 477.642 36.3517 477.677 36.387C477.715 36.4603 477.75 36.5209 477.785 36.5537C477.785 36.6623 477.77 36.8895 477.732 37.2203C477.692 37.5562 477.659 37.7784 477.622 37.8895L477.898 52.5554C477.898 52.8534 477.795 53.0832 477.594 53.2524C477.39 53.4165 477.197 53.4973 477.013 53.4973C476.498 53.5377 475.953 53.4822 475.382 53.3357C474.812 53.1842 474.327 52.9645 473.92 52.6691C473.661 52.5201 473.477 52.2398 473.369 51.8358C473.241 51.4217 473.02 51.2196 472.688 51.2196Z" fill="#2BB673"/>
<path d="M487.779 49.7752C487.517 47.702 487.447 45.5734 487.557 43.3866C487.668 41.2024 487.686 39.0535 487.61 36.9425C487.537 34.94 487.424 32.9906 487.278 31.0817C487.13 29.1752 487.075 27.2207 487.11 25.2208C487.11 23.0745 487.12 21.0746 487.143 19.2211C487.16 17.3702 487.022 15.4082 486.728 13.3325C486.801 12.7416 487.105 12.2871 487.635 11.9715C488.171 11.6584 488.698 11.4639 489.211 11.3882C489.804 11.3149 490.458 11.3149 491.179 11.3882C491.895 11.4639 492.493 11.7417 492.971 12.2215C492.971 12.2947 492.981 12.4437 493.003 12.6659C493.021 12.8906 493.031 13.0371 493.031 13.1103C493.179 14.4082 493.159 15.8172 492.973 17.3323C492.792 18.8525 492.737 20.2413 492.812 21.4988C492.812 21.6478 492.84 22.2134 492.895 23.1957C492.948 24.1754 493.014 25.2966 493.086 26.5541C493.159 27.8167 493.235 29.0843 493.31 30.362C493.38 31.6372 493.438 32.6472 493.473 33.3871C493.587 35.1623 493.647 36.8945 493.667 38.5813C493.685 40.2681 493.788 41.9801 493.971 43.7224C494.082 44.4244 494.386 44.8285 494.883 44.9421C495.376 45.0507 495.924 45.1012 496.514 45.0835C497.1 45.0608 497.645 45.0734 498.143 45.1087C498.638 45.1466 498.93 45.4623 499 46.0531C499 47.2425 498.972 48.1945 498.92 48.9141C498.864 49.6363 498.779 50.2954 498.668 50.8862C498.558 51.4771 498.372 51.7751 498.113 51.7751C498.078 51.818 498.01 51.8306 497.922 51.8306H497.728C496.326 51.7599 494.888 51.6892 493.416 51.6362C491.938 51.5832 490.465 51.4771 488.987 51.3307C488.512 51.2978 488.206 51.1589 488.08 50.9165C487.952 50.6716 487.851 50.2928 487.779 49.7752Z" fill="#2BB673"/>
<path d="M508.502 43.498C508.466 43.3516 508.439 43.147 508.421 42.8869C508.401 42.6294 508.383 42.3693 508.366 42.1092C508.348 41.8491 508.328 41.6193 508.313 41.4173C508.293 41.2102 508.283 41.0714 508.283 40.9981C508.248 40.2987 508.21 39.377 508.17 38.2508C508.135 37.1221 508.099 35.9984 508.062 34.8873C508.024 33.7813 507.989 32.7965 507.954 31.943C507.914 31.0895 507.898 30.6123 507.898 30.4987C507.898 29.3901 507.926 28.1781 507.979 26.8599C508.037 25.5494 508.155 24.2161 508.341 22.8601C508.524 21.5092 508.828 20.1961 509.253 18.9184C509.675 17.6407 510.238 16.5019 510.939 15.5019C511.636 14.502 512.533 13.6889 513.618 13.0576C514.707 12.4288 516.024 12.0576 517.574 11.9465H518.678C519.708 12.0955 520.703 12.3278 521.663 12.6435C522.621 12.9566 523.49 13.3833 524.262 13.9187C525.036 14.4565 525.707 15.0928 526.277 15.8327C526.853 16.5776 527.283 17.4665 527.582 18.5018C527.617 18.6482 527.662 19.0093 527.72 19.5876C527.773 20.1583 527.803 20.5395 527.803 20.7239C527.803 21.0218 527.81 21.4562 527.831 22.0268C527.851 22.6051 527.856 22.9283 527.856 23.0015C527.856 23.3727 527.866 24.1783 527.888 25.4181C527.906 26.6579 527.934 28.0114 527.969 29.476C528.007 30.938 528.032 32.3647 528.052 33.7485C528.072 35.1398 528.077 36.165 528.077 36.8342C528.077 37.7584 528.089 38.8265 528.11 40.0285C528.127 41.233 528.089 42.4854 527.999 43.7783C527.906 45.0737 527.738 46.3514 527.501 47.614C527.26 48.8715 526.866 50.0027 526.313 51.0027C525.76 52.0026 525.038 52.8284 524.156 53.4748C523.267 54.1187 522.146 54.4773 520.784 54.5581C519.6 54.6288 518.489 54.5581 517.439 54.3308C516.388 54.1086 515.305 53.8132 514.204 53.4445C513.098 53.1112 512.194 52.5935 511.497 51.8915C510.796 51.1845 510.231 50.3689 509.808 49.4447C509.384 48.5205 509.07 47.5382 508.869 46.5004C508.66 45.4626 508.539 44.4576 508.502 43.498ZM515.858 43.1066C515.928 43.8894 516.162 44.5813 516.546 45.1924C516.933 45.7984 517.572 46.0711 518.456 45.9979C519.044 45.955 519.487 45.7833 519.781 45.4701C520.075 45.1545 520.286 44.7631 520.414 44.301C520.547 43.8339 520.62 43.349 520.635 42.8314C520.658 42.3112 520.686 41.8289 520.723 41.3845V40.9098C520.723 40.6673 520.728 40.4148 520.748 40.1295C520.769 39.8543 520.779 39.5967 520.779 39.3568V38.9376C520.889 37.0488 520.939 35.3141 520.939 33.7409C520.939 32.1678 520.887 30.4355 520.779 28.5493C520.779 28.327 520.758 27.9659 520.726 27.466C520.686 26.966 520.648 26.4281 520.613 25.8549C520.575 25.2792 520.54 24.7439 520.505 24.2439C520.464 23.7439 520.449 23.3803 520.449 23.1606C520.374 22.9384 520.236 22.6329 520.035 22.2415C519.831 21.8551 519.61 21.4839 519.366 21.133C519.127 20.782 518.851 20.4764 518.537 20.2163C518.228 19.9588 517.924 19.8275 517.63 19.8275C517.263 19.8653 516.938 20.0421 516.657 20.3552C516.386 20.6683 516.164 21.0496 515.998 21.4915C515.828 21.9385 515.699 22.393 515.606 22.8526C515.518 23.3172 515.451 23.696 515.415 23.9939C515.38 24.0671 515.343 24.254 515.302 24.5494C515.267 24.8474 515.224 25.1782 515.169 25.5494C515.114 25.9206 515.056 26.2716 515.003 26.6049C514.95 26.9382 514.92 27.1428 514.92 27.216V27.9937V29.4911C514.92 30.0492 514.91 30.5971 514.89 31.1325C514.87 31.6678 514.865 32.087 514.865 32.3799V32.8268C514.865 32.8975 514.87 32.9556 514.89 32.991C514.91 33.0314 514.92 33.0844 514.92 33.1576V33.3798C514.961 33.7485 515.021 34.4 515.114 35.3242C515.204 36.2509 515.302 37.2231 515.415 38.2432C515.528 39.2608 515.616 40.2305 515.694 41.1572C515.765 42.0915 515.82 42.7405 515.858 43.1066Z" fill="#2BB673"/>
<path d="M567.2 51.2196C567.052 51.2196 566.878 51.2727 566.675 51.3813C566.471 51.4949 566.27 51.6136 566.067 51.7474C565.866 51.8787 565.69 52.0075 565.541 52.1363C565.393 52.265 565.303 52.3484 565.267 52.3837C564.747 52.6463 564.179 52.7928 563.551 52.8307C562.925 52.8686 562.337 52.8862 561.782 52.8862C560.492 52.9216 559.288 52.6261 558.16 51.9949C557.039 51.3686 556.034 50.5328 555.149 49.4925C554.267 48.4572 553.536 47.3032 552.965 46.0204C552.392 44.7452 552.015 43.4953 551.832 42.2731C551.611 40.8313 551.49 39.3616 551.472 37.8592C551.45 36.3593 551.425 34.8644 551.39 33.3872C551.319 31.4984 551.445 29.4808 551.774 27.3319C552.108 25.183 552.661 23.2387 553.433 21.4964C553.767 20.759 554.209 19.9712 554.76 19.1379C555.318 18.3046 555.951 17.5168 556.672 16.7769C557.386 16.037 558.15 15.3805 558.964 14.8048C559.774 14.2341 560.585 13.8326 561.395 13.6104C561.545 13.6104 561.839 13.5927 562.282 13.5548C562.724 13.5169 563.018 13.4993 563.169 13.4993C564.75 13.4639 566.044 13.6028 567.042 13.9184C568.034 14.2341 568.798 14.7416 569.334 15.4436C569.869 16.1456 570.226 17.0547 570.409 18.1657C570.595 19.2793 570.708 20.6302 570.744 22.2236V22.7513C570.744 22.9912 570.754 23.2488 570.771 23.5266C570.791 23.8068 570.804 24.072 570.804 24.3346V24.8876C570.761 25.183 570.726 25.5063 570.688 25.8598C570.651 26.2133 570.588 26.539 570.5 26.8345C570.402 27.1299 570.266 27.3875 570.083 27.6072C569.897 27.8319 569.638 27.943 569.306 27.943C568.57 27.9077 567.889 27.8142 567.26 27.6652C566.745 27.5541 566.265 27.4153 565.825 27.2486C565.38 27.0794 565.164 26.8522 565.164 26.5517L565.099 22.4988C565.099 21.9812 564.868 21.5368 564.413 21.1681C563.948 20.7969 563.48 20.61 562.998 20.61C561.814 20.6504 560.834 21.1782 560.037 22.1933C559.248 23.2134 558.612 24.4255 558.132 25.832C557.652 27.2385 557.308 28.6829 557.107 30.1651C556.906 31.6448 556.803 32.8872 556.803 33.8872C556.843 34.7785 556.961 35.877 557.165 37.1926C557.368 38.5081 557.7 39.7732 558.16 40.9979C558.625 42.2226 559.231 43.2604 559.987 44.1114C560.744 44.9599 561.711 45.3866 562.89 45.3866C563.553 45.3512 564.089 45.1114 564.493 44.6669C564.898 44.22 565.064 43.667 564.991 43.0004C564.991 42.9599 564.981 42.8665 564.963 42.7201C564.943 42.5711 564.926 42.417 564.908 42.2504C564.89 42.0837 564.853 41.9347 564.797 41.8034C564.745 41.6747 564.677 41.609 564.604 41.609L562.01 41.662C561.897 41.662 561.777 41.5989 561.646 41.4726C561.513 41.3413 561.395 41.1848 561.286 40.9979C561.178 40.8161 561.08 40.6394 561.01 40.4702C560.937 40.3035 560.899 40.1646 560.899 40.0561L560.844 36.4401C560.844 36.0714 560.99 35.7684 561.289 35.5285C561.583 35.2861 561.897 35.1649 562.231 35.1649H562.448C562.634 35.2028 562.958 35.2785 563.418 35.3846C563.88 35.4982 564.164 35.5739 564.275 35.6068L571.407 35.3846C571.48 35.3846 571.581 35.4906 571.711 35.6926C571.842 35.8972 571.942 36.0562 572.015 36.1648C572.055 36.2052 572.078 36.2381 572.098 36.2785C572.116 36.3163 572.146 36.3517 572.181 36.387C572.219 36.4603 572.254 36.5209 572.289 36.5537C572.289 36.6623 572.274 36.8895 572.236 37.2203C572.196 37.5562 572.164 37.7784 572.126 37.8895L572.402 52.5554C572.402 52.8534 572.299 53.0832 572.098 53.2524C571.895 53.4165 571.701 53.4973 571.518 53.4973C571.002 53.5377 570.457 53.4822 569.887 53.3357C569.316 53.1842 568.831 52.9645 568.424 52.6691C568.165 52.5201 567.982 52.2398 567.874 51.8358C567.75 51.4217 567.532 51.2196 567.2 51.2196Z" fill="#2BB673"/>
<path d="M582.287 49.7752C582.026 47.702 581.956 45.5734 582.066 43.3866C582.177 41.2024 582.194 39.0535 582.119 36.9425C582.046 34.94 581.935 32.9906 581.787 31.0817C581.639 29.1752 581.584 27.2207 581.621 25.2208C581.621 23.0745 581.631 21.0746 581.651 19.2211C581.669 17.3702 581.531 15.4082 581.237 13.3325C581.31 12.7416 581.614 12.2871 582.147 11.9715C582.682 11.6584 583.207 11.4639 583.722 11.3882C584.313 11.3149 584.966 11.3149 585.685 11.3882C586.404 11.4639 587.002 11.7417 587.482 12.2215C587.482 12.2947 587.492 12.4437 587.512 12.6659C587.53 12.8906 587.54 13.0371 587.54 13.1103C587.686 14.4082 587.668 15.8172 587.485 17.3323C587.301 18.8525 587.243 20.2413 587.321 21.4988C587.321 21.6478 587.349 22.2134 587.404 23.1957C587.457 24.1754 587.522 25.2966 587.595 26.5541C587.668 27.8167 587.743 29.0843 587.819 30.362C587.889 31.6372 587.947 32.6472 587.982 33.3871C588.093 35.1623 588.156 36.8945 588.176 38.5813C588.193 40.2681 588.296 41.9801 588.48 43.7224C588.59 44.4244 588.895 44.8285 589.392 44.9421C589.887 45.0507 590.433 45.1012 591.021 45.0835C591.609 45.0608 592.154 45.0734 592.652 45.1087C593.147 45.1466 593.436 45.4623 593.509 46.0531C593.509 47.2425 593.481 48.1945 593.426 48.9141C593.373 49.6363 593.288 50.2954 593.177 50.8862C593.066 51.4771 592.88 51.7751 592.622 51.7751C592.584 51.818 592.521 51.8306 592.431 51.8306H592.237C590.835 51.7599 589.397 51.6892 587.924 51.6362C586.449 51.5832 584.974 51.4771 583.499 51.3307C583.021 51.2978 582.715 51.1589 582.589 50.9165C582.461 50.6716 582.36 50.2928 582.287 49.7752Z" fill="#2BB673"/>
<path d="M603.013 43.498C602.976 43.3516 602.95 43.147 602.933 42.8869C602.913 42.6294 602.895 42.3693 602.878 42.1092C602.86 41.8491 602.84 41.6193 602.825 41.4173C602.805 41.2102 602.795 41.0714 602.795 40.9981C602.757 40.2987 602.722 39.377 602.684 38.2508C602.646 37.1221 602.611 35.9984 602.574 34.8873C602.536 33.7813 602.501 32.7965 602.465 31.943C602.425 31.0895 602.41 30.6123 602.41 30.4987C602.41 29.3901 602.438 28.1781 602.491 26.8599C602.546 25.5494 602.666 24.2161 602.852 22.8601C603.036 21.5092 603.34 20.1961 603.765 18.9184C604.187 17.6407 604.75 16.5019 605.451 15.5019C606.15 14.502 607.044 13.6889 608.13 13.0576C609.218 12.4288 610.535 12.0576 612.083 11.9465H613.189C614.22 12.0955 615.215 12.3278 616.175 12.6435C617.135 12.9566 618.002 13.3833 618.774 13.9187C619.548 14.4565 620.219 15.0928 620.792 15.8327C621.365 16.5776 621.794 17.4665 622.093 18.5018C622.129 18.6482 622.174 19.0093 622.232 19.5876C622.284 20.1583 622.315 20.5395 622.315 20.7239C622.315 21.0218 622.322 21.4562 622.342 22.0268C622.362 22.6051 622.37 22.9283 622.37 23.0015C622.37 23.3727 622.38 24.1783 622.4 25.4181C622.418 26.6579 622.445 28.0114 622.48 29.476C622.518 30.938 622.543 32.3647 622.563 33.7485C622.584 35.1398 622.591 36.165 622.591 36.8342C622.591 37.7584 622.601 38.8265 622.621 40.0285C622.639 41.233 622.601 42.4854 622.511 43.7783C622.418 45.0737 622.249 46.3514 622.013 47.614C621.772 48.8715 621.377 50.0027 620.824 51.0027C620.271 52.0026 619.55 52.8284 618.668 53.4748C617.781 54.1187 616.657 54.4773 615.295 54.5581C614.114 54.6288 613.001 54.5581 611.95 54.3308C610.9 54.1086 609.819 53.8132 608.716 53.4445C607.61 53.1112 606.705 52.5935 606.007 51.8915C605.308 51.1845 604.742 50.3689 604.32 49.4447C603.895 48.5205 603.581 47.5382 603.38 46.5004C603.169 45.4626 603.048 44.4576 603.013 43.498ZM610.367 43.1066C610.44 43.8894 610.671 44.5813 611.056 45.1924C611.443 45.7984 612.078 46.0711 612.966 45.9979C613.554 45.955 613.996 45.7833 614.29 45.4701C614.584 45.1545 614.795 44.7631 614.926 44.301C615.057 43.8339 615.132 43.349 615.147 42.8314C615.167 42.3112 615.195 41.8289 615.23 41.3845V40.9098C615.23 40.6673 615.24 40.4148 615.258 40.1295C615.278 39.8543 615.288 39.5967 615.288 39.3568V38.9376C615.398 37.0488 615.451 35.3141 615.451 33.7409C615.451 32.1678 615.398 30.4355 615.288 28.5493C615.288 28.327 615.268 27.9659 615.232 27.466C615.195 26.966 615.16 26.4281 615.122 25.8549C615.084 25.2792 615.049 24.7439 615.011 24.2439C614.974 23.7439 614.959 23.3803 614.959 23.1606C614.883 22.9384 614.745 22.6329 614.544 22.2415C614.34 21.8551 614.119 21.4839 613.878 21.133C613.637 20.782 613.363 20.4764 613.049 20.2163C612.737 19.9588 612.433 19.8275 612.139 19.8275C611.769 19.8653 611.448 20.0421 611.169 20.3552C610.895 20.6683 610.674 21.0496 610.505 21.4915C610.339 21.9385 610.209 22.393 610.118 22.8526C610.028 23.3172 609.96 23.696 609.925 23.9939C609.887 24.0671 609.852 24.254 609.814 24.5494C609.776 24.8474 609.734 25.1782 609.676 25.5494C609.623 25.9206 609.565 26.2716 609.512 26.6049C609.457 26.9382 609.43 27.1428 609.43 27.216V27.9937V29.4911C609.43 30.0492 609.419 30.5971 609.399 31.1325C609.382 31.6703 609.374 32.087 609.374 32.3799V32.8268C609.374 32.8975 609.382 32.9556 609.399 32.991C609.419 33.0314 609.43 33.0844 609.43 33.1576V33.3798C609.467 33.7485 609.53 34.4 609.623 35.3242C609.713 36.2509 609.814 37.2231 609.925 38.2432C610.038 39.2608 610.128 40.2305 610.201 41.1572C610.274 42.0839 610.332 42.7405 610.367 43.1066Z" fill="#2BB673"/>
<path d="M639.11 41.4954C638.997 40.6091 638.944 39.5914 638.944 38.4425C638.944 37.2936 639.017 36.1093 639.165 34.8871C639.314 33.6675 639.532 32.4807 639.829 31.3317C640.125 30.1828 640.53 29.1854 641.045 28.3319C641.633 27.4052 642.355 26.5087 643.202 25.6376C644.049 24.7664 644.878 23.9432 645.687 23.1655C646.242 22.3145 646.464 21.4231 646.353 20.4989C646.278 19.7212 646.001 19.1202 645.524 18.6935C645.044 18.2667 644.325 18.0925 643.367 18.1657C641.819 18.35 640.593 18.898 639.691 19.8045C638.788 20.7136 638.426 21.812 638.612 23.1099C638.685 23.7765 638.796 24.4609 638.944 25.1654C639.093 25.8699 639.206 26.5921 639.276 27.3319C639.314 27.592 639.228 27.9127 639.027 28.3041C638.824 28.693 638.575 29.0818 638.281 29.4732C637.984 29.8596 637.663 30.1929 637.311 30.4732C636.959 30.7484 636.657 30.8873 636.401 30.8873H636.124C635.976 30.9277 635.672 30.9378 635.212 30.9176C634.752 30.8974 634.446 30.8873 634.302 30.8873C633.269 30.0338 632.568 28.9909 632.201 27.7486C631.832 26.5087 631.555 25.2941 631.372 24.1124C631.297 23.4811 631.297 22.8776 631.372 22.3069C631.445 21.7287 631.573 21.1277 631.756 20.4989C632.422 17.6859 633.709 15.5093 635.627 13.9715C637.544 12.4337 640.306 11.5196 643.918 11.2216C645.323 11.1105 646.584 11.2494 647.71 11.6383C648.834 12.0271 649.791 12.5751 650.585 13.2745C651.377 13.9816 652.023 14.8149 652.523 15.7769C653.018 16.7415 653.322 17.739 653.433 18.7743C653.543 19.5192 653.574 20.2767 653.516 21.0545C653.463 21.8322 653.312 22.5923 653.073 23.3321C652.832 24.072 652.465 24.7664 651.968 25.4154C651.472 26.0643 650.817 26.6299 650.007 27.1097C649.49 27.443 648.901 27.8041 648.238 28.193C647.572 28.5819 647.057 29.0364 646.69 29.554C646.212 30.2964 645.861 31.1625 645.639 32.1625C645.418 33.1625 645.277 34.1927 645.225 35.2482C645.169 36.3037 645.159 37.3415 645.197 38.3566C645.232 39.3743 645.27 40.2959 645.308 41.109C645.343 41.8085 645.38 42.4069 645.418 42.8842C645.456 43.364 645.381 43.7579 645.197 44.0533C645.011 44.3488 644.672 44.5912 644.174 44.773C643.677 44.9573 642.948 45.0886 641.99 45.1619C641.362 45.2376 640.867 45.1518 640.497 44.9093C640.128 44.6669 639.851 44.3614 639.668 43.9953C639.482 43.6241 639.354 43.2175 639.281 42.7756C639.203 42.3287 639.145 41.9044 639.11 41.4954ZM638.944 51.9393C638.871 51.4621 638.871 50.9469 638.944 50.4141C639.017 49.8813 639.175 49.3864 639.417 48.942C639.655 48.4976 640.005 48.1289 640.462 47.8335C640.927 47.538 641.525 47.3537 642.264 47.2754C642.742 47.24 643.232 47.3107 643.729 47.4976C644.224 47.6819 644.677 47.9218 645.084 48.2173C645.489 48.5178 645.82 48.8586 646.079 49.25C646.338 49.6364 646.504 50.0177 646.577 50.3864C646.614 50.8333 646.557 51.2828 646.411 51.7474C646.263 52.2095 646.026 52.6261 645.692 52.9948C645.36 53.3635 644.966 53.6791 644.503 53.9417C644.041 54.2018 643.536 54.3458 642.985 54.3862C642.025 54.4594 641.141 54.2725 640.329 53.8281C639.517 53.3862 639.055 52.7549 638.944 51.9393Z" fill="#2BB673"/>
</svg>
