<svg width="317" height="44" viewBox="0 0 317 44" fill="none" xmlns="http://www.w3.org/2000/svg">
<path d="M96.5371 3.60352C93.7129 3.60352 91.4805 4.54688 89.8398 6.43359C88.2109 8.30859 87.3965 10.8809 87.3965 14.1504C87.3965 17.5137 88.1816 20.1152 89.752 21.9551C91.334 23.7832 93.584 24.6973 96.502 24.6973C98.2949 24.6973 100.34 24.375 102.637 23.7305V26.3496C100.855 27.0176 98.6582 27.3516 96.0449 27.3516C92.2598 27.3516 89.3359 26.2031 87.2734 23.9062C85.2227 21.6094 84.1973 18.3457 84.1973 14.1152C84.1973 11.4668 84.6895 9.14648 85.6738 7.1543C86.6699 5.16211 88.0996 3.62695 89.9629 2.54883C91.8379 1.4707 94.041 0.931641 96.5723 0.931641C99.2676 0.931641 101.623 1.42383 103.639 2.4082L102.373 4.97461C100.428 4.06055 98.4824 3.60352 96.5371 3.60352ZM127.998 27L124.799 18.8262H114.498L111.334 27H108.311L118.471 1.19531H120.985L131.092 27H127.998ZM123.868 16.1367L120.879 8.17383C120.493 7.16602 120.094 5.92969 119.684 4.46484C119.426 5.58984 119.057 6.82617 118.577 8.17383L115.553 16.1367H123.868ZM149.598 27L140.88 4.21875H140.739C140.903 6.02344 140.985 8.16797 140.985 10.6523V27H138.225V1.30078H142.725L150.864 22.5H151.005L159.214 1.30078H163.679V27H160.69V10.4414C160.69 8.54297 160.772 6.48047 160.936 4.25391H160.796L152.007 27H149.598ZM190.499 27L187.3 18.8262H176.999L173.835 27H170.812L180.972 1.19531H183.486L193.593 27H190.499ZM186.368 16.1367L183.38 8.17383C182.993 7.16602 182.595 5.92969 182.185 4.46484C181.927 5.58984 181.558 6.82617 181.077 8.17383L178.054 16.1367H186.368Z" fill="#2BB673"/>
<path d="M2 42L315 42" stroke="#231F20" stroke-width="3" stroke-linecap="round" stroke-linejoin="round" stroke-dasharray="6 6"/>
</svg>
