<svg width="97" height="167" viewBox="0 0 97 167" fill="none" xmlns="http://www.w3.org/2000/svg">
<path fill-rule="evenodd" clip-rule="evenodd" d="M13.6739 156.595C13.6739 156.595 7.8397 157.835 5.26572 158.219C2.69174 158.602 1.05117 159.539 0.351492 161.178C-0.352682 162.817 -0.232823 163.756 2.92697 164.338C6.08526 164.923 13.9316 165.863 15.9212 165.16C17.9109 164.455 19.6848 158.953 19.6848 158.953L13.6739 156.595Z" fill="black"/>
<path fill-rule="evenodd" clip-rule="evenodd" d="M72.1681 152.487C72.1681 152.487 72.0018 155.077 70.5321 156.592C69.0563 158.111 67.8112 158.304 66.9543 159.904C65.9699 161.743 66.1677 164.107 71.882 163.115C77.397 162.161 78.4053 159.038 79.8541 157.064C82.1569 153.92 82.5779 152.277 80.2347 150.104C77.8854 147.93 75.8223 147.823 75.8223 147.823L72.1681 152.487Z" fill="black"/>
<path fill-rule="evenodd" clip-rule="evenodd" d="M31.9047 49.2336L22.4253 114.472L31.1795 115.086L50.0454 50.5566L31.9047 49.2336Z" fill="white"/>
<path fill-rule="evenodd" clip-rule="evenodd" d="M23.3375 108.197C23.3375 108.197 16.531 140.95 14.4005 147.12C12.273 153.291 11.8984 156.595 11.8984 156.595C11.8984 156.595 18.0742 158.821 19.3252 159.035C20.5703 159.247 26.0119 149.671 30.0991 142.014C34.1848 134.356 39.8287 123.552 40.8939 125.042C41.9577 126.531 50.3553 138.821 56.101 143.93C61.8453 149.036 72.1667 152.773 72.1667 152.773C72.1667 152.773 76.3603 148.545 75.8284 147.163C75.1107 145.296 63.3316 139.034 61.8453 133.928C60.3561 128.822 58.8428 108.384 58.8428 108.384L23.3375 108.197Z" fill="#389789"/>
<path fill-rule="evenodd" clip-rule="evenodd" d="M35.3356 56.259L24.8794 86.537L29.3262 97.7363C29.3262 97.7363 35.8525 90.2272 35.9064 89.7267C35.9604 89.2263 37.4841 56.6546 37.4841 56.6546L35.3356 56.259Z" fill="#FF8000"/>
<path fill-rule="evenodd" clip-rule="evenodd" d="M37.3629 51.0211C38.9345 51.5395 39.9533 52.1508 39.4934 53.9876C39.0364 55.8514 37.27 58.2366 35.6968 57.7092C34.1222 57.1819 33.8255 53.7119 34.293 51.8721C34.7559 50.0233 35.7882 50.5117 37.3629 51.0211Z" fill="#FF8000"/>
<path fill-rule="evenodd" clip-rule="evenodd" d="M51.6575 52.5464C51.6575 52.5464 58.9704 55.6567 70.4379 81.6692C73.7071 89.075 75.1784 100.91 75.1784 100.91L65.666 102.248C65.666 102.248 63.3288 91.1546 60.2933 82.4812C57.2579 73.8049 55.0135 66.8321 55.0135 66.8321L51.6575 52.5464Z" fill="#1F5C56"/>
<path fill-rule="evenodd" clip-rule="evenodd" d="M33.5527 49.2681L33.3504 49.2336C33.3504 49.2336 29.6138 58.6935 25.6405 75.324C21.0543 94.5315 18.9778 117.538 18.9778 117.538C18.9778 117.538 20.6633 118.969 24.2696 119.754L33.5527 49.2681Z" fill="#1F5C56"/>
<path fill-rule="evenodd" clip-rule="evenodd" d="M52.483 53.3718C51.0147 51.8766 44.3595 54.3082 44.3595 54.3082L34.5715 72.8834L29.3262 121.623C33.5827 122.27 39.2625 122.916 44.6502 122.845C55.1169 122.698 62.1182 121.572 62.1182 121.572C62.1182 121.572 59.1487 60.1604 52.483 53.3718Z" fill="#1F5C56"/>
<path fill-rule="evenodd" clip-rule="evenodd" d="M34.3542 73.8498C34.3542 73.8498 36.5552 63.3891 40.1255 58.1213C43.6898 52.8504 47.3395 50.5566 47.3395 50.5566C47.3395 50.5566 55.0135 52.371 55.2412 53.9711C55.3476 54.6963 44.6472 58.1213 44.6472 58.1213L50.8214 63.3831L34.3542 73.8498Z" fill="#389789"/>
<path fill-rule="evenodd" clip-rule="evenodd" d="M30.0153 72.383L27.3904 56.3968L31.121 56.3653C31.121 56.3653 26.463 50.5566 29.2602 49.7026C30.8094 49.2292 33.5526 51.4151 33.5526 51.4151L30.0153 72.383Z" fill="#389789"/>
<path fill-rule="evenodd" clip-rule="evenodd" d="M55.0119 3.86555C52.1173 3.08496 45.7393 3.50597 41.4693 5.40274C37.1948 7.30101 31.8371 11.535 29.3575 11.535C26.8794 11.535 19.8092 10.3694 18.8204 11.535C17.8285 12.7007 19.2893 16.7879 21.3314 18.2472C23.3735 19.7065 25.8576 20.8736 24.3983 22.3329C22.936 23.7937 20.6512 40.8646 22.5495 43.9315C24.4493 46.9954 31.0655 52.1044 37.6757 51.9546C44.286 51.8108 50.6071 53.0543 55.0134 50.3919C59.4197 47.7266 62.1166 44.5158 62.1166 44.5158C62.1166 44.5158 64.677 46.8516 67.0113 44.369C69.3471 41.8879 65.6974 38.8225 65.6974 38.8225C65.6974 38.8225 69.4879 34.154 71.097 29.1918C72.7031 24.2281 70.0527 16.8223 67.717 12.7921C65.3797 8.7648 58.6871 4.85588 55.0119 3.86555Z" fill="#DDCB9F"/>
<path fill-rule="evenodd" clip-rule="evenodd" d="M21.6341 24.5188C21.6341 24.5188 16.8907 24.8484 17.9155 25.8672C18.9373 26.8905 21.363 27.0359 21.363 27.0359C21.363 27.0359 18.5358 30.5372 21.363 30.1028C24.1901 29.6623 25.1295 27.9813 25.1295 27.9813C25.1295 27.9813 23.6253 32.9854 25.9626 32.1089C28.2968 31.2324 29.7681 29.9215 29.6887 30.5058C29.6093 31.0886 27.8473 35.7481 31.2304 34.2034C33.6995 33.0768 33.3459 29.4765 33.3459 29.4765C33.3459 29.4765 33.4013 27.1467 31.0686 26.9999C28.7313 26.8561 29.0265 25.9796 26.836 24.9593C24.6471 23.939 21.6341 24.5188 21.6341 24.5188Z" fill="#6D614C"/>
<path fill-rule="evenodd" clip-rule="evenodd" d="M45.1775 13.213C47.768 14.2708 48.3328 16.6245 47.2046 19.3828C46.0735 22.15 43.7377 23.5643 41.1413 22.5006C38.5568 21.4473 37.4915 18.6381 38.6242 15.8724C39.7509 13.1141 42.5916 12.1537 45.1775 13.213Z" fill="white"/>
<path fill-rule="evenodd" clip-rule="evenodd" d="M42.3173 14.3905C42.8641 14.6108 42.9825 15.0767 42.7637 15.6131C42.5405 16.1554 42.0746 16.4266 41.5307 16.2064C40.9853 15.9832 40.7546 15.4228 40.9778 14.8819C41.1966 14.3441 41.7794 14.1688 42.3173 14.3905Z" fill="black"/>
<path fill-rule="evenodd" clip-rule="evenodd" d="M64.9124 22.8572C64.9124 22.8572 60.4746 26.5159 62.1152 28.4187C63.7587 30.3214 66.2968 27.9812 66.2968 27.9812C66.2968 27.9812 60.7023 37.9355 64.0239 37.2433C67.3425 36.5526 69.9929 31.941 69.9929 31.941C69.9929 31.941 66.9994 38.4659 69.9929 37.2792C72.9864 36.0926 73.6831 31.7073 73.6831 31.7073C73.6831 31.7073 76.9073 37.8021 76.6796 33.4872C76.4503 29.1678 73.2171 23.3546 73.2171 23.3546C73.2171 23.3546 70.9907 23.0789 69.2198 23.3546C67.4489 23.6303 64.9124 22.8572 64.9124 22.8572Z" fill="#6D614C"/>
<path d="M28.7419 38.9917C28.8573 36.3893 24.1274 34.3771 22.5542 36.6545" stroke="black" stroke-width="0.5" stroke-linecap="round"/>
<path fill-rule="evenodd" clip-rule="evenodd" d="M41.2896 103.143C42.6994 103.045 45.5236 103.626 48.6025 103.549C51.6784 103.467 55.0135 103.316 55.0135 103.316V107.547C55.0135 107.547 52.6897 107.761 48.5366 107.878C44.3805 107.992 40.894 107.337 40.894 107.337L41.2896 103.143Z" fill="#389789"/>
<path fill-rule="evenodd" clip-rule="evenodd" d="M49.2408 142.581L44.4629 140.249C44.4629 140.249 44.2772 117.026 44.4629 115.782C44.6487 114.536 44.5723 113.456 47.9553 112.636C51.3384 111.82 82.7969 107.626 86.5231 107.509C90.2492 107.392 92.5805 108.556 93.9798 109.025C95.3792 109.491 95.7762 110.936 95.7762 110.936L49.2408 142.581Z" fill="#6A2403"/>
<path fill-rule="evenodd" clip-rule="evenodd" d="M49.5914 115.549C58.6543 113.708 66.2683 113.108 70.3301 112.521C76.6242 111.606 94.3289 109.724 95.493 110.54C96.6602 111.354 96.4234 119.161 96.1927 123.822C95.9605 128.483 96.1957 133.959 95.8451 134.776C95.4945 135.592 96.8924 136.754 91.8823 137.919C86.8721 139.086 56.4653 142.672 52.2703 142.58C49.2243 142.516 48.8932 142.23 48.8932 140.716C48.8932 139.2 47.9553 119.223 47.9553 117.763C47.9553 115.783 49.5914 115.549 49.5914 115.549Z" fill="#9B3403"/>
<path fill-rule="evenodd" clip-rule="evenodd" d="M63.417 111.306C63.417 111.306 63.4005 105.611 66.5004 105.512C69.6017 105.413 74.1684 104.081 75.8764 106.744C77.5859 109.403 77.3956 110.336 77.3956 110.336H75.8764C75.8764 110.336 75.1183 107.691 72.1697 107.5C69.2212 107.313 67.0472 106.705 66.5004 108.384C65.9535 110.064 65.6089 111.304 65.6089 111.304H63.417V111.306Z" fill="black"/>
<path d="M73.2456 101.178C73.2456 101.178 74.7678 108.66 73.8209 109.643C72.8201 110.678 71.5406 110.112 71.5511 109.303C71.5526 109.25 70.333 110.825 69.2109 110.157C68.1681 109.543 68.4932 109.08 68.1846 109.316C67.8445 109.583 66.6938 110.852 65.9507 110.062C65.2315 109.295 65.9237 104.904 65.9237 104.904C65.9237 104.904 62.1976 106.566 62.1167 104.708C62.0388 102.844 65.7724 102.243 67.2227 101.68C68.6325 101.133 73.2456 101.178 73.2456 101.178Z" fill="#DDCB9F"/>
<path d="M4.96911 0.521388L4.68594 0.232227L4.39828 0.139336C4.3833 0.0389543 4.50166 0.0584314 4.53012 0" fill="#389789"/>
<path d="M14.044 165.213L14.053 165.043L13.7129 165.108C13.8597 165.236 13.9241 165.204 14.023 165.154" fill="#389789"/>
<path d="M13.5661 165.505C13.6965 165.719 13.5032 165.763 13.3159 165.722L13.5436 165.532" fill="#389789"/>
<path d="M13.588 166.779C13.5173 166.683 13.5564 166.647 13.427 166.564C13.3653 166.641 13.4586 166.667 13.4631 166.673" fill="#389789"/>
<path d="M12.9937 166.149C12.8708 166.119 12.8064 166.128 12.8079 166.29L12.9847 166.392L13.0161 166.122" fill="#389789"/>
</svg>
