<svg width="436" height="112" viewBox="0 0 436 112" fill="none" xmlns="http://www.w3.org/2000/svg">
<path d="M2 110H434" stroke="#231F20" stroke-width="3" stroke-linecap="round" stroke-linejoin="round" stroke-dasharray="6 6"/>
<path d="M145 32H190" stroke="#231F20" stroke-width="3" stroke-linecap="round" stroke-linejoin="round" stroke-dasharray="6 6"/>
<path d="M219.035 11.2627C219.035 14.6611 218.186 17.3516 216.486 19.334C214.787 21.3066 212.443 22.293 209.455 22.293C206.477 22.293 204.138 21.3066 202.438 19.334C200.739 17.3516 199.89 14.6514 199.89 11.2334C199.89 7.8252 200.744 5.14453 202.453 3.19141C204.172 1.22852 206.516 0.24707 209.484 0.24707C212.473 0.24707 214.812 1.2334 216.501 3.20605C218.19 5.16895 219.035 7.85449 219.035 11.2627ZM201.516 11.2627C201.516 14.3291 202.199 16.7021 203.566 18.3818C204.934 20.0518 206.896 20.8867 209.455 20.8867C212.033 20.8867 214.001 20.0566 215.358 18.3965C216.726 16.7363 217.409 14.3584 217.409 11.2627C217.409 8.17676 216.726 5.81348 215.358 4.17285C214.001 2.52246 212.043 1.69727 209.484 1.69727C206.936 1.69727 204.968 2.52734 203.581 4.1875C202.204 5.84766 201.516 8.20605 201.516 11.2627ZM235.793 16.4775C235.793 18.2646 235.134 19.6807 233.815 20.7256C232.507 21.7705 230.764 22.293 228.586 22.293C225.969 22.293 223.962 22.0049 222.565 21.4287V19.9346C224.108 20.5889 226.076 20.916 228.469 20.916C230.227 20.916 231.618 20.5156 232.644 19.7148C233.679 18.9043 234.196 17.8447 234.196 16.5361C234.196 15.7256 234.025 15.0566 233.684 14.5293C233.342 13.9922 232.785 13.5039 232.014 13.0645C231.242 12.625 230.109 12.1514 228.615 11.6436C226.428 10.8916 224.914 10.0811 224.074 9.21191C223.244 8.33301 222.829 7.16602 222.829 5.71094C222.829 4.10938 223.454 2.80566 224.704 1.7998C225.964 0.78418 227.58 0.276367 229.553 0.276367C231.564 0.276367 233.454 0.657227 235.222 1.41895L234.68 2.70801C232.902 1.96582 231.203 1.59473 229.582 1.59473C228 1.59473 226.74 1.96094 225.803 2.69336C224.865 3.42578 224.396 4.42188 224.396 5.68164C224.396 6.47266 224.538 7.12207 224.821 7.62988C225.114 8.1377 225.588 8.59668 226.242 9.00684C226.896 9.40723 228.02 9.89062 229.611 10.457C231.281 11.0332 232.536 11.5947 233.376 12.1416C234.216 12.6787 234.826 13.2939 235.207 13.9873C235.598 14.6709 235.793 15.501 235.793 16.4775ZM249.46 1.62402C246.774 1.62402 244.66 2.4834 243.117 4.20215C241.574 5.9209 240.803 8.27441 240.803 11.2627C240.803 14.3193 241.53 16.6924 242.985 18.3818C244.44 20.0713 246.521 20.916 249.226 20.916C251.022 20.916 252.673 20.6865 254.177 20.2275V21.5459C252.761 22.0439 250.993 22.293 248.874 22.293C245.866 22.293 243.498 21.3213 241.77 19.3779C240.041 17.4346 239.177 14.7197 239.177 11.2334C239.177 9.05566 239.587 7.13672 240.407 5.47656C241.237 3.81641 242.424 2.53711 243.967 1.63867C245.52 0.730469 247.321 0.276367 249.372 0.276367C251.462 0.276367 253.332 0.666992 254.982 1.44824L254.382 2.7959C252.819 2.01465 251.179 1.62402 249.46 1.62402ZM269.265 14.4414H260.563L257.575 22H255.92L264.533 0.496094H265.485L273.923 22H272.238L269.265 14.4414ZM261.105 13.0938H268.767L265.852 5.37402C265.607 4.76855 265.314 3.92871 264.973 2.85449C264.709 3.79199 264.421 4.6416 264.108 5.40332L261.105 13.0938Z" fill="black"/>
</svg>
