<svg width="717" height="529" viewBox="0 0 717 529" fill="none" xmlns="http://www.w3.org/2000/svg">
<rect x="20" y="298" width="206" height="173" rx="18" fill="#D2D1C2"/>
<rect x="250" y="298" width="206" height="173" rx="18" fill="#D2D1C2"/>
<rect x="480" y="298" width="206" height="173" rx="18" fill="#D2D1C2"/>
<path d="M29 527H218" stroke="#231F20" stroke-width="3" stroke-linecap="round" stroke-linejoin="round" stroke-dasharray="6 6"/>
<path d="M266 527H455" stroke="#231F20" stroke-width="3" stroke-linecap="round" stroke-linejoin="round" stroke-dasharray="6 6"/>
<path d="M491 527H680" stroke="#231F20" stroke-width="3" stroke-linecap="round" stroke-linejoin="round" stroke-dasharray="6 6"/>
<rect x="24" y="10" width="206" height="173" rx="18" fill="#D2D1C2"/>
<rect x="254" y="10" width="206" height="173" rx="18" fill="#D2D1C2"/>
<rect x="484" y="10" width="206" height="173" rx="18" fill="#D2D1C2"/>
<path d="M33 239H222" stroke="#231F20" stroke-width="3" stroke-linecap="round" stroke-linejoin="round" stroke-dasharray="6 6"/>
<path d="M270 239H459" stroke="#231F20" stroke-width="3" stroke-linecap="round" stroke-linejoin="round" stroke-dasharray="6 6"/>
<path d="M495 239H684" stroke="#231F20" stroke-width="3" stroke-linecap="round" stroke-linejoin="round" stroke-dasharray="6 6"/>
<mask id="mask0" mask-type="alpha" maskUnits="userSpaceOnUse" x="190" y="88" width="35" height="23">
<path d="M190.419 101.591C190.419 101.591 206.552 103.729 211.677 99.3839C216.806 95.0346 219.716 88.6814 219.716 88.6814L224.104 93.5663C224.104 93.5663 222.304 102.325 215.367 106.704C207.048 111.949 193.229 110.628 193.229 110.628L190.419 101.591Z" fill="#BC0003"/>
</mask>
<g mask="url(#mask0)">
<path d="M190.419 101.591C190.419 101.591 206.552 103.729 211.677 99.3839C216.806 95.0346 219.716 88.6814 219.716 88.6814L224.104 93.5663C224.104 93.5663 222.304 102.325 215.367 106.704C207.048 111.949 193.229 110.628 193.229 110.628L190.419 101.591Z" fill="#BC0003"/>
<path d="M222.148 101.821C222.148 101.821 219.927 101.783 216.67 97.843C213.411 93.9035 212.133 92.4822 212.133 92.4822L208.69 96.3662C208.69 96.3662 214.151 105.53 217.117 106.973C220.085 108.413 222.148 101.821 222.148 101.821Z" fill="#FF0000"/>
<path d="M209.496 111.478C209.496 111.478 207.425 110.656 205.761 105.831C204.096 100.997 203.395 99.2195 203.395 99.2195L198.809 101.648C198.809 101.648 200.7 112.148 202.974 114.536C205.248 116.922 209.496 111.478 209.496 111.478Z" fill="#FF0000"/>
</g>
<path d="M219.178 85.8324L223.522 93.7905C223.522 93.7905 216.147 93.5109 210.888 85.4397C206.968 79.4301 205.511 69.6133 210.174 60.5199C217.996 45.2845 237.597 52.1521 237.597 52.1521L230.493 56.9943L233.678 64.2225L227.033 66.6874L230.064 73.5379L222.304 75.593L225.322 83.6663L219.178 85.8324Z" fill="#FF0000"/>
<path d="M227.1 90.7901L218.021 91.0057C218.021 91.0057 221.949 97.2522 231.579 97.7644C238.753 98.1464 248.005 94.5099 253.551 85.9287C262.858 71.5512 247.101 58.0232 247.101 58.0232L246.453 66.5895L238.589 67.4474L239.771 74.428L232.321 75.2283L234.415 82.9644L225.905 84.3985L227.1 90.7901Z" fill="#FF0000"/>
<path d="M63.77 117.931C58.6111 119.784 53.9778 122.334 46.4211 129.415C40.5462 134.917 43.9356 138.107 49.975 134.394C55.4097 131.058 56.5701 128.873 62.9771 125.968C66.576 124.329 72.4701 123.837 72.4701 123.837L70.8267 116.771C70.8288 116.771 67.0013 116.771 63.77 117.931Z" fill="#BC0003"/>
<path d="M198.636 116.817C204.07 117.502 213.854 122.362 222.503 132.795C227.636 138.988 224.986 141.485 218.947 137.772C213.508 134.436 207.364 127.4 200.957 124.496C197.358 122.861 193.814 124.009 193.814 124.009L195.313 116.815C195.315 116.817 197.811 116.713 198.636 116.817Z" fill="#BC0003"/>
<path d="M193.113 127.448C193.113 127.448 198.501 129.281 202.621 133.278C207.867 138.372 213.591 148.332 211.52 150.92C209.453 153.511 204.29 145.096 200.55 140.963C196.81 136.829 189.112 133.528 189.112 133.528L193.113 127.448Z" fill="#BC0003"/>
<path d="M182.683 137.222C182.683 137.222 185.901 139.706 189.115 143.285C193.214 147.845 197.243 157.116 195.627 159.431C194.016 161.751 189.983 154.216 187.061 150.515C184.144 146.814 178.838 141.567 178.838 141.567L182.683 137.222Z" fill="#BC0003"/>
<path d="M72.376 127.448C72.376 127.448 66.9927 129.281 62.8745 133.278C57.6236 138.37 51.8962 148.332 53.9692 150.92C56.0379 153.511 61.2033 145.092 64.9432 140.963C68.6831 136.825 76.3766 133.528 76.3766 133.528L72.376 127.448Z" fill="#BC0003"/>
<path d="M82.8091 137.222C82.8091 137.222 79.5906 139.702 76.3743 143.285C72.2775 147.845 68.2448 157.116 69.8647 159.431C71.4761 161.751 75.5131 154.216 78.4302 150.515C81.3473 146.81 86.6537 141.567 86.6537 141.567L82.8091 137.222Z" fill="#BC0003"/>
<path d="M127.597 80.2709C152.797 79.4386 167.445 83.8754 185.3 95.7346C200.839 106.053 199.414 127.505 182.231 139.923C167.74 150.393 143.781 153.044 105.982 147.715C69.6065 142.593 66.6616 124.037 66.9608 113.247C67.26 102.453 73.2674 82.07 127.597 80.2709Z" fill="#FF0000"/>
<path d="M116.018 60.4005C116.018 70.0104 109.214 75.4737 99.5945 75.4737C89.9754 75.4737 83.1709 69.0159 83.1709 59.4061C83.1709 49.8026 90.9713 44 100.588 44C110.205 44.0021 116.018 50.7928 116.018 60.4005Z" fill="#FF0000"/>
<path d="M110.595 60.1827C110.595 66.617 106.037 70.2791 99.5978 70.2791C93.1524 70.2791 88.5918 65.9533 88.5918 59.5126C88.5918 53.0804 93.817 49.1985 100.262 49.1985C106.699 49.1985 110.595 53.7441 110.595 60.1827Z" fill="white"/>
<path d="M168.121 50.8931C173.526 46.6441 183.686 46.3902 190.873 52.769C197.284 58.4606 198.143 67.7183 192.313 74.4151C186.002 81.6625 177.065 82.8256 168.42 76.9718C160.462 71.5853 160.567 56.8451 168.121 50.8931Z" fill="#FF0000"/>
<path d="M172.24 55.6371C175.705 52.9098 182.471 52.4829 186.833 56.8408C191.194 61.1943 191.624 65.915 187.756 70.7231C183.89 75.5269 177.972 76.1202 172.429 72.3663C167.323 68.9091 167.389 59.455 172.24 55.6371Z" fill="white"/>
<path d="M100.635 77.0613L103.209 86.0608L112.65 83.4914C112.65 83.4914 110.475 78.1113 110.075 75.4736C109.673 72.8443 109.004 69.7798 109.004 69.7798L99.5947 71.0645L100.635 77.0613Z" fill="#FF0000"/>
<path d="M164.682 86.9273C164.682 86.9273 166.832 84.7868 169.189 80.7171C171.55 76.6452 172.619 74.2017 172.619 74.2017L179.603 77.9193C179.603 77.9193 177.957 83.103 175.942 86.0587C173.931 89.0166 172.619 92.7 172.619 92.7L164.682 86.9273Z" fill="#FF0000"/>
<mask id="mask1" mask-type="alpha" maskUnits="userSpaceOnUse" x="38" y="86" width="34" height="23">
<path d="M71.727 99.6335C71.727 99.6335 55.5641 101.535 50.5035 97.1067C45.4428 92.6828 42.6219 86.2869 42.6219 86.2869L38.166 91.1035C38.166 91.1035 39.8351 99.8917 46.7059 104.373C54.9422 109.745 68.7778 108.635 68.7778 108.635L71.727 99.6335Z" fill="#BC0003"/>
</mask>
<g mask="url(#mask1)">
<path d="M71.727 99.6335C71.727 99.6335 55.5641 101.535 50.5035 97.1067C45.4428 92.6828 42.6219 86.2869 42.6219 86.2869L38.166 91.1035C38.166 91.1035 39.8351 99.8917 46.7059 104.373C54.9422 109.745 68.7778 108.635 68.7778 108.635L71.727 99.6335Z" fill="#BC0003"/>
<path d="M39.9902 99.3922C39.9902 99.3922 42.215 99.3879 45.5296 95.4975C48.8442 91.607 50.1457 90.207 50.1457 90.207L53.533 94.1359C53.533 94.1359 47.9338 103.221 44.9462 104.616C41.9564 106.016 39.9902 99.3922 39.9902 99.3922Z" fill="#FF0000"/>
<path d="M52.5059 109.235C52.5059 109.235 54.5831 108.449 56.3163 103.646C58.0559 98.8395 58.7868 97.0725 58.7868 97.0725L63.3367 99.5694C63.3367 99.5694 61.2872 110.037 58.9748 112.391C56.6711 114.745 52.5059 109.235 52.5059 109.235Z" fill="#FF0000"/>
</g>
<path d="M40.7779 83.63L37.1513 91.9445C37.1513 91.9445 44.4794 91.0098 48.9993 82.5054C52.3631 76.1671 52.9487 66.2585 47.4948 57.6196C38.3459 43.1398 19.4326 51.721 19.4326 51.721L26.9424 55.9102L24.4078 63.3967L31.2443 65.2619L28.838 72.3535L36.7495 73.7108L34.4671 82.0209L40.7779 83.63Z" fill="#FF0000"/>
<path d="M32.5499 91.0609L41.4082 89.0719C41.4082 89.0719 39.113 96.0824 29.8978 98.908C23.0292 101.021 13.175 99.7275 5.70159 92.749C-6.81539 81.0563 5.18013 64.1179 5.18013 64.1179L7.8857 72.2744L15.731 71.1946L16.2802 78.2542L23.7066 77.2256L23.5528 85.2455L32.1546 84.5711L32.5499 91.0609Z" fill="#FF0000"/>
<path d="M102.14 62.1057C102.14 63.7809 100.928 64.4745 99.6202 64.4745C98.3102 64.4745 97.248 63.4139 97.248 62.1057C97.248 60.7953 98.3102 59.7368 99.6202 59.7368C100.928 59.7368 102.14 60.7953 102.14 62.1057Z" fill="black"/>
<path d="M182.05 64.4746C182.05 66.1498 180.837 66.8391 179.529 66.8391C178.219 66.8391 177.154 65.7785 177.154 64.4746C177.154 63.1642 178.219 62.1057 179.529 62.1057C180.834 62.1057 182.05 63.1642 182.05 64.4746Z" fill="black"/>
<mask id="mask2" mask-type="alpha" maskUnits="userSpaceOnUse" x="112" y="103" width="35" height="24">
<path d="M112.65 104.028C112.65 104.028 119.344 112.383 129.687 112.202C139.621 112.029 146.724 103.479 146.724 103.479C146.724 103.479 144.871 126.383 130.48 126.383C114.428 126.383 112.65 104.028 112.65 104.028Z" fill="white"/>
</mask>
<g mask="url(#mask2)">
<path d="M112.65 104.028C112.65 104.028 119.344 112.383 129.687 112.202C139.621 112.029 146.724 103.479 146.724 103.479C146.724 103.479 144.871 126.383 130.48 126.383C114.428 126.383 112.65 104.028 112.65 104.028Z" fill="white"/>
<path d="M118.621 107.861L118.012 122.496" stroke="black" stroke-width="0.8"/>
<path d="M137.378 110.001L139.479 123.6" stroke="black" stroke-width="0.8"/>
<path d="M128.01 111.886L127.593 126.878" stroke="black" stroke-width="0.8"/>
</g>
<path d="M417.418 135.106C416.87 126.548 422.105 125.26 423.449 122.802C424.789 120.348 425.482 118.241 426.408 117.695C429.544 115.83 435.395 118.571 437.243 127.471C441.263 146.845 418.14 146.331 417.418 135.106Z" fill="#6A2403"/>
<mask id="mask3" mask-type="alpha" maskUnits="userSpaceOnUse" x="324" y="97" width="100" height="64">
<path d="M347.858 103.672C347.858 103.672 384.269 90.2107 406.25 104.357C419.963 113.189 427.545 132.551 420.541 150.811C415.83 163.086 377.883 162.352 355.966 153.347C350.657 151.168 325.911 140.703 324.864 120.926C323.834 101.148 347.858 103.672 347.858 103.672Z" fill="white"/>
</mask>
<g mask="url(#mask3)">
<path d="M347.858 103.672C347.858 103.672 384.269 90.2107 406.25 104.357C419.963 113.189 427.545 132.551 420.541 150.811C415.83 163.086 377.883 162.352 355.966 153.347C350.657 151.168 325.911 140.703 324.864 120.926C323.834 101.148 347.858 103.672 347.858 103.672Z" fill="white"/>
<path d="M372.535 148.593C397.311 149.907 410.816 168.012 401.958 182.701C393.102 197.384 364.924 200.578 342.408 186.962C319.89 173.354 318.338 144.558 329.591 131.617C335.134 125.243 352.963 147.556 372.535 148.593Z" fill="#6A2403"/>
<path d="M367.196 88.7458C367.196 88.7458 351.651 90.8614 348.044 106.404C345.016 119.498 346.35 127.31 359.646 133.195C371.911 138.628 382.959 132.863 397.676 139.038C410.07 144.241 417.903 137.592 422.662 131.9C428.154 125.326 429.025 113.823 423.259 105.439C417.495 97.0551 409.291 94.88 398.116 90.0917C386.936 85.3012 367.196 88.7458 367.196 88.7458Z" fill="#6A2403"/>
</g>
<path d="M331.035 118.73C336.474 139.993 326.123 149.304 323.677 154.03C323.15 155.059 320.563 160.632 318.163 160.617C315.012 160.588 318.238 156.439 318.238 156.439C318.238 156.439 313.215 160.496 312.166 157.432C311.743 156.161 315.041 153.582 315.041 153.582C315.041 153.582 309.949 154.981 310.643 152.384C311.338 149.788 317.679 148.702 317.679 148.702C317.679 148.702 322.591 143.503 323.583 137.144C324.789 129.406 320.296 117.554 323.728 115.192C327.155 112.83 330.583 116.987 331.035 118.73Z" fill="#6A2403"/>
<path d="M344.181 128.655C340.487 147.473 333.836 156.771 331.389 161.495C330.863 162.524 328.282 168.095 325.878 168.082C322.727 168.053 325.95 163.909 325.95 163.909C325.95 163.909 320.924 167.961 319.883 164.902C319.454 163.63 322.756 161.047 322.756 161.047C322.756 161.047 317.659 162.446 318.352 159.847C319.055 157.256 325.394 156.165 325.394 156.165C325.394 156.165 329.219 150.632 331.294 144.619C333.844 137.211 334.947 128.538 337.308 125.109C339.748 121.567 344.529 126.891 344.181 128.655Z" fill="#9B3403"/>
<path d="M410.861 169.919C410.861 169.919 409.204 160.041 412.458 156.012C417.117 154.355 431.272 141.485 421.528 127.809C416.739 121.082 391.885 117.714 387.2 134.026C383.83 145.755 393.741 165.339 393.741 165.339C393.741 165.339 374.74 159.979 368.902 162.992C364.213 165.405 368.951 167.283 371.085 167.04C372.015 166.936 375.288 166.073 375.288 166.073C375.288 166.073 370.095 167.459 373.19 168.954C375.755 170.192 378.253 168.967 378.253 168.967C378.253 168.967 374.935 169.843 376.885 171.259C379.79 173.379 408.401 172.203 410.861 169.919Z" fill="#9B3403"/>
<path d="M296.222 97.0359C298.418 119.595 315.185 127.252 321.752 128.923C334.029 132.034 362.644 137.554 374.176 107.429C379.56 93.3575 373.777 72.2119 373.777 72.2119C373.777 72.2119 377.003 58.9931 378.657 44.2773C380.322 29.5531 381.197 18.7985 379.105 9.18785C377.02 -0.41853 366.531 14.4163 361.191 29.0874C355.852 43.7521 353.425 60.4389 353.425 60.4389C353.425 60.4389 348.664 58.4573 340.559 57.9682C333.073 57.5111 326.768 57.9342 326.768 57.9342C326.768 57.9342 328.174 33.3739 326.046 14.4078C324.323 -0.971355 318.039 -7.18 311.488 11.7372C299.663 45.8869 302.377 63.4667 302.377 63.4667C302.377 63.4667 294.602 80.4426 296.222 97.0359Z" fill="#9B3403"/>
<path d="M311.32 125.525C311.32 125.525 308.222 111.675 312.229 105.488C315.842 99.9148 320.597 98.1798 324.681 96.7297C328.763 95.2732 329.701 86.5854 332.885 86.5513C336.07 86.5301 336.121 91.9563 338.436 96.904C340.747 101.85 350.548 103.904 350.045 113.984C349.665 121.556 347.732 131.887 340.369 133.697C332.997 135.508 311.32 125.525 311.32 125.525Z" fill="white"/>
<path d="M322.492 86.1391C321.574 91.2931 317.734 94.3655 312.742 93.4746C307.761 92.5859 304.465 87.687 305.374 82.5372C306.298 77.3811 309.601 75.2038 314.644 75.663C319.667 76.1223 323.418 80.9914 322.492 86.1391Z" fill="white"/>
<path d="M314.716 85.6561C313.907 86.3791 312.875 86.3876 312.166 85.5987C311.467 84.8184 311.552 83.5873 312.365 82.858C313.176 82.1223 313.996 82.1903 314.769 82.9175C315.542 83.6383 315.527 84.9226 314.716 85.6561Z" fill="black"/>
<path d="M345.035 85.3566C346.364 80.6576 350.215 78.1657 354.761 79.4606C359.308 80.7448 361.912 85.6012 360.589 90.2938C359.249 94.9971 355.987 96.7087 351.344 95.8157C346.727 94.9205 343.703 90.0514 345.035 85.3566Z" fill="white"/>
<path d="M352.211 86.5259C353.024 85.9327 353.98 86.0241 354.566 86.8214C355.144 87.6124 354.948 88.7457 354.122 89.3474C353.307 89.9513 352.551 89.8131 351.899 89.0625C351.253 88.3247 351.385 87.1319 352.211 86.5259Z" fill="black"/>
<path d="M354.069 109.64C354.562 109.292 355.136 109.341 355.478 109.815C355.824 110.289 355.707 110.961 355.218 111.318C354.73 111.684 354.282 111.601 353.889 111.152C353.505 110.716 353.583 110.002 354.069 109.64Z" fill="white"/>
<path d="M358.044 104.276C358.531 103.927 359.104 103.976 359.448 104.45C359.792 104.924 359.682 105.6 359.187 105.953C358.699 106.315 358.25 106.232 357.864 105.787C357.48 105.349 357.56 104.633 358.044 104.276Z" fill="white"/>
<path d="M360.003 109.715C360.492 109.366 361.065 109.415 361.407 109.893C361.755 110.363 361.636 111.039 361.15 111.397C360.662 111.758 360.214 111.675 359.823 111.227C359.443 110.791 359.517 110.076 360.003 109.715Z" fill="white"/>
<path d="M307.194 98.9049C307.264 99.5045 306.937 99.9723 306.362 100.053C305.776 100.119 305.241 99.6874 305.17 99.0857C305.105 98.4754 305.389 98.1267 305.971 98.0077C306.54 97.8865 307.118 98.3011 307.194 98.9049Z" fill="white"/>
<path d="M309.92 105.001C309.994 105.603 309.663 106.073 309.081 106.147C308.505 106.213 307.966 105.786 307.898 105.18C307.821 104.574 308.11 104.225 308.696 104.104C309.263 103.985 309.841 104.399 309.92 105.001Z" fill="white"/>
<path d="M304.215 104.042C304.29 104.644 303.963 105.118 303.379 105.184C302.803 105.254 302.27 104.827 302.2 104.221C302.126 103.619 302.419 103.266 302.992 103.149C303.563 103.03 304.145 103.445 304.215 104.042Z" fill="white"/>
<path d="M360.271 63.1691C360.271 63.1691 361.742 49.5016 363.696 41.6621C365.249 35.4705 370.193 28.7324 370.193 28.7324C370.193 28.7324 372.308 37.6223 369.957 47.2627C367.644 56.7053 366.03 64.2811 366.03 64.2811L360.271 63.1691Z" fill="#F989B8"/>
<path d="M330.404 111.305C330.404 111.305 330.052 116.028 332.031 117.627C335.21 120.21 337.419 116.162 337.419 116.162" stroke="black" stroke-width="0.347" stroke-linecap="round"/>
<path d="M322.479 113.744C322.479 113.744 323.026 118.649 327.208 117.021C330.098 115.892 330.024 112.162 330.156 111.269" stroke="black" stroke-width="0.347" stroke-linecap="round"/>
<path d="M323.915 99.1175C323.396 102.53 328.515 110.878 329.829 111.584C331.133 112.29 340.493 102.577 339.983 101.729C338.702 99.6236 323.993 98.5902 323.915 99.1175Z" fill="#F989B8"/>
<path d="M310.912 59.4419C310.912 59.4419 309.806 53.4183 311.152 41.6452C312.019 34.0907 315.756 23.6997 315.756 23.6997C315.756 23.6997 319.456 33.574 318.02 44.8218C316.954 53.1652 316.712 58.6318 316.712 58.6318L310.912 59.4419Z" fill="#F989B8"/>
<path d="M639.956 122.705C635.539 142.27 633.918 158.068 633.626 160.896C633.326 163.727 632.571 165.179 630.763 166.187C627.505 168.003 626.299 168.185 625.278 167.784C622.875 166.844 623.948 165.206 623.948 165.206C623.948 165.206 621.616 167.504 619.065 166.712C616.361 165.868 619.348 163.641 619.348 163.641C619.348 163.641 615.118 164.697 615.363 162.337C615.612 159.978 624.314 158.404 624.314 158.404L626.288 125.116" fill="#9B3403"/>
<path d="M557.766 114.813C557.766 114.813 565.462 153.565 566.093 156.336C566.725 159.113 566.585 160.701 565.513 162.177C563.574 164.825 562.719 165.344 561.815 165.256C559.7 165.037 560.021 163.181 560.021 163.181C560.021 163.181 558.938 166.022 556.749 165.995C554.438 165.958 556.043 162.995 556.043 162.995C556.043 162.995 553.138 165.202 552.606 162.892C552.079 160.575 558.236 156.612 558.236 156.612L545.964 115.042L557.766 114.813Z" fill="#9B3403"/>
<mask id="mask4" mask-type="alpha" maskUnits="userSpaceOnUse" x="535" y="66" width="115" height="107">
<path d="M579.432 66.1582C579.432 66.1582 637.15 72.7146 643.372 79.2646C649.589 85.8125 649.946 105.48 647.867 125.427C645.797 145.377 646.05 161.261 646.093 164.106C646.135 166.95 645.561 168.479 643.878 169.699C640.857 171.89 639.684 172.217 638.625 171.939C636.123 171.292 636.995 169.538 636.995 169.538C636.995 169.538 634.955 172.099 632.325 171.622C629.54 171.108 632.246 168.539 632.246 168.539C632.246 168.539 628.17 170.095 628.136 167.721C628.101 165.352 636.559 162.742 636.559 162.742L634.584 129.457C634.584 129.457 612.182 138.996 591.402 135.977C570.619 132.956 553.138 129.416 553.138 129.416C553.138 129.416 554.085 144.919 553.568 159.762C553.47 162.442 550.93 167.26 547.157 167.314C543.392 167.367 545.649 164.237 545.649 164.237C545.649 164.237 542.794 168.783 540.875 166.438C538.955 164.091 541.709 162.091 541.709 162.091C541.709 162.091 537.838 166.267 535.872 163.215C534.045 160.383 543.67 156.869 543.67 156.869L538.511 101.882L579.432 66.1582Z" fill="#DB6303"/>
</mask>
<g mask="url(#mask4)">
<path d="M579.432 66.1582C579.432 66.1582 637.15 72.7146 643.372 79.2646C649.589 85.8125 649.946 105.48 647.867 125.427C645.797 145.377 646.05 161.261 646.093 164.106C646.135 166.95 645.561 168.479 643.878 169.699C640.857 171.89 639.684 172.217 638.625 171.939C636.123 171.292 636.995 169.538 636.995 169.538C636.995 169.538 634.955 172.099 632.325 171.622C629.54 171.108 632.246 168.539 632.246 168.539C632.246 168.539 628.17 170.095 628.136 167.721C628.101 165.352 636.559 162.742 636.559 162.742L634.584 129.457C634.584 129.457 612.182 138.996 591.402 135.977C570.619 132.956 553.138 129.416 553.138 129.416C553.138 129.416 554.085 144.919 553.568 159.762C553.47 162.442 550.93 167.26 547.157 167.314C543.392 167.367 545.649 164.237 545.649 164.237C545.649 164.237 542.794 168.783 540.875 166.438C538.955 164.091 541.709 162.091 541.709 162.091C541.709 162.091 537.838 166.267 535.872 163.215C534.045 160.383 543.67 156.869 543.67 156.869L538.511 101.882L579.432 66.1582Z" fill="#DB6303"/>
<path d="M615.51 94.5097C615.559 97.9677 612.808 100.813 609.372 100.863C605.936 100.912 604.349 98.5951 604.302 95.137C604.253 91.679 605.761 88.3858 609.193 88.3344C612.63 88.2851 615.461 91.0495 615.51 94.5097Z" fill="#6A2403"/>
<path d="M621.274 99.289C621.295 100.687 620.28 101.835 619.006 101.854C617.732 101.873 616.683 100.754 616.661 99.3554C616.644 97.9551 617.659 96.8074 618.934 96.7881C620.208 96.7688 621.253 97.8865 621.274 99.289Z" fill="#6A2403"/>
<path d="M621.698 91.7433C621.719 92.9745 620.7 93.9872 619.425 94.0065C618.151 94.0258 617.106 93.043 617.089 91.8118C617.068 90.5784 618.087 89.5635 619.362 89.5442C620.634 89.525 621.681 90.5099 621.698 91.7433Z" fill="#6A2403"/>
<path d="M617.704 86.6258C617.725 88.009 616.674 89.1396 615.359 89.1588C614.044 89.1781 612.97 88.0754 612.949 86.6964C612.927 85.3175 613.974 84.1848 615.289 84.1655C616.604 84.1463 617.683 85.2468 617.704 86.6258Z" fill="#6A2403"/>
<path d="M589.812 105.053C591.331 101.951 595.55 101.458 598.633 102.983C601.722 104.509 602.503 107.481 600.986 110.586C599.469 113.687 595.737 114.967 592.654 113.438C589.567 111.916 588.295 108.156 589.812 105.053Z" fill="#6A2403"/>
<path d="M586.836 98.1607C587.449 96.9038 588.87 96.3449 590.017 96.9145C591.159 97.4798 591.587 98.9529 590.972 100.21C590.357 101.465 588.936 102.023 587.793 101.458C586.647 100.893 586.219 99.4176 586.836 98.1607Z" fill="#6A2403"/>
<path d="M583.053 104.689C583.593 103.584 584.959 103.148 586.104 103.713C587.244 104.28 587.734 105.633 587.193 106.74C586.651 107.847 585.287 108.284 584.142 107.717C582.997 107.152 582.51 105.798 583.053 104.689Z" fill="#6A2403"/>
<path d="M584.302 111.072C584.906 109.832 586.353 109.301 587.532 109.886C588.715 110.468 589.174 111.946 588.57 113.181C587.966 114.421 586.523 114.954 585.342 114.37C584.162 113.787 583.696 112.312 584.302 111.072Z" fill="#6A2403"/>
<path d="M616.055 112.565C619.382 111.697 622.782 113.706 623.642 117.055C624.51 120.404 621.976 123.226 618.65 124.093C615.325 124.962 612.463 123.553 611.599 120.209C610.731 116.858 612.729 113.434 616.055 112.565Z" fill="#6A2403"/>
<path d="M619.295 105.792C620.642 105.441 621.993 106.165 622.312 107.404C622.631 108.644 621.801 109.935 620.454 110.286C619.108 110.64 617.761 109.92 617.437 108.676C617.118 107.434 617.948 106.15 619.295 105.792Z" fill="#6A2403"/>
<path d="M611.917 107.171C613.102 106.862 614.319 107.618 614.638 108.858C614.961 110.1 614.255 111.355 613.072 111.665C611.887 111.978 610.67 111.222 610.346 109.98C610.025 108.74 610.727 107.485 611.917 107.171Z" fill="#6A2403"/>
<path d="M607.927 112.295C609.252 111.948 610.595 112.701 610.927 113.98C611.254 115.262 610.448 116.579 609.122 116.924C607.793 117.273 606.45 116.519 606.122 115.239C605.79 113.96 606.599 112.639 607.927 112.295Z" fill="#6A2403"/>
<path d="M592.118 81.9043C594.952 79.945 598.829 80.6666 600.776 83.5166C602.729 86.3666 601.297 89.8889 598.469 91.8481C595.637 93.8094 592.469 93.469 590.523 90.619C588.569 87.7669 589.289 83.8635 592.118 81.9043Z" fill="#6A2403"/>
<path d="M592.877 74.423C594.022 73.6308 595.532 73.8449 596.256 74.9026C596.979 75.9626 596.634 77.4571 595.49 78.2515C594.345 79.0416 592.828 78.8318 592.109 77.7697C591.383 76.7163 591.73 75.2217 592.877 74.423Z" fill="#6A2403"/>
<path d="M586.402 78.2578C587.413 77.5598 588.815 77.8531 589.534 78.9066C590.26 79.9644 590.026 81.384 589.017 82.0799C588.007 82.7801 586.607 82.4889 585.881 81.4354C585.158 80.3776 585.392 78.9558 586.402 78.2578Z" fill="#6A2403"/>
<path d="M584.392 84.4416C585.521 83.6579 587.038 83.9084 587.779 84.9962C588.528 86.086 588.215 87.602 587.085 88.3836C585.953 89.1651 584.443 88.9167 583.69 87.8269C582.949 86.737 583.258 85.221 584.392 84.4416Z" fill="#6A2403"/>
<path d="M577.127 62.021C579.959 60.064 583.836 60.7855 585.785 63.6355C587.736 66.4876 586.308 70.0078 583.476 71.9713C580.644 73.9262 577.474 73.5858 575.529 70.7358C573.581 67.8858 574.295 63.9845 577.127 62.021Z" fill="#6A2403"/>
<path d="M569.398 64.5583C570.528 63.7768 572.045 64.0252 572.789 65.1172C573.534 66.2071 573.221 67.7209 572.096 68.5024C570.962 69.284 569.443 69.0356 568.698 67.9436C567.955 66.8558 568.264 65.3399 569.398 64.5583Z" fill="#6A2403"/>
<path d="M565.558 99.4389C564.007 96.3598 565.226 92.5827 568.286 91.0153C571.354 89.4458 574.628 91.33 576.188 94.4134C577.747 97.4946 576.996 100.614 573.937 102.182C570.869 103.751 567.12 102.524 565.558 99.4389Z" fill="#6A2403"/>
<path d="M558.289 97.7044C557.661 96.456 558.072 94.9764 559.208 94.394C560.344 93.8137 561.772 94.3512 562.404 95.5995C563.031 96.8479 562.625 98.3317 561.489 98.912C560.351 99.4944 558.923 98.9527 558.289 97.7044Z" fill="#6A2403"/>
<path d="M561.216 104.666C560.662 103.567 561.137 102.207 562.267 101.625C563.405 101.043 564.773 101.464 565.326 102.561C565.884 103.661 565.411 105.021 564.279 105.606C563.139 106.184 561.773 105.77 561.216 104.666Z" fill="#6A2403"/>
<path d="M567.041 107.49C566.417 106.256 566.862 104.777 568.034 104.179C569.205 103.582 570.656 104.092 571.277 105.319C571.902 106.548 571.454 108.027 570.281 108.631C569.115 109.226 567.66 108.719 567.041 107.49Z" fill="#6A2403"/>
<path d="M634.684 103.828C631.618 102.268 629.307 98.9658 630.856 95.8803C632.407 92.7905 636.154 91.5529 639.222 93.116C642.288 94.6769 643.52 98.4476 641.965 101.533C640.414 104.623 637.75 105.389 634.684 103.828Z" fill="#6A2403"/>
<path d="M626.83 106.633C625.587 105.999 625.047 104.563 625.626 103.417C626.202 102.276 627.67 101.86 628.913 102.492C630.156 103.124 630.696 104.563 630.113 105.708C629.541 106.852 628.073 107.265 626.83 106.633Z" fill="#6A2403"/>
<path d="M633.272 110.513C632.182 109.959 631.759 108.58 632.338 107.436C632.914 106.289 634.261 105.815 635.355 106.372C636.448 106.929 636.867 108.306 636.293 109.451C635.718 110.597 634.367 111.072 633.272 110.513Z" fill="#6A2403"/>
<path d="M639.628 109.325C638.403 108.702 637.892 107.244 638.486 106.068C639.084 104.884 640.552 104.434 641.777 105.055C642.999 105.683 643.509 107.141 642.92 108.319C642.324 109.498 640.85 109.95 639.628 109.325Z" fill="#6A2403"/>
<path d="M572.21 121.853C569.144 120.292 566.836 116.991 568.385 113.905C569.934 110.815 573.681 109.578 576.751 111.139C579.815 112.702 581.046 116.47 579.493 119.556C577.944 122.646 575.276 123.414 572.21 121.853Z" fill="#6A2403"/>
<path d="M564.356 124.658C563.115 124.022 562.577 122.585 563.156 121.442C563.732 120.299 565.198 119.881 566.441 120.515C567.681 121.147 568.221 122.585 567.645 123.731C567.068 124.874 565.598 125.288 564.356 124.658Z" fill="#6A2403"/>
<path d="M570.799 128.538C569.708 127.979 569.287 126.605 569.865 125.459C570.44 124.313 571.791 123.842 572.88 124.397C573.978 124.956 574.397 126.33 573.821 127.476C573.244 128.619 571.893 129.095 570.799 128.538Z" fill="#6A2403"/>
<path d="M577.156 127.348C575.93 126.725 575.42 125.268 576.013 124.091C576.611 122.907 578.081 122.457 579.302 123.08C580.53 123.703 581.036 125.164 580.447 126.341C579.854 127.521 578.377 127.975 577.156 127.348Z" fill="#6A2403"/>
<path d="M552.812 112.417C556.004 111.134 559.993 111.569 561.27 114.781C562.551 117.997 560.991 121.643 557.802 122.928C554.612 124.213 550.987 122.648 549.708 119.438C548.432 116.226 549.621 113.702 552.812 112.417Z" fill="#6A2403"/>
<path d="M555.913 104.631C557.202 104.113 558.63 104.657 559.104 105.848C559.579 107.038 558.917 108.424 557.621 108.942C556.334 109.46 554.906 108.916 554.428 107.725C553.955 106.535 554.619 105.152 555.913 104.631Z" fill="#6A2403"/>
<path d="M548.758 106.937C549.896 106.479 551.196 107.072 551.673 108.263C552.147 109.455 551.607 110.787 550.473 111.245C549.334 111.704 548.03 111.111 547.556 109.92C547.081 108.73 547.617 107.391 548.758 106.937Z" fill="#6A2403"/>
<path d="M545.449 112.522C546.721 112.008 548.147 112.584 548.632 113.813C549.119 115.044 548.483 116.451 547.211 116.965C545.938 117.479 544.506 116.899 544.019 115.672C543.532 114.447 544.168 113.031 545.449 112.522Z" fill="#6A2403"/>
<path d="M592.463 123.028C595.655 121.746 599.644 122.181 600.92 125.392C602.199 128.606 600.644 132.253 597.455 133.538C594.263 134.822 590.64 133.257 589.363 130.047C588.084 126.838 589.272 124.313 592.463 123.028Z" fill="#6A2403"/>
<path d="M595.564 115.243C596.853 114.725 598.281 115.271 598.755 116.459C599.23 117.648 598.564 119.033 597.272 119.553C595.985 120.072 594.555 119.53 594.081 118.337C593.611 117.147 594.273 115.763 595.564 115.243Z" fill="#6A2403"/>
<path d="M588.412 117.549C589.546 117.091 590.851 117.684 591.323 118.875C591.802 120.067 591.259 121.399 590.125 121.857C588.987 122.316 587.683 121.722 587.208 120.532C586.734 119.341 587.268 118.005 588.412 117.549Z" fill="#6A2403"/>
<path d="M585.098 123.133C586.374 122.62 587.795 123.196 588.285 124.425C588.772 125.656 588.14 127.063 586.864 127.576C585.585 128.09 584.161 127.512 583.676 126.283C583.185 125.058 583.825 123.645 585.098 123.133Z" fill="#6A2403"/>
<path d="M613.857 136.088C617.048 134.805 621.033 135.242 622.314 138.452C623.591 141.666 622.036 145.312 618.844 146.597C615.657 147.882 612.029 146.317 610.753 143.107C609.472 139.897 610.661 137.373 613.857 136.088Z" fill="#6A2403"/>
<path d="M616.957 128.3C618.244 127.784 619.674 128.328 620.149 129.519C620.623 130.707 619.957 132.092 618.666 132.611C617.378 133.129 615.949 132.587 615.47 131.394C615 130.206 615.659 128.823 616.957 128.3Z" fill="#6A2403"/>
<path d="M609.799 130.607C610.937 130.148 612.242 130.741 612.712 131.932C613.191 133.127 612.65 134.456 611.514 134.915C610.376 135.373 609.071 134.78 608.593 133.589C608.12 132.401 608.661 131.063 609.799 130.607Z" fill="#6A2403"/>
<path d="M606.49 136.193C607.766 135.679 609.192 136.255 609.677 137.484C610.164 138.715 609.528 140.122 608.256 140.636C606.979 141.15 605.551 140.572 605.064 139.343C604.577 138.116 605.213 136.703 606.49 136.193Z" fill="#6A2403"/>
<path d="M636.059 121.701C639.254 120.416 643.24 120.853 644.52 124.065C645.801 127.281 644.242 130.928 641.054 132.212C637.863 133.497 634.235 131.932 632.959 128.72C631.68 125.508 632.867 122.986 636.059 121.701Z" fill="#6A2403"/>
<path d="M639.159 113.916C640.451 113.397 641.876 113.941 642.351 115.132C642.829 116.322 642.163 117.708 640.872 118.224C639.58 118.742 638.151 118.202 637.676 117.008C637.206 115.817 637.872 114.436 639.159 113.916Z" fill="#6A2403"/>
<path d="M632.012 116.22C633.146 115.762 634.451 116.355 634.921 117.547C635.4 118.74 634.859 120.072 633.721 120.528C632.582 120.986 631.278 120.393 630.808 119.205C630.334 118.014 630.866 116.676 632.012 116.22Z" fill="#6A2403"/>
<path d="M628.696 121.804C629.968 121.292 631.393 121.868 631.883 123.095C632.366 124.326 631.734 125.733 630.457 126.247C629.185 126.761 627.759 126.183 627.27 124.954C626.785 123.731 627.421 122.314 628.696 121.804Z" fill="#6A2403"/>
<path d="M629.851 78.7697C633.042 77.4871 637.027 77.9218 638.312 81.1336C639.589 84.3476 638.029 87.9962 634.842 89.2809C631.655 90.5657 628.027 89.0004 626.751 85.7908C625.472 82.5789 626.659 80.0544 629.851 78.7697Z" fill="#6A2403"/>
<path d="M632.95 70.9864C634.241 70.4682 635.667 71.0121 636.141 72.2026C636.616 73.391 635.954 74.7785 634.658 75.2946C633.371 75.8149 631.941 75.271 631.467 74.0783C630.997 72.8878 631.658 71.5046 632.95 70.9864Z" fill="#6A2403"/>
<path d="M625.799 73.2903C626.937 72.8321 628.237 73.4252 628.712 74.6179C629.19 75.8105 628.646 77.1402 627.512 77.5985C626.373 78.0567 625.069 77.4636 624.599 76.2731C624.12 75.0847 624.656 73.7464 625.799 73.2903Z" fill="#6A2403"/>
<path d="M622.483 78.8746C623.76 78.3607 625.185 78.9367 625.67 80.1679C626.155 81.3991 625.526 82.8038 624.249 83.3177C622.973 83.8316 621.547 83.2534 621.062 82.0244C620.573 80.7996 621.213 79.3864 622.483 78.8746Z" fill="#6A2403"/>
<path d="M608.508 74.7827C605.08 75.0482 601.406 73.4337 601.138 69.9907C600.874 66.5326 603.436 63.522 606.859 63.2544C610.287 62.9889 613.287 65.569 613.55 69.0143C613.814 72.4616 611.936 74.5193 608.508 74.7827Z" fill="#6A2403"/>
<path d="M603.242 81.2856C601.855 81.3927 600.655 80.4441 600.559 79.1637C600.455 77.8875 601.499 76.7655 602.889 76.6563C604.267 76.5471 605.474 77.4935 605.578 78.7761C605.674 80.0544 604.631 81.1764 603.242 81.2856Z" fill="#6A2403"/>
<path d="M610.748 81.232C609.531 81.3284 608.463 80.3713 608.363 79.0908C608.263 77.8104 609.178 76.7034 610.395 76.607C611.62 76.5107 612.688 77.4699 612.784 78.7482C612.884 80.0244 611.978 81.14 610.748 81.232Z" fill="#6A2403"/>
<path d="M615.568 76.8983C614.2 77.0033 613.012 76.0247 612.908 74.7121C612.808 73.3867 613.836 72.2326 615.202 72.1277C616.57 72.0185 617.761 72.9992 617.861 74.3224C617.965 75.6372 616.94 76.7956 615.568 76.8983Z" fill="#6A2403"/>
</g>
<mask id="mask5" mask-type="alpha" maskUnits="userSpaceOnUse" x="644" y="79" width="73" height="23">
<path d="M644.803 100.574C644.803 100.574 675.799 104.374 690.592 99.3983C701.339 95.7861 720.873 88.0969 716.071 81.5255C710.643 74.1083 696.241 88.5295 683.48 89.8827C670.971 91.2081 644.642 89.1975 644.642 89.1975L644.803 100.574Z" fill="#DB6303"/>
</mask>
<g mask="url(#mask5)">
<path d="M644.803 100.574C644.803 100.574 675.799 104.374 690.592 99.3983C701.339 95.7861 720.873 88.0969 716.071 81.5255C710.643 74.1083 696.241 88.5295 683.48 89.8827C670.971 91.2081 644.642 89.1975 644.642 89.1975L644.803 100.574Z" fill="#DB6303"/>
<path d="M699.544 85.7823C699.592 89.2404 696.846 92.0861 693.41 92.1375C689.973 92.1846 688.386 89.8699 688.335 86.4097C688.286 82.9516 689.795 79.6584 693.231 79.607C696.669 79.5599 699.499 82.3243 699.544 85.7823Z" fill="#6A2403"/>
<path d="M705.311 90.5617C705.333 91.9578 704.313 93.1076 703.043 93.1247C701.767 93.144 700.72 92.0241 700.699 90.6259C700.677 89.2277 701.696 88.0779 702.967 88.0607C704.243 88.0436 705.29 89.1635 705.311 90.5617Z" fill="#6A2403"/>
<path d="M705.735 83.016C705.752 84.2472 704.733 85.26 703.459 85.2792C702.184 85.2985 701.139 84.3157 701.122 83.0845C701.101 81.8511 702.12 80.8362 703.395 80.8169C704.669 80.7977 705.714 81.7826 705.735 83.016Z" fill="#6A2403"/>
<path d="M701.737 77.9028C701.758 79.2796 700.711 80.4144 699.396 80.4337C698.081 80.453 697.003 79.3481 696.986 77.9713C696.964 76.5902 698.011 75.4575 699.326 75.4382C700.637 75.419 701.722 76.5238 701.737 77.9028Z" fill="#6A2403"/>
<path d="M673.845 96.3278C675.367 93.2251 679.588 92.7305 682.671 94.2572C685.758 95.786 686.535 98.7559 685.022 101.859C683.501 104.963 679.773 106.239 676.686 104.715C673.605 103.188 672.333 99.4304 673.845 96.3278Z" fill="#6A2403"/>
<path d="M670.871 89.433C671.481 88.1804 672.907 87.6194 674.054 88.1868C675.192 88.7521 675.624 90.2274 675.009 91.4822C674.394 92.7412 672.969 93.3001 671.826 92.7326C670.684 92.1652 670.254 90.6921 670.871 89.433Z" fill="#6A2403"/>
<path d="M667.084 95.9617C667.628 94.8568 668.99 94.42 670.135 94.9874C671.282 95.5527 671.765 96.9059 671.228 98.0129C670.684 99.1199 669.322 99.5568 668.177 98.9915C667.031 98.4241 666.548 97.0687 667.084 95.9617Z" fill="#6A2403"/>
<path d="M668.339 102.344C668.941 101.107 670.388 100.578 671.565 101.16C672.745 101.743 673.209 103.22 672.603 104.456C671.997 105.695 670.554 106.226 669.377 105.642C668.199 105.059 667.733 103.582 668.339 102.344Z" fill="#6A2403"/>
<path d="M649.594 90.7157C648.037 87.6302 649.262 83.8595 652.324 82.2879C655.385 80.7162 658.664 82.6048 660.224 85.686C661.781 88.7672 661.03 91.887 657.966 93.4543C654.9 95.0238 651.151 93.7969 649.594 90.7157Z" fill="#6A2403"/>
<path d="M642.322 88.9771C641.695 87.7309 642.105 86.2513 643.241 85.6689C644.38 85.0886 645.809 85.6261 646.441 86.8744C647.065 88.1227 646.663 89.6066 645.526 90.189C644.386 90.7672 642.956 90.2254 642.322 88.9771Z" fill="#6A2403"/>
<path d="M645.248 95.9381C644.699 94.8418 645.169 93.4821 646.299 92.8997C647.437 92.3173 648.805 92.737 649.361 93.8333C649.918 94.9381 649.448 96.2935 648.31 96.8781C647.176 97.4584 645.807 97.043 645.248 95.9381Z" fill="#6A2403"/>
<path d="M651.077 98.7603C650.454 97.5291 650.898 96.0473 652.071 95.45C653.243 94.8526 654.692 95.3622 655.311 96.5912C655.934 97.8203 655.49 99.2977 654.317 99.9037C653.145 100.503 651.696 99.9936 651.077 98.7603Z" fill="#6A2403"/>
<path d="M713.882 70.0443C717.078 68.7596 721.068 69.1964 722.344 72.4082C723.625 75.6243 722.065 79.2708 718.874 80.5556C715.687 81.8425 712.059 80.2751 710.782 77.0654C709.508 73.8536 710.695 71.3291 713.882 70.0443Z" fill="#6A2403"/>
</g>
<mask id="mask6" mask-type="alpha" maskUnits="userSpaceOnUse" x="478" y="14" width="115" height="102">
<path d="M585.665 81.7674C581.663 78.8233 578.763 78.2922 578.763 78.2922C580.055 70.9564 581.98 64.4364 581.64 57.82C581.389 52.9423 581.233 50.8482 581.138 50.0388C582.738 49.1674 597.325 40.883 590.999 31.7143C584.17 21.8283 569.744 36.198 569.744 36.198C569.744 36.198 561.325 32.3781 550.359 29.5045C538.366 26.3591 521.855 26.9758 521.855 26.9758C521.855 26.9758 521.579 10.0901 509.04 14.8436C496.211 19.7106 506.611 37.0159 506.611 37.0159C506.611 37.0159 500.862 43.87 498.198 49.8654C496.855 52.8931 495.394 58.7879 494.43 65.3036C491.855 65.2758 487.947 65.4556 485.109 66.6012C480.509 68.4555 474.8 70.3997 480.181 71.2498C485.562 72.1063 490.389 73.3396 490.389 73.3396C490.389 73.3396 478.587 80.2921 483.392 79.6669C488.192 79.0417 493.351 78.6306 493.351 78.6306C493.351 78.6306 483.628 86.5295 487.496 85.6709C489.189 85.2919 491.17 84.9921 493.594 83.9322C493.602 84.02 493.604 84.1142 493.617 84.202C494.83 95.2486 500.406 108.582 521.464 113.171C542.525 117.761 561.723 114.4 569.974 99.9143C570.885 98.3169 571.755 96.6468 572.585 94.9231C573.019 95.4541 579.148 98.6253 581.067 100.39C583.416 102.544 579.248 93.9531 579.248 93.9531C579.248 93.9531 581.723 93.7326 586.223 95.5398C590.721 97.3448 580.906 86.9556 580.906 86.9556C580.906 86.9556 583.88 86.9899 589.299 87.5016C594.723 88.0198 589.67 84.7116 585.665 81.7674Z" fill="#FF8000"/>
</mask>
<g mask="url(#mask6)">
<path d="M585.665 81.7674C581.663 78.8233 578.763 78.2922 578.763 78.2922C580.055 70.9564 581.98 64.4364 581.64 57.82C581.389 52.9423 581.233 50.8482 581.138 50.0388C582.738 49.1674 597.325 40.883 590.999 31.7143C584.17 21.8283 569.744 36.198 569.744 36.198C569.744 36.198 561.325 32.3781 550.359 29.5045C538.366 26.3591 521.855 26.9758 521.855 26.9758C521.855 26.9758 521.579 10.0901 509.04 14.8436C496.211 19.7106 506.611 37.0159 506.611 37.0159C506.611 37.0159 500.862 43.87 498.198 49.8654C496.855 52.8931 495.394 58.7879 494.43 65.3036C491.855 65.2758 487.947 65.4556 485.109 66.6012C480.509 68.4555 474.8 70.3997 480.181 71.2498C485.562 72.1063 490.389 73.3396 490.389 73.3396C490.389 73.3396 478.587 80.2921 483.392 79.6669C488.192 79.0417 493.351 78.6306 493.351 78.6306C493.351 78.6306 483.628 86.5295 487.496 85.6709C489.189 85.2919 491.17 84.9921 493.594 83.9322C493.602 84.02 493.604 84.1142 493.617 84.202C494.83 95.2486 500.406 108.582 521.464 113.171C542.525 117.761 561.723 114.4 569.974 99.9143C570.885 98.3169 571.755 96.6468 572.585 94.9231C573.019 95.4541 579.148 98.6253 581.067 100.39C583.416 102.544 579.248 93.9531 579.248 93.9531C579.248 93.9531 581.723 93.7326 586.223 95.5398C590.721 97.3448 580.906 86.9556 580.906 86.9556C580.906 86.9556 583.88 86.9899 589.299 87.5016C594.723 88.0198 589.67 84.7116 585.665 81.7674Z" fill="#FF8000"/>
<path d="M561.455 88.0583C560.985 91.4864 557.84 93.8803 554.432 93.4049C551.028 92.9274 549.811 90.3987 550.285 86.9706C550.755 83.5425 552.74 80.5169 556.145 80.9923C559.549 81.4698 561.932 84.6345 561.455 88.0583Z" fill="#9B3403"/>
<path d="M566.436 93.6663C566.243 95.0495 565.07 96.0302 563.805 95.8546C562.541 95.6769 561.677 94.4114 561.868 93.0303C562.058 91.6407 563.236 90.6621 564.498 90.8356C565.76 91.0112 566.626 92.2766 566.436 93.6663Z" fill="#9B3403"/>
<path d="M567.989 86.2706C567.821 87.4889 566.664 88.3347 565.4 88.1612C564.136 87.9835 563.251 86.8551 563.421 85.6303C563.587 84.4098 564.747 83.564 566.009 83.7396C567.275 83.9195 568.16 85.0479 567.989 86.2706Z" fill="#9B3403"/>
<path d="M564.813 80.6071C564.623 81.971 563.417 82.9324 562.115 82.7483C560.811 82.5684 559.915 81.3137 560.104 79.9476C560.292 78.5793 561.498 77.6179 562.8 77.7999C564.098 77.9819 565 79.2388 564.813 80.6071Z" fill="#9B3403"/>
<path d="M542.651 32.7314C539.179 31.4938 537.362 27.6589 538.583 24.1687C539.813 20.6699 542.713 19.9291 546.188 21.1624C549.658 22.3958 552.39 25.1451 551.164 28.6374C549.932 32.134 546.126 33.9648 542.651 32.7314Z" fill="#9B3403"/>
<path d="M535.736 36.7868C534.332 36.29 533.564 34.8361 534.019 33.5385C534.472 32.2431 535.981 31.5986 537.385 32.0954C538.789 32.5964 539.561 34.0503 539.106 35.35C538.651 36.6433 537.144 37.2857 535.736 36.7868Z" fill="#9B3403"/>
<path d="M543.117 40.016C541.879 39.5792 541.247 38.1746 541.702 36.877C542.158 35.5794 543.528 34.8857 544.762 35.3289C546 35.7657 546.636 37.1725 546.179 38.4679C545.728 39.7655 544.356 40.4593 543.117 40.016Z" fill="#9B3403"/>
<path d="M549.709 37.8766C548.326 37.3862 547.581 35.9024 548.051 34.5684C548.517 33.2323 550.019 32.5535 551.402 33.0438C552.787 33.5342 553.532 35.0159 553.066 36.3542C552.592 37.686 551.092 38.3691 549.709 37.8766Z" fill="#9B3403"/>
<path d="M501.955 76.2688C502.004 79.7269 504.831 82.4912 508.267 82.442C511.706 82.3949 513.225 80.0309 513.176 76.5729C513.127 73.1148 511.531 69.8623 508.089 69.9137C504.653 69.9608 501.906 72.8065 501.955 76.2688Z" fill="#9B3403"/>
<path d="M496.327 81.2087C496.349 82.6091 497.398 83.7289 498.67 83.7096C499.947 83.6904 500.959 82.5427 500.94 81.1423C500.921 79.742 499.87 78.6221 498.598 78.6414C497.325 78.6606 496.308 79.8083 496.327 81.2087Z" fill="#9B3403"/>
<path d="M495.69 73.68C495.709 74.9112 496.753 75.894 498.03 75.8747C499.302 75.8555 500.322 74.8448 500.302 73.6115C500.285 72.376 499.239 71.3953 497.964 71.4146C496.69 71.4339 495.673 72.4424 495.69 73.68Z" fill="#9B3403"/>
<path d="M499.538 68.4513C499.56 69.8324 500.641 70.9308 501.951 70.9094C503.266 70.8923 504.311 69.7617 504.294 68.3806C504.272 66.9974 503.196 65.8989 501.883 65.9182C500.57 65.9375 499.517 67.0681 499.538 68.4513Z" fill="#9B3403"/>
</g>
<path d="M526.536 64.7833C523.655 70.1449 519.487 74.6758 521.391 74.6479C523.296 74.6201 541.121 78.8362 541.121 78.8362C541.121 78.8362 542.542 74.982 542.823 65.1859C543.113 55.3919 544.47 46.8592 541.089 46.9084C537.493 46.9619 529.421 59.4196 526.536 64.7833Z" fill="#DB6303"/>
<path d="M573.038 42.3819C573.038 42.3819 578.14 36.6948 580.576 38.7075C583.012 40.7203 577.781 46.3817 577.781 46.3817L573.038 42.3819Z" fill="#9B3403"/>
<path d="M512.388 30.937C512.388 30.937 508.469 24.5369 511.12 22.8132C513.76 21.0917 517.541 28.0699 517.541 28.0699L512.388 30.937Z" fill="#9B3403"/>
<path d="M573.297 60.5993C573.383 66.5797 567.478 71.6716 561.536 71.7572C555.591 71.8429 550.706 67.0615 550.621 61.0832C550.536 55.1049 556.312 51.7539 562.255 51.6683C568.198 51.5826 573.212 54.6253 573.297 60.5993Z" fill="white"/>
<path d="M506.273 46.2188C504.352 51.3962 507.937 57.6829 513.101 59.6185C518.264 61.5585 524.013 58.9398 525.926 53.7623C527.849 48.5891 523.841 43.857 518.677 41.9192C513.513 39.975 508.19 41.0456 506.273 46.2188Z" fill="white"/>
<path d="M519.136 98.0449L516.909 96.2634L515.392 105.86L522.066 99.3232L519.136 98.0449Z" fill="white"/>
<path d="M533.455 100.893L530.379 100.079L533.779 108.835L536.36 100.452L533.455 100.893Z" fill="white"/>
<path d="M529.009 87.3582C529.009 87.3582 527.549 97.4283 529.613 99.1991C534.804 103.666 539.383 97.9251 539.383 97.9251" stroke="black" stroke-width="0.368" stroke-linecap="round"/>
<path d="M516.016 93.934C516.016 93.934 518.235 101.126 524.469 98.6232C527.535 97.392 528.616 88.2833 528.745 87.3262" stroke="black" stroke-width="0.368" stroke-linecap="round"/>
<path d="M520.911 74.3568C520.413 78.0204 526.987 86.9322 528.4 87.6687C529.798 88.401 542.313 79.7227 541.759 78.8276C540.364 76.5879 520.985 73.7915 520.911 74.3568Z" fill="black"/>
<path d="M565.06 59.7471C565.079 61.1046 564 62.2223 562.649 62.2437C561.298 62.263 560.187 61.1752 560.168 59.8177C560.147 58.4559 561.228 57.3403 562.579 57.3211C563.93 57.3018 565.038 58.3852 565.06 59.7471Z" fill="black"/>
<path d="M518.532 50.5868C518.552 51.9465 517.473 53.0642 516.122 53.0835C514.771 53.1028 513.66 52.0172 513.641 50.6575C513.62 49.2978 514.703 48.1801 516.054 48.1608C517.403 48.1437 518.513 49.2293 518.532 50.5868Z" fill="black"/>
<path d="M175.529 346.244C175.443 352.918 170.12 358.264 163.67 358.184C157.208 358.102 152.031 352.617 152.117 345.943C152.204 339.26 157.518 333.921 163.976 334.001C170.432 334.085 175.616 339.556 175.529 346.244Z" fill="#869A2A"/>
<path d="M139.481 349.955C140.194 357.514 133.916 362.337 127.276 362.253C120.622 362.166 115.841 357.065 115.379 349.647C114.959 342.789 120.964 337.896 127.588 337.359C134.66 336.792 138.806 343.116 139.481 349.955Z" fill="#869A2A"/>
<path d="M154.508 407.418C154.508 407.418 163.488 424.851 168.131 428.273C171.897 431.041 173.562 429.647 173.562 429.647C173.562 429.647 184.56 426.114 182.957 428.572C181.353 431.043 174.106 432.455 174.106 432.455C174.106 432.455 187.088 433.242 185.311 434.827C183.539 436.399 172.741 436.437 172.741 436.437C172.741 436.437 186.404 440.282 183.189 440.97C178.705 441.933 167.167 439.981 165.572 437.388C163.967 434.797 150.029 420.545 146.58 416.485C143.16 412.425 154.508 407.418 154.508 407.418Z" fill="#869A2A"/>
<path d="M173.126 346.217C173.061 351.521 168.828 355.771 163.702 355.703C158.562 355.638 154.444 351.281 154.514 345.981C154.583 340.665 158.811 336.421 163.948 336.484C169.071 336.55 173.198 340.901 173.126 346.217Z" fill="white"/>
<mask id="mask7" mask-type="alpha" maskUnits="userSpaceOnUse" x="59" y="344" width="142" height="104">
<path d="M134.787 344.59C158.423 341.457 204.579 352.592 200.385 374.134C196.931 391.827 176.377 394.936 176.377 394.936C176.377 394.936 172.681 415.119 146.581 416.482C132.047 436.842 108.031 449.412 85.1043 447.762C62.3018 446.115 50.4175 423.304 66.207 395.539C81.2265 369.161 106.755 363.813 106.755 363.813C106.755 363.813 113.266 347.444 134.787 344.59Z" fill="#869A2A"/>
</mask>
<g mask="url(#mask7)">
<path d="M134.787 344.59C158.423 341.457 204.579 352.592 200.385 374.134C196.931 391.827 176.377 394.936 176.377 394.936C176.377 394.936 172.681 415.119 146.581 416.482C132.047 436.842 108.031 449.412 85.1043 447.762C62.3018 446.115 50.4175 423.304 66.207 395.539C81.2265 369.161 106.755 363.813 106.755 363.813C106.755 363.813 113.266 347.444 134.787 344.59Z" fill="#869A2A"/>
<path d="M129.659 396.264C132.413 398.208 130.917 401.304 128.086 399.443C125.223 397.558 126.845 394.276 129.659 396.264Z" fill="#6A2403"/>
<path d="M122.366 400.79C125.231 402.609 123.874 405.879 120.921 404.146C118.001 402.424 119.467 398.971 122.366 400.79Z" fill="#6A2403"/>
<path d="M114.742 392.95C117.565 394.807 115.985 398.233 113.097 396.471C110.164 394.679 111.873 391.072 114.742 392.95Z" fill="#6A2403"/>
<path d="M123.799 381.124C121.105 379.014 123.21 375.671 125.814 377.873C128.421 380.059 126.478 383.207 123.799 381.124Z" fill="#6A2403"/>
<path d="M99.8654 389.154C96.9307 387.379 98.7767 383.445 101.682 385.323C104.494 387.155 102.756 390.903 99.8654 389.154Z" fill="#6A2403"/>
<path d="M79.2553 390.349L79.3376 389.719C80.4495 386.934 85.4243 388.673 84.3631 391.373C83.9074 392.556 82.6584 392.851 81.5276 392.661C81.7934 394.308 80.4537 395.935 78.3735 394.909C75.6181 393.538 76.7173 389.771 79.2553 390.349Z" fill="#6A2403"/>
<path d="M100.118 377.33C97.3013 375.422 99.4575 371.48 102.213 373.495C104.953 375.498 102.934 379.254 100.118 377.33Z" fill="#6A2403"/>
<path d="M80.2505 409.901C78.6724 409.246 78.1619 407.793 78.5437 406.718C78.4826 406.429 78.4952 406.117 78.5944 405.771C79.4467 402.997 84.5355 404.368 83.7317 407.045L83.2802 407.827C83.4468 409.288 82.2949 410.749 80.2505 409.901Z" fill="#6A2403"/>
<path d="M95.4129 351.099C92.1891 351.415 90.7925 346.329 94.2208 346.042C97.5501 345.806 98.6176 350.844 95.4129 351.099Z" fill="#6A2403"/>
<path d="M106.886 364.148C110.038 364.127 111.374 368.855 108.346 368.935C105.255 369.068 103.694 364.239 106.886 364.148Z" fill="#6A2403"/>
<path d="M128.191 392.872C131.373 392.539 132.942 397.417 129.765 397.744C126.571 398.134 124.959 393.271 128.191 392.872Z" fill="#6A2403"/>
<path d="M113.874 379.471C110.659 380.034 108.927 375.074 112.264 374.539C115.562 374.066 117.045 378.963 113.874 379.471Z" fill="#6A2403"/>
<path d="M94.2229 374.783C91.1278 375.266 89.151 370.573 92.3599 370.116C95.4782 369.711 97.3453 374.378 94.2229 374.783Z" fill="#6A2403"/>
<path d="M118.212 387.429C115.259 387.602 113.185 383.213 116.176 383.028C119.094 382.891 121.145 387.317 118.212 387.429Z" fill="#6A2403"/>
<path d="M90.2443 393.646C87.2252 394.354 84.8137 389.969 87.8708 389.253C90.8793 388.586 93.2697 393.003 90.2443 393.646Z" fill="#6A2403"/>
<path d="M99.8972 378.152C102.961 377.81 104.935 382.315 101.95 382.692C98.9098 383.106 96.8127 378.571 99.8972 378.152Z" fill="#6A2403"/>
<path d="M92.7831 385.465C89.6353 386.124 87.5825 381.415 90.8168 380.768C93.9667 380.182 95.9393 384.876 92.7831 385.465Z" fill="#6A2403"/>
<path d="M111.651 346.316C114.818 346.373 115.879 351.342 112.706 351.27C109.499 351.278 108.379 346.325 111.651 346.316Z" fill="#6A2403"/>
<path d="M67.3641 359.091C70.6216 358.355 72.4234 363.313 69.1638 364.043C65.8894 364.823 64.0581 359.892 67.3641 359.091Z" fill="#6A2403"/>
<path d="M56.4838 381.862C55.7475 381.314 55.3339 380.405 55.7643 379.256C57.0196 376.13 62.1 377.72 60.8531 380.747L60.2919 381.622C61.6337 382.808 61.9924 385.051 59.8995 385.772C57.2665 386.698 55.2073 383.593 56.4838 381.862Z" fill="#6A2403"/>
<path d="M116.431 377.637C113.444 377.755 111.593 373.183 114.644 373.069C117.655 373.038 119.378 377.547 116.431 377.637Z" fill="#6A2403"/>
<path d="M107.429 398.085V398.353L107.424 398.366L107.367 398.992C107.205 399.424 106.878 399.671 106.513 399.848C107.298 401.511 105.937 403.307 103.654 402.124C101.77 401.14 101.629 399.317 102.528 398.461C102.338 398.069 102.253 397.645 102.424 397.177L102.494 397.069C102.19 396.192 102.45 395.315 103.678 395.105C105.732 394.742 107.513 396.747 107.429 398.085Z" fill="#6A2403"/>
<path d="M77.7971 384.828C74.6957 385.661 72.4066 381.059 75.546 380.22C78.6853 379.471 80.8521 384.037 77.7971 384.828Z" fill="#6A2403"/>
<path d="M58.5535 348.31C61.9587 347.526 63.4419 352.623 60.1464 353.443C56.8277 354.316 55.085 349.158 58.5535 348.31Z" fill="#6A2403"/>
<path d="M126.288 368.185C129.239 368.463 130.558 373.173 127.607 372.861C124.606 372.639 123.252 367.974 126.288 368.185Z" fill="#6A2403"/>
<path d="M72.9019 396.692C69.8743 397.729 67.254 393.266 70.406 392.261C73.48 391.317 75.9653 395.745 72.9019 396.692Z" fill="#6A2403"/>
<path d="M121.908 393.935C124.775 393.8 127.043 398.012 124.182 398.146C121.3 398.324 119.005 394.129 121.908 393.935Z" fill="#6A2403"/>
<path d="M91.1008 404.237C90.6599 402.651 91.9743 400.984 94.1073 402.084C96.5187 403.32 96.1031 405.988 94.2908 406.275C94.62 407.156 94.4723 408.059 93.2402 408.392C90.335 409.216 87.5248 405.105 90.508 404.283L91.1008 404.237Z" fill="#6A2403"/>
<path d="M64.4961 386.346C65.6059 383.323 70.6419 384.885 69.568 387.83C68.5131 390.731 63.3948 389.367 64.4961 386.346Z" fill="#6A2403"/>
<path d="M67.7062 401.222C66.8813 404.268 61.6469 403.347 62.5246 400.168C63.4107 396.985 68.5944 398.155 67.7062 401.222Z" fill="#6A2403"/>
<path d="M76.666 415.831C75.955 418.989 70.6658 418.396 71.4105 415.102C72.17 411.807 77.3917 412.635 76.666 415.831Z" fill="#6A2403"/>
<path d="M73.2142 408.428C72.4779 411.269 67.2456 410.325 68.041 407.357C68.828 404.397 73.9695 405.546 73.2142 408.428Z" fill="#6A2403"/>
<path d="M94.4428 397.286C93.4807 399.787 88.4911 398.233 89.4447 395.585C90.4574 392.967 95.4133 394.738 94.4428 397.286Z" fill="#6A2403"/>
<path d="M70.037 418.009C69.44 420.89 64.1592 420.268 64.8069 417.262C65.4504 414.241 70.6615 415.097 70.037 418.009Z" fill="#6A2403"/>
<path d="M67.2142 432.263C66.3788 435.862 61.0452 435.512 61.8976 431.749C62.8048 428.018 68.0919 428.639 67.2142 432.263Z" fill="#6A2403"/>
<path d="M64.9417 410.207C64.5366 413.451 59.2263 413.352 59.6588 409.935C60.1124 406.517 65.4734 406.977 64.9417 410.207Z" fill="#6A2403"/>
<path d="M69.2514 420.713C68.9139 424.259 63.6268 424.55 63.9327 420.778C64.3631 417.094 69.7071 417.193 69.2514 420.713Z" fill="#6A2403"/>
<path d="M81.7279 375.719C83.0507 372.825 87.9581 374.762 86.6711 377.595C85.42 380.386 80.424 378.63 81.7279 375.719Z" fill="#6A2403"/>
</g>
<path d="M136.736 349.919C137.298 355.76 132.447 359.477 127.31 359.414C122.179 359.35 118.487 355.413 118.126 349.685C117.795 344.381 122.428 340.597 127.559 340.186C133.027 339.743 136.217 344.634 136.736 349.919Z" fill="white"/>
<path d="M131.008 349.86C131.116 350.96 130.196 351.66 129.213 351.65C128.244 351.641 127.546 350.899 127.462 349.816C127.417 348.81 128.289 348.085 129.263 348.009C130.308 347.929 130.915 348.856 131.008 349.86Z" fill="black"/>
<path d="M167.575 342.486C167.67 343.466 166.858 344.092 165.984 344.082C165.119 344.069 164.497 343.413 164.436 342.446C164.379 341.546 165.168 340.909 166.026 340.835C166.955 340.766 167.493 341.584 167.575 342.486Z" fill="black"/>
<path d="M176.377 394.934C154.545 396.778 146.998 383.833 146.998 383.833" stroke="black" stroke-width="0.612" stroke-linecap="round"/>
<path d="M156.496 415.063C153.677 411.667 139.095 414.195 124.157 422.73C103.043 434.786 71.7654 437.885 78.4238 443.75C85.0801 449.595 88.8988 449.444 99.9161 446.908C111.416 444.264 122.87 442.74 139.548 430.237C149.209 422.99 152.087 419.326 156.496 415.063Z" fill="#68701F"/>
<path d="M83.4288 414.627C90.3341 408.073 114.202 398.929 121.913 407.846C129.612 416.771 112.584 447.152 112.584 447.152C112.584 447.152 145.908 445.2 144.18 447.551C142.454 449.905 127.639 449.486 127.639 449.486C127.639 449.486 145.787 451.59 145.444 453.654C145.095 455.717 126.924 452.484 126.924 452.484C126.924 452.484 141.652 459.408 140.262 461.084C138.897 462.76 125.846 457.707 115.54 454.998C105.233 452.281 98.8576 457.44 99.25 453.067C99.6614 448.683 108.122 432.556 108.122 432.556C108.122 432.556 94.5304 453.167 81.2599 447.806C59.4427 438.994 77.5636 420.228 83.4288 414.627Z" fill="#9DB22D"/>
<path d="M189.255 374.591C189.238 375.441 188.533 376.137 187.664 376.128C186.791 376.116 186.086 375.401 186.099 374.549C186.116 373.668 186.833 372.983 187.698 372.998C188.571 373.01 189.263 373.712 189.255 374.591Z" fill="black"/>
<path d="M195.646 372.414C195.638 373.107 195.07 373.657 194.378 373.647C193.692 373.638 193.135 373.073 193.142 372.382C193.15 371.703 193.724 371.153 194.414 371.163C195.102 371.174 195.65 371.733 195.646 372.414Z" fill="black"/>
<path d="M143.548 407.279C143.548 407.279 147.612 434.337 151.494 438.602C154.629 442.066 156.528 441.03 156.528 441.03C156.528 441.03 168.024 439.766 165.954 441.855C163.887 443.959 156.498 443.889 156.498 443.889C156.498 443.889 169.072 447.249 167.022 448.447C164.971 449.64 154.371 447.523 154.371 447.523C154.371 447.523 166.996 454.016 163.705 454.054C159.14 454.098 148.215 449.88 147.169 447.03C146.105 444.157 134.535 419.246 131.968 414.575C129.423 409.909 143.548 407.279 143.548 407.279Z" fill="#869A2A"/>
<path d="M569.095 400.266C572.645 392.23 583.365 369.184 604.534 349.07C625.399 329.246 644.645 322.642 639.641 340.071C634.63 357.5 602.76 382.263 587.435 396.228C581.087 402.008 566.47 406.212 569.095 400.266Z" fill="#DFDFCC"/>
<path d="M576.844 401.091C576.844 401.091 583.113 381.569 595.014 375.68C606.929 369.791 617.124 370.492 617.124 370.492" stroke="white" stroke-width="0.417"/>
<path d="M605.13 355.634C605.13 355.634 605.782 359.616 605.596 363.769C605.411 367.917 604.001 372.173 604.001 372.173" stroke="white" stroke-width="0.417"/>
<path d="M590.179 379.028C590.179 379.028 589.96 370.613 588.286 366.45C586.621 362.287 585.059 360.582 585.059 360.582" stroke="white" stroke-width="0.417"/>
<path d="M580.597 392.251C580.597 392.251 589.099 387.984 592.773 388.131L596.44 388.286" stroke="white" stroke-width="0.417"/>
<path d="M605.625 362.869C605.625 362.869 613.294 356.101 622.085 354.339C628.224 353.118 631.64 354.09 631.64 354.09" stroke="white" stroke-width="0.417"/>
<path d="M587.984 365.692C587.984 365.692 597.972 361.937 605.13 355.636C614.741 347.176 616.053 333.855 616.053 333.855" stroke="white" stroke-width="0.417"/>
<path d="M621.605 354.447C621.605 354.447 626.685 346.537 625.886 337.362C625.324 330.911 624.651 331.004 624.651 331.004" stroke="white" stroke-width="0.417"/>
<path d="M583.229 387.879C583.229 387.879 578.713 381.255 575.978 379.92C573.237 378.582 573.948 379.26 573.948 379.26" stroke="white" stroke-width="0.417"/>
<path d="M613.831 432.474C611.821 446.256 611.994 445.407 611.705 450.593C611.677 451.045 604.885 450.493 605.245 450.514" stroke="black" stroke-width="0.76" stroke-linecap="round"/>
<path d="M590.221 431.86C588.204 445.638 588.367 444.793 588.082 449.979C588.056 450.431 581.266 449.875 581.626 449.896" stroke="black" stroke-width="0.76" stroke-linecap="round"/>
<path d="M567.436 430.032C561.814 442.791 562.195 442.016 560.536 446.946C560.391 447.372 553.989 445.058 554.332 445.175" stroke="black" stroke-width="0.76" stroke-linecap="round"/>
<path d="M617.354 405.798C603.548 397.981 572.359 397.385 572.359 397.385C572.359 397.385 556.059 385.443 545.506 387.263C534.948 389.082 524.095 400.361 520.187 411.067C517.937 417.244 520.691 420.798 521.338 423.974C522.472 429.572 509.503 444.481 506.818 449.009C504.128 453.537 508.766 455.431 510.774 452.854C512.785 450.27 524.435 434.839 528.433 430.969C528.433 430.969 533.548 434.227 544.301 432.765C550.165 431.969 556.207 427.867 556.207 427.867C556.207 427.867 570.82 433.635 597.143 433.97C623.461 434.302 632.445 433.962 633.853 426.498C635.268 419.032 626.802 411.158 617.354 405.798Z" fill="#333333"/>
<path d="M531.577 404.715C526.133 406.177 522.106 401.556 522.177 395.741C522.252 389.912 528.941 385.405 534.462 386.556C542.525 388.241 544.413 401.278 531.577 404.715Z" fill="white"/>
<path d="M524.567 402.7C523.036 401.008 522.138 398.507 522.177 395.743C522.252 389.914 528.939 385.409 534.462 386.56C536.404 386.959 537.994 388.029 539.1 389.46" stroke="#CCCCB8" stroke-width="0.2" stroke-linecap="round"/>
<path d="M555.318 400.261C558.603 397.76 564.967 397.442 569.007 401.554C573.062 405.67 571.72 410.534 568.034 414.971C564.343 419.399 558.496 420.07 552.874 415.431C548.414 411.759 550.714 403.762 555.318 400.261Z" fill="white"/>
<path d="M530.731 394.657C530.707 396.153 529.743 396.758 528.707 396.746C527.674 396.733 526.838 395.78 526.858 394.606C526.873 393.445 527.728 392.517 528.763 392.527C529.794 392.538 530.746 393.495 530.731 394.657Z" fill="black"/>
<path d="M560.978 408.513C560.961 410.022 559.857 410.627 558.668 410.615C557.487 410.598 556.533 409.636 556.55 408.458C556.563 407.284 557.54 406.347 558.728 406.36C559.911 406.377 560.995 407.339 560.978 408.513Z" fill="black"/>
<path d="M588.81 399.416C588.81 399.416 590.068 411.179 585.604 422.552C583.03 429.12 580.471 431.434 580.471 431.434" stroke="#CCCCB8" stroke-width="0.656" stroke-linecap="round"/>
<path d="M617.393 408.696C617.393 408.696 617.301 419.268 612.11 425.895C608.57 430.419 604.714 433.516 604.714 433.516" stroke="#CCCCB8" stroke-width="0.656" stroke-linecap="round"/>
<path d="M603.595 401.63C603.595 401.63 605.337 410.313 600.881 420.545C598.316 426.453 591.642 431.463 591.642 431.463" stroke="#CCCCB8" stroke-width="0.656" stroke-linecap="round"/>
<path d="M578.033 401.601C585.119 396.328 603.958 380.149 634.067 369.403C661.258 359.697 686.77 365.565 673.754 378.287C660.727 391.02 614.37 401.115 594.091 405.794C585.693 407.734 572.793 405.486 578.033 401.601Z" fill="#DFDFCC"/>
<path d="M582.451 404.872C582.451 404.872 597.617 390.929 610.912 391.612C624.189 392.292 632.726 397.877 632.726 397.877" stroke="white" stroke-width="0.417"/>
<path d="M629.67 379.096C629.67 379.096 628.26 382.877 626.037 386.401C623.808 389.921 620.469 392.95 620.469 392.95" stroke="white" stroke-width="0.417"/>
<path d="M605.026 392.16C605.026 392.16 609.036 384.732 609.643 380.297C610.252 375.854 609.739 373.615 609.739 373.615" stroke="white" stroke-width="0.417"/>
<path d="M590.126 398.998C590.126 398.998 599.636 399.433 602.763 401.361L605.873 403.276" stroke="white" stroke-width="0.417"/>
<path d="M626.506 385.626C626.506 385.626 636.553 383.484 645.079 386.244C651.027 388.171 653.515 390.674 653.515 390.674" stroke="white" stroke-width="0.417"/>
<path d="M609.761 379.34C609.761 379.34 620.31 381.091 629.67 379.098C642.246 376.423 650.854 363.374 650.854 363.374" stroke="white" stroke-width="0.417"/>
<path d="M644.598 386.095C644.598 386.095 652.954 381.692 656.823 373.313C659.543 367.428 659.318 361.525 659.318 361.525" stroke="white" stroke-width="0.417"/>
<path d="M594.582 396.467C594.582 396.467 593.941 388.507 592.224 386.008C590.503 383.511 590.786 384.456 590.786 384.456" stroke="white" stroke-width="0.417"/>
<path d="M328.751 342.531C328.751 342.531 325.047 377.727 343.773 399.029C358.636 415.931 372.88 422.588 389.757 420.322C406.629 418.06 430.522 408.878 433.815 418.024C437.102 427.179 419.904 457.189 386.15 461.311C352.405 465.431 329.823 456.328 314.867 428.805C294.667 391.623 315.299 362.114 315.299 362.114L319.765 337.867C319.765 337.867 320.701 334.583 325.207 335.888C329.714 337.186 328.751 342.531 328.751 342.531Z" fill="#FFB300"/>
<path d="M325.814 392.022C329.297 401.812 337.282 419.625 359.296 429.77C366.452 433.063 377.731 436.994 386.263 437.504C403.974 438.565 417.438 433.348 410.741 436.477C401.282 440.89 378.703 448.64 351.103 432.405C340.473 426.145 330.705 412.315 325.685 401.764C320.672 391.213 324.998 389.726 325.814 392.022Z" fill="#6A2403"/>
<path d="M330.533 425.587C333.291 431.396 340.141 439.713 351.424 443.498C362.707 447.267 374.535 446.385 372.191 449.471C369.852 452.554 358.09 451.732 351.359 449.202C342.255 445.775 338.548 440.726 332.671 434.295C328.085 429.283 329.756 423.94 330.533 425.587Z" fill="#9B3403"/>
<path d="M435.999 420.153C435.952 423.856 435.267 427.434 432.525 427.402C429.802 427.363 425.347 426.09 425.399 422.387C425.446 418.682 425.914 414.307 428.649 414.341C431.377 414.375 436.047 416.445 435.999 420.153Z" fill="#6A2403"/>
<path d="M319.794 336.906C319.909 335.904 321.299 335.387 323.501 335.398C326.014 335.407 329.312 337.478 328.837 341.149C328.602 342.927 325.903 342.217 323.763 341.372C321.622 340.525 319.611 338.445 319.794 336.906Z" fill="#D0B208"/>
</svg>
