<?xml version="1.0" encoding="UTF-8" standalone="no"?>
<svg
   width="250"
   height="150"
   viewBox="0 0 250 150"
   fill="none"
   version="1.1"
   id="svg22"
   sodipodi:docname="svgGlo7Duck.svg"
   inkscape:version="1.2.1 (9c6d41e410, 2022-07-14)"
   xmlns:inkscape="http://www.inkscape.org/namespaces/inkscape"
   xmlns:sodipodi="http://sodipodi.sourceforge.net/DTD/sodipodi-0.dtd"
   xmlns="http://www.w3.org/2000/svg"
   xmlns:svg="http://www.w3.org/2000/svg">
  <defs
     id="defs26" />
  <sodipodi:namedview
     id="namedview24"
     pagecolor="#ffffff"
     bordercolor="#000000"
     borderopacity="0.25"
     inkscape:showpageshadow="2"
     inkscape:pageopacity="0.0"
     inkscape:pagecheckerboard="0"
     inkscape:deskcolor="#d1d1d1"
     showgrid="false"
     inkscape:zoom="1.8266925"
     inkscape:cx="83.210501"
     inkscape:cy="81.841907"
     inkscape:window-width="1920"
     inkscape:window-height="1018"
     inkscape:window-x="-8"
     inkscape:window-y="-8"
     inkscape:window-maximized="1"
     inkscape:current-layer="svg22" />
  <g
     id="g314"
     transform="translate(0,-6)">
    <path
       d="m 82.796981,40.411473 c 0.276043,-3.189445 2.122988,-12.741705 2.122988,-12.741705 0,0 -10.581179,2.304533 -14.302776,0.973803 -3.73046,-1.329368 -11.493943,-8.290194 -11.493943,-1.329368 0,6.96889 5.857277,14.511532 8.501027,16.813343 8.698882,7.565608 15.204154,7.58849 15.204154,7.58849 0,0 -0.277316,-8.478762 -0.03145,-11.304563 z"
       fill="#ffb300"
       id="path2"
       style="stroke-width:0.822966" />
    <path
       d="m 146.70445,117.16658 c 0,0 3.1211,6.59154 6.17374,10.00173 2.69035,2.99848 6.54078,5.40662 5.68725,5.85235 -1.81932,0.96206 -15.13496,7.79349 -14.70024,8.50547 0.42836,0.70603 3.27318,-0.75706 4.40378,1.40525 1.13459,2.164 1.93158,3.59902 2.65215,3.43485 0.72135,-0.16843 3.99533,-1.46054 4.59566,0.28666 0.60989,1.74635 0.51196,4.99832 1.88461,3.06568 1.37026,-1.93008 8.44449,-15.16932 8.16821,-17.80203 -0.13615,-1.31763 -5.35205,-4.18341 -8.94451,-8.0708 -3.59564,-3.88569 -5.56862,-8.78703 -5.56862,-8.78703 z"
       fill="#ffb300"
       id="path4"
       style="stroke-width:0.822966" />
    <path
       d="m 123.39904,117.57403 c 0,0 -2.31336,4.03285 -3.44675,9.16726 -1.14478,5.21948 -1.12209,11.53202 -2.01463,11.00548 -1.78014,-1.04883 -13.25768,-8.05038 -13.55267,-7.2678 -0.29754,0.78343 1.1056,2.94064 0.0983,5.17184 -1.00982,2.23632 -1.70451,2.50171 -1.16237,3.03846 0.54205,0.53335 3.40264,2.66163 2.41041,4.19022 -0.99971,1.52943 -3.55009,3.30981 -1.28339,3.40168 2.27562,0.0995 14.05444,-0.44488 16.24431,-1.68766 3.13917,-1.77697 2.36511,-9.59683 4.31667,-16.77787 1.53437,-5.62268 3.87925,-10.27223 3.87925,-10.27223 z"
       fill="#ffb300"
       id="path6"
       style="stroke-width:0.822966" />
    <path
       d="M 83.820496,27.966128 C 88.451115,7.3396048 126.51083,4.8370618 126.71506,42.49918 c 0.0794,15.384365 4.35577,17.909808 4.35577,17.909808 L 84.918536,75.149424 c 0,0 -5.205476,-28.874883 -1.09804,-47.183296 z"
       fill="#41aa54"
       id="path8"
       style="stroke-width:0.822966" />
    <path
       d="m 84.478635,71.757953 c 0,0 -9.003986,30.647597 17.947545,44.599667 18.95361,9.8129 44.81491,9.85713 61.29466,-3.52076 16.47496,-13.37449 30.31372,-44.306036 27.67909,-44.976844 -2.63622,-0.678805 -6.59333,2.847406 -6.59333,2.847406 0,0 5.26925,-8.453158 3.29627,-8.453158 -1.97378,0 -7.90547,5.605752 -7.90547,5.605752 0,0 4.81541,-6.457065 1.97378,-5.605752 -3.46666,1.046533 -8.0886,7.48063 -17.19553,8.739992 -20.1351,2.788117 -34.95119,-10.845222 -34.95119,-10.845222 z"
       fill="#b7b19a"
       id="path10"
       style="stroke-width:0.822966" />
    <path
       d="m 83.313635,67.63664 v 10.042479 c 0,0 17.957655,-2.881006 25.617735,-4.506734 17.33487,-3.689108 22.13946,-12.763227 22.13946,-12.763227 l -2.02219,-7.226121 c 0,0 -1.27209,5.947876 -16.37418,10.527339 -6.70575,2.033862 -29.360825,3.926264 -29.360825,3.926264 z"
       fill="#ffffff"
       id="path12"
       style="stroke-width:0.822966" />
    <path
       d="m 105.83176,39.957491 c -3.87542,0.561673 -6.449855,-2.04458 -6.981875,-6.182225 -0.5282,-4.137731 1.703235,-7.444394 5.577465,-8.010064 3.87414,-0.560312 6.64014,2.44863 7.16962,6.589083 0.52326,4.133647 -1.89233,7.034814 -5.76521,7.603206 z"
       fill="#ffffff"
       id="path14"
       style="stroke-width:0.822966" />
    <path
       d="m 103.64723,34.163154 c -0.82455,0.1213 -1.24438,-0.465976 -1.33634,-1.154223 -0.0858,-0.690968 0.36434,-1.324009 1.00982,-1.416983 0.64293,-0.09425 1.23673,0.386527 1.32248,1.077496 0.0908,0.68697 -0.35176,1.403543 -0.99596,1.49371 z"
       fill="#000000"
       id="path16"
       style="stroke-width:0.822966" />
    <path
       d="m 149.56997,77.592695 c 12.45177,0.785219 20.66537,-9.400082 18.70911,-2.614333 -1.95069,6.788386 -9.50981,28.487078 -27.5931,25.356748 -18.08012,-3.13151 -22.16359,-17.867952 -14.42778,-24.828761 7.64495,-6.884082 14.13398,1.50579 23.31177,2.086346 z"
       fill="#ccccb8"
       id="path18"
       style="stroke-width:0.822966" />
    <path
       d="m 87.43811,43.526999 c 0,0 0.968259,2.289732 2.604609,2.627859 2.087795,0.428293 3.19093,-1.315929 3.19093,-1.315929"
       stroke="#000000"
       stroke-width="0.785933"
       stroke-linecap="round"
       id="path20" />
  </g>
</svg>
