<?xml version="1.0" encoding="UTF-8" standalone="no"?>
<svg
   width="210"
   height="150"
   viewBox="0 0 210 150"
   fill="none"
   version="1.1"
   id="svg1416"
   sodipodi:docname="svgGlo8TortoiseFlip.svg"
   inkscape:version="1.2.1 (9c6d41e410, 2022-07-14)"
   xmlns:inkscape="http://www.inkscape.org/namespaces/inkscape"
   xmlns:sodipodi="http://sodipodi.sourceforge.net/DTD/sodipodi-0.dtd"
   xmlns="http://www.w3.org/2000/svg"
   xmlns:svg="http://www.w3.org/2000/svg">
  <defs
     id="defs1420" />
  <sodipodi:namedview
     id="namedview1418"
     pagecolor="#ffffff"
     bordercolor="#000000"
     borderopacity="0.25"
     inkscape:showpageshadow="2"
     inkscape:pageopacity="0.0"
     inkscape:pagecheckerboard="0"
     inkscape:deskcolor="#d1d1d1"
     showgrid="false"
     inkscape:zoom="7.7761905"
     inkscape:cx="104.9357"
     inkscape:cy="48.481323"
     inkscape:window-width="3840"
     inkscape:window-height="2066"
     inkscape:window-x="-11"
     inkscape:window-y="-11"
     inkscape:window-maximized="1"
     inkscape:current-layer="svg1416" />
  <mask
     id="mask0"
     mask-type="alpha"
     maskUnits="userSpaceOnUse"
     x="16"
     y="0"
     width="131"
     height="80">
    <path
       d="m 101.308,3.04905 c 30.274,7.67325 45.213,33.15415 45.213,33.15415 0,0 -9.287,20.5332 -17.399,26.722 -8.103,6.1903 -28.253,22.9382 -70.0464,13.8319 -37.85,-8.2478 -42.2957,-28.4408 -42.2957,-28.4408 0,0 17.3747,-18.636 24.6663,-26.468 7.3023,-7.8214 26.9513,-22.389489 48.0423,-20.74176 4.1605,0.32955 8.1028,0.99771 11.8195,1.94251 z"
       fill="#ffe610"
       id="path1383" />
  </mask>
  <g
     id="g1448"
     transform="translate(8.6160441,-5.5296999)">
    <path
       d="m 20.425881,81.608996 c 0,0 -2.570284,2.214077 -8.167005,2.641463 -5.5954862,0.414527 -9.6418752,-2.099461 -9.5941345,-0.758207 0.04377,1.342615 3.8753079,7.588372 12.4574405,7.589649 8.582134,0.0077 12.757216,-3.370036 12.757216,-3.370036 z"
       fill="#7dc328"
       id="path1361"
       style="stroke-width:0.863036" />
    <path
       d="m 179.59316,53.86359 c -4.4207,-4.7422 -17.10374,-8.553749 -27.9508,-3.525782 -10.83569,5.020312 -22.24781,19.343562 -22.24781,19.343562 0,0 -7.58446,-0.596075 -16.73199,-1.313067 L 107.84738,94.95 l 15.12693,9.80756 c 6.2558,-2.187 13.521,-5.018951 22.23818,-8.708228 44.82975,-18.912259 41.9074,-34.13141 34.38067,-42.185742 z"
       fill="#77b121"
       id="path1363"
       style="stroke-width:0.863036" />
    <path
       d="m 112.0529,99.929183 c 0,0 15.33336,-3.124198 23.34992,-7.688768 12.71103,-7.234304 17.41687,-17.709977 17.41687,-17.709977 0,0 -8.09528,7.821352 -16.20018,13.005074 -8.08915,5.19147 -24.25347,8.181807 -26.55304,8.853668 -2.29432,0.671947 0.69013,3.71636 0.69013,3.71636 z"
       fill="#ffe610"
       id="path1365"
       style="stroke-width:0.863036" />
    <path
       d="m 104.82444,90.106212 c 0,0 17.081,-4.824629 21.8367,-6.944697 13.36967,-5.947123 15.26251,-14.382432 15.26251,-14.382432 0,0 -5.31551,5.127095 -13.7318,9.772731 -8.41804,4.649553 -20.59551,8.954149 -22.93269,9.471627 -2.34243,0.523865 -1.73364,2.17414 -1.73364,2.17414 z"
       fill="#ffe610"
       id="path1367"
       style="stroke-width:0.863036" />
    <path
       d="m 109.36847,94.965583 4.49067,-26.58042 C 96.698545,66.942151 67.950639,64.65084 50.926935,63.918434 37.00664,63.318528 19.415261,81.04264 16.143386,80.742729 c 0,0 0.09814,7.646276 16.474659,18.791256 7.258549,4.940525 36.055439,12.398785 52.226405,12.450295 12.132248,0.0322 21.13808,-0.65908 38.55671,-7.21889 z"
       fill="#ffe610"
       id="path1369"
       style="stroke-width:0.863036" />
    <path
       d="m 111.054,90.960983 c 0,0 15.25989,3.30566 17.15884,6.790228 1.90596,3.487119 0.39361,10.657139 0.39361,10.657139 0,0 5.26915,-1.61809 8.78629,-2.8191 3.50927,-1.19453 6.81561,-1.66058 8.18625,0.40806 0.51607,0.77754 -3.52501,0.84574 -5.96715,2.00298 l -2.44389,1.15979 c 0,0 4.85104,-0.23298 7.03252,1.02721 2.18324,1.24869 4.78107,3.22204 3.46291,4.27496 -0.47583,0.37723 -5.15194,-2.19986 -8.03143,-1.71457 -4.11018,0.6912 -5.81145,2.22949 -5.81145,2.22949 0,0 4.58688,0.58058 6.12547,2.25657 0.66039,0.72985 1.27443,1.69533 1.24819,2.26296 -0.0332,0.75565 -0.77411,0.92681 -4.03059,-0.37587 -3.24248,-1.30012 -14.66159,-2.308 -16.51157,-4.36761 -1.85435,-2.06991 0.79335,-7.53813 -4.32885,-11.42181 -5.10646,-3.881046 -14.14028,-5.506797 -14.14028,-5.506797 z"
       fill="#7dc328"
       id="path1371"
       style="stroke-width:0.863036" />
    <path
       d="m 16.26838,110.30437 c 0.55438,1.28344 3.234788,2.25402 6.006601,4.10253 3.01454,2.00681 6.174979,4.84515 7.294411,4.99068 2.144484,0.27547 -2.139236,-5.28037 -2.139236,-5.28037 0,0 8.701442,4.60578 9.734629,3.83991 1.041059,-0.77234 -0.533126,-4.98165 -4.139221,-6.27147 -3.600759,-1.28343 4.859355,0.19696 8.960089,1.8922 1.299793,0.53297 2.064974,-1.85099 -3.36468,-4.54652 -5.432278,-2.68651 -11.887159,-4.22472 -11.216095,-5.31247 0.66844,-1.09934 7.185686,-4.693327 7.185686,-4.693327 L 27.239123,95.8872 c 0,0 -12.135134,11.76158 -10.970743,14.41717 z"
       fill="#7dc328"
       id="path1373"
       style="stroke-width:0.863036" />
    <path
       d="m 157.73197,53.509607 c 1.70127,0.249755 3.9816,1.229362 5.38898,4.264659 2.43077,5.241711 -1.27355,10.982848 -6.30654,10.635251 -5.0356,-0.348789 -7.77164,-4.106274 -7.36316,-8.05561 0.41898,-3.953082 3.26086,-7.585732 8.28072,-6.8443 z"
       fill="#ffffff"
       id="path1375"
       style="stroke-width:0.863036" />
    <path
       d="m 159.30554,58.967693 c 0.28515,0.0065 0.85545,0.01294 1.10036,0.804531 0.24142,0.78784 -0.23791,1.721123 -1.06712,1.661856 -0.82746,-0.05535 -1.27181,-0.673224 -1.21233,-1.318092 0.0726,-0.661642 0.35425,-1.170094 1.17909,-1.148295 z"
       fill="#000000"
       id="path1377"
       style="stroke-width:0.863036" />
    <path
       d="m 169.89194,70.516811 c 0,0 1.75201,3.184657 4.54578,3.453743 4.18103,0.392557 5.43621,-2.860308 5.43621,-2.860308"
       stroke="#000000"
       stroke-width="0.819021"
       stroke-linecap="round"
       id="path1379" />
    <path
       d="m 89.847079,41.44944 c 26.480441,6.534043 39.547471,28.23193 39.547471,28.23193 0,0 -8.12327,17.484746 -15.21877,22.754727 -7.08764,5.27126 -24.712691,19.532693 -61.269066,11.778353 C 19.799601,97.191156 15.91098,79.996103 15.91098,79.996103 c 0,0 15.197521,-15.869213 21.575429,-22.538438 6.387267,-6.660198 23.574101,-19.065441 42.022242,-17.662341 3.639158,0.280623 7.087459,0.849585 10.338428,1.654116 z"
       fill="#ffe610"
       id="path1381"
       style="stroke-width:0.863036" />
    <g
       mask="url(#mask0)"
       id="g1414"
       transform="matrix(0.87469255,0,0,0.85153534,1.233727,38.853066)">
      <path
         d="M 102.561,10.727 101.392,29.1105 88.9143,18.5242 83.8925,0.365894 92.7262,-2.98853 100.28,-1.58569 Z"
         fill="#2a773a"
         id="path1386" />
      <path
         d="M 61.7276,3.33193 66.2824,20.3807 77.7285,36.731 87.3506,19.4933 82.5911,-0.524362 71.0631,-2.07837 Z"
         fill="#2a773a"
         id="path1388" />
      <path
         d="m 48.8262,28.8309 -0.646,-18.3534 -13.91,6.4156 -6.6305,9.0731 -0.5383,6.2659 c 0,0 1.5162,2.5049 3.0628,4.3174 1.5254,1.8034 6.2272,6.795 6.2272,6.795 z"
         fill="#2a773a"
         id="path1390" />
      <path
         d="m 102.421,2.18604 1.629,8.50316 20.318,2.0045 -10.238,-9.8002 z"
         fill="#2a773a"
         id="path1392" />
      <path
         d="M 49.6658,10.1209 50.2283,27.803 64.249,19.7397 60.6328,4.68945 Z"
         fill="#2a773a"
         id="path1394" />
      <path
         d="m 44.0391,50.1621 c 0,0 4.0544,2.1194 11.7266,3.9848 7.6616,1.8609 9.331,1.9501 9.331,1.9501 l -4.1818,22.5527 c 0,0 -8.0164,-0.0483 -16.3376,-5.8139 -8.3272,-5.7731 -11.158,-2.6061 -11.158,-2.6061 z"
         fill="#2a773a"
         id="path1396" />
      <path
         d="m 67.124,56.3962 c 0,0 5.5889,0.9161 13.4446,1.093 l 7.8541,0.1678 2.2365,20.9806 c 0,0 -7.2992,4.012 -19.3883,1.6402 -9.6812,-1.8957 -8.961,-1.2033 -8.961,-1.2033 z"
         fill="#2a773a"
         id="path1398" />
      <path
         d="m 24.4769,31.6772 c 0,0 4.6169,6.8525 10.5955,12.482 5.9709,5.6265 7.0399,5.1125 7.0399,5.1125 l -9.3704,17.9618 c 0,0 -9.8252,-3.3771 -14.7424,-12.807 -4.9036,-9.4177 -3.1068,-7.1487 -3.1068,-7.1487 z"
         fill="#2a773a"
         id="path1400" />
      <path
         d="m 113.305,49.1418 c 0,0 1.981,-1.0174 8.647,-5.2123 4.576,-2.8662 8.156,-5.9349 8.156,-5.9349 l 13.91,17.8877 c 0,0 -5.645,6.7618 -15.086,9.8396 -9.441,3.0717 -7.488,2.783 -7.488,2.783 z"
         fill="#2a773a"
         id="path1402" />
      <path
         d="m 131.49,36.7141 c 0,0 3.921,-3.3075 6.672,-6.6241 5.319,-6.4201 5.197,-8.5456 5.197,-8.5456 l 18.018,12.6074 c 0,0 -3.618,8.2825 -11.85,14.2748 -8.231,5.9787 -4.788,4.7044 -4.788,4.7044 z"
         fill="#2a773a"
         id="path1404" />
      <path
         d="m 90.0426,57.6238 c 0,0 4.6351,-0.7362 11.3994,-2.6545 7.608,-2.1663 10.35,-4.1375 10.35,-4.1375 l 7.702,18.3518 c 0,0 -7.099,7.2122 -16.898,8.1343 -9.809,0.9297 -9.4891,3.0567 -9.4891,3.0567 z"
         fill="#2a773a"
         id="path1406" />
      <path
         d="M 76.6958,55.6631 77.2295,39.2055 65.236,21.0532 49.934,30.0024 37.3977,44.4102 c 4.5109,3.7943 8.0407,4.727 13.2111,6.4896 13.4081,4.5986 26.087,4.7633 26.087,4.7633 z"
         fill="#2a773a"
         id="path1408" />
      <path
         d="m 140.193,24.2536 -10.663,-9.832 -25.338,-2.2917 -1.561,18.6012 9.48,16.6799 c 0,0 3.604,-2.0786 9.66,-5.6522 12.409,-7.3316 18.422,-17.5052 18.422,-17.5052 z"
         fill="#2a773a"
         id="path1410" />
      <path
         d="m 78.8214,55.5784 -0.5367,-16.6723 10.036,-17.9527 13.2233,10.426 9.364,17.5476 c 0,0 -5.201,3.3378 -15.0319,5.4436 -9.9268,2.1178 -17.0547,1.2078 -17.0547,1.2078 z"
         fill="#2a773a"
         id="path1412" />
    </g>
  </g>
</svg>
