<?xml version="1.0" encoding="utf-8"?>
<!-- Generator: Adobe Illustrator 25.3.1, SVG Export Plug-In . SVG Version: 6.00 Build 0)  -->
<svg version="1.1" id="Layer_1" xmlns="http://www.w3.org/2000/svg" xmlns:xlink="http://www.w3.org/1999/xlink" x="0px" y="0px"
	 viewBox="0 0 1024 371" style="enable-background:new 0 0 1024 371;" xml:space="preserve">
<style type="text/css">
	.st0{fill:#2BB572;}
	.st1{fill:#231F20;fill-opacity:0.31;}
	.st2{fill:#869A2A;}
	.st3{fill:#68701F;}
	.st4{fill:#FFFFFF;}
	.st5{fill:#869A2A;filter:url(#Adobe_OpacityMaskFilter);}
	.st6{mask:url(#mask0_1_);}
	.st7{fill:#6A2403;}
	.st8{fill:#9DB22D;}
	.st9{fill:#FF0000;}
	.st10{fill:#231F20;fill-opacity:0.35;}
	.st11{fill:none;stroke:#000000;stroke-width:0.786;stroke-linecap:round;}
	.st12{fill:#869A2A;filter:url(#Adobe_OpacityMaskFilter_1_);}
	.st13{mask:url(#mask1_1_);}
</style>
<path class="st0" d="M1024,371c-40-91.3-116.6-115.9-268-151c-151.4-35.1-433,39.4-608.1,39.8c-175.1,0.5-17.9,41.3-97.2,56.9
	C-28.6,332.3-3.6,416,39,442.2c42.6,26.1,527.4,19.5,559.3,14.8C630.1,452.3,1064,462.3,1024,371z"/>
<path class="st1" d="M709.7,277.6c-1.9,0.2,1,0.4-1.2,0.3C708.7,277.6,709.1,277.4,709.7,277.6z"/>
<path class="st1" d="M760.1,284.3c-2.8,1.5-6.3,1.3-9.7,2.2c-2.9,0.8-0.9,1.8,1.1,1.7c1.7,0.2,3.5,0.2,5.1,0.1
	c0.8,0-0.2,0.8,1.5,0.6c6.4-1,16.3-1.2,24.1-1.3l-0.4,0.3c1.5,0,3.2-1,4.7-1.1c0,0.1-0.5,0.3-0.1,0.4c0.3-0.5,2.8-0.6,3.4-1
	c0.6,0.1,0.6,0.4,1.4,0.5l0.8-0.6c2.3-1.6,6-0.9,9.2-2.1c-0.1,0.1-0.5,0.3-0.2,0.4c5.2-1.7,11.9-2.9,17.7-4.6
	c-0.2,0.2-0.3,0.6,0.1,0.7c0.2-0.6,1.9-1.2,3.5-1.7c0.9,0.3,2.5-1.2,4.4-1.5l-0.1,0.2c1.1-1,2.1-0.4,2.8-1.5l0.9,0
	c0.1-1,2.2-0.7,0.6-1.1l0,0.2c-0.9,0-1.5-0.4-2.5-0.3l-0.1-0.1c-2.4,0.2-3.8-0.2-3.7,0.4c-0.9-0.4,2.3-0.3,1-1
	c-7.8,0.9-15.9,1.8-23.7,2.6c-0.9-0.1-1.5-0.2-1.7-0.4c-0.8,0.2-3,0.4-3.6,0.8c0.3,0-0.5-0.2-1-0.2c-1.5-0.1-1.5,0.8-3.1,0.7
	c0.6-0.2,0.8-0.4,0.6-0.6c-1.3,0.6-3.1,0.7-4.7,1.1c0.2-0.1,0.6-0.2,0.5-0.4c-1.7,0.7-3.2,0.2-4.7,0.7l0.5-0.4
	c-2.5-0.2-0.7,0.8-2.8,0.8c0.5-0.2,0.3-0.3,0.4-0.4c-1.9,0.8-5.2,0.9-7.1,1.2c0.1-0.1,0.1-0.1,0.1-0.1c-2.1,0.2-4.4,0.2-6.7,0.6
	c-0.9-0.1,0.2-0.9-2-0.5c0.1,0.7-3.8,0.6-2.4,1.3c-1.9,0.1-5,0.1-6.3,0.5c0.8-0.4-1-0.7,0.6-1l-1.3-0.3c0.2-0.3,1.3,0,0.8-0.4
	c-0.8,0.1-3.1,0.6-3.9,0.6c-1.5,0.6-2.7,1.5-5.1,1.9c1.1-0.4-0.7-0.7,0-0.9L746,283c-0.8,0.1-0.2-0.5-1.4-0.2
	c0.1,0.2-0.4,0.4-0.7,0.6c-0.3,0-3.3,0.7-3.7,0.1c-0.4-0.2,1.3-0.4,0.4-0.5c-1.5,0.3-1.5,0.5-3,0.8l0-0.1c-1,0.1-2.8,0.9-1.7,1
	c0.7-0.1-0.3-0.4,0.7-0.4c-0.6,0.5-2.2,1-3.6,1.4c0.4-0.2,0.3-0.4,0.5-0.6c-0.7-0.2-2.2,2.7-1.3-0.4c-0.6-0.9,1.2-0.1,2-0.3
	c0.1-0.3-0.9,0.5-1.1,0.2c2.6,0.9,5.8-0.1,8.1,0.7c-0.4,0-0.2-0.5-0.2-0.4c1.4,0.1,1.3,0.6,2.2,0.4c0.1,0.3,1.1-0.1,2.1-0.1
	c0.5-0.2,0.2,0.1-0.6,0.1c1.3-0.2,6.5-0.5,9.4-0.1c-0.1-0.2,1.8-0.7,2.5-0.6l-0.3,0.4c0.6,0.3,2.3,0,2.4,0.3c1.5-0.5-5.7,0.4-3.7,0
	c0.5,0.4,2.8-0.7,2.3-0.1c1.4,0,2.7-0.5,4-0.1c-0.4-0.1-1.1,0.6,0,0.6c2-0.1,0.6-0.2,2.2-0.4l1-0.2c0.1-0.4,1.8,0.1,1-0.4
	c0.2,0.3,2.8-0.2,2.7,0.5l-0.3,0.5c0.8,0,1.4-0.6,2-0.8c0.1,0,0.3,0.2,0.3,0.2c0.1-0.8,2,0,3-0.6c1.8,0.3,4.5,0,5.4,0.5
	c1.4-0.3,2.6-0.6,4.2-0.4c-0.3,0.1-0.7,0.1-0.8,0.3c1,0.2,1.2,0,2.1-0.2c-0.2,0.1,2,0.4,3.1,0.7c1.4-0.3,0.9-0.7,1-1
	c1.3,0.8,3.8-0.6,5.4,0.1c-0.5,0.1-2,0.4-0.8,0.6c1.3,0.8,2.5-0.7,4.5-0.3l-0.5-0.7c0.9,0.4,2.9-0.5,2.7,0.2
	c0.7-0.3,2.4,0.1,2.1-0.5c3.3,0.4,8-0.7,10,0.3c0.5-0.1,1.6-0.1,1.4-0.4c-0.8-0.3-1.1,0.3-1.4,0.1c0.4,0,0.5-0.2,0.5-0.3
	c1,0.1,1.8,0.1,0.9,0.7c2.3,0.3,2.3-1.3,5.2-1.2c-0.1,0.3,0.1,0.4,1,0.3l1.6-0.6c1.9,0,1.1,0.6,1.2,1c1-0.1,2.2-0.2,2.6-0.6l1.3,0.5
	c-0.9-0.4,0.8-0.3,1.3-0.5l-0.5,0.1c0.2,0.2,1.3,0,1.9-0.1c-0.2-0.3-1.3-0.3-2-0.3c0.5-0.2,1.3-0.3,2-0.5c-0.2,0.5,1.6,0.2,2.4,0.2
	c0.9,0,1-0.5,1.3-0.5c0,0.2,1.5-0.1,0.8,0.3c-0.3,0.1-0.7-0.2-1.2,0.1c0.6,0.1,0.6,0.5,1.8,0.1c0.9-0.3-0.3-0.9,1.5-0.7
	c-0.5,0.2-0.5,0.3-0.9,0.5l1.7,0.1l0-0.4c0.2,0.1,0.1,0.1,0.2,0.2c0.5-0.5,2.5-0.4,2.9-0.9c0.8-0.1,1.8,0.1,2.6,0.1l-0.2,0
	c1,0.2,2.3-0.1,3.1-0.5l0,0.1c0.5,0,1.8-0.2,2.4-0.5c1.4,0.2,0.6,1.5,2,0.9c1.4-0.2,2.1-1,1.5-1.2c2.5,0,5.2-1,7.5-0.6
	c0.3-0.2,0.1-0.3,0.8-0.5c1.8-0.2,3.7-0.5,5.3-0.9c0.8-0.2,1.7-0.3,2.2-0.5c0.2,0.7,1.1-1.9-0.5,2.1c1.4,2.1,0.4,0.9,0.8,1.2
	c0-0.4,0.2-0.3,0.3-0.6c0.5,0.3-0.7-0.4-0.7,0.2c-0.2,0.4,0.6,0.6,0.4,0.7c-0.9,0.3-5.1,0.2-6-0.1c0.6,0.2,0.1,0.3-0.3,0.4
	c0.2-0.6-1.4-0.7-2.6-0.5l-0.2,0.4l-0.8-0.4c-0.5,0.1-0.5,0.8-1.7,0.4c-0.1-0.1-0.1-0.3-0.4-0.4c-1.2,0.3-3,0.8-4.4,0.5l-1.1-0.5
	c-0.6,0.1-1.6,0.4-0.5,0.5c-2.3-0.3-3.8-0.3-4.6-0.8c-4,1.2-9.8,1.3-14.4,1.3l0.1-0.3c-1.3-0.2-0.6,0.5-1.5,0.3c0.4-0.3-1-0.6,0-0.9
	c-1.8-0.3-2.3,0.5-3.5,0.6c-0.2,0.4,0.9-0.2,0.7,0.2c-0.2,0.1-2.5-0.2-2.8,0.3c-0.5-0.2-0.1-0.6,0.1-0.8l-1.1,0.3
	c-1.3-0.6,3-1.1,1.6-1.9l-1,0.1c-1-0.6,2.7-0.6,0.1-0.8c-1.1,0.3-2,1-1.1,1.3c-2.3,0.1-1.1,1.3-3.5,1.2c-0.7-0.3,2-0.1,1.5-0.5
	c-1.2-0.5-2.3,0.2-3.4,0.1c1.1,0.2,0.2,0.8-0.6,0.9c-1.2-0.3,0.8-0.5-1-0.6c-0.3,0.3-1.9,0.5-0.5,0.8c-0.7,0.7-1.8-0.2-2.8,0.3
	c-0.6-0.5,1.8-1.1-0.1-1.4c0.3,0.5-2.4,0.6-1.4,1.4c-0.8-0.1-0.8-0.5-0.3-0.8c-1-0.3-2.6,0.9-3-0.1l-0.4,0.5
	c-0.3-0.2-0.8-0.3-1.4-0.6c-1,0-3.1,0.6-3-0.1c-0.3,0.1-2.5,0-1.7,0.5c1.4,0.3,1.6-0.4,2.3,0.3c-1-0.6-2,0.1-2.8,0.2l-0.1-0.3
	c-0.5,0.1-1.5,0-1.8,0.3c0.4-0.2,0.2-0.4-0.2-0.4l-0.5,0.4c-1.9,0.2-0.4-0.8-2.3-0.7l1.4-0.3c-0.3,0.1-0.9-0.3-1.8-0.2
	c-0.3,0.4-1,0.9-1.3,1.2c-1,0.2-0.5-0.5-1.5-0.1l1.4-0.5c0.2-0.1-0.9-0.7-2.3-0.7c-0.9,0.1-2.3,0.7-0.9,0.9c-0.7,0-1.7-0.3-1.1-0.5
	c-1.6,0.1,0.2,0.4-1.2,0.7c-0.6-0.3-2.3-0.7-3.3-1.1l1.4-0.7l-0.9,0c1.2-0.5-0.6-0.4,0.1-1c-0.6-0.1-1.4,0.1-2.1,0.2
	c1.9,0.9-2.1,1.2-1.6,2c-2.6,0.2-1.6-2-4.3-0.8c0.4,0.2-0.8,0.8,0.8,0.6c-1.6-0.1-1.1,0.8-3,0.5c1.4-0.3-1.5-0.9,0.5-1.3
	c-0.1,0.3,1.1,0.2,1.4,0.1c-0.7-0.3,0.1-0.8-1.5-0.9c-1,0.1-2.4,0.1-2.2,0.5c0,0.5,1.5,0,0.9,0.4c-2,0.1-2.3-0.6-3.2,0.2
	c1.3-0.1,1.6,0.4,1.5,0.8l-1.5,0.2l0.3-0.3c-2.4-0.3-0.7,0.6-3,0.5l-1.1-0.6c0.6-0.5,3.3,0.3,2.9-0.6c-1.5-0.1-2,0.4-3.4,0.1
	l1.1-0.2c-0.5,0-1.1-1.2-3.2-0.5c-1.1,0.3-0.3,0.3-0.3,0.6c-2.4,0.1-3.1,0.4-4.6,0.4c0.3-0.6-2.7-0.1-1-0.7c0.8,0.4,4.2,0.4,5.1-0.2
	c-0.9-0.8,1.9,0.1,2.4-0.6c-1.9,0-1.8-0.8-2.1-1.3c-0.5,0-1,0.2-1.4,0.2c-0.2,0.5,0.5,0.5,0.5,0.9c-2.1-0.1-4.2,0.1-5.4,0.5
	c-0.7-0.2-0.5-0.7,0.4-0.7c-2.5,0.1-5.3,0-7.7-0.1c1.6,0.8-2.7,0.2-1.6,0.8c1.3,0.2,2.4,0.7,1.7,1c-0.8-0.1,0-0.3-0.3-0.5
	c-1,0.4-1.6-0.7-2.6,0c2.3-0.2,0.5-0.9,0.9-1.5c-1.7,0.3,0.1-0.4-1.6-0.4c-1.7,0.3-3.7,0.6-5.6,0.7c-2.3-0.6-5.9,0-8,0
	c-1.1-0.3-0.3-1-1.5-1.1c-1.4,0,1,0.7-1,0.4l0.2-0.1c-0.6,0.1-3.8-0.4-4.4,0.5l0.6-0.7c-0.4-0.1-0.7,0.1-1.1,0.2
	c0-0.2-0.5-0.4,0.2-0.6c-1.3-0.5-2.7,0.1-4,0.1l0.9,0.4c-2.4,0.4-3.9-0.1-6.2,0.1l0.1-0.4l-1.4,0.3c0.3-0.4-0.9-0.6-1.6-0.3l3.5-1.1
	c1,0.2-1.1,0.5-0.4,0.9c0.5,0.3,2.6,0.2,3-0.2c-0.8,0-0.8,0.1-1.5,0.2c-0.3-0.6,1-0.6,1.6-1c-0.4,0-1-0.1-1.1,0
	c0.8-0.3,1.7-0.3,3.1-0.4c-0.9,0.2,0.5,0.4,0.2,0.5c0.1-0.5,1.4-0.7,3.1-0.5c1.2,0.6,3.2-0.4,5.2-0.2c-0.8,0.5-1.8,0.9-3,1.1
	c1.2,0.3,1.4,0,2.6,0.2c0.6-0.4,1-1,2.7-1.2l0.1,0.4c1.5-0.2,1.5-0.8,3.4-0.6c3.2,0.2,6.5,0.2,9,0.3l0.1,0.4
	c1.4-0.8,4.6-0.3,6.4-0.6c3.1,0.4,6.8-0.3,8.4,0.4c5.5-0.2,10.3-0.5,16.1-0.3l-1,0.5c1-0.4,0.7,0.3,1.7,0.3
	c-1.2-0.5,1.4-0.6,2.1-0.9c2.5,0.5,5.8,0,8.1-0.3l0.1,0.4c2.3-0.7,5,0,7.8,0.1c0.3,0.2,0.8,0.5,1.7,0.5c1.5-0.6,2.4-0.5,4.6-0.9
	c1.6,0,4.3,0.2,6,0.4c6.3-0.8,12.5-0.2,19-0.7l0.5,0.4c6.2-1,13.9-0.2,19.3-0.8l-0.5,0.8c1.7,0.2,3.8-0.2,3.4-0.8
	c1.7,0.2,4.2-0.4,5.3,0.2c1.7,0.2,2.1-0.3,3.5-0.4c3.5,0.3,4.7,0.3,8,0.1l-0.8-0.1c-0.4,0.2-0.4,0.5,0.4,0.5c0.2-1.1,6.7,1.7,5,0.2
	c0.5,0.7,0.8-0.2,1.4,2c0.3,3.4-2.7,4.2-2.1,3.9l-1.9,0.6L864,284c-2,0.4-4,0.8-5.8,0.6c0.3,0.2-0.5,0.4-0.9,0.6
	c-3.1,0.4-6.3,0.2-8.7,0.9c-0.5-0.1,0.7-0.5-0.5-0.4c-0.7,0.2,0,0.3-0.9,0.6c-4.9,0.9-10,0.4-14.5,0.9c-7.9,1.1-16.2,1.4-23.8,2
	l0.1-0.2c-2.5,0.8-6-0.4-8,0.7c-0.6-0.1-2.3,0-1.9-0.4c-2,0.6-5.8-0.3-8.7,0.4l0.7-0.1c-3-0.3-5.6,0.3-8.7,0c0.3-0.1,0.9-0.1,1-0.3
	c-1.2-0.3-2.9,0.8-3.5,0c-0.7,0-0.5,0.5-0.1,0.4c-6.9-0.2-14.2,0.4-21.3,0.6c-5.1-0.5-0.3-1.5-4.4-0.8c-0.3-0.2-0.2,0.3-0.3,0.2
	c-1.6,0.2-2.4-1-3.5-0.6c0.4,0.5-0.7,0.3-0.8,0.6c-3.1-0.4-3.8-0.9-6.2-0.6l0.2-0.3c-2.9,0.7-6.3,0.1-8.9,0.8
	c-1-0.1-2.1-0.2-3.3-0.4c-1-0.5-0.7,0.5-3.3-1.8c-1.6-0.8-0.1-4.9,0.8-5l1.4-0.8c2.5-0.9,4.3-1.3,6.3-1.7c4-0.8,7.8-1.4,11.7-2
	c7.7-1.1,15.4-2.1,23.3-2.7c15.2-0.7,30-3.4,45.7-4.2c3.8,0.5,4,0.4,8.1-0.1c-0.2,0.1-0.4,0.2-0.1,0.3c0.2-0.6,3-0.1,3.4-0.7
	c0.9,0.1,1.5,0,2.8,0.3c0.5,0.1,1.2,0.2,2.3,0.9c0.9-0.5,3,5.2,1.1,5.8c-3.1,3.2-3.7,2.4-5.4,3.4c-2.8,1.1-5.6,1.9-8.5,2.6
	c0.9-0.3,1.2-0.9,0.2-0.6l-1.1,0.7l-0.2-0.1c-0.7,0.3-1.5,0.8-0.7,0.8c-14.7,4-29.4,5.2-44.1,6.9c-3.5,0.1-8.5,0.7-12.4,0.9
	c-2.9-0.1-5.7-0.3-8.5-0.7l-4.3-0.7l-2.2-0.6l0,0h0c-0.3-2.1,0.7,4.8-0.8-4.8l0,0l0.1,0l0.1-0.1l0.3-0.1l0.6-0.3l1.2-0.5
	c7-1,9.5-1.8,17.6-2.6C766.5,281.5,764.3,283,760.1,284.3z"/>
<path class="st1" d="M711.9,277.4c0.4,0.3,1.7,0.4,0.7,0.9C712.5,278,711.8,277.7,711.9,277.4z"/>
<path class="st1" d="M746.6,280.5c0-0.1,0.5,0.1,0.6,0.2c-0.4,0-0.8,0.3-1.2,0.1C746.4,280.8,746.4,280.6,746.6,280.5z"/>
<path class="st1" d="M755.4,280.8c-0.1,0.3-2,0.5-3.1,0.5L755.4,280.8z"/>
<path class="st1" d="M763.7,282c0.7,0.2,0.5,0.4-0.5,0.3C763.2,282.2,763.5,282.1,763.7,282z"/>
<path class="st1" d="M764.3,281.4c0.7,0,1,0.2,1.4,0.3C765.6,281.4,764,281.8,764.3,281.4z"/>
<path class="st1" d="M782.2,282.4c0.4,0,1.4-0.2,1.8,0.1C783.5,282.2,781.8,282.8,782.2,282.4z"/>
<path class="st1" d="M790.5,282c0.3,0,0.4,0.1,0.7,0c0.5,0.1,0,0.3-0.5,0.3L790.5,282z"/>
<path class="st1" d="M795.3,284.5l0.9-0.2l-0.1,0.3L795.3,284.5z"/>
<path class="st1" d="M732.4,286.5c0.6-0.4,0.6,0.1,0.7,0.1C732.5,286.8,733.3,286.1,732.4,286.5z"/>
<path class="st1" d="M767.2,280.2l-0.3,0l0-0.6L767.2,280.2z"/>
<path class="st2" d="M727.2,135.7c0.1,9.1,7.4,16.4,16.2,16.3c8.8-0.1,15.9-7.6,15.8-16.8c-0.1-9.1-7.4-16.5-16.2-16.3
	C734.2,119,727.1,126.5,727.2,135.7z"/>
<path class="st2" d="M776.5,140.8c-1,10.3,7.6,16.9,16.7,16.8c9.1-0.1,15.6-7.1,16.3-17.2c0.6-9.4-7.6-16.1-16.7-16.8
	C783.1,122.7,777.5,131.4,776.5,140.8z"/>
<path class="st3" d="M765.3,219.8c0,0-9.5,25.1-15.3,30.4c-4.7,4.3-7.2,2.7-7.2,2.7s-15.5-3.1-12.9,0c2.6,3.1,12.6,3.9,12.6,3.9
	s-17.5,3-14.9,4.9c2.6,1.9,17.3,0.3,17.3,0.3s-18,7.3-13.5,7.8c6.2,0.6,21.6-3.8,23.4-7.6c1.8-3.8,18.5-25.3,22.6-31.3
	C781.5,224.9,765.3,219.8,765.3,219.8z"/>
<path class="st4" d="M730.5,135.6c0.1,7.3,5.9,13.1,12.9,13c7-0.1,12.7-6.1,12.6-13.3c-0.1-7.3-5.9-13.1-12.9-13
	C736.1,122.4,730.4,128.4,730.5,135.6z"/>
<path class="st2" d="M693.2,173.8c3.3,15.9,25.2,26.4,25.2,26.4c-14.2,9.3-12.9,33.7,0,47.5c13.3,14.3,38.8,21.6,60.6-4.9
	c19.9,27.9,40.5,34,71.8,31.7c31.2-2.2,47.4-33.5,25.8-71.5c-20.5-36.1-55.4-43.4-55.4-43.4s-8.9-22.4-38.3-26.3
	c-3.6-0.5-7.6-0.7-11.8-0.7C737.4,132.7,687.9,147.7,693.2,173.8z"/>
<defs>
	<filter id="Adobe_OpacityMaskFilter" filterUnits="userSpaceOnUse" x="692.8" y="132.7" width="198.4" height="142.3">
		<feColorMatrix  type="matrix" values="1 0 0 0 0  0 1 0 0 0  0 0 1 0 0  0 0 0 1 0"/>
	</filter>
</defs>
<mask maskUnits="userSpaceOnUse" x="692.8" y="132.7" width="198.4" height="142.3" id="mask0_1_">
	<path class="st5" d="M693.2,173.8c3.3,15.9,25.2,26.4,25.2,26.4c-14.2,9.3-12.9,33.7,0,47.5c13.3,14.3,38.8,21.6,60.6-4.9
		c19.9,27.9,40.5,34,71.8,31.7c31.2-2.2,47.4-33.5,25.8-71.5c-20.5-36.1-55.4-43.4-55.4-43.4s-8.9-22.4-38.3-26.3
		c-3.6-0.5-7.6-0.7-11.8-0.7C737.4,132.7,687.9,147.7,693.2,173.8z"/>
</mask>
<g class="st6">
	<path class="st2" d="M693.2,173.8c3.3,15.9,25.2,26.4,25.2,26.4c-14.2,9.3-12.9,33.7,0,47.5c13.3,14.3,38.8,21.6,60.6-4.9
		c19.9,27.9,40.5,34,71.8,31.7c31.2-2.2,47.4-33.5,25.8-71.5c-20.5-36.1-55.4-43.4-55.4-43.4s-8.9-22.4-38.3-26.3
		c-3.6-0.5-7.6-0.7-11.8-0.7C737.4,132.7,687.9,147.7,693.2,173.8z"/>
	<path class="st7" d="M790,204.1c-3.8,2.7-1.7,6.9,2.1,4.4C796,205.9,793.8,201.4,790,204.1z"/>
	<path class="st7" d="M799.9,210.3c-3.9,2.5-2.1,7,2,4.6C805.9,212.6,803.9,207.8,799.9,210.3z"/>
	<path class="st7" d="M810.4,199.6c-3.9,2.5-1.7,7.2,2.2,4.8C816.6,202,814.3,197,810.4,199.6z"/>
	<path class="st7" d="M798,183.4c3.7-2.9,0.8-7.5-2.8-4.5C791.7,181.9,794.3,186.3,798,183.4z"/>
	<path class="st7" d="M830.7,194.4c4-2.4,1.5-7.8-2.5-5.2C824.4,191.7,826.8,196.8,830.7,194.4z"/>
	<path class="st7" d="M858.9,196l-0.1-0.9c-1.5-3.8-8.3-1.4-6.9,2.3c0.6,1.6,2.3,2,3.9,1.8c-0.4,2.3,1.5,4.5,4.3,3.1
		C863.9,200.4,862.4,195.2,858.9,196z"/>
	<path class="st7" d="M830.4,178.2c3.9-2.6,0.9-8-2.9-5.2C823.8,175.7,826.5,180.8,830.4,178.2z"/>
	<path class="st7" d="M857.5,222.8c2.2-0.9,2.9-2.9,2.3-4.4c0.1-0.4,0.1-0.8-0.1-1.3c-1.2-3.8-8.1-1.9-7,1.7l0.6,1.1
		C853.2,222,854.7,224,857.5,222.8z"/>
	<path class="st7" d="M836.8,142.3c4.4,0.4,6.3-6.5,1.6-6.9C833.9,135.1,832.4,142,836.8,142.3z"/>
	<path class="st7" d="M821.1,160.2c-4.3,0-6.1,6.4-2,6.6C823.3,166.9,825.5,160.3,821.1,160.2z"/>
	<path class="st7" d="M792,199.5c-4.4-0.5-6.5,6.2-2.2,6.7C794.2,206.7,796.4,200,792,199.5z"/>
	<path class="st7" d="M811.5,181.1c4.4,0.8,6.8-6,2.2-6.8C809.2,173.7,807.2,180.4,811.5,181.1z"/>
	<path class="st7" d="M838.4,174.7c4.2,0.7,6.9-5.8,2.5-6.4C836.7,167.8,834.1,174.2,838.4,174.7z"/>
	<path class="st7" d="M805.6,192c4,0.2,6.9-5.8,2.8-6C804.4,185.8,801.6,191.9,805.6,192z"/>
	<path class="st7" d="M843.9,200.5c4.1,1,7.4-5,3.2-6C843,193.6,839.7,199.7,843.9,200.5z"/>
	<path class="st7" d="M830.7,179.3c-4.2-0.5-6.9,5.7-2.8,6.2C832,186.1,834.9,179.9,830.7,179.3z"/>
	<path class="st7" d="M840.4,189.3c4.3,0.9,7.1-5.5,2.7-6.4C838.8,182.1,836.1,188.5,840.4,189.3z"/>
	<path class="st7" d="M814.6,135.8c-4.3,0.1-5.8,6.9-1.4,6.8C817.5,142.6,819.1,135.8,814.6,135.8z"/>
	<path class="st7" d="M875.2,153.2c-4.5-1-6.9,5.8-2.5,6.8C877.2,161.1,879.7,154.3,875.2,153.2z"/>
	<path class="st7" d="M890,184.4c1-0.7,1.6-2,1-3.6c-1.7-4.3-8.7-2.1-7,2l0.8,1.2c-1.8,1.6-2.3,4.7,0.5,5.7
		C889,191,891.8,186.8,890,184.4z"/>
	<path class="st7" d="M808.1,178.6c4.1,0.2,6.6-6.1,2.4-6.2C806.4,172.3,804,178.5,808.1,178.6z"/>
	<path class="st7" d="M820.4,206.6v0.4l0,0l0.1,0.9c0.2,0.6,0.7,0.9,1.2,1.2c-1.1,2.3,0.8,4.7,3.9,3.1c2.6-1.3,2.8-3.8,1.5-5
		c0.3-0.5,0.4-1.1,0.1-1.8l-0.1-0.1c0.4-1.2,0.1-2.4-1.6-2.7C822.7,202,820.2,204.8,820.4,206.6z"/>
	<path class="st7" d="M860.9,188.5c4.2,1.1,7.4-5.2,3.1-6.3C859.7,181.1,856.7,187.4,860.9,188.5z"/>
	<path class="st7" d="M887.2,138.5c-4.7-1.1-6.7,5.9-2.2,7C889.6,146.7,891.9,139.7,887.2,138.5z"/>
	<path class="st7" d="M794.6,165.7c-4,0.4-5.8,6.8-1.8,6.4C796.9,171.8,798.7,165.4,794.6,165.7z"/>
	<path class="st7" d="M867.6,204.7c4.1,1.4,7.7-4.7,3.4-6.1C866.8,197.4,863.4,203.4,867.6,204.7z"/>
	<path class="st7" d="M800.6,200.9c-3.9-0.2-7,5.6-3.1,5.8C801.4,206.9,804.5,201.2,800.6,200.9z"/>
	<path class="st7" d="M842.7,215c0.6-2.2-1.2-4.5-4.1-3c-3.3,1.7-2.7,5.3-0.3,5.7c-0.5,1.2-0.2,2.4,1.4,2.9c4,1.1,7.8-4.5,3.7-5.6
		L842.7,215z"/>
	<path class="st7" d="M879.1,190.6c-1.5-4.1-8.4-2-6.9,2C873.6,196.6,880.6,194.7,879.1,190.6z"/>
	<path class="st7" d="M874.7,210.9c1.1,4.2,8.3,2.9,7.1-1.4C880.6,205.1,873.5,206.7,874.7,210.9z"/>
	<path class="st7" d="M862.4,230.9c1,4.3,8.2,3.5,7.2-1C868.6,225.4,861.4,226.5,862.4,230.9z"/>
	<path class="st7" d="M867.2,220.8c1,3.9,8.2,2.6,7.1-1.5C873.2,215.3,866.1,216.8,867.2,220.8z"/>
	<path class="st7" d="M838.1,205.5c1.3,3.4,8.1,1.3,6.8-2.3C843.6,199.6,836.8,202,838.1,205.5z"/>
	<path class="st7" d="M871.5,233.9c0.8,3.9,8,3.1,7.2-1C877.8,228.7,870.6,229.9,871.5,233.9z"/>
	<path class="st7" d="M875.4,253.4c1.1,4.9,8.4,4.5,7.3-0.7C881.4,247.6,874.2,248.4,875.4,253.4z"/>
	<path class="st7" d="M878.5,223.2c0.6,4.4,7.8,4.3,7.2-0.4C885.1,218.2,877.7,218.8,878.5,223.2z"/>
	<path class="st7" d="M872.6,237.6c0.5,4.9,7.7,5.2,7.3,0.1C879.3,232.6,872,232.8,872.6,237.6z"/>
	<path class="st7" d="M855.5,176c-1.8-4-8.5-1.3-6.8,2.6C850.5,182.4,857.3,180,855.5,176z"/>
</g>
<path class="st4" d="M780.3,140.7c-0.8,8,5.9,13.1,12.9,13c7-0.1,12.1-5.5,12.6-13.3c0.5-7.3-5.9-12.4-12.9-13
	C785.4,126.8,781,133.5,780.3,140.7z"/>
<path d="M784.1,140.6c-0.1,1.5,1.1,2.5,2.5,2.5c1.3,0,2.3-1,2.4-2.5c0.1-1.4-1.1-2.4-2.5-2.5C785.1,138,784.2,139.2,784.1,140.6z"/>
<path d="M734.1,132.5c-0.1,1.3,1,2.2,2.2,2.2c1.2,0,2-0.9,2.1-2.2c0.1-1.2-1-2.1-2.2-2.2C735,130.2,734.2,131.3,734.1,132.5z"/>
<path d="M718.4,200.2c13.8,2.4,22.4-5.1,25.6-11.5c-7.8,5-24.1,7.4-33.8,6.6C713,197.5,718.4,200.2,718.4,200.2z"/>
<path class="st3" d="M771.7,242.5c3.9-4.6,5.4-13.9,25.8-2.2c28.9,16.5,71.6,20.7,62.5,28.8c-9.1,8-14.3,7.8-29.4,4.3
	c-15.7-3.6-31.4-5.7-54.2-22.8C763.2,240.7,777.7,248.4,771.7,242.5z"/>
<path class="st8" d="M853.2,229.3c-9.5-9-42.1-21.5-52.6-9.3c-10.5,12.2,12.8,53.8,12.8,53.8s-45.6-2.7-43.2,0.5
	c2.4,3.2,22.6,2.6,22.6,2.6s-24.8,2.9-24.4,5.7c0.5,2.8,25.3-1.6,25.3-1.6s-20.1,9.5-18.2,11.8c1.9,2.3,19.7-4.6,33.8-8.3
	c14.1-3.7,22.8,3.3,22.3-2.6c-0.6-6-12.1-28.1-12.1-28.1s18.6,28.2,36.7,20.9C886,262.6,861.2,236.9,853.2,229.3z"/>
<path d="M708.5,174.5c0,1.2,1,2.1,2.2,2.1c1.2,0,2.2-1,2.1-2.2c0-1.2-1-2.1-2.2-2.1C709.4,172.3,708.5,173.3,708.5,174.5z"/>
<path d="M699.7,171.5c0,0.9,0.8,1.7,1.7,1.7c0.9,0,1.7-0.8,1.7-1.7c0-0.9-0.8-1.7-1.7-1.7C700.5,169.8,699.7,170.6,699.7,171.5z"/>
<path class="st2" d="M775,219.2c0,0-5.5,37-10.9,42.9c-4.3,4.7-6.9,3.3-6.9,3.3s-15.7-1.7-12.9,1.1c2.8,2.9,12.9,2.8,12.9,2.8
	s-17.2,4.6-14.4,6.2c2.8,1.6,17.3-1.3,17.3-1.3s-17.3,8.9-12.8,8.9c6.2,0.1,21.2-5.7,22.6-9.6c1.5-3.9,17.3-38,20.8-44.4
	C794.3,222.8,775,219.2,775,219.2z"/>
<path class="st9" d="M608.7,148.4c0,0,9.1,14.8,16.6,21.4C634,177.3,658,183,658,183s-31-19.7-32-34.6c-0.4-6.2,1.5-6,1.5-6
	L608.7,148.4z"/>
<path class="st9" d="M470,115.7c-0.7-26.8,10.2-40.5,47.3-41.8c41.5-1.5,97.1-4.3,141.1,0.6c33.7,3.7,36.9,72-4.1,75.8
	c-44.5,4.2-101.3,7.2-154.6-0.5C473.4,145.9,470.4,131.1,470,115.7z"/>
<path class="st4" d="M502,126.9c-0.1,0-0.2,0-0.4,0.1c-0.1,0.1-0.3,0.2-0.4,0.2c-0.1,0.1-0.3,0.2-0.4,0.3c-0.1,0.1-0.2,0.1-0.2,0.2
	c-0.4,0.2-0.8,0.3-1.2,0.3c-0.4,0-0.8,0-1.2,0c-0.9,0-1.7-0.2-2.5-0.6c-0.8-0.4-1.5-1-2.1-1.7c-0.6-0.7-1.1-1.5-1.5-2.4
	c-0.4-0.9-0.7-1.8-0.8-2.6c-0.2-1-0.2-2-0.2-3.1c0-1,0-2.1-0.1-3.1c0-1.3,0-2.7,0.3-4.2c0.2-1.5,0.6-2.8,1.2-4.1
	c0.2-0.5,0.5-1.1,0.9-1.6c0.4-0.6,0.8-1.1,1.3-1.6c0.5-0.5,1-1,1.6-1.4c0.6-0.4,1.1-0.7,1.7-0.8c0.1,0,0.3,0,0.6,0
	c0.3,0,0.5,0,0.6,0c1.1,0,2,0.1,2.7,0.3c0.7,0.2,1.2,0.6,1.6,1.1c0.4,0.5,0.6,1.1,0.8,1.9c0.1,0.8,0.2,1.7,0.2,2.8v0.4
	c0,0.2,0,0.3,0,0.5c0,0.2,0,0.4,0,0.6v0.4c0,0.2-0.1,0.4-0.1,0.7c0,0.2-0.1,0.5-0.1,0.7c-0.1,0.2-0.2,0.4-0.3,0.5
	c-0.1,0.2-0.3,0.2-0.5,0.2c-0.5,0-1-0.1-1.4-0.2c-0.4-0.1-0.7-0.2-1-0.3c-0.3-0.1-0.5-0.3-0.5-0.5l0-2.8c0-0.4-0.2-0.7-0.5-0.9
	c-0.3-0.3-0.7-0.4-1-0.4c-0.8,0-1.5,0.4-2.1,1.1c-0.6,0.7-1,1.6-1.3,2.5c-0.3,1-0.6,2-0.7,3c-0.1,1-0.2,1.9-0.2,2.6
	c0,0.6,0.1,1.4,0.2,2.3c0.1,0.9,0.4,1.8,0.7,2.6c0.3,0.9,0.7,1.6,1.3,2.2c0.5,0.6,1.2,0.9,2,0.9c0.5,0,0.8-0.2,1.1-0.5
	c0.3-0.3,0.4-0.7,0.3-1.2c0,0,0-0.1,0-0.2c0-0.1,0-0.2,0-0.3c0-0.1,0-0.2-0.1-0.3c0-0.1-0.1-0.1-0.1-0.1l-1.8,0
	c-0.1,0-0.2,0-0.3-0.1c-0.1-0.1-0.2-0.2-0.2-0.3c-0.1-0.1-0.1-0.2-0.2-0.4c-0.1-0.1-0.1-0.2-0.1-0.3l0-2.5c0-0.3,0.1-0.5,0.3-0.6
	c0.2-0.2,0.4-0.2,0.7-0.2h0.2c0.1,0,0.4,0.1,0.7,0.2c0.3,0.1,0.5,0.1,0.6,0.2l5-0.2c0.1,0,0.1,0.1,0.2,0.2c0.1,0.1,0.2,0.2,0.2,0.3
	c0,0,0,0,0.1,0.1c0,0,0,0.1,0.1,0.1c0,0,0,0.1,0.1,0.1c0,0.1,0,0.2,0,0.5c0,0.2,0,0.4-0.1,0.5l0.2,10.2c0,0.2-0.1,0.4-0.2,0.5
	c-0.1,0.1-0.3,0.2-0.4,0.2c-0.4,0-0.7,0-1.1-0.1c-0.4-0.1-0.7-0.3-1-0.5c-0.2-0.1-0.3-0.3-0.4-0.6C502.4,127,502.2,126.9,502,126.9z
	"/>
<path class="st4" d="M511,125.9c-0.2-1.4-0.2-2.9-0.2-4.4c0.1-1.5,0.1-3,0-4.5c0-1.4-0.1-2.8-0.2-4.1c-0.1-1.3-0.1-2.7-0.1-4.1
	c0-1.5,0-2.9,0-4.2c0-1.3-0.1-2.7-0.3-4.1c0.1-0.4,0.3-0.7,0.6-0.9c0.4-0.2,0.7-0.4,1.1-0.4c0.4-0.1,0.9-0.1,1.4,0
	c0.5,0.1,0.9,0.2,1.3,0.6c0,0,0,0.2,0,0.3c0,0.2,0,0.3,0,0.3c0.1,0.9,0.1,1.9,0,2.9c-0.1,1.1-0.2,2-0.1,2.9c0,0.1,0,0.5,0.1,1.2
	c0,0.7,0.1,1.5,0.1,2.3s0.1,1.8,0.2,2.6s0.1,1.6,0.1,2.1c0.1,1.2,0.1,2.4,0.1,3.6c0,1.2,0.1,2.4,0.2,3.6c0.1,0.5,0.3,0.8,0.6,0.9
	c0.3,0.1,0.7,0.1,1.1,0.1c0.4,0,0.8,0,1.1,0c0.3,0,0.5,0.2,0.6,0.7c0,0.8,0,1.5-0.1,2c0,0.5-0.1,1-0.2,1.4c-0.1,0.4-0.2,0.6-0.4,0.6
	c0,0-0.1,0-0.1,0h-0.1c-1-0.1-2-0.1-3-0.1c-1,0-2.1-0.1-3.1-0.2c-0.3,0-0.5-0.1-0.6-0.3S511,126.2,511,125.9z"/>
<path class="st4" d="M523.9,121.5c0-0.1,0-0.2-0.1-0.4c0-0.2,0-0.4,0-0.5c0-0.2,0-0.3,0-0.5c0-0.1,0-0.2,0-0.3
	c0-0.5-0.1-1.1-0.1-1.9c0-0.8,0-1.6-0.1-2.3c0-0.8,0-1.5-0.1-2c0-0.6,0-0.9,0-1c0-0.8,0-1.6,0.1-2.5c0-0.9,0.1-1.8,0.3-2.8
	c0.1-0.9,0.3-1.9,0.6-2.7c0.3-0.9,0.7-1.7,1.2-2.4c0.5-0.7,1.1-1.3,1.9-1.7c0.8-0.4,1.7-0.7,2.8-0.8h0.8c0.7,0.1,1.4,0.3,2.1,0.5
	c0.7,0.2,1.3,0.5,1.8,0.9c0.5,0.4,1,0.8,1.4,1.3c0.4,0.5,0.7,1.1,0.9,1.9c0,0.1,0.1,0.4,0.1,0.8c0,0.4,0.1,0.7,0.1,0.8
	c0,0.2,0,0.5,0,0.9c0,0.4,0,0.6,0,0.7c0,0.3,0,0.8,0,1.7c0,0.9,0,1.8,0.1,2.8s0,2,0.1,3c0,1,0,1.7,0,2.1c0,0.6,0,1.4,0,2.2
	c0,0.8,0,1.7-0.1,2.6c-0.1,0.9-0.2,1.8-0.3,2.7c-0.2,0.9-0.4,1.7-0.8,2.4c-0.4,0.7-0.9,1.3-1.5,1.7c-0.6,0.4-1.4,0.7-2.4,0.8
	c-0.8,0-1.6,0-2.3-0.2c-0.7-0.2-1.5-0.4-2.3-0.6c-0.8-0.2-1.4-0.6-1.9-1.1c-0.5-0.5-0.9-1.1-1.2-1.7c-0.3-0.6-0.5-1.3-0.7-2
	C524,122.9,523.9,122.2,523.9,121.5z M529,121.2c0,0.5,0.2,1,0.5,1.5c0.3,0.4,0.7,0.6,1.3,0.6c0.4,0,0.7-0.1,0.9-0.4
	c0.2-0.2,0.4-0.5,0.4-0.8c0.1-0.3,0.1-0.7,0.2-1c0-0.4,0-0.7,0.1-1v-0.3c0-0.2,0-0.3,0-0.5c0-0.2,0-0.4,0-0.5v-0.3
	c0.1-1.3,0.1-2.5,0.1-3.6c0-1.1,0-2.3-0.1-3.6c0-0.2,0-0.4,0-0.8c0-0.3-0.1-0.7-0.1-1.1c0-0.4,0-0.8-0.1-1.1c0-0.3,0-0.6,0-0.8
	c0-0.2-0.1-0.4-0.3-0.6c-0.1-0.3-0.3-0.5-0.5-0.8c-0.2-0.2-0.4-0.5-0.6-0.6c-0.2-0.2-0.4-0.3-0.6-0.3c-0.3,0-0.5,0.1-0.7,0.4
	c-0.2,0.2-0.3,0.5-0.5,0.8c-0.1,0.3-0.2,0.6-0.3,0.9c-0.1,0.3-0.1,0.6-0.1,0.8c0,0.1,0,0.2-0.1,0.4c0,0.2-0.1,0.4-0.1,0.7
	c0,0.3-0.1,0.5-0.1,0.7c0,0.2-0.1,0.4-0.1,0.4v0.5v1c0,0.4,0,0.8,0,1.1c0,0.4,0,0.7,0,0.9v0.3c0,0.1,0,0.1,0,0.1c0,0,0,0.1,0,0.1
	v0.2c0,0.3,0.1,0.7,0.1,1.4c0.1,0.6,0.1,1.3,0.2,2c0.1,0.7,0.1,1.4,0.2,2C529,120.5,529,121,529,121.2z"/>
<path class="st4" d="M564.9,126.9c-0.1,0-0.2,0-0.4,0.1c-0.1,0.1-0.3,0.2-0.4,0.2c-0.1,0.1-0.3,0.2-0.4,0.3
	c-0.1,0.1-0.2,0.1-0.2,0.2c-0.4,0.2-0.8,0.3-1.2,0.3c-0.4,0-0.8,0-1.2,0c-0.9,0-1.7-0.2-2.5-0.6c-0.8-0.4-1.5-1-2.1-1.7
	c-0.6-0.7-1.1-1.5-1.5-2.4c-0.4-0.9-0.7-1.8-0.8-2.6c-0.2-1-0.2-2-0.2-3.1c0-1,0-2.1-0.1-3.1c0-1.3,0-2.7,0.3-4.2
	c0.2-1.5,0.6-2.8,1.2-4.1c0.2-0.5,0.5-1.1,0.9-1.6s0.8-1.1,1.3-1.6c0.5-0.5,1-1,1.6-1.4c0.6-0.4,1.1-0.7,1.7-0.8c0.1,0,0.3,0,0.6,0
	s0.5,0,0.6,0c1.1,0,2,0.1,2.7,0.3c0.7,0.2,1.2,0.6,1.6,1.1c0.4,0.5,0.6,1.1,0.8,1.9c0.1,0.8,0.2,1.7,0.2,2.8v0.4c0,0.2,0,0.3,0,0.5
	c0,0.2,0,0.4,0,0.6v0.4c0,0.2-0.1,0.4-0.1,0.7c0,0.2-0.1,0.5-0.1,0.7c-0.1,0.2-0.2,0.4-0.3,0.5s-0.3,0.2-0.5,0.2
	c-0.5,0-1-0.1-1.4-0.2c-0.4-0.1-0.7-0.2-1-0.3c-0.3-0.1-0.5-0.3-0.5-0.5l0-2.8c0-0.4-0.2-0.7-0.5-0.9c-0.3-0.3-0.7-0.4-1-0.4
	c-0.8,0-1.5,0.4-2.1,1.1c-0.6,0.7-1,1.6-1.3,2.5c-0.3,1-0.6,2-0.7,3c-0.1,1-0.2,1.9-0.2,2.6c0,0.6,0.1,1.4,0.2,2.3s0.4,1.8,0.7,2.6
	c0.3,0.9,0.7,1.6,1.3,2.2c0.5,0.6,1.2,0.9,2,0.9c0.5,0,0.8-0.2,1.1-0.5c0.3-0.3,0.4-0.7,0.3-1.2c0,0,0-0.1,0-0.2c0-0.1,0-0.2,0-0.3
	c0-0.1,0-0.2-0.1-0.3c0-0.1-0.1-0.1-0.1-0.1l-1.8,0c-0.1,0-0.2,0-0.3-0.1c-0.1-0.1-0.2-0.2-0.2-0.3c-0.1-0.1-0.1-0.2-0.2-0.4
	c-0.1-0.1-0.1-0.2-0.1-0.3l0-2.5c0-0.3,0.1-0.5,0.3-0.6c0.2-0.2,0.4-0.2,0.7-0.2h0.2c0.1,0,0.4,0.1,0.7,0.2c0.3,0.1,0.5,0.1,0.6,0.2
	l5-0.2c0,0,0.1,0.1,0.2,0.2c0.1,0.1,0.2,0.2,0.2,0.3c0,0,0,0,0.1,0.1c0,0,0,0.1,0.1,0.1c0,0,0,0.1,0.1,0.1c0,0.1,0,0.2,0,0.5
	c0,0.2,0,0.4-0.1,0.5l0.2,10.2c0,0.2-0.1,0.4-0.2,0.5c-0.1,0.1-0.3,0.2-0.4,0.2c-0.4,0-0.7,0-1.1-0.1c-0.4-0.1-0.7-0.3-1-0.5
	c-0.2-0.1-0.3-0.3-0.4-0.6C565.3,127,565.1,126.9,564.9,126.9z"/>
<path class="st4" d="M573.9,125.9c-0.2-1.4-0.2-2.9-0.2-4.4c0.1-1.5,0.1-3,0-4.5c0-1.4-0.1-2.8-0.2-4.1c-0.1-1.3-0.1-2.7-0.1-4.1
	c0-1.5,0-2.9,0-4.2c0-1.3-0.1-2.7-0.3-4.1c0-0.4,0.3-0.7,0.6-0.9c0.4-0.2,0.7-0.4,1.1-0.4c0.4-0.1,0.9-0.1,1.4,0
	c0.5,0.1,0.9,0.2,1.3,0.6c0,0,0,0.2,0,0.3c0,0.2,0,0.3,0,0.3c0.1,0.9,0.1,1.9,0,2.9c-0.1,1.1-0.2,2-0.1,2.9c0,0.1,0,0.5,0.1,1.2
	c0,0.7,0.1,1.5,0.1,2.3c0,0.9,0.1,1.8,0.2,2.6c0.1,0.9,0.1,1.6,0.1,2.1c0.1,1.2,0.1,2.4,0.1,3.6c0,1.2,0.1,2.4,0.2,3.6
	c0.1,0.5,0.3,0.8,0.6,0.9c0.3,0.1,0.7,0.1,1.1,0.1c0.4,0,0.8,0,1.1,0c0.3,0,0.5,0.2,0.6,0.7c0,0.8,0,1.5-0.1,2c0,0.5-0.1,1-0.2,1.4
	c-0.1,0.4-0.2,0.6-0.4,0.6c0,0-0.1,0-0.1,0h-0.1c-1-0.1-2-0.1-3-0.1c-1,0-2.1-0.1-3.1-0.2c-0.3,0-0.5-0.1-0.6-0.3
	C574,126.5,574,126.2,573.9,125.9z"/>
<path class="st4" d="M586.8,121.5c0-0.1,0-0.2-0.1-0.4c0-0.2,0-0.4,0-0.5c0-0.2,0-0.3,0-0.5c0-0.1,0-0.2,0-0.3
	c0-0.5-0.1-1.1-0.1-1.9c0-0.8,0-1.6-0.1-2.3c0-0.8,0-1.5-0.1-2c0-0.6,0-0.9,0-1c0-0.8,0-1.6,0.1-2.5c0-0.9,0.1-1.8,0.3-2.8
	c0.1-0.9,0.3-1.9,0.6-2.7c0.3-0.9,0.7-1.7,1.2-2.4c0.5-0.7,1.1-1.3,1.9-1.7c0.8-0.4,1.7-0.7,2.8-0.8h0.8c0.7,0.1,1.4,0.3,2.1,0.5
	c0.7,0.2,1.3,0.5,1.8,0.9c0.5,0.4,1,0.8,1.4,1.3c0.4,0.5,0.7,1.1,0.9,1.9c0,0.1,0.1,0.4,0.1,0.8c0,0.4,0.1,0.7,0.1,0.8
	c0,0.2,0,0.5,0,0.9c0,0.4,0,0.6,0,0.7c0,0.3,0,0.8,0,1.7c0,0.9,0,1.8,0.1,2.8s0,2,0.1,3c0,1,0,1.7,0,2.1c0,0.6,0,1.4,0,2.2
	c0,0.8,0,1.7-0.1,2.6c-0.1,0.9-0.2,1.8-0.3,2.7c-0.2,0.9-0.4,1.7-0.8,2.4c-0.4,0.7-0.9,1.3-1.5,1.7c-0.6,0.4-1.4,0.7-2.4,0.8
	c-0.8,0-1.6,0-2.3-0.2c-0.7-0.2-1.5-0.4-2.3-0.6c-0.8-0.2-1.4-0.6-1.9-1.1c-0.5-0.5-0.9-1.1-1.2-1.7c-0.3-0.6-0.5-1.3-0.7-2
	C587,122.9,586.9,122.2,586.8,121.5z M592,121.2c0,0.5,0.2,1,0.5,1.5c0.3,0.4,0.7,0.6,1.3,0.6c0.4,0,0.7-0.1,0.9-0.4
	c0.2-0.2,0.4-0.5,0.4-0.8c0.1-0.3,0.1-0.7,0.2-1c0-0.4,0-0.7,0.1-1v-0.3c0-0.2,0-0.3,0-0.5c0-0.2,0-0.4,0-0.5v-0.3
	c0.1-1.3,0.1-2.5,0.1-3.6c0-1.1,0-2.3-0.1-3.6c0-0.2,0-0.4,0-0.8c0-0.3-0.1-0.7-0.1-1.1c0-0.4,0-0.8-0.1-1.1c0-0.3,0-0.6,0-0.8
	c0-0.2-0.1-0.4-0.3-0.6c-0.1-0.3-0.3-0.5-0.5-0.8c-0.2-0.2-0.4-0.5-0.6-0.6s-0.4-0.3-0.6-0.3c-0.3,0-0.5,0.1-0.7,0.4
	c-0.2,0.2-0.3,0.5-0.5,0.8c-0.1,0.3-0.2,0.6-0.3,0.9c-0.1,0.3-0.1,0.6-0.1,0.8c0,0.1,0,0.2-0.1,0.4c0,0.2-0.1,0.4-0.1,0.7
	c0,0.3-0.1,0.5-0.1,0.7c0,0.2-0.1,0.4-0.1,0.4v0.5v1c0,0.4,0,0.8,0,1.1c0,0.4,0,0.7,0,0.9v0.3c0,0.1,0,0.1,0,0.1c0,0,0,0.1,0,0.1
	v0.2c0,0.3,0.1,0.7,0.1,1.4c0.1,0.6,0.1,1.3,0.2,2c0.1,0.7,0.1,1.4,0.2,2C591.9,120.5,592,121,592,121.2z"/>
<path class="st4" d="M627.9,126.9c-0.1,0-0.2,0-0.4,0.1c-0.1,0.1-0.3,0.2-0.4,0.2c-0.1,0.1-0.3,0.2-0.4,0.3
	c-0.1,0.1-0.2,0.1-0.2,0.2c-0.4,0.2-0.8,0.3-1.2,0.3c-0.4,0-0.9,0-1.2,0c-0.9,0-1.7-0.2-2.5-0.6c-0.8-0.4-1.5-1-2.1-1.7
	c-0.6-0.7-1.1-1.5-1.5-2.4s-0.7-1.8-0.8-2.6c-0.2-1-0.2-2-0.3-3.1c0-1,0-2.1-0.1-3.1c0-1.3,0-2.7,0.3-4.2c0.2-1.5,0.6-2.8,1.2-4.1
	c0.2-0.5,0.5-1.1,0.9-1.6s0.8-1.1,1.3-1.6c0.5-0.5,1-1,1.6-1.4c0.6-0.4,1.1-0.7,1.7-0.8c0.1,0,0.3,0,0.6,0c0.3,0,0.5,0,0.6,0
	c1.1,0,2,0.1,2.7,0.3s1.2,0.6,1.6,1.1c0.4,0.5,0.6,1.1,0.8,1.9c0.1,0.8,0.2,1.7,0.2,2.8v0.4c0,0.2,0,0.3,0,0.5c0,0.2,0,0.4,0,0.6
	v0.4c0,0.2,0,0.4-0.1,0.7c0,0.2-0.1,0.5-0.1,0.7c-0.1,0.2-0.2,0.4-0.3,0.5s-0.3,0.2-0.5,0.2c-0.5,0-1-0.1-1.4-0.2
	c-0.4-0.1-0.7-0.2-1-0.3c-0.3-0.1-0.5-0.3-0.5-0.5l0-2.8c0-0.4-0.2-0.7-0.5-0.9c-0.3-0.3-0.6-0.4-1-0.4c-0.8,0-1.5,0.4-2.1,1.1
	c-0.6,0.7-1,1.6-1.3,2.5c-0.3,1-0.6,2-0.7,3s-0.2,1.9-0.2,2.6c0,0.6,0.1,1.4,0.2,2.3c0.1,0.9,0.4,1.8,0.7,2.6
	c0.3,0.9,0.7,1.6,1.3,2.2c0.5,0.6,1.2,0.9,2,0.9c0.5,0,0.8-0.2,1.1-0.5c0.3-0.3,0.4-0.7,0.3-1.2c0,0,0-0.1,0-0.2c0-0.1,0-0.2,0-0.3
	c0-0.1,0-0.2-0.1-0.3c0-0.1-0.1-0.1-0.1-0.1l-1.8,0c-0.1,0-0.2,0-0.2-0.1c-0.1-0.1-0.2-0.2-0.3-0.3c-0.1-0.1-0.1-0.2-0.2-0.4
	c-0.1-0.1-0.1-0.2-0.1-0.3l0-2.5c0-0.3,0.1-0.5,0.3-0.6c0.2-0.2,0.4-0.2,0.7-0.2h0.2c0.1,0,0.4,0.1,0.7,0.2c0.3,0.1,0.5,0.1,0.6,0.2
	l5-0.2c0,0,0.1,0.1,0.2,0.2c0.1,0.1,0.2,0.2,0.2,0.3c0,0,0,0,0.1,0.1c0,0,0,0.1,0.1,0.1c0,0,0,0.1,0.1,0.1c0,0.1,0,0.2,0,0.5
	c0,0.2,0,0.4-0.1,0.5l0.2,10.2c0,0.2-0.1,0.4-0.2,0.5c-0.1,0.1-0.3,0.2-0.4,0.2c-0.4,0-0.7,0-1.1-0.1c-0.4-0.1-0.7-0.3-1-0.5
	c-0.2-0.1-0.3-0.3-0.4-0.6C628.2,127,628.1,126.9,627.9,126.9z"/>
<path class="st4" d="M636.8,125.9c-0.2-1.4-0.2-2.9-0.2-4.4s0.1-3,0-4.5c-0.1-1.4-0.1-2.8-0.2-4.1c-0.1-1.3-0.1-2.7-0.1-4.1
	c0-1.5,0-2.9,0-4.2c0-1.3-0.1-2.7-0.3-4.1c0-0.4,0.3-0.7,0.6-0.9c0.4-0.2,0.7-0.4,1.1-0.4c0.4-0.1,0.9-0.1,1.4,0
	c0.5,0.1,0.9,0.2,1.3,0.6c0,0,0,0.2,0,0.3c0,0.2,0,0.3,0,0.3c0.1,0.9,0.1,1.9,0,2.9c-0.1,1.1-0.2,2-0.1,2.9c0,0.1,0,0.5,0.1,1.2
	c0,0.7,0.1,1.5,0.1,2.3s0.1,1.8,0.2,2.6s0.1,1.6,0.1,2.1c0.1,1.2,0.1,2.4,0.1,3.6c0,1.2,0.1,2.4,0.2,3.6c0.1,0.5,0.3,0.8,0.6,0.9
	c0.3,0.1,0.7,0.1,1.1,0.1c0.4,0,0.8,0,1.1,0c0.3,0,0.5,0.2,0.6,0.7c0,0.8,0,1.5-0.1,2c0,0.5-0.1,1-0.2,1.4c-0.1,0.4-0.2,0.6-0.4,0.6
	c0,0-0.1,0-0.1,0h-0.1c-1-0.1-2-0.1-3-0.1s-2.1-0.1-3.1-0.2c-0.3,0-0.5-0.1-0.6-0.3C637,126.5,636.9,126.2,636.8,125.9z"/>
<path class="st4" d="M649.8,121.5c0-0.1,0-0.2-0.1-0.4c0-0.2,0-0.4,0-0.5c0-0.2,0-0.3,0-0.5c0-0.1,0-0.2,0-0.3c0-0.5,0-1.1-0.1-1.9
	c0-0.8-0.1-1.6-0.1-2.3c0-0.8-0.1-1.5-0.1-2c0-0.6,0-0.9,0-1c0-0.8,0-1.6,0.1-2.5c0-0.9,0.1-1.8,0.2-2.8c0.1-0.9,0.3-1.9,0.6-2.7
	c0.3-0.9,0.7-1.7,1.2-2.4s1.1-1.3,1.9-1.7c0.8-0.4,1.7-0.7,2.8-0.8h0.8c0.7,0.1,1.4,0.3,2.1,0.5c0.7,0.2,1.3,0.5,1.8,0.9
	c0.5,0.4,1,0.8,1.4,1.3c0.4,0.5,0.7,1.1,0.9,1.9c0,0.1,0.1,0.4,0.1,0.8c0,0.4,0.1,0.7,0.1,0.8c0,0.2,0,0.5,0,0.9c0,0.4,0,0.6,0,0.7
	c0,0.3,0,0.8,0,1.7c0,0.9,0,1.8,0.1,2.8c0,1,0,2,0.1,3c0,1,0,1.7,0,2.1c0,0.6,0,1.4,0,2.2c0,0.8,0,1.7-0.1,2.6
	c-0.1,0.9-0.2,1.8-0.3,2.7c-0.2,0.9-0.4,1.7-0.8,2.4c-0.4,0.7-0.9,1.3-1.5,1.7c-0.6,0.4-1.4,0.7-2.4,0.8c-0.8,0-1.6,0-2.3-0.2
	c-0.7-0.2-1.5-0.4-2.3-0.6c-0.8-0.2-1.4-0.6-1.9-1.1c-0.5-0.5-0.9-1.1-1.2-1.7c-0.3-0.6-0.5-1.3-0.7-2
	C649.9,122.9,649.8,122.2,649.8,121.5z M654.9,121.2c0,0.5,0.2,1,0.5,1.5c0.3,0.4,0.7,0.6,1.3,0.6c0.4,0,0.7-0.1,0.9-0.4
	c0.2-0.2,0.4-0.5,0.4-0.8c0.1-0.3,0.1-0.7,0.2-1c0-0.4,0-0.7,0.1-1v-0.3c0-0.2,0-0.3,0-0.5c0-0.2,0-0.4,0-0.5v-0.3
	c0.1-1.3,0.1-2.5,0.1-3.6c0-1.1,0-2.3-0.1-3.6c0-0.2,0-0.4,0-0.8c0-0.3,0-0.7-0.1-1.1c0-0.4,0-0.8-0.1-1.1c0-0.3,0-0.6,0-0.8
	c-0.1-0.2-0.1-0.4-0.3-0.6c-0.1-0.3-0.3-0.5-0.5-0.8c-0.2-0.2-0.4-0.5-0.6-0.6c-0.2-0.2-0.4-0.3-0.6-0.3c-0.3,0-0.5,0.1-0.7,0.4
	c-0.2,0.2-0.3,0.5-0.5,0.8c-0.1,0.3-0.2,0.6-0.3,0.9c-0.1,0.3-0.1,0.6-0.1,0.8c0,0.1-0.1,0.2-0.1,0.4c0,0.2-0.1,0.4-0.1,0.7
	c0,0.3-0.1,0.5-0.1,0.7c0,0.2-0.1,0.4-0.1,0.4v0.5v1c0,0.4,0,0.8,0,1.1c0,0.4,0,0.7,0,0.9v0.3c0,0.1,0,0.1,0,0.1c0,0,0,0.1,0,0.1
	v0.2c0,0.3,0.1,0.7,0.1,1.4c0.1,0.6,0.1,1.3,0.2,2s0.1,1.4,0.2,2C654.9,120.5,654.9,121,654.9,121.2z"/>
<path class="st9" d="M851.9,142.5c0,0-21.7-29.1-11.8-30.5c9.9-1.4,13.6,8.6,13.6,8.6s8-10.8,13.9-6.4
	C873.5,118.6,851.9,142.5,851.9,142.5z"/>
<path class="st9" d="M901.6,111.4c0,0-17.3-42.2-4.8-40.8c12.5,1.4,13.8,14.7,13.8,14.7s13.1-10.6,18.9-3.4
	C935.4,89.1,901.6,111.4,901.6,111.4z"/>
<path class="st9" d="M851.3,69.7c0,0-47.1-38.1-31.6-44.4c15.5-6.3,25.5,8.3,25.5,8.3s8.5-20.7,19.9-16.1
	C876.4,22.2,851.3,69.7,851.3,69.7z"/>
<path class="st10" d="M322.4,290.7c1.9-0.2-1-0.5,1.2-0.2C323.4,290.7,323,290.9,322.4,290.7z"/>
<path class="st10" d="M272.1,283.1c2.8-1.4,6.3-1.2,9.7-2c2.9-0.7,1.2-1.8-1-1.8c-1.7-0.3-3.5-0.3-5.1-0.2c-0.8,0,0.2-0.8-1.5-0.7
	c-6.3,0.9-16.2,0.8-24,0.8l0.4-0.3c-1.5,0-3.2,0.9-4.7,1c0-0.1,0.5-0.3,0.1-0.4c-0.3,0.5-2.8,0.5-3.4,1c-0.6-0.1-0.6-0.4-1.4-0.5
	l-0.8,0.6c-2.3,1.5-6,0.8-9.2,1.9c0.1-0.1,0.5-0.3,0.2-0.4c-5.2,1.6-11.9,2.6-17.8,4.2c0.2-0.2,0.3-0.6-0.1-0.7
	c-0.2,0.6-2,1.1-3.5,1.6c-0.8-0.3-2.6,1.2-4.4,1.4l0.1-0.2c-1.1,1-2.1,0.3-2.9,1.4l-1-0.1c0,0.8-2.5,0.9-1.2,1.1l0.1-0.1
	c0.8,0.1,1.3,0.5,2.3,0.5l0.1,0.1c2.3-0.1,3.7,0.3,3.7-0.3c0.8,0.5-2.3,0.2-1,0.9c7.8-0.8,15.8-1.4,23.7-2.1
	c0.9,0.2,1.5,0.2,1.7,0.4c0.8-0.2,2.9-0.4,3.6-0.8c-0.3,0,0.5,0.3,1,0.2c1.4,0.1,1.5-0.8,3.1-0.7c-0.6,0.2-0.8,0.4-0.6,0.6
	c1.3-0.6,3.1-0.7,4.7-1c-0.2,0.1-0.6,0.2-0.5,0.4c1.7-0.7,3.2-0.2,4.7-0.6l-0.5,0.4c2.5,0.2,0.7-0.8,2.8-0.7
	c-0.5,0.1-0.3,0.3-0.4,0.4c1.9-0.8,5.1-0.8,7.1-1.1c-0.1,0-0.1,0.1-0.1,0.1c2.1-0.2,4.4-0.1,6.7-0.5c0.9,0.1-0.2,0.9,2,0.6
	c-0.1-0.7,3.8-0.6,2.4-1.2c1.9,0,5,0,6.3-0.4c-0.8,0.3,1,0.8-0.6,1l1.3,0.3c-0.2,0.3-1.3,0-0.8,0.3c0.8-0.1,3.1-0.6,3.9-0.5
	c1.5-0.6,2.7-1.5,5.1-1.8c-1.1,0.4,0.7,0.7,0,0.9l3.2-1.7c0.8-0.1,0.2,0.5,1.4,0.2c-0.1-0.2,0.4-0.4,0.7-0.5c0.3,0.1,3.3-0.6,3.7,0
	c0.4,0.2-1.3,0.3-0.4,0.4c1.5-0.2,1.5-0.5,3-0.7l0,0.1c1-0.1,2.8-0.8,1.7-1c-0.7,0.1,0.3,0.4-0.7,0.3c0.6-0.5,2.3-0.9,3.6-1.3
	c-0.4,0.2-0.3,0.4-0.5,0.6c0.8-0.5,2-1,2.2-1.3c-0.5,3.2,0.1,1.6-1.5,1.9c-0.1,0.3,0.8-0.4,1.1-0.2c-2.5-1-5.7-0.1-8-0.9
	c0.4,0,0.2,0.5,0.2,0.4c-1.4-0.1-1.3-0.6-2.2-0.5c-0.1-0.3-1.1,0-2.1,0.1c-0.5,0.2-0.2-0.1,0.6-0.1c-1.3,0.2-6.4,0.4-9.4-0.1
	c0.1,0.2-1.8,0.6-2.5,0.6l0.3-0.4c-0.6-0.3-2.3,0-2.4-0.4c-1.5,0.5,5.6-0.3,3.7,0c-0.5-0.4-2.8,0.6-2.3,0c-1.4,0-2.7,0.4-4,0
	c0.4,0.1,1.1-0.6,0-0.6c-2,0.1-0.6,0.2-2.1,0.3l-1,0.2c-0.1,0.4-1.7-0.1-1,0.4c-0.2-0.4-2.8,0.2-2.6-0.5l0.3-0.5
	c-0.8,0-1.4,0.6-2.1,0.8c-0.1,0-0.3-0.2-0.3-0.2c-0.1,0.8-2-0.1-3,0.6c-1.8-0.3-4.5,0-5.3-0.6c-1.4,0.3-2.6,0.6-4.2,0.4
	c0.3-0.1,0.7-0.1,0.8-0.3c-1-0.2-1.2,0-2.1,0.1c0.2-0.1-2-0.5-3-0.8c-1.4,0.3-0.9,0.7-1,1c-1.2-0.8-3.8,0.5-5.4-0.2
	c0.5-0.1,2-0.4,0.8-0.6c-1.2-0.8-2.5,0.6-4.5,0.2l0.5,0.7c-0.9-0.4-3,0.4-2.8-0.3c-0.7,0.2-2.4-0.2-2.2,0.4c-3.3-0.6-8,0.2-10-1
	c-0.5,0.1-1.6,0-1.4,0.3c0.8,0.4,1.1-0.2,1.4,0c-0.4,0-0.5,0.2-0.6,0.3c-1-0.2-1.8-0.2-0.8-0.8c-2.3-0.5-2.4,1.1-5.2,0.8
	c0.1-0.3-0.1-0.4-0.9-0.4l-1.6,0.4c-1.9-0.1-1.1-0.6-1.1-1.1c-1,0.1-2.2,0.1-2.7,0.4l-1.2-0.6c0.9,0.4-0.8,0.3-1.3,0.4l0.5-0.1
	c-0.2-0.2-1.3-0.1-1.9,0c0.1,0.3,1.3,0.4,2,0.5c-0.5,0.2-1.3,0.2-2,0.4c0.2-0.5-1.6-0.3-2.4-0.4c-0.9-0.1-1,0.4-1.3,0.4
	c0-0.2-1.5,0-0.8-0.3c0.3-0.1,0.7,0.2,1.2,0c-0.6-0.2-0.5-0.6-1.8-0.2c-0.9,0.3,0.3,0.9-1.5,0.7c0.5-0.1,0.5-0.3,0.9-0.5l-1.7-0.2
	l-0.1,0.4c-0.2-0.1-0.1-0.1-0.2-0.2c-0.5,0.5-2.5,0.2-2.9,0.7c-0.8,0.1-1.8-0.2-2.6-0.2l0.1-0.1c-1-0.2-2.3,0.1-3,0.5l0-0.1
	c-0.5,0-1.8,0.2-2.4,0.5c-1.4-0.2-0.6-1.5-2-0.9c-1.4,0.1-2,1.1-1.4,1.2c-2.4,0.1-5,1.2-7.3,1c-0.3,0.2-0.1,0.2-0.7,0.5
	c-3.2-0.1-7.8,4.5-7.7,0.2c0.5,1.4-0.6,0-0.5,0.4c0.2-0.6-0.2,0.3,0.4-0.3c0.4-0.2-0.6-0.8,0.3-0.5c-0.2-0.4,4,0.4,4.9,0.6
	c-0.6-0.2-0.1-0.3,0.4-0.4c-0.2,0.6,1.4,0.8,2.6,0.6l0.2-0.4l0.8,0.4c0.5-0.1,0.5-0.8,1.7-0.4c0.1,0.1,0.1,0.3,0.3,0.4
	c1.2-0.3,3-0.8,4.3-0.5l1.1,0.5c0.6-0.1,1.5-0.4,0.5-0.5c2.3,0.3,3.8,0.3,4.5,0.8c4-1.2,9.7-1.4,14.4-1.4l-0.1,0.3
	c1.3,0.2,0.6-0.5,1.5-0.3c-0.4,0.3,1,0.5,0,0.9c1.8,0.2,2.3-0.5,3.4-0.7c0.2-0.4-0.9,0.2-0.7-0.2c0.2-0.1,2.5,0.2,2.7-0.3
	c0.5,0.2,0.1,0.6-0.1,0.8l1.1-0.3c1.3,0.6-3,1.2-1.6,2l1-0.1c1,0.6-2.6,0.7-0.1,0.8c1.1-0.3,2-1.1,1-1.3c2.3-0.2,1-1.3,3.5-1.3
	c0.7,0.3-2,0.1-1.5,0.5c1.2,0.4,2.3-0.3,3.4-0.1c-1.1-0.2-0.2-0.8,0.6-0.9c1.3,0.3-0.8,0.5,1,0.6c0.3-0.3,1.9-0.5,0.5-0.8
	c0.6-0.7,1.9,0.2,2.9-0.3c0.6,0.5-1.9,1.1,0.1,1.4c-0.3-0.5,2.5-0.6,1.4-1.3c0.7,0.2,0.8,0.5,0.3,0.8c1,0.3,2.6-0.8,3,0.1l0.4-0.5
	c0.3,0.2,0.8,0.3,1.4,0.6c1,0,3.1-0.6,3,0.2c0.3-0.1,2.5,0,1.7-0.5c-1.3-0.4-1.6,0.3-2.3-0.4c0.9,0.6,2,0,2.7-0.2l0.1,0.3
	c0.5-0.1,1.5,0,1.8-0.3c-0.4,0.2-0.2,0.4,0.2,0.4l0.5-0.4c1.9-0.2,0.4,0.8,2.3,0.7l-1.4,0.3c0.3-0.1,0.9,0.4,1.8,0.3
	c0.4-0.4,1-0.9,1.3-1.2c1-0.1,0.5,0.5,1.5,0.1l-1.4,0.4c-0.2,0.1,0.9,0.7,2.3,0.7c0.9-0.1,2.3-0.6,0.9-0.9c0.7,0,1.7,0.3,1.1,0.6
	c1.6-0.1-0.2-0.4,1.2-0.6c0.5,0.3,2.3,0.7,3.3,1.1l-1.4,0.6l0.9,0c-1.2,0.5,0.6,0.4-0.1,1c0.6,0.1,1.4-0.1,2.1-0.2
	c-1.9-1,2.1-1.2,1.6-2c2.6-0.1,1.6,2.1,4.3,0.8c-0.4-0.2,0.9-0.8-0.8-0.6c1.6,0.1,1.1-0.8,3-0.4c-1.4,0.3,1.5,0.9-0.6,1.3
	c0.1-0.3-1.1-0.2-1.4-0.2c0.6,0.3-0.2,0.8,1.5,0.9c1-0.1,2.4,0,2.2-0.5c0-0.5-1.5,0-0.9-0.5c2-0.1,2.3,0.6,3.2-0.2
	c-1.3,0-1.6-0.5-1.5-0.8l1.5-0.2l-0.3,0.3c2.3,0.3,0.7-0.6,3-0.4l1.1,0.7c-0.6,0.5-3.3-0.3-2.9,0.5c1.5,0.1,2-0.4,3.4-0.1l-1,0.1
	c0.5,0,1,1.2,3.2,0.6c1.1-0.2,0.3-0.3,0.3-0.6c2.4,0,3.1-0.3,4.6-0.3c-0.3,0.6,2.7,0.1,1,0.7c-0.8-0.4-4.2-0.5-5.1,0.1
	c0.8,0.8-1.9-0.2-2.4,0.6c1.9,0.1,1.8,0.8,2.1,1.3c0.5,0,1-0.1,1.4-0.2c0.2-0.5-0.5-0.5-0.5-0.9c2.1,0.2,4.2,0,5.4-0.4
	c0.7,0.2,0.5,0.7-0.4,0.7c2.5-0.1,5.2,0.1,7.7,0.3c-1.5-0.8,2.7-0.1,1.6-0.8c-1.3-0.2-2.4-0.8-1.7-1.1c0.8,0.1,0,0.3,0.3,0.5
	c1-0.4,1.6,0.7,2.6,0.1c-2.3,0.2-0.5,0.9-0.9,1.5c1.7-0.3-0.1,0.4,1.6,0.5c1.7-0.3,3.7-0.5,5.6-0.6c2.3,0.6,5.9,0.1,8,0.2
	c1.1,0.3,0.3,1,1.5,1.1c1.4,0-1-0.7,1-0.4l-0.2,0.1c0.6-0.1,3.7,0.5,4.4-0.4l-0.6,0.7c0.4,0.1,0.7-0.1,1.1-0.2
	c0,0.2,0.5,0.5-0.2,0.6c1.3,0.5,2.7,0,4,0l-0.9-0.4c2.4-0.3,3.9,0.1,6.2,0l-0.1,0.4l1.4-0.2c-0.3,0.4,0.9,0.7,1.6,0.3l-3.5,1
	c-1-0.2,1.1-0.5,0.5-0.9c-0.5-0.4-2.6-0.3-3,0.1c0.8,0,0.8,0,1.5-0.2c0.3,0.6-1,0.5-1.6,0.9c0.4,0,1,0.2,1.1,0
	c-0.8,0.3-1.7,0.3-3.1,0.3c0.9-0.2-0.5-0.4-0.1-0.5c-0.1,0.5-1.4,0.7-3.1,0.5c-1.2-0.6-3.2,0.3-5.2,0.1c0.8-0.5,1.8-0.9,3.1-1.1
	c-1.2-0.3-1.4,0-2.6-0.3c-0.6,0.4-1,1-2.7,1.2l-0.1-0.4c-1.5,0.2-1.5,0.7-3.4,0.6c-3.2-0.3-6.5-0.3-8.9-0.4l-0.1-0.4
	c-1.4,0.8-4.5,0.2-6.4,0.5c-3.1-0.5-6.8,0.2-8.3-0.5c-5.5,0.1-10.3,0.3-16,0l1-0.5c-1,0.4-0.7-0.3-1.7-0.3c1.1,0.5-1.4,0.5-2.1,0.8
	c-2.5-0.5-5.8-0.1-8,0.2l-0.1-0.4c-2.3,0.6-5-0.1-7.8-0.3c-0.3-0.2-0.8-0.5-1.7-0.5c-1.6,0.6-2.4,0.5-4.6,0.8c-1.6,0-4.3-0.3-6-0.6
	c-6.2,0.6-12.4,0.1-18.8,0.8l-0.5-0.4c-6.2,1.1-13.9,0.4-19.2,1l0.5-0.8c-1.7-0.2-3.8,0.3-3.4,0.8c-1.7-0.2-4.2,0.4-5.3-0.2
	c-1.7-0.2-2.1,0.3-3.6,0.4c-3.5-0.4-4.7-0.3-8.4-0.7l0.9,0.2c0.4-0.1,0.5-0.4-0.4-0.6c-1-0.3-1.5,0.2-3.7-1.3
	c-2-0.6-0.8-5.6-1.7-1.6c2.8-7.5,5.3-4.5,7-6.1c2-0.6,4-1.4,5.8-1.3c-0.3-0.2,0.5-0.4,0.8-0.6c3.1-0.5,6.4-0.7,8.8-1.2
	c0.5,0.1-0.7,0.5,0.5,0.4c0.7-0.2,0-0.3,0.9-0.5c5-1,10.1-0.2,14.6-0.5c8-0.6,16.3-0.2,23.9-0.1l-0.1,0.2c2.5-0.7,5.9,0.9,8-0.2
	c0.6,0.2,2.3,0.1,1.8,0.4c2-0.5,5.6,0.5,8.6-0.1l-0.7,0.1c3,0.4,5.6-0.2,8.7,0.2c-0.3,0.1-0.9,0.1-1,0.3c1.2,0.4,2.9-0.8,3.5,0.1
	c0.7,0,0.5-0.4,0.1-0.4c6.8,0.3,14.1-0.2,21.3-0.2c5.1,0.6,0.3,1.5,4.3,0.9c0.3,0.2,0.2-0.3,0.3-0.1c1.6-0.2,2.4,1.1,3.5,0.6
	c-0.4-0.6,0.7-0.3,0.8-0.6c3.1,0.4,3.7,1,6.2,0.7l-0.2,0.3c3-0.6,6.2,0,9-0.6c1.1,0.2,2,0.2,3.7,0.8c-0.1-1.4,5.2,4.4,1.1,6.5
	c-1,0.7-1.7,0.9-2.3,1c-2.3,0.7-4.2,1-6.2,1.4c-3.9,0.7-7.8,1.2-11.7,1.7c-7.7,1-15.4,1.8-23.2,2.2c-15.1,0.4-29.9,2.9-45.6,3.4
	c-3.7-0.5-4-0.5-8.1-0.1c0.2-0.1,0.4-0.2,0.1-0.3c-0.2,0.6-2.9,0.1-3.5,0.6c-0.7,0-1.7-0.1-3-0.5c-0.7-0.4-1.5-0.2-2.9-2.3
	c-1.6-3.4,1-5,1.2-5.3c2.3-1.7,3.4-1.8,5-2.4c2.8-1,5.6-1.7,8.6-2.4c-0.9,0.3-1.3,0.9-0.2,0.6l1.1-0.6l0.2,0.1
	c0.7-0.3,1.5-0.7,0.7-0.8c14.7-3.7,29.4-4.6,44.1-6c3.5,0,8.5-0.5,12.3-0.7c2.9,0.2,5.7,0.4,8.5,0.8l4.2,0.8l1.1,0.3l0.5,0.2
	l0.3,0.1l0.1,0l0.1,0l0,0l0,0c1.3,9.6,0.4,2.7,0.7,4.8l0,0l-2.4,1c-6.9,0.8-9.5,1.6-17.6,2.2C265.6,285.7,267.9,284.2,272.1,283.1z"
	/>
<path class="st10" d="M320.2,290.8c-0.4-0.3-1.7-0.5-0.7-0.9C319.6,290.2,320.3,290.5,320.2,290.8z"/>
<path class="st10" d="M285.7,287.1c0,0.1-0.5-0.1-0.6-0.2c0.4,0,0.8-0.3,1.2-0.1C285.8,286.8,285.9,287,285.7,287.1z"/>
<path class="st10" d="M276.9,286.7c0.1-0.3,2-0.4,3.1-0.4L276.9,286.7z"/>
<path class="st10" d="M268.7,285.3c-0.7-0.2-0.5-0.4,0.5-0.3C269.2,285.1,268.9,285.2,268.7,285.3z"/>
<path class="st10" d="M268.1,285.9c-0.7,0-1-0.2-1.3-0.4C266.8,285.8,268.3,285.5,268.1,285.9z"/>
<path class="st10" d="M250.3,284.6c-0.4,0-1.4,0.2-1.8-0.1C249,284.7,250.6,284.2,250.3,284.6z"/>
<path class="st10" d="M242,284.8c-0.3,0-0.4-0.1-0.7,0c-0.5-0.1,0-0.3,0.5-0.3L242,284.8z"/>
<path class="st10" d="M237.9,282.1l-0.9,0.1l0.1-0.3L237.9,282.1z"/>
<path class="st10" d="M299.2,281.6c-0.7,0.4-0.6-0.1-0.7-0.1C299.1,281.3,298.3,281.9,299.2,281.6z"/>
<path class="st10" d="M264.3,287.1l0.3,0l-0.1,0.6L264.3,287.1z"/>
<path class="st2" d="M295.5,153.6c-0.1,8.1-6.6,14.6-14.4,14.5c-7.9-0.1-14.2-6.8-14.1-14.9c0.1-8.1,6.6-14.6,14.4-14.5
	C289.3,138.8,295.6,145.4,295.5,153.6z"/>
<path class="st11" d="M290.8,149.4c0,0,4.6-0.1,8.1-1.4c3.5-1.3,6.1-3.3,6.1-3.3"/>
<path class="st11" d="M288,147.1c0,0,4.3-1.7,7.1-4.1c2.8-2.4,4.6-5.2,4.6-5.2"/>
<path class="st11" d="M284.5,146.2c0,0,3.5-3.1,5.2-6.3c1.8-3.2,2.5-6.5,2.5-6.5"/>
<path class="st4" d="M292.6,153.6c-0.1,6.5-5.2,11.6-11.5,11.6c-6.3-0.1-11.3-5.4-11.2-11.8c0.1-6.5,5.2-11.6,11.5-11.6
	C287.7,141.8,292.7,147.1,292.6,153.6z"/>
<path class="st2" d="M251.7,158.1c0.9,9.2-6.8,15.1-14.9,15c-8.1-0.1-13.9-6.3-14.5-15.3c-0.5-8.4,6.8-14.3,14.9-15
	C245.8,142.1,250.9,149.8,251.7,158.1z"/>
<path class="st2" d="M246,151.6c-26.2,3.5-34.1,23.4-34.1,23.4s-22.9,7.9-41.2,40c-19.2,33.8-12.9,60.2,14.9,62.2
	c27.9,2,57.1-13.3,74.8-38.1c31.8-1.7,36.2-26.2,36.2-26.2s25-3.8,29.2-25.3c4.5-23.3-39.3-36.6-69.3-36.6
	C252.7,150.9,249.2,151.2,246,151.6z"/>
<path class="st2" d="M270,228.1c0,0,10.9,21.2,16.6,25.4c4.6,3.4,6.6,1.7,6.6,1.7s13.4-4.3,11.4-1.3c-2,3-10.8,4.7-10.8,4.7
	s15.8,1,13.6,2.9c-2.2,1.9-15.3,2-15.3,2s16.6,4.7,12.7,5.5c-5.5,1.2-19.5-1.2-21.4-4.4c-1.9-3.2-18.9-20.5-23.1-25.5
	C256.1,234.2,270,228.1,270,228.1z"/>
<defs>
	<filter id="Adobe_OpacityMaskFilter_1_" filterUnits="userSpaceOnUse" x="154.5" y="150.9" width="171.6" height="126.4">
		<feColorMatrix  type="matrix" values="1 0 0 0 0  0 1 0 0 0  0 0 1 0 0  0 0 0 1 0"/>
	</filter>
</defs>
<mask maskUnits="userSpaceOnUse" x="154.5" y="150.9" width="171.6" height="126.4" id="mask1_1_">
	<path class="st12" d="M246,151.6c-26.2,3.5-34.1,23.4-34.1,23.4s-22.9,7.9-41.2,40c-19.2,33.8-12.9,60.2,14.9,62.2
		c27.9,2,57.1-13.3,74.8-38.1c31.8-1.7,36.2-26.2,36.2-26.2s25-3.8,29.2-25.3c4.5-23.3-39.3-36.6-69.3-36.6
		C252.7,150.9,249.2,151.2,246,151.6z"/>
</mask>
<g class="st13">
	<path class="st2" d="M246,151.6c-26.2,3.5-34.1,23.4-34.1,23.4s-22.9,7.9-41.2,40c-19.2,33.8-12.9,60.2,14.9,62.2
		c27.9,2,57.1-13.3,74.8-38.1c31.8-1.7,36.2-26.2,36.2-26.2s25-3.8,29.2-25.3c4.5-23.3-39.3-36.6-69.3-36.6
		C252.7,150.9,249.2,151.2,246,151.6z"/>
	<path class="st7" d="M239.7,214.5c3.3,2.4,1.5,6.1-1.9,3.9C234.3,216.1,236.3,212.1,239.7,214.5z"/>
	<path class="st7" d="M230.8,220c3.5,2.2,1.8,6.2-1.8,4.1C225.5,222,227.3,217.8,230.8,220z"/>
	<path class="st7" d="M221.6,210.5c3.4,2.3,1.5,6.4-2,4.3C216,212.6,218.1,208.2,221.6,210.5z"/>
	<path class="st7" d="M232.6,196.1c-3.3-2.6-0.7-6.6,2.5-4C238.2,194.8,235.9,198.6,232.6,196.1z"/>
	<path class="st7" d="M203.5,205.8c-3.6-2.2-1.3-7,2.2-4.7C209.1,203.4,207,208,203.5,205.8z"/>
	<path class="st7" d="M178.4,207.3l0.1-0.8c1.4-3.4,7.4-1.3,6.1,2c-0.6,1.4-2.1,1.8-3.4,1.6c0.3,2-1.3,4-3.8,2.7
		C174,211.2,175.3,206.6,178.4,207.3z"/>
	<path class="st7" d="M203.8,191.4c-3.4-2.3-0.8-7.1,2.6-4.7C209.7,189.2,207.2,193.8,203.8,191.4z"/>
	<path class="st7" d="M179.6,231.1c-1.9-0.8-2.5-2.6-2.1-3.9c-0.1-0.3-0.1-0.7,0.1-1.2c1-3.4,7.2-1.7,6.2,1.6l-0.5,1
		C183.5,230.4,182.1,232.1,179.6,231.1z"/>
	<path class="st7" d="M198.1,159.5c-3.9,0.4-5.6-5.8-1.4-6.2C200.7,153.1,202,159.2,198.1,159.5z"/>
	<path class="st7" d="M212,175.4c3.8,0,5.5,5.7,1.8,5.8C210,181.4,208.1,175.5,212,175.4z"/>
	<path class="st7" d="M237.9,210.4c3.9-0.4,5.8,5.5,1.9,5.9C236,216.8,234,210.9,237.9,210.4z"/>
	<path class="st7" d="M220.5,194.1c-3.9,0.7-6-5.4-2-6C222.6,187.5,224.4,193.4,220.5,194.1z"/>
	<path class="st7" d="M196.6,188.3c-3.8,0.6-6.2-5.1-2.3-5.7C198.1,182.2,200.4,187.9,196.6,188.3z"/>
	<path class="st7" d="M225.8,203.7c-3.6,0.2-6.1-5.1-2.5-5.4C226.9,198.2,229.4,203.6,225.8,203.7z"/>
	<path class="st7" d="M191.8,211.3c-3.7,0.9-6.6-4.5-2.9-5.4C192.5,205.2,195.4,210.5,191.8,211.3z"/>
	<path class="st7" d="M203.5,192.4c3.7-0.4,6.1,5.1,2.5,5.5C202.3,198.5,199.8,193,203.5,192.4z"/>
	<path class="st7" d="M194.9,201.3c-3.8,0.8-6.3-4.9-2.4-5.7C196.3,194.9,198.7,200.6,194.9,201.3z"/>
	<path class="st7" d="M217.8,153.7c3.9,0.1,5.1,6.1,1.3,6C215.2,159.7,213.8,153.7,217.8,153.7z"/>
	<path class="st7" d="M163.9,169.2c4-0.9,6.2,5.1,2.2,6C162.1,176.2,159.9,170.2,163.9,169.2z"/>
	<path class="st7" d="M223.6,191.8c-3.6,0.1-5.9-5.4-2.2-5.6C225.1,186.2,227.2,191.7,223.6,191.8z"/>
	<path class="st7" d="M212.7,216.7v0.3l0,0l-0.1,0.8c-0.2,0.5-0.6,0.8-1,1c1,2-0.7,4.2-3.5,2.8c-2.3-1.2-2.5-3.4-1.4-4.5
		c-0.2-0.5-0.3-1-0.1-1.6l0.1-0.1c-0.4-1.1-0.1-2.1,1.4-2.4C210.6,212.6,212.8,215.1,212.7,216.7z"/>
	<path class="st7" d="M176.6,200.6c-3.8,1-6.6-4.6-2.7-5.6C177.7,194.1,180.3,199.6,176.6,200.6z"/>
	<path class="st7" d="M235.6,180.3c3.6,0.3,5.2,6.1,1.6,5.7C233.6,185.7,231.9,180.1,235.6,180.3z"/>
	<path class="st7" d="M170.7,215c-3.7,1.3-6.9-4.2-3-5.4C171.4,208.5,174.4,213.9,170.7,215z"/>
	<path class="st7" d="M230.3,211.7c3.5-0.2,6.2,5,2.8,5.1C229.6,217,226.8,211.9,230.3,211.7z"/>
	<path class="st7" d="M192.8,224.2c-0.5-1.9,1.1-4,3.7-2.6c2.9,1.5,2.4,4.8,0.2,5.1c0.4,1.1,0.2,2.2-1.3,2.6c-3.5,1-7-4-3.3-5
		L192.8,224.2z"/>
	<path class="st7" d="M160.4,202.4c1.4-3.7,7.5-1.8,6.2,1.8C165.3,207.8,159.1,206.1,160.4,202.4z"/>
	<path class="st7" d="M164.3,220.5c-1,3.7-7.4,2.6-6.3-1.3C159.1,215.4,165.4,216.8,164.3,220.5z"/>
	<path class="st7" d="M175.2,238.3c-0.9,3.8-7.3,3.1-6.4-0.9C169.8,233.4,176.1,234.4,175.2,238.3z"/>
	<path class="st7" d="M171,229.3c-0.9,3.5-7.3,2.3-6.3-1.3C165.7,224.4,172,225.8,171,229.3z"/>
	<path class="st7" d="M196.9,215.7c-1.2,3-7.2,1.1-6.1-2.1C192,210.5,198.1,212.6,196.9,215.7z"/>
	<path class="st7" d="M167.2,241c-0.7,3.5-7.2,2.8-6.4-0.9C161.6,236.4,167.9,237.4,167.2,241z"/>
	<path class="st7" d="M163.7,258.3c-1,4.4-7.5,4-6.5-0.6C158.4,253.2,164.8,253.9,163.7,258.3z"/>
	<path class="st7" d="M161,231.5c-0.5,3.9-7,3.8-6.4-0.3C155.1,227,161.6,227.5,161,231.5z"/>
	<path class="st7" d="M166.2,244.3c-0.4,4.3-6.8,4.7-6.5,0.1C160.3,239.9,166.8,240,166.2,244.3z"/>
	<path class="st7" d="M181.4,189.5c1.6-3.5,7.6-1.2,6,2.3C185.9,195.2,179.8,193,181.4,189.5z"/>
</g>
<path d="M278.7,148.8c0.1,1.2-0.9,2-1.9,1.9c-1,0-1.8-0.8-1.9-2c-0.1-1.1,0.9-1.9,1.9-2C277.9,146.7,278.6,147.7,278.7,148.8z"/>
<path class="st3" d="M272.4,237.4c-3.4-4.1-21.2-1.1-39.3,9.3c-25.7,14.7-63.7,18.5-55.6,25.6c8.1,7.1,12.7,6.9,26.1,3.8
	c14-3.2,27.9-5.1,48.2-20.3C263.5,247,267,242.6,272.4,237.4z"/>
<path class="st8" d="M183.5,236.9c8.4-8,37.4-19.1,46.8-8.3c9.4,10.9-11.3,47.9-11.3,47.9s40.5-2.4,38.4,0.5
	c-2.1,2.9-20.1,2.4-20.1,2.4s22.1,2.6,21.7,5.1c-0.4,2.5-22.5-1.4-22.5-1.4s17.9,8.4,16.2,10.5c-1.7,2-17.5-4.1-30.1-7.4
	c-12.5-3.3-20.3,3-19.8-2.4c0.5-5.3,10.8-25,10.8-25s-16.5,25.1-32.7,18.6C154.3,266.5,176.3,243.7,183.5,236.9z"/>
<path d="M312.2,188.1c0,1-0.9,1.9-1.9,1.9c-1.1,0-1.9-0.9-1.9-1.9c0-1.1,0.9-1.9,1.9-1.9C311.4,186.2,312.2,187,312.2,188.1z"/>
<path d="M320,185.5c0,0.8-0.7,1.5-1.5,1.5c-0.8,0-1.5-0.7-1.5-1.5c0-0.8,0.7-1.5,1.5-1.5C319.3,183.9,320,184.6,320,185.5z"/>
<path class="st2" d="M256.6,227.9c0,0,4.9,32.9,9.7,38.1c3.8,4.2,6.1,3,6.1,3s14-1.5,11.5,1c-2.5,2.6-11.5,2.5-11.5,2.5
	s15.3,4.1,12.8,5.5c-2.5,1.5-15.4-1.1-15.4-1.1s15.4,7.9,11.4,7.9c-5.6,0.1-18.8-5.1-20.1-8.5c-1.3-3.5-15.4-33.8-18.5-39.5
	C239.4,231.1,256.6,227.9,256.6,227.9z"/>
<path class="st9" d="M268.5,206.8c0,0,6.8,0.9,10.2-0.5c3.4-1.4,4.5-2.8,6.2-2.8c2.4-0.1,3.5,5.5,3.5,5.5s2.6-5.1,4.2-4.3
	c1,0.5,1.8,2.6,2.8,4.9c0.7,1.6,1.2,3.4,1.2,3.4s-3.3,7.2-10.4,7.4C277.5,220.6,268.5,206.8,268.5,206.8z"/>
<path class="st11" d="M296.6,212.9c-26.6,2.2-35.7-13.5-35.7-13.5"/>
<path class="st11" d="M225.7,156.7c0,0-4.6,0.7-8.2,0c-3.6-0.7-6.5-2.2-6.5-2.2"/>
<path class="st11" d="M228.1,153.9c0,0-4.6-0.9-7.7-2.8c-3.2-1.9-5.4-4.3-5.4-4.3"/>
<path class="st11" d="M231.3,152.4c0,0-4-2.4-6.3-5.3c-2.3-2.9-3.6-5.9-3.6-5.9"/>
<path class="st4" d="M248.3,158.1c0.7,7.1-5.2,11.6-11.5,11.6c-6.2-0.1-10.7-4.9-11.2-11.8c-0.4-6.5,5.2-11.1,11.5-11.6
	C243.8,145.7,247.7,151.6,248.3,158.1z"/>
<path d="M234.2,155.8c0.1,1.3-1,2.2-2.2,2.2c-1.2,0-2-0.9-2.1-2.2c-0.1-1.2,1-2.1,2.2-2.2C233.3,153.4,234.1,154.6,234.2,155.8z"/>
</svg>
