<svg width="536" height="139" viewBox="0 0 536 139" fill="none" xmlns="http://www.w3.org/2000/svg">
<path d="M74.3651 0.678771C157.087 -1.57059 456.72 2.13964 505.035 6.40049C551.439 10.4909 542.609 87.5366 498.987 86.9972C429.15 86.1338 131.386 84.3377 83.7239 85.1674C4.06393 80.5675 -0.983381 72.7874 0.118054 45.9319C2.13025 -3.36484 18.9501 2.18833 74.3651 0.678771Z" fill="#EE1D23"/>
<path d="M117 78.6766C117 78.6766 109.601 96.3783 99.2413 107.893C79.6327 129.548 48 139 48 139C48 139 90.9169 104.284 89.622 81.7701C89.067 72.4896 86.1072 73.0052 86.1072 73.0052L117 78.6766Z" fill="#EE1D23"/>
<path d="M29.4247 66.0674C29.2725 65.9547 29.1175 65.8335 28.9667 65.7011C28.8117 65.5672 28.7385 65.4094 28.7385 65.2206C28.5454 63.4199 28.5553 61.598 28.7667 59.7536C28.9752 57.9134 29.0823 56.0888 29.0823 54.288C29.0823 52.0322 29.0147 49.7693 28.8794 47.4951C28.7469 45.2224 28.6046 42.9496 28.451 40.6755C28.2975 38.4027 28.1735 36.1384 28.0791 33.884C27.9847 31.631 27.9748 29.3963 28.0495 27.1771C28.0495 26.9517 28.1157 26.7065 28.2524 26.4444C28.3848 26.1795 28.5849 26.0316 28.854 25.9949C29.2345 25.9555 29.6839 25.9738 30.1996 26.0499C30.7125 26.126 31.1437 26.1443 31.4875 26.1077C31.6382 26.1077 31.9257 26.0992 32.3456 26.0781C32.7641 26.0584 33.2121 26.0414 33.6898 26.0203C34.1674 26.0006 34.6169 25.9865 35.0354 25.9653C35.4553 25.9456 35.7413 25.9358 35.8949 25.9358C35.9301 25.9358 36.0851 25.9188 36.3528 25.8794C36.6177 25.8442 36.9066 25.8061 37.2095 25.7667C37.5153 25.7315 37.7914 25.6934 38.0408 25.6539C38.2902 25.6187 38.4494 25.599 38.5298 25.599C38.7566 25.599 39.13 25.5807 39.6457 25.5412C40.16 25.5074 40.6757 25.5074 41.1914 25.5412C41.7085 25.5807 42.1749 25.654 42.5948 25.7667C43.0161 25.8794 43.2429 26.1063 43.2824 26.443L43.6811 31.1759C43.7192 31.4788 43.5867 31.7339 43.2824 31.9382C42.9738 32.1453 42.6878 32.2665 42.4243 32.3045C41.6592 32.3806 40.8955 32.351 40.1318 32.2186C39.3695 32.0876 38.5861 32.0594 37.7858 32.1326C37.5942 32.1326 37.3448 32.1453 37.039 32.1608C36.7347 32.1833 36.4204 32.227 36.0936 32.3045C35.7709 32.3806 35.4947 32.4933 35.2665 32.6427C35.0354 32.7921 34.9212 33.0175 34.9212 33.3176C35.0354 34.821 35.0354 36.3808 34.9212 37.9942C34.8071 39.6103 34.8254 41.1912 34.979 42.727C34.979 42.9172 34.9973 43.1624 35.0354 43.4611C35.0748 43.7626 35.189 44.0078 35.3792 44.1938C35.5314 44.308 35.7709 44.3925 36.0936 44.4474C36.419 44.5052 36.753 44.5348 37.0982 44.5348C37.4406 44.5348 37.7661 44.5264 38.0718 44.5052C38.3762 44.4855 38.6059 44.4756 38.7566 44.4756C38.9074 44.4756 39.1976 44.4573 39.6147 44.4207C40.036 44.3812 40.4742 44.3333 40.9349 44.2784C41.3915 44.2206 41.8311 44.1755 42.2524 44.1347C42.6709 44.0994 42.9569 44.0797 43.1091 44.0797C43.2246 44.0797 43.3176 44.1459 43.3951 44.2784C43.4726 44.4122 43.5092 44.5123 43.5092 44.5883L43.9094 48.2532C43.9474 48.5899 43.8615 48.9281 43.6529 49.2677C43.4416 49.6044 43.1837 49.7961 42.8794 49.8299C42.0368 49.944 41.1984 49.9355 40.3601 49.8017C39.5175 49.6692 38.6622 49.6439 37.7844 49.7144C37.2489 49.7933 36.8657 49.9328 36.6389 50.1399C36.4092 50.3456 36.257 50.5978 36.1823 50.8993C36.1034 51.2023 36.0668 51.5362 36.0668 51.9152V53.1002C36.0668 53.2115 36.0457 53.4835 36.009 53.916C35.971 54.3486 35.9216 54.8094 35.8653 55.2955C35.8075 55.7844 35.7596 56.2339 35.7216 56.6467C35.6835 57.061 35.6427 57.3231 35.6074 57.4386C35.6835 57.4766 35.7004 57.5851 35.6666 57.7767C35.6258 57.9641 35.6427 58.1135 35.7216 58.2234C35.7216 58.4489 35.7582 58.7236 35.8371 59.0421C35.9118 59.3647 36.1232 59.5225 36.4655 59.5225H37.8112H39.8162H41.8198H43.1076C43.7192 59.5225 44.2715 59.5775 44.7703 59.6902C45.2634 59.8043 45.6072 60.2172 45.7975 60.9316C45.7975 61.0076 45.8285 61.1866 45.8862 61.467C45.944 61.746 46.0004 62.07 46.0567 62.4251C46.1145 62.783 46.1708 63.1409 46.2286 63.496C46.2864 63.8553 46.3329 64.1258 46.3724 64.3132V64.6513C46.4485 65.1797 46.3146 65.4799 45.9708 65.5546C45.6284 65.6292 45.2451 65.7053 44.8266 65.78C43.2232 65.9688 41.6183 66.0139 40.0163 65.9209C38.4128 65.8293 36.8079 65.7631 35.2059 65.7222C35.0918 65.687 34.8057 65.694 34.3478 65.7518C33.8899 65.8053 33.6207 65.835 33.5475 65.835C33.3939 65.835 33.1177 65.8462 32.7176 65.8645C32.316 65.8857 31.8947 65.9124 31.4551 65.9491C31.0155 65.9871 30.6068 66.0153 30.225 66.035C29.8446 66.059 29.5754 66.0674 29.4247 66.0674Z" fill="white"/>
<path d="M54.3896 62.9098C54.1219 60.8089 54.0458 58.6489 54.1614 56.4269C54.2769 54.2133 54.2938 52.0322 54.2177 49.889C54.1416 47.8601 54.0261 45.879 53.8753 43.9444C53.7217 42.0098 53.664 40.0259 53.702 37.9955C53.702 35.8158 53.7133 33.7896 53.7316 31.91C53.7499 30.0331 53.6048 28.0408 53.3019 25.9357C53.3794 25.3355 53.6908 24.8761 54.2445 24.5563C54.7997 24.2379 55.3421 24.0406 55.8776 23.9645C56.4877 23.8884 57.1654 23.8884 57.9108 23.9645C58.6519 24.0406 59.2747 24.3224 59.7693 24.8113C59.7693 24.886 59.7791 25.0354 59.7989 25.2608C59.8172 25.4863 59.8256 25.637 59.8256 25.7131C59.9792 27.0277 59.9609 28.4537 59.7693 29.9951C59.5776 31.5352 59.5227 32.9442 59.5988 34.2222C59.5988 34.373 59.6284 34.945 59.6862 35.9412C59.7439 36.9374 59.8087 38.0758 59.8848 39.351C59.9623 40.6276 60.0384 41.9168 60.1145 43.2117C60.1906 44.508 60.2483 45.5324 60.2864 46.2848C60.4019 48.0855 60.4667 49.8426 60.4879 51.5531C60.5076 53.2622 60.6105 54.9996 60.8021 56.7665C60.9176 57.4809 61.2332 57.8937 61.7475 58.0064C62.2632 58.1206 62.824 58.167 63.4384 58.1487C64.0471 58.1276 64.6107 58.1403 65.1264 58.1783C65.6392 58.2149 65.9351 58.5362 66.014 59.135C66.014 60.3383 65.9844 61.3063 65.9253 62.0418C65.8675 62.7731 65.7829 63.441 65.6688 64.0427C65.5547 64.6429 65.3631 64.9444 65.0968 64.9444C65.0573 64.981 64.9897 64.9994 64.8953 64.9994H64.6938C63.2439 64.9261 61.7546 64.8599 60.2286 64.8021C58.6998 64.7472 57.1738 64.6429 55.6479 64.4921C55.1505 64.4555 54.8335 64.3132 54.7024 64.0666C54.5686 63.8243 54.4643 63.4382 54.3896 62.9098Z" fill="white"/>
<path d="M88.2653 57.1075C88.5302 56.3946 89.0177 55.9324 89.725 55.7267C90.4309 55.521 91.2707 55.4646 92.2457 55.5576C93.2165 55.652 94.3057 55.8309 95.5076 56.0944C96.7095 56.3593 97.9607 56.6017 99.257 56.8271C99.791 56.7905 100.26 56.6594 100.66 56.434C101.061 56.2071 101.434 55.9211 101.776 55.5604C102.12 55.2025 102.444 54.7981 102.75 54.3501C103.056 53.902 103.378 53.4469 103.722 52.9988C103.76 52.9608 103.797 52.8776 103.838 52.7424C103.874 52.6113 103.895 52.5282 103.895 52.4902L103.666 49.1621C103.588 49.1297 103.35 48.9394 102.949 48.6013C102.548 48.2659 102.233 48.001 102.005 47.8108C101.927 47.7347 101.785 47.6318 101.575 47.5008C101.366 47.3684 101.221 47.3021 101.145 47.3021C99.8079 46.7414 98.5581 46.2877 97.3929 45.9509C96.2304 45.6128 95.1399 45.2084 94.131 44.7406C93.1179 44.2699 92.2035 43.6317 91.382 42.8215C90.562 42.0169 89.8462 40.8601 89.2346 39.3567C89.2346 39.2454 89.2262 39.0749 89.2079 38.8495C89.1882 38.624 89.1586 38.3901 89.1191 38.1449C89.0825 37.9026 89.0529 37.6771 89.0346 37.47C89.0134 37.2643 89.005 37.122 89.005 37.0459C88.9684 36.5203 88.9204 35.9567 88.8641 35.3565C88.8049 34.7534 88.8711 34.1912 89.0614 33.6629C89.0994 33.5163 89.1755 33.243 89.291 32.847C89.4066 32.4539 89.5404 32.0495 89.6926 31.6367C89.8448 31.2238 89.9885 30.8279 90.1209 30.4531C90.2562 30.0769 90.3422 29.8148 90.3802 29.6626V29.3823C90.6099 29.0441 90.8184 28.7792 91.0114 28.5918C91.2003 28.4044 91.382 28.2071 91.5553 28C91.7286 27.7929 91.8695 27.6337 91.985 27.5209C93.2447 26.1316 94.4931 25.0805 95.7345 24.3647C96.9744 23.6518 98.4933 23.2009 100.286 23.0107C100.783 22.974 101.506 23.0318 102.464 23.1812C103.416 23.3305 104.372 23.5574 105.326 23.8561C106.28 24.1576 107.118 24.5423 107.842 25.0129C108.571 25.4807 108.951 25.9978 108.988 26.5628C109.027 26.901 109.009 27.3504 108.931 27.914C108.854 28.4776 108.73 29.0427 108.559 29.6049C108.387 30.1671 108.158 30.6673 107.873 31.0984C107.587 31.531 107.253 31.7677 106.871 31.8029C105.877 31.8804 104.886 31.8692 103.894 31.7748C102.901 31.6818 101.909 31.6733 100.915 31.7466C100.724 31.7466 100.332 31.7846 99.7403 31.8593C99.1499 31.934 98.7596 31.972 98.568 31.972C98.4524 32.0467 98.2707 32.1298 98.0241 32.2256C97.7761 32.3186 97.5267 32.4426 97.2788 32.592C97.0308 32.7428 96.8222 32.8935 96.6517 33.0429C96.4798 33.1922 96.3925 33.343 96.3925 33.4938L96.6785 36.8754C96.6785 37.0614 96.8025 37.2404 97.0491 37.4094C97.2999 37.5799 97.5662 37.7476 97.8536 37.9153C98.1382 38.0858 98.4341 38.2365 98.7399 38.3661C99.0442 38.4986 99.2542 38.5832 99.3697 38.6198C100.896 39.3356 102.289 40.0119 103.55 40.6502C104.81 41.287 105.898 42.0395 106.814 42.9046C107.727 43.7683 108.465 44.7927 109.016 45.9762C109.57 47.1584 109.923 48.6351 110.075 50.4034C110.228 51.9448 110.123 53.4666 109.76 54.9658C109.398 56.4692 108.805 57.8134 107.986 58.9956C107.164 60.1792 106.125 61.1641 104.863 61.9531C103.604 62.7464 102.174 63.2156 100.569 63.3622C99.2331 63.5143 97.8579 63.534 96.4474 63.4199C95.0342 63.3072 93.7449 63.0254 92.5796 62.5731C91.4172 62.125 90.4352 61.4557 89.6334 60.5723C88.8345 59.6916 88.3794 58.5363 88.2653 57.1075Z" fill="white"/>
<path d="M131.781 65.7263C131.59 65.653 131.4 65.5318 131.209 65.3613C131.018 65.1937 130.904 65.0147 130.866 64.8273L129.49 52.8803C129.49 52.7295 129.424 52.597 129.29 52.4871C129.155 52.3744 129.031 52.3378 128.917 52.3744L122.275 52.9916L123.363 62.8533C123.44 63.4563 123.611 64.0101 123.877 64.5187C124.143 65.0218 124.315 65.5615 124.391 66.1265C124.429 66.3519 124.411 66.4914 124.335 66.5477C124.257 66.6055 124.087 66.652 123.822 66.6901C123.743 66.6901 123.64 66.7013 123.505 66.7197C123.371 66.7351 123.285 66.7492 123.246 66.7492H122.53C122.207 66.7492 121.872 66.7577 121.528 66.7774C121.187 66.7971 120.869 66.8155 120.584 66.8352C120.298 66.8507 120.116 66.8648 120.039 66.8648C119.352 66.8648 118.797 66.7859 118.379 66.6393C117.958 66.4886 117.633 66.2589 117.405 65.963C117.176 65.6629 117.014 65.2965 116.918 64.8668C116.823 64.4328 116.736 63.9368 116.661 63.3704C116.468 61.3034 116.316 59.2476 116.202 57.2003C116.086 55.153 115.993 53.0747 115.916 50.9725C115.916 50.9344 115.905 50.7273 115.886 50.3525C115.867 49.9763 115.838 49.5465 115.799 49.0548C115.764 48.5672 115.723 48.0882 115.685 47.6176C115.648 47.147 115.607 46.7792 115.572 46.52C115.495 45.0912 115.562 43.7766 115.772 42.5733C115.982 41.37 116.22 40.0554 116.488 38.6266C116.26 37.9883 116.306 37.3148 116.632 36.599C116.956 35.8861 117.212 35.2478 117.405 34.6842C117.483 34.3841 117.529 34.1009 117.549 33.8388C117.569 33.5739 117.635 33.2752 117.75 32.9356C117.75 32.9004 117.769 32.8342 117.807 32.7383C117.845 32.6425 117.883 32.596 117.921 32.596C118.341 31.845 118.703 31.0856 119.009 30.3148C119.313 29.5441 119.734 28.7818 120.268 28.0308C120.612 27.5799 121.032 27.1206 121.529 26.65C122.025 26.1822 122.561 25.7412 123.133 25.3269C123.706 24.9141 124.307 24.5773 124.936 24.3138C125.566 24.0489 126.188 23.8813 126.799 23.8052C128.517 23.6572 129.851 23.8911 130.806 24.5097C131.759 25.1282 132.514 25.93 133.068 26.9064C133.62 27.8829 134.05 28.9622 134.354 30.1458C134.661 31.3307 135.002 32.4298 135.387 33.4443C135.387 33.557 135.414 33.7627 135.472 34.0642C135.528 34.3644 135.576 34.6828 135.617 35.0238C135.652 35.3605 135.703 35.6705 135.759 35.9523C135.817 36.2327 135.845 36.4328 135.845 36.5441C136.111 39.024 136.278 41.5222 136.335 44.0401C136.39 46.5566 136.476 49.0562 136.592 51.5332C136.592 52.1743 136.543 52.831 136.447 53.5059C136.352 54.1822 136.323 54.8402 136.361 55.4785C136.361 55.5532 136.379 55.7504 136.419 56.0703C136.455 56.3915 136.493 56.7396 136.533 57.113C136.571 57.4906 136.619 57.8372 136.675 58.1542C136.733 58.4755 136.764 58.6713 136.764 58.7446V60.6059C136.764 60.6806 136.772 60.8779 136.792 61.1977C136.812 61.519 136.829 61.8642 136.85 62.2404C136.869 62.6152 136.886 62.9646 136.906 63.2802C136.927 63.6029 136.936 63.8171 136.936 63.9298C136.936 64.1552 136.898 64.492 136.823 64.9457C136.744 65.3938 136.496 65.6586 136.078 65.7319H135.962C135.927 65.7319 135.8 65.7164 135.59 65.6784C135.381 65.6417 135.257 65.6206 135.218 65.6206C135.105 65.6206 134.874 65.6333 134.53 65.6502C134.188 65.6699 133.834 65.6784 133.472 65.6784C133.109 65.6784 132.765 65.6882 132.441 65.708C132.115 65.7234 131.896 65.7263 131.781 65.7263ZM122.393 45.4406C122.428 45.8887 122.696 46.2114 123.192 46.3988C123.688 46.5876 124.26 46.7073 124.91 46.7651C125.559 46.8215 126.209 46.8412 126.857 46.8215C127.506 46.8032 128.002 46.7736 128.346 46.7369C128.422 46.7369 128.575 46.7257 128.804 46.7074C129.032 46.6905 129.186 46.6792 129.262 46.6792C129.338 46.5665 129.395 46.465 129.434 46.3678C129.471 46.2776 129.51 46.1705 129.55 46.0578C129.55 45.8324 129.528 45.466 129.49 44.9574C129.452 44.4515 129.424 43.8978 129.406 43.2961C129.383 42.6945 129.368 42.1393 129.348 41.6321C129.327 41.1263 129.318 40.7599 129.318 40.5359C129.355 40.4598 129.375 40.2893 129.375 40.0258V39.465L128.803 33.998C128.765 33.736 128.668 33.4358 128.518 33.0948C128.365 32.7595 128.176 32.4481 127.945 32.1649C127.715 31.8845 127.439 31.6591 127.116 31.49C126.791 31.3209 126.455 31.2575 126.112 31.2913C125.804 31.3293 125.52 31.4237 125.255 31.5717C123.994 32.8511 123.212 34.1854 122.905 35.5761C122.6 36.9654 122.428 38.4872 122.393 40.1385C122.393 41.0417 122.371 41.9251 122.334 42.7889C122.295 43.654 122.314 44.5374 122.393 45.4406Z" fill="white"/>
<path d="M144.436 65.1684C144.093 62.7237 143.912 60.3101 143.89 57.9232C143.872 55.5392 143.865 53.1424 143.865 50.7358C143.785 46.451 143.641 42.1972 143.431 37.9701C143.221 33.7431 142.927 29.4695 142.546 25.1466C142.622 24.9226 142.746 24.7239 142.918 24.5548C143.09 24.3843 143.327 24.2632 143.634 24.1899H143.865C146.456 24.2632 148.845 24.4422 151.022 24.724C153.196 25.0072 155.094 25.5595 156.718 26.3852C158.339 27.2151 159.674 28.3691 160.724 29.8542C161.775 31.3379 162.474 33.3006 162.815 35.7439C162.966 36.8725 162.966 38.1026 162.815 39.4341C162.661 40.767 162.301 42.0267 161.726 43.2131C161.157 44.3952 160.353 45.4196 159.322 46.2833C158.295 47.1485 156.975 47.6571 155.373 47.8051C154.607 47.8826 153.863 47.853 153.138 47.7205C152.411 47.5881 151.687 47.4866 150.964 47.4091C150.657 47.5204 150.455 47.6628 150.361 47.8333C150.266 48.0009 150.216 48.2377 150.216 48.5378C150.216 48.7252 150.225 49.0633 150.247 49.5536C150.265 50.0398 150.282 50.547 150.304 51.0754C150.321 51.601 150.338 52.1068 150.359 52.5943C150.379 53.0847 150.407 53.4228 150.445 53.6102C150.445 53.6877 150.454 53.8935 150.475 54.2288C150.495 54.5656 150.521 54.7741 150.562 54.8474L150.678 65.105C150.6 65.3305 150.533 65.6038 150.475 65.9222C150.42 66.2407 150.235 66.4591 149.93 66.5718C149.779 66.5718 149.462 66.5873 148.987 66.6267C148.508 66.6605 148.213 66.7014 148.098 66.7395C147.6 66.8142 147.144 66.8606 146.725 66.879C146.301 66.9001 145.941 66.8606 145.635 66.7662C145.332 66.6746 145.073 66.5056 144.863 66.2618C144.656 66.0194 144.513 65.6531 144.436 65.1684ZM151.594 38.731C151.673 39.2594 151.823 39.661 152.052 39.9428C152.281 40.2246 152.739 40.3288 153.428 40.2527C153.962 40.2175 154.374 40.0273 154.66 39.6919C154.944 39.3524 155.161 38.9578 155.32 38.5055C155.467 38.0561 155.547 37.5953 155.547 37.1261C155.547 36.6569 155.525 36.2511 155.49 35.9144C155.45 35.6509 155.344 35.1803 155.172 34.5053C155.002 33.8304 154.774 33.1541 154.488 32.4778C154.202 31.8014 153.837 31.2195 153.399 30.7292C152.959 30.2431 152.473 30.0373 151.939 30.112C151.788 30.112 151.674 30.3177 151.595 30.7292C151.517 31.1463 151.47 31.6591 151.451 32.2805C151.433 32.9019 151.423 33.5768 151.423 34.3095C151.423 35.0422 151.433 35.7185 151.451 36.3385C151.47 36.957 151.501 37.4939 151.539 37.9448C151.574 38.3971 151.594 38.6577 151.594 38.731Z" fill="white"/>
<path d="M168.885 63.6468C168.885 63.5679 168.905 63.4876 168.943 63.389C168.978 63.2974 168.978 63.2312 168.943 63.1931C168.978 62.7028 169.036 62.111 169.113 61.4178C169.191 60.7217 169.322 60.1496 169.515 59.6973C169.629 59.4339 169.819 59.238 170.087 59.1056C170.352 58.9717 170.631 58.8576 170.918 58.7674C171.203 58.6744 171.479 58.58 171.748 58.487C172.013 58.3926 172.226 58.2305 172.377 58.0079C172.415 58.0079 172.444 57.9502 172.464 57.8374C172.482 57.7247 172.494 57.6303 172.494 57.5571C172.494 57.4824 172.502 57.3316 172.523 57.1048C172.542 56.8821 172.557 56.6285 172.58 56.3439C172.599 56.0649 172.609 55.7902 172.609 55.5281V54.9673C172.495 51.9238 172.465 48.8986 172.523 45.8918C172.58 42.8877 172.513 39.8809 172.32 36.8769C172.32 36.7994 172.301 36.6515 172.263 36.426C172.227 36.202 172.196 35.9554 172.178 35.6919C172.158 35.4298 172.139 35.186 172.12 34.9592C172.1 34.7352 172.091 34.5661 172.091 34.4534C172.013 34.1152 171.834 33.9095 171.547 33.8348C171.259 33.7573 170.945 33.6841 170.601 33.6094C170.259 33.5347 169.952 33.4107 169.688 33.243C169.419 33.0725 169.264 32.764 169.227 32.3131C169.227 32.275 169.218 32.2356 169.199 32.2004C169.18 32.1623 169.17 32.1257 169.17 32.089V30.9322C169.17 30.3883 169.18 29.805 169.199 29.1851C169.218 28.5679 169.227 27.9832 169.227 27.4379V26.3416C169.305 26.0401 169.399 25.6639 169.515 25.2116C169.629 24.7607 169.838 24.4986 170.145 24.4211L170.259 24.4789H170.373C170.945 24.5917 171.748 24.6382 172.778 24.6198C173.807 24.6001 174.859 24.6198 175.927 24.6776C176.995 24.7325 177.997 24.865 178.933 25.0707C179.868 25.2765 180.526 25.6428 180.907 26.1684C181.1 26.3952 181.194 26.7517 181.194 27.2392C181.194 27.7295 181.213 28.1058 181.251 28.3678C181.366 29.9826 181.317 31.1112 181.108 31.7495C180.898 32.3878 180.65 32.8203 180.363 33.0457C180.077 33.2712 179.781 33.4234 179.475 33.4981C179.17 33.5713 178.979 33.8715 178.905 34.397C178.637 35.9765 178.482 37.5546 178.447 39.1341C178.407 40.7094 178.417 42.2889 178.475 43.8656C178.533 45.4451 178.619 47.0134 178.734 48.5717C178.848 50.1315 178.941 51.7026 179.02 53.2779V53.871V54.9123C179.02 55.2899 179.029 55.6365 179.048 55.955C179.068 56.2734 179.077 56.4721 179.077 56.5468V56.9977C179.115 57.4472 179.286 57.7459 179.594 57.9009C179.898 58.0474 180.242 58.1925 180.622 58.3222C181.004 58.4532 181.358 58.6251 181.682 58.8308C182.007 59.0365 182.206 59.4226 182.283 59.9805C182.283 60.2454 182.293 60.6301 182.313 61.1374C182.333 61.646 182.305 62.1518 182.227 62.6591C182.15 63.1649 182.009 63.6285 181.797 64.0399C181.586 64.4514 181.252 64.6754 180.794 64.7149C180.03 64.8628 179.164 64.9022 178.19 64.8276C177.215 64.7501 176.347 64.7501 175.584 64.8276C175.469 64.8276 175.192 64.8544 174.752 64.9093C174.314 64.9671 173.855 65.0235 173.377 65.0812C172.899 65.1362 172.443 65.1855 172.003 65.2235C171.564 65.2587 171.287 65.2785 171.172 65.2785C170.637 65.3151 170.143 65.215 169.685 64.9671C169.228 64.7233 168.961 64.2851 168.885 63.6468Z" fill="white"/>
<path d="M194.538 65.9546C194.574 65.808 194.567 65.4952 194.508 65.0246C194.45 64.5568 194.424 64.2454 194.424 64.0961C194.346 62.9322 194.356 61.8149 194.45 60.7426C194.546 59.6717 194.672 58.536 194.827 57.3327C194.862 57.2581 194.862 57.1538 194.827 57.0214C194.787 56.8875 194.769 56.8086 194.769 56.7664C194.769 55.8279 194.835 54.9078 194.969 54.0046C195.103 53.1043 195.187 52.1828 195.227 51.2444C195.304 49.4775 195.285 47.75 195.169 46.0592C195.056 44.367 195.018 42.6579 195.056 40.9276C195.056 40.781 195.065 40.5542 195.084 40.2527L195.142 39.3509C195.162 39.0507 195.18 38.7802 195.2 38.5337C195.217 38.2885 195.228 38.1307 195.228 38.0546C195.228 37.9771 195.248 37.8094 195.286 37.5473C195.323 37.2838 195.363 37.0133 195.4 36.7301C195.437 36.4497 195.478 36.1862 195.513 35.9411C195.552 35.6959 195.571 35.5367 195.571 35.462V35.2915C195.571 35.0308 195.478 34.8321 195.286 34.6997C195.093 34.5687 194.904 34.4856 194.714 34.4475C193.568 34.5208 192.471 34.532 191.422 34.4743C190.371 34.4193 189.275 34.4292 188.128 34.5038C187.821 34.4292 187.536 34.2981 187.27 34.1093C187.27 33.9233 187.25 33.5739 187.212 33.0667C187.174 32.5622 187.135 32.2297 187.098 32.0832C187.06 31.745 186.994 31.2194 186.898 30.5036C186.802 29.7893 186.744 29.065 186.726 28.3352C186.705 27.6011 186.774 26.9445 186.926 26.3611C187.078 25.7806 187.402 25.4509 187.9 25.3762H188.128L207.195 25.5439C207.463 25.5439 207.673 25.6313 207.826 25.7975C207.977 25.968 208.101 26.1653 208.197 26.3907C208.293 26.6147 208.36 26.8515 208.398 27.0952C208.436 27.3404 208.456 27.5363 208.456 27.687C208.456 27.7237 208.466 27.866 208.486 28.1111C208.505 28.3549 208.534 28.6367 208.572 28.9551C208.608 29.2764 208.648 29.5934 208.687 29.9147C208.722 30.2331 208.743 30.5065 208.743 30.7305C208.743 30.8432 208.752 31.0349 208.773 31.2941C208.793 31.559 208.81 31.8521 208.829 32.1677C208.851 32.489 208.866 32.7891 208.887 33.0694C208.905 33.3527 208.917 33.5485 208.917 33.6613C208.917 33.8529 208.859 34.0403 208.745 34.2249C208.631 34.4123 208.479 34.525 208.287 34.5644C207.333 34.7138 206.379 34.7899 205.424 34.7899C204.47 34.7899 203.517 34.8448 202.559 34.9562C202.37 34.9942 202.197 35.0055 202.048 34.9857C201.894 34.9688 201.722 35.0506 201.532 35.2408C201.302 35.5043 201.159 35.8213 201.102 36.2003C201.045 36.5737 201.015 36.9598 201.015 37.3543C201.015 37.7474 201.033 38.1433 201.071 38.5379C201.109 38.931 201.129 39.2776 201.129 39.5805C200.937 43.7893 200.843 48.0051 200.843 52.2321C200.843 56.4592 201.109 60.6397 201.645 64.771C201.645 65.0739 201.597 65.4473 201.501 65.8996C201.405 66.3519 201.147 66.5928 200.729 66.6323H200.671C200.594 66.6323 200.443 66.6224 200.212 66.6041C199.982 66.5844 199.726 66.5548 199.44 66.5167C199.152 66.4801 198.896 66.4618 198.666 66.4618H198.266C198.036 66.4251 197.74 66.4251 197.377 66.4618C197.015 66.497 196.651 66.5167 196.291 66.5167C195.926 66.5167 195.585 66.4801 195.261 66.404C194.929 66.3322 194.69 66.18 194.538 65.9546Z" fill="white"/>
<path d="M213.664 56.544C213.624 56.3975 213.596 56.1847 213.576 55.9269C213.557 55.662 213.538 55.4013 213.518 55.135C213.499 54.8729 213.48 54.6362 213.461 54.4305C213.441 54.2248 213.433 54.0839 213.433 54.0064C213.393 53.2934 213.355 52.3621 213.318 51.2179C213.279 50.0724 213.241 48.9353 213.203 47.8081C213.165 46.6795 213.125 45.6833 213.089 44.8182C213.051 43.9559 213.031 43.4669 213.031 43.3542C213.031 42.2256 213.059 40.9955 213.117 39.6626C213.175 38.3311 213.299 36.977 213.49 35.6046C213.682 34.2336 213.995 32.8993 214.436 31.603C214.874 30.3067 215.456 29.1527 216.182 28.1354C216.907 27.1223 217.833 26.2938 218.959 25.6555C220.085 25.0172 221.45 24.641 223.053 24.5283H224.199C225.267 24.6777 226.298 24.9144 227.292 25.2328C228.282 25.5541 229.178 25.9866 229.983 26.5291C230.782 27.0758 231.479 27.7225 232.07 28.4736C232.661 29.226 233.109 30.1278 233.415 31.1789C233.453 31.3311 233.504 31.696 233.56 32.2779C233.618 32.8613 233.645 33.2459 233.645 33.4333C233.645 33.7363 233.656 34.1745 233.676 34.7578C233.694 35.3383 233.703 35.6694 233.703 35.7441C233.703 36.1203 233.713 36.9375 233.734 38.1958C233.752 39.4526 233.779 40.8264 233.818 42.3101C233.856 43.7924 233.883 45.2409 233.906 46.6499C233.925 48.0589 233.934 49.1002 233.934 49.7765C233.934 50.7163 233.942 51.7999 233.962 53.0187C233.983 54.2389 233.942 55.5112 233.851 56.8216C233.755 58.1405 233.582 59.4339 233.335 60.7133C233.086 61.9885 232.677 63.1354 232.103 64.1499C231.53 65.1644 230.785 66 229.87 66.6552C228.953 67.3132 227.788 67.6809 226.377 67.7556C225.156 67.8303 224 67.7556 222.912 67.5301C221.826 67.3047 220.71 67.0017 219.563 66.6255C218.419 66.2888 217.482 65.7632 216.758 65.0489C216.034 64.3345 215.449 63.5088 215.013 62.5676C214.572 61.6292 214.248 60.633 214.038 59.5804C213.824 58.535 213.7 57.5205 213.664 56.544ZM221.278 56.1495C221.355 56.9385 221.595 57.6431 221.995 58.263C222.395 58.8802 223.055 59.155 223.969 59.0803C224.581 59.0422 225.037 58.8633 225.346 58.5434C225.65 58.2236 225.87 57.829 226.004 57.3584C226.136 56.8878 226.212 56.3933 226.235 55.8649C226.25 55.3393 226.28 54.8504 226.318 54.4009V53.9204C226.318 53.6753 226.328 53.4132 226.348 53.1286C226.365 52.8496 226.376 52.5847 226.376 52.3395V51.9168C226.49 50.0005 226.546 48.2449 226.546 46.6485C226.546 45.0507 226.49 43.2922 226.376 41.3787C226.376 41.1519 226.356 40.787 226.318 40.2797C226.281 39.7711 226.241 39.2286 226.202 38.6453C226.167 38.0619 226.126 37.5167 226.088 37.0108C226.053 36.5036 226.032 36.1372 226.032 35.9118C225.955 35.6864 225.814 35.3778 225.602 34.9818C225.392 34.5873 225.164 34.2139 224.916 33.856C224.668 33.4981 224.381 33.1881 224.058 32.9261C223.732 32.6626 223.42 32.5315 223.114 32.5315C222.731 32.5682 222.397 32.7471 222.112 33.0655C221.826 33.3868 221.596 33.7701 221.425 34.221C221.251 34.6732 221.119 35.1312 221.024 35.6018C220.929 36.0724 220.86 36.4542 220.823 36.7572C220.785 36.8318 220.744 37.0207 220.709 37.3194C220.669 37.6223 220.621 37.9605 220.564 38.3339C220.509 38.7115 220.449 39.0665 220.392 39.4047C220.335 39.7429 220.307 39.95 220.307 40.0247V40.8137V42.3355C220.307 42.9005 220.296 43.4557 220.278 43.9981C220.258 44.5448 220.251 44.9675 220.251 45.2662V45.7185C220.251 45.7918 220.258 45.8496 220.278 45.8862C220.297 45.9228 220.307 45.9806 220.307 46.0553V46.2821C220.342 46.6584 220.41 47.3121 220.509 48.2533C220.603 49.1918 220.709 50.1781 220.823 51.2137C220.937 52.2437 221.031 53.2357 221.11 54.1741C221.182 55.1153 221.24 55.7719 221.278 56.1495Z" fill="white"/>
<path d="M274.447 64.3766C274.297 64.3766 274.115 64.4316 273.903 64.5443C273.692 64.657 273.481 64.781 273.274 64.9107C273.066 65.0445 272.885 65.1756 272.73 65.3066C272.578 65.4391 272.479 65.5208 272.445 65.5616C271.908 65.8265 271.316 65.9745 270.67 66.0111C270.019 66.0463 269.407 66.066 268.835 66.066C267.499 66.1041 266.25 65.804 265.084 65.1657C263.921 64.526 262.881 63.6792 261.966 62.6281C261.048 61.5769 260.294 60.4018 259.703 59.1055C259.11 57.8092 258.721 56.5397 258.528 55.3026C258.3 53.8358 258.176 52.3408 258.156 50.8191C258.137 49.2973 258.108 47.7869 258.07 46.282C257.993 44.3643 258.128 42.3185 258.47 40.1373C258.814 37.9604 259.388 35.9877 260.189 34.2208C260.533 33.4684 260.991 32.6709 261.563 31.8255C262.138 30.9787 262.796 30.1798 263.539 29.4288C264.283 28.6792 265.076 28.0113 265.917 27.4279C266.755 26.8474 267.595 26.443 268.436 26.219C268.586 26.219 268.894 26.1979 269.351 26.1612C269.807 26.126 270.116 26.1063 270.267 26.1063C271.907 26.0668 273.243 26.2092 274.274 26.5276C275.305 26.8489 276.097 27.3631 276.652 28.0789C277.208 28.7919 277.578 29.7134 277.77 30.8392C277.961 31.9692 278.076 33.3388 278.114 34.9535V35.4918C278.114 35.7369 278.122 35.9962 278.143 36.2822C278.163 36.5626 278.173 36.8345 278.173 37.0966V37.6603C278.133 37.9632 278.092 38.2886 278.059 38.6465C278.019 39.0044 277.952 39.3327 277.854 39.6315C277.761 39.9344 277.616 40.1965 277.425 40.4233C277.233 40.6474 276.967 40.7601 276.624 40.7601C275.861 40.7234 275.153 40.6276 274.505 40.4783C273.97 40.3656 273.476 40.2232 273.016 40.0556C272.558 39.8851 272.33 39.6512 272.33 39.351L272.272 35.2367C272.272 34.7112 272.034 34.2617 271.556 33.8827C271.078 33.5093 270.591 33.3205 270.096 33.3205C268.875 33.3571 267.853 33.8939 267.033 34.9281C266.21 35.9623 265.551 37.1924 265.058 38.6184C264.56 40.0457 264.208 41.5125 263.998 43.0159C263.791 44.5165 263.682 45.7762 263.682 46.7921C263.72 47.6953 263.843 48.8126 264.056 50.1456C264.264 51.4785 264.61 52.7663 265.084 54.0048C265.562 55.2462 266.192 56.2973 266.975 57.1596C267.757 58.0262 268.761 58.4573 269.981 58.4573C270.67 58.4207 271.221 58.1769 271.643 57.7232C272.063 57.2724 272.235 56.7102 272.158 56.0352C272.158 55.9972 272.148 55.9014 272.128 55.752C272.108 55.6027 272.091 55.4421 272.07 55.273C272.052 55.1053 272.012 54.9503 271.958 54.8221C271.9 54.6925 271.832 54.6262 271.757 54.6262L269.066 54.6798C268.951 54.6798 268.827 54.6164 268.693 54.4825C268.558 54.3515 268.434 54.1908 268.318 54.002C268.204 53.8146 268.11 53.6357 268.033 53.468C267.956 53.2975 267.919 53.1552 267.919 53.0439L267.862 49.3776C267.862 49.0042 268.014 48.6957 268.318 48.4491C268.625 48.2067 268.948 48.0813 269.292 48.0813H269.52C269.712 48.1208 270.044 48.1954 270.52 48.3082C270.999 48.4209 271.295 48.4942 271.411 48.5336L278.796 48.3082C278.873 48.3082 278.977 48.4125 279.111 48.6196C279.246 48.8253 279.349 48.9873 279.428 49.0986C279.465 49.1339 279.496 49.1747 279.516 49.2114C279.535 49.2466 279.562 49.2875 279.603 49.3241C279.64 49.4002 279.679 49.4565 279.717 49.4904C279.717 49.6045 279.696 49.8299 279.659 50.1681C279.621 50.5048 279.582 50.7303 279.547 50.843L279.831 65.7222C279.831 66.0252 279.725 66.2591 279.516 66.4268C279.307 66.5972 279.106 66.6818 278.912 66.6818C278.377 66.7184 277.818 66.6607 277.226 66.5141C276.634 66.3634 276.128 66.1379 275.708 65.8378C275.442 65.6912 275.25 65.4038 275.136 64.9909C275.022 64.5781 274.791 64.3766 274.447 64.3766Z" fill="white"/>
<path d="M287.792 62.9098C287.523 60.8089 287.448 58.6489 287.563 56.4269C287.677 54.2133 287.696 52.0322 287.62 49.889C287.541 47.8601 287.427 45.879 287.276 43.9444C287.124 42.0098 287.067 40.0259 287.105 37.9955C287.105 35.8158 287.114 33.7896 287.134 31.91C287.152 30.0331 287.009 28.0408 286.703 25.9357C286.779 25.3355 287.093 24.8761 287.647 24.5563C288.202 24.2379 288.743 24.0406 289.28 23.9645C289.889 23.8884 290.567 23.8884 291.311 23.9645C292.053 24.0406 292.676 24.3224 293.17 24.8113C293.17 24.886 293.179 25.0354 293.2 25.2608C293.221 25.4863 293.23 25.637 293.23 25.7131C293.382 27.0277 293.362 28.4537 293.172 29.9951C292.98 31.5352 292.922 32.9442 293 34.2222C293 34.373 293.03 34.945 293.089 35.9412C293.148 36.9374 293.211 38.0758 293.289 39.351C293.365 40.6276 293.441 41.9168 293.518 43.2117C293.595 44.508 293.652 45.5324 293.69 46.2848C293.804 48.0855 293.871 49.8426 293.89 51.5531C293.913 53.2622 294.014 54.9996 294.207 56.7665C294.322 57.4809 294.639 57.8937 295.151 58.0064C295.669 58.1206 296.231 58.167 296.842 58.1487C297.454 58.1276 298.015 58.1403 298.529 58.1783C299.043 58.2163 299.341 58.5362 299.418 59.135C299.418 60.3383 299.388 61.3063 299.331 62.0418C299.273 62.7731 299.187 63.441 299.073 64.0427C298.957 64.6429 298.764 64.9444 298.499 64.9444C298.463 64.981 298.395 64.9994 298.298 64.9994H298.096C296.646 64.9261 295.159 64.8599 293.631 64.8021C292.102 64.7472 290.575 64.6429 289.049 64.4921C288.55 64.4555 288.237 64.3132 288.104 64.0666C287.973 63.8243 287.865 63.4382 287.792 62.9098Z" fill="white"/>
<path d="M306.972 56.544C306.935 56.3975 306.904 56.1847 306.886 55.9269C306.863 55.662 306.846 55.4013 306.828 55.135C306.806 54.8729 306.79 54.6362 306.77 54.4305C306.748 54.2248 306.741 54.0839 306.741 54.0064C306.706 53.2934 306.663 52.3621 306.627 51.2179C306.59 50.0724 306.549 48.9353 306.511 47.8081C306.476 46.6795 306.434 45.6833 306.397 44.8182C306.362 43.9559 306.341 43.4669 306.341 43.3542C306.341 42.2256 306.37 40.9955 306.428 39.6626C306.486 38.3311 306.61 36.977 306.8 35.6046C306.994 34.2336 307.306 32.8993 307.747 31.603C308.186 30.3067 308.768 29.1527 309.491 28.1354C310.218 27.1223 311.143 26.2938 312.27 25.6555C313.397 25.0172 314.764 24.641 316.364 24.5283H317.51C318.578 24.6777 319.608 24.9144 320.6 25.2328C321.59 25.5541 322.491 25.9866 323.291 26.5291C324.091 27.0758 324.789 27.7225 325.381 28.4736C325.971 29.226 326.418 30.1278 326.725 31.1789C326.761 31.3311 326.812 31.696 326.87 32.2779C326.926 32.8613 326.957 33.2459 326.957 33.4333C326.957 33.7363 326.967 34.1745 326.987 34.7578C327.007 35.3383 327.017 35.6694 327.017 35.7441C327.017 36.1203 327.028 36.9375 327.046 38.1958C327.066 39.4526 327.093 40.8264 327.133 42.3101C327.169 43.7924 327.2 45.2409 327.222 46.6499C327.239 48.0589 327.25 49.1002 327.25 49.7765C327.25 50.7163 327.259 51.7999 327.279 53.0187C327.301 54.2389 327.259 55.5112 327.166 56.8216C327.071 58.1405 326.898 59.4339 326.65 60.7133C326.401 61.9885 325.992 63.1354 325.419 64.1499C324.849 65.1644 324.101 66 323.185 66.6552C322.271 67.3132 321.104 67.6809 319.692 67.7556C318.471 67.8303 317.314 67.7556 316.228 67.5301C315.141 67.3047 314.024 67.0017 312.878 66.6255C311.733 66.2888 310.794 65.7632 310.073 65.0489C309.347 64.3345 308.764 63.5088 308.327 62.5676C307.886 61.6292 307.562 60.633 307.355 59.5804C307.134 58.535 307.01 57.5205 306.972 56.544ZM314.588 56.1495C314.664 56.9385 314.903 57.6431 315.305 58.263C315.705 58.8802 316.364 59.155 317.279 59.0803C317.889 59.0422 318.347 58.8633 318.654 58.5434C318.958 58.2236 319.178 57.829 319.313 57.3584C319.447 56.8878 319.522 56.3933 319.542 55.8649C319.561 55.3393 319.588 54.8504 319.629 54.4009V53.9204C319.629 53.6753 319.639 53.4132 319.659 53.1286C319.678 52.8496 319.688 52.5847 319.688 52.3395V51.9168C319.802 50.0005 319.86 48.2449 319.86 46.6485C319.86 45.0507 319.802 43.2922 319.688 41.3787C319.688 41.1519 319.667 40.787 319.63 40.2797C319.592 39.7711 319.552 39.2286 319.516 38.6453C319.478 38.0619 319.439 37.5167 319.402 37.0108C319.364 36.5036 319.347 36.1372 319.347 35.9118C319.267 35.6864 319.125 35.3778 318.915 34.9818C318.706 34.5873 318.474 34.2139 318.228 33.856C317.979 33.4981 317.693 33.1881 317.369 32.9261C317.046 32.6626 316.731 32.5315 316.425 32.5315C316.043 32.5682 315.709 32.7471 315.423 33.0655C315.137 33.3868 314.907 33.7701 314.736 34.221C314.564 34.6732 314.43 35.1312 314.338 35.6018C314.242 36.0724 314.175 36.4542 314.134 36.7572C314.097 36.8318 314.058 37.0207 314.02 37.3194C313.983 37.6223 313.934 37.9605 313.876 38.3339C313.82 38.7115 313.762 39.0665 313.706 39.4047C313.648 39.7429 313.618 39.95 313.618 40.0247V40.8137V42.3355C313.618 42.9005 313.605 43.4557 313.589 43.9981C313.569 44.5448 313.559 44.9675 313.559 45.2662V45.7185C313.559 45.7918 313.569 45.8496 313.589 45.8862C313.607 45.9228 313.618 45.9806 313.618 46.0553V46.2821C313.653 46.6584 313.72 47.3121 313.82 48.2533C313.913 49.1918 314.02 50.1781 314.134 51.2137C314.248 52.2437 314.344 53.2357 314.421 54.1741C314.49 55.1153 314.548 55.7719 314.588 56.1495Z" fill="white"/>
<path d="M367.76 64.3766C367.609 64.3766 367.427 64.4316 367.214 64.5443C367.007 64.657 366.795 64.781 366.586 64.9107C366.377 65.0445 366.194 65.1756 366.041 65.3066C365.89 65.4391 365.791 65.5208 365.755 65.5616C365.221 65.8265 364.629 65.9745 363.979 66.0111C363.33 66.0463 362.72 66.066 362.146 66.066C360.81 66.1041 359.561 65.804 358.395 65.1657C357.232 64.526 356.193 63.6792 355.276 62.6281C354.359 61.5769 353.605 60.4018 353.016 59.1055C352.421 57.8092 352.034 56.5397 351.842 55.3026C351.612 53.8358 351.488 52.3408 351.469 50.8191C351.448 49.2973 351.419 47.7869 351.383 46.282C351.304 44.3643 351.439 42.3185 351.781 40.1373C352.124 37.9604 352.694 35.9877 353.5 34.2208C353.844 33.4684 354.301 32.6709 354.876 31.8255C355.448 30.9787 356.106 30.1798 356.85 29.4288C357.594 28.6792 358.387 28.0113 359.227 27.4279C360.068 26.8474 360.905 26.443 361.746 26.219C361.898 26.219 362.204 26.1979 362.662 26.1612C363.12 26.126 363.426 26.1063 363.576 26.1063C365.218 26.0668 366.554 26.2092 367.586 26.5276C368.615 26.8489 369.408 27.3631 369.963 28.0789C370.52 28.7919 370.888 29.7134 371.079 30.8392C371.27 31.9692 371.385 33.3388 371.423 34.9535V35.4918C371.423 35.7369 371.432 35.9962 371.453 36.2822C371.472 36.5626 371.482 36.8345 371.482 37.0966V37.6603C371.444 37.9632 371.403 38.2886 371.368 38.6465C371.329 39.0044 371.262 39.3327 371.165 39.6315C371.071 39.9344 370.927 40.1965 370.734 40.4233C370.542 40.6474 370.278 40.7601 369.935 40.7601C369.17 40.7234 368.466 40.6276 367.816 40.4783C367.281 40.3656 366.786 40.2232 366.325 40.0556C365.867 39.8851 365.641 39.6512 365.641 39.351L365.584 35.2367C365.584 34.7112 365.343 34.2617 364.867 33.8827C364.388 33.5093 363.9 33.3205 363.407 33.3205C362.186 33.3571 361.163 33.8939 360.343 34.9281C359.52 35.9623 358.86 37.1924 358.369 38.6184C357.871 40.0457 357.518 41.5125 357.309 43.0159C357.1 44.5165 356.993 45.7762 356.993 46.7921C357.03 47.6953 357.155 48.8126 357.367 50.1456C357.575 51.4785 357.919 52.7663 358.394 54.0048C358.872 55.2462 359.501 56.2973 360.285 57.1596C361.068 58.0262 362.07 58.4573 363.292 58.4573C363.978 58.4207 364.533 58.1769 364.954 57.7232C365.373 57.2724 365.545 56.7102 365.469 56.0352C365.469 55.9972 365.459 55.9014 365.439 55.752C365.419 55.6027 365.402 55.4421 365.381 55.273C365.362 55.1053 365.325 54.9503 365.267 54.8221C365.209 54.6939 365.145 54.6262 365.067 54.6262L362.376 54.6798C362.262 54.6798 362.136 54.6164 362.004 54.4825C361.867 54.3515 361.743 54.1908 361.629 54.002C361.514 53.8146 361.421 53.6357 361.343 53.468C361.267 53.2975 361.229 53.1552 361.229 53.0439L361.171 49.3776C361.171 49.0042 361.323 48.6957 361.629 48.4491C361.936 48.2067 362.259 48.0813 362.603 48.0813H362.831C363.021 48.1208 363.357 48.1954 363.833 48.3082C364.31 48.4209 364.606 48.4942 364.72 48.5336L372.106 48.3082C372.184 48.3082 372.287 48.4125 372.424 48.6196C372.556 48.8253 372.662 48.9873 372.738 49.0986C372.776 49.1339 372.805 49.1747 372.825 49.2114C372.846 49.2466 372.873 49.2875 372.912 49.3241C372.949 49.4002 372.99 49.4565 373.025 49.4904C373.025 49.6045 373.005 49.8299 372.969 50.1681C372.934 50.5048 372.891 50.7303 372.858 50.843L373.141 65.7222C373.141 66.0252 373.038 66.2591 372.825 66.4268C372.617 66.5972 372.415 66.6818 372.223 66.6818C371.688 66.7184 371.127 66.6607 370.535 66.5141C369.942 66.3634 369.438 66.1379 369.019 65.8378C368.753 65.6912 368.561 65.4038 368.446 64.9909C368.332 64.5837 368.102 64.3766 367.76 64.3766Z" fill="white"/>
<path d="M381.102 62.9098C380.834 60.8089 380.758 58.6489 380.872 56.4269C380.987 54.2133 381.006 52.0322 380.93 49.889C380.852 47.8601 380.738 45.879 380.586 43.9444C380.434 42.0098 380.379 40.0259 380.414 37.9955C380.414 35.8158 380.424 33.7896 380.444 31.91C380.463 30.0331 380.32 28.0408 380.012 25.9357C380.09 25.3355 380.403 24.8761 380.955 24.5563C381.512 24.2379 382.054 24.0406 382.59 23.9645C383.201 23.8884 383.876 23.8884 384.621 23.9645C385.362 24.0406 385.987 24.3224 386.481 24.8113C386.481 24.886 386.49 25.0354 386.511 25.2608C386.529 25.4863 386.539 25.637 386.539 25.7131C386.69 27.0277 386.673 28.4537 386.483 29.9951C386.29 31.5352 386.233 32.9442 386.311 34.2222C386.311 34.373 386.34 34.945 386.398 35.9412C386.456 36.9374 386.522 38.0758 386.601 39.351C386.676 40.6276 386.75 41.9168 386.826 43.2117C386.905 44.508 386.963 45.5324 387 46.2848C387.114 48.0855 387.179 49.8426 387.201 51.5531C387.221 53.2622 387.325 54.9996 387.517 56.7665C387.631 57.4809 387.948 57.8937 388.462 58.0064C388.978 58.1206 389.542 58.167 390.152 58.1487C390.762 58.1276 391.324 58.1403 391.84 58.1783C392.353 58.2149 392.65 58.5362 392.727 59.135C392.727 60.3383 392.698 61.3063 392.639 62.0418C392.581 62.7731 392.496 63.441 392.381 64.0427C392.267 64.6429 392.075 64.9444 391.809 64.9444C391.772 64.981 391.706 64.9994 391.609 64.9994H391.407C389.957 64.9261 388.467 64.8599 386.942 64.8021C385.412 64.7472 383.886 64.6429 382.358 64.4921C381.862 64.4555 381.547 64.3132 381.413 64.0666C381.282 63.8243 381.176 63.4382 381.102 62.9098Z" fill="white"/>
<path d="M400.284 56.544C400.246 56.3975 400.215 56.1847 400.197 55.9269C400.175 55.662 400.157 55.4013 400.139 55.135C400.118 54.8729 400.104 54.6362 400.082 54.4305C400.06 54.2248 400.053 54.0839 400.053 54.0064C400.016 53.2934 399.974 52.3621 399.939 51.2179C399.902 50.0724 399.861 48.9353 399.825 47.8081C399.786 46.6795 399.747 45.6833 399.709 44.8182C399.672 43.9559 399.653 43.4669 399.653 43.3542C399.653 42.2256 399.682 40.9955 399.741 39.6626C399.796 38.3311 399.92 36.977 400.113 35.6046C400.305 34.2336 400.618 32.8993 401.057 31.603C401.498 30.3067 402.079 29.1527 402.805 28.1354C403.529 27.1223 404.455 26.2938 405.582 25.6555C406.708 25.0172 408.074 24.641 409.676 24.5283H410.822C411.89 24.6777 412.92 24.9144 413.913 25.2328C414.905 25.5541 415.801 25.9866 416.604 26.5291C417.403 27.0758 418.102 27.7225 418.693 28.4736C419.284 29.226 419.73 30.1278 420.037 31.1789C420.075 31.3311 420.126 31.696 420.183 32.2779C420.241 32.8613 420.269 33.2459 420.269 33.4333C420.269 33.7363 420.279 34.1745 420.299 34.7578C420.317 35.3383 420.329 35.6694 420.329 35.7441C420.329 36.1203 420.338 36.9375 420.358 38.1958C420.378 39.4526 420.406 40.8264 420.446 42.3101C420.482 43.7924 420.51 45.2409 420.533 46.6499C420.553 48.0589 420.561 49.1002 420.561 49.7765C420.561 50.7163 420.572 51.7999 420.591 53.0187C420.613 54.2389 420.572 55.5112 420.478 56.8216C420.384 58.1405 420.21 59.4339 419.964 60.7133C419.713 61.9885 419.304 63.1354 418.732 64.1499C418.161 65.1644 417.413 66 416.5 66.6552C415.583 67.3132 414.416 67.6809 413.007 67.7556C411.786 67.8303 410.63 67.7556 409.543 67.5301C408.456 67.3047 407.34 67.0017 406.193 66.6255C405.048 66.2888 404.112 65.7632 403.388 65.0489C402.664 64.3345 402.079 63.5088 401.644 62.5676C401.203 61.6292 400.878 60.633 400.67 59.5804C400.443 58.535 400.319 57.5205 400.284 56.544ZM407.898 56.1495C407.977 56.9385 408.214 57.6431 408.615 58.263C409.016 58.8802 409.675 59.155 410.589 59.0803C411.2 59.0422 411.657 58.8633 411.965 58.5434C412.27 58.2236 412.489 57.829 412.623 57.3584C412.756 56.8878 412.831 56.3933 412.852 55.8649C412.871 55.3393 412.899 54.8504 412.938 54.4009V53.9204C412.938 53.6753 412.948 53.4132 412.968 53.1286C412.989 52.8496 412.997 52.5847 412.997 52.3395V51.9168C413.112 50.0005 413.169 48.2449 413.169 46.6485C413.169 45.0507 413.112 43.2922 412.997 41.3787C412.997 41.1519 412.976 40.787 412.94 40.2797C412.903 39.7711 412.862 39.2286 412.826 38.6453C412.789 38.0619 412.747 37.5167 412.71 37.0108C412.675 36.5036 412.655 36.1372 412.655 35.9118C412.576 35.6864 412.437 35.3778 412.224 34.9818C412.015 34.5873 411.783 34.2139 411.538 33.856C411.288 33.4981 411.002 33.1881 410.68 32.9261C410.357 32.664 410.041 32.5315 409.737 32.5315C409.354 32.5682 409.02 32.7471 408.734 33.0655C408.448 33.3868 408.218 33.7701 408.046 34.221C407.874 34.6732 407.74 35.1312 407.647 35.6018C407.552 36.0724 407.484 36.4542 407.445 36.7572C407.406 36.8318 407.366 37.0207 407.33 37.3194C407.292 37.6223 407.243 37.9605 407.187 38.3339C407.129 38.7115 407.071 39.0665 407.013 39.4047C406.957 39.7429 406.927 39.95 406.927 40.0247V40.8137V42.3355C406.927 42.9005 406.916 43.4557 406.898 43.9981C406.878 44.5448 406.87 44.9675 406.87 45.2662V45.7185C406.87 45.7918 406.878 45.8496 406.898 45.8862C406.918 45.9228 406.927 45.9806 406.927 46.0553V46.2821C406.964 46.6584 407.032 47.3121 407.129 48.2533C407.223 49.1918 407.33 50.1781 407.445 51.2137C407.56 52.2437 407.653 53.2357 407.732 54.1741C407.804 55.1153 407.86 55.7719 407.898 56.1495Z" fill="white"/>
<path d="M461.069 64.3766C460.917 64.3766 460.735 64.4316 460.524 64.5443C460.315 64.657 460.104 64.781 459.894 64.9107C459.686 65.0445 459.504 65.1756 459.35 65.3066C459.197 65.4376 459.101 65.5208 459.066 65.5616C458.53 65.8265 457.938 65.9745 457.29 66.0111C456.638 66.0463 456.028 66.066 455.456 66.066C454.12 66.1041 452.869 65.804 451.705 65.1657C450.542 64.526 449.503 63.6792 448.584 62.6281C447.668 61.5769 446.913 60.4018 446.324 59.1055C445.731 57.8092 445.34 56.5397 445.149 55.3026C444.919 53.8358 444.795 52.3408 444.775 50.8191C444.754 49.2973 444.727 47.7869 444.689 46.282C444.612 44.3643 444.746 42.3185 445.088 40.1373C445.432 37.9604 446.002 35.9877 446.807 34.2208C447.151 33.4684 447.609 32.6709 448.181 31.8255C448.754 30.9787 449.414 30.1798 450.156 29.4288C450.902 28.6792 451.694 28.0113 452.535 27.4279C453.374 26.8474 454.213 26.443 455.054 26.219C455.205 26.219 455.511 26.1979 455.968 26.1612C456.426 26.126 456.732 26.1063 456.884 26.1063C458.526 26.0668 459.86 26.2092 460.893 26.5276C461.923 26.8489 462.716 27.3631 463.271 28.0789C463.825 28.7919 464.194 29.7134 464.389 30.8392C464.579 31.9692 464.693 33.3388 464.731 34.9535V35.4918C464.731 35.7369 464.741 35.9962 464.761 36.2822C464.779 36.5626 464.79 36.8345 464.79 37.0966V37.6603C464.754 37.9632 464.711 38.2886 464.676 38.6465C464.64 39.0044 464.571 39.3327 464.475 39.6315C464.379 39.9344 464.235 40.1965 464.045 40.4233C463.851 40.6474 463.586 40.7601 463.245 40.7601C462.48 40.7234 461.775 40.6276 461.124 40.4783C460.589 40.3656 460.094 40.2232 459.635 40.0556C459.177 39.8851 458.949 39.6512 458.949 39.351L458.892 35.2367C458.892 34.7112 458.653 34.2617 458.176 33.8827C457.697 33.5093 457.21 33.3205 456.715 33.3205C455.494 33.3571 454.472 33.8939 453.652 34.9281C452.831 35.9623 452.17 37.1924 451.678 38.6184C451.179 40.0457 450.827 41.5125 450.618 43.0159C450.41 44.5165 450.303 45.7762 450.303 46.7921C450.338 47.6953 450.462 48.8126 450.675 50.1456C450.888 51.4785 451.227 52.7663 451.705 54.0048C452.181 55.2462 452.809 56.2973 453.594 57.1596C454.376 58.0262 455.38 58.4573 456.601 58.4573C457.289 58.4207 457.841 58.1769 458.261 57.7232C458.682 57.2724 458.853 56.7102 458.778 56.0352C458.778 55.9972 458.767 55.9014 458.749 55.752C458.727 55.6027 458.712 55.4421 458.688 55.273C458.67 55.1053 458.633 54.9503 458.575 54.8221C458.52 54.6925 458.451 54.6262 458.375 54.6262L455.684 54.6798C455.57 54.6798 455.444 54.6164 455.312 54.4825C455.177 54.3515 455.051 54.1908 454.938 54.002C454.824 53.8146 454.729 53.6357 454.654 53.468C454.576 53.2975 454.538 53.1552 454.538 53.0439L454.481 49.3776C454.481 49.0042 454.631 48.6957 454.938 48.4491C455.244 48.2067 455.567 48.0813 455.911 48.0813H456.14C456.331 48.1208 456.663 48.1954 457.141 48.3082C457.617 48.4209 457.914 48.4942 458.029 48.5336L465.415 48.3082C465.491 48.3082 465.596 48.4125 465.73 48.6196C465.865 48.8267 465.971 48.9873 466.047 49.0986C466.087 49.1339 466.113 49.1747 466.133 49.2114C466.156 49.2466 466.181 49.2875 466.222 49.3241C466.256 49.4002 466.297 49.4565 466.335 49.4904C466.335 49.6045 466.313 49.8299 466.277 50.1681C466.24 50.5048 466.198 50.7303 466.164 50.843L466.449 65.7222C466.449 66.0252 466.345 66.2591 466.132 66.4268C465.925 66.5972 465.722 66.6818 465.531 66.6818C464.995 66.7184 464.434 66.6607 463.842 66.5141C463.25 66.3634 462.746 66.1379 462.325 65.8378C462.06 65.6912 461.869 65.4038 461.755 64.9909C461.643 64.5837 461.414 64.3766 461.069 64.3766Z" fill="white"/>
<path d="M474.411 62.9098C474.145 60.8089 474.067 58.6489 474.181 56.4269C474.297 54.2133 474.317 52.0322 474.241 49.889C474.162 47.8601 474.047 45.879 473.895 43.9444C473.745 42.0098 473.688 40.0259 473.723 37.9955C473.723 35.8158 473.735 33.7896 473.753 31.91C473.771 30.0331 473.628 28.0408 473.323 25.9357C473.398 25.3355 473.711 24.8761 474.264 24.5563C474.821 24.2379 475.362 24.0406 475.899 23.9645C476.509 23.8884 477.187 23.8884 477.929 23.9645C478.673 24.0406 479.295 24.3224 479.791 24.8113C479.791 24.886 479.799 25.0354 479.82 25.2608C479.84 25.4863 479.85 25.637 479.85 25.7131C480.001 27.0277 479.984 28.4537 479.793 29.9951C479.6 31.5352 479.543 32.9442 479.62 34.2222C479.62 34.373 479.65 34.945 479.709 35.9412C479.765 36.9374 479.833 38.0758 479.91 39.351C479.986 40.6276 480.061 41.9168 480.137 43.2117C480.215 44.508 480.272 45.5324 480.311 46.2848C480.426 48.0855 480.489 49.8426 480.512 51.5531C480.533 53.2622 480.635 54.9996 480.828 56.7665C480.943 57.4809 481.259 57.8937 481.773 58.0064C482.289 58.1206 482.851 58.167 483.461 58.1487C484.073 58.1276 484.635 58.1403 485.149 58.1783C485.663 58.2163 485.961 58.5362 486.038 59.135C486.038 60.3383 486.009 61.3063 485.949 62.0418C485.892 62.7731 485.806 63.441 485.693 64.0427C485.576 64.6429 485.384 64.9444 485.12 64.9444C485.083 64.981 485.015 64.9994 484.918 64.9994H484.715C483.267 64.9261 481.777 64.8599 480.25 64.8021C478.723 64.7472 477.197 64.6429 475.671 64.4921C475.172 64.4555 474.858 64.3132 474.724 64.0666C474.591 63.8243 474.488 63.4382 474.411 62.9098Z" fill="white"/>
<path d="M493.593 56.544C493.555 56.3975 493.526 56.1847 493.508 55.9269C493.488 55.662 493.47 55.4013 493.45 55.135C493.427 54.8729 493.412 54.6362 493.393 54.4305C493.371 54.2248 493.364 54.0839 493.364 54.0064C493.329 53.2934 493.288 52.3621 493.25 51.2179C493.213 50.0724 493.172 48.9353 493.136 47.8081C493.099 46.6795 493.058 45.6833 493.021 44.8182C492.985 43.9559 492.965 43.4669 492.965 43.3542C492.965 42.2256 492.995 40.9955 493.052 39.6626C493.109 38.3311 493.233 36.977 493.424 35.6046C493.616 34.2336 493.93 32.8993 494.37 31.603C494.811 30.3067 495.393 29.1527 496.116 28.1354C496.841 27.1223 497.766 26.2938 498.893 25.6555C500.02 25.0172 501.387 24.641 502.987 24.5283H504.133C505.202 24.6777 506.231 24.9144 507.223 25.2328C508.215 25.5541 509.112 25.9866 509.914 26.5291C510.714 27.0758 511.412 27.7225 512.004 28.4736C512.597 29.226 513.041 30.1278 513.346 31.1789C513.385 31.3311 513.435 31.696 513.493 32.2779C513.551 32.8613 513.579 33.2459 513.579 33.4333C513.579 33.7363 513.59 34.1745 513.61 34.7578C513.628 35.3383 513.637 35.6694 513.637 35.7441C513.637 36.1203 513.647 36.9375 513.666 38.1958C513.685 39.4526 513.713 40.8264 513.752 42.3101C513.79 43.7924 513.819 45.2409 513.841 46.6499C513.859 48.0589 513.869 49.1002 513.869 49.7765C513.869 50.7163 513.879 51.7999 513.899 53.0187C513.919 54.2389 513.878 55.5112 513.785 56.8216C513.689 58.1405 513.516 59.4339 513.269 60.7133C513.021 61.9885 512.611 63.1354 512.039 64.1499C511.468 65.1644 510.72 66 509.806 66.6552C508.888 67.3132 507.722 67.6809 506.313 67.7556C505.091 67.8303 503.934 67.7556 502.848 67.5301C501.762 67.3047 500.644 67.0017 499.497 66.6255C498.352 66.2888 497.416 65.7632 496.693 65.0489C495.968 64.3345 495.383 63.5088 494.948 62.5676C494.507 61.6292 494.182 60.633 493.974 59.5804C493.756 58.535 493.632 57.5205 493.593 56.544ZM501.211 56.1495C501.287 56.9385 501.526 57.6431 501.926 58.263C502.327 58.8802 502.986 59.155 503.9 59.0803C504.512 59.0422 504.97 58.8633 505.276 58.5434C505.581 58.2236 505.8 57.829 505.937 57.3584C506.069 56.8878 506.144 56.3933 506.163 55.8649C506.183 55.3393 506.211 54.8504 506.251 54.4009V53.9204C506.251 53.6753 506.262 53.4132 506.28 53.1286C506.299 52.8496 506.31 52.5847 506.31 52.3395V51.9168C506.423 50.0005 506.48 48.2449 506.48 46.6485C506.48 45.0507 506.423 43.2922 506.31 41.3787C506.31 41.1519 506.29 40.787 506.252 40.2797C506.215 39.7711 506.175 39.2286 506.138 38.6453C506.101 38.0619 506.059 37.5167 506.024 37.0108C505.986 36.5036 505.967 36.1372 505.967 35.9118C505.887 35.6864 505.746 35.3778 505.535 34.9818C505.328 34.5873 505.095 34.2139 504.85 33.856C504.599 33.4981 504.315 33.1881 503.991 32.9261C503.668 32.6626 503.352 32.5315 503.048 32.5315C502.665 32.5682 502.331 32.7471 502.045 33.0655C501.759 33.3868 501.531 33.7701 501.357 34.221C501.185 34.6732 501.051 35.1312 500.958 35.6018C500.864 36.0724 500.796 36.4542 500.757 36.7572C500.719 36.8318 500.679 37.0207 500.641 37.3194C500.605 37.6223 500.555 37.9605 500.499 38.3339C500.441 38.7115 500.384 39.0665 500.327 39.4047C500.269 39.7429 500.24 39.95 500.24 40.0247V40.8137V42.3355C500.24 42.9005 500.229 43.4557 500.21 43.9981C500.189 44.5448 500.181 44.9675 500.181 45.2662V45.7185C500.181 45.7918 500.189 45.8496 500.21 45.8862C500.23 45.9228 500.24 45.9806 500.24 46.0553V46.2821C500.275 46.6584 500.343 47.3121 500.441 48.2533C500.534 49.1918 500.641 50.1781 500.757 51.2137C500.871 52.2437 500.965 53.2357 501.043 54.1741C501.112 55.1153 501.168 55.7719 501.211 56.1495Z" fill="white"/>
</svg>
