<svg width="382" height="261" viewBox="0 0 382 261" fill="none" xmlns="http://www.w3.org/2000/svg">
<path d="M0.0726582 89.9273C-0.309709 175.357 14.4276 199.435 60.8227 208.069C85.9809 212.751 318.305 211.528 347.154 207.904C376.002 204.279 381.973 155.51 381.855 107.887C381.742 61.703 366.084 5.80344 341.145 5.81785C311.073 -2.33976 88.3984 -0.97476 50.1025 5.98601C11.8067 12.9468 0.292499 40.8304 0.0726582 89.9273Z" fill="#EE1D23"/>
<path d="M307.114 186.575C307.114 186.575 304.734 211.788 296.399 225.115C280.756 250.136 265 260.699 265 260.699C265 260.699 282.633 240.435 280.399 215.438C279.471 205.084 280.398 182 280.398 182L307.114 186.575Z" fill="#EE1D23"/>
</svg>
