<svg width="411" height="106" viewBox="0 0 411 106" fill="none" xmlns="http://www.w3.org/2000/svg">
<path d="M207.352 72.8203C207.352 72.8203 212.915 83.1268 219.843 89.4183C232.844 101.222 251.962 104.814 251.962 104.814C251.962 104.814 224.443 86.6818 223.502 72.8203C223.112 67.0751 224.919 67.2365 224.919 67.2365L207.352 72.8203Z" fill="#00A5A5"/>
<path d="M1.68465 42.3298C1.01746 17.3219 11.2118 4.57584 45.8828 3.34787C84.701 1.9715 344.383 -0.637728 385.526 3.89744C417.039 7.37098 420.011 70.9514 381.696 74.5538C340.144 78.4595 79.2555 81.2611 29.4369 74.0825C4.87834 70.5437 2.06731 56.7018 1.68465 42.3298Z" fill="#00A5A5"/>
<path d="M45.4733 51.4361C45.3196 50.2196 45.2771 48.9688 45.3425 47.687C45.4079 46.4068 45.4177 45.1462 45.3752 43.9068C45.3327 42.7343 45.2672 41.5895 45.1789 40.4692C45.0923 39.3521 45.0596 38.2057 45.0808 37.0331C45.0808 35.7726 45.0857 34.6 45.0988 33.5123C45.1086 32.4262 45.0269 31.2749 44.8535 30.0583C44.896 29.711 45.0775 29.4452 45.3915 29.2593C45.7071 29.075 46.0195 28.9608 46.3253 28.9168C46.6719 28.8744 47.0579 28.8744 47.4847 28.9168C47.9082 28.9608 48.2631 29.1239 48.5443 29.406C48.5443 29.4501 48.5492 29.5365 48.5623 29.667C48.5738 29.7958 48.5787 29.8839 48.5787 29.9279C48.6653 30.6878 48.6539 31.513 48.5443 32.405C48.4364 33.2954 48.4021 34.1108 48.4462 34.8479C48.4462 34.936 48.4626 35.267 48.4953 35.8427C48.528 36.4183 48.5656 37.0755 48.6081 37.8143C48.6506 38.5547 48.6964 39.2983 48.7389 40.0468C48.7814 40.797 48.8158 41.3889 48.837 41.8227C48.9025 42.8664 48.9401 43.8824 48.9515 44.8706C48.963 45.8589 49.0218 46.8634 49.1314 47.8843C49.1968 48.2969 49.375 48.5366 49.6694 48.6018C49.9637 48.6654 50.2859 48.6932 50.6342 48.6834C50.9825 48.6736 51.303 48.6785 51.599 48.6997C51.8934 48.7209 52.0602 48.9052 52.106 49.2558C52.106 49.9505 52.0896 50.5098 52.0569 50.9306C52.0242 51.3546 51.9751 51.7427 51.9097 52.0884C51.8443 52.4358 51.7364 52.6086 51.5827 52.6086C51.5614 52.6315 51.5238 52.6429 51.4698 52.6429H51.3554C50.5279 52.6005 49.6776 52.5613 48.806 52.5304C47.9344 52.4961 47.0628 52.4358 46.1912 52.3526C45.9066 52.3298 45.7284 52.2482 45.6515 52.108C45.5779 51.9645 45.5158 51.7427 45.4733 51.4361Z" fill="white"/>
<path d="M56.6823 51.4361C56.5286 50.2196 56.486 48.9688 56.5514 47.687C56.6169 46.4068 56.6267 45.1462 56.5842 43.9068C56.5416 42.7343 56.4762 41.5895 56.3879 40.4692C56.3012 39.3521 56.2685 38.2057 56.2898 37.0331C56.2898 35.7726 56.2947 34.6 56.3062 33.5123C56.3176 32.4262 56.2358 31.2749 56.0625 30.0583C56.105 29.711 56.2865 29.4452 56.6005 29.2593C56.9161 29.075 57.2284 28.9608 57.5326 28.9168C57.8809 28.8744 58.2668 28.8744 58.692 28.9168C59.1172 28.9608 59.472 29.1239 59.7533 29.406C59.7533 29.4501 59.7582 29.5365 59.7713 29.667C59.7811 29.7958 59.7877 29.8839 59.7877 29.9279C59.8743 30.6878 59.8629 31.513 59.7533 32.405C59.647 33.2954 59.611 34.1108 59.6552 34.8479C59.6552 34.936 59.6715 35.267 59.7043 35.8427C59.737 36.4183 59.7746 37.0755 59.8171 37.8143C59.8596 38.5547 59.9054 39.2983 59.9479 40.0468C59.9904 40.797 60.0248 41.3889 60.046 41.8227C60.1114 42.8664 60.149 43.8824 60.1605 44.8706C60.1719 45.8589 60.2308 46.8634 60.3404 47.8843C60.4058 48.2969 60.584 48.5366 60.8784 48.6018C61.1727 48.6654 61.4949 48.6932 61.8432 48.6834C62.1915 48.6736 62.512 48.6785 62.808 48.6997C63.1024 48.7209 63.2692 48.9052 63.3149 49.2558C63.3149 49.9505 63.2986 50.5098 63.2659 50.9306C63.2332 51.3546 63.1841 51.7427 63.1203 52.0884C63.0533 52.4358 62.9454 52.6086 62.7917 52.6086C62.7704 52.6315 62.7328 52.6429 62.6788 52.6429H62.5643C61.7369 52.6005 60.8866 52.5613 60.015 52.5304C59.1434 52.4961 58.2718 52.4358 57.4002 52.3526C57.1156 52.3298 56.9374 52.2482 56.8605 52.108C56.7853 51.9645 56.7248 51.7427 56.6823 51.4361Z" fill="white"/>
<path d="M68.087 53.2608C68.0003 53.1972 67.9136 53.1271 67.827 53.0505C67.7387 52.9738 67.6962 52.8809 67.6962 52.7732C67.5866 51.7295 67.5931 50.6744 67.7125 49.6128C67.8319 48.5463 67.8924 47.4928 67.8924 46.4524C67.8924 45.1461 67.8548 43.8383 67.7779 42.5255C67.7011 41.2078 67.6193 39.8967 67.5343 38.5823C67.446 37.2663 67.374 35.9584 67.3217 34.6554C67.2661 33.3508 67.2612 32.0592 67.3037 30.7758C67.3037 30.647 67.3413 30.5051 67.4182 30.3518C67.495 30.2001 67.6079 30.1137 67.7616 30.0925C67.9791 30.0697 68.2358 30.0811 68.5301 30.1251C68.8245 30.1691 69.0682 30.1789 69.2644 30.1577C69.3527 30.1577 69.5146 30.1512 69.755 30.1398C69.9937 30.13 70.2505 30.1202 70.5235 30.1088C70.795 30.0974 71.0534 30.086 71.2921 30.0746C71.5309 30.0648 71.6944 30.0599 71.7827 30.0599C71.8023 30.0599 71.8906 30.0485 72.0444 30.0273C72.1964 30.0044 72.3583 29.9849 72.5349 29.962C72.7083 29.9392 72.8653 29.9196 73.0075 29.8968C73.1498 29.874 73.243 29.8626 73.2855 29.8626C73.4164 29.8626 73.6289 29.8544 73.9233 29.8316C74.2176 29.8104 74.512 29.8104 74.8063 29.8316C75.1007 29.8544 75.3672 29.8968 75.606 29.962C75.8447 30.0273 75.9772 30.1577 75.9985 30.3518L76.2274 33.0899C76.2486 33.2643 76.1734 33.4111 75.9985 33.5302C75.8218 33.6508 75.6599 33.721 75.5079 33.7422C75.0712 33.7862 74.6363 33.7699 74.1996 33.6932C73.763 33.6166 73.3182 33.6003 72.8604 33.6443C72.7524 33.6443 72.6102 33.6508 72.4352 33.6606C72.2618 33.672 72.0803 33.6981 71.8972 33.7422C71.7108 33.7862 71.5538 33.8514 71.423 33.9362C71.2921 34.0243 71.2267 34.1547 71.2267 34.3292C71.2921 35.1984 71.2921 36.1003 71.2267 37.0347C71.1613 37.9675 71.1728 38.8807 71.2594 39.7711C71.2594 39.8804 71.2709 40.0206 71.2938 40.1951C71.315 40.3696 71.3804 40.5099 71.49 40.6191C71.5767 40.6827 71.7124 40.7316 71.8988 40.7659C72.082 40.7969 72.2733 40.8132 72.4712 40.8132C72.6658 40.8132 72.8505 40.8083 73.0272 40.7969C73.2005 40.7871 73.3313 40.7822 73.418 40.7822C73.5047 40.7822 73.6682 40.7708 73.9086 40.7479C74.1473 40.7267 74.3991 40.7007 74.6608 40.6664C74.9208 40.6354 75.1726 40.6077 75.4114 40.5865C75.6501 40.5653 75.8153 40.5539 75.902 40.5539C75.9674 40.5539 76.0213 40.5914 76.0671 40.6664C76.1096 40.7431 76.1325 40.8034 76.1325 40.8474L76.3615 42.9658C76.3827 43.1615 76.3337 43.3572 76.2143 43.5512C76.0949 43.7453 75.9478 43.8562 75.7711 43.8758C75.292 43.9426 74.8129 43.9361 74.3337 43.8595C73.8546 43.7828 73.364 43.7681 72.8636 43.8122C72.5578 43.8546 72.342 43.9361 72.2112 44.0551C72.0803 44.1758 71.992 44.3226 71.9495 44.4971C71.907 44.6683 71.8841 44.8673 71.8841 45.0809V45.7658C71.8841 45.8311 71.8727 45.9909 71.8514 46.2387C71.8285 46.4899 71.8023 46.7557 71.7696 47.0378C71.7353 47.3183 71.7091 47.5809 71.6862 47.819C71.665 48.0587 71.6437 48.2103 71.6225 48.2756C71.665 48.2968 71.6748 48.3636 71.6552 48.4713C71.6323 48.5789 71.6437 48.667 71.6879 48.7322C71.6879 48.8627 71.7108 49.0192 71.7533 49.2051C71.7974 49.3878 71.9184 49.4823 72.1147 49.4823H72.8816H74.0263H75.1694H75.9036C76.2519 49.4823 76.5675 49.5133 76.8521 49.5802C77.135 49.6438 77.3312 49.8851 77.4391 50.2961C77.4391 50.3401 77.4555 50.4429 77.4882 50.6043C77.5209 50.769 77.5536 50.9517 77.5863 51.1588C77.6206 51.3659 77.6517 51.573 77.6861 51.7768C77.7188 51.9839 77.7449 52.1421 77.7678 52.2514V52.4455C77.8103 52.752 77.7335 52.9233 77.5389 52.9657C77.3426 53.0113 77.1235 53.0537 76.8848 53.0961C75.969 53.2054 75.0549 53.2331 74.1391 53.1777C73.2234 53.1271 72.3093 53.088 71.3935 53.0668C71.3281 53.0439 71.1646 53.0505 70.9029 53.0831C70.6429 53.1157 70.4892 53.1304 70.4467 53.1304C70.3584 53.1304 70.2014 53.1369 69.9725 53.1483C69.7435 53.1597 69.5048 53.176 69.2546 53.1972C69.0044 53.2184 68.7689 53.2331 68.5514 53.2445C68.3257 53.2543 68.1753 53.2608 68.087 53.2608Z" fill="white"/>
<path d="M87.76 54.5003C87.4525 54.4579 87.2154 54.3763 87.0404 54.2573C86.8671 54.1366 86.7265 53.9246 86.6153 53.6213C86.5073 53.2739 86.4419 52.9135 86.4207 52.545C86.3978 52.1748 86.3438 51.8079 86.2555 51.4361C86.0168 50.3271 85.7927 49.2166 85.5867 48.0946C85.379 46.9775 85.1779 45.8621 84.9816 44.7532C84.8296 44.0177 84.6268 43.2936 84.3782 42.5875C84.128 41.8814 83.9252 41.1801 83.7732 40.4854C83.6652 40.0288 83.5884 39.6048 83.5442 39.2151C83.5001 38.8237 83.4134 38.3997 83.2826 37.9447C82.9997 36.9874 82.6841 35.9715 82.3358 34.8952C81.9858 33.8205 81.7896 32.7735 81.7471 31.751C81.7471 31.7298 81.7422 31.6646 81.7291 31.557C81.7193 31.4461 81.7258 31.345 81.7471 31.2455C81.77 31.1493 81.7994 31.0563 81.8468 30.9683C81.8893 30.8835 81.9662 30.8378 82.0741 30.8378C82.1166 30.8606 82.2262 30.9112 82.4012 30.9846C82.5745 31.0612 82.6726 31.0987 82.6955 31.0987C83.1747 31.1868 83.6963 31.2406 84.2637 31.2618C84.8312 31.2846 85.3414 31.2944 85.7993 31.2944L86.2244 31.557C86.4419 33.5106 86.7853 35.373 87.2514 37.144C87.7224 38.915 88.1639 40.7366 88.5776 42.6038V43.0784C88.5776 43.261 88.589 43.4355 88.6119 43.5969C88.6332 43.76 88.6774 43.9182 88.7428 44.0699C88.8082 44.2215 88.9161 44.3308 89.0682 44.396C89.199 44.3308 89.2922 44.1954 89.3462 43.99C89.4001 43.7829 89.3952 43.6133 89.3298 43.4812L90.1475 39.7043C90.1033 39.6162 90.0919 39.5559 90.1131 39.5233C90.1377 39.4923 90.1638 39.4581 90.1965 39.4271C90.2309 39.3928 90.2489 39.3553 90.2619 39.3113C90.2734 39.2689 90.2668 39.2037 90.2456 39.1156L91.0289 35.5002L90.9962 35.2376C91.0174 35.1528 91.0616 35.0061 91.1254 34.7989C91.1908 34.5918 91.2562 34.3635 91.3216 34.114C91.387 33.8645 91.4475 33.6362 91.5015 33.4291C91.5554 33.2236 91.5947 33.0769 91.6127 32.9904C91.6781 32.7083 91.7288 32.4311 91.7631 32.1587C91.7958 31.888 91.8612 31.6369 91.9577 31.4086C92.0575 31.1803 92.203 30.9911 92.4009 30.8378C92.5955 30.6861 92.88 30.5997 93.2496 30.5785C93.3379 30.5557 93.4409 30.5459 93.5603 30.5459H93.7729C93.8154 30.5459 93.8971 30.5557 94.0182 30.5785C94.1359 30.5997 94.2618 30.6209 94.3926 30.6437C94.5235 30.6649 94.6428 30.6829 94.7524 30.691C94.8603 30.7025 94.9372 30.7073 94.9813 30.7073C95.3951 30.7514 95.7646 30.8068 96.0933 30.8721C96.422 30.9373 96.5954 31.208 96.615 31.6858C96.6591 32.2501 96.5675 32.8208 96.3386 33.3981C96.1064 33.9721 95.9298 34.5103 95.799 35.0109C95.3624 36.7934 94.965 38.584 94.6069 40.3876C94.2471 42.1912 93.7418 43.972 93.0861 45.73V45.8311C93.0648 45.9371 93.0157 46.1295 92.9389 46.4002C92.862 46.6742 92.7803 46.9612 92.6952 47.2629C92.6069 47.5695 92.5252 47.8565 92.4499 48.1289C92.3731 48.3996 92.3142 48.5904 92.2717 48.698C92.1834 48.9377 92.1605 49.1758 92.2063 49.4155C92.1834 49.4791 92.1458 49.5933 92.0902 49.758C92.0378 49.9194 91.9839 50.0939 91.9283 50.2782C91.8743 50.4609 91.8171 50.6435 91.7648 50.8164C91.7092 50.9892 91.6797 51.1099 91.6797 51.1735C91.6601 51.2404 91.6339 51.3578 91.5996 51.5339C91.5669 51.7051 91.5293 51.9041 91.4868 52.1193C91.4426 52.3362 91.4034 52.5434 91.3723 52.7374C91.3379 52.9347 91.3118 53.075 91.2905 53.163C91.2464 53.4223 91.1973 53.7061 91.1433 54.0094C91.0894 54.316 90.8981 54.4758 90.571 54.5003C90.5056 54.5003 90.4287 54.5035 90.3404 54.5166C90.2538 54.528 90.1982 54.5345 90.1769 54.5345H89.701H88.9684C88.7068 54.5345 88.4615 54.528 88.2326 54.5166C88.0053 54.5035 87.8466 54.5003 87.76 54.5003Z" fill="white"/>
<path d="M100.93 47.7538C100.907 47.6674 100.892 47.5483 100.882 47.3934C100.869 47.2434 100.859 47.0884 100.848 46.94C100.837 46.7851 100.825 46.6514 100.814 46.5323C100.802 46.4117 100.797 46.3318 100.797 46.2861C100.774 45.8735 100.755 45.337 100.732 44.6749C100.709 44.0128 100.689 43.354 100.666 42.7033C100.644 42.0526 100.624 41.477 100.601 40.9747C100.58 40.4757 100.568 40.1935 100.568 40.1283C100.568 39.4744 100.585 38.765 100.617 37.992C100.65 37.2223 100.72 36.4395 100.83 35.647C100.938 34.8528 101.118 34.083 101.368 33.3329C101.618 32.5827 101.95 31.9158 102.364 31.327C102.778 30.7416 103.306 30.2638 103.95 29.8936C104.593 29.525 105.371 29.3082 106.287 29.2429H106.939C107.549 29.3294 108.136 29.4663 108.704 29.649C109.271 29.8333 109.783 30.0844 110.239 30.3991C110.697 30.7139 111.093 31.089 111.431 31.5227C111.768 31.9582 112.025 32.48 112.2 33.0866C112.221 33.1747 112.249 33.3867 112.282 33.7226C112.316 34.0602 112.331 34.2836 112.331 34.3913C112.331 34.5658 112.336 34.8202 112.347 35.1577C112.359 35.4953 112.364 35.6845 112.364 35.7285C112.364 35.9438 112.37 36.4167 112.382 37.1456C112.393 37.873 112.409 38.6655 112.429 39.5249C112.452 40.3827 112.467 41.2193 112.478 42.033C112.49 42.8484 112.494 43.4502 112.494 43.8416C112.494 44.3862 112.499 45.0108 112.511 45.7153C112.522 46.4198 112.499 47.1537 112.447 47.9152C112.393 48.6768 112.293 49.4253 112.151 50.1641C112.009 50.9012 111.777 51.5649 111.448 52.152C111.122 52.7374 110.697 53.2218 110.174 53.6034C109.652 53.9833 108.987 54.1937 108.181 54.2394C107.482 54.2834 106.825 54.2394 106.204 54.1089C105.582 53.9784 104.944 53.8039 104.292 53.587C103.638 53.393 103.103 53.0897 102.691 52.6754C102.279 52.2612 101.945 51.7834 101.697 51.2404C101.445 50.6973 101.258 50.12 101.139 49.5134C101.023 48.9051 100.949 48.318 100.93 47.7538ZM105.276 47.5255C105.319 47.9805 105.455 48.3882 105.683 48.7486C105.914 49.1073 106.289 49.2639 106.81 49.2198C107.16 49.1986 107.422 49.0959 107.595 48.9133C107.768 48.7274 107.894 48.5007 107.97 48.2283C108.045 47.956 108.089 47.669 108.1 47.364C108.112 47.0607 108.128 46.7786 108.149 46.516V46.2388C108.149 46.0986 108.154 45.9453 108.166 45.7838C108.176 45.6207 108.182 45.4691 108.182 45.3272V45.0842C108.248 43.9737 108.28 42.9593 108.28 42.0363C108.28 41.1133 108.248 40.0973 108.182 38.99C108.182 38.8596 108.171 38.6476 108.149 38.354C108.127 38.0605 108.105 37.7474 108.084 37.4098C108.061 37.0722 108.04 36.7591 108.019 36.464C107.996 36.1704 107.984 35.9584 107.984 35.828C107.942 35.6975 107.86 35.5198 107.741 35.2914C107.621 35.0615 107.49 34.8462 107.348 34.6391C107.206 34.4337 107.042 34.2526 106.858 34.1026C106.673 33.9493 106.493 33.8743 106.32 33.8743C106.1 33.8955 105.911 33.9982 105.746 34.1825C105.582 34.3684 105.451 34.5902 105.355 34.8511C105.255 35.1121 105.18 35.3779 105.126 35.6502C105.07 35.9226 105.033 36.1443 105.011 36.3172C104.989 36.3612 104.967 36.4705 104.946 36.6434C104.923 36.8178 104.897 37.0135 104.864 37.2304C104.83 37.4473 104.799 37.6528 104.764 37.8485C104.732 38.0458 104.717 38.1649 104.717 38.2073V38.6639V39.5445C104.717 39.8706 104.711 40.1903 104.701 40.505C104.689 40.8214 104.683 41.0644 104.683 41.2389V41.4998C104.683 41.5438 104.689 41.5764 104.701 41.596C104.711 41.6188 104.717 41.6514 104.717 41.6955V41.8276C104.738 42.0445 104.776 42.4228 104.828 42.9675C104.884 43.5089 104.944 44.0797 105.01 44.6782C105.075 45.2766 105.129 45.8474 105.173 46.3888C105.221 46.9286 105.255 47.3086 105.276 47.5255Z" fill="white"/>
<path d="M126.276 53.261C126.233 52.6527 126.276 52.0379 126.406 51.4198C126.537 50.8018 126.624 50.187 126.668 49.5787C126.734 49.1433 126.776 48.7095 126.799 48.2741C126.82 47.8403 126.855 47.4065 126.897 46.9711C126.874 46.9499 126.864 46.9156 126.864 46.8732V46.7428L127.19 44.5918C127.082 44.2444 127.087 43.8889 127.208 43.5334C127.326 43.173 127.409 42.842 127.451 42.5403C127.473 42.3234 127.517 41.9027 127.582 41.2846C127.648 40.6649 127.734 39.9604 127.844 39.1662C127.952 38.3737 128.066 37.5371 128.186 36.6565C128.305 35.7775 128.431 34.9621 128.562 34.2119C128.693 33.4634 128.817 32.8339 128.936 32.3219C129.056 31.8131 129.172 31.5244 129.28 31.4592C129.607 31.2635 129.983 31.1543 130.406 31.1347C130.832 31.1119 131.229 31.089 131.598 31.0695C131.86 31.0466 132.066 31.0352 132.22 31.0352C132.372 31.0352 132.599 31.0466 132.907 31.0695C133.167 31.2195 133.374 31.513 133.526 31.9484C133.68 33.1438 133.912 34.2772 134.23 35.3551C134.545 36.4298 134.856 37.542 135.162 38.6933C135.183 38.739 135.214 38.8629 135.26 39.07C135.302 39.2755 135.353 39.4989 135.407 39.737C135.461 39.9767 135.515 40.1985 135.571 40.4056C135.625 40.6111 135.652 40.7367 135.652 40.7807C135.696 40.8883 135.755 41.0726 135.832 41.3351C135.909 41.5944 135.956 41.7787 135.979 41.888C135.979 41.9108 135.991 41.932 136.014 41.9532C136.035 41.9744 136.056 41.9875 136.079 41.9875H136.112C136.243 41.9875 136.346 41.7102 136.421 41.1558C136.498 40.6013 136.563 39.9115 136.617 39.0879C136.671 38.2611 136.725 37.3707 136.781 36.4151C136.836 35.4595 136.9 34.5675 136.977 33.7423C137.054 32.9155 137.15 32.2273 137.271 31.6728C137.391 31.1184 137.551 30.8314 137.745 30.8085L141.178 30.5476C141.243 30.5476 141.33 30.5982 141.44 30.6944C141.547 30.7939 141.613 30.8852 141.634 30.9716L142.256 35.665C142.298 35.8378 142.349 36.0237 142.403 36.2194C142.458 36.4151 142.506 36.5994 142.55 36.7739C142.573 37.012 142.615 37.3871 142.681 37.8975C142.746 38.4095 142.823 38.9836 142.911 39.6245C142.998 40.2654 143.085 40.9323 143.171 41.6287C143.26 42.325 143.345 42.9904 143.433 43.6329C143.52 44.2754 143.601 44.8446 143.677 45.3452C143.752 45.8459 143.812 46.2144 143.856 46.4541C143.878 46.671 143.933 47.0396 144.02 47.5598C144.108 48.0816 144.205 48.6426 144.314 49.2379C144.424 49.8363 144.527 50.3973 144.625 50.9175C144.723 51.4378 144.793 51.8079 144.838 52.0248V52.1243C144.859 52.2319 144.854 52.3722 144.821 52.5483C144.787 52.7228 144.718 52.8304 144.609 52.8745L141.634 53.0702L139.739 38.6656L139.61 38.1111L137.78 53.0359L135.819 53.2023L131.899 38.2106L129.481 54.1155C129.458 54.2671 129.453 54.3585 129.464 54.3911C129.474 54.4237 129.427 54.44 129.316 54.44C129.294 54.44 129.283 54.4465 129.283 54.4563C129.283 54.4661 129.271 54.4677 129.252 54.4677H129.218C129.044 54.4449 128.797 54.4172 128.483 54.3846C128.168 54.3519 127.846 54.2916 127.518 54.2068C127.191 54.1171 126.909 54.0062 126.668 53.8627C126.429 53.7225 126.299 53.5219 126.276 53.261Z" fill="white"/>
<path d="M148.793 51.8601C148.793 51.8177 148.804 51.7672 148.826 51.7133C148.849 51.6595 148.849 51.622 148.826 51.5992C148.849 51.3187 148.88 50.9746 148.925 50.5734C148.968 50.1723 149.045 49.8412 149.154 49.5803C149.22 49.427 149.328 49.3128 149.481 49.2378C149.634 49.1628 149.79 49.0976 149.954 49.0421C150.119 48.9883 150.275 48.9345 150.428 48.8791C150.58 48.8252 150.7 48.7323 150.788 48.6018C150.811 48.6018 150.826 48.5676 150.837 48.5024C150.849 48.4371 150.853 48.3849 150.853 48.3393C150.853 48.2936 150.858 48.2104 150.87 48.08C150.881 47.9495 150.893 47.8028 150.904 47.638C150.914 47.475 150.92 47.3168 150.92 47.1668V46.839C150.855 45.081 150.839 43.3328 150.871 41.5928C150.906 39.856 150.867 38.1176 150.759 36.3792C150.759 36.3352 150.747 36.2488 150.724 36.1199C150.701 35.9895 150.687 35.8476 150.677 35.6943C150.664 35.5426 150.654 35.4008 150.642 35.2703C150.631 35.1415 150.626 35.042 150.626 34.9767C150.582 34.7811 150.479 34.6636 150.315 34.6196C150.152 34.5756 149.974 34.5332 149.777 34.4892C149.58 34.4451 149.406 34.375 149.254 34.2772C149.102 34.1793 149.015 33.9999 148.994 33.7406C148.994 33.7178 148.988 33.695 148.976 33.6754C148.965 33.6526 148.96 33.6314 148.96 33.6102V32.9399C148.96 32.6268 148.965 32.2892 148.976 31.9305C148.988 31.5733 148.994 31.2358 148.994 30.921V30.285C149.035 30.1105 149.092 29.8936 149.158 29.6327C149.223 29.3718 149.342 29.2201 149.517 29.1777L149.581 29.2087H149.648C149.975 29.2739 150.432 29.3017 151.02 29.2903C151.609 29.2805 152.209 29.2903 152.819 29.3245C153.429 29.3555 154.001 29.4321 154.534 29.5512C155.068 29.6719 155.445 29.8822 155.661 30.1872C155.769 30.3176 155.826 30.5247 155.826 30.8069C155.826 31.089 155.836 31.3059 155.859 31.4575C155.924 32.392 155.897 33.0443 155.777 33.4128C155.658 33.783 155.516 34.0325 155.352 34.163C155.189 34.2951 155.02 34.3799 154.845 34.4239C154.67 34.468 154.561 34.6408 154.518 34.9458C154.364 35.8574 154.279 36.7706 154.256 37.6838C154.235 38.5954 154.24 39.5087 154.274 40.4203C154.307 41.3335 154.356 42.2418 154.423 43.142C154.487 44.0438 154.539 44.9505 154.585 45.8621V46.2062V46.808C154.585 47.0249 154.59 47.2287 154.601 47.4097C154.613 47.594 154.618 47.7098 154.618 47.7522V48.0148C154.641 48.2757 154.737 48.4485 154.914 48.5333C155.087 48.623 155.283 48.7029 155.501 48.778C155.717 48.8546 155.919 48.9524 156.106 49.0715C156.289 49.1922 156.405 49.4156 156.448 49.7401C156.448 49.8934 156.454 50.1152 156.466 50.4071C156.475 50.7023 156.459 50.9942 156.417 51.2877C156.372 51.5812 156.291 51.8487 156.171 52.0868C156.052 52.3249 155.862 52.457 155.599 52.4749C155.162 52.5646 154.669 52.5842 154.113 52.5418C153.557 52.4994 153.059 52.4994 152.626 52.5418C152.561 52.5418 152.402 52.5597 152.152 52.5891C151.902 52.6233 151.64 52.6559 151.369 52.6885C151.097 52.7212 150.835 52.7489 150.585 52.7717C150.335 52.7913 150.176 52.8043 150.111 52.8043C149.805 52.8272 149.524 52.7668 149.261 52.6266C148.989 52.4847 148.835 52.2303 148.793 51.8601Z" fill="white"/>
<path d="M170.805 50.3942C170.826 50.3518 170.81 50.2507 170.756 50.099C170.704 49.9473 170.637 49.7794 170.56 49.5934C170.483 49.4075 170.408 49.233 170.331 49.0716C170.254 48.9102 170.205 48.7846 170.184 48.6982V47.5566V46.4493C170.184 46.3189 170.189 46.0286 170.2 45.5834C170.211 45.1398 170.223 44.662 170.234 44.1499C170.244 43.6395 170.256 43.1617 170.267 42.7165C170.278 42.2713 170.283 41.9843 170.283 41.8538V39.8317C170.306 39.6816 170.321 39.437 170.332 39.0994C170.344 38.7635 170.362 38.4145 170.381 38.0574C170.403 37.6986 170.417 37.3676 170.431 37.0626C170.44 36.7593 170.457 36.5538 170.478 36.4429C170.478 36.4005 170.489 36.2652 170.511 36.0352C170.534 35.8086 170.566 35.6504 170.61 35.5639C170.676 35.1954 170.718 34.8024 170.741 34.3898C170.762 33.9788 170.828 33.5858 170.937 33.2173C171.067 32.8699 171.274 32.4573 171.557 31.9795C171.84 31.5017 172.184 31.05 172.587 30.626C172.99 30.202 173.431 29.8383 173.912 29.535C174.391 29.23 174.893 29.0784 175.415 29.0784C175.807 29.0784 176.113 29.0898 176.331 29.111C176.548 29.1322 176.739 29.1762 176.905 29.2414C177.068 29.3067 177.214 29.4094 177.344 29.5513C177.475 29.6932 177.64 29.8938 177.835 30.1547C177.835 30.1971 177.858 30.2411 177.9 30.2835L177.966 30.3487V33.3494L177.706 33.545C176.725 33.5874 175.946 33.7946 175.367 34.1647C174.79 34.5333 174.404 35.109 174.208 35.8901C174.185 36.0662 174.159 36.3532 174.126 36.756C174.092 37.1572 174.054 37.5812 174.012 38.0264C173.969 38.47 173.923 38.894 173.881 39.2968C173.84 39.6979 173.816 39.9752 173.816 40.1285V41.3988C173.816 42.2256 173.822 42.9954 173.834 43.7129C173.843 44.4288 173.869 45.223 173.915 46.0922C173.958 46.7233 174.089 47.2337 174.306 47.6235C174.525 48.0149 174.785 48.3231 175.089 48.553C175.395 48.7813 175.722 48.9542 176.071 49.0716C176.419 49.1923 176.746 49.2918 177.052 49.3651C177.358 49.4418 177.619 49.5299 177.835 49.6261C178.054 49.7255 178.183 49.8625 178.228 50.0338V50.9127C178.228 51.0872 178.239 51.3009 178.26 51.5504C178.283 51.7983 178.278 52.051 178.244 52.2989C178.211 52.55 178.141 52.7735 178.031 52.9675C177.922 53.1616 177.725 53.292 177.444 53.3573H176.561C175.255 53.3573 174.094 53.1306 173.081 52.6723C172.064 52.219 171.304 51.4574 170.805 50.3942Z" fill="white"/>
<path d="M190.477 53.0651C190.367 53.0227 190.258 52.9526 190.15 52.8531C190.042 52.7536 189.977 52.6525 189.954 52.5449L189.17 45.637C189.17 45.5505 189.131 45.4739 189.054 45.407C188.977 45.3434 188.907 45.319 188.842 45.3434L185.053 45.7006L185.673 51.405C185.717 51.754 185.815 52.0736 185.968 52.3671C186.121 52.659 186.217 52.9689 186.263 53.2934C186.284 53.4239 186.273 53.5071 186.229 53.538C186.184 53.569 186.086 53.5984 185.934 53.6212C185.892 53.6212 185.831 53.6245 185.756 53.6375C185.679 53.6473 185.632 53.6538 185.607 53.6538H185.2C185.017 53.6538 184.824 53.6587 184.628 53.6685C184.431 53.6799 184.251 53.693 184.088 53.7027C183.926 53.7158 183.821 53.7191 183.779 53.7191C183.386 53.7191 183.069 53.6767 182.83 53.5902C182.592 53.5022 182.405 53.3717 182.274 53.1988C182.144 53.026 182.05 52.8156 181.996 52.5628C181.942 52.3133 181.893 52.0263 181.849 51.6985C181.741 50.5064 181.653 49.316 181.588 48.132C181.522 46.9448 181.468 45.7462 181.424 44.5297C181.424 44.5068 181.419 44.3894 181.408 44.1693C181.396 43.9524 181.38 43.7045 181.359 43.4191C181.336 43.137 181.316 42.8614 181.293 42.5907C181.27 42.3183 181.251 42.1063 181.228 41.9547C181.185 41.1279 181.223 40.3679 181.342 39.6716C181.462 38.9785 181.597 38.217 181.751 37.3918C181.62 37.0216 181.648 36.6302 181.833 36.2176C182.016 35.8051 182.165 35.4365 182.274 35.1103C182.317 34.9359 182.345 34.7744 182.356 34.6211C182.368 34.4695 182.405 34.2966 182.471 34.0993C182.471 34.0781 182.482 34.0389 182.503 33.9851C182.526 33.9313 182.547 33.9036 182.569 33.9036C182.808 33.4698 183.015 33.0295 183.19 32.5843C183.364 32.1391 183.604 31.6988 183.908 31.2634C184.104 31.0041 184.345 30.7383 184.628 30.4659C184.91 30.1952 185.215 29.9392 185.543 29.6995C185.869 29.4614 186.212 29.2657 186.572 29.114C186.932 28.9607 187.287 28.8645 187.633 28.8205C188.614 28.7324 189.375 28.8678 189.923 29.2265C190.467 29.5853 190.896 30.0468 191.211 30.6127C191.527 31.1769 191.772 31.8015 191.947 32.4864C192.12 33.1714 192.317 33.8074 192.534 34.3928C192.534 34.458 192.55 34.5771 192.583 34.7516C192.616 34.9244 192.644 35.1103 192.665 35.306C192.686 35.5017 192.714 35.6795 192.747 35.8442C192.779 36.0056 192.796 36.1214 192.796 36.185C192.948 37.6201 193.039 39.0633 193.074 40.5196C193.106 41.9759 193.156 43.4191 193.221 44.8542C193.221 45.2244 193.191 45.606 193.138 45.9941C193.084 46.3871 193.067 46.7687 193.09 47.1356C193.09 47.178 193.1 47.2922 193.124 47.4781C193.146 47.6624 193.165 47.863 193.188 48.0815C193.211 48.2984 193.237 48.5006 193.27 48.6816C193.304 48.8659 193.319 48.9817 193.319 49.0257V50.102C193.319 50.1428 193.324 50.2602 193.335 50.4428C193.347 50.6271 193.358 50.8277 193.37 51.0446C193.38 51.2647 193.391 51.4653 193.402 51.6496C193.414 51.8323 193.419 51.9578 193.419 52.023C193.419 52.1519 193.399 52.3492 193.353 52.6069C193.311 52.8678 193.169 53.0211 192.928 53.0635H192.863C192.84 53.0635 192.768 53.0537 192.649 53.0292C192.529 53.0097 192.459 52.9966 192.436 52.9966C192.374 52.9966 192.241 53.0031 192.045 53.0129C191.849 53.026 191.648 53.0292 191.44 53.0292C191.234 53.0292 191.038 53.0358 190.853 53.0488C190.667 53.0602 190.542 53.0651 190.477 53.0651ZM185.118 41.3334C185.139 41.5927 185.291 41.7786 185.574 41.8862C185.857 41.9938 186.184 42.0639 186.556 42.0998C186.927 42.1308 187.296 42.1406 187.668 42.1308C188.039 42.121 188.32 42.1047 188.518 42.0819C188.559 42.0819 188.649 42.0786 188.78 42.0656C188.909 42.0542 188.997 42.0493 189.04 42.0493C189.082 41.984 189.116 41.9253 189.139 41.8715C189.161 41.8177 189.182 41.7574 189.205 41.6921C189.205 41.5617 189.192 41.3497 189.172 41.0561C189.147 40.7626 189.133 40.443 189.121 40.094C189.11 39.7466 189.1 39.427 189.089 39.1318C189.077 38.8399 189.072 38.6279 189.072 38.4975C189.093 38.4534 189.107 38.3572 189.107 38.2039V37.8794L188.78 34.7173C188.757 34.5657 188.703 34.3912 188.614 34.1955C188.528 33.9998 188.418 33.822 188.289 33.6573C188.158 33.4943 187.999 33.3638 187.815 33.2676C187.63 33.1697 187.439 33.1322 187.242 33.1518C187.067 33.1746 186.904 33.2284 186.752 33.3165C186.034 34.0552 185.586 34.8266 185.413 35.6306C185.238 36.4329 185.139 37.3135 185.118 38.2691C185.118 38.791 185.105 39.3014 185.084 39.8021C185.061 40.3011 185.072 40.8115 185.118 41.3334Z" fill="white"/>
<path d="M195.574 48.0784C195.726 47.6674 196.004 47.4 196.408 47.2793C196.81 47.1619 197.29 47.1293 197.846 47.1831C198.402 47.2353 199.023 47.3396 199.71 47.4913C200.395 47.643 201.108 47.7848 201.85 47.9153C202.156 47.8941 202.423 47.8158 202.65 47.6854C202.881 47.5565 203.093 47.3886 203.289 47.1815C203.484 46.9744 203.669 46.7412 203.844 46.4802C204.017 46.2177 204.205 45.9584 204.401 45.6975C204.423 45.6763 204.442 45.6273 204.465 45.5507C204.488 45.474 204.5 45.4268 204.5 45.4039L204.369 43.4812C204.325 43.46 204.189 43.3524 203.96 43.1551C203.731 42.9594 203.551 42.8094 203.42 42.7001C203.378 42.6561 203.296 42.5974 203.177 42.5224C203.057 42.4473 202.975 42.4066 202.931 42.4066C202.169 42.0804 201.456 41.8228 200.791 41.6254C200.127 41.4297 199.505 41.1965 198.928 40.9242C198.349 40.6535 197.826 40.2849 197.358 39.8169C196.891 39.3489 196.482 38.6803 196.133 37.8127C196.133 37.7475 196.127 37.648 196.117 37.5175C196.106 37.3887 196.088 37.2533 196.068 37.1115C196.045 36.9696 196.03 36.8391 196.019 36.7201C196.008 36.601 196.003 36.5195 196.003 36.4771C195.98 36.1721 195.952 35.846 195.921 35.4986C195.887 35.1513 195.926 34.8251 196.034 34.5218C196.057 34.4337 196.099 34.2756 196.165 34.0472C196.23 33.8206 196.307 33.5857 196.395 33.3476C196.482 33.1079 196.564 32.8812 196.639 32.6627C196.716 32.4458 196.763 32.2942 196.786 32.2077V32.0447C196.917 31.849 197.036 31.6957 197.146 31.588C197.254 31.4788 197.358 31.3646 197.456 31.2456C197.555 31.1249 197.635 31.0336 197.7 30.9684C198.418 30.166 199.133 29.5577 199.842 29.1435C200.55 28.7309 201.415 28.4716 202.439 28.3608C202.724 28.3396 203.137 28.3722 203.682 28.4586C204.226 28.545 204.771 28.6771 205.316 28.85C205.86 29.0228 206.339 29.2463 206.755 29.5186C207.168 29.7893 207.386 30.0894 207.407 30.4139C207.428 30.6096 207.419 30.8705 207.374 31.195C207.33 31.5228 207.26 31.849 207.16 32.1735C207.062 32.4996 206.931 32.7883 206.769 33.0378C206.606 33.2889 206.414 33.4243 206.197 33.4439C205.63 33.4895 205.064 33.483 204.498 33.4292C203.93 33.3737 203.365 33.3688 202.799 33.4129C202.689 33.4129 202.465 33.4357 202.128 33.4781C201.79 33.5205 201.567 33.5433 201.46 33.5433C201.394 33.5857 201.29 33.6363 201.149 33.6901C201.007 33.7439 200.866 33.8157 200.722 33.9021C200.581 33.9885 200.462 34.075 200.364 34.163C200.266 34.2495 200.217 34.3359 200.217 34.4223L200.38 36.3776C200.38 36.4885 200.451 36.5896 200.593 36.6891C200.735 36.7853 200.887 36.8832 201.051 36.981C201.214 37.0788 201.383 37.1669 201.558 37.2419C201.733 37.3169 201.852 37.3675 201.917 37.3887C202.789 37.8013 203.585 38.1927 204.303 38.5612C205.021 38.9314 205.643 39.3652 206.166 39.8658C206.689 40.3665 207.108 40.9568 207.425 41.6417C207.741 42.3267 207.942 43.1796 208.03 44.202C208.117 45.0908 208.058 45.9731 207.85 46.839C207.643 47.7082 207.306 48.4861 206.838 49.171C206.369 49.8559 205.777 50.4251 205.057 50.8817C204.338 51.3367 203.522 51.6106 202.606 51.6971C201.842 51.7835 201.059 51.7949 200.253 51.7297C199.447 51.6661 198.712 51.503 198.047 51.2404C197.383 50.9795 196.822 50.5947 196.362 50.0842C195.901 49.5722 195.64 48.9036 195.574 48.0784Z" fill="white"/>
<path d="M220.413 53.0651C220.303 53.0227 220.194 52.9526 220.086 52.8531C219.978 52.7536 219.912 52.6525 219.89 52.5449L219.106 45.637C219.106 45.5505 219.069 45.4739 218.992 45.407C218.915 45.3434 218.845 45.319 218.779 45.3434L214.99 45.7006L215.61 51.405C215.654 51.754 215.752 52.0736 215.906 52.3671C216.058 52.659 216.155 52.9689 216.2 53.2934C216.222 53.4239 216.21 53.5071 216.166 53.538C216.122 53.569 216.024 53.5984 215.872 53.6212C215.829 53.6212 215.769 53.6245 215.693 53.6375C215.617 53.6473 215.567 53.6538 215.545 53.6538H215.137C214.953 53.6538 214.761 53.6587 214.565 53.6685C214.369 53.6799 214.189 53.693 214.025 53.7027C213.862 53.7158 213.759 53.7191 213.716 53.7191C213.324 53.7191 213.007 53.6767 212.768 53.5902C212.529 53.5022 212.343 53.3717 212.212 53.1988C212.081 53.026 211.988 52.8156 211.934 52.5628C211.88 52.3133 211.831 52.0263 211.787 51.6985C211.679 50.5064 211.59 49.316 211.525 48.132C211.46 46.9448 211.406 45.7462 211.362 44.5297C211.362 44.5068 211.357 44.3894 211.345 44.1693C211.334 43.9524 211.317 43.7045 211.296 43.4191C211.272 43.137 211.254 42.8614 211.231 42.5907C211.206 42.3183 211.188 42.1063 211.165 41.9547C211.123 41.1279 211.16 40.3679 211.28 39.6716C211.399 38.9785 211.535 38.217 211.689 37.3918C211.558 37.0216 211.586 36.6302 211.77 36.2176C211.954 35.8051 212.102 35.4365 212.212 35.1103C212.254 34.9359 212.282 34.7744 212.294 34.6211C212.305 34.4695 212.343 34.2966 212.408 34.0993C212.408 34.0781 212.42 34.0389 212.441 33.9851C212.464 33.9313 212.485 33.9036 212.506 33.9036C212.745 33.4698 212.953 33.0295 213.128 32.5843C213.301 32.1391 213.541 31.6988 213.846 31.2634C214.042 31.0041 214.282 30.7383 214.565 30.4659C214.848 30.1952 215.152 29.9392 215.481 29.6995C215.806 29.4614 216.15 29.2657 216.509 29.114C216.869 28.9607 217.224 28.8645 217.571 28.8205C218.552 28.7324 219.312 28.8678 219.858 29.2265C220.403 29.5853 220.833 30.0468 221.149 30.6127C221.464 31.1769 221.71 31.8015 221.885 32.4864C222.058 33.1714 222.254 33.8074 222.472 34.3928C222.472 34.458 222.488 34.5771 222.521 34.7516C222.553 34.9244 222.58 35.1103 222.602 35.306C222.624 35.5017 222.65 35.6795 222.684 35.8442C222.717 36.0056 222.733 36.1214 222.733 36.185C222.885 37.6201 222.977 39.0633 223.011 40.5196C223.044 41.9759 223.093 43.4191 223.158 44.8542C223.158 45.2244 223.127 45.606 223.075 45.9941C223.021 46.3871 223.005 46.7687 223.028 47.1356C223.028 47.178 223.037 47.2922 223.06 47.4781C223.083 47.6624 223.103 47.863 223.126 48.0815C223.149 48.2984 223.175 48.5006 223.207 48.6816C223.242 48.8659 223.257 48.9817 223.257 49.0257V50.102C223.257 50.1428 223.261 50.2602 223.273 50.4428C223.284 50.6271 223.296 50.8277 223.307 51.0446C223.317 51.2647 223.328 51.4653 223.34 51.6496C223.351 51.8323 223.356 51.9578 223.356 52.023C223.356 52.1519 223.335 52.3492 223.291 52.6069C223.248 52.8678 223.106 53.0211 222.866 53.0635H222.802C222.779 53.0635 222.707 53.0537 222.586 53.0292C222.468 53.0097 222.398 52.9966 222.375 52.9966C222.311 52.9966 222.181 53.0031 221.984 53.0129C221.788 53.026 221.587 53.0292 221.379 53.0292C221.173 53.0292 220.977 53.0358 220.792 53.0488C220.602 53.0602 220.478 53.0651 220.413 53.0651ZM215.052 41.3334C215.074 41.5927 215.226 41.7786 215.509 41.8862C215.792 41.9938 216.119 42.0639 216.49 42.0998C216.859 42.1308 217.231 42.1406 217.602 42.1308C217.973 42.121 218.254 42.1047 218.452 42.0819C218.493 42.0819 218.583 42.0786 218.714 42.0656C218.843 42.0542 218.931 42.0493 218.972 42.0493C219.016 41.984 219.051 41.9253 219.074 41.8715C219.095 41.8177 219.116 41.7574 219.139 41.6921C219.139 41.5617 219.126 41.3497 219.105 41.0561C219.082 40.7626 219.067 40.443 219.056 40.094C219.044 39.7466 219.034 39.427 219.023 39.1318C219.011 38.8399 219.006 38.6279 219.006 38.4975C219.028 38.4534 219.039 38.3572 219.039 38.2039V37.8794L218.714 34.7173C218.691 34.5657 218.637 34.3912 218.549 34.1955C218.462 33.9998 218.352 33.822 218.222 33.6573C218.092 33.4943 217.934 33.3638 217.747 33.2676C217.564 33.1697 217.373 33.1322 217.177 33.1518C217.002 33.1746 216.838 33.2284 216.686 33.3165C215.968 34.0552 215.52 34.8266 215.347 35.6306C215.172 36.4329 215.074 37.3135 215.052 38.2691C215.052 38.791 215.039 39.3014 215.018 39.8021C214.997 40.3011 215.008 40.8115 215.052 41.3334Z" fill="white"/>
<path d="M245.628 53.0651C245.52 53.0227 245.411 52.9526 245.303 52.8531C245.195 52.7536 245.128 52.6525 245.105 52.5449L244.322 45.637C244.322 45.5505 244.284 45.4739 244.207 45.407C244.13 45.3434 244.06 45.319 243.993 45.3434L240.206 45.7006L240.826 51.405C240.87 51.754 240.966 52.0736 241.123 52.3671C241.274 52.659 241.368 52.9689 241.414 53.2934C241.437 53.4239 241.424 53.5071 241.382 53.538C241.337 53.5707 241.238 53.5984 241.087 53.6212C241.043 53.6212 240.983 53.6245 240.909 53.6375C240.832 53.6473 240.785 53.6538 240.758 53.6538H240.353C240.168 53.6538 239.977 53.6587 239.781 53.6685C239.583 53.6799 239.404 53.693 239.241 53.7027C239.077 53.7158 238.973 53.7191 238.932 53.7191C238.539 53.7191 238.222 53.6767 237.983 53.5902C237.745 53.5022 237.558 53.3717 237.427 53.1988C237.297 53.026 237.203 52.8156 237.149 52.5628C237.095 52.3133 237.045 52.0263 237.002 51.6985C236.894 50.5064 236.804 49.316 236.741 48.132C236.674 46.9448 236.62 45.7462 236.577 44.5297C236.577 44.5068 236.571 44.3894 236.561 44.1693C236.548 43.9524 236.531 43.7045 236.51 43.4191C236.487 43.137 236.469 42.8614 236.446 42.5907C236.423 42.3183 236.402 42.1063 236.379 41.9547C236.338 41.1279 236.376 40.3679 236.494 39.6716C236.615 38.9785 236.749 38.217 236.903 37.3918C236.772 37.0216 236.799 36.6302 236.986 36.2176C237.171 35.8051 237.318 35.4365 237.427 35.1103C237.468 34.9359 237.498 34.7744 237.508 34.6211C237.521 34.4695 237.558 34.2966 237.622 34.0993C237.622 34.0781 237.635 34.0389 237.655 33.9851C237.678 33.9313 237.699 33.9036 237.722 33.9036C237.961 33.4698 238.168 33.0295 238.342 32.5843C238.517 32.1391 238.757 31.6988 239.059 31.2634C239.257 31.0041 239.498 30.7383 239.781 30.4659C240.062 30.1952 240.368 29.9392 240.695 29.6995C241.02 29.4614 241.365 29.2657 241.723 29.114C242.085 28.9607 242.44 28.8645 242.786 28.8205C243.767 28.7324 244.529 28.8678 245.076 29.2265C245.619 29.5853 246.047 30.0468 246.363 30.6127C246.678 31.1769 246.925 31.8015 247.1 32.4864C247.272 33.1714 247.468 33.8074 247.687 34.3928C247.687 34.458 247.704 34.5771 247.735 34.7516C247.767 34.9244 247.795 35.1103 247.818 35.306C247.838 35.5017 247.865 35.6795 247.898 35.8442C247.931 36.0056 247.949 36.1214 247.949 36.185C248.099 37.6201 248.191 39.0633 248.227 40.5196C248.259 41.9759 248.307 43.4191 248.374 44.8542C248.374 45.2244 248.345 45.606 248.291 45.9941C248.237 46.3871 248.22 46.7687 248.243 47.1356C248.243 47.178 248.253 47.2922 248.276 47.4781C248.299 47.6624 248.317 47.863 248.34 48.0815C248.363 48.2984 248.39 48.5006 248.423 48.6816C248.456 48.8659 248.47 48.9817 248.47 49.0257V50.102C248.47 50.1428 248.477 50.2602 248.487 50.4428C248.5 50.6271 248.51 50.8277 248.521 51.0446C248.531 51.2647 248.541 51.4653 248.554 51.6496C248.564 51.8323 248.57 51.9578 248.57 52.023C248.57 52.1519 248.551 52.3492 248.503 52.6069C248.462 52.8678 248.318 53.0211 248.078 53.0635H248.014C247.991 53.0635 247.921 53.0537 247.8 53.0292C247.682 53.0097 247.612 52.9966 247.589 52.9966C247.525 52.9966 247.394 53.0031 247.197 53.0129C247.002 53.026 246.801 53.0292 246.593 53.0292C246.385 53.0292 246.191 53.0358 246.006 53.0488C245.82 53.0602 245.695 53.0651 245.628 53.0651ZM240.27 41.3334C240.292 41.5927 240.445 41.7786 240.726 41.8862C241.01 41.9938 241.336 42.0639 241.707 42.0998C242.078 42.1308 242.448 42.1406 242.819 42.1308C243.19 42.121 243.473 42.1047 243.669 42.0819C243.713 42.0819 243.8 42.0786 243.931 42.0656C244.062 42.0542 244.148 42.0493 244.193 42.0493C244.233 41.984 244.269 41.9253 244.292 41.8715C244.312 41.8177 244.333 41.7574 244.356 41.6921C244.356 41.5617 244.343 41.3497 244.323 41.0561C244.3 40.7626 244.286 40.443 244.273 40.094C244.263 39.7466 244.253 39.427 244.24 39.1318C244.23 38.8399 244.224 38.6279 244.224 38.4975C244.247 38.4534 244.258 38.3572 244.258 38.2039V37.8794L243.929 34.7173C243.906 34.5657 243.852 34.3912 243.766 34.1955C243.679 33.9998 243.568 33.822 243.44 33.6573C243.31 33.4943 243.149 33.3638 242.964 33.2676C242.78 33.1697 242.588 33.1322 242.392 33.1518C242.217 33.1746 242.054 33.2284 241.903 33.3165C241.185 34.0552 240.737 34.8266 240.562 35.6306C240.387 36.4329 240.291 37.3135 240.268 38.2691C240.268 38.791 240.255 39.3014 240.235 39.8021C240.216 40.3011 240.224 40.8115 240.27 41.3334Z" fill="white"/>
<path d="M262.18 50.3942C262.203 50.3518 262.187 50.2507 262.133 50.099C262.079 49.9473 262.012 49.7794 261.935 49.5934C261.858 49.4075 261.785 49.233 261.708 49.0716C261.631 48.9102 261.58 48.7846 261.561 48.6982V47.5566V46.4493C261.561 46.3189 261.564 46.0286 261.577 45.5834C261.587 45.1398 261.6 44.662 261.61 44.1499C261.619 43.6395 261.633 43.1617 261.642 42.7165C261.655 42.2729 261.659 41.9843 261.659 41.8538V39.8317C261.682 39.6816 261.696 39.437 261.709 39.0994C261.719 38.7635 261.736 38.4145 261.757 38.0574C261.78 37.6986 261.794 37.3676 261.807 37.0626C261.817 36.7593 261.834 36.5538 261.855 36.4429C261.855 36.4005 261.865 36.2652 261.888 36.0352C261.91 35.8086 261.942 35.6504 261.987 35.5639C262.051 35.1954 262.095 34.8024 262.118 34.3898C262.138 33.9788 262.205 33.5858 262.313 33.2173C262.444 32.8699 262.651 32.4573 262.933 31.9795C263.217 31.5017 263.559 31.05 263.964 30.626C264.367 30.202 264.808 29.8383 265.287 29.535C265.766 29.23 266.268 29.0784 266.792 29.0784C267.184 29.0784 267.488 29.0898 267.706 29.111C267.923 29.1322 268.115 29.1762 268.278 29.2414C268.445 29.3067 268.591 29.4094 268.72 29.5513C268.851 29.6932 269.017 29.8938 269.212 30.1547C269.212 30.1971 269.235 30.2411 269.276 30.2835L269.343 30.3487V33.3494L269.081 33.545C268.1 33.5874 267.322 33.7946 266.743 34.1647C266.167 34.5333 265.781 35.109 265.583 35.8901C265.56 36.0662 265.536 36.3532 265.503 36.756C265.469 37.1572 265.43 37.5812 265.389 38.0264C265.345 38.47 265.299 38.894 265.258 39.2968C265.214 39.6979 265.191 39.9752 265.191 40.1285V41.3988C265.191 42.2256 265.197 42.9954 265.21 43.7129C265.22 44.4288 265.245 45.223 265.291 46.0922C265.335 46.7233 265.466 47.2337 265.683 47.6235C265.901 48.0149 266.162 48.3231 266.466 48.553C266.774 48.7813 267.099 48.9542 267.448 49.0716C267.796 49.1923 268.125 49.2918 268.429 49.3651C268.736 49.4418 268.998 49.5299 269.214 49.6261C269.431 49.7255 269.562 49.8625 269.606 50.0338V50.9127C269.606 51.0872 269.616 51.3009 269.639 51.5504C269.662 51.7999 269.655 52.051 269.622 52.2989C269.59 52.55 269.518 52.7735 269.408 52.9675C269.299 53.1616 269.104 53.292 268.821 53.3573H267.94C266.633 53.3573 265.47 53.1306 264.458 52.6723C263.443 52.219 262.682 51.4574 262.18 50.3942Z" fill="white"/>
<path d="M282.934 53.5855C282.739 53.5448 282.592 53.4225 282.492 53.2284C282.393 53.0311 282.317 52.8272 282.262 52.6071C282.208 52.3918 282.165 52.201 282.134 52.0363C282.1 51.8732 282.038 51.7933 281.953 51.7933C281.822 51.8145 281.652 51.914 281.447 52.0885C281.24 52.2597 281.006 52.4587 280.744 52.6723C280.483 52.8908 280.188 53.0979 279.86 53.292C279.534 53.4877 279.196 53.5986 278.847 53.6198C278.412 53.6606 277.982 53.6394 277.557 53.5529C277.132 53.4665 276.746 53.3148 276.398 53.0979C275.613 52.643 274.996 52.0754 274.551 51.4036C274.105 50.7284 273.757 49.9962 273.503 49.202C273.255 48.4095 273.078 47.5843 272.983 46.7265C272.88 45.8687 272.792 45.0354 272.705 44.2331C272.551 42.7099 272.524 41.2015 272.622 39.7028C272.722 38.2025 272.823 36.6826 272.931 35.1399V34.8659C272.931 34.7012 272.944 34.5267 272.964 34.3425C272.986 34.1582 272.998 33.9837 272.998 33.8222V33.5108C273.018 33.165 273.031 32.8601 273.031 32.5992C273.031 32.3399 273.075 32.1165 273.161 31.9322C273.248 31.7463 273.395 31.5897 273.603 31.4593C273.811 31.3288 274.13 31.231 274.568 31.1657C274.676 31.1445 274.833 31.1494 275.04 31.182C275.248 31.2146 275.466 31.2636 275.694 31.3288C275.922 31.394 276.141 31.469 276.345 31.5571C276.553 31.6435 276.69 31.7316 276.754 31.8164C276.754 31.8621 276.764 31.9371 276.788 32.0463C276.808 32.154 276.821 32.2306 276.821 32.2746C276.862 32.7525 276.875 33.2515 276.854 33.7733C276.833 34.2952 276.79 34.8203 276.723 35.3535C276.659 35.8868 276.599 36.4135 276.545 36.9338C276.491 37.4556 276.452 37.9562 276.43 38.4324C276.367 39.4109 276.376 40.3682 276.463 41.301C276.55 42.2354 276.648 43.191 276.757 44.1695C276.824 44.843 276.918 45.4986 277.035 46.1411C277.156 46.7836 277.488 47.3397 278.031 47.8175C278.075 47.8615 278.198 47.961 278.393 48.1127C278.587 48.2643 278.708 48.3622 278.754 48.4046C278.774 48.4046 278.811 48.4176 278.865 48.4388C278.919 48.46 278.958 48.4698 278.98 48.4698H279.047H279.079C279.12 48.4502 279.21 48.4046 279.341 48.341C279.472 48.2774 279.559 48.1877 279.603 48.0801C280.038 47.1913 280.347 46.309 280.532 45.4398C280.716 44.5739 280.839 43.7063 280.893 42.8502C280.947 41.994 280.963 41.1183 280.94 40.2279C280.918 39.3375 280.918 38.4129 280.94 37.4572V37.2469C280.94 37.1262 280.947 36.9957 280.957 36.8538C280.97 36.712 280.98 36.5766 280.989 36.4462C281.003 36.3157 281.009 36.2195 281.009 36.1542C281.009 36.133 281.019 36.045 281.042 35.8917C281.061 35.7417 281.083 35.5721 281.106 35.3878C281.128 35.2035 281.15 35.0404 281.173 34.8986C281.192 34.7583 281.205 34.6654 281.205 34.6213C281.228 34.0571 281.212 33.5581 281.158 33.1226C281.101 32.6889 281.107 32.3187 281.174 32.0154C281.238 31.7104 281.413 31.4674 281.694 31.2815C281.979 31.0972 282.479 30.9717 283.199 30.9064C283.33 30.8852 283.506 30.8624 283.719 30.8412C283.939 30.82 284.15 30.8135 284.358 30.8249C284.566 30.8363 284.76 30.8787 284.945 30.9554C285.13 31.032 285.267 31.1674 285.354 31.363C285.354 31.4707 285.377 31.6615 285.421 31.9338C285.462 32.2062 285.498 32.3839 285.521 32.472C285.629 33.5124 285.645 34.5349 285.568 35.5346C285.491 36.5342 285.431 37.5551 285.39 38.5988C285.367 38.9021 285.377 39.238 285.423 39.6082C285.464 39.9768 285.455 40.3355 285.39 40.6829C285.54 41.6826 285.645 42.6773 285.699 43.6672C285.753 44.6538 285.792 45.6486 285.814 46.6482C285.833 47.6463 285.854 48.6492 285.877 49.6456C285.9 50.6453 285.944 51.6466 286.008 52.6462C285.964 52.8174 285.908 52.9936 285.845 53.1648C285.778 53.3409 285.647 53.4388 285.452 53.4583C284.996 53.5024 284.587 53.5122 284.226 53.4926C283.866 53.4681 283.434 53.5007 282.934 53.5855Z" fill="white"/>
<path d="M290.742 53.2608C290.656 53.1972 290.571 53.1271 290.484 53.0505C290.394 52.9738 290.353 52.8809 290.353 52.7732C290.242 51.7295 290.249 50.6744 290.37 49.6128C290.487 48.5463 290.548 47.4928 290.548 46.4524C290.548 45.1461 290.51 43.8383 290.433 42.5255C290.356 41.2078 290.276 39.8967 290.191 38.5823C290.101 37.2663 290.031 35.9584 289.977 34.6554C289.923 33.3508 289.917 32.0592 289.961 30.7758C289.961 30.647 289.998 30.5051 290.075 30.3518C290.152 30.2001 290.263 30.1137 290.417 30.0925C290.634 30.0697 290.893 30.0811 291.187 30.1251C291.482 30.1691 291.724 30.1789 291.921 30.1577C292.008 30.1577 292.17 30.1512 292.41 30.1398C292.649 30.13 292.906 30.1202 293.181 30.1088C293.452 30.0974 293.71 30.086 293.948 30.0746C294.186 30.0648 294.35 30.0599 294.44 30.0599C294.459 30.0599 294.548 30.0485 294.701 30.0273C294.852 30.0044 295.014 29.9849 295.19 29.962C295.365 29.9392 295.522 29.9196 295.663 29.8968C295.807 29.874 295.9 29.8626 295.941 29.8626C296.072 29.8626 296.286 29.8544 296.58 29.8316C296.875 29.8104 297.167 29.8104 297.462 29.8316C297.756 29.8544 298.024 29.8968 298.263 29.962C298.502 30.0273 298.634 30.1577 298.656 30.3518L298.883 33.0899C298.906 33.2643 298.829 33.4111 298.656 33.5302C298.477 33.6508 298.317 33.721 298.163 33.7422C297.728 33.7862 297.292 33.7699 296.857 33.6932C296.418 33.6166 295.975 33.6003 295.516 33.6443C295.408 33.6443 295.267 33.6508 295.091 33.6606C294.919 33.672 294.736 33.6981 294.554 33.7422C294.366 33.7862 294.209 33.8514 294.078 33.9362C293.948 34.0243 293.884 34.1547 293.884 34.3292C293.948 35.1984 293.948 36.1003 293.884 37.0347C293.817 37.9675 293.83 38.8807 293.916 39.7711C293.916 39.8804 293.926 40.0206 293.949 40.1951C293.972 40.3696 294.036 40.5099 294.147 40.6191C294.234 40.6827 294.368 40.7316 294.556 40.7659C294.737 40.7969 294.93 40.8132 295.128 40.8132C295.323 40.8132 295.508 40.8083 295.684 40.7969C295.856 40.7871 295.988 40.7822 296.073 40.7822C296.158 40.7822 296.325 40.7708 296.566 40.7479C296.804 40.7267 297.055 40.7007 297.316 40.6664C297.578 40.6354 297.828 40.6077 298.067 40.5865C298.306 40.5653 298.472 40.5539 298.559 40.5539C298.623 40.5539 298.677 40.5914 298.723 40.6664C298.767 40.7431 298.79 40.8034 298.79 40.8474L299.017 42.9658C299.04 43.1615 298.991 43.3572 298.87 43.5512C298.752 43.7453 298.605 43.8562 298.428 43.8758C297.949 43.9426 297.47 43.9361 296.991 43.8595C296.512 43.7828 296.019 43.7681 295.519 43.8122C295.215 43.8546 294.999 43.9361 294.868 44.0551C294.737 44.1758 294.647 44.3226 294.607 44.4971C294.562 44.6683 294.54 44.8673 294.54 45.0809V45.7658C294.54 45.8311 294.53 45.9909 294.507 46.2387C294.484 46.4899 294.459 46.7557 294.427 47.0378C294.392 47.3183 294.366 47.5809 294.343 47.819C294.32 48.0587 294.299 48.2103 294.28 48.2756C294.32 48.2968 294.33 48.3636 294.312 48.4713C294.289 48.5789 294.299 48.667 294.345 48.7322C294.345 48.8627 294.368 49.0192 294.409 49.2051C294.453 49.3878 294.576 49.4823 294.77 49.4823H295.537H296.683H297.826H298.561C298.909 49.4823 299.225 49.5133 299.509 49.5802C299.79 49.6438 299.988 49.8851 300.096 50.2961C300.096 50.3401 300.113 50.4429 300.144 50.6043C300.176 50.769 300.211 50.9517 300.243 51.1588C300.276 51.3659 300.307 51.573 300.343 51.7768C300.376 51.9839 300.4 52.1421 300.423 52.2514V52.4455C300.467 52.752 300.391 52.9233 300.196 52.9657C299.998 53.0113 299.781 53.0537 299.542 53.0961C298.624 53.2054 297.712 53.2331 296.795 53.1777C295.88 53.1271 294.965 53.088 294.051 53.0668C293.984 53.0439 293.82 53.0505 293.558 53.0831C293.3 53.1157 293.146 53.1304 293.102 53.1304C293.015 53.1304 292.857 53.1369 292.63 53.1483C292.399 53.1597 292.16 53.176 291.912 53.1972C291.66 53.2184 291.426 53.2331 291.208 53.2445C290.981 53.2543 290.832 53.2608 290.742 53.2608Z" fill="white"/>
<path d="M303.324 48.0784C303.475 47.6674 303.753 47.4 304.158 47.2793C304.56 47.1619 305.04 47.1293 305.596 47.1831C306.152 47.2353 306.771 47.3396 307.458 47.4913C308.145 47.643 308.856 47.7848 309.599 47.9153C309.906 47.8941 310.171 47.8158 310.4 47.6854C310.631 47.5565 310.842 47.3886 311.039 47.1815C311.234 46.9744 311.419 46.7412 311.592 46.4802C311.767 46.2177 311.954 45.9584 312.148 45.6975C312.171 45.6763 312.192 45.6273 312.215 45.5507C312.238 45.474 312.248 45.4268 312.248 45.4039L312.117 43.4812C312.073 43.46 311.939 43.3524 311.708 43.1551C311.481 42.9594 311.299 42.8094 311.169 42.7001C311.128 42.6561 311.044 42.5974 310.923 42.5224C310.806 42.4457 310.725 42.4066 310.681 42.4066C309.918 42.0804 309.206 41.8228 308.541 41.6254C307.877 41.4297 307.254 41.1965 306.678 40.9242C306.099 40.6535 305.576 40.2849 305.107 39.8169C304.641 39.3489 304.232 38.6803 303.883 37.8127C303.883 37.7475 303.877 37.648 303.867 37.5175C303.854 37.3887 303.838 37.2533 303.816 37.1115C303.795 36.9696 303.779 36.8391 303.769 36.7201C303.756 36.601 303.753 36.5195 303.753 36.4771C303.73 36.1721 303.702 35.846 303.669 35.4986C303.637 35.1513 303.676 34.8251 303.784 34.5218C303.807 34.4337 303.848 34.2756 303.915 34.0472C303.978 33.8206 304.055 33.5857 304.145 33.3476C304.232 33.1079 304.312 32.8812 304.387 32.6627C304.464 32.4458 304.511 32.2942 304.534 32.2077V32.0447C304.665 31.849 304.786 31.6957 304.896 31.588C305.004 31.4788 305.107 31.3646 305.205 31.2456C305.305 31.1249 305.383 31.0336 305.45 30.9684C306.168 30.166 306.881 29.5577 307.591 29.1435C308.3 28.7309 309.165 28.4716 310.187 28.3608C310.472 28.3396 310.887 28.3722 311.43 28.4586C311.976 28.545 312.519 28.6771 313.066 28.85C313.608 29.0228 314.088 29.2463 314.503 29.5186C314.918 29.7893 315.136 30.0894 315.157 30.4139C315.177 30.6096 315.167 30.8705 315.124 31.195C315.08 31.5228 315.01 31.849 314.91 32.1735C314.81 32.4996 314.68 32.7883 314.518 33.0378C314.354 33.2889 314.163 33.4243 313.945 33.4439C313.379 33.4895 312.812 33.483 312.246 33.4292C311.68 33.3737 311.113 33.3688 310.547 33.4129C310.439 33.4129 310.215 33.4357 309.877 33.4781C309.538 33.5205 309.317 33.5433 309.21 33.5433C309.143 33.5857 309.039 33.6363 308.897 33.6901C308.757 33.7439 308.616 33.8157 308.472 33.9021C308.331 33.9885 308.21 34.075 308.114 34.163C308.014 34.2495 307.967 34.3359 307.967 34.4223L308.13 36.3776C308.13 36.4885 308.197 36.5896 308.341 36.6891C308.485 36.7853 308.636 36.8832 308.801 36.981C308.964 37.0788 309.133 37.1669 309.306 37.2419C309.481 37.3169 309.6 37.3675 309.667 37.3887C310.539 37.8013 311.332 38.1927 312.053 38.5612C312.771 38.9314 313.391 39.3652 313.916 39.8658C314.439 40.3665 314.858 40.9568 315.175 41.6417C315.491 42.3267 315.692 43.1796 315.778 44.202C315.865 45.0908 315.808 45.9731 315.6 46.839C315.393 47.7082 315.054 48.4861 314.588 49.171C314.119 49.8559 313.525 50.4251 312.806 50.8817C312.084 51.3367 311.27 51.6106 310.356 51.6971C309.592 51.7835 308.807 51.7949 308.003 51.7297C307.195 51.6661 306.461 51.503 305.795 51.2404C305.131 50.9795 304.572 50.5947 304.112 50.0842C303.65 49.5722 303.388 48.9036 303.324 48.0784Z" fill="white"/>
<path d="M321.92 53.1974C321.94 53.1077 321.937 52.9299 321.904 52.6592C321.87 52.3885 321.853 52.2091 321.853 52.1211C321.812 51.4492 321.816 50.8002 321.869 50.1821C321.923 49.564 321.997 48.9052 322.084 48.2105C322.107 48.1697 322.107 48.1078 322.084 48.0327C322.061 47.9577 322.051 47.9088 322.051 47.886C322.051 47.3413 322.089 46.8097 322.162 46.2895C322.239 45.7676 322.29 45.236 322.313 44.6929C322.354 43.6704 322.345 42.674 322.278 41.6939C322.215 40.7171 322.192 39.7272 322.215 38.7292C322.215 38.6411 322.218 38.5107 322.231 38.3378L322.264 37.816C322.277 37.6431 322.286 37.4849 322.296 37.3431C322.309 37.2012 322.316 37.1099 322.316 37.0658C322.316 37.0234 322.326 36.9256 322.349 36.7739C322.368 36.6223 322.39 36.4624 322.412 36.301C322.435 36.1379 322.457 35.9846 322.479 35.8444C322.499 35.7025 322.512 35.6112 322.512 35.5671V35.4693C322.512 35.3176 322.458 35.2035 322.349 35.1268C322.241 35.0518 322.128 35.0029 322.02 34.9801C321.369 35.0241 320.743 35.029 320.143 34.998C319.542 34.9638 318.916 34.9703 318.265 35.0143C318.09 34.9703 317.927 34.8936 317.773 34.7844C317.773 34.6767 317.763 34.4762 317.74 34.1826C317.718 33.8891 317.696 33.6983 317.677 33.6119C317.654 33.4162 317.616 33.1128 317.562 32.7003C317.508 32.2877 317.472 31.8686 317.462 31.4446C317.453 31.0206 317.492 30.6406 317.577 30.3047C317.664 29.9671 317.848 29.7779 318.133 29.7339H318.264L329.145 29.8317C329.299 29.8317 329.416 29.8807 329.506 29.9785C329.593 30.0747 329.663 30.1905 329.717 30.321C329.771 30.4514 329.81 30.5868 329.832 30.7287C329.855 30.8705 329.864 30.9831 329.864 31.0711C329.864 31.0907 329.871 31.1739 329.881 31.3141C329.894 31.456 329.91 31.6191 329.928 31.8033C329.951 31.9876 329.972 32.1719 329.995 32.3578C330.018 32.5421 330.028 32.7003 330.028 32.8307C330.028 32.8959 330.034 33.0036 330.044 33.1552C330.057 33.3085 330.067 33.4765 330.079 33.6608C330.088 33.8467 330.098 34.0195 330.111 34.1826C330.121 34.3441 330.128 34.4599 330.128 34.5251C330.128 34.6327 330.095 34.742 330.028 34.8496C329.964 34.9589 329.874 35.0241 329.766 35.0453C329.223 35.1334 328.677 35.1758 328.134 35.1758C327.588 35.1758 327.045 35.21 326.499 35.2736C326.391 35.2948 326.291 35.3013 326.205 35.2915C326.118 35.2801 326.02 35.3291 325.91 35.4367C325.779 35.5883 325.699 35.7726 325.665 35.9911C325.632 36.208 325.618 36.4315 325.618 36.6581C325.618 36.8864 325.627 37.1164 325.65 37.3431C325.673 37.5714 325.683 37.7719 325.683 37.9464C325.575 40.3812 325.519 42.8192 325.519 45.2621C325.519 47.705 325.673 50.1218 325.979 52.5141C325.979 52.687 325.95 52.9039 325.896 53.1631C325.842 53.4257 325.694 53.5659 325.454 53.5871H325.421C325.377 53.5871 325.291 53.5823 325.16 53.5708C325.029 53.5611 324.882 53.5447 324.718 53.5235C324.551 53.5023 324.406 53.4909 324.275 53.4909H324.048C323.917 53.4681 323.747 53.4681 323.539 53.4909C323.331 53.5105 323.127 53.5235 322.919 53.5235C322.712 53.5235 322.517 53.5023 322.332 53.4567C322.144 53.4143 322.007 53.3279 321.92 53.1974Z" fill="white"/>
<path d="M341.758 53.0651C341.647 53.0227 341.537 52.9526 341.429 52.8531C341.321 52.7536 341.257 52.6525 341.235 52.5449L340.45 45.637C340.45 45.5505 340.412 45.4739 340.335 45.407C340.258 45.3434 340.188 45.319 340.124 45.3434L336.334 45.7006L336.953 51.405C336.998 51.754 337.097 52.0736 337.251 52.3671C337.401 52.659 337.5 52.9689 337.545 53.2934C337.565 53.4239 337.555 53.5071 337.511 53.538C337.47 53.5707 337.37 53.5984 337.217 53.6212C337.176 53.6212 337.114 53.6245 337.038 53.6375C336.962 53.6473 336.914 53.6538 336.891 53.6538H336.482C336.298 53.6538 336.106 53.6587 335.91 53.6685C335.715 53.6799 335.534 53.693 335.37 53.7027C335.207 53.7158 335.106 53.7191 335.061 53.7191C334.669 53.7191 334.352 53.6767 334.113 53.5902C333.874 53.5022 333.688 53.3717 333.557 53.1988C333.426 53.026 333.333 52.8156 333.279 52.5628C333.225 52.3133 333.176 52.0263 333.132 51.6985C333.024 50.5064 332.937 49.316 332.87 48.132C332.806 46.9448 332.752 45.7462 332.707 44.5297C332.707 44.5068 332.703 44.3894 332.69 44.1693C332.68 43.9524 332.664 43.7045 332.643 43.4191C332.617 43.137 332.599 42.8614 332.576 42.5907C332.553 42.3183 332.535 42.1063 332.512 41.9547C332.468 41.1279 332.505 40.3679 332.626 39.6716C332.744 38.9785 332.882 38.217 333.035 37.3918C332.904 37.0216 332.931 36.6302 333.115 36.2176C333.3 35.8051 333.447 35.4365 333.557 35.1103C333.601 34.9359 333.627 34.7744 333.64 34.6211C333.65 34.4695 333.688 34.2966 333.755 34.0993C333.755 34.0781 333.765 34.0389 333.788 33.9851C333.81 33.9313 333.832 33.9036 333.851 33.9036C334.09 33.4698 334.298 33.0295 334.474 32.5843C334.646 32.1391 334.886 31.6988 335.192 31.2634C335.387 31.0041 335.627 30.7383 335.91 30.4659C336.195 30.1952 336.497 29.9392 336.827 29.6995C337.153 29.4614 337.495 29.2657 337.856 29.114C338.214 28.9607 338.569 28.8645 338.916 28.8205C339.897 28.7324 340.659 28.8678 341.205 29.2265C341.748 29.5853 342.18 30.0468 342.495 30.6127C342.811 31.1769 343.055 31.8015 343.23 32.4864C343.405 33.1714 343.601 33.8074 343.817 34.3928C343.817 34.458 343.833 34.5771 343.867 34.7516C343.9 34.9244 343.925 35.1103 343.947 35.306C343.97 35.5017 343.995 35.6795 344.031 35.8442C344.064 36.0056 344.078 36.1214 344.078 36.185C344.232 37.6201 344.324 39.0633 344.356 40.5196C344.389 41.9759 344.44 43.4191 344.503 44.8542C344.503 45.2244 344.474 45.606 344.42 45.9941C344.366 46.3871 344.35 46.7687 344.373 47.1356C344.373 47.178 344.382 47.2922 344.405 47.4781C344.428 47.6624 344.449 47.863 344.472 48.0815C344.495 48.2984 344.52 48.5006 344.553 48.6816C344.587 48.8659 344.603 48.9817 344.603 49.0257V50.102C344.603 50.1428 344.606 50.2602 344.62 50.4428C344.629 50.6271 344.642 50.8277 344.652 51.0446C344.662 51.2647 344.675 51.4653 344.685 51.6496C344.698 51.8323 344.701 51.9578 344.701 52.023C344.701 52.1519 344.682 52.3492 344.638 52.6069C344.593 52.8678 344.453 53.0211 344.212 53.0635H344.149C344.126 53.0635 344.052 53.0537 343.931 53.0292C343.813 53.0097 343.743 52.9966 343.72 52.9966C343.656 52.9966 343.526 53.0031 343.331 53.0129C343.133 53.026 342.932 53.0292 342.724 53.0292C342.52 53.0292 342.322 53.0358 342.137 53.0488C341.946 53.0602 341.822 53.0651 341.758 53.0651ZM336.399 41.3334C336.419 41.5927 336.571 41.7786 336.855 41.8862C337.137 41.9938 337.465 42.0639 337.836 42.0998C338.204 42.1308 338.577 42.1406 338.948 42.1308C339.32 42.121 339.599 42.1047 339.799 42.0819C339.84 42.0819 339.93 42.0786 340.06 42.0656C340.188 42.0542 340.278 42.0493 340.319 42.0493C340.363 41.984 340.396 41.9253 340.419 41.8715C340.441 41.8177 340.463 41.7574 340.486 41.6921C340.486 41.5617 340.473 41.3497 340.451 41.0561C340.428 40.7626 340.414 40.443 340.404 40.094C340.391 39.7466 340.381 39.427 340.371 39.1318C340.358 38.8399 340.355 38.6279 340.355 38.4975C340.374 38.4534 340.387 38.3572 340.387 38.2039V37.8794L340.062 34.7173C340.039 34.5657 339.985 34.3912 339.895 34.1955C339.809 33.9998 339.701 33.822 339.57 33.6573C339.439 33.4943 339.282 33.3638 339.094 33.2676C338.912 33.1697 338.72 33.1322 338.525 33.1518C338.35 33.1746 338.186 33.2284 338.033 33.3165C337.315 34.0552 336.867 34.8266 336.695 35.6306C336.52 36.4329 336.42 37.3135 336.401 38.2691C336.401 38.791 336.388 39.3014 336.366 39.8021C336.342 40.3011 336.355 40.8115 336.399 41.3334Z" fill="white"/>
<path d="M346.854 48.0784C347.004 47.6674 347.282 47.4 347.687 47.2793C348.09 47.1619 348.569 47.1293 349.125 47.1831C349.681 47.2353 350.301 47.3396 350.987 47.4913C351.674 47.643 352.386 47.7848 353.128 47.9153C353.435 47.8941 353.704 47.8158 353.929 47.6854C354.16 47.5565 354.371 47.3886 354.569 47.1815C354.763 46.9744 354.948 46.7412 355.121 46.4802C355.296 46.2177 355.483 45.9584 355.681 45.6975C355.7 45.6763 355.722 45.6273 355.744 45.5507C355.767 45.474 355.777 45.4268 355.777 45.4039L355.646 43.4812C355.602 43.46 355.468 43.3524 355.238 43.1551C355.01 42.9594 354.829 42.8094 354.698 42.7001C354.657 42.6561 354.574 42.5974 354.456 42.5224C354.335 42.4457 354.255 42.4066 354.211 42.4066C353.447 42.0804 352.736 41.8228 352.07 41.6254C351.406 41.4297 350.783 41.1965 350.207 40.9242C349.629 40.6535 349.105 40.2849 348.636 39.8169C348.17 39.3489 347.761 38.6803 347.413 37.8127C347.413 37.7475 347.406 37.648 347.396 37.5175C347.383 37.3887 347.367 37.2533 347.346 37.1115C347.324 36.9696 347.308 36.8391 347.298 36.7201C347.285 36.601 347.282 36.5195 347.282 36.4771C347.259 36.1721 347.231 35.846 347.199 35.4986C347.166 35.1513 347.205 34.8251 347.313 34.5218C347.336 34.4337 347.377 34.2756 347.444 34.0472C347.508 33.8206 347.584 33.5857 347.674 33.3476C347.761 33.1079 347.844 32.8812 347.916 32.6627C347.993 32.4458 348.041 32.2942 348.064 32.2077V32.0447C348.194 31.849 348.315 31.6957 348.425 31.588C348.533 31.4788 348.636 31.3646 348.734 31.2456C348.834 31.1249 348.912 31.0336 348.979 30.9684C349.697 30.166 350.41 29.5577 351.12 29.1435C351.83 28.7309 352.695 28.4716 353.717 28.3608C354.001 28.3396 354.417 28.3722 354.96 28.4586C355.506 28.545 356.049 28.6771 356.595 28.85C357.138 29.0228 357.617 29.2463 358.032 29.5186C358.448 29.7893 358.665 30.0894 358.686 30.4139C358.706 30.6096 358.696 30.8705 358.654 31.195C358.609 31.5228 358.539 31.849 358.439 32.1735C358.34 32.4996 358.209 32.7883 358.047 33.0378C357.883 33.2889 357.692 33.4243 357.475 33.4439C356.909 33.4895 356.341 33.483 355.776 33.4292C355.21 33.3737 354.642 33.3688 354.076 33.4129C353.969 33.4129 353.745 33.4357 353.406 33.4781C353.068 33.5205 352.847 33.5433 352.739 33.5433C352.672 33.5857 352.569 33.6363 352.427 33.6901C352.286 33.7439 352.145 33.8157 352.001 33.9021C351.861 33.9885 351.74 34.075 351.643 34.163C351.543 34.2495 351.496 34.3359 351.496 34.4223L351.66 36.3776C351.66 36.4885 351.73 36.5896 351.871 36.6891C352.014 36.7853 352.165 36.8832 352.33 36.981C352.494 37.0788 352.662 37.1669 352.835 37.2419C353.01 37.3169 353.13 37.3675 353.197 37.3887C354.068 37.8013 354.865 38.1927 355.583 38.5612C356.3 38.9314 356.92 39.3652 357.445 39.8658C357.968 40.3665 358.387 40.9568 358.704 41.6417C359.02 42.3267 359.221 43.1796 359.308 44.202C359.394 45.0908 359.337 45.9731 359.13 46.839C358.922 47.7082 358.583 48.4861 358.117 49.171C357.648 49.8559 357.054 50.4251 356.335 50.8817C355.617 51.3367 354.799 51.6106 353.885 51.6971C353.122 51.7835 352.337 51.7949 351.532 51.7297C350.724 51.6661 349.99 51.503 349.324 51.2404C348.664 50.9795 348.101 50.5947 347.642 50.0842C347.181 49.5722 346.917 48.9036 346.854 48.0784Z" fill="white"/>
<path d="M362.408 51.3368C362.408 51.0563 362.459 50.7611 362.555 50.4578C362.655 50.1528 362.801 49.8772 362.997 49.6261C363.195 49.3782 363.443 49.1711 363.751 49.0064C364.055 48.845 364.415 48.7634 364.83 48.7634C365.025 48.7634 365.219 48.7765 365.417 48.796C365.612 48.8189 365.796 48.8727 365.97 48.9591C366.408 49.3733 366.825 49.799 367.229 50.2295C367.635 50.6665 367.836 51.1541 367.836 51.6972C367.836 51.9353 367.762 52.1913 367.625 52.462C367.481 52.7344 367.289 52.9839 367.049 53.2122C366.809 53.4405 366.537 53.6248 366.231 53.7683C365.927 53.9085 365.612 53.9786 365.286 53.9786C364.848 53.9786 364.452 53.902 364.093 53.7503C363.734 53.5987 363.429 53.3981 363.178 53.1469C362.927 52.8991 362.735 52.6153 362.606 52.2989C362.475 51.9842 362.408 51.6662 362.408 51.3368Z" fill="white"/>
</svg>
