<svg width="635" height="68" viewBox="0 0 635 68" fill="none" xmlns="http://www.w3.org/2000/svg">
<path d="M152.531 60.9546L165.758 53.89C136.551 34.7562 107.898 33.2218 1 33.2218V1.00049C152.531 1.00049 142.305 13.8996 179.531 42.8171L190 36.2674V67.0005L152.531 60.9546Z" fill="#1FA5A5" stroke="#1FA5A5"/>
<path d="M21.293 8.86719V19.9531C21.293 21.9062 20.7031 23.4414 19.5234 24.5586C18.3438 25.6758 16.7227 26.2344 14.6602 26.2344C12.5977 26.2344 11 25.6719 9.86719 24.5469C8.74219 23.4219 8.17969 21.875 8.17969 19.9062V8.86719H10.1719V20.0469C10.1719 21.4766 10.5625 22.5742 11.3438 23.3398C12.125 24.1055 13.2734 24.4883 14.7891 24.4883C16.2344 24.4883 17.3477 24.1055 18.1289 23.3398C18.9102 22.5664 19.3008 21.4609 19.3008 20.0234V8.86719H21.293ZM34.3359 26V17.6914C34.3359 16.6445 34.0977 15.8633 33.6211 15.3477C33.1445 14.832 32.3984 14.5742 31.3828 14.5742C30.0391 14.5742 29.0547 14.9375 28.4297 15.6641C27.8047 16.3906 27.4922 17.5898 27.4922 19.2617V26H25.5469V13.1562H27.1289L27.4453 14.9141H27.5391C27.9375 14.2812 28.4961 13.793 29.2148 13.4492C29.9336 13.0977 30.7344 12.9219 31.6172 12.9219C33.1641 12.9219 34.3281 13.2969 35.1094 14.0469C35.8906 14.7891 36.2812 15.9805 36.2812 17.6211V26H34.3359ZM48.1875 26L47.8008 24.1719H47.707C47.0664 24.9766 46.4258 25.5234 45.7852 25.8125C45.1523 26.0938 44.3594 26.2344 43.4062 26.2344C42.1328 26.2344 41.1328 25.9062 40.4062 25.25C39.6875 24.5938 39.3281 23.6602 39.3281 22.4492C39.3281 19.8555 41.4023 18.4961 45.5508 18.3711L47.7305 18.3008V17.5039C47.7305 16.4961 47.5117 15.7539 47.0742 15.2773C46.6445 14.793 45.9531 14.5508 45 14.5508C43.9297 14.5508 42.7188 14.8789 41.3672 15.5352L40.7695 14.0469C41.4023 13.7031 42.0938 13.4336 42.8438 13.2383C43.6016 13.043 44.3594 12.9453 45.1172 12.9453C46.6484 12.9453 47.7812 13.2852 48.5156 13.9648C49.2578 14.6445 49.6289 15.7344 49.6289 17.2344V26H48.1875ZM43.793 24.6289C45.0039 24.6289 45.9531 24.2969 46.6406 23.6328C47.3359 22.9688 47.6836 22.0391 47.6836 20.8438V19.6836L45.7383 19.7656C44.1914 19.8203 43.0742 20.0625 42.3867 20.4922C41.707 20.9141 41.3672 21.5742 41.3672 22.4727C41.3672 23.1758 41.5781 23.7109 42 24.0781C42.4297 24.4453 43.0273 24.6289 43.793 24.6289ZM65.0156 26.2344C63.1562 26.2344 61.7148 25.6641 60.6914 24.5234C59.6758 23.375 59.168 21.7539 59.168 19.6602C59.168 17.5117 59.6836 15.8516 60.7148 14.6797C61.7539 13.5078 63.2305 12.9219 65.1445 12.9219C65.7617 12.9219 66.3789 12.9883 66.9961 13.1211C67.6133 13.2539 68.0977 13.4102 68.4492 13.5898L67.8516 15.2422C67.4219 15.0703 66.9531 14.9297 66.4453 14.8203C65.9375 14.7031 65.4883 14.6445 65.0977 14.6445C62.4883 14.6445 61.1836 16.3086 61.1836 19.6367C61.1836 21.2148 61.5 22.4258 62.1328 23.2695C62.7734 24.1133 63.7188 24.5352 64.9688 24.5352C66.0391 24.5352 67.1367 24.3047 68.2617 23.8438V25.5664C67.4023 26.0117 66.3203 26.2344 65.0156 26.2344ZM79.2188 26L78.832 24.1719H78.7383C78.0977 24.9766 77.457 25.5234 76.8164 25.8125C76.1836 26.0938 75.3906 26.2344 74.4375 26.2344C73.1641 26.2344 72.1641 25.9062 71.4375 25.25C70.7188 24.5938 70.3594 23.6602 70.3594 22.4492C70.3594 19.8555 72.4336 18.4961 76.582 18.3711L78.7617 18.3008V17.5039C78.7617 16.4961 78.543 15.7539 78.1055 15.2773C77.6758 14.793 76.9844 14.5508 76.0312 14.5508C74.9609 14.5508 73.75 14.8789 72.3984 15.5352L71.8008 14.0469C72.4336 13.7031 73.125 13.4336 73.875 13.2383C74.6328 13.043 75.3906 12.9453 76.1484 12.9453C77.6797 12.9453 78.8125 13.2852 79.5469 13.9648C80.2891 14.6445 80.6602 15.7344 80.6602 17.2344V26H79.2188ZM74.8242 24.6289C76.0352 24.6289 76.9844 24.2969 77.6719 23.6328C78.3672 22.9688 78.7148 22.0391 78.7148 20.8438V19.6836L76.7695 19.7656C75.2227 19.8203 74.1055 20.0625 73.418 20.4922C72.7383 20.9141 72.3984 21.5742 72.3984 22.4727C72.3984 23.1758 72.6094 23.7109 73.0312 24.0781C73.4609 24.4453 74.0586 24.6289 74.8242 24.6289ZM92.9648 22.4961C92.9648 23.6914 92.5195 24.6133 91.6289 25.2617C90.7383 25.9102 89.4883 26.2344 87.8789 26.2344C86.1758 26.2344 84.8477 25.9648 83.8945 25.4258V23.6211C84.5117 23.9336 85.1719 24.1797 85.875 24.3594C86.5859 24.5391 87.2695 24.6289 87.9258 24.6289C88.9414 24.6289 89.7227 24.4688 90.2695 24.1484C90.8164 23.8203 91.0898 23.3242 91.0898 22.6602C91.0898 22.1602 90.8711 21.7344 90.4336 21.3828C90.0039 21.0234 89.1602 20.6016 87.9023 20.1172C86.707 19.6719 85.8555 19.2852 85.3477 18.957C84.8477 18.6211 84.4727 18.2422 84.2227 17.8203C83.9805 17.3984 83.8594 16.8945 83.8594 16.3086C83.8594 15.2617 84.2852 14.4375 85.1367 13.8359C85.9883 13.2266 87.1562 12.9219 88.6406 12.9219C90.0234 12.9219 91.375 13.2031 92.6953 13.7656L92.0039 15.3477C90.7148 14.8164 89.5469 14.5508 88.5 14.5508C87.5781 14.5508 86.8828 14.6953 86.4141 14.9844C85.9453 15.2734 85.7109 15.6719 85.7109 16.1797C85.7109 16.5234 85.7969 16.8164 85.9688 17.0586C86.1484 17.3008 86.4336 17.5312 86.8242 17.75C87.2148 17.9688 87.9648 18.2852 89.0742 18.6992C90.5977 19.2539 91.625 19.8125 92.1562 20.375C92.6953 20.9375 92.9648 21.6445 92.9648 22.4961ZM104.039 26L103.652 24.1719H103.559C102.918 24.9766 102.277 25.5234 101.637 25.8125C101.004 26.0938 100.211 26.2344 99.2578 26.2344C97.9844 26.2344 96.9844 25.9062 96.2578 25.25C95.5391 24.5938 95.1797 23.6602 95.1797 22.4492C95.1797 19.8555 97.2539 18.4961 101.402 18.3711L103.582 18.3008V17.5039C103.582 16.4961 103.363 15.7539 102.926 15.2773C102.496 14.793 101.805 14.5508 100.852 14.5508C99.7812 14.5508 98.5703 14.8789 97.2188 15.5352L96.6211 14.0469C97.2539 13.7031 97.9453 13.4336 98.6953 13.2383C99.4531 13.043 100.211 12.9453 100.969 12.9453C102.5 12.9453 103.633 13.2852 104.367 13.9648C105.109 14.6445 105.48 15.7344 105.48 17.2344V26H104.039ZM99.6445 24.6289C100.855 24.6289 101.805 24.2969 102.492 23.6328C103.188 22.9688 103.535 22.0391 103.535 20.8438V19.6836L101.59 19.7656C100.043 19.8203 98.9258 20.0625 98.2383 20.4922C97.5586 20.9141 97.2188 21.5742 97.2188 22.4727C97.2188 23.1758 97.4297 23.7109 97.8516 24.0781C98.2812 24.4453 98.8789 24.6289 99.6445 24.6289Z" fill="white"/>
<path d="M596.531 60.9546L609.758 53.89C580.551 34.7562 551.898 33.2218 445 33.2218V1.00049C596.531 1.00049 586.305 13.8996 623.531 42.8171L634 36.2674V67.0005L596.531 60.9546Z" fill="#1FA5A5" stroke="#1FA5A5"/>
<path d="M465.293 8.86719V19.9531C465.293 21.9062 464.703 23.4414 463.523 24.5586C462.344 25.6758 460.723 26.2344 458.66 26.2344C456.598 26.2344 455 25.6719 453.867 24.5469C452.742 23.4219 452.18 21.875 452.18 19.9062V8.86719H454.172V20.0469C454.172 21.4766 454.562 22.5742 455.344 23.3398C456.125 24.1055 457.273 24.4883 458.789 24.4883C460.234 24.4883 461.348 24.1055 462.129 23.3398C462.91 22.5664 463.301 21.4609 463.301 20.0234V8.86719H465.293ZM478.336 26V17.6914C478.336 16.6445 478.098 15.8633 477.621 15.3477C477.145 14.832 476.398 14.5742 475.383 14.5742C474.039 14.5742 473.055 14.9375 472.43 15.6641C471.805 16.3906 471.492 17.5898 471.492 19.2617V26H469.547V13.1562H471.129L471.445 14.9141H471.539C471.938 14.2812 472.496 13.793 473.215 13.4492C473.934 13.0977 474.734 12.9219 475.617 12.9219C477.164 12.9219 478.328 13.2969 479.109 14.0469C479.891 14.7891 480.281 15.9805 480.281 17.6211V26H478.336ZM492.188 26L491.801 24.1719H491.707C491.066 24.9766 490.426 25.5234 489.785 25.8125C489.152 26.0938 488.359 26.2344 487.406 26.2344C486.133 26.2344 485.133 25.9062 484.406 25.25C483.688 24.5938 483.328 23.6602 483.328 22.4492C483.328 19.8555 485.402 18.4961 489.551 18.3711L491.73 18.3008V17.5039C491.73 16.4961 491.512 15.7539 491.074 15.2773C490.645 14.793 489.953 14.5508 489 14.5508C487.93 14.5508 486.719 14.8789 485.367 15.5352L484.77 14.0469C485.402 13.7031 486.094 13.4336 486.844 13.2383C487.602 13.043 488.359 12.9453 489.117 12.9453C490.648 12.9453 491.781 13.2852 492.516 13.9648C493.258 14.6445 493.629 15.7344 493.629 17.2344V26H492.188ZM487.793 24.6289C489.004 24.6289 489.953 24.2969 490.641 23.6328C491.336 22.9688 491.684 22.0391 491.684 20.8438V19.6836L489.738 19.7656C488.191 19.8203 487.074 20.0625 486.387 20.4922C485.707 20.9141 485.367 21.5742 485.367 22.4727C485.367 23.1758 485.578 23.7109 486 24.0781C486.43 24.4453 487.027 24.6289 487.793 24.6289ZM509.016 26.2344C507.156 26.2344 505.715 25.6641 504.691 24.5234C503.676 23.375 503.168 21.7539 503.168 19.6602C503.168 17.5117 503.684 15.8516 504.715 14.6797C505.754 13.5078 507.23 12.9219 509.145 12.9219C509.762 12.9219 510.379 12.9883 510.996 13.1211C511.613 13.2539 512.098 13.4102 512.449 13.5898L511.852 15.2422C511.422 15.0703 510.953 14.9297 510.445 14.8203C509.938 14.7031 509.488 14.6445 509.098 14.6445C506.488 14.6445 505.184 16.3086 505.184 19.6367C505.184 21.2148 505.5 22.4258 506.133 23.2695C506.773 24.1133 507.719 24.5352 508.969 24.5352C510.039 24.5352 511.137 24.3047 512.262 23.8438V25.5664C511.402 26.0117 510.32 26.2344 509.016 26.2344ZM523.219 26L522.832 24.1719H522.738C522.098 24.9766 521.457 25.5234 520.816 25.8125C520.184 26.0938 519.391 26.2344 518.438 26.2344C517.164 26.2344 516.164 25.9062 515.438 25.25C514.719 24.5938 514.359 23.6602 514.359 22.4492C514.359 19.8555 516.434 18.4961 520.582 18.3711L522.762 18.3008V17.5039C522.762 16.4961 522.543 15.7539 522.105 15.2773C521.676 14.793 520.984 14.5508 520.031 14.5508C518.961 14.5508 517.75 14.8789 516.398 15.5352L515.801 14.0469C516.434 13.7031 517.125 13.4336 517.875 13.2383C518.633 13.043 519.391 12.9453 520.148 12.9453C521.68 12.9453 522.812 13.2852 523.547 13.9648C524.289 14.6445 524.66 15.7344 524.66 17.2344V26H523.219ZM518.824 24.6289C520.035 24.6289 520.984 24.2969 521.672 23.6328C522.367 22.9688 522.715 22.0391 522.715 20.8438V19.6836L520.77 19.7656C519.223 19.8203 518.105 20.0625 517.418 20.4922C516.738 20.9141 516.398 21.5742 516.398 22.4727C516.398 23.1758 516.609 23.7109 517.031 24.0781C517.461 24.4453 518.059 24.6289 518.824 24.6289ZM536.965 22.4961C536.965 23.6914 536.52 24.6133 535.629 25.2617C534.738 25.9102 533.488 26.2344 531.879 26.2344C530.176 26.2344 528.848 25.9648 527.895 25.4258V23.6211C528.512 23.9336 529.172 24.1797 529.875 24.3594C530.586 24.5391 531.27 24.6289 531.926 24.6289C532.941 24.6289 533.723 24.4688 534.27 24.1484C534.816 23.8203 535.09 23.3242 535.09 22.6602C535.09 22.1602 534.871 21.7344 534.434 21.3828C534.004 21.0234 533.16 20.6016 531.902 20.1172C530.707 19.6719 529.855 19.2852 529.348 18.957C528.848 18.6211 528.473 18.2422 528.223 17.8203C527.98 17.3984 527.859 16.8945 527.859 16.3086C527.859 15.2617 528.285 14.4375 529.137 13.8359C529.988 13.2266 531.156 12.9219 532.641 12.9219C534.023 12.9219 535.375 13.2031 536.695 13.7656L536.004 15.3477C534.715 14.8164 533.547 14.5508 532.5 14.5508C531.578 14.5508 530.883 14.6953 530.414 14.9844C529.945 15.2734 529.711 15.6719 529.711 16.1797C529.711 16.5234 529.797 16.8164 529.969 17.0586C530.148 17.3008 530.434 17.5312 530.824 17.75C531.215 17.9688 531.965 18.2852 533.074 18.6992C534.598 19.2539 535.625 19.8125 536.156 20.375C536.695 20.9375 536.965 21.6445 536.965 22.4961ZM542.086 26H540.141V13.1562H542.086V26ZM539.977 9.67578C539.977 9.23047 540.086 8.90625 540.305 8.70312C540.523 8.49219 540.797 8.38672 541.125 8.38672C541.438 8.38672 541.707 8.49219 541.934 8.70312C542.16 8.91406 542.273 9.23828 542.273 9.67578C542.273 10.1133 542.16 10.4414 541.934 10.6602C541.707 10.8711 541.438 10.9766 541.125 10.9766C540.797 10.9766 540.523 10.8711 540.305 10.6602C540.086 10.4414 539.977 10.1133 539.977 9.67578ZM550.359 24.6289C550.703 24.6289 551.035 24.6055 551.355 24.5586C551.676 24.5039 551.93 24.4492 552.117 24.3945V25.8828C551.906 25.9844 551.594 26.0664 551.18 26.1289C550.773 26.1992 550.406 26.2344 550.078 26.2344C547.594 26.2344 546.352 24.9258 546.352 22.3086V14.668H544.512V13.7305L546.352 12.9219L547.172 10.1797H548.297V13.1562H552.023V14.668H548.297V22.2266C548.297 23 548.48 23.5938 548.848 24.0078C549.215 24.4219 549.719 24.6289 550.359 24.6289ZM562.594 26L562.207 24.1719H562.113C561.473 24.9766 560.832 25.5234 560.191 25.8125C559.559 26.0938 558.766 26.2344 557.812 26.2344C556.539 26.2344 555.539 25.9062 554.812 25.25C554.094 24.5938 553.734 23.6602 553.734 22.4492C553.734 19.8555 555.809 18.4961 559.957 18.3711L562.137 18.3008V17.5039C562.137 16.4961 561.918 15.7539 561.48 15.2773C561.051 14.793 560.359 14.5508 559.406 14.5508C558.336 14.5508 557.125 14.8789 555.773 15.5352L555.176 14.0469C555.809 13.7031 556.5 13.4336 557.25 13.2383C558.008 13.043 558.766 12.9453 559.523 12.9453C561.055 12.9453 562.188 13.2852 562.922 13.9648C563.664 14.6445 564.035 15.7344 564.035 17.2344V26H562.594ZM558.199 24.6289C559.41 24.6289 560.359 24.2969 561.047 23.6328C561.742 22.9688 562.09 22.0391 562.09 20.8438V19.6836L560.145 19.7656C558.598 19.8203 557.48 20.0625 556.793 20.4922C556.113 20.9141 555.773 21.5742 555.773 22.4727C555.773 23.1758 555.984 23.7109 556.406 24.0781C556.836 24.4453 557.434 24.6289 558.199 24.6289Z" fill="white"/>
</svg>
