<?xml version="1.0" encoding="UTF-8" standalone="no"?>
<!-- Generator: Adobe Illustrator 15.1.0, SVG Export Plug-In . SVG Version: 6.00 Build 0)  -->

<svg
   version="1.1"
   id="Capa_1"
   x="0px"
   y="0px"
   width="250"
   height="150"
   viewBox="0 0 250 150"
   enable-background="new 0 0 163 123"
   xml:space="preserve"
   sodipodi:docname="svgGlo11Toad.svg"
   inkscape:version="1.2.1 (9c6d41e410, 2022-07-14)"
   xmlns:inkscape="http://www.inkscape.org/namespaces/inkscape"
   xmlns:sodipodi="http://sodipodi.sourceforge.net/DTD/sodipodi-0.dtd"
   xmlns="http://www.w3.org/2000/svg"
   xmlns:svg="http://www.w3.org/2000/svg"><defs
   id="defs1309" /><sodipodi:namedview
   id="namedview1307"
   pagecolor="#ffffff"
   bordercolor="#000000"
   borderopacity="0.25"
   inkscape:showpageshadow="2"
   inkscape:pageopacity="0.0"
   inkscape:pagecheckerboard="0"
   inkscape:deskcolor="#d1d1d1"
   showgrid="false"
   inkscape:zoom="8.3495935"
   inkscape:cx="81.441091"
   inkscape:cy="61.559883"
   inkscape:window-width="3840"
   inkscape:window-height="2066"
   inkscape:window-x="-11"
   inkscape:window-y="-11"
   inkscape:window-maximized="1"
   inkscape:current-layer="Capa_1" />
<g
   id="g1304"
   transform="translate(42.756573,12.33593)">
	<path
   fill="#869a2a"
   d="m 117.477,19.68 c -0.076,5.781 -4.666,10.412 -10.229,10.342 -5.573,-0.071 -10.039,-4.822 -9.964,-10.604 0.075,-5.788 4.657,-10.413 10.228,-10.344 5.568,0.074 10.038,4.813 9.965,10.606 z"
   id="path1212" />
	<path
   fill="#869a2a"
   d="m 86.387,22.894 c 0.615,6.548 -4.8,10.726 -10.526,10.653 -5.739,-0.075 -9.862,-4.494 -10.26,-10.919 -0.362,-5.94 4.816,-10.178 10.529,-10.644 6.099,-0.491 9.675,4.987 10.257,10.91 z"
   id="path1214" />
	<path
   fill="#869a2a"
   d="m 99.348,72.669 c 0,0 7.743,15.101 11.748,18.063 3.248,2.398 4.684,1.191 4.684,1.191 0,0 9.486,-3.061 8.103,-0.932 -1.383,2.141 -7.633,3.363 -7.633,3.363 0,0 11.194,0.682 9.663,2.055 -1.528,1.362 -10.842,1.395 -10.842,1.395 0,0 11.785,3.331 9.012,3.926 -3.867,0.834 -13.818,-0.855 -15.193,-3.102 -1.385,-2.244 -13.404,-14.59 -16.379,-18.106 -2.951,-3.516 6.837,-7.853 6.837,-7.853 z"
   id="path1216" />
	<path
   fill="#ffffff"
   d="m 115.402,19.657 c -0.057,4.594 -3.707,8.275 -8.129,8.217 -4.432,-0.057 -7.982,-3.831 -7.923,-8.421 0.06,-4.605 3.706,-8.281 8.136,-8.226 4.418,0.056 7.978,3.825 7.916,8.43 z"
   id="path1218" />
	<path
   fill="#869a2a"
   d="m 82.338,18.247 c 20.385,-2.713 60.191,6.932 56.573,25.591 -2.978,15.326 -20.704,18.019 -20.704,18.019 0,0 -3.187,17.482 -25.697,18.664 C 79.975,98.157 59.263,109.044 39.49,107.615 19.824,106.188 9.575,86.43 23.192,62.379 c 12.954,-22.848 34.97,-27.48 34.97,-27.48 0,0 5.615,-14.179 24.176,-16.652 z"
   id="path1220" />
	<path
   fill="#6a2403"
   d="m 77.915,63.008 c 2.375,1.684 1.084,4.365 -1.357,2.754 -2.47,-1.633 -1.07,-4.476 1.357,-2.754 z"
   id="path1222" />
	<path
   fill="#6a2403"
   d="m 71.625,66.928 c 2.471,1.576 1.301,4.408 -1.246,2.907 -2.519,-1.491 -1.254,-4.483 1.246,-2.907 z"
   id="path1224" />
	<path
   fill="#6a2403"
   d="m 65.051,60.137 c 2.435,1.608 1.072,4.576 -1.419,3.049 -2.529,-1.552 -1.055,-4.676 1.419,-3.049 z"
   id="path1226" />
	<path
   fill="#6a2403"
   d="m 72.861,49.893 c -2.324,-1.828 -0.508,-4.724 1.737,-2.815 2.249,1.893 0.573,4.619 -1.737,2.815 z"
   id="path1228" />
	<path
   fill="#6a2403"
   d="m 52.22,56.849 c -2.531,-1.538 -0.939,-4.945 1.567,-3.318 2.425,1.586 0.925,4.833 -1.567,3.318 z"
   id="path1230" />
	<path
   fill="#6a2403"
   d="m 34.444,57.884 0.071,-0.546 c 0.959,-2.412 5.25,-0.906 4.334,1.434 -0.393,1.024 -1.47,1.28 -2.445,1.115 0.229,1.426 -0.926,2.836 -2.72,1.947 -2.376,-1.188 -1.429,-4.451 0.76,-3.95 z"
   id="path1232" />
	<path
   fill="#6a2403"
   d="m 52.438,46.606 c -2.429,-1.652 -0.569,-5.067 1.807,-3.321 2.363,1.735 0.622,4.988 -1.807,3.321 z"
   id="path1234" />
	<path
   fill="#6a2403"
   d="m 35.303,74.82 c -1.361,-0.568 -1.801,-1.826 -1.472,-2.758 -0.052,-0.25 -0.042,-0.521 0.044,-0.82 0.735,-2.402 5.124,-1.216 4.431,1.104 l -0.39,0.678 c 0.144,1.265 -0.85,2.53 -2.613,1.796 z"
   id="path1236" />
	<path
   fill="#6a2403"
   d="m 58.274,35.189 c 2.718,-0.019 3.87,4.077 1.259,4.146 -2.665,0.116 -4.012,-4.068 -1.259,-4.146 z"
   id="path1238" />
	<path
   fill="#6a2403"
   d="m 76.648,60.069 c 2.744,-0.288 4.098,3.937 1.357,4.22 -2.754,0.338 -4.144,-3.874 -1.357,-4.22 z"
   id="path1240" />
	<path
   fill="#6a2403"
   d="m 64.301,48.462 c -2.773,0.487 -4.267,-3.809 -1.388,-4.273 2.843,-0.409 4.123,3.832 1.388,4.273 z"
   id="path1242" />
	<path
   fill="#6a2403"
   d="m 47.354,44.401 c -2.669,0.418 -4.375,-3.646 -1.607,-4.043 2.689,-0.351 4.299,3.692 1.607,4.043 z"
   id="path1244" />
	<path
   fill="#6a2403"
   d="m 68.042,55.355 c -2.547,0.149 -4.336,-3.652 -1.756,-3.813 2.517,-0.118 4.285,3.716 1.756,3.813 z"
   id="path1246" />
	<path
   fill="#6a2403"
   d="m 43.922,60.74 c -2.604,0.613 -4.684,-3.185 -2.047,-3.805 2.595,-0.578 4.657,3.248 2.047,3.805 z"
   id="path1248" />
	<path
   fill="#6a2403"
   d="m 52.246,47.319 c 2.642,-0.296 4.345,3.606 1.771,3.933 -2.622,0.358 -4.431,-3.57 -1.771,-3.933 z"
   id="path1250" />
	<path
   fill="#6a2403"
   d="m 46.111,53.653 c -2.715,0.572 -4.485,-3.508 -1.696,-4.068 2.717,-0.508 4.418,3.559 1.696,4.068 z"
   id="path1252" />
	<path
   fill="#6a2403"
   d="m 66.506,46.873 c -2.576,0.103 -4.172,-3.858 -1.541,-3.957 2.597,-0.027 4.083,3.879 1.541,3.957 z"
   id="path1254" />
	<path
   fill="#6a2403"
   d="m 58.742,64.585 v 0.231 l -0.003,0.012 -0.049,0.542 c -0.14,0.374 -0.422,0.589 -0.737,0.741 0.677,1.441 -0.497,2.996 -2.465,1.973 -1.625,-0.854 -1.747,-2.433 -0.972,-3.174 -0.164,-0.34 -0.237,-0.707 -0.089,-1.112 l 0.06,-0.093 c -0.262,-0.76 -0.038,-1.52 1.021,-1.702 1.771,-0.314 3.307,1.423 3.234,2.582 z"
   id="path1256" />
	<path
   fill="#6a2403"
   d="m 75.007,38.686 c 2.546,0.241 3.683,4.32 1.137,4.05 -2.587,-0.192 -3.755,-4.233 -1.137,-4.05 z"
   id="path1258" />
	<path
   fill="#6a2403"
   d="m 28.965,63.378 c -2.611,0.898 -4.871,-2.967 -2.152,-3.838 2.651,-0.818 4.794,3.019 2.152,3.838 z"
   id="path1260" />
	<path
   fill="#6a2403"
   d="m 71.23,60.99 c 2.473,-0.117 4.429,3.532 1.962,3.649 -2.486,0.152 -4.465,-3.481 -1.962,-3.649 z"
   id="path1262" />
	<path
   fill="#6a2403"
   d="m 44.661,69.914 c -0.38,-1.374 0.753,-2.818 2.593,-1.865 2.08,1.07 1.721,3.382 0.158,3.631 0.284,0.763 0.156,1.544 -0.906,1.832 -2.505,0.715 -4.929,-2.846 -2.356,-3.559 z"
   id="path1264" />
	<path
   fill="#6a2403"
   d="m 31.966,52.667 c 0.957,-2.619 5.3,-1.266 4.374,1.285 -0.909,2.512 -5.324,1.331 -4.374,-1.285 z"
   id="path1266" />
	<path
   fill="#6a2403"
   d="m 24.484,67.303 c -0.711,2.639 -5.226,1.84 -4.469,-0.914 0.764,-2.757 5.235,-1.743 4.469,0.914 z"
   id="path1268" />
	<path
   fill="#6a2403"
   d="m 32.211,79.956 c -0.613,2.735 -5.175,2.222 -4.532,-0.632 0.655,-2.853 5.158,-2.136 4.532,0.632 z"
   id="path1270" />
	<path
   fill="#6a2403"
   d="m 29.234,73.543 c -0.635,2.462 -5.147,1.645 -4.461,-0.928 0.679,-2.562 5.113,-1.568 4.461,0.928 z"
   id="path1272" />
	<path
   fill="#6a2403"
   d="m 47.543,63.893 c -0.83,2.166 -5.133,0.82 -4.311,-1.473 0.874,-2.268 5.148,-0.734 4.311,1.473 z"
   id="path1274" />
	<path
   fill="#6a2403"
   d="m 26.495,81.843 c -0.515,2.496 -5.069,1.957 -4.511,-0.646 0.555,-2.617 5.049,-1.877 4.511,0.646 z"
   id="path1276" />
	<path
   fill="#6a2403"
   d="m 24.06,94.189 c -0.721,3.117 -5.32,2.814 -4.585,-0.445 0.782,-3.232 5.342,-2.693 4.585,0.445 z"
   id="path1278" />
	<path
   fill="#6a2403"
   d="m 22.1,75.084 c -0.349,2.811 -4.929,2.725 -4.556,-0.234 0.391,-2.961 5.015,-2.563 4.556,0.234 z"
   id="path1280" />
	<path
   fill="#6a2403"
   d="m 25.818,84.186 c -0.291,3.07 -4.851,3.322 -4.587,0.057 0.371,-3.193 4.98,-3.107 4.587,-0.057 z"
   id="path1282" />
	<path
   fill="#6a2403"
   d="m 37.827,46.711 c 1.141,-2.507 5.373,-0.829 4.263,1.625 -1.079,2.418 -5.387,0.897 -4.263,-1.625 z"
   id="path1284" />
	<path
   fill="#ffffff"
   d="m 84.019,22.863 c 0.484,5.06 -3.699,8.279 -8.129,8.224 -4.425,-0.055 -7.609,-3.466 -7.921,-8.427 -0.285,-4.594 3.71,-7.872 8.135,-8.228 4.716,-0.383 7.467,3.854 7.915,8.431 z"
   id="path1286" />
	<path
   d="m 79.08,22.812 c 0.093,0.953 -0.701,1.56 -1.548,1.55 -0.835,-0.007 -1.438,-0.65 -1.51,-1.589 -0.038,-0.871 0.713,-1.499 1.554,-1.564 0.9,-0.069 1.424,0.734 1.504,1.603 z"
   id="path1288" />
	<path
   d="m 110.615,16.424 c 0.082,0.849 -0.618,1.392 -1.372,1.382 -0.746,-0.011 -1.282,-0.579 -1.335,-1.417 -0.049,-0.779 0.631,-1.331 1.371,-1.395 0.801,-0.059 1.265,0.649 1.336,1.43 z"
   id="path1290" />
	<path
   fill="none"
   stroke="#000000"
   stroke-width="0.612"
   stroke-linecap="round"
   d="M 118.206,61.855 C 99.377,63.453 92.869,52.239 92.869,52.239"
   id="path1292" />
	<path
   fill="#68701f"
   d="M 101.061,79.291 C 98.631,76.35 86.054,78.539 73.172,85.933 54.962,96.375 27.987,99.06 33.73,104.139 c 5.741,5.064 9.034,4.932 18.536,2.736 9.918,-2.29 19.797,-3.609 34.181,-14.439 8.329,-6.279 10.811,-9.453 14.614,-13.145 z"
   id="path1294" />
	<path
   fill="#9db22d"
   d="m 38.045,78.914 c 5.956,-5.678 26.54,-13.599 33.19,-5.875 6.639,7.731 -8.046,34.047 -8.046,34.047 0,0 28.74,-1.689 27.25,0.346 -1.488,2.039 -14.266,1.676 -14.266,1.676 0,0 15.652,1.822 15.355,3.61 -0.301,1.787 -15.972,-1.014 -15.972,-1.014 0,0 12.703,5.999 11.503,7.45 -1.178,1.451 -12.433,-2.926 -21.322,-5.271 -8.888,-2.354 -14.387,2.114 -14.048,-1.673 0.354,-3.798 7.651,-17.767 7.651,-17.767 0,0 -11.721,17.853 -23.167,13.209 -18.814,-7.632 -3.186,-23.886 1.872,-28.738 z"
   id="path1296" />
	<path
   d="m 129.313,44.234 c -0.015,0.736 -0.621,1.338 -1.371,1.331 -0.754,-0.011 -1.361,-0.63 -1.351,-1.368 0.015,-0.763 0.634,-1.356 1.38,-1.344 0.752,0.012 1.349,0.62 1.342,1.381 z"
   id="path1298" />
	<path
   d="m 134.824,42.348 c -0.008,0.601 -0.497,1.077 -1.094,1.068 -0.592,-0.007 -1.071,-0.497 -1.066,-1.096 0.007,-0.588 0.502,-1.065 1.098,-1.056 0.592,0.01 1.066,0.494 1.062,1.084 z"
   id="path1300" />
	<path
   fill="#869a2a"
   d="m 89.895,72.548 c 0,0 3.504,23.438 6.853,27.132 2.704,3 4.341,2.104 4.341,2.104 0,0 9.915,-1.097 8.13,0.714 -1.782,1.822 -8.155,1.762 -8.155,1.762 0,0 10.845,2.911 9.076,3.948 -1.769,1.033 -10.91,-0.8 -10.91,-0.8 0,0 10.889,5.624 8.049,5.656 -3.937,0.039 -13.357,-3.615 -14.261,-6.084 -0.917,-2.488 -10.896,-24.066 -13.109,-28.113 -2.196,-4.04 9.986,-6.319 9.986,-6.319 z"
   id="path1302" />
</g>
</svg>
