<svg width="955" height="730" viewBox="0 0 955 730" fill="none" xmlns="http://www.w3.org/2000/svg">
<path fill-rule="evenodd" clip-rule="evenodd" d="M783.512 93.2147C783.44 88.1907 781.645 46.5634 750.856 33.501C720.066 20.4386 693.941 51.2285 693.941 51.2285C693.941 51.2285 690.208 -6.25339 652.887 0.561362C615.566 7.37611 616.499 40.0322 616.499 40.0322C616.499 40.0322 604.241 20.2372 583.843 26.9698C561.231 34.4337 565.184 55.278 565.184 55.278C565.184 55.278 552.653 40.0767 534.093 51.2285C515.532 62.381 505.469 82.0178 510.134 103.478C514.799 124.937 533.254 152.928 646.72 142.666C760.186 132.402 784.019 128.67 783.512 93.2147Z" fill="#D4CCB4"/>
<path fill-rule="evenodd" clip-rule="evenodd" d="M887.275 147.779C887.201 142.761 885.346 101.197 853.525 88.1535C821.704 75.1106 794.705 105.855 794.705 105.855C794.705 105.855 790.847 48.4586 752.276 55.2632C713.705 62.0677 714.67 94.675 714.67 94.675C714.67 94.675 702.001 74.9096 680.921 81.6321C657.55 89.0849 661.636 109.898 661.636 109.898C661.636 109.898 648.685 94.72 629.504 105.855C610.321 116.99 599.922 136.598 604.743 158.025C609.564 179.453 628.636 207.404 745.903 197.155C863.169 186.906 887.8 183.18 887.275 147.779Z" fill="#BCB49F"/>
<path fill-rule="evenodd" clip-rule="evenodd" d="M868.755 10.9996C842.889 9.13138 834.872 40.1779 834.872 40.1779C834.872 40.1779 822.796 2.48029 785.421 9.13139C748.046 15.7825 757.341 51.8887 757.341 51.8887C757.341 51.8887 738.377 43.6146 731.306 72.834C724.235 102.055 770.734 118.399 826.292 118.504C881.85 118.609 930.999 119.618 945.82 96.385C960.641 73.1519 955.513 50.5714 938.439 40.1779C916.979 27.1162 895.519 46.7091 895.519 46.7091C895.519 46.7091 890.364 12.56 868.755 10.9996Z" fill="#E7E6D0"/>
<path d="M2.40675 671.649C-10.2664 657.497 36.807 648.324 73.4084 644.496C110.01 640.669 137.225 640.589 245.402 646.01C353.58 651.431 226.325 666.609 281.258 667.737C336.191 668.864 316.073 680.739 279.249 683.975C242.425 687.211 209.471 689.683 149.013 688.442L147.631 688.414C87.4409 687.179 14.9835 685.693 2.40675 671.649Z" fill="#087774"/>
<path d="M33.4931 121.691V114.603L27.4406 118.184C27.0441 118.504 26.5631 118.343 26.3252 117.949L25.128 115.716C24.8927 115.317 24.972 114.841 25.4478 114.603L31.5055 111.259L25.4478 107.752C24.972 107.512 24.8927 107.036 25.128 106.637L26.3252 104.404C26.5631 104.01 27.0441 103.848 27.4406 104.168L33.4931 107.831V100.661C33.4931 100.18 33.8129 99.8679 34.2913 99.8679H36.6806C37.1615 99.8679 37.4762 100.183 37.4762 100.661L37.3943 107.831L43.5313 104.168C43.9278 103.848 44.4062 104.01 44.6441 104.404L45.8387 106.637C46.0792 107.036 45.9999 107.512 45.5189 107.752L39.4689 111.259L45.5189 114.603C45.9999 114.841 46.0792 115.317 45.8387 115.716L44.6441 117.949C44.4062 118.343 43.9278 118.504 43.5313 118.184L37.3943 114.603L37.4762 121.691C37.4762 122.167 37.1615 122.487 36.6806 122.487H34.2913C33.8129 122.487 33.4931 122.167 33.4931 121.691Z" fill="#2BB673"/>
<path d="M68.3555 101.867H73.1953C75.4688 101.867 77.1133 102.207 78.1289 102.887C79.1445 103.566 79.6523 104.641 79.6523 106.109C79.6523 107.125 79.3672 107.965 78.7969 108.629C78.2344 109.285 77.4102 109.711 76.3242 109.906V110.023C78.9258 110.469 80.2266 111.836 80.2266 114.125C80.2266 115.656 79.707 116.852 78.668 117.711C77.6367 118.57 76.1914 119 74.332 119H68.3555V101.867ZM70.3477 109.203H73.6289C75.0352 109.203 76.0469 108.984 76.6641 108.547C77.2812 108.102 77.5898 107.355 77.5898 106.309C77.5898 105.348 77.2461 104.656 76.5586 104.234C75.8711 103.805 74.7773 103.59 73.2773 103.59H70.3477V109.203ZM70.3477 110.891V117.301H73.9219C75.3047 117.301 76.3438 117.035 77.0391 116.504C77.7422 115.965 78.0938 115.125 78.0938 113.984C78.0938 112.922 77.7344 112.141 77.0156 111.641C76.3047 111.141 75.2188 110.891 73.7578 110.891H70.3477ZM85.4531 106.156V114.488C85.4531 115.535 85.6914 116.316 86.168 116.832C86.6445 117.348 87.3906 117.605 88.4062 117.605C89.75 117.605 90.7305 117.238 91.3477 116.504C91.9727 115.77 92.2852 114.57 92.2852 112.906V106.156H94.2305V119H92.625L92.3438 117.277H92.2383C91.8398 117.91 91.2852 118.395 90.5742 118.73C89.8711 119.066 89.0664 119.234 88.1602 119.234C86.5977 119.234 85.4258 118.863 84.6445 118.121C83.8711 117.379 83.4844 116.191 83.4844 114.559V106.156H85.4531ZM106.652 115.496C106.652 116.691 106.207 117.613 105.316 118.262C104.426 118.91 103.176 119.234 101.566 119.234C99.8633 119.234 98.5352 118.965 97.582 118.426V116.621C98.1992 116.934 98.8594 117.18 99.5625 117.359C100.273 117.539 100.957 117.629 101.613 117.629C102.629 117.629 103.41 117.469 103.957 117.148C104.504 116.82 104.777 116.324 104.777 115.66C104.777 115.16 104.559 114.734 104.121 114.383C103.691 114.023 102.848 113.602 101.59 113.117C100.395 112.672 99.543 112.285 99.0352 111.957C98.5352 111.621 98.1602 111.242 97.9102 110.82C97.668 110.398 97.5469 109.895 97.5469 109.309C97.5469 108.262 97.9727 107.438 98.8242 106.836C99.6758 106.227 100.844 105.922 102.328 105.922C103.711 105.922 105.062 106.203 106.383 106.766L105.691 108.348C104.402 107.816 103.234 107.551 102.188 107.551C101.266 107.551 100.57 107.695 100.102 107.984C99.6328 108.273 99.3984 108.672 99.3984 109.18C99.3984 109.523 99.4844 109.816 99.6562 110.059C99.8359 110.301 100.121 110.531 100.512 110.75C100.902 110.969 101.652 111.285 102.762 111.699C104.285 112.254 105.312 112.812 105.844 113.375C106.383 113.938 106.652 114.645 106.652 115.496ZM114.961 119.234C113.102 119.234 111.66 118.664 110.637 117.523C109.621 116.375 109.113 114.754 109.113 112.66C109.113 110.512 109.629 108.852 110.66 107.68C111.699 106.508 113.176 105.922 115.09 105.922C115.707 105.922 116.324 105.988 116.941 106.121C117.559 106.254 118.043 106.41 118.395 106.59L117.797 108.242C117.367 108.07 116.898 107.93 116.391 107.82C115.883 107.703 115.434 107.645 115.043 107.645C112.434 107.645 111.129 109.309 111.129 112.637C111.129 114.215 111.445 115.426 112.078 116.27C112.719 117.113 113.664 117.535 114.914 117.535C115.984 117.535 117.082 117.305 118.207 116.844V118.566C117.348 119.012 116.266 119.234 114.961 119.234ZM129.164 119L128.777 117.172H128.684C128.043 117.977 127.402 118.523 126.762 118.812C126.129 119.094 125.336 119.234 124.383 119.234C123.109 119.234 122.109 118.906 121.383 118.25C120.664 117.594 120.305 116.66 120.305 115.449C120.305 112.855 122.379 111.496 126.527 111.371L128.707 111.301V110.504C128.707 109.496 128.488 108.754 128.051 108.277C127.621 107.793 126.93 107.551 125.977 107.551C124.906 107.551 123.695 107.879 122.344 108.535L121.746 107.047C122.379 106.703 123.07 106.434 123.82 106.238C124.578 106.043 125.336 105.945 126.094 105.945C127.625 105.945 128.758 106.285 129.492 106.965C130.234 107.645 130.605 108.734 130.605 110.234V119H129.164ZM124.77 117.629C125.98 117.629 126.93 117.297 127.617 116.633C128.312 115.969 128.66 115.039 128.66 113.844V112.684L126.715 112.766C125.168 112.82 124.051 113.062 123.363 113.492C122.684 113.914 122.344 114.574 122.344 115.473C122.344 116.176 122.555 116.711 122.977 117.078C123.406 117.445 124.004 117.629 124.77 117.629ZM146.285 119.234C144.387 119.234 142.887 118.656 141.785 117.5C140.691 116.344 140.145 114.738 140.145 112.684C140.145 110.613 140.652 108.969 141.668 107.75C142.691 106.531 144.062 105.922 145.781 105.922C147.391 105.922 148.664 106.453 149.602 107.516C150.539 108.57 151.008 109.965 151.008 111.699V112.93H142.16C142.199 114.438 142.578 115.582 143.297 116.363C144.023 117.145 145.043 117.535 146.355 117.535C147.738 117.535 149.105 117.246 150.457 116.668V118.402C149.77 118.699 149.117 118.91 148.5 119.035C147.891 119.168 147.152 119.234 146.285 119.234ZM145.758 107.551C144.727 107.551 143.902 107.887 143.285 108.559C142.676 109.23 142.316 110.16 142.207 111.348H148.922C148.922 110.121 148.648 109.184 148.102 108.535C147.555 107.879 146.773 107.551 145.758 107.551ZM156.281 119H154.336V100.766H156.281V119ZM170.789 117.629C171.133 117.629 171.465 117.605 171.785 117.559C172.105 117.504 172.359 117.449 172.547 117.395V118.883C172.336 118.984 172.023 119.066 171.609 119.129C171.203 119.199 170.836 119.234 170.508 119.234C168.023 119.234 166.781 117.926 166.781 115.309V107.668H164.941V106.73L166.781 105.922L167.602 103.18H168.727V106.156H172.453V107.668H168.727V115.227C168.727 116 168.91 116.594 169.277 117.008C169.645 117.422 170.148 117.629 170.789 117.629ZM177.07 119H175.125V106.156H177.07V119ZM175.043 104.164C175.418 103.68 175.82 103.094 176.25 102.406C176.688 101.719 177.031 101.121 177.281 100.613H179.648V100.859C179.305 101.367 178.793 101.992 178.113 102.734C177.434 103.477 176.844 104.051 176.344 104.457H175.043V104.164ZM185.344 117.629C185.688 117.629 186.02 117.605 186.34 117.559C186.66 117.504 186.914 117.449 187.102 117.395V118.883C186.891 118.984 186.578 119.066 186.164 119.129C185.758 119.199 185.391 119.234 185.062 119.234C182.578 119.234 181.336 117.926 181.336 115.309V107.668H179.496V106.73L181.336 105.922L182.156 103.18H183.281V106.156H187.008V107.668H183.281V115.227C183.281 116 183.465 116.594 183.832 117.008C184.199 117.422 184.703 117.629 185.344 117.629ZM191.508 106.156V114.488C191.508 115.535 191.746 116.316 192.223 116.832C192.699 117.348 193.445 117.605 194.461 117.605C195.805 117.605 196.785 117.238 197.402 116.504C198.027 115.77 198.34 114.57 198.34 112.906V106.156H200.285V119H198.68L198.398 117.277H198.293C197.895 117.91 197.34 118.395 196.629 118.73C195.926 119.066 195.121 119.234 194.215 119.234C192.652 119.234 191.48 118.863 190.699 118.121C189.926 117.379 189.539 116.191 189.539 114.559V106.156H191.508ZM206.367 119H204.422V100.766H206.367V119ZM221.578 112.566C221.578 114.66 221.051 116.297 219.996 117.477C218.941 118.648 217.484 119.234 215.625 119.234C214.477 119.234 213.457 118.965 212.566 118.426C211.676 117.887 210.988 117.113 210.504 116.105C210.02 115.098 209.777 113.918 209.777 112.566C209.777 110.473 210.301 108.844 211.348 107.68C212.395 106.508 213.848 105.922 215.707 105.922C217.504 105.922 218.93 106.52 219.984 107.715C221.047 108.91 221.578 110.527 221.578 112.566ZM211.793 112.566C211.793 114.207 212.121 115.457 212.777 116.316C213.434 117.176 214.398 117.605 215.672 117.605C216.945 117.605 217.91 117.18 218.566 116.328C219.23 115.469 219.562 114.215 219.562 112.566C219.562 110.934 219.23 109.695 218.566 108.852C217.91 108 216.938 107.574 215.648 107.574C214.375 107.574 213.414 107.992 212.766 108.828C212.117 109.664 211.793 110.91 211.793 112.566ZM239.977 117.277H239.871C238.973 118.582 237.629 119.234 235.84 119.234C234.16 119.234 232.852 118.66 231.914 117.512C230.984 116.363 230.52 114.73 230.52 112.613C230.52 110.496 230.988 108.852 231.926 107.68C232.863 106.508 234.168 105.922 235.84 105.922C237.582 105.922 238.918 106.555 239.848 107.82H240L239.918 106.895L239.871 105.992V100.766H241.816V119H240.234L239.977 117.277ZM236.086 117.605C237.414 117.605 238.375 117.246 238.969 116.527C239.57 115.801 239.871 114.633 239.871 113.023V112.613C239.871 110.793 239.566 109.496 238.957 108.723C238.355 107.941 237.391 107.551 236.062 107.551C234.922 107.551 234.047 107.996 233.438 108.887C232.836 109.77 232.535 111.02 232.535 112.637C232.535 114.277 232.836 115.516 233.438 116.352C234.039 117.188 234.922 117.605 236.086 117.605ZM251.379 119.234C249.48 119.234 247.98 118.656 246.879 117.5C245.785 116.344 245.238 114.738 245.238 112.684C245.238 110.613 245.746 108.969 246.762 107.75C247.785 106.531 249.156 105.922 250.875 105.922C252.484 105.922 253.758 106.453 254.695 107.516C255.633 108.57 256.102 109.965 256.102 111.699V112.93H247.254C247.293 114.438 247.672 115.582 248.391 116.363C249.117 117.145 250.137 117.535 251.449 117.535C252.832 117.535 254.199 117.246 255.551 116.668V118.402C254.863 118.699 254.211 118.91 253.594 119.035C252.984 119.168 252.246 119.234 251.379 119.234ZM250.852 107.551C249.82 107.551 248.996 107.887 248.379 108.559C247.77 109.23 247.41 110.16 247.301 111.348H254.016C254.016 110.121 253.742 109.184 253.195 108.535C252.648 107.879 251.867 107.551 250.852 107.551ZM261.375 119H259.43V100.766H261.375V119ZM277.711 119.234C276.875 119.234 276.109 119.082 275.414 118.777C274.727 118.465 274.148 117.988 273.68 117.348H273.539C273.633 118.098 273.68 118.809 273.68 119.48V124.766H271.734V106.156H273.316L273.586 107.914H273.68C274.18 107.211 274.762 106.703 275.426 106.391C276.09 106.078 276.852 105.922 277.711 105.922C279.414 105.922 280.727 106.504 281.648 107.668C282.578 108.832 283.043 110.465 283.043 112.566C283.043 114.676 282.57 116.316 281.625 117.488C280.688 118.652 279.383 119.234 277.711 119.234ZM277.43 107.574C276.117 107.574 275.168 107.938 274.582 108.664C273.996 109.391 273.695 110.547 273.68 112.133V112.566C273.68 114.371 273.98 115.664 274.582 116.445C275.184 117.219 276.148 117.605 277.477 117.605C278.586 117.605 279.453 117.156 280.078 116.258C280.711 115.359 281.027 114.121 281.027 112.543C281.027 110.941 280.711 109.715 280.078 108.863C279.453 108.004 278.57 107.574 277.43 107.574ZM297.539 112.566C297.539 114.66 297.012 116.297 295.957 117.477C294.902 118.648 293.445 119.234 291.586 119.234C290.438 119.234 289.418 118.965 288.527 118.426C287.637 117.887 286.949 117.113 286.465 116.105C285.98 115.098 285.738 113.918 285.738 112.566C285.738 110.473 286.262 108.844 287.309 107.68C288.355 106.508 289.809 105.922 291.668 105.922C293.465 105.922 294.891 106.52 295.945 107.715C297.008 108.91 297.539 110.527 297.539 112.566ZM287.754 112.566C287.754 114.207 288.082 115.457 288.738 116.316C289.395 117.176 290.359 117.605 291.633 117.605C292.906 117.605 293.871 117.18 294.527 116.328C295.191 115.469 295.523 114.215 295.523 112.566C295.523 110.934 295.191 109.695 294.527 108.852C293.871 108 292.898 107.574 291.609 107.574C290.336 107.574 289.375 107.992 288.727 108.828C288.078 109.664 287.754 110.91 287.754 112.566ZM306.387 119.234C304.488 119.234 302.988 118.656 301.887 117.5C300.793 116.344 300.246 114.738 300.246 112.684C300.246 110.613 300.754 108.969 301.77 107.75C302.793 106.531 304.164 105.922 305.883 105.922C307.492 105.922 308.766 106.453 309.703 107.516C310.641 108.57 311.109 109.965 311.109 111.699V112.93H302.262C302.301 114.438 302.68 115.582 303.398 116.363C304.125 117.145 305.145 117.535 306.457 117.535C307.84 117.535 309.207 117.246 310.559 116.668V118.402C309.871 118.699 309.219 118.91 308.602 119.035C307.992 119.168 307.254 119.234 306.387 119.234ZM305.859 107.551C304.828 107.551 304.004 107.887 303.387 108.559C302.777 109.23 302.418 110.16 302.309 111.348H309.023C309.023 110.121 308.75 109.184 308.203 108.535C307.656 107.879 306.875 107.551 305.859 107.551ZM330.809 119V110.645C330.809 109.621 330.59 108.855 330.152 108.348C329.715 107.832 329.035 107.574 328.113 107.574C326.902 107.574 326.008 107.922 325.43 108.617C324.852 109.312 324.562 110.383 324.562 111.828V119H322.617V110.645C322.617 109.621 322.398 108.855 321.961 108.348C321.523 107.832 320.84 107.574 319.91 107.574C318.691 107.574 317.797 107.941 317.227 108.676C316.664 109.402 316.383 110.598 316.383 112.262V119H314.438V106.156H316.02L316.336 107.914H316.43C316.797 107.289 317.312 106.801 317.977 106.449C318.648 106.098 319.398 105.922 320.227 105.922C322.234 105.922 323.547 106.648 324.164 108.102H324.258C324.641 107.43 325.195 106.898 325.922 106.508C326.648 106.117 327.477 105.922 328.406 105.922C329.859 105.922 330.945 106.297 331.664 107.047C332.391 107.789 332.754 108.98 332.754 110.621V119H330.809ZM344.672 119L344.285 117.172H344.191C343.551 117.977 342.91 118.523 342.27 118.812C341.637 119.094 340.844 119.234 339.891 119.234C338.617 119.234 337.617 118.906 336.891 118.25C336.172 117.594 335.812 116.66 335.812 115.449C335.812 112.855 337.887 111.496 342.035 111.371L344.215 111.301V110.504C344.215 109.496 343.996 108.754 343.559 108.277C343.129 107.793 342.438 107.551 341.484 107.551C340.414 107.551 339.203 107.879 337.852 108.535L337.254 107.047C337.887 106.703 338.578 106.434 339.328 106.238C340.086 106.043 340.844 105.945 341.602 105.945C343.133 105.945 344.266 106.285 345 106.965C345.742 107.645 346.113 108.734 346.113 110.234V119H344.672ZM340.277 117.629C341.488 117.629 342.438 117.297 343.125 116.633C343.82 115.969 344.168 115.039 344.168 113.844V112.684L342.223 112.766C340.676 112.82 339.559 113.062 338.871 113.492C338.191 113.914 337.852 114.574 337.852 115.473C337.852 116.176 338.062 116.711 338.484 117.078C338.914 117.445 339.512 117.629 340.277 117.629ZM354.328 106.156H356.414L359.227 113.48C359.844 115.152 360.227 116.359 360.375 117.102H360.469C360.57 116.703 360.781 116.023 361.102 115.062C361.43 114.094 362.492 111.125 364.289 106.156H366.375L360.855 120.781C360.309 122.227 359.668 123.25 358.934 123.852C358.207 124.461 357.312 124.766 356.25 124.766C355.656 124.766 355.07 124.699 354.492 124.566V123.008C354.922 123.102 355.402 123.148 355.934 123.148C357.27 123.148 358.223 122.398 358.793 120.898L359.508 119.07L354.328 106.156ZM382.98 115.496C382.98 116.691 382.535 117.613 381.645 118.262C380.754 118.91 379.504 119.234 377.895 119.234C376.191 119.234 374.863 118.965 373.91 118.426V116.621C374.527 116.934 375.188 117.18 375.891 117.359C376.602 117.539 377.285 117.629 377.941 117.629C378.957 117.629 379.738 117.469 380.285 117.148C380.832 116.82 381.105 116.324 381.105 115.66C381.105 115.16 380.887 114.734 380.449 114.383C380.02 114.023 379.176 113.602 377.918 113.117C376.723 112.672 375.871 112.285 375.363 111.957C374.863 111.621 374.488 111.242 374.238 110.82C373.996 110.398 373.875 109.895 373.875 109.309C373.875 108.262 374.301 107.438 375.152 106.836C376.004 106.227 377.172 105.922 378.656 105.922C380.039 105.922 381.391 106.203 382.711 106.766L382.02 108.348C380.73 107.816 379.562 107.551 378.516 107.551C377.594 107.551 376.898 107.695 376.43 107.984C375.961 108.273 375.727 108.672 375.727 109.18C375.727 109.523 375.812 109.816 375.984 110.059C376.164 110.301 376.449 110.531 376.84 110.75C377.23 110.969 377.98 111.285 379.09 111.699C380.613 112.254 381.641 112.812 382.172 113.375C382.711 113.938 382.98 114.645 382.98 115.496ZM391.582 119.234C389.684 119.234 388.184 118.656 387.082 117.5C385.988 116.344 385.441 114.738 385.441 112.684C385.441 110.613 385.949 108.969 386.965 107.75C387.988 106.531 389.359 105.922 391.078 105.922C392.688 105.922 393.961 106.453 394.898 107.516C395.836 108.57 396.305 109.965 396.305 111.699V112.93H387.457C387.496 114.438 387.875 115.582 388.594 116.363C389.32 117.145 390.34 117.535 391.652 117.535C393.035 117.535 394.402 117.246 395.754 116.668V118.402C395.066 118.699 394.414 118.91 393.797 119.035C393.188 119.168 392.449 119.234 391.582 119.234ZM391.055 107.551C390.023 107.551 389.199 107.887 388.582 108.559C387.973 109.23 387.613 110.16 387.504 111.348H394.219C394.219 110.121 393.945 109.184 393.398 108.535C392.852 107.879 392.07 107.551 391.055 107.551ZM408.422 119V110.691C408.422 109.645 408.184 108.863 407.707 108.348C407.23 107.832 406.484 107.574 405.469 107.574C404.125 107.574 403.141 107.938 402.516 108.664C401.891 109.391 401.578 110.59 401.578 112.262V119H399.633V106.156H401.215L401.531 107.914H401.625C402.023 107.281 402.582 106.793 403.301 106.449C404.02 106.098 404.82 105.922 405.703 105.922C407.25 105.922 408.414 106.297 409.195 107.047C409.977 107.789 410.367 108.98 410.367 110.621V119H408.422ZM406.969 104.434C406.633 104.434 406.305 104.363 405.984 104.223C405.664 104.074 405.348 103.914 405.035 103.742C404.73 103.562 404.434 103.402 404.145 103.262C403.863 103.113 403.59 103.039 403.324 103.039C402.934 103.039 402.637 103.156 402.434 103.391C402.238 103.625 402.086 103.98 401.977 104.457H400.828C400.93 103.512 401.203 102.773 401.648 102.242C402.102 101.703 402.684 101.434 403.395 101.434C403.754 101.434 404.102 101.508 404.438 101.656C404.773 101.797 405.094 101.957 405.398 102.137C405.703 102.309 405.996 102.469 406.277 102.617C406.559 102.758 406.824 102.828 407.074 102.828C407.457 102.828 407.742 102.715 407.93 102.488C408.117 102.254 408.27 101.895 408.387 101.41H409.547C409.445 102.355 409.172 103.098 408.727 103.637C408.289 104.168 407.703 104.434 406.969 104.434ZM422.273 119L421.887 117.172H421.793C421.152 117.977 420.512 118.523 419.871 118.812C419.238 119.094 418.445 119.234 417.492 119.234C416.219 119.234 415.219 118.906 414.492 118.25C413.773 117.594 413.414 116.66 413.414 115.449C413.414 112.855 415.488 111.496 419.637 111.371L421.816 111.301V110.504C421.816 109.496 421.598 108.754 421.16 108.277C420.73 107.793 420.039 107.551 419.086 107.551C418.016 107.551 416.805 107.879 415.453 108.535L414.855 107.047C415.488 106.703 416.18 106.434 416.93 106.238C417.688 106.043 418.445 105.945 419.203 105.945C420.734 105.945 421.867 106.285 422.602 106.965C423.344 107.645 423.715 108.734 423.715 110.234V119H422.273ZM417.879 117.629C419.09 117.629 420.039 117.297 420.727 116.633C421.422 115.969 421.77 115.039 421.77 113.844V112.684L419.824 112.766C418.277 112.82 417.16 113.062 416.473 113.492C415.793 113.914 415.453 114.574 415.453 115.473C415.453 116.176 415.664 116.711 416.086 117.078C416.516 117.445 417.113 117.629 417.879 117.629ZM417.422 104.164C417.797 103.68 418.199 103.094 418.629 102.406C419.066 101.719 419.41 101.121 419.66 100.613H422.027V100.859C421.684 101.367 421.172 101.992 420.492 102.734C419.812 103.477 419.223 104.051 418.723 104.457H417.422V104.164ZM429.68 119H427.734V100.766H429.68V119ZM441.703 119L441.316 117.172H441.223C440.582 117.977 439.941 118.523 439.301 118.812C438.668 119.094 437.875 119.234 436.922 119.234C435.648 119.234 434.648 118.906 433.922 118.25C433.203 117.594 432.844 116.66 432.844 115.449C432.844 112.855 434.918 111.496 439.066 111.371L441.246 111.301V110.504C441.246 109.496 441.027 108.754 440.59 108.277C440.16 107.793 439.469 107.551 438.516 107.551C437.445 107.551 436.234 107.879 434.883 108.535L434.285 107.047C434.918 106.703 435.609 106.434 436.359 106.238C437.117 106.043 437.875 105.945 438.633 105.945C440.164 105.945 441.297 106.285 442.031 106.965C442.773 107.645 443.145 108.734 443.145 110.234V119H441.703ZM437.309 117.629C438.52 117.629 439.469 117.297 440.156 116.633C440.852 115.969 441.199 115.039 441.199 113.844V112.684L439.254 112.766C437.707 112.82 436.59 113.062 435.902 113.492C435.223 113.914 434.883 114.574 434.883 115.473C434.883 116.176 435.094 116.711 435.516 117.078C435.945 117.445 436.543 117.629 437.309 117.629ZM449.109 119H447.164V100.766H449.109V119ZM464.32 112.566C464.32 114.66 463.793 116.297 462.738 117.477C461.684 118.648 460.227 119.234 458.367 119.234C457.219 119.234 456.199 118.965 455.309 118.426C454.418 117.887 453.73 117.113 453.246 116.105C452.762 115.098 452.52 113.918 452.52 112.566C452.52 110.473 453.043 108.844 454.09 107.68C455.137 106.508 456.59 105.922 458.449 105.922C460.246 105.922 461.672 106.52 462.727 107.715C463.789 108.91 464.32 110.527 464.32 112.566ZM454.535 112.566C454.535 114.207 454.863 115.457 455.52 116.316C456.176 117.176 457.141 117.605 458.414 117.605C459.688 117.605 460.652 117.18 461.309 116.328C461.973 115.469 462.305 114.215 462.305 112.566C462.305 110.934 461.973 109.695 461.309 108.852C460.652 108 459.68 107.574 458.391 107.574C457.117 107.574 456.156 107.992 455.508 108.828C454.859 109.664 454.535 110.91 454.535 112.566ZM467.461 117.758C467.461 117.234 467.578 116.84 467.812 116.574C468.055 116.301 468.398 116.164 468.844 116.164C469.297 116.164 469.648 116.301 469.898 116.574C470.156 116.84 470.285 117.234 470.285 117.758C470.285 118.266 470.156 118.656 469.898 118.93C469.641 119.203 469.289 119.34 468.844 119.34C468.445 119.34 468.113 119.219 467.848 118.977C467.59 118.727 467.461 118.32 467.461 117.758Z" fill="black"/>
<path d="M320.179 644.834C313.408 602.471 311.807 578.633 312.991 535.955C315.862 570.411 318.279 588.835 328.133 615.515C325.85 597.214 325.623 587.459 328.46 571.599C329.258 587.702 330.518 596.705 335.181 612.698L349.027 617.403C342.072 584.382 342.632 566.461 346.285 534.85C348.118 565.086 349.042 582.043 357.774 611.948L387.077 616.14C381.415 590.609 381.703 576.179 384.892 550.355C385.718 577.523 386.454 592.624 395.401 615.863C394.243 586.297 396.401 573.158 400.35 549.841C399.76 576.317 399.703 591.09 407.291 615.468C404.298 590.187 404.653 575.743 408.674 549.565C408.664 576.421 409.434 590.842 419.011 609.914C419.411 589.625 422.372 570.005 436.933 540.232C425.504 578.621 424.367 601.413 420.06 641.516L320.179 644.834Z" fill="#88C549" stroke="#88C549"/>
<path d="M331.01 593.672C278.918 595.689 218.914 615.989 220.738 663.096C221.005 669.972 221.59 685.085 251.283 693.467C306.086 708.942 361.629 699.749 405.022 684.786C415.404 681.209 420.355 666.072 420.999 659.219C426.095 604.818 383.101 591.654 331.01 593.672Z" fill="#B7B19A"/>
<path d="M432.265 694.432C449.413 669.973 398.216 640.208 358.598 657.297C327.199 670.839 295.086 672.553 308.591 699.222C318.127 718.049 413.156 721.685 432.265 694.432Z" fill="#CCCCB8"/>
<path d="M351.384 514.831C351.555 521.463 346.5 526.976 340.122 527.143C333.731 527.309 328.403 522.06 328.232 515.428C328.06 508.787 333.108 503.281 339.494 503.113C345.878 502.95 351.212 508.184 351.384 514.831Z" fill="#869A2A"/>
<path d="M315.899 519.896C316.895 527.376 310.874 532.407 304.309 532.577C297.728 532.746 292.807 527.863 292.065 520.513C291.386 513.718 297.133 508.629 303.66 507.841C310.628 507.007 314.969 513.13 315.899 519.896Z" fill="#869A2A"/>
<path d="M332.962 576.392C332.962 576.392 342.507 593.363 347.229 596.584C351.057 599.188 352.649 597.741 352.649 597.741C352.649 597.741 363.384 593.811 361.893 596.313C360.404 598.829 353.295 600.509 353.295 600.509C353.295 600.509 366.156 600.793 364.461 602.435C362.77 604.065 352.099 604.516 352.099 604.516C352.099 604.516 365.751 607.812 362.6 608.617C358.206 609.746 346.726 608.249 345.05 605.735C343.363 603.223 329.04 589.601 325.474 585.701C321.938 581.799 332.962 576.392 332.962 576.392Z" fill="#869A2A"/>
<path d="M349.008 514.896C349.147 520.166 345.128 524.549 340.058 524.678C334.976 524.81 330.738 520.64 330.603 515.374C330.467 510.091 334.483 505.714 339.563 505.581C344.628 505.449 348.874 509.613 349.008 514.896Z" fill="white"/>
<mask id="mask0" mask-type="alpha" maskUnits="userSpaceOnUse" x="239" y="513" width="139" height="107">
<path d="M311.053 514.747C334.294 510.731 380.342 520.023 377.025 541.579C374.292 559.283 354.097 563.158 354.097 563.158C354.097 563.158 351.22 583.345 325.475 585.699C311.893 606.476 288.639 619.88 265.915 619.118C243.314 618.356 230.69 596.155 245.228 567.975C259.059 541.201 284.085 534.913 284.085 534.913C284.085 534.913 289.891 518.406 311.053 514.747Z" fill="#869A2A"/>
</mask>
<g mask="url(#mask0)">
<path d="M311.053 514.747C334.294 510.731 380.342 520.023 377.025 541.579C374.292 559.283 354.097 563.158 354.097 563.158C354.097 563.158 351.22 583.345 325.475 585.699C311.893 606.476 288.639 619.88 265.915 619.118C243.314 618.356 230.69 596.155 245.228 567.975C259.059 541.201 284.085 534.913 284.085 534.913C284.085 534.913 289.891 518.406 311.053 514.747Z" fill="#869A2A"/>
<path d="M307.971 566.266C310.767 568.091 309.407 571.224 306.537 569.483C303.635 567.721 305.113 564.399 307.971 566.266Z" fill="#6A2403"/>
<path d="M300.935 571.04C303.836 572.737 302.621 576.037 299.635 574.429C296.683 572.83 297.999 569.344 300.935 571.04Z" fill="#6A2403"/>
<path d="M293.1 563.546C295.961 565.282 294.531 568.745 291.609 567.105C288.641 565.438 290.192 561.79 293.1 563.546Z" fill="#6A2403"/>
<path d="M301.595 551.453C298.851 549.461 300.804 546.059 303.462 548.148C306.123 550.219 304.324 553.419 301.595 551.453Z" fill="#6A2403"/>
<path d="M278.247 560.344C275.278 558.694 276.951 554.716 279.895 556.471C282.745 558.182 281.171 561.972 278.247 560.344Z" fill="#6A2403"/>
<path d="M257.922 562.321L257.979 561.691C258.971 558.883 263.955 560.42 263.01 563.143C262.605 564.335 261.382 564.675 260.257 564.53C260.583 566.155 259.322 567.823 257.226 566.883C254.45 565.628 255.391 561.844 257.922 562.321Z" fill="#6A2403"/>
<path d="M278.045 548.591C275.188 546.804 277.167 542.807 279.968 544.703C282.754 546.587 280.903 550.395 278.045 548.591Z" fill="#6A2403"/>
<path d="M259.659 581.701C258.074 581.111 257.513 579.688 257.849 578.605C257.778 578.321 257.778 578.01 257.863 577.663C258.599 574.875 263.681 576.041 262.99 578.731L262.573 579.525C262.794 580.97 261.712 582.465 259.659 581.701Z" fill="#6A2403"/>
<path d="M272.385 522.72C269.211 523.157 267.635 518.159 271.013 517.743C274.294 517.381 275.543 522.344 272.385 522.72Z" fill="#6A2403"/>
<path d="M284.225 535.24C287.34 535.099 288.842 539.744 285.852 539.939C282.802 540.189 281.074 535.453 284.225 535.24Z" fill="#6A2403"/>
<path d="M306.388 562.953C309.52 562.501 311.259 567.285 308.131 567.731C304.989 568.241 303.209 563.473 306.388 562.953Z" fill="#6A2403"/>
<path d="M291.723 550.192C288.567 550.874 286.664 546.014 289.942 545.354C293.183 544.759 294.838 549.566 291.723 550.192Z" fill="#6A2403"/>
<path d="M272.121 546.288C269.08 546.886 266.946 542.301 270.1 541.724C273.166 541.202 275.191 545.766 272.121 546.288Z" fill="#6A2403"/>
<path d="M296.316 557.929C293.403 558.214 291.184 553.934 294.134 553.636C297.013 553.388 299.21 557.706 296.316 557.929Z" fill="#6A2403"/>
<path d="M268.912 565.174C265.955 565.993 263.403 561.731 266.397 560.902C269.345 560.125 271.878 564.42 268.912 565.174Z" fill="#6A2403"/>
<path d="M277.855 549.416C280.87 548.96 282.995 553.358 280.059 553.848C277.07 554.374 274.822 549.951 277.855 549.416Z" fill="#6A2403"/>
<path d="M271.106 556.951C268.02 557.727 265.81 553.128 268.981 552.362C272.072 551.659 274.203 556.246 271.106 556.951Z" fill="#6A2403"/>
<path d="M288.249 517.347C291.381 517.283 292.621 522.177 289.482 522.227C286.313 522.358 285.015 517.481 288.249 517.347Z" fill="#6A2403"/>
<path d="M244.968 531.73C248.159 530.875 250.131 535.73 246.937 536.58C243.731 537.48 241.731 532.653 244.968 531.73Z" fill="#6A2403"/>
<path d="M235.09 554.763C234.341 554.247 233.898 553.361 234.279 552.203C235.399 549.05 240.482 550.434 239.366 553.488L238.845 554.379C240.217 555.506 240.658 557.72 238.617 558.516C236.05 559.536 233.895 556.531 235.09 554.763Z" fill="#6A2403"/>
<path d="M294.178 548.272C291.23 548.504 289.225 544.034 292.236 543.804C295.211 543.657 297.088 548.07 294.178 548.272Z" fill="#6A2403"/>
<path d="M286.068 568.926L286.078 569.192L286.074 569.204L286.042 569.828C285.898 570.264 285.585 570.521 285.231 570.711C286.07 572.333 284.794 574.169 282.493 573.082C280.593 572.176 280.383 570.371 281.238 569.486C281.035 569.104 280.936 568.686 281.087 568.215L281.151 568.106C280.817 567.246 281.04 566.365 282.246 566.109C284.263 565.67 286.1 567.593 286.068 568.926Z" fill="#6A2403"/>
<path d="M256.27 556.893C253.237 557.839 250.797 553.356 253.868 552.402C256.942 551.539 259.259 555.991 256.27 556.893Z" fill="#6A2403"/>
<path d="M235.844 521.361C239.18 520.452 240.842 525.457 237.616 526.398C234.369 527.392 232.449 522.335 235.844 521.361Z" fill="#6A2403"/>
<path d="M303.559 538.507C306.487 538.67 307.972 543.297 305.042 543.1C302.069 542.995 300.55 538.414 303.559 538.507Z" fill="#6A2403"/>
<path d="M251.888 568.863C248.936 570.009 246.174 565.677 249.251 564.558C252.253 563.502 254.88 567.806 251.888 568.863Z" fill="#6A2403"/>
<path d="M300.219 564.249C303.047 564.005 305.451 568.102 302.629 568.345C299.787 568.631 297.357 564.553 300.219 564.249Z" fill="#6A2403"/>
<path d="M270.167 575.66C269.67 574.103 270.905 572.396 273.056 573.408C275.487 574.542 275.178 577.209 273.398 577.563C273.757 578.425 273.646 579.327 272.441 579.705C269.601 580.635 266.666 576.66 269.583 575.729L270.167 575.66Z" fill="#6A2403"/>
<path d="M243.182 558.91C244.163 555.865 249.2 557.223 248.252 560.189C247.321 563.111 242.21 561.952 243.182 558.91Z" fill="#6A2403"/>
<path d="M246.926 573.562C246.228 576.619 241.019 575.904 241.764 572.713C242.517 569.518 247.686 570.482 246.926 573.562Z" fill="#6A2403"/>
<path d="M256.345 587.728C255.764 590.892 250.513 590.506 251.122 587.205C251.746 583.903 256.939 584.526 256.345 587.728Z" fill="#6A2403"/>
<path d="M252.65 580.507C252.031 583.358 246.823 582.62 247.495 579.642C248.159 576.672 253.285 577.616 252.65 580.507Z" fill="#6A2403"/>
<path d="M273.202 568.629C272.347 571.149 267.355 569.797 268.196 567.131C269.096 564.492 274.063 566.061 273.202 568.629Z" fill="#6A2403"/>
<path d="M249.876 590.144C249.397 593.029 244.153 592.614 244.678 589.603C245.198 586.579 250.381 587.229 249.876 590.144Z" fill="#6A2403"/>
<path d="M247.634 604.41C246.947 608.016 241.662 607.873 242.36 604.103C243.113 600.362 248.362 600.778 247.634 604.41Z" fill="#6A2403"/>
<path d="M244.539 582.591C244.264 585.829 239.011 585.933 239.307 582.523C239.624 579.112 244.94 579.363 244.539 582.591Z" fill="#6A2403"/>
<path d="M249.206 592.861C249.009 596.395 243.795 596.887 243.952 593.129C244.235 589.453 249.521 589.347 249.206 592.861Z" fill="#6A2403"/>
<path d="M259.805 547.696C261.001 544.77 265.926 546.507 264.763 549.37C263.634 552.19 258.628 550.637 259.805 547.696Z" fill="#6A2403"/>
</g>
<path d="M313.185 519.965C313.964 525.745 309.313 529.622 304.233 529.756C299.159 529.89 295.358 526.12 294.781 520.445C294.25 515.19 298.684 511.255 303.739 510.65C309.127 510.001 312.468 514.736 313.185 519.965Z" fill="white"/>
<path d="M307.52 520.126C307.668 521.215 306.786 521.945 305.814 521.972C304.857 522.001 304.138 521.291 304.013 520.218C303.93 519.221 304.764 518.467 305.724 518.354C306.753 518.235 307.389 519.133 307.52 520.126Z" fill="black"/>
<path d="M343.378 511.402C343.51 512.372 342.731 513.025 341.868 513.048C341.012 513.069 340.372 512.441 340.274 511.483C340.183 510.591 340.938 509.928 341.784 509.822C342.699 509.718 343.262 510.509 343.378 511.402Z" fill="black"/>
<path d="M354.096 563.156C332.588 565.824 324.631 553.256 324.631 553.256" stroke="black" stroke-width="0.612" stroke-linecap="round"/>
<path d="M335.221 583.91C332.305 580.645 317.988 583.713 303.553 592.762C283.147 605.545 252.352 609.82 259.159 615.389C265.963 620.94 269.731 620.643 280.523 617.703C291.788 614.637 303.051 612.685 319.054 599.629C328.324 592.061 331.027 588.312 335.221 583.91Z" fill="#68701F"/>
<path d="M262.984 586.274C269.557 579.5 292.796 569.504 300.761 578.065C308.714 586.635 293.052 617.461 293.052 617.461C293.052 617.461 325.914 614.246 324.297 616.647C322.682 619.052 308.022 619.202 308.022 619.202C308.022 619.202 326.041 620.597 325.781 622.66C325.516 624.723 307.431 622.207 307.431 622.207C307.431 622.207 322.255 628.521 320.945 630.238C319.66 631.955 306.566 627.436 296.275 625.14C285.984 622.836 279.881 628.204 280.101 623.846C280.339 619.476 288.08 603.135 288.08 603.135C288.08 603.135 275.44 624.125 262.117 619.309C240.214 611.393 257.403 592.061 262.984 586.274Z" fill="#9DB22D"/>
<path d="M366.042 542.459C366.058 543.304 365.389 544.022 364.529 544.046C363.665 544.067 362.941 543.385 362.921 542.538C362.904 541.662 363.587 540.955 364.442 540.936C365.306 540.915 366.017 541.586 366.042 542.459Z" fill="black"/>
<path d="M372.273 540.051C372.291 540.74 371.751 541.308 371.067 541.324C370.389 541.342 369.817 540.803 369.797 540.116C369.779 539.442 370.325 538.873 371.007 538.857C371.687 538.842 372.251 539.375 372.273 540.051Z" fill="black"/>
<path d="M322.124 576.674C322.124 576.674 327.181 603.393 331.182 607.479C334.414 610.799 336.251 609.699 336.251 609.699C336.251 609.699 347.565 608.002 345.6 610.156C343.637 612.325 336.332 612.539 336.332 612.539C336.332 612.539 348.89 615.395 346.909 616.663C344.928 617.926 334.37 616.23 334.37 616.23C334.37 616.23 347.098 622.195 343.846 622.359C339.336 622.577 328.376 618.806 327.232 616.016C326.07 613.203 313.676 588.904 310.959 584.363C308.264 579.827 322.124 576.674 322.124 576.674Z" fill="#869A2A"/>
</svg>
