<svg width="467" height="247" viewBox="0 0 467 247" fill="none" xmlns="http://www.w3.org/2000/svg">
<g clip-path="url(#clip0)">
<path d="M209.226 73.7499C209.743 76.2905 211.861 79.469 211.861 79.469L216.04 79.909L218.1 75.409C218.1 75.409 216.492 74.1761 216.121 73.7845C215.504 73.1355 214.295 72.3759 213.425 71.4224C212.556 70.4704 212.263 69.344 211.514 68.612C210.564 67.6849 209.71 69.4963 210.058 70.6987C210.186 71.1332 211.694 74.082 209.226 73.7499Z" fill="#DDCB9F"/>
<path d="M204.428 110.538C202.014 110.538 199.901 109.098 198.144 106.263C193.528 98.8083 192.176 88.6391 194.435 78.3633C195.07 75.4685 197.957 67.9575 203.602 67.9575C206.77 67.9575 209.406 70.2767 211.434 74.8486C215.644 84.3481 213.676 96.2345 212.634 100.907C212.275 102.514 210.196 110.538 204.428 110.538ZM203.548 75.9584C202.877 76.8938 202.069 78.5723 201.763 79.9616C199.948 88.2184 200.892 96.2373 204.344 102.037C204.721 101.258 205.094 100.25 205.306 99.2912C207.142 91.062 206.866 83.0515 204.567 77.868C204.165 76.9547 203.816 76.3528 203.548 75.9584Z" fill="black"/>
<path fill-rule="evenodd" clip-rule="evenodd" d="M304.769 5.67192C273.106 1.75589 207.064 7.82089 207.064 7.82089C207.064 7.82089 205.719 9.32323 203.519 11.7551C204.332 13.2039 195.392 39.1319 189.172 53.2578C187.069 58.0341 184.683 63.9587 182.37 69.7001C177.845 80.9365 173.601 91.4714 172.315 91.3248C172.038 91.2934 171.502 91.2563 170.765 91.2052C166.31 90.8967 154.499 90.0789 148.163 86.9245C140.813 83.2658 140.368 81.1528 140.364 81.1323C133.064 84.3916 64.6588 114.926 44.7069 123.533C23.621 132.63 9.35109 161.927 9.10786 172.424C8.8146 184.994 10.2809 195.548 26.9734 201.145C43.6672 206.745 103.497 203.538 103.497 203.538C103.497 203.538 110.673 173.463 144.413 173.39C178.154 173.321 185.949 202.593 185.949 202.593C185.949 202.593 271.729 204.674 280.866 202.593C290.003 200.509 290.003 202.046 290.003 202.046C290.003 202.046 303.19 202.514 312.398 202.046C322.698 201.521 350.119 202.046 350.119 202.046C350.119 202.046 344.014 167.62 376.805 169.717C409.595 171.816 411.758 198.408 411.758 198.408C411.758 198.408 439.708 204.706 458.683 183.411C477.658 162.114 432.68 68.2536 408.562 35.99C389.573 10.5862 355.769 8.81889 326.796 7.30417C318.972 6.89514 311.501 6.50454 304.769 5.67192ZM276.401 22.8941C268.147 22.3461 228.18 22.8941 228.18 22.8941C228.18 22.8941 222.314 22.6505 216.623 31.6601C213.507 36.5904 192.408 84.8046 193.508 89.9079C194.607 95.0125 288.01 89.9079 288.01 89.9079C288.01 89.9079 287.407 48.6443 287.958 38.7823C288.51 28.9203 284.656 23.442 276.401 22.8941ZM316.894 24.5366C316.894 24.5366 310.726 83.1621 312.927 86.9979C314.391 89.5468 330.435 88.7081 346.687 87.8585C354.892 87.4296 363.149 86.9979 369.611 86.9979C388.872 86.9979 402.63 85.3526 401.53 81.5168C400.429 77.6811 389.974 46.8981 374.014 35.9913C358.054 25.086 316.894 24.5366 316.894 24.5366Z" fill="#FF0000"/>
<path fill-rule="evenodd" clip-rule="evenodd" d="M228.18 22.8942C228.18 22.8942 268.147 22.3462 276.401 22.8942C284.656 23.4421 288.51 28.9204 287.958 38.7824C287.407 48.6444 288.01 89.908 288.01 89.908C288.01 89.908 194.607 95.0126 193.508 89.908C192.408 84.8047 213.507 36.5906 216.623 31.6603C222.314 22.6506 228.18 22.8942 228.18 22.8942Z" fill="white" fill-opacity="0.3"/>
<path fill-rule="evenodd" clip-rule="evenodd" d="M316.894 24.5366C316.894 24.5366 310.726 83.1621 312.927 86.9979C315.129 90.8336 350.35 86.9979 369.611 86.9979C388.872 86.9979 402.63 85.3526 401.53 81.5168C400.429 77.6811 389.974 46.8981 374.014 35.9913C358.054 25.086 316.894 24.5366 316.894 24.5366Z" fill="white" fill-opacity="0.3"/>
<path fill-rule="evenodd" clip-rule="evenodd" d="M189.172 53.2579C182.953 67.3819 174.259 91.5464 172.315 91.325C170.37 91.1036 155.548 90.6013 148.163 86.9246C140.777 83.248 140.364 81.1322 140.364 81.1322C140.364 81.1322 160.797 53.0628 174.013 39.3249C187.229 25.5842 202.704 10.309 203.519 11.755C204.333 13.201 195.392 39.1312 189.172 53.2579Z" fill="#CCCCB8" fill-opacity="0.8"/>
<path fill-rule="evenodd" clip-rule="evenodd" d="M21.147 153.402C21.147 153.402 17.0288 152.931 15.2387 153.58C13.4485 154.229 10.1864 157.899 7.74581 164.055C5.30657 170.211 4.47681 183.495 4.47681 183.495C10.8161 183.731 10.7702 183.533 17.5097 184.306C21.7405 184.791 19.4917 184.806 20.3645 171.591C21.3875 156.1 21.147 153.402 21.147 153.402Z" fill="#CCCCB8"/>
<path fill-rule="evenodd" clip-rule="evenodd" d="M20.5299 153.285H30.633C30.633 153.285 32.9124 152.798 32.7484 155.553C32.5844 158.308 32.7567 182.123 32.7567 182.123C32.7567 182.123 32.2605 184.227 29.6573 184.391C27.054 184.554 19.4055 184.391 19.4055 184.391L20.5299 153.285Z" fill="#FF8000"/>
<path fill-rule="evenodd" clip-rule="evenodd" d="M186.964 202.19C186.964 225.135 168.281 243.737 145.233 243.737C122.183 243.737 103.499 225.135 103.499 202.19C103.499 179.242 122.183 160.64 145.233 160.64C168.28 160.64 186.964 179.242 186.964 202.19Z" fill="black"/>
<path fill-rule="evenodd" clip-rule="evenodd" d="M164.929 202.19C164.929 213.019 156.111 221.801 145.231 221.801C134.351 221.801 125.531 213.019 125.531 202.19C125.531 191.358 134.351 182.577 145.231 182.577C156.111 182.577 164.929 191.358 164.929 202.19Z" fill="#CCCCB8"/>
<path fill-rule="evenodd" clip-rule="evenodd" d="M417.088 202.19C417.088 225.135 398.405 243.737 375.357 243.737C352.307 243.737 333.623 225.135 333.623 202.19C333.623 179.242 352.307 160.64 375.357 160.64C398.404 160.64 417.088 179.242 417.088 202.19Z" fill="black"/>
<path fill-rule="evenodd" clip-rule="evenodd" d="M395.054 202.19C395.054 213.019 386.234 221.801 375.355 221.801C364.477 221.801 355.655 213.019 355.655 202.19C355.655 191.358 364.477 182.577 375.355 182.577C386.234 182.577 395.054 191.358 395.054 202.19Z" fill="#CCCCB8"/>
<path fill-rule="evenodd" clip-rule="evenodd" d="M277.276 101.641C270.178 101.641 264.425 105.587 264.425 110.457H290.128C290.128 105.587 284.375 101.641 277.276 101.641Z" fill="#BC0003"/>
<path d="M249.24 71.5664C249.24 71.5664 247.648 78.5447 247.171 81.7176C246.691 84.8905 246.053 92.1802 246.053 92.1802L272.82 91.3942C272.82 91.3942 270.603 80.2923 269.003 75.6914C267.403 71.0904 266.447 68.554 266.447 68.554C266.447 68.554 257.684 65.3782 254.339 65.857C250.993 66.3317 249.24 71.5664 249.24 71.5664Z" fill="#41AA54"/>
<path d="M249.719 73.0525C249.719 73.0525 235.539 78.2277 232.194 77.4335C228.848 76.6419 218.014 73.7845 218.014 73.7845L215.494 80.5704C215.494 80.5704 225.829 84.7978 231.645 85.7484C237.46 86.7004 248.761 82.3513 248.761 82.3513L249.719 73.0525Z" fill="#41AA54"/>
<path d="M260.335 78.3149C261.013 81.5764 256.729 85.3555 255.596 87.3342C254.464 89.313 249.252 92.1801 249.252 92.1801L240.74 91.8342C240.74 91.8342 246.76 87.0589 248.193 84.5986C249.625 82.1424 251.954 79.1479 253.217 77.2425C254.48 75.3385 259.207 72.9072 260.335 78.3149Z" fill="#41AA54"/>
<path d="M244.879 30.3582C244.879 30.3582 240.468 36.5533 237.945 39.3955C235.721 41.9043 229.706 44.7894 229.632 46.8055C229.529 49.5924 235.003 49.5329 235.003 49.5329C235.003 49.5329 234.926 55.4789 236.253 57.1034C236.947 57.9516 236.463 57.7676 236.463 57.7676C236.463 57.7676 237.421 61.6269 237.944 63.1864C238.465 64.7431 235.522 67.3598 240.737 70.6462C245.952 73.9354 260.688 71.1623 263.306 69.9765C266.447 68.5526 271.338 66.4147 272.033 63.8174C272.731 61.2201 272.813 58.7141 272.813 58.7141C272.813 58.7141 275.247 57.8894 275.247 55.9867C275.247 54.0841 272.495 52.2132 272.495 52.2132C272.495 52.2132 262.925 34.4431 261.011 31.8458C259.096 29.2512 244.879 30.3582 244.879 30.3582Z" fill="#DDCB9F"/>
<path d="M244.177 30.3583C244.177 30.3583 253.994 20.7287 266.336 27.3043C278.681 33.8827 280.855 40.1414 280.485 45.2931C280.321 47.5929 281.105 52.7142 282.4 55.3793C282.839 56.2843 279.184 53.5168 279.194 54.1907C279.244 57.1962 280.485 58.4582 280.485 58.4582C280.485 58.4582 270.953 59.7367 265.181 47.4698C261.011 38.6082 257.377 34.8513 252.387 31.9883C250.751 31.0502 244.177 30.3583 244.177 30.3583Z" fill="#9B3403"/>
<path fill-rule="evenodd" clip-rule="evenodd" d="M244.982 47.3312C247.67 48.1421 249.599 46.6739 250.468 43.8234C251.336 40.9673 250.416 38.3963 247.72 37.5826C245.04 36.7718 242.43 38.2773 241.56 41.1333C240.693 43.9853 242.294 46.5175 244.982 47.3312Z" fill="white"/>
<path fill-rule="evenodd" clip-rule="evenodd" d="M243.115 42.3996C243.684 42.5725 244.073 42.2889 244.241 41.7326C244.41 41.1736 244.216 40.6671 243.656 40.4941C243.09 40.3239 242.556 40.6131 242.388 41.1722C242.216 41.7284 242.556 42.2335 243.115 42.3996Z" fill="black"/>
<path d="M236.792 57.5986C237.679 58.0982 239.264 58.963 240.257 59.7227" stroke="black" stroke-width="0.5" stroke-linecap="round"/>
<path d="M277.775 55.6394C277.805 55.6117 277.822 55.537 277.766 55.5232L277.679 55.6311L277.775 55.6394Z" fill="#6A2403"/>
<path d="M277.531 55.2229C277.444 55.2547 277.324 55.3225 277.309 55.4581C277.426 55.3696 277.417 55.4291 277.545 55.317L277.588 55.4471C277.618 55.4222 277.657 55.5176 277.716 55.4526C277.689 55.317 277.613 55.2713 277.488 55.3073L277.531 55.2229Z" fill="#6A2403"/>
<path d="M273.907 51.3013L273.915 51.3395L273.907 51.3013Z" fill="#6A2403"/>
<path d="M272.112 48.4744L272.158 48.4882L272.112 48.4744Z" fill="#6A2403"/>
<path d="M271.93 47.9097L271.94 47.944L271.93 47.9097Z" fill="#6A2403"/>
<path d="M273.907 51.3012L273.89 51.2043L273.907 51.3012Z" fill="#6A2403"/>
<path d="M276.678 55.1451L276.745 55.1396L276.694 55.1287L276.678 55.1451Z" fill="#6A2403"/>
<path d="M274.868 52.4153L274.883 52.4385L274.94 52.4207L274.868 52.4153Z" fill="#6A2403"/>
<path d="M275.609 53.2468L275.459 53.3229L275.555 53.3119L275.609 53.2468Z" fill="#6A2403"/>
<path d="M276.746 54.6072L276.778 54.6154L276.746 54.6072Z" fill="#6A2403"/>
<path d="M274.413 51.7513L274.439 51.7205L274.413 51.7513Z" fill="#6A2403"/>
<path d="M251.87 30.5143L251.875 30.4966L251.87 30.5143Z" fill="#6A2403"/>
<path d="M250.83 29.5073H250.85L250.873 29.4478L250.83 29.5073Z" fill="#6A2403"/>
<path d="M265.727 39.1506C265.722 39.2987 265.504 39.105 265.527 39.3015C265.552 39.2613 265.769 39.2959 265.727 39.1506Z" fill="#6A2403"/>
<path d="M276.66 55.1149L276.617 55.0928L276.66 55.1149Z" fill="#6A2403"/>
<path d="M265.527 39.3013L265.53 39.3226L265.527 39.3013Z" fill="#6A2403"/>
<path d="M270.093 44.9609L270.063 45.0094L270.093 44.9609Z" fill="#6A2403"/>
<path d="M270.948 46.5578L270.937 46.5149L270.948 46.5578Z" fill="#6A2403"/>
<path d="M269.428 44.2773L269.398 44.2178L269.392 44.2344L269.428 44.2773Z" fill="#6A2403"/>
<path d="M268.875 43.4719L268.867 43.4996L268.891 43.5204L268.875 43.4719Z" fill="#6A2403"/>
<path d="M254.573 31.5856L254.579 31.4722C254.557 31.5538 254.419 31.5151 254.573 31.5856Z" fill="#6A2403"/>
<path d="M276.717 55.0913L276.66 55.1148L276.695 55.1287L276.717 55.0913Z" fill="#6A2403"/>
<path d="M268.642 44.7644L268.569 44.626L268.642 44.7644Z" fill="#6A2403"/>
<path d="M260.367 35.2611L260.33 35.2498L260.367 35.2611Z" fill="#6A2403"/>
<path d="M268.298 44.2608L268.318 44.1418L268.282 44.1446L268.298 44.2608Z" fill="#6A2403"/>
<path d="M253.567 31.2757C253.7 31.3296 253.692 31.165 253.756 31.0944C253.928 31.1345 253.782 31.2355 253.801 31.3324C253.913 31.3435 254.047 31.2535 254.116 31.2978L254.091 31.3573C254.244 31.3006 254.395 31.5054 254.583 31.4279L254.58 31.4708L254.655 31.2729C254.715 31.3006 254.805 31.2411 254.785 31.3407L254.698 31.3753L254.779 31.367C254.771 31.5234 254.673 31.3698 254.628 31.4639C254.767 31.4832 254.958 31.4445 255.032 31.5289C254.989 31.6645 254.798 31.4639 254.864 31.6368L254.747 31.5178C254.755 31.7724 254.668 31.4611 254.661 31.7226C254.826 31.8527 254.899 31.7628 255.064 31.8928L255.181 31.7365C255.51 31.7448 255.224 32.1557 255.503 32.0852C255.598 32.0284 255.702 31.8831 255.795 32.034L255.671 32.1502C255.842 32.2554 255.884 32.0021 256.022 32.1903C255.956 32.2277 255.853 32.1654 255.873 32.1959C255.933 32.3688 256.004 32.1613 256.097 32.2097L256.047 32.3425L256.722 32.5446L256.657 32.6553C256.944 32.7577 257.185 33.0178 257.381 33.2447L257.539 33.2019L257.512 33.2807C257.581 33.3804 257.559 33.2185 257.631 33.2074C257.688 33.2351 257.663 33.3126 257.609 33.3209C257.833 33.3402 258.208 33.4426 258.309 33.664L258.255 33.6723C258.364 33.8024 258.551 33.5672 258.614 33.7429L258.578 33.7457C258.85 33.9698 259.235 34.111 259.328 34.4348C259.474 34.3268 259.555 34.7157 259.721 34.5344C259.806 34.7558 259.734 34.7558 259.906 34.9966C259.958 35.0505 260.091 34.9454 260.179 34.9855L260.099 35.0851L260.284 35.0602L260.241 35.2194L260.33 35.2484L260.336 35.1322C260.48 35.1723 260.541 35.4103 260.503 35.4615L260.825 35.5805L260.679 35.5944C260.899 35.6027 260.617 35.7161 260.818 35.7244L260.897 35.6566C260.908 35.7618 261.049 35.8753 261.175 35.9348L261.096 35.986L261.691 36.4855C261.649 36.3886 261.769 36.2904 261.835 36.3347L261.767 36.4564C261.859 36.4315 261.74 36.3623 261.887 36.3596C261.949 36.4412 261.833 36.5187 261.759 36.5132L261.881 36.5616L261.784 36.6266C261.876 36.599 261.844 36.8702 261.997 36.8135L261.973 36.848C262.169 37.0349 262.291 37.0833 262.455 37.2286C262.542 37.1469 262.585 37.2258 262.699 37.2037L263.006 37.6575C263.148 37.7115 263.106 37.6146 263.202 37.6091C263.132 37.6908 263.282 37.8167 263.153 37.8015C263.332 37.955 263.373 38.0062 263.64 38.164L263.677 38.0588L263.685 38.2097L263.666 38.2069C264.011 38.348 263.956 38.9859 264.3 39.0316L264.282 39.0288L264.553 39.1561C264.626 39.2613 264.441 39.1506 264.455 39.2641C264.789 39.3665 264.753 39.6266 265.007 39.7318C264.897 40.0694 265.449 40.2369 265.459 40.562L265.506 40.5025C265.603 40.5081 265.524 40.5911 265.539 40.6409L265.605 40.5524C266.026 40.9301 266.246 41.5168 266.553 42.0039C266.663 42.1824 266.929 41.8683 266.945 42.188L266.792 42.2101C267.174 42.4564 267.298 42.913 267.656 43.1663L267.56 43.1552C267.531 43.2853 267.747 43.4195 267.815 43.3738L267.754 43.4845C267.756 43.5897 267.987 43.5897 267.934 43.6852L267.877 43.6741C267.951 43.6935 268.025 43.8983 268.087 43.7876C268.133 43.9439 268.304 43.9979 268.318 44.1418C268.469 44.1363 268.415 44.3992 268.581 44.3175C268.419 44.4116 268.61 44.6289 268.738 44.6607C268.672 44.6663 268.738 44.7659 268.65 44.777C268.715 44.8683 268.802 44.9361 268.871 44.8655C268.802 45.163 269.257 45.1091 269.082 45.365L269.793 46.032C269.63 46.1233 269.59 45.765 269.433 45.884C269.659 46.0791 269.881 46.133 270 46.3946C270.018 46.4707 269.909 46.4029 269.868 46.4001C270.089 46.598 270.155 46.8733 270.38 47.0325L270.307 47.0131C270.339 47.0532 270.347 47.1266 270.417 47.0754L270.371 47.0477C270.432 46.9121 270.697 47.0754 270.757 47.0449C270.504 47.1072 270.843 47.2912 270.51 47.3452L270.64 47.3397L270.553 47.413C270.689 47.5403 270.731 47.4379 270.818 47.5749L270.702 47.5887C270.813 47.6164 270.927 47.6427 270.973 47.7755L270.906 47.7783C271.046 47.9707 271.306 48.0025 271.383 48.2654C271.189 48.2972 271.381 48.3706 271.257 48.466L271.373 48.5601L271.406 48.4716C271.47 48.5767 271.623 48.6072 271.638 48.7234L271.534 48.6833L271.684 48.859L271.663 48.7151C271.798 48.7774 271.82 48.5989 271.872 48.758C271.843 48.7386 271.937 48.8632 271.898 48.9656H271.897L272.065 49.1109L271.89 49.2188C272.033 49.1994 272.076 49.4402 272.233 49.4264L272.114 49.4831L272.23 49.4693L272.164 49.5772C272.24 49.7308 272.301 49.4264 272.339 49.6422L272.282 49.6284L272.618 50.1044C272.518 50.2372 272.494 49.9909 272.419 50.1155C272.595 50.3258 272.888 50.478 273.003 50.716L272.989 50.6648C273.192 50.5735 273.009 50.889 273.169 50.9402C273.138 50.9236 273.043 50.9748 273.068 50.9679C273.142 51.1353 273.314 51.246 273.533 51.4273L273.465 51.43L273.655 51.7815C273.72 51.776 273.752 51.8327 273.797 51.7538C273.745 52.2299 274.335 52.1911 274.305 52.6048L274.23 52.5882L274.431 52.7723L274.481 52.6159L274.665 52.6948C274.546 52.6381 274.54 52.7944 274.536 52.865L274.611 52.811C274.571 53.0241 274.778 52.7086 274.814 52.9245L274.768 52.9494L274.97 53.0601C274.906 53.1542 274.881 53.0352 274.806 53.0892C274.884 53.168 275.107 53.1141 275.088 53.2594L274.936 53.1805C274.907 53.3452 274.942 53.3341 274.977 53.4074L274.974 53.3991L275.052 53.5776L275.048 53.5181C275.355 53.4296 275.27 53.6939 275.529 53.7022C275.281 53.6911 275.434 53.7506 275.333 53.8267L275.317 53.9748C275.449 53.9692 275.351 54.145 275.548 54.1284C275.522 54.1602 275.618 54.1934 275.53 54.2529C275.638 54.3069 275.558 54.1823 275.604 54.156C275.83 54.1699 275.805 54.5532 276.125 54.5808C276.342 54.6653 276.456 54.5836 276.646 54.6597C276.66 54.7538 276.515 54.7414 276.515 54.7414C276.564 54.8576 276.628 54.9116 276.741 54.9309L276.707 55.0361C276.791 55.0679 276.841 54.942 276.905 55.0444L276.742 55.1385L277.089 55.1579L276.924 55.2423C277.045 55.2713 277.228 55.3308 277.309 55.2478L277.262 55.18C277.301 55.1938 277.235 55.2741 277.199 55.2769C277.067 55.3059 277.089 55.1745 277.106 55.1357L277.184 55.1496C277.237 54.9088 276.911 55.0472 276.784 54.9628L276.934 54.8465L276.724 54.895C276.727 54.8355 276.766 54.7497 276.835 54.7677C276.806 54.6376 276.732 54.7594 276.721 54.6265L276.743 54.6044L276.638 54.5795C276.674 54.5629 276.7 54.4715 276.729 54.531C276.659 54.3387 276.433 54.4466 276.467 54.3013L276.486 54.3041C276.264 54.1879 276.388 54.3885 276.15 54.3774L276.264 54.0606L276.161 54.1394L276.155 54.0509C276.025 54.0536 276.128 54.1021 276.032 54.127C276.019 53.9623 275.737 53.9429 275.861 53.7838C275.759 53.8212 275.894 53.9111 275.751 53.871C275.882 53.6925 275.623 53.7838 275.623 53.6302C275.726 53.579 275.752 53.7008 275.752 53.5458C275.569 53.6247 275.641 53.3535 275.552 53.3106C275.438 53.4047 275.373 53.1971 275.233 53.1127C275.276 53.085 275.099 52.8345 275.048 52.6906L275.07 52.6768C274.934 52.7529 274.853 52.6228 274.761 52.555L274.946 52.5177L274.882 52.436L274.736 52.3931L274.842 52.3419C274.754 52.2368 274.571 52.2008 274.526 52.0126C274.435 52.0693 274.374 52.3073 274.204 52.1939L274.369 52.1178L274.296 52.0583L274.418 52.061C274.404 51.9697 274.329 52.0749 274.297 52.0181L274.375 51.913L274.421 51.978L274.41 51.7511L274.279 51.7801C274.191 51.6722 274.33 51.6833 274.317 51.5933C274.251 51.6016 274.247 51.4965 274.146 51.5643L274.183 51.4619C274.096 51.4342 273.973 51.2017 273.914 51.3429L273.918 51.3622L273.907 51.3567C273.662 51.2405 273.681 50.9194 273.508 50.7562L273.542 50.7312C273.426 50.6427 273.346 50.4877 273.217 50.4559L273.277 50.3203C273.191 50.2497 273.146 50.2635 273.119 50.0989C273.237 50.1473 273.149 50.0338 273.223 50.1611C273.174 50.0255 273.212 49.9633 273.035 49.9038C273.152 49.8872 273.088 49.7446 273.025 49.7059L273.016 49.8277L272.904 49.6575L273.041 49.6118C273.024 49.2852 272.518 49.342 272.639 49.0057C272.517 48.9974 272.665 49.1731 272.533 49.1787C272.479 49.0597 272.571 48.8355 272.55 48.8037C272.518 48.6113 272.289 48.7718 272.232 48.5878C272.203 48.6335 272.104 48.7262 271.99 48.6307C271.933 48.5117 272.077 48.3844 272.154 48.4328L272.155 48.484C272.193 48.5117 272.241 48.5463 272.258 48.473L272.207 48.4868C272.215 48.4024 272.112 48.2571 272.203 48.2488C272.109 48.1893 272.112 48.2571 272.13 48.3332L271.936 47.9416L271.877 48.0094C271.793 47.7631 271.738 47.9665 271.627 47.8337C271.638 47.7091 271.798 47.7659 271.652 47.6552C271.637 47.5389 271.749 47.5666 271.806 47.5791C271.641 47.4974 271.698 47.2982 271.665 47.211L271.744 47.2594L271.652 47.1625L271.595 47.2539V47.1487C271.513 47.1404 271.478 47.2705 271.349 47.2359C271.356 47.1515 271.196 47.0975 271.294 47.0089C271.369 47.2041 271.392 46.9176 271.505 47.0518L271.44 46.9494L271.48 46.9467C271.472 46.717 271.306 46.9494 271.198 46.7792C271.274 46.7599 271.289 46.663 271.257 46.6436C271.301 46.7142 271.175 46.7433 271.087 46.7114C271.064 46.5703 270.975 46.6173 270.942 46.5551L270.963 46.6367C270.885 46.6561 270.859 46.5966 270.79 46.5315L270.872 46.5399C270.708 46.526 270.861 46.2756 270.713 46.205L270.821 46.0597C270.656 45.9781 270.813 45.8618 270.658 45.765C270.6 45.8591 270.626 45.8535 270.481 45.8078L270.688 45.9974L270.471 45.9324L270.631 46.0915C270.517 46.0666 270.543 46.0597 270.494 46.1372C270.557 45.9614 270.3 45.9988 270.314 45.8341L270.521 45.7041C270.508 45.4799 270.225 45.4827 270.134 45.2391L270.144 45.3305C270.044 45.3554 270.044 45.2087 269.966 45.163L270.057 45.0067C270.008 45.0468 269.958 44.8503 269.806 44.9222L269.834 44.7687C269.755 44.5735 269.509 44.7064 269.421 44.5279C269.528 44.5279 269.527 44.4199 269.654 44.4933C269.617 44.4393 269.597 44.3826 269.549 44.4116C269.572 44.3521 269.355 44.3245 269.387 44.2304C269.341 44.2276 269.264 44.2677 269.23 44.2027L269.262 44.1806C269.23 44.2027 269.152 44.1155 269.113 44.2207C269.21 43.9066 268.782 43.764 268.861 43.4942L268.547 43.1676L268.589 43.1704C268.544 42.9808 268.33 43.2161 268.28 43.003C268.326 42.8411 268.403 43.0486 268.405 42.9684C268.608 42.7871 268.229 42.7899 268.276 42.5879L268.308 42.6045C268.321 42.4661 268.075 42.4592 267.988 42.307L268.022 42.2848C267.84 42.271 267.672 42.1174 267.544 42.0094C267.659 41.9845 267.633 42.0371 267.701 41.9472C267.644 41.896 267.576 42.0662 267.464 41.9665C267.481 41.8932 267.459 41.7742 267.544 41.6967L267.631 41.8047C267.708 41.6594 267.52 41.6607 267.498 41.5888L267.555 41.557C267.412 41.3951 267.281 41.4919 267.145 41.3051L267.12 41.3535C266.914 41.3563 267.125 41.2152 266.952 41.1944L267.057 41.0616C266.972 41.0242 266.75 40.9343 266.632 40.8374C266.779 40.8291 266.939 40.926 267.064 40.9647C267.014 40.8997 266.878 40.7544 266.789 40.7724L266.881 40.8346C266.715 40.8374 266.582 40.7724 266.482 40.6451C266.747 40.4693 266.276 40.2618 266.393 40.0127C266.12 39.8619 266.07 39.5311 265.842 39.2807C265.729 39.5353 265.774 39.2073 265.592 39.3886L265.519 39.3014L265.473 39.0261C265.491 38.9347 265.565 39.0454 265.605 39.0012C265.503 38.86 265.635 38.8739 265.61 38.7466C265.558 38.8254 265.47 38.7867 265.431 38.6926L265.437 38.8711C265.173 38.7825 265.456 38.5764 265.189 38.485L265.302 38.4878C265.182 38.4283 264.989 38.1446 264.756 38.1931C264.761 38.1557 264.793 38.0879 264.845 38.1142C264.662 37.8706 264.234 37.771 264.169 37.5136L264.23 37.486C264.18 37.4569 264.08 37.4943 264.079 37.3988L264.123 37.3503L263.92 37.2369H264.013C263.87 36.967 263.569 37.0418 263.363 36.9048C263.494 36.7747 263.367 36.5727 263.305 36.4717L263.325 36.4578C263.093 36.206 262.797 36.1659 262.521 36.004C262.514 35.7231 262.094 35.4878 261.94 35.1875C261.954 35.247 261.84 35.2899 261.788 35.2664C261.756 35.1875 261.544 35.2346 261.663 35.1128L261.683 35.1322C261.748 34.9758 261.598 34.9136 261.509 34.8347L261.352 34.9883C261.314 34.551 260.64 34.5745 260.689 34.248L260.43 34.1829L260.507 34.0944C260.362 33.9408 260.29 33.8647 260.072 33.7263L260.163 33.6917C260.054 33.5948 259.815 33.8481 259.706 33.7733L259.781 33.6059C259.587 33.4468 259.467 33.1714 259.161 33.1714L259.253 33.134C259.156 33.0635 258.933 32.7826 258.832 33.0067C258.919 32.8739 258.622 32.8504 258.468 32.8338L258.553 32.7494C258.373 32.8089 258.347 32.8407 258.19 32.7867C258.166 32.7549 258.213 32.6926 258.24 32.7438C258.166 32.6248 258.095 32.784 258.001 32.647L258.09 32.6179C257.984 32.539 257.97 32.5805 257.865 32.6124C257.773 32.6068 257.674 32.4532 257.713 32.355C257.664 32.3979 257.562 32.4339 257.512 32.3661L257.578 32.3176C257.435 32.1336 257.236 32.2581 257.17 32.0796L257.184 32.0063C257.328 32.1004 257.442 32.182 257.428 32.182C257.482 32.0935 257.374 32.0008 257.545 31.9357C257.409 31.9413 257.157 31.9869 257.067 31.8707L257.072 31.8278L257.089 31.825L257.007 31.7932L256.928 31.7046C256.957 31.6202 256.808 31.5912 256.748 31.5566C256.694 31.659 256.623 31.6022 256.651 31.724L256.714 31.7351L256.746 31.7378L256.737 31.7461L256.894 31.8195C256.817 31.8416 256.74 31.8624 256.704 31.7711L256.522 31.8901C256.519 31.706 256.397 31.5469 256.425 31.4473C256.202 31.4071 255.953 31.2549 255.732 31.3905C255.664 31.3878 255.701 31.302 255.695 31.2604H255.803C255.67 31.2549 255.474 31.1165 255.377 31.2383C255.274 31.1082 255.518 31.1511 255.32 31.0792L255.366 31.0515C255.104 30.6433 254.598 31.0999 254.329 30.6115L254.354 30.6848C253.958 30.296 253.314 30.4011 252.924 30.0012C252.804 29.9099 252.753 29.9929 252.643 30.0331L252.658 29.903L252.465 29.9846C252.226 30.0095 252.22 29.5654 251.896 29.6581L251.901 29.7494C251.813 29.701 251.593 29.6871 251.641 29.6013C251.625 29.6124 251.582 29.6747 251.56 29.6179L251.58 29.5557L251.318 29.5778C251.16 29.4671 251.428 29.3426 251.175 29.2319C251.072 29.2208 250.846 29.3135 250.868 29.3702L250.936 29.5086H250.84C250.765 29.6871 250.64 29.8518 250.81 30.0566L250.99 29.9998L251.008 30.1078L250.885 30.0677C250.926 30.1784 250.994 30.1189 251.06 30.087L251.089 30.2088L251.292 30.087C251.283 30.1659 251.179 30.206 251.261 30.2821C251.354 30.2254 251.252 30.0953 251.381 30.0843C251.422 30.1922 251.378 30.2545 251.485 30.2143L251.411 30.2987C251.503 30.2697 251.613 30.3444 251.682 30.2641C251.719 30.3942 251.938 30.3292 251.867 30.4994L252.115 30.4288C251.916 30.5879 252.361 30.534 252.244 30.7429C252.405 30.5921 252.6 30.7831 252.798 30.7402L252.744 30.7623L252.875 30.9297C252.949 30.7844 253.103 30.8024 253.217 30.7374C253.265 30.9242 253.075 30.8882 253.053 31.0404C253.097 30.9159 253.295 30.992 253.302 30.8758C253.347 30.9975 253.356 30.9463 253.345 31.0861C253.439 30.9048 253.436 31.0833 253.556 30.9975C253.638 31.1359 253.51 31.1843 253.669 31.176C253.713 31.2535 253.567 31.2757 253.567 31.2757ZM256.743 32.51L256.74 32.5127L256.678 32.4809L256.743 32.51ZM256.983 32.6663L256.882 32.5958L256.947 32.5418L256.983 32.6663ZM256.875 31.6424L256.921 31.6991L256.84 31.6742L256.828 31.6853L256.875 31.6424Z" fill="#6A2403"/>
<path d="M256.723 31.7378H256.703L256.715 31.7724L256.749 31.7475L256.723 31.7378Z" fill="#6A2403"/>
<path d="M273.916 51.3439L273.915 51.3401L273.909 51.3565L273.916 51.3439Z" fill="#6A2403"/>
<path d="M260.082 35.1105L260.101 35.085L260.063 35.0906L260.082 35.1105Z" fill="#6A2403"/>
<path d="M274.543 52.8662L274.533 52.9006L274.543 52.8662Z" fill="#6A2403"/>
<path d="M274.982 53.4102L275.017 53.5126L274.982 53.4102Z" fill="#6A2403"/>
<path d="M275.294 53.8558L275.338 53.8281L275.294 53.8558Z" fill="#6A2403"/>
<path d="M270.31 47.0157L270.296 47.002L270.31 47.0157Z" fill="#6A2403"/>
<path d="M271.902 48.9668L271.812 48.9294L271.902 48.9668Z" fill="#6A2403"/>
<path d="M268.648 44.7792L268.651 44.7765L268.642 44.7644L268.648 44.7792Z" fill="#6A2403"/>
<path d="M271.751 48.8313L271.812 48.9282L271.751 48.8313Z" fill="#6A2403"/>
<path d="M277.124 55.3958L277.145 55.4122L277.157 55.3985L277.124 55.3958Z" fill="#6A2403"/>
<path d="M277.259 55.4042L277.191 55.3987L277.259 55.4042Z" fill="#6A2403"/>
<path d="M276.508 54.9695L276.478 54.9983L276.508 54.9695Z" fill="#6A2403"/>
<path d="M276.333 54.834L276.451 55.0208L276.478 54.9987C276.412 55.0264 276.415 54.8091 276.333 54.834Z" fill="#6A2403"/>
<path d="M276.002 53.8558L276.111 53.9942C276.118 53.943 276.13 53.8696 276.197 53.9125C276.126 53.6745 276.161 54.0149 276.002 53.8558Z" fill="#6A2403"/>
<path d="M275.677 53.4156C275.756 53.4723 275.726 53.3699 275.748 53.3561C275.679 53.3394 275.66 53.3339 275.677 53.4156Z" fill="#6A2403"/>
<path d="M273.291 50.2663L273.385 50.2151C273.331 50.1639 273.351 50.24 273.291 50.2663Z" fill="#6A2403"/>
<path d="M272.407 49.937L272.392 50.0311L272.493 50.0076L272.407 49.937Z" fill="#6A2403"/>
<path d="M272.793 49.148L272.824 49.166L272.727 49.083L272.793 49.148Z" fill="#6A2403"/>
<path d="M269.06 43.5564L268.966 43.6477C269.013 43.6754 269.141 43.6021 269.06 43.5564Z" fill="#6A2403"/>
<path d="M267.228 41.283C267.259 41.218 267.242 41.1294 267.159 41.1294L267.228 41.283Z" fill="#6A2403"/>
<path d="M261.352 34.7779L261.425 34.7807L261.316 34.7378L261.352 34.7779Z" fill="#6A2403"/>
<path d="M276.982 51.8341L277.019 51.74L276.92 51.805L276.982 51.8341Z" fill="#6A2403"/>
<path d="M276.956 51.4424C276.885 51.4479 276.779 51.477 276.722 51.5835C276.834 51.5379 276.81 51.5835 276.934 51.524L276.92 51.6375L277.007 51.6693C277.035 51.5559 276.996 51.4991 276.899 51.4991L276.956 51.4424Z" fill="#6A2403"/>
<path d="M275.018 47.9097L275.017 47.9388L275.018 47.9097Z" fill="#6A2403"/>
<path d="M274.116 45.5698L274.15 45.5863L274.116 45.5698Z" fill="#6A2403"/>
<path d="M274.082 45.1201L274.083 45.1478L274.082 45.1201Z" fill="#6A2403"/>
<path d="M275.019 47.9086L275.025 47.8335L275.019 47.9086Z" fill="#6A2403"/>
<path d="M276.393 51.1934L276.44 51.2045L276.408 51.1824L276.393 51.1934Z" fill="#6A2403"/>
<path d="M275.576 48.8645L275.584 48.8795L275.635 48.8741L275.576 48.8645Z" fill="#6A2403"/>
<path d="M275.951 49.6145L275.811 49.656L275.891 49.6588L275.951 49.6145Z" fill="#6A2403"/>
<path d="M276.585 50.7686L276.611 50.7769L276.585 50.7686Z" fill="#6A2403"/>
<path d="M275.34 48.3068L275.369 48.2847L275.34 48.3068Z" fill="#6A2403"/>
<path d="M261.12 30.4093L261.126 30.394L261.12 30.4093Z" fill="#6A2403"/>
<path d="M260.412 29.5099L260.426 29.5127L260.448 29.4587L260.412 29.5099Z" fill="#6A2403"/>
<path d="M270.753 37.7805C270.714 37.8995 270.589 37.721 270.56 37.8829C270.589 37.8511 270.75 37.9023 270.753 37.7805Z" fill="#6A2403"/>
<path d="M276.388 51.1671L276.364 51.1394L276.388 51.1671Z" fill="#6A2403"/>
<path d="M270.56 37.8831H270.558L270.557 37.8984L270.56 37.8831Z" fill="#6A2403"/>
<path d="M273.158 42.686L273.123 42.7186L273.158 42.686Z" fill="#6A2403"/>
<path d="M273.549 43.9906L273.548 43.9563L273.549 43.9906Z" fill="#6A2403"/>
<path d="M272.75 42.0909L272.738 42.0425L272.729 42.0563L272.75 42.0909Z" fill="#6A2403"/>
<path d="M272.464 41.4158L272.45 41.437L272.466 41.4569L272.464 41.4158Z" fill="#6A2403"/>
<path d="M263.091 31.3048L263.106 31.2107C263.079 31.2799 262.972 31.2564 263.091 31.3048Z" fill="#6A2403"/>
<path d="M276.436 51.156L276.387 51.1671L276.407 51.1851L276.436 51.156Z" fill="#6A2403"/>
<path d="M271.996 42.3857L271.966 42.2722L271.996 42.3857Z" fill="#6A2403"/>
<path d="M267.171 34.3364L267.142 34.3281L267.171 34.3364Z" fill="#6A2403"/>
<path d="M271.819 41.9638L271.858 41.8752H271.829L271.819 41.9638Z" fill="#6A2403"/>
<path d="M262.32 31.1027C262.415 31.1511 262.425 31.0086 262.48 30.9491C262.614 30.9712 262.489 31.0625 262.497 31.1442L262.75 31.0957L262.725 31.1469C262.853 31.0902 262.956 31.2521 263.11 31.176L263.104 31.2106L263.181 31.0432C263.227 31.0625 263.304 31.0086 263.278 31.0944L263.206 31.1262L263.271 31.1123C263.25 31.2452 263.185 31.1206 263.14 31.2009C263.25 31.2092 263.407 31.1691 263.459 31.2327C263.41 31.3462 263.277 31.1898 263.314 31.3296L263.231 31.2383C263.214 31.4458 263.172 31.1954 263.143 31.414C263.264 31.5109 263.331 31.4334 263.45 31.5302L263.559 31.3946C263.822 31.3836 263.553 31.7323 263.784 31.6617C263.866 31.6105 263.963 31.486 264.023 31.605L263.913 31.7046C264.04 31.7807 264.099 31.5745 264.19 31.7212L264.069 31.7323C264.101 31.8679 264.177 31.6977 264.248 31.7323L264.194 31.8402L264.669 32.0478L264.605 32.1391C264.81 32.2332 264.957 32.4601 265.074 32.658L265.202 32.6289L265.17 32.6912C265.207 32.7784 265.216 32.6428 265.271 32.6345L265.239 32.7286C265.406 32.7535 265.68 32.8531 265.727 33.0427L265.684 33.0454C265.747 33.1589 265.93 32.9693 265.949 33.1188H265.92C266.09 33.3236 266.378 33.4426 266.421 33.6917C266.555 33.6045 266.569 33.9103 266.733 33.7678C266.772 33.9407 266.712 33.9407 266.822 34.1275L267.05 34.1192L266.971 34.1981L267.127 34.1787L267.068 34.3033L267.139 34.3282L267.161 34.2369C267.275 34.2687 267.293 34.4527 267.252 34.4942L267.484 34.6077L267.37 34.6049C267.533 34.6326 267.296 34.7046 267.446 34.7295L267.52 34.6783C267.503 34.7696 267.584 34.8789 267.665 34.9398L267.595 34.9744L267.97 35.4144C267.954 35.3328 268.068 35.2608 268.113 35.301L268.036 35.3923C268.115 35.3785 268.033 35.3162 268.15 35.3217C268.184 35.3923 268.076 35.4463 268.019 35.438L268.107 35.4836L268.018 35.5293C268.098 35.5127 268.019 35.7299 268.151 35.6939L268.127 35.7189L268.436 36.0565C268.521 35.997 268.54 36.062 268.637 36.051L268.793 36.4315C268.896 36.4855 268.881 36.4066 268.959 36.4066C268.886 36.4661 268.982 36.5796 268.881 36.5574C268.999 36.6875 269.029 36.7221 269.225 36.8577L269.275 36.7788L269.257 36.895L269.242 36.8923C269.509 37.014 269.359 37.4984 269.641 37.5496L269.626 37.5468L269.827 37.663C269.856 37.7544 269.74 37.6492 269.724 37.7419C269.961 37.8581 269.869 38.0629 270.044 38.1723C269.873 38.4365 270.297 38.6067 270.234 38.8614L270.286 38.8212C270.365 38.8351 270.28 38.8918 270.286 38.9319L270.357 38.8641C270.621 39.1962 270.678 39.6722 270.827 40.0749C270.885 40.2202 271.168 40.0043 271.123 40.2479L270.989 40.2506C271.266 40.4665 271.291 40.8208 271.542 41.0449L271.463 41.0256C271.412 41.1224 271.553 41.2525 271.62 41.2234L271.544 41.3051C271.521 41.3867 271.709 41.4102 271.644 41.478L271.601 41.4642C271.655 41.4863 271.669 41.6538 271.745 41.5749C271.747 41.7022 271.873 41.7645 271.854 41.8724C271.982 41.8835 271.883 42.08 272.036 42.0343C271.883 42.091 271.995 42.2751 272.094 42.3124L271.998 42.3941C272.033 42.4702 272.09 42.5297 272.164 42.4826C272.041 42.704 272.43 42.7096 272.232 42.8881L272.681 43.4693C272.525 43.526 272.568 43.2451 272.414 43.3212C272.558 43.4914 272.736 43.5537 272.783 43.764C272.785 43.8235 272.704 43.7612 272.672 43.7557C272.818 43.9259 272.818 44.1418 272.977 44.2857L272.92 44.2635L273 44.3203L272.967 44.2954C273.046 44.1985 273.235 44.3493 273.289 44.3355C273.067 44.3549 273.31 44.5334 273.021 44.5361L273.132 44.5472L273.043 44.5929C273.131 44.7063 273.188 44.6302 273.231 44.7465L273.131 44.7437C273.219 44.7755 273.307 44.8087 273.319 44.9167L273.262 44.9111C273.338 45.073 273.549 45.1242 273.558 45.3304C273.389 45.3359 273.533 45.4121 273.412 45.4716L273.488 45.556L273.534 45.4937C273.566 45.5809 273.688 45.6182 273.676 45.7068L273.598 45.6639L273.685 45.8147L273.697 45.7068C273.797 45.7663 273.854 45.6334 273.863 45.7608C273.84 45.7414 273.894 45.8479 273.837 45.9199L273.948 46.05L273.78 46.115C273.902 46.1122 273.888 46.3018 274.022 46.3101L273.911 46.3392L274.011 46.3419L273.932 46.418C273.962 46.5426 274.076 46.3156 274.065 46.4858L274.02 46.4692L274.193 46.8691C274.082 46.9577 274.116 46.7667 274.027 46.8553C274.125 47.0338 274.333 47.1819 274.375 47.377V47.3396C274.563 47.2912 274.346 47.5098 274.472 47.5666L274.385 47.5749C274.414 47.7105 274.546 47.8073 274.689 47.9665L274.633 47.9637L274.715 48.2529C274.772 48.2557 274.786 48.3041 274.838 48.2446C274.696 48.6071 275.191 48.6362 275.081 48.9531L275.023 48.9309L275.148 49.0928L275.224 48.9794L275.359 49.0582C275.271 49.0015 275.238 49.1205 275.214 49.1772L275.288 49.1426C275.199 49.3073 275.445 49.0804 275.417 49.2561L275.376 49.27L275.503 49.3834C275.427 49.4512 275.44 49.3544 275.367 49.3862C275.406 49.4595 275.598 49.4429 275.544 49.5564L275.445 49.4748C275.378 49.6021 275.409 49.5965 275.417 49.6588L275.416 49.6505L275.431 49.8013L275.444 49.7557C275.715 49.7211 275.559 49.9259 275.788 49.9535C275.569 49.9259 275.697 49.9812 275.592 50.0296L275.556 50.1348C275.674 50.1431 275.566 50.2621 275.734 50.2676C275.706 50.2925 275.774 50.3271 275.691 50.3617C275.769 50.4185 275.73 50.3133 275.773 50.2939C275.955 50.3313 275.847 50.6288 276.098 50.6828L276.503 50.799C276.492 50.8751 276.379 50.8474 276.379 50.8474L276.514 51.0259L276.457 51.1076C276.503 51.1505 276.578 51.0536 276.59 51.1532L276.446 51.2017L276.679 51.2888L276.538 51.3234C276.611 51.3719 276.717 51.4618 276.8 51.4106L276.792 51.3428L276.715 51.4106C276.615 51.4079 276.674 51.3027 276.696 51.275L276.745 51.3027C276.859 51.1131 276.59 51.1574 276.528 51.0619L276.67 50.9941L276.51 50.9913C276.524 50.9457 276.578 50.8779 276.626 50.9042C276.638 50.7962 276.544 50.8848 276.568 50.7796L276.59 50.7658L276.51 50.7367C276.543 50.7284 276.586 50.6579 276.597 50.7077C276.583 50.5513 276.378 50.6136 276.437 50.5029L276.451 50.5084C276.301 50.3922 276.354 50.5596 276.162 50.5278L276.326 50.2953L276.226 50.3437L276.243 50.2732C276.137 50.2593 276.211 50.3105 276.128 50.3188C276.154 50.1888 275.93 50.1431 276.066 50.0324C275.975 50.0518 276.066 50.1376 275.955 50.0919C276.1 49.9674 275.858 50.0186 275.882 49.9079C275.982 49.8788 275.984 49.9646 276.009 49.8567C275.829 49.9051 275.952 49.7058 275.898 49.656C275.78 49.7183 275.784 49.5426 275.695 49.4581C275.737 49.4415 275.663 49.2201 275.661 49.0984L275.683 49.0928C275.555 49.133 275.528 49.0195 275.469 48.9572L275.626 48.9489L275.594 48.8756L275.483 48.8299L275.58 48.8022C275.531 48.7109 275.384 48.6666 275.388 48.5158C275.301 48.5504 275.199 48.7261 275.082 48.6265L275.237 48.5808L275.188 48.5296L275.288 48.5435C275.296 48.4729 275.212 48.5463 275.199 48.4978L275.284 48.4245L275.309 48.4812L275.348 48.3027L275.235 48.3138C275.187 48.2225 275.298 48.2432 275.306 48.1754C275.25 48.1726 275.27 48.091 275.17 48.1353L275.223 48.0592C275.156 48.0301 275.105 47.8405 275.025 47.9402L275.024 47.9568L275.016 47.9512C274.843 47.835 274.917 47.5942 274.8 47.4572L274.832 47.4434L274.613 47.2026L274.692 47.1058C274.638 47.0407 274.597 47.049 274.61 46.919C274.697 46.9702 274.65 46.8733 274.683 46.9785C274.672 46.8705 274.718 46.8276 274.586 46.7598C274.685 46.7598 274.665 46.6436 274.621 46.609L274.586 46.7003L274.533 46.5564L274.656 46.5343C274.714 46.2824 274.282 46.2727 274.451 46.0292C274.354 46.0098 274.439 46.1593 274.329 46.151C274.307 46.0541 274.432 45.8936 274.421 45.8645C274.435 45.7165 274.211 45.8133 274.201 45.6667C274.169 45.6985 274.066 45.758 273.991 45.675C273.97 45.5781 274.115 45.4965 274.171 45.5394L274.161 45.5795C274.186 45.6044 274.219 45.6362 274.248 45.5823L274.204 45.5878C274.228 45.5255 274.173 45.401 274.251 45.4037C274.186 45.3525 274.172 45.401 274.172 45.4605L274.093 45.1422L274.03 45.1879C274.011 44.99 273.925 45.1422 273.859 45.0288C273.894 44.9374 274.014 44.9942 273.916 44.8931C273.927 44.8046 274.016 44.8364 274.061 44.853C273.94 44.7741 274.032 44.6288 274.02 44.561L274.076 44.6039L274.022 44.5195L273.954 44.5846L273.977 44.5029C273.911 44.4891 273.854 44.5846 273.754 44.5403C273.779 44.4808 273.656 44.4213 273.756 44.3645C273.777 44.5181 273.859 44.305 273.923 44.4185L273.893 44.3313L273.925 44.3341C273.968 44.1611 273.78 44.3203 273.726 44.1777L273.805 44.0836C273.827 44.1404 273.716 44.1515 273.651 44.1155C273.659 44.0075 273.573 44.0311 273.56 43.9826V44.0449L273.437 43.948L273.505 43.9619C273.369 43.9342 273.547 43.7612 273.434 43.692L273.556 43.5924C273.433 43.5135 273.588 43.4416 273.476 43.3516C273.409 43.4167 273.431 43.4167 273.32 43.3682L273.456 43.5329L273.288 43.4596L273.389 43.5979L273.266 43.6201C273.353 43.4928 273.13 43.4928 273.174 43.371L273.376 43.2921C273.408 43.1219 273.173 43.0943 273.149 42.8978L273.138 42.9683C273.05 42.9794 273.082 42.8659 273.025 42.823L273.134 42.7123C273.086 42.7373 273.085 42.5823 272.946 42.6238L272.999 42.5076C272.975 42.3512 272.742 42.4259 272.707 42.2806C272.796 42.2917 272.818 42.21 272.909 42.2778L272.838 42.2045C272.867 42.1616 272.696 42.1173 272.74 42.0509L272.615 42.0136L272.647 41.9997C272.615 42.0135 272.569 41.9402 272.515 42.0163C272.663 41.7866 272.336 41.633 272.461 41.4324L272.283 41.1459L272.315 41.1515C272.325 41.0006 272.095 41.1598 272.104 40.9896C272.18 40.8678 272.193 41.038 272.215 40.9757C272.419 40.8567 272.116 40.8194 272.196 40.6672L272.221 40.6838C272.255 40.5786 272.047 40.5482 272.002 40.4264L272.034 40.4125C271.884 40.3849 271.77 40.2562 271.68 40.1607C271.783 40.1552 271.751 40.1898 271.824 40.1289C271.788 40.086 271.697 40.2078 271.622 40.1206L271.738 39.9227L271.792 40.014C271.884 39.9089 271.724 39.895 271.719 39.8355L271.773 39.8162C271.681 39.6805 271.551 39.7428 271.48 39.5864L271.451 39.621C271.28 39.6044 271.483 39.5159 271.345 39.4799L271.46 39.3913L271.157 39.1755L271.485 39.3166C271.456 39.2599 271.377 39.1353 271.299 39.1381L271.36 39.1976L271.074 39.0136C271.331 38.9001 270.986 38.6967 271.132 38.514C270.939 38.3701 270.967 38.1086 270.832 37.89C270.688 38.0795 270.792 37.8277 270.606 37.955L270.571 37.8761L270.6 37.6492C270.635 37.5786 270.668 37.6741 270.708 37.6437C270.663 37.5191 270.763 37.5496 270.774 37.4416C270.714 37.4984 270.654 37.461 270.646 37.3794L270.607 37.5247C270.421 37.425 270.693 37.2866 270.505 37.187L270.593 37.2009C270.521 37.1358 270.389 36.9172 270.187 36.9366L270.275 36.8826C270.159 36.6847 269.813 36.5851 269.799 36.3831L269.855 36.3665L269.74 36.2931L269.785 36.2585L269.633 36.1589L269.712 36.1644C269.637 35.9458 269.387 35.9776 269.246 35.8531C269.375 35.759 269.313 35.5888 269.282 35.5044L269.302 35.4933C269.161 35.2747 268.932 35.2235 268.742 35.0713C268.789 34.8443 268.498 34.6285 268.428 34.3738L268.293 34.4278C268.283 34.36 268.116 34.3766 268.232 34.2867L268.243 34.306C268.326 34.176 268.226 34.1082 268.176 34.0362L268.025 34.1524C268.108 33.7636 267.499 33.8093 267.596 33.5422L267.389 33.491L267.464 33.4204C267.364 33.2987 267.313 33.2364 267.147 33.1285L267.23 33.1008C267.149 33.0219 266.918 33.2253 266.839 33.1631L266.924 33.033C266.776 32.9085 266.719 32.6815 266.483 32.6621L266.562 32.6331C266.497 32.5708 266.364 32.3273 266.252 32.5085C266.34 32.4034 266.111 32.3702 265.994 32.3494L266.07 32.2816C265.923 32.3245 265.898 32.3522 265.784 32.301C265.77 32.2733 265.815 32.2221 265.828 32.2664C265.788 32.164 265.712 32.2941 265.658 32.1778L265.731 32.1529C265.66 32.0851 265.645 32.1183 265.559 32.1419C265.487 32.1336 265.434 32.0007 265.477 31.9177C265.434 31.9523 265.348 31.9772 265.321 31.9205L265.378 31.8831C265.293 31.7212 265.122 31.8181 265.096 31.6645L265.118 31.605C265.216 31.6921 265.292 31.7641 265.292 31.7641C265.335 31.688 265.264 31.605 265.406 31.5565C265.298 31.5565 265.099 31.5856 265.045 31.486L265.053 31.4486H265.07L265.01 31.4195L264.961 31.3407C264.996 31.2673 264.892 31.2272 264.854 31.1871C264.8 31.2756 264.757 31.2189 264.758 31.331L264.801 31.3476L264.826 31.3531L264.818 31.3586L264.921 31.4375C264.858 31.4541 264.801 31.4624 264.79 31.378L264.642 31.4666C264.675 31.2881 264.579 31.1829 264.614 31.0957C264.437 31.0708 264.25 30.9601 264.059 31.0791L264.041 30.9767L264.129 30.9712C264.022 30.974 263.876 30.8688 263.787 30.9767C263.716 30.8743 263.909 30.8979 263.756 30.8467L263.795 30.8218C263.619 30.498 263.174 30.9006 262.997 30.5104L263.013 30.5699C262.712 30.289 262.237 30.3208 261.97 29.9804C261.887 29.896 261.841 29.9694 261.755 30.0026L261.777 29.8891L261.625 29.9569C261.446 29.9735 261.474 29.5861 261.222 29.6594L261.22 29.741C261.159 29.6954 260.993 29.6788 261.033 29.6054C261.022 29.6137 260.986 29.6677 260.974 29.6193L260.99 29.5625L260.794 29.5791C260.68 29.4795 260.889 29.3743 260.707 29.2733C260.629 29.2595 260.457 29.3384 260.471 29.3868L260.514 29.5086H260.44C260.375 29.6622 260.276 29.8033 260.386 29.9901L260.525 29.9417L260.53 30.0358L260.443 29.9984C260.468 30.0953 260.521 30.0468 260.572 30.0206L260.586 30.1257L260.742 30.0233C260.732 30.0911 260.651 30.123 260.708 30.1908C260.782 30.1451 260.712 30.0316 260.808 30.0233C260.832 30.1174 260.794 30.1686 260.876 30.1368L260.817 30.2101C260.887 30.1852 260.963 30.253 261.021 30.1825C261.039 30.2959 261.206 30.2447 261.142 30.39L261.329 30.3361C261.171 30.4717 261.505 30.4302 261.403 30.6087C261.534 30.4814 261.664 30.6516 261.816 30.6197L261.776 30.6363L261.858 30.7844C261.926 30.6571 262.04 30.6765 262.131 30.6253C262.151 30.7872 262.012 30.7526 261.981 30.8854C262.026 30.7775 262.168 30.8453 262.181 30.747C262.206 30.8522 262.216 30.8093 262.195 30.9311C262.284 30.7747 262.266 30.9283 262.364 30.855C262.412 30.9767 262.312 31.0141 262.432 31.0113L262.32 31.1027ZM264.692 32.0215L264.69 32.0242L264.647 31.9952L264.692 32.0215ZM264.856 32.1585L264.787 32.0962L264.846 32.0533L264.856 32.1585ZM264.914 31.2798L264.939 31.3337L264.885 31.3047L264.874 31.313L264.914 31.2798Z" fill="#6A2403"/>
<path d="M264.789 31.3504L264.775 31.3447L264.778 31.3816L264.805 31.3617L264.789 31.3504Z" fill="#6A2403"/>
<path d="M275.017 47.9442V47.9402L275.007 47.9549L275.017 47.9442Z" fill="#6A2403"/>
<path d="M266.955 34.2189L266.974 34.1995L266.945 34.205L266.955 34.2189Z" fill="#6A2403"/>
<path d="M275.21 49.1799L275.194 49.2076L275.21 49.1799Z" fill="#6A2403"/>
<path d="M275.412 49.6616L275.41 49.746L275.412 49.6616Z" fill="#6A2403"/>
<path d="M275.544 50.0449L275.587 50.0311V50.0283L275.544 50.0449Z" fill="#6A2403"/>
<path d="M272.921 44.2662L272.913 44.2524L272.921 44.2662Z" fill="#6A2403"/>
<path d="M273.835 45.9236L273.769 45.8867L273.835 45.9236Z" fill="#6A2403"/>
<path d="M271.998 42.3961H272.001L271.996 42.3857L271.998 42.3961Z" fill="#6A2403"/>
<path d="M273.738 45.8049L273.768 45.8855L273.738 45.8049Z" fill="#6A2403"/>
<path d="M276.615 51.4937L276.625 51.5123L276.638 51.5016L276.615 51.4937Z" fill="#6A2403"/>
<path d="M276.639 51.502L276.66 51.5099L276.639 51.502Z" fill="#6A2403"/>
<path d="M276.709 51.5282L276.661 51.5088L276.709 51.5282Z" fill="#6A2403"/>
<path d="M276.311 51.0286L276.281 51.0478L276.311 51.0286Z" fill="#6A2403"/>
<path d="M276.2 50.9041L276.253 51.0632L276.281 51.0466C276.219 51.0632 276.271 50.893 276.2 50.9041Z" fill="#6A2403"/>
<path d="M276.155 50.1044L276.211 50.2234C276.23 50.1833 276.255 50.1321 276.298 50.1722C276.298 49.9771 276.248 50.2483 276.155 50.1044Z" fill="#6A2403"/>
<path d="M275.959 49.7549C276.012 49.8054 276.007 49.7276 276.029 49.7207C275.98 49.6961 275.968 49.6907 275.959 49.7549Z" fill="#6A2403"/>
<path d="M274.706 47.0698L274.793 47.0407C274.763 46.9937 274.763 47.0532 274.706 47.0698Z" fill="#6A2403"/>
<path d="M274.05 46.7183L274.015 46.7888L274.104 46.7805L274.05 46.7183Z" fill="#6A2403"/>
<path d="M274.541 46.153L274.562 46.1708L274.497 46.0984L274.541 46.153Z" fill="#6A2403"/>
<path d="M272.599 41.4988L272.5 41.561C272.533 41.5887 272.654 41.5417 272.599 41.4988Z" fill="#6A2403"/>
<path d="M271.534 39.5821C271.574 39.5365 271.579 39.4631 271.509 39.4548L271.534 39.5821Z" fill="#6A2403"/>
<path d="M268.055 33.972L268.11 33.983L268.037 33.9365L268.055 33.972Z" fill="#6A2403"/>
<path fill-rule="evenodd" clip-rule="evenodd" d="M81.3246 180.529L3.2439 182.114C3.2439 191.46 10.2044 197.293 21.6973 201.147C34.3592 205.395 71.8456 205.99 89.2052 205.343V188.37C89.2052 184.039 85.6763 180.529 81.3246 180.529Z" fill="#BC0003"/>
<path fill-rule="evenodd" clip-rule="evenodd" d="M300.578 8.6167C300.584 8.7357 300.784 8.88653 300.776 9.00553C300.769 9.10516 300.519 9.2297 300.524 9.32656C300.53 9.4594 300.724 9.58671 300.723 9.71817C300.72 9.82887 300.478 9.92573 300.47 10.0364C300.459 10.1554 300.673 10.3063 300.669 10.428C300.661 10.547 300.424 10.6301 300.416 10.7463C300.406 10.8653 300.622 11.0189 300.615 11.1379C300.604 11.2569 300.37 11.3399 300.362 11.4589C300.353 11.5406 300.58 11.7772 300.56 11.8478C300.549 11.8851 300.328 12.1716 300.307 12.1688C300.231 12.155 300.182 11.8118 300.109 11.7772C300.102 11.6554 299.902 11.5046 299.91 11.3856C299.918 11.2666 300.153 11.1849 300.163 11.0673C300.171 10.9483 299.956 10.7947 299.964 10.6757C299.972 10.5567 300.207 10.4751 300.217 10.3575C300.225 10.2385 300.01 10.0849 300.018 9.96586C300.027 9.84686 300.26 9.76383 300.271 9.6476C300.28 9.52859 300.064 9.375 300.073 9.25599C300.081 9.13699 300.301 9.0512 300.326 8.93496L300.578 8.6167Z" fill="#BC0003"/>
<path fill-rule="evenodd" clip-rule="evenodd" d="M300.54 39.2584C300.542 39.3801 300.743 39.5365 300.733 39.6555C300.719 39.7745 300.483 39.8506 300.471 39.9696C300.458 40.0886 300.67 40.2478 300.659 40.3668C300.647 40.4802 300.428 40.5674 300.398 40.6809C300.369 40.7916 300.149 40.8787 300.137 40.9922C300.125 41.0918 300.346 41.298 300.324 41.3893C300.295 41.525 300.107 41.5762 300.064 41.7035C300.043 41.7228 299.806 42.0217 299.803 42.0176C299.777 41.9691 299.608 41.6799 299.614 41.6232C299.622 41.5471 299.885 41.3741 299.875 41.3063L299.688 40.912C299.66 40.8552 299.493 40.5798 299.5 40.5148C299.506 40.4498 299.722 40.2505 299.761 40.2007C299.796 40.1523 300.014 39.9544 300.021 39.8866C300.025 39.8437 299.818 39.513 299.832 39.4922C299.86 39.4493 300.055 39.1712 300.088 39.1753C300.153 39.1892 300.221 39.5808 300.281 39.5725C300.371 39.5614 300.451 39.2888 300.54 39.2584Z" fill="#BC0003"/>
<path fill-rule="evenodd" clip-rule="evenodd" d="M299.921 43.1234L300.442 42.4966L300.819 43.2909C300.82 43.4099 301.018 43.569 301.007 43.688C300.995 43.7876 300.744 43.9039 300.745 44.0021C300.745 44.0699 300.951 44.3425 300.933 44.3965L300.672 44.7106C300.644 44.7452 300.41 44.9804 300.41 45.0247C300.41 45.1119 300.565 45.3513 300.598 45.4218L300.787 45.819L300.976 46.2161C300.984 46.2839 300.722 46.4569 300.715 46.5302C300.702 46.6465 300.897 46.8084 300.902 46.9274C300.908 47.0464 301.102 47.2083 301.09 47.3245C301.08 47.4241 300.829 47.5404 300.829 47.6386C300.831 47.7092 301.037 47.9818 301.018 48.0357L300.758 48.3499L300.496 48.664L300.12 47.8669C300.117 47.7452 299.921 47.5888 299.932 47.4698C299.943 47.3702 300.195 47.2539 300.193 47.1584C300.191 47.0256 299.999 46.8914 300.007 46.7613C300.011 46.6478 300.255 46.5593 300.267 46.4472C300.278 46.3282 300.077 46.1718 300.078 46.0501C300.079 45.9255 299.878 45.7719 299.889 45.6529C299.903 45.5339 300.138 45.4578 300.15 45.3388C300.163 45.2198 299.95 45.0607 299.963 44.9444C299.97 44.8683 300.232 44.6954 300.224 44.6276L300.036 44.2304L299.846 43.8361L299.658 43.4389C299.651 43.3753 299.911 43.1912 299.921 43.1234Z" fill="#BC0003"/>
<path fill-rule="evenodd" clip-rule="evenodd" d="M300.093 50.3934L300.353 50.0793C300.385 50.0447 300.582 49.7555 300.614 49.768C300.696 49.7956 300.726 50.1167 300.802 50.1651L300.991 50.5622C301.015 50.6107 301.188 50.9109 301.18 50.9621C301.158 51.0894 300.955 51.1517 300.919 51.2735C300.847 51.2361 300.805 50.8902 300.731 50.8764C300.684 50.8653 300.509 51.2195 300.47 51.1877C300.403 51.131 300.327 50.8874 300.282 50.7906L300.093 50.3934Z" fill="#BC0003"/>
<path fill-rule="evenodd" clip-rule="evenodd" d="M299.687 52.1233L300.209 51.502L300.585 52.299L300.773 52.6961C300.802 52.7639 300.961 53.013 300.961 53.0933C300.959 53.1417 300.73 53.3714 300.699 53.4074C300.665 53.4475 300.445 53.6565 300.438 53.7187C300.435 53.7436 300.612 54.1159 300.626 54.1159C300.64 54.1214 300.887 53.8239 300.887 53.8045C300.884 53.9291 301.088 54.0827 301.075 54.2044C301.068 54.2722 300.849 54.4659 300.812 54.5158C300.783 54.5531 300.551 54.7759 300.549 54.8271C300.548 54.9323 300.296 55.0319 300.287 55.1385C300.278 55.2256 300.449 55.4526 300.471 55.5384L300.656 55.9355L300.841 56.3354C300.849 56.4087 300.585 56.5651 300.578 56.6467C300.567 56.7464 300.784 56.9526 300.763 57.0439C300.747 57.1145 300.494 57.293 300.501 57.3552L300.685 57.7551L300.87 58.155C300.898 58.2145 301.061 58.4816 301.055 58.5549C301.05 58.6089 300.824 58.8248 300.792 58.8635L300.53 59.1749C300.506 59.2371 300.723 59.4987 300.715 59.5748C300.701 59.6882 300.484 59.7768 300.452 59.8861C300.427 59.965 300.645 60.1975 300.637 60.286C300.628 60.3538 300.409 60.5475 300.374 60.5974L300.111 60.9087C300.182 60.9461 300.22 61.292 300.296 61.3058C300.359 61.3197 300.501 60.9654 300.559 60.9945C300.612 61.0236 300.708 61.3211 300.744 61.3944C300.769 61.4484 300.934 61.732 300.927 61.7943C300.916 61.8939 300.663 62.0074 300.666 62.1057C300.666 62.197 300.869 62.4225 300.849 62.5056C300.817 62.6384 300.63 62.6868 300.587 62.8141L300.402 62.417C300.373 62.352 300.264 62.0337 300.218 62.0171C300.205 62.0116 299.957 62.3063 299.956 62.3284C299.945 62.4253 300.161 62.6343 300.141 62.7256C300.109 62.8612 299.921 62.9096 299.878 63.0369L300.063 63.4368C300.05 63.4147 299.824 63.7537 299.8 63.7482C299.757 63.7371 299.644 63.405 299.615 63.3483L299.43 62.9484L299.245 62.5485C299.208 62.464 299.069 62.2537 299.061 62.1513C299.055 62.0669 299.315 61.9299 299.323 61.84C299.332 61.7639 299.116 61.5023 299.138 61.4428L299.401 61.1315C299.433 61.0941 299.662 60.8713 299.664 60.8201C299.667 60.744 299.51 60.4825 299.479 60.4202L299.294 60.0203C299.265 59.9553 299.108 59.7035 299.111 59.6232C299.112 59.5748 299.343 59.3478 299.372 59.3119C299.404 59.2745 299.604 58.9908 299.635 59.0005C299.651 59.006 299.822 59.3755 299.82 59.4004C299.839 59.2786 300.07 59.2081 300.082 59.0891C300.092 59.0019 299.92 58.775 299.897 58.6892L299.713 58.292L299.528 57.8921C299.521 57.816 299.783 57.6624 299.79 57.5808C299.801 57.4811 299.585 57.275 299.604 57.1836C299.622 57.1158 299.877 56.929 299.868 56.8723L299.683 56.4724C299.661 56.424 299.49 56.1292 299.5 56.0753C299.51 56.0047 299.724 55.811 299.761 55.7639C299.79 55.7293 300.024 55.4968 300.024 55.4498C300.027 55.3654 299.872 55.1232 299.84 55.0527C299.817 55.0042 299.646 54.704 299.656 54.6555C299.676 54.5365 299.907 54.4632 299.917 54.3414C299.931 54.2224 299.721 54.0633 299.732 53.9443C299.742 53.8557 299.997 53.7173 299.993 53.6329C299.985 53.5305 299.845 53.3188 299.806 53.233L299.617 52.8359C299.614 52.7141 299.416 52.555 299.426 52.4388C299.44 52.3184 299.661 52.2395 299.687 52.1233Z" fill="#BC0003"/>
<path fill-rule="evenodd" clip-rule="evenodd" d="M299.71 64.4497L299.895 64.8496L300.079 65.2495C300.099 65.3366 300.273 65.5636 300.262 65.6494C300.256 65.7144 299.991 65.904 300 65.958L300.185 66.3606C300.218 66.4312 300.369 66.672 300.369 66.7578C300.37 66.8007 300.135 67.0359 300.107 67.0691C300.077 67.1065 299.846 67.3293 299.845 67.3805C299.838 67.5022 300.043 67.6586 300.028 67.7804C300.016 67.8966 299.778 67.9699 299.765 68.0889C299.757 68.1567 299.922 68.4266 299.947 68.4888C299.961 68.5262 300.139 68.8638 300.129 68.8888C300.116 68.9233 299.886 69.2029 299.865 69.1973C299.801 69.1863 299.743 68.7919 299.682 68.7974C299.593 68.8085 299.505 69.0783 299.418 69.1088L299.236 68.7089L299.054 68.309C299.025 68.2467 298.867 67.9852 298.872 67.9091C298.874 67.8579 299.104 67.6365 299.136 67.6005L299.398 67.2891C299.442 67.2379 299.646 67.0594 299.661 66.9806C299.669 66.9349 299.496 66.6263 299.476 66.5806L299.291 66.1807L299.107 65.7808C299.098 65.713 299.362 65.5456 299.369 65.4695C299.382 65.3533 299.186 65.1914 299.184 65.0724C299.184 64.9534 298.983 64.7831 299 64.6724C299.002 64.6475 299.247 64.3583 299.262 64.3611C299.325 64.3749 299.385 64.7693 299.447 64.761C299.535 64.7499 299.619 64.4801 299.71 64.4497Z" fill="#BC0003"/>
<path fill-rule="evenodd" clip-rule="evenodd" d="M298.619 70.0331L299.148 69.4146L299.33 69.8145C299.358 69.8768 299.469 70.2006 299.512 70.2144C299.547 70.2255 299.744 69.9446 299.778 69.9058L300.04 69.5945C300.088 69.5433 300.252 69.2887 300.306 69.2859C300.317 69.2859 300.491 69.6637 300.488 69.6858C300.474 69.8048 300.252 69.8809 300.223 69.9944C300.225 70.1189 300.42 70.278 300.406 70.3943C300.396 70.4704 300.132 70.6378 300.142 70.7056L300.324 71.1055C300.341 71.1401 300.516 71.4736 300.506 71.5054C300.495 71.5373 300.261 71.8195 300.241 71.814C300.167 71.8002 300.131 71.4542 300.059 71.4141C299.979 71.4224 299.868 71.7379 299.796 71.7227C299.719 71.7089 299.685 71.3629 299.612 71.3228C299.54 71.2854 299.505 70.9395 299.43 70.9229C299.393 70.9173 299.191 71.2633 299.166 71.2342L298.984 70.8343L298.802 70.4344L298.619 70.0331Z" fill="#BC0003"/>
<path fill-rule="evenodd" clip-rule="evenodd" d="M299.71 72.4339C299.621 72.463 299.533 72.7342 299.446 72.7425C299.383 72.7508 299.325 72.3564 299.264 72.3426C299.208 72.3315 299.048 72.6858 298.999 72.6539C298.915 72.5944 298.897 72.3246 298.817 72.254L299.347 71.6355C299.418 71.6729 299.453 72.0216 299.529 72.0354C299.561 72.0409 299.776 71.7005 299.795 71.7241C299.82 71.7614 299.982 72.0783 299.977 72.1267C299.96 72.2416 299.738 72.3177 299.71 72.4339Z" fill="#BC0003"/>
<path fill-rule="evenodd" clip-rule="evenodd" d="M298.469 73.2684C298.545 73.2601 298.659 72.9446 298.731 72.9599C298.808 72.9737 298.84 73.3432 298.913 73.3598C298.988 73.3764 299.105 73.036 299.179 73.0484C299.247 73.065 299.293 73.4511 299.361 73.4511C299.439 73.4483 299.55 73.1245 299.625 73.1397C299.672 73.1508 299.764 73.559 299.807 73.5424C299.883 73.5106 300.007 73.3072 300.071 73.2311C300.093 73.2062 300.324 72.91 300.335 72.9225C300.359 72.9446 300.521 73.285 300.519 73.3224C300.51 73.3874 300.291 73.5825 300.253 73.631L299.989 73.9396C299.911 73.9506 299.797 74.2634 299.725 74.2509C299.674 74.2398 299.592 73.8344 299.543 73.8482C299.472 73.8704 299.337 74.089 299.277 74.1596C299.248 74.1942 299.045 74.4806 299.013 74.4681C298.949 74.4432 298.884 74.136 298.831 74.0682L298.651 73.6683L298.469 73.2684Z" fill="#BC0003"/>
<path fill-rule="evenodd" clip-rule="evenodd" d="M299.642 74.9607L300.007 75.7605C299.971 75.885 299.765 75.9445 299.743 76.0718C299.733 76.1203 299.903 76.4233 299.925 76.4718C299.95 76.5257 300.116 76.8094 300.107 76.8717C300.099 76.9367 299.879 77.136 299.842 77.183L299.579 77.4888C299.554 77.5511 299.769 77.8181 299.761 77.8915C299.751 77.9648 299.487 78.1295 299.496 78.2001L299.678 78.6L299.86 78.9999L300.042 79.3998C300.074 79.4703 300.227 79.718 300.224 79.7997C300.224 79.8191 299.972 80.1138 299.96 80.111C299.945 80.1055 299.779 79.7084 299.779 79.7084C299.739 79.7845 299.523 79.9298 299.514 80.0197C299.503 80.1069 299.676 80.3366 299.696 80.4196L299.878 80.8195C299.903 80.8735 300.067 81.1627 300.059 81.2194C300.049 81.2844 299.831 81.4837 299.794 81.528L299.529 81.8366L299.71 82.2365C299.696 82.2143 299.472 82.5533 299.446 82.5478C299.389 82.534 299.307 82.2046 299.264 82.1451L299.082 81.7452L298.901 81.3453C298.877 81.2803 298.712 81.0188 298.72 80.9454C298.728 80.8693 298.994 80.7019 298.986 80.6368L298.804 80.2369C298.774 80.1747 298.616 79.9076 298.621 79.837C298.63 79.7236 298.873 79.6392 298.886 79.5257C298.894 79.4524 298.681 79.1853 298.702 79.1258L298.968 78.8172C298.997 78.7826 299.23 78.5571 299.232 78.5086C299.236 78.4298 299.08 78.1738 299.048 78.1087L298.867 77.7061C298.831 77.6272 298.688 77.403 298.685 77.3089C298.684 77.2716 298.924 77.028 298.949 76.9976C298.979 76.963 299.211 76.7402 299.214 76.689C299.219 76.5949 299.009 76.3749 299.031 76.2891C299.061 76.1756 299.283 76.0968 299.296 75.9805C299.308 75.8809 299.093 75.6719 299.113 75.5806C299.145 75.445 299.334 75.3966 299.379 75.2693L299.642 74.9607Z" fill="#BC0003"/>
<path fill-rule="evenodd" clip-rule="evenodd" d="M298.99 82.4496L299.172 82.8522C299.201 82.9062 299.308 83.2411 299.353 83.2521C299.394 83.2604 299.578 82.9851 299.617 82.9436C299.639 82.9214 299.885 82.6544 299.882 82.635C299.899 82.7318 300.075 82.938 300.064 83.0349C300.056 83.1027 299.836 83.295 299.799 83.3435C299.753 83.403 299.549 83.5704 299.533 83.652C299.508 83.771 299.282 83.8389 299.268 83.9606C299.259 84.0284 299.425 84.2983 299.45 84.3605C299.487 84.4546 299.624 84.6497 299.631 84.7604C299.636 84.8421 299.375 84.9818 299.367 85.069C299.353 85.1769 299.568 85.3665 299.546 85.4717C299.531 85.5478 299.326 85.7263 299.282 85.7775C299.251 85.8149 299.02 86.0349 299.016 86.0888C299.013 86.1511 299.219 86.4431 299.196 86.4887L298.933 86.7973C298.9 86.8374 298.672 87.0492 298.667 87.1059C298.66 87.1792 298.822 87.438 298.848 87.5058C298.873 87.5681 299.038 87.8379 299.03 87.9057C299.023 87.9431 298.756 88.1949 298.765 88.2143C298.787 88.2682 298.908 88.6087 298.947 88.6142C298.961 88.617 299.209 88.3278 299.211 88.3056C299.201 88.4301 299.407 88.5865 299.392 88.7083C299.382 88.7955 299.166 88.9435 299.126 89.0169L298.862 89.3227C298.823 89.3683 298.605 89.5662 298.597 89.634C298.588 89.688 298.754 89.9827 298.777 90.0339L298.959 90.4338C298.988 90.4989 299.143 90.7576 299.141 90.8337C299.137 90.8877 298.906 91.1036 298.876 91.1423L298.61 91.4509C298.585 91.5131 298.801 91.7774 298.791 91.8508C298.779 91.9643 298.534 92.0487 298.527 92.1594C298.521 92.2327 298.679 92.4998 298.708 92.562C298.73 92.6077 298.899 92.9107 298.89 92.9619C298.88 93.0159 298.615 93.2262 298.624 93.2705L298.808 93.6677L298.99 94.0703C299.018 94.1326 299.175 94.3941 299.172 94.4702C299.168 94.5214 298.937 94.7401 298.906 94.7788C298.876 94.8134 298.644 95.0362 298.642 95.0874C298.635 95.2175 298.834 95.36 298.823 95.4873C298.815 95.6091 299.022 95.7654 299.005 95.8872C298.994 95.9868 298.741 96.0975 298.741 96.1958C298.741 96.2719 298.944 96.5334 298.923 96.5957C298.891 96.6953 298.717 96.8364 298.659 96.9043L298.394 97.2128C298.364 97.2474 298.131 97.4744 298.131 97.5214C298.128 97.603 298.28 97.8535 298.312 97.9213C298.334 97.9697 298.462 98.3212 298.495 98.3212C298.509 98.324 298.759 98.0265 298.759 98.0126C298.766 98.1289 298.954 98.2991 298.94 98.4125C298.926 98.5315 298.69 98.6049 298.677 98.7211C298.662 98.8401 298.873 99.002 298.858 99.121C298.844 99.24 298.622 99.3161 298.594 99.4296C298.569 99.5209 298.787 99.7326 298.776 99.8295C298.767 99.8973 298.548 100.091 298.51 100.138C298.481 100.178 298.248 100.395 298.246 100.449C298.243 100.528 298.398 100.782 298.428 100.849L298.61 101.246L298.792 101.646C298.802 101.711 298.535 101.884 298.528 101.955C298.516 102.055 298.733 102.266 298.71 102.355C298.691 102.425 298.439 102.604 298.445 102.666L298.627 103.063L298.808 103.463C298.837 103.523 299 103.79 298.994 103.863C298.991 103.917 298.765 104.133 298.733 104.172C298.702 104.206 298.502 104.49 298.471 104.48C298.455 104.475 298.281 104.1 298.287 104.083C298.259 104.197 298.036 104.273 298.024 104.392C298.013 104.491 298.23 104.7 298.209 104.792C298.192 104.857 297.94 105.041 297.946 105.1L298.131 105.5L298.317 105.9C298.327 105.962 298.06 106.135 298.054 106.209C298.045 106.296 298.218 106.523 298.241 106.606L298.426 107.003C298.451 107.057 298.619 107.341 298.61 107.403C298.602 107.465 298.385 107.667 298.348 107.711L298.086 108.023L297.825 108.334C297.8 108.394 298.018 108.658 298.01 108.731C297.996 108.85 297.772 108.926 297.747 109.043L297.932 109.44C297.918 109.415 297.699 109.757 297.669 109.751C297.628 109.743 297.515 109.411 297.483 109.354L297.3 108.957L297.115 108.557L296.93 108.16L296.745 107.76C296.741 107.732 296.984 107.476 297.008 107.448C297.037 107.414 297.268 107.191 297.269 107.14C297.273 107.075 297.066 106.786 297.084 106.74L297.347 106.429C297.373 106.4 297.61 106.159 297.61 106.12C297.604 106.023 297.461 105.799 297.423 105.72L297.24 105.323C297.223 105.286 297.044 104.952 297.054 104.923C297.084 104.823 297.258 104.682 297.315 104.612L297.578 104.303L298.103 103.685C298.031 103.647 297.993 103.301 297.92 103.285C297.856 103.271 297.714 103.625 297.657 103.596C297.589 103.559 297.525 103.275 297.472 103.196L297.29 102.796L297.108 102.396C297.105 102.38 297.355 102.11 297.373 102.088C297.414 102.039 297.628 101.847 297.637 101.776C297.647 101.722 297.478 101.428 297.457 101.377L297.275 100.979C297.258 100.945 297.082 100.604 297.093 100.579C297.105 100.545 297.336 100.265 297.357 100.268C297.404 100.279 297.496 100.687 297.537 100.668C297.614 100.639 297.739 100.436 297.803 100.359L298.068 100.051L298.331 99.7423C298.331 99.6178 298.135 99.4587 298.15 99.3424C298.156 99.294 298.426 99.0671 298.414 99.0311C298.399 98.9827 298.263 98.6395 298.232 98.6339C298.168 98.6201 298.025 98.9716 297.968 98.9398C297.9 98.9052 297.839 98.6215 297.785 98.5426L297.603 98.1427L297.422 97.7428C297.418 97.711 297.662 97.4619 297.686 97.4342C297.722 97.3913 297.945 97.1879 297.952 97.1257C297.959 97.0606 297.795 96.7797 297.77 96.723C297.75 96.6856 297.576 96.3604 297.587 96.3258C297.612 96.2345 297.799 96.0768 297.852 96.0145L298.116 95.7059L298.381 95.3973C298.405 95.3378 298.189 95.0735 298.199 94.9974C298.21 94.9061 298.467 94.776 298.463 94.6889C298.459 94.5892 298.319 94.3706 298.28 94.289C298.259 94.2405 298.132 93.8891 298.099 93.8891C298.06 93.8863 297.861 94.2267 297.835 94.1976C297.767 94.1243 297.7 93.9029 297.653 93.7977L297.469 93.3951C297.468 93.384 297.717 93.1114 297.735 93.0865C297.774 93.0408 297.989 92.8485 297.999 92.7779C298.009 92.7239 297.842 92.4292 297.815 92.378L297.636 91.9781C297.607 91.9103 297.453 91.6571 297.455 91.5782C297.458 91.5298 297.69 91.3056 297.721 91.2696C297.785 91.1935 297.911 90.9915 297.986 90.961C298.029 90.9444 298.12 91.3526 298.167 91.3609C298.242 91.3775 298.356 91.0607 298.431 91.0524L298.252 90.6525C298.23 90.604 298.103 90.2525 298.07 90.2525C298.052 90.2498 297.804 90.5611 297.804 90.5611C297.782 90.4767 297.614 90.2442 297.622 90.1585C297.636 90.0616 297.889 89.9481 297.888 89.8499C297.888 89.7115 297.708 89.5897 297.707 89.45C297.706 89.3559 297.961 89.2396 297.972 89.1414C297.981 89.0736 297.817 88.8038 297.792 88.7415C297.764 88.6737 297.604 88.4177 297.61 88.3416C297.619 88.2281 297.863 88.1465 297.875 88.033C297.886 87.9334 297.672 87.7244 297.693 87.6331C297.725 87.5086 297.94 87.4491 297.959 87.3245C297.979 87.2028 298.211 87.135 298.224 87.0159C298.232 86.9481 298.067 86.6755 298.041 86.616C298.022 86.5648 297.852 86.2646 297.863 86.2134C297.877 86.1373 298.082 85.956 298.127 85.9048L298.391 85.5962C298.416 85.5367 298.202 85.2724 298.21 85.1963C298.225 85.0773 298.451 85.0067 298.476 84.8877C298.501 84.7687 298.727 84.7009 298.741 84.5792C298.748 84.5114 298.585 84.2388 298.559 84.1793C298.541 84.1308 298.367 83.825 298.378 83.7793C298.398 83.6949 298.598 83.5247 298.644 83.4708C298.688 83.4168 298.894 83.2411 298.909 83.1622C298.93 83.0626 298.723 82.8647 298.727 82.7595C298.72 82.6295 298.54 82.4925 298.546 82.3596C298.548 82.3402 298.798 82.0483 298.811 82.051C298.884 82.0663 298.918 82.4122 298.99 82.4496Z" fill="#BC0003"/>
<path fill-rule="evenodd" clip-rule="evenodd" d="M296.854 110.671C296.926 110.709 296.963 111.055 297.038 111.068C297.052 111.071 297.3 110.776 297.301 110.757C297.304 110.7 297.144 110.4 297.116 110.36C297.136 110.388 297.346 110.043 297.378 110.049C297.419 110.057 297.533 110.392 297.562 110.446C297.586 110.491 297.756 110.794 297.749 110.843C297.736 110.913 297.526 111.107 297.486 111.154C297.461 111.183 297.221 111.432 297.223 111.468C297.23 111.565 297.369 111.782 297.408 111.865C297.43 111.911 297.603 112.211 297.593 112.263C297.582 112.322 297.322 112.523 297.332 112.574L297.518 112.971C297.543 113.028 297.708 113.303 297.703 113.368C297.696 113.428 297.48 113.638 297.444 113.68C297.414 113.717 297.186 113.94 297.184 113.994C297.182 114.088 297.394 114.305 297.375 114.391C297.346 114.504 297.127 114.586 297.115 114.702C297.107 114.802 297.326 115.008 297.305 115.099C297.282 115.199 297.05 115.31 297.047 115.413C297.044 115.49 297.205 115.746 297.237 115.811L297.426 116.205L297.617 116.602L297.807 116.999C297.817 117.061 297.555 117.24 297.547 117.313C297.536 117.43 297.751 117.594 297.738 117.708C297.722 117.829 297.49 117.903 297.479 118.022C297.468 118.121 297.69 118.328 297.669 118.419C297.643 118.53 297.461 118.638 297.41 118.733L297.15 119.044L296.891 119.359L296.631 119.673L296.253 118.881C296.28 118.765 296.501 118.686 296.512 118.567C296.52 118.491 296.3 118.232 296.321 118.17L296.581 117.856C296.612 117.818 296.838 117.596 296.841 117.542C296.844 117.468 296.681 117.21 296.651 117.147L296.46 116.75C296.428 116.68 296.27 116.436 296.27 116.353C296.27 116.251 296.519 116.145 296.528 116.039C296.54 115.939 296.319 115.733 296.338 115.642C296.367 115.517 296.577 115.458 296.596 115.328C296.616 115.22 296.396 115.044 296.409 114.93C296.419 114.811 296.652 114.738 296.667 114.619C296.681 114.503 296.466 114.335 296.477 114.219C296.488 114.103 296.724 114.027 296.735 113.908C296.748 113.792 296.534 113.63 296.545 113.511C296.558 113.403 296.804 113.306 296.806 113.197C296.809 113.118 296.652 112.867 296.621 112.802C296.599 112.754 296.427 112.454 296.437 112.402C296.456 112.286 296.687 112.21 296.698 112.091C296.709 111.969 296.499 111.813 296.513 111.694C296.523 111.6 296.78 111.472 296.774 111.383C296.772 111.286 296.627 111.064 296.59 110.983L296.405 110.586C296.396 110.518 296.66 110.35 296.667 110.274C296.68 110.152 296.476 109.999 296.483 109.877C296.483 109.858 296.73 109.563 296.744 109.566C296.819 109.58 296.856 109.925 296.929 109.963L297.115 110.36L296.854 110.671Z" fill="#BC0003"/>
<path fill-rule="evenodd" clip-rule="evenodd" d="M295.241 137.116L295.754 136.484C295.828 136.521 295.872 136.867 295.947 136.878C295.995 136.887 296.166 136.53 296.204 136.564C296.271 136.621 296.349 136.862 296.398 136.959C296.432 137.029 296.589 137.264 296.591 137.353C296.594 137.447 296.349 137.571 296.334 137.67C296.242 137.715 296.171 137.953 296.078 137.984C296.029 138 295.936 137.601 295.883 137.589C295.836 137.581 295.665 137.938 295.626 137.906C295.558 137.85 295.482 137.606 295.433 137.512L295.241 137.116Z" fill="#BC0003"/>
<path fill-rule="evenodd" clip-rule="evenodd" d="M296.013 138.696L296.206 139.091L296.399 139.485C296.41 139.55 296.149 139.726 296.143 139.802C296.135 139.878 296.357 140.131 296.337 140.196L296.078 140.513C296.043 140.556 295.86 140.834 295.819 140.827C295.781 140.822 295.654 140.487 295.628 140.433L295.436 140.039C295.408 139.985 295.236 139.706 295.243 139.644C295.248 139.582 295.462 139.372 295.498 139.327L296.013 138.696Z" fill="#BC0003"/>
<path fill-rule="evenodd" clip-rule="evenodd" d="M295.067 153.702L294.88 153.305C294.858 153.259 294.687 152.959 294.695 152.908C294.706 152.848 294.966 152.646 294.956 152.593L294.769 152.199C294.732 152.12 294.581 151.896 294.577 151.802C294.571 151.708 294.824 151.586 294.834 151.488C294.846 151.369 294.631 151.21 294.642 151.091C294.653 150.972 294.889 150.896 294.901 150.777C294.906 150.717 294.689 150.422 294.707 150.379C294.727 150.342 294.938 150.061 294.966 150.065C295.028 150.076 295.097 150.471 295.158 150.462C295.177 150.46 295.415 150.171 295.415 150.148C295.418 150.07 295.255 149.814 295.224 149.751L295.031 149.354L294.839 148.96C294.827 148.914 295.091 148.7 295.097 148.643C295.104 148.575 294.931 148.311 294.906 148.248C294.877 148.183 294.707 147.927 294.713 147.851C294.714 147.829 294.956 147.534 294.971 147.537C294.985 147.54 295.167 147.915 295.163 147.932C295.187 147.815 295.409 147.739 295.42 147.617C295.432 147.498 295.217 147.339 295.229 147.22C295.24 147.104 295.475 147.025 295.486 146.906C295.497 146.793 295.304 146.628 295.295 146.509C295.286 146.393 295.092 146.228 295.102 146.115C295.109 146.039 295.37 145.866 295.361 145.801L295.167 145.403C295.135 145.333 294.977 145.092 294.977 145.009C294.976 144.963 295.205 144.728 295.234 144.692C295.265 144.655 295.49 144.431 295.491 144.378C295.494 144.302 295.331 144.043 295.3 143.984L295.108 143.587C295.097 143.519 295.358 143.346 295.366 143.27C295.377 143.151 295.176 142.997 295.173 142.875C295.172 142.754 294.97 142.6 294.983 142.481C294.992 142.362 295.213 142.28 295.238 142.164C295.266 142.048 295.486 141.966 295.497 141.847C295.507 141.748 295.286 141.547 295.305 141.453C295.312 141.424 295.546 141.135 295.562 141.136C295.639 141.15 295.682 141.496 295.755 141.533C295.828 141.568 295.872 141.914 295.947 141.927C295.962 141.93 296.204 141.63 296.204 141.611C296.204 141.735 296.407 141.886 296.398 142.005C296.388 142.124 296.15 142.203 296.139 142.322C296.128 142.441 296.342 142.6 296.332 142.716C296.321 142.835 296.101 142.918 296.074 143.033C296.046 143.148 295.826 143.234 295.815 143.35C295.807 143.45 296.028 143.653 296.008 143.744C295.983 143.847 295.754 143.955 295.75 144.061C295.747 144.137 295.911 144.393 295.942 144.456C295.965 144.504 296.142 144.802 296.133 144.853C296.125 144.915 295.868 145.117 295.876 145.167L296.068 145.564C296.106 145.643 296.256 145.862 296.26 145.958C296.267 146.05 296.011 146.18 296.003 146.275C295.992 146.394 296.206 146.553 296.196 146.672C296.183 146.789 295.949 146.868 295.937 146.987C295.926 147.106 296.125 147.262 296.129 147.384C296.133 147.478 295.88 147.6 295.871 147.698C295.864 147.766 296.036 148.033 296.063 148.095C296.089 148.152 296.261 148.427 296.256 148.492C296.247 148.557 296.035 148.759 295.997 148.806C295.968 148.844 295.741 149.068 295.739 149.12C295.736 149.214 295.95 149.432 295.932 149.517C295.904 149.631 295.685 149.715 295.673 149.832C295.665 149.931 295.885 150.137 295.865 150.229C295.842 150.337 295.614 150.433 295.608 150.543C295.604 150.613 295.771 150.88 295.801 150.94L295.992 151.337C296.003 151.405 295.741 151.575 295.733 151.651C295.722 151.773 295.931 151.927 295.926 152.048C295.921 152.156 295.69 152.253 295.668 152.362C295.591 152.311 295.557 151.994 295.476 151.965C295.464 151.962 295.22 152.257 295.219 152.279C295.206 152.398 295.402 152.555 295.404 152.677C295.415 152.609 295.676 152.422 295.666 152.362C295.683 152.462 295.864 152.66 295.853 152.76C295.842 152.859 295.589 152.975 295.591 153.074C295.594 153.206 295.785 153.341 295.778 153.471C295.771 153.584 295.526 153.673 295.516 153.785C295.504 153.904 295.712 154.063 295.701 154.182C295.691 154.298 295.452 154.38 295.44 154.496C295.427 154.615 295.64 154.777 295.626 154.893C295.614 155.012 295.376 155.088 295.365 155.207C295.354 155.326 295.548 155.486 295.551 155.607C295.475 155.616 295.363 155.931 295.29 155.919C295.227 155.908 295.166 155.513 295.104 155.522C295.07 155.524 294.863 155.856 294.842 155.833C294.819 155.805 294.652 155.479 294.656 155.436C294.667 155.336 294.919 155.22 294.917 155.124C294.916 155.003 294.719 154.843 294.731 154.724C294.745 154.608 294.981 154.532 294.994 154.413C295.003 154.313 294.785 154.107 294.806 154.016C294.837 153.88 295.024 153.829 295.067 153.702Z" fill="#BC0003"/>
<path fill-rule="evenodd" clip-rule="evenodd" d="M294.762 156.543C294.834 156.58 294.873 156.926 294.948 156.94C294.994 156.951 295.173 156.597 295.209 156.629C295.233 156.651 295.399 156.991 295.396 157.026C295.385 157.125 295.133 157.242 295.133 157.34C295.136 157.394 295.336 157.705 295.321 157.74C295.3 157.777 295.083 158.054 295.058 158.051C294.995 158.037 294.936 157.643 294.873 157.651C294.827 157.657 294.645 157.992 294.612 157.962C294.548 157.909 294.469 157.657 294.426 157.563C294.398 157.509 294.232 157.23 294.238 157.165C294.246 157.106 294.466 156.898 294.501 156.854L294.762 156.543Z" fill="#BC0003"/>
<path fill-rule="evenodd" clip-rule="evenodd" d="M295.166 159.159L295.539 159.959L295.278 160.271L295.016 160.579C294.993 160.641 295.211 160.906 295.202 160.982C295.189 161.101 294.955 161.171 294.941 161.29C294.926 161.407 295.141 161.574 295.127 161.69C295.116 161.79 294.865 161.903 294.865 162.002C294.868 162.115 295.066 162.294 295.052 162.402C295.034 162.523 294.802 162.594 294.79 162.713C294.779 162.829 294.988 162.997 294.976 163.113C294.963 163.232 294.727 163.302 294.715 163.421C294.704 163.538 294.913 163.708 294.894 163.824C294.873 163.943 294.638 164.011 294.623 164.133C294.609 164.23 294.822 164.441 294.797 164.533C294.779 164.6 294.52 164.779 294.526 164.841L294.699 165.241L294.873 165.644L295.047 166.046C295.075 166.106 295.229 166.381 295.221 166.449C295.215 166.509 294.984 166.716 294.95 166.758L294.679 167.063C294.63 167.117 294.428 167.285 294.407 167.369C294.378 167.485 294.153 167.556 294.136 167.672C294.121 167.791 294.328 167.959 294.312 168.078C294.295 168.194 294.056 168.262 294.041 168.381C294.024 168.497 294.213 168.664 294.214 168.786C294.216 168.905 294.405 169.073 294.388 169.189C294.374 169.289 294.118 169.394 294.118 169.492C294.116 169.622 294.303 169.773 294.292 169.897C294.278 170.014 294.035 170.087 294.021 170.2C294.004 170.319 294.212 170.49 294.195 170.606C294.178 170.725 293.939 170.79 293.924 170.909C293.907 171.017 294.12 171.212 294.098 171.314C294.07 171.433 293.842 171.496 293.827 171.615C293.817 171.691 294.025 171.963 294 172.023L293.729 172.323C293.7 172.355 293.461 172.575 293.458 172.621C293.455 172.708 293.603 172.958 293.632 173.029L293.806 173.44L293.979 173.845C294.009 173.907 294.159 174.183 294.145 174.253C294.136 174.307 293.892 174.514 293.857 174.551L293.572 174.846C293.537 174.883 293.293 175.089 293.286 175.143C293.269 175.257 293.022 175.324 293 175.438C292.997 175.46 293.143 175.843 293.154 175.846C293.19 175.849 293.418 175.522 293.44 175.551L293.593 175.96L293.747 176.368C293.747 176.402 293.486 176.635 293.462 176.663L293.176 176.957C293.148 177.014 293.344 177.292 293.33 177.365C293.307 177.484 293.069 177.541 293.044 177.657C293.02 177.771 293.221 177.955 293.198 178.068C293.179 178.168 292.919 178.264 292.913 178.36C292.905 178.496 293.08 178.636 293.066 178.771C293.057 178.874 292.808 178.961 292.781 179.061L292.628 178.65L292.474 178.239C292.469 178.171 292.745 178.023 292.759 177.949C292.774 177.871 292.621 177.615 292.605 177.538L292.439 177.121L292.285 176.712C292.255 176.628 292.131 176.404 292.131 176.304C292.134 176.217 292.399 176.104 292.417 176.012C292.435 175.915 292.234 175.695 292.263 175.607C292.302 175.485 292.52 175.439 292.549 175.315C292.577 175.196 292.812 175.139 292.834 175.02C292.848 174.955 292.699 174.677 292.68 174.615C292.66 174.561 292.512 174.266 292.526 174.209C292.553 174.093 292.79 174.033 292.811 173.914C292.822 173.841 292.612 173.568 292.637 173.509L292.908 173.211C292.943 173.171 293.169 172.973 293.177 172.911C293.193 172.795 292.988 172.622 293.004 172.506C293.022 172.39 293.259 172.324 293.275 172.205C293.29 172.089 293.084 171.916 293.101 171.8C293.115 171.7 293.371 171.598 293.371 171.5C293.372 171.411 293.229 171.17 293.197 171.094L293.023 170.689C293.018 170.624 293.284 170.465 293.294 170.389C293.311 170.272 293.104 170.102 293.12 169.986C293.139 169.867 293.376 169.802 293.391 169.683C293.405 169.583 293.193 169.372 293.218 169.28C293.252 169.145 293.446 169.107 293.489 168.977C293.524 168.872 293.745 168.788 293.76 168.674C293.774 168.575 293.56 168.363 293.585 168.271C293.614 168.166 293.846 168.074 293.856 167.968C293.867 167.847 293.664 167.685 293.682 167.566C293.696 167.466 293.952 167.358 293.953 167.26C293.954 167.119 293.783 166.998 293.779 166.857C293.775 166.741 293.589 166.568 293.604 166.455C293.618 166.358 293.875 166.25 293.875 166.152C293.878 166.008 293.704 165.89 293.701 165.749C293.701 165.658 293.96 165.539 293.972 165.443C293.982 165.375 293.822 165.103 293.799 165.043L293.625 164.643C293.621 164.559 293.885 164.425 293.896 164.335C293.913 164.224 293.7 164.045 293.722 163.938C293.736 163.864 293.952 163.676 293.993 163.629L294.256 163.32L294.519 163.012C294.541 162.952 294.323 162.685 294.332 162.612C294.345 162.498 294.59 162.414 294.594 162.301C294.596 162.227 294.437 161.966 294.407 161.901L294.221 161.501L294.035 161.101C294.013 161.055 293.84 160.752 293.849 160.701C293.871 160.574 294.077 160.514 294.111 160.392C294.117 160.319 293.903 160.049 293.924 159.992L294.186 159.684C294.256 159.599 294.366 159.417 294.448 159.373C294.484 159.353 294.592 159.764 294.634 159.772C294.677 159.781 294.856 159.505 294.895 159.461L295.166 159.159Z" fill="#BC0003"/>
<path fill-rule="evenodd" clip-rule="evenodd" d="M291.762 179.505L292.047 179.215C292.079 179.184 292.302 178.915 292.332 178.929C292.41 178.964 292.414 179.286 292.485 179.34C292.556 179.383 292.567 179.732 292.639 179.754C292.685 179.765 292.89 179.43 292.924 179.464C292.985 179.527 293.041 179.779 293.079 179.878C293.106 179.952 293.237 180.205 293.231 180.292C293.227 180.335 292.977 180.552 292.945 180.581C292.899 180.627 292.681 180.791 292.66 180.868C292.631 180.987 292.399 181.035 292.375 181.154C292.364 181.219 292.51 181.506 292.53 181.568C292.552 181.638 292.695 181.911 292.684 181.984C292.674 182.041 292.434 182.233 292.399 182.271C292.364 182.303 292.12 182.503 292.114 182.554C292.099 182.673 292.29 182.855 292.265 182.971C292.243 183.087 292.004 183.136 291.983 183.252C291.964 183.339 292.165 183.598 292.135 183.671C292.086 183.771 291.858 183.839 291.828 183.949C291.803 184.043 291.99 184.273 291.956 184.36C291.93 184.42 291.693 184.618 291.648 184.638C291.616 184.652 291.555 184.236 291.52 184.225C291.479 184.211 291.244 184.536 291.216 184.5C291.195 184.472 291.078 184.125 291.088 184.086C291.113 183.992 291.38 183.908 291.394 183.814C291.409 183.692 291.241 183.516 291.258 183.4C291.28 183.284 291.519 183.235 291.541 183.119C291.561 183.022 291.359 182.792 291.39 182.702C291.43 182.575 291.621 182.543 291.672 182.422L291.52 182.008L291.366 181.594C291.362 181.526 291.637 181.384 291.651 181.31C291.665 181.234 291.469 180.956 291.497 180.897L291.782 180.613C291.822 180.573 292.053 180.392 292.067 180.327C292.078 180.267 291.933 179.97 291.912 179.916L291.762 179.505Z" fill="#BC0003"/>
<path fill-rule="evenodd" clip-rule="evenodd" d="M286.093 200.153C286.121 200.037 285.968 199.832 286.005 199.723C286.028 199.663 286.285 199.53 286.329 199.501C286.374 199.469 286.616 199.26 286.65 199.277C286.721 199.312 286.678 199.652 286.738 199.71C286.71 199.826 286.863 200.031 286.823 200.143C286.806 200.189 286.535 200.351 286.5 200.367C286.474 200.376 286.445 199.948 286.416 199.933C286.347 199.896 286.169 200.165 286.093 200.153Z" fill="#BC0003"/>
<path fill-rule="evenodd" clip-rule="evenodd" d="M300.449 13.2758C300.456 13.3976 300.656 13.5484 300.648 13.6674C300.641 13.767 300.391 13.8888 300.396 13.9857C300.402 14.1075 300.602 14.2583 300.594 14.3773C300.585 14.4963 300.351 14.5793 300.342 14.6955C300.334 14.7952 300.559 14.9958 300.541 15.0899C300.519 15.1895 300.288 15.3058 300.288 15.4068C300.287 15.5313 300.494 15.6794 300.485 15.8012C300.478 15.898 300.228 16.0226 300.234 16.1194C300.239 16.2606 300.416 16.3713 300.433 16.511C300.444 16.6273 300.638 16.7892 300.63 16.9026C300.623 17.0023 300.373 17.124 300.378 17.2209C300.384 17.3565 300.577 17.481 300.577 17.6125C300.576 17.7204 300.332 17.8228 300.323 17.9308C300.316 18.0304 300.541 18.231 300.521 18.3251C300.502 18.4192 300.267 18.5465 300.27 18.642C300.27 18.7237 300.433 18.9658 300.467 19.0364C300.491 19.082 300.672 19.3768 300.666 19.428C300.651 19.5332 300.414 19.6411 300.413 19.7462C300.413 19.868 300.62 20.0188 300.612 20.1379C300.605 20.2375 300.355 20.3593 300.359 20.4561C300.364 20.5862 300.56 20.7176 300.558 20.8477C300.556 20.9612 300.314 21.0553 300.306 21.166C300.296 21.2767 300.517 21.4524 300.503 21.5604C300.499 21.588 300.269 21.8786 300.252 21.8772C300.175 21.8634 300.127 21.5202 300.053 21.4856C300.046 21.3639 299.845 21.2103 299.854 21.0913C299.86 21.0027 300.116 20.8588 300.107 20.7744C300.096 20.672 299.95 20.463 299.909 20.38L299.71 19.9884C299.699 19.9206 299.956 19.7449 299.963 19.6701C299.968 19.5788 299.743 19.3588 299.764 19.2785C299.786 19.1844 299.966 19.0239 300.016 18.9603C300.071 18.8925 300.239 18.7416 300.27 18.642C300.289 18.5742 300.071 18.3307 300.071 18.2504C300.07 18.1688 299.906 17.9238 299.872 17.8588L299.674 17.4672C299.663 17.3994 299.92 17.2237 299.927 17.1489C299.935 17.0272 299.722 16.8791 299.728 16.7573C299.733 16.6411 299.971 16.5553 299.981 16.4391C299.988 16.3394 299.764 16.1388 299.782 16.0475C299.806 15.934 300.027 15.8427 300.035 15.7292C300.042 15.6102 299.828 15.4566 299.836 15.3348C299.842 15.238 300.093 15.1134 300.089 15.0166C300.082 14.8976 299.882 14.7467 299.891 14.6277C299.897 14.5087 300.132 14.4257 300.143 14.3067C300.15 14.2099 299.927 14.0092 299.945 13.9151C299.973 13.7823 300.157 13.7255 300.198 13.5968C300.184 13.4668 299.998 13.3367 299.999 13.2052C299.999 13.1859 300.238 12.8842 300.25 12.887C300.327 12.8967 300.377 13.2398 300.449 13.2758Z" fill="#BC0003"/>
<path fill-rule="evenodd" clip-rule="evenodd" d="M300.591 23.38C300.566 23.4962 300.348 23.5806 300.338 23.6968C300.332 23.7674 300.509 24.0317 300.537 24.094L300.734 24.4856C300.745 24.5589 300.484 24.7236 300.477 24.8038C300.47 24.8716 300.644 25.1359 300.67 25.1982C300.704 25.2743 300.862 25.5013 300.863 25.5898C300.865 25.6355 300.634 25.8735 300.606 25.9067C300.572 25.9524 300.355 26.1613 300.348 26.225C300.342 26.2845 300.515 26.5654 300.541 26.6193L300.734 27.0109C300.745 27.0787 300.484 27.2545 300.477 27.3278C300.467 27.4496 300.68 27.6032 300.67 27.7222C300.662 27.8384 300.424 27.9228 300.413 28.0404C300.403 28.1373 300.626 28.3407 300.606 28.432C300.587 28.5192 300.345 28.6673 300.348 28.7503C300.353 28.8416 300.502 29.0686 300.541 29.1419L300.734 29.539C300.766 29.6041 300.927 29.8532 300.927 29.9334C300.926 30.0386 300.68 30.141 300.67 30.2503C300.659 30.3693 300.873 30.5257 300.862 30.6447C300.854 30.7637 300.617 30.8425 300.606 30.9588C300.595 31.0778 300.794 31.2341 300.798 31.3559C300.802 31.4528 300.551 31.5718 300.541 31.6728C300.535 31.7406 300.706 32.0077 300.734 32.0672C300.762 32.1294 300.933 32.391 300.927 32.4615C300.922 32.521 300.705 32.7369 300.67 32.7784L300.413 33.0953C300.391 33.1548 300.612 33.4136 300.606 33.4897C300.594 33.6114 300.364 33.6848 300.348 33.8065C300.341 33.8605 300.516 34.1525 300.541 34.2009C300.569 34.2549 300.74 34.533 300.734 34.5953C300.729 34.6603 300.513 34.8679 300.476 34.9122C300.449 34.944 300.217 35.1848 300.22 35.2263C300.223 35.3176 300.377 35.5501 300.412 35.6234L300.605 36.0178L300.798 36.4149C300.819 36.5035 300.998 36.718 300.991 36.8121C300.982 36.9061 300.73 37.0335 300.734 37.1262C300.74 37.2452 300.937 37.4043 300.927 37.5205C300.916 37.6395 300.68 37.7184 300.669 37.8374C300.658 37.9564 300.872 38.1155 300.862 38.2345C300.851 38.3508 300.631 38.4324 300.605 38.5487C300.521 38.568 300.431 38.8655 300.348 38.8655C300.316 38.8628 300.178 38.5141 300.155 38.4684L299.961 38.0713C299.988 37.955 300.209 37.8762 300.22 37.7572C300.228 37.6575 300.006 37.4513 300.027 37.36C300.048 37.2659 300.284 37.1414 300.284 37.0459C300.284 36.9615 300.125 36.7166 300.091 36.6488C300.067 36.6031 299.89 36.3028 299.897 36.2544C299.914 36.1492 300.155 36.0441 300.155 35.9403C300.155 35.8157 299.952 35.6622 299.961 35.5431C299.971 35.4435 300.223 35.3245 300.22 35.2263C300.213 35.0962 300.021 34.962 300.027 34.8319C300.032 34.7101 299.824 34.5593 299.833 34.4375C299.839 34.3697 300.053 34.1705 300.092 34.1207C300.114 34.0916 300.352 33.8397 300.348 33.8065L300.155 33.4094L299.961 33.015L299.77 32.6207C299.736 32.5529 299.575 32.3065 299.575 32.2263C299.575 32.1779 299.804 31.9454 299.833 31.9094L300.091 31.5925C300.124 31.5496 300.342 31.3379 300.348 31.2784C300.359 31.1594 300.145 31.0003 300.155 30.8813C300.16 30.8329 300.423 30.6031 300.413 30.5644C300.396 30.5187 300.25 30.1756 300.22 30.1728C300.206 30.17 299.961 30.4786 299.961 30.4869C299.95 30.3762 299.76 30.2032 299.77 30.0925C299.779 29.9929 300.029 29.8739 300.027 29.7757C300.021 29.6456 299.829 29.5141 299.833 29.3813C299.838 29.2706 300.081 29.1793 300.092 29.0672C300.1 28.9565 299.881 28.7752 299.899 28.6728C299.918 28.551 300.143 28.4749 300.155 28.3546C300.163 28.2812 299.941 28.0225 299.963 27.9629L300.22 27.6461C300.249 27.6115 300.477 27.3762 300.477 27.3278C300.476 27.2462 300.319 27.004 300.285 26.9362L300.092 26.5418C300.06 26.474 299.897 26.2277 299.899 26.1475C299.899 26.099 300.125 25.8666 300.155 25.8306L300.413 25.5137C300.435 25.4514 300.213 25.1927 300.22 25.1193C300.228 25.0377 300.485 24.8758 300.477 24.8025L300.284 24.4081L300.085 24.0137L299.888 23.6193L300.139 23.3025C300.17 23.2651 300.36 22.9759 300.392 22.9856C300.473 23.016 300.513 23.3343 300.591 23.38Z" fill="#BC0003"/>
<path fill-rule="evenodd" clip-rule="evenodd" d="M296.876 121.881C296.952 121.87 297.059 121.554 297.134 121.567C297.177 121.575 297.294 121.907 297.325 121.961L297.515 122.358C297.439 122.367 297.33 122.685 297.255 122.673C297.194 122.661 297.127 122.267 297.066 122.275C297.029 122.281 296.83 122.54 296.806 122.589C296.799 122.606 296.981 122.958 296.995 122.987C297.023 123.041 297.194 123.319 297.186 123.381C297.18 123.446 296.965 123.654 296.927 123.698C296.898 123.732 296.669 123.962 296.667 124.012C296.666 124.094 296.824 124.339 296.858 124.406C296.881 124.455 297.056 124.752 297.048 124.801C297.038 124.863 296.778 125.065 296.788 125.118L296.979 125.512C297.005 125.566 297.175 125.844 297.169 125.906C297.158 126.025 296.922 126.104 296.911 126.223C296.898 126.339 297.112 126.499 297.101 126.618C297.088 126.737 296.854 126.815 296.84 126.932C296.829 127.045 297.045 127.215 297.033 127.326C297.022 127.399 296.815 127.596 296.774 127.643C296.74 127.686 296.524 127.898 296.519 127.96C296.513 128.022 296.684 128.3 296.712 128.354C296.728 128.389 296.913 128.722 296.905 128.749C296.894 128.783 296.669 129.067 296.646 129.065C296.584 129.054 296.516 128.663 296.453 128.671C296.414 128.677 296.223 128.933 296.198 128.985C296.178 129.023 296.395 129.326 296.391 129.382C296.382 129.47 296.125 129.615 296.132 129.696C296.136 129.734 296.306 130.088 296.325 130.094C296.389 130.105 296.524 129.748 296.584 129.777C296.652 129.811 296.721 130.095 296.777 130.171L296.97 130.565L297.163 130.963L296.905 131.277C296.876 131.314 296.683 131.603 296.649 131.594C296.633 131.588 296.452 131.213 296.456 131.199C296.427 131.31 296.209 131.4 296.199 131.516C296.192 131.581 296.366 131.848 296.391 131.91L296.584 132.305L296.777 132.699C296.815 132.775 296.968 133.002 296.972 133.094C296.973 133.134 296.741 133.377 296.715 133.41L296.457 133.727C296.414 133.779 296.214 133.965 296.2 134.041C296.192 134.09 296.371 134.393 296.393 134.439L296.587 134.833L296.78 135.227C296.791 135.273 296.528 135.487 296.523 135.544C296.516 135.612 296.69 135.879 296.716 135.939C296.752 136.026 296.902 136.231 296.909 136.333C296.911 136.347 296.666 136.651 296.652 136.65C296.576 136.636 296.532 136.29 296.459 136.255L296.074 135.464L295.881 135.07C295.831 135.016 295.746 134.686 295.687 134.675C295.674 134.672 295.429 134.989 295.43 134.992C295.409 134.898 295.227 134.692 295.237 134.598C295.247 134.498 295.497 134.379 295.494 134.281C295.491 134.21 295.283 133.94 295.301 133.886L295.558 133.57C295.6 133.518 295.801 133.329 295.815 133.253C295.824 133.204 295.644 132.904 295.622 132.858C295.594 132.804 295.423 132.526 295.429 132.464C295.434 132.399 295.65 132.191 295.687 132.147C295.714 132.112 295.943 131.877 295.943 131.83C295.94 131.743 295.785 131.506 295.75 131.436L295.557 131.041L295.364 130.644C295.352 130.599 295.614 130.39 295.619 130.33C295.628 130.262 295.454 129.995 295.426 129.933C295.386 129.842 295.244 129.649 295.234 129.539C295.226 129.457 295.483 129.312 295.491 129.222C295.503 129.106 295.302 128.949 295.298 128.827L295.554 128.511C295.617 128.434 295.736 128.23 295.812 128.196C295.853 128.177 295.957 128.583 296.006 128.591C296.065 128.602 296.2 128.31 296.261 128.274L296.52 127.96L296.327 127.563L296.134 127.168L295.943 126.774C295.932 126.706 296.195 126.533 296.202 126.457C296.213 126.346 296.021 126.179 296.011 126.063C296.006 125.978 296.261 125.836 296.271 125.749C296.278 125.681 296.107 125.411 296.081 125.351C296.047 125.275 295.892 125.048 295.89 124.957C295.889 124.855 296.139 124.747 296.15 124.643C296.16 124.543 295.939 124.337 295.96 124.246C295.989 124.121 296.199 124.059 296.22 123.932C296.236 123.821 296.018 123.648 296.028 123.535C296.039 123.427 296.286 123.327 296.289 123.22C296.289 123.096 296.086 122.945 296.099 122.823C296.104 122.75 296.367 122.577 296.357 122.509L296.167 122.115C296.15 122.077 295.968 121.75 295.977 121.718C295.988 121.683 296.216 121.399 296.236 121.404C296.299 121.415 296.366 121.806 296.427 121.798C296.477 121.792 296.642 121.458 296.687 121.484C296.769 121.541 296.794 121.808 296.876 121.881Z" fill="#BC0003"/>
<path fill-rule="evenodd" clip-rule="evenodd" d="M291.726 186.158L291.977 186.995C291.899 186.995 291.743 187.292 291.672 187.267C291.612 187.245 291.608 186.848 291.547 186.848C291.522 186.848 291.25 187.089 291.24 187.118C291.205 187.234 290.966 187.272 290.936 187.388C290.906 187.501 291.077 187.688 291.061 187.807C291.045 187.926 291.216 188.113 291.186 188.226C291.163 188.314 290.887 188.413 290.881 188.493L291.006 188.915L291.132 189.34C291.132 189.408 290.847 189.535 290.827 189.605C290.798 189.724 290.979 189.91 290.952 190.029C290.927 190.143 290.678 190.183 290.648 190.294C290.623 190.391 290.808 190.631 290.773 190.721L290.469 190.983C290.423 191.082 290.195 191.134 290.166 191.243C290.139 191.34 290.324 191.583 290.289 191.67C290.241 191.792 290.028 191.806 289.988 191.931C289.953 192.033 290.138 192.252 290.11 192.358C290.088 192.455 289.822 192.52 289.797 192.613C289.769 192.732 289.925 192.921 289.885 193.032C289.844 193.146 289.594 193.17 289.554 193.281C289.522 193.375 289.687 193.619 289.643 193.703C289.586 193.814 289.357 193.836 289.312 193.95C289.269 194.06 289.024 194.082 288.984 194.193C288.944 194.304 289.098 194.499 289.072 194.618C289.044 194.734 289.2 194.929 289.159 195.04C289.123 195.142 288.86 195.181 288.831 195.283C288.803 195.386 288.541 195.422 288.503 195.521C288.481 195.587 288.581 195.884 288.591 195.949C288.602 196.006 288.701 196.32 288.678 196.377C288.652 196.439 288.399 196.577 288.352 196.612C288.302 196.649 288.052 196.785 288.025 196.847C287.981 196.961 287.74 196.969 287.7 197.082C287.676 197.145 287.776 197.445 287.786 197.51L287.872 197.94C287.858 198.022 287.576 198.088 287.548 198.173C287.515 198.267 287.678 198.513 287.635 198.603C287.621 198.631 287.325 198.841 287.309 198.833C287.241 198.798 287.284 198.458 287.223 198.4L287.137 197.969C287.126 197.921 287.03 197.589 287.049 197.545C287.101 197.428 287.322 197.428 287.375 197.312C287.423 197.207 287.66 197.193 287.7 197.082C287.737 196.974 287.571 196.761 287.612 196.655C287.654 196.544 287.897 196.533 287.938 196.422C287.978 196.312 287.81 196.105 287.85 195.997C287.889 195.887 288.138 195.87 288.175 195.759C288.216 195.652 288.047 195.445 288.088 195.337C288.128 195.227 288.375 195.21 288.416 195.099C288.456 194.989 288.288 194.788 288.327 194.677C288.367 194.567 288.616 194.547 288.656 194.437C288.695 194.326 288.527 194.125 288.569 194.017C288.608 193.907 288.856 193.885 288.897 193.774C288.937 193.663 288.767 193.465 288.809 193.355C288.848 193.244 289.098 193.222 289.138 193.111C289.177 193.003 289.006 192.797 289.049 192.692C289.093 192.581 289.34 192.559 289.38 192.445C289.411 192.378 289.229 192.075 289.261 192.021L289.564 191.763C289.605 191.729 289.85 191.565 289.867 191.503C289.896 191.39 289.712 191.194 289.742 191.078C289.767 190.984 290.032 190.916 290.046 190.818C290.063 190.68 289.904 190.534 289.921 190.396C289.935 190.277 289.767 190.085 289.796 189.971C289.824 189.866 290.078 189.818 290.099 189.71C290.122 189.591 289.943 189.407 289.972 189.29C290.002 189.174 290.246 189.14 290.277 189.026C290.307 188.913 290.122 188.72 290.152 188.607C290.181 188.493 290.423 188.456 290.456 188.343C290.471 188.283 290.348 187.977 290.33 187.923L290.203 187.504C290.203 187.439 290.489 187.309 290.507 187.24C290.53 187.153 290.348 186.894 290.382 186.82C290.425 186.732 290.621 186.61 290.687 186.553L290.993 186.284L291.603 185.74L291.726 186.158Z" fill="#BC0003"/>
<path d="M181.816 222.657C182.015 222.759 181.884 222.805 181.721 222.805L181.81 222.672" fill="#389789"/>
<path d="M181.667 223.079C181.559 223.076 181.513 223.09 181.588 223.176L181.77 223.213L181.673 223.062" fill="#389789"/>
<path d="M179.064 226.842C178.896 226.691 178.743 226.788 178.643 226.799C178.949 227.001 179.058 226.886 178.985 226.774" fill="#389789"/>
<path d="M179.452 225.946C179.346 225.935 179.19 225.971 179.406 226.063L179.452 225.946Z" fill="#389789"/>
<path d="M304.905 67.3502C304.997 67.382 304.918 67.3225 305.002 67.3723L305.062 67.4775C304.902 67.3889 304.901 67.3931 304.923 67.3267L305.043 67.4083" fill="#389789"/>
<path d="M303.418 68.0227C303.315 68.006 303.162 68.0254 303.374 68.1223L303.418 68.0227Z" fill="#389789"/>
<path d="M298.99 77.363L299.191 77.2869L299.279 77.3713" fill="#389789"/>
<path d="M356.963 89.9662L356.906 90.2042L356.662 89.9579L356.809 89.9275" fill="#389789"/>
<path d="M213.219 138.1L213.227 137.941L212.912 138C213.048 138.122 213.108 138.089 213.199 138.043" fill="#389789"/>
<path d="M212.776 138.37C212.897 138.565 212.717 138.605 212.543 138.571L212.755 138.392" fill="#389789"/>
<path fill-rule="evenodd" clip-rule="evenodd" d="M234.958 51.6499C234.958 51.6499 237.791 52.0249 240.158 54.6388C241.142 55.7251 241.951 56.3339 242.81 56.5982C244.176 57.0175 245.791 56.5096 245.791 56.5096C245.791 56.5096 244.413 58.2822 242.714 58.1176C240.947 57.9474 239.413 57.0175 237.743 55.7956C236.438 54.8422 235.162 55.9603 234.644 54.7869C233.629 52.5009 234.958 51.6499 234.958 51.6499Z" fill="#9B3403"/>
<path fill-rule="evenodd" clip-rule="evenodd" d="M349.905 101.641C342.807 101.641 337.054 105.587 337.054 110.457H362.757C362.757 105.587 357.003 101.641 349.905 101.641Z" fill="#BC0003"/>
</g>
<defs>
<clipPath id="clip0">
<rect width="467" height="247" fill="white"/>
</clipPath>
</defs>
</svg>
