<?xml version="1.0" encoding="UTF-8" standalone="no"?>
<!-- Generator: Adobe Illustrator 26.5.0, SVG Export Plug-In . SVG Version: 6.00 Build 0)  -->

<svg
   version="1.1"
   id="Capa_1"
   x="0px"
   y="0px"
   viewBox="0 0 1024 600"
   style="enable-background:new 0 0 1024 600;"
   xml:space="preserve"
   sodipodi:docname="svgGlo2bg.svg"
   inkscape:version="1.2.1 (9c6d41e410, 2022-07-14)"
   xmlns:inkscape="http://www.inkscape.org/namespaces/inkscape"
   xmlns:sodipodi="http://sodipodi.sourceforge.net/DTD/sodipodi-0.dtd"
   xmlns="http://www.w3.org/2000/svg"
   xmlns:svg="http://www.w3.org/2000/svg"><defs
   id="defs391" /><sodipodi:namedview
   id="namedview389"
   pagecolor="#ffffff"
   bordercolor="#000000"
   borderopacity="0.25"
   inkscape:showpageshadow="2"
   inkscape:pageopacity="0.0"
   inkscape:pagecheckerboard="0"
   inkscape:deskcolor="#d1d1d1"
   showgrid="false"
   inkscape:zoom="1.5947266"
   inkscape:cx="511.68647"
   inkscape:cy="299.73791"
   inkscape:window-width="3840"
   inkscape:window-height="2066"
   inkscape:window-x="-11"
   inkscape:window-y="-11"
   inkscape:window-maximized="1"
   inkscape:current-layer="Capa_1" />
<style
   type="text/css"
   id="style2">
	.st0{fill:#E52629;}
	.st1{fill:#3AAF72;}
	.st2{fill:none;stroke:#2A9282;stroke-width:2;}
	.st3{fill:#282727;fill-opacity:0.3;}
	.st4{fill:#E2CEA2;}
	.st5{fill:#82594A;fill-opacity:0.7;}
	.st6{fill:#BAC1BB;}
	.st7{fill:#FFFFFF;}
	.st8{fill:#41403C;fill-opacity:0.4;}
	.st9{fill:#E86D12;}
	.st10{fill:#F0811C;}
	.st11{fill:#020203;}
	.st12{fill:#36988A;}
	.st13{fill:#202020;}
	.st14{fill:#F8AA1A;}
	.st15{fill:none;stroke:#020203;stroke-width:1.574;stroke-linecap:round;}
</style>
<g
   id="g8"
   transform="matrix(1,0,0,1.0535641,0,-15.923249)">
	<path
   class="st0"
   d="M 911.7,295 C 929.9,146 781.9,63.3 671.2,32.9 c -110.8,-30.3 -430,89.7 -552,105.2 -122,15.4 138.6,161 -18.7,186.3 -157.4,25.4 -83.8,142.7 26.9,166.9 110.6,24.2 209.1,41.4 382.3,13.5 l 4,-0.6 C 686,476.4 893.5,443 911.7,295 Z"
   id="path4" />
	<path
   class="st1"
   d="m 234.6,496.4 c -36.1,44.5 12,52.9 118.4,66.2 106.4,13.3 437.7,-11.4 560.6,-11.5 122.9,-0.2 27.1,-21.5 68.3,-21.5 41.1,0 38.1,-37.6 8.2,-47.6 -29.9,-9.9 -370.2,-24.1 -392.5,-22.3 -22.5,1.5 -326.9,-8 -363,36.7 z"
   id="path6" />
</g>
<g
   id="g340"
   transform="matrix(1,0,0,1.0535641,0,-15.923249)">
	<path
   class="st2"
   d="m 479,229.8 -2.6,14.9"
   id="path10" />
	<path
   class="st2"
   d="m 458.2,237.8 -3.5,16"
   id="path12" />
	<path
   class="st2"
   d="m 573.2,262.7 -2.8,16.1"
   id="path14" />
	<path
   class="st2"
   d="m 526.8,238 -2.7,17.2"
   id="path16" />
	<path
   class="st2"
   d="m 544.1,250.1 -1.2,11.6"
   id="path18" />
	<path
   class="st2"
   d="m 499.8,245.2 -2,11.5"
   id="path20" />
	<path
   class="st2"
   d="m 585.2,248.1 2.6,-14.9"
   id="path22" />
	<path
   class="st2"
   d="m 606,240.1 3.5,-16"
   id="path24" />
	<path
   class="st2"
   d="m 490.9,215.2 2.8,-16.1"
   id="path26" />
	<path
   class="st2"
   d="m 537.4,239.9 2.7,-17.2"
   id="path28" />
	<path
   class="st2"
   d="m 520.1,227.8 1.2,-11.6"
   id="path30" />
	<path
   class="st2"
   d="m 564.4,232.7 2,-11.5"
   id="path32" />
	<path
   class="st2"
   d="m 439.7,225.7 2.4,-13.8"
   id="path34" />
	<path
   class="st2"
   d="m 460.9,218.6 3.3,-14.8"
   id="path36" />
	<path
   class="st2"
   d="m 349.1,194.8 2.6,-14.9"
   id="path38" />
	<path
   class="st2"
   d="m 393.7,217.8 2.5,-15.7"
   id="path40" />
	<path
   class="st2"
   d="m 377.2,206.5 1.1,-10.7"
   id="path42" />
	<path
   class="st2"
   d="m 419.6,211.2 1.8,-10.6"
   id="path44" />
	<path
   class="st2"
   d="m 337.7,208.1 -2.4,13.8"
   id="path46" />
	<path
   class="st2"
   d="m 317.8,215.4 -3.3,14.8"
   id="path48" />
	<path
   class="st2"
   d="M 428.3,239.1 425.7,254"
   id="path50" />
	<path
   class="st2"
   d="m 381.2,228 -2.5,15.7"
   id="path52" />
	<path
   class="st2"
   d="m 400.2,227.2 -1.1,10.7"
   id="path54" />
	<path
   class="st2"
   d="M 357.8,222.5 356,233.1"
   id="path56" />
	<path
   class="st2"
   d="m 533.4,305.6 -2.6,14.9"
   id="path58" />
	<path
   class="st2"
   d="m 512.6,313.6 -3.5,16"
   id="path60" />
	<path
   class="st2"
   d="m 627.6,338.5 -2.8,16.1"
   id="path62" />
	<path
   class="st2"
   d="M 581.2,313.8 578.5,331"
   id="path64" />
	<path
   class="st2"
   d="m 598.5,325.9 -1.2,11.6"
   id="path66" />
	<path
   class="st2"
   d="m 554.2,321.1 -2,11.5"
   id="path68" />
	<path
   class="st2"
   d="M 639.6,323.9 642.2,309"
   id="path70" />
	<path
   class="st2"
   d="m 660.4,316 3.5,-16"
   id="path72" />
	<path
   class="st2"
   d="M 545.2,291.2 548,275"
   id="path74" />
	<path
   class="st2"
   d="m 591.8,315.7 2.7,-17.2"
   id="path76" />
	<path
   class="st2"
   d="M 574.5,303.6 575.7,292"
   id="path78" />
	<path
   class="st2"
   d="m 618.7,308.5 2,-11.5"
   id="path80" />
	<path
   class="st2"
   d="m 494.1,301.5 2.4,-13.8"
   id="path82" />
	<path
   class="st2"
   d="m 515.3,294.4 3.3,-14.8"
   id="path84" />
	<path
   class="st2"
   d="m 403.5,270.6 2.6,-14.9"
   id="path86" />
	<path
   class="st2"
   d="m 448.2,293.6 2.5,-15.7"
   id="path88" />
	<path
   class="st2"
   d="m 431.5,282.3 1.1,-10.7"
   id="path90" />
	<path
   class="st2"
   d="m 474,287.2 1.8,-10.6"
   id="path92" />
	<path
   class="st2"
   d="m 392.1,284 -2.4,13.8"
   id="path94" />
	<path
   class="st2"
   d="M 372.2,291.2 368.9,306"
   id="path96" />
	<path
   class="st2"
   d="m 482.7,314.9 -2.6,14.9"
   id="path98" />
	<path
   class="st2"
   d="m 435.6,303.8 -2.5,15.7"
   id="path100" />
	<path
   class="st2"
   d="m 454.6,303.1 -1.1,10.7"
   id="path102" />
	<path
   class="st2"
   d="m 412.2,298.3 -1.8,10.6"
   id="path104" />
	<path
   class="st2"
   d="m 307,287.2 -2.6,14.9"
   id="path106" />
	<path
   class="st2"
   d="m 262.4,264.1 -2.5,15.7"
   id="path108" />
	<path
   class="st2"
   d="m 279,275.4 -1.1,10.7"
   id="path110" />
	<path
   class="st2"
   d="M 318.4,273.8 320.8,260"
   id="path112" />
	<path
   class="st2"
   d="m 338.4,266.6 3.3,-14.8"
   id="path114" />
	<path
   class="st2"
   d="m 274.9,253.8 2.5,-15.7"
   id="path116" />
	<path
   class="st2"
   d="m 298.3,259.4 1.8,-10.6"
   id="path118" />
	<path
   class="st2"
   d="m 480.8,426.9 2.8,-14.8"
   id="path120" />
	<path
   class="st2"
   d="m 501.9,419.4 3.9,-16"
   id="path122" />
	<path
   class="st2"
   d="m 387.2,392.3 3.1,-16.1"
   id="path124" />
	<path
   class="st2"
   d="m 433.2,417.7 3.1,-17"
   id="path126" />
	<path
   class="st2"
   d="m 416.1,405.4 1.4,-11.6"
   id="path128" />
	<path
   class="st2"
   d="m 460.3,411.2 2.2,-11.4"
   id="path130" />
	<path
   class="st2"
   d="m 374.9,406.6 -2.8,14.8"
   id="path132" />
	<path
   class="st2"
   d="m 354,414.1 -3.9,16"
   id="path134" />
	<path
   class="st2"
   d="m 468.6,441.2 -3.1,16.1"
   id="path136" />
	<path
   class="st2"
   d="m 422.7,415.7 -3.1,17"
   id="path138" />
	<path
   class="st2"
   d="m 439.7,428.2 -1.4,11.6"
   id="path140" />
	<path
   class="st2"
   d="m 395.5,422.4 -2.2,11.4"
   id="path142" />
	<path
   class="st2"
   d="m 520.1,431.8 -2.6,13.8"
   id="path144" />
	<path
   class="st2"
   d="m 498.7,438.4 -3.6,14.7"
   id="path146" />
	<path
   class="st2"
   d="m 610,464.5 -2.8,14.8"
   id="path148" />
	<path
   class="st2"
   d="m 565.8,440.7 -2.7,15.7"
   id="path150" />
	<path
   class="st2"
   d="M 582.3,452.2 581,462.9"
   id="path152" />
	<path
   class="st2"
   d="m 539.8,446.6 -2,10.6"
   id="path154" />
	<path
   class="st2"
   d="m 621.6,451.3 2.6,-13.8"
   id="path156" />
	<path
   class="st2"
   d="m 641.7,444.5 3.6,-14.7"
   id="path158" />
	<path
   class="st2"
   d="m 531.6,418.7 2.8,-14.8"
   id="path160" />
	<path
   class="st2"
   d="m 578.5,430.5 2.7,-15.7"
   id="path162" />
	<path
   class="st2"
   d="m 559.5,431 1.3,-10.7"
   id="path164" />
	<path
   class="st2"
   d="m 601.9,436.5 2,-10.6"
   id="path166" />
	<path
   class="st2"
   d="m 427.9,350 2.8,-14.8"
   id="path168" />
	<path
   class="st2"
   d="m 448.9,342.5 3.9,-16"
   id="path170" />
	<path
   class="st2"
   d="m 334.3,315.5 3.1,-16.1"
   id="path172" />
	<path
   class="st2"
   d="m 380.2,341 3.1,-17"
   id="path174" />
	<path
   class="st2"
   d="m 363.2,328.5 1.4,-11.6"
   id="path176" />
	<path
   class="st2"
   d="m 407.4,334.3 2.2,-11.4"
   id="path178" />
	<path
   class="st2"
   d="m 322.1,329.8 -2.8,14.8"
   id="path180" />
	<path
   class="st2"
   d="m 301,337.3 -3.9,16"
   id="path182" />
	<path
   class="st2"
   d="m 415.7,364.4 -3.1,16.1"
   id="path184" />
	<path
   class="st2"
   d="m 369.7,338.9 -3.1,17"
   id="path186" />
	<path
   class="st2"
   d="m 386.8,351.3 -1.4,11.6"
   id="path188" />
	<path
   class="st2"
   d="M 342.6,345.6 340.4,357"
   id="path190" />
	<path
   class="st2"
   d="m 467.1,355 -2.6,13.8"
   id="path192" />
	<path
   class="st2"
   d="m 445.8,361.6 -3.6,14.7"
   id="path194" />
	<path
   class="st2"
   d="m 557.1,387.6 -2.8,14.8"
   id="path196" />
	<path
   class="st2"
   d="m 512.8,363.8 -2.7,15.7"
   id="path198" />
	<path
   class="st2"
   d="M 529.3,375.3 528,386"
   id="path200" />
	<path
   class="st2"
   d="m 486.9,369.8 -2,10.6"
   id="path202" />
	<path
   class="st2"
   d="m 568.7,374.5 2.6,-13.8"
   id="path204" />
	<path
   class="st2"
   d="M 588.7,367.7 592.3,353"
   id="path206" />
	<path
   class="st2"
   d="M 478.7,341.8 481.5,327"
   id="path208" />
	<path
   class="st2"
   d="M 525.6,353.7 528.3,338"
   id="path210" />
	<path
   class="st2"
   d="m 506.6,354.1 1.3,-10.7"
   id="path212" />
	<path
   class="st2"
   d="m 548.9,359.7 2,-10.6"
   id="path214" />
	<path
   class="st2"
   d="M 653.8,372.8 656.6,358"
   id="path216" />
	<path
   class="st2"
   d="M 698,396.7 700.7,381"
   id="path218" />
	<path
   class="st2"
   d="m 681.6,385.2 1.3,-10.7"
   id="path220" />
	<path
   class="st2"
   d="m 642.2,386 -2.6,13.8"
   id="path222" />
	<path
   class="st2"
   d="m 622.1,392.8 -3.6,14.7"
   id="path224" />
	<path
   class="st2"
   d="m 685.3,406.8 -2.7,15.7"
   id="path226" />
	<path
   class="st2"
   d="m 661.9,400.8 -2,10.6"
   id="path228" />
	<path
   class="st2"
   d="M 622.6,78 620,92.9"
   id="path230" />
	<path
   class="st2"
   d="m 601.7,86 -3.5,16"
   id="path232" />
	<path
   class="st2"
   d="M 716.8,110.9 714,127"
   id="path234" />
	<path
   class="st2"
   d="m 670.3,86.2 -2.6,17.2"
   id="path236" />
	<path
   class="st2"
   d="m 687.7,98.3 -1.2,11.6"
   id="path238" />
	<path
   class="st2"
   d="m 643.4,93.5 -2,11.5"
   id="path240" />
	<path
   class="st2"
   d="m 728.8,96.3 2.6,-14.9"
   id="path242" />
	<path
   class="st2"
   d="m 749.6,88.4 3.5,-16"
   id="path244" />
	<path
   class="st2"
   d="m 571.9,87.2 -2.6,14.9"
   id="path246" />
	<path
   class="st2"
   d="m 524.8,76.2 -2.5,15.7"
   id="path248" />
	<path
   class="st2"
   d="m 570,199.2 2.8,-14.8"
   id="path250" />
	<path
   class="st2"
   d="m 591,191.7 3.9,-16"
   id="path252" />
	<path
   class="st2"
   d="m 476.4,164.7 3.1,-16.1"
   id="path254" />
	<path
   class="st2"
   d="m 522.4,190.1 3.1,-17"
   id="path256" />
	<path
   class="st2"
   d="m 505.3,177.7 1.4,-11.6"
   id="path258" />
	<path
   class="st2"
   d="m 549.5,183.5 2.2,-11.4"
   id="path260" />
	<path
   class="st2"
   d="m 464.1,178.9 -2.8,14.8"
   id="path262" />
	<path
   class="st2"
   d="m 443.2,186.6 -3.9,16"
   id="path264" />
	<path
   class="st2"
   d="m 557.8,213.6 -3.1,16.1"
   id="path266" />
	<path
   class="st2"
   d="m 511.7,188.1 -3.1,17"
   id="path268" />
	<path
   class="st2"
   d="m 528.9,200.5 -1.4,11.6"
   id="path270" />
	<path
   class="st2"
   d="m 484.7,194.8 -2.2,11.4"
   id="path272" />
	<path
   class="st2"
   d="M 609.2,204.2 606.6,218"
   id="path274" />
	<path
   class="st2"
   d="m 587.9,210.8 -3.6,14.7"
   id="path276" />
	<path
   class="st2"
   d="m 699.2,236.9 -2.8,14.8"
   id="path278" />
	<path
   class="st2"
   d="m 654.9,213 -2.7,15.7"
   id="path280" />
	<path
   class="st2"
   d="M 671.3,224.5 670,235.2"
   id="path282" />
	<path
   class="st2"
   d="m 629,219 -2,10.6"
   id="path284" />
	<path
   class="st2"
   d="m 710.8,223.7 2.6,-13.8"
   id="path286" />
	<path
   class="st2"
   d="m 730.8,216.9 3.6,-14.7"
   id="path288" />
	<path
   class="st2"
   d="m 620.8,191 2.8,-14.8"
   id="path290" />
	<path
   class="st2"
   d="m 667.7,202.9 2.7,-15.7"
   id="path292" />
	<path
   class="st2"
   d="M 648.7,203.4 650,192.7"
   id="path294" />
	<path
   class="st2"
   d="m 691,208.9 2,-10.6"
   id="path296" />
	<path
   class="st2"
   d="m 517,122.4 2.8,-14.8"
   id="path298" />
	<path
   class="st2"
   d="m 538.1,114.9 3.9,-16"
   id="path300" />
	<path
   class="st2"
   d="m 423.5,87.8 3.1,-16.1"
   id="path302" />
	<path
   class="st2"
   d="m 496.6,106.6 2.1,-11.5"
   id="path304" />
	<path
   class="st2"
   d="m 504.8,136.7 -3.1,16.1"
   id="path306" />
	<path
   class="st2"
   d="m 475.9,123.7 -1.4,11.6"
   id="path308" />
	<path
   class="st2"
   d="m 556.3,127.3 -2.6,13.8"
   id="path310" />
	<path
   class="st2"
   d="m 535,133.9 -3.6,14.7"
   id="path312" />
	<path
   class="st2"
   d="m 646.2,160 -2.8,14.8"
   id="path314" />
	<path
   class="st2"
   d="m 602,136.1 -2.7,15.7"
   id="path316" />
	<path
   class="st2"
   d="m 618.5,147.7 -1.3,10.7"
   id="path318" />
	<path
   class="st2"
   d="m 576,142.1 -2,10.6"
   id="path320" />
	<path
   class="st2"
   d="M 657.8,146.8 660.4,133"
   id="path322" />
	<path
   class="st2"
   d="m 677.9,140 3.6,-14.7"
   id="path324" />
	<path
   class="st2"
   d="m 567.9,114.2 2.8,-14.8"
   id="path326" />
	<path
   class="st2"
   d="m 614.8,126 2.7,-15.7"
   id="path328" />
	<path
   class="st2"
   d="M 595.7,126.5 597,115.8"
   id="path330" />
	<path
   class="st2"
   d="m 638.1,132 2,-10.6"
   id="path332" />
	<path
   class="st2"
   d="m 742.9,145.2 2.8,-14.8"
   id="path334" />
	<path
   class="st2"
   d="m 731.4,158.3 -2.6,13.8"
   id="path336" />
	<path
   class="st2"
   d="m 711.3,165.2 -3.6,14.7"
   id="path338" />
</g>
<g
   id="g352"
   transform="matrix(1,0,0,1.0535641,0,-15.923249)">
	<path
   class="st3"
   d="M 31.1,134.3 84.6,74.2 138.7,73.7 246.8,72.6 354.9,71.5 409,71 l 54.7,59.1 0.6,59.6 1.2,119.2 L 33,313 31.6,194 Z"
   id="path342" />
	<path
   class="st4"
   d="m 32,125.6 54.9,-61.3 55.5,-0.5 110.9,-1.1 110.9,-1.1 55.5,-0.5 56.1,60.3 0.6,60.9 1.2,121.8 -443.7,4.2 -1.2,-121.8 z"
   id="path344" />
	
		<rect
   x="229.10001"
   y="62.700001"
   transform="matrix(1,-0.00949914,0.00949914,1,-0.7805,2.4106)"
   class="st5"
   width="48.5"
   height="41.400002"
   id="rect346" />
	<circle
   class="st6"
   cx="253.89999"
   cy="82"
   r="10.2"
   id="circle348" />
	<circle
   class="st7"
   cx="253.8"
   cy="86"
   r="10.2"
   id="circle350" />
</g>
<g
   id="g386"
   transform="matrix(1,0,0,1.0535641,0,-15.923249)">
	<path
   class="st8"
   d="m 601.1,506.9 c 2.1,-0.9 4.8,-0.8 7.4,-1.2 0.6,-0.2 1.4,-0.2 1.8,-0.8 l -1.9,-0.5 c -1.3,-0.4 -2.6,-0.4 -3.9,-0.5 -0.6,0 0.2,-0.6 -1.1,-0.6 -4.8,0.2 -12.3,-0.5 -18.2,-0.9 l 0.4,-0.2 c -1.2,-0.1 -2.5,0.5 -3.6,0.5 0,-0.1 0.4,-0.2 0.1,-0.4 -0.2,0.4 -2.1,0.2 -2.6,0.6 -0.5,-0.1 -0.5,-0.4 -1.1,-0.5 l -0.6,0.5 c -1.8,1.1 -4.6,0.4 -7.1,1.1 0.1,-0.1 0.4,-0.2 0.1,-0.2 -4,1.1 -9,1.6 -13.5,2.9 0.1,-0.1 0.2,-0.5 0,-0.6 -0.1,0.5 -1.5,0.8 -2.6,1.3 -0.7,-0.2 -1.9,0.9 -3.3,1.2 l 0.1,-0.1 c -0.8,0.7 -1.5,0.4 -2.1,1.2 h -0.7 c 0.1,0.6 -2.2,0.8 -1.5,0.5 V 510 c 0.6,0 1.1,0.4 1.9,0.4 l 0.1,0.1 c 1.8,0 2.8,0.4 2.8,-0.1 0.6,0.4 -1.8,0.1 -0.8,0.7 6,-0.2 12,-0.4 18,-0.5 0.7,0.1 1.1,0.2 1.3,0.4 0.6,-0.1 2.2,-0.1 2.8,-0.4 -0.2,0 0.4,0.2 0.7,0.2 1.1,0.1 1.2,-0.6 2.4,-0.4 -0.5,0.1 -0.6,0.2 -0.5,0.5 1.1,-0.4 2.4,-0.4 3.5,-0.5 -0.2,0.1 -0.5,0.1 -0.5,0.2 1.3,-0.5 2.4,0 3.5,-0.2 l -0.5,0.2 c 1.9,0.2 0.6,-0.6 2.1,-0.5 -0.4,0.1 -0.2,0.2 -0.4,0.4 1.5,-0.5 3.9,-0.5 5.4,-0.6 -0.1,0 -0.1,0.1 -0.1,0.1 1.6,-0.1 3.3,0 5.1,-0.2 0.7,0.1 -0.2,0.6 1.5,0.5 -0.1,-0.5 2.9,-0.4 1.9,-0.8 1.5,0 3.8,0.1 4.8,-0.1 -0.7,0.2 0.7,0.6 -0.5,0.7 l 0.9,0.2 c -0.1,0.2 -0.9,0 -0.7,0.2 0.6,0 2.4,-0.4 2.9,-0.4 1.2,-0.4 2.1,-1.1 4,-1.2 -0.8,0.2 0.5,0.6 0,0.7 l 2.5,-1.2 c 0.6,-0.1 0.1,0.4 1.1,0.2 0,-0.1 0.4,-0.2 0.6,-0.4 0.2,0 2.5,-0.4 2.8,0.1 0.2,0.1 -0.9,0.2 -0.2,0.4 1.2,-0.1 1.2,-0.2 2.2,-0.5 v 0.1 c 0.7,0 2.1,-0.5 1.3,-0.7 -0.5,0 0.2,0.2 -0.6,0.2 0.5,-0.4 1.8,-0.6 2.8,-0.8 -0.4,0.1 -0.2,0.2 -0.5,0.5 0.7,-0.4 1.4,-0.6 2.1,-0.8 0.2,0.2 0.8,-1.2 0,0.6 0.9,1.8 0.1,0.5 -0.1,0.8 -0.1,0.2 0.7,-0.2 0.6,-0.1 -1.2,-0.7 -4.2,-0.2 -5.8,-0.9 0.2,0 0.1,0.4 0.1,0.4 -1.1,-0.2 -0.9,-0.5 -1.6,-0.5 0,-0.2 -0.8,0 -1.5,0 -0.4,0.1 -0.1,-0.1 0.5,-0.1 -0.9,0 -4.8,0 -7.1,-0.5 0,0.1 -1.4,0.4 -1.9,0.4 l 0.2,-0.4 c -0.5,-0.2 -1.8,-0.1 -1.8,-0.4 -1.2,0.4 4.2,-0.1 2.7,0.1 -0.4,-0.2 -2.1,0.4 -1.8,0 -1.1,0 -2.1,0.2 -3.1,-0.1 0.2,0.1 0.8,-0.4 0,-0.5 -1.5,0 -0.5,0.1 -1.6,0.2 l -0.7,0.1 c -0.1,0.4 -1.3,-0.1 -0.8,0.2 -0.1,-0.2 -2.1,0.1 -2,-0.5 l 0.2,-0.4 c -0.6,0 -1.1,0.4 -1.5,0.6 -0.1,0 -0.2,-0.1 -0.2,-0.2 -0.1,0.6 -1.5,-0.1 -2.4,0.4 -1.3,-0.2 -3.4,-0.1 -4,-0.5 -1.1,0.1 -2,0.4 -3.2,0.2 0.2,0 0.6,-0.1 0.6,-0.2 -0.7,-0.2 -0.9,0 -1.6,0.1 0.1,-0.1 -1.5,-0.4 -2.4,-0.6 -1.1,0.1 -0.7,0.5 -0.8,0.7 -0.9,-0.6 -2.9,0.4 -4.1,-0.2 0.4,-0.1 1.5,-0.2 0.7,-0.5 -0.9,-0.6 -1.9,0.5 -3.4,0.1 l 0.4,0.5 c -0.7,-0.4 -2.2,0.2 -2.1,-0.2 -0.5,0.1 -1.8,-0.2 -1.6,0.2 -2.5,-0.5 -6.1,0 -7.5,-0.9 -0.4,0.1 -1.3,0 -1.1,0.2 0.6,0.4 0.8,-0.1 1.1,0 -0.4,0 -0.4,0.1 -0.5,0.2 -0.8,-0.1 -1.4,-0.2 -0.6,-0.6 -1.8,-0.4 -1.8,0.8 -4,0.5 0.1,-0.2 0,-0.2 -0.7,-0.2 l -1.2,0.4 c -1.4,-0.1 -0.8,-0.5 -0.8,-0.8 -0.7,0 -1.6,0 -2,0.2 l -0.9,-0.5 c 0.7,0.4 -0.6,0.2 -0.9,0.2 l 0.4,-0.1 c -0.1,-0.1 -1.1,-0.1 -1.4,0 0.1,0.2 0.9,0.4 1.5,0.4 -0.4,0.1 -0.9,0.1 -1.5,0.2 0.2,-0.4 -1.2,-0.2 -1.8,-0.4 -0.7,-0.1 -0.8,0.4 -0.9,0.2 0,-0.2 -1.2,0 -0.6,-0.2 0.2,0 0.6,0.2 0.9,0 -0.5,-0.1 -0.4,-0.5 -1.3,-0.2 -0.7,0.1 0.1,0.7 -1.2,0.5 0.4,-0.1 0.5,-0.2 0.7,-0.4 l -1.3,-0.2 v 0.4 c -0.1,-0.1 0,-0.1 -0.1,-0.1 -0.4,0.4 -1.9,0.1 -2.2,0.5 -0.6,0 -1.3,-0.2 -1.9,-0.2 h 0.1 c -0.7,-0.1 -1.8,0 -2.4,0.2 v -0.1 c -0.4,0 -1.3,0 -1.9,0.2 -1.1,-0.2 -0.4,-1.2 -1.5,-0.7 -1.1,0 -1.5,0.6 -1.2,0.8 -1.9,-0.1 -3.9,0.6 -5.6,0.2 -0.2,0.1 -0.1,0.2 -0.6,0.4 -2.7,0.1 -5.5,1.2 -7.8,1.1 0.7,-0.2 0,-0.4 -0.1,-0.5 -0.6,0.5 -0.8,-0.1 -0.9,0.5 0.1,0.2 0.1,0.4 0.8,0.4 -0.7,0.2 -1.8,0.6 -2.5,0.8 -0.4,0 -0.8,0.4 -0.4,0 0.2,-0.4 0.2,-0.2 0.4,-1.2 -0.1,-0.9 -0.7,-1.3 -0.6,-1.2 -0.2,-0.1 -0.4,-0.1 -0.2,-0.1 -0.1,-0.1 0,-0.2 0.2,-0.2 -0.4,0.4 0.7,0.7 1.6,0.6 l 0.1,-0.2 0.6,0.4 c 0.4,0 0.5,-0.6 1.3,-0.2 0,0.1 0.1,0.2 0.2,0.4 0.9,-0.1 2.2,-0.5 3.3,-0.2 l 0.8,0.5 c 0.5,0 1.2,-0.2 0.5,-0.4 1.8,0.4 2.8,0.4 3.4,0.7 3.1,-0.7 7.4,-0.7 10.9,-0.6 l -0.1,0.2 c 0.9,0.2 0.5,-0.4 1.2,-0.2 -0.4,0.2 0.7,0.5 0,0.7 1.3,0.2 1.8,-0.4 2.6,-0.5 0.1,-0.2 -0.7,0.1 -0.6,-0.2 0.1,-0.1 1.9,0.2 2.1,-0.1 0.4,0.1 0.1,0.5 -0.1,0.6 l 0.8,-0.2 c 1.1,0.5 -2.4,0.8 -1.3,1.4 h 0.7 c 0.7,0.5 -2,0.5 -0.1,0.6 0.8,-0.2 1.5,-0.8 0.8,-0.9 1.8,-0.1 0.8,-0.9 2.7,-0.9 0.5,0.2 -1.5,0 -1.2,0.4 0.8,0.4 1.8,-0.1 2.6,0 -0.8,-0.1 -0.1,-0.6 0.5,-0.6 0.9,0.2 -0.6,0.4 0.7,0.5 0.2,-0.2 1.4,-0.4 0.4,-0.6 0.5,-0.5 1.4,0.2 2.1,-0.2 0.5,0.4 -1.4,0.8 0.1,1.1 -0.2,-0.4 1.9,-0.5 1.1,-1.1 0.6,0.1 0.6,0.4 0.2,0.6 0.8,0.2 2,-0.6 2.2,0.1 l 0.4,-0.4 c 0.2,0.1 0.6,0.2 1.1,0.5 0.7,0 2.4,-0.4 2.2,0.1 0.2,0 1.9,0.1 1.3,-0.4 -1.1,-0.4 -1.2,0.2 -1.8,-0.4 0.7,0.5 1.5,0 2.1,-0.1 -0.1,0.1 0,0.1 0,0.2 0.4,-0.1 1.2,0 1.4,-0.2 -0.2,0.1 -0.1,0.2 0.1,0.4 l 0.4,-0.4 c 1.4,-0.1 0.4,0.6 1.8,0.6 l -1.1,0.2 c 0.2,0 0.7,0.4 1.4,0.2 0.2,-0.2 0.8,-0.6 1.1,-0.8 0.8,-0.1 0.4,0.4 1.2,0.1 l -1.1,0.4 c -0.1,0.1 0.7,0.6 1.8,0.6 0.7,-0.1 1.8,-0.5 0.7,-0.7 0.5,0 1.3,0.2 0.8,0.5 1.2,0 -0.1,-0.4 0.9,-0.5 0.4,0.2 1.6,0.6 2.5,0.9 l -1.1,0.5 h 0.7 c -0.9,0.4 0.5,0.4 -0.1,0.7 0.5,0.1 1.1,0 1.5,-0.1 -1.4,-0.8 1.6,-0.8 1.3,-1.5 2,0 1.2,1.6 3.2,0.7 -0.4,-0.2 0.7,-0.6 -0.6,-0.5 1.2,0.1 0.8,-0.6 2.2,-0.2 -1.1,0.2 1.1,0.7 -0.5,0.9 0.1,-0.2 -0.8,-0.2 -1.1,-0.1 0.5,0.2 -0.1,0.6 1.1,0.7 0.7,0 1.8,0 1.6,-0.2 0,-0.4 -1.2,0 -0.7,-0.4 1.5,0 1.8,0.6 2.4,0 -0.9,0 -1.2,-0.4 -1.2,-0.6 l 1.2,-0.1 -0.2,0.2 c 1.8,0.2 0.6,-0.4 2.2,-0.2 l 0.8,0.5 c -0.5,0.4 -2.5,-0.4 -2.2,0.4 1.2,0.1 1.5,-0.2 2.6,0 l -0.8,0.1 c 0.4,0 0.7,0.9 2.4,0.6 0.8,-0.1 0.2,-0.2 0.2,-0.5 1.8,0 2.4,-0.1 3.5,-0.1 -0.2,0.5 2,0.2 0.7,0.6 -0.6,-0.4 -3.2,-0.5 -3.9,0 0.6,0.6 -1.4,-0.1 -1.9,0.4 1.4,0.1 1.3,0.7 1.5,1.1 0.4,0 0.8,-0.1 1.1,-0.1 0.2,-0.4 -0.4,-0.4 -0.4,-0.7 1.6,0.2 3.2,0.1 4.1,-0.1 0.5,0.2 0.4,0.6 -0.4,0.6 1.9,0 4,0.2 5.8,0.5 -1.2,-0.6 2,0 1.3,-0.5 -0.9,-0.2 -1.8,-0.6 -1.2,-0.8 0.6,0.1 0,0.2 0.2,0.4 0.8,-0.2 1.2,0.6 2,0.1 -1.8,0.1 -0.4,0.7 -0.7,1.1 1.3,-0.1 -0.1,0.4 1.2,0.4 1.3,-0.1 2.8,-0.2 4.2,-0.2 1.8,0.5 4.5,0.2 6,0.4 0.8,0.2 0.2,0.7 1.1,0.8 1.1,0 -0.7,-0.6 0.8,-0.2 l -0.1,0.1 c 0.5,-0.1 2.8,0.5 3.3,-0.2 l -0.5,0.5 c 0.2,0.1 0.6,0 0.8,-0.1 0,0.1 0.4,0.4 -0.1,0.5 0.9,0.5 2,0 3.1,0.1 l -0.7,-0.4 c 1.8,-0.1 2.9,0.2 4.7,0.1 l -0.1,0.4 1.1,-0.1 c -0.2,0.2 0.7,0.5 1.2,0.2 l -2.7,0.7 c -0.7,-0.2 0.8,-0.4 0.4,-0.7 -0.4,-0.2 -2,-0.2 -2.2,0 0.6,0.1 0.6,0 1.2,-0.1 0.2,0.5 -0.7,0.4 -1.2,0.7 0.4,0 0.8,0.1 0.8,0 -0.6,0.2 -1.3,0.2 -2.4,0.1 0.7,-0.1 -0.4,-0.2 -0.1,-0.4 -0.1,0.4 -1.1,0.5 -2.4,0.2 -0.9,-0.5 -2.5,0.1 -3.9,0 0.6,-0.4 1.4,-0.6 2.4,-0.7 -0.9,-0.2 -1.1,0 -2,-0.2 -0.5,0.2 -0.8,0.7 -2,0.8 V 513 c -1.2,0.1 -1.2,0.5 -2.6,0.4 -2.5,-0.2 -4.9,-0.5 -6.7,-0.6 v -0.2 c -1.1,0.6 -3.4,0 -4.8,0.2 -2.4,-0.5 -5.2,-0.1 -6.3,-0.6 -4.2,0 -7.9,-0.1 -12.1,-0.5 l 0.7,-0.4 c -0.8,0.2 -0.5,-0.2 -1.3,-0.2 0.8,0.4 -1.1,0.4 -1.6,0.6 -1.9,-0.5 -4.3,-0.2 -6.1,-0.1 v -0.2 c -1.8,0.5 -3.8,-0.2 -5.9,-0.4 -0.2,-0.1 -0.6,-0.5 -1.3,-0.5 -1.2,0.4 -1.8,0.4 -3.5,0.5 -1.2,-0.1 -3.2,-0.2 -4.5,-0.5 -4.7,0.5 -9.4,0 -14.3,0.4 l -0.4,-0.4 c -4.7,0.6 -10.6,-0.1 -14.6,0.1 l 0.4,-0.6 c -1.3,-0.2 -2.9,0 -2.6,0.5 -1.3,-0.2 -3.2,0.1 -4,-0.4 -1.3,-0.2 -1.6,0.1 -2.8,0.1 -1.5,-0.5 -1.9,0 -4.2,-1.4 -1.6,-1.9 0.4,-3.8 0.6,-3.6 0.4,-0.2 0.8,-0.5 1.1,-0.5 0.6,-0.2 1.1,-0.4 1.8,-0.6 l -0.6,0.1 c -0.2,0.2 -0.2,0.5 0.5,0.4 0.8,-0.5 3.4,-0.7 2.4,-1.2 2.7,-0.2 6.1,-1.5 8.8,-1.2 -0.2,-0.1 0.4,-0.2 0.7,-0.5 2.4,-0.2 4.8,0 6.7,-0.4 0.4,0.1 -0.6,0.4 0.4,0.4 0.6,-0.1 0,-0.2 0.7,-0.4 3.8,-0.5 7.6,0.2 11,0.2 6,-0.2 12.3,0.2 18.1,0.4 l -0.1,0.1 c 1.9,-0.5 4.5,0.7 6,0 0.5,0.1 1.8,0.1 1.4,0.4 1.5,-0.4 4.2,0.5 6.5,0 -0.2,0 -0.4,0 -0.6,0.1 2.2,0.4 4.2,0 6.6,0.2 -0.2,0 -0.7,0.1 -0.7,0.2 0.9,0.2 2.2,-0.6 2.7,0.1 0.5,0 0.4,-0.4 0,-0.4 5.2,0.4 10.7,0 16.1,0.1 3.9,0.6 0.1,1.2 3.3,0.8 0.2,0.1 0.2,-0.2 0.2,-0.1 1.2,-0.1 1.8,0.8 2.6,0.6 -0.4,-0.5 0.6,-0.2 0.6,-0.5 2.4,0.5 2.8,0.9 4.7,0.8 l -0.1,0.2 c 2.2,-0.5 4.7,0.4 6.7,0 0.5,0.1 0.5,0 1.4,0.2 0.2,0.1 0.5,0.1 0.9,0.4 -0.1,0.2 2.1,0.2 1.4,3.5 -2.9,2.9 -2.7,1.5 -3.8,2.2 -1.6,0.4 -3.1,0.6 -4.6,0.7 -2.9,0.4 -6,0.7 -8.9,0.9 -5.9,0.5 -11.8,0.9 -17.6,1.1 -11.5,0 -22.9,0.9 -34.8,0.6 -2.8,-0.6 -2.9,-0.6 -6.1,-0.4 0.1,-0.1 0.4,-0.1 0.1,-0.2 -0.1,0.5 -2.2,-0.1 -2.6,0.4 -0.6,-0.1 -1.2,-0.1 -2,-0.4 -0.2,-0.1 -0.4,0 -0.9,-0.4 -0.2,-0.1 -0.4,-0.1 -0.8,-0.5 -0.8,-0.6 -1.2,-2.4 -0.8,-2.8 0.7,-1.9 1.5,-1.9 1.5,-2 0.4,-0.2 0.6,-0.2 0.7,-0.4 0.4,-0.1 2,-0.9 2.9,-1.3 2.1,-0.8 4.2,-1.5 6.5,-2.1 -0.7,0.2 -0.9,0.7 -0.1,0.5 l 0.8,-0.5 0.2,0.1 c 0.6,-0.2 1.2,-0.6 0.5,-0.6 11.3,-2.8 22.6,-2.8 33.7,-3.1 2.7,0.2 6.5,0.1 9.4,0.2 2.1,0.4 4.2,0.7 6.3,1.2 1.1,0.2 2.1,0.5 3.1,0.8 l 0.8,0.2 0.4,0.1 v 0 0 c 0.1,1.6 -0.4,-3.6 0.4,3.6 v 0 0 h -0.1 l -0.2,0.1 c -0.6,0.2 -1.2,0.5 -1.8,0.6 -5.1,0.2 -7.3,0.9 -13.3,1.2 0.3,0.4 2,-0.8 5.3,-1.5 z"
   id="path354" />
	<path
   class="st9"
   d="m 555.9,260.5 c 0,0 12.2,-8.1 18.7,-12.3 6.5,-4.2 23.5,-13.6 23.9,-12.5 0.4,1.2 -3.5,12.6 -6.6,25.2 -2.5,10.2 -8.1,13.8 -8.1,13.8 z"
   id="path356" />
	<path
   class="st10"
   d="m 741.5,431.1 c -27.5,6.9 -49.1,3.2 -63.1,-0.8 -10.3,-2.9 -24.6,-7.3 -39.4,-3.9 -12.3,2.8 -29.5,16.6 -29.5,16.6 0,0 4.5,-43.8 -28.6,-87.6 -1.9,-2.5 -2.8,-5.5 -3.1,-8.7 0,0 -62.3,13.8 -62.1,14.2 20.1,34 16.3,72.4 17.9,91.2 1.6,18.9 7.2,42.4 7.2,42.4 0,0 -27.4,-0.8 -23.4,4.7 4,5.5 14.6,0.1 14.6,0.1 0,0 -3.1,7.1 0.1,7.8 3.2,0.8 7.3,-6.1 7.3,-6.1 0,0 -0.9,5.4 5.5,6.2 6.3,0.7 7.9,-3.3 6.2,-10.3 -1.6,-7.1 -1.3,-33.4 -0.7,-33.7 0.7,-0.6 40.1,0 40.1,0 l 2.7,30.7 c 0,0 -21.2,4.7 -18.7,7.9 2.4,3.2 12.6,-1.4 12.6,-1.4 0,0 -7.8,5.6 -2.9,7.1 4.8,1.4 9.5,-3.2 9.5,-3.2 -2.6,10.6 13,4.7 10.5,-4.8 V 460 c 0,0 15.9,25 45.6,25.2 36.9,0.1 85.7,-30.6 101.7,-47 16.1,-16.7 9.9,-12 -10,-7.1 z"
   id="path358" />
	<path
   class="st10"
   d="m 583.3,343.6 c 0,0 2.9,1.4 6,3.2 5.1,2.9 6.9,11.6 6.9,4.8 0,-6.7 -6.2,-14.9 -6.2,-14.9 0,0 3.9,-2.9 15,2.4 7.3,3.4 -5.8,-13.8 -5.8,-13.8 0,0 9.6,1.9 15.9,3.5 3.2,0.8 -14.2,-16.9 -14.2,-16.9 0,0 -0.2,-1.3 2.1,-6.9 1.2,-2.8 0.6,-12.8 0.6,-12.8 0,0 10.7,-17.9 14.5,-24.9 3.8,-7 5.9,-15.5 5.9,-15.5 0,0 -20.6,6.5 -31.3,11.5 -7.8,3.6 -14.9,9.2 -14.9,9.2 0,0 1.3,-5.3 -16.8,-13.6 -7.5,-3.5 -34.9,-5.6 -48.8,-4 -10.8,1.2 -38.9,-4 -44.1,-4.9 -8.8,-1.5 -37.6,-5.2 -40,0.7 -2.2,5.9 2.5,13.5 15.4,26.7 12.7,12.9 59.8,41.1 66.2,69.7 l 19.7,17.9 46.9,-8.1 c 2,-7.2 7,-13.3 7,-13.3 z"
   id="path360" />
	<path
   class="st10"
   d="m 532.2,373.9 c 0,0 -3.8,11.2 -6.5,18.5 -2.7,7.3 -7.2,12.1 -9.2,13.4 -2,1.3 -13.4,1.9 -12.6,5.9 0.6,2.6 6.1,2.7 6.1,2.7 0,0 -2.5,3.6 -2,6.3 0.7,4.1 7.4,-1.6 7.4,-1.6 0,0 -4.7,9.5 1.8,10.7 4,0.7 7.6,-5.5 9,-18.8 1.4,-12.8 14.9,-31.7 14.9,-31.7"
   id="path362" />
	<path
   class="st7"
   d="m 523.3,383.2 c 7.1,31.8 8.8,36 8.3,68.6 9,0.2 24,-0.7 32.6,0 0.7,-5.5 0.2,-11.4 -0.7,-17 -7.5,-49.2 -21.4,-62.4 -28.8,-76.2 -4.7,-8.6 -22.4,-28 -39.1,-36.1 8.4,11.2 24.5,46.7 27.7,60.7 z"
   id="path364" />
	<path
   class="st11"
   d="m 438.1,245.9 c -9.6,-0.8 -22.8,-2.4 -18.1,6 5.8,10 19.2,20.7 19.2,20.7 0,0 10.3,-18.3 10.7,-25.3 -0.1,0.1 -8.3,-1.2 -11.8,-1.4 z"
   id="path366" />
	<path
   class="st7"
   d="m 580.7,275.2 c 0,0 22,-10.8 21.6,-8.6 -0.4,2.2 -7.2,18.8 -7.2,18.8 0,0 -5.1,-4.7 -7.2,-5.9 -1.9,-1.3 -7.2,-4.3 -7.2,-4.3 z"
   id="path368" />
	<path
   class="st7"
   d="m 580.3,251.8 c 1.5,-0.2 1.2,1.6 0.1,4.9 -1.1,3.2 -4.1,11.9 -4.1,11.9 L 565,261.7 c 0,-0.2 13.7,-9.7 15.3,-9.9 z"
   id="path370" />
	<path
   class="st7"
   d="m 550.1,286.9 c -2.6,6.7 -11.5,9.8 -19.5,6.8 -6,-2.2 -10.5,-11.2 -3.5,-18.8 6.3,-7.1 12,-6.9 18,-3.8 5.4,3 7.5,9.1 5,15.8 z"
   id="path372" />
	<path
   class="st11"
   d="m 536.1,276 c -0.5,1.2 0.1,2.4 1.3,2.8 1.2,0.5 2.5,-0.1 2.8,-1.3 0.5,-1.2 -0.1,-2.4 -1.3,-2.8 -1.2,-0.4 -2.5,0.1 -2.8,1.3 z"
   id="path374" />
	<path
   class="st12"
   d="m 530.1,432.9 c 0,0 38.8,0.7 52.5,0 13.7,-0.7 27,-4.8 27,-4.8 0,0 0.5,13.5 0,24.6 -0.6,12.5 -2.7,23 -2.7,23 0,0 -22.6,-3.3 -26.7,-2.7 l -1.3,-7.1 -27.1,-2.1 v 7.6 h -20.6 z"
   id="path376" />
	<path
   class="st11"
   d="m 550.9,433.2 c 0,0 -3.4,-48.4 1.9,-58.2 7.2,-13.3 33.4,-14.3 33.4,-14.3 l -2.6,-3.5 c 0,0 -25.7,-2.5 -37.3,18.2 -5.9,10.5 -3.5,57.8 -3.5,57.8 z"
   id="path378" />
	<path
   class="st13"
   d="m 542.1,437.9 8.3,0.4 0.5,-5.1 -8.3,-0.1 z"
   id="path380" />
	<path
   class="st14"
   d="m 573.2,374.8 c 0,-3.6 -6.1,-3.1 -6.7,-3.1 -2.9,0.1 -11.9,-0.1 -19.7,-4.8 -15.7,-9.4 -13.3,-14.6 -14.3,-16.7 -1.1,-2.1 0.1,-11.2 -2.4,-12.2 -2.5,-1 -4.6,3.4 -4.6,3.4 0,0 -3.2,-5.3 -6,-5.1 -4.2,0.2 -0.2,6.7 -0.5,8 -0.2,1.2 -7.4,-3.6 -9.3,2.6 -1.2,3.8 6.9,6.3 12.3,12 22.9,23.9 40.4,22.3 44.4,21.6 0.7,0 6.8,-1.4 6.8,-5.7 z"
   id="path382" />
	<path
   class="st15"
   d="m 518.1,313.5 c 0,0 6.9,2.8 8.9,9"
   id="path384" />
</g>
</svg>
