<svg width="446" height="200" viewBox="0 0 446 200" fill="none" xmlns="http://www.w3.org/2000/svg">
<path fill-rule="evenodd" clip-rule="evenodd" d="M274.512 93.2147C274.44 88.1907 272.645 46.5634 241.856 33.501C211.066 20.4386 184.941 51.2285 184.941 51.2285C184.941 51.2285 181.208 -6.25339 143.887 0.561362C106.566 7.37611 107.499 40.0322 107.499 40.0322C107.499 40.0322 95.2411 20.2372 74.8434 26.9698C52.2306 34.4337 56.1838 55.278 56.1838 55.278C56.1838 55.278 43.6527 40.0767 25.0928 51.2285C6.53152 62.381 -3.53067 82.0178 1.13373 103.478C5.79947 124.937 24.2537 152.928 137.72 142.666C251.186 132.402 275.019 128.67 274.512 93.2147Z" fill="#D4CCB4"/>
<path fill-rule="evenodd" clip-rule="evenodd" d="M378.275 147.779C378.201 142.761 376.346 101.197 344.525 88.1535C312.704 75.1106 285.705 105.855 285.705 105.855C285.705 105.855 281.847 48.4586 243.276 55.2632C204.705 62.0677 205.67 94.675 205.67 94.675C205.67 94.675 193.001 74.9096 171.921 81.6321C148.55 89.0849 152.636 109.898 152.636 109.898C152.636 109.898 139.685 94.72 120.504 105.855C101.321 116.99 90.9224 136.598 95.743 158.025C100.564 179.453 119.636 207.404 236.903 197.155C354.169 186.906 378.8 183.18 378.275 147.779Z" fill="#BCB49F"/>
<path fill-rule="evenodd" clip-rule="evenodd" d="M359.755 10.9996C333.889 9.13138 325.872 40.1779 325.872 40.1779C325.872 40.1779 313.796 2.48029 276.421 9.13139C239.046 15.7825 248.341 51.8887 248.341 51.8887C248.341 51.8887 229.377 43.6146 222.306 72.834C215.235 102.055 261.734 118.399 317.292 118.504C372.85 118.609 421.999 119.618 436.82 96.385C451.641 73.1519 446.513 50.5714 429.439 40.1779C407.979 27.1162 386.519 46.7091 386.519 46.7091C386.519 46.7091 381.364 12.56 359.755 10.9996Z" fill="#E7E6D0"/>
</svg>
