<svg width="259" height="207" viewBox="0 0 259 207" fill="none" xmlns="http://www.w3.org/2000/svg">
<path d="M169.453 197.204C170.812 197.131 168.722 196.856 170.342 197.064C170.158 197.219 169.893 197.334 169.453 197.204Z" fill="#30302F" fill-opacity="0.35"/>
<path d="M132.61 190.956C134.701 190.051 137.252 190.211 139.778 189.762C140.147 189.515 141.534 189.416 141.065 188.969C140.441 188.791 139.813 188.625 139.178 188.537C137.916 188.313 136.655 188.246 135.457 188.315C134.895 188.318 135.642 187.765 134.37 187.814C129.708 188.292 122.47 188.056 116.78 187.85L117.11 187.668C116.028 187.637 114.756 188.241 113.617 188.265C113.6 188.163 113.969 188.087 113.695 187.966C113.435 188.306 111.653 188.282 111.193 188.561C110.734 188.482 110.754 188.229 110.163 188.147L109.547 188.564C107.828 189.577 105.162 188.95 102.756 189.677C102.865 189.58 103.101 189.485 102.897 189.43C99.021 190.417 94.0967 190.989 89.7753 191.969C89.9257 191.814 90.0451 191.56 89.7654 191.465C89.6149 191.87 88.2884 192.208 87.1434 192.518C86.538 192.244 85.2277 193.27 83.8452 193.399L83.941 193.29C83.0633 193.931 82.4031 193.442 81.7778 194.163L81.0741 194.078C81.0319 194.615 79.2566 194.651 79.9117 194.811L79.9602 194.714C80.4761 194.821 80.9026 195.144 81.6211 195.119L81.6833 195.187C83.3939 195.18 84.4059 195.464 84.3661 195.042C84.9703 195.404 82.6878 195.164 83.6302 195.68C89.3601 195.319 95.2479 195.031 101.013 194.723C101.675 194.858 102.095 194.886 102.252 195.038C102.823 194.922 104.416 194.837 104.926 194.59C104.732 194.61 105.31 194.786 105.616 194.789C106.673 194.891 106.735 194.257 107.896 194.384C107.445 194.522 107.297 194.668 107.461 194.819C108.422 194.43 109.739 194.409 110.892 194.239C110.718 194.318 110.439 194.376 110.49 194.508C111.74 194.062 112.809 194.462 113.91 194.171L113.508 194.436C115.312 194.645 114.01 193.892 115.569 193.999C115.2 194.093 115.336 194.183 115.273 194.284C116.701 193.778 119.04 193.809 120.496 193.659C120.41 193.695 120.435 193.76 120.435 193.76C122.002 193.7 123.648 193.801 125.369 193.564C126.001 193.656 125.179 194.17 126.84 194.027C126.766 193.539 129.656 193.727 128.656 193.203C130.077 193.231 132.33 193.317 133.267 193.101C132.638 193.319 133.987 193.666 132.809 193.768L133.718 194.022C133.594 194.229 132.795 194 133.092 194.239C133.683 194.188 135.397 193.908 135.932 193.953C137.012 193.591 137.98 192.968 139.746 192.787C138.927 193.031 140.256 193.298 139.697 193.418L142.097 192.3C142.682 192.231 142.253 192.679 143.092 192.481C143.039 192.352 143.403 192.244 143.651 192.115C143.879 192.161 146.074 191.776 146.377 192.234C146.657 192.399 145.431 192.425 146.099 192.537C147.181 192.428 147.211 192.249 148.292 192.127L148.321 192.19C149.044 192.176 150.389 191.722 149.582 191.555C149.088 191.601 149.808 191.819 149.059 191.773C149.524 191.434 150.758 191.196 151.786 190.999C151.452 191.142 151.515 191.264 151.393 191.422C152.058 191.114 152.783 190.842 153.328 190.566C153.307 190.558 153.667 190.319 153.339 190.554C152.812 191.289 153.249 191.931 153.493 192.038C153.261 192.013 153.039 191.951 152.617 191.921C152.53 192.14 153.291 191.623 153.354 191.807C151.774 190.997 149.244 191.586 147.646 190.946C147.932 190.931 147.766 191.285 147.753 191.22C146.759 191.104 146.833 190.775 146.171 190.839C146.122 190.635 145.345 190.832 144.668 190.847C144.31 190.963 144.5 190.74 145.088 190.762C144.137 190.847 140.365 190.903 138.205 190.505C138.24 190.636 136.844 190.915 136.347 190.876L136.557 190.583C136.108 190.38 134.88 190.527 134.809 190.263C133.722 190.578 138.94 190.151 137.481 190.365C137.118 190.093 135.442 190.749 135.774 190.35C134.768 190.314 133.778 190.602 132.831 190.282C133.107 190.342 133.667 189.895 132.852 189.884C131.419 189.879 132.44 190.013 131.275 190.065L130.541 190.157C130.483 190.45 129.264 190.065 129.783 190.417C129.616 190.165 127.699 190.485 127.863 190.002L128.077 189.623C127.457 189.628 127.049 189.995 126.558 190.147C126.476 190.109 126.315 190.026 126.35 189.964C126.228 190.554 124.875 189.864 124.124 190.294C122.835 190.039 120.827 190.167 120.226 189.782C119.222 189.933 118.306 190.118 117.172 189.957C117.402 189.909 117.711 189.899 117.778 189.776C117.07 189.58 116.888 189.73 116.232 189.807C116.382 189.723 114.813 189.421 114.023 189.194C113.027 189.344 113.36 189.672 113.256 189.863C112.363 189.257 110.444 190.169 109.322 189.611C109.668 189.538 110.777 189.361 109.954 189.194C109.062 188.587 108.115 189.577 106.658 189.259L107.005 189.751C106.36 189.436 104.843 189.977 105.005 189.487C104.508 189.647 103.28 189.28 103.431 189.756C101.035 189.293 97.5863 189.853 96.1305 188.967C95.7849 189.038 94.9271 188.936 95.0975 189.184C95.6631 189.461 95.9018 189.013 96.1107 189.199C95.8011 189.206 95.7315 189.334 95.6979 189.397C94.9532 189.268 94.3677 189.232 95.08 188.85C93.4253 188.534 93.3545 189.628 91.2485 189.417C91.3467 189.221 91.1888 189.145 90.5697 189.17L89.3961 189.488C88.0348 189.391 88.6241 189.032 88.593 188.702C87.8633 188.743 86.9731 188.748 86.6399 188.992L85.756 188.585C86.4025 188.878 85.1568 188.789 84.8149 188.871L85.1568 188.789C85.0238 188.648 84.1797 188.74 83.752 188.786C83.8577 188.99 84.718 189.068 85.1866 189.123C84.8174 189.271 84.2368 189.242 83.7458 189.416C83.9061 189.09 82.556 189.192 81.9792 189.164C81.3153 189.098 81.2357 189.459 81.0431 189.452C81.0219 189.279 79.964 189.464 80.4724 189.207C80.6987 189.144 80.9921 189.345 81.3638 189.2C80.9249 189.076 80.9685 188.782 80.0659 189.032C79.3896 189.218 80.2598 189.666 78.9632 189.513C79.2976 189.418 79.356 189.287 79.6183 189.159L78.4 189.037L78.3577 189.335C78.1924 189.267 78.303 189.236 78.2284 189.2C77.8791 189.528 76.3823 189.37 76.1249 189.729C75.517 189.785 74.8295 189.576 74.2452 189.564L74.3571 189.535C73.6336 189.387 72.7012 189.606 72.1206 189.846L72.1467 189.78C71.7588 189.787 70.8475 189.91 70.3789 190.124C69.3868 189.986 69.95 189.04 68.9007 189.503C67.9049 189.597 67.4026 190.172 67.8204 190.327C66.0252 190.325 64.1181 191.145 62.4162 190.917C62.1849 191.073 62.3565 191.124 61.8493 191.269C60.5451 191.381 59.2783 191.885 58.0252 192.186C56.4662 192.21 55.7004 193.7 56.0609 191.13C55.7986 192.949 55.8545 191.412 55.6581 191.397C55.1297 190.407 55.7464 191.532 55.8073 190.967C55.898 190.73 55.8309 190.521 55.7426 190.465C55.9279 190.445 58.9439 190.751 59.5767 190.997C59.1664 190.839 59.4884 190.796 59.8315 190.72C59.6998 191.142 60.846 191.244 61.72 191.122L61.8468 190.868L62.4074 191.147C62.7468 191.069 62.7891 190.608 63.6507 190.865C63.6967 190.967 63.7451 191.071 63.903 191.147C64.8093 190.951 66.0898 190.587 67.0769 190.803L67.885 191.182C68.3052 191.139 69.0176 190.907 68.2729 190.801C69.9611 191.017 71.0489 191.032 71.5897 191.356C74.4926 190.524 78.7207 190.422 82.1271 190.449L82.0264 190.643C82.9427 190.816 82.4976 190.299 83.1366 190.427C82.8432 190.616 83.8365 190.822 83.1192 191.058C84.4283 191.254 84.8037 190.714 85.6541 190.618C85.7834 190.364 84.9703 190.786 85.1344 190.46C85.2799 190.368 86.947 190.652 87.1509 190.267C87.4791 190.419 87.2218 190.701 87.0452 190.859L87.8459 190.675C88.8218 191.129 85.6155 191.478 86.6437 192.036L87.3784 191.976C88.0808 192.378 85.4365 192.434 87.279 192.571C88.0796 192.387 88.7671 191.83 88.0535 191.654C89.7243 191.557 88.833 190.74 90.6343 190.781C91.1229 191.014 89.1922 190.827 89.5366 191.147C90.3783 191.46 91.2398 190.994 91.9969 191.121C91.1577 190.958 91.8751 190.582 92.4246 190.525C93.3408 190.729 91.8166 190.876 93.1208 190.947C93.3396 190.729 94.5492 190.591 93.5149 190.411C94.0022 189.906 94.8786 190.609 95.6146 190.248C96.0224 190.624 94.221 191.004 95.6532 191.253C95.4406 190.899 97.462 190.874 96.7298 190.329C97.2072 190.453 97.3066 190.726 96.8752 190.916C97.6572 191.168 98.8333 190.392 99.0595 191.084L99.3504 190.749C99.5941 190.875 99.9447 190.98 100.34 191.189C101.037 191.235 102.615 190.84 102.523 191.365C102.749 191.321 104.343 191.435 103.749 191.034C102.77 190.755 102.593 191.238 102.068 190.714C102.747 191.155 103.501 190.74 104.081 190.638L104.163 190.847C104.508 190.786 105.29 190.875 105.517 190.667C105.248 190.766 105.379 190.914 105.646 190.98L106.021 190.689C107.414 190.611 106.319 191.254 107.669 191.239L106.632 191.42C106.859 191.382 107.302 191.7 107.952 191.639C108.219 191.37 108.708 191.057 108.937 190.848C109.703 190.768 109.259 191.187 110.023 190.937L109.025 191.223C108.871 191.307 109.658 191.73 110.672 191.781C111.326 191.717 112.356 191.366 111.342 191.152C111.852 191.177 112.553 191.389 112.139 191.574C113.298 191.543 112.005 191.261 113.007 191.14C113.405 191.353 114.658 191.695 115.404 192.013L114.341 192.428L115.028 192.471C114.115 192.802 115.467 192.787 114.939 193.16C115.406 193.25 115.987 193.146 116.448 193.069C115.106 192.346 118.042 192.277 117.674 191.669C119.574 191.615 118.775 193.16 120.798 192.356C120.484 192.186 121.437 191.793 120.237 191.895C121.407 192.025 121.069 191.351 122.44 191.671C121.401 191.855 123.51 192.328 122.008 192.593C122.117 192.404 121.187 192.399 120.959 192.44C121.428 192.692 120.826 193.025 122.025 193.092C122.764 193.08 123.769 193.123 123.64 192.81C123.63 192.474 122.519 192.784 123.007 192.471C124.476 192.438 124.692 192.959 125.331 192.398C124.403 192.393 124.192 192.034 124.223 191.805L125.304 191.726L125.082 191.937C126.797 192.194 125.614 191.561 127.278 191.714L128.036 192.199C127.617 192.556 125.619 191.894 125.882 192.53C126.964 192.614 127.344 192.321 128.356 192.539L127.585 192.619C127.974 192.66 128.312 193.5 129.886 193.107C130.694 192.967 130.109 192.898 130.141 192.67C131.886 192.696 132.421 192.489 133.542 192.515C133.287 192.952 135.523 192.665 134.258 193.06C133.704 192.764 131.185 192.65 130.544 193.047C131.148 193.618 129.181 192.895 128.778 193.416C130.173 193.506 130.075 194.027 130.281 194.386C130.667 194.432 131.051 194.307 131.286 194.265C131.469 193.949 130.961 193.928 130.949 193.59C132.503 193.765 134.013 193.668 134.89 193.396C135.402 193.585 135.221 193.901 134.601 193.898C136.46 193.901 138.438 194.053 140.193 194.245C139.083 193.655 142.163 194.222 141.409 193.743C140.472 193.573 139.682 193.153 140.215 192.944C140.803 193.01 140.183 193.175 140.423 193.301C141.19 193.051 141.566 193.825 142.327 193.408C140.626 193.49 141.965 194.036 141.632 194.434C142.865 194.263 141.563 194.727 142.773 194.79C144 194.622 145.506 194.52 146.862 194.497C148.54 194.975 151.165 194.72 152.681 194.774C153.465 195.019 152.905 195.463 153.764 195.586C154.776 195.625 153.038 195.042 154.524 195.329L154.376 195.416C154.835 195.331 157.107 195.856 157.578 195.2L157.095 195.69C157.373 195.749 157.637 195.642 157.869 195.599C157.874 195.766 158.192 195.929 157.734 196.018C158.644 196.407 159.677 196.049 160.681 196.072L160.047 195.744C161.775 195.571 162.915 195.919 164.582 195.866L164.523 196.161L165.519 196.011C165.268 196.29 166.171 196.499 166.701 196.273L164.103 196.922C163.394 196.726 164.897 196.59 164.457 196.287C164.083 196.025 162.542 196.044 162.284 196.32C162.872 196.374 162.9 196.31 163.363 196.221C163.544 196.638 162.648 196.59 162.196 196.847C162.505 196.839 162.94 196.98 163.012 196.854C162.397 197.032 161.784 197.038 160.771 197.012C161.462 196.877 160.408 196.745 160.671 196.638C160.577 196.997 159.606 197.07 158.36 196.915C157.486 196.457 156.002 197.085 154.557 196.9C155.163 196.565 155.927 196.304 156.812 196.195C155.911 195.971 155.801 196.164 154.899 195.935C154.445 196.187 154.113 196.59 152.92 196.699L152.868 196.427C151.789 196.514 151.769 196.913 150.405 196.773C148.069 196.524 145.657 196.405 143.872 196.279L143.819 196.007C142.793 196.529 140.494 196.046 139.142 196.231C136.879 195.849 134.182 196.221 133.04 195.694C129.01 195.677 125.485 195.684 121.329 195.35L122.053 194.999C121.29 195.243 121.579 194.747 120.843 194.764C121.667 195.123 119.806 195.11 119.279 195.322C117.442 194.912 115.043 195.108 113.386 195.288L113.336 195.016C111.648 195.426 109.69 194.871 107.626 194.67C107.396 194.545 107.037 194.272 106.421 194.267C105.274 194.638 104.689 194.575 103.028 194.755C101.827 194.689 99.8825 194.471 98.6717 194.241C94.1016 194.574 89.6174 194.093 84.897 194.498L84.5576 194.185C80.0162 194.886 74.4019 194.371 70.4982 194.758L70.8699 194.212C69.6454 194.057 68.0827 194.383 68.396 194.76C67.1615 194.593 65.324 195.04 64.5371 194.579C63.2752 194.462 62.9893 194.814 61.9301 194.869C59.3479 194.556 58.505 194.658 55.8396 194.379L56.4948 194.509C56.8031 194.431 56.8516 194.209 56.2113 194.08C55.7862 194.116 54.7593 193.929 53.7075 193.379C51.5468 190.014 53.9164 190.177 52.4258 190.834C52.9504 190.043 53.5161 189.151 54.666 188.918L55.7203 188.684L57.8959 188.088C59.3579 187.649 60.8273 187.271 62.1128 187.383C61.8729 187.242 62.4957 187.113 62.7381 186.958C64.9908 186.606 67.3902 186.601 69.1456 186.207C69.5099 186.265 68.6073 186.556 69.5211 186.495C70.0544 186.383 69.5099 186.264 70.1675 186.108C73.7902 185.4 77.5385 186.021 80.8218 185.785C86.6573 185.363 92.7515 185.577 98.3086 185.676L98.2415 185.805C100.118 185.355 102.6 186.419 104.097 185.716C104.533 185.849 105.772 185.818 105.441 186.06C106.925 185.749 109.571 186.497 111.725 186.106C111.53 186.089 111.414 186.113 111.187 186.162C113.343 186.506 115.262 186.154 117.538 186.487C117.305 186.536 116.883 186.563 116.81 186.691C117.686 186.965 118.917 186.205 119.381 186.844C119.889 186.856 119.753 186.543 119.442 186.551C124.433 186.939 129.784 186.734 135.004 186.833C138.719 187.388 135.178 187.894 138.147 187.573C138.383 187.706 138.335 187.344 138.367 187.476C139.518 187.362 140.104 188.277 140.913 187.995C140.611 187.593 141.453 187.811 141.491 187.58C143.763 187.966 144.194 188.359 146.02 188.196L145.87 188.385C148.053 188.009 150.437 188.504 152.43 188.184C153.305 188.395 153.81 188.271 155.418 189.077C156.452 189.802 157.274 191.301 155.82 192.999C155.014 193.671 155.024 193.496 154.567 193.75C154.009 193.952 153.646 194.035 153.205 194.15C151.622 194.514 150.197 194.694 148.733 194.909C145.839 195.291 142.992 195.576 140.149 195.833C134.47 196.333 128.837 196.706 123.111 196.862C112.049 196.847 101.122 198.21 89.6385 198.208C86.9197 197.75 86.7419 197.783 83.7147 197.974C83.8452 197.895 84.0329 197.875 83.8315 197.791C83.66 198.218 81.6796 197.768 81.2668 198.106C80.7447 198.073 79.9267 197.925 79.0838 197.665C78.4572 196.968 77.7225 197.983 76.8783 194.749C77.076 192.767 78.4087 192.156 78.528 192.079C80.087 191.211 80.997 191.021 82.0861 190.686C84.1809 190.092 86.2222 189.646 88.3953 189.231C87.7178 189.403 87.4418 189.826 88.2499 189.638L89.0493 189.211L89.2096 189.305C89.7542 189.14 90.3235 188.817 89.7243 188.784C100.568 186.554 111.364 186.292 122.108 185.666C124.672 185.735 128.312 185.48 131.135 185.453C133.217 185.625 135.259 185.882 137.292 186.216C138.306 186.379 139.332 186.605 140.356 186.85L141.142 187.085L141.534 187.201L141.73 187.262L141.827 187.291L141.852 187.298L141.863 187.303C141.555 184.198 142.293 191.531 142.214 190.777L142.206 190.78L142.153 190.802L140.402 191.449C135.436 191.818 133.343 192.317 127.579 192.582C127.857 192.674 129.487 191.664 132.61 190.956Z" fill="#30302F" fill-opacity="0.35"/>
<path d="M167.815 197.229C167.528 197.011 166.584 196.858 167.345 196.591C167.433 196.799 167.917 197.035 167.815 197.229Z" fill="#30302F" fill-opacity="0.35"/>
<path d="M142.657 193.911C142.619 193.974 142.301 193.804 142.223 193.763C142.533 193.763 142.836 193.595 143.078 193.722C142.76 193.722 142.804 193.826 142.657 193.911Z" fill="#30302F" fill-opacity="0.35"/>
<path d="M136.211 193.437C136.319 193.249 137.707 193.17 138.521 193.19L136.211 193.437Z" fill="#30302F" fill-opacity="0.35"/>
<path d="M130.244 192.31C129.735 192.118 129.882 192.035 130.581 192.081C130.627 192.186 130.392 192.225 130.244 192.31Z" fill="#30302F" fill-opacity="0.35"/>
<path d="M129.797 192.727C129.299 192.705 129.055 192.577 128.82 192.453C128.828 192.62 129.981 192.412 129.797 192.727Z" fill="#30302F" fill-opacity="0.35"/>
<path d="M116.777 191.429C116.462 191.427 115.775 191.548 115.496 191.317C115.814 191.485 117.035 191.16 116.777 191.429Z" fill="#30302F" fill-opacity="0.35"/>
<path d="M110.696 191.376C110.501 191.351 110.422 191.312 110.193 191.351C109.837 191.244 110.225 191.122 110.528 191.122L110.696 191.376Z" fill="#30302F" fill-opacity="0.35"/>
<path d="M108.085 189.637L107.426 189.714L107.526 189.525L108.085 189.637Z" fill="#30302F" fill-opacity="0.35"/>
<path d="M152.285 190.508C151.707 190.742 151.831 190.411 151.727 190.401C152.262 190.274 151.57 190.674 152.285 190.508Z" fill="#30302F" fill-opacity="0.35"/>
<path d="M126.547 193.481L126.746 193.469L126.692 193.867L126.547 193.481Z" fill="#30302F" fill-opacity="0.35"/>
<path d="M147.658 76.4523C147.658 76.4523 165.557 82.7107 171.091 82.0239C175.581 81.46 175.82 79.3797 175.82 79.3797C175.82 79.3797 181.174 69.5977 181.688 72.3835C182.211 75.1842 178.064 80.9918 178.064 80.9918C178.064 80.9918 187.694 72.9113 187.503 75.2053C187.309 77.4856 179.756 84.6904 179.756 84.6904C179.756 84.6904 191.898 78.3078 190.105 80.921C187.602 84.5737 178.21 90.8694 175.369 90.1155C172.515 89.3653 153.251 88.6325 148.133 88.0736C143.029 87.5073 147.658 76.4523 147.658 76.4523Z" fill="#869A2A"/>
<path d="M160.441 75.6276C160.441 75.6276 234.038 91.0421 245.463 81.3607C254.534 73.674 245.081 64.0187 238.865 67.6652C234.535 70.2051 233.87 74.9632 236.35 77.1168C241.568 81.6476 244.517 74.6229 241.453 73.9447" stroke="#F989B8" stroke-width="1.763" stroke-linecap="round"/>
<path d="M75.4036 108.693C67.2234 120.105 55.3284 117.433 50.2039 116.848C44.8457 116.237 32.405 112.644 32.405 112.644C32.405 112.644 28.2714 131.924 26.1194 136.291C23.9662 140.657 25.4443 124.887 25.4443 124.887C25.4443 124.887 17.1062 144.295 16.7718 139.342C16.4361 134.392 22.7304 122 22.7304 122C22.7304 122 14.7267 135.267 9.3946 135.619C6.66452 135.8 21.2112 117.282 23.3806 112.85C25.5475 108.419 26.7795 101.599 28.8718 102.271C30.9641 102.944 40.5356 108.516 44.5449 107.422C48.553 106.325 47.6902 104.148 50.7845 97.1031C53.8801 90.0585 58.7273 80.1312 68.5511 72.8109C78.1349 65.6706 97.4966 77.8807 75.4036 108.693Z" fill="#879B29"/>
<path d="M159.622 28.5746C159.538 35.0205 154.392 40.191 148.161 40.1103C141.914 40.0308 136.911 34.7349 136.997 28.284C137.079 21.8206 142.215 16.6651 148.458 16.7433C154.695 16.8216 159.704 22.1112 159.622 28.5746Z" fill="#869A2A"/>
<path d="M124.783 32.1579C125.473 39.4621 119.408 44.1246 112.987 44.0414C106.558 43.9581 101.937 39.0274 101.493 31.8623C101.083 25.2301 106.886 20.503 113.295 19.9851C120.129 19.4399 124.131 25.5505 124.783 32.1579Z" fill="#869A2A"/>
<path d="M157.297 28.5448C157.231 33.6692 153.145 37.7765 148.196 37.7132C143.224 37.6498 139.245 33.4407 139.309 28.3175C139.379 23.1793 143.457 19.077 148.428 19.1379C153.381 19.2025 157.366 23.4103 157.297 28.5448Z" fill="white"/>
<mask id="mask0" mask-type="alpha" maskUnits="userSpaceOnUse" x="46" y="26" width="138" height="101">
<path d="M120.244 26.975C143.088 23.9445 187.698 34.7052 183.643 55.5223C180.307 72.6184 160.442 75.6277 160.442 75.6277C160.442 75.6277 156.87 95.1258 131.647 96.4473C117.596 116.121 94.3844 128.267 72.2256 126.669C50.1861 125.083 38.6989 103.039 53.9654 76.2053C68.4786 50.717 93.1499 45.549 93.1499 45.549C93.1499 45.549 99.4443 29.7322 120.244 26.975Z" fill="#869A2A"/>
</mask>
<g mask="url(#mask0)">
<path d="M120.244 26.975C143.088 23.9445 187.698 34.7052 183.643 55.5223C180.307 72.6184 160.442 75.6277 160.442 75.6277C160.442 75.6277 156.87 95.1258 131.647 96.4473C117.596 116.121 94.3844 128.267 72.2256 126.669C50.1861 125.083 38.6989 103.039 53.9654 76.2053C68.4786 50.717 93.1499 45.549 93.1499 45.549C93.1499 45.549 99.4443 29.7322 120.244 26.975Z" fill="#869A2A"/>
<path d="M115.288 76.9083C117.949 78.7887 116.502 81.7781 113.77 79.9822C111.002 78.1602 112.568 74.9894 115.288 76.9083Z" fill="#6A2403"/>
<path d="M108.237 81.2827C111.008 83.0414 109.694 86.201 106.847 84.5256C104.017 82.8638 105.438 79.5203 108.237 81.2827Z" fill="#6A2403"/>
<path d="M100.872 73.7064C103.603 75.5011 102.074 78.8123 99.2818 77.1108C96.4498 75.3782 98.0995 71.8919 100.872 73.7064Z" fill="#6A2403"/>
<path d="M109.62 62.2789C107.019 60.2396 109.054 57.0104 111.569 59.1354C114.088 61.2505 112.218 64.2922 109.62 62.2789Z" fill="#6A2403"/>
<path d="M86.4918 70.0363C83.6598 68.3236 85.4388 64.5206 88.2435 66.3364C90.9636 68.105 89.2878 71.7279 86.4918 70.0363Z" fill="#6A2403"/>
<path d="M66.571 71.1953L66.6493 70.583C67.7272 67.8941 72.5321 69.577 71.5065 72.1827C71.0701 73.3253 69.8605 73.6159 68.7665 73.4296C69.0263 75.0219 67.7321 76.5955 65.7181 75.6007C63.054 74.2742 64.1181 70.6364 66.571 71.1953Z" fill="#6A2403"/>
<path d="M86.7392 58.6123C84.0154 56.7705 86.0977 52.9588 88.7619 54.9087C91.4112 56.8413 89.4593 60.4704 86.7392 58.6123Z" fill="#6A2403"/>
<path d="M67.5358 90.0885C66.0153 89.4551 65.5218 88.0479 65.8898 87.0108C65.8288 86.7326 65.84 86.4308 65.9358 86.0955C66.7612 83.4152 71.6781 84.7404 70.9024 87.3263L70.4598 88.0814C70.6264 89.496 69.5125 90.9094 67.5358 90.0885Z" fill="#6A2403"/>
<path d="M93.2856 45.8709C96.3264 45.851 97.6156 50.4216 94.6904 50.4986C91.7042 50.6265 90.1925 45.9628 93.2856 45.8709Z" fill="#6A2403"/>
<path d="M113.87 73.6342C116.947 73.3088 118.461 78.0272 115.393 78.3377C112.3 78.7115 110.749 74.0168 113.87 73.6342Z" fill="#6A2403"/>
<path d="M100.033 60.6828C96.9222 61.2268 95.2514 56.4314 98.4737 55.9135C101.658 55.4552 103.096 60.191 100.033 60.6828Z" fill="#6A2403"/>
<path d="M81.0412 56.1508C78.0512 56.619 76.138 52.082 79.241 51.6411C82.2508 51.2511 84.0597 55.7583 81.0412 56.1508Z" fill="#6A2403"/>
<path d="M104.223 68.3696C101.366 68.5386 99.3628 64.2996 102.256 64.117C105.075 63.9842 107.053 68.2616 104.223 68.3696Z" fill="#6A2403"/>
<path d="M77.1952 74.3807C74.2736 75.0613 71.9439 70.8274 74.899 70.1318C77.8118 69.4935 80.1167 73.756 77.1952 74.3807Z" fill="#6A2403"/>
<path d="M86.5187 59.4084C89.4825 59.0743 91.3896 63.43 88.5004 63.7964C85.5665 64.1926 83.54 59.8145 86.5187 59.4084Z" fill="#6A2403"/>
<path d="M79.6474 66.4744C76.6053 67.1066 74.6199 62.5596 77.7466 61.9374C80.7912 61.3673 82.6982 65.9043 79.6474 66.4744Z" fill="#6A2403"/>
<path d="M102.496 58.9081C99.6145 59.0224 97.8243 54.6058 100.777 54.4953C103.684 54.4655 105.349 58.8224 102.496 58.9081Z" fill="#6A2403"/>
<path d="M93.8007 78.6682V78.9278L93.7969 78.939L93.7435 79.5401C93.5893 79.9599 93.2723 80.2021 92.918 80.3722C93.6776 81.9806 92.3648 83.712 90.1519 82.5706C88.3343 81.6242 88.2025 79.8605 89.0666 79.0309C88.8851 78.6496 88.8042 78.2397 88.9671 77.7889L89.0355 77.6846C88.7421 76.8363 88.992 75.9905 90.178 75.788C92.1646 75.4415 93.8889 77.3703 93.8007 78.6682Z" fill="#6A2403"/>
<path d="M65.1637 65.857C62.1676 66.6593 59.9572 62.2142 62.9881 61.4044C66.0215 60.6828 68.1163 65.0944 65.1637 65.857Z" fill="#6A2403"/>
<path d="M112.028 49.7731C114.884 50.0413 116.158 54.5945 113.303 54.2914C110.405 54.0791 109.096 49.5731 112.028 49.7731Z" fill="#6A2403"/>
<path d="M60.4369 77.3193C57.5091 78.3291 54.9755 74.0131 58.0188 73.0419C60.9938 72.1303 63.3944 76.409 60.4369 77.3193Z" fill="#6A2403"/>
<path d="M107.795 74.659C110.566 74.5299 112.758 78.5962 109.993 78.7278C107.211 78.9017 104.992 74.8466 107.795 74.659Z" fill="#6A2403"/>
<path d="M78.0225 84.6149C77.5911 83.0823 78.8654 81.4714 80.9229 82.5308C83.2589 83.7269 82.8611 86.3052 81.1019 86.5822C81.4214 87.4317 81.2772 88.3061 80.0875 88.6265C77.2803 89.4227 74.5639 85.4532 77.4457 84.6534L78.0225 84.6149Z" fill="#6A2403"/>
<path d="M55.4109 81.7013C54.6128 84.6448 49.5542 83.7543 50.4046 80.6828C51.2611 77.6064 56.27 78.7354 55.4109 81.7013Z" fill="#6A2403"/>
<path d="M64.0692 95.8177C63.3805 98.8718 58.2734 98.298 58.9907 95.111C59.7242 91.9303 64.7716 92.7314 64.0692 95.8177Z" fill="#6A2403"/>
<path d="M60.7378 88.6639C60.0267 91.4087 54.9681 90.4983 55.7352 87.6293C56.4985 84.7678 61.4663 85.8781 60.7378 88.6639Z" fill="#6A2403"/>
<path d="M81.251 77.8956C80.3186 80.3113 75.4999 78.8097 76.4211 76.2549C77.3995 73.7212 82.1859 75.434 81.251 77.8956Z" fill="#6A2403"/>
<path d="M57.6624 97.9216C57.0855 100.707 51.9834 100.105 52.6075 97.1975C53.2279 94.2813 58.2641 95.1072 57.6624 97.9216Z" fill="#6A2403"/>
<path d="M54.9331 111.697C54.1263 115.176 48.9707 114.838 49.7962 111.197C50.6727 107.594 55.7822 108.196 54.9331 111.697Z" fill="#6A2403"/>
<path d="M52.74 90.3851C52.3459 93.5162 47.2164 93.423 47.6379 90.1205C48.0705 86.8168 53.2522 87.2627 52.74 90.3851Z" fill="#6A2403"/>
<path d="M56.9064 100.536C56.5807 103.959 51.4699 104.242 51.7621 100.599C52.181 97.0422 57.3465 97.1354 56.9064 100.536Z" fill="#6A2403"/>
<path d="M68.9621 57.0562C70.2376 54.2567 74.9816 56.1309 73.7409 58.8682C72.5288 61.5658 67.7014 59.8693 68.9621 57.0562Z" fill="#6A2403"/>
</g>
<path d="M122.129 32.1243C122.673 37.7617 117.983 41.3585 113.025 41.2939C108.062 41.2368 104.492 37.4288 104.145 31.897C103.824 26.77 108.302 23.1148 113.26 22.7174C118.545 22.2901 121.628 27.0122 122.129 32.1243Z" fill="white"/>
<path d="M118.317 26.8769C118.416 27.9401 117.527 28.617 116.581 28.6058C115.646 28.5946 114.972 27.8817 114.884 26.831C114.846 25.8622 115.687 25.1605 116.63 25.086C117.638 25.0065 118.222 25.9044 118.317 26.8769Z" fill="black"/>
<path d="M152.559 22.6081C152.652 23.5545 151.866 24.1606 151.022 24.1507C150.187 24.1383 149.584 23.4987 149.522 22.5672C149.473 21.6978 150.235 21.0855 151.062 21.0147C151.96 20.9439 152.481 21.7363 152.559 22.6081Z" fill="black"/>
<path d="M160.441 75.6276C152.563 75.7568 138.254 70.8311 138.254 70.8311" stroke="black" stroke-width="1.004" stroke-linecap="round"/>
<path d="M141.227 95.0748C138.504 91.7959 124.409 94.234 109.972 102.49C89.5645 114.136 59.3373 117.133 65.7721 122.796C72.2044 128.444 75.8917 128.301 86.5398 125.845C97.6577 123.293 108.73 121.821 124.847 109.735C134.187 102.733 136.965 99.197 141.227 95.0748Z" fill="#68701F"/>
<path d="M172.891 55.9606C172.868 56.7853 172.191 57.4585 171.349 57.4498C170.505 57.4386 169.821 56.748 169.836 55.9258C169.851 55.0713 170.544 54.4118 171.384 54.4255C172.226 54.4392 172.893 55.1136 172.891 55.9606Z" fill="black"/>
<path d="M179.062 53.8643C179.053 54.5313 178.508 55.0628 177.842 55.0541C177.176 55.0454 176.64 54.5039 176.649 53.8333C176.656 53.1762 177.21 52.6484 177.879 52.6571C178.543 52.6645 179.07 53.2036 179.062 53.8643Z" fill="black"/>
<path d="M139.976 84.605C139.976 84.605 163.402 96.9169 168.945 96.3344C173.441 95.8761 173.722 93.8057 173.722 93.8057C173.722 93.8057 179.309 84.138 179.755 86.9424C180.214 89.7543 175.929 95.4638 175.929 95.4638C175.929 95.4638 185.739 87.5969 185.502 89.8797C185.265 92.1551 177.551 99.2022 177.551 99.2022C177.551 99.2022 189.834 93.0853 187.979 95.6625C185.398 99.2456 175.967 104.779 173.044 104.523C161.654 103.527 133.818 95.2824 128.856 92.6059C124.333 90.1666 139.976 84.605 139.976 84.605Z" fill="#869A2A"/>
<path d="M83.1562 121.445C77.8029 134.425 65.6133 134.542 60.4926 135.146C55.1356 135.776 42.2014 135.121 42.2014 135.121C42.2014 135.121 42.5942 154.832 41.499 159.577C40.4037 164.319 38.2281 148.63 38.2281 148.63C38.2281 148.63 34.5582 169.428 33.0974 164.686C31.6391 159.942 34.9249 146.443 34.9249 146.443C34.9249 146.443 30.1721 161.186 25.0626 162.749C22.4469 163.548 32.3664 142.198 33.4629 137.385C34.5582 132.577 34.1939 125.654 36.3857 125.831C38.5762 126.008 49.1695 129.244 52.822 127.261C56.4733 125.277 55.1356 123.355 56.5342 115.79C57.9328 108.225 60.3782 97.4546 68.2663 88.0813C75.9593 78.9427 97.6034 86.4009 83.1562 121.445Z" fill="#9DB22D"/>
</svg>
