<?xml version="1.0" encoding="utf-8"?>
<!-- Generator: Adobe Illustrator 15.1.0, SVG Export Plug-In . SVG Version: 6.00 Build 0)  -->
<!DOCTYPE svg PUBLIC "-//W3C//DTD SVG 1.1//EN" "http://www.w3.org/Graphics/SVG/1.1/DTD/svg11.dtd">
<svg version="1.1" id="Capa_1" xmlns="http://www.w3.org/2000/svg" xmlns:xlink="http://www.w3.org/1999/xlink" x="0px" y="0px"
	 width="915px" height="595.28px" viewBox="0 0 915 595.28" enable-background="new 0 0 915 595.28" xml:space="preserve">
<path fill="#8ABF4E" stroke="#8ABF4E" d="M416.81,291.57c-7.795-56.982-8.971-88.949-5.189-146
	c2.509,46.229,5.134,70.988,18.166,107.124c-2.436-24.588-2.293-37.649,2.595-58.745c0.383,21.582,1.779,33.684,7.785,55.291
	l19.895,6.91c-8.514-44.492-6.835-68.445,0-110.58c1.204,40.538,1.729,63.268,12.977,103.669l42.385,6.91
	c-6.996-34.412-5.881-53.706,0-88.118c-0.111,36.389,0.23,56.626,12.11,88.118c-0.255-39.611,3.515-57.095,10.381-88.118
	c-2.135,35.398-2.932,55.163,6.92,88.118c-3.13-33.959-1.917-53.271,5.189-88.118c-1.312,35.934-0.889,55.266,12.109,81.208
	c1.563-27.129,6.813-53.25,29.41-92.438c-18.463,50.857-21.215,81.303-29.41,134.77H416.81z"/>
<path fill="#8ABF4E" stroke="#8ABF4E" d="M555.802,290.263c-7.473-57.042-8.471-89.023-4.38-146.069
	c2.252,46.256,4.737,71.036,17.558,107.253c-2.297-24.608-2.084-37.673,2.916-58.747c0.265,21.589,1.593,33.702,7.473,55.35
	l19.838,7.021c-8.261-44.552-6.451-68.501,0.609-110.608c0.979,40.555,1.378,63.295,12.391,103.769l42.305,7.146
	c-6.8-34.459-5.58-53.753,0.485-88.142c-0.313,36.397-0.083,56.644,11.613,88.209c-0.037-39.624,3.824-57.091,10.854-88.085
	c-2.328,35.396-3.231,55.162,6.428,88.18c-2.938-33.984-1.622-53.294,5.671-88.113c-1.508,35.936-1.19,55.273,11.649,81.295
	c1.71-27.127,7.098-53.227,29.891-92.302c-18.725,50.771-21.642,81.207-30.124,134.646L555.802,290.263z"/>
<path fill="#0A7874" d="M863.266,399.549c30.704-70.976-100.083-116.535-200.879-135.41s-174.993-19.06-468.364,8.961
	c-293.372,28.02,57.581,103.012-91.835,109.102c-149.416,6.088-91.365,65.396,9.877,81.307
	c101.243,15.909,191.73,28.026,356.174,21.325l3.758-0.152C635.713,478.012,832.795,469.985,863.266,399.549z"/>
<path fill="#81BB33" d="M756.264,246.647l0.363-9.101c0,0-6.883,0.598-9.276-4.615c-1.741-3.799-0.851-11.672,4.222-13.828
	c5.07-2.152,16.034-0.09,15.124,8.736c-0.803,7.75-6.644,9.237-6.644,9.237l0.347,8.679L756.264,246.647z"/>
<path fill="#81BB33" d="M770.094,249.248l5.924-7.525c0,0-4.723-5.856-2.014-11.305c2.704-5.449,7.556-7.192,11.418-6.416
	c3.863,0.774,10.368,6.224,8.876,12.318c-1.517,6.209-5.147,8.773-9.012,9.032c-3.862,0.261-5.815-0.8-5.815-0.8l-6.029,7.289
	L770.094,249.248z"/>
<path fill="#81BB32" d="M904.421,292.772c0,0,3.348,10.375-12.615,10.375c-15.966,0-88.58-4.149-99.139-9.08
	c-10.557-4.928-13.133-8.562-14.417-17.383c-1.29-8.817,3.859-31.646-11.591-33.464c-15.449-1.814-25.494,3.373-23.434,27.761
	c2.06,24.384,10.813,30.351,19.828,36.579c9.014,6.225,22.4,8.303,57.681,9.856c35.277,1.559,35.532,1.039,50.213,0
	c14.678-1.037,30.709-3.889,33.768-10.115C907.769,301.076,904.421,292.772,904.421,292.772z"/>
<path fill="#F089B7" d="M752.284,246.707c0,1.858-1.438,3.365-3.212,3.365s-3.216-1.507-3.216-3.365c0-1.854,1.44-3.357,3.216-3.357
	S752.284,244.854,752.284,246.707z"/>
<g>
	<path fill="#9B3515" d="M793.869,232.998c16.093-24.654,77.263-39.291,91.416,15.264c4.58,17.673-8.97,51.087-24.205,54.571
		c-15.241,3.485-50.361-1.379-56.396-3.726C789.34,293.14,776.451,259.697,793.869,232.998z"/>
	<path fill="#69260C" d="M858.67,270.527c0,0,2.31-4.762,2.807-6.449c0.437-1.475,0.995-6.082,0.995-6.082l23.317,1.832
		c0.315-4.148,0.1-8.045-0.765-11.379c-1.651-6.365-3.95-11.779-6.736-16.355c-7.036,5.353-17.347,13.232-17.368,13.486
		c0,0-1.64-3.877-4.248-6.439c-1.163-1.141-5.223-3.868-5.223-3.868l11.397-18.402c-8.789-4.983-18.934-6.454-28.819-5.452
		c1.635,8.351,4.604,23.364,4.861,23.489c0,0-6.991,2.211-8.862,3.029c-1.668,0.725-5.256,3.016-5.256,3.016l-15.187-21.834
		c-6.829,3.81-12.472,8.701-15.977,14.07c-1.454,2.229-2.68,4.506-3.728,6.809c5.782,2.925,24.729,12.48,25.022,12.32
		c0,0-2.139,5.801-2.557,7.812c-1.111,5.395-0.504,9.983-0.504,9.983l-26.066-1.213c2.048,14.805,9.949,27.016,18.646,30.397
		c3.573,1.39,17.346,3.66,31.149,4.56c0.879-5.859,3.886-26.021,3.675-26.265c0,0,2.563,1.119,7.392,1.164
		c1.052,0.011,4.084-0.993,4.084-0.993l8.146,25.637c0.677-0.113,1.334-0.236,1.948-0.377c7.73-1.769,15.021-11.244,19.735-22.457
		C873.168,277.088,858.933,270.418,858.67,270.527z M819.925,288.939c0,0-3.541-6.211-4.681-9.027
		c-1.188-2.938-3.396-9.508-3.396-9.508s20.729-5.238,20.969-5.527c0,0,0.153,3.429,0.566,4.533
		c1.129,2.988,2.442,4.689,2.442,4.689L819.925,288.939z M835.619,257.576c-0.576,0.566-1.702,2.76-1.702,2.76l-18.678-8.369
		c0,0,2.57-4.26,3.995-5.83c1.479-1.633,5.036-4.95,5.036-4.95s14.353,14.118,14.696,14.237
		C838.967,255.424,837.287,255.941,835.619,257.576z M861.511,246.492c0,0,0.73,3.85,1.088,5.492c0.369,1.719-0.13,6.012-0.13,6.012
		s-13.715,1.951-13.928,2.115c0,0,0.262-1.436-0.104-2.533c-0.137-0.412-1.029-1.395-1.029-1.395L861.511,246.492z M841.523,254.676
		l-2.188-19.986c0,0,3.872-0.398,5.604-0.277c3.349,0.236,5.623,1.461,5.623,1.461s-4.162,19.256-4.089,19.605
		c0,0-1.202-0.803-2.933-0.803H841.523z M855.085,274.471c-1.287,0.823-3.845,2.438-3.845,2.438s-7.227-12.604-7.424-12.73
		c0,0,1.595-0.057,2.126-0.328c0.237-0.12,0.996-0.827,0.996-0.827l11.733,7.625C858.673,270.646,856.322,273.676,855.085,274.471z"
		/>
</g>
<path fill="#FFFFFF" d="M790.201,235.246c0,3.463-2.835,6.678-6.796,6.404c-3.515-0.24-6.377-2.811-6.377-6.27
	c0-3.468,2.854-6.539,6.377-6.539C786.924,228.842,790.201,231.779,790.201,235.246z"/>
<path fill="#FFFFFF" d="M763.068,226.652c0.7,3.314-1.357,6.975-5.204,7.529c-3.406,0.496-6.672-1.371-7.375-4.682
	c-0.702-3.316,1.407-6.85,4.773-7.574C758.632,221.199,762.366,223.34,763.068,226.652z"/>
<path fill="#010202" d="M758.614,227.621c0.244,1.154-0.482,1.807-1.372,2c-0.894,0.191-1.771-0.383-1.957-1.279
	c-0.193-0.899,0.374-1.785,1.267-1.977C757.442,226.174,758.423,226.723,758.614,227.621z"/>
<path fill="#010202" d="M786.005,235.498c0,1.176-0.845,1.66-1.757,1.66s-1.654-0.744-1.654-1.66c0-0.922,0.742-1.664,1.654-1.664
	S786.005,234.576,786.005,235.498z"/>
<defs>
	<filter id="Adobe_OpacityMaskFilter" filterUnits="userSpaceOnUse" x="749.449" y="250.705" width="19.418" height="17.333">
		<feColorMatrix  type="matrix" values="1 0 0 0 0  0 1 0 0 0  0 0 1 0 0  0 0 0 1 0"/>
	</filter>
</defs>
<mask maskUnits="userSpaceOnUse" x="749.449" y="250.705" width="19.418" height="17.333" id="mask1_1_">
	<path fill="#FFFFFF" filter="url(#Adobe_OpacityMaskFilter)" d="M750.994,250.705c0,0,1.629,5.703,8.361,7.578
		c6.464,1.801,9.512-3.033,9.512-3.033s-2.399,15.224-11.715,12.451C746.762,264.604,750.994,250.705,750.994,250.705z"/>
</mask>
<g mask="url(#mask1_1_)">
	<path fill="#FFFFFF" d="M750.994,250.705c0,0,1.629,5.703,8.361,7.578c6.464,1.801,9.512-3.033,9.512-3.033
		s-2.399,15.224-11.715,12.451C746.762,264.604,750.994,250.705,750.994,250.705z"/>
	<path fill="none" stroke="#010202" stroke-width="0.8" d="M753.021,253.317l-3.193,9.438"/>
	<path fill="none" stroke="#010202" stroke-width="0.8" d="M764.695,256.781l-1.184,10.832"/>
	<path fill="none" stroke="#010202" stroke-width="0.8" d="M758.326,257.75l-3.139,9.713"/>
</g>
<path fill="#F089B7" d="M776.525,254.709c0,1.856-1.441,3.357-3.217,3.357c-1.774,0-3.215-1.501-3.215-3.357
	c0-1.857,1.439-3.359,3.215-3.359C775.083,251.348,776.525,252.85,776.525,254.709z"/>
<path fill="#BAB4A1" d="M375.596,169.522c2.362-7.365,4.427-27.938,21.01-47.448c16.344-19.225,37.656-27.293,34.868-11.568
	c-2.789,15.722-28.257,40.254-40.313,53.849C386.167,169.986,373.851,174.965,375.596,169.522z"/>
<path fill="none" stroke="#FFFFFF" stroke-width="0.523" d="M382.396,169.559c0,0,3.697-17.674,13.515-23.889
	c9.812-6.214,18.73-6.504,18.73-6.504"/>
<path fill="none" stroke="#FFFFFF" stroke-width="0.523" d="M402.903,127.203c0,0,0.921,3.436,1.129,7.09
	c0.209,3.653-0.634,7.514-0.634,7.514"/>
<path fill="none" stroke="#FFFFFF" stroke-width="0.523" d="M392.004,149.035c0,0-0.935-7.365-2.762-10.863
	s-3.332-4.854-3.332-4.854"/>
<path fill="none" stroke="#FFFFFF" stroke-width="0.523" d="M384.868,161.469c0,0,7.002-4.486,10.201-4.679l3.197-0.196"/>
<path fill="none" stroke="#FFFFFF" stroke-width="0.523" d="M403.971,133.5c0,0,6.06-6.615,13.531-8.934
	c5.222-1.617,8.276-1.068,8.276-1.068"/>
<path fill="none" stroke="#FFFFFF" stroke-width="0.523" d="M388.905,137.54c0,0,8.342-4.177,13.999-10.338
	c7.586-8.269,7.532-20.065,7.532-20.065"/>
<path fill="none" stroke="#FFFFFF" stroke-width="0.523" d="M417.096,124.702c0,0,3.703-7.386,2.192-15.356
	c-1.066-5.606-1.639-5.465-1.639-5.465"/>
<path fill="none" stroke="#FFFFFF" stroke-width="0.523" d="M386.759,157.407c0,0-4.516-5.407-7.007-6.335
	c-2.498-0.929-1.821-0.4-1.821-0.4"/>
<path fill="none" stroke="#010202" stroke-width="0.784" stroke-linecap="round" d="M414.175,196.358
	c-1.315,10.006-1.205,9.388-1.366,13.153c-0.009,0.324-4.889-0.015-4.629,0"/>
<path fill="none" stroke="#010202" stroke-width="0.784" stroke-linecap="round" d="M397.216,193.094
	c-1.317,10.006-1.207,9.392-1.363,13.154c-0.015,0.326-4.891-0.012-4.634,0"/>
<path fill="none" stroke="#010202" stroke-width="0.784" stroke-linecap="round" d="M380.844,191.981
	c-3.918,9.294-3.645,8.731-4.795,12.319c-0.101,0.311-4.719-1.306-4.471-1.227"/>
<path fill="#2B783B" d="M354.347,154.467c-6.638,6.818-10.161,20.746-5.505,28.367c9.314,15.243,27.196,10.043,27.196,10.043
	s16.835,6.469,30.811,7.316c13.974,0.85,25.402,2.961,23.283-11.432c-2.115-14.397-8.045-31.756-23.283-34.721
	c-15.241-2.963-20.242,0.848-20.242,0.848S369.586,138.799,354.347,154.467z"/>
<path fill="#FFFFFF" d="M361.252,158.211c-3.423,0.975-6-1.937-6-5.644c0-3.708,4.18-6.63,7.673-5.944
	C368.021,147.629,369.315,155.92,361.252,158.211z"/>
<path fill="none" stroke="#CCCCB8" stroke-width="0.251" stroke-linecap="round" d="M355.295,153.377
	c-0.04-0.313-0.043-0.485-0.043-0.809c0-3.707,4.18-6.631,7.673-5.943c1.016,0.2,1.747,0.563,2.415,1.236"/>
<path fill="#FFFFFF" d="M378.717,154.594c2.336-1.842,6.9-2.135,9.845,0.811c2.944,2.943,2.6,6.922-0.007,10.164
	c-2.605,3.247-8.104,4.096-11.448,0.043C374.085,161.956,375.446,157.17,378.717,154.594z"/>
<path fill="#010202" d="M360.886,151.842c0,0.97-0.666,1.373-1.387,1.373c-0.722,0-1.302-0.613-1.302-1.373
	c0-0.758,0.58-1.371,1.302-1.371C360.218,150.471,360.886,151.086,360.886,151.842z"/>
<path fill="#010202" d="M382.618,160.108c0,1.037-0.749,1.466-1.561,1.466c-0.808,0-1.464-0.652-1.464-1.466
	c0-0.808,0.656-1.463,1.464-1.463C381.869,158.645,382.618,159.301,382.618,160.108z"/>
<path fill="#43AB55" d="M361.326,164.424c-3.324-1.259-10.901-2.405-12.916-3.924c-1.29-0.976-0.437-2.406-1.9-3.39
	c-2.183-1.464-4.827-0.263-6.371,3.608c-1.38,3.461-0.319,6.373,2.685,6.738c2.862,0.346,3.021-2.123,4.585-2.246
	c1.718-0.132,9.907,2.867,11.819,3.963C360.652,169.992,362.542,164.887,361.326,164.424z"/>
<path fill="none" stroke="#010202" stroke-width="0.8" stroke-linecap="round" d="M357.602,172.989c0,0,0.941,2.081,2.526,2.388
	c2.028,0.391,3.104-1.195,3.104-1.195"/>
<path fill="none" stroke="#43AB55" stroke-width="0.677" d="M393.739,155.473c0,0,1.803,13.615-3.71,26.883
	c-3.183,7.648-6.409,10.373-6.409,10.373"/>
<path fill="none" stroke="#43AB55" stroke-width="0.677" d="M424.385,174.467c0,0,0.057,10.847-6.395,17.15
	c-4.399,4.307-9.228,7.116-9.228,7.116"/>
<path fill="none" stroke="#43AB55" stroke-width="0.677" d="M410.111,158.076c0,0,2.365,11.167-3.15,24.432
	c-3.181,7.655-11.616,14.221-11.616,14.221"/>
<path fill="#CCCCB8" d="M392,156.536c5.214-5.708,15.186-22.438,38.389-33.257c22.869-10.662,47.655-7.833,38.568,5.295
	c-9.09,13.132-42.467,24.813-59.094,32.146C402.977,163.756,388.142,160.754,392,156.536z"/>
<path fill="none" stroke="#FFFFFF" stroke-width="0.523" d="M399.731,161.799c0,0,10.728-14.525,22.241-16.084
	c11.509-1.56,19.735,1.896,19.735,1.896"/>
<path fill="none" stroke="#FFFFFF" stroke-width="0.523" d="M436.024,131.844c0,0-0.597,3.504-1.93,6.914
	c-1.336,3.408-3.706,6.567-3.706,6.567"/>
<path fill="none" stroke="#FFFFFF" stroke-width="0.523" d="M417.016,147.144c0,0,2.225-7.083,2.021-11.023
	c-0.2-3.942-1.005-5.801-1.005-5.801"/>
<path fill="none" stroke="#FFFFFF" stroke-width="0.523" d="M405.35,155.473c0,0,8.231-1.155,11.223,0l2.987,1.154"/>
<path fill="none" stroke="#FFFFFF" stroke-width="0.523" d="M434.374,138.014c0,0,8.264-3.487,16.025-2.477
	c5.419,0.706,7.966,2.477,7.966,2.477"/>
<path fill="none" stroke="#FFFFFF" stroke-width="0.523" d="M418.983,135.275c0,0,9.334-0.189,17.043-3.432
	c10.347-4.353,15.212-15.099,15.212-15.099"/>
<path fill="none" stroke="#FFFFFF" stroke-width="0.523" d="M449.969,135.488c0,0,6.446-5.169,8.396-13.046
	c1.369-5.538,0.787-5.649,0.787-5.649"/>
<path fill="none" stroke="#FFFFFF" stroke-width="0.523" d="M408.762,152.57c0,0-1.849-6.798-3.729-8.68
	c-1.882-1.881-1.485-1.117-1.485-1.117"/>
<defs>
	<filter id="Adobe_OpacityMaskFilter_1_" filterUnits="userSpaceOnUse" x="169.092" y="422.795" width="29.109" height="22.865">
		<feColorMatrix  type="matrix" values="1 0 0 0 0  0 1 0 0 0  0 0 1 0 0  0 0 0 1 0"/>
	</filter>
</defs>
<mask maskUnits="userSpaceOnUse" x="169.092" y="422.795" width="29.109" height="22.865" id="mask2_1_">
	<path fill="#BD1818" filter="url(#Adobe_OpacityMaskFilter_1_)" d="M169.092,433.949c0,0,13.941,1.85,18.37-1.906
		c4.432-3.758,6.947-9.248,6.947-9.248l3.792,4.222c0,0-1.555,7.567-7.55,11.354c-7.189,4.532-19.131,3.392-19.131,3.392
		L169.092,433.949z"/>
</mask>
<g mask="url(#mask2_1_)">
	<path fill="#BD1818" d="M169.092,433.949c0,0,13.941,1.85,18.37-1.906c4.432-3.758,6.947-9.248,6.947-9.248l3.792,4.222
		c0,0-1.555,7.567-7.55,11.354c-7.189,4.532-19.131,3.392-19.131,3.392L169.092,433.949z"/>
	<path fill="#E52620" d="M196.513,434.148c0,0-1.919-0.033-4.733-3.438c-2.817-3.403-3.921-4.633-3.921-4.633l-2.975,3.356
		c0,0,4.718,7.919,7.282,9.166C194.73,439.846,196.513,434.148,196.513,434.148z"/>
	<path fill="#E52620" d="M185.579,442.494c0,0-1.79-0.711-3.229-4.881c-1.438-4.177-2.044-5.713-2.044-5.713l-3.963,2.1
		c0,0,1.634,9.072,3.599,11.138C181.907,447.199,185.579,442.494,185.579,442.494z"/>
</g>
<path fill="#E52620" d="M193.944,420.332l3.754,6.877c0,0-6.373-0.24-10.918-7.217c-3.387-5.191-4.647-13.676-0.617-21.533
	c6.759-13.166,23.698-7.23,23.698-7.23l-6.139,4.185l2.752,6.246l-5.742,2.129l2.619,5.92l-6.706,1.776l2.608,6.978L193.944,420.332
	z"/>
<path fill="#E52620" d="M200.791,424.617l-7.845,0.187c0,0,3.395,5.397,11.716,5.841c6.2,0.33,14.195-2.813,18.987-10.229
	c8.043-12.426-5.574-24.115-5.574-24.115l-0.559,7.402l-6.796,0.741l1.021,6.032l-6.438,0.69l1.81,6.687l-7.354,1.239
	L200.791,424.617z"/>
<path fill="#BD1818" d="M59.649,448.07c-4.458,1.602-8.462,3.805-14.992,9.924c-5.077,4.754-2.148,7.512,3.071,4.303
	c4.696-2.883,5.699-4.771,11.236-7.28c3.11-1.416,8.204-1.843,8.204-1.843l-1.42-6.105C65.75,447.067,62.441,447.067,59.649,448.07z
	"/>
<path fill="#BD1818" d="M176.194,447.107c4.696,0.592,13.151,4.792,20.625,13.809c4.436,5.353,2.146,7.511-3.073,4.302
	c-4.701-2.884-10.01-8.964-15.547-11.474c-3.11-1.414-6.172-0.422-6.172-0.422l1.295-6.216
	C173.325,447.107,175.481,447.018,176.194,447.107z"/>
<path fill="#BD1818" d="M171.422,456.295c0,0,4.656,1.584,8.216,5.037c4.534,4.402,9.48,13.01,7.69,15.247
	c-1.785,2.238-6.247-5.033-9.479-8.604c-3.232-3.572-9.884-6.426-9.884-6.426L171.422,456.295z"/>
<path fill="#BD1818" d="M162.407,464.74c0,0,2.782,2.147,5.559,5.239c3.542,3.94,7.023,11.953,5.627,13.954
	c-1.392,2.004-4.877-4.508-7.402-7.705c-2.52-3.198-7.106-7.732-7.106-7.732L162.407,464.74z"/>
<path fill="#BD1818" d="M67.085,456.295c0,0-4.652,1.584-8.211,5.037c-4.538,4.4-9.487,13.01-7.695,15.247
	c1.788,2.238,6.251-5.037,9.483-8.604c3.231-3.576,9.88-6.426,9.88-6.426L67.085,456.295z"/>
<path fill="#BD1818" d="M76.102,464.74c0,0-2.781,2.145-5.561,5.239c-3.541,3.94-7.025,11.953-5.625,13.954
	c1.393,2.004,4.881-4.508,7.402-7.705c2.521-3.202,7.106-7.732,7.106-7.732L76.102,464.74z"/>
<path fill="#E52620" d="M114.804,415.526c21.778-0.72,34.435,3.114,49.865,13.363c13.428,8.916,12.196,27.454-2.652,38.185
	c-12.523,9.048-33.227,11.339-65.891,6.734c-31.434-4.427-33.979-20.462-33.72-29.786C62.664,434.695,67.854,417.08,114.804,415.526
	z"/>
<path fill="#E52620" d="M104.799,398.355c0,8.305-5.88,13.024-14.192,13.024s-14.192-5.579-14.192-13.885
	c0-8.299,6.741-13.313,15.051-13.313C99.776,384.185,104.799,390.053,104.799,398.355z"/>
<path fill="#FFFFFF" d="M100.112,398.166c0,5.562-3.939,8.727-9.503,8.727c-5.57,0-9.511-3.737-9.511-9.305
	c0-5.559,4.515-8.912,10.085-8.912C96.746,388.674,100.112,392.603,100.112,398.166z"/>
<path fill="#E52620" d="M149.825,390.14c4.67-3.673,13.45-3.893,19.661,1.62c5.54,4.919,6.282,12.919,1.244,18.705
	c-5.453,6.264-13.176,7.269-20.647,2.211C143.206,408.021,143.295,395.283,149.825,390.14z"/>
<path fill="#FFFFFF" d="M153.384,394.238c2.993-2.355,8.84-2.725,12.61,1.041c3.769,3.762,4.14,7.842,0.797,11.996
	c-3.34,4.151-8.454,4.664-13.245,1.42C149.134,405.707,149.191,397.539,153.384,394.238z"/>
<path fill="#E52620" d="M91.505,412.752l2.224,7.777l8.159-2.22c0,0-1.88-4.649-2.225-6.93c-0.347-2.271-0.925-4.92-0.925-4.92
	l-8.131,1.109L91.505,412.752z"/>
<path fill="#E52620" d="M146.853,421.279c0,0,1.857-1.851,3.894-5.367c2.041-3.52,2.964-5.631,2.964-5.631l6.036,3.213
	c0,0-1.422,4.479-3.164,7.033c-1.738,2.557-2.872,5.739-2.872,5.739L146.853,421.279z"/>
<defs>
	<filter id="Adobe_OpacityMaskFilter_2_" filterUnits="userSpaceOnUse" x="37.521" y="420.724" width="29.002" height="23.064">
		<feColorMatrix  type="matrix" values="1 0 0 0 0  0 1 0 0 0  0 0 1 0 0  0 0 0 1 0"/>
	</filter>
</defs>
<mask maskUnits="userSpaceOnUse" x="37.521" y="420.724" width="29.002" height="23.064" id="mask3_1_">
	<path fill="#BD1818" filter="url(#Adobe_OpacityMaskFilter_2_)" d="M66.523,432.258c0,0-13.967,1.644-18.34-2.183
		c-4.374-3.824-6.811-9.352-6.811-9.352l-3.851,4.163c0,0,1.442,7.594,7.38,11.467c7.117,4.642,19.073,3.683,19.073,3.683
		L66.523,432.258z"/>
</mask>
<g mask="url(#mask3_1_)">
	<path fill="#BD1818" d="M66.523,432.258c0,0-13.967,1.644-18.34-2.183c-4.374-3.824-6.811-9.352-6.811-9.352l-3.851,4.163
		c0,0,1.442,7.594,7.38,11.467c7.117,4.642,19.073,3.683,19.073,3.683L66.523,432.258z"/>
	<path fill="#E52620" d="M39.099,432.051c0,0,1.922-0.005,4.787-3.366c2.865-3.362,3.989-4.571,3.989-4.571l2.927,3.395
		c0,0-4.839,7.852-7.42,9.058C40.797,437.774,39.099,432.051,39.099,432.051z"/>
	<path fill="#E52620" d="M49.915,440.556c0,0,1.795-0.68,3.293-4.83c1.503-4.153,2.135-5.681,2.135-5.681l3.932,2.157
		c0,0-1.771,9.047-3.769,11.08C53.514,445.317,49.915,440.556,49.915,440.556z"/>
</g>
<path fill="#E52620" d="M39.78,418.43l-3.134,7.186c0,0,6.333-0.809,10.239-8.158c2.907-5.478,3.413-14.039-1.3-21.504
	c-7.906-12.514-24.25-5.099-24.25-5.099l6.49,3.62l-2.19,6.47l5.908,1.612l-2.079,6.128l6.836,1.173l-1.972,7.182L39.78,418.43z"/>
<path fill="#E52620" d="M32.669,424.851l7.655-1.72c0,0-1.983,6.059-9.947,8.5c-5.936,1.825-14.451,0.709-20.909-5.321
	c-10.817-10.104-0.451-24.742-0.451-24.742l2.338,7.05l6.78-0.935l0.474,6.101l6.418-0.889l-0.133,6.932l7.434-0.584L32.669,424.851
	z"/>
<path fill="#010202" d="M92.806,399.828c0,1.448-1.047,2.047-2.177,2.047c-1.132,0-2.05-0.916-2.05-2.047s0.918-2.047,2.05-2.047
	C91.758,397.781,92.806,398.697,92.806,399.828z"/>
<path fill="#010202" d="M161.86,401.875c0,1.449-1.049,2.045-2.179,2.045c-1.132,0-2.052-0.918-2.052-2.045
	c0-1.131,0.92-2.047,2.052-2.047C160.81,399.828,161.86,400.744,161.86,401.875z"/>
<defs>
	<filter id="Adobe_OpacityMaskFilter_3_" filterUnits="userSpaceOnUse" x="101.89" y="435.581" width="29.445" height="20.231">
		<feColorMatrix  type="matrix" values="1 0 0 0 0  0 1 0 0 0  0 0 1 0 0  0 0 0 1 0"/>
	</filter>
</defs>
<mask maskUnits="userSpaceOnUse" x="101.89" y="435.581" width="29.445" height="20.231" id="mask4_1_">
	<path fill="#FFFFFF" filter="url(#Adobe_OpacityMaskFilter_3_)" d="M101.89,436.056c0,0,5.784,7.22,14.722,7.063
		c8.584-0.148,14.723-7.537,14.723-7.537s-1.601,19.791-14.038,19.791C103.425,455.373,101.89,436.056,101.89,436.056z"/>
</mask>
<g mask="url(#mask4_1_)">
	<path fill="#FFFFFF" d="M101.89,436.056c0,0,5.784,7.22,14.722,7.063c8.584-0.148,14.723-7.537,14.723-7.537
		s-1.601,19.791-14.038,19.791C103.425,455.373,101.89,436.056,101.89,436.056z"/>
	<path fill="none" stroke="#010202" stroke-width="0.8" d="M107.048,439.369l-0.527,12.646"/>
	<path fill="none" stroke="#010202" stroke-width="0.8" d="M123.256,441.217l1.815,11.752"/>
	<path fill="none" stroke="#010202" stroke-width="0.8" d="M115.16,442.847l-0.36,12.955"/>
</g>
<path fill="#FAB216" d="M538.765,306.889c-0.3-3.24-2.305-12.944-2.305-12.944s11.485,2.341,15.524,0.99
	c4.049-1.352,12.475-8.422,12.475-1.352c0,7.08-6.357,14.742-9.227,17.08c-9.441,7.688-16.501,7.709-16.501,7.709
	S539.033,309.76,538.765,306.889z"/>
<path fill="#43AB55" d="M537.655,294.246c-5.026-20.955-46.334-23.496-46.558,14.765c-0.086,15.629-4.727,18.194-4.727,18.194
	l50.091,14.976C536.462,342.18,542.113,312.846,537.655,294.246z"/>
<path fill="#B8B29C" d="M536.941,338.733c0,0,9.771,31.136-19.479,45.31c-20.572,9.97-48.64,10.015-66.527-3.575
	c-17.881-13.589-32.899-45.013-30.041-45.693c2.861-0.689,7.156,2.893,7.156,2.893s-5.719-8.588-3.578-8.588
	c2.145,0,8.581,5.695,8.581,5.695s-5.227-6.559-2.143-5.695c3.763,1.064,8.779,7.602,18.664,8.879
	c21.853,2.834,37.934-11.017,37.934-11.017L536.941,338.733z"/>
<path fill="#FFFFFF" d="M538.204,334.548v10.202c0,0-19.49-2.928-27.804-4.579c-18.814-3.747-24.029-12.966-24.029-12.966
	l2.195-7.342c0,0,1.38,6.043,17.771,10.695C513.615,332.625,538.204,334.548,538.204,334.548z"/>
<path fill="#FFFFFF" d="M513.765,306.428c4.206,0.569,7-2.077,7.577-6.28c0.574-4.204-1.848-7.563-6.053-8.137
	c-4.205-0.57-7.207,2.486-7.782,6.691C506.94,302.904,509.562,305.851,513.765,306.428z"/>
<path fill="#010202" d="M516.136,300.541c0.896,0.123,1.352-0.473,1.45-1.172c0.093-0.703-0.395-1.346-1.096-1.438
	c-0.698-0.097-1.342,0.393-1.437,1.095C514.957,299.722,515.437,300.449,516.136,300.541z"/>
<path fill="#CCCCB8" d="M466.293,344.662c-13.515,0.797-22.429-9.551-20.306-2.656c2.117,6.896,10.319,28.939,29.947,25.761
	c19.623-3.183,24.057-18.152,15.659-25.226C483.297,335.549,476.254,344.072,466.293,344.662z"/>
<path fill="none" stroke="#010202" stroke-width="0.955" stroke-linecap="round" d="M533.727,310.055c0,0-1.051,2.325-2.825,2.669
	c-2.268,0.435-3.465-1.337-3.465-1.337"/>
<g>
	<g>
		<defs>
			<rect id="SVGID_1_" x="125.336" y="251.711" width="164" height="60"/>
		</defs>
		<clipPath id="SVGID_2_">
			<use xlink:href="#SVGID_1_"  overflow="visible"/>
		</clipPath>
		<g clip-path="url(#SVGID_2_)">
			<path fill="#B8B29C" d="M130.092,305.358c0,27.79,28.802,50.321,64.341,50.321c35.531,0,64.34-22.531,64.34-50.321
				c0-27.791-44.573-52.289-80.105-52.289C143.134,253.07,130.092,277.567,130.092,305.358z"/>
			<path fill="#CCCCB8" d="M197.558,312.226c1.979,17.529,19.847,31.941,44.324,31.941c24.483,0,44.329-14.301,44.329-31.941
				s-20.169-27.957-44.329-31.94C216.077,276.027,194.434,284.559,197.558,312.226z"/>
		</g>
	</g>
</g>
<g>
	<g>
		<defs>
			
				<rect id="SVGID_3_" x="91.659" y="203.884" transform="matrix(0.9601 0.2796 -0.2796 0.9601 76.0008 -41.1949)" width="181.47" height="83.822"/>
		</defs>
		<clipPath id="SVGID_4_">
			<use xlink:href="#SVGID_3_"  overflow="visible"/>
		</clipPath>
		<g clip-path="url(#SVGID_4_)">
			<path fill="#81BB32" d="M250.877,267.276c0,0,1.81,2.867,6.997,4.829c5.19,1.949,9.742,0.618,9.316,1.911
				c-0.423,1.296-5.829,6.323-13.97,3.954c-8.143-2.362-11.145-6.808-11.145-6.808L250.877,267.276z"/>
			<path fill="#77B22B" d="M107.771,196.279c5.538-3.398,18.65-3.609,27.513,4.285c8.853,7.884,15.615,24.992,15.615,24.992
				s7.364,1.514,16.244,3.342l-2.974,27.23l-17.132,5.377c-5.313-3.858-11.401-8.625-18.624-14.627
				C91.254,216.07,98.346,202.049,107.771,196.279z"/>
			<path fill="#FFE616" d="M158.767,259.818c0,0-13.658-7.279-19.968-13.941c-10.004-10.56-11.495-22.065-11.495-22.065
				s5.46,9.856,11.677,17.146c6.199,7.293,20.684,14.67,22.675,15.961c1.985,1.289-1.709,3.432-1.709,3.432L158.767,259.818z"/>
			<path fill="#FFE616" d="M168.41,252.244c0,0-14.833-9.418-18.743-12.799c-10.995-9.486-10.396-18.229-10.396-18.229
				s3.587,6.463,10.252,13.313c6.666,6.856,16.996,14.413,19.066,15.563c2.073,1.156,1.027,2.597,1.027,2.597L168.41,252.244z"/>
			<path fill="#FFE616" d="M162.722,255.723l3.282-27.139c16.687,3.334,44.606,9.043,60.961,13.03
				c13.375,3.261,25.033,25.389,28.221,26c0,0-2.262,7.422-20.958,13.758c-8.287,2.811-37.719,2.123-53.072-2.293
				c-11.518-3.319-19.864-6.48-34.526-17.684L162.722,255.723z"/>
			<path fill="#81BB32" d="M162.258,251.356c0,0-15.412-0.993-18.202,1.876c-2.797,2.872-3.398,10.275-3.398,10.275
				s-4.539-3.033-7.534-5.174c-2.99-2.134-5.994-3.5-7.88-1.863c-0.71,0.615,3.103,1.798,5.091,3.6l1.99,1.805
				c0,0-4.536-1.566-6.963-0.941c-2.425,0.615-5.449,1.818-4.498,3.21c0.345,0.499,5.512-0.72,8.105,0.548
				c3.703,1.81,4.88,3.778,4.88,3.778s-4.516-0.702-6.451,0.506c-0.833,0.528-1.69,1.3-1.825,1.86
				c-0.183,0.744,0.471,1.117,3.929,0.746c3.445-0.371,14.563,1.802,16.902,0.307c2.346-1.505,1.386-7.563,7.347-9.936
				c5.944-2.371,14.975-1.459,14.975-1.459L162.258,251.356z"/>
			<path fill="#81BB32" d="M246.68,296.383c-0.89,1.099-3.708,1.304-6.861,2.339c-3.429,1.123-7.232,3.017-8.336,2.848
				c-2.112-0.323,3.528-4.554,3.528-4.554s-9.561,2.085-10.324,1.053c-0.768-1.039,1.92-4.707,5.706-4.967
				c3.78-0.256-4.665-1.15-9.036-0.632c-1.384,0.16-1.434-2.374,4.482-3.5c5.915-1.117,12.474-0.833,12.146-2.078
				c-0.322-1.256-5.485-6.559-5.485-6.559l7.864-1.026C240.363,279.307,248.538,294.117,246.68,296.383z"/>
			<path fill="#FFFFFF" d="M128.606,201.973c-1.685-0.228-4.125,0.098-6.321,2.666c-3.793,4.437-1.908,11.054,2.965,12.104
				c4.875,1.052,8.537-1.854,9.27-5.815C135.245,206.961,133.579,202.637,128.606,201.973z"/>
			<path fill="#010202" d="M125.566,206.856c-0.272-0.073-0.815-0.224-1.272,0.479c-0.453,0.7-0.262,1.742,0.541,1.914
				c0.801,0.174,1.397-0.305,1.524-0.949C126.478,207.635,126.355,207.063,125.566,206.856z"/>
			<path fill="none" stroke="#010202" stroke-width="0.949" stroke-linecap="round" d="M112.249,215.185c0,0-2.565,2.618-5.292,2.11
				c-4.077-0.772-4.345-4.289-4.345-4.289"/>
			<path fill="#FFE616" d="M196.421,208.971c-26.973-0.947-45.523,16.586-45.523,16.586s2.745,19.279,7.98,26.373
				c5.227,7.095,17.899,25.858,54.775,28.399c33.397,2.302,41.964-13.379,41.964-13.379s-9.914-19.66-14.071-27.92
				c-4.169-8.252-16.952-25.088-34.85-28.815C203.166,209.483,199.732,209.086,196.421,208.971z"/>
			<defs>
				
					<filter id="Adobe_OpacityMaskFilter_4_" filterUnits="userSpaceOnUse" x="139.067" y="205.375" width="118.679" height="76.714">
					<feColorMatrix  type="matrix" values="1 0 0 0 0  0 1 0 0 0  0 0 1 0 0  0 0 0 1 0"/>
				</filter>
			</defs>
			<mask maskUnits="userSpaceOnUse" x="139.067" y="205.375" width="118.679" height="76.714" id="mask5_1_">
				<path fill="#FFE616" filter="url(#Adobe_OpacityMaskFilter_4_)" d="M196.421,208.971c-26.973-0.947-45.523,16.586-45.523,16.586
					s2.745,19.279,7.98,26.373c5.227,7.095,17.899,25.858,54.775,28.399c33.397,2.302,41.964-13.379,41.964-13.379
					s-9.914-19.66-14.071-27.92c-4.169-8.252-16.952-25.088-34.85-28.815C203.166,209.483,199.732,209.086,196.421,208.971z"/>
			</mask>
			<g mask="url(#mask5_1_)">
				<path fill="#2B783B" d="M193.528,215.039l-3.471,15.535l12.91-5.77l8.553-13.852l-6.519-4.918l-6.606-0.66L193.528,215.039z"/>
				<path fill="#2B783B" d="M229.192,218.769l-7.898,13.045l-13.447,10.8l-3.818-16.625l8.785-15.459l9.94,1.496L229.192,218.769z"
					/>
				<path fill="#2B783B" d="M233.736,243.043l4.97-15.072l9.991,8.685l3.309,9.129l-1.067,5.33c0,0-1.863,1.711-3.584,2.842
					c-1.701,1.128-6.809,4.134-6.809,4.134L233.736,243.043z"/>
				<path fill="#2B783B" d="M195.707,207.987l-3.407,6.661l-17.342-3.245l10.862-5.658L195.707,207.987z"/>
				<path fill="#2B783B" d="M237.562,227.315l-4.739,14.534l-9.685-10.077l6.637-11.612L237.562,227.315z"/>
				<path fill="#2B783B" d="M232.556,261.896c0,0-3.876,0.779-10.692,0.473c-6.806-0.307-8.213-0.636-8.213-0.636l-1.979,19.722
					c0,0,6.663,1.897,14.96-0.875c8.304-2.777,9.887,0.533,9.887,0.533L232.556,261.896z"/>
				<path fill="#2B783B" d="M211.896,261.492c0,0-4.858-0.59-11.419-2.342l-6.557-1.758l-6.924,16.867c0,0,5.087,5.093,15.69,6.045
					c8.49,0.766,7.725,1.167,7.725,1.167L211.896,261.492z"/>
				<path fill="#2B783B" d="M253.251,251.287c0,0-5.486,4.569-11.806,7.795c-6.314,3.228-7.077,2.541-7.077,2.541l3.435,17.168
					c0,0,8.968-0.428,15.326-7.063c6.344-6.63,4.305-5.182,4.305-5.182L253.251,251.287z"/>
				<path fill="#2B783B" d="M175.333,244.316c0,0-1.398-1.322-5.915-6.414c-3.104-3.484-5.333-6.895-5.333-6.895l-15.863,11.479
					c0,0,3.05,6.976,10.139,11.81c7.092,4.83,5.541,4.119,5.541,4.119L175.333,244.316z"/>
				<path fill="#2B783B" d="M163.246,229.611c0,0-2.454-3.691-3.935-7.107c-2.862-6.611-2.248-8.346-2.248-8.346l-17.995,6.107
					c0,0,1.001,7.746,6.383,14.705c5.385,6.949,2.836,5.061,2.836,5.061L163.246,229.611z"/>
				<path fill="#2B783B" d="M192.584,256.973c0,0-3.668-1.729-8.817-4.955c-5.789-3.637-7.587-5.934-7.587-5.934l-10.825,13.364
					c0,0,4.148,7.699,12.056,10.832c7.913,3.142,7.134,4.828,7.134,4.828L192.584,256.973z"/>
				<path fill="#2B783B" d="M204.13,258.572l3.533-13.785L222,232.625l10.534,11.121l6.92,14.983
					c-4.659,2.058-7.813,1.979-12.529,2.192C214.689,261.498,204.13,258.572,204.13,258.572z"/>
				<path fill="#2B783B" d="M159.037,217.17l11.223-5.58l21.576,4.221l-3.199,15.81l-11.895,11.55c0,0-2.488-2.595-6.649-7.023
					C161.567,227.064,159.037,217.17,159.037,217.17z"/>
				<path fill="#2B783B" d="M202.389,257.988l4.473-13.703l-3.989-17.32l-13.49,5.457l-12.009,12.295c0,0,3.508,4.025,11.156,8.148
					C196.254,257.021,202.389,257.988,202.389,257.988z"/>
			</g>
		</g>
	</g>
</g>
<path fill="#B8B29C" d="M738.533,392.021c-39.501,0-85.528,13.609-85.528,49.331c0,5.214,0,16.673,22.236,23.891
	c41.04,13.324,83.364,7.992,116.658-2.063c7.965-2.405,12.156-13.721,12.846-18.891
	C810.199,403.248,778.032,392.021,738.533,392.021z"/>
<path fill="#CCCCB8" d="M812.242,471.28c13.701-18.017-24.19-42.055-54.688-30.278c-24.171,9.334-48.536,9.689-39.093,30.278
	C725.129,485.814,796.973,491.354,812.242,471.28z"/>
<path fill="#869A2A" d="M765.453,343.293c-0.065,5.026-4.054,9.055-8.888,8.992c-4.845-0.062-8.726-4.191-8.659-9.219
	c0.063-5.033,4.048-9.054,8.888-8.994C761.632,334.137,765.517,338.258,765.453,343.293z"/>
<path fill="#869A2A" d="M738.435,346.088c0.535,5.693-4.171,9.326-9.146,9.264c-4.988-0.065-8.571-3.908-8.917-9.494
	c-0.315-5.165,4.186-8.85,9.151-9.254C734.823,336.174,737.929,340.938,738.435,346.088z"/>
<path fill="#869A2A" d="M749.7,389.365c0,0,6.729,13.129,10.21,15.705c2.823,2.086,4.07,1.035,4.07,1.035s8.241-2.661,7.041-0.811
	c-1.201,1.86-6.635,2.926-6.635,2.926s9.73,0.592,8.398,1.785c-1.328,1.185-9.421,1.214-9.421,1.214s10.239,2.896,7.831,3.413
	c-3.361,0.726-12.01-0.744-13.204-2.697c-1.203-1.951-11.649-12.687-14.234-15.743C741.195,393.135,749.7,389.365,749.7,389.365z"/>
<path fill="#FFFFFF" d="M763.652,343.273c-0.051,3.994-3.222,7.195-7.063,7.145c-3.852-0.049-6.938-3.332-6.886-7.321
	c0.052-4.004,3.221-7.2,7.071-7.152C760.613,335.992,763.706,339.27,763.652,343.273z"/>
<g>
	<path fill="#869A2A" d="M736.251,343.048c17.715-2.358,52.308,6.026,49.164,22.251c-2.588,13.324-17.993,15.666-17.993,15.666
		s-2.77,15.199-22.331,16.228c-10.894,15.332-28.893,24.801-46.076,23.557c-17.09-1.239-25.997-18.42-14.163-39.33
		c11.259-19.864,30.392-23.894,30.392-23.894S720.122,345.197,736.251,343.048z"/>
	<g>
		<path fill="#69260C" d="M736.076,383.633c2.063,1.464,0.941,3.796-1.18,2.394C732.75,384.606,733.966,382.135,736.076,383.633z"/>
		<path fill="#69260C" d="M730.608,387.041c2.146,1.369,1.131,3.832-1.083,2.526C727.336,388.271,728.435,385.67,730.608,387.041z"
			/>
		<path fill="#69260C" d="M724.896,381.136c2.116,1.398,0.933,3.979-1.231,2.65C721.465,382.438,722.747,379.722,724.896,381.136z"
			/>
		<path fill="#69260C" d="M731.682,372.229c-2.019-1.589-0.439-4.106,1.512-2.448C735.146,371.428,733.691,373.799,731.682,372.229z
			"/>
		<path fill="#69260C" d="M713.744,378.276c-2.199-1.337-0.815-4.299,1.361-2.885C717.213,376.771,715.911,379.595,713.744,378.276z
			"/>
		<path fill="#69260C" d="M698.297,379.177l0.063-0.477c0.834-2.097,4.562-0.787,3.767,1.248c-0.342,0.89-1.278,1.112-2.125,0.969
			c0.199,1.24-0.805,2.466-2.364,1.692C695.572,381.578,696.394,378.742,698.297,379.177z"/>
		<path fill="#69260C" d="M713.935,369.371c-2.109-1.437-0.493-4.403,1.571-2.888C717.56,367.992,716.046,370.822,713.935,369.371z"
			/>
		<path fill="#69260C" d="M699.044,393.901c-1.183-0.493-1.566-1.587-1.28-2.396c-0.045-0.218-0.036-0.452,0.038-0.714
			c0.641-2.088,4.453-1.057,3.853,0.959l-0.339,0.59C701.44,393.439,700.577,394.539,699.044,393.901z"/>
		<path fill="#69260C" d="M719.006,359.444c2.363-0.016,3.364,3.546,1.095,3.604C717.785,363.149,716.615,359.513,719.006,359.444z"
			/>
		<path fill="#69260C" d="M734.973,381.076c2.387-0.25,3.563,3.424,1.182,3.67C733.759,385.039,732.551,381.377,734.973,381.076z"/>
		<path fill="#69260C" d="M724.246,370.984c-2.41,0.424-3.708-3.313-1.206-3.715C725.51,366.914,726.623,370.603,724.246,370.984z"
			/>
		<path fill="#69260C" d="M709.517,367.453c-2.317,0.364-3.801-3.17-1.396-3.515C710.458,363.633,711.859,367.148,709.517,367.453z"
			/>
		<path fill="#69260C" d="M727.496,376.978c-2.214,0.13-3.77-3.175-1.526-3.315C728.157,373.56,729.694,376.894,727.496,376.978z"/>
		<path fill="#69260C" d="M706.535,381.66c-2.262,0.533-4.07-2.77-1.778-3.309C707.01,377.85,708.802,381.176,706.535,381.66z"/>
		<path fill="#69260C" d="M713.767,369.99c2.298-0.257,3.776,3.137,1.539,3.42C713.028,373.722,711.457,370.307,713.767,369.99z"/>
		<path fill="#69260C" d="M708.437,375.498c-2.358,0.498-3.897-3.049-1.475-3.537C709.324,371.52,710.802,375.056,708.437,375.498z"
			/>
		<path fill="#69260C" d="M726.162,369.604c-2.239,0.089-3.626-3.355-1.34-3.439C727.079,366.14,728.371,369.535,726.162,369.604z"
			/>
		<path fill="#69260C" d="M719.413,385.004v0.201l-0.003,0.01l-0.042,0.472c-0.122,0.326-0.367,0.512-0.643,0.645
			c0.589,1.254-0.432,2.605-2.142,1.716c-1.412-0.741-1.518-2.114-0.845-2.761c-0.144-0.295-0.205-0.612-0.077-0.966l0.052-0.081
			c-0.228-0.66-0.033-1.32,0.887-1.479C718.141,382.485,719.476,383.996,719.413,385.004z"/>
		<path fill="#69260C" d="M697.206,375.019c-2.325,0.627-4.04-2.838-1.688-3.47C697.871,370.984,699.495,374.424,697.206,375.019z"
			/>
		<path fill="#69260C" d="M733.549,362.484c2.212,0.21,3.2,3.756,0.988,3.521C732.289,365.84,731.274,362.326,733.549,362.484z"/>
		<path fill="#69260C" d="M693.538,383.953c-2.271,0.781-4.233-2.58-1.871-3.336C693.97,379.906,695.833,383.24,693.538,383.953z"/>
		<path fill="#69260C" d="M730.265,381.877c2.149-0.102,3.851,3.07,1.705,3.174C729.81,385.183,728.089,382.023,730.265,381.877z"/>
		<path fill="#69260C" d="M707.177,389.636c-0.331-1.193,0.655-2.449,2.253-1.621c1.81,0.931,1.496,2.939,0.14,3.156
			c0.246,0.662,0.136,1.344-0.788,1.595c-2.179,0.62-4.283-2.478-2.047-3.096L707.177,389.636z"/>
		<path fill="#69260C" d="M687.238,376.162c0.831-2.275,4.604-1.101,3.801,1.117C690.248,379.465,686.412,378.437,687.238,376.162z"
			/>
		<path fill="#69260C" d="M689.641,387.365c-0.616,2.295-4.541,1.602-3.883-0.793C686.422,384.174,690.307,385.056,689.641,387.365z
			"/>
		<path fill="#69260C" d="M696.359,398.367c-0.533,2.379-4.497,1.934-3.939-0.549C692.989,395.336,696.903,395.961,696.359,398.367z
			"/>
		<path fill="#69260C" d="M693.771,392.793c-0.552,2.141-4.474,1.429-3.878-0.808C690.484,389.758,694.337,390.621,693.771,392.793z
			"/>
		<path fill="#69260C" d="M709.682,384.401c-0.721,1.884-4.461,0.714-3.745-1.28C706.696,381.148,710.41,382.482,709.682,384.401z"
			/>
		<path fill="#69260C" d="M691.389,400.008c-0.446,2.171-4.404,1.701-3.92-0.563C687.952,397.171,691.858,397.815,691.389,400.008z"
			/>
		<path fill="#69260C" d="M689.273,410.744c-0.628,2.709-4.623,2.445-3.984-0.389C685.968,407.546,689.93,408.014,689.273,410.744z"
			/>
		<path fill="#69260C" d="M687.571,394.133c-0.306,2.443-4.284,2.367-3.959-0.204C683.952,391.354,687.968,391.699,687.571,394.133z
			"/>
		<path fill="#69260C" d="M690.801,402.045c-0.253,2.67-4.216,2.89-3.985,0.05C687.137,399.318,691.142,399.394,690.801,402.045z"/>
		<path fill="#69260C" d="M700.152,368.158c0.99-2.18,4.67-0.721,3.705,1.414C702.919,371.674,699.174,370.352,700.152,368.158z"/>
	</g>
</g>
<path fill="#FFFFFF" d="M736.379,346.062c0.42,4.398-3.215,7.198-7.063,7.148c-3.848-0.047-6.613-3.012-6.885-7.325
	c-0.249-3.994,3.226-6.845,7.069-7.153C733.599,338.397,735.991,342.08,736.379,346.062z"/>
<path fill="#010202" d="M732.085,346.017c0.081,0.829-0.609,1.355-1.346,1.349c-0.727-0.007-1.249-0.564-1.313-1.382
	c-0.033-0.758,0.62-1.304,1.352-1.36C731.56,344.563,732.015,345.261,732.085,346.017z"/>
<path fill="#010202" d="M759.493,340.463c0.071,0.738-0.538,1.21-1.192,1.201c-0.647-0.008-1.115-0.502-1.161-1.23
	c-0.043-0.679,0.55-1.157,1.192-1.213C759.028,339.168,759.43,339.783,759.493,340.463z"/>
<path fill="none" stroke="#010202" stroke-width="0.612" stroke-linecap="round" d="M766.087,379.963
	c-16.363,1.39-22.019-8.359-22.019-8.359"/>
<path fill="#697124" d="M751.19,395.123c-2.112-2.559-13.042-0.653-24.237,5.773c-15.825,9.08-39.269,11.413-34.276,15.83
	c4.989,4.402,7.853,4.288,16.108,2.378c8.619-1.989,17.204-3.138,29.703-12.554C745.728,401.092,747.885,398.332,751.19,395.123z"/>
<path fill="#010202" d="M775.742,364.643c-0.014,0.641-0.541,1.164-1.193,1.156c-0.654-0.009-1.182-0.548-1.173-1.188
	c0.013-0.663,0.55-1.179,1.199-1.168C775.228,363.451,775.748,363.98,775.742,364.643z"/>
<path fill="#010202" d="M780.53,363.002c-0.006,0.522-0.433,0.938-0.95,0.93c-0.514-0.006-0.932-0.432-0.927-0.952
	c0.007-0.511,0.437-0.926,0.954-0.918C780.122,362.068,780.533,362.49,780.53,363.002z"/>
<path fill="#869A2A" d="M741.486,389.26c0,0,3.046,20.379,5.955,23.59c2.35,2.608,3.771,1.829,3.771,1.829s8.616-0.952,7.065,0.62
	c-1.55,1.584-7.087,1.532-7.087,1.532s9.424,2.531,7.887,3.433c-1.537,0.897-9.481-0.695-9.481-0.695s9.462,4.891,6.996,4.92
	c-3.422,0.032-11.608-3.145-12.394-5.291c-0.797-2.164-9.469-20.925-11.395-24.442C730.9,391.24,741.486,389.26,741.486,389.26z"/>
<path fill="#0A7874" d="M421.935,388.553c-0.148,5.267,5.644,8.458,11.771,12.145c2.833,0.082,3.672,1.037,6.317,1.439
	c3.54,0.539,7.829-0.294,11.247,0.598c3.906,1.021,10.142,0.539,14.449,0.661l16.56,0.472c14.332,0.408,27.265,1.073,40.799-1.668
	c3.74-0.759,7.521-2.719,11.596-2.834l0.068-0.002c2.123-0.061,3.767-0.105,5.362-0.843c3.933-1.813,11.565-2.147,10.386-6.03
	c-1.086-3.567-4.653-3.896-9.55-5.711c-3.474-1.287-6.813-2.711-10.301-4.012c-4.521-1.688-8.736-1.747-13.914-1.896
	c-9.869-0.281-18.848,2.455-27.469,4.686c-6.422,1.659-12.344,4.335-19.851,4.431c-7.032,0.088-12.61-2.222-18.354-4.27
	c-4.912-1.753-11.196-2.539-16.845-2.699C427.486,382.828,422.043,384.768,421.935,388.553z"/>
<path fill="#9EB32D" d="M696.426,394.793c5.177-4.935,23.064-11.82,28.845-5.105c5.771,6.722-6.992,29.603-6.992,29.603
	s24.976-1.471,23.681,0.302c-1.293,1.772-12.396,1.457-12.396,1.457s13.602,1.584,13.344,3.139
	c-0.263,1.555-13.88-0.881-13.88-0.881s11.039,5.215,9.997,6.477c-1.023,1.262-10.807-2.543-18.529-4.582
	c-7.727-2.048-12.503,1.838-12.209-1.455c0.308-3.303,6.647-15.447,6.647-15.447s-10.186,15.521-20.132,11.484
	C678.45,413.146,692.032,399.013,696.426,394.793z"/>
</svg>
