<svg width="810" height="45" viewBox="0 0 810 45" fill="none" xmlns="http://www.w3.org/2000/svg">
<path d="M1.06161 39.5578C0.797479 37.4733 0.726367 35.333 0.838115 33.1342C0.949864 30.9381 0.967642 28.7774 0.893989 26.6549C0.817797 24.6415 0.706048 22.6814 0.558743 20.762C0.408898 18.8476 0.353024 16.88 0.388581 14.8691C0.388581 12.711 0.39874 10.7002 0.419058 8.83662C0.436836 6.97304 0.29715 5.00282 0 2.91328C0.0736526 2.31917 0.380962 1.86216 0.919387 1.54479C1.46035 1.22996 1.99116 1.03447 2.51181 0.958298C3.11119 0.884669 3.76898 0.884669 4.49789 0.958298C5.22425 1.03447 5.82871 1.31375 6.31126 1.79615C6.31126 1.86978 6.32142 2.01957 6.34174 2.243C6.35952 2.46897 6.36968 2.61622 6.36968 2.68985C6.51698 3.99487 6.49921 5.41159 6.31126 6.93496C6.12586 8.46339 6.06999 9.85981 6.14618 11.1242C6.14618 11.274 6.17412 11.8427 6.22999 12.8304C6.28587 13.8155 6.34936 14.9428 6.42301 16.2072C6.49921 17.4766 6.57286 18.7512 6.64905 20.0359C6.7227 21.318 6.77858 22.3361 6.81667 23.0801C6.92842 24.8649 6.99192 26.6041 7.01223 28.3001C7.03001 29.9961 7.13414 31.7175 7.31954 33.4694C7.43129 34.1752 7.7386 34.5814 8.24147 34.6957C8.7418 34.8049 9.29292 34.8556 9.88976 34.8379C10.4841 34.815 11.0352 34.8277 11.5381 34.8633C12.0384 34.9013 12.3305 35.2187 12.4041 35.8128C12.4041 37.0087 12.3762 37.9658 12.3203 38.6894C12.2644 39.4156 12.1806 40.0782 12.0689 40.6723C11.9571 41.2665 11.7692 41.566 11.5076 41.566C11.472 41.6092 11.406 41.6219 11.3146 41.6219H11.119C9.70182 41.5508 8.24909 41.4797 6.7608 41.4264C5.26997 41.3731 3.77914 41.2665 2.28831 41.1192C1.80576 41.0862 1.49845 40.9466 1.36892 40.7028C1.23686 40.4591 1.13527 40.0782 1.06161 39.5578Z" fill="#2BB673"/>
<path d="M19.7766 33.2458C19.7411 33.0986 19.7131 32.8929 19.6954 32.6314C19.675 32.3724 19.6573 32.1109 19.6395 31.8494C19.6192 31.5879 19.6014 31.3569 19.5836 31.1538C19.5633 30.9456 19.5531 30.8059 19.5531 30.7323C19.5176 30.029 19.4795 29.1023 19.4414 27.9699C19.4058 26.835 19.3677 25.7052 19.3296 24.5881C19.2941 23.476 19.256 22.4858 19.2204 21.6277C19.1823 20.7695 19.1646 20.2871 19.1646 20.1754C19.1646 19.0583 19.1925 17.8396 19.2458 16.5142C19.3042 15.1965 19.4261 13.856 19.6115 12.4926C19.7969 11.1342 20.1043 9.81399 20.5335 8.52929C20.9602 7.24459 21.5291 6.09953 22.2376 5.09411C22.9437 4.08869 23.8478 3.27115 24.945 2.63642C26.0447 2.00422 27.3755 1.631 28.9426 1.51929H30.0601C31.1014 1.66908 32.1071 1.90267 33.0773 2.22003C34.0449 2.53486 34.9211 2.96394 35.7034 3.5022C36.4831 4.04299 37.1637 4.6828 37.7402 5.42671C38.3193 6.1757 38.7561 7.0694 39.0558 8.11037C39.0914 8.25763 39.1371 8.62069 39.1955 9.20211C39.2489 9.77591 39.2793 10.1593 39.2793 10.3446C39.2793 10.6442 39.2869 11.0809 39.3073 11.6547C39.325 12.2361 39.3327 12.5611 39.3327 12.6348C39.3327 13.008 39.3428 13.8179 39.3631 15.0645C39.3809 16.3111 39.4089 17.672 39.4444 19.1446C39.4825 20.6146 39.5104 22.0466 39.5308 23.443C39.5485 24.8394 39.5562 25.8728 39.5562 26.543C39.5562 27.4723 39.5663 28.5463 39.5866 29.7548C39.6044 30.9659 39.5663 32.2252 39.4749 33.5251C39.3809 34.8276 39.2133 36.1123 38.972 37.3818C38.7282 38.6462 38.3295 39.7836 37.7707 40.789C37.212 41.7944 36.4831 42.6247 35.5916 43.2746C34.6951 43.9221 33.5598 44.2826 32.1833 44.3638C30.9896 44.4349 29.8645 44.3638 28.8029 44.1353C27.7413 43.9119 26.6492 43.6149 25.5342 43.2442C24.4142 42.909 23.5024 42.3885 22.7964 41.6827C22.0878 40.9718 21.5189 40.1517 21.0922 39.2225C20.663 38.2932 20.3455 37.3056 20.1424 36.2621C19.9366 35.2211 19.8147 34.2106 19.7766 33.2458ZM27.2105 32.8523C27.2841 33.6394 27.5178 34.335 27.9063 34.9495C28.3 35.5588 28.9426 35.833 29.8366 35.7594C30.4334 35.7162 30.8779 35.5436 31.1775 35.2287C31.4747 34.9114 31.688 34.5178 31.8176 34.0532C31.9496 33.5835 32.0258 33.096 32.0411 32.5756C32.0614 32.0525 32.0893 31.5676 32.1274 31.1208V30.646C32.1274 30.4022 32.135 30.1483 32.1528 29.8614C32.1731 29.5847 32.1833 29.3257 32.1833 29.0845V28.6656C32.295 26.7665 32.3484 25.0222 32.3484 23.443C32.3484 21.8612 32.295 20.1195 32.1833 18.2204C32.1833 17.997 32.163 17.6339 32.1274 17.1312C32.0893 16.6285 32.0512 16.0877 32.0157 15.5114C31.9776 14.9325 31.9395 14.3942 31.9039 13.8915C31.8658 13.3888 31.848 13.0232 31.848 12.8023C31.7718 12.5789 31.6322 12.2717 31.429 11.8781C31.2233 11.4897 30.9998 11.1165 30.7559 10.7636C30.5147 10.4106 30.2353 10.1034 29.9178 9.84192C29.6029 9.58295 29.2956 9.45093 28.9984 9.45093C28.6251 9.48901 28.3 9.66674 28.0181 9.98156C27.7413 10.2964 27.5178 10.6798 27.3501 11.1241C27.18 11.5735 27.0505 12.0305 26.9565 12.4926C26.8651 12.9597 26.799 13.3406 26.7609 13.6402C26.7254 13.7138 26.6873 13.9017 26.6492 14.1987C26.6136 14.4983 26.5679 14.8309 26.512 15.2042C26.4562 15.5774 26.4003 15.9303 26.3444 16.2654C26.2885 16.6006 26.2606 16.8062 26.2606 16.8799V17.6618V19.1674C26.2606 19.7285 26.2504 20.2795 26.2301 20.8177C26.2123 21.3585 26.2047 21.7775 26.2047 22.0745V22.5214C26.2047 22.595 26.2123 22.6509 26.2301 22.6889C26.2504 22.727 26.2606 22.7829 26.2606 22.8565V23.0799C26.2987 23.4532 26.3622 24.1057 26.4562 25.0349C26.5476 25.9667 26.6492 26.9442 26.7609 27.9699C26.8752 28.9931 26.9666 29.9681 27.0428 30.8999C27.1165 31.8317 27.1724 32.4842 27.2105 32.8523Z" fill="#2BB673"/>
<path d="M44.5288 33.8046C44.7904 33.0988 45.2628 32.6392 45.9536 32.4361C46.6419 32.2279 47.4622 32.172 48.4095 32.2711C49.3594 32.3625 50.421 32.5351 51.5969 32.7992C52.7703 33.0581 53.9894 33.2993 55.2567 33.5253C55.7773 33.4872 56.2319 33.3552 56.6256 33.1318C57.0167 32.9083 57.3799 32.6214 57.7126 32.2711C58.0504 31.9156 58.3653 31.517 58.6625 31.0676C58.9622 30.6208 59.2796 30.1688 59.6123 29.727C59.6504 29.689 59.6885 29.6077 59.7241 29.4757C59.7622 29.3411 59.7825 29.2624 59.7825 29.2218L59.559 25.9237C59.4854 25.8882 59.2517 25.7028 58.8606 25.3677C58.4695 25.03 58.1622 24.771 57.9387 24.5832C57.8625 24.5095 57.7228 24.4054 57.5196 24.2759C57.3139 24.1465 57.1742 24.083 57.1005 24.083C55.7977 23.5244 54.576 23.0776 53.4408 22.7424C52.3055 22.4098 51.2439 22.0061 50.2559 21.5415C49.268 21.0744 48.374 20.4447 47.574 19.6424C46.7714 18.8426 46.073 17.6976 45.4787 16.2047C45.4787 16.0955 45.4685 15.9279 45.4482 15.7045C45.4304 15.4811 45.4025 15.2475 45.3669 15.0063C45.3288 14.7651 45.3009 14.5391 45.2831 14.336C45.2628 14.1329 45.2552 13.9933 45.2552 13.9171C45.2171 13.3966 45.1714 12.838 45.113 12.2414C45.0596 11.6447 45.1231 11.0887 45.3111 10.5682C45.3466 10.4184 45.4228 10.1468 45.5345 9.75323C45.6438 9.36478 45.7758 8.96616 45.9257 8.55486C46.073 8.14609 46.2127 7.75509 46.3447 7.38187C46.4743 7.01118 46.5581 6.74967 46.5936 6.59988V6.32313C46.8171 5.98799 47.0228 5.72648 47.2108 5.54114C47.3962 5.3558 47.574 5.1603 47.7416 4.95718C47.9092 4.75153 48.0489 4.59158 48.1606 4.47986C49.3899 3.10122 50.609 2.06026 51.8204 1.35189C53.0319 0.643529 54.5125 0.199215 56.2624 0.0113341C56.7475 -0.0267499 57.4536 0.0316456 58.3856 0.178904C59.3152 0.328701 60.2473 0.552127 61.1794 0.851722C62.1089 1.14878 62.9292 1.52962 63.6353 1.99678C64.3464 2.45887 64.7198 2.97173 64.7553 3.5303C64.7934 3.86544 64.7731 4.31229 64.6969 4.87086C64.6233 5.42689 64.5039 5.98799 64.3363 6.5491C64.1661 7.10258 63.9451 7.60022 63.6658 8.02676C63.3864 8.45584 63.0588 8.68688 62.6854 8.72497C61.7203 8.79859 60.7501 8.78844 59.7825 8.6945C58.8123 8.60563 57.8447 8.59548 56.8745 8.67165C56.6891 8.67165 56.3081 8.70465 55.7316 8.78082C55.1551 8.85445 54.7716 8.89253 54.5862 8.89253C54.4744 8.9687 54.2967 9.05249 54.0554 9.14389C53.8116 9.23529 53.5703 9.3597 53.329 9.5095C53.0877 9.65675 52.882 9.80655 52.7169 9.95381C52.5493 10.1036 52.4655 10.2534 52.4655 10.4007L52.7423 13.7546C52.7423 13.9374 52.8642 14.1151 53.1081 14.2852C53.3493 14.4503 53.6109 14.6153 53.8903 14.7854C54.1697 14.953 54.4567 15.1028 54.7538 15.2323C55.0535 15.3617 55.2592 15.4481 55.371 15.4836C56.8593 16.192 58.2206 16.8623 59.4498 17.4945C60.6765 18.1266 61.7381 18.8706 62.6346 19.7287C63.5261 20.5869 64.2448 21.5974 64.7858 22.7729C65.3268 23.9459 65.6696 25.4058 65.8195 27.1551C65.9668 28.6835 65.8652 30.1891 65.5122 31.682C65.1566 33.1698 64.5801 34.4977 63.7801 35.6732C62.98 36.8437 61.9641 37.8263 60.7349 38.6057C59.5057 39.3877 58.1088 39.8523 56.5418 40.0021C55.2389 40.1519 53.8979 40.1697 52.5214 40.0554C51.1423 39.9463 49.8851 39.667 48.7499 39.2176C47.6121 38.7707 46.6546 38.1106 45.8698 37.2372C45.0901 36.3638 44.6406 35.2213 44.5288 33.8046Z" fill="#2BB673"/>
<path d="M110.907 42.3478C110.719 42.2767 110.534 42.1549 110.349 41.9848C110.161 41.8172 110.052 41.6395 110.013 41.4541L108.675 29.6125C108.675 29.4653 108.606 29.3307 108.477 29.2215C108.347 29.1073 108.225 29.0717 108.114 29.1073L101.632 29.7217L102.694 39.5017C102.768 40.0958 102.938 40.6417 103.197 41.1469C103.458 41.6496 103.623 42.1803 103.702 42.7388C103.735 42.9623 103.717 43.1019 103.644 43.1552C103.57 43.2136 103.4 43.2593 103.141 43.2949C103.067 43.2949 102.963 43.305 102.834 43.3279C102.704 43.3482 102.62 43.3558 102.582 43.3558H101.884C101.569 43.3558 101.241 43.3634 100.906 43.3812C100.571 43.4015 100.263 43.4218 99.984 43.4396C99.7046 43.4548 99.5268 43.465 99.4532 43.465C98.7827 43.465 98.2417 43.3913 97.8328 43.2415C97.4239 43.0917 97.1065 42.8708 96.883 42.5713C96.6595 42.2767 96.502 41.9111 96.408 41.4795C96.3141 41.053 96.2303 40.563 96.1566 40.0019C95.9712 37.9529 95.8214 35.9192 95.7096 33.8881C95.5979 31.8544 95.5039 29.8004 95.4302 27.7134C95.4302 27.6753 95.4226 27.4722 95.4023 27.099C95.382 26.7283 95.354 26.3017 95.3185 25.8143C95.2804 25.3293 95.2423 24.8571 95.2067 24.3899C95.1686 23.9228 95.1306 23.5622 95.095 23.3007C95.0213 21.884 95.0848 20.5841 95.2906 19.3882C95.4937 18.1975 95.7274 16.895 95.989 15.4808C95.7655 14.8461 95.8112 14.1758 96.1287 13.47C96.4436 12.7641 96.6976 12.1294 96.883 11.5708C96.9566 11.2738 97.0049 10.992 97.0227 10.733C97.0404 10.4715 97.1065 10.1744 97.2182 9.83674C97.2182 9.80373 97.2385 9.73772 97.2741 9.64378C97.3122 9.54984 97.3503 9.50414 97.3858 9.50414C97.7947 8.75769 98.1503 8.00617 98.4475 7.24195C98.7446 6.48027 99.1535 5.72366 99.6792 4.97721C100.012 4.53036 100.421 4.07589 100.906 3.60873C101.388 3.1441 101.912 2.70741 102.47 2.29864C103.029 1.88733 103.616 1.55473 104.23 1.29322C104.845 1.03171 105.45 0.864138 106.046 0.790509C107.723 0.640712 109.025 0.871754 109.958 1.48618C110.89 2.1006 111.626 2.89529 112.167 3.86262C112.703 4.82996 113.122 5.89885 113.422 7.07438C113.719 8.24483 114.057 9.33657 114.428 10.3395C114.428 10.4512 114.455 10.6568 114.511 10.9564C114.567 11.256 114.613 11.5708 114.651 11.906C114.689 12.2411 114.735 12.5483 114.791 12.8276C114.847 13.1044 114.875 13.2999 114.875 13.4116C115.134 15.8718 115.294 18.3473 115.349 20.8405C115.405 23.3388 115.489 25.8117 115.601 28.2669C115.601 28.9016 115.555 29.5567 115.461 30.2244C115.367 30.8921 115.342 31.5447 115.377 32.1794C115.377 32.253 115.395 32.4485 115.433 32.7633C115.469 33.0807 115.507 33.4285 115.545 33.7992C115.581 34.1699 115.629 34.5127 115.685 34.83C115.741 35.1474 115.769 35.3404 115.769 35.414V37.2598C115.769 37.3334 115.776 37.5289 115.796 37.8438C115.814 38.1611 115.835 38.509 115.852 38.8796C115.873 39.2503 115.888 39.5931 115.908 39.9104C115.926 40.2278 115.936 40.4411 115.936 40.5553C115.936 40.7788 115.898 41.1139 115.824 41.5582C115.751 42.0051 115.507 42.2691 115.098 42.3428H114.986C114.948 42.3428 114.826 42.3224 114.623 42.2869C114.417 42.2488 114.295 42.231 114.26 42.231C114.148 42.231 113.925 42.2412 113.589 42.264C113.254 42.2844 112.909 42.2894 112.556 42.2894C112.2 42.2894 111.865 42.2996 111.55 42.3174C111.233 42.3402 111.019 42.3478 110.907 42.3478ZM101.744 22.242C101.782 22.6888 102.041 23.0062 102.526 23.189C103.009 23.3769 103.57 23.4962 104.203 23.5546C104.835 23.6105 105.47 23.6308 106.102 23.6105C106.735 23.5902 107.22 23.5648 107.555 23.5267C107.629 23.5267 107.778 23.5165 108.002 23.4962C108.225 23.4784 108.373 23.4708 108.449 23.4708C108.523 23.3566 108.578 23.255 108.617 23.1636C108.655 23.0697 108.69 22.9656 108.728 22.8564C108.728 22.633 108.708 22.2699 108.675 21.7647C108.634 21.2645 108.606 20.7135 108.589 20.1194C108.571 19.5253 108.553 18.9744 108.533 18.4717C108.512 17.9664 108.505 17.6059 108.505 17.3825C108.543 17.3088 108.561 17.1387 108.561 16.8798V16.3212L108.002 10.9006C107.964 10.6441 107.87 10.342 107.723 10.0094C107.573 9.67425 107.387 9.36704 107.164 9.08521C106.94 8.80847 106.669 8.58504 106.354 8.41747C106.036 8.24737 105.714 8.18389 105.376 8.22198C105.079 8.25752 104.797 8.35146 104.538 8.50126C103.309 9.76565 102.544 11.0884 102.247 12.4671C101.947 13.8432 101.782 15.3539 101.744 16.9915C101.744 17.8826 101.724 18.7611 101.691 19.6167C101.65 20.4723 101.67 21.3457 101.744 22.242Z" fill="#2BB673"/>
<path d="M121.466 42.6857C121.392 41.6397 121.466 40.5886 121.689 39.5273C121.913 38.466 122.06 37.4149 122.139 36.3765C122.25 35.63 122.324 34.881 122.362 34.1371C122.395 33.3932 122.454 32.6493 122.527 31.9054C122.489 31.8648 122.471 31.8115 122.471 31.7378V31.5169L123.03 27.8253C122.845 27.2312 122.855 26.6244 123.058 26.0125C123.264 25.3956 123.403 24.8294 123.477 24.3089C123.515 23.9382 123.589 23.2197 123.701 22.1584C123.812 21.0971 123.96 19.8886 124.15 18.5277C124.335 17.1694 124.528 15.7349 124.734 14.2268C124.937 12.7161 125.153 11.3222 125.377 10.0401C125.6 8.75283 125.816 7.67378 126.019 6.79531C126.225 5.92445 126.418 5.42682 126.606 5.31765C127.165 4.97997 127.807 4.79716 128.534 4.75908C129.26 4.72354 129.941 4.68291 130.573 4.64991C131.02 4.60928 131.373 4.59151 131.635 4.59151C131.894 4.59151 132.287 4.60928 132.808 4.64991C133.258 4.90634 133.608 5.41159 133.87 6.1555C134.129 8.20442 134.533 10.1492 135.071 11.9925C135.609 13.8358 136.14 15.7451 136.663 17.7178C136.701 17.7914 136.757 18.0073 136.831 18.3602C136.905 18.7156 136.988 19.0939 137.082 19.5052C137.176 19.914 137.27 20.2974 137.362 20.6503C137.456 21.0032 137.502 21.219 137.502 21.2901C137.578 21.478 137.679 21.7953 137.811 22.2422C137.938 22.6891 138.025 23.0064 138.06 23.1892C138.06 23.2298 138.078 23.2679 138.119 23.3035C138.152 23.3416 138.19 23.3593 138.23 23.3593H138.284C138.507 23.3593 138.682 22.882 138.815 21.935C138.947 20.9854 139.058 19.8023 139.15 18.3881C139.244 16.9714 139.335 15.4455 139.429 13.8079C139.521 12.1677 139.632 10.6443 139.764 9.22507C139.896 7.81342 140.062 6.63028 140.267 5.68072C140.47 4.73115 140.742 4.23606 141.08 4.20052L146.944 3.75366C147.056 3.75366 147.206 3.83491 147.391 4.00502C147.577 4.17259 147.688 4.33254 147.727 4.4798L148.788 12.5232C148.862 12.8202 148.946 13.1376 149.04 13.4727C149.134 13.8079 149.217 14.1252 149.291 14.4223C149.329 14.831 149.403 15.4734 149.515 16.3493C149.626 17.2253 149.758 18.2104 149.906 19.3097C150.055 20.4091 150.203 21.5541 150.353 22.7449C150.502 23.9382 150.65 25.0807 150.8 26.1801C150.947 27.282 151.089 28.2569 151.219 29.11C151.351 29.9682 151.452 30.6029 151.526 31.0092C151.564 31.3849 151.658 32.0146 151.805 32.9083C151.955 33.8071 152.12 34.7617 152.311 35.7849C152.496 36.8132 152.671 37.7678 152.842 38.6666C153.007 39.5628 153.129 40.195 153.202 40.5657V40.7282C153.24 40.9186 153.23 41.1598 153.174 41.4594C153.118 41.7539 152.996 41.9367 152.811 42.0129L147.727 42.3506L144.486 17.662L144.265 16.7149L141.133 42.2947L137.781 42.5715L131.076 16.8774L126.941 44.1329C126.906 44.397 126.896 44.5544 126.916 44.6102C126.931 44.6636 126.847 44.694 126.662 44.694C126.624 44.694 126.606 44.7042 126.606 44.7245C126.606 44.7423 126.588 44.7499 126.55 44.7499H126.494C126.195 44.7143 125.776 44.6661 125.237 44.6102C124.696 44.5569 124.15 44.4503 123.589 44.3056C123.03 44.1532 122.547 43.9603 122.139 43.7191C121.727 43.4779 121.504 43.1326 121.466 42.6857Z" fill="#2BB673"/>
<path d="M159.965 40.2815C159.965 40.2078 159.983 40.1215 160.019 40.0301C160.057 39.9387 160.057 39.8727 160.019 39.8346C160.057 39.3548 160.115 38.7632 160.189 38.0751C160.262 37.3871 160.392 36.8209 160.577 36.3741C160.692 36.11 160.877 35.917 161.139 35.7876C161.398 35.6555 161.669 35.5464 161.946 35.455C162.228 35.361 162.497 35.2645 162.759 35.1731C163.018 35.0817 163.224 34.9243 163.374 34.6983C163.409 34.6983 163.437 34.6425 163.457 34.5308C163.475 34.4191 163.485 34.3277 163.485 34.254C163.485 34.1804 163.493 34.0306 163.511 33.8072C163.531 33.5812 163.549 33.3299 163.569 33.0506C163.587 32.7713 163.597 32.5047 163.597 32.2407V31.6821C163.485 28.6658 163.457 25.6699 163.511 22.6892C163.567 19.7085 163.503 16.7328 163.313 13.7521C163.313 13.676 163.297 13.5287 163.259 13.3027C163.221 13.0793 163.191 12.8381 163.176 12.5766C163.155 12.3176 163.137 12.0764 163.12 11.853C163.099 11.6296 163.092 11.4595 163.092 11.3503C163.018 11.0177 162.843 10.812 162.561 10.7359C162.284 10.6622 161.977 10.5886 161.642 10.5124C161.304 10.4388 161.007 10.3169 160.748 10.1494C160.486 9.9818 160.336 9.67459 160.301 9.22774C160.301 9.19219 160.29 9.15157 160.273 9.11856C160.252 9.08048 160.242 9.0424 160.242 9.00431V7.85925C160.242 7.321 160.252 6.74212 160.273 6.1277C160.29 5.51327 160.301 4.93693 160.301 4.39614V3.30694C160.374 3.00734 160.466 2.63666 160.577 2.1898C160.692 1.74295 160.895 1.48398 161.192 1.40527L161.304 1.46621H161.416C161.977 1.57538 162.759 1.62362 163.765 1.60585C164.771 1.58554 165.794 1.60585 166.838 1.65917C167.879 1.71502 168.857 1.84705 169.769 2.05016C170.683 2.25328 171.326 2.61888 171.699 3.13937C171.884 3.36279 171.976 3.71824 171.976 4.20064C171.976 4.68558 171.996 5.0588 172.034 5.32031C172.146 6.91984 172.098 8.03698 171.892 8.67171C171.689 9.30391 171.448 9.73299 171.168 9.95641C170.889 10.1798 170.599 10.3271 170.3 10.4007C170.002 10.4769 169.817 10.7739 169.743 11.2944C169.482 12.8584 169.332 14.4224 169.296 15.9864C169.258 17.5529 169.268 19.1144 169.324 20.6783C169.38 22.2449 169.461 23.7987 169.573 25.3424C169.687 26.8911 169.779 28.4424 169.855 30.0089V30.5954V31.6237C169.855 31.9944 169.863 32.3422 169.88 32.6596C169.901 32.977 169.911 33.1699 169.911 33.2461V33.6904C169.947 34.1372 170.114 34.4343 170.411 34.5841C170.708 34.7339 171.046 34.8761 171.42 35.0056C171.79 35.1376 172.136 35.3026 172.453 35.5057C172.768 35.7139 172.964 36.0922 173.037 36.6508C173.037 36.9148 173.048 37.2957 173.065 37.7959C173.086 38.296 173.058 38.8013 172.984 39.304C172.908 39.8042 172.768 40.2662 172.565 40.6725C172.359 41.0838 172.034 41.3072 171.587 41.3428C170.841 41.4951 169.992 41.5306 169.042 41.457C168.095 41.3859 167.247 41.3859 166.5 41.457C166.388 41.457 166.119 41.4849 165.692 41.5408C165.263 41.5966 164.816 41.65 164.351 41.7058C163.884 41.7617 163.437 41.8099 163.008 41.848C162.581 41.8835 162.312 41.9039 162.2 41.9039C161.677 41.9369 161.192 41.8378 160.748 41.5966C160.298 41.3529 160.036 40.9162 159.965 40.2815Z" fill="#2BB673"/>
<path d="M195.835 41.0102C195.685 41.0102 195.509 41.0635 195.304 41.1727C195.098 41.2869 194.895 41.4062 194.689 41.5408C194.486 41.6728 194.306 41.8023 194.158 41.9318C194.008 42.0613 193.917 42.1451 193.879 42.1806C193.356 42.4447 192.782 42.5919 192.147 42.63C191.514 42.6681 190.918 42.6859 190.359 42.6859C189.056 42.7214 187.837 42.4244 186.699 41.7896C185.564 41.16 184.55 40.3196 183.654 39.2735C182.762 38.2326 182.023 37.0723 181.447 35.7825C180.868 34.5003 180.487 33.2436 180.301 32.0147C180.078 30.565 179.956 29.0873 179.938 27.5767C179.918 26.0685 179.893 24.5655 179.854 23.0802C179.781 21.1811 179.91 19.1525 180.246 16.9918C180.581 14.8312 181.14 12.8762 181.922 11.1243C182.257 10.383 182.704 9.59083 183.263 8.75298C183.824 7.91513 184.464 7.12298 185.193 6.37907C185.917 5.63516 186.689 4.97504 187.512 4.39616C188.33 3.82236 189.147 3.41867 189.968 3.19524C190.118 3.19524 190.415 3.17747 190.862 3.13939C191.309 3.1013 191.606 3.08353 191.758 3.08353C193.356 3.04799 194.661 3.18763 195.669 3.50499C196.673 3.82236 197.447 4.33269 197.988 5.03851C198.527 5.74434 198.89 6.65835 199.075 7.77549C199.263 8.89516 199.375 10.2535 199.411 11.8556V12.3862C199.411 12.6274 199.421 12.8864 199.438 13.1656C199.459 13.4475 199.469 13.7141 199.469 13.9781V14.5341C199.428 14.8312 199.39 15.1562 199.355 15.5116C199.317 15.8671 199.253 16.1946 199.162 16.4917C199.065 16.7887 198.928 17.0477 198.743 17.2686C198.552 17.4945 198.293 17.6062 197.958 17.6062C197.214 17.5707 196.523 17.4768 195.89 17.327C195.367 17.2153 194.885 17.0756 194.438 16.908C193.991 16.7379 193.77 16.5094 193.77 16.2073L193.711 12.1323C193.711 11.6118 193.478 11.165 193.015 10.7943C192.548 10.4211 192.073 10.2332 191.588 10.2332C190.394 10.2738 189.401 10.8044 188.599 11.8251C187.799 12.8508 187.156 14.0695 186.674 15.4837C186.186 16.8979 185.841 18.3502 185.637 19.8405C185.432 21.3309 185.33 22.5775 185.33 23.5829C185.368 24.4791 185.49 25.5836 185.693 26.9064C185.899 28.2292 186.234 29.5012 186.699 30.7326C187.166 31.9639 187.778 33.0074 188.543 33.8631C189.307 34.7161 190.283 35.1452 191.476 35.1452C192.147 35.1097 192.688 34.8685 193.097 34.4216C193.506 33.9722 193.673 33.4162 193.6 32.7459C193.6 32.7053 193.589 32.6114 193.572 32.4641C193.554 32.3143 193.536 32.1594 193.516 31.9919C193.498 31.8243 193.46 31.6745 193.404 31.5425C193.348 31.413 193.282 31.347 193.208 31.347L190.585 31.4003C190.473 31.4003 190.351 31.3368 190.219 31.2099C190.087 31.0778 189.968 30.9204 189.856 30.7326C189.747 30.5497 189.65 30.372 189.577 30.2019C189.503 30.0343 189.465 29.8947 189.465 29.7855L189.409 26.1498C189.409 25.7791 189.556 25.4744 189.856 25.2332C190.156 24.992 190.473 24.8676 190.808 24.8676H191.029C191.217 24.9057 191.542 24.9819 192.007 25.0885C192.474 25.2027 192.761 25.2789 192.873 25.3119L200.081 25.0885C200.155 25.0885 200.256 25.1951 200.388 25.3982C200.52 25.6039 200.622 25.7639 200.696 25.873C200.734 25.9136 200.759 25.9467 200.779 25.9873C200.797 26.0254 200.828 26.0609 200.863 26.0965C200.901 26.1701 200.939 26.231 200.975 26.264C200.975 26.3732 200.957 26.6017 200.919 26.9343C200.881 27.272 200.845 27.4954 200.807 27.6071L201.087 42.3533C201.087 42.6529 200.983 42.8839 200.779 43.054C200.574 43.219 200.378 43.3003 200.193 43.3003C199.672 43.3409 199.121 43.2851 198.544 43.1378C197.968 42.9855 197.475 42.7646 197.064 42.4675C196.805 42.3177 196.619 42.0359 196.508 41.6297C196.393 41.2133 196.167 41.0102 195.835 41.0102Z" fill="#2BB673"/>
<path d="M208.404 33.2458C208.368 33.0986 208.34 32.8929 208.322 32.6314C208.302 32.3724 208.284 32.1109 208.266 31.8494C208.246 31.5879 208.228 31.3569 208.211 31.1538C208.19 30.9456 208.18 30.8059 208.18 30.7323C208.145 30.029 208.106 29.1023 208.068 27.9699C208.033 26.835 207.995 25.7052 207.957 24.5881C207.921 23.476 207.883 22.4858 207.847 21.6277C207.809 20.7695 207.792 20.2871 207.792 20.1754C207.792 19.0583 207.819 17.8396 207.873 16.5142C207.931 15.1965 208.053 13.856 208.238 12.4926C208.424 11.1342 208.731 9.81399 209.16 8.52929C209.587 7.24459 210.156 6.09953 210.865 5.09411C211.571 4.08869 212.475 3.27115 213.572 2.63642C214.672 2.00422 216.002 1.631 217.57 1.51929H218.687C219.728 1.66908 220.734 1.90267 221.704 2.22003C222.672 2.53486 223.548 2.96394 224.33 3.5022C225.11 4.04299 225.791 4.6828 226.367 5.42671C226.946 6.1757 227.383 7.0694 227.683 8.11037C227.718 8.25763 227.764 8.62069 227.822 9.20211C227.876 9.77591 227.906 10.1593 227.906 10.3446C227.906 10.6442 227.914 11.0809 227.934 11.6547C227.952 12.2361 227.96 12.5611 227.96 12.6348C227.96 13.008 227.97 13.8179 227.99 15.0645C228.008 16.3111 228.036 17.672 228.071 19.1446C228.109 20.6146 228.137 22.0466 228.158 23.443C228.175 24.8394 228.183 25.8728 228.183 26.543C228.183 27.4723 228.193 28.5463 228.214 29.7548C228.231 30.9659 228.193 32.2252 228.102 33.5251C228.008 34.8276 227.84 36.1123 227.599 37.3818C227.355 38.6462 226.956 39.7836 226.398 40.789C225.839 41.7944 225.11 42.6247 224.219 43.2746C223.322 43.9221 222.187 44.2826 220.81 44.3638C219.617 44.4349 218.491 44.3638 217.43 44.1353C216.368 43.9119 215.276 43.6149 214.161 43.2442C213.041 42.909 212.129 42.3885 211.423 41.6827C210.715 40.9718 210.146 40.1517 209.719 39.2225C209.29 38.2932 208.972 37.3056 208.769 36.2621C208.564 35.2211 208.439 34.2106 208.404 33.2458ZM215.837 32.8523C215.911 33.6394 216.145 34.335 216.533 34.9495C216.927 35.5588 217.57 35.833 218.463 35.7594C219.06 35.7162 219.505 35.5436 219.804 35.2287C220.102 34.9114 220.315 34.5178 220.444 34.0532C220.577 33.5835 220.653 33.096 220.668 32.5756C220.688 32.0525 220.716 31.5676 220.754 31.1208V30.646C220.754 30.4022 220.762 30.1483 220.78 29.8614C220.8 29.5847 220.81 29.3257 220.81 29.0845V28.6656C220.922 26.7665 220.975 25.0222 220.975 23.443C220.975 21.8612 220.922 20.1195 220.81 18.2204C220.81 17.997 220.79 17.6339 220.754 17.1312C220.716 16.6285 220.678 16.0877 220.643 15.5114C220.605 14.9325 220.566 14.3942 220.531 13.8915C220.493 13.3888 220.475 13.0232 220.475 12.8023C220.399 12.5789 220.259 12.2717 220.056 11.8781C219.85 11.4897 219.627 11.1165 219.383 10.7636C219.142 10.4106 218.862 10.1034 218.545 9.84192C218.23 9.58295 217.923 9.45093 217.625 9.45093C217.252 9.48901 216.927 9.66674 216.645 9.98156C216.368 10.2964 216.145 10.6798 215.977 11.1241C215.807 11.5735 215.677 12.0305 215.583 12.4926C215.492 12.9597 215.426 13.3406 215.388 13.6402C215.352 13.7138 215.314 13.9017 215.276 14.1987C215.241 14.4983 215.195 14.8309 215.139 15.2042C215.083 15.5774 215.027 15.9303 214.971 16.2654C214.915 16.6006 214.888 16.8062 214.888 16.8799V17.6618V19.1674C214.888 19.7285 214.877 20.2795 214.857 20.8177C214.839 21.3585 214.832 21.7775 214.832 22.0745V22.5214C214.832 22.595 214.839 22.6509 214.857 22.6889C214.877 22.727 214.888 22.7829 214.888 22.8565V23.0799C214.926 23.4532 214.989 24.1057 215.083 25.0349C215.175 25.9667 215.276 26.9442 215.388 27.9699C215.502 28.9931 215.594 29.9681 215.67 30.8999C215.741 31.8317 215.797 32.4842 215.837 32.8523Z" fill="#2BB673"/>
<path d="M233.156 33.8046C233.417 33.0988 233.89 32.6392 234.581 32.4361C235.269 32.2279 236.089 32.172 237.036 32.2711C237.986 32.3625 239.048 32.5351 240.224 32.7992C241.397 33.0581 242.616 33.2993 243.884 33.5253C244.404 33.4872 244.859 33.3552 245.253 33.1318C245.644 32.9083 246.007 32.6214 246.34 32.2711C246.677 31.9156 246.992 31.517 247.289 31.0676C247.589 30.6208 247.907 30.1688 248.239 29.727C248.277 29.689 248.316 29.6077 248.351 29.4757C248.389 29.3411 248.409 29.2624 248.409 29.2218L248.186 25.9237C248.112 25.8882 247.879 25.7028 247.488 25.3677C247.096 25.03 246.789 24.771 246.566 24.5832C246.489 24.5095 246.35 24.4054 246.147 24.2759C245.941 24.1465 245.801 24.083 245.727 24.083C244.425 23.5244 243.203 23.0776 242.068 22.7424C240.932 22.4098 239.871 22.0061 238.883 21.5415C237.895 21.0744 237.001 20.4447 236.201 19.6424C235.398 18.8426 234.7 17.6976 234.106 16.2047C234.106 16.0955 234.095 15.9279 234.075 15.7045C234.057 15.4811 234.029 15.2475 233.994 15.0063C233.956 14.7651 233.928 14.5391 233.91 14.336C233.89 14.1329 233.882 13.9933 233.882 13.9171C233.844 13.3966 233.798 12.838 233.74 12.2414C233.687 11.6447 233.75 11.0887 233.938 10.5682C233.974 10.4184 234.05 10.1468 234.161 9.75323C234.271 9.36478 234.403 8.96616 234.553 8.55486C234.7 8.14609 234.84 7.75509 234.972 7.38187C235.101 7.01118 235.185 6.74967 235.221 6.59988V6.32313C235.444 5.98799 235.65 5.72648 235.838 5.54114C236.023 5.3558 236.201 5.1603 236.369 4.95718C236.536 4.75153 236.676 4.59158 236.788 4.47986C238.017 3.10122 239.236 2.06026 240.447 1.35189C241.659 0.643529 243.139 0.199215 244.889 0.0113341C245.374 -0.0267499 246.081 0.0316456 247.013 0.178904C247.942 0.328701 248.874 0.552127 249.806 0.851722C250.736 1.14878 251.556 1.52962 252.262 1.99678C252.971 2.45887 253.344 2.97173 253.382 3.5303C253.42 3.86544 253.4 4.31229 253.324 4.87086C253.25 5.42689 253.131 5.98799 252.963 6.5491C252.793 7.10258 252.572 7.60022 252.293 8.02676C252.013 8.45584 251.686 8.68688 251.312 8.72497C250.347 8.79859 249.377 8.78844 248.409 8.6945C247.439 8.60563 246.472 8.59548 245.501 8.67165C245.316 8.67165 244.935 8.70465 244.359 8.78082C243.782 8.85445 243.399 8.89253 243.213 8.89253C243.101 8.9687 242.924 9.05249 242.682 9.14389C242.439 9.23529 242.197 9.3597 241.956 9.5095C241.712 9.65675 241.509 9.80655 241.341 9.95381C241.174 10.1036 241.09 10.2534 241.09 10.4007L241.367 13.7546C241.367 13.9374 241.489 14.1151 241.732 14.2852C241.974 14.4503 242.235 14.6153 242.515 14.7854C242.794 14.953 243.081 15.1028 243.378 15.2323C243.678 15.3617 243.884 15.4481 243.995 15.4836C245.484 16.192 246.845 16.8623 248.074 17.4945C249.301 18.1266 250.363 18.8706 251.259 19.7287C252.151 20.5869 252.869 21.5974 253.41 22.7729C253.951 23.9459 254.294 25.4058 254.444 27.1551C254.591 28.6835 254.49 30.1891 254.137 31.682C253.781 33.1698 253.204 34.4977 252.404 35.6732C251.604 36.8437 250.589 37.8263 249.359 38.6057C248.13 39.3852 246.733 39.8523 245.166 40.0021C243.863 40.1519 242.522 40.1697 241.146 40.0554C239.767 39.9463 238.51 39.667 237.374 39.2176C236.236 38.7707 235.279 38.1106 234.494 37.2372C233.715 36.3638 233.268 35.2213 233.156 33.8046Z" fill="#2BB673"/>
<path d="M285.731 43.1883C285.658 43.1502 285.599 42.9953 285.566 42.711C285.526 42.4342 285.508 42.254 285.508 42.1803C285.284 40.8423 285.249 39.5068 285.396 38.1917C285.546 36.8663 285.599 35.5537 285.566 34.2512C285.488 32.5781 285.312 30.91 285.035 29.2521C284.754 27.5967 284.538 25.9235 284.393 24.2478C284.352 22.9479 284.352 21.6886 284.393 20.48C284.426 19.269 284.446 18.0147 284.446 16.7123C284.484 15.519 284.446 14.3155 284.334 13.107C284.223 11.8959 284.129 10.695 284.055 9.50675V9.17161V8.58512V7.99862V7.61016C284.017 7.41974 283.981 7.10238 283.943 6.65806C283.905 6.21121 283.87 5.73389 283.832 5.23372C283.793 4.73101 283.758 4.25623 283.72 3.81192C283.684 3.36252 283.667 3.0477 283.667 2.85981C283.74 2.56022 283.814 2.33679 283.89 2.18954C283.964 2.03974 284.111 1.91025 284.334 1.79854C284.411 1.76299 284.624 1.71221 284.977 1.6589C285.333 1.60304 285.566 1.57511 285.678 1.57511C287.722 1.31614 289.569 1.405 291.207 1.8544C292.848 2.30125 294.27 3.02738 295.481 4.0328C296.693 5.03822 297.678 6.27468 298.443 7.74727C299.207 9.21731 299.738 10.827 300.035 12.5789C300.221 13.9956 300.315 15.3692 300.315 16.7148C300.315 18.0528 300.259 19.4518 300.147 20.9015C300.297 21.6479 300.315 22.3715 300.203 23.0799C300.091 23.7883 300.073 24.5119 300.147 25.2558C300.185 26.4516 300.259 27.8353 300.373 29.4171C300.485 31.0014 300.454 32.5857 300.289 34.17C300.119 35.7517 299.728 37.2218 299.116 38.5801C298.501 39.9384 297.503 40.9896 296.124 41.7335C294.786 42.4063 293.358 42.8481 291.85 43.0715C290.343 43.2949 288.842 43.5006 287.354 43.6885C287.278 43.6885 287.1 43.7062 286.823 43.7443C286.541 43.7824 286.364 43.7976 286.29 43.7976C286.216 43.724 286.115 43.6377 285.985 43.5437C285.853 43.4549 285.769 43.3355 285.731 43.1883ZM291.039 35.8127C291.225 36.1097 291.469 36.2443 291.766 36.2037C292.175 36.1681 292.502 35.9447 292.744 35.5359C292.987 35.1246 293.173 34.6651 293.305 34.1674C293.432 33.6597 293.526 33.1493 293.582 32.6289C293.638 32.1084 293.686 31.6971 293.724 31.4025C293.759 31.141 293.798 30.7805 293.836 30.3133C293.871 29.8462 293.909 29.4019 293.947 28.9728C293.983 28.5462 294.011 28.173 294.031 27.8556C294.049 27.5383 294.057 27.3656 294.057 27.325L294.001 26.8782C294.001 24.8292 294.021 22.7168 294.057 20.5359C294.095 18.36 293.947 16.207 293.612 14.0845C293.422 13.0079 293.208 12.1523 292.97 11.5176C292.726 10.8854 292.195 10.177 291.377 9.39504C291.263 9.20969 291.161 9.0599 291.07 8.94818C290.976 8.83647 290.798 8.79839 290.539 8.83647C290.351 8.87456 290.285 9.03197 290.343 9.31125C290.397 9.59053 290.427 9.74795 290.427 9.78603C290.539 12.0584 290.613 14.3282 290.651 16.6005C290.684 18.8703 290.742 21.1452 290.816 23.415C290.854 25.2786 290.798 27.1676 290.651 29.087C290.498 31.0014 290.572 32.8929 290.874 34.7514C290.874 34.825 290.9 35.0078 290.958 35.282C291.011 35.5613 291.039 35.7416 291.039 35.8127Z" fill="#2BB673"/>
<path d="M308.53 42.6856C308.38 42.5713 308.23 42.452 308.083 42.3175C307.933 42.1905 307.86 42.0306 307.86 41.8452C307.672 40.0553 307.682 38.2501 307.887 36.4246C308.091 34.5991 308.195 32.7939 308.195 31.004C308.195 28.7722 308.129 26.5303 307.999 24.2758C307.867 22.0263 307.73 19.7742 307.58 17.5171C307.43 15.2651 307.311 13.0181 307.214 10.7864C307.123 8.55214 307.113 6.33819 307.189 4.13693C307.189 3.9135 307.253 3.67484 307.385 3.41333C307.517 3.15436 307.71 3.00203 307.971 2.96648C308.345 2.9284 308.781 2.94871 309.284 3.02234C309.787 3.09597 310.206 3.11628 310.542 3.07566C310.691 3.07566 310.968 3.06804 311.38 3.0528C311.789 3.03249 312.225 3.01218 312.693 2.99441C313.157 2.97664 313.594 2.95632 314.006 2.93855C314.415 2.92078 314.694 2.91062 314.844 2.91062C314.879 2.91062 315.032 2.89285 315.291 2.85223C315.552 2.81922 315.829 2.7786 316.129 2.74559C316.426 2.70497 316.695 2.66943 316.939 2.63134C317.18 2.5958 317.34 2.57549 317.414 2.57549C317.638 2.57549 318.001 2.55517 318.504 2.52217C319.006 2.48154 319.509 2.48154 320.012 2.52217C320.515 2.55517 320.97 2.63134 321.381 2.74559C321.79 2.85223 322.016 3.07566 322.052 3.41333L322.443 8.10529C322.478 8.40234 322.349 8.65624 322.052 8.85935C321.752 9.06501 321.475 9.18688 321.214 9.21988C320.467 9.29859 319.723 9.27066 318.979 9.13863C318.232 9.00661 317.47 8.98122 316.688 9.05485C316.502 9.05485 316.258 9.06501 315.961 9.08278C315.664 9.10055 315.357 9.14625 315.039 9.21988C314.722 9.29859 314.453 9.4103 314.229 9.55756C314.006 9.70736 313.894 9.93078 313.894 10.2278C314.006 11.7182 314.006 13.2619 313.894 14.8639C313.782 16.466 313.8 18.0275 313.95 19.5559C313.95 19.7438 313.968 19.985 314.006 20.282C314.041 20.5816 314.153 20.8228 314.341 21.0082C314.491 21.1199 314.722 21.2037 315.039 21.2595C315.357 21.3154 315.679 21.3433 316.017 21.3433C316.352 21.3433 316.667 21.3357 316.967 21.3154C317.264 21.2951 317.488 21.2849 317.638 21.2849C317.787 21.2849 318.064 21.2697 318.476 21.2316C318.885 21.196 319.314 21.1478 319.761 21.0919C320.208 21.0386 320.637 20.9879 321.046 20.9523C321.455 20.9142 321.734 20.8965 321.884 20.8965C321.996 20.8965 322.087 20.9625 322.163 21.0919C322.237 21.2214 322.275 21.3255 322.275 21.3992L322.664 25.0273C322.702 25.365 322.618 25.7001 322.415 26.0327C322.209 26.3653 321.958 26.5532 321.661 26.5938C320.84 26.703 320.02 26.6928 319.202 26.5634C318.382 26.4339 317.544 26.4034 316.688 26.4796C316.164 26.5532 315.794 26.6928 315.568 26.901C315.347 27.1041 315.197 27.358 315.123 27.6551C315.047 27.9522 315.011 28.2848 315.011 28.6605V29.8335C315.011 29.9427 314.991 30.2143 314.956 30.6409C314.917 31.0725 314.872 31.527 314.816 32.0094C314.76 32.4943 314.714 32.9412 314.676 33.3474C314.638 33.7587 314.603 34.0227 314.564 34.1319C314.638 34.1725 314.656 34.2817 314.618 34.4721C314.582 34.6524 314.603 34.8022 314.676 34.9165C314.676 35.1399 314.714 35.4115 314.788 35.7264C314.862 36.0437 315.067 36.2012 315.403 36.2012H316.716H318.671H320.627H321.884C322.478 36.2012 323.019 36.257 323.504 36.3713C323.987 36.4804 324.325 36.8917 324.51 37.5976C324.51 37.6687 324.538 37.8489 324.594 38.1282C324.65 38.405 324.706 38.7223 324.762 39.0752C324.817 39.4332 324.873 39.7836 324.929 40.1365C324.985 40.4945 325.031 40.7611 325.069 40.9439V41.2816C325.142 41.8021 325.013 42.0991 324.675 42.1753C324.342 42.2489 323.969 42.3251 323.56 42.4012C321.996 42.5866 320.431 42.6323 318.867 42.5383C317.302 42.4495 315.738 42.3835 314.173 42.3454C314.062 42.3098 313.782 42.3149 313.335 42.3759C312.888 42.4292 312.627 42.4596 312.553 42.4596C312.403 42.4596 312.134 42.4647 311.743 42.485C311.352 42.5079 310.94 42.5333 310.514 42.5688C310.084 42.6094 309.683 42.6323 309.312 42.6526C308.939 42.6754 308.68 42.6856 308.53 42.6856Z" fill="#2BB673"/>
<path d="M332.889 39.5577C332.625 37.4732 332.553 35.3329 332.665 33.1341C332.777 30.938 332.795 28.7773 332.721 26.6548C332.645 24.6414 332.533 22.6813 332.386 20.7619C332.236 18.8475 332.18 16.8799 332.216 14.869C332.216 12.7109 332.226 10.7001 332.246 8.83652C332.264 6.97548 332.124 5.00273 331.827 2.91572C331.901 2.32161 332.208 1.8646 332.747 1.54723C333.288 1.23241 333.818 1.03691 334.339 0.960739C334.938 0.88711 335.596 0.88711 336.325 0.960739C337.051 1.03691 337.656 1.31619 338.138 1.79859C338.138 1.87222 338.149 2.02201 338.169 2.24544C338.187 2.47141 338.197 2.61867 338.197 2.69229C338.344 3.99731 338.326 5.41403 338.138 6.9374C337.953 8.46584 337.897 9.86225 337.973 11.1266C337.973 11.2764 338.001 11.8452 338.057 12.8328C338.113 13.8179 338.176 14.9452 338.25 16.2096C338.326 17.4791 338.4 18.7536 338.476 20.0383C338.55 21.3205 338.606 22.3386 338.644 23.0825C338.756 24.8674 338.819 26.6065 338.839 28.3025C338.857 29.9986 338.961 31.72 339.147 33.4718C339.258 34.1776 339.566 34.5839 340.069 34.6981C340.569 34.8073 341.12 34.8581 341.717 34.8403C342.311 34.8175 342.862 34.8302 343.365 34.8657C343.866 34.9038 344.158 35.2211 344.231 35.8153C344.231 37.0111 344.203 37.9683 344.147 38.6919C344.092 39.418 344.008 40.0807 343.896 40.6748C343.784 41.2689 343.596 41.5685 343.335 41.5685C343.299 41.6117 343.233 41.6243 343.142 41.6243H342.946C341.529 41.5533 340.076 41.4822 338.588 41.4289C337.097 41.3755 335.606 41.2689 334.115 41.1216C333.633 41.0886 333.326 40.949 333.196 40.7053C333.064 40.459 332.962 40.0781 332.889 39.5577Z" fill="#2BB673"/>
<path d="M373.118 33.8046C373.38 33.0988 373.852 32.6392 374.543 32.4361C375.231 32.2279 376.052 32.172 376.999 32.2711C377.949 32.3625 379.01 32.5351 380.186 32.7992C381.36 33.0581 382.579 33.2993 383.846 33.5253C384.367 33.4872 384.821 33.3552 385.215 33.1318C385.606 32.9083 385.969 32.6214 386.302 32.2711C386.64 31.9156 386.955 31.517 387.252 31.0676C387.552 30.6208 387.869 30.1688 388.202 29.727C388.24 29.689 388.278 29.6077 388.313 29.4757C388.352 29.3411 388.372 29.2624 388.372 29.2218L388.148 25.9237C388.075 25.8882 387.841 25.7028 387.45 25.3677C387.059 25.03 386.752 24.771 386.528 24.5832C386.452 24.5095 386.312 24.4054 386.109 24.2759C385.903 24.1465 385.764 24.083 385.69 24.083C384.387 23.5244 383.165 23.0776 382.03 22.7424C380.895 22.4098 379.833 22.0061 378.845 21.5415C377.857 21.0744 376.963 20.4447 376.163 19.6424C375.361 18.8426 374.662 17.6976 374.068 16.2047C374.068 16.0955 374.058 15.9279 374.038 15.7045C374.02 15.4811 373.992 15.2475 373.956 15.0063C373.918 14.7651 373.89 14.5391 373.872 14.336C373.852 14.1329 373.845 13.9933 373.845 13.9171C373.806 13.3966 373.761 12.838 373.702 12.2414C373.649 11.6447 373.712 11.0887 373.9 10.5682C373.936 10.4184 374.012 10.1468 374.124 9.75323C374.233 9.36478 374.365 8.96616 374.515 8.55486C374.662 8.14609 374.802 7.75509 374.934 7.38187C375.064 7.01118 375.147 6.74967 375.183 6.59988V6.32313C375.406 5.98799 375.612 5.72648 375.8 5.54114C375.986 5.3558 376.163 5.1603 376.331 4.95718C376.499 4.75153 376.638 4.59158 376.75 4.47986C377.979 3.10122 379.198 2.06026 380.41 1.35189C381.621 0.643529 383.102 0.199215 384.852 0.0113341C385.337 -0.0267499 386.043 0.0316456 386.975 0.178904C387.905 0.328701 388.837 0.552127 389.769 0.851722C390.698 1.14878 391.519 1.52962 392.225 1.99678C392.933 2.45887 393.307 2.97173 393.345 3.5303C393.383 3.86544 393.362 4.31229 393.286 4.87086C393.213 5.42689 393.093 5.98799 392.926 6.5491C392.755 7.10258 392.535 7.60022 392.255 8.02676C391.976 8.45584 391.648 8.68688 391.275 8.72497C390.31 8.79859 389.339 8.78844 388.372 8.6945C387.402 8.60563 386.434 8.59548 385.464 8.67165C385.278 8.67165 384.897 8.70465 384.321 8.78082C383.744 8.85445 383.361 8.89253 383.176 8.89253C383.064 8.9687 382.886 9.05249 382.645 9.14389C382.401 9.23529 382.16 9.3597 381.918 9.5095C381.675 9.65675 381.471 9.80655 381.304 9.95381C381.136 10.1036 381.052 10.2534 381.052 10.4007L381.329 13.7546C381.329 13.9374 381.451 14.1151 381.695 14.2852C381.936 14.4503 382.198 14.6153 382.477 14.7854C382.756 14.953 383.043 15.1028 383.341 15.2323C383.64 15.3617 383.846 15.4481 383.958 15.4836C385.446 16.192 386.807 16.8623 388.037 17.4945C389.263 18.1266 390.325 18.8706 391.221 19.7287C392.113 20.5869 392.832 21.5974 393.373 22.7729C393.914 23.9459 394.256 25.4058 394.406 27.1551C394.554 28.6835 394.452 30.1891 394.099 31.682C393.743 33.1698 393.167 34.4977 392.367 35.6732C391.567 36.8437 390.551 37.8263 389.322 38.6057C388.093 39.3877 386.696 39.8523 385.129 40.0021C383.826 40.1519 382.485 40.1697 381.108 40.0554C379.729 39.9463 378.472 39.667 377.337 39.2176C376.199 38.7707 375.241 38.1106 374.457 37.2372C373.677 36.3638 373.23 35.2213 373.118 33.8046Z" fill="#2BB673"/>
<path d="M415.58 42.3478C415.395 42.2767 415.209 42.1549 415.024 41.9848C414.836 41.8172 414.727 41.6395 414.686 41.4541L413.348 29.6125C413.348 29.4653 413.282 29.3307 413.15 29.2215C413.02 29.1073 412.898 29.0717 412.787 29.1073L406.305 29.7217L407.367 39.5017C407.44 40.0958 407.611 40.6417 407.87 41.1469C408.131 41.6496 408.296 42.1803 408.375 42.7388C408.408 42.9623 408.39 43.1019 408.317 43.1552C408.243 43.2136 408.073 43.2593 407.814 43.2949C407.743 43.2949 407.639 43.305 407.506 43.3279C407.377 43.3482 407.293 43.3558 407.255 43.3558H406.557C406.242 43.3558 405.914 43.3634 405.579 43.3812C405.244 43.4015 404.936 43.4218 404.657 43.4396C404.377 43.4548 404.2 43.465 404.126 43.465C403.456 43.465 402.915 43.3913 402.506 43.2415C402.097 43.0917 401.779 42.8708 401.556 42.5713C401.332 42.2767 401.175 41.9111 401.081 41.4795C400.987 41.053 400.903 40.563 400.829 40.0019C400.644 37.9529 400.494 35.9192 400.382 33.8881C400.271 31.8544 400.177 29.8004 400.103 27.7134C400.103 27.6753 400.095 27.4722 400.075 27.099C400.055 26.7283 400.027 26.3017 399.991 25.8143C399.953 25.3293 399.915 24.8571 399.88 24.3899C399.842 23.9228 399.803 23.5622 399.768 23.3007C399.694 21.884 399.758 20.5841 399.963 19.3882C400.167 18.1975 400.4 16.895 400.662 15.4808C400.438 14.8461 400.484 14.1758 400.802 13.47C401.116 12.7641 401.37 12.1294 401.556 11.5708C401.629 11.2738 401.678 10.992 401.696 10.733C401.713 10.4715 401.779 10.1744 401.891 9.83674C401.891 9.80373 401.911 9.73772 401.947 9.64378C401.985 9.54984 402.023 9.50414 402.059 9.50414C402.468 8.75769 402.823 8.00617 403.12 7.24195C403.417 6.48027 403.826 5.72366 404.352 4.97721C404.685 4.53036 405.094 4.07589 405.579 3.60873C406.061 3.1441 406.585 2.70741 407.143 2.29864C407.702 1.88733 408.286 1.55473 408.901 1.29322C409.515 1.03171 410.12 0.864138 410.717 0.790509C412.393 0.640712 413.698 0.871754 414.63 1.48618C415.563 2.1006 416.297 2.89529 416.837 3.86262C417.373 4.82996 417.795 5.89885 418.092 7.07438C418.389 8.24483 418.727 9.33657 419.098 10.3395C419.098 10.4512 419.126 10.6568 419.182 10.9564C419.235 11.256 419.281 11.5708 419.321 11.906C419.362 12.2411 419.405 12.5483 419.461 12.8276C419.517 13.1044 419.545 13.2999 419.545 13.4116C419.804 15.8718 419.964 18.3473 420.022 20.8405C420.076 23.3388 420.162 25.8117 420.274 28.2669C420.274 28.9016 420.225 29.5567 420.132 30.2244C420.038 30.8921 420.012 31.5447 420.05 32.1794C420.05 32.253 420.068 32.4485 420.106 32.7633C420.142 33.0807 420.177 33.4285 420.215 33.7992C420.251 34.1699 420.299 34.5127 420.355 34.83C420.411 35.1474 420.439 35.3404 420.439 35.414V37.2598C420.439 37.3334 420.449 37.5289 420.469 37.8438C420.487 38.1611 420.507 38.509 420.523 38.8796C420.543 39.2503 420.558 39.5931 420.579 39.9104C420.596 40.2278 420.606 40.4411 420.606 40.5553C420.606 40.7788 420.566 41.1139 420.495 41.5582C420.424 42.0051 420.177 42.2691 419.768 42.3428H419.657C419.618 42.3428 419.497 42.3224 419.291 42.2869C419.085 42.2513 418.963 42.231 418.928 42.231C418.816 42.231 418.592 42.2412 418.257 42.264C417.922 42.2844 417.577 42.2894 417.224 42.2894C416.87 42.2894 416.533 42.2996 416.218 42.3174C415.908 42.3402 415.695 42.3478 415.58 42.3478ZM406.419 22.242C406.458 22.6888 406.717 23.0062 407.202 23.189C407.684 23.3769 408.246 23.4962 408.878 23.5546C409.51 23.6105 410.145 23.6308 410.778 23.6105C411.41 23.5902 411.895 23.5648 412.23 23.5267C412.301 23.5267 412.454 23.5165 412.677 23.4962C412.901 23.4784 413.048 23.4708 413.127 23.4708C413.198 23.3566 413.256 23.255 413.292 23.1636C413.33 23.0697 413.363 22.9656 413.404 22.8564C413.404 22.633 413.383 22.2699 413.35 21.7647C413.31 21.2645 413.284 20.7135 413.267 20.1194C413.246 19.5253 413.231 18.9744 413.211 18.4717C413.19 17.9664 413.183 17.6059 413.183 17.3825C413.221 17.3088 413.236 17.1387 413.236 16.8798V16.3212L412.677 10.9006C412.639 10.6441 412.545 10.342 412.398 10.0094C412.248 9.67425 412.065 9.36704 411.839 9.08521C411.616 8.80847 411.347 8.58504 411.029 8.41747C410.712 8.24737 410.389 8.18389 410.051 8.22198C409.754 8.25752 409.472 8.35146 409.213 8.50126C407.986 9.76565 407.219 11.0884 406.922 12.4671C406.623 13.8432 406.458 15.3539 406.419 16.9915C406.419 17.8826 406.399 18.7611 406.366 19.6167C406.323 20.4723 406.346 21.3457 406.419 22.242Z" fill="#2BB673"/>
<path d="M427.928 41.7896C427.593 39.37 427.415 36.9783 427.398 34.6146C427.377 32.2509 427.37 29.8744 427.37 27.4954C427.296 23.2478 427.151 19.0306 426.948 14.8388C426.745 10.6521 426.458 6.41717 426.084 2.13399C426.158 1.91056 426.283 1.71252 426.448 1.54749C426.615 1.37992 426.844 1.26059 427.146 1.18188H427.37C429.899 1.26059 432.231 1.43578 434.354 1.71252C436.477 1.99688 438.331 2.54276 439.911 3.36283C441.496 4.18291 442.796 5.32797 443.822 6.79547C444.846 8.26806 445.529 10.2154 445.867 12.635C446.011 13.7522 446.011 14.9734 445.867 16.2911C445.712 17.6164 445.361 18.8605 444.805 20.036C444.241 21.209 443.461 22.222 442.453 23.0802C441.447 23.9358 440.162 24.4385 438.598 24.5858C437.851 24.6594 437.125 24.6366 436.419 24.502C435.713 24.3725 435.002 24.2684 434.295 24.1973C434.001 24.3091 433.803 24.4487 433.709 24.6163C433.615 24.7788 433.569 25.0123 433.569 25.3094C433.569 25.4973 433.579 25.835 433.6 26.3174C433.615 26.7998 433.635 27.3025 433.653 27.8229C433.673 28.346 433.694 28.8512 433.706 29.3311C433.727 29.8186 433.754 30.1537 433.795 30.339C433.795 30.4101 433.8 30.6183 433.821 30.9509C433.838 31.2886 433.866 31.4942 433.904 31.5653L434.014 41.7312C433.94 41.9547 433.874 42.2263 433.821 42.5386C433.765 42.856 433.587 43.0693 433.29 43.1835C433.14 43.1835 432.833 43.2038 432.368 43.2394C431.903 43.2749 431.613 43.3105 431.502 43.3536C431.019 43.4247 430.57 43.4704 430.161 43.4907C429.752 43.511 429.396 43.4704 429.099 43.3765C428.802 43.2876 428.548 43.1175 428.345 42.8763C428.142 42.6376 428.002 42.2746 427.928 41.7896ZM434.913 15.5954C434.984 16.1184 435.136 16.5145 435.36 16.7963C435.586 17.0756 436.033 17.1797 436.701 17.1036C437.221 17.0655 437.623 16.8801 437.902 16.545C438.181 16.2073 438.395 15.8189 438.547 15.3695C438.692 14.9226 438.77 14.4707 438.77 14.0035C438.77 13.5363 438.75 13.1377 438.715 12.8001C438.677 12.5436 438.572 12.0765 438.407 11.4062C438.242 10.7359 438.019 10.0631 437.734 9.39534C437.457 8.72506 437.099 8.14619 436.673 7.66379C436.246 7.18139 435.771 6.9732 435.248 7.04937C435.098 7.04937 434.984 7.25502 434.913 7.66379C434.842 8.0751 434.791 8.58542 434.77 9.19985C434.75 9.81427 434.745 10.4845 434.745 11.2081C434.745 11.9394 434.75 12.6071 434.77 13.2215C434.791 13.8359 434.819 14.3666 434.859 14.8134C434.895 15.2603 434.913 15.5218 434.913 15.5954Z" fill="#2BB673"/>
<path d="M451.79 40.2815C451.79 40.2078 451.807 40.1215 451.843 40.0301C451.884 39.9387 451.884 39.8727 451.843 39.8346C451.884 39.3548 451.942 38.7632 452.013 38.0751C452.087 37.3871 452.216 36.8209 452.402 36.3741C452.516 36.11 452.699 35.917 452.963 35.7876C453.222 35.6555 453.494 35.5464 453.771 35.455C454.052 35.361 454.322 35.2645 454.583 35.1731C454.842 35.0817 455.048 34.9243 455.195 34.6983C455.233 34.6983 455.259 34.6425 455.279 34.5308C455.297 34.4191 455.307 34.3277 455.307 34.254C455.307 34.1804 455.317 34.0306 455.333 33.8072C455.353 33.5812 455.373 33.3299 455.391 33.0506C455.409 32.7713 455.421 32.5047 455.421 32.2407V31.6821C455.307 28.6658 455.279 25.6699 455.333 22.6892C455.391 19.7085 455.327 16.7328 455.139 13.7547C455.139 13.6785 455.124 13.5312 455.086 13.3053C455.048 13.0818 455.018 12.8406 455.002 12.5791C454.982 12.3202 454.964 12.079 454.949 11.8555C454.926 11.6296 454.916 11.4595 454.916 11.3503C454.842 11.0177 454.665 10.812 454.385 10.7359C454.108 10.6622 453.801 10.5886 453.466 10.5124C453.125 10.4388 452.831 10.3169 452.569 10.1494C452.308 9.9818 452.158 9.67459 452.122 9.22774C452.122 9.19219 452.112 9.15157 452.094 9.11856C452.071 9.08048 452.061 9.0424 452.061 9.00431V7.85925C452.061 7.321 452.071 6.74212 452.094 6.1277C452.112 5.51327 452.122 4.93693 452.122 4.39614V3.30694C452.196 3.00734 452.287 2.63666 452.399 2.1898C452.513 1.74295 452.717 1.48398 453.014 1.40527L453.123 1.46621H453.237C453.798 1.57538 454.581 1.62362 455.586 1.60585C456.592 1.58554 457.616 1.60585 458.66 1.65917C459.701 1.71502 460.679 1.84705 461.59 2.05016C462.502 2.25328 463.147 2.61888 463.521 3.13937C463.704 3.36279 463.797 3.71824 463.797 4.20064C463.797 4.68558 463.818 5.0588 463.853 5.32031C463.965 6.91984 463.914 8.03698 463.711 8.67171C463.508 9.30391 463.264 9.73299 462.987 9.95641C462.708 10.1798 462.416 10.3271 462.119 10.4007C461.822 10.4769 461.636 10.7739 461.562 11.2944C461.298 12.8584 461.151 14.4224 461.113 15.9864C461.075 17.5529 461.085 19.1144 461.141 20.6783C461.197 22.2449 461.281 23.7987 461.392 25.3424C461.507 26.8911 461.598 28.4424 461.672 30.0089V30.5954V31.6237C461.672 31.9944 461.682 32.3422 461.697 32.6596C461.72 32.977 461.73 33.1699 461.73 33.2461V33.6904C461.768 34.1372 461.933 34.4343 462.228 34.5841C462.525 34.7339 462.863 34.8761 463.239 35.0056C463.61 35.1376 463.952 35.3026 464.27 35.5057C464.585 35.7139 464.78 36.0922 464.854 36.6508C464.854 36.9148 464.864 37.2957 464.882 37.7959C464.902 38.296 464.874 38.8013 464.801 39.304C464.727 39.8067 464.585 40.2662 464.382 40.6725C464.176 41.0838 463.851 41.3072 463.404 41.3428C462.657 41.4951 461.809 41.5306 460.859 41.457C459.912 41.3859 459.063 41.3859 458.317 41.457C458.202 41.457 457.936 41.4849 457.509 41.5408C457.08 41.5966 456.633 41.65 456.171 41.7058C455.701 41.7617 455.256 41.8099 454.827 41.848C454.4 41.8835 454.131 41.9039 454.019 41.9039C453.496 41.9369 453.014 41.8378 452.567 41.5966C452.125 41.3529 451.861 40.9162 451.79 40.2815Z" fill="#2BB673"/>
<path d="M476.819 42.5714C476.857 42.4216 476.847 42.1144 476.791 41.6523C476.735 41.1826 476.707 40.8754 476.707 40.7281C476.631 39.5754 476.644 38.4659 476.735 37.4047C476.826 36.3434 476.948 35.2212 477.096 34.0279C477.136 33.9517 477.136 33.8501 477.096 33.7207C477.06 33.5861 477.042 33.5074 477.042 33.4668C477.042 32.535 477.103 31.621 477.238 30.7298C477.367 29.8361 477.451 28.9246 477.492 27.9928C477.563 26.2435 477.545 24.5348 477.436 22.8566C477.324 21.1809 477.284 19.4848 477.324 17.7736C477.324 17.6263 477.332 17.4029 477.352 17.1033C477.37 16.8063 477.39 16.5067 477.406 16.2071C477.426 15.91 477.446 15.6434 477.464 15.3997C477.482 15.156 477.494 15.0011 477.494 14.9224C477.494 14.8487 477.51 14.6837 477.548 14.4222C477.583 14.1632 477.621 13.8916 477.66 13.6123C477.695 13.3305 477.731 13.074 477.771 12.8303C477.812 12.5866 477.825 12.4291 477.825 12.3555V12.1854C477.825 11.929 477.731 11.7335 477.548 11.6014C477.36 11.472 477.177 11.3882 476.986 11.3476C475.872 11.4237 474.8 11.4313 473.774 11.378C472.75 11.3222 471.678 11.3323 470.561 11.4059C470.261 11.3323 469.984 11.2028 469.723 11.015C469.723 10.8271 469.702 10.4843 469.669 9.98161C469.629 9.4789 469.591 9.15137 469.555 9.00157C469.517 8.66897 469.456 8.14595 469.357 7.44013C469.268 6.73177 469.21 6.01832 469.195 5.28711C469.174 4.56351 469.24 3.91101 469.388 3.33467C469.535 2.75833 469.855 2.43081 470.34 2.35718H470.563L489.165 2.52729C489.429 2.52729 489.634 2.60853 489.784 2.77356C489.932 2.94367 490.051 3.13917 490.147 3.3626C490.239 3.58856 490.307 3.81961 490.34 4.0608C490.379 4.302 490.396 4.50004 490.396 4.6473C490.396 4.68284 490.409 4.82502 490.424 5.06622C490.445 5.30742 490.472 5.58924 490.508 5.90407C490.544 6.22144 490.582 6.53881 490.622 6.85363C490.658 7.171 490.676 7.44013 490.676 7.66355C490.676 7.77527 490.683 7.96061 490.704 8.22212C490.721 8.48109 490.742 8.77307 490.759 9.0879C490.777 9.40527 490.795 9.70232 490.813 9.98161C490.831 10.2609 490.838 10.4564 490.838 10.5706C490.838 10.7534 490.785 10.9413 490.676 11.1241C490.564 11.312 490.412 11.4237 490.229 11.4618C489.297 11.6116 488.365 11.6852 487.435 11.6852C486.503 11.6852 485.571 11.7385 484.639 11.8528C484.451 11.8883 484.283 11.8985 484.136 11.8782C483.986 11.863 483.818 11.9467 483.636 12.1321C483.409 12.3961 483.27 12.711 483.214 13.0816C483.161 13.4549 483.13 13.8357 483.13 14.2267C483.13 14.6152 483.15 15.0087 483.186 15.3997C483.224 15.7907 483.242 16.1334 483.242 16.433C483.054 20.6045 482.962 24.7811 482.962 28.9728C482.962 33.1596 483.224 37.3056 483.745 41.4035C483.745 41.7005 483.696 42.0738 483.605 42.5206C483.511 42.9649 483.26 43.2087 482.851 43.2442H482.797C482.719 43.2442 482.574 43.2315 482.348 43.2163C482.124 43.196 481.873 43.1655 481.594 43.1325C481.314 43.0919 481.063 43.0741 480.839 43.0741H480.451C480.225 43.0411 479.935 43.0411 479.582 43.0741C479.224 43.1147 478.873 43.1325 478.52 43.1325C478.162 43.1325 477.832 43.0919 477.515 43.0182C477.197 42.9446 476.971 42.7948 476.819 42.5714Z" fill="#2BB673"/>
<path d="M495.478 33.2458C495.443 33.0986 495.415 32.8929 495.397 32.6314C495.377 32.3724 495.359 32.1109 495.341 31.8494C495.323 31.5879 495.303 31.3569 495.288 31.1538C495.267 30.9456 495.257 30.8059 495.257 30.7323C495.222 30.029 495.184 29.1023 495.143 27.9699C495.107 26.835 495.072 25.7052 495.034 24.5881C494.996 23.476 494.96 22.4858 494.924 21.6277C494.884 20.7695 494.869 20.2871 494.869 20.1754C494.869 19.0583 494.897 17.8396 494.95 16.5142C495.008 15.1965 495.128 13.856 495.316 12.4926C495.501 11.1342 495.808 9.81399 496.238 8.52929C496.664 7.24459 497.233 6.09953 497.942 5.09411C498.645 4.08869 499.552 3.27115 500.649 2.63642C501.749 2.00422 503.08 1.631 504.647 1.51929H505.762C506.803 1.66908 507.811 1.90267 508.779 2.22003C509.746 2.53486 510.625 2.96394 511.407 3.5022C512.187 4.04299 512.865 4.6828 513.442 5.42671C514.023 6.1757 514.458 7.0694 514.76 8.11037C514.798 8.25763 514.841 8.62069 514.902 9.20211C514.955 9.77591 514.983 10.1593 514.983 10.3446C514.983 10.6442 514.991 11.0809 515.011 11.6547C515.032 12.2361 515.037 12.5611 515.037 12.6348C515.037 13.008 515.047 13.8179 515.07 15.0645C515.088 16.3111 515.118 17.672 515.151 19.1446C515.189 20.6146 515.215 22.0466 515.235 23.443C515.255 24.8394 515.26 25.8728 515.26 26.543C515.26 27.4723 515.273 28.5463 515.293 29.7548C515.311 30.9659 515.273 32.2252 515.182 33.5251C515.088 34.8276 514.917 36.1123 514.679 37.3818C514.435 38.6462 514.036 39.7836 513.477 40.789C512.919 41.7944 512.19 42.6247 511.298 43.2746C510.402 43.9221 509.266 44.2826 507.89 44.3638C506.694 44.4349 505.571 44.3638 504.509 44.1353C503.448 43.9119 502.353 43.6149 501.241 43.2442C500.123 42.909 499.209 42.3885 498.506 41.6827C497.797 40.9718 497.226 40.1517 496.799 39.2225C496.37 38.2932 496.052 37.3056 495.849 36.2621C495.638 35.2211 495.516 34.2106 495.478 33.2458ZM502.912 32.8523C502.983 33.6394 503.219 34.335 503.608 34.9495C503.999 35.5588 504.644 35.833 505.538 35.7594C506.132 35.7162 506.579 35.5436 506.877 35.2287C507.174 34.9114 507.387 34.5178 507.517 34.0532C507.651 33.5835 507.725 33.096 507.74 32.5756C507.763 32.0525 507.791 31.5676 507.829 31.1208V30.646C507.829 30.4022 507.834 30.1483 507.854 29.8614C507.875 29.5847 507.885 29.3257 507.885 29.0845V28.6656C507.997 26.7665 508.047 25.0222 508.047 23.443C508.047 21.8612 507.994 20.1195 507.885 18.2204C507.885 17.997 507.864 17.6339 507.831 17.1312C507.791 16.6285 507.755 16.0877 507.717 15.5114C507.679 14.9325 507.644 14.3942 507.608 13.8915C507.567 13.3888 507.552 13.0232 507.552 12.8023C507.476 12.5789 507.336 12.2717 507.133 11.8781C506.927 11.4897 506.704 11.1165 506.457 10.7636C506.216 10.4106 505.937 10.1034 505.619 9.84192C505.307 9.58295 505 9.45093 504.703 9.45093C504.332 9.48901 504.004 9.66674 503.72 9.98156C503.445 10.2964 503.222 10.6798 503.054 11.1241C502.882 11.5735 502.752 12.0305 502.658 12.4926C502.569 12.9597 502.501 13.3406 502.465 13.6402C502.429 13.7138 502.391 13.9017 502.351 14.1987C502.315 14.4983 502.272 14.8309 502.216 15.2042C502.16 15.5774 502.102 15.9303 502.048 16.2654C501.995 16.6006 501.965 16.8062 501.965 16.8799V17.6618V19.1674C501.965 19.7285 501.955 20.2795 501.934 20.8177C501.914 21.3585 501.909 21.7775 501.909 22.0745V22.5214C501.909 22.595 501.914 22.6509 501.934 22.6889C501.955 22.727 501.965 22.7829 501.965 22.8565V23.0799C502.005 23.4532 502.066 24.1057 502.16 25.0349C502.252 25.9667 502.351 26.9442 502.465 27.9699C502.579 28.9931 502.668 29.9681 502.747 30.8999C502.818 31.8317 502.874 32.4842 502.912 32.8523Z" fill="#2BB673"/>
<path d="M561.969 41.0102C561.819 41.0102 561.644 41.0635 561.438 41.1727C561.232 41.2869 561.029 41.4062 560.823 41.5408C560.62 41.6728 560.442 41.8023 560.293 41.9318C560.143 42.0613 560.051 42.1451 560.016 42.1806C559.49 42.4447 558.916 42.5919 558.281 42.63C557.649 42.6681 557.054 42.6859 556.493 42.6859C555.19 42.7214 553.974 42.4244 552.833 41.7896C551.701 41.16 550.685 40.3196 549.791 39.2735C548.899 38.2326 548.16 37.0723 547.584 35.7825C547.005 34.5003 546.624 33.2436 546.438 32.0147C546.215 30.565 546.093 29.0873 546.075 27.5767C546.052 26.0685 546.027 24.5655 545.991 23.0802C545.92 21.1811 546.047 19.1525 546.38 16.9918C546.718 14.8312 547.276 12.8762 548.056 11.1243C548.394 10.383 548.841 9.59083 549.397 8.75298C549.961 7.91513 550.601 7.12298 551.33 6.37907C552.051 5.63516 552.823 4.97504 553.646 4.39616C554.464 3.82236 555.284 3.41867 556.102 3.19524C556.254 3.19524 556.552 3.17747 556.999 3.13939C557.446 3.1013 557.743 3.08353 557.895 3.08353C559.493 3.04799 560.801 3.18763 561.809 3.50499C562.812 3.82236 563.584 4.33269 564.125 5.03851C564.666 5.74434 565.027 6.65835 565.215 7.77549C565.4 8.89516 565.512 10.2535 565.55 11.8556V12.3862C565.55 12.6274 565.56 12.8864 565.578 13.1656C565.598 13.4475 565.608 13.7141 565.608 13.9781V14.5341C565.568 14.8312 565.532 15.1562 565.494 15.5116C565.456 15.8671 565.392 16.1946 565.301 16.4917C565.204 16.7887 565.067 17.0477 564.882 17.2686C564.694 17.4945 564.432 17.6062 564.097 17.6062C563.353 17.5707 562.665 17.4768 562.03 17.327C561.509 17.2153 561.024 17.0756 560.58 16.908C560.13 16.7379 559.912 16.5094 559.912 16.2073L559.853 12.1323C559.853 11.6118 559.62 11.165 559.16 10.7943C558.69 10.4211 558.218 10.2332 557.73 10.2332C556.534 10.2738 555.543 10.8044 554.738 11.8251C553.941 12.8508 553.298 14.0695 552.813 15.4837C552.328 16.8979 551.98 18.3502 551.777 19.8405C551.574 21.3309 551.469 22.5775 551.469 23.5829C551.51 24.4791 551.629 25.5836 551.835 26.9064C552.041 28.2292 552.376 29.5012 552.841 30.7326C553.311 31.9639 553.923 33.0074 554.687 33.8631C555.452 34.7161 556.43 35.1452 557.621 35.1452C558.291 35.1097 558.832 34.8685 559.241 34.4216C559.65 33.9722 559.818 33.4162 559.744 32.7459C559.744 32.7053 559.734 32.6114 559.716 32.4641C559.696 32.3143 559.678 32.1594 559.66 31.9919C559.642 31.8243 559.604 31.6745 559.548 31.5425C559.495 31.413 559.427 31.347 559.353 31.347L556.732 31.4003C556.618 31.4003 556.496 31.3368 556.364 31.2099C556.229 31.0778 556.11 30.9204 556 30.7326C555.891 30.5497 555.792 30.372 555.721 30.2019C555.647 30.0343 555.609 29.8947 555.609 29.7855L555.553 26.1498C555.553 25.7791 555.701 25.4744 556.003 25.2332C556.3 24.9895 556.618 24.8676 556.955 24.8676H557.174C557.362 24.9057 557.689 24.9819 558.154 25.0885C558.621 25.2027 558.908 25.2789 559.02 25.3119L566.228 25.0885C566.302 25.0885 566.403 25.1951 566.535 25.3982C566.667 25.6039 566.769 25.7639 566.843 25.873C566.881 25.9136 566.906 25.9467 566.926 25.9873C566.944 26.0254 566.975 26.0609 567.01 26.0965C567.048 26.1701 567.084 26.231 567.122 26.264C567.122 26.3732 567.102 26.6017 567.066 26.9343C567.028 27.272 566.992 27.4954 566.954 27.6071L567.234 42.3533C567.234 42.6529 567.13 42.8839 566.926 43.054C566.721 43.219 566.525 43.3003 566.34 43.3003C565.819 43.3409 565.268 43.2851 564.691 43.1378C564.115 42.9855 563.625 42.7646 563.213 42.4675C562.952 42.3177 562.766 42.0359 562.657 41.6297C562.525 41.2133 562.304 41.0102 561.969 41.0102Z" fill="#2BB673"/>
<path d="M574.988 39.5577C574.724 37.4732 574.653 35.3329 574.764 33.1341C574.876 30.938 574.894 28.7773 574.818 26.6548C574.744 24.6414 574.632 22.6813 574.482 20.7619C574.333 18.8475 574.277 16.8799 574.315 14.869C574.315 12.7109 574.325 10.7001 574.345 8.83652C574.363 6.97548 574.223 5.00273 573.926 2.91572C574 2.32161 574.307 1.8646 574.846 1.54723C575.387 1.23241 575.917 1.03691 576.438 0.960739C577.035 0.88711 577.695 0.88711 578.422 0.960739C579.148 1.03691 579.752 1.31619 580.238 1.79859C580.238 1.87222 580.248 2.02201 580.268 2.24544C580.286 2.47141 580.296 2.61867 580.296 2.69229C580.446 3.99731 580.425 5.41403 580.24 6.9374C580.055 8.46584 579.996 9.86225 580.075 11.1266C580.075 11.2764 580.103 11.8452 580.159 12.8328C580.212 13.8179 580.278 14.9452 580.352 16.2096C580.425 17.4791 580.502 18.7536 580.578 20.0383C580.652 21.3205 580.707 22.3386 580.743 23.0825C580.855 24.8674 580.918 26.6065 580.939 28.3025C580.956 29.9986 581.06 31.72 581.246 33.4718C581.358 34.1776 581.665 34.5839 582.168 34.6981C582.668 34.8073 583.219 34.8581 583.813 34.8403C584.408 34.8175 584.959 34.8302 585.462 34.8657C585.962 34.9038 586.254 35.2211 586.328 35.8153C586.328 37.0111 586.3 37.9683 586.244 38.6919C586.191 39.418 586.104 40.0807 585.993 40.6748C585.881 41.2689 585.693 41.5685 585.431 41.5685C585.393 41.6117 585.33 41.6243 585.238 41.6243H585.043C583.626 41.5533 582.173 41.4822 580.685 41.4289C579.194 41.3755 577.703 41.2689 576.212 41.1216C575.73 41.0886 575.42 40.949 575.293 40.7053C575.163 40.459 575.062 40.0781 574.988 39.5577Z" fill="#2BB673"/>
<path d="M593.703 33.2458C593.665 33.0986 593.64 32.8929 593.622 32.6314C593.602 32.3724 593.584 32.1109 593.566 31.8494C593.548 31.5879 593.528 31.3569 593.513 31.1538C593.493 30.9456 593.482 30.8059 593.482 30.7323C593.444 30.029 593.409 29.1023 593.371 27.9699C593.333 26.835 593.297 25.7052 593.259 24.5881C593.221 23.476 593.185 22.4858 593.147 21.6277C593.109 20.7695 593.094 20.2871 593.094 20.1754C593.094 19.0583 593.122 17.8396 593.175 16.5142C593.231 15.1965 593.353 13.856 593.541 12.4926C593.726 11.1342 594.033 9.81399 594.463 8.52929C594.889 7.24459 595.458 6.09953 596.167 5.09411C596.873 4.08869 597.777 3.27115 598.874 2.63642C599.974 2.00422 601.305 1.631 602.869 1.51929H603.987C605.028 1.66908 606.034 1.90267 607.004 2.22003C607.974 2.53486 608.85 2.96394 609.63 3.5022C610.412 4.04299 611.09 4.6828 611.669 5.42671C612.249 6.1757 612.683 7.0694 612.985 8.11037C613.021 8.25763 613.066 8.62069 613.125 9.20211C613.178 9.77591 613.209 10.1593 613.209 10.3446C613.209 10.6442 613.216 11.0809 613.236 11.6547C613.254 12.2361 613.264 12.5611 613.264 12.6348C613.264 13.008 613.275 13.8179 613.295 15.0645C613.313 16.3111 613.341 17.672 613.376 19.1446C613.414 20.6146 613.44 22.0466 613.46 23.443C613.48 24.8394 613.488 25.8728 613.488 26.543C613.488 27.4723 613.498 28.5463 613.518 29.7548C613.536 30.9659 613.498 32.2252 613.407 33.5251C613.313 34.8276 613.142 36.1123 612.904 37.3818C612.66 38.6462 612.261 39.7836 611.702 40.789C611.144 41.7944 610.415 42.6247 609.523 43.2746C608.627 43.9221 607.492 44.2826 606.115 44.3638C604.921 44.4349 603.796 44.3638 602.735 44.1353C601.673 43.9119 600.581 43.6149 599.466 43.2442C598.348 42.909 597.434 42.3885 596.728 41.6827C596.022 40.9718 595.451 40.1517 595.024 39.2225C594.595 38.2932 594.277 37.3056 594.074 36.2621C593.861 35.2211 593.739 34.2106 593.703 33.2458ZM601.137 32.8523C601.211 33.6394 601.444 34.335 601.833 34.9495C602.224 35.5588 602.867 35.833 603.763 35.7594C604.358 35.7162 604.805 35.5436 605.104 35.2287C605.399 34.9114 605.612 34.5178 605.744 34.0532C605.876 33.5835 605.952 33.096 605.968 32.5756C605.988 32.0525 606.016 31.5676 606.052 31.1208V30.646C606.052 30.4022 606.062 30.1483 606.079 29.8614C606.1 29.5847 606.11 29.3257 606.11 29.0845V28.6656C606.222 26.7665 606.275 25.0222 606.275 23.443C606.275 21.8612 606.222 20.1195 606.11 18.2204C606.11 17.997 606.09 17.6339 606.054 17.1312C606.016 16.6285 605.98 16.0877 605.942 15.5114C605.904 14.9325 605.869 14.3942 605.831 13.8915C605.792 13.3888 605.777 13.0232 605.777 12.8023C605.701 12.5789 605.561 12.2717 605.358 11.8781C605.152 11.4897 604.929 11.1165 604.685 10.7636C604.441 10.4106 604.165 10.1034 603.847 9.84192C603.532 9.58295 603.225 9.45093 602.928 9.45093C602.554 9.48901 602.229 9.66674 601.947 9.98156C601.67 10.2964 601.447 10.6798 601.277 11.1241C601.109 11.5735 600.98 12.0305 600.886 12.4926C600.794 12.9597 600.726 13.3406 600.69 13.6402C600.652 13.7138 600.616 13.9017 600.578 14.1987C600.54 14.4983 600.497 14.8309 600.439 15.2042C600.385 15.5774 600.327 15.9303 600.274 16.2654C600.218 16.6006 600.19 16.8062 600.19 16.8799V17.6618V19.1674C600.19 19.7285 600.18 20.2795 600.159 20.8177C600.142 21.3585 600.131 21.7775 600.131 22.0745V22.5214C600.131 22.595 600.142 22.6509 600.159 22.6889C600.18 22.727 600.19 22.7829 600.19 22.8565V23.0799C600.228 23.4532 600.291 24.1057 600.385 25.0349C600.477 25.9667 600.578 26.9442 600.69 27.9699C600.804 28.9931 600.896 29.9681 600.97 30.8999C601.043 31.8317 601.099 32.4842 601.137 32.8523Z" fill="#2BB673"/>
<path d="M660.193 41.0102C660.044 41.0102 659.868 41.0635 659.663 41.1727C659.457 41.2869 659.254 41.4062 659.048 41.5408C658.845 41.6728 658.667 41.8023 658.517 41.9318C658.367 42.0613 658.276 42.1451 658.238 42.1806C657.717 42.4447 657.141 42.5919 656.506 42.63C655.873 42.6681 655.279 42.6859 654.718 42.6859C653.415 42.7214 652.196 42.4244 651.061 41.7896C649.925 41.16 648.909 40.3196 648.015 39.2735C647.121 38.2326 646.382 37.0723 645.808 35.7825C645.229 34.5003 644.848 33.2436 644.663 32.0147C644.44 30.565 644.318 29.0873 644.3 27.5767C644.279 26.0685 644.252 24.5655 644.216 23.0802C644.142 21.1811 644.269 19.1525 644.607 16.9918C644.942 14.8312 645.501 12.8762 646.283 11.1243C646.619 10.383 647.066 9.59083 647.622 8.75298C648.183 7.91513 648.826 7.12298 649.552 6.37907C650.276 5.63516 651.05 4.97504 651.871 4.39616C652.689 3.82236 653.509 3.41867 654.329 3.19524C654.479 3.19524 654.776 3.17747 655.223 3.13939C655.67 3.1013 655.967 3.08353 656.12 3.08353C657.72 3.04799 659.025 3.18763 660.031 3.50499C661.037 3.82236 661.809 4.33269 662.35 5.03851C662.888 5.74434 663.251 6.65835 663.439 7.77549C663.625 8.89516 663.736 10.2535 663.775 11.8556V12.3862C663.775 12.6274 663.785 12.8864 663.802 13.1656C663.823 13.4475 663.833 13.7141 663.833 13.9781V14.5341C663.792 14.8312 663.757 15.1562 663.719 15.5116C663.681 15.8671 663.617 16.1946 663.526 16.4917C663.432 16.7887 663.292 17.0477 663.107 17.2686C662.919 17.4945 662.657 17.6062 662.322 17.6062C661.578 17.5707 660.887 17.4768 660.257 17.327C659.734 17.2153 659.251 17.0756 658.804 16.908C658.357 16.7379 658.134 16.5094 658.134 16.2073L658.078 12.1323C658.078 11.6118 657.844 11.165 657.382 10.7943C656.915 10.4211 656.44 10.2332 655.955 10.2332C654.761 10.2738 653.768 10.8044 652.965 11.8251C652.165 12.8508 651.523 14.0695 651.038 15.4837C650.553 16.8979 650.207 18.3502 650.004 19.8405C649.798 21.3309 649.697 22.5775 649.697 23.5829C649.735 24.4791 649.857 25.5836 650.06 26.9064C650.266 28.2292 650.601 29.5012 651.066 30.7326C651.533 31.9639 652.145 33.0074 652.91 33.8631C653.674 34.7161 654.652 35.1452 655.843 35.1452C656.513 35.1097 657.054 34.8685 657.463 34.4216C657.872 33.9722 658.042 33.4162 657.966 32.7459C657.966 32.7053 657.956 32.6114 657.938 32.4641C657.918 32.3143 657.9 32.1594 657.882 31.9919C657.865 31.8243 657.829 31.6745 657.771 31.5425C657.715 31.413 657.649 31.347 657.575 31.347L654.951 31.4003C654.84 31.4003 654.718 31.3368 654.586 31.2099C654.454 31.0778 654.334 30.9204 654.22 30.7326C654.111 30.5497 654.017 30.372 653.943 30.2019C653.87 30.0343 653.831 29.8947 653.831 29.7855L653.776 26.1498C653.776 25.7791 653.925 25.4744 654.223 25.2332C654.522 24.9895 654.84 24.8676 655.175 24.8676H655.398C655.584 24.9057 655.909 24.9819 656.376 25.0885C656.844 25.2027 657.131 25.2789 657.242 25.3119L664.45 25.0885C664.524 25.0885 664.625 25.1951 664.757 25.3982C664.889 25.6039 664.991 25.7639 665.065 25.873C665.103 25.9136 665.128 25.9467 665.149 25.9873C665.166 26.0254 665.197 26.0609 665.23 26.0965C665.27 26.1701 665.306 26.231 665.344 26.264C665.344 26.3732 665.324 26.6017 665.288 26.9343C665.25 27.272 665.215 27.4954 665.176 27.6071L665.456 42.3533C665.456 42.6529 665.352 42.8839 665.149 43.054C664.943 43.219 664.747 43.3003 664.562 43.3003C664.041 43.3409 663.49 43.2851 662.916 43.1378C662.337 42.9855 661.844 42.7646 661.435 42.4675C661.174 42.3177 660.988 42.0359 660.877 41.6297C660.75 41.2133 660.526 41.0102 660.193 41.0102Z" fill="#2BB673"/>
<path d="M673.21 39.5577C672.945 37.4732 672.874 35.3329 672.986 33.1341C673.098 30.938 673.116 28.7773 673.039 26.6548C672.966 24.6414 672.854 22.6813 672.704 20.7619C672.554 18.8475 672.498 16.8799 672.537 14.869C672.537 12.7109 672.547 10.7001 672.567 8.83652C672.585 6.97548 672.445 5.00273 672.148 2.91572C672.222 2.32161 672.529 1.8646 673.067 1.54723C673.608 1.23241 674.139 1.03691 674.66 0.960739C675.257 0.88711 675.917 0.88711 676.646 0.960739C677.37 1.03691 677.974 1.31619 678.459 1.79859C678.459 1.87222 678.469 2.02201 678.49 2.24544C678.507 2.47141 678.518 2.61867 678.518 2.69229C678.667 3.99731 678.647 5.41403 678.462 6.9374C678.276 8.46584 678.218 9.86225 678.297 11.1266C678.297 11.2764 678.325 11.8452 678.38 12.8328C678.434 13.8179 678.5 14.9452 678.573 16.2096C678.647 17.4791 678.723 18.7536 678.8 20.0383C678.871 21.3205 678.929 22.3386 678.965 23.0825C679.076 24.8674 679.14 26.6065 679.16 28.3025C679.178 29.9986 679.282 31.72 679.467 33.4718C679.579 34.1776 679.886 34.5839 680.389 34.6981C680.89 34.8073 681.441 34.8581 682.035 34.8403C682.629 34.8175 683.181 34.8302 683.683 34.8657C684.184 34.9038 684.478 35.2211 684.549 35.8153C684.549 37.0111 684.522 37.9683 684.466 38.6919C684.412 39.418 684.326 40.0807 684.214 40.6748C684.102 41.2689 683.915 41.5685 683.653 41.5685C683.615 41.6117 683.551 41.6243 683.46 41.6243H683.264C681.847 41.5533 680.394 41.4822 678.906 41.4289C677.415 41.3755 675.925 41.2689 674.434 41.1216C673.951 41.0886 673.641 40.949 673.514 40.7053C673.387 40.459 673.286 40.0781 673.21 39.5577Z" fill="#2BB673"/>
<path d="M691.927 33.2458C691.889 33.0986 691.864 32.8929 691.846 32.6314C691.826 32.3724 691.808 32.1109 691.79 31.8494C691.772 31.5879 691.752 31.3569 691.737 31.1538C691.717 30.9456 691.706 30.8059 691.706 30.7323C691.668 30.029 691.633 29.1023 691.595 27.9699C691.557 26.835 691.521 25.7052 691.483 24.5881C691.445 23.476 691.409 22.4858 691.374 21.6277C691.333 20.7695 691.318 20.2871 691.318 20.1754C691.318 19.0583 691.346 17.8396 691.399 16.5142C691.455 15.1965 691.577 13.856 691.765 12.4926C691.95 11.1342 692.258 9.81399 692.687 8.52929C693.113 7.24459 693.682 6.09953 694.391 5.09411C695.097 4.08869 696.001 3.27115 697.098 2.63642C698.198 2.00422 699.529 1.631 701.093 1.51929H702.211C703.252 1.66908 704.258 1.90267 705.228 2.22003C706.198 2.53486 707.074 2.96394 707.854 3.5022C708.636 4.04299 709.314 4.6828 709.894 5.42671C710.473 6.1757 710.907 7.0694 711.209 8.11037C711.245 8.25763 711.29 8.62069 711.349 9.20211C711.402 9.77591 711.433 10.1593 711.433 10.3446C711.433 10.6442 711.44 11.0809 711.461 11.6547C711.481 12.2361 711.489 12.5611 711.489 12.6348C711.489 13.008 711.499 13.8179 711.519 15.0645C711.537 16.3111 711.565 17.672 711.6 19.1446C711.638 20.6146 711.664 22.0466 711.684 23.443C711.704 24.8394 711.712 25.8728 711.712 26.543C711.712 27.4723 711.722 28.5463 711.742 29.7548C711.76 30.9659 711.722 32.2252 711.631 33.5251C711.537 34.8276 711.367 36.1123 711.128 37.3818C710.884 38.6462 710.485 39.7836 709.927 40.789C709.368 41.7944 708.639 42.6247 707.747 43.2746C706.851 43.9221 705.716 44.2826 704.339 44.3638C703.145 44.4349 702.02 44.3638 700.959 44.1353C699.897 43.9119 698.805 43.6149 697.69 43.2442C696.573 42.909 695.658 42.3885 694.952 41.6827C694.246 40.9718 693.675 40.1517 693.248 39.2225C692.819 38.2932 692.501 37.3056 692.298 36.2621C692.085 35.2211 691.963 34.2106 691.927 33.2458ZM699.359 32.8523C699.432 33.6394 699.666 34.335 700.055 34.9495C700.446 35.5588 701.088 35.833 701.985 35.7594C702.579 35.7162 703.026 35.5436 703.323 35.2287C703.62 34.9114 703.834 34.5178 703.966 34.0532C704.098 33.5835 704.174 33.096 704.189 32.5756C704.21 32.0525 704.238 31.5676 704.273 31.1208V30.646C704.273 30.4022 704.283 30.1483 704.301 29.8614C704.321 29.5847 704.331 29.3257 704.331 29.0845V28.6656C704.443 26.7665 704.497 25.0222 704.497 23.443C704.497 21.8612 704.443 20.1195 704.331 18.2204C704.331 17.997 704.311 17.6339 704.276 17.1312C704.238 16.6285 704.202 16.0877 704.164 15.5114C704.126 14.9325 704.09 14.3942 704.052 13.8915C704.014 13.3888 703.999 13.0232 703.999 12.8023C703.923 12.5789 703.783 12.2717 703.58 11.8781C703.374 11.4897 703.15 11.1165 702.907 10.7636C702.663 10.4106 702.386 10.1034 702.069 9.84192C701.754 9.58295 701.446 9.45093 701.149 9.45093C700.776 9.48901 700.451 9.66674 700.169 9.98156C699.892 10.2964 699.669 10.6798 699.498 11.1241C699.331 11.5735 699.199 12.0305 699.107 12.4926C699.016 12.9597 698.947 13.3406 698.912 13.6402C698.874 13.7138 698.838 13.9017 698.8 14.1987C698.762 14.4983 698.719 14.8309 698.66 15.2042C698.607 15.5774 698.548 15.9303 698.495 16.2654C698.439 16.6006 698.411 16.8062 698.411 16.8799V17.6618V19.1674C698.411 19.7285 698.401 20.2795 698.381 20.8177C698.363 21.3585 698.355 21.7775 698.355 22.0745V22.5214C698.355 22.595 698.363 22.6509 698.381 22.6889C698.401 22.727 698.411 22.7829 698.411 22.8565V23.0799C698.449 23.4532 698.513 24.1057 698.607 25.0349C698.698 25.9667 698.8 26.9442 698.912 27.9699C699.026 28.9931 699.117 29.9681 699.191 30.8999C699.265 31.8317 699.323 32.4842 699.359 32.8523Z" fill="#2BB673"/>
<path d="M758.416 41.0102C758.266 41.0102 758.09 41.0635 757.885 41.1727C757.679 41.2869 757.476 41.4062 757.27 41.5408C757.067 41.6728 756.889 41.8023 756.739 41.9318C756.589 42.0613 756.498 42.1451 756.462 42.1806C755.939 42.4447 755.363 42.5919 754.728 42.63C754.095 42.6681 753.501 42.6859 752.94 42.6859C751.637 42.7214 750.418 42.4244 749.283 41.7896C748.147 41.16 747.131 40.3196 746.237 39.2735C745.343 38.2326 744.604 37.0723 744.03 35.7825C743.451 34.5003 743.07 33.2436 742.885 32.0147C742.662 30.565 742.54 29.0873 742.522 27.5767C742.502 26.0685 742.474 24.5655 742.438 23.0802C742.364 21.1811 742.494 19.1525 742.829 16.9918C743.164 14.8312 743.723 12.8762 744.503 11.1243C744.841 10.383 745.288 9.59083 745.844 8.75298C746.408 7.91513 747.048 7.12298 747.774 6.37907C748.498 5.63516 749.272 4.97504 750.093 4.39616C750.911 3.82236 751.731 3.41867 752.551 3.19524C752.701 3.19524 752.998 3.17747 753.445 3.13939C753.892 3.1013 754.189 3.08353 754.342 3.08353C755.942 3.04799 757.247 3.18763 758.253 3.50499C759.259 3.82236 760.031 4.33269 760.572 5.03851C761.11 5.74434 761.473 6.65835 761.661 7.77549C761.847 8.89516 761.958 10.2535 761.997 11.8556V12.3862C761.997 12.6274 762.007 12.8864 762.024 13.1656C762.045 13.4475 762.055 13.7141 762.055 13.9781V14.5341C762.014 14.8312 761.979 15.1562 761.941 15.5116C761.903 15.8671 761.839 16.1946 761.748 16.4917C761.651 16.7887 761.514 17.0477 761.329 17.2686C761.141 17.4945 760.879 17.6062 760.544 17.6062C759.8 17.5707 759.111 17.4768 758.476 17.327C757.956 17.2153 757.471 17.0756 757.026 16.908C756.579 16.7379 756.356 16.5094 756.356 16.2073L756.3 12.1323C756.3 11.6118 756.066 11.165 755.604 10.7943C755.137 10.4211 754.662 10.2332 754.177 10.2332C752.983 10.2738 751.99 10.8044 751.187 11.8251C750.387 12.8508 749.745 14.0695 749.26 15.4837C748.775 16.8979 748.429 18.3502 748.226 19.8405C748.02 21.3309 747.919 22.5775 747.919 23.5829C747.957 24.4791 748.079 25.5836 748.282 26.9064C748.488 28.2292 748.823 29.5012 749.288 30.7326C749.755 31.9639 750.367 33.0074 751.132 33.8631C751.896 34.7161 752.874 35.1452 754.065 35.1452C754.735 35.1097 755.276 34.8685 755.685 34.4216C756.094 33.9722 756.264 33.4162 756.188 32.7459C756.188 32.7053 756.178 32.6114 756.16 32.4641C756.14 32.3143 756.122 32.1594 756.104 31.9919C756.087 31.8243 756.051 31.6745 755.993 31.5425C755.939 31.413 755.871 31.347 755.797 31.347L753.174 31.4003C753.062 31.4003 752.94 31.3368 752.808 31.2099C752.676 31.0778 752.556 30.9204 752.445 30.7326C752.333 30.5497 752.239 30.372 752.165 30.2019C752.092 30.0343 752.053 29.8947 752.053 29.7855L751.998 26.1498C751.998 25.7791 752.147 25.4744 752.447 25.2332C752.744 24.9895 753.062 24.8676 753.4 24.8676H753.62C753.806 24.9057 754.131 24.9819 754.598 25.0885C755.066 25.2027 755.353 25.2789 755.464 25.3119L762.672 25.0885C762.746 25.0885 762.847 25.1951 762.979 25.3982C763.112 25.6039 763.213 25.7639 763.287 25.873C763.325 25.9136 763.35 25.9467 763.371 25.9873C763.388 26.0254 763.419 26.0609 763.454 26.0965C763.493 26.1701 763.528 26.231 763.566 26.264C763.566 26.3732 763.546 26.6017 763.51 26.9343C763.472 27.272 763.437 27.4954 763.399 27.6071L763.678 42.3533C763.678 42.6529 763.574 42.8839 763.371 43.054C763.165 43.219 762.969 43.3003 762.784 43.3003C762.263 43.3409 761.712 43.2851 761.138 43.1378C760.559 42.9855 760.069 42.7646 759.657 42.4675C759.396 42.3177 759.21 42.0359 759.099 41.6297C758.974 41.2133 758.751 41.0102 758.416 41.0102Z" fill="#2BB673"/>
<path d="M771.434 39.5577C771.17 37.4732 771.099 35.3329 771.211 33.1341C771.322 30.938 771.34 28.7773 771.264 26.6548C771.19 24.6414 771.079 22.6813 770.929 20.7619C770.779 18.8475 770.723 16.8799 770.761 14.869C770.761 12.7109 770.771 10.7001 770.792 8.83652C770.809 6.97548 770.67 5.00273 770.373 2.91572C770.446 2.32161 770.754 1.8646 771.292 1.54723C771.833 1.23241 772.364 1.03691 772.884 0.960739C773.481 0.88711 774.142 0.88711 774.868 0.960739C775.594 1.03691 776.199 1.31619 776.684 1.79859C776.684 1.87222 776.694 2.02201 776.714 2.24544C776.732 2.47141 776.742 2.61867 776.742 2.69229C776.892 3.99731 776.872 5.41403 776.686 6.9374C776.501 8.46584 776.443 9.86225 776.521 11.1266C776.521 11.2764 776.549 11.8452 776.605 12.8328C776.658 13.8179 776.724 14.9452 776.798 16.2096C776.872 17.4791 776.948 18.7536 777.024 20.0383C777.095 21.3205 777.154 22.3386 777.189 23.0825C777.301 24.8674 777.364 26.6065 777.385 28.3025C777.403 29.9986 777.507 31.72 777.692 33.4718C777.804 34.1776 778.111 34.5839 778.614 34.6981C779.114 34.8073 779.665 34.8581 780.26 34.8403C780.854 34.8175 781.405 34.8302 781.908 34.8657C782.408 34.9038 782.7 35.2211 782.774 35.8153C782.774 37.0111 782.746 37.9683 782.69 38.6919C782.637 39.418 782.551 40.0807 782.439 40.6748C782.327 41.2689 782.139 41.5685 781.878 41.5685C781.839 41.6117 781.776 41.6243 781.685 41.6243H781.489C780.072 41.5533 778.619 41.4822 777.131 41.4289C775.64 41.3755 774.149 41.2689 772.658 41.1216C772.176 41.0886 771.866 40.949 771.739 40.7053C771.612 40.459 771.51 40.0781 771.434 39.5577Z" fill="#2BB673"/>
<path d="M790.15 33.2458C790.112 33.0986 790.087 32.8929 790.069 32.6314C790.048 32.3724 790.031 32.1109 790.013 31.8494C789.995 31.5879 789.975 31.3569 789.96 31.1538C789.939 30.9456 789.929 30.8059 789.929 30.7323C789.891 30.029 789.855 29.1023 789.817 27.9699C789.779 26.835 789.744 25.7052 789.703 24.5881C789.668 23.476 789.632 22.4858 789.594 21.6277C789.556 20.7695 789.541 20.2871 789.541 20.1754C789.541 19.0583 789.568 17.8396 789.622 16.5142C789.678 15.1965 789.8 13.856 789.988 12.4926C790.173 11.1342 790.48 9.81399 790.909 8.52929C791.336 7.24459 791.905 6.09953 792.614 5.09411C793.32 4.08869 794.224 3.27115 795.321 2.63642C796.421 2.00422 797.752 1.631 799.316 1.51929H800.434C801.475 1.66908 802.481 1.90267 803.451 2.22003C804.421 2.53486 805.297 2.96394 806.077 3.5022C806.859 4.04299 807.537 4.6828 808.116 5.42671C808.695 6.1757 809.13 7.0694 809.432 8.11037C809.467 8.25763 809.513 8.62069 809.572 9.20211C809.625 9.77591 809.655 10.1593 809.655 10.3446C809.655 10.6442 809.663 11.0809 809.683 11.6547C809.701 12.2361 809.711 12.5611 809.711 12.6348C809.711 13.008 809.721 13.8179 809.742 15.0645C809.759 16.3111 809.787 17.672 809.823 19.1446C809.861 20.6146 809.886 22.0466 809.907 23.443C809.927 24.8394 809.935 25.8728 809.935 26.543C809.935 27.4723 809.945 28.5463 809.965 29.7548C809.983 30.9659 809.945 32.2252 809.853 33.5251C809.759 34.8276 809.589 36.1123 809.351 37.3818C809.107 38.6462 808.708 39.7836 808.149 40.789C807.588 41.7944 806.862 42.6247 805.97 43.2746C805.074 43.9221 803.938 44.2826 802.562 44.3638C801.368 44.4349 800.243 44.3638 799.181 44.1353C798.12 43.9119 797.028 43.6149 795.913 43.2442C794.795 42.909 793.881 42.3885 793.175 41.6827C792.469 40.9718 791.897 40.1517 791.471 39.2225C791.041 38.2932 790.724 37.3056 790.521 36.2621C790.31 35.2211 790.188 34.2106 790.15 33.2458ZM797.584 32.8523C797.658 33.6394 797.891 34.335 798.28 34.9495C798.671 35.5588 799.313 35.833 800.21 35.7594C800.804 35.7162 801.251 35.5436 801.548 35.2287C801.846 34.9114 802.059 34.5178 802.191 34.0532C802.323 33.5835 802.399 33.096 802.415 32.5756C802.435 32.0525 802.463 31.5676 802.498 31.1208V30.646C802.498 30.4022 802.509 30.1483 802.526 29.8614C802.547 29.5847 802.557 29.3257 802.557 29.0845V28.6656C802.668 26.7665 802.722 25.0222 802.722 23.443C802.722 21.8612 802.668 20.1195 802.557 18.2204C802.557 17.997 802.536 17.6339 802.501 17.1312C802.463 16.6285 802.427 16.0877 802.389 15.5114C802.351 14.9325 802.315 14.3942 802.277 13.8915C802.239 13.3888 802.224 13.0232 802.224 12.8023C802.148 12.5789 802.008 12.2717 801.805 11.8781C801.599 11.4897 801.376 11.1165 801.132 10.7636C800.888 10.4106 800.611 10.1034 800.294 9.84192C799.979 9.58295 799.672 9.45093 799.374 9.45093C799.001 9.48901 798.676 9.66674 798.394 9.98156C798.117 10.2964 797.894 10.6798 797.724 11.1241C797.556 11.5735 797.424 12.0305 797.332 12.4926C797.241 12.9597 797.172 13.3406 797.137 13.6402C797.099 13.7138 797.063 13.9017 797.025 14.1987C796.987 14.4983 796.944 14.8309 796.885 15.2042C796.832 15.5774 796.774 15.9303 796.72 16.2654C796.665 16.6006 796.637 16.8062 796.637 16.8799V17.6618V19.1674C796.637 19.7285 796.626 20.2795 796.606 20.8177C796.588 21.3585 796.578 21.7775 796.578 22.0745V22.5214C796.578 22.595 796.588 22.6509 796.606 22.6889C796.626 22.727 796.637 22.7829 796.637 22.8565V23.0799C796.675 23.4532 796.738 24.1057 796.832 25.0349C796.924 25.9667 797.025 26.9442 797.137 27.9699C797.251 28.9931 797.343 29.9681 797.416 30.8999C797.49 31.8317 797.548 32.4842 797.584 32.8523Z" fill="#2BB673"/>
</svg>
