<svg width="931" height="611" viewBox="0 0 931 611" fill="none" xmlns="http://www.w3.org/2000/svg">
<path d="M2 186L929 186" stroke="#231F20" stroke-width="3" stroke-linecap="round" stroke-linejoin="round" stroke-dasharray="6 6"/>
<path d="M2 426L929 426" stroke="#231F20" stroke-width="3" stroke-linecap="round" stroke-linejoin="round" stroke-dasharray="6 6"/>
<path d="M708.448 246.643C794.928 246.643 813.519 246.643 900 246.643V370.1H684.089L678.553 274.324L708.448 246.643Z" fill="#D2D1C2"/>
<ellipse cx="794.814" cy="261.038" rx="17.7158" ry="17.7157" transform="rotate(90 794.814 261.038)" fill="#0DBEBE"/>
<ellipse cx="795.366" cy="252.733" rx="12.7332" ry="12.7332" transform="rotate(90 795.366 252.733)" fill="#00A5A5"/>
<path d="M708.448 274.878L678 274.878L708.448 246.643L708.448 274.878Z" fill="#C4C4C4"/>
<path d="M714 348.6H867" stroke="#231F20" stroke-width="3" stroke-linecap="round" stroke-linejoin="round" stroke-dasharray="6 6"/>
<path d="M708.448 486.643C794.928 486.643 813.519 486.643 900 486.643V610.1H684.089L678.553 514.324L708.448 486.643Z" fill="#D2D1C2"/>
<ellipse cx="794.814" cy="501.038" rx="17.7158" ry="17.7157" transform="rotate(90 794.814 501.038)" fill="#0DBEBE"/>
<ellipse cx="795.366" cy="492.733" rx="12.7332" ry="12.7332" transform="rotate(90 795.366 492.733)" fill="#00A5A5"/>
<path d="M708.448 514.878L678 514.878L708.448 486.643L708.448 514.878Z" fill="#C4C4C4"/>
<path d="M714 588.6H867" stroke="#231F20" stroke-width="3" stroke-linecap="round" stroke-linejoin="round" stroke-dasharray="6 6"/>
<path d="M708.448 6.64331C794.928 6.64331 813.519 6.64331 900 6.64331V130.1H684.089L678.553 34.3242L708.448 6.64331Z" fill="#D2D1C2"/>
<ellipse cx="794.814" cy="21.0375" rx="17.7158" ry="17.7157" transform="rotate(90 794.814 21.0375)" fill="#0DBEBE"/>
<ellipse cx="795.366" cy="12.7332" rx="12.7332" ry="12.7332" transform="rotate(90 795.366 12.7332)" fill="#00A5A5"/>
<path d="M708.448 34.878L678 34.8779L708.448 6.64345L708.448 34.878Z" fill="#C4C4C4"/>
<path d="M714 108.6H867" stroke="#231F20" stroke-width="3" stroke-linecap="round" stroke-linejoin="round" stroke-dasharray="6 6"/>
</svg>
