<svg width="265" height="203" viewBox="0 0 265 203" fill="none" xmlns="http://www.w3.org/2000/svg">
<mask id="mask0" mask-type="alpha" maskUnits="userSpaceOnUse" x="0" y="0" width="265" height="203">
<rect y="0.918579" width="265" height="201.448" fill="#E61313"/>
</mask>
<g mask="url(#mask0)">
<path d="M116.766 151.277L115.265 194.135L142.069 195.074L143.57 152.216L116.766 151.277Z" fill="#D5C2A2"/>
<path d="M80.8596 137.086C80.8596 137.086 79.5055 139.876 77.339 141.474C75.1725 143.071 70.7266 143.882 70.7266 143.882C70.7266 143.882 77.181 148.818 82.5974 145.695C87.2012 143.048 87.3818 139.757 87.3818 139.757L83.0939 133.104L80.8596 137.086Z" fill="black"/>
<path d="M105.708 164.442C105.708 164.442 115.344 164.078 121.096 167.226C125.076 172.287 136.435 181.27 136.435 181.27C136.435 181.27 139.056 172.698 140.949 160.519C142.187 159.551 144.735 163.255 144.735 163.255C144.735 163.255 154.54 181.778 156.142 204.998C157.161 219.695 161.239 248.17 155.705 249.114C148.448 251.729 129.299 251.657 115.271 250.18C101.704 248.751 100.806 247.468 100.612 239.211C100.393 230.954 106.558 199.284 106.558 199.284C106.558 199.284 98.7186 216.16 97.6508 226.112C96.6071 236.088 96.0489 249.477 91.6803 249.841C87.9184 250.155 75.0066 250.446 75.2736 245.289C75.759 235.87 80.0063 218.727 85.8312 203.981C94.6655 181.657 105.708 164.442 105.708 164.442Z" fill="#2FAC66"/>
<path d="M144.919 163.386C144.919 163.386 162.856 189.867 168.842 198.887C179.403 214.786 191.952 220.27 191.856 224.815C191.736 230.804 182.612 238.477 180.265 237.491C173.704 234.749 155.743 210.288 151.672 192.152C149.229 181.233 144.919 163.386 144.919 163.386Z" fill="#2FAC66"/>
<path d="M81.3661 103.021C81.3661 103.021 80.458 130.922 87.1975 147.41C93.6979 163.278 114.538 170.903 130.908 169.211C147.303 167.543 162.24 149.769 164.152 133.304C166.733 111.313 157.388 86.39 156.671 85.1272C152.561 78.0745 126.32 83.1972 110.571 87.2001C94.8451 91.2506 81.3661 103.021 81.3661 103.021Z" fill="#E4D5B8"/>
<path d="M132.121 148.734C135.159 146.164 141.804 143.419 144.794 146.763C149.445 151.952 143.109 154.447 139.264 155.32C134.827 156.343 129.89 161.259 128.561 157.366C126.995 152.776 132.121 148.734 132.121 148.734Z" fill="black"/>
<path d="M160.89 87.4723C173.723 85.8323 177.509 61.9063 162.128 55.7319C148.009 50.0639 128.437 53.8024 114.079 58.1197C106.293 60.4351 70.8403 58.4332 59.7687 74.9788C43.8874 98.6876 77.8405 117.139 84.9835 105.079C84.9835 105.079 110.889 90.2943 134.413 88.413C147.699 87.3277 160.89 87.4723 160.89 87.4723Z" fill="#00A0A4"/>
<path d="M102.523 96.7649C102.523 96.7649 96.7413 80.971 92.3339 75.5306C90.9122 73.7571 87.5474 69.8506 87.5474 69.8506L84.4432 78.167L81.6945 63.883C81.6945 63.883 80.0122 61.8458 70.2259 57.2443L60.4159 52.6428L59.2311 62.1334L53.8285 48.9519C53.8285 48.9519 46.9804 47.3222 38.0472 46.8429C29.1376 46.3636 13.1904 45.2851 13.1904 45.2851C13.1904 45.2851 26.8154 56.1658 30.9859 61.1508C35.1563 66.1358 38.1893 67.8854 38.1893 67.8854L50.9376 62.7326L40.7248 70.4738L60.9846 80.4917L72.7139 74.7877L64.9417 82.1693C64.9417 82.1693 83.8982 91.2047 88.0213 91.9716C92.168 92.7146 102.523 96.7649 102.523 96.7649Z" fill="#FDFCF7"/>
<path d="M159.786 94.005C159.786 94.005 141.687 92.5113 120.798 97.113C102.103 101.233 88.9159 108.051 80.5221 111.906C75.8722 111.159 79.9498 103.594 79.9498 103.594C79.9498 103.594 95.8789 94.1015 116.744 90.0539C141.758 85.2112 148.435 85.7653 159.548 87.0904C163.959 90.5116 159.786 94.005 159.786 94.005Z" fill="#007572"/>
<path d="M99.4937 93.7367C99.4937 93.7367 82.9821 78.5336 67.6602 69.34C45.6766 56.1481 23.7881 49.8275 23.7881 49.8275" stroke="#B9B5A3" stroke-width="0.423" stroke-miterlimit="10" stroke-linecap="round" stroke-linejoin="round"/>
<path d="M73.7543 69.5109L72.2402 60.4262" stroke="#B9B5A3" stroke-width="0.423" stroke-miterlimit="10" stroke-linecap="round" stroke-linejoin="round"/>
<path d="M52.5576 72.5391L60.1282 67.9968" stroke="#B9B5A3" stroke-width="0.423" stroke-miterlimit="10" stroke-linecap="round" stroke-linejoin="round"/>
<path d="M73.7549 84.652L81.3254 80.1097" stroke="#B9B5A3" stroke-width="0.423" stroke-miterlimit="10" stroke-linecap="round" stroke-linejoin="round"/>
<path d="M136.207 122.505C136.207 122.505 143.511 127.383 145.777 128.073C148.043 128.763 149.715 130.596 144.501 132.952C139.287 135.308 135.833 134.475 135.833 134.475" stroke="black" stroke-width="0.603" stroke-linecap="round"/>
<path fill-rule="evenodd" clip-rule="evenodd" d="M116.794 104.365C110.524 103.997 106.41 107.06 105.667 112.818C104.923 118.622 107.773 123.274 113.672 123.942C119.545 124.61 124.378 120.856 125.121 115.052C125.89 109.294 122.693 104.711 116.794 104.365Z" fill="white"/>
<path fill-rule="evenodd" clip-rule="evenodd" d="M119.999 113.445C118.629 113.266 117.868 114.071 117.685 115.382C117.533 116.723 118.172 117.766 119.542 117.945C120.912 118.094 122.038 117.26 122.19 115.919C122.342 114.607 121.338 113.624 119.999 113.445Z" fill="black"/>
<path fill-rule="evenodd" clip-rule="evenodd" d="M153.503 101.381C148.523 100.749 145.591 104.216 145.009 109.937C144.404 115.682 146.848 120.289 151.851 120.922C156.831 121.554 160.927 117.783 161.509 112.037C162.114 106.317 158.46 102.014 153.503 101.381Z" fill="white"/>
<path fill-rule="evenodd" clip-rule="evenodd" d="M157.854 111.92C156.482 111.813 155.698 112.345 155.535 113.218C155.404 114.112 156.025 114.794 157.396 114.922C158.768 115.028 159.879 114.453 160.042 113.559C160.205 112.686 159.226 112.026 157.854 111.92Z" fill="black"/>
<path d="M76.5034 115.051C73.2046 116.434 63.6933 116.195 63.6933 116.195C63.6933 116.195 65.427 120.222 70.604 121.604C72.2173 122.033 74.3845 122.2 74.3845 122.2C74.3845 122.2 71.9284 124.249 68.172 124.011C64.8491 123.82 61.6466 122.939 61.6466 122.939C61.4298 124.678 68.3647 133.543 75.8051 129.897C72.5544 134.234 63.621 133.9 63.621 133.9C63.621 133.9 74.3845 142.288 81.5119 137.879C83.1012 136.879 84.3533 136.045 84.3533 136.045C84.3533 136.045 82.0417 123.82 82.2825 121.438C82.4992 119.269 80.7655 111.906 80.7655 111.906C80.7655 111.906 80.6691 113.312 76.5034 115.051Z" fill="black"/>
<path d="M84.3639 117.973C84.3639 117.973 75.9016 117.494 75.3139 122.914C74.7967 127.711 78.9104 129.558 81.9662 129.966C85.0221 130.374 85.8683 129.51 85.8683 129.51L84.3639 117.973Z" fill="#E4D5B8"/>
<path d="M79.4644 114.051C79.4644 114.051 80.0031 116.09 77.7546 117.624C75.5062 119.159 66.1846 119.548 66.1846 119.548C66.1846 119.548 72.1101 124.861 79.441 121.243C84.2892 118.838 91.9245 107.364 91.9245 107.364L80.4012 112.471L79.4644 114.051Z" fill="black"/>
</g>
</svg>
