<svg width="360" height="124" viewBox="0 0 360 124" fill="none" xmlns="http://www.w3.org/2000/svg">
<path d="M118 54.5367C118 54.5367 109.528 74.9205 97.6676 88.1799C75.2172 113.115 39 124 39 124C39 124 88.1367 84.024 86.6542 58.0989C86.0188 47.4122 82.63 48.0059 82.63 48.0059L118 54.5367Z" fill="#F7931D"/>
<path d="M49.9467 0.639761C105.506 -1.48032 306.752 2.01667 339.203 6.03265C370.369 9.88799 364.439 82.5057 335.141 81.9973C288.235 81.1835 88.2445 79.4907 56.2325 80.2727C2.72951 75.9372 -0.66048 68.6043 0.0792901 43.2921C1.43076 -3.17146 12.7277 2.06257 49.9467 0.639761Z" fill="#F7931D"/>
<path d="M63.3982 59.4692C63.2474 59.4692 63.0657 59.5241 62.8543 59.6368C62.643 59.7496 62.4317 59.8736 62.2245 60.0032C62.0174 60.1371 61.8356 60.2681 61.6806 60.3991C61.5284 60.5316 61.4298 60.6133 61.396 60.6542C60.8592 60.9191 60.2674 61.067 59.6206 61.1036C58.9697 61.1389 58.3581 61.1586 57.7861 61.1586C56.4503 61.1966 55.2006 60.8965 54.0353 60.2582C52.8714 59.6185 51.8316 58.7717 50.9171 57.7206C49.9984 56.6695 49.2446 55.4943 48.6543 54.198C48.0611 52.9017 47.6721 51.6322 47.4791 50.3951C47.2508 48.9283 47.1269 47.4333 47.1072 45.9116C47.0874 44.3898 47.0592 42.8794 47.0212 41.3745C46.9437 39.4569 47.079 37.411 47.4214 35.2298C47.7652 33.0529 48.3386 31.0803 49.1404 29.3134C49.4842 28.5609 49.9421 27.7634 50.5142 26.918C51.089 26.0712 51.747 25.2723 52.4896 24.5213C53.2335 23.7717 54.0268 23.1038 54.868 22.5205C55.7064 21.9399 56.5462 21.5355 57.3873 21.3115C57.5367 21.3115 57.8453 21.2904 58.3018 21.2538C58.7583 21.2185 59.0669 21.1988 59.2177 21.1988C60.8578 21.1594 62.1935 21.3017 63.2249 21.6201C64.2563 21.9414 65.0482 22.4556 65.6033 23.1714C66.1585 23.8844 66.529 24.8059 66.7207 25.9317C66.9123 27.0618 67.0265 28.4313 67.0645 30.046V30.5843C67.0645 30.8295 67.0729 31.0887 67.0941 31.3747C67.1138 31.6551 67.1237 31.9271 67.1237 32.1891V32.7528C67.0842 33.0557 67.0434 33.3812 67.0095 33.7391C66.9701 34.097 66.9024 34.4253 66.8052 34.724C66.7122 35.0269 66.5671 35.289 66.3755 35.5159C66.1838 35.7399 65.9175 35.8526 65.5752 35.8526C64.8115 35.816 64.1041 35.7202 63.456 35.5708C62.9206 35.4581 62.4274 35.3158 61.9667 35.1481C61.5087 34.9776 61.2805 34.7437 61.2805 34.4436L61.2227 30.3293C61.2227 29.8037 60.9846 29.3542 60.5069 28.9752C60.0292 28.6018 59.5417 28.413 59.0472 28.413C57.8256 28.4496 56.804 28.9864 55.984 30.0207C55.1611 31.0549 54.5017 32.285 54.0085 33.7109C53.5111 35.1382 53.1589 36.605 52.9489 38.1085C52.7418 39.6091 52.6333 40.8687 52.6333 41.8846C52.6714 42.7878 52.7939 43.9052 53.0067 45.2381C53.2152 46.571 53.5605 47.8588 54.0353 49.0974C54.513 50.3387 55.1428 51.3899 55.9262 52.2522C56.7082 53.1187 57.7114 53.5499 58.9316 53.5499C59.6207 53.5132 60.1716 53.2695 60.5943 52.8158C61.0142 52.3649 61.186 51.8027 61.1086 51.1278C61.1086 51.0897 61.0987 50.9939 61.079 50.8446C61.0592 50.6952 61.0424 50.5346 61.0212 50.3655C61.0029 50.1978 60.9634 50.0428 60.9085 49.9146C60.8507 49.785 60.7831 49.7188 60.7084 49.7188L58.0172 49.7723C57.9016 49.7723 57.7777 49.7089 57.6438 49.575C57.5085 49.444 57.3846 49.2834 57.269 49.0946C57.1549 48.9072 57.0604 48.7282 56.9844 48.5606C56.9069 48.3901 56.8702 48.2478 56.8702 48.1364L56.8125 44.4701C56.8125 44.0968 56.9647 43.7882 57.269 43.5416C57.5762 43.2993 57.8988 43.1739 58.2426 43.1739H58.4709C58.6625 43.2133 58.995 43.288 59.4713 43.4007C59.9504 43.5134 60.2462 43.5867 60.3618 43.6262L67.7464 43.4007C67.8239 43.4007 67.9282 43.505 68.0621 43.7121C68.1973 43.9178 68.3002 44.0799 68.3791 44.1912C68.4157 44.2264 68.4467 44.2673 68.4665 44.3039C68.4862 44.3391 68.5129 44.38 68.5538 44.4166C68.5904 44.4927 68.6299 44.5491 68.668 44.5829C68.668 44.697 68.6468 44.9225 68.6102 45.2606C68.5721 45.5974 68.5327 45.8228 68.4975 45.9355L68.7821 60.8148C68.7821 61.1177 68.6764 61.3516 68.4665 61.5193C68.2579 61.6898 68.0564 61.7743 67.8634 61.7743C67.328 61.8109 66.7686 61.7532 66.1768 61.6067C65.585 61.4559 65.0792 61.2304 64.6593 60.9303C64.393 60.7838 64.2014 60.4963 64.0872 60.0835C63.9731 59.6706 63.742 59.4692 63.3982 59.4692Z" fill="white"/>
<path d="M76.743 58.0023C76.4739 55.9015 76.3992 53.7415 76.5133 51.5194C76.6275 49.3059 76.6472 47.1247 76.5711 44.9816C76.4922 42.9526 76.3781 40.9715 76.2273 39.0369C76.0751 37.1024 76.0173 35.1184 76.0554 33.088C76.0554 30.9083 76.0652 28.8821 76.085 27.0025C76.1033 25.1257 75.9596 23.1333 75.6538 21.0283C75.7299 20.428 76.0441 19.9687 76.5979 19.6488C77.153 19.3304 77.6941 19.1332 78.2309 19.0571C78.8396 18.981 79.5174 18.981 80.2613 19.0571C81.0039 19.1332 81.6267 19.4149 82.1212 19.9039C82.1212 19.9785 82.1297 20.1279 82.1508 20.3533C82.172 20.5788 82.1804 20.7296 82.1804 20.8057C82.3326 22.1203 82.3128 23.5462 82.1226 25.0877C81.931 26.6277 81.8733 28.0367 81.9507 29.3147C81.9507 29.4655 81.9803 30.0375 82.0395 31.0337C82.0987 32.0299 82.1621 33.1684 82.2396 34.4435C82.3157 35.7201 82.3917 37.0094 82.4692 38.3043C82.5453 39.6006 82.6031 40.6249 82.6412 41.3773C82.7553 43.1781 82.8215 44.9351 82.8412 46.6456C82.8638 48.3548 82.9652 50.0921 83.1583 51.859C83.2724 52.5734 83.5894 52.9862 84.1023 53.099C84.6194 53.2131 85.1816 53.2596 85.7931 53.2412C86.4046 53.2201 86.9654 53.2328 87.4797 53.2708C87.994 53.3089 88.2913 53.6287 88.3688 54.2276C88.3688 55.4309 88.3392 56.3989 88.2814 57.1344C88.2237 57.8656 88.1377 58.5335 88.0236 59.1352C87.9081 59.7354 87.715 60.0369 87.4501 60.0369C87.4135 60.0736 87.3458 60.0919 87.2486 60.0919H87.0471C85.5972 60.0186 84.1094 59.9524 82.582 59.8946C81.0532 59.8397 79.5258 59.7354 77.9998 59.5847C77.501 59.548 77.1883 59.4057 77.0544 59.1591C76.9234 58.9168 76.8163 58.5307 76.743 58.0023Z" fill="white"/>
<path d="M95.9227 51.6363C95.8861 51.4898 95.8551 51.277 95.8368 51.0192C95.8142 50.7543 95.7974 50.4936 95.779 50.2273C95.7565 49.9652 95.741 49.7285 95.7212 49.5228C95.6987 49.3171 95.6917 49.1762 95.6917 49.0987C95.6564 48.3857 95.6142 47.4543 95.5775 46.3102C95.5409 45.1647 95.5 44.0276 95.462 42.9004C95.4268 41.7718 95.3845 40.7756 95.3479 39.9105C95.3127 39.0481 95.2915 38.5592 95.2915 38.4465C95.2915 37.3179 95.3211 36.0878 95.3789 34.7549C95.4366 33.4233 95.5606 32.0693 95.7508 30.6969C95.9453 29.3259 96.2567 27.9916 96.6977 26.6953C97.1373 25.399 97.7192 24.245 98.4421 23.2277C99.1691 22.2146 100.093 21.3861 101.221 20.7478C102.348 20.1095 103.715 19.7333 105.315 19.6206H106.461C107.529 19.77 108.559 20.0067 109.551 20.3251C110.541 20.6464 111.442 21.0789 112.242 21.6214C113.042 22.1681 113.74 22.8148 114.332 23.5658C114.922 24.3183 115.369 25.22 115.676 26.2712C115.712 26.4233 115.763 26.7883 115.821 27.3702C115.877 27.9535 115.908 28.3382 115.908 28.5256C115.908 28.8286 115.918 29.2668 115.938 29.8501C115.958 30.4306 115.967 30.7617 115.967 30.8364C115.967 31.2126 115.979 32.0298 115.997 33.2881C116.017 34.5449 116.044 35.9187 116.084 37.4024C116.12 38.8847 116.151 40.3332 116.173 41.7422C116.19 43.1512 116.201 44.1925 116.201 44.8688C116.201 45.8086 116.21 46.8922 116.229 48.111C116.252 49.3312 116.21 50.6035 116.117 51.9139C116.022 53.2327 115.849 54.5262 115.601 55.8056C115.352 57.0808 114.943 58.2277 114.37 59.2422C113.8 60.2567 113.052 61.0923 112.136 61.7475C111.222 62.4055 110.055 62.7732 108.643 62.8479C107.422 62.9225 106.265 62.8479 105.179 62.6224C104.092 62.397 102.975 62.094 101.829 61.7178C100.684 61.3811 99.7454 60.8555 99.024 60.1412C98.2983 59.4268 97.715 58.6011 97.2782 57.6599C96.8372 56.7215 96.5131 55.7253 96.306 54.6727C96.0848 53.6272 95.9608 52.6128 95.9227 51.6363ZM103.538 51.2418C103.615 52.0308 103.854 52.7353 104.256 53.3553C104.656 53.9725 105.315 54.2472 106.23 54.1726C106.84 54.1345 107.298 53.9556 107.605 53.6357C107.909 53.3159 108.129 52.9213 108.264 52.4507C108.398 51.9801 108.473 51.4855 108.493 50.9572C108.512 50.4316 108.539 49.9427 108.58 49.4932V49.0127C108.58 48.7675 108.59 48.5055 108.61 48.2209C108.629 47.9419 108.639 47.677 108.639 47.4318V47.0091C108.753 45.0928 108.811 43.3372 108.811 41.7408C108.811 40.143 108.753 38.3845 108.639 36.471C108.639 36.2442 108.618 35.8792 108.581 35.372C108.543 34.8633 108.502 34.3209 108.467 33.7375C108.429 33.1542 108.39 32.6089 108.353 32.1031C108.315 31.5959 108.298 31.2295 108.298 31.0041C108.218 30.7786 108.076 30.4701 107.866 30.0741C107.657 29.6796 107.425 29.3062 107.179 28.9483C106.93 28.5904 106.644 28.2804 106.32 28.0183C105.997 27.7549 105.682 27.6238 105.376 27.6238C104.994 27.6605 104.66 27.8394 104.374 28.1578C104.088 28.4791 103.858 28.8624 103.686 29.3132C103.515 29.7655 103.381 30.2235 103.289 30.6941C103.193 31.1647 103.126 31.5465 103.085 31.8495C103.048 31.9241 103.009 32.113 102.971 32.4117C102.934 32.7146 102.885 33.0528 102.827 33.4262C102.771 33.8038 102.713 34.1588 102.656 34.497C102.599 34.8352 102.569 35.0423 102.569 35.117V35.906V37.4278C102.569 37.9928 102.556 38.5479 102.54 39.0904C102.52 39.6371 102.51 40.0598 102.51 40.3585V40.8108C102.51 40.8841 102.52 40.9419 102.54 40.9785C102.558 41.0151 102.569 41.0729 102.569 41.1476V41.3744C102.604 41.7506 102.671 42.4044 102.771 43.3456C102.864 44.284 102.971 45.2704 103.085 46.306C103.199 47.336 103.295 48.328 103.372 49.2664C103.441 50.2076 103.499 50.8642 103.538 51.2418Z" fill="white"/>
<path d="M156.711 59.4692C156.56 59.4692 156.378 59.5241 156.165 59.6368C155.958 59.7496 155.745 59.8736 155.537 60.0032C155.328 60.1371 155.145 60.2681 154.992 60.3991C154.841 60.5316 154.742 60.6133 154.706 60.6542C154.172 60.9191 153.58 61.067 152.93 61.1036C152.281 61.1389 151.671 61.1586 151.097 61.1586C149.761 61.1966 148.512 60.8965 147.346 60.2582C146.182 59.6185 145.144 58.7717 144.227 57.7206C143.309 56.6695 142.556 55.4943 141.967 54.198C141.372 52.9017 140.985 51.6322 140.793 50.3951C140.563 48.9283 140.439 47.4333 140.42 45.9116C140.398 44.3898 140.37 42.8794 140.334 41.3745C140.255 39.4569 140.39 37.411 140.732 35.2298C141.075 33.0529 141.645 31.0803 142.451 29.3134C142.795 28.5609 143.252 27.7634 143.827 26.918C144.399 26.0712 145.057 25.2723 145.801 24.5213C146.545 23.7717 147.338 23.1038 148.178 22.5205C149.019 21.9399 149.856 21.5355 150.697 21.3115C150.849 21.3115 151.155 21.2904 151.613 21.2538C152.071 21.2185 152.376 21.1988 152.527 21.1988C154.169 21.1594 155.505 21.3017 156.537 21.6201C157.566 21.9414 158.359 22.4556 158.914 23.1714C159.471 23.8844 159.839 24.8059 160.03 25.9317C160.221 27.0618 160.336 28.4313 160.374 30.046V30.5843C160.374 30.8295 160.383 31.0887 160.404 31.3747C160.423 31.6551 160.433 31.9271 160.433 32.1891V32.7528C160.395 33.0557 160.354 33.3812 160.319 33.7391C160.28 34.097 160.213 34.4253 160.116 34.724C160.022 35.0269 159.878 35.289 159.685 35.5159C159.493 35.7399 159.229 35.8526 158.886 35.8526C158.121 35.816 157.417 35.7202 156.767 35.5708C156.232 35.4581 155.737 35.3158 155.276 35.1481C154.818 34.9776 154.591 34.7437 154.591 34.4436L154.535 30.3293C154.535 29.8037 154.294 29.3542 153.818 28.9752C153.339 28.6018 152.851 28.413 152.358 28.413C151.137 28.4496 150.114 28.9864 149.294 30.0207C148.471 31.0549 147.811 32.285 147.319 33.7109C146.822 35.1382 146.468 36.605 146.26 38.1085C146.051 39.6091 145.944 40.8687 145.944 41.8846C145.981 42.7878 146.106 43.9052 146.318 45.2381C146.526 46.571 146.87 47.8588 147.345 49.0974C147.823 50.3387 148.452 51.3899 149.236 52.2522C150.019 53.1187 151.021 53.5499 152.243 53.5499C152.929 53.5132 153.484 53.2695 153.905 52.8158C154.324 52.3649 154.496 51.8027 154.42 51.1278C154.42 51.0897 154.41 50.9939 154.39 50.8446C154.37 50.6952 154.353 50.5346 154.332 50.3655C154.312 50.1978 154.276 50.0428 154.218 49.9146C154.16 49.7864 154.095 49.7188 154.018 49.7188L151.327 49.7723C151.213 49.7723 151.087 49.7089 150.955 49.575C150.818 49.444 150.694 49.2834 150.58 49.0946C150.464 48.9072 150.371 48.7282 150.294 48.5606C150.218 48.3901 150.18 48.2478 150.18 48.1364L150.122 44.4701C150.122 44.0968 150.274 43.7882 150.58 43.5416C150.887 43.2993 151.21 43.1739 151.554 43.1739H151.782C151.972 43.2133 152.307 43.288 152.784 43.4007C153.261 43.5134 153.557 43.5867 153.671 43.6262L161.057 43.4007C161.135 43.4007 161.238 43.505 161.374 43.7121C161.507 43.9178 161.613 44.0799 161.689 44.1912C161.727 44.2264 161.756 44.2673 161.776 44.3039C161.797 44.3391 161.824 44.38 161.863 44.4166C161.9 44.4927 161.941 44.5491 161.976 44.5829C161.976 44.697 161.956 44.9225 161.92 45.2606C161.885 45.5974 161.842 45.8228 161.808 45.9355L162.092 60.8148C162.092 61.1177 161.989 61.3516 161.776 61.5193C161.568 61.6898 161.366 61.7743 161.174 61.7743C160.639 61.8109 160.078 61.7532 159.486 61.6067C158.893 61.4559 158.389 61.2304 157.97 60.9303C157.704 60.7838 157.512 60.4963 157.397 60.0835C157.283 59.6763 157.053 59.4692 156.711 59.4692Z" fill="white"/>
<path d="M170.053 58.0023C169.785 55.9015 169.709 53.7415 169.823 51.5194C169.938 49.3059 169.957 47.1247 169.881 44.9816C169.803 42.9526 169.689 40.9715 169.537 39.0369C169.385 37.1024 169.33 35.1184 169.365 33.088C169.365 30.9083 169.375 28.8821 169.395 27.0025C169.414 25.1257 169.271 23.1333 168.963 21.0283C169.041 20.428 169.354 19.9687 169.906 19.6488C170.463 19.3304 171.005 19.1332 171.54 19.0571C172.152 18.981 172.827 18.981 173.572 19.0571C174.313 19.1332 174.938 19.4149 175.432 19.9039C175.432 19.9785 175.441 20.1279 175.462 20.3533C175.48 20.5788 175.49 20.7296 175.49 20.8057C175.641 22.1203 175.624 23.5462 175.434 25.0877C175.241 26.6277 175.184 28.0367 175.262 29.3147C175.262 29.4655 175.291 30.0375 175.349 31.0337C175.407 32.0299 175.473 33.1684 175.552 34.4435C175.627 35.7201 175.701 37.0094 175.777 38.3043C175.856 39.6006 175.914 40.6249 175.951 41.3773C176.065 43.1781 176.13 44.9351 176.152 46.6456C176.172 48.3548 176.276 50.0921 176.468 51.859C176.582 52.5734 176.899 52.9862 177.413 53.099C177.929 53.2131 178.493 53.2596 179.103 53.2412C179.713 53.2201 180.275 53.2328 180.791 53.2708C181.304 53.3075 181.601 53.6287 181.678 54.2276C181.678 55.4309 181.649 56.3989 181.59 57.1344C181.532 57.8656 181.447 58.5335 181.332 59.1352C181.218 59.7354 181.026 60.0369 180.76 60.0369C180.723 60.0736 180.657 60.0919 180.56 60.0919H180.358C178.908 60.0186 177.417 59.9524 175.893 59.8946C174.363 59.8397 172.837 59.7354 171.309 59.5847C170.813 59.548 170.498 59.4057 170.364 59.1591C170.233 58.9168 170.127 58.5307 170.053 58.0023Z" fill="white"/>
<path d="M189.235 51.6363C189.197 51.4898 189.166 51.277 189.147 51.0192C189.126 50.7543 189.108 50.4936 189.09 50.2273C189.069 49.9652 189.054 49.7285 189.033 49.5228C189.011 49.3171 189.004 49.1762 189.004 49.0987C188.967 48.3857 188.925 47.4543 188.89 46.3102C188.853 45.1647 188.812 44.0276 188.775 42.9004C188.737 41.7718 188.698 40.7756 188.66 39.9105C188.623 39.0481 188.604 38.5592 188.604 38.4465C188.604 37.3179 188.633 36.0878 188.692 34.7549C188.747 33.4233 188.871 32.0693 189.064 30.6969C189.256 29.3259 189.569 27.9916 190.008 26.6953C190.449 25.399 191.03 24.245 191.755 23.2277C192.48 22.2146 193.405 21.3861 194.533 20.7478C195.658 20.1095 197.025 19.7333 198.627 19.6206H199.773C200.841 19.77 201.871 20.0067 202.864 20.3251C203.856 20.6464 204.752 21.0789 205.555 21.6214C206.354 22.1681 207.053 22.8148 207.644 23.5658C208.235 24.3183 208.681 25.22 208.988 26.2712C209.026 26.4233 209.077 26.7883 209.134 27.3702C209.192 27.9535 209.22 28.3382 209.22 28.5256C209.22 28.8286 209.23 29.2668 209.25 29.8501C209.268 30.4306 209.279 30.7617 209.279 30.8364C209.279 31.2126 209.289 32.0298 209.309 33.2881C209.329 34.5449 209.357 35.9187 209.396 37.4024C209.433 38.8847 209.461 40.3332 209.484 41.7422C209.504 43.1512 209.512 44.1925 209.512 44.8688C209.512 45.8086 209.523 46.8922 209.542 48.111C209.564 49.3312 209.523 50.6035 209.429 51.9139C209.334 53.2327 209.161 54.5262 208.915 55.8056C208.664 57.0808 208.255 58.2277 207.683 59.2422C207.112 60.2567 206.364 61.0923 205.451 61.7475C204.534 62.4055 203.367 62.7732 201.958 62.8479C200.737 62.9225 199.581 62.8479 198.493 62.6224C197.407 62.397 196.291 62.094 195.144 61.7178C193.999 61.3811 193.063 60.8555 192.339 60.1412C191.615 59.4268 191.03 58.6011 190.594 57.6599C190.153 56.7215 189.829 55.7253 189.621 54.6727C189.394 53.6272 189.27 52.6128 189.235 51.6363ZM196.849 51.2418C196.928 52.0308 197.165 52.7353 197.566 53.3553C197.966 53.9725 198.626 54.2472 199.54 54.1726C200.15 54.1345 200.608 53.9556 200.916 53.6357C201.221 53.3159 201.44 52.9213 201.574 52.4507C201.707 51.9801 201.782 51.4855 201.803 50.9572C201.822 50.4316 201.85 49.9427 201.889 49.4932V49.0127C201.889 48.7675 201.899 48.5055 201.919 48.2209C201.94 47.9419 201.948 47.677 201.948 47.4318V47.0091C202.062 45.0928 202.12 43.3372 202.12 41.7408C202.12 40.143 202.062 38.3845 201.948 36.471C201.948 36.2442 201.927 35.8792 201.891 35.372C201.854 34.8633 201.813 34.3209 201.776 33.7375C201.74 33.1542 201.698 32.6089 201.661 32.1031C201.626 31.5959 201.606 31.2295 201.606 31.0041C201.527 30.7786 201.388 30.4701 201.175 30.0741C200.966 29.6796 200.734 29.3062 200.489 28.9483C200.239 28.5904 199.953 28.2804 199.631 28.0183C199.308 27.7563 198.992 27.6238 198.688 27.6238C198.305 27.6605 197.971 27.8394 197.685 28.1578C197.399 28.4791 197.169 28.8624 196.997 29.3132C196.825 29.7655 196.691 30.2235 196.598 30.6941C196.502 31.1647 196.435 31.5465 196.395 31.8495C196.357 31.9241 196.317 32.113 196.281 32.4117C196.243 32.7146 196.194 33.0528 196.138 33.4262C196.08 33.8038 196.022 34.1588 195.964 34.497C195.908 34.8352 195.878 35.0423 195.878 35.117V35.906V37.4278C195.878 37.9928 195.867 38.5479 195.849 39.0904C195.829 39.6371 195.821 40.0598 195.821 40.3585V40.8108C195.821 40.8841 195.829 40.9419 195.849 40.9785C195.868 41.0151 195.878 41.0729 195.878 41.1476V41.3744C195.915 41.7506 195.983 42.4044 196.08 43.3456C196.174 44.284 196.281 45.2704 196.395 46.306C196.511 47.336 196.604 48.328 196.683 49.2664C196.755 50.2076 196.811 50.8642 196.849 51.2418Z" fill="white"/>
<path d="M250.02 59.4692C249.868 59.4692 249.686 59.5241 249.475 59.6368C249.266 59.7496 249.055 59.8736 248.845 60.0032C248.636 60.1371 248.455 60.2681 248.301 60.3991C248.148 60.5302 248.052 60.6133 248.016 60.6542C247.481 60.9191 246.889 61.067 246.241 61.1036C245.589 61.1389 244.979 61.1586 244.407 61.1586C243.071 61.1966 241.82 60.8965 240.656 60.2582C239.493 59.6185 238.453 58.7717 237.535 57.7206C236.619 56.6695 235.864 55.4943 235.275 54.198C234.682 52.9017 234.291 51.6322 234.1 50.3951C233.87 48.9283 233.746 47.4333 233.726 45.9116C233.705 44.3898 233.678 42.8794 233.64 41.3745C233.563 39.4569 233.697 37.411 234.039 35.2298C234.383 33.0529 234.953 31.0803 235.758 29.3134C236.102 28.5609 236.56 27.7634 237.132 26.918C237.705 26.0712 238.365 25.2723 239.107 24.5213C239.853 23.7717 240.644 23.1038 241.486 22.5205C242.325 21.9399 243.164 21.5355 244.005 21.3115C244.156 21.3115 244.461 21.2904 244.919 21.2538C245.377 21.2185 245.683 21.1988 245.835 21.1988C247.477 21.1594 248.811 21.3017 249.844 21.6201C250.874 21.9414 251.667 22.4556 252.222 23.1714C252.776 23.8844 253.145 24.8059 253.34 25.9317C253.53 27.0618 253.644 28.4313 253.682 30.046V30.5843C253.682 30.8295 253.692 31.0887 253.712 31.3747C253.73 31.6551 253.741 31.9271 253.741 32.1891V32.7528C253.705 33.0557 253.662 33.3812 253.627 33.7391C253.591 34.097 253.521 34.4253 253.426 34.724C253.33 35.0269 253.186 35.289 252.996 35.5159C252.801 35.7399 252.537 35.8526 252.196 35.8526C251.43 35.816 250.726 35.7202 250.075 35.5708C249.54 35.4581 249.045 35.3158 248.586 35.1481C248.128 34.9776 247.899 34.7437 247.899 34.4436L247.843 30.3293C247.843 29.8037 247.604 29.3542 247.127 28.9752C246.648 28.6018 246.161 28.413 245.666 28.413C244.445 28.4496 243.423 28.9864 242.603 30.0207C241.782 31.0549 241.121 32.285 240.629 33.7109C240.13 35.1382 239.778 36.605 239.569 38.1085C239.361 39.6091 239.254 40.8687 239.254 41.8846C239.289 42.7878 239.413 43.9052 239.626 45.2381C239.838 46.571 240.178 47.8588 240.656 49.0974C241.132 50.3387 241.76 51.3899 242.545 52.2522C243.327 53.1187 244.331 53.5499 245.552 53.5499C246.24 53.5132 246.792 53.2695 247.212 52.8158C247.633 52.3649 247.804 51.8027 247.729 51.1278C247.729 51.0897 247.718 50.9939 247.699 50.8446C247.678 50.6952 247.663 50.5346 247.639 50.3655C247.621 50.1978 247.584 50.0428 247.526 49.9146C247.471 49.785 247.402 49.7188 247.326 49.7188L244.635 49.7723C244.521 49.7723 244.395 49.7089 244.263 49.575C244.128 49.444 244.002 49.2834 243.889 49.0946C243.775 48.9072 243.68 48.7282 243.605 48.5606C243.527 48.3901 243.489 48.2478 243.489 48.1364L243.432 44.4701C243.432 44.0968 243.582 43.7882 243.889 43.5416C244.195 43.2993 244.518 43.1739 244.862 43.1739H245.091C245.282 43.2133 245.614 43.288 246.092 43.4007C246.568 43.5134 246.865 43.5867 246.979 43.6262L254.365 43.4007C254.442 43.4007 254.547 43.505 254.681 43.7121C254.816 43.9192 254.922 44.0799 254.998 44.1912C255.038 44.2264 255.064 44.2673 255.084 44.3039C255.107 44.3391 255.132 44.38 255.173 44.4166C255.207 44.4927 255.248 44.5491 255.286 44.5829C255.286 44.697 255.264 44.9225 255.228 45.2606C255.191 45.5974 255.149 45.8228 255.115 45.9355L255.4 60.8148C255.4 61.1177 255.295 61.3516 255.083 61.5193C254.876 61.6898 254.673 61.7743 254.482 61.7743C253.946 61.8109 253.385 61.7532 252.793 61.6067C252.201 61.4559 251.697 61.2304 251.275 60.9303C251.011 60.7838 250.82 60.4963 250.706 60.0835C250.594 59.6763 250.365 59.4692 250.02 59.4692Z" fill="white"/>
<path d="M263.362 58.0023C263.096 55.9015 263.018 53.7415 263.132 51.5194C263.248 49.3059 263.268 47.1247 263.191 44.9816C263.113 42.9526 262.998 40.9715 262.846 39.0369C262.695 37.1024 262.639 35.1184 262.674 33.088C262.674 30.9083 262.686 28.8821 262.704 27.0025C262.722 25.1257 262.579 23.1333 262.274 21.0283C262.349 20.428 262.662 19.9687 263.215 19.6488C263.772 19.3304 264.313 19.1332 264.85 19.0571C265.46 18.981 266.138 18.981 266.88 19.0571C267.624 19.1332 268.246 19.4149 268.742 19.9039C268.742 19.9785 268.75 20.1279 268.771 20.3533C268.791 20.5788 268.801 20.7296 268.801 20.8057C268.952 22.1203 268.935 23.5462 268.744 25.0877C268.551 26.6277 268.494 28.0367 268.571 29.3147C268.571 29.4655 268.601 30.0375 268.66 31.0337C268.716 32.0299 268.784 33.1684 268.861 34.4435C268.937 35.7201 269.012 37.0094 269.088 38.3043C269.166 39.6006 269.223 40.6249 269.261 41.3773C269.377 43.1781 269.44 44.9351 269.463 46.6456C269.484 48.3548 269.586 50.0921 269.779 51.859C269.894 52.5734 270.21 52.9862 270.724 53.099C271.24 53.2131 271.802 53.2596 272.412 53.2412C273.024 53.2201 273.586 53.2328 274.1 53.2708C274.614 53.3089 274.912 53.6287 274.989 54.2276C274.989 55.4309 274.96 56.3989 274.9 57.1344C274.843 57.8656 274.757 58.5335 274.644 59.1352C274.527 59.7354 274.335 60.0369 274.07 60.0369C274.034 60.0736 273.966 60.0919 273.869 60.0919H273.666C272.218 60.0186 270.728 59.9524 269.201 59.8946C267.674 59.8397 266.148 59.7354 264.622 59.5847C264.123 59.548 263.809 59.4057 263.675 59.1591C263.542 58.9168 263.439 58.5307 263.362 58.0023Z" fill="white"/>
<path d="M282.544 51.6363C282.506 51.4898 282.477 51.277 282.459 51.0192C282.439 50.7543 282.42 50.4936 282.401 50.2273C282.378 49.9652 282.363 49.7285 282.344 49.5228C282.322 49.3171 282.315 49.1762 282.315 49.0987C282.279 48.3857 282.239 47.4543 282.201 46.3102C282.164 45.1647 282.123 44.0276 282.086 42.9004C282.05 41.7718 282.009 40.7756 281.972 39.9105C281.936 39.0481 281.916 38.5592 281.916 38.4465C281.916 37.3179 281.946 36.0878 282.003 34.7549C282.06 33.4233 282.184 32.0693 282.375 30.6969C282.567 29.3259 282.881 27.9916 283.321 26.6953C283.762 25.399 284.344 24.245 285.067 23.2277C285.792 22.2146 286.716 21.3861 287.844 20.7478C288.971 20.1095 290.338 19.7333 291.938 19.6206H293.084C294.153 19.77 295.182 20.0067 296.174 20.3251C297.166 20.6464 298.063 21.0789 298.865 21.6214C299.665 22.1681 300.363 22.8148 300.955 23.5658C301.548 24.3183 301.992 25.22 302.297 26.2712C302.335 26.4233 302.386 26.7883 302.444 27.3702C302.502 27.9535 302.53 28.3382 302.53 28.5256C302.53 28.8286 302.541 29.2668 302.561 29.8501C302.579 30.4306 302.588 30.7617 302.588 30.8364C302.588 31.2126 302.598 32.0298 302.617 33.2881C302.636 34.5449 302.664 35.9187 302.703 37.4024C302.741 38.8847 302.769 40.3332 302.792 41.7422C302.81 43.1512 302.82 44.1925 302.82 44.8688C302.82 45.8086 302.83 46.8922 302.85 48.111C302.87 49.3312 302.829 50.6035 302.736 51.9139C302.64 53.2327 302.467 54.5262 302.22 55.8056C301.972 57.0808 301.562 58.2277 300.99 59.2422C300.419 60.2567 299.671 61.0923 298.757 61.7475C297.839 62.4055 296.673 62.7732 295.264 62.8479C294.042 62.9225 292.885 62.8479 291.799 62.6224C290.712 62.397 289.595 62.094 288.448 61.7178C287.303 61.3811 286.367 60.8555 285.644 60.1412C284.919 59.4268 284.334 58.6011 283.898 57.6599C283.457 56.7215 283.133 55.7253 282.925 54.6727C282.706 53.6272 282.582 52.6128 282.544 51.6363ZM290.162 51.2418C290.238 52.0308 290.477 52.7353 290.877 53.3553C291.278 53.9725 291.937 54.2472 292.851 54.1726C293.463 54.1345 293.921 53.9556 294.227 53.6357C294.532 53.3159 294.751 52.9213 294.887 52.4507C295.02 51.9801 295.095 51.4855 295.114 50.9572C295.134 50.4316 295.162 49.9427 295.202 49.4932V49.0127C295.202 48.7675 295.213 48.5055 295.231 48.2209C295.25 47.9419 295.261 47.677 295.261 47.4318V47.0091C295.374 45.0928 295.431 43.3372 295.431 41.7408C295.431 40.143 295.374 38.3845 295.261 36.471C295.261 36.2442 295.241 35.8792 295.203 35.372C295.166 34.8633 295.126 34.3209 295.089 33.7375C295.052 33.1542 295.01 32.6089 294.975 32.1031C294.937 31.5959 294.918 31.2295 294.918 31.0041C294.838 30.7786 294.697 30.4701 294.486 30.0741C294.279 29.6796 294.046 29.3062 293.801 28.9483C293.55 28.5904 293.266 28.2804 292.942 28.0183C292.619 27.7549 292.303 27.6238 291.999 27.6238C291.616 27.6605 291.282 27.8394 290.996 28.1578C290.71 28.4791 290.481 28.8624 290.308 29.3132C290.136 29.7655 290.002 30.2235 289.909 30.6941C289.815 31.1647 289.747 31.5465 289.708 31.8495C289.67 31.9241 289.63 32.113 289.592 32.4117C289.556 32.7146 289.506 33.0528 289.45 33.4262C289.392 33.8038 289.334 34.1588 289.278 34.497C289.22 34.8352 289.191 35.0423 289.191 35.117V35.906V37.4278C289.191 37.9928 289.179 38.5479 289.161 39.0904C289.14 39.6371 289.132 40.0598 289.132 40.3585V40.8108C289.132 40.8841 289.14 40.9419 289.161 40.9785C289.181 41.0151 289.191 41.0729 289.191 41.1476V41.3744C289.226 41.7506 289.294 42.4044 289.392 43.3456C289.485 44.284 289.592 45.2704 289.708 46.306C289.822 47.336 289.916 48.328 289.994 49.2664C290.063 50.2076 290.119 50.8642 290.162 51.2418Z" fill="white"/>
</svg>
