<?xml version="1.0" encoding="UTF-8" standalone="no"?>
<!-- Generator: Adobe Illustrator 15.1.0, SVG Export Plug-In . SVG Version: 6.00 Build 0)  -->

<svg
   version="1.1"
   id="Capa_1"
   x="0px"
   y="0px"
   width="250"
   height="150"
   viewBox="0 0 250 150"
   enable-background="new 0 0 159 158"
   xml:space="preserve"
   sodipodi:docname="svgGlo8Crab.svg"
   inkscape:version="1.2.1 (9c6d41e410, 2022-07-14)"
   xmlns:inkscape="http://www.inkscape.org/namespaces/inkscape"
   xmlns:sodipodi="http://sodipodi.sourceforge.net/DTD/sodipodi-0.dtd"
   xmlns="http://www.w3.org/2000/svg"
   xmlns:svg="http://www.w3.org/2000/svg"><sodipodi:namedview
   id="namedview1122"
   pagecolor="#ffffff"
   bordercolor="#000000"
   borderopacity="0.25"
   inkscape:showpageshadow="2"
   inkscape:pageopacity="0.0"
   inkscape:pagecheckerboard="0"
   inkscape:deskcolor="#d1d1d1"
   showgrid="false"
   inkscape:zoom="6.5"
   inkscape:cx="79.538462"
   inkscape:cy="78.923077"
   inkscape:window-width="3840"
   inkscape:window-height="2066"
   inkscape:window-x="-11"
   inkscape:window-y="-11"
   inkscape:window-maximized="1"
   inkscape:current-layer="Capa_1" />

<defs
   id="defs1036">
	<filter
   id="Adobe_OpacityMaskFilter"
   filterUnits="userSpaceOnUse"
   x="116.993"
   y="74.241997"
   width="19.84"
   height="15.623">
		<feColorMatrix
   type="matrix"
   values="1 0 0 0 0  0 1 0 0 0  0 0 1 0 0  0 0 0 1 0"
   id="feColorMatrix1033" />
	</filter>
</defs>
<mask
   maskUnits="userSpaceOnUse"
   x="116.993"
   y="74.242"
   width="19.84"
   height="15.623"
   id="mask0_1_">
	<path
   fill="#bc0003"
   filter="url(#Adobe_OpacityMaskFilter)"
   d="m 116.993,81.865 c 0,0 9.504,1.262 12.521,-1.304 3.021,-2.568 4.736,-6.319 4.736,-6.319 l 2.583,2.884 c 0,0 -1.059,5.172 -5.146,7.757 -4.899,3.098 -13.039,2.317 -13.039,2.317 z"
   id="path1038" />
</mask>
<g
   mask="url(#mask0_1_)"
   id="g1047"
   transform="matrix(1.3095885,0,0,1.2248687,13.117191,-18.454074)">
	<path
   fill="#bc0003"
   d="m 116.993,81.865 c 0,0 9.504,1.262 12.521,-1.304 3.021,-2.568 4.736,-6.319 4.736,-6.319 l 2.583,2.884 c 0,0 -1.059,5.172 -5.146,7.757 -4.899,3.098 -13.039,2.317 -13.039,2.317 z"
   id="path1041" />
	<path
   fill="#ff0000"
   d="m 135.683,82.001 c 0,0 -1.309,-0.023 -3.226,-2.349 -1.921,-2.327 -2.673,-3.166 -2.673,-3.166 l -2.028,2.294 c 0,0 3.217,5.41 4.964,6.262 1.748,0.851 2.963,-3.041 2.963,-3.041 z"
   id="path1043" />
	<path
   fill="#ff0000"
   d="m 128.23,87.702 c 0,0 -1.221,-0.484 -2.2,-3.333 -0.981,-2.855 -1.394,-3.904 -1.394,-3.904 l -2.701,1.434 c 0,0 1.114,6.2 2.453,7.61 1.34,1.408 3.842,-1.807 3.842,-1.807 z"
   id="path1045" />
</g>
<path
   fill="#ff0000"
   d="m 188.5143,70.422399 3.34993,5.755658 c 0,0 -5.68885,-0.202104 -9.74334,-6.039828 -3.02384,-4.347059 -4.14878,-11.446398 -0.55265,-18.022718 6.03328,-11.018918 21.15248,-6.052076 21.15248,-6.052076 l -5.47801,3.5019 2.45548,5.227739 -5.12442,1.782184 2.3363,4.954594 -5.98351,1.486991 2.32583,5.838949 z"
   id="path1049"
   style="stroke-width:1.26652" />
<path
   fill="#ff0000"
   d="m 194.62484,74.007589 -7.00368,0.155559 c 0,0 3.02908,4.517315 10.45707,4.888451 5.53563,0.27682 12.67157,-2.354198 16.94607,-8.559383 7.17916,-10.399135 -4.97513,-20.183386 -4.97513,-20.183386 l -0.49895,6.195386 -6.06732,0.621008 0.91278,5.048909 -5.74778,0.579363 1.61472,5.5952 -6.56366,1.036239 z"
   id="path1051"
   style="stroke-width:1.26652" />
<path
   fill="#bc0003"
   d="m 68.642432,93.63856 c -3.97984,1.338781 -7.553706,3.184658 -13.381375,8.30338 -4.531176,3.98083 -1.917238,6.28848 2.740969,3.60112 4.191992,-2.41177 5.087751,-3.99307 10.028828,-6.093723 2.775018,-1.184448 7.321909,-1.540885 7.321909,-1.540885 l -1.267682,-5.108927 c 0.0026,0 -2.950502,0 -5.442649,0.839035 z"
   id="path1053"
   style="stroke-width:1.26652" />
<path
   fill="#bc0003"
   d="m 172.66828,92.831371 c 4.19199,0.496072 11.73784,4.010221 18.4102,11.557859 3.95757,4.47812 1.91461,6.2848 -2.7449,3.59867 -4.1933,-2.41177 -8.93401,-7.50232 -13.87509,-9.600524 -2.77502,-1.183223 -5.50944,-0.352762 -5.50944,-0.352762 l 1.15506,-5.203243 c 0.001,0 1.92902,-0.07472 2.56417,0 z"
   id="path1055"
   style="stroke-width:1.26652" />
<path
   fill="#bc0003"
   d="m 168.40819,100.5211 c 0,0 4.15663,1.32531 7.33501,4.216 4.04793,3.6844 8.46256,10.88663 6.86355,12.75945 -1.59377,1.87283 -5.57754,-4.2111 -8.46125,-7.20223 -2.88372,-2.98868 -8.82139,-5.37839 -8.82139,-5.37839 z"
   id="path1057"
   style="stroke-width:1.26652" />
<path
   fill="#bc0003"
   d="m 160.36339,107.58859 c 0,0 2.48298,1.79811 4.96203,4.38625 3.16004,3.29613 6.269,10.00351 5.02358,11.67668 -1.2428,1.67807 -4.35307,-3.7726 -6.60818,-6.44894 -2.24988,-2.67756 -6.34234,-6.47098 -6.34234,-6.47098 z"
   id="path1059"
   style="stroke-width:1.26652" />
<path
   fill="#bc0003"
   d="m 75.280736,100.5211 c 0,0 -4.151396,1.32531 -7.328457,4.216 -4.050557,3.68195 -8.467799,10.88663 -6.868792,12.75945 1.596389,1.87283 5.580157,-4.21477 8.46387,-7.20223 2.885024,-2.99112 8.818769,-5.37839 8.818769,-5.37839 z"
   id="path1061"
   style="stroke-width:1.26652" />
<path
   fill="#bc0003"
   d="m 83.328157,107.58859 c 0,0 -2.48298,1.79321 -4.96334,4.38625 -3.160037,3.29613 -6.27031,10.00351 -5.020963,11.67668 1.2428,1.67807 4.357001,-3.7726 6.606874,-6.44894 2.251183,-2.68001 6.343647,-6.47098 6.343647,-6.47098 z"
   id="path1063"
   style="stroke-width:1.26652" />
<path
   fill="#ff0000"
   d="m 117.87379,66.39993 c 19.43691,-0.601411 30.73735,2.606521 44.50767,11.183051 11.98536,7.463125 10.88792,22.978539 -2.36642,31.961719 -11.17734,7.57214 -29.65694,9.48784 -58.81362,5.63318 C 73.143487,111.4751 70.872661,98.054212 71.103149,90.250573 71.334946,82.44326 75.96827,67.70074 117.87379,66.39993 Z"
   id="path1065"
   style="stroke-width:1.26652" />
<path
   fill="#ff0000"
   d="m 108.94371,52.028546 c 0,6.949905 -5.24883,10.901331 -12.667652,10.901331 -7.420128,0 -12.668959,-4.670424 -12.668959,-11.621554 0,-6.945006 6.016249,-11.142631 13.435068,-11.142631 7.417513,0.0025 11.901543,4.912949 11.901543,11.862854 z"
   id="path1067"
   style="stroke-width:1.26652" />
<path
   fill="#ffffff"
   d="m 104.76088,51.871762 c 0,4.653277 -3.51624,7.301443 -8.483513,7.301443 -4.971197,0 -8.488752,-3.128315 -8.488752,-7.786491 0,-4.652051 4.029604,-7.460675 9.000802,-7.460675 4.967273,0 7.971463,3.288773 7.971463,7.945723 z"
   id="path1069"
   style="stroke-width:1.26652" />
<path
   fill="#ff0000"
   d="m 149.13105,45.153358 c 4.16842,-3.073196 12.00369,-3.256926 17.54717,1.355929 4.94632,4.116784 5.60897,10.811916 1.11184,15.656272 -4.86774,5.241213 -11.7601,6.082698 -18.42721,1.849552 -6.14067,-3.897533 -6.05947,-14.55879 -0.2318,-18.861753 z"
   id="path1071"
   style="stroke-width:1.26652" />
<path
   fill="#ffffff"
   d="m 152.30942,48.584215 c 2.67287,-1.973264 7.88896,-2.281931 11.25591,0.869657 3.36172,3.149137 3.69435,6.562846 0.71111,10.041473 -2.98062,3.473728 -7.54716,3.903657 -11.82166,1.188123 -3.93793,-2.501182 -3.88686,-9.338399 -0.14536,-12.099253 z"
   id="path1073"
   style="stroke-width:1.26652" />
<path
   fill="#ff0000"
   d="m 97.077526,64.078804 1.984026,6.508952 7.283928,-1.859351 c 0,0 -1.67889,-3.891408 -1.98533,-5.798528 -0.31038,-1.900996 -0.82635,-4.118009 -0.82635,-4.118009 l -7.257742,0.929676 z"
   id="path1075"
   style="stroke-width:1.26652" />
<path
   fill="#ff0000"
   d="m 146.47913,71.214889 c 0,0 1.65925,-1.549459 3.47565,-4.491594 1.82164,-2.944584 2.64668,-4.71207 2.64668,-4.71207 l 5.38633,2.688587 c 0,0 -1.2703,3.749323 -2.82216,5.886719 -1.55186,2.138621 -2.56417,4.80271 -2.56417,4.80271 z"
   id="path1077"
   style="stroke-width:1.26652" />
<defs
   id="defs1082">
	<filter
   id="Adobe_OpacityMaskFilter_1_"
   filterUnits="userSpaceOnUse"
   x="27.318001"
   y="72.828003"
   width="19.767"
   height="15.76">
		<feColorMatrix
   type="matrix"
   values="1 0 0 0 0  0 1 0 0 0  0 0 1 0 0  0 0 0 1 0"
   id="feColorMatrix1079" />
	</filter>
</defs>
<mask
   maskUnits="userSpaceOnUse"
   x="27.318"
   y="72.828"
   width="19.767"
   height="15.76"
   id="mask1_1_">
	<path
   fill="#bc0003"
   filter="url(#Adobe_OpacityMaskFilter_1_)"
   d="m 47.085,80.71 c 0,0 -9.52,1.121 -12.5,-1.493 -2.98,-2.612 -4.642,-6.389 -4.642,-6.389 l -2.625,2.844 c 0,0 0.983,5.19 5.03,7.836 4.851,3.172 13,2.516 13,2.516 z"
   id="path1084" />
</mask>
<g
   mask="url(#mask1_1_)"
   id="g1093"
   transform="matrix(1.3095885,0,0,1.2248687,13.117191,-18.454074)">
	<path
   fill="#bc0003"
   d="m 47.085,80.71 c 0,0 -9.52,1.121 -12.5,-1.493 -2.98,-2.612 -4.642,-6.389 -4.642,-6.389 l -2.625,2.844 c 0,0 0.983,5.19 5.03,7.836 4.851,3.172 13,2.516 13,2.516 z"
   id="path1087" />
	<path
   fill="#ff0000"
   d="m 28.394,80.567 c 0,0 1.31,-0.003 3.262,-2.301 1.952,-2.297 2.72,-3.124 2.72,-3.124 l 1.995,2.32 c 0,0 -3.298,5.364 -5.058,6.188 -1.762,0.828 -2.919,-3.083 -2.919,-3.083 z"
   id="path1089" />
	<path
   fill="#ff0000"
   d="m 35.764,86.378 c 0,0 1.224,-0.464 2.245,-3.301 1.025,-2.837 1.455,-3.88 1.455,-3.88 l 2.68,1.475 c 0,0 -1.207,6.18 -2.568,7.57 -1.358,1.39 -3.812,-1.864 -3.812,-1.864 z"
   id="path1091" />
</g>
<path
   fill="#ff0000"
   d="m 50.906675,68.828845 -2.797281,6.014105 c 0,0 5.652184,-0.676128 9.138309,-6.827418 C 59.841997,63.432073 60.293805,56.265366 56.087407,50.017311 49.030035,39.544684 34.442529,45.751094 34.442529,45.751094 l 5.791,3.030325 -1.953906,5.413919 5.273713,1.349806 -1.855687,5.12975 6.102682,0.981119 -1.761396,6.010431 z"
   id="path1095"
   style="stroke-width:1.26652" />
<path
   fill="#ff0000"
   d="m 44.561719,74.203568 6.832123,-1.437995 c 0,0 -1.770563,5.070956 -8.8777,7.115262 -5.298595,1.527411 -12.898137,0.591611 -18.662945,-4.454848 -9.655596,-8.458943 -0.403353,-20.708855 -0.403353,-20.708855 l 2.087484,5.898968 6.050298,-0.780241 0.424307,5.105252 5.72814,-0.743495 -0.117863,5.800978 6.634375,-0.488722 z"
   id="path1097"
   style="stroke-width:1.26652" />
<path
   d="m 98.237821,53.261988 c 0,1.211395 -0.935046,1.713592 -1.943429,1.713592 -1.011002,0 -1.829495,-0.766768 -1.829495,-1.713592 0,-0.946823 0.818493,-1.713591 1.829495,-1.713591 1.008383,0 1.943429,0.765543 1.943429,1.713591 z"
   id="path1099"
   style="stroke-width:1.26652" />
<path
   d="m 159.87491,54.97558 c 0,1.211395 -0.93635,1.709916 -1.94474,1.709916 -1.011,0 -1.8308,-0.766767 -1.8308,-1.709916 0,-0.948049 0.8198,-1.713592 1.8308,-1.713592 1.00708,0 1.94474,0.765543 1.94474,1.713592 z"
   id="path1101"
   style="stroke-width:1.26652" />
<defs
   id="defs1106">
	<filter
   id="Adobe_OpacityMaskFilter_2_"
   filterUnits="userSpaceOnUse"
   x="71.189003"
   y="82.978996"
   width="20.069"
   height="13.827">
		<feColorMatrix
   type="matrix"
   values="1 0 0 0 0  0 1 0 0 0  0 0 1 0 0  0 0 0 1 0"
   id="feColorMatrix1103" />
	</filter>
</defs>
<mask
   maskUnits="userSpaceOnUse"
   x="71.189"
   y="82.979"
   width="20.069"
   height="13.827"
   id="mask2_1_">
	<path
   fill="#ffffff"
   filter="url(#Adobe_OpacityMaskFilter_2_)"
   d="m 71.189,83.304 c 0,0 3.942,4.934 10.034,4.827 5.852,-0.103 10.035,-5.151 10.035,-5.151 0,0 -1.092,13.523 -9.567,13.523 -9.455,0 -10.502,-13.199 -10.502,-13.199 z"
   id="path1108" />
</mask>
<g
   mask="url(#mask2_1_)"
   id="g1119"
   transform="matrix(1.3095885,0,0,1.2248687,13.117191,-18.454074)">
	<path
   fill="#ffffff"
   d="m 71.189,83.304 c 0,0 3.942,4.934 10.034,4.827 5.852,-0.103 10.035,-5.151 10.035,-5.151 0,0 -1.092,13.523 -9.567,13.523 -9.455,0 -10.502,-13.199 -10.502,-13.199 z"
   id="path1111" />
	<path
   fill="none"
   stroke="#000000"
   stroke-width="0.8"
   d="m 74.706,85.566 -0.359,8.643"
   id="path1113" />
	<path
   fill="none"
   stroke="#000000"
   stroke-width="0.8"
   d="m 85.754,86.831 1.235,8.028"
   id="path1115" />
	<path
   fill="none"
   stroke="#000000"
   stroke-width="0.8"
   d="m 80.234,87.944 -0.245,8.852"
   id="path1117" />
</g>
</svg>
