<svg width="770" height="47" viewBox="0 0 770 47" fill="none" xmlns="http://www.w3.org/2000/svg">
<path d="M1.44194 43.9603C1.28671 43.8452 1.13147 43.7223 0.978862 43.5838C0.823624 43.4504 0.747321 43.2883 0.747321 43.0948C0.552616 41.254 0.563141 39.395 0.776264 37.515C0.986756 35.635 1.09463 33.7759 1.09463 31.9325C1.09463 29.6342 1.02622 27.3254 0.892034 25.0035C0.755214 22.6843 0.613132 20.365 0.457894 18.0431C0.302656 15.7265 0.178992 13.4124 0.0790081 11.1141C-0.0157133 8.81313 -0.0262373 6.53309 0.0526973 4.26612C0.0526973 4.03602 0.118476 3.79024 0.255296 3.52092C0.392116 3.25422 0.592083 3.09734 0.863092 3.06073C1.24987 3.02151 1.70243 3.04243 2.2234 3.11826C2.74436 3.19408 3.17851 3.215 3.52582 3.17317C3.68106 3.17317 3.96785 3.16532 4.3941 3.14963C4.81771 3.12871 5.27027 3.1078 5.7544 3.08949C6.2359 3.07119 6.68846 3.05027 7.11471 3.03197C7.53832 3.01367 7.82775 3.00321 7.98299 3.00321C8.01982 3.00321 8.17769 2.9849 8.44607 2.94307C8.71708 2.90908 9.00387 2.86724 9.31435 2.83325C9.62219 2.79142 9.9011 2.75481 10.1537 2.71559C10.4036 2.67898 10.5694 2.65806 10.6457 2.65806C10.8773 2.65806 11.2535 2.63715 11.7745 2.60315C12.2954 2.56132 12.8164 2.56132 13.3374 2.60315C13.8583 2.63715 14.3293 2.71559 14.7556 2.83325C15.1792 2.94307 15.4134 3.17317 15.4502 3.52092L15.8554 8.35294C15.8922 8.65886 15.758 8.92033 15.4502 9.12951C15.1397 9.34131 14.8529 9.46681 14.5819 9.5008C13.8084 9.58186 13.0374 9.5531 12.2665 9.41713C11.4929 9.28117 10.7036 9.25502 9.8932 9.33085C9.70113 9.33085 9.44854 9.34131 9.14069 9.35961C8.83285 9.37791 8.51448 9.42498 8.18559 9.5008C7.85669 9.58186 7.57779 9.69691 7.34625 9.84856C7.11471 10.0028 6.99894 10.2329 6.99894 10.5362C7.11471 12.0711 7.11471 13.6608 6.99894 15.3107C6.88317 16.9606 6.90158 18.5687 7.05682 20.1427C7.05682 20.3362 7.07524 20.5846 7.11471 20.8906C7.15154 21.1991 7.26731 21.4475 7.46202 21.6384C7.61726 21.7534 7.85669 21.8397 8.18559 21.8972C8.51448 21.9547 8.84864 21.9835 9.19858 21.9835C9.54589 21.9835 9.87215 21.9757 10.1826 21.9547C10.4905 21.9338 10.722 21.9234 10.8773 21.9234C11.0325 21.9234 11.3193 21.9077 11.7455 21.8685C12.1691 21.8319 12.6138 21.7822 13.0769 21.7246C13.54 21.6697 13.9846 21.6174 14.4083 21.5808C14.8319 21.5416 15.1213 21.5233 15.2765 21.5233C15.3923 21.5233 15.487 21.5913 15.566 21.7246C15.6423 21.858 15.6817 21.9652 15.6817 22.041L16.0843 25.7801C16.1238 26.1278 16.0369 26.4704 15.8264 26.8155C15.6133 27.1581 15.3528 27.3515 15.045 27.3908C14.1951 27.5058 13.3453 27.4953 12.498 27.362C11.6482 27.2286 10.7799 27.1973 9.8932 27.2757C9.35119 27.3515 8.96704 27.4953 8.73287 27.7071C8.50395 27.9189 8.34872 28.1778 8.27241 28.4837C8.19348 28.7923 8.15664 29.1348 8.15664 29.5192V30.7298C8.15664 30.8422 8.13559 31.122 8.09876 31.5613C8.05929 32.0058 8.01193 32.4712 7.95404 32.9706C7.89616 33.47 7.8488 33.9302 7.80933 34.3485C7.76986 34.7721 7.73303 35.0415 7.69356 35.1565C7.76986 35.1983 7.78828 35.3108 7.74881 35.5043C7.71198 35.6925 7.73303 35.8468 7.80933 35.9645C7.80933 36.1945 7.8488 36.4743 7.9251 36.7959C8.0014 37.1228 8.21453 37.2875 8.56184 37.2875H9.92214H11.9481H13.9741H15.2765C15.8922 37.2875 16.4527 37.3424 16.9552 37.4601C17.4551 37.5725 17.8051 37.9961 17.9971 38.723C17.9971 38.7962 18.0261 38.9818 18.084 39.2695C18.1419 39.5571 18.1997 39.8839 18.2576 40.2474C18.3155 40.6161 18.3734 40.9769 18.4313 41.3403C18.4892 41.709 18.5365 41.9836 18.576 42.1718V42.5196C18.6523 43.0556 18.5181 43.3615 18.1682 43.44C17.8235 43.5158 17.4367 43.5942 17.0131 43.6701C15.3923 43.8635 13.7715 43.9106 12.1507 43.8139C10.5299 43.7223 8.90915 43.6517 7.28836 43.6151C7.17259 43.5785 6.88317 43.5838 6.42008 43.6439C5.957 43.7014 5.68599 43.7302 5.60969 43.7302C5.45445 43.7302 5.17555 43.738 4.77035 43.759C4.36515 43.7799 3.93891 43.806 3.49687 43.8452C3.05221 43.8871 2.63649 43.9106 2.25234 43.9315C1.86556 43.9524 1.59718 43.9603 1.44194 43.9603Z" fill="#2BB673"/>
<path d="M26.6779 40.7385C26.4043 38.5892 26.3306 36.385 26.4464 34.1206C26.5622 31.8589 26.5806 29.6364 26.5043 27.4505C26.4254 25.377 26.3096 23.3558 26.157 21.3791C26.0017 19.4076 25.9439 17.3811 25.9807 15.3103C25.9807 13.0878 25.9912 11.0169 26.0123 9.09768C26.0307 7.18109 25.886 5.14945 25.5781 3.00014C25.6544 2.3883 25.9728 1.91765 26.5306 1.5908C27.091 1.26658 27.6409 1.06524 28.1803 0.986802C28.8013 0.910975 29.4828 0.910975 30.2379 0.986802C30.9904 1.06524 31.6166 1.35286 32.1165 1.84966C32.1165 1.92549 32.1271 2.07976 32.1481 2.30985C32.1665 2.54256 32.1771 2.69422 32.1771 2.77005C32.3297 4.11402 32.3112 5.57303 32.1165 7.14187C31.9245 8.71593 31.8666 10.154 31.9455 11.4562C31.9455 11.6104 31.9745 12.1961 32.0323 13.2133C32.0902 14.2278 32.156 15.3887 32.2323 16.6909C32.3112 17.9982 32.3875 19.3108 32.4665 20.6339C32.5428 21.9543 32.6007 23.0028 32.6401 23.7689C32.7559 25.6071 32.8217 27.4008 32.8427 29.1474C32.8612 30.894 32.969 32.6668 33.1611 34.4684C33.2769 35.1979 33.5952 35.6162 34.1162 35.7339C34.6345 35.8463 35.2055 35.8986 35.8238 35.8777C36.4395 35.8568 37.0105 35.8673 37.5314 35.9039C38.0498 35.9457 38.3524 36.2725 38.4287 36.8844C38.4287 38.1133 38.3997 39.1017 38.3418 39.8469C38.284 40.5921 38.1971 41.2771 38.0814 41.889C37.9656 42.5008 37.7709 42.8094 37.4999 42.8094C37.463 42.8512 37.3946 42.8643 37.2999 42.8643H37.0973C35.6291 42.7911 34.1241 42.7205 32.5823 42.6655C31.0378 42.6106 29.4933 42.5008 27.9488 42.3492C27.4489 42.3126 27.1305 42.1688 26.9963 41.9177C26.8595 41.6693 26.7543 41.2745 26.6779 40.7385Z" fill="#2BB673"/>
<path d="M75.5906 43.845C75.6301 43.6907 75.6196 43.3743 75.5617 42.8959C75.5038 42.4147 75.4748 42.0984 75.4748 41.9467C75.3959 40.757 75.4064 39.617 75.5038 38.524C75.5985 37.4311 75.7248 36.2728 75.8774 35.0438C75.9169 34.9654 75.9169 34.8634 75.8774 34.7301C75.8406 34.5915 75.8222 34.5104 75.8222 34.4686C75.8222 33.509 75.8879 32.5677 76.0247 31.6499C76.1589 30.7295 76.2458 29.7908 76.2852 28.8312C76.3615 27.0297 76.3431 25.2674 76.2273 23.539C76.1116 21.8133 76.0721 20.0667 76.1116 18.3044C76.1116 18.1527 76.1195 17.9226 76.1405 17.6141C76.1589 17.3081 76.18 16.9996 76.1958 16.6911C76.2168 16.3851 76.2352 16.1106 76.2563 15.8596C76.2747 15.6086 76.2852 15.4491 76.2852 15.368C76.2852 15.2922 76.3037 15.1222 76.3431 14.8529C76.38 14.5862 76.4194 14.3064 76.4589 14.0188C76.4957 13.7286 76.5352 13.4645 76.5747 13.2135C76.6141 12.9625 76.6326 12.8004 76.6326 12.7245V12.5493C76.6326 12.2853 76.5352 12.0839 76.3431 11.948C76.1484 11.8146 75.9563 11.7283 75.7616 11.6865C74.6066 11.7649 73.4962 11.7728 72.4359 11.7179C71.3729 11.6603 70.2652 11.6708 69.1075 11.7466C68.797 11.6708 68.5102 11.5374 68.2392 11.344C68.2392 11.1505 68.2181 10.7975 68.1813 10.2798C68.1418 9.76204 68.1024 9.42474 68.0655 9.27047C68.0261 8.92794 67.9603 8.38931 67.8603 7.66242C67.7656 6.93291 67.7077 6.19817 67.6893 5.44513C67.6682 4.69993 67.7366 4.02795 67.8919 3.4344C68.0445 2.84086 68.3734 2.50356 68.8759 2.42773H69.1075L88.3806 2.60292C88.6517 2.60292 88.8648 2.68659 89.02 2.85655C89.1726 3.03174 89.2989 3.23307 89.3963 3.46317C89.491 3.69588 89.5594 3.93382 89.5989 4.18222C89.6357 4.43061 89.6567 4.63456 89.6567 4.78622C89.6567 4.82282 89.6673 4.96925 89.6831 5.21765C89.7041 5.46605 89.7331 5.75628 89.7725 6.08051C89.8094 6.40735 89.8488 6.73419 89.8883 7.05841C89.9251 7.38525 89.9462 7.66242 89.9462 7.89251C89.9462 8.00756 89.9541 8.19843 89.9751 8.46775C89.9935 8.73445 90.012 9.03515 90.033 9.35937C90.0514 9.68622 90.0698 9.99214 90.0909 10.2798C90.1093 10.5674 90.1172 10.7687 90.1172 10.8864C90.1172 11.0746 90.0619 11.2681 89.9462 11.4564C89.8304 11.6499 89.6752 11.7649 89.4831 11.8041C88.5175 11.9584 87.5518 12.0342 86.5888 12.0342C85.6232 12.0342 84.6576 12.0891 83.6946 12.2068C83.4999 12.2434 83.3262 12.2539 83.1736 12.233C83.0184 12.2173 82.8447 12.3036 82.6526 12.4944C82.4211 12.7664 82.2764 13.0906 82.2185 13.4723C82.1606 13.8567 82.129 14.2489 82.129 14.6516C82.129 15.0516 82.1501 15.4569 82.1895 15.8596C82.2264 16.2623 82.2474 16.6152 82.2474 16.9238C82.0527 21.2198 81.958 25.521 81.958 29.8353C81.958 34.1496 82.2264 38.4168 82.7684 42.637C82.7684 42.9429 82.7184 43.3273 82.6237 43.7875C82.5263 44.2477 82.2658 44.4961 81.8422 44.5327H81.7843C81.7054 44.5327 81.5528 44.5222 81.3213 44.5039C81.0897 44.483 80.8292 44.4542 80.5398 44.4202C80.2504 44.3784 79.9899 44.3601 79.7584 44.3601H79.3532C79.1216 44.3235 78.8217 44.3235 78.4559 44.3601C78.0876 44.4019 77.7218 44.4202 77.3561 44.4202C76.9878 44.4202 76.6404 44.3784 76.3115 44.3026C75.9853 44.2267 75.7459 44.0751 75.5906 43.845Z" fill="#2BB673"/>
<path d="M95.733 43.9602C95.5777 43.8452 95.4225 43.7223 95.2699 43.5837C95.1146 43.4503 95.0383 43.2882 95.0383 43.0947C94.8436 41.254 94.8542 39.3949 95.0673 37.5149C95.2778 35.6349 95.3857 33.7758 95.3857 31.9325C95.3857 29.6341 95.3172 27.3253 95.1831 25.0034C95.0462 22.6842 94.9041 20.3649 94.7489 18.043C94.5937 15.7238 94.47 13.4097 94.37 11.1114C94.2753 8.81044 94.2648 6.5304 94.3437 4.26343C94.3437 4.03334 94.4095 3.78755 94.5463 3.51824C94.6831 3.25154 94.8831 3.09465 95.1541 3.05805C95.5409 3.01883 95.9935 3.03974 96.5144 3.11557C97.0354 3.1914 97.4695 3.21231 97.8168 3.17048C97.9721 3.17048 98.2589 3.16263 98.6851 3.14695C99.1087 3.12603 99.5613 3.10511 100.045 3.08681C100.527 3.0685 100.979 3.04759 101.406 3.02928C101.829 3.01098 102.119 3.00052 102.274 3.00052C102.311 3.00052 102.469 2.98222 102.737 2.94038C103.008 2.90639 103.295 2.86456 103.605 2.83057C103.913 2.78873 104.192 2.75212 104.445 2.7129C104.695 2.6763 104.86 2.65538 104.937 2.65538C105.168 2.65538 105.545 2.63446 106.066 2.60047C106.586 2.55863 107.107 2.55863 107.628 2.60047C108.149 2.63446 108.62 2.7129 109.047 2.83057C109.47 2.94038 109.704 3.17048 109.741 3.51824L110.146 8.35025C110.183 8.65617 110.049 8.91765 109.741 9.12682C109.431 9.33862 109.144 9.46412 108.873 9.49812C108.099 9.57917 107.328 9.55041 106.558 9.41445C105.784 9.27848 104.995 9.25233 104.184 9.32816C103.992 9.32816 103.74 9.33862 103.432 9.35692C103.124 9.37784 102.806 9.4249 102.477 9.50073C102.148 9.58179 101.869 9.69684 101.637 9.84849C101.406 10.0028 101.29 10.2329 101.29 10.5388C101.406 12.0736 101.406 13.6634 101.29 15.3133C101.174 16.9632 101.193 18.5712 101.348 20.1453C101.348 20.3388 101.366 20.5872 101.406 20.8931C101.443 21.2016 101.558 21.45 101.753 21.6409C101.908 21.756 102.148 21.8422 102.477 21.8998C102.806 21.9573 103.14 21.986 103.49 21.986C103.837 21.986 104.163 21.9782 104.474 21.9573C104.782 21.9364 105.013 21.9259 105.168 21.9259C105.324 21.9259 105.61 21.9102 106.037 21.871C106.46 21.8344 106.905 21.7847 107.368 21.7272C107.831 21.6723 108.276 21.62 108.699 21.5834C109.123 21.5442 109.412 21.5259 109.568 21.5259C109.683 21.5259 109.778 21.5938 109.857 21.7272C109.933 21.8605 109.973 21.9677 109.973 22.0436L110.375 25.7826C110.415 26.1304 110.328 26.4729 110.117 26.8181C109.904 27.1606 109.644 27.3541 109.336 27.3933C108.486 27.5083 107.636 27.4979 106.789 27.3645C105.939 27.2312 105.071 27.1998 104.184 27.2783C103.642 27.3541 103.258 27.4979 103.024 27.7097C102.795 27.9215 102.64 28.1803 102.563 28.4863C102.485 28.7948 102.448 29.1373 102.448 29.5217V30.7323C102.448 30.8447 102.427 31.1245 102.39 31.5638C102.35 32.0083 102.303 32.4737 102.245 32.9731C102.187 33.4725 102.14 33.9327 102.1 34.3511C102.061 34.7747 102.024 35.044 101.985 35.159C102.061 35.2009 102.079 35.3133 102.04 35.5068C102.003 35.6951 102.024 35.8493 102.1 35.967C102.1 36.1971 102.14 36.4769 102.216 36.7985C102.292 37.1253 102.506 37.29 102.853 37.29H104.213H106.239H108.265H109.568C110.183 37.29 110.744 37.3449 111.246 37.4626C111.746 37.575 112.096 37.9986 112.288 38.7255C112.288 38.7987 112.317 38.9844 112.375 39.272C112.433 39.5596 112.491 39.8865 112.549 40.2499C112.607 40.6186 112.664 40.9794 112.722 41.3429C112.78 41.7115 112.828 41.9861 112.867 42.1743V42.5221C112.943 43.0581 112.809 43.364 112.459 43.4425C112.115 43.5183 111.728 43.5968 111.304 43.6726C109.683 43.8661 108.063 43.9131 106.442 43.8164C104.821 43.7249 103.2 43.6543 101.579 43.6177C101.464 43.5811 101.174 43.5863 100.711 43.6464C100.248 43.704 99.977 43.7327 99.9007 43.7327C99.7455 43.7327 99.4666 43.7406 99.0614 43.7615C98.6562 43.7824 98.2299 43.8086 97.7879 43.8478C97.3432 43.8896 96.9275 43.9131 96.5434 43.9341C96.1566 43.9524 95.8882 43.9602 95.733 43.9602Z" fill="#2BB673"/>
<path d="M118.595 39.5883C118.942 38.8615 119.513 37.8548 120.302 36.5683C121.092 35.2871 121.894 33.9327 122.707 32.5129C123.515 31.0931 124.231 29.7308 124.846 28.4261C125.462 27.1213 125.775 26.0676 125.775 25.2649C125.775 24.8413 125.686 24.4569 125.512 24.1144C125.338 23.7719 125.154 23.4424 124.962 23.1365C124.886 23.0607 124.741 22.8593 124.528 22.5325C124.315 22.2083 124.073 21.8527 123.804 21.4657C123.533 21.0839 123.291 20.7309 123.081 20.4041C122.868 20.0773 122.741 19.8576 122.707 19.74C122.626 19.5909 122.434 19.2144 122.126 18.6209C121.818 18.0247 121.489 17.3841 121.142 16.6912C120.794 16.0009 120.476 15.3603 120.187 14.7668C119.897 14.1732 119.694 13.7993 119.579 13.6424C119.502 13.4934 119.355 13.279 119.145 13.0123C118.931 12.743 118.71 12.437 118.479 12.0893C118.247 11.7467 118.034 11.3807 117.842 10.9963C117.65 10.6146 117.553 10.2511 117.553 9.90336C117.553 9.06142 117.737 8.3999 118.103 7.9214C118.468 7.44291 118.866 6.91473 119.289 6.33949C119.405 6.22183 119.618 5.99173 119.926 5.65182C120.234 5.30406 120.552 4.94061 120.881 4.55625C121.207 4.1745 121.518 3.80582 121.807 3.46329C122.097 3.11815 122.299 2.86714 122.415 2.71287H122.589C122.781 2.71287 122.983 2.82007 123.197 3.03186C123.407 3.24366 123.573 3.42407 123.691 3.57834C124.231 4.4595 124.759 5.35897 125.28 6.28197C125.801 7.20235 126.341 8.11228 126.901 9.01436C127.459 9.91382 128.04 10.7871 128.638 11.6317C129.235 12.4736 129.901 13.2607 130.635 13.9902C130.79 13.6058 131.098 12.9181 131.561 11.9193C132.024 10.9205 132.516 9.87722 133.037 8.78426C133.561 7.69131 134.05 6.64542 134.513 5.65182C134.976 4.65299 135.305 3.96009 135.497 3.57834C135.573 3.4999 135.671 3.34825 135.787 3.11815C135.902 2.88805 135.997 2.7547 136.079 2.71287L136.134 2.65796L136.308 2.71287C136.344 2.71287 136.46 2.80177 136.655 2.97434C136.85 3.14691 136.981 3.2698 137.06 3.34825C137.213 3.46329 137.486 3.69339 137.87 4.03592C138.257 4.38368 138.67 4.74712 139.115 5.12887C139.56 5.51585 139.973 5.8793 140.36 6.22183C140.746 6.56959 141.015 6.79968 141.17 6.91473C141.286 7.06639 141.351 7.16313 141.373 7.20235C141.391 7.23896 141.401 7.35662 141.401 7.54488C141.401 7.81681 141.391 7.97893 141.373 8.03645C141.351 8.09136 141.286 8.23778 141.17 8.46788C140.128 10.6538 139.115 12.8423 138.131 15.0256C137.147 17.2115 136.268 19.5099 135.497 21.9259V22.2161V22.5586C135.534 22.6763 135.623 22.9639 135.758 23.4215C135.892 23.8817 135.997 24.1902 136.079 24.3445C136.192 24.6138 136.431 25.0609 136.8 25.6963C137.168 26.3317 137.552 27.0037 137.957 27.7123C138.362 28.4235 138.757 29.0928 139.147 29.7282C139.528 30.3584 139.802 30.8107 139.954 31.0774C139.954 31.1193 140.023 31.2814 140.157 31.569C140.291 31.8566 140.438 32.1704 140.591 32.5181C140.746 32.8633 140.902 33.2189 141.054 33.5797C141.209 33.9484 141.325 34.2229 141.401 34.4164C141.478 34.6465 141.594 34.9315 141.749 35.2793C141.901 35.6218 142.057 35.9696 142.212 36.3121C142.364 36.7357 142.541 37.1384 142.733 37.5227V38.1555C142.309 38.6915 141.901 39.1909 141.517 39.6511C141.209 40.0747 140.87 40.5035 140.504 40.9428C140.138 41.3873 139.839 41.7612 139.607 42.0671C139.491 42.1795 139.297 42.4018 139.028 42.726C138.757 43.0529 138.478 43.4006 138.189 43.7615C137.899 44.1249 137.618 44.47 137.349 44.7969C137.078 45.1211 136.905 45.3434 136.829 45.4558L136.539 45.1133C135.689 43.0398 134.842 41.0944 133.995 39.2746C133.142 37.4547 132.219 35.5224 131.214 33.4934C131.022 33.1875 130.845 32.9077 130.693 32.6593C130.537 32.4083 130.345 32.1887 130.114 31.9978C129.959 32.3822 129.659 33.0515 129.217 34.0138C128.772 34.9681 128.309 35.9905 127.827 37.0625C127.343 38.1346 126.88 39.1517 126.438 40.1113C125.996 41.0657 125.693 41.7193 125.541 42.0671C125.425 42.2606 125.27 42.5718 125.078 43.0163C124.886 43.4555 124.681 43.9053 124.47 44.3655C124.257 44.8283 124.036 45.2283 123.804 45.5761C123.573 45.9212 123.341 46.0912 123.11 46.0912H122.994C122.954 46.0912 122.936 46.0703 122.936 46.0363C122.781 45.882 122.51 45.6048 122.126 45.2048C121.739 44.8021 121.323 44.3785 120.881 43.9393L119.608 42.6737C119.202 42.2711 118.921 41.973 118.768 41.7821C118.689 41.7429 118.624 41.6671 118.566 41.5494C118.508 41.437 118.439 41.3193 118.363 41.2069C118.247 41.0526 118.15 40.9192 118.074 40.8042L118.595 39.5883Z" fill="#2BB673"/>
<path d="M152.803 43.845C152.843 43.6907 152.832 43.3743 152.775 42.8959C152.717 42.4174 152.688 42.0984 152.688 41.9467C152.609 40.757 152.619 39.617 152.717 38.524C152.811 37.4311 152.938 36.2728 153.09 35.0438C153.13 34.9654 153.13 34.8634 153.09 34.7301C153.053 34.5915 153.035 34.5104 153.035 34.4686C153.035 33.509 153.101 32.5677 153.238 31.6499C153.372 30.7295 153.459 29.7908 153.498 28.8312C153.574 27.0297 153.556 25.2674 153.44 23.539C153.324 21.8133 153.285 20.0667 153.324 18.3044C153.324 18.1527 153.332 17.9226 153.353 17.6141C153.372 17.3081 153.393 16.9996 153.409 16.6911C153.43 16.3851 153.448 16.1106 153.469 15.8596C153.488 15.6086 153.498 15.4491 153.498 15.368C153.498 15.2922 153.517 15.1222 153.556 14.8529C153.593 14.5862 153.632 14.3064 153.672 14.0188C153.709 13.7286 153.748 13.4645 153.788 13.2135C153.827 12.9625 153.845 12.8004 153.845 12.7245V12.5493C153.845 12.2853 153.748 12.0839 153.556 11.948C153.361 11.8146 153.169 11.7283 152.975 11.6865C151.819 11.7649 150.709 11.7728 149.649 11.7179C148.586 11.6603 147.478 11.6708 146.32 11.7466C146.01 11.6708 145.723 11.5374 145.452 11.344C145.452 11.1505 145.431 10.7975 145.394 10.2798C145.355 9.76204 145.315 9.42474 145.278 9.27047C145.239 8.92794 145.173 8.38931 145.073 7.66242C144.978 6.93291 144.921 6.19817 144.902 5.44513C144.881 4.69993 144.95 4.02795 145.105 3.4344C145.257 2.84086 145.586 2.50356 146.089 2.42773H146.32L165.594 2.60292C165.865 2.60292 166.078 2.68659 166.233 2.85655C166.385 3.03174 166.512 3.23307 166.609 3.46317C166.704 3.69588 166.772 3.93382 166.812 4.18222C166.849 4.43061 166.87 4.63456 166.87 4.78622C166.87 4.82282 166.88 4.96925 166.896 5.21765C166.917 5.46605 166.946 5.75628 166.985 6.08051C167.022 6.40735 167.062 6.73419 167.101 7.05841C167.138 7.38525 167.159 7.66242 167.159 7.89251C167.159 8.00756 167.167 8.19843 167.188 8.46775C167.206 8.73445 167.225 9.03515 167.246 9.35937C167.264 9.68622 167.283 9.99214 167.304 10.2798C167.322 10.5674 167.33 10.7687 167.33 10.8864C167.33 11.0746 167.275 11.2681 167.159 11.4564C167.043 11.6499 166.888 11.7649 166.696 11.8041C165.73 11.9584 164.765 12.0342 163.802 12.0342C162.836 12.0342 161.87 12.0891 160.907 12.2068C160.713 12.2434 160.539 12.2539 160.386 12.233C160.231 12.2173 160.058 12.3036 159.865 12.4944C159.634 12.7664 159.489 13.0906 159.431 13.4723C159.373 13.8567 159.342 14.2489 159.342 14.6516C159.342 15.0516 159.363 15.4569 159.402 15.8596C159.439 16.2623 159.46 16.6152 159.46 16.9238C159.266 21.2198 159.171 25.521 159.171 29.8353C159.171 34.1496 159.439 38.4168 159.981 42.637C159.981 42.9429 159.931 43.3273 159.837 43.7875C159.739 44.2477 159.479 44.4961 159.055 44.5327H158.997C158.918 44.5327 158.766 44.5222 158.534 44.5039C158.303 44.483 158.042 44.4542 157.753 44.4202C157.463 44.3784 157.203 44.3601 156.971 44.3601H156.566C156.334 44.3235 156.035 44.3235 155.669 44.3601C155.3 44.4019 154.935 44.4202 154.569 44.4202C154.201 44.4202 153.853 44.3784 153.524 44.3026C153.198 44.2267 152.961 44.0751 152.803 43.845Z" fill="#2BB673"/>
<path d="M172.138 34.2388C172.101 34.0845 172.072 33.8754 172.054 33.606C172.033 33.3393 172.014 33.07 171.996 32.7981C171.975 32.5314 171.956 32.2934 171.938 32.0817C171.917 31.8699 171.906 31.726 171.906 31.6502C171.87 30.9233 171.83 29.969 171.791 28.8028C171.754 27.634 171.714 26.4704 171.675 25.3226C171.638 24.1747 171.599 23.1576 171.562 22.2738C171.522 21.39 171.504 20.8932 171.504 20.7782C171.504 19.6277 171.533 18.3726 171.588 17.0078C171.649 15.6507 171.775 14.2701 171.967 12.866C172.159 11.4672 172.477 10.1075 172.922 8.78444C173.364 7.46139 173.954 6.28215 174.688 5.24672C175.419 4.21129 176.356 3.36935 177.492 2.71567C178.632 2.0646 180.01 1.68023 181.634 1.56519H182.792C183.87 1.71945 184.912 1.96001 185.917 2.28685C186.92 2.61108 187.828 3.05296 188.638 3.60729C189.446 4.16422 190.151 4.82313 190.748 5.58925C191.348 6.36059 191.801 7.28098 192.111 8.35301C192.148 8.50467 192.195 8.87857 192.256 9.47734C192.311 10.0683 192.343 10.4631 192.343 10.654C192.343 10.9625 192.351 11.4122 192.372 12.0032C192.39 12.6019 192.398 12.9366 192.398 13.0125C192.398 13.3968 192.408 14.2309 192.429 15.5147C192.448 16.7986 192.477 18.2001 192.514 19.7166C192.553 21.2305 192.582 22.7052 192.603 24.1433C192.622 25.5814 192.629 26.6456 192.629 27.3359C192.629 28.2955 192.64 29.3989 192.661 30.6462C192.679 31.8934 192.64 33.1877 192.545 34.5264C192.448 35.8704 192.274 37.1934 192.024 38.4982C191.772 39.8029 191.359 40.9717 190.78 42.0072C190.201 43.0426 189.446 43.9002 188.522 44.567C187.593 45.2363 186.417 45.6076 184.991 45.6887C183.755 45.7619 182.589 45.6887 181.489 45.456C180.389 45.2259 179.258 44.92 178.103 44.5356C176.942 44.1904 175.998 43.6544 175.266 42.9275C174.532 42.198 173.943 41.3535 173.501 40.3939C173.056 39.4395 172.727 38.4197 172.517 37.3451C172.304 36.2704 172.177 35.235 172.138 34.2388ZM179.839 33.8361C179.916 34.6441 180.158 35.3605 180.56 35.9933C180.968 36.6234 181.634 36.9058 182.56 36.8274C183.178 36.7855 183.639 36.6077 183.949 36.2809C184.257 35.9541 184.478 35.5514 184.612 35.0703C184.749 34.5892 184.828 34.0845 184.844 33.5485C184.865 33.0125 184.894 32.5131 184.933 32.0529V31.5613C184.933 31.3103 184.941 31.0462 184.96 30.7534C184.981 30.4684 184.991 30.1964 184.991 29.9507V29.5166C185.107 27.5608 185.162 25.7671 185.162 24.1381C185.162 22.5091 185.107 20.7154 184.991 18.7596C184.991 18.5295 184.97 18.1556 184.933 17.6379C184.894 17.1202 184.854 16.5633 184.818 15.9697C184.778 15.3736 184.739 14.8192 184.702 14.3015C184.662 13.7838 184.644 13.4073 184.644 13.1798C184.565 12.9497 184.42 12.6333 184.21 12.228C183.997 11.828 183.765 11.4436 183.512 11.0802C183.263 10.7167 182.973 10.4003 182.644 10.131C182.318 9.86432 182 9.72836 181.692 9.72836C181.305 9.76758 180.968 9.95061 180.676 10.2748C180.389 10.5991 180.158 10.9939 179.984 11.4515C179.808 11.9143 179.674 12.3849 179.576 12.8608C179.482 13.3419 179.413 13.7341 179.374 14.0427C179.337 14.1185 179.297 14.312 179.258 14.6179C179.221 14.9264 179.174 15.269 179.116 15.6533C179.058 16.0377 179 16.4011 178.942 16.7463C178.884 17.0914 178.855 17.3032 178.855 17.379V18.1844V19.7349C178.855 20.3128 178.845 20.8802 178.824 21.4345C178.805 21.9914 178.797 22.4229 178.797 22.7288V23.189C178.797 23.2648 178.805 23.3223 178.824 23.3615C178.845 23.4008 178.855 23.4583 178.855 23.5341V23.7642C178.895 24.1486 178.961 24.8206 179.058 25.7775C179.153 26.7372 179.258 27.7438 179.374 28.7976C179.492 29.8513 179.587 30.858 179.666 31.8176C179.742 32.7824 179.8 33.4518 179.839 33.8361Z" fill="#2BB673"/>
<path d="M222.555 34.8137C222.826 34.0868 223.315 33.6161 224.031 33.4043C224.744 33.1925 225.594 33.135 226.575 33.2344C227.559 33.3311 228.659 33.5089 229.877 33.7808C231.093 34.0475 232.356 34.2959 233.669 34.526C234.208 34.4894 234.679 34.3535 235.087 34.1234C235.492 33.8933 235.868 33.5978 236.213 33.2344C236.563 32.8683 236.889 32.4578 237.197 31.995C237.508 31.5348 237.836 31.072 238.181 30.6144C238.221 30.5778 238.26 30.4915 238.297 30.3556C238.336 30.2196 238.357 30.1359 238.357 30.0967L238.126 26.7002C238.05 26.6636 237.807 26.4701 237.402 26.1275C236.997 25.7798 236.679 25.5105 236.447 25.3196C236.368 25.2438 236.224 25.1366 236.013 25.0032C235.8 24.8725 235.655 24.8045 235.579 24.8045C234.229 24.2293 232.964 23.7691 231.787 23.4239C230.611 23.0814 229.511 22.6656 228.488 22.1872C227.464 21.706 226.538 21.0576 225.709 20.2313C224.878 19.4077 224.154 18.2285 223.539 16.691C223.539 16.5786 223.528 16.406 223.507 16.1759C223.489 15.9458 223.46 15.7053 223.423 15.4569C223.384 15.2085 223.355 14.9757 223.336 14.7666C223.315 14.5574 223.307 14.4136 223.307 14.3351C223.268 13.7991 223.22 13.2239 223.16 12.6094C223.105 11.995 223.17 11.4223 223.365 10.8863C223.402 10.732 223.481 10.4523 223.597 10.047C223.71 9.64693 223.847 9.23642 224.002 8.81284C224.154 8.39186 224.299 7.9892 224.436 7.60483C224.57 7.22308 224.657 6.95377 224.694 6.7995V6.51188C224.925 6.16674 225.138 5.89742 225.333 5.70654C225.525 5.51567 225.709 5.31433 225.883 5.10516C226.057 4.89336 226.201 4.72864 226.317 4.61359C227.591 3.19379 228.854 2.12176 230.109 1.39225C231.364 0.662739 232.898 0.205162 234.711 0.0116725C235.213 -0.0275484 235.945 0.0325902 236.91 0.184244C237.873 0.338513 238.839 0.568608 239.805 0.877146C240.768 1.18307 241.617 1.57528 242.349 2.05639C243.083 2.53227 243.47 3.06044 243.509 3.63568C243.549 3.98082 243.528 4.44102 243.449 5.01626C243.372 5.58888 243.249 6.16673 243.075 6.74459C242.899 7.3146 242.67 7.82709 242.38 8.26636C242.091 8.70825 241.752 8.94619 241.365 8.98541C240.365 9.06123 239.36 9.05078 238.357 8.95403C237.352 8.86252 236.35 8.85206 235.345 8.9305C235.153 8.9305 234.758 8.96449 234.161 9.04293C233.563 9.11614 233.166 9.15798 232.974 9.15798C232.858 9.23642 232.674 9.32271 232.424 9.41684C232.172 9.51097 231.922 9.63909 231.672 9.79336C231.419 9.94501 231.209 10.0993 231.035 10.2509C230.861 10.4052 230.774 10.5595 230.774 10.7111L231.061 14.1652C231.061 14.3534 231.187 14.5365 231.44 14.7117C231.69 14.8816 231.961 15.0516 232.25 15.2268C232.54 15.3993 232.837 15.5536 233.145 15.6869C233.456 15.8203 233.669 15.9092 233.784 15.9458C235.326 16.6753 236.737 17.3656 238.01 18.0167C239.281 18.6677 240.381 19.4338 241.31 20.3176C242.233 21.2014 242.978 22.2421 243.538 23.4527C244.099 24.6607 244.454 26.1641 244.609 27.9683C244.762 29.5424 244.656 31.0929 244.291 32.6278C243.922 34.1626 243.325 35.5301 242.496 36.7407C241.667 37.9461 240.615 38.9554 239.341 39.7581C238.068 40.5661 236.621 41.0445 234.997 41.1988C233.648 41.3531 232.258 41.3688 230.832 41.2537C229.404 41.1387 228.101 40.8511 226.925 40.3909C225.746 39.9307 224.754 39.2508 223.941 38.3488C223.134 37.4493 222.67 36.2701 222.555 34.8137Z" fill="#2BB673"/>
<path d="M250.743 34.2388C250.707 34.0845 250.678 33.8754 250.659 33.606C250.638 33.3393 250.62 33.07 250.601 32.7981C250.58 32.5314 250.562 32.2934 250.544 32.0817C250.522 31.8699 250.512 31.726 250.512 31.6502C250.475 30.9233 250.436 29.969 250.396 28.8028C250.359 27.634 250.32 26.4704 250.28 25.3226C250.244 24.1747 250.204 23.1576 250.167 22.2738C250.128 21.39 250.109 20.8932 250.109 20.7782C250.109 19.6277 250.138 18.3726 250.194 17.0078C250.254 15.6507 250.38 14.2701 250.572 12.866C250.765 11.4672 251.083 10.1075 251.528 8.78444C251.97 7.46139 252.559 6.28215 253.293 5.24672C254.025 4.21129 254.961 3.36935 256.098 2.71567C257.237 2.0646 258.616 1.68023 260.239 1.56519H261.397C262.476 1.71945 263.518 1.96001 264.523 2.28685C265.525 2.61108 266.433 3.05296 267.243 3.60729C268.051 4.16422 268.756 4.82313 269.354 5.58925C269.954 6.36059 270.406 7.28098 270.717 8.35301C270.753 8.50467 270.801 8.87857 270.861 9.47734C270.917 10.0683 270.948 10.4631 270.948 10.654C270.948 10.9625 270.956 11.4122 270.977 12.0032C270.995 12.6019 271.003 12.9366 271.003 13.0125C271.003 13.3968 271.014 14.2309 271.035 15.5147C271.053 16.7986 271.082 18.2001 271.119 19.7166C271.159 21.2305 271.188 22.7052 271.209 24.1433C271.227 25.5814 271.235 26.6456 271.235 27.3359C271.235 28.2955 271.245 29.3989 271.266 30.6462C271.285 31.8934 271.245 33.1877 271.151 34.5264C271.053 35.8704 270.88 37.1934 270.63 38.4982C270.377 39.8029 269.964 40.9717 269.385 42.0072C268.806 43.0426 268.051 43.9002 267.128 44.567C266.199 45.2363 265.023 45.6076 263.597 45.6887C262.36 45.7619 261.194 45.6887 260.095 45.456C258.995 45.2259 257.863 44.92 256.708 44.5356C255.548 44.1904 254.603 43.6544 253.872 42.9275C253.138 42.198 252.548 41.3535 252.106 40.3939C251.662 39.4395 251.333 38.4197 251.122 37.3451C250.909 36.2704 250.783 35.235 250.743 34.2388ZM258.445 33.8361C258.521 34.6441 258.763 35.3605 259.166 35.9933C259.574 36.6234 260.239 36.9058 261.165 36.8274C261.784 36.7855 262.244 36.6077 262.555 36.2809C262.863 35.9541 263.084 35.5514 263.218 35.0703C263.355 34.5892 263.434 34.0845 263.449 33.5485C263.47 33.0125 263.499 32.5131 263.539 32.0529V31.5613C263.539 31.3103 263.547 31.0462 263.565 30.7534C263.586 30.4684 263.597 30.1964 263.597 29.9507V29.5166C263.712 27.5608 263.768 25.7671 263.768 24.1381C263.768 22.5091 263.712 20.7154 263.597 18.7596C263.597 18.5295 263.576 18.1556 263.539 17.6379C263.499 17.1202 263.46 16.5633 263.423 15.9697C263.384 15.3736 263.344 14.8192 263.307 14.3015C263.268 13.7838 263.249 13.4073 263.249 13.1798C263.17 12.9497 263.026 12.6333 262.815 12.228C262.602 11.828 262.371 11.4436 262.118 11.0802C261.868 10.7167 261.579 10.4003 261.25 10.131C260.923 9.86432 260.605 9.72836 260.297 9.72836C259.91 9.76758 259.574 9.95061 259.282 10.2748C258.995 10.5991 258.763 10.9939 258.59 11.4515C258.413 11.9143 258.279 12.3849 258.182 12.8608C258.087 13.3419 258.019 13.7341 257.979 14.0427C257.942 14.1185 257.903 14.312 257.863 14.6179C257.827 14.9264 257.779 15.269 257.721 15.6533C257.663 16.0377 257.606 16.4011 257.548 16.7463C257.49 17.0914 257.461 17.3032 257.461 17.379V18.1844V19.7349C257.461 20.3128 257.45 20.8802 257.429 21.4345C257.411 21.9914 257.403 22.4229 257.403 22.7288V23.189C257.403 23.2648 257.411 23.3223 257.429 23.3615C257.45 23.4008 257.461 23.4583 257.461 23.5341V23.7642C257.5 24.1486 257.566 24.8206 257.663 25.7775C257.758 26.7372 257.863 27.7438 257.979 28.7976C258.098 29.8513 258.192 30.858 258.271 31.8176C258.348 32.7824 258.405 33.4518 258.445 33.8361Z" fill="#2BB673"/>
<path d="M279.687 44.0751C279.647 43.7692 279.626 43.5182 279.626 43.3299C279.626 43.1365 279.666 42.8854 279.742 42.5795L279.687 30.557C279.26 27.6416 279.029 24.6791 278.992 21.6696C278.95 18.6574 278.874 15.7158 278.758 12.8396C278.642 11.4983 278.537 10.1543 278.442 8.81034C278.345 7.4716 278.316 6.12763 278.355 4.78628C278.355 4.55357 278.324 4.33393 278.268 4.12214C278.208 3.91296 278.239 3.69332 278.355 3.46323C278.587 3.11808 278.924 2.84877 279.368 2.65789C279.81 2.46702 280.292 2.32059 280.813 2.22646C281.336 2.13233 281.847 2.07219 282.347 2.05389C282.849 2.03559 283.275 2.00421 283.623 1.9676C284.546 1.89178 285.415 1.9676 286.228 2.1977C287.038 2.4278 287.791 2.76509 288.482 3.20437C289.177 3.64364 289.814 4.17443 290.395 4.78628C290.974 5.40074 291.474 6.05181 291.898 6.74209C292.053 7.05063 292.179 7.401 292.277 7.80629C292.371 8.20895 292.498 8.54625 292.65 8.81034L293.058 12.6095C293.019 12.688 292.979 12.8972 292.942 13.2423C292.903 13.5874 292.882 13.8149 292.882 13.9326C292.805 14.547 292.65 15.1694 292.421 15.8021C292.19 16.4349 292.111 17.0389 292.19 17.6141C292.227 18.1109 292.469 18.5633 292.913 18.9633C293.355 19.3686 293.732 19.7399 294.042 20.0877C294.158 20.2027 294.368 20.4328 294.679 20.7779C294.987 21.1231 295.197 21.3532 295.313 21.4656C295.276 21.5833 295.363 21.8134 295.576 22.1585C295.787 22.5037 296.039 22.8959 296.329 23.3351C296.615 23.7796 296.868 24.2189 297.081 24.6608C297.292 25.1027 297.378 25.4374 297.342 25.6701C297.378 25.7825 297.465 25.9969 297.599 26.3002C297.736 26.6062 297.87 26.9304 298.007 27.2781C298.139 27.6259 298.255 27.9397 298.352 28.2273C298.449 28.5123 298.518 28.7189 298.557 28.8287C298.557 28.8679 298.573 29.1058 298.615 29.5477C298.652 29.987 298.71 30.3243 298.786 30.5544C298.981 32.2801 298.931 33.9405 298.644 35.5276C298.352 37.12 297.939 38.7228 297.397 40.3335C297.436 40.4093 297.436 40.5008 297.397 40.6185C297.357 40.7361 297.321 40.8277 297.281 40.9061C296.897 41.633 296.463 42.3154 295.981 42.9456C295.497 43.5783 294.813 44.0307 293.926 44.3C293.771 44.3 293.529 44.3209 293.2 44.3549C292.871 44.3968 292.516 44.4412 292.129 44.5013C291.745 44.5589 291.387 44.6059 291.061 44.6478C290.732 44.6844 290.49 44.7027 290.337 44.7027C290.106 44.7027 289.795 44.721 289.411 44.7576C289.024 44.7968 288.638 44.8334 288.254 44.8753C287.867 44.9119 287.527 44.9406 287.241 44.9615C286.949 44.9772 286.785 44.9877 286.746 44.9877C286.709 44.9877 286.612 44.9981 286.459 45.0191C286.301 45.0374 286.13 45.0478 285.938 45.0478C285.743 45.0478 285.551 45.0374 285.359 45.0191C285.165 44.9981 285.03 44.9877 284.954 44.9877C284.452 44.9877 283.92 44.9615 283.36 44.9014C282.802 44.8465 282.252 44.8177 281.71 44.8177C281.131 44.8569 280.671 44.8936 280.323 44.9328C279.973 44.972 279.76 44.687 279.687 44.0751ZM284.954 14.9079C284.991 15.0255 285.078 15.104 285.212 15.138C285.349 15.1798 285.454 15.1981 285.53 15.1981C285.725 15.1589 285.841 15.0622 285.878 14.9079C286.228 14.2202 286.438 13.5665 286.514 12.9521C286.593 12.3402 286.593 11.6499 286.514 10.8838C286.478 10.6903 286.428 10.4707 286.372 10.2197C286.312 9.97128 286.217 9.74118 286.08 9.53201C285.946 9.32283 285.783 9.14764 285.591 9.01429C285.396 8.87832 285.165 8.83126 284.894 8.87048C284.857 8.87048 284.788 8.88878 284.694 8.928C284.596 8.96461 284.528 8.98553 284.491 8.98553L284.315 9.33067L284.954 14.9079ZM285.241 38.3803C285.278 38.762 285.538 39.034 286.022 39.1882C286.501 39.3425 286.899 39.3974 287.209 39.3556C288.251 39.2431 289.08 38.9738 289.695 38.5528C290.314 38.1293 290.758 37.6142 291.027 36.9997C291.298 36.3852 291.45 35.6923 291.493 34.9262C291.529 34.1601 291.493 33.394 291.377 32.6253C291.219 31.1662 290.874 29.702 290.335 28.2247C289.793 26.75 288.848 25.5498 287.496 24.6294C287.227 24.4778 286.985 24.3497 286.775 24.2555C286.562 24.1588 286.299 24.13 285.991 24.1692C285.759 24.1692 285.588 24.266 285.472 24.4569C285.357 24.6503 285.278 24.87 285.241 25.121C285.199 25.3668 285.183 25.6256 285.183 25.8976V26.5277V31.3022C285.22 31.378 285.259 31.6003 285.296 31.9637C285.336 32.3272 285.357 32.552 285.357 32.6253C285.394 33.6241 285.365 34.5811 285.27 35.5041C285.175 36.4245 285.162 37.3841 285.241 38.3803Z" fill="#2BB673"/>
<path d="M321.823 45.3956C321.092 44.3601 320.513 43.4502 320.089 42.6632C319.663 41.8762 319.182 41.0238 318.64 40.1034C318.563 39.9857 318.429 39.8262 318.237 39.6118C318.042 39.4026 317.858 39.1804 317.687 38.9503C317.514 38.7202 317.369 38.4979 317.253 38.2888C317.137 38.0796 317.116 37.8756 317.195 37.6874C316.732 37.0337 316.277 36.3643 315.835 35.6714C315.39 34.9785 314.956 34.3091 314.532 33.6555H314.417C314.377 33.6555 314.34 33.6398 314.301 33.6006C313.954 33.5247 313.817 33.6764 313.896 34.0607C313.933 34.4425 313.972 35.1328 314.011 36.1342C314.048 37.1304 314.098 38.192 314.154 39.3268C314.214 40.4564 314.272 41.531 314.33 42.5455C314.388 43.56 314.435 44.2608 314.472 44.6478L314.532 44.8177C314.456 44.9328 314.34 45.0766 314.185 45.2492C314.03 45.4217 313.933 45.4897 313.896 45.4479L307.989 45.8505C307.644 45.8898 307.352 45.7433 307.12 45.4217C306.892 45.0949 306.755 44.7968 306.718 44.5275C306.718 44.4883 306.726 44.4621 306.747 44.4412C306.765 44.4203 306.776 44.3758 306.776 44.2974V44.1248C306.776 44.0882 306.794 43.981 306.834 43.8084C306.87 43.6385 306.91 43.4555 306.949 43.262C306.986 43.0737 307.026 42.8985 307.065 42.7469C307.105 42.5952 307.12 42.4958 307.12 42.4619C307.12 42.3442 307.094 42.0853 307.036 41.6827C306.978 41.2826 306.928 40.859 306.892 40.4198C306.852 39.9753 306.813 39.5674 306.776 39.1804C306.736 38.7986 306.718 38.5502 306.718 38.4326V37.0232C306.718 36.278 306.707 35.4805 306.686 34.6386C306.671 33.794 306.649 32.9992 306.631 32.2487C306.61 31.5035 306.602 31.0329 306.602 30.8394C306.602 30.6511 306.581 30.3034 306.544 29.804C306.505 29.3072 306.465 28.7685 306.428 28.1933C306.389 27.6181 306.35 27.082 306.313 26.5852C306.273 26.0858 306.252 25.7433 306.252 25.5498C306.292 25.474 306.313 25.2988 306.313 25.0347V24.5118C306.428 21.178 306.447 17.8782 306.368 14.6203C306.292 11.3623 306.197 8.08083 306.081 4.78367C306.081 4.66862 306.071 4.45682 306.052 4.1509C306.031 3.84498 306.005 3.51814 305.965 3.17038C305.926 2.82785 305.897 2.49055 305.879 2.16371C305.858 1.83949 305.85 1.61723 305.85 1.50742C305.926 1.2747 306.031 1.13874 306.168 1.10213C306.302 1.06553 306.447 1.04461 306.602 1.04461C308.144 0.929561 309.649 0.861578 311.117 0.843275C312.583 0.824972 313.961 0.976626 315.253 1.30085C316.545 1.62769 317.716 2.17417 318.755 2.94028C319.8 3.70901 320.668 4.80197 321.363 6.21915C321.863 7.22059 322.365 8.18542 322.868 9.12672C323.368 10.0654 323.66 11.093 323.736 12.2043C323.889 14.5026 323.494 16.6441 322.55 18.6182C321.602 20.5923 320.263 22.386 318.524 23.9967C318.371 24.1875 318.295 24.3993 318.295 24.6294C318.371 24.972 318.516 25.2988 318.729 25.6047C318.942 25.9106 319.008 26.2375 318.932 26.5852L321.305 31.3022V31.4722L323.676 35.2714C323.676 35.308 323.841 35.6243 324.17 36.2179C324.497 36.814 324.873 37.4808 325.299 38.2338C325.723 38.979 326.107 39.7295 326.457 40.4747C326.804 41.2225 326.996 41.7873 327.036 42.169C327.073 42.5168 326.949 42.8985 326.657 43.3221C326.37 43.7405 326.012 44.1248 325.589 44.47C325.162 44.8151 324.72 45.1106 324.257 45.3616C323.791 45.61 323.389 45.7381 323.039 45.7381C322.502 45.8192 322.094 45.7041 321.823 45.3956ZM312.101 18.0168C312.256 18.2077 312.378 18.3515 312.478 18.4482C312.572 18.545 312.738 18.6129 312.97 18.6469C313.74 18.5711 314.367 18.2939 314.851 17.8155C315.332 17.3343 315.698 16.7774 315.951 16.1446C316.201 15.5145 316.364 14.853 316.44 14.1627C316.519 13.4724 316.556 12.8762 316.556 12.3794C316.519 11.9951 316.424 11.527 316.269 10.9701C316.114 10.4158 315.901 9.88761 315.632 9.3882C315.361 8.88878 315.022 8.47827 314.619 8.15143C314.214 7.82721 313.719 7.6834 313.143 7.72C312.756 7.75922 312.456 7.9684 312.246 8.35277C312.033 8.73452 311.888 9.1764 311.812 9.67582C311.733 10.1752 311.696 10.6616 311.696 11.1401V12.1493C311.696 12.1886 311.707 12.3193 311.722 12.5494C311.743 12.7795 311.762 13.0514 311.783 13.3573C311.801 13.6633 311.822 13.9797 311.838 14.3065C311.859 14.6333 311.888 14.8922 311.928 15.0831C311.928 15.1981 311.935 15.389 311.954 15.6583C311.975 15.925 311.993 16.2231 312.014 16.5473C312.033 16.8742 312.051 17.1722 312.07 17.4415C312.093 17.7109 312.101 17.9017 312.101 18.0168Z" fill="#2BB673"/>
<path d="M332.999 43.9602C332.843 43.8452 332.688 43.7223 332.536 43.5837C332.38 43.4503 332.304 43.2882 332.304 43.0947C332.109 41.254 332.12 39.3949 332.333 37.5149C332.543 35.6349 332.651 33.7758 332.651 31.9325C332.651 29.6341 332.583 27.3253 332.449 25.0034C332.312 22.6842 332.17 20.3649 332.015 18.043C331.859 15.7238 331.736 13.4097 331.636 11.1114C331.541 8.81044 331.53 6.5304 331.609 4.26343C331.609 4.03334 331.675 3.78755 331.812 3.51824C331.949 3.25154 332.149 3.09465 332.42 3.05805C332.807 3.01883 333.259 3.03974 333.78 3.11557C334.301 3.1914 334.735 3.21231 335.082 3.17048C335.238 3.17048 335.524 3.16263 335.951 3.14695C336.374 3.12603 336.827 3.10511 337.311 3.08681C337.793 3.0685 338.245 3.04759 338.671 3.02928C339.095 3.01098 339.384 3.00052 339.54 3.00052C339.576 3.00052 339.734 2.98222 340.003 2.94038C340.274 2.90639 340.561 2.86456 340.871 2.83057C341.179 2.78873 341.458 2.75212 341.71 2.7129C341.96 2.6763 342.126 2.65538 342.202 2.65538C342.434 2.65538 342.81 2.63446 343.331 2.60047C343.852 2.55863 344.373 2.55863 344.894 2.60047C345.415 2.63446 345.886 2.7129 346.312 2.83057C346.736 2.94038 346.97 3.17048 347.007 3.51824L347.412 8.35025C347.449 8.65617 347.315 8.91765 347.007 9.12682C346.696 9.33862 346.41 9.46412 346.139 9.49812C345.365 9.57917 344.594 9.55041 343.823 9.41445C343.05 9.27848 342.26 9.25233 341.45 9.32816C341.258 9.32816 341.005 9.33862 340.697 9.35692C340.389 9.37522 340.071 9.42229 339.742 9.49812C339.413 9.57917 339.134 9.69422 338.903 9.84588C338.671 10.0001 338.556 10.2302 338.556 10.5362C338.671 12.071 338.671 13.6608 338.556 15.3107C338.44 16.9605 338.458 18.5686 338.613 20.1427C338.613 20.3362 338.632 20.5846 338.671 20.8905C338.708 21.199 338.824 21.4474 339.019 21.6383C339.174 21.7533 339.413 21.8396 339.742 21.8971C340.071 21.9547 340.405 21.9834 340.755 21.9834C341.103 21.9834 341.429 21.9756 341.739 21.9547C342.047 21.9338 342.279 21.9233 342.434 21.9233C342.589 21.9233 342.876 21.9076 343.302 21.8684C343.726 21.8318 344.17 21.7821 344.634 21.7246C345.097 21.6697 345.541 21.6174 345.965 21.5808C346.389 21.5415 346.678 21.5232 346.833 21.5232C346.949 21.5232 347.044 21.5912 347.123 21.7246C347.199 21.8579 347.238 21.9651 347.238 22.041L347.641 25.78C347.68 26.1278 347.594 26.4703 347.383 26.8154C347.17 27.158 346.909 27.3515 346.602 27.3907C345.752 27.5057 344.902 27.4953 344.055 27.3619C343.205 27.2286 342.337 27.1972 341.45 27.2756C340.908 27.3515 340.524 27.4953 340.29 27.7071C340.061 27.9189 339.905 28.1777 339.829 28.4836C339.75 28.7922 339.713 29.1347 339.713 29.5191V30.7297C339.713 30.8421 339.692 31.1219 339.655 31.5612C339.616 32.0057 339.569 32.4711 339.511 32.9705C339.453 33.4699 339.405 33.9301 339.366 34.3485C339.327 34.7721 339.29 35.0414 339.25 35.1564C339.327 35.1983 339.345 35.3107 339.305 35.5042C339.269 35.6924 339.29 35.8467 339.366 35.9644C339.366 36.1945 339.405 36.4742 339.482 36.7959C339.558 37.1227 339.771 37.2874 340.118 37.2874H341.479H343.505H345.531H346.833C347.449 37.2874 348.009 37.3423 348.512 37.46C349.012 37.5724 349.362 37.996 349.554 38.7229C349.554 38.7961 349.583 38.9818 349.641 39.2694C349.699 39.557 349.756 39.8838 349.814 40.2473C349.872 40.616 349.93 40.9768 349.988 41.3402C350.046 41.7089 350.093 41.9835 350.133 42.1717V42.5195C350.209 43.0555 350.075 43.3614 349.725 43.4399C349.38 43.5157 348.993 43.5941 348.57 43.67C346.949 43.8635 345.328 43.9105 343.707 43.8138C342.087 43.7223 340.466 43.6517 338.845 43.6151C338.729 43.5785 338.44 43.5837 337.977 43.6438C337.514 43.7013 337.243 43.7301 337.166 43.7301C337.011 43.7301 336.732 43.738 336.327 43.7589C335.922 43.7798 335.496 43.8059 335.054 43.8452C334.609 43.887 334.193 43.9105 333.809 43.9314C333.422 43.9524 333.154 43.9602 332.999 43.9602Z" fill="#2BB673"/>
<path d="M383.008 40.7385C382.734 38.5892 382.661 36.385 382.776 34.1206C382.892 31.8589 382.911 29.6364 382.834 27.4505C382.755 25.377 382.64 23.3558 382.487 21.3791C382.332 19.4076 382.274 17.3811 382.311 15.3103C382.311 13.0878 382.321 11.0169 382.342 9.09768C382.361 7.18109 382.216 5.14945 381.908 3.00014C381.985 2.3883 382.303 1.91765 382.861 1.5908C383.421 1.26658 383.971 1.06524 384.51 0.986802C385.131 0.910975 385.813 0.910975 386.568 0.986802C387.321 1.06524 387.944 1.35286 388.447 1.84966C388.447 1.92549 388.46 2.07976 388.481 2.30985C388.497 2.54256 388.507 2.69422 388.507 2.77005C388.662 4.11402 388.644 5.57303 388.449 7.14187C388.257 8.71593 388.199 10.154 388.278 11.4562C388.278 11.6104 388.31 12.1961 388.365 13.2133C388.423 14.2278 388.489 15.3887 388.565 16.6909C388.644 17.9982 388.72 19.3108 388.802 20.6339C388.876 21.9543 388.936 23.0028 388.973 23.7689C389.089 25.6071 389.154 27.4008 389.175 29.1474C389.194 30.894 389.302 32.6668 389.494 34.4684C389.607 35.1979 389.925 35.6162 390.449 35.7339C390.965 35.8463 391.538 35.8986 392.154 35.8777C392.77 35.8568 393.341 35.8673 393.859 35.9039C394.377 35.9457 394.682 36.2725 394.759 36.8844C394.759 38.1133 394.727 39.1017 394.672 39.8469C394.617 40.5921 394.527 41.2771 394.409 41.889C394.296 42.5008 394.101 42.8094 393.827 42.8094C393.791 42.8512 393.725 42.8643 393.627 42.8643H393.427C391.957 42.7911 390.452 42.7205 388.91 42.6655C387.368 42.6106 385.821 42.5008 384.276 42.3492C383.776 42.3126 383.458 42.1688 383.324 41.9177C383.187 41.6693 383.082 41.2745 383.008 40.7385Z" fill="#2BB673"/>
<path d="M402.395 34.2388C402.358 34.0845 402.329 33.8754 402.313 33.606C402.292 33.3393 402.271 33.07 402.255 32.7981C402.234 32.5314 402.216 32.2934 402.197 32.0817C402.179 31.8699 402.166 31.726 402.166 31.6502C402.129 30.9233 402.089 29.969 402.05 28.8028C402.013 27.634 401.976 26.4704 401.934 25.3226C401.897 24.1747 401.858 23.1576 401.821 22.2738C401.779 21.39 401.766 20.8932 401.766 20.7782C401.766 19.6277 401.795 18.3726 401.847 17.0078C401.908 15.6507 402.034 14.2701 402.229 12.866C402.418 11.4672 402.737 10.1075 403.184 8.78444C403.626 7.46139 404.215 6.28215 404.947 5.24672C405.678 4.21129 406.617 3.36935 407.751 2.71567C408.893 2.0646 410.27 1.68023 411.893 1.56519H413.048C414.127 1.71945 415.171 1.96001 416.174 2.28685C417.176 2.61108 418.084 3.05296 418.894 3.60729C419.702 4.16422 420.405 4.82313 421.005 5.58925C421.604 6.36059 422.054 7.28098 422.37 8.35301C422.407 8.50467 422.452 8.87857 422.515 9.47734C422.57 10.0683 422.602 10.4631 422.602 10.654C422.602 10.9625 422.607 11.4122 422.631 12.0032C422.649 12.6019 422.657 12.9366 422.657 13.0125C422.657 13.3968 422.667 14.2309 422.691 15.5147C422.707 16.7986 422.738 18.2001 422.773 19.7166C422.815 21.2305 422.841 22.7052 422.862 24.1433C422.881 25.5814 422.888 26.6456 422.888 27.3359C422.888 28.2955 422.902 29.3989 422.923 30.6462C422.938 31.8934 422.902 33.1877 422.804 34.5264C422.707 35.8704 422.533 37.1934 422.286 38.4982C422.033 39.8029 421.618 40.9717 421.041 42.0072C420.46 43.0426 419.705 43.9002 418.781 44.567C417.858 45.2337 416.679 45.6076 415.25 45.6887C414.016 45.7619 412.851 45.6887 411.751 45.456C410.651 45.2259 409.517 44.92 408.365 44.5356C407.204 44.1904 406.257 43.6544 405.528 42.9275C404.794 42.198 404.202 41.3535 403.76 40.3939C403.318 39.4395 402.989 38.4197 402.779 37.3451C402.563 36.2704 402.437 35.235 402.395 34.2388ZM410.098 33.8361C410.172 34.6441 410.417 35.3605 410.817 35.9933C411.225 36.6234 411.89 36.9058 412.816 36.8274C413.435 36.7855 413.895 36.6077 414.206 36.2809C414.514 35.9541 414.735 35.5514 414.869 35.0703C415.006 34.5892 415.084 34.0845 415.1 33.5485C415.124 33.0125 415.15 32.5131 415.19 32.0529V31.5613C415.19 31.3103 415.198 31.0462 415.216 30.7534C415.237 30.4684 415.248 30.1964 415.248 29.9507V29.5166C415.366 27.5608 415.419 25.7671 415.419 24.1381C415.419 22.5091 415.363 20.7154 415.248 18.7596C415.248 18.5295 415.227 18.1556 415.192 17.6379C415.15 17.1202 415.116 16.5633 415.077 15.9697C415.037 15.3736 414.998 14.8192 414.961 14.3015C414.919 13.7838 414.906 13.4073 414.906 13.1798C414.824 12.9497 414.679 12.6333 414.469 12.228C414.258 11.828 414.027 11.4436 413.772 11.0802C413.522 10.7167 413.232 10.4003 412.903 10.131C412.577 9.86432 412.259 9.72836 411.951 9.72836C411.567 9.76758 411.23 9.95061 410.935 10.2748C410.651 10.5991 410.419 10.9939 410.243 11.4515C410.07 11.9143 409.933 12.3849 409.835 12.8608C409.741 13.3419 409.672 13.7341 409.633 14.0427C409.596 14.1185 409.556 14.312 409.517 14.6179C409.48 14.9264 409.433 15.269 409.375 15.6533C409.317 16.0377 409.259 16.4011 409.201 16.7463C409.146 17.0914 409.114 17.3032 409.114 17.379V18.1844V19.7349C409.114 20.3128 409.104 20.8802 409.083 21.4345C409.064 21.9914 409.057 22.4229 409.057 22.7288V23.189C409.057 23.2648 409.064 23.3223 409.083 23.3615C409.104 23.4008 409.114 23.4583 409.114 23.5341V23.7642C409.157 24.1486 409.222 24.8206 409.32 25.7775C409.412 26.7372 409.517 27.7438 409.633 28.7976C409.751 29.8513 409.846 30.858 409.925 31.8176C410.001 32.7824 410.056 33.4518 410.098 33.8361Z" fill="#2BB673"/>
<path d="M428.041 34.8137C428.315 34.0868 428.801 33.6161 429.52 33.4043C430.233 33.1925 431.083 33.135 432.064 33.2344C433.048 33.3311 434.148 33.5089 435.366 33.7808C436.584 34.0475 437.845 34.2959 439.158 34.526C439.697 34.4894 440.168 34.3535 440.576 34.1234C440.981 33.8933 441.357 33.5978 441.702 33.2344C442.052 32.8683 442.381 32.4578 442.686 31.995C442.997 31.5348 443.325 31.072 443.67 30.6144C443.712 30.5778 443.749 30.4915 443.786 30.3556C443.825 30.2196 443.844 30.1359 443.844 30.0967L443.612 26.7002C443.539 26.6636 443.294 26.4701 442.891 26.1275C442.489 25.7798 442.17 25.5105 441.936 25.3196C441.857 25.2438 441.713 25.1366 441.502 25.0032C441.292 24.8699 441.144 24.8045 441.071 24.8045C439.718 24.2293 438.455 23.7691 437.279 23.4239C436.103 23.0814 435.003 22.6656 433.98 22.1872C432.956 21.706 432.03 21.0576 431.198 20.2313C430.367 19.4077 429.643 18.2285 429.03 16.691C429.03 16.5786 429.02 16.406 428.996 16.1759C428.978 15.9458 428.949 15.7053 428.912 15.4569C428.872 15.2085 428.846 14.9757 428.825 14.7666C428.804 14.5574 428.799 14.4136 428.799 14.3351C428.757 13.7991 428.712 13.2239 428.649 12.6094C428.594 11.995 428.659 11.4223 428.854 10.8863C428.891 10.732 428.97 10.4523 429.086 10.047C429.199 9.64693 429.338 9.23642 429.491 8.81284C429.643 8.39186 429.788 7.9892 429.922 7.60483C430.059 7.22308 430.143 6.95377 430.183 6.7995V6.51188C430.414 6.16674 430.627 5.89742 430.822 5.70654C431.012 5.51567 431.198 5.31433 431.372 5.10516C431.546 4.89336 431.69 4.72864 431.806 4.61359C433.077 3.19379 434.343 2.12176 435.595 1.39225C436.853 0.662739 438.387 0.205162 440.2 0.0116725C440.7 -0.0275484 441.434 0.0325902 442.399 0.184244C443.36 0.338513 444.325 0.568608 445.294 0.877146C446.254 1.18307 447.106 1.57528 447.838 2.05639C448.572 2.53227 448.959 3.06044 448.998 3.63568C449.038 3.98082 449.017 4.44102 448.938 5.01626C448.861 5.58888 448.738 6.16673 448.561 6.74459C448.388 7.3146 448.159 7.82709 447.867 8.26636C447.58 8.70825 447.241 8.94619 446.851 8.98541C445.851 9.06123 444.846 9.05078 443.841 8.95403C442.839 8.86252 441.836 8.85206 440.828 8.9305C440.639 8.9305 440.242 8.96449 439.647 9.04293C439.047 9.11876 438.65 9.15798 438.46 9.15798C438.342 9.23642 438.16 9.32271 437.91 9.41684C437.655 9.51097 437.408 9.63909 437.155 9.79336C436.903 9.94501 436.692 10.0993 436.521 10.2509C436.35 10.4052 436.261 10.5595 436.261 10.7111L436.545 14.1652C436.545 14.3534 436.671 14.5365 436.924 14.7117C437.176 14.8816 437.447 15.0516 437.737 15.2268C438.024 15.3993 438.324 15.5536 438.631 15.6869C438.942 15.8203 439.155 15.9092 439.271 15.9458C440.813 16.6753 442.223 17.3656 443.496 18.0167C444.765 18.6677 445.864 19.4338 446.796 20.3176C447.719 21.2014 448.464 22.2421 449.024 23.4527C449.585 24.6607 449.943 26.1641 450.095 27.9683C450.248 29.5424 450.143 31.0929 449.777 32.6278C449.406 34.1626 448.811 35.5301 447.983 36.7407C447.154 37.9461 446.101 38.9554 444.828 39.7581C443.554 40.5661 442.107 41.0445 440.484 41.1988C439.134 41.3531 437.745 41.3688 436.319 41.2537C434.89 41.1387 433.587 40.8511 432.414 40.3909C431.233 39.9307 430.241 39.2508 429.428 38.3488C428.623 37.4493 428.159 36.2701 428.041 34.8137Z" fill="#2BB673"/>
<path d="M478.516 34.8137C478.789 34.0868 479.276 33.6161 479.994 33.4043C480.707 33.1925 481.557 33.135 482.539 33.2344C483.523 33.3311 484.622 33.5089 485.841 33.7808C487.059 34.0475 488.319 34.2959 489.632 34.526C490.172 34.4894 490.643 34.3535 491.05 34.1234C491.456 33.8933 491.832 33.5978 492.177 33.2344C492.526 32.8683 492.855 32.4578 493.161 31.995C493.471 31.5348 493.8 31.072 494.145 30.6144C494.187 30.5778 494.221 30.4915 494.26 30.3556C494.3 30.2196 494.318 30.1359 494.318 30.0967L494.087 26.7002C494.013 26.6636 493.768 26.4701 493.366 26.1275C492.963 25.7798 492.645 25.5105 492.411 25.3196C492.332 25.2438 492.187 25.1366 491.977 25.0032C491.766 24.8699 491.616 24.8045 491.542 24.8045C490.19 24.2293 488.927 23.7691 487.751 23.4239C486.575 23.0814 485.475 22.6656 484.451 22.1872C483.428 21.706 482.502 21.0576 481.67 20.2313C480.839 19.4077 480.115 18.2285 479.502 16.691C479.502 16.5786 479.492 16.406 479.468 16.1759C479.45 15.9458 479.421 15.7053 479.384 15.4569C479.344 15.2085 479.318 14.9757 479.297 14.7666C479.276 14.5574 479.271 14.4136 479.271 14.3351C479.229 13.7991 479.184 13.2239 479.121 12.6094C479.066 11.995 479.131 11.4223 479.326 10.8863C479.363 10.732 479.442 10.4523 479.558 10.047C479.671 9.64693 479.81 9.23642 479.963 8.81284C480.115 8.39186 480.26 7.9892 480.394 7.60483C480.531 7.22308 480.615 6.95377 480.655 6.7995V6.51188C480.886 6.16674 481.099 5.89742 481.294 5.70654C481.484 5.51567 481.67 5.31433 481.844 5.10516C482.018 4.89336 482.162 4.72864 482.278 4.61359C483.549 3.19379 484.815 2.12176 486.067 1.39225C487.325 0.662739 488.859 0.205162 490.671 0.0116725C491.171 -0.0275484 491.905 0.0325902 492.871 0.184244C493.831 0.338513 494.797 0.568608 495.765 0.877146C496.726 1.18307 497.578 1.57528 498.31 2.05639C499.044 2.53227 499.431 3.06044 499.47 3.63568C499.51 3.98082 499.488 4.44102 499.41 5.01626C499.333 5.58888 499.21 6.16673 499.033 6.74459C498.86 7.3146 498.631 7.82709 498.339 8.26636C498.052 8.70825 497.712 8.94619 497.323 8.98541C496.323 9.06123 495.318 9.05078 494.313 8.95403C493.311 8.86252 492.308 8.85206 491.3 8.9305C491.111 8.9305 490.714 8.96449 490.119 9.04293C489.519 9.11876 489.122 9.15798 488.932 9.15798C488.814 9.23642 488.632 9.32271 488.382 9.41684C488.127 9.51097 487.88 9.63909 487.627 9.79336C487.375 9.94501 487.164 10.0993 486.993 10.2509C486.822 10.4052 486.733 10.5595 486.733 10.7111L487.017 14.1652C487.017 14.3534 487.143 14.5365 487.396 14.7117C487.648 14.8816 487.919 15.0516 488.209 15.2268C488.496 15.3993 488.796 15.5536 489.103 15.6869C489.414 15.8203 489.627 15.9092 489.743 15.9458C491.285 16.6753 492.695 17.3656 493.968 18.0167C495.237 18.6677 496.336 19.4338 497.268 20.3176C498.191 21.2014 498.936 22.2421 499.496 23.4527C500.057 24.6607 500.415 26.1641 500.567 27.9683C500.72 29.5424 500.615 31.0929 500.249 32.6278C499.878 34.1626 499.283 35.5301 498.454 36.7407C497.626 37.9461 496.573 38.9554 495.3 39.7581C494.026 40.5661 492.579 41.0445 490.956 41.1988C489.606 41.3531 488.217 41.3688 486.791 41.2537C485.362 41.1387 484.059 40.8511 482.886 40.3909C481.705 39.9307 480.713 39.2508 479.9 38.3488C479.097 37.4493 478.634 36.2701 478.516 34.8137Z" fill="#2BB673"/>
<path d="M522.507 43.615C522.315 43.5392 522.12 43.4163 521.928 43.2411C521.733 43.0685 521.62 42.8829 521.578 42.6946L520.194 30.4995C520.194 30.3452 520.125 30.2093 519.989 30.0968C519.854 29.9792 519.728 29.9426 519.61 29.9792L512.898 30.612L513.998 40.6813C514.071 41.2931 514.25 41.8579 514.516 42.3782C514.789 42.8933 514.958 43.4398 515.039 44.0177C515.076 44.2477 515.055 44.3916 514.979 44.4465C514.903 44.5066 514.726 44.5537 514.461 44.5903C514.384 44.5903 514.276 44.6007 514.142 44.6217C514.008 44.6426 513.921 44.653 513.879 44.653H513.158C512.832 44.653 512.492 44.6609 512.143 44.6792C511.798 44.7001 511.48 44.721 511.19 44.7393C510.901 44.755 510.714 44.7655 510.64 44.7655C509.943 44.7655 509.382 44.6896 508.962 44.5354C508.535 44.3811 508.206 44.1536 507.975 43.8451C507.743 43.5365 507.583 43.1652 507.483 42.7207C507.385 42.2815 507.301 41.7742 507.222 41.199C507.03 39.0889 506.872 36.9919 506.759 34.9001C506.641 32.8083 506.543 30.6904 506.47 28.5437C506.47 28.5019 506.462 28.2927 506.441 27.9109C506.42 27.5292 506.388 27.0899 506.354 26.5879C506.312 26.0885 506.275 25.5995 506.236 25.121C506.199 24.6399 506.159 24.266 506.122 23.9967C506.046 22.5377 506.112 21.1989 506.322 19.9674C506.533 18.7411 506.775 17.3997 507.046 15.9433C506.814 15.2897 506.862 14.5994 507.191 13.8725C507.52 13.1456 507.783 12.4919 507.972 11.9167C508.048 11.6107 508.101 11.3205 508.12 11.0538C508.138 10.7845 508.204 10.4786 508.322 10.1308C508.322 10.0968 508.343 10.0288 508.377 9.93208C508.419 9.83534 508.456 9.78827 508.496 9.78827C508.917 9.01954 509.288 8.24558 509.596 7.45855C509.901 6.67413 510.324 5.89495 510.869 5.12622C511.214 4.66602 511.637 4.19799 512.137 3.71688C512.637 3.23838 513.179 2.78865 513.761 2.36768C514.337 1.9441 514.945 1.60156 515.581 1.33225C516.218 1.06293 516.842 0.890359 517.463 0.814532C519.199 0.660264 520.549 0.898204 521.515 1.53097C522.48 2.16373 523.243 2.98214 523.804 3.97835C524.359 4.97456 524.793 6.07536 525.104 7.28598C525.409 8.49137 525.761 9.6157 526.145 10.6485C526.145 10.7636 526.177 10.9754 526.232 11.2839C526.288 11.5924 526.338 11.9167 526.377 12.2618C526.419 12.6069 526.464 12.9233 526.524 13.2109C526.582 13.496 526.609 13.6973 526.609 13.8123C526.88 16.346 527.045 18.8954 527.103 21.463C527.158 24.0359 527.248 26.5853 527.366 29.1137C527.366 29.7674 527.316 30.4394 527.219 31.1297C527.122 31.82 527.095 32.4893 527.135 33.143C527.135 33.2188 527.151 33.4176 527.19 33.7444C527.227 34.0712 527.266 34.4268 527.306 34.8112C527.345 35.1929 527.39 35.5459 527.451 35.8728C527.511 36.1996 527.537 36.3983 527.537 36.4742V38.3751C527.537 38.4509 527.545 38.6496 527.566 38.9765C527.587 39.3033 527.608 39.6589 527.624 40.0433C527.645 40.425 527.661 40.778 527.682 41.1048C527.698 41.4317 527.708 41.6513 527.708 41.7664C527.708 41.9991 527.672 42.3416 527.595 42.8018C527.519 43.262 527.266 43.5313 526.84 43.6098H526.727C526.685 43.6098 526.561 43.5888 526.348 43.5496C526.135 43.513 526.009 43.4947 525.969 43.4947C525.856 43.4947 525.625 43.5052 525.275 43.5261C524.93 43.547 524.569 43.5522 524.206 43.5522C523.835 43.5522 523.491 43.5627 523.164 43.5836C522.843 43.6045 522.622 43.615 522.507 43.615ZM513.011 22.9064C513.053 23.3665 513.319 23.6934 513.824 23.8816C514.321 24.0751 514.903 24.198 515.56 24.2582C516.213 24.3157 516.871 24.3366 517.528 24.3157C518.181 24.2948 518.684 24.2686 519.033 24.2294C519.107 24.2294 519.265 24.2189 519.497 24.198C519.728 24.1797 519.881 24.1719 519.96 24.1719C520.036 24.0542 520.094 23.9496 520.133 23.8555C520.173 23.7588 520.207 23.6515 520.246 23.5391C520.246 23.309 520.225 22.9351 520.191 22.4148C520.146 21.8997 520.123 21.3323 520.102 20.7204C520.083 20.1086 520.065 19.5412 520.046 19.0235C520.025 18.5032 520.015 18.1319 520.015 17.9018C520.057 17.8259 520.073 17.6508 520.073 17.3841V16.8088L519.494 11.2264C519.452 10.9623 519.354 10.6511 519.205 10.3086C519.047 9.96346 518.857 9.64708 518.626 9.35684C518.394 9.07184 518.113 8.84174 517.786 8.66917C517.457 8.49398 517.123 8.42861 516.773 8.46784C516.465 8.50444 516.173 8.60119 515.905 8.75546C514.634 10.0576 513.84 11.4199 513.534 12.8397C513.221 14.2568 513.05 15.8126 513.011 17.4991C513.011 18.4169 512.99 19.3216 512.956 20.2027C512.913 21.0839 512.937 21.9834 513.011 22.9064Z" fill="#2BB673"/>
<path d="M535.302 43.037C534.952 40.5451 534.767 38.0821 534.752 35.6477C534.731 33.2108 534.72 30.7661 534.72 28.3134C534.644 23.9416 534.496 19.5986 534.286 15.2817C534.073 10.97 533.775 6.60861 533.389 2.19756C533.465 1.96747 533.594 1.76352 533.765 1.59356C533.939 1.42099 534.178 1.2981 534.488 1.21704H534.72C537.343 1.2981 539.756 1.47851 541.956 1.76352C544.155 2.05637 546.076 2.61853 547.715 3.46309C549.355 4.30765 550.704 5.48689 551.765 6.9982C552.828 8.51474 553.533 10.5202 553.883 13.0121C554.033 14.1625 554.033 15.4202 553.883 16.7773C553.722 18.1422 553.359 19.4234 552.783 20.634C552.201 21.842 551.391 22.8853 550.346 23.7691C549.305 24.6528 547.976 25.1679 546.352 25.3222C545.581 25.398 544.826 25.3745 544.097 25.2359C543.363 25.1026 542.627 24.9954 541.898 24.9195C541.59 25.0372 541.385 25.181 541.29 25.3536C541.193 25.5209 541.145 25.7615 541.145 26.0674C541.145 26.2609 541.156 26.606 541.174 27.1028C541.193 27.6022 541.211 28.12 541.23 28.656C541.248 29.192 541.272 29.7123 541.287 30.2091C541.306 30.7085 541.337 31.0563 541.377 31.2446C541.377 31.3204 541.382 31.5322 541.403 31.8773C541.424 32.2251 541.451 32.4343 541.49 32.5101L541.606 42.9794C541.527 43.2095 541.458 43.4867 541.403 43.8109C541.348 44.1378 541.161 44.3574 540.853 44.4751C540.698 44.4751 540.382 44.4934 539.898 44.53C539.414 44.5692 539.117 44.6058 539.004 44.6476C538.501 44.7209 538.038 44.7705 537.612 44.7914C537.191 44.8097 536.82 44.7705 536.512 44.6738C536.204 44.5797 535.941 44.4071 535.73 44.1587C535.52 43.9103 535.375 43.539 535.302 43.037ZM542.537 16.0608C542.611 16.5995 542.769 17.0074 543 17.2976C543.232 17.5852 543.695 17.6924 544.387 17.614C544.926 17.5748 545.342 17.3839 545.631 17.0387C545.923 16.691 546.144 16.2909 546.3 15.8281C546.452 15.3679 546.534 14.9025 546.534 14.4214C546.534 13.9403 546.51 13.5298 546.476 13.182C546.434 12.9179 546.329 12.4368 546.158 11.7465C545.987 11.0563 545.752 10.3634 545.46 9.67568C545.171 8.98539 544.803 8.38923 544.361 7.89244C543.916 7.39564 543.424 7.18123 542.882 7.25967C542.727 7.25967 542.611 7.47147 542.537 7.89244C542.461 8.31602 542.408 8.84158 542.39 9.47435C542.369 10.1071 542.364 10.7974 542.364 11.5426C542.364 12.2956 542.369 12.9833 542.39 13.6161C542.408 14.2488 542.44 14.7953 542.479 15.2555C542.516 15.7157 542.537 15.985 542.537 16.0608Z" fill="#2BB673"/>
<path d="M560.652 34.2388C560.615 34.0845 560.587 33.8754 560.571 33.606C560.55 33.3393 560.529 33.07 560.513 32.7981C560.489 32.5314 560.473 32.2934 560.455 32.0817C560.437 31.8699 560.423 31.726 560.423 31.6502C560.387 30.9233 560.347 29.969 560.308 28.8028C560.268 27.634 560.234 26.4704 560.192 25.3226C560.155 24.1747 560.116 23.1576 560.079 22.2738C560.037 21.39 560.023 20.8932 560.023 20.7782C560.023 19.6277 560.05 18.3726 560.105 17.0078C560.166 15.6507 560.292 14.2701 560.487 12.866C560.676 11.4672 560.994 10.1075 561.442 8.78444C561.884 7.46139 562.47 6.28215 563.204 5.24672C563.936 4.21129 564.875 3.36935 566.009 2.71567C567.151 2.0646 568.527 1.68023 570.151 1.56519H571.306C572.385 1.71945 573.429 1.96001 574.432 2.28685C575.434 2.61108 576.342 3.05296 577.152 3.60729C577.96 4.16422 578.662 4.82313 579.262 5.58925C579.862 6.36059 580.312 7.28098 580.628 8.35301C580.665 8.50467 580.71 8.87857 580.773 9.47734C580.828 10.0683 580.86 10.4631 580.86 10.654C580.86 10.9625 580.865 11.4122 580.886 12.0032C580.907 12.6019 580.915 12.9366 580.915 13.0125C580.915 13.3968 580.925 14.2309 580.949 15.5147C580.965 16.7986 580.996 18.2001 581.031 19.7166C581.073 21.2305 581.096 22.7052 581.12 24.1433C581.138 25.5814 581.146 26.6456 581.146 27.3359C581.146 28.2955 581.157 29.3989 581.181 30.6462C581.196 31.8934 581.157 33.1877 581.062 34.5264C580.965 35.8704 580.791 37.1934 580.544 38.4982C580.291 39.8029 579.875 40.9717 579.299 42.0072C578.718 43.0426 577.963 43.9002 577.039 44.567C576.11 45.2363 574.937 45.6076 573.508 45.6887C572.271 45.7619 571.108 45.6887 570.009 45.456C568.909 45.2259 567.775 44.92 566.622 44.5356C565.462 44.1904 564.515 43.6544 563.786 42.9275C563.052 42.198 562.46 41.3535 562.018 40.3939C561.576 39.4395 561.247 38.4197 561.036 37.3451C560.815 36.2704 560.692 35.235 560.652 34.2388ZM568.356 33.8361C568.43 34.6441 568.675 35.3605 569.075 35.9933C569.48 36.6234 570.148 36.9058 571.074 36.8274C571.693 36.7855 572.153 36.6077 572.464 36.2809C572.769 35.9541 572.99 35.5514 573.127 35.0703C573.263 34.5892 573.342 34.0845 573.358 33.5485C573.382 33.0125 573.408 32.5131 573.448 32.0529V31.5613C573.448 31.3103 573.455 31.0462 573.474 30.7534C573.495 30.4684 573.505 30.1964 573.505 29.9507V29.5166C573.624 27.5608 573.677 25.7671 573.677 24.1381C573.677 22.5091 573.621 20.7154 573.505 18.7596C573.505 18.5295 573.484 18.1556 573.45 17.6379C573.408 17.1202 573.371 16.5633 573.334 15.9697C573.295 15.3736 573.255 14.8192 573.219 14.3015C573.177 13.7838 573.163 13.4073 573.163 13.1798C573.082 12.9497 572.937 12.6333 572.727 12.228C572.516 11.828 572.285 11.4436 572.029 11.0802C571.779 10.7167 571.49 10.4003 571.161 10.131C570.835 9.86432 570.516 9.72836 570.209 9.72836C569.824 9.76758 569.485 9.95061 569.193 10.2748C568.909 10.5991 568.677 10.9939 568.501 11.4515C568.325 11.9143 568.191 12.3849 568.093 12.8608C567.998 13.3419 567.93 13.7341 567.891 14.0427C567.854 14.1185 567.814 14.312 567.775 14.6179C567.738 14.9264 567.691 15.269 567.633 15.6533C567.575 16.0377 567.517 16.4011 567.459 16.7463C567.404 17.0914 567.372 17.3032 567.372 17.379V18.1844V19.7349C567.372 20.3128 567.362 20.8802 567.341 21.4345C567.322 21.9914 567.314 22.4229 567.314 22.7288V23.189C567.314 23.2648 567.322 23.3223 567.341 23.3615C567.362 23.4008 567.372 23.4583 567.372 23.5341V23.7642C567.414 24.1486 567.48 24.8206 567.577 25.7775C567.67 26.7372 567.775 27.7438 567.891 28.7976C568.009 29.8513 568.104 30.858 568.183 31.8176C568.256 32.7824 568.314 33.4518 568.356 33.8361Z" fill="#2BB673"/>
<path d="M586.297 34.8137C586.571 34.0868 587.057 33.6161 587.773 33.4043C588.489 33.1925 589.341 33.135 590.323 33.2344C591.304 33.3337 592.404 33.5089 593.622 33.7808C594.84 34.0475 596.098 34.2959 597.414 34.526C597.953 34.4894 598.427 34.3535 598.832 34.1234C599.237 33.8933 599.613 33.5978 599.958 33.2344C600.308 32.8683 600.637 32.4578 600.945 31.995C601.252 31.5348 601.581 31.072 601.926 30.6144C601.968 30.5778 602.002 30.4915 602.044 30.3556C602.081 30.2196 602.1 30.1359 602.1 30.0967L601.868 26.7002C601.792 26.6636 601.55 26.4701 601.145 26.1275C600.745 25.7798 600.426 25.5105 600.195 25.3196C600.113 25.2438 599.968 25.1366 599.758 25.0032C599.547 24.8699 599.395 24.8045 599.324 24.8045C597.971 24.2293 596.708 23.7691 595.532 23.4239C594.356 23.0814 593.256 22.6656 592.233 22.1872C591.209 21.706 590.28 21.0576 589.452 20.2313C588.62 19.4077 587.899 18.2285 587.284 16.691C587.284 16.5786 587.273 16.406 587.252 16.1759C587.231 15.9458 587.199 15.7053 587.165 15.4569C587.128 15.2085 587.099 14.9757 587.078 14.7666C587.057 14.5574 587.052 14.4136 587.052 14.3351C587.01 13.7991 586.965 13.2239 586.902 12.6094C586.847 11.995 586.913 11.4223 587.107 10.8863C587.144 10.732 587.22 10.4523 587.339 10.047C587.452 9.64693 587.591 9.23642 587.744 8.81284C587.899 8.39186 588.041 7.9892 588.176 7.60483C588.31 7.22308 588.397 6.95377 588.439 6.7995V6.51188C588.67 6.16674 588.881 5.89742 589.075 5.70654C589.265 5.51567 589.452 5.31433 589.625 5.10516C589.799 4.89336 589.944 4.72864 590.057 4.61359C591.33 3.19379 592.596 2.12176 593.848 1.39225C595.103 0.662739 596.64 0.205162 598.453 0.0116725C598.95 -0.0275484 599.687 0.0325902 600.652 0.184244C601.613 0.338513 602.578 0.568608 603.547 0.877146C604.507 1.18307 605.36 1.57528 606.091 2.05639C606.825 2.53227 607.212 3.06044 607.251 3.63568C607.288 3.98082 607.267 4.44102 607.191 5.01626C607.115 5.58888 606.991 6.16673 606.815 6.74459C606.641 7.3146 606.409 7.82709 606.12 8.26636C605.833 8.70825 605.494 8.94619 605.107 8.98541C604.105 9.06123 603.097 9.05078 602.094 8.95403C601.092 8.86252 600.089 8.85206 599.082 8.9305C598.892 8.9305 598.495 8.96449 597.9 9.04293C597.298 9.11876 596.903 9.15798 596.714 9.15798C596.595 9.23642 596.411 9.32271 596.164 9.41684C595.911 9.51097 595.661 9.63909 595.409 9.79336C595.156 9.94501 594.946 10.0993 594.772 10.2509C594.603 10.4052 594.514 10.5595 594.514 10.7111L594.801 14.1652C594.801 14.3534 594.924 14.5365 595.177 14.7117C595.43 14.8816 595.701 15.0516 595.99 15.2268C596.277 15.3993 596.577 15.5536 596.885 15.6869C597.192 15.8203 597.408 15.9092 597.521 15.9458C599.063 16.6753 600.476 17.3656 601.75 18.0167C603.018 18.6677 604.118 19.4338 605.049 20.3176C605.97 21.2014 606.715 22.2421 607.275 23.4527C607.841 24.6607 608.196 26.1641 608.349 27.9683C608.504 29.5424 608.396 31.0929 608.03 32.6278C607.659 34.1626 607.065 35.5301 606.236 36.7407C605.404 37.9461 604.354 38.9554 603.081 39.7581C601.808 40.5661 600.358 41.0445 598.734 41.1988C597.387 41.3531 596.001 41.3688 594.572 41.2537C593.143 41.1387 591.843 40.8511 590.667 40.3909C589.486 39.9307 588.494 39.2508 587.681 38.3488C586.878 37.4493 586.415 36.2701 586.297 34.8137Z" fill="#2BB673"/>
<path d="M640.763 44.478C640.687 44.4361 640.629 44.2766 640.595 43.9864C640.553 43.7014 640.535 43.5158 640.535 43.4399C640.303 42.062 640.266 40.6866 640.421 39.3296C640.577 37.9673 640.632 36.6129 640.595 35.2741C640.514 33.5484 640.332 31.8332 640.045 30.1231C639.753 28.4209 639.532 26.6978 639.377 24.9721C639.335 23.6334 639.335 22.3365 639.377 21.0919C639.414 19.8446 639.432 18.553 639.432 17.2116C639.474 15.9827 639.432 14.7433 639.319 13.4987C639.201 12.2515 639.103 11.0147 639.027 9.79103V9.44327V8.84188V8.23788V7.83783C638.99 7.64172 638.951 7.31488 638.914 6.8573C638.872 6.39711 638.837 5.90554 638.795 5.39044C638.753 4.87273 638.719 4.38377 638.682 3.9262C638.64 3.46339 638.627 3.13916 638.627 2.94567C638.703 2.63714 638.782 2.40704 638.858 2.25539C638.935 2.10112 639.085 1.96777 639.322 1.85272C639.398 1.81611 639.619 1.76382 639.985 1.70891C640.356 1.65138 640.595 1.62262 640.708 1.62262C642.832 1.35592 644.742 1.44744 646.439 1.91024C648.139 2.37043 649.609 3.11825 650.87 4.15368C652.125 5.18911 653.146 6.46248 653.938 7.97902C654.73 9.49295 655.28 11.1507 655.588 12.9548C655.777 14.4139 655.874 15.8284 655.874 17.2142C655.874 18.5922 655.819 20.0329 655.701 21.5259C655.856 22.2946 655.874 23.0398 655.761 23.7694C655.643 24.4989 655.622 25.2467 655.701 26.0128C655.743 27.2443 655.819 28.6693 655.937 30.2983C656.051 31.9273 656.019 33.5615 655.851 35.1905C655.677 36.8194 655.269 38.336 654.632 39.7323C653.996 41.1337 652.962 42.2162 651.533 42.9824C650.146 43.6726 648.67 44.1302 647.107 44.3603C645.544 44.5904 643.987 44.8022 642.447 44.9931C642.371 44.9931 642.184 45.014 641.897 45.0506C641.605 45.0898 641.424 45.1081 641.348 45.1081C641.271 45.0297 641.163 44.9434 641.029 44.8467C640.895 44.7499 640.806 44.6322 640.763 44.478ZM646.263 36.8848C646.457 37.1907 646.71 37.3267 647.018 37.2875C647.439 37.2509 647.778 37.0208 648.031 36.5972C648.283 36.1736 648.473 35.703 648.612 35.1879C648.746 34.6675 648.839 34.142 648.899 33.6059C648.954 33.0699 649.007 32.6463 649.044 32.3404C649.086 32.0737 649.12 31.7024 649.162 31.2187C649.199 30.7402 649.238 30.2826 649.275 29.8381C649.317 29.3989 649.341 29.0171 649.362 28.6903C649.383 28.3634 649.388 28.183 649.388 28.1438L649.333 27.6836C649.333 25.5735 649.354 23.3954 649.388 21.1494C649.431 18.9086 649.275 16.6913 648.931 14.5054C648.731 13.3967 648.51 12.5156 648.262 11.8619C648.01 11.2108 647.46 10.4813 646.613 9.67598C646.494 9.4851 646.392 9.33083 646.294 9.21579C646.197 9.10074 646.018 9.06152 645.744 9.10074C645.55 9.13996 645.481 9.30207 645.544 9.58969C645.6 9.87731 645.631 10.0394 645.631 10.0786C645.744 12.4188 645.821 14.7564 645.863 17.0966C645.9 19.4341 645.955 21.7769 646.031 24.1145C646.073 26.0311 646.015 27.9791 645.863 29.9532C645.702 31.9247 645.781 33.8753 646.094 35.7892C646.094 35.8651 646.121 36.0507 646.181 36.3357C646.236 36.6233 646.263 36.8064 646.263 36.8848Z" fill="#2BB673"/>
<path d="M662.939 41.4839C662.939 41.408 662.955 41.3191 662.992 41.2224C663.034 41.1309 663.034 41.0603 662.992 41.0237C663.034 40.5269 663.095 39.9203 663.171 39.2117C663.247 38.5031 663.381 37.92 663.571 37.4598C663.689 37.1879 663.884 36.9892 664.152 36.8532C664.426 36.7198 664.702 36.6048 664.989 36.5107C665.281 36.4139 665.56 36.3172 665.831 36.223C666.099 36.1289 666.315 35.9642 666.468 35.7341C666.505 35.7341 666.534 35.6739 666.555 35.5615C666.57 35.4439 666.581 35.3523 666.581 35.2739C666.581 35.2007 666.591 35.0438 666.607 34.8137C666.634 34.581 666.649 34.3247 666.668 34.0345C666.689 33.7495 666.699 33.4723 666.699 33.203V32.6278C666.581 29.5215 666.555 26.4361 666.607 23.3664C666.668 20.2967 666.602 17.2323 666.407 14.1652C666.407 14.0868 666.392 13.9351 666.352 13.7024C666.315 13.4723 666.281 13.2239 666.265 12.9546C666.244 12.6879 666.228 12.4395 666.21 12.2094C666.189 11.9793 666.178 11.8041 666.178 11.6891C666.102 11.3465 665.921 11.1348 665.629 11.0563C665.342 10.9805 665.023 10.9047 664.679 10.8262C664.329 10.7504 664.021 10.6249 663.747 10.4523C663.479 10.2797 663.321 9.96335 663.284 9.50316C663.284 9.46656 663.274 9.42472 663.258 9.39073C663.237 9.35151 663.226 9.31229 663.226 9.27307V8.09121C663.226 7.53689 663.237 6.94073 663.258 6.30797C663.274 5.67521 663.284 5.08166 663.284 4.52473V3.40301C663.36 3.09447 663.458 2.71272 663.571 2.25253C663.689 1.79234 663.9 1.52564 664.208 1.44458L664.326 1.50733H664.439C665.021 1.61977 665.831 1.66945 666.876 1.65114C667.915 1.63023 668.978 1.65114 670.057 1.70605C671.135 1.76358 672.148 1.89954 673.093 2.10872C674.038 2.3179 674.706 2.69442 675.093 3.23044C675.287 3.46053 675.38 3.82659 675.38 4.32339C675.38 4.8228 675.401 5.20717 675.44 5.47649C675.553 7.12376 675.506 8.27424 675.29 8.92792C675.08 9.57899 674.827 10.0209 674.54 10.251C674.253 10.4811 673.948 10.6327 673.64 10.7086C673.332 10.787 673.143 11.0929 673.064 11.6289C672.79 13.2396 672.638 14.8503 672.601 16.4609C672.559 18.0742 672.569 19.6823 672.627 21.293C672.688 22.9062 672.772 24.5065 672.89 26.0962C673.009 27.6886 673.101 29.2888 673.177 30.8995V31.5035V32.565C673.177 32.9468 673.188 33.305 673.209 33.6292C673.23 33.9561 673.24 34.1574 673.24 34.2332V34.6934C673.277 35.1536 673.451 35.4595 673.759 35.6138C674.061 35.7681 674.417 35.9119 674.801 36.0479C675.185 36.1812 675.54 36.3538 675.869 36.563C676.198 36.7747 676.398 37.1643 676.474 37.7422C676.474 38.0115 676.485 38.4037 676.506 38.9214C676.527 39.4365 676.495 39.9569 676.419 40.4746C676.343 40.9897 676.198 41.4629 675.987 41.8839C675.772 42.3075 675.437 42.5376 674.974 42.5742C674.198 42.7285 673.319 42.7677 672.338 42.6919C671.357 42.616 670.478 42.616 669.701 42.6919C669.588 42.6919 669.307 42.718 668.865 42.7755C668.423 42.8331 667.96 42.8906 667.478 42.9455C666.994 43.003 666.534 43.0527 666.086 43.0919C665.644 43.1311 665.368 43.1494 665.25 43.1494C664.71 43.1861 664.208 43.0841 663.745 42.8331C663.282 42.5821 663.016 42.1375 662.939 41.4839Z" fill="#2BB673"/>
<path d="M684.582 38.8954C684.619 38.8196 684.593 38.647 684.495 38.3803C684.398 38.1136 684.285 37.8129 684.151 37.4861C684.011 37.1619 683.877 36.8533 683.746 36.5657C683.606 36.2807 683.519 36.0585 683.482 35.9016V33.8882V31.9324C683.482 31.7023 683.493 31.1977 683.514 30.4107C683.53 29.6236 683.551 28.7817 683.569 27.877C683.59 26.9775 683.606 26.133 683.625 25.3433C683.646 24.5641 683.651 24.0516 683.651 23.8189V20.2551C683.693 19.9857 683.722 19.5543 683.743 18.9582C683.759 18.3646 683.79 17.7528 683.83 17.12C683.867 16.4872 683.896 15.9015 683.917 15.3629C683.932 14.8269 683.964 14.4634 683.998 14.2699C683.998 14.1941 684.019 13.9536 684.059 13.5535C684.095 13.1482 684.151 12.8711 684.232 12.7168C684.345 12.0657 684.422 11.3754 684.464 10.6459C684.501 9.91905 684.614 9.22876 684.809 8.57508C685.04 7.96323 685.406 7.23372 685.908 6.38916C686.411 5.54722 687.019 4.74973 687.732 4.00192C688.445 3.25411 689.226 2.6135 690.076 2.07487C690.923 1.53885 691.813 1.26953 692.739 1.26953C693.434 1.26953 693.978 1.29045 694.362 1.32705C694.746 1.36366 695.086 1.43949 695.375 1.55715C695.662 1.6722 695.925 1.85261 696.157 2.10363C696.388 2.35203 696.675 2.70502 697.02 3.16521C697.02 3.24365 697.062 3.31948 697.138 3.3953L697.257 3.51297V8.80256L696.794 9.15031C695.052 9.22614 693.673 9.58959 692.652 10.2433C691.629 10.8943 690.947 11.9115 690.602 13.292C690.555 13.598 690.516 14.1052 690.452 14.8138C690.397 15.5224 690.329 16.2754 690.252 17.0572C690.176 17.8443 690.097 18.5921 690.021 19.3033C689.945 20.0145 689.902 20.5008 689.902 20.7675V23.011C689.902 24.47 689.913 25.8297 689.934 27.0952C689.955 28.3607 690 29.7622 690.079 31.297C690.155 32.4057 690.387 33.3078 690.773 33.9981C691.158 34.6883 691.621 35.2348 692.165 35.6375C692.705 36.0402 693.281 36.3461 693.902 36.5579C694.518 36.7671 695.094 36.9396 695.638 37.0782C696.178 37.2116 696.641 37.3632 697.02 37.5332C697.409 37.7057 697.641 37.9463 697.72 38.2522V39.8106C697.72 40.1165 697.741 40.4904 697.775 40.9297C697.817 41.3716 697.806 41.8135 697.749 42.2527C697.688 42.6946 697.564 43.0842 697.367 43.432C697.178 43.7797 696.828 44.0098 696.328 44.1223H694.765C692.447 44.1223 690.392 43.7248 688.597 42.9169C686.803 42.1089 685.472 40.7754 684.582 38.8954Z" fill="#2BB673"/>
<path d="M704.441 43.9602C704.286 43.8452 704.128 43.7223 703.978 43.5837C703.817 43.4503 703.746 43.2882 703.746 43.0947C703.552 41.254 703.562 39.3949 703.773 37.5149C703.983 35.6349 704.091 33.7758 704.091 31.9325C704.091 29.6341 704.025 27.3253 703.891 25.0034C703.752 22.6842 703.609 20.3649 703.454 18.043C703.299 15.7238 703.178 13.4097 703.078 11.1114C702.981 8.81044 702.97 6.5304 703.046 4.26343C703.046 4.03334 703.112 3.78755 703.252 3.51824C703.386 3.25154 703.586 3.09465 703.857 3.05805C704.241 3.01883 704.694 3.03974 705.22 3.11557C705.738 3.1914 706.175 3.21231 706.519 3.17048C706.675 3.17048 706.962 3.16263 707.388 3.14695C707.814 3.12603 708.267 3.10511 708.751 3.08681C709.235 3.0685 709.685 3.04759 710.114 3.02928C710.535 3.01098 710.824 3.00052 710.982 3.00052C711.019 3.00052 711.171 2.98222 711.445 2.94038C711.713 2.90639 712 2.86456 712.313 2.83057C712.621 2.78873 712.9 2.75212 713.15 2.7129C713.403 2.6763 713.566 2.65538 713.645 2.65538C713.876 2.65538 714.25 2.63446 714.771 2.60047C715.294 2.55863 715.813 2.55863 716.334 2.60047C716.857 2.63446 717.326 2.7129 717.752 2.83057C718.178 2.94038 718.41 3.17048 718.452 3.51824L718.852 8.35025C718.894 8.65617 718.76 8.91765 718.452 9.12682C718.139 9.33862 717.849 9.46412 717.584 9.49812C716.807 9.57917 716.036 9.55041 715.265 9.41445C714.495 9.27848 713.703 9.25233 712.892 9.32816C712.703 9.32816 712.45 9.33862 712.142 9.35692C711.834 9.37522 711.516 9.42229 711.187 9.49812C710.858 9.57917 710.582 9.69422 710.35 9.84588C710.119 10.0001 710 10.2302 710 10.5362C710.119 12.071 710.119 13.6608 710 15.3107C709.887 16.9605 709.903 18.5686 710.056 20.1427C710.056 20.3362 710.077 20.5846 710.116 20.8905C710.153 21.199 710.266 21.4474 710.461 21.6383C710.616 21.7533 710.856 21.8396 711.185 21.8971C711.513 21.9547 711.848 21.9834 712.197 21.9834C712.547 21.9834 712.871 21.9756 713.184 21.9547C713.487 21.9338 713.724 21.9233 713.879 21.9233C714.034 21.9233 714.321 21.9076 714.747 21.8684C715.168 21.8318 715.615 21.7821 716.078 21.7246C716.542 21.6697 716.984 21.6174 717.41 21.5808C717.831 21.5415 718.123 21.5232 718.278 21.5232C718.391 21.5232 718.489 21.5912 718.565 21.7246C718.641 21.8579 718.683 21.9651 718.683 22.041L719.083 25.78C719.125 26.1278 719.036 26.4703 718.825 26.8154C718.61 27.158 718.352 27.3515 718.044 27.3907C717.191 27.5057 716.344 27.4953 715.494 27.3619C714.645 27.2286 713.779 27.1972 712.889 27.2756C712.35 27.3515 711.963 27.4953 711.729 27.7071C711.503 27.9189 711.348 28.1777 711.271 28.4836C711.195 28.7922 711.153 29.1347 711.153 29.5191V30.7297C711.153 30.8421 711.132 31.1219 711.098 31.5612C711.056 32.0057 711.011 32.4711 710.953 32.9705C710.895 33.4699 710.845 33.9301 710.808 34.3485C710.766 34.7721 710.732 35.0414 710.69 35.1564C710.766 35.1983 710.787 35.3107 710.745 35.5042C710.708 35.6924 710.729 35.8467 710.806 35.9644C710.806 36.1945 710.842 36.4742 710.919 36.7959C710.995 37.1227 711.211 37.2874 711.556 37.2874H712.918H714.944H716.97H718.275C718.891 37.2874 719.452 37.3423 719.952 37.46C720.454 37.5724 720.804 37.996 720.993 38.7229C720.993 38.7961 721.025 38.9818 721.08 39.2694C721.136 39.557 721.199 39.8838 721.254 40.2473C721.309 40.616 721.367 40.9768 721.428 41.3402C721.483 41.7089 721.53 41.9835 721.572 42.1717V42.5195C721.649 43.0555 721.517 43.3614 721.167 43.4399C720.817 43.5183 720.433 43.5941 720.012 43.67C718.389 43.8635 716.77 43.9105 715.15 43.8138C713.526 43.7223 711.908 43.6517 710.282 43.6151C710.169 43.5785 709.882 43.5837 709.414 43.6438C708.951 43.7013 708.685 43.7301 708.606 43.7301C708.451 43.7301 708.169 43.738 707.764 43.7589C707.364 43.7798 706.938 43.8059 706.496 43.8452C706.049 43.887 705.633 43.9105 705.246 43.9314C704.859 43.9524 704.596 43.9602 704.441 43.9602Z" fill="#2BB673"/>
<path d="M726.609 40.5663C726.609 40.0721 726.691 39.5492 726.867 39.0131C727.043 38.4771 727.304 37.9856 727.649 37.5463C727.999 37.1018 728.441 36.7383 728.98 36.4533C729.519 36.1631 730.156 36.0193 730.893 36.0193C731.243 36.0193 731.587 36.0402 731.932 36.0742C732.282 36.116 732.611 36.2128 732.919 36.3644C733.69 37.0887 734.434 37.8391 735.15 38.6052C735.866 39.3714 736.218 40.2342 736.218 41.1938C736.218 41.6148 736.095 42.0671 735.842 42.5483C735.589 43.0241 735.255 43.4686 734.829 43.8713C734.403 44.2714 733.924 44.5956 733.379 44.8466C732.84 45.0976 732.279 45.2205 731.703 45.2205C730.932 45.2205 730.227 45.0872 729.59 44.8204C728.954 44.5537 728.414 44.1955 727.967 43.7563C727.525 43.317 727.186 42.8176 726.954 42.2606C726.722 41.7089 726.609 41.1441 726.609 40.5663Z" fill="#2BB673"/>
<path d="M743.162 40.5663C743.162 40.0721 743.249 39.5492 743.425 39.0131C743.602 38.4771 743.857 37.9856 744.207 37.5463C744.551 37.1018 744.999 36.7383 745.538 36.4533C746.077 36.1631 746.714 36.0193 747.451 36.0193C747.796 36.0193 748.145 36.0402 748.49 36.0742C748.84 36.116 749.169 36.2128 749.472 36.3644C750.248 37.0887 750.987 37.8391 751.708 38.6052C752.418 39.3714 752.776 40.2342 752.776 41.1938C752.776 41.6148 752.647 42.0671 752.4 42.5483C752.147 43.0241 751.808 43.4686 751.387 43.8713C750.961 44.2714 750.477 44.5956 749.937 44.8466C749.398 45.0976 748.838 45.2205 748.256 45.2205C747.485 45.2205 746.78 45.0872 746.143 44.8204C745.506 44.5537 744.967 44.1955 744.525 43.7563C744.078 43.317 743.744 42.8176 743.512 42.2606C743.28 41.7089 743.162 41.1441 743.162 40.5663Z" fill="#2BB673"/>
<path d="M759.719 40.5663C759.719 40.0721 759.8 39.5492 759.977 39.0131C760.153 38.4771 760.413 37.9856 760.758 37.5463C761.108 37.1018 761.55 36.7383 762.089 36.4533C762.629 36.1631 763.266 36.0193 764.002 36.0193C764.352 36.0193 764.697 36.0402 765.044 36.0742C765.389 36.116 765.718 36.2128 766.026 36.3644C766.797 37.0887 767.541 37.8391 768.257 38.6052C768.972 39.3714 769.325 40.2342 769.325 41.1938C769.325 41.6148 769.201 42.0671 768.949 42.5483C768.696 43.0241 768.362 43.4686 767.936 43.8713C767.51 44.2714 767.031 44.5956 766.486 44.8466C765.947 45.0976 765.386 45.2205 764.81 45.2205C764.039 45.2205 763.334 45.0872 762.697 44.8204C762.06 44.5537 761.521 44.1955 761.074 43.7563C760.632 43.317 760.292 42.8176 760.061 42.2606C759.832 41.7089 759.719 41.1441 759.719 40.5663Z" fill="#2BB673"/>
</svg>
