<?xml version="1.0" encoding="UTF-8" standalone="no"?>
<!-- Created with Inkscape (http://www.inkscape.org/) -->

<svg
   width="150mm"
   height="150mm"
   viewBox="0 0 150 150"
   version="1.1"
   id="svg220"
   inkscape:version="1.2.1 (9c6d41e410, 2022-07-14)"
   sodipodi:docname="svgGlo7Fly.svg"
   xmlns:inkscape="http://www.inkscape.org/namespaces/inkscape"
   xmlns:sodipodi="http://sodipodi.sourceforge.net/DTD/sodipodi-0.dtd"
   xmlns="http://www.w3.org/2000/svg"
   xmlns:svg="http://www.w3.org/2000/svg">
  <sodipodi:namedview
     id="namedview222"
     pagecolor="#ffffff"
     bordercolor="#000000"
     borderopacity="0.25"
     inkscape:showpageshadow="2"
     inkscape:pageopacity="0.0"
     inkscape:pagecheckerboard="0"
     inkscape:deskcolor="#d1d1d1"
     inkscape:document-units="mm"
     showgrid="false"
     inkscape:zoom="0.914906"
     inkscape:cx="396.76207"
     inkscape:cy="560.71334"
     inkscape:window-width="3840"
     inkscape:window-height="2066"
     inkscape:window-x="-11"
     inkscape:window-y="-11"
     inkscape:window-maximized="1"
     inkscape:current-layer="layer1" />
  <defs
     id="defs217" />
  <g
     inkscape:label="Capa 1"
     inkscape:groupmode="layer"
     id="layer1">
    <path
       class="st0"
       d="M 43.500224,92.388664 C 45.951735,84.23178 48.130871,61.392489 65.563957,39.704794 82.72467,18.400942 105.15161,9.3804034 102.24609,26.845701 99.34056,44.311033 72.555379,71.564623 59.843742,86.630869 54.668278,92.964446 41.684267,98.434338 43.500224,92.388664 Z"
       id="path4"
       style="fill:#bab4a0;stroke-width:0.933442" />
    <path
       class="st1"
       d="m 50.673219,92.484596 c 0,0 3.90429,-19.672443 14.164382,-26.485868 10.350894,-6.909358 19.703023,-7.19723 19.703023,-7.19723"
       id="path6"
       style="fill:none;stroke:#ffffff;stroke-width:0.488191" />
    <path
       class="st1"
       d="m 72.192167,45.462592 c 0,0 0.998764,3.83852 1.180371,7.86898 0.181537,4.030459 -0.635587,8.348825 -0.635587,8.348825"
       id="path8"
       style="fill:none;stroke:#ffffff;stroke-width:0.488191" />
    <path
       class="st1"
       d="m 60.751705,69.645345 c 0,0 -0.998765,-8.156886 -2.905492,-12.091376 C 55.939452,53.715449 54.3051,52.180012 54.3051,52.180012"
       id="path10"
       style="fill:none;stroke:#ffffff;stroke-width:0.488191" />
    <path
       class="st1"
       d="m 53.306336,83.464062 c 0,0 7.354565,-4.99008 10.714072,-5.182019 l 3.359506,-0.191867"
       id="path12"
       style="fill:none;stroke:#ffffff;stroke-width:0.488191" />
    <path
       class="st1"
       d="m 73.372538,52.37195 c 0,0 6.355798,-7.389168 14.255188,-9.884225 5.44784,-1.823309 8.716544,-1.151561 8.716544,-1.151561"
       id="path14"
       style="fill:none;stroke:#ffffff;stroke-width:0.488191" />
    <path
       class="st1"
       d="m 57.483001,56.88222 c 0,0 8.807345,-4.606239 14.709166,-11.515597 7.990185,-9.212477 7.899387,-22.263473 7.899387,-22.263473"
       id="path16"
       style="fill:none;stroke:#ffffff;stroke-width:0.488191" />
    <path
       class="st1"
       d="m 87.082942,42.679663 c 0,0 3.904285,-8.156887 2.269933,-17.081454 -1.089568,-6.237645 -1.725149,-6.045707 -1.725149,-6.045707"
       id="path18"
       style="fill:none;stroke:#ffffff;stroke-width:0.488191" />
    <path
       class="st1"
       d="m 55.213062,78.953792 c 0,0 -4.72145,-6.045707 -7.354566,-7.005327 -2.633117,-1.055591 -1.906761,-0.479811 -1.906761,-0.479811"
       id="path20"
       style="fill:none;stroke:#ffffff;stroke-width:0.488191" />
    <path
       class="st2"
       d="m 84.086608,122.23325 c -1.361938,11.13172 -1.271134,10.46 -1.452743,14.58638 0,0.38389 -5.17543,0 -4.903056,0"
       id="path22"
       style="fill:none;stroke:#000000;stroke-width:0.73182;stroke-linecap:round" />
    <path
       class="st2"
       d="m 66.199543,118.58663 c -1.361942,11.13175 -1.271139,10.46 -1.452745,14.58643 0,0.38384 -5.175465,0 -4.903056,0"
       id="path24"
       style="fill:none;stroke:#000000;stroke-width:0.73182;stroke-linecap:round" />
    <path
       class="st2"
       d="m 49.038867,117.3391 c -4.085897,10.36403 -3.813488,9.69229 -4.993859,13.72275 -0.09094,0.38387 -4.993858,-1.43944 -4.721449,-1.34347"
       id="path26"
       style="fill:none;stroke:#000000;stroke-width:0.73182;stroke-linecap:round" />
    <path
       class="st3"
       d="M 21.164083,75.691051 C 14.172695,83.272123 10.45001,98.722239 15.353066,107.167 c 9.806111,16.88956 28.601139,11.13176 28.601139,11.13176 0,0 17.705496,7.19723 32.414661,8.15684 14.709166,0.95966 26.694414,3.26278 24.424474,-12.66715 -2.179137,-16.025869 -8.444167,-35.218499 -24.424474,-38.577245 -15.98034,-3.26274 -21.246573,0.959657 -21.246573,0.959657 0,0 -17.887101,-17.849175 -33.95821,-0.479811 z"
       id="path28"
       style="fill:#2a773a;stroke-width:0.933442" />
    <path
       class="st4"
       d="m 28.427881,79.817444 c -3.631916,1.055626 -6.265033,-2.111181 -6.265033,-6.237609 0,-4.126428 4.358272,-7.389168 8.080956,-6.62145 5.357036,1.15156 6.719014,10.364038 -1.815923,12.859059 z"
       id="path30"
       style="fill:#ffffff;stroke-width:0.933442" />
    <path
       class="st5"
       d="m 22.162848,74.443523 c 0,-0.383878 0,-0.57578 0,-0.863688 0,-4.126428 4.358272,-7.389168 8.080956,-6.62145 1.089568,0.191866 1.815958,0.671749 2.542348,1.343462"
       id="path32"
       style="fill:none;stroke:#ccccb8;stroke-width:0.234295;stroke-linecap:round" />
    <path
       class="st4"
       d="m 46.768928,75.882954 c 2.451511,-2.015211 7.263797,-2.399089 10.350895,0.863688 3.087098,3.26274 2.723919,7.67704 0,11.323658 -2.723919,3.646619 -8.534937,4.51027 -11.985247,0.09611 -3.177901,-4.126428 -1.815957,-9.500385 1.634352,-12.283314 z"
       id="path34"
       style="fill:#ffffff;stroke-width:0.933442" />
    <path
       d="m 28.064668,72.812153 c 0,1.05559 -0.726355,1.5354 -1.452746,1.5354 -0.726389,0 -1.361976,-0.671749 -1.361976,-1.5354 0,-0.863688 0.635587,-1.535438 1.361976,-1.535438 0.726391,0 1.452746,0.67175 1.452746,1.535438 z"
       id="path36"
       style="stroke-width:0.933442" />
    <path
       d="m 50.854791,81.92866 c 0,1.15156 -0.817159,1.631371 -1.634352,1.631371 -0.817159,0 -1.543549,-0.767719 -1.543549,-1.631371 0,-0.863687 0.72639,-1.63137 1.543549,-1.63137 0.907996,0 1.634352,0.767683 1.634352,1.63137 z"
       id="path38"
       style="stroke-width:0.933442" />
    <path
       class="st6"
       d="M 28.51865,86.726802 C 25.068374,85.287371 17.078187,84.039841 14.989854,82.408471 13.627911,81.352881 14.535873,79.72151 12.992324,78.665884 10.722385,77.034515 7.9076621,78.377903 6.2733107,82.696343 4.8205651,86.534899 5.9101323,89.79764 9.0880332,90.18148 c 2.9963288,0.383878 3.1778998,-2.399051 4.8122528,-2.495021 1.815958,-0.191866 10.441698,3.166771 12.439228,4.414304 1.452779,0.863683 3.450309,-4.798181 2.179136,-5.373961 z"
       id="path40"
       style="fill:#41aa54;stroke-width:0.933442" />
    <path
       class="st7"
       d="m 24.614393,96.227189 c 0,0 0.998765,2.303112 2.633116,2.686956 2.088333,0.479808 3.268705,-1.343455 3.268705,-1.343455"
       id="path42"
       style="fill:none;stroke:#000000;stroke-width:0.746756;stroke-linecap:round" />
    <path
       class="st8"
       d="m 62.567662,76.842612 c 0,0 1.906727,15.162176 -3.90429,29.844578 -3.359507,8.54072 -6.719014,11.51559 -6.719014,11.51559"
       id="path44"
       style="fill:none;stroke:#41aa54;stroke-width:0.631943" />
    <path
       class="st8"
       d="m 94.800715,97.858556 c 0,0 0.09094,12.091374 -6.71901,19.000724 -4.630649,4.79818 -9.715309,7.86899 -9.715309,7.86899"
       id="path46"
       style="fill:none;stroke:#41aa54;stroke-width:0.631943" />
    <path
       class="st8"
       d="m 79.81914,79.72151 c 0,0 2.45155,12.379253 -3.268701,27.15759 -3.359508,8.54076 -12.166819,15.83395 -12.166819,15.83395"
       id="path48"
       style="fill:none;stroke:#41aa54;stroke-width:0.631943" />
    <path
       class="st9"
       d="M 60.751705,77.994171 C 66.199543,71.660593 76.732044,53.0437 101.06572,41.048292 125.12701,29.244788 151.09504,32.315625 141.56133,46.902061 132.0276,61.488459 96.979851,74.443523 79.455966,82.60041 72.28297,86.055088 56.665842,82.696524 60.751705,77.994171 Z"
       id="path50"
       style="fill:#ccccb8;stroke-width:0.933442" />
    <path
       class="st1"
       d="m 68.923463,83.847902 c 0,0 11.258889,-16.121834 23.334905,-17.849174 12.076052,-1.727339 20.701792,2.111217 20.701792,2.111217"
       id="path52"
       style="fill:none;stroke:#ffffff;stroke-width:0.488191" />
    <path
       class="st1"
       d="m 107.05834,50.548642 c 0,0 -0.63559,3.934489 -1.99753,7.677076 -1.36198,3.742551 -3.90429,7.293199 -3.90429,7.293199"
       id="path54"
       style="fill:none;stroke:#ffffff;stroke-width:0.488191" />
    <path
       class="st1"
       d="m 87.082942,67.534165 c 0,0 2.360738,-7.869015 2.088331,-12.283315 -0.181536,-4.4143 -1.089568,-6.429548 -1.089568,-6.429548"
       id="path56"
       style="fill:none;stroke:#ffffff;stroke-width:0.488191" />
    <path
       class="st1"
       d="m 74.825283,76.842612 c 0,0 8.625773,-1.24753 11.803672,0 l 3.177907,1.247492"
       id="path58"
       style="fill:none;stroke:#ffffff;stroke-width:0.488191" />
    <path
       class="st1"
       d="m 105.24242,57.458 c 0,0 8.71654,-3.83852 16.79749,-2.78293 5.72022,0.767719 8.35334,2.78293 8.35334,2.78293"
       id="path60"
       style="fill:none;stroke:#ffffff;stroke-width:0.488191" />
    <path
       class="st1"
       d="m 89.080469,54.387198 c 0,0 9.806112,-0.191866 17.887061,-3.838556 10.89568,-4.798142 15.98034,-16.793585 15.98034,-16.793585"
       id="path62"
       style="fill:none;stroke:#ffffff;stroke-width:0.488191" />
    <path
       class="st1"
       d="m 121.6767,54.579101 c 0,0 6.80982,-5.757799 8.80735,-14.490465 1.45278,-6.14164 0.81719,-6.237609 0.81719,-6.237609"
       id="path64"
       style="fill:none;stroke:#ffffff;stroke-width:0.488191" />
    <path
       class="st1"
       d="m 78.366396,73.579835 c 0,0 -1.906761,-7.581107 -3.90429,-9.596318 -1.99753,-2.111181 -1.543549,-1.24753 -1.543549,-1.24753"
       id="path66"
       style="fill:none;stroke:#ffffff;stroke-width:0.488191" />
  </g>
</svg>
