<svg width="206" height="551" viewBox="0 0 206 551" fill="none" xmlns="http://www.w3.org/2000/svg">
<path fill-rule="evenodd" clip-rule="evenodd" d="M117.146 449.491C131.211 449.466 183.243 430.107 198.29 388.958C213.337 347.816 201.039 258.559 191.178 220.963C181.322 183.365 117.601 0 117.601 0C117.601 0 97.9223 42.0111 81.409 70.4827C64.8957 98.959 15.5004 212.834 5.9998 255.585C-3.50077 298.336 -3.84847 374.908 20.7952 407.901C51.861 449.491 76.0141 441.546 117.146 449.491Z" fill="#41AA54"/>
<path fill-rule="evenodd" clip-rule="evenodd" d="M113.223 550.767C113.223 550.767 112.497 498.117 112.497 476.482C112.497 454.85 108.856 412.292 113.223 409.198C117.59 406.1 126.432 403.917 136.928 399.551C147.421 395.185 159.82 393.347 168.551 392.618C177.282 391.892 178.537 391.759 178.537 391.759L176.526 382.363C176.526 382.363 175.068 381.908 167.792 382.363C160.514 382.816 158.317 383.257 154.697 383.603C147.845 384.261 143.583 387.51 143.749 383.544C143.91 379.585 145.195 363.597 141.575 365.202C137.962 366.809 135.715 367.425 135.715 367.425C135.715 367.425 133.562 373.772 133.092 379.047C132.519 385.502 132.829 387.414 132.829 387.414C132.829 387.414 124.268 390.362 119.222 391.376C114.821 392.264 113.297 391.572 113.226 382.362C113.132 369.697 110.285 337.737 112.472 329.573C114.655 321.413 119.226 317.485 125.83 315.089C130.163 313.514 140.549 311.334 147.986 307.783C155.427 304.233 160.517 304.126 160.517 304.126L159.792 297.071C159.792 297.071 149.485 298.836 146.008 300.079C142.532 301.316 130.284 305.306 130.284 305.306C130.284 305.306 136.507 290.377 136.507 288.378C136.507 286.384 137.238 277.687 137.238 277.687H131.63L129.95 286.916H119.048L116.866 290.223L125.595 294.046L120.662 305.439L111.044 309.34C111.044 309.34 112.5 270.951 113.954 258.487L115.409 246.024C115.409 246.024 124.847 240.939 129.95 238.753C135.053 236.567 147.986 232.958 147.986 232.958L147.807 226.123L130.361 231.556C130.361 231.556 132.86 228.857 135.043 224.745C137.226 220.633 135.409 220.723 135.409 220.723L130.36 219.102L116.136 237.087C116.136 237.087 116.865 185.744 117.592 180.959C118.317 176.174 136.507 162.35 136.507 162.35L133.808 158.511L129.949 160.167C121.956 164.533 116.865 169.832 114.682 170.82C112.499 171.811 95.3201 136.16 91.5399 133.975L87.7596 131.792C80.4802 135.431 81.9361 139.905 81.9361 139.905C81.9361 139.905 87.3183 144.889 91.5399 151.438C95.763 157.987 97.3602 160.416 97.3602 160.416L85.5766 170.82L87.7438 174.208C87.7438 174.208 97.5428 164.693 100.28 165.279C102.271 165.706 103.762 180.959 103.762 180.959C103.762 180.959 97.2157 216.408 97.2157 226.123C97.2157 235.841 94.5913 247.474 91.5383 250.024C88.4836 252.575 84.8463 250.024 84.8463 250.024L89.2965 237.087H81.8202L75.3854 250.024C75.3854 250.024 56.47 240.936 52.1039 238.753C47.7346 236.57 41.1919 247.066 41.1919 247.066C41.1919 247.066 44.0989 248.201 49.9209 250.024C55.7412 251.846 70.2937 255.668 76.8429 258.487C83.392 261.306 91.5383 266.481 91.5383 269.45C91.5383 274.666 88.4122 318.48 87.6024 330.121C86.788 341.762 87.2452 365.201 87.2452 365.201C87.2452 365.201 77.2144 358.475 69.3872 353.547C61.56 348.619 49.9193 341.678 49.9193 341.678L47.0091 346.474L58.6514 357.348C58.6514 357.348 56.4684 362.592 54.2822 364.334L52.1023 366.08L56.4684 371.25C56.4684 371.25 61.479 366.955 63.3382 364.335L65.1989 361.719L86.299 382.362L79.753 550.765H113.223V550.767Z" fill="#6A2403"/>
</svg>
