<svg width="506" height="235" viewBox="0 0 506 235" fill="none" xmlns="http://www.w3.org/2000/svg">
<path d="M188.998 145.05L193.099 123.751" stroke="#279281" stroke-width="2"/>
<path d="M219.08 134.247L224.631 111.395" stroke="#279281" stroke-width="2"/>
<path d="M54.6965 95.4009L59.1084 72.3312" stroke="#279281" stroke-width="2"/>
<path d="M120.681 131.946L124.983 107.476" stroke="#279281" stroke-width="2"/>
<path d="M96.1846 114.168L98.1996 97.5417" stroke="#279281" stroke-width="2"/>
<path d="M159.524 122.375L162.66 105.963" stroke="#279281" stroke-width="2"/>
<path d="M37.1731 115.941L33.0718 137.239" stroke="#279281" stroke-width="2"/>
<path d="M7.09082 126.744L1.53977 149.595" stroke="#279281" stroke-width="2"/>
<path d="M171.474 165.59L167.062 188.659" stroke="#279281" stroke-width="2"/>
<path d="M105.49 129.044L101.188 153.515" stroke="#279281" stroke-width="2"/>
<path d="M129.986 146.823L127.971 163.449" stroke="#279281" stroke-width="2"/>
<path d="M66.647 138.616L63.5105 155.027" stroke="#279281" stroke-width="2"/>
<path d="M245.207 152.104L241.42 171.767" stroke="#279281" stroke-width="2"/>
<path d="M214.678 161.55L209.512 182.639" stroke="#279281" stroke-width="2"/>
<path d="M374.241 198.907L370.168 220.206" stroke="#279281" stroke-width="2"/>
<path d="M310.763 164.677L306.805 187.271" stroke="#279281" stroke-width="2"/>
<path d="M334.357 181.279L332.538 196.637" stroke="#279281" stroke-width="2"/>
<path d="M273.604 173.266L270.709 188.417" stroke="#279281" stroke-width="2"/>
<path d="M390.896 180.036L394.683 160.372" stroke="#279281" stroke-width="2"/>
<path d="M419.651 170.25L424.817 149.161" stroke="#279281" stroke-width="2"/>
<path d="M261.862 133.232L265.935 111.933" stroke="#279281" stroke-width="2"/>
<path d="M329.098 150.246L333.056 127.652" stroke="#279281" stroke-width="2"/>
<path d="M301.746 150.861L303.565 135.503" stroke="#279281" stroke-width="2"/>
<path d="M362.499 158.874L365.394 143.722" stroke="#279281" stroke-width="2"/>
<path d="M143.152 24.0454L148.703 1.19399" stroke="#279281" stroke-width="2"/>
<path d="M95.5461 55.3879L91.1343 78.4576" stroke="#279281" stroke-width="2"/>
<path d="M54.0581 36.6208L52.0431 53.2469" stroke="#279281" stroke-width="2"/>
<path d="M138.75 51.3477L133.584 72.4371" stroke="#279281" stroke-width="2"/>
<path d="M298.313 88.7058L294.24 110.005" stroke="#279281" stroke-width="2"/>
<path d="M234.835 54.4756L230.877 77.07" stroke="#279281" stroke-width="2"/>
<path d="M258.429 71.0767L256.61 86.4344" stroke="#279281" stroke-width="2"/>
<path d="M197.676 63.0637L194.781 78.2153" stroke="#279281" stroke-width="2"/>
<path d="M314.968 69.834L318.755 50.1704" stroke="#279281" stroke-width="2"/>
<path d="M343.723 60.0483L348.889 38.9589" stroke="#279281" stroke-width="2"/>
<path d="M185.934 23.03L190.007 1.73117" stroke="#279281" stroke-width="2"/>
<path d="M253.17 40.0444L257.128 17.4501" stroke="#279281" stroke-width="2"/>
<path d="M225.818 40.6587L227.637 25.301" stroke="#279281" stroke-width="2"/>
<path d="M286.571 48.6721L289.466 33.5205" stroke="#279281" stroke-width="2"/>
<path d="M437.013 67.5479L441.086 46.249" stroke="#279281" stroke-width="2"/>
<path d="M500.491 101.778L504.449 79.1839" stroke="#279281" stroke-width="2"/>
<path d="M476.896 85.1768L478.716 69.8191" stroke="#279281" stroke-width="2"/>
<path d="M420.358 86.4194L416.571 106.083" stroke="#279281" stroke-width="2"/>
<path d="M391.603 96.2051L386.436 117.295" stroke="#279281" stroke-width="2"/>
<path d="M482.156 116.209L478.198 138.804" stroke="#279281" stroke-width="2"/>
<path d="M448.755 107.581L445.859 122.733" stroke="#279281" stroke-width="2"/>
</svg>
