<svg width="229" height="152" viewBox="0 0 229 152" fill="none" xmlns="http://www.w3.org/2000/svg">
<g clip-path="url(#clip0)">
<path d="M193.64 100.785C193.64 100.785 195.735 104.103 201.738 106.373C207.744 108.629 213.011 107.088 212.518 108.585C212.029 110.085 205.773 115.902 196.352 113.161C186.929 110.426 183.455 105.283 183.455 105.283L193.64 100.785Z" fill="#7DC328"/>
<path d="M28.0373 18.6273C34.4464 14.6932 49.6195 14.4494 59.8755 23.5857C70.121 32.7094 77.9455 52.5068 77.9455 52.5068C77.9455 52.5068 86.4668 54.2591 96.7427 56.3744L93.3014 87.885L73.4768 94.1082C67.3279 89.6427 60.2829 84.1275 51.9253 77.1814C8.9261 41.5287 17.1314 25.303 28.0373 18.6273Z" fill="#77B121"/>
<path d="M87.0477 92.1543C87.0477 92.1543 71.2431 83.731 63.9415 76.0219C52.3645 63.8023 50.6387 50.4868 50.6387 50.4868C50.6387 50.4868 56.9569 61.893 64.1513 70.3283C71.3256 78.7672 88.087 87.3053 90.3907 88.798C92.6886 90.289 88.4136 92.7678 88.4136 92.7678L87.0477 92.1543Z" fill="#FFE610"/>
<path d="M98.2088 83.3893C98.2088 83.3893 81.0438 72.49 76.5194 68.5794C63.7962 57.6006 64.4883 47.4846 64.4883 47.4846C64.4883 47.4846 68.6397 54.9646 76.3529 62.8927C84.0662 70.8257 96.02 79.5715 98.4151 80.9019C100.814 82.2412 99.604 83.9073 99.604 83.9073L98.2088 83.3893Z" fill="#FFE610"/>
<path d="M91.6273 87.4162L95.4248 56.0109C114.735 59.8687 147.043 66.4737 165.97 71.0891C181.447 74.8621 194.937 100.469 198.627 101.177C198.627 101.177 196.009 109.767 174.374 117.098C164.784 120.349 130.726 119.554 112.959 114.444C99.6306 110.602 89.9727 106.944 73.0062 93.9804L91.6273 87.4162Z" fill="#FFE610"/>
<path d="M91.091 82.3619C91.091 82.3619 73.2555 81.2117 70.0267 84.5336C66.7899 87.8563 66.0954 96.4239 66.0954 96.4239C66.0954 96.4239 60.8429 92.9153 57.3764 90.4369C53.9166 87.9684 50.4403 86.3862 48.2574 88.2807C47.4358 88.9924 51.8492 90.361 54.1493 92.4462L56.4515 94.5352C56.4515 94.5352 51.2028 92.7218 48.3943 93.4454C45.5881 94.1556 42.0883 95.5501 43.1897 97.1587C43.5885 97.7362 49.5677 96.3252 52.5688 97.7926C56.8534 99.8857 58.2161 102.164 58.2161 102.164C58.2161 102.164 52.9899 101.352 50.751 102.75C49.7864 103.362 48.7954 104.254 48.6381 104.903C48.4264 105.766 49.184 106.196 53.1856 105.767C57.1719 105.338 70.0371 107.851 72.7441 106.12C75.4589 104.379 74.3485 97.3675 81.2458 94.6257C88.1247 91.8818 98.5753 92.9363 98.5753 92.9363L91.091 82.3619Z" fill="#7DC328"/>
<path d="M188.785 134.468C187.755 135.738 184.494 135.976 180.844 137.174C176.877 138.473 172.476 140.663 171.199 140.469C168.755 140.095 175.281 135.2 175.281 135.2C175.281 135.2 164.217 137.611 163.335 136.418C162.446 135.214 165.556 130.971 169.937 130.669C174.311 130.373 164.539 129.338 159.481 129.939C157.879 130.125 157.822 127.192 164.667 125.888C171.512 124.595 179.102 124.924 178.723 123.483C178.35 122.03 172.376 115.895 172.376 115.895L181.476 114.706C181.476 114.706 190.935 131.846 188.785 134.468Z" fill="#7DC328"/>
<path d="M52.1485 25.2152C50.1988 24.9529 47.3747 25.3288 44.8335 28.3014C40.4441 33.4345 42.6252 41.0917 48.264 42.3085C53.9062 43.5248 58.1431 40.1626 58.9913 35.5792C59.8292 30.988 57.9021 25.9837 52.1485 25.2152Z" fill="white"/>
<path d="M48.6301 30.8665C48.315 30.7826 47.6869 30.6076 47.1577 31.4217C46.6341 32.2329 46.8547 33.4386 47.784 33.6367C48.7106 33.8389 49.4011 33.2842 49.5473 32.538C49.6845 31.7686 49.5428 31.1055 48.6301 30.8665Z" fill="black"/>
<path d="M33.2194 40.5047C33.2194 40.5047 30.2507 43.5355 27.0951 42.9457C22.3775 42.0522 22.0669 37.9831 22.0669 37.9831" stroke="black" stroke-width="0.949" stroke-linecap="round"/>
<path d="M130.624 33.3151C99.411 32.2183 77.9448 52.5068 77.9448 52.5068C77.9448 52.5068 81.121 74.8176 87.1792 83.0275C93.2282 91.2363 107.892 112.95 150.565 115.891C189.212 118.554 199.125 100.409 199.125 100.409C199.125 100.409 187.654 77.6587 182.842 68.1004C178.018 58.5493 163.225 39.0688 142.515 34.7544C138.428 33.9076 134.456 33.4469 130.624 33.3151Z" fill="#FFE610"/>
<mask id="mask0" mask-type="alpha" maskUnits="userSpaceOnUse" x="77" y="33" width="123" height="84">
<path d="M130.624 33.3151C99.411 32.2183 77.9448 52.5068 77.9448 52.5068C77.9448 52.5068 81.121 74.8176 87.1792 83.0275C93.2282 91.2364 107.892 112.95 150.565 115.891C189.212 118.554 199.125 100.409 199.125 100.409C199.125 100.409 187.654 77.6587 182.842 68.1004C178.018 58.5493 163.225 39.0688 142.515 34.7544C138.428 33.9076 134.456 33.4469 130.624 33.3151Z" fill="#FFE610"/>
</mask>
<g mask="url(#mask0)">
<path d="M127.275 40.3365L123.258 58.3138L138.197 51.638L148.095 35.6077L140.552 29.9174L132.907 29.1524L127.275 40.3365Z" fill="#2A773A"/>
<path d="M168.548 44.652L159.408 59.7475L143.847 72.2458L139.428 53.0054L149.594 35.1166L161.097 36.8475L168.548 44.652Z" fill="#2A773A"/>
<path d="M173.806 72.7413L179.558 55.3005L191.119 65.3491L194.949 75.9141L193.714 82.0807C193.714 82.0807 191.558 84.0617 189.566 85.3696C187.598 86.6747 181.688 90.1527 181.688 90.1527L173.806 72.7413Z" fill="#2A773A"/>
<path d="M129.797 32.1753L125.855 39.8837L105.787 36.128L118.356 29.5808L129.797 32.1753Z" fill="#2A773A"/>
<path d="M178.229 54.5425L172.746 71.3622L161.538 59.7006L169.218 46.2615L178.229 54.5425Z" fill="#2A773A"/>
<path d="M172.439 94.5603C172.439 94.5603 167.953 95.4616 160.066 95.1077C152.189 94.7524 150.561 94.3713 150.561 94.3713L148.271 117.194C148.271 117.194 155.982 119.389 165.583 116.179C175.192 112.965 177.025 116.797 177.025 116.797L172.439 94.5603Z" fill="#2A773A"/>
<path d="M148.53 94.0918C148.53 94.0918 142.908 93.4088 135.316 91.3824L127.728 89.3477L119.715 108.866C119.715 108.866 125.602 114.759 137.872 115.862C147.697 116.748 146.812 117.212 146.812 117.212L148.53 94.0918Z" fill="#2A773A"/>
<path d="M196.389 82.2817C196.389 82.2817 190.041 87.5702 182.727 91.3037C175.421 95.0365 174.538 94.2442 174.538 94.2442L178.513 114.109C178.513 114.109 188.891 113.614 196.248 105.935C203.589 98.2635 201.23 99.9397 201.23 99.9397L196.389 82.2817Z" fill="#2A773A"/>
<path d="M106.22 74.216C106.22 74.216 104.601 72.6851 99.3744 66.794C95.7822 62.7628 93.203 58.8156 93.203 58.8156L74.8467 72.1012C74.8467 72.1012 78.3762 80.1715 86.5794 85.7658C94.7858 91.3547 92.9915 90.5314 92.9915 90.5314L106.22 74.216Z" fill="#2A773A"/>
<path d="M92.2332 57.1994C92.2332 57.1994 89.3932 52.9275 87.6797 48.9742C84.3677 41.3231 85.0784 39.3163 85.0784 39.3163L64.2546 46.3837C64.2546 46.3837 65.4125 55.3474 71.6407 63.4021C77.8726 71.4438 74.9228 69.2576 74.9228 69.2576L92.2332 57.1994Z" fill="#2A773A"/>
<path d="M126.183 88.8632C126.183 88.8632 121.938 86.8605 115.981 83.1276C109.281 78.9206 107.2 76.2616 107.2 76.2616L94.674 91.7282C94.674 91.7282 99.4736 100.638 108.625 104.263C117.782 107.897 116.88 109.85 116.88 109.85L126.183 88.8632Z" fill="#2A773A"/>
<path d="M139.545 90.7118L143.634 74.7612L160.224 60.6858L172.414 73.5562L180.422 90.8943C175.031 93.2762 171.381 93.1849 165.924 93.4317C151.765 94.0983 139.545 90.7118 139.545 90.7118Z" fill="#2A773A"/>
<path d="M87.3605 42.8023L100.348 36.3437L125.316 41.2273L121.614 59.523L107.849 72.8875C107.849 72.8875 104.97 69.8842 100.154 64.76C90.2899 54.2515 87.3605 42.8023 87.3605 42.8023Z" fill="#2A773A"/>
<path d="M137.527 90.0363L142.704 74.1788L138.087 54.1362L122.476 60.4496L108.58 74.6795C108.58 74.6795 112.64 79.3381 121.49 84.1085C130.429 88.9172 137.527 90.0363 137.527 90.0363Z" fill="#2A773A"/>
</g>
</g>
<defs>
<clipPath id="clip0">
<rect width="210" height="97" fill="white" transform="translate(27.1191) rotate(16.2348)"/>
</clipPath>
</defs>
</svg>
