<?xml version="1.0" encoding="utf-8"?>
<!-- Generator: Adobe Illustrator 15.1.0, SVG Export Plug-In . SVG Version: 6.00 Build 0)  -->
<!DOCTYPE svg PUBLIC "-//W3C//DTD SVG 1.1//EN" "http://www.w3.org/Graphics/SVG/1.1/DTD/svg11.dtd">
<svg version="1.1" id="Layer_1" xmlns="http://www.w3.org/2000/svg" xmlns:xlink="http://www.w3.org/1999/xlink" x="0px" y="0px"
	 width="841.889px" height="543.141px" viewBox="0 52.14 841.889 543.141" enable-background="new 0 52.14 841.889 543.141"
	 xml:space="preserve">
<g>
	<path fill="#88C549" stroke="#88C549" d="M386.855,251.191c-7.465-54.744-8.627-85.433-4.977-140.177
		c2.405,44.375,4.894,68.181,17.418,102.852c-2.322-23.639-2.239-36.164,2.488-56.402c0.332,20.736,1.742,32.349,7.465,53.084
		l19.077,6.636c-8.128-42.716-6.553-65.692,0-106.169c1.161,38.901,1.659,60.716,12.442,99.534l40.643,6.636
		c-6.719-33.012-5.641-51.592,0-84.604c-0.083,34.919,0.249,54.329,11.612,84.604c-0.249-38.072,3.4-54.827,9.953-84.604
		c-2.073,34.007-2.82,53.001,6.636,84.604c-2.986-32.597-1.825-51.177,4.977-84.604c-1.244,34.505-0.829,53.084,11.612,77.968
		c1.493-26.044,6.553-51.094,28.201-88.751c-17.667,48.854-20.321,78.051-28.201,129.394H386.855z"/>
	<path fill="#88C549" stroke="#88C549" d="M496.341,276.904c-7.133-54.744-8.128-85.433-4.229-140.177
		c2.156,44.375,4.562,68.181,16.838,102.935c-2.24-23.639-1.991-36.164,2.819-56.402c0.249,20.736,1.493,32.349,7.134,53.084
		l19.077,6.719c-7.963-42.8-6.221-65.775,0.581-106.169c0.912,38.901,1.326,60.716,11.86,99.617l40.644,6.884
		c-6.553-33.095-5.392-51.591,0.497-84.604c-0.331,34.92-0.083,54.329,11.115,84.687c0-38.072,3.649-54.827,10.45-84.521
		c-2.239,34.007-3.068,52.918,6.139,84.604c-2.82-32.597-1.576-51.177,5.474-84.604c-1.409,34.505-1.161,53.084,11.198,78.051
		c1.658-26.044,6.801-51.094,28.698-88.585c-17.999,48.771-20.735,77.968-28.947,129.228L496.341,276.904z"/>
	<path fill="#087774" d="M831.19,440.554c28.284-97.211-98.787-160.83-196.33-187.622c-97.544-26.791-169.208-27.621-451.801,8.295
		c-282.593,35.998,57.481,141.918-86.594,149.051c-144.075,7.051-86.927,89,11.031,111.727s185.548,40.146,344.055,32.35
		l3.649-0.166C613.127,546.392,803.155,537.019,831.19,440.554z"/>
	<g>
		<g>
			<g>
				<defs>
					<rect id="SVGID_1_" x="98.704" y="273.586" width="157.264" height="57.564"/>
				</defs>
				<clipPath id="SVGID_2_">
					<use xlink:href="#SVGID_1_"  overflow="visible"/>
				</clipPath>
				<g clip-path="url(#SVGID_2_)">
					<path fill="#B7B19A" d="M103.266,325.095c0,26.707,27.621,48.273,61.711,48.273c34.091,0,61.711-21.648,61.711-48.273
						s-42.716-50.182-76.807-50.182C115.791,274.913,103.266,298.386,103.266,325.095z"/>
					<path fill="#CCCCB8" d="M167.963,331.648c1.908,16.838,18.994,30.689,42.468,30.689s42.468-13.686,42.468-30.689
						c0-16.922-19.326-26.791-42.468-30.689C185.713,296.894,164.977,305.105,167.963,331.648z"/>
				</g>
			</g>
		</g>
	</g>
	<path fill="#B7B19A" d="M677.326,467.843c-37.905,0-82.115,13.021-82.115,47.361c0,4.977,0,16.008,21.317,22.893
		c39.398,12.773,80.042,7.631,111.976-1.99c7.631-2.322,11.695-13.189,12.358-18.166
		C746.088,478.626,715.233,467.843,677.326,467.843z"/>
	<path fill="#CCCCB8" d="M748.078,543.904c13.188-17.254-23.224-40.395-52.504-29.031c-23.225,8.957-46.614,9.289-37.49,29.031
		C664.471,557.837,733.398,563.146,748.078,543.904z"/>
</g>
<g>
	<path fill="#7DC328" d="M257.695,286.992c0,0,2.089,3.412,8.177,5.805c6.089,2.376,11.478,0.871,10.956,2.392
		c-0.519,1.524-6.972,7.381-16.536,4.465c-9.568-2.908-13.038-8.2-13.038-8.2L257.695,286.992z"/>
	<path fill="#77B121" d="M90.033,201.074c6.584-3.934,22.051-3.992,32.38,5.46c10.318,9.438,18.026,29.739,18.026,29.739
		s8.661,1.895,19.104,4.183l-3.931,32.111l-20.286,6.1c-6.207-4.634-13.312-10.351-21.735-17.543
		C70.25,224.202,78.829,207.749,90.033,201.074z"/>
	<path fill="#FFE610" d="M149.184,276.844c0,0-15.994-8.794-23.331-16.752c-11.634-12.615-13.213-26.224-13.213-26.224
		s6.285,11.719,13.503,20.417c7.198,8.701,24.165,17.624,26.492,19.176c2.322,1.55-2.068,4.026-2.068,4.026L149.184,276.844z"/>
	<path fill="#FFE610" d="M160.676,268.041c0,0-17.346-11.337-21.905-15.385c-12.818-11.363-11.977-21.677-11.977-21.677
		s4.13,7.685,11.884,15.872c7.754,8.192,19.819,17.267,22.242,18.654c2.427,1.397,1.171,3.082,1.171,3.082L160.676,268.041z"/>
	<path fill="#FFE610" d="M153.912,272.066l4.292-31.998c19.626,4.179,52.462,11.325,71.689,16.273
		c15.721,4.044,29.126,30.343,32.876,31.112c0,0-2.783,8.733-24.93,15.942c-9.817,3.195-44.514,1.955-62.552-3.482
		c-13.53-4.087-23.324-7.941-40.439-21.383L153.912,272.066z"/>
	<path fill="#7DC328" d="M153.434,266.903c0,0-18.16-1.399-21.496,1.951c-3.343,3.349-4.166,12.083-4.166,12.083
		s-5.306-3.646-8.805-6.219c-3.493-2.563-7.014-4.221-9.265-2.315c-0.847,0.716,3.632,2.168,5.949,4.325l2.318,2.161
		c0,0-5.324-1.917-8.196-1.214c-2.869,0.69-6.455,2.069-5.354,3.725c0.399,0.593,6.511-0.771,9.55,0.764
		c4.338,2.19,5.696,4.531,5.696,4.531s-5.315-0.894-7.615,0.505c-0.991,0.611-2.013,1.51-2.182,2.169
		c-0.228,0.878,0.539,1.326,4.623,0.939c4.068-0.388,17.145,2.338,19.927,0.606c2.79-1.742,1.752-8.912,8.818-11.622
		c7.047-2.713,17.683-1.505,17.683-1.505L153.434,266.903z"/>
	<path fill="#7DC328" d="M252.292,321.301c-1.067,1.282-4.393,1.483-8.128,2.66c-4.061,1.276-8.576,3.456-9.874,3.242
		c-2.486-0.413,4.23-5.326,4.23-5.326s-11.307,2.321-12.191,1.092c-0.89-1.239,2.336-5.529,6.807-5.781
		c4.462-0.247-5.484-1.427-10.646-0.877c-1.635,0.169-1.654-2.824,5.339-4.068c6.993-1.233,14.724-0.803,14.356-2.276
		c-0.361-1.489-6.366-7.823-6.366-7.823l9.29-1.099C245.109,301.044,254.518,318.653,252.292,321.301z"/>
	<path fill="#FFFFFF" d="M114.517,208.1c-1.983-0.292-4.866,0.055-7.496,3.057c-4.542,5.183-2.422,13.023,3.308,14.336
		c5.733,1.312,10.097-2.065,11.022-6.732C122.267,214.087,120.37,208.957,114.517,208.1z"/>
	<path d="M110.855,213.822c-0.32-0.089-0.958-0.276-1.508,0.548c-0.544,0.821-0.335,2.055,0.608,2.268
		c0.942,0.218,1.653-0.339,1.812-1.099C111.918,214.756,111.782,214.077,110.855,213.822z"/>
	<path fill="none" stroke="#000000" stroke-width="0.949" stroke-linecap="round" d="M95.02,223.464c0,0-3.066,3.055-6.274,2.413
		c-4.796-0.971-5.058-5.127-5.058-5.127"/>
	<path fill="#FFE610" d="M194.383,217.353c-31.795-1.512-53.944,18.92-53.944,18.92s2.937,22.806,9.001,31.26
		c6.054,8.453,20.706,30.793,64.154,34.331c39.349,3.204,49.696-15.187,49.696-15.187s-11.384-23.359-16.16-33.173
		c-4.788-9.807-19.601-29.871-40.649-34.534C202.327,218.055,198.286,217.535,194.383,217.353z"/>
	<defs>
		<filter id="Adobe_OpacityMaskFilter" filterUnits="userSpaceOnUse" x="126.57" y="213.133" width="139.239" height="90.864">
			<feColorMatrix  type="matrix" values="1 0 0 0 0  0 1 0 0 0  0 0 1 0 0  0 0 0 1 0"/>
		</filter>
	</defs>
	<mask maskUnits="userSpaceOnUse" x="126.57" y="213.133" width="139.239" height="90.864" id="mask0_1_">
		<path fill="#FFE610" filter="url(#Adobe_OpacityMaskFilter)" d="M194.383,217.353c-31.795-1.512-53.944,18.92-53.944,18.92
			s2.937,22.806,9.001,31.26c6.054,8.453,20.706,30.793,64.154,34.331c39.349,3.204,49.696-15.187,49.696-15.187
			s-11.384-23.359-16.16-33.173c-4.788-9.807-19.601-29.871-40.649-34.534C202.327,218.055,198.286,217.535,194.383,217.353z"/>
	</mask>
	<g mask="url(#mask0_1_)">
		<path fill="#2A773A" d="M190.875,224.475l-4.335,18.293l15.314-6.624l10.302-16.234l-7.61-5.901l-7.78-0.876L190.875,224.475z"/>
		<path fill="#2A773A" d="M232.876,229.397l-9.517,15.288l-16.026,12.558l-4.246-19.688l10.601-18.126l11.7,1.911L232.876,229.397z"
			/>
		<path fill="#2A773A" d="M237.858,258.126l6.095-17.725l11.647,10.399l3.761,10.829l-1.342,6.277c0,0-2.224,1.995-4.27,3.304
			c-2.024,1.307-8.094,4.782-8.094,4.782L237.858,258.126z"/>
		<path fill="#2A773A" d="M193.554,216.178l-4.121,7.816l-20.4-4.085l12.897-6.522L193.554,216.178z"/>
		<path fill="#2A773A" d="M242.61,239.611l-5.813,17.095l-11.266-12.041l8.007-13.616L242.61,239.611z"/>
		<path fill="#2A773A" d="M236.17,280.373c0,0-4.583,0.863-12.617,0.403c-8.022-0.462-9.675-0.871-9.675-0.871l-2.641,23.259
			c0,0,7.828,2.336,17.655-0.817c9.836-3.16,11.652,0.773,11.652,0.773L236.17,280.373z"/>
		<path fill="#2A773A" d="M211.814,279.594c0,0-5.72-0.767-13.43-2.932l-7.706-2.171l-8.428,19.816c0,0,5.921,6.087,18.41,7.367
			c10,1.028,9.092,1.49,9.092,1.49L211.814,279.594z"/>
		<path fill="#2A773A" d="M260.743,268.145c0,0-6.541,5.317-14.045,9.034c-7.495,3.718-8.384,2.897-8.384,2.897l3.784,20.321
			c0,0,10.583-0.375,18.185-8.118c7.583-7.736,5.158-6.055,5.158-6.055L260.743,268.145z"/>
		<path fill="#2A773A" d="M168.962,258.78c0,0-1.628-1.581-6.875-7.659c-3.607-4.158-6.183-8.219-6.183-8.219l-18.885,13.326
			c0,0,3.488,8.28,11.773,14.091c8.288,5.807,6.47,4.944,6.47,4.944L168.962,258.78z"/>
		<path fill="#2A773A" d="M154.937,241.241c0,0-2.837-4.395-4.53-8.451c-3.272-7.849-2.521-9.888-2.521-9.888l-21.316,6.95
			c0,0,1.06,9.161,7.298,17.458c6.243,8.285,3.266,6.017,3.266,6.017L154.937,241.241z"/>
		<path fill="#2A773A" d="M189.11,273.979c0,0-4.298-2.098-10.321-5.982c-6.771-4.377-8.855-7.116-8.855-7.116l-12.973,15.625
			c0,0,4.771,9.151,14.048,12.965c9.283,3.824,8.339,5.805,8.339,5.805L189.11,273.979z"/>
		<path fill="#2A773A" d="M202.701,276.032l4.381-16.225l17.097-14.154l12.248,13.286l7.928,17.793
			c-5.525,2.363-9.244,2.224-14.808,2.407C215.109,279.642,202.701,276.032,202.701,276.032z"/>
		<path fill="#2A773A" d="M150.165,226.489l13.322-6.427l25.378,5.297l-4.018,18.623l-14.208,13.465c0,0-2.894-3.102-7.732-8.39
			C152.996,238.208,150.165,226.489,150.165,226.489z"/>
		<path fill="#2A773A" d="M200.654,275.318l5.488-16.117l-4.435-20.509l-15.993,6.246l-14.354,14.345c0,0,4.074,4.804,13.03,9.785
			C193.437,274.086,200.654,275.318,200.654,275.318z"/>
	</g>
</g>
<g>
	<path fill="#BAB4A0" d="M332.064,142.039c2.227-7.008,4.205-26.631,20.035-45.263c15.583-18.304,35.947-26.054,33.309-11.048
		c-2.639,15.005-26.961,38.42-38.503,51.365C342.205,142.533,330.415,147.233,332.064,142.039z"/>
	<path fill="none" stroke="#FFFFFF" stroke-width="0.523" d="M338.577,142.122c0,0,3.545-16.902,12.861-22.755
		c9.4-5.937,17.891-6.184,17.891-6.184"/>
	<path fill="none" stroke="#FFFFFF" stroke-width="0.523" d="M358.118,101.723c0,0,0.906,3.297,1.071,6.76s-0.577,7.173-0.577,7.173
		"/>
	<path fill="none" stroke="#FFFFFF" stroke-width="0.523" d="M347.729,122.499c0,0-0.906-7.008-2.638-10.388
		c-1.731-3.298-3.215-4.617-3.215-4.617"/>
	<path fill="none" stroke="#FFFFFF" stroke-width="0.523" d="M340.969,134.371c0,0,6.678-4.287,9.729-4.452l3.051-0.165"/>
	<path fill="none" stroke="#FFFFFF" stroke-width="0.523" d="M359.189,107.659c0,0,5.771-6.349,12.944-8.492
		c4.947-1.566,7.916-0.989,7.916-0.989"/>
	<path fill="none" stroke="#FFFFFF" stroke-width="0.523" d="M344.76,111.533c0,0,7.998-3.957,13.357-9.894
		c7.255-7.915,7.172-19.127,7.172-19.127"/>
	<path fill="none" stroke="#FFFFFF" stroke-width="0.523" d="M371.638,99.332c0,0,3.545-7.008,2.061-14.676
		c-0.989-5.359-1.566-5.194-1.566-5.194"/>
	<path fill="none" stroke="#FFFFFF" stroke-width="0.523" d="M342.699,130.496c0,0-4.287-5.194-6.678-6.018
		c-2.391-0.907-1.731-0.413-1.731-0.413"/>
	<path fill="none" stroke="#000000" stroke-width="0.784" stroke-linecap="round" d="M368.918,167.68
		c-1.236,9.564-1.154,8.987-1.319,12.531c0,0.33-4.699,0-4.453,0"/>
	<path fill="none" stroke="#000000" stroke-width="0.784" stroke-linecap="round" d="M352.676,164.547
		c-1.237,9.563-1.154,8.986-1.32,12.532c0,0.331-4.699,0-4.452,0"/>
	<path fill="none" stroke="#000000" stroke-width="0.784" stroke-linecap="round" d="M337.094,163.475
		c-3.711,8.904-3.463,8.327-4.535,11.79c-0.082,0.33-4.534-1.236-4.287-1.154"/>
	<path fill="#2A773A" d="M311.782,127.693c-6.349,6.513-9.729,19.787-5.277,27.042c8.904,14.511,25.971,9.564,25.971,9.564
		s16.077,6.183,29.434,7.008c13.356,0.824,24.239,2.802,22.178-10.883c-1.978-13.769-7.667-30.258-22.178-33.144
		c-14.511-2.803-19.292,0.825-19.292,0.825S326.375,112.77,311.782,127.693z"/>
	<path fill="#FFFFFF" d="M318.378,131.239c-3.297,0.907-5.688-1.814-5.688-5.359s3.958-6.348,7.337-5.689
		C324.891,121.18,326.128,129.095,318.378,131.239z"/>
	<path fill="none" stroke="#CCCCB8" stroke-width="0.251" stroke-linecap="round" d="M312.689,126.622c0-0.33,0-0.495,0-0.742
		c0-3.545,3.958-6.348,7.337-5.689c0.99,0.165,1.649,0.577,2.309,1.154"/>
	<path fill="#FFFFFF" d="M335.032,127.858c2.226-1.731,6.596-2.061,9.399,0.742s2.473,6.596,0,9.729
		c-2.474,3.133-7.75,3.875-10.883,0.083C330.663,134.866,331.899,130.249,335.032,127.858z"/>
	<path d="M318.048,125.22c0,0.907-0.659,1.319-1.319,1.319c-0.66,0-1.236-0.578-1.236-1.319s0.577-1.319,1.236-1.319
		C317.389,123.901,318.048,124.478,318.048,125.22z"/>
	<path d="M338.742,133.052c0,0.989-0.742,1.402-1.484,1.402s-1.401-0.66-1.401-1.402c0-0.742,0.659-1.402,1.401-1.402
		C338.083,131.65,338.742,132.31,338.742,133.052z"/>
	<path fill="#41AA54" d="M318.46,137.174c-3.132-1.236-10.388-2.308-12.284-3.71c-1.237-0.907-0.412-2.309-1.813-3.215
		c-2.062-1.402-4.618-0.248-6.101,3.463c-1.319,3.297-0.33,6.101,2.555,6.431c2.721,0.33,2.886-2.061,4.371-2.144
		c1.648-0.165,9.481,2.721,11.294,3.792C317.801,142.533,319.614,137.669,318.46,137.174z"/>
	<path fill="none" stroke="#000000" stroke-width="0.8" stroke-linecap="round" d="M314.915,145.337c0,0,0.907,1.979,2.391,2.309
		c1.896,0.412,2.969-1.154,2.969-1.154"/>
	<path fill="none" stroke="#41AA54" stroke-width="0.677" d="M349.378,128.683c0,0,1.732,13.026-3.545,25.641
		c-3.05,7.337-6.101,9.894-6.101,9.894"/>
	<path fill="none" stroke="#41AA54" stroke-width="0.677" d="M378.647,146.738c0,0,0.083,10.388-6.102,16.325
		c-4.205,4.123-8.821,6.761-8.821,6.761"/>
	<path fill="none" stroke="#41AA54" stroke-width="0.677" d="M365.043,131.156c0,0,2.226,10.635-2.968,23.333
		c-3.051,7.338-11.047,13.604-11.047,13.604"/>
	<path fill="#CCCCB8" d="M347.729,129.672c4.947-5.442,14.511-21.436,36.606-31.742c21.849-10.141,45.429-7.502,36.771,5.029
		c-8.657,12.532-40.481,23.663-56.394,30.67C358.199,136.598,344.019,133.712,347.729,129.672z"/>
	<path fill="none" stroke="#FFFFFF" stroke-width="0.523" d="M355.149,134.701c0,0,10.224-13.851,21.188-15.334
		c10.966-1.484,18.799,1.813,18.799,1.813"/>
	<path fill="none" stroke="#FFFFFF" stroke-width="0.523" d="M389.777,106.092c0,0-0.577,3.38-1.813,6.596
		c-1.238,3.215-3.545,6.266-3.545,6.266"/>
	<path fill="none" stroke="#FFFFFF" stroke-width="0.523" d="M371.638,120.685c0,0,2.144-6.761,1.896-10.553
		c-0.165-3.793-0.99-5.524-0.99-5.524"/>
	<path fill="none" stroke="#FFFFFF" stroke-width="0.523" d="M360.508,128.683c0,0,7.833-1.072,10.718,0l2.886,1.071"/>
	<path fill="none" stroke="#FFFFFF" stroke-width="0.523" d="M388.128,112.028c0,0,7.915-3.298,15.253-2.391
		c5.194,0.659,7.584,2.391,7.584,2.391"/>
	<path fill="none" stroke="#FFFFFF" stroke-width="0.523" d="M373.452,109.39c0,0,8.905-0.165,16.243-3.298
		c9.894-4.122,14.511-14.428,14.511-14.428"/>
	<path fill="none" stroke="#FFFFFF" stroke-width="0.523" d="M403.051,109.555c0,0,6.184-4.946,7.998-12.45
		c1.318-5.276,0.741-5.359,0.741-5.359"/>
	<path fill="none" stroke="#FFFFFF" stroke-width="0.523" d="M363.724,125.879c0,0-1.732-6.513-3.545-8.245
		c-1.814-1.814-1.402-1.072-1.402-1.072"/>
</g>
<g>
	<path fill="#FFB300" d="M473.253,312.203c-0.348-3.75-2.668-14.979-2.668-14.979s13.291,2.709,17.965,1.145
		c4.685-1.563,14.436-9.746,14.436-1.563c0,8.192-7.357,17.06-10.678,19.766c-10.926,8.894-19.096,8.921-19.096,8.921
		S473.561,315.524,473.253,312.203z"/>
	<path fill="#41AA54" d="M471.966,297.571c-5.816-24.249-53.618-27.19-53.875,17.084c-0.1,18.086-5.471,21.055-5.471,21.055
		l57.966,17.33C470.587,353.041,477.124,319.095,471.966,297.571z"/>
	<path fill="#B7B19A" d="M471.14,349.052c0,0,11.309,36.029-22.541,52.432c-23.805,11.536-56.286,11.588-76.984-4.139
		c-20.692-15.723-38.073-52.086-34.764-52.875c3.311-0.798,8.281,3.348,8.281,3.348s-6.619-9.938-4.141-9.938
		c2.479,0,9.929,6.59,9.929,6.59s-6.048-7.591-2.479-6.59c4.354,1.23,10.159,8.795,21.598,10.275
		c25.289,3.277,43.897-12.75,43.897-12.75L471.14,349.052z"/>
	<path fill="#FFFFFF" d="M472.603,344.208v11.805c0,0-22.555-3.387-32.176-5.297c-21.771-4.338-27.806-15.005-27.806-15.005
		l2.54-8.495c0,0,1.598,6.992,20.565,12.376C444.149,341.984,472.603,344.208,472.603,344.208z"/>
	<path fill="#FFFFFF" d="M444.322,311.668c4.867,0.66,8.1-2.403,8.77-7.268c0.662-4.864-2.141-8.752-7.006-9.417
		c-4.865-0.659-8.34,2.879-9.004,7.746C436.423,307.589,439.456,311,444.322,311.668z"/>
	<path d="M447.066,304.857c1.035,0.143,1.563-0.548,1.678-1.357c0.108-0.813-0.457-1.557-1.268-1.666
		c-0.809-0.11-1.553,0.455-1.661,1.268C445.7,303.908,446.257,304.75,447.066,304.857z"/>
	<path fill="#CCCCB8" d="M389.388,355.912c-15.639,0.924-25.955-11.051-23.498-3.072c2.45,7.98,11.944,33.488,34.656,29.809
		c22.708-3.682,27.836-21.006,18.121-29.188C409.066,345.367,400.916,355.23,389.388,355.912z"/>
	<path fill="none" stroke="#000000" stroke-width="0.955" stroke-linecap="round" d="M467.423,315.865c0,0-1.217,2.691-3.271,3.09
		c-2.622,0.503-4.007-1.547-4.007-1.547"/>
	<path fill="#087774" d="M351.9,400.14c-0.173,6.096,6.529,9.787,13.62,14.055c3.278,0.094,4.249,1.199,7.311,1.666
		c4.097,0.622,9.061-0.342,13.016,0.691c4.521,1.18,11.736,0.623,16.721,0.765l19.161,0.546c16.586,0.471,31.552,1.241,47.214-1.932
		c4.328-0.877,8.703-3.145,13.418-3.279l0.079-0.002c2.456-0.07,4.359-0.123,6.206-0.975c4.55-2.098,13.385-2.485,12.017-6.979
		c-1.256-4.129-5.384-4.508-11.051-6.608c-4.018-1.49-7.882-3.136-11.918-4.642c-5.234-1.955-10.111-2.022-16.102-2.193
		c-11.42-0.325-21.811,2.842-31.787,5.421c-7.43,1.922-14.283,5.017-22.972,5.126c-8.136,0.102-14.592-2.569-21.237-4.939
		c-5.685-2.027-12.958-2.938-19.493-3.123C358.322,393.515,352.025,395.76,351.9,400.14z"/>
</g>
<g>
	<path fill="#869A2A" d="M726.921,409.82c-0.076,5.781-4.666,10.412-10.229,10.343c-5.573-0.071-10.039-4.822-9.964-10.604
		c0.075-5.788,4.657-10.413,10.228-10.344C722.525,399.289,726.994,404.027,726.921,409.82z"/>
	<path fill="#869A2A" d="M695.831,413.035c0.615,6.547-4.801,10.726-10.526,10.652c-5.739-0.074-9.862-4.494-10.261-10.92
		c-0.361-5.939,4.816-10.178,10.529-10.643C691.673,401.632,695.249,407.111,695.831,413.035z"/>
	<path fill="#869A2A" d="M708.792,462.809c0,0,7.743,15.101,11.748,18.063c3.248,2.398,4.684,1.191,4.684,1.191
		s9.486-3.061,8.103-0.932c-1.383,2.141-7.633,3.363-7.633,3.363s11.194,0.682,9.663,2.055c-1.528,1.362-10.842,1.395-10.842,1.395
		s11.785,3.331,9.012,3.926c-3.867,0.834-13.818-0.855-15.193-3.102c-1.385-2.244-13.404-14.59-16.379-18.106
		C699.004,467.146,708.792,462.809,708.792,462.809z"/>
	<path fill="#FFFFFF" d="M724.847,409.796c-0.057,4.595-3.707,8.275-8.129,8.217c-4.432-0.057-7.982-3.83-7.923-8.421
		c0.06-4.604,3.706-8.28,8.136-8.226C721.349,401.423,724.908,405.192,724.847,409.796z"/>
	<path fill="#869A2A" d="M691.782,408.387c20.385-2.714,60.191,6.932,56.573,25.591c-2.978,15.326-20.704,18.02-20.704,18.02
		s-3.188,17.481-25.697,18.663c-12.535,17.636-33.247,28.523-53.02,27.094c-19.666-1.427-29.916-21.185-16.299-45.235
		c12.954-22.848,34.971-27.48,34.971-27.48S673.222,410.86,691.782,408.387z"/>
	<path fill="#6A2403" d="M687.36,453.148c2.374,1.684,1.085,4.365-1.357,2.754C683.532,454.269,684.933,451.425,687.36,453.148z"/>
	<path fill="#6A2403" d="M681.07,457.068c2.471,1.576,1.301,4.408-1.246,2.907C677.305,458.484,678.57,455.492,681.07,457.068z"/>
	<path fill="#6A2403" d="M674.495,450.277c2.436,1.609,1.072,4.576-1.419,3.05C670.548,451.775,672.021,448.65,674.495,450.277z"/>
	<path fill="#6A2403" d="M682.306,440.033c-2.324-1.827-0.508-4.723,1.736-2.814C686.292,439.111,684.616,441.837,682.306,440.033z"
		/>
	<path fill="#6A2403" d="M661.664,446.989c-2.531-1.538-0.938-4.944,1.567-3.317C665.656,445.257,664.157,448.504,661.664,446.989z"
		/>
	<path fill="#6A2403" d="M643.889,448.024l0.071-0.546c0.959-2.412,5.25-0.906,4.334,1.434c-0.393,1.023-1.471,1.279-2.445,1.115
		c0.229,1.426-0.926,2.836-2.721,1.947C640.752,450.787,641.7,447.523,643.889,448.024z"/>
	<path fill="#6A2403" d="M661.882,436.747c-2.429-1.652-0.568-5.067,1.808-3.321C666.053,435.16,664.312,438.414,661.882,436.747z"
		/>
	<path fill="#6A2403" d="M644.747,464.96c-1.361-0.568-1.801-1.826-1.473-2.758c-0.052-0.25-0.041-0.521,0.045-0.82
		c0.734-2.402,5.123-1.216,4.43,1.104l-0.389,0.678C647.504,464.429,646.511,465.694,644.747,464.96z"/>
	<path fill="#6A2403" d="M667.719,425.33c2.718-0.02,3.87,4.076,1.259,4.146C666.312,429.591,664.966,425.408,667.719,425.33z"/>
	<path fill="#6A2403" d="M686.093,450.209c2.744-0.288,4.098,3.937,1.357,4.22C684.696,454.767,683.306,450.554,686.093,450.209z"/>
	<path fill="#6A2403" d="M673.745,438.602c-2.773,0.487-4.267-3.81-1.389-4.272C675.2,433.919,676.48,438.162,673.745,438.602z"/>
	<path fill="#6A2403" d="M656.798,434.541c-2.67,0.418-4.375-3.646-1.607-4.043C657.88,430.148,659.491,434.191,656.798,434.541z"/>
	<path fill="#6A2403" d="M677.487,445.496c-2.548,0.148-4.336-3.652-1.756-3.813C678.247,441.564,680.016,445.398,677.487,445.496z"
		/>
	<path fill="#6A2403" d="M653.366,450.88c-2.604,0.613-4.684-3.186-2.047-3.806C653.915,446.498,655.976,450.323,653.366,450.88z"/>
	<path fill="#6A2403" d="M661.691,437.458c2.643-0.295,4.346,3.606,1.771,3.934C660.839,441.75,659.031,437.822,661.691,437.458z"/>
	<path fill="#6A2403" d="M655.556,443.792c-2.715,0.572-4.485-3.508-1.695-4.068C656.576,439.217,658.278,443.284,655.556,443.792z"
		/>
	<path fill="#6A2403" d="M675.95,437.013c-2.576,0.103-4.172-3.857-1.541-3.957C677.006,433.029,678.492,436.935,675.95,437.013z"/>
	<path fill="#6A2403" d="M668.187,454.725v0.231l-0.004,0.012l-0.049,0.542c-0.141,0.374-0.422,0.589-0.736,0.741
		c0.676,1.441-0.497,2.996-2.466,1.973c-1.625-0.854-1.747-2.433-0.972-3.174c-0.164-0.34-0.236-0.707-0.09-1.112l0.061-0.093
		c-0.262-0.76-0.038-1.52,1.021-1.702C666.724,451.83,668.259,453.566,668.187,454.725z"/>
	<path fill="#6A2403" d="M684.452,428.826c2.545,0.241,3.683,4.32,1.137,4.05C683.001,432.684,681.833,428.643,684.452,428.826z"/>
	<path fill="#6A2403" d="M638.409,453.518c-2.61,0.898-4.87-2.967-2.152-3.838C638.908,448.862,641.052,452.699,638.409,453.518z"/>
	<path fill="#6A2403" d="M680.675,451.13c2.473-0.117,4.429,3.531,1.961,3.648C680.151,454.931,678.171,451.298,680.675,451.13z"/>
	<path fill="#6A2403" d="M654.106,460.054c-0.38-1.374,0.753-2.818,2.593-1.865c2.08,1.07,1.722,3.382,0.158,3.631
		c0.284,0.763,0.156,1.544-0.906,1.832c-2.505,0.715-4.929-2.846-2.355-3.559L654.106,460.054z"/>
	<path fill="#6A2403" d="M641.411,442.806c0.957-2.618,5.3-1.266,4.373,1.285C644.875,446.605,640.46,445.423,641.411,442.806z"/>
	<path fill="#6A2403" d="M633.929,457.443c-0.712,2.639-5.227,1.84-4.469-0.914C630.224,453.772,634.695,454.786,633.929,457.443z"
		/>
	<path fill="#6A2403" d="M641.656,470.096c-0.613,2.735-5.174,2.222-4.531-0.632C637.779,466.611,642.282,467.328,641.656,470.096z"
		/>
	<path fill="#6A2403" d="M638.679,463.683c-0.635,2.462-5.147,1.645-4.461-0.928C634.896,460.193,639.33,461.187,638.679,463.683z"
		/>
	<path fill="#6A2403" d="M656.988,454.033c-0.83,2.166-5.133,0.82-4.311-1.473C653.55,450.292,657.825,451.826,656.988,454.033z"/>
	<path fill="#6A2403" d="M635.939,471.983c-0.515,2.496-5.068,1.957-4.51-0.646C631.984,468.72,636.478,469.46,635.939,471.983z"/>
	<path fill="#6A2403" d="M633.505,484.33c-0.721,3.117-5.32,2.814-4.586-0.445C629.702,480.652,634.261,481.191,633.505,484.33z"/>
	<path fill="#6A2403" d="M631.544,465.224c-0.349,2.811-4.929,2.725-4.556-0.234C627.38,462.029,632.003,462.427,631.544,465.224z"
		/>
	<path fill="#6A2403" d="M635.263,474.326c-0.291,3.07-4.852,3.322-4.588,0.057C631.046,471.19,635.656,471.276,635.263,474.326z"/>
	<path fill="#6A2403" d="M647.272,436.851c1.141-2.506,5.373-0.828,4.263,1.625C650.456,440.894,646.148,439.374,647.272,436.851z"
		/>
	<path fill="#FFFFFF" d="M693.463,413.003c0.484,5.06-3.698,8.279-8.13,8.225c-4.425-0.055-7.609-3.467-7.92-8.428
		c-0.285-4.594,3.71-7.871,8.135-8.228C690.265,404.189,693.016,408.425,693.463,413.003z"/>
	<path d="M688.525,412.953c0.092,0.953-0.701,1.559-1.549,1.55c-0.836-0.007-1.438-0.649-1.51-1.589
		c-0.039-0.871,0.713-1.499,1.553-1.564C687.92,411.28,688.445,412.083,688.525,412.953z"/>
	<path d="M720.06,406.564c0.082,0.85-0.618,1.393-1.372,1.383c-0.746-0.011-1.282-0.578-1.335-1.417
		c-0.049-0.779,0.631-1.331,1.371-1.396C719.525,405.075,719.989,405.783,720.06,406.564z"/>
	<path fill="none" stroke="#000000" stroke-width="0.612" stroke-linecap="round" d="M727.651,451.996
		c-18.829,1.598-25.337-9.616-25.337-9.616"/>
	<path fill="#68701F" d="M710.505,469.431c-2.43-2.941-15.007-0.752-27.889,6.642c-18.211,10.442-45.186,13.127-39.443,18.206
		c5.741,5.064,9.035,4.932,18.536,2.736c9.919-2.29,19.797-3.609,34.181-14.439C704.221,476.297,706.702,473.124,710.505,469.431z"
		/>
	<path fill="#9DB22D" d="M647.49,469.054c5.956-5.678,26.541-13.599,33.191-5.875c6.639,7.731-8.047,34.047-8.047,34.047
		s28.74-1.689,27.25,0.346c-1.488,2.039-14.266,1.676-14.266,1.676s15.652,1.822,15.355,3.61
		c-0.301,1.787-15.973-1.014-15.973-1.014s12.703,5.999,11.504,7.45c-1.178,1.451-12.434-2.926-21.322-5.271
		c-8.888-2.354-14.387,2.114-14.048-1.673c0.354-3.798,7.651-17.767,7.651-17.767s-11.722,17.853-23.167,13.209
		C626.804,490.16,642.432,473.906,647.49,469.054z"/>
	<path d="M738.757,434.375c-0.015,0.736-0.621,1.338-1.371,1.331c-0.754-0.011-1.361-0.63-1.351-1.368
		c0.015-0.763,0.634-1.355,1.38-1.344C738.167,433.005,738.765,433.613,738.757,434.375z"/>
	<path d="M744.269,432.488c-0.008,0.602-0.497,1.078-1.094,1.068c-0.592-0.007-1.071-0.496-1.066-1.096
		c0.007-0.588,0.502-1.064,1.098-1.055C743.798,431.415,744.273,431.898,744.269,432.488z"/>
	<path fill="#869A2A" d="M699.339,462.688c0,0,3.504,23.438,6.853,27.132c2.704,3,4.341,2.104,4.341,2.104s9.915-1.097,8.13,0.714
		c-1.782,1.822-8.155,1.762-8.155,1.762s10.845,2.911,9.076,3.948c-1.769,1.033-10.91-0.8-10.91-0.8s10.889,5.624,8.049,5.656
		c-3.937,0.039-13.357-3.615-14.261-6.084c-0.917-2.488-10.896-24.066-13.109-28.113
		C687.157,464.967,699.339,462.688,699.339,462.688z"/>
</g>
<g>
	<path fill="#7DC32A" d="M674.64,249.983l0.29-7.266c0,0-5.513,0.477-7.429-3.683c-1.396-3.033-0.682-9.319,3.38-11.041
		c4.062-1.719,12.842-0.072,12.112,6.975c-0.641,6.187-5.319,7.374-5.319,7.374l0.276,6.929L674.64,249.983z"/>
	<path fill="#7DC32A" d="M685.714,252.059l4.746-6.007c0,0-3.783-4.676-1.614-9.025c2.166-4.35,6.052-5.742,9.146-5.121
		c3.094,0.618,8.303,4.967,7.108,9.834c-1.215,4.956-4.124,7.004-7.217,7.21c-3.094,0.208-4.657-0.638-4.657-0.638l-4.83,5.818
		L685.714,252.059z"/>
	<path fill="#7DC328" d="M793.294,286.807c0,0,2.682,8.282-10.104,8.282c-12.786,0-70.941-3.313-79.396-7.25
		c-8.455-3.934-10.518-6.834-11.547-13.877c-1.033-7.04,3.091-25.263-9.283-26.714c-12.372-1.45-20.417,2.691-18.767,22.161
		c1.648,19.467,8.66,24.23,15.881,29.203c7.218,4.969,17.939,6.628,46.193,7.869c28.254,1.243,28.459,0.829,40.214,0
		c11.756-0.829,24.594-3.105,27.044-8.077C795.976,293.435,793.294,286.807,793.294,286.807z"/>
	<path fill="#F989B8" d="M671.45,250.032c0,1.482-1.149,2.685-2.571,2.685c-1.421,0-2.575-1.203-2.575-2.685
		c0-1.48,1.154-2.682,2.575-2.682C670.301,247.35,671.45,248.551,671.45,250.032z"/>
	<path fill="#FFFFFF" d="M701.818,240.882c0,2.764-2.271,5.33-5.442,5.112c-2.813-0.193-5.107-2.243-5.107-5.006
		c0-2.768,2.288-5.22,5.107-5.22S701.818,238.114,701.818,240.882z"/>
	<path fill="#FFFFFF" d="M680.088,234.021c0.563,2.646-1.087,5.568-4.168,6.01c-2.729,0.397-5.344-1.094-5.905-3.737
		c-0.563-2.647,1.127-5.467,3.823-6.046C676.536,229.667,679.526,231.375,680.088,234.021z"/>
	<path d="M676.521,234.794c0.195,0.922-0.385,1.442-1.099,1.596c-0.714,0.153-1.417-0.305-1.567-1.022
		c-0.154-0.717,0.299-1.424,1.015-1.577C675.583,233.637,676.369,234.077,676.521,234.794z"/>
	<path d="M698.457,241.082c0,0.938-0.676,1.326-1.406,1.326c-0.731,0-1.325-0.594-1.325-1.326c0-0.736,0.594-1.329,1.325-1.329
		C697.781,239.753,698.457,240.346,698.457,241.082z"/>
	<defs>
		<filter id="Adobe_OpacityMaskFilter_1_" filterUnits="userSpaceOnUse" x="669.105" y="253.222" width="15.628" height="13.838">
			<feColorMatrix  type="matrix" values="1 0 0 0 0  0 1 0 0 0  0 0 1 0 0  0 0 0 1 0"/>
		</filter>
	</defs>
	<mask maskUnits="userSpaceOnUse" x="669.105" y="253.222" width="15.628" height="13.838" id="mask1_1_">
		<path fill="#FFFFFF" filter="url(#Adobe_OpacityMaskFilter_1_)" d="M670.419,253.222c0,0,1.304,4.554,6.696,6.051
			c5.177,1.437,7.617-2.423,7.617-2.423s-1.922,12.153-9.383,9.94C667.03,264.319,670.419,253.222,670.419,253.222z"/>
	</mask>
	<g mask="url(#mask1_1_)">
		<path fill="#FFFFFF" d="M670.419,253.222c0,0,1.304,4.554,6.696,6.051c5.177,1.437,7.617-2.423,7.617-2.423
			s-1.922,12.153-9.383,9.94C667.03,264.319,670.419,253.222,670.419,253.222z"/>
		<path fill="none" stroke="#000000" stroke-width="0.8" d="M672.042,255.308l-2.559,7.536"/>
		<path fill="none" stroke="#000000" stroke-width="0.8" d="M681.391,258.073l-0.947,8.648"/>
		<path fill="none" stroke="#000000" stroke-width="0.8" d="M676.29,258.847l-2.513,7.752"/>
	</g>
	<path fill="#F989B8" d="M690.865,256.418c0,1.482-1.154,2.682-2.574,2.682c-1.422,0-2.576-1.199-2.576-2.682
		c0-1.483,1.154-2.683,2.576-2.683C689.71,253.736,690.865,254.936,690.865,256.418z"/>
	<path fill="#9B3403" d="M710.392,239.831c12.888-19.682,61.878-31.368,73.212,12.185c3.669,14.11-7.183,40.785-19.385,43.567
		c-12.206,2.782-40.333-1.102-45.165-2.974C706.764,287.844,696.442,261.146,710.392,239.831z"/>
	<path fill="#6A2403" d="M761.695,272.033c0,0,1.851-3.803,2.249-5.149c0.349-1.178,0.797-4.854,0.797-4.854l19.212,1.504
		c0.564-4.217,0.511-8.216-0.349-11.521c-1.177-4.52-2.763-8.436-4.668-11.819c-5.517,4.176-15.419,11.701-15.438,11.923
		c0,0-1.313-3.095-3.401-5.14c-0.932-0.91-4.184-3.089-4.184-3.089l10.437-16.794c-7.52-4.428-16.335-5.585-24.831-4.505
		c1.109,5.673,4.104,20.894,4.336,21.008c0,0-5.601,1.764-7.099,2.417c-1.337,0.581-4.21,2.409-4.21,2.409l-13.114-18.797
		c-4.678,2.872-8.541,6.385-11.04,10.203c-1.65,2.521-2.95,5.119-3.957,7.745c4.403,2.22,19.973,10.051,20.212,9.922
		c0,0-1.714,4.629-2.047,6.236c-0.892,4.305-0.403,7.971-0.403,7.971l-19.665-0.913c2.118,10.698,8.045,19.306,14.522,21.817
		c2.823,1.094,13.602,2.873,24.509,3.609c0.939-6.279,2.725-18.374,2.579-18.543c0,0,2.052,0.895,5.919,0.93
		c0.842,0.009,3.271-0.793,3.271-0.793l5.83,18.289c1.097-0.139,2.127-0.308,3.057-0.52c5.655-1.289,11.017-7.713,14.781-15.637
		C773.026,277.138,761.904,271.947,761.695,272.033z M730.666,286.73c0,0-2.836-4.957-3.748-7.205
		c-0.952-2.346-2.721-7.591-2.721-7.591s16.601-4.182,16.793-4.413c0,0,0.124,2.736,0.454,3.619
		c0.904,2.387,1.957,3.742,1.957,3.742L730.666,286.73z M743.235,261.692c-0.461,0.452-1.363,2.204-1.363,2.204l-14.959-6.681
		c0,0,2.06-3.4,3.199-4.654c1.186-1.304,4.034-3.954,4.034-3.954s11.494,11.272,11.771,11.368
		C745.917,259.975,744.571,260.387,743.235,261.692z M763.973,252.843c0,0,0.583,3.074,0.871,4.385
		c0.296,1.373-0.104,4.799-0.104,4.799s-10.985,1.558-11.155,1.688c0,0,0.21-1.145-0.084-2.021
		c-0.109-0.329-0.825-1.114-0.825-1.114L763.973,252.843z M747.963,259.378l-1.751-15.957c0,0,3.102-0.317,4.487-0.221
		c2.683,0.188,4.504,1.167,4.504,1.167s-3.333,15.372-3.274,15.651c0,0-0.963-0.64-2.349-0.64H747.963z M758.825,275.179
		c-1.03,0.658-3.08,1.947-3.08,1.947s-5.787-10.061-5.945-10.163c0,0,1.277-0.046,1.703-0.263c0.191-0.096,0.798-0.661,0.798-0.661
		l9.397,6.087C761.698,272.126,759.816,274.546,758.825,275.179z"/>
</g>
<g>
	<path fill="#FF0000" d="M259.249,496.065l3.637,6.682c0,0-6.176-0.234-10.58-7.012c-3.282-5.044-4.503-13.285-0.599-20.919
		c6.55-12.79,22.965-7.025,22.965-7.025l-5.949,4.065l2.667,6.067l-5.564,2.069l2.538,5.751l-6.497,1.726l2.525,6.778
		L259.249,496.065z"/>
	<path fill="#FF0000" d="M265.882,500.227l-7.602,0.181c0,0,3.289,5.244,11.353,5.674c6.008,0.32,13.755-2.731,18.398-9.936
		c7.794-12.069-5.401-23.426-5.401-23.426l-0.542,7.191l-6.585,0.72l0.99,5.86l-6.238,0.672l1.753,6.494l-7.126,1.204
		L265.882,500.227z"/>
	<path fill="#BC0003" d="M129.114,523.012c-4.32,1.556-8.2,3.696-14.527,9.64c-4.92,4.619-2.082,7.298,2.976,4.18
		c4.551-2.799,5.522-4.634,10.888-7.073c3.013-1.375,7.949-1.789,7.949-1.789l-1.376-5.932
		C135.025,522.038,131.819,522.038,129.114,523.012z"/>
	<path fill="#BC0003" d="M242.047,522.077c4.551,0.575,12.744,4.655,19.986,13.414c4.298,5.199,2.079,7.295-2.979,4.178
		c-4.553-2.801-9.699-8.708-15.064-11.146c-3.013-1.372-5.981-0.408-5.981-0.408l1.254-6.04
		C239.265,522.077,241.357,521.989,242.047,522.077z"/>
	<path fill="#BC0003" d="M237.423,531.001c0,0,4.512,1.538,7.962,4.894c4.393,4.276,9.187,12.637,7.452,14.811
		c-1.731,2.175-6.055-4.889-9.187-8.358c-3.131-3.471-9.577-6.242-9.577-6.242L237.423,531.001z"/>
	<path fill="#BC0003" d="M228.688,539.206c0,0,2.695,2.086,5.387,5.091c3.433,3.828,6.807,11.61,5.454,13.554
		c-1.349,1.948-4.727-4.379-7.173-7.484c-2.443-3.106-6.886-7.512-6.886-7.512L228.688,539.206z"/>
	<path fill="#BC0003" d="M136.32,531.001c0,0-4.508,1.538-7.956,4.894c-4.397,4.274-9.193,12.637-7.458,14.811
		c1.732,2.175,6.058-4.893,9.189-8.358c3.132-3.475,9.574-6.242,9.574-6.242L136.32,531.001z"/>
	<path fill="#BC0003" d="M145.057,539.206c0,0-2.695,2.082-5.388,5.091c-3.431,3.828-6.808,11.61-5.451,13.554
		c1.349,1.948,4.73-4.379,7.172-7.484c2.443-3.11,6.886-7.512,6.886-7.512L145.057,539.206z"/>
	<path fill="#FF0000" d="M182.56,491.396c21.102-0.698,33.368,3.026,48.319,12.982c13.012,8.661,11.82,26.67-2.569,37.096
		c-12.135,8.79-32.197,11.015-63.85,6.54c-30.46-4.299-32.926-19.877-32.676-28.935C132.035,510.018,137.066,492.907,182.56,491.396
		z"/>
	<path fill="#FF0000" d="M172.865,474.716c0,8.065-5.698,12.652-13.753,12.652c-8.055,0-13.753-5.421-13.753-13.488
		c0-8.062,6.532-12.934,14.585-12.934C167.997,460.949,172.865,466.65,172.865,474.716z"/>
	<path fill="#FFFFFF" d="M168.324,474.534c0,5.4-3.817,8.475-9.209,8.475c-5.397,0-9.216-3.631-9.216-9.038
		c0-5.399,4.375-8.658,9.773-8.658C165.062,465.312,168.324,469.127,168.324,474.534z"/>
	<path fill="#FF0000" d="M216.494,466.734c4.525-3.567,13.032-3.779,19.051,1.575c5.369,4.778,6.089,12.55,1.207,18.172
		c-5.285,6.084-12.769,7.061-20.008,2.146C210.08,484.105,210.169,471.731,216.494,466.734z"/>
	<path fill="#FFFFFF" d="M219.944,470.717c2.901-2.29,8.566-2.648,12.22,1.011c3.651,3.654,4.011,7.617,0.772,11.653
		c-3.236,4.033-8.192,4.53-12.833,1.379C215.826,481.858,215.882,473.921,219.944,470.717z"/>
	<path fill="#FF0000" d="M159.984,488.703l2.154,7.555l7.907-2.157c0,0-1.822-4.517-2.156-6.731
		c-0.337-2.207-0.897-4.779-0.897-4.779l-7.88,1.079L159.984,488.703z"/>
	<path fill="#FF0000" d="M213.615,496.985c0,0,1.8-1.797,3.773-5.214c1.978-3.418,2.873-5.469,2.873-5.469l5.848,3.12
		c0,0-1.378,4.352-3.064,6.832c-1.685,2.484-2.784,5.577-2.784,5.577L213.615,496.985z"/>
	<path fill="#FF0000" d="M109.86,494.216l-3.037,6.979c0,0,6.136-0.784,9.921-7.924c2.817-5.32,3.307-13.639-1.26-20.892
		c-7.662-12.154-23.499-4.952-23.499-4.952l6.289,3.518l-2.123,6.284l5.725,1.566l-2.015,5.954l6.625,1.14l-1.912,6.976
		L109.86,494.216z"/>
	<path fill="#FF0000" d="M102.969,500.455l7.418-1.67c0,0-1.922,5.886-9.638,8.258c-5.752,1.774-14.003,0.688-20.262-5.171
		c-10.481-9.815-0.437-24.035-0.437-24.035l2.266,6.848l6.569-0.907l0.46,5.927l6.218-0.863l-0.128,6.732l7.203-0.565
		L102.969,500.455z"/>
	<path d="M161.243,476.147c0,1.406-1.015,1.989-2.11,1.989c-1.097,0-1.986-0.891-1.986-1.989c0-1.1,0.889-1.989,1.986-1.989
		C160.229,474.158,161.243,475.047,161.243,476.147z"/>
	<path d="M228.159,478.136c0,1.406-1.017,1.984-2.112,1.984c-1.098,0-1.988-0.89-1.988-1.984c0-1.101,0.891-1.989,1.988-1.989
		C227.14,476.147,228.159,477.036,228.159,478.136z"/>
	<defs>
		<filter id="Adobe_OpacityMaskFilter_2_" filterUnits="userSpaceOnUse" x="170.045" y="510.88" width="28.533" height="19.652">
			<feColorMatrix  type="matrix" values="1 0 0 0 0  0 1 0 0 0  0 0 1 0 0  0 0 0 1 0"/>
		</filter>
	</defs>
	<mask maskUnits="userSpaceOnUse" x="170.045" y="510.88" width="28.533" height="19.652" id="mask2_1_">
		<path fill="#FFFFFF" filter="url(#Adobe_OpacityMaskFilter_2_)" d="M170.045,511.339c0,0,5.604,7.015,14.265,6.863
			c8.319-0.146,14.268-7.322,14.268-7.322s-1.552,19.226-13.603,19.226C171.533,530.106,170.045,511.339,170.045,511.339z"/>
	</mask>
	<g mask="url(#mask2_1_)">
		<path fill="#FFFFFF" d="M170.045,511.339c0,0,5.604,7.015,14.265,6.863c8.319-0.146,14.268-7.322,14.268-7.322
			s-1.552,19.226-13.603,19.226C171.533,530.106,170.045,511.339,170.045,511.339z"/>
		<path fill="none" stroke="#000000" stroke-width="0.8" d="M175.044,514.558l-0.51,12.286"/>
		<path fill="none" stroke="#000000" stroke-width="0.8" d="M190.751,516.355l1.758,11.416"/>
		<path fill="none" stroke="#000000" stroke-width="0.8" d="M182.906,517.937l-0.349,12.585"/>
	</g>
	<g>
		<path fill="#BC0003" d="M235.18,510.341c0,0,13.51,1.795,17.802-1.853c4.295-3.65,6.732-8.984,6.732-8.984l3.673,4.101
			c0,0-1.506,7.354-7.315,11.029c-6.966,4.403-18.538,3.294-18.538,3.294L235.18,510.341z"/>
		<g>
			<path fill="#FF0000" d="M235.166,510.34l2.354,7.587c0,0,2.84,0.271,6.551,0.011c-0.908-2.679-1.588-6.028-1.805-7.157
				C238.435,510.774,235.166,510.34,235.166,510.34z"/>
			<path fill="#FF0000" d="M259.7,499.503c0,0-1.381,3.021-3.895,6.071c0.399,0.478,0.834,1,1.346,1.619
				c1.401,1.701,2.571,2.532,3.379,2.942c2.166-3.267,2.843-6.531,2.843-6.531L259.7,499.503z"/>
			<path fill="#FF0000" d="M252.361,508.924c-1.38,0.874-3.373,1.367-5.521,1.62c0.299,0.838,0.686,1.937,1.174,3.356
				c0.516,1.5,1.079,2.538,1.583,3.251c2.278-0.514,4.544-1.307,6.461-2.519c0.201-0.127,0.384-0.268,0.575-0.403
				C255.273,513.058,253.617,510.796,252.361,508.924z"/>
		</g>
	</g>
	<g>
		<path fill="#BC0003" d="M132.547,517.179c0,0-11.571,1.109-18.538-3.294c-5.81-3.677-7.315-11.029-7.315-11.029l3.672-4.101
			c0,0,2.437,5.334,6.733,8.984c4.291,3.647,17.801,1.853,17.801,1.853L132.547,517.179z"/>
		<g>
			<path fill="#FF0000" d="M134.915,509.591l-2.354,7.587c0,0-2.84,0.271-6.551,0.011c0.908-2.679,1.588-6.028,1.805-7.157
				C131.646,510.025,134.915,509.591,134.915,509.591z"/>
			<path fill="#FF0000" d="M110.381,498.754c0,0,1.381,3.021,3.896,6.071c-0.399,0.477-0.834,1-1.346,1.619
				c-1.401,1.7-2.57,2.532-3.379,2.942c-2.166-3.267-2.843-6.531-2.843-6.531L110.381,498.754z"/>
			<path fill="#FF0000" d="M117.72,508.175c1.38,0.874,3.373,1.367,5.521,1.62c-0.299,0.838-0.686,1.937-1.174,3.356
				c-0.516,1.5-1.079,2.538-1.583,3.251c-2.278-0.514-4.544-1.308-6.461-2.519c-0.201-0.128-0.384-0.268-0.575-0.404
				C114.808,512.309,116.464,510.047,117.72,508.175z"/>
		</g>
	</g>
</g>
</svg>
