<svg width="596" height="331" viewBox="0 0 596 331" fill="none" xmlns="http://www.w3.org/2000/svg">
<path fill-rule="evenodd" clip-rule="evenodd" d="M221.067 130.252C221.164 123.428 223.597 66.8796 265.339 49.135C307.082 31.3905 342.5 73.2167 342.5 73.2167C342.5 73.2167 347.56 -4.86887 398.157 4.38855C448.754 13.646 447.488 58.0073 447.488 58.0073C447.488 58.0073 464.107 31.117 491.76 40.2628C522.417 50.4021 517.058 78.7178 517.058 78.7178C517.058 78.7178 534.046 58.0677 559.208 73.2167C584.372 88.3667 598.013 115.042 591.69 144.194C585.364 173.346 560.346 211.37 406.517 197.428C252.69 183.486 220.379 178.416 221.067 130.252Z" fill="#D4CCB4"/>
<path fill-rule="evenodd" clip-rule="evenodd" d="M89.5217 257.55C89.6184 250.724 92.0516 194.177 133.794 176.432C175.536 158.687 210.954 200.513 210.954 200.513C210.954 200.513 216.014 122.428 266.611 131.685C317.208 140.943 315.943 185.304 315.943 185.304C315.943 185.304 332.561 158.414 360.214 167.559C390.871 177.699 385.512 206.014 385.512 206.014C385.512 206.014 402.501 185.365 427.663 200.513C452.826 215.663 466.467 242.339 460.143 271.491C453.819 300.642 428.8 338.668 274.972 324.725C121.143 310.782 88.8332 305.713 89.5217 257.55Z" fill="#BCB49F"/>
<path fill-rule="evenodd" clip-rule="evenodd" d="M119.886 105.785C154.953 103.248 165.823 145.422 165.823 145.422C165.823 145.422 182.193 94.2126 232.863 103.248C283.533 112.283 270.933 161.331 270.933 161.331C270.933 161.331 296.641 150.091 306.228 189.784C315.815 229.478 252.775 251.681 177.455 251.824C102.134 251.966 35.501 253.337 15.4082 221.776C-4.68466 190.216 2.26708 159.541 25.4149 145.422C54.5083 127.679 83.6017 154.295 83.6017 154.295C83.6017 154.295 90.5909 107.905 119.886 105.785Z" fill="#E7E6D0"/>
</svg>
