<svg width="434" height="70" viewBox="0 0 434 70" fill="none" xmlns="http://www.w3.org/2000/svg">
<path d="M12.7556 61.875C12.6781 60.7847 12.7556 59.6865 12.9906 58.5778C13.2256 57.469 13.3805 56.3708 13.4633 55.2832C13.5808 54.506 13.6583 53.7235 13.6983 52.9462C13.7331 52.169 13.7945 51.3918 13.8719 50.6119C13.8319 50.5721 13.8132 50.5164 13.8132 50.4395V50.2061L14.4008 46.3518C14.2058 45.7285 14.2165 45.0945 14.4301 44.4525C14.6465 43.8106 14.7934 43.2191 14.8708 42.6753C14.9109 42.288 14.9883 41.5347 15.1058 40.4259C15.2234 39.3171 15.3783 38.0518 15.5786 36.6326C15.7735 35.2135 15.9765 33.7147 16.1928 32.1391C16.4065 30.5608 16.6335 29.1045 16.8685 27.7649C17.1036 26.42 17.3306 25.2953 17.5443 24.3775C17.7606 23.4677 17.9636 22.9478 18.1612 22.8337C18.7488 22.4809 19.4245 22.2899 20.1883 22.2501C20.9522 22.213 21.6679 22.1705 22.3329 22.136C22.8057 22.0936 23.1742 22.075 23.4493 22.075C23.7217 22.075 24.1357 22.0936 24.6832 22.136C25.1559 22.404 25.5245 22.9318 25.7996 23.7091C26.072 25.8497 26.4967 27.8816 27.0629 29.8074C27.6291 31.7332 28.1873 33.728 28.7374 35.7891C28.7775 35.866 28.8363 36.0915 28.9137 36.4602C28.9912 36.8316 29.0793 37.2268 29.1781 37.6565C29.2769 38.0836 29.3758 38.4868 29.4719 38.8529C29.5707 39.2216 29.6188 39.4471 29.6188 39.5213C29.6989 39.7176 29.8058 40.0492 29.9446 40.5161C30.0782 40.9829 30.169 41.3145 30.2064 41.5055C30.2064 41.5479 30.2251 41.5877 30.2678 41.6249C30.3025 41.6646 30.3426 41.6806 30.3853 41.6806H30.4414C30.6764 41.6806 30.8607 41.1819 30.9996 40.1924C31.1385 39.2004 31.256 37.9642 31.3521 36.4867C31.4509 35.0066 31.5471 33.4123 31.6459 31.7014C31.7421 29.9878 31.8596 28.3962 31.9985 26.9134C32.1373 25.4386 32.3109 24.2024 32.5273 23.2104C32.7409 22.2183 33.0267 21.701 33.3819 21.6639L39.5487 21.197C39.6662 21.197 39.8238 21.2819 40.0188 21.4596C40.2137 21.6347 40.3313 21.8018 40.3713 21.9557L41.4877 30.3592C41.5651 30.6695 41.6533 31.0011 41.7521 31.3513C41.8509 31.7014 41.9391 32.033 42.0165 32.3433C42.0566 32.7704 42.134 33.4415 42.2515 34.3567C42.3691 35.2718 42.5079 36.301 42.6628 37.4496C42.8204 38.5982 42.9753 39.7945 43.1329 41.0386C43.2905 42.288 43.4454 43.479 43.6029 44.6303C43.7579 45.7815 43.9074 46.8001 44.0436 47.6914C44.1825 48.588 44.2893 49.2511 44.3668 49.6756C44.4069 50.0655 44.5057 50.726 44.6606 51.6597C44.8181 52.5961 44.9917 53.5961 45.1921 54.6651C45.387 55.7368 45.5713 56.7368 45.7502 57.6732C45.9238 58.6096 46.052 59.2727 46.1295 59.6574V59.8298C46.1696 60.0261 46.1589 60.2807 46.1001 60.5911C46.0414 60.9014 45.9132 61.0924 45.7182 61.172L40.3713 61.5248L36.9634 35.7307L36.7311 34.7413L33.438 61.4691L29.9126 61.7582L22.8618 34.9137L18.5137 63.3896C18.4764 63.6628 18.4683 63.8299 18.487 63.8856C18.5031 63.9413 18.4149 63.9732 18.22 63.9732C18.1799 63.9732 18.1612 63.9838 18.1612 64.005C18.1612 64.0209 18.1425 64.0315 18.1024 64.0315H18.0437C17.7285 63.9944 17.2879 63.944 16.7217 63.8856C16.1528 63.8299 15.5786 63.7185 14.9883 63.5647C14.4008 63.4082 13.8933 63.2039 13.4633 62.9546C13.0307 62.6999 12.7956 62.3392 12.7556 61.875Z" fill="#2BB673"/>
<path d="M69.9288 61.525C69.7312 61.4481 69.5362 61.3234 69.3413 61.1457C69.1436 60.9706 69.0288 60.7823 68.9887 60.5913L67.5812 48.2195C67.5812 48.063 67.5091 47.925 67.3729 47.811C67.2367 47.6916 67.1085 47.6545 66.991 47.6916L60.1752 48.3335L61.2916 58.5488C61.369 59.1695 61.548 59.7425 61.8204 60.2703C62.0955 60.7929 62.2691 61.3473 62.3519 61.9335C62.3866 62.167 62.3679 62.3128 62.2904 62.3685C62.213 62.4296 62.034 62.4773 61.7616 62.5144C61.6842 62.5144 61.5747 62.5251 61.4385 62.5463C61.3022 62.5675 61.2141 62.5781 61.1741 62.5781H60.4396C60.1084 62.5781 59.7639 62.5861 59.4113 62.6046C59.0588 62.6259 58.7356 62.6471 58.4419 62.6656C58.1481 62.6816 57.9611 62.6922 57.8837 62.6922C57.1786 62.6922 56.6097 62.6152 56.1797 62.4587C55.7497 62.3022 55.4159 62.0715 55.1808 61.7584C54.9458 61.4454 54.7802 61.0688 54.6814 60.6178C54.5826 60.1722 54.4945 59.6576 54.417 59.074C54.222 56.9333 54.0645 54.8059 53.9469 52.6838C53.8294 50.5617 53.7306 48.4131 53.6532 46.2353C53.6532 46.1929 53.6451 45.9807 53.6238 45.5934C53.6024 45.2061 53.573 44.7605 53.5357 44.2512C53.4956 43.7445 53.4555 43.2485 53.4181 42.763C53.3781 42.275 53.338 41.8983 53.3006 41.6224C53.2232 40.1422 53.2899 38.7841 53.5063 37.5347C53.7199 36.2906 53.9656 34.9298 54.2407 33.4523C54.0057 32.7892 54.0538 32.0889 54.3876 31.3515C54.7188 30.614 54.9859 29.9509 55.1808 29.3673C55.2583 29.0569 55.309 28.7625 55.3277 28.4919C55.3464 28.2187 55.4159 27.9084 55.5334 27.5556C55.5334 27.5211 55.5548 27.4521 55.5921 27.354C55.6322 27.2558 55.6723 27.2081 55.7097 27.2081C56.1396 26.4282 56.5136 25.643 56.826 24.8446C57.1385 24.0488 57.5685 23.2583 58.1214 22.4784C58.4712 22.0116 58.9012 21.5368 59.4113 21.0487C59.9188 20.5633 60.469 20.107 61.0565 19.6799C61.6441 19.2502 62.2611 18.9027 62.9074 18.6295C63.5537 18.3563 64.1893 18.1812 64.817 18.1043C66.5797 17.9478 67.9498 18.1892 68.93 18.8311C69.9101 19.473 70.6847 20.3033 71.2535 21.3139C71.8171 22.3246 72.2577 23.4414 72.5729 24.6695C72.8854 25.8924 73.2406 27.033 73.6305 28.0808C73.6305 28.1975 73.6599 28.4124 73.7187 28.7254C73.7774 29.0384 73.8255 29.3673 73.8655 29.7175C73.9056 30.0676 73.9537 30.3886 74.0124 30.6804C74.0712 30.9695 74.1006 31.1737 74.1006 31.2905C74.373 33.8608 74.5413 36.4471 74.6 39.052C74.6588 41.6622 74.7469 44.2485 74.8644 46.8136C74.8644 47.4767 74.8163 48.1585 74.7175 48.8588C74.6187 49.5591 74.592 50.2381 74.6294 50.9013C74.6294 50.9782 74.6481 51.1798 74.6881 51.5114C74.7255 51.843 74.7656 52.2037 74.8057 52.5936C74.8431 52.9809 74.8938 53.339 74.9525 53.6706C75.0113 54.0022 75.0407 54.2038 75.0407 54.2807V56.2092C75.0407 56.2861 75.0487 56.4877 75.0701 56.8193C75.0888 57.1508 75.1101 57.5116 75.1288 57.9015C75.1502 58.2888 75.1662 58.6469 75.1876 58.9785C75.2063 59.3101 75.217 59.5329 75.217 59.6496C75.217 59.8857 75.1769 60.2332 75.0994 60.7001C75.022 61.1669 74.7656 61.4401 74.3356 61.5197H74.2181C74.178 61.5197 74.0498 61.4985 73.8362 61.4587C73.6198 61.4216 73.4916 61.403 73.4542 61.403C73.3367 61.403 73.1017 61.4136 72.7492 61.4348C72.3966 61.4561 72.0334 61.4614 71.6622 61.4614C71.2883 61.4614 70.9357 61.472 70.6045 61.4932C70.2707 61.5144 70.0463 61.525 69.9288 61.525ZM56.2972 16.2952C56.2972 16.1811 56.4628 15.9477 56.7967 15.5949C57.1278 15.2474 57.5017 14.8654 57.913 14.4596C58.3243 14.0484 58.7356 13.6638 59.1469 13.2898C59.5582 12.9237 59.8627 12.6584 60.0577 12.5019C60.1351 12.4675 60.3034 12.3269 60.5571 12.0934C60.8108 11.86 60.9577 11.7062 60.9978 11.6266C61.1153 11.5125 61.2916 11.3268 61.5266 11.0722C61.7616 10.8228 62.018 10.5602 62.2904 10.287C62.5655 10.0164 62.8273 9.75118 63.0837 9.49918L63.5831 9.00049C63.7006 8.73257 64.0051 8.40895 64.4938 8.04024C64.9826 7.66887 65.3832 7.48584 65.6983 7.48584C65.8532 7.48584 66.0509 7.56277 66.2859 7.71927C66.5209 7.87312 66.7666 8.05881 67.0204 8.27367C67.2741 8.48853 67.4984 8.69013 67.6961 8.88642C67.8937 9.08006 68.0112 9.218 68.0486 9.29227V9.87585V10.4621C68.0486 10.6557 67.9498 10.8308 67.7548 10.9846C67.6373 11.104 67.421 11.287 67.1085 11.539C66.796 11.7937 66.5797 11.9582 66.4622 12.0377C65.1695 12.9343 63.8662 13.8548 62.5548 14.8097C61.2408 15.762 59.9188 16.6878 58.5887 17.5817C58.4712 17.6215 58.3724 17.648 58.295 17.6692C58.2175 17.6905 58.1 17.6958 57.9424 17.6958C57.5098 17.6958 57.1278 17.5446 56.7967 17.2316C56.4628 16.9186 56.2972 16.6082 56.2972 16.2952ZM60.2927 40.5163C60.3328 40.9831 60.6052 41.3147 61.1153 41.5057C61.6227 41.702 62.213 41.8267 62.878 41.8903C63.543 41.946 64.2107 41.9673 64.8757 41.946C65.5408 41.9248 66.0509 41.8983 66.4034 41.8585C66.4809 41.8585 66.6384 41.8479 66.8735 41.8267C67.1085 41.8081 67.2634 41.8001 67.3435 41.8001C67.421 41.6808 67.4797 41.572 67.5198 41.4792C67.5599 41.381 67.5973 41.2723 67.6373 41.1582C67.6373 40.9248 67.6159 40.5481 67.5812 40.0176C67.5385 39.495 67.5091 38.9194 67.4904 38.2987C67.4717 37.678 67.453 37.1023 67.4317 36.5771C67.4103 36.0493 67.4023 35.6726 67.4023 35.4392C67.4423 35.3622 67.461 35.1845 67.461 34.9139V34.3304L66.8735 28.667C66.8334 28.3991 66.7346 28.0834 66.5797 27.7359C66.4221 27.3858 66.2271 27.0648 65.9921 26.7704C65.7571 26.4813 65.4713 26.2478 65.1401 26.0728C64.8063 25.895 64.4671 25.8287 64.1119 25.8685C63.7994 25.9056 63.503 26.0038 63.2305 26.1603C61.9379 27.4813 61.134 28.8633 60.8215 30.3037C60.5064 31.7414 60.3328 33.3197 60.2927 35.0307C60.2927 35.9617 60.2713 36.8795 60.2366 37.7735C60.1939 38.6674 60.2152 39.5772 60.2927 40.5163Z" fill="#2BB673"/>
<path d="M80.3945 52.596C80.6696 51.8586 81.1664 51.3811 81.8928 51.1663C82.6166 50.9514 83.4793 50.8931 84.4755 50.9939C85.4743 51.092 86.5907 51.2724 87.8273 51.5483C89.0612 51.8188 90.3431 52.0708 91.6759 52.3043C92.2234 52.2671 92.7014 52.1292 93.1154 51.8958C93.5267 51.6623 93.9086 51.3626 94.2585 50.9939C94.6137 50.6225 94.9449 50.206 95.2574 49.7365C95.5725 49.2697 95.9064 48.8001 96.2562 48.3359C96.2963 48.2988 96.3363 48.2113 96.3737 48.0733C96.4138 47.9354 96.4352 47.8505 96.4352 47.8107L96.2001 44.365C96.1227 44.3278 95.877 44.1315 95.4657 43.784C95.0544 43.4312 94.7312 43.158 94.4962 42.9644C94.4161 42.8875 94.2692 42.7787 94.0555 42.6434C93.8392 42.5108 93.6923 42.4418 93.6148 42.4418C92.2447 41.8582 90.9601 41.3914 89.7663 41.0412C88.5724 40.6937 87.456 40.2746 86.4171 39.7865C85.3782 39.2985 84.4381 38.6406 83.5968 37.8024C82.7528 36.9695 82.0184 35.7705 81.3934 34.2107C81.3934 34.0967 81.3827 33.9216 81.3613 33.6882C81.3427 33.4547 81.3133 33.2107 81.2759 32.9587C81.2358 32.7067 81.2064 32.4706 81.1877 32.2584C81.1664 32.0462 81.1584 31.9003 81.1584 31.8207C81.1183 31.2769 81.0702 30.6934 81.0088 30.07C80.9527 29.4466 81.0195 28.8657 81.2171 28.3219C81.2545 28.1654 81.3346 27.8816 81.4522 27.4704C81.567 27.0646 81.7059 26.6481 81.8635 26.2184C82.0184 25.7913 82.1653 25.3828 82.3041 24.9929C82.4403 24.6056 82.5285 24.3324 82.5659 24.1759V23.8841C82.7982 23.5339 83.0172 23.2607 83.2149 23.0671C83.4098 22.8734 83.5968 22.6692 83.7731 22.457C83.9493 22.2421 84.0962 22.075 84.2137 21.9583C85.5064 20.5179 86.7884 19.4303 88.0623 18.6903C89.3363 17.9502 90.8933 17.486 92.7335 17.2897C93.2436 17.2499 93.9861 17.3109 94.9662 17.4647C95.9437 17.6213 96.9239 17.8547 97.9041 18.1677C98.8816 18.478 99.7442 18.8759 100.487 19.364C101.232 19.8468 101.624 20.3826 101.665 20.9662C101.705 21.3163 101.683 21.7832 101.603 22.3668C101.526 22.9477 101.4 23.5339 101.224 24.1202C101.045 24.6984 100.813 25.2184 100.519 25.664C100.225 26.1123 99.8805 26.3537 99.4879 26.3935C98.473 26.4704 97.4527 26.4598 96.4352 26.3616C95.4149 26.2688 94.3974 26.2582 93.3771 26.3378C93.1822 26.3378 92.7816 26.3722 92.1753 26.4518C91.569 26.5287 91.1657 26.5685 90.9708 26.5685C90.8533 26.6481 90.6663 26.7357 90.4126 26.8311C90.1562 26.9266 89.9025 27.0566 89.6487 27.2131C89.3923 27.367 89.1787 27.5235 89.0024 27.6773C88.8261 27.8338 88.738 27.9903 88.738 28.1442L89.0291 31.6483C89.0291 31.8393 89.1573 32.025 89.4137 32.2027C89.6674 32.3751 89.9425 32.5475 90.2363 32.7253C90.5301 32.9003 90.8319 33.0568 91.1444 33.1921C91.4595 33.3274 91.6759 33.4176 91.7934 33.4547C93.3584 34.1948 94.79 34.8951 96.0826 35.5556C97.3726 36.2161 98.489 36.9933 99.4318 37.8899C100.369 38.7865 101.125 39.8422 101.694 41.0704C102.263 42.2959 102.623 43.8212 102.781 45.6515C102.936 47.2484 102.829 48.8214 102.458 50.3785C102.084 51.9355 101.478 53.3229 100.636 54.551C99.795 55.7739 98.7267 56.7978 97.434 57.6121C96.1414 58.4318 94.6725 58.9172 93.0246 59.0737C91.6545 59.2302 90.2443 59.2462 88.7968 59.1294C87.3465 59.0127 86.0245 58.7209 84.8307 58.2541C83.6342 57.7872 82.6273 57.0975 81.802 56.1824C80.9821 55.2699 80.512 54.0736 80.3945 52.596Z" fill="#2BB673"/>
<path d="M131.621 52.596C131.896 51.8586 132.393 51.3811 133.119 51.1663C133.843 50.9514 134.706 50.8931 135.702 50.9939C136.701 51.092 137.817 51.2724 139.054 51.5483C140.288 51.8188 141.57 52.0708 142.902 52.3043C143.45 52.2671 143.928 52.1292 144.342 51.8958C144.753 51.6623 145.135 51.3626 145.485 50.9939C145.84 50.6225 146.171 50.206 146.484 49.7365C146.799 49.2697 147.133 48.8001 147.483 48.3359C147.523 48.2988 147.563 48.2113 147.6 48.0733C147.64 47.9354 147.662 47.8505 147.662 47.8107L147.427 44.365C147.349 44.3278 147.104 44.1315 146.692 43.784C146.281 43.4312 145.958 43.158 145.723 42.9644C145.643 42.8875 145.496 42.7787 145.282 42.6434C145.066 42.5108 144.919 42.4418 144.841 42.4418C143.471 41.8582 142.187 41.3914 140.993 41.0412C139.799 40.6937 138.683 40.2746 137.644 39.7865C136.605 39.2985 135.665 38.6406 134.823 37.8024C133.979 36.9695 133.245 35.7705 132.62 34.2107C132.62 34.0967 132.609 33.9216 132.588 33.6882C132.569 33.4547 132.54 33.2107 132.502 32.9587C132.462 32.7067 132.433 32.4706 132.414 32.2584C132.393 32.0462 132.385 31.9003 132.385 31.8207C132.345 31.2769 132.297 30.6934 132.235 30.07C132.179 29.4466 132.246 28.8657 132.444 28.3219C132.481 28.1654 132.561 27.8816 132.679 27.4704C132.794 27.0646 132.932 26.6481 133.09 26.2184C133.245 25.7913 133.392 25.3828 133.531 24.9929C133.667 24.6056 133.755 24.3324 133.792 24.1759V23.8841C134.027 23.5339 134.244 23.2607 134.441 23.0671C134.636 22.8734 134.823 22.6692 135 22.457C135.176 22.2421 135.323 22.075 135.44 21.9583C136.733 20.5179 138.015 19.4303 139.289 18.6903C140.563 17.9502 142.12 17.486 143.96 17.2897C144.47 17.2499 145.213 17.3109 146.193 17.4647C147.17 17.6213 148.15 17.8547 149.131 18.1677C150.108 18.478 150.971 18.8759 151.713 19.364C152.458 19.8468 152.851 20.3826 152.891 20.9662C152.931 21.3163 152.91 21.7832 152.83 22.3668C152.752 22.9477 152.627 23.5339 152.45 24.1202C152.271 24.6984 152.039 25.2184 151.745 25.664C151.452 26.1123 151.107 26.3537 150.714 26.3935C149.7 26.4704 148.679 26.4598 147.662 26.3616C146.641 26.2688 145.624 26.2582 144.604 26.3378C144.409 26.3378 144.008 26.3722 143.402 26.4518C142.796 26.5287 142.392 26.5685 142.197 26.5685C142.08 26.6481 141.893 26.7357 141.639 26.8311C141.383 26.9266 141.129 27.0566 140.875 27.2131C140.619 27.367 140.405 27.5235 140.229 27.6773C140.053 27.8338 139.965 27.9903 139.965 28.1442L140.256 31.6483C140.256 31.8393 140.384 32.025 140.64 32.2027C140.894 32.3751 141.169 32.5475 141.463 32.7253C141.757 32.9003 142.058 33.0568 142.371 33.1921C142.686 33.3274 142.902 33.4176 143.02 33.4547C144.585 34.1948 146.017 34.8951 147.309 35.5556C148.599 36.2161 149.716 36.9933 150.658 37.8899C151.596 38.7865 152.352 39.8422 152.92 41.0704C153.489 42.2959 153.85 43.8212 154.007 45.6515C154.162 47.2484 154.056 48.8214 153.684 50.3785C153.31 51.9355 152.704 53.3229 151.863 54.551C151.022 55.7739 149.953 56.7978 148.661 57.6121C147.368 58.4318 145.899 58.9172 144.251 59.0737C142.881 59.2302 141.471 59.2462 140.023 59.1294C138.573 59.0127 137.251 58.7209 136.057 58.2541C134.861 57.7872 133.854 57.0975 133.029 56.1824C132.209 55.2699 131.739 54.0736 131.621 52.596Z" fill="#2BB673"/>
<path d="M160.233 52.0126C160.196 51.8561 160.167 51.6439 160.148 51.3707C160.127 51.1001 160.108 50.8269 160.089 50.551C160.068 50.2805 160.049 50.0391 160.031 49.8242C160.009 49.6094 159.998 49.4635 159.998 49.3865C159.961 48.6491 159.921 47.6809 159.881 46.4978C159.844 45.3121 159.804 44.1317 159.763 42.9672C159.726 41.8027 159.686 40.7708 159.649 39.8742C159.609 38.9776 159.59 38.4736 159.59 38.3569C159.59 37.1924 159.619 35.9165 159.675 34.5319C159.737 33.1551 159.865 31.7546 160.06 30.3301C160.255 28.911 160.578 27.5316 161.029 26.1894C161.478 24.8471 162.076 23.6508 162.821 22.6004C163.564 21.5499 164.515 20.6958 165.669 20.0326C166.825 19.3721 168.224 18.9822 169.872 18.8655H171.047C172.142 19.022 173.2 19.266 174.22 19.5976C175.238 19.9265 176.159 20.3748 176.982 20.9372C177.802 21.5022 178.518 22.1706 179.124 22.9479C179.733 23.7304 180.192 24.6641 180.507 25.7517C180.545 25.9055 180.593 26.2849 180.654 26.8923C180.71 27.4918 180.742 27.8923 180.742 28.086C180.742 28.399 180.75 28.8552 180.772 29.4547C180.79 30.0622 180.798 30.4017 180.798 30.4787C180.798 30.8686 180.809 31.7148 180.83 33.0172C180.849 34.3196 180.879 35.7414 180.916 37.2773C180.956 38.8132 180.985 40.3119 181.007 41.7682C181.025 43.2271 181.033 44.3068 181.033 45.007C181.033 45.9806 181.044 47.1 181.066 48.3653C181.084 49.6306 181.044 50.9436 180.948 52.3018C180.849 53.6652 180.673 55.0074 180.419 56.3311C180.163 57.6547 179.743 58.8405 179.156 59.8909C178.568 60.9413 177.802 61.8114 176.864 62.4878C175.922 63.1669 174.728 63.5436 173.28 63.6258C172.025 63.7001 170.842 63.6258 169.725 63.3897C168.609 63.1563 167.461 62.8459 166.288 62.456C165.11 62.1058 164.152 61.5621 163.409 60.8246C162.664 60.0845 162.066 59.2278 161.617 58.2542C161.166 57.286 160.832 56.2515 160.618 55.1613C160.402 54.0737 160.274 53.0233 160.233 52.0126ZM168.051 51.6041C168.128 52.4238 168.374 53.1506 168.783 53.7925C169.197 54.4318 169.872 54.7183 170.812 54.6387C171.44 54.5963 171.907 54.4159 172.223 54.0843C172.535 53.7527 172.759 53.3442 172.896 52.8562C173.035 52.3681 173.115 51.8561 173.131 51.3123C173.152 50.7685 173.181 50.2619 173.221 49.795V49.2963C173.221 49.0417 173.229 48.7738 173.248 48.4767C173.27 48.1875 173.28 47.9117 173.28 47.6623V47.222C173.398 45.2378 173.454 43.4181 173.454 41.7655C173.454 40.113 173.398 38.2933 173.28 36.3091C173.28 36.0757 173.259 35.6964 173.221 35.1711C173.181 34.6459 173.141 34.0809 173.104 33.4788C173.064 32.874 173.024 32.3116 172.986 31.7864C172.946 31.2612 172.928 30.8792 172.928 30.6484C172.848 30.415 172.701 30.094 172.487 29.6829C172.271 29.277 172.036 28.8871 171.779 28.5184C171.526 28.1497 171.232 27.8287 170.898 27.5555C170.567 27.2849 170.244 27.147 169.931 27.147C169.538 27.1867 169.197 27.3724 168.9 27.7014C168.609 28.0303 168.374 28.4308 168.198 28.895C168.019 29.3645 167.883 29.842 167.784 30.3248C167.688 30.8129 167.618 31.2108 167.578 31.5238C167.541 31.6007 167.501 31.797 167.461 32.1074C167.423 32.4204 167.375 32.7679 167.316 33.1578C167.258 33.5477 167.199 33.9164 167.14 34.2666C167.081 34.6167 167.052 34.8316 167.052 34.9085V35.7255V37.2985C167.052 37.8848 167.041 38.4604 167.02 39.0201C167.001 39.5877 166.993 40.0228 166.993 40.3331V40.8C166.993 40.8769 167.001 40.9353 167.02 40.9751C167.041 41.0149 167.052 41.0732 167.052 41.1501V41.3836C167.092 41.7709 167.159 42.4526 167.258 43.4261C167.354 44.3996 167.461 45.4209 167.578 46.4899C167.698 47.5589 167.794 48.5801 167.875 49.5536C167.952 50.5351 168.011 51.2142 168.051 51.6041Z" fill="#2BB673"/>
<path d="M189.615 61.9917C189.575 61.6814 189.553 61.4267 189.553 61.2358C189.553 61.0395 189.593 60.7848 189.671 60.4745L189.615 48.2777C189.182 45.32 188.947 42.3146 188.91 39.2641C188.867 36.2083 188.789 33.2241 188.672 30.3062C188.554 28.9454 188.448 27.582 188.351 26.2185C188.253 24.8604 188.223 23.4969 188.263 22.1361C188.263 21.9001 188.231 21.6772 188.175 21.4624C188.114 21.2502 188.146 21.0273 188.263 20.7939C188.498 20.4438 188.84 20.1705 189.291 19.9769C189.74 19.7833 190.229 19.6347 190.758 19.5392C191.289 19.4437 191.807 19.3827 192.315 19.3641C192.825 19.3456 193.258 19.3137 193.61 19.2766C194.548 19.1997 195.429 19.2766 196.254 19.51C197.077 19.7435 197.841 20.0857 198.543 20.5313C199.248 20.9769 199.894 21.5154 200.485 22.1361C201.072 22.7595 201.58 23.42 202.01 24.1203C202.167 24.4333 202.295 24.7888 202.394 25.1999C202.49 25.6084 202.619 25.9506 202.774 26.2185L203.187 30.0728C203.147 30.1524 203.107 30.3646 203.07 30.7147C203.03 31.0649 203.009 31.2956 203.009 31.415C202.931 32.0384 202.774 32.6697 202.541 33.3116C202.306 33.9536 202.226 34.5663 202.306 35.1499C202.344 35.6539 202.589 36.1128 203.041 36.5186C203.489 36.9271 203.871 37.3065 204.186 37.6593C204.304 37.776 204.518 38.0121 204.833 38.3596C205.145 38.7124 205.359 38.9458 205.476 39.0599C205.439 39.1792 205.527 39.4126 205.743 39.7628C205.957 40.1129 206.213 40.5108 206.507 40.9565C206.798 41.4074 207.055 41.8531 207.271 42.3013C207.485 42.7496 207.573 43.0892 207.536 43.3253C207.573 43.4393 207.661 43.6568 207.797 43.9645C207.936 44.2749 208.072 44.6038 208.211 44.9566C208.345 45.3094 208.462 45.6277 208.561 45.9195C208.66 46.2087 208.729 46.4182 208.769 46.5296C208.769 46.5694 208.785 46.8108 208.828 47.2591C208.866 47.7047 208.924 48.0469 209.002 48.2804C209.199 50.0311 209.149 51.7155 208.858 53.3256C208.561 54.9411 208.142 56.5671 207.592 58.2012C207.632 58.2781 207.632 58.3709 207.592 58.4903C207.552 58.6097 207.514 58.7025 207.474 58.7821C207.084 59.5195 206.643 60.2118 206.155 60.8511C205.663 61.4931 204.969 61.952 204.069 62.2252C203.911 62.2252 203.666 62.2464 203.332 62.2809C202.998 62.3233 202.637 62.3684 202.245 62.4294C201.855 62.4878 201.492 62.5355 201.16 62.578C200.827 62.6151 200.581 62.6337 200.426 62.6337C200.191 62.6337 199.876 62.6522 199.486 62.6894C199.093 62.7292 198.701 62.7663 198.311 62.8088C197.918 62.8459 197.574 62.8751 197.282 62.8963C196.986 62.9122 196.82 62.9228 196.78 62.9228C196.743 62.9228 196.644 62.9334 196.489 62.9546C196.329 62.9732 196.155 62.9838 195.96 62.9838C195.763 62.9838 195.568 62.9732 195.373 62.9546C195.175 62.9334 195.039 62.9228 194.962 62.9228C194.451 62.9228 193.912 62.8963 193.343 62.8353C192.777 62.7796 192.219 62.7504 191.668 62.7504C191.081 62.7902 190.614 62.8273 190.261 62.8671C189.906 62.9016 189.689 62.6125 189.615 61.9917ZM194.962 32.4018C194.999 32.5211 195.087 32.6007 195.223 32.6352C195.362 32.6776 195.469 32.6962 195.546 32.6962C195.744 32.6564 195.862 32.5583 195.899 32.4018C196.254 31.7041 196.468 31.041 196.545 30.4176C196.625 29.7969 196.625 29.0966 196.545 28.3194C196.508 28.1231 196.457 27.9003 196.401 27.6456C196.34 27.3936 196.243 27.1602 196.105 26.948C195.968 26.7358 195.803 26.5581 195.608 26.4228C195.41 26.2848 195.175 26.2371 194.9 26.2769C194.863 26.2769 194.793 26.2954 194.697 26.3352C194.598 26.3724 194.529 26.3936 194.491 26.3936L194.313 26.7437L194.962 32.4018ZM195.253 56.2143C195.29 56.6016 195.554 56.8775 196.046 57.034C196.532 57.1905 196.935 57.2462 197.25 57.2038C198.308 57.0897 199.149 56.8165 199.774 56.3894C200.402 55.9597 200.853 55.4371 201.126 54.8138C201.401 54.1904 201.556 53.4874 201.598 52.7102C201.636 51.933 201.598 51.1558 201.481 50.3759C201.321 48.8958 200.971 47.4103 200.423 45.9116C199.873 44.4155 198.914 43.1979 197.541 42.2642C197.269 42.1077 197.023 41.9804 196.81 41.8849C196.593 41.7867 196.326 41.7549 196.014 41.7974C195.779 41.7974 195.605 41.8955 195.488 42.0865C195.37 42.2828 195.29 42.5056 195.253 42.7603C195.21 43.0096 195.194 43.2722 195.194 43.5481V44.1874V49.031C195.231 49.108 195.271 49.3334 195.309 49.7022C195.349 50.0709 195.37 50.299 195.37 50.3733C195.408 51.3866 195.378 52.3574 195.282 53.2938C195.186 54.2302 195.175 55.2037 195.253 56.2143Z" fill="#2BB673"/>
<path d="M232.393 63.3314C231.65 62.2809 231.063 61.3578 230.633 60.5594C230.2 59.7609 229.711 58.8962 229.158 57.9625C229.084 57.8431 228.945 57.6813 228.752 57.4638C228.555 57.2516 228.365 57.0261 228.194 56.7927C228.018 56.5592 227.871 56.3338 227.754 56.1215C227.636 55.9093 227.615 55.7024 227.695 55.5114C227.225 54.8483 226.763 54.1692 226.314 53.4663C225.863 52.7633 225.422 52.0843 224.992 51.4211H224.874C224.834 51.4211 224.8 51.4052 224.757 51.3654C224.404 51.2885 224.266 51.4423 224.346 51.8323C224.383 52.2195 224.423 52.9198 224.466 53.9358C224.503 54.9464 224.551 56.0234 224.607 57.1746C224.669 58.3206 224.73 59.4108 224.789 60.44C224.845 61.4692 224.893 62.1801 224.931 62.5727L224.992 62.7451C224.915 62.8619 224.8 63.0077 224.639 63.1828C224.479 63.3579 224.38 63.4269 224.346 63.3844L218.35 63.7929C218 63.8327 217.703 63.6842 217.468 63.3579C217.236 63.0263 217.097 62.7239 217.06 62.4507C217.06 62.4109 217.068 62.3844 217.089 62.3632C217.108 62.3419 217.119 62.2968 217.119 62.2173V62.0422C217.119 62.0051 217.137 61.8963 217.177 61.7212C217.215 61.5488 217.255 61.3631 217.295 61.1668C217.332 60.9758 217.372 60.7981 217.412 60.6443C217.452 60.4904 217.468 60.3896 217.468 60.3551C217.468 60.2358 217.442 59.9732 217.383 59.5646C217.324 59.1588 217.273 58.7291 217.236 58.2834C217.196 57.8325 217.156 57.4187 217.119 57.0261C217.078 56.6388 217.06 56.3868 217.06 56.2674V54.8377C217.06 54.0817 217.049 53.2726 217.028 52.4185C217.012 51.5617 216.99 50.7553 216.972 49.994C216.95 49.238 216.942 48.7605 216.942 48.5642C216.942 48.3732 216.921 48.0204 216.884 47.5138C216.843 47.0098 216.803 46.4634 216.766 45.8798C216.726 45.2962 216.686 44.7524 216.648 44.2484C216.608 43.7418 216.587 43.3943 216.587 43.198C216.627 43.1211 216.648 42.9433 216.648 42.6754V42.1475C216.766 38.7655 216.785 35.4178 216.705 32.1127C216.627 28.8075 216.531 25.4785 216.413 22.1335C216.413 22.0168 216.403 21.8019 216.384 21.4916C216.36 21.1812 216.336 20.8497 216.293 20.4969C216.253 20.1494 216.224 19.8072 216.205 19.4756C216.184 19.1467 216.176 18.9212 216.176 18.8098C216.253 18.5737 216.36 18.4358 216.499 18.3986C216.635 18.3615 216.782 18.3403 216.94 18.3403C218.505 18.2236 220.032 18.1546 221.523 18.136C223.013 18.1175 224.41 18.2713 225.721 18.6002C227.032 18.9318 228.221 19.4862 229.276 20.2634C230.334 21.0433 231.218 22.1521 231.92 23.5898C232.427 24.6058 232.938 25.5846 233.448 26.5395C233.955 27.4918 234.252 28.5343 234.329 29.6617C234.487 31.9933 234.083 34.1658 233.124 36.1685C232.166 38.1686 230.804 39.991 229.041 41.625C228.883 41.816 228.806 42.0335 228.806 42.2669C228.883 42.6144 229.03 42.946 229.249 43.2563C229.463 43.5667 229.53 43.8983 229.452 44.2511L231.861 49.0364V49.2088L234.265 53.0631C234.265 53.1002 234.433 53.4212 234.767 54.0233C235.098 54.6281 235.48 55.3045 235.913 56.0685C236.343 56.8245 236.735 57.5858 237.088 58.3418C237.44 59.1004 237.635 59.6734 237.675 60.0607C237.713 60.4135 237.587 60.8008 237.291 61.2305C237 61.6549 236.637 62.0448 236.207 62.395C235.774 62.7451 235.325 63.0449 234.855 63.2995C234.382 63.5515 233.974 63.6815 233.619 63.6815C233.079 63.7611 232.665 63.6444 232.393 63.3314ZM222.522 35.5558C222.679 35.7494 222.802 35.8953 222.903 35.9935C223.005 36.0916 223.171 36.1606 223.406 36.1951C224.188 36.1181 224.824 35.837 225.315 35.3515C225.807 34.8634 226.175 34.2984 226.432 33.6565C226.688 33.0172 226.851 32.3461 226.928 31.6458C227.011 30.9455 227.048 30.3407 227.048 29.8367C227.011 29.4468 226.912 28.972 226.757 28.407C226.6 27.8446 226.381 27.3088 226.111 26.8021C225.836 26.2955 225.491 25.879 225.083 25.5474C224.671 25.2185 224.169 25.0726 223.584 25.1098C223.192 25.1495 222.885 25.3618 222.671 25.7517C222.457 26.1416 222.308 26.5873 222.233 27.0939C222.15 27.6006 222.113 28.094 222.113 28.5794V29.6033C222.113 29.6431 222.124 29.7757 222.14 30.0091C222.164 30.2426 222.182 30.5185 222.201 30.8288C222.222 31.1392 222.244 31.4601 222.257 31.7917C222.278 32.1233 222.308 32.3859 222.345 32.5795C222.345 32.6963 222.356 32.8899 222.372 33.1631C222.396 33.4337 222.415 33.7361 222.433 34.065C222.455 34.3966 222.471 34.699 222.489 34.9722C222.508 35.2454 222.522 35.4391 222.522 35.5558Z" fill="#2BB673"/>
<path d="M243.731 61.8753C243.574 61.7585 243.416 61.6339 243.261 61.4933C243.104 61.358 243.026 61.1935 243.026 60.9972C242.829 59.1298 242.839 57.2438 243.056 55.3366C243.269 53.4293 243.379 51.5433 243.379 49.6732C243.379 47.3416 243.309 44.9993 243.173 42.6438C243.034 40.2909 242.893 37.9407 242.732 35.5825C242.572 33.2296 242.449 30.882 242.348 28.5504C242.249 26.2161 242.238 23.903 242.321 21.6032C242.321 21.3697 242.385 21.1204 242.524 20.8472C242.666 20.5766 242.866 20.4175 243.138 20.3803C243.531 20.3405 243.993 20.3617 244.522 20.4387C245.051 20.5156 245.491 20.5368 245.844 20.4944C246.004 20.4944 246.293 20.4864 246.725 20.4705C247.155 20.4493 247.615 20.4281 248.106 20.4095C248.597 20.3909 249.054 20.3697 249.489 20.3511C249.917 20.3326 250.213 20.322 250.371 20.322C250.408 20.322 250.568 20.3034 250.841 20.2609C251.119 20.2265 251.407 20.184 251.722 20.1495C252.035 20.1071 252.318 20.07 252.572 20.0302C252.828 19.993 252.993 19.9718 253.074 19.9718C253.309 19.9718 253.688 19.9506 254.219 19.9161C254.748 19.8737 255.277 19.8737 255.808 19.9161C256.335 19.9506 256.815 20.0302 257.248 20.1495C257.675 20.261 257.916 20.4944 257.953 20.8472L258.364 25.7492C258.402 26.0596 258.266 26.3248 257.953 26.537C257.638 26.7519 257.347 26.8792 257.072 26.9137C256.287 26.996 255.504 26.9668 254.721 26.8288C253.936 26.6909 253.132 26.6644 252.312 26.7413C252.117 26.7413 251.861 26.7519 251.549 26.7705C251.236 26.789 250.913 26.8368 250.579 26.9137C250.245 26.996 249.965 27.1127 249.73 27.2665C249.495 27.423 249.375 27.6565 249.375 27.9668C249.495 29.5239 249.495 31.1367 249.375 32.8105C249.26 34.4843 249.278 36.1157 249.433 37.7125C249.433 37.9088 249.452 38.1635 249.492 38.4738C249.53 38.7842 249.647 39.0388 249.845 39.2298C250.005 39.3466 250.243 39.4341 250.576 39.4951C250.91 39.5508 251.249 39.5826 251.607 39.5826C251.96 39.5826 252.291 39.572 252.606 39.5508C252.919 39.5296 253.154 39.519 253.311 39.519C253.469 39.519 253.76 39.5031 254.193 39.4633C254.623 39.4261 255.074 39.3757 255.544 39.3174C256.014 39.259 256.468 39.2086 256.895 39.1715C257.325 39.129 257.619 39.1131 257.777 39.1131C257.894 39.1131 257.99 39.1821 258.071 39.3174C258.145 39.4527 258.188 39.5614 258.188 39.6383L258.594 43.4316C258.637 43.7844 258.546 44.1319 258.332 44.482C258.119 44.8295 257.852 45.0258 257.539 45.0656C256.679 45.1823 255.814 45.1717 254.954 45.0364C254.091 44.9011 253.21 44.8693 252.31 44.9489C251.76 45.0258 251.367 45.1717 251.135 45.3866C250.902 45.6014 250.745 45.864 250.665 46.1744C250.587 46.4874 250.547 46.8349 250.547 47.2248V48.453C250.547 48.5671 250.526 48.8509 250.488 49.2965C250.451 49.7475 250.403 50.2196 250.341 50.7263C250.285 51.2329 250.237 51.6998 250.195 52.1242C250.152 52.554 250.117 52.8272 250.077 52.9439C250.152 52.9863 250.173 53.1004 250.133 53.2967C250.096 53.4877 250.117 53.6442 250.195 53.7635C250.195 53.997 250.237 54.2808 250.312 54.6071C250.389 54.9387 250.606 55.1058 250.958 55.1058H252.339H254.398H256.457H257.777C258.402 55.1058 258.971 55.1615 259.483 55.2808C259.988 55.3949 260.343 55.8246 260.541 56.5621C260.541 56.6363 260.57 56.8247 260.629 57.1165C260.688 57.4082 260.747 57.7398 260.803 58.1085C260.862 58.4826 260.923 58.8486 260.979 59.2173C261.035 59.5914 261.086 59.8699 261.126 60.0609V60.4137C261.203 60.9575 261.07 61.2678 260.715 61.3474C260.365 61.4243 259.972 61.5039 259.542 61.5808C257.897 61.7771 256.252 61.8249 254.607 61.7267C252.961 61.6339 251.316 61.5623 249.671 61.5251C249.551 61.488 249.26 61.4933 248.79 61.5543C248.317 61.6127 248.045 61.6418 247.964 61.6418C247.807 61.6418 247.524 61.6498 247.115 61.671C246.704 61.6922 246.271 61.7188 245.822 61.7585C245.368 61.801 244.949 61.8249 244.559 61.8461C244.161 61.8673 243.886 61.8753 243.731 61.8753Z" fill="#2BB673"/>
<path d="M291.5 52.596C291.775 51.8586 292.272 51.3811 293.001 51.1663C293.725 50.9514 294.587 50.8931 295.584 50.9939C296.58 51.0947 297.696 51.2724 298.935 51.5483C300.169 51.8188 301.451 52.0708 302.781 52.3043C303.329 52.2671 303.81 52.1292 304.221 51.8958C304.632 51.6623 305.014 51.3626 305.364 50.9939C305.719 50.6225 306.053 50.206 306.366 49.7365C306.678 49.2697 307.012 48.8001 307.362 48.3359C307.404 48.2988 307.442 48.2113 307.482 48.0733C307.522 47.9354 307.541 47.8505 307.541 47.8107L307.306 44.365C307.231 44.3278 306.982 44.1315 306.574 43.784C306.163 43.4312 305.839 43.158 305.604 42.9644C305.524 42.8875 305.375 42.7787 305.161 42.6434C304.947 42.5081 304.798 42.4418 304.72 42.4418C303.348 41.8582 302.066 41.3914 300.872 41.0412C299.678 40.6937 298.562 40.2746 297.523 39.7865C296.484 39.2985 295.546 38.6406 294.7 37.8024C293.858 36.9695 293.124 35.7705 292.499 34.2107C292.499 34.0967 292.488 33.9216 292.467 33.6882C292.445 33.4547 292.416 33.2107 292.381 32.9587C292.341 32.7067 292.312 32.4706 292.293 32.2584C292.272 32.0462 292.264 31.9003 292.264 31.8207C292.221 31.2769 292.176 30.6934 292.112 30.07C292.056 29.4466 292.122 28.8657 292.32 28.3219C292.357 28.1654 292.44 27.8816 292.555 27.4704C292.67 27.0646 292.811 26.6481 292.966 26.2184C293.124 25.7913 293.268 25.3828 293.407 24.9929C293.546 24.6056 293.631 24.3324 293.671 24.1759V23.8841C293.906 23.5339 294.12 23.2607 294.318 23.0671C294.513 22.8734 294.7 22.6692 294.876 22.457C295.052 22.2421 295.199 22.075 295.319 21.9583C296.609 20.5179 297.891 19.4303 299.165 18.6903C300.442 17.9502 301.996 17.486 303.836 17.2897C304.346 17.2499 305.089 17.3109 306.069 17.4647C307.044 17.6213 308.024 17.8547 309.007 18.1677C309.984 18.478 310.847 18.8759 311.59 19.364C312.335 19.8468 312.727 20.3826 312.767 20.9662C312.81 21.3163 312.789 21.7832 312.706 22.3668C312.631 22.9477 312.503 23.5339 312.327 24.1202C312.148 24.6984 311.918 25.2184 311.622 25.664C311.328 26.1123 310.983 26.3537 310.591 26.3935C309.573 26.4704 308.553 26.4598 307.535 26.3616C306.515 26.2688 305.498 26.2582 304.475 26.3378C304.282 26.3378 303.879 26.3722 303.275 26.4518C302.669 26.5287 302.266 26.5685 302.071 26.5685C301.953 26.6481 301.769 26.7357 301.513 26.8311C301.256 26.9266 301.003 27.0566 300.749 27.2131C300.492 27.367 300.279 27.5235 300.105 27.6773C299.929 27.8338 299.838 27.9903 299.838 28.1442L300.129 31.6483C300.129 31.8393 300.255 32.025 300.514 32.2027C300.768 32.3751 301.043 32.5475 301.336 32.7253C301.63 32.9003 301.935 33.0568 302.245 33.1921C302.562 33.3274 302.776 33.4176 302.896 33.4547C304.461 34.1948 305.89 34.8951 307.183 35.5556C308.47 36.2161 309.586 36.9933 310.532 37.8899C311.472 38.7865 312.225 39.8422 312.797 41.0704C313.366 42.2959 313.726 43.8212 313.881 45.6515C314.039 47.2484 313.929 48.8214 313.558 50.3785C313.184 51.9355 312.578 53.3229 311.736 54.551C310.898 55.7739 309.827 56.7978 308.534 57.6121C307.242 58.4318 305.775 58.9172 304.127 59.0737C302.755 59.2302 301.347 59.2462 299.897 59.1294C298.447 59.0127 297.127 58.7209 295.933 58.2541C294.737 57.7872 293.73 57.0975 292.902 56.1824C292.085 55.2699 291.618 54.0736 291.5 52.596Z" fill="#2BB673"/>
<path d="M336.153 61.525C335.955 61.4481 335.76 61.3234 335.563 61.1457C335.365 60.9706 335.25 60.7823 335.21 60.5913L333.805 48.2194C333.805 48.0629 333.733 47.925 333.597 47.8109C333.461 47.6916 333.33 47.6544 333.212 47.6916L326.397 48.3335L327.513 58.5488C327.59 59.1695 327.769 59.7424 328.042 60.2703C328.317 60.7929 328.49 61.3473 328.571 61.9335C328.608 62.1669 328.587 62.3128 328.512 62.3685C328.437 62.4295 328.253 62.4773 327.983 62.5144C327.906 62.5144 327.796 62.525 327.66 62.5463C327.524 62.5675 327.436 62.5781 327.395 62.5781H326.664C326.33 62.5781 325.985 62.586 325.633 62.6046C325.28 62.6258 324.957 62.6471 324.666 62.6656C324.372 62.6815 324.183 62.6922 324.108 62.6922C323.4 62.6922 322.831 62.6152 322.401 62.4587C321.971 62.3022 321.637 62.0714 321.402 61.7584C321.167 61.4454 321.004 61.0687 320.903 60.6178C320.804 60.1722 320.716 59.6576 320.636 59.074C320.443 56.9333 320.283 54.8059 320.166 52.6838C320.048 50.5617 319.949 48.4131 319.875 46.2353C319.875 46.1929 319.864 45.9806 319.843 45.5934C319.821 45.2061 319.789 44.7604 319.754 44.2511C319.714 43.7445 319.677 43.2484 319.64 42.763C319.597 42.2749 319.557 41.8983 319.519 41.6224C319.442 40.1422 319.509 38.7841 319.725 37.5347C319.939 36.2906 320.184 34.9298 320.457 33.4523C320.222 32.7892 320.273 32.0889 320.606 31.3514C320.938 30.614 321.205 29.9509 321.4 29.3673C321.477 29.0569 321.528 28.7625 321.549 28.4919C321.565 28.2187 321.635 27.9083 321.752 27.5555C321.752 27.5211 321.773 27.4521 321.811 27.3539C321.848 27.2558 321.891 27.208 321.928 27.208C322.356 26.4282 322.732 25.643 323.045 24.8446C323.357 24.0488 323.785 23.2583 324.337 22.4784C324.687 22.0116 325.12 21.5367 325.627 21.0487C326.135 20.5632 326.685 20.107 327.273 19.6799C327.86 19.2502 328.477 18.9027 329.123 18.6295C329.77 18.3563 330.403 18.1812 331.033 18.1043C332.796 17.9477 334.166 18.1891 335.143 18.8311C336.124 19.473 336.901 20.3033 337.47 21.3139C338.033 22.3246 338.471 23.4413 338.789 24.6695C339.099 25.8923 339.457 27.033 339.847 28.0808C339.847 28.1975 339.876 28.4123 339.932 28.7253C339.991 29.0384 340.042 29.3673 340.082 29.7174C340.122 30.0676 340.17 30.3885 340.231 30.6803C340.287 30.9695 340.317 31.1737 340.317 31.2904C340.592 33.8608 340.757 36.4471 340.816 39.052C340.875 41.6622 340.966 44.2485 341.083 46.8136C341.083 47.4767 341.035 48.1584 340.936 48.8587C340.837 49.559 340.811 50.2381 340.848 50.9012C340.848 50.9782 340.867 51.1798 340.904 51.5114C340.942 51.8429 340.982 52.2037 341.024 52.5936C341.062 52.9809 341.11 53.339 341.171 53.6706C341.227 54.0022 341.259 54.2038 341.259 54.2807V56.2091C341.259 56.2861 341.265 56.4877 341.289 56.8192C341.307 57.1508 341.329 57.5116 341.348 57.9015C341.369 58.2888 341.385 58.6469 341.404 58.9785C341.422 59.3101 341.433 59.5329 341.433 59.6496C341.433 59.8857 341.393 60.2332 341.315 60.7C341.238 61.1669 340.982 61.4401 340.552 61.5197H340.434C340.394 61.5197 340.266 61.4985 340.052 61.4587C339.836 61.4215 339.708 61.403 339.67 61.403C339.55 61.403 339.315 61.4136 338.963 61.4348C338.61 61.456 338.244 61.4613 337.876 61.4613C337.502 61.4613 337.152 61.4719 336.818 61.4932C336.484 61.5144 336.268 61.525 336.153 61.525ZM326.517 40.5162C326.557 40.9831 326.829 41.3147 327.339 41.5057C327.847 41.702 328.44 41.8266 329.102 41.8903C329.767 41.946 330.435 41.9672 331.1 41.946C331.765 41.9248 332.275 41.8983 332.627 41.8585C332.705 41.8585 332.863 41.8479 333.098 41.8266C333.333 41.8081 333.487 41.8001 333.568 41.8001C333.645 41.6807 333.704 41.572 333.744 41.4791C333.787 41.381 333.821 41.2722 333.861 41.1582C333.861 40.9247 333.84 40.5481 333.805 40.0176C333.76 39.495 333.733 38.9194 333.712 38.2987C333.696 37.6779 333.674 37.1023 333.656 36.5771C333.634 36.0492 333.626 35.6726 333.626 35.4391C333.666 35.3622 333.685 35.1845 333.685 34.9139V34.3303L333.095 28.667C333.055 28.3991 332.956 28.0834 332.804 27.7359C332.644 27.3858 332.449 27.0648 332.214 26.7704C331.978 26.4812 331.693 26.2478 331.364 26.0727C331.03 25.895 330.691 25.8287 330.336 25.8685C330.023 25.9056 329.724 26.0038 329.455 26.1603C328.162 27.4813 327.358 28.8633 327.046 30.3037C326.73 31.7414 326.554 33.3197 326.517 35.0306C326.517 35.9617 326.495 36.8795 326.461 37.7734C326.418 38.6674 326.442 39.5772 326.517 40.5162Z" fill="#2BB673"/>
<path d="M349.133 60.9387C348.781 58.4108 348.594 55.912 348.575 53.4424C348.554 50.9702 348.543 48.49 348.543 46.0018C348.468 41.5666 348.318 37.158 348.105 32.7811C347.888 28.407 347.587 23.9824 347.191 19.5074C347.274 19.274 347.4 19.0671 347.576 18.8947C347.75 18.7196 347.995 18.5949 348.308 18.5127H348.543C351.208 18.5949 353.655 18.778 355.887 19.0671C358.123 19.3642 360.07 19.9345 361.734 20.7913C363.4 21.6481 364.77 22.8444 365.847 24.3776C366.923 25.9162 367.639 27.9507 367.994 30.4787C368.149 31.6458 368.149 32.9217 367.994 34.2984C367.834 35.6831 367.465 36.9829 366.878 38.2111C366.287 39.4366 365.467 40.495 364.41 41.3915C363.352 42.2881 362.001 42.8107 360.353 42.9672C359.568 43.0441 358.804 43.0203 358.061 42.8797C357.316 42.7444 356.571 42.6356 355.829 42.5587C355.516 42.6781 355.308 42.824 355.214 42.999C355.116 43.1688 355.067 43.4128 355.067 43.7232C355.067 43.9195 355.078 44.2696 355.094 44.7736C355.116 45.2803 355.134 45.8055 355.153 46.3493C355.177 46.8931 355.193 47.421 355.212 47.9249C355.23 48.4316 355.26 48.7844 355.3 48.9754C355.3 49.0523 355.305 49.2672 355.327 49.6173C355.348 49.9701 355.377 50.1823 355.415 50.2593L355.535 60.8804C355.455 61.1138 355.385 61.395 355.327 61.7239C355.27 62.0555 355.081 62.2783 354.768 62.3977C354.616 62.3977 354.293 62.4162 353.802 62.4534C353.31 62.4905 353.008 62.5303 352.891 62.5727C352.383 62.647 351.911 62.6974 351.481 62.7186C351.051 62.7372 350.677 62.6974 350.364 62.5993C350.054 62.5038 349.785 62.3287 349.571 62.0767C349.357 61.8247 349.211 61.448 349.133 60.9387ZM356.478 33.5716C356.555 34.1181 356.713 34.5319 356.948 34.8263C357.183 35.1181 357.653 35.2269 358.358 35.1473C358.905 35.1075 359.325 34.9138 359.621 34.5637C359.915 34.2109 360.139 33.8051 360.297 33.3355C360.454 32.8687 360.537 32.3965 360.537 31.9084C360.537 31.4203 360.516 31.0039 360.476 30.6511C360.433 30.3832 360.329 29.8951 360.153 29.1948C359.982 28.4945 359.741 27.7916 359.448 27.0939C359.154 26.3936 358.78 25.7888 358.331 25.2848C357.877 24.7808 357.38 24.5633 356.83 24.6429C356.673 24.6429 356.555 24.8578 356.478 25.2848C356.4 25.7146 356.349 26.2477 356.331 26.8897C356.309 27.5316 356.304 28.2319 356.304 28.9879C356.304 29.7518 356.309 30.4495 356.331 31.0914C356.349 31.7334 356.379 32.2878 356.419 32.7546C356.456 33.2215 356.478 33.4947 356.478 33.5716Z" fill="#2BB673"/>
<path d="M374.871 52.0126C374.831 51.8561 374.805 51.6439 374.786 51.3707C374.765 51.1001 374.743 50.8269 374.73 50.551C374.709 50.2805 374.687 50.0391 374.671 49.8242C374.65 49.6094 374.636 49.4635 374.636 49.3865C374.599 48.6491 374.562 47.6809 374.522 46.4978C374.482 45.3121 374.444 44.1317 374.401 42.9672C374.364 41.8027 374.327 40.7708 374.287 39.8742C374.247 38.9776 374.23 38.4736 374.23 38.3569C374.23 37.1924 374.26 35.9165 374.316 34.5319C374.375 33.1551 374.506 31.7546 374.701 30.3301C374.896 28.911 375.219 27.5316 375.67 26.1894C376.119 24.8471 376.72 23.6508 377.462 22.6004C378.205 21.5499 379.155 20.6958 380.306 20.0326C381.466 19.3721 382.862 18.9822 384.51 18.8655H385.685C386.78 19.022 387.838 19.266 388.858 19.5976C389.876 19.9265 390.797 20.3748 391.617 20.9372C392.437 21.5022 393.153 22.1706 393.762 22.9479C394.371 23.7304 394.827 24.6641 395.145 25.7517C395.183 25.9055 395.228 26.2849 395.292 26.8923C395.348 27.4918 395.38 27.8923 395.38 28.086C395.38 28.399 395.388 28.8552 395.412 29.4547C395.428 30.0622 395.439 30.4017 395.439 30.4787C395.439 30.8686 395.45 31.7148 395.471 33.0172C395.49 34.3196 395.519 35.7414 395.554 37.2773C395.597 38.8132 395.623 40.3119 395.647 41.7682C395.663 43.2271 395.674 44.3068 395.674 45.007C395.674 45.9806 395.685 47.1 395.706 48.3653C395.725 49.6306 395.685 50.9436 395.589 52.3018C395.49 53.6652 395.314 55.0074 395.06 56.3311C394.806 57.6547 394.384 58.8405 393.797 59.8909C393.206 60.9413 392.44 61.8114 391.505 62.4878C390.562 63.1669 389.368 63.5436 387.921 63.6258C386.666 63.7001 385.482 63.6258 384.366 63.3897C383.25 63.1563 382.101 62.8459 380.929 62.456C379.751 62.1058 378.792 61.5621 378.05 60.8246C377.305 60.0845 376.706 59.2278 376.258 58.2542C375.806 57.286 375.472 56.2515 375.259 55.1613C375.042 54.0737 374.912 53.0233 374.871 52.0126ZM382.689 51.6041C382.766 52.4238 383.012 53.1506 383.418 53.7925C383.835 54.4318 384.508 54.7183 385.45 54.6387C386.078 54.5963 386.543 54.4159 386.861 54.0843C387.173 53.7527 387.397 53.3442 387.534 52.8562C387.672 52.3681 387.753 51.8561 387.769 51.3123C387.79 50.7685 387.819 50.2619 387.857 49.795V49.2963C387.857 49.0417 387.867 48.7738 387.883 48.4767C387.907 48.1875 387.918 47.9117 387.918 47.6623V47.222C388.036 45.2378 388.092 43.4181 388.092 41.7655C388.092 40.113 388.036 38.2933 387.918 36.3091C387.918 36.0757 387.897 35.6964 387.859 35.1711C387.819 34.6459 387.782 34.0809 387.745 33.4788C387.702 32.874 387.662 32.3116 387.624 31.7864C387.584 31.2612 387.568 30.8792 387.568 30.6484C387.488 30.415 387.341 30.094 387.128 29.6829C386.911 29.277 386.676 28.8871 386.42 28.5184C386.163 28.1497 385.872 27.8287 385.539 27.5555C385.205 27.2849 384.882 27.147 384.572 27.147C384.179 27.1867 383.84 27.3724 383.541 27.7014C383.25 28.0303 383.015 28.4308 382.836 28.895C382.659 29.3645 382.523 29.842 382.424 30.3248C382.328 30.8129 382.256 31.2108 382.219 31.5238C382.179 31.6007 382.141 31.797 382.101 32.1074C382.064 32.4204 382.016 32.7679 381.954 33.1578C381.898 33.5477 381.84 33.9164 381.781 34.2666C381.722 34.6167 381.693 34.8316 381.693 34.9085V35.7255V37.2985C381.693 37.8848 381.682 38.4604 381.661 39.0201C381.642 39.5877 381.631 40.0228 381.631 40.3331V40.8C381.631 40.8769 381.642 40.9353 381.661 40.9751C381.682 41.0149 381.693 41.0732 381.693 41.1501V41.3836C381.733 41.7709 381.799 42.4526 381.898 43.4261C381.994 44.3996 382.101 45.4209 382.219 46.4899C382.339 47.5589 382.435 48.5801 382.513 49.5536C382.59 50.5272 382.646 51.2142 382.689 51.6041Z" fill="#2BB673"/>
<path d="M400.898 52.596C401.174 51.8586 401.67 51.3811 402.399 51.1663C403.123 50.9514 403.986 50.8931 404.982 50.9939C405.978 51.0947 407.095 51.2724 408.334 51.5483C409.568 51.8188 410.85 52.0708 412.18 52.3043C412.727 52.2671 413.208 52.1292 413.619 51.8958C414.031 51.6623 414.413 51.3626 414.762 50.9939C415.12 50.6225 415.451 50.206 415.764 49.7365C416.076 49.2697 416.41 48.8001 416.76 48.3359C416.803 48.2988 416.84 48.2113 416.88 48.0733C416.92 47.9354 416.939 47.8505 416.939 47.8107L416.704 44.365C416.629 44.3278 416.381 44.1315 415.972 43.784C415.561 43.4312 415.238 43.158 415.003 42.9644C414.923 42.8875 414.773 42.7787 414.559 42.6434C414.346 42.5081 414.199 42.4418 414.121 42.4418C412.749 41.8582 411.467 41.3914 410.273 41.0412C409.079 40.6937 407.963 40.2746 406.924 39.7865C405.885 39.2985 404.947 38.6406 404.103 37.8024C403.259 36.9695 402.525 35.7705 401.9 34.2107C401.9 34.0967 401.889 33.9216 401.868 33.6882C401.847 33.4547 401.817 33.2107 401.782 32.9587C401.742 32.7067 401.713 32.4706 401.694 32.2584C401.673 32.0462 401.665 31.9003 401.665 31.8207C401.622 31.2769 401.577 30.6934 401.513 30.07C401.457 29.4466 401.523 28.8657 401.721 28.3219C401.758 28.1654 401.841 27.8816 401.956 27.4704C402.071 27.0646 402.212 26.6481 402.367 26.2184C402.525 25.7913 402.669 25.3828 402.808 24.9929C402.947 24.6056 403.032 24.3324 403.072 24.1759V23.8841C403.307 23.5339 403.521 23.2607 403.719 23.0671C403.914 22.8734 404.103 22.6692 404.277 22.457C404.453 22.2421 404.6 22.075 404.72 21.9583C406.01 20.5179 407.292 19.4303 408.566 18.6903C409.843 17.9502 411.397 17.486 413.237 17.2897C413.748 17.2499 414.49 17.3109 415.47 17.4647C416.445 17.6213 417.425 17.8547 418.408 18.1677C419.386 18.478 420.248 18.8759 420.991 19.364C421.736 19.8468 422.131 20.3826 422.168 20.9662C422.211 21.3163 422.19 21.7832 422.107 22.3668C422.032 22.9477 421.904 23.5339 421.728 24.1202C421.549 24.6984 421.319 25.2184 421.023 25.664C420.729 26.1123 420.384 26.3537 419.992 26.3935C418.974 26.4704 417.957 26.4598 416.936 26.3616C415.916 26.2688 414.899 26.2582 413.876 26.3378C413.683 26.3378 413.28 26.3722 412.677 26.4518C412.07 26.5287 411.667 26.5685 411.472 26.5685C411.355 26.6481 411.17 26.7357 410.914 26.8311C410.657 26.9266 410.404 27.0566 410.15 27.2131C409.894 27.367 409.68 27.5235 409.506 27.6773C409.33 27.8338 409.239 27.9903 409.239 28.1442L409.53 31.6483C409.53 31.8393 409.656 32.025 409.915 32.2027C410.169 32.3751 410.444 32.5475 410.738 32.7253C411.031 32.9003 411.336 33.0568 411.646 33.1921C411.963 33.3274 412.177 33.4176 412.297 33.4547C413.862 34.1948 415.291 34.8951 416.584 35.5556C417.871 36.2161 418.988 36.9933 419.933 37.8899C420.873 38.7865 421.629 39.8422 422.198 41.0704C422.767 42.2959 423.127 43.8212 423.282 45.6515C423.44 47.2484 423.33 48.8214 422.959 50.3785C422.585 51.9355 421.979 53.3229 421.138 54.551C420.299 55.7739 419.228 56.7978 417.935 57.6121C416.643 58.4318 415.176 58.9172 413.529 59.0737C412.156 59.2302 410.748 59.2462 409.298 59.1294C407.848 59.0127 406.528 58.7209 405.335 58.2541C404.138 57.7872 403.131 57.0975 402.303 56.1824C401.486 55.2699 401.016 54.0736 400.898 52.596Z" fill="#2BB673"/>
</svg>
