<svg width="368" height="53" viewBox="0 0 368 53" fill="none" xmlns="http://www.w3.org/2000/svg">
<path d="M14.4135 21.8674C14.5265 22.7465 14.5792 23.7555 14.5792 24.8919C14.5792 26.0257 14.5064 27.1995 14.3583 28.4058C14.2127 29.6145 13.9818 30.7884 13.668 31.9222C13.3567 33.056 12.9576 34.05 12.4807 34.8917C11.8933 35.8032 11.1754 36.6948 10.3269 37.5515C9.481 38.4131 8.65263 39.2298 7.84184 39.9965C7.2896 40.8356 7.0687 41.7172 7.17915 42.6338C7.25194 43.408 7.52807 43.9999 8.00751 44.4195C8.48445 44.8415 9.20236 45.0139 10.1613 44.9414C11.7075 44.7591 12.9325 44.2197 13.8337 43.3256C14.7373 42.4265 15.0938 41.3351 14.9105 40.0514C14.8377 39.3921 14.7273 38.7153 14.5792 38.0185C14.4311 37.3242 14.3206 36.6124 14.2478 35.8782C14.2127 35.6234 14.2955 35.3038 14.4964 34.9166C14.6997 34.532 14.9457 34.1499 15.2419 33.7603C15.5356 33.3782 15.8594 33.0486 16.2083 32.7713C16.5572 32.5016 16.861 32.3618 17.1195 32.3618H17.3956C17.5437 32.3218 17.8475 32.3093 18.3068 32.3318C18.7662 32.3518 19.0699 32.3618 19.218 32.3618C20.2497 33.2034 20.9476 34.2373 21.3165 35.4636C21.683 36.6923 21.9592 37.8911 22.1449 39.0599C22.2177 39.6843 22.2177 40.2787 22.1449 40.8481C22.0696 41.4175 21.9441 42.0119 21.7583 42.6338C21.0957 45.416 19.8054 47.5738 17.8926 49.0897C15.9799 50.6107 13.2162 51.5172 9.61152 51.8094C8.21084 51.9193 6.94821 51.782 5.82615 51.3974C4.70159 51.0178 3.74772 50.4733 2.9545 49.779C2.16378 49.0847 1.51867 48.2606 1.02165 47.3065C0.52463 46.35 0.220897 45.366 0.110448 44.3396C-9.35119e-09 43.6078 -0.0276121 42.8561 0.0276121 42.0844C0.0828363 41.3201 0.228428 40.5709 0.469406 39.8366C0.710385 39.1049 1.07687 38.4181 1.57389 37.7762C2.07091 37.1369 2.72356 36.575 3.53435 36.1004C4.05145 35.7708 4.63883 35.4186 5.30152 35.029C5.96421 34.6444 6.4788 34.1949 6.8478 33.6829C7.32474 32.9512 7.67617 32.0895 7.89706 31.1005C8.11796 30.114 8.25602 29.0951 8.31124 28.0511C8.36647 27.0072 8.374 25.9807 8.33886 24.9743C8.3012 23.9678 8.26355 23.0587 8.22841 22.2545C8.1531 21.5602 8.10792 20.9708 8.09035 20.4963C8.07027 20.0218 8.1531 19.6347 8.33886 19.3425C8.51959 19.0478 8.86349 18.8081 9.35799 18.6282C9.85501 18.4434 10.5805 18.3161 11.5394 18.2436C12.1644 18.2062 12.6514 18.2961 13.0028 18.5159C13.3542 18.7356 13.6278 19.0278 13.8312 19.395C14.032 19.7621 14.1725 20.1742 14.2453 20.6337C14.3206 21.0907 14.3734 21.5003 14.4135 21.8674ZM14.5792 11.538C14.6168 12.0524 14.6068 12.5644 14.5516 13.0764C14.4964 13.5884 14.3483 14.0679 14.1098 14.5049C13.8713 14.9445 13.5199 15.3116 13.063 15.6038C12.6012 15.896 12.0037 16.0808 11.2657 16.1558C10.7512 16.1882 10.2491 16.1258 9.77217 15.961C9.29524 15.7961 8.85596 15.5589 8.4493 15.2467C8.04265 14.9345 7.70378 14.5898 7.42515 14.2027C7.14903 13.8181 6.99339 13.4435 6.95574 13.0764C6.9206 12.6368 6.97833 12.1898 7.12392 11.7303C7.26952 11.2732 7.51049 10.8611 7.83933 10.494C8.17067 10.1294 8.56477 9.8197 9.02665 9.55997C9.49103 9.30273 9.99307 9.15788 10.5478 9.12042C11.5042 9.04799 12.3878 9.2303 13.1986 9.66986C14.0069 10.1119 14.4687 10.7338 14.5792 11.538Z" fill="#2BB673"/>
<path d="M42.7969 48.1313C42.3175 48.2412 41.8933 48.431 41.5268 48.7107C41.1578 48.9804 40.7988 49.2652 40.4499 49.5549C40.0985 49.8521 39.722 50.1268 39.3178 50.384C38.9137 50.6413 38.4518 50.7886 37.9372 50.8211C37.1992 50.896 36.4813 50.8036 35.7835 50.5489C35.0831 50.2916 34.4204 49.9794 33.7954 49.6148C32.6533 49.0304 31.6969 48.2687 30.9237 47.3346C30.1481 46.4006 29.5155 45.3766 29.016 44.2553C28.5215 43.1414 28.1449 41.9676 27.8864 40.7438C27.6278 39.5176 27.4622 38.2988 27.3894 37.0876C27.3894 37.0151 27.3693 36.9327 27.3316 36.8453C27.2965 36.7529 27.2789 36.688 27.2789 36.6505C27.2413 34.5252 27.1584 32.3724 27.0279 30.1971C26.8999 28.0118 26.9551 25.889 27.1961 23.8186C27.4346 21.7507 27.9667 19.7802 28.7951 17.9121C29.6234 16.044 31.0141 14.3607 32.967 12.8572C33.6649 12.3053 34.5309 11.7608 35.5626 11.2089C36.5917 10.657 37.5506 10.3498 38.4342 10.2749C39.3178 10.2374 40.0985 10.3498 40.7813 10.6045C41.4615 10.8643 42.0765 11.2189 42.6313 11.6759C43.1835 12.1355 43.6881 12.6649 44.1499 13.2693C44.6093 13.8712 45.0411 14.4706 45.4477 15.055C45.8518 15.7168 46.3037 16.3562 46.7982 16.9805C47.2977 17.6024 47.619 18.2767 47.7671 19.011C47.7671 19.2307 47.7947 19.6054 47.85 20.1373C47.9052 20.6668 47.9504 21.2287 47.988 21.8131C48.0257 22.3975 48.0709 22.9495 48.1261 23.4614C48.1813 23.9734 48.2089 24.3231 48.2089 24.5054C48.2441 24.8725 48.2817 25.3495 48.3194 25.9339L48.4298 27.6921C48.465 28.279 48.5026 28.801 48.5403 29.258C48.5754 29.7151 48.5955 29.9648 48.5955 29.9948C48.6306 30.5118 48.6507 31.1061 48.6507 31.783C48.6507 32.4623 48.6407 33.179 48.6231 33.9308C48.603 34.6775 48.5578 35.4093 48.485 36.126C48.4097 36.8428 48.3194 37.4722 48.2089 38.0216C48.2089 38.0965 48.1813 38.2514 48.1261 38.4886C48.0709 38.7284 48.0156 38.9831 47.9604 39.2553C47.9052 39.5326 47.85 39.7873 47.7947 40.0296C47.737 40.2718 47.7119 40.4017 47.7119 40.4416C47.7119 40.4816 47.7019 40.5216 47.6843 40.579C47.6642 40.6339 47.6567 40.6789 47.6567 40.7164C47.6918 41.1934 47.9403 41.6479 48.4022 42.09C48.8616 42.532 49.3686 42.989 49.9184 43.4661C50.4731 43.9406 50.9777 44.4176 51.4395 44.8946C51.8989 45.3691 52.1474 45.8836 52.1851 46.433C52.1851 46.6154 52.0269 47.0249 51.7131 47.6718C51.4019 48.3061 51.0329 48.968 50.6112 49.6473C50.1869 50.3241 49.7627 50.9385 49.341 51.4854C48.9168 52.0373 48.5955 52.3096 48.3746 52.3096C48.2993 52.3096 48.2441 52.2996 48.2089 52.2821C48.1713 52.2596 48.1336 52.2546 48.0985 52.2546L43.2362 48.2986C43.2011 48.2237 43.1258 48.1688 43.0153 48.1338C42.9049 48.0988 42.8321 48.0988 42.7969 48.1313ZM33.9611 32.747C34.0339 33.5187 34.1167 34.3953 34.2096 35.3868C34.2999 36.3758 34.4857 37.3448 34.7593 38.2988C35.0379 39.2504 35.432 40.112 35.9491 40.8787C36.4637 41.6454 37.1616 42.2173 38.0477 42.582C38.2309 42.4746 38.379 42.2648 38.4894 41.9526C38.5999 41.6404 38.6727 41.4456 38.7103 41.3757V41.2658C38.7103 41.1934 38.6903 41.1334 38.6551 41.101C38.1757 40.5166 37.5958 39.8298 36.9156 39.0431C36.2328 38.2564 35.8387 37.4397 35.7282 36.5981C35.7282 36.2659 35.801 35.9487 35.9491 35.6365C36.0972 35.3244 36.288 35.0521 36.5265 34.8124C36.7675 34.5701 37.0511 34.3703 37.3825 34.208C37.7163 34.0457 38.0477 33.9433 38.379 33.9058C38.7103 33.8708 39.0141 33.9383 39.2902 34.0981C39.5638 34.2579 39.8224 34.4502 40.0633 34.6475C40.3018 34.8498 40.5127 35.0321 40.6984 35.197C40.8817 35.3618 41.0649 35.4292 41.2482 35.3918C41.5444 35.2794 41.7552 34.9223 41.8857 34.3179C42.0138 33.7135 42.0966 33.0467 42.1342 32.3099C42.1719 31.5782 42.1719 30.8764 42.1342 30.1996C42.0966 29.5203 42.0615 29.0358 42.0238 28.7411C42.0238 28.5587 41.9962 28.1741 41.941 27.5897C41.8857 27.0028 41.8104 26.3335 41.7201 25.5818C41.6272 24.8325 41.5067 24.0433 41.3586 23.2192C41.213 22.395 41.0273 21.6458 40.8089 20.964C40.588 20.2872 40.3194 19.7302 40.0081 19.2907C39.6943 18.8536 39.3354 18.6513 38.9287 18.6863C38.2309 18.7238 37.6234 19.0334 37.1088 19.6203C36.5917 20.2072 36.1424 20.9415 35.7559 21.8181C35.3693 22.6972 35.0555 23.6762 34.817 24.7576C34.5761 25.8365 34.3828 26.8904 34.2347 27.9144C34.0891 28.9433 33.9987 29.8899 33.9611 30.744C33.9234 31.6031 33.9234 32.275 33.9611 32.747Z" fill="#2BB673"/>
<path d="M73.8345 50.8783C73.5031 50.8059 73.2571 50.6061 73.0889 50.2789C72.9233 49.9442 72.7953 49.5996 72.7024 49.2325C72.612 48.8678 72.5367 48.5432 72.4815 48.2685C72.4263 47.9937 72.3233 47.8564 72.1777 47.8564C71.9568 47.8988 71.6732 48.0587 71.3218 48.3509C70.9703 48.6431 70.5762 48.9727 70.1345 49.3399C69.6927 49.7045 69.1956 50.0541 68.6434 50.3838C68.0912 50.716 67.5188 50.8933 66.9314 50.9307C66.1934 51.0082 65.468 50.9682 64.7501 50.8233C64.0322 50.6735 63.3795 50.4188 62.7896 50.0541C61.4642 49.2824 60.4225 48.3309 59.6695 47.1921C58.9164 46.0582 58.324 44.8245 57.9023 43.4858C57.4781 42.1497 57.1844 40.7561 57.0187 39.3101C56.853 37.864 56.6974 36.4605 56.5493 35.1094C56.2933 32.542 56.2456 29.9971 56.4112 27.4671C56.5769 24.9397 56.7501 22.3773 56.9359 19.775V19.3079C56.9359 19.0332 56.9534 18.741 56.9911 18.4288C57.0287 18.1192 57.0463 17.8245 57.0463 17.5497V17.0328C57.0815 16.4484 57.1015 15.9364 57.1015 15.4943C57.1015 15.0548 57.1743 14.6802 57.3224 14.3705C57.468 14.0583 57.7165 13.7911 58.068 13.5713C58.4169 13.3515 58.9591 13.1867 59.6971 13.0768C59.8803 13.0418 60.1489 13.0493 60.4978 13.1043C60.8467 13.1592 61.2157 13.2441 61.6023 13.3515C61.9889 13.4639 62.3579 13.5888 62.7068 13.7361C63.0557 13.8835 63.2866 14.0283 63.3971 14.1757C63.3971 14.2506 63.4172 14.378 63.4523 14.5603C63.49 14.7451 63.5075 14.8725 63.5075 14.9449C63.5803 15.7516 63.6004 16.5932 63.5628 17.4723C63.5276 18.3514 63.4523 19.2405 63.3419 20.1371C63.2314 21.0362 63.1285 21.9228 63.0381 22.8044C62.9453 23.681 62.8825 24.5251 62.8448 25.3318C62.7344 26.9801 62.752 28.5885 62.9026 30.1644C63.0457 31.7403 63.2139 33.3511 63.3971 35.002C63.5075 36.1383 63.6632 37.2422 63.8665 38.3286C64.0673 39.405 64.6296 40.3515 65.5508 41.1532C65.6236 41.2306 65.827 41.3955 66.1583 41.6502C66.4897 41.9074 66.6905 42.0748 66.7658 42.1422C66.8009 42.1422 66.8687 42.1622 66.9591 42.1946C67.0519 42.2346 67.1147 42.2496 67.1523 42.2496H67.2628H67.318C67.3933 42.2146 67.5389 42.1397 67.7598 42.0298C67.9807 41.9199 68.1288 41.7726 68.2016 41.5903C68.9371 40.0893 69.4617 38.6058 69.7755 37.1398C70.0893 35.6738 70.2901 34.2203 70.383 32.7717C70.4733 31.3257 70.5034 29.8497 70.4658 28.3462C70.4307 26.8478 70.4307 25.2918 70.4658 23.6785V23.3239C70.4658 23.1216 70.4733 22.9018 70.4934 22.662C70.5135 22.4248 70.5311 22.1975 70.5486 21.9777C70.5662 21.7579 70.5762 21.5906 70.5762 21.4782C70.5762 21.4458 70.5938 21.2984 70.6315 21.0412C70.6666 20.7864 70.7043 20.5017 70.7419 20.192C70.7771 19.8799 70.8147 19.6051 70.8524 19.3679C70.8875 19.1281 70.9076 18.9733 70.9076 18.8984C70.9452 17.9493 70.9176 17.1077 70.8247 16.3759C70.7344 15.6442 70.7419 15.0198 70.8524 14.5078C70.9628 13.9934 71.259 13.5788 71.736 13.2691C72.2129 12.9594 73.0613 12.7471 74.2763 12.6372C74.4972 12.6023 74.7909 12.5648 75.1599 12.5273C75.5289 12.4924 75.8853 12.4824 76.2367 12.5024C76.5882 12.5199 76.9195 12.5923 77.2333 12.7221C77.5445 12.847 77.773 13.0768 77.9211 13.4064C77.9211 13.5888 77.9587 13.9109 78.0315 14.3705C78.1043 14.8275 78.162 15.1297 78.1972 15.2745C78.3829 17.0328 78.408 18.756 78.28 20.4393C78.152 22.1251 78.0516 23.8483 77.9763 25.604C77.9411 26.1185 77.9587 26.6854 78.0315 27.3073C78.1043 27.9317 78.0867 28.536 77.9763 29.1204C78.2348 30.8062 78.408 32.4845 78.5009 34.1528C78.5938 35.8161 78.6566 37.4944 78.6967 39.1727C78.7293 40.8635 78.767 42.5468 78.8046 44.2326C78.8398 45.9183 78.9151 47.6016 79.0256 49.2849C78.9502 49.5746 78.8599 49.8718 78.7494 50.164C78.639 50.4562 78.4181 50.6211 78.0867 50.6585C77.3136 50.7309 76.6233 50.7484 76.0158 50.716C75.4084 50.676 74.6804 50.7309 73.8345 50.8783Z" fill="#2BB673"/>
<path d="M85.6523 47.9664C85.6523 47.899 85.6699 47.8091 85.7051 47.7167C85.7427 47.6243 85.7427 47.5618 85.7051 47.5269C85.7427 47.0523 85.8004 46.4729 85.8732 45.7986C85.946 45.1193 86.0741 44.5599 86.2573 44.1203C86.3703 43.8631 86.5535 43.6683 86.8121 43.5434C87.0681 43.4185 87.3367 43.3061 87.6103 43.2162C87.8889 43.1238 88.155 43.0314 88.4136 42.939C88.6696 42.8491 88.8729 42.6918 89.021 42.472C89.0562 42.472 89.0838 42.4171 89.1039 42.3097C89.1214 42.1973 89.1315 42.1049 89.1315 42.0349C89.1315 41.9625 89.139 41.8152 89.1566 41.5954C89.1767 41.3731 89.1942 41.1259 89.2143 40.8511C89.2319 40.5789 89.2419 40.3142 89.2419 40.057V39.5025C89.1315 36.538 89.1039 33.5885 89.1566 30.659C89.2143 27.7295 89.149 24.8 88.9633 21.8655C88.9633 21.7931 88.9482 21.6457 88.9106 21.4259C88.8729 21.2062 88.8428 20.9664 88.8277 20.7142C88.8077 20.4544 88.7901 20.2172 88.7725 19.9974C88.7524 19.7776 88.7424 19.6128 88.7424 19.5029C88.6696 19.1732 88.4964 18.9734 88.2178 18.8985C87.9441 18.8261 87.6404 18.7536 87.3091 18.6787C86.9752 18.6063 86.6815 18.4864 86.4255 18.3241C86.1669 18.1568 86.0188 17.8546 85.9837 17.4175C85.9837 17.38 85.9737 17.3426 85.9561 17.3051C85.936 17.2702 85.926 17.2302 85.926 17.1977V16.0714C85.926 15.5419 85.936 14.9725 85.9561 14.3706C85.9737 13.7662 85.9837 13.1968 85.9837 12.6648V11.5959C86.0565 11.3012 86.1469 10.9366 86.2573 10.4946C86.3703 10.055 86.5711 9.80027 86.8648 9.72534L86.9752 9.78029H87.0857C87.6404 9.89267 88.4136 9.93513 89.4076 9.91765C90.4016 9.90016 91.4132 9.91765 92.4449 9.97259C93.4741 10.03 94.4405 10.1549 95.3417 10.3572C96.2454 10.5595 96.8804 10.9166 97.2494 11.4286C97.4327 11.6484 97.523 11.998 97.523 12.4725C97.523 12.9496 97.5431 13.3167 97.5808 13.5714C97.6912 15.1448 97.6435 16.2462 97.4402 16.8681C97.2394 17.4924 97.0009 17.912 96.7248 18.1318C96.4487 18.3516 96.1625 18.4989 95.8663 18.5688C95.5726 18.6463 95.3894 18.9385 95.3166 19.4504C95.058 20.9889 94.9099 22.5248 94.8748 24.0682C94.8371 25.6042 94.8472 27.1426 94.9024 28.681C94.9576 30.222 95.038 31.7504 95.1484 33.2689C95.2614 34.7898 95.3517 36.3208 95.427 37.8567V38.4336V39.4501C95.427 39.8147 95.4346 40.1519 95.4521 40.464C95.4722 40.7762 95.4823 40.9685 95.4823 41.041V41.4805C95.5174 41.9201 95.6831 42.2148 95.9768 42.3621C96.2705 42.507 96.6043 42.6443 96.9733 42.7717C97.3398 42.9016 97.6812 43.0639 97.995 43.2662C98.3062 43.4685 98.4995 43.8456 98.5723 44.3925C98.5723 44.6498 98.5823 45.0244 98.5999 45.5189C98.62 46.0134 98.5924 46.5079 98.5196 47.0024C98.4443 47.4944 98.3062 47.9464 98.1054 48.3485C97.9021 48.7481 97.5808 48.9679 97.139 49.0078C96.401 49.1602 95.5626 49.1902 94.6238 49.1177C93.6875 49.0478 92.8491 49.0478 92.1111 49.1177C92.0006 49.1177 91.7345 49.1502 91.3128 49.2001C90.8886 49.2551 90.4468 49.31 89.9874 49.3675C89.5256 49.4199 89.0838 49.4649 88.6596 49.5023C88.2378 49.5398 87.9718 49.5548 87.8613 49.5548C87.3442 49.5922 86.8648 49.4899 86.4255 49.2551C85.9837 49.0203 85.7251 48.5908 85.6523 47.9664Z" fill="#2BB673"/>
<path d="M106.633 50.3288C106.488 50.2189 106.337 50.0965 106.194 49.9741C106.043 49.8418 105.973 49.6894 105.973 49.5046C105.785 47.7464 105.795 45.9707 105.998 44.175C106.199 42.3793 106.305 40.6037 106.305 38.8429C106.305 36.6477 106.237 34.4399 106.109 32.2247C105.981 30.0044 105.843 27.7942 105.695 25.5765C105.549 23.3587 105.428 21.1535 105.336 18.9557C105.245 16.7604 105.235 14.5802 105.308 12.4174C105.308 12.2001 105.371 11.9603 105.501 11.7006C105.632 11.4483 105.823 11.301 106.084 11.2635C106.45 11.2286 106.882 11.246 107.379 11.3185C107.876 11.3934 108.293 11.4084 108.621 11.3734C108.77 11.3734 109.043 11.3659 109.45 11.3459C109.856 11.3285 110.286 11.311 110.748 11.2935C111.209 11.2735 111.639 11.2585 112.048 11.2386C112.452 11.2211 112.726 11.2111 112.876 11.2111C112.909 11.2111 113.059 11.1911 113.315 11.1586C113.574 11.1187 113.848 11.0837 114.146 11.0463C114.44 11.0113 114.704 10.9713 114.945 10.9389C115.186 10.8989 115.341 10.8814 115.414 10.8814C115.635 10.8814 115.994 10.8639 116.491 10.8265C116.988 10.7915 117.487 10.7915 117.982 10.8265C118.479 10.8639 118.931 10.9389 119.335 11.0463C119.739 11.1586 119.962 11.3759 120 11.7031L120.384 16.3209C120.422 16.6156 120.294 16.8628 120 17.0626C119.701 17.2649 119.428 17.3848 119.169 17.4198C118.434 17.4947 117.698 17.4647 116.963 17.3373C116.225 17.21 115.469 17.1825 114.696 17.2549C114.513 17.2549 114.272 17.2649 113.978 17.2849C113.684 17.2999 113.381 17.3473 113.067 17.4198C112.756 17.4947 112.487 17.6046 112.266 17.7494C112.048 17.8968 111.937 18.1166 111.937 18.4088C112.048 19.8748 112.048 21.3957 111.937 22.9691C111.827 24.545 111.844 26.0834 111.99 27.5869C111.99 27.7667 112.008 28.0065 112.048 28.2987C112.08 28.5909 112.191 28.8306 112.377 29.013C112.525 29.1228 112.756 29.2053 113.067 29.2627C113.381 29.3152 113.702 29.3426 114.036 29.3426C114.365 29.3426 114.676 29.3326 114.975 29.3152C115.268 29.2977 115.489 29.2852 115.635 29.2852C115.783 29.2852 116.057 29.2652 116.463 29.2327C116.87 29.1953 117.292 29.1553 117.733 29.0954C118.175 29.0404 118.599 28.9955 119.004 28.9555C119.408 28.923 119.686 28.9031 119.832 28.9031C119.942 28.9031 120.033 28.9655 120.111 29.0954C120.183 29.2252 120.218 29.3251 120.218 29.3926L120.605 32.9689C120.64 33.2986 120.557 33.6333 120.357 33.9554C120.153 34.2876 119.905 34.4724 119.611 34.5099C118.8 34.6197 117.992 34.6123 117.184 34.4774C116.37 34.355 115.542 34.3251 114.696 34.4C114.179 34.4724 113.815 34.6123 113.592 34.8121C113.371 35.0094 113.223 35.2616 113.15 35.5538C113.077 35.8435 113.039 36.1782 113.039 36.5453V37.6966C113.039 37.804 113.019 38.0687 112.987 38.4908C112.946 38.9129 112.901 39.3649 112.846 39.8369C112.791 40.309 112.746 40.751 112.708 41.1531C112.673 41.5577 112.635 41.8149 112.598 41.9248C112.673 41.9648 112.688 42.0722 112.653 42.2545C112.615 42.4393 112.635 42.5891 112.708 42.6915C112.708 42.9113 112.746 43.181 112.818 43.4907C112.894 43.8029 113.097 43.9552 113.426 43.9552H114.724H116.659H118.589H119.832C120.422 43.9552 120.954 44.0127 121.433 44.1226C121.91 44.2375 122.244 44.6345 122.427 45.3313C122.427 45.4013 122.455 45.5786 122.513 45.8533C122.566 46.123 122.621 46.4352 122.676 46.7874C122.731 47.137 122.786 47.4792 122.842 47.8313C122.897 48.1809 122.942 48.4432 122.98 48.6255V48.9527C123.052 49.4696 122.927 49.7618 122.593 49.8368C122.262 49.9117 121.893 49.9841 121.489 50.059C119.942 50.2388 118.396 50.2913 116.852 50.1939C115.304 50.1015 113.757 50.039 112.211 49.9991C112.101 49.9691 111.827 49.9791 111.383 50.0316C110.941 50.084 110.685 50.114 110.609 50.114C110.464 50.114 110.195 50.124 109.809 50.1414C109.425 50.1614 109.018 50.1864 108.596 50.2239C108.172 50.2613 107.773 50.2913 107.406 50.3013C107.037 50.3188 106.781 50.3288 106.633 50.3288ZM106.357 8.29655C106.357 8.18666 106.515 7.96689 106.829 7.63722C107.14 7.30756 107.489 6.95042 107.876 6.56581C108.262 6.17871 108.649 5.81408 109.036 5.46693C109.425 5.11979 109.708 4.87254 109.892 4.72519C109.967 4.69022 110.123 4.56036 110.363 4.34058C110.599 4.1208 110.737 3.97595 110.775 3.90103C110.888 3.78864 111.051 3.61881 111.272 3.37906C111.493 3.1418 111.734 2.89455 111.99 2.63731C112.249 2.38008 112.495 2.13533 112.736 1.89557C112.977 1.65831 113.13 1.50097 113.208 1.42855C113.315 1.17131 113.602 0.869115 114.061 0.521969C114.523 0.174822 114.897 0 115.196 0C115.341 0 115.524 0.0724264 115.745 0.219776C115.966 0.364629 116.197 0.541948 116.438 0.741745C116.674 0.944039 116.885 1.13634 117.073 1.31866C117.256 1.50097 117.367 1.62834 117.402 1.70077V2.25271V2.80215C117.402 2.98446 117.309 3.14929 117.126 3.29664C117.015 3.40653 116.812 3.57886 116.518 3.81861C116.225 4.05837 116.024 4.21321 115.914 4.28813C114.696 5.12728 113.471 5.99889 112.239 6.89548C111.006 7.79456 109.761 8.66118 108.511 9.50532C108.401 9.54029 108.308 9.57026 108.235 9.59023C108.162 9.60522 108.052 9.61271 107.903 9.61271C107.499 9.61271 107.14 9.47036 106.829 9.17566C106.515 8.88096 106.357 8.58875 106.357 8.29655Z" fill="#2BB673"/>
<path d="M136.898 35.9885C136.971 35.7687 136.926 35.514 136.76 35.2143C136.594 34.9246 136.363 34.7797 136.07 34.7797H135.904C135.904 35.0719 135.894 35.5739 135.876 36.2882C135.856 37.0025 135.839 37.7617 135.821 38.5684C135.801 39.3726 135.783 40.1443 135.766 40.876C135.746 41.6103 135.738 42.1023 135.738 42.362V43.5159C135.776 44.2476 135.849 44.9744 135.959 45.6836C136.07 46.3979 136.142 47.1222 136.18 47.8539C136.18 48.1861 136.132 48.4483 136.042 48.6506C135.949 48.8504 135.701 48.9478 135.296 48.9478C134.523 49.0252 133.788 49.0452 133.085 49.0053C132.387 48.9678 131.632 49.0053 130.823 49.1152C130.675 49.0452 130.547 48.8954 130.437 48.6756L130.216 48.2336C130.216 48.1636 130.188 47.9538 130.133 47.6042C130.078 47.257 130.048 47.0273 130.048 46.9174C129.975 45.7835 129.967 44.6472 130.022 43.5134C130.078 42.377 130.143 41.2407 130.216 40.1043C130.216 38.2362 130.188 36.4081 130.133 34.6124C130.078 32.8167 130.196 30.9861 130.492 29.118L129.719 13.6787C129.719 13.4964 129.729 13.2592 129.744 12.9645C129.764 12.6723 129.819 12.3875 129.912 12.1128C130.002 11.8381 130.133 11.6008 130.299 11.3986C130.464 11.1963 130.675 11.0964 130.934 11.0964H131.155C132.036 11.1688 132.766 11.2437 133.336 11.3161C133.906 11.3911 134.302 11.8106 134.523 12.5799C134.817 13.3865 135.138 14.1907 135.487 14.9974C135.839 15.8041 136.18 16.5733 136.511 17.305C136.546 17.3425 136.567 17.4074 136.567 17.4998V17.6896C136.75 18.6786 137.046 19.6951 137.45 20.739C137.854 21.7805 138.241 22.7445 138.61 23.6261C138.535 23.9907 138.61 24.4103 138.831 24.8898C139.049 25.3643 139.308 25.8389 139.604 26.3159C139.898 26.7904 140.166 27.2499 140.402 27.6895C140.643 28.129 140.726 28.4961 140.653 28.7883C140.691 28.8982 140.781 29.128 140.927 29.4751C141.075 29.8248 141.215 30.2019 141.343 30.599C141.471 31.0036 141.599 31.3782 141.73 31.7254C141.858 32.075 141.961 32.3198 142.034 32.4671C142.071 32.5795 142.117 32.7343 142.172 32.9341C142.227 33.1339 142.29 33.3537 142.365 33.596C142.438 33.8382 142.501 34.063 142.558 34.2803C142.611 34.5 142.641 34.6474 142.641 34.7223C142.824 35.1619 142.952 35.6214 143.025 36.0959C143.101 36.5679 143.359 36.96 143.801 37.2497C143.984 36.8826 144.075 36.4805 144.075 36.0385C144.592 31.9801 144.823 27.9842 144.767 24.0682C144.712 20.1446 144.647 16.1362 144.574 12.0329C144.609 11.9605 144.702 11.8131 144.85 11.5934C144.998 11.3761 145.109 11.2637 145.182 11.2637L149.599 10.9365C149.928 10.9365 150.097 11.0264 150.097 11.2087C150.097 11.3936 150.207 11.5209 150.428 11.5934C150.317 13.2442 150.317 14.8625 150.428 16.4584C150.538 18.0468 150.521 19.6726 150.373 21.3185C150.114 23.701 149.883 26.0262 149.682 28.2963C149.479 30.569 149.469 32.9141 149.655 35.3267L149.213 47.4718C149.175 47.799 148.99 48.251 148.661 48.8155C148.329 49.3874 147.96 49.742 147.556 49.8869C147.481 49.8869 147.29 49.8969 146.976 49.9168C146.663 49.9343 146.469 49.9443 146.396 49.9443C145.475 50.0167 144.592 50.0367 143.746 49.9968C142.9 49.9643 142.014 49.8744 141.095 49.727C140.616 49.6896 140.247 49.3549 139.988 48.7131C139.732 48.0687 139.539 47.3569 139.411 46.5652C139.28 45.7835 139.19 45.0318 139.134 44.3175C139.079 43.6033 139.034 43.1312 138.996 42.9115C138.959 42.7691 138.886 42.4569 138.776 41.9799C138.665 41.5054 138.572 41.1782 138.499 40.9909C138.424 40.8086 138.314 40.4789 138.168 39.9994C138.02 39.5299 137.864 39.0229 137.699 38.491C137.533 37.9615 137.375 37.457 137.229 36.98C137.081 36.5005 136.971 36.1733 136.898 35.9885Z" fill="#2BB673"/>
<path d="M181.793 47.2521C181.532 45.2066 181.462 43.0963 181.572 40.9385C181.683 38.7732 181.701 36.6478 181.628 34.56C181.552 32.5845 181.442 30.6565 181.296 28.7659C181.148 26.8778 181.093 24.9448 181.128 22.9668C181.128 20.8439 181.138 18.866 181.158 17.0328C181.176 15.2022 181.038 13.2642 180.744 11.2088C180.817 10.6243 181.121 10.1748 181.653 9.86262C182.187 9.55044 182.712 9.36063 183.227 9.28821C183.819 9.21578 184.469 9.21578 185.19 9.28821C185.908 9.36063 186.503 9.63286 186.982 10.1124C186.982 10.1848 186.992 10.3321 187.015 10.5519C187.03 10.7717 187.04 10.9165 187.04 10.989C187.188 12.2727 187.17 13.6638 186.984 15.1647C186.801 16.6682 186.746 18.0418 186.821 19.288C186.821 19.4329 186.851 19.9923 186.904 20.9613C186.959 21.9328 187.022 23.0417 187.095 24.2879C187.17 25.5317 187.243 26.7854 187.321 28.0516C187.391 29.3128 187.449 30.3118 187.484 31.0436C187.594 32.8043 187.657 34.515 187.677 36.1833C187.695 37.8466 187.798 39.5449 187.981 41.2656C188.089 41.9599 188.393 42.3645 188.892 42.4719C189.384 42.5843 189.931 42.6268 190.519 42.6118C191.106 42.5943 191.651 42.6018 192.145 42.6367C192.64 42.6767 192.931 42.9889 193.004 43.5733C193.004 44.7471 192.974 45.6886 192.921 46.4029C192.868 47.1147 192.783 47.769 192.67 48.3534C192.562 48.9403 192.376 49.235 192.115 49.235C192.08 49.2725 192.017 49.2875 191.925 49.2875H191.734C190.331 49.2175 188.895 49.1526 187.424 49.0977C185.953 49.0427 184.477 48.9428 183.003 48.7955C182.526 48.7605 182.223 48.6232 182.095 48.3834C181.967 48.1362 181.866 47.7665 181.793 47.2521Z" fill="#2BB673"/>
<path d="M200.289 41.0431C200.254 40.8983 200.227 40.6985 200.212 40.4412C200.191 40.1865 200.171 39.9268 200.156 39.6695C200.134 39.4123 200.119 39.185 200.101 38.9852C200.084 38.7854 200.071 38.6456 200.071 38.5731C200.036 37.8813 199.998 36.9673 199.961 35.8534C199.923 34.737 199.89 33.6307 199.85 32.5293C199.815 31.4329 199.777 30.4589 199.742 29.6173C199.702 28.7756 199.689 28.2986 199.689 28.1887C199.689 27.0873 199.715 25.8911 199.767 24.5899C199.825 23.2887 199.945 21.9725 200.131 20.6339C200.312 19.2978 200.616 17.9966 201.042 16.7329C201.464 15.4692 202.026 14.3428 202.724 13.3513C203.422 12.3648 204.318 11.5606 205.4 10.9388C206.49 10.3144 207.802 9.94729 209.351 9.8374H210.453C211.482 9.98475 212.479 10.2145 213.435 10.5242C214.392 10.8364 215.258 11.2585 216.031 11.7854C216.801 12.3174 217.472 12.9517 218.044 13.6835C218.616 14.4152 219.046 15.2968 219.347 16.3208C219.382 16.4681 219.425 16.8253 219.485 17.3922C219.538 17.9616 219.568 18.3362 219.568 18.5186C219.568 18.8108 219.573 19.2428 219.595 19.8097C219.613 20.3767 219.62 20.6988 219.62 20.7713C219.62 21.1384 219.63 21.9351 219.653 23.1613C219.668 24.3876 219.698 25.7262 219.731 27.1722C219.771 28.6208 219.794 30.0293 219.816 31.4029C219.834 32.779 219.841 33.793 219.841 34.4573C219.841 35.3689 219.854 36.4228 219.874 37.6116C219.889 38.8054 219.854 40.0416 219.761 41.3253C219.668 42.604 219.502 43.8702 219.266 45.114C219.025 46.3577 218.629 47.4766 218.079 48.4656C217.524 49.4571 216.804 50.2737 215.923 50.9106C215.037 51.5499 213.917 51.9071 212.554 51.982C211.374 52.0569 210.265 51.982 209.216 51.7622C208.166 51.5399 207.084 51.2477 205.985 50.8806C204.878 50.5509 203.974 50.039 203.279 49.3447C202.579 48.6504 202.014 47.8412 201.592 46.9246C201.17 46.0131 200.857 45.0391 200.656 44.0126C200.448 42.9861 200.33 41.9972 200.289 41.0431ZM207.639 40.6585C207.71 41.4302 207.943 42.1145 208.325 42.7189C208.714 43.3208 209.349 43.588 210.232 43.5156C210.822 43.4781 211.261 43.3058 211.558 42.9936C211.851 42.6815 212.062 42.2993 212.19 41.8423C212.321 41.3803 212.396 40.8958 212.411 40.3838C212.434 39.8718 212.459 39.3948 212.496 38.9503V38.4857C212.496 38.2485 212.504 37.9937 212.522 37.7165C212.542 37.4418 212.552 37.1846 212.552 36.9473V36.5377C212.665 34.6696 212.715 32.9539 212.715 31.3954C212.715 29.8395 212.662 28.1238 212.552 26.2557C212.552 26.0359 212.532 25.6813 212.499 25.1893C212.459 24.6898 212.424 24.1603 212.389 23.5934C212.351 23.0265 212.313 22.4945 212.278 21.9975C212.238 21.5055 212.225 21.1484 212.225 20.9311C212.148 20.7113 212.009 20.4091 211.809 20.022C211.608 19.6374 211.387 19.2703 211.143 18.9232C210.905 18.5735 210.629 18.2713 210.315 18.0191C210.004 17.7593 209.7 17.632 209.406 17.632C209.04 17.6694 208.719 17.8418 208.437 18.1539C208.166 18.4661 207.945 18.8432 207.777 19.2803C207.609 19.7198 207.481 20.1694 207.388 20.6264C207.298 21.0859 207.233 21.4606 207.195 21.7553C207.16 21.8277 207.122 22.0075 207.084 22.2997C207.049 22.5969 207.004 22.9241 206.949 23.2912C206.896 23.6558 206.838 24.0055 206.783 24.3351C206.731 24.6673 206.7 24.8671 206.7 24.9395V25.7112V27.1922C206.7 27.7417 206.69 28.2811 206.67 28.8131C206.653 29.345 206.645 29.7546 206.645 30.0493V30.4939C206.645 30.5638 206.653 30.6162 206.67 30.6537C206.69 30.6937 206.7 30.7436 206.7 30.8185V31.0333C206.741 31.4029 206.803 32.0473 206.896 32.9589C206.984 33.8729 207.084 34.8369 207.195 35.8434C207.308 36.8499 207.398 37.8139 207.474 38.723C207.546 39.6545 207.602 40.2939 207.639 40.6585Z" fill="#2BB673"/>
<path d="M252.202 50.8206C252.13 50.7906 252.072 50.6332 252.042 50.356C252.002 50.0788 251.984 49.909 251.984 49.8341C251.763 48.5129 251.728 47.2067 251.874 45.9081C252.024 44.6069 252.074 43.3132 252.042 42.032C251.964 40.3862 251.791 38.7429 251.517 37.1145C251.238 35.4887 251.025 33.8428 250.879 32.197C250.839 30.9158 250.839 29.6771 250.879 28.4883C250.915 27.297 250.932 26.0608 250.932 24.7796C250.972 23.6083 250.932 22.427 250.822 21.2382C250.711 20.0469 250.618 18.8631 250.546 17.6918V17.3621V16.7827V16.2083V15.8237C250.508 15.6414 250.475 15.3292 250.438 14.8921C250.398 14.4501 250.365 13.9831 250.325 13.4886C250.287 12.9941 250.252 12.5245 250.217 12.0875C250.179 11.6479 250.164 11.3383 250.164 11.1559C250.237 10.8612 250.312 10.6415 250.385 10.4941C250.458 10.3493 250.603 10.2194 250.824 10.112C250.9 10.072 251.11 10.0271 251.459 9.97214C251.813 9.9147 252.042 9.89223 252.152 9.89223C254.173 9.63249 255.998 9.7249 257.617 10.1644C259.238 10.604 260.644 11.3183 261.844 12.3048C263.041 13.2963 264.015 14.515 264.771 15.9585C265.526 17.4071 266.051 18.993 266.345 20.7162C266.525 22.1048 266.618 23.4609 266.618 24.7796C266.618 26.0982 266.566 27.4718 266.453 28.9004C266.603 29.6321 266.618 30.3489 266.508 31.0382C266.397 31.74 266.38 32.4518 266.453 33.1835C266.493 34.3598 266.566 35.7209 266.679 37.2768C266.789 38.8328 266.756 40.3937 266.596 41.9496C266.43 43.5055 266.041 44.954 265.436 46.2877C264.829 47.6238 263.84 48.6578 262.477 49.392C261.156 50.0563 259.745 50.4884 258.252 50.7082C256.763 50.9304 255.28 51.1277 253.806 51.3175C253.734 51.3175 253.555 51.3325 253.282 51.37C253.006 51.4075 252.83 51.4249 252.757 51.4249C252.684 51.35 252.584 51.2676 252.456 51.1752C252.325 51.0928 252.242 50.9679 252.202 50.8206ZM257.449 43.5704C257.634 43.8651 257.875 43.9925 258.169 43.95C258.571 43.9201 258.894 43.6978 259.135 43.2957C259.376 42.8911 259.557 42.4416 259.69 41.9496C259.816 41.4526 259.909 40.9531 259.964 40.4386C260.017 39.9241 260.067 39.5246 260.104 39.2348C260.14 38.9751 260.175 38.6205 260.215 38.1584C260.25 37.6964 260.288 37.2644 260.325 36.8448C260.363 36.4202 260.386 36.0531 260.408 35.7409C260.426 35.4337 260.433 35.2589 260.433 35.2189L260.378 34.7769C260.378 32.7639 260.398 30.6861 260.433 28.5432C260.468 26.4004 260.325 24.2851 259.994 22.1972C259.806 21.1358 259.595 20.2941 259.359 19.6723C259.115 19.0479 258.591 18.3486 257.782 17.5819C257.67 17.3996 257.572 17.2522 257.481 17.1423C257.388 17.0325 257.215 16.995 256.957 17.0325C256.771 17.0699 256.703 17.2248 256.763 17.502C256.816 17.7742 256.846 17.929 256.846 17.9665C256.957 20.2017 257.027 22.437 257.067 24.6722C257.1 26.9049 257.155 29.1426 257.228 31.3729C257.268 33.2035 257.213 35.0641 257.067 36.9497C256.914 38.8328 256.989 40.6959 257.288 42.524C257.288 42.5964 257.313 42.7737 257.371 43.046C257.424 43.3232 257.449 43.498 257.449 43.5704Z" fill="#2BB673"/>
<path d="M273.357 47.9664C273.357 47.899 273.372 47.8091 273.41 47.7167C273.448 47.6243 273.448 47.5618 273.41 47.5269C273.448 47.0523 273.506 46.4729 273.578 45.7986C273.651 45.1193 273.779 44.5599 273.96 44.1203C274.073 43.8631 274.256 43.6683 274.515 43.5434C274.773 43.4185 275.039 43.3061 275.313 43.2162C275.591 43.1238 275.858 43.0314 276.116 42.939C276.372 42.8491 276.578 42.6918 276.724 42.472C276.759 42.472 276.786 42.4171 276.806 42.3097C276.821 42.1973 276.834 42.1049 276.834 42.0349C276.834 41.9625 276.842 41.8152 276.859 41.5954C276.879 41.3731 276.897 41.1259 276.914 40.8511C276.934 40.5789 276.944 40.3142 276.944 40.057V39.5025C276.834 36.538 276.806 33.5885 276.859 30.659C276.914 27.7295 276.852 24.8 276.666 21.8655C276.666 21.7931 276.651 21.6457 276.613 21.4259C276.578 21.2062 276.548 20.9664 276.533 20.7142C276.51 20.4544 276.495 20.2172 276.478 19.9974C276.458 19.7776 276.447 19.6128 276.447 19.5029C276.375 19.1732 276.201 18.9734 275.923 18.8985C275.649 18.8261 275.346 18.7536 275.017 18.6787C274.68 18.6063 274.389 18.4864 274.131 18.3241C273.872 18.1568 273.724 17.8546 273.686 17.4175C273.686 17.38 273.676 17.3426 273.661 17.3051C273.639 17.2702 273.629 17.2302 273.629 17.1977V16.0714C273.629 15.5419 273.639 14.9725 273.661 14.3706C273.676 13.7662 273.686 13.1968 273.686 12.6648V11.5959C273.759 11.3012 273.849 10.9366 273.96 10.4946C274.073 10.055 274.274 9.80027 274.567 9.72534L274.678 9.78029H274.788C275.343 9.89267 276.116 9.93513 277.113 9.91765C278.107 9.90016 279.118 9.91765 280.148 9.97259C281.177 10.03 282.143 10.1549 283.044 10.3572C283.948 10.5595 284.583 10.9166 284.952 11.4286C285.135 11.6484 285.226 11.998 285.226 12.4725C285.226 12.9496 285.246 13.3167 285.283 13.5714C285.391 15.1448 285.344 16.2462 285.14 16.8681C284.939 17.4924 284.701 17.912 284.425 18.1318C284.151 18.3516 283.863 18.4989 283.566 18.5688C283.273 18.6463 283.092 18.9385 283.017 19.4504C282.756 20.9889 282.61 22.5248 282.575 24.0682C282.535 25.6042 282.545 27.1426 282.602 28.681C282.658 30.222 282.738 31.7504 282.851 33.2689C282.964 34.7898 283.052 36.3208 283.127 37.8567V38.4336V39.4501C283.127 39.8147 283.135 40.1519 283.152 40.464C283.175 40.7762 283.185 40.9685 283.185 41.041V41.4805C283.22 41.9201 283.386 42.2148 283.677 42.3621C283.971 42.507 284.304 42.6443 284.673 42.7717C285.04 42.9016 285.379 43.0639 285.693 43.2662C286.006 43.4685 286.197 43.8456 286.27 44.3925C286.27 44.6498 286.28 45.0244 286.3 45.5189C286.32 46.0134 286.29 46.5079 286.217 47.0024C286.144 47.4944 286.006 47.9464 285.805 48.3485C285.6 48.7481 285.281 48.9679 284.839 49.0078C284.099 49.1602 283.26 49.1902 282.324 49.1177C281.388 49.0478 280.549 49.0478 279.809 49.1177C279.698 49.1177 279.432 49.1502 279.01 49.2001C278.589 49.2551 278.147 49.31 277.688 49.3675C277.226 49.4199 276.786 49.4649 276.36 49.5023C275.938 49.5398 275.674 49.5548 275.561 49.5548C275.047 49.5922 274.567 49.4899 274.128 49.2551C273.686 49.0203 273.428 48.5908 273.357 47.9664Z" fill="#2BB673"/>
<path d="M290.802 47.0872C290.762 46.8275 290.9 46.5128 291.213 46.1232C291.527 45.7411 291.911 45.354 292.376 44.9693C292.837 44.5872 293.312 44.2276 293.811 43.9004C294.306 43.5683 294.723 43.3135 295.051 43.1262C295.127 43.1262 295.217 43.1112 295.328 43.0738C295.438 43.0363 295.531 43.0188 295.604 43.0188C296.046 42.9814 296.402 43.0738 296.681 43.2886C296.957 43.5083 297.276 43.7581 297.65 44.0303C298.016 44.3075 298.458 44.5548 298.972 44.7745C299.487 44.9943 300.222 45.0692 301.181 44.9943C301.515 44.9569 301.844 44.8669 302.175 44.7246C302.509 44.5747 302.79 44.3924 303.034 44.1727C303.275 43.9504 303.446 43.7406 303.559 43.5408C303.666 43.341 303.646 43.1687 303.506 43.0188C303.541 42.9064 303.596 42.7166 303.666 42.4419C303.739 42.1672 303.817 41.8725 303.887 41.5603C303.96 41.2531 304.03 40.9684 304.083 40.7112C304.136 40.4539 304.166 40.2691 304.166 40.1617C304.314 39.5374 304.45 38.7856 304.578 37.9065C304.706 37.0299 304.643 36.2782 304.387 35.6563L303.059 17.2501L302.73 15.2721L300.795 15.4344L300.519 15.2146C300.448 14.9974 300.373 14.8001 300.298 14.6152C300.225 14.4354 300.16 14.2581 300.107 14.0933C300.054 13.9309 300.024 13.7936 300.024 13.6837C299.984 13.6113 299.934 13.409 299.858 13.0793C299.786 12.7496 299.71 12.5274 299.64 12.42C299.748 12.42 299.934 12.41 300.192 12.39C300.451 12.375 300.614 12.365 300.687 12.365C301.129 12.365 301.922 12.3575 303.059 12.3376C304.201 12.3176 305.416 12.2901 306.706 12.2552C307.997 12.2177 309.196 12.1902 310.321 12.1727C311.446 12.1553 312.226 12.1453 312.668 12.1453C312.668 12.1802 312.691 12.2552 312.723 12.365C312.761 12.4749 312.799 12.5474 312.834 12.5848V13.2441C312.834 13.5363 312.824 13.831 312.806 14.1232C312.789 14.4155 312.751 14.6727 312.696 14.8925C312.643 15.1122 312.578 15.2196 312.502 15.2196L310.183 15.332C310.183 15.4044 310.231 15.5418 310.321 15.7416C310.411 15.9464 310.462 16.0838 310.462 16.1562C310.462 16.3385 310.452 16.6682 310.431 17.1452C310.411 17.6197 310.406 18.1142 310.406 18.6287V20.0847V21.0437C310.406 21.5232 310.366 22.0052 310.293 22.5022C310.218 22.9967 310.155 23.5012 310.1 24.0107C310.045 24.5252 310.025 25.0271 310.045 25.5191C310.065 26.0161 310.168 26.5006 310.349 26.9777L310.846 40.3291C310.625 40.911 310.587 41.5254 310.735 42.1672C310.883 42.8115 310.921 43.4034 310.846 43.9529C310.587 45.6412 309.668 47.1346 308.084 48.4308C306.498 49.7345 304.143 50.4937 301.016 50.7135C299.176 50.8209 297.489 50.5512 295.963 49.8893C294.434 49.2275 293.046 48.5707 291.793 47.9089C291.387 47.729 291.128 47.6017 291.02 47.5267C290.91 47.4543 290.839 47.307 290.802 47.0872Z" fill="#2BB673"/>
<path d="M318.744 41.0431C318.709 40.8983 318.682 40.6985 318.667 40.4412C318.647 40.1865 318.626 39.9268 318.611 39.6695C318.591 39.4123 318.574 39.185 318.556 38.9852C318.539 38.7854 318.526 38.6456 318.526 38.5731C318.491 37.8813 318.453 36.9673 318.416 35.8534C318.38 34.737 318.345 33.6307 318.305 32.5293C318.27 31.4329 318.232 30.4589 318.197 29.6173C318.157 28.7756 318.145 28.2986 318.145 28.1887C318.145 27.0873 318.172 25.8911 318.222 24.5899C318.28 23.2887 318.401 21.9725 318.586 20.6339C318.767 19.2978 319.071 17.9966 319.498 16.7329C319.919 15.4692 320.482 14.3428 321.179 13.3513C321.877 12.3648 322.773 11.5606 323.855 10.9388C324.945 10.3144 326.257 9.94729 327.806 9.8374H328.908C329.937 9.98475 330.934 10.2145 331.89 10.5242C332.847 10.8364 333.713 11.2585 334.486 11.7854C335.257 12.3174 335.927 12.9517 336.499 13.6835C337.071 14.4152 337.501 15.2968 337.802 16.3208C337.837 16.4681 337.88 16.8253 337.94 17.3922C337.993 17.9616 338.023 18.3362 338.023 18.5186C338.023 18.8108 338.028 19.2428 338.05 19.8097C338.068 20.3767 338.075 20.6988 338.075 20.7713C338.075 21.1384 338.085 21.9351 338.108 23.1613C338.123 24.3876 338.153 25.7262 338.186 27.1722C338.226 28.6208 338.251 30.0293 338.271 31.4029C338.289 32.779 338.296 33.793 338.296 34.4573C338.296 35.3689 338.309 36.4228 338.329 37.6116C338.344 38.8054 338.309 40.0416 338.216 41.3253C338.123 42.604 337.957 43.8702 337.722 45.114C337.481 46.3577 337.084 47.4766 336.534 48.4656C335.979 49.4571 335.259 50.2737 334.378 50.9106C333.497 51.5474 332.372 51.9071 331.009 51.982C329.832 52.0569 328.72 51.982 327.671 51.7622C326.621 51.5399 325.54 51.2477 324.44 50.8806C323.333 50.5509 322.429 50.039 321.734 49.3447C321.034 48.6504 320.469 47.8412 320.047 46.9246C319.626 46.0131 319.312 45.0391 319.111 44.0126C318.903 42.9861 318.782 41.9972 318.744 41.0431ZM326.094 40.6585C326.165 41.4302 326.398 42.1145 326.78 42.7189C327.169 43.3208 327.804 43.588 328.687 43.5156C329.277 43.4781 329.717 43.3058 330.013 42.9936C330.306 42.6815 330.517 42.2993 330.645 41.8423C330.776 41.3803 330.851 40.8958 330.866 40.3838C330.889 39.8718 330.914 39.3948 330.952 38.9503V38.4857C330.952 38.2485 330.959 37.9937 330.977 37.7165C330.997 37.4418 331.007 37.1846 331.007 36.9473V36.5377C331.12 34.6696 331.17 32.9539 331.17 31.3954C331.17 29.8395 331.117 28.1238 331.007 26.2557C331.007 26.0359 330.987 25.6813 330.954 25.1893C330.914 24.6898 330.881 24.1603 330.844 23.5934C330.806 23.0265 330.768 22.4945 330.733 21.9975C330.693 21.5055 330.68 21.1484 330.68 20.9311C330.603 20.7113 330.465 20.4091 330.264 20.022C330.063 19.6374 329.842 19.2703 329.599 18.9232C329.36 18.5735 329.084 18.2713 328.77 18.0191C328.459 17.7593 328.155 17.632 327.861 17.632C327.495 17.6694 327.174 17.8418 326.893 18.1539C326.621 18.4661 326.401 18.8432 326.232 19.2803C326.067 19.7198 325.936 20.1694 325.843 20.6264C325.753 21.0859 325.688 21.4606 325.65 21.7553C325.615 21.8277 325.577 22.0075 325.54 22.2997C325.504 22.5969 325.459 22.9241 325.404 23.2912C325.351 23.6558 325.294 24.0055 325.238 24.3351C325.186 24.6673 325.155 24.8671 325.155 24.9395V25.7112V27.1922C325.155 27.7417 325.145 28.2811 325.125 28.8131C325.108 29.345 325.1 29.7546 325.1 30.0493V30.4939C325.1 30.5638 325.108 30.6162 325.125 30.6537C325.145 30.6937 325.155 30.7436 325.155 30.8185V31.0333C325.196 31.4029 325.258 32.0473 325.351 32.9589C325.439 33.8729 325.54 34.8369 325.65 35.8434C325.763 36.8499 325.853 37.8139 325.929 38.723C325.999 39.6545 326.054 40.2939 326.094 40.6585Z" fill="#2BB673"/>
<path d="M352.598 39.0681C352.485 38.1864 352.432 37.1775 352.432 36.0411C352.432 34.9123 352.505 33.7335 352.653 32.5297C352.801 31.3209 353.02 30.1471 353.318 29.0133C353.61 27.8794 354.016 26.888 354.531 26.0438C355.118 25.1322 355.839 24.2431 356.685 23.3815C357.53 22.5199 358.359 21.7057 359.17 20.9365C359.722 20.0949 359.943 19.2158 359.832 18.2992C359.757 17.5275 359.483 16.9356 359.006 16.5135C358.527 16.0939 357.809 15.9191 356.85 15.9915C355.306 16.1739 354.079 16.7133 353.178 17.6099C352.277 18.509 351.918 19.6004 352.103 20.8816C352.174 21.5409 352.284 22.2202 352.432 22.9145C352.583 23.6113 352.693 24.3256 352.766 25.0573C352.801 25.3121 352.716 25.6342 352.515 26.0213C352.314 26.4034 352.066 26.7856 351.77 27.1727C351.476 27.5573 351.152 27.8869 350.803 28.1617C350.449 28.4339 350.15 28.5737 349.892 28.5737H349.618C349.468 28.6112 349.164 28.6212 348.707 28.6012C348.245 28.5812 347.942 28.5737 347.796 28.5737C346.767 27.7321 346.066 26.6981 345.697 25.4694C345.331 24.2431 345.055 23.0419 344.869 21.8706C344.796 21.2487 344.796 20.6543 344.869 20.0849C344.944 19.518 345.07 18.9236 345.256 18.2992C345.918 15.517 347.206 13.3617 349.121 11.8433C351.034 10.3223 353.795 9.41575 357.402 9.12354C358.803 9.01366 360.063 9.15102 361.188 9.53562C362.312 9.91773 363.266 10.4597 364.059 11.1565C364.853 11.8533 365.495 12.6774 365.995 13.629C366.492 14.583 366.796 15.572 366.906 16.5959C367.016 17.3277 367.044 18.0794 366.986 18.8511C366.934 19.6179 366.785 20.3696 366.545 21.1013C366.304 21.8356 365.937 22.5199 365.443 23.1617C364.946 23.8036 364.293 24.363 363.482 24.8375C362.965 25.1672 362.38 25.5218 361.715 25.909C361.052 26.2936 360.538 26.7431 360.169 27.2551C359.694 27.9893 359.34 28.8485 359.119 29.8375C358.898 30.8239 358.76 31.8429 358.708 32.8918C358.653 33.9358 358.642 34.9572 358.678 35.9637C358.713 36.9677 358.753 37.8818 358.788 38.6834C358.826 39.3802 358.863 39.9696 358.898 40.4417C358.939 40.9137 358.863 41.3033 358.678 41.5955C358.492 41.8877 358.153 42.1274 357.658 42.3098C357.159 42.4896 356.433 42.6194 355.477 42.6894C354.85 42.7668 354.355 42.6844 353.986 42.4446C353.615 42.2074 353.338 41.9052 353.158 41.538C352.972 41.1734 352.844 40.7688 352.771 40.3318C352.691 39.8897 352.633 39.4701 352.598 39.0681ZM352.432 49.395C352.362 48.923 352.362 48.4135 352.432 47.8866C352.505 47.3546 352.663 46.8651 352.904 46.4281C353.145 45.9885 353.492 45.6214 353.951 45.3292C354.415 45.037 355.01 44.8547 355.748 44.7747C356.228 44.7448 356.715 44.8172 357.212 44.997C357.709 45.1793 358.158 45.4216 358.565 45.7113C358.971 46.0085 359.3 46.3406 359.559 46.7302C359.817 47.1124 359.985 47.4895 360.058 47.8541C360.093 48.2962 360.036 48.7407 359.893 49.2002C359.744 49.6573 359.506 50.0718 359.175 50.4365C358.843 50.8011 358.449 51.1108 357.985 51.3705C357.523 51.6278 357.018 51.7726 356.469 51.8101C355.512 51.8825 354.629 51.7002 353.818 51.2606C353.005 50.8236 352.545 50.2042 352.432 49.395Z" fill="#2BB673"/>
</svg>
