<?xml version="1.0" encoding="utf-8"?>
<!-- Generator: Adobe Illustrator 23.0.1, SVG Export Plug-In . SVG Version: 6.00 Build 0)  -->
<svg version="1.1" id="Layer_1" xmlns="http://www.w3.org/2000/svg" xmlns:xlink="http://www.w3.org/1999/xlink" x="0px" y="0px"
	 viewBox="0 0 962 733" style="enable-background:new 0 0 962 733;" xml:space="preserve">
<style type="text/css">
	.st0{fill:none;}
	.st1{fill:#CDC39F;}
	.st2{fill:#D8C8B5;}
	.st3{fill:#DFD1AB;}
	.st4{opacity:4.000000e-02;fill:#878170;enable-background:new    ;}
	.st5{opacity:4.000000e-02;fill:#595547;enable-background:new    ;}
	.st6{opacity:0.14;fill:#878170;enable-background:new    ;}
	.st7{opacity:8.000000e-02;fill:#878170;fill-opacity:0.5;enable-background:new    ;}
</style>
<rect x="394.8" y="1.3" class="st0" width="381.9" height="253.4"/>
<path class="st1" d="M945,46.3L29.4,54.9c-1.1,0-1.9,0.7-1.9,1.7l1.3,871c0,0.9,0.9,1.7,1.9,1.7l900.6-8.3
	c24.5-3.2,28.1-20.6,28.1-21.6c1.8-358.2,5.1-571.9-0.3-836.2c0-0.5-5.2-12.1-5.6-12.4"/>
<path class="st2" d="M938,36.5L18.4,45.1c-1.1,0-1.9,0.8-1.9,1.7l1.3,881.5c0,0.9,0.9,1.7,1.9,1.7l898.9-9.2
	c24.6-3.3,28.2-20.9,28.2-21.8c1.8-362.5,9.9-567.1,4.5-834.7c0-0.5-4.3-23.1-4.7-23.4"/>
<path class="st3" d="M920.3,10.1L6.7,18.9c-6,0-6.7,6.4-6.7,7.4l0,896.9c0,1,0.9,1.7,1.9,1.7l904.5-8.6
	c24.6-3.3,28.2-21.4,28.2-22.3c1.8-371.1,8.7-593.8,3.3-867.7c0-0.5-8.8-11.4-9.2-11.7"/>
<path class="st4" d="M75.6,673.1l-7.1-12.8l-12.4-1.6l-8.9,1.6l-1.8,27.1v12.8l5.3,8c0,0,26.6-1.6,21.3-1.6
	C66.7,706.6,75.6,673.1,75.6,673.1z"/>
<path class="st5" d="M368.8,144.9c6.6-26.5,31-15.3,30-42.8c-9.7-0.7-26,4.9-26.2-8.5c-0.1-7.6,17.9-31.3,21.7-37.1
	c-64.2-0.3-137,0-198.6,0c-33.7,0-68.6,0.4-102.1,0.3c-8.1,0-26.8,0-38.3,0c-24.9,0-18.4,15.3-18.4,78.8c-4.2,38.9,2.9,95,0,133.7
	c0,110.4,2.1,152.8-1,306c0,48.2,0,116.6,0,161.5c5.8-1,20-52.5,22.2-57.7"/>
<path class="st4" d="M922.7,67.1c-3.6-2.4-7.4-3.6-12.1-3.1c-2,10.2,2.6,18.8,4,28.9c2.8,20.3,0.6,42.6,0.2,63
	c-0.8,36.4-6.9,71.1-10.4,107.1c-1.1,10.8,3.3,28.4-2.6,38.6c-6.6,11.2,47.6,92.5,35.2,99.3"/>
<path class="st6" d="M122.8,174.4c24.2,7.6,17.1-6.8,23.8-20.8c-19.5-7.3-25.9,1.3-30.7,17.3c9.3-1,19.2,0.5,21.1,9.8"/>
<path class="st4" d="M825.4,52c9.6,11.9,15.2,34.8-1.4,44.5c-3.5-10.5-18.3-14.8-20.1-25.5c-1-6.1,6.1-19.2,6.1-26.8
	c10.4-1.5,30.3-0.3,36.9,6.2c-4.5,6.6-8.3,12.7-16.2,15.9"/>
<path class="st7" d="M882,382.4c-3.7-2.6-7.4-3.9-12.1-3.2c-1.8,11.4,3,20.9,4.6,32c3.2,22.5,1.4,47.4,1.4,70.1
	c-0.1,40.5-5.5,79.2-8.4,119.3c-0.8,12.1,3.8,31.6-1.9,42.9c-6.4,12.6,49.3,102.1,37,109.8c-58.1,36.7-177.5,80.2-243.2,101
	c-11.4,3.6-61.4-50.2-90.1-38.9c-6.8,21.6-31.1,12.2-30.3,34.6c9.7,0.6,35.3,0.1,26.1,7.1c-12.8,9.6-13.9,15.6-17.7,20.4
	c56.6,23.5,134.7,15.4,196.2,15.8c33.7,0.2,66.6-4.4,100.1-4c8.1,0.1,24.6,2.6,31.9,0.5c39.9-11.7,19.5-45,21.8-61.2
	c4.5-31.7,13.6-61.4,11.5-93c-6.1-91.5,1-107.4,2.4-258.7c0.3-39.3,5.3-69.5-4.2-106c-5.8,0.8-20.9,7.3-23.2,11.6"/>
<path class="st0" d="M75,94h305c19.9,0,36,16.1,36,36v170c0,19.9-16.1,36-36,36H75c-19.9,0-36-16.1-36-36V130
	C39,110.1,55.1,94,75,94z"/>
</svg>
