<svg width="638" height="87" viewBox="0 0 638 87" fill="none" xmlns="http://www.w3.org/2000/svg">
<path d="M88.5166 0.678771C186.981 -1.57059 543.633 2.13964 601.143 6.40049C656.377 10.4909 645.867 87.5366 593.944 86.9972C510.817 86.1338 156.389 84.3377 99.6565 85.1674C4.8373 80.5675 -1.17052 72.7874 0.14052 45.9319C2.53563 -3.36484 22.5563 2.18833 88.5166 0.678771Z" fill="#00A5A5"/>
<path d="M92.4247 65.0674C92.2725 64.9547 92.1175 64.8335 91.9667 64.7011C91.8117 64.5672 91.7385 64.4094 91.7385 64.2206C91.5454 62.4199 91.5553 60.598 91.7667 58.7536C91.9752 56.9134 92.0823 55.0888 92.0823 53.288C92.0823 51.0322 92.0147 48.7693 91.8794 46.4951C91.7469 44.2224 91.6046 41.9496 91.451 39.6755C91.2975 37.4027 91.1735 35.1384 91.0791 32.884C90.9847 30.631 90.9748 28.3963 91.0495 26.1771C91.0495 25.9517 91.1157 25.7065 91.2524 25.4444C91.3848 25.1795 91.5849 25.0316 91.854 24.9949C92.2345 24.9555 92.6839 24.9738 93.1996 25.0499C93.7125 25.126 94.1437 25.1443 94.4875 25.1077C94.6382 25.1077 94.9257 25.0992 95.3456 25.0781C95.7641 25.0584 96.2121 25.0414 96.6898 25.0203C97.1674 25.0006 97.6169 24.9865 98.0354 24.9653C98.4553 24.9456 98.7413 24.9358 98.8949 24.9358C98.9301 24.9358 99.0851 24.9188 99.3528 24.8794C99.6177 24.8442 99.9066 24.8061 100.21 24.7667C100.515 24.7315 100.791 24.6934 101.041 24.6539C101.29 24.6187 101.449 24.599 101.53 24.599C101.757 24.599 102.13 24.5807 102.646 24.5412C103.16 24.5074 103.676 24.5074 104.191 24.5412C104.709 24.5807 105.175 24.654 105.595 24.7667C106.016 24.8794 106.243 25.1063 106.282 25.443L106.681 30.1759C106.719 30.4788 106.587 30.7339 106.282 30.9382C105.974 31.1453 105.688 31.2665 105.424 31.3045C104.659 31.3806 103.895 31.351 103.132 31.2186C102.37 31.0876 101.586 31.0594 100.786 31.1326C100.594 31.1326 100.345 31.1453 100.039 31.1608C99.7347 31.1833 99.4204 31.227 99.0936 31.3045C98.7709 31.3806 98.4947 31.4933 98.2665 31.6427C98.0354 31.7921 97.9212 32.0175 97.9212 32.3176C98.0354 33.821 98.0354 35.3808 97.9212 36.9942C97.8071 38.6103 97.8254 40.1912 97.979 41.727C97.979 41.9172 97.9973 42.1624 98.0354 42.4611C98.0748 42.7626 98.189 43.0078 98.3792 43.1938C98.5314 43.308 98.7709 43.3925 99.0936 43.4474C99.419 43.5052 99.753 43.5348 100.098 43.5348C100.441 43.5348 100.766 43.5264 101.072 43.5052C101.376 43.4855 101.606 43.4756 101.757 43.4756C101.907 43.4756 102.198 43.4573 102.615 43.4207C103.036 43.3812 103.474 43.3333 103.935 43.2784C104.391 43.2206 104.831 43.1755 105.252 43.1347C105.671 43.0994 105.957 43.0797 106.109 43.0797C106.225 43.0797 106.318 43.1459 106.395 43.2784C106.473 43.4122 106.509 43.5123 106.509 43.5883L106.909 47.2532C106.947 47.5899 106.861 47.9281 106.653 48.2677C106.442 48.6044 106.184 48.7961 105.879 48.8299C105.037 48.944 104.198 48.9355 103.36 48.8017C102.517 48.6692 101.662 48.6439 100.784 48.7144C100.249 48.7933 99.8657 48.9328 99.6389 49.1399C99.4092 49.3456 99.257 49.5978 99.1823 49.8993C99.1034 50.2023 99.0668 50.5362 99.0668 50.9152V52.1002C99.0668 52.2115 99.0457 52.4835 99.009 52.916C98.971 53.3486 98.9216 53.8094 98.8653 54.2955C98.8075 54.7844 98.7596 55.2339 98.7216 55.6467C98.6835 56.061 98.6427 56.3231 98.6074 56.4386C98.6835 56.4766 98.7004 56.5851 98.6666 56.7767C98.6258 56.9641 98.6427 57.1135 98.7216 57.2234C98.7216 57.4489 98.7582 57.7236 98.8371 58.0421C98.9118 58.3647 99.1232 58.5225 99.4655 58.5225H100.811H102.816H104.82H106.108C106.719 58.5225 107.271 58.5775 107.77 58.6902C108.263 58.8043 108.607 59.2172 108.797 59.9316C108.797 60.0076 108.828 60.1866 108.886 60.467C108.944 60.746 109 61.07 109.057 61.4251C109.115 61.783 109.171 62.1409 109.229 62.496C109.286 62.8553 109.333 63.1258 109.372 63.3132V63.6513C109.448 64.1797 109.315 64.4799 108.971 64.5546C108.628 64.6292 108.245 64.7053 107.827 64.78C106.223 64.9688 104.618 65.0139 103.016 64.9209C101.413 64.8293 99.8079 64.7631 98.2059 64.7222C98.0918 64.687 97.8057 64.694 97.3478 64.7518C96.8899 64.8053 96.6207 64.835 96.5475 64.835C96.3939 64.835 96.1177 64.8462 95.7176 64.8645C95.316 64.8857 94.8947 64.9124 94.4551 64.9491C94.0155 64.9871 93.6068 65.0153 93.225 65.035C92.8446 65.059 92.5754 65.0674 92.4247 65.0674Z" fill="white"/>
<path d="M117.39 61.9098C117.122 59.8089 117.046 57.6489 117.161 55.4269C117.277 53.2133 117.294 51.0322 117.218 48.889C117.142 46.8601 117.026 44.879 116.875 42.9444C116.722 41.0098 116.664 39.0259 116.702 36.9955C116.702 34.8158 116.713 32.7896 116.732 30.91C116.75 29.0331 116.605 27.0408 116.302 24.9357C116.379 24.3355 116.691 23.8761 117.245 23.5563C117.8 23.2379 118.342 23.0406 118.878 22.9645C119.488 22.8884 120.165 22.8884 120.911 22.9645C121.652 23.0406 122.275 23.3224 122.769 23.8113C122.769 23.886 122.779 24.0354 122.799 24.2608C122.817 24.4863 122.826 24.637 122.826 24.7131C122.979 26.0277 122.961 27.4537 122.769 28.9951C122.578 30.5352 122.523 31.9442 122.599 33.2222C122.599 33.373 122.628 33.945 122.686 34.9412C122.744 35.9374 122.809 37.0758 122.885 38.351C122.962 39.6276 123.038 40.9168 123.115 42.2117C123.191 43.508 123.248 44.5324 123.286 45.2848C123.402 47.0855 123.467 48.8426 123.488 50.5531C123.508 52.2622 123.61 53.9996 123.802 55.7665C123.918 56.4809 124.233 56.8937 124.748 57.0064C125.263 57.1206 125.824 57.167 126.438 57.1487C127.047 57.1276 127.611 57.1403 128.126 57.1783C128.639 57.2149 128.935 57.5362 129.014 58.135C129.014 59.3383 128.984 60.3063 128.925 61.0418C128.868 61.7731 128.783 62.441 128.669 63.0427C128.555 63.6429 128.363 63.9444 128.097 63.9444C128.057 63.981 127.99 63.9994 127.895 63.9994H127.694C126.244 63.9261 124.755 63.8599 123.229 63.8021C121.7 63.7472 120.174 63.6429 118.648 63.4921C118.151 63.4555 117.834 63.3132 117.702 63.0666C117.569 62.8243 117.464 62.4382 117.39 61.9098Z" fill="white"/>
<path d="M151.265 56.1075C151.53 55.3946 152.018 54.9324 152.725 54.7267C153.431 54.521 154.271 54.4646 155.246 54.5576C156.217 54.652 157.306 54.8309 158.508 55.0944C159.71 55.3593 160.961 55.6017 162.257 55.8271C162.791 55.7905 163.26 55.6594 163.66 55.434C164.061 55.2071 164.434 54.9211 164.776 54.5604C165.12 54.2025 165.444 53.7981 165.75 53.3501C166.056 52.902 166.378 52.4469 166.722 51.9988C166.76 51.9608 166.797 51.8776 166.838 51.7424C166.874 51.6113 166.896 51.5282 166.896 51.4902L166.666 48.1621C166.588 48.1297 166.35 47.9394 165.949 47.6013C165.548 47.2659 165.233 47.001 165.005 46.8108C164.927 46.7347 164.785 46.6318 164.575 46.5008C164.366 46.3684 164.221 46.3021 164.145 46.3021C162.808 45.7414 161.558 45.2877 160.393 44.9509C159.23 44.6128 158.14 44.2084 157.131 43.7406C156.118 43.2699 155.204 42.6317 154.382 41.8215C153.562 41.0169 152.846 39.8601 152.235 38.3567C152.235 38.2454 152.226 38.0749 152.208 37.8495C152.188 37.624 152.159 37.3901 152.119 37.1449C152.083 36.9026 152.053 36.6771 152.035 36.47C152.013 36.2643 152.005 36.122 152.005 36.0459C151.968 35.5203 151.92 34.9567 151.864 34.3565C151.805 33.7534 151.871 33.1912 152.061 32.6629C152.099 32.5163 152.176 32.243 152.291 31.847C152.407 31.4539 152.54 31.0495 152.693 30.6367C152.845 30.2238 152.988 29.8279 153.121 29.4531C153.256 29.0769 153.342 28.8148 153.38 28.6626V28.3823C153.61 28.0441 153.818 27.7792 154.011 27.5918C154.2 27.4044 154.382 27.2071 154.555 27C154.729 26.7929 154.87 26.6337 154.985 26.5209C156.245 25.1316 157.493 24.0805 158.734 23.3647C159.974 22.6518 161.493 22.2009 163.286 22.0107C163.783 21.974 164.506 22.0318 165.464 22.1812C166.416 22.3305 167.372 22.5574 168.326 22.8561C169.28 23.1576 170.118 23.5423 170.842 24.0129C171.571 24.4807 171.951 24.9978 171.988 25.5628C172.027 25.901 172.009 26.3504 171.931 26.914C171.854 27.4776 171.73 28.0427 171.559 28.6049C171.387 29.1671 171.158 29.6673 170.873 30.0984C170.587 30.531 170.253 30.7677 169.871 30.8029C168.877 30.8804 167.886 30.8692 166.894 30.7748C165.901 30.6818 164.909 30.6733 163.915 30.7466C163.724 30.7466 163.332 30.7846 162.74 30.8593C162.15 30.934 161.76 30.972 161.568 30.972C161.452 31.0467 161.271 31.1298 161.024 31.2256C160.776 31.3186 160.527 31.4426 160.279 31.592C160.031 31.7428 159.822 31.8935 159.652 32.0429C159.48 32.1922 159.393 32.343 159.393 32.4938L159.679 35.8754C159.679 36.0614 159.803 36.2404 160.049 36.4094C160.3 36.5799 160.566 36.7476 160.854 36.9153C161.138 37.0858 161.434 37.2365 161.74 37.3661C162.044 37.4986 162.254 37.5832 162.37 37.6198C163.896 38.3356 165.289 39.0119 166.55 39.6502C167.81 40.287 168.898 41.0395 169.814 41.9046C170.727 42.7683 171.465 43.7927 172.016 44.9762C172.57 46.1584 172.923 47.6351 173.075 49.4034C173.228 50.9448 173.123 52.4666 172.76 53.9658C172.398 55.4692 171.805 56.8134 170.986 57.9956C170.164 59.1792 169.125 60.1641 167.864 60.9531C166.604 61.7464 165.174 62.2156 163.569 62.3622C162.233 62.5143 160.858 62.534 159.447 62.4199C158.034 62.3072 156.745 62.0254 155.58 61.5731C154.417 61.125 153.435 60.4557 152.633 59.5723C151.835 58.6916 151.379 57.5363 151.265 56.1075Z" fill="white"/>
<path d="M194.781 64.7263C194.59 64.653 194.4 64.5318 194.209 64.3613C194.018 64.1937 193.904 64.0147 193.866 63.8273L192.49 51.8803C192.49 51.7295 192.424 51.597 192.29 51.4871C192.155 51.3744 192.031 51.3378 191.917 51.3744L185.275 51.9916L186.363 61.8533C186.44 62.4563 186.61 63.0101 186.877 63.5187C187.143 64.0218 187.315 64.5615 187.391 65.1265C187.429 65.3519 187.411 65.4914 187.335 65.5477C187.257 65.6055 187.087 65.652 186.822 65.6901C186.743 65.6901 186.64 65.7013 186.505 65.7197C186.371 65.7351 186.285 65.7492 186.246 65.7492H185.53C185.207 65.7492 184.872 65.7577 184.528 65.7774C184.187 65.7971 183.869 65.8155 183.584 65.8352C183.298 65.8507 183.116 65.8648 183.039 65.8648C182.352 65.8648 181.797 65.7859 181.379 65.6393C180.958 65.4886 180.633 65.2589 180.405 64.963C180.176 64.6629 180.013 64.2965 179.918 63.8668C179.823 63.4328 179.736 62.9368 179.661 62.3704C179.468 60.3034 179.316 58.2476 179.202 56.2003C179.086 54.153 178.993 52.0747 178.916 49.9725C178.916 49.9344 178.905 49.7273 178.886 49.3525C178.867 48.9763 178.838 48.5465 178.799 48.0548C178.764 47.5672 178.723 47.0882 178.685 46.6176C178.648 46.147 178.607 45.7792 178.572 45.52C178.495 44.0912 178.562 42.7766 178.772 41.5733C178.982 40.37 179.22 39.0554 179.488 37.6266C179.26 36.9883 179.306 36.3148 179.632 35.599C179.956 34.8861 180.212 34.2478 180.405 33.6842C180.483 33.3841 180.529 33.1009 180.549 32.8388C180.569 32.5739 180.635 32.2752 180.75 31.9356C180.75 31.9004 180.769 31.8342 180.807 31.7383C180.845 31.6425 180.883 31.596 180.921 31.596C181.341 30.845 181.703 30.0856 182.009 29.3148C182.313 28.5441 182.734 27.7818 183.268 27.0308C183.612 26.5799 184.032 26.1206 184.529 25.65C185.025 25.1822 185.561 24.7412 186.133 24.3269C186.706 23.9141 187.307 23.5773 187.936 23.3138C188.566 23.0489 189.188 22.8813 189.799 22.8052C191.517 22.6572 192.851 22.8911 193.806 23.5097C194.759 24.1282 195.514 24.93 196.068 25.9064C196.62 26.8829 197.05 27.9622 197.354 29.1458C197.661 30.3307 198.002 31.4298 198.387 32.4443C198.387 32.557 198.414 32.7627 198.472 33.0642C198.528 33.3644 198.576 33.6828 198.617 34.0238C198.652 34.3605 198.703 34.6705 198.759 34.9523C198.817 35.2327 198.845 35.4328 198.845 35.5441C199.111 38.024 199.278 40.5222 199.335 43.0401C199.39 45.5566 199.476 48.0562 199.592 50.5332C199.592 51.1743 199.542 51.831 199.447 52.5059C199.352 53.1822 199.323 53.8402 199.361 54.4785C199.361 54.5532 199.379 54.7504 199.418 55.0703C199.455 55.3915 199.493 55.7396 199.533 56.113C199.571 56.4906 199.619 56.8372 199.675 57.1542C199.733 57.4755 199.764 57.6713 199.764 57.7446V59.6059C199.764 59.6806 199.772 59.8779 199.792 60.1977C199.812 60.519 199.829 60.8642 199.85 61.2404C199.869 61.6152 199.886 61.9646 199.906 62.2802C199.927 62.6029 199.936 62.8171 199.936 62.9298C199.936 63.1552 199.898 63.492 199.823 63.9457C199.744 64.3938 199.496 64.6586 199.077 64.7319H198.962C198.927 64.7319 198.8 64.7164 198.59 64.6784C198.381 64.6417 198.257 64.6206 198.218 64.6206C198.105 64.6206 197.874 64.6333 197.53 64.6502C197.188 64.6699 196.834 64.6784 196.472 64.6784C196.109 64.6784 195.765 64.6882 195.441 64.708C195.115 64.7234 194.896 64.7263 194.781 64.7263ZM185.393 44.4406C185.428 44.8887 185.696 45.2114 186.192 45.3988C186.688 45.5876 187.26 45.7073 187.91 45.7651C188.559 45.8215 189.209 45.8412 189.857 45.8215C190.506 45.8032 191.002 45.7736 191.346 45.7369C191.422 45.7369 191.574 45.7257 191.804 45.7074C192.032 45.6905 192.186 45.6792 192.262 45.6792C192.338 45.5665 192.395 45.465 192.434 45.3678C192.471 45.2776 192.51 45.1705 192.55 45.0578C192.55 44.8324 192.528 44.466 192.49 43.9574C192.452 43.4515 192.424 42.8978 192.406 42.2961C192.383 41.6945 192.368 41.1393 192.348 40.6321C192.327 40.1263 192.318 39.7599 192.318 39.5359C192.355 39.4598 192.375 39.2893 192.375 39.0258V38.465L191.803 32.998C191.765 32.736 191.667 32.4358 191.518 32.0948C191.365 31.7595 191.176 31.4481 190.945 31.1649C190.715 30.8845 190.439 30.6591 190.116 30.49C189.791 30.3209 189.455 30.2575 189.112 30.2913C188.804 30.3293 188.52 30.4237 188.255 30.5717C186.994 31.8511 186.212 33.1854 185.905 34.5761C185.6 35.9654 185.428 37.4872 185.393 39.1385C185.393 40.0417 185.371 40.9251 185.334 41.7889C185.294 42.654 185.314 43.5374 185.393 44.4406Z" fill="white"/>
<path d="M207.436 64.1684C207.093 61.7237 206.912 59.3101 206.891 56.9232C206.872 54.5392 206.865 52.1424 206.865 49.7358C206.785 45.451 206.641 41.1972 206.431 36.9701C206.221 32.7431 205.927 28.4695 205.546 24.1466C205.622 23.9226 205.746 23.7239 205.918 23.5548C206.09 23.3843 206.327 23.2632 206.634 23.1899H206.865C209.456 23.2632 211.845 23.4422 214.022 23.724C216.196 24.0072 218.094 24.5595 219.718 25.3852C221.339 26.2151 222.674 27.3691 223.724 28.8542C224.775 30.3379 225.474 32.3006 225.815 34.7439C225.966 35.8725 225.966 37.1026 225.815 38.4341C225.661 39.767 225.301 41.0267 224.726 42.2131C224.157 43.3952 223.353 44.4196 222.322 45.2833C221.295 46.1485 219.975 46.6571 218.373 46.8051C217.607 46.8826 216.864 46.853 216.138 46.7205C215.411 46.5881 214.687 46.4866 213.964 46.4091C213.657 46.5204 213.455 46.6628 213.361 46.8333C213.266 47.0009 213.216 47.2377 213.216 47.5378C213.216 47.7252 213.225 48.0633 213.247 48.5536C213.265 49.0398 213.282 49.547 213.304 50.0754C213.321 50.601 213.338 51.1068 213.359 51.5943C213.379 52.0847 213.407 52.4228 213.445 52.6102C213.445 52.6877 213.454 52.8935 213.475 53.2288C213.495 53.5656 213.521 53.7741 213.562 53.8474L213.678 64.105C213.6 64.3305 213.533 64.6038 213.475 64.9222C213.42 65.2407 213.235 65.4591 212.93 65.5718C212.779 65.5718 212.462 65.5873 211.987 65.6267C211.508 65.6605 211.213 65.7014 211.098 65.7395C210.6 65.8142 210.144 65.8606 209.725 65.879C209.301 65.9001 208.941 65.8606 208.635 65.7662C208.332 65.6746 208.073 65.5056 207.863 65.2618C207.656 65.0194 207.513 64.6531 207.436 64.1684ZM214.594 37.731C214.673 38.2594 214.823 38.661 215.052 38.9428C215.281 39.2246 215.739 39.3288 216.428 39.2527C216.962 39.2175 217.374 39.0273 217.66 38.6919C217.944 38.3524 218.161 37.9578 218.32 37.5055C218.467 37.0561 218.547 36.5953 218.547 36.1261C218.547 35.6569 218.525 35.2511 218.49 34.9144C218.45 34.6509 218.344 34.1803 218.173 33.5053C218.002 32.8304 217.774 32.1541 217.488 31.4778C217.202 30.8014 216.837 30.2195 216.399 29.7292C215.959 29.2431 215.473 29.0373 214.939 29.112C214.788 29.112 214.674 29.3177 214.595 29.7292C214.518 30.1463 214.47 30.6591 214.451 31.2805C214.433 31.9019 214.423 32.5768 214.423 33.3095C214.423 34.0422 214.433 34.7185 214.451 35.3385C214.47 35.957 214.501 36.4939 214.539 36.9448C214.574 37.3971 214.594 37.6577 214.594 37.731Z" fill="white"/>
<path d="M231.885 62.6468C231.885 62.5679 231.905 62.4876 231.943 62.389C231.978 62.2974 231.978 62.2312 231.943 62.1931C231.978 61.7028 232.036 61.111 232.113 60.4178C232.191 59.7217 232.322 59.1496 232.515 58.6973C232.629 58.4339 232.819 58.238 233.087 58.1056C233.352 57.9717 233.631 57.8576 233.918 57.7674C234.203 57.6744 234.479 57.58 234.748 57.487C235.013 57.3926 235.226 57.2305 235.377 57.0079C235.415 57.0079 235.444 56.9502 235.464 56.8374C235.482 56.7247 235.494 56.6303 235.494 56.5571C235.494 56.4824 235.502 56.3316 235.523 56.1048C235.542 55.8821 235.557 55.6285 235.58 55.3439C235.599 55.0649 235.609 54.7902 235.609 54.5281V53.9673C235.495 50.9238 235.465 47.8986 235.523 44.8918C235.58 41.8877 235.513 38.8809 235.32 35.8769C235.32 35.7994 235.301 35.6515 235.262 35.426C235.227 35.202 235.196 34.9554 235.178 34.6919C235.158 34.4298 235.139 34.186 235.12 33.9592C235.1 33.7352 235.091 33.5661 235.091 33.4534C235.013 33.1152 234.834 32.9095 234.547 32.8348C234.259 32.7573 233.945 32.6841 233.601 32.6094C233.259 32.5347 232.952 32.4107 232.688 32.243C232.419 32.0725 232.264 31.764 232.227 31.3131C232.227 31.275 232.218 31.2356 232.199 31.2004C232.18 31.1623 232.17 31.1257 232.17 31.089V29.9322C232.17 29.3883 232.18 28.805 232.199 28.1851C232.218 27.5679 232.227 26.9832 232.227 26.4379V25.3416C232.305 25.0401 232.399 24.6639 232.515 24.2116C232.629 23.7607 232.838 23.4986 233.145 23.4211L233.259 23.4789H233.373C233.945 23.5917 234.748 23.6382 235.778 23.6198C236.807 23.6001 237.859 23.6198 238.927 23.6776C239.995 23.7325 240.997 23.865 241.933 24.0707C242.868 24.2765 243.526 24.6428 243.907 25.1684C244.1 25.3952 244.194 25.7517 244.194 26.2392C244.194 26.7295 244.213 27.1058 244.251 27.3678C244.366 28.9826 244.317 30.1112 244.108 30.7495C243.898 31.3878 243.65 31.8203 243.363 32.0457C243.077 32.2712 242.781 32.4234 242.475 32.4981C242.17 32.5713 241.979 32.8715 241.905 33.397C241.637 34.9765 241.482 36.5546 241.447 38.1341C241.407 39.7094 241.417 41.2889 241.475 42.8656C241.533 44.4451 241.619 46.0134 241.734 47.5717C241.848 49.1315 241.941 50.7026 242.02 52.2779V52.871V53.9123C242.02 54.2899 242.029 54.6365 242.048 54.955C242.068 55.2734 242.077 55.4721 242.077 55.5468V55.9977C242.115 56.4472 242.286 56.7459 242.594 56.9009C242.898 57.0474 243.242 57.1925 243.622 57.3222C244.004 57.4532 244.358 57.6251 244.682 57.8308C245.007 58.0365 245.206 58.4226 245.283 58.9805C245.283 59.2454 245.293 59.6301 245.313 60.1374C245.333 60.646 245.305 61.1518 245.227 61.6591C245.15 62.1649 245.009 62.6285 244.797 63.0399C244.586 63.4514 244.252 63.6754 243.794 63.7149C243.03 63.8628 242.164 63.9022 241.19 63.8276C240.215 63.7501 239.347 63.7501 238.584 63.8276C238.469 63.8276 238.192 63.8544 237.752 63.9093C237.314 63.9671 236.855 64.0235 236.377 64.0812C235.899 64.1362 235.443 64.1855 235.003 64.2235C234.564 64.2587 234.287 64.2785 234.172 64.2785C233.637 64.3151 233.143 64.215 232.685 63.9671C232.227 63.7233 231.961 63.2851 231.885 62.6468Z" fill="white"/>
<path d="M257.538 64.9546C257.574 64.808 257.567 64.4952 257.508 64.0246C257.45 63.5568 257.424 63.2454 257.424 63.0961C257.346 61.9322 257.356 60.8149 257.45 59.7426C257.546 58.6717 257.672 57.536 257.827 56.3327C257.862 56.2581 257.862 56.1538 257.827 56.0214C257.787 55.8875 257.769 55.8086 257.769 55.7664C257.769 54.8279 257.835 53.9078 257.969 53.0046C258.103 52.1043 258.187 51.1828 258.227 50.2444C258.304 48.4775 258.284 46.75 258.169 45.0592C258.056 43.367 258.018 41.6579 258.056 39.9276C258.056 39.781 258.065 39.5542 258.084 39.2527L258.142 38.3509C258.162 38.0507 258.18 37.7802 258.2 37.5337C258.217 37.2885 258.228 37.1307 258.228 37.0546C258.228 36.9771 258.248 36.8094 258.286 36.5473C258.323 36.2838 258.363 36.0133 258.4 35.7301C258.437 35.4497 258.477 35.1862 258.513 34.9411C258.552 34.6959 258.57 34.5367 258.57 34.462V34.2915C258.57 34.0308 258.478 33.8321 258.286 33.6997C258.093 33.5687 257.904 33.4856 257.714 33.4475C256.568 33.5208 255.471 33.532 254.422 33.4743C253.371 33.4193 252.275 33.4292 251.128 33.5038C250.821 33.4292 250.536 33.2981 250.27 33.1093C250.27 32.9233 250.25 32.5739 250.212 32.0667C250.174 31.5622 250.135 31.2297 250.098 31.0832C250.06 30.745 249.994 30.2194 249.898 29.5036C249.802 28.7893 249.744 28.065 249.726 27.3352C249.705 26.6011 249.774 25.9445 249.926 25.3611C250.078 24.7806 250.402 24.4509 250.9 24.3762H251.128L270.195 24.5439C270.463 24.5439 270.673 24.6313 270.826 24.7975C270.977 24.968 271.101 25.1653 271.197 25.3907C271.293 25.6147 271.36 25.8515 271.398 26.0952C271.436 26.3404 271.456 26.5363 271.456 26.687C271.456 26.7237 271.466 26.866 271.486 27.1111C271.505 27.3549 271.533 27.6367 271.571 27.9551C271.608 28.2764 271.648 28.5934 271.687 28.9147C271.722 29.2331 271.743 29.5065 271.743 29.7305C271.743 29.8432 271.752 30.0349 271.773 30.2941C271.793 30.559 271.81 30.8521 271.829 31.1677C271.851 31.489 271.866 31.7891 271.887 32.0694C271.905 32.3527 271.917 32.5485 271.917 32.6613C271.917 32.8529 271.859 33.0403 271.745 33.2249C271.631 33.4123 271.479 33.525 271.287 33.5644C270.333 33.7138 269.379 33.7899 268.424 33.7899C267.47 33.7899 266.517 33.8448 265.559 33.9562C265.37 33.9942 265.197 34.0055 265.048 33.9857C264.894 33.9688 264.722 34.0506 264.532 34.2408C264.302 34.5043 264.159 34.8213 264.102 35.2003C264.045 35.5737 264.015 35.9598 264.015 36.3543C264.015 36.7474 264.033 37.1433 264.071 37.5379C264.109 37.931 264.129 38.2776 264.129 38.5805C263.937 42.7893 263.843 47.0051 263.843 51.2321C263.843 55.4592 264.109 59.6397 264.645 63.771C264.645 64.0739 264.597 64.4473 264.501 64.8996C264.405 65.3519 264.147 65.5928 263.729 65.6323H263.671C263.594 65.6323 263.443 65.6224 263.212 65.6041C262.982 65.5844 262.726 65.5548 262.44 65.5167C262.152 65.4801 261.896 65.4618 261.666 65.4618H261.266C261.036 65.4251 260.74 65.4251 260.377 65.4618C260.015 65.497 259.651 65.5167 259.29 65.5167C258.926 65.5167 258.585 65.4801 258.261 65.404C257.929 65.3322 257.69 65.18 257.538 64.9546Z" fill="white"/>
<path d="M276.664 55.544C276.624 55.3975 276.596 55.1847 276.576 54.9269C276.557 54.662 276.538 54.4013 276.519 54.135C276.499 53.8729 276.481 53.6362 276.461 53.4305C276.441 53.2248 276.433 53.0839 276.433 53.0064C276.393 52.2934 276.355 51.3621 276.318 50.2179C276.279 49.0724 276.241 47.9353 276.203 46.8081C276.165 45.6795 276.125 44.6833 276.089 43.8182C276.051 42.9559 276.031 42.4669 276.031 42.3542C276.031 41.2256 276.059 39.9955 276.117 38.6626C276.175 37.3311 276.299 35.977 276.49 34.6046C276.682 33.2336 276.995 31.8993 277.436 30.603C277.874 29.3067 278.456 28.1527 279.182 27.1354C279.907 26.1223 280.833 25.2938 281.959 24.6555C283.085 24.0172 284.45 23.641 286.053 23.5283H287.199C288.267 23.6777 289.298 23.9144 290.292 24.2328C291.282 24.5541 292.178 24.9866 292.983 25.5291C293.782 26.0758 294.479 26.7225 295.07 27.4736C295.662 28.226 296.11 29.1278 296.415 30.1789C296.453 30.3311 296.504 30.696 296.56 31.2779C296.618 31.8613 296.645 32.2459 296.645 32.4333C296.645 32.7363 296.656 33.1745 296.676 33.7578C296.694 34.3383 296.703 34.6694 296.703 34.7441C296.703 35.1203 296.713 35.9375 296.734 37.1958C296.752 38.4526 296.779 39.8264 296.818 41.3101C296.856 42.7924 296.883 44.2409 296.906 45.6499C296.925 47.0589 296.934 48.1002 296.934 48.7765C296.934 49.7163 296.942 50.7999 296.962 52.0187C296.983 53.2389 296.942 54.5112 296.851 55.8216C296.755 57.1405 296.582 58.4339 296.335 59.7133C296.086 60.9885 295.677 62.1354 295.104 63.1499C294.53 64.1644 293.785 65 292.87 65.6552C291.953 66.3132 290.788 66.6809 289.377 66.7556C288.156 66.8303 287 66.7556 285.913 66.5301C284.826 66.3047 283.71 66.0017 282.563 65.6255C281.419 65.2888 280.482 64.7632 279.758 64.0489C279.034 63.3345 278.449 62.5088 278.014 61.5676C277.573 60.6292 277.248 59.633 277.039 58.5804C276.824 57.535 276.7 56.5205 276.664 55.544ZM284.278 55.1495C284.356 55.9385 284.595 56.6431 284.995 57.263C285.395 57.8802 286.055 58.155 286.969 58.0803C287.581 58.0422 288.037 57.8633 288.346 57.5434C288.65 57.2236 288.87 56.829 289.004 56.3584C289.136 55.8878 289.212 55.3933 289.235 54.8649C289.25 54.3393 289.28 53.8504 289.318 53.4009V52.9204C289.318 52.6753 289.328 52.4132 289.348 52.1286C289.365 51.8496 289.376 51.5847 289.376 51.3395V50.9168C289.49 49.0005 289.546 47.2449 289.546 45.6485C289.546 44.0507 289.49 42.2922 289.376 40.3787C289.376 40.1519 289.356 39.787 289.318 39.2797C289.281 38.7711 289.241 38.2286 289.203 37.6453C289.167 37.0619 289.126 36.5167 289.088 36.0108C289.053 35.5036 289.032 35.1372 289.032 34.9118C288.955 34.6864 288.814 34.3778 288.602 33.9818C288.392 33.5873 288.164 33.2139 287.916 32.856C287.668 32.4981 287.381 32.1881 287.058 31.9261C286.733 31.6626 286.42 31.5315 286.114 31.5315C285.731 31.5682 285.397 31.7471 285.112 32.0655C284.826 32.3868 284.596 32.7701 284.425 33.221C284.251 33.6732 284.119 34.1312 284.024 34.6018C283.929 35.0724 283.86 35.4542 283.823 35.7572C283.785 35.8318 283.744 36.0207 283.709 36.3194C283.669 36.6223 283.621 36.9605 283.564 37.3339C283.509 37.7115 283.45 38.0665 283.392 38.4047C283.335 38.7429 283.307 38.95 283.307 39.0247V39.8137V41.3355C283.307 41.9005 283.296 42.4557 283.278 42.9981C283.258 43.5448 283.251 43.9675 283.251 44.2662V44.7185C283.251 44.7918 283.258 44.8496 283.278 44.8862C283.297 44.9228 283.307 44.9806 283.307 45.0553V45.2821C283.342 45.6584 283.41 46.3121 283.509 47.2533C283.603 48.1918 283.709 49.1781 283.823 50.2137C283.937 51.2437 284.031 52.2357 284.11 53.1741C284.182 54.1153 284.24 54.7719 284.278 55.1495Z" fill="white"/>
<path d="M337.447 63.3766C337.297 63.3766 337.115 63.4316 336.903 63.5443C336.692 63.657 336.481 63.781 336.274 63.9107C336.067 64.0445 335.885 64.1756 335.73 64.3066C335.578 64.4391 335.479 64.5208 335.445 64.5616C334.908 64.8265 334.316 64.9745 333.67 65.0111C333.019 65.0463 332.407 65.066 331.835 65.066C330.499 65.1041 329.25 64.804 328.084 64.1657C326.921 63.526 325.881 62.6792 324.966 61.6281C324.048 60.5769 323.294 59.4018 322.703 58.1055C322.11 56.8092 321.721 55.5397 321.528 54.3026C321.3 52.8358 321.176 51.3408 321.156 49.8191C321.137 48.2973 321.108 46.7869 321.07 45.282C320.993 43.3643 321.128 41.3185 321.47 39.1373C321.814 36.9604 322.388 34.9877 323.189 33.2208C323.533 32.4684 323.991 31.6709 324.563 30.8255C325.138 29.9787 325.796 29.1798 326.539 28.4288C327.283 27.6792 328.076 27.0113 328.917 26.4279C329.756 25.8474 330.595 25.443 331.436 25.219C331.586 25.219 331.894 25.1979 332.351 25.1612C332.807 25.126 333.116 25.1063 333.267 25.1063C334.907 25.0668 336.243 25.2092 337.274 25.5276C338.305 25.8489 339.097 26.3631 339.652 27.0789C340.208 27.7919 340.578 28.7134 340.77 29.8392C340.961 30.9692 341.076 32.3388 341.114 33.9535V34.4918C341.114 34.7369 341.122 34.9962 341.143 35.2822C341.163 35.5626 341.173 35.8345 341.173 36.0966V36.6603C341.133 36.9632 341.092 37.2886 341.059 37.6465C341.019 38.0044 340.952 38.3327 340.854 38.6315C340.761 38.9344 340.616 39.1965 340.425 39.4233C340.233 39.6474 339.967 39.7601 339.624 39.7601C338.861 39.7234 338.153 39.6276 337.505 39.4783C336.97 39.3656 336.477 39.2232 336.016 39.0556C335.558 38.8851 335.33 38.6512 335.33 38.351L335.272 34.2367C335.272 33.7112 335.034 33.2617 334.556 32.8827C334.078 32.5093 333.591 32.3205 333.096 32.3205C331.875 32.3571 330.853 32.8939 330.033 33.9281C329.21 34.9623 328.551 36.1924 328.058 37.6184C327.56 39.0457 327.208 40.5125 326.998 42.0159C326.791 43.5165 326.682 44.7762 326.682 45.7921C326.721 46.6953 326.843 47.8126 327.056 49.1456C327.264 50.4785 327.61 51.7663 328.084 53.0048C328.562 54.2462 329.192 55.2973 329.975 56.1596C330.757 57.0262 331.761 57.4573 332.981 57.4573C333.67 57.4207 334.221 57.1769 334.643 56.7232C335.063 56.2724 335.235 55.7102 335.158 55.0352C335.158 54.9972 335.148 54.9014 335.128 54.752C335.108 54.6027 335.091 54.4421 335.07 54.273C335.052 54.1053 335.013 53.9503 334.958 53.8221C334.9 53.6925 334.832 53.6262 334.758 53.6262L332.066 53.6798C331.951 53.6798 331.827 53.6164 331.693 53.4825C331.558 53.3515 331.434 53.1908 331.318 53.002C331.204 52.8146 331.11 52.6357 331.033 52.468C330.956 52.2975 330.919 52.1552 330.919 52.0439L330.862 48.3776C330.862 48.0042 331.014 47.6957 331.318 47.4491C331.625 47.2067 331.948 47.0813 332.292 47.0813H332.52C332.712 47.1208 333.044 47.1954 333.52 47.3082C333.999 47.4209 334.295 47.4942 334.411 47.5336L341.796 47.3082C341.873 47.3082 341.977 47.4125 342.111 47.6196C342.246 47.8253 342.349 47.9873 342.428 48.0986C342.465 48.1339 342.496 48.1747 342.516 48.2114C342.535 48.2466 342.562 48.2875 342.603 48.3241C342.64 48.4002 342.679 48.4565 342.717 48.4904C342.717 48.6045 342.696 48.8299 342.659 49.1681C342.621 49.5048 342.582 49.7303 342.547 49.843L342.831 64.7222C342.831 65.0252 342.726 65.2591 342.516 65.4268C342.307 65.5972 342.106 65.6818 341.913 65.6818C341.377 65.7184 340.818 65.6607 340.226 65.5141C339.634 65.3634 339.128 65.1379 338.708 64.8378C338.442 64.6912 338.25 64.4038 338.136 63.9909C338.022 63.5781 337.791 63.3766 337.447 63.3766Z" fill="white"/>
<path d="M350.792 61.9098C350.523 59.8089 350.448 57.6489 350.562 55.4269C350.677 53.2133 350.696 51.0322 350.62 48.889C350.541 46.8601 350.427 44.879 350.276 42.9444C350.124 41.0098 350.067 39.0259 350.105 36.9955C350.105 34.8158 350.114 32.7896 350.134 30.91C350.152 29.0331 350.009 27.0408 349.703 24.9357C349.779 24.3355 350.093 23.8761 350.647 23.5563C351.202 23.2379 351.743 23.0406 352.28 22.9645C352.889 22.8884 353.567 22.8884 354.31 22.9645C355.053 23.0406 355.676 23.3224 356.17 23.8113C356.17 23.886 356.179 24.0354 356.2 24.2608C356.221 24.4863 356.23 24.637 356.23 24.7131C356.382 26.0277 356.362 27.4537 356.172 28.9951C355.98 30.5352 355.922 31.9442 356 33.2222C356 33.373 356.029 33.945 356.089 34.9412C356.148 35.9374 356.211 37.0758 356.289 38.351C356.365 39.6276 356.441 40.9168 356.518 42.2117C356.594 43.508 356.652 44.5324 356.69 45.2848C356.804 47.0855 356.871 48.8426 356.89 50.5531C356.913 52.2622 357.014 53.9996 357.207 55.7665C357.322 56.4809 357.639 56.8937 358.151 57.0064C358.669 57.1206 359.231 57.167 359.842 57.1487C360.454 57.1276 361.015 57.1403 361.529 57.1783C362.043 57.2163 362.34 57.5362 362.418 58.135C362.418 59.3383 362.388 60.3063 362.331 61.0418C362.273 61.7731 362.187 62.441 362.073 63.0427C361.957 63.6429 361.764 63.9444 361.499 63.9444C361.463 63.981 361.395 63.9994 361.298 63.9994H361.096C359.646 63.9261 358.159 63.8599 356.631 63.8021C355.102 63.7472 353.575 63.6429 352.049 63.4921C351.55 63.4555 351.237 63.3132 351.104 63.0666C350.973 62.8243 350.865 62.4382 350.792 61.9098Z" fill="white"/>
<path d="M369.972 55.544C369.935 55.3975 369.904 55.1847 369.886 54.9269C369.863 54.662 369.846 54.4013 369.828 54.135C369.805 53.8729 369.79 53.6362 369.77 53.4305C369.748 53.2248 369.741 53.0839 369.741 53.0064C369.705 52.2934 369.663 51.3621 369.627 50.2179C369.59 49.0724 369.549 47.9353 369.511 46.8081C369.476 45.6795 369.433 44.6833 369.397 43.8182C369.362 42.9559 369.34 42.4669 369.34 42.3542C369.34 41.2256 369.37 39.9955 369.428 38.6626C369.486 37.3311 369.61 35.977 369.8 34.6046C369.994 33.2336 370.306 31.8993 370.747 30.603C371.186 29.3067 371.768 28.1527 372.491 27.1354C373.218 26.1223 374.142 25.2938 375.27 24.6555C376.397 24.0172 377.764 23.641 379.364 23.5283H380.51C381.578 23.6777 382.608 23.9144 383.6 24.2328C384.59 24.5541 385.491 24.9866 386.291 25.5291C387.091 26.0758 387.789 26.7225 388.381 27.4736C388.971 28.226 389.418 29.1278 389.725 30.1789C389.761 30.3311 389.812 30.696 389.87 31.2779C389.926 31.8613 389.957 32.2459 389.957 32.4333C389.957 32.7363 389.967 33.1745 389.987 33.7578C390.007 34.3383 390.016 34.6694 390.016 34.7441C390.016 35.1203 390.028 35.9375 390.046 37.1958C390.066 38.4526 390.092 39.8264 390.133 41.3101C390.169 42.7924 390.2 44.2409 390.222 45.6499C390.239 47.0589 390.25 48.1002 390.25 48.7765C390.25 49.7163 390.259 50.7999 390.278 52.0187C390.301 53.2389 390.259 54.5112 390.166 55.8216C390.071 57.1405 389.898 58.4339 389.65 59.7133C389.401 60.9885 388.992 62.1354 388.419 63.1499C387.849 64.1644 387.101 65 386.185 65.6552C385.271 66.3132 384.104 66.6809 382.692 66.7556C381.471 66.8303 380.314 66.7556 379.228 66.5301C378.141 66.3047 377.024 66.0017 375.878 65.6255C374.733 65.2888 373.794 64.7632 373.073 64.0489C372.347 63.3345 371.764 62.5088 371.327 61.5676C370.886 60.6292 370.562 59.633 370.355 58.5804C370.134 57.535 370.01 56.5205 369.972 55.544ZM377.587 55.1495C377.664 55.9385 377.903 56.6431 378.305 57.263C378.705 57.8802 379.364 58.155 380.279 58.0803C380.889 58.0422 381.347 57.8633 381.654 57.5434C381.958 57.2236 382.178 56.829 382.313 56.3584C382.447 55.8878 382.522 55.3933 382.542 54.8649C382.561 54.3393 382.588 53.8504 382.629 53.4009V52.9204C382.629 52.6753 382.639 52.4132 382.659 52.1286C382.678 51.8496 382.688 51.5847 382.688 51.3395V50.9168C382.802 49.0005 382.86 47.2449 382.86 45.6485C382.86 44.0507 382.802 42.2922 382.688 40.3787C382.688 40.1519 382.667 39.787 382.63 39.2797C382.592 38.7711 382.551 38.2286 382.516 37.6453C382.478 37.0619 382.439 36.5167 382.402 36.0108C382.364 35.5036 382.347 35.1372 382.347 34.9118C382.267 34.6864 382.125 34.3778 381.915 33.9818C381.706 33.5873 381.474 33.2139 381.228 32.856C380.979 32.4981 380.693 32.1881 380.369 31.9261C380.046 31.6626 379.731 31.5315 379.425 31.5315C379.043 31.5682 378.709 31.7471 378.423 32.0655C378.137 32.3868 377.907 32.7701 377.735 33.221C377.564 33.6732 377.43 34.1312 377.338 34.6018C377.242 35.0724 377.175 35.4542 377.134 35.7572C377.097 35.8318 377.058 36.0207 377.02 36.3194C376.983 36.6223 376.934 36.9605 376.876 37.3339C376.82 37.7115 376.762 38.0665 376.705 38.4047C376.648 38.7429 376.618 38.95 376.618 39.0247V39.8137V41.3355C376.618 41.9005 376.605 42.4557 376.588 42.9981C376.569 43.5448 376.559 43.9675 376.559 44.2662V44.7185C376.559 44.7918 376.569 44.8496 376.588 44.8862C376.607 44.9228 376.618 44.9806 376.618 45.0553V45.2821C376.653 45.6584 376.72 46.3121 376.82 47.2533C376.913 48.1918 377.02 49.1781 377.134 50.2137C377.248 51.2437 377.344 52.2357 377.421 53.1741C377.49 54.1153 377.548 54.7719 377.587 55.1495Z" fill="white"/>
<path d="M430.76 63.3766C430.609 63.3766 430.427 63.4316 430.214 63.5443C430.007 63.657 429.794 63.781 429.586 63.9107C429.377 64.0445 429.194 64.1756 429.041 64.3066C428.89 64.4391 428.791 64.5208 428.755 64.5616C428.221 64.8265 427.629 64.9745 426.979 65.0111C426.33 65.0463 425.72 65.066 425.146 65.066C423.81 65.1041 422.561 64.804 421.395 64.1657C420.231 63.526 419.193 62.6792 418.276 61.6281C417.358 60.5769 416.605 59.4018 416.016 58.1055C415.421 56.8092 415.034 55.5397 414.842 54.3026C414.612 52.8358 414.488 51.3408 414.469 49.8191C414.447 48.2973 414.419 46.7869 414.383 45.282C414.304 43.3643 414.439 41.3185 414.781 39.1373C415.124 36.9604 415.694 34.9877 416.5 33.2208C416.844 32.4684 417.301 31.6709 417.876 30.8255C418.448 29.9787 419.106 29.1798 419.85 28.4288C420.594 27.6792 421.387 27.0113 422.227 26.4279C423.068 25.8474 423.905 25.443 424.746 25.219C424.898 25.219 425.204 25.1979 425.662 25.1612C426.12 25.126 426.425 25.1063 426.576 25.1063C428.218 25.0668 429.553 25.2092 430.586 25.5276C431.615 25.8489 432.408 26.3631 432.963 27.0789C433.52 27.7919 433.888 28.7134 434.079 29.8392C434.269 30.9692 434.385 32.3388 434.423 33.9535V34.4918C434.423 34.7369 434.432 34.9962 434.453 35.2822C434.472 35.5626 434.482 35.8345 434.482 36.0966V36.6603C434.444 36.9632 434.403 37.2886 434.368 37.6465C434.329 38.0044 434.262 38.3327 434.165 38.6315C434.071 38.9344 433.927 39.1965 433.734 39.4233C433.542 39.6474 433.278 39.7601 432.935 39.7601C432.17 39.7234 431.466 39.6276 430.816 39.4783C430.281 39.3656 429.786 39.2232 429.325 39.0556C428.867 38.8851 428.64 38.6512 428.64 38.351L428.584 34.2367C428.584 33.7112 428.343 33.2617 427.867 32.8827C427.388 32.5093 426.9 32.3205 426.407 32.3205C425.186 32.3571 424.163 32.8939 423.343 33.9281C422.52 34.9623 421.86 36.1924 421.368 37.6184C420.871 39.0457 420.517 40.5125 420.309 42.0159C420.1 43.5165 419.993 44.7762 419.993 45.7921C420.03 46.6953 420.155 47.8126 420.367 49.1456C420.575 50.4785 420.919 51.7663 421.394 53.0048C421.872 54.2462 422.501 55.2973 423.285 56.1596C424.068 57.0262 425.07 57.4573 426.292 57.4573C426.978 57.4207 427.533 57.1769 427.954 56.7232C428.373 56.2724 428.545 55.7102 428.469 55.0352C428.469 54.9972 428.459 54.9014 428.439 54.752C428.419 54.6027 428.402 54.4421 428.381 54.273C428.361 54.1053 428.325 53.9503 428.267 53.8221C428.209 53.6939 428.144 53.6262 428.067 53.6262L425.376 53.6798C425.262 53.6798 425.136 53.6164 425.004 53.4825C424.867 53.3515 424.743 53.1908 424.629 53.002C424.513 52.8146 424.42 52.6357 424.343 52.468C424.267 52.2975 424.229 52.1552 424.229 52.0439L424.171 48.3776C424.171 48.0042 424.323 47.6957 424.629 47.4491C424.936 47.2067 425.259 47.0813 425.603 47.0813H425.831C426.021 47.1208 426.356 47.1954 426.833 47.3082C427.31 47.4209 427.606 47.4942 427.72 47.5336L435.106 47.3082C435.184 47.3082 435.287 47.4125 435.423 47.6196C435.556 47.8253 435.662 47.9873 435.738 48.0986C435.776 48.1339 435.805 48.1747 435.825 48.2114C435.846 48.2466 435.873 48.2875 435.912 48.3241C435.949 48.4002 435.99 48.4565 436.025 48.4904C436.025 48.6045 436.005 48.8299 435.969 49.1681C435.934 49.5048 435.891 49.7303 435.857 49.843L436.141 64.7222C436.141 65.0252 436.038 65.2591 435.825 65.4268C435.616 65.5972 435.415 65.6818 435.223 65.6818C434.688 65.7184 434.127 65.6607 433.535 65.5141C432.942 65.3634 432.438 65.1379 432.019 64.8378C431.753 64.6912 431.561 64.4038 431.446 63.9909C431.332 63.5837 431.102 63.3766 430.76 63.3766Z" fill="white"/>
<path d="M444.102 61.9098C443.834 59.8089 443.758 57.6489 443.872 55.4269C443.987 53.2133 444.006 51.0322 443.93 48.889C443.852 46.8601 443.738 44.879 443.586 42.9444C443.434 41.0098 443.379 39.0259 443.414 36.9955C443.414 34.8158 443.424 32.7896 443.444 30.91C443.463 29.0331 443.32 27.0408 443.012 24.9357C443.09 24.3355 443.403 23.8761 443.955 23.5563C444.512 23.2379 445.054 23.0406 445.589 22.9645C446.201 22.8884 446.876 22.8884 447.621 22.9645C448.362 23.0406 448.987 23.3224 449.481 23.8113C449.481 23.886 449.49 24.0354 449.511 24.2608C449.529 24.4863 449.539 24.637 449.539 24.7131C449.69 26.0277 449.673 27.4537 449.483 28.9951C449.29 30.5352 449.233 31.9442 449.311 33.2222C449.311 33.373 449.34 33.945 449.398 34.9412C449.456 35.9374 449.522 37.0758 449.601 38.351C449.676 39.6276 449.75 40.9168 449.826 42.2117C449.905 43.508 449.963 44.5324 450 45.2848C450.114 47.0855 450.179 48.8426 450.201 50.5531C450.221 52.2622 450.325 53.9996 450.517 55.7665C450.631 56.4809 450.948 56.8937 451.462 57.0064C451.978 57.1206 452.542 57.167 453.152 57.1487C453.762 57.1276 454.324 57.1403 454.84 57.1783C455.353 57.2149 455.65 57.5362 455.727 58.135C455.727 59.3383 455.698 60.3063 455.639 61.0418C455.581 61.7731 455.496 62.441 455.381 63.0427C455.267 63.6429 455.075 63.9444 454.809 63.9444C454.772 63.981 454.706 63.9994 454.609 63.9994H454.407C452.957 63.9261 451.467 63.8599 449.942 63.8021C448.412 63.7472 446.886 63.6429 445.358 63.4921C444.862 63.4555 444.547 63.3132 444.413 63.0666C444.282 62.8243 444.176 62.4382 444.102 61.9098Z" fill="white"/>
<path d="M463.284 55.544C463.246 55.3975 463.215 55.1847 463.197 54.9269C463.175 54.662 463.157 54.4013 463.139 54.135C463.118 53.8729 463.104 53.6362 463.083 53.4305C463.06 53.2248 463.053 53.0839 463.053 53.0064C463.016 52.2934 462.974 51.3621 462.939 50.2179C462.902 49.0724 462.861 47.9353 462.825 46.8081C462.787 45.6795 462.747 44.6833 462.709 43.8182C462.672 42.9559 462.653 42.4669 462.653 42.3542C462.653 41.2256 462.682 39.9955 462.742 38.6626C462.796 37.3311 462.92 35.977 463.113 34.6046C463.305 33.2336 463.618 31.8993 464.057 30.603C464.499 29.3067 465.079 28.1527 465.805 27.1354C466.529 26.1223 467.455 25.2938 468.582 24.6555C469.708 24.0172 471.074 23.641 472.676 23.5283H473.822C474.89 23.6777 475.92 23.9144 476.913 24.2328C477.905 24.5541 478.801 24.9866 479.605 25.5291C480.404 26.0758 481.102 26.7225 481.693 27.4736C482.285 28.226 482.73 29.1278 483.037 30.1789C483.075 30.3311 483.126 30.696 483.184 31.2779C483.241 31.8613 483.269 32.2459 483.269 32.4333C483.269 32.7363 483.279 33.1745 483.299 33.7578C483.317 34.3383 483.329 34.6694 483.329 34.7441C483.329 35.1203 483.338 35.9375 483.358 37.1958C483.378 38.4526 483.406 39.8264 483.446 41.3101C483.482 42.7924 483.51 44.2409 483.533 45.6499C483.553 47.0589 483.561 48.1002 483.561 48.7765C483.561 49.7163 483.572 50.7999 483.591 52.0187C483.613 53.2389 483.572 54.5112 483.478 55.8216C483.384 57.1405 483.21 58.4339 482.964 59.7133C482.713 60.9885 482.304 62.1354 481.732 63.1499C481.162 64.1644 480.413 65 479.5 65.6552C478.583 66.3132 477.416 66.6809 476.007 66.7556C474.786 66.8303 473.63 66.7556 472.543 66.5301C471.456 66.3047 470.34 66.0017 469.193 65.6255C468.048 65.2888 467.112 64.7632 466.388 64.0489C465.664 63.3345 465.079 62.5088 464.644 61.5676C464.203 60.6292 463.879 59.633 463.67 58.5804C463.443 57.535 463.319 56.5205 463.284 55.544ZM470.898 55.1495C470.977 55.9385 471.214 56.6431 471.615 57.263C472.016 57.8802 472.675 58.155 473.59 58.0803C474.2 58.0422 474.658 57.8633 474.965 57.5434C475.27 57.2236 475.489 56.829 475.623 56.3584C475.757 55.8878 475.831 55.3933 475.852 54.8649C475.871 54.3393 475.899 53.8504 475.938 53.4009V52.9204C475.938 52.6753 475.948 52.4132 475.968 52.1286C475.989 51.8496 475.998 51.5847 475.998 51.3395V50.9168C476.112 49.0005 476.169 47.2449 476.169 45.6485C476.169 44.0507 476.112 42.2922 475.998 40.3787C475.998 40.1519 475.976 39.787 475.94 39.2797C475.903 38.7711 475.862 38.2286 475.826 37.6453C475.789 37.0619 475.747 36.5167 475.71 36.0108C475.675 35.5036 475.655 35.1372 475.655 34.9118C475.576 34.6864 475.437 34.3778 475.224 33.9818C475.015 33.5873 474.783 33.2139 474.538 32.856C474.288 32.4981 474.002 32.1881 473.68 31.9261C473.357 31.664 473.041 31.5315 472.737 31.5315C472.354 31.5682 472.02 31.7471 471.734 32.0655C471.448 32.3868 471.218 32.7701 471.046 33.221C470.874 33.6732 470.74 34.1312 470.647 34.6018C470.552 35.0724 470.484 35.4542 470.445 35.7572C470.407 35.8318 470.366 36.0207 470.33 36.3194C470.292 36.6223 470.243 36.9605 470.187 37.3339C470.129 37.7115 470.071 38.0665 470.013 38.4047C469.957 38.7429 469.927 38.95 469.927 39.0247V39.8137V41.3355C469.927 41.9005 469.916 42.4557 469.898 42.9981C469.878 43.5448 469.87 43.9675 469.87 44.2662V44.7185C469.87 44.7918 469.878 44.8496 469.898 44.8862C469.918 44.9228 469.927 44.9806 469.927 45.0553V45.2821C469.964 45.6584 470.032 46.3121 470.129 47.2533C470.223 48.1918 470.33 49.1781 470.445 50.2137C470.56 51.2437 470.653 52.2357 470.732 53.1741C470.804 54.1153 470.86 54.7719 470.898 55.1495Z" fill="white"/>
<path d="M524.069 63.3766C523.917 63.3766 523.735 63.4316 523.524 63.5443C523.315 63.657 523.104 63.781 522.894 63.9107C522.685 64.0445 522.504 64.1756 522.35 64.3066C522.196 64.4376 522.101 64.5208 522.065 64.5616C521.53 64.8265 520.938 64.9745 520.29 65.0111C519.638 65.0463 519.028 65.066 518.455 65.066C517.12 65.1041 515.869 64.804 514.705 64.1657C513.542 63.526 512.502 62.6792 511.584 61.6281C510.668 60.5769 509.913 59.4018 509.324 58.1055C508.73 56.8092 508.34 55.5397 508.148 54.3026C507.919 52.8358 507.795 51.3408 507.775 49.8191C507.754 48.2973 507.727 46.7869 507.689 45.282C507.612 43.3643 507.746 41.3185 508.088 39.1373C508.432 36.9604 509.002 34.9877 509.807 33.2208C510.151 32.4684 510.609 31.6709 511.181 30.8255C511.754 29.9787 512.414 29.1798 513.156 28.4288C513.902 27.6792 514.693 27.0113 515.535 26.4279C516.374 25.8474 517.213 25.443 518.054 25.219C518.205 25.219 518.51 25.1979 518.968 25.1612C519.426 25.126 519.732 25.1063 519.884 25.1063C521.526 25.0668 522.86 25.2092 523.893 25.5276C524.923 25.8489 525.716 26.3631 526.271 27.0789C526.825 27.7919 527.194 28.7134 527.389 29.8392C527.579 30.9692 527.693 32.3388 527.731 33.9535V34.4918C527.731 34.7369 527.741 34.9962 527.761 35.2822C527.779 35.5626 527.79 35.8345 527.79 36.0966V36.6603C527.754 36.9632 527.711 37.2886 527.676 37.6465C527.639 38.0044 527.57 38.3327 527.475 38.6315C527.379 38.9344 527.235 39.1965 527.045 39.4233C526.85 39.6474 526.586 39.7601 526.245 39.7601C525.479 39.7234 524.775 39.6276 524.124 39.4783C523.589 39.3656 523.094 39.2232 522.635 39.0556C522.177 38.8851 521.948 38.6512 521.948 38.351L521.892 34.2367C521.892 33.7112 521.653 33.2617 521.176 32.8827C520.697 32.5093 520.21 32.3205 519.715 32.3205C518.494 32.3571 517.472 32.8939 516.652 33.9281C515.831 34.9623 515.17 36.1924 514.678 37.6184C514.179 39.0457 513.827 40.5125 513.618 42.0159C513.41 43.5165 513.303 44.7762 513.303 45.7921C513.338 46.6953 513.462 47.8126 513.675 49.1456C513.887 50.4785 514.227 51.7663 514.705 53.0048C515.181 54.2462 515.809 55.2973 516.594 56.1596C517.376 57.0262 518.379 57.4573 519.601 57.4573C520.289 57.4207 520.841 57.1769 521.261 56.7232C521.682 56.2724 521.853 55.7102 521.778 55.0352C521.778 54.9972 521.767 54.9014 521.748 54.752C521.727 54.6027 521.712 54.4421 521.688 54.273C521.669 54.1053 521.633 53.9503 521.575 53.8221C521.52 53.6925 521.451 53.6262 521.375 53.6262L518.684 53.6798C518.57 53.6798 518.444 53.6164 518.312 53.4825C518.176 53.3515 518.051 53.1908 517.938 53.002C517.824 52.8146 517.728 52.6357 517.654 52.468C517.576 52.2975 517.538 52.1552 517.538 52.0439L517.48 48.3776C517.48 48.0042 517.631 47.6957 517.938 47.4491C518.244 47.2067 518.567 47.0813 518.911 47.0813H519.14C519.331 47.1208 519.663 47.1954 520.141 47.3082C520.617 47.4209 520.914 47.4942 521.028 47.5336L528.414 47.3082C528.49 47.3082 528.596 47.4125 528.73 47.6196C528.865 47.8267 528.971 47.9873 529.047 48.0986C529.087 48.1339 529.113 48.1747 529.133 48.2114C529.156 48.2466 529.181 48.2875 529.222 48.3241C529.256 48.4002 529.296 48.4565 529.335 48.4904C529.335 48.6045 529.313 48.8299 529.277 49.1681C529.24 49.5048 529.198 49.7303 529.164 49.843L529.449 64.7222C529.449 65.0252 529.344 65.2591 529.132 65.4268C528.925 65.5972 528.722 65.6818 528.531 65.6818C527.995 65.7184 527.434 65.6607 526.842 65.5141C526.25 65.3634 525.746 65.1379 525.324 64.8378C525.06 64.6912 524.869 64.4038 524.755 63.9909C524.642 63.5837 524.414 63.3766 524.069 63.3766Z" fill="white"/>
<path d="M537.411 61.9098C537.145 59.8089 537.067 57.6489 537.181 55.4269C537.297 53.2133 537.317 51.0322 537.241 48.889C537.162 46.8601 537.048 44.879 536.895 42.9444C536.745 41.0098 536.688 39.0259 536.723 36.9955C536.723 34.8158 536.735 32.7896 536.753 30.91C536.771 29.0331 536.628 27.0408 536.323 24.9357C536.398 24.3355 536.711 23.8761 537.264 23.5563C537.821 23.2379 538.362 23.0406 538.899 22.9645C539.509 22.8884 540.187 22.8884 540.929 22.9645C541.673 23.0406 542.295 23.3224 542.791 23.8113C542.791 23.886 542.799 24.0354 542.82 24.2608C542.84 24.4863 542.85 24.637 542.85 24.7131C543.001 26.0277 542.984 27.4537 542.793 28.9951C542.6 30.5352 542.543 31.9442 542.62 33.2222C542.62 33.373 542.65 33.945 542.709 34.9412C542.765 35.9374 542.833 37.0758 542.91 38.351C542.987 39.6276 543.061 40.9168 543.137 42.2117C543.215 43.508 543.273 44.5324 543.311 45.2848C543.426 47.0855 543.49 48.8426 543.512 50.5531C543.533 52.2622 543.635 53.9996 543.828 55.7665C543.943 56.4809 544.259 56.8937 544.773 57.0064C545.289 57.1206 545.851 57.167 546.461 57.1487C547.073 57.1276 547.635 57.1403 548.149 57.1783C548.663 57.2163 548.961 57.5362 549.038 58.135C549.038 59.3383 549.009 60.3063 548.949 61.0418C548.892 61.7731 548.806 62.441 548.693 63.0427C548.576 63.6429 548.384 63.9444 548.12 63.9444C548.083 63.981 548.015 63.9994 547.918 63.9994H547.715C546.267 63.9261 544.777 63.8599 543.25 63.8021C541.723 63.7472 540.197 63.6429 538.671 63.4921C538.172 63.4555 537.858 63.3132 537.724 63.0666C537.591 62.8243 537.488 62.4382 537.411 61.9098Z" fill="white"/>
<path d="M556.593 55.544C556.555 55.3975 556.526 55.1847 556.507 54.9269C556.488 54.662 556.469 54.4013 556.45 54.135C556.427 53.8729 556.412 53.6362 556.393 53.4305C556.371 53.2248 556.364 53.0839 556.364 53.0064C556.328 52.2934 556.288 51.3621 556.25 50.2179C556.213 49.0724 556.172 47.9353 556.135 46.8081C556.099 45.6795 556.058 44.6833 556.021 43.8182C555.985 42.9559 555.965 42.4669 555.965 42.3542C555.965 41.2256 555.995 39.9955 556.052 38.6626C556.109 37.3311 556.233 35.977 556.424 34.6046C556.616 33.2336 556.93 31.8993 557.37 30.603C557.811 29.3067 558.393 28.1527 559.116 27.1354C559.841 26.1223 560.765 25.2938 561.893 24.6555C563.02 24.0172 564.387 23.641 565.987 23.5283H567.133C568.202 23.6777 569.231 23.9144 570.223 24.2328C571.215 24.5541 572.112 24.9866 572.914 25.5291C573.714 26.0758 574.412 26.7225 575.004 27.4736C575.597 28.226 576.041 29.1278 576.346 30.1789C576.384 30.3311 576.435 30.696 576.493 31.2779C576.551 31.8613 576.579 32.2459 576.579 32.4333C576.579 32.7363 576.59 33.1745 576.61 33.7578C576.628 34.3383 576.637 34.6694 576.637 34.7441C576.637 35.1203 576.647 35.9375 576.666 37.1958C576.685 38.4526 576.713 39.8264 576.752 41.3101C576.79 42.7924 576.818 44.2409 576.841 45.6499C576.859 47.0589 576.869 48.1002 576.869 48.7765C576.869 49.7163 576.879 50.7999 576.899 52.0187C576.919 53.2389 576.878 54.5112 576.785 55.8216C576.689 57.1405 576.515 58.4339 576.269 59.7133C576.021 60.9885 575.611 62.1354 575.039 63.1499C574.468 64.1644 573.72 65 572.806 65.6552C571.888 66.3132 570.722 66.6809 569.313 66.7556C568.091 66.8303 566.934 66.7556 565.848 66.5301C564.761 66.3047 563.644 66.0017 562.497 65.6255C561.352 65.2888 560.416 64.7632 559.693 64.0489C558.968 63.3345 558.383 62.5088 557.947 61.5676C557.506 60.6292 557.182 59.633 556.974 58.5804C556.755 57.535 556.631 56.5205 556.593 55.544ZM564.211 55.1495C564.287 55.9385 564.526 56.6431 564.926 57.263C565.326 57.8802 565.986 58.155 566.9 58.0803C567.512 58.0422 567.97 57.8633 568.276 57.5434C568.581 57.2236 568.8 56.829 568.936 56.3584C569.069 55.8878 569.144 55.3933 569.163 54.8649C569.183 54.3393 569.211 53.8504 569.251 53.4009V52.9204C569.251 52.6753 569.262 52.4132 569.28 52.1286C569.299 51.8496 569.31 51.5847 569.31 51.3395V50.9168C569.423 49.0005 569.48 47.2449 569.48 45.6485C569.48 44.0507 569.423 42.2922 569.31 40.3787C569.31 40.1519 569.29 39.787 569.252 39.2797C569.215 38.7711 569.175 38.2286 569.138 37.6453C569.101 37.0619 569.059 36.5167 569.024 36.0108C568.986 35.5036 568.967 35.1372 568.967 34.9118C568.887 34.6864 568.746 34.3778 568.535 33.9818C568.328 33.5873 568.095 33.2139 567.85 32.856C567.599 32.4981 567.315 32.1881 566.991 31.9261C566.668 31.6626 566.352 31.5315 566.048 31.5315C565.665 31.5682 565.331 31.7471 565.045 32.0655C564.759 32.3868 564.53 32.7701 564.357 33.221C564.185 33.6732 564.051 34.1312 563.958 34.6018C563.864 35.0724 563.796 35.4542 563.757 35.7572C563.719 35.8318 563.679 36.0207 563.641 36.3194C563.605 36.6223 563.555 36.9605 563.499 37.3339C563.441 37.7115 563.383 38.0665 563.327 38.4047C563.269 38.7429 563.24 38.95 563.24 39.0247V39.8137V41.3355C563.24 41.9005 563.228 42.4557 563.21 42.9981C563.189 43.5448 563.181 43.9675 563.181 44.2662V44.7185C563.181 44.7918 563.189 44.8496 563.21 44.8862C563.23 44.9228 563.24 44.9806 563.24 45.0553V45.2821C563.275 45.6584 563.343 46.3121 563.441 47.2533C563.534 48.1918 563.641 49.1781 563.757 50.2137C563.871 51.2437 563.965 52.2357 564.043 53.1741C564.112 54.1153 564.168 54.7719 564.211 55.1495Z" fill="white"/>
</svg>
