<svg width="244" height="153" viewBox="0 0 244 153" fill="none" xmlns="http://www.w3.org/2000/svg">
<path d="M82.5322 28.7319C82.5322 30.8052 81.7803 32.4219 80.2764 33.582C78.7725 34.7422 76.7314 35.3223 74.1533 35.3223C71.3604 35.3223 69.2119 34.9624 67.708 34.2427V31.6001C68.6748 32.0083 69.7275 32.3306 70.8662 32.5669C72.0049 32.8032 73.1328 32.9214 74.25 32.9214C76.0762 32.9214 77.4512 32.5776 78.375 31.8901C79.2988 31.1919 79.7607 30.2251 79.7607 28.9897C79.7607 28.1733 79.5942 27.5073 79.2612 26.9917C78.939 26.4653 78.3911 25.9819 77.6177 25.5415C76.855 25.1011 75.6895 24.6016 74.1211 24.043C71.9297 23.2588 70.3613 22.3296 69.416 21.2554C68.4814 20.1812 68.0142 18.7793 68.0142 17.0498C68.0142 15.2344 68.6963 13.7896 70.0605 12.7153C71.4248 11.6411 73.2295 11.104 75.4746 11.104C77.8164 11.104 79.9702 11.5337 81.936 12.3931L81.082 14.7778C79.1377 13.9614 77.2471 13.5532 75.4102 13.5532C73.96 13.5532 72.8267 13.8647 72.0103 14.4878C71.1938 15.1108 70.7856 15.9756 70.7856 17.082C70.7856 17.8984 70.936 18.5698 71.2368 19.0962C71.5376 19.6118 72.0425 20.0898 72.7515 20.5303C73.4712 20.96 74.5669 21.438 76.0386 21.9644C78.5093 22.8452 80.2065 23.7905 81.1304 24.8003C82.0649 25.8101 82.5322 27.1206 82.5322 28.7319ZM102.158 35L99.2256 27.5073H89.7832L86.8828 35H84.1113L93.4248 11.3457H95.729L104.994 35H102.158ZM98.3716 25.042L95.6323 17.7427C95.2778 16.8188 94.9126 15.6855 94.5366 14.3428C94.3003 15.374 93.9619 16.5073 93.5215 17.7427L90.75 25.042H98.3716ZM128.681 23.189C128.681 26.2075 128.074 28.7158 126.86 30.7139C125.646 32.7119 123.933 34.0654 121.72 34.7744L127.327 40.6074H123.347L118.755 35.29L117.869 35.3223C114.399 35.3223 111.719 34.2642 109.828 32.1479C107.948 30.021 107.008 27.0239 107.008 23.1567C107.008 19.3218 107.954 16.3516 109.844 14.2461C111.735 12.1299 114.42 11.0718 117.901 11.0718C121.285 11.0718 123.927 12.146 125.829 14.2944C127.73 16.4429 128.681 19.4077 128.681 23.189ZM109.909 23.189C109.909 26.3794 110.585 28.8018 111.939 30.4561C113.303 32.0996 115.28 32.9214 117.869 32.9214C120.479 32.9214 122.45 32.0996 123.782 30.4561C125.114 28.8125 125.78 26.3901 125.78 23.189C125.78 20.02 125.114 17.6191 123.782 15.9863C122.461 14.3428 120.5 13.521 117.901 13.521C115.291 13.521 113.303 14.3481 111.939 16.0024C110.585 17.646 109.909 20.0415 109.909 23.189ZM151.739 11.4424V26.6855C151.739 29.3711 150.928 31.4819 149.306 33.0181C147.684 34.5542 145.455 35.3223 142.619 35.3223C139.783 35.3223 137.586 34.5488 136.028 33.002C134.481 31.4551 133.708 29.3281 133.708 26.6211V11.4424H136.447V26.8145C136.447 28.7803 136.984 30.2896 138.059 31.3423C139.133 32.395 140.712 32.9214 142.796 32.9214C144.783 32.9214 146.314 32.395 147.388 31.3423C148.462 30.2788 149 28.7588 149 26.7822V11.4424H151.739ZM157.991 35V11.4424H160.73V35H157.991ZM174.458 35H171.719V13.8755H164.259V11.4424H181.919V13.8755H174.458V35ZM205.928 23.189C205.928 26.9595 204.972 29.9243 203.06 32.0835C201.158 34.2427 198.51 35.3223 195.116 35.3223C191.646 35.3223 188.966 34.2642 187.075 32.1479C185.195 30.021 184.255 27.0239 184.255 23.1567C184.255 19.3218 185.201 16.3516 187.091 14.2461C188.982 12.1299 191.667 11.0718 195.148 11.0718C198.532 11.0718 201.174 12.146 203.076 14.2944C204.977 16.4429 205.928 19.4077 205.928 23.189ZM187.156 23.189C187.156 26.3794 187.833 28.8018 189.186 30.4561C190.55 32.0996 192.527 32.9214 195.116 32.9214C197.726 32.9214 199.697 32.0996 201.029 30.4561C202.361 28.8125 203.027 26.3901 203.027 23.189C203.027 20.02 202.361 17.6191 201.029 15.9863C199.708 14.3428 197.748 13.521 195.148 13.521C192.538 13.521 190.55 14.3481 189.186 16.0024C187.833 17.646 187.156 20.0415 187.156 23.189Z" fill="black"/>
<path d="M82.5322 82.7319C82.5322 84.8052 81.7803 86.4219 80.2764 87.582C78.7725 88.7422 76.7314 89.3223 74.1533 89.3223C71.3604 89.3223 69.2119 88.9624 67.708 88.2427V85.6001C68.6748 86.0083 69.7275 86.3306 70.8662 86.5669C72.0049 86.8032 73.1328 86.9214 74.25 86.9214C76.0762 86.9214 77.4512 86.5776 78.375 85.8901C79.2988 85.1919 79.7607 84.2251 79.7607 82.9897C79.7607 82.1733 79.5942 81.5073 79.2612 80.9917C78.939 80.4653 78.3911 79.9819 77.6177 79.5415C76.855 79.1011 75.6895 78.6016 74.1211 78.043C71.9297 77.2588 70.3613 76.3296 69.416 75.2554C68.4814 74.1812 68.0142 72.7793 68.0142 71.0498C68.0142 69.2344 68.6963 67.7896 70.0605 66.7153C71.4248 65.6411 73.2295 65.104 75.4746 65.104C77.8164 65.104 79.9702 65.5337 81.936 66.3931L81.082 68.7778C79.1377 67.9614 77.2471 67.5532 75.4102 67.5532C73.96 67.5532 72.8267 67.8647 72.0103 68.4878C71.1938 69.1108 70.7856 69.9756 70.7856 71.082C70.7856 71.8984 70.936 72.5698 71.2368 73.0962C71.5376 73.6118 72.0425 74.0898 72.7515 74.5303C73.4712 74.96 74.5669 75.438 76.0386 75.9644C78.5093 76.8452 80.2065 77.7905 81.1304 78.8003C82.0649 79.8101 82.5322 81.1206 82.5322 82.7319ZM102.158 89L99.2256 81.5073H89.7832L86.8828 89H84.1113L93.4248 65.3457H95.729L104.994 89H102.158ZM98.3716 79.042L95.6323 71.7427C95.2778 70.8188 94.9126 69.6855 94.5366 68.3428C94.3003 69.374 93.9619 70.5073 93.5215 71.7427L90.75 79.042H98.3716ZM108.233 89V65.4424H110.972V86.5186H121.365V89H108.233ZM132.628 89H129.889V67.8755H122.429V65.4424H140.089V67.8755H132.628V89ZM143.65 89V65.4424H146.389V89H143.65ZM160.118 89H157.378V67.8755H149.918V65.4424H167.578V67.8755H160.118V89ZM191.587 77.189C191.587 80.9595 190.631 83.9243 188.719 86.0835C186.817 88.2427 184.169 89.3223 180.775 89.3223C177.305 89.3223 174.625 88.2642 172.734 86.1479C170.854 84.021 169.915 81.0239 169.915 77.1567C169.915 73.3218 170.86 70.3516 172.75 68.2461C174.641 66.1299 177.327 65.0718 180.807 65.0718C184.191 65.0718 186.833 66.146 188.735 68.2944C190.636 70.4429 191.587 73.4077 191.587 77.189ZM172.815 77.189C172.815 80.3794 173.492 82.8018 174.845 84.4561C176.209 86.0996 178.186 86.9214 180.775 86.9214C183.385 86.9214 185.356 86.0996 186.688 84.4561C188.021 82.8125 188.687 80.3901 188.687 77.189C188.687 74.02 188.021 71.6191 186.688 69.9863C185.367 68.3428 183.407 67.521 180.807 67.521C178.197 67.521 176.209 68.3481 174.845 70.0024C173.492 71.646 172.815 74.0415 172.815 77.189Z" fill="black"/>
<path d="M82.5322 135.732C82.5322 137.805 81.7803 139.422 80.2764 140.582C78.7725 141.742 76.7314 142.322 74.1533 142.322C71.3604 142.322 69.2119 141.962 67.708 141.243V138.6C68.6748 139.008 69.7275 139.331 70.8662 139.567C72.0049 139.803 73.1328 139.921 74.25 139.921C76.0762 139.921 77.4512 139.578 78.375 138.89C79.2988 138.192 79.7607 137.225 79.7607 135.99C79.7607 135.173 79.5942 134.507 79.2612 133.992C78.939 133.465 78.3911 132.982 77.6177 132.542C76.855 132.101 75.6895 131.602 74.1211 131.043C71.9297 130.259 70.3613 129.33 69.416 128.255C68.4814 127.181 68.0142 125.779 68.0142 124.05C68.0142 122.234 68.6963 120.79 70.0605 119.715C71.4248 118.641 73.2295 118.104 75.4746 118.104C77.8164 118.104 79.9702 118.534 81.936 119.393L81.082 121.778C79.1377 120.961 77.2471 120.553 75.4102 120.553C73.96 120.553 72.8267 120.865 72.0103 121.488C71.1938 122.111 70.7856 122.976 70.7856 124.082C70.7856 124.898 70.936 125.57 71.2368 126.096C71.5376 126.612 72.0425 127.09 72.7515 127.53C73.4712 127.96 74.5669 128.438 76.0386 128.964C78.5093 129.845 80.2065 130.791 81.1304 131.8C82.0649 132.81 82.5322 134.121 82.5322 135.732ZM102.158 142L99.2256 134.507H89.7832L86.8828 142H84.1113L93.4248 118.346H95.729L104.994 142H102.158ZM98.3716 132.042L95.6323 124.743C95.2778 123.819 94.9126 122.686 94.5366 121.343C94.3003 122.374 93.9619 123.507 93.5215 124.743L90.75 132.042H98.3716ZM123.17 125.307C123.17 127.691 122.354 129.528 120.721 130.817C119.099 132.096 116.773 132.735 113.744 132.735H110.972V142H108.233V118.442H114.34C120.227 118.442 123.17 120.73 123.17 125.307ZM110.972 130.382H113.438C115.865 130.382 117.622 129.99 118.707 129.206C119.792 128.422 120.334 127.165 120.334 125.436C120.334 123.878 119.824 122.718 118.803 121.955C117.783 121.192 116.193 120.811 114.034 120.811H110.972V130.382ZM128.117 142V118.442H130.856V142H128.117ZM144.584 142H141.845V120.875H134.385V118.442H152.045V120.875H144.584V142ZM176.054 130.189C176.054 133.959 175.098 136.924 173.186 139.083C171.284 141.243 168.636 142.322 165.242 142.322C161.772 142.322 159.092 141.264 157.201 139.148C155.321 137.021 154.381 134.024 154.381 130.157C154.381 126.322 155.327 123.352 157.217 121.246C159.108 119.13 161.793 118.072 165.274 118.072C168.658 118.072 171.3 119.146 173.202 121.294C175.103 123.443 176.054 126.408 176.054 130.189ZM157.282 130.189C157.282 133.379 157.958 135.802 159.312 137.456C160.676 139.1 162.653 139.921 165.242 139.921C167.852 139.921 169.823 139.1 171.155 137.456C172.487 135.812 173.153 133.39 173.153 130.189C173.153 127.02 172.487 124.619 171.155 122.986C169.834 121.343 167.874 120.521 165.274 120.521C162.664 120.521 160.676 121.348 159.312 123.002C157.958 124.646 157.282 127.042 157.282 130.189Z" fill="black"/>
<circle cx="21.4459" cy="23.3107" r="21.4459" fill="#D2D1C2"/>
<circle cx="21.4459" cy="77.3917" r="21.4459" fill="#D2D1C2"/>
<circle cx="21.4459" cy="130.54" r="21.4459" fill="#3E3D3C"/>
</svg>
