<svg width="54" height="71" viewBox="0 0 54 71" fill="none" xmlns="http://www.w3.org/2000/svg">
<g clip-path="url(#clip0)">
<path d="M44.8991 41.7666C44.8991 41.7666 54.7143 60.6429 53.3217 60.8534C50.6086 61.263 35.2386 50.8634 35.2386 50.8634C35.2386 50.8634 31.1111 44.3613 34.9741 41.2559C38.8394 38.1533 44.8991 41.7666 44.8991 41.7666Z" fill="#CCCCB8"/>
<path d="M44.8993 41.7666C44.8993 41.7666 41.8639 40.5938 41.1143 41.8642C40.4362 43.02 41.7633 44.7505 41.7633 44.7505C41.7633 44.7505 39.0803 43.3955 38.0805 44.2692C36.7808 45.4049 38.4258 48.0611 38.4258 48.0611C38.4258 48.0611 35.8565 46.476 35.0169 47.781C34.1382 49.1534 35.24 50.8615 35.24 50.8615L2.77164 19.7584L16.4101 7.35118L44.8993 41.7666Z" fill="#FF0000"/>
<path d="M16.4086 7.35165C16.4086 7.35165 11.2351 4.94462 5.98131 9.5859C-0.381018 15.2097 2.77016 19.7589 2.77016 19.7589L16.4086 7.35165Z" fill="black"/>
<path d="M49.7301 51.4356C48.2139 52.2947 46.8251 53.4817 45.6964 54.9969C45.2653 55.5812 44.8967 56.1836 44.5798 56.8016C48.3526 59.0509 52.4867 61.4015 53.6972 61.2184C54.3834 61.1174 51.9745 56.1164 49.7301 51.4356Z" fill="#FF0000"/>
</g>
<defs>
<clipPath id="clip0">
<rect width="39.6305" height="63.0959" fill="white" transform="translate(0 9.72705) rotate(-14.2082)"/>
</clipPath>
</defs>
</svg>
