<svg width="966" height="254" viewBox="0 0 966 254" fill="none" xmlns="http://www.w3.org/2000/svg">
<path fill-rule="evenodd" clip-rule="evenodd" d="M794.909 85.9302L789.551 87.4209L797.324 116.458L803.608 113.365L794.909 85.9302Z" fill="#E5B32C"/>
<path fill-rule="evenodd" clip-rule="evenodd" d="M796.839 85.8428L804.306 113.565L802.558 116.711L801.734 113.653C802.225 112.722 802.249 110.507 801.775 108.505C801.264 106.375 800.381 105.3 799.793 106.104C799.77 106.135 799.749 106.168 799.733 106.203L796.599 94.5842L794.857 85.9414L796.839 85.8428Z" fill="#D9A015"/>
<path fill-rule="evenodd" clip-rule="evenodd" d="M866.103 74.455L860.563 73.8691L856.752 103.663L863.756 103.108L866.103 74.455Z" fill="#E5B32C"/>
<path fill-rule="evenodd" clip-rule="evenodd" d="M867.922 75.089L864.328 103.552L861.515 105.824L861.909 102.686C862.716 102.007 863.582 99.9559 863.901 97.9257C864.237 95.7602 863.823 94.4396 862.975 94.9655C862.942 94.9926 862.909 95.0139 862.876 95.0351L864.38 83.1131L866.049 74.4529L867.922 75.089Z" fill="#D9A015"/>
<path fill-rule="evenodd" clip-rule="evenodd" d="M856.186 99.888C856.186 99.888 861.636 147.172 839.716 152.033C817.798 156.896 805.319 111.184 805.319 111.184L793.136 115.182C793.136 115.182 802.9 152.331 802.181 156.586C801.46 160.836 796.419 165.09 796.419 165.09L816.578 250.137C816.578 250.137 847.547 248.009 867.708 240.92C887.865 233.832 897.12 231.001 897.12 231.001L884.266 148.787C884.266 148.787 877.787 146.658 875.627 138.866C873.468 131.068 867.708 98.4688 867.708 98.4688L856.186 99.888Z" fill="#FA0F0C"/>
<path fill-rule="evenodd" clip-rule="evenodd" d="M790.667 86.2783L785.375 88.0011L795.481 121.271L801.168 119.778L790.667 86.2783Z" fill="#E5B32C"/>
<path fill-rule="evenodd" clip-rule="evenodd" d="M792.585 86.1233L796.017 95.0619L799.474 106.085C798.975 106.984 799.024 109.267 799.586 111.305C800.174 113.419 801.098 114.461 801.655 113.635C801.7 113.573 801.738 113.502 801.777 113.419L802.755 116.539L801.133 119.782L790.667 86.2896L792.585 86.1233Z" fill="#D9A015"/>
<path d="M796.487 94.072C796.798 93.6389 797.27 94.2112 797.538 95.3404C797.809 96.4696 797.774 97.7263 797.461 98.1478C797.156 98.5771 796.684 98.0067 796.417 96.8814C796.146 95.7522 796.179 94.4955 796.487 94.072Z" stroke="#0D0D0C" stroke-width="0.438" stroke-miterlimit="2.613" stroke-linecap="round" stroke-linejoin="round"/>
<path d="M796.918 98.094L801.255 102.297" stroke="#0D0D0C" stroke-width="0.438" stroke-miterlimit="2.613" stroke-linecap="round" stroke-linejoin="round"/>
<path fill-rule="evenodd" clip-rule="evenodd" d="M862.033 73.223L856.478 72.8691L853.214 107.452L859.059 108.156L862.033 73.223Z" fill="#E5B32C"/>
<path fill-rule="evenodd" clip-rule="evenodd" d="M863.87 73.7856L863.661 83.3372L862.681 94.8339C861.886 95.4835 861.055 97.6201 860.809 99.716C860.546 101.891 861.01 103.202 861.842 102.643C861.903 102.597 861.969 102.541 862.037 102.481L861.76 105.735L859.024 108.148L862.029 73.2327L863.87 73.7856Z" fill="#D9A015"/>
<path d="M864.477 82.5929C864.925 82.3107 865.146 83.0125 864.966 84.1572C864.786 85.3037 864.276 86.46 863.831 86.7403C863.382 87.0207 863.16 86.3169 863.336 85.1723C863.52 84.0276 864.026 82.8714 864.477 82.5929Z" stroke="#0D0D0C" stroke-width="0.438" stroke-miterlimit="2.613" stroke-linecap="round" stroke-linejoin="round"/>
<path d="M863.344 86.4832L865.774 91.9763" stroke="#0D0D0C" stroke-width="0.438" stroke-miterlimit="2.613" stroke-linecap="round" stroke-linejoin="round"/>
<path d="M529 114C339.466 112.726 154.131 71.6063 1 1" stroke="#0D0D0C" stroke-width="1.413" stroke-miterlimit="2.613"/>
<path d="M965 55C965 55 762.106 115.544 529 113.97" stroke="#0D0D0C" stroke-width="1.413" stroke-miterlimit="2.613"/>
<path fill-rule="evenodd" clip-rule="evenodd" d="M584.757 94.8553L579.193 94.6968L577.756 124.695L584.692 123.601L584.757 94.8553Z" fill="#E5B32C"/>
<path fill-rule="evenodd" clip-rule="evenodd" d="M586.621 95.3427L585.293 123.995L582.677 126.48L582.816 123.321C583.566 122.576 584.268 120.469 584.421 118.423C584.591 116.24 584.069 114.952 583.267 115.546C583.234 115.569 583.203 115.594 583.17 115.625L583.725 103.614L584.703 94.8516L586.621 95.3427Z" fill="#D9A015"/>
<path fill-rule="evenodd" clip-rule="evenodd" d="M673.511 97.5063L678.813 95.8184L688.715 124.226L681.742 125.084L673.511 97.5063Z" fill="#E5B32C"/>
<path fill-rule="evenodd" clip-rule="evenodd" d="M671.86 98.4881L681.271 125.633L684.498 127.292L683.461 124.302C682.529 123.796 681.259 121.965 680.528 120.041C679.749 117.988 679.88 116.611 680.82 116.957C680.855 116.972 680.894 116.986 680.93 117.005L676.988 105.629L673.56 97.4827L671.86 98.4881Z" fill="#D9A015"/>
<path fill-rule="evenodd" clip-rule="evenodd" d="M736.548 92.8868L730.981 92.7283L729.543 122.729L736.476 121.632L736.548 92.8868Z" fill="#E5B32C"/>
<path fill-rule="evenodd" clip-rule="evenodd" d="M738.41 93.3742L737.083 122.029L734.462 124.511L734.605 121.356C735.357 120.608 736.059 118.5 736.211 116.455C736.38 114.272 735.858 112.984 735.053 113.577C735.02 113.601 734.991 113.626 734.96 113.653L735.513 101.648L736.49 92.8831L738.41 93.3742Z" fill="#D9A015"/>
<mask id="mask0" mask-type="alpha" maskUnits="userSpaceOnUse" x="661" y="119" width="98" height="135">
<path fill-rule="evenodd" clip-rule="evenodd" d="M710.219 121.675C693.158 121.505 681.431 119.235 677.311 119.742C673.191 120.248 674.036 123.379 670.944 137.064C667.852 150.75 658.074 234.37 662.705 243.494C667.338 252.619 682.787 261.232 688.448 244.001C694.115 226.769 690.333 165.817 693.933 157.204C697.535 148.586 710.589 152.267 715.739 156.83C720.888 161.392 730.158 226.263 734.276 240.455C738.396 254.643 761.051 258.195 758.474 239.44C755.902 220.687 741.556 135.158 741.678 127.033C741.846 116 725.624 121.83 710.219 121.675Z" fill="#40A653"/>
</mask>
<g mask="url(#mask0)">
<path fill-rule="evenodd" clip-rule="evenodd" d="M710.219 121.675C693.158 121.505 681.431 119.235 677.311 119.742C673.191 120.248 674.036 123.379 670.944 137.064C667.852 150.75 658.074 234.37 662.705 243.494C667.338 252.619 682.787 261.232 688.448 244.001C694.115 226.769 690.333 165.817 693.933 157.204C697.535 148.586 710.589 152.267 715.739 156.83C720.888 161.392 730.158 226.263 734.276 240.455C738.396 254.643 761.051 258.195 758.474 239.44C755.902 220.687 741.556 135.158 741.678 127.033C741.846 116 725.624 121.83 710.219 121.675Z" fill="#40A653"/>
<path fill-rule="evenodd" clip-rule="evenodd" d="M776.185 221.096L721.816 228.306L722.98 236.814L777.353 229.598L776.185 221.096Z" fill="white"/>
<path fill-rule="evenodd" clip-rule="evenodd" d="M776.185 205.45L721.816 212.664L722.98 221.168L777.353 213.952L776.185 205.45Z" fill="white"/>
<path fill-rule="evenodd" clip-rule="evenodd" d="M774.137 189.808L719.767 197.018L720.931 205.522L775.301 198.306L774.137 189.808Z" fill="white"/>
<path fill-rule="evenodd" clip-rule="evenodd" d="M771.061 174.162L716.691 181.374L717.855 189.88L772.223 182.666L771.061 174.162Z" fill="white"/>
<path fill-rule="evenodd" clip-rule="evenodd" d="M769.01 158.52L714.639 165.732L715.805 174.234L770.176 167.02L769.01 158.52Z" fill="white"/>
<path fill-rule="evenodd" clip-rule="evenodd" d="M653.092 221.096L707.462 228.306L706.296 236.814L651.926 229.598L653.092 221.096Z" fill="white"/>
<path fill-rule="evenodd" clip-rule="evenodd" d="M653.092 205.45L707.462 212.664L706.296 221.168L651.926 213.952L653.092 205.45Z" fill="white"/>
<path fill-rule="evenodd" clip-rule="evenodd" d="M655.139 189.808L709.51 197.018L708.348 205.522L653.977 198.306L655.139 189.808Z" fill="white"/>
<path fill-rule="evenodd" clip-rule="evenodd" d="M658.217 174.162L712.586 181.374L711.424 189.88L657.052 182.666L658.217 174.162Z" fill="white"/>
<path fill-rule="evenodd" clip-rule="evenodd" d="M660.269 158.52L714.639 165.732L713.473 174.234L659.105 167.02L660.269 158.52Z" fill="white"/>
</g>
<path fill-rule="evenodd" clip-rule="evenodd" d="M633.474 212.674C638.026 219.072 631.065 223.527 625.576 226.727C620.092 229.932 586.708 165.831 586.708 165.831C586.708 165.831 580.732 237.587 581.511 245.019C582.292 252.446 578.004 256.522 547.294 250.685C516.588 244.849 506.421 251.489 506.522 242.74C506.624 233.993 518.279 161.577 518.279 161.577C518.279 161.577 489.389 214.018 485.197 218.567C480.999 223.113 481.736 225.112 474.64 219.412C467.546 213.712 468.354 210.091 475.179 195.481C481.032 182.938 502.144 142.505 511.798 127.386C513.935 124.047 516.856 118.579 521.207 118.119C531.358 117.034 586.799 121.808 594.12 129.161C603.561 138.641 624.777 200.442 633.474 212.674Z" fill="#AA61A1"/>
<path fill-rule="evenodd" clip-rule="evenodd" d="M529.987 117.82C539.063 117.831 567.806 118.881 575.355 122.292C572.656 125.32 568.545 130.623 564.309 132.439C558.158 135.074 546.768 136.49 537.51 130.515C533.879 128.17 530.762 120.817 529.987 117.82Z" fill="#6D3466"/>
<path fill-rule="evenodd" clip-rule="evenodd" d="M731.316 91.9434L725.757 92.332L727.215 127.027L733.1 126.959L731.316 91.9434Z" fill="#E5B32C"/>
<path fill-rule="evenodd" clip-rule="evenodd" d="M733.214 92.2644L734.303 101.758L734.895 113.28C734.187 114.028 733.655 116.255 733.694 118.367C733.735 120.558 734.371 121.791 735.115 121.132C735.169 121.078 735.229 121.014 735.285 120.946L735.453 124.208L733.073 126.954L731.318 91.9551L733.214 92.2644Z" fill="#D9A015"/>
<path d="M735.009 100.911C735.415 100.57 735.73 101.239 735.705 102.4C735.684 103.556 735.336 104.764 734.928 105.103C734.522 105.439 734.206 104.774 734.234 103.612C734.253 102.459 734.603 101.247 735.009 100.911Z" stroke="#0D0D0C" stroke-width="0.438" stroke-miterlimit="2.613" stroke-linecap="round" stroke-linejoin="round"/>
<path d="M734.417 104.915L737.563 110.041" stroke="#0D0D0C" stroke-width="0.438" stroke-miterlimit="2.613" stroke-linecap="round" stroke-linejoin="round"/>
<path fill-rule="evenodd" clip-rule="evenodd" d="M579.525 93.9099L573.97 94.3005L575.426 128.994L581.31 128.928L579.525 93.9099Z" fill="#E5B32C"/>
<path fill-rule="evenodd" clip-rule="evenodd" d="M581.424 94.2305L582.513 103.724L583.104 115.242C582.4 115.994 581.867 118.222 581.904 120.333C581.946 122.524 582.58 123.757 583.323 123.094C583.379 123.044 583.443 122.98 583.495 122.912L583.661 126.174L581.283 128.92L579.527 93.9211L581.424 94.2305Z" fill="#D9A015"/>
<path d="M583.218 102.879C583.626 102.539 583.938 103.208 583.916 104.368C583.897 105.524 583.547 106.737 583.141 107.071C582.731 107.408 582.422 106.742 582.445 105.58C582.462 104.428 582.814 103.212 583.218 102.879Z" stroke="#0D0D0C" stroke-width="0.438" stroke-miterlimit="2.613" stroke-linecap="round" stroke-linejoin="round"/>
<path d="M582.625 106.882L585.774 112.009" stroke="#0D0D0C" stroke-width="0.438" stroke-miterlimit="2.613" stroke-linecap="round" stroke-linejoin="round"/>
<path fill-rule="evenodd" clip-rule="evenodd" d="M678.262 95.1606L683.711 93.9985L692.172 127.713L686.503 129.268L678.262 95.1606Z" fill="#E5B32C"/>
<path fill-rule="evenodd" clip-rule="evenodd" d="M676.534 95.9883L678.185 105.403L680.894 116.631C681.791 117.151 682.935 119.146 683.494 121.182C684.078 123.297 683.821 124.66 682.914 124.225C682.843 124.191 682.773 124.148 682.701 124.098L683.467 127.274L686.534 129.26L678.274 95.1743L676.534 95.9883Z" fill="#D9A015"/>
<path d="M677.266 104.786C676.783 104.575 676.671 105.296 677.021 106.402C677.371 107.508 678.047 108.577 678.535 108.786C679.022 108.999 679.13 108.274 678.784 107.166C678.434 106.062 677.754 104.996 677.266 104.786Z" stroke="#0D0D0C" stroke-width="0.438" stroke-miterlimit="2.613" stroke-linecap="round" stroke-linejoin="round"/>
<path d="M678.974 108.465L677.409 114.254" stroke="#0D0D0C" stroke-width="0.438" stroke-miterlimit="2.613" stroke-linecap="round" stroke-linejoin="round"/>
<path fill-rule="evenodd" clip-rule="evenodd" d="M518.142 90.4699L523.581 89.304L532.044 123.022L526.379 124.579L518.142 90.4699Z" fill="#E5B32C"/>
<path d="M652.777 160.511L652.686 160.361L652.351 160.463C652.589 160.556 652.637 160.519 652.72 160.463" fill="#1F5C56"/>
</svg>
