<svg width="817" height="379" viewBox="0 0 817 379" fill="none" xmlns="http://www.w3.org/2000/svg">
<path d="M167.854 257.142C167.854 257.142 20.7915 279.146 14.8564 209.279C8.921 139.408 37.1455 84.5972 97.0424 83.843C156.938 83.0877 174.066 102.555 174.066 102.555C174.066 102.555 149.73 43.7614 206.374 27.5358C263.022 11.3113 271.79 68.9957 271.79 68.9957C271.79 68.9957 305.909 15.2749 352.963 45.5136C400.016 75.7523 409.825 122.894 409.825 122.894C409.825 122.894 450.973 60.8665 498.16 115.39C545.343 169.917 537.034 231.486 477.825 240.318C418.617 249.154 167.854 257.142 167.854 257.142Z" fill="#E3DFCD"/>
<path d="M816.99 273.492C816.902 266.245 814.687 206.183 776.663 187.336C738.642 168.488 706.38 212.914 706.38 212.914C706.38 212.914 701.773 129.977 655.683 139.81C609.597 149.64 610.749 196.76 610.749 196.76C610.749 196.76 595.61 168.199 570.42 177.912C542.498 188.683 547.379 218.759 547.379 218.759C547.379 218.759 531.904 196.825 508.985 212.914C486.065 229.007 473.64 257.339 479.401 288.302C485.161 319.265 507.95 359.65 648.068 344.843C788.186 330.033 817.618 324.652 816.99 273.492Z" fill="#989282"/>
<path d="M149.013 293.798C149.133 285.51 152.133 216.826 203.616 195.274C255.096 173.721 298.777 224.524 298.777 224.524C298.777 224.524 305.017 129.681 367.419 140.926C429.819 152.17 428.26 206.05 428.26 206.05C428.26 206.05 448.754 173.388 482.863 184.498C520.67 196.812 514.061 231.204 514.061 231.204C514.061 231.204 535.011 206.123 566.043 224.523C597.077 242.924 613.904 275.322 606.103 310.731C598.304 346.138 567.448 392.324 377.732 375.389C188.015 358.457 148.163 352.298 149.013 293.798Z" fill="#BCB49F"/>
</svg>
