<svg width="159" height="158" viewBox="0 0 159 158" fill="none" xmlns="http://www.w3.org/2000/svg">
<path d="M125.145 17.621C125.145 25.0395 119.312 31.0584 112.148 31.0584C104.974 31.0584 99.1458 25.0395 99.1458 17.621C99.1458 10.1961 104.974 4.18799 112.148 4.18799C119.312 4.18799 125.145 10.1961 125.145 17.621Z" fill="#7DC327"/>
<path d="M89.5607 22.2835C90.4642 30.6768 83.564 36.122 76.1893 36.122C68.8061 36.122 63.4239 30.5236 62.8072 22.2857C62.2358 14.6645 68.8298 9.14165 76.1893 8.45371C84.034 7.72265 88.7219 14.6926 89.5607 22.2835Z" fill="#7DC327"/>
<path d="M101.813 78.1763C101.813 78.1763 114.915 103.134 120.123 106.86C124.338 109.884 126.169 108.314 126.169 108.314C126.169 108.314 138.33 104.231 136.586 106.987C134.839 109.754 126.809 111.428 126.809 111.428C126.809 111.428 141.239 112.118 139.284 113.903C137.343 115.672 125.36 115.87 125.36 115.87C125.36 115.87 140.577 119.953 137.022 120.761C132.056 121.889 119.219 119.89 117.406 117.033C115.59 114.169 101.395 94.044 97.5113 89.58C93.6515 85.1203 101.813 78.1763 101.813 78.1763Z" fill="#7DC327"/>
<mask id="mask0" mask-type="alpha" maskUnits="userSpaceOnUse" x="96" y="78" width="44" height="44">
<path d="M101.813 78.1763C101.813 78.1763 114.915 103.134 120.123 106.86C124.338 109.884 126.169 108.314 126.169 108.314C126.169 108.314 138.33 104.231 136.586 106.987C134.839 109.754 126.809 111.428 126.809 111.428C126.809 111.428 141.239 112.118 139.284 113.903C137.343 115.672 125.36 115.87 125.36 115.87C125.36 115.87 140.577 119.953 137.022 120.761C132.056 121.889 119.219 119.89 117.406 117.033C115.59 114.169 101.395 94.044 97.5113 89.58C93.6515 85.1203 101.813 78.1763 101.813 78.1763Z" fill="#7DC327"/>
</mask>
<g mask="url(#mask0)">
<path d="M125.192 104.794C125.192 104.794 126.775 109.718 126.809 111.428C126.839 112.847 125.453 116.271 124.914 117.585C124.437 118.739 123.277 121.497 123.277 121.497C123.277 121.497 125.545 126.017 126.639 126.286C127.732 126.56 133.474 129.172 137.573 127.457C141.675 125.739 148.234 123.282 149.328 118.085C150.423 112.888 146.867 103.591 146.867 103.591L134.292 102.478L125.192 104.794Z" fill="#FF0000"/>
</g>
<path d="M122.479 17.621C122.479 23.5191 117.841 28.3044 112.149 28.3044C106.441 28.3044 101.809 23.5191 101.809 17.621C101.809 11.7186 106.439 6.9397 112.149 6.9397C117.839 6.9397 122.479 11.7186 122.479 17.621Z" fill="white"/>
<path d="M81.908 14.3409C108.109 10.5196 153.78 36.096 153.653 50.0703C153.463 70.167 116.743 69.4317 116.743 69.4317C116.743 69.4317 103.292 79.3948 97.5132 89.5801C79.6309 110.382 34.2835 131.372 17.6323 128.73C6.70842 126.998 4.35371 118.503 9.20975 86.1771C14.2254 52.8264 52.8752 38.8046 52.8752 38.8046C52.8752 38.8046 58.0526 17.8216 81.908 14.3409Z" fill="#7DC327"/>
<path d="M86.5248 22.2791C87.2191 28.7595 81.8887 32.9647 76.1939 32.9647C70.4904 32.9647 66.333 28.643 65.8543 22.2791C65.4166 16.394 70.5076 12.1283 76.1939 11.5978C82.2553 11.0285 85.8714 16.4155 86.5248 22.2791Z" fill="white"/>
<path d="M78.1349 22.2941C78.2729 23.519 77.2551 24.3126 76.164 24.3126C75.0858 24.3126 74.3009 23.5018 74.2039 22.2941C74.1327 21.1792 75.0901 20.3619 76.164 20.2648C77.3306 20.1592 78.0184 21.1857 78.1349 22.2941Z" fill="black"/>
<path d="M116.258 15.5809C116.386 16.6743 115.489 17.3859 114.512 17.3859C113.559 17.3859 112.849 16.6527 112.772 15.5809C112.698 14.5867 113.565 13.86 114.512 13.7759C115.538 13.681 116.157 14.5867 116.258 15.5809Z" fill="black"/>
<path d="M116.743 69.4315C116.743 69.4315 105.619 70.1885 88.1353 60.3655C54.0223 110.345 20.5993 119.338 17.63 128.732C17.2764 129.845 60.7694 123.168 85.9919 101.467C96.4393 92.474 116.743 69.4315 116.743 69.4315Z" fill="#FFE610"/>
<path d="M142.81 50.4132C142.81 51.071 142.275 51.6123 141.6 51.6123C140.927 51.6123 140.386 51.071 140.386 50.4132C140.386 49.7382 140.927 49.2056 141.6 49.2056C142.273 49.2077 142.81 49.7404 142.81 50.4132Z" fill="black"/>
<path d="M149.871 48.4508C149.871 49.2142 149.252 49.8374 148.489 49.8374C147.717 49.8374 147.098 49.2163 147.098 48.4508C147.098 47.6874 147.715 47.0728 148.489 47.0728C149.252 47.0749 149.871 47.6895 149.871 48.4508Z" fill="black"/>
<path d="M88.1935 85.116C88.1935 85.116 97.4268 113.888 101.789 118.577C105.317 122.385 107.419 121.214 107.419 121.214C107.419 121.214 120.157 119.64 117.895 121.993C115.626 124.356 107.419 124.384 107.419 124.384C107.419 124.384 121.427 127.938 119.163 129.299C116.905 130.651 105.112 128.451 105.112 128.451C105.112 128.451 119.216 135.495 115.561 135.566C110.49 135.689 98.3066 131.16 97.1012 128.005C95.8872 124.828 82.6797 97.3047 79.773 92.1527C76.2065 86.177 88.1935 85.116 88.1935 85.116Z" fill="#7DC327"/>
<mask id="mask1" mask-type="alpha" maskUnits="userSpaceOnUse" x="79" y="85" width="41" height="51">
<path d="M88.1935 85.116C88.1935 85.116 97.4268 113.888 101.789 118.577C105.317 122.385 107.419 121.214 107.419 121.214C107.419 121.214 120.157 119.64 117.895 121.993C115.626 124.356 107.419 124.384 107.419 124.384C107.419 124.384 121.427 127.938 119.163 129.299C116.905 130.651 105.112 128.451 105.112 128.451C105.112 128.451 119.216 135.495 115.561 135.566C110.49 135.689 98.3066 131.16 97.1012 128.005C95.8872 124.828 82.6797 97.3047 79.773 92.1527C76.2065 86.177 88.1935 85.116 88.1935 85.116Z" fill="#7DC327"/>
</mask>
<g mask="url(#mask1)">
<path d="M106.311 115.855C106.311 115.855 107.032 120.981 106.771 122.67C106.555 124.072 104.606 127.214 103.851 128.411C103.18 129.467 101.568 131.982 101.568 131.982C101.568 131.982 103.032 136.825 104.058 137.28C105.091 137.74 110.303 141.294 114.635 140.3C118.967 139.31 125.852 138.011 127.816 133.075C129.781 128.143 127.868 118.376 127.868 118.376L115.666 115.133L106.311 115.855Z" fill="#FF0000"/>
</g>
<path d="M135.294 105.594C135.294 106.744 136.23 107.68 137.379 107.68C138.533 107.68 139.467 106.744 139.467 105.594C139.467 104.441 138.533 103.505 137.379 103.505C136.23 103.505 135.294 104.441 135.294 105.594Z" fill="#FD0706"/>
<path d="M138.001 113.615C138.001 114.768 138.935 115.7 140.086 115.7C141.238 115.7 142.176 114.768 142.176 113.615C142.176 112.465 141.238 111.529 140.086 111.529C138.935 111.529 138.001 112.463 138.001 113.615Z" fill="#FD0706"/>
<path d="M135.918 120.707C135.918 121.857 136.849 122.793 138.001 122.793C139.152 122.793 140.088 121.857 140.088 120.707C140.088 119.554 139.152 118.622 138.001 118.622C136.849 118.622 135.918 119.554 135.918 120.707Z" fill="#FD0706"/>
<path d="M116.515 121.085C116.515 122.234 117.447 123.166 118.598 123.166C119.75 123.166 120.686 122.234 120.686 121.085C120.686 119.931 119.75 118.995 118.598 118.995C117.447 118.995 116.515 119.931 116.515 121.085Z" fill="#FD0706"/>
<path d="M117.328 128.734C117.328 129.883 118.259 130.815 119.411 130.815C120.562 130.815 121.498 129.883 121.498 128.734C121.498 127.58 120.562 126.644 119.411 126.644C118.259 126.644 117.328 127.58 117.328 128.734Z" fill="#FD0706"/>
<path d="M113.597 135.171C113.597 136.321 114.531 137.257 115.68 137.257C116.832 137.257 117.768 136.321 117.768 135.171C117.768 134.017 116.832 133.082 115.68 133.082C114.529 133.082 113.597 134.017 113.597 135.171Z" fill="#FD0706"/>
<path d="M116.743 68.7695C86.8738 68.7695 86.8738 54.2776 86.8738 54.2776" stroke="black" stroke-width="0.665" stroke-linecap="round"/>
<path d="M34.0485 103.505C43.601 98.9675 63.9589 85.4267 71.81 95.9139C79.6483 106.401 57.4619 132.204 57.4619 132.204C57.4619 132.204 94.5204 132.616 92.4158 135.094C90.3285 137.574 73.9534 135.961 73.9534 135.961C73.9534 135.961 93.8908 139.691 93.3495 141.949C92.8104 144.216 72.927 139.223 72.927 139.223C72.927 139.223 88.707 148.039 87.0401 149.79C85.3884 151.544 71.3335 144.934 60.1228 141.13C48.9207 137.321 41.4533 142.553 42.2275 137.727C43.0188 132.905 55.8511 119.439 55.8511 119.439C55.8511 119.439 36.0388 130.858 26.2556 130.811C2.13713 130.709 25.2658 107.68 34.0485 103.505Z" fill="#96CE17"/>
<mask id="mask2" mask-type="alpha" maskUnits="userSpaceOnUse" x="15" y="92" width="79" height="59">
<path d="M34.0485 103.505C43.601 98.9675 63.9589 85.4267 71.81 95.9139C79.6483 106.401 57.4619 132.204 57.4619 132.204C57.4619 132.204 94.5204 132.616 92.4158 135.094C90.3285 137.574 73.9534 135.961 73.9534 135.961C73.9534 135.961 93.8908 139.691 93.3495 141.949C92.8104 144.216 72.927 139.223 72.927 139.223C72.927 139.223 88.707 148.039 87.0401 149.79C85.3884 151.544 71.3335 144.934 60.1228 141.13C48.9207 137.321 41.4533 142.553 42.2275 137.727C43.0188 132.905 55.8511 119.439 55.8511 119.439C55.8511 119.439 36.0388 130.858 26.2556 130.811C2.13712 130.709 25.2658 107.68 34.0485 103.505Z" fill="#96CE17"/>
</mask>
<g mask="url(#mask2)">
<path d="M74.3524 129.758C74.3524 129.758 74.609 134.386 73.9513 135.963C72.7891 138.734 71.7152 140.938 70.8635 142.066C70.1131 143.068 68.2996 145.443 68.2996 145.443C68.2996 145.443 69.3562 150.388 70.346 150.927C71.34 151.466 76.2349 155.438 80.6359 154.806C85.037 154.175 92.0062 153.446 94.3695 148.69C96.7329 143.935 95.6331 134.045 95.6331 134.045L83.7367 129.808L74.3524 129.758Z" fill="#FF0000"/>
</g>
<path d="M90.193 134.91C90.096 136.06 90.9542 137.063 92.0971 137.16C93.2485 137.257 94.2534 136.4 94.3483 135.255C94.4431 134.106 93.5914 133.099 92.4421 133.002C91.2949 132.909 90.2857 133.759 90.193 134.91Z" fill="#FD0706"/>
<path d="M90.7971 141.35C90.7044 142.499 91.5605 143.506 92.7076 143.599C93.8505 143.696 94.8596 142.84 94.9567 141.695C95.0515 140.545 94.1976 139.538 93.0483 139.441C91.9033 139.349 90.8963 140.2 90.7971 141.35Z" fill="#FD0706"/>
<path d="M84.7976 149.564C84.7049 150.709 85.5567 151.716 86.7038 151.809C87.8553 151.906 88.858 151.05 88.955 149.905C89.0477 148.755 88.196 147.748 87.0467 147.655C85.9017 147.558 84.8925 148.412 84.7976 149.564Z" fill="#FD0706"/>
<path d="M32.1617 93.7078C31.4911 91.4974 29.158 90.2466 26.9478 90.9108C24.7418 91.5815 23.4869 93.9148 24.1553 96.121C24.8216 98.3314 27.1548 99.5822 29.365 98.9137C31.5752 98.2495 32.8259 95.9161 32.1617 93.7078Z" fill="#FF0000"/>
<path d="M17.3204 100.402C16.9366 99.1335 15.5975 98.4175 14.3296 98.8014C13.066 99.1852 12.3501 100.52 12.7339 101.788C13.1178 103.052 14.4482 103.768 15.7161 103.384C16.9819 103.004 17.6999 101.67 17.3204 100.402Z" fill="#FF0000"/>
<path d="M46.2731 82.0064C45.9777 81.0382 44.9556 80.4883 43.9895 80.7815C43.0213 81.077 42.4693 82.0949 42.769 83.0675C43.0558 84.0314 44.0779 84.5792 45.0483 84.288C46.0165 83.9948 46.5599 82.9769 46.2731 82.0064Z" fill="#FF0000"/>
<path d="M24.1602 105.679C23.8691 104.71 22.847 104.163 21.8766 104.458C20.9084 104.749 20.3607 105.771 20.6561 106.742C20.9516 107.706 21.9694 108.253 22.9354 107.962C23.9057 107.667 24.4534 106.647 24.1602 105.679Z" fill="#FF0000"/>
<path d="M14.9392 89.496C15.4826 91.2816 17.3608 92.293 19.1462 91.7496C20.9273 91.2147 21.9343 89.3278 21.3996 87.5465C20.8605 85.7695 18.9737 84.7538 17.1969 85.2972C15.4115 85.832 14.4045 87.7147 14.9392 89.496Z" fill="#FF0000"/>
<path d="M34.2404 72.2609C34.4129 74.1155 36.0561 75.4827 37.9083 75.3059C39.7606 75.1355 41.1256 73.4879 40.9531 71.6333C40.7849 69.783 39.1374 68.4201 37.2852 68.5926C35.4329 68.763 34.0679 70.4084 34.2404 72.2609Z" fill="#FF0000"/>
<path d="M20.4093 76.6021C20.6163 78.8298 22.5872 80.4709 24.8147 80.2617C27.0421 80.0525 28.6766 78.0815 28.4696 75.8494C28.2626 73.6325 26.2874 71.9914 24.0599 72.2006C21.8368 72.4076 20.2001 74.383 20.4093 76.6021Z" fill="#FF0000"/>
<path d="M36.1034 83.9732C35.7196 82.7052 34.3805 81.9892 33.1169 82.3687C31.849 82.7526 31.1331 84.0918 31.5169 85.3599C31.8964 86.6236 33.2355 87.3396 34.5034 86.9557C35.7649 86.5697 36.4808 85.2369 36.1034 83.9732Z" fill="#FF0000"/>
</svg>
