<svg width="167" height="141" viewBox="0 0 167 141" fill="none" xmlns="http://www.w3.org/2000/svg">
<path d="M136.808 32.062C136.461 28.3125 134.141 17.0829 134.141 17.0829C134.141 17.0829 147.431 19.7921 152.105 18.2277C156.79 16.6649 166.541 8.48178 166.541 16.6649C166.541 24.8575 159.184 33.7246 155.864 36.4306C144.938 45.3247 136.768 45.3516 136.768 45.3516C136.768 45.3516 137.116 35.384 136.808 32.062Z" fill="#FFB300"/>
<path d="M135.521 17.4313C129.705 -6.81716 81.9036 -9.75914 81.647 34.5163C81.5473 52.6021 76.1764 55.571 76.1764 55.571L134.142 72.8998C134.142 72.8998 140.68 38.9546 135.521 17.4313Z" fill="#41AA54"/>
<path d="M134.695 68.9128C134.695 68.9128 146.004 104.942 112.154 121.344C88.3489 132.88 55.8683 132.932 35.17 117.205C14.4779 101.482 -2.90326 65.119 0.406082 64.3304C3.717 63.5324 8.68734 67.6778 8.68734 67.6778C8.68734 67.6778 2.06866 57.7403 4.54671 57.7403C7.02634 57.7403 14.4763 64.3304 14.4763 64.3304C14.4763 64.3304 8.42766 56.7395 11.9967 57.7403C16.3511 58.9706 22.1559 66.5345 33.5945 68.015C58.8832 71.2927 77.4915 55.2654 77.4915 55.2654L134.695 68.9128Z" fill="#B7B19A"/>
<path d="M136.158 64.0678V75.8737C136.158 75.8737 113.604 72.4868 103.983 70.5756C82.2113 66.2387 76.1769 55.5712 76.1769 55.5712L78.7167 47.0762C78.7167 47.0762 80.3143 54.0685 99.2821 59.4521C107.704 61.8431 136.158 64.0678 136.158 64.0678Z" fill="white"/>
<path d="M107.877 31.5283C112.744 32.1886 115.977 29.1247 116.646 24.2605C117.309 19.3962 114.506 15.5089 109.641 14.8439C104.775 14.1852 101.301 17.7225 100.636 22.59C99.9787 27.4495 103.012 30.8601 107.877 31.5283Z" fill="white"/>
<path d="M110.621 24.7165C111.656 24.8591 112.184 24.1687 112.299 23.3596C112.407 22.5473 111.842 21.8031 111.031 21.6938C110.223 21.583 109.478 22.1482 109.37 22.9605C109.256 23.7681 109.812 24.6105 110.621 24.7165Z" fill="black"/>
<path d="M52.9439 75.7721C37.3045 76.6952 26.9886 64.7214 29.446 72.6987C31.8956 80.6791 41.3897 106.188 64.1022 102.508C86.81 98.8266 91.9387 81.5025 82.2228 73.3194C72.621 65.2265 64.4712 75.0896 52.9439 75.7721Z" fill="#CCCCB8"/>
<path d="M130.979 35.7246C130.979 35.7246 129.762 38.4164 127.707 38.8139C125.085 39.3174 123.7 37.2669 123.7 37.2669" stroke="black" stroke-width="0.955" stroke-linecap="round"/>
<path d="M15.4553 120C15.2818 126.095 21.9844 129.787 29.0753 134.055C32.353 134.148 33.3243 135.254 36.3856 135.72C40.4823 136.343 45.4469 135.379 49.4012 136.412C53.922 137.592 61.1372 137.035 66.1225 137.177L85.2833 137.722C101.869 138.194 116.835 138.964 132.497 135.791C136.825 134.914 141.2 132.646 145.915 132.512L145.994 132.51C148.45 132.44 150.353 132.387 152.2 131.535C156.75 129.438 165.585 129.05 164.217 124.556C162.961 120.428 158.833 120.049 153.166 117.948C149.149 116.458 145.284 114.812 141.248 113.306C136.014 111.352 131.137 111.284 125.147 111.113C113.726 110.788 103.336 113.955 93.36 116.534C85.929 118.456 79.076 121.551 70.3879 121.66C62.2515 121.762 55.7958 119.091 49.1507 116.721C43.4656 114.693 36.1934 113.783 29.6577 113.597C21.877 113.375 15.58 115.62 15.4553 120Z" fill="#087774"/>
</svg>
