<?xml version="1.0" encoding="UTF-8" standalone="no"?>
<svg
   width="250"
   height="150"
   viewBox="0 0 250 150"
   fill="none"
   version="1.1"
   id="svg263"
   sodipodi:docname="svgGlo38Fly.svg"
   inkscape:version="1.2.1 (9c6d41e410, 2022-07-14)"
   xmlns:inkscape="http://www.inkscape.org/namespaces/inkscape"
   xmlns:sodipodi="http://sodipodi.sourceforge.net/DTD/sodipodi-0.dtd"
   xmlns="http://www.w3.org/2000/svg"
   xmlns:svg="http://www.w3.org/2000/svg">
  <defs
     id="defs267" />
  <sodipodi:namedview
     id="namedview265"
     pagecolor="#ffffff"
     bordercolor="#000000"
     borderopacity="0.25"
     inkscape:showpageshadow="2"
     inkscape:pageopacity="0.0"
     inkscape:pagecheckerboard="0"
     inkscape:deskcolor="#d1d1d1"
     showgrid="false"
     inkscape:zoom="2.615625"
     inkscape:cx="48.172043"
     inkscape:cy="40.716846"
     inkscape:window-width="1920"
     inkscape:window-height="1018"
     inkscape:window-x="-8"
     inkscape:window-y="-8"
     inkscape:window-maximized="1"
     inkscape:current-layer="svg263" />
  <path
     d="m 91.316572,88.281784 c 2.952416,-8.429651 5.530188,-31.97907 26.254878,-54.309621 20.42648,-22.004529 47.06346,-31.2399302 43.57983,-13.241994 -3.48549,17.996262 -35.3153,46.07632 -50.38306,61.63652 -6.24033,6.446003 -21.63241,12.144296 -19.451648,5.915095 z"
     fill="#bab4a0"
     id="path199"
     style="stroke-width:1.78378" />
  <path
     d="m 99.821916,88.322754 c 0,0 4.620604,-20.229113 16.888794,-27.344298 12.26259,-7.111771 23.41057,-7.442948 23.41057,-7.442948"
     stroke="#ffffff"
     stroke-width="0.932915"
     id="path201" />
  <path
     d="m 125.45053,39.842874 c 0,0 1.15003,3.931447 1.41097,8.113837 0.26095,4.182391 -0.79216,8.600361 -0.79216,8.600361"
     stroke="#ffffff"
     stroke-width="0.932915"
     id="path203" />
  <path
     d="m 111.82804,64.831547 c 0,0 -1.16867,-8.42965 -3.45195,-12.434503 -2.28327,-4.004852 -4.16395,-5.556604 -4.16395,-5.556604"
     stroke="#ffffff"
     stroke-width="0.932915"
     id="path205" />
  <path
     d="m 102.90891,79.063454 c 0,0 8.751,-5.134951 12.74907,-5.355167 l 3.99806,-0.225337"
     stroke="#ffffff"
     stroke-width="0.932915"
     id="path207" />
  <path
     d="m 126.78284,47.050242 c 0,0 7.57116,-7.572687 16.91116,-10.225518 6.52551,-1.850494 10.34278,-1.222282 10.34278,-1.222282"
     stroke="#ffffff"
     stroke-width="0.932915"
     id="path209" />
  <path
     d="m 107.95448,51.6746 c 0,0 10.42498,-4.781582 17.49474,-11.833604 9.48166,-9.464152 9.41624,-22.967316 9.41624,-22.967316"
     stroke="#ffffff"
     stroke-width="0.932915"
     id="path211" />
  <path
     d="m 143.18665,36.98007 c 0,0 4.62806,-8.45355 2.73993,-17.57799 -1.33269,-6.416981 -2.04843,-6.254807 -2.04843,-6.254807"
     stroke="#ffffff"
     stroke-width="0.932915"
     id="path213" />
  <path
     d="m 105.27252,74.414855 c 0,0 -5.64389,-6.189938 -8.756602,-7.251753 -3.122031,-1.063522 -2.275821,-0.459209 -2.275821,-0.459209"
     stroke="#ffffff"
     stroke-width="0.932915"
     id="path215" />
  <path
     d="m 139.53769,118.99914 c -1.64582,11.45292 -1.50603,10.74618 -1.70733,15.05661 -0.0112,0.37044 -6.10986,-0.0171 -5.78554,0"
     stroke="#000000"
     stroke-width="1.39848"
     stroke-linecap="round"
     id="path217" />
  <path
     d="m 118.33752,115.2623 c -1.64769,11.45292 -1.5079,10.7496 -1.70361,15.05661 -0.0186,0.37385 -6.11172,-0.0137 -5.79113,0"
     stroke="#000000"
     stroke-width="1.39848"
     stroke-linecap="round"
     id="path219" />
  <path
     d="m 97.879174,113.98864 c -4.896463,10.63863 -4.555369,9.99506 -5.992436,14.10063 -0.126745,0.35678 -5.897377,-1.49371 -5.587969,-1.40324"
     stroke="#000000"
     stroke-width="1.39848"
     stroke-linecap="round"
     id="path221" />
  <path
     d="m 64.760295,71.048457 c -8.29614,7.804853 -12.698671,23.745736 -6.879577,32.469003 11.639976,17.44826 33.988127,11.49561 33.988127,11.49561 0,0 21.039695,7.40539 38.506295,8.37502 17.461,0.97304 31.74593,3.3903 29.09733,-13.0832 -2.64301,-16.480329 -10.05388,-36.349244 -29.09733,-39.742956 -19.05092,-3.392004 -25.30057,0.969632 -25.30057,0.969632 0,0 -21.268953,-18.417882 -40.314275,-0.483109 z"
     fill="#2a773a"
     id="path223"
     style="stroke-width:1.78378" />
  <path
     d="m 73.391453,75.334981 c -4.277648,1.114735 -7.498466,-2.217521 -7.498466,-6.45966 0,-4.243846 5.224509,-7.589758 9.589761,-6.804493 6.36708,1.152291 7.984944,10.640343 -2.091295,13.264153 z"
     fill="#ffffff"
     id="path225"
     style="stroke-width:1.78378" />
  <path
     d="m 65.94704,69.800569 c -0.05033,-0.356784 -0.05405,-0.554807 -0.05405,-0.925248 0,-4.242139 5.224509,-7.589758 9.589761,-6.802786 1.267452,0.228751 2.182626,0.643576 3.017653,1.415185"
     stroke="#ccccb8"
     stroke-width="0.447728"
     stroke-linecap="round"
     id="path227" />
  <path
     d="m 95.222745,71.195268 c 2.918866,-2.108266 8.622395,-2.444565 12.303595,0.926954 3.67934,3.369812 3.24692,7.922643 -0.009,11.633874 -3.25809,3.716353 -10.128424,4.687692 -14.30915,0.04951 -3.774396,-4.184098 -2.07452,-9.663883 2.014875,-12.610334 z"
     fill="#ffffff"
     id="path229"
     style="stroke-width:1.78378" />
  <path
     d="m 72.930511,68.045501 c 0,1.109614 -0.833163,1.57053 -1.733426,1.57053 -0.902127,0 -1.627184,-0.701617 -1.627184,-1.57053 0,-0.867206 0.725057,-1.57053 1.627184,-1.57053 0.898399,0 1.733426,0.703324 1.733426,1.57053 z"
     fill="#000000"
     id="path231"
     style="stroke-width:1.78378" />
  <path
     d="m 100.09069,77.50658 c 0,1.186434 -0.935677,1.678078 -1.947774,1.678078 -1.010233,0 -1.830349,-0.747709 -1.830349,-1.678078 0,-0.92354 0.820116,-1.674663 1.830349,-1.674663 1.012097,-0.0017 1.947774,0.751123 1.947774,1.674663 z"
     fill="#000000"
     id="path233"
     style="stroke-width:1.78378" />
  <path
     d="m 73.481293,82.446752 c -4.154631,-1.440791 -13.623239,-2.75355 -16.141348,-4.491375 -1.612273,-1.116443 -0.544259,-2.75355 -2.374608,-3.880235 -2.728748,-1.67637 -6.033442,-0.300449 -7.962577,4.131178 -1.724107,3.960468 -0.400739,7.29443 3.353154,7.712669 3.578687,0.396047 3.778124,-2.430907 5.729627,-2.570889 2.147212,-0.151932 12.381863,3.281042 14.773246,4.535759 1.780024,0.93549 4.141584,-4.907907 2.622506,-5.437107 z"
     fill="#41aa54"
     id="path235"
     style="stroke-width:1.78378" />
  <path
     d="m 68.827323,92.250617 c 0,0 1.176121,2.381401 3.157446,2.731357 2.534902,0.447259 3.878774,-1.367386 3.878774,-1.367386"
     stroke="#000000"
     stroke-width="1.42702"
     stroke-linecap="round"
     id="path237" />
  <path
     d="m 113.99016,72.200578 c 0,0 2.25345,15.584099 -4.63738,30.770442 -3.9757,8.75571 -8.00918,11.87287 -8.00918,11.87287"
     stroke="#41aa54"
     stroke-width="1.20762"
     id="path239" />
  <path
     d="m 152.29012,93.940644 c 0,0 0.069,12.415726 -7.9924,19.631626 -5.49664,4.9284 -11.5299,8.14457 -11.5299,8.14457"
     stroke="#41aa54"
     stroke-width="1.20762"
     id="path241" />
  <path
     d="m 134.45447,75.181342 c 0,0 2.95801,12.782751 -3.93656,27.963978 C 126.54222,111.90785 116,119.4225 116,119.4225"
     stroke="#41aa54"
     stroke-width="1.20762"
     id="path243" />
  <path
     d="m 111.82151,73.41791 c 6.51619,-6.533065 18.97822,-25.683292 47.97677,-38.066582 28.58103,-12.204045 59.55717,-8.96568 48.20043,6.060198 -11.36047,15.031 -53.07267,28.400992 -73.85328,36.794794 -8.60376,3.473945 -27.14396,0.03926 -22.32392,-4.78841 z"
     fill="#ccccb8"
     id="path245"
     style="stroke-width:1.78378" />
  <path
     d="m 121.48247,79.440723 c 0,0 13.40703,-16.625429 27.7982,-18.409347 14.37998,-1.785625 24.66311,2.169722 24.66311,2.169722"
     stroke="#ffffff"
     stroke-width="0.932915"
     id="path247" />
  <path
     d="m 166.84344,45.153656 c 0,0 -0.74369,4.011681 -2.41002,7.914107 -1.67005,3.902427 -4.63179,7.51806 -4.63179,7.51806"
     stroke="#ffffff"
     stroke-width="0.932915"
     id="path249" />
  <path
     d="m 143.08469,62.666947 c 0,0 2.77908,-8.107009 2.52372,-12.617163 -0.24976,-4.51186 -1.25627,-6.640612 -1.25627,-6.640612"
     stroke="#ffffff"
     stroke-width="0.932915"
     id="path251" />
  <path
     d="m 128.50844,72.200919 c 0,0 10.28686,-1.323001 14.02398,0 l 3.73525,1.321294"
     stroke="#ffffff"
     stroke-width="0.932915"
     id="path253" />
  <path
     d="m 164.77433,52.21575 c 0,0 10.32786,-3.991195 20.02759,-2.833782 6.77155,0.807457 9.95509,2.833782 9.95509,2.833782"
     stroke="#ffffff"
     stroke-width="0.932915"
     id="path255" />
  <path
     d="m 145.53833,49.081689 c 0,0 11.66428,-0.216802 21.29877,-3.928033 12.93174,-4.981312 19.01178,-17.280955 19.01178,-17.280955"
     stroke="#ffffff"
     stroke-width="0.932915"
     id="path257" />
  <path
     d="m 184.26531,49.325804 c 0,0 8.05577,-5.916802 10.49189,-14.933695 1.71106,-6.338455 0.98413,-6.466488 0.98413,-6.466488"
     stroke="#ffffff"
     stroke-width="0.932915"
     id="path259" />
  <path
     d="m 132.76932,68.877199 c 0,0 -2.31124,-7.780953 -4.66162,-9.935311 -2.35224,-2.152651 -1.85644,-1.278617 -1.85644,-1.278617"
     stroke="#ffffff"
     stroke-width="0.932915"
     id="path261" />
</svg>
