<svg width="981" height="731" viewBox="0 0 981 731" fill="none" xmlns="http://www.w3.org/2000/svg">
<path fill-rule="evenodd" clip-rule="evenodd" d="M897.216 140.902C897.625 135.072 899.619 86.6503 865.211 68.4976C830.804 50.3448 797.512 83.4737 797.512 83.4737C797.512 83.4737 798.812 16.4866 754.889 20.7324C710.967 24.9783 708.853 62.9182 708.853 62.9182C708.853 62.9182 696.583 38.776 672.282 44.5828C645.344 51.0205 647.885 75.566 647.885 75.566C647.885 75.566 634.85 56.7212 612.247 67.8298C589.643 78.9391 576.059 100.713 579.365 126.042C582.672 151.371 601.322 185.619 733.834 184.829C866.346 184.038 894.335 182.044 897.216 140.902Z" fill="#BEBAB2"/>
<g clip-path="url(#clip0)">
<path d="M840.843 63.4721C841.264 58.3034 839.477 44.5549 847.334 29.29C855.078 14.2474 867.766 5.73229 868.341 16.4242C868.915 27.1154 856.021 47.0138 850.219 57.7269C847.817 62.1648 840.533 67.2915 840.843 63.4721Z" fill="#BAB4A0"/>
<path d="M845.29 62.459C845.29 62.459 845.012 50.3556 850.475 44.8013C855.935 39.2497 861.716 37.702 861.716 37.702" stroke="white" stroke-width="0.523"/>
<path d="M852.23 31.6792C852.23 31.6792 853.355 33.7818 854.047 36.136C854.74 38.4901 854.778 41.1388 854.778 41.1388" stroke="white" stroke-width="0.523"/>
<path d="M848.44 47.5945C848.44 47.5945 846.707 42.928 844.981 40.9217C843.256 38.9153 842.066 38.2593 842.066 38.2593" stroke="white" stroke-width="0.523"/>
<path d="M845.672 56.8005C845.672 56.8005 849.561 52.8045 851.621 52.1916L853.68 51.5758" stroke="white" stroke-width="0.523"/>
<path d="M853.885 35.6278C853.885 35.6278 856.833 30.385 861.36 27.7333C864.523 25.8823 866.601 25.7754 866.601 25.7754" stroke="white" stroke-width="0.523"/>
<path d="M844.662 40.5612C844.662 40.5612 849.473 36.5629 852.228 31.6782C855.923 25.1235 854.092 17.4283 854.092 17.4283" stroke="white" stroke-width="0.523"/>
<path d="M861.117 27.884C861.117 27.884 862.41 22.4974 860.209 17.5223C858.659 14.024 858.307 14.2038 858.307 14.2038" stroke="white" stroke-width="0.523"/>
<path d="M846.29 53.8605C846.29 53.8605 842.517 51.0172 840.749 50.7908C838.977 50.5646 839.499 50.8062 839.499 50.8062" stroke="white" stroke-width="0.523"/>
<path d="M870.121 75.1189C870.785 81.8531 870.764 81.4329 871.232 83.9164C871.276 84.1291 868.038 84.6514 868.209 84.6216" stroke="black" stroke-width="0.784" stroke-linecap="round"/>
<path d="M858.551 75.5706C859.214 82.305 859.194 81.8868 859.665 84.3677C859.705 84.5832 856.47 85.1048 856.639 85.0735" stroke="black" stroke-width="0.784" stroke-linecap="round"/>
<path d="M847.69 77.3378C846.547 84.0037 846.64 83.595 846.435 86.1122C846.416 86.3312 843.155 85.9789 843.329 85.9928" stroke="black" stroke-width="0.784" stroke-linecap="round"/>
<path d="M824.674 56.8774C821.378 62.341 821.199 71.9714 825.4 76.2386C833.804 84.7737 844.688 78.654 844.688 78.654C844.688 78.654 856.667 80.3143 865.922 78.7386C875.174 77.1655 882.96 76.8034 879.384 67.7285C875.809 58.6491 869.293 48.2176 858.892 48.6026C848.487 48.9895 845.802 52.2394 845.802 52.2394C845.802 52.2394 832.238 44.3248 824.674 56.8774Z" fill="#2A773A"/>
<path d="M829.753 58.2712C827.666 59.4285 825.54 57.9201 824.975 55.5001C824.411 53.0791 826.695 50.5335 829.08 50.4495C832.56 50.3308 834.668 55.5463 829.753 58.2712Z" fill="white"/>
<path d="M825.127 56.0213C825.053 55.8239 825.025 55.7114 824.975 55.5001C824.411 53.08 826.695 50.5335 829.081 50.4504C829.773 50.4265 830.307 50.5516 830.846 50.89" stroke="#CCCCB8" stroke-width="0.251" stroke-linecap="round"/>
<path d="M840.609 53.249C841.854 51.6905 844.789 50.8035 847.161 52.2782C849.532 53.7522 849.912 56.4021 848.704 58.9162C847.497 61.4333 844.036 62.8248 841.235 60.6884C838.706 58.7615 838.865 55.4283 840.609 53.249Z" fill="white"/>
<path d="M828.543 57.1687C828.691 57.8017 828.317 58.1662 827.846 58.2759C827.375 58.3859 826.903 58.074 826.787 57.5783C826.672 57.0836 826.957 56.594 827.428 56.484C827.898 56.3746 828.428 56.674 828.543 57.1687Z" fill="black"/>
<path d="M843.994 59.2554C844.152 59.9322 843.728 60.3267 843.199 60.4501C842.672 60.5732 842.144 60.2466 842.02 59.7158C841.897 59.189 842.225 58.6605 842.753 58.5374C843.282 58.4131 843.871 58.7285 843.994 59.2554Z" fill="black"/>
<path d="M830.747 62.3171C828.384 62.0015 823.262 62.4066 821.716 61.7222C820.725 61.2818 821.065 60.2177 819.958 59.798C818.31 59.1743 816.766 60.362 816.348 63.1252C815.974 65.5947 817.109 67.3354 819.126 67.1164C821.049 66.9062 820.777 65.2692 821.778 64.9515C822.879 64.6031 828.684 65.3141 830.1 65.7384C831.155 66.0551 831.611 62.4338 830.747 62.3171Z" fill="#41AA54"/>
<path d="M829.621 68.4771C829.621 68.4771 830.553 69.6922 831.634 69.6504C833.018 69.5966 833.479 68.3976 833.479 68.3976" stroke="black" stroke-width="0.8" stroke-linecap="round"/>
<path d="M850.549 51.5346C850.549 51.5346 853.8 60.1502 852.221 69.6535C851.309 75.1329 849.616 77.4028 849.616 77.4028" stroke="#41AA54" stroke-width="0.677"/>
<path d="M873.454 59.2688C873.454 59.2688 875.142 66.3432 871.891 71.4422C869.675 74.9237 866.95 77.4938 866.95 77.4938" stroke="#41AA54" stroke-width="0.677"/>
<path d="M861.634 50.7415C861.634 50.7415 864.881 57.6732 863.299 67.174C862.388 72.6573 857.88 78.2291 857.88 78.2291" stroke="#41AA54" stroke-width="0.677"/>
<path d="M849.577 52.4939C852.113 47.9727 856.075 35.5291 869.579 24.9304C882.888 14.4848 899.503 12.5568 895.569 22.5129C891.634 32.4723 871.619 45.1834 861.879 52.5046C857.846 55.5351 847.702 55.8354 849.577 52.4939Z" fill="#CCCCB8"/>
<path d="M855.426 54.752C855.426 54.752 860.218 43.6336 867.5 40.8619C874.775 38.0906 880.675 39.0937 880.675 39.0937" stroke="white" stroke-width="0.523"/>
<path d="M874.562 29.6637C874.562 29.6637 874.707 32.0429 874.356 34.4722C874.003 36.902 872.936 39.3256 872.936 39.3256" stroke="white" stroke-width="0.523"/>
<path d="M864.481 42.5498C864.481 42.5498 864.854 37.5862 864.12 35.0444C863.389 32.501 862.58 31.4092 862.58 31.4092" stroke="white" stroke-width="0.523"/>
<path d="M858.133 49.7659C858.133 49.7659 863.332 47.7573 865.46 48.0566L867.588 48.3551" stroke="white" stroke-width="0.523"/>
<path d="M874.421 33.944C874.421 33.944 879.286 30.4084 884.508 29.8864C888.153 29.5217 890.086 30.2897 890.086 30.2897" stroke="white" stroke-width="0.523"/>
<path d="M863.955 34.5005C863.955 34.5005 870.021 32.9552 874.561 29.6638C880.654 25.2459 882.194 17.4883 882.194 17.4883" stroke="white" stroke-width="0.523"/>
<path d="M884.223 29.9199C884.223 29.9199 887.644 25.5627 887.717 20.1219C887.768 16.2974 887.371 16.313 887.371 16.313" stroke="white" stroke-width="0.523"/>
<path d="M859.917 47.3502C859.917 47.3502 857.674 43.1931 856.159 42.2506C854.643 41.3092 855.019 41.7474 855.019 41.7474" stroke="white" stroke-width="0.523"/>
</g>
<path fill-rule="evenodd" clip-rule="evenodd" d="M974.733 144.19C974.973 140.767 976.144 112.343 955.946 101.687C935.748 91.031 916.205 110.478 916.205 110.478C916.205 110.478 916.968 71.1558 891.185 73.6482C865.402 76.1405 864.161 98.4118 864.161 98.4118C864.161 98.4118 856.958 84.24 842.694 87.6487C826.88 91.4277 828.373 105.836 828.373 105.836C828.373 105.836 820.72 94.7741 807.452 101.295C794.183 107.816 786.209 120.598 788.15 135.466C790.092 150.335 801.039 170.439 878.826 169.975C956.612 169.511 973.042 168.341 974.733 144.19Z" fill="#D3CEC2"/>
<path d="M-323 617.754C-323 617.754 320.341 752.86 420.213 668.004C499.512 600.631 416.876 516.003 362.539 547.965C324.688 570.226 318.874 611.93 340.554 630.807C386.165 670.519 411.943 608.948 385.165 603.004" stroke="#F989B8" stroke-width="6" stroke-linecap="round"/>
<path d="M-103.159 829.518C-121.107 717.217 -125.352 654.024 -122.213 540.889C-114.603 632.228 -108.194 681.068 -82.0737 751.795C-88.1235 703.28 -88.7258 677.422 -81.207 635.377C-79.0892 678.065 -75.7501 701.931 -63.3879 744.328L-26.684 756.802C-45.1221 669.264 -43.6358 621.757 -33.9529 537.957C-29.0935 618.112 -26.6451 663.064 -3.4972 742.339L74.1847 753.451C59.175 685.771 59.9381 647.52 68.3923 579.06C70.5818 651.081 72.5324 691.114 96.2497 752.719C93.181 674.342 98.901 639.511 109.37 577.699C107.807 647.884 107.655 687.047 127.771 751.672C119.836 684.654 120.776 646.363 131.435 576.966C131.41 648.159 133.451 686.39 158.838 736.947C159.9 683.164 167.748 631.151 206.348 552.226C176.052 653.993 173.038 714.413 161.621 820.723L-103.159 829.518Z" fill="#88C549" stroke="#88C549"/>
<defs>
<clipPath id="clip0">
<rect width="95.139" height="79.861" fill="white" transform="translate(803.172 21.8506) rotate(-13.1308)"/>
</clipPath>
</defs>
</svg>
