<svg width="674" height="475" viewBox="0 0 674 475" fill="none" xmlns="http://www.w3.org/2000/svg">
<path d="M134.145 334.621C134.145 342.039 128.312 348.058 121.148 348.058C113.974 348.058 108.146 342.039 108.146 334.621C108.146 327.196 113.974 321.188 121.148 321.188C128.312 321.188 134.145 327.196 134.145 334.621Z" fill="#7DC327"/>
<path d="M98.5607 339.284C99.4642 347.677 92.564 353.122 85.1893 353.122C77.8061 353.122 72.4239 347.524 71.8072 339.286C71.2358 331.665 77.8298 326.142 85.1893 325.454C93.034 324.723 97.7219 331.693 98.5607 339.284Z" fill="#7DC327"/>
<path d="M110.813 395.176C110.813 395.176 123.915 420.134 129.123 423.86C133.338 426.884 135.169 425.314 135.169 425.314C135.169 425.314 147.33 421.231 145.586 423.987C143.839 426.754 135.809 428.428 135.809 428.428C135.809 428.428 150.239 429.118 148.284 430.903C146.343 432.672 134.36 432.87 134.36 432.87C134.36 432.87 149.577 436.953 146.022 437.761C141.056 438.889 128.219 436.89 126.406 434.033C124.59 431.169 110.395 411.044 106.511 406.58C102.652 402.12 110.813 395.176 110.813 395.176Z" fill="#7DC327"/>
<mask id="mask0" mask-type="alpha" maskUnits="userSpaceOnUse" x="105" y="395" width="44" height="44">
<path d="M110.813 395.176C110.813 395.176 123.915 420.134 129.123 423.86C133.338 426.884 135.169 425.314 135.169 425.314C135.169 425.314 147.33 421.231 145.586 423.987C143.839 426.754 135.809 428.428 135.809 428.428C135.809 428.428 150.239 429.118 148.284 430.903C146.343 432.672 134.36 432.87 134.36 432.87C134.36 432.87 149.577 436.953 146.022 437.761C141.056 438.889 128.219 436.89 126.406 434.033C124.59 431.169 110.395 411.044 106.511 406.58C102.652 402.12 110.813 395.176 110.813 395.176Z" fill="#7DC327"/>
</mask>
<g mask="url(#mask0)">
<path d="M134.192 421.794C134.192 421.794 135.775 426.718 135.809 428.428C135.839 429.847 134.453 433.271 133.914 434.585C133.437 435.739 132.277 438.497 132.277 438.497C132.277 438.497 134.545 443.017 135.639 443.286C136.732 443.56 142.474 446.172 146.573 444.457C150.675 442.739 157.234 440.282 158.328 435.085C159.423 429.888 155.867 420.591 155.867 420.591L143.292 419.478L134.192 421.794Z" fill="#FF0000"/>
</g>
<path d="M131.479 334.621C131.479 340.519 126.841 345.304 121.149 345.304C115.441 345.304 110.809 340.519 110.809 334.621C110.809 328.719 115.439 323.94 121.149 323.94C126.839 323.94 131.479 328.719 131.479 334.621Z" fill="white"/>
<path d="M90.908 331.341C117.109 327.52 162.78 353.096 162.653 367.07C162.463 387.167 125.743 386.432 125.743 386.432C125.743 386.432 112.292 396.395 106.513 406.58C88.6309 427.382 43.2835 448.372 26.6323 445.73C15.7084 443.998 13.3537 435.503 18.2097 403.177C23.2254 369.826 61.8752 355.805 61.8752 355.805C61.8752 355.805 67.0526 334.822 90.908 331.341Z" fill="#7DC327"/>
<path d="M95.5248 339.279C96.2191 345.759 90.8887 349.965 85.1939 349.965C79.4904 349.965 75.333 345.643 74.8543 339.279C74.4166 333.394 79.5076 329.128 85.1939 328.598C91.2553 328.029 94.8714 333.416 95.5248 339.279Z" fill="white"/>
<path d="M87.1349 339.294C87.2729 340.519 86.2551 341.313 85.164 341.313C84.0858 341.313 83.3009 340.502 83.2039 339.294C83.1327 338.179 84.0901 337.362 85.164 337.265C86.3306 337.159 87.0184 338.186 87.1349 339.294Z" fill="black"/>
<path d="M125.258 332.581C125.386 333.674 124.489 334.386 123.512 334.386C122.559 334.386 121.849 333.653 121.772 332.581C121.698 331.587 122.565 330.86 123.512 330.776C124.538 330.681 125.157 331.587 125.258 332.581Z" fill="black"/>
<path d="M125.743 386.432C125.743 386.432 114.619 387.188 97.1353 377.365C63.0223 427.345 29.5993 436.338 26.63 445.732C26.2764 446.845 69.7694 440.168 94.9919 418.467C105.439 409.474 125.743 386.432 125.743 386.432Z" fill="#FFE610"/>
<path d="M151.81 367.413C151.81 368.071 151.275 368.612 150.6 368.612C149.927 368.612 149.386 368.071 149.386 367.413C149.386 366.738 149.927 366.206 150.6 366.206C151.273 366.208 151.81 366.74 151.81 367.413Z" fill="black"/>
<path d="M158.871 365.451C158.871 366.214 158.252 366.837 157.489 366.837C156.717 366.837 156.098 366.216 156.098 365.451C156.098 364.687 156.715 364.073 157.489 364.073C158.252 364.075 158.871 364.69 158.871 365.451Z" fill="black"/>
<path d="M97.1935 402.116C97.1935 402.116 106.427 430.888 110.789 435.577C114.317 439.385 116.419 438.214 116.419 438.214C116.419 438.214 129.157 436.64 126.895 438.993C124.626 441.356 116.419 441.384 116.419 441.384C116.419 441.384 130.427 444.938 128.163 446.299C125.905 447.651 114.112 445.451 114.112 445.451C114.112 445.451 128.216 452.495 124.561 452.566C119.49 452.689 107.307 448.16 106.101 445.005C104.887 441.828 91.6797 414.305 88.773 409.153C85.2065 403.177 97.1935 402.116 97.1935 402.116Z" fill="#7DC327"/>
<mask id="mask1" mask-type="alpha" maskUnits="userSpaceOnUse" x="88" y="402" width="41" height="51">
<path d="M97.1935 402.116C97.1935 402.116 106.427 430.888 110.789 435.577C114.317 439.385 116.419 438.214 116.419 438.214C116.419 438.214 129.157 436.64 126.895 438.993C124.626 441.356 116.419 441.384 116.419 441.384C116.419 441.384 130.427 444.938 128.163 446.299C125.905 447.651 114.112 445.451 114.112 445.451C114.112 445.451 128.216 452.495 124.561 452.566C119.49 452.689 107.307 448.16 106.101 445.005C104.887 441.828 91.6797 414.305 88.773 409.153C85.2065 403.177 97.1935 402.116 97.1935 402.116Z" fill="#7DC327"/>
</mask>
<g mask="url(#mask1)">
<path d="M115.311 432.855C115.311 432.855 116.032 437.981 115.771 439.67C115.555 441.072 113.606 444.214 112.851 445.411C112.18 446.467 110.568 448.982 110.568 448.982C110.568 448.982 112.032 453.825 113.058 454.28C114.091 454.74 119.303 458.294 123.635 457.3C127.967 456.31 134.852 455.011 136.816 450.075C138.781 445.143 136.868 435.376 136.868 435.376L124.666 432.133L115.311 432.855Z" fill="#FF0000"/>
</g>
<path d="M144.294 422.594C144.294 423.744 145.23 424.68 146.379 424.68C147.533 424.68 148.467 423.744 148.467 422.594C148.467 421.441 147.533 420.505 146.379 420.505C145.23 420.505 144.294 421.441 144.294 422.594Z" fill="#FD0706"/>
<path d="M147.001 430.615C147.001 431.768 147.935 432.7 149.086 432.7C150.238 432.7 151.176 431.768 151.176 430.615C151.176 429.465 150.238 428.529 149.086 428.529C147.935 428.529 147.001 429.463 147.001 430.615Z" fill="#FD0706"/>
<path d="M144.918 437.707C144.918 438.857 145.849 439.793 147.001 439.793C148.152 439.793 149.088 438.857 149.088 437.707C149.088 436.554 148.152 435.622 147.001 435.622C145.849 435.622 144.918 436.554 144.918 437.707Z" fill="#FD0706"/>
<path d="M125.515 438.085C125.515 439.234 126.447 440.166 127.598 440.166C128.75 440.166 129.686 439.234 129.686 438.085C129.686 436.931 128.75 435.995 127.598 435.995C126.447 435.995 125.515 436.931 125.515 438.085Z" fill="#FD0706"/>
<path d="M126.328 445.734C126.328 446.883 127.259 447.815 128.411 447.815C129.562 447.815 130.498 446.883 130.498 445.734C130.498 444.58 129.562 443.644 128.411 443.644C127.259 443.644 126.328 444.58 126.328 445.734Z" fill="#FD0706"/>
<path d="M122.597 452.171C122.597 453.321 123.531 454.257 124.68 454.257C125.832 454.257 126.768 453.321 126.768 452.171C126.768 451.017 125.832 450.082 124.68 450.082C123.529 450.082 122.597 451.017 122.597 452.171Z" fill="#FD0706"/>
<path d="M125.743 385.769C95.8738 385.769 95.8738 371.278 95.8738 371.278" stroke="black" stroke-width="0.665" stroke-linecap="round"/>
<path d="M43.0485 420.505C52.601 415.967 72.9589 402.427 80.81 412.914C88.6483 423.401 66.4619 449.204 66.4619 449.204C66.4619 449.204 103.52 449.616 101.416 452.094C99.3285 454.574 82.9534 452.961 82.9534 452.961C82.9534 452.961 102.891 456.691 102.35 458.949C101.81 461.216 81.927 456.223 81.927 456.223C81.927 456.223 97.707 465.039 96.0401 466.79C94.3884 468.544 80.3335 461.934 69.1228 458.13C57.9207 454.321 50.4533 459.553 51.2275 454.727C52.0188 449.905 64.8511 436.439 64.8511 436.439C64.8511 436.439 45.0388 447.858 35.2556 447.811C11.1371 447.709 34.2658 424.68 43.0485 420.505Z" fill="#96CE17"/>
<mask id="mask2" mask-type="alpha" maskUnits="userSpaceOnUse" x="24" y="409" width="79" height="59">
<path d="M43.0485 420.505C52.601 415.967 72.9589 402.427 80.81 412.914C88.6483 423.401 66.4619 449.204 66.4619 449.204C66.4619 449.204 103.52 449.616 101.416 452.094C99.3285 454.574 82.9534 452.961 82.9534 452.961C82.9534 452.961 102.891 456.691 102.35 458.949C101.81 461.216 81.927 456.223 81.927 456.223C81.927 456.223 97.707 465.039 96.0401 466.79C94.3884 468.544 80.3335 461.934 69.1228 458.13C57.9207 454.321 50.4533 459.553 51.2275 454.727C52.0188 449.905 64.8511 436.439 64.8511 436.439C64.8511 436.439 45.0388 447.858 35.2556 447.811C11.1371 447.709 34.2658 424.68 43.0485 420.505Z" fill="#96CE17"/>
</mask>
<g mask="url(#mask2)">
<path d="M83.3524 446.758C83.3524 446.758 83.609 451.386 82.9513 452.963C81.7891 455.734 80.7152 457.938 79.8635 459.066C79.1131 460.068 77.2996 462.443 77.2996 462.443C77.2996 462.443 78.3562 467.388 79.346 467.927C80.34 468.466 85.2349 472.438 89.6359 471.806C94.037 471.175 101.006 470.446 103.37 465.69C105.733 460.935 104.633 451.045 104.633 451.045L92.7367 446.808L83.3524 446.758Z" fill="#FF0000"/>
</g>
<path d="M99.193 451.91C99.096 453.06 99.9542 454.063 101.097 454.16C102.249 454.257 103.253 453.4 103.348 452.255C103.443 451.106 102.591 450.099 101.442 450.002C100.295 449.909 99.2857 450.759 99.193 451.91Z" fill="#FD0706"/>
<path d="M99.7971 458.35C99.7044 459.499 100.56 460.506 101.708 460.599C102.85 460.696 103.86 459.84 103.957 458.695C104.052 457.545 103.198 456.538 102.048 456.441C100.903 456.349 99.8963 457.2 99.7971 458.35Z" fill="#FD0706"/>
<path d="M93.7976 466.564C93.7049 467.709 94.5567 468.716 95.7038 468.809C96.8553 468.906 97.858 468.05 97.955 466.905C98.0477 465.755 97.196 464.748 96.0467 464.655C94.9017 464.558 93.8925 465.412 93.7976 466.564Z" fill="#FD0706"/>
<path d="M41.1617 410.708C40.4911 408.497 38.158 407.247 35.9478 407.911C33.7418 408.581 32.4869 410.915 33.1553 413.121C33.8216 415.331 36.1548 416.582 38.365 415.914C40.5752 415.249 41.8259 412.916 41.1617 410.708Z" fill="#FF0000"/>
<path d="M26.3204 417.402C25.9366 416.133 24.5975 415.417 23.3296 415.801C22.066 416.185 21.3501 417.52 21.7339 418.788C22.1178 420.052 23.4482 420.768 24.7161 420.384C25.9819 420.004 26.6999 418.67 26.3204 417.402Z" fill="#FF0000"/>
<path d="M55.2731 399.006C54.9777 398.038 53.9556 397.488 52.9895 397.782C52.0213 398.077 51.4693 399.095 51.769 400.067C52.0558 401.031 53.0779 401.579 54.0483 401.288C55.0165 400.995 55.5599 399.977 55.2731 399.006Z" fill="#FF0000"/>
<path d="M33.1602 422.679C32.8691 421.71 31.847 421.163 30.8766 421.458C29.9084 421.749 29.3607 422.771 29.6561 423.742C29.9516 424.706 30.9694 425.253 31.9354 424.962C32.9057 424.667 33.4534 423.647 33.1602 422.679Z" fill="#FF0000"/>
<path d="M23.9392 406.496C24.4826 408.282 26.3608 409.293 28.1462 408.75C29.9273 408.215 30.9343 406.328 30.3996 404.546C29.8605 402.77 27.9737 401.754 26.1969 402.297C24.4115 402.832 23.4045 404.715 23.9392 406.496Z" fill="#FF0000"/>
<path d="M43.2404 389.261C43.4129 391.115 45.0561 392.483 46.9083 392.306C48.7606 392.136 50.1256 390.488 49.9531 388.633C49.7849 386.783 48.1374 385.42 46.2852 385.593C44.4329 385.763 43.0679 387.408 43.2404 389.261Z" fill="#FF0000"/>
<path d="M29.4093 393.602C29.6163 395.83 31.5872 397.471 33.8147 397.262C36.0421 397.053 37.6766 395.081 37.4696 392.849C37.2626 390.633 35.2874 388.991 33.0599 389.201C30.8368 389.408 29.2001 391.383 29.4093 393.602Z" fill="#FF0000"/>
<path d="M45.1034 400.973C44.7196 399.705 43.3805 398.989 42.1169 399.369C40.849 399.753 40.1331 401.092 40.5169 402.36C40.8964 403.624 42.2355 404.34 43.5034 403.956C44.7649 403.57 45.4808 402.237 45.1034 400.973Z" fill="#FF0000"/>
<mask id="mask3" mask-type="alpha" maskUnits="userSpaceOnUse" x="609" y="61" width="33" height="21">
<path d="M609.754 73.1215C609.754 73.1215 624.791 75.1196 629.568 71.0595C634.348 66.9954 637.061 61.0588 637.061 61.0588L641.151 65.6235C641.151 65.6235 639.474 73.8075 633.008 77.8995C625.253 82.8011 612.373 81.5667 612.373 81.5667L609.754 73.1215Z" fill="#BC0003"/>
</mask>
<g mask="url(#mask3)">
<path d="M609.754 73.1215C609.754 73.1215 624.791 75.1196 629.568 71.0595C634.348 66.9954 637.061 61.0588 637.061 61.0588L641.151 65.6235C641.151 65.6235 639.474 73.8075 633.008 77.8995C625.253 82.8011 612.373 81.5667 612.373 81.5667L609.754 73.1215Z" fill="#BC0003"/>
<path d="M639.328 73.3368C639.328 73.3368 637.259 73.3009 634.223 69.6197C631.185 65.9385 629.994 64.6104 629.994 64.6104L626.785 68.2397C626.785 68.2397 631.875 76.8026 634.639 78.1507C637.406 79.4967 639.328 73.3368 639.328 73.3368Z" fill="#FF0000"/>
<path d="M627.536 82.3604C627.536 82.3604 625.606 81.5927 624.054 77.0839C622.502 72.5671 621.849 70.906 621.849 70.906L617.574 73.1754C617.574 73.1754 619.337 82.9866 621.457 85.2181C623.576 87.4475 627.536 82.3604 627.536 82.3604Z" fill="#FF0000"/>
</g>
<path d="M636.56 58.3967L640.609 65.8329C640.609 65.8329 633.735 65.5716 628.833 58.0297C625.18 52.4142 623.821 43.2411 628.167 34.744C635.458 20.5077 653.728 26.9249 653.728 26.9249L647.107 31.4496L650.075 38.2038L643.882 40.5071L646.706 46.9083L639.474 48.8287L642.286 56.3726L636.56 58.3967Z" fill="#FF0000"/>
<path d="M643.944 63.0292L635.482 63.2306C635.482 63.2306 639.144 69.0675 648.119 69.5461C654.806 69.903 663.429 66.505 668.598 58.4865C677.273 45.0519 662.587 32.4109 662.587 32.4109L661.983 40.4154L654.653 41.2171L655.754 47.74L648.81 48.4878L650.763 55.7166L642.831 57.0567L643.944 63.0292Z" fill="#FF0000"/>
<path d="M491.709 88.391C486.9 90.1219 482.581 92.5049 475.538 99.1215C470.062 104.262 473.221 107.244 478.851 103.774C483.916 100.657 484.998 98.615 490.969 95.901C494.324 94.3695 499.818 93.9088 499.818 93.9088L498.286 87.3062C498.288 87.3062 494.72 87.3061 491.709 88.391Z" fill="#BC0003"/>
<path d="M617.413 87.3499C622.478 87.99 631.597 92.5307 639.659 102.28C644.443 108.067 641.973 110.4 636.344 106.931C631.275 103.814 625.548 97.2389 619.576 94.5249C616.222 92.9974 612.919 94.0702 612.919 94.0702L614.315 87.3479C614.317 87.3499 616.644 87.2522 617.413 87.3499Z" fill="#BC0003"/>
<path d="M612.266 97.2827C612.266 97.2827 617.288 98.9957 621.128 102.731C626.018 107.491 631.353 116.798 629.423 119.216C627.496 121.637 622.684 113.774 619.198 109.912C615.712 106.049 608.537 102.964 608.537 102.964L612.266 97.2827Z" fill="#BC0003"/>
<path d="M602.543 106.416C602.543 106.416 605.543 108.737 608.539 112.081C612.36 116.343 616.115 125.006 614.609 127.169C613.107 129.337 609.348 122.295 606.625 118.838C603.906 115.38 598.96 110.476 598.96 110.476L602.543 106.416Z" fill="#BC0003"/>
<path d="M499.729 97.2827C499.729 97.2827 494.711 98.9957 490.873 102.731C485.979 107.489 480.64 116.798 482.572 119.216C484.501 121.637 489.315 113.77 492.801 109.912C496.287 106.045 503.458 102.964 503.458 102.964L499.729 97.2827Z" fill="#BC0003"/>
<path d="M509.455 106.416C509.455 106.416 506.455 108.733 503.457 112.081C499.638 116.343 495.88 125.006 497.39 127.169C498.892 129.337 502.654 122.295 505.373 118.838C508.092 115.376 513.038 110.476 513.038 110.476L509.455 106.416Z" fill="#BC0003"/>
<path d="M551.199 53.1998C574.688 52.4221 588.341 56.5679 604.984 67.6495C619.467 77.2912 618.138 97.3365 602.123 108.94C588.616 118.724 566.284 121.201 531.053 116.221C497.148 111.435 494.403 94.096 494.682 84.0135C494.961 73.9271 500.56 54.8809 551.199 53.1998Z" fill="#FF0000"/>
<path d="M540.407 34.6322C540.407 43.6119 534.065 48.717 525.099 48.717C516.133 48.717 509.791 42.6826 509.791 33.703C509.791 24.7292 517.062 19.3071 526.025 19.3071C534.989 19.3091 540.407 25.6545 540.407 34.6322Z" fill="#FF0000"/>
<path d="M535.354 34.429C535.354 40.4414 531.105 43.8633 525.103 43.8633C519.096 43.8633 514.845 39.8212 514.845 33.8028C514.845 27.7924 519.715 24.165 525.723 24.165C531.722 24.165 535.354 28.4126 535.354 34.429Z" fill="white"/>
<path d="M588.971 25.7484C594.008 21.778 603.478 21.5407 610.177 27.5012C616.153 32.8197 616.953 41.4703 611.519 47.728C605.637 54.5001 597.307 55.587 589.249 50.117C581.831 45.0837 581.929 31.3101 588.971 25.7484Z" fill="#FF0000"/>
<path d="M592.811 30.1815C596.04 27.633 602.346 27.2342 606.412 31.3062C610.477 35.3743 610.877 39.7854 607.272 44.2782C603.669 48.7671 598.153 49.3215 592.986 45.8137C588.227 42.5832 588.289 33.7491 592.811 30.1815Z" fill="white"/>
<path d="M526.069 50.2008L528.467 58.6102L537.267 56.2092C537.267 56.2092 535.24 51.1819 534.867 48.7171C534.493 46.2603 533.869 43.3967 533.869 43.3967L525.099 44.5972L526.069 50.2008Z" fill="#FF0000"/>
<path d="M585.766 59.4197C585.766 59.4197 587.77 57.4196 589.967 53.6167C592.168 49.8119 593.164 47.5286 593.164 47.5286L599.673 51.0024C599.673 51.0024 598.14 55.8462 596.261 58.6081C594.387 61.372 593.164 64.8139 593.164 64.8139L585.766 59.4197Z" fill="#FF0000"/>
<mask id="mask4" mask-type="alpha" maskUnits="userSpaceOnUse" x="467" y="58" width="33" height="22">
<path d="M499.124 71.2928C499.124 71.2928 484.059 73.0695 479.342 68.9317C474.625 64.7978 471.996 58.8213 471.996 58.8213L467.843 63.3221C467.843 63.3221 469.398 71.534 475.803 75.7218C483.479 80.7411 496.375 79.7041 496.375 79.7041L499.124 71.2928Z" fill="#BC0003"/>
</mask>
<g mask="url(#mask4)">
<path d="M499.124 71.2928C499.124 71.2928 484.059 73.0695 479.342 68.9317C474.625 64.7978 471.996 58.8213 471.996 58.8213L467.843 63.3221C467.843 63.3221 469.398 71.534 475.803 75.7218C483.479 80.7411 496.375 79.7041 496.375 79.7041L499.124 71.2928Z" fill="#BC0003"/>
<path d="M469.544 71.0672C469.544 71.0672 471.618 71.0632 474.707 67.4279C477.797 63.7925 479.01 62.4844 479.01 62.4844L482.167 66.1556C482.167 66.1556 476.948 74.6447 474.163 75.9489C471.377 77.2571 469.544 71.0672 469.544 71.0672Z" fill="#FF0000"/>
<path d="M481.209 80.2644C481.209 80.2644 483.145 79.5305 484.761 75.0417C486.382 70.5508 487.063 68.8997 487.063 68.8997L491.304 71.2328C491.304 71.2328 489.394 81.0142 487.239 83.2137C485.091 85.4133 481.209 80.2644 481.209 80.2644Z" fill="#FF0000"/>
</g>
<path d="M470.276 56.3387L466.896 64.1079C466.896 64.1079 473.726 63.2345 477.939 55.2877C481.075 49.3651 481.62 40.1062 476.537 32.0339C468.009 18.5035 450.381 26.522 450.381 26.522L457.381 30.4365L455.018 37.4321L461.39 39.1749L459.147 45.8015L466.522 47.0698L464.394 54.8351L470.276 56.3387Z" fill="#FF0000"/>
<path d="M462.608 63.2824L470.864 61.4239C470.864 61.4239 468.725 67.9747 460.136 70.615C453.733 72.5892 444.549 71.3807 437.583 64.8598C425.916 53.9338 437.097 38.1062 437.097 38.1062L439.619 45.7279L446.931 44.7188L447.443 51.3155L454.365 50.3543L454.222 57.8484L462.239 57.2182L462.608 63.2824Z" fill="#FF0000"/>
<path d="M527.471 36.2257C527.471 37.7911 526.341 38.4392 525.122 38.4392C523.901 38.4392 522.911 37.4481 522.911 36.2257C522.911 35.0013 523.901 34.0122 525.122 34.0122C526.341 34.0122 527.471 35.0013 527.471 36.2257Z" fill="black"/>
<path d="M601.954 38.4393C601.954 40.0048 600.823 40.6489 599.604 40.6489C598.383 40.6489 597.391 39.6578 597.391 38.4393C597.391 37.2149 598.383 36.2258 599.604 36.2258C600.821 36.2258 601.954 37.2149 601.954 38.4393Z" fill="black"/>
<mask id="mask5" mask-type="alpha" maskUnits="userSpaceOnUse" x="537" y="74" width="33" height="23">
<path d="M537.268 75.399C537.268 75.399 543.506 83.2061 553.147 83.0366C562.406 82.8751 569.027 74.8865 569.027 74.8865C569.027 74.8865 567.3 96.2878 553.886 96.2878C538.925 96.2878 537.268 75.399 537.268 75.399Z" fill="white"/>
</mask>
<g mask="url(#mask5)">
<path d="M537.268 75.399C537.268 75.399 543.506 83.2061 553.147 83.0366C562.406 82.8751 569.027 74.8865 569.027 74.8865C569.027 74.8865 567.3 96.2878 553.886 96.2878C538.925 96.2878 537.268 75.399 537.268 75.399Z" fill="white"/>
<path d="M542.832 78.9805L542.265 92.6564" stroke="black" stroke-width="0.8"/>
<path d="M560.315 80.9805L562.274 93.6872" stroke="black" stroke-width="0.8"/>
<path d="M551.583 82.7415L551.194 96.7504" stroke="black" stroke-width="0.8"/>
</g>
<path d="M110.279 77.9254C107.546 69.4031 105.159 45.5948 85.9689 23.0189C67.0552 0.772542 42.3909 -8.56436 45.6165 9.63138C48.8439 27.8254 78.3164 56.2141 92.2682 71.9453C98.0464 78.4621 112.299 84.223 110.279 77.9254Z" fill="#BAB4A0"/>
<path d="M102.404 77.9669C102.404 77.9669 98.1259 57.5155 86.7663 50.3221C75.4118 43.1322 65.0895 42.7974 65.0895 42.7974" stroke="white" stroke-width="0.523"/>
<path d="M78.6758 28.9543C78.6758 28.9543 77.6109 32.929 77.3693 37.1574C77.1277 41.3857 78.1028 45.8522 78.1028 45.8522" stroke="white" stroke-width="0.523"/>
<path d="M91.286 54.2176C91.286 54.2176 92.3681 45.6953 94.4823 41.6465C96.5965 37.5976 98.3379 36.0288 98.3379 36.0288" stroke="white" stroke-width="0.523"/>
<path d="M99.5459 68.6059C99.5459 68.6059 91.443 63.4146 87.741 63.1919L84.0391 62.9641" stroke="white" stroke-width="0.523"/>
<path d="M77.4385 36.2405C77.4385 36.2405 70.428 28.5846 61.7797 25.9026C55.7375 24.0317 52.203 24.6669 52.203 24.6669" stroke="white" stroke-width="0.523"/>
<path d="M94.875 40.916C94.875 40.916 85.2223 36.0819 78.6761 28.9524C69.8966 19.3842 69.957 5.73267 69.957 5.73267" stroke="white" stroke-width="0.523"/>
<path d="M62.251 26.0599C62.251 26.0599 57.9657 17.5135 59.714 8.28877C60.948 1.80127 61.6107 1.96522 61.6107 1.96522" stroke="white" stroke-width="0.523"/>
<path d="M97.3568 63.9063C97.3568 63.9063 102.583 57.6484 105.465 56.5749C108.356 55.4997 107.572 56.1106 107.572 56.1106" stroke="white" stroke-width="0.523"/>
<path d="M65.6325 108.98C67.1564 120.559 67.027 119.845 67.2134 124.202C67.2238 124.577 72.8708 124.185 72.5705 124.202" stroke="black" stroke-width="0.784" stroke-linecap="round"/>
<path d="M85.2609 105.203C86.7866 116.781 86.6571 116.07 86.8384 120.425C86.8556 120.803 92.4974 120.411 92.2006 120.425" stroke="black" stroke-width="0.784" stroke-linecap="round"/>
<path d="M104.203 103.915C108.736 114.67 108.421 114.02 109.751 118.17C109.869 118.531 115.212 116.66 114.925 116.752" stroke="black" stroke-width="0.784" stroke-linecap="round"/>
<path d="M134.865 60.5028C142.546 68.3934 146.623 84.5095 141.235 93.3286C130.457 110.969 109.764 104.951 109.764 104.951C109.764 104.951 90.2823 112.437 74.1093 113.418C57.9414 114.401 44.7144 116.845 47.1669 100.191C49.6141 83.5292 56.4761 63.4419 74.1093 60.0109C91.7493 56.5816 97.5361 60.9912 97.5361 60.9912C97.5361 60.9912 117.23 42.3709 134.865 60.5028Z" fill="#2A773A"/>
<path d="M126.876 64.8361C130.837 65.9631 133.819 62.5943 133.819 58.3055C133.819 54.015 128.982 50.6323 124.94 51.4262C119.044 52.5912 117.546 62.1835 126.876 64.8361Z" fill="white"/>
<path d="M133.769 59.2411C133.816 58.8804 133.819 58.6802 133.819 58.3056C133.819 54.0169 128.982 50.6325 124.94 51.4281C123.766 51.6594 122.919 52.0787 122.146 52.8588" stroke="#CCCCB8" stroke-width="0.251" stroke-linecap="round"/>
<path d="M106.664 60.6511C103.962 58.5197 98.6805 58.1797 95.2719 61.5883C91.8651 64.9951 92.2655 69.598 95.2805 73.35C98.2973 77.1072 104.659 78.0892 108.53 73.4001C112.025 69.17 110.451 63.63 106.664 60.6511Z" fill="white"/>
<path d="M127.3 57.4667C127.3 58.5885 128.072 59.0545 128.905 59.0545C129.741 59.0545 130.412 58.3452 130.412 57.4667C130.412 56.59 129.741 55.8789 128.905 55.8789C128.074 55.8789 127.3 56.59 127.3 57.4667Z" fill="black"/>
<path d="M102.151 67.0319C102.151 68.2314 103.017 68.7285 103.955 68.7285C104.89 68.7285 105.649 67.9725 105.649 67.0319C105.649 66.0982 104.89 65.3389 103.955 65.3389C103.017 65.3371 102.151 66.0982 102.151 67.0319Z" fill="black"/>
<path d="M126.792 72.0264C130.638 70.5698 139.406 69.2426 141.737 67.4857C143.23 66.3569 142.241 64.7019 143.936 63.5628C146.463 61.868 149.523 63.259 151.309 67.7394C152.906 71.7434 151.68 75.114 148.204 75.5368C144.891 75.9372 144.706 73.0792 142.899 72.9377C140.911 72.784 131.434 76.2548 129.22 77.5233C127.572 78.469 125.385 72.5614 126.792 72.0264Z" fill="#41AA54"/>
<path d="M131.1 81.9377C131.1 81.9377 130.011 84.3453 128.176 84.6991C125.829 85.1513 124.584 83.3167 124.584 83.3167" stroke="black" stroke-width="0.8" stroke-linecap="round"/>
<path d="M89.2822 61.6675C89.2822 61.6675 87.1957 77.4228 93.5762 92.7761C97.2574 101.628 100.992 104.779 100.992 104.779" stroke="#41AA54" stroke-width="0.677"/>
<path d="M53.8198 83.6465C53.8198 83.6465 53.756 96.1987 61.2203 103.494C66.3099 108.476 71.8965 111.728 71.8965 111.728" stroke="#41AA54" stroke-width="0.677"/>
<path d="M70.338 64.6807C70.338 64.6807 67.5991 77.6039 73.9831 92.952C77.6643 101.811 87.4258 109.408 87.4258 109.408" stroke="#41AA54" stroke-width="0.677"/>
<path d="M91.2945 62.8982C85.2609 56.2933 73.7218 36.9326 46.8709 24.4132C20.4066 12.0751 -8.27551 15.349 2.24015 30.54C12.7593 45.7362 51.3823 59.2532 70.6239 67.7392C78.5905 71.2513 95.7576 67.7789 91.2945 62.8982Z" fill="#CCCCB8"/>
<path d="M82.3477 68.9872C82.3477 68.9872 69.9336 52.1791 56.6082 50.3755C43.2932 48.5703 33.7716 52.5691 33.7716 52.5691" stroke="white" stroke-width="0.523"/>
<path d="M40.3488 34.3235C40.3488 34.3235 41.0375 38.3793 42.5804 42.3246C44.1267 46.2699 46.8691 49.9253 46.8691 49.9253" stroke="white" stroke-width="0.523"/>
<path d="M62.3457 52.029C62.3457 52.029 59.7724 43.8329 60.0089 39.2732C60.2402 34.7117 61.1721 32.5596 61.1721 32.5596" stroke="white" stroke-width="0.523"/>
<path d="M75.8447 61.6679C75.8447 61.6679 66.3197 60.3304 62.8594 61.6679L59.4007 63.0038" stroke="white" stroke-width="0.523"/>
<path d="M42.2588 41.4631C42.2588 41.4631 32.6958 37.428 23.7144 38.5981C17.4444 39.4145 14.4966 41.4631 14.4966 41.4631" stroke="white" stroke-width="0.523"/>
<path d="M60.0693 38.2946C60.0693 38.2946 49.2689 38.0754 40.3479 34.3234C28.3739 29.2874 22.7442 16.8525 22.7442 16.8525" stroke="white" stroke-width="0.523"/>
<path d="M24.2119 38.5416C24.2119 38.5416 16.7528 32.5598 14.4971 23.4438C12.9127 17.0357 13.5858 16.9062 13.5858 16.9062" stroke="white" stroke-width="0.523"/>
<path d="M71.8979 58.3076C71.8979 58.3076 74.038 50.4411 76.2143 48.2631C78.3923 46.0868 77.9333 46.9704 77.9333 46.9704" stroke="white" stroke-width="0.523"/>
<path d="M643.479 368.097L643.059 357.563C643.059 357.563 651.029 358.255 653.8 352.223C655.818 347.825 654.785 338.712 648.913 336.216C643.04 333.724 630.347 336.111 631.401 346.329C632.328 355.299 639.092 357.02 639.092 357.02L638.692 367.066L643.479 368.097Z" fill="#7DC32A"/>
<path d="M627.466 371.107L620.606 362.396C620.606 362.396 626.075 355.617 622.939 349.311C619.808 343.005 614.189 340.985 609.717 341.886C605.245 342.782 597.713 349.088 599.44 356.144C601.196 363.33 605.402 366.299 609.874 366.599C614.347 366.901 616.607 365.673 616.607 365.673L623.591 374.109L627.466 371.107Z" fill="#7DC32A"/>
<path d="M471.93 421.487C471.93 421.487 468.053 433.495 486.537 433.495C505.024 433.495 589.103 428.693 601.329 422.985C613.552 417.281 616.535 413.076 618.023 402.864C619.516 392.658 613.554 366.236 631.444 364.132C649.331 362.03 660.963 368.035 658.576 396.264C656.193 424.487 646.056 431.393 635.616 438.603C625.182 445.808 609.68 448.214 568.83 450.014C527.981 451.816 527.685 451.216 510.69 450.014C493.694 448.812 475.132 445.511 471.59 438.303C468.053 431.097 471.93 421.487 471.93 421.487Z" fill="#7DC328"/>
<path d="M648.088 368.167C648.088 370.317 649.751 372.06 651.807 372.06C653.862 372.06 655.53 370.317 655.53 368.167C655.53 366.021 653.862 364.28 651.807 364.28C649.751 364.28 648.088 366.021 648.088 368.167Z" fill="#F989B8"/>
<mask id="mask6" mask-type="alpha" maskUnits="userSpaceOnUse" x="484" y="327" width="118" height="109">
<path d="M591.79 353.372C573.156 324.835 502.328 307.892 485.94 371.039C480.636 391.494 496.325 430.171 513.966 434.204C531.615 438.239 572.279 432.608 579.266 429.893C597.033 422.985 611.958 384.277 591.79 353.372Z" fill="#9B3403"/>
</mask>
<g mask="url(#mask6)">
<path d="M591.79 353.372C573.156 324.835 502.328 307.892 485.94 371.039C480.636 391.494 496.325 430.171 513.966 434.204C531.615 438.239 572.279 432.608 579.266 429.893C597.033 422.985 611.958 384.277 591.79 353.372Z" fill="#9B3403"/>
<path d="M568.289 378.987C568.691 379.204 599.186 363.753 599.186 363.753L608.743 397.867L571.831 399.584C571.831 399.584 572.536 394.27 571.248 388.028C570.765 385.7 568.289 378.987 568.289 378.987Z" fill="#6A2403"/>
<path d="M540.517 358.835C540.928 358.632 547.378 325.332 547.378 325.332L578.149 335.241L556.866 365.831C556.866 365.831 552.712 363.181 550.78 362.34C548.614 361.393 540.517 358.835 540.517 358.835Z" fill="#6A2403"/>
<path d="M515.007 371.19C514.969 370.744 487.471 349.948 487.471 349.948L506.412 327.688L525.974 359.258C525.974 359.258 521.273 362.417 519.926 363.737C516.906 366.702 515.007 371.19 515.007 371.19Z" fill="#6A2403"/>
<path d="M517.614 400.065C517.203 399.895 487.236 414.058 487.236 414.058L476.383 388.454L513.211 385.562C513.211 385.562 513.86 390.892 514.365 392.601C514.94 394.554 517.614 400.065 517.614 400.065Z" fill="#6A2403"/>
<path d="M540.102 408.243C539.817 408.572 544.635 440.486 544.635 440.486L515.741 443.277L526.815 408.44C526.815 408.44 530.328 409.601 531.545 409.59C537.136 409.539 540.102 408.243 540.102 408.243Z" fill="#6A2403"/>
<path d="M547.55 393.525C547.828 393.86 571.829 399.923 571.829 399.923C571.829 399.923 569.27 407.527 567.896 410.928C566.576 414.188 562.477 421.376 562.477 421.376L544.065 404.199C544.065 404.199 545.585 402.231 546.892 398.772C547.371 397.493 547.55 393.525 547.55 393.525Z" fill="#6A2403"/>
<path d="M540.428 382.583C540.828 382.445 557.445 366.102 557.445 366.102C557.445 366.102 561.565 369.943 563.277 371.834C564.926 373.652 567.903 378.582 567.903 378.582L546.276 388.269C546.276 388.269 544.973 385.729 544.306 385.074C542.374 383.182 540.428 382.583 540.428 382.583Z" fill="#6A2403"/>
<path d="M531.735 382.646C531.821 382.241 527.001 359.954 527.001 359.954C527.001 359.954 529.635 358.535 533.514 358.262C535.517 358.122 540 358.583 540 358.583L537.469 381.718H535.131C533.128 381.718 531.735 382.646 531.735 382.646Z" fill="#6A2403"/>
<path d="M529.34 388.008C529.093 387.819 513.213 385.56 513.213 385.56C513.213 385.56 512.635 380.592 513.063 378.602C513.478 376.701 514.322 372.244 514.322 372.244L530.654 383.462C530.654 383.462 529.62 384.601 529.463 385.078C529.037 386.348 529.34 388.008 529.34 388.008Z" fill="#6A2403"/>
<path d="M534.812 392.716C534.584 392.864 526.217 407.451 526.217 407.451C526.217 407.451 523.254 405.583 521.765 404.629C520.333 403.709 517.61 400.203 517.61 400.203L531.197 391.376C531.197 391.376 532.075 392.196 532.351 392.335C532.967 392.65 534.812 392.716 534.812 392.716Z" fill="#6A2403"/>
</g>
<path d="M604.185 354.901C604.185 358.908 607.468 362.628 612.054 362.314C616.122 362.034 619.438 359.061 619.438 355.056C619.438 351.043 616.131 347.487 612.054 347.487C607.978 347.487 604.185 350.888 604.185 354.901Z" fill="white"/>
<path d="M635.601 344.954C634.788 348.79 637.173 353.027 641.627 353.668C645.571 354.244 649.353 352.081 650.166 348.249C650.98 344.411 648.536 340.323 644.637 339.484C640.737 338.642 636.415 341.118 635.601 344.954Z" fill="white"/>
<path d="M640.759 346.075C640.476 347.411 641.317 348.166 642.347 348.389C643.38 348.612 644.396 347.947 644.614 346.907C644.837 345.867 644.181 344.842 643.146 344.621C642.115 344.398 640.978 345.035 640.759 346.075Z" fill="black"/>
<path d="M609.043 355.192C609.043 356.552 610.02 357.114 611.077 357.114C612.133 357.114 612.992 356.252 612.992 355.192C612.992 354.124 612.133 353.265 611.077 353.265C610.02 353.265 609.043 354.124 609.043 355.192Z" fill="black"/>
<mask id="mask7" mask-type="alpha" maskUnits="userSpaceOnUse" x="628" y="372" width="23" height="21">
<path d="M649.582 372.793C649.582 372.793 647.696 379.395 639.9 381.565C632.416 383.649 628.887 378.053 628.887 378.053C628.887 378.053 631.665 395.674 642.452 392.466C654.482 388.882 649.582 372.793 649.582 372.793Z" fill="white"/>
</mask>
<g mask="url(#mask7)">
<path d="M649.582 372.793C649.582 372.793 647.696 379.395 639.9 381.565C632.416 383.649 628.887 378.053 628.887 378.053C628.887 378.053 631.665 395.674 642.452 392.466C654.482 388.882 649.582 372.793 649.582 372.793Z" fill="white"/>
<path d="M647.235 375.817L650.935 386.744" stroke="black" stroke-width="0.8"/>
<path d="M633.72 379.826L635.089 392.365" stroke="black" stroke-width="0.8"/>
<path d="M641.092 380.949L644.726 392.19" stroke="black" stroke-width="0.8"/>
</g>
<path d="M620.02 377.427C620.02 379.577 621.688 381.315 623.743 381.315C625.799 381.315 627.466 379.577 627.466 377.427C627.466 375.278 625.799 373.538 623.743 373.538C621.688 373.538 620.02 375.278 620.02 377.427Z" fill="#F989B8"/>
</svg>
