<svg width="682" height="385" viewBox="0 0 682 385" fill="none" xmlns="http://www.w3.org/2000/svg">
<path d="M1.00291 112.492L82.5146 20.8954L164.886 20.1157L329.629 18.5564L494.371 16.9971L576.742 16.2174L659.973 106.255L660.833 197.072L662.552 378.706L3.58173 384.943L1.86252 203.309L1.00291 112.492Z" fill="#282727" fill-opacity="0.3"/>
<path d="M2.39831 99.2661L86.0167 5.72049L170.513 4.92071L339.505 3.32116L508.498 1.72161L592.994 0.92183L678.368 92.8679L679.246 185.614L681.002 371.105L5.03189 377.504L3.27617 192.012L2.39831 99.2661Z" fill="#E2CEA2"/>
<rect x="302.507" y="3.67139" width="74" height="63" transform="rotate(-0.542302 302.507 3.67139)" fill="#815849" fill-opacity="0.7"/>
<circle cx="340.558" cy="32.7731" r="15.6661" transform="rotate(2.44279 340.558 32.7731)" fill="#BAC1BB"/>
<circle cx="340.302" cy="38.7929" r="15.6661" transform="rotate(2.44279 340.302 38.7929)" fill="white"/>
</svg>
