<svg width="198" height="147" viewBox="0 0 198 147" fill="none" xmlns="http://www.w3.org/2000/svg">
<path d="M177.479 56.0971L177.059 45.5628C177.059 45.5628 185.029 46.2549 187.8 40.2229C189.818 35.8255 188.785 26.7122 182.913 24.2162C177.04 21.7239 164.347 24.1113 165.401 34.329C166.328 43.2987 173.092 45.0197 173.092 45.0197L172.692 55.0663L177.479 56.0971Z" fill="#7DC32A"/>
<path d="M161.466 59.1066L154.606 50.3964C154.606 50.3964 160.075 43.6171 156.939 37.3109C153.808 31.0047 148.189 28.9854 143.717 29.8855C139.245 30.7819 131.713 37.0882 133.44 44.1436C135.196 51.3296 139.402 54.2987 143.874 54.5987C148.347 54.9006 150.607 53.6729 150.607 53.6729L157.591 62.1088L161.466 59.1066Z" fill="#7DC32A"/>
<path d="M5.92961 109.487C5.92961 109.487 2.05307 121.495 20.5366 121.495C39.0237 121.495 123.103 116.693 135.329 110.985C147.552 105.281 150.535 101.076 152.023 90.8643C153.516 80.6576 147.554 54.2362 165.444 52.1323C183.331 50.0302 194.963 56.0346 192.576 84.2635C190.193 112.487 180.056 119.393 169.616 126.603C159.182 133.808 143.68 136.214 102.83 138.014C61.9814 139.816 61.6854 139.216 44.6896 138.014C27.6938 136.812 9.13174 133.511 5.58966 126.303C2.05307 119.097 5.92961 109.487 5.92961 109.487Z" fill="#7DC328"/>
<path d="M182.088 56.1671C182.088 58.317 183.751 60.0602 185.807 60.0602C187.862 60.0602 189.53 58.317 189.53 56.1671C189.53 54.0208 187.862 52.2795 185.807 52.2795C183.751 52.2795 182.088 54.0208 182.088 56.1671Z" fill="#F989B8"/>
<mask id="mask0" mask-type="alpha" maskUnits="userSpaceOnUse" x="18" y="15" width="118" height="109">
<path d="M125.79 41.3715C107.156 12.8352 36.3276 -4.10845 19.9405 59.0385C14.6365 79.4942 30.3255 118.171 47.9664 122.204C65.6147 126.239 106.279 120.608 113.266 117.893C131.033 110.985 145.958 72.2768 125.79 41.3715Z" fill="#9B3403"/>
</mask>
<g mask="url(#mask0)">
<path d="M125.79 41.3715C107.156 12.8352 36.3276 -4.10845 19.9405 59.0385C14.6365 79.4942 30.3255 118.171 47.9664 122.204C65.6147 126.239 106.279 120.608 113.266 117.893C131.033 110.985 145.958 72.2768 125.79 41.3715Z" fill="#9B3403"/>
<path d="M102.289 66.9868C102.691 67.204 133.186 51.7532 133.186 51.7532L142.743 85.8668L105.831 87.5842C105.831 87.5842 106.536 82.2701 105.248 76.0283C104.765 73.6998 102.289 66.9868 102.289 66.9868Z" fill="#6A2403"/>
<path d="M74.5171 46.8348C74.9283 46.6323 81.3783 13.3323 81.3783 13.3323L112.149 23.2408L90.8659 53.8313C90.8659 53.8313 86.7115 51.1807 84.7796 50.3395C82.6138 49.3934 74.5171 46.8348 74.5171 46.8348Z" fill="#6A2403"/>
<path d="M49.0074 59.1897C48.9691 58.7442 21.4713 37.948 21.4713 37.948L40.4118 15.6885L59.9736 47.2583C59.9736 47.2583 55.2728 50.4169 53.9258 51.7367C50.9064 54.7021 49.0074 59.1897 49.0074 59.1897Z" fill="#6A2403"/>
<path d="M51.6143 88.0646C51.203 87.8953 21.2361 102.058 21.2361 102.058L10.3832 76.4535L47.2113 73.5618C47.2113 73.5618 47.8602 78.8924 48.3646 80.6006C48.9403 82.5536 51.6143 88.0646 51.6143 88.0646Z" fill="#6A2403"/>
<path d="M74.1021 96.2429C73.8169 96.5724 78.6348 128.486 78.6348 128.486L49.7407 131.277L60.8147 96.4399C60.8147 96.4399 64.3275 97.6014 65.5448 97.5903C71.1357 97.5388 74.1021 96.2429 74.1021 96.2429Z" fill="#6A2403"/>
<path d="M81.55 81.5247C81.8278 81.8597 105.829 87.9229 105.829 87.9229C105.829 87.9229 103.27 95.5269 101.896 98.9285C100.576 102.188 96.4768 109.376 96.4768 109.376L78.0645 92.1989C78.0645 92.1989 79.5852 90.2312 80.892 86.7725C81.3709 85.4932 81.55 81.5247 81.55 81.5247Z" fill="#6A2403"/>
<path d="M74.4275 70.5834C74.8278 70.4454 91.4452 54.1018 91.4452 54.1018C91.4452 54.1018 95.5649 57.9433 97.2774 59.8337C98.926 61.6524 101.903 66.5817 101.903 66.5817L80.2762 76.2693C80.2762 76.2693 78.973 73.7292 78.3059 73.0739C76.374 71.1817 74.4275 70.5834 74.4275 70.5834Z" fill="#6A2403"/>
<path d="M65.7352 70.646C65.8211 70.2411 61.0014 47.9539 61.0014 47.9539C61.0014 47.9539 63.6351 46.5347 67.5135 46.2623C69.5167 46.1224 74 46.5826 74 46.5826L71.4686 69.7183H69.131C67.1279 69.7183 65.7352 70.646 65.7352 70.646Z" fill="#6A2403"/>
<path d="M63.3402 76.0081C63.0934 75.8185 47.2126 73.56 47.2126 73.56C47.2126 73.56 46.635 68.5919 47.0627 66.6021C47.4776 64.7007 48.322 60.2444 48.322 60.2444L64.6543 71.4616C64.6543 71.4616 63.6198 72.601 63.4626 73.0777C63.0368 74.3478 63.3402 76.0081 63.3402 76.0081Z" fill="#6A2403"/>
<path d="M68.8125 80.7165C68.584 80.8637 60.2168 95.4513 60.2168 95.4513C60.2168 95.4513 57.2542 93.583 55.7646 92.6295C54.3335 91.7091 51.6102 88.2026 51.6102 88.2026L65.1973 79.3765C65.1973 79.3765 66.0746 80.1956 66.3506 80.3355C66.9665 80.6502 68.8125 80.7165 68.8125 80.7165Z" fill="#6A2403"/>
</g>
<path d="M138.185 42.9012C138.185 46.9084 141.468 50.6284 146.054 50.3136C150.122 50.0339 153.438 47.0611 153.438 43.0558C153.438 39.043 150.131 35.4868 146.054 35.4868C141.978 35.4868 138.185 38.8884 138.185 42.9012Z" fill="white"/>
<path d="M169.601 32.9541C168.788 36.7901 171.173 41.0274 175.627 41.668C179.571 42.2441 183.353 40.0813 184.166 36.249C184.98 32.4111 182.536 28.3229 178.637 27.4836C174.737 26.6424 170.415 29.1181 169.601 32.9541Z" fill="white"/>
<path d="M174.759 34.0751C174.476 35.4115 175.317 36.1662 176.347 36.3889C177.38 36.6116 178.396 35.9471 178.614 34.9071C178.837 33.8671 178.181 32.8419 177.146 32.621C176.115 32.3983 174.978 33.0351 174.759 34.0751Z" fill="black"/>
<path d="M143.043 43.1919C143.043 44.5521 144.02 45.1135 145.077 45.1135C146.133 45.1135 146.992 44.2521 146.992 43.1919C146.992 42.1243 146.133 41.2646 145.077 41.2646C144.02 41.2646 143.043 42.1243 143.043 43.1919Z" fill="black"/>
<mask id="mask1" mask-type="alpha" maskUnits="userSpaceOnUse" x="162" y="60" width="23" height="21">
<path d="M183.582 60.7927C183.582 60.7927 181.696 67.3953 173.9 69.5655C166.416 71.6492 162.887 66.0534 162.887 66.0534C162.887 66.0534 165.665 83.6744 176.452 80.4661C188.482 76.8823 183.582 60.7927 183.582 60.7927Z" fill="white"/>
</mask>
<g mask="url(#mask1)">
<path d="M183.582 60.7927C183.582 60.7927 181.696 67.3953 173.9 69.5655C166.416 71.6492 162.887 66.0534 162.887 66.0534C162.887 66.0534 165.665 83.6744 176.452 80.4661C188.482 76.8823 183.582 60.7927 183.582 60.7927Z" fill="white"/>
<path d="M181.235 63.8171L184.935 74.7435" stroke="black" stroke-width="0.8"/>
<path d="M167.72 67.8262L169.089 80.365" stroke="black" stroke-width="0.8"/>
<path d="M175.092 68.949L178.726 80.1901" stroke="black" stroke-width="0.8"/>
</g>
<path d="M154.02 65.4275C154.02 67.5774 155.688 69.315 157.743 69.315C159.799 69.315 161.466 67.5774 161.466 65.4275C161.466 63.2775 159.799 61.5381 157.743 61.5381C155.688 61.5381 154.02 63.2775 154.02 65.4275Z" fill="#F989B8"/>
</svg>
