<?xml version="1.0" encoding="utf-8"?>
<!-- Generator: Adobe Illustrator 26.5.0, SVG Export Plug-In . SVG Version: 6.00 Build 0)  -->
<svg version="1.1" id="Capa_1" xmlns="http://www.w3.org/2000/svg" xmlns:xlink="http://www.w3.org/1999/xlink" x="0px" y="0px"
	 viewBox="0 0 242 260.7" style="enable-background:new 0 0 242 260.7;" xml:space="preserve">
<style type="text/css">
	.st0{fill:#40403C;fill-opacity:0.4;}
	.st1{fill:#FF0000;}
	.st2{fill:#DDCB9F;}
	.st3{fill:#389789;}
	.st4{fill-rule:evenodd;clip-rule:evenodd;}
	.st5{fill:#FF8000;}
	.st6{fill:#AA61A5;}
	.st7{fill:none;stroke:#000000;stroke-width:0.5;stroke-linecap:round;}
	.st8{fill:#D45820;}
	.st9{fill:#B23D13;}
	.st10{fill-rule:evenodd;clip-rule:evenodd;fill:#FFFFFF;}
	.st11{fill:#41AA54;}
	.st12{fill-rule:evenodd;clip-rule:evenodd;fill:#FF0000;}
</style>
<path class="st0" d="M142,246.4c3.6-1.1,8-1,12.3-1.5c1-0.2,2.3-0.3,3-1l-3.2-0.6c-2.1-0.4-4.3-0.5-6.4-0.6c-1,0,0.4-0.7-1.8-0.7
	c-8.1,0.2-20.5-0.6-30.2-1.1l0.6-0.2c-1.9-0.1-4.1,0.6-6,0.6c0-0.1,0.6-0.2,0.1-0.4c-0.5,0.4-3.5,0.3-4.3,0.7
	c-0.8-0.1-0.7-0.4-1.8-0.6l-1.1,0.5c-3,1.3-7.6,0.4-11.7,1.3c0.2-0.1,0.6-0.2,0.2-0.3c-6.7,1.2-15.1,2-22.5,3.5
	c0.2-0.2,0.4-0.5-0.1-0.6c-0.2,0.5-2.5,1-4.4,1.5c-1.1-0.3-3.2,1.1-5.5,1.4l0.1-0.2c-1.4,0.9-2.6,0.4-3.5,1.4l-1.2,0
	c0.2,0.6-3.7,0.9-2.5,0.6l0.1-0.1c1,0.1,1.8,0.4,3,0.4l0.1,0.1c3,0,4.7,0.4,4.6-0.2c1,0.5-2.9,0.1-1.3,0.8c9.9-0.3,20-0.4,30-0.6
	c1.1,0.2,1.9,0.2,2.1,0.4c1-0.1,3.7-0.2,4.6-0.5c-0.3,0,0.7,0.3,1.2,0.3c1.8,0.2,1.9-0.6,3.9-0.4c-0.8,0.2-1,0.3-0.8,0.5
	c1.7-0.5,3.9-0.4,5.9-0.6c-0.3,0.1-0.8,0.2-0.7,0.3c2.2-0.5,4,0,5.9-0.3l-0.7,0.3c3.1,0.3,0.9-0.7,3.6-0.5c-0.6,0.1-0.4,0.2-0.5,0.4
	c2.5-0.6,6.5-0.5,9-0.7c-0.1,0-0.1,0.1-0.1,0.1c2.7-0.1,5.5,0,8.5-0.3c1.1,0.1-0.3,0.8,2.5,0.6c-0.1-0.6,4.8-0.4,3.1-1
	c2.4,0,6.3,0.1,7.9-0.1c-1.1,0.3,1.2,0.7-0.8,0.8l1.6,0.3c-0.2,0.3-1.6,0-1.1,0.3c1-0.1,4-0.4,4.9-0.4c1.9-0.5,3.5-1.2,6.6-1.5
	c-1.4,0.3,0.9,0.6-0.1,0.8l4.1-1.4c1-0.1,0.3,0.5,1.7,0.2c-0.1-0.2,0.5-0.3,1-0.5c0.4,0.1,4.2-0.4,4.7,0.2c0.5,0.2-1.6,0.2-0.5,0.4
	c1.9-0.1,1.9-0.3,3.8-0.5l0,0.1c1.2,0,3.6-0.6,2.2-0.8c-0.9,0.1,0.4,0.3-0.9,0.3c0.8-0.4,2.9-0.7,4.7-0.9c-0.6,0.2-0.5,0.3-0.7,0.5
	c1.2-0.4,2.4-0.7,3.5-1c0.4,0.3,1.4-1.3,0,0.7c1.5,2.1,0.2,0.6-0.1,1c-0.2,0.3,1.1-0.3,1-0.2c-2-0.9-7-0.3-9.5-1.2
	c0.5,0,0.2,0.4,0.2,0.4c-1.7-0.2-1.6-0.6-2.7-0.5c-0.1-0.3-1.4,0-2.6,0c-0.6,0.1-0.3-0.1,0.7-0.1c-1.6,0.1-8.1,0-11.8-0.5
	c0.1,0.2-2.3,0.5-3.2,0.4l0.4-0.4c-0.8-0.3-2.9-0.1-3-0.4c-1.9,0.4,7.1-0.1,4.6,0.2c-0.6-0.4-3.5,0.4-2.9-0.1
	c-1.7,0-3.4,0.3-5.1-0.1c0.5,0.1,1.4-0.5,0-0.5c-2.5,0-0.7,0.2-2.7,0.2l-1.3,0.1c-0.1,0.4-2.2-0.1-1.3,0.3c-0.3-0.3-3.6,0.1-3.3-0.5
	l0.4-0.5c-1.1,0-1.8,0.5-2.6,0.7c-0.1,0-0.4-0.2-0.4-0.2c-0.2,0.7-2.5-0.1-3.8,0.4c-2.2-0.3-5.7-0.1-6.7-0.6
	c-1.7,0.2-3.3,0.5-5.2,0.3c0.4-0.1,0.9-0.1,1-0.2c-1.2-0.2-1.5,0-2.7,0.1c0.3-0.1-2.5-0.5-3.8-0.7c-1.7,0.2-1.1,0.6-1.3,0.9
	c-1.5-0.8-4.8,0.4-6.8-0.3c0.6-0.1,2.5-0.3,1.1-0.5c-1.5-0.8-3.2,0.5-5.7,0.1l0.6,0.6c-1.1-0.4-3.7,0.3-3.5-0.3
	c-0.9,0.2-3-0.3-2.7,0.3c-4.1-0.6-10.1,0.1-12.6-1.1c-0.6,0.1-2.1-0.1-1.8,0.3c1,0.4,1.4-0.2,1.7,0c-0.5,0-0.7,0.2-0.7,0.2
	c-1.3-0.2-2.3-0.2-1-0.7c-2.8-0.4-3,0.9-6.6,0.6c0.2-0.2-0.1-0.3-1.2-0.3l-2,0.4c-2.3-0.2-1.3-0.6-1.3-1c-1.3,0-2.8,0-3.4,0.3
	l-1.5-0.6c1.1,0.4-1,0.2-1.6,0.3l0.6-0.1c-0.2-0.2-1.7-0.1-2.4-0.1c0.2,0.3,1.6,0.4,2.4,0.5c-0.6,0.2-1.6,0.1-2.5,0.3
	c0.3-0.4-2-0.3-3-0.4c-1.1-0.1-1.3,0.4-1.6,0.3c0-0.2-1.9-0.1-1-0.3c0.4-0.1,0.9,0.2,1.5,0c-0.7-0.2-0.7-0.5-2.2-0.3
	c-1.2,0.2,0.3,0.8-1.9,0.5c0.6-0.1,0.7-0.3,1.2-0.4l-2.1-0.2l-0.1,0.4c-0.3-0.1-0.1-0.1-0.2-0.2c-0.6,0.4-3.2,0.1-3.7,0.6
	c-1,0-2.2-0.3-3.2-0.3l0.2,0c-1.2-0.2-2.9,0-3.9,0.2l0-0.1c-0.7,0-2.2,0.1-3.1,0.3c-1.7-0.2-0.6-1.4-2.5-0.9c-1.7,0.1-2.6,0.8-1.9,1
	c-3.1-0.1-6.5,0.6-9.4,0.3c-0.4,0.2-0.1,0.3-1,0.4c-4.5,0.2-9.2,1.4-12.8,1.2c1.2-0.3,0-0.4-0.1-0.6c-0.9,0.5-1.4-0.1-1.5,0.5
	c0.2,0.3,0.2,0.5,1.4,0.4c-1.2,0.3-2.8,0.7-4.2,0.9c-0.5,0.1-1.3,0.4-0.7,0c0.5-0.5,0.4-0.3,0.7-1.4c-0.2-1.2-1.1-1.5-0.9-1.4
	c-0.4-0.2-0.6-0.1-0.4-0.1c-0.1-0.2,0-0.3,0.3-0.3c-0.5,0.5,1.2,0.8,2.7,0.8l0.3-0.3l0.9,0.4c0.6-0.1,0.7-0.6,2.1-0.2
	c0.1,0.1,0.1,0.3,0.4,0.4c1.6-0.2,3.8-0.6,5.4-0.2l1.4,0.5c0.7,0,2-0.3,0.7-0.5c2.9,0.4,4.7,0.4,5.6,0.9c5-0.9,12.3-0.9,18.1-0.7
	l-0.2,0.2c1.6,0.2,0.8-0.4,1.9-0.2c-0.5,0.2,1.2,0.5-0.1,0.8c2.2,0.3,2.9-0.4,4.4-0.5c0.2-0.3-1.2,0.2-0.9-0.2
	c0.2-0.1,3.1,0.3,3.5-0.2c0.6,0.2,0.1,0.6-0.2,0.7l1.4-0.2c1.7,0.6-3.8,1-2.1,1.7l1.3-0.1c1.2,0.5-3.4,0.5-0.2,0.8
	c1.4-0.2,2.6-0.9,1.4-1.2c2.9-0.1,1.4-1.2,4.4-1.1c0.8,0.3-2.5,0-1.9,0.4c1.4,0.4,2.9-0.2,4.2,0c-1.4-0.2-0.2-0.7,0.7-0.8
	c1.6,0.3-1,0.4,1.2,0.5c0.4-0.3,2.4-0.5,0.7-0.7c0.8-0.6,2.3,0.2,3.5-0.3c0.7,0.5-2.3,1,0.1,1.3c-0.4-0.4,3-0.5,1.8-1.2
	c1,0.1,1,0.5,0.3,0.7c1.4,0.3,3.4-0.7,3.8,0.2l0.5-0.4c0.4,0.2,1,0.3,1.7,0.5c1.2,0,4-0.5,3.8,0.2c0.4-0.1,3.2,0.1,2.1-0.4
	c-1.7-0.4-2,0.3-2.9-0.4c1.2,0.5,2.5,0,3.5-0.1c-0.1,0.1,0.1,0.2,0.1,0.3c0.6-0.1,2,0,2.3-0.2c-0.5,0.1-0.2,0.3,0.2,0.4l0.7-0.4
	c2.4-0.1,0.5,0.7,2.8,0.7l-1.8,0.2c0.4-0.1,1.2,0.4,2.3,0.3c0.5-0.3,1.3-0.7,1.7-1c1.3-0.1,0.6,0.4,1.9,0.1l-1.7,0.4
	c-0.3,0.1,1.1,0.6,2.8,0.7c1.1-0.1,2.9-0.5,1.2-0.8c0.9,0,2.1,0.3,1.4,0.5c2,0-0.2-0.4,1.5-0.5c0.7,0.3,2.8,0.7,4.1,1.1l-1.8,0.5
	l1.2,0.1c-1.6,0.4,0.7,0.4-0.2,0.9c0.8,0.1,1.8,0,2.6-0.1c-2.3-0.9,2.8-1,2.1-1.8c3.3-0.1,1.9,1.9,5.4,0.9c-0.5-0.2,1.1-0.7-1-0.6
	c2,0.2,1.4-0.7,3.8-0.3c-1.8,0.2,1.8,0.8-0.8,1.2c0.2-0.2-1.4-0.3-1.8-0.2c0.8,0.3-0.2,0.7,1.8,0.8c1.3,0,3,0.1,2.8-0.3
	c0-0.4-1.9,0-1.1-0.4c2.5,0,2.9,0.6,4-0.1c-1.6,0-2-0.5-1.9-0.8l1.9-0.1l-0.4,0.3c2.9,0.3,0.9-0.5,3.8-0.3l1.3,0.6
	c-0.7,0.4-4.2-0.4-3.7,0.4c1.9,0.1,2.5-0.2,4.3,0l-1.3,0.1c0.7,0.1,1.2,1.1,3.9,0.6c1.4-0.2,0.4-0.3,0.4-0.6c3,0.1,3.9-0.2,5.9-0.2
	c-0.4,0.6,3.4,0.2,1.2,0.7c-0.9-0.4-5.3-0.6-6.4-0.1c1,0.7-2.3-0.2-3,0.4c2.4,0.1,2.2,0.8,2.6,1.2c0.7,0.1,1.3-0.1,1.7-0.1
	c0.3-0.4-0.6-0.4-0.6-0.9c2.7,0.2,5.3,0.1,6.8-0.2c0.9,0.2,0.6,0.6-0.5,0.6c3.2,0,6.6,0.2,9.6,0.5c-1.9-0.8,3.4,0,2.1-0.6
	c-1.6-0.2-3-0.8-2-1c1,0.1-0.1,0.3,0.4,0.5c1.3-0.3,2,0.7,3.3,0.2c-2.9,0.1-0.6,0.8-1.2,1.3c2.1-0.2-0.1,0.4,2,0.5
	c2.1-0.2,4.7-0.3,7-0.3c2.9,0.6,7.4,0.3,10,0.4c1.3,0.3,0.4,0.9,1.8,1c1.7,0.1-1.2-0.7,1.3-0.3L166,252c0.8-0.1,4.7,0.6,5.5-0.2
	l-0.8,0.6c0.5,0.1,0.9-0.1,1.3-0.1c0,0.2,0.6,0.4-0.2,0.5c1.6,0.5,3.3,0,5.1,0.1l-1.1-0.4c3-0.2,4.9,0.2,7.8,0.2l-0.1,0.4l1.7-0.2
	c-0.4,0.4,1.1,0.6,2,0.3l-4.5,0.8c-1.2-0.3,1.4-0.4,0.6-0.8c-0.6-0.3-3.3-0.3-3.7,0c1,0.1,1.1,0,1.9-0.1c0.3,0.5-1.2,0.5-2,0.8
	c0.5,0,1.3,0.2,1.4,0c-1.1,0.2-2.1,0.2-3.9,0.2c1.2-0.2-0.6-0.3-0.2-0.5c-0.2,0.5-1.8,0.5-4,0.3c-1.5-0.6-4.1,0.2-6.5,0
	c1-0.4,2.4-0.7,3.9-0.9c-1.5-0.3-1.7-0.1-3.3-0.3c-0.8,0.3-1.4,0.8-3.4,1l-0.1-0.3c-1.9,0.1-1.9,0.6-4.2,0.4
	c-4-0.3-8.2-0.5-11.2-0.7l-0.1-0.3c-1.8,0.7-5.7,0-8.1,0.2c-3.9-0.5-8.5-0.1-10.5-0.8c-6.9-0.1-13-0.1-20.1-0.6l1.3-0.4
	c-1.3,0.3-0.8-0.3-2.1-0.3c1.4,0.5-1.8,0.4-2.7,0.7c-3.2-0.5-7.3-0.3-10.1-0.1l-0.1-0.3c-2.9,0.5-6.3-0.2-9.8-0.5
	c-0.4-0.2-1-0.5-2.1-0.5c-2,0.5-2.9,0.4-5.8,0.6c-2-0.1-5.4-0.3-7.4-0.6c-7.8,0.6-15.7,0-23.8,0.4l-0.6-0.4
	c-7.9,0.8-17.5-0.1-24.3,0.2l0.7-0.7c-2.1-0.3-4.8,0.1-4.3,0.6c-2.1-0.3-5.3,0.2-6.7-0.5c-2.2-0.2-2.7,0.2-4.6,0.1
	c-2.6-0.6-3.1,0-6.9-1.7c-2.8-2.3,0.7-4.5,0.9-4.4c0.6-0.3,1.3-0.5,1.7-0.6c1-0.3,1.8-0.5,2.9-0.7l-1,0.2c-0.4,0.2-0.3,0.5,0.7,0.4
	c1.5-0.5,5.7-0.9,3.9-1.4c4.5-0.2,10.3-1.8,14.7-1.4c-0.4-0.2,0.7-0.3,1.1-0.5c3.9-0.3,8,0,11-0.5c0.6,0.1-1,0.4,0.6,0.4
	c0.9-0.1,0-0.3,1.1-0.5c6.2-0.6,12.7,0.3,18.3,0.2c10.1-0.3,20.5,0.2,30,0.4l-0.1,0.2c3.2-0.5,7.5,0.8,10-0.1
	c0.7,0.2,2.9,0.1,2.3,0.4c2.6-0.4,7.1,0.5,10.8,0c-0.3,0-0.5,0-0.9,0.1c3.7,0.4,7-0.1,10.9,0.3c-0.4,0.1-1.1,0.1-1.2,0.3
	c1.5,0.3,3.6-0.7,4.4,0.1c0.9,0,0.6-0.4,0.1-0.4c8.6,0.4,17.8,0.1,26.9,0.2c6.4,0.7,0.3,1.3,5.4,1c0.4,0.2,0.3-0.3,0.4-0.1
	c2-0.1,3,1,4.4,0.7c-0.5-0.5,0.9-0.2,1-0.5c3.9,0.6,4.6,1.1,7.8,1l-0.3,0.2c3.8-0.5,7.9,0.5,11.2,0c0.8,0.1,0.9,0,2.3,0.3
	c0.4,0.1,0.8,0.1,1.6,0.4c-0.2,0.3,3.5,0.3,2.3,4.1c-4.8,3.6-4.4,1.8-6.3,2.6c-2.7,0.4-5.1,0.6-7.6,0.9c-5,0.5-9.9,0.8-14.8,1.1
	c-9.8,0.6-19.5,1.1-29.3,1.3c-19.2,0-38.1,1.1-57.8,0.7c-4.6-0.7-5-0.6-10.1-0.5c0.2-0.1,0.5-0.1,0.2-0.2c-0.3,0.6-3.7-0.1-4.3,0.4
	c-1-0.1-1.9-0.1-3.4-0.4c-0.4-0.1-0.6-0.1-1.5-0.4c-0.5-0.2-0.5-0.1-1.3-0.6c-1.4-0.8-1.9-2.8-1.5-3.4c1.3-2.2,2.5-2.2,2.6-2.3
	c0.6-0.2,1-0.3,1.2-0.4c0.6-0.1,3.3-1.1,4.8-1.6c3.5-1,7.1-1.8,10.8-2.5c-1.2,0.3-1.6,0.8-0.2,0.5l1.4-0.6l0.3,0.1
	c0.9-0.2,1.9-0.7,0.9-0.7c18.8-3.4,37.6-3.4,56.2-3.6c4.4,0.2,10.7,0.2,15.6,0.3c3.6,0.4,7.1,0.8,10.5,1.5c1.7,0.2,3.4,0.6,5.2,1
	l1.3,0.3l0.6,0.1l0.1,0l0,0c0.3,2-0.6-4.4,0.6,4.4l0,0l0,0l-0.2,0.1l-0.4,0.1c-0.9,0.3-2,0.6-3,0.7c-8.5,0.3-12.1,1.1-22.1,1.4
	C133.8,248.6,136.6,247.3,142,246.4z"/>
<path class="st1" d="M183.6,201.5c0,0-54.3-53.6-61.8-54.7c-7.5-1.1-18.2,16.2-18.2,16.2l2.9,2.3c0,0,11.1-16,14.5-14.9
	c3.3,1.1,50.3,43.9,57.3,51.1c2.6,2.7,4.1,3.5,4.1,3.5L183.6,201.5z"/>
<path class="st2" d="M104.5,157.2c0,0,5.1,5,6.6,4.7c1.6-0.3,1.8-1.8,1.1-2.3c0,0,2.1-0.2,2.2-1.6c0.1-1.3-0.5-1.3-0.1-1.4
	c0.5-0.2,2.3-0.4,2-1.6c-0.3-1.1-4.7-3.2-4.7-3.2s3.8-2.4,2.2-3.6c-1.7-1.2-5.5,3.3-5.5,3.3L104.5,157.2z"/>
<path d="M78.6,75.1c0,0,10.7,5.8,13.8,15.5c3.1,9.7-0.2,16.6,2.9,21.4c3.1,4.8,4.6,7,4.6,7s-3.6-0.7-5.1-2.7
	c-1.5-2.1-2.4-4.9-5.1-5.5c-2.8-0.6-1.6,6.8,0.8,9.1c2.4,2.3,4.1,6.3,3.8,5.8c-0.3-0.4-3.6,0.9-5.7-1.5c-2.1-2.4-6.4-6.1-6.4-6.1
	L74.1,77L78.6,75.1z"/>
<path class="st3" d="M73,187.9c3.3,3.1,7.6,14.1,9.7,20.4c2.1,6.2,4.1,11.9,4.1,11.9h10.1c0,0-3.4-25.2-8.9-35.1l-5.4-9.9H58.8
	c0,0-3.8,14.6-8.4,25c-4.6,10.4-9.2,15.4-9.2,15.4s10.9-0.4,10.9,0c0,0.4,10.7-9.2,14.8-17.9C70.9,188.9,73,187.9,73,187.9z"/>
<path class="st4" d="M100.1,68.7c0,0-6.5,90.9-6.3,98.9c0.2,8,5,11.8,8.4,11.8c3.3,0,3.7-8,3.7-8h4.2c0,0,1.6,14.4-10,13.1
	c-11.6-1.3-10.3-16.9-10.3-16.9l6.8-98.9L100.1,68.7L100.1,68.7z"/>
<path class="st5" d="M65.9,140.6c0,0,35.5,8.3,38,9.2c2.5,0.8,6,0.5,4.7,3c-1.3,2.5-4.3,4.9-4.3,4.9s-35.9-7.1-40.5-8.5
	c-4.6-1.5,0-6.9,0-6.9L65.9,140.6z"/>
<path class="st5" d="M55.4,148.1c-1.9,12.4,0,36.2,0,36.2s8.4,1.7,18.8,0c10.4-1.7,16.3-7.1,16.3-7.1s-5.9-11.7-8.4-17.1
	c-2.5-5.4-5-21.7-5-21.7L57.9,136C57.9,136,55.9,145.1,55.4,148.1z"/>
<path class="st6" d="M73,130.1c0,0,2.9-0.8,5,2.1c2.1,2.9,2.6,9.3-5,8.3c-7.6-1-13-1.6-15.7-2.5c-2.7-0.9-3.6-3.8,1.3-5.7
	C63.4,130.4,73,130.1,73,130.1z"/>
<path class="st6" d="M58.5,134.2l-39.3,14.9l6.1,8.5c0,0,6.7-4.2,15.9-8.5c9.2-4.4,20.5-12.6,20.5-12.6L58.5,134.2z"/>
<path d="M83.6,215.2h14.6l1.7,11.5c0,0,6.9,0,11.3,5.4c3.7,4.5-5.9,3.8-16,4.5c-7.1,0.5-10.4-1.2-9.7-6.4
	C86,226.1,83.6,215.2,83.6,215.2z"/>
<path d="M40.2,214.9c0,0-3.6,10.4-5.2,11.7c-1.7,1.3-5.8,5.4-0.8,7.9s17.8,2.5,21.3,2.5c3.5,0,4.3-3.2,1.1-5.7
	c-3.1-2.5-8.2-4.7-8.2-4.7l7.1-10.4c0,0-3.3-0.7-8.8-1.2C42.4,214.5,40.2,214.9,40.2,214.9z"/>
<path class="st2" d="M36.3,104.1c0,0,5.9,19.5,12.6,23.8c6.8,4.3,20,5.5,26.9,3.7c6.9-1.8,12.8-8.2,13.9-15.1
	c1.1-6.9,0.6-22.9-4.8-31.2c-5.5-8.3-13.5-11.7-13.5-11.7s-7.1,2.7-18.3,6.7C41.8,84.4,36.3,104.1,36.3,104.1z"/>
<path d="M78.6,75.1c0,0-17.7,4.4-21.7,14.4c-3.3,8.4-17.6,19.2-17.6,19.2s-2.8,5.9-3.8,2.1c-1-3.7,1.1-18.7,4-24.1
	c2.3-4.4,8.6-10.7,16.9-13.1C68.4,70,78.6,75.1,78.6,75.1z"/>
<path class="st7" d="M84.4,117.1c0,0-1.3,1.1-3.2,1.7c-1.9,0.6-4.8,0-4.8,0"/>
<path class="st2" d="M78.9,99.3c0,0,5.5,0.7,7,0.7c1.5-0.1,2.7,2.5,0.6,4.3c-2.1,1.8-6.5,3.5-6.5,3.5"/>
<path class="st7" d="M78.9,99.3c0,0,5.5,0.7,7,0.7c1.5-0.1,2.7,2.5,0.6,4.3c-2.1,1.8-6.5,3.5-6.5,3.5"/>
<path class="st8" d="M188.5,199.3c0,0,0.4-6.3,6.8-7.6c5.5-1.2,21.4,1.5,32.2,1.6c1.2,0,2.2,0.3,3,0.4c6.3,1.1,11.1,2.6,0.1,11.3
	c-8.7,6.9-20.6,8-26,12.9c-5.4,4.9-7,6.4-7.7,6.6c-0.7,0.2-18.5-0.3-28.2-1.2c-9.7-0.9-10.8,2.5-14-2.9c-3.2-5.4-2.7-16.8-2.7-16.8
	s-3.4-0.7-9.7-8.8c-6.3-8.1-6.8-16.4-6.8-16.4s7.9,11.9,11.5,15.5c3.6,3.6,8.1,6.3,8.1,6.3H166c7.9,0,11.7,2.2,15.5,2.5
	C185.4,202.9,188.5,199.3,188.5,199.3z"/>
<path class="st9" d="M201.8,191.4c0,0-0.4-13.1,3.8-11.3c4.3,1.8,12.2,4.8,12.2,4.8s-4.3,1.9-7,2.5c-2.7,0.6-4.7,0.8-4.3,2.5
	c0.4,1.7,0.8,1.9,0.8,1.9L201.8,191.4z"/>
<path class="st8" d="M193.8,187.4c0,0-3.6-6.3-6.6-4.4c-3,1.9-6.5,7.7-7.7,9.1c-1.2,1.5-2.4,3.6-1.8,3.3c0.6-0.3,4.2,0.8,6.8-2.1
	c2.8-3,8.2,0.4,8.2,0.4l3-1.5L193.8,187.4z"/>
<path class="st9" d="M195.6,217.1c0,0,1.8,6.9,2.5,10.9c0.7,4,2.9,9.3,2.9,9.3s4.9-3.4,7.2-0.9c2.2,2.5-3.2,2-3.2,2s5,0.4,3.9,3.6
	c-0.7,2.1-4.8-0.7-4.8-0.7s3.9,1.9,2.8,3.4c-0.8,1.2-8.3-0.4-8.7-1.5c-1.9-4.1-6.9-26.1-6.9-26.1L195.6,217.1L195.6,217.1z"/>
<path class="st9" d="M157.8,220.9c0,0-1.4,6.8-4,9.2c-2.6,2.4-4.1,2.8-4.1,2.8s-2.9-3-4.2-1.9c-1.3,1.1,1.1,3.6,1.1,3.6
	s-2.5-3.7-3.4-1.8c-0.8,1.7,2.3,4.1,2.3,4.1s-4.1-3.9-4-0.9c0.1,2.6,2.6,4.9,8.1,3.2c5.6-1.8,9-7.4,10.2-9.5
	c2.1-3.6,2.7-6.5,2.7-6.5L157.8,220.9z"/>
<path class="st10" d="M204.1,194.8c2.5,0.1,3.7,1.9,3.7,4.5c-0.1,2.7-1.6,4.6-4.1,4.5c-2.5-0.1-4.3-2.1-4.2-4.8
	C199.4,196.4,201.5,194.7,204.1,194.8z"/>
<path class="st4" d="M201.5,197.8c0.5,0,0.8,0.4,0.8,0.9c0,0.5-0.3,0.9-0.9,0.9c-0.5,0-0.9-0.4-0.9-0.9
	C200.5,198.1,201,197.8,201.5,197.8z"/>
<path class="st10" d="M64.3,89.5c-3.4,0.1-5,2.5-4.9,6.1c0.1,3.6,2.1,6.2,5.5,6.1c3.4-0.1,5.8-2.8,5.7-6.4
	C70.4,91.7,67.6,89.4,64.3,89.5z"/>
<path class="st4" d="M68.3,94.7c-0.7,0-1,0.5-1,1.2c0,0.7,0.4,1.2,1.1,1.2c0.7,0,1.2-0.6,1.2-1.3C69.6,95.1,69,94.7,68.3,94.7z"/>
<path class="st10" d="M83,85.4c-2.9,0.1-4.3,2.2-4.2,5.2c0.1,3.1,1.8,5.3,4.8,5.2c2.9-0.1,5-2.4,4.9-5.5
	C88.4,87.3,85.9,85.4,83,85.4z"/>
<path class="st4" d="M86,91.5c0.5,0.5,1,0.4,1.5-0.1c0.5-0.5,0.5-1.1,0-1.6c-0.5-0.5-1.2-0.4-1.6,0.1C85.4,90.4,85.5,91.1,86,91.5z"
	/>
<path class="st4" d="M11,121.5c3.3-6.8,15.6-19.6,17.4-24.4C33.1,84.6,38.9,79.2,45.9,76c19.1-8.6,28.2-2.5,28.2-2.5
	s3.1,3.2,3.1,3.2c2.5-1.1-12.3-2.3-30.5,23.7c-2.5,3.6-0.7,11.1-2.9,15.2c-2.3,4.2-4.7,8.5-9.3,12.1c-4.6,3.6-8,3.6-8,3.6
	s5.9-4.3,6.4-7.5c0.2-1.3,0.7-2.7,1.5-4.2c-2.5,2.1-6,3.8-8.3,5.9c-2.6,2.2-8.3-0.4-6.1-0.4c2.3-0.1,4.3-1.5,6.8-4.4
	c1.1-1.3,1.6-2.4,2.2-3.5c-1,0.7-2,1.3-3.1,2c-11.4,6.6-9.7,9.8-11.4,13c-0.1-1.1-4.8-7.6,10.5-17.1c2.2-1.4,3.5-3.5,4.8-5.8
	c-0.6,0.6-1.1,1.1-1.6,1.6c-2.2,2.2-7.8,5.6-9.8,7.3c-3,2.7-4.6,5.1-6.1,7.1c-2.4,3-8.7,3.4-10.5,1.9C2.1,127.4,8.7,126.2,11,121.5z
	"/>
<path class="st8" d="M160.4,217.2c0,0,3,7,3.7,11c0.7,4,1.6,9.2,1.6,9.2s4.9-3.4,7.2-0.9c2.2,2.5-3.2,2-3.2,2s5,0.4,3.9,3.6
	c-0.7,2.1-4.8-0.7-4.8-0.7s3.9,1.9,2.8,3.4c-0.8,1.2-8.3-0.5-8.7-1.5c-1.9-4.1-3.6-17.6-9.5-26.2
	C152.8,216.2,160.4,217.2,160.4,217.2z"/>
<path class="st8" d="M190.2,220.3c0,0,2.9,5.8-3.3,16c-0.9,1.6-2.2,0.5-2.2,0.5s-2.4-3.4-3.8-2.5c-1.4,0.9,0.5,3.7,0.5,3.7
	s-1.8-4-3.1-2.3c-1,1.5,1.6,4.4,1.6,4.4s-3.5-4.5-3.8-1.5c-0.3,2.6,1.7,5.3,7.5,4.4c5.8-0.9,8.9-7,10.2-9.2c3-5.2,4.5-12.4,4.5-12.4
	L190.2,220.3z"/>
<path class="st11" d="M180.9,201.5c0,0,3.2,11.4,6,15.1c6,7.9,11.3,7.9,11.3,7.9l3.6-4.1c0,0-5.2-1.6-10.5-7.4
	c-2.1-2.3-6-12.8-6-12.8L180.9,201.5z"/>
<path d="M228.1,197.8c0.4,3.3,2.4,7.2,2.4,7.2s9.4-4.8,8.8-9c-0.4-3-9.3-2.5-10.8-2.9c-1.5-0.4-1,0.1-1,0.1L228.1,197.8z"/>
<path class="st7" d="M203.4,214.1c-0.1-4.4,4.9-4.7,6.8-2.7"/>
<path class="st6" d="M13.4,149.8l0,0.1L13.4,149.8L13.4,149.8z"/>
<path class="st6" d="M13.6,150.1l0-0.4C13.5,149.9,13.5,149.8,13.6,150.1l-0.1-0.2c0,0,0,0,0,0.1c0,0.1,0.1,0.1,0.1,0L13.6,150.1z"
	/>
<path class="st6" d="M14.7,150.2L14.7,150.2L14.7,150.2z"/>
<path class="st6" d="M15.3,150.2L15.3,150.2L15.3,150.2z"/>
<path class="st6" d="M15.4,150.4L15.4,150.4L15.4,150.4z"/>
<path class="st6" d="M14.7,150.2L14.7,150.2L14.7,150.2z"/>
<path class="st6" d="M13.7,149.7L13.7,149.7L13.7,149.7L13.7,149.7z"/>
<path class="st6" d="M14.4,150.4L14.4,150.4L14.4,150.4L14.4,150.4z"/>
<path class="st6" d="M14.2,150.4c0,0,0-0.1,0-0.2L14.2,150.4L14.2,150.4z"/>
<path class="st6" d="M13.8,150.2L13.8,150.2L13.8,150.2z"/>
<path class="st6" d="M14.5,150.4L14.5,150.4L14.5,150.4z"/>
<path class="st6" d="M20.6,148.7L20.6,148.7L20.6,148.7z"/>
<path class="st6" d="M20.9,149.4L20.9,149.4L20.9,149.4L20.9,149.4z"/>
<path class="st6" d="M15.7,150.6L15.7,150.6L15.7,150.6z"/>
<path class="st6" d="M17.5,150.3l0-0.3L17.5,150.3z"/>
<path class="st6" d="M13.7,149.7L13.7,149.7L13.7,149.7z"/>
<path class="st6" d="M17.5,150L17.5,150L17.5,150L17.5,150z"/>
<path class="st6" d="M16.1,150.4L16.1,150.4L16.1,150.4z"/>
<path class="st6" d="M15.8,150.3L15.8,150.3L15.8,150.3z"/>
<path class="st6" d="M16.3,150.2L16.3,150.2L16.3,150.2L16.3,150.2z"/>
<path class="st6" d="M16.5,150.2L16.5,150.2L16.5,150.2L16.5,150.2z"/>
<path class="st6" d="M20,148.9l0,0.1L20,148.9z"/>
<path class="st6" d="M13.7,149.7L13.7,149.7L13.7,149.7L13.7,149.7z"/>
<path class="st6" d="M16.2,149.1L16.2,149.1L16.2,149.1z"/>
<path class="st6" d="M18.7,149L18.7,149L18.7,149z"/>
<path class="st6" d="M16.3,149.1L16.3,149.1L16.3,149.1L16.3,149.1z"/>
<path class="st6" d="M20.2,148.6c0,0,0,0.2,0,0.3C20.2,149,20.2,148.8,20.2,148.6c-0.1,0.1-0.1,0.3-0.1,0.3l0-0.1
	c0,0.1-0.1,0-0.1,0.2l0,0l0,0.2c0,0,0,0.1,0,0l0-0.1l0,0.1c0-0.2,0-0.1,0-0.2c0,0.1,0,0.2-0.1,0.2c0-0.2,0-0.1,0-0.2l0,0.1
	c-0.1-0.3,0,0,0-0.3l-0.1,0l0,0.2c0,0.2-0.1-0.4-0.1-0.2c0,0.1,0,0.3,0,0.2l0-0.2c0,0,0,0.3,0,0.2l0-0.1c0-0.1,0,0.1,0,0.1l0-0.2
	l-0.1,0.2l0-0.2c-0.1,0.1-0.1,0-0.2-0.1l0,0.1l0-0.1c0-0.1,0,0.1,0,0.1l0-0.1c0,0.1-0.1,0.3-0.1,0.1l0,0c0-0.1,0,0.3,0,0.2l0,0
	c-0.1-0.1-0.1,0.1-0.2-0.1c0,0.2-0.1-0.1-0.1,0.2l-0.1-0.3c0,0,0,0.2,0,0.2l0-0.2l0,0.2l0-0.2l0,0l0,0.1c0,0.1-0.1-0.1-0.1-0.2
	l-0.1,0.1l0-0.1c0,0.2,0-0.2,0,0l0,0.1c0-0.1-0.1-0.1-0.1,0l0-0.1l-0.1,0.1c0,0,0,0.2,0,0.2l0-0.2c0,0.1,0,0.1,0,0.2l0-0.2l0,0.1
	l0-0.1c0,0.1-0.1-0.2-0.1,0l0,0l-0.1,0.1c0,0.1,0,0.1,0,0.2L18,149l0,0.2l0-0.2l-0.1,0.1l0,0.1l0-0.1l0,0c0,0.2-0.2-0.4-0.2-0.1l0,0
	l0,0.1l0-0.2c0,0.2-0.1,0-0.1,0.1c-0.1-0.4-0.1,0-0.2-0.2l0,0.1c0,0.1,0-0.1,0-0.1l0,0.1c-0.1,0.1-0.2-0.1-0.4-0.2
	c0,0,0,0.5-0.1,0.3V149c-0.1,0.2-0.2,0-0.2,0.2l0-0.1c0-0.1-0.1,0-0.1,0.1l0-0.1c0-0.1,0,0.2-0.1,0l0,0c0,0.1-0.1,0,0,0.1
	c0-0.1-0.1,0.1-0.1,0c0,0.2-0.1-0.1,0,0.1c0-0.2-0.1-0.2-0.1-0.1l0-0.2l0,0.2c-0.1-0.3-0.1,0.2-0.1-0.1l-0.2,0.3c0-0.2,0.1,0,0-0.3
	c0,0.1-0.1,0.3-0.1,0.2v-0.1c0,0.1-0.1,0-0.1,0.1l0-0.1c0,0,0,0,0,0.1l0,0l0,0.4c0-0.3-0.1-0.1-0.1-0.4v0.1l0-0.1l0,0.2l0-0.1
	c0,0.1,0,0.2,0,0.2v-0.1c0,0-0.1,0.3-0.1,0.2c0-0.2,0-0.1,0-0.3l0,0.1l0,0.1c0,0,0,0.1-0.1,0.1l0-0.1l0,0l0,0.1c0,0.1,0,0.2,0,0.2
	c0,0,0,0,0-0.1c0,0.1,0,0.1,0,0.1l0-0.2c0,0.2-0.1,0-0.1,0.2l0-0.2l0,0.1l0-0.1c0,0,0,0.2,0,0.1l0,0c0,0-0.1,0.1-0.1,0
	c0-0.2,0,0,0-0.2c0,0-0.1,0.2-0.1,0.2l0,0c0,0.3-0.1-0.1-0.1,0c0,0,0-0.1,0-0.1c0,0-0.1,0.1-0.1,0.2v-0.1l-0.1-0.1l0,0.2
	c-0.1-0.4-0.1,0.2-0.2-0.1l0-0.1l0,0.1l0,0.2l0,0.1l0-0.2l0,0.1c-0.1-0.2,0,0.2,0,0.1l0-0.1l0,0.1c0-0.1,0-0.1,0-0.2
	c0,0,0,0.3,0,0.1l0-0.1c0-0.2,0-0.1-0.1-0.1l0,0l0-0.1l0,0c0,0.3,0,0.1-0.1,0.3c0-0.2,0-0.1,0-0.3l0-0.1c0,0.1,0-0.1,0,0.1
	c0,0,0,0,0-0.1l0,0.1c0,0.2-0.1-0.2-0.1,0l0,0.3l0-0.2c0-0.1,0-0.1-0.1,0l0-0.1c0,0,0,0.2,0,0.1l0-0.2l0,0.2l0-0.2l0,0.2l0,0l0-0.1
	c0-0.1,0,0,0,0.1l0,0c0.1,0.3,0-0.1,0.1,0l0,0.2l0-0.2l0,0.2c0,0.1,0-0.1,0,0l0,0l0-0.1c0,0,0,0.1,0,0.1c0.1,0.1,0-0.2,0.1,0v0
	c0-0.1,0-0.2,0-0.3l0.1,0.4l0-0.2l0,0.1l0-0.2c0,0.1,0.1-0.1,0.1,0.2l0-0.2c0,0.3,0,0,0.1,0.1c0,0.1,0,0.1,0,0.2c0-0.2,0.1,0,0.1,0
	c0-0.2,0-0.1,0.1-0.1l0.1,0.2l0,0c0-0.2,0-0.2,0-0.2l0,0.2l0,0l0-0.1l0,0.1c0,0,0-0.2,0.1-0.1l0-0.4l0,0.2l0,0l0,0.1
	c0,0,0-0.1,0-0.1l0,0.2h0l0.1,0.1l0-0.1c0,0,0,0.1,0,0.2c0-0.1,0,0,0-0.1l0,0.1c0-0.1,0.1,0,0-0.2l0,0v0c0-0.1,0.1,0.1,0.1,0l0,0
	l0.1-0.1l0,0.1c0,0,0-0.1,0.1,0c0,0.1,0,0.1,0,0.1c0,0,0,0.1,0.1,0c0,0.1,0,0.2,0,0.1l0-0.1h0l0,0.2c0.1,0.2,0.1-0.4,0.1,0
	c0-0.1,0-0.1,0-0.2c0,0,0.1,0.3,0.1,0.3c0.1,0.1,0-0.2,0.1-0.2l0-0.3c0,0,0.1,0.2,0,0.3l0,0l0,0.1l0-0.1l0.1,0.1l0-0.1
	c0,0.1,0.1,0,0.1,0.1l0-0.1c0.1,0.1,0-0.1,0-0.1c0,0.1,0,0.2,0,0.1l0,0.2c0-0.1,0.1,0.1,0.1,0.1l0,0l0,0l0-0.1l0,0.1l0-0.3
	c0,0.1,0-0.1,0.1,0.1c0,0,0,0.2,0,0.2h0v0c0.1,0.1,0-0.2,0-0.2c0,0.1,0,0.2,0,0.1c0,0,0-0.1,0-0.2c0,0.1,0-0.1,0,0l0,0l0-0.1l0,0.1
	c0-0.2,0.1,0.2,0.1,0l0,0.2c0-0.1,0,0.1,0.1,0l0-0.2l0,0.1l0-0.2l0,0.1l0-0.2c0,0.2,0-0.1,0.1,0l0,0.3c0,0.1,0.1-0.2,0.1-0.1l0,0
	c0-0.1,0,0,0-0.1l0,0.2c0-0.1,0,0,0-0.2l0,0.1c0,0,0-0.3,0.1-0.3l0,0.3l0-0.1c0,0.1,0-0.1,0,0l0-0.1l0,0l0-0.2
	c0.1,0.3,0.1,0,0.2,0.2l0.1-0.1v0c0,0.1,0-0.3,0-0.2c0,0.2,0,0.1,0,0.1c0,0.3,0,0,0.1,0.1l0,0c0,0.1,0-0.1,0.1-0.1l0,0
	c0-0.2,0-0.2,0.1-0.3l0,0.2l0-0.2l0.1,0.3l0,0c0,0.2,0,0,0.1,0l0,0.1c0,0,0-0.2,0.1-0.2l0-0.1c0-0.2,0,0.1,0,0l0,0.2l0.1-0.2l0,0.3
	l0.1-0.1l0,0c0-0.2,0-0.2,0.1-0.2c0,0.4,0.1,0.1,0.1,0.4c0-0.1,0.1,0,0.2,0c-0.1-0.3,0,0,0-0.3l0,0l0.1,0.2v0.1l0.1,0.2
	c0-0.1,0-0.2,0-0.1l0-0.1c0-0.2,0.1,0.2,0.1,0.1l0,0.1c0-0.1,0.1,0,0.1-0.2l0,0.1c0.1,0,0.1-0.3,0.2-0.1l0,0.1c0,0,0-0.1,0-0.1
	l0,0.1c0,0,0-0.1,0-0.1l0,0.1c0.1,0.1,0.1-0.2,0.1-0.3c0,0.2,0.1,0.3,0.1,0.3l0,0c0.1,0,0.1-0.2,0.1-0.3c0.1,0.2,0.1,0.1,0.2,0.2
	l0-0.2c0,0,0-0.2,0,0l0,0c0,0.2,0.1,0.1,0.1,0.1l0-0.3c0.1,0.4,0.1-0.2,0.2,0.2l0-0.1l0,0.1l0.1,0v0.1c0,0,0-0.4,0-0.4l0,0.2
	c0,0,0.1,0.2,0.1,0v0.1c0,0,0.1,0.1,0.1-0.2c0,0.2,0.1,0,0.1-0.1l0,0.1c0-0.2,0-0.2,0-0.3l0,0.1c0,0.1,0-0.1,0-0.1l0,0.1l0-0.1
	c0-0.1,0.1,0,0.1,0.2c0-0.1,0-0.2,0-0.1l0,0.1c0.1,0.1,0-0.2,0.1,0l0,0.1l-0.1,0c0,0.1,0,0.1,0,0.3c0-0.1,0-0.3,0.1-0.2l0,0l0,0l0,0
	l0,0c0,0.1,0,0.1,0.1,0.1l0-0.2l0,0l0,0l0,0l0,0c0-0.1,0-0.1,0-0.1l0-0.2l0.1,0.4c0-0.1,0.1-0.1,0.1-0.3c0,0,0,0.1,0,0.1l0,0.1
	c0-0.1,0.1,0,0.1-0.2c0,0.1,0,0.2,0,0.1v0.1c0.1,0.3,0.1-0.5,0.2-0.1l0-0.1c0.1,0.2,0.2-0.2,0.3,0.1c0,0,0-0.1,0-0.2l0,0.2l0-0.2
	c0-0.1,0.1,0.4,0.1,0.1l0-0.1c0,0,0.1-0.1,0.1,0c0,0,0-0.1,0-0.1l0,0.1l0-0.1c0,0.1,0,0.3,0.1,0.3v-0.3l0-0.1l0,0l-0.1-0.6l0,0.1
	l0-0.1l0,0c0-0.1,0,0,0,0.1l0-0.1l0,0.2l0-0.2l0,0.3c0-0.1,0-0.2,0-0.1l0-0.1c0,0.1,0,0,0,0.2c0-0.1,0,0-0.1-0.2l0,0.2
	c0-0.3-0.1,0-0.1-0.3c0,0.2,0,0.1-0.1,0.2l0,0l-0.1-0.1c0,0.2,0,0.2,0,0.4l0-0.4l0,0.3c0-0.1,0-0.1-0.1-0.2c0,0.2,0,0,0,0.2
	c0-0.1,0-0.2-0.1-0.1L20.2,148.6z M19.6,149.1L19.6,149.1L19.6,149.1L19.6,149.1z M19.5,149.1L19.5,149.1L19.5,149.1L19.5,149.1z
	 M19.8,150.1L19.8,150.1L19.8,150.1L19.8,150.1L19.8,150.1z"/>
<path class="st6" d="M19.8,149.9L19.8,149.9L19.8,149.9L19.8,149.9L19.8,149.9z"/>
<path class="st6" d="M14.6,150.2L14.6,150.2L14.6,150.2L14.6,150.2z"/>
<path class="st6" d="M18.7,148.9L18.7,148.9L18.7,148.9L18.7,148.9z"/>
<path class="st6" d="M14.3,149.7L14.3,149.7L14.3,149.7z"/>
<path class="st6" d="M14.1,149.7L14.1,149.7L14.1,149.7z"/>
<path class="st6" d="M14,149.7L14,149.7L14,149.7z"/>
<path class="st6" d="M15.7,149.3L15.7,149.3L15.7,149.3z"/>
<path class="st6" d="M15.2,149.7L15.2,149.7L15.2,149.7z"/>
<path class="st6" d="M16.2,149.1L16.2,149.1L16.2,149.1L16.2,149.1z"/>
<path class="st6" d="M13.6,149.7L13.6,149.7L13.6,149.7L13.6,149.7z"/>
<path class="st6" d="M13.6,149.7L13.6,149.7L13.6,149.7z"/>
<path class="st6" d="M13.5,149.7L13.5,149.7L13.5,149.7z"/>
<path class="st6" d="M13.7,149.7L13.7,149.7L13.7,149.7z"/>
<path class="st6" d="M13.8,149.7L13.8,149.7L13.8,149.7C13.7,149.6,13.8,149.8,13.8,149.7z"/>
<path class="st6" d="M14,150.3L14,150.3l0,0.1C14.1,150.5,14,150.3,14,150.3z"/>
<path class="st6" d="M14.1,150.3l0,0.1L14.1,150.3z"/>
<path class="st6" d="M14.9,150.3l0,0.1L14.9,150.3z"/>
<path class="st6" d="M15,149.6L15,149.6L15,149.6L15,149.6z"/>
<path class="st6" d="M15.2,150.5L15.2,150.5L15.2,150.5L15.2,150.5z"/>
<path class="st6" d="M16.5,150.3l0-0.2C16.4,150.2,16.4,150.4,16.5,150.3z"/>
<path class="st6" d="M17,150.1C17,150.2,17,150.2,17,150.1L17,150.1z"/>
<path class="st6" d="M18.7,150.2L18.7,150.2L18.7,150.2L18.7,150.2z"/>
<path class="st6" d="M14.8,153.7l0.1,0.1L14.8,153.7L14.8,153.7z"/>
<path class="st6" d="M15,153.9l-0.1-0.3C14.9,153.7,14.9,153.6,15,153.9l-0.1-0.2c0,0,0,0,0,0.1c0.1,0.1,0.1,0.1,0.1,0L15,153.9z"/>
<path class="st6" d="M16.2,153.7L16.2,153.7L16.2,153.7z"/>
<path class="st6" d="M16.9,153.5L16.9,153.5L16.9,153.5z"/>
<path class="st6" d="M17.1,153.6L17.1,153.6L17.1,153.6z"/>
<path class="st6" d="M16.2,153.7L16.2,153.7L16.2,153.7z"/>
<path class="st6" d="M15,153.5L15,153.5L15,153.5L15,153.5z"/>
<path class="st6" d="M16,153.9L16,153.9L16,153.9L16,153.9z"/>
<path class="st6" d="M15.8,154.1c0,0,0-0.1-0.1-0.2L15.8,154.1L15.8,154.1z"/>
<path class="st6" d="M15.3,154L15.3,154L15.3,154z"/>
<path class="st6" d="M16.1,153.9L16.1,153.9L16.1,153.9z"/>
<path class="st6" d="M22.2,150.3L22.2,150.3L22.2,150.3z"/>
<path class="st6" d="M22.8,150.7L22.8,150.7L22.8,150.7L22.8,150.7z"/>
<path class="st6" d="M17.4,153.7L17.4,153.7L17.4,153.7z"/>
<path class="st6" d="M19.4,152.8l-0.1-0.3L19.4,152.8z"/>
<path class="st6" d="M15,153.5L15,153.5L15,153.5z"/>
<path class="st6" d="M19.2,152.6L19.2,152.6L19.2,152.6z"/>
<path class="st6" d="M17.9,153.4L17.9,153.4L17.9,153.4z"/>
<path class="st6" d="M17.4,153.4L17.4,153.4L17.4,153.4z"/>
<path class="st6" d="M18,153.2L18,153.2L18,153.2L18,153.2z"/>
<path class="st6" d="M18.2,153.1L18.2,153.1L18.2,153.1L18.2,153.1z"/>
<path class="st6" d="M21.6,150.6l0.1,0.1L21.6,150.6z"/>
<path class="st6" d="M15,153.5L15,153.5L15,153.5L15,153.5z"/>
<path class="st6" d="M17.6,152.1L17.6,152.1L17.6,152.1z"/>
<path class="st6" d="M20.3,151.2L20.3,151.2L20.3,151.2z"/>
<path class="st6" d="M17.7,152.1L17.7,152.1L17.7,152.1L17.7,152.1z"/>
<path class="st6" d="M21.7,150.7L21.7,150.7L21.7,150.7z"/>
<path class="st6" d="M21.7,150.3c0,0,0.1,0.2,0.1,0.3C21.8,150.6,21.8,150.5,21.7,150.3c0,0.1,0,0.3,0,0.3l0-0.1c0,0.1-0.1,0,0,0.2
	l0,0l0.1,0.2c0,0,0,0.1,0,0l0-0.1l0,0.1c-0.1-0.1,0-0.1-0.1-0.2c0,0.1,0,0.2,0,0.2c-0.1-0.1,0-0.1-0.1-0.2l0.1,0
	c-0.1-0.2,0,0-0.1-0.2l-0.1,0.1l0.1,0.2c0,0.2-0.2-0.4-0.2-0.1c0,0.1,0.1,0.3,0,0.2l-0.1-0.2c0,0,0.1,0.3,0,0.2l0-0.1
	c-0.1-0.1,0,0.1,0,0.1l-0.1-0.2l-0.1,0.2l-0.1-0.1c0,0.1-0.1,0-0.2,0l0,0.1l0-0.1c0,0,0,0.1,0.1,0.1l-0.1-0.1c0,0.1,0,0.3-0.1,0.2
	l0,0c-0.1,0,0.1,0.3,0,0.2l0,0c-0.1,0-0.1,0.1-0.3-0.1c0.1,0.2-0.1-0.1,0,0.2l-0.2-0.2c0,0,0,0.2,0,0.2l-0.1-0.1l0,0.2l-0.1-0.2l0,0
	l0.1,0.1c0,0.1-0.1-0.1-0.1-0.1l0,0.1l0-0.1c0,0.2-0.1-0.2,0,0l0,0.1c-0.1-0.1-0.1-0.1-0.1,0l0-0.1l-0.1,0.1l0.1,0.2l-0.1-0.1
	c0,0.1,0,0.1,0.1,0.2c0,0-0.1-0.2-0.1-0.2l0,0.1l0-0.1c0,0.1-0.1-0.1-0.1,0l0,0l-0.1,0.1l0.1,0.2l-0.2-0.1l0.1,0.2l-0.1-0.2
	c0,0-0.1,0-0.1,0.2l0.1,0.1l-0.1-0.1v0c0,0.2-0.3-0.3-0.3,0l0,0l0,0.2l-0.1-0.2c0,0.2-0.1,0-0.1,0.2c-0.2-0.3-0.1,0.1-0.3-0.1l0,0.1
	c0,0.1,0,0-0.1-0.1l0.1,0.1c-0.1,0.1-0.3,0-0.4-0.1c-0.1,0,0.1,0.4,0,0.3l0-0.2c0,0.2-0.2,0.1-0.2,0.3l0-0.1c-0.1-0.1-0.1,0,0,0.1
	l-0.1-0.1c0-0.1,0,0.2,0,0.1l0,0c0,0.1-0.1,0,0,0.1c-0.1,0,0,0.1-0.1,0c0,0.2-0.1,0,0,0.2c-0.1-0.2-0.1-0.1-0.1,0l-0.1-0.2l0,0.2
	c-0.1-0.2,0,0.2-0.2-0.1l-0.1,0.3c-0.1-0.2,0.1,0,0-0.3c0,0.1,0,0.3-0.1,0.3l0-0.1c0,0.1-0.1,0-0.1,0.2l0-0.1c0,0,0,0,0,0.1v0
	l0.1,0.4c-0.1-0.3-0.1,0-0.2-0.4l0,0.1l-0.1-0.1l0,0.2l0-0.1c0,0.1,0,0.2,0,0.2l0-0.1c0,0,0,0.3-0.1,0.2c-0.1-0.2,0-0.1-0.1-0.2
	l0,0.1l0,0.1c0,0,0,0.1,0,0.1l0-0.1l0,0.1l0.1,0.1c0,0.1,0.1,0.2,0,0.2c0,0,0,0-0.1-0.1c0,0.1,0,0.1,0,0.1l-0.1-0.2
	c0,0.1,0,0.1,0,0.2l-0.1-0.1l0,0.1l-0.1-0.1c0,0,0.1,0.2,0,0.1l0,0c-0.1,0-0.1,0.1-0.1,0.1c-0.1-0.2,0-0.1-0.1-0.2
	c0,0.1,0,0.3-0.1,0.2l0,0c0.1,0.2-0.1-0.1-0.1,0c0,0,0-0.1,0-0.1c-0.1,0-0.1,0.1-0.1,0.2l0-0.1l-0.1,0l0,0.1c-0.2-0.3-0.1,0.2-0.2,0
	l0-0.1l0,0.1l0.1,0.1l0,0.1l-0.1-0.2l0,0.1c-0.1-0.2,0.1,0.2,0,0.1l0-0.1l0,0.1c-0.1-0.1,0-0.1-0.1-0.2c0,0,0.1,0.3,0,0.1l0-0.1
	c-0.1-0.1-0.1-0.1-0.1-0.1l0,0l-0.1-0.1l0,0c0.1,0.3,0,0.1,0,0.3c0-0.2,0-0.1-0.1-0.3l-0.1-0.1c0,0.1-0.1-0.1,0,0.1c0,0,0,0-0.1-0.1
	l0.1,0.1c0,0.2-0.2-0.2-0.1,0.1l0,0.3l-0.1-0.2c-0.1-0.1-0.1,0-0.1,0l-0.1-0.1c0,0,0.1,0.2,0,0.1l-0.1-0.2l0,0.2l-0.1-0.2l0,0.2l0,0
	l-0.1-0.1c0-0.1,0,0,0.1,0.1l0,0c0.1,0.3,0-0.1,0.1-0.1l0.1,0.2l0-0.2l0.1,0.2c0.1,0.1,0-0.1,0.1,0l0,0l0-0.1l0,0.1
	c0.1,0.1,0-0.2,0.1,0l0,0c0-0.1-0.1-0.1-0.1-0.3l0.2,0.3l-0.1-0.1l0,0.1l-0.1-0.2c0.1,0.1,0-0.1,0.1,0.1l-0.1-0.2
	c0.1,0.2,0-0.1,0.1,0c0,0.1,0,0.1,0.1,0.2c-0.1-0.2,0.1,0,0.1,0c-0.1-0.2,0-0.1,0-0.2l0.2,0.1l0,0c-0.1-0.2,0-0.2,0-0.2l0.1,0.2l0,0
	l0-0.1l0,0.1c0,0,0-0.2,0.1-0.1l-0.2-0.4l0.1,0.2l0,0l0,0.1c0,0,0-0.1,0-0.1l0.1,0.1l0,0l0.1,0.1l0-0.1c0,0,0.1,0.1,0.1,0.1
	c0-0.1,0,0,0-0.1l0.1,0.1c0-0.1,0.1,0,0-0.2l0,0v0c0-0.2,0.1,0,0.2,0l0,0l0-0.2l0.1,0.1c0,0,0-0.1,0.1,0c0,0.1,0,0.1,0,0.1
	c0,0,0.1,0.1,0.1,0c0,0.1,0.1,0.1,0.1,0.1l-0.1-0.1l0,0l0.1,0.2c0.1,0.2,0-0.4,0.1-0.1c0-0.1-0.1-0.1-0.1-0.2c0,0,0.2,0.2,0.2,0.2
	c0.1,0.1-0.1-0.2,0-0.2l-0.1-0.3c0,0,0.1,0.2,0.1,0.3l0,0l0,0.1l0-0.1l0.1,0.1l-0.1-0.1l0.1,0l0-0.1c0.1,0,0-0.1,0-0.2
	c0.1,0.1,0.1,0.2,0.1,0.1l0.1,0.2c0-0.1,0.1,0,0.1,0.1v0.1l0,0l-0.1-0.1l0,0.1l-0.1-0.3c0,0,0-0.1,0.1,0.1c-0.1,0,0.1,0.1,0,0.2l0,0
	l0,0c0.1,0.1,0-0.2,0-0.2c0,0.1,0.1,0.2,0.1,0.1c0,0-0.1-0.1-0.1-0.2c0.1,0.1,0-0.1,0-0.1l0,0l0-0.1l0,0.1c0-0.2,0.1,0.1,0.1,0
	l0.1,0.2c0-0.1,0.1,0.1,0.1,0l-0.1-0.2l0,0.1l0-0.2l0,0.1l-0.1-0.2c0.1,0.2,0-0.1,0.1,0l0.1,0.3c0.1,0.1,0-0.2,0.1-0.1l0,0
	c0-0.1,0,0,0-0.1l0.1,0.2c0-0.1,0,0,0-0.2l0.1,0.1c0.1,0-0.1-0.3,0-0.3l0.1,0.2l0-0.1c0,0.1,0-0.1,0-0.1l0-0.1l0,0l-0.1-0.2
	c0.2,0.3,0.1-0.1,0.2,0.2l0.1-0.1l0,0c0.1,0.1-0.1-0.3,0-0.2c0.1,0.1,0,0.1,0,0.1c0.1,0.3,0-0.1,0.1,0.1v0c0.1,0.1,0-0.1,0.1-0.1
	l0,0c0-0.2,0-0.2,0-0.3l0.1,0.2l-0.1-0.2l0.1,0.2l0,0c0.1,0.2,0,0,0.1,0l0,0.1c0,0,0-0.2,0-0.2l0-0.1c0-0.2,0.1,0.1,0,0l0.1,0.2
	l0-0.2l0,0.3l0-0.1l0,0c0-0.2,0-0.2,0-0.2c0.1,0.4,0.1,0.1,0.3,0.3c0-0.2,0.1,0,0.2,0c-0.1-0.3,0,0-0.1-0.3l0,0l0.1,0.2l0,0.1
	l0.1,0.2c0-0.1,0-0.1,0-0.1l-0.1-0.1c0-0.2,0.1,0.2,0.1,0.1l0,0.1c0-0.1,0.1,0,0-0.3l0.1,0.1c0.1,0,0-0.3,0.1-0.2l0,0.1
	c0,0,0-0.1,0-0.1l0,0.1c0,0,0-0.1,0-0.1l0,0.1c0.1,0.1,0-0.2,0-0.3c0.1,0.2,0.2,0.2,0.2,0.3l0,0c0.1,0,0-0.2,0.1-0.3
	c0.1,0.2,0.2,0,0.3,0.1l-0.1-0.2c0,0,0-0.2,0.1,0l0,0c0.1,0.2,0.1,0.1,0.1,0.1l-0.1-0.2c0.2,0.3,0.1-0.2,0.3,0.1l0-0.1l0.1,0.1
	l0.1,0l0,0.1c0,0-0.1-0.4-0.1-0.4l0.1,0.2c0.1,0,0.2,0.1,0.1-0.1l0,0.1c0,0,0.2,0.1,0-0.2c0.1,0.2,0.1,0,0.1-0.1l0.1,0.1
	c0-0.2-0.1-0.2-0.1-0.3l0,0.1c0.1,0.1,0-0.1,0-0.1l0,0.1l0-0.1c0-0.1,0.1,0,0.1,0.1c0-0.1-0.1-0.2,0-0.1l0,0.1
	c0.1,0.1,0-0.2,0.1-0.1l0,0.1l-0.1,0c0.1,0.1,0.1,0.1,0.1,0.3c0-0.1-0.1-0.3,0-0.3l0,0l0,0l0,0l0,0c0.1,0.1,0.1,0,0.1,0l-0.1-0.2
	l0,0v0l0,0l0,0c0-0.1,0-0.1,0-0.1l-0.1-0.2l0.2,0.4c0-0.1,0.1-0.1,0-0.3c0,0,0,0.1,0.1,0.1l0,0.1c0-0.1,0.1-0.1,0-0.2
	c0.1,0.1,0.1,0.2,0.1,0.1l0,0.1c0.2,0.2-0.1-0.5,0.2-0.2l0-0.1c0.2,0.1,0.1-0.2,0.4-0.1c0.1,0,0-0.1,0-0.2l0.1,0.1l-0.1-0.2
	c0-0.1,0.3,0.3,0.2,0l-0.1-0.1c0,0,0-0.1,0.1,0l0-0.1l0,0.1l0-0.1c0.1,0,0.2,0.3,0.2,0.3l-0.1-0.3l-0.1-0.1l0,0l-0.3-0.5l0,0.1
	l-0.1-0.1l0,0c-0.1-0.1,0,0,0,0.1l-0.1-0.1l0.1,0.2l-0.1-0.2l0.1,0.2c-0.1-0.1-0.1-0.2-0.1-0.1l-0.1-0.1l0,0.2
	c-0.1-0.1,0,0.1-0.1-0.1l0,0.2c-0.1-0.2-0.1,0-0.2-0.2c0.1,0.2,0,0.1,0,0.3l0,0l-0.1-0.1l0.1,0.3l-0.2-0.4l0.1,0.3
	c-0.1-0.1,0,0-0.1-0.2c0.1,0.2,0,0,0.1,0.2c-0.1-0.1-0.1-0.2-0.1-0.1L21.7,150.3z M21.3,151L21.3,151L21.3,151L21.3,151z M21.2,151
	L21.2,151L21.2,151L21.2,151z M21.7,151.9L21.7,151.9L21.7,151.9L21.7,151.9L21.7,151.9z"/>
<path class="st6" d="M21.7,151.7L21.7,151.7L21.7,151.7L21.7,151.7L21.7,151.7z"/>
<path class="st6" d="M16.2,153.7L16.2,153.7L16.2,153.7L16.2,153.7z"/>
<path class="st6" d="M20.3,151.1L20.3,151.1L20.3,151.1L20.3,151.1z"/>
<path class="st6" d="M15.7,153.4L15.7,153.4L15.7,153.4z"/>
<path class="st6" d="M15.5,153.4L15.5,153.4L15.5,153.4z"/>
<path class="st6" d="M15.4,153.4L15.4,153.4L15.4,153.4z"/>
<path class="st6" d="M17.1,152.5L17.1,152.5L17.1,152.5z"/>
<path class="st6" d="M16.7,153L16.7,153L16.7,153z"/>
<path class="st6" d="M17.6,152.1L17.6,152.1L17.6,152.1L17.6,152.1z"/>
<path class="st6" d="M16.7,152.9L16.7,152.9L16.7,152.9z"/>
<path class="st6" d="M14.9,153.5L14.9,153.5L14.9,153.5L14.9,153.5z"/>
<path class="st6" d="M14.9,153.5L14.9,153.5L14.9,153.5z"/>
<path class="st6" d="M14.9,153.6L14.9,153.6L14.9,153.6z"/>
<path class="st6" d="M15.1,153.5L15.1,153.5L15.1,153.5z"/>
<path class="st6" d="M15.1,153.5L15.1,153.5L15.1,153.5C15,153.4,15.1,153.6,15.1,153.5z"/>
<path class="st6" d="M15.5,154L15.5,154l0,0.1C15.7,154.2,15.5,154,15.5,154z"/>
<path class="st6" d="M15.7,154l0,0.1L15.7,154z"/>
<path class="st6" d="M16.5,153.7l0,0.1L16.5,153.7z"/>
<path class="st6" d="M16.4,153L16.4,153L16.4,153L16.4,153z"/>
<path class="st6" d="M16.8,153.8L16.8,153.8L16.8,153.8L16.8,153.8z"/>
<path class="st6" d="M18.2,153.2l-0.1-0.1C18.1,153.1,18.2,153.3,18.2,153.2z"/>
<path class="st6" d="M18.7,152.8C18.8,152.9,18.8,153,18.7,152.8L18.7,152.8z"/>
<path class="st6" d="M20.6,152.4L20.6,152.4L20.6,152.4L20.6,152.4z"/>
<path class="st6" d="M14.6,158.1l0.1,0.1L14.6,158.1L14.6,158.1z"/>
<path class="st6" d="M15,158.2l-0.2-0.3C14.8,158.1,14.8,158,15,158.2l-0.2-0.1l0,0.1C14.9,158.3,14.9,158.3,15,158.2L15,158.2z"/>
<path class="st6" d="M16.7,157.5L16.7,157.5L16.7,157.5z"/>
<path class="st6" d="M17.9,157.1L17.9,157.1L17.9,157.1z"/>
<path class="st6" d="M18.1,157.2L18.1,157.2L18.1,157.2z"/>
<path class="st6" d="M16.7,157.5L16.7,157.5L16.7,157.5z"/>
<path class="st6" d="M14.9,157.8L14.9,157.8L14.9,157.8L14.9,157.8z"/>
<path class="st6" d="M16.3,157.8L16.3,157.8L16.3,157.8L16.3,157.8z"/>
<path class="st6" d="M16,158l-0.1-0.2L16,158L16,158z"/>
<path class="st6" d="M15.4,158.2L15.4,158.2L15.4,158.2z"/>
<path class="st6" d="M16.6,157.7L16.6,157.7L16.6,157.7z"/>
<path class="st6" d="M26.2,151.5L26.2,151.5L26.2,151.5z"/>
<path class="st6" d="M27,151.9L27,151.9L27,151.9L27,151.9z"/>
<path class="st6" d="M18.6,157.2L18.6,157.2L18.6,157.2z"/>
<path class="st6" d="M21.6,155.4c-0.1-0.1,0-0.2-0.1-0.3L21.6,155.4z"/>
<path class="st6" d="M14.9,157.8L14.9,157.8L14.9,157.8z"/>
<path class="st6" d="M21.5,155.1L21.5,155.1L21.5,155.1L21.5,155.1z"/>
<path class="st6" d="M19.4,156.7L19.4,156.7L19.4,156.7z"/>
<path class="st6" d="M18.7,156.8L18.7,156.8L18.7,156.8z"/>
<path class="st6" d="M19.6,156.3L19.6,156.3L19.6,156.3L19.6,156.3z"/>
<path class="st6" d="M19.9,156.2L19.9,156.2L19.9,156.2L19.9,156.2z"/>
<path class="st6" d="M25.3,152l0.1,0.1C25.4,152,25.4,152,25.3,152z"/>
<path class="st6" d="M15,157.8L15,157.8L15,157.8L15,157.8z"/>
<path class="st6" d="M19,155.4L19,155.4L19,155.4z"/>
<path class="st6" d="M23.1,153.2L23.1,153.2L23.1,153.2z"/>
<path class="st6" d="M19.2,155.3L19.2,155.3L19.2,155.3L19.2,155.3z"/>
<path class="st6" d="M25.6,151.7c-0.1,0,0.1,0.2,0.1,0.3C25.6,152,25.6,151.8,25.6,151.7c-0.1,0.2,0,0.3,0,0.3l0-0.1
	c0,0.1-0.1,0.1-0.1,0.2l0,0l0.1,0.2c0,0,0,0.1,0,0l0-0.1l0,0.1c-0.1-0.1,0-0.1-0.1-0.2c0,0.1,0,0.2-0.1,0.2
	c-0.1-0.1,0.1-0.1-0.1-0.2l0.1,0c-0.2-0.2,0,0-0.1-0.2l-0.1,0.1l0.1,0.2c0,0.2-0.3-0.3-0.2-0.1c0,0.1,0.1,0.3,0,0.2l-0.1-0.2
	c-0.1,0,0.1,0.3,0,0.2v-0.1c-0.1-0.1,0,0.1,0,0.1l-0.1-0.1l-0.1,0.3l-0.1-0.1c-0.1,0.1-0.2,0.1-0.4,0.1l0,0.1l-0.1-0.1
	c-0.1,0,0,0.1,0.1,0.1l-0.1-0.1c0,0.1-0.1,0.3-0.2,0.2l0,0c-0.1,0,0.1,0.3,0,0.2l0,0c-0.1,0-0.2,0.2-0.4,0c0.1,0.2-0.2,0,0,0.2
	l-0.3-0.2c0,0,0.1,0.2,0,0.2l-0.1-0.1l0,0.2l-0.1-0.1l0,0.1l0.1,0.1c0,0.1-0.2,0-0.2-0.1l0,0.2l0-0.1c0,0.2-0.1-0.1-0.1,0l0.1,0.1
	c-0.1-0.1-0.1,0-0.2,0l0-0.1l-0.2,0.2l0.1,0.2l-0.1-0.1c0,0.1,0.1,0,0.1,0.2c0,0-0.1-0.2-0.1-0.2l0,0.1l-0.1-0.1
	c0,0.1-0.1-0.1-0.1,0.1l0,0l-0.2,0.2l0.1,0.2l-0.2,0L22,154l-0.1-0.2c-0.1,0.1-0.1,0.1-0.1,0.2l0.1,0.1l-0.1-0.1l0,0
	c0,0.2-0.4-0.2-0.4,0.1l0,0l0,0.2l-0.1-0.1c0,0.2-0.2,0.1-0.2,0.2c-0.2-0.3-0.2,0.1-0.4,0l0,0.1c0,0.1-0.1,0-0.1,0l0.1,0.1
	c-0.1,0.2-0.4,0.1-0.7,0.1c-0.1,0,0.2,0.4,0,0.3l-0.1-0.2c0,0.2-0.3,0.1-0.3,0.4l0-0.1c-0.1-0.1-0.1,0.1-0.1,0.1l-0.1-0.1
	c-0.1,0,0,0.2-0.1,0.1l0,0c0,0.1-0.1,0,0,0.1c-0.1,0-0.1,0.1-0.1,0.1c0.1,0.1-0.1,0,0,0.2c-0.1-0.2-0.2-0.1-0.2,0l-0.1-0.1l0,0.2
	c-0.2-0.2,0,0.2-0.2,0l-0.2,0.4c-0.1-0.2,0.1-0.1,0-0.3c0,0.1,0,0.3-0.1,0.3l0-0.1c0,0.1-0.2,0.1-0.2,0.2l0-0.1c0,0-0.1,0,0,0.1l0,0
	l0.1,0.4c-0.1-0.3-0.1,0-0.2-0.4l0,0.1l-0.1-0.1l0,0.2l0-0.1c0,0.1,0,0.2,0,0.2l0-0.1c-0.1,0,0,0.3-0.2,0.2
	c-0.1-0.2-0.1-0.1-0.1-0.2l0,0.1l0.1,0.1c0,0,0,0.2-0.1,0.1v-0.1l-0.1,0.1l0.1,0c0,0.1,0.1,0.2,0,0.2c0,0,0,0-0.1-0.1l0,0.1
	l-0.1-0.2c0,0.2-0.1,0.1,0,0.2l-0.1-0.1l0,0.1l-0.1-0.1c-0.1,0,0.1,0.2,0,0.1l0-0.1c-0.1,0-0.1,0.1-0.2,0.1c-0.1-0.2,0-0.1,0-0.2
	c-0.1,0.1-0.1,0.3-0.2,0.3l0,0c0.1,0.2-0.1-0.1-0.1,0c0,0,0-0.1,0-0.1c-0.1,0-0.1,0.1-0.2,0.2l0-0.1l-0.2,0l0,0.2
	c-0.3-0.3-0.1,0.3-0.4,0.1l0-0.1l-0.1,0.1l0.1,0.1v0.1l-0.1-0.2l0.1,0.1c-0.1-0.2,0.1,0.2,0,0.1l0-0.1l0,0.1l-0.1-0.2
	c0,0,0.1,0.3,0,0.2l0-0.1c-0.1-0.1-0.1-0.1-0.1-0.1l0,0l-0.1,0l0,0c0.1,0.3-0.1,0.1,0,0.3c-0.1-0.2-0.1-0.1-0.1-0.2l-0.1-0.1
	c0,0.1-0.1,0,0,0.1c0,0,0,0-0.1-0.1l0.1,0.1c0,0.2-0.2-0.1-0.2,0.2l0.1,0.4l-0.1-0.2l-0.1,0.1l-0.1-0.1c0,0,0.1,0.1,0,0.1l-0.1-0.2
	l0,0.2l-0.1-0.2c0,0.1,0,0.1,0,0.2l0.1,0l-0.1-0.1c0-0.1,0.1,0,0.1,0v0c0.2,0.2,0.1-0.1,0.1-0.1l0.1,0.2l-0.1-0.2l0.1,0.2
	c0.1,0.1,0-0.1,0.1,0l0,0l0-0.1l0.1,0.1c0.1,0.1,0-0.2,0.1-0.1l0,0c0-0.1-0.1-0.1-0.1-0.3l0.3,0.3l-0.1-0.1l0.1,0l-0.1-0.1
	c0.1,0.1,0.1-0.1,0.2,0.1l-0.1-0.1c0.2,0.2,0-0.1,0.1,0c0.1,0.1,0,0.1,0.1,0.2c-0.1-0.2,0.1,0,0.1-0.1c-0.1-0.2,0-0.1,0-0.2l0.2,0.1
	l0,0c-0.1-0.2,0-0.2,0-0.2l0.1,0.2l0,0l0-0.1l0.1,0.1c0,0,0-0.2,0.1-0.1c-0.1-0.1-0.2-0.3-0.2-0.4l0.1,0.2l0,0l0,0.1
	c0,0,0-0.1,0-0.1l0.1,0.1l0,0l0.1,0.1l0-0.1c0,0,0.1,0.1,0.1,0.1c0-0.1,0,0,0-0.1l0.1,0.1c0-0.1,0.1-0.1,0-0.2l0,0l0,0
	c0-0.2,0.2,0,0.2-0.1l0,0l0.1-0.2l0.1,0.1c0,0,0-0.1,0.1,0c0,0.1,0,0.1,0,0.1c0.1,0,0.1,0.1,0.1-0.1c0,0.1,0.1,0.1,0.1,0.1l-0.1-0.1
	l0.1,0l0.1,0.2c0.2,0.1,0-0.4,0.2-0.1c0-0.1-0.1-0.1-0.1-0.2c0.1,0,0.2,0.2,0.2,0.2c0.1,0.1,0-0.2,0-0.2l-0.1-0.3
	c0.1,0,0.2,0.2,0.1,0.3l0,0l0,0.1l0-0.1l0.1,0.1l-0.1-0.1l0.2,0l0-0.1c0.1,0,0-0.1,0-0.2c0.1,0.1,0.1,0.2,0.1,0.1l0.1,0.2
	c0-0.1,0.1,0,0.2,0l0,0.1l0,0l-0.1-0.1l0.1,0.1l-0.1-0.3c0,0,0-0.1,0.1,0.1c-0.1,0,0.1,0.1,0,0.2l0,0l0,0c0.1,0.1,0-0.2,0-0.2
	c0,0.1,0.1,0.1,0.1,0.1c0,0-0.1-0.1-0.1-0.2c0.1,0,0-0.1,0.1-0.1l0,0l0-0.1l0,0.1c0-0.2,0.1,0.1,0.1,0l0.1,0.2c0-0.1,0.1,0.1,0.1,0
	l-0.1-0.2l-0.1,0.1l0-0.2l0,0.1l-0.1-0.2c0.1,0.1,0-0.1,0.1,0l0.1,0.3c0.1,0.1,0-0.2,0.2-0.2l-0.1,0c0-0.1,0,0,0-0.1l0.1,0.2
	c0-0.1,0.1,0,0-0.2l0.1,0.1c0.1,0-0.1-0.3,0-0.3l0.1,0.2l0-0.1c0,0,0-0.1,0.1-0.1l0-0.1l0,0l-0.1-0.2c0.2,0.2,0.2-0.1,0.3,0.1
	l0.1-0.1l0,0c0.1,0-0.1-0.3,0-0.2c0.1,0.1,0,0.1,0.1,0.1c0.2,0.3,0.1-0.1,0.2,0.1l0,0c0.1,0.1,0-0.1,0.1-0.2l0,0l0-0.3l0.1,0.2
	l-0.1-0.2l0.2,0.2l0,0c0.1,0.1,0.1,0,0.1,0l0,0.1c0.1-0.1,0-0.2,0-0.3l0,0c-0.1-0.2,0.1,0.1,0.1-0.1l0.1,0.2l0-0.3l0,0.3l0-0.2
	l0,0.1c0-0.2,0-0.2,0-0.3c0.2,0.3,0.2,0,0.4,0.2c0-0.2,0.2,0,0.3-0.1c-0.2-0.2,0,0-0.1-0.3l0,0l0.2,0.1l0,0.1l0.2,0.2l0-0.1
	l-0.1-0.1c0-0.2,0.2,0.2,0.2,0l0,0.1c0-0.1,0.1-0.1,0.1-0.3l0.1,0.1c0.1,0,0.1-0.3,0.2-0.2l0,0.1c0,0,0-0.1,0-0.1l0,0.1
	c0,0,0-0.1,0-0.1l0,0.1c0.1,0,0-0.3,0.1-0.3c0.1,0.2,0.2,0.2,0.3,0.2l0,0c0.1,0,0.1-0.3,0.1-0.4c0.2,0.2,0.3,0,0.4,0l-0.1-0.2
	c0,0,0-0.2,0.1,0h0c0.1,0.2,0.1,0.1,0.2,0.1l-0.1-0.2c0.3,0.3,0.2-0.3,0.4,0l0-0.2l0.1,0.1l0.2-0.1l0,0.1c0.1,0-0.1-0.4-0.1-0.4
	l0.1,0.2c0.1,0,0.2,0.1,0.2-0.1l0,0.1c0,0,0.2,0,0.1-0.2c0.1,0.2,0.1,0,0.1-0.1l0.1,0.1c-0.1-0.2-0.1-0.2,0-0.3l0,0.1
	c0.1,0,0-0.1,0.1-0.1l0,0.1l0-0.2c0-0.1,0.1,0,0.2,0.1c0-0.1-0.1-0.2,0-0.2l0,0.1c0.1,0,0-0.2,0.1-0.1l0,0.1l-0.1,0
	c0.1,0.1,0.1,0.1,0.2,0.3c0-0.1-0.1-0.3,0-0.3l0,0l0,0l0,0l0.1,0c0.1,0.1,0.1,0,0.1,0l-0.1-0.2l0,0l0,0l0,0l-0.1,0
	c0-0.1,0-0.1,0-0.1l-0.1-0.2l0.3,0.3c0-0.1,0.1-0.1,0-0.4c0,0,0.1,0.1,0.1,0.1v0.1c0-0.1,0.1-0.1,0-0.3c0.1,0,0.1,0.2,0.1,0.1l0,0.1
	c0.3,0.2,0-0.5,0.3-0.3l-0.1,0c0.2,0.1,0.3-0.3,0.5-0.2c0.1,0,0-0.1,0-0.2l0.1,0.1l0-0.2c0-0.1,0.3,0.3,0.3,0l-0.1-0.1
	c0,0,0.1-0.1,0.1,0l0-0.1l0,0.1l0-0.2c0.1,0,0.1,0.3,0.2,0.3l0-0.3l-0.1-0.1l0-0.1c-0.1-0.2-0.2-0.4-0.3-0.5l0,0.2l-0.1-0.1l0,0
	c-0.1-0.1,0,0,0,0.1l-0.1-0.1l0.1,0.2l-0.1-0.2l0.1,0.2c-0.1-0.1-0.1-0.2-0.1-0.1l0-0.1l0,0.2c-0.1-0.1-0.1,0.1-0.2-0.1l0,0.2
	c-0.1-0.3-0.1,0-0.2-0.2c0.1,0.2-0.1,0.2-0.1,0.3l0,0l-0.1-0.1L26,152c-0.1-0.1-0.1-0.2-0.2-0.4l0.1,0.3c-0.1-0.1-0.1,0-0.1-0.2
	c0.1,0.2,0,0.1,0,0.2c-0.1-0.1-0.1-0.2-0.1-0.1L25.6,151.7z M24.7,152.6L24.7,152.6L24.7,152.6z M24.6,152.7L24.6,152.7L24.6,152.7
	L24.6,152.7z M25.2,153.4L25.2,153.4L25.2,153.4L25.2,153.4L25.2,153.4z"/>
<path class="st6" d="M25.2,153.2L25.2,153.2L25.2,153.2L25.2,153.2L25.2,153.2z"/>
<path class="st6" d="M16.7,157.5L16.7,157.5L16.7,157.5L16.7,157.5z"/>
<path class="st6" d="M23.2,153.1L23.2,153.1L23.2,153.1L23.2,153.1z"/>
<path class="st6" d="M16,157.3L16,157.3L16,157.3z"/>
<path class="st6" d="M15.7,157.3L15.7,157.3L15.7,157.3z"/>
<path class="st6" d="M15.5,157.4L15.5,157.4L15.5,157.4L15.5,157.4z"/>
<path class="st6" d="M18.2,156L18.2,156L18.2,156z"/>
<path class="st6" d="M17.6,156.5L17.6,156.5L17.6,156.5z"/>
<path class="st6" d="M14.7,157.9L14.7,157.9L14.7,157.9L14.7,157.9z"/>
<path class="st6" d="M14.7,157.9L14.7,157.9L14.7,157.9z"/>
<path class="st6" d="M14.8,158L14.8,158L14.8,158z"/>
<path class="st6" d="M15,157.8L15,157.8L15,157.8z"/>
<path class="st6" d="M15.1,157.7l-0.1,0L15.1,157.7C14.9,157.7,15.1,157.8,15.1,157.7z"/>
<path class="st6" d="M15.7,158L15.7,158l0,0.1C15.9,158.2,15.6,158,15.7,158z"/>
<path class="st6" d="M15.9,158L15.9,158L15.9,158z"/>
<path class="st6" d="M17.2,157.4l0,0.1L17.2,157.4z"/>
<path class="st6" d="M17.1,156.7L17.1,156.7L17.1,156.7L17.1,156.7z"/>
<path class="st6" d="M17.7,157.4L17.7,157.4L17.7,157.4L17.7,157.4z"/>
<path class="st6" d="M19.9,156.3l-0.1-0.1C19.8,156.2,19.9,156.4,19.9,156.3z"/>
<path class="st6" d="M20.7,155.7C20.7,155.7,20.8,155.7,20.7,155.7L20.7,155.7z"/>
<path class="st6" d="M23.6,154.4L23.6,154.4L23.6,154.4L23.6,154.4z"/>
<path class="st6" d="M27.2,154.7L27.2,154.7L27.2,154.7L27.2,154.7z"/>
<path class="st6" d="M26.9,154.6l0.2,0.3C27,154.7,27.1,154.8,26.9,154.6l0.2,0.1l0-0.1C26.9,154.6,26.9,154.6,26.9,154.6
	L26.9,154.6z"/>
<path class="st6" d="M25.5,155.4L25.5,155.4L25.5,155.4z"/>
<path class="st6" d="M24.6,155.9L24.6,155.9L24.6,155.9z"/>
<path class="st6" d="M24.4,155.9L24.4,155.9L24.4,155.9z"/>
<path class="st6" d="M25.5,155.4L25.5,155.4L25.5,155.4z"/>
<path class="st6" d="M27,155L27,155L27,155L27,155z"/>
<path class="st6" d="M25.7,155L25.7,155L25.7,155L25.7,155z"/>
<path class="st6" d="M26,154.8l0.1,0.2L26,154.8L26,154.8z"/>
<path class="st6" d="M26.5,154.6L26.5,154.6L26.5,154.6z"/>
<path class="st6" d="M25.5,155.1L25.5,155.1L25.5,155.1z"/>
<path class="st6" d="M18.4,161.5L18.4,161.5L18.4,161.5z"/>
<path class="st6" d="M17.6,161.2L17.6,161.2L17.6,161.2L17.6,161.2z"/>
<path class="st6" d="M21.6,157.6c0.1,0.1,0,0.2,0.2,0.3L21.6,157.6z"/>
<path class="st6" d="M27,155L27,155L27,155z"/>
<path class="st6" d="M21.8,157.9L21.8,157.9L21.8,157.9L21.8,157.9z"/>
<path class="st6" d="M23.4,156.4L23.4,156.4L23.4,156.4z"/>
<path class="st6" d="M24,156.2L24,156.2L24,156.2z"/>
<path class="st6" d="M23.3,156.7L23.3,156.7L23.3,156.7L23.3,156.7z"/>
<path class="st6" d="M23.1,156.9L23.1,156.9L23.1,156.9L23.1,156.9z"/>
<path class="st6" d="M19,160.9L19,160.9C19,160.9,19,161,19,160.9z"/>
<path class="st6" d="M26.9,155L26.9,155L26.9,155L26.9,155z"/>
<path class="st6" d="M23.9,157.6L23.9,157.6L23.9,157.6z"/>
<path class="st6" d="M20.6,159.7L20.6,159.7L20.6,159.7z"/>
<path class="st6" d="M23.8,157.7L23.8,157.7L23.8,157.7L23.8,157.7z"/>
<path class="st6" d="M18.9,160.8L18.9,160.8L18.9,160.8z"/>
<path class="st6" d="M18.9,161.3c0,0-0.1-0.1-0.2-0.2C18.7,161,18.9,161.1,18.9,161.3l-0.1-0.3l0.1,0.1c-0.1-0.1,0.1-0.1,0-0.2l0,0
	l-0.2-0.2c0,0,0-0.1,0,0l0,0.1l0-0.1c0.1,0.1,0,0.1,0.1,0.2c0-0.1-0.1-0.2,0-0.2c0.1,0.1,0,0.1,0.1,0.2l-0.1,0c0.2,0.2,0,0,0.2,0.2
	l0.1-0.1l-0.1-0.2c0-0.2,0.3,0.3,0.2,0.1c-0.1-0.1-0.2-0.3-0.1-0.2l0.1,0.2c0.1,0-0.1-0.2,0-0.2l0,0.1c0.1,0.1,0-0.1,0-0.1l0.1,0.1
	l0-0.3l0.1,0.1c0-0.1,0.2-0.1,0.3-0.1l-0.1-0.1l0.1,0.1c0.1,0-0.1-0.1-0.1-0.1l0.1,0.1c0-0.1,0-0.3,0.1-0.2l0,0c0.1,0-0.1-0.3,0-0.2
	l0,0c0.1,0,0.1-0.2,0.3-0.1c-0.1-0.2,0.1,0,0-0.2l0.3,0.2c0,0-0.1-0.2-0.1-0.2l0.1,0.1l-0.1-0.2l0.1,0.1v0l-0.1-0.1
	c0-0.1,0.1,0,0.2,0.1l0-0.2l0,0.1c0-0.2,0.1,0.1,0.1,0l-0.1-0.1c0.1,0.1,0.1,0,0.1,0l0.1,0.1l0.2-0.2l-0.1-0.2l0.1,0.1
	c0-0.1-0.1,0-0.1-0.2c0,0,0.1,0.1,0.1,0.2l0-0.1l0.1,0.1c0-0.1,0.1,0.1,0.1-0.1l0,0l0.1-0.2l-0.1-0.2l0.2,0l-0.1-0.2l0.1,0.2
	c0-0.1,0.1-0.1,0.1-0.2l-0.1-0.1l0.1,0.1l0,0c0-0.2,0.4,0.2,0.3-0.1l0,0l0-0.2l0.1,0.1c0-0.2,0.1-0.1,0.1-0.2c0.3,0.3,0.2-0.1,0.4,0
	l-0.1-0.1c0-0.1,0,0,0.1,0l-0.1-0.1c0.1-0.2,0.4-0.1,0.6-0.1c0.1,0-0.2-0.4,0-0.3l0.1,0.2c0-0.2,0.2-0.1,0.2-0.4l0,0.1
	c0.1,0.1,0.1,0,0-0.1l0.1,0.1c0.1,0,0-0.2,0.1-0.1l0,0c0-0.1,0.1,0,0-0.1c0.1,0,0-0.1,0.1-0.1c-0.1-0.1,0.1,0,0-0.2
	c0.1,0.2,0.2,0.1,0.1,0l0.1,0.1l0-0.2c0.2,0.2,0-0.2,0.2,0l0.1-0.4c0.1,0.2-0.1,0.1,0.1,0.3c0-0.1-0.1-0.3,0.1-0.3l0.1,0.1
	c0-0.1,0.2-0.1,0.1-0.2l0,0.1l0-0.1l0,0l-0.2-0.4c0.1,0.3,0.1,0,0.3,0.3l-0.1-0.1l0.1,0.1l0-0.2l0.1,0.1c0-0.1-0.1-0.2,0-0.2l0,0.1
	c0.1-0.1,0-0.3,0.1-0.2c0.1,0.2,0.1,0,0.2,0.2l0-0.1l-0.1-0.1c0,0,0-0.1,0-0.1l0,0.1l0-0.1l-0.1,0c0-0.1-0.1-0.2-0.1-0.2l0.1,0.1
	l0-0.1l0.1,0.2c-0.1-0.1,0-0.1,0-0.2l0.1,0.1l-0.1-0.1l0.1,0.1c0.1,0-0.2-0.2,0-0.1l0,0l0.1-0.1c0.1,0.1,0,0.1,0.1,0.2
	c0-0.1,0-0.3,0.1-0.3l0,0c-0.2-0.2,0.1,0.1,0.1-0.1l0.1,0.1c0.1,0,0-0.1,0.1-0.2l0,0.1l0.1,0l-0.1-0.1c0.3,0.2,0-0.3,0.3-0.1l0,0.1
	l0-0.1l-0.1-0.1l0-0.1l0.2,0.2l-0.1-0.1c0.2,0.1-0.1-0.2,0-0.1l0,0l0-0.1l0.1,0.1c0,0-0.1-0.2,0-0.1l0,0.1c0.1,0.1,0.1,0.1,0.1,0.1
	h0l0.1,0l0,0c-0.2-0.3,0-0.1-0.1-0.3c0.1,0.2,0.1,0.1,0.2,0.2l0.1,0.1c-0.1-0.1,0.1,0,0-0.1c0,0,0,0,0.1,0.1l-0.1-0.1
	c-0.1-0.2,0.2,0.1,0.1-0.1l-0.1-0.3l0.1,0.1l0.1-0.1l0.1,0.1c0,0-0.1-0.1,0-0.1L27,155l-0.1-0.2l0.1,0.2l-0.1-0.2l-0.1,0l0.1,0.1
	c0,0.1-0.1,0-0.1,0l0,0c-0.2-0.2,0,0.1-0.1,0.1l-0.1-0.2l0.1,0.2l-0.1-0.2c-0.1-0.1,0,0.1-0.1,0l0,0l0,0.1l-0.1-0.1
	c-0.1-0.1,0,0.2-0.1,0.1l0,0c0,0.1,0.1,0.1,0.2,0.3l-0.3-0.3l0.1,0.1l-0.1,0l0.1,0.1c-0.1-0.1,0,0.1-0.2-0.1l0.1,0.1
	c-0.2-0.2,0,0.1-0.1,0c-0.1-0.1,0-0.1-0.1-0.1c0.1,0.2-0.1,0-0.1,0.1c0.1,0.1,0,0.1,0,0.2l-0.2,0l0,0c0.1,0.1,0.1,0.1,0,0.2
	l-0.1-0.2l0,0l0,0.1l-0.1-0.1c0,0,0,0.2-0.1,0.1c0.1,0.1,0.3,0.2,0.3,0.4l-0.1-0.2l0,0l-0.1-0.1l0,0.1l-0.1-0.1l0,0l-0.1-0.1
	l0.1,0.1c0,0-0.1-0.1-0.1-0.1c0,0.1,0,0,0.1,0.1l-0.1-0.1c0,0.1-0.1,0.1,0,0.2l0,0v0v0v0c0,0.2-0.2,0-0.2,0.1l0,0l0,0.2l-0.1-0.1
	c0,0,0,0.1-0.1,0.1c0-0.1-0.1-0.1,0-0.1c-0.1,0-0.1-0.1-0.1,0.1c-0.1-0.1-0.1-0.1-0.1-0.1l0.1,0.1l-0.1,0l-0.1-0.1
	c-0.2-0.1,0.1,0.4-0.2,0.1c0.1,0.1,0.1,0,0.1,0.2c0,0-0.2-0.2-0.2-0.2c-0.1,0,0.1,0.2,0,0.2l0.1,0.2c0,0-0.2-0.2-0.2-0.2l0,0
	l-0.1-0.1l0,0.1l-0.1-0.1l0.1,0.1l-0.1,0l0.1,0.1c-0.1,0,0,0.1,0,0.2c-0.1-0.1-0.1-0.2-0.1-0.1l-0.1-0.2c0,0.1-0.1,0-0.1,0l0-0.1
	l0,0l0.1,0.1l-0.1,0l0.2,0.3c-0.1,0,0,0.1-0.1,0c0.1,0-0.1-0.1-0.1-0.2l0,0l0,0c-0.1-0.1,0.1,0.2,0,0.2l-0.1-0.1
	c0,0,0.1,0.1,0.1,0.2l0,0.1l0,0l0,0.1l0-0.1c0.1,0.1-0.1-0.1-0.1,0l-0.1-0.2c0,0.1-0.1-0.1-0.1,0l0.1,0.2l0-0.1l0.1,0.2l0-0.1
	l0.1,0.1c-0.1-0.1,0,0.1-0.1,0l-0.2-0.2c-0.1-0.1,0,0.2-0.1,0.2l0,0c0.1,0.1,0,0,0,0.1l-0.1-0.2c0,0.1-0.1,0,0.1,0.2l-0.1-0.1
	c-0.1,0,0.1,0.3,0,0.3l-0.1-0.2l0,0.1c0,0,0,0.1,0,0.1l0.1,0.1l0,0l0.1,0.2c-0.2-0.2-0.1,0.1-0.3-0.1L23,157l0,0
	c-0.1,0,0.1,0.3,0,0.2c-0.1-0.1,0-0.1-0.1-0.1c-0.2-0.3,0,0.1-0.2-0.1l0,0c-0.1-0.1,0,0.1-0.1,0.2l0,0l0,0.3l-0.1-0.2l0.1,0.2
	l-0.2-0.2l0,0c-0.1-0.1,0,0-0.1,0l0-0.1c0,0.1,0.1,0.2,0,0.2l0,0c0.1,0.2-0.1-0.1,0,0.1l-0.1-0.2l0,0.3l-0.1-0.3l0,0.1l0,0l0,0.3
	c-0.2-0.3-0.2,0-0.4-0.2c0,0.2-0.2,0-0.3,0.1c0.2,0.2,0,0,0.2,0.3l0,0l-0.2-0.1l-0.1-0.1l-0.2-0.1l0,0.1l0.1,0.1
	c0,0.2-0.2-0.2-0.2,0l0-0.1c0,0.1-0.1,0.1,0,0.3l-0.1-0.1c-0.1,0,0,0.3-0.2,0.2l0-0.1c0,0,0.1,0.1,0,0.1l0-0.1l0,0.1l0-0.1
	c-0.1,0,0,0.2,0,0.3c-0.1-0.2-0.2-0.2-0.3-0.2l0,0c-0.1,0,0,0.2-0.1,0.4c-0.2-0.2-0.2,0-0.4,0l0.1,0.2c0,0,0,0.2-0.1,0l0,0
	c-0.1-0.2-0.1-0.1-0.2-0.1l0.1,0.2c-0.3-0.3-0.1,0.2-0.4,0l0,0.1l-0.1-0.1l-0.2,0.1l0-0.1c0,0,0.2,0.4,0.2,0.4l-0.1-0.2
	c-0.1,0-0.2-0.1-0.2,0.1l0-0.1c0,0-0.2,0,0,0.2c-0.1-0.2-0.1,0-0.1,0.1l-0.1-0.1c0.1,0.2,0.1,0.2,0.1,0.3l0-0.1
	c-0.1,0,0.1,0.1,0,0.1l0-0.1l0,0.2c0,0.1-0.1,0-0.2-0.1c0,0.1,0.1,0.2,0,0.1l0-0.1c-0.1,0,0,0.2-0.1,0.1l-0.1-0.1l0.1,0
	c-0.1-0.1-0.1-0.1-0.2-0.3c0,0.1,0.1,0.3,0,0.3l0,0l0,0l0,0l-0.1,0c-0.1-0.1-0.1,0-0.1,0l0.1,0.2v0l0,0l0,0l0,0c0,0.1,0.1,0.1,0,0.1
	L19,160l-0.3-0.3c0,0.1-0.1,0.1,0.1,0.4l-0.1-0.1l0-0.1c0,0.1-0.1,0.1,0,0.2c-0.1,0-0.1-0.1-0.1-0.1l0,0c-0.3-0.1,0.1,0.5-0.2,0.3
	l0.1,0c-0.2,0-0.1,0.3-0.4,0.2c-0.1,0,0,0.1,0,0.2l-0.1-0.1l0.1,0.2c0,0.1-0.3-0.2-0.2,0l0.1,0.1c0,0,0,0.1-0.1,0l0,0l-0.1-0.1
	l0,0.1c-0.1,0-0.2-0.2-0.3-0.2l0.1,0.3l0.1,0.1l0,0c0.2,0.2,0.3,0.4,0.5,0.4l-0.1-0.1l0.1,0.1l0,0c0.1,0.1,0,0,0-0.1l0.1,0.1
	l-0.1-0.2l0.2,0.2l-0.2-0.2c0.1,0.1,0.1,0.1,0.1,0l0.1,0.1l0-0.2c0.1,0.1,0-0.1,0.2,0.1l-0.1-0.2c0.1,0.2,0.1,0,0.3,0.2
	c-0.1-0.2,0-0.1,0-0.3l0,0l0.1,0.1c-0.1-0.1-0.1-0.2-0.2-0.3c0.2,0.1,0.1,0.2,0.3,0.3l-0.2-0.2c0.1,0.1,0.1,0,0.2,0.1
	c-0.2-0.2,0,0-0.1-0.2c0.1,0.1,0.2,0.2,0.1,0.1L18.9,161.3z M19.4,160.3L19.4,160.3L19.4,160.3L19.4,160.3z M19.5,160.2L19.5,160.2
	L19.5,160.2L19.5,160.2z M18.7,159.6L18.7,159.6L18.7,159.6L18.7,159.6L18.7,159.6z"/>
<path class="st6" d="M18.8,159.8L18.8,159.8L18.8,159.8L18.8,159.8L18.8,159.8z"/>
<path class="st6" d="M25.5,155.4L25.5,155.4L25.5,155.4L25.5,155.4z"/>
<path class="st6" d="M20.6,159.8L20.6,159.8L20.6,159.8L20.6,159.8z"/>
<path class="st6" d="M26.2,155.5L26.2,155.5L26.2,155.5z"/>
<path class="st6" d="M26.3,155.4L26.3,155.4L26.3,155.4z"/>
<path class="st6" d="M26.5,155.3L26.5,155.3L26.5,155.3L26.5,155.3z"/>
<path class="st6" d="M24.5,157L24.5,157L24.5,157z"/>
<path class="st6" d="M25,156.3L25,156.3L25,156.3z"/>
<path class="st6" d="M23.9,157.6L23.9,157.6L23.9,157.6L23.9,157.6z"/>
<path class="st6" d="M25,156.4L25,156.4L25,156.4z"/>
<path class="st6" d="M27.1,154.9L27.1,154.9L27.1,154.9L27.1,154.9z"/>
<path class="st6" d="M27.1,154.9L27.1,154.9L27.1,154.9z"/>
<path class="st6" d="M27.1,154.9L27.1,154.9L27.1,154.9z"/>
<path class="st6" d="M26.9,155L26.9,155L26.9,155z"/>
<path class="st6" d="M26.9,155.1l0.1,0L26.9,155.1C27,155.1,26.8,155,26.9,155.1z"/>
<path class="st6" d="M26.2,154.8L26.2,154.8l0-0.1C26,154.6,26.3,154.7,26.2,154.8z"/>
<path class="st6" d="M26,154.8L26,154.8L26,154.8z"/>
<path class="st6" d="M25.1,155.5l-0.1-0.1L25.1,155.5z"/>
<path class="st6" d="M25.3,156.2L25.3,156.2L25.3,156.2L25.3,156.2z"/>
<path class="st6" d="M24.7,155.6L24.7,155.6L24.7,155.6L24.7,155.6z"/>
<path class="st6" d="M23,156.7l0.1,0.1C23.1,156.8,23,156.7,23,156.7z"/>
<path class="st6" d="M22.4,157.3C22.4,157.3,22.3,157.3,22.4,157.3L22.4,157.3z"/>
<path class="st6" d="M20.1,158.6L20.1,158.6L20.1,158.6L20.1,158.6z"/>
<path class="st12" d="M13.5,76.5c0,0,8.7-6.6,18.9-6.9C42.7,69.3,43,79,43,79s7.8-10,19.2-10.2C73.5,68.6,76.5,79,76.5,79
	s10.7-11.3,22.9-8.7c12.2,2.6,11.7,9,11.7,9s7.4-8.5,18-5.7c10.6,2.7,14.1,13.2,14.1,13.2s4.8-13.1,15.2-9
	c10.5,4,20.5,13.9,20.5,13.9s-9.9-54.9-47.3-70.9c-24-10.3-62.5-10-84.5,6.6C26.6,43.1,13.5,76.5,13.5,76.5z"/>
<path class="st4" d="M97.9,16.2c0.6-3.7,4.1-14.5,4.1-14.5v13.6C102.1,15.3,101,17.5,97.9,16.2z"/>
<path class="st10" d="M74.1,33.2c0,1.1-0.9,1.9-1.9,1.9c-1.1,0-1.9-0.9-1.9-1.9c0-1.1,0.9-1.9,1.9-1.9
	C73.2,31.3,74.1,32.1,74.1,33.2z"/>
<path class="st10" d="M63.8,22.9c0,1.1-0.9,1.9-1.9,1.9c-1.1,0-1.9-0.9-1.9-1.9c0-1.1,0.9-1.9,1.9-1.9C62.9,21,63.8,21.9,63.8,22.9z
	"/>
<path class="st10" d="M89.8,38.4c0,1.1-0.9,1.9-1.9,1.9c-1.1,0-1.9-0.9-1.9-1.9c0-1.1,0.9-1.9,1.9-1.9
	C88.9,36.5,89.8,37.4,89.8,38.4z"/>
<path class="st10" d="M107.3,39.4c0,1.1-0.9,1.9-1.9,1.9c-1.1,0-1.9-0.9-1.9-1.9c0-1.1,0.9-1.9,1.9-1.9
	C106.4,37.5,107.3,38.3,107.3,39.4z"/>
<path class="st10" d="M100,30.1c0,1.1-0.9,1.9-1.9,1.9c-1.1,0-1.9-0.9-1.9-1.9c0-1.1,0.9-1.9,1.9-1.9C99.2,28.2,100,29.1,100,30.1z"
	/>
<path class="st10" d="M107.3,19.4c0,1.1-0.9,1.9-1.9,1.9c-1.1,0-1.9-0.9-1.9-1.9s0.9-1.9,1.9-1.9C106.4,17.5,107.3,18.3,107.3,19.4z
	"/>
<path class="st10" d="M96.2,17.5c0,1.1-0.9,1.9-1.9,1.9c-1.1,0-1.9-0.9-1.9-1.9c0-1.1,0.9-1.9,1.9-1.9
	C95.3,15.6,96.2,16.4,96.2,17.5z"/>
<path class="st10" d="M87.2,26.3c0,1.1-0.9,1.9-1.9,1.9c-1.1,0-1.9-0.9-1.9-1.9c0-1.1,0.9-1.9,1.9-1.9
	C86.3,24.4,87.2,25.2,87.2,26.3z"/>
<path class="st10" d="M77.9,18.9c0,1.1-0.9,1.9-1.9,1.9c-1.1,0-1.9-0.9-1.9-1.9c0-1.1,0.9-1.9,1.9-1.9C77.1,17,77.9,17.8,77.9,18.9z
	"/>
<path class="st10" d="M114.1,29.4c0,1.1-0.9,1.9-1.9,1.9c-1.1,0-1.9-0.9-1.9-1.9s0.9-1.9,1.9-1.9C113.2,27.5,114.1,28.3,114.1,29.4z
	"/>
<path class="st10" d="M126.1,24.9c0,1.1-0.9,1.9-1.9,1.9c-1.1,0-1.9-0.9-1.9-1.9s0.9-1.9,1.9-1.9C125.2,22.9,126.1,23.8,126.1,24.9z
	"/>
<path class="st10" d="M124.1,38.5c0,1.1-0.9,1.9-1.9,1.9c-1.1,0-1.9-0.9-1.9-1.9c0-1.1,0.9-1.9,1.9-1.9
	C123.3,36.6,124.1,37.5,124.1,38.5z"/>
<path class="st10" d="M137.3,32c0,1.1-0.9,1.9-1.9,1.9c-1.1,0-1.9-0.9-1.9-1.9c0-1.1,0.9-1.9,1.9-1.9C136.5,30.1,137.3,31,137.3,32z
	"/>
<path class="st10" d="M76,44.9c0,1.1-0.9,1.9-1.9,1.9c-1.1,0-1.9-0.9-1.9-1.9c0-1.1,0.9-1.9,1.9-1.9C75.1,43,76,43.9,76,44.9z"/>
<path class="st10" d="M59.3,33.9c0,1.1-0.9,1.9-1.9,1.9c-1.1,0-1.9-0.9-1.9-1.9c0-1.1,0.9-1.9,1.9-1.9C58.4,32,59.3,32.9,59.3,33.9z
	"/>
<path class="st10" d="M98.1,49.6c0,1.1-0.9,1.9-1.9,1.9c-1.1,0-1.9-0.9-1.9-1.9c0-1.1,0.9-1.9,1.9-1.9
	C97.3,47.7,98.1,48.6,98.1,49.6z"/>
<path class="st10" d="M118.6,48.7c0,1.1-0.9,1.9-1.9,1.9c-1.1,0-1.9-0.9-1.9-1.9c0-1.1,0.9-1.9,1.9-1.9
	C117.7,46.8,118.6,47.7,118.6,48.7z"/>
<path class="st10" d="M61.2,46.8c0,1.1-0.9,1.9-1.9,1.9c-1.1,0-1.9-0.9-1.9-1.9c0-1.1,0.9-1.9,1.9-1.9
	C60.3,44.9,61.2,45.8,61.2,46.8z"/>
<path class="st10" d="M55.4,65.5c0,1.1-0.9,1.9-1.9,1.9c-1.1,0-1.9-0.9-1.9-1.9c0-1.1,0.9-1.9,1.9-1.9
	C54.6,63.6,55.4,64.5,55.4,65.5z"/>
<path class="st10" d="M39.6,67.4c0,1.1-0.9,1.9-1.9,1.9c-1.1,0-1.9-0.9-1.9-1.9c0-1.1,0.9-1.9,1.9-1.9
	C38.7,65.5,39.6,66.4,39.6,67.4z"/>
<path class="st10" d="M47,39.4c0,1.1-0.9,1.9-1.9,1.9c-1.1,0-1.9-0.9-1.9-1.9c0-1.1,0.9-1.9,1.9-1.9C46.2,37.5,47,38.3,47,39.4z"/>
<path class="st10" d="M83.2,55.1c0,1.1-0.9,1.9-1.9,1.9c-1.1,0-1.9-0.9-1.9-1.9c0-1.1,0.9-1.9,1.9-1.9
	C82.3,53.2,83.2,54.1,83.2,55.1z"/>
<path class="st10" d="M76,67.4c0,1.1-0.9,1.9-1.9,1.9c-1.1,0-1.9-0.9-1.9-1.9c0-1.1,0.9-1.9,1.9-1.9C75.1,65.5,76,66.4,76,67.4z"/>
<path class="st10" d="M68.8,58.9c0,1.1-0.9,1.9-1.9,1.9c-1.1,0-1.9-0.9-1.9-1.9c0-1.1,0.9-1.9,1.9-1.9C67.9,57,68.8,57.9,68.8,58.9z
	"/>
<path class="st10" d="M49,51.5c0,1.1-0.9,1.9-1.9,1.9c-1.1,0-1.9-0.9-1.9-1.9c0-1.1,0.9-1.9,1.9-1.9C48.1,49.6,49,50.5,49,51.5z"/>
<path class="st10" d="M35.8,55.1c0,1.1-0.9,1.9-1.9,1.9c-1.1,0-1.9-0.9-1.9-1.9c0-1.1,0.9-1.9,1.9-1.9
	C34.9,53.2,35.8,54.1,35.8,55.1z"/>
<path class="st10" d="M107.3,58.9c0,1.1-0.9,1.9-1.9,1.9c-1.1,0-1.9-0.9-1.9-1.9c0-1.1,0.9-1.9,1.9-1.9
	C106.4,57,107.3,57.9,107.3,58.9z"/>
<path class="st10" d="M92.4,65.5c0,1.1-0.9,1.9-1.9,1.9c-1.1,0-1.9-0.9-1.9-1.9c0-1.1,0.9-1.9,1.9-1.9
	C91.6,63.6,92.4,64.5,92.4,65.5z"/>
<path class="st10" d="M132.4,57c0,1.1-0.9,1.9-1.9,1.9c-1.1,0-1.9-0.9-1.9-1.9c0-1.1,0.9-1.9,1.9-1.9C131.6,55.1,132.4,56,132.4,57z
	"/>
<path class="st10" d="M135.4,72.5c0,1.1-0.9,1.9-1.9,1.9c-1.1,0-1.9-0.9-1.9-1.9c0-1.1,0.9-1.9,1.9-1.9
	C134.5,70.6,135.4,71.4,135.4,72.5z"/>
<path class="st10" d="M145,63.6c0,1.1-0.9,1.9-1.9,1.9c-1.1,0-1.9-0.9-1.9-1.9c0-1.1,0.9-1.9,1.9-1.9C144.1,61.7,145,62.6,145,63.6z
	"/>
<path class="st10" d="M155.6,70.6c0,1.1-0.9,1.9-1.9,1.9c-1.1,0-1.9-0.9-1.9-1.9c0-1.1,0.9-1.9,1.9-1.9
	C154.7,68.7,155.6,69.5,155.6,70.6z"/>
<path class="st10" d="M160.8,59.2c0,1.1-0.9,1.9-1.9,1.9c-1.1,0-1.9-0.9-1.9-1.9c0-1.1,0.9-1.9,1.9-1.9
	C159.9,57.3,160.8,58.2,160.8,59.2z"/>
<path class="st10" d="M168.9,72.5c0,1.1-0.9,1.9-1.9,1.9c-1.1,0-1.9-0.9-1.9-1.9c0-1.1,0.9-1.9,1.9-1.9
	C168.1,70.6,168.9,71.4,168.9,72.5z"/>
<path class="st10" d="M121.7,65.5c0,1.1-0.9,1.9-1.9,1.9c-1.1,0-1.9-0.9-1.9-1.9c0-1.1,0.9-1.9,1.9-1.9
	C120.9,63.6,121.7,64.5,121.7,65.5z"/>
<path class="st10" d="M149.3,50.7c0,1.1-0.9,1.9-1.9,1.9c-1.1,0-1.9-0.9-1.9-1.9c0-1.1,0.9-1.9,1.9-1.9
	C148.4,48.7,149.3,49.6,149.3,50.7z"/>
<path class="st10" d="M137.6,44.2c0,1.1-0.9,1.9-1.9,1.9c-1.1,0-1.9-0.9-1.9-1.9c0-1.1,0.9-1.9,1.9-1.9
	C136.7,42.3,137.6,43.1,137.6,44.2z"/>
<path class="st10" d="M149.3,38.3c0,1.1-0.9,1.9-1.9,1.9c-1.1,0-1.9-0.9-1.9-1.9c0-1.1,0.9-1.9,1.9-1.9
	C148.4,36.4,149.3,37.3,149.3,38.3z"/>
<path class="st3" d="M94.9,126.6c0.2-0.2,0.1-0.4,0.3-0.5l0.3,0.4c0.2-0.1,0.2-0.3,0-0.6l-0.5,0.2l0.2-0.3l-0.2,0l-0.1-0.1l-0.1,0.2
	l-0.2-0.3l-0.2,0.3l0.6,0.4"/>
<path class="st3" d="M36.1,124.8l0-0.2l-0.3,0C35.9,124.7,35.9,124.7,36.1,124.8"/>
<path class="st3" d="M35.6,124.9c0.1,0.2-0.1,0.2-0.2,0.1L35.6,124.9"/>
<path class="st3" d="M35.7,126.1c-0.1-0.1,0-0.1-0.2-0.3c-0.1,0.1,0,0.1,0,0.1"/>
<path class="st3" d="M35.1,125.3c-0.1-0.1-0.2-0.1-0.2,0.1l0.2,0.2L35.1,125.3"/>
<path class="st3" d="M34.4,125.8c-0.1,0.1-0.2,0.1-0.2,0.4c0.1,0.3,0.3,0.5,0.2,0.7c0.4,0.3-0.1,0.4-0.2,0.3c0,0.5-0.6-0.1-0.9-0.5
	c0.3,0,0.3-0.2,0.4-0.3c0.1-0.2,0-0.5,0.2-0.5c0.4,0.4,0.3-0.2,0.6,0.2"/>
<path class="st3" d="M33.3,126.9l-0.2-0.2c0.1,0.2,0,0.3-0.1,0.2l0-0.1l-0.2,0.1c0.3,0.3,0.7,0.3,0.4,0"/>
<path class="st3" d="M33.6,128.1l-0.2-0.3l-0.1,0.1l0.1,0.1c-0.2-0.2-0.4-0.1-0.4,0.1l0.1,0.1l0-0.1C33.5,128.6,33.4,128,33.6,128.1
	"/>
<path class="st3" d="M32.7,127.3C32.8,127.4,32.7,127.3,32.7,127.3l0.1,0.2C32.7,127.3,32.7,127.4,32.7,127.3l0.1,0.1"/>
<path class="st3" d="M34.1,127.5c0,0.2-0.3,0.3-0.5-0.1c-0.2-0.3,0.1-0.3,0.3,0.1L34.1,127.5"/>
<path class="st3" d="M32.5,128.3c-0.2,0.2,0.1,0.8-0.5,0.5c0.1,0.3,0.1,0.8-0.4,0.3c0.1,0.3-0.1,0.3,0,0.6l-0.2-0.2
	c0,0.3-0.4,0.2-0.6-0.3l-0.3,0c0-0.2,0.1-0.2,0.1-0.4c0-0.1-0.2-0.5-0.2-0.6c0.1,0,0.3,0.1,0.5,0.3l0-0.1l-0.1-0.1
	c0-0.1,0.2-0.1,0.3,0l0.2,0.3c0-0.1,0.1-0.2,0.2-0.2l-0.3-0.4l0.2,0c-0.5-0.5,0-0.5,0.4,0c0.1,0,0.4,0.1,0.4-0.1
	c0.3,0.2,0.2,0,0.3,0l-0.1,0.4L32.5,128.3C32.6,128.4,32.5,128.3,32.5,128.3z"/>
<path class="st3" d="M33.2,127.5c0,0.2,0,0.2-0.1,0.2c-0.1,0.1,0,0.2-0.2,0.1c-0.2-0.1-0.2-0.1-0.1-0.2l0.1,0l0.1-0.1
	C33.2,127.8,33.2,127.5,33.2,127.5L33.2,127.5"/>
<path class="st3" d="M30.4,129.2c0,0.1-0.2,0.3-0.3,0.1C30,129.2,30.2,129,30.4,129.2"/>
<path class="st3" d="M30.8,129.6c-0.1,0-0.1,0.5-0.3,0.3c-0.2-0.2,0.1-0.1,0.2-0.2L30.8,129.6"/>
</svg>
