<?xml version="1.0" encoding="UTF-8" standalone="no"?>
<!-- Generator: Adobe Illustrator 15.1.0, SVG Export Plug-In . SVG Version: 6.00 Build 0)  -->

<svg
   version="1.1"
   id="Capa_1"
   x="0px"
   y="0px"
   width="251"
   height="158"
   viewBox="0 0 250.99999 158"
   enable-background="new 0 0 589 486.141"
   xml:space="preserve"
   sodipodi:docname="svgGlo5Chimney.svg"
   inkscape:version="1.2.1 (9c6d41e410, 2022-07-14)"
   xmlns:inkscape="http://www.inkscape.org/namespaces/inkscape"
   xmlns:sodipodi="http://sodipodi.sourceforge.net/DTD/sodipodi-0.dtd"
   xmlns:xlink="http://www.w3.org/1999/xlink"
   xmlns="http://www.w3.org/2000/svg"
   xmlns:svg="http://www.w3.org/2000/svg"><defs
   id="defs836"><clipPath
     id="SVGID_2_">
		<use
   xlink:href="#SVGID_1_"
   overflow="visible"
   id="use732" />
	</clipPath><path
     id="SVGID_1_"
     d="m 185.252,219.547 77.495,-86.37 V 90.966 h 64.723 c 0,0 -2.814,34.203 0,41.563 2.814,7.145 71.65,85.504 71.65,85.504 z" /></defs><sodipodi:namedview
   id="namedview834"
   pagecolor="#ffffff"
   bordercolor="#000000"
   borderopacity="0.25"
   inkscape:showpageshadow="2"
   inkscape:pageopacity="0.0"
   inkscape:pagecheckerboard="0"
   inkscape:deskcolor="#d1d1d1"
   showgrid="false"
   inkscape:zoom="2.1125559"
   inkscape:cx="12.307367"
   inkscape:cy="151.94864"
   inkscape:window-width="3840"
   inkscape:window-height="2066"
   inkscape:window-x="-11"
   inkscape:window-y="-11"
   inkscape:window-maximized="1"
   inkscape:current-layer="Capa_1" />




















































<g
   id="g4208"
   transform="matrix(0.39128847,0,0,0.39128847,-103.54763,-85.954927)"><path
     fill="#1f5c56"
     d="m 869.1854,617.77158 h -575.798 l 31.389,-127.715 h 528.608 z"
     id="path549" /><path
     fill="#5b5647"
     d="m 695.3654,406.28358 h -237.463 v 149.146 h 237.464 z"
     id="path551" /><path
     fill="#362e27"
     d="m 695.3654,431.82658 h -237.463 v 98.709 h 237.464 z"
     id="path553" /><path
     fill="#e76901"
     d="m 695.3654,363.20658 h -237.463 v 68.619 h 237.464 z"
     id="path555" /><path
     fill="#ff8000"
     d="m 538.6424,382.68958 c 0,0.434 -0.433,0.866 -1.081,0.866 h -40.912 c -0.649,0 -1.083,-0.434 -1.083,-0.866 v -12.122 c 0,-0.433 0.433,-0.866 1.083,-0.866 h 40.912 c 0.648,0 1.081,0.434 1.081,0.866 z"
     id="path557" /><path
     fill="#ff8000"
     d="m 710.9494,382.68958 c 0,0.434 -0.433,0.866 -1.082,0.866 h -40.912 c -0.648,0 -1.082,-0.434 -1.082,-0.866 v -12.122 c 0,-0.433 0.434,-0.866 1.082,-0.866 h 40.912 c 0.649,0 1.082,0.434 1.082,0.866 z"
     id="path559" /><path
     fill="#fe9625"
     d="m 581.7204,382.68958 c 0,0.434 -0.434,0.866 -1.084,0.866 h -40.911 c -0.648,0 -1.083,-0.434 -1.083,-0.866 v -12.122 c 0,-0.433 0.434,-0.866 1.083,-0.866 h 40.911 c 0.65,0 1.084,0.434 1.084,0.866 z"
     id="path561" /><path
     fill="#e76901"
     d="m 624.7974,382.68958 c 0,0.434 -0.434,0.866 -1.082,0.866 h -40.912 c -0.649,0 -1.082,-0.434 -1.082,-0.866 v -12.122 c 0,-0.433 0.433,-0.866 1.082,-0.866 h 40.912 c 0.648,0 1.082,0.434 1.082,0.866 z"
     id="path563" /><path
     fill="#e76901"
     d="m 495.5674,382.68958 c 0,0.434 -0.434,0.866 -1.082,0.866 h -41.128 c -0.649,0 -1.083,-0.434 -1.083,-0.866 v -12.122 c 0,-0.433 0.433,-0.866 1.083,-0.866 h 40.912 c 0.648,0 1.083,0.434 1.083,0.866 v 12.122 z"
     id="path565" /><path
     fill="#fe9625"
     d="m 667.8734,382.68958 c 0,0.434 -0.434,0.866 -1.082,0.866 h -40.912 c -0.649,0 -1.082,-0.434 -1.082,-0.866 v -12.122 c 0,-0.433 0.433,-0.866 1.082,-0.866 h 40.912 c 0.648,0 1.082,0.434 1.082,0.866 z"
     id="path567" /><path
     fill="#e76901"
     d="m 516.9974,396.54358 c 0,0.433 -0.433,0.865 -1.082,0.865 h -40.912 c -0.648,0 -1.083,-0.433 -1.083,-0.865 v -12.122 c 0,-0.434 0.434,-0.866 1.083,-0.866 h 40.912 c 0.649,0 1.082,0.433 1.082,0.866 z"
     id="path569" /><path
     fill="#ff8000"
     d="m 560.0734,396.54358 c 0,0.433 -0.434,0.865 -1.083,0.865 h -40.912 c -0.649,0 -1.083,-0.433 -1.083,-0.865 v -12.122 c 0,-0.434 0.433,-0.866 1.083,-0.866 h 40.912 c 0.648,0 1.083,0.433 1.083,0.866 z"
     id="path571" /><path
     fill="#ff8000"
     d="m 499.0304,433.77558 c -0.649,0 -1.082,-0.433 -1.082,-0.865 v -34.418 c 0,-0.433 0.433,-0.865 1.082,-0.865 h 13.205 c 0.648,0 1.083,0.433 1.083,0.865 v 34.418 c 0,0.434 -0.434,0.865 -1.083,0.865 z"
     id="path573" /><path
     fill="#e76901"
     d="m 514.1824,433.77558 c -0.648,0 -1.083,-0.433 -1.083,-0.865 v -34.418 c 0,-0.433 0.434,-0.865 1.083,-0.865 h 13.205 c 0.649,0 1.082,0.433 1.082,0.865 v 34.418 c 0,0.434 -0.433,0.865 -1.082,0.865 z"
     id="path575" /><path
     fill="#ff8000"
     d="m 529.3354,433.77558 c -0.648,0 -1.082,-0.433 -1.082,-0.865 v -34.418 c 0,-0.433 0.434,-0.865 1.082,-0.865 h 13.205 c 0.649,0 1.083,0.433 1.083,0.865 v 34.418 c 0,0.434 -0.433,0.865 -1.083,0.865 z"
     id="path577" /><path
     fill="#e76901"
     d="m 544.4884,433.77558 c -0.434,0 -1.083,-0.433 -1.083,-0.865 v -34.418 c 0,-0.433 0.433,-0.865 1.083,-0.865 h 13.205 c 0.648,0 1.082,0.433 1.082,0.865 v 34.418 c 0,0.434 -0.434,0.865 -1.082,0.865 z"
     id="path579" /><path
     fill="#fe9625"
     d="m 559.8574,433.77558 c -0.649,0 -1.083,-0.433 -1.083,-0.865 v -34.418 c 0,-0.433 0.433,-0.865 1.083,-0.865 h 13.204 c 0.648,0 1.083,0.433 1.083,0.865 v 34.418 c 0,0.434 -0.434,0.865 -1.083,0.865 z"
     id="path581" /><path
     fill="#fe9625"
     d="m 483.8784,433.77558 c -0.648,0 -1.083,-0.433 -1.083,-0.865 v -34.418 c 0,-0.433 0.434,-0.865 1.083,-0.865 h 13.205 c 0.649,0 1.082,0.433 1.082,0.865 v 34.418 c 0,0.434 -0.433,0.865 -1.082,0.865 z"
     id="path583" /><path
     fill="#e76901"
     d="m 575.0084,433.77558 c -0.433,0 -1.082,-0.433 -1.082,-0.865 v -34.418 c 0,-0.433 0.434,-0.865 1.082,-0.865 h 13.204 c 0.65,0 1.084,0.433 1.084,0.865 v 34.418 c 0,0.434 -0.434,0.865 -1.084,0.865 z"
     id="path585" /><path
     fill="#ff8000"
     d="m 590.1624,433.77558 c -0.434,0 -1.082,-0.433 -1.082,-0.865 v -34.418 c 0,-0.433 0.432,-0.865 1.082,-0.865 h 13.205 c 0.647,0 1.082,0.433 1.082,0.865 v 34.418 c 0,0.434 -0.435,0.865 -1.082,0.865 z"
     id="path587" /><path
     fill="#fe9625"
     d="m 605.3154,433.77558 c -0.435,0 -1.082,-0.433 -1.082,-0.865 v -34.418 c 0,-0.433 0.434,-0.865 1.082,-0.865 h 13.205 c 0.647,0 1.081,0.433 1.081,0.865 v 34.418 c 0,0.434 -0.434,0.865 -1.081,0.865 z"
     id="path589" /><path
     fill="#fe9625"
     d="m 650.9884,433.77558 c -0.433,0 -1.082,-0.433 -1.082,-0.865 v -34.418 c 0,-0.433 0.434,-0.865 1.082,-0.865 h 13.205 c 0.647,0 1.082,0.433 1.082,0.865 v 34.418 c 0,0.434 -0.435,0.865 -1.082,0.865 z"
     id="path591" /><path
     fill="#e76901"
     d="m 620.4664,433.77558 c -0.647,0 -1.082,-0.433 -1.082,-0.865 v -34.418 c 0,-0.433 0.435,-0.865 1.082,-0.865 h 13.205 c 0.648,0 1.082,0.433 1.082,0.865 v 34.418 c 0,0.434 -0.434,0.865 -1.082,0.865 z"
     id="path593" /><path
     fill="#e76901"
     d="m 666.1404,433.77558 c -0.432,0 -1.082,-0.433 -1.082,-0.865 v -34.418 c 0,-0.433 0.435,-0.865 1.082,-0.865 h 13.205 c 0.65,0 1.082,0.433 1.082,0.865 v 34.418 c 0,0.434 -0.432,0.865 -1.082,0.865 z"
     id="path595" /><path
     fill="#ff8000"
     d="m 635.6194,433.77558 c -0.432,0 -1.082,-0.433 -1.082,-0.865 v -34.418 c 0,-0.433 0.434,-0.865 1.082,-0.865 h 13.205 c 0.647,0 1.082,0.433 1.082,0.865 v 34.418 c 0,0.434 -0.435,0.865 -1.082,0.865 z"
     id="path597" /><path
     fill="#e76901"
     d="m 603.1514,396.54358 c 0,0.433 -0.435,0.865 -1.082,0.865 h -40.913 c -0.649,0 -1.083,-0.433 -1.083,-0.865 v -12.122 c 0,-0.434 0.433,-0.866 1.083,-0.866 h 40.913 c 0.647,0 1.082,0.433 1.082,0.866 z"
     id="path599" /><path
     fill="#ff8000"
     d="m 646.2274,396.54358 c 0,0.433 -0.435,0.865 -1.082,0.865 h -40.912 c -0.65,0 -1.082,-0.433 -1.082,-0.865 v -12.122 c 0,-0.434 0.432,-0.866 1.082,-0.866 h 40.912 c 0.647,0 1.081,0.433 1.081,0.866 z"
     id="path601" /><path
     fill="#e76901"
     d="m 689.5204,396.54358 c 0,0.433 -0.435,0.865 -1.082,0.865 h -41.13 c -0.647,0 -1.081,-0.433 -1.081,-0.865 v -12.122 c 0,-0.434 0.434,-0.866 1.081,-0.866 h 41.13 c 0.647,0 1.082,0.433 1.082,0.866 z"
     id="path603" /><path
     fill="#869a2a"
     d="m 546.0034,432.69358 c 0,6.277 -4.979,11.256 -11.04,11.256 -6.061,0 -11.04,-5.193 -11.04,-11.256 0,-6.276 4.979,-11.256 11.04,-11.256 6.278,-0.217 11.04,4.978 11.04,11.256 z"
     id="path605" /><path
     fill="#869a2a"
     d="m 512.2354,436.58958 c 0.865,7.144 -4.979,11.688 -11.256,11.688 -6.277,0 -10.823,-4.763 -11.257,-11.688 -0.433,-6.494 5.195,-11.04 11.257,-11.689 6.71,-0.65 10.606,5.195 11.256,11.689 z"
     id="path607" /><path
     fill="#869a2a"
     d="m 527.1714,490.27358 c 0,0 8.659,16.234 12.988,19.481 3.463,2.598 5.195,1.299 5.195,1.299 0,0 10.391,-3.463 8.875,-1.082 -1.516,2.381 -8.227,3.68 -8.227,3.68 0,0 12.122,0.649 10.607,2.165 -1.732,1.516 -11.689,1.731 -11.689,1.731 0,0 12.771,3.464 9.957,4.112 -4.113,0.865 -15.152,-0.648 -16.667,-3.247 -1.516,-2.382 -14.72,-15.586 -17.967,-19.481 -3.679,-3.68 6.928,-8.658 6.928,-8.658 z"
     id="path609" /><path
     fill="#ffffff"
     d="m 543.8394,432.69358 c 0,4.979 -3.896,9.092 -8.659,9.092 -4.763,0 -8.658,-4.112 -8.658,-9.092 0,-4.979 3.896,-9.092 8.658,-9.092 4.763,0 8.659,3.896 8.659,9.092 z"
     id="path611" /><g
     id="g691"
     transform="translate(286.1854,137.63058)">
	<path
   fill="#869a2a"
   d="m 221.72,293.98 c 22.079,-3.247 65.589,6.71 61.909,27.059 -3.031,16.668 -22.296,19.915 -22.296,19.915 0,0 -3.247,19.049 -27.708,20.563 -13.422,19.266 -35.718,31.388 -57.363,30.089 -21.431,-1.299 -32.903,-22.513 -18.399,-48.922 13.854,-24.894 37.665,-30.305 37.665,-30.305 0,0 5.843,-15.585 26.192,-18.399 z"
   id="path613" />
	<path
   fill="#6a2403"
   d="m 217.391,342.469 c 2.598,1.73 1.299,4.762 -1.515,3.03 -2.598,-1.731 -1.083,-4.763 1.515,-3.03 z"
   id="path615" />
	<path
   fill="#6a2403"
   d="m 210.68,346.798 c 2.813,1.73 1.515,4.763 -1.299,3.247 -2.814,-1.517 -1.516,-4.979 1.299,-3.247 z"
   id="path617" />
	<path
   fill="#6a2403"
   d="m 203.321,339.654 c 2.599,1.732 1.299,4.979 -1.515,3.247 -2.598,-1.731 -1.083,-4.978 1.515,-3.247 z"
   id="path619" />
	<path
   fill="#6a2403"
   d="m 211.763,328.398 c -2.599,-1.947 -0.649,-5.194 1.948,-3.029 2.381,1.947 0.65,4.978 -1.948,3.029 z"
   id="path621" />
	<path
   fill="#6a2403"
   d="m 189.467,336.191 c -2.814,-1.731 -1.083,-5.412 1.73,-3.681 2.599,1.732 0.868,5.196 -1.73,3.681 z"
   id="path623" />
	<path
   fill="#6a2403"
   d="m 169.985,337.49 v -0.648 c 1.082,-2.598 5.628,-1.083 4.762,1.515 -0.433,1.083 -1.515,1.517 -2.598,1.299 0.216,1.517 -0.866,3.03 -3.03,2.165 -2.381,-1.3 -1.515,-4.764 0.866,-4.331 z"
   id="path625" />
	<path
   fill="#6a2403"
   d="m 189.467,325.151 c -2.599,-1.73 -0.649,-5.412 1.947,-3.68 2.599,1.732 0.651,5.412 -1.947,3.68 z"
   id="path627" />
	<path
   fill="#6a2403"
   d="m 171.283,355.89 c -1.515,-0.649 -1.947,-1.948 -1.731,-3.03 0,-0.217 0,-0.649 0,-0.865 0.866,-2.599 5.628,-1.3 4.762,1.082 l -0.433,0.648 c 0.433,1.515 -0.649,3.03 -2.598,2.165 z"
   id="path629" />
	<path
   fill="#6a2403"
   d="m 184.704,300.475 c -3.03,0.433 -4.329,-4.33 -1.083,-4.763 3.032,-0.217 4.114,4.546 1.083,4.763 z"
   id="path631" />
	<path
   fill="#6a2403"
   d="m 195.743,312.597 c 3.031,0 4.329,4.329 1.516,4.545 -3.03,0 -4.545,-4.329 -1.516,-4.545 z"
   id="path633" />
	<path
   fill="#6a2403"
   d="m 216.092,339.222 c 3.03,-0.433 4.546,4.112 1.516,4.546 -3.032,0.433 -4.546,-4.114 -1.516,-4.546 z"
   id="path635" />
	<path
   fill="#6a2403"
   d="m 202.454,326.883 c -3.029,0.648 -4.762,-4.112 -1.515,-4.546 3.031,-0.433 4.547,4.114 1.515,4.546 z"
   id="path637" />
	<path
   fill="#6a2403"
   d="m 183.839,322.771 c -2.814,0.434 -4.763,-3.896 -1.731,-4.33 3.029,-0.433 4.76,3.896 1.731,4.33 z"
   id="path639" />
	<path
   fill="#6a2403"
   d="m 206.568,334.242 c -2.813,0.217 -4.762,-3.896 -1.948,-4.112 2.813,0 4.762,4.112 1.948,4.112 z"
   id="path641" />
	<path
   fill="#6a2403"
   d="m 180.375,340.521 c -2.814,0.649 -5.195,-3.464 -2.382,-4.113 3.032,-0.65 5.196,3.463 2.382,4.113 z"
   id="path643" />
	<path
   fill="#6a2403"
   d="m 189.25,325.801 c 2.813,-0.434 4.763,3.896 1.947,4.329 -2.812,0.433 -4.761,-3.897 -1.947,-4.329 z"
   id="path645" />
	<path
   fill="#6a2403"
   d="m 182.757,332.728 c -3.031,0.649 -4.979,-3.68 -1.948,-4.329 3.03,-0.65 4.762,3.896 1.948,4.329 z"
   id="path647" />
	<path
   fill="#6a2403"
   d="m 199.857,295.712 c 3.031,0 4.113,4.763 1.083,4.546 -3.032,0.217 -4.114,-4.329 -1.083,-4.546 z"
   id="path649" />
	<path
   fill="#6a2403"
   d="m 158.512,308.267 c 3.03,-0.649 4.762,3.896 1.73,4.546 -3.028,0.866 -4.76,-3.68 -1.73,-4.546 z"
   id="path651" />
	<path
   fill="#6a2403"
   d="m 148.555,329.913 c -0.649,-0.434 -1.083,-1.299 -0.649,-2.382 1.083,-3.029 5.846,-1.515 4.763,1.3 l -0.434,0.865 c 1.299,1.082 1.732,3.247 -0.216,3.896 -2.598,0.867 -4.547,-2.163 -3.464,-3.679 z"
   id="path653" />
	<path
   fill="#6a2403"
   d="m 204.836,325.151 c -2.814,0.218 -4.547,-4.112 -1.732,-4.329 2.814,0 4.546,4.113 1.732,4.329 z"
   id="path655" />
	<path
   fill="#6a2403"
   d="m 196.61,344.417 v 0.216 0 0.648 c -0.216,0.435 -0.433,0.649 -0.866,0.866 0.649,1.517 -0.433,3.247 -2.598,2.165 -1.731,-0.866 -1.948,-2.598 -1.082,-3.464 -0.217,-0.433 -0.217,-0.866 -0.217,-1.299 v 0 c -0.216,-0.866 0,-1.731 1.083,-1.948 1.949,-0.214 3.68,1.516 3.68,2.816 z"
   id="path657" />
	<path
   fill="#6a2403"
   d="m 168.686,332.295 c -2.814,0.865 -5.195,-3.464 -2.165,-4.33 2.815,-0.649 4.979,3.681 2.165,4.33 z"
   id="path659" />
	<path
   fill="#6a2403"
   d="m 150.07,298.31 c 3.247,-0.866 4.546,3.896 1.516,4.763 -3.031,0.865 -4.763,-3.897 -1.516,-4.763 z"
   id="path661" />
	<path
   fill="#6a2403"
   d="m 213.927,316.06 c 2.813,0.217 4.112,4.546 1.299,4.329 -2.815,0 -4.112,-4.329 -1.299,-4.329 z"
   id="path663" />
	<path
   fill="#6a2403"
   d="m 164.14,343.551 c -2.814,1.082 -5.412,-3.247 -2.381,-4.112 2.814,-0.867 5.194,3.246 2.381,4.112 z"
   id="path665" />
	<path
   fill="#6a2403"
   d="m 210.247,340.304 c 2.598,-0.216 4.763,3.68 2.165,3.896 -2.814,0.433 -4.979,-3.679 -2.165,-3.896 z"
   id="path667" />
	<path
   fill="#6a2403"
   d="m 181.458,350.478 c -0.434,-1.515 0.865,-3.03 2.813,-2.164 2.381,1.082 1.948,3.681 0.216,3.896 0.434,0.864 0.217,1.73 -0.866,1.946 -2.813,0.866 -5.411,-3.029 -2.598,-3.896 z"
   id="path669" />
	<path
   fill="#6a2403"
   d="m 156.131,334.026 c 1.083,-2.813 5.845,-1.516 4.762,1.3 -0.865,2.597 -5.628,1.515 -4.762,-1.3 z"
   id="path671" />
	<path
   fill="#6a2403"
   d="m 159.378,347.88 c -0.649,2.813 -5.628,2.165 -4.979,-0.865 0.866,-3.032 5.844,-1.949 4.979,0.865 z"
   id="path673" />
	<path
   fill="#6a2403"
   d="m 168.036,361.518 c -0.648,3.03 -5.628,2.381 -4.979,-0.648 0.649,-3.031 5.629,-2.383 4.979,0.648 z"
   id="path675" />
	<path
   fill="#6a2403"
   d="m 164.573,354.591 c -0.648,2.598 -5.628,1.948 -4.979,-0.866 0.867,-2.814 5.629,-1.949 4.979,0.866 z"
   id="path677" />
	<path
   fill="#6a2403"
   d="m 184.488,343.983 c -0.866,2.382 -5.628,0.866 -4.762,-1.515 0.866,-2.597 5.628,-1.081 4.762,1.515 z"
   id="path679" />
	<path
   fill="#6a2403"
   d="m 161.76,363.683 c -0.434,2.813 -5.412,2.164 -4.979,-0.649 0.649,-2.815 5.627,-2.167 4.979,0.649 z"
   id="path681" />
	<path
   fill="#6a2403"
   d="m 159.378,377.104 c -0.649,3.463 -5.846,3.03 -4.979,-0.434 0.65,-3.463 5.629,-3.03 4.979,0.434 z"
   id="path683" />
	<path
   fill="#6a2403"
   d="m 156.781,356.322 c -0.433,3.03 -5.412,3.03 -4.979,-0.217 0.433,-3.246 5.628,-2.813 4.979,0.217 z"
   id="path685" />
	<path
   fill="#6a2403"
   d="m 161.11,366.279 c -0.217,3.247 -5.195,3.682 -4.979,0.218 0.217,-3.681 5.412,-3.681 4.979,-0.218 z"
   id="path687" />
	<path
   fill="#6a2403"
   d="m 172.15,323.853 c 1.299,-2.813 5.845,-0.866 4.762,1.731 -1.084,2.597 -5.845,0.867 -4.762,-1.731 z"
   id="path689" />
</g><path
     fill="#ffffff"
     d="m 509.6364,436.58958 c 0.649,5.412 -3.896,9.092 -8.658,9.092 -4.764,0 -8.442,-3.68 -8.658,-9.092 -0.434,-4.979 3.896,-8.658 8.658,-9.093 5.196,-0.431 8.226,4.114 8.658,9.093 z"
     id="path693" /><path
     d="m 504.4424,436.58958 c 0.216,1.082 -0.649,1.73 -1.732,1.73 -0.866,0 -1.515,-0.648 -1.731,-1.73 0,-0.866 0.648,-1.731 1.731,-1.731 0.866,-0.217 1.514,0.649 1.732,1.731 z"
     id="path695" /><path
     d="m 538.6424,429.23058 c 0,0.865 -0.648,1.515 -1.515,1.515 -0.867,0 -1.515,-0.648 -1.515,-1.515 0,-0.867 0.648,-1.516 1.515,-1.516 0.867,-0.217 1.299,0.649 1.515,1.516 z"
     id="path697" /><path
     fill="none"
     stroke="#000000"
     stroke-width="0.346"
     stroke-linecap="round"
     d="m 547.5174,478.36658 c -20.563,1.948 -27.708,-10.174 -27.708,-10.174"
     id="path699" /><path
     fill="#68701f"
     d="m 529.1194,497.41658 c -2.598,-3.247 -16.451,-0.649 -30.305,7.575 -19.698,11.474 -48.921,14.937 -42.645,20.349 6.277,5.411 9.958,5.194 20.131,2.598 10.823,-2.598 21.431,-4.113 37.017,-16.019 9.091,-6.927 11.689,-10.391 15.802,-14.503 z"
     id="path701" /><path
     fill="#9db22d"
     d="m 460.4994,497.84958 c 6.494,-6.277 28.79,-15.152 35.934,-6.927 7.36,8.226 -8.226,37.016 -8.226,37.016 0,0 31.171,-2.165 29.656,0 -1.516,2.164 -15.585,1.948 -15.585,1.948 0,0 17.101,1.73 16.668,3.68 -0.216,1.948 -17.317,-0.866 -17.317,-0.866 0,0 13.854,6.278 12.555,8.011 -1.299,1.515 -13.637,-3.03 -23.378,-5.412 -9.74,-2.381 -15.585,2.598 -15.368,-1.731 0.433,-4.113 8.009,-19.266 8.009,-19.266 0,0 -12.556,19.481 -25.11,14.72 -20.134,-8.011 -3.249,-25.762 2.162,-31.173 z"
     id="path703" /><path
     d="m 559.4244,459.10258 c 0,0.865 -0.648,1.515 -1.515,1.515 -0.867,0 -1.516,-0.648 -1.516,-1.515 0,-0.867 0.649,-1.516 1.516,-1.516 0.648,0 1.515,0.649 1.515,1.516 z"
     id="path705" /><path
     d="m 565.2694,456.93758 c 0,0.649 -0.434,1.082 -1.083,1.082 -0.65,0 -1.082,-0.433 -1.082,-1.082 0,-0.649 0.433,-1.082 1.082,-1.082 0.649,0 1.083,0.432 1.083,1.082 z"
     id="path707" /><path
     fill="#869a2a"
     d="m 516.7804,490.27358 c 0,0 4.113,25.326 7.792,29.223 3.031,3.247 4.762,2.165 4.762,2.165 0,0 10.824,-1.299 8.875,0.649 -1.949,1.948 -8.875,1.948 -8.875,1.948 0,0 11.906,3.029 9.958,4.111 -1.948,1.082 -11.905,-0.648 -11.905,-0.648 0,0 11.905,6.062 8.875,6.062 -4.33,0 -14.503,-3.681 -15.585,-6.494 -1.083,-2.598 -12.122,-25.976 -14.72,-30.306 -2.381,-4.113 10.823,-6.71 10.823,-6.71 z"
     id="path709" /><path
     fill="#e4e3cd"
     d="m 730.2154,383.77258 h -51.951 v 155.422 h 51.951 z"
     id="path711" /><path
     fill="#ccccb8"
     d="m 667.2244,561.92358 c 0,0 -1.516,-16.02 0,-20.781 1.515,-4.546 3.029,-6.277 9.308,-6.277 6.279,0 57.146,-1.73 61.043,0 3.682,1.731 6.278,4.763 6.278,9.309 v 16.668 z"
     id="path713" /><path
     fill="#9b3403"
     d="m 548.6004,518.19658 c 0,0 42.211,-5.628 58.663,-7.144 4.111,-0.434 13.203,2.598 13.203,9.958 -0.217,7.143 -5.412,9.957 -8.658,11.039 -13.637,4.33 -45.24,7.144 -56.28,8.227 -8.227,0.865 -18.184,1.731 -19.049,-9.958 -0.866,-12.122 12.121,-12.122 12.121,-12.122 z"
     id="path715" /><path
     fill="#6a2403"
     d="m 536.2614,530.10258 c 0.649,5.195 1.731,8.227 6.277,9.309 4.546,0.865 6.71,-5.845 6.71,-10.174 -0.216,-5.845 -1.948,-9.523 -5.195,-10.174 -4.111,-0.65 -8.44,5.628 -7.792,11.039 z"
     id="path717" /><path
     fill="#b43c0a"
     d="m 615.2724,533.78258 c 0,0 -30.738,-23.162 -42.428,-29.438 -2.813,-1.517 -8.441,-1.083 -10.606,3.247 -2.165,4.329 2.381,7.358 2.381,7.358 0,0 31.387,25.761 38.748,29.439 6.277,3.247 13.203,8.442 17.533,1.516 4.329,-6.926 -5.628,-12.122 -5.628,-12.122 z"
     id="path719" /><path
     fill="#6a2403"
     d="m 620.9014,545.90458 c -2.164,2.813 -3.896,4.329 -7.793,3.03 -3.681,-1.299 -3.246,-6.277 -1.732,-8.875 2.166,-3.464 4.547,-4.979 7.146,-4.113 3.243,1.299 4.543,6.926 2.379,9.958 z"
     id="path721" /><path
     fill="#e4e3cd"
     d="m 483.4454,383.77258 h -51.952 v 155.422 h 51.952 z"
     id="path723" /><path
     fill="#ccccb8"
     d="m 420.6704,561.92358 c 0,0 -1.515,-16.02 0,-20.781 1.516,-4.546 3.031,-6.277 9.309,-6.277 6.276,0 57.146,-1.73 61.043,0 3.68,1.731 6.276,4.763 6.276,9.309 v 16.668 z"
     id="path725" /><path
     fill="#6a2403"
     d="m 425.4314,358.44458 c -6.71,11.04 -2.598,39.613 1.732,39.613 22.512,0.866 115.16,0 178.801,0 63.642,0 101.955,1.73 125.549,0 4.33,-0.433 4.547,-40.479 0.217,-40.696 -43.727,-0.433 -112.128,0 -172.955,0 -61.043,0.218 -131.611,-1.513 -133.344,1.083 z"
     id="path727" /><g
     id="g831"
     transform="translate(286.1854,137.63058)">
	<defs
   id="defs730">
		<path
   id="path3867"
   d="m 185.252,219.547 77.495,-86.37 V 90.966 h 64.723 c 0,0 -2.814,34.203 0,41.563 2.814,7.145 71.65,85.504 71.65,85.504 z" />
	</defs>
	<clipPath
   id="clipPath3423">
		<use
   xlink:href="#SVGID_1_"
   overflow="visible"
   id="use3421" />
	</clipPath>
	<g
   clip-path="url(#SVGID_2_)"
   id="g829">
		<path
   fill="#ff8000"
   d="m 249.704,204.425 c 0,0.433 -0.433,0.866 -1.082,0.866 h -40.911 c -0.649,0 -1.083,-0.434 -1.083,-0.866 v -12.122 c 0,-0.433 0.433,-0.866 1.083,-0.866 h 40.911 c 0.649,0 1.082,0.434 1.082,0.866 z"
   id="path735" />
		<path
   fill="#ff8000"
   d="m 422.012,204.425 c 0,0.433 -0.435,0.866 -1.082,0.866 h -40.912 c -0.65,0 -1.082,-0.434 -1.082,-0.866 v -12.122 c 0,-0.433 0.432,-0.866 1.082,-0.866 h 40.912 c 0.647,0 1.082,0.434 1.082,0.866 z"
   id="path737" />
		<path
   fill="#fe9625"
   d="m 292.781,204.425 c 0,0.433 -0.434,0.866 -1.082,0.866 h -40.912 c -0.648,0 -1.083,-0.434 -1.083,-0.866 v -12.122 c 0,-0.433 0.434,-0.866 1.083,-0.866 h 40.912 c 0.648,0 1.082,0.434 1.082,0.866 z"
   id="path739" />
		<path
   fill="#e76901"
   d="m 335.858,204.425 c 0,0.433 -0.432,0.866 -1.082,0.866 h -40.912 c -0.647,0 -1.082,-0.434 -1.082,-0.866 v -12.122 c 0,-0.433 0.435,-0.866 1.082,-0.866 h 40.912 c 0.65,0 1.082,0.434 1.082,0.866 z"
   id="path741" />
		<path
   fill="#e76901"
   d="m 206.629,204.425 c 0,0.433 -0.434,0.866 -1.082,0.866 h -41.129 c -0.649,0 -1.082,-0.434 -1.082,-0.866 v -12.122 c 0,-0.433 0.433,-0.866 1.082,-0.866 h 40.911 c 0.649,0 1.083,0.434 1.083,0.866 v 12.122 z"
   id="path743" />
		<path
   fill="#fe9625"
   d="m 378.936,204.425 c 0,0.433 -0.434,0.866 -1.084,0.866 H 336.94 c -0.648,0 -1.082,-0.434 -1.082,-0.866 v -12.122 c 0,-0.433 0.434,-0.866 1.082,-0.866 h 40.912 c 0.65,0 1.084,0.434 1.084,0.866 z"
   id="path745" />
		<path
   fill="#e76901"
   d="m 228.059,218.495 c 0,0.433 -0.433,0.865 -1.083,0.865 h -40.912 c -0.649,0 -1.083,-0.433 -1.083,-0.865 v -12.122 c 0,-0.434 0.433,-0.866 1.083,-0.866 h 40.912 c 0.649,0 1.083,0.433 1.083,0.866 z"
   id="path747" />
		<path
   fill="#ff8000"
   d="m 271.135,218.495 c 0,0.433 -0.434,0.865 -1.083,0.865 H 229.14 c -0.649,0 -1.083,-0.433 -1.083,-0.865 v -12.122 c 0,-0.434 0.433,-0.866 1.083,-0.866 h 40.912 c 0.648,0 1.083,0.433 1.083,0.866 z"
   id="path749" />
		<path
   fill="#e76901"
   d="m 314.212,218.495 c 0,0.433 -0.433,0.865 -1.082,0.865 h -40.912 c -0.649,0 -1.083,-0.433 -1.083,-0.865 v -12.122 c 0,-0.434 0.433,-0.866 1.083,-0.866 h 40.912 c 0.649,0 1.082,0.433 1.082,0.866 z"
   id="path751" />
		<path
   fill="#ff8000"
   d="m 357.287,218.495 c 0,0.433 -0.432,0.865 -1.082,0.865 h -40.911 c -0.648,0 -1.082,-0.433 -1.082,-0.865 v -12.122 c 0,-0.434 0.434,-0.866 1.082,-0.866 h 40.911 c 0.65,0 1.082,0.433 1.082,0.866 z"
   id="path753" />
		<path
   fill="#e76901"
   d="m 400.582,218.495 c 0,0.433 -0.434,0.865 -1.084,0.865 h -40.911 c -0.648,0 -1.082,-0.433 -1.082,-0.865 v -12.122 c 0,-0.434 0.434,-0.866 1.082,-0.866 h 40.911 c 0.65,0 1.084,0.433 1.084,0.866 z"
   id="path755" />
		<path
   fill="#ff8000"
   d="m 335.858,176.501 c 0,0.433 0.435,0.865 1.082,0.865 h 40.912 c 0.65,0 1.084,-0.433 1.084,-0.865 v -12.122 c 0,-0.434 -0.434,-0.866 -1.084,-0.866 H 336.94 c -0.647,0 -1.082,0.433 -1.082,0.866 z"
   id="path757" />
		<path
   fill="#e76901"
   d="m 292.781,176.501 c 0,0.433 0.435,0.865 1.082,0.865 h 40.912 c 0.65,0 1.082,-0.433 1.082,-0.865 v -12.122 c 0,-0.434 -0.432,-0.866 -1.082,-0.866 h -40.912 c -0.647,0 -1.082,0.433 -1.082,0.866 z"
   id="path759" />
		<path
   fill="#ff8000"
   d="m 249.704,176.501 c 0,0.433 0.434,0.865 1.083,0.865 h 40.912 c 0.648,0 1.082,-0.433 1.082,-0.865 v -12.122 c 0,-0.434 -0.434,-0.866 -1.082,-0.866 h -40.912 c -0.648,0 -1.083,0.433 -1.083,0.866 z"
   id="path761" />
		<path
   fill="#fe9625"
   d="m 206.629,176.501 c 0,0.433 0.433,0.865 1.083,0.865 h 40.911 c 0.649,0 1.082,-0.433 1.082,-0.865 v -12.122 c 0,-0.434 -0.433,-0.866 -1.082,-0.866 h -40.911 c -0.649,0 -1.083,0.433 -1.083,0.866 z"
   id="path763" />
		<path
   fill="#e76901"
   d="m 357.287,190.57 c 0,0.434 0.435,0.866 1.084,0.866 h 40.912 c 0.648,0 1.082,-0.433 1.082,-0.866 v -12.122 c 0,-0.433 -0.434,-0.865 -1.082,-0.865 h -40.912 c -0.649,0 -1.084,0.433 -1.084,0.865 z"
   id="path765" />
		<path
   fill="#ff8000"
   d="m 314.212,190.57 c 0,0.434 0.434,0.866 1.082,0.866 h 40.911 c 0.65,0 1.082,-0.433 1.082,-0.866 v -12.122 c 0,-0.433 -0.432,-0.865 -1.082,-0.865 h -40.911 c -0.648,0 -1.082,0.433 -1.082,0.865 z"
   id="path767" />
		<path
   fill="#fe9625"
   d="m 271.135,190.57 c 0,0.434 0.433,0.866 1.083,0.866 h 40.912 c 0.649,0 1.082,-0.433 1.082,-0.866 v -12.122 c 0,-0.433 -0.433,-0.865 -1.082,-0.865 h -40.912 c -0.649,0 -1.083,0.433 -1.083,0.865 z"
   id="path769" />
		<path
   fill="#e76901"
   d="m 228.059,190.57 c 0,0.434 0.433,0.866 1.083,0.866 h 40.912 c 0.648,0 1.083,-0.433 1.083,-0.866 v -12.122 c 0,-0.433 -0.434,-0.865 -1.083,-0.865 h -40.912 c -0.649,0 -1.083,0.433 -1.083,0.865 z"
   id="path771" />
		<path
   fill="#ff8000"
   d="m 184.982,190.57 c 0,0.434 0.433,0.866 1.083,0.866 h 40.912 c 0.649,0 1.083,-0.433 1.083,-0.866 v -12.122 c 0,-0.433 -0.433,-0.865 -1.083,-0.865 h -40.912 c -0.649,0 -1.083,0.433 -1.083,0.865 z"
   id="path773" />
		<path
   fill="#ff8000"
   d="m 249.704,148.576 c 0,0.434 -0.433,0.866 -1.082,0.866 h -40.911 c -0.649,0 -1.083,-0.433 -1.083,-0.866 v -12.121 c 0,-0.434 0.433,-0.866 1.083,-0.866 h 40.911 c 0.649,0 1.082,0.433 1.082,0.866 z"
   id="path775" />
		<path
   fill="#fe9625"
   d="m 292.781,148.576 c 0,0.434 -0.434,0.866 -1.082,0.866 h -40.912 c -0.648,0 -1.083,-0.433 -1.083,-0.866 v -12.121 c 0,-0.434 0.434,-0.866 1.083,-0.866 h 40.912 c 0.648,0 1.082,0.433 1.082,0.866 z"
   id="path777" />
		<path
   fill="#e76901"
   d="m 335.858,148.576 c 0,0.434 -0.432,0.866 -1.082,0.866 h -40.912 c -0.647,0 -1.082,-0.433 -1.082,-0.866 v -12.121 c 0,-0.434 0.435,-0.866 1.082,-0.866 h 40.912 c 0.65,0 1.082,0.433 1.082,0.866 z"
   id="path779" />
		<path
   fill="#fe9625"
   d="m 378.936,148.576 c 0,0.434 -0.434,0.866 -1.084,0.866 H 336.94 c -0.648,0 -1.082,-0.433 -1.082,-0.866 v -12.121 c 0,-0.434 0.434,-0.866 1.082,-0.866 h 40.912 c 0.65,0 1.084,0.433 1.084,0.866 z"
   id="path781" />
		<path
   fill="#e76901"
   d="m 228.059,162.646 c 0,0.434 -0.433,0.866 -1.083,0.866 h -40.912 c -0.649,0 -1.083,-0.433 -1.083,-0.866 v -12.122 c 0,-0.433 0.433,-0.866 1.083,-0.866 h 40.912 c 0.649,0 1.083,0.434 1.083,0.866 z"
   id="path783" />
		<path
   fill="#ff8000"
   d="m 271.135,162.646 c 0,0.434 -0.434,0.866 -1.083,0.866 H 229.14 c -0.649,0 -1.083,-0.433 -1.083,-0.866 v -12.122 c 0,-0.433 0.433,-0.866 1.083,-0.866 h 40.912 c 0.648,0 1.083,0.434 1.083,0.866 z"
   id="path785" />
		<path
   fill="#e76901"
   d="m 314.212,162.646 c 0,0.434 -0.433,0.866 -1.082,0.866 h -40.912 c -0.649,0 -1.083,-0.433 -1.083,-0.866 v -12.122 c 0,-0.433 0.433,-0.866 1.083,-0.866 h 40.912 c 0.649,0 1.082,0.434 1.082,0.866 z"
   id="path787" />
		<path
   fill="#ff8000"
   d="m 357.287,162.646 c 0,0.434 -0.432,0.866 -1.082,0.866 h -40.911 c -0.648,0 -1.082,-0.433 -1.082,-0.866 v -12.122 c 0,-0.433 0.434,-0.866 1.082,-0.866 h 40.911 c 0.65,0 1.082,0.434 1.082,0.866 z"
   id="path789" />
		<path
   fill="#e76901"
   d="m 400.582,162.646 c 0,0.434 -0.434,0.866 -1.084,0.866 h -40.911 c -0.648,0 -1.082,-0.433 -1.082,-0.866 v -12.122 c 0,-0.433 0.434,-0.866 1.082,-0.866 h 40.911 c 0.65,0 1.084,0.434 1.084,0.866 z"
   id="path791" />
		<path
   fill="#ff8000"
   d="m 335.858,120.652 c 0,0.434 0.435,0.866 1.082,0.866 h 40.912 c 0.65,0 1.084,-0.433 1.084,-0.866 v -12.121 c 0,-0.434 -0.434,-0.867 -1.084,-0.867 H 336.94 c -0.647,0 -1.082,0.434 -1.082,0.867 z"
   id="path793" />
		<path
   fill="#fe9625"
   d="m 292.781,120.652 c 0,0.434 0.435,0.866 1.082,0.866 h 40.912 c 0.65,0 1.082,-0.433 1.082,-0.866 v -12.121 c 0,-0.434 -0.432,-0.867 -1.082,-0.867 h -40.912 c -0.647,0 -1.082,0.434 -1.082,0.867 z"
   id="path795" />
		<path
   fill="#e76901"
   d="m 249.704,120.652 c 0,0.434 0.434,0.866 1.083,0.866 h 40.912 c 0.648,0 1.082,-0.433 1.082,-0.866 v -12.121 c 0,-0.434 -0.434,-0.867 -1.082,-0.867 h -40.912 c -0.648,0 -1.083,0.434 -1.083,0.867 z"
   id="path797" />
		<path
   fill="#fe9625"
   d="m 206.629,120.652 c 0,0.434 0.433,0.866 1.083,0.866 h 40.911 c 0.649,0 1.082,-0.433 1.082,-0.866 v -12.121 c 0,-0.434 -0.433,-0.867 -1.082,-0.867 h -40.911 c -0.649,0 -1.083,0.434 -1.083,0.867 z"
   id="path799" />
		<path
   fill="#e76901"
   d="m 357.287,134.723 c 0,0.434 0.435,0.866 1.084,0.866 h 40.912 c 0.648,0 1.082,-0.433 1.082,-0.866 v -12.338 c 0,-0.434 -0.434,-0.866 -1.082,-0.866 h -40.912 c -0.649,0 -1.084,0.433 -1.084,0.866 z"
   id="path801" />
		<path
   fill="#e76901"
   d="m 314.212,134.723 c 0,0.434 0.434,0.866 1.082,0.866 h 40.911 c 0.65,0 1.082,-0.433 1.082,-0.866 v -12.338 c 0,-0.434 -0.432,-0.866 -1.082,-0.866 h -40.911 c -0.648,0 -1.082,0.433 -1.082,0.866 z"
   id="path803" />
		<path
   fill="#ff8000"
   d="m 271.135,134.723 c 0,0.434 0.433,0.866 1.083,0.866 h 40.912 c 0.649,0 1.082,-0.433 1.082,-0.866 v -12.338 c 0,-0.434 -0.433,-0.866 -1.082,-0.866 h -40.912 c -0.649,0 -1.083,0.433 -1.083,0.866 z"
   id="path805" />
		<path
   fill="#e76901"
   d="m 228.059,134.723 c 0,0.434 0.433,0.866 1.083,0.866 h 40.912 c 0.648,0 1.083,-0.433 1.083,-0.866 v -12.338 c 0,-0.434 -0.434,-0.866 -1.083,-0.866 h -40.912 c -0.649,0 -1.083,0.433 -1.083,0.866 z"
   id="path807" />
		<path
   fill="#e76901"
   d="m 184.982,134.723 c 0,0.434 0.433,0.866 1.083,0.866 h 40.912 c 0.649,0 1.083,-0.433 1.083,-0.866 v -12.338 c 0,-0.434 -0.433,-0.866 -1.083,-0.866 h -40.912 c -0.649,0 -1.083,0.433 -1.083,0.866 z"
   id="path809" />
		<path
   fill="#ff8000"
   d="m 249.704,92.729 c 0,0.434 -0.433,0.866 -1.082,0.866 h -40.911 c -0.649,0 -1.083,-0.433 -1.083,-0.866 V 80.606 c 0,-0.433 0.433,-0.866 1.083,-0.866 h 40.911 c 0.649,0 1.082,0.433 1.082,0.866 z"
   id="path811" />
		<path
   fill="#fe9625"
   d="m 292.781,92.729 c 0,0.434 -0.434,0.866 -1.082,0.866 h -40.912 c -0.648,0 -1.083,-0.433 -1.083,-0.866 V 80.606 c 0,-0.433 0.434,-0.866 1.083,-0.866 h 40.912 c 0.648,0 1.082,0.433 1.082,0.866 z"
   id="path813" />
		<path
   fill="#e76901"
   d="m 335.858,92.729 c 0,0.434 -0.432,0.866 -1.082,0.866 h -40.912 c -0.647,0 -1.082,-0.433 -1.082,-0.866 V 80.606 c 0,-0.433 0.435,-0.866 1.082,-0.866 h 40.912 c 0.65,0 1.082,0.433 1.082,0.866 z"
   id="path815" />
		<path
   fill="#fe9625"
   d="m 378.936,92.729 c 0,0.434 -0.434,0.866 -1.084,0.866 H 336.94 c -0.648,0 -1.082,-0.433 -1.082,-0.866 V 80.606 c 0,-0.433 0.434,-0.866 1.082,-0.866 h 40.912 c 0.65,0 1.084,0.433 1.084,0.866 z"
   id="path817" />
		<path
   fill="#e76901"
   d="m 228.059,106.582 c 0,0.433 -0.433,0.865 -1.083,0.865 h -40.912 c -0.649,0 -1.083,-0.433 -1.083,-0.865 V 94.459 c 0,-0.432 0.433,-0.865 1.083,-0.865 h 40.912 c 0.649,0 1.083,0.434 1.083,0.865 z"
   id="path819" />
		<path
   fill="#ff8000"
   d="m 271.135,106.582 c 0,0.433 -0.434,0.865 -1.083,0.865 H 229.14 c -0.649,0 -1.083,-0.433 -1.083,-0.865 V 94.459 c 0,-0.432 0.433,-0.865 1.083,-0.865 h 40.912 c 0.648,0 1.083,0.434 1.083,0.865 z"
   id="path821" />
		<path
   fill="#e76901"
   d="m 314.212,106.582 c 0,0.433 -0.433,0.865 -1.082,0.865 h -40.912 c -0.649,0 -1.083,-0.433 -1.083,-0.865 V 94.459 c 0,-0.432 0.433,-0.865 1.083,-0.865 h 40.912 c 0.649,0 1.082,0.434 1.082,0.865 z"
   id="path823" />
		<path
   fill="#ff8000"
   d="m 357.287,106.582 c 0,0.433 -0.432,0.865 -1.082,0.865 h -40.911 c -0.648,0 -1.082,-0.433 -1.082,-0.865 V 94.459 c 0,-0.432 0.434,-0.865 1.082,-0.865 h 40.911 c 0.65,0 1.082,0.434 1.082,0.865 z"
   id="path825" />
		<path
   fill="#e76901"
   d="m 400.582,106.582 c 0,0.433 -0.434,0.865 -1.084,0.865 h -40.911 c -0.648,0 -1.082,-0.433 -1.082,-0.865 V 94.459 c 0,-0.432 0.434,-0.865 1.082,-0.865 h 40.911 c 0.65,0 1.084,0.434 1.084,0.865 z"
   id="path827" />
	</g>
</g></g></svg>
