<svg width="456" height="564" viewBox="0 0 456 564" fill="none" xmlns="http://www.w3.org/2000/svg">
<path d="M154.49 135.84C171.09 135.265 204.184 140.875 230.806 159.408C262.242 181.292 270.901 195.616 278.938 232.65C286.974 269.684 275.563 298.441 258.682 323.616C241.801 348.789 230.806 374.948 153.566 387.438C109.838 394.508 38.8859 366.844 25.9843 309.419C13.0826 251.994 28.4555 211.93 43.1345 197.032C57.8136 182.134 81.6229 138.365 154.49 135.84Z" fill="#41AA54"/>
<path d="M249.003 245.091L229.206 256.138C229.206 256.138 219.358 258.021 214.174 258.931C209.395 259.769 197.559 262.243 197.559 262.243L193.428 240.491H188.852C188.852 240.491 191.578 262.636 188.852 264.258C186.654 265.563 172.224 270.103 163.26 272.306C161.219 252.154 158.933 229.822 158.933 227.182C158.933 224.609 166.023 220.119 171.72 217.672C177.417 215.227 190.074 211.912 195.138 210.33C200.202 208.748 202.733 207.764 202.733 207.764C202.733 207.764 197.037 198.657 193.239 200.552C189.441 202.447 172.986 210.33 172.986 210.33L167.391 199.106H160.886L164.757 210.33C164.757 210.33 161.592 212.544 158.933 210.33C156.277 208.117 153.997 198.026 153.997 189.596C153.997 181.166 154.081 177.389 154.081 177.389C156.464 176.881 166.223 181.536 166.223 181.536L168.111 178.596L156.356 171.2C156.356 171.2 159.249 167.463 162.923 161.782C166.597 156.1 166.379 156.34 160.049 153.184C160.049 153.184 155.971 159.358 152.796 164.321C150.754 167.516 144.849 178.257 142.791 178.596C140.707 178.94 139.937 178.484 134.329 176.525L128.99 175.194L126.861 179.813C126.861 179.813 139.625 183.241 140.258 187.393C140.891 191.544 141.524 223.465 141.524 223.465L129.152 207.862L124.76 209.269C124.76 209.269 123.18 209.19 125.079 212.758C126.978 216.325 129.152 218.667 129.152 218.667L113.976 213.954L113.818 219.883C113.818 219.883 125.07 223.013 129.51 224.91C133.95 226.808 142.158 231.218 142.158 231.218L143.424 242.03C144.69 252.844 145.956 286.149 145.956 286.149L129.995 280.24L125.701 270.356L133.296 267.038L131.397 264.169H121.914L114.203 252.835L109.325 255.218C109.325 255.218 116.211 263.706 116.211 265.438C116.211 267.17 121.623 280.123 121.623 280.123C121.623 280.123 110.965 276.663 107.941 275.588C104.917 274.513 68.0363 266.092 68.0363 266.092L67.4033 274.737C67.4033 274.737 90.8873 282.98 97.359 286.06C97.6603 286.203 97.9717 286.342 98.2819 286.48C97.7666 286.842 97.2387 287.242 96.6868 287.721C91.0924 292.588 82.9711 295.319 82.9711 295.319L85.9639 302.917C85.9639 302.917 100.654 293.788 107.288 289.661C111.109 290.79 123.483 295.459 125.497 296.187C131.239 298.265 142.814 302.937 144.713 310.017C146.612 317.096 144.14 338.512 144.055 349.497C143.995 357.486 142.67 358.086 138.836 357.319C134.45 356.439 127.002 353.878 127.002 353.878C127.002 353.878 127.273 352.223 126.774 346.623C126.365 342.045 124.489 336.54 124.489 336.54L119.39 334.609C118.586 337.388 118.388 343.197 118.53 346.632C118.672 350.07 110.094 348.181 106.189 346.039C103.418 344.519 96.9488 340.9 87.7882 337.704C81.8013 335.615 73.6028 333.449 73.6028 333.449L70.4657 340.77C70.4657 340.77 83.1585 345.406 91.871 350.258C92.7331 350.737 93.6357 351.21 94.5586 351.684L83.3927 354.191L86.2652 359.164C86.9058 358.895 89.8808 358.854 93.2281 357.719C97.1197 356.397 100.866 356.079 102.889 355.581C110.237 358.895 116.217 361.08 123.434 364.406C132.412 368.541 140.257 370.088 144.055 372.773C147.853 375.461 144.688 465.482 144.688 484.25C144.688 503.018 144.055 555.118 144.055 555.118H173.172L167.475 349.493L190.895 329.06L192.514 331.333C194.133 333.604 198.491 337.332 198.491 337.332L202.289 332.845L200.39 331.332C198.491 329.816 196.592 325.271 196.592 325.271L206.72 315.835L204.188 311.674C204.188 311.674 194.06 317.696 187.253 321.971C187.011 322.123 186.76 322.28 186.503 322.441V302.643C186.503 302.643 187.82 298.392 186.503 297.825C185.187 297.257 182.704 297.825 182.704 297.825C182.704 297.825 181.852 301.792 181.1 306.281C180.524 309.724 179.1 321.913 178.468 327.408C172.505 331.063 166.653 334.61 166.653 334.61C166.653 334.61 167.049 314.277 166.345 304.178C166.168 301.638 165.611 295.792 164.876 288.394C176.011 284.987 193.391 278.264 203.342 275.62C216.121 272.223 218.871 269.155 222.95 271.142C227.03 273.129 226.659 290.805 227.939 292.782L233.393 290.805V278.878H245.017L246.845 274.917L233.393 272.94V261.047C233.393 261.047 251.354 251.599 251.721 249.433C252.097 247.222 249.003 245.091 249.003 245.091Z" fill="#9B3403"/>
<path fill-rule="evenodd" clip-rule="evenodd" d="M259.026 462.667C259.026 462.667 261.172 458.135 287.009 462.667C383.884 479.653 457.594 451.958 447.083 450.34C389.233 441.448 342.996 411.876 349.989 407.644C356.986 403.412 447.677 395.494 430.509 393.246C407.279 390.207 340.848 361.781 348.442 359.732C356.598 357.529 434.013 354.791 418.947 348.897C363.628 327.265 341.85 304.946 348.735 307.254C355.626 309.558 411.389 316.095 401.109 308.848C367.03 284.824 338.439 239.32 338.439 239.32C338.439 239.32 371.138 249.035 382.84 251.697C394.538 254.358 387.651 248.132 365.533 229.238C344.511 211.28 326.503 185.069 326.503 185.069C326.503 185.069 332.997 184.236 350.617 185.069C368.235 185.904 366.382 188.032 350.617 169.95C334.852 151.87 293.899 112.501 302.246 109.311C310.593 106.12 352.343 131.518 344.49 123.111C322.563 99.6263 269.382 4.3018 266.996 10.6831C264.61 17.0643 240.99 77.6908 224.781 98.9622C208.57 120.234 176.643 138.315 192.009 137.252C207.379 136.188 234.803 123.108 234.803 123.108C234.803 123.108 220.496 162.778 209.765 172.349C199.034 181.924 187.112 192.561 202.611 191.495C218.11 190.431 245.534 177.669 238.38 187.24C231.226 196.814 178.034 235.341 187.937 236.817C197.84 238.293 232.418 229.235 232.418 229.235C232.418 229.235 201.681 272.329 192.009 278.71C182.341 285.092 170.419 290.927 181.15 292.796C191.877 294.664 224.781 286.764 224.781 286.764C224.781 286.764 199.628 329.775 165.647 349.816C161.523 352.246 194.266 352.853 209.765 349.816C225.264 346.78 231.226 343.276 230.032 349.816C228.841 356.353 171.61 380.891 148.957 394.78C133.335 404.363 219.296 392.252 224.781 394.78C230.781 397.552 175.047 438.602 125.47 443.566C110.652 445.052 151.343 456.236 181.15 462.664C210.956 469.099 259.026 462.667 259.026 462.667Z" fill="#41AA54"/>
<path d="M300.554 418.036C300.993 393.321 298.735 344.87 298.735 344.87L336.499 308.385L331.552 302.327C331.552 302.327 327.587 303.221 317.423 310.863C307.404 318.392 294.533 325.942 294.533 325.942C294.533 325.942 293.83 283.624 293.071 273.909C291.653 255.793 298.043 250.244 298.043 250.244C298.043 250.244 303.75 246.147 311.695 240.562C319.637 234.978 326.076 229.822 326.076 229.822L319.812 223.157C319.812 223.157 310.936 227.253 304.108 231.675C297.958 235.653 291.634 232.289 291.634 232.289C291.634 232.289 291.505 227.148 290.945 211.433C290.428 196.971 288.105 178.736 290.593 170.902C293.08 163.064 308.921 139.185 308.921 139.185L304.721 131.65C304.721 131.65 300.737 134.246 296.997 139.577C293.259 144.909 282.387 158.43 282.387 158.43C282.387 158.43 277.762 148.111 272.145 137.789C265.307 125.224 268.924 123.43 261.582 125.306C253.611 127.343 255.95 128.518 259.711 138.653C263.93 150.032 265.527 154.473 268.502 160.822C270.846 165.827 269.167 238.307 269.167 238.307C269.167 238.307 269.748 285.791 267.75 286.509C258.83 289.715 233.909 283.997 233.909 283.997L234.147 291.134L268.772 302.036L269.532 383.14C269.532 383.14 257.778 382.719 251.361 379.756C244.944 376.796 243.839 377.78 243.839 377.78L241.245 384.198C241.245 384.198 248.546 390.076 254.907 391.447C259.472 392.427 266.198 394.146 269.644 395.038L265.391 555.916L303.192 554.559C303.192 554.557 300.13 441.954 300.554 418.036Z" fill="#6A2403"/>
</svg>
