<svg width="445" height="242" viewBox="0 0 445 242" fill="none" xmlns="http://www.w3.org/2000/svg">
<path d="M2.40675 183.649C-10.2664 169.497 36.807 160.324 73.4084 156.496C110.01 152.669 137.225 152.589 245.402 158.01C353.58 163.431 226.325 178.609 281.258 179.737C336.191 180.864 316.073 192.739 279.249 195.975C242.425 199.211 209.471 201.683 149.013 200.442L147.631 200.414C87.4409 199.179 14.9835 197.693 2.40675 183.649Z" fill="#087774"/>
<path d="M320.179 156.834C313.408 114.471 311.807 90.6331 312.991 47.9555C315.862 82.4109 318.279 100.835 328.133 127.515C325.85 109.214 325.623 99.4592 328.46 83.5988C329.258 99.7019 330.518 108.705 335.181 124.698L349.027 129.403C342.072 96.382 342.632 78.461 346.285 46.8496C348.118 77.086 349.042 94.0431 357.774 123.948L387.077 128.14C381.415 102.609 381.703 88.1794 384.892 62.3545C385.718 89.5228 386.454 104.624 395.401 127.863C394.243 98.2973 396.401 85.1584 400.35 61.8411C399.76 88.3169 399.703 103.09 407.291 127.468C404.298 102.187 404.653 87.7431 408.674 61.5646C408.664 88.4205 409.434 102.842 419.011 121.914C419.411 101.625 422.372 82.0047 436.933 52.2324C425.504 90.6215 424.367 113.413 420.06 153.516L320.179 156.834Z" fill="#88C549" stroke="#88C549"/>
<path d="M331.01 105.672C278.918 107.689 218.914 127.989 220.738 175.096C221.005 181.972 221.59 197.085 251.283 205.467C306.086 220.942 361.629 211.749 405.022 196.786C415.404 193.209 420.355 178.072 420.999 171.219C426.095 116.818 383.101 103.654 331.01 105.672Z" fill="#B7B19A"/>
<path d="M432.265 206.432C449.413 181.973 398.216 152.208 358.598 169.297C327.199 182.839 295.086 184.553 308.591 211.222C318.127 230.049 413.156 233.685 432.265 206.432Z" fill="#CCCCB8"/>
<path d="M351.384 26.8309C351.555 33.4628 346.5 38.9761 340.122 39.1435C333.731 39.3092 328.403 34.0596 328.232 27.4277C328.06 20.7874 333.108 15.2807 339.494 15.113C345.878 14.9496 351.212 20.1843 351.384 26.8309Z" fill="#869A2A"/>
<path d="M315.899 31.8957C316.895 39.3763 310.874 44.407 304.309 44.5775C297.728 44.7463 292.807 39.8627 292.065 32.5127C291.386 25.718 297.133 20.6287 303.66 19.8412C310.628 19.0073 314.969 25.1296 315.899 31.8957Z" fill="#869A2A"/>
<path d="M332.962 88.3923C332.962 88.3923 342.507 105.363 347.229 108.584C351.057 111.188 352.649 109.741 352.649 109.741C352.649 109.741 363.384 105.811 361.893 108.313C360.404 110.829 353.295 112.509 353.295 112.509C353.295 112.509 366.156 112.793 364.461 114.435C362.77 116.065 352.099 116.516 352.099 116.516C352.099 116.516 365.751 119.812 362.6 120.617C358.206 121.746 346.726 120.249 345.05 117.735C343.363 115.223 329.04 101.601 325.474 97.7008C321.938 93.7993 332.962 88.3923 332.962 88.3923Z" fill="#869A2A"/>
<path d="M349.008 26.8958C349.147 32.166 345.128 36.5489 340.058 36.6782C334.976 36.81 330.738 32.64 330.603 27.3739C330.467 22.0909 334.483 17.7145 339.563 17.5806C344.628 17.4494 348.874 21.6128 349.008 26.8958Z" fill="white"/>
<mask id="mask0" mask-type="alpha" maskUnits="userSpaceOnUse" x="239" y="25" width="139" height="107">
<path d="M311.053 26.7471C334.294 22.731 380.342 32.023 377.025 53.5789C374.292 71.2834 354.097 75.1584 354.097 75.1584C354.097 75.1584 351.22 95.3448 325.475 97.6986C311.893 118.476 288.639 131.88 265.915 131.118C243.314 130.356 230.69 108.155 245.228 79.9747C259.059 53.2015 284.085 46.9125 284.085 46.9125C284.085 46.9125 289.891 30.4058 311.053 26.7471Z" fill="#869A2A"/>
</mask>
<g mask="url(#mask0)">
<path d="M311.053 26.7471C334.294 22.731 380.342 32.023 377.025 53.5789C374.292 71.2834 354.097 75.1584 354.097 75.1584C354.097 75.1584 351.22 95.3448 325.475 97.6986C311.893 118.476 288.639 131.88 265.915 131.118C243.314 130.356 230.69 108.155 245.228 79.9747C259.059 53.2015 284.085 46.9125 284.085 46.9125C284.085 46.9125 289.891 30.4058 311.053 26.7471Z" fill="#869A2A"/>
<path d="M307.971 78.2658C310.767 80.0908 309.407 83.2237 306.537 81.4834C303.635 79.7212 305.113 76.3992 307.971 78.2658Z" fill="#6A2403"/>
<path d="M300.935 83.0402C303.836 84.7374 302.621 88.0366 299.635 86.4287C296.683 84.8299 297.999 81.3443 300.935 83.0402Z" fill="#6A2403"/>
<path d="M293.1 75.5456C295.961 77.282 294.531 80.7448 291.609 79.105C288.641 77.4377 290.192 73.7899 293.1 75.5456Z" fill="#6A2403"/>
<path d="M301.595 63.4533C298.851 61.4606 300.804 58.0595 303.462 60.1477C306.123 62.219 304.324 65.4193 301.595 63.4533Z" fill="#6A2403"/>
<path d="M278.247 72.3444C275.278 70.6939 276.951 66.7164 279.895 68.4707C282.745 70.1824 281.171 73.9715 278.247 72.3444Z" fill="#6A2403"/>
<path d="M257.922 74.3205L257.979 73.6914C258.971 70.8831 263.955 72.4199 263.01 75.1425C262.605 76.3345 261.382 76.6755 260.257 76.5303C260.583 78.1553 259.322 79.8229 257.226 78.8829C254.45 77.6275 255.391 73.844 257.922 74.3205Z" fill="#6A2403"/>
<path d="M278.045 60.5912C275.188 58.8043 277.167 54.8065 279.968 56.7026C282.754 58.5867 280.903 62.3949 278.045 60.5912Z" fill="#6A2403"/>
<path d="M259.659 93.7013C258.074 93.1106 257.513 91.6876 257.849 90.6052C257.778 90.3207 257.778 90.0104 257.863 89.6632C258.599 86.8753 263.681 88.0414 262.99 90.7311L262.573 91.5252C262.794 92.9697 261.712 94.4647 259.659 93.7013Z" fill="#6A2403"/>
<path d="M272.385 34.7197C269.211 35.1572 267.635 30.1586 271.013 29.7426C274.294 29.3806 275.543 34.3437 272.385 34.7197Z" fill="#6A2403"/>
<path d="M284.225 47.2404C287.34 47.0988 288.842 51.7438 285.852 51.9393C282.802 52.1895 281.074 47.4526 284.225 47.2404Z" fill="#6A2403"/>
<path d="M306.388 74.9532C309.52 74.5007 311.259 79.2853 308.131 79.7315C304.989 80.2411 303.209 75.4727 306.388 74.9532Z" fill="#6A2403"/>
<path d="M291.723 62.1919C288.567 62.874 286.664 58.0139 289.942 57.3543C293.183 56.7591 294.838 61.5659 291.723 62.1919Z" fill="#6A2403"/>
<path d="M272.121 58.2878C269.08 58.8857 266.946 54.3008 270.1 53.7236C273.166 53.2023 275.191 57.7662 272.121 58.2878Z" fill="#6A2403"/>
<path d="M296.316 69.9294C293.403 70.2141 291.184 65.9345 294.134 65.6357C297.013 65.3879 299.21 69.7061 296.316 69.9294Z" fill="#6A2403"/>
<path d="M268.912 77.1742C265.955 77.9932 263.403 73.7307 266.397 72.9018C269.345 72.125 271.878 76.4198 268.912 77.1742Z" fill="#6A2403"/>
<path d="M277.855 61.4163C280.87 60.9599 282.995 65.3585 280.059 65.8476C277.07 66.3743 274.822 61.9511 277.855 61.4163Z" fill="#6A2403"/>
<path d="M271.106 68.9514C268.02 69.7272 265.81 65.1285 268.981 64.3619C272.072 63.6593 274.203 68.2464 271.106 68.9514Z" fill="#6A2403"/>
<path d="M288.249 29.3475C291.381 29.2828 292.621 34.1769 289.482 34.2272C286.313 34.3584 285.015 29.4811 288.249 29.3475Z" fill="#6A2403"/>
<path d="M244.968 43.7305C248.159 42.8751 250.131 47.7305 246.937 48.5796C243.731 49.4797 241.731 44.6526 244.968 43.7305Z" fill="#6A2403"/>
<path d="M235.09 66.7632C234.341 66.2471 233.898 65.3605 234.279 64.203C235.399 61.05 240.482 62.4341 239.366 65.4884L238.845 66.3788C240.217 67.5061 240.658 69.7201 238.617 70.5163C236.05 71.5362 233.895 68.531 235.09 66.7632Z" fill="#6A2403"/>
<path d="M294.178 60.2724C291.23 60.504 289.225 56.0336 292.236 55.8038C295.211 55.6571 297.088 60.0695 294.178 60.2724Z" fill="#6A2403"/>
<path d="M286.068 80.9258L286.078 81.1917L286.074 81.2044L286.042 81.8284C285.898 82.2638 285.585 82.5213 285.231 82.7112C286.07 84.333 284.794 86.169 282.493 85.0818C280.593 84.1762 280.383 82.3705 281.238 81.4861C281.035 81.1039 280.936 80.6863 281.087 80.215L281.151 80.1056C280.817 79.2462 281.04 78.3653 282.246 78.1089C284.263 77.6701 286.1 79.5931 286.068 80.9258Z" fill="#6A2403"/>
<path d="M256.27 68.8928C253.237 69.8385 250.797 65.3557 253.868 64.4022C256.942 63.5388 259.259 67.9907 256.27 68.8928Z" fill="#6A2403"/>
<path d="M235.844 33.3609C239.18 32.4517 240.842 37.4574 237.616 38.398C234.369 39.3918 232.449 34.3353 235.844 33.3609Z" fill="#6A2403"/>
<path d="M303.559 50.507C306.487 50.6704 307.972 55.2972 305.042 55.1003C302.069 54.9953 300.55 50.4139 303.559 50.507Z" fill="#6A2403"/>
<path d="M251.888 80.8635C248.936 82.0095 246.174 77.6775 249.251 76.5581C252.253 75.5025 254.88 79.8061 251.888 80.8635Z" fill="#6A2403"/>
<path d="M300.219 76.2489C303.047 76.0052 305.451 80.1015 302.629 80.345C299.787 80.6312 297.357 76.5527 300.219 76.2489Z" fill="#6A2403"/>
<path d="M270.167 87.6603C269.67 86.1027 270.905 84.3963 273.056 85.4076C275.487 86.5422 275.178 89.2087 273.398 89.5628C273.757 90.4254 273.646 91.3271 272.441 91.7051C269.601 92.6349 266.666 88.6598 269.583 87.7291L270.167 87.6603Z" fill="#6A2403"/>
<path d="M243.182 70.9096C244.163 67.8648 249.2 69.2234 248.252 72.1894C247.321 75.1107 242.21 73.952 243.182 70.9096Z" fill="#6A2403"/>
<path d="M246.926 85.5618C246.228 88.6188 241.019 87.9042 241.764 84.7133C242.517 81.518 247.686 82.4815 246.926 85.5618Z" fill="#6A2403"/>
<path d="M256.345 99.7281C255.764 102.892 250.513 102.506 251.122 99.2048C251.746 95.9033 256.939 96.5262 256.345 99.7281Z" fill="#6A2403"/>
<path d="M252.65 92.5072C252.031 95.3576 246.823 94.62 247.495 91.6416C248.159 88.672 253.285 89.6162 252.65 92.5072Z" fill="#6A2403"/>
<path d="M273.202 80.6294C272.347 83.1493 267.355 81.7973 268.196 79.1311C269.096 76.492 274.063 78.061 273.202 80.6294Z" fill="#6A2403"/>
<path d="M249.876 102.144C249.397 105.029 244.153 104.614 244.678 101.603C245.198 98.5786 250.381 99.2291 249.876 102.144Z" fill="#6A2403"/>
<path d="M247.634 116.41C246.947 120.016 241.662 119.873 242.36 116.103C243.113 112.362 248.362 112.778 247.634 116.41Z" fill="#6A2403"/>
<path d="M244.539 94.5909C244.264 97.8286 239.011 97.9335 239.307 94.523C239.624 91.1118 244.94 91.363 244.539 94.5909Z" fill="#6A2403"/>
<path d="M249.206 104.861C249.009 108.395 243.795 108.887 243.952 105.129C244.235 101.453 249.521 101.347 249.206 104.861Z" fill="#6A2403"/>
<path d="M259.805 59.6957C261.001 56.7704 265.926 58.5067 264.763 61.3698C263.634 64.1898 258.628 62.637 259.805 59.6957Z" fill="#6A2403"/>
</g>
<path d="M313.185 31.9653C313.964 37.7454 309.313 41.6223 304.233 41.7561C299.159 41.8897 295.358 38.1201 294.781 32.4454C294.25 27.1903 298.684 23.2548 303.739 22.6501C309.127 22.0011 312.468 26.7363 313.185 31.9653Z" fill="white"/>
<path d="M307.52 32.1259C307.668 33.2147 306.786 33.945 305.814 33.9722C304.857 34.0009 304.138 33.2906 304.013 32.2177C303.93 31.2207 304.764 30.4672 305.724 30.3545C306.753 30.2349 307.389 31.1329 307.52 32.1259Z" fill="black"/>
<path d="M343.378 23.4023C343.51 24.3723 342.731 25.0252 341.868 25.0481C341.012 25.0687 340.372 24.4414 340.274 23.4827C340.183 22.5909 340.938 21.9284 341.784 21.8223C342.699 21.7176 343.262 22.5094 343.378 23.4023Z" fill="black"/>
<path d="M354.096 75.1563C332.588 77.824 324.631 65.2556 324.631 65.2556" stroke="black" stroke-width="0.612" stroke-linecap="round"/>
<path d="M335.221 95.9098C332.305 92.6447 317.988 95.7133 303.553 104.762C283.147 117.545 252.352 121.82 259.159 127.389C265.963 132.94 269.731 132.643 280.523 129.703C291.788 126.637 303.051 124.685 319.054 111.629C328.324 104.061 331.027 100.312 335.221 95.9098Z" fill="#68701F"/>
<path d="M262.984 98.2736C269.557 91.5 292.796 81.5039 300.761 90.0649C308.714 98.6349 293.052 129.461 293.052 129.461C293.052 129.461 325.914 126.246 324.297 128.647C322.682 131.052 308.022 131.202 308.022 131.202C308.022 131.202 326.041 132.597 325.781 134.66C325.516 136.723 307.431 134.207 307.431 134.207C307.431 134.207 322.255 140.521 320.945 142.238C319.66 143.955 306.566 139.436 296.275 137.14C285.984 134.836 279.881 140.204 280.101 135.846C280.339 131.476 288.08 115.135 288.08 115.135C288.08 115.135 275.44 136.125 262.117 131.309C240.214 123.393 257.403 104.061 262.984 98.2736Z" fill="#9DB22D"/>
<path d="M366.042 54.4593C366.058 55.3037 365.389 56.0216 364.529 56.0465C363.665 56.0674 362.941 55.3846 362.921 54.5382C362.904 53.6624 363.587 52.9545 364.442 52.9361C365.306 52.9152 366.017 53.5859 366.042 54.4593Z" fill="black"/>
<path d="M372.273 52.0514C372.291 52.7404 371.751 53.3084 371.067 53.3244C370.389 53.3422 369.817 52.8026 369.797 52.1159C369.779 51.4416 370.325 50.8734 371.007 50.8575C371.687 50.8416 372.251 51.3753 372.273 52.0514Z" fill="black"/>
<path d="M322.124 88.6736C322.124 88.6736 327.181 115.393 331.182 119.479C334.414 122.799 336.251 121.699 336.251 121.699C336.251 121.699 347.565 120.002 345.6 122.156C343.637 124.325 336.332 124.539 336.332 124.539C336.332 124.539 348.89 127.395 346.909 128.663C344.928 129.926 334.37 128.23 334.37 128.23C334.37 128.23 347.098 134.195 343.846 134.359C339.336 134.577 328.376 130.806 327.232 128.016C326.07 125.203 313.676 100.904 310.959 96.3632C308.264 91.8272 322.124 88.6736 322.124 88.6736Z" fill="#869A2A"/>
</svg>
