<svg width="625" height="86" viewBox="0 0 625 86" fill="none" xmlns="http://www.w3.org/2000/svg">
<path d="M8.78416 28.6914V21.6028L2.7316 25.1842C2.33509 25.504 1.85416 25.3428 1.61626 24.9489L0.419044 22.7156C0.183695 22.3165 0.262997 21.8407 0.738811 21.6028L6.79649 18.2593L0.738811 14.7521C0.262997 14.5116 0.183695 14.0358 0.419044 13.6368L1.61626 11.4035C1.85416 11.0096 2.33509 10.8484 2.7316 11.1681L8.78416 14.8314V7.66096C8.78416 7.18003 9.10392 6.86792 9.58229 6.86792H11.9716C12.4525 6.86792 12.7672 7.18258 12.7672 7.66096L12.6853 14.8314L18.8223 11.1681C19.2188 10.8484 19.6972 11.0096 19.9351 11.4035L21.1297 13.6368C21.3702 14.0358 21.2909 14.5116 20.81 14.7521L14.76 18.2593L20.81 21.6028C21.2909 21.8407 21.3702 22.3165 21.1297 22.7156L19.9351 24.9489C19.6972 25.3428 19.2188 25.504 18.8223 25.1842L12.6853 21.6028L12.7672 28.6914C12.7672 29.1672 12.4525 29.487 11.9716 29.487H9.58229C9.10392 29.487 8.78416 29.1672 8.78416 28.6914Z" fill="#2BB673"/>
<path d="M48.9062 74H39.3555V56.8672H48.9062V58.6367H41.3477V64.1562H48.4492V65.9141H41.3477V72.2188H48.9062V74ZM60.707 70.4961C60.707 71.6914 60.2617 72.6133 59.3711 73.2617C58.4805 73.9102 57.2305 74.2344 55.6211 74.2344C53.918 74.2344 52.5898 73.9648 51.6367 73.4258V71.6211C52.2539 71.9336 52.9141 72.1797 53.6172 72.3594C54.3281 72.5391 55.0117 72.6289 55.668 72.6289C56.6836 72.6289 57.4648 72.4688 58.0117 72.1484C58.5586 71.8203 58.832 71.3242 58.832 70.6602C58.832 70.1602 58.6133 69.7344 58.1758 69.3828C57.7461 69.0234 56.9023 68.6016 55.6445 68.1172C54.4492 67.6719 53.5977 67.2852 53.0898 66.957C52.5898 66.6211 52.2148 66.2422 51.9648 65.8203C51.7227 65.3984 51.6016 64.8945 51.6016 64.3086C51.6016 63.2617 52.0273 62.4375 52.8789 61.8359C53.7305 61.2266 54.8984 60.9219 56.3828 60.9219C57.7656 60.9219 59.1172 61.2031 60.4375 61.7656L59.7461 63.3477C58.457 62.8164 57.2891 62.5508 56.2422 62.5508C55.3203 62.5508 54.625 62.6953 54.1562 62.9844C53.6875 63.2734 53.4531 63.6719 53.4531 64.1797C53.4531 64.5234 53.5391 64.8164 53.7109 65.0586C53.8906 65.3008 54.1758 65.5312 54.5664 65.75C54.957 65.9688 55.707 66.2852 56.8164 66.6992C58.3398 67.2539 59.3672 67.8125 59.8984 68.375C60.4375 68.9375 60.707 69.6445 60.707 70.4961ZM69.0156 74.2344C67.1562 74.2344 65.7148 73.6641 64.6914 72.5234C63.6758 71.375 63.168 69.7539 63.168 67.6602C63.168 65.5117 63.6836 63.8516 64.7148 62.6797C65.7539 61.5078 67.2305 60.9219 69.1445 60.9219C69.7617 60.9219 70.3789 60.9883 70.9961 61.1211C71.6133 61.2539 72.0977 61.4102 72.4492 61.5898L71.8516 63.2422C71.4219 63.0703 70.9531 62.9297 70.4453 62.8203C69.9375 62.7031 69.4883 62.6445 69.0977 62.6445C66.4883 62.6445 65.1836 64.3086 65.1836 67.6367C65.1836 69.2148 65.5 70.4258 66.1328 71.2695C66.7734 72.1133 67.7188 72.5352 68.9688 72.5352C70.0391 72.5352 71.1367 72.3047 72.2617 71.8438V73.5664C71.4023 74.0117 70.3203 74.2344 69.0156 74.2344ZM81.1797 60.9219C81.75 60.9219 82.2617 60.9688 82.7148 61.0625L82.4453 62.8672C81.9141 62.75 81.4453 62.6914 81.0391 62.6914C80 62.6914 79.1094 63.1133 78.3672 63.957C77.6328 64.8008 77.2656 65.8516 77.2656 67.1094V74H75.3203V61.1562H76.9258L77.1484 63.5352H77.2422C77.7188 62.6992 78.293 62.0547 78.9648 61.6016C79.6367 61.1484 80.375 60.9219 81.1797 60.9219ZM87.0625 74H85.1172V61.1562H87.0625V74ZM84.9531 57.6758C84.9531 57.2305 85.0625 56.9062 85.2812 56.7031C85.5 56.4922 85.7734 56.3867 86.1016 56.3867C86.4141 56.3867 86.6836 56.4922 86.9102 56.7031C87.1367 56.9141 87.25 57.2383 87.25 57.6758C87.25 58.1133 87.1367 58.4414 86.9102 58.6602C86.6836 58.8711 86.4141 58.9766 86.1016 58.9766C85.7734 58.9766 85.5 58.8711 85.2812 58.6602C85.0625 58.4414 84.9531 58.1133 84.9531 57.6758ZM97.1641 60.9453C98.8516 60.9453 100.16 61.5234 101.09 62.6797C102.027 63.8281 102.496 65.457 102.496 67.5664C102.496 69.6758 102.023 71.3164 101.078 72.4883C100.141 73.6523 98.8359 74.2344 97.1641 74.2344C96.3281 74.2344 95.5625 74.082 94.8672 73.7773C94.1797 73.4648 93.6016 72.9883 93.1328 72.3477H92.9922L92.582 74H91.1875V55.7656H93.1328V60.1953C93.1328 61.1875 93.1016 62.0781 93.0391 62.8672H93.1328C94.0391 61.5859 95.3828 60.9453 97.1641 60.9453ZM96.8828 62.5742C95.5547 62.5742 94.5977 62.957 94.0117 63.7227C93.4258 64.4805 93.1328 65.7617 93.1328 67.5664C93.1328 69.3711 93.4336 70.6641 94.0352 71.4453C94.6367 72.2188 95.6016 72.6055 96.9297 72.6055C98.125 72.6055 99.0156 72.1719 99.6016 71.3047C100.188 70.4297 100.48 69.1758 100.48 67.543C100.48 65.8711 100.188 64.625 99.6016 63.8047C99.0156 62.9844 98.1094 62.5742 96.8828 62.5742ZM111.332 74.2344C109.434 74.2344 107.934 73.6562 106.832 72.5C105.738 71.3438 105.191 69.7383 105.191 67.6836C105.191 65.6133 105.699 63.9688 106.715 62.75C107.738 61.5312 109.109 60.9219 110.828 60.9219C112.438 60.9219 113.711 61.4531 114.648 62.5156C115.586 63.5703 116.055 64.9648 116.055 66.6992V67.9297H107.207C107.246 69.4375 107.625 70.582 108.344 71.3633C109.07 72.1445 110.09 72.5352 111.402 72.5352C112.785 72.5352 114.152 72.2461 115.504 71.668V73.4023C114.816 73.6992 114.164 73.9102 113.547 74.0352C112.938 74.168 112.199 74.2344 111.332 74.2344ZM110.805 62.5508C109.773 62.5508 108.949 62.8867 108.332 63.5586C107.723 64.2305 107.363 65.1602 107.254 66.3477H113.969C113.969 65.1211 113.695 64.1836 113.148 63.5352C112.602 62.8789 111.82 62.5508 110.805 62.5508ZM127.562 74H125.617V55.7656H127.562V74ZM139.586 74L139.199 72.1719H139.105C138.465 72.9766 137.824 73.5234 137.184 73.8125C136.551 74.0938 135.758 74.2344 134.805 74.2344C133.531 74.2344 132.531 73.9062 131.805 73.25C131.086 72.5938 130.727 71.6602 130.727 70.4492C130.727 67.8555 132.801 66.4961 136.949 66.3711L139.129 66.3008V65.5039C139.129 64.4961 138.91 63.7539 138.473 63.2773C138.043 62.793 137.352 62.5508 136.398 62.5508C135.328 62.5508 134.117 62.8789 132.766 63.5352L132.168 62.0469C132.801 61.7031 133.492 61.4336 134.242 61.2383C135 61.043 135.758 60.9453 136.516 60.9453C138.047 60.9453 139.18 61.2852 139.914 61.9648C140.656 62.6445 141.027 63.7344 141.027 65.2344V74H139.586ZM135.191 72.6289C136.402 72.6289 137.352 72.2969 138.039 71.6328C138.734 70.9688 139.082 70.0391 139.082 68.8438V67.6836L137.137 67.7656C135.59 67.8203 134.473 68.0625 133.785 68.4922C133.105 68.9141 132.766 69.5742 132.766 70.4727C132.766 71.1758 132.977 71.7109 133.398 72.0781C133.828 72.4453 134.426 72.6289 135.191 72.6289ZM157.141 60.9219C157.711 60.9219 158.223 60.9688 158.676 61.0625L158.406 62.8672C157.875 62.75 157.406 62.6914 157 62.6914C155.961 62.6914 155.07 63.1133 154.328 63.957C153.594 64.8008 153.227 65.8516 153.227 67.1094V74H151.281V61.1562H152.887L153.109 63.5352H153.203C153.68 62.6992 154.254 62.0547 154.926 61.6016C155.598 61.1484 156.336 60.9219 157.141 60.9219ZM166.504 74.2344C164.605 74.2344 163.105 73.6562 162.004 72.5C160.91 71.3438 160.363 69.7383 160.363 67.6836C160.363 65.6133 160.871 63.9688 161.887 62.75C162.91 61.5312 164.281 60.9219 166 60.9219C167.609 60.9219 168.883 61.4531 169.82 62.5156C170.758 63.5703 171.227 64.9648 171.227 66.6992V67.9297H162.379C162.418 69.4375 162.797 70.582 163.516 71.3633C164.242 72.1445 165.262 72.5352 166.574 72.5352C167.957 72.5352 169.324 72.2461 170.676 71.668V73.4023C169.988 73.6992 169.336 73.9102 168.719 74.0352C168.109 74.168 167.371 74.2344 166.504 74.2344ZM165.977 62.5508C164.945 62.5508 164.121 62.8867 163.504 63.5586C162.895 64.2305 162.535 65.1602 162.426 66.3477H169.141C169.141 65.1211 168.867 64.1836 168.32 63.5352C167.773 62.8789 166.992 62.5508 165.977 62.5508ZM182.84 70.4961C182.84 71.6914 182.395 72.6133 181.504 73.2617C180.613 73.9102 179.363 74.2344 177.754 74.2344C176.051 74.2344 174.723 73.9648 173.77 73.4258V71.6211C174.387 71.9336 175.047 72.1797 175.75 72.3594C176.461 72.5391 177.145 72.6289 177.801 72.6289C178.816 72.6289 179.598 72.4688 180.145 72.1484C180.691 71.8203 180.965 71.3242 180.965 70.6602C180.965 70.1602 180.746 69.7344 180.309 69.3828C179.879 69.0234 179.035 68.6016 177.777 68.1172C176.582 67.6719 175.73 67.2852 175.223 66.957C174.723 66.6211 174.348 66.2422 174.098 65.8203C173.855 65.3984 173.734 64.8945 173.734 64.3086C173.734 63.2617 174.16 62.4375 175.012 61.8359C175.863 61.2266 177.031 60.9219 178.516 60.9219C179.898 60.9219 181.25 61.2031 182.57 61.7656L181.879 63.3477C180.59 62.8164 179.422 62.5508 178.375 62.5508C177.453 62.5508 176.758 62.6953 176.289 62.9844C175.82 63.2734 175.586 63.6719 175.586 64.1797C175.586 64.5234 175.672 64.8164 175.844 65.0586C176.023 65.3008 176.309 65.5312 176.699 65.75C177.09 65.9688 177.84 66.2852 178.949 66.6992C180.473 67.2539 181.5 67.8125 182.031 68.375C182.57 68.9375 182.84 69.6445 182.84 70.4961ZM191.992 74.2344C191.156 74.2344 190.391 74.082 189.695 73.7773C189.008 73.4648 188.43 72.9883 187.961 72.3477H187.82C187.914 73.0977 187.961 73.8086 187.961 74.4805V79.7656H186.016V61.1562H187.598L187.867 62.9141H187.961C188.461 62.2109 189.043 61.7031 189.707 61.3906C190.371 61.0781 191.133 60.9219 191.992 60.9219C193.695 60.9219 195.008 61.5039 195.93 62.668C196.859 63.832 197.324 65.4648 197.324 67.5664C197.324 69.6758 196.852 71.3164 195.906 72.4883C194.969 73.6523 193.664 74.2344 191.992 74.2344ZM191.711 62.5742C190.398 62.5742 189.449 62.9375 188.863 63.6641C188.277 64.3906 187.977 65.5469 187.961 67.1328V67.5664C187.961 69.3711 188.262 70.6641 188.863 71.4453C189.465 72.2188 190.43 72.6055 191.758 72.6055C192.867 72.6055 193.734 72.1562 194.359 71.2578C194.992 70.3594 195.309 69.1211 195.309 67.543C195.309 65.9414 194.992 64.7148 194.359 63.8633C193.734 63.0039 192.852 62.5742 191.711 62.5742ZM202.562 61.1562V69.4883C202.562 70.5352 202.801 71.3164 203.277 71.832C203.754 72.3477 204.5 72.6055 205.516 72.6055C206.859 72.6055 207.84 72.2383 208.457 71.5039C209.082 70.7695 209.395 69.5703 209.395 67.9062V61.1562H211.34V74H209.734L209.453 72.2773H209.348C208.949 72.9102 208.395 73.3945 207.684 73.7305C206.98 74.0664 206.176 74.2344 205.27 74.2344C203.707 74.2344 202.535 73.8633 201.754 73.1211C200.98 72.3789 200.594 71.1914 200.594 69.5586V61.1562H202.562ZM220.902 74.2344C219.004 74.2344 217.504 73.6562 216.402 72.5C215.309 71.3438 214.762 69.7383 214.762 67.6836C214.762 65.6133 215.27 63.9688 216.285 62.75C217.309 61.5312 218.68 60.9219 220.398 60.9219C222.008 60.9219 223.281 61.4531 224.219 62.5156C225.156 63.5703 225.625 64.9648 225.625 66.6992V67.9297H216.777C216.816 69.4375 217.195 70.582 217.914 71.3633C218.641 72.1445 219.66 72.5352 220.973 72.5352C222.355 72.5352 223.723 72.2461 225.074 71.668V73.4023C224.387 73.6992 223.734 73.9102 223.117 74.0352C222.508 74.168 221.77 74.2344 220.902 74.2344ZM220.375 62.5508C219.344 62.5508 218.52 62.8867 217.902 63.5586C217.293 64.2305 216.934 65.1602 216.824 66.3477H223.539C223.539 65.1211 223.266 64.1836 222.719 63.5352C222.172 62.8789 221.391 62.5508 220.375 62.5508ZM237.238 70.4961C237.238 71.6914 236.793 72.6133 235.902 73.2617C235.012 73.9102 233.762 74.2344 232.152 74.2344C230.449 74.2344 229.121 73.9648 228.168 73.4258V71.6211C228.785 71.9336 229.445 72.1797 230.148 72.3594C230.859 72.5391 231.543 72.6289 232.199 72.6289C233.215 72.6289 233.996 72.4688 234.543 72.1484C235.09 71.8203 235.363 71.3242 235.363 70.6602C235.363 70.1602 235.145 69.7344 234.707 69.3828C234.277 69.0234 233.434 68.6016 232.176 68.1172C230.98 67.6719 230.129 67.2852 229.621 66.957C229.121 66.6211 228.746 66.2422 228.496 65.8203C228.254 65.3984 228.133 64.8945 228.133 64.3086C228.133 63.2617 228.559 62.4375 229.41 61.8359C230.262 61.2266 231.43 60.9219 232.914 60.9219C234.297 60.9219 235.648 61.2031 236.969 61.7656L236.277 63.3477C234.988 62.8164 233.82 62.5508 232.773 62.5508C231.852 62.5508 231.156 62.6953 230.688 62.9844C230.219 63.2734 229.984 63.6719 229.984 64.1797C229.984 64.5234 230.07 64.8164 230.242 65.0586C230.422 65.3008 230.707 65.5312 231.098 65.75C231.488 65.9688 232.238 66.2852 233.348 66.6992C234.871 67.2539 235.898 67.8125 236.43 68.375C236.969 68.9375 237.238 69.6445 237.238 70.4961ZM244.562 72.6289C244.906 72.6289 245.238 72.6055 245.559 72.5586C245.879 72.5039 246.133 72.4492 246.32 72.3945V73.8828C246.109 73.9844 245.797 74.0664 245.383 74.1289C244.977 74.1992 244.609 74.2344 244.281 74.2344C241.797 74.2344 240.555 72.9258 240.555 70.3086V62.668H238.715V61.7305L240.555 60.9219L241.375 58.1797H242.5V61.1562H246.227V62.668H242.5V70.2266C242.5 71 242.684 71.5938 243.051 72.0078C243.418 72.4219 243.922 72.6289 244.562 72.6289ZM256.797 74L256.41 72.1719H256.316C255.676 72.9766 255.035 73.5234 254.395 73.8125C253.762 74.0938 252.969 74.2344 252.016 74.2344C250.742 74.2344 249.742 73.9062 249.016 73.25C248.297 72.5938 247.938 71.6602 247.938 70.4492C247.938 67.8555 250.012 66.4961 254.16 66.3711L256.34 66.3008V65.5039C256.34 64.4961 256.121 63.7539 255.684 63.2773C255.254 62.793 254.562 62.5508 253.609 62.5508C252.539 62.5508 251.328 62.8789 249.977 63.5352L249.379 62.0469C250.012 61.7031 250.703 61.4336 251.453 61.2383C252.211 61.043 252.969 60.9453 253.727 60.9453C255.258 60.9453 256.391 61.2852 257.125 61.9648C257.867 62.6445 258.238 63.7344 258.238 65.2344V74H256.797ZM252.402 72.6289C253.613 72.6289 254.562 72.2969 255.25 71.6328C255.945 70.9688 256.293 70.0391 256.293 68.8438V67.6836L254.348 67.7656C252.801 67.8203 251.684 68.0625 250.996 68.4922C250.316 68.9141 249.977 69.5742 249.977 70.4727C249.977 71.1758 250.188 71.7109 250.609 72.0781C251.039 72.4453 251.637 72.6289 252.402 72.6289ZM273.918 74.2344C272.02 74.2344 270.52 73.6562 269.418 72.5C268.324 71.3438 267.777 69.7383 267.777 67.6836C267.777 65.6133 268.285 63.9688 269.301 62.75C270.324 61.5312 271.695 60.9219 273.414 60.9219C275.023 60.9219 276.297 61.4531 277.234 62.5156C278.172 63.5703 278.641 64.9648 278.641 66.6992V67.9297H269.793C269.832 69.4375 270.211 70.582 270.93 71.3633C271.656 72.1445 272.676 72.5352 273.988 72.5352C275.371 72.5352 276.738 72.2461 278.09 71.668V73.4023C277.402 73.6992 276.75 73.9102 276.133 74.0352C275.523 74.168 274.785 74.2344 273.918 74.2344ZM273.391 62.5508C272.359 62.5508 271.535 62.8867 270.918 63.5586C270.309 64.2305 269.949 65.1602 269.84 66.3477H276.555C276.555 65.1211 276.281 64.1836 275.734 63.5352C275.188 62.8789 274.406 62.5508 273.391 62.5508ZM290.758 74V65.6914C290.758 64.6445 290.52 63.8633 290.043 63.3477C289.566 62.832 288.82 62.5742 287.805 62.5742C286.461 62.5742 285.477 62.9375 284.852 63.6641C284.227 64.3906 283.914 65.5898 283.914 67.2617V74H281.969V61.1562H283.551L283.867 62.9141H283.961C284.359 62.2812 284.918 61.793 285.637 61.4492C286.355 61.0977 287.156 60.9219 288.039 60.9219C289.586 60.9219 290.75 61.2969 291.531 62.0469C292.312 62.7891 292.703 63.9805 292.703 65.6211V74H290.758ZM304.891 74H302.945V55.7656H304.891V74ZM316.914 74L316.527 72.1719H316.434C315.793 72.9766 315.152 73.5234 314.512 73.8125C313.879 74.0938 313.086 74.2344 312.133 74.2344C310.859 74.2344 309.859 73.9062 309.133 73.25C308.414 72.5938 308.055 71.6602 308.055 70.4492C308.055 67.8555 310.129 66.4961 314.277 66.3711L316.457 66.3008V65.5039C316.457 64.4961 316.238 63.7539 315.801 63.2773C315.371 62.793 314.68 62.5508 313.727 62.5508C312.656 62.5508 311.445 62.8789 310.094 63.5352L309.496 62.0469C310.129 61.7031 310.82 61.4336 311.57 61.2383C312.328 61.043 313.086 60.9453 313.844 60.9453C315.375 60.9453 316.508 61.2852 317.242 61.9648C317.984 62.6445 318.355 63.7344 318.355 65.2344V74H316.914ZM312.52 72.6289C313.73 72.6289 314.68 72.2969 315.367 71.6328C316.062 70.9688 316.41 70.0391 316.41 68.8438V67.6836L314.465 67.7656C312.918 67.8203 311.801 68.0625 311.113 68.4922C310.434 68.9141 310.094 69.5742 310.094 70.4727C310.094 71.1758 310.305 71.7109 310.727 72.0781C311.156 72.4453 311.754 72.6289 312.52 72.6289ZM330.555 74H328.609V55.7656H330.555V74ZM336.625 74H334.68V61.1562H336.625V74ZM334.598 59.1641C334.973 58.6797 335.375 58.0938 335.805 57.4062C336.242 56.7188 336.586 56.1211 336.836 55.6133H339.203V55.8594C338.859 56.3672 338.348 56.9922 337.668 57.7344C336.988 58.4766 336.398 59.0508 335.898 59.457H334.598V59.1641ZM349.539 74V65.6914C349.539 64.6445 349.301 63.8633 348.824 63.3477C348.348 62.832 347.602 62.5742 346.586 62.5742C345.242 62.5742 344.258 62.9375 343.633 63.6641C343.008 64.3906 342.695 65.5898 342.695 67.2617V74H340.75V61.1562H342.332L342.648 62.9141H342.742C343.141 62.2812 343.699 61.793 344.418 61.4492C345.137 61.0977 345.938 60.9219 346.82 60.9219C348.367 60.9219 349.531 61.2969 350.312 62.0469C351.094 62.7891 351.484 63.9805 351.484 65.6211V74H349.539ZM360.918 74.2344C359.02 74.2344 357.52 73.6562 356.418 72.5C355.324 71.3438 354.777 69.7383 354.777 67.6836C354.777 65.6133 355.285 63.9688 356.301 62.75C357.324 61.5312 358.695 60.9219 360.414 60.9219C362.023 60.9219 363.297 61.4531 364.234 62.5156C365.172 63.5703 365.641 64.9648 365.641 66.6992V67.9297H356.793C356.832 69.4375 357.211 70.582 357.93 71.3633C358.656 72.1445 359.676 72.5352 360.988 72.5352C362.371 72.5352 363.738 72.2461 365.09 71.668V73.4023C364.402 73.6992 363.75 73.9102 363.133 74.0352C362.523 74.168 361.785 74.2344 360.918 74.2344ZM360.391 62.5508C359.359 62.5508 358.535 62.8867 357.918 63.5586C357.309 64.2305 356.949 65.1602 356.84 66.3477H363.555C363.555 65.1211 363.281 64.1836 362.734 63.5352C362.188 62.8789 361.406 62.5508 360.391 62.5508ZM376.867 74L376.48 72.1719H376.387C375.746 72.9766 375.105 73.5234 374.465 73.8125C373.832 74.0938 373.039 74.2344 372.086 74.2344C370.812 74.2344 369.812 73.9062 369.086 73.25C368.367 72.5938 368.008 71.6602 368.008 70.4492C368.008 67.8555 370.082 66.4961 374.23 66.3711L376.41 66.3008V65.5039C376.41 64.4961 376.191 63.7539 375.754 63.2773C375.324 62.793 374.633 62.5508 373.68 62.5508C372.609 62.5508 371.398 62.8789 370.047 63.5352L369.449 62.0469C370.082 61.7031 370.773 61.4336 371.523 61.2383C372.281 61.043 373.039 60.9453 373.797 60.9453C375.328 60.9453 376.461 61.2852 377.195 61.9648C377.938 62.6445 378.309 63.7344 378.309 65.2344V74H376.867ZM372.473 72.6289C373.684 72.6289 374.633 72.2969 375.32 71.6328C376.016 70.9688 376.363 70.0391 376.363 68.8438V67.6836L374.418 67.7656C372.871 67.8203 371.754 68.0625 371.066 68.4922C370.387 68.9141 370.047 69.5742 370.047 70.4727C370.047 71.1758 370.258 71.7109 370.68 72.0781C371.109 72.4453 371.707 72.6289 372.473 72.6289ZM382.047 72.7578C382.047 72.2344 382.164 71.8398 382.398 71.5742C382.641 71.3008 382.984 71.1641 383.43 71.1641C383.883 71.1641 384.234 71.3008 384.484 71.5742C384.742 71.8398 384.871 72.2344 384.871 72.7578C384.871 73.2656 384.742 73.6562 384.484 73.9297C384.227 74.2031 383.875 74.3398 383.43 74.3398C383.031 74.3398 382.699 74.2188 382.434 73.9766C382.176 73.7266 382.047 73.3203 382.047 72.7578Z" fill="black"/>
<path d="M49.6914 10.4023C47.8086 10.4023 46.3203 11.0312 45.2266 12.2891C44.1406 13.5391 43.5977 15.2539 43.5977 17.4336C43.5977 19.6758 44.1211 21.4102 45.168 22.6367C46.2227 23.8555 47.7227 24.4648 49.668 24.4648C50.8633 24.4648 52.2266 24.25 53.7578 23.8203V25.5664C52.5703 26.0117 51.1055 26.2344 49.3633 26.2344C46.8398 26.2344 44.8906 25.4688 43.5156 23.9375C42.1484 22.4062 41.4648 20.2305 41.4648 17.4102C41.4648 15.6445 41.793 14.0977 42.4492 12.7695C43.1133 11.4414 44.0664 10.418 45.3086 9.69922C46.5586 8.98047 48.0273 8.62109 49.7148 8.62109C51.5117 8.62109 53.082 8.94922 54.4258 9.60547L53.582 11.3164C52.2852 10.707 50.9883 10.4023 49.6914 10.4023ZM68.2891 19.5664C68.2891 21.6602 67.7617 23.2969 66.707 24.4766C65.6523 25.6484 64.1953 26.2344 62.3359 26.2344C61.1875 26.2344 60.168 25.9648 59.2773 25.4258C58.3867 24.8867 57.6992 24.1133 57.2148 23.1055C56.7305 22.0977 56.4883 20.918 56.4883 19.5664C56.4883 17.4727 57.0117 15.8438 58.0586 14.6797C59.1055 13.5078 60.5586 12.9219 62.418 12.9219C64.2148 12.9219 65.6406 13.5195 66.6953 14.7148C67.7578 15.9102 68.2891 17.5273 68.2891 19.5664ZM58.5039 19.5664C58.5039 21.207 58.832 22.457 59.4883 23.3164C60.1445 24.1758 61.1094 24.6055 62.3828 24.6055C63.6562 24.6055 64.6211 24.1797 65.2773 23.3281C65.9414 22.4688 66.2734 21.2148 66.2734 19.5664C66.2734 17.9336 65.9414 16.6953 65.2773 15.8516C64.6211 15 63.6484 14.5742 62.3594 14.5742C61.0859 14.5742 60.125 14.9922 59.4766 15.8281C58.8281 16.6641 58.5039 17.9102 58.5039 19.5664ZM88.082 26V17.6445C88.082 16.6211 87.8633 15.8555 87.4258 15.3477C86.9883 14.832 86.3086 14.5742 85.3867 14.5742C84.1758 14.5742 83.2812 14.9219 82.7031 15.6172C82.125 16.3125 81.8359 17.3828 81.8359 18.8281V26H79.8906V17.6445C79.8906 16.6211 79.6719 15.8555 79.2344 15.3477C78.7969 14.832 78.1133 14.5742 77.1836 14.5742C75.9648 14.5742 75.0703 14.9414 74.5 15.6758C73.9375 16.4023 73.6562 17.5977 73.6562 19.2617V26H71.7109V13.1562H73.293L73.6094 14.9141H73.7031C74.0703 14.2891 74.5859 13.8008 75.25 13.4492C75.9219 13.0977 76.6719 12.9219 77.5 12.9219C79.5078 12.9219 80.8203 13.6484 81.4375 15.1016H81.5312C81.9141 14.4297 82.4688 13.8984 83.1953 13.5078C83.9219 13.1172 84.75 12.9219 85.6797 12.9219C87.1328 12.9219 88.2188 13.2969 88.9375 14.0469C89.6641 14.7891 90.0273 15.9805 90.0273 17.6211V26H88.082ZM100.023 26.2344C99.1875 26.2344 98.4219 26.082 97.7266 25.7773C97.0391 25.4648 96.4609 24.9883 95.9922 24.3477H95.8516C95.9453 25.0977 95.9922 25.8086 95.9922 26.4805V31.7656H94.0469V13.1562H95.6289L95.8984 14.9141H95.9922C96.4922 14.2109 97.0742 13.7031 97.7383 13.3906C98.4023 13.0781 99.1641 12.9219 100.023 12.9219C101.727 12.9219 103.039 13.5039 103.961 14.668C104.891 15.832 105.355 17.4648 105.355 19.5664C105.355 21.6758 104.883 23.3164 103.938 24.4883C103 25.6523 101.695 26.2344 100.023 26.2344ZM99.7422 14.5742C98.4297 14.5742 97.4805 14.9375 96.8945 15.6641C96.3086 16.3906 96.0078 17.5469 95.9922 19.1328V19.5664C95.9922 21.3711 96.293 22.6641 96.8945 23.4453C97.4961 24.2188 98.4609 24.6055 99.7891 24.6055C100.898 24.6055 101.766 24.1562 102.391 23.2578C103.023 22.3594 103.34 21.1211 103.34 19.543C103.34 17.9414 103.023 16.7148 102.391 15.8633C101.766 15.0039 100.883 14.5742 99.7422 14.5742ZM110.711 26H108.766V7.76562H110.711V26ZM120.262 26.2344C118.363 26.2344 116.863 25.6562 115.762 24.5C114.668 23.3438 114.121 21.7383 114.121 19.6836C114.121 17.6133 114.629 15.9688 115.645 14.75C116.668 13.5312 118.039 12.9219 119.758 12.9219C121.367 12.9219 122.641 13.4531 123.578 14.5156C124.516 15.5703 124.984 16.9648 124.984 18.6992V19.9297H116.137C116.176 21.4375 116.555 22.582 117.273 23.3633C118 24.1445 119.02 24.5352 120.332 24.5352C121.715 24.5352 123.082 24.2461 124.434 23.668V25.4023C123.746 25.6992 123.094 25.9102 122.477 26.0352C121.867 26.168 121.129 26.2344 120.262 26.2344ZM119.734 14.5508C118.703 14.5508 117.879 14.8867 117.262 15.5586C116.652 16.2305 116.293 17.1602 116.184 18.3477H122.898C122.898 17.1211 122.625 16.1836 122.078 15.5352C121.531 14.8789 120.75 14.5508 119.734 14.5508ZM132.461 24.6289C132.805 24.6289 133.137 24.6055 133.457 24.5586C133.777 24.5039 134.031 24.4492 134.219 24.3945V25.8828C134.008 25.9844 133.695 26.0664 133.281 26.1289C132.875 26.1992 132.508 26.2344 132.18 26.2344C129.695 26.2344 128.453 24.9258 128.453 22.3086V14.668H126.613V13.7305L128.453 12.9219L129.273 10.1797H130.398V13.1562H134.125V14.668H130.398V22.2266C130.398 23 130.582 23.5938 130.949 24.0078C131.316 24.4219 131.82 24.6289 132.461 24.6289ZM144.695 26L144.309 24.1719H144.215C143.574 24.9766 142.934 25.5234 142.293 25.8125C141.66 26.0938 140.867 26.2344 139.914 26.2344C138.641 26.2344 137.641 25.9062 136.914 25.25C136.195 24.5938 135.836 23.6602 135.836 22.4492C135.836 19.8555 137.91 18.4961 142.059 18.3711L144.238 18.3008V17.5039C144.238 16.4961 144.02 15.7539 143.582 15.2773C143.152 14.793 142.461 14.5508 141.508 14.5508C140.438 14.5508 139.227 14.8789 137.875 15.5352L137.277 14.0469C137.91 13.7031 138.602 13.4336 139.352 13.2383C140.109 13.043 140.867 12.9453 141.625 12.9453C143.156 12.9453 144.289 13.2852 145.023 13.9648C145.766 14.6445 146.137 15.7344 146.137 17.2344V26H144.695ZM140.301 24.6289C141.512 24.6289 142.461 24.2969 143.148 23.6328C143.844 22.9688 144.191 22.0391 144.191 20.8438V19.6836L142.246 19.7656C140.699 19.8203 139.582 20.0625 138.895 20.4922C138.215 20.9141 137.875 21.5742 137.875 22.4727C137.875 23.1758 138.086 23.7109 138.508 24.0781C138.938 24.4453 139.535 24.6289 140.301 24.6289ZM158.336 26H156.391V7.76562H158.336V26ZM170.359 26L169.973 24.1719H169.879C169.238 24.9766 168.598 25.5234 167.957 25.8125C167.324 26.0938 166.531 26.2344 165.578 26.2344C164.305 26.2344 163.305 25.9062 162.578 25.25C161.859 24.5938 161.5 23.6602 161.5 22.4492C161.5 19.8555 163.574 18.4961 167.723 18.3711L169.902 18.3008V17.5039C169.902 16.4961 169.684 15.7539 169.246 15.2773C168.816 14.793 168.125 14.5508 167.172 14.5508C166.102 14.5508 164.891 14.8789 163.539 15.5352L162.941 14.0469C163.574 13.7031 164.266 13.4336 165.016 13.2383C165.773 13.043 166.531 12.9453 167.289 12.9453C168.82 12.9453 169.953 13.2852 170.688 13.9648C171.43 14.6445 171.801 15.7344 171.801 17.2344V26H170.359ZM165.965 24.6289C167.176 24.6289 168.125 24.2969 168.812 23.6328C169.508 22.9688 169.855 22.0391 169.855 20.8438V19.6836L167.91 19.7656C166.363 19.8203 165.246 20.0625 164.559 20.4922C163.879 20.9141 163.539 21.5742 163.539 22.4727C163.539 23.1758 163.75 23.7109 164.172 24.0781C164.602 24.4453 165.199 24.6289 165.965 24.6289ZM184.105 22.4961C184.105 23.6914 183.66 24.6133 182.77 25.2617C181.879 25.9102 180.629 26.2344 179.02 26.2344C177.316 26.2344 175.988 25.9648 175.035 25.4258V23.6211C175.652 23.9336 176.312 24.1797 177.016 24.3594C177.727 24.5391 178.41 24.6289 179.066 24.6289C180.082 24.6289 180.863 24.4688 181.41 24.1484C181.957 23.8203 182.23 23.3242 182.23 22.6602C182.23 22.1602 182.012 21.7344 181.574 21.3828C181.145 21.0234 180.301 20.6016 179.043 20.1172C177.848 19.6719 176.996 19.2852 176.488 18.957C175.988 18.6211 175.613 18.2422 175.363 17.8203C175.121 17.3984 175 16.8945 175 16.3086C175 15.2617 175.426 14.4375 176.277 13.8359C177.129 13.2266 178.297 12.9219 179.781 12.9219C181.164 12.9219 182.516 13.2031 183.836 13.7656L183.145 15.3477C181.855 14.8164 180.688 14.5508 179.641 14.5508C178.719 14.5508 178.023 14.6953 177.555 14.9844C177.086 15.2734 176.852 15.6719 176.852 16.1797C176.852 16.5234 176.938 16.8164 177.109 17.0586C177.289 17.3008 177.574 17.5312 177.965 17.75C178.355 17.9688 179.105 18.2852 180.215 18.6992C181.738 19.2539 182.766 19.8125 183.297 20.375C183.836 20.9375 184.105 21.6445 184.105 22.4961ZM199.492 26.2344C198.656 26.2344 197.891 26.082 197.195 25.7773C196.508 25.4648 195.93 24.9883 195.461 24.3477H195.32C195.414 25.0977 195.461 25.8086 195.461 26.4805V31.7656H193.516V13.1562H195.098L195.367 14.9141H195.461C195.961 14.2109 196.543 13.7031 197.207 13.3906C197.871 13.0781 198.633 12.9219 199.492 12.9219C201.195 12.9219 202.508 13.5039 203.43 14.668C204.359 15.832 204.824 17.4648 204.824 19.5664C204.824 21.6758 204.352 23.3164 203.406 24.4883C202.469 25.6523 201.164 26.2344 199.492 26.2344ZM199.211 14.5742C197.898 14.5742 196.949 14.9375 196.363 15.6641C195.777 16.3906 195.477 17.5469 195.461 19.1328V19.5664C195.461 21.3711 195.762 22.6641 196.363 23.4453C196.965 24.2188 197.93 24.6055 199.258 24.6055C200.367 24.6055 201.234 24.1562 201.859 23.2578C202.492 22.3594 202.809 21.1211 202.809 19.543C202.809 17.9414 202.492 16.7148 201.859 15.8633C201.234 15.0039 200.352 14.5742 199.211 14.5742ZM214.094 12.9219C214.664 12.9219 215.176 12.9688 215.629 13.0625L215.359 14.8672C214.828 14.75 214.359 14.6914 213.953 14.6914C212.914 14.6914 212.023 15.1133 211.281 15.957C210.547 16.8008 210.18 17.8516 210.18 19.1094V26H208.234V13.1562H209.84L210.062 15.5352H210.156C210.633 14.6992 211.207 14.0547 211.879 13.6016C212.551 13.1484 213.289 12.9219 214.094 12.9219ZM223.457 26.2344C221.559 26.2344 220.059 25.6562 218.957 24.5C217.863 23.3438 217.316 21.7383 217.316 19.6836C217.316 17.6133 217.824 15.9688 218.84 14.75C219.863 13.5312 221.234 12.9219 222.953 12.9219C224.562 12.9219 225.836 13.4531 226.773 14.5156C227.711 15.5703 228.18 16.9648 228.18 18.6992V19.9297H219.332C219.371 21.4375 219.75 22.582 220.469 23.3633C221.195 24.1445 222.215 24.5352 223.527 24.5352C224.91 24.5352 226.277 24.2461 227.629 23.668V25.4023C226.941 25.6992 226.289 25.9102 225.672 26.0352C225.062 26.168 224.324 26.2344 223.457 26.2344ZM222.93 14.5508C221.898 14.5508 221.074 14.8867 220.457 15.5586C219.848 16.2305 219.488 17.1602 219.379 18.3477H226.094C226.094 17.1211 225.82 16.1836 225.273 15.5352C224.727 14.8789 223.945 14.5508 222.93 14.5508ZM242.02 13.1562V14.3867L239.641 14.668C239.859 14.9414 240.055 15.3008 240.227 15.7461C240.398 16.1836 240.484 16.6797 240.484 17.2344C240.484 18.4922 240.055 19.4961 239.195 20.2461C238.336 20.9961 237.156 21.3711 235.656 21.3711C235.273 21.3711 234.914 21.3398 234.578 21.2773C233.75 21.7148 233.336 22.2656 233.336 22.9297C233.336 23.2812 233.48 23.543 233.77 23.7148C234.059 23.8789 234.555 23.9609 235.258 23.9609H237.531C238.922 23.9609 239.988 24.2539 240.73 24.8398C241.48 25.4258 241.855 26.2773 241.855 27.3945C241.855 28.8164 241.285 29.8984 240.145 30.6406C239.004 31.3906 237.34 31.7656 235.152 31.7656C233.473 31.7656 232.176 31.4531 231.262 30.8281C230.355 30.2031 229.902 29.3203 229.902 28.1797C229.902 27.3984 230.152 26.7227 230.652 26.1523C231.152 25.582 231.855 25.1953 232.762 24.9922C232.434 24.8438 232.156 24.6133 231.93 24.3008C231.711 23.9883 231.602 23.625 231.602 23.2109C231.602 22.7422 231.727 22.332 231.977 21.9805C232.227 21.6289 232.621 21.2891 233.16 20.9609C232.496 20.6875 231.953 20.2227 231.531 19.5664C231.117 18.9102 230.91 18.1602 230.91 17.3164C230.91 15.9102 231.332 14.8281 232.176 14.0703C233.02 13.3047 234.215 12.9219 235.762 12.9219C236.434 12.9219 237.039 13 237.578 13.1562H242.02ZM231.777 28.1562C231.777 28.8516 232.07 29.3789 232.656 29.7383C233.242 30.0977 234.082 30.2773 235.176 30.2773C236.809 30.2773 238.016 30.0312 238.797 29.5391C239.586 29.0547 239.98 28.3945 239.98 27.5586C239.98 26.8633 239.766 26.3789 239.336 26.1055C238.906 25.8398 238.098 25.707 236.91 25.707H234.578C233.695 25.707 233.008 25.918 232.516 26.3398C232.023 26.7617 231.777 27.3672 231.777 28.1562ZM232.832 17.2695C232.832 18.168 233.086 18.8477 233.594 19.3086C234.102 19.7695 234.809 20 235.715 20C237.613 20 238.562 19.0781 238.562 17.2344C238.562 15.3047 237.602 14.3398 235.68 14.3398C234.766 14.3398 234.062 14.5859 233.57 15.0781C233.078 15.5703 232.832 16.3008 232.832 17.2695ZM246.484 13.1562V21.4883C246.484 22.5352 246.723 23.3164 247.199 23.832C247.676 24.3477 248.422 24.6055 249.438 24.6055C250.781 24.6055 251.762 24.2383 252.379 23.5039C253.004 22.7695 253.316 21.5703 253.316 19.9062V13.1562H255.262V26H253.656L253.375 24.2773H253.27C252.871 24.9102 252.316 25.3945 251.605 25.7305C250.902 26.0664 250.098 26.2344 249.191 26.2344C247.629 26.2344 246.457 25.8633 245.676 25.1211C244.902 24.3789 244.516 23.1914 244.516 21.5586V13.1562H246.484ZM268.188 26V17.6914C268.188 16.6445 267.949 15.8633 267.473 15.3477C266.996 14.832 266.25 14.5742 265.234 14.5742C263.891 14.5742 262.906 14.9375 262.281 15.6641C261.656 16.3906 261.344 17.5898 261.344 19.2617V26H259.398V13.1562H260.98L261.297 14.9141H261.391C261.789 14.2812 262.348 13.793 263.066 13.4492C263.785 13.0977 264.586 12.9219 265.469 12.9219C267.016 12.9219 268.18 13.2969 268.961 14.0469C269.742 14.7891 270.133 15.9805 270.133 17.6211V26H268.188ZM278.289 24.6289C278.633 24.6289 278.965 24.6055 279.285 24.5586C279.605 24.5039 279.859 24.4492 280.047 24.3945V25.8828C279.836 25.9844 279.523 26.0664 279.109 26.1289C278.703 26.1992 278.336 26.2344 278.008 26.2344C275.523 26.2344 274.281 24.9258 274.281 22.3086V14.668H272.441V13.7305L274.281 12.9219L275.102 10.1797H276.227V13.1562H279.953V14.668H276.227V22.2266C276.227 23 276.41 23.5938 276.777 24.0078C277.145 24.4219 277.648 24.6289 278.289 24.6289ZM290.523 26L290.137 24.1719H290.043C289.402 24.9766 288.762 25.5234 288.121 25.8125C287.488 26.0938 286.695 26.2344 285.742 26.2344C284.469 26.2344 283.469 25.9062 282.742 25.25C282.023 24.5938 281.664 23.6602 281.664 22.4492C281.664 19.8555 283.738 18.4961 287.887 18.3711L290.066 18.3008V17.5039C290.066 16.4961 289.848 15.7539 289.41 15.2773C288.98 14.793 288.289 14.5508 287.336 14.5508C286.266 14.5508 285.055 14.8789 283.703 15.5352L283.105 14.0469C283.738 13.7031 284.43 13.4336 285.18 13.2383C285.938 13.043 286.695 12.9453 287.453 12.9453C288.984 12.9453 290.117 13.2852 290.852 13.9648C291.594 14.6445 291.965 15.7344 291.965 17.2344V26H290.523ZM286.129 24.6289C287.34 24.6289 288.289 24.2969 288.977 23.6328C289.672 22.9688 290.02 22.0391 290.02 20.8438V19.6836L288.074 19.7656C286.527 19.8203 285.41 20.0625 284.723 20.4922C284.043 20.9141 283.703 21.5742 283.703 22.4727C283.703 23.1758 283.914 23.7109 284.336 24.0781C284.766 24.4453 285.363 24.6289 286.129 24.6289ZM304.27 22.4961C304.27 23.6914 303.824 24.6133 302.934 25.2617C302.043 25.9102 300.793 26.2344 299.184 26.2344C297.48 26.2344 296.152 25.9648 295.199 25.4258V23.6211C295.816 23.9336 296.477 24.1797 297.18 24.3594C297.891 24.5391 298.574 24.6289 299.23 24.6289C300.246 24.6289 301.027 24.4688 301.574 24.1484C302.121 23.8203 302.395 23.3242 302.395 22.6602C302.395 22.1602 302.176 21.7344 301.738 21.3828C301.309 21.0234 300.465 20.6016 299.207 20.1172C298.012 19.6719 297.16 19.2852 296.652 18.957C296.152 18.6211 295.777 18.2422 295.527 17.8203C295.285 17.3984 295.164 16.8945 295.164 16.3086C295.164 15.2617 295.59 14.4375 296.441 13.8359C297.293 13.2266 298.461 12.9219 299.945 12.9219C301.328 12.9219 302.68 13.2031 304 13.7656L303.309 15.3477C302.02 14.8164 300.852 14.5508 299.805 14.5508C298.883 14.5508 298.188 14.6953 297.719 14.9844C297.25 15.2734 297.016 15.6719 297.016 16.1797C297.016 16.5234 297.102 16.8164 297.273 17.0586C297.453 17.3008 297.738 17.5312 298.129 17.75C298.52 17.9688 299.27 18.2852 300.379 18.6992C301.902 19.2539 302.93 19.8125 303.461 20.375C304 20.9375 304.27 21.6445 304.27 22.4961ZM318.812 26.2344C316.953 26.2344 315.512 25.6641 314.488 24.5234C313.473 23.375 312.965 21.7539 312.965 19.6602C312.965 17.5117 313.48 15.8516 314.512 14.6797C315.551 13.5078 317.027 12.9219 318.941 12.9219C319.559 12.9219 320.176 12.9883 320.793 13.1211C321.41 13.2539 321.895 13.4102 322.246 13.5898L321.648 15.2422C321.219 15.0703 320.75 14.9297 320.242 14.8203C319.734 14.7031 319.285 14.6445 318.895 14.6445C316.285 14.6445 314.98 16.3086 314.98 19.6367C314.98 21.2148 315.297 22.4258 315.93 23.2695C316.57 24.1133 317.516 24.5352 318.766 24.5352C319.836 24.5352 320.934 24.3047 322.059 23.8438V25.5664C321.199 26.0117 320.117 26.2344 318.812 26.2344ZM336.203 19.5664C336.203 21.6602 335.676 23.2969 334.621 24.4766C333.566 25.6484 332.109 26.2344 330.25 26.2344C329.102 26.2344 328.082 25.9648 327.191 25.4258C326.301 24.8867 325.613 24.1133 325.129 23.1055C324.645 22.0977 324.402 20.918 324.402 19.5664C324.402 17.4727 324.926 15.8438 325.973 14.6797C327.02 13.5078 328.473 12.9219 330.332 12.9219C332.129 12.9219 333.555 13.5195 334.609 14.7148C335.672 15.9102 336.203 17.5273 336.203 19.5664ZM326.418 19.5664C326.418 21.207 326.746 22.457 327.402 23.3164C328.059 24.1758 329.023 24.6055 330.297 24.6055C331.57 24.6055 332.535 24.1797 333.191 23.3281C333.855 22.4688 334.188 21.2148 334.188 19.5664C334.188 17.9336 333.855 16.6953 333.191 15.8516C332.535 15 331.562 14.5742 330.273 14.5742C329 14.5742 328.039 14.9922 327.391 15.8281C326.742 16.6641 326.418 17.9102 326.418 19.5664ZM348.414 26V17.6914C348.414 16.6445 348.176 15.8633 347.699 15.3477C347.223 14.832 346.477 14.5742 345.461 14.5742C344.117 14.5742 343.133 14.9375 342.508 15.6641C341.883 16.3906 341.57 17.5898 341.57 19.2617V26H339.625V13.1562H341.207L341.523 14.9141H341.617C342.016 14.2812 342.574 13.793 343.293 13.4492C344.012 13.0977 344.812 12.9219 345.695 12.9219C347.242 12.9219 348.406 13.2969 349.188 14.0469C349.969 14.7891 350.359 15.9805 350.359 17.6211V26H348.414ZM362.43 13.1562V21.4883C362.43 22.5352 362.668 23.3164 363.145 23.832C363.621 24.3477 364.367 24.6055 365.383 24.6055C366.727 24.6055 367.707 24.2383 368.324 23.5039C368.949 22.7695 369.262 21.5703 369.262 19.9062V13.1562H371.207V26H369.602L369.32 24.2773H369.215C368.816 24.9102 368.262 25.3945 367.551 25.7305C366.848 26.0664 366.043 26.2344 365.137 26.2344C363.574 26.2344 362.402 25.8633 361.621 25.1211C360.848 24.3789 360.461 23.1914 360.461 21.5586V13.1562H362.43ZM384.133 26V17.6914C384.133 16.6445 383.895 15.8633 383.418 15.3477C382.941 14.832 382.195 14.5742 381.18 14.5742C379.836 14.5742 378.852 14.9375 378.227 15.6641C377.602 16.3906 377.289 17.5898 377.289 19.2617V26H375.344V13.1562H376.926L377.242 14.9141H377.336C377.734 14.2812 378.293 13.793 379.012 13.4492C379.73 13.0977 380.531 12.9219 381.414 12.9219C382.961 12.9219 384.125 13.2969 384.906 14.0469C385.688 14.7891 386.078 15.9805 386.078 17.6211V26H384.133ZM397.984 26L397.598 24.1719H397.504C396.863 24.9766 396.223 25.5234 395.582 25.8125C394.949 26.0938 394.156 26.2344 393.203 26.2344C391.93 26.2344 390.93 25.9062 390.203 25.25C389.484 24.5938 389.125 23.6602 389.125 22.4492C389.125 19.8555 391.199 18.4961 395.348 18.3711L397.527 18.3008V17.5039C397.527 16.4961 397.309 15.7539 396.871 15.2773C396.441 14.793 395.75 14.5508 394.797 14.5508C393.727 14.5508 392.516 14.8789 391.164 15.5352L390.566 14.0469C391.199 13.7031 391.891 13.4336 392.641 13.2383C393.398 13.043 394.156 12.9453 394.914 12.9453C396.445 12.9453 397.578 13.2852 398.312 13.9648C399.055 14.6445 399.426 15.7344 399.426 17.2344V26H397.984ZM393.59 24.6289C394.801 24.6289 395.75 24.2969 396.438 23.6328C397.133 22.9688 397.48 22.0391 397.48 20.8438V19.6836L395.535 19.7656C393.988 19.8203 392.871 20.0625 392.184 20.4922C391.504 20.9141 391.164 21.5742 391.164 22.4727C391.164 23.1758 391.375 23.7109 391.797 24.0781C392.227 24.4453 392.824 24.6289 393.59 24.6289ZM415.656 26.2344C414.82 26.2344 414.055 26.082 413.359 25.7773C412.672 25.4648 412.094 24.9883 411.625 24.3477H411.484C411.578 25.0977 411.625 25.8086 411.625 26.4805V31.7656H409.68V13.1562H411.262L411.531 14.9141H411.625C412.125 14.2109 412.707 13.7031 413.371 13.3906C414.035 13.0781 414.797 12.9219 415.656 12.9219C417.359 12.9219 418.672 13.5039 419.594 14.668C420.523 15.832 420.988 17.4648 420.988 19.5664C420.988 21.6758 420.516 23.3164 419.57 24.4883C418.633 25.6523 417.328 26.2344 415.656 26.2344ZM415.375 14.5742C414.062 14.5742 413.113 14.9375 412.527 15.6641C411.941 16.3906 411.641 17.5469 411.625 19.1328V19.5664C411.625 21.3711 411.926 22.6641 412.527 23.4453C413.129 24.2188 414.094 24.6055 415.422 24.6055C416.531 24.6055 417.398 24.1562 418.023 23.2578C418.656 22.3594 418.973 21.1211 418.973 19.543C418.973 17.9414 418.656 16.7148 418.023 15.8633C417.398 15.0039 416.516 14.5742 415.375 14.5742ZM432.297 26L431.91 24.1719H431.816C431.176 24.9766 430.535 25.5234 429.895 25.8125C429.262 26.0938 428.469 26.2344 427.516 26.2344C426.242 26.2344 425.242 25.9062 424.516 25.25C423.797 24.5938 423.438 23.6602 423.438 22.4492C423.438 19.8555 425.512 18.4961 429.66 18.3711L431.84 18.3008V17.5039C431.84 16.4961 431.621 15.7539 431.184 15.2773C430.754 14.793 430.062 14.5508 429.109 14.5508C428.039 14.5508 426.828 14.8789 425.477 15.5352L424.879 14.0469C425.512 13.7031 426.203 13.4336 426.953 13.2383C427.711 13.043 428.469 12.9453 429.227 12.9453C430.758 12.9453 431.891 13.2852 432.625 13.9648C433.367 14.6445 433.738 15.7344 433.738 17.2344V26H432.297ZM427.902 24.6289C429.113 24.6289 430.062 24.2969 430.75 23.6328C431.445 22.9688 431.793 22.0391 431.793 20.8438V19.6836L429.848 19.7656C428.301 19.8203 427.184 20.0625 426.496 20.4922C425.816 20.9141 425.477 21.5742 425.477 22.4727C425.477 23.1758 425.688 23.7109 426.109 24.0781C426.539 24.4453 427.137 24.6289 427.902 24.6289ZM439.703 26H437.758V7.76562H439.703V26ZM451.727 26L451.34 24.1719H451.246C450.605 24.9766 449.965 25.5234 449.324 25.8125C448.691 26.0938 447.898 26.2344 446.945 26.2344C445.672 26.2344 444.672 25.9062 443.945 25.25C443.227 24.5938 442.867 23.6602 442.867 22.4492C442.867 19.8555 444.941 18.4961 449.09 18.3711L451.27 18.3008V17.5039C451.27 16.4961 451.051 15.7539 450.613 15.2773C450.184 14.793 449.492 14.5508 448.539 14.5508C447.469 14.5508 446.258 14.8789 444.906 15.5352L444.309 14.0469C444.941 13.7031 445.633 13.4336 446.383 13.2383C447.141 13.043 447.898 12.9453 448.656 12.9453C450.188 12.9453 451.32 13.2852 452.055 13.9648C452.797 14.6445 453.168 15.7344 453.168 17.2344V26H451.727ZM447.332 24.6289C448.543 24.6289 449.492 24.2969 450.18 23.6328C450.875 22.9688 451.223 22.0391 451.223 20.8438V19.6836L449.277 19.7656C447.73 19.8203 446.613 20.0625 445.926 20.4922C445.246 20.9141 444.906 21.5742 444.906 22.4727C444.906 23.1758 445.117 23.7109 445.539 24.0781C445.969 24.4453 446.566 24.6289 447.332 24.6289ZM463.164 12.9453C464.852 12.9453 466.16 13.5234 467.09 14.6797C468.027 15.8281 468.496 17.457 468.496 19.5664C468.496 21.6758 468.023 23.3164 467.078 24.4883C466.141 25.6523 464.836 26.2344 463.164 26.2344C462.328 26.2344 461.562 26.082 460.867 25.7773C460.18 25.4648 459.602 24.9883 459.133 24.3477H458.992L458.582 26H457.188V7.76562H459.133V12.1953C459.133 13.1875 459.102 14.0781 459.039 14.8672H459.133C460.039 13.5859 461.383 12.9453 463.164 12.9453ZM462.883 14.5742C461.555 14.5742 460.598 14.957 460.012 15.7227C459.426 16.4805 459.133 17.7617 459.133 19.5664C459.133 21.3711 459.434 22.6641 460.035 23.4453C460.637 24.2188 461.602 24.6055 462.93 24.6055C464.125 24.6055 465.016 24.1719 465.602 23.3047C466.188 22.4297 466.48 21.1758 466.48 19.543C466.48 17.8711 466.188 16.625 465.602 15.8047C465.016 14.9844 464.109 14.5742 462.883 14.5742ZM477.766 12.9219C478.336 12.9219 478.848 12.9688 479.301 13.0625L479.031 14.8672C478.5 14.75 478.031 14.6914 477.625 14.6914C476.586 14.6914 475.695 15.1133 474.953 15.957C474.219 16.8008 473.852 17.8516 473.852 19.1094V26H471.906V13.1562H473.512L473.734 15.5352H473.828C474.305 14.6992 474.879 14.0547 475.551 13.6016C476.223 13.1484 476.961 12.9219 477.766 12.9219ZM489.602 26L489.215 24.1719H489.121C488.48 24.9766 487.84 25.5234 487.199 25.8125C486.566 26.0938 485.773 26.2344 484.82 26.2344C483.547 26.2344 482.547 25.9062 481.82 25.25C481.102 24.5938 480.742 23.6602 480.742 22.4492C480.742 19.8555 482.816 18.4961 486.965 18.3711L489.145 18.3008V17.5039C489.145 16.4961 488.926 15.7539 488.488 15.2773C488.059 14.793 487.367 14.5508 486.414 14.5508C485.344 14.5508 484.133 14.8789 482.781 15.5352L482.184 14.0469C482.816 13.7031 483.508 13.4336 484.258 13.2383C485.016 13.043 485.773 12.9453 486.531 12.9453C488.062 12.9453 489.195 13.2852 489.93 13.9648C490.672 14.6445 491.043 15.7344 491.043 17.2344V26H489.602ZM485.207 24.6289C486.418 24.6289 487.367 24.2969 488.055 23.6328C488.75 22.9688 489.098 22.0391 489.098 20.8438V19.6836L487.152 19.7656C485.605 19.8203 484.488 20.0625 483.801 20.4922C483.121 20.9141 482.781 21.5742 482.781 22.4727C482.781 23.1758 482.992 23.7109 483.414 24.0781C483.844 24.4453 484.441 24.6289 485.207 24.6289ZM494.781 24.7578C494.781 24.2344 494.898 23.8398 495.133 23.5742C495.375 23.3008 495.719 23.1641 496.164 23.1641C496.617 23.1641 496.969 23.3008 497.219 23.5742C497.477 23.8398 497.605 24.2344 497.605 24.7578C497.605 25.2656 497.477 25.6562 497.219 25.9297C496.961 26.2031 496.609 26.3398 496.164 26.3398C495.766 26.3398 495.434 26.2188 495.168 25.9766C494.91 25.7266 494.781 25.3203 494.781 24.7578Z" fill="black"/>
</svg>
