<svg xmlns="http://www.w3.org/2000/svg" viewBox="0 0 193.09 116.09"><defs><style>.cls-1,.cls-8{fill:none;stroke:#000;stroke-linecap:round;}.cls-1{stroke-width:0.68px;}.cls-2{fill:#814114;}.cls-3{fill:#998d32;}.cls-4{fill:#b1b841;}.cls-5,.cls-6{opacity:0.6;}.cls-6{fill:#dad8cc;isolation:isolate;}.cls-7{fill:#fff;}.cls-8{stroke-width:0.55px;}</style></defs><title>chicharra</title><g id="Layer_2" data-name="Layer 2"><g id="Layer_1-2" data-name="Layer 1"><path class="cls-1" d="M45.94,14.77c1.51-5.13.55-11.49-2-14.43"/><path class="cls-2" d="M83.22,87.09c0,3.63-.1,9.19.85,11.81,5.58-1.43,7.13,2.22,4.48,3-4.24,1.17-7.33,1.93-7.89-1C80,97.38,78.91,82.59,83.22,87.09Z"/><path class="cls-3" d="M56.25,19.61C54.14,13.16,44,10.07,36.32,13.79A143.23,143.23,0,0,0,18.15,24.72c-6,4.4-13.55,7.74-17,15.17C-1.66,46.39,3.41,54,8.7,58,16.78,64,27,64.79,29.93,64.66c1.68,1.66,3.41,4.88,5.09,6.9,7.18,8.67,20.53,16.66,29.1,19.21A119.77,119.77,0,0,0,81.8,94.24c5.81.7,16.87,2.16,22.68.77,9.5-2.09,32.31-9.15,17.21-22.42-5.92-5.2-20.06-16.18-24-19-3-1.86-23-20.05-27-23C65,26.23,59.11,22.05,56.25,19.61Z"/><path class="cls-4" d="M70.69,30.55a3.47,3.47,0,0,1-.38-.29c-.06.2-.11.4-.18.61C67.39,41.35,42.72,58.14,30.85,65.73c1.38,1.75,2.78,4.17,4.15,5.81a52.12,52.12,0,0,0,8.19,7.76,71,71,0,0,0,23.15-9.76A93.47,93.47,0,0,0,89.9,47.18C82.83,41.06,73.3,32.54,70.69,30.55Z"/><path class="cls-4" d="M118,69.44c-6.2-5.12-15.3-12.17-19.32-15.11a1.46,1.46,0,0,0-.05.2C95.85,65.09,69.77,82.45,59.36,89a43.4,43.4,0,0,0,4.74,1.75,120,120,0,0,0,17.66,3.47c1.92.23,4.41.54,7.08.81A65.79,65.79,0,0,0,95,91.46,89.84,89.84,0,0,0,118,69.44Z"/><g class="cls-5"><g class="cls-5"><path class="cls-6" d="M157.12,55.38C147.36,51.89,127.7,44.69,114,39.81,98.22,34,79.11,27.93,62.64,24.68c0,4.88-2,11.34,5.88,24.43,1.5,2.49,17,22.12,28,31.87,2.56,2.28,23.24,20.77,37.16,26.85,17.74,7.77,45.41,11.51,57.25,3.6,2.5-1.68,2.18-9.27.84-12.44a14.19,14.19,0,0,0,0-8c-.65-2-2.11-3.34-3.26-4.75-1.39-1.63-.47.05-.94-2-.47-2.57-.58-4.08-2.2-6.41-2.09-3-3.84-2.89-6.62-5C174.82,69.79,168.07,59.3,157.12,55.38Z"/></g></g><path class="cls-7" d="M42.2,16.56c-5.34,1-7.76,4.38-8.53,9-.89,5.15,4.44,9.23,8.84,9,6.13-.36,10.06-5.33,9.83-11.13C52.09,18.47,46.6,15.38,42.2,16.56Z"/><path d="M45.36,24.72a1.89,1.89,0,0,0-1.68,1.53,1.47,1.47,0,0,0,1.55,1.57A1.82,1.82,0,0,0,47,25.87,1.25,1.25,0,0,0,45.36,24.72Z"/><path class="cls-2" d="M57.57,83.39c-1.86-2.79-3.25-5.58-6.73-4.65-2.78.71-5.83,5.58-7.45,7.68-1.86,2.33-3.93,6-5.79,8-3.25,3.72-3.52-2.69-7.2-.7-1.46.79,4,6.26,6.5,6,1.62-.24,4.4-4.61,5.72-6.52,2.86-4.19,8.44-11.45,9.83-11.16C54.29,82.5,55,85.34,57.57,83.39Z"/><path class="cls-2" d="M67.58,87.66c8.09-4.38,8.65-.39,7.38,5.57-1.17,5.54-3.89,13-3.62,13.18a7.68,7.68,0,0,1,5.43,2.6c.83,1.33-.27,2.74-2.06,2.16-3.88-1.28-8.08-.5-6.8-4.74A169.18,169.18,0,0,0,72,90C72.35,88.15,67.22,91.6,67.58,87.66Z"/><path class="cls-2" d="M42.69,71.86c-2.06-11.62-10.3-3.46-14,1.16-3.34,4.21-4.48,6.25-6.57,6.7-1.86.47-5.66-4-6.66-.78-.75,2.44,4.24,5.75,6.57,5,2.78-.7,4.2-2.94,5.81-4.87a73.77,73.77,0,0,1,6.49-7.35c1.32-1.25,2.46-2.77,4.08-2.3C39.84,69.93,40.61,74,42.69,71.86Z"/><path class="cls-1" d="M49.54,15.33c3-4.35,12-10.19,15.68-10.89"/><path class="cls-8" d="M157.12,55.38C147.36,51.89,127.7,44.69,114,39.81,98.22,34,79.11,27.93,62.64,24.68c0,4.88-2,11.34,5.88,24.43,1.5,2.49,17,22.12,28,31.87,2.56,2.28,23.24,20.77,37.16,26.85,17.74,7.77,45.41,11.51,57.25,3.6,2.5-1.68,2.18-9.27.84-12.44a14.19,14.19,0,0,0,0-8c-.65-2-2.11-3.34-3.26-4.75-1.39-1.63-.47.05-.94-2-.47-2.57-.58-4.08-2.2-6.41-2.09-3-3.84-2.89-6.62-5C174.82,69.79,168.07,59.3,157.12,55.38Z"/><path class="cls-8" d="M188.15,85.88c-4.87,1.15-25,.61-28.67-.78-7.43-3-38.64-19.43-46.06-24.56C105.07,55,70,30.87,63.52,24.84"/><path class="cls-8" d="M191.77,99c-7.19,3.25-23.29,2.22-30.93,1.06-8.83-1.39-12.47-2.36-20.61-6.3-6.73-3.48-19.46-9.64-29.31-16.94-13.42-10-30.38-22.87-48.5-46.57"/><path class="cls-8" d="M179.92,73.63c-16.36-.95-44.31-.95-60.15,8.69"/><path class="cls-8" d="M157.25,73.24c-4.87-2.33-9.56-7.32-12.58-11.51a34.62,34.62,0,0,1-6.13-13.12"/><path class="cls-8" d="M140.05,75.33a50.23,50.23,0,0,1-11.16-16.39c-1.88-4.55-4.33-11-5.25-15.66"/><path class="cls-8" d="M125.49,49.78c-8.51,4.35-17.1,5.11-21.7,4.23"/><path class="cls-8" d="M105.65,36.83c-8.52,4.36-16.71,4.52-21.31,3.63"/><path class="cls-8" d="M153.56,99c-4.2,5.61-16.83,7.93-21.93,7.93"/><path class="cls-8" d="M105.65,73.24a35.22,35.22,0,0,1-14,3.08"/><path class="cls-8" d="M161,85.8c2.56,3.18,2.25,9.77-.17,14.22"/><path class="cls-8" d="M95.28,48.61c0,3.84-1,10.69-4.22,12"/><path class="cls-1" d="M22.23,56.5c.41,1.32,2.31,3,5.47,2.49A7,7,0,0,0,33,54.33"/><path class="cls-4" d="M12.74,28.38s.74,17.05-7.25,15.68a11.4,11.4,0,0,1-5.11-2A8.64,8.64,0,0,1,3.05,33,20.15,20.15,0,0,1,12.74,28.38Z"/></g></g></svg>