<svg xmlns="http://www.w3.org/2000/svg" viewBox="0 0 196.38 184.71"><defs><style>.cls-1{fill:#fbba00;}.cls-2{fill:#e30613;}.cls-3{fill:#f0eedf;}.cls-4{fill:#fff;}.cls-5,.cls-7,.cls-8{fill:none;stroke:#dad8cc;stroke-linecap:round;}.cls-5{stroke-width:0.25px;}.cls-6{fill:#c4c0b4;}.cls-7{stroke-width:0.26px;}.cls-8{stroke-width:0.9px;}</style></defs><title>pajaro</title><g id="Layer_2" data-name="Layer 2"><g id="Layer_1-2" data-name="Layer 1"><path class="cls-1" d="M104.17,157.36c-1.22,8.11,1.28,18.2,2.18,26.4.14,1.27-1.86,1.27-2,0-.92-8.36-3.62-18.66-2.1-26.93C102.48,155.56,104.35,156.14,104.17,157.36Z"/><path class="cls-1" d="M102.07,173.44c-.86,1.54-1.75,3.07-2.65,4.59-.62,1.06-2.72,4-2.86,4.46-.28.86,0,2.28,1.23,1.48a8.23,8.23,0,0,0,2-2.65c1.39-2.26,2.72-4.56,4-6.89A1,1,0,0,0,102.07,173.44Z"/><path class="cls-1" d="M103.09,172.73a51.76,51.76,0,0,0-9.17,3.63c-1.09.51-.61,2.42.5,1.89a50.09,50.09,0,0,1,9.15-3.63C104.74,174.27,104.24,172.38,103.09,172.73Z"/><path class="cls-1" d="M85.48,155.67A108.49,108.49,0,0,0,86,173.6c.15,1.27,2.11.86,2-.41a105.32,105.32,0,0,1-.53-17.4A1,1,0,0,0,85.48,155.67Z"/><path class="cls-1" d="M86,171.5c-1.63.54-7.9,2-8.77,2.49-1.3.78-1.22,2.31,0,2.15a21.48,21.48,0,0,0,3.43-.84c2-.55,4-1.24,6-1.91A1,1,0,0,0,86,171.5Z"/><path class="cls-1" d="M86,172.35c-1.39,2.11-6.18,6.74-6.67,7.42a1.24,1.24,0,0,0-.18.21,1,1,0,0,0,1.5,1.29,34.5,34.5,0,0,0,7-7.83A1,1,0,0,0,86,172.35Z"/><path class="cls-1" d="M86.28,173.86c0,1.47.24,7.41.47,9.16.16,1.27,2.16,1.22,2-.07-.25-2-.14-8.59-1.11-10.55C87.07,171.25,86,172.4,86.28,173.86Z"/><path class="cls-2" d="M26.27,53.89c5.87,8,10.27,9.74,6.54,20.41,6.93,5.34,4.66,27.58,6.78,36.11,3.2,11.21,6.93,24,16,32C57.19,144,68.91,153.08,70,152.54c4.28-.53,3.73-12.27,4.28-15.46,1.06-13.33-.53-26.67.53-40C75.87,80.54,99,61.88,73.27,45.82c.18-6,5.25-11.86,12.39-15.43C76.15,30.27,69,36.06,64.14,41.68,67.33,30,77.48,23.46,88.68,19.21c-12.79-2.14-27.74,7.47-34.14,18.65C61.47,17.6,81.2,13.34,95.07,0,80.14,8.53,64.68,12.79,53.48,26.13,48.15,32,46,39.45,39.61,44.26c-2.67,2.14-15.28,8.62-13.69,10.21"/><path class="cls-3" d="M84.22,57.18c3.42,6.61,8.7,30.53,11.38,35.44,10.68,20.27,30.94,30.92,45.32,48-11.73,6.93-19.2,12.79-33.6,16-10.67,2.14-21.33,1.06-32-1.61-20.8-4.8-32-40.53-22.93-59.19,2.66-5.33,8.53-7.47,11.73-12.26s3.2-11.2,6.39-16C72.86,63.82,83.68,56.14,84.22,57.18Z"/><path class="cls-4" d="M70.53,67.57c2.33-3.73,13.15-11.43,13.69-10.39Z"/><path class="cls-5" d="M130.52,147c-6.88,4.12-13.43,7.51-23.18,9.67-10.68,2.14-21.33,1.06-32-1.61a24.34,24.34,0,0,1-10.69-5.71"/><path class="cls-5" d="M84.22,57.18c1.72,3.3,3.89,10.93,6,18.36"/><path class="cls-6" d="M91.15,78.1c-8,3.2-8.34,26.25-6.75,34.26,3.73,12.79,18.46,20.53,29.07,26.54,10.08,5.72,19.45,9.18,30.65,12.91,15.46,5.87,35.73,8.54,52.26,8.54-9.59-6.4-20.79-10.68-29.86-18.13-9.06-8-43.18-38.4-51.71-46.93C106.79,86.76,100.74,83.43,91.15,78.1Z"/><path class="cls-1" d="M26.27,52.62C17.39,58.18,10.12,61.54,0,68.47c13.87,2.14,20.51,5.48,34.38,7.6C35.44,69.14,32.65,48.66,26.27,52.62Z"/><path class="cls-4" d="M51.06,49.83c-4.72-1.35-12.33,3.8-10.42,10.42s10.14,8.64,13.76,2.37C58.66,55.22,54.17,50.71,51.06,49.83Z"/><path d="M45.59,59.35a1.6,1.6,0,0,0,0-3.2A1.6,1.6,0,0,0,45.59,59.35Z"/><path class="cls-7" d="M84,57.35c2,3.93,4.7,11.95,7.1,20.5"/><path class="cls-8" d="M95,104.39a18.12,18.12,0,0,0,6.82,7"/><path class="cls-8" d="M113.84,115.66a25.61,25.61,0,0,0,8,6.1"/><path class="cls-8" d="M95.14,90.47c2,3.23,3.41,6,6.63,8.37"/><path class="cls-8" d="M129.93,117.85a24.35,24.35,0,0,0,7.65,6.72"/><path class="cls-8" d="M102.92,121.21a33.42,33.42,0,0,0,8.94,8.06"/><path class="cls-8" d="M111.86,103.89c2,3.24,3.41,4.12,6,6"/><path class="cls-8" d="M141.9,145.22c3.55,1.38,5.19,1.26,8.39,1.27"/><path class="cls-8" d="M132.41,131a19.63,19.63,0,0,0,8,4.6"/><path class="cls-8" d="M121.82,134.53c3,2.51,5.6,3.86,10.89,5"/><path class="cls-8" d="M159.3,148.08a44.39,44.39,0,0,0,9.49,2.9"/><path class="cls-8" d="M147.69,134.53a44.45,44.45,0,0,0,7.76,6.19"/></g></g></svg>