<svg xmlns="http://www.w3.org/2000/svg" viewBox="0 0 137.92 83.28"><defs><style>.cls-1{fill-opacity:0.24;}.cls-2,.cls-9{fill:none;stroke:#000;stroke-linecap:round;}.cls-2{stroke-width:0.51px;}.cls-3{fill:#814114;}.cls-4{fill:#998d32;}.cls-5{fill:#b1b841;}.cls-6,.cls-7{opacity:0.6;}.cls-7{fill:#dad8cc;isolation:isolate;}.cls-8{fill:#fff;}.cls-9{stroke-width:0.41px;}</style></defs><title>chicharra</title><g id="Layer_2" data-name="Layer 2"><g id="Layer_1-2" data-name="Layer 1"><path class="cls-1" d="M47.88,74.31c-1.37,0,.73.35-.89.11A1,1,0,0,1,47.88,74.31Z"/><path class="cls-1" d="M49.53,74.32c.29.23,1.23.38.47.62C49.91,74.75,49.43,74.5,49.53,74.32Z"/><path class="cls-1" d="M74.74,78.4c0-.05.35.11.43.16-.31,0-.62.13-.86,0C74.63,78.57,74.58,78.47,74.74,78.4Z"/><path class="cls-1" d="M81.19,79.12a6.64,6.64,0,0,1-2.33.14Z"/><path class="cls-1" d="M87.15,80.43c.51.2.36.27-.34.2C86.77,80.53,87,80.5,87.15,80.43Z"/><path class="cls-1" d="M87.62,80.06a2.36,2.36,0,0,1,1,.3C88.6,80.21,87.43,80.35,87.62,80.06Z"/><path class="cls-1" d="M100.69,81.78c.32,0,1-.08,1.3.14C101.67,81.75,100.43,82,100.69,81.78Z"/><path class="cls-1" d="M106.84,82a1.69,1.69,0,0,0,.51,0c.37.11,0,.21-.34.21Z"/><path class="cls-1" d="M69.69,83.17l.66-.07-.1.18Z"/><path class="cls-1" d="M62.34,79.71c.66-.15.47.14.58.16C62.32,79.93,63.12,79.64,62.34,79.71Z"/><path class="cls-1" d="M88.57,77.92h-.2l0-.38Z"/><path class="cls-2" d="M105.11,10.54c-1.09-3.66-.4-8.2,1.41-10.29"/><path class="cls-3" d="M78.46,62.14c0,2.59.07,6.56-.6,8.42-4-1-5.09,1.59-3.19,2.11,3,.84,5.23,1.38,5.62-.75C80.76,69.49,81.55,58.93,78.46,62.14Z"/><path class="cls-4" d="M97.75,14c1.52-4.59,8.77-6.8,14.24-4.14a103.29,103.29,0,0,1,13,7.78c4.31,3.16,9.68,5.52,12.17,10.82,2,4.64-1.64,10.08-5.41,12.91a26.39,26.39,0,0,1-15.17,4.78c-1.19,1.19-2.44,3.47-3.63,4.92-5.12,6.18-14.65,11.89-20.8,13.7a84,84,0,0,1-12.62,2.47c-4.14.5-12,1.53-16.19.55-6.81-1.48-23.09-6.54-12.3-16,4.23-3.71,14.33-11.55,17.15-13.53C70.34,36.93,84.61,24,87.44,21.81,91.52,18.74,95.7,15.73,97.75,14Z"/><path class="cls-5" d="M87.42,21.81l.26-.21c0,.14.09.29.12.43,2,7.48,19.58,19.45,28.06,24.87-1,1.24-2,3-3,4.14a37.09,37.09,0,0,1-5.86,5.54,50.37,50.37,0,0,1-16.52-7A66.66,66.66,0,0,1,73.7,33.67C78.76,29.3,85.56,23.22,87.42,21.81Z"/><path class="cls-5" d="M53.66,49.56c4.44-3.66,10.93-8.68,13.79-10.79a.33.33,0,0,0,0,.14c2,7.54,20.59,19.92,28,24.61a30.12,30.12,0,0,1-3.39,1.26,83.71,83.71,0,0,1-12.62,2.47c-1.36.17-3.14.38-5.06.57C73,67.08,71.55,66.23,70,65.26A64.14,64.14,0,0,1,53.66,49.56Z"/><g class="cls-6"><g class="cls-6"><path class="cls-7" d="M25.69,39.51c7-2.48,21-7.62,30.8-11.11,11.27-4.14,24.93-8.47,36.7-10.79,0,3.49,1.42,8.08-4.21,17.43-1.07,1.78-12.14,15.78-20,22.73-1.83,1.62-16.61,14.81-26.53,19.16C29.77,82.47,10,85.14,1.54,79.48-.26,78.29,0,72.87.94,70.61a10,10,0,0,1,0-5.71,10.13,10.13,0,0,1,2.33-3.38c1-1.16.32,0,.65-1.47a9.52,9.52,0,0,1,1.57-4.57c1.49-2.16,2.75-2.06,4.73-3.56C13.05,49.8,17.87,42.31,25.69,39.51Z"/></g></g><path class="cls-8" d="M107.78,11.82c3.82.74,5.54,3.12,6.09,6.4.63,3.67-3.17,6.57-6.31,6.38a7.38,7.38,0,0,1-7-7.93C100.72,13.2,104.64,11,107.78,11.82Z"/><path d="M105.52,17.65a1.33,1.33,0,0,1,1.19,1.09,1.06,1.06,0,0,1-1.11,1.12,1.31,1.31,0,0,1-1.24-1.4A.91.91,0,0,1,105.52,17.65Z"/><path class="cls-3" d="M96.8,59.5c1.33-2,2.31-4,4.8-3.31,2,.5,4.16,4,5.32,5.48,1.33,1.66,2.81,4.25,4.14,5.75,2.31,2.66,2.5-1.91,5.15-.5,1,.57-2.82,4.47-4.65,4.31-1.15-.17-3.14-3.28-4.07-4.64-2-3-6-8.16-7-8C99.15,58.86,98.63,60.9,96.8,59.5Z"/><path class="cls-3" d="M89.66,62.55c-5.79-3.12-6.17-.29-5.29,4,.83,4,2.78,9.25,2.59,9.41a5.53,5.53,0,0,0-3.88,1.84c-.59,1,.19,2,1.47,1.54,2.78-.91,5.78-.36,4.85-3.38a113.64,113.64,0,0,1-2.9-11.75C86.25,62.9,89.91,65.37,89.66,62.55Z"/><path class="cls-3" d="M107.43,51.29c1.47-8.29,7.36-2.47,10,.82,2.38,3,3.2,4.46,4.68,4.78,1.33.33,4.06-2.84,4.77-.55.53,1.74-3,4.09-4.7,3.59-2-.5-3-2.1-4.14-3.48a51.57,51.57,0,0,0-4.65-5.25c-.93-.9-1.74-2-2.91-1.64C109.47,49.9,108.92,52.77,107.43,51.29Z"/><path class="cls-2" d="M102.55,10.94C100.42,7.83,94,3.67,91.34,3.17"/><path class="cls-9" d="M25.69,39.51c7-2.48,21-7.62,30.8-11.11,11.27-4.14,24.93-8.47,36.7-10.79,0,3.49,1.42,8.08-4.21,17.43-1.07,1.78-12.14,15.78-20,22.73-1.83,1.62-16.61,14.81-26.53,19.16C29.77,82.47,10,85.14,1.54,79.48-.26,78.29,0,72.87.94,70.61a10,10,0,0,1,0-5.71,10.13,10.13,0,0,1,2.33-3.38c1-1.16.32,0,.65-1.47a9.52,9.52,0,0,1,1.57-4.57c1.49-2.16,2.75-2.06,4.73-3.56C13.05,49.8,17.87,42.31,25.69,39.51Z"/><path class="cls-9" d="M3.51,61.28c3.49.83,17.81.45,20.47-.56,5.32-2.15,27.61-13.87,32.91-17.51,6-4,31-21.16,35.65-25.47"/><path class="cls-9" d="M.93,70.61c5.15,2.33,16.63,1.59,22.12.76,6.3-1,8.91-1.69,14.71-4.5,4.8-2.49,13.9-6.87,20.94-12.1,9.58-7.09,21.7-16.32,34.63-33.22"/><path class="cls-9" d="M9.39,52.54c11.69-.69,31.65-.69,43,6.2"/><path class="cls-9" d="M25.61,52.25c3.48-1.66,6.82-5.23,9-8.21A24.56,24.56,0,0,0,39,34.68"/><path class="cls-9" d="M37.88,53.75a35.82,35.82,0,0,0,8-11.7,72.53,72.53,0,0,0,3.76-11.16"/><path class="cls-9" d="M48.29,35.53c6.09,3.11,12.22,3.66,15.5,3"/><path class="cls-9" d="M62.47,26.28a24.58,24.58,0,0,0,15.22,2.59"/><path class="cls-9" d="M28.23,70.61c3,4,12,5.66,15.68,5.66"/><path class="cls-9" d="M62.47,52.25a25.2,25.2,0,0,0,10,2.21"/><path class="cls-9" d="M22.93,61.23c-1.83,2.26-1.62,7,.12,10.14"/><path class="cls-9" d="M69.87,34.68c0,2.75.73,7.63,3,8.58"/><path class="cls-2" d="M122,40.33c-.29.93-1.66,2.17-3.9,1.77a4.91,4.91,0,0,1-3.78-3.31"/><path class="cls-5" d="M128.83,20.26s-.52,12.16,5.17,11.18a8.19,8.19,0,0,0,3.65-1.4,6.14,6.14,0,0,0-1.9-6.51A14.24,14.24,0,0,0,128.83,20.26Z"/></g></g></svg>