<svg xmlns="http://www.w3.org/2000/svg" xmlns:xlink="http://www.w3.org/1999/xlink" viewBox="0 0 637 46.37"><defs><style>.cls-1{fill:none;}.cls-2{clip-path:url(#clip-path);}.cls-3{fill:#2bb673;}</style><clipPath id="clip-path" transform="translate(0 0)"><rect class="cls-1" width="637" height="46.37"/></clipPath></defs><title>titulo</title><g id="Layer_2" data-name="Layer 2"><g id="Layer_1-2" data-name="Layer 1"><g class="cls-2"><path class="cls-3" d="M1.11,41.2a38,38,0,0,1-.24-6.69q.18-3.43.06-6.75c-.08-2.1-.19-4.14-.35-6.14s-.21-4-.18-6.14,0-4.34,0-6.28A42,42,0,0,0,0,3,1.87,1.87,0,0,1,1,1.61,4.57,4.57,0,0,1,2.61,1,8.94,8.94,0,0,1,4.68,1a3,3,0,0,1,1.89.87c0,.08,0,.24,0,.47s0,.39,0,.46a18.81,18.81,0,0,1-.06,4.42,24.61,24.61,0,0,0-.17,4.37c0,.15,0,.75.09,1.77s.12,2.2.2,3.52.15,2.65.23,4,.14,2.39.18,3.17c.11,1.86.18,3.67.2,5.43s.13,3.56.32,5.39c.12.74.44,1.16,1,1.28a7.18,7.18,0,0,0,1.72.14,15.82,15.82,0,0,1,1.71,0c.52,0,.83.37.9,1,0,1.24,0,2.24-.08,3a18.69,18.69,0,0,1-.27,2.07c-.11.62-.31.93-.58.93a.28.28,0,0,1-.2.06h-.2c-1.48-.08-3-.15-4.54-.21S3.93,43,2.38,42.82c-.5,0-.82-.18-.95-.43A3.48,3.48,0,0,1,1.11,41.2Z" transform="translate(0 0)"/><path class="cls-3" d="M36.47,44.1a1.88,1.88,0,0,1-.58-.37,1.08,1.08,0,0,1-.35-.56L34.15,30.84a.54.54,0,0,0-.21-.41.39.39,0,0,0-.38-.11L26.82,31l1.1,10.19a5.1,5.1,0,0,0,.53,1.71A5.18,5.18,0,0,1,29,44.51c0,.23,0,.38-.06.43a1.15,1.15,0,0,1-.52.15l-.32,0-.26,0h-.73l-1,0-1,.06-.55,0A5,5,0,0,1,22.86,45a2.11,2.11,0,0,1-1-.69,3,3,0,0,1-.49-1.14,15.32,15.32,0,0,1-.26-1.54c-.2-2.13-.35-4.25-.47-6.37s-.21-4.26-.29-6.43c0,0,0-.25,0-.64s0-.83-.09-1.33-.08-1-.11-1.49-.08-.86-.12-1.13a18.51,18.51,0,0,1,.2-4.08c.22-1.24.46-2.59.73-4.07A2.75,2.75,0,0,1,21.09,14a20,20,0,0,0,.78-2,5,5,0,0,0,.15-.87,4.23,4.23,0,0,1,.2-.93.58.58,0,0,1,.06-.2q.06-.15.12-.15a20.91,20.91,0,0,0,1.1-2.36,11.32,11.32,0,0,1,1.28-2.35,12.47,12.47,0,0,1,1.28-1.43A15.45,15.45,0,0,1,27.69,2.4a8.83,8.83,0,0,1,1.83-1A6.86,6.86,0,0,1,31.41.83a6.26,6.26,0,0,1,4.07.72A7,7,0,0,1,37.78,4a13.76,13.76,0,0,1,1.31,3.34,32.57,32.57,0,0,0,1,3.4,5.06,5.06,0,0,0,.08.64q.09.46.15,1t.15,1a4.39,4.39,0,0,1,.08.61q.4,3.84.5,7.74c.06,2.6.14,5.18.26,7.73a14.42,14.42,0,0,1-.15,2,10.85,10.85,0,0,0-.08,2,6,6,0,0,0,0,.61c0,.33.08.69.12,1.07s.09.75.15,1.08.08.53.08.61v1.92c0,.08,0,.28,0,.61s0,.69.06,1.08,0,.74.06,1.07,0,.56,0,.67a6.92,6.92,0,0,1-.12,1,.91.91,0,0,1-.75.82h-.12l-.38-.06L40,44l-.7,0c-.34,0-.7,0-1.07,0l-1,0ZM26.93,23.16a1.12,1.12,0,0,0,.82,1,6.57,6.57,0,0,0,1.74.38,16.37,16.37,0,0,0,2,.06c.66,0,1.16-.05,1.51-.09l.47,0,.46,0a1.79,1.79,0,0,0,.18-.32,2.39,2.39,0,0,0,.11-.32c0-.23,0-.61-.05-1.13s-.07-1.1-.09-1.72,0-1.19-.06-1.71,0-.91,0-1.14a1.36,1.36,0,0,0,.06-.52V17l-.58-5.65a4,4,0,0,0-.29-.93,4.91,4.91,0,0,0-.58-1,2.69,2.69,0,0,0-.85-.69,1.67,1.67,0,0,0-1-.21,2.42,2.42,0,0,0-.87.29A8.6,8.6,0,0,0,27.46,13a24.41,24.41,0,0,0-.53,4.72c0,.92,0,1.84-.05,2.73A22.76,22.76,0,0,0,26.93,23.16Z" transform="translate(0 0)"/><path class="cls-3" d="M70,41a1.43,1.43,0,0,1,.43-1,9.47,9.47,0,0,1,1.23-1.22,13.8,13.8,0,0,1,1.51-1.13c.52-.35,1-.62,1.31-.82a.93.93,0,0,0,.29-.06.88.88,0,0,1,.29-.06,1.55,1.55,0,0,1,1.13.3l1,.78a7.05,7.05,0,0,0,1.4.79,5.09,5.09,0,0,0,2.32.23,3.44,3.44,0,0,0,1-.29,3.4,3.4,0,0,0,.9-.58,2.68,2.68,0,0,0,.56-.67.45.45,0,0,0-.06-.56l.17-.6c.08-.3.16-.6.23-.94s.15-.62.21-.9a2.82,2.82,0,0,0,.08-.58c.16-.66.31-1.45.44-2.38a4.51,4.51,0,0,0-.2-2.39L83,9.44l-.35-2.1-2,.18-.3-.24c-.07-.23-.15-.44-.23-.64l-.2-.55a1.37,1.37,0,0,1-.09-.44A4,4,0,0,1,79.58,5a2.93,2.93,0,0,0-.23-.7c.11,0,.31,0,.58,0l.52,0,2.5,0,3.84-.09,3.81-.09,2.47,0a1.07,1.07,0,0,0,.06.23.68.68,0,0,0,.12.23v.7q0,.46,0,.93a4.35,4.35,0,0,1-.12.81c-.06.23-.12.35-.2.35l-2.44.12a1.26,1.26,0,0,0,.14.44,1.26,1.26,0,0,1,.15.43q0,.29,0,1.05c0,.5,0,1,0,1.57v2.56A10.18,10.18,0,0,1,90.57,15c-.08.52-.14,1.06-.2,1.6a10.8,10.8,0,0,0-.06,1.6,4.87,4.87,0,0,0,.32,1.54l.52,14.14A3.28,3.28,0,0,0,91,35.81a5.41,5.41,0,0,1,.11,1.9,7.6,7.6,0,0,1-2.91,4.74c-1.66,1.37-4.15,2.17-7.44,2.41A11.24,11.24,0,0,1,75.48,44c-1.61-.69-3.08-1.39-4.39-2.09-.43-.19-.7-.33-.82-.4A.68.68,0,0,1,70,41Z" transform="translate(0 0)"/><path class="cls-3" d="M115.35,44.1a1.77,1.77,0,0,1-.58-.37,1,1,0,0,1-.35-.56L113,30.84a.56.56,0,0,0-.2-.41.4.4,0,0,0-.38-.11l-6.75.63,1.11,10.19a4.87,4.87,0,0,0,.52,1.71,5.46,5.46,0,0,1,.53,1.66c0,.23,0,.38-.06.43a1.2,1.2,0,0,1-.53.15l-.32,0-.26,0H106l-1,0-1,.06-.56,0a4.89,4.89,0,0,1-1.68-.23,2,2,0,0,1-1-.69,2.83,2.83,0,0,1-.5-1.14c-.1-.44-.18-1-.26-1.54-.19-2.13-.35-4.25-.46-6.37s-.22-4.26-.29-6.43c0,0,0-.25,0-.64s0-.83-.09-1.33-.08-1-.12-1.49-.08-.86-.11-1.13a18.51,18.51,0,0,1,.2-4.08c.21-1.24.45-2.59.73-4.07A2.7,2.7,0,0,1,100,14c.33-.73.59-1.4.79-2a4.9,4.9,0,0,0,.14-.87,3.78,3.78,0,0,1,.21-.93.8.8,0,0,1,.05-.2q.06-.15.12-.15a19.38,19.38,0,0,0,1.11-2.36,10.87,10.87,0,0,1,1.28-2.35,11.59,11.59,0,0,1,1.28-1.43,15.33,15.33,0,0,1,1.62-1.36,9.17,9.17,0,0,1,1.84-1,6.86,6.86,0,0,1,1.89-.52,6.28,6.28,0,0,1,4.07.72A7,7,0,0,1,116.66,4,14.17,14.17,0,0,1,118,7.37a32.62,32.62,0,0,0,1,3.4,4,4,0,0,0,.09.64,9.44,9.44,0,0,1,.14,1c.05.35.09.67.15,1a3.51,3.51,0,0,1,.09.61q.4,3.84.49,7.74t.26,7.73a14.38,14.38,0,0,1-.14,2,10.09,10.09,0,0,0-.09,2c0,.07,0,.28.06.61s.08.69.12,1.07a10.54,10.54,0,0,0,.14,1.08,5,5,0,0,1,.09.61v1.92c0,.08,0,.28,0,.61s0,.69.06,1.08,0,.74,0,1.07,0,.56,0,.67a8.08,8.08,0,0,1-.11,1,.91.91,0,0,1-.76.82h-.12l-.37-.06-.38-.06-.7,0q-.52,0-1.08,0l-1,0Zm-9.54-20.94a1.12,1.12,0,0,0,.81,1,6.74,6.74,0,0,0,1.75.38,16.37,16.37,0,0,0,2,.06c.65,0,1.16-.05,1.51-.09l.46,0,.47,0a1.68,1.68,0,0,0,.17-.32c0-.1.08-.2.12-.32s0-.61-.06-1.13-.07-1.1-.09-1.72,0-1.19-.05-1.71,0-.91,0-1.14a1.43,1.43,0,0,0,.05-.52V17l-.58-5.65a3.59,3.59,0,0,0-.29-.93,4.46,4.46,0,0,0-.58-1,2.66,2.66,0,0,0-.84-.69,1.69,1.69,0,0,0-1-.21,2.42,2.42,0,0,0-.87.29A8.62,8.62,0,0,0,106.33,13a25.25,25.25,0,0,0-.52,4.72c0,.92,0,1.84-.06,2.73A20.89,20.89,0,0,0,105.81,23.16Z" transform="translate(0 0)"/><path class="cls-3" d="M142.33,45.91a25.68,25.68,0,0,1-1.74-2.77c-.43-.79-.91-1.65-1.46-2.58a5.67,5.67,0,0,0-.4-.5c-.2-.21-.38-.44-.56-.67a5.32,5.32,0,0,1-.43-.67.67.67,0,0,1-.06-.61c-.47-.66-.92-1.34-1.37-2s-.88-1.37-1.31-2h-.11a.17.17,0,0,1-.12-.06c-.35-.08-.49.08-.41.46s.08,1.09.12,2.1.09,2.08.14,3.23.12,2.23.18,3.25.1,1.74.14,2.13l.06.17a3.13,3.13,0,0,1-.35.44c-.15.17-.25.24-.29.2l-5.93.41a.92.92,0,0,1-.88-.44,2.17,2.17,0,0,1-.4-.9.12.12,0,0,1,0-.09s0-.06,0-.14v-.18a2.65,2.65,0,0,1,.06-.32c0-.17.07-.36.11-.55s.08-.37.12-.52a1.47,1.47,0,0,0,0-.29,6.37,6.37,0,0,0-.08-.79c-.06-.4-.11-.83-.15-1.28s-.08-.86-.11-1.25-.06-.64-.06-.75V37.44c0-.76,0-1.56,0-2.41s0-1.66-.06-2.42,0-1.23,0-1.43,0-.54,0-1-.08-1.05-.12-1.63-.08-1.12-.12-1.63-.06-.85-.06-1a1.46,1.46,0,0,0,.06-.53v-.52q.18-5.05.06-10c-.08-3.29-.17-6.61-.29-9.94,0-.12,0-.33,0-.64s0-.64-.09-1-.07-.69-.08-1,0-.55,0-.67.18-.37.32-.41a2,2,0,0,1,.43-.05c1.55-.12,3.07-.19,4.54-.21a16,16,0,0,1,4.16.47A10.16,10.16,0,0,1,139.25,3a8.91,8.91,0,0,1,2.62,3.32c.5,1,1,2,1.51,2.94a7.64,7.64,0,0,1,.87,3.11,13,13,0,0,1-1.19,6.49A18.05,18.05,0,0,1,139,24.27a1,1,0,0,0-.23.64,3,3,0,0,0,.44,1,1.22,1.22,0,0,1,.2,1l2.39,4.77v.17l2.38,3.85s.17.35.5,1,.7,1.27,1.13,2,.81,1.51,1.17,2.27a6.5,6.5,0,0,1,.58,1.71,1.82,1.82,0,0,1-.38,1.17A5.36,5.36,0,0,1,146.11,45a9,9,0,0,1-1.34.91,2.62,2.62,0,0,1-1.22.37A1.27,1.27,0,0,1,142.33,45.91Zm-9.77-27.69a5.05,5.05,0,0,0,.38.43.86.86,0,0,0,.49.21,3,3,0,0,0,1.89-.85,4.88,4.88,0,0,0,1.11-1.68,8,8,0,0,0,.49-2,16.2,16.2,0,0,0,.12-1.8,9.76,9.76,0,0,0-.29-1.43,8.22,8.22,0,0,0-.64-1.6,4.2,4.2,0,0,0-1-1.25,2,2,0,0,0-1.48-.43,1.12,1.12,0,0,0-.9.64,3.86,3.86,0,0,0-.44,1.33,9.52,9.52,0,0,0-.12,1.48v1s0,.17,0,.4,0,.51.06.82,0,.63,0,1,.06.59.09.78,0,.31,0,.58,0,.57.06.9,0,.63.06.91S132.56,18.1,132.56,18.22Z" transform="translate(0 0)"/><path class="cls-3" d="M168.61,44.1a2,2,0,0,1-.58-.37,1.08,1.08,0,0,1-.35-.56l-1.39-12.33a.54.54,0,0,0-.21-.41.38.38,0,0,0-.37-.11L159,31l1.1,10.19a5.1,5.1,0,0,0,.53,1.71,5.18,5.18,0,0,1,.52,1.66c0,.23,0,.38-.06.43a1.1,1.1,0,0,1-.52.15l-.32,0-.26,0h-.73l-1,0-1,.06-.55,0A5,5,0,0,1,155,45a2.11,2.11,0,0,1-1-.69,3,3,0,0,1-.49-1.14,15.32,15.32,0,0,1-.26-1.54c-.2-2.13-.35-4.25-.47-6.37s-.21-4.26-.29-6.43c0,0,0-.25,0-.64s-.05-.83-.09-1.33-.08-1-.11-1.49-.08-.86-.12-1.13a18.51,18.51,0,0,1,.2-4.08c.22-1.24.46-2.59.73-4.07a2.75,2.75,0,0,1,.15-2.09,20,20,0,0,0,.78-2,5,5,0,0,0,.15-.87,4.23,4.23,0,0,1,.2-.93.58.58,0,0,1,.06-.2q.06-.15.12-.15a20.91,20.91,0,0,0,1.1-2.36,11.32,11.32,0,0,1,1.28-2.35,12.47,12.47,0,0,1,1.28-1.43,15.45,15.45,0,0,1,1.63-1.36,8.83,8.83,0,0,1,1.83-1,6.86,6.86,0,0,1,1.89-.52,6.31,6.31,0,0,1,4.08.72A7.1,7.1,0,0,1,169.93,4a14.16,14.16,0,0,1,1.3,3.34,32.57,32.57,0,0,0,1.05,3.4,4,4,0,0,0,.09.64c0,.31.1.64.14,1s.09.67.15,1a4.39,4.39,0,0,1,.08.61q.4,3.84.5,7.74c.06,2.6.14,5.18.26,7.73a14.42,14.42,0,0,1-.15,2,10.85,10.85,0,0,0-.08,2c0,.07,0,.28,0,.61s.08.69.12,1.07.09.75.15,1.08a4.23,4.23,0,0,1,.08.61v1.92c0,.08,0,.28,0,.61s0,.69.06,1.08,0,.74.06,1.07,0,.56,0,.67a6.92,6.92,0,0,1-.12,1,.9.9,0,0,1-.75.82h-.12l-.38-.06L172.1,44l-.69,0q-.53,0-1.08,0l-1.05,0Zm-9.54-20.94a1.12,1.12,0,0,0,.82,1,6.66,6.66,0,0,0,1.74.38,16.37,16.37,0,0,0,2,.06c.66,0,1.16-.05,1.51-.09l.47,0,.46,0a1.79,1.79,0,0,0,.18-.32c0-.1.07-.2.12-.32s0-.61-.06-1.13-.07-1.1-.09-1.72,0-1.19-.06-1.71,0-.91,0-1.14a1.36,1.36,0,0,0,.06-.52V17l-.58-5.65a4,4,0,0,0-.29-.93,4.91,4.91,0,0,0-.58-1,2.69,2.69,0,0,0-.85-.69,1.67,1.67,0,0,0-1-.21,2.48,2.48,0,0,0-.87.29A8.6,8.6,0,0,0,159.6,13a25.22,25.22,0,0,0-.53,4.72c0,.92,0,1.84,0,2.73A22.76,22.76,0,0,0,159.07,23.16Z" transform="translate(0 0)"/><path class="cls-3" d="M187.18,29.27a1,1,0,0,0-.15-.81.79.79,0,0,0-.72-.47h-.18c0,.31,0,.84,0,1.6s0,1.56-.06,2.41,0,1.67,0,2.45,0,1.3,0,1.57v1.22a21.84,21.84,0,0,0,.23,2.3,21.65,21.65,0,0,1,.23,2.29,2.21,2.21,0,0,1-.14.85c-.1.21-.36.32-.79.32a15.34,15.34,0,0,1-2.33.06,12.32,12.32,0,0,0-2.38.12,1.08,1.08,0,0,1-.41-.47l-.23-.47c0-.07,0-.3-.09-.67a5.73,5.73,0,0,1-.09-.72,33.44,33.44,0,0,1,0-3.61c.05-1.2.12-2.41.2-3.61,0-2,0-3.91-.09-5.81a31.21,31.21,0,0,1,.38-5.82l-.81-16.35c0-.19,0-.44,0-.75a3.58,3.58,0,0,1,.18-.91,2.37,2.37,0,0,1,.41-.75.83.83,0,0,1,.67-.32h.23c.93.08,1.7.16,2.3.23s1,.53,1.25,1.34.65,1.71,1,2.56.73,1.67,1.08,2.45a.25.25,0,0,1,.06.2v.2a18.2,18.2,0,0,0,.93,3.23c.43,1.1.83,2.12,1.22,3a2.19,2.19,0,0,0,.23,1.34A14.86,14.86,0,0,0,190,19c.31.51.59,1,.84,1.46a1.72,1.72,0,0,1,.27,1.16c0,.12.13.36.28.73a11,11,0,0,1,.44,1.19c.14.43.27.82.41,1.19a7.2,7.2,0,0,0,.32.79,4.75,4.75,0,0,1,.14.49c.06.22.13.45.21.7s.14.49.2.72a2.62,2.62,0,0,1,.09.47,6.07,6.07,0,0,1,.4,1.46,1.76,1.76,0,0,0,.82,1.22,2.9,2.9,0,0,0,.29-1.28,91.27,91.27,0,0,0,.73-12.68q-.09-6.22-.2-12.74a4.36,4.36,0,0,1,.28-.47c.16-.23.28-.34.35-.34l4.66-.35c.34,0,.52.09.52.29a.42.42,0,0,0,.35.4,36.88,36.88,0,0,0,0,5.15,31.71,31.71,0,0,1-.06,5.15q-.41,3.78-.73,7.39a45,45,0,0,0,0,7.44l-.47,12.86a4.17,4.17,0,0,1-.58,1.43A2.41,2.41,0,0,1,198.41,44l-.61,0-.62,0a23.92,23.92,0,0,1-2.79.05,21.68,21.68,0,0,1-2.79-.29c-.5,0-.89-.39-1.17-1.07a10.6,10.6,0,0,1-.6-2.27,23.88,23.88,0,0,1-.29-2.39c-.06-.75-.11-1.25-.15-1.48s-.12-.48-.23-1-.22-.85-.29-1-.2-.54-.35-1-.32-1-.5-1.6-.34-1.1-.49-1.6S187.26,29.46,187.18,29.27Z" transform="translate(0 0)"/><path class="cls-3" d="M225,44.1a1.77,1.77,0,0,1-.58-.37,1,1,0,0,1-.35-.56l-1.4-12.33a.56.56,0,0,0-.2-.41.4.4,0,0,0-.38-.11l-6.75.63,1.11,10.19a4.87,4.87,0,0,0,.52,1.71,5.46,5.46,0,0,1,.53,1.66c0,.23,0,.38-.06.43a1.2,1.2,0,0,1-.53.15l-.32,0-.26,0h-.73l-1,0-1,.06-.56,0a4.89,4.89,0,0,1-1.68-.23,2,2,0,0,1-1-.69,3,3,0,0,1-.5-1.14c-.09-.44-.18-1-.26-1.54-.19-2.13-.35-4.25-.46-6.37s-.22-4.26-.29-6.43c0,0,0-.25,0-.64s0-.83-.09-1.33-.08-1-.12-1.49-.08-.86-.11-1.13a18.51,18.51,0,0,1,.2-4.08c.21-1.24.45-2.59.73-4.07A2.74,2.74,0,0,1,209.6,14a20.27,20.27,0,0,0,.79-2,4.9,4.9,0,0,0,.14-.87,3.78,3.78,0,0,1,.21-.93.58.58,0,0,1,.06-.2c0-.1.08-.15.11-.15A19.38,19.38,0,0,0,212,7.54a10.87,10.87,0,0,1,1.28-2.35,11.59,11.59,0,0,1,1.28-1.43A15.33,15.33,0,0,1,216.2,2.4a9.17,9.17,0,0,1,1.84-1,6.86,6.86,0,0,1,1.89-.52,6.28,6.28,0,0,1,4.07.72A7,7,0,0,1,226.3,4a14.17,14.17,0,0,1,1.31,3.34,35.22,35.22,0,0,0,1,3.4,4,4,0,0,0,.09.64q.09.46.15,1c0,.35.08.67.14,1a3.51,3.51,0,0,1,.09.61q.4,3.84.49,7.74t.27,7.73a14.42,14.42,0,0,1-.15,2,10.87,10.87,0,0,0-.09,2c0,.07,0,.28.06.61s.08.69.12,1.07a10.54,10.54,0,0,0,.14,1.08,5,5,0,0,1,.09.61v1.92c0,.08,0,.28,0,.61s0,.69.06,1.08,0,.74.06,1.07,0,.56,0,.67a8.08,8.08,0,0,1-.11,1,.91.91,0,0,1-.76.82h-.12l-.37-.06-.38-.06-.7,0q-.53,0-1.08,0l-1,0Zm-9.54-20.94a1.12,1.12,0,0,0,.81,1,6.74,6.74,0,0,0,1.75.38,16.37,16.37,0,0,0,2,.06c.65,0,1.16-.05,1.51-.09l.46,0,.47,0a1.68,1.68,0,0,0,.17-.32c0-.1.08-.2.12-.32s0-.61-.06-1.13-.07-1.1-.08-1.72,0-1.19-.06-1.71,0-.91,0-1.14a1.36,1.36,0,0,0,.06-.52V17L222,11.35a3.59,3.59,0,0,0-.29-.93,4.46,4.46,0,0,0-.58-1,2.55,2.55,0,0,0-.84-.69,1.69,1.69,0,0,0-1-.21,2.42,2.42,0,0,0-.87.29A8.62,8.62,0,0,0,216,13a25.25,25.25,0,0,0-.52,4.72c0,.92,0,1.84-.06,2.73A20.89,20.89,0,0,0,215.45,23.16Z" transform="translate(0 0)"/><path class="cls-3" d="M263,45c-.08,0-.14-.21-.17-.5a5.51,5.51,0,0,1-.06-.55,15.3,15.3,0,0,1-.12-4.16,29.75,29.75,0,0,0,.18-4.1,43.65,43.65,0,0,0-.56-5.21c-.29-1.72-.51-3.46-.66-5.21-.05-1.35-.05-2.66,0-3.92s.05-2.57.05-3.92a31.55,31.55,0,0,0-.11-3.76c-.12-1.26-.22-2.51-.29-3.75v-2a7.72,7.72,0,0,1-.12-1c0-.46-.08-1-.12-1.48s-.07-1-.11-1.48-.06-.8-.06-1a3.55,3.55,0,0,1,.23-.7,1,1,0,0,1,.47-.41,3.57,3.57,0,0,1,.66-.14,6,6,0,0,1,.73-.09,14.69,14.69,0,0,1,5.76.29,11.67,11.67,0,0,1,4.45,2.27,12.24,12.24,0,0,1,3.08,3.87,16.91,16.91,0,0,1,1.66,5,33.79,33.79,0,0,1,.29,4.31c0,1.39-.06,2.85-.17,4.36A6.68,6.68,0,0,1,278,24,8.51,8.51,0,0,0,278,26.3c0,1.25.11,2.69.23,4.33a28.23,28.23,0,0,1-.08,4.95,15.09,15.09,0,0,1-1.23,4.6,6.86,6.86,0,0,1-3.11,3.28,14.81,14.81,0,0,1-4.45,1.4c-1.57.23-3.13.44-4.68.64l-.55.06-.56.06a1.94,1.94,0,0,0-.32-.27A.61.61,0,0,1,263,45Zm5.52-7.68a.77.77,0,0,0,.76.41,1.3,1.3,0,0,0,1-.7,5.71,5.71,0,0,0,.58-1.43,12.18,12.18,0,0,0,.29-1.6c.06-.54.11-1,.15-1.28s.07-.65.11-1.13.08-.95.12-1.4.07-.83.09-1.16,0-.51,0-.55l-.05-.47q0-3.19.05-6.6a38.54,38.54,0,0,0-.46-6.72A16,16,0,0,0,270.5,12a6.64,6.64,0,0,0-1.65-2.21,4.32,4.32,0,0,0-.33-.46c-.09-.12-.28-.16-.55-.12s-.26.21-.2.5.09.45.09.49c.11,2.37.19,4.73.23,7.1s.09,4.73.17,7.09c0,1.95,0,3.91-.17,5.91a24.73,24.73,0,0,0,.23,5.9,3.8,3.8,0,0,0,.09.56A3.11,3.11,0,0,1,268.49,37.3Z" transform="translate(0 0)"/><path class="cls-3" d="M286.7,44.45a5.13,5.13,0,0,1-.46-.38.61.61,0,0,1-.23-.49,26,26,0,0,1,0-5.64,49,49,0,0,0,.32-5.65c0-2.32-.06-4.66-.2-7s-.28-4.69-.44-7-.28-4.69-.38-7-.1-4.63,0-6.93a1.62,1.62,0,0,1,.2-.75.8.8,0,0,1,.61-.47,6.66,6.66,0,0,1,1.37.06,5.08,5.08,0,0,0,1.31.06l.87,0L291,3.12l1.36-.05.88,0,.46-.06.87-.12.85-.11.49-.06q.35,0,1.14-.06a10.29,10.29,0,0,1,1.57,0,8.26,8.26,0,0,1,1.42.23c.43.12.66.35.7.7l.41,4.89a.81.81,0,0,1-.41.78,2,2,0,0,1-.87.38,8.29,8.29,0,0,1-2.33-.09,8.6,8.6,0,0,0-2.38-.08l-.76,0a5.61,5.61,0,0,0-1,.15,2.69,2.69,0,0,0-.84.35.77.77,0,0,0-.35.7,35.23,35.23,0,0,1,0,4.82,28.42,28.42,0,0,0,.06,4.89,5.85,5.85,0,0,0,0,.76,1.26,1.26,0,0,0,.35.75,1.74,1.74,0,0,0,.73.27,6.8,6.8,0,0,0,1,.08c.35,0,.67,0,1,0l.69,0c.16,0,.45,0,.88-.05l1.33-.15c.47-.06.92-.11,1.34-.14s.72-.06.88-.06a.35.35,0,0,1,.29.2.8.8,0,0,1,.11.32l.41,3.78a1.65,1.65,0,0,1-.26,1.05,1.13,1.13,0,0,1-.79.58,8.45,8.45,0,0,1-2.56,0,11.33,11.33,0,0,0-2.61-.09A2.25,2.25,0,0,0,294,28a1.51,1.51,0,0,0-.46.79,4.13,4.13,0,0,0-.12,1v1.22c0,.12,0,.4-.06.85s-.09.92-.14,1.42-.11,1-.15,1.4a4.54,4.54,0,0,1-.12.81c.08,0,.1.16.06.35a.61.61,0,0,0,.06.47,3.67,3.67,0,0,0,.12.84.59.59,0,0,0,.64.5h6.75a7.3,7.3,0,0,1,1.68.17,1.54,1.54,0,0,1,1,1.28,3.75,3.75,0,0,0,.09.55c.05.29.11.62.17,1s.12.74.17,1.11.11.65.15.84V43c.08.54-.06.85-.41.93s-.73.15-1.16.23a26.66,26.66,0,0,1-4.89.14c-1.63-.09-3.25-.16-4.88-.2a3,3,0,0,0-.88,0l-.81.09-.84,0-1.28.09c-.45,0-.87.06-1.25.08Z" transform="translate(0 0)"/><path class="cls-3" d="M337,41.2a38,38,0,0,1-.23-6.69q.16-3.43.06-6.75c-.08-2.1-.2-4.14-.35-6.14s-.22-4-.18-6.14,0-4.34,0-6.28A40.6,40.6,0,0,0,335.86,3a1.83,1.83,0,0,1,.95-1.43A4.68,4.68,0,0,1,338.47,1a8.93,8.93,0,0,1,2.07,0,3.08,3.08,0,0,1,1.89.87c0,.08,0,.24,0,.47s0,.39,0,.46a19.36,19.36,0,0,1-.06,4.42,23.76,23.76,0,0,0-.18,4.37c0,.15,0,.75.09,1.77s.13,2.2.2,3.52.16,2.65.24,4,.13,2.39.17,3.17c.12,1.86.18,3.67.21,5.43a52.25,52.25,0,0,0,.32,5.39c.11.74.43,1.16.95,1.28a7.27,7.27,0,0,0,1.72.14,16,16,0,0,1,1.72,0q.78.06.9,1c0,1.24,0,2.24-.09,3a18.82,18.82,0,0,1-.26,2.07c-.12.62-.31.93-.58.93a.28.28,0,0,1-.2.06h-.21c-1.47-.08-3-.15-4.54-.21s-3.1-.16-4.65-.32a1.09,1.09,0,0,1-1-.43A3.73,3.73,0,0,1,337,41.2Z" transform="translate(0 0)"/><path class="cls-3" d="M372.32,44.1a1.88,1.88,0,0,1-.58-.37,1,1,0,0,1-.35-.56L370,30.84a.57.57,0,0,0-.21-.41.4.4,0,0,0-.38-.11l-6.74.63,1.1,10.19a5.09,5.09,0,0,0,.52,1.71,5,5,0,0,1,.53,1.66c0,.23,0,.38-.06.43a1.15,1.15,0,0,1-.53.15l-.31,0-.27,0h-.72l-1,0-1,.06-.55,0a5,5,0,0,1-1.69-.23,2,2,0,0,1-1-.69,2.82,2.82,0,0,1-.49-1.14c-.1-.44-.19-1-.27-1.54-.19-2.13-.35-4.25-.46-6.37s-.21-4.26-.29-6.43c0,0,0-.25,0-.64s-.05-.83-.09-1.33-.08-1-.11-1.49-.08-.86-.12-1.13a18.51,18.51,0,0,1,.2-4.08c.21-1.24.46-2.59.73-4.07a2.79,2.79,0,0,1,.14-2.09,20.27,20.27,0,0,0,.79-2,5,5,0,0,0,.15-.87,3.32,3.32,0,0,1,.2-.93.58.58,0,0,1,.06-.2c0-.1.08-.15.11-.15a19.38,19.38,0,0,0,1.11-2.36,10.87,10.87,0,0,1,1.28-2.35,11.59,11.59,0,0,1,1.28-1.43,14.5,14.5,0,0,1,1.63-1.36,8.83,8.83,0,0,1,1.83-1,6.86,6.86,0,0,1,1.89-.52,6.26,6.26,0,0,1,4.07.72A7,7,0,0,1,373.63,4a13.76,13.76,0,0,1,1.31,3.34,35.22,35.22,0,0,0,1,3.4,4,4,0,0,0,.09.64q.09.46.15,1c0,.35.08.67.14,1a3.51,3.51,0,0,1,.09.61q.41,3.84.5,7.74t.26,7.73a14.42,14.42,0,0,1-.15,2,10.87,10.87,0,0,0-.09,2c0,.07,0,.28.06.61s.08.69.12,1.07.09.75.14,1.08a5,5,0,0,1,.09.61v1.92c0,.08,0,.28,0,.61s0,.69.06,1.08,0,.74.06,1.07,0,.56,0,.67a6.92,6.92,0,0,1-.12,1,.91.91,0,0,1-.76.82h-.11l-.38-.06-.38-.06-.7,0c-.35,0-.71,0-1.07,0l-1.05,0Zm-9.54-20.94a1.12,1.12,0,0,0,.82,1,6.57,6.57,0,0,0,1.74.38,16.37,16.37,0,0,0,2,.06c.66,0,1.16-.05,1.51-.09l.47,0,.46,0a1.79,1.79,0,0,0,.18-.32c0-.1.07-.2.11-.32s0-.61-.05-1.13-.08-1.1-.09-1.72,0-1.19-.06-1.71,0-.91,0-1.14a1.36,1.36,0,0,0,.06-.52V17l-.58-5.65a4,4,0,0,0-.29-.93,4.5,4.5,0,0,0-.59-1,2.55,2.55,0,0,0-.84-.69,1.69,1.69,0,0,0-1-.21,2.42,2.42,0,0,0-.87.29A8.62,8.62,0,0,0,363.3,13a25.25,25.25,0,0,0-.52,4.72c0,.92,0,1.84,0,2.73A20.86,20.86,0,0,0,362.78,23.16Z" transform="translate(0 0)"/><path class="cls-3" d="M381.4,35.2a2.18,2.18,0,0,1,1.49-1.42,6.49,6.49,0,0,1,2.55-.17,25.14,25.14,0,0,1,3.32.55q1.83.41,3.81.75A3.14,3.14,0,0,0,394,34.5a5.21,5.21,0,0,0,1.13-.89,9.19,9.19,0,0,0,1-1.26c.31-.46.64-.93,1-1.39a1,1,0,0,0,.11-.26,1.35,1.35,0,0,0,.06-.27L397.05,27a5.55,5.55,0,0,1-.73-.58q-.6-.53-1-.81a2.47,2.47,0,0,0-.43-.32,1.12,1.12,0,0,0-.44-.21,35.47,35.47,0,0,0-3.81-1.39,24.06,24.06,0,0,1-3.32-1.25,10.15,10.15,0,0,1-2.79-2,10.59,10.59,0,0,1-2.18-3.58c0-.12,0-.29,0-.52s-.05-.48-.09-.73-.06-.49-.08-.7,0-.35,0-.43c0-.55-.09-1.13-.15-1.75a3.87,3.87,0,0,1,.21-1.74c0-.16.11-.44.23-.85s.25-.82.41-1.25l.43-1.22a7.28,7.28,0,0,0,.26-.81v-.3a6.54,6.54,0,0,1,.64-.81,8.09,8.09,0,0,0,.56-.61c.17-.21.32-.38.43-.49A16.17,16.17,0,0,1,389,1.41,11.63,11.63,0,0,1,393.62,0a9.93,9.93,0,0,1,2.21.18,18.1,18.1,0,0,1,2.91.7,10.17,10.17,0,0,1,2.55,1.19,2.17,2.17,0,0,1,1.17,1.6,5.79,5.79,0,0,1-.06,1.39A11,11,0,0,1,402,6.82a5.86,5.86,0,0,1-.69,1.54,1.44,1.44,0,0,1-1,.73,17.93,17.93,0,0,1-3,0,17.92,17.92,0,0,0-3,0,10.4,10.4,0,0,0-1.19.11,11.67,11.67,0,0,1-1.2.12,2.38,2.38,0,0,1-.55.26,6,6,0,0,0-.76.38,5.07,5.07,0,0,0-.64.47.65.65,0,0,0-.26.46l.29,3.49a.74.74,0,0,0,.38.56c.25.17.53.34.82.52a6.92,6.92,0,0,0,.9.46,5,5,0,0,0,.64.26q2.32,1.11,4.24,2.1a13.86,13.86,0,0,1,3.32,2.33,10.33,10.33,0,0,1,2.24,3.17,13.89,13.89,0,0,1,1.08,4.56,14.35,14.35,0,0,1-.33,4.71,12.39,12.39,0,0,1-1.8,4.16,10.89,10.89,0,0,1-3.17,3.06,9.69,9.69,0,0,1-4.36,1.45,21.65,21.65,0,0,1-4.19.06,14.13,14.13,0,0,1-3.93-.87,7.81,7.81,0,0,1-3-2.07A5.88,5.88,0,0,1,381.4,35.2Z" transform="translate(0 0)"/><path class="cls-3" d="M435.9,43.52a57.65,57.65,0,0,1-.55-7.47c0-2.46,0-4.94,0-7.42q-.12-6.63-.44-13.18T434,2.22a1.61,1.61,0,0,1,.38-.61,1.53,1.53,0,0,1,.73-.38h.23c2.63.08,5.06.27,7.27.55a17.8,17.8,0,0,1,5.79,1.72,11.22,11.22,0,0,1,4.07,3.58,14,14,0,0,1,2.13,6.08,17.3,17.3,0,0,1,0,3.81,12.4,12.4,0,0,1-1.11,3.9A9.53,9.53,0,0,1,451,24a7.06,7.06,0,0,1-4,1.57,8.18,8.18,0,0,1-2.27-.09c-.74-.14-1.47-.24-2.21-.32a1.11,1.11,0,0,0-.61.44,1.43,1.43,0,0,0-.15.72c0,.2,0,.54,0,1.05s0,1,.06,1.57,0,1.07.06,1.57A7.61,7.61,0,0,0,442,31.6c0,.07,0,.29,0,.64a2,2,0,0,0,.08.64l.12,10.58a6.52,6.52,0,0,0-.2.84.85.85,0,0,1-.56.68c-.15,0-.47,0-1,.05a5.28,5.28,0,0,0-.9.12c-.5.08-1,.12-1.39.15a3.7,3.7,0,0,1-1.11-.12,1.66,1.66,0,0,1-.78-.52A2.27,2.27,0,0,1,435.9,43.52Zm7.27-27.28a2.48,2.48,0,0,0,.47,1.25c.23.29.69.4,1.39.32a1.69,1.69,0,0,0,1.25-.58A3.71,3.71,0,0,0,447,16a4.66,4.66,0,0,0,.24-1.43,11.24,11.24,0,0,0-.06-1.25c0-.27-.15-.75-.32-1.45a14.37,14.37,0,0,0-.7-2.1A6.36,6.36,0,0,0,445,8a1.62,1.62,0,0,0-1.48-.64c-.16,0-.27.22-.35.64a9.7,9.7,0,0,0-.14,1.6c0,.64,0,1.34,0,2.09s0,1.46,0,2.1,0,1.19.09,1.66S443.17,16.16,443.17,16.24Z" transform="translate(0 0)"/><path class="cls-3" d="M477.27,44.1a1.77,1.77,0,0,1-.58-.37,1,1,0,0,1-.35-.56L475,30.84a.57.57,0,0,0-.21-.41.4.4,0,0,0-.38-.11l-6.75.63,1.11,10.19a5.09,5.09,0,0,0,.52,1.71,5,5,0,0,1,.53,1.66c0,.23,0,.38-.06.43a1.2,1.2,0,0,1-.53.15l-.32,0-.26,0h-.72l-1,0-1,.06-.56,0a4.89,4.89,0,0,1-1.68-.23,2,2,0,0,1-1-.69,3,3,0,0,1-.5-1.14c-.09-.44-.18-1-.26-1.54-.19-2.13-.35-4.25-.46-6.37s-.22-4.26-.29-6.43c0,0,0-.25,0-.64s-.05-.83-.09-1.33-.08-1-.12-1.49-.08-.86-.11-1.13a18.51,18.51,0,0,1,.2-4.08c.21-1.24.46-2.59.73-4.07a2.74,2.74,0,0,1,.14-2.09,20.27,20.27,0,0,0,.79-2,5,5,0,0,0,.15-.87,3.32,3.32,0,0,1,.2-.93.58.58,0,0,1,.06-.2c0-.1.08-.15.11-.15a19.38,19.38,0,0,0,1.11-2.36,10.87,10.87,0,0,1,1.28-2.35,11.59,11.59,0,0,1,1.28-1.43,15.45,15.45,0,0,1,1.63-1.36,8.83,8.83,0,0,1,1.83-1,6.86,6.86,0,0,1,1.89-.52,6.28,6.28,0,0,1,4.07.72A7,7,0,0,1,478.58,4a13.76,13.76,0,0,1,1.31,3.34,35.22,35.22,0,0,0,1,3.4,4,4,0,0,0,.09.64q.09.46.15,1c0,.35.08.67.14,1a3.51,3.51,0,0,1,.09.61c.27,2.56.44,5.14.49,7.74s.15,5.18.27,7.73a14.42,14.42,0,0,1-.15,2,10.87,10.87,0,0,0-.09,2c0,.07,0,.28.06.61s.08.69.12,1.07.08.75.14,1.08a5,5,0,0,1,.09.61v1.92c0,.08,0,.28,0,.61s0,.69.06,1.08,0,.74.06,1.07,0,.56,0,.67a6.92,6.92,0,0,1-.12,1,.91.91,0,0,1-.76.82h-.11l-.38-.06-.38-.06-.7,0c-.35,0-.71,0-1.07,0l-1.05,0Zm-9.54-20.94a1.12,1.12,0,0,0,.81,1,6.74,6.74,0,0,0,1.75.38,16.37,16.37,0,0,0,2,.06c.66,0,1.16-.05,1.51-.09l.46,0,.47,0a2.74,2.74,0,0,0,.18-.32c0-.1.07-.2.11-.32s0-.61-.05-1.13-.08-1.1-.09-1.72,0-1.19-.06-1.71,0-.91,0-1.14a1.36,1.36,0,0,0,.06-.52V17l-.59-5.65a3.24,3.24,0,0,0-.29-.93,4.46,4.46,0,0,0-.58-1,2.55,2.55,0,0,0-.84-.69,1.69,1.69,0,0,0-1-.21,2.42,2.42,0,0,0-.87.29A8.62,8.62,0,0,0,468.25,13a25.25,25.25,0,0,0-.52,4.72c0,.92,0,1.84-.06,2.73A20.89,20.89,0,0,0,467.73,23.16Z" transform="translate(0 0)"/><path class="cls-3" d="M489.3,41.2a39,39,0,0,1-.23-6.69q.18-3.43.06-6.75c-.08-2.1-.2-4.14-.35-6.14s-.21-4-.18-6.14,0-4.34,0-6.28A42,42,0,0,0,488.2,3a1.87,1.87,0,0,1,1-1.43A4.57,4.57,0,0,1,490.81,1a8.94,8.94,0,0,1,2.07,0,3,3,0,0,1,1.89.87c0,.08,0,.24,0,.47s0,.39,0,.46a18.81,18.81,0,0,1-.06,4.42,24.61,24.61,0,0,0-.17,4.37c0,.15,0,.75.08,1.77s.13,2.2.21,3.52.15,2.65.23,4,.14,2.39.18,3.17c.11,1.86.18,3.67.2,5.43s.13,3.56.32,5.39c.12.74.44,1.16,1,1.28a7.14,7.14,0,0,0,1.71.14,16,16,0,0,1,1.72,0c.52,0,.83.37.9,1,0,1.24,0,2.24-.08,3a18.69,18.69,0,0,1-.27,2.07c-.11.62-.31.93-.58.93a.28.28,0,0,1-.2.06h-.2c-1.48-.08-3-.15-4.54-.21s-3.11-.16-4.66-.32a1.1,1.1,0,0,1-1-.43A4,4,0,0,1,489.3,41.2Z" transform="translate(0 0)"/><path class="cls-3" d="M524.67,44.1a1.88,1.88,0,0,1-.58-.37,1.08,1.08,0,0,1-.35-.56l-1.39-12.33a.54.54,0,0,0-.21-.41.39.39,0,0,0-.38-.11L515,31l1.1,10.19a5.1,5.1,0,0,0,.53,1.71,5.18,5.18,0,0,1,.52,1.66c0,.23,0,.38-.06.43a1.15,1.15,0,0,1-.52.15l-.32,0-.26,0h-.73l-1,0-1,.06-.55,0a5,5,0,0,1-1.69-.23,2.07,2.07,0,0,1-1-.69,2.82,2.82,0,0,1-.49-1.14,15.32,15.32,0,0,1-.26-1.54c-.2-2.13-.35-4.25-.47-6.37s-.21-4.26-.29-6.43c0,0,0-.25,0-.64s0-.83-.09-1.33-.08-1-.11-1.49-.08-.86-.12-1.13a18.51,18.51,0,0,1,.2-4.08c.22-1.24.46-2.59.73-4.07a2.75,2.75,0,0,1,.15-2.09c.32-.73.59-1.4.78-2a5,5,0,0,0,.15-.87,3.72,3.72,0,0,1,.2-.93.58.58,0,0,1,.06-.2c0-.1.08-.15.11-.15a19.38,19.38,0,0,0,1.11-2.36A11.32,11.32,0,0,1,513,5.19a12.47,12.47,0,0,1,1.28-1.43,15.45,15.45,0,0,1,1.63-1.36,8.83,8.83,0,0,1,1.83-1,6.86,6.86,0,0,1,1.89-.52,6.26,6.26,0,0,1,4.07.72A7,7,0,0,1,526,4a13.76,13.76,0,0,1,1.31,3.34,32.57,32.57,0,0,0,1.05,3.4,5.06,5.06,0,0,0,.08.64q.09.46.15,1t.15,1a4.39,4.39,0,0,1,.08.61q.41,3.84.5,7.74t.26,7.73a14.42,14.42,0,0,1-.15,2,10.85,10.85,0,0,0-.08,2,6,6,0,0,0,0,.61c0,.33.08.69.12,1.07s.09.75.15,1.08.08.53.08.61v1.92c0,.08,0,.28,0,.61s0,.69.06,1.08,0,.74.06,1.07,0,.56,0,.67a6.92,6.92,0,0,1-.12,1,.91.91,0,0,1-.76.82h-.11l-.38-.06-.38-.06-.7,0c-.35,0-.7,0-1.07,0l-1,0Zm-9.54-20.94a1.12,1.12,0,0,0,.82,1,6.57,6.57,0,0,0,1.74.38,16.37,16.37,0,0,0,2,.06c.66,0,1.16-.05,1.51-.09l.47,0,.46,0a1.79,1.79,0,0,0,.18-.32c0-.1.07-.2.11-.32s0-.61,0-1.13-.07-1.1-.09-1.72,0-1.19-.06-1.71,0-.91,0-1.14a1.36,1.36,0,0,0,.06-.52V17l-.58-5.65a4,4,0,0,0-.29-.93,4.91,4.91,0,0,0-.58-1,2.69,2.69,0,0,0-.85-.69,1.67,1.67,0,0,0-1-.21,2.42,2.42,0,0,0-.87.29A8.6,8.6,0,0,0,515.66,13a24.41,24.41,0,0,0-.53,4.72c0,.92,0,1.84,0,2.73A19.25,19.25,0,0,0,515.13,23.16Z" transform="translate(0 0)"/><path class="cls-3" d="M537.06,44.57a6.14,6.14,0,0,1-.06-.75,3.63,3.63,0,0,1,.11-.76l-.05-12.16a68.4,68.4,0,0,1-.7-9q-.06-4.58-.24-8.93c-.11-1.36-.22-2.72-.31-4.08a39.43,39.43,0,0,1-.09-4.07,2.52,2.52,0,0,0-.09-.67.9.9,0,0,1,.09-.67,2.27,2.27,0,0,1,1-.81,6.83,6.83,0,0,1,1.45-.44,12.08,12.08,0,0,1,1.54-.17c.5,0,.93-.05,1.28-.09a7.53,7.53,0,0,1,2.62.23,9.12,9.12,0,0,1,2.27,1,10.73,10.73,0,0,1,1.92,1.6,12.35,12.35,0,0,1,1.51,2,5.44,5.44,0,0,1,.38,1.08,3.82,3.82,0,0,0,.37,1l.41,3.84a2.31,2.31,0,0,0-.11.64c0,.35-.06.58-.06.7a9,9,0,0,1-.47,1.89,3.83,3.83,0,0,0-.23,1.83,2,2,0,0,0,.73,1.37,15,15,0,0,1,1.13,1.14c.12.11.33.34.64.69s.52.59.64.7c0,.12,0,.35.26.7s.47.75.76,1.19a13,13,0,0,1,.76,1.34,1.93,1.93,0,0,1,.26,1c0,.11.12.33.26.64s.27.63.41,1,.25.67.34,1l.21.61s0,.28.06.72a4.09,4.09,0,0,0,.17,1,17.17,17.17,0,0,1-.14,5,35.5,35.5,0,0,1-1.26,4.86.36.36,0,0,1,0,.29,2.24,2.24,0,0,1-.11.29,14.74,14.74,0,0,1-1.31,2.06,3.91,3.91,0,0,1-2.06,1.37,6.68,6.68,0,0,0-.73.06l-1.08.15-1.07.14a6.87,6.87,0,0,1-.73.06q-.35,0-.93.06l-1.16.12-1,.08-.5,0-.29,0a4.17,4.17,0,0,1-.52,0,5.49,5.49,0,0,1-.58,0l-.41,0a15,15,0,0,1-1.6-.09c-.56,0-1.11-.08-1.66-.08s-1,.07-1.39.11S537.13,45.19,537.06,44.57Zm5.29-29.5a.35.35,0,0,0,.26.24,1.23,1.23,0,0,0,.32.06.4.4,0,0,0,.35-.3,6.11,6.11,0,0,0,.64-2,9.1,9.1,0,0,0,0-2.09c0-.2-.09-.42-.14-.68a2.13,2.13,0,0,0-.3-.69,1.74,1.74,0,0,0-.49-.52.93.93,0,0,0-.7-.15.58.58,0,0,0-.2.06.74.74,0,0,1-.2.06l-.18.35Zm.29,23.74c0,.39.3.66.79.81a2.79,2.79,0,0,0,1.19.18,5.42,5.42,0,0,0,2.5-.82,3.6,3.6,0,0,0,1.34-1.57,6,6,0,0,0,.46-2.09,12.17,12.17,0,0,0-.11-2.33,19.26,19.26,0,0,0-1-4.45,7.35,7.35,0,0,0-2.85-3.63c-.27-.16-.52-.28-.73-.38a1.4,1.4,0,0,0-.78-.09.58.58,0,0,0-.53.29,2,2,0,0,0-.23.67,5.06,5.06,0,0,0-.06.79v5.47a2.61,2.61,0,0,1,.12.66c0,.37.06.6.06.67a21.35,21.35,0,0,1-.09,2.91A15.65,15.65,0,0,0,542.64,38.81Z" transform="translate(0 0)"/><path class="cls-3" d="M579.41,45.91a27.65,27.65,0,0,1-1.75-2.77c-.42-.79-.91-1.65-1.45-2.58a4.6,4.6,0,0,0-.41-.5c-.19-.21-.38-.44-.55-.67a5.32,5.32,0,0,1-.43-.67.67.67,0,0,1-.06-.61c-.47-.66-.93-1.34-1.37-2l-1.31-2H572a.15.15,0,0,1-.11-.06c-.35-.08-.49.08-.41.46s.08,1.09.12,2.1.09,2.08.14,3.23.12,2.23.18,3.25.1,1.74.14,2.13l.06.17a4.11,4.11,0,0,1-.35.44c-.15.17-.25.24-.29.2l-5.93.41a.91.91,0,0,1-.88-.44,2.17,2.17,0,0,1-.4-.9.12.12,0,0,1,0-.09s0-.06,0-.14v-.18a1.87,1.87,0,0,1,.05-.32c0-.17.08-.36.12-.55s.08-.37.12-.52a1.47,1.47,0,0,0,0-.29,6.37,6.37,0,0,0-.08-.79c-.06-.4-.11-.83-.15-1.28s-.08-.86-.11-1.25-.06-.64-.06-.75V37.44c0-.76,0-1.56,0-2.41s0-1.66-.06-2.42,0-1.23,0-1.43,0-.54-.06-1-.08-1.05-.11-1.63-.08-1.12-.12-1.63-.06-.85-.06-1a1.46,1.46,0,0,0,.06-.53v-.52q.18-5.05.06-10c-.08-3.29-.17-6.61-.29-9.94,0-.12,0-.33,0-.64s0-.64-.09-1-.07-.69-.08-1,0-.55,0-.67.19-.37.32-.41a2.12,2.12,0,0,1,.44-.05c1.55-.12,3.06-.19,4.54-.21a15.86,15.86,0,0,1,4.15.47A10,10,0,0,1,576.32,3,8.92,8.92,0,0,1,579,6.29c.5,1,1,2,1.51,2.94a7.8,7.8,0,0,1,.87,3.11,13,13,0,0,1-1.19,6.49,18.22,18.22,0,0,1-4,5.44,1,1,0,0,0-.23.64,2.77,2.77,0,0,0,.44,1,1.22,1.22,0,0,1,.2,1l2.39,4.77v.17l2.38,3.85a9.11,9.11,0,0,0,.5,1c.32.6.7,1.27,1.13,2s.81,1.51,1.16,2.27a6.62,6.62,0,0,1,.59,1.71,1.78,1.78,0,0,1-.39,1.17A5.08,5.08,0,0,1,583.19,45a9,9,0,0,1-1.34.91,2.62,2.62,0,0,1-1.22.37A1.27,1.27,0,0,1,579.41,45.91Zm-9.77-27.69a3,3,0,0,0,.38.43.86.86,0,0,0,.49.21A3,3,0,0,0,572.4,18a4.88,4.88,0,0,0,1.11-1.68,8,8,0,0,0,.49-2,15.92,15.92,0,0,0,.11-1.8,8.44,8.44,0,0,0-.28-1.43,8.22,8.22,0,0,0-.64-1.6,4.36,4.36,0,0,0-1-1.25,2.06,2.06,0,0,0-1.49-.43,1.13,1.13,0,0,0-.9.64,3.85,3.85,0,0,0-.43,1.33,9.52,9.52,0,0,0-.12,1.48v1s0,.17,0,.4,0,.51.06.82,0,.63,0,1a5.63,5.63,0,0,0,.09.78c0,.12,0,.31,0,.58s0,.57.06.9,0,.63.06.91S569.64,18.1,569.64,18.22Z" transform="translate(0 0)"/><path class="cls-3" d="M605.7,44.1a1.92,1.92,0,0,1-.59-.37,1.05,1.05,0,0,1-.34-.56l-1.4-12.33a.56.56,0,0,0-.2-.41.4.4,0,0,0-.38-.11L596,31l1.11,10.19a4.87,4.87,0,0,0,.52,1.71,5.46,5.46,0,0,1,.53,1.66c0,.23,0,.38-.07.43a1.1,1.1,0,0,1-.52.15l-.32,0-.26,0h-.73l-1,0-1,.06-.55,0a5,5,0,0,1-1.69-.23,2.11,2.11,0,0,1-1-.69,3,3,0,0,1-.49-1.14c-.1-.44-.18-1-.26-1.54q-.29-3.19-.47-6.37c-.11-2.11-.21-4.26-.29-6.43,0,0,0-.25,0-.64s0-.83-.08-1.33-.08-1-.12-1.49-.08-.86-.12-1.13a18.48,18.48,0,0,1,.21-4.08c.21-1.24.45-2.59.72-4.07a2.75,2.75,0,0,1,.15-2.09,20,20,0,0,0,.78-2,5,5,0,0,0,.15-.87,4.23,4.23,0,0,1,.2-.93,1,1,0,0,1,.06-.2q.06-.15.12-.15a20.91,20.91,0,0,0,1.1-2.36A10.92,10.92,0,0,1,594,5.19a11.46,11.46,0,0,1,1.27-1.43,16.54,16.54,0,0,1,1.63-1.36,8.83,8.83,0,0,1,1.83-1,6.83,6.83,0,0,1,1.9-.52,6.28,6.28,0,0,1,4.07.72A7.07,7.07,0,0,1,607,4a13.36,13.36,0,0,1,1.31,3.34,32.57,32.57,0,0,0,1.05,3.4,4,4,0,0,0,.09.64c0,.31.1.64.14,1s.09.67.15,1a4.39,4.39,0,0,1,.08.61q.4,3.84.5,7.74t.26,7.73a16,16,0,0,1-.14,2,10.09,10.09,0,0,0-.09,2c0,.07,0,.28.06.61s.07.69.11,1.07.09.75.15,1.08.09.53.09.61v1.92c0,.08,0,.28,0,.61s.05.69.06,1.08,0,.74.06,1.07,0,.56,0,.67a6.92,6.92,0,0,1-.12,1,.91.91,0,0,1-.75.82h-.12l-.38-.06-.38-.06-.7,0c-.35,0-.71,0-1.07,0l-1,0Zm-9.54-20.94a1.12,1.12,0,0,0,.81,1,6.65,6.65,0,0,0,1.75.38,16.15,16.15,0,0,0,2,.06c.66,0,1.17-.05,1.52-.09l.46,0,.47,0a2.55,2.55,0,0,0,.17-.32c0-.1.08-.2.12-.32s0-.61-.06-1.13-.07-1.1-.09-1.72,0-1.19,0-1.71,0-.91,0-1.14a1.43,1.43,0,0,0,0-.52V17l-.58-5.65a4,4,0,0,0-.29-.93,4.91,4.91,0,0,0-.58-1,2.66,2.66,0,0,0-.84-.69,1.69,1.69,0,0,0-1-.21,2.47,2.47,0,0,0-.88.29A8.6,8.6,0,0,0,596.68,13a25.25,25.25,0,0,0-.52,4.72c0,.92,0,1.84-.06,2.73A20.89,20.89,0,0,0,596.16,23.16Z" transform="translate(0 0)"/><path class="cls-3" d="M614.77,35.2a2.17,2.17,0,0,1,1.48-1.42,6.55,6.55,0,0,1,2.56-.17,25.14,25.14,0,0,1,3.32.55q1.83.41,3.81.75a3.07,3.07,0,0,0,1.42-.41,5,5,0,0,0,1.14-.89,9.19,9.19,0,0,0,1-1.26c.3-.46.64-.93,1-1.39a.57.57,0,0,0,.12-.26,1.35,1.35,0,0,0,.06-.27L630.42,27a5.55,5.55,0,0,1-.73-.58c-.41-.35-.72-.62-1-.81a2.47,2.47,0,0,0-.43-.32,1.18,1.18,0,0,0-.44-.21,35.47,35.47,0,0,0-3.81-1.39,24.06,24.06,0,0,1-3.32-1.25,10.3,10.3,0,0,1-2.79-2,10.59,10.59,0,0,1-2.18-3.58c0-.12,0-.29,0-.52s-.05-.48-.08-.73a6.72,6.72,0,0,1-.09-.7c0-.21,0-.35,0-.43,0-.55-.09-1.13-.15-1.75a4,4,0,0,1,.2-1.74c0-.16.12-.44.24-.85s.25-.82.4-1.25.3-.83.44-1.22.22-.66.26-.81v-.3a5.72,5.72,0,0,1,.64-.81,6.31,6.31,0,0,0,.55-.61,6.41,6.41,0,0,1,.44-.49,16.17,16.17,0,0,1,3.81-3.26A11.53,11.53,0,0,1,627,0a10,10,0,0,1,2.22.18,18.24,18.24,0,0,1,2.9.7,10.25,10.25,0,0,1,2.56,1.19,2.17,2.17,0,0,1,1.17,1.6,6.37,6.37,0,0,1-.06,1.39,11,11,0,0,1-.38,1.75,5.88,5.88,0,0,1-.7,1.54,1.4,1.4,0,0,1-1,.73,17.91,17.91,0,0,1-3,0,18,18,0,0,0-3,0,10.59,10.59,0,0,0-1.19.11,11.56,11.56,0,0,1-1.19.12,2.49,2.49,0,0,1-.56.26,5.29,5.29,0,0,0-.75.38,3.94,3.94,0,0,0-.64.47.65.65,0,0,0-.26.46l.29,3.49a.72.72,0,0,0,.38.56l.81.52a7.62,7.62,0,0,0,.9.46,5,5,0,0,0,.64.26q2.33,1.11,4.25,2.1a13.8,13.8,0,0,1,3.31,2.33,10.17,10.17,0,0,1,2.24,3.17,13.41,13.41,0,0,1,1.08,4.56,14.08,14.08,0,0,1-.32,4.71,12.39,12.39,0,0,1-1.8,4.16,11.14,11.14,0,0,1-3.17,3.06,9.73,9.73,0,0,1-4.37,1.45,21.55,21.55,0,0,1-4.18.06,14,14,0,0,1-3.93-.87,7.92,7.92,0,0,1-3-2.07A5.93,5.93,0,0,1,614.77,35.2Z" transform="translate(0 0)"/></g></g></g></svg>