<svg xmlns="http://www.w3.org/2000/svg" viewBox="0 0 325.78 258.04"><defs><style>.cls-1{fill-opacity:0.24;}.cls-2{fill:#f39200;}.cls-3{fill:#fff;}.cls-11,.cls-4{fill:none;stroke:#dad8cc;}.cls-4{stroke-linecap:round;stroke-width:0.53px;}.cls-5{fill:#00a0a4;}.cls-6{fill:#454444;}.cls-7{fill:#3c3c3b;}.cls-8{fill:#814114;}.cls-9{fill:#a85318;}.cls-10{fill:#010202;}.cls-11{stroke-width:0.27px;}.cls-12{fill:#dad8cc;}.cls-13{fill:#fab415;}</style></defs><title>zorrito</title><g id="Layer_2" data-name="Layer 2"><g id="Layer_1-2" data-name="Layer 1"><path class="cls-1" d="M101.45,247.51c-1.43,0,.76.36-.93.11A1,1,0,0,1,101.45,247.51Z"/><path class="cls-1" d="M103.17,247.52c.3.23,1.28.39.48.65C103.56,248,103.07,247.71,103.17,247.52Z"/><path class="cls-1" d="M129.43,251.77c0-.06.37.12.45.16-.32,0-.65.14-.9,0C129.31,251.94,129.27,251.84,129.43,251.77Z"/><path class="cls-1" d="M136.16,252.52a7,7,0,0,1-2.43.14Z"/><path class="cls-1" d="M142.37,253.88c.53.21.37.29-.36.21C142,254,142.22,254,142.37,253.88Z"/><path class="cls-1" d="M142.86,253.5a2.23,2.23,0,0,1,1,.31C143.88,253.65,142.66,253.8,142.86,253.5Z"/><path class="cls-1" d="M156.48,255.29c.33,0,1.06-.09,1.35.14C157.49,255.26,156.2,255.54,156.48,255.29Z"/><path class="cls-1" d="M162.89,255.5a1.49,1.49,0,0,0,.53,0c.38.11,0,.22-.36.22Z"/><path class="cls-1" d="M124.17,256.74l.69-.07-.1.18Z"/><path class="cls-1" d="M116.52,253.13c.68-.15.48.15.59.17C116.49,253.36,117.32,253.06,116.52,253.13Z"/><path class="cls-1" d="M143.84,251.26l-.21,0,.06-.4Z"/><path class="cls-2" d="M307.37,185.57A108.4,108.4,0,0,1,248.85,184c-9.52-2.92-22.66-7.18-36.42-4.11-9.9,2.2-23.28,12-26.69,14.57l-.33,24.08c6.59,7,18.72,16.62,36.07,16.94,34.24.64,79.84-27.71,94.8-43C331.68,176.85,325.83,181.1,307.37,185.57Z"/><path class="cls-3" d="M313.92,183.64a109.32,109.32,0,0,1-62.32,1.14c5.17,5,14,15.07,11.28,14.93-3.83-.18-20.18,5.1-15.59,5.33s15.72,2.8,15.72,2.8-13.23,9.17-11.73,9.92,17-2.54,17-2.54a51,51,0,0,0-1.37,9.32c24.49-11.26,36.76-20.65,46.34-28.68C330,181.79,329.7,178.63,313.92,183.64Z"/><path class="cls-2" d="M102.35,144.49c-.34-1.52-1.81-7-2.4-9.17-1.21,2.21-14.33,22.22-32.07,15.7-2.16-.79-.93-10.27-4.59-10.32-3.11,0-3,4.45-2.9,8.38-3-8.46-6.57-6.35-4.5,3.8-4.3-10.4-9.4.55-2.58,5.06,6.22,4.43,11.74,2.34,16.13,2.68C90.41,162.24,97.58,152.08,102.35,144.49Z"/><path class="cls-2" d="M136.05,39c-.19,1.21,7.94-32.7,3.33-39-4.25,3.66-30.32,25-29.24,30.08.74,3.2,14.93,7.21,18,7.66C133.7,37.37,132.29,37.78,136.05,39Z"/><path class="cls-3" d="M128.9,35.68c.81-5.43,2.6-12.21,1.62-17.9C125.24,20.06,121,27.85,117.8,32.3A95,95,0,0,0,129,35.15"/><path class="cls-2" d="M17.17,12.09c11.24-1.59,55.28,8.75,66.41,9.33,28.62,1.47,56.28,12.81,58.62,13.72,4.13-1,34.09-7.93,43.52-6.05-.6,2.11-2.74,5-3.6,7C179,42.25,166.55,53.35,164,55.45c-2.21,1.87-7,4.78-8.66,7,.93,5.39,1.38,28.75-4.22,39.26,0,0,9.8,18.15,12.35,21.62,8.5,13,12.49,26.51,17.62,41.47,2.51,7.78,5.25,22.57,7.51,40,1.39,10.71-25.8,5.5-35.49,8.35-11,3.26-24.18,4.72-35-1.23-3.28-1.81,2-20.84-10.88-74.65-1.38-5.75-13.75-23.18-14.06-28.81-.33-6.16-38.15-38.92-62.76-66.93-4.18-5-12.43-14.3-16.07-19.25S7.35,13.34,17.17,12.09Z"/><path class="cls-3" d="M116.74,108.39c9.31,9.47,18.84,19.06,25.45,29.88,8.18,14.15,25.73,44.69,18.42,62.16-3.9,8.7-38.39,15.56-46.74,12.74.37-44.09-18.75-97.77-46.61-133.65C81.27,81.16,108.69,100.21,116.74,108.39Z"/><path class="cls-3" d="M120,30.13c3,12.53-15.93,19.11-21.42,7.75C89.77,19.56,117.66,12.71,120,30.13Z"/><path class="cls-4" d="M100.28,23.29c3.93-3.59,10.45-4.37,14.94-1.4"/><path d="M109,28.43a1.91,1.91,0,0,1-3.54,1.28A1.91,1.91,0,1,1,109,28.43Z"/><path class="cls-3" d="M152.43,50.09c2.09-1.53,12.92-7.9,15.55-13.05-8,0-16,1.59-23.6,2.89C146.82,43.39,149.51,46,152.43,50.09Z"/><path d="M86,74.07c8.9,3.67,19.25-4.6,17.94-13.67C121,75.59,93,92.34,86,74.07Z"/><path d="M36,13.53C34.4,23.78,32.68,36.7,26.7,37.78,19,30.93,1.39,8.08,10,8.58,19.21,9.11,25,9.6,36,13.53Z"/><path class="cls-2" d="M153.47,62c4.35,1.64,7.76,2.78,16,15.62-9.3-4.18-8.85-3.77-13.82-4.45,1.11.12,7.69,7.6,10.38,16.3-9.21-6-8.68-5.17-12.73-6.18,3.6,3.42,6.14,13,7,18.37-7.58-6.42-16.63-11.47-21.83-13.06C136.49,83.92,150.18,65.14,153.47,62Z"/><path class="cls-2" d="M182.32,215.75,170.9,217l4.3,26.18s-15.82,4-13.81,7.11c2.69,4.21,8.75-.38,8.75-.38s-6.56,6.16-2,7,8.46-4,8.46-4c-1.22,10.29,11.67,3.12,8.26-5.58Z"/><path class="cls-2" d="M118.83,218.47c1.11-3.17,12-10.3,12-10.3l-18-1.25S106.5,216.86,107,220c.73,4.16,6.72,24.59,6.72,24.59s-17.55,1.12-14,6.49c2,3,7.25-1.14,7.25-1.14s-3.65,4.79-1.09,6.5,9.21-4.83,9.21-4.83-5.1,5.59.91,5.6,9.59-4.69,7.35-11.2C121.58,240.75,118.52,219.36,118.83,218.47Z"/><path class="cls-5" d="M112.68,191.1s36.72.47,49.39-1.65A115.56,115.56,0,0,0,186.66,182s1.91,12.69,2.61,23.15a158.6,158.6,0,0,1-.1,22s-21.27-.7-25.12.29l-2-6.48-27.39.59L130,228.22l-27.17-4.75Z"/><path d="M158.64,192.46S143.2,143.34,149,128.4c5.64-14.56,11.25-10.58,11.25-10.58l-2.16-3.54s-8.85-4.07-15.93,14.68C136,145.21,150,192.84,150,192.84Z"/><path class="cls-6" d="M150.36,196.59l8.94-1.14-.88-5.11-9,1.33Z"/><path d="M116.08,192s-4.61-37.68-9.46-47.3a46.49,46.49,0,0,0-5.39-8.38l-2.69-5.83s5.64.54,12.76,12.14c6.11,10,11,48.85,11,48.85Z"/><path class="cls-6" d="M115.5,190.54l-.06,4.81,7.57.11.06-4.82Z"/><path class="cls-7" d="M67.42,129.81c-6.57,5.42-44.3,40.9-58.87,55.2-5.67-5.29-6.52.76-4,4.53-7.94,3.5-.5,10.7,4.83,3.91,3.74,6.39,8.39.81,3.55-4.72,22.41-16.23,53.87-43.5,63.47-52.26C74.26,134.47,70.86,131.38,67.42,129.81Z"/><path class="cls-8" d="M97.51,144.51c-3.29-.77-5.52-1.64-9.52.47-2.71,1.42-4.66,5-7.61,6-6.39,2.19-13.54-.81-18.51-6.06C52.12,134.57,68.71,113.8,77.5,107c10.61-8.21,31.31-27.18,40-13.56,10,15.63,5.11,29.83-2.18,39.52C107.39,125,94.71,135.77,97.51,144.51Z"/><path class="cls-9" d="M76.63,93.51c7.24,6-1.68,18.72-13.06,13.82,3.22,12.8-19.75,19.51-5.37,34.24,3.71,4,12.13,8.53,17.8,6.25S86.6,132,94.89,137.68c-2-9.05,3.54-14.64,7.41-16.15,3.16-1.23,11.22-.39,12.22,1.45,2.77-3.26,6.79-12.91,6.77-17.65C120.08,81,91.32,81.07,76.63,93.51Z"/><path d="M66.31,128.67c-6.57,5.42-44.3,40.9-58.87,55.19-5.66-5.29-6.52.76-4,4.53-7.94,3.51-.5,10.7,4.84,3.91,3.73,6.38,8.39.81,3.55-4.72,22.4-16.23,53.88-43.5,63.45-52.25C73.15,133.33,69.76,130.23,66.31,128.67Z"/><path class="cls-10" d="M10.13,171.55s3,1,2.2,2-2.1,2.75-2.1,2.75l5.56,4.6-.77.88-5.68-4.37s-1.34,2.11-1.95,2.3-3.62-2.13-2.95-3.12S8.37,171.54,10.13,171.55Z"/><path class="cls-10" d="M19.14,163.63c.83.44,1.51,1.53,1.07,2.14a9.22,9.22,0,0,1-1.65,1.46l3.53,4.49-.66.66-4-4.18s-1.55,2-2.48,1.59-2.1-1.65-1.4-2.51S17.86,163,19.14,163.63Z"/><path class="cls-10" d="M30.7,185.38s-3-1-2.2-2,2.08-2.75,2.08-2.75L25,176l.77-.87,5.69,4.37s1.34-2.1,1.94-2.3,3.61,2.12,3,3.12S32.47,185.39,30.7,185.38Z"/><path class="cls-10" d="M21.94,193.13c-1-.38-2-1.54-1.59-2.33a10.84,10.84,0,0,1,1.68-2l-4.84-4.65.66-.89,5.33,4.24s1.49-2.57,2.65-2.24,2.71,1.59,2,2.7S23.55,193.72,21.94,193.13Z"/><path d="M94.77,116.27c4-4.21,10.25-.65,7.34,3.51-.76-2.34-1-2.9-3-2.86-1.13-.14-3,2-3.74,2.65-2.51,2-6.22,4.32-8.54,1.1C90.22,120.74,91.47,119.76,94.77,116.27Z"/><path d="M81.31,114.75c-.58-2.41,1.8-4.24,3.31-5.85,1.21-1.33,3.26-2.62,3.36-4.57.13-2.23-1.61-4.15-3.81-2.72,4.18,1.35-.69,4.86-2,6.33C81.06,109.15,78.4,112.74,81.31,114.75Z"/><path class="cls-11" d="M24.11,176.24l81.57-73.73"/><path class="cls-11" d="M15.2,181.7l89.49-80.64"/><path class="cls-11" d="M14.21,180.24l89.5-80.64"/><path class="cls-11" d="M20.93,172.59s31.92-30,46.64-42.34c14-11.74,34.61-31.6,34.61-31.6"/><path class="cls-2" d="M69,151.37c-.36-.12-.71-.22-1.08-.35-2.17-.79-.94-10.27-4.6-10.32-3.1,0-3,4.45-2.89,8.38-3-8.46-6.58-6.35-4.51,3.8-4.29-10.4-9.4.55-2.58,5.06,5.94,4.24,11.24,2.52,15.53,2.65Z"/><path class="cls-12" d="M109.6,163.13S85,130.66,73.94,115.81c-10.32-13.85-25-37.4-25-37.4l-1,.78s19.77,30.12,25.69,37.88,34.85,47,34.85,47Z"/><path d="M114.69,89.41c-4.45,3.07-8.34,7.28-13.41,9.24,1.36,1.71,3.32,3.11,4.67,4.82,2.55-4.48,6.89-7.88,11.33-11.34A10,10,0,0,0,114.69,89.41Z"/><path d="M48.73,78.52l2.65-2S67,100.24,78,115.52c12.16,16.92,34.15,45.69,34.15,45.69l-2.51,1.91-1.8-2.36a1.62,1.62,0,0,0,.64-1.58c-.26-.91-21.42-29-30.72-41.3C68.6,105.76,54.54,84,51.81,79.7a2.78,2.78,0,0,0-.93-.92c-.46-.19-1.45.67-1.45.67Z"/><path d="M111.57,160.53l-1.23.93,5,6.5,1.23-.94Z"/><path class="cls-13" d="M108.22,159.43c0,4.31-.84,8.38,3.9,9.73,1.67.29,1.61-6.55,1.79-7.76-.68,8.53,8.78,11.21,7.84,1.19,11.54,1.14,18.3-2.76,24-11.76,3.24-5.06,12.55-17.15,8.41-21.55-7.44-7.9-12.3,16-16,19.77-6.8,8.22-11.41,2-20.53,1.2-7.33-.49-20.15,9-16.15,13C103.58,164.92,108,160.63,108.22,159.43Z"/></g></g></svg>