<svg xmlns="http://www.w3.org/2000/svg" viewBox="0 0 608.21 536.38"><defs><style>.cls-1{fill:#e86d11;}.cls-2{fill:#f88011;}.cls-3{fill:#fff;}.cls-4{fill:#faaa12;}.cls-5{fill:none;stroke:#000;stroke-linecap:round;stroke-width:1.57px;}</style></defs><title>zorrito</title><g id="Layer_2" data-name="Layer 2"><g id="Layer_1-2" data-name="Layer 1"><path class="cls-1" d="M256.36,56.05s24.81-12.75,37.86-19.43S341.56,15.82,342,18.06s-9.25,23.1-17.62,46.11C317.47,83,306.15,88.36,306.15,88.36Z"/><path class="cls-2" d="M571.28,417.63c-53.42,7.34-93.57-4.24-119.17-14.75-18.87-7.76-44.85-18.93-73.56-15.52-23.84,2.84-59.14,25.11-59.14,25.11s17.72-81.81-35.7-171.4c-3-5.1-4.08-11.08-4-17,0,0-120.61,12.93-120.18,13.88,30.75,68.46,15.61,140.18,14.68,176.18s4.67,81.78,4.67,81.78-51.68-7.29-45.27,3.94S161,503.14,161,503.14s-7.3,12.57-1.43,14.73,15-10,15-10-2.82,10.14,9.12,12.84,15.48-4.54,14-18.26,4.59-63.28,5.65-64c1.51-1,75.73,8.41,75.73,8.41l-1.3,58.51s-40.86,4.52-37,11,24-.08,24-.08-15.79,9.09-7,12.79,18.57-4,18.57-4c-7,19.52,23.74,11.53,20.85-7l8.26-74.32s24.77,50.63,80.79,57.11C456,509,554.61,461.05,588.13,433.38,622.61,404.93,609.86,412.32,571.28,417.63Z"/><path class="cls-2" d="M290.63,218.9s5.24,3.17,10.6,7.19c8.83,6.6,10.6,23.32,12,10.63s-8.65-29.52-8.65-29.52,7.86-4.67,28,7.52c13.16,8-8-27.15-8-27.15s17.81,5.55,29.34,10c5.84,2.25-23.33-35-23.33-35s-.13-2.41,5.53-12.62c2.82-5.06,3.71-24.06,3.71-24.06s23.93-31.56,32.51-44,14.43-28,14.43-28-40.15,8-61.43,15.14a168.1,168.1,0,0,0-30.12,14.29s3.54-9.63-29-29.32c-13.54-8.21-64.87-17.94-91.35-17.87-20.6.05-72.74-15.71-82.23-18.53C76.36,12.83,22.57-.07,17.07,10.58S18.88,36.7,40.46,64.32c21.18,27.1,104.34,90.31,110.35,145.57l33.63,37.88,90.4-5.37C280,229.36,290.63,218.9,290.63,218.9Z"/><path class="cls-2" d="M187.64,265.5s-9.54,20.39-16.06,33.56-16.08,21.26-20.06,23.32-25.65.65-24.91,8.5c.48,5,11,6.34,11,6.34s-5.42,6.35-5.08,11.64c.5,7.9,14.39-1.53,14.39-1.53s-11,17.08,1.12,20.56c7.33,2.1,15.55-8.88,21.12-33.63,5.38-23.87,35-56.86,35-56.86"/><path class="cls-3" d="M168.86,281.16c6.72,61.68,9.15,69.78,1.34,131.47,17.05,2.23,45.41,3.65,61.58,6.84,2.49-10.27,2.78-21.41,2.33-32.38-3.88-94.59-27.29-122.48-38.42-149.89-7-17.29-36.56-57.62-66.31-76.47C142.88,183.6,165.92,254.14,168.86,281.16Z"/><path d="M36.72,3.83C18.65.29-6-5.32,1.32,11.39c8.8,20.12,31.76,43.19,31.76,43.19S56.56,22.18,58.53,9.12C58.53,9.12,43.29,5.12,36.72,3.83Z"/><path class="cls-3" d="M300.3,89.07s43.75-15.74,42.59-11.67-17.56,34-17.56,34-8.65-9.93-12.21-12.64S300.3,89.07,300.3,89.07Z"/><path class="cls-3" d="M304.13,44.86c2.83-.12,1.9,3.46-.79,9.3s-10.23,21.48-10.23,21.48L273.26,60.16S301.32,45,304.13,44.86Z"/><path class="cls-3" d="M239.71,104.87C233.43,117,216,121,201.45,113.7c-10.89-5.48-17.49-23.2-2.78-36.32,13.48-12,24.12-10.54,34.67-3.35C243.4,80.88,246,92.71,239.71,104.87Z"/><path d="M215.53,81.28a4.1,4.1,0,0,0,1.85,5.55A4.21,4.21,0,0,0,223,85a4.11,4.11,0,0,0-1.85-5.56A4.22,4.22,0,0,0,215.53,81.28Z"/><path d="M210.64,381.53s3.7-92.17,15.7-109.46c16.39-23.57,66.06-20.17,66.06-20.17l-4.06-7.22S240.19,234.61,214,271.2c-13.28,18.58-18.78,108.61-18.78,108.61Z"/><path class="cls-4" d="M265,275.81c.76-6.86-10.94-7.16-12.09-7.26-5.48-.45-22.43-2.64-36.35-13.18-27.89-21.12-22-30.36-23.7-34.49s2.45-21-2-23.52-9.3,5.47-9.3,5.47-4.78-10.61-10.18-10.9c-8-.41-1.89,12.69-2.59,15-.62,2.1-13.19-8.5-18,3-2.94,6.93,11.86,13.53,20.85,25.21,38.34,49.8,71.76,50.76,79.52,50.23C252.29,285.26,264.12,283.84,265,275.81Z"/><path class="cls-5" d="M173.66,148.42s12.47,6.85,15,18.88"/><circle cx="177.85" cy="159.76" r="16.38" transform="matrix(0.62, -0.78, 0.78, 0.62, -57.86, 199.65)"/></g></g></svg>