<svg xmlns="http://www.w3.org/2000/svg" viewBox="0 0 173.1 159.81"><defs><style>.cls-1{fill:#2fac66;}.cls-2{fill:#fff;}.cls-3{fill:none;stroke:#000;stroke-linecap:round;stroke-width:1.3px;}</style></defs><title>burbujasGrillo</title><g id="Layer_2" data-name="Layer 2"><g id="Layer_1-2" data-name="Layer 1"><path class="cls-1" d="M75.68,80.14a25.25,25.25,0,1,1-23-27.33A25.25,25.25,0,0,1,75.68,80.14Z"/><path class="cls-1" d="M143.87,76.14a25.25,25.25,0,1,1-23-27.33A25.25,25.25,0,0,1,143.87,76.14Z"/><path class="cls-1" d="M114,128.54a25.24,25.24,0,1,1-23-27.33A25.25,25.25,0,0,1,114,128.54Z"/><path class="cls-1" d="M173,127.38A25.25,25.25,0,1,1,150,100,25.24,25.24,0,0,1,173,127.38Z"/><path class="cls-1" d="M98.56,27.43A25.25,25.25,0,1,1,75.57.1,25.25,25.25,0,0,1,98.56,27.43Z"/><path class="cls-2" d="M45,67.15a.3.3,0,0,1,.35-.29l2.2.19a.3.3,0,0,1,.29.35L46.26,86a.19.19,0,0,0,.18.22l10.35.89a.3.3,0,0,1,.29.35l-.17,2a.3.3,0,0,1-.35.29L43.5,88.6a.3.3,0,0,1-.3-.34Z"/><path class="cls-2" d="M110.66,74c.31-3.58.62-4.86,1.1-6.09,1.37-3.26,4.22-4.75,7.89-4.43s6,2.45,6.86,4.94c.07.2,0,.36-.13.43l-2,.76a.3.3,0,0,1-.43-.2,4.93,4.93,0,0,0-4.52-3.29,4.52,4.52,0,0,0-5,2.83c-.35.77-.62,2-.9,5.3s-.24,4.56,0,5.38a4.49,4.49,0,0,0,4.42,3.64,4.62,4.62,0,0,0,4.94-2.72,11.42,11.42,0,0,0,.72-3.39.18.18,0,0,0-.18-.21l-4.22-.37a.29.29,0,0,1-.29-.34l.16-1.87a.31.31,0,0,1,.35-.29l6.94.6a.3.3,0,0,1,.29.35l-.14,1.63a18.26,18.26,0,0,1-1,4.75,7.31,7.31,0,0,1-7.83,4.51c-3.67-.32-6.2-2.27-7-5.73C110.43,78.91,110.35,77.58,110.66,74Z"/><path class="cls-2" d="M93.23,138.44c-.23,0-.31-.11-.38-.35l-3.58-9.27-4.79-.41a.17.17,0,0,0-.22.17l-.75,8.7a.3.3,0,0,1-.35.29l-2.2-.19a.29.29,0,0,1-.29-.34L82.5,116a.29.29,0,0,1,.34-.29l7.87.68c4.06.35,6.58,3.09,6.25,6.85a5.94,5.94,0,0,1-4.79,5.54L96,138.31c.11.21,0,.39-.23.37l-2.55-.22Zm.89-15.5c.2-2.27-1.19-3.73-3.72-4l-5.07-.44a.18.18,0,0,0-.21.18l-.6,6.84a.18.18,0,0,0,.18.21l5.08.44C92.3,126.42,93.93,125.22,94.12,122.94Z"/><path class="cls-2" d="M142.87,113.86a.3.3,0,0,1,.35-.29l2.2.19a.29.29,0,0,1,.29.34l-1.6,18.57a.17.17,0,0,0,.17.21l10.35.9a.3.3,0,0,1,.29.35l-.17,2a.3.3,0,0,1-.35.29l-13.06-1.13a.29.29,0,0,1-.29-.35Z"/><path class="cls-2" d="M65.41,31.48c-.3-1.28-.34-2.6,0-6.19s.58-4.89,1.1-6.09c1.41-3.26,4.18-4.76,7.82-4.44s6.15,2.27,7,5.72c.3,1.28.37,2.6.06,6.19s-.59,4.89-1.12,6.09C78.81,36,76,37.51,72.36,37.2S66.24,34.93,65.41,31.48Zm12.09.24a18.86,18.86,0,0,0,.94-5.3,19.59,19.59,0,0,0,0-5.38,4.93,4.93,0,0,0-9.23-.8,19,19,0,0,0-1,5.3,19,19,0,0,0,0,5.38,4.93,4.93,0,0,0,9.23.8Z"/><path class="cls-3" d="M71.12,108.92s13.69,14.6,20.7,21,17.33,17,17.33,17"/><path class="cls-3" d="M71.74,147.67s12.94-13.83,19.34-20.84,18-17.83,18-17.83"/><path class="cls-3" d="M23.68,80.16s19.79-3,29-5.19,23.81-4.68,23.81-4.68"/><path class="cls-3" d="M56,101.56S51.9,83.05,49.73,73.8s-4.51-24.93-4.51-24.93"/><path class="cls-1" d="M50.42,136.74a25.25,25.25,0,1,1-23-27.33A25.25,25.25,0,0,1,50.42,136.74Z"/><path class="cls-2" d="M24.69,124.64a.31.31,0,0,1,.35-.29l2.2.19a.3.3,0,0,1,.29.35L25.71,146a.31.31,0,0,1-.35.29l-2.2-.19a.3.3,0,0,1-.29-.35Z"/><path class="cls-3" d="M49.54,146.66s-17.72-9.31-26.44-13S1.16,123.23,1.16,123.23"/><path class="cls-3" d="M36.26,110.24s-7.7,17.31-11.46,26S13.62,159,13.62,159"/><path class="cls-3" d="M132.51,147.48s12-16,17-24.09,13.67-20.06,13.67-20.06"/><path class="cls-3" d="M170.54,140s-15.9-10.3-23.93-15.38-20.72-14.58-20.72-14.58"/><path class="cls-3" d="M53.3,5.14S67,19.74,74,26.14s17.32,17,17.32,17"/><path class="cls-3" d="M53.93,43.9S66.88,30.07,73.28,23.06s18-17.83,18-17.83"/><path class="cls-3" d="M99.72,54.57s13.69,14.6,20.7,21,17.32,17,17.32,17"/><path class="cls-3" d="M100.35,93.33s13-13.83,19.35-20.84,18-17.83,18-17.83"/></g></g></svg>