<svg xmlns="http://www.w3.org/2000/svg" viewBox="0 0 229.82 165.44"><defs><style>.cls-1{fill:#2fac66;}.cls-2{fill:#fff;}</style></defs><title>burbujasGuitarrero</title><g id="Layer_2" data-name="Layer 2"><g id="Layer_1-2" data-name="Layer 1"><path class="cls-1" d="M50.49,93A25.25,25.25,0,1,1,25.25,67.74,25.25,25.25,0,0,1,50.49,93Z"/><path class="cls-1" d="M111.79,86.52A25.25,25.25,0,1,1,86.54,61.27,25.26,25.26,0,0,1,111.79,86.52Z"/><path class="cls-1" d="M75.74,38.38A25.25,25.25,0,1,1,50.49,13.13,25.25,25.25,0,0,1,75.74,38.38Z"/><path class="cls-1" d="M87,140.19A25.25,25.25,0,1,1,61.7,114.94,25.26,25.26,0,0,1,87,140.19Z"/><path class="cls-1" d="M146.24,136.27A25.25,25.25,0,1,1,121,111,25.25,25.25,0,0,1,146.24,136.27Z"/><path class="cls-1" d="M206.3,129.61a25.25,25.25,0,1,1-25.24-25.25A25.24,25.24,0,0,1,206.3,129.61Z"/><path class="cls-1" d="M229.82,72.32a25.25,25.25,0,1,1-25.24-25.25A25.25,25.25,0,0,1,229.82,72.32Z"/><path class="cls-1" d="M193.19,25.25A25.25,25.25,0,1,1,167.94,0,25.24,25.24,0,0,1,193.19,25.25Z"/><path class="cls-1" d="M170.1,79.84a25.25,25.25,0,1,1-25.25-25.25A25.25,25.25,0,0,1,170.1,79.84Z"/><path class="cls-1" d="M134.11,31.88A25.25,25.25,0,1,1,108.86,6.63,25.25,25.25,0,0,1,134.11,31.88Z"/><path class="cls-2" d="M24.21,105.48a.3.3,0,0,1-.32-.32V86.52a.17.17,0,0,0-.19-.19h-6a.3.3,0,0,1-.32-.32V84a.3.3,0,0,1,.32-.32H32.91a.3.3,0,0,1,.32.32v2a.3.3,0,0,1-.32.32h-6a.18.18,0,0,0-.2.19v18.64a.29.29,0,0,1-.32.32Z"/><path class="cls-2" d="M92,97.23c-.23,0-.32-.09-.41-.32L87.2,88H82.39a.18.18,0,0,0-.2.2v8.73a.29.29,0,0,1-.32.32H79.66a.3.3,0,0,1-.32-.32V75.74a.3.3,0,0,1,.32-.32h7.89c4.08,0,6.83,2.5,6.83,6.29a6,6,0,0,1-4.3,5.94l4.65,9.21c.13.19,0,.39-.19.39H92Zm-.46-15.54c0-2.28-1.51-3.61-4-3.61h-5.1a.18.18,0,0,0-.2.19v6.86a.18.18,0,0,0,.2.2h5.1C90,85.33,91.51,84,91.51,81.69Z"/><path class="cls-2" d="M42.49,38.18c0-3.6.2-4.9.57-6.16,1.09-3.37,3.8-5.1,7.49-5.1a7.47,7.47,0,0,1,7.25,4.33c.09.2.07.36-.09.45l-1.92.92a.3.3,0,0,1-.45-.16,4.9,4.9,0,0,0-4.77-2.88,4.51,4.51,0,0,0-4.73,3.24c-.28.8-.44,2-.44,5.36s.16,4.56.44,5.37a4.52,4.52,0,0,0,4.73,3.24,4.63,4.63,0,0,0,4.68-3.14,11.49,11.49,0,0,0,.43-3.44.18.18,0,0,0-.2-.19H51.24a.3.3,0,0,1-.32-.32V37.83a.3.3,0,0,1,.32-.32h7a.3.3,0,0,1,.32.32v1.64A18.29,18.29,0,0,1,58,44.28a7.31,7.31,0,0,1-7.41,5.16c-3.69,0-6.38-1.72-7.49-5.09C42.69,43.1,42.49,41.78,42.49,38.18Z"/><path class="cls-2" d="M54,145.09v-13.9a.3.3,0,0,1,.32-.32h2.21a.3.3,0,0,1,.32.32v13.86c0,3.53,2,5.33,4.88,5.33s4.84-1.8,4.84-5.33V131.19a.3.3,0,0,1,.32-.32h2.21a.31.31,0,0,1,.33.32v13.9c0,5.13-2.93,8-7.7,8S54,150.22,54,145.09Z"/><path class="cls-2" d="M126.45,147c-.23,0-.32-.09-.41-.32l-4.37-8.93h-4.81a.18.18,0,0,0-.19.2v8.73a.3.3,0,0,1-.32.32h-2.21a.3.3,0,0,1-.32-.32V125.49a.29.29,0,0,1,.32-.32H122c4.08,0,6.84,2.49,6.84,6.29a5.94,5.94,0,0,1-4.29,5.93l4.65,9.21c.12.2,0,.4-.2.4h-2.58ZM126,131.46c0-2.28-1.51-3.62-4-3.62h-5.1a.18.18,0,0,0-.19.2v6.86a.17.17,0,0,0,.19.19h5.1C124.49,135.08,126,133.74,126,131.46Z"/><path class="cls-2" d="M174.71,118.83a.3.3,0,0,1,.33-.32h13.11a.3.3,0,0,1,.32.32v2a.3.3,0,0,1-.32.32H177.76a.18.18,0,0,0-.19.2v6.41a.18.18,0,0,0,.19.2h8.82a.29.29,0,0,1,.32.32v2a.29.29,0,0,1-.32.32h-8.82a.18.18,0,0,0-.19.2v6.64a.18.18,0,0,0,.19.2h10.39a.3.3,0,0,1,.32.32v2a.31.31,0,0,1-.32.33H175a.31.31,0,0,1-.33-.33Z"/><path class="cls-2" d="M197.06,78.29c-.43-1.25-.57-2.57-.57-6.16s.16-4.92.57-6.17c1.12-3.37,3.76-5.1,7.41-5.1s6.32,1.73,7.45,5.1c.41,1.25.57,2.57.57,6.17s-.16,4.91-.57,6.16c-1.13,3.37-3.76,5.1-7.45,5.1S198.18,81.66,197.06,78.29Zm12.06-.8a19,19,0,0,0,.48-5.36,19.16,19.16,0,0,0-.48-5.37,4.94,4.94,0,0,0-9.27,0,19.05,19.05,0,0,0-.48,5.37,19,19,0,0,0,.48,5.36,4.94,4.94,0,0,0,9.27,0Z"/><path class="cls-2" d="M173.38,36c-.23,0-.32-.09-.41-.32l-4.37-8.93h-4.81a.17.17,0,0,0-.19.19v8.74a.31.31,0,0,1-.33.32h-2.2a.31.31,0,0,1-.33-.32V14.47a.3.3,0,0,1,.33-.32H169c4.08,0,6.84,2.49,6.84,6.29a5.94,5.94,0,0,1-4.29,5.93l4.65,9.21c.12.2,0,.39-.2.39h-2.58Zm-.45-15.52c0-2.28-1.51-3.62-4-3.62h-5.1a.18.18,0,0,0-.19.2v6.86a.17.17,0,0,0,.19.19h5.1C171.42,24.05,172.93,22.72,172.93,20.44Z"/><path class="cls-2" d="M143.43,69.06a.29.29,0,0,1,.32-.32H146a.3.3,0,0,1,.32.32V90.23a.3.3,0,0,1-.32.32h-2.21a.3.3,0,0,1-.32-.32Z"/><path class="cls-2" d="M107.47,21.1c.07-.2.16-.33.38-.33h2.08a.43.43,0,0,1,.43.33l7.46,21.16c.08.2,0,.32-.23.32h-2.24a.36.36,0,0,1-.41-.32l-1.68-4.75h-8.8l-1.67,4.75a.43.43,0,0,1-.43.32h-2.25c-.19,0-.28-.12-.23-.32Zm4.87,13.79L108.9,25h-.07l-3.46,9.91Z"/></g></g></svg>