<svg xmlns="http://www.w3.org/2000/svg" viewBox="0 0 212.56 164.85"><defs><style>.cls-1{fill:#c4c0b4;}.cls-2{fill:#fff;}</style></defs><title>burbujasPajaro</title><g id="Layer_2" data-name="Layer 2"><g id="Layer_1-2" data-name="Layer 1"><path class="cls-1" d="M50.51,93.51A25.26,25.26,0,1,1,25.25,68.26,25.25,25.25,0,0,1,50.51,93.51Z"/><path class="cls-1" d="M111.48,85.44A25.26,25.26,0,1,1,86.22,60.19,25.24,25.24,0,0,1,111.48,85.44Z"/><path class="cls-1" d="M79.61,38.88A25.25,25.25,0,1,1,54.36,13.63,25.26,25.26,0,0,1,79.61,38.88Z"/><path class="cls-1" d="M91.53,139.6a25.25,25.25,0,1,1-25.25-25.24A25.26,25.26,0,0,1,91.53,139.6Z"/><path class="cls-1" d="M212.56,117a25.25,25.25,0,1,1-25.25-25.25A25.26,25.26,0,0,1,212.56,117Z"/><path class="cls-1" d="M153.94,133.05a25.25,25.25,0,1,1-25.25-25.25A25.24,25.24,0,0,1,153.94,133.05Z"/><path class="cls-1" d="M170.37,75.85A25.25,25.25,0,1,1,145.12,50.6,25.26,25.26,0,0,1,170.37,75.85Z"/><path class="cls-1" d="M139.76,25.25A25.25,25.25,0,1,1,114.51,0,25.26,25.26,0,0,1,139.76,25.25Z"/><path class="cls-2" d="M19.31,82.35a.3.3,0,0,1,.32-.32h2.21a.3.3,0,0,1,.32.32V101a.18.18,0,0,0,.2.2H32.75a.3.3,0,0,1,.32.32v2a.3.3,0,0,1-.32.32H19.63a.3.3,0,0,1-.32-.32Z"/><path class="cls-2" d="M78.93,74.27a.3.3,0,0,1,.32-.33h7.34c3.69,0,6.13,1.57,7.13,4.66.39,1.19.57,2.36.57,6.25s-.2,5.08-.57,6.25c-1,3.08-3.44,4.65-7.13,4.65H79.25a.29.29,0,0,1-.32-.32ZM82,93.1h4c2.64,0,4.26-.87,5-3,.28-.8.44-1.85.44-5.25s-.16-4.46-.44-5.26c-.72-2.12-2.34-3-5-3H82a.18.18,0,0,0-.2.19V92.94C81.78,93.05,81.85,93.1,82,93.1Z"/><path class="cls-2" d="M59.79,49.21c-.23,0-.32-.09-.41-.32L55,40H50.21a.18.18,0,0,0-.2.19v8.73a.29.29,0,0,1-.32.32H47.48a.3.3,0,0,1-.32-.32V27.73a.31.31,0,0,1,.32-.33h7.89c4.08,0,6.83,2.5,6.83,6.29a6,6,0,0,1-4.3,5.94l4.66,9.21c.12.2,0,.39-.2.39H59.79Zm-.44-15.53c0-2.29-1.52-3.62-4.05-3.62H50.21a.18.18,0,0,0-.2.2v6.85a.18.18,0,0,0,.2.2H55.3C57.85,37.31,59.35,36,59.35,33.68Z"/><path class="cls-2" d="M58.92,140.07c0-3.62.16-4.89.57-6.13,1.09-3.44,3.69-5.14,7.25-5.14a7.27,7.27,0,0,1,7,4.41.3.3,0,0,1-.13.41l-1.92.92a.32.32,0,0,1-.45-.16,4.78,4.78,0,0,0-4.49-2.92,4.38,4.38,0,0,0-4.52,3.21c-.29.89-.41,2-.41,5.38s.12,4.49.41,5.4a4.38,4.38,0,0,0,4.52,3.2,4.75,4.75,0,0,0,4.49-2.92.33.33,0,0,1,.45-.16l1.92.93a.3.3,0,0,1,.13.41,7.28,7.28,0,0,1-7,4.4c-3.56,0-6.16-1.69-7.25-5.13C59.08,145,58.92,143.7,58.92,140.07Z"/><path class="cls-2" d="M181,105.82a.29.29,0,0,1,.32-.32H194.4a.29.29,0,0,1,.32.32v2a.29.29,0,0,1-.32.32H184a.18.18,0,0,0-.2.2v6.42a.18.18,0,0,0,.2.19h8.82a.3.3,0,0,1,.32.32v2a.3.3,0,0,1-.32.32H184a.18.18,0,0,0-.2.19v6.65a.18.18,0,0,0,.2.19H194.4a.3.3,0,0,1,.32.32v2a.3.3,0,0,1-.32.32H181.29A.3.3,0,0,1,181,127Z"/><path class="cls-2" d="M120.91,121.89a.3.3,0,0,1,.32-.32h2a.54.54,0,0,1,.55.32l9.87,16.36h.12V121.89a.31.31,0,0,1,.33-.32h2a.3.3,0,0,1,.32.32v21.17a.3.3,0,0,1-.32.32h-2a.56.56,0,0,1-.55-.32l-9.91-16.3h-.09v16.3a.29.29,0,0,1-.32.32h-2a.29.29,0,0,1-.32-.32Z"/><path class="cls-2" d="M143.71,64.68c.07-.2.16-.32.38-.32h2.08a.42.42,0,0,1,.43.32l7.48,21.17c.07.19,0,.32-.23.32H151.6a.35.35,0,0,1-.4-.32l-1.68-4.76H140.7L139,85.85a.44.44,0,0,1-.43.32h-2.25c-.19,0-.28-.13-.23-.32Zm4.88,13.79-3.43-9.91h-.08l-3.47,9.91Z"/><path class="cls-2" d="M113.12,14.09c.07-.19.16-.32.38-.32h2.08a.43.43,0,0,1,.43.32l7.46,21.17c.07.2,0,.32-.23.32H121a.36.36,0,0,1-.41-.32l-1.68-4.76h-8.8l-1.67,4.76a.44.44,0,0,1-.43.32h-2.25c-.19,0-.28-.12-.23-.32ZM118,27.89,114.55,18h-.07L111,27.89Z"/></g></g></svg>