<?xml version="1.0" encoding="UTF-8" standalone="no"?>
<svg
   viewBox="0 0 250 150"
   version="1.1"
   id="svg194"
   sodipodi:docname="grillo.svg"
   width="250"
   height="150"
   inkscape:version="1.2.1 (9c6d41e410, 2022-07-14)"
   xmlns:inkscape="http://www.inkscape.org/namespaces/inkscape"
   xmlns:sodipodi="http://sodipodi.sourceforge.net/DTD/sodipodi-0.dtd"
   xmlns="http://www.w3.org/2000/svg"
   xmlns:svg="http://www.w3.org/2000/svg"
   xmlns:rdf="http://www.w3.org/1999/02/22-rdf-syntax-ns#"
   xmlns:cc="http://creativecommons.org/ns#"
   xmlns:dc="http://purl.org/dc/elements/1.1/">
  <sodipodi:namedview
     id="namedview196"
     pagecolor="#ffffff"
     bordercolor="#000000"
     borderopacity="0.25"
     inkscape:showpageshadow="2"
     inkscape:pageopacity="0.0"
     inkscape:pagecheckerboard="0"
     inkscape:deskcolor="#d1d1d1"
     showgrid="false"
     inkscape:zoom="1.7665006"
     inkscape:cx="82.649278"
     inkscape:cy="84.630597"
     inkscape:window-width="1920"
     inkscape:window-height="1018"
     inkscape:window-x="-8"
     inkscape:window-y="-8"
     inkscape:window-maximized="1"
     inkscape:current-layer="svg194" />
  <defs
     id="defs152">
    <style
       id="style150">.cls-1{fill:#814114;}.cls-2{fill:#db7a1c;}.cls-3{fill:#f39200;}.cls-4{fill:#a85318;}.cls-5{fill:#fff;}.cls-6,.cls-7{fill:none;stroke-linecap:round;}.cls-6{stroke:#000;stroke-width:0.64px;}.cls-7{stroke:#db7a1c;stroke-width:0.91px;}</style>
  </defs>
  <title
     id="title154">grillo</title>
  <g
     id="Layer_2"
     data-name="Layer 2"
     transform="matrix(0.78689757,0,0,0.74654102,65.10079,14.718365)">
    <g
       id="Layer_1-2"
       data-name="Layer 1">
      <path
         d="M 54.46,33.71 C 53.59,34 53,32.13 52.38,31 58.63,21 67.57,12.53 79.15,13.38 c -6.31,2.14 -11.26,4.34 -16,9.11 -2.02,1.68 -6.6,7.68 -8.69,11.22 z"
         id="path156" />
      <path
         d="M 44.26,27.49 C 45.36,18.29 50,4.41 59.19,0 c -3.13,4.5 -4.87,6.75 -7.57,12.83 -2.09,4.68 -3.54,12.64 -3.86,16.42 -1.49,-0.75 -3.5,0.07 -3.5,-1.76 z"
         id="path158" />
      <path
         class="cls-1"
         d="m 104.74,93.8 c 4.35,8.9 5.62,47.08 6.29,53.93 0.75,7.62 0,9.26 3.75,9.49 6.4,0.38 10.45,3.52 2.09,3.79 -3.15,0.28 -6.76,1 -9.7,-0.43 -1.41,-8 -2.35,-19.92 -3.57,-31.39 -0.52,-5 -0.25,-26.12 -4.06,-28.72 -7.87,-5.93 -19.67,16 -24.05,20.25 -3.57,3.34 -10.3,8.11 -9.95,0.53 0.21,-4.14 5,-9.26 7.52,-12.4 2.08,-2.5 24.38,-30.28 31.68,-15.05 z"
         id="path160" />
      <path
         class="cls-1"
         d="m 110.15,137.16 a 15.85,15.85 0 0 1 3.78,1.47 6.58,6.58 0 0 1 1.36,1.07 11.18,11.18 0 0 0 -2.57,-0.6 c -0.94,0 -0.85,0.52 -0.85,0.52 a 12.1,12.1 0 0 1 2.34,1 9.09,9.09 0 0 1 1.88,1.93 34.14,34.14 0 0 0 -3.3,-1.24 c -1,-0.23 -1.16,0.35 -1.16,0.35 a 12.38,12.38 0 0 1 3.72,2.26 8.87,8.87 0 0 1 1.21,1.67 8.85,8.85 0 0 0 -3.82,-1.81 c -2.47,-0.54 -2.78,0.16 -2.78,0.16 z"
         id="path162" />
      <path
         class="cls-1"
         d="m 133.27,126.92 c 9.1,-1.3 18,-3.68 25.38,-9.56 -4.41,11.78 -16.06,12.64 -25.65,14.15 6,4.18 23.94,0.66 31.7,-1.63 -5,6.26 -14.9,7.37 -20.05,7.37 -3.68,0 -10.29,-0.37 -13.23,-2.58 -3.68,-2.96 -3.31,-7 1.85,-7.75 z"
         id="path164" />
      <path
         class="cls-1"
         d="m 10.67,69.76 c 5,3.72 8.48,3.86 13.52,5.09 2.5,0.62 1.38,0.24 2.2,2.73 1.23,4.73 5.11,15 6.41,19.77 2.2,8.33 4.75,18.85 10.71,26.65 3.09,4.32 16.35,13.84 21.7,16.31 7.41,3.5 22,6.9 32.41,5.88 12.54,-1.23 23.26,-6 32.52,-12.16 2.26,-1.65 5.11,-4.4 5.73,-7.49 1,-3.7 -7.64,-7.35 -10.3,-9.2 -2.88,-2.26 -16,-9.4 -18.09,-11 C 101.92,101.61 83.84,84.1 80.15,78.95 76.23,73.8 74.38,67.21 71.1,61.66 68.22,56.9 66,52 62.67,47.42 A 15.18,15.18 0 0 0 58.87,43.2 C 57.05,30.2 49.66,26.81 44.13,25.71 36.41,24.06 25.82,30.48 19.32,34 2.82,42.89 -9.38,63.19 10.67,69.76 Z"
         id="path166" />
      <path
         class="cls-2"
         d="m 52.38,75 c 3.8,9.9 18,39 36,49.31 7.36,4 16.19,5.89 25,6.62 4.78,0.36 19.12,1.83 23.16,-2.58 4,-5.15 -14.34,-14.35 -18.74,-17.67 -9.19,-7.36 -25.4,-18.45 -32.72,-28 C 75.63,70.41 71.9,61.19 69.31,58.53 66.35,55.53 50.29,69.67 52.38,75 Z"
         id="path168" />
      <path
         class="cls-3"
         d="M 25.35,78.85 A 193.73,193.73 0 0 0 61.21,54.34 c 1,-0.82 2.06,-2.27 3.08,-2.89 2.26,-1.43 1.43,-1.23 3.5,0.42 2.88,2.27 4.93,5.35 3.69,8.43 -1.43,3.09 -5.47,4.81 -7.81,7 -6.54,6.11 -28.8,18.14 -31.88,19 -2.68,0.81 -2.9,1 -3.92,-1 a 21.51,21.51 0 0 1 -2.52,-6.45 z"
         id="path170" />
      <path
         class="cls-4"
         d="m 112.63,96.63 c 5.89,8.83 12.69,49.14 14.39,56.29 1.89,8 1.29,9.82 5.33,9.53 6.85,-0.51 11.58,2.25 2.75,3.72 -3.29,0.74 -7,2 -10.35,0.92 -2.62,-8.27 -5.34,-20.79 -8.26,-32.78 -1.27,-5.21 -4,-27.67 -8.41,-29.88 -9.19,-5.16 -18.56,19.77 -22.62,24.92 -3.3,4.05 -9.75,10.07 -10.48,2 -0.36,-4.41 4,-10.54 6.2,-14.2 1.82,-2.94 21.52,-35.6 31.45,-20.52 z"
         id="path172" />
      <path
         class="cls-4"
         d="m 38.17,97.32 c -11.13,0 -16.55,-3.69 -25.74,-9.95 -4.79,-3.3 -6,-5.33 -9.72,-0.18 -2.19,2.94 -5.14,9.56 0.75,8.09 1.47,-0.36 1.1,-4 3.31,-4.4 1.83,-0.37 13.6,8.09 18,9.19 a 35,35 0 0 0 12.49,1.47 c 4.08,-0.74 7.9,-4.22 0.91,-4.22 z"
         id="path174" />
      <path
         class="cls-5"
         d="m 39.69,33.71 c -8.64,8 1.07,20.9 10.84,11.7 C 58.83,37.63 46.94,27 39.69,33.71 Z"
         id="path176" />
      <path
         class="cls-4"
         d="M 51.64,118.47 C 48,126 37.42,132.55 24.17,128.14 c -4.78,-1.83 -10.49,-3.94 -12.9,2.76 -2.48,6.89 -1,8 0.42,8.63 2.28,1 3.19,-2 5.38,-8.16 5.18,0.45 11,3.14 16.86,3.26 13.66,0.28 27.75,-16.12 24.9,-21 -2.59,-4.41 -5.22,0.72 -7.19,4.84 z"
         id="path178" />
      <path
         class="cls-6"
         d="m 11.83,69.59 a 13.57,13.57 0 0 0 6,-1.32 c 4.14,-1.92 5.26,-7.73 5.26,-7.73"
         id="path180" />
      <path
         d="m 42.08,36.81 a 1.69,1.69 0 0 0 -1.5,1.38 1.33,1.33 0 0 0 1.42,1.41 1.62,1.62 0 0 0 1.56,-1.75 1.13,1.13 0 0 0 -1.48,-1.04 z"
         id="path182" />
      <path
         class="cls-4"
         d="m 124.57,141.85 a 17.6,17.6 0 0 1 4.23,1 6.51,6.51 0 0 1 1.59,0.95 11.21,11.21 0 0 0 -2.81,-0.26 c -1,0.11 -0.83,0.67 -0.83,0.67 a 13.36,13.36 0 0 1 2.63,0.71 9.43,9.43 0 0 1 2.26,1.78 36.18,36.18 0 0 0 -3.68,-0.84 c -1.12,-0.11 -1.18,0.53 -1.18,0.53 a 13.38,13.38 0 0 1 4.26,1.87 8.72,8.72 0 0 1 1.53,1.59 9.45,9.45 0 0 0 -4.34,-1.36 c -2.68,-0.21 -2.91,0.57 -2.91,0.57 z"
         id="path184" />
      <path
         class="cls-7"
         d="m 35.56,108.18 c 11.71,0.58 22.18,-5.62 29.4,-13.35"
         id="path186" />
      <path
         class="cls-7"
         d="m 53.9,133.16 c 12.63,0.1 23.26,-8.87 27.93,-18.83"
         id="path188" />
      <path
         class="cls-7"
         d="m 89.08,146.21 c 7.76,-2.74 14.41,-15.28 14.41,-26.18"
         id="path190" />
    </g>
  </g>
  <metadata
     id="metadata270">
    <rdf:RDF>
      <cc:Work
         rdf:about="">
        <dc:title>grillo</dc:title>
      </cc:Work>
    </rdf:RDF>
  </metadata>
</svg>
