<?xml version="1.0" encoding="UTF-8" standalone="no"?>
<svg
   viewBox="0 0 188.41 112.82"
   version="1.1"
   id="svg230"
   sodipodi:docname="guitarrero.svg"
   inkscape:version="1.2.1 (9c6d41e410, 2022-07-14)"
   xmlns:inkscape="http://www.inkscape.org/namespaces/inkscape"
   xmlns:sodipodi="http://sodipodi.sourceforge.net/DTD/sodipodi-0.dtd"
   xmlns="http://www.w3.org/2000/svg"
   xmlns:svg="http://www.w3.org/2000/svg">
  <sodipodi:namedview
     id="namedview232"
     pagecolor="#ffffff"
     bordercolor="#000000"
     borderopacity="0.25"
     inkscape:showpageshadow="2"
     inkscape:pageopacity="0.0"
     inkscape:pagecheckerboard="0"
     inkscape:deskcolor="#d1d1d1"
     showgrid="false"
     inkscape:zoom="6.4221643"
     inkscape:cx="94.205002"
     inkscape:cy="56.445146"
     inkscape:window-width="1920"
     inkscape:window-height="1018"
     inkscape:window-x="-8"
     inkscape:window-y="-8"
     inkscape:window-maximized="1"
     inkscape:current-layer="svg230" />
  <defs
     id="defs200">
    <style
       id="style198">.cls-1{fill:#e30613;}.cls-2{fill:#fff;}.cls-3{fill:#b91919;}.cls-4{fill:none;stroke:#000;stroke-linecap:round;stroke-width:0.64px;}</style>
  </defs>
  <title
     id="title202">guitarrero</title>
  <g
     id="Layer_2"
     data-name="Layer 2"
     transform="matrix(0.69340505,0,0,0.65350224,25.536563,20.249199)">
    <g
       id="Layer_1-2"
       data-name="Layer 1">
      <path
         class="cls-1"
         d="M 21.21,16.73 A 34.15,34.15 0 0 1 33,4 14,14 0 0 1 46.89,3.2 C 50.8,5.28 51,11.05 51.41,14.86 53,30.21 48.05,46.39 46.62,61.42 a 0.85,0.85 0 0 0 1.69,0.12 c 1,-10.53 4.23,-22.9 5,-33.5 0.47,-6.4 1.44,-18.33 -3,-23.74 -4.67,-5.76 -12.1,-5 -18.1,-1.86 -4.6,2.45 -11.1,9.42 -12.66,14.47 a 0.91,0.91 0 0 0 0.32,1 C 20,18 20.54,18.14 21.21,16.73 Z"
         id="path204" />
      <path
         class="cls-1"
         d="m 1.72,56 c 0.42,-12.24 20.4,-41.07 34.16,-27.38 5,5 7,13.81 6.54,20.58 -0.18,2.93 -1.48,10.86 -0.08,13.63 a 0.85418089,0.85418089 0 0 0 1.53,-0.76 c -1.35,-2.62 0.14,-11.23 0.32,-14 a 29.42,29.42 0 0 0 -1.83,-11 C 40.67,31.95 37.12,24.99 31.17,23.89 23.42,22.4 18.26,26 13,31.38 7.2,37.35 0.31,47.29 0,55.88 0,57 1.67,57.08 1.72,56 Z"
         id="path206" />
      <path
         d="M 47.64,3.38 A 9.57,9.57 0 0 0 42.9,9.44 c -1.53,4.85 3.63,10 7.74,9.88 C 56.8,19.23 61.31,14.63 59.78,8.02 58.25,1.41 51,1.44 47.64,3.38 Z"
         id="path208" />
      <path
         d="M 13.63,26.37 C 6.88,27.23 2.53,36 7.09,42.09 c 3.45,4.62 9.34,3.37 12.54,1.53 3,-1.85 3.75,-5.52 3.66,-9.27 -0.11,-4.1 -4.74,-8.61 -9.66,-7.98 z"
         id="path210" />
      <path
         class="cls-1"
         d="m 81.15,61.49 a 126.75,126.75 0 0 0 -13.22,0 c -4.11,0.18 -7.83,1.29 -11.9,1 -5,-0.34 -8,-2.82 -12.93,-4.08 -11.21,-2.59 -18,3.35 -23.2,13 -3.14,6.16 -9.88,18 -8.14,25.88 1.78,7.42 3.85,3.9 7.31,-0.42 C 23,92.62 24,91.32 30,90.37 a 179.56,179.56 0 0 1 27.5,-2.69 c 11.57,-0.65 23.11,0.46 34.66,1.06 7,0.36 14,0.32 21,0.79 4.87,0.32 9.77,0.39 14.64,0.45 5.87,0.07 11.74,-0.17 17.59,-0.09 3.56,0 7.15,-0.15 10.72,-0.27 2.88,-0.09 5.7,-0.38 8.53,-0.7 4.82,-0.58 21.93,-0.22 23.65,-5.94 1.72,-5.72 -14.09,-11 -18.49,-12.72 -12.86,-5 -27,-5.48 -40.59,-6 C 113.29,64.08 95.58,63.34 80.75,60.5"
         id="path212" />
      <path
         class="cls-2"
         d="m 38.61,61.33 c -7.27,-0.94 -13.88,8.79 -7.35,14.2 4.28,3.73 10.06,1.33 12.31,-3.28 2.96,-5.41 -2.41,-10.82 -4.96,-10.92 z"
         id="path214" />
      <path
         d="m 35.23,67.49 c -1.6,-0.2 -3,1.92 -1.61,3.11 a 1.78,1.78 0 1 0 1.61,-3.11 z"
         id="path216" />
      <path
         d="M 76.79,61.87 C 77.31,71 79,77.41 88.66,79 c 9.91,1.58 27.13,4.62 37,3.91 11.89,-0.79 23.6,2.38 35.54,1.14 a 264.1,264.1 0 0 1 27.22,-1.8 c -1.92,-5.14 -7.16,-8.47 -11,-11.92 -3.88,-3.21 -7.78,-6.22 -12.12,-9.25 -9.79,-6.82 -20.45,-7.32 -31.71,-9.22 -11.48,-1.93 -22.61,-2.45 -34.16,0 -6.7,1.37 -19,2.35 -22.48,9.18 l -0.63,0.17 z"
         id="path218" />
      <path
         class="cls-3"
         d="m 63.46,102.31 c 0.38,-5.49 1.08,-11.09 3.27,-16.27 0.57,-1.13 1.63,-4.39 3.41,-3.77 1.31,0.43 0.61,3.37 1.69,4.44 1.54,1.77 3.11,0.88 3.59,-1.26 0.27,-1.64 -0.77,-3.38 -1.49,-4.93 -4.18,-9.45 -9.82,0 -11.37,5.56 C 61,92 60.23,98.41 58.18,104.1 c -2.06,-1.47 -5.37,-1.87 -7.18,0.35 -2.53,3 1.47,2.93 3.79,2.93 3.66,0.09 8.13,1.7 8.67,-5.07 z"
         id="path220" />
      <path
         class="cls-3"
         d="m 107.83,77.52 c -1.13,1.92 -9.17,15 -2.42,13.66 3.72,-0.75 3.92,-6.06 5.42,-8.63 1.35,-2.75 5.52,-7.8 9.22,-5.71 4.48,2.64 1.79,13.75 1.18,17.86 -0.54,3.13 -0.68,11 -0.63,7.82 0,0 -1.78,7 2.79,8.81 2.33,0.93 9,3.23 9.6,-0.88 0.58,-3.63 -5.17,-3.43 -7.49,-3.58 0,-4.65 0.69,-7.46 0.71,-10.44 0.05,-3.33 0,-6.83 0.19,-10.32 0.43,-6.31 -2,-17.13 -10.86,-14.23 -1.54,0.39 -6.13,3.59 -7.71,5.64 z"
         id="path222" />
      <path
         class="cls-3"
         d="m 158.65,64.47 c 9.74,1.17 7.4,13.66 6.13,20.08 -1.3,6.74 -2.79,14 -3.09,21 2.8,0.36 7.49,-2.32 9.46,0.46 2.73,4 -4.11,6.56 -6.93,6.53 -4.33,-0.13 -7.33,0 -7.67,-4.86 -0.23,-3.84 0.36,-7.8 0.63,-11.79 A 138.69,138.69 0 0 1 159.28,82 c 0.33,-2.32 2.79,-9.15 0.07,-10.82 -3,-1.71 -8.8,4.4 -10.59,6.45 -2.52,2.84 -4,6.9 -6.3,9.58 -4.15,4.73 -4.44,-3.31 -3.25,-6.06 A 23.26,23.26 0 0 1 144.4,73 c 4.13,-3.91 10.34,-9 14.25,-8.53 z"
         id="path224" />
      <path
         class="cls-4"
         d="m 24.35,91.45 c 4.76,-4.39 3.16,-8.14 3.16,-8.14"
         id="path226" />
    </g>
  </g>
</svg>
