<?xml version="1.0" encoding="UTF-8" standalone="no"?>
<svg
   viewBox="0 0 250 150"
   version="1.1"
   id="svg66"
   sodipodi:docname="pajaro.svg"
   width="250"
   height="150"
   inkscape:version="1.2.1 (9c6d41e410, 2022-07-14)"
   xmlns:inkscape="http://www.inkscape.org/namespaces/inkscape"
   xmlns:sodipodi="http://sodipodi.sourceforge.net/DTD/sodipodi-0.dtd"
   xmlns="http://www.w3.org/2000/svg"
   xmlns:svg="http://www.w3.org/2000/svg"
   xmlns:rdf="http://www.w3.org/1999/02/22-rdf-syntax-ns#"
   xmlns:cc="http://creativecommons.org/ns#"
   xmlns:dc="http://purl.org/dc/elements/1.1/">
  <sodipodi:namedview
     id="namedview68"
     pagecolor="#ffffff"
     bordercolor="#000000"
     borderopacity="0.25"
     inkscape:showpageshadow="2"
     inkscape:pageopacity="0.0"
     inkscape:pagecheckerboard="0"
     inkscape:deskcolor="#d1d1d1"
     showgrid="false"
     inkscape:zoom="1.6021016"
     inkscape:cx="97.996285"
     inkscape:cy="93.314934"
     inkscape:window-width="1920"
     inkscape:window-height="1018"
     inkscape:window-x="-8"
     inkscape:window-y="-8"
     inkscape:window-maximized="1"
     inkscape:current-layer="svg66" />
  <defs
     id="defs4">
    <style
       id="style2">.cls-1{fill:#fbba00;}.cls-2{fill:#e30613;}.cls-3{fill:#f0eedf;}.cls-4{fill:#fff;}.cls-5,.cls-7,.cls-8{fill:none;stroke:#dad8cc;stroke-linecap:round;}.cls-5{stroke-width:0.25px;}.cls-6{fill:#c4c0b4;}.cls-7{stroke-width:0.26px;}.cls-8{stroke-width:0.9px;}</style>
  </defs>
  <title
     id="title6">pajaro</title>
  <g
     id="Layer_2"
     data-name="Layer 2"
     transform="matrix(0.67897853,0,0,0.71276815,56.176215,9.3627024)">
    <g
       id="Layer_1-2"
       data-name="Layer 1">
      <path
         class="cls-1"
         d="m 104.17,157.36 c -1.22,8.11 1.28,18.2 2.18,26.4 0.14,1.27 -1.86,1.27 -2,0 -0.92,-8.36 -3.62,-18.66 -2.1,-26.93 0.23,-1.27 2.1,-0.69 1.92,0.53 z"
         id="path8" />
      <path
         class="cls-1"
         d="m 102.07,173.44 c -0.86,1.54 -1.75,3.07 -2.65,4.59 -0.62,1.06 -2.72,4 -2.86,4.46 -0.28,0.86 0,2.28 1.23,1.48 a 8.23,8.23 0 0 0 2,-2.65 c 1.39,-2.26 2.72,-4.56 4,-6.89 a 1,1 0 0 0 -1.72,-0.99 z"
         id="path10" />
      <path
         class="cls-1"
         d="m 103.09,172.73 a 51.76,51.76 0 0 0 -9.17,3.63 c -1.09,0.51 -0.61,2.42 0.5,1.89 a 50.09,50.09 0 0 1 9.15,-3.63 c 1.17,-0.35 0.67,-2.24 -0.48,-1.89 z"
         id="path12" />
      <path
         class="cls-1"
         d="M 85.48,155.67 A 108.49,108.49 0 0 0 86,173.6 c 0.15,1.27 2.11,0.86 2,-0.41 a 105.32,105.32 0 0 1 -0.53,-17.4 1,1 0 0 0 -1.99,-0.12 z"
         id="path14" />
      <path
         class="cls-1"
         d="m 86,171.5 c -1.63,0.54 -7.9,2 -8.77,2.49 -1.3,0.78 -1.22,2.31 0,2.15 a 21.48,21.48 0 0 0 3.43,-0.84 c 2,-0.55 4,-1.24 6,-1.91 A 1.000962,1.000962 0 0 0 86,171.5 Z"
         id="path16" />
      <path
         class="cls-1"
         d="m 86,172.35 c -1.39,2.11 -6.18,6.74 -6.67,7.42 a 1.24,1.24 0 0 0 -0.18,0.21 1,1 0 0 0 1.5,1.29 34.5,34.5 0 0 0 7,-7.83 1,1 0 0 0 -1.65,-1.09 z"
         id="path18" />
      <path
         class="cls-1"
         d="m 86.28,173.86 c 0,1.47 0.24,7.41 0.47,9.16 0.16,1.27 2.16,1.22 2,-0.07 -0.25,-2 -0.14,-8.59 -1.11,-10.55 -0.57,-1.15 -1.64,0 -1.36,1.46 z"
         id="path20" />
      <path
         class="cls-2"
         d="m 26.27,53.89 c 5.87,8 10.27,9.74 6.54,20.41 6.93,5.34 4.66,27.58 6.78,36.11 3.2,11.21 6.93,24 16,32 1.6,1.59 13.32,10.67 14.41,10.13 4.28,-0.53 3.73,-12.27 4.28,-15.46 1.06,-13.33 -0.53,-26.67 0.53,-40 C 75.87,80.54 99,61.88 73.27,45.82 73.45,39.82 78.52,33.96 85.66,30.39 76.15,30.27 69,36.06 64.14,41.68 67.33,30 77.48,23.46 88.68,19.21 75.89,17.07 60.94,26.68 54.54,37.86 61.47,17.6 81.2,13.34 95.07,0 80.14,8.53 64.68,12.79 53.48,26.13 48.15,32 46,39.45 39.61,44.26 36.94,46.4 24.33,52.88 25.92,54.47"
         id="path22" />
      <path
         class="cls-3"
         d="m 84.22,57.18 c 3.42,6.61 8.7,30.53 11.38,35.44 10.68,20.27 30.94,30.92 45.32,48 -11.73,6.93 -19.2,12.79 -33.6,16 -10.67,2.14 -21.33,1.06 -32,-1.61 -20.8,-4.8 -32,-40.53 -22.93,-59.19 2.66,-5.33 8.53,-7.47 11.73,-12.26 3.2,-4.79 3.2,-11.2 6.39,-16 2.35,-3.74 13.17,-11.42 13.71,-10.38 z"
         id="path24" />
      <path
         class="cls-4"
         d="M 70.53,67.57 C 72.86,63.84 83.68,56.14 84.22,57.18 Z"
         id="path26" />
      <path
         class="cls-5"
         d="m 130.52,147 c -6.88,4.12 -13.43,7.51 -23.18,9.67 -10.68,2.14 -21.33,1.06 -32,-1.61 a 24.34,24.34 0 0 1 -10.69,-5.71"
         id="path28" />
      <path
         class="cls-5"
         d="m 84.22,57.18 c 1.72,3.3 3.89,10.93 6,18.36"
         id="path30" />
      <path
         class="cls-6"
         d="m 91.15,78.1 c -8,3.2 -8.34,26.25 -6.75,34.26 3.73,12.79 18.46,20.53 29.07,26.54 10.08,5.72 19.45,9.18 30.65,12.91 15.46,5.87 35.73,8.54 52.26,8.54 -9.59,-6.4 -20.79,-10.68 -29.86,-18.13 -9.06,-8 -43.18,-38.4 -51.71,-46.93 C 106.79,86.76 100.74,83.43 91.15,78.1 Z"
         id="path32" />
      <path
         class="cls-1"
         d="M 26.27,52.62 C 17.39,58.18 10.12,61.54 0,68.47 c 13.87,2.14 20.51,5.48 34.38,7.6 1.06,-6.93 -1.73,-27.41 -8.11,-23.45 z"
         id="path34" />
      <path
         class="cls-4"
         d="m 51.06,49.83 c -4.72,-1.35 -12.33,3.8 -10.42,10.42 1.91,6.62 10.14,8.64 13.76,2.37 4.26,-7.4 -0.23,-11.91 -3.34,-12.79 z"
         id="path36" />
      <path
         d="m 45.59,59.35 a 1.6,1.6 0 0 0 0,-3.2 1.6,1.6 0 0 0 0,3.2 z"
         id="path38" />
      <path
         class="cls-7"
         d="m 84,57.35 c 2,3.93 4.7,11.95 7.1,20.5"
         id="path40" />
      <path
         class="cls-8"
         d="m 95,104.39 a 18.12,18.12 0 0 0 6.82,7"
         id="path42" />
      <path
         class="cls-8"
         d="m 113.84,115.66 a 25.61,25.61 0 0 0 8,6.1"
         id="path44" />
      <path
         class="cls-8"
         d="m 95.14,90.47 c 2,3.23 3.41,6 6.63,8.37"
         id="path46" />
      <path
         class="cls-8"
         d="m 129.93,117.85 a 24.35,24.35 0 0 0 7.65,6.72"
         id="path48" />
      <path
         class="cls-8"
         d="m 102.92,121.21 a 33.42,33.42 0 0 0 8.94,8.06"
         id="path50" />
      <path
         class="cls-8"
         d="m 111.86,103.89 c 2,3.24 3.41,4.12 6,6"
         id="path52" />
      <path
         class="cls-8"
         d="m 141.9,145.22 c 3.55,1.38 5.19,1.26 8.39,1.27"
         id="path54" />
      <path
         class="cls-8"
         d="m 132.41,131 a 19.63,19.63 0 0 0 8,4.6"
         id="path56" />
      <path
         class="cls-8"
         d="m 121.82,134.53 c 3,2.51 5.6,3.86 10.89,5"
         id="path58" />
      <path
         class="cls-8"
         d="m 159.3,148.08 a 44.39,44.39 0 0 0 9.49,2.9"
         id="path60" />
      <path
         class="cls-8"
         d="m 147.69,134.53 a 44.45,44.45 0 0 0 7.76,6.19"
         id="path62" />
    </g>
  </g>
  <metadata
     id="metadata174">
    <rdf:RDF>
      <cc:Work
         rdf:about="">
        <dc:title>pajaro</dc:title>
      </cc:Work>
    </rdf:RDF>
  </metadata>
</svg>
