<svg xmlns="http://www.w3.org/2000/svg" viewBox="0 0 579.85 48.06"><defs><style>.cls-1{fill:#2bb673;}</style></defs><title>titulo</title><g id="Layer_2" data-name="Layer 2"><g id="Layer_1-2" data-name="Layer 1"><path class="cls-1" d="M1.49,45.5c-.16-.11-.32-.24-.49-.38a.63.63,0,0,1-.24-.51,27.15,27.15,0,0,1,0-5.77,53.92,53.92,0,0,0,.32-5.79c0-2.38-.08-4.76-.21-7.17s-.27-4.79-.44-7.2S.19,13.89.08,11.51,0,6.77.06,4.42a1.75,1.75,0,0,1,.21-.76A.91.91,0,0,1,.9,3.17a5.27,5.27,0,0,1,1.4.06,4.6,4.6,0,0,0,1.36,0c.16,0,.46,0,.89,0s.87,0,1.35,0,.95-.05,1.41-.05.73,0,.89,0l.49-.06C9,3,9.26,3,9.58,3s.6-.11.87-.14l.51,0c.25,0,.63,0,1.17-.06a8.44,8.44,0,0,1,1.59,0A5.85,5.85,0,0,1,15.19,3a.79.79,0,0,1,.7.7l.4,5a.86.86,0,0,1-.4.81,2.41,2.41,0,0,1-.89.35,9.12,9.12,0,0,1-2.39-.08,8.92,8.92,0,0,0-2.43-.08c-.19,0-.46,0-.79,0a5.38,5.38,0,0,0-1,.13,2.67,2.67,0,0,0-.87.38.77.77,0,0,0-.35.7,37.31,37.31,0,0,1,0,5,27.54,27.54,0,0,0,.06,5c0,.18,0,.46,0,.78a1.44,1.44,0,0,0,.35.78,1.92,1.92,0,0,0,.76.28,6.83,6.83,0,0,0,1,.08c.35,0,.7,0,1,0a6.87,6.87,0,0,1,.7,0l.9-.05c.43,0,.89-.08,1.38-.14s.94-.11,1.38-.13a6,6,0,0,1,.89-.06.37.37,0,0,1,.3.22.43.43,0,0,1,.13.27l.41,3.87a1.87,1.87,0,0,1-.27,1.08,1.1,1.1,0,0,1-.81.6,9.27,9.27,0,0,1-2.63,0,11.36,11.36,0,0,0-2.68-.08A2.27,2.27,0,0,0,9,28.69a1.68,1.68,0,0,0-.49.82,4.46,4.46,0,0,0-.1,1.08v1.24c0,.11,0,.41-.06.87s-.08.95-.16,1.46S8,35.16,8,35.59a2.82,2.82,0,0,1-.08.82c.08.05.1.16,0,.35a.62.62,0,0,0,0,.46,3.61,3.61,0,0,0,.11.86.65.65,0,0,0,.68.52h6.93a6.75,6.75,0,0,1,1.73.19c.51.11.86.57,1.08,1.3a5.34,5.34,0,0,0,.08.57c.06.29.11.62.19,1s.11.75.19,1.13.11.68.16.87V44c.08.57-.05.87-.4,1l-1.19.24a28,28,0,0,1-5,.14c-1.68-.08-3.33-.17-5-.22a3.08,3.08,0,0,0-.89,0l-.84.08c-.16,0-.46,0-.86,0l-1.3.08-1.27.08A4.92,4.92,0,0,1,1.49,45.5Z"/><path class="cls-1" d="M27.44,42.17a40.77,40.77,0,0,1-.24-6.85c.11-2.35.14-4.65.05-6.9s-.18-4.25-.35-6.28-.21-4.14-.19-6.27c0-2.3,0-4.44,0-6.45a40.22,40.22,0,0,0-.46-6.3,2,2,0,0,1,1-1.46A4.73,4.73,0,0,1,29,1a8.26,8.26,0,0,1,2.11,0A3,3,0,0,1,33,1.93a3.83,3.83,0,0,0,0,.49,3.62,3.62,0,0,1,0,.48A19.67,19.67,0,0,1,33,7.42a23,23,0,0,0-.16,4.47c0,.16,0,.76.08,1.81s.14,2.25.22,3.6.16,2.71.24,4.09.14,2.46.19,3.24c.11,1.9.19,3.77.22,5.58s.13,3.65.32,5.52c.11.76.46,1.19,1,1.3a7,7,0,0,0,1.75.13c.63,0,1.22,0,1.76,0a1,1,0,0,1,.92,1c0,1.27,0,2.3-.08,3.06a18.56,18.56,0,0,1-.27,2.11c-.11.62-.32,1-.59,1,0,0-.11,0-.22,0h-.22c-1.51-.08-3.05-.13-4.65-.21s-3.17-.17-4.76-.33c-.52,0-.84-.19-1-.46A4.49,4.49,0,0,1,27.44,42.17Z"/><path class="cls-1" d="M89.28,43.71a1.16,1.16,0,0,0-.57.19c-.21.14-.43.25-.65.38s-.4.27-.57.41a2.12,2.12,0,0,0-.29.27,5.33,5.33,0,0,1-1.84.49c-.68,0-1.3,0-1.9,0a7.27,7.27,0,0,1-3.89-1,11.66,11.66,0,0,1-3.25-2.68A15.73,15.73,0,0,1,74,38.14a15.1,15.1,0,0,1-1.21-4,29.41,29.41,0,0,1-.38-4.73c0-1.6-.06-3.2-.08-4.79a33.49,33.49,0,0,1,.4-6.5,24,24,0,0,1,1.79-6.25,18.68,18.68,0,0,1,1.43-2.52A16.26,16.26,0,0,1,78,6.83a18.07,18.07,0,0,1,2.46-2.11,7.53,7.53,0,0,1,2.63-1.28l.94,0a8.63,8.63,0,0,1,1-.05,12.79,12.79,0,0,1,4.17.46,5.07,5.07,0,0,1,2.46,1.62,6.74,6.74,0,0,1,1.16,2.92,31.35,31.35,0,0,1,.36,4.36v.57c0,.27,0,.54,0,.84a8.43,8.43,0,0,1,0,.86v.6c-.05.32-.08.65-.13,1.05a4.43,4.43,0,0,1-.22,1.06,2.37,2.37,0,0,1-.46.84,1,1,0,0,1-.84.35,11.13,11.13,0,0,1-2.19-.3,8,8,0,0,1-1.54-.46c-.49-.19-.71-.43-.71-.76L87,13a1.82,1.82,0,0,0-.73-1.43,2.34,2.34,0,0,0-1.52-.6,4.11,4.11,0,0,0-3.19,1.71,13.35,13.35,0,0,0-2.06,3.9,25.2,25.2,0,0,0-1.11,4.65,31.69,31.69,0,0,0-.32,4,27.77,27.77,0,0,0,.38,3.54,18.69,18.69,0,0,0,1.08,4.09,10,10,0,0,0,2,3.33,3.94,3.94,0,0,0,3.12,1.35,2.33,2.33,0,0,0,1.73-.78A2.21,2.21,0,0,0,86.9,35a1.54,1.54,0,0,0,0-.3c0-.16,0-.32-.05-.51a3.52,3.52,0,0,0-.11-.49c0-.13-.14-.21-.22-.21l-2.78,0a.59.59,0,0,1-.38-.22,1.74,1.74,0,0,1-.38-.51,5.21,5.21,0,0,1-.3-.57,1.13,1.13,0,0,1-.11-.46l-.05-3.87a1.14,1.14,0,0,1,.49-1,1.49,1.49,0,0,1,1-.38h.25c.19,0,.54.11,1,.24l.92.25,7.69-.25c.08,0,.19.11.32.33l.33.51c0,.06.08.08.08.11a.52.52,0,0,0,.08.11,1.6,1.6,0,0,0,.11.19c0,.11,0,.35-.06.7a4.4,4.4,0,0,1-.1.7L95,45.15a.94.94,0,0,1-.32.76,1,1,0,0,1-.62.27A5.68,5.68,0,0,1,92.26,46a4.83,4.83,0,0,1-1.57-.7,1.52,1.52,0,0,1-.6-.89C89.88,43.93,89.66,43.71,89.28,43.71Z"/><path class="cls-1" d="M118.45,47a25.91,25.91,0,0,1-1.78-2.84c-.44-.82-1-1.71-1.49-2.66a4.75,4.75,0,0,0-.41-.51l-.57-.68c-.18-.24-.32-.46-.46-.67a.78.78,0,0,1,0-.63c-.49-.67-1-1.38-1.41-2.08s-.89-1.41-1.35-2.08h-.11a.2.2,0,0,1-.11-.06c-.35-.08-.48.08-.4.49s.08,1.11.11,2.14.08,2.14.13,3.3.11,2.27.19,3.33.11,1.78.14,2.16l.05.19c-.08.11-.19.27-.35.46s-.27.25-.3.22l-6.09.41a.91.91,0,0,1-.89-.44,2.12,2.12,0,0,1-.41-.92s0-.08,0-.08a.18.18,0,0,0,0-.13v-.19s0-.14,0-.33.08-.38.11-.57.08-.38.11-.54,0-.27,0-.3,0-.37-.08-.81-.11-.86-.16-1.3-.08-.89-.11-1.27,0-.65,0-.78V38.35c0-.78,0-1.59,0-2.46s0-1.7-.06-2.46,0-1.27,0-1.46,0-.57-.06-1.08-.08-1.09-.1-1.68-.09-1.14-.11-1.68-.06-.87-.06-1.08a1.16,1.16,0,0,0,.06-.54v-.55q.17-5.19.05-10.23c-.08-3.38-.19-6.76-.3-10.17,0-.11,0-.35,0-.65s-.06-.65-.08-1-.09-.7-.09-1,0-.57,0-.68.19-.38.32-.41a3.24,3.24,0,0,1,.46,0C104.41,1,106,.9,107.47.87a17.1,17.1,0,0,1,4.25.46A9.7,9.7,0,0,1,115.31,3,8.63,8.63,0,0,1,118,6.42c.52,1,1,2,1.55,3a8,8,0,0,1,.89,3.2,13,13,0,0,1-1.22,6.63,18.18,18.18,0,0,1-4.14,5.57,1,1,0,0,0-.24.65,2.28,2.28,0,0,0,.46,1,1.31,1.31,0,0,1,.21,1l2.44,4.87v.19l2.43,3.93a8.19,8.19,0,0,0,.52,1c.32.62.73,1.3,1.16,2.09s.84,1.54,1.19,2.32a6,6,0,0,1,.6,1.76,1.83,1.83,0,0,1-.38,1.19A5.67,5.67,0,0,1,122.35,46a8.5,8.5,0,0,1-1.38.92,2.83,2.83,0,0,1-1.24.38A1.28,1.28,0,0,1,118.45,47Zm-10-28.34c.16.19.27.35.38.46a.93.93,0,0,0,.51.22,3.14,3.14,0,0,0,1.92-.89,5.36,5.36,0,0,0,1.14-1.74,7.25,7.25,0,0,0,.51-2,16.57,16.57,0,0,0,.11-1.84,6.89,6.89,0,0,0-.3-1.46,9.27,9.27,0,0,0-.65-1.65,3.79,3.79,0,0,0-1-1.28A2.28,2.28,0,0,0,109.52,8a1.23,1.23,0,0,0-.92.65,3.85,3.85,0,0,0-.43,1.38,10,10,0,0,0-.11,1.52v1.05a2.82,2.82,0,0,0,0,.41c0,.24,0,.51,0,.84s0,.65.06,1,0,.6.08.82a5.2,5.2,0,0,0,0,.59c0,.27,0,.6,0,.92s0,.65,0,.92S108.47,18.54,108.47,18.65Z"/><path class="cls-1" d="M128.47,43a.91.91,0,0,1,.05-.27.27.27,0,0,0,0-.22c0-.52.11-1.14.19-1.87a7.14,7.14,0,0,1,.41-1.81,1.15,1.15,0,0,1,.59-.62,7.55,7.55,0,0,1,.87-.36c.29-.1.59-.21.86-.29a1.33,1.33,0,0,0,.65-.52s.08,0,.08-.19a1.09,1.09,0,0,0,0-.3,3.62,3.62,0,0,1,0-.48c0-.25,0-.52.05-.81a8.43,8.43,0,0,0,0-.87v-.6q-.17-4.83-.08-9.58c.05-3.16,0-6.36-.22-9.52,0-.08,0-.25,0-.49a5.86,5.86,0,0,1-.08-.78c0-.27,0-.55-.06-.76a4.23,4.23,0,0,1,0-.54.79.79,0,0,0-.56-.65l-1-.25a2.58,2.58,0,0,1-.94-.35,1.26,1.26,0,0,1-.49-1,.15.15,0,0,0,0-.11.18.18,0,0,1,0-.11V8.4c0-.57,0-1.19,0-1.84s0-1.28,0-1.84V3.52c.08-.32.19-.7.3-1.19a1,1,0,0,1,.65-.83l.1.05H130a12.5,12.5,0,0,0,2.49.13c1.08,0,2.17,0,3.28.06a18.31,18.31,0,0,1,3.11.4,3.25,3.25,0,0,1,2,1.17,1.83,1.83,0,0,1,.3,1.14,11,11,0,0,0,.06,1.19,11.13,11.13,0,0,1-.17,3.57,2.93,2.93,0,0,1-.78,1.38,2.1,2.1,0,0,1-.92.46c-.33.08-.51.4-.6.95a38.28,38.28,0,0,0-.48,5c0,1.68,0,3.33,0,5s.14,3.33.27,5,.22,3.3.3,5V33.7c0,.41,0,.76,0,1.11s0,.54,0,.62v.49a1,1,0,0,0,.54.95c.32.16.67.29,1.08.46a4.76,4.76,0,0,1,1.11.54,1.65,1.65,0,0,1,.62,1.22c0,.27,0,.67,0,1.21a7.7,7.7,0,0,1-.08,1.6,5,5,0,0,1-.46,1.46,1.21,1.21,0,0,1-1.06.71,9.83,9.83,0,0,1-2.7.1,15.27,15.27,0,0,0-2.71,0c-.11,0-.41,0-.87.08s-.94.11-1.43.19-1,.11-1.43.14a7.51,7.51,0,0,1-.87.05,2.93,2.93,0,0,1-1.54-.32A1.71,1.71,0,0,1,128.47,43Z"/><path class="cls-1" d="M150.74,42.17a41.84,41.84,0,0,1-.25-6.85c.11-2.35.14-4.65.06-6.9s-.19-4.25-.35-6.28S150,18,150,15.87c0-2.3,0-4.44,0-6.45a39,39,0,0,0-.46-6.3,2,2,0,0,1,1-1.46,4.75,4.75,0,0,1,1.7-.62,8.26,8.26,0,0,1,2.11,0,3,3,0,0,1,1.93.89c0,.08,0,.24,0,.49a3.62,3.62,0,0,1,0,.48,19.64,19.64,0,0,1-.05,4.52,23.86,23.86,0,0,0-.17,4.47c0,.16,0,.76.08,1.81s.14,2.25.22,3.6.16,2.71.24,4.09.14,2.46.19,3.24c.11,1.9.19,3.77.22,5.58s.14,3.65.33,5.52c.1.76.46,1.19,1,1.3a7,7,0,0,0,1.76.13c.62,0,1.22,0,1.76,0a1,1,0,0,1,.92,1c0,1.27,0,2.3-.08,3.06s-.17,1.49-.27,2.11-.33,1-.6,1c0,0-.11,0-.22,0h-.21c-1.52-.08-3.06-.13-4.66-.21s-3.16-.17-4.76-.33c-.51,0-.84-.19-1-.46A4.12,4.12,0,0,1,150.74,42.17Z"/><path class="cls-1" d="M171.14,42.17a40.77,40.77,0,0,1-.24-6.85c.11-2.35.14-4.65,0-6.9s-.19-4.25-.35-6.28-.21-4.14-.19-6.27c0-2.3,0-4.44,0-6.45a40.22,40.22,0,0,0-.46-6.3,2,2,0,0,1,1-1.46A4.73,4.73,0,0,1,172.66,1a8.26,8.26,0,0,1,2.11,0,3,3,0,0,1,1.92.89,3.83,3.83,0,0,0,0,.49,3.62,3.62,0,0,1,0,.48,19.67,19.67,0,0,1-.06,4.52,23,23,0,0,0-.16,4.47c0,.16,0,.76.08,1.81s.14,2.25.22,3.6.16,2.71.24,4.09.14,2.46.19,3.24c.11,1.9.19,3.77.22,5.58s.13,3.65.32,5.52c.11.76.46,1.19,1,1.3a7,7,0,0,0,1.75.13c.63,0,1.22,0,1.76,0a1,1,0,0,1,.92,1c0,1.27,0,2.3-.08,3.06a18.56,18.56,0,0,1-.27,2.11c-.11.62-.32,1-.59,1,0,0-.11,0-.22,0h-.22c-1.51-.08-3.05-.13-4.65-.21s-3.17-.17-4.76-.33c-.52,0-.84-.19-1-.46A4.12,4.12,0,0,1,171.14,42.17Z"/><path class="cls-1" d="M191.09,35.43a3.27,3.27,0,0,1-.08-.65c0-.27,0-.57-.06-.84s0-.51,0-.73a3.15,3.15,0,0,1,0-.46c0-.75-.08-1.73-.11-2.95s-.08-2.41-.1-3.6-.09-2.24-.11-3.16-.06-1.44-.06-1.55c0-1.19,0-2.49.08-3.89s.19-2.84.38-4.28a22.31,22.31,0,0,1,1-4.22,13.39,13.39,0,0,1,1.81-3.65,8.73,8.73,0,0,1,2.9-2.63,9.59,9.59,0,0,1,4.24-1.19h1.2a18.19,18.19,0,0,1,3.22.76,9.39,9.39,0,0,1,2.78,1.38,9.65,9.65,0,0,1,2.17,2.06,8.41,8.41,0,0,1,1.41,2.86c0,.17.08.55.16,1.17s.08,1,.08,1.22,0,.78,0,1.4,0,1,0,1.06c0,.4,0,1.27,0,2.6s.05,2.78.08,4.35.08,3.09.08,4.58,0,2.6,0,3.3c0,1,0,2.14,0,3.44s0,2.62-.11,4a35.27,35.27,0,0,1-.54,4.11,12,12,0,0,1-1.28,3.63A8.15,8.15,0,0,1,208,46.2a6.53,6.53,0,0,1-3.63,1.17,12.89,12.89,0,0,1-3.6-.25c-1.13-.24-2.3-.56-3.49-.94a7.11,7.11,0,0,1-2.92-1.65,8.94,8.94,0,0,1-1.81-2.63,14.13,14.13,0,0,1-1-3.17A25.72,25.72,0,0,1,191.09,35.43ZM199,35a5.12,5.12,0,0,0,.73,2.24,2,2,0,0,0,2.05.87,2.12,2.12,0,0,0,1.44-.57,3.07,3.07,0,0,0,.68-1.24,7.92,7.92,0,0,0,.24-1.57c0-.57.05-1.09.08-1.55V32.7a8.15,8.15,0,0,1,0-.84c0-.3,0-.57,0-.84v-.46c.11-2,.19-3.87.19-5.57s0-3.55-.19-5.58c0-.24,0-.62,0-1.16s-.08-1.11-.11-1.74-.08-1.19-.11-1.73-.05-.92-.05-1.16a6.82,6.82,0,0,0-.43-1c-.22-.41-.46-.82-.71-1.2a5.55,5.55,0,0,0-.89-1,1.53,1.53,0,0,0-1-.41,1.63,1.63,0,0,0-1.06.57,3.58,3.58,0,0,0-.7,1.22,7.26,7.26,0,0,0-.41,1.46c-.11.49-.16.89-.22,1.22a2.72,2.72,0,0,0-.1.59c0,.33-.09.68-.14,1.09s-.11.78-.19,1.13-.08.57-.08.65v2.44c0,.59,0,1.19,0,1.76s0,1,0,1.32V24a.53.53,0,0,0,0,.19.38.38,0,0,1,0,.19v.24c0,.41.11,1.09.22,2.09s.21,2,.32,3.11.22,2.14.3,3.14A15.17,15.17,0,0,0,199,35Z"/><path class="cls-1" d="M253,47c0-.16,0-.46,0-.89s0-.9-.06-1.39,0-.92,0-1.32,0-.7,0-.87c-.11-2.78-.19-5.52-.21-8.28s-.14-5.47-.33-8.23a4.05,4.05,0,0,0-.3-1.57c-.16-.35-.43-.86-.84-1.57v-.16c-.59-.78-1.16-1.59-1.7-2.41s-1.11-1.59-1.71-2.35c-.18-.27-.51-.79-.92-1.49S246,15,245.54,14.19s-.9-1.54-1.28-2.25-.67-1.19-.84-1.51a2.67,2.67,0,0,0-.13-.38c-.11-.22-.22-.46-.35-.76s-.27-.57-.41-.84l-.32-.65c-.16-.43-.3-.76-.38-1a4.79,4.79,0,0,1-.22-.92,1.2,1.2,0,0,1,.52-.87,7.33,7.33,0,0,1,1.21-.84,11.7,11.7,0,0,1,1.44-.68c.49-.18.84-.35,1.08-.46L246,3a.91.91,0,0,1,.7.46,6.25,6.25,0,0,1,.68,1.06c.22.4.4.78.59,1.19a7.57,7.57,0,0,0,.46.89c1.38,2,2.82,4,4.25,5.93a44.71,44.71,0,0,1,3.9,6.17c0,.08,0,.19.19.35a2,2,0,0,0,.24.19h.11l.19-.06a.82.82,0,0,1,.24-.1,5.89,5.89,0,0,0,.52-.76c.27-.41.43-.68.51-.81.76-1.36,1.46-2.68,2.09-4s1.3-2.65,2-3.95c0,0,.08-.05.13-.14a.3.3,0,0,0,.08-.18c0-.09.11-.25.22-.55s.22-.56.32-.86.22-.6.33-.87.16-.46.21-.54a3.62,3.62,0,0,1,.28-.68,7.1,7.1,0,0,1,.48-.89,4.18,4.18,0,0,1,.63-.81,1,1,0,0,1,.7-.35,1.69,1.69,0,0,1,.38,0l.32.17.44.29.83.52.84.51a4.18,4.18,0,0,0,.52.3,8.71,8.71,0,0,1,1.11.57,1.06,1.06,0,0,1,.43,1,1.82,1.82,0,0,1-.27,1.22,11.59,11.59,0,0,0-.73,1.16q-.9,1.8-1.71,3.63a27.41,27.41,0,0,1-1.86,3.57,7.06,7.06,0,0,0-.52.68c-.27.38-.54.78-.84,1.22s-.56.84-.84,1.22a5.83,5.83,0,0,0-.46.73c-.51.75-1.08,1.62-1.78,2.54a7.59,7.59,0,0,0-1.41,2.73,6.88,6.88,0,0,0-.19,2.33,13.82,13.82,0,0,1,.06,2.33,60.15,60.15,0,0,1-.41,6c-.24,1.92-.46,4-.65,6a9.31,9.31,0,0,0,0,1.3c0,.51.05,1,0,1.57a6.44,6.44,0,0,1-.25,1.51,1.9,1.9,0,0,1-.81,1.14h-1.19c-.32,0-.68,0-1.11,0a8.28,8.28,0,0,1-1.22,0,3.79,3.79,0,0,1-1.11-.29A1.28,1.28,0,0,1,253,47Z"/><path class="cls-1" d="M298,36a2.21,2.21,0,0,1,1.51-1.46,7.26,7.26,0,0,1,2.63-.19,26.34,26.34,0,0,1,3.38.56c1.25.28,2.55.55,3.9.79a3.64,3.64,0,0,0,1.46-.41,5,5,0,0,0,1.16-.92,9.09,9.09,0,0,0,1-1.27c.32-.49.65-1,1-1.43a.94.94,0,0,0,.11-.27c0-.14.05-.22.05-.27L314,27.64a6.73,6.73,0,0,1-.76-.6l-1-.84a2.6,2.6,0,0,0-.46-.32,1.36,1.36,0,0,0-.43-.22,33.76,33.76,0,0,0-3.9-1.43A24.93,24.93,0,0,1,304.07,23a10.22,10.22,0,0,1-2.87-2A10.94,10.94,0,0,1,299,17.27c0-.11,0-.29,0-.54l-.08-.73c0-.27-.08-.49-.08-.7a2.92,2.92,0,0,1,0-.44c0-.56-.08-1.13-.17-1.78a4,4,0,0,1,.22-1.79,8,8,0,0,1,.24-.86c.11-.41.28-.84.41-1.28s.3-.86.46-1.24.22-.68.27-.84V6.75a7.13,7.13,0,0,1,.65-.84c.19-.19.38-.41.57-.63s.32-.37.43-.51a16.5,16.5,0,0,1,3.9-3.33A11.91,11.91,0,0,1,310.48,0a10.69,10.69,0,0,1,2.28.19,18.92,18.92,0,0,1,3,.73,11.21,11.21,0,0,1,2.63,1.21,2.17,2.17,0,0,1,1.19,1.63,6.63,6.63,0,0,1-.05,1.43A14.28,14.28,0,0,1,319.12,7a6.46,6.46,0,0,1-.71,1.57,1.36,1.36,0,0,1-1.05.73,16.79,16.79,0,0,1-3.09,0,16.14,16.14,0,0,0-3.11,0,10.57,10.57,0,0,0-1.22.1,11.21,11.21,0,0,1-1.21.11,3.1,3.1,0,0,1-.57.27,5.69,5.69,0,0,0-.79.38,6.3,6.3,0,0,0-.65.46.65.65,0,0,0-.27.49l.3,3.57a.81.81,0,0,0,.38.57c.24.19.54.35.84.54a6.23,6.23,0,0,0,.92.49c.32.13.54.21.65.27,1.59.76,3,1.46,4.35,2.14A14.16,14.16,0,0,1,317.28,21a11.37,11.37,0,0,1,2.3,3.25,14.43,14.43,0,0,1,1.11,4.68,14.39,14.39,0,0,1-.33,4.81A12.75,12.75,0,0,1,318.52,38a10.76,10.76,0,0,1-3.25,3.12,9.84,9.84,0,0,1-4.46,1.48,20.33,20.33,0,0,1-4.28.06,13.5,13.5,0,0,1-4-.9,8.08,8.08,0,0,1-3.06-2.11A5.83,5.83,0,0,1,298,36Z"/><path class="cls-1" d="M345.23,46.1a1.24,1.24,0,0,1-.81-.65,4.18,4.18,0,0,1-.4-1.14c-.11-.41-.19-.76-.25-1.06s-.16-.43-.32-.43a2.23,2.23,0,0,0-.92.54c-.38.33-.82.68-1.28,1.08a11.32,11.32,0,0,1-1.59,1.14,4.08,4.08,0,0,1-1.84.6,7.81,7.81,0,0,1-2.36-.11,6.14,6.14,0,0,1-2.11-.84A10,10,0,0,1,330,42.14a15,15,0,0,1-1.9-4,22.25,22.25,0,0,1-.94-4.52c-.19-1.57-.36-3.09-.52-4.55a53.33,53.33,0,0,1-.16-8.28c.19-2.73.35-5.52.57-8.33v-.57c0-.3,0-.63.05-1s.06-.65.06-.95V9.42c0-.62,0-1.19,0-1.67a2.73,2.73,0,0,1,.24-1.22,2.33,2.33,0,0,1,.82-.87A4.88,4.88,0,0,1,330,5.12a3,3,0,0,1,.87,0,9.57,9.57,0,0,1,1.19.27,8,8,0,0,1,1.19.41,2.07,2.07,0,0,1,.76.48c0,.08,0,.22.05.41s.06.35.06.4a17.72,17.72,0,0,1,.05,2.74,28.86,28.86,0,0,1-.24,2.89c-.11,1-.25,1.92-.33,2.9s-.16,1.87-.21,2.73a34,34,0,0,0,0,5.25c.16,1.71.33,3.47.54,5.25a36.24,36.24,0,0,0,.52,3.6,5.21,5.21,0,0,0,1.81,3.06,8.26,8.26,0,0,0,.65.54,8.26,8.26,0,0,1,.65.54l.21.06c.11,0,.17,0,.22,0h.16c.08,0,.25-.13.49-.24a.87.87,0,0,0,.49-.49,22.45,22.45,0,0,0,1.7-4.82,28.75,28.75,0,0,0,.65-4.73,44.82,44.82,0,0,0,.08-4.79c0-1.63,0-3.3,0-5.06v-.36a5.7,5.7,0,0,1,0-.7c0-.27,0-.51,0-.73a3.85,3.85,0,0,0,0-.54s0-.19.06-.46.08-.6.1-.92.09-.62.11-.89.06-.44.06-.52A23.09,23.09,0,0,0,342,8.75a6.19,6.19,0,0,1,0-2A2,2,0,0,1,343,5.39a6,6,0,0,1,2.73-.67c.25,0,.57-.09.95-.11a5,5,0,0,1,1.16,0,4.09,4.09,0,0,1,1.09.24,1.4,1.4,0,0,1,.73.76,7.34,7.34,0,0,0,.1,1.06c.09.48.14.81.19,1a32.84,32.84,0,0,1,.09,5.6c-.14,1.82-.25,3.68-.33,5.61a10.58,10.58,0,0,0,.05,1.84,6.5,6.5,0,0,1-.05,2c.27,1.81.46,3.65.57,5.44s.16,3.63.22,5.44.08,3.65.1,5.47.11,3.65.25,5.46a8.79,8.79,0,0,1-.3,1,.82.82,0,0,1-.7.54,13.14,13.14,0,0,1-2.22.06A7,7,0,0,0,345.23,46.1Z"/><path class="cls-1" d="M356.06,36a2.19,2.19,0,0,1,1.51-1.46,7.24,7.24,0,0,1,2.63-.19,26.34,26.34,0,0,1,3.38.56c1.25.28,2.54.55,3.9.79a3.64,3.64,0,0,0,1.46-.41,5.21,5.21,0,0,0,1.16-.92,9,9,0,0,0,1-1.27c.33-.49.65-1,1-1.43a.58.58,0,0,0,.11-.27,2.44,2.44,0,0,0,.06-.27L372,27.64a8.51,8.51,0,0,1-.75-.6l-1-.84a2.6,2.6,0,0,0-.46-.32,1.36,1.36,0,0,0-.43-.22,33.76,33.76,0,0,0-3.9-1.43A24,24,0,0,1,362.12,23a10.08,10.08,0,0,1-2.87-2A10.63,10.63,0,0,1,357,17.27a4.23,4.23,0,0,0,0-.54l-.08-.73c0-.27-.08-.49-.08-.7a2.92,2.92,0,0,1,0-.44c0-.56-.08-1.13-.16-1.78a4,4,0,0,1,.22-1.79,8,8,0,0,1,.24-.86c.11-.41.27-.84.41-1.28s.3-.86.46-1.24l.27-.84V6.75a7.13,7.13,0,0,1,.65-.84c.19-.19.38-.41.57-.63s.32-.37.43-.51a16.5,16.5,0,0,1,3.9-3.33A11.91,11.91,0,0,1,368.53,0a10.73,10.73,0,0,1,2.28.19,18.92,18.92,0,0,1,3,.73,11.4,11.4,0,0,1,2.63,1.21,2.17,2.17,0,0,1,1.19,1.63,6.63,6.63,0,0,1-.05,1.43A16.31,16.31,0,0,1,377.17,7a6.46,6.46,0,0,1-.71,1.57,1.4,1.4,0,0,1-1,.73,16.79,16.79,0,0,1-3.09,0,16.14,16.14,0,0,0-3.11,0,10.41,10.41,0,0,0-1.22.1,11.32,11.32,0,0,1-1.22.11,2.65,2.65,0,0,1-.56.27,5.19,5.19,0,0,0-.79.38,5.36,5.36,0,0,0-.65.46.65.65,0,0,0-.27.49l.3,3.57a.78.78,0,0,0,.38.57c.24.19.54.35.84.54a5.77,5.77,0,0,0,.92.49c.32.13.54.21.65.27,1.59.76,3,1.46,4.35,2.14A14.16,14.16,0,0,1,375.33,21a11.37,11.37,0,0,1,2.3,3.25,14.45,14.45,0,0,1,1.1,4.68,14.13,14.13,0,0,1-.32,4.81A12.75,12.75,0,0,1,376.57,38a10.88,10.88,0,0,1-3.25,3.12,9.88,9.88,0,0,1-4.46,1.48,20.34,20.34,0,0,1-4.28.06,13.5,13.5,0,0,1-4-.9,8.08,8.08,0,0,1-3.06-2.11A5.83,5.83,0,0,1,356.06,36Z"/><path class="cls-1" d="M426.8,45.15a2.5,2.5,0,0,1-.6-.38,1.11,1.11,0,0,1-.35-.57l-1.43-12.61a.55.55,0,0,0-.22-.41c-.14-.1-.27-.16-.38-.1l-6.9.64,1.14,10.42a5.47,5.47,0,0,0,.54,1.76,5.42,5.42,0,0,1,.54,1.71c0,.24,0,.38-.06.43a1.29,1.29,0,0,1-.54.14,2,2,0,0,0-.32,0,1.16,1.16,0,0,1-.27,0h-.73c-.33,0-.68,0-1,0s-.68.05-1,.05a5.16,5.16,0,0,1-.56,0,5.24,5.24,0,0,1-1.74-.24,2.24,2.24,0,0,1-1-.71,3.08,3.08,0,0,1-.51-1.16c-.11-.46-.19-1-.27-1.57q-.28-3.28-.49-6.52c-.13-2.17-.22-4.36-.3-6.58,0,0,0-.24,0-.65s-.06-.84-.08-1.38-.09-1-.11-1.52-.08-.89-.11-1.16a18.61,18.61,0,0,1,.22-4.17c.21-1.27.46-2.65.73-4.16a2.82,2.82,0,0,1,.13-2.14c.33-.76.6-1.44.81-2a4,4,0,0,0,.14-.9,3.49,3.49,0,0,1,.22-.94,1.36,1.36,0,0,1,.05-.22c0-.11.08-.13.11-.13a21.87,21.87,0,0,0,1.13-2.41,11,11,0,0,1,1.33-2.41,9.54,9.54,0,0,1,1.3-1.46,15.46,15.46,0,0,1,1.68-1.41,10.23,10.23,0,0,1,1.86-1.08,7.57,7.57,0,0,1,1.93-.54,6.41,6.41,0,0,1,4.16.73,6.86,6.86,0,0,1,2.36,2.54,13.08,13.08,0,0,1,1.32,3.44,35.92,35.92,0,0,0,1.09,3.49,3.74,3.74,0,0,0,.08.65,9.36,9.36,0,0,1,.13,1c.06.35.08.68.16,1a3.93,3.93,0,0,1,.09.63c.27,2.62.43,5.25.51,7.93s.14,5.3.27,7.92a13.66,13.66,0,0,1-.16,2.09,8.59,8.59,0,0,0-.08,2.08c0,.08,0,.3.05.62s.08.71.11,1.11a7.22,7.22,0,0,0,.16,1.11,4.92,4.92,0,0,1,.08.63v2c0,.08,0,.3,0,.62s0,.71.05,1.11,0,.76.06,1.11,0,.57,0,.68a6.91,6.91,0,0,1-.11,1.08.92.92,0,0,1-.79.84h-.11l-.37-.05-.38-.06c-.11,0-.35,0-.71,0s-.73,0-1.11,0-.73,0-1.08,0ZM417,23.71a1.1,1.1,0,0,0,.84,1,6.9,6.9,0,0,0,1.78.37,15.35,15.35,0,0,0,2,.06l1.54-.08a3.66,3.66,0,0,0,.49,0,3.83,3.83,0,0,1,.49,0,2.69,2.69,0,0,0,.19-.32c0-.11.08-.22.11-.33s0-.62-.06-1.16-.08-1.11-.08-1.76,0-1.22-.05-1.76,0-.92,0-1.16a1.94,1.94,0,0,0,.05-.54v-.57l-.59-5.79a3.31,3.31,0,0,0-.3-.95,4.34,4.34,0,0,0-.59-1A2.48,2.48,0,0,0,422,9a1.75,1.75,0,0,0-1-.21,2,2,0,0,0-.89.29,8.79,8.79,0,0,0-2.44,4.22,27.31,27.31,0,0,0-.54,4.82c0,.95,0,1.9-.05,2.79A13.89,13.89,0,0,0,417,23.71Z"/><path class="cls-1" d="M438.06,45.5a11.63,11.63,0,0,1,.24-3.36,26.28,26.28,0,0,0,.49-3.35c.1-.79.19-1.6.24-2.38s.11-1.6.19-2.39a.32.32,0,0,1-.06-.18v-.25l.6-3.92a3.08,3.08,0,0,1,0-1.92,8.93,8.93,0,0,0,.43-1.82c0-.4.11-1.16.24-2.3s.27-2.41.49-3.87.41-3,.62-4.57.46-3.09.68-4.47.46-2.51.68-3.46.43-1.46.62-1.57a4.29,4.29,0,0,1,2.06-.6c.78,0,1.48-.08,2.16-.1a8.57,8.57,0,0,1,1.14-.06c.27,0,.7,0,1.24.06a2.74,2.74,0,0,1,1.14,1.59,40.17,40.17,0,0,0,1.27,6.23c.57,2,1.14,4,1.71,6.11,0,.08.1.3.18.68s.17.79.28,1.22.18.84.29,1.22a4,4,0,0,1,.17.67,9,9,0,0,1,.32,1c.14.49.22.81.27,1a.14.14,0,0,0,.06.11s.08,0,.1,0H456c.24,0,.43-.51.57-1.51s.27-2.27.35-3.79.19-3.14.3-4.87.21-3.38.35-4.87a30.64,30.64,0,0,1,.54-3.79c.21-1,.51-1.54.86-1.57L465.23,4a.87.87,0,0,1,.48.27,1,1,0,0,1,.35.52l1.14,8.58c.08.32.16.65.27,1s.19.7.27,1,.11,1.11.25,2.06.27,2,.4,3.16.33,2.38.49,3.66.32,2.48.49,3.65.29,2.22.46,3.11.24,1.6.32,2,.14,1.08.3,2,.32,2,.54,3.06.38,2.11.57,3.06.3,1.62.38,2v.19a3.07,3.07,0,0,1,0,.78.72.72,0,0,1-.38.6l-5.41.35-3.47-26.31-.24-1-3.33,27.25-3.57.3L448.28,18l-4.41,29a2,2,0,0,0,0,.52s-.08.08-.27.08c0,0-.06,0-.06,0s0,0,0,0h-.06l-1.35-.13a11.54,11.54,0,0,1-1.76-.33,6.86,6.86,0,0,1-1.54-.62A1.32,1.32,0,0,1,438.06,45.5Z"/><path class="cls-1" d="M479.05,43a.94.94,0,0,1,.06-.27.27.27,0,0,0,0-.22c0-.52.11-1.14.19-1.87a7.64,7.64,0,0,1,.4-1.81,1.21,1.21,0,0,1,.6-.62,7.55,7.55,0,0,1,.87-.36c.29-.1.59-.21.86-.29a1.33,1.33,0,0,0,.65-.52s.05,0,.08-.19a1.09,1.09,0,0,0,0-.3,3.62,3.62,0,0,1,0-.48c0-.25,0-.52.05-.81a8.43,8.43,0,0,0,0-.87v-.6q-.16-4.83-.08-9.58c.05-3.16,0-6.36-.22-9.52,0-.08,0-.25-.05-.49a5.78,5.78,0,0,1-.09-.78c0-.27,0-.55,0-.76a4.23,4.23,0,0,1,0-.54.79.79,0,0,0-.57-.65c-.29-.08-.62-.17-1-.25a3.1,3.1,0,0,1-.95-.38,1.26,1.26,0,0,1-.48-1,.15.15,0,0,0,0-.11.18.18,0,0,1,0-.11V8.4c0-.57,0-1.19,0-1.84s0-1.28,0-1.84V3.52c.08-.32.19-.7.29-1.19a1,1,0,0,1,.65-.83l.11.05h.11a12.45,12.45,0,0,0,2.49.13c1.08,0,2.16,0,3.27.06a18.84,18.84,0,0,1,3.12.4,3.25,3.25,0,0,1,2.05,1.17,1.83,1.83,0,0,1,.3,1.14c0,.51,0,.92.05,1.19a10.91,10.91,0,0,1-.16,3.57,2.93,2.93,0,0,1-.78,1.38,2.1,2.1,0,0,1-.92.46c-.33.08-.52.4-.6.95a38.28,38.28,0,0,0-.48,5c0,1.68,0,3.33,0,5s.14,3.33.27,5,.22,3.3.3,5V33.7c0,.41,0,.76,0,1.11s0,.54,0,.62v.49a1,1,0,0,0,.55.95c.32.16.67.29,1.08.46a5,5,0,0,1,1.11.54,1.65,1.65,0,0,1,.62,1.22c0,.27,0,.67,0,1.21a8.46,8.46,0,0,1-.08,1.6,5.67,5.67,0,0,1-.44,1.46,1.2,1.2,0,0,1-1.05.71,9.92,9.92,0,0,1-2.71.1,15.16,15.16,0,0,0-2.7,0c-.11,0-.41,0-.87.08s-.95.11-1.43.19-1,.11-1.44.14a7.41,7.41,0,0,1-.87.05,3,3,0,0,1-1.54-.32A1.76,1.76,0,0,1,479.05,43Z"/><path class="cls-1" d="M517.29,43.71a1.16,1.16,0,0,0-.57.19c-.21.14-.43.25-.65.38a5.43,5.43,0,0,0-.56.41,2.53,2.53,0,0,0-.3.27,5.27,5.27,0,0,1-1.84.49c-.68,0-1.3,0-1.9,0a7.29,7.29,0,0,1-3.89-1,11.66,11.66,0,0,1-3.25-2.68A15.39,15.39,0,0,1,502,38.14a14.78,14.78,0,0,1-1.22-4,30.6,30.6,0,0,1-.38-4.73c0-1.6-.06-3.2-.08-4.79a34.3,34.3,0,0,1,.4-6.5,24.38,24.38,0,0,1,1.79-6.25,18.68,18.68,0,0,1,1.43-2.52A16.86,16.86,0,0,1,506,6.83a18.07,18.07,0,0,1,2.46-2.11,7.61,7.61,0,0,1,2.63-1.28l.95,0,.94-.05a12.79,12.79,0,0,1,4.17.46,5,5,0,0,1,2.46,1.62,6.87,6.87,0,0,1,1.17,2.92,31.51,31.51,0,0,1,.35,4.36v.57a8.15,8.15,0,0,0,0,.84c0,.29,0,.59,0,.86v.6c0,.32-.08.65-.13,1.05a4.43,4.43,0,0,1-.22,1.06,2.37,2.37,0,0,1-.46.84,1,1,0,0,1-.84.35,11.13,11.13,0,0,1-2.19-.3,8,8,0,0,1-1.54-.46c-.49-.19-.71-.43-.71-.76L515,13a1.79,1.79,0,0,0-.73-1.43,2.34,2.34,0,0,0-1.52-.6,4.12,4.12,0,0,0-3.19,1.71,13.35,13.35,0,0,0-2.06,3.9,25.2,25.2,0,0,0-1.11,4.65,31.69,31.69,0,0,0-.32,4,29.73,29.73,0,0,0,.38,3.54,19.27,19.27,0,0,0,1.08,4.09,9.89,9.89,0,0,0,2,3.33,3.92,3.92,0,0,0,3.11,1.35,2.33,2.33,0,0,0,1.73-.78,2.21,2.21,0,0,0,.54-1.79,1.54,1.54,0,0,0,0-.3c0-.16,0-.32,0-.51a2.5,2.5,0,0,0-.11-.49c-.05-.13-.13-.21-.21-.21l-2.79,0a.59.59,0,0,1-.38-.22,1.74,1.74,0,0,1-.38-.51,5.21,5.21,0,0,1-.3-.57,1.13,1.13,0,0,1-.11-.46l-.05-3.87a1.14,1.14,0,0,1,.49-1,1.52,1.52,0,0,1,1-.38h.24c.19,0,.54.11,1,.24l.92.25,7.69-.25c.08,0,.19.11.32.33l.33.51c0,.06.08.08.08.11l.08.11a1.6,1.6,0,0,0,.11.19c0,.11,0,.35-.05.7a4,4,0,0,1-.11.7l.3,15.73a1,1,0,0,1-.33.76,1,1,0,0,1-.62.27,5.68,5.68,0,0,1-1.76-.17,4.83,4.83,0,0,1-1.57-.7,1.4,1.4,0,0,1-.6-.89C517.89,43.93,517.65,43.71,517.29,43.71Z"/><path class="cls-1" d="M530.69,35.43a3.27,3.27,0,0,1-.08-.65,7.91,7.91,0,0,1-.06-.84c0-.27,0-.51,0-.73a3.15,3.15,0,0,1,0-.46c0-.75-.08-1.73-.11-2.95s-.08-2.41-.1-3.6-.09-2.24-.11-3.16-.06-1.44-.06-1.55c0-1.19,0-2.49.08-3.89s.19-2.84.38-4.28a22.31,22.31,0,0,1,1-4.22,13.39,13.39,0,0,1,1.81-3.65,8.73,8.73,0,0,1,2.9-2.63,9.63,9.63,0,0,1,4.25-1.19h1.19a18,18,0,0,1,3.22.76,9.39,9.39,0,0,1,2.78,1.38,9.65,9.65,0,0,1,2.17,2.06,8.41,8.41,0,0,1,1.41,2.86c0,.17.08.55.16,1.17s.08,1,.08,1.22,0,.78,0,1.4,0,1,0,1.06c0,.4,0,1.27,0,2.6s0,2.78.08,4.35.08,3.09.08,4.58,0,2.6,0,3.3c0,1,0,2.14,0,3.44s0,2.62-.11,4a35.27,35.27,0,0,1-.54,4.11,12.25,12.25,0,0,1-1.27,3.63,8.17,8.17,0,0,1-2.33,2.65,6.53,6.53,0,0,1-3.63,1.17,12.89,12.89,0,0,1-3.6-.25c-1.13-.24-2.3-.56-3.49-.94a7.11,7.11,0,0,1-2.92-1.65,8.94,8.94,0,0,1-1.81-2.63,14.13,14.13,0,0,1-1-3.17A19.11,19.11,0,0,1,530.69,35.43Zm7.9-.4a5.25,5.25,0,0,0,.73,2.24,2,2,0,0,0,2.06.87,2.13,2.13,0,0,0,1.43-.57,3,3,0,0,0,.68-1.24,7.25,7.25,0,0,0,.24-1.57c0-.57.06-1.09.08-1.55V32.7a8.15,8.15,0,0,1,0-.84,8.15,8.15,0,0,0,0-.84v-.46c.11-2,.19-3.87.19-5.57s-.06-3.55-.19-5.58c0-.24,0-.62-.06-1.16s-.08-1.11-.1-1.74-.09-1.19-.11-1.73a9.75,9.75,0,0,1-.06-1.16,4.43,4.43,0,0,0-.46-1c-.21-.41-.46-.82-.7-1.2a5.55,5.55,0,0,0-.89-1,1.55,1.55,0,0,0-1-.41,1.68,1.68,0,0,0-1,.57,3.77,3.77,0,0,0-.71,1.22,7.22,7.22,0,0,0-.4,1.46c-.11.49-.17.89-.22,1.22a2.5,2.5,0,0,0-.11.59c0,.33-.08.68-.13,1.09s-.11.78-.19,1.13a5,5,0,0,0-.08.65v2.44c0,.59,0,1.19,0,1.76s0,1,0,1.32V24a.36.36,0,0,0,0,.19.38.38,0,0,1,0,.19v.24c0,.41.1,1.09.21,2.09s.22,2,.33,3.11.21,2.14.3,3.14S538.56,34.62,538.59,35Z"/><path class="cls-1" d="M557.05,36a2.19,2.19,0,0,1,1.51-1.46,7.24,7.24,0,0,1,2.63-.19,27.91,27.91,0,0,1,3.41.56c1.24.28,2.54.55,3.89.79a3.74,3.74,0,0,0,1.47-.41,5.21,5.21,0,0,0,1.16-.92,9.83,9.83,0,0,0,1-1.27c.32-.49.65-1,1-1.43a1.39,1.39,0,0,0,.16-.54L573,27.64a9.59,9.59,0,0,1-.76-.6c-.4-.35-.73-.62-1-.84a3.06,3.06,0,0,0-.46-.32,1.23,1.23,0,0,0-.46-.22,33.76,33.76,0,0,0-3.9-1.43A24,24,0,0,1,563.11,23a10.08,10.08,0,0,1-2.87-2A10.63,10.63,0,0,1,558,17.27a4.23,4.23,0,0,0,0-.54c0-.24,0-.49-.08-.73a3.85,3.85,0,0,1-.08-.7,2.92,2.92,0,0,1,0-.44c0-.56-.08-1.13-.16-1.78a4,4,0,0,1,.22-1.79,8,8,0,0,1,.24-.86c.11-.41.27-.84.41-1.28s.3-.86.46-1.24.21-.68.27-.84V6.75a7.13,7.13,0,0,1,.65-.84c.19-.19.38-.41.57-.63s.32-.37.46-.51a16.66,16.66,0,0,1,3.89-3.33A11.91,11.91,0,0,1,569.55,0a10.65,10.65,0,0,1,2.27.19,19,19,0,0,1,3,.73,11.13,11.13,0,0,1,2.62,1.21,2.14,2.14,0,0,1,1.19,1.63,6.63,6.63,0,0,1-.05,1.43A14.28,14.28,0,0,1,578.18,7a6.44,6.44,0,0,1-.7,1.57,1.39,1.39,0,0,1-1.06.73,16.69,16.69,0,0,1-3.08,0,16,16,0,0,0-3.09,0,10.57,10.57,0,0,0-1.22.1,11.21,11.21,0,0,1-1.21.11,3.1,3.1,0,0,1-.57.27,5.69,5.69,0,0,0-.79.38,6.3,6.3,0,0,0-.65.46.68.68,0,0,0-.27.49l.3,3.57a.81.81,0,0,0,.38.57c.27.19.54.35.84.54a6.78,6.78,0,0,0,.92.49c.32.13.54.21.65.27,1.6.76,3,1.46,4.36,2.14A14.3,14.3,0,0,1,576.37,21a11.18,11.18,0,0,1,2.3,3.25,14.18,14.18,0,0,1,1.11,4.68,14.39,14.39,0,0,1-.33,4.81A12.75,12.75,0,0,1,577.61,38a10.84,10.84,0,0,1-3.24,3.12,9.92,9.92,0,0,1-4.47,1.48,20.24,20.24,0,0,1-4.27.06,13.5,13.5,0,0,1-4-.9,8.15,8.15,0,0,1-3.06-2.11A5.6,5.6,0,0,1,557.05,36Z"/></g></g></svg>