<svg xmlns="http://www.w3.org/2000/svg" viewBox="0 0 139.1 105.67"><defs><style>.cls-1,.cls-2{opacity:0.6;}.cls-2{fill:#dad8cc;isolation:isolate;}.cls-3{fill:#ffde00;}.cls-4{fill:none;stroke:#000;stroke-linecap:round;stroke-linejoin:round;stroke-width:0.55px;}.cls-5{fill:#fff;}</style></defs><title>abeja</title><g id="Layer_2" data-name="Layer 2"><g id="Layer_1-2" data-name="Layer 1"><path d="M91.23,83.74c1.57,2.87,13.08,6.47,17,9.13-3.91.27-10-.94-13.76-1.52-3-.49-5.57-1.51-8.54-1.82C85.4,89.62,89.39,83.85,91.23,83.74Z"/><g class="cls-1"><g class="cls-1"><path class="cls-2" d="M51.15,59.13c-.74-5.87,3.47-23.93,29.27-44.89C86.09,9.65,109.9-3.15,114.26.72c2.06,1.83,9.5,12.58-17.23,38-10.39,9.87-29.65,17.21-43.39,20C52.16,58.89,51.41,59.38,51.15,59.13Z"/></g></g><path class="cls-3" d="M55.26,66c6.57-15.9,20.79-25.12,31.8-20.59s14.61,21.11,8,37S74.3,107.52,63.3,103,48.71,81.85,55.26,66Z"/><path d="M46.44,66.87c6-14.46,19.72-22.52,30.74-18s15.07,19.94,9.11,34.4-19.72,22.51-30.72,18S40.48,81.34,46.44,66.87Z"/><path class="cls-3" d="M36,60.4c6.55-15.9,20.79-25.13,31.8-20.59s14.61,21.11,8,37-20.79,25.12-31.8,20.59S29.49,76.32,36,60.4Z"/><path d="M23.38,53.7c6.55-15.9,20.79-25.12,31.79-20.58s14.61,21.1,8,37S42.42,95.27,31.41,90.73,16.83,69.62,23.38,53.7Z"/><path class="cls-4" d="M36,38.67S44,22.32,43.25,20.83s-7-1.68-7-1.68"/><path class="cls-4" d="M24.75,37.34s2.75-18,1.64-19.19-7.21.48-7.21.48"/><g class="cls-1"><g class="cls-1"><path class="cls-2" d="M55.09,59.26c-.75,0,3.51-5.5,4.25-6.76,6-7.25,13-12.74,21-17.74,12.49-7.75,26.55-13.49,41.29-13,4.24,0,17.15-.85,17.43,3.74C140.91,55.75,85.57,67.76,55.09,59.26Z"/></g></g><path class="cls-3" d="M51,56.89c-.5-12.19-5.15-17-11.9-20.25C30.37,32.14,12.89,32.36,5.69,43c-12,17.82-4.63,40,19,41.82C44.36,86.37,51.28,62.89,51,56.89Z"/><path class="cls-5" d="M13.5,57c2.82,2.44,9.66,1.44,11.82-4a7.36,7.36,0,0,0-6.09-9.92C12.65,42.25,6.56,51,13.5,57Z"/><path d="M19.16,51.66A1.31,1.31,0,0,0,21.11,51,1.35,1.35,0,0,0,20,49.18C18.81,49,18,51.05,19.16,51.66Z"/><path class="cls-4" d="M18,70.93a6.71,6.71,0,0,0,8,.39c4.63-3,.72-9.41.72-9.41"/><path class="cls-4" d="M44.8,88.33s2.62,5.81,3.78,8.63A13.51,13.51,0,0,0,53,103"/><path class="cls-4" d="M57.77,91.83a66.82,66.82,0,0,0,2.23,7,15,15,0,0,0,5.61,6.56"/><path class="cls-4" d="M69.34,92.55a64.52,64.52,0,0,0,3.32,6.55,15,15,0,0,0,6.58,5.59"/></g></g></svg>