<svg xmlns="http://www.w3.org/2000/svg" viewBox="0 0 125.82 91.14"><defs><style>.cls-1{fill:#00a0a4;}.cls-2{fill:#007572;}.cls-3{fill:#ffde00;}.cls-4{fill:#48baba;}</style></defs><title>escarpin</title><g id="Layer_2" data-name="Layer 2"><g id="Layer_1-2" data-name="Layer 1"><path class="cls-1" d="M54.11,20.06c1,2.7,63.61-2.88,66.34,1.44C122.18,40,127.9,47.16,123,65.72,118.46,69.39,96.8,79.43,91.6,81c-9.87,2.86-19.56,6.9-29.8,7.79-10,.9-19.55,3-29.42,1.33s-20.74-8.45-27-16.7C-1.29,64.84-.46,52.11,7.07,45.11c9-8.26,23-10.22,33.74-14.88C43.85,29,52.32,22.94,54.11,20.06Z"/><path class="cls-2" d="M123.86,65.41c2.42-5.06,3-13.18-.46-26.27C111.58,51,75.64,65.09,54.46,68.32c-9.68,1.44-21.53,2.51-30.86-1.25C15.52,63.66,4,55.76,6.74,45.89c-.08-.06-.15-.15-.22-.2-7.12,7.17-9,20.57-2.57,29,6.29,8.25,18.56,13.89,28.41,15.5S58,91.33,67.93,89.44C109.12,81.57,119.68,69.76,123.86,65.41Z"/><path class="cls-3" d="M47.45,27.37c-3.65-1.57-9.09,1.95-5.94,5.92,2.23,2.79,6.57,3.21,7.81,0,1.23-2.91.59-4.68-2-5.9"/><path class="cls-3" d="M46.44,31.37c3.25.11,11.77,1.57,14.43,4.91,2.89,3.72-3,3.54-5.35,2.71-3.1-1-6.13-3.34-8.84-4.93C47.9,39.49,60.5,47.27,66,45.08c4.57-1.87,4.24-7.38.94-10a29.2,29.2,0,0,0-9.54-4.5c-3.23-1-7.86-.41-11,.49Z"/><path class="cls-3" d="M42.31,31.33a63.08,63.08,0,0,1-7.81-9C31.64,18,36.35,16,38.82,19.47c1.48,2.07,4.54,9.72,5,10.9a25.22,25.22,0,0,0-2-9.94c-1.4-3.41-1.52-6.68-6.5-8.54C31.2,10.34,24,16,30.17,24.49,33.27,28.73,37.77,30,42.31,31.33Z"/><path class="cls-1" d="M111.6,2C102.32-.29,88.57-.32,81.8.45,68.26,2,56.22,5.54,54,7c-.43,6.6,18.92,6.69,29,5.59A63.28,63.28,0,0,0,111.6,2Z"/><path class="cls-4" d="M111.3,1.91c6.9,4.32,12.56,11.93,12.56,16.23,0,6.64-3,9.23-8.22,10.33-7.31,1.55-13-4.26-15.22-5.71-1,2.58-6.81,10.49-15.68,11.27-7.77.7-13.54-5.83-15-8.18a15.71,15.71,0,0,1-19.17,1C44.69,22.87,47.71,13.44,53.93,7c-.39,5.75,22,4.74,28.33,3.82C99.94,8.22,111.28,2,111.3,1.91Z"/><path class="cls-3" d="M115.76,17.22c-3.28-2-7.34,2.45-4.48,4.93C115.8,26.06,119.9,19.79,115.76,17.22Z"/><path class="cls-3" d="M88.33,24.27c-.53-2.92-4.22-3.05-5.68-1.81-2.38,2-2,5.26.89,6C86.86,28.79,88.85,27.16,88.33,24.27Z"/><path class="cls-3" d="M60.72,20.56a3.18,3.18,0,0,0-3.86-2.32,3.72,3.72,0,0,0-2.18,2.06c-.51,1.35-.71,4,2,4.89A3.46,3.46,0,0,0,60.72,20.56Z"/></g></g></svg>