<svg xmlns="http://www.w3.org/2000/svg" viewBox="0 0 184.51 150.04"><defs><style>.cls-1{fill:#f1f0e7;}.cls-2,.cls-3{fill:none;}.cls-2{stroke:#b9b5a3;stroke-linecap:round;stroke-linejoin:round;stroke-width:1.09px;}.cls-3{stroke:#fbba00;stroke-width:1.05px;}.cls-4{fill:#e30613;}.cls-5{fill:#fbba00;}.cls-6{fill:#ffde00;}</style></defs><title>espada</title><g id="Layer_2" data-name="Layer 2"><g id="Layer_1-2" data-name="Layer 1"><path class="cls-1" d="M60.86,105.76s29.49-13.55,80.6-58C159.08,32.5,184.51,0,184.51,0S150,17,129.92,32.59C75.69,74.56,56.18,99.5,56.18,99.5Z"/><path class="cls-2" d="M67.28,96.05l91.5-75.27"/><path class="cls-3" d="M32.48,98.68S19.08,94.88,9.36,104c-17,15.87.4,34.58.4,34.58"/><path class="cls-4" d="M46.12,118.41S43.89,124,36.47,130.3c-8.25,7-24.7,12.52-24.7,12.52L7.54,139s9.29-13.77,17.73-20.74,15.32-7.19,15.32-7.19Z"/><path class="cls-5" d="M21.87,73.45l-1.49,1.09,52.33,71.33,1.49-1.09Z"/><path class="cls-6" d="M21.79,69.84a3.44,3.44,0,1,0,2.26,4.32A3.44,3.44,0,0,0,21.79,69.84Z"/><path class="cls-6" d="M75.77,143.16A3.45,3.45,0,1,0,78,147.48,3.46,3.46,0,0,0,75.77,143.16Z"/><path class="cls-5" d="M76,114.53A27.82,27.82,0,0,1,62.35,133.6,65.44,65.44,0,0,1,29.73,88.91,27.83,27.83,0,0,1,76,114.53Z"/><path class="cls-6" d="M7.34,137.78A6.18,6.18,0,1,0,12.28,145,6.18,6.18,0,0,0,7.34,137.78Z"/></g></g></svg>