<svg xmlns="http://www.w3.org/2000/svg" viewBox="0 0 149.03 126.98"><defs><style>.cls-1{fill:#814114;}.cls-2{fill:#ae5321;}.cls-3{fill:#595549;}.cls-4{fill:#e8e6d9;}.cls-5{fill:#fff;}.cls-6{fill:none;stroke:#000;stroke-linecap:round;stroke-width:0.55px;}</style></defs><title>oveja</title><g id="Layer_2" data-name="Layer 2"><g id="Layer_1-2" data-name="Layer 1"><path class="cls-1" d="M64.66,70.54s1.49,20.09,2.41,27.32,1.64,14.87,1.64,14.87l7.6-.66s.91-6.07-.59-19.59-1.78-21.7-1.78-21.7Z"/><path d="M68.6,112.75s-4.3,8.12-3.5,9.41,6.36-4,6.36-4-2.19,5.94-.33,6.57,5.7-5.06,6.09-7.25-.94-5.39-.94-5.39Z"/><path class="cls-1" d="M110.31,70.54s1.5,20.09,2.4,27.32,1.64,14.87,1.64,14.87l7.61-.66s.9-6.07-.6-19.59-1.78-21.7-1.78-21.7Z"/><path d="M114.26,112.75s-4.3,8.12-3.5,9.41,6.36-4,6.36-4-2.21,5.94-.33,6.57,5.7-5.06,6.07-7.25-.92-5.39-.92-5.39Z"/><path class="cls-2" d="M107.29,72.39s-.28,20.14,0,27.41,0,15,0,15h7.62s1.77-6,1.47-19.55.13-21.77.13-21.77Z"/><path class="cls-3" d="M107.16,114.76s-5,7.71-4.32,9.08,6.7-3.45,6.7-3.45-2.71,5.72-.9,6.51,6.12-4.54,6.69-6.7-.46-5.44-.46-5.44Z"/><path class="cls-2" d="M61.63,72.39s-.28,20.14,0,27.41,0,15,0,15h7.62s1.77-6,1.48-19.55.12-21.77.12-21.77Z"/><path class="cls-4" d="M143.28,69.29c5.14,1.82,6.86,12.17,4,17.47-5.7-3.36-17.19-16.48-12.43-22.44"/><path class="cls-2" d="M35.86,15.2C28.31,15.2-1.63,21,.07,41c2.08,24.5,39.26,8.21,49.85-.35,5.71-4.59,8.76-13.17,5.29-20a13.15,13.15,0,0,0-9.57-6.9C42,13.32,39.11,15.2,35.86,15.2Z"/><path class="cls-5" d="M31.56,18.24c-5.79,2.25-6.9,11.48.79,13.52C37,33,43.44,28.5,41.91,23.19,39.84,16.12,33.59,17.45,31.56,18.24Z"/><path d="M31.89,23.83c-1,.39-1.29,1.9,0,2.23.78.21,2-.51,1.74-1.4A1.24,1.24,0,0,0,31.89,23.83Z"/><path class="cls-4" d="M47.32,42.11c-15,0-9.34,15.13-8.64,14.78-10.46,5.17-3.91,25,9.82,22.58-8.67,14,17.8,20,20.45,14.78,4.62,13.26,25.54,9.26,25.83.38,2.29,7.44,24.65,10,25.46-6.82,10.09,7.32,24-3.19,16-14.63,2.64,3.78,21-8,8.42-20.44,8.37-4.32,4-23-11.07-18.84,2.08-6.53-10.26-17.65-20.26-6.66C113.32,15.7,94,8.8,89.73,19.39c0-10.32-25.48-14.74-23.21.84-.78.13-8.93-4-9.52,9.91C51.36,28.28,42.59,30.05,47.32,42.11Z"/><path class="cls-2" d="M60.82,24.5c-4,4.37,6.84,12.36,10.64,13.63,3.45,1.09,7.46,1.82,10.74,0,5.63-3.08,1.22-7.07-2.55-8.91C68.94,24,63.77,24.5,60.82,24.5Z"/><path class="cls-1" d="M60.52,24.5C57.87,27.39,70.39,36,74.89,35.16c4.25-.81-3.5-4.21-5.79-5.78C67.29,28.19,61.85,24.86,60.52,24.5Z"/><path class="cls-4" d="M39.2,6.51c-2.59-1.14-9.36,1.59-9.63,4.74-.58,6.29,12.89,5.79,16,2.64C39,21.05,47.89,25,53.88,19.28c-2.58,3.43-4.57,9.74,0,12.3,4.3,2.58,12.95-2.14,11-10.18,6,0,4.16-17.29-9.56-8.71,11.16-5.15-9.39-20.51-8-7.73C46.8.07,39.45-1.07,39.2,6.51Z"/><path class="cls-3" d="M61.5,114.76s-5,7.71-4.32,9.08,6.7-3.45,6.7-3.45-2.73,5.72-.9,6.51,6.12-4.54,6.69-6.7-.44-5.44-.44-5.44Z"/><path class="cls-6" d="M.33,41.74a10.12,10.12,0,0,0,4.94-.24,5.11,5.11,0,0,0,3.64-4.57"/><path class="cls-6" d="M18.19,48a5.82,5.82,0,0,0,6.47.87,5.74,5.74,0,0,0,3.14-5.72"/></g></g></svg>