<svg xmlns="http://www.w3.org/2000/svg" viewBox="0 0 156.28 99.52"><defs><style>.cls-1{fill:#878481;}.cls-2{fill:#b91919;}.cls-3{fill:#e30613;}.cls-4{fill:#b1ada5;}</style></defs><title>patineta</title><g id="Layer_2" data-name="Layer 2"><g id="Layer_1-2" data-name="Layer 1"><path class="cls-1" d="M52.46,70.55a8.81,8.81,0,1,1-10.11-7.29A8.81,8.81,0,0,1,52.46,70.55Z"/><path class="cls-1" d="M133.17,47.55A8.82,8.82,0,1,1,123,40.26,8.82,8.82,0,0,1,133.17,47.55Z"/><path d="M35.14,86.62l7.62-17.71H36.52L30.79,87.32Z"/><path d="M144.89,56.77l-13.38-15-5.13,3.8,15.41,13.23Z"/><path class="cls-2" d="M11.6,60.37S-.48,56.92,0,61.11s.55,10.42,16.8,13.13S70.61,73,104.39,60.77c30-10.88,41.92-20.79,49.31-36.56s-3.48-23-3.48-23S117.6,41.64,83.33,50.28,11.6,60.37,11.6,60.37Z"/><path class="cls-3" d="M.25,59.63S-2.22,73.41,42.89,68.5c49.35-5.35,82.83-22.06,93.31-30.45,17.48-14,19.35-27,15.64-34.63s-16.71-.76-22.38,3.93S101.94,27.44,74.19,35C42.24,43.67,2.27,36.57.25,59.63Z"/><path d="M45.34,58.91c0-.79-1-1.42-2.21-1.42s-2.22.65-2.22,1.42,1,1.42,2.22,1.42S45.34,59.7,45.34,58.91Z"/><path d="M46.67,48.75c0-.8-1-1.42-2.21-1.42s-2.22.64-2.22,1.42,1,1.42,2.22,1.42S46.67,49.52,46.67,48.75Z"/><path d="M115.74,29.06c.16.78-.59,1.59-1.7,1.85s-2.14-.17-2.31-.94.59-1.59,1.7-1.85S115.57,28.31,115.74,29.06Z"/><path d="M119.59,37.6c.17.78-.53,1.52-1.53,1.81-1.29.37-2.23-.13-2.4-.9s.76-1.64,1.77-1.88A1.7,1.7,0,0,1,119.59,37.6Z"/><path class="cls-4" d="M40.86,89.29A8.82,8.82,0,1,1,30.73,82,8.82,8.82,0,0,1,40.86,89.29Z"/><path class="cls-4" d="M152.71,54.74A8.82,8.82,0,1,1,140.84,51,8.82,8.82,0,0,1,152.71,54.74Z"/><path d="M147.38,57.14a2.81,2.81,0,1,1-3.8-1.2A2.8,2.8,0,0,1,147.38,57.14Z"/><path d="M34.66,88.85a2.81,2.81,0,1,1-5,2.58,2.81,2.81,0,0,1,5-2.58Z"/></g></g></svg>