<svg xmlns="http://www.w3.org/2000/svg" viewBox="0 0 115.48 164.79"><defs><style>.cls-1{fill:#d5c2a2;}.cls-2{fill:#e4d5b8;}.cls-3{fill:#007572;}.cls-4{fill:#b91919;}.cls-5{fill:#e30613;}.cls-6{fill:#2fac66;}.cls-10,.cls-11,.cls-7{fill:none;stroke-linecap:round;}.cls-7{stroke:#007572;stroke-width:0.49px;}.cls-8{fill:#00a0a4;}.cls-9{fill:#dad8cc;}.cls-10{stroke:#b9b5a3;stroke-linejoin:round;stroke-width:0.33px;}.cls-11{stroke:#000;stroke-width:0.47px;}.cls-12{fill:#fff;}.cls-12,.cls-13{fill-rule:evenodd;}</style></defs><title>serafin</title><g id="Layer_2" data-name="Layer 2"><g id="Layer_1-2" data-name="Layer 1"><path class="cls-1" d="M81.19,56.51H66.45V80.06H81.19Z"/><path class="cls-2" d="M88.93,141.48a11.14,11.14,0,0,0,1.17,2.24l6.5-1.83-1.93-6.58-6.39,2.85A11,11,0,0,0,88.93,141.48Z"/><path class="cls-3" d="M94.25,153.2c-1.28-2.37-4.13-9.48-4.13-9.48l6.41-2.15s3.62,12.66,6.2,15.81c2,2.45-1.09,3.89-1.09,3.89l-2.7-.85A60.87,60.87,0,0,1,94.25,153.2Z"/><path class="cls-4" d="M102.33,159.55a2.49,2.49,0,0,0,3-1.19,7.93,7.93,0,0,0,2.88.84c2.73.18,5,1.72,5.34,3.65-1.45,1.75-4.75,2.15-8.62,1.86a10.63,10.63,0,0,1-6.25-3.1l.16,2.74-3.08-.17s-.07-4.66.1-6,.22-1.27.22-1.27S97.62,158.45,102.33,159.55Z"/><path class="cls-5" d="M106.22,158.74a5.43,5.43,0,0,1-3-2.7c-.83-1.64-1.09-2.39-3.25-.63-1.63,1.31.36,3.86,1.07,4.59C104.37,163.3,106.22,158.74,106.22,158.74Z"/><path d="M95.25,136.23s-.47.76-2.92,1.63a11.4,11.4,0,0,1-4.58.9L87,137a22.75,22.75,0,0,0,6-1.5,14.25,14.25,0,0,0,1.8-.95Z"/><path class="cls-2" d="M53.17,136.12c.73-.57,2.74-2,2.74-2s7.16,1.84,6.61,2.48a13.5,13.5,0,0,1-2.19,2.5c-1.13.91-7.23,4.17-7.23,4.17l-3.33-3.62A21.38,21.38,0,0,1,53.17,136.12Z"/><path class="cls-3" d="M39.38,150.25s4.25-4.89,6.16-7a66,66,0,0,1,5.54-5.47l5.05,3.89s-10.88,7.72-12,10.66S41,154.93,41,154.93l-3.25-3Z"/><path d="M47.46,53.28A7.49,7.49,0,0,1,46,56.09a12.32,12.32,0,0,1-3.49,2.11s4.25,1.85,7-.51c2.3-2,2-3.79,2-3.79l-3.23-3Z"/><path d="M61.84,107.61c-7.5,17.12-7.4,17.16-8.14,19.49-1.08,3.29-.29,6.07,4.18,8s7,2.38,11.25-3,5.6-8.86,7.64-4.73c3.79,7.72,7,10,10.2,9.86s9.9-1.75,9.3-6.55S91.15,109,87.79,107.37,61.84,107.61,61.84,107.61Z"/><path class="cls-2" d="M48.08,109.33s-3.29,7.58-2.09,8.5,2.76-3.4,2.76-3.4-.9,4.32.66,4.61,1.33-4.37,1.33-4.37.93,4.28,2.45,4.21,0-4.45,0-4.45,2.81,1,2.94-.14S51.93,110,51.93,110Z"/><path class="cls-2" d="M104.54,101.54s5.29,6.39,6.66,5.73-1.78-4-1.78-4,3.45,2.76,4.42,1.51-3.32-3.18-3.32-3.18,4.27,1.13,4.9-.22-4-2-4-2,2.21-2,1.2-2.67-5.69,1.75-5.69,1.75Z"/><path class="cls-4" d="M41.79,155.9c1.3,1.82,3.37-.26,3.37-.26A7.79,7.79,0,0,0,47,157.82c2.07,1.6,3.7,2.77,2.94,4.51-2.09.64-6,.66-8.5-1.82a14.73,14.73,0,0,1-3.34-5.75l-1.75,1.94-2.29-2.4s3.18-3.94,4.27-4.64a3.87,3.87,0,0,1,1.87-.7A9,9,0,0,0,41.79,155.9Z"/><path class="cls-5" d="M45.67,156.41a7,7,0,0,1-.63-3.32c.16-1.75.21-1.87-2.29-2.31-2.18-.39-2.54,1.92-1.65,4C42.87,159,45.67,156.41,45.67,156.41Z"/><path d="M61.69,137.86a8.36,8.36,0,0,1-3.76-.9,25.32,25.32,0,0,1-3.59-2.47l.89-1.09a14.49,14.49,0,0,0,4.09,2.13,28.51,28.51,0,0,0,3.39.78Z"/><path class="cls-6" d="M60.75,64.22s5.2-.38,8.37,1.2c2.24,2.67,8.55,7.33,8.55,7.33a87.75,87.75,0,0,0,2-11.32c.65-.56,2.11,1.41,2.11,1.41a63.3,63.3,0,0,1,7,22.41c.82,7.94,3.57,23.3.6,23.92-3.88,1.55-14.23,1.87-21.85,1.35-7.36-.51-7.87-1.21-8.15-5.66s2.81-20.71,2.81-20.71-4.27,8.24-4.64,13.67-.43,12.68-2.77,13c-2,.24-9,.65-9-2.14.09-5.12,2.06-14.47,4.94-22.58A139.62,139.62,0,0,1,60.75,64.22Z"/><path class="cls-6" d="M81.84,62.84s10.32,14.1,13.77,18.91c6.09,8.47,13.06,11.22,13.09,13.7,0,3.28-4.79,7.62-6.1,7.14-3.66-1.37-13.95-14.36-16.53-24.17C84.54,72.48,81.84,62.84,81.84,62.84Z"/><path class="cls-7" d="M75.87,83.72l6.8-9-5-2L74,76.44s10,5.09,11.13,5.41"/><path d="M74.44,76.66a1.06,1.06,0,0,1-1.07,1.06,1.05,1.05,0,0,1-1.06-1.07,1.09,1.09,0,0,1,1.09-1.06A1.07,1.07,0,0,1,74.44,76.66Z"/><path d="M82.21,74.61a1.08,1.08,0,0,0,2.16,0,1.1,1.1,0,0,0-1.07-1.09A1.06,1.06,0,0,0,82.21,74.61Z"/><path d="M76.57,84.09a1.1,1.1,0,0,1-1.13,1.09,1.08,1.08,0,0,1-1.08-1.1A1.09,1.09,0,0,1,75.48,83,1.07,1.07,0,0,1,76.57,84.09Z"/><path d="M84,82a1,1,0,0,0,1,1.07A1.06,1.06,0,1,0,84,82Z"/><path class="cls-2" d="M43.65,34.92S46.44,50,52,58.11c5.36,7.79,17.43,9.42,26,6.6S92.57,50.58,91.67,41.48C90.46,29.34,82.5,17,82,16.44,78.93,13.12,65.45,19,57.47,23S43.65,34.92,43.65,34.92Z"/><path class="cls-8" d="M84.39,17.27c6.73-2.4,6-15.56-3-17C73.1-1.09,63,3.19,55.75,7.19c-3.91,2.16-23.24,5.25-27.29,15.37-5.79,14.49,14.64,20.28,17.09,13,0,0,12.23-10.91,24.69-14.69C77.26,18.75,84.39,17.27,84.39,17.27Z"/><path class="cls-9" d="M54.39,28.75s-5-7.77-8-10.15c-1-.78-3.27-2.47-3.27-2.47l-.7,4.81-3.16-7.31s-1.14-.9-7-2.19l-5.85-1.29.48,5.22L22.43,9a53.85,53.85,0,0,0-8.79.74C8.76,10.5,0,11.81,0,11.81S8.65,16,11.49,18.19a16.94,16.94,0,0,0,4.7,2.75l6.29-4.26L17.85,22,30,25l5.69-4.44-3.35,4.87S43.65,28,46,27.93A66.07,66.07,0,0,1,54.39,28.75Z"/><path class="cls-3" d="M84.74,21.06a82,82,0,0,0-20.6,6.24c-9.58,4.39-15.87,9.58-20,12.62-2.58.15-1.27-4.37-1.27-4.37A69.41,69.41,0,0,1,61.13,24C74,18.5,77.67,18,83.79,17.41A2.26,2.26,0,0,1,84.74,21.06Z"/><path class="cls-10" d="M52.54,27.49s-10.68-6.19-20-9.32A115.32,115.32,0,0,0,6.58,12.9"/><path class="cls-10" d="M35.66,18.09l-2.18-4.87"/><path class="cls-10" d="M24.21,21.79l3.69-3.14"/><path class="cls-10" d="M37.7,25.64l3-2.67"/><path class="cls-11" d="M75.09,39.19A45.89,45.89,0,0,0,81.33,41c1.39.08,2.58.86-.17,2.79a9.45,9.45,0,0,1-4.88,1.92"/><path class="cls-11" d="M70.58,52.49A5.34,5.34,0,0,0,74,56.55c2.94.88,5.2-1.62,5.2-1.62"/><path class="cls-12" d="M62.62,31.52c-3.3.51-5,2.67-4.73,6s2.37,5.58,5.5,5.29a5.41,5.41,0,0,0,4.84-6.24C67.93,33.22,65.72,31,62.62,31.52Z"/><path class="cls-13" d="M65,35.19a.78.78,0,0,0-.73,1,.89.89,0,0,0,1,.88.93.93,0,0,0,.87-1A1,1,0,0,0,65,35.19Z"/><path class="cls-12" d="M82.57,26.61c-2.82.27-4,2.38-3.74,5.35s2.16,5,5,4.75A4.9,4.9,0,0,0,88.14,31,4.86,4.86,0,0,0,82.57,26.61Z"/><path class="cls-13" d="M85.2,30c-.54.05-.76.44-.71,1a.84.84,0,0,0,.93.85.91.91,0,0,0,.84-1A.9.9,0,0,0,85.2,30Z"/><path d="M42.32,42.11c-1.6,1.13-6.7,2.09-6.7,2.09a5.79,5.79,0,0,0,4.32,2.11A14.34,14.34,0,0,0,42,46.19a5.05,5.05,0,0,1-3.09,1.7,19.22,19.22,0,0,1-3.61.17c.09,1,4.83,4.94,8.35,2.1-1.22,2.72-6,3.57-6,3.57s6.72,3.26,10,.05c.73-.72,1.29-1.33,1.29-1.33s-2.67-6.31-2.82-7.62a30.37,30.37,0,0,0-1.92-4.94S44.33,40.7,42.32,42.11Z"/><path class="cls-2" d="M47.25,42.81s-4.67.75-4.35,3.72c.27,2.62,2.74,3.13,4.45,3s2.08-.71,2.08-.71Z"/><path d="M43.88,40.92a2,2,0,0,1-.51,2.21c-1,1.13-6.1,2.47-6.1,2.47A6.81,6.81,0,0,0,44.73,45c2.37-1.92,5.14-9.26,5.14-9.26l-5.68,4.25Z"/></g></g></svg>