<svg xmlns="http://www.w3.org/2000/svg" xmlns:xlink="http://www.w3.org/1999/xlink" viewBox="0 0 146.85 150.69"><defs><style>.cls-1{fill:#7dc327;}.cls-2{fill:#96ce17;}.cls-3{mask:url(#mask);}.cls-4{fill:red;}.cls-5{fill:#fff;}.cls-6{fill:#ffe610;}.cls-7{mask:url(#mask-2);}.cls-8{fill:#fd0706;}.cls-9{fill:none;stroke:#000;stroke-linecap:round;stroke-width:0.67px;}.cls-10{mask:url(#mask-3);}</style><mask id="mask" x="4.12" y="73.99" width="53.06" height="49.86" maskUnits="userSpaceOnUse"><g id="mask0"><path class="cls-1" d="M51.84,74s-13.1,25-18.31,28.68c-4.21,3-6.05,1.46-6.05,1.46S15.32,100,17.07,102.8s9.77,4.44,9.77,4.44-14.43.69-12.47,2.48,13.92,2,13.92,2-15.21,4.09-11.66,4.89c5,1.13,17.8-.87,19.62-3.72s16-23,19.89-27.46S51.84,74,51.84,74Z"/></g></mask><mask id="mask-2" x="24.95" y="80.93" width="49.59" height="55.36" maskUnits="userSpaceOnUse"><g id="mask1"><path class="cls-1" d="M65.46,80.93s-9.23,28.77-13.6,33.46c-3.52,3.81-5.63,2.64-5.63,2.64s-12.73-1.58-10.47.77,10.47,2.4,10.47,2.4-14,3.55-11.74,4.91,14-.85,14-.85-14.1,7-10.45,7.12c5.07.12,17.26-4.41,18.46-7.56S71,93.12,73.88,88C77.45,82,65.46,80.93,65.46,80.93Z"/></g></mask><mask id="mask-3" x="57.77" y="87.84" width="80.29" height="62.85" maskUnits="userSpaceOnUse"><g id="mask2"><path class="cls-2" d="M119.6,99.32c-9.55-4.54-29.91-18.08-37.76-7.59S96.19,128,96.19,128s-37.06.41-34.95,2.89,18.46.86,18.46.86-19.94,3.73-19.4,6S80.73,135,80.73,135,65,143.85,66.61,145.6s15.71-4.85,26.92-8.66,18.67,1.42,17.9-3.4S97.8,115.25,97.8,115.25s19.81,11.42,29.6,11.37C151.52,126.52,128.39,103.49,119.6,99.32Z"/></g></mask></defs><title>rana</title><g id="Layer_2" data-name="Layer 2"><g id="Layer_1-2" data-name="Layer 1"><path class="cls-1" d="M28.51,13.43a13.23,13.23,0,0,0,13,13.44,13.24,13.24,0,0,0,13-13.44A13.23,13.23,0,0,0,41.5,0,13.22,13.22,0,0,0,28.51,13.43Z"/><path class="cls-1" d="M64.09,18.1c-.9,8.39,6,13.83,13.37,13.83S90.23,26.34,90.85,18.1c.57-7.62-6-13.15-13.39-13.83C69.62,3.54,64.93,10.5,64.09,18.1Z"/><path class="cls-1" d="M51.84,74s-13.1,25-18.31,28.68c-4.21,3-6.05,1.46-6.05,1.46S15.32,100,17.07,102.8s9.77,4.44,9.77,4.44-14.43.69-12.47,2.48,13.92,2,13.92,2-15.21,4.09-11.66,4.89c5,1.13,17.8-.87,19.62-3.72s16-23,19.89-27.46S51.84,74,51.84,74Z"/><g class="cls-3"><path class="cls-4" d="M28.46,100.61s-1.58,4.92-1.62,6.63c0,1.42,1.36,4.84,1.9,6.16l1.64,3.91s-2.27,4.52-3.37,4.79-6.83,2.88-10.93,1.17S5.42,119.09,4.32,113.9,6.79,99.4,6.79,99.4l12.57-1.11Z"/></g><path class="cls-5" d="M31.17,13.43a10.34,10.34,0,1,0,20.67,0,10.34,10.34,0,1,0-20.67,0Z"/><path class="cls-1" d="M71.75,10.15C45.54,6.33-.13,31.91,0,45.88.19,66,36.91,65.24,36.91,65.24s13.45,10,19.23,20.15C74,106.19,119.37,127.18,136,124.54c10.92-1.73,13.28-10.22,8.42-42.55-5-33.35-43.66-47.37-43.66-47.37A34.86,34.86,0,0,0,71.75,10.15Z"/><path class="cls-5" d="M67.13,18.09c-.7,6.48,4.63,10.69,10.33,10.69s9.86-4.32,10.34-10.69c.44-5.88-4.66-10.15-10.34-10.68C71.4,6.84,67.78,12.23,67.13,18.09Z"/><path d="M75.52,18.11a1.86,1.86,0,0,0,2,2,2,2,0,0,0,0-4.05C76.32,16,75.63,17,75.52,18.11Z"/><path d="M37.39,11.39a1.65,1.65,0,0,0,1.75,1.81,1.81,1.81,0,0,0,0-3.61C38.12,9.49,37.5,10.4,37.39,11.39Z"/><path class="cls-6" d="M36.91,65.24S48,66,65.52,56.18c34.11,50,67.53,59,70.5,68.36.36,1.12-43.14-5.56-68.36-27.26C57.21,88.29,36.91,65.24,36.91,65.24Z"/><path d="M10.84,46.23A1.22,1.22,0,1,0,12.05,45,1.2,1.2,0,0,0,10.84,46.23Z"/><path d="M3.78,44.26a1.39,1.39,0,1,0,2.77,0,1.39,1.39,0,0,0-2.77,0Z"/><path class="cls-1" d="M65.46,80.93s-9.23,28.77-13.6,33.46c-3.52,3.81-5.63,2.64-5.63,2.64s-12.73-1.58-10.47.77,10.47,2.4,10.47,2.4-14,3.55-11.74,4.91,14-.85,14-.85-14.1,7-10.45,7.12c5.07.12,17.26-4.41,18.46-7.56S71,93.12,73.88,88C77.45,82,65.46,80.93,65.46,80.93Z"/><g class="cls-7"><path class="cls-4" d="M47.34,111.67s-.72,5.12-.46,6.81c.22,1.4,2.17,4.55,2.92,5.74s2.28,3.57,2.28,3.57-1.46,4.85-2.49,5.3-6.24,4-10.57,3-11.22-2.29-13.18-7.22-.06-14.7-.06-14.7L38,111Z"/></g><path class="cls-8" d="M18.36,101.41a2.09,2.09,0,1,1-2.09-2.09A2.09,2.09,0,0,1,18.36,101.41Z"/><path class="cls-8" d="M15.65,109.43a2.09,2.09,0,1,1-2.08-2.09A2.08,2.08,0,0,1,15.65,109.43Z"/><path class="cls-8" d="M17.74,116.52a2.09,2.09,0,1,1-2.09-2.09A2.09,2.09,0,0,1,17.74,116.52Z"/><path class="cls-8" d="M37.14,116.9a2.09,2.09,0,1,1-2.08-2.09A2.08,2.08,0,0,1,37.14,116.9Z"/><path class="cls-8" d="M36.32,124.55a2.09,2.09,0,1,1-2.08-2.09A2.08,2.08,0,0,1,36.32,124.55Z"/><path class="cls-8" d="M40.06,131A2.09,2.09,0,1,1,38,128.89,2.1,2.1,0,0,1,40.06,131Z"/><path class="cls-9" d="M36.91,64.58c29.87,0,29.87-14.49,29.87-14.49"/><path class="cls-2" d="M119.6,99.32c-9.55-4.54-29.91-18.08-37.76-7.59S96.19,128,96.19,128s-37.06.41-34.95,2.89,18.46.86,18.46.86-19.94,3.73-19.4,6S80.73,135,80.73,135,65,143.85,66.61,145.6s15.71-4.85,26.92-8.66,18.67,1.42,17.9-3.4S97.8,115.25,97.8,115.25s19.81,11.42,29.6,11.37C151.52,126.52,128.39,103.49,119.6,99.32Z"/><g class="cls-10"><path class="cls-4" d="M79.3,125.57s-.25,4.63.4,6.21a33.23,33.23,0,0,0,3.09,6.1l2.56,3.38s-1,4.94-2,5.48-5.89,4.51-10.29,3.88-11.37-1.36-13.74-6.12S58,129.86,58,129.86l11.9-4.24Z"/></g><path class="cls-8" d="M63.46,130.72a2.08,2.08,0,1,1-2.25-1.91A2.08,2.08,0,0,1,63.46,130.72Z"/><path class="cls-8" d="M62.86,137.16a2.09,2.09,0,1,1-2.25-1.91A2.09,2.09,0,0,1,62.86,137.16Z"/><path class="cls-8" d="M68.86,145.38a2.09,2.09,0,1,1-2.25-1.91A2.08,2.08,0,0,1,68.86,145.38Z"/><path class="cls-4" d="M121.49,89.52a4.18,4.18,0,1,1,2.8,5.21A4.19,4.19,0,0,1,121.49,89.52Z"/><path class="cls-4" d="M136.33,96.21a2.4,2.4,0,1,1,1.61,3A2.41,2.41,0,0,1,136.33,96.21Z"/><path class="cls-4" d="M107.38,77.82a1.83,1.83,0,1,1,1.23,2.28A1.84,1.84,0,0,1,107.38,77.82Z"/><path class="cls-4" d="M129.49,101.49a1.83,1.83,0,1,1,1.23,2.28A1.84,1.84,0,0,1,129.49,101.49Z"/><path class="cls-4" d="M138.71,85.31a3.37,3.37,0,1,1-2.25-4.2A3.36,3.36,0,0,1,138.71,85.31Z"/><path class="cls-4" d="M119.41,68.07a3.37,3.37,0,1,1-3-3.67A3.36,3.36,0,0,1,119.41,68.07Z"/><path class="cls-4" d="M133.24,72.41a4,4,0,1,1-3.65-4.4A4,4,0,0,1,133.24,72.41Z"/><path class="cls-4" d="M117.55,79.79a2.4,2.4,0,1,1,1.6,3A2.4,2.4,0,0,1,117.55,79.79Z"/></g></g></svg>