<svg xmlns="http://www.w3.org/2000/svg" viewBox="0 0 331.18 262.02"><defs><style>.cls-1{fill:#92c131;}.cls-2{fill:#1b8a4f;}.cls-2,.cls-6,.cls-7{fill-rule:evenodd;}.cls-3,.cls-7{fill:#814114;}.cls-4,.cls-6{fill:#2fac66;}.cls-5{fill:#a85318;}</style></defs><title>arboles</title><g id="Layer_2" data-name="Layer 2"><g id="Layer_1-2" data-name="Layer 1"><path class="cls-1" d="M4.81,233.76c-12.57-21.14,28.63-35.51,61-41.71s135.25,5.77,173.15,6,12.32,27.53,61.46,28.57S332.61,245.72,300,251s-116.32,12-170.39,10.86S17.38,254.9,4.81,233.76Z"/><path class="cls-2" d="M207.78,161.8s.68-1.43,8.83,0c30.57,5.37,53.82-8.8,50.51-9.31-18.25-2.81-32.84-6.74-30.64-8.08s30.82-3.84,25.4-4.55c-7.33-1-28.29-10-25.89-10.6,2.57-.7,27-1.56,22.25-3.43-17.45-6.84-24.33-13.89-22.15-13.16s19.77,2.79,16.53.5c-10.75-7.6-19.77-22-19.77-22s10.32,3.07,14,3.91S248.38,94,241.4,88a84,84,0,0,1-12.32-14,52,52,0,0,1,7.61,0c5.56.26,5,.94,0-4.78S218.8,51.1,221.43,50.09s15.81,7,13.33,4.36c-6.92-7.42-23.7-37.56-24.45-35.54S202.1,40.1,197,46.82s-15.19,12.44-10.34,12.1,13.5-4.47,13.5-4.47S195.64,67,192.25,70s-7.15,6.39-2.26,6,13.54-4.37,11.29-1.35-19,15.21-15.92,15.67,14-2.4,14-2.4-9.7,13.63-12.75,15.64-6.81,3.86-3.43,4.45S197,106.17,197,106.17s-7.94,13.6-18.66,19.93c-1.3.77,9,1,13.92,0s6.77-2.07,6.4,0-18.43,9.82-25.58,14.22c-4.93,3,22.19-.8,23.92,0,1.89.88-15.69,13.85-31.34,15.42-4.67.47,8.16,4,17.57,6S207.78,161.8,207.78,161.8Z"/><path class="cls-3" d="M221.74,159.1c.14-7.81-.57-23.13-.57-23.13l11.91-11.54-1.56-1.92s-1.25.28-4.46,2.7-7.22,4.77-7.22,4.77-.22-13.38-.46-16.45c-.45-5.73,1.57-7.48,1.57-7.48s1.8-1.29,4.31-3.06,4.54-3.39,4.54-3.39l-2-2.11a46.73,46.73,0,0,0-5,2.69,4.09,4.09,0,0,1-3.93.2s0-1.63-.22-6.59c-.16-4.57-.9-10.34-.11-12.81s5.78-10,5.78-10l-1.32-2.38a10.06,10.06,0,0,0-2.44,2.51c-1.18,1.69-4.61,6-4.61,6s-1.46-3.26-3.23-6.53c-2.16-4-1-4.54-3.33-4-2.51.64-1.78,1-.59,4.22,1.33,3.6,1.84,5,2.77,7,.74,1.58.21,24.5.21,24.5s.18,15-.45,15.24c-2.81,1-10.68-.79-10.68-.79l.08,2.26,10.92,3.45.24,25.64a19,19,0,0,1-5.73-1.07c-2-.94-2.37-.63-2.37-.63l-.82,2a12.92,12.92,0,0,0,4.31,2.29c1.44.31,3.56.85,4.65,1.14l-1.34,50.86,11.93-.43S221.61,166.67,221.74,159.1Z"/><path class="cls-4" d="M161.49,55.55c7.06-.24,21.13,2.15,32.44,10,13.36,9.33,17,15.43,20.46,31.22s-1.43,28-8.61,38.78-11.85,21.88-44.68,27.2c-18.59,3-48.75-8.78-54.23-33.26s1-41.55,7.29-47.91S130.51,56.63,161.49,55.55Z"/><path class="cls-5" d="M201.67,102.12l-8.42,4.71s-4.19.8-6.39,1.19c-2,.36-7.06,1.41-7.06,1.41L178,100.16h-1.95s1.16,9.44,0,10.13a83.73,83.73,0,0,1-10.88,3.43c-.87-8.59-1.84-18.11-1.84-19.23s3-3,5.43-4,7.8-2.46,10-3.13S182,86.22,182,86.22s-2.42-3.88-4-3.07-8.61,4.17-8.61,4.17L167,82.53h-2.76l1.64,4.79a2.13,2.13,0,0,1-2.47,0c-1.13-.94-2.1-5.24-2.1-8.84s0-5.2,0-5.2c1-.22,5.16,1.77,5.16,1.77l.8-1.25-5-3.15s1.23-1.59,2.79-4,1.47-2.32-1.22-3.66c0,0-1.73,2.63-3.08,4.75-.87,1.36-3.38,5.94-4.25,6.09s-1.21,0-3.6-.88l-2.27-.57-.9,2s5.43,1.46,5.69,3.23.54,15.38.54,15.38l-5.26-6.65-1.87.6s-.67,0,.14,1.49a13.38,13.38,0,0,0,1.73,2.52l-6.45-2-.07,2.53s4.78,1.33,6.67,2.14,5.38,2.69,5.38,2.69l.54,4.61c.54,4.61,1.08,18.81,1.08,18.81l-6.79-2.52-1.82-4.21,3.23-1.42-.81-1.22h-4l-3.28-4.83-2.07,1s2.93,3.62,2.93,4.36,2.3,6.26,2.3,6.26-4.53-1.47-5.82-1.93-17-4-17-4l-.27,3.68s10,3.51,12.73,4.83l.39.18a6,6,0,0,0-.68.53,20.12,20.12,0,0,1-5.83,3.24l1.27,3.24,9.07-5.65c1.62.48,6.88,2.47,7.74,2.78,2.44.89,7.36,2.88,8.17,5.9s-.24,12.15-.28,16.83c0,3.4-.59,3.66-2.22,3.33-1.86-.38-5-1.47-5-1.47a16,16,0,0,0-.1-3.09,22,22,0,0,0-1-4.3l-2.17-.82a21.05,21.05,0,0,0-.37,5.13c.06,1.46-3.59.66-5.25-.25a49,49,0,0,0-7.82-3.55c-2.54-.89-6-1.81-6-1.81L125.77,143a78,78,0,0,1,9.1,4l1.14.61-4.75,1.07,1.22,2.12a20.43,20.43,0,0,0,3-.62,33.8,33.8,0,0,1,4.11-.91c3.12,1.41,5.67,2.34,8.73,3.76,3.82,1.76,7.15,2.42,8.77,3.57s.27,34.35.27,42.35-.27,16.5-.27,16.5h12.38L167,146.69,177,138l.69,1a21.12,21.12,0,0,0,2.54,2.56l1.62-1.91L181,139a8.53,8.53,0,0,1-1.61-2.58l4.3-4-1.08-1.77s-4.3,2.57-7.2,4.39l-.32.2v-8.44s.56-1.81,0-2a3.45,3.45,0,0,0-1.62,0s-.36,1.69-.68,3.6c-.24,1.47-.85,6.66-1.12,9l-5,3.07s.17-8.67-.13-13c-.08-1.08-.31-3.57-.63-6.73,4.73-1.45,12.12-4.32,16.35-5.44,5.43-1.45,6.6-2.76,8.34-1.91s1.58,8.38,2.12,9.23l2.32-.84v-5.08H200l.78-1.69L195,114.1V109s7.64-4,7.79-5S201.67,102.12,201.67,102.12Z"/><path class="cls-6" d="M66.08,181.36s-.75-1.59-9.78,0C22.44,187.31-3.32,171.61.35,171c20.22-3.12,36.38-7.47,33.93-8.95s-34.14-4.25-28.14-5c8.12-1.07,31.34-11,28.68-11.74-2.85-.77-29.91-1.73-24.64-3.79,19.33-7.58,27-15.39,24.54-14.58s-21.9,3.1-18.3.56c11.91-8.41,21.9-24.35,21.9-24.35s-11.43,3.4-15.52,4.33-1.68-1.25,6.05-7.86c7.35-6.29,13.64-15.47,13.64-15.47a57.25,57.25,0,0,0-8.43,0c-6.16.29-5.51,1,0-5.29S53.88,58.74,51,57.63,33.46,65.4,36.21,62.46c7.67-8.22,26.25-41.6,27.09-39.37S72.39,46.55,78.05,54,94.87,67.78,89.5,67.41s-15-4.95-15-4.95,5,13.89,8.75,17.24,7.92,7.08,2.5,6.7-15-4.84-12.5-1.49,21.09,16.84,17.63,17.36-15.55-2.65-15.55-2.65S86.11,114.71,89.49,117s7.55,4.28,3.8,4.93S78,119.77,78,119.77s8.79,15.06,20.67,22.08c1.44.85-10,1.06-15.42,0s-7.5-2.29-7.08,0,20.42,10.88,28.34,15.75c5.46,3.36-24.58-.89-26.5,0-2.1,1,17.38,15.34,34.71,17.08,5.18.52-9,4.44-19.46,6.69S66.08,181.36,66.08,181.36Z"/><path class="cls-5" d="M50.61,168.4c-.15-8.65.64-25.62.64-25.62L38.05,130l1.73-2.12s1.39.31,4.94,3,8,5.28,8,5.28.25-14.82.51-18.22c.5-6.34-1.74-8.29-1.74-8.29s-2-1.43-4.77-3.39-5-3.76-5-3.76l2.19-2.33a51.81,51.81,0,0,1,5.49,3,4.56,4.56,0,0,0,4.36.22s0-1.8.24-7.3c.18-5.06,1-11.45.12-14.19s-6.41-11.11-6.41-11.11l1.47-2.64a11.32,11.32,0,0,1,2.7,2.77c1.31,1.87,5.11,6.6,5.11,6.6s1.62-3.61,3.58-7.23c2.39-4.4,1.13-5,3.69-4.37,2.79.71,2,1.12.65,4.67-1.47,4-2,5.54-3.07,7.76-.82,1.75-.23,27.13-.23,27.13s-.2,16.63.49,16.88c3.12,1.12,11.83-.88,11.83-.88l-.08,2.5-12.1,3.82-.27,28.4A21.4,21.4,0,0,0,67.8,155c2.24-1,2.63-.69,2.63-.69l.91,2.25a14.38,14.38,0,0,1-4.78,2.54c-1.6.34-4,.95-5.15,1.26l1.49,56.33-13.21-.47S50.76,176.78,50.61,168.4Z"/><path class="cls-2" d="M113.21,177c5.54,0,26-7.63,32-23.83s1.08-51.34-2.8-66.14-29-87-29-87-7.75,16.54-14.25,27.75-25.95,56-29.69,72.88-3.88,47,5.83,60C87.5,177,97,173.84,113.21,177Z"/><path class="cls-7" d="M111.66,216.84s-.29-20.73-.29-29.25-1.43-25.27.29-26.49,5.2-2.08,9.33-3.8a43.45,43.45,0,0,1,12.45-2.73l3.93-.34-.79-3.7a13.41,13.41,0,0,0-3.44,0c-2.87.18-3.73.35-5.16.49-2.7.26-4.38,1.54-4.31,0s.57-7.85-.86-7.22a19.08,19.08,0,0,1-2.31.88,23.37,23.37,0,0,0-1,4.58,15.75,15.75,0,0,0-.1,3.29s-3.37,1.16-5.36,1.56c-1.73.35-2.33.08-2.36-3.55,0-5-1.16-17.57-.3-20.78a7.63,7.63,0,0,1,5.26-5.7c1.71-.62,5.8-1.48,8.72-2.88a13.3,13.3,0,0,1,4.93-1.44L130,117a52.74,52.74,0,0,0-5.43,1.18c-1.37.49-6.19,2.06-6.19,2.06s2.45-5.88,2.45-6.66.29-4.21.29-4.21h-2.21l-.66,3.63h-4.29l-.86,1.3,3.43,1.51-1.94,4.48-3.79,1.54s.57-15.11,1.15-20l.57-4.91s3.72-2,5.73-2.86,7.1-2.28,7.1-2.28L125.25,89l-6.87,2.14a14,14,0,0,0,1.84-2.68c.86-1.62.14-1.58.14-1.58l-2-.64-5.6,7.08s.29-20.21.57-22.1,7.45-7.33,7.45-7.33l-1.06-1.51-1.52.65c-3.15,1.72-5.15,3.8-6,4.19s-7.62-13.64-9.11-14.51l-1.49-.86c-2.87,1.43-2.29,3.19-2.29,3.19a26.47,26.47,0,0,1,3.78,4.54c1.66,2.58,2.29,3.53,2.29,3.53l-4.64,4.1.85,1.33s3.86-3.75,4.94-3.52c.78.17,1.37,6.17,1.37,6.17s-2.58,14-2.58,17.78-1,8.41-2.23,9.41a2.29,2.29,0,0,1-2.64,0l1.75-5.09H99.3l-2.53,5.09S89.32,94.83,87.6,94s-4.3,3.27-4.3,3.27,1.14.45,3.44,1.17,8,2.22,10.6,3.33,5.79,3.15,5.79,4.32c0,2-1.23,19.3-1.55,23.89s-.14,13.81-.14,13.81-4-2.65-7-4.59-7.66-4.67-7.66-4.67l-1.15,1.89,4.58,4.28a9.17,9.17,0,0,1-1.72,2.75l-.86.69,1.72,2A22.83,22.83,0,0,0,92,143.43l.73-1,8.31,8.13-2.58,66.3h13.17Z"/></g></g></svg>