<svg xmlns="http://www.w3.org/2000/svg" viewBox="0 0 680 384.02"><defs><style>.cls-1{fill:#282727;fill-opacity:0.3;}.cls-2{fill:#e2cea2;}.cls-3{fill:#815849;fill-opacity:0.7;}.cls-4{fill:#bac1bb;}.cls-5{fill:#fff;}</style></defs><title>etiqueta</title><g id="Layer_2" data-name="Layer 2"><g id="Layer_1-2" data-name="Layer 1"><path class="cls-1" d="M0,111.57,81.51,20l82.37-.78,164.75-1.56,164.74-1.55,82.37-.78,83.23,90,.86,90.82,1.72,181.63L2.58,384,.86,202.39Z"/><path class="cls-2" d="M1.4,98.34,85,4.8l84.5-.8,169-1.6L507.5.8,592,0l85.38,92,.87,92.74L680,370.18,4,376.58,2.27,191.09Z"/><rect class="cls-3" x="301.8" y="2.4" width="74" height="63" transform="matrix(1, -0.01, 0.01, 1, -0.31, 3.21)"/><circle class="cls-4" cx="339.56" cy="31.85" r="15.67"/><circle class="cls-5" cx="339.3" cy="37.87" r="15.67"/></g></g></svg>