<svg xmlns="http://www.w3.org/2000/svg" viewBox="0 0 382 331.73"><defs><style>.cls-1{fill:#00a0a4;}.cls-2{fill:#e30613;}.cls-3,.cls-6{fill:none;}.cls-3{stroke:#f39200;stroke-miterlimit:10;stroke-width:0.87px;}.cls-4{fill:#f39200;}.cls-5{fill:#fff;}.cls-6{stroke:#a85318;stroke-width:0.48px;}.cls-7{fill:#49483e;fill-opacity:0.49;}.cls-8{fill:#e48306;}.cls-9{fill:#454444;}.cls-10{fill:#fab415;}</style></defs><title>zorrito</title><g id="Layer_2" data-name="Layer 2"><g id="Layer_1-2" data-name="Layer 1"><path class="cls-1" d="M76.42,160.72a7.53,7.53,0,0,0,1.52-3.67l-8.09-7.45-4.29,6.57,7.54,7.21S74.84,163.11,76.42,160.72Z"/><path class="cls-2" d="M33.54,128.63c6.36-10.35,18.7-9.17,24.65-7.15a31.06,31.06,0,0,1,7.27,4.13c1.92,1.32,13.76,13.37,3.18,28-8.32,11.48-20.4,9.91-28.53,5a17.83,17.83,0,0,1-3.73-2.93C30.06,149.45,28.16,137.38,33.54,128.63Z"/><path class="cls-3" d="M30.1,135.17a9.87,9.87,0,0,0,4.69.26c9.13-2.28,7.42-12.11,6.33-14.11"/><path class="cls-3" d="M38.14,122.73a7,7,0,0,1-1.74,9c-1.57,1.25-4.79,1.21-5.7.83"/><path class="cls-4" d="M58.2,129.93l-8.75.34L55,138A28.56,28.56,0,0,0,58.2,129.93Z"/><path class="cls-4" d="M51.48,142.51a33.35,33.35,0,0,0,3.12-4.44l-8.65-1,3.39,7.76C50.08,144.11,50.8,143.34,51.48,142.51Z"/><path class="cls-4" d="M58.19,121.49l-7,1.51,7.24,7.23C59.08,127.36,58.62,124.05,58.19,121.49Z"/><path class="cls-4" d="M49.34,144.85,41.1,141.7l1.38,8.36A31.19,31.19,0,0,0,49.34,144.85Z"/><path class="cls-4" d="M42.47,150.06l-8.16-4.32.14,7A23.49,23.49,0,0,0,42.47,150.06Z"/><path class="cls-4" d="M59.2,147.82c-5.67,6.81-13.34,10.49-20,10.33.54.33,11.63,1.77,11.63,1.77L50,155.37l8.59,1.15L57.24,150l8.69-.62-3-7,6-.69-3.3-6.71,4.31-.38-4.24-8.8.06.28C67.17,132.41,64.78,141.11,59.2,147.82Z"/><path class="cls-1" d="M58.19,121.49c1.33,6.46-1,14.07-6.68,20.85-5,6-11.52,9.76-17.53,10.4a16.14,16.14,0,0,0,5.26,5.41c6.63.16,14.26-3.54,19.93-10.34,6.11-7.35,8.11-15.18,6.47-22.08A22.57,22.57,0,0,0,58.19,121.49Z"/><path class="cls-5" d="M40.07,153.92a1.06,1.06,0,1,1-.87,1.22A1,1,0,0,1,40.07,153.92Z"/><path class="cls-5" d="M45.43,151.71a1.2,1.2,0,1,1,.38,2.36,1.21,1.21,0,0,1-1.37-1A1.19,1.19,0,0,1,45.43,151.71Z"/><path class="cls-5" d="M51.09,148.28A1.32,1.32,0,1,1,50,149.8,1.32,1.32,0,0,1,51.09,148.28Z"/><path class="cls-5" d="M55.29,143.58a1.45,1.45,0,1,1-1.2,1.67A1.45,1.45,0,0,1,55.29,143.58Z"/><path class="cls-5" d="M59.12,138a1.44,1.44,0,0,1,1.67,1.2,1.45,1.45,0,1,1-1.67-1.2Z"/><path class="cls-5" d="M61.54,131.82a1.33,1.33,0,1,1-1.09,1.52A1.34,1.34,0,0,1,61.54,131.82Z"/><path class="cls-5" d="M62.25,125.78a1.16,1.16,0,1,1-1,1.33A1.16,1.16,0,0,1,62.25,125.78Z"/><path class="cls-6" d="M250.09,276.83a71.39,71.39,0,0,0,13.56,5.82"/><path class="cls-6" d="M243.94,269.93a107.22,107.22,0,0,0,14.92,4.83"/><path class="cls-6" d="M255.22,268.25A66.75,66.75,0,0,0,263,270"/><path class="cls-6" d="M262.64,276.21a48.79,48.79,0,0,0,9.92.92"/><path class="cls-6" d="M262.65,278.82c5,1.69,10.62,2,15.84,2.08"/><path class="cls-6" d="M258,284.66c6.95,2.59,16.65,3,23.18,2.76"/><path class="cls-6" d="M244.6,279.19a113.78,113.78,0,0,0,12.54,4.19"/><path class="cls-6" d="M261,274.25a49.19,49.19,0,0,0,17.28-1.1"/><path class="cls-6" d="M248.31,269.4c3.32.5,6.66.83,10,1.1"/><path class="cls-6" d="M260.71,266.19a35.58,35.58,0,0,0,9.82-.44"/><path class="cls-6" d="M264.4,269.7a40.58,40.58,0,0,0,11.52-.49"/><path class="cls-6" d="M258.22,271.94a61.16,61.16,0,0,0,7.42,1.11"/><path class="cls-6" d="M261.85,293.86a61.87,61.87,0,0,0,11,.31"/><path class="cls-6" d="M249.69,262.85c2.44,1.07,5.13,2,7.9,2.92"/><path class="cls-6" d="M243.13,273c2.11,1.3,4.26,2.58,6.47,3.71"/><path class="cls-6" d="M253.23,275.74a86.46,86.46,0,0,0,8.39,2.91"/><path class="cls-6" d="M266.25,284.62a57.43,57.43,0,0,0,7.58-.82"/><path class="cls-6" d="M274.09,277.57c2.17.08,4.46,0,6.69,0"/><path class="cls-6" d="M245,284.32a89.77,89.77,0,0,0,18.35,4"/><path class="cls-6" d="M234.53,276.09c2.1,1.06,4.25,2.35,6.34,3.18"/><path class="cls-6" d="M276.12,283.67c5.85-.7,12.45-.95,19.27-4.24"/><path class="cls-6" d="M280.49,274.52a41.93,41.93,0,0,0,9.58-.8"/><path class="cls-6" d="M280.92,269.26a41.61,41.61,0,0,0,5.82-.95"/><path class="cls-6" d="M273.53,266.75c1.45,0,4.67-.31,6.63-.51"/><path class="cls-6" d="M270.27,263.66a31.13,31.13,0,0,0,4.59,1"/><path class="cls-6" d="M278.38,285.57a82.66,82.66,0,0,0,12.31-2.28"/><path class="cls-6" d="M268.17,291.51c4.35.74,9.24.47,12.38.57"/><path class="cls-6" d="M252.46,289.6a74.44,74.44,0,0,0,10,1.75"/><path class="cls-6" d="M256.06,261.43c1.82.62,4.63,1.61,5.87,1.87"/><path class="cls-6" d="M239.08,273.82a76.24,76.24,0,0,0,7.16,2.7"/><path class="cls-6" d="M243.3,263.8a63.9,63.9,0,0,0,6.47,2.45"/><path class="cls-6" d="M263.36,261a32.86,32.86,0,0,0,8.63.69"/><path class="cls-6" d="M242.09,287.1a104.75,104.75,0,0,0,15,6.9"/><path class="cls-7" d="M227.88,331.66c1.58-.08-.86-.42,1-.17A1,1,0,0,1,227.88,331.66Z"/><path class="cls-7" d="M226,331.7c-.33-.27-1.44-.45-.55-.78C225.52,331.17,226.08,331.46,226,331.7Z"/><path class="cls-7" d="M196.63,327.47c0,.08-.42-.14-.5-.18.36,0,.72-.19,1,0C196.76,327.24,196.81,327.37,196.63,327.47Z"/><path class="cls-7" d="M189.12,326.83a7.09,7.09,0,0,1,2.7-.28Z"/><path class="cls-7" d="M182.17,325.39c-.58-.23-.41-.33.4-.27C182.62,325.24,182.36,325.29,182.17,325.39Z"/><path class="cls-7" d="M181.64,325.9a2.29,2.29,0,0,1-1.14-.34C180.51,325.76,181.86,325.51,181.64,325.9Z"/><path class="cls-7" d="M166.47,324.19c-.37,0-1.17.14-1.51-.15C165.34,324.25,166.78,323.86,166.47,324.19Z"/><path class="cls-7" d="M159.36,324.08a1.41,1.41,0,0,0-.59,0c-.42-.13,0-.27.4-.27Z"/><path class="cls-7" d="M165.11,322.33l-.77.1.12-.23Z"/><path class="cls-7" d="M218.33,322.06c-.64.37-.56-.05-.69,0C218.27,321.79,217.52,322.37,218.33,322.06Z"/><path class="cls-7" d="M188.9,327.23h.23l-.06.48Z"/><path class="cls-4" d="M361.15,235.43c-30,7.7-53.66,3.57-68.93-.87-11.26-3.28-26.79-8.08-43-4.26-11.32,2.68-26.41,13.9-30.86,17.35v29c7.94,8.14,22.26,18.94,42.43,19,40.33.19,93.56-33.94,110.94-52.14C389.64,224.76,382.83,229.87,361.15,235.43Z"/><path class="cls-4" d="M211.59,281.15H198.17l1.56,31s-18.88,2.53-17,6.44c2.59,5.23,10.22.7,10.22.7s-8.44,6.29-3.2,7.87,10.34-3.5,10.34-3.5c-2.77,11.76,13.13,5.15,10.31-5.38Z"/><path class="cls-4" d="M138.16,279.88c1.71-3.53,15.29-10.37,15.29-10.37l-20.71-3.8s-8.69,10.71-8.46,14.41c.3,4.92,4.58,29.43,4.58,29.43s-20.52-1-17.12,5.69c1.88,3.73,8.56-.37,8.56-.37s-4.88,5.08-2.12,7.4,11.34-4.4,11.34-4.4-6.66,5.82.32,6.61,11.73-4.18,10-12C138.41,306.1,137.68,280.88,138.16,279.88Z"/><path class="cls-4" d="M122.68,169.22s-8.06,11-12.63,11c-5.13,0-21.15-11.11-21.15-11.11s2.63-9.77-1.21-10.63-5.1,4.69-5.1,4.69l-4.66,7.56s1,5.08,2.35,6c10.65,6.95,26.89,17.24,31.09,17.24,8.35,0,18.54-15.4,18.54-15.4Z"/><path class="cls-8" d="M137,50.25s5-15.29,7.67-23.32S155.71-.77,156.78,0,162.46,12.9,167.1,26.4c4.28,12.47,3.49,20.87,3.49,20.87Z"/><path class="cls-5" d="M152.12,26.41c1.11-1.18,2.18.68,3.45,4.21s4.51,13.09,4.51,13.09l-14.45,1.48S151,27.59,152.12,26.41Z"/><path class="cls-4" d="M174.41,43.67c-20.32-2.78-19.24-2.08-39.56,4.39-28.62,7.39-24.82,8.23-53.7,14.58C32.56,73.33-22.3,81.62,17.4,98.24c25.06,10.73,62.5,19.83,89.49,29.5,10.51,3.76,10.39,4.76,18.54,11.28,3.39,2.71,16.07,42.24,16.11,51.52.11,21-4.51,40.44-5.43,48.74-1.85,14.78,4.73,4.81,22.28,8.51,12.92,2.77,58.41,10.57,61.17-2.87,6.9-33.6,1.11-72.48-4.43-88.17-2.91-9.2-6.4-11.8-9.59-22.6,3.39-7.81,3.6-11.93,5.59-20,2.76.92,9.59,1.5,12.37,3.35-1.7-5.11-7.39-9.23-12-13.85,5.54,0,12,2.77,18.47,4.62a52.7,52.7,0,0,0-17.17-18.5c6.46-1.84,12.55,0,19,0-6.62-8.3-11.29-11.29-19-15.29-.66-2.33-.63-8-1.64-11.84.4-7,2.88-16.12,3-20.3.31-12.36,4.15-19.46,2.45-32.44C201.84,19.14,188.26,32.59,174.41,43.67Z"/><path class="cls-2" d="M67.27,156.1a39.33,39.33,0,0,0,6.2,7.65c10.94,10.72,31.4,29.73,33.71,31.37,2.89,2,5,3.83,7.13.41,4.07-6.61-33.92-35.51-36.78-38.91-1-1.26-3.24-2-4.57-3.11a9.06,9.06,0,0,1-2.84-3.45Z"/><path class="cls-5" d="M84.58,120.45s54.32.69,73.82,49.53c6.32,15.84,14.4,26.51,15.61,50.11s-3.93,40.19-3.93,40.19L133,249.73s5.31-40.1,3.78-60.11C133.05,141.7,90.65,123.33,84.58,120.45Z"/><path class="cls-5" d="M165.37,82.41c-2.81,7.45-12.52,10.88-21.27,7.57-6.57-2.47-11.44-12.32-3.89-20.87,6.93-7.84,13.1-7.66,19.57-4.18C166,68.26,168.19,75,165.37,82.41Z"/><path d="M145.47,74.9A2.42,2.42,0,0,0,150,76.6a2.42,2.42,0,1,0-4.54-1.7Z"/><path d="M139.36,118.58c6.07-.92,10.95-6.62,10.95-6.62s1.48,19.79-10.1,19.75c-9.06,0-12.79-15.17-12.79-15.17S134.73,119.26,139.36,118.58Z"/><path class="cls-5" d="M183,45.81l21.3-15.91-4.68,25.32Z"/><path class="cls-1" d="M134.41,234.5S177,239.86,192,239.07a135.15,135.15,0,0,0,29.5-5.4s.56,15,0,27.19a184.38,184.38,0,0,1-3,25.52s-24.58-3.6-29.18-3l-1.46-7.79L156,272.73l-6.31,7.11-30.9-9.09Z"/><path d="M182,241.22s2.2-55.12,13.16-70.31c10.68-14.79,20.39-14.5,20.39-14.5l-2.18-4.81s-12.59-1.16-26.12,17.94c-11.71,16.55-15.1,69.57-15.1,69.57Z"/><path class="cls-9" d="M171.41,243.43l10.42,1.35.53-6-10.57-1.17Z"/><path class="cls-2" d="M146.89,183.49a39.09,39.09,0,0,0,.75,9.83c2.89,15,8.9,42.32,9.87,45,1.21,3.33,2,6,5.62,4.4,7.12-3.12-7.68-48.49-8.09-52.92-.15-1.63-1.52-3.49-2-5.16a9.07,9.07,0,0,1-.37-4.46Z"/><path class="cls-1" d="M151.78,192.49a7.7,7.7,0,0,0,3.35-2.15l-2.41-10.73-7.27,3,2.09,10.23A5.54,5.54,0,0,0,151.78,192.49Z"/><path class="cls-2" d="M134.79,141.71c11.12-4.9,20.58,3.11,24.33,8.16a32.13,32.13,0,0,1,3.64,7.53c.82,2.19,3.69,18.83-13.32,24.83-13.38,4.71-22.42-3.46-26.32-12.1a18,18,0,0,1-1.39-4.53C120.08,156.84,125.39,145.85,134.79,141.71Z"/><path class="cls-3" d="M128.24,145.14A9.88,9.88,0,0,0,132,148c8.81,3.32,13-5.73,13.24-8"/><path class="cls-3" d="M141.93,139.48a7,7,0,0,1-6.54,6.41c-2,.13-4.63-1.74-5.16-2.56"/><path class="cls-4" d="M154.32,156.82l-7.38-4.71.14,9.5A28.75,28.75,0,0,0,154.32,156.82Z"/><path class="cls-4" d="M141.65,163.34a32.75,32.75,0,0,0,5.09-1.89l-6.56-5.72-1.63,8.3C139.57,163.85,140.61,163.63,141.65,163.34Z"/><path class="cls-4" d="M159.12,149.86l-6.61-2.74,1.84,10.07C156.51,155.2,158,152.21,159.12,149.86Z"/><path class="cls-4" d="M138.54,164l-5-7.28-3.63,7.66A30.38,30.38,0,0,0,138.54,164Z"/><path class="cls-4" d="M129.93,164.41l-4.25-8.2-3.87,5.85A23.21,23.21,0,0,0,129.93,164.41Z"/><path class="cls-4" d="M145,172.09c-8.54,2.38-16.93,1-22.29-2.86.26.58,8.55,8.07,8.55,8.07l1.9-4.21,6.42,5.83,2.59-6.19,7.49,4.44,1.52-7.5,5.31,2.83,1.1-7.41,3.75,2.15,1.51-9.65-.11.27C160.29,164,153.38,169.74,145,172.09Z"/><path class="cls-1" d="M159.12,149.86c-2.58,6.07-8.85,11-17.36,13.35-7.53,2.1-15,1.46-20.32-1.44a16.12,16.12,0,0,0,1.24,7.45c5.35,3.89,13.73,5.21,22.27,2.83,9.21-2.56,15.31-7.87,17.88-14.47A22.69,22.69,0,0,0,159.12,149.86Z"/><path class="cls-5" d="M125.77,166.21a1.06,1.06,0,1,1-1.42.51A1.06,1.06,0,0,1,125.77,166.21Z"/><path class="cls-5" d="M131.42,167.45a1.19,1.19,0,0,1-1,2.16,1.19,1.19,0,0,1,1-2.16Z"/><path class="cls-5" d="M138,167.85a1.33,1.33,0,1,1-1.77.64A1.33,1.33,0,0,1,138,167.85Z"/><path class="cls-5" d="M144.17,166.37a1.46,1.46,0,1,1-1.94.7A1.46,1.46,0,0,1,144.17,166.37Z"/><path class="cls-5" d="M150.47,164a1.46,1.46,0,1,1-1.94.7A1.45,1.45,0,0,1,150.47,164Z"/><path class="cls-5" d="M156,160.27a1.33,1.33,0,1,1-1.76.63A1.33,1.33,0,0,1,156,160.27Z"/><path class="cls-5" d="M160,155.71a1.17,1.17,0,0,1-1,2.11,1.18,1.18,0,0,1-.56-1.56A1.16,1.16,0,0,1,160,155.71Z"/><path class="cls-10" d="M155.19,192.59a4.6,4.6,0,0,1,.75-5.53c3.58-3.46,6.12,8.35,6.12,8.35s21.93,9,23.17,7.05c5-8,6.49-14,8.58-20.25.86-2.59,4.77-8.89,9-4.91s.86,10,.11,12.84c-2.4,8.93-7.34,24.23-16.68,25s-26.64-9.5-26.64-9.5-8,5.26-11.08,1.78c-2.32-2.62-.18-3.81-.18-3.81-1.54.58-5.63-3.15-2.5-6.15-1.37-.07-3.81-1.1-1-4.86S155.19,192.59,155.19,192.59Z"/><path class="cls-4" d="M68.42,168.49c-.48-3.61,3.25-14.49,7.24-12.63s0,9.86,0,9.86,3-7.84,7.56-5.68-2.31,10.26-2.31,10.26,5-4.67,6.72-1.81-5,13.79-10.72,9.59S68.84,171.66,68.42,168.49Z"/><path d="M19.64,76.27C5.2,79.11-6.83,81.82,4.46,91.05,15,99.66,35.75,105.3,35.75,105.3s2.71-24.51,0-32.49C35.72,72.81,23.66,75.48,19.64,76.27Z"/></g></g></svg>