<?xml version="1.0" encoding="utf-8"?>
<!-- Generator: Adobe Illustrator 26.5.0, SVG Export Plug-In . SVG Version: 6.00 Build 0)  -->
<svg version="1.1" id="Capa_1" xmlns="http://www.w3.org/2000/svg" xmlns:xlink="http://www.w3.org/1999/xlink" x="0px" y="0px"
	 viewBox="0 0 503 118" style="enable-background:new 0 0 503 118;" xml:space="preserve">
<style type="text/css">
	.st0{fill:#2BB673;}
	.st1{clip-path:url(#SVGID_00000013913146642053223960000008480821526672780215_);fill:#F7941D;}
	.st2{clip-path:url(#SVGID_00000013913146642053223960000008480821526672780215_);fill:#FFFFFF;}
	.st3{clip-path:url(#SVGID_00000013913146642053223960000008480821526672780215_);fill:none;stroke:#F7941D;stroke-width:0.11;}
	
		.st4{clip-path:url(#SVGID_00000013913146642053223960000008480821526672780215_);fill:none;stroke:#D3D2C2;stroke-width:0.11;stroke-linecap:round;}
	.st5{clip-path:url(#SVGID_00000013913146642053223960000008480821526672780215_);}
	.st6{clip-path:url(#SVGID_00000013913146642053223960000008480821526672780215_);fill:#5D3D3D;}
	.st7{fill:#F5F5F5;}
</style>
<path class="st0" d="M493.8,50.7v-0.2H492h-45H39.2L5.8,84l33.4,33.5H447h45h1.8v-0.2c5.2-0.9,9.2-5.4,9.2-10.8v-45
	C503,56.1,499,51.5,493.8,50.7z"/>
<g>
	<defs>
		<rect id="SVGID_1_" x="12" width="162" height="118"/>
	</defs>
	<clipPath id="SVGID_00000135653616800819692520000015685154978340055993_">
		<use xlink:href="#SVGID_1_"  style="overflow:visible;"/>
	</clipPath>
	<path style="clip-path:url(#SVGID_00000135653616800819692520000015685154978340055993_);fill:#F7941D;" d="M105.4,90.6
		c0,0,5.3,4.7,8.9,7.6c3.6,3,7.3,4.1,8.7,4.2c1.4,0.1,7.4-3,8.2-0.7c0.5,1.5-2.3,3.2-2.3,3.2s2.4,1.2,3,2.7c0.9,2.3-4.3,1.4-4.3,1.4
		s4.5,2.6,1.5,5.1c-1.8,1.5-6-1.9-9.5-6.1c-5-5.9-17.3-12-17.3-12"/>
	<path style="clip-path:url(#SVGID_00000135653616800819692520000015685154978340055993_);fill:#F7941D;" d="M69.7,94.1
		c0,0-6.8,6.1-10.2,9.2c-3.4,3.1-5.1,6.7-5.4,8c-0.3,1.4,2,7.7-0.4,8.2c-1.5,0.3-2.9-2.7-2.9-2.7s-1.5,2.2-3.1,2.5
		c-2.4,0.6-0.8-4.5-0.8-4.5s-4.2,4.8-6.3,1.5c-1.3-2,1.4-5.4,8.4-9.3c6.8-3.7,22-23.3,22-23.3"/>
	<path style="clip-path:url(#SVGID_00000135653616800819692520000015685154978340055993_);fill:#F7941D;" d="M75,69.6
		c-3.2,8.1-4.7,13.6-9.4,33.7s-10.1,32,0,36.1c10.1,4.1,28.3,4.4,33.7,3.1c1.4-0.4,4-5,4-16.2c0-11.3,5.8-54.4,5.8-54.4L84.7,52.7
		C84.7,52.7,78.9,59.5,75,69.6z"/>
	<path style="clip-path:url(#SVGID_00000135653616800819692520000015685154978340055993_);fill:#FFFFFF;" d="M97.5,130
		c0,14.9-5.6,5.3-11.5,5.3s-13.6,11.4-13.6-3.5S80.1,81.5,86,81.3C96.7,80.9,97.5,115.1,97.5,130z"/>
	<path style="clip-path:url(#SVGID_00000135653616800819692520000015685154978340055993_);fill:#F7941D;" d="M-8.2,121.2
		c15.1,4.7,27.4,3.7,35.4,2.3c5.9-1,14-2.6,22.2-0.2c6.8,2,15.8,9.6,15.8,9.6s-0.4,17.2-24,19.5c-20.6,2-46.8-19.1-55-28
		C-22.4,115.2-19.1,117.8-8.2,121.2z"/>
	<path style="clip-path:url(#SVGID_00000135653616800819692520000015685154978340055993_);fill:#FFFFFF;" d="M-9.5,119.7
		c14.6,4.8,26.4,5,34.4,4.2c-3.4,2.3-9.4,7.1-7.8,7.3c2.2,0.3,10.8,4.9,8.2,4.6c-2.6-0.3-9.1,0-9.1,0s6.5,6.5,5.6,6.8
		c-0.9,0.3-9.3-3.1-9.3-3.1s0.1,3.1-0.3,5.4c-12.1-6.8-22.7-15.5-27.3-21C-23.1,114.2-20.3,116.1-9.5,119.7z"/>
	
		<path style="clip-path:url(#SVGID_00000135653616800819692520000015685154978340055993_);fill:none;stroke:#F7941D;stroke-width:0.11;" d="
		M-9.5,119.7c14.6,4.8,26.4,5,34.4,4.2c-3.4,2.3-9.4,7.1-7.8,7.3c2.2,0.3,10.8,4.9,8.2,4.6c-2.6-0.3-9.1,0-9.1,0s6.5,6.5,5.6,6.8
		c-0.9,0.3-9.3-3.1-9.3-3.1s0.1,3.1-0.3,5.4c-12.1-6.8-22.7-15.5-27.3-21C-23.1,114.2-20.3,116.1-9.5,119.7z"/>
	
		<path style="clip-path:url(#SVGID_00000135653616800819692520000015685154978340055993_);fill:none;stroke:#D3D2C2;stroke-width:0.11;stroke-linecap:round;" d="
		M12.2,144.8c-12.1-6.8-22.7-15.5-27.3-21c-8-9.6-5.3-7.7,5.6-4.1c14.6,4.8,26.4,5,34.4,4.2"/>
	<path style="clip-path:url(#SVGID_00000135653616800819692520000015685154978340055993_);" d="M71.7,124.7c0,0,2.9-30,2.1-36.2
		c-1.5-11.5-2.8-12.2-2.8-12.2l1.5-1.9c0,0,3.3,2.9,5,14.4c0.9,6.7-1.2,36-1.2,36L71.7,124.7z"/>
	<path style="clip-path:url(#SVGID_00000135653616800819692520000015685154978340055993_);" d="M97.4,127.6c0,0,4.7-36.9,7.8-43.5
		c1.6-3.4,3.6-5.6,3.6-5.6l0.8-3.7c0,0-2.7-0.2-7.3,7.7c-3.9,6.8-8.8,44.5-8.8,44.5L97.4,127.6z"/>
	<path style="clip-path:url(#SVGID_00000135653616800819692520000015685154978340055993_);fill:#F7941D;" d="M119.1,45.4
		c0,0-0.9-1.6,0.8-2.5s7.3-2.5,7.3-2.5s-1.9-1.9-4.1-2.9c-1.8-0.8-6-1.7-6-1.7s-2.4-5.8-3.5-8.6C110,18,106.4,11.3,104,6
		c-2.4-5.3-3-0.7-3.7,1.1c-0.7,1.8-5.7,20.2-5.7,20.2s-2.4,0.7-9.5,2.5c-7.1,1.8-14.7,4.5-14.7,4.5S53.2,24,50.4,22.8
		c-2.8-1.2,1,9.9,2.2,13.8C54.7,44,55,51.3,55,51.3s-2.6,2.6-4.8,5.7c-2.1,3-4,9.4-2.3,7.1c1.7-2.4,8.2-3.6,8.2-3.6
		s-1.2,3.3-1.6,4.4c-1.2,3.7-2.2,7.2-2.2,7.2s2.3-1.1,5.4-4s4.2-3.7,2.4,0.9c-1.8,4.7-1.4,7.6-1.4,7.6s1.5-1.6,3.4-3.1
		c1.8-1.4,3.8-0.1,3.8-0.1s12.4,8.3,24.3,21c15.9,17.1,18.8,14.9,19,13.9c0.7-3.5,3-29.3,4.2-46.7c0.3-0.3,0-0.9,0.9-1.7
		c4.5-3.8,8.2-3.8,8.2-3.8s0-0.5-1.2-1.7c-2.2-2.2-4.4-3.3-4.4-3.3s-0.2-0.8,3.6-1.1c3.1-0.3,5.6-0.2,5.6-0.2s-1.2-1.4-2.9-2.4
		C121.3,46.5,119.1,45.4,119.1,45.4z"/>
	<path style="clip-path:url(#SVGID_00000135653616800819692520000015685154978340055993_);fill:#FFFFFF;" d="M109.7,39.1
		c3.2,2.4,4.3,8.4,1.5,12.2c-2.1,2.9-7.6,3.8-10.7-1c-2.9-4.5-1.4-7.3,0.7-10.1C103.4,37.3,106.5,36.7,109.7,39.1z"/>
	<path style="clip-path:url(#SVGID_00000135653616800819692520000015685154978340055993_);" d="M109.5,46.5c0.6,0.4,1.4,0.3,1.8-0.3
		c0.4-0.6,0.3-1.4-0.3-1.8c-0.6-0.4-1.4-0.3-1.8,0.3C108.8,45.2,108.9,46,109.5,46.5z"/>
	<path style="clip-path:url(#SVGID_00000135653616800819692520000015685154978340055993_);fill:#FFFFFF;" d="M69.6,51.2
		c-1.4,3.1,0.2,8.1,3.8,9.8c2.8,1.3,7.3-0.2,7.6-5.2c0.3-4.5-0.9-6.5-3.6-7.8C74.6,46.7,71,48,69.6,51.2z"/>
	<path style="clip-path:url(#SVGID_00000135653616800819692520000015685154978340055993_);" d="M75.9,55.3c0.4,0.6,1.2,0.8,1.8,0.4
		c0.6-0.4,0.8-1.2,0.4-1.8c-0.4-0.6-1.2-0.8-1.8-0.4S75.6,54.6,75.9,55.3z"/>
	<path style="clip-path:url(#SVGID_00000135653616800819692520000015685154978340055993_);fill:#FFFFFF;" d="M89.1,83.2
		c-5.3-7.3-15.3-9.6-22.6-9.3c4.4,3.7,7.7,6.5,18.7,16.7c1.4,1.3,7,6,8,7.3C92.9,93.3,92.2,87.4,89.1,83.2z"/>
	
		<path style="clip-path:url(#SVGID_00000135653616800819692520000015685154978340055993_);fill:none;stroke:#D3D2C2;stroke-width:0.11;stroke-linecap:round;" d="
		M66.5,73.9c4.1,3.7,5.9,4.4,17.3,15.4c1.3,1.3,8.8,7.6,9.8,9"/>
	<path style="clip-path:url(#SVGID_00000135653616800819692520000015685154978340055993_);fill:#FFFFFF;" d="M107.6,76.9
		c-0.3,4.4,0.8,12.7,3.2,14.9c1.3-13.9,2.6-28.5,3.4-31.7C111.4,61.4,108,68.9,107.6,76.9z"/>
	
		<path style="clip-path:url(#SVGID_00000135653616800819692520000015685154978340055993_);fill:none;stroke:#D3D2C2;stroke-width:0.11;stroke-linecap:round;" d="
		M110.8,91.7c1.3-13.9,2.6-28.5,3.4-31.7"/>
	<path style="clip-path:url(#SVGID_00000135653616800819692520000015685154978340055993_);fill:#FFFFFF;" d="M58.4,42.8
		c0,0-2.6-11.7-1.5-11c1,0.7,9.4,6.5,9.4,6.5s-3.3,1.3-4.3,2C60.9,41,58.4,42.8,58.4,42.8z"/>
	<path style="clip-path:url(#SVGID_00000135653616800819692520000015685154978340055993_);fill:#5D3D3D;" d="M98.8,104.1
		c5.4,5.2,10.2,9.2,10.8,4.4c0.8-7,1.2-16.7,1.2-16.7S97,95.8,93.6,98.5C93.6,98.5,97.3,102.6,98.8,104.1z"/>
</g>
<g>
	<path class="st7" d="M293.3,97.1c-0.3,0-0.5-0.1-0.7-0.2c-0.2-0.1-0.3-0.3-0.4-0.6c-0.1-0.3-0.2-0.7-0.2-1.1c0-0.4-0.1-0.7-0.2-1.1
		c-0.2-1.1-0.5-2.2-0.7-3.3c-0.2-1.1-0.4-2.2-0.6-3.3c-0.1-0.7-0.4-1.4-0.6-2.1c-0.2-0.7-0.4-1.4-0.6-2.1c-0.1-0.4-0.2-0.9-0.2-1.3
		s-0.1-0.8-0.3-1.3c-0.3-0.9-0.6-1.9-0.9-3c-0.3-1.1-0.5-2.1-0.6-3.1c0,0,0-0.1,0-0.2c0-0.1,0-0.2,0-0.3c0-0.1,0-0.2,0.1-0.3
		c0-0.1,0.1-0.1,0.2-0.1c0,0,0.1,0.1,0.3,0.1c0.2,0.1,0.3,0.1,0.3,0.1c0.5,0.1,1,0.1,1.5,0.2s1.1,0,1.5,0l0.4,0.3
		c0.2,1.9,0.5,3.8,1,5.5c0.5,1.8,0.9,3.5,1.3,5.4v0.5c0,0.2,0,0.4,0,0.5c0,0.2,0.1,0.3,0.1,0.5c0.1,0.1,0.2,0.3,0.3,0.3
		c0.1-0.1,0.2-0.2,0.3-0.4c0-0.2,0-0.4,0-0.5l0.8-3.7c0-0.1-0.1-0.1,0-0.2c0,0,0-0.1,0.1-0.1c0,0,0-0.1,0.1-0.1c0,0,0-0.1,0-0.2
		l0.8-3.6l0-0.3c0-0.1,0.1-0.2,0.1-0.4c0.1-0.2,0.1-0.4,0.2-0.7c0.1-0.2,0.1-0.5,0.2-0.7c0-0.2,0.1-0.3,0.1-0.4
		c0.1-0.3,0.1-0.5,0.1-0.8c0-0.3,0.1-0.5,0.2-0.7s0.2-0.4,0.4-0.6c0.2-0.1,0.5-0.2,0.8-0.3c0.1,0,0.2,0,0.3,0h0.2c0,0,0.1,0,0.2,0
		c0.1,0,0.2,0,0.4,0.1c0.1,0,0.2,0,0.4,0c0.1,0,0.2,0,0.2,0c0.4,0,0.8,0.1,1.1,0.2c0.3,0.1,0.5,0.3,0.5,0.8c0,0.6,0,1.1-0.3,1.7
		c-0.2,0.6-0.4,1.1-0.5,1.6c-0.4,1.8-0.8,3.5-1.2,5.3s-0.9,3.5-1.5,5.3v0.1c0,0.1-0.1,0.3-0.1,0.6s-0.2,0.5-0.2,0.9
		c-0.1,0.3-0.2,0.6-0.2,0.9c-0.1,0.3-0.1,0.4-0.2,0.6c-0.1,0.2-0.1,0.5-0.1,0.7c0,0.1-0.1,0.2-0.1,0.3c0,0.2-0.1,0.3-0.2,0.5
		c0,0.2-0.1,0.4-0.2,0.5s-0.1,0.3-0.1,0.4c0,0.1,0,0.2-0.1,0.4c0,0.2-0.1,0.4-0.1,0.6c0,0.2-0.1,0.4-0.1,0.6c0,0.2-0.1,0.3-0.1,0.4
		c0,0.3-0.1,0.5-0.1,0.8c0,0.3-0.2,0.5-0.6,0.5c-0.1,0-0.1,0-0.2,0s-0.1,0-0.2,0h-0.5h-0.7c-0.3,0-0.5,0-0.7,0
		C293.5,97.1,293.4,97.1,293.3,97.1z"/>
	<path class="st7" d="M243.1,97.4c-0.1,0-0.2-0.1-0.3-0.2c-0.1-0.1-0.2-0.2-0.2-0.3l-0.8-6.8c0-0.1,0-0.2-0.1-0.2
		c-0.1-0.1-0.1-0.1-0.2-0.1l-3.7,0.4l0.6,5.6c0,0.3,0.1,0.7,0.3,0.9c0.1,0.3,0.2,0.6,0.3,0.9c0,0.1,0,0.2,0,0.2c0,0-0.1,0.1-0.3,0.1
		c0,0-0.1,0-0.2,0c-0.1,0-0.1,0-0.1,0h-0.4c-0.2,0-0.4,0-0.6,0c-0.2,0-0.4,0-0.5,0c-0.2,0-0.3,0-0.3,0c-0.4,0-0.7,0-0.9-0.1
		c-0.2-0.1-0.4-0.2-0.5-0.4c-0.1-0.2-0.2-0.4-0.3-0.6c0-0.2-0.1-0.5-0.1-0.9c-0.1-1.2-0.2-2.3-0.3-3.5c-0.1-1.2-0.1-2.3-0.2-3.5
		c0,0,0-0.1,0-0.4s0-0.5,0-0.7c0-0.3,0-0.5-0.1-0.8s0-0.5-0.1-0.6c0-0.8,0-1.6,0.1-2.2c0.1-0.7,0.3-1.4,0.4-2.2
		c-0.1-0.4-0.1-0.8,0.1-1.2c0.2-0.4,0.3-0.8,0.4-1.1c0-0.2,0.1-0.3,0.1-0.5c0-0.1,0-0.3,0.1-0.5c0,0,0-0.1,0-0.1c0,0,0-0.1,0.1-0.1
		c0.2-0.4,0.4-0.9,0.6-1.3c0.2-0.4,0.4-0.9,0.7-1.3c0.2-0.3,0.4-0.5,0.7-0.8c0.3-0.3,0.6-0.5,0.9-0.8c0.3-0.2,0.7-0.4,1-0.6
		c0.4-0.1,0.7-0.2,1-0.3c1-0.1,1.7,0,2.2,0.4c0.5,0.4,1,0.8,1.3,1.4c0.3,0.6,0.5,1.2,0.7,1.8c0.2,0.7,0.4,1.3,0.6,1.9
		c0,0.1,0,0.2,0,0.4c0,0.2,0.1,0.4,0.1,0.5c0,0.2,0,0.4,0.1,0.5c0,0.2,0,0.3,0,0.3c0.1,1.4,0.2,2.8,0.3,4.3c0,1.4,0.1,2.9,0.1,4.3
		c0,0.4,0,0.7-0.1,1.1c0,0.4-0.1,0.8,0,1.1c0,0,0,0.2,0,0.3c0,0.2,0,0.4,0.1,0.6c0,0.2,0,0.4,0.1,0.6s0,0.3,0,0.3v1.1
		c0,0,0,0.2,0,0.3c0,0.2,0,0.4,0,0.6s0,0.4,0,0.6c0,0.2,0,0.3,0,0.4c0,0.1,0,0.3-0.1,0.6c0,0.3-0.2,0.4-0.4,0.4h-0.1
		c0,0-0.1,0-0.2,0c-0.1,0-0.2,0-0.2,0c-0.1,0-0.2,0-0.4,0c-0.2,0-0.4,0-0.6,0s-0.4,0-0.6,0C243.3,97.4,243.2,97.4,243.1,97.4z
		 M237.9,85.8c0,0.3,0.2,0.4,0.4,0.5s0.6,0.2,1,0.2c0.4,0,0.7,0,1.1,0c0.4,0,0.6,0,0.8,0c0,0,0.1,0,0.3,0c0.1,0,0.2,0,0.3,0
		c0-0.1,0.1-0.1,0.1-0.2c0,0,0-0.1,0.1-0.2c0-0.1,0-0.3,0-0.6s0-0.6,0-0.9c0-0.3,0-0.7,0-0.9s0-0.5,0-0.6c0,0,0-0.1,0-0.3v-0.3
		l-0.3-3.1c0-0.1-0.1-0.3-0.2-0.5c-0.1-0.2-0.2-0.4-0.3-0.5c-0.1-0.2-0.3-0.3-0.5-0.4c-0.2-0.1-0.4-0.1-0.6-0.1
		c-0.2,0-0.3,0.1-0.5,0.2c-0.7,0.7-1.1,1.5-1.3,2.3c-0.2,0.8-0.3,1.7-0.3,2.6c0,0.5,0,1,0,1.5C237.8,84.8,237.8,85.3,237.9,85.8z"/>
	<path class="st7" d="M250,94.5c0,0,0-0.1,0-0.3c0-0.1-0.1-0.3-0.2-0.5c-0.1-0.2-0.1-0.4-0.2-0.5c-0.1-0.2-0.1-0.3-0.1-0.4v-1.1
		v-1.1c0-0.1,0-0.4,0-0.9c0-0.4,0-0.9,0-1.4c0-0.5,0-1,0-1.4s0-0.7,0-0.9v-2c0-0.1,0-0.4,0.1-0.7c0-0.3,0-0.7,0-1c0-0.4,0-0.7,0-1
		c0-0.3,0-0.5,0-0.6c0,0,0-0.2,0-0.4c0-0.2,0-0.4,0.1-0.5c0.1-0.4,0.1-0.8,0.1-1.2c0-0.4,0.1-0.8,0.2-1.2c0.1-0.3,0.3-0.8,0.6-1.2
		c0.3-0.5,0.6-0.9,1-1.3c0.4-0.4,0.8-0.8,1.3-1.1c0.5-0.3,1-0.4,1.5-0.4c0.4,0,0.7,0,0.9,0c0.2,0,0.4,0.1,0.6,0.1
		c0.2,0.1,0.3,0.2,0.4,0.3c0.1,0.1,0.3,0.3,0.5,0.6c0,0,0,0.1,0.1,0.1l0.1,0.1v3l-0.3,0.2c-1,0-1.7,0.2-2.3,0.6
		c-0.6,0.4-0.9,0.9-1.1,1.7c0,0.2,0,0.4-0.1,0.9s-0.1,0.8-0.1,1.3s-0.1,0.9-0.1,1.3s-0.1,0.7-0.1,0.8v1.3c0,0.8,0,1.6,0,2.3
		c0,0.7,0,1.5,0.1,2.3c0,0.6,0.2,1.1,0.4,1.5c0.2,0.4,0.5,0.7,0.8,0.9s0.6,0.4,1,0.5s0.7,0.2,1,0.3c0.3,0.1,0.6,0.2,0.8,0.3
		s0.3,0.2,0.4,0.4V95c0,0.2,0,0.4,0,0.6c0,0.2,0,0.5,0,0.7c0,0.2-0.1,0.5-0.2,0.7c-0.1,0.2-0.3,0.3-0.6,0.4h-0.9
		c-1.3,0-2.4-0.2-3.4-0.7C251.2,96.3,250.5,95.5,250,94.5z"/>
	<path class="st7" d="M276.5,95.8c0,0,0-0.1,0-0.1c0,0,0-0.1,0-0.1c0-0.3,0-0.6,0.1-1c0-0.4,0.1-0.7,0.2-1c0.1-0.1,0.2-0.3,0.3-0.3
		c0.1-0.1,0.3-0.1,0.5-0.2c0.2,0,0.3-0.1,0.5-0.2c0.1,0,0.3-0.1,0.4-0.3c0,0,0,0,0-0.1c0-0.1,0-0.1,0-0.2c0,0,0-0.1,0-0.3
		c0-0.1,0-0.3,0-0.4c0-0.2,0-0.3,0-0.5v-0.3c-0.1-1.7-0.1-3.5,0-5.2s0-3.4-0.1-5.1c0,0,0-0.1,0-0.3c0-0.1,0-0.3,0-0.4
		c0-0.1,0-0.3,0-0.4c0-0.1,0-0.2,0-0.3c0-0.2-0.1-0.3-0.3-0.4c-0.2,0-0.3-0.1-0.5-0.1c-0.2,0-0.4-0.1-0.5-0.2
		c-0.1-0.1-0.2-0.3-0.3-0.5c0,0,0,0,0-0.1s0,0,0-0.1v-0.7c0-0.3,0-0.6,0-1s0-0.7,0-1v-0.6c0-0.2,0.1-0.4,0.2-0.6
		c0.1-0.3,0.2-0.4,0.4-0.4l0.1,0h0.1c0.3,0.1,0.8,0.1,1.3,0.1c0.6,0,1.2,0,1.8,0c0.6,0,1.2,0.1,1.7,0.2c0.5,0.1,0.9,0.3,1.1,0.6
		c0.1,0.1,0.2,0.3,0.2,0.6s0,0.5,0,0.6c0.1,0.9,0,1.6-0.1,1.9c-0.1,0.4-0.3,0.6-0.4,0.7c-0.2,0.1-0.3,0.2-0.5,0.3
		c-0.2,0-0.3,0.2-0.3,0.5c-0.1,0.9-0.2,1.8-0.3,2.7s0,1.8,0,2.7c0,0.9,0.1,1.8,0.1,2.7c0.1,0.9,0.1,1.8,0.2,2.7v0.3v0.6
		c0,0.2,0,0.4,0,0.6c0,0.2,0,0.3,0,0.3V92c0,0.3,0.1,0.4,0.3,0.5c0.2,0.1,0.4,0.2,0.6,0.2c0.2,0.1,0.4,0.2,0.6,0.3
		c0.2,0.1,0.3,0.3,0.3,0.7c0,0.1,0,0.4,0,0.7s0,0.6,0,0.9c0,0.3-0.1,0.5-0.2,0.8c-0.1,0.2-0.3,0.4-0.6,0.4c-0.4,0.1-0.9,0.1-1.5,0.1
		c-0.5,0-1,0-1.5,0c-0.1,0-0.2,0-0.5,0c-0.2,0-0.5,0.1-0.8,0.1s-0.5,0.1-0.8,0.1c-0.2,0-0.4,0-0.5,0c-0.3,0-0.6,0-0.8-0.2
		C276.6,96.4,276.5,96.2,276.5,95.8z"/>
	<path class="st7" d="M358.2,96.6c-0.1-0.1-0.2-0.1-0.3-0.2c-0.1-0.1-0.1-0.2-0.1-0.3c-0.1-1-0.1-2.1,0-3.1c0.1-1,0.2-2.1,0.2-3.1
		c0-1.3,0-2.6-0.1-3.9c-0.1-1.3-0.2-2.6-0.2-3.9c-0.1-1.3-0.2-2.6-0.2-3.9c0-1.3-0.1-2.6,0-3.8c0-0.1,0-0.3,0.1-0.4
		c0.1-0.1,0.2-0.2,0.3-0.3c0.2,0,0.5,0,0.8,0s0.5,0,0.7,0c0.1,0,0.2,0,0.5,0c0.2,0,0.5,0,0.8,0c0.3,0,0.5,0,0.8,0s0.4,0,0.5,0
		c0,0,0.1,0,0.3,0s0.3,0,0.5-0.1c0.2,0,0.3,0,0.5-0.1c0.1,0,0.2,0,0.3,0c0.1,0,0.3,0,0.6,0s0.6,0,0.9,0s0.5,0.1,0.8,0.1
		c0.2,0.1,0.4,0.2,0.4,0.4l0.2,2.7c0,0.2,0,0.3-0.2,0.4c-0.2,0.1-0.3,0.2-0.5,0.2c-0.4,0-0.9,0-1.3,0c-0.4-0.1-0.9-0.1-1.3,0
		c-0.1,0-0.2,0-0.4,0c-0.2,0-0.4,0-0.5,0.1c-0.2,0-0.3,0.1-0.5,0.2c-0.1,0.1-0.2,0.2-0.2,0.4c0.1,0.9,0.1,1.8,0,2.7
		c-0.1,0.9,0,1.8,0,2.7c0,0.1,0,0.2,0,0.4c0,0.2,0.1,0.3,0.2,0.4c0.1,0.1,0.2,0.1,0.4,0.1c0.2,0,0.4,0,0.6,0c0.2,0,0.4,0,0.5,0
		s0.3,0,0.4,0c0.1,0,0.2,0,0.5,0c0.2,0,0.5,0,0.7-0.1c0.3,0,0.5-0.1,0.7-0.1c0.2,0,0.4,0,0.5,0c0.1,0,0.1,0,0.2,0.1
		c0,0.1,0.1,0.1,0.1,0.2l0.2,2.1c0,0.2,0,0.4-0.1,0.6c-0.1,0.2-0.3,0.3-0.4,0.3c-0.5,0.1-0.9,0.1-1.4,0c-0.5-0.1-0.9-0.1-1.4,0
		c-0.3,0-0.5,0.1-0.6,0.2s-0.2,0.3-0.3,0.4c0,0.2-0.1,0.4-0.1,0.6v0.7c0,0.1,0,0.2,0,0.5c0,0.2,0,0.5-0.1,0.8c0,0.3-0.1,0.5-0.1,0.8
		c0,0.2,0,0.4-0.1,0.4c0,0,0,0.1,0,0.2c0,0.1,0,0.2,0,0.3c0,0.1,0,0.3,0.1,0.5c0,0.2,0.2,0.3,0.4,0.3h0.8h1.1h1.1h0.7
		c0.3,0,0.7,0,0.9,0.1c0.3,0.1,0.5,0.3,0.6,0.7c0,0,0,0.1,0,0.3c0,0.2,0.1,0.3,0.1,0.5c0,0.2,0.1,0.4,0.1,0.6s0,0.4,0.1,0.5v0.2
		c0,0.3,0,0.5-0.2,0.5c-0.2,0-0.4,0.1-0.6,0.1c-0.9,0.1-1.8,0.1-2.7,0.1c-0.9,0-1.8-0.1-2.7-0.1c-0.1,0-0.2,0-0.5,0s-0.4,0-0.4,0
		c-0.1,0-0.2,0-0.5,0c-0.2,0-0.5,0-0.7,0s-0.5,0-0.7,0C358.5,96.6,358.3,96.6,358.2,96.6z"/>
	<path class="st7" d="M338.2,97.4c-0.1,0-0.2-0.1-0.3-0.2c-0.1-0.1-0.2-0.2-0.2-0.3l-0.8-6.8c0-0.1,0-0.2-0.1-0.2s-0.1-0.1-0.2-0.1
		l-3.7,0.4l0.6,5.6c0,0.3,0.1,0.7,0.3,0.9c0.1,0.3,0.2,0.6,0.3,0.9c0,0.1,0,0.2,0,0.2c0,0-0.1,0.1-0.3,0.1c0,0-0.1,0-0.2,0
		c-0.1,0-0.1,0-0.1,0h-0.4c-0.2,0-0.4,0-0.6,0c-0.2,0-0.4,0-0.5,0c-0.2,0-0.3,0-0.3,0c-0.4,0-0.7,0-0.9-0.1
		c-0.2-0.1-0.4-0.2-0.5-0.4c-0.1-0.2-0.2-0.4-0.3-0.6s-0.1-0.5-0.1-0.9c-0.1-1.2-0.2-2.3-0.3-3.5c-0.1-1.2-0.1-2.3-0.2-3.5
		c0,0,0-0.1,0-0.4s0-0.5,0-0.7c0-0.3,0-0.5-0.1-0.8c0-0.3,0-0.5-0.1-0.6c0-0.8,0-1.6,0.1-2.2c0.1-0.7,0.3-1.4,0.4-2.2
		c-0.1-0.4-0.1-0.8,0.1-1.2c0.2-0.4,0.3-0.8,0.4-1.1c0-0.2,0.1-0.3,0.1-0.5s0-0.3,0.1-0.5c0,0,0-0.1,0-0.1c0,0,0-0.1,0.1-0.1
		c0.2-0.4,0.4-0.9,0.6-1.3s0.4-0.9,0.7-1.3c0.2-0.3,0.4-0.5,0.7-0.8c0.3-0.3,0.6-0.5,0.9-0.8c0.3-0.2,0.7-0.4,1-0.6
		c0.4-0.1,0.7-0.2,1-0.3c1-0.1,1.7,0,2.2,0.4c0.5,0.4,1,0.8,1.3,1.4c0.3,0.6,0.5,1.2,0.7,1.8c0.2,0.7,0.4,1.3,0.6,1.9
		c0,0.1,0,0.2,0,0.4c0,0.2,0.1,0.4,0.1,0.5c0,0.2,0,0.4,0.1,0.5s0,0.3,0,0.3c0.1,1.4,0.2,2.8,0.3,4.3c0,1.4,0.1,2.9,0.1,4.3
		c0,0.4,0,0.7-0.1,1.1c0,0.4-0.1,0.8,0,1.1c0,0,0,0.2,0,0.3c0,0.2,0,0.4,0.1,0.6c0,0.2,0,0.4,0.1,0.6s0,0.3,0,0.3v1.1
		c0,0,0,0.2,0,0.3c0,0.2,0,0.4,0,0.6c0,0.2,0,0.4,0,0.6c0,0.2,0,0.3,0,0.4c0,0.1,0,0.3-0.1,0.6c0,0.3-0.2,0.4-0.4,0.4h-0.1
		c0,0-0.1,0-0.2,0c-0.1,0-0.2,0-0.2,0c-0.1,0-0.2,0-0.4,0c-0.2,0-0.4,0-0.6,0c-0.2,0-0.4,0-0.6,0C338.4,97.4,338.3,97.4,338.2,97.4z
		 M333,85.8c0,0.3,0.2,0.4,0.4,0.5c0.3,0.1,0.6,0.2,1,0.2c0.4,0,0.7,0,1.1,0c0.4,0,0.6,0,0.8,0c0,0,0.1,0,0.3,0c0.1,0,0.2,0,0.3,0
		c0-0.1,0.1-0.1,0.1-0.2c0,0,0-0.1,0.1-0.2c0-0.1,0-0.3,0-0.6c0-0.3,0-0.6,0-0.9c0-0.3,0-0.7,0-0.9c0-0.3,0-0.5,0-0.6
		c0,0,0-0.1,0-0.3v-0.3l-0.3-3.1c0-0.1-0.1-0.3-0.2-0.5c-0.1-0.2-0.2-0.4-0.3-0.5c-0.1-0.2-0.3-0.3-0.5-0.4
		c-0.2-0.1-0.4-0.1-0.6-0.1c-0.2,0-0.3,0.1-0.5,0.2c-0.7,0.7-1.1,1.5-1.3,2.3c-0.2,0.8-0.3,1.7-0.3,2.6c0,0.5,0,1,0,1.5
		C332.9,84.8,332.9,85.3,333,85.8z"/>
	<path class="st7" d="M305.3,95.8c0,0,0-0.1,0-0.1c0,0,0-0.1,0-0.1c0-0.3,0-0.6,0.1-1c0-0.4,0.1-0.7,0.2-1c0.1-0.1,0.2-0.3,0.3-0.3
		c0.1-0.1,0.3-0.1,0.5-0.2c0.2,0,0.3-0.1,0.5-0.2c0.1,0,0.3-0.1,0.4-0.3c0,0,0,0,0-0.1c0-0.1,0-0.1,0-0.2c0,0,0-0.1,0-0.3
		c0-0.1,0-0.3,0-0.4c0-0.2,0-0.3,0-0.5v-0.3c-0.1-1.7-0.1-3.5,0-5.2s0-3.4-0.1-5.1c0,0,0-0.1,0-0.3c0-0.1,0-0.3,0-0.4
		c0-0.1,0-0.3,0-0.4c0-0.1,0-0.2,0-0.3c0-0.2-0.1-0.3-0.3-0.4c-0.2,0-0.3-0.1-0.5-0.1c-0.2,0-0.4-0.1-0.5-0.2
		c-0.1-0.1-0.2-0.3-0.3-0.5c0,0,0,0,0-0.1c0,0,0,0,0-0.1v-0.7c0-0.3,0-0.6,0-1c0-0.4,0-0.7,0-1v-0.6c0-0.2,0.1-0.4,0.2-0.6
		c0.1-0.3,0.2-0.4,0.4-0.4l0.1,0h0.1c0.3,0.1,0.8,0.1,1.4,0.1c0.6,0,1.2,0,1.8,0c0.6,0,1.2,0.1,1.7,0.2c0.5,0.1,0.9,0.3,1.1,0.6
		c0.1,0.1,0.2,0.3,0.2,0.6s0,0.5,0,0.6c0.1,0.9,0,1.6-0.1,1.9c-0.1,0.4-0.3,0.6-0.4,0.7c-0.2,0.1-0.3,0.2-0.5,0.3
		c-0.2,0-0.3,0.2-0.3,0.5c-0.1,0.9-0.2,1.8-0.3,2.7c0,0.9,0,1.8,0,2.7c0,0.9,0.1,1.8,0.1,2.7c0.1,0.9,0.1,1.8,0.2,2.7v0.3v0.6
		c0,0.2,0,0.4,0,0.6c0,0.2,0,0.3,0,0.3V92c0,0.3,0.1,0.4,0.3,0.5c0.2,0.1,0.4,0.2,0.6,0.2s0.4,0.2,0.6,0.3c0.2,0.1,0.3,0.3,0.3,0.7
		c0,0.1,0,0.4,0,0.7s0,0.6,0,0.9s-0.1,0.5-0.2,0.8c-0.1,0.2-0.3,0.4-0.6,0.4c-0.4,0.1-0.9,0.1-1.5,0.1c-0.5,0-1,0-1.5,0
		c-0.1,0-0.2,0-0.5,0c-0.2,0-0.5,0.1-0.8,0.1s-0.5,0.1-0.8,0.1c-0.2,0-0.4,0-0.5,0c-0.3,0-0.6,0-0.8-0.2
		C305.5,96.4,305.4,96.2,305.3,95.8z"/>
	<path class="st7" d="M265,96.6c0-0.1,0-0.3,0-0.5c0-0.3,0-0.4,0-0.5c0-0.7,0-1.3,0-1.9c0-0.6,0.1-1.3,0.2-1.9c0,0,0-0.1,0-0.2
		c0-0.1,0-0.1,0-0.1c0-0.5,0-1.1,0.1-1.6c0.1-0.5,0.1-1,0.1-1.6c0-1,0-2,0-3c-0.1-1-0.1-1.9-0.1-2.9c0-0.1,0-0.2,0-0.4
		c0-0.2,0-0.3,0-0.5c0-0.2,0-0.3,0-0.5c0-0.1,0-0.2,0-0.3c0,0,0-0.1,0-0.3c0-0.1,0-0.3,0.1-0.5c0-0.2,0-0.3,0.1-0.4
		c0-0.1,0-0.2,0-0.3v-0.1c0-0.1,0-0.3-0.2-0.3c-0.1-0.1-0.2-0.1-0.3-0.1c-0.6,0-1.3,0-1.8,0c-0.6,0-1.2,0-1.8,0
		c-0.2,0-0.3-0.1-0.5-0.2c0-0.1,0-0.3,0-0.6c0-0.3,0-0.5-0.1-0.6c0-0.2-0.1-0.5-0.1-0.9c0-0.4-0.1-0.8-0.1-1.2c0-0.4,0-0.8,0.1-1.1
		c0.1-0.3,0.3-0.5,0.5-0.6h0.1l10.7,0.1c0.1,0,0.3,0,0.4,0.1s0.1,0.2,0.2,0.3c0,0.1,0.1,0.3,0.1,0.4s0,0.3,0,0.3c0,0,0,0.1,0,0.2
		c0,0.1,0,0.3,0,0.5c0,0.2,0,0.4,0.1,0.5c0,0.2,0,0.3,0,0.5c0,0.1,0,0.2,0,0.3s0,0.3,0,0.5c0,0.2,0,0.4,0,0.5c0,0.2,0,0.3,0,0.3
		c0,0.1,0,0.2-0.1,0.3s-0.1,0.2-0.3,0.2c-0.5,0.1-1.1,0.1-1.6,0.1s-1.1,0-1.6,0.1c-0.1,0-0.2,0-0.3,0c-0.1,0-0.2,0-0.3,0.1
		c-0.1,0.1-0.2,0.3-0.2,0.5c0,0.2,0,0.4,0,0.7c0,0.2,0,0.4,0,0.7c0,0.2,0,0.4,0,0.6c-0.1,2.4-0.2,4.8-0.2,7.2c0,2.4,0.1,4.8,0.4,7.1
		c0,0.2,0,0.4-0.1,0.6s-0.2,0.4-0.4,0.4h0c0,0-0.1,0-0.3,0c-0.1,0-0.3,0-0.4,0s-0.3,0-0.4,0h-0.2c-0.1,0-0.3,0-0.5,0
		c-0.2,0-0.4,0-0.6,0s-0.4,0-0.6-0.1C265.3,96.8,265.1,96.7,265,96.6z"/>
	<path class="st7" d="M317.4,97.4c0,0-0.1-0.1-0.1-0.3c0-0.2,0-0.3,0-0.3c-0.1-0.8-0.1-1.5-0.1-2.3s0.1-1.5,0.1-2.3
		c0-1-0.1-1.9-0.3-2.9c-0.2-0.9-0.3-1.9-0.4-2.9c0-0.8,0-1.5,0-2.2c0-0.7,0-1.4,0-2.2c0-0.7,0-1.4-0.1-2.1c-0.1-0.7-0.1-1.4-0.2-2.1
		v-0.2v-0.3v-0.3V77c0-0.1,0-0.3-0.1-0.5s0-0.5-0.1-0.8c0-0.3,0-0.6-0.1-0.8c0-0.3,0-0.4,0-0.5c0-0.2,0.1-0.3,0.1-0.4
		c0-0.1,0.1-0.2,0.3-0.2c0,0,0.2,0,0.4-0.1c0.2,0,0.3,0,0.4,0c1.2-0.1,2.2-0.1,3.2,0.2c0.9,0.3,1.8,0.7,2.4,1.2
		c0.7,0.6,1.3,1.3,1.7,2.1c0.4,0.8,0.7,1.8,0.9,2.8c0.1,0.8,0.2,1.6,0.2,2.4s0,1.6-0.1,2.4c0.1,0.4,0.1,0.8,0,1.2
		c-0.1,0.4-0.1,0.8,0,1.2c0,0.7,0.1,1.5,0.1,2.4c0.1,0.9,0,1.8,0,2.7c-0.1,0.9-0.3,1.7-0.7,2.5c-0.4,0.8-0.9,1.4-1.7,1.8
		c-0.8,0.4-1.6,0.6-2.4,0.8s-1.7,0.2-2.6,0.4c0,0-0.1,0-0.3,0c-0.2,0-0.3,0-0.3,0c0,0-0.1-0.1-0.2-0.1
		C317.5,97.5,317.4,97.4,317.4,97.4z M320.4,93.1c0.1,0.2,0.2,0.2,0.4,0.2c0.2,0,0.4-0.1,0.6-0.4c0.1-0.2,0.2-0.5,0.3-0.8
		c0.1-0.3,0.1-0.6,0.2-0.9c0-0.3,0.1-0.5,0.1-0.7c0-0.1,0-0.4,0.1-0.6c0-0.3,0-0.5,0.1-0.8c0-0.2,0-0.5,0-0.6c0-0.2,0-0.3,0-0.3
		l0-0.3c0-1.2,0-2.4,0-3.6c0-1.2-0.1-2.5-0.3-3.7c-0.1-0.6-0.2-1.1-0.4-1.5c-0.1-0.4-0.4-0.8-0.9-1.2c-0.1-0.1-0.1-0.2-0.2-0.3
		s-0.2-0.1-0.3-0.1c-0.1,0-0.1,0.1-0.1,0.3s0,0.3,0,0.3c0.1,1.3,0.1,2.6,0.1,3.9c0,1.3,0,2.6,0.1,3.9c0,1.1,0,2.1-0.1,3.2
		s0,2.2,0.1,3.2c0,0,0,0.1,0,0.3C320.4,93,320.4,93.1,320.4,93.1z"/>
	<path class="st7" d="M345.7,97.4c0,0-0.1-0.1-0.1-0.3c0-0.2,0-0.3,0-0.3c-0.1-0.8-0.1-1.5-0.1-2.3s0.1-1.5,0.1-2.3
		c0-1-0.1-1.9-0.3-2.9c-0.2-0.9-0.3-1.9-0.4-2.9c0-0.8,0-1.5,0-2.2c0-0.7,0-1.4,0-2.2c0-0.7,0-1.4-0.1-2.1c-0.1-0.7-0.1-1.4-0.2-2.1
		v-0.2v-0.3v-0.3V77c0-0.1,0-0.3-0.1-0.5s0-0.5-0.1-0.8c0-0.3,0-0.6-0.1-0.8c0-0.3,0-0.4,0-0.5c0-0.2,0.1-0.3,0.1-0.4
		c0-0.1,0.1-0.2,0.3-0.2c0,0,0.2,0,0.4-0.1c0.2,0,0.3,0,0.4,0c1.2-0.1,2.2-0.1,3.2,0.2c0.9,0.3,1.8,0.7,2.4,1.2
		c0.7,0.6,1.3,1.3,1.7,2.1c0.4,0.8,0.7,1.8,0.9,2.8c0.1,0.8,0.2,1.6,0.2,2.4s0,1.6-0.1,2.4c0.1,0.4,0.1,0.8,0,1.2
		c-0.1,0.4-0.1,0.8,0,1.2c0,0.7,0.1,1.5,0.1,2.4c0.1,0.9,0,1.8,0,2.7c-0.1,0.9-0.3,1.7-0.7,2.5c-0.4,0.8-0.9,1.4-1.7,1.8
		c-0.8,0.4-1.6,0.6-2.4,0.8s-1.7,0.2-2.6,0.4c0,0-0.1,0-0.3,0c-0.2,0-0.3,0-0.3,0c0,0-0.1-0.1-0.2-0.1
		C345.7,97.5,345.7,97.4,345.7,97.4z M348.7,93.1c0.1,0.2,0.2,0.2,0.4,0.2c0.2,0,0.4-0.1,0.6-0.4c0.1-0.2,0.2-0.5,0.3-0.8
		c0.1-0.3,0.1-0.6,0.2-0.9c0-0.3,0.1-0.5,0.1-0.7c0-0.1,0-0.4,0.1-0.6c0-0.3,0-0.5,0.1-0.8c0-0.2,0-0.5,0-0.6c0-0.2,0-0.3,0-0.3
		l0-0.3c0-1.2,0-2.4,0-3.6c0-1.2-0.1-2.5-0.3-3.7c-0.1-0.6-0.2-1.1-0.4-1.5c-0.1-0.4-0.4-0.8-0.9-1.2c-0.1-0.1-0.1-0.2-0.2-0.3
		s-0.2-0.1-0.3-0.1c-0.1,0-0.1,0.1-0.1,0.3s0,0.3,0,0.3c0.1,1.3,0.1,2.6,0.1,3.9c0,1.3,0,2.6,0.1,3.9c0,1.1,0,2.1-0.1,3.2
		s0,2.2,0.1,3.2c0,0,0,0.1,0,0.3C348.7,93,348.7,93.1,348.7,93.1z"/>
	<path class="st7" d="M371.1,92.8c0.1-0.4,0.4-0.7,0.8-0.8c0.4-0.1,0.9-0.1,1.4-0.1c0.5,0,1.2,0.2,1.8,0.3c0.7,0.1,1.4,0.3,2.1,0.4
		c0.3,0,0.6-0.1,0.8-0.2c0.2-0.1,0.4-0.3,0.6-0.5c0.2-0.2,0.4-0.4,0.5-0.7s0.4-0.5,0.5-0.8c0,0,0-0.1,0.1-0.1c0-0.1,0-0.1,0-0.1
		l-0.1-1.9c0,0-0.2-0.1-0.4-0.3c-0.2-0.2-0.4-0.3-0.5-0.4c0,0-0.1-0.1-0.2-0.2c-0.1-0.1-0.2-0.1-0.2-0.1c-0.8-0.3-1.4-0.6-2.1-0.8
		c-0.7-0.2-1.3-0.4-1.8-0.7c-0.6-0.3-1.1-0.6-1.5-1.1c-0.5-0.5-0.9-1.1-1.2-2c0-0.1,0-0.2,0-0.3s0-0.3,0-0.4c0-0.1,0-0.3,0-0.4
		c0-0.1,0-0.2,0-0.2c0-0.3,0-0.6-0.1-1c0-0.3,0-0.7,0.1-1c0-0.1,0.1-0.2,0.1-0.5s0.1-0.4,0.2-0.7s0.2-0.5,0.2-0.7
		c0.1-0.2,0.1-0.4,0.1-0.4v-0.2c0.1-0.2,0.2-0.3,0.4-0.4s0.2-0.2,0.3-0.3s0.2-0.2,0.2-0.3c0.7-0.8,1.4-1.4,2.1-1.8s1.5-0.7,2.5-0.8
		c0.3,0,0.7,0,1.2,0.1c0.5,0.1,1.1,0.2,1.6,0.4s1,0.4,1.4,0.7c0.4,0.3,0.6,0.6,0.6,0.9c0,0.2,0,0.4,0,0.8c0,0.3-0.1,0.6-0.2,1
		c-0.1,0.3-0.2,0.6-0.4,0.8s-0.4,0.4-0.6,0.4c-0.6,0-1.1,0-1.7,0c-0.6,0-1.1-0.1-1.7,0c-0.1,0-0.3,0-0.7,0.1c-0.3,0-0.5,0.1-0.7,0.1
		c-0.1,0-0.2,0.1-0.3,0.1s-0.3,0.1-0.4,0.2s-0.3,0.2-0.4,0.3s-0.1,0.2-0.1,0.3l0.2,1.9c0,0.1,0.1,0.2,0.2,0.3
		c0.1,0.1,0.3,0.2,0.4,0.3s0.3,0.2,0.5,0.3c0.2,0.1,0.3,0.1,0.4,0.1c0.8,0.4,1.6,0.8,2.3,1.2c0.7,0.4,1.3,0.8,1.8,1.3
		c0.5,0.5,0.9,1.1,1.2,1.7c0.3,0.7,0.5,1.5,0.6,2.5c0.1,0.9,0,1.7-0.2,2.6c-0.2,0.8-0.5,1.6-1,2.3c-0.5,0.7-1,1.2-1.7,1.7
		c-0.7,0.4-1.5,0.7-2.4,0.8c-0.8,0.1-1.5,0.1-2.3,0c-0.8-0.1-1.5-0.2-2.2-0.5c-0.7-0.3-1.2-0.6-1.6-1.1
		C371.4,94.3,371.2,93.6,371.1,92.8z"/>
</g>
</svg>
