<?xml version="1.0" encoding="utf-8"?>
<!-- Generator: Adobe Illustrator 26.5.0, SVG Export Plug-In . SVG Version: 6.00 Build 0)  -->
<svg version="1.1" id="Capa_1" xmlns="http://www.w3.org/2000/svg" xmlns:xlink="http://www.w3.org/1999/xlink" x="0px" y="0px"
	 viewBox="0 0 503 118" style="enable-background:new 0 0 503 118;" xml:space="preserve">
<style type="text/css">
	.st0{fill:#2BB673;}
	.st1{fill:#FFFFFF;}
	.st2{clip-path:url(#SVGID_00000090986624691198074650000015171720389382681238_);fill:#F7941D;}
	.st3{clip-path:url(#SVGID_00000178198851209395939720000014522504266722066334_);fill:#F7941D;}
	.st4{clip-path:url(#SVGID_00000049222405636716436640000006757862184710220448_);fill:#F7941D;}
	.st5{clip-path:url(#SVGID_00000183954611309325245500000001871526765753681329_);fill:#FFFFFF;}
	.st6{clip-path:url(#SVGID_00000134971292417624434090000012518085785361480840_);fill:#F7941D;}
	.st7{clip-path:url(#SVGID_00000004517693125333152160000018440587601984055440_);fill:#FFFFFF;}
	.st8{clip-path:url(#SVGID_00000104703140261518078470000010454063992332279194_);fill:none;stroke:#F7941D;stroke-width:0.11;}
	
		.st9{clip-path:url(#SVGID_00000137833707097729838190000011807719695199376542_);fill:none;stroke:#D3D2C2;stroke-width:0.11;stroke-linecap:round;}
	.st10{clip-path:url(#SVGID_00000104674938977303715440000003863372971310526088_);}
	.st11{clip-path:url(#SVGID_00000042002216045253716920000008221333276474700934_);}
	.st12{clip-path:url(#SVGID_00000093891104286370195580000014212315919106017456_);fill:#F7941D;}
	.st13{clip-path:url(#SVGID_00000011737046314286345570000000039450553510201767_);fill:#FFFFFF;}
	.st14{clip-path:url(#SVGID_00000165220522342520394100000005537769772413533361_);}
	.st15{clip-path:url(#SVGID_00000069371610446278637630000007417994171743947933_);fill:#FFFFFF;}
	.st16{clip-path:url(#SVGID_00000168107444660400818810000014619751623519200692_);}
	.st17{clip-path:url(#SVGID_00000117650854260920054990000003992181176659466626_);fill:#FFFFFF;}
	
		.st18{clip-path:url(#SVGID_00000115489097376462028410000001218897648358928789_);fill:none;stroke:#D3D2C2;stroke-width:0.11;stroke-linecap:round;}
	.st19{clip-path:url(#SVGID_00000087376767770039214810000013933729472303067786_);fill:#FFFFFF;}
	
		.st20{clip-path:url(#SVGID_00000160174185766199158380000006785588414308580739_);fill:none;stroke:#D3D2C2;stroke-width:0.11;stroke-linecap:round;}
	.st21{clip-path:url(#SVGID_00000121272632180942555610000010765304065461896330_);fill:#FFFFFF;}
	.st22{clip-path:url(#SVGID_00000145746057009920649710000000854935583997137591_);fill:#5D3D3D;}
</style>
<path class="st0" d="M492.7,52.5v-0.2h-1.8h-45H38.1L4.7,85.8l33.4,33.5h407.8h45h1.8v-0.2c5.2-0.9,9.2-5.4,9.2-10.8v-45
	C501.9,57.8,497.9,53.3,492.7,52.5z"/>
<g>
	<path class="st1" d="M243.8,97l-0.3-0.2c-0.1-0.1-0.1-0.2-0.1-0.3c-0.1-1-0.1-2.1,0-3.1c0.1-1,0.2-2.1,0.2-3.1c0-1.3,0-2.6-0.1-3.9
		c-0.1-1.3-0.2-2.6-0.2-3.9c-0.1-1.3-0.2-2.6-0.2-3.9c0-1.3-0.1-2.6,0-3.8c0-0.1,0-0.3,0.1-0.4s0.2-0.2,0.3-0.3c0.2,0,0.5,0,0.8,0
		c0.3,0,0.5,0,0.7,0c0.1,0,0.2,0,0.5,0c0.2,0,0.5,0,0.8,0s0.5,0,0.8,0s0.4,0,0.5,0c0,0,0.1,0,0.3,0c0.1,0,0.3,0,0.5-0.1
		c0.2,0,0.3,0,0.5-0.1c0.1,0,0.2,0,0.3,0c0.1,0,0.3,0,0.6,0c0.3,0,0.6,0,0.9,0c0.3,0,0.5,0.1,0.8,0.1s0.4,0.2,0.4,0.4l0.2,2.7
		c0,0.2,0,0.3-0.2,0.4c-0.2,0.1-0.3,0.2-0.5,0.2c-0.4,0-0.9,0-1.3,0s-0.9-0.1-1.3,0c-0.1,0-0.2,0-0.4,0c-0.2,0-0.4,0-0.5,0.1
		c-0.2,0-0.3,0.1-0.5,0.2c-0.1,0.1-0.2,0.2-0.2,0.4c0.1,0.8,0.1,1.8,0,2.7c-0.1,0.9,0,1.8,0,2.7c0,0.1,0,0.2,0,0.4
		c0,0.2,0.1,0.3,0.2,0.4c0.1,0.1,0.2,0.1,0.4,0.1c0.2,0,0.4,0,0.6,0s0.4,0,0.5,0c0.2,0,0.3,0,0.4,0c0.1,0,0.2,0,0.5,0
		c0.2,0,0.5,0,0.7-0.1c0.3,0,0.5-0.1,0.7-0.1s0.4,0,0.5,0l0.2,0.1l0.1,0.2l0.2,2.1c0,0.2,0,0.4-0.1,0.6c-0.1,0.2-0.3,0.3-0.4,0.3
		c-0.5,0.1-0.9,0.1-1.4,0c-0.5-0.1-0.9-0.1-1.4,0c-0.3,0-0.5,0.1-0.6,0.2c-0.1,0.1-0.2,0.3-0.3,0.4c0,0.2-0.1,0.4-0.1,0.6v0.7
		c0,0.1,0,0.2,0,0.5s0,0.5-0.1,0.8c0,0.3-0.1,0.5-0.1,0.8c0,0.2,0,0.4-0.1,0.4c0,0,0,0.1,0,0.2c0,0.1,0,0.2,0,0.3
		c0,0.1,0,0.3,0.1,0.5c0,0.2,0.2,0.3,0.4,0.3h0.8h1.1h1.1h0.7c0.3,0,0.7,0,0.9,0.1s0.5,0.3,0.6,0.7c0,0,0,0.1,0,0.3
		c0,0.2,0.1,0.3,0.1,0.5c0,0.2,0.1,0.4,0.1,0.6c0,0.2,0,0.4,0.1,0.5v0.2c0,0.3,0,0.5-0.2,0.5c-0.2,0-0.4,0.1-0.6,0.1
		c-0.9,0.1-1.8,0.1-2.7,0.1c-0.9,0-1.8-0.1-2.7-0.1c-0.1,0-0.2,0-0.5,0c-0.3,0-0.4,0-0.4,0c-0.1,0-0.2,0-0.5,0c-0.2,0-0.5,0-0.7,0
		c-0.2,0-0.5,0-0.7,0C244,97,243.9,97,243.8,97z"/>
	<path class="st1" d="M290.5,97c-0.2,0-0.3-0.2-0.4-0.4c-0.1-0.2-0.2-0.4-0.2-0.6s-0.1-0.4-0.1-0.6c0-0.2-0.1-0.2-0.2-0.2
		c-0.1,0-0.3,0.1-0.5,0.3c-0.2,0.2-0.4,0.4-0.7,0.6c-0.3,0.2-0.5,0.4-0.9,0.6c-0.3,0.2-0.7,0.3-1,0.3c-0.4,0-0.9,0-1.3-0.1
		s-0.8-0.2-1.1-0.4c-0.8-0.4-1.4-1-1.8-1.7s-0.8-1.4-1-2.2c-0.2-0.8-0.4-1.6-0.5-2.4c-0.1-0.9-0.2-1.7-0.3-2.5
		c-0.1-1.5-0.2-3-0.1-4.5c0.1-1.5,0.2-3,0.3-4.5v-0.3c0-0.2,0-0.3,0-0.5c0-0.2,0-0.4,0-0.5v-0.3c0-0.3,0-0.6,0-0.9
		c0-0.3,0-0.5,0.1-0.7c0.1-0.2,0.2-0.3,0.4-0.5s0.5-0.2,0.9-0.3c0.1,0,0.3,0,0.5,0c0.2,0,0.4,0.1,0.6,0.1c0.2,0.1,0.4,0.1,0.6,0.2
		c0.2,0.1,0.3,0.2,0.4,0.3c0,0,0,0.1,0,0.2c0,0.1,0,0.2,0,0.2c0,0.5,0,1,0,1.5c0,0.5-0.1,1-0.1,1.6c-0.1,0.5-0.1,1-0.2,1.6
		c0,0.5-0.1,1-0.1,1.5c-0.1,1,0,1.9,0,2.8s0.2,1.9,0.3,2.8c0.1,0.7,0.2,1.3,0.3,1.9c0.1,0.6,0.4,1.2,1,1.7c0,0,0.2,0.1,0.4,0.3
		c0.2,0.1,0.3,0.2,0.4,0.3l0.1,0l0.1,0h0.1h0c0,0,0.1-0.1,0.3-0.1s0.2-0.1,0.3-0.3c0.4-0.9,0.7-1.8,0.9-2.6c0.2-0.8,0.3-1.7,0.4-2.6
		c0-0.9,0.1-1.7,0-2.6c0-0.9,0-1.8,0-2.7v-0.2c0-0.1,0-0.2,0-0.4s0-0.3,0-0.4c0-0.1,0-0.2,0-0.3c0,0,0-0.1,0-0.3s0-0.3,0.1-0.5
		c0-0.2,0-0.3,0.1-0.5s0-0.2,0-0.3c0-0.6,0-1,0-1.5c0-0.4,0-0.8,0-1.1c0.1-0.3,0.2-0.5,0.5-0.7c0.3-0.2,0.8-0.3,1.5-0.4
		c0.1,0,0.3,0,0.5-0.1c0.2,0,0.4,0,0.6,0c0.2,0,0.4,0,0.6,0.1c0.2,0.1,0.3,0.2,0.4,0.4c0,0.1,0,0.3,0.1,0.6c0,0.3,0.1,0.5,0.1,0.5
		c0.1,1,0.1,2,0,3c-0.1,1-0.1,2-0.2,3c0,0.3,0,0.6,0,1c0,0.4,0,0.7,0,1.1c0.1,1,0.3,2,0.3,2.9c0,1,0.1,2,0.1,2.9c0,1,0,2,0.1,3
		c0,1,0.1,2,0.1,3c0,0.2-0.1,0.3-0.2,0.5c-0.1,0.2-0.2,0.3-0.4,0.3c-0.4,0-0.9,0-1.2,0C291.5,96.8,291,96.9,290.5,97z"/>
	<path class="st1" d="M231.6,95.8c-0.1-1.2-0.2-2.4-0.1-3.7c0.1-1.3,0.1-2.5,0-3.7c0-1.2-0.1-2.3-0.2-3.4c-0.1-1.1-0.1-2.2-0.1-3.4
		c0-1.2,0-2.4,0-3.5s-0.1-2.2-0.2-3.4c0-0.3,0.2-0.6,0.5-0.8s0.6-0.3,0.9-0.3c0.3,0,0.7,0,1.1,0c0.4,0,0.8,0.2,1,0.5
		c0,0,0,0.1,0,0.3c0,0.1,0,0.2,0,0.3c0.1,0.8,0.1,1.6,0,2.4c-0.1,0.9-0.1,1.7-0.1,2.4c0,0.1,0,0.4,0,1c0,0.6,0.1,1.2,0.1,1.9
		s0.1,1.5,0.1,2.2c0,0.7,0.1,1.3,0.1,1.8c0.1,1,0.1,2,0.1,3c0,1,0.1,2,0.2,3c0.1,0.4,0.2,0.6,0.5,0.7c0.3,0.1,0.6,0.1,0.9,0.1
		c0.3,0,0.7,0,0.9,0s0.4,0.2,0.5,0.5c0,0.7,0,1.2,0,1.7c0,0.4-0.1,0.8-0.1,1.1s-0.2,0.5-0.3,0.5l-0.1,0h-0.1c-0.8,0-1.7-0.1-2.5-0.1
		c-0.9,0-1.7-0.1-2.6-0.2c-0.3,0-0.4-0.1-0.5-0.2S231.6,96.1,231.6,95.8z"/>
	<path class="st1" d="M318.3,96.4c-0.1,0-0.2-0.1-0.3-0.2c-0.1-0.1-0.2-0.2-0.2-0.3L317,89l-0.1-0.2l-0.2-0.1l-3.7,0.4l0.6,5.6
		c0,0.3,0.1,0.7,0.3,0.9s0.2,0.6,0.3,0.9c0,0.1,0,0.2,0,0.2c0,0-0.1,0.1-0.3,0.1l-0.2,0l-0.1,0h-0.4c-0.2,0-0.4,0-0.6,0
		c-0.2,0-0.4,0-0.5,0s-0.3,0-0.3,0c-0.4,0-0.7,0-0.9-0.1c-0.2-0.1-0.4-0.2-0.5-0.4c-0.1-0.2-0.2-0.4-0.3-0.6c0-0.2-0.1-0.5-0.1-0.8
		c-0.1-1.2-0.2-2.3-0.3-3.5c-0.1-1.2-0.1-2.3-0.2-3.5c0,0,0-0.1,0-0.4c0-0.2,0-0.5,0-0.7c0-0.3,0-0.5-0.1-0.8c0-0.3,0-0.5-0.1-0.6
		c0-0.8,0-1.6,0.1-2.2c0.1-0.7,0.3-1.4,0.4-2.2c-0.1-0.4-0.1-0.8,0.1-1.2c0.2-0.4,0.3-0.8,0.4-1.1c0-0.2,0.1-0.3,0.1-0.5
		c0-0.1,0-0.3,0.1-0.5l0-0.1l0.1-0.1c0.2-0.4,0.4-0.9,0.6-1.3c0.2-0.4,0.4-0.9,0.7-1.3c0.2-0.3,0.4-0.5,0.7-0.8
		c0.3-0.3,0.6-0.5,0.9-0.8c0.3-0.2,0.7-0.4,1-0.6c0.4-0.1,0.7-0.2,1-0.3c1-0.1,1.7,0,2.2,0.4c0.5,0.4,1,0.8,1.3,1.4s0.5,1.2,0.7,1.8
		c0.2,0.7,0.4,1.3,0.6,1.9c0,0.1,0,0.2,0,0.4c0,0.2,0.1,0.4,0.1,0.5c0,0.2,0,0.4,0.1,0.5c0,0.2,0,0.3,0,0.3c0.1,1.4,0.2,2.8,0.3,4.3
		s0.1,2.9,0.1,4.3c0,0.4,0,0.7-0.1,1.1c0,0.4-0.1,0.8,0,1.1c0,0,0,0.2,0,0.3c0,0.2,0,0.4,0.1,0.6s0,0.4,0.1,0.6c0,0.2,0,0.3,0,0.3
		v1.1c0,0,0,0.2,0,0.3c0,0.2,0,0.4,0,0.6s0,0.4,0,0.6c0,0.2,0,0.3,0,0.4c0,0.1,0,0.3-0.1,0.6c0,0.3-0.2,0.4-0.4,0.4h-0.1
		c0,0-0.1,0-0.2,0c-0.1,0-0.2,0-0.2,0c-0.1,0-0.2,0-0.4,0c-0.2,0-0.4,0-0.6,0c-0.2,0-0.4,0-0.6,0S318.4,96.4,318.3,96.4z M313,84.8
		c0,0.3,0.2,0.4,0.4,0.5c0.3,0.1,0.6,0.2,1,0.2c0.4,0,0.7,0,1.1,0c0.4,0,0.6,0,0.8,0c0,0,0.1,0,0.3,0c0.1,0,0.2,0,0.3,0l0.1-0.2
		l0.1-0.2c0-0.1,0-0.3,0-0.6s0-0.6,0-0.9c0-0.3,0-0.7,0-0.9s0-0.5,0-0.6c0,0,0-0.1,0-0.3v-0.3l-0.3-3.1c0-0.1-0.1-0.3-0.2-0.5
		c-0.1-0.2-0.2-0.4-0.3-0.5c-0.1-0.2-0.3-0.3-0.5-0.4c-0.2-0.1-0.4-0.1-0.6-0.1c-0.2,0-0.3,0.1-0.5,0.2c-0.7,0.7-1.1,1.5-1.3,2.3
		c-0.2,0.8-0.3,1.7-0.3,2.6c0,0.5,0,1,0,1.5C313,83.8,313,84.3,313,84.8z"/>
	<path class="st1" d="M256.1,94.1c0,0,0-0.1,0-0.3c0-0.1-0.1-0.3-0.2-0.5c-0.1-0.2-0.1-0.4-0.2-0.5c-0.1-0.2-0.1-0.3-0.1-0.4v-1.1
		v-1.1c0-0.1,0-0.4,0-0.9c0-0.4,0-0.9,0-1.4s0-1,0-1.4s0-0.7,0-0.9v-2c0-0.1,0-0.4,0.1-0.7c0-0.3,0-0.7,0-1s0-0.7,0-1
		c0-0.3,0-0.5,0-0.6c0,0,0-0.2,0-0.4c0-0.2,0-0.4,0.1-0.5c0.1-0.4,0.1-0.8,0.1-1.2c0-0.4,0.1-0.8,0.2-1.2c0.1-0.3,0.3-0.8,0.6-1.2
		c0.3-0.5,0.6-0.9,1-1.3c0.4-0.4,0.8-0.8,1.3-1.1c0.5-0.3,1-0.4,1.5-0.4c0.4,0,0.7,0,0.9,0c0.2,0,0.4,0.1,0.6,0.1
		c0.2,0.1,0.3,0.2,0.4,0.3c0.1,0.1,0.3,0.3,0.5,0.6l0.1,0.1l0.1,0.1v3l-0.3,0.2c-1,0-1.7,0.2-2.3,0.6c-0.6,0.4-0.9,0.9-1.1,1.7
		c0,0.2,0,0.4-0.1,0.9c0,0.4-0.1,0.8-0.1,1.3c0,0.4-0.1,0.9-0.1,1.3c0,0.4-0.1,0.7-0.1,0.8v1.3c0,0.8,0,1.6,0,2.3
		c0,0.7,0,1.5,0.1,2.3c0,0.6,0.2,1.1,0.4,1.5c0.2,0.4,0.5,0.7,0.8,0.9c0.3,0.2,0.6,0.4,1,0.5c0.3,0.1,0.7,0.2,1,0.3s0.6,0.2,0.8,0.3
		c0.2,0.1,0.3,0.2,0.4,0.4v0.9c0,0.2,0,0.4,0,0.6c0,0.2,0,0.5,0,0.7c0,0.2-0.1,0.5-0.2,0.7c-0.1,0.2-0.3,0.3-0.6,0.4h-0.9
		c-1.3,0-2.4-0.2-3.4-0.7C257.3,95.9,256.6,95.1,256.1,94.1z"/>
	<path class="st1" d="M271.2,96.6c0-0.1,0-0.3,0-0.5c0-0.3,0-0.4,0-0.5c0-0.7,0-1.3,0-1.9c0-0.6,0.1-1.3,0.2-1.9v-0.2l0-0.1
		c0-0.5,0-1.1,0.1-1.6s0.1-1,0.1-1.6c0-1,0-2,0-3c-0.1-1-0.1-1.9-0.1-2.9c0-0.1,0-0.2,0-0.4c0-0.2,0-0.3,0-0.5c0-0.2,0-0.3,0-0.5
		s0-0.2,0-0.3c0,0,0-0.1,0-0.3c0-0.1,0-0.3,0.1-0.5s0-0.3,0.1-0.4c0-0.1,0-0.2,0-0.3v-0.1c0-0.1,0-0.3-0.2-0.3
		c-0.1-0.1-0.2-0.1-0.3-0.1c-0.6,0-1.3,0-1.8,0c-0.6,0-1.2,0-1.8,0c-0.2,0-0.3-0.1-0.5-0.2c0-0.1,0-0.3,0-0.6c0-0.3,0-0.5-0.1-0.6
		c0-0.2-0.1-0.5-0.1-0.9c0-0.4-0.1-0.8-0.1-1.2c0-0.4,0-0.8,0.1-1.1c0.1-0.3,0.3-0.5,0.5-0.6h0.1l10.7,0.1c0.1,0,0.3,0,0.4,0.1
		c0.1,0.1,0.1,0.2,0.2,0.3c0,0.1,0.1,0.3,0.1,0.4s0,0.3,0,0.3c0,0,0,0.1,0,0.2s0,0.3,0,0.5c0,0.2,0,0.4,0.1,0.5c0,0.2,0,0.3,0,0.5
		c0,0.1,0,0.2,0,0.3s0,0.3,0,0.5c0,0.2,0,0.4,0,0.5s0,0.3,0,0.3c0,0.1,0,0.2-0.1,0.3c-0.1,0.1-0.1,0.2-0.3,0.2
		c-0.5,0.1-1.1,0.1-1.6,0.1c-0.5,0-1.1,0-1.6,0.1c-0.1,0-0.2,0-0.3,0s-0.2,0-0.3,0.1c-0.1,0.1-0.2,0.3-0.2,0.5c0,0.2,0,0.4,0,0.7
		s0,0.4,0,0.7c0,0.2,0,0.4,0,0.6c-0.1,2.4-0.2,4.8-0.2,7.2s0.1,4.8,0.4,7.1c0,0.2,0,0.4-0.1,0.6c0,0.3-0.2,0.4-0.4,0.4h0
		c0,0-0.1,0-0.3,0c-0.1,0-0.3,0-0.4,0c-0.2,0-0.3,0-0.4,0h-0.2c-0.1,0-0.3,0-0.5,0s-0.4,0-0.6,0s-0.4,0-0.6-0.1
		C271.4,96.8,271.2,96.8,271.2,96.6z"/>
	<path class="st1" d="M305.4,96.8c-0.4-0.6-0.7-1.1-1-1.5s-0.5-0.9-0.8-1.4c0-0.1-0.1-0.2-0.2-0.3c-0.1-0.1-0.2-0.2-0.3-0.4
		c-0.1-0.1-0.2-0.3-0.2-0.4c-0.1-0.1-0.1-0.2,0-0.3c-0.3-0.4-0.5-0.7-0.8-1.1c-0.2-0.4-0.5-0.8-0.7-1.1h-0.1l-0.1,0
		c-0.2,0-0.3,0-0.2,0.3c0,0.2,0,0.6,0.1,1.2c0,0.6,0,1.2,0.1,1.8c0,0.6,0.1,1.2,0.1,1.8c0,0.6,0.1,1,0.1,1.2l0,0.1
		c0,0.1-0.1,0.1-0.2,0.2s-0.1,0.1-0.2,0.1l-3.3,0.2c-0.2,0-0.4-0.1-0.5-0.2s-0.2-0.4-0.2-0.5l0,0l0-0.1v-0.1c0,0,0-0.1,0-0.2
		c0-0.1,0-0.2,0.1-0.3s0-0.2,0.1-0.3l0-0.2c0-0.1,0-0.2,0-0.4c0-0.2-0.1-0.5-0.1-0.7c0-0.2,0-0.5-0.1-0.7c0-0.2,0-0.4,0-0.4v-0.8
		c0-0.4,0-0.9,0-1.3c0-0.5,0-0.9,0-1.3c0-0.4,0-0.7,0-0.8c0-0.1,0-0.3,0-0.6c0-0.3,0-0.6-0.1-0.9c0-0.3,0-0.6-0.1-0.9
		c0-0.3,0-0.5,0-0.6c0,0,0-0.1,0-0.3v-0.3c0.1-1.9,0.1-3.7,0-5.5c0-1.8-0.1-3.6-0.2-5.5c0-0.1,0-0.2,0-0.4c0-0.2,0-0.4,0-0.5
		s0-0.4,0-0.6c0-0.2,0-0.3,0-0.4c0-0.1,0.1-0.2,0.2-0.2l0.2,0c0.8-0.1,1.7-0.1,2.5-0.1c0.8,0,1.6,0.1,2.3,0.3
		c0.7,0.2,1.4,0.5,1.9,0.9c0.6,0.4,1.1,1,1.4,1.8c0.3,0.6,0.6,1.1,0.8,1.6c0.3,0.5,0.4,1.1,0.5,1.7c0.1,1.3-0.1,2.5-0.7,3.6
		c-0.5,1.1-1.3,2.1-2.2,3c-0.1,0.1-0.1,0.2-0.1,0.4c0,0.2,0.1,0.4,0.2,0.5c0.1,0.2,0.2,0.4,0.1,0.5l1.3,2.6V89l1.3,2.1
		c0,0,0.1,0.2,0.3,0.5c0.2,0.3,0.4,0.7,0.6,1.1c0.2,0.4,0.4,0.8,0.6,1.2c0.2,0.4,0.3,0.7,0.3,0.9c0,0.2,0,0.4-0.2,0.6
		c-0.2,0.2-0.4,0.4-0.6,0.6s-0.5,0.4-0.7,0.5c-0.3,0.1-0.5,0.2-0.7,0.2C305.7,97,305.5,96.9,305.4,96.8z M300,81.5
		c0.1,0.1,0.2,0.2,0.2,0.2c0,0,0.1,0.1,0.3,0.1c0.4,0,0.8-0.2,1-0.5c0.3-0.3,0.5-0.6,0.6-0.9c0.1-0.4,0.2-0.7,0.3-1.1
		c0-0.4,0.1-0.7,0.1-1c0-0.2-0.1-0.5-0.2-0.8c-0.1-0.3-0.2-0.6-0.4-0.9c-0.1-0.3-0.3-0.5-0.6-0.7c-0.2-0.2-0.5-0.3-0.8-0.2
		c-0.2,0-0.4,0.1-0.5,0.4c-0.1,0.2-0.2,0.5-0.2,0.7c0,0.3-0.1,0.5-0.1,0.8v0.6c0,0,0,0.1,0,0.2c0,0.1,0,0.3,0,0.4s0,0.4,0,0.5
		c0,0.2,0,0.3,0,0.4c0,0.1,0,0.2,0,0.3c0,0.1,0,0.3,0,0.5c0,0.2,0,0.4,0,0.5C300,81.4,300,81.5,300,81.5z"/>
</g>
<g>
	<g>
		<defs>
			<rect id="SVGID_1_" x="12" y="0" width="162" height="118"/>
		</defs>
		<clipPath id="SVGID_00000106835246172336250500000014211540296150989206_">
			<use xlink:href="#SVGID_1_"  style="overflow:visible;"/>
		</clipPath>
		<path style="clip-path:url(#SVGID_00000106835246172336250500000014211540296150989206_);fill:#F7941D;" d="M105.5,90.6
			c0,0,5.3,4.7,8.9,7.6c3.6,3,7.3,4.1,8.7,4.2c1.4,0.1,7.4-3,8.2-0.7c0.5,1.5-2.3,3.2-2.3,3.2s2.4,1.2,3,2.7
			c0.9,2.3-4.3,1.4-4.3,1.4s4.5,2.6,1.5,5.1c-1.8,1.5-6-1.9-9.5-6.1c-5-5.9-17.3-12-17.3-12"/>
	</g>
	<g>
		<defs>
			<rect id="SVGID_00000154406800974260740800000013700887988668934548_" x="12" y="0" width="162" height="118"/>
		</defs>
		<clipPath id="SVGID_00000043444760839534503770000017156938521730938285_">
			<use xlink:href="#SVGID_00000154406800974260740800000013700887988668934548_"  style="overflow:visible;"/>
		</clipPath>
		<path style="clip-path:url(#SVGID_00000043444760839534503770000017156938521730938285_);fill:#F7941D;" d="M69.7,94.1
			c0,0-6.8,6.1-10.2,9.2s-5.1,6.7-5.4,8c-0.3,1.4,2,7.7-0.4,8.2c-1.5,0.3-2.9-2.7-2.9-2.7s-1.5,2.2-3.1,2.5
			c-2.4,0.6-0.8-4.5-0.8-4.5s-4.2,4.8-6.3,1.5c-1.3-2,1.4-5.4,8.4-9.3c6.8-3.7,22-23.3,22-23.3"/>
	</g>
	<g>
		<defs>
			<rect id="SVGID_00000170255935271164125760000001094705696494432154_" x="12" y="0" width="162" height="118"/>
		</defs>
		<clipPath id="SVGID_00000116210401655365602080000009776059537227792566_">
			<use xlink:href="#SVGID_00000170255935271164125760000001094705696494432154_"  style="overflow:visible;"/>
		</clipPath>
		<path style="clip-path:url(#SVGID_00000116210401655365602080000009776059537227792566_);fill:#F7941D;" d="M75,69.6
			c-3.2,8.1-4.7,13.6-9.4,33.7s-10.1,32,0,36.1c10.1,4.1,28.3,4.4,33.7,3.1c1.4-0.4,4-5,4-16.2c0-11.3,5.8-54.4,5.8-54.4L84.8,52.7
			C84.8,52.7,79,59.5,75,69.6z"/>
	</g>
	<g>
		<defs>
			<rect id="SVGID_00000124858623835023294250000003823455372121893815_" x="12" y="0" width="162" height="118"/>
		</defs>
		<clipPath id="SVGID_00000159469790083876075010000000202820557941804200_">
			<use xlink:href="#SVGID_00000124858623835023294250000003823455372121893815_"  style="overflow:visible;"/>
		</clipPath>
		<path style="clip-path:url(#SVGID_00000159469790083876075010000000202820557941804200_);fill:#FFFFFF;" d="M97.5,130
			c0,14.9-5.6,5.3-11.5,5.3s-13.6,11.4-13.6-3.5S80.1,81.5,86,81.3C96.7,80.9,97.5,115.1,97.5,130z"/>
	</g>
	<g>
		<defs>
			<rect id="SVGID_00000118359124523927101440000005130317989465444249_" x="12" y="0" width="162" height="118"/>
		</defs>
		<clipPath id="SVGID_00000066484775718108771150000005891936726427381937_">
			<use xlink:href="#SVGID_00000118359124523927101440000005130317989465444249_"  style="overflow:visible;"/>
		</clipPath>
		<path style="clip-path:url(#SVGID_00000066484775718108771150000005891936726427381937_);fill:#F7941D;" d="M-8.2,121.2
			c15.1,4.7,27.4,3.7,35.4,2.3c5.9-1,14-2.6,22.2-0.2c6.8,2,15.8,9.6,15.8,9.6s-0.4,17.2-24,19.5c-20.6,2-46.8-19.1-55-28
			C-22.4,115.2-19.1,117.8-8.2,121.2z"/>
	</g>
	<g>
		<defs>
			<rect id="SVGID_00000096033105115848747590000016376304764816194951_" x="12" y="0" width="162" height="118"/>
		</defs>
		<clipPath id="SVGID_00000115483792551569032640000001436295021722189477_">
			<use xlink:href="#SVGID_00000096033105115848747590000016376304764816194951_"  style="overflow:visible;"/>
		</clipPath>
		<path style="clip-path:url(#SVGID_00000115483792551569032640000001436295021722189477_);fill:#FFFFFF;" d="M-9.5,119.7
			c14.6,4.8,26.4,5,34.4,4.2c-3.4,2.3-9.4,7.1-7.8,7.3c2.2,0.3,10.8,4.9,8.2,4.6c-2.6-0.3-9.1,0-9.1,0s6.5,6.5,5.6,6.8
			s-9.3-3.1-9.3-3.1s0.1,3.1-0.3,5.4c-12.1-6.8-22.7-15.5-27.3-21C-23.1,114.2-20.3,116.1-9.5,119.7z"/>
	</g>
	<g>
		<defs>
			<rect id="SVGID_00000181775232582235763450000001232487984839463328_" x="12" y="0" width="162" height="118"/>
		</defs>
		<clipPath id="SVGID_00000143578949413732397970000009659158232814259646_">
			<use xlink:href="#SVGID_00000181775232582235763450000001232487984839463328_"  style="overflow:visible;"/>
		</clipPath>
		
			<path style="clip-path:url(#SVGID_00000143578949413732397970000009659158232814259646_);fill:none;stroke:#F7941D;stroke-width:0.11;" d="
			M-9.5,119.7c14.6,4.8,26.4,5,34.4,4.2c-3.4,2.3-9.4,7.1-7.8,7.3c2.2,0.3,10.8,4.9,8.2,4.6c-2.6-0.3-9.1,0-9.1,0s6.5,6.5,5.6,6.8
			s-9.3-3.1-9.3-3.1s0.1,3.1-0.3,5.4c-12.1-6.8-22.7-15.5-27.3-21C-23.1,114.2-20.3,116.1-9.5,119.7z"/>
	</g>
	<g>
		<defs>
			<rect id="SVGID_00000095322265299673986670000005082744638605759875_" x="12" y="0" width="162" height="118"/>
		</defs>
		<clipPath id="SVGID_00000142888895343767598340000011563105330768304034_">
			<use xlink:href="#SVGID_00000095322265299673986670000005082744638605759875_"  style="overflow:visible;"/>
		</clipPath>
		
			<path style="clip-path:url(#SVGID_00000142888895343767598340000011563105330768304034_);fill:none;stroke:#D3D2C2;stroke-width:0.11;stroke-linecap:round;" d="
			M12.2,144.8c-12.1-6.8-22.7-15.5-27.3-21c-8-9.6-5.3-7.7,5.6-4.1c14.6,4.8,26.4,5,34.4,4.2"/>
	</g>
	<g>
		<defs>
			<rect id="SVGID_00000030445206665513039360000011172715565431231161_" x="12" y="0" width="162" height="118"/>
		</defs>
		<clipPath id="SVGID_00000010299343130651859400000010476868664565797792_">
			<use xlink:href="#SVGID_00000030445206665513039360000011172715565431231161_"  style="overflow:visible;"/>
		</clipPath>
		<path style="clip-path:url(#SVGID_00000010299343130651859400000010476868664565797792_);" d="M71.7,124.7c0,0,2.9-30,2.1-36.2
			C72.3,77,71,76.3,71,76.3l1.5-1.9c0,0,3.3,2.9,5,14.4c0.9,6.7-1.2,36-1.2,36L71.7,124.7z"/>
	</g>
	<g>
		<defs>
			<rect id="SVGID_00000026140546799103305820000014795552015812945299_" x="12" y="0" width="162" height="118"/>
		</defs>
		<clipPath id="SVGID_00000047772176500008644540000011558768755194540944_">
			<use xlink:href="#SVGID_00000026140546799103305820000014795552015812945299_"  style="overflow:visible;"/>
		</clipPath>
		<path style="clip-path:url(#SVGID_00000047772176500008644540000011558768755194540944_);" d="M97.5,127.6c0,0,4.7-36.9,7.8-43.5
			c1.6-3.4,3.6-5.6,3.6-5.6l0.8-3.7c0,0-2.7-0.2-7.3,7.7c-3.9,6.8-8.8,44.5-8.8,44.5L97.5,127.6z"/>
	</g>
	<g>
		<defs>
			<rect id="SVGID_00000159440922922257665100000005060486706287782528_" x="12" y="0" width="162" height="118"/>
		</defs>
		<clipPath id="SVGID_00000027572649306040746600000003416341039195446949_">
			<use xlink:href="#SVGID_00000159440922922257665100000005060486706287782528_"  style="overflow:visible;"/>
		</clipPath>
		<path style="clip-path:url(#SVGID_00000027572649306040746600000003416341039195446949_);fill:#F7941D;" d="M119.1,45.4
			c0,0-0.9-1.6,0.8-2.5s7.3-2.5,7.3-2.5s-1.9-1.9-4.1-2.9c-1.8-0.8-6-1.7-6-1.7s-2.4-5.8-3.5-8.6c-3.6-9.3-7.2-16-9.6-21.3
			s-3-0.7-3.7,1.1s-5.7,20.2-5.7,20.2s-2.4,0.7-9.5,2.5s-14.7,4.5-14.7,4.5S53.2,24,50.4,22.8s1,9.9,2.2,13.8
			C54.7,44,55,51.3,55,51.3s-2.6,2.6-4.8,5.7c-2.1,3-4,9.4-2.3,7.1c1.7-2.4,8.2-3.6,8.2-3.6s-1.2,3.3-1.6,4.4
			c-1.2,3.7-2.2,7.2-2.2,7.2s2.3-1.1,5.4-4s4.2-3.7,2.4,0.9c-1.8,4.7-1.4,7.6-1.4,7.6s1.5-1.6,3.4-3.1c1.8-1.4,3.8-0.1,3.8-0.1
			s12.4,8.3,24.3,21c15.9,17.1,18.8,14.9,19,13.9c0.7-3.5,3-29.3,4.2-46.7c0.3-0.3,0-0.9,0.9-1.7c4.5-3.8,8.2-3.8,8.2-3.8
			s0-0.5-1.2-1.7c-2.2-2.2-4.4-3.3-4.4-3.3s-0.2-0.8,3.6-1.1c3.1-0.3,5.6-0.2,5.6-0.2s-1.2-1.4-2.9-2.4
			C121.3,46.5,119.1,45.4,119.1,45.4z"/>
	</g>
	<g>
		<defs>
			<rect id="SVGID_00000046299727373285913580000013897795633488754852_" x="12" y="0" width="162" height="118"/>
		</defs>
		<clipPath id="SVGID_00000159468572356177965110000007830050360777311418_">
			<use xlink:href="#SVGID_00000046299727373285913580000013897795633488754852_"  style="overflow:visible;"/>
		</clipPath>
		<path style="clip-path:url(#SVGID_00000159468572356177965110000007830050360777311418_);fill:#FFFFFF;" d="M109.8,39.1
			c3.2,2.4,4.3,8.4,1.5,12.2c-2.1,2.9-7.6,3.8-10.7-1c-2.9-4.5-1.4-7.3,0.7-10.1C103.4,37.3,106.5,36.7,109.8,39.1z"/>
	</g>
	<g>
		<defs>
			<rect id="SVGID_00000074442106894081558150000017574813241234797999_" x="12" y="0" width="162" height="118"/>
		</defs>
		<clipPath id="SVGID_00000133526624750409534370000014913103103920934576_">
			<use xlink:href="#SVGID_00000074442106894081558150000017574813241234797999_"  style="overflow:visible;"/>
		</clipPath>
		<path style="clip-path:url(#SVGID_00000133526624750409534370000014913103103920934576_);" d="M109.5,46.5
			c0.6,0.4,1.4,0.3,1.8-0.3s0.3-1.4-0.3-1.8c-0.6-0.4-1.4-0.3-1.8,0.3C108.8,45.2,108.9,46,109.5,46.5z"/>
	</g>
	<g>
		<defs>
			<rect id="SVGID_00000175319696495258913340000013747127401481157819_" x="12" y="0" width="162" height="118"/>
		</defs>
		<clipPath id="SVGID_00000110470069479877837350000009626773030870640544_">
			<use xlink:href="#SVGID_00000175319696495258913340000013747127401481157819_"  style="overflow:visible;"/>
		</clipPath>
		<path style="clip-path:url(#SVGID_00000110470069479877837350000009626773030870640544_);fill:#FFFFFF;" d="M69.6,51.2
			c-1.4,3.1,0.2,8.1,3.8,9.8c2.8,1.3,7.3-0.2,7.6-5.2c0.3-4.5-0.9-6.5-3.6-7.8C74.7,46.7,71.1,48,69.6,51.2z"/>
	</g>
	<g>
		<defs>
			<rect id="SVGID_00000077319499150790167610000000989074370042343588_" x="12" y="0" width="162" height="118"/>
		</defs>
		<clipPath id="SVGID_00000070838290478277397670000000918338521553634986_">
			<use xlink:href="#SVGID_00000077319499150790167610000000989074370042343588_"  style="overflow:visible;"/>
		</clipPath>
		<path style="clip-path:url(#SVGID_00000070838290478277397670000000918338521553634986_);" d="M76,55.3c0.4,0.6,1.2,0.8,1.8,0.4
			c0.6-0.4,0.8-1.2,0.4-1.8s-1.2-0.8-1.8-0.4S75.6,54.6,76,55.3z"/>
	</g>
	<g>
		<defs>
			<rect id="SVGID_00000179648253678391234530000006777735403235266727_" x="12" y="0" width="162" height="118"/>
		</defs>
		<clipPath id="SVGID_00000165200620119350129540000011177467264935055250_">
			<use xlink:href="#SVGID_00000179648253678391234530000006777735403235266727_"  style="overflow:visible;"/>
		</clipPath>
		<path style="clip-path:url(#SVGID_00000165200620119350129540000011177467264935055250_);fill:#FFFFFF;" d="M89.1,83.2
			c-5.3-7.3-15.3-9.6-22.6-9.3c4.4,3.7,7.7,6.5,18.7,16.7c1.4,1.3,7,6,8,7.3C92.9,93.3,92.2,87.4,89.1,83.2z"/>
	</g>
	<g>
		<defs>
			<rect id="SVGID_00000018218114460553971890000002972662070058318477_" x="12" y="0" width="162" height="118"/>
		</defs>
		<clipPath id="SVGID_00000070082134923381348970000016224469595408231320_">
			<use xlink:href="#SVGID_00000018218114460553971890000002972662070058318477_"  style="overflow:visible;"/>
		</clipPath>
		
			<path style="clip-path:url(#SVGID_00000070082134923381348970000016224469595408231320_);fill:none;stroke:#D3D2C2;stroke-width:0.11;stroke-linecap:round;" d="
			M66.5,73.9c4.1,3.7,5.9,4.4,17.3,15.4c1.3,1.3,8.8,7.6,9.8,9"/>
	</g>
	<g>
		<defs>
			<rect id="SVGID_00000010302776476957094540000013566226389477981848_" x="12" y="0" width="162" height="118"/>
		</defs>
		<clipPath id="SVGID_00000098216225916592492190000001715734049718841277_">
			<use xlink:href="#SVGID_00000010302776476957094540000013566226389477981848_"  style="overflow:visible;"/>
		</clipPath>
		<path style="clip-path:url(#SVGID_00000098216225916592492190000001715734049718841277_);fill:#FFFFFF;" d="M107.6,76.9
			c-0.3,4.4,0.8,12.7,3.2,14.9c1.3-13.9,2.6-28.5,3.4-31.7C111.4,61.4,108.1,68.9,107.6,76.9z"/>
	</g>
	<g>
		<defs>
			<rect id="SVGID_00000062194013494259924540000010946677820387400588_" x="12" y="0" width="162" height="118"/>
		</defs>
		<clipPath id="SVGID_00000166642729920131677130000009760632433115021749_">
			<use xlink:href="#SVGID_00000062194013494259924540000010946677820387400588_"  style="overflow:visible;"/>
		</clipPath>
		
			<path style="clip-path:url(#SVGID_00000166642729920131677130000009760632433115021749_);fill:none;stroke:#D3D2C2;stroke-width:0.11;stroke-linecap:round;" d="
			M110.8,91.7c1.3-13.9,2.6-28.5,3.4-31.7"/>
	</g>
	<g>
		<defs>
			<rect id="SVGID_00000121992921944588862970000004169520465682939018_" x="12" y="0" width="162" height="118"/>
		</defs>
		<clipPath id="SVGID_00000171697623859392631800000012683133289104530336_">
			<use xlink:href="#SVGID_00000121992921944588862970000004169520465682939018_"  style="overflow:visible;"/>
		</clipPath>
		<path style="clip-path:url(#SVGID_00000171697623859392631800000012683133289104530336_);fill:#FFFFFF;" d="M58.4,42.8
			c0,0-2.6-11.7-1.5-11c1,0.7,9.4,6.5,9.4,6.5s-3.3,1.3-4.3,2C61,41,58.4,42.8,58.4,42.8z"/>
	</g>
	<g>
		<defs>
			<rect id="SVGID_00000165207660281553968970000001046592945591432625_" x="12" y="0" width="162" height="118"/>
		</defs>
		<clipPath id="SVGID_00000098212237660722213230000005998700064544178362_">
			<use xlink:href="#SVGID_00000165207660281553968970000001046592945591432625_"  style="overflow:visible;"/>
		</clipPath>
		<path style="clip-path:url(#SVGID_00000098212237660722213230000005998700064544178362_);fill:#5D3D3D;" d="M98.9,104.1
			c5.4,5.2,10.2,9.2,10.8,4.4c0.8-7,1.2-16.7,1.2-16.7s-13.9,4-17.3,6.7C93.6,98.5,97.4,102.6,98.9,104.1z"/>
	</g>
</g>
</svg>
