<?xml version="1.0" encoding="UTF-8" standalone="no"?>
<svg
   viewBox="0 0 250 150"
   version="1.1"
   id="svg550"
   sodipodi:docname="maracas.svg"
   width="250"
   height="150"
   inkscape:version="1.2.1 (9c6d41e410, 2022-07-14)"
   xmlns:inkscape="http://www.inkscape.org/namespaces/inkscape"
   xmlns:sodipodi="http://sodipodi.sourceforge.net/DTD/sodipodi-0.dtd"
   xmlns="http://www.w3.org/2000/svg"
   xmlns:svg="http://www.w3.org/2000/svg"
   xmlns:rdf="http://www.w3.org/1999/02/22-rdf-syntax-ns#"
   xmlns:cc="http://creativecommons.org/ns#"
   xmlns:dc="http://purl.org/dc/elements/1.1/">
  <sodipodi:namedview
     id="namedview552"
     pagecolor="#ffffff"
     bordercolor="#000000"
     borderopacity="0.25"
     inkscape:showpageshadow="2"
     inkscape:pageopacity="0.0"
     inkscape:pagecheckerboard="0"
     inkscape:deskcolor="#d1d1d1"
     showgrid="false"
     inkscape:zoom="1.9864289"
     inkscape:cx="97.662693"
     inkscape:cy="63.682117"
     inkscape:window-width="1920"
     inkscape:window-height="1018"
     inkscape:window-x="-8"
     inkscape:window-y="-8"
     inkscape:window-maximized="1"
     inkscape:current-layer="svg550" />
  <defs
     id="defs468">
    <style
       id="style466">.cls-1{fill:#007572;}.cls-2{fill:#00a0a4;}.cls-3{fill:#e30613;}.cls-4{fill:none;stroke:#f39200;stroke-miterlimit:10;stroke-width:0.85px;}.cls-5{fill:#f39200;}.cls-6{fill:#fff;}</style>
  </defs>
  <title
     id="title470">maracas</title>
  <g
     id="Layer_2"
     data-name="Layer 2"
     transform="matrix(0.5529492,0,0,0.56359099,69.015447,21.435372)">
    <g
       id="Layer_1-2"
       data-name="Layer 1">
      <path
         class="cls-1"
         d="m 124.64,55.06 a 67.46,67.46 0 0 0 -15.71,6.58 c -23.07,12.92 -64.55,37.62 -68.38,40.65 -4.8,3.78 -8.78,6.46 -4.15,11.61 9,10 75.33,-39 82.36,-42.06 2.58,-1.13 4.91,-4.41 7.38,-6.08 4.25,-2.87 7.11,-3 7.11,-3 z"
         id="path472" />
      <path
         class="cls-2"
         d="m 112.53,68 c 2.5,3 4.32,4 5.35,4.31 l 16.28,-9.79 -8.82,-10.3 -15.64,9 c 0,0 -0.36,2.99 2.83,6.78 z"
         id="path474" />
      <path
         class="cls-3"
         d="m 186.58,12.5 c 14.06,15.56 6.1,35.43 -0.13,44.3 -2.49,3.55 -6.5,6.9 -10.37,10 -3.14,2.55 -28.86,16.31 -48,-8.31 -15,-19.34 -6.52,-38.61 5.53,-49.72 a 31.45,31.45 0 0 1 6.7,-4.74 c 13.44,-7.39 34.36,-4.68 46.27,8.47 z"
         id="path476" />
      <path
         class="cls-4"
         d="m 177.4,3.65 a 17,17 0 0 0 -2.69,7.63 c -0.66,16.24 16.47,18.18 20.33,17.35"
         id="path478" />
      <path
         class="cls-4"
         d="m 194.09,23 c -2.74,0.67 -10.8,0.82 -14.06,-7.23 -1.3,-3.2 0.33,-8.52 1.39,-9.83"
         id="path480" />
      <path
         class="cls-5"
         d="m 172.42,52.75 3.71,-14.67 -15.51,5.4 a 50.06,50.06 0 0 0 11.8,9.27 z"
         id="path482" />
      <path
         class="cls-5"
         d="m 154.84,35.5 a 54.63,54.63 0 0 0 5.85,7.31 L 166.51,29 152,30.8 c 0.86,1.59 1.8,3.2 2.84,4.7 z"
         id="path484" />
      <path
         class="cls-5"
         d="M 186.43,56.81 187.32,44.5 171.81,53 c 4.45,2.44 10.19,3.28 14.62,3.81 z"
         id="path486" />
      <path
         class="cls-5"
         d="m 152,30.8 9.24,-12.15 -14.53,-1.76 A 51.89,51.89 0 0 0 152,30.8 Z"
         id="path488" />
      <path
         class="cls-5"
         d="M 146.71,16.91 157.83,5.48 146.13,2.32 a 40.5,40.5 0 0 0 0.58,14.59 z"
         id="path490" />
      <path
         class="cls-5"
         d="M 142.29,45.71 C 133.75,33 131.38,18.53 134.87,7.63 c -0.81,0.74 -8.58,18.42 -8.58,18.42 l 7.93,0.81 -6.08,13.7 11.55,0.87 -3.2,14.69 13.13,-1.58 -1.77,10.23 12.75,-2.22 -1.47,7.32 16.63,-2.78 h -0.49 C 164,66.41 150.71,58.22 142.29,45.71 Z"
         id="path492" />
      <path
         class="cls-2"
         d="M 186.43,56.81 C 175.06,55.87 163.61,48.29 155.1,35.63 147.58,24.42 144.54,11.8 146.38,1.53 a 27.68,27.68 0 0 0 -11.53,6.09 c -3.47,10.89 -1.08,25.32 7.46,38 9.21,13.71 21.22,20.8 33.45,21.44 a 38.67,38.67 0 0 0 10.67,-10.25 z"
         id="path494" />
      <path
         class="cls-6"
         d="m 141.49,11 a 1.83,1.83 0 1 1 -1.59,-2 1.84,1.84 0 0 1 1.59,2 z"
         id="path496" />
      <path
         class="cls-6"
         d="m 142.54,21 a 2.06,2.06 0 1 1 -1.8,-2.29 2,2 0 0 1 1.8,2.29 z"
         id="path498" />
      <path
         class="cls-6"
         d="m 145.46,32 a 2.27,2.27 0 0 1 -2.54,2 2.32,2.32 0 0 1 -2,-2.56 2.292166,2.292166 0 0 1 4.55,0.56 z"
         id="path500" />
      <path
         class="cls-6"
         d="m 151.23,41.3 a 2.51,2.51 0 1 1 -2.23,-2.8 2.51,2.51 0 0 1 2.23,2.8 z"
         id="path502" />
      <path
         class="cls-6"
         d="m 158.54,50.32 a 2.5185363,2.5185363 0 1 1 -5,-0.61 2.5185363,2.5185363 0 1 1 5,0.61 z"
         id="path504" />
      <path
         class="cls-6"
         d="m 167.66,57.36 a 2.26,2.26 0 0 1 -2.54,2 2.3,2.3 0 0 1 -2,-2.54 2.2915606,2.2915606 0 0 1 4.55,0.55 z"
         id="path506" />
      <path
         class="cls-6"
         d="m 177.34,61.47 a 2,2 0 1 1 -1.77,-2.26 2,2 0 0 1 1.77,2.26 z"
         id="path508" />
      <path
         class="cls-1"
         d="m 105.37,140.33 a 67.59,67.59 0 0 0 -16.24,-5.11 c -26,-5 -73.57,-12.94 -78.47,-13.1 -6.09,-0.2 -10.87,-0.72 -10.65,6.19 0.41,13.4 82.68,18.84 90,21 2.71,0.81 6.6,-0.19 9.56,0.13 5.11,0.54 7.39,2.26 7.39,2.26 z"
         id="path510" />
      <path
         class="cls-2"
         d="m 87.79,142.4 c 0,3.87 0.74,5.81 1.3,6.74 l 18.74,3 L 107.75,138.6 90,135.39 c 0,0 -2.23,2.06 -2.21,7.01 z"
         id="path512" />
      <path
         class="cls-3"
         d="m 180.14,147.79 c 0.7,21 -18.23,31 -28.73,33.76 -4.19,1.11 -9.4,1.08 -14.4,1 -4,-0.09 -32.57,-6.16 -31.23,-37.31 1,-24.46 20,-33.69 36.34,-34.4 a 31.86,31.86 0 0 1 8.17,0.69 c 15.05,2.98 29.26,18.54 29.85,36.26 z"
         id="path514" />
      <path
         class="cls-4"
         d="m 178.86,135.11 a 17.14,17.14 0 0 0 -7,4.09 c -11,12 0.83,24.52 4.3,26.38"
         id="path516" />
      <path
         class="cls-4"
         d="m 179.11,160.67 c -2.52,-1.25 -8.76,-6.35 -6.06,-14.58 1.07,-3.29 5.75,-6.31 7.41,-6.62"
         id="path518" />
      <path
         class="cls-5"
         d="m 143.34,169.41 12.31,-8.81 -15.33,-5.89 a 49.74,49.74 0 0 0 3.02,14.7 z"
         id="path520" />
      <path
         class="cls-5"
         d="m 141.06,144.88 a 56,56 0 0 0 -0.25,9.39 l 13.4,-6.84 -12.27,-8 c -0.37,1.81 -0.67,3.57 -0.88,5.45 z"
         id="path522" />
      <path
         class="cls-5"
         d="m 151.41,181.55 8.65,-8.82 -17.31,-3.54 c 1.78,4.75 5.6,9.07 8.66,12.36 z"
         id="path524" />
      <path
         class="cls-5"
         d="m 141.93,139.47 14.88,-3.29 -9.95,-10.74 a 53.14,53.14 0 0 0 -4.93,14.03 z"
         id="path526" />
      <path
         class="cls-5"
         d="m 146.86,125.44 15.88,-1.55 -6.9,-10 a 41.11,41.11 0 0 0 -8.98,11.55 z"
         id="path528" />
      <path
         class="cls-5"
         d="m 124.9,144.58 c 1.69,-15.21 9.24,-27.79 18.93,-33.87 -1.09,0 -18.45,8.52 -18.45,8.52 l 5.54,5.75 -13.49,6.53 8.24,8.11 -11.94,9.16 11,7.27 -8,6.68 11.27,6.52 -5.85,4.65 14.49,8.63 -0.37,-0.36 c -8.22,-7.79 -13.05,-22.6 -11.37,-37.59 z"
         id="path530" />
      <path
         class="cls-2"
         d="m 151.41,181.55 c -8.06,-8.05 -11.91,-21.23 -10.23,-36.39 1.49,-13.42 7.33,-25 15.38,-31.66 a 27.79,27.79 0 0 0 -12.73,-2.79 c -9.69,6.08 -17.18,18.66 -18.86,33.87 -1.82,16.4 2.76,29.57 11.68,38 a 39.21,39.21 0 0 0 14.76,-1.03 z"
         id="path532" />
      <path
         class="cls-6"
         d="m 146.67,117.6 a 1.84,1.84 0 1 1 0.08,-2.6 1.83,1.83 0 0 1 -0.08,2.6 z"
         id="path534" />
      <path
         class="cls-6"
         d="m 141,125.86 a 2.06,2.06 0 1 1 0.1,-2.92 2.06,2.06 0 0 1 -0.1,2.92 z"
         id="path536" />
      <path
         class="cls-6"
         d="m 136.16,136.2 a 2.28,2.28 0 1 1 0.13,-3.22 2.3,2.3 0 0 1 -0.13,3.22 z"
         id="path538" />
      <path
         class="cls-6"
         d="m 134.56,147 a 2.52,2.52 0 1 1 0.14,-3.56 2.52,2.52 0 0 1 -0.14,3.56 z"
         id="path540" />
      <path
         class="cls-6"
         d="m 134.31,158.6 a 2.52,2.52 0 1 1 0.14,-3.56 2.52,2.52 0 0 1 -0.14,3.56 z"
         id="path542" />
      <path
         class="cls-6"
         d="m 136.73,169.86 a 2.29,2.29 0 1 1 0.13,-3.23 2.28,2.28 0 0 1 -0.13,3.23 z"
         id="path544" />
      <path
         class="cls-6"
         d="m 141.46,179.25 a 2,2 0 1 1 0.11,-2.83 2,2 0 0 1 -0.11,2.83 z"
         id="path546" />
    </g>
  </g>
  <metadata
     id="metadata662">
    <rdf:RDF>
      <cc:Work
         rdf:about="">
        <dc:title>maracas</dc:title>
      </cc:Work>
    </rdf:RDF>
  </metadata>
</svg>
