<?xml version="1.0" encoding="UTF-8" standalone="no"?>
<svg
   viewBox="0 0 250 150"
   version="1.1"
   id="svg610"
   sodipodi:docname="pandereta.svg"
   width="250"
   height="150"
   inkscape:version="1.2.1 (9c6d41e410, 2022-07-14)"
   xmlns:inkscape="http://www.inkscape.org/namespaces/inkscape"
   xmlns:sodipodi="http://sodipodi.sourceforge.net/DTD/sodipodi-0.dtd"
   xmlns="http://www.w3.org/2000/svg"
   xmlns:svg="http://www.w3.org/2000/svg"
   xmlns:rdf="http://www.w3.org/1999/02/22-rdf-syntax-ns#"
   xmlns:cc="http://creativecommons.org/ns#"
   xmlns:dc="http://purl.org/dc/elements/1.1/">
  <sodipodi:namedview
     id="namedview612"
     pagecolor="#ffffff"
     bordercolor="#000000"
     borderopacity="0.25"
     inkscape:showpageshadow="2"
     inkscape:pageopacity="0.0"
     inkscape:pagecheckerboard="0"
     inkscape:deskcolor="#d1d1d1"
     showgrid="false"
     inkscape:zoom="2.728123"
     inkscape:cx="105.56709"
     inkscape:cy="92.92103"
     inkscape:window-width="1920"
     inkscape:window-height="1018"
     inkscape:window-x="-8"
     inkscape:window-y="-8"
     inkscape:window-maximized="1"
     inkscape:current-layer="svg610" />
  <defs
     id="defs556">
    <style
       id="style554">.cls-1{fill:#dad8cc;}.cls-2{fill:#e30613;}.cls-3{fill:#f39200;}.cls-4{fill:#b91919;}.cls-5{fill:none;stroke:#b91919;stroke-linecap:round;stroke-linejoin:round;stroke-width:1.46px;}.cls-6{fill:#db7a1c;}</style>
  </defs>
  <title
     id="title558">pandereta</title>
  <g
     id="Layer_2"
     data-name="Layer 2"
     transform="matrix(0.66194499,0,0,0.57312486,51.189528,47.177297)">
    <g
       id="Layer_1-2"
       data-name="Layer 1">
      <path
         class="cls-1"
         d="m 199.1,31.8 c 7.76,-2.73 14.38,-7 12.06,-13 -2,-5.08 -12.76,-3.26 -12.33,-2.06 0.43,1.2 0.27,15.06 0.27,15.06 z"
         id="path560" />
      <path
         class="cls-1"
         d="m 0.49,74.09 c -2,5.39 2.47,8.44 11,9.5 6.36,0.8 -1.4,-15.62 -1.4,-15.62 0,0 -8.29,2.65 -9.6,6.12 z"
         id="path562" />
      <path
         class="cls-2"
         d="m 15,45.37 c 0,0 -7.91,-0.22 -9.28,4.4 -1.37,4.62 7.82,42.11 9.77,45.23 1.95,3.12 44.73,16.51 113.51,-4.81 68.78,-21.32 76.65,-38.45 76.66,-42.6 0.01,-4.15 -3.05,-33.8 -7.05,-39.6 C 197.11,5.81 196.2,3.4 194.28,2.44 190.49,0.5 15,45.37 15,45.37 Z"
         id="path564" />
      <path
         class="cls-3"
         d="m 94.59,30.13 c -0.12,0.1 96.37,-27.48 99.67,-27.69 1.56,0.47 5.6,5.21 5.77,8.74 -6.66,7.09 -20,24.66 -79.23,41.91 C 55,72.24 15.11,61.71 6.31,58.55 5.37,58.21 5.61,52.24 5.76,49.79 5.82,48.79 94.59,30.13 94.59,30.13 Z"
         id="path566" />
      <path
         class="cls-1"
         d="m 167.06,49.13 c -4.3,1.32 10.08,7.6 20.28,3.24 10.2,-4.36 4,-16.38 2.43,-17.06 -1.57,-0.68 -9.64,9.76 -22.71,13.82 z"
         id="path568" />
      <path
         class="cls-1"
         d="m 123.31,67.84 c 1.8,3.75 8.34,6.48 19.1,2.78 10.76,-3.7 5.14,-9.11 2.33,-11 z"
         id="path570" />
      <path
         class="cls-1"
         d="m 71.73,77.77 c -0.81,3.58 -3.72,13.4 11,11.83 14.72,-1.57 17,-10.24 15,-14.16 z"
         id="path572" />
      <path
         class="cls-1"
         d="M 20.67,76.65 C 20,82.43 18,89.85 30.55,90.36 43.1,90.87 46.28,83.65 46.2,78.51 Z"
         id="path574" />
      <path
         class="cls-4"
         d="m 27.69,78.13 c -0.51,2.39 -1.21,4.59 2.83,5.4 4.04,0.81 5.65,-5 4.06,-5.51 -1.59,-0.51 -6.89,0.11 -6.89,0.11 z"
         id="path576" />
      <path
         class="cls-4"
         d="m 79.4,78.28 c -0.29,2.92 0,4.48 3.75,4.78 3.75,0.3 5,-3 3.59,-5.57 -1.41,-2.57 -7.23,-0.29 -7.34,0.79 z"
         id="path578" />
      <path
         class="cls-4"
         d="m 130.68,66.15 c 1.75,2.28 2.64,2.29 5.52,2 2.88,-0.29 4.71,-2.77 2.83,-5.12 -1.88,-2.35 -8.35,3.12 -8.35,3.12 z"
         id="path580" />
      <path
         class="cls-4"
         d="m 174.92,45.45 c 1.74,2.27 2.63,2.29 5.52,2 2.89,-0.29 4.72,-2.77 2.82,-5.12 -1.9,-2.35 -8.34,3.12 -8.34,3.12 z"
         id="path582" />
      <path
         d="M 53.68,58.89 A 2.37,2.37 0 1 1 51.11,57 a 2.27,2.27 0 0 1 2.57,1.89 z"
         id="path584" />
      <path
         d="m 24.81,57.64 a 2.38,2.38 0 1 1 -2.6,-1.92 2.3,2.3 0 0 1 2.6,1.92 z"
         id="path586" />
      <path
         d="m 85.84,55.82 a 2.37,2.37 0 1 1 -2.58,-1.9 2.26,2.26 0 0 1 2.58,1.9 z"
         id="path588" />
      <path
         d="m 118.16,49.77 a 2.25,2.25 0 0 1 -2.1,2.41 2.29,2.29 0 0 1 -2.58,-1.91 2.36,2.36 0 0 1 4.68,-0.5 z"
         id="path590" />
      <path
         d="m 142.05,41.62 a 2.38,2.38 0 1 1 -2.58,-1.91 2.3,2.3 0 0 1 2.58,1.91 z"
         id="path592" />
      <path
         d="m 169.83,29.51 a 2.24,2.24 0 0 1 -2.12,2.4 2.18,2.18 0 1 1 2.12,-2.4 z"
         id="path594" />
      <path
         d="m 190.75,15.37 a 2.36,2.36 0 0 1 -4.68,0.49 2.25,2.25 0 0 1 2.12,-2.41 2.28,2.28 0 0 1 2.56,1.92 z"
         id="path596" />
      <path
         class="cls-5"
         d="m 16.57,74.68 c 0,0 6.23,6.07 35.64,3.32"
         id="path598" />
      <path
         class="cls-5"
         d="m 66.14,77.92 c 4.44,0.23 32.07,-1.82 39,-4.19"
         id="path600" />
      <path
         class="cls-5"
         d="m 117.8,68.43 c 6.21,-0.67 25.42,-7.61 29.56,-10.15"
         id="path602" />
      <path
         class="cls-5"
         d="m 162.8,50.83 c 4.74,-1.21 25.11,-12.43 29.19,-17.76"
         id="path604" />
      <path
         class="cls-6"
         d="m 5.76,49.79 c 0.65,3 54.5,10.22 112.61,-6.24 C 176.48,27.09 195.08,5.6 194.26,2.46 193.44,-0.68 145.84,-3.23 87.47,11 29.1,25.23 4.82,45.39 5.76,49.79 Z"
         id="path606" />
    </g>
  </g>
  <metadata
     id="metadata710">
    <rdf:RDF>
      <cc:Work
         rdf:about="">
        <dc:title>pandereta</dc:title>
      </cc:Work>
    </rdf:RDF>
  </metadata>
</svg>
