<?xml version="1.0" encoding="UTF-8" standalone="no"?>
<svg
   viewBox="0 0 150 150"
   version="1.1"
   id="svg658"
   sodipodi:docname="violin.svg"
   width="150"
   height="150"
   inkscape:version="1.2.1 (9c6d41e410, 2022-07-14)"
   xmlns:inkscape="http://www.inkscape.org/namespaces/inkscape"
   xmlns:sodipodi="http://sodipodi.sourceforge.net/DTD/sodipodi-0.dtd"
   xmlns="http://www.w3.org/2000/svg"
   xmlns:svg="http://www.w3.org/2000/svg"
   xmlns:rdf="http://www.w3.org/1999/02/22-rdf-syntax-ns#"
   xmlns:cc="http://creativecommons.org/ns#"
   xmlns:dc="http://purl.org/dc/elements/1.1/">
  <sodipodi:namedview
     id="namedview660"
     pagecolor="#ffffff"
     bordercolor="#000000"
     borderopacity="0.25"
     inkscape:showpageshadow="2"
     inkscape:pageopacity="0.0"
     inkscape:pagecheckerboard="0"
     inkscape:deskcolor="#d1d1d1"
     showgrid="false"
     inkscape:zoom="4.3296797"
     inkscape:cx="135.11392"
     inkscape:cy="118.48452"
     inkscape:window-width="3840"
     inkscape:window-height="2066"
     inkscape:window-x="-11"
     inkscape:window-y="-11"
     inkscape:window-maximized="1"
     inkscape:current-layer="svg658" />
  <defs
     id="defs616">
    <style
       id="style614">.cls-1{fill:#3c3c3b;}.cls-2{fill:#814114;}.cls-3{fill:#a85318;}.cls-4{fill:#010202;}.cls-5{fill:none;stroke:#dad8cc;stroke-width:0.32px;}.cls-6{fill:#dad8cc;}</style>
  </defs>
  <title
     id="title618">violin</title>
  <g
     id="Layer_2"
     data-name="Layer 2"
     transform="matrix(0.4816212,0,0,0.59880193,9.772208,2.5416005)">
    <g
       id="Layer_1-2"
       data-name="Layer 1">
      <path
         class="cls-1"
         d="M 102.52,123.79 C 115.6,111.3 203.52,43.44 237.37,16.27 227.63,3 240.61,2.71 247.91,9 c 9.39,-15.9 22.73,1.64 7.07,11.21 12.53,9.48 -0.39,17.9 -10.87,6.31 -39.89,43.23 -108.89,99.92 -129.78,118 -3.69,-5.13 -9.39,-13.06 -11.81,-20.73 z"
         id="path620" />
      <path
         class="cls-2"
         d="m 126,191 c -0.82,-7.11 -2.09,-12.07 3.37,-20 3.69,-5.37 11.7,-8.6 14.55,-14.57 6.21,-12.92 1.68,-28.78 -8.18,-40.56 -19.37,-23.2 -67.38,6.63 -84,23.5 -20,20.34 -65.25,59.29 -38.64,81 30.49,24.87 61.73,18.21 84,5.24 C 82.29,207 108.28,182.88 126,191 Z"
         id="path622" />
      <path
         class="cls-3"
         d="m 23.58,134.16 c 10.92,16.78 40,1.13 32.43,-24.09 26.22,10 46.16,-36.8 73.63,-2.77 7.51,8.81 15,27.74 8.76,39.13 -6.24,11.39 -36.12,18.4 -26.12,37.33 -18.61,-6.55 -31.82,3.81 -36,11.6 -3.4,6.35 -3.63,23.58 0,26.16 -7.58,5 -29,11.11 -38.95,9.88 -51.15,-8.73 -43.7,-69.4 -13.75,-97.24 z"
         id="path624" />
      <path
         d="m 100.39,121.17 c 13.08,-12.52 101,-80.37 134.85,-107.52 -9.76,-13.28 3.22,-13.56 10.53,-7.25 9.39,-15.88 22.74,1.64 7.08,11.2 12.52,9.47 -0.39,17.89 -10.87,6.31 -39.87,43.26 -108.89,99.93 -129.78,118 -3.69,-5.15 -9.39,-13.07 -11.81,-20.74 z"
         id="path626" />
      <path
         class="cls-4"
         d="m 208.57,16.23 c 0,0 2.35,6 4.65,4.59 2.3,-1.41 5.41,-3.15 5.41,-3.15 L 226.94,30.53 229,29.12 221.17,16 c 0,0 4.76,-3.12 5.31,-4.35 0.55,-1.23 -3,-6.82 -5.28,-5.67 -2.28,1.15 -12.2,6.52 -12.63,10.25 z"
         id="path628" />
      <path
         class="cls-4"
         d="m 188.19,33.24 c 0.72,1.86 3.47,3.89 4.86,3.11 a 38.22,38.22 0 0 0 4.3,-3.4 l 8.59,8.56 1.58,-1.23 -7.81,-9.48 c 0,0 4.59,-2.79 4,-4.86 -0.59,-2.07 -3.57,-5.14 -5.56,-3.89 -1.99,1.25 -11.07,8.32 -9.96,11.19 z"
         id="path630" />
      <path
         class="cls-4"
         d="m 231,60.77 c 0,0 -2,-5.24 -4.26,-3.85 -2.26,1.39 -5.23,3.67 -5.23,3.67 l -8.32,-12.87 -2,1.42 7.81,13.09 c 0,0 -4.49,3.91 -5,5.14 -0.51,1.23 2.68,5.08 5,3.91 2.32,-1.17 11.56,-6.78 12,-10.51 z"
         id="path632" />
      <path
         class="cls-4"
         d="m 250.1,45.47 c -0.53,-2.3 -2.77,-4.61 -4.53,-3.94 A 23.25,23.25 0 0 0 241,44.59 l -8.63,-11.37 -2,1.14 7.6,12.34 c 0,0 -3.73,2.23 -5.41,5 0.37,2.52 2.69,6.1 5.21,5 2.52,-1.1 13.15,-7.7 12.33,-11.23 z"
         id="path634" />
      <path
         d="m 67.08,178.11 c -9.86,7.29 -3.94,21.47 5.57,16.37 -4.75,-2.19 -5.86,-2.85 -5.27,-7 0,-2.39 5.05,-5.73 6.54,-7.23 4.74,-4.82 10.68,-12.07 4.43,-17.74 -0.69,7.14 -3.07,9.49 -11.27,15.6 z"
         id="path636" />
      <path
         d="m 67.22,149.34 c -4.94,-1.82 -9.41,2.73 -13.16,5.51 -3.12,2.22 -6.36,6.23 -10.52,6 -4.73,-0.31 -8.34,-4.45 -4.79,-8.73 1.78,9.14 10.43,-0.27 13.87,-2.75 2.83,-1.97 11.1,-6.69 14.6,-0.03 z"
         id="path638" />
      <path
         class="cls-5"
         d="M 215,46.9 35.3,197.7"
         id="path640" />
      <path
         class="cls-5"
         d="M 228.72,29.45 32.47,195.26"
         id="path642" />
      <path
         class="cls-5"
         d="M 225.89,27 29.62,192.82"
         id="path644" />
      <path
         class="cls-5"
         d="m 208.06,39.26 c 0,0 -74.85,57 -104.68,84.95 C 75.11,150.74 28,189.34 28,189.34"
         id="path646" />
      <path
         d="m 5.39,213.45 c 7.59,-8.62 17.45,-15.79 22.86,-26 3.28,3.3 5.74,7.79 9,11.09 C 27.18,202.78 18.9,211.1 10.5,219.6 a 20.9,20.9 0 0 1 -5.11,-6.15 z"
         id="path648" />
      <path
         class="cls-6"
         d="m 254,102.06 c 0,0 -86.37,6.7 -125.59,10.08 -36.59,3.13 -94.83,12.93 -94.83,12.93 l -0.21,-2.77 c 0,0 75.79,-11 96.52,-12.58 20.73,-1.58 123.88,-10.84 123.88,-10.84 z"
         id="path650" />
      <path
         d="m 33.54,124.63 0.51,7.07 c 0,0 59.8,-8.66 99.59,-12.76 44.05,-4.55 120.85,-10.18 120.85,-10.18 l -0.52,-6.7 -6.29,0.45 c 0,0 0.21,2.35 -1.6,3.23 -1.81,0.88 -76.32,6.83 -109,9.45 -32.16,2.56 -86.67,11 -97.31,12.64 A 5.69,5.69 0 0 1 37,127.65 c -0.92,-0.47 -1,-3.24 -1,-3.24 z"
         id="path652" />
      <path
         d="m 269.76,104.34 -17.34,1.28 0.24,3.27 17.34,-1.28 z"
         id="path654" />
    </g>
  </g>
  <metadata
     id="metadata744">
    <rdf:RDF>
      <cc:Work
         rdf:about="">
        <dc:title>violin</dc:title>
      </cc:Work>
    </rdf:RDF>
  </metadata>
</svg>
