<svg id="Layer_1" data-name="Layer 1" xmlns="http://www.w3.org/2000/svg" xmlns:xlink="http://www.w3.org/1999/xlink" viewBox="0 0 118 118"><defs><style>.cls-1{fill:#c4c4c4;}.cls-2{mask:url(#mask);}.cls-3{fill:#f7941d;}.cls-4{fill:#fff;}.cls-5{fill:none;stroke:#d3d2c2;stroke-linecap:round;stroke-width:0.11px;}.cls-6{fill:#5d3d3d;}</style><mask id="mask" x="-15.15" y="0" width="162" height="143.09" maskUnits="userSpaceOnUse"><g id="mask0"><rect class="cls-1" x="-15.15" width="162" height="118"/></g></mask></defs><title>iconZorrito</title><g class="cls-2"><path class="cls-3" d="M78.32,90.56s5.34,4.69,8.88,7.65a18.09,18.09,0,0,0,8.72,4.22c1.39.11,7.39-3,8.17-.68.5,1.49-2.3,3.22-2.3,3.22s2.36,1.15,3,2.72c.86,2.34-4.3,1.37-4.3,1.37s4.53,2.62,1.52,5.13c-1.81,1.52-6-1.94-9.53-6.13-5-5.89-17.27-12-17.27-12"/><path class="cls-3" d="M42.54,94.13s-6.81,6.07-10.25,9.19a18.24,18.24,0,0,0-5.37,8c-.28,1.36,2,7.73-.44,8.2-1.55.29-2.86-2.72-2.86-2.72s-1.46,2.17-3.09,2.54c-2.43.55-.76-4.45-.76-4.45s-4.24,4.79-6.34,1.46c-1.25-2,1.37-5.42,8.41-9.27,6.79-3.69,22-23.29,22-23.29"/><path class="cls-3" d="M47.88,69.56c-3.2,8.14-4.72,13.59-9.43,33.68s-10.06,32,0,36.1,28.29,4.37,33.69,3.06c1.44-.36,4-5,4-16.24s5.81-54.35,5.81-54.35L57.6,52.69A66.47,66.47,0,0,0,47.88,69.56Z"/><path class="cls-4" d="M70.35,130c0,14.9-5.55,5.34-11.47,5.34s-13.62,11.37-13.62-3.54S53,81.5,58.88,81.32C69.59,81,70.35,115.06,70.35,130Z"/><path d="M44.53,124.67s2.9-30,2.09-36.18C45.08,77,43.79,76.31,43.79,76.31l1.5-1.93s3.3,2.85,5,14.38c.94,6.65-1.18,36-1.18,36Z"/><path d="M70.3,127.55S75,90.69,78.11,84.09a25.26,25.26,0,0,1,3.61-5.63l.82-3.74s-2.73-.19-7.29,7.67c-3.9,6.76-8.77,44.48-8.77,44.48Z"/><path class="cls-3" d="M91.94,45.43a1.79,1.79,0,0,1,.84-2.51,57.56,57.56,0,0,1,7.31-2.52A16.27,16.27,0,0,0,96,37.55a46.89,46.89,0,0,0-6-1.65s-2.4-5.82-3.48-8.62C82.9,18,79.26,11.3,76.85,6s-3-.68-3.69,1.12-5.69,20.25-5.69,20.25-2.35.74-9.45,2.49S43.3,34.38,43.3,34.38,26,24,23.26,22.8s1,9.9,2.17,13.83a68.24,68.24,0,0,1,2.41,14.69A45.2,45.2,0,0,0,23.05,57c-2.1,3-4,9.43-2.33,7.07s8.17-3.56,8.17-3.56-1.23,3.33-1.6,4.43c-1.2,3.66-2.23,7.15-2.23,7.15a23.28,23.28,0,0,0,5.43-4c3.11-3,4.21-3.74,2.41,1s-1.39,7.62-1.39,7.62a32.06,32.06,0,0,1,3.38-3.12,3.47,3.47,0,0,1,3.8-.13,155,155,0,0,1,24.25,21c15.88,17.08,18.78,14.88,19,13.91.68-3.45,3-29.26,4.22-46.68.29-.34,0-.91.86-1.65,4.48-3.77,8.2-3.79,8.2-3.79s0-.53-1.15-1.65a18.65,18.65,0,0,0-4.4-3.33s-.16-.79,3.62-1.1a53.32,53.32,0,0,1,5.55-.18A13.51,13.51,0,0,0,96,47.5C94.19,46.48,91.94,45.43,91.94,45.43Z"/><path class="cls-4" d="M82.61,39.09c3.23,2.41,4.35,8.38,1.52,12.18C82,54.13,76.51,55.1,73.42,50.22c-2.86-4.48-1.41-7.28.73-10.11S79.37,36.68,82.61,39.09Z"/><path d="M82.38,46.45a1.31,1.31,0,1,0-.26-1.83A1.27,1.27,0,0,0,82.38,46.45Z"/><path class="cls-4" d="M42.46,51.19c-1.44,3.15.15,8.1,3.82,9.77,2.75,1.29,7.28-.21,7.62-5.16.32-4.53-.86-6.52-3.64-7.8A6,6,0,0,0,42.46,51.19Z"/><path d="M48.82,55.25a1.3,1.3,0,1,0,.45-1.78A1.32,1.32,0,0,0,48.82,55.25Z"/><path class="cls-4" d="M62,83.15c-5.29-7.31-15.3-9.56-22.58-9.27,4.4,3.69,7.73,6.55,18.71,16.68,1.38,1.26,7,6,8,7.31C65.77,93.26,65.06,87.45,62,83.15Z"/><path class="cls-5" d="M39.39,73.88c4.11,3.72,5.87,4.37,17.32,15.43,1.33,1.31,8.77,7.65,9.77,9"/><path class="cls-4" d="M80.44,76.86c-.26,4.43.76,12.71,3.22,14.88,1.26-13.88,2.62-28.5,3.38-31.69C84.29,61.41,80.91,68.93,80.44,76.86Z"/><path class="cls-5" d="M83.66,91.74c1.26-13.85,2.62-28.5,3.38-31.69"/><path class="cls-4" d="M31.27,42.78s-2.59-11.68-1.54-11,9.37,6.52,9.37,6.52a35.88,35.88,0,0,0-4.29,2C33.81,41,31.27,42.78,31.27,42.78Z"/><path class="cls-6" d="M71.72,104.05c5.37,5.19,10.24,9.17,10.79,4.43.84-7,1.15-16.74,1.15-16.74s-13.78,4.09-17.21,6.79C66.45,98.53,70.22,102.59,71.72,104.05Z"/></g><g class="cls-2"><path class="cls-3" d="M78.32,90.56s5.34,4.69,8.88,7.65a18.09,18.09,0,0,0,8.72,4.22c1.39.11,7.39-3,8.17-.68.5,1.49-2.3,3.22-2.3,3.22s2.36,1.15,3,2.72c.86,2.34-4.3,1.37-4.3,1.37s4.53,2.62,1.52,5.13c-1.81,1.52-6-1.94-9.53-6.13-5-5.89-17.27-12-17.27-12"/><path class="cls-3" d="M42.54,94.13s-6.81,6.07-10.25,9.19a18.24,18.24,0,0,0-5.37,8c-.28,1.36,2,7.73-.44,8.2-1.55.29-2.86-2.72-2.86-2.72s-1.46,2.17-3.09,2.54c-2.43.55-.76-4.45-.76-4.45s-4.24,4.79-6.34,1.46c-1.25-2,1.37-5.42,8.41-9.27,6.79-3.69,22-23.29,22-23.29"/><path class="cls-3" d="M47.88,69.56c-3.2,8.14-4.72,13.59-9.43,33.68s-10.06,32,0,36.1,28.29,4.37,33.69,3.06c1.44-.36,4-5,4-16.24s5.81-54.35,5.81-54.35L57.6,52.69A66.47,66.47,0,0,0,47.88,69.56Z"/><path class="cls-4" d="M70.35,130c0,14.9-5.55,5.34-11.47,5.34s-13.62,11.37-13.62-3.54S53,81.5,58.88,81.32C69.59,81,70.35,115.06,70.35,130Z"/><path d="M44.53,124.67s2.9-30,2.09-36.18C45.08,77,43.79,76.31,43.79,76.31l1.5-1.93s3.3,2.85,5,14.38c.94,6.65-1.18,36-1.18,36Z"/><path d="M70.3,127.55S75,90.69,78.11,84.09a25.26,25.26,0,0,1,3.61-5.63l.82-3.74s-2.73-.19-7.29,7.67c-3.9,6.76-8.77,44.48-8.77,44.48Z"/><path class="cls-3" d="M91.94,45.43a1.79,1.79,0,0,1,.84-2.51,57.56,57.56,0,0,1,7.31-2.52A16.27,16.27,0,0,0,96,37.55a46.89,46.89,0,0,0-6-1.65s-2.4-5.82-3.48-8.62C82.9,18,79.26,11.3,76.85,6s-3-.68-3.69,1.12-5.69,20.25-5.69,20.25-2.35.74-9.45,2.49S43.3,34.38,43.3,34.38,26,24,23.26,22.8s1,9.9,2.17,13.83a68.24,68.24,0,0,1,2.41,14.69A45.2,45.2,0,0,0,23.05,57c-2.1,3-4,9.43-2.33,7.07s8.17-3.56,8.17-3.56-1.23,3.33-1.6,4.43c-1.2,3.66-2.23,7.15-2.23,7.15a23.28,23.28,0,0,0,5.43-4c3.11-3,4.21-3.74,2.41,1s-1.39,7.62-1.39,7.62a32.06,32.06,0,0,1,3.38-3.12,3.47,3.47,0,0,1,3.8-.13,155,155,0,0,1,24.25,21c15.88,17.08,18.78,14.88,19,13.91.68-3.45,3-29.26,4.22-46.68.29-.34,0-.91.86-1.65,4.48-3.77,8.2-3.79,8.2-3.79s0-.53-1.15-1.65a18.65,18.65,0,0,0-4.4-3.33s-.16-.79,3.62-1.1a53.32,53.32,0,0,1,5.55-.18A13.51,13.51,0,0,0,96,47.5C94.19,46.48,91.94,45.43,91.94,45.43Z"/><path class="cls-4" d="M82.61,39.09c3.23,2.41,4.35,8.38,1.52,12.18C82,54.13,76.51,55.1,73.42,50.22c-2.86-4.48-1.41-7.28.73-10.11S79.37,36.68,82.61,39.09Z"/><path d="M82.38,46.45a1.31,1.31,0,1,0-.26-1.83A1.27,1.27,0,0,0,82.38,46.45Z"/><path class="cls-4" d="M42.46,51.19c-1.44,3.15.15,8.1,3.82,9.77,2.75,1.29,7.28-.21,7.62-5.16.32-4.53-.86-6.52-3.64-7.8A6,6,0,0,0,42.46,51.19Z"/><path d="M48.82,55.25a1.3,1.3,0,1,0,.45-1.78A1.32,1.32,0,0,0,48.82,55.25Z"/><path class="cls-4" d="M62,83.15c-5.29-7.31-15.3-9.56-22.58-9.27,4.4,3.69,7.73,6.55,18.71,16.68,1.38,1.26,7,6,8,7.31C65.77,93.26,65.06,87.45,62,83.15Z"/><path class="cls-5" d="M39.39,73.88c4.11,3.72,5.87,4.37,17.32,15.43,1.33,1.31,8.77,7.65,9.77,9"/><path class="cls-4" d="M80.44,76.86c-.26,4.43.76,12.71,3.22,14.88,1.26-13.88,2.62-28.5,3.38-31.69C84.29,61.41,80.91,68.93,80.44,76.86Z"/><path class="cls-5" d="M83.66,91.74c1.26-13.85,2.62-28.5,3.38-31.69"/><path class="cls-4" d="M31.27,42.78s-2.59-11.68-1.54-11,9.37,6.52,9.37,6.52a35.88,35.88,0,0,0-4.29,2C33.81,41,31.27,42.78,31.27,42.78Z"/><path class="cls-6" d="M71.72,104.05c5.37,5.19,10.24,9.17,10.79,4.43.84-7,1.15-16.74,1.15-16.74s-13.78,4.09-17.21,6.79C66.45,98.53,70.22,102.59,71.72,104.05Z"/></g><g class="cls-2"><path class="cls-3" d="M78.32,90.56s5.34,4.69,8.88,7.65a18.09,18.09,0,0,0,8.72,4.22c1.39.11,7.39-3,8.17-.68.5,1.49-2.3,3.22-2.3,3.22s2.36,1.15,3,2.72c.86,2.34-4.3,1.37-4.3,1.37s4.53,2.62,1.52,5.13c-1.81,1.52-6-1.94-9.53-6.13-5-5.89-17.27-12-17.27-12"/><path class="cls-3" d="M42.54,94.13s-6.81,6.07-10.25,9.19a18.24,18.24,0,0,0-5.37,8c-.28,1.36,2,7.73-.44,8.2-1.55.29-2.86-2.72-2.86-2.72s-1.46,2.17-3.09,2.54c-2.43.55-.76-4.45-.76-4.45s-4.24,4.79-6.34,1.46c-1.25-2,1.37-5.42,8.41-9.27,6.79-3.69,22-23.29,22-23.29"/><path class="cls-3" d="M47.88,69.56c-3.2,8.14-4.72,13.59-9.43,33.68s-10.06,32,0,36.1,28.29,4.37,33.69,3.06c1.44-.36,4-5,4-16.24s5.81-54.35,5.81-54.35L57.6,52.69A66.47,66.47,0,0,0,47.88,69.56Z"/><path class="cls-4" d="M70.35,130c0,14.9-5.55,5.34-11.47,5.34s-13.62,11.37-13.62-3.54S53,81.5,58.88,81.32C69.59,81,70.35,115.06,70.35,130Z"/><path d="M44.53,124.67s2.9-30,2.09-36.18C45.08,77,43.79,76.31,43.79,76.31l1.5-1.93s3.3,2.85,5,14.38c.94,6.65-1.18,36-1.18,36Z"/><path d="M70.3,127.55S75,90.69,78.11,84.09a25.26,25.26,0,0,1,3.61-5.63l.82-3.74s-2.73-.19-7.29,7.67c-3.9,6.76-8.77,44.48-8.77,44.48Z"/><path class="cls-3" d="M91.94,45.43a1.79,1.79,0,0,1,.84-2.51,57.56,57.56,0,0,1,7.31-2.52A16.27,16.27,0,0,0,96,37.55a46.89,46.89,0,0,0-6-1.65s-2.4-5.82-3.48-8.62C82.9,18,79.26,11.3,76.85,6s-3-.68-3.69,1.12-5.69,20.25-5.69,20.25-2.35.74-9.45,2.49S43.3,34.38,43.3,34.38,26,24,23.26,22.8s1,9.9,2.17,13.83a68.24,68.24,0,0,1,2.41,14.69A45.2,45.2,0,0,0,23.05,57c-2.1,3-4,9.43-2.33,7.07s8.17-3.56,8.17-3.56-1.23,3.33-1.6,4.43c-1.2,3.66-2.23,7.15-2.23,7.15a23.28,23.28,0,0,0,5.43-4c3.11-3,4.21-3.74,2.41,1s-1.39,7.62-1.39,7.62a32.06,32.06,0,0,1,3.38-3.12,3.47,3.47,0,0,1,3.8-.13,155,155,0,0,1,24.25,21c15.88,17.08,18.78,14.88,19,13.91.68-3.45,3-29.26,4.22-46.68.29-.34,0-.91.86-1.65,4.48-3.77,8.2-3.79,8.2-3.79s0-.53-1.15-1.65a18.65,18.65,0,0,0-4.4-3.33s-.16-.79,3.62-1.1a53.32,53.32,0,0,1,5.55-.18A13.51,13.51,0,0,0,96,47.5C94.19,46.48,91.94,45.43,91.94,45.43Z"/><path class="cls-4" d="M82.61,39.09c3.23,2.41,4.35,8.38,1.52,12.18C82,54.13,76.51,55.1,73.42,50.22c-2.86-4.48-1.41-7.28.73-10.11S79.37,36.68,82.61,39.09Z"/><path d="M82.38,46.45a1.31,1.31,0,1,0-.26-1.83A1.27,1.27,0,0,0,82.38,46.45Z"/><path class="cls-4" d="M42.46,51.19c-1.44,3.15.15,8.1,3.82,9.77,2.75,1.29,7.28-.21,7.62-5.16.32-4.53-.86-6.52-3.64-7.8A6,6,0,0,0,42.46,51.19Z"/><path d="M48.82,55.25a1.3,1.3,0,1,0,.45-1.78A1.32,1.32,0,0,0,48.82,55.25Z"/><path class="cls-4" d="M62,83.15c-5.29-7.31-15.3-9.56-22.58-9.27,4.4,3.69,7.73,6.55,18.71,16.68,1.38,1.26,7,6,8,7.31C65.77,93.26,65.06,87.45,62,83.15Z"/><path class="cls-5" d="M39.39,73.88c4.11,3.72,5.87,4.37,17.32,15.43,1.33,1.31,8.77,7.65,9.77,9"/><path class="cls-4" d="M80.44,76.86c-.26,4.43.76,12.71,3.22,14.88,1.26-13.88,2.62-28.5,3.38-31.69C84.29,61.41,80.91,68.93,80.44,76.86Z"/><path class="cls-5" d="M83.66,91.74c1.26-13.85,2.62-28.5,3.38-31.69"/><path class="cls-4" d="M31.27,42.78s-2.59-11.68-1.54-11,9.37,6.52,9.37,6.52a35.88,35.88,0,0,0-4.29,2C33.81,41,31.27,42.78,31.27,42.78Z"/><path class="cls-6" d="M71.72,104.05c5.37,5.19,10.24,9.17,10.79,4.43.84-7,1.15-16.74,1.15-16.74s-13.78,4.09-17.21,6.79C66.45,98.53,70.22,102.59,71.72,104.05Z"/></g></svg>