<svg id="Layer_1" data-name="Layer 1" xmlns="http://www.w3.org/2000/svg" xmlns:xlink="http://www.w3.org/1999/xlink" viewBox="0 0 118 118"><defs><style>.cls-1{fill:#c4c4c4;}.cls-2{mask:url(#mask);}.cls-3{fill:#5d3d3d;}.cls-4{fill:#7a411b;}.cls-5{fill:#db7e2d;}.cls-6{fill:#f7941d;}.cls-7{fill:#a35625;}.cls-8{fill:#fff;}.cls-10,.cls-9{fill:none;stroke-linecap:round;}.cls-9{stroke:#000;stroke-width:0.37px;}.cls-10{stroke:#db7e2d;stroke-width:0.52px;}</style><mask id="mask" x="-42.42" y="-5.32" width="198.35" height="172.45" maskUnits="userSpaceOnUse"><g id="mask0"><rect class="cls-1" x="-42.42" y="-5.32" width="198.35" height="123.66"/></g></mask></defs><title>iconViolin</title><g class="cls-2"><path class="cls-3" d="M55.85,40.26c.79.17,1.11-1.58,1.5-2.63-6.73-7.93-15.69-14.31-25.74-12.1,5.81,1.1,10.46,2.39,15.26,6C48.8,32.72,53.6,37.4,55.85,40.26Z"/><path class="cls-3" d="M64.05,33.48C61.92,25.55,56.11,14,47.45,11.21a56.92,56.92,0,0,1,8.3,10.32c2.43,3.85,4.71,10.65,5.46,13.92C62.4,34.66,64.28,35.1,64.05,33.48Z"/><path class="cls-4" d="M19.26,99.36c-2.69,8.37,1,42.06,1.26,48.16.29,6.78,1.2,8.12-2.09,8.79-5.57,1.14-8.74,4.41-1.36,3.58,2.82-.18,6.06,0,8.46-1.61.25-7.2-.45-17.8-.81-28-.15-4.43-3.07-23-.06-25.72,6.16-6.2,19.3,11.54,23.71,14.75,3.56,2.47,10.06,5.82,8.8-.81-.72-3.62-5.56-7.5-8.16-9.94C46.84,106.65,23.74,85.08,19.26,99.36Z"/><path class="cls-4" d="M98.91,66.37c-4,3.89-7,4.47-11.24,6.19-2.12.84-1.17.39-1.61,2.67-.49,4.3-2.59,13.78-3.12,18.17-.93,7.6-1.8,17.16-6,24.78-2.18,4.21-12.61,14.23-17,17.07-6.08,4-18.5,8.85-27.76,9.24A62.43,62.43,0,0,1,2,137.93c-2.21-1.16-5.06-3.22-6-5.87-1.36-3.13,5.78-7.42,7.88-9.37,2.25-2.34,12.93-10.26,14.53-12,4.27-4.84,18-22.51,20.56-27.49,2.78-5,3.59-11,5.78-16.33,1.94-4.51,3.32-9.14,5.62-13.53a13,13,0,0,1,2.8-4.19C53.16,37.52,59.25,33.64,64,32c6.58-2.43,16.68,1.86,22.86,4.13C102.42,41.78,115.7,58.08,98.91,66.37Z"/><path class="cls-5" d="M62.93,76.28C60.81,85.47,52,112.81,37.47,124.13c-5.94,4.48-13.48,7.21-21.15,9-4.15.93-16.58,4-20.69.67-4.22-4,10.79-14.42,14.24-17.9,7.15-7.61,20-19.4,25.25-28.7C41.92,75.15,44,66.58,46,63.91,48.17,60.93,64.05,71.29,62.93,76.28Z"/><path class="cls-6" d="M87.14,76.21a172.93,172.93,0,0,1-34.62-17c-1-.59-2.09-1.71-3.06-2.14-2.18-1-1.43-.9-3,.8-2.25,2.34-3.66,5.33-2.19,7.87,1.67,2.52,5.42,3.54,7.76,5.16C58.55,75.46,79.6,83.2,82.43,83.53c2.47.39,2.66.56,3.32-1.38A18.74,18.74,0,0,0,87.14,76.21Z"/><path class="cls-7" d="M12.66,102.86c-4.06,8.51-5,44.77-5.53,51.27-.67,7.25.1,8.79-3.48,9.05-6.07.41-9.9,3.43-1.95,3.6,3,.22,6.43.89,9.22-.5,1.26-7.59,2.08-18.93,3.13-29.82.46-4.72,0-24.79,3.64-27.3,7.41-5.7,18.8,15,23,19.05,3.43,3.14,9.84,7.62,9.46.4-.22-3.92-4.84-8.76-7.25-11.71C40.9,114.55,19.5,88.36,12.66,102.86Z"/><path class="cls-7" d="M78.2,94.05c9.8-1.4,14.09-5.31,21.37-12,3.79-3.5,4.61-5.47,8.52-1.4,2.32,2.31,5.74,7.76.38,7.19-1.36-.14-1.49-3.42-3.48-3.45-1.66-.1-10.94,8.84-14.67,10.35a31.32,31.32,0,0,1-10.81,2.85C75.86,97.51,72.08,94.93,78.2,94.05Z"/><path class="cls-8" d="M68.85,38.39c8.61,6,1.69,18.5-8.07,11.64C52.53,44.26,61.66,33.4,68.85,38.39Z"/><path class="cls-7" d="M69,114.34c4.13,6.17,14.27,10.56,25.35,5,4-2.21,8.74-4.77,11.67.8,3.07,5.75,1.87,6.92.73,7.62-1.88,1.18-3.07-1.35-5.77-6.5-4.5,1-9.23,4.14-14.39,5-12,2-26.44-10.66-24.52-15.28C63.84,106.79,66.8,111,69,114.34Z"/><path class="cls-9" d="M97.86,66.38a12.41,12.41,0,0,1-5.4-.39c-3.86-1.18-5.59-6.13-5.59-6.13"/><path d="M67.12,41.42a1.53,1.53,0,0,1,1.52,1,1.16,1.16,0,0,1-1,1.4A1.45,1.45,0,0,1,66,42.52,1,1,0,0,1,67.12,41.42Z"/><path class="cls-10" d="M81.88,103.27c-10.22,2-20.22-2.16-27.53-8"/><path class="cls-10" d="M68.92,127.51c-11.1,1.68-21.58-4.86-26.95-13"/></g><g class="cls-2"><path class="cls-3" d="M55.85,40.26c.79.17,1.11-1.58,1.5-2.63-6.73-7.93-15.69-14.31-25.74-12.1,5.81,1.1,10.46,2.39,15.26,6C48.8,32.72,53.6,37.4,55.85,40.26Z"/><path class="cls-3" d="M64.05,33.48C61.92,25.55,56.11,14,47.45,11.21a56.92,56.92,0,0,1,8.3,10.32c2.43,3.85,4.71,10.65,5.46,13.92C62.4,34.66,64.28,35.1,64.05,33.48Z"/><path class="cls-4" d="M19.26,99.36c-2.69,8.37,1,42.06,1.26,48.16.29,6.78,1.2,8.12-2.09,8.79-5.57,1.14-8.74,4.41-1.36,3.58,2.82-.18,6.06,0,8.46-1.61.25-7.2-.45-17.8-.81-28-.15-4.43-3.07-23-.06-25.72,6.16-6.2,19.3,11.54,23.71,14.75,3.56,2.47,10.06,5.82,8.8-.81-.72-3.62-5.56-7.5-8.16-9.94C46.84,106.65,23.74,85.08,19.26,99.36Z"/><path class="cls-4" d="M98.91,66.37c-4,3.89-7,4.47-11.24,6.19-2.12.84-1.17.39-1.61,2.67-.49,4.3-2.59,13.78-3.12,18.17-.93,7.6-1.8,17.16-6,24.78-2.18,4.21-12.61,14.23-17,17.07-6.08,4-18.5,8.85-27.76,9.24A62.43,62.43,0,0,1,2,137.93c-2.21-1.16-5.06-3.22-6-5.87-1.36-3.13,5.78-7.42,7.88-9.37,2.25-2.34,12.93-10.26,14.53-12,4.27-4.84,18-22.51,20.56-27.49,2.78-5,3.59-11,5.78-16.33,1.94-4.51,3.32-9.14,5.62-13.53a13,13,0,0,1,2.8-4.19C53.16,37.52,59.25,33.64,64,32c6.58-2.43,16.68,1.86,22.86,4.13C102.42,41.78,115.7,58.08,98.91,66.37Z"/><path class="cls-5" d="M62.93,76.28C60.81,85.47,52,112.81,37.47,124.13c-5.94,4.48-13.48,7.21-21.15,9-4.15.93-16.58,4-20.69.67-4.22-4,10.79-14.42,14.24-17.9,7.15-7.61,20-19.4,25.25-28.7C41.92,75.15,44,66.58,46,63.91,48.17,60.93,64.05,71.29,62.93,76.28Z"/><path class="cls-6" d="M87.14,76.21a172.93,172.93,0,0,1-34.62-17c-1-.59-2.09-1.71-3.06-2.14-2.18-1-1.43-.9-3,.8-2.25,2.34-3.66,5.33-2.19,7.87,1.67,2.52,5.42,3.54,7.76,5.16C58.55,75.46,79.6,83.2,82.43,83.53c2.47.39,2.66.56,3.32-1.38A18.74,18.74,0,0,0,87.14,76.21Z"/><path class="cls-7" d="M12.66,102.86c-4.06,8.51-5,44.77-5.53,51.27-.67,7.25.1,8.79-3.48,9.05-6.07.41-9.9,3.43-1.95,3.6,3,.22,6.43.89,9.22-.5,1.26-7.59,2.08-18.93,3.13-29.82.46-4.72,0-24.79,3.64-27.3,7.41-5.7,18.8,15,23,19.05,3.43,3.14,9.84,7.62,9.46.4-.22-3.92-4.84-8.76-7.25-11.71C40.9,114.55,19.5,88.36,12.66,102.86Z"/><path class="cls-7" d="M78.2,94.05c9.8-1.4,14.09-5.31,21.37-12,3.79-3.5,4.61-5.47,8.52-1.4,2.32,2.31,5.74,7.76.38,7.19-1.36-.14-1.49-3.42-3.48-3.45-1.66-.1-10.94,8.84-14.67,10.35a31.32,31.32,0,0,1-10.81,2.85C75.86,97.51,72.08,94.93,78.2,94.05Z"/><path class="cls-8" d="M68.85,38.39c8.61,6,1.69,18.5-8.07,11.64C52.53,44.26,61.66,33.4,68.85,38.39Z"/><path class="cls-7" d="M69,114.34c4.13,6.17,14.27,10.56,25.35,5,4-2.21,8.74-4.77,11.67.8,3.07,5.75,1.87,6.92.73,7.62-1.88,1.18-3.07-1.35-5.77-6.5-4.5,1-9.23,4.14-14.39,5-12,2-26.44-10.66-24.52-15.28C63.84,106.79,66.8,111,69,114.34Z"/><path class="cls-9" d="M97.86,66.38a12.41,12.41,0,0,1-5.4-.39c-3.86-1.18-5.59-6.13-5.59-6.13"/><path d="M67.12,41.42a1.53,1.53,0,0,1,1.52,1,1.16,1.16,0,0,1-1,1.4A1.45,1.45,0,0,1,66,42.52,1,1,0,0,1,67.12,41.42Z"/><path class="cls-10" d="M81.88,103.27c-10.22,2-20.22-2.16-27.53-8"/><path class="cls-10" d="M68.92,127.51c-11.1,1.68-21.58-4.86-26.95-13"/></g><g class="cls-2"><path class="cls-3" d="M55.85,40.26c.79.17,1.11-1.58,1.5-2.63-6.73-7.93-15.69-14.31-25.74-12.1,5.81,1.1,10.46,2.39,15.26,6C48.8,32.72,53.6,37.4,55.85,40.26Z"/><path class="cls-3" d="M64.05,33.48C61.92,25.55,56.11,14,47.45,11.21a56.92,56.92,0,0,1,8.3,10.32c2.43,3.85,4.71,10.65,5.46,13.92C62.4,34.66,64.28,35.1,64.05,33.48Z"/><path class="cls-4" d="M19.26,99.36c-2.69,8.37,1,42.06,1.26,48.16.29,6.78,1.2,8.12-2.09,8.79-5.57,1.14-8.74,4.41-1.36,3.58,2.82-.18,6.06,0,8.46-1.61.25-7.2-.45-17.8-.81-28-.15-4.43-3.07-23-.06-25.72,6.16-6.2,19.3,11.54,23.71,14.75,3.56,2.47,10.06,5.82,8.8-.81-.72-3.62-5.56-7.5-8.16-9.94C46.84,106.65,23.74,85.08,19.26,99.36Z"/><path class="cls-4" d="M98.91,66.37c-4,3.89-7,4.47-11.24,6.19-2.12.84-1.17.39-1.61,2.67-.49,4.3-2.59,13.78-3.12,18.17-.93,7.6-1.8,17.16-6,24.78-2.18,4.21-12.61,14.23-17,17.07-6.08,4-18.5,8.85-27.76,9.24A62.43,62.43,0,0,1,2,137.93c-2.21-1.16-5.06-3.22-6-5.87-1.36-3.13,5.78-7.42,7.88-9.37,2.25-2.34,12.93-10.26,14.53-12,4.27-4.84,18-22.51,20.56-27.49,2.78-5,3.59-11,5.78-16.33,1.94-4.51,3.32-9.14,5.62-13.53a13,13,0,0,1,2.8-4.19C53.16,37.52,59.25,33.64,64,32c6.58-2.43,16.68,1.86,22.86,4.13C102.42,41.78,115.7,58.08,98.91,66.37Z"/><path class="cls-5" d="M62.93,76.28C60.81,85.47,52,112.81,37.47,124.13c-5.94,4.48-13.48,7.21-21.15,9-4.15.93-16.58,4-20.69.67-4.22-4,10.79-14.42,14.24-17.9,7.15-7.61,20-19.4,25.25-28.7C41.92,75.15,44,66.58,46,63.91,48.17,60.93,64.05,71.29,62.93,76.28Z"/><path class="cls-6" d="M87.14,76.21a172.93,172.93,0,0,1-34.62-17c-1-.59-2.09-1.71-3.06-2.14-2.18-1-1.43-.9-3,.8-2.25,2.34-3.66,5.33-2.19,7.87,1.67,2.52,5.42,3.54,7.76,5.16C58.55,75.46,79.6,83.2,82.43,83.53c2.47.39,2.66.56,3.32-1.38A18.74,18.74,0,0,0,87.14,76.21Z"/><path class="cls-7" d="M12.66,102.86c-4.06,8.51-5,44.77-5.53,51.27-.67,7.25.1,8.79-3.48,9.05-6.07.41-9.9,3.43-1.95,3.6,3,.22,6.43.89,9.22-.5,1.26-7.59,2.08-18.93,3.13-29.82.46-4.72,0-24.79,3.64-27.3,7.41-5.7,18.8,15,23,19.05,3.43,3.14,9.84,7.62,9.46.4-.22-3.92-4.84-8.76-7.25-11.71C40.9,114.55,19.5,88.36,12.66,102.86Z"/><path class="cls-7" d="M78.2,94.05c9.8-1.4,14.09-5.31,21.37-12,3.79-3.5,4.61-5.47,8.52-1.4,2.32,2.31,5.74,7.76.38,7.19-1.36-.14-1.49-3.42-3.48-3.45-1.66-.1-10.94,8.84-14.67,10.35a31.32,31.32,0,0,1-10.81,2.85C75.86,97.51,72.08,94.93,78.2,94.05Z"/><path class="cls-8" d="M68.85,38.39c8.61,6,1.69,18.5-8.07,11.64C52.53,44.26,61.66,33.4,68.85,38.39Z"/><path class="cls-7" d="M69,114.34c4.13,6.17,14.27,10.56,25.35,5,4-2.21,8.74-4.77,11.67.8,3.07,5.75,1.87,6.92.73,7.62-1.88,1.18-3.07-1.35-5.77-6.5-4.5,1-9.23,4.14-14.39,5-12,2-26.44-10.66-24.52-15.28C63.84,106.79,66.8,111,69,114.34Z"/><path class="cls-9" d="M97.86,66.38a12.41,12.41,0,0,1-5.4-.39c-3.86-1.18-5.59-6.13-5.59-6.13"/><path d="M67.12,41.42a1.53,1.53,0,0,1,1.52,1,1.16,1.16,0,0,1-1,1.4A1.45,1.45,0,0,1,66,42.52,1,1,0,0,1,67.12,41.42Z"/><path class="cls-10" d="M81.88,103.27c-10.22,2-20.22-2.16-27.53-8"/><path class="cls-10" d="M68.92,127.51c-11.1,1.68-21.58-4.86-26.95-13"/></g><g class="cls-2"><path class="cls-3" d="M55.85,40.26c.79.17,1.11-1.58,1.5-2.63-6.73-7.93-15.69-14.31-25.74-12.1,5.81,1.1,10.46,2.39,15.26,6C48.8,32.72,53.6,37.4,55.85,40.26Z"/><path class="cls-3" d="M64.05,33.48C61.92,25.55,56.11,14,47.45,11.21a56.92,56.92,0,0,1,8.3,10.32c2.43,3.85,4.71,10.65,5.46,13.92C62.4,34.66,64.28,35.1,64.05,33.48Z"/><path class="cls-4" d="M19.26,99.36c-2.69,8.37,1,42.06,1.26,48.16.29,6.78,1.2,8.12-2.09,8.79-5.57,1.14-8.74,4.41-1.36,3.58,2.82-.18,6.06,0,8.46-1.61.25-7.2-.45-17.8-.81-28-.15-4.43-3.07-23-.06-25.72,6.16-6.2,19.3,11.54,23.71,14.75,3.56,2.47,10.06,5.82,8.8-.81-.72-3.62-5.56-7.5-8.16-9.94C46.84,106.65,23.74,85.08,19.26,99.36Z"/><path class="cls-4" d="M98.91,66.37c-4,3.89-7,4.47-11.24,6.19-2.12.84-1.17.39-1.61,2.67-.49,4.3-2.59,13.78-3.12,18.17-.93,7.6-1.8,17.16-6,24.78-2.18,4.21-12.61,14.23-17,17.07-6.08,4-18.5,8.85-27.76,9.24A62.43,62.43,0,0,1,2,137.93c-2.21-1.16-5.06-3.22-6-5.87-1.36-3.13,5.78-7.42,7.88-9.37,2.25-2.34,12.93-10.26,14.53-12,4.27-4.84,18-22.51,20.56-27.49,2.78-5,3.59-11,5.78-16.33,1.94-4.51,3.32-9.14,5.62-13.53a13,13,0,0,1,2.8-4.19C53.16,37.52,59.25,33.64,64,32c6.58-2.43,16.68,1.86,22.86,4.13C102.42,41.78,115.7,58.08,98.91,66.37Z"/><path class="cls-5" d="M62.93,76.28C60.81,85.47,52,112.81,37.47,124.13c-5.94,4.48-13.48,7.21-21.15,9-4.15.93-16.58,4-20.69.67-4.22-4,10.79-14.42,14.24-17.9,7.15-7.61,20-19.4,25.25-28.7C41.92,75.15,44,66.58,46,63.91,48.17,60.93,64.05,71.29,62.93,76.28Z"/><path class="cls-6" d="M87.14,76.21a172.93,172.93,0,0,1-34.62-17c-1-.59-2.09-1.71-3.06-2.14-2.18-1-1.43-.9-3,.8-2.25,2.34-3.66,5.33-2.19,7.87,1.67,2.52,5.42,3.54,7.76,5.16C58.55,75.46,79.6,83.2,82.43,83.53c2.47.39,2.66.56,3.32-1.38A18.74,18.74,0,0,0,87.14,76.21Z"/><path class="cls-7" d="M12.66,102.86c-4.06,8.51-5,44.77-5.53,51.27-.67,7.25.1,8.79-3.48,9.05-6.07.41-9.9,3.43-1.95,3.6,3,.22,6.43.89,9.22-.5,1.26-7.59,2.08-18.93,3.13-29.82.46-4.72,0-24.79,3.64-27.3,7.41-5.7,18.8,15,23,19.05,3.43,3.14,9.84,7.62,9.46.4-.22-3.92-4.84-8.76-7.25-11.71C40.9,114.55,19.5,88.36,12.66,102.86Z"/><path class="cls-7" d="M78.2,94.05c9.8-1.4,14.09-5.31,21.37-12,3.79-3.5,4.61-5.47,8.52-1.4,2.32,2.31,5.74,7.76.38,7.19-1.36-.14-1.49-3.42-3.48-3.45-1.66-.1-10.94,8.84-14.67,10.35a31.32,31.32,0,0,1-10.81,2.85C75.86,97.51,72.08,94.93,78.2,94.05Z"/><path class="cls-8" d="M68.85,38.39c8.61,6,1.69,18.5-8.07,11.64C52.53,44.26,61.66,33.4,68.85,38.39Z"/><path class="cls-7" d="M69,114.34c4.13,6.17,14.27,10.56,25.35,5,4-2.21,8.74-4.77,11.67.8,3.07,5.75,1.87,6.92.73,7.62-1.88,1.18-3.07-1.35-5.77-6.5-4.5,1-9.23,4.14-14.39,5-12,2-26.44-10.66-24.52-15.28C63.84,106.79,66.8,111,69,114.34Z"/><path class="cls-9" d="M97.86,66.38a12.41,12.41,0,0,1-5.4-.39c-3.86-1.18-5.59-6.13-5.59-6.13"/><path d="M67.12,41.42a1.53,1.53,0,0,1,1.52,1,1.16,1.16,0,0,1-1,1.4A1.45,1.45,0,0,1,66,42.52,1,1,0,0,1,67.12,41.42Z"/><path class="cls-10" d="M81.88,103.27c-10.22,2-20.22-2.16-27.53-8"/><path class="cls-10" d="M68.92,127.51c-11.1,1.68-21.58-4.86-26.95-13"/></g><g class="cls-2"><path class="cls-3" d="M55.85,40.26c.79.17,1.11-1.58,1.5-2.63-6.73-7.93-15.69-14.31-25.74-12.1,5.81,1.1,10.46,2.39,15.26,6C48.8,32.72,53.6,37.4,55.85,40.26Z"/><path class="cls-3" d="M64.05,33.48C61.92,25.55,56.11,14,47.45,11.21a56.92,56.92,0,0,1,8.3,10.32c2.43,3.85,4.71,10.65,5.46,13.92C62.4,34.66,64.28,35.1,64.05,33.48Z"/><path class="cls-4" d="M19.26,99.36c-2.69,8.37,1,42.06,1.26,48.16.29,6.78,1.2,8.12-2.09,8.79-5.57,1.14-8.74,4.41-1.36,3.58,2.82-.18,6.06,0,8.46-1.61.25-7.2-.45-17.8-.81-28-.15-4.43-3.07-23-.06-25.72,6.16-6.2,19.3,11.54,23.71,14.75,3.56,2.47,10.06,5.82,8.8-.81-.72-3.62-5.56-7.5-8.16-9.94C46.84,106.65,23.74,85.08,19.26,99.36Z"/><path class="cls-4" d="M98.91,66.37c-4,3.89-7,4.47-11.24,6.19-2.12.84-1.17.39-1.61,2.67-.49,4.3-2.59,13.78-3.12,18.17-.93,7.6-1.8,17.16-6,24.78-2.18,4.21-12.61,14.23-17,17.07-6.08,4-18.5,8.85-27.76,9.24A62.43,62.43,0,0,1,2,137.93c-2.21-1.16-5.06-3.22-6-5.87-1.36-3.13,5.78-7.42,7.88-9.37,2.25-2.34,12.93-10.26,14.53-12,4.27-4.84,18-22.51,20.56-27.49,2.78-5,3.59-11,5.78-16.33,1.94-4.51,3.32-9.14,5.62-13.53a13,13,0,0,1,2.8-4.19C53.16,37.52,59.25,33.64,64,32c6.58-2.43,16.68,1.86,22.86,4.13C102.42,41.78,115.7,58.08,98.91,66.37Z"/><path class="cls-5" d="M62.93,76.28C60.81,85.47,52,112.81,37.47,124.13c-5.94,4.48-13.48,7.21-21.15,9-4.15.93-16.58,4-20.69.67-4.22-4,10.79-14.42,14.24-17.9,7.15-7.61,20-19.4,25.25-28.7C41.92,75.15,44,66.58,46,63.91,48.17,60.93,64.05,71.29,62.93,76.28Z"/><path class="cls-6" d="M87.14,76.21a172.93,172.93,0,0,1-34.62-17c-1-.59-2.09-1.71-3.06-2.14-2.18-1-1.43-.9-3,.8-2.25,2.34-3.66,5.33-2.19,7.87,1.67,2.52,5.42,3.54,7.76,5.16C58.55,75.46,79.6,83.2,82.43,83.53c2.47.39,2.66.56,3.32-1.38A18.74,18.74,0,0,0,87.14,76.21Z"/><path class="cls-7" d="M12.66,102.86c-4.06,8.51-5,44.77-5.53,51.27-.67,7.25.1,8.79-3.48,9.05-6.07.41-9.9,3.43-1.95,3.6,3,.22,6.43.89,9.22-.5,1.26-7.59,2.08-18.93,3.13-29.82.46-4.72,0-24.79,3.64-27.3,7.41-5.7,18.8,15,23,19.05,3.43,3.14,9.84,7.62,9.46.4-.22-3.92-4.84-8.76-7.25-11.71C40.9,114.55,19.5,88.36,12.66,102.86Z"/><path class="cls-7" d="M78.2,94.05c9.8-1.4,14.09-5.31,21.37-12,3.79-3.5,4.61-5.47,8.52-1.4,2.32,2.31,5.74,7.76.38,7.19-1.36-.14-1.49-3.42-3.48-3.45-1.66-.1-10.94,8.84-14.67,10.35a31.32,31.32,0,0,1-10.81,2.85C75.86,97.51,72.08,94.93,78.2,94.05Z"/><path class="cls-8" d="M68.85,38.39c8.61,6,1.69,18.5-8.07,11.64C52.53,44.26,61.66,33.4,68.85,38.39Z"/><path class="cls-7" d="M69,114.34c4.13,6.17,14.27,10.56,25.35,5,4-2.21,8.74-4.77,11.67.8,3.07,5.75,1.87,6.92.73,7.62-1.88,1.18-3.07-1.35-5.77-6.5-4.5,1-9.23,4.14-14.39,5-12,2-26.44-10.66-24.52-15.28C63.84,106.79,66.8,111,69,114.34Z"/><path class="cls-9" d="M97.86,66.38a12.41,12.41,0,0,1-5.4-.39c-3.86-1.18-5.59-6.13-5.59-6.13"/><path d="M67.12,41.42a1.53,1.53,0,0,1,1.52,1,1.16,1.16,0,0,1-1,1.4A1.45,1.45,0,0,1,66,42.52,1,1,0,0,1,67.12,41.42Z"/><path class="cls-10" d="M81.88,103.27c-10.22,2-20.22-2.16-27.53-8"/><path class="cls-10" d="M68.92,127.51c-11.1,1.68-21.58-4.86-26.95-13"/></g><g class="cls-2"><path class="cls-3" d="M55.85,40.26c.79.17,1.11-1.58,1.5-2.63-6.73-7.93-15.69-14.31-25.74-12.1,5.81,1.1,10.46,2.39,15.26,6C48.8,32.72,53.6,37.4,55.85,40.26Z"/><path class="cls-3" d="M64.05,33.48C61.92,25.55,56.11,14,47.45,11.21a56.92,56.92,0,0,1,8.3,10.32c2.43,3.85,4.71,10.65,5.46,13.92C62.4,34.66,64.28,35.1,64.05,33.48Z"/><path class="cls-4" d="M19.26,99.36c-2.69,8.37,1,42.06,1.26,48.16.29,6.78,1.2,8.12-2.09,8.79-5.57,1.14-8.74,4.41-1.36,3.58,2.82-.18,6.06,0,8.46-1.61.25-7.2-.45-17.8-.81-28-.15-4.43-3.07-23-.06-25.72,6.16-6.2,19.3,11.54,23.71,14.75,3.56,2.47,10.06,5.82,8.8-.81-.72-3.62-5.56-7.5-8.16-9.94C46.84,106.65,23.74,85.08,19.26,99.36Z"/><path class="cls-4" d="M98.91,66.37c-4,3.89-7,4.47-11.24,6.19-2.12.84-1.17.39-1.61,2.67-.49,4.3-2.59,13.78-3.12,18.17-.93,7.6-1.8,17.16-6,24.78-2.18,4.21-12.61,14.23-17,17.07-6.08,4-18.5,8.85-27.76,9.24A62.43,62.43,0,0,1,2,137.93c-2.21-1.16-5.06-3.22-6-5.87-1.36-3.13,5.78-7.42,7.88-9.37,2.25-2.34,12.93-10.26,14.53-12,4.27-4.84,18-22.51,20.56-27.49,2.78-5,3.59-11,5.78-16.33,1.94-4.51,3.32-9.14,5.62-13.53a13,13,0,0,1,2.8-4.19C53.16,37.52,59.25,33.64,64,32c6.58-2.43,16.68,1.86,22.86,4.13C102.42,41.78,115.7,58.08,98.91,66.37Z"/><path class="cls-5" d="M62.93,76.28C60.81,85.47,52,112.81,37.47,124.13c-5.94,4.48-13.48,7.21-21.15,9-4.15.93-16.58,4-20.69.67-4.22-4,10.79-14.42,14.24-17.9,7.15-7.61,20-19.4,25.25-28.7C41.92,75.15,44,66.58,46,63.91,48.17,60.93,64.05,71.29,62.93,76.28Z"/><path class="cls-6" d="M87.14,76.21a172.93,172.93,0,0,1-34.62-17c-1-.59-2.09-1.71-3.06-2.14-2.18-1-1.43-.9-3,.8-2.25,2.34-3.66,5.33-2.19,7.87,1.67,2.52,5.42,3.54,7.76,5.16C58.55,75.46,79.6,83.2,82.43,83.53c2.47.39,2.66.56,3.32-1.38A18.74,18.74,0,0,0,87.14,76.21Z"/><path class="cls-7" d="M12.66,102.86c-4.06,8.51-5,44.77-5.53,51.27-.67,7.25.1,8.79-3.48,9.05-6.07.41-9.9,3.43-1.95,3.6,3,.22,6.43.89,9.22-.5,1.26-7.59,2.08-18.93,3.13-29.82.46-4.72,0-24.79,3.64-27.3,7.41-5.7,18.8,15,23,19.05,3.43,3.14,9.84,7.62,9.46.4-.22-3.92-4.84-8.76-7.25-11.71C40.9,114.55,19.5,88.36,12.66,102.86Z"/><path class="cls-7" d="M78.2,94.05c9.8-1.4,14.09-5.31,21.37-12,3.79-3.5,4.61-5.47,8.52-1.4,2.32,2.31,5.74,7.76.38,7.19-1.36-.14-1.49-3.42-3.48-3.45-1.66-.1-10.94,8.84-14.67,10.35a31.32,31.32,0,0,1-10.81,2.85C75.86,97.51,72.08,94.93,78.2,94.05Z"/><path class="cls-8" d="M68.85,38.39c8.61,6,1.69,18.5-8.07,11.64C52.53,44.26,61.66,33.4,68.85,38.39Z"/><path class="cls-7" d="M69,114.34c4.13,6.17,14.27,10.56,25.35,5,4-2.21,8.74-4.77,11.67.8,3.07,5.75,1.87,6.92.73,7.62-1.88,1.18-3.07-1.35-5.77-6.5-4.5,1-9.23,4.14-14.39,5-12,2-26.44-10.66-24.52-15.28C63.84,106.79,66.8,111,69,114.34Z"/><path class="cls-9" d="M97.86,66.38a12.41,12.41,0,0,1-5.4-.39c-3.86-1.18-5.59-6.13-5.59-6.13"/><path d="M67.12,41.42a1.53,1.53,0,0,1,1.52,1,1.16,1.16,0,0,1-1,1.4A1.45,1.45,0,0,1,66,42.52,1,1,0,0,1,67.12,41.42Z"/><path class="cls-10" d="M81.88,103.27c-10.22,2-20.22-2.16-27.53-8"/><path class="cls-10" d="M68.92,127.51c-11.1,1.68-21.58-4.86-26.95-13"/></g></svg>