<svg id="Layer_1" data-name="Layer 1" xmlns="http://www.w3.org/2000/svg" xmlns:xlink="http://www.w3.org/1999/xlink" viewBox="0 0 118 118"><defs><style>.cls-1{fill:#c4c4c4;}.cls-2{mask:url(#mask);}.cls-3{fill:#ddceb1;}.cls-4{fill:#cebb9d;}.cls-5{fill:#2bb673;}.cls-10,.cls-6,.cls-9{fill:none;stroke-linecap:round;}.cls-6{stroke:#037875;}.cls-10,.cls-6{stroke-width:0.38px;}.cls-7{fill:#d3d2c2;}.cls-8{fill:#26945f;}.cls-9{stroke:#afae9e;stroke-linejoin:round;stroke-width:0.25px;}.cls-10{stroke:#000;}.cls-11{fill:#fff;}.cls-11,.cls-12{fill-rule:evenodd;}</style><mask id="mask" x="-0.33" y="23.13" width="154.67" height="117.72" maskUnits="userSpaceOnUse"><g id="mask0"><rect class="cls-1" x="1.68" y="23.13" width="152.66" height="95.18"/></g></mask></defs><title>iconCas</title><g class="cls-2"><path class="cls-3" d="M107.29,124.56c-.29-.86-.93-3.17-.93-3.17s4-6,4.44-5.29a13.4,13.4,0,0,1,1.59,2.83c.47,1.33,1.51,8,1.51,8l-4.43,1.9A17.65,17.65,0,0,1,107.29,124.56Z"/><path d="M90.44,138.67c-10,3.13-14.32,3-19.37-1.24L80.48,123l10.7-7.65c6.24-2.88,9.45-3,13-2.67,3,1.33,3.64,1.35,5.43,3.25,0,0,2.4,1.92.36,8s-2.68,4.9-9.53,9.53Z"/><path class="cls-4" d="M79.23,82.13H64.8v23.09H79.23Z"/><path d="M46.17,79a7.35,7.35,0,0,1-1.45,2.74A11.92,11.92,0,0,1,41.3,83.8s4.16,1.82,6.82-.5c2.25-1.94,2-3.72,2-3.72L47,76.6Z"/><path class="cls-3" d="M107.14,115.09s5.85,5.65,7.11,4.88-2.16-3.68-2.16-3.68,3.65,2.32,4.48,1-3.57-2.75-3.57-2.75,4.28.65,4.76-.74-4.13-1.52-4.13-1.52,1.93-2.2.89-2.74-5.36,2.31-5.36,2.31Z"/><path d="M112.2,118.74a8.31,8.31,0,0,1-.86,3.68,26.32,26.32,0,0,1-2.38,3.52l-1.07-.86a14.12,14.12,0,0,0,2.06-4,28,28,0,0,0,.75-3.32Z"/><path class="cls-5" d="M59.22,89.69s5.1-.37,8.2,1.19c2.21,2.61,8.39,7.18,8.39,7.18a85.56,85.56,0,0,0,2-11.1c.62-.54,2,1.38,2,1.38a61.92,61.92,0,0,1,6.82,22c.8,7.79,4.73,20.37,1.81,21-3.81,1.52-15.16,4.3-22.63,3.78-7.2-.5-7.7-1.17-8-5.56s2.75-20.3,2.75-20.3-4.18,8.1-4.57,13.4-.41,17.36-2.73,17.62c-2,.24-8.82.63-8.78-2.1.08-5,2-19.11,4.82-27.05A136.53,136.53,0,0,1,59.22,89.69Z"/><path class="cls-5" d="M75.89,86.17s13.76,10.22,18.37,13.7c8.16,6.15,15.49,6.72,16.23,9,1,3-2.27,8.52-3.66,8.45C103,117.12,89.6,108,84.37,99.52,81.22,94.4,75.89,86.17,75.89,86.17Z"/><path class="cls-6" d="M74,108.82,80.7,100l-4.89-1.93-3.65,3.64s9.76,5,10.9,5.3"/><path d="M72.61,101.89a1,1,0,0,1-1.06,1,1,1,0,0,1-1-1,1.06,1.06,0,0,1,1.06-1A1,1,0,0,1,72.61,101.89Z"/><path d="M80.25,99.86a1.05,1.05,0,1,0,1.06-1A1.06,1.06,0,0,0,80.25,99.86Z"/><path d="M74.71,109.16a1.08,1.08,0,0,1-1.1,1.06,1.07,1.07,0,1,1,0-2.14A1.08,1.08,0,0,1,74.71,109.16Z"/><path d="M82,107.13a1,1,0,0,0,1,1,1.05,1.05,0,0,0,1.06-1,1.05,1.05,0,0,0-2.1,0Z"/><path class="cls-3" d="M42.45,61s2.72,14.82,8.2,22.74c5.26,7.62,17.09,9.24,25.51,6.47S90.4,76.34,89.51,67.42c-1.19-11.9-9-24-9.5-24.54-3-3.26-16.18,2.47-24,6.41S42.45,61,42.45,61Z"/><path class="cls-5" d="M82.37,43.68c6.6-2.33,5.87-15.23-3-16.68-8.1-1.32-18,2.9-25.1,6.79-3.83,2.12-22.79,5.15-26.75,15.06-5.67,14.2,14.35,19.89,16.75,12.77,0,0,12-10.69,24.19-14.39C75.4,45.13,82.37,43.68,82.37,43.68Z"/><path class="cls-7" d="M53,54.94s-4.89-7.62-7.85-10c-1-.78-3.2-2.42-3.2-2.42l-.7,4.72-3.09-7.17S37,39.25,31.28,38l-5.73-1.28L26,41.8l-4.37-6.3a53,53,0,0,0-8.61.74C8.24,37-.33,38.32-.33,38.32s8.48,4.11,11.27,6.25a16.72,16.72,0,0,0,4.59,2.71l6.17-4.2-4.53,5.26,11.88,2.89,5.59-4.34-3.27,4.76s11.1,2.53,13.37,2.46A64.68,64.68,0,0,1,53,54.94Z"/><path class="cls-8" d="M82.72,47.38a79.83,79.83,0,0,0-20.19,6.13C53.14,57.81,47,62.9,43,65.86c-2.53.15-1.26-4.28-1.26-4.28a68.62,68.62,0,0,1,17.86-11.3c12.63-5.41,16.22-5.88,22.2-6.49A2.22,2.22,0,0,1,82.72,47.38Z"/><path class="cls-9" d="M51.17,53.7S40.7,47.62,31.54,44.57A112.53,112.53,0,0,0,6.12,39.4"/><path class="cls-9" d="M34.61,44.46,32.49,39.7"/><path class="cls-9" d="M23.41,48.1,27,45"/><path class="cls-9" d="M36.63,51.88l2.94-2.64"/><path class="cls-10" d="M73.26,65.17a44,44,0,0,0,6.1,1.75c1.39.09,2.53.85-.17,2.73a9.25,9.25,0,0,1-4.78,1.88"/><path class="cls-10" d="M68.85,78.2a5.21,5.21,0,0,0,3.37,4c2.88.86,5.11-1.58,5.11-1.58"/><path class="cls-11" d="M61.06,57.64c-3.23.5-4.94,2.62-4.63,5.84s2.31,5.48,5.38,5.17a5.31,5.31,0,0,0,4.76-6.12C66.25,59.31,64.09,57.19,61.06,57.64Z"/><path class="cls-12" d="M63.33,61.08a.93.93,0,0,0-.87,1.13,1,1,0,0,0,1.11,1,1.07,1.07,0,0,0,1-1.21A1,1,0,0,0,63.33,61.08Z"/><path class="cls-11" d="M80.6,52.81c-2.77.29-4,2.34-3.66,5.26s2.12,4.91,4.89,4.66a5,5,0,0,0-1.23-9.92Z"/><path class="cls-12" d="M83.17,56c-.58.06-.82.45-.76,1a.93.93,0,0,0,1,.91,1,1,0,1,0-.24-2Z"/><path d="M41.15,68c-1.58,1.1-6.56,2-6.56,2a5.72,5.72,0,0,0,4.24,2.06,14.18,14.18,0,0,0,2-.11,5,5,0,0,1-3,1.67,18.37,18.37,0,0,1-3.53.17c.09.95,4.72,4.82,8.18,2-1.19,2.67-5.88,3.51-5.88,3.51s6.57,3.2,9.8.06c.71-.69,1.25-1.29,1.25-1.29S45,72,44.89,70.73A31.06,31.06,0,0,0,43,65.88S43.12,66.64,41.15,68Z"/><path class="cls-3" d="M46,68.72s-4.58.73-4.28,3.63c.26,2.58,2.68,3.06,4.37,2.93s2-.7,2-.7Z"/><path d="M42.66,66.86A2,2,0,0,1,42.17,69c-1,1.11-6,2.43-6,2.43a6.73,6.73,0,0,0,7.32-.63c2.31-1.88,5-9.09,5-9.09L43,65.88Z"/></g><g class="cls-2"><path class="cls-3" d="M107.29,124.56c-.29-.86-.93-3.17-.93-3.17s4-6,4.44-5.29a13.4,13.4,0,0,1,1.59,2.83c.47,1.33,1.51,8,1.51,8l-4.43,1.9A17.65,17.65,0,0,1,107.29,124.56Z"/><path d="M90.44,138.67c-10,3.13-14.32,3-19.37-1.24L80.48,123l10.7-7.65c6.24-2.88,9.45-3,13-2.67,3,1.33,3.64,1.35,5.43,3.25,0,0,2.4,1.92.36,8s-2.68,4.9-9.53,9.53Z"/><path class="cls-4" d="M79.23,82.13H64.8v23.09H79.23Z"/><path d="M46.17,79a7.35,7.35,0,0,1-1.45,2.74A11.92,11.92,0,0,1,41.3,83.8s4.16,1.82,6.82-.5c2.25-1.94,2-3.72,2-3.72L47,76.6Z"/><path class="cls-3" d="M107.14,115.09s5.85,5.65,7.11,4.88-2.16-3.68-2.16-3.68,3.65,2.32,4.48,1-3.57-2.75-3.57-2.75,4.28.65,4.76-.74-4.13-1.52-4.13-1.52,1.93-2.2.89-2.74-5.36,2.31-5.36,2.31Z"/><path d="M112.2,118.74a8.31,8.31,0,0,1-.86,3.68,26.32,26.32,0,0,1-2.38,3.52l-1.07-.86a14.12,14.12,0,0,0,2.06-4,28,28,0,0,0,.75-3.32Z"/><path class="cls-5" d="M59.22,89.69s5.1-.37,8.2,1.19c2.21,2.61,8.39,7.18,8.39,7.18a85.56,85.56,0,0,0,2-11.1c.62-.54,2,1.38,2,1.38a61.92,61.92,0,0,1,6.82,22c.8,7.79,4.73,20.37,1.81,21-3.81,1.52-15.16,4.3-22.63,3.78-7.2-.5-7.7-1.17-8-5.56s2.75-20.3,2.75-20.3-4.18,8.1-4.57,13.4-.41,17.36-2.73,17.62c-2,.24-8.82.63-8.78-2.1.08-5,2-19.11,4.82-27.05A136.53,136.53,0,0,1,59.22,89.69Z"/><path class="cls-5" d="M75.89,86.17s13.76,10.22,18.37,13.7c8.16,6.15,15.49,6.72,16.23,9,1,3-2.27,8.52-3.66,8.45C103,117.12,89.6,108,84.37,99.52,81.22,94.4,75.89,86.17,75.89,86.17Z"/><path class="cls-6" d="M74,108.82,80.7,100l-4.89-1.93-3.65,3.64s9.76,5,10.9,5.3"/><path d="M72.61,101.89a1,1,0,0,1-1.06,1,1,1,0,0,1-1-1,1.06,1.06,0,0,1,1.06-1A1,1,0,0,1,72.61,101.89Z"/><path d="M80.25,99.86a1.05,1.05,0,1,0,1.06-1A1.06,1.06,0,0,0,80.25,99.86Z"/><path d="M74.71,109.16a1.08,1.08,0,0,1-1.1,1.06,1.07,1.07,0,1,1,0-2.14A1.08,1.08,0,0,1,74.71,109.16Z"/><path d="M82,107.13a1,1,0,0,0,1,1,1.05,1.05,0,0,0,1.06-1,1.05,1.05,0,0,0-2.1,0Z"/><path class="cls-3" d="M42.45,61s2.72,14.82,8.2,22.74c5.26,7.62,17.09,9.24,25.51,6.47S90.4,76.34,89.51,67.42c-1.19-11.9-9-24-9.5-24.54-3-3.26-16.18,2.47-24,6.41S42.45,61,42.45,61Z"/><path class="cls-5" d="M82.37,43.68c6.6-2.33,5.87-15.23-3-16.68-8.1-1.32-18,2.9-25.1,6.79-3.83,2.12-22.79,5.15-26.75,15.06-5.67,14.2,14.35,19.89,16.75,12.77,0,0,12-10.69,24.19-14.39C75.4,45.13,82.37,43.68,82.37,43.68Z"/><path class="cls-7" d="M53,54.94s-4.89-7.62-7.85-10c-1-.78-3.2-2.42-3.2-2.42l-.7,4.72-3.09-7.17S37,39.25,31.28,38l-5.73-1.28L26,41.8l-4.37-6.3a53,53,0,0,0-8.61.74C8.24,37-.33,38.32-.33,38.32s8.48,4.11,11.27,6.25a16.72,16.72,0,0,0,4.59,2.71l6.17-4.2-4.53,5.26,11.88,2.89,5.59-4.34-3.27,4.76s11.1,2.53,13.37,2.46A64.68,64.68,0,0,1,53,54.94Z"/><path class="cls-8" d="M82.72,47.38a79.83,79.83,0,0,0-20.19,6.13C53.14,57.81,47,62.9,43,65.86c-2.53.15-1.26-4.28-1.26-4.28a68.62,68.62,0,0,1,17.86-11.3c12.63-5.41,16.22-5.88,22.2-6.49A2.22,2.22,0,0,1,82.72,47.38Z"/><path class="cls-9" d="M51.17,53.7S40.7,47.62,31.54,44.57A112.53,112.53,0,0,0,6.12,39.4"/><path class="cls-9" d="M34.61,44.46,32.49,39.7"/><path class="cls-9" d="M23.41,48.1,27,45"/><path class="cls-9" d="M36.63,51.88l2.94-2.64"/><path class="cls-10" d="M73.26,65.17a44,44,0,0,0,6.1,1.75c1.39.09,2.53.85-.17,2.73a9.25,9.25,0,0,1-4.78,1.88"/><path class="cls-10" d="M68.85,78.2a5.21,5.21,0,0,0,3.37,4c2.88.86,5.11-1.58,5.11-1.58"/><path class="cls-11" d="M61.06,57.64c-3.23.5-4.94,2.62-4.63,5.84s2.31,5.48,5.38,5.17a5.31,5.31,0,0,0,4.76-6.12C66.25,59.31,64.09,57.19,61.06,57.64Z"/><path class="cls-12" d="M63.33,61.08a.93.93,0,0,0-.87,1.13,1,1,0,0,0,1.11,1,1.07,1.07,0,0,0,1-1.21A1,1,0,0,0,63.33,61.08Z"/><path class="cls-11" d="M80.6,52.81c-2.77.29-4,2.34-3.66,5.26s2.12,4.91,4.89,4.66a5,5,0,0,0-1.23-9.92Z"/><path class="cls-12" d="M83.17,56c-.58.06-.82.45-.76,1a.93.93,0,0,0,1,.91,1,1,0,1,0-.24-2Z"/><path d="M41.15,68c-1.58,1.1-6.56,2-6.56,2a5.72,5.72,0,0,0,4.24,2.06,14.18,14.18,0,0,0,2-.11,5,5,0,0,1-3,1.67,18.37,18.37,0,0,1-3.53.17c.09.95,4.72,4.82,8.18,2-1.19,2.67-5.88,3.51-5.88,3.51s6.57,3.2,9.8.06c.71-.69,1.25-1.29,1.25-1.29S45,72,44.89,70.73A31.06,31.06,0,0,0,43,65.88S43.12,66.64,41.15,68Z"/><path class="cls-3" d="M46,68.72s-4.58.73-4.28,3.63c.26,2.58,2.68,3.06,4.37,2.93s2-.7,2-.7Z"/><path d="M42.66,66.86A2,2,0,0,1,42.17,69c-1,1.11-6,2.43-6,2.43a6.73,6.73,0,0,0,7.32-.63c2.31-1.88,5-9.09,5-9.09L43,65.88Z"/></g><g class="cls-2"><path class="cls-3" d="M107.29,124.56c-.29-.86-.93-3.17-.93-3.17s4-6,4.44-5.29a13.4,13.4,0,0,1,1.59,2.83c.47,1.33,1.51,8,1.51,8l-4.43,1.9A17.65,17.65,0,0,1,107.29,124.56Z"/><path d="M90.44,138.67c-10,3.13-14.32,3-19.37-1.24L80.48,123l10.7-7.65c6.24-2.88,9.45-3,13-2.67,3,1.33,3.64,1.35,5.43,3.25,0,0,2.4,1.92.36,8s-2.68,4.9-9.53,9.53Z"/><path class="cls-4" d="M79.23,82.13H64.8v23.09H79.23Z"/><path d="M46.17,79a7.35,7.35,0,0,1-1.45,2.74A11.92,11.92,0,0,1,41.3,83.8s4.16,1.82,6.82-.5c2.25-1.94,2-3.72,2-3.72L47,76.6Z"/><path class="cls-3" d="M107.14,115.09s5.85,5.65,7.11,4.88-2.16-3.68-2.16-3.68,3.65,2.32,4.48,1-3.57-2.75-3.57-2.75,4.28.65,4.76-.74-4.13-1.52-4.13-1.52,1.93-2.2.89-2.74-5.36,2.31-5.36,2.31Z"/><path d="M112.2,118.74a8.31,8.31,0,0,1-.86,3.68,26.32,26.32,0,0,1-2.38,3.52l-1.07-.86a14.12,14.12,0,0,0,2.06-4,28,28,0,0,0,.75-3.32Z"/><path class="cls-5" d="M59.22,89.69s5.1-.37,8.2,1.19c2.21,2.61,8.39,7.18,8.39,7.18a85.56,85.56,0,0,0,2-11.1c.62-.54,2,1.38,2,1.38a61.92,61.92,0,0,1,6.82,22c.8,7.79,4.73,20.37,1.81,21-3.81,1.52-15.16,4.3-22.63,3.78-7.2-.5-7.7-1.17-8-5.56s2.75-20.3,2.75-20.3-4.18,8.1-4.57,13.4-.41,17.36-2.73,17.62c-2,.24-8.82.63-8.78-2.1.08-5,2-19.11,4.82-27.05A136.53,136.53,0,0,1,59.22,89.69Z"/><path class="cls-5" d="M75.89,86.17s13.76,10.22,18.37,13.7c8.16,6.15,15.49,6.72,16.23,9,1,3-2.27,8.52-3.66,8.45C103,117.12,89.6,108,84.37,99.52,81.22,94.4,75.89,86.17,75.89,86.17Z"/><path class="cls-6" d="M74,108.82,80.7,100l-4.89-1.93-3.65,3.64s9.76,5,10.9,5.3"/><path d="M72.61,101.89a1,1,0,0,1-1.06,1,1,1,0,0,1-1-1,1.06,1.06,0,0,1,1.06-1A1,1,0,0,1,72.61,101.89Z"/><path d="M80.25,99.86a1.05,1.05,0,1,0,1.06-1A1.06,1.06,0,0,0,80.25,99.86Z"/><path d="M74.71,109.16a1.08,1.08,0,0,1-1.1,1.06,1.07,1.07,0,1,1,0-2.14A1.08,1.08,0,0,1,74.71,109.16Z"/><path d="M82,107.13a1,1,0,0,0,1,1,1.05,1.05,0,0,0,1.06-1,1.05,1.05,0,0,0-2.1,0Z"/><path class="cls-3" d="M42.45,61s2.72,14.82,8.2,22.74c5.26,7.62,17.09,9.24,25.51,6.47S90.4,76.34,89.51,67.42c-1.19-11.9-9-24-9.5-24.54-3-3.26-16.18,2.47-24,6.41S42.45,61,42.45,61Z"/><path class="cls-5" d="M82.37,43.68c6.6-2.33,5.87-15.23-3-16.68-8.1-1.32-18,2.9-25.1,6.79-3.83,2.12-22.79,5.15-26.75,15.06-5.67,14.2,14.35,19.89,16.75,12.77,0,0,12-10.69,24.19-14.39C75.4,45.13,82.37,43.68,82.37,43.68Z"/><path class="cls-7" d="M53,54.94s-4.89-7.62-7.85-10c-1-.78-3.2-2.42-3.2-2.42l-.7,4.72-3.09-7.17S37,39.25,31.28,38l-5.73-1.28L26,41.8l-4.37-6.3a53,53,0,0,0-8.61.74C8.24,37-.33,38.32-.33,38.32s8.48,4.11,11.27,6.25a16.72,16.72,0,0,0,4.59,2.71l6.17-4.2-4.53,5.26,11.88,2.89,5.59-4.34-3.27,4.76s11.1,2.53,13.37,2.46A64.68,64.68,0,0,1,53,54.94Z"/><path class="cls-8" d="M82.72,47.38a79.83,79.83,0,0,0-20.19,6.13C53.14,57.81,47,62.9,43,65.86c-2.53.15-1.26-4.28-1.26-4.28a68.62,68.62,0,0,1,17.86-11.3c12.63-5.41,16.22-5.88,22.2-6.49A2.22,2.22,0,0,1,82.72,47.38Z"/><path class="cls-9" d="M51.17,53.7S40.7,47.62,31.54,44.57A112.53,112.53,0,0,0,6.12,39.4"/><path class="cls-9" d="M34.61,44.46,32.49,39.7"/><path class="cls-9" d="M23.41,48.1,27,45"/><path class="cls-9" d="M36.63,51.88l2.94-2.64"/><path class="cls-10" d="M73.26,65.17a44,44,0,0,0,6.1,1.75c1.39.09,2.53.85-.17,2.73a9.25,9.25,0,0,1-4.78,1.88"/><path class="cls-10" d="M68.85,78.2a5.21,5.21,0,0,0,3.37,4c2.88.86,5.11-1.58,5.11-1.58"/><path class="cls-11" d="M61.06,57.64c-3.23.5-4.94,2.62-4.63,5.84s2.31,5.48,5.38,5.17a5.31,5.31,0,0,0,4.76-6.12C66.25,59.31,64.09,57.19,61.06,57.64Z"/><path class="cls-12" d="M63.33,61.08a.93.93,0,0,0-.87,1.13,1,1,0,0,0,1.11,1,1.07,1.07,0,0,0,1-1.21A1,1,0,0,0,63.33,61.08Z"/><path class="cls-11" d="M80.6,52.81c-2.77.29-4,2.34-3.66,5.26s2.12,4.91,4.89,4.66a5,5,0,0,0-1.23-9.92Z"/><path class="cls-12" d="M83.17,56c-.58.06-.82.45-.76,1a.93.93,0,0,0,1,.91,1,1,0,1,0-.24-2Z"/><path d="M41.15,68c-1.58,1.1-6.56,2-6.56,2a5.72,5.72,0,0,0,4.24,2.06,14.18,14.18,0,0,0,2-.11,5,5,0,0,1-3,1.67,18.37,18.37,0,0,1-3.53.17c.09.95,4.72,4.82,8.18,2-1.19,2.67-5.88,3.51-5.88,3.51s6.57,3.2,9.8.06c.71-.69,1.25-1.29,1.25-1.29S45,72,44.89,70.73A31.06,31.06,0,0,0,43,65.88S43.12,66.64,41.15,68Z"/><path class="cls-3" d="M46,68.72s-4.58.73-4.28,3.63c.26,2.58,2.68,3.06,4.37,2.93s2-.7,2-.7Z"/><path d="M42.66,66.86A2,2,0,0,1,42.17,69c-1,1.11-6,2.43-6,2.43a6.73,6.73,0,0,0,7.32-.63c2.31-1.88,5-9.09,5-9.09L43,65.88Z"/></g></svg>