<svg id="Layer_1" data-name="Layer 1" xmlns="http://www.w3.org/2000/svg" xmlns:xlink="http://www.w3.org/1999/xlink" viewBox="0 0 118 118"><defs><style>.cls-1{fill:#c4c4c4;}.cls-2{mask:url(#mask);}.cls-10,.cls-3,.cls-4,.cls-5{opacity:0.8;}.cls-4,.cls-7{fill:#fff;}.cls-10,.cls-4,.cls-5{isolation:isolate;}.cls-5,.cls-9{fill:none;stroke-linecap:round;}.cls-5{stroke:#d3d2c2;stroke-width:0.11px;}.cls-6{fill:#f7941d;}.cls-8{fill:#5d3d3d;}.cls-9{stroke:#000;stroke-width:0.49px;}.cls-10{fill:#d3caca;}.cls-11{fill:#ed1c24;}</style><mask id="mask" x="-16.31" y="35.35" width="142.81" height="115.21" maskUnits="userSpaceOnUse"><g id="mask0"><rect class="cls-1" x="-6.46" y="35.35" width="132.96" height="82.89"/></g></mask></defs><title>iconAlbum</title><g class="cls-2"><g class="cls-3"><g class="cls-3"><path class="cls-4" d="M80.43,63a4.24,4.24,0,0,0,5.16,2.22c1.45-.6,2.45-3,.63-5a3.39,3.39,0,0,0-4.49-.94C80.28,59.85,79.69,61.18,80.43,63Z"/><path class="cls-5" d="M80.43,63a4.24,4.24,0,0,0,5.16,2.22c1.45-.6,2.45-3,.63-5a3.39,3.39,0,0,0-4.49-.94C80.28,59.85,79.69,61.18,80.43,63Z"/></g></g><path d="M84.77,61.7a.69.69,0,0,1-.37.92.7.7,0,1,1-.53-1.3A.69.69,0,0,1,84.77,61.7Z"/><path class="cls-6" d="M65.93,107.72s4.28.73,7,1.28a11.15,11.15,0,0,1,5.33,2.51c.58.63,1.38,4.67,2.82,4.16.91-.35.63-2.33.63-2.33a4.06,4.06,0,0,0,2.43.36c1.45-.48-1-2.56-1-2.56s3.73,1.16,3.78-1.23c0-1.46-2.43-2.42-7.32-2.21-4.72.19-12.33-3.61-12.33-3.61"/><path class="cls-6" d="M47.38,101.9s-4.27.74-7.06,1.29A11.06,11.06,0,0,0,35,105.7c-.58.63-1.38,4.67-2.82,4.15-.91-.32-.63-2.32-.63-2.32a4.14,4.14,0,0,1-2.43.36c-1.45-.48,1-2.57,1-2.57s-3.73,1.18-3.78-1.23c0-1.45,2.43-2.41,7.32-2.2C38.36,102.09,46,98.3,46,98.3"/><path class="cls-6" d="M59,61.63A51.74,51.74,0,0,1,71.06,59.3c3-.24,9,2.31,13.52,4.6,3.49,1.8,13.68,3.59,15.53,3.93,3.18.59,13.38,3,13.38,5.32s-2.58,4.33-8.65,7.22S79.85,86.83,74,95.94c-7.63,11.83-9.47,26.55-10,33.47A132.92,132.92,0,0,1,61.32,145s9.9-.3,8.46,1.71-5.25.06-5.25.06,1.11,2.56,0,2.85-2.63-2.24-2.63-2.24a2,2,0,0,1-2,2.27c-2.3.26-2.83-1.19-2.25-3.79s.46-12.22.27-12.39-12.79,0-12.79,0l-1,11.24s7.61,1.75,6.75,2.89-4.51-.53-4.51-.53,2.79,2.09,1.06,2.6S44,148.49,44,148.49c.92,3.9-4.72,1.71-3.8-1.78V132.28s-5.72,9.18-16.44,9.23c-13.33.07-30.94-11.21-36.69-17.24-5.91-6.19-3.66-4.5,3.51-2.67a42.2,42.2,0,0,0,22.8-.29c3.73-1.1,8.86-2.69,14.21-1.4C32,121,38.22,126,38.22,126s-1.62-16.06,10.33-32.1c2.31-3.08.49-8.58.49-8.58a22.74,22.74,0,0,0-2.41.32c-2.07.38-3.83,3.1-3,.79s4-4.33,4-4.33-.92-1.48-5.39-1.12c-2.92.24,3.73-4,3.73-4s-3.5-.58-5.83-.82c-1.18-.12,7-4,7-4a6.74,6.74,0,0,0,.17-2.65c0-1.11.33-4.46.33-4.46s-1.3-7.51-1.66-10.4a29.66,29.66,0,0,1,0-6s6.1,4.84,9.06,7.92A32.68,32.68,0,0,1,59,61.63Z"/><path class="cls-7" d="M75.06,95.73c-7.83,11.54-9.81,22.77-10,33.49-3.27.07-7.1-.27-10.21,0-.25-2,.24-4.13.24-6.25,0-20.45,8.09-31.49,24-35.49,1.41-.35,9.46-2.19,10.86-1.9C84.26,87.82,77.85,91.63,75.06,95.73Z"/><g class="cls-3"><g class="cls-3"><path class="cls-5" d="M90,85.58c-5.76,2.24-12.17,6-14.94,10.15-7.83,11.54-9.81,22.77-10,33.49"/></g></g><path class="cls-8" d="M110.76,70.3c3.36,1,8,2.12,5.33,4.36-3.25,2.7-9.13,4.68-9.13,4.68s-2.8-8-2-10.38C104.94,69,109.53,70,110.76,70.3Z"/><path class="cls-6" d="M72.16,59.71,67.3,53.2C65.63,51,60.94,45.68,60.68,46s-1.23,2.58-.9,6.43,1.16,8.75,1.16,8.75Z"/><path class="cls-7" d="M55.71,63.3s-6-6.49-6.19-5.69,0,7.37,0,7.37a30.36,30.36,0,0,1,3.16-1.13Z"/><path class="cls-7" d="M63.39,53.85c-.48-.26-.62.45-.64,1.68s0,4.58,0,4.58l4.68-1.06S63.86,54.11,63.39,53.85Z"/><path class="cls-7" d="M66.67,68.74a6.23,6.23,0,0,0,6,5.74,4.36,4.36,0,0,0,3.77-6.2c-1.27-3.35-3.27-4-5.77-3.69S66.67,66,66.67,68.74Z"/><path d="M70.86,69.89a.77.77,0,0,1-1.54,0,.77.77,0,1,1,1.54,0Z"/><path d="M59.37,122.4s.36-14.6-4.29-21.32C53.16,98.31,46.31,96,46.31,96l.92-1.3s6.34,1.67,10.19,6.53c4.09,5.14,4.89,21.21,4.89,21.21Z"/><path class="cls-9" d="M79.23,81.2s-.27,4.09-2.53,4-2.39-4.49-2.39-4.49"/><g class="cls-3"><g class="cls-3"><path class="cls-10" d="M24.94,72.31s-5.29-5.13-10.52-9.89c-6.76-3.25-7.81-3.72-8.2-2.87-.7,1.5-.27,1.8-.62,7.34,1.77,6.93,4,14.18,4,14.18s6.75,7.76,12.19,4.05S24.94,72.31,24.94,72.31Z"/><path class="cls-5" d="M24.94,72.31s-5.29-5.13-10.52-9.89c-6.76-3.25-7.81-3.72-8.2-2.87-.7,1.5-.27,1.8-.62,7.34,1.77,6.93,4,14.18,4,14.18s6.75,7.76,12.19,4.05S24.94,72.31,24.94,72.31Z"/></g></g><path class="cls-11" d="M24.94,72.31s.34,4.31-1.57,4.76c-1.74.43-3.45-1.93-3.45-1.93s.71,3.94-.8,4.86c-1.94,1.21-4.71-1.89-4.71-1.89s1.05,3.87-.94,4.44-3.86-1.47-3.86-1.47L35.8,124.24l10.86-7.08Z"/><path d="M46.69,117.14s1.6,5.57-3.26,8.65a5.22,5.22,0,0,1-7.61-1.56Z"/><path class="cls-11" d="M14.43,62.41a17.34,17.34,0,0,1-6.1,3.76,16.92,16.92,0,0,1-2.73.72c-1.43-5.66-2.87-11.83-2.16-13.3C3.82,52.76,9.3,57.74,14.43,62.41Z"/><path class="cls-6" d="M24.2,105.42c0,1.45.42,4.06,1.58,4.69.75.42,4.7,1.3,5-.18.19-1-1.62-1.78-1.62-1.78a4.14,4.14,0,0,0,1.59-1.87c.36-1.5-2.7-.52-2.7-.52s3-2.54,1-3.85C27.8,101.14,26.63,101.17,24.2,105.42Z"/></g><g class="cls-2"><g class="cls-3"><g class="cls-3"><path class="cls-4" d="M80.43,63a4.24,4.24,0,0,0,5.16,2.22c1.45-.6,2.45-3,.63-5a3.39,3.39,0,0,0-4.49-.94C80.28,59.85,79.69,61.18,80.43,63Z"/><path class="cls-5" d="M80.43,63a4.24,4.24,0,0,0,5.16,2.22c1.45-.6,2.45-3,.63-5a3.39,3.39,0,0,0-4.49-.94C80.28,59.85,79.69,61.18,80.43,63Z"/></g></g><path d="M84.77,61.7a.69.69,0,0,1-.37.92.7.7,0,1,1-.53-1.3A.69.69,0,0,1,84.77,61.7Z"/><path class="cls-6" d="M65.93,107.72s4.28.73,7,1.28a11.15,11.15,0,0,1,5.33,2.51c.58.63,1.38,4.67,2.82,4.16.91-.35.63-2.33.63-2.33a4.06,4.06,0,0,0,2.43.36c1.45-.48-1-2.56-1-2.56s3.73,1.16,3.78-1.23c0-1.46-2.43-2.42-7.32-2.21-4.72.19-12.33-3.61-12.33-3.61"/><path class="cls-6" d="M47.38,101.9s-4.27.74-7.06,1.29A11.06,11.06,0,0,0,35,105.7c-.58.63-1.38,4.67-2.82,4.15-.91-.32-.63-2.32-.63-2.32a4.14,4.14,0,0,1-2.43.36c-1.45-.48,1-2.57,1-2.57s-3.73,1.18-3.78-1.23c0-1.45,2.43-2.41,7.32-2.2C38.36,102.09,46,98.3,46,98.3"/><path class="cls-6" d="M59,61.63A51.74,51.74,0,0,1,71.06,59.3c3-.24,9,2.31,13.52,4.6,3.49,1.8,13.68,3.59,15.53,3.93,3.18.59,13.38,3,13.38,5.32s-2.58,4.33-8.65,7.22S79.85,86.83,74,95.94c-7.63,11.83-9.47,26.55-10,33.47A132.92,132.92,0,0,1,61.32,145s9.9-.3,8.46,1.71-5.25.06-5.25.06,1.11,2.56,0,2.85-2.63-2.24-2.63-2.24a2,2,0,0,1-2,2.27c-2.3.26-2.83-1.19-2.25-3.79s.46-12.22.27-12.39-12.79,0-12.79,0l-1,11.24s7.61,1.75,6.75,2.89-4.51-.53-4.51-.53,2.79,2.09,1.06,2.6S44,148.49,44,148.49c.92,3.9-4.72,1.71-3.8-1.78V132.28s-5.72,9.18-16.44,9.23c-13.33.07-30.94-11.21-36.69-17.24-5.91-6.19-3.66-4.5,3.51-2.67a42.2,42.2,0,0,0,22.8-.29c3.73-1.1,8.86-2.69,14.21-1.4C32,121,38.22,126,38.22,126s-1.62-16.06,10.33-32.1c2.31-3.08.49-8.58.49-8.58a22.74,22.74,0,0,0-2.41.32c-2.07.38-3.83,3.1-3,.79s4-4.33,4-4.33-.92-1.48-5.39-1.12c-2.92.24,3.73-4,3.73-4s-3.5-.58-5.83-.82c-1.18-.12,7-4,7-4a6.74,6.74,0,0,0,.17-2.65c0-1.11.33-4.46.33-4.46s-1.3-7.51-1.66-10.4a29.66,29.66,0,0,1,0-6s6.1,4.84,9.06,7.92A32.68,32.68,0,0,1,59,61.63Z"/><path class="cls-7" d="M75.06,95.73c-7.83,11.54-9.81,22.77-10,33.49-3.27.07-7.1-.27-10.21,0-.25-2,.24-4.13.24-6.25,0-20.45,8.09-31.49,24-35.49,1.41-.35,9.46-2.19,10.86-1.9C84.26,87.82,77.85,91.63,75.06,95.73Z"/><g class="cls-3"><g class="cls-3"><path class="cls-5" d="M90,85.58c-5.76,2.24-12.17,6-14.94,10.15-7.83,11.54-9.81,22.77-10,33.49"/></g></g><path class="cls-8" d="M110.76,70.3c3.36,1,8,2.12,5.33,4.36-3.25,2.7-9.13,4.68-9.13,4.68s-2.8-8-2-10.38C104.94,69,109.53,70,110.76,70.3Z"/><path class="cls-6" d="M72.16,59.71,67.3,53.2C65.63,51,60.94,45.68,60.68,46s-1.23,2.58-.9,6.43,1.16,8.75,1.16,8.75Z"/><path class="cls-7" d="M55.71,63.3s-6-6.49-6.19-5.69,0,7.37,0,7.37a30.36,30.36,0,0,1,3.16-1.13Z"/><path class="cls-7" d="M63.39,53.85c-.48-.26-.62.45-.64,1.68s0,4.58,0,4.58l4.68-1.06S63.86,54.11,63.39,53.85Z"/><path class="cls-7" d="M66.67,68.74a6.23,6.23,0,0,0,6,5.74,4.36,4.36,0,0,0,3.77-6.2c-1.27-3.35-3.27-4-5.77-3.69S66.67,66,66.67,68.74Z"/><path d="M70.86,69.89a.77.77,0,0,1-1.54,0,.77.77,0,1,1,1.54,0Z"/><path d="M59.37,122.4s.36-14.6-4.29-21.32C53.16,98.31,46.31,96,46.31,96l.92-1.3s6.34,1.67,10.19,6.53c4.09,5.14,4.89,21.21,4.89,21.21Z"/><path class="cls-9" d="M79.23,81.2s-.27,4.09-2.53,4-2.39-4.49-2.39-4.49"/><g class="cls-3"><g class="cls-3"><path class="cls-10" d="M24.94,72.31s-5.29-5.13-10.52-9.89c-6.76-3.25-7.81-3.72-8.2-2.87-.7,1.5-.27,1.8-.62,7.34,1.77,6.93,4,14.18,4,14.18s6.75,7.76,12.19,4.05S24.94,72.31,24.94,72.31Z"/><path class="cls-5" d="M24.94,72.31s-5.29-5.13-10.52-9.89c-6.76-3.25-7.81-3.72-8.2-2.87-.7,1.5-.27,1.8-.62,7.34,1.77,6.93,4,14.18,4,14.18s6.75,7.76,12.19,4.05S24.94,72.31,24.94,72.31Z"/></g></g><path class="cls-11" d="M24.94,72.31s.34,4.31-1.57,4.76c-1.74.43-3.45-1.93-3.45-1.93s.71,3.94-.8,4.86c-1.94,1.21-4.71-1.89-4.71-1.89s1.05,3.87-.94,4.44-3.86-1.47-3.86-1.47L35.8,124.24l10.86-7.08Z"/><path d="M46.69,117.14s1.6,5.57-3.26,8.65a5.22,5.22,0,0,1-7.61-1.56Z"/><path class="cls-11" d="M14.43,62.41a17.34,17.34,0,0,1-6.1,3.76,16.92,16.92,0,0,1-2.73.72c-1.43-5.66-2.87-11.83-2.16-13.3C3.82,52.76,9.3,57.74,14.43,62.41Z"/><path class="cls-6" d="M24.2,105.42c0,1.45.42,4.06,1.58,4.69.75.42,4.7,1.3,5-.18.19-1-1.62-1.78-1.62-1.78a4.14,4.14,0,0,0,1.59-1.87c.36-1.5-2.7-.52-2.7-.52s3-2.54,1-3.85C27.8,101.14,26.63,101.17,24.2,105.42Z"/></g><g class="cls-2"><g class="cls-3"><g class="cls-3"><path class="cls-4" d="M80.43,63a4.24,4.24,0,0,0,5.16,2.22c1.45-.6,2.45-3,.63-5a3.39,3.39,0,0,0-4.49-.94C80.28,59.85,79.69,61.18,80.43,63Z"/><path class="cls-5" d="M80.43,63a4.24,4.24,0,0,0,5.16,2.22c1.45-.6,2.45-3,.63-5a3.39,3.39,0,0,0-4.49-.94C80.28,59.85,79.69,61.18,80.43,63Z"/></g></g><path d="M84.77,61.7a.69.69,0,0,1-.37.92.7.7,0,1,1-.53-1.3A.69.69,0,0,1,84.77,61.7Z"/><path class="cls-6" d="M65.93,107.72s4.28.73,7,1.28a11.15,11.15,0,0,1,5.33,2.51c.58.63,1.38,4.67,2.82,4.16.91-.35.63-2.33.63-2.33a4.06,4.06,0,0,0,2.43.36c1.45-.48-1-2.56-1-2.56s3.73,1.16,3.78-1.23c0-1.46-2.43-2.42-7.32-2.21-4.72.19-12.33-3.61-12.33-3.61"/><path class="cls-6" d="M47.38,101.9s-4.27.74-7.06,1.29A11.06,11.06,0,0,0,35,105.7c-.58.63-1.38,4.67-2.82,4.15-.91-.32-.63-2.32-.63-2.32a4.14,4.14,0,0,1-2.43.36c-1.45-.48,1-2.57,1-2.57s-3.73,1.18-3.78-1.23c0-1.45,2.43-2.41,7.32-2.2C38.36,102.09,46,98.3,46,98.3"/><path class="cls-6" d="M59,61.63A51.74,51.74,0,0,1,71.06,59.3c3-.24,9,2.31,13.52,4.6,3.49,1.8,13.68,3.59,15.53,3.93,3.18.59,13.38,3,13.38,5.32s-2.58,4.33-8.65,7.22S79.85,86.83,74,95.94c-7.63,11.83-9.47,26.55-10,33.47A132.92,132.92,0,0,1,61.32,145s9.9-.3,8.46,1.71-5.25.06-5.25.06,1.11,2.56,0,2.85-2.63-2.24-2.63-2.24a2,2,0,0,1-2,2.27c-2.3.26-2.83-1.19-2.25-3.79s.46-12.22.27-12.39-12.79,0-12.79,0l-1,11.24s7.61,1.75,6.75,2.89-4.51-.53-4.51-.53,2.79,2.09,1.06,2.6S44,148.49,44,148.49c.92,3.9-4.72,1.71-3.8-1.78V132.28s-5.72,9.18-16.44,9.23c-13.33.07-30.94-11.21-36.69-17.24-5.91-6.19-3.66-4.5,3.51-2.67a42.2,42.2,0,0,0,22.8-.29c3.73-1.1,8.86-2.69,14.21-1.4C32,121,38.22,126,38.22,126s-1.62-16.06,10.33-32.1c2.31-3.08.49-8.58.49-8.58a22.74,22.74,0,0,0-2.41.32c-2.07.38-3.83,3.1-3,.79s4-4.33,4-4.33-.92-1.48-5.39-1.12c-2.92.24,3.73-4,3.73-4s-3.5-.58-5.83-.82c-1.18-.12,7-4,7-4a6.74,6.74,0,0,0,.17-2.65c0-1.11.33-4.46.33-4.46s-1.3-7.51-1.66-10.4a29.66,29.66,0,0,1,0-6s6.1,4.84,9.06,7.92A32.68,32.68,0,0,1,59,61.63Z"/><path class="cls-7" d="M75.06,95.73c-7.83,11.54-9.81,22.77-10,33.49-3.27.07-7.1-.27-10.21,0-.25-2,.24-4.13.24-6.25,0-20.45,8.09-31.49,24-35.49,1.41-.35,9.46-2.19,10.86-1.9C84.26,87.82,77.85,91.63,75.06,95.73Z"/><g class="cls-3"><g class="cls-3"><path class="cls-5" d="M90,85.58c-5.76,2.24-12.17,6-14.94,10.15-7.83,11.54-9.81,22.77-10,33.49"/></g></g><path class="cls-8" d="M110.76,70.3c3.36,1,8,2.12,5.33,4.36-3.25,2.7-9.13,4.68-9.13,4.68s-2.8-8-2-10.38C104.94,69,109.53,70,110.76,70.3Z"/><path class="cls-6" d="M72.16,59.71,67.3,53.2C65.63,51,60.94,45.68,60.68,46s-1.23,2.58-.9,6.43,1.16,8.75,1.16,8.75Z"/><path class="cls-7" d="M55.71,63.3s-6-6.49-6.19-5.69,0,7.37,0,7.37a30.36,30.36,0,0,1,3.16-1.13Z"/><path class="cls-7" d="M63.39,53.85c-.48-.26-.62.45-.64,1.68s0,4.58,0,4.58l4.68-1.06S63.86,54.11,63.39,53.85Z"/><path class="cls-7" d="M66.67,68.74a6.23,6.23,0,0,0,6,5.74,4.36,4.36,0,0,0,3.77-6.2c-1.27-3.35-3.27-4-5.77-3.69S66.67,66,66.67,68.74Z"/><path d="M70.86,69.89a.77.77,0,0,1-1.54,0,.77.77,0,1,1,1.54,0Z"/><path d="M59.37,122.4s.36-14.6-4.29-21.32C53.16,98.31,46.31,96,46.31,96l.92-1.3s6.34,1.67,10.19,6.53c4.09,5.14,4.89,21.21,4.89,21.21Z"/><path class="cls-9" d="M79.23,81.2s-.27,4.09-2.53,4-2.39-4.49-2.39-4.49"/><g class="cls-3"><g class="cls-3"><path class="cls-10" d="M24.94,72.31s-5.29-5.13-10.52-9.89c-6.76-3.25-7.81-3.72-8.2-2.87-.7,1.5-.27,1.8-.62,7.34,1.77,6.93,4,14.18,4,14.18s6.75,7.76,12.19,4.05S24.94,72.31,24.94,72.31Z"/><path class="cls-5" d="M24.94,72.31s-5.29-5.13-10.52-9.89c-6.76-3.25-7.81-3.72-8.2-2.87-.7,1.5-.27,1.8-.62,7.34,1.77,6.93,4,14.18,4,14.18s6.75,7.76,12.19,4.05S24.94,72.31,24.94,72.31Z"/></g></g><path class="cls-11" d="M24.94,72.31s.34,4.31-1.57,4.76c-1.74.43-3.45-1.93-3.45-1.93s.71,3.94-.8,4.86c-1.94,1.21-4.71-1.89-4.71-1.89s1.05,3.87-.94,4.44-3.86-1.47-3.86-1.47L35.8,124.24l10.86-7.08Z"/><path d="M46.69,117.14s1.6,5.57-3.26,8.65a5.22,5.22,0,0,1-7.61-1.56Z"/><path class="cls-11" d="M14.43,62.41a17.34,17.34,0,0,1-6.1,3.76,16.92,16.92,0,0,1-2.73.72c-1.43-5.66-2.87-11.83-2.16-13.3C3.82,52.76,9.3,57.74,14.43,62.41Z"/><path class="cls-6" d="M24.2,105.42c0,1.45.42,4.06,1.58,4.69.75.42,4.7,1.3,5-.18.19-1-1.62-1.78-1.62-1.78a4.14,4.14,0,0,0,1.59-1.87c.36-1.5-2.7-.52-2.7-.52s3-2.54,1-3.85C27.8,101.14,26.63,101.17,24.2,105.42Z"/></g><g class="cls-2"><g class="cls-3"><g class="cls-3"><path class="cls-4" d="M80.43,63a4.24,4.24,0,0,0,5.16,2.22c1.45-.6,2.45-3,.63-5a3.39,3.39,0,0,0-4.49-.94C80.28,59.85,79.69,61.18,80.43,63Z"/><path class="cls-5" d="M80.43,63a4.24,4.24,0,0,0,5.16,2.22c1.45-.6,2.45-3,.63-5a3.39,3.39,0,0,0-4.49-.94C80.28,59.85,79.69,61.18,80.43,63Z"/></g></g><path d="M84.77,61.7a.69.69,0,0,1-.37.92.7.7,0,1,1-.53-1.3A.69.69,0,0,1,84.77,61.7Z"/><path class="cls-6" d="M65.93,107.72s4.28.73,7,1.28a11.15,11.15,0,0,1,5.33,2.51c.58.63,1.38,4.67,2.82,4.16.91-.35.63-2.33.63-2.33a4.06,4.06,0,0,0,2.43.36c1.45-.48-1-2.56-1-2.56s3.73,1.16,3.78-1.23c0-1.46-2.43-2.42-7.32-2.21-4.72.19-12.33-3.61-12.33-3.61"/><path class="cls-6" d="M47.38,101.9s-4.27.74-7.06,1.29A11.06,11.06,0,0,0,35,105.7c-.58.63-1.38,4.67-2.82,4.15-.91-.32-.63-2.32-.63-2.32a4.14,4.14,0,0,1-2.43.36c-1.45-.48,1-2.57,1-2.57s-3.73,1.18-3.78-1.23c0-1.45,2.43-2.41,7.32-2.2C38.36,102.09,46,98.3,46,98.3"/><path class="cls-6" d="M59,61.63A51.74,51.74,0,0,1,71.06,59.3c3-.24,9,2.31,13.52,4.6,3.49,1.8,13.68,3.59,15.53,3.93,3.18.59,13.38,3,13.38,5.32s-2.58,4.33-8.65,7.22S79.85,86.83,74,95.94c-7.63,11.83-9.47,26.55-10,33.47A132.92,132.92,0,0,1,61.32,145s9.9-.3,8.46,1.71-5.25.06-5.25.06,1.11,2.56,0,2.85-2.63-2.24-2.63-2.24a2,2,0,0,1-2,2.27c-2.3.26-2.83-1.19-2.25-3.79s.46-12.22.27-12.39-12.79,0-12.79,0l-1,11.24s7.61,1.75,6.75,2.89-4.51-.53-4.51-.53,2.79,2.09,1.06,2.6S44,148.49,44,148.49c.92,3.9-4.72,1.71-3.8-1.78V132.28s-5.72,9.18-16.44,9.23c-13.33.07-30.94-11.21-36.69-17.24-5.91-6.19-3.66-4.5,3.51-2.67a42.2,42.2,0,0,0,22.8-.29c3.73-1.1,8.86-2.69,14.21-1.4C32,121,38.22,126,38.22,126s-1.62-16.06,10.33-32.1c2.31-3.08.49-8.58.49-8.58a22.74,22.74,0,0,0-2.41.32c-2.07.38-3.83,3.1-3,.79s4-4.33,4-4.33-.92-1.48-5.39-1.12c-2.92.24,3.73-4,3.73-4s-3.5-.58-5.83-.82c-1.18-.12,7-4,7-4a6.74,6.74,0,0,0,.17-2.65c0-1.11.33-4.46.33-4.46s-1.3-7.51-1.66-10.4a29.66,29.66,0,0,1,0-6s6.1,4.84,9.06,7.92A32.68,32.68,0,0,1,59,61.63Z"/><path class="cls-7" d="M75.06,95.73c-7.83,11.54-9.81,22.77-10,33.49-3.27.07-7.1-.27-10.21,0-.25-2,.24-4.13.24-6.25,0-20.45,8.09-31.49,24-35.49,1.41-.35,9.46-2.19,10.86-1.9C84.26,87.82,77.85,91.63,75.06,95.73Z"/><g class="cls-3"><g class="cls-3"><path class="cls-5" d="M90,85.58c-5.76,2.24-12.17,6-14.94,10.15-7.83,11.54-9.81,22.77-10,33.49"/></g></g><path class="cls-8" d="M110.76,70.3c3.36,1,8,2.12,5.33,4.36-3.25,2.7-9.13,4.68-9.13,4.68s-2.8-8-2-10.38C104.94,69,109.53,70,110.76,70.3Z"/><path class="cls-6" d="M72.16,59.71,67.3,53.2C65.63,51,60.94,45.68,60.68,46s-1.23,2.58-.9,6.43,1.16,8.75,1.16,8.75Z"/><path class="cls-7" d="M55.71,63.3s-6-6.49-6.19-5.69,0,7.37,0,7.37a30.36,30.36,0,0,1,3.16-1.13Z"/><path class="cls-7" d="M63.39,53.85c-.48-.26-.62.45-.64,1.68s0,4.58,0,4.58l4.68-1.06S63.86,54.11,63.39,53.85Z"/><path class="cls-7" d="M66.67,68.74a6.23,6.23,0,0,0,6,5.74,4.36,4.36,0,0,0,3.77-6.2c-1.27-3.35-3.27-4-5.77-3.69S66.67,66,66.67,68.74Z"/><path d="M70.86,69.89a.77.77,0,0,1-1.54,0,.77.77,0,1,1,1.54,0Z"/><path d="M59.37,122.4s.36-14.6-4.29-21.32C53.16,98.31,46.31,96,46.31,96l.92-1.3s6.34,1.67,10.19,6.53c4.09,5.14,4.89,21.21,4.89,21.21Z"/><path class="cls-9" d="M79.23,81.2s-.27,4.09-2.53,4-2.39-4.49-2.39-4.49"/><g class="cls-3"><g class="cls-3"><path class="cls-10" d="M24.94,72.31s-5.29-5.13-10.52-9.89c-6.76-3.25-7.81-3.72-8.2-2.87-.7,1.5-.27,1.8-.62,7.34,1.77,6.93,4,14.18,4,14.18s6.75,7.76,12.19,4.05S24.94,72.31,24.94,72.31Z"/><path class="cls-5" d="M24.94,72.31s-5.29-5.13-10.52-9.89c-6.76-3.25-7.81-3.72-8.2-2.87-.7,1.5-.27,1.8-.62,7.34,1.77,6.93,4,14.18,4,14.18s6.75,7.76,12.19,4.05S24.94,72.31,24.94,72.31Z"/></g></g><path class="cls-11" d="M24.94,72.31s.34,4.31-1.57,4.76c-1.74.43-3.45-1.93-3.45-1.93s.71,3.94-.8,4.86c-1.94,1.21-4.71-1.89-4.71-1.89s1.05,3.87-.94,4.44-3.86-1.47-3.86-1.47L35.8,124.24l10.86-7.08Z"/><path d="M46.69,117.14s1.6,5.57-3.26,8.65a5.22,5.22,0,0,1-7.61-1.56Z"/><path class="cls-11" d="M14.43,62.41a17.34,17.34,0,0,1-6.1,3.76,16.92,16.92,0,0,1-2.73.72c-1.43-5.66-2.87-11.83-2.16-13.3C3.82,52.76,9.3,57.74,14.43,62.41Z"/><path class="cls-6" d="M24.2,105.42c0,1.45.42,4.06,1.58,4.69.75.42,4.7,1.3,5-.18.19-1-1.62-1.78-1.62-1.78a4.14,4.14,0,0,0,1.59-1.87c.36-1.5-2.7-.52-2.7-.52s3-2.54,1-3.85C27.8,101.14,26.63,101.17,24.2,105.42Z"/></g></svg>