<svg id="Layer_1" data-name="Layer 1" xmlns="http://www.w3.org/2000/svg" xmlns:xlink="http://www.w3.org/1999/xlink" viewBox="0 0 118 118"><defs><style>.cls-1{fill:#c4c4c4;}.cls-2{mask:url(#mask);}.cls-3{fill:#93a44c;}.cls-4{fill:#fff;}.cls-5{fill:#7a411b;}.cls-6{fill:none;stroke:#000;stroke-width:0.37px;}.cls-7{fill:#7b8440;}.cls-8{fill:#a9b750;}</style><mask id="mask" x="-25.95" y="17.02" width="162" height="123.74" maskUnits="userSpaceOnUse"><g id="mask0"><rect class="cls-1" x="-25.95" y="17.02" width="162" height="101"/></g></mask></defs><title>iconGloGlo</title><g class="cls-2"><path class="cls-3" d="M91,45.26a9.4,9.4,0,1,1-10.48-8.51A9.54,9.54,0,0,1,91,45.26Z"/><path class="cls-3" d="M62.74,52c1.36,6-3.13,10.43-8.39,11.06s-9.63-2.9-10.79-8.76c-1.07-5.41,3.18-9.92,8.42-11.06C57.54,42.06,61.5,46.64,62.74,52Z"/><path class="cls-3" d="M80.75,96.14s9,12.92,13,15.13c3.29,1.82,4.47.52,4.47.52s8.35-4,7.36-1.85S99,114,99,114s10.42-.74,9.17.69-9.83,2.6-9.83,2.6,11.28,1.63,8.8,2.5c-3.46,1.23-12.85.91-14.38-1S78.61,107,75.46,104.13,80.75,96.14,80.75,96.14Z"/><path class="cls-4" d="M89.11,45.49a7.48,7.48,0,1,1-8.34-6.75A7.6,7.6,0,0,1,89.11,45.49Z"/><path class="cls-3" d="M58.46,48.26c18.45-5,56.3-1,55.26,16.58-.88,14.44-16.88,19.09-16.88,19.09s-.82,16.43-21.4,20.28C66,121.93,48.29,134.48,29.9,135.57S-.25,119.79,9.37,96A53.66,53.66,0,0,1,38.23,66.5S41.65,52.8,58.46,48.26Z"/><path class="cls-5" d="M62.64,89.56c2.39,1.25,1.52,3.88-.93,2.7S60.18,88.26,62.64,89.56Z"/><path class="cls-5" d="M57.31,93.92c2.47,1.15,1.74,3.88-.8,2.82S54.82,92.77,57.31,93.92Z"/><path class="cls-5" d="M50.44,88.5c2.44,1.18,1.54,4.07-.92,3S47.94,87.29,50.44,88.5Z"/><path class="cls-5" d="M56.38,78.13c-2.35-1.4-1.05-4.28,1.26-2.79S58.73,79.49,56.38,78.13Z"/><path class="cls-5" d="M38.2,87c-2.52-1.09-1.47-4.43,1-3.25S40.69,88.13,38.2,87Z"/><path class="cls-5" d="M22,90.18l0-.52c.58-2.31,4.74-1.47,4.16.78A1.93,1.93,0,0,1,24,91.78a1.66,1.66,0,0,1-2.28,2.11C19.39,93.1,19.86,90,22,90.18Z"/><path class="cls-5" d="M37.15,77.62C34.74,76.41,36,73,38.41,74.35S39.6,78.83,37.15,77.62Z"/><path class="cls-5" d="M24.81,105.63a2.07,2.07,0,0,1-1.68-2.36,1.45,1.45,0,0,1-.06-.76c.38-2.29,4.56-1.74,4.2.46l-.29.66A1.61,1.61,0,0,1,24.81,105.63Z"/><path class="cls-5" d="M41.15,66.41c2.48-.36,4.05,3.26,1.66,3.66S38.61,66.82,41.15,66.41Z"/><path class="cls-5" d="M61.11,87c2.49-.61,4.27,3.12,1.78,3.7S58.58,87.66,61.11,87Z"/><path class="cls-5" d="M48.32,77.87c-2.49.78-4.39-3-1.82-3.76S50.78,77.12,48.32,77.87Z"/><path class="cls-5" d="M32.21,76.2c-2.41.71-4.48-2.82-2-3.51S34.64,75.57,32.21,76.2Z"/><path class="cls-5" d="M52.6,83.72c-2.34.45-4.43-2.82-2.1-3.3S54.93,83.33,52.6,83.72Z"/><path class="cls-5" d="M31,91.62c-2.34.87-4.71-2.36-2.35-3.24S33.37,90.8,31,91.62Z"/><path class="cls-5" d="M37.06,78.28c2.4-.6,4.46,2.79,2.11,3.39S34.67,78.94,37.06,78.28Z"/><path class="cls-5" d="M32.2,84.86c-2.42.86-4.55-2.66-2.07-3.53S34.63,84.06,32.2,84.86Z"/><path class="cls-5" d="M50.15,76.12c-2.36.4-4.31-3-1.89-3.44S52.49,75.75,50.15,76.12Z"/><path class="cls-5" d="M45.17,93.36l0,.22v0l0,.51a1.25,1.25,0,0,1-.59.78c.8,1.24-.09,2.82-2,2.11-1.6-.57-1.92-2-1.3-2.79a1.33,1.33,0,0,1-.21-1l.05-.09a1.08,1.08,0,0,1,.73-1.68A2.61,2.61,0,0,1,45.17,93.36Z"/><path class="cls-5" d="M20.2,85.93c-2.38,1-4.69-2.42-2.28-3.42S22.56,85,20.2,85.93Z"/><path class="cls-5" d="M57,67.57c2.38-.08,3.92,3.51,1.54,3.6S54.54,67.73,57,67.57Z"/><path class="cls-5" d="M17.56,95.87c-2.28,1.16-4.85-2.11-2.44-3.25S19.9,94.8,17.56,95.87Z"/><path class="cls-5" d="M56.24,88.51c2.25-.41,4.5,2.7,2.24,3.11S53.94,89,56.24,88.51Z"/><path class="cls-5" d="M32.82,100c-.52-1.22.36-2.68,2.17-2,2,.72,2,2.89.59,3.31A1.13,1.13,0,0,1,35,103c-2.21,1-4.89-2-2.6-3Z"/><path class="cls-5" d="M13.91,100c-.32,2.51-4.6,2.34-4.24-.29S14.29,97.51,13.91,100Z"/><path class="cls-5" d="M22.58,110.72c-.23,2.58-4.51,2.67-4.24,0S22.83,108.08,22.58,110.72Z"/><path class="cls-5" d="M19.07,105.18c-.29,2.33-4.54,2.13-4.24-.29S19.36,102.81,19.07,105.18Z"/><path class="cls-5" d="M34.75,94.07c-.52,2.08-4.63,1.38-4.16-.84S35.27,92,34.75,94.07Z"/><path class="cls-5" d="M17.56,113.14c-.18,2.35-4.43,2.41-4.24-.06S17.73,110.76,17.56,113.14Z"/><path class="cls-5" d="M12.67,107.48c0,2.61-4.19,3.11-4.22.33S12.76,104.85,12.67,107.48Z"/><path class="cls-5" d="M17.23,115.37c.11,2.85-4.08,3.64-4.22.62S17.2,112.53,17.23,115.37Z"/><path class="cls-5" d="M22.38,78.26c.73-2.45,4.86-1.41,4.12,1S21.65,80.73,22.38,78.26Z"/><path class="cls-4" d="M60.55,52.27c1.07,4.58-2.41,8.07-6.47,8.55S46.66,58.56,45.74,54c-.81-4.19,2.46-7.68,6.51-8.53C56.54,44.57,59.6,48.12,60.55,52.27Z"/><path d="M56,52.84a1.36,1.36,0,0,1-1.25,1.63,1.44,1.44,0,0,1-1.58-1.29,1.47,1.47,0,0,1,1.23-1.63C55.25,51.37,55.84,52,56,52.84Z"/><path d="M84.28,43.12a1.2,1.2,0,0,1-1.11,1.44A1.3,1.3,0,0,1,82.86,42C83.61,41.81,84.14,42.4,84.28,43.12Z"/><path class="cls-6" d="M96.83,83.9c-17.15,3.79-24.51-5.72-24.51-5.72"/><path class="cls-7" d="M83.16,102c-2.62-2.41-13.92,1.16-24.9,9.52-15.51,11.82-40,17.58-34.11,21.52s8.93,3.42,17.41.25c8.85-3.34,17.8-5.74,29.74-17.46C78.21,109.08,80.1,105.87,83.16,102Z"/><path class="cls-8" d="M25,109.38c4.8-5.95,22.79-15.74,29.88-9.46s-3.27,32.25-3.27,32.25,26.29-5.08,25.15-3-13,3.28-13,3.28,14.65-.25,14.6,1.43-14.84,1-14.84,1,12.43,4,11.52,5.43-11.81-1.17-20.28-2.23-13,3.72-13.16.19S46.56,121,46.56,121s-8.63,17.82-19.73,15C8.54,131.29,21,114.44,25,109.38Z"/><path d="M104.9,66.35a1.27,1.27,0,1,1-1.41-1.11A1.27,1.27,0,0,1,104.9,66.35Z"/><path d="M109.75,64a1,1,0,0,1-.86,1.1,1,1,0,0,1-1.13-.86,1,1,0,0,1,2-.24Z"/><path class="cls-3" d="M72,97.18s6.11,21.08,9.62,24.07c2.84,2.41,4.26,1.42,4.26,1.42s9-2.22,7.57-.34-7.3,2.6-7.3,2.6,10.36,1.35,8.85,2.52-10.15.59-10.15.59,10.71,3.83,8.11,4.2c-3.63.52-12.75-1.68-13.89-3.84s-13-20.77-15.51-24.21S72,97.18,72,97.18Z"/></g><g class="cls-2"><path class="cls-3" d="M91,45.26a9.4,9.4,0,1,1-10.48-8.51A9.54,9.54,0,0,1,91,45.26Z"/><path class="cls-3" d="M62.74,52c1.36,6-3.13,10.43-8.39,11.06s-9.63-2.9-10.79-8.76c-1.07-5.41,3.18-9.92,8.42-11.06C57.54,42.06,61.5,46.64,62.74,52Z"/><path class="cls-3" d="M80.75,96.14s9,12.92,13,15.13c3.29,1.82,4.47.52,4.47.52s8.35-4,7.36-1.85S99,114,99,114s10.42-.74,9.17.69-9.83,2.6-9.83,2.6,11.28,1.63,8.8,2.5c-3.46,1.23-12.85.91-14.38-1S78.61,107,75.46,104.13,80.75,96.14,80.75,96.14Z"/><path class="cls-4" d="M89.11,45.49a7.48,7.48,0,1,1-8.34-6.75A7.6,7.6,0,0,1,89.11,45.49Z"/><path class="cls-3" d="M58.46,48.26c18.45-5,56.3-1,55.26,16.58-.88,14.44-16.88,19.09-16.88,19.09s-.82,16.43-21.4,20.28C66,121.93,48.29,134.48,29.9,135.57S-.25,119.79,9.37,96A53.66,53.66,0,0,1,38.23,66.5S41.65,52.8,58.46,48.26Z"/><path class="cls-5" d="M62.64,89.56c2.39,1.25,1.52,3.88-.93,2.7S60.18,88.26,62.64,89.56Z"/><path class="cls-5" d="M57.31,93.92c2.47,1.15,1.74,3.88-.8,2.82S54.82,92.77,57.31,93.92Z"/><path class="cls-5" d="M50.44,88.5c2.44,1.18,1.54,4.07-.92,3S47.94,87.29,50.44,88.5Z"/><path class="cls-5" d="M56.38,78.13c-2.35-1.4-1.05-4.28,1.26-2.79S58.73,79.49,56.38,78.13Z"/><path class="cls-5" d="M38.2,87c-2.52-1.09-1.47-4.43,1-3.25S40.69,88.13,38.2,87Z"/><path class="cls-5" d="M22,90.18l0-.52c.58-2.31,4.74-1.47,4.16.78A1.93,1.93,0,0,1,24,91.78a1.66,1.66,0,0,1-2.28,2.11C19.39,93.1,19.86,90,22,90.18Z"/><path class="cls-5" d="M37.15,77.62C34.74,76.41,36,73,38.41,74.35S39.6,78.83,37.15,77.62Z"/><path class="cls-5" d="M24.81,105.63a2.07,2.07,0,0,1-1.68-2.36,1.45,1.45,0,0,1-.06-.76c.38-2.29,4.56-1.74,4.2.46l-.29.66A1.61,1.61,0,0,1,24.81,105.63Z"/><path class="cls-5" d="M41.15,66.41c2.48-.36,4.05,3.26,1.66,3.66S38.61,66.82,41.15,66.41Z"/><path class="cls-5" d="M61.11,87c2.49-.61,4.27,3.12,1.78,3.7S58.58,87.66,61.11,87Z"/><path class="cls-5" d="M48.32,77.87c-2.49.78-4.39-3-1.82-3.76S50.78,77.12,48.32,77.87Z"/><path class="cls-5" d="M32.21,76.2c-2.41.71-4.48-2.82-2-3.51S34.64,75.57,32.21,76.2Z"/><path class="cls-5" d="M52.6,83.72c-2.34.45-4.43-2.82-2.1-3.3S54.93,83.33,52.6,83.72Z"/><path class="cls-5" d="M31,91.62c-2.34.87-4.71-2.36-2.35-3.24S33.37,90.8,31,91.62Z"/><path class="cls-5" d="M37.06,78.28c2.4-.6,4.46,2.79,2.11,3.39S34.67,78.94,37.06,78.28Z"/><path class="cls-5" d="M32.2,84.86c-2.42.86-4.55-2.66-2.07-3.53S34.63,84.06,32.2,84.86Z"/><path class="cls-5" d="M50.15,76.12c-2.36.4-4.31-3-1.89-3.44S52.49,75.75,50.15,76.12Z"/><path class="cls-5" d="M45.17,93.36l0,.22v0l0,.51a1.25,1.25,0,0,1-.59.78c.8,1.24-.09,2.82-2,2.11-1.6-.57-1.92-2-1.3-2.79a1.33,1.33,0,0,1-.21-1l.05-.09a1.08,1.08,0,0,1,.73-1.68A2.61,2.61,0,0,1,45.17,93.36Z"/><path class="cls-5" d="M20.2,85.93c-2.38,1-4.69-2.42-2.28-3.42S22.56,85,20.2,85.93Z"/><path class="cls-5" d="M57,67.57c2.38-.08,3.92,3.51,1.54,3.6S54.54,67.73,57,67.57Z"/><path class="cls-5" d="M17.56,95.87c-2.28,1.16-4.85-2.11-2.44-3.25S19.9,94.8,17.56,95.87Z"/><path class="cls-5" d="M56.24,88.51c2.25-.41,4.5,2.7,2.24,3.11S53.94,89,56.24,88.51Z"/><path class="cls-5" d="M32.82,100c-.52-1.22.36-2.68,2.17-2,2,.72,2,2.89.59,3.31A1.13,1.13,0,0,1,35,103c-2.21,1-4.89-2-2.6-3Z"/><path class="cls-5" d="M13.91,100c-.32,2.51-4.6,2.34-4.24-.29S14.29,97.51,13.91,100Z"/><path class="cls-5" d="M22.58,110.72c-.23,2.58-4.51,2.67-4.24,0S22.83,108.08,22.58,110.72Z"/><path class="cls-5" d="M19.07,105.18c-.29,2.33-4.54,2.13-4.24-.29S19.36,102.81,19.07,105.18Z"/><path class="cls-5" d="M34.75,94.07c-.52,2.08-4.63,1.38-4.16-.84S35.27,92,34.75,94.07Z"/><path class="cls-5" d="M17.56,113.14c-.18,2.35-4.43,2.41-4.24-.06S17.73,110.76,17.56,113.14Z"/><path class="cls-5" d="M12.67,107.48c0,2.61-4.19,3.11-4.22.33S12.76,104.85,12.67,107.48Z"/><path class="cls-5" d="M17.23,115.37c.11,2.85-4.08,3.64-4.22.62S17.2,112.53,17.23,115.37Z"/><path class="cls-5" d="M22.38,78.26c.73-2.45,4.86-1.41,4.12,1S21.65,80.73,22.38,78.26Z"/><path class="cls-4" d="M60.55,52.27c1.07,4.58-2.41,8.07-6.47,8.55S46.66,58.56,45.74,54c-.81-4.19,2.46-7.68,6.51-8.53C56.54,44.57,59.6,48.12,60.55,52.27Z"/><path d="M56,52.84a1.36,1.36,0,0,1-1.25,1.63,1.44,1.44,0,0,1-1.58-1.29,1.47,1.47,0,0,1,1.23-1.63C55.25,51.37,55.84,52,56,52.84Z"/><path d="M84.28,43.12a1.2,1.2,0,0,1-1.11,1.44A1.3,1.3,0,0,1,82.86,42C83.61,41.81,84.14,42.4,84.28,43.12Z"/><path class="cls-6" d="M96.83,83.9c-17.15,3.79-24.51-5.72-24.51-5.72"/><path class="cls-7" d="M83.16,102c-2.62-2.41-13.92,1.16-24.9,9.52-15.51,11.82-40,17.58-34.11,21.52s8.93,3.42,17.41.25c8.85-3.34,17.8-5.74,29.74-17.46C78.21,109.08,80.1,105.87,83.16,102Z"/><path class="cls-8" d="M25,109.38c4.8-5.95,22.79-15.74,29.88-9.46s-3.27,32.25-3.27,32.25,26.29-5.08,25.15-3-13,3.28-13,3.28,14.65-.25,14.6,1.43-14.84,1-14.84,1,12.43,4,11.52,5.43-11.81-1.17-20.28-2.23-13,3.72-13.16.19S46.56,121,46.56,121s-8.63,17.82-19.73,15C8.54,131.29,21,114.44,25,109.38Z"/><path d="M104.9,66.35a1.27,1.27,0,1,1-1.41-1.11A1.27,1.27,0,0,1,104.9,66.35Z"/><path d="M109.75,64a1,1,0,0,1-.86,1.1,1,1,0,0,1-1.13-.86,1,1,0,0,1,2-.24Z"/><path class="cls-3" d="M72,97.18s6.11,21.08,9.62,24.07c2.84,2.41,4.26,1.42,4.26,1.42s9-2.22,7.57-.34-7.3,2.6-7.3,2.6,10.36,1.35,8.85,2.52-10.15.59-10.15.59,10.71,3.83,8.11,4.2c-3.63.52-12.75-1.68-13.89-3.84s-13-20.77-15.51-24.21S72,97.18,72,97.18Z"/></g><g class="cls-2"><path class="cls-3" d="M91,45.26a9.4,9.4,0,1,1-10.48-8.51A9.54,9.54,0,0,1,91,45.26Z"/><path class="cls-3" d="M62.74,52c1.36,6-3.13,10.43-8.39,11.06s-9.63-2.9-10.79-8.76c-1.07-5.41,3.18-9.92,8.42-11.06C57.54,42.06,61.5,46.64,62.74,52Z"/><path class="cls-3" d="M80.75,96.14s9,12.92,13,15.13c3.29,1.82,4.47.52,4.47.52s8.35-4,7.36-1.85S99,114,99,114s10.42-.74,9.17.69-9.83,2.6-9.83,2.6,11.28,1.63,8.8,2.5c-3.46,1.23-12.85.91-14.38-1S78.61,107,75.46,104.13,80.75,96.14,80.75,96.14Z"/><path class="cls-4" d="M89.11,45.49a7.48,7.48,0,1,1-8.34-6.75A7.6,7.6,0,0,1,89.11,45.49Z"/><path class="cls-3" d="M58.46,48.26c18.45-5,56.3-1,55.26,16.58-.88,14.44-16.88,19.09-16.88,19.09s-.82,16.43-21.4,20.28C66,121.93,48.29,134.48,29.9,135.57S-.25,119.79,9.37,96A53.66,53.66,0,0,1,38.23,66.5S41.65,52.8,58.46,48.26Z"/><path class="cls-5" d="M62.64,89.56c2.39,1.25,1.52,3.88-.93,2.7S60.18,88.26,62.64,89.56Z"/><path class="cls-5" d="M57.31,93.92c2.47,1.15,1.74,3.88-.8,2.82S54.82,92.77,57.31,93.92Z"/><path class="cls-5" d="M50.44,88.5c2.44,1.18,1.54,4.07-.92,3S47.94,87.29,50.44,88.5Z"/><path class="cls-5" d="M56.38,78.13c-2.35-1.4-1.05-4.28,1.26-2.79S58.73,79.49,56.38,78.13Z"/><path class="cls-5" d="M38.2,87c-2.52-1.09-1.47-4.43,1-3.25S40.69,88.13,38.2,87Z"/><path class="cls-5" d="M22,90.18l0-.52c.58-2.31,4.74-1.47,4.16.78A1.93,1.93,0,0,1,24,91.78a1.66,1.66,0,0,1-2.28,2.11C19.39,93.1,19.86,90,22,90.18Z"/><path class="cls-5" d="M37.15,77.62C34.74,76.41,36,73,38.41,74.35S39.6,78.83,37.15,77.62Z"/><path class="cls-5" d="M24.81,105.63a2.07,2.07,0,0,1-1.68-2.36,1.45,1.45,0,0,1-.06-.76c.38-2.29,4.56-1.74,4.2.46l-.29.66A1.61,1.61,0,0,1,24.81,105.63Z"/><path class="cls-5" d="M41.15,66.41c2.48-.36,4.05,3.26,1.66,3.66S38.61,66.82,41.15,66.41Z"/><path class="cls-5" d="M61.11,87c2.49-.61,4.27,3.12,1.78,3.7S58.58,87.66,61.11,87Z"/><path class="cls-5" d="M48.32,77.87c-2.49.78-4.39-3-1.82-3.76S50.78,77.12,48.32,77.87Z"/><path class="cls-5" d="M32.21,76.2c-2.41.71-4.48-2.82-2-3.51S34.64,75.57,32.21,76.2Z"/><path class="cls-5" d="M52.6,83.72c-2.34.45-4.43-2.82-2.1-3.3S54.93,83.33,52.6,83.72Z"/><path class="cls-5" d="M31,91.62c-2.34.87-4.71-2.36-2.35-3.24S33.37,90.8,31,91.62Z"/><path class="cls-5" d="M37.06,78.28c2.4-.6,4.46,2.79,2.11,3.39S34.67,78.94,37.06,78.28Z"/><path class="cls-5" d="M32.2,84.86c-2.42.86-4.55-2.66-2.07-3.53S34.63,84.06,32.2,84.86Z"/><path class="cls-5" d="M50.15,76.12c-2.36.4-4.31-3-1.89-3.44S52.49,75.75,50.15,76.12Z"/><path class="cls-5" d="M45.17,93.36l0,.22v0l0,.51a1.25,1.25,0,0,1-.59.78c.8,1.24-.09,2.82-2,2.11-1.6-.57-1.92-2-1.3-2.79a1.33,1.33,0,0,1-.21-1l.05-.09a1.08,1.08,0,0,1,.73-1.68A2.61,2.61,0,0,1,45.17,93.36Z"/><path class="cls-5" d="M20.2,85.93c-2.38,1-4.69-2.42-2.28-3.42S22.56,85,20.2,85.93Z"/><path class="cls-5" d="M57,67.57c2.38-.08,3.92,3.51,1.54,3.6S54.54,67.73,57,67.57Z"/><path class="cls-5" d="M17.56,95.87c-2.28,1.16-4.85-2.11-2.44-3.25S19.9,94.8,17.56,95.87Z"/><path class="cls-5" d="M56.24,88.51c2.25-.41,4.5,2.7,2.24,3.11S53.94,89,56.24,88.51Z"/><path class="cls-5" d="M32.82,100c-.52-1.22.36-2.68,2.17-2,2,.72,2,2.89.59,3.31A1.13,1.13,0,0,1,35,103c-2.21,1-4.89-2-2.6-3Z"/><path class="cls-5" d="M13.91,100c-.32,2.51-4.6,2.34-4.24-.29S14.29,97.51,13.91,100Z"/><path class="cls-5" d="M22.58,110.72c-.23,2.58-4.51,2.67-4.24,0S22.83,108.08,22.58,110.72Z"/><path class="cls-5" d="M19.07,105.18c-.29,2.33-4.54,2.13-4.24-.29S19.36,102.81,19.07,105.18Z"/><path class="cls-5" d="M34.75,94.07c-.52,2.08-4.63,1.38-4.16-.84S35.27,92,34.75,94.07Z"/><path class="cls-5" d="M17.56,113.14c-.18,2.35-4.43,2.41-4.24-.06S17.73,110.76,17.56,113.14Z"/><path class="cls-5" d="M12.67,107.48c0,2.61-4.19,3.11-4.22.33S12.76,104.85,12.67,107.48Z"/><path class="cls-5" d="M17.23,115.37c.11,2.85-4.08,3.64-4.22.62S17.2,112.53,17.23,115.37Z"/><path class="cls-5" d="M22.38,78.26c.73-2.45,4.86-1.41,4.12,1S21.65,80.73,22.38,78.26Z"/><path class="cls-4" d="M60.55,52.27c1.07,4.58-2.41,8.07-6.47,8.55S46.66,58.56,45.74,54c-.81-4.19,2.46-7.68,6.51-8.53C56.54,44.57,59.6,48.12,60.55,52.27Z"/><path d="M56,52.84a1.36,1.36,0,0,1-1.25,1.63,1.44,1.44,0,0,1-1.58-1.29,1.47,1.47,0,0,1,1.23-1.63C55.25,51.37,55.84,52,56,52.84Z"/><path d="M84.28,43.12a1.2,1.2,0,0,1-1.11,1.44A1.3,1.3,0,0,1,82.86,42C83.61,41.81,84.14,42.4,84.28,43.12Z"/><path class="cls-6" d="M96.83,83.9c-17.15,3.79-24.51-5.72-24.51-5.72"/><path class="cls-7" d="M83.16,102c-2.62-2.41-13.92,1.16-24.9,9.52-15.51,11.82-40,17.58-34.11,21.52s8.93,3.42,17.41.25c8.85-3.34,17.8-5.74,29.74-17.46C78.21,109.08,80.1,105.87,83.16,102Z"/><path class="cls-8" d="M25,109.38c4.8-5.95,22.79-15.74,29.88-9.46s-3.27,32.25-3.27,32.25,26.29-5.08,25.15-3-13,3.28-13,3.28,14.65-.25,14.6,1.43-14.84,1-14.84,1,12.43,4,11.52,5.43-11.81-1.17-20.28-2.23-13,3.72-13.16.19S46.56,121,46.56,121s-8.63,17.82-19.73,15C8.54,131.29,21,114.44,25,109.38Z"/><path d="M104.9,66.35a1.27,1.27,0,1,1-1.41-1.11A1.27,1.27,0,0,1,104.9,66.35Z"/><path d="M109.75,64a1,1,0,0,1-.86,1.1,1,1,0,0,1-1.13-.86,1,1,0,0,1,2-.24Z"/><path class="cls-3" d="M72,97.18s6.11,21.08,9.62,24.07c2.84,2.41,4.26,1.42,4.26,1.42s9-2.22,7.57-.34-7.3,2.6-7.3,2.6,10.36,1.35,8.85,2.52-10.15.59-10.15.59,10.71,3.83,8.11,4.2c-3.63.52-12.75-1.68-13.89-3.84s-13-20.77-15.51-24.21S72,97.18,72,97.18Z"/></g><g class="cls-2"><path class="cls-3" d="M91,45.26a9.4,9.4,0,1,1-10.48-8.51A9.54,9.54,0,0,1,91,45.26Z"/><path class="cls-3" d="M62.74,52c1.36,6-3.13,10.43-8.39,11.06s-9.63-2.9-10.79-8.76c-1.07-5.41,3.18-9.92,8.42-11.06C57.54,42.06,61.5,46.64,62.74,52Z"/><path class="cls-3" d="M80.75,96.14s9,12.92,13,15.13c3.29,1.82,4.47.52,4.47.52s8.35-4,7.36-1.85S99,114,99,114s10.42-.74,9.17.69-9.83,2.6-9.83,2.6,11.28,1.63,8.8,2.5c-3.46,1.23-12.85.91-14.38-1S78.61,107,75.46,104.13,80.75,96.14,80.75,96.14Z"/><path class="cls-4" d="M89.11,45.49a7.48,7.48,0,1,1-8.34-6.75A7.6,7.6,0,0,1,89.11,45.49Z"/><path class="cls-3" d="M58.46,48.26c18.45-5,56.3-1,55.26,16.58-.88,14.44-16.88,19.09-16.88,19.09s-.82,16.43-21.4,20.28C66,121.93,48.29,134.48,29.9,135.57S-.25,119.79,9.37,96A53.66,53.66,0,0,1,38.23,66.5S41.65,52.8,58.46,48.26Z"/><path class="cls-5" d="M62.64,89.56c2.39,1.25,1.52,3.88-.93,2.7S60.18,88.26,62.64,89.56Z"/><path class="cls-5" d="M57.31,93.92c2.47,1.15,1.74,3.88-.8,2.82S54.82,92.77,57.31,93.92Z"/><path class="cls-5" d="M50.44,88.5c2.44,1.18,1.54,4.07-.92,3S47.94,87.29,50.44,88.5Z"/><path class="cls-5" d="M56.38,78.13c-2.35-1.4-1.05-4.28,1.26-2.79S58.73,79.49,56.38,78.13Z"/><path class="cls-5" d="M38.2,87c-2.52-1.09-1.47-4.43,1-3.25S40.69,88.13,38.2,87Z"/><path class="cls-5" d="M22,90.18l0-.52c.58-2.31,4.74-1.47,4.16.78A1.93,1.93,0,0,1,24,91.78a1.66,1.66,0,0,1-2.28,2.11C19.39,93.1,19.86,90,22,90.18Z"/><path class="cls-5" d="M37.15,77.62C34.74,76.41,36,73,38.41,74.35S39.6,78.83,37.15,77.62Z"/><path class="cls-5" d="M24.81,105.63a2.07,2.07,0,0,1-1.68-2.36,1.45,1.45,0,0,1-.06-.76c.38-2.29,4.56-1.74,4.2.46l-.29.66A1.61,1.61,0,0,1,24.81,105.63Z"/><path class="cls-5" d="M41.15,66.41c2.48-.36,4.05,3.26,1.66,3.66S38.61,66.82,41.15,66.41Z"/><path class="cls-5" d="M61.11,87c2.49-.61,4.27,3.12,1.78,3.7S58.58,87.66,61.11,87Z"/><path class="cls-5" d="M48.32,77.87c-2.49.78-4.39-3-1.82-3.76S50.78,77.12,48.32,77.87Z"/><path class="cls-5" d="M32.21,76.2c-2.41.71-4.48-2.82-2-3.51S34.64,75.57,32.21,76.2Z"/><path class="cls-5" d="M52.6,83.72c-2.34.45-4.43-2.82-2.1-3.3S54.93,83.33,52.6,83.72Z"/><path class="cls-5" d="M31,91.62c-2.34.87-4.71-2.36-2.35-3.24S33.37,90.8,31,91.62Z"/><path class="cls-5" d="M37.06,78.28c2.4-.6,4.46,2.79,2.11,3.39S34.67,78.94,37.06,78.28Z"/><path class="cls-5" d="M32.2,84.86c-2.42.86-4.55-2.66-2.07-3.53S34.63,84.06,32.2,84.86Z"/><path class="cls-5" d="M50.15,76.12c-2.36.4-4.31-3-1.89-3.44S52.49,75.75,50.15,76.12Z"/><path class="cls-5" d="M45.17,93.36l0,.22v0l0,.51a1.25,1.25,0,0,1-.59.78c.8,1.24-.09,2.82-2,2.11-1.6-.57-1.92-2-1.3-2.79a1.33,1.33,0,0,1-.21-1l.05-.09a1.08,1.08,0,0,1,.73-1.68A2.61,2.61,0,0,1,45.17,93.36Z"/><path class="cls-5" d="M20.2,85.93c-2.38,1-4.69-2.42-2.28-3.42S22.56,85,20.2,85.93Z"/><path class="cls-5" d="M57,67.57c2.38-.08,3.92,3.51,1.54,3.6S54.54,67.73,57,67.57Z"/><path class="cls-5" d="M17.56,95.87c-2.28,1.16-4.85-2.11-2.44-3.25S19.9,94.8,17.56,95.87Z"/><path class="cls-5" d="M56.24,88.51c2.25-.41,4.5,2.7,2.24,3.11S53.94,89,56.24,88.51Z"/><path class="cls-5" d="M32.82,100c-.52-1.22.36-2.68,2.17-2,2,.72,2,2.89.59,3.31A1.13,1.13,0,0,1,35,103c-2.21,1-4.89-2-2.6-3Z"/><path class="cls-5" d="M13.91,100c-.32,2.51-4.6,2.34-4.24-.29S14.29,97.51,13.91,100Z"/><path class="cls-5" d="M22.58,110.72c-.23,2.58-4.51,2.67-4.24,0S22.83,108.08,22.58,110.72Z"/><path class="cls-5" d="M19.07,105.18c-.29,2.33-4.54,2.13-4.24-.29S19.36,102.81,19.07,105.18Z"/><path class="cls-5" d="M34.75,94.07c-.52,2.08-4.63,1.38-4.16-.84S35.27,92,34.75,94.07Z"/><path class="cls-5" d="M17.56,113.14c-.18,2.35-4.43,2.41-4.24-.06S17.73,110.76,17.56,113.14Z"/><path class="cls-5" d="M12.67,107.48c0,2.61-4.19,3.11-4.22.33S12.76,104.85,12.67,107.48Z"/><path class="cls-5" d="M17.23,115.37c.11,2.85-4.08,3.64-4.22.62S17.2,112.53,17.23,115.37Z"/><path class="cls-5" d="M22.38,78.26c.73-2.45,4.86-1.41,4.12,1S21.65,80.73,22.38,78.26Z"/><path class="cls-4" d="M60.55,52.27c1.07,4.58-2.41,8.07-6.47,8.55S46.66,58.56,45.74,54c-.81-4.19,2.46-7.68,6.51-8.53C56.54,44.57,59.6,48.12,60.55,52.27Z"/><path d="M56,52.84a1.36,1.36,0,0,1-1.25,1.63,1.44,1.44,0,0,1-1.58-1.29,1.47,1.47,0,0,1,1.23-1.63C55.25,51.37,55.84,52,56,52.84Z"/><path d="M84.28,43.12a1.2,1.2,0,0,1-1.11,1.44A1.3,1.3,0,0,1,82.86,42C83.61,41.81,84.14,42.4,84.28,43.12Z"/><path class="cls-6" d="M96.83,83.9c-17.15,3.79-24.51-5.72-24.51-5.72"/><path class="cls-7" d="M83.16,102c-2.62-2.41-13.92,1.16-24.9,9.52-15.51,11.82-40,17.58-34.11,21.52s8.93,3.42,17.41.25c8.85-3.34,17.8-5.74,29.74-17.46C78.21,109.08,80.1,105.87,83.16,102Z"/><path class="cls-8" d="M25,109.38c4.8-5.95,22.79-15.74,29.88-9.46s-3.27,32.25-3.27,32.25,26.29-5.08,25.15-3-13,3.28-13,3.28,14.65-.25,14.6,1.43-14.84,1-14.84,1,12.43,4,11.52,5.43-11.81-1.17-20.28-2.23-13,3.72-13.16.19S46.56,121,46.56,121s-8.63,17.82-19.73,15C8.54,131.29,21,114.44,25,109.38Z"/><path d="M104.9,66.35a1.27,1.27,0,1,1-1.41-1.11A1.27,1.27,0,0,1,104.9,66.35Z"/><path d="M109.75,64a1,1,0,0,1-.86,1.1,1,1,0,0,1-1.13-.86,1,1,0,0,1,2-.24Z"/><path class="cls-3" d="M72,97.18s6.11,21.08,9.62,24.07c2.84,2.41,4.26,1.42,4.26,1.42s9-2.22,7.57-.34-7.3,2.6-7.3,2.6,10.36,1.35,8.85,2.52-10.15.59-10.15.59,10.71,3.83,8.11,4.2c-3.63.52-12.75-1.68-13.89-3.84s-13-20.77-15.51-24.21S72,97.18,72,97.18Z"/></g><g class="cls-2"><path class="cls-3" d="M91,45.26a9.4,9.4,0,1,1-10.48-8.51A9.54,9.54,0,0,1,91,45.26Z"/><path class="cls-3" d="M62.74,52c1.36,6-3.13,10.43-8.39,11.06s-9.63-2.9-10.79-8.76c-1.07-5.41,3.18-9.92,8.42-11.06C57.54,42.06,61.5,46.64,62.74,52Z"/><path class="cls-3" d="M80.75,96.14s9,12.92,13,15.13c3.29,1.82,4.47.52,4.47.52s8.35-4,7.36-1.85S99,114,99,114s10.42-.74,9.17.69-9.83,2.6-9.83,2.6,11.28,1.63,8.8,2.5c-3.46,1.23-12.85.91-14.38-1S78.61,107,75.46,104.13,80.75,96.14,80.75,96.14Z"/><path class="cls-4" d="M89.11,45.49a7.48,7.48,0,1,1-8.34-6.75A7.6,7.6,0,0,1,89.11,45.49Z"/><path class="cls-3" d="M58.46,48.26c18.45-5,56.3-1,55.26,16.58-.88,14.44-16.88,19.09-16.88,19.09s-.82,16.43-21.4,20.28C66,121.93,48.29,134.48,29.9,135.57S-.25,119.79,9.37,96A53.66,53.66,0,0,1,38.23,66.5S41.65,52.8,58.46,48.26Z"/><path class="cls-5" d="M62.64,89.56c2.39,1.25,1.52,3.88-.93,2.7S60.18,88.26,62.64,89.56Z"/><path class="cls-5" d="M57.31,93.92c2.47,1.15,1.74,3.88-.8,2.82S54.82,92.77,57.31,93.92Z"/><path class="cls-5" d="M50.44,88.5c2.44,1.18,1.54,4.07-.92,3S47.94,87.29,50.44,88.5Z"/><path class="cls-5" d="M56.38,78.13c-2.35-1.4-1.05-4.28,1.26-2.79S58.73,79.49,56.38,78.13Z"/><path class="cls-5" d="M38.2,87c-2.52-1.09-1.47-4.43,1-3.25S40.69,88.13,38.2,87Z"/><path class="cls-5" d="M22,90.18l0-.52c.58-2.31,4.74-1.47,4.16.78A1.93,1.93,0,0,1,24,91.78a1.66,1.66,0,0,1-2.28,2.11C19.39,93.1,19.86,90,22,90.18Z"/><path class="cls-5" d="M37.15,77.62C34.74,76.41,36,73,38.41,74.35S39.6,78.83,37.15,77.62Z"/><path class="cls-5" d="M24.81,105.63a2.07,2.07,0,0,1-1.68-2.36,1.45,1.45,0,0,1-.06-.76c.38-2.29,4.56-1.74,4.2.46l-.29.66A1.61,1.61,0,0,1,24.81,105.63Z"/><path class="cls-5" d="M41.15,66.41c2.48-.36,4.05,3.26,1.66,3.66S38.61,66.82,41.15,66.41Z"/><path class="cls-5" d="M61.11,87c2.49-.61,4.27,3.12,1.78,3.7S58.58,87.66,61.11,87Z"/><path class="cls-5" d="M48.32,77.87c-2.49.78-4.39-3-1.82-3.76S50.78,77.12,48.32,77.87Z"/><path class="cls-5" d="M32.21,76.2c-2.41.71-4.48-2.82-2-3.51S34.64,75.57,32.21,76.2Z"/><path class="cls-5" d="M52.6,83.72c-2.34.45-4.43-2.82-2.1-3.3S54.93,83.33,52.6,83.72Z"/><path class="cls-5" d="M31,91.62c-2.34.87-4.71-2.36-2.35-3.24S33.37,90.8,31,91.62Z"/><path class="cls-5" d="M37.06,78.28c2.4-.6,4.46,2.79,2.11,3.39S34.67,78.94,37.06,78.28Z"/><path class="cls-5" d="M32.2,84.86c-2.42.86-4.55-2.66-2.07-3.53S34.63,84.06,32.2,84.86Z"/><path class="cls-5" d="M50.15,76.12c-2.36.4-4.31-3-1.89-3.44S52.49,75.75,50.15,76.12Z"/><path class="cls-5" d="M45.17,93.36l0,.22v0l0,.51a1.25,1.25,0,0,1-.59.78c.8,1.24-.09,2.82-2,2.11-1.6-.57-1.92-2-1.3-2.79a1.33,1.33,0,0,1-.21-1l.05-.09a1.08,1.08,0,0,1,.73-1.68A2.61,2.61,0,0,1,45.17,93.36Z"/><path class="cls-5" d="M20.2,85.93c-2.38,1-4.69-2.42-2.28-3.42S22.56,85,20.2,85.93Z"/><path class="cls-5" d="M57,67.57c2.38-.08,3.92,3.51,1.54,3.6S54.54,67.73,57,67.57Z"/><path class="cls-5" d="M17.56,95.87c-2.28,1.16-4.85-2.11-2.44-3.25S19.9,94.8,17.56,95.87Z"/><path class="cls-5" d="M56.24,88.51c2.25-.41,4.5,2.7,2.24,3.11S53.94,89,56.24,88.51Z"/><path class="cls-5" d="M32.82,100c-.52-1.22.36-2.68,2.17-2,2,.72,2,2.89.59,3.31A1.13,1.13,0,0,1,35,103c-2.21,1-4.89-2-2.6-3Z"/><path class="cls-5" d="M13.91,100c-.32,2.51-4.6,2.34-4.24-.29S14.29,97.51,13.91,100Z"/><path class="cls-5" d="M22.58,110.72c-.23,2.58-4.51,2.67-4.24,0S22.83,108.08,22.58,110.72Z"/><path class="cls-5" d="M19.07,105.18c-.29,2.33-4.54,2.13-4.24-.29S19.36,102.81,19.07,105.18Z"/><path class="cls-5" d="M34.75,94.07c-.52,2.08-4.63,1.38-4.16-.84S35.27,92,34.75,94.07Z"/><path class="cls-5" d="M17.56,113.14c-.18,2.35-4.43,2.41-4.24-.06S17.73,110.76,17.56,113.14Z"/><path class="cls-5" d="M12.67,107.48c0,2.61-4.19,3.11-4.22.33S12.76,104.85,12.67,107.48Z"/><path class="cls-5" d="M17.23,115.37c.11,2.85-4.08,3.64-4.22.62S17.2,112.53,17.23,115.37Z"/><path class="cls-5" d="M22.38,78.26c.73-2.45,4.86-1.41,4.12,1S21.65,80.73,22.38,78.26Z"/><path class="cls-4" d="M60.55,52.27c1.07,4.58-2.41,8.07-6.47,8.55S46.66,58.56,45.74,54c-.81-4.19,2.46-7.68,6.51-8.53C56.54,44.57,59.6,48.12,60.55,52.27Z"/><path d="M56,52.84a1.36,1.36,0,0,1-1.25,1.63,1.44,1.44,0,0,1-1.58-1.29,1.47,1.47,0,0,1,1.23-1.63C55.25,51.37,55.84,52,56,52.84Z"/><path d="M84.28,43.12a1.2,1.2,0,0,1-1.11,1.44A1.3,1.3,0,0,1,82.86,42C83.61,41.81,84.14,42.4,84.28,43.12Z"/><path class="cls-6" d="M96.83,83.9c-17.15,3.79-24.51-5.72-24.51-5.72"/><path class="cls-7" d="M83.16,102c-2.62-2.41-13.92,1.16-24.9,9.52-15.51,11.82-40,17.58-34.11,21.52s8.93,3.42,17.41.25c8.85-3.34,17.8-5.74,29.74-17.46C78.21,109.08,80.1,105.87,83.16,102Z"/><path class="cls-8" d="M25,109.38c4.8-5.95,22.79-15.74,29.88-9.46s-3.27,32.25-3.27,32.25,26.29-5.08,25.15-3-13,3.28-13,3.28,14.65-.25,14.6,1.43-14.84,1-14.84,1,12.43,4,11.52,5.43-11.81-1.17-20.28-2.23-13,3.72-13.16.19S46.56,121,46.56,121s-8.63,17.82-19.73,15C8.54,131.29,21,114.44,25,109.38Z"/><path d="M104.9,66.35a1.27,1.27,0,1,1-1.41-1.11A1.27,1.27,0,0,1,104.9,66.35Z"/><path d="M109.75,64a1,1,0,0,1-.86,1.1,1,1,0,0,1-1.13-.86,1,1,0,0,1,2-.24Z"/><path class="cls-3" d="M72,97.18s6.11,21.08,9.62,24.07c2.84,2.41,4.26,1.42,4.26,1.42s9-2.22,7.57-.34-7.3,2.6-7.3,2.6,10.36,1.35,8.85,2.52-10.15.59-10.15.59,10.71,3.83,8.11,4.2c-3.63.52-12.75-1.68-13.89-3.84s-13-20.77-15.51-24.21S72,97.18,72,97.18Z"/></g><g class="cls-2"><path class="cls-3" d="M91,45.26a9.4,9.4,0,1,1-10.48-8.51A9.54,9.54,0,0,1,91,45.26Z"/><path class="cls-3" d="M62.74,52c1.36,6-3.13,10.43-8.39,11.06s-9.63-2.9-10.79-8.76c-1.07-5.41,3.18-9.92,8.42-11.06C57.54,42.06,61.5,46.64,62.74,52Z"/><path class="cls-3" d="M80.75,96.14s9,12.92,13,15.13c3.29,1.82,4.47.52,4.47.52s8.35-4,7.36-1.85S99,114,99,114s10.42-.74,9.17.69-9.83,2.6-9.83,2.6,11.28,1.63,8.8,2.5c-3.46,1.23-12.85.91-14.38-1S78.61,107,75.46,104.13,80.75,96.14,80.75,96.14Z"/><path class="cls-4" d="M89.11,45.49a7.48,7.48,0,1,1-8.34-6.75A7.6,7.6,0,0,1,89.11,45.49Z"/><path class="cls-3" d="M58.46,48.26c18.45-5,56.3-1,55.26,16.58-.88,14.44-16.88,19.09-16.88,19.09s-.82,16.43-21.4,20.28C66,121.93,48.29,134.48,29.9,135.57S-.25,119.79,9.37,96A53.66,53.66,0,0,1,38.23,66.5S41.65,52.8,58.46,48.26Z"/><path class="cls-5" d="M62.64,89.56c2.39,1.25,1.52,3.88-.93,2.7S60.18,88.26,62.64,89.56Z"/><path class="cls-5" d="M57.31,93.92c2.47,1.15,1.74,3.88-.8,2.82S54.82,92.77,57.31,93.92Z"/><path class="cls-5" d="M50.44,88.5c2.44,1.18,1.54,4.07-.92,3S47.94,87.29,50.44,88.5Z"/><path class="cls-5" d="M56.38,78.13c-2.35-1.4-1.05-4.28,1.26-2.79S58.73,79.49,56.38,78.13Z"/><path class="cls-5" d="M38.2,87c-2.52-1.09-1.47-4.43,1-3.25S40.69,88.13,38.2,87Z"/><path class="cls-5" d="M22,90.18l0-.52c.58-2.31,4.74-1.47,4.16.78A1.93,1.93,0,0,1,24,91.78a1.66,1.66,0,0,1-2.28,2.11C19.39,93.1,19.86,90,22,90.18Z"/><path class="cls-5" d="M37.15,77.62C34.74,76.41,36,73,38.41,74.35S39.6,78.83,37.15,77.62Z"/><path class="cls-5" d="M24.81,105.63a2.07,2.07,0,0,1-1.68-2.36,1.45,1.45,0,0,1-.06-.76c.38-2.29,4.56-1.74,4.2.46l-.29.66A1.61,1.61,0,0,1,24.81,105.63Z"/><path class="cls-5" d="M41.15,66.41c2.48-.36,4.05,3.26,1.66,3.66S38.61,66.82,41.15,66.41Z"/><path class="cls-5" d="M61.11,87c2.49-.61,4.27,3.12,1.78,3.7S58.58,87.66,61.11,87Z"/><path class="cls-5" d="M48.32,77.87c-2.49.78-4.39-3-1.82-3.76S50.78,77.12,48.32,77.87Z"/><path class="cls-5" d="M32.21,76.2c-2.41.71-4.48-2.82-2-3.51S34.64,75.57,32.21,76.2Z"/><path class="cls-5" d="M52.6,83.72c-2.34.45-4.43-2.82-2.1-3.3S54.93,83.33,52.6,83.72Z"/><path class="cls-5" d="M31,91.62c-2.34.87-4.71-2.36-2.35-3.24S33.37,90.8,31,91.62Z"/><path class="cls-5" d="M37.06,78.28c2.4-.6,4.46,2.79,2.11,3.39S34.67,78.94,37.06,78.28Z"/><path class="cls-5" d="M32.2,84.86c-2.42.86-4.55-2.66-2.07-3.53S34.63,84.06,32.2,84.86Z"/><path class="cls-5" d="M50.15,76.12c-2.36.4-4.31-3-1.89-3.44S52.49,75.75,50.15,76.12Z"/><path class="cls-5" d="M45.17,93.36l0,.22v0l0,.51a1.25,1.25,0,0,1-.59.78c.8,1.24-.09,2.82-2,2.11-1.6-.57-1.92-2-1.3-2.79a1.33,1.33,0,0,1-.21-1l.05-.09a1.08,1.08,0,0,1,.73-1.68A2.61,2.61,0,0,1,45.17,93.36Z"/><path class="cls-5" d="M20.2,85.93c-2.38,1-4.69-2.42-2.28-3.42S22.56,85,20.2,85.93Z"/><path class="cls-5" d="M57,67.57c2.38-.08,3.92,3.51,1.54,3.6S54.54,67.73,57,67.57Z"/><path class="cls-5" d="M17.56,95.87c-2.28,1.16-4.85-2.11-2.44-3.25S19.9,94.8,17.56,95.87Z"/><path class="cls-5" d="M56.24,88.51c2.25-.41,4.5,2.7,2.24,3.11S53.94,89,56.24,88.51Z"/><path class="cls-5" d="M32.82,100c-.52-1.22.36-2.68,2.17-2,2,.72,2,2.89.59,3.31A1.13,1.13,0,0,1,35,103c-2.21,1-4.89-2-2.6-3Z"/><path class="cls-5" d="M13.91,100c-.32,2.51-4.6,2.34-4.24-.29S14.29,97.51,13.91,100Z"/><path class="cls-5" d="M22.58,110.72c-.23,2.58-4.51,2.67-4.24,0S22.83,108.08,22.58,110.72Z"/><path class="cls-5" d="M19.07,105.18c-.29,2.33-4.54,2.13-4.24-.29S19.36,102.81,19.07,105.18Z"/><path class="cls-5" d="M34.75,94.07c-.52,2.08-4.63,1.38-4.16-.84S35.27,92,34.75,94.07Z"/><path class="cls-5" d="M17.56,113.14c-.18,2.35-4.43,2.41-4.24-.06S17.73,110.76,17.56,113.14Z"/><path class="cls-5" d="M12.67,107.48c0,2.61-4.19,3.11-4.22.33S12.76,104.85,12.67,107.48Z"/><path class="cls-5" d="M17.23,115.37c.11,2.85-4.08,3.64-4.22.62S17.2,112.53,17.23,115.37Z"/><path class="cls-5" d="M22.38,78.26c.73-2.45,4.86-1.41,4.12,1S21.65,80.73,22.38,78.26Z"/><path class="cls-4" d="M60.55,52.27c1.07,4.58-2.41,8.07-6.47,8.55S46.66,58.56,45.74,54c-.81-4.19,2.46-7.68,6.51-8.53C56.54,44.57,59.6,48.12,60.55,52.27Z"/><path d="M56,52.84a1.36,1.36,0,0,1-1.25,1.63,1.44,1.44,0,0,1-1.58-1.29,1.47,1.47,0,0,1,1.23-1.63C55.25,51.37,55.84,52,56,52.84Z"/><path d="M84.28,43.12a1.2,1.2,0,0,1-1.11,1.44A1.3,1.3,0,0,1,82.86,42C83.61,41.81,84.14,42.4,84.28,43.12Z"/><path class="cls-6" d="M96.83,83.9c-17.15,3.79-24.51-5.72-24.51-5.72"/><path class="cls-7" d="M83.16,102c-2.62-2.41-13.92,1.16-24.9,9.52-15.51,11.82-40,17.58-34.11,21.52s8.93,3.42,17.41.25c8.85-3.34,17.8-5.74,29.74-17.46C78.21,109.08,80.1,105.87,83.16,102Z"/><path class="cls-8" d="M25,109.38c4.8-5.95,22.79-15.74,29.88-9.46s-3.27,32.25-3.27,32.25,26.29-5.08,25.15-3-13,3.28-13,3.28,14.65-.25,14.6,1.43-14.84,1-14.84,1,12.43,4,11.52,5.43-11.81-1.17-20.28-2.23-13,3.72-13.16.19S46.56,121,46.56,121s-8.63,17.82-19.73,15C8.54,131.29,21,114.44,25,109.38Z"/><path d="M104.9,66.35a1.27,1.27,0,1,1-1.41-1.11A1.27,1.27,0,0,1,104.9,66.35Z"/><path d="M109.75,64a1,1,0,0,1-.86,1.1,1,1,0,0,1-1.13-.86,1,1,0,0,1,2-.24Z"/><path class="cls-3" d="M72,97.18s6.11,21.08,9.62,24.07c2.84,2.41,4.26,1.42,4.26,1.42s9-2.22,7.57-.34-7.3,2.6-7.3,2.6,10.36,1.35,8.85,2.52-10.15.59-10.15.59,10.71,3.83,8.11,4.2c-3.63.52-12.75-1.68-13.89-3.84s-13-20.77-15.51-24.21S72,97.18,72,97.18Z"/></g><g class="cls-2"><path class="cls-3" d="M91,45.26a9.4,9.4,0,1,1-10.48-8.51A9.54,9.54,0,0,1,91,45.26Z"/><path class="cls-3" d="M62.74,52c1.36,6-3.13,10.43-8.39,11.06s-9.63-2.9-10.79-8.76c-1.07-5.41,3.18-9.92,8.42-11.06C57.54,42.06,61.5,46.64,62.74,52Z"/><path class="cls-3" d="M80.75,96.14s9,12.92,13,15.13c3.29,1.82,4.47.52,4.47.52s8.35-4,7.36-1.85S99,114,99,114s10.42-.74,9.17.69-9.83,2.6-9.83,2.6,11.28,1.63,8.8,2.5c-3.46,1.23-12.85.91-14.38-1S78.61,107,75.46,104.13,80.75,96.14,80.75,96.14Z"/><path class="cls-4" d="M89.11,45.49a7.48,7.48,0,1,1-8.34-6.75A7.6,7.6,0,0,1,89.11,45.49Z"/><path class="cls-3" d="M58.46,48.26c18.45-5,56.3-1,55.26,16.58-.88,14.44-16.88,19.09-16.88,19.09s-.82,16.43-21.4,20.28C66,121.93,48.29,134.48,29.9,135.57S-.25,119.79,9.37,96A53.66,53.66,0,0,1,38.23,66.5S41.65,52.8,58.46,48.26Z"/><path class="cls-5" d="M62.64,89.56c2.39,1.25,1.52,3.88-.93,2.7S60.18,88.26,62.64,89.56Z"/><path class="cls-5" d="M57.31,93.92c2.47,1.15,1.74,3.88-.8,2.82S54.82,92.77,57.31,93.92Z"/><path class="cls-5" d="M50.44,88.5c2.44,1.18,1.54,4.07-.92,3S47.94,87.29,50.44,88.5Z"/><path class="cls-5" d="M56.38,78.13c-2.35-1.4-1.05-4.28,1.26-2.79S58.73,79.49,56.38,78.13Z"/><path class="cls-5" d="M38.2,87c-2.52-1.09-1.47-4.43,1-3.25S40.69,88.13,38.2,87Z"/><path class="cls-5" d="M22,90.18l0-.52c.58-2.31,4.74-1.47,4.16.78A1.93,1.93,0,0,1,24,91.78a1.66,1.66,0,0,1-2.28,2.11C19.39,93.1,19.86,90,22,90.18Z"/><path class="cls-5" d="M37.15,77.62C34.74,76.41,36,73,38.41,74.35S39.6,78.83,37.15,77.62Z"/><path class="cls-5" d="M24.81,105.63a2.07,2.07,0,0,1-1.68-2.36,1.45,1.45,0,0,1-.06-.76c.38-2.29,4.56-1.74,4.2.46l-.29.66A1.61,1.61,0,0,1,24.81,105.63Z"/><path class="cls-5" d="M41.15,66.41c2.48-.36,4.05,3.26,1.66,3.66S38.61,66.82,41.15,66.41Z"/><path class="cls-5" d="M61.11,87c2.49-.61,4.27,3.12,1.78,3.7S58.58,87.66,61.11,87Z"/><path class="cls-5" d="M48.32,77.87c-2.49.78-4.39-3-1.82-3.76S50.78,77.12,48.32,77.87Z"/><path class="cls-5" d="M32.21,76.2c-2.41.71-4.48-2.82-2-3.51S34.64,75.57,32.21,76.2Z"/><path class="cls-5" d="M52.6,83.72c-2.34.45-4.43-2.82-2.1-3.3S54.93,83.33,52.6,83.72Z"/><path class="cls-5" d="M31,91.62c-2.34.87-4.71-2.36-2.35-3.24S33.37,90.8,31,91.62Z"/><path class="cls-5" d="M37.06,78.28c2.4-.6,4.46,2.79,2.11,3.39S34.67,78.94,37.06,78.28Z"/><path class="cls-5" d="M32.2,84.86c-2.42.86-4.55-2.66-2.07-3.53S34.63,84.06,32.2,84.86Z"/><path class="cls-5" d="M50.15,76.12c-2.36.4-4.31-3-1.89-3.44S52.49,75.75,50.15,76.12Z"/><path class="cls-5" d="M45.17,93.36l0,.22v0l0,.51a1.25,1.25,0,0,1-.59.78c.8,1.24-.09,2.82-2,2.11-1.6-.57-1.92-2-1.3-2.79a1.33,1.33,0,0,1-.21-1l.05-.09a1.08,1.08,0,0,1,.73-1.68A2.61,2.61,0,0,1,45.17,93.36Z"/><path class="cls-5" d="M20.2,85.93c-2.38,1-4.69-2.42-2.28-3.42S22.56,85,20.2,85.93Z"/><path class="cls-5" d="M57,67.57c2.38-.08,3.92,3.51,1.54,3.6S54.54,67.73,57,67.57Z"/><path class="cls-5" d="M17.56,95.87c-2.28,1.16-4.85-2.11-2.44-3.25S19.9,94.8,17.56,95.87Z"/><path class="cls-5" d="M56.24,88.51c2.25-.41,4.5,2.7,2.24,3.11S53.94,89,56.24,88.51Z"/><path class="cls-5" d="M32.82,100c-.52-1.22.36-2.68,2.17-2,2,.72,2,2.89.59,3.31A1.13,1.13,0,0,1,35,103c-2.21,1-4.89-2-2.6-3Z"/><path class="cls-5" d="M13.91,100c-.32,2.51-4.6,2.34-4.24-.29S14.29,97.51,13.91,100Z"/><path class="cls-5" d="M22.58,110.72c-.23,2.58-4.51,2.67-4.24,0S22.83,108.08,22.58,110.72Z"/><path class="cls-5" d="M19.07,105.18c-.29,2.33-4.54,2.13-4.24-.29S19.36,102.81,19.07,105.18Z"/><path class="cls-5" d="M34.75,94.07c-.52,2.08-4.63,1.38-4.16-.84S35.27,92,34.75,94.07Z"/><path class="cls-5" d="M17.56,113.14c-.18,2.35-4.43,2.41-4.24-.06S17.73,110.76,17.56,113.14Z"/><path class="cls-5" d="M12.67,107.48c0,2.61-4.19,3.11-4.22.33S12.76,104.85,12.67,107.48Z"/><path class="cls-5" d="M17.23,115.37c.11,2.85-4.08,3.64-4.22.62S17.2,112.53,17.23,115.37Z"/><path class="cls-5" d="M22.38,78.26c.73-2.45,4.86-1.41,4.12,1S21.65,80.73,22.38,78.26Z"/><path class="cls-4" d="M60.55,52.27c1.07,4.58-2.41,8.07-6.47,8.55S46.66,58.56,45.74,54c-.81-4.19,2.46-7.68,6.51-8.53C56.54,44.57,59.6,48.12,60.55,52.27Z"/><path d="M56,52.84a1.36,1.36,0,0,1-1.25,1.63,1.44,1.44,0,0,1-1.58-1.29,1.47,1.47,0,0,1,1.23-1.63C55.25,51.37,55.84,52,56,52.84Z"/><path d="M84.28,43.12a1.2,1.2,0,0,1-1.11,1.44A1.3,1.3,0,0,1,82.86,42C83.61,41.81,84.14,42.4,84.28,43.12Z"/><path class="cls-6" d="M96.83,83.9c-17.15,3.79-24.51-5.72-24.51-5.72"/><path class="cls-7" d="M83.16,102c-2.62-2.41-13.92,1.16-24.9,9.52-15.51,11.82-40,17.58-34.11,21.52s8.93,3.42,17.41.25c8.85-3.34,17.8-5.74,29.74-17.46C78.21,109.08,80.1,105.87,83.16,102Z"/><path class="cls-8" d="M25,109.38c4.8-5.95,22.79-15.74,29.88-9.46s-3.27,32.25-3.27,32.25,26.29-5.08,25.15-3-13,3.28-13,3.28,14.65-.25,14.6,1.43-14.84,1-14.84,1,12.43,4,11.52,5.43-11.81-1.17-20.28-2.23-13,3.72-13.16.19S46.56,121,46.56,121s-8.63,17.82-19.73,15C8.54,131.29,21,114.44,25,109.38Z"/><path d="M104.9,66.35a1.27,1.27,0,1,1-1.41-1.11A1.27,1.27,0,0,1,104.9,66.35Z"/><path d="M109.75,64a1,1,0,0,1-.86,1.1,1,1,0,0,1-1.13-.86,1,1,0,0,1,2-.24Z"/><path class="cls-3" d="M72,97.18s6.11,21.08,9.62,24.07c2.84,2.41,4.26,1.42,4.26,1.42s9-2.22,7.57-.34-7.3,2.6-7.3,2.6,10.36,1.35,8.85,2.52-10.15.59-10.15.59,10.71,3.83,8.11,4.2c-3.63.52-12.75-1.68-13.89-3.84s-13-20.77-15.51-24.21S72,97.18,72,97.18Z"/></g></svg>