<svg id="Layer_1" data-name="Layer 1" xmlns="http://www.w3.org/2000/svg" xmlns:xlink="http://www.w3.org/1999/xlink" viewBox="0 0 118 118"><defs><style>.cls-1{fill:#c4c4c4;}.cls-2{mask:url(#mask);}.cls-3{fill:#a35625;}.cls-4{fill:#7a411b;}.cls-5{fill:#b7682a;}.cls-6{fill:#553838;}.cls-7{fill:#fff;}</style><mask id="mask" x="-35.21" y="3.49" width="183.95" height="154.57" maskUnits="userSpaceOnUse"><g id="mask0"><rect class="cls-1" x="-35.21" y="3.49" width="183.95" height="114.68"/></g></mask></defs><title>iconVenancio</title><g class="cls-2"><path class="cls-3" d="M9.58,127.68c.52.34,1,9.13,0,9.65-3.42,1.69-18,6.62-31.21-3.84-5-3.93-6.36-9.72-7.14-15.85,4.09,6.29,7.63,12.86,22.31,13.77C-3.2,131.64,5.85,129.14,9.58,127.68Z"/><path class="cls-4" d="M67.51,92.38c3.81,6,6.84,19,8.82,24.37,2,5.64,3.36,13.9,5.45,13,7-2.92,11.21,6.68,2.84,5.14,1.46.26,5,2.61,4.17,4.3-1.22,3-6.15.73-7.43-.91,2.09,2.68,3.49,5.71-1.85,5-4-.55-4.49-4.9-4.49-7.93-.28-6-8.31-24.3-11.94-34.18C59.3,90.73,65.72,89.51,67.51,92.38Z"/><path class="cls-4" d="M81.15,27.56c-1.9,1-5.68.6-7.09.81-3.91.6-6.91,2.58-7.3,6.77-.34,3.68-.13,8-.42,11.79-.13,1.64,1.57,2.4-.18,2.66-.78.13-3.57-.76-4.38-1-1.75-.5-2.24-.91-2.84-2.66-1.2-3.55-1.18-9.2-.58-12.8.68-4.2,2.51-7.8,6.52-9.7a20.41,20.41,0,0,1,12.39-1.33c1.59.31,3.65.47,4.45,2C82.72,26,82.25,27,81.15,27.56Z"/><path class="cls-3" d="M70,94.49c2.45,9.05,2.66,9.33,3.41,16.58.55,5.06,1.07,10.09,1.18,15.2A21,21,0,0,1,73.17,134a24.31,24.31,0,0,1-5.76,8.76c-7.3,6.65-17.81,4.83-27.35,4.83,1.41,1.64-28.06-4.8-30.35-6.13s-4.07-4-5.37-6.29c-2.58-4.56-2.66-11.91-2.5-17.07.44-12.6,5.29-37.11,30-57.55.39-11,10.15-16.55,12-18.17-2.77-2.16-7.38-6.08-10.88-5.71-5.13.7-8.89,6.54-14.7,4.9-7.59-2.22-2-7.69,2.37-11.11a18.55,18.55,0,0,1,15.38-3.88c4.49,1,13.46,10.66,14.34,13,3.6-.13,14.19-3,28.06,5.74C87,50.84,99.45,63,102.77,66.93c4.61,5.42,8.73,10.3,11.6,17,1.51,3.62,2.53,6.68-1.8,8.4-4.51,1.8-13-1.59-17.47-2.53-3.57-.76-15.46-3.71-18.64-4.64C74.76,89.33,72.18,92.87,70,94.49Z"/><path class="cls-5" d="M60.87,103.72c2.52,6.65,2.94,20,3.83,25.63.88,5.92.57,14.29,2.79,13.84,7.4-1.48,9.67,8.74,1.77,5.58,1.38.55,4.43,3.55,3.26,5-1.77,2.66-6.18-.49-7.12-2.37,1.51,3,2.3,6.29-2.79,4.51-3.75-1.3-3.41-5.71-2.84-8.65.89-5.92-3.39-25.45-5-35.88C53.15,100.48,59.67,100.54,60.87,103.72Z"/><path class="cls-5" d="M31.38,150.86c-1.2-1.8-11.4.83-18.65-2.24C2.8,144.39,1,128,1,122.83,1,116,1.52,113.05,2.8,110c3.94-3.37,10-2,14.16-.42,9.2,3.47,11.18,11.24,9.72,20.05-.83,4.95-1.33,8.24-2.21,13.19a.86.86,0,0,0,.83.91c7-.13,10.51-1.12,17.78,1.52,2,.73,6.16,2.11,5.56,4.87-1.07,3.81-5.11.52-6.44-.13,1.3,1.65,4.48,5.24.73,6.78-2.87,1.1-5.27-3.39-6.63-5.27,1.44,1.8,2.12,6.24-1.3,6.57C32.08,158.32,32.71,152.87,31.38,150.86Z"/><path class="cls-6" d="M95.2,89.87c.89-3.6,4.31-7.22,5.64-9.25,1.09-1.65,2.94-6.26,6-9.29,2.76,3.37,6.2,6.81,8,11.16,1.53,3.63,3.28,8.92-1,10.64C109.39,94.91,96,90,95.2,89.87Z"/><path class="cls-7" d="M65.79,47a15.38,15.38,0,0,1,3.39.84c5.43,2.27,7.43,11,.29,14.18a7.61,7.61,0,0,1-10.19-4.3C57.4,52.8,60.32,46.83,65.79,47Z"/><path d="M64,54.1c1.28.21,1.62,2.66-.21,2.61A1.32,1.32,0,1,1,64,54.1Z"/><path d="M67.91,79.05a14.48,14.48,0,0,1-7.33-2.37c-4-2.61-4.23-5.14-4.23-5.14s-2.05,9.57,2.33,10.88S67.91,79.05,67.91,79.05Z"/></g><g class="cls-2"><path class="cls-3" d="M9.58,127.68c.52.34,1,9.13,0,9.65-3.42,1.69-18,6.62-31.21-3.84-5-3.93-6.36-9.72-7.14-15.85,4.09,6.29,7.63,12.86,22.31,13.77C-3.2,131.64,5.85,129.14,9.58,127.68Z"/><path class="cls-4" d="M67.51,92.38c3.81,6,6.84,19,8.82,24.37,2,5.64,3.36,13.9,5.45,13,7-2.92,11.21,6.68,2.84,5.14,1.46.26,5,2.61,4.17,4.3-1.22,3-6.15.73-7.43-.91,2.09,2.68,3.49,5.71-1.85,5-4-.55-4.49-4.9-4.49-7.93-.28-6-8.31-24.3-11.94-34.18C59.3,90.73,65.72,89.51,67.51,92.38Z"/><path class="cls-4" d="M81.15,27.56c-1.9,1-5.68.6-7.09.81-3.91.6-6.91,2.58-7.3,6.77-.34,3.68-.13,8-.42,11.79-.13,1.64,1.57,2.4-.18,2.66-.78.13-3.57-.76-4.38-1-1.75-.5-2.24-.91-2.84-2.66-1.2-3.55-1.18-9.2-.58-12.8.68-4.2,2.51-7.8,6.52-9.7a20.41,20.41,0,0,1,12.39-1.33c1.59.31,3.65.47,4.45,2C82.72,26,82.25,27,81.15,27.56Z"/><path class="cls-3" d="M70,94.49c2.45,9.05,2.66,9.33,3.41,16.58.55,5.06,1.07,10.09,1.18,15.2A21,21,0,0,1,73.17,134a24.31,24.31,0,0,1-5.76,8.76c-7.3,6.65-17.81,4.83-27.35,4.83,1.41,1.64-28.06-4.8-30.35-6.13s-4.07-4-5.37-6.29c-2.58-4.56-2.66-11.91-2.5-17.07.44-12.6,5.29-37.11,30-57.55.39-11,10.15-16.55,12-18.17-2.77-2.16-7.38-6.08-10.88-5.71-5.13.7-8.89,6.54-14.7,4.9-7.59-2.22-2-7.69,2.37-11.11a18.55,18.55,0,0,1,15.38-3.88c4.49,1,13.46,10.66,14.34,13,3.6-.13,14.19-3,28.06,5.74C87,50.84,99.45,63,102.77,66.93c4.61,5.42,8.73,10.3,11.6,17,1.51,3.62,2.53,6.68-1.8,8.4-4.51,1.8-13-1.59-17.47-2.53-3.57-.76-15.46-3.71-18.64-4.64C74.76,89.33,72.18,92.87,70,94.49Z"/><path class="cls-5" d="M60.87,103.72c2.52,6.65,2.94,20,3.83,25.63.88,5.92.57,14.29,2.79,13.84,7.4-1.48,9.67,8.74,1.77,5.58,1.38.55,4.43,3.55,3.26,5-1.77,2.66-6.18-.49-7.12-2.37,1.51,3,2.3,6.29-2.79,4.51-3.75-1.3-3.41-5.71-2.84-8.65.89-5.92-3.39-25.45-5-35.88C53.15,100.48,59.67,100.54,60.87,103.72Z"/><path class="cls-5" d="M31.38,150.86c-1.2-1.8-11.4.83-18.65-2.24C2.8,144.39,1,128,1,122.83,1,116,1.52,113.05,2.8,110c3.94-3.37,10-2,14.16-.42,9.2,3.47,11.18,11.24,9.72,20.05-.83,4.95-1.33,8.24-2.21,13.19a.86.86,0,0,0,.83.91c7-.13,10.51-1.12,17.78,1.52,2,.73,6.16,2.11,5.56,4.87-1.07,3.81-5.11.52-6.44-.13,1.3,1.65,4.48,5.24.73,6.78-2.87,1.1-5.27-3.39-6.63-5.27,1.44,1.8,2.12,6.24-1.3,6.57C32.08,158.32,32.71,152.87,31.38,150.86Z"/><path class="cls-6" d="M95.2,89.87c.89-3.6,4.31-7.22,5.64-9.25,1.09-1.65,2.94-6.26,6-9.29,2.76,3.37,6.2,6.81,8,11.16,1.53,3.63,3.28,8.92-1,10.64C109.39,94.91,96,90,95.2,89.87Z"/><path class="cls-7" d="M65.79,47a15.38,15.38,0,0,1,3.39.84c5.43,2.27,7.43,11,.29,14.18a7.61,7.61,0,0,1-10.19-4.3C57.4,52.8,60.32,46.83,65.79,47Z"/><path d="M64,54.1c1.28.21,1.62,2.66-.21,2.61A1.32,1.32,0,1,1,64,54.1Z"/><path d="M67.91,79.05a14.48,14.48,0,0,1-7.33-2.37c-4-2.61-4.23-5.14-4.23-5.14s-2.05,9.57,2.33,10.88S67.91,79.05,67.91,79.05Z"/></g><g class="cls-2"><path class="cls-3" d="M9.58,127.68c.52.34,1,9.13,0,9.65-3.42,1.69-18,6.62-31.21-3.84-5-3.93-6.36-9.72-7.14-15.85,4.09,6.29,7.63,12.86,22.31,13.77C-3.2,131.64,5.85,129.14,9.58,127.68Z"/><path class="cls-4" d="M67.51,92.38c3.81,6,6.84,19,8.82,24.37,2,5.64,3.36,13.9,5.45,13,7-2.92,11.21,6.68,2.84,5.14,1.46.26,5,2.61,4.17,4.3-1.22,3-6.15.73-7.43-.91,2.09,2.68,3.49,5.71-1.85,5-4-.55-4.49-4.9-4.49-7.93-.28-6-8.31-24.3-11.94-34.18C59.3,90.73,65.72,89.51,67.51,92.38Z"/><path class="cls-4" d="M81.15,27.56c-1.9,1-5.68.6-7.09.81-3.91.6-6.91,2.58-7.3,6.77-.34,3.68-.13,8-.42,11.79-.13,1.64,1.57,2.4-.18,2.66-.78.13-3.57-.76-4.38-1-1.75-.5-2.24-.91-2.84-2.66-1.2-3.55-1.18-9.2-.58-12.8.68-4.2,2.51-7.8,6.52-9.7a20.41,20.41,0,0,1,12.39-1.33c1.59.31,3.65.47,4.45,2C82.72,26,82.25,27,81.15,27.56Z"/><path class="cls-3" d="M70,94.49c2.45,9.05,2.66,9.33,3.41,16.58.55,5.06,1.07,10.09,1.18,15.2A21,21,0,0,1,73.17,134a24.31,24.31,0,0,1-5.76,8.76c-7.3,6.65-17.81,4.83-27.35,4.83,1.41,1.64-28.06-4.8-30.35-6.13s-4.07-4-5.37-6.29c-2.58-4.56-2.66-11.91-2.5-17.07.44-12.6,5.29-37.11,30-57.55.39-11,10.15-16.55,12-18.17-2.77-2.16-7.38-6.08-10.88-5.71-5.13.7-8.89,6.54-14.7,4.9-7.59-2.22-2-7.69,2.37-11.11a18.55,18.55,0,0,1,15.38-3.88c4.49,1,13.46,10.66,14.34,13,3.6-.13,14.19-3,28.06,5.74C87,50.84,99.45,63,102.77,66.93c4.61,5.42,8.73,10.3,11.6,17,1.51,3.62,2.53,6.68-1.8,8.4-4.51,1.8-13-1.59-17.47-2.53-3.57-.76-15.46-3.71-18.64-4.64C74.76,89.33,72.18,92.87,70,94.49Z"/><path class="cls-5" d="M60.87,103.72c2.52,6.65,2.94,20,3.83,25.63.88,5.92.57,14.29,2.79,13.84,7.4-1.48,9.67,8.74,1.77,5.58,1.38.55,4.43,3.55,3.26,5-1.77,2.66-6.18-.49-7.12-2.37,1.51,3,2.3,6.29-2.79,4.51-3.75-1.3-3.41-5.71-2.84-8.65.89-5.92-3.39-25.45-5-35.88C53.15,100.48,59.67,100.54,60.87,103.72Z"/><path class="cls-5" d="M31.38,150.86c-1.2-1.8-11.4.83-18.65-2.24C2.8,144.39,1,128,1,122.83,1,116,1.52,113.05,2.8,110c3.94-3.37,10-2,14.16-.42,9.2,3.47,11.18,11.24,9.72,20.05-.83,4.95-1.33,8.24-2.21,13.19a.86.86,0,0,0,.83.91c7-.13,10.51-1.12,17.78,1.52,2,.73,6.16,2.11,5.56,4.87-1.07,3.81-5.11.52-6.44-.13,1.3,1.65,4.48,5.24.73,6.78-2.87,1.1-5.27-3.39-6.63-5.27,1.44,1.8,2.12,6.24-1.3,6.57C32.08,158.32,32.71,152.87,31.38,150.86Z"/><path class="cls-6" d="M95.2,89.87c.89-3.6,4.31-7.22,5.64-9.25,1.09-1.65,2.94-6.26,6-9.29,2.76,3.37,6.2,6.81,8,11.16,1.53,3.63,3.28,8.92-1,10.64C109.39,94.91,96,90,95.2,89.87Z"/><path class="cls-7" d="M65.79,47a15.38,15.38,0,0,1,3.39.84c5.43,2.27,7.43,11,.29,14.18a7.61,7.61,0,0,1-10.19-4.3C57.4,52.8,60.32,46.83,65.79,47Z"/><path d="M64,54.1c1.28.21,1.62,2.66-.21,2.61A1.32,1.32,0,1,1,64,54.1Z"/><path d="M67.91,79.05a14.48,14.48,0,0,1-7.33-2.37c-4-2.61-4.23-5.14-4.23-5.14s-2.05,9.57,2.33,10.88S67.91,79.05,67.91,79.05Z"/></g><g class="cls-2"><path class="cls-3" d="M9.58,127.68c.52.34,1,9.13,0,9.65-3.42,1.69-18,6.62-31.21-3.84-5-3.93-6.36-9.72-7.14-15.85,4.09,6.29,7.63,12.86,22.31,13.77C-3.2,131.64,5.85,129.14,9.58,127.68Z"/><path class="cls-4" d="M67.51,92.38c3.81,6,6.84,19,8.82,24.37,2,5.64,3.36,13.9,5.45,13,7-2.92,11.21,6.68,2.84,5.14,1.46.26,5,2.61,4.17,4.3-1.22,3-6.15.73-7.43-.91,2.09,2.68,3.49,5.71-1.85,5-4-.55-4.49-4.9-4.49-7.93-.28-6-8.31-24.3-11.94-34.18C59.3,90.73,65.72,89.51,67.51,92.38Z"/><path class="cls-4" d="M81.15,27.56c-1.9,1-5.68.6-7.09.81-3.91.6-6.91,2.58-7.3,6.77-.34,3.68-.13,8-.42,11.79-.13,1.64,1.57,2.4-.18,2.66-.78.13-3.57-.76-4.38-1-1.75-.5-2.24-.91-2.84-2.66-1.2-3.55-1.18-9.2-.58-12.8.68-4.2,2.51-7.8,6.52-9.7a20.41,20.41,0,0,1,12.39-1.33c1.59.31,3.65.47,4.45,2C82.72,26,82.25,27,81.15,27.56Z"/><path class="cls-3" d="M70,94.49c2.45,9.05,2.66,9.33,3.41,16.58.55,5.06,1.07,10.09,1.18,15.2A21,21,0,0,1,73.17,134a24.31,24.31,0,0,1-5.76,8.76c-7.3,6.65-17.81,4.83-27.35,4.83,1.41,1.64-28.06-4.8-30.35-6.13s-4.07-4-5.37-6.29c-2.58-4.56-2.66-11.91-2.5-17.07.44-12.6,5.29-37.11,30-57.55.39-11,10.15-16.55,12-18.17-2.77-2.16-7.38-6.08-10.88-5.71-5.13.7-8.89,6.54-14.7,4.9-7.59-2.22-2-7.69,2.37-11.11a18.55,18.55,0,0,1,15.38-3.88c4.49,1,13.46,10.66,14.34,13,3.6-.13,14.19-3,28.06,5.74C87,50.84,99.45,63,102.77,66.93c4.61,5.42,8.73,10.3,11.6,17,1.51,3.62,2.53,6.68-1.8,8.4-4.51,1.8-13-1.59-17.47-2.53-3.57-.76-15.46-3.71-18.64-4.64C74.76,89.33,72.18,92.87,70,94.49Z"/><path class="cls-5" d="M60.87,103.72c2.52,6.65,2.94,20,3.83,25.63.88,5.92.57,14.29,2.79,13.84,7.4-1.48,9.67,8.74,1.77,5.58,1.38.55,4.43,3.55,3.26,5-1.77,2.66-6.18-.49-7.12-2.37,1.51,3,2.3,6.29-2.79,4.51-3.75-1.3-3.41-5.71-2.84-8.65.89-5.92-3.39-25.45-5-35.88C53.15,100.48,59.67,100.54,60.87,103.72Z"/><path class="cls-5" d="M31.38,150.86c-1.2-1.8-11.4.83-18.65-2.24C2.8,144.39,1,128,1,122.83,1,116,1.52,113.05,2.8,110c3.94-3.37,10-2,14.16-.42,9.2,3.47,11.18,11.24,9.72,20.05-.83,4.95-1.33,8.24-2.21,13.19a.86.86,0,0,0,.83.91c7-.13,10.51-1.12,17.78,1.52,2,.73,6.16,2.11,5.56,4.87-1.07,3.81-5.11.52-6.44-.13,1.3,1.65,4.48,5.24.73,6.78-2.87,1.1-5.27-3.39-6.63-5.27,1.44,1.8,2.12,6.24-1.3,6.57C32.08,158.32,32.71,152.87,31.38,150.86Z"/><path class="cls-6" d="M95.2,89.87c.89-3.6,4.31-7.22,5.64-9.25,1.09-1.65,2.94-6.26,6-9.29,2.76,3.37,6.2,6.81,8,11.16,1.53,3.63,3.28,8.92-1,10.64C109.39,94.91,96,90,95.2,89.87Z"/><path class="cls-7" d="M65.79,47a15.38,15.38,0,0,1,3.39.84c5.43,2.27,7.43,11,.29,14.18a7.61,7.61,0,0,1-10.19-4.3C57.4,52.8,60.32,46.83,65.79,47Z"/><path d="M64,54.1c1.28.21,1.62,2.66-.21,2.61A1.32,1.32,0,1,1,64,54.1Z"/><path d="M67.91,79.05a14.48,14.48,0,0,1-7.33-2.37c-4-2.61-4.23-5.14-4.23-5.14s-2.05,9.57,2.33,10.88S67.91,79.05,67.91,79.05Z"/></g><g class="cls-2"><path class="cls-3" d="M9.58,127.68c.52.34,1,9.13,0,9.65-3.42,1.69-18,6.62-31.21-3.84-5-3.93-6.36-9.72-7.14-15.85,4.09,6.29,7.63,12.86,22.31,13.77C-3.2,131.64,5.85,129.14,9.58,127.68Z"/><path class="cls-4" d="M67.51,92.38c3.81,6,6.84,19,8.82,24.37,2,5.64,3.36,13.9,5.45,13,7-2.92,11.21,6.68,2.84,5.14,1.46.26,5,2.61,4.17,4.3-1.22,3-6.15.73-7.43-.91,2.09,2.68,3.49,5.71-1.85,5-4-.55-4.49-4.9-4.49-7.93-.28-6-8.31-24.3-11.94-34.18C59.3,90.73,65.72,89.51,67.51,92.38Z"/><path class="cls-4" d="M81.15,27.56c-1.9,1-5.68.6-7.09.81-3.91.6-6.91,2.58-7.3,6.77-.34,3.68-.13,8-.42,11.79-.13,1.64,1.57,2.4-.18,2.66-.78.13-3.57-.76-4.38-1-1.75-.5-2.24-.91-2.84-2.66-1.2-3.55-1.18-9.2-.58-12.8.68-4.2,2.51-7.8,6.52-9.7a20.41,20.41,0,0,1,12.39-1.33c1.59.31,3.65.47,4.45,2C82.72,26,82.25,27,81.15,27.56Z"/><path class="cls-3" d="M70,94.49c2.45,9.05,2.66,9.33,3.41,16.58.55,5.06,1.07,10.09,1.18,15.2A21,21,0,0,1,73.17,134a24.31,24.31,0,0,1-5.76,8.76c-7.3,6.65-17.81,4.83-27.35,4.83,1.41,1.64-28.06-4.8-30.35-6.13s-4.07-4-5.37-6.29c-2.58-4.56-2.66-11.91-2.5-17.07.44-12.6,5.29-37.11,30-57.55.39-11,10.15-16.55,12-18.17-2.77-2.16-7.38-6.08-10.88-5.71-5.13.7-8.89,6.54-14.7,4.9-7.59-2.22-2-7.69,2.37-11.11a18.55,18.55,0,0,1,15.38-3.88c4.49,1,13.46,10.66,14.34,13,3.6-.13,14.19-3,28.06,5.74C87,50.84,99.45,63,102.77,66.93c4.61,5.42,8.73,10.3,11.6,17,1.51,3.62,2.53,6.68-1.8,8.4-4.51,1.8-13-1.59-17.47-2.53-3.57-.76-15.46-3.71-18.64-4.64C74.76,89.33,72.18,92.87,70,94.49Z"/><path class="cls-5" d="M60.87,103.72c2.52,6.65,2.94,20,3.83,25.63.88,5.92.57,14.29,2.79,13.84,7.4-1.48,9.67,8.74,1.77,5.58,1.38.55,4.43,3.55,3.26,5-1.77,2.66-6.18-.49-7.12-2.37,1.51,3,2.3,6.29-2.79,4.51-3.75-1.3-3.41-5.71-2.84-8.65.89-5.92-3.39-25.45-5-35.88C53.15,100.48,59.67,100.54,60.87,103.72Z"/><path class="cls-5" d="M31.38,150.86c-1.2-1.8-11.4.83-18.65-2.24C2.8,144.39,1,128,1,122.83,1,116,1.52,113.05,2.8,110c3.94-3.37,10-2,14.16-.42,9.2,3.47,11.18,11.24,9.72,20.05-.83,4.95-1.33,8.24-2.21,13.19a.86.86,0,0,0,.83.91c7-.13,10.51-1.12,17.78,1.52,2,.73,6.16,2.11,5.56,4.87-1.07,3.81-5.11.52-6.44-.13,1.3,1.65,4.48,5.24.73,6.78-2.87,1.1-5.27-3.39-6.63-5.27,1.44,1.8,2.12,6.24-1.3,6.57C32.08,158.32,32.71,152.87,31.38,150.86Z"/><path class="cls-6" d="M95.2,89.87c.89-3.6,4.31-7.22,5.64-9.25,1.09-1.65,2.94-6.26,6-9.29,2.76,3.37,6.2,6.81,8,11.16,1.53,3.63,3.28,8.92-1,10.64C109.39,94.91,96,90,95.2,89.87Z"/><path class="cls-7" d="M65.79,47a15.38,15.38,0,0,1,3.39.84c5.43,2.27,7.43,11,.29,14.18a7.61,7.61,0,0,1-10.19-4.3C57.4,52.8,60.32,46.83,65.79,47Z"/><path d="M64,54.1c1.28.21,1.62,2.66-.21,2.61A1.32,1.32,0,1,1,64,54.1Z"/><path d="M67.91,79.05a14.48,14.48,0,0,1-7.33-2.37c-4-2.61-4.23-5.14-4.23-5.14s-2.05,9.57,2.33,10.88S67.91,79.05,67.91,79.05Z"/></g></svg>