<?xml version="1.0" encoding="utf-8"?>
<!-- Generator: Adobe Illustrator 14.0.0, SVG Export Plug-In . SVG Version: 6.00 Build 43363)  -->
<!DOCTYPE svg PUBLIC "-//W3C//DTD SVG 1.1//EN" "http://www.w3.org/Graphics/SVG/1.1/DTD/svg11.dtd">
<svg version="1.1" id="Layer_1" xmlns="http://www.w3.org/2000/svg" xmlns:xlink="http://www.w3.org/1999/xlink" x="0px" y="0px"
	 width="118.762px" height="120px" viewBox="0 0 118.762 120" enable-background="new 0 0 118.762 120" xml:space="preserve">
<rect x="-1292.442" y="323.275" fill="none" width="498.374" height="385.23"/>
<rect x="-925.448" y="216.631" fill="none" width="7.423" height="6.297"/>
<rect x="204.648" y="-323.086" fill="none" width="51.386" height="6.785"/>
<rect x="204.648" y="-323.086" fill="none" width="51.386" height="6.785"/>
<rect x="204.648" y="-323.086" fill="none" width="51.386" height="6.785"/>
<rect x="204.648" y="-323.086" fill="none" width="51.386" height="6.785"/>
<rect x="204.648" y="-323.086" fill="none" width="51.386" height="6.785"/>
<rect x="204.648" y="-323.086" fill="none" width="51.386" height="6.785"/>
<rect x="204.648" y="-323.086" fill="none" width="51.386" height="6.785"/>
<rect x="204.648" y="-323.086" fill="none" width="51.386" height="6.785"/>
<rect x="204.648" y="-323.086" fill="none" width="51.386" height="6.785"/>
<rect x="204.648" y="-323.086" fill="none" width="51.386" height="6.785"/>
<rect x="204.648" y="-323.086" fill="none" width="51.386" height="6.785"/>
<rect x="204.648" y="-323.086" fill="none" width="51.386" height="6.785"/>
<rect x="353.43" y="-322.857" fill="none" width="55.035" height="7.775"/>
<rect x="353.43" y="-322.857" fill="none" width="55.035" height="7.775"/>
<rect x="353.43" y="-322.857" fill="none" width="55.035" height="7.775"/>
<rect x="353.43" y="-322.857" fill="none" width="55.035" height="7.775"/>
<rect x="353.43" y="-322.857" fill="none" width="55.035" height="7.775"/>
<rect x="353.43" y="-322.857" fill="none" width="55.035" height="7.775"/>
<rect x="353.43" y="-322.857" fill="none" width="55.035" height="7.775"/>
<rect x="353.43" y="-322.857" fill="none" width="55.035" height="7.775"/>
<rect x="353.43" y="-322.857" fill="none" width="55.035" height="7.775"/>
<rect x="353.43" y="-322.857" fill="none" width="55.035" height="7.775"/>
<rect x="353.43" y="-322.857" fill="none" width="55.035" height="7.775"/>
<rect x="353.43" y="-322.857" fill="none" width="55.035" height="7.775"/>
<rect x="499.74" y="-321.612" fill="none" width="59.418" height="7.028"/>
<rect x="499.74" y="-321.612" fill="none" width="59.418" height="7.028"/>
<rect x="499.74" y="-321.612" fill="none" width="59.418" height="7.028"/>
<rect x="499.74" y="-321.612" fill="none" width="59.418" height="7.028"/>
<rect x="499.74" y="-321.612" fill="none" width="59.418" height="7.028"/>
<rect x="499.74" y="-321.612" fill="none" width="59.418" height="7.028"/>
<rect x="499.74" y="-321.612" fill="none" width="59.418" height="7.028"/>
<rect x="499.74" y="-321.612" fill="none" width="59.418" height="7.028"/>
<rect x="499.74" y="-321.612" fill="none" width="59.418" height="7.028"/>
<rect x="499.74" y="-321.612" fill="none" width="59.418" height="7.028"/>
<rect x="499.74" y="-321.612" fill="none" width="59.418" height="7.028"/>
<rect x="499.74" y="-321.612" fill="none" width="59.418" height="7.028"/>
<rect x="243.653" y="-393.964" fill="none" width="26.021" height="42.061"/>
<rect x="149.121" y="-354.617" fill="none" width="32.581" height="19.376"/>
<rect x="503.981" y="-414.334" fill="none" width="7.425" height="6.297"/>
<rect x="503.981" y="-414.334" fill="none" width="7.425" height="6.297"/>
<rect x="742.727" y="-194.119" fill="none" width="59.418" height="7.028"/>
<rect x="742.727" y="-194.119" fill="none" width="59.418" height="7.028"/>
<rect x="742.727" y="-194.119" fill="none" width="59.418" height="7.028"/>
<rect x="742.727" y="-194.119" fill="none" width="59.418" height="7.028"/>
<rect x="742.727" y="-194.119" fill="none" width="59.418" height="7.028"/>
<rect x="742.727" y="-194.119" fill="none" width="59.418" height="7.028"/>
<rect x="742.727" y="-194.119" fill="none" width="59.418" height="7.028"/>
<rect x="742.727" y="-194.119" fill="none" width="59.418" height="7.028"/>
<rect x="742.727" y="-194.119" fill="none" width="59.418" height="7.028"/>
<rect x="742.727" y="-194.119" fill="none" width="59.418" height="7.028"/>
<rect x="742.727" y="-194.119" fill="none" width="59.418" height="7.028"/>
<rect x="742.727" y="-194.119" fill="none" width="59.418" height="7.028"/>
<rect x="746.968" y="-286.841" fill="none" width="7.423" height="6.297"/>
<rect x="746.968" y="-286.841" fill="none" width="7.423" height="6.297"/>
<rect x="-1379.76" y="776.013" fill="none" width="541.416" height="696.188"/>
<rect x="-1404.258" y="750.384" fill="none" width="590.407" height="746.313"/>
<rect x="-1404.258" y="750.384" fill="none" width="590.407" height="746.313"/>
<rect x="-1512.026" y="-487.225" transform="matrix(-0.9941 -0.1081 0.1081 -0.9941 -2218.0325 -81.4099)" fill="none" width="801.606" height="1013.281"/>
<rect x="-1148.334" y="-1207.196" fill="none" width="541.416" height="696.188"/>
<path id="XMLID_19_" opacity="0.32" enable-background="new    " d="M98.365,116.855H20.397c-8.395,0-15.264-6.869-15.264-15.266
	V23.623c0-8.396,6.869-15.264,15.264-15.264h77.971c8.395,0,15.264,6.867,15.264,15.264v77.969
	C113.629,109.986,106.76,116.855,98.365,116.855z"/>
<path id="XMLID_18_" d="M98.365,111.641H20.397c-8.395,0-15.264-6.869-15.264-15.264v-77.97c0-8.396,6.869-15.263,15.264-15.263
	h77.971c8.395,0,15.264,6.867,15.264,15.263v77.97C113.629,104.771,106.76,111.641,98.365,111.641z"/>
<path fill="#ED1C24" d="M79.104,53.288h6.344V42.177c0-1.596-1.35-2.891-3.018-2.891H66.395v-6.82c0-3.709-3.139-6.717-7.014-6.717
	c-3.874,0-7.013,3.008-7.013,6.717v6.82H36.334c-1.669,0-3.02,1.295-3.02,2.891v11.111h6.28c3.875,0,7.018,3.005,7.018,6.714
	s-3.143,6.714-7.018,6.714h-6.28v11.111c0,1.594,1.351,2.889,3.02,2.889h16.034v6.822c0,3.709,3.139,6.713,7.013,6.713
	c3.875,0,7.014-3.004,7.014-6.713v-6.822H82.43c1.668,0,3.018-1.295,3.018-2.889V66.716h-6.344c-3.875,0-7.016-3.005-7.016-6.714
	S75.229,53.288,79.104,53.288z"/>
</svg>
