<?xml version="1.0" encoding="utf-8"?>
<!-- Generator: Adobe Illustrator 23.0.1, SVG Export Plug-In . SVG Version: 6.00 Build 0)  -->
<svg version="1.1" id="Layer_1" xmlns="http://www.w3.org/2000/svg" xmlns:xlink="http://www.w3.org/1999/xlink" x="0px" y="0px"
	 viewBox="0 0 590.4 283.3" style="enable-background:new 0 0 590.4 283.3;" xml:space="preserve">
<style type="text/css">
	.st0{fill:none;}
	.st1{fill:#F7941E;}
	.st2{fill:#FFFFFF;}
	.st3{fill:#231F20;}
</style>
<rect x="-1292.4" y="-139.7" class="st0" width="498.4" height="385.2"/>
<rect x="-925.4" y="-246.4" class="st0" width="7.4" height="6.3"/>
<rect x="204.6" y="-786.1" class="st0" width="51.4" height="6.8"/>
<rect x="204.6" y="-786.1" class="st0" width="51.4" height="6.8"/>
<rect x="204.6" y="-786.1" class="st0" width="51.4" height="6.8"/>
<rect x="204.6" y="-786.1" class="st0" width="51.4" height="6.8"/>
<rect x="204.6" y="-786.1" class="st0" width="51.4" height="6.8"/>
<rect x="204.6" y="-786.1" class="st0" width="51.4" height="6.8"/>
<rect x="204.6" y="-786.1" class="st0" width="51.4" height="6.8"/>
<rect x="204.6" y="-786.1" class="st0" width="51.4" height="6.8"/>
<rect x="204.6" y="-786.1" class="st0" width="51.4" height="6.8"/>
<rect x="204.6" y="-786.1" class="st0" width="51.4" height="6.8"/>
<rect x="204.6" y="-786.1" class="st0" width="51.4" height="6.8"/>
<rect x="204.6" y="-786.1" class="st0" width="51.4" height="6.8"/>
<rect x="353.4" y="-785.9" class="st0" width="55" height="7.8"/>
<rect x="353.4" y="-785.9" class="st0" width="55" height="7.8"/>
<rect x="353.4" y="-785.9" class="st0" width="55" height="7.8"/>
<rect x="353.4" y="-785.9" class="st0" width="55" height="7.8"/>
<rect x="353.4" y="-785.9" class="st0" width="55" height="7.8"/>
<rect x="353.4" y="-785.9" class="st0" width="55" height="7.8"/>
<rect x="353.4" y="-785.9" class="st0" width="55" height="7.8"/>
<rect x="353.4" y="-785.9" class="st0" width="55" height="7.8"/>
<rect x="353.4" y="-785.9" class="st0" width="55" height="7.8"/>
<rect x="353.4" y="-785.9" class="st0" width="55" height="7.8"/>
<rect x="353.4" y="-785.9" class="st0" width="55" height="7.8"/>
<rect x="353.4" y="-785.9" class="st0" width="55" height="7.8"/>
<rect x="499.7" y="-784.6" class="st0" width="59.4" height="7"/>
<rect x="499.7" y="-784.6" class="st0" width="59.4" height="7"/>
<rect x="499.7" y="-784.6" class="st0" width="59.4" height="7"/>
<rect x="499.7" y="-784.6" class="st0" width="59.4" height="7"/>
<rect x="499.7" y="-784.6" class="st0" width="59.4" height="7"/>
<rect x="499.7" y="-784.6" class="st0" width="59.4" height="7"/>
<rect x="499.7" y="-784.6" class="st0" width="59.4" height="7"/>
<rect x="499.7" y="-784.6" class="st0" width="59.4" height="7"/>
<rect x="499.7" y="-784.6" class="st0" width="59.4" height="7"/>
<rect x="499.7" y="-784.6" class="st0" width="59.4" height="7"/>
<rect x="499.7" y="-784.6" class="st0" width="59.4" height="7"/>
<rect x="499.7" y="-784.6" class="st0" width="59.4" height="7"/>
<rect x="243.7" y="-857" class="st0" width="26" height="42.1"/>
<rect x="149.1" y="-817.6" class="st0" width="32.6" height="19.4"/>
<rect x="504" y="-877.3" class="st0" width="7.4" height="6.3"/>
<rect x="504" y="-877.3" class="st0" width="7.4" height="6.3"/>
<rect x="742.7" y="-657.1" class="st0" width="59.4" height="7"/>
<rect x="742.7" y="-657.1" class="st0" width="59.4" height="7"/>
<rect x="742.7" y="-657.1" class="st0" width="59.4" height="7"/>
<rect x="742.7" y="-657.1" class="st0" width="59.4" height="7"/>
<rect x="742.7" y="-657.1" class="st0" width="59.4" height="7"/>
<rect x="742.7" y="-657.1" class="st0" width="59.4" height="7"/>
<rect x="742.7" y="-657.1" class="st0" width="59.4" height="7"/>
<rect x="742.7" y="-657.1" class="st0" width="59.4" height="7"/>
<rect x="742.7" y="-657.1" class="st0" width="59.4" height="7"/>
<rect x="742.7" y="-657.1" class="st0" width="59.4" height="7"/>
<rect x="742.7" y="-657.1" class="st0" width="59.4" height="7"/>
<rect x="742.7" y="-657.1" class="st0" width="59.4" height="7"/>
<rect x="747" y="-749.8" class="st0" width="7.4" height="6.3"/>
<rect x="747" y="-749.8" class="st0" width="7.4" height="6.3"/>
<rect x="-1379.8" y="313" class="st0" width="541.4" height="696.2"/>
<rect x="-1404.3" y="287.4" class="st0" width="590.4" height="746.3"/>
<rect x="-1404.3" y="287.4" class="st0" width="590.4" height="746.3"/>
<rect x="-1617.9" y="-844.5" transform="matrix(0.1081 -0.9941 0.9941 0.1081 -550.1095 -1500.3423)" class="st0" width="1013.4" height="801.7"/>
<rect x="-1148.3" y="-1670.2" class="st0" width="541.4" height="696.2"/>
<g>
	<path class="st1" d="M582.8,283.3c3.2,0,4.9,0,6.5,0c4.5-5.7-39-28.5-39-28.5s17.9-7.4,35.7-11.2c9-1.9-48.7-24.9-48.7-24.9
		s-2.1-2.9-3.5-20.3c-0.7-8.6-6.3-34.1-6.3-34.1s3.7-58.9,4.1-81.5c0.4-22.5-5.1-46.7-5.1-46.7s-42.9,42.4-63.2,68.7
		c-14.8,19.1-25.4,42.2-25.4,42.2s-56.3-9.2-112.4-7.6c-23.4,0.7-50.5,25.2-83,46.7c-25.3,16.7-102.4,39.1-116.4,43.3
		c-24,7.1-100.7,34.4-98.8,52.2c0.1,0.5,0.1,1,0.2,1.6"/>
	<path class="st1" d="M291.2,153.9c0,0,15.2-38.4,23.2-58.5c8-20.1,32.4-69.2,35.1-67c2.6,2.2,14.5,16.9,19.7,46.4
		c5.2,29.5,8.9,67.9,8.9,67.9L291.2,153.9z"/>
	<g>
		<path class="st2" d="M464.4,157.2c0,0,41-55.1,42.9-49c1.9,6,6.2,56.8,6.2,56.8s-18.8-5.5-25.4-6
			C481.6,158.5,464.4,157.2,464.4,157.2"/>
		<path class="st2" d="M344.9,92.4c3-2.9,5.5,2.1,8.2,11.3c2.7,9.2,9.5,34.2,9.5,34.2l-37.2,1.6C325.5,139.5,341.9,95.2,344.9,92.4"
			/>
	</g>
	<g>
		<path class="st2" d="M436.6,231.6c2.2,20.3-16,45-39.8,47.6c-17.9,1.9-40.5-14.9-33.1-43.2c6.8-26,21.1-32.7,39.9-32.2
			C421.6,204.1,434.4,211.3,436.6,231.6"/>
		<path class="st2" d="M305.4,194.8c1.6,14.7-10.7,32.5-26.9,34.3c-12.2,1.3-27.6-11-22.7-31.5c4.5-18.8,14.9-21.8,27.1-23.1
			C295,173.1,303.8,180.1,305.4,194.8"/>
		<path class="st3" d="M400,250.4c0.4,3.7,3.7,6.4,7.5,6c3.7-0.4,6.4-3.7,6-7.4c-0.4-3.7-3.7-6.4-7.4-6
			C402.3,243.4,399.6,246.7,400,250.4"/>
		<path class="st3" d="M278.6,204.9c0.3,3.2,3.2,5.4,6.4,5.1c3.2-0.3,5.5-3.2,5.1-6.3c-0.3-3.1-3.2-5.4-6.4-5.1
			C280.5,199,278.3,201.8,278.6,204.9"/>
	</g>
	<path class="st3" d="M82.8,283.3c-0.7-14.7-2.2-29.5-5.7-37c0,0-22,7.3-31.2,11c-18.1,7.3-41.3,16.1-44.4,26L82.8,283.3L82.8,283.3
		z"/>
</g>
</svg>
