<?xml version="1.0" encoding="utf-8"?>
<!-- Generator: Adobe Illustrator 14.0.0, SVG Export Plug-In . SVG Version: 6.00 Build 43363)  -->
<!DOCTYPE svg PUBLIC "-//W3C//DTD SVG 1.1//EN" "http://www.w3.org/Graphics/SVG/1.1/DTD/svg11.dtd">
<svg version="1.1" id="Layer_1" xmlns="http://www.w3.org/2000/svg" xmlns:xlink="http://www.w3.org/1999/xlink" x="0px" y="0px"
	 width="118.762px" height="120px" viewBox="0 0 118.762 120" enable-background="new 0 0 118.762 120" xml:space="preserve">
<symbol  id="ojo" viewBox="-76.145 -57.16 152.29 114.319">
	<path fill="none" stroke="#FAA300" stroke-width="10" d="M53.657-17.095L69.805-0.565c0,0-30.3,47.838-71.318,47.715
		C-42.495,47.272-70.14-0.565-70.14-0.565s34.959-45.359,68.626-42.82c18.592-0.469,35.641,10.488,35.641,10.488"/>
	<path fill="none" stroke="#FAA300" stroke-width="10" d="M25.597,0.866c0-14.047-11.387-25.434-25.433-25.434
		c-14.047,0-25.434,11.387-25.434,25.434S-13.883,26.3,0.164,26.3C14.21,26.3,25.597,14.913,25.597,0.866z"/>
	<path fill="none" stroke="#FAA300" stroke-width="10" d="M34.58-28.606C26.27-38.302,13.935-44.444,0.164-44.444
		c-25.024,0-45.311,20.285-45.311,45.311c0,25.023,20.286,45.311,45.311,45.311c25.023,0,45.31-20.287,45.31-45.311"/>
	<line fill="none" stroke="#FAA300" stroke-width="10" x1="-53.585" y1="53.624" x2="53.661" y2="-53.624"/>
</symbol>
<rect x="-1292.442" y="323.275" fill="none" width="498.374" height="385.23"/>
<rect x="-925.448" y="216.631" fill="none" width="7.423" height="6.297"/>
<rect x="204.648" y="-323.086" fill="none" width="51.386" height="6.785"/>
<rect x="204.648" y="-323.086" fill="none" width="51.386" height="6.785"/>
<rect x="204.648" y="-323.086" fill="none" width="51.386" height="6.785"/>
<rect x="204.648" y="-323.086" fill="none" width="51.386" height="6.785"/>
<rect x="204.648" y="-323.086" fill="none" width="51.386" height="6.785"/>
<rect x="204.648" y="-323.086" fill="none" width="51.386" height="6.785"/>
<rect x="204.648" y="-323.086" fill="none" width="51.386" height="6.785"/>
<rect x="204.648" y="-323.086" fill="none" width="51.386" height="6.785"/>
<rect x="204.648" y="-323.086" fill="none" width="51.386" height="6.785"/>
<rect x="204.648" y="-323.086" fill="none" width="51.386" height="6.785"/>
<rect x="204.648" y="-323.086" fill="none" width="51.386" height="6.785"/>
<rect x="204.648" y="-323.086" fill="none" width="51.386" height="6.785"/>
<rect x="353.43" y="-322.857" fill="none" width="55.035" height="7.775"/>
<rect x="353.43" y="-322.857" fill="none" width="55.035" height="7.775"/>
<rect x="353.43" y="-322.857" fill="none" width="55.035" height="7.775"/>
<rect x="353.43" y="-322.857" fill="none" width="55.035" height="7.775"/>
<rect x="353.43" y="-322.857" fill="none" width="55.035" height="7.775"/>
<rect x="353.43" y="-322.857" fill="none" width="55.035" height="7.775"/>
<rect x="353.43" y="-322.857" fill="none" width="55.035" height="7.775"/>
<rect x="353.43" y="-322.857" fill="none" width="55.035" height="7.775"/>
<rect x="353.43" y="-322.857" fill="none" width="55.035" height="7.775"/>
<rect x="353.43" y="-322.857" fill="none" width="55.035" height="7.775"/>
<rect x="353.43" y="-322.857" fill="none" width="55.035" height="7.775"/>
<rect x="353.43" y="-322.857" fill="none" width="55.035" height="7.775"/>
<rect x="499.74" y="-321.612" fill="none" width="59.418" height="7.028"/>
<rect x="499.74" y="-321.612" fill="none" width="59.418" height="7.028"/>
<rect x="499.74" y="-321.612" fill="none" width="59.418" height="7.028"/>
<rect x="499.74" y="-321.612" fill="none" width="59.418" height="7.028"/>
<rect x="499.74" y="-321.612" fill="none" width="59.418" height="7.028"/>
<rect x="499.74" y="-321.612" fill="none" width="59.418" height="7.028"/>
<rect x="499.74" y="-321.612" fill="none" width="59.418" height="7.028"/>
<rect x="499.74" y="-321.612" fill="none" width="59.418" height="7.028"/>
<rect x="499.74" y="-321.612" fill="none" width="59.418" height="7.028"/>
<rect x="499.74" y="-321.612" fill="none" width="59.418" height="7.028"/>
<rect x="499.74" y="-321.612" fill="none" width="59.418" height="7.028"/>
<rect x="499.74" y="-321.612" fill="none" width="59.418" height="7.028"/>
<rect x="243.653" y="-393.964" fill="none" width="26.021" height="42.061"/>
<rect x="149.121" y="-354.617" fill="none" width="32.581" height="19.376"/>
<rect x="503.981" y="-414.334" fill="none" width="7.425" height="6.297"/>
<rect x="503.981" y="-414.334" fill="none" width="7.425" height="6.297"/>
<rect x="742.727" y="-194.119" fill="none" width="59.418" height="7.028"/>
<rect x="742.727" y="-194.119" fill="none" width="59.418" height="7.028"/>
<rect x="742.727" y="-194.119" fill="none" width="59.418" height="7.028"/>
<rect x="742.727" y="-194.119" fill="none" width="59.418" height="7.028"/>
<rect x="742.727" y="-194.119" fill="none" width="59.418" height="7.028"/>
<rect x="742.727" y="-194.119" fill="none" width="59.418" height="7.028"/>
<rect x="742.727" y="-194.119" fill="none" width="59.418" height="7.028"/>
<rect x="742.727" y="-194.119" fill="none" width="59.418" height="7.028"/>
<rect x="742.727" y="-194.119" fill="none" width="59.418" height="7.028"/>
<rect x="742.727" y="-194.119" fill="none" width="59.418" height="7.028"/>
<rect x="742.727" y="-194.119" fill="none" width="59.418" height="7.028"/>
<rect x="742.727" y="-194.119" fill="none" width="59.418" height="7.028"/>
<rect x="746.968" y="-286.841" fill="none" width="7.423" height="6.297"/>
<rect x="746.968" y="-286.841" fill="none" width="7.423" height="6.297"/>
<rect x="-1379.76" y="776.013" fill="none" width="541.416" height="696.188"/>
<rect x="-1404.258" y="750.384" fill="none" width="590.407" height="746.313"/>
<rect x="-1404.258" y="750.384" fill="none" width="590.407" height="746.313"/>
<rect x="-1512.026" y="-487.225" transform="matrix(-0.9941 -0.1081 0.1081 -0.9941 -2218.0325 -81.4099)" fill="none" width="801.606" height="1013.281"/>
<rect x="-1148.334" y="-1207.196" fill="none" width="541.416" height="696.188"/>
<path id="XMLID_19_" opacity="0.32" enable-background="new    " d="M98.365,116.855H20.397c-8.395,0-15.264-6.869-15.264-15.266
	V23.623c0-8.396,6.869-15.264,15.264-15.264h77.971c8.395,0,15.264,6.867,15.264,15.264v77.969
	C113.629,109.986,106.76,116.855,98.365,116.855z"/>
<path id="XMLID_18_" d="M98.365,111.641H20.397c-8.395,0-15.264-6.869-15.264-15.264v-77.97c0-8.396,6.869-15.263,15.264-15.263
	h77.971c8.395,0,15.264,6.867,15.264,15.263v77.97C113.629,104.771,106.76,111.641,98.365,111.641z"/>
<use xlink:href="#ojo"  width="152.29" height="114.319" id="XMLID_11_" x="-76.145" y="-57.16" transform="matrix(0.5189 0 0 -0.5189 59.3811 56.7549)" overflow="visible"/>
</svg>
