<?xml version="1.0" encoding="utf-8"?>
<!-- Generator: Adobe Illustrator 14.0.0, SVG Export Plug-In . SVG Version: 6.00 Build 43363)  -->
<!DOCTYPE svg PUBLIC "-//W3C//DTD SVG 1.1//EN" "http://www.w3.org/Graphics/SVG/1.1/DTD/svg11.dtd">
<svg version="1.1" id="Layer_1" xmlns="http://www.w3.org/2000/svg" xmlns:xlink="http://www.w3.org/1999/xlink" x="0px" y="0px"
	 width="118.762px" height="120px" viewBox="0 0 118.762 120" enable-background="new 0 0 118.762 120" xml:space="preserve">
<rect x="-1292.442" y="323.275" fill="none" width="498.374" height="385.229"/>
<rect x="-925.448" y="216.631" fill="none" width="7.423" height="6.297"/>
<rect x="204.648" y="-323.086" fill="none" width="51.387" height="6.785"/>
<rect x="204.648" y="-323.086" fill="none" width="51.387" height="6.785"/>
<rect x="204.648" y="-323.086" fill="none" width="51.387" height="6.785"/>
<rect x="204.648" y="-323.086" fill="none" width="51.387" height="6.785"/>
<rect x="204.648" y="-323.086" fill="none" width="51.387" height="6.785"/>
<rect x="204.648" y="-323.086" fill="none" width="51.387" height="6.785"/>
<rect x="204.648" y="-323.086" fill="none" width="51.387" height="6.785"/>
<rect x="204.648" y="-323.086" fill="none" width="51.387" height="6.785"/>
<rect x="204.648" y="-323.086" fill="none" width="51.387" height="6.785"/>
<rect x="204.648" y="-323.086" fill="none" width="51.387" height="6.785"/>
<rect x="204.648" y="-323.086" fill="none" width="51.387" height="6.785"/>
<rect x="204.648" y="-323.086" fill="none" width="51.387" height="6.785"/>
<rect x="353.43" y="-322.857" fill="none" width="55.035" height="7.775"/>
<rect x="353.43" y="-322.857" fill="none" width="55.035" height="7.775"/>
<rect x="353.43" y="-322.857" fill="none" width="55.035" height="7.775"/>
<rect x="353.43" y="-322.857" fill="none" width="55.035" height="7.775"/>
<rect x="353.43" y="-322.857" fill="none" width="55.035" height="7.775"/>
<rect x="353.43" y="-322.857" fill="none" width="55.035" height="7.775"/>
<rect x="353.43" y="-322.857" fill="none" width="55.035" height="7.775"/>
<rect x="353.43" y="-322.857" fill="none" width="55.035" height="7.775"/>
<rect x="353.43" y="-322.857" fill="none" width="55.035" height="7.775"/>
<rect x="353.43" y="-322.857" fill="none" width="55.035" height="7.775"/>
<rect x="353.43" y="-322.857" fill="none" width="55.035" height="7.775"/>
<rect x="353.43" y="-322.857" fill="none" width="55.035" height="7.775"/>
<rect x="499.74" y="-321.612" fill="none" width="59.418" height="7.028"/>
<rect x="499.74" y="-321.612" fill="none" width="59.418" height="7.028"/>
<rect x="499.74" y="-321.612" fill="none" width="59.418" height="7.028"/>
<rect x="499.74" y="-321.612" fill="none" width="59.418" height="7.028"/>
<rect x="499.74" y="-321.612" fill="none" width="59.418" height="7.028"/>
<rect x="499.74" y="-321.612" fill="none" width="59.418" height="7.028"/>
<rect x="499.74" y="-321.612" fill="none" width="59.418" height="7.028"/>
<rect x="499.74" y="-321.612" fill="none" width="59.418" height="7.028"/>
<rect x="499.74" y="-321.612" fill="none" width="59.418" height="7.028"/>
<rect x="499.74" y="-321.612" fill="none" width="59.418" height="7.028"/>
<rect x="499.74" y="-321.612" fill="none" width="59.418" height="7.028"/>
<rect x="499.74" y="-321.612" fill="none" width="59.418" height="7.028"/>
<rect x="243.653" y="-393.964" fill="none" width="26.021" height="42.061"/>
<rect x="149.121" y="-354.617" fill="none" width="32.581" height="19.376"/>
<rect x="503.981" y="-414.334" fill="none" width="7.426" height="6.297"/>
<rect x="503.981" y="-414.334" fill="none" width="7.426" height="6.297"/>
<rect x="742.727" y="-194.119" fill="none" width="59.418" height="7.028"/>
<rect x="742.727" y="-194.119" fill="none" width="59.418" height="7.028"/>
<rect x="742.727" y="-194.119" fill="none" width="59.418" height="7.028"/>
<rect x="742.727" y="-194.119" fill="none" width="59.418" height="7.028"/>
<rect x="742.727" y="-194.119" fill="none" width="59.418" height="7.028"/>
<rect x="742.727" y="-194.119" fill="none" width="59.418" height="7.028"/>
<rect x="742.727" y="-194.119" fill="none" width="59.418" height="7.028"/>
<rect x="742.727" y="-194.119" fill="none" width="59.418" height="7.028"/>
<rect x="742.727" y="-194.119" fill="none" width="59.418" height="7.028"/>
<rect x="742.727" y="-194.119" fill="none" width="59.418" height="7.028"/>
<rect x="742.727" y="-194.119" fill="none" width="59.418" height="7.028"/>
<rect x="742.727" y="-194.119" fill="none" width="59.418" height="7.028"/>
<rect x="746.968" y="-286.841" fill="none" width="7.423" height="6.297"/>
<rect x="746.968" y="-286.841" fill="none" width="7.423" height="6.297"/>
<rect x="-1379.76" y="776.013" fill="none" width="541.416" height="696.188"/>
<rect x="-1404.258" y="750.384" fill="none" width="590.406" height="746.313"/>
<rect x="-1404.258" y="750.384" fill="none" width="590.406" height="746.313"/>
<rect x="-1512.054" y="-487.208" transform="matrix(0.9941 0.1081 -0.1081 0.9941 -4.4139 120.246)" fill="none" width="801.575" height="1013.241"/>
<rect x="-1148.334" y="-1207.196" fill="none" width="541.416" height="696.188"/>
<path id="XMLID_19_" opacity="0.32" enable-background="new    " d="M98.365,116.855H20.397c-8.395,0-15.264-6.869-15.264-15.267
	V23.623c0-8.396,6.869-15.264,15.264-15.264h77.972c8.395,0,15.264,6.867,15.264,15.264v77.969
	C113.629,109.986,106.76,116.855,98.365,116.855z"/>
<path id="XMLID_18_" d="M98.365,111.641H20.397c-8.395,0-15.264-6.869-15.264-15.264v-77.97c0-8.396,6.869-15.263,15.264-15.263
	h77.972c8.395,0,15.264,6.867,15.264,15.263v77.97C113.629,104.771,106.76,111.641,98.365,111.641z"/>
<g id="Shape_1_copy_2_3_">
	<g id="XMLID_14_">
		<path id="XMLID_15_" fill="#44BFAF" d="M53.193,58.598c3.098-2.827,0.943-5.654-1.481-7c-2.559-1.348-5.79-1.617-8.885-0.675
			c-0.944,0.404-1.886,0.809-2.963,1.212c1.211-0.808,2.154-2.154,3.903-2.692c2.963-1.077,8.349-1.077,7.137-5.52
			c-1.616-5.656-10.503-1.212-14.542,1.48c0,0,0-0.135-0.135-0.135c0.403-0.538,0.809-1.48,1.615-2.288
			c2.424-2.559,6.061-3.501,2.021-7.945c-4.444-2.559-9.561,5.656-10.907,8.348c0-0.943,0.135-2.423,0.538-3.904
			c0.539-2.289,1.481-4.578,0.27-5.924c-3.904-4.444-7.136,2.019-7.54,4.847c-0.539,3.636-0.942,7.675-0.539,11.445
			c0.405,3.904,1.751,4.713,2.289,7.675c0.137,3.905,0.137,7.675,0.271,11.581c-0.674,2.557-4.31,4.846-4.04,7.404
			c0.135,1.616,4.712,5.521,5.521,6.06c2.559,1.614,8.482,5.521,10.502,2.289c2.02-3.232,2.289-3.232,4.31-6.194
			c4.309-2.154,10.502-2.154,14.676-5.655s4.174-11.175,2.693-13.33C56.29,57.655,54.943,58.059,53.193,58.598z M52.52,62.906
			c-0.135,1.482-1.751,5.521-5.252,6.464c-4.039,1.077-8.752-5.117-5.521-9.156c2.02-2.559,5.251-3.501,7.002-2.423
			c1.885,1.211,2.692,1.48,4.039,1.211C51.711,60.617,52.52,61.426,52.52,62.906z M94.395,68.967
			c0.134-3.906,0.134-7.676,0.27-11.58c0.673-2.963,1.885-3.77,2.423-7.676c0.405-3.904,0.136-7.809-0.404-11.445
			c-0.402-2.827-3.769-9.291-7.674-4.847c-1.077,1.346-0.27,3.636,0.27,5.925c0.403,1.481,0.538,2.961,0.538,3.904
			c-1.481-2.693-6.462-11.041-10.905-8.348c-4.04,4.443-0.405,5.25,2.019,7.944c0.674,0.808,1.076,1.885,1.616,2.289
			c0,0,0,0.134-0.136,0.134c-4.039-2.693-13.06-7.137-14.677-1.48c-1.21,4.443,4.176,4.443,7.138,5.521
			c1.75,0.672,2.827,1.883,3.903,2.691c-0.941-0.402-2.018-0.809-2.962-1.211c-3.097-0.809-6.462-0.674-8.886,0.674
			c-2.425,1.346-4.713,4.174-1.481,7c-1.749-0.538-3.098-0.942-4.578,1.212c-1.481,2.155-1.481,9.829,2.693,13.33
			c4.173,3.501,10.368,3.501,14.677,5.655c2.02,2.962,2.288,2.962,4.309,6.194c2.02,3.231,7.944-0.675,10.502-2.289
			c0.943-0.539,5.387-4.443,5.521-6.06C98.703,73.813,95.203,71.524,94.395,68.967z M71.236,69.235
			c-3.502-0.942-5.252-4.982-5.252-6.463c0-1.481,0.673-2.289-0.27-4.04c1.213,0.405,2.155,0,4.041-1.212
			c1.885-1.212,5.116-0.134,7.002,2.423C79.989,63.984,75.41,70.178,71.236,69.235z"/>
	</g>
</g>
</svg>
