<svg width="442" height="108" viewBox="0 0 442 108" fill="none" xmlns="http://www.w3.org/2000/svg">
<path d="M442 108L37.444 108L4 74.5L37.444 41L442 41L442 108Z" fill="#F3DF00"/>
<path d="M437.5 101.5L33.6514 101.5L0.706515 68.5L33.6514 35.5L437.5 35.5L437.5 101.5Z" fill="black" stroke="#F3DF00"/>
<mask id="mask0" mask-type="alpha" maskUnits="userSpaceOnUse" x="3" y="0" width="162" height="101">
<rect x="3" width="162" height="101" fill="#C4C4C4"/>
</mask>
<g mask="url(#mask0)">
<path d="M42.4462 109.368C42.9054 109.667 43.2958 117.405 42.4462 117.864C39.4381 119.357 26.5793 123.697 14.9604 114.489C10.5746 111.021 9.35757 105.924 8.6687 100.528C12.2738 106.062 15.3967 111.848 28.3244 112.652C31.1947 112.858 39.1626 110.654 42.4462 109.368Z" fill="#A35625"/>
<path d="M93.4686 78.2771C96.8211 83.5814 99.4847 95.0396 101.23 99.7468C103.021 104.707 104.192 111.986 106.029 111.228C112.16 108.656 115.903 117.106 108.532 115.752C109.818 115.981 112.964 118.048 112.206 119.54C111.127 122.158 106.787 120.183 105.662 118.737C107.499 121.102 108.738 123.765 104.031 123.122C100.541 122.64 100.082 118.806 100.082 116.142C99.8292 110.861 92.7567 94.7411 89.565 86.0384C86.2354 76.8305 91.8842 75.7513 93.4686 78.2771Z" fill="#7A411B"/>
<path d="M105.478 21.1927C103.802 22.0653 100.472 21.721 99.2321 21.9047C95.7878 22.4328 93.147 24.1779 92.8026 27.8748C92.5041 31.1125 92.6878 34.9243 92.4352 38.2538C92.3204 39.7005 93.813 40.3663 92.2745 40.5959C91.5856 40.7107 89.1287 39.93 88.4168 39.7233C86.8784 39.287 86.442 38.9197 85.9139 37.3813C84.8576 34.2584 84.8806 29.2755 85.4088 26.1067C86.0058 22.4097 87.6132 19.241 91.1494 17.5648C94.4559 15.9804 98.4743 15.7048 102.056 16.3937C103.457 16.6692 105.271 16.807 105.983 18.1618C106.856 19.8151 106.442 20.6875 105.478 21.1927Z" fill="#7A411B"/>
<path d="M95.6728 80.1371C97.8313 88.105 98.015 88.3576 98.6809 94.7411C99.1631 99.1958 99.6224 103.628 99.7142 108.128C99.7602 110.401 99.278 112.835 98.4513 114.971C97.3721 117.726 95.558 120.688 93.3766 122.686C86.9472 128.542 77.6934 126.934 69.2892 126.934C70.5291 128.381 44.5818 122.709 42.5611 121.538C40.5175 120.344 38.9789 118.025 37.8308 116.004C35.5575 111.986 35.4887 105.51 35.6265 100.964C36.0168 89.8731 40.2878 68.2885 62.0102 50.2861C62.3546 40.6189 70.9425 35.7049 72.5269 34.2813C70.0929 32.3754 66.0285 28.931 62.9515 29.2525C58.428 29.8725 55.1215 35.0161 50.0009 33.5694C43.3189 31.6176 48.2787 26.7955 52.0904 23.7875C55.9251 20.7564 60.908 19.3098 65.6382 20.3661C69.5878 21.2616 77.4868 29.7577 78.2675 31.8243C81.4363 31.7095 90.759 29.2066 102.975 36.876C110.644 41.6981 121.597 52.4216 124.514 55.8659C128.578 60.6421 132.206 64.936 134.732 70.8832C136.064 74.075 136.959 76.7616 133.147 78.2772C129.175 79.8616 121.689 76.8764 117.763 76.0497C114.617 75.3838 104.146 72.7892 101.345 71.9625C99.8521 75.5906 97.5787 78.7134 95.6728 80.1371Z" fill="#A35625"/>
<path d="M87.6133 88.2657C89.8406 94.1211 90.208 105.878 90.9887 110.838C91.7694 116.05 91.4939 123.421 93.4457 123.031C99.967 121.722 101.965 130.723 95.0071 127.945C96.2241 128.427 98.9107 131.067 97.8774 132.376C96.3159 134.718 92.4353 131.94 91.6087 130.287C92.9405 132.973 93.6294 135.821 89.1517 134.259C85.8451 133.111 86.1436 129.23 86.6488 126.636C87.4295 121.423 83.6637 104.225 82.286 95.0396C80.8164 85.4184 86.557 85.4643 87.6133 88.2657Z" fill="#B7682A"/>
<path d="M61.6429 129.782C60.5866 128.197 51.6083 130.517 45.2248 127.807C36.4761 124.087 34.8687 109.644 34.8687 105.097C34.8458 99.1041 35.351 96.4864 36.4761 93.7768C39.9434 90.8147 45.3166 92.0546 48.9446 93.4093C57.0503 96.4633 58.7954 103.306 57.5095 111.067C56.7747 115.43 56.3385 118.323 55.5578 122.686C55.4889 123.077 55.9023 123.49 56.2926 123.49C62.4924 123.375 65.5464 122.503 71.9529 124.822C73.721 125.465 77.3721 126.682 76.8439 129.116C75.9025 132.468 72.3432 129.575 71.1721 129.001C72.3203 130.448 75.1217 133.616 71.8152 134.971C69.2893 135.936 67.1767 131.986 65.9826 130.333C67.2456 131.917 67.8426 135.821 64.8345 136.119C62.2627 136.349 62.8139 131.55 61.6429 129.782Z" fill="#B7682A"/>
<path d="M117.855 76.0728C118.635 72.904 121.643 69.7122 122.814 67.9212C123.779 66.4746 125.409 62.4102 128.142 59.7466C130.576 62.7087 133.607 65.7397 135.214 69.5744C136.569 72.7662 138.107 77.4275 134.319 78.9431C130.346 80.5045 118.521 76.2105 117.855 76.0728Z" fill="#553838"/>
<path d="M91.9529 38.3457C92.8714 38.3457 94.9381 39.0806 94.9381 39.0806C99.7143 41.0783 101.482 48.7707 95.1907 51.5721C91.1264 53.3172 87.3375 50.8372 86.2124 47.7832C84.5591 43.4204 87.1308 38.162 91.9529 38.3457Z" fill="white"/>
<path d="M90.3916 44.5685C91.5168 44.7522 91.8154 46.9107 90.208 46.8648C88.371 46.727 88.7613 44.316 90.3916 44.5685Z" fill="black"/>
<path d="M93.8129 66.5433C93.8129 66.5433 90.5752 66.5663 87.3605 64.4538C83.8472 62.1575 83.6406 59.9303 83.6406 59.9303C83.6406 59.9303 81.8266 68.3574 85.6843 69.5055C89.5419 70.6536 93.8129 66.5433 93.8129 66.5433Z" fill="black"/>
</g>
<path d="M166.941 62.7227H169.998L165.145 77H161.844L157 62.7227H160.057L162.742 71.2188C162.892 71.7201 163.045 72.306 163.201 72.9766C163.364 73.6406 163.465 74.1029 163.504 74.3633C163.576 73.7643 163.82 72.7161 164.236 71.2188L166.941 62.7227ZM180.027 77H171.805V62.7227H180.027V65.2031H174.832V68.3379H179.666V70.8184H174.832V74.5H180.027V77ZM195.682 77H191.834L185.623 66.1992H185.535C185.659 68.1068 185.721 69.4674 185.721 70.2812V77H183.016V62.7227H186.834L193.035 73.416H193.104C193.006 71.5605 192.957 70.2487 192.957 69.4805V62.7227H195.682V77ZM208.025 77L206.99 73.6016H201.785L200.75 77H197.488L202.527 62.6641H206.229L211.287 77H208.025ZM206.268 71.0625C205.311 67.9831 204.77 66.2415 204.646 65.8379C204.529 65.4342 204.445 65.1152 204.393 64.8809C204.178 65.7142 203.562 67.7747 202.547 71.0625H206.268ZM225.76 77H221.912L215.701 66.1992H215.613C215.737 68.1068 215.799 69.4674 215.799 70.2812V77H213.094V62.7227H216.912L223.113 73.416H223.182C223.084 71.5605 223.035 70.2487 223.035 69.4805V62.7227H225.76V77ZM235.428 65.0371C234.288 65.0371 233.406 65.4668 232.781 66.3262C232.156 67.179 231.844 68.3704 231.844 69.9004C231.844 73.084 233.038 74.6758 235.428 74.6758C236.43 74.6758 237.645 74.4251 239.07 73.9238V76.4629C237.898 76.9512 236.59 77.1953 235.145 77.1953C233.068 77.1953 231.479 76.5671 230.379 75.3105C229.279 74.0475 228.729 72.2376 228.729 69.8809C228.729 68.3965 228.999 67.0977 229.539 65.9844C230.079 64.8646 230.854 64.0085 231.863 63.416C232.879 62.8171 234.067 62.5176 235.428 62.5176C236.814 62.5176 238.208 62.8529 239.607 63.5234L238.631 65.9844C238.097 65.7305 237.56 65.5091 237.02 65.3203C236.479 65.1315 235.949 65.0371 235.428 65.0371ZM242.117 77V62.7227H245.145V77H242.117ZM261.697 69.8418C261.697 72.2051 261.111 74.0215 259.939 75.291C258.768 76.5605 257.088 77.1953 254.9 77.1953C252.713 77.1953 251.033 76.5605 249.861 75.291C248.689 74.0215 248.104 72.1986 248.104 69.8223C248.104 67.446 248.689 65.6328 249.861 64.3828C251.04 63.1263 252.726 62.498 254.92 62.498C257.114 62.498 258.79 63.1296 259.949 64.3926C261.115 65.6556 261.697 67.472 261.697 69.8418ZM251.277 69.8418C251.277 71.4368 251.58 72.638 252.186 73.4453C252.791 74.2526 253.696 74.6562 254.9 74.6562C257.316 74.6562 258.523 73.0514 258.523 69.8418C258.523 66.6257 257.322 65.0176 254.92 65.0176C253.715 65.0176 252.807 65.4245 252.195 66.2383C251.583 67.0456 251.277 68.2467 251.277 69.8418ZM277.996 62.7227H281.053L276.199 77H272.898L268.055 62.7227H271.111L273.797 71.2188C273.947 71.7201 274.1 72.306 274.256 72.9766C274.419 73.6406 274.52 74.1029 274.559 74.3633C274.63 73.7643 274.874 72.7161 275.291 71.2188L277.996 62.7227ZM294.48 62.7227V71.9609C294.48 73.0156 294.243 73.9401 293.768 74.7344C293.299 75.5286 292.618 76.1374 291.727 76.5605C290.835 76.9837 289.78 77.1953 288.562 77.1953C286.727 77.1953 285.301 76.7266 284.285 75.7891C283.27 74.8451 282.762 73.556 282.762 71.9219V62.7227H285.779V71.4629C285.779 72.5632 286.001 73.3704 286.443 73.8848C286.886 74.3991 287.618 74.6562 288.641 74.6562C289.63 74.6562 290.346 74.3991 290.789 73.8848C291.238 73.3639 291.463 72.5501 291.463 71.4434V62.7227H294.48ZM306.199 77H297.977V62.7227H306.199V65.2031H301.004V68.3379H305.838V70.8184H301.004V74.5H306.199V77ZM309.188 77V62.7227H312.215V74.5H318.006V77H309.188ZM329.236 77L328.201 73.6016H322.996L321.961 77H318.699L323.738 62.6641H327.439L332.498 77H329.236ZM327.479 71.0625C326.521 67.9831 325.981 66.2415 325.857 65.8379C325.74 65.4342 325.656 65.1152 325.604 64.8809C325.389 65.7142 324.773 67.7747 323.758 71.0625H327.479ZM339.5 62.7227H343.943C345.968 62.7227 347.436 63.0124 348.348 63.5918C349.266 64.1647 349.725 65.0794 349.725 66.3359C349.725 67.1888 349.523 67.8887 349.119 68.4355C348.722 68.9824 348.191 69.3112 347.527 69.4219V69.5195C348.432 69.7214 349.083 70.099 349.48 70.6523C349.884 71.2057 350.086 71.9414 350.086 72.8594C350.086 74.1615 349.614 75.1771 348.67 75.9062C347.732 76.6354 346.456 77 344.842 77H339.5V62.7227ZM342.527 68.377H344.285C345.105 68.377 345.698 68.25 346.062 67.9961C346.434 67.7422 346.619 67.3223 346.619 66.7363C346.619 66.1895 346.417 65.7988 346.014 65.5645C345.617 65.3236 344.985 65.2031 344.119 65.2031H342.527V68.377ZM342.527 70.7793V74.5H344.5C345.333 74.5 345.949 74.3405 346.346 74.0215C346.743 73.7025 346.941 73.2142 346.941 72.5566C346.941 71.3717 346.095 70.7793 344.402 70.7793H342.527ZM361.678 77L360.643 73.6016H355.438L354.402 77H351.141L356.18 62.6641H359.881L364.939 77H361.678ZM359.92 71.0625C358.963 67.9831 358.423 66.2415 358.299 65.8379C358.182 65.4342 358.097 65.1152 358.045 64.8809C357.83 65.7142 357.215 67.7747 356.199 71.0625H359.92ZM365.252 81.1992C364.568 81.1992 363.973 81.1276 363.465 80.9844V78.4648C363.986 78.5951 364.461 78.6602 364.891 78.6602C365.555 78.6602 366.03 78.4518 366.316 78.0352C366.603 77.625 366.746 76.9805 366.746 76.1016V62.7227H369.773V76.082C369.773 77.7487 369.393 79.0182 368.631 79.8906C367.869 80.763 366.743 81.1992 365.252 81.1992ZM373.367 77V62.7227H376.395V77H373.367ZM385.496 77H382.469V65.2422H378.592V62.7227H389.373V65.2422H385.496V77ZM404.529 69.8418C404.529 72.2051 403.943 74.0215 402.771 75.291C401.6 76.5605 399.92 77.1953 397.732 77.1953C395.545 77.1953 393.865 76.5605 392.693 75.291C391.521 74.0215 390.936 72.1986 390.936 69.8223C390.936 67.446 391.521 65.6328 392.693 64.3828C393.872 63.1263 395.558 62.498 397.752 62.498C399.946 62.498 401.622 63.1296 402.781 64.3926C403.947 65.6556 404.529 67.472 404.529 69.8418ZM394.109 69.8418C394.109 71.4368 394.412 72.638 395.018 73.4453C395.623 74.2526 396.528 74.6562 397.732 74.6562C400.148 74.6562 401.355 73.0514 401.355 69.8418C401.355 66.6257 400.154 65.0176 397.752 65.0176C396.548 65.0176 395.639 65.4245 395.027 66.2383C394.415 67.0456 394.109 68.2467 394.109 69.8418Z" fill="#F3DF00"/>
</svg>
