<svg width="447" height="108" viewBox="0 0 447 108" fill="none" xmlns="http://www.w3.org/2000/svg">
<path d="M447 108L42.444 108L9 74.5L42.444 41L447 41L447 108Z" fill="#F3DF00"/>
<path d="M442.5 101.5L38.6514 101.5L5.70652 68.5L38.6514 35.5L442.5 35.5L442.5 101.5Z" fill="black" stroke="#F3DF00"/>
<mask id="mask0" mask-type="alpha" maskUnits="userSpaceOnUse" x="0" y="0" width="162" height="101">
<rect width="162" height="101" fill="#C4C4C4"/>
</mask>
<g mask="url(#mask0)">
<path d="M80.2656 37.2217C80.9119 37.3609 81.1706 35.9319 81.4883 35.0744C75.9894 28.6029 68.676 23.3893 60.4679 25.1939C65.2129 26.0902 69.0066 27.1463 72.9314 30.0858C74.5102 31.0654 78.4227 34.8881 80.2656 37.2217Z" fill="#5D3D3D"/>
<path d="M86.9644 31.6903C85.2227 25.2129 80.4752 15.7339 73.4042 13.5012C76.1177 16.4058 77.5994 17.8401 80.1805 21.9235C82.1636 25.0721 84.0281 30.6271 84.6437 33.2992C85.6174 32.6491 87.1536 33.0086 86.9644 31.6903Z" fill="#5D3D3D"/>
<path d="M50.3802 85.4946C48.1831 92.3285 51.2055 119.848 51.4102 124.829C51.6478 130.363 52.3855 131.463 49.7036 132.01C45.1514 132.942 42.5651 135.61 48.5918 134.93C50.8908 134.786 53.5375 134.963 55.5013 133.614C55.7019 127.739 55.131 119.076 54.8396 110.743C54.7137 107.119 52.3329 91.9879 54.7928 89.7326C59.8196 84.6731 70.5523 99.162 74.1521 101.777C77.0631 103.795 82.3744 106.535 81.3414 101.116C80.7548 98.1615 76.7974 94.9947 74.6788 93.0023C72.9014 91.448 54.0418 73.8341 50.3802 85.4946Z" fill="#7A411B"/>
<path d="M115.433 58.5494C112.2 61.7275 109.739 62.1969 106.253 63.6021C104.519 64.2917 105.301 63.9242 104.942 65.7852C104.542 69.2991 102.823 77.0387 102.387 80.6273C101.631 86.8368 100.919 94.6406 97.4513 100.868C95.6708 104.302 87.1489 112.485 83.5621 114.809C78.6023 118.073 68.4538 122.035 60.8909 122.355C51.7628 122.76 43.5714 120.48 36.2982 117C34.492 116.053 32.1625 114.37 31.4109 112.204C30.3018 109.649 36.1317 106.144 37.8518 104.552C39.6885 102.641 48.4097 96.17 49.7174 94.776C53.2089 90.8184 64.3831 76.386 66.5139 72.3221C68.7777 68.2159 69.4435 63.3184 71.2331 58.9787C72.8153 55.2951 73.9428 51.5145 75.8173 47.9281C76.6377 46.0473 77.3127 45.4169 78.1109 44.5135C78.0655 34.9858 83.0383 31.8131 86.879 30.4499C92.2553 28.4719 100.506 31.9734 105.55 33.8242C118.303 38.4658 129.145 51.7791 115.433 58.5494Z" fill="#7A411B"/>
<path d="M86.0431 66.6423C84.314 74.1513 77.1265 96.4786 65.2539 105.722C60.3983 109.388 54.2461 111.617 47.9797 113.05C44.5867 113.815 34.4404 116.339 31.0775 113.597C27.6363 110.31 39.8959 101.823 42.7126 98.9828C48.5472 92.7634 59.0427 83.1376 63.3338 75.5391C68.8834 65.7186 70.616 58.7193 72.2058 56.5425C73.9902 54.1058 86.9658 62.5662 86.0431 66.6423Z" fill="#DB7E2D"/>
<path d="M105.823 66.5867C96.1236 63.0146 86.203 58.384 77.5481 52.7135C76.736 52.2269 75.839 51.3118 75.0464 50.9617C73.2631 50.1738 73.8737 50.2253 72.5887 51.616C70.752 53.5267 69.5943 55.9662 70.7973 58.0437C72.1593 60.0984 75.2253 60.9342 77.1324 62.2611C82.4671 65.9724 99.6597 72.2964 101.972 72.5676C103.989 72.8812 104.148 73.0207 104.686 71.4357C105.085 70.1722 105.821 68.5123 105.823 66.5867Z" fill="#F7941D"/>
<path d="M44.9916 88.3559C41.6743 95.3043 40.9375 124.917 40.4703 130.227C39.9287 136.151 40.5498 137.407 37.6338 137.617C32.6721 137.958 29.5466 140.425 36.0381 140.56C38.477 140.743 41.2929 141.29 43.5653 140.152C44.6003 133.949 45.2662 124.69 46.1239 115.799C46.498 111.94 46.1396 95.5447 49.0933 93.4969C55.153 88.8458 64.4485 105.768 67.8897 109.055C70.6939 111.622 75.9279 115.278 75.6154 109.385C75.4346 106.186 71.6651 102.227 69.6955 99.8186C68.0511 97.8972 50.5756 76.5123 44.9916 88.3559Z" fill="#A35625"/>
<path d="M98.5194 81.1592C106.52 80.0107 110.028 76.8163 115.974 71.3697C119.067 68.5132 119.741 66.9084 122.932 70.2315C124.827 72.117 127.622 76.5641 123.241 76.1027C122.134 75.9833 122.028 73.3075 120.401 73.2858C119.044 73.2023 111.463 80.5076 108.415 81.7339C106.142 82.872 102.262 83.9624 99.5866 84.0681C96.6054 83.9857 93.5189 81.877 98.5194 81.1592Z" fill="#A35625"/>
<path d="M90.8801 35.698C97.9107 40.5578 92.2607 50.8103 84.2879 45.2042C77.5562 40.4871 85.0061 31.6233 90.8801 35.698Z" fill="white"/>
<path d="M91.039 97.729C94.4067 102.767 102.693 106.356 111.741 101.833C114.983 100.022 118.882 97.9311 121.275 102.482C123.782 107.18 122.805 108.132 121.867 108.707C120.335 109.669 119.366 107.605 117.161 103.397C113.479 104.251 109.62 106.777 105.405 107.474C95.6158 109.088 83.8112 98.7666 85.3803 94.9921C86.7906 91.5652 89.2056 94.9765 91.039 97.729Z" fill="#A35625"/>
<path d="M114.575 58.5565C114.244 58.6736 112.228 58.8471 110.168 58.238C107.015 57.2757 105.599 53.2337 105.599 53.2337" stroke="black" stroke-width="0.369" stroke-linecap="round"/>
<path d="M89.4724 38.1737C90.1024 38.1992 90.5411 38.5074 90.7071 39.0171C90.8828 39.5951 90.3571 40.1345 89.8506 40.1608C89.1394 40.2165 88.6291 39.7329 88.5572 39.0705C88.4984 38.499 88.9528 38.1091 89.4724 38.1737Z" fill="black"/>
<path d="M101.525 88.6845C93.1772 90.3236 85.0111 86.926 79.036 82.1466" stroke="#DB7E2D" stroke-width="0.523" stroke-linecap="round"/>
<path d="M90.9359 108.484C81.8767 109.854 73.3163 104.518 68.9278 97.8642" stroke="#DB7E2D" stroke-width="0.523" stroke-linecap="round"/>
</g>
<path d="M172.02 78H163.797V63.7227H172.02V66.2031H166.824V69.3379H171.658V71.8184H166.824V75.5H172.02V78ZM175.008 78V63.7227H178.035V75.5H183.826V78H175.008ZM199.656 63.7227H202.713L197.859 78H194.559L189.715 63.7227H192.771L195.457 72.2188C195.607 72.7201 195.76 73.306 195.916 73.9766C196.079 74.6406 196.18 75.1029 196.219 75.3633C196.29 74.7643 196.535 73.7161 196.951 72.2188L199.656 63.7227ZM204.52 78V63.7227H207.547V78H204.52ZM224.1 70.8418C224.1 73.2051 223.514 75.0215 222.342 76.291C221.17 77.5605 219.49 78.1953 217.303 78.1953C215.115 78.1953 213.436 77.5605 212.264 76.291C211.092 75.0215 210.506 73.1986 210.506 70.8223C210.506 68.446 211.092 66.6328 212.264 65.3828C213.442 64.1263 215.128 63.498 217.322 63.498C219.516 63.498 221.193 64.1296 222.352 65.3926C223.517 66.6556 224.1 68.472 224.1 70.8418ZM213.68 70.8418C213.68 72.4368 213.982 73.638 214.588 74.4453C215.193 75.2526 216.098 75.6562 217.303 75.6562C219.718 75.6562 220.926 74.0514 220.926 70.8418C220.926 67.6257 219.725 66.0176 217.322 66.0176C216.118 66.0176 215.21 66.4245 214.598 67.2383C213.986 68.0456 213.68 69.2467 213.68 70.8418ZM227.059 78V63.7227H230.086V75.5H235.877V78H227.059ZM238.367 78V63.7227H241.395V78H238.367ZM238.201 62.5801V62.3164C239.321 61.0143 240.086 60.0345 240.496 59.377H243.836V59.582C243.497 59.9206 242.918 60.4251 242.098 61.0957C241.284 61.7598 240.646 62.2546 240.184 62.5801H238.201ZM257.654 78H253.807L247.596 67.1992H247.508C247.632 69.1068 247.693 70.4674 247.693 71.2812V78H244.988V63.7227H248.807L255.008 74.416H255.076C254.979 72.5605 254.93 71.2487 254.93 70.4805V63.7227H257.654V78ZM269.48 70.4414H270.477C271.408 70.4414 272.104 70.2591 272.566 69.8945C273.029 69.5234 273.26 68.9863 273.26 68.2832C273.26 67.5736 273.064 67.0495 272.674 66.7109C272.29 66.3724 271.684 66.2031 270.857 66.2031H269.48V70.4414ZM276.316 68.1758C276.316 69.7122 275.835 70.8874 274.871 71.7012C273.914 72.515 272.55 72.9219 270.779 72.9219H269.48V78H266.453V63.7227H271.014C272.745 63.7227 274.061 64.097 274.959 64.8457C275.864 65.5879 276.316 66.6979 276.316 68.1758ZM287.234 78H279.012V63.7227H287.234V66.2031H282.039V69.3379H286.873V71.8184H282.039V75.5H287.234V78ZM293.25 70.0605H294.227C295.184 70.0605 295.89 69.901 296.346 69.582C296.801 69.263 297.029 68.7617 297.029 68.0781C297.029 67.401 296.795 66.9193 296.326 66.6328C295.864 66.3464 295.145 66.2031 294.168 66.2031H293.25V70.0605ZM293.25 72.5215V78H290.223V63.7227H294.383C296.323 63.7227 297.758 64.0775 298.689 64.7871C299.62 65.4902 300.086 66.5612 300.086 68C300.086 68.8398 299.855 69.5885 299.393 70.2461C298.93 70.8971 298.276 71.4082 297.43 71.7793C299.578 74.9889 300.978 77.0625 301.629 78H298.27L294.861 72.5215H293.25ZM315.271 70.7246C315.271 73.0749 314.601 74.875 313.26 76.125C311.925 77.375 309.995 78 307.469 78H303.426V63.7227H307.908C310.239 63.7227 312.049 64.3379 313.338 65.5684C314.627 66.7988 315.271 68.5176 315.271 70.7246ZM312.127 70.8027C312.127 67.7363 310.773 66.2031 308.064 66.2031H306.453V75.5H307.752C310.669 75.5 312.127 73.9342 312.127 70.8027ZM318.23 78V63.7227H321.258V78H318.23ZM336.697 70.7246C336.697 73.0749 336.027 74.875 334.686 76.125C333.351 77.375 331.421 78 328.895 78H324.852V63.7227H329.334C331.665 63.7227 333.475 64.3379 334.764 65.5684C336.053 66.7988 336.697 68.5176 336.697 70.7246ZM333.553 70.8027C333.553 67.7363 332.199 66.2031 329.49 66.2031H327.879V75.5H329.178C332.094 75.5 333.553 73.9342 333.553 70.8027ZM352.615 70.8418C352.615 73.2051 352.029 75.0215 350.857 76.291C349.686 77.5605 348.006 78.1953 345.818 78.1953C343.631 78.1953 341.951 77.5605 340.779 76.291C339.607 75.0215 339.021 73.1986 339.021 70.8223C339.021 68.446 339.607 66.6328 340.779 65.3828C341.958 64.1263 343.644 63.498 345.838 63.498C348.032 63.498 349.708 64.1296 350.867 65.3926C352.033 66.6556 352.615 68.472 352.615 70.8418ZM342.195 70.8418C342.195 72.4368 342.498 73.638 343.104 74.4453C343.709 75.2526 344.614 75.6562 345.818 75.6562C348.234 75.6562 349.441 74.0514 349.441 70.8418C349.441 67.6257 348.24 66.0176 345.838 66.0176C344.633 66.0176 343.725 66.4245 343.113 67.2383C342.501 68.0456 342.195 69.2467 342.195 70.8418Z" fill="#F3DF00"/>
</svg>
