<svg width="442" height="107" viewBox="0 0 442 107" fill="none" xmlns="http://www.w3.org/2000/svg">
<path d="M442 107L37.444 107L4 73.5L37.444 40L442 40L442 107Z" fill="#F3DF00"/>
<path d="M437.5 100.5L33.6514 100.5L0.706515 67.5L33.6514 34.5L437.5 34.5L437.5 100.5Z" fill="black" stroke="#F3DF00"/>
<mask id="mask0" mask-type="alpha" maskUnits="userSpaceOnUse" x="2" y="0" width="162" height="101">
<rect x="2" width="162" height="101" fill="#C4C4C4"/>
</mask>
<g mask="url(#mask0)">
<path d="M112.454 36.5383C113.041 41.4302 109.68 45.8551 104.942 46.4229C100.205 46.9908 95.8932 43.4856 95.3068 38.5937C94.7204 33.7018 98.0814 29.277 102.819 28.7091C107.556 28.1412 111.868 31.6464 112.454 36.5383Z" fill="#93A44C"/>
<path d="M86.4537 42.7367C87.7094 48.2013 83.5811 52.3265 78.7407 52.9067C73.8745 53.49 69.8802 50.234 68.817 44.8507C67.829 39.8764 71.7451 35.7246 76.5557 34.6779C81.6752 33.5941 85.3143 37.8066 86.4537 42.7367Z" fill="#93A44C"/>
<path d="M103.019 83.3214C103.019 83.3214 111.286 95.206 115.004 97.2415C118.025 98.9164 119.108 97.7157 119.108 97.7157C119.108 97.7157 126.795 94.0783 125.878 96.0164C124.938 97.9833 119.793 99.7231 119.793 99.7231C119.793 99.7231 129.375 99.0447 128.226 100.358C127.078 101.671 119.189 102.747 119.189 102.747C119.189 102.747 129.554 104.247 127.273 105.042C124.093 106.181 115.465 105.883 114.052 104.12C112.642 102.382 101.055 93.2984 98.1538 90.6688C95.2335 88.0938 103.019 83.3214 103.019 83.3214Z" fill="#93A44C"/>
<path d="M110.704 36.7482C111.17 40.6359 108.482 44.1443 104.723 44.5949C100.964 45.0454 97.5236 42.2716 97.0576 38.3839C96.5916 34.4961 99.279 30.9878 103.038 30.5372C106.794 30.0608 110.234 32.8346 110.704 36.7482Z" fill="white"/>
<path d="M82.5149 39.2913C99.4886 34.6973 134.297 38.36 133.337 54.5369C132.527 67.8229 117.813 72.0938 117.813 72.0938C117.813 72.0938 117.065 87.2008 98.1373 90.7493C89.4865 107.038 73.1628 118.58 56.2555 119.588C39.4285 120.613 28.5295 105.074 37.3757 83.2243C45.779 62.4727 63.9197 56.0673 63.9197 56.0673C63.9197 56.0673 67.0583 43.4684 82.5149 39.2913Z" fill="#93A44C"/>
<path d="M86.3628 77.2741C88.5634 78.4206 87.7567 80.8416 85.5107 79.7528C83.2359 78.6412 84.1045 76.0822 86.3628 77.2741Z" fill="#7A411B"/>
<path d="M81.4629 81.2827C83.7315 82.3427 83.066 84.8512 80.7293 83.8777C78.4442 82.898 79.1685 80.2258 81.4629 81.2827Z" fill="#7A411B"/>
<path d="M75.1456 76.2942C77.3916 77.383 76.5612 80.0421 74.2987 79.0335C71.9559 78.0085 72.8451 75.1858 75.1456 76.2942Z" fill="#7A411B"/>
<path d="M80.6102 66.7594C78.4456 65.4779 79.6427 62.8273 81.765 64.1921C83.8843 65.5312 82.7717 68.015 80.6102 66.7594Z" fill="#7A411B"/>
<path d="M63.8854 74.9538C61.5714 73.9515 62.5358 70.8847 64.8332 71.9674C67.0792 73.0563 66.1736 75.9593 63.8854 74.9538Z" fill="#7A411B"/>
<path d="M48.9529 77.8408L48.9746 77.3681C49.5032 75.2415 53.33 76.0102 52.7953 78.0853C52.5655 79.0008 51.6922 79.3405 50.8528 79.3106C51.2039 80.496 50.3962 81.8203 48.7619 81.2588C46.5849 80.5274 47.024 77.6542 48.9529 77.8408Z" fill="#7A411B"/>
<path d="M62.9257 66.2937C60.7024 65.1761 61.8727 62.0846 64.0796 63.2827C66.2864 64.4807 65.1747 67.4083 62.9257 66.2937Z" fill="#7A411B"/>
<path d="M51.5702 92.0479C50.356 91.7234 49.8431 90.714 50.0307 89.8819C49.9545 89.6821 49.9267 89.4503 49.9731 89.1836C50.3215 87.0786 54.169 87.5838 53.8371 89.6085L53.5703 90.2151C53.8544 91.278 53.1345 92.4611 51.5702 92.0479Z" fill="#7A411B"/>
<path d="M66.5993 55.9812C68.8846 55.655 70.328 58.9816 68.1261 59.35C65.8758 59.7503 64.2687 56.365 66.5993 55.9812Z" fill="#7A411B"/>
<path d="M84.9591 74.935C87.2424 74.374 88.8816 77.8078 86.5952 78.343C84.2893 78.9328 82.6274 75.5279 84.9591 74.935Z" fill="#7A411B"/>
<path d="M73.191 66.5257C70.9005 67.2443 69.1554 63.7972 71.5232 63.0694C73.8971 62.3931 75.4589 65.836 73.191 66.5257Z" fill="#7A411B"/>
<path d="M58.381 64.9843C56.1616 65.6421 54.2578 62.3968 56.5576 61.7555C58.8089 61.1461 60.6097 64.4038 58.381 64.9843Z" fill="#7A411B"/>
<path d="M77.1265 71.9042C74.9823 72.3179 73.0548 69.3105 75.1959 68.871C77.3463 68.5088 79.2769 71.5419 77.1265 71.9042Z" fill="#7A411B"/>
<path d="M57.2864 79.1661C55.137 79.9722 52.952 76.9957 55.1272 76.1865C57.2797 75.4061 59.442 78.4115 57.2864 79.1661Z" fill="#7A411B"/>
<path d="M62.8421 66.9044C65.0482 66.3527 66.9364 69.4692 64.7819 70.0148C62.6078 70.6149 60.6423 67.5076 62.8421 66.9044Z" fill="#7A411B"/>
<path d="M58.3696 72.9511C56.1398 73.7407 54.1845 70.5016 56.4657 69.7058C58.7017 68.9677 60.6055 72.213 58.3696 72.9511Z" fill="#7A411B"/>
<path d="M74.8784 64.9132C72.7022 65.2785 70.9137 62.1239 73.1414 61.7524C75.3237 61.4386 77.0318 64.5767 74.8784 64.9132Z" fill="#7A411B"/>
<path d="M70.3015 80.7662L70.3262 80.9722L70.3293 80.998L70.3592 81.4645C70.2963 81.8116 70.0603 82.0227 69.8183 82.1823C70.5555 83.3214 69.7376 84.7774 67.9623 84.1284C66.4886 83.5999 66.1995 82.2765 66.766 81.5557C66.6033 81.2879 66.489 80.9882 66.5745 80.6123L66.6168 80.5288C66.3079 79.9129 66.411 79.2477 67.2936 78.9852C68.7211 78.4746 70.2326 79.7559 70.3015 80.7662Z" fill="#7A411B"/>
<path d="M47.3356 73.9343C45.147 74.8495 43.0209 71.7092 45.2352 70.7909C47.4814 69.921 49.5015 73.0478 47.3356 73.9343Z" fill="#7A411B"/>
<path d="M81.1707 57.0551C83.355 56.9761 84.7696 60.2801 82.5853 60.3591C80.3783 60.4669 78.9152 57.1948 81.1707 57.0551Z" fill="#7A411B"/>
<path d="M44.9061 83.0792C42.8132 84.1397 40.4418 81.1332 42.6664 80.083C44.82 79.0936 47.0596 82.0898 44.9061 83.0792Z" fill="#7A411B"/>
<path d="M80.4751 76.3083C82.5451 75.9296 84.6116 78.7898 82.5416 79.1685C80.4488 79.5761 78.3597 76.7447 80.4751 76.3083Z" fill="#7A411B"/>
<path d="M58.9394 86.8553C58.4659 85.7368 59.2703 84.3868 60.9334 84.9709C62.8149 85.6334 62.7662 87.6241 61.4809 88.0132C61.8156 88.626 61.7927 89.3079 60.9194 89.6476C58.8853 90.5444 56.4161 87.8107 58.5274 86.9047L58.9394 86.8553Z" fill="#7A411B"/>
<path d="M41.5511 86.9025C41.2532 89.2104 37.3172 89.0553 37.6542 86.6383C38.0171 84.2182 41.9006 84.5885 41.5511 86.9025Z" fill="#7A411B"/>
<path d="M49.5202 96.7336C49.3087 99.1095 45.3745 99.1893 45.6251 96.7043C45.85 94.2224 49.7512 94.3032 49.5202 96.7336Z" fill="#7A411B"/>
<path d="M46.2973 91.6353C46.0324 93.7825 42.1189 93.5988 42.4003 91.3712C42.7044 89.1149 46.5592 89.4623 46.2973 91.6353Z" fill="#7A411B"/>
<path d="M60.7167 81.4189C60.2406 83.3303 56.455 82.6872 56.8899 80.6502C57.3824 78.6586 61.1897 79.4818 60.7167 81.4189Z" fill="#7A411B"/>
<path d="M44.9027 98.9585C44.7439 101.119 40.8325 101.17 41.0048 98.9035C41.1771 96.6368 45.0585 96.7721 44.9027 98.9585Z" fill="#7A411B"/>
<path d="M40.4134 93.7509C40.4399 96.1505 36.5521 96.6164 36.5328 94.0592C36.5167 91.5278 40.4899 91.339 40.4134 93.7509Z" fill="#7A411B"/>
<path d="M44.6 101.006C44.7057 103.631 40.8488 104.354 40.7245 101.575C40.658 98.8405 44.5746 98.3972 44.6 101.006Z" fill="#7A411B"/>
<path d="M49.3366 66.878C50.0073 64.6299 53.8042 65.585 53.1273 67.7816C52.473 69.9493 48.6689 69.1518 49.3366 66.878Z" fill="#7A411B"/>
<path d="M84.4453 42.9773C85.4211 47.1958 82.227 50.3992 78.4937 50.8467C74.7347 51.2973 71.6631 48.7665 70.8253 44.6099C70.0761 40.7561 73.0867 37.5485 76.8056 36.7633C80.7501 35.8987 83.5705 39.1647 84.4453 42.9773Z" fill="white"/>
<path d="M80.2776 43.5031C80.4763 44.2889 79.8459 44.913 79.125 44.9994C78.4041 45.0858 77.8243 44.6068 77.6771 43.8148C77.5362 43.0743 78.1181 42.4822 78.804 42.3216C79.5671 42.1518 80.1109 42.7657 80.2776 43.5031Z" fill="black"/>
<path d="M106.263 34.5644C106.427 35.276 105.89 35.8104 105.246 35.8875C104.603 35.9647 104.081 35.5311 103.946 34.8421C103.814 34.1789 104.351 33.6444 104.962 33.5189C105.648 33.3583 106.131 33.9011 106.263 34.5644Z" fill="black"/>
<path d="M117.81 72.0681C102.035 75.5521 95.2671 66.8045 95.2671 66.8045" stroke="black" stroke-width="0.367"/>
<path d="M105.233 88.7235C102.826 86.5048 92.4331 89.7876 82.3333 97.4752C68.0714 108.352 45.5138 113.641 50.9634 117.271C56.3871 120.904 59.175 120.413 66.9735 117.494C75.1201 114.428 83.3426 112.215 94.3264 101.444C100.685 95.2233 102.42 92.273 105.233 88.7235Z" fill="#7B8440"/>
<path d="M51.7745 95.4969C56.1861 90.032 72.735 81.0231 79.2512 86.7973C85.7416 92.5746 76.2514 116.46 76.2514 116.46C76.2514 116.46 100.424 111.786 99.3722 113.688C98.3462 115.587 87.4594 116.709 87.4594 116.709C87.4594 116.709 100.934 116.478 100.884 118.025C100.835 119.572 87.2325 118.957 87.2325 118.957C87.2325 118.957 98.6645 122.601 97.8343 123.954C96.9783 125.31 86.9714 122.879 79.1765 121.907C71.3816 120.935 67.2329 125.324 67.0788 122.077C66.9505 118.828 71.5751 106.208 71.5751 106.208C71.5751 106.208 63.6411 122.594 53.4294 119.979C36.6134 115.648 48.0231 100.151 51.7745 95.4969Z" fill="#A9B750"/>
<path d="M125.225 55.9271C125.299 56.545 124.846 57.1217 124.202 57.1988C123.559 57.276 122.982 56.8228 122.908 56.2048C122.831 55.5612 123.284 54.9845 123.928 54.9073C124.571 54.8302 125.148 55.2834 125.225 55.9271Z" fill="black"/>
<path d="M129.688 53.7206C129.746 54.2098 129.384 54.6713 128.895 54.7299C128.38 54.7916 127.918 54.4289 127.86 53.9398C127.798 53.4248 128.164 52.9893 128.679 52.9276C129.168 52.8689 129.629 53.2314 129.688 53.7206Z" fill="black"/>
<path d="M95.0115 84.2812C95.0115 84.2812 100.626 103.666 103.854 106.413C106.471 108.633 107.771 107.719 107.771 107.719C107.771 107.719 116.041 105.683 114.733 107.407C113.425 109.131 108.021 109.805 108.021 109.805C108.021 109.805 117.545 111.04 116.16 112.12C114.775 113.2 106.823 112.665 106.823 112.665C106.823 112.665 116.673 116.185 114.285 116.524C110.947 117.002 102.556 114.978 101.508 112.988C100.46 110.999 89.556 93.8933 87.2434 90.7231C84.9338 87.5786 95.0115 84.2812 95.0115 84.2812Z" fill="#93A44C"/>
</g>
<path d="M167.02 76H158.797V61.7227H167.02V64.2031H161.824V67.3379H166.658V69.8184H161.824V73.5H167.02V76ZM170.008 76V61.7227H173.035V73.5H178.826V76H170.008ZM194.939 72.0352C194.939 73.3242 194.474 74.3398 193.543 75.082C192.618 75.8242 191.329 76.1953 189.676 76.1953C188.152 76.1953 186.805 75.9089 185.633 75.3359V72.5234C186.596 72.9531 187.41 73.2559 188.074 73.4316C188.745 73.6074 189.357 73.6953 189.91 73.6953C190.574 73.6953 191.082 73.5684 191.434 73.3145C191.792 73.0605 191.971 72.6829 191.971 72.1816C191.971 71.9017 191.893 71.6543 191.736 71.4395C191.58 71.2181 191.349 71.0065 191.043 70.8047C190.743 70.6029 190.128 70.2806 189.197 69.8379C188.325 69.4277 187.671 69.0339 187.234 68.6562C186.798 68.2786 186.45 67.8392 186.189 67.3379C185.929 66.8366 185.799 66.2507 185.799 65.5801C185.799 64.3171 186.225 63.3242 187.078 62.6016C187.938 61.8789 189.122 61.5176 190.633 61.5176C191.375 61.5176 192.081 61.6055 192.752 61.7812C193.429 61.957 194.135 62.2044 194.871 62.5234L193.895 64.877C193.133 64.5645 192.501 64.3464 192 64.2227C191.505 64.099 191.017 64.0371 190.535 64.0371C189.962 64.0371 189.523 64.1706 189.217 64.4375C188.911 64.7044 188.758 65.0527 188.758 65.4824C188.758 65.7493 188.82 65.9837 188.943 66.1855C189.067 66.3809 189.262 66.5729 189.529 66.7617C189.803 66.944 190.444 67.276 191.453 67.7578C192.788 68.3958 193.702 69.0371 194.197 69.6816C194.692 70.3197 194.939 71.1042 194.939 72.0352ZM206.268 76L205.232 72.6016H200.027L198.992 76H195.73L200.77 61.6641H204.471L209.529 76H206.268ZM204.51 70.0625C203.553 66.9831 203.012 65.2415 202.889 64.8379C202.771 64.4342 202.687 64.1152 202.635 63.8809C202.42 64.7142 201.805 66.7747 200.789 70.0625H204.51ZM214.363 68.4414H215.359C216.29 68.4414 216.987 68.2591 217.449 67.8945C217.911 67.5234 218.143 66.9863 218.143 66.2832C218.143 65.5736 217.947 65.0495 217.557 64.7109C217.173 64.3724 216.567 64.2031 215.74 64.2031H214.363V68.4414ZM221.199 66.1758C221.199 67.7122 220.717 68.8874 219.754 69.7012C218.797 70.515 217.433 70.9219 215.662 70.9219H214.363V76H211.336V61.7227H215.896C217.628 61.7227 218.943 62.097 219.842 62.8457C220.747 63.5879 221.199 64.6979 221.199 66.1758ZM223.895 76V61.7227H226.922V76H223.895ZM236.023 76H232.996V64.2422H229.119V61.7227H239.9V64.2422H236.023V76ZM255.057 68.8418C255.057 71.2051 254.471 73.0215 253.299 74.291C252.127 75.5605 250.447 76.1953 248.26 76.1953C246.072 76.1953 244.393 75.5605 243.221 74.291C242.049 73.0215 241.463 71.1986 241.463 68.8223C241.463 66.446 242.049 64.6328 243.221 63.3828C244.399 62.1263 246.085 61.498 248.279 61.498C250.473 61.498 252.15 62.1296 253.309 63.3926C254.474 64.6556 255.057 66.472 255.057 68.8418ZM244.637 68.8418C244.637 70.4368 244.939 71.638 245.545 72.4453C246.15 73.2526 247.055 73.6562 248.26 73.6562C250.675 73.6562 251.883 72.0514 251.883 68.8418C251.883 65.6257 250.682 64.0176 248.279 64.0176C247.075 64.0176 246.167 64.4245 245.555 65.2383C244.943 66.0456 244.637 67.2467 244.637 68.8418ZM268.631 67.9824H274.295V75.3848C273.377 75.6842 272.511 75.8926 271.697 76.0098C270.89 76.1335 270.063 76.1953 269.217 76.1953C267.062 76.1953 265.415 75.5638 264.275 74.3008C263.143 73.0312 262.576 71.2116 262.576 68.8418C262.576 66.5371 263.234 64.7402 264.549 63.4512C265.87 62.1621 267.7 61.5176 270.037 61.5176C271.502 61.5176 272.915 61.8105 274.275 62.3965L273.27 64.8184C272.228 64.2975 271.144 64.0371 270.018 64.0371C268.709 64.0371 267.661 64.4766 266.873 65.3555C266.085 66.2344 265.691 67.416 265.691 68.9004C265.691 70.4499 266.007 71.6348 266.639 72.4551C267.277 73.2689 268.201 73.6758 269.412 73.6758C270.044 73.6758 270.685 73.6107 271.336 73.4805V70.502H268.631V67.9824ZM277.703 76V61.7227H280.73V73.5H286.521V76H277.703ZM301.971 68.8418C301.971 71.2051 301.385 73.0215 300.213 74.291C299.041 75.5605 297.361 76.1953 295.174 76.1953C292.986 76.1953 291.307 75.5605 290.135 74.291C288.963 73.0215 288.377 71.1986 288.377 68.8223C288.377 66.446 288.963 64.6328 290.135 63.3828C291.313 62.1263 292.999 61.498 295.193 61.498C297.387 61.498 299.064 62.1296 300.223 63.3926C301.388 64.6556 301.971 66.472 301.971 68.8418ZM291.551 68.8418C291.551 70.4368 291.854 71.638 292.459 72.4453C293.064 73.2526 293.969 73.6562 295.174 73.6562C297.589 73.6562 298.797 72.0514 298.797 68.8418C298.797 65.6257 297.596 64.0176 295.193 64.0176C293.989 64.0176 293.081 64.4245 292.469 65.2383C291.857 66.0456 291.551 67.2467 291.551 68.8418ZM315.545 67.9824H321.209V75.3848C320.291 75.6842 319.425 75.8926 318.611 76.0098C317.804 76.1335 316.977 76.1953 316.131 76.1953C313.976 76.1953 312.329 75.5638 311.189 74.3008C310.057 73.0312 309.49 71.2116 309.49 68.8418C309.49 66.5371 310.148 64.7402 311.463 63.4512C312.785 62.1621 314.614 61.5176 316.951 61.5176C318.416 61.5176 319.829 61.8105 321.189 62.3965L320.184 64.8184C319.142 64.2975 318.058 64.0371 316.932 64.0371C315.623 64.0371 314.575 64.4766 313.787 65.3555C312.999 66.2344 312.605 67.416 312.605 68.9004C312.605 70.4499 312.921 71.6348 313.553 72.4551C314.191 73.2689 315.115 73.6758 316.326 73.6758C316.958 73.6758 317.599 73.6107 318.25 73.4805V70.502H315.545V67.9824ZM324.617 76V61.7227H327.645V73.5H333.436V76H324.617ZM348.885 68.8418C348.885 71.2051 348.299 73.0215 347.127 74.291C345.955 75.5605 344.275 76.1953 342.088 76.1953C339.9 76.1953 338.221 75.5605 337.049 74.291C335.877 73.0215 335.291 71.1986 335.291 68.8223C335.291 66.446 335.877 64.6328 337.049 63.3828C338.227 62.1263 339.913 61.498 342.107 61.498C344.301 61.498 345.978 62.1296 347.137 63.3926C348.302 64.6556 348.885 66.472 348.885 68.8418ZM338.465 68.8418C338.465 70.4368 338.768 71.638 339.373 72.4453C339.979 73.2526 340.883 73.6562 342.088 73.6562C344.503 73.6562 345.711 72.0514 345.711 68.8418C345.711 65.6257 344.51 64.0176 342.107 64.0176C340.903 64.0176 339.995 64.4245 339.383 65.2383C338.771 66.0456 338.465 67.2467 338.465 68.8418ZM362.459 67.9824H368.123V75.3848C367.205 75.6842 366.339 75.8926 365.525 76.0098C364.718 76.1335 363.891 76.1953 363.045 76.1953C360.89 76.1953 359.243 75.5638 358.104 74.3008C356.971 73.0312 356.404 71.2116 356.404 68.8418C356.404 66.5371 357.062 64.7402 358.377 63.4512C359.699 62.1621 361.528 61.5176 363.865 61.5176C365.33 61.5176 366.743 61.8105 368.104 62.3965L367.098 64.8184C366.056 64.2975 364.972 64.0371 363.846 64.0371C362.537 64.0371 361.489 64.4766 360.701 65.3555C359.913 66.2344 359.52 67.416 359.52 68.9004C359.52 70.4499 359.835 71.6348 360.467 72.4551C361.105 73.2689 362.029 73.6758 363.24 73.6758C363.872 73.6758 364.513 73.6107 365.164 73.4805V70.502H362.459V67.9824ZM371.531 76V61.7227H374.559V73.5H380.35V76H371.531ZM395.799 68.8418C395.799 71.2051 395.213 73.0215 394.041 74.291C392.869 75.5605 391.189 76.1953 389.002 76.1953C386.814 76.1953 385.135 75.5605 383.963 74.291C382.791 73.0215 382.205 71.1986 382.205 68.8223C382.205 66.446 382.791 64.6328 383.963 63.3828C385.141 62.1263 386.827 61.498 389.021 61.498C391.215 61.498 392.892 62.1296 394.051 63.3926C395.216 64.6556 395.799 66.472 395.799 68.8418ZM385.379 68.8418C385.379 70.4368 385.682 71.638 386.287 72.4453C386.893 73.2526 387.798 73.6562 389.002 73.6562C391.417 73.6562 392.625 72.0514 392.625 68.8418C392.625 65.6257 391.424 64.0176 389.021 64.0176C387.817 64.0176 386.909 64.4245 386.297 65.2383C385.685 66.0456 385.379 67.2467 385.379 68.8418Z" fill="#F3DF00"/>
</svg>
