<svg width="442" height="107" viewBox="0 0 442 107" fill="none" xmlns="http://www.w3.org/2000/svg">
<path d="M442 107L37.444 107L4 73.5L37.444 40L442 40L442 107Z" fill="#F3DF00"/>
<path d="M437.5 100.5L33.6514 100.5L0.706515 67.5L33.6514 34.5L437.5 34.5L437.5 100.5Z" fill="black" stroke="#F3DF00"/>
<mask id="mask0" mask-type="alpha" maskUnits="userSpaceOnUse" x="12" y="0" width="162" height="101">
<rect x="12" width="162" height="101" fill="#C4C4C4"/>
</mask>
<g mask="url(#mask0)">
<path d="M95.3124 79.9559C95.3124 79.9559 100.222 84.2641 103.472 86.9839C106.745 89.7277 110.187 90.7627 111.487 90.859C112.762 90.9552 118.274 88.067 118.996 90.2331C119.453 91.6051 116.878 93.1936 116.878 93.1936C116.878 93.1936 119.044 94.2526 119.598 95.6967C120.392 97.8388 115.65 96.9483 115.65 96.9483C115.65 96.9483 119.814 99.3551 117.046 101.666C115.386 103.062 111.535 99.8846 108.285 96.0337C103.688 90.6183 92.4243 85.0103 92.4243 85.0103" fill="#F7941D"/>
<path d="M62.435 83.2292C62.435 83.2292 56.1772 88.8132 53.0243 91.6773C49.8713 94.5415 48.3549 97.8148 48.0901 99.0664C47.8254 100.318 49.9194 106.167 47.681 106.6C46.2609 106.865 45.0576 104.097 45.0576 104.097C45.0576 104.097 43.7096 106.094 42.2174 106.431C39.979 106.937 41.5195 102.34 41.5195 102.34C41.5195 102.34 37.6204 106.744 35.6949 103.687C34.5396 101.834 36.9464 98.7053 43.4208 95.1673C49.6546 91.7736 63.6143 73.7703 63.6143 73.7703" fill="#F7941D"/>
<path d="M67.3447 60.6529C64.4084 68.1382 63.0125 73.1445 58.6801 91.605C54.3478 110.066 49.4378 121.041 58.6801 124.771C67.9224 128.502 84.6741 128.791 89.6322 127.587C90.956 127.251 93.2907 123.039 93.2907 112.665C93.2907 102.267 98.6338 62.7229 98.6338 62.7229L76.2742 45.1529C76.2983 45.1288 70.955 51.4588 67.3447 60.6529Z" fill="#F7941D"/>
<path d="M87.9956 116.179C87.9956 129.874 82.8931 121.089 77.4536 121.089C72.0141 121.089 64.9379 131.535 64.9379 117.84C64.9379 104.145 72.0141 71.6282 77.4536 71.4598C87.2976 71.1228 87.9956 102.46 87.9956 116.179Z" fill="white"/>
<path d="M64.2642 111.293C64.2642 111.293 66.9358 83.7106 66.1896 78.0545C64.7696 67.5125 63.5902 66.8627 63.5902 66.8627L64.9621 65.0816C64.9621 65.0816 67.9948 67.7051 69.5111 78.2952C70.3776 84.4086 68.428 111.413 68.428 111.413L64.2642 111.293Z" fill="black"/>
<path d="M87.9474 113.941C87.9474 113.941 92.2317 80.0762 95.12 74.011C96.6122 70.858 98.4414 68.8362 98.4414 68.8362L99.1875 65.3944C99.1875 65.3944 96.6843 65.226 92.4964 72.4465C88.9102 78.6562 84.4335 113.315 84.4335 113.315L87.9474 113.941Z" fill="black"/>
<path d="M107.828 38.4859C107.828 38.4859 107.01 37.0418 108.598 36.1753C110.187 35.3089 115.313 33.8648 115.313 33.8648C115.313 33.8648 113.532 32.1318 111.511 31.2412C109.874 30.5433 106.023 29.725 106.023 29.725C106.023 29.725 103.809 24.3818 102.822 21.8064C99.5246 13.238 96.1789 7.12466 93.9646 2.26282C91.7503 -2.59901 91.1728 1.63702 90.571 3.29775C89.9693 4.95848 85.3482 21.9027 85.3482 21.9027C85.3482 21.9027 83.1819 22.5766 76.6594 24.1892C70.1128 25.8018 63.1329 28.329 63.1329 28.329C63.1329 28.329 47.2718 18.7498 44.7206 17.6907C42.1693 16.6077 45.6832 26.7886 46.7182 30.3989C48.6918 37.1862 48.9326 43.9013 48.9326 43.9013C48.9326 43.9013 46.5257 46.26 44.528 49.1242C42.6025 51.868 40.8455 57.7888 42.3859 55.6226C43.9503 53.4565 49.8952 52.3494 49.8952 52.3494C49.8952 52.3494 48.764 55.4061 48.4271 56.4169C47.3199 59.7865 46.3813 62.9876 46.3813 62.9876C46.3813 62.9876 48.4994 62.0008 51.3635 59.2811C54.2277 56.5614 55.2385 55.8393 53.5778 60.1475C51.9411 64.4317 52.3021 67.1515 52.3021 67.1515C52.3021 67.1515 53.65 65.6833 55.407 64.2873C57.0437 63.0117 58.897 64.167 58.897 64.167C58.897 64.167 70.3053 71.7967 81.1843 83.494C95.7698 99.1867 98.4414 97.1649 98.6339 96.2744C99.2597 93.0973 101.378 69.3898 102.509 53.3843C102.774 53.0714 102.509 52.5419 103.303 51.868C107.419 48.4021 110.837 48.3781 110.837 48.3781C110.837 48.3781 110.837 47.8967 109.778 46.8617C107.756 44.8159 105.734 43.805 105.734 43.805C105.734 43.805 105.59 43.083 109.056 42.7942C111.944 42.5535 114.158 42.6257 114.158 42.6257C114.158 42.6257 113.051 41.326 111.511 40.3873C109.898 39.4486 107.828 38.4859 107.828 38.4859Z" fill="#F7941D"/>
<path d="M99.2597 32.6614C102.22 34.8757 103.255 40.3633 100.656 43.8532C98.7062 46.4767 93.6518 47.3672 90.8117 42.8905C88.1882 38.7748 89.512 36.1994 91.4857 33.6C93.4352 30.9766 96.2752 30.4471 99.2597 32.6614Z" fill="white"/>
<path d="M99.0432 39.4246C99.5727 39.8097 100.319 39.7134 100.728 39.1839C101.113 38.6544 101.017 37.9082 100.487 37.4991C99.9578 37.114 99.2116 37.2103 98.8025 37.7398C98.3933 38.2933 98.4897 39.0395 99.0432 39.4246Z" fill="black"/>
<path d="M62.3626 43.781C61.0388 46.6693 62.5071 51.2182 65.8766 52.7585C68.4038 53.9379 72.5678 52.566 72.8807 48.017C73.1695 43.8532 72.0864 42.024 69.5351 40.8447C67.0079 39.6894 63.6864 40.8928 62.3626 43.781Z" fill="white"/>
<path d="M68.2113 47.5116C68.5483 48.0892 69.2944 48.2577 69.848 47.9208C70.4016 47.5838 70.6181 46.8617 70.2571 46.284C69.9201 45.7064 69.174 45.538 68.6205 45.8749C68.0669 46.2119 67.8744 46.9339 68.2113 47.5116Z" fill="black"/>
<path d="M80.2937 73.1446C75.4319 66.4294 66.2377 64.3596 59.5467 64.6244C63.5902 68.018 66.6469 70.6415 76.7316 79.956C78.0073 81.1113 83.2061 85.4677 84.1207 86.6711C83.7837 82.4351 83.1338 77.0918 80.2937 73.1446Z" fill="white"/>
<path d="M59.5467 64.6243C63.3254 68.042 64.938 68.6437 75.4559 78.8006C76.6834 80.004 83.519 85.8286 84.4336 87.0321" stroke="#D3D2C2" stroke-width="0.11" stroke-linecap="round"/>
<path d="M97.2618 67.3681C97.0212 71.4357 97.9599 79.0413 100.222 81.039C101.378 68.2827 102.629 54.8525 103.327 51.9162C100.8 53.1677 97.6951 60.0753 97.2618 67.3681Z" fill="white"/>
<path d="M100.223 81.039C101.378 68.3067 102.629 54.8525 103.327 51.9162" stroke="#D3D2C2" stroke-width="0.11" stroke-linecap="round"/>
<path d="M52.0854 36.0549C52.0854 36.0549 49.7025 25.3205 50.6653 25.9703C51.628 26.5961 59.2818 31.9633 59.2818 31.9633C59.2818 31.9633 56.2251 33.1908 55.3346 33.8166C54.42 34.4183 52.0854 36.0549 52.0854 36.0549Z" fill="white"/>
<path d="M89.2473 92.3512C94.1813 97.1167 98.6581 100.775 99.1635 96.4188C99.9337 89.9684 100.223 81.039 100.223 81.039C100.223 81.039 87.5625 84.7937 84.4095 87.2728C84.4095 87.2728 87.8754 91.0034 89.2473 92.3512Z" fill="#5D3D3D"/>
</g>
<path d="M163.24 71.6016L166.219 65.7227H169.48L164.744 74.4434V80H161.736V74.541L157 65.7227H160.281L163.24 71.6016ZM184.236 72.8418C184.236 75.2051 183.65 77.0215 182.479 78.291C181.307 79.5605 179.627 80.1953 177.439 80.1953C175.252 80.1953 173.572 79.5605 172.4 78.291C171.229 77.0215 170.643 75.1986 170.643 72.8223C170.643 70.446 171.229 68.6328 172.4 67.3828C173.579 66.1263 175.265 65.498 177.459 65.498C179.653 65.498 181.329 66.1296 182.488 67.3926C183.654 68.6556 184.236 70.472 184.236 72.8418ZM173.816 72.8418C173.816 74.4368 174.119 75.638 174.725 76.4453C175.33 77.2526 176.235 77.6562 177.439 77.6562C179.855 77.6562 181.062 76.0514 181.062 72.8418C181.062 69.6257 179.861 68.0176 177.459 68.0176C176.255 68.0176 175.346 68.4245 174.734 69.2383C174.122 70.0456 173.816 71.2467 173.816 72.8418ZM200.818 76.0352C200.818 77.3242 200.353 78.3398 199.422 79.082C198.497 79.8242 197.208 80.1953 195.555 80.1953C194.031 80.1953 192.684 79.9089 191.512 79.3359V76.5234C192.475 76.9531 193.289 77.2559 193.953 77.4316C194.624 77.6074 195.236 77.6953 195.789 77.6953C196.453 77.6953 196.961 77.5684 197.312 77.3145C197.671 77.0605 197.85 76.6829 197.85 76.1816C197.85 75.9017 197.771 75.6543 197.615 75.4395C197.459 75.2181 197.228 75.0065 196.922 74.8047C196.622 74.6029 196.007 74.2806 195.076 73.8379C194.204 73.4277 193.549 73.0339 193.113 72.6562C192.677 72.2786 192.329 71.8392 192.068 71.3379C191.808 70.8366 191.678 70.2507 191.678 69.5801C191.678 68.3171 192.104 67.3242 192.957 66.6016C193.816 65.8789 195.001 65.5176 196.512 65.5176C197.254 65.5176 197.96 65.6055 198.631 65.7812C199.308 65.957 200.014 66.2044 200.75 66.5234L199.773 68.877C199.012 68.5645 198.38 68.3464 197.879 68.2227C197.384 68.099 196.896 68.0371 196.414 68.0371C195.841 68.0371 195.402 68.1706 195.096 68.4375C194.79 68.7044 194.637 69.0527 194.637 69.4824C194.637 69.7493 194.699 69.9837 194.822 70.1855C194.946 70.3809 195.141 70.5729 195.408 70.7617C195.682 70.944 196.323 71.276 197.332 71.7578C198.667 72.3958 199.581 73.0371 200.076 73.6816C200.571 74.3197 200.818 75.1042 200.818 76.0352ZM216.365 72.8418C216.365 75.2051 215.779 77.0215 214.607 78.291C213.436 79.5605 211.756 80.1953 209.568 80.1953C207.381 80.1953 205.701 79.5605 204.529 78.291C203.357 77.0215 202.771 75.1986 202.771 72.8223C202.771 70.446 203.357 68.6328 204.529 67.3828C205.708 66.1263 207.394 65.498 209.588 65.498C211.782 65.498 213.458 66.1296 214.617 67.3926C215.783 68.6556 216.365 70.472 216.365 72.8418ZM205.945 72.8418C205.945 74.4368 206.248 75.638 206.854 76.4453C207.459 77.2526 208.364 77.6562 209.568 77.6562C211.984 77.6562 213.191 76.0514 213.191 72.8418C213.191 69.6257 211.99 68.0176 209.588 68.0176C208.383 68.0176 207.475 68.4245 206.863 69.2383C206.251 70.0456 205.945 71.2467 205.945 72.8418ZM223.768 71.6016L226.746 65.7227H230.008L225.271 74.4434V80H222.264V74.541L217.527 65.7227H220.809L223.768 71.6016ZM246.307 80H235.682V78.0371L242.527 68.2227H235.867V65.7227H246.121V67.6758L239.285 77.5H246.307V80ZM261.541 72.8418C261.541 75.2051 260.955 77.0215 259.783 78.291C258.611 79.5605 256.932 80.1953 254.744 80.1953C252.557 80.1953 250.877 79.5605 249.705 78.291C248.533 77.0215 247.947 75.1986 247.947 72.8223C247.947 70.446 248.533 68.6328 249.705 67.3828C250.883 66.1263 252.57 65.498 254.764 65.498C256.958 65.498 258.634 66.1296 259.793 67.3926C260.958 68.6556 261.541 70.472 261.541 72.8418ZM251.121 72.8418C251.121 74.4368 251.424 75.638 252.029 76.4453C252.635 77.2526 253.54 77.6562 254.744 77.6562C257.16 77.6562 258.367 76.0514 258.367 72.8418C258.367 69.6257 257.166 68.0176 254.764 68.0176C253.559 68.0176 252.651 68.4245 252.039 69.2383C251.427 70.0456 251.121 71.2467 251.121 72.8418ZM267.527 72.0605H268.504C269.461 72.0605 270.167 71.901 270.623 71.582C271.079 71.263 271.307 70.7617 271.307 70.0781C271.307 69.401 271.072 68.9193 270.604 68.6328C270.141 68.3464 269.422 68.2031 268.445 68.2031H267.527V72.0605ZM267.527 74.5215V80H264.5V65.7227H268.66C270.6 65.7227 272.036 66.0775 272.967 66.7871C273.898 67.4902 274.363 68.5612 274.363 70C274.363 70.8398 274.132 71.5885 273.67 72.2461C273.208 72.8971 272.553 73.4082 271.707 73.7793C273.855 76.9889 275.255 79.0625 275.906 80H272.547L269.139 74.5215H267.527ZM280.73 72.0605H281.707C282.664 72.0605 283.37 71.901 283.826 71.582C284.282 71.263 284.51 70.7617 284.51 70.0781C284.51 69.401 284.275 68.9193 283.807 68.6328C283.344 68.3464 282.625 68.2031 281.648 68.2031H280.73V72.0605ZM280.73 74.5215V80H277.703V65.7227H281.863C283.803 65.7227 285.239 66.0775 286.17 66.7871C287.101 67.4902 287.566 68.5612 287.566 70C287.566 70.8398 287.335 71.5885 286.873 72.2461C286.411 72.8971 285.757 73.4082 284.91 73.7793C287.059 76.9889 288.458 79.0625 289.109 80H285.75L282.342 74.5215H280.73ZM290.906 80V65.7227H293.934V80H290.906ZM303.035 80H300.008V68.2422H296.131V65.7227H306.912V68.2422H303.035V80ZM322.068 72.8418C322.068 75.2051 321.482 77.0215 320.311 78.291C319.139 79.5605 317.459 80.1953 315.271 80.1953C313.084 80.1953 311.404 79.5605 310.232 78.291C309.061 77.0215 308.475 75.1986 308.475 72.8223C308.475 70.446 309.061 68.6328 310.232 67.3828C311.411 66.1263 313.097 65.498 315.291 65.498C317.485 65.498 319.161 66.1296 320.32 67.3926C321.486 68.6556 322.068 70.472 322.068 72.8418ZM311.648 72.8418C311.648 74.4368 311.951 75.638 312.557 76.4453C313.162 77.2526 314.067 77.6562 315.271 77.6562C317.687 77.6562 318.895 76.0514 318.895 72.8418C318.895 69.6257 317.693 68.0176 315.291 68.0176C314.087 68.0176 313.178 68.4245 312.566 69.2383C311.954 70.0456 311.648 71.2467 311.648 72.8418Z" fill="#F3DF00"/>
</svg>
