<svg width="449" height="108" viewBox="0 0 449 108" fill="none" xmlns="http://www.w3.org/2000/svg">
<path d="M449 108L44.444 108L11 74.5L44.444 41L449 41L449 108Z" fill="#F3DF00"/>
<path d="M444.5 101.5L40.6514 101.5L7.70652 68.5L40.6514 35.5L444.5 35.5L444.5 101.5Z" fill="black" stroke="#F3DF00"/>
<mask id="mask0" mask-type="alpha" maskUnits="userSpaceOnUse" x="0" y="0" width="162" height="101">
<rect width="162" height="101" fill="#C4C4C4"/>
</mask>
<g mask="url(#mask0)">
<g opacity="0.8">
<g opacity="0.8">
<path opacity="0.8" d="M105.872 33.6212C106.768 35.7666 109.788 37.3079 112.163 36.329C113.933 35.6 115.141 32.7256 112.933 30.2678C110.892 28.0182 109.226 28.3724 107.455 29.1222C105.685 29.8512 104.977 31.4758 105.872 33.6212Z" fill="white"/>
<path opacity="0.8" d="M105.872 33.6212C106.768 35.7666 109.788 37.3079 112.163 36.329C113.933 35.6 115.141 32.7256 112.933 30.2678C110.892 28.0182 109.226 28.3724 107.455 29.1222C105.685 29.8512 104.977 31.4758 105.872 33.6212Z" stroke="#D3D2C2" stroke-width="0.113" stroke-linecap="round"/>
</g>
</g>
<path d="M111.163 32.1007C111.351 32.5381 111.142 33.0588 110.705 33.2254C110.267 33.4129 109.747 33.2047 109.58 32.7673C109.393 32.3299 109.622 31.809 110.059 31.6424C110.476 31.4549 110.976 31.6633 111.163 32.1007Z" fill="black"/>
<path d="M88.2095 88.1725C88.2095 88.1725 93.4168 89.0681 96.7911 89.7346C100.186 90.4012 102.582 92.0466 103.29 92.7964C103.998 93.5671 104.977 98.4829 106.727 97.858C107.83 97.4414 107.497 95.0252 107.497 95.0252C107.497 95.0252 109.268 95.8584 110.455 95.4626C112.225 94.8794 109.247 92.3383 109.247 92.3383C109.247 92.3383 113.788 93.7546 113.85 90.8385C113.892 89.068 110.892 87.9017 104.935 88.1516C99.1865 88.3807 89.9175 83.7567 89.9175 83.7567" fill="#F7941D"/>
<path d="M65.6101 81.0906C65.6101 81.0906 60.4028 81.9862 57.0077 82.6528C53.6334 83.3193 51.2172 84.9648 50.509 85.7147C49.8009 86.4854 48.8218 91.401 47.0722 90.7761C45.9683 90.3804 46.3015 87.9434 46.3015 87.9434C46.3015 87.9434 44.5311 88.7765 43.3438 88.3807C41.5734 87.7975 44.5518 85.2564 44.5518 85.2564C44.5518 85.2564 40.0112 86.6937 39.9487 83.7568C39.907 81.9863 42.9064 80.8199 48.8635 81.0699C54.6123 81.3198 63.8813 76.6957 63.8813 76.6957" fill="#F7941D"/>
<path d="M79.7321 32.0174C79.7321 32.0174 85.6476 29.8928 94.4583 29.1846C98.1242 28.893 105.477 31.9966 110.934 34.7877C115.183 36.9747 127.597 39.1617 129.847 39.5783C133.721 40.2865 146.156 43.2442 146.156 46.0561C146.156 48.868 143.011 51.3259 135.617 54.846C128.243 58.3453 105.164 62.7194 97.9993 73.8213C88.7095 88.235 86.4599 106.169 85.7518 114.605C85.0436 123.04 82.5857 133.58 82.5857 133.58C82.5857 133.58 94.6458 133.205 92.8961 135.663C91.1465 138.121 86.5016 135.725 86.5016 135.725C86.5016 135.725 87.8555 138.85 86.4392 139.204C85.0228 139.558 83.2314 136.475 83.2314 136.475C83.2314 136.475 83.6272 138.912 80.8153 139.245C78.0034 139.558 77.3577 137.787 78.0658 134.621C78.774 131.455 78.6282 119.728 78.399 119.52C78.0658 119.249 62.819 119.52 62.819 119.52L61.6317 133.226C61.6317 133.226 70.9006 135.35 69.8592 136.746C68.8177 138.162 64.3603 136.1 64.3603 136.1C64.3603 136.1 67.7554 138.641 65.6517 139.266C63.5479 139.891 61.4859 137.85 61.4859 137.85C62.6106 142.599 55.7371 139.933 56.8619 135.684V118.104C56.8619 118.104 49.8842 129.289 36.8243 129.352C20.5777 129.435 -0.876287 115.688 -7.87485 108.335C-15.0817 100.795 -12.3323 102.857 -3.60492 105.086C8.49676 108.189 18.0157 106.523 24.1811 104.732C28.7218 103.399 34.9705 101.461 41.49 103.024C46.9056 104.315 54.4456 110.418 54.4456 110.418C54.4456 110.418 52.467 90.8387 67.0265 71.301C69.8384 67.5518 67.6305 60.8448 67.6305 60.8448C67.6305 60.8448 66.2141 60.949 64.6936 61.2406C62.1733 61.6988 60.0278 65.0105 61.0901 62.1986C62.1524 59.3867 66.0059 56.9289 66.0059 56.9289C66.0059 56.9289 64.881 55.1169 59.4447 55.5543C55.8829 55.8459 63.9854 50.7219 63.9854 50.7219C63.9854 50.7219 59.7155 50.0137 56.8827 49.722C55.4455 49.5762 65.4017 44.8481 65.4017 44.8481C65.4017 44.8481 65.6934 44.3482 65.6101 41.6196C65.5684 40.2658 66.0059 36.1832 66.0059 36.1832C66.0059 36.1832 64.4228 27.0393 63.9854 23.5192C63.548 19.9991 63.9854 16.1456 63.9854 16.1456C63.9854 16.1456 71.4213 22.0403 75.0247 25.7895C77.6909 28.5806 79.7321 32.0174 79.7321 32.0174Z" fill="#F7941D"/>
<path d="M99.3323 73.5714C89.7926 87.631 87.3763 101.316 87.1681 114.376C83.1897 114.459 78.5241 114.042 74.7332 114.376C74.4207 111.918 75.0247 109.335 75.0247 106.752C75.0247 81.8405 84.8768 68.3849 104.331 63.5109C106.039 63.0943 115.85 60.8448 117.558 61.1989C110.538 63.9275 102.727 68.5724 99.3323 73.5714Z" fill="white"/>
<g opacity="0.8">
<g opacity="0.8">
<path opacity="0.8" d="M117.558 61.1988C110.538 63.9274 102.727 68.5723 99.353 73.5713C89.8133 87.6309 87.3972 101.316 87.1889 114.375" stroke="#D3D2C2" stroke-width="0.113" stroke-linecap="round"/>
</g>
</g>
<path d="M142.823 42.5777C146.927 43.7442 152.592 45.1605 149.322 47.8891C145.365 51.1801 138.199 53.5964 138.199 53.5964C138.199 53.5964 134.783 43.89 135.762 40.9531C135.741 40.9531 141.324 42.1611 142.823 42.5777Z" fill="#5D3D3D"/>
<path d="M95.7913 29.6845C95.7913 29.6845 91.9171 24.498 89.8758 21.7486C87.8346 19.02 82.1274 12.5838 81.815 13.0212C81.5026 13.4586 80.3154 16.1664 80.7111 20.853C81.1277 25.5395 82.1275 31.5174 82.1275 31.5174L95.7913 29.6845Z" fill="#F7941D"/>
<path d="M-3.58415 105.127C7.68436 108.023 16.7242 106.773 22.8896 105.127C20.4734 107.523 16.6409 111.272 17.849 111.272C19.557 111.272 26.7638 114.355 24.7017 114.355C22.6397 114.355 17.6198 115.375 17.6198 115.375C17.6198 115.375 23.327 120.353 22.6397 120.687C21.9523 121.02 15.0996 118.979 15.0996 118.979C15.0996 118.979 15.4536 121.728 15.3911 123.79C5.30982 119.166 -3.77161 112.647 -7.87493 108.356C-15.061 100.837 -12.3115 102.899 -3.58415 105.127Z" fill="white"/>
<path d="M75.7538 34.0586C75.7538 34.0586 68.422 26.1436 68.2137 27.1225C68.0054 28.1015 68.2137 36.0998 68.2137 36.0998C68.2137 36.0998 71.0464 34.9335 72.067 34.7252C73.1084 34.5377 75.7538 34.0586 75.7538 34.0586Z" fill="white"/>
<path d="M85.1059 22.5401C84.5227 22.2277 84.3561 23.0816 84.3353 24.5813C84.2936 26.081 84.2936 30.1636 84.2936 30.1636L90.0007 28.8721C90.0007 28.8929 85.6892 22.8525 85.1059 22.5401Z" fill="white"/>
<path d="M89.1051 40.6823C89.1051 44.0149 92.4794 47.6808 96.3744 47.6808C99.2905 47.6808 102.644 44.5564 100.957 40.1199C99.4155 36.0374 96.9785 35.2043 93.9374 35.6208C91.0422 35.9958 89.1051 37.3705 89.1051 40.6823Z" fill="white"/>
<path d="M94.2083 42.0778C94.2083 42.5985 93.7917 43.0151 93.271 43.0151C92.7502 43.0151 92.3336 42.5985 92.3336 42.0778C92.3336 41.557 92.7502 41.1404 93.271 41.1404C93.7917 41.1404 94.2083 41.557 94.2083 42.0778Z" fill="black"/>
<path d="M80.2111 106.065C80.2111 106.065 80.6487 88.2767 74.9832 80.0909C72.6503 76.7166 64.2979 73.8422 64.2979 73.8422L65.4226 72.2592C65.4226 72.2592 73.1502 74.3004 77.8367 80.2159C82.8149 86.4854 83.7938 106.065 83.7938 106.065H80.2111Z" fill="black"/>
<path d="M104.415 55.8666C104.415 55.8666 104.081 60.8448 101.332 60.6781C98.5824 60.5115 98.4158 55.2001 98.4158 55.2001" stroke="black" stroke-width="0.494" stroke-linecap="round"/>
<g opacity="0.8">
<g opacity="0.8">
<path opacity="0.8" d="M38.2579 45.0304C38.2579 45.0304 31.8185 38.7863 25.4509 32.9757C17.2049 29.0207 15.9337 28.4528 15.4533 29.4852C14.6 31.3061 15.1308 31.6825 14.7013 38.4334C16.8522 46.8705 19.6252 55.7029 19.6252 55.7029C19.6252 55.7029 27.8432 65.1602 34.4683 60.6453C41.0679 56.1156 38.2579 45.0304 38.2579 45.0304Z" fill="#D3CACA"/>
<path opacity="0.8" d="M38.2579 45.0304C38.2579 45.0304 31.8185 38.7863 25.4509 32.9757C17.2049 29.0207 15.9337 28.4528 15.4533 29.4852C14.6 31.3061 15.1308 31.6825 14.7013 38.4334C16.8522 46.8705 19.6252 55.7029 19.6252 55.7029C19.6252 55.7029 27.8432 65.1602 34.4683 60.6453C41.0679 56.1156 38.2579 45.0304 38.2579 45.0304Z" stroke="#D3D2C2" stroke-width="0.113" stroke-linecap="round"/>
</g>
</g>
<path d="M38.258 45.0303C38.258 45.0303 38.6813 50.2836 36.3499 50.8372C34.2252 51.3574 32.1484 48.4819 32.1484 48.4819C32.1484 48.4819 33.0096 53.2744 31.1765 54.4069C28.8077 55.8754 25.4345 52.0937 25.4345 52.0937C25.4345 52.0937 26.7093 56.8196 24.2838 57.5058C21.7577 58.2187 19.585 55.7134 19.585 55.7134L51.4999 108.299L64.7306 99.6837L38.258 45.0303Z" fill="#ED1C24"/>
<path d="M64.7656 99.6529C64.7656 99.6529 66.7162 106.441 60.7926 110.188C54.869 113.935 51.52 108.294 51.52 108.294L64.7656 99.6529Z" fill="black"/>
<path d="M25.454 32.9747C23.4253 34.9133 20.9167 36.5051 18.0265 37.5516C16.9257 37.9512 15.813 38.2247 14.7044 38.4325C12.9592 31.5255 11.2055 24.0175 12.0641 22.2168C12.5297 21.2098 19.2043 27.2837 25.454 32.9747Z" fill="#ED1C24"/>
<path d="M37.3609 85.3706C37.3557 87.1389 37.8759 90.3196 39.2863 91.0877C40.1979 91.6002 45.0079 92.6735 45.3915 90.8695C45.6225 89.7092 43.4155 88.6998 43.4155 88.6998C43.4155 88.6998 45.0525 87.6408 45.3534 86.4189C45.7974 84.5988 42.0604 85.7837 42.0604 85.7837C42.0604 85.7837 45.6793 82.6908 43.2316 81.0987C41.753 80.1548 40.3187 80.1903 37.3609 85.3706Z" fill="#F7941D"/>
</g>
<path d="M175.537 78L174.502 74.6016H169.297L168.262 78H165L170.039 63.6641H173.74L178.799 78H175.537ZM173.779 72.0625C172.822 68.9831 172.282 67.2415 172.158 66.8379C172.041 66.4342 171.956 66.1152 171.904 65.8809C171.689 66.7142 171.074 68.7747 170.059 72.0625H173.779ZM170.283 62.5801V62.3164C171.403 61.0143 172.168 60.0345 172.578 59.377H175.918V59.582C175.579 59.9206 175 60.4251 174.18 61.0957C173.366 61.7598 172.728 62.2546 172.266 62.5801H170.283ZM180.605 78V63.7227H183.633V75.5H189.424V78H180.605ZM191.914 63.7227H196.357C198.382 63.7227 199.85 64.0124 200.762 64.5918C201.68 65.1647 202.139 66.0794 202.139 67.3359C202.139 68.1888 201.937 68.8887 201.533 69.4355C201.136 69.9824 200.605 70.3112 199.941 70.4219V70.5195C200.846 70.7214 201.497 71.099 201.895 71.6523C202.298 72.2057 202.5 72.9414 202.5 73.8594C202.5 75.1615 202.028 76.1771 201.084 76.9062C200.146 77.6354 198.87 78 197.256 78H191.914V63.7227ZM194.941 69.377H196.699C197.52 69.377 198.112 69.25 198.477 68.9961C198.848 68.7422 199.033 68.3223 199.033 67.7363C199.033 67.1895 198.831 66.7988 198.428 66.5645C198.031 66.3236 197.399 66.2031 196.533 66.2031H194.941V69.377ZM194.941 71.7793V75.5H196.914C197.747 75.5 198.363 75.3405 198.76 75.0215C199.157 74.7025 199.355 74.2142 199.355 73.5566C199.355 72.3717 198.509 71.7793 196.816 71.7793H194.941ZM216.973 63.7227V72.9609C216.973 74.0156 216.735 74.9401 216.26 75.7344C215.791 76.5286 215.111 77.1374 214.219 77.5605C213.327 77.9837 212.272 78.1953 211.055 78.1953C209.219 78.1953 207.793 77.7266 206.777 76.7891C205.762 75.8451 205.254 74.556 205.254 72.9219V63.7227H208.271V72.4629C208.271 73.5632 208.493 74.3704 208.936 74.8848C209.378 75.3991 210.111 75.6562 211.133 75.6562C212.122 75.6562 212.839 75.3991 213.281 74.8848C213.73 74.3639 213.955 73.5501 213.955 72.4434V63.7227H216.973ZM226.514 78L223.076 66.7988H222.988C223.112 69.0775 223.174 70.5977 223.174 71.3594V78H220.469V63.7227H224.59L227.969 74.6406H228.027L231.611 63.7227H235.732V78H232.91V71.2422C232.91 70.9232 232.913 70.5553 232.92 70.1387C232.933 69.722 232.979 68.6152 233.057 66.8184H232.969L229.287 78H226.514ZM256.377 70.7246C256.377 73.0749 255.706 74.875 254.365 76.125C253.031 77.375 251.1 78 248.574 78H244.531V63.7227H249.014C251.344 63.7227 253.154 64.3379 254.443 65.5684C255.732 66.7988 256.377 68.5176 256.377 70.7246ZM253.232 70.8027C253.232 67.7363 251.878 66.2031 249.17 66.2031H247.559V75.5H248.857C251.774 75.5 253.232 73.9342 253.232 70.8027ZM267.559 78H259.336V63.7227H267.559V66.2031H262.363V69.3379H267.197V71.8184H262.363V75.5H267.559V78ZM278.77 70.4414H279.766C280.697 70.4414 281.393 70.2591 281.855 69.8945C282.318 69.5234 282.549 68.9863 282.549 68.2832C282.549 67.5736 282.354 67.0495 281.963 66.7109C281.579 66.3724 280.973 66.2031 280.146 66.2031H278.77V70.4414ZM285.605 68.1758C285.605 69.7122 285.124 70.8874 284.16 71.7012C283.203 72.515 281.839 72.9219 280.068 72.9219H278.77V78H275.742V63.7227H280.303C282.035 63.7227 283.35 64.097 284.248 64.8457C285.153 65.5879 285.605 66.6979 285.605 68.1758ZM297.041 78L296.006 74.6016H290.801L289.766 78H286.504L291.543 63.6641H295.244L300.303 78H297.041ZM295.283 72.0625C294.326 68.9831 293.786 67.2415 293.662 66.8379C293.545 66.4342 293.46 66.1152 293.408 65.8809C293.193 66.7142 292.578 68.7747 291.562 72.0625H295.283ZM302.109 78V63.7227H305.137V75.5H310.928V78H302.109ZM322.158 78L321.123 74.6016H315.918L314.883 78H311.621L316.66 63.6641H320.361L325.42 78H322.158ZM320.4 72.0625C319.443 68.9831 318.903 67.2415 318.779 66.8379C318.662 66.4342 318.577 66.1152 318.525 65.8809C318.311 66.7142 317.695 68.7747 316.68 72.0625H320.4ZM327.227 63.7227H331.67C333.695 63.7227 335.163 64.0124 336.074 64.5918C336.992 65.1647 337.451 66.0794 337.451 67.3359C337.451 68.1888 337.249 68.8887 336.846 69.4355C336.449 69.9824 335.918 70.3112 335.254 70.4219V70.5195C336.159 70.7214 336.81 71.099 337.207 71.6523C337.611 72.2057 337.812 72.9414 337.812 73.8594C337.812 75.1615 337.34 76.1771 336.396 76.9062C335.459 77.6354 334.183 78 332.568 78H327.227V63.7227ZM330.254 69.377H332.012C332.832 69.377 333.424 69.25 333.789 68.9961C334.16 68.7422 334.346 68.3223 334.346 67.7363C334.346 67.1895 334.144 66.7988 333.74 66.5645C333.343 66.3236 332.712 66.2031 331.846 66.2031H330.254V69.377ZM330.254 71.7793V75.5H332.227C333.06 75.5 333.675 75.3405 334.072 75.0215C334.469 74.7025 334.668 74.2142 334.668 73.5566C334.668 72.3717 333.822 71.7793 332.129 71.7793H330.254ZM343.691 70.0605H344.668C345.625 70.0605 346.331 69.901 346.787 69.582C347.243 69.263 347.471 68.7617 347.471 68.0781C347.471 67.401 347.236 66.9193 346.768 66.6328C346.305 66.3464 345.586 66.2031 344.609 66.2031H343.691V70.0605ZM343.691 72.5215V78H340.664V63.7227H344.824C346.764 63.7227 348.2 64.0775 349.131 64.7871C350.062 65.4902 350.527 66.5612 350.527 68C350.527 68.8398 350.296 69.5885 349.834 70.2461C349.372 70.8971 348.717 71.4082 347.871 71.7793C350.02 74.9889 351.419 77.0625 352.07 78H348.711L345.303 72.5215H343.691ZM362.607 78L361.572 74.6016H356.367L355.332 78H352.07L357.109 63.6641H360.811L365.869 78H362.607ZM360.85 72.0625C359.893 68.9831 359.352 67.2415 359.229 66.8379C359.111 66.4342 359.027 66.1152 358.975 65.8809C358.76 66.7142 358.145 68.7747 357.129 72.0625H360.85ZM376.104 74.0352C376.104 75.3242 375.638 76.3398 374.707 77.082C373.783 77.8242 372.493 78.1953 370.84 78.1953C369.316 78.1953 367.969 77.9089 366.797 77.3359V74.5234C367.76 74.9531 368.574 75.2559 369.238 75.4316C369.909 75.6074 370.521 75.6953 371.074 75.6953C371.738 75.6953 372.246 75.5684 372.598 75.3145C372.956 75.0605 373.135 74.6829 373.135 74.1816C373.135 73.9017 373.057 73.6543 372.9 73.4395C372.744 73.2181 372.513 73.0065 372.207 72.8047C371.908 72.6029 371.292 72.2806 370.361 71.8379C369.489 71.4277 368.835 71.0339 368.398 70.6562C367.962 70.2786 367.614 69.8392 367.354 69.3379C367.093 68.8366 366.963 68.2507 366.963 67.5801C366.963 66.3171 367.389 65.3242 368.242 64.6016C369.102 63.8789 370.286 63.5176 371.797 63.5176C372.539 63.5176 373.245 63.6055 373.916 63.7812C374.593 63.957 375.299 64.2044 376.035 64.5234L375.059 66.877C374.297 66.5645 373.665 66.3464 373.164 66.2227C372.669 66.099 372.181 66.0371 371.699 66.0371C371.126 66.0371 370.687 66.1706 370.381 66.4375C370.075 66.7044 369.922 67.0527 369.922 67.4824C369.922 67.7493 369.984 67.9837 370.107 68.1855C370.231 68.3809 370.426 68.5729 370.693 68.7617C370.967 68.944 371.608 69.276 372.617 69.7578C373.952 70.3958 374.867 71.0371 375.361 71.6816C375.856 72.3197 376.104 73.1042 376.104 74.0352Z" fill="#F3DF00"/>
</svg>
