<svg width="449" height="108" viewBox="0 0 449 108" fill="none" xmlns="http://www.w3.org/2000/svg">
<path d="M449 108L44.444 108L11 74.5L44.444 41L449 41L449 108Z" fill="#F3DF00"/>
<path d="M444.5 101.5L40.6514 101.5L7.70652 68.5L40.6514 35.5L444.5 35.5L444.5 101.5Z" fill="black" stroke="#F3DF00"/>
<mask id="mask0" mask-type="alpha" maskUnits="userSpaceOnUse" x="0" y="0" width="162" height="101">
<rect width="162" height="101" fill="#C4C4C4"/>
</mask>
<g mask="url(#mask0)">
<path d="M112.07 107.636C111.758 106.723 111.088 104.271 111.088 104.271C111.088 104.271 115.356 97.8867 115.794 98.6493C116.253 99.4196 116.979 100.26 117.486 101.655C117.985 103.073 119.086 110.179 119.086 110.179L114.382 112.199C114.375 112.221 112.949 110.185 112.07 107.636Z" fill="#DDCEB1"/>
<path d="M77.0516 134.252C64.8063 131.479 61.0917 125.791 60.6709 117.595L77.8012 114.547L91.7579 114.301C98.9432 115.546 101.83 117.369 104.719 119.803C106.57 122.788 105.792 123.242 106.206 125.978C106.206 125.978 108.448 129.034 103.003 133.123C97.5577 137.213 97.706 135.788 88.9352 135.719L77.0516 134.252Z" fill="black"/>
<path d="M94.1893 122.607C83.6149 125.93 78.9896 125.827 73.6321 121.293L83.6229 105.957L94.9742 97.8335C101.597 94.7804 105.008 94.6435 108.768 95.0076C111.986 96.4148 112.638 96.4354 114.532 98.4532C114.532 98.4532 117.078 100.492 114.915 106.949C112.753 113.406 112.066 112.149 104.806 117.07L94.1893 122.607Z" fill="black"/>
<path d="M82.2972 62.6108H66.9814V87.1115H82.2972V62.6108Z" fill="#CEBB9D"/>
<path d="M47.2107 59.2581C47.2107 59.2581 46.7515 61.0033 45.6722 62.1744C44.593 63.3455 42.0442 64.3788 42.0442 64.3788C42.0442 64.3788 46.453 66.3076 49.2773 63.8506C51.6654 61.784 51.3898 59.9011 51.3898 59.9011L48.0374 56.7323L47.2107 59.2581Z" fill="black"/>
<path d="M111.915 97.5796C111.915 97.5796 118.116 103.576 119.458 102.759C120.801 101.942 117.159 98.8532 117.159 98.8532C117.159 98.8532 121.033 101.316 121.917 99.9028C122.782 98.5146 118.134 96.9909 118.134 96.9909C118.134 96.9909 122.667 97.6726 123.176 96.2077C123.663 94.7453 118.794 94.5855 118.794 94.5855C118.794 94.5855 120.849 92.2583 119.747 91.686C118.645 91.1137 114.056 94.1343 114.056 94.1343L111.915 97.5796Z" fill="#DDCEB1"/>
<path d="M117.283 101.454C117.283 101.454 117.386 103.198 116.366 105.363C115.709 106.745 113.841 109.099 113.841 109.099L112.71 108.187C112.71 108.187 113.872 106.779 114.888 103.903C115.271 102.844 115.692 100.384 115.692 100.384L117.283 101.454Z" fill="black"/>
<path d="M61.0571 70.6245C61.0571 70.6245 66.4762 70.2341 69.7598 71.8874C72.1019 74.6658 78.6692 79.5109 78.6692 79.5109C78.6692 79.5109 79.9781 74.6199 80.7818 67.7312C81.4477 67.1571 82.9631 69.2008 82.9631 69.2008C82.9631 69.2008 88.8415 79.442 90.1963 92.5076C91.0459 100.774 95.2207 114.124 92.1208 114.767C88.0795 116.374 76.0286 119.328 68.1066 118.777C60.4601 118.248 59.932 117.537 59.6564 112.875C59.3809 108.214 62.5726 91.3365 62.5726 91.3365C62.5726 91.3365 58.1409 99.9244 57.7275 105.55C57.3372 111.199 57.2912 123.972 54.8343 124.247C52.7217 124.5 45.4656 124.913 45.5116 122.02C45.6034 116.692 47.6472 101.738 50.6323 93.3112C55.1788 80.5442 61.0571 70.6245 61.0571 70.6245Z" fill="#2BB673"/>
<path d="M78.7443 66.8947C78.7443 66.8947 93.3492 77.7332 98.2447 81.4338C106.9 87.9608 114.68 88.5568 115.469 91.0287C116.518 94.2615 113.052 100.07 111.587 99.9948C107.54 99.7333 93.303 90.0066 87.7434 81.0551C84.4032 75.6231 78.7443 66.8947 78.7443 66.8947Z" fill="#2BB673"/>
<path d="M76.7863 90.9233L83.8587 81.5546L78.6692 79.5109L74.7886 83.3686C74.7886 83.3686 85.1447 88.6499 86.3617 88.9944" stroke="#037875" stroke-width="0.378" stroke-linecap="round"/>
<path d="M75.2708 83.5753C75.2708 84.1953 74.7657 84.6775 74.1457 84.6545C73.5257 84.6545 73.0434 84.1494 73.0434 83.5523C73.0434 82.9553 73.5487 82.4502 74.1687 82.4502C74.7887 82.4502 75.2938 82.9553 75.2708 83.5753Z" fill="black"/>
<path d="M83.3765 81.4168C83.3765 82.0368 83.8588 82.542 84.4788 82.542C85.0987 82.542 85.6039 82.0598 85.6039 81.4398C85.6039 80.8198 85.1217 80.3147 84.5017 80.3147C83.8818 80.3147 83.3765 80.8198 83.3765 81.4168Z" fill="black"/>
<path d="M77.4982 91.2907C77.4982 91.9107 76.9701 92.4158 76.3272 92.4158C75.6843 92.4158 75.179 91.8877 75.2019 91.2677C75.2019 90.6248 75.7301 90.1196 76.373 90.1426C76.993 90.1426 77.4982 90.6707 77.4982 91.2907Z" fill="black"/>
<path d="M85.2593 89.1321C85.2593 89.7521 85.7416 90.2343 86.3616 90.2343C86.9816 90.2343 87.4638 89.7521 87.4868 89.1551C87.4868 88.5351 87.0045 88.053 86.3845 88.053C85.7645 88.03 85.2593 88.5122 85.2593 89.1321Z" fill="black"/>
<path d="M43.2614 40.1536C43.2614 40.1536 46.1546 55.8828 51.9641 64.287C57.5439 72.3697 70.1044 74.0919 79.0367 71.1527C87.9691 68.2135 94.1459 56.4569 93.2044 46.9964C91.9415 34.3672 83.675 21.5771 83.1239 20.9571C79.9781 17.4898 65.9482 23.5749 57.6588 27.754C49.3464 31.9102 43.2614 40.1536 43.2614 40.1536Z" fill="#DDCEB1"/>
<path d="M85.627 21.8067C92.6305 19.3267 91.8498 5.64129 82.4811 4.10281C73.8932 2.70211 63.3764 7.17966 55.8448 11.3129C51.7804 13.5632 31.6655 16.778 27.4634 27.2947C21.4472 42.358 42.6874 48.3971 45.2362 40.8425C45.2362 40.8425 57.9573 29.4991 70.908 25.5725C78.233 23.3452 85.627 21.8067 85.627 21.8067Z" fill="#2BB673"/>
<path d="M54.421 33.747C54.421 33.747 49.2315 25.6644 46.0856 23.1844C45.0753 22.3578 42.6872 20.6127 42.6872 20.6127L41.9524 25.6184L38.6688 18.0179C38.6688 18.0179 37.4749 17.0994 31.4128 15.7447L25.3277 14.3898L25.81 19.8089L21.1716 13.1269C21.1716 13.1269 17.1073 13.058 12.0326 13.9076C6.95793 14.7342 -2.13525 16.112 -2.13525 16.112C-2.13525 16.112 6.86603 20.4749 9.82817 22.7481C12.7673 25.0214 14.6962 25.6184 14.6962 25.6184L21.2404 21.1637L16.4413 26.7436L29.0476 29.8204L34.9719 25.2051L31.5046 30.2567C31.5046 30.2567 43.2843 32.9433 45.6953 32.8745C48.1063 32.7597 54.421 33.747 54.421 33.747Z" fill="#D3D2C2"/>
<path d="M85.9942 25.7332C85.9942 25.7332 75.6841 27.134 64.5703 32.2316C54.6047 36.8011 48.0605 42.1971 43.8354 45.343C41.1488 45.5037 42.5036 40.7965 42.5036 40.7965C42.5036 40.7965 50.2648 33.5862 61.4475 28.8101C74.8575 23.0695 78.6692 22.5643 85.0068 21.9214C87.923 23.2991 85.9942 25.7332 85.9942 25.7332Z" fill="#26945F"/>
<path d="M52.5151 32.4382C52.5151 32.4382 41.4015 25.9858 31.6884 22.7482C17.7503 18.0868 4.70767 17.2601 4.70767 17.2601" stroke="#AFAE9E" stroke-width="0.251" stroke-miterlimit="10" stroke-linecap="round" stroke-linejoin="round"/>
<path d="M34.949 22.6334L32.6988 17.5816" stroke="#AFAE9E" stroke-width="0.251" stroke-miterlimit="10" stroke-linecap="round" stroke-linejoin="round"/>
<path d="M23.0545 26.491L26.8892 23.2303" stroke="#AFAE9E" stroke-width="0.251" stroke-miterlimit="10" stroke-linecap="round" stroke-linejoin="round"/>
<path d="M37.0846 30.5095L40.2074 27.708" stroke="#AFAE9E" stroke-width="0.251" stroke-miterlimit="10" stroke-linecap="round" stroke-linejoin="round"/>
<path d="M75.9596 44.6082C75.9596 44.6082 80.9884 46.3763 82.435 46.4682C83.9046 46.56 85.1216 47.3637 82.2513 49.3615C79.381 51.3592 77.1767 51.3592 77.1767 51.3592" stroke="black" stroke-width="0.378" stroke-linecap="round"/>
<path d="M71.2754 58.4316C71.2754 58.4316 71.8035 61.7382 74.8575 62.6567C77.9115 63.5752 80.2766 60.9804 80.2766 60.9804" stroke="black" stroke-width="0.378" stroke-linecap="round"/>
<path fill-rule="evenodd" clip-rule="evenodd" d="M63.0088 36.6174C59.5874 37.1455 57.7735 39.3958 58.095 42.8172C58.4394 46.2616 60.5519 48.6267 63.8126 48.3052C67.0503 48.0067 69.1858 45.2512 68.8643 41.8069C68.5199 38.3855 66.2236 36.1352 63.0088 36.6174Z" fill="white"/>
<path fill-rule="evenodd" clip-rule="evenodd" d="M65.42 40.2684C64.7311 40.3373 64.4555 40.7965 64.5015 41.4624C64.5704 42.1283 65.0067 42.6106 65.6726 42.5417C66.3385 42.4728 66.7976 41.9447 66.7287 41.2558C66.7058 40.5899 66.1089 40.1996 65.42 40.2684Z" fill="black"/>
<path fill-rule="evenodd" clip-rule="evenodd" d="M83.7439 31.4968C80.8047 31.7953 79.5417 33.9768 79.8632 37.0767C80.1847 40.1766 82.1135 42.289 85.0527 42.0135C87.9689 41.715 89.8747 39.2122 89.5762 36.1123C89.2318 33.0124 86.6601 31.1983 83.7439 31.4968Z" fill="white"/>
<path fill-rule="evenodd" clip-rule="evenodd" d="M86.4764 34.9182C85.8564 34.9871 85.6037 35.4004 85.6726 36.0204C85.7415 36.6174 86.1319 37.0308 86.7289 36.9849C87.3489 36.916 87.7392 36.4338 87.6933 35.8138C87.6244 35.2167 87.0734 34.8493 86.4764 34.9182Z" fill="black"/>
<path d="M41.8836 47.6392C40.2074 48.8103 34.926 49.8207 34.926 49.8207C34.926 49.8207 36.3956 51.8644 39.4267 52.0021C40.3681 52.0481 41.5851 51.8874 41.5851 51.8874C41.5851 51.8874 40.4829 53.3339 38.3703 53.6554C36.5104 53.9539 34.6275 53.8391 34.6275 53.8391C34.7193 54.8494 39.6333 58.9597 43.3073 56.0205C42.0444 58.8449 37.0615 59.7404 37.0615 59.7404C37.0615 59.7404 44.0421 63.1388 47.4635 59.8092C48.2212 59.0745 48.7952 58.4316 48.7952 58.4316C48.7952 58.4316 46.0168 51.8643 45.8561 50.5095C45.6953 49.2696 43.8584 45.366 43.8584 45.366C43.8584 45.366 43.9732 46.1697 41.8836 47.6392Z" fill="black"/>
<path d="M47.0042 48.3741C47.0042 48.3741 42.1362 49.1548 42.4577 52.2317C42.7332 54.9643 45.3049 55.4695 47.096 55.3317C48.887 55.194 49.2544 54.5969 49.2544 54.5969L47.0042 48.3741Z" fill="#DDCEB1"/>
<path d="M43.491 46.3994C43.491 46.3994 44.0422 47.5245 42.9629 48.6956C41.8837 49.8667 36.6253 51.2674 36.6253 51.2674C36.6253 51.2674 40.6896 53.6096 44.3866 50.6015C46.8435 48.6038 49.7368 40.9573 49.7368 40.9573L43.8125 45.3661L43.491 46.3994Z" fill="black"/>
</g>
<path d="M175.02 77H166.797V62.7227H175.02V65.2031H169.824V68.3379H174.658V70.8184H169.824V74.5H175.02V77ZM178.008 77V62.7227H181.035V74.5H186.826V77H178.008ZM200.576 65.0371C199.437 65.0371 198.555 65.4668 197.93 66.3262C197.305 67.179 196.992 68.3704 196.992 69.9004C196.992 73.084 198.187 74.6758 200.576 74.6758C201.579 74.6758 202.793 74.4251 204.219 73.9238V76.4629C203.047 76.9512 201.738 77.1953 200.293 77.1953C198.216 77.1953 196.628 76.5671 195.527 75.3105C194.427 74.0475 193.877 72.2376 193.877 69.8809C193.877 68.3965 194.147 67.0977 194.688 65.9844C195.228 64.8646 196.003 64.0085 197.012 63.416C198.027 62.8171 199.215 62.5176 200.576 62.5176C201.963 62.5176 203.356 62.8529 204.756 63.5234L203.779 65.9844C203.245 65.7305 202.708 65.5091 202.168 65.3203C201.628 65.1315 201.097 65.0371 200.576 65.0371ZM216.006 77L214.971 73.6016H209.766L208.73 77H205.469L210.508 62.6641H214.209L219.268 77H216.006ZM214.248 71.0625C213.291 67.9831 212.751 66.2415 212.627 65.8379C212.51 65.4342 212.425 65.1152 212.373 64.8809C212.158 65.7142 211.543 67.7747 210.527 71.0625H214.248ZM229.502 73.0352C229.502 74.3242 229.036 75.3398 228.105 76.082C227.181 76.8242 225.892 77.1953 224.238 77.1953C222.715 77.1953 221.367 76.9089 220.195 76.3359V73.5234C221.159 73.9531 221.973 74.2559 222.637 74.4316C223.307 74.6074 223.919 74.6953 224.473 74.6953C225.137 74.6953 225.645 74.5684 225.996 74.3145C226.354 74.0605 226.533 73.6829 226.533 73.1816C226.533 72.9017 226.455 72.6543 226.299 72.4395C226.143 72.2181 225.911 72.0065 225.605 71.8047C225.306 71.6029 224.691 71.2806 223.76 70.8379C222.887 70.4277 222.233 70.0339 221.797 69.6562C221.361 69.2786 221.012 68.8392 220.752 68.3379C220.492 67.8366 220.361 67.2507 220.361 66.5801C220.361 65.3171 220.788 64.3242 221.641 63.6016C222.5 62.8789 223.685 62.5176 225.195 62.5176C225.938 62.5176 226.644 62.6055 227.314 62.7812C227.992 62.957 228.698 63.2044 229.434 63.5234L228.457 65.877C227.695 65.5645 227.064 65.3464 226.562 65.2227C226.068 65.099 225.579 65.0371 225.098 65.0371C224.525 65.0371 224.085 65.1706 223.779 65.4375C223.473 65.7044 223.32 66.0527 223.32 66.4824C223.32 66.7493 223.382 66.9837 223.506 67.1855C223.63 67.3809 223.825 67.5729 224.092 67.7617C224.365 67.944 225.007 68.276 226.016 68.7578C227.35 69.3958 228.265 70.0371 228.76 70.6816C229.255 71.3197 229.502 72.1042 229.502 73.0352ZM237.598 77H234.57V65.2422H230.693V62.7227H241.475V65.2422H237.598V77ZM243.672 77V62.7227H246.699V77H243.672ZM250.293 77V62.7227H253.32V74.5H259.111V77H250.293ZM261.602 77V62.7227H264.629V74.5H270.42V77H261.602ZM285.869 69.8418C285.869 72.2051 285.283 74.0215 284.111 75.291C282.939 76.5605 281.26 77.1953 279.072 77.1953C276.885 77.1953 275.205 76.5605 274.033 75.291C272.861 74.0215 272.275 72.1986 272.275 69.8223C272.275 67.446 272.861 65.6328 274.033 64.3828C275.212 63.1263 276.898 62.498 279.092 62.498C281.286 62.498 282.962 63.1296 284.121 64.3926C285.286 65.6556 285.869 67.472 285.869 69.8418ZM275.449 69.8418C275.449 71.4368 275.752 72.638 276.357 73.4453C276.963 74.2526 277.868 74.6562 279.072 74.6562C281.488 74.6562 282.695 73.0514 282.695 69.8418C282.695 66.6257 281.494 65.0176 279.092 65.0176C277.887 65.0176 276.979 65.4245 276.367 66.2383C275.755 67.0456 275.449 68.2467 275.449 69.8418ZM302.246 77H294.023V62.7227H302.246V65.2031H297.051V68.3379H301.885V70.8184H297.051V74.5H302.246V77ZM317.9 77H314.053L307.842 66.1992H307.754C307.878 68.1068 307.939 69.4674 307.939 70.2812V77H305.234V62.7227H309.053L315.254 73.416H315.322C315.225 71.5605 315.176 70.2487 315.176 69.4805V62.7227H317.9V77ZM327.568 65.0371C326.429 65.0371 325.547 65.4668 324.922 66.3262C324.297 67.179 323.984 68.3704 323.984 69.9004C323.984 73.084 325.179 74.6758 327.568 74.6758C328.571 74.6758 329.785 74.4251 331.211 73.9238V76.4629C330.039 76.9512 328.73 77.1953 327.285 77.1953C325.208 77.1953 323.62 76.5671 322.52 75.3105C321.419 74.0475 320.869 72.2376 320.869 69.8809C320.869 68.3965 321.139 67.0977 321.68 65.9844C322.22 64.8646 322.995 64.0085 324.004 63.416C325.02 62.8171 326.208 62.5176 327.568 62.5176C328.955 62.5176 330.348 62.8529 331.748 63.5234L330.771 65.9844C330.238 65.7305 329.701 65.5091 329.16 65.3203C328.62 65.1315 328.089 65.0371 327.568 65.0371ZM342.998 77L341.963 73.6016H336.758L335.723 77H332.461L337.5 62.6641H341.201L346.26 77H342.998ZM341.24 71.0625C340.283 67.9831 339.743 66.2415 339.619 65.8379C339.502 65.4342 339.417 65.1152 339.365 64.8809C339.15 65.7142 338.535 67.7747 337.52 71.0625H341.24ZM360.732 77H356.885L350.674 66.1992H350.586C350.71 68.1068 350.771 69.4674 350.771 70.2812V77H348.066V62.7227H351.885L358.086 73.416H358.154C358.057 71.5605 358.008 70.2487 358.008 69.4805V62.7227H360.732V77ZM369.844 77H366.816V65.2422H362.939V62.7227H373.721V65.2422H369.844V77ZM384.658 77L383.623 73.6016H378.418L377.383 77H374.121L379.16 62.6641H382.861L387.92 77H384.658ZM382.9 71.0625C381.943 67.9831 381.403 66.2415 381.279 65.8379C381.162 65.4342 381.077 65.1152 381.025 64.8809C380.811 65.7142 380.195 67.7747 379.18 71.0625H382.9ZM401.572 69.7246C401.572 72.0749 400.902 73.875 399.561 75.125C398.226 76.375 396.296 77 393.77 77H389.727V62.7227H394.209C396.54 62.7227 398.35 63.3379 399.639 64.5684C400.928 65.7988 401.572 67.5176 401.572 69.7246ZM398.428 69.8027C398.428 66.7363 397.074 65.2031 394.365 65.2031H392.754V74.5H394.053C396.969 74.5 398.428 72.9342 398.428 69.8027ZM417.49 69.8418C417.49 72.2051 416.904 74.0215 415.732 75.291C414.561 76.5605 412.881 77.1953 410.693 77.1953C408.506 77.1953 406.826 76.5605 405.654 75.291C404.482 74.0215 403.896 72.1986 403.896 69.8223C403.896 67.446 404.482 65.6328 405.654 64.3828C406.833 63.1263 408.519 62.498 410.713 62.498C412.907 62.498 414.583 63.1296 415.742 64.3926C416.908 65.6556 417.49 67.472 417.49 69.8418ZM407.07 69.8418C407.07 71.4368 407.373 72.638 407.979 73.4453C408.584 74.2526 409.489 74.6562 410.693 74.6562C413.109 74.6562 414.316 73.0514 414.316 69.8418C414.316 66.6257 413.115 65.0176 410.713 65.0176C409.508 65.0176 408.6 65.4245 407.988 66.2383C407.376 67.0456 407.07 68.2467 407.07 69.8418Z" fill="#F3DF00"/>
</svg>
