<?xml version="1.0" encoding="UTF-8" standalone="no"?>
<!-- Generator: Adobe Illustrator 26.5.0, SVG Export Plug-In . SVG Version: 6.00 Build 0)  -->

<svg
   version="1.1"
   id="Capa_1"
   x="0px"
   y="0px"
   viewBox="0 0 503 102"
   style="enable-background:new 0 0 503 102;"
   xml:space="preserve"
   sodipodi:docname="svgIndexVenancio.svg"
   inkscape:version="1.2.1 (9c6d41e410, 2022-07-14)"
   xmlns:inkscape="http://www.inkscape.org/namespaces/inkscape"
   xmlns:sodipodi="http://sodipodi.sourceforge.net/DTD/sodipodi-0.dtd"
   xmlns="http://www.w3.org/2000/svg"
   xmlns:svg="http://www.w3.org/2000/svg"><defs
   id="defs1799" /><sodipodi:namedview
   id="namedview1797"
   pagecolor="#ffffff"
   bordercolor="#000000"
   borderopacity="0.25"
   inkscape:showpageshadow="2"
   inkscape:pageopacity="0.0"
   inkscape:pagecheckerboard="0"
   inkscape:deskcolor="#d1d1d1"
   showgrid="false"
   inkscape:zoom="3.2465209"
   inkscape:cx="251.34599"
   inkscape:cy="51.13166"
   inkscape:window-width="3840"
   inkscape:window-height="2066"
   inkscape:window-x="-11"
   inkscape:window-y="-11"
   inkscape:window-maximized="1"
   inkscape:current-layer="Capa_1" />
<style
   type="text/css"
   id="style1772">
	.st0{fill:#00A5A5;}
	.st1{fill:#A35625;}
	.st2{fill:#7A411B;}
	.st3{fill:#B7682A;}
	.st4{fill:#553838;}
	.st5{fill:#FFFFFF;}
</style>
<path
   class="st0"
   d="m 492.61604,35.308021 h -4 -41 H 34.016044 L 0.61604407,68.808022 34.016044,102.30802 h 413.599996 41 4 c 6.1,0 11,-4.899998 11,-10.999998 v -45 c 0,-6.100001 -4.9,-11.000001 -11,-11.000001 z"
   id="path1774" />









<g
   id="g2282"
   transform="translate(-45.895285,-2.1561543)"><path
     class="st1"
     d="m 44.4,109.4 c 0.5,0.3 0.8,8 0,8.5 -3,1.5 -15.9,5.8 -27.5,-3.4 -4.4,-3.5 -5.6,-8.6 -6.3,-14 3.6,5.5 6.7,11.3 19.7,12.1 2.9,0.3 10.9,-1.9 14.1,-3.2 z"
     id="path1776" /><path
     class="st2"
     d="m 95.5,78.3 c 3.4,5.3 6,16.8 7.8,21.5 1.8,5 3,12.2 4.8,11.5 6.1,-2.6 9.9,5.9 2.5,4.5 1.3,0.2 4.4,2.3 3.7,3.8 -1.1,2.6 -5.4,0.6 -6.5,-0.8 1.8,2.4 3.1,5 -1.6,4.4 -3.5,-0.5 -3.9,-4.3 -3.9,-7 C 102,110.9 95,94.8 91.8,86.1 88.2,76.8 93.9,75.8 95.5,78.3 Z"
     id="path1778" /><path
     class="st2"
     d="m 107.5,21.2 c -1.7,0.9 -5,0.5 -6.2,0.7 -3.4,0.5 -6.1,2.3 -6.4,6 -0.3,3.2 -0.1,7 -0.4,10.4 -0.1,1.4 1.4,2.1 -0.2,2.3 -0.7,0.1 -3.1,-0.7 -3.9,-0.9 -1.5,-0.4 -2,-0.8 -2.5,-2.3 -1.1,-3.1 -1,-8.1 -0.5,-11.3 0.6,-3.7 2.2,-6.9 5.7,-8.5 3.3,-1.6 7.3,-1.9 10.9,-1.2 1.4,0.3 3.2,0.4 3.9,1.8 1,1.6 0.5,2.5 -0.4,3 z"
     id="path1780" /><path
     class="st1"
     d="m 97.7,80.1 c 2.2,8 2.3,8.2 3,14.6 0.5,4.5 0.9,8.9 1,13.4 0,2.3 -0.4,4.7 -1.3,6.8 -1.1,2.8 -2.9,5.7 -5.1,7.7 -6.4,5.9 -15.7,4.2 -24.1,4.2 1.2,1.4 -24.7,-4.2 -26.7,-5.4 -2,-1.2 -3.6,-3.5 -4.7,-5.5 -2.3,-4 -2.3,-10.5 -2.2,-15 0.4,-11 4.7,-32.6 26.4,-50.6 0.3,-9.7 8.9,-14.6 10.5,-16 -2.4,-1.9 -6.5,-5.4 -9.6,-5 -4.5,0.6 -7.8,5.8 -13,4.3 -6.7,-2 -1.7,-6.8 2.1,-9.8 3.8,-3 8.8,-4.5 13.5,-3.4 3.9,0.9 11.8,9.4 12.6,11.5 3.2,-0.1 12.5,-2.6 24.7,5.1 7.7,4.8 18.6,15.5 21.5,19 4.1,4.8 7.7,9.1 10.2,15 1.3,3.2 2.2,5.9 -1.6,7.4 -4,1.6 -11.5,-1.4 -15.4,-2.2 -3.1,-0.7 -13.6,-3.3 -16.4,-4.1 -1.2,3.5 -3.5,6.6 -5.4,8 z"
     id="path1782" /><path
     class="st3"
     d="m 89.6,88.3 c 2.2,5.9 2.6,17.6 3.4,22.6 0.8,5.2 0.5,12.6 2.5,12.2 6.5,-1.3 8.5,7.7 1.6,4.9 1.2,0.5 3.9,3.1 2.9,4.4 -1.6,2.3 -5.4,-0.4 -6.3,-2.1 1.3,2.7 2,5.5 -2.5,4 -3.3,-1.1 -3,-5 -2.5,-7.6 0.8,-5.2 -3,-22.4 -4.4,-31.6 -1.5,-9.7 4.3,-9.6 5.3,-6.8 z"
     id="path1784" /><path
     class="st3"
     d="m 63.6,129.8 c -1.1,-1.6 -10,0.7 -16.4,-2 -8.7,-3.7 -10.4,-18.2 -10.4,-22.7 0,-6 0.5,-8.6 1.6,-11.3 3.5,-3 8.8,-1.7 12.5,-0.4 8.1,3.1 9.9,9.9 8.6,17.7 -0.7,4.4 -1.2,7.3 -2,11.6 -0.1,0.4 0.3,0.8 0.7,0.8 6.2,-0.1 9.3,-1 15.7,1.3 1.8,0.6 5.4,1.9 4.9,4.3 -0.9,3.4 -4.5,0.5 -5.7,-0.1 1.1,1.4 3.9,4.6 0.6,6 -2.5,1 -4.6,-3 -5.8,-4.6 1.3,1.6 1.9,5.5 -1.1,5.8 -2.5,0.1 -2,-4.6 -3.2,-6.4 z"
     id="path1786" /><path
     class="st4"
     d="m 119.9,76.1 c 0.8,-3.2 3.8,-6.4 5,-8.2 1,-1.4 2.6,-5.5 5.3,-8.2 2.4,3 5.5,6 7.1,9.8 1.4,3.2 2.9,7.9 -0.9,9.4 -4.1,1.6 -15.9,-2.7 -16.5,-2.8 z"
     id="path1788" /><path
     class="st5"
     d="m 94,38.3 c 0.9,0 3,0.7 3,0.7 4.8,2 6.5,9.7 0.3,12.5 -4.1,1.7 -7.9,-0.7 -9,-3.8 -1.7,-4.3 0.8,-9.5 5.7,-9.4 z"
     id="path1790" /><path
     d="m 92.4,44.6 c 1.1,0.2 1.4,2.3 -0.2,2.3 -1.8,-0.2 -1.4,-2.6 0.2,-2.3 z"
     id="path1792" /><path
     d="m 95.8,66.5 c 0,0 -3.2,0 -6.5,-2.1 -3.5,-2.3 -3.7,-4.5 -3.7,-4.5 0,0 -1.8,8.4 2,9.6 3.9,1.2 8.2,-3 8.2,-3 z"
     id="path1794" /></g>
</svg>
