<?xml version="1.0" encoding="UTF-8" standalone="no"?>
<!-- Generator: Adobe Illustrator 26.5.0, SVG Export Plug-In . SVG Version: 6.00 Build 0)  -->

<svg
   version="1.1"
   id="Capa_1"
   x="0px"
   y="0px"
   viewBox="0 0 503 102"
   style="enable-background:new 0 0 503 102;"
   xml:space="preserve"
   sodipodi:docname="svgIndexCas.svg"
   inkscape:version="1.2.1 (9c6d41e410, 2022-07-14)"
   xmlns:inkscape="http://www.inkscape.org/namespaces/inkscape"
   xmlns:sodipodi="http://sodipodi.sourceforge.net/DTD/sodipodi-0.dtd"
   xmlns="http://www.w3.org/2000/svg"
   xmlns:svg="http://www.w3.org/2000/svg"><defs
   id="defs1770" /><sodipodi:namedview
   id="namedview1768"
   pagecolor="#ffffff"
   bordercolor="#000000"
   borderopacity="0.25"
   inkscape:showpageshadow="2"
   inkscape:pageopacity="0.0"
   inkscape:pagecheckerboard="0"
   inkscape:deskcolor="#d1d1d1"
   showgrid="false"
   inkscape:zoom="3.2465209"
   inkscape:cx="251.34599"
   inkscape:cy="51.13166"
   inkscape:window-width="3840"
   inkscape:window-height="2066"
   inkscape:window-x="-11"
   inkscape:window-y="-11"
   inkscape:window-maximized="1"
   inkscape:current-layer="Capa_1" />
<style
   type="text/css"
   id="style1699">
	.st0{fill:#AE7DAF;}
	.st1{fill:#DDCEB1;}
	.st2{fill:#CEBB9D;}
	.st3{fill:#2BB673;}
	.st4{fill:none;stroke:#037875;stroke-width:0.378;stroke-linecap:round;}
	.st5{fill:#D3D2C2;}
	.st6{fill:#26945F;}
	.st7{fill:none;stroke:#AFAE9E;stroke-width:0.251;stroke-linecap:round;stroke-linejoin:round;stroke-miterlimit:10;}
	.st8{fill:none;stroke:#000000;stroke-width:0.378;stroke-linecap:round;}
	.st9{fill-rule:evenodd;clip-rule:evenodd;fill:#FFFFFF;}
	.st10{fill-rule:evenodd;clip-rule:evenodd;}
</style>
<path
   class="st0"
   d="M447,35h45c6.1,0,11,4.9,11,11v45c0,6.1-4.9,11-11,11h-45c-6.1,0-11-4.9-11-11V46C436,39.9,440.9,35,447,35z"
   id="path1701" />
<path
   class="st0"
   d="M 487.69197,102.30802 H 33.091978 L -0.30802205,68.808022 33.091978,35.308026 H 487.69197 Z"
   id="path1703" />






























<g
   id="g2194"
   transform="translate(-36)"><path
     class="st1"
     d="m 116.1,107.6 c -0.3,-0.9 -1,-3.4 -1,-3.4 0,0 4.3,-6.4 4.7,-5.6 0.5,0.8 1.2,1.6 1.7,3 0.5,1.4 1.6,8.5 1.6,8.5 l -4.7,2 c 0,0.1 -1.5,-1.9 -2.3,-4.5 z"
     id="path1705" /><path
     d="m 81.1,134.3 c -12.2,-2.8 -16,-8.5 -16.4,-16.7 l 17.1,-3 14,-0.2 c 7.2,1.2 10.1,3.1 13,5.5 1.9,3 1.1,3.4 1.5,6.2 0,0 2.2,3.1 -3.2,7.1 -5.4,4.1 -5.3,2.7 -14.1,2.6 z"
     id="path1707" /><path
     d="M 98.2,122.6 C 87.6,125.9 83,125.8 77.6,121.3 L 87.6,106 99,97.8 c 6.6,-3.1 10,-3.2 13.8,-2.8 3.2,1.4 3.9,1.4 5.8,3.4 0,0 2.5,2 0.4,8.5 -2.2,6.5 -2.8,5.2 -10.1,10.1 z"
     id="path1709" /><path
     class="st2"
     d="M 86.3,62.6 H 71 v 24.5 h 15.3 z"
     id="path1711" /><path
     d="m 51.2,59.3 c 0,0 -0.5,1.7 -1.5,2.9 -1.1,1.2 -3.6,2.2 -3.6,2.2 0,0 4.4,1.9 7.2,-0.5 2.4,-2.1 2.1,-3.9 2.1,-3.9 L 52,56.7 Z"
     id="path1713" /><path
     class="st1"
     d="m 115.9,97.6 c 0,0 6.2,6 7.5,5.2 1.3,-0.8 -2.3,-3.9 -2.3,-3.9 0,0 3.9,2.5 4.8,1 0.9,-1.4 -3.8,-2.9 -3.8,-2.9 0,0 4.5,0.7 5,-0.8 0.5,-1.5 -4.4,-1.6 -4.4,-1.6 0,0 2.1,-2.3 1,-2.9 -1.1,-0.6 -5.7,2.4 -5.7,2.4 z"
     id="path1715" /><path
     d="m 121.3,101.5 c 0,0 0.1,1.7 -0.9,3.9 -0.7,1.4 -2.5,3.7 -2.5,3.7 l -1.1,-0.9 c 0,0 1.2,-1.4 2.2,-4.3 0.4,-1.1 0.8,-3.5 0.8,-3.5 z"
     id="path1717" /><path
     class="st3"
     d="m 65.1,70.6 c 0,0 5.4,-0.4 8.7,1.3 2.3,2.8 8.9,7.6 8.9,7.6 0,0 1.3,-4.9 2.1,-11.8 0.7,-0.6 2.2,1.5 2.2,1.5 0,0 5.9,10.2 7.2,23.3 0.8,8.3 5,21.6 1.9,22.3 -4,1.6 -16.1,4.6 -24,4 -7.6,-0.5 -8.2,-1.2 -8.5,-5.9 -0.3,-4.7 2.9,-21.5 2.9,-21.5 0,0 -4.4,8.6 -4.8,14.2 -0.4,5.6 -0.4,18.4 -2.9,18.7 -2.1,0.3 -9.4,0.7 -9.3,-2.2 0.1,-5.3 2.1,-20.3 5.1,-28.7 4.6,-12.9 10.5,-22.8 10.5,-22.8 z"
     id="path1719" /><path
     class="st3"
     d="m 82.7,66.9 c 0,0 14.6,10.8 19.5,14.5 8.7,6.5 16.4,7.1 17.2,9.6 1,3.2 -2.4,9 -3.9,9 -4,-0.3 -18.3,-10 -23.8,-18.9 -3.3,-5.5 -9,-14.2 -9,-14.2 z"
     id="path1721" /><path
     class="st4"
     d="m 80.8,90.9 7.1,-9.4 -5.2,-2 -3.9,3.9 c 0,0 10.4,5.3 11.6,5.6"
     id="path1723" /><path
     d="m 79.3,83.6 c 0,0.6 -0.5,1.1 -1.1,1.1 -0.6,0 -1.1,-0.5 -1.1,-1.1 0,-0.6 0.5,-1.1 1.1,-1.1 0.6,0 1.1,0.5 1.1,1.1 z"
     id="path1725" /><path
     d="m 87.4,81.4 c 0,0.6 0.5,1.1 1.1,1.1 0.6,0 1.1,-0.5 1.1,-1.1 0,-0.6 -0.5,-1.1 -1.1,-1.1 -0.6,0 -1.1,0.5 -1.1,1.1 z"
     id="path1727" /><path
     d="m 81.5,91.3 c 0,0.6 -0.5,1.1 -1.2,1.1 -0.7,0 -1.1,-0.5 -1.1,-1.1 0,-0.6 0.5,-1.1 1.2,-1.1 0.6,-0.1 1.1,0.5 1.1,1.1 z"
     id="path1729" /><path
     d="m 89.3,89.1 c 0,0.6 0.5,1.1 1.1,1.1 0.6,0 1.1,-0.5 1.1,-1.1 0,-0.6 -0.5,-1.1 -1.1,-1.1 -0.6,0 -1.1,0.5 -1.1,1.1 z"
     id="path1731" /><path
     class="st1"
     d="m 47.3,40.2 c 0,0 2.9,15.7 8.7,24.1 5.6,8.1 18.1,9.8 27.1,6.9 C 92,68.2 98.1,56.5 97.2,47 95.9,34.4 87.7,21.6 87.1,21 84,17.5 69.9,23.6 61.6,27.8 53.3,31.9 47.3,40.2 47.3,40.2 Z"
     id="path1733" /><path
     class="st3"
     d="m 89.6,21.8 c 7,-2.5 6.2,-16.2 -3.1,-17.7 -8.6,-1.4 -19.1,3.1 -26.6,7.2 -4.1,2.3 -24.2,5.5 -28.4,16 -6,15.1 15.2,21.1 17.8,13.5 0,0 12.7,-11.3 25.7,-15.3 7.2,-2.2 14.6,-3.7 14.6,-3.7 z"
     id="path1735" /><path
     class="st5"
     d="m 58.4,33.7 c 0,0 -5.2,-8.1 -8.3,-10.6 -1,-0.8 -3.4,-2.6 -3.4,-2.6 L 46,25.5 42.7,18 c 0,0 -1.2,-0.9 -7.3,-2.3 l -6.1,-1.4 0.5,5.4 -4.6,-6.7 c 0,0 -4.1,-0.1 -9.1,0.8 -5.1,0.9 -14.2,2.3 -14.2,2.3 0,0 9,4.4 12,6.6 2.9,2.3 4.9,2.9 4.9,2.9 l 6.5,-4.5 -4.8,5.6 12.5,3.1 5.9,-4.6 -3.5,5.1 c 0,0 11.8,2.7 14.2,2.6 2.5,-0.1 8.8,0.8 8.8,0.8 z"
     id="path1737" /><path
     class="st6"
     d="m 90,25.7 c 0,0 -10.3,1.4 -21.4,6.5 -10,4.6 -16.5,10 -20.7,13.1 -2.7,0.2 -1.3,-4.5 -1.3,-4.5 0,0 7.8,-7.2 18.9,-12 13.4,-5.7 17.2,-6.2 23.6,-6.9 2.8,1.4 0.9,3.8 0.9,3.8 z"
     id="path1739" /><path
     class="st7"
     d="m 56.5,32.4 c 0,0 -11.1,-6.5 -20.8,-9.7 C 21.8,18 8.7,17.2 8.7,17.2"
     id="path1741" /><path
     class="st7"
     d="M 38.9,22.6 36.6,17.5"
     id="path1743" /><path
     class="st7"
     d="m 27.1,26.5 3.8,-3.3"
     id="path1745" /><path
     class="st7"
     d="m 41.1,30.5 3.1,-2.8"
     id="path1747" /><path
     class="st8"
     d="m 80,44.6 c 0,0 5,1.8 6.5,1.9 1.5,0.1 2.7,0.9 -0.2,2.9 -2.9,2 -5.1,2 -5.1,2"
     id="path1749" /><path
     class="st8"
     d="m 75.3,58.4 c 0,0 0.5,3.3 3.6,4.2 3.1,0.9 5.4,-1.7 5.4,-1.7"
     id="path1751" /><path
     class="st9"
     d="m 67,36.6 c -3.4,0.5 -5.2,2.8 -4.9,6.2 0.3,3.4 2.5,5.8 5.7,5.5 C 71,48 73.2,45.2 72.9,41.8 72.5,38.4 70.2,36.1 67,36.6 Z"
     id="path1753" /><path
     class="st10"
     d="m 69.4,40.3 c -0.7,0.1 -1,0.5 -0.9,1.2 0.1,0.7 0.5,1.1 1.2,1.1 0.7,-0.1 1.1,-0.6 1.1,-1.3 -0.1,-0.7 -0.7,-1.1 -1.4,-1 z"
     id="path1755" /><path
     class="st9"
     d="m 87.7,31.5 c -2.9,0.3 -4.2,2.5 -3.9,5.6 0.3,3.1 2.3,5.2 5.2,4.9 2.9,-0.3 4.8,-2.8 4.5,-5.9 -0.3,-3.1 -2.8,-4.9 -5.8,-4.6 z"
     id="path1757" /><path
     class="st10"
     d="m 90.5,34.9 c -0.6,0.1 -0.9,0.5 -0.8,1.1 0.1,0.6 0.5,1 1.1,1 0.6,-0.1 1,-0.6 1,-1.2 -0.2,-0.6 -0.7,-1 -1.3,-0.9 z"
     id="path1759" /><path
     d="m 45.9,47.6 c -1.7,1.2 -7,2.2 -7,2.2 0,0 1.5,2 4.5,2.2 0.9,0 2.2,-0.1 2.2,-0.1 0,0 -1.1,1.4 -3.2,1.8 -1.9,0.3 -3.7,0.2 -3.7,0.2 0.1,1 5,5.1 8.7,2.2 -1.3,2.8 -6.2,3.7 -6.2,3.7 0,0 7,3.4 10.4,0.1 0.8,-0.7 1.3,-1.4 1.3,-1.4 0,0 -2.8,-6.6 -2.9,-7.9 -0.2,-1.2 -2,-5.1 -2,-5.1 0,0 0,0.7 -2.1,2.1 z"
     id="path1761" /><path
     class="st1"
     d="m 51,48.4 c 0,0 -4.9,0.8 -4.5,3.9 0.3,2.7 2.8,3.2 4.6,3.1 1.8,-0.1 2.2,-0.7 2.2,-0.7 z"
     id="path1763" /><path
     d="m 47.5,46.4 c 0,0 0.6,1.1 -0.5,2.3 -1.1,1.2 -6.3,2.6 -6.3,2.6 0,0 4.1,2.3 7.8,-0.7 2.5,-2 5.4,-9.6 5.4,-9.6 L 48,45.4 Z"
     id="path1765" /></g>
</svg>
