<svg width="185" height="80" viewBox="0 0 185 80" fill="none" xmlns="http://www.w3.org/2000/svg">
<path d="M0 12.1782C0 12.0169 0.22172 11.6943 0.68546 11.2104C1.1492 10.7265 1.65328 10.2023 2.21784 9.63772C2.78239 9.07317 3.347 8.52874 3.91155 8.02468C4.4761 7.52061 4.89951 7.15767 5.16162 6.93588C5.26244 6.87539 5.50432 6.69393 5.84708 6.37133C6.18985 6.04873 6.39145 5.82699 6.45194 5.72617C6.61324 5.56487 6.85528 5.30275 7.17788 4.95998C7.50049 4.61722 7.84317 4.25428 8.22626 3.87119C8.58918 3.4881 8.95219 3.12515 9.31511 2.78239C9.65788 2.43962 9.89976 2.19768 10.0006 2.09687C10.1619 1.71378 10.5853 1.27019 11.2506 0.766127C11.916 0.262062 12.4604 0 12.904 0C13.1258 0 13.3879 0.100759 13.7105 0.322548C14.0332 0.544336 14.3759 0.786297 14.7187 1.08874C15.0614 1.39118 15.384 1.67348 15.6461 1.93559C15.9082 2.19771 16.0696 2.39933 16.1301 2.50014V3.30664V4.11313C16.1301 4.37524 15.9889 4.61723 15.7268 4.83901C15.5655 5.00031 15.2631 5.26244 14.8397 5.6052C14.4162 5.94797 14.1138 6.18991 13.9525 6.29072C12.1782 7.52064 10.3836 8.81104 8.58917 10.1216C6.77453 11.4322 4.98016 12.7226 3.14536 13.9525C2.98406 14.013 2.8429 14.0533 2.74209 14.0735C2.64127 14.0936 2.45983 14.1138 2.2582 14.1138C1.67349 14.1138 1.1492 13.892 0.68546 13.4686C0.241882 13.0452 0 12.6217 0 12.1782ZM0.322548 74.279C0.322548 74.1782 0.342666 74.0572 0.403154 73.9161C0.463642 73.7749 0.463642 73.6943 0.403154 73.6338C0.463642 72.9281 0.544405 72.0813 0.645218 71.0933C0.746031 70.1053 0.947593 69.2787 1.20971 68.6335C1.37101 68.2504 1.63317 67.9681 2.01626 67.7867C2.37919 67.6052 2.78235 67.4439 3.1856 67.3027C3.58886 67.1616 3.97198 67.0407 4.35507 66.8995C4.73816 66.7584 5.02044 66.5366 5.24223 66.214C5.30272 66.214 5.34304 66.1333 5.3632 65.972C5.38336 65.8107 5.40356 65.6696 5.40356 65.5688C5.40356 65.468 5.42364 65.2462 5.44381 64.9236C5.46397 64.601 5.50437 64.238 5.52454 63.8348C5.5447 63.4315 5.56478 63.0485 5.56478 62.6654V61.8589C5.40348 57.5037 5.36316 53.1688 5.44381 48.8741C5.52446 44.5795 5.42374 40.2647 5.16162 35.9701C5.16162 35.8693 5.14138 35.6475 5.08089 35.3249C5.02041 35.0023 4.98009 34.6595 4.95992 34.2764C4.93976 33.8933 4.89948 33.5505 4.87932 33.2279C4.85915 32.9053 4.83895 32.6634 4.83895 32.5021C4.73814 32.0182 4.47602 31.7158 4.07276 31.615C3.66951 31.5141 3.22599 31.3932 2.74209 31.2923C2.25818 31.1915 1.83474 31.01 1.45165 30.7681C1.06856 30.5261 0.866918 30.0826 0.806431 29.4374C0.806431 29.3769 0.786352 29.3366 0.766189 29.2761C0.746026 29.2156 0.725824 29.1752 0.725824 29.1147V27.4615C0.725824 26.6751 0.746026 25.8484 0.766189 24.9613C0.786352 24.0741 0.806431 23.2475 0.806431 22.4611V20.8884C0.907244 20.465 1.04841 19.9207 1.20971 19.2754C1.37101 18.6302 1.67345 18.2472 2.09687 18.1463L2.2582 18.227H2.41941C3.22592 18.3883 4.35513 18.4488 5.80684 18.4286C7.25855 18.4084 8.73032 18.4286 10.2425 18.5093C11.7547 18.5899 13.146 18.7714 14.4767 19.0738C15.7873 19.3762 16.7148 19.9005 17.2592 20.6465C17.5415 20.9691 17.6623 21.4732 17.6623 22.1789C17.6623 22.8846 17.6826 23.4088 17.7431 23.7919C17.9044 26.1106 17.8438 27.7236 17.5414 28.6309C17.2389 29.5382 16.8963 30.1633 16.493 30.4859C16.0897 30.8085 15.6663 31.0302 15.2429 31.131C14.8195 31.2318 14.5372 31.6754 14.4364 32.4214C14.0533 34.6797 13.8516 36.9378 13.7912 39.1961C13.7307 41.4543 13.7509 43.7125 13.8315 45.9707C13.9122 48.2289 14.0331 50.467 14.1944 52.705C14.3557 54.9431 14.4969 57.1811 14.5977 59.4393V60.2862V61.7782C14.5977 62.3226 14.6178 62.8065 14.638 63.2702C14.6581 63.734 14.6783 64.0163 14.6783 64.1171V64.7623C14.7388 65.4075 14.9807 65.8309 15.4041 66.0527C15.8276 66.2745 16.3115 66.4761 16.8559 66.6576C17.4003 66.839 17.8842 67.081 18.3479 67.3834C18.8117 67.6858 19.0939 68.2302 19.1947 69.0368C19.1947 69.4198 19.2149 69.9642 19.2351 70.6901C19.2552 71.416 19.2149 72.1418 19.1141 72.8676C19.0133 73.5935 18.8117 74.2589 18.5093 74.8436C18.2068 75.4283 17.7431 75.7509 17.0979 75.8114C16.0292 76.0331 14.7993 76.0735 13.4282 75.9727C12.0572 75.8719 10.8273 75.8719 9.75863 75.9727C9.59733 75.9727 9.21421 76.013 8.58917 76.0937C7.96413 76.1743 7.319 76.255 6.65364 76.3356C5.98827 76.4163 5.34302 76.4768 4.71798 76.5372C4.09294 76.5977 3.70982 76.6179 3.54852 76.6179C2.78234 76.6784 2.09685 76.5171 1.45165 76.1743C0.806445 75.8316 0.443523 75.2065 0.322548 74.279Z" fill="black"/>
<path d="M39.5185 56.6972C39.6194 56.3746 39.5589 55.9916 39.317 55.5681C39.075 55.1447 38.7322 54.9229 38.3088 54.9229H38.0669C38.0669 55.3463 38.0467 56.0924 38.0265 57.1408C38.0064 58.1893 37.9661 59.2982 37.9459 60.4878C37.9258 61.6774 37.8854 62.8065 37.8652 63.8751C37.845 64.9437 37.8248 65.6696 37.8248 66.0527V67.7463C37.8853 68.8149 37.9862 69.8836 38.1475 70.932C38.3088 71.9805 38.4096 73.0491 38.47 74.1177C38.47 74.6016 38.3894 74.9847 38.2685 75.2872C38.1273 75.5896 37.7644 75.7308 37.1797 75.7308C36.0506 75.8316 34.9819 75.8718 33.9536 75.8114C32.9253 75.7509 31.8365 75.8114 30.6469 75.9727C30.4252 75.8719 30.2438 75.6501 30.0825 75.3275C29.9212 75.0049 29.8203 74.7831 29.7598 74.6823C29.7598 74.5814 29.7195 74.2589 29.6388 73.7548C29.5582 73.2507 29.5178 72.908 29.5178 72.7467C29.417 71.0732 29.3969 69.4198 29.4776 67.7463C29.5583 66.0728 29.659 64.4195 29.7598 62.746C29.7598 60.0039 29.7195 57.3223 29.6388 54.681C29.5582 52.0397 29.7396 49.3581 30.1631 46.6159L29.034 23.9531C29.034 23.691 29.0542 23.3281 29.0743 22.9047C29.0945 22.4813 29.1751 22.0579 29.3163 21.6546C29.4574 21.2514 29.6389 20.9086 29.8809 20.6061C30.1228 20.3037 30.4252 20.1626 30.8083 20.1626H31.1309C32.4214 20.2634 33.4899 20.3843 34.3166 20.4852C35.1432 20.586 35.728 21.211 36.0506 22.3401C36.474 23.5297 36.9578 24.6992 37.4619 25.8888C37.966 27.0784 38.4701 28.2075 38.9541 29.2761C39.0145 29.3366 39.0347 29.4172 39.0347 29.5583V29.8406C39.2968 31.2923 39.7404 32.7844 40.3251 34.3167C40.9098 35.8491 41.4743 37.2605 42.0187 38.5509C41.9179 39.0953 42.0188 39.7001 42.3414 40.4058C42.664 41.1115 43.047 41.7971 43.4705 42.5028C43.8939 43.2084 44.297 43.8738 44.6398 44.519C44.9826 45.1642 45.1036 45.7086 45.0028 46.132C45.0633 46.2933 45.1842 46.6361 45.406 47.1401C45.6278 47.6442 45.8295 48.2088 46.011 48.7935C46.1924 49.3782 46.3738 49.9428 46.5755 50.4468C46.7569 50.9509 46.9183 51.3138 47.0191 51.5356C47.0796 51.6969 47.14 51.9187 47.2207 52.2211C47.3013 52.5236 47.4022 52.8461 47.503 53.1889C47.6038 53.5317 47.7045 53.8744 47.7852 54.197C47.8658 54.5196 47.9061 54.7414 47.9061 54.8423C48.1682 55.4875 48.3699 56.1528 48.4707 56.8585C48.5716 57.5642 48.9546 58.1288 49.5998 58.5522C49.862 58.0078 50.0031 57.4231 50.0031 56.7779C50.7491 50.8097 51.0919 44.9424 51.0113 39.1961C50.9306 33.4497 50.8298 27.5623 50.7289 21.5337C50.7894 21.4328 50.9104 21.211 51.1322 20.8884C51.354 20.5658 51.4951 20.4045 51.6161 20.4045L58.0682 19.9206C58.5521 19.9206 58.794 20.0618 58.794 20.3239C58.794 20.586 58.9553 20.7876 59.2779 20.8884C59.1166 23.3079 59.1166 25.6872 59.2779 28.026C59.4392 30.3649 59.3989 32.744 59.1973 35.1635C58.8142 38.6517 58.4916 42.0793 58.1891 45.4062C57.8867 48.733 57.8867 52.1808 58.1488 55.7294L57.5036 73.5532C57.4431 74.0371 57.181 74.7024 56.6971 75.5291C56.2132 76.3558 55.6689 76.88 55.0841 77.1018C54.9833 77.1018 54.6808 77.1219 54.2372 77.1421C53.7735 77.1623 53.4912 77.1825 53.3904 77.1825C52.0395 77.2833 50.7492 77.3236 49.5192 77.2631C48.2893 77.2026 46.9988 77.0816 45.6479 76.8599C44.9422 76.7994 44.418 76.3154 44.0349 75.3678C43.6519 74.4201 43.3696 73.3717 43.1881 72.2224C43.0067 71.0731 42.8655 69.9642 42.7849 68.9158C42.7042 67.8673 42.6438 67.1818 42.5833 66.8592C42.5228 66.6374 42.4219 66.1938 42.2606 65.4881C42.0993 64.7824 41.9582 64.2985 41.8573 64.0364C41.7565 63.7743 41.5953 63.2904 41.3735 62.5847C41.1517 61.879 40.93 61.1531 40.688 60.3668C40.4461 59.5805 40.2242 58.8546 40.0024 58.149C39.8008 57.4634 39.6395 56.9795 39.5185 56.6972Z" fill="black"/>
<path d="M72.0208 78.4728C71.92 78.4123 71.8393 78.1905 71.7788 77.7873C71.7183 77.384 71.6982 77.1219 71.6982 77.0211C71.3756 75.0855 71.3151 73.1701 71.5369 71.2546C71.7587 69.3392 71.8393 67.4439 71.7788 65.5688C71.6579 63.1492 71.4159 60.7499 71.0126 58.3505C70.6094 55.9512 70.3069 53.5518 70.0851 51.1323C70.0246 49.2572 70.0246 47.4425 70.0851 45.6884C70.1456 43.9342 70.1658 42.1196 70.1658 40.2445C70.2263 38.5307 70.1658 36.7967 70.0045 35.0425C69.8432 33.2884 69.702 31.5544 69.6012 29.8406V29.3567V28.5099V27.663V27.0985C69.5407 26.8364 69.5005 26.3726 69.44 25.7274C69.3795 25.0822 69.3392 24.3967 69.2787 23.6709C69.2182 22.945 69.1577 22.2594 69.1173 21.6142C69.0569 20.969 69.0367 20.5053 69.0367 20.2432C69.1376 19.8198 69.2383 19.4972 69.3593 19.2754C69.4803 19.0536 69.6819 18.8722 70.0045 18.7109C70.1053 18.6504 70.428 18.5899 70.932 18.5092C71.4361 18.4286 71.7789 18.3883 71.9402 18.3883C74.9041 18.0052 77.5655 18.1463 79.9245 18.7915C82.2835 19.4367 84.3401 20.4851 86.0942 21.9368C87.8484 23.3886 89.2599 25.183 90.3688 27.3001C91.4778 29.4172 92.2438 31.7561 92.6673 34.2764C92.9294 36.3128 93.0705 38.3089 93.0705 40.2445C93.0705 42.1801 92.9899 44.1964 92.8286 46.2933C93.0504 47.3619 93.0705 48.4104 92.9092 49.4387C92.7479 50.467 92.7278 51.5154 92.8286 52.584C92.8891 54.2979 92.9898 56.3141 93.1511 58.5925C93.3124 60.8709 93.2721 63.1694 93.0302 65.4478C92.7882 67.7262 92.2237 69.8634 91.3366 71.8192C90.4494 73.775 89.0179 75.3073 87.0218 76.3759C85.0861 77.3437 83.0296 77.9889 80.852 78.3115C78.6744 78.6341 76.5171 78.9366 74.3597 79.1987C74.2589 79.1987 73.9968 79.2188 73.5935 79.2793C73.1903 79.3398 72.9281 79.36 72.8273 79.36C72.7265 79.2592 72.5651 79.1382 72.3837 78.9971C72.2022 78.8559 72.0813 78.6946 72.0208 78.4728ZM79.6825 67.827C79.9447 68.2504 80.3076 68.452 80.731 68.3915C81.3157 68.331 81.7997 68.0084 82.1424 67.4237C82.4852 66.839 82.7472 66.1736 82.9489 65.4478C83.1303 64.7219 83.2715 63.9759 83.3521 63.2299C83.4328 62.4839 83.4934 61.879 83.5538 61.4556C83.6143 61.0725 83.6546 60.5483 83.7151 59.8829C83.7554 59.2175 83.8159 58.5723 83.8764 57.9473C83.9167 57.3223 83.9772 56.798 83.9974 56.3343C84.0175 55.8705 84.0377 55.6286 84.0377 55.5681L83.957 54.9229C83.957 51.959 83.9772 48.9144 84.0377 45.7691C84.0982 42.6237 83.8764 39.5187 83.3925 36.4539C83.1304 34.9014 82.8078 33.6514 82.465 32.744C82.1222 31.8367 81.356 30.8084 80.1664 29.6793C80.0051 29.4172 79.864 29.1954 79.7229 29.0341C79.5818 28.8728 79.3398 28.8123 78.9567 28.8728C78.6744 28.9333 78.5938 29.1551 78.6744 29.5583C78.7551 29.9616 78.7954 30.1834 78.7954 30.2439C78.9567 33.5304 79.0576 36.7967 79.118 40.0832C79.1584 43.3697 79.239 46.6361 79.36 49.9226C79.4003 52.6042 79.3398 55.3463 79.118 58.1086C78.8963 60.8708 78.997 63.613 79.4406 66.2946C79.4406 66.3954 79.4809 66.6575 79.5616 67.0608C79.6422 67.464 79.6825 67.7262 79.6825 67.827Z" fill="black"/>
<path d="M102.91 74.279C102.91 74.1782 102.93 74.0572 102.991 73.9161C103.051 73.7749 103.051 73.6943 102.991 73.6338C103.051 72.9281 103.112 72.0813 103.233 71.0933C103.333 70.1053 103.535 69.2787 103.797 68.6335C103.958 68.2504 104.221 67.9681 104.604 67.7867C104.967 67.6052 105.37 67.4439 105.773 67.3027C106.176 67.1616 106.559 67.0407 106.943 66.8995C107.326 66.7584 107.608 66.5366 107.83 66.214C107.89 66.214 107.931 66.1333 107.951 65.972C107.971 65.8107 107.991 65.6696 107.991 65.5688C107.991 65.468 108.011 65.2462 108.031 64.9236C108.051 64.601 108.092 64.238 108.112 63.8348C108.132 63.4315 108.152 63.0485 108.152 62.6654V61.8589C107.991 57.5037 107.951 53.1688 108.031 48.8741C108.112 44.5795 108.011 40.2647 107.749 35.9701C107.749 35.8693 107.729 35.6475 107.668 35.3249C107.608 35.0023 107.568 34.6595 107.547 34.2764C107.527 33.8933 107.487 33.5505 107.467 33.2279C107.447 32.9053 107.426 32.6634 107.426 32.5021C107.326 32.0182 107.064 31.7158 106.66 31.615C106.257 31.5141 105.813 31.3932 105.33 31.2923C104.846 31.1915 104.422 31.01 104.039 30.7681C103.656 30.5261 103.434 30.0826 103.394 29.4374C103.394 29.3769 103.374 29.3366 103.354 29.2761C103.333 29.2156 103.313 29.1752 103.313 29.1147V27.4615C103.313 26.6751 103.333 25.8484 103.354 24.9613C103.374 24.0741 103.394 23.2475 103.394 22.4611V20.8884C103.495 20.465 103.636 19.9207 103.797 19.2754C103.958 18.6302 104.261 18.2472 104.684 18.1463L104.846 18.227H105.007C105.813 18.3883 106.942 18.4488 108.394 18.4286C109.846 18.4084 111.318 18.4286 112.83 18.5093C114.342 18.5899 115.754 18.7714 117.064 19.0738C118.375 19.3762 119.302 19.9005 119.847 20.6465C120.109 20.9691 120.25 21.4732 120.25 22.1789C120.25 22.8846 120.27 23.4088 120.331 23.7919C120.492 26.1106 120.431 27.7235 120.129 28.6309C119.826 29.5382 119.484 30.1633 119.08 30.4859C118.677 30.8085 118.254 31.0302 117.83 31.131C117.407 31.2318 117.125 31.6754 117.024 32.4214C116.641 34.6797 116.439 36.9378 116.379 39.1961C116.318 41.4543 116.338 43.7125 116.419 45.9707C116.5 48.2289 116.621 50.467 116.782 52.705C116.943 54.9431 117.064 57.1811 117.185 59.4393V60.2862V61.7782C117.185 62.3226 117.205 62.8065 117.225 63.2702C117.246 63.734 117.266 64.0163 117.266 64.1171V64.7623C117.326 65.4075 117.568 65.8309 117.992 66.0527C118.415 66.2745 118.899 66.4761 119.443 66.6576C119.988 66.839 120.472 67.081 120.935 67.3834C121.399 67.6858 121.681 68.2302 121.782 69.0368C121.782 69.4198 121.802 69.9642 121.823 70.6901C121.843 71.416 121.802 72.1418 121.702 72.8676C121.601 73.5935 121.399 74.2589 121.097 74.8436C120.794 75.4283 120.331 75.7509 119.685 75.8114C118.617 76.0331 117.387 76.0735 116.016 75.9727C114.645 75.8719 113.415 75.8719 112.346 75.9727C112.185 75.9727 111.802 76.013 111.177 76.0937C110.552 76.1743 109.906 76.255 109.241 76.3356C108.576 76.4163 107.931 76.4768 107.305 76.5372C106.68 76.5977 106.297 76.6179 106.136 76.6179C105.39 76.6784 104.684 76.5171 104.039 76.1743C103.394 75.8316 103.031 75.2065 102.91 74.279Z" fill="black"/>
<path d="M133.073 70.6497C133.114 70.5489 133.093 70.307 132.952 69.9239C132.811 69.5408 132.65 69.1376 132.468 68.6738C132.287 68.2101 132.085 67.7867 131.904 67.3834C131.722 66.9801 131.601 66.6777 131.541 66.4559V63.6332V60.891C131.541 60.5684 131.561 59.8628 131.581 58.7538C131.601 57.6449 131.621 56.4754 131.662 55.2052C131.682 53.9349 131.722 52.7655 131.742 51.6566C131.763 50.5476 131.783 49.842 131.783 49.5194V44.519C131.843 44.1359 131.884 43.5311 131.904 42.7044C131.924 41.8777 131.964 41.0107 132.025 40.1236C132.085 39.2364 132.126 38.4098 132.146 37.6637C132.166 36.9177 132.206 36.3935 132.267 36.1314C132.267 36.0305 132.287 35.6878 132.347 35.1232C132.408 34.5587 132.488 34.1756 132.589 33.9538C132.751 33.0465 132.851 32.0787 132.912 31.0504C132.972 30.0221 133.134 29.0543 133.396 28.147C133.718 27.28 134.222 26.2718 134.928 25.0822C135.634 23.8926 136.481 22.7837 137.469 21.7353C138.457 20.6868 139.545 19.7795 140.735 19.0334C141.925 18.2874 143.154 17.9043 144.445 17.9043C145.413 17.9043 146.159 17.9245 146.703 17.985C147.247 18.0455 147.711 18.1463 148.114 18.3076C148.518 18.4689 148.881 18.731 149.203 19.0738C149.526 19.4166 149.929 19.9206 150.413 20.5658C150.413 20.6666 150.474 20.7876 150.574 20.8884L150.736 21.0497V28.4696L150.09 28.9535C147.671 29.0543 145.755 29.5785 144.324 30.4859C142.892 31.3932 141.945 32.8247 141.461 34.7603C141.4 35.1837 141.34 35.9096 141.259 36.8975C141.179 37.8855 141.078 38.934 140.977 40.0429C140.876 41.1519 140.755 42.2003 140.654 43.1883C140.553 44.1762 140.493 44.8617 140.493 45.2448V48.3903C140.493 50.4267 140.513 52.3421 140.533 54.1164C140.553 55.8907 140.634 57.8465 140.735 60.0039C140.836 61.5564 141.158 62.8267 141.703 63.7945C142.247 64.7623 142.892 65.5285 143.638 66.093C144.384 66.6576 145.191 67.081 146.058 67.3834C146.925 67.6858 147.731 67.9278 148.477 68.1093C149.223 68.2908 149.869 68.5125 150.413 68.7544C150.957 68.9964 151.26 69.3392 151.381 69.7626V71.9402C151.381 72.3636 151.401 72.8878 151.462 73.5129C151.522 74.1379 151.502 74.7427 151.421 75.3678C151.34 75.9928 151.159 76.5372 150.897 77.0211C150.615 77.505 150.131 77.8277 149.445 77.989H147.268C144.042 77.989 141.179 77.4244 138.678 76.2953C136.178 75.1662 134.323 73.291 133.073 70.6497Z" fill="black"/>
<path d="M160.736 77.747C160.515 77.5857 160.313 77.4042 160.091 77.2228C159.869 77.0413 159.769 76.7994 159.769 76.5373C159.506 73.9564 159.506 71.3555 159.809 68.7142C160.111 66.0729 160.252 63.4719 160.252 60.8911C160.252 57.665 160.152 54.4188 159.97 51.1727C159.789 47.9265 159.587 44.6601 159.365 41.414C159.143 38.1678 158.982 34.9216 158.841 31.6956C158.7 28.4696 158.68 25.2637 158.801 22.0982C158.801 21.7756 158.901 21.4328 159.083 21.0497C159.264 20.6666 159.547 20.4651 159.93 20.4046C160.474 20.3441 161.099 20.3844 161.825 20.4852C162.551 20.586 163.156 20.6263 163.64 20.5658C163.862 20.5658 164.265 20.5457 164.849 20.5255C165.434 20.5054 166.059 20.465 166.745 20.4449C167.41 20.4247 168.055 20.3844 168.64 20.3642C169.225 20.344 169.628 20.3239 169.85 20.3239C169.91 20.3239 170.112 20.3037 170.495 20.2432C170.858 20.1827 171.281 20.1424 171.705 20.082C172.128 20.0215 172.531 19.9811 172.874 19.9206C173.217 19.8601 173.459 19.84 173.56 19.84C173.882 19.84 174.407 19.8198 175.132 19.7593C175.858 19.6989 176.584 19.6989 177.31 19.7593C178.036 19.8198 178.681 19.9207 179.286 20.082C179.891 20.2433 180.193 20.5658 180.254 21.0497L180.818 27.8244C180.859 28.2478 180.677 28.6108 180.254 28.9132C179.83 29.2156 179.427 29.3769 179.044 29.4374C177.975 29.5382 176.887 29.4979 175.818 29.3164C174.749 29.1349 173.64 29.0946 172.511 29.1954C172.249 29.1954 171.886 29.2156 171.463 29.2358C171.019 29.256 170.596 29.3366 170.132 29.4374C169.668 29.5382 169.285 29.6995 168.963 29.9213C168.64 30.1431 168.479 30.4657 168.479 30.8891C168.64 33.0465 168.64 35.2644 168.479 37.5831C168.317 39.9018 168.338 42.16 168.559 44.3578C168.559 44.6199 168.58 44.9828 168.64 45.4062C168.7 45.8296 168.842 46.1925 169.124 46.4546C169.346 46.6159 169.668 46.7369 170.132 46.8175C170.596 46.8982 171.06 46.9386 171.543 46.9386C172.027 46.9386 172.491 46.9184 172.914 46.8982C173.338 46.878 173.661 46.8579 173.882 46.8579C174.104 46.8579 174.507 46.8377 175.092 46.7772C175.677 46.7167 176.302 46.6562 176.947 46.5756C177.592 46.4949 178.217 46.4345 178.802 46.374C179.387 46.3135 179.79 46.2933 180.012 46.2933C180.173 46.2933 180.314 46.3941 180.415 46.5756C180.516 46.7571 180.576 46.9184 180.576 47.0192L181.141 52.2615C181.201 52.7454 181.08 53.2293 180.778 53.7132C180.475 54.1971 180.113 54.4592 179.689 54.5197C178.5 54.681 177.33 54.6608 176.141 54.4794C174.951 54.2979 173.741 54.2576 172.511 54.3584C171.765 54.4592 171.221 54.6608 170.898 54.9632C170.576 55.2657 170.354 55.6286 170.253 56.052C170.152 56.4755 170.092 56.9594 170.092 57.5037V59.1974C170.092 59.3587 170.072 59.7418 170.011 60.3668C169.951 60.9918 169.89 61.6371 169.809 62.3428C169.729 63.0485 169.668 63.6936 169.608 64.2784C169.547 64.8631 169.507 65.2462 169.447 65.4075C169.547 65.4679 169.588 65.6293 169.527 65.8914C169.467 66.1535 169.507 66.3753 169.608 66.5366C169.608 66.8592 169.668 67.2423 169.769 67.706C169.87 68.1698 170.172 68.3915 170.656 68.3915H172.552H175.374H178.197H180.012C180.859 68.3915 181.645 68.4722 182.351 68.6335C183.056 68.7948 183.54 69.3795 183.802 70.4078C183.802 70.5086 183.843 70.7707 183.923 71.174C184.004 71.5773 184.085 72.041 184.165 72.545C184.246 73.0491 184.327 73.5734 184.407 74.0774C184.488 74.5815 184.548 74.9847 184.609 75.2468V75.7308C184.71 76.4768 184.528 76.9203 184.044 77.0211C183.56 77.122 183.016 77.2429 182.431 77.3438C180.173 77.6059 177.915 77.6865 175.657 77.5454C173.398 77.4043 171.14 77.3236 168.882 77.2631C168.721 77.2026 168.317 77.2228 167.672 77.3034C167.027 77.3841 166.644 77.4244 166.543 77.4244C166.321 77.4244 165.938 77.4446 165.374 77.4647C164.809 77.4849 164.224 77.5252 163.599 77.5857C162.974 77.6462 162.41 77.6865 161.865 77.7067C161.341 77.747 160.958 77.747 160.736 77.747Z" fill="black"/>
</svg>
