<?xml version="1.0" encoding="UTF-8" standalone="no"?>
<!-- Generator: Adobe Illustrator 26.5.0, SVG Export Plug-In . SVG Version: 6.00 Build 0)  -->

<svg
   version="1.1"
   id="Capa_1"
   x="0px"
   y="0px"
   viewBox="0 0 503 101"
   style="enable-background:new 0 0 503 101;"
   xml:space="preserve"
   sodipodi:docname="svgIndexGlo.svg"
   inkscape:version="1.2.1 (9c6d41e410, 2022-07-14)"
   xmlns:inkscape="http://www.inkscape.org/namespaces/inkscape"
   xmlns:sodipodi="http://sodipodi.sourceforge.net/DTD/sodipodi-0.dtd"
   xmlns="http://www.w3.org/2000/svg"
   xmlns:svg="http://www.w3.org/2000/svg"><defs
   id="defs1679" /><sodipodi:namedview
   id="namedview1677"
   pagecolor="#ffffff"
   bordercolor="#000000"
   borderopacity="0.25"
   inkscape:showpageshadow="2"
   inkscape:pageopacity="0.0"
   inkscape:pagecheckerboard="0"
   inkscape:deskcolor="#d1d1d1"
   showgrid="false"
   inkscape:zoom="3.2465209"
   inkscape:cx="251.34599"
   inkscape:cy="50.515615"
   inkscape:window-width="3840"
   inkscape:window-height="2066"
   inkscape:window-x="-11"
   inkscape:window-y="-11"
   inkscape:window-maximized="1"
   inkscape:current-layer="Capa_1" />
<style
   type="text/css"
   id="style1582">
	.st0{fill:#ED1C24;}
	.st1{fill:#93A44C;}
	.st2{fill:#FFFFFF;}
	.st3{fill:#7A411B;}
	.st4{fill:none;stroke:#000000;stroke-width:0.367;}
	.st5{fill:#7B8440;}
	.st6{fill:#A9B750;}
</style>
<path
   class="st0"
   d="M 492,32.45989 H 488 447 33.4 L -8.1445158e-8,65.95989 33.4,99.45989 h 413.6 41 4 c 6.1,0 11,-4.9 11,-11 v -45 c 0,-6.1 -4.9,-11 -11,-11 z"
   id="path1584" />












































<g
   id="g2059"
   transform="translate(-64.207593,-5.2363748)"><path
     class="st1"
     d="m 119,28.2 c 0.6,5.3 -3,10.1 -8.2,10.7 -5.2,0.6 -9.8,-3.2 -10.5,-8.5 -0.6,-5.3 3,-10.1 8.2,-10.7 5.1,-0.6 9.8,3.2 10.5,8.5 z"
     id="path1586" /><path
     class="st1"
     d="m 90.7,35 c 1.4,5.9 -3.1,10.4 -8.4,11.1 -5.3,0.6 -9.6,-2.9 -10.8,-8.8 -1.1,-5.4 3.2,-9.9 8.4,-11.1 5.6,-1.2 9.5,3.4 10.8,8.8 z"
     id="path1588" /><path
     class="st1"
     d="m 108.7,79.1 c 0,0 9,12.9 13,15.1 3.3,1.8 4.5,0.5 4.5,0.5 0,0 8.4,-4 7.4,-1.8 -1,2.1 -6.6,4 -6.6,4 0,0 10.4,-0.7 9.2,0.7 -1.2,1.4 -9.8,2.6 -9.8,2.6 0,0 11.3,1.6 8.8,2.5 -3.5,1.2 -12.8,0.9 -14.4,-1 -1.5,-1.9 -14.1,-11.8 -17.3,-14.6 -3.3,-2.8 5.2,-8 5.2,-8 z"
     id="path1590" /><path
     class="st2"
     d="m 117.1,28.5 c 0.5,4.2 -2.4,8 -6.5,8.5 -4.1,0.5 -7.8,-2.5 -8.3,-6.8 -0.5,-4.2 2.4,-8 6.5,-8.5 4,-0.5 7.7,2.5 8.3,6.8 z"
     id="path1592" /><path
     class="st1"
     d="m 86.4,31.2 c 18.5,-5 56.3,-1 55.3,16.6 -0.9,14.4 -16.9,19.1 -16.9,19.1 0,0 -0.8,16.4 -21.4,20.3 C 94,104.9 76.2,117.5 57.9,118.6 39.6,119.7 27.8,102.8 37.4,79.1 46.5,56.5 66.3,49.6 66.3,49.6 c 0,0 3.3,-13.8 20.1,-18.4 z"
     id="path1594" /><path
     class="st3"
     d="m 90.6,72.5 c 2.4,1.2 1.5,3.9 -0.9,2.7 -2.5,-1.2 -1.6,-4 0.9,-2.7 z"
     id="path1596" /><path
     class="st3"
     d="m 85.3,76.9 c 2.5,1.2 1.7,3.9 -0.8,2.8 -2.5,-1 -1.7,-3.9 0.8,-2.8 z"
     id="path1598" /><path
     class="st3"
     d="m 78.4,71.5 c 2.4,1.2 1.5,4.1 -0.9,3 -2.6,-1.2 -1.6,-4.2 0.9,-3 z"
     id="path1600" /><path
     class="st3"
     d="m 84.3,61.1 c -2.4,-1.4 -1.1,-4.3 1.3,-2.8 2.3,1.5 1.1,4.2 -1.3,2.8 z"
     id="path1602" /><path
     class="st3"
     d="m 66.1,70 c -2.5,-1.1 -1.5,-4.4 1,-3.2 2.5,1.2 1.5,4.3 -1,3.2 z"
     id="path1604" /><path
     class="st3"
     d="m 49.9,73.2 v -0.5 c 0.6,-2.3 4.7,-1.5 4.2,0.8 -0.2,1 -1.2,1.4 -2.1,1.3 0.4,1.3 -0.5,2.7 -2.3,2.1 -2.4,-0.8 -1.9,-3.9 0.2,-3.7 z"
     id="path1606" /><path
     class="st3"
     d="M 65.1,60.6 C 62.7,59.4 64,56 66.4,57.3 c 2.4,1.3 1.1,4.5 -1.3,3.3 z"
     id="path1608" /><path
     class="st3"
     d="M 52.8,88.6 C 51.5,88.2 50.9,87.1 51.1,86.2 51,86 51,85.8 51,85.5 c 0.4,-2.3 4.6,-1.7 4.2,0.5 l -0.3,0.7 c 0.3,1.1 -0.4,2.4 -2.1,1.9 z"
     id="path1610" /><path
     class="st3"
     d="m 69.1,49.4 c 2.5,-0.4 4.1,3.3 1.7,3.7 -2.5,0.4 -4.2,-3.3 -1.7,-3.7 z"
     id="path1612" /><path
     class="st3"
     d="m 89.1,70 c 2.5,-0.6 4.3,3.1 1.8,3.7 -2.6,0.6 -4.4,-3.1 -1.8,-3.7 z"
     id="path1614" /><path
     class="st3"
     d="m 76.3,60.9 c -2.5,0.8 -4.4,-3 -1.8,-3.8 2.5,-0.7 4.2,3 1.8,3.8 z"
     id="path1616" /><path
     class="st3"
     d="m 60.2,59.2 c -2.4,0.7 -4.5,-2.8 -2,-3.5 2.4,-0.7 4.4,2.9 2,3.5 z"
     id="path1618" /><path
     class="st3"
     d="m 80.5,66.7 c -2.3,0.4 -4.4,-2.8 -2.1,-3.3 2.4,-0.4 4.5,2.9 2.1,3.3 z"
     id="path1620" /><path
     class="st3"
     d="m 59,74.6 c -2.3,0.9 -4.7,-2.4 -2.3,-3.2 2.3,-0.9 4.6,2.4 2.3,3.2 z"
     id="path1622" /><path
     class="st3"
     d="m 65,61.3 c 2.4,-0.6 4.5,2.8 2.1,3.4 -2.3,0.6 -4.5,-2.8 -2.1,-3.4 z"
     id="path1624" /><path
     class="st3"
     d="m 60.1,67.8 c -2.4,0.9 -4.6,-2.7 -2.1,-3.5 2.5,-0.8 4.6,2.7 2.1,3.5 z"
     id="path1626" /><path
     class="st3"
     d="m 78.1,59.1 c -2.4,0.4 -4.3,-3 -1.9,-3.4 2.4,-0.4 4.2,3 1.9,3.4 z"
     id="path1628" /><path
     class="st3"
     d="m 73.1,76.3 v 0.2 0 0.5 c -0.1,0.4 -0.3,0.6 -0.6,0.8 0.8,1.2 -0.1,2.8 -2,2.1 -1.6,-0.6 -1.9,-2 -1.3,-2.8 C 69,76.8 68.9,76.5 69,76.1 V 76 c -0.3,-0.7 -0.2,-1.4 0.7,-1.7 1.7,-0.4 3.3,0.9 3.4,2 z"
     id="path1630" /><path
     class="st3"
     d="m 48.1,68.9 c -2.4,1 -4.7,-2.4 -2.3,-3.4 2.5,-1 4.7,2.4 2.3,3.4 z"
     id="path1632" /><path
     class="st3"
     d="m 84.9,50.6 c 2.4,-0.1 3.9,3.5 1.5,3.6 -2.3,0.1 -3.9,-3.5 -1.5,-3.6 z"
     id="path1634" /><path
     class="st3"
     d="m 45.5,78.9 c -2.3,1.2 -4.9,-2.1 -2.4,-3.3 2.3,-1.1 4.7,2.2 2.4,3.3 z"
     id="path1636" /><path
     class="st3"
     d="m 84.2,71.5 c 2.3,-0.4 4.5,2.7 2.2,3.1 C 84.2,75 81.9,72 84.2,71.5 Z"
     id="path1638" /><path
     class="st3"
     d="m 60.8,83 c -0.5,-1.2 0.4,-2.7 2.2,-2 2,0.7 2,2.9 0.6,3.3 0.4,0.7 0.3,1.4 -0.6,1.8 -2.2,1 -4.9,-2 -2.6,-3 z"
     id="path1640" /><path
     class="st3"
     d="m 41.9,83 c -0.3,2.5 -4.6,2.3 -4.2,-0.3 0.3,-2.6 4.5,-2.2 4.2,0.3 z"
     id="path1642" /><path
     class="st3"
     d="m 50.5,93.7 c -0.2,2.6 -4.5,2.7 -4.2,0 0.2,-2.7 4.5,-2.6 4.2,0 z"
     id="path1644" /><path
     class="st3"
     d="m 47,88.2 c -0.3,2.3 -4.5,2.1 -4.2,-0.3 0.3,-2.5 4.5,-2.1 4.2,0.3 z"
     id="path1646" /><path
     class="st3"
     d="m 62.7,77.1 c -0.5,2.1 -4.6,1.4 -4.2,-0.8 0.6,-2.2 4.7,-1.4 4.2,0.8 z"
     id="path1648" /><path
     class="st3"
     d="m 45.5,96.1 c -0.2,2.3 -4.4,2.4 -4.2,-0.1 0.2,-2.4 4.4,-2.3 4.2,0.1 z"
     id="path1650" /><path
     class="st3"
     d="m 40.6,90.5 c 0,2.6 -4.2,3.1 -4.2,0.3 0,-2.8 4.3,-3 4.2,-0.3 z"
     id="path1652" /><path
     class="st3"
     d="m 45.2,98.4 c 0.1,2.9 -4.1,3.6 -4.2,0.6 -0.1,-3 4.1,-3.5 4.2,-0.6 z"
     id="path1654" /><path
     class="st3"
     d="m 50.3,61.2 c 0.7,-2.4 4.9,-1.4 4.1,1 -0.7,2.4 -4.8,1.5 -4.1,-1 z"
     id="path1656" /><path
     class="st2"
     d="m 88.5,35.3 c 1.1,4.6 -2.4,8.1 -6.5,8.6 -4.1,0.5 -7.4,-2.3 -8.3,-6.8 -0.8,-4.2 2.5,-7.7 6.5,-8.5 4.3,-1 7.4,2.5 8.3,6.7 z"
     id="path1658" /><path
     d="m 84,35.8 c 0.2,0.9 -0.5,1.5 -1.3,1.6 -0.8,0.1 -1.4,-0.4 -1.6,-1.3 -0.2,-0.8 0.5,-1.4 1.2,-1.6 0.9,-0.1 1.5,0.5 1.7,1.3 z"
     id="path1660" /><path
     d="m 112.2,26.1 c 0.2,0.8 -0.4,1.4 -1.1,1.4 -0.7,0.1 -1.3,-0.4 -1.4,-1.1 -0.1,-0.7 0.4,-1.3 1.1,-1.4 0.8,-0.2 1.3,0.4 1.4,1.1 z"
     id="path1662" /><path
     class="st4"
     d="m 124.8,66.9 c -17.2,3.8 -24.5,-5.7 -24.5,-5.7"
     id="path1664" /><path
     class="st5"
     d="m 111.1,85 c -2.6,-2.4 -13.9,1.2 -24.9,9.5 -15.5,11.8 -40,17.6 -34.1,21.5 5.9,4 8.9,3.4 17.4,0.2 8.9,-3.3 17.8,-5.7 29.7,-17.5 7,-6.6 8.8,-9.8 11.9,-13.7 z"
     id="path1666" /><path
     class="st6"
     d="m 53,92.4 c 4.8,-5.9 22.8,-15.7 29.9,-9.5 7.1,6.3 -3.3,32.3 -3.3,32.3 0,0 26.3,-5.1 25.1,-3 -1.1,2.1 -13,3.3 -13,3.3 0,0 14.7,-0.3 14.6,1.4 -0.1,1.7 -14.8,1 -14.8,1 0,0 12.4,4 11.5,5.4 -0.9,1.5 -11.8,-1.2 -20.3,-2.2 -8.5,-1.1 -13,3.7 -13.2,0.2 -0.1,-3.5 4.9,-17.3 4.9,-17.3 0,0 -8.6,17.8 -19.7,15 C 36.5,114.3 48.9,97.4 53,92.4 Z"
     id="path1668" /><path
     d="m 132.8,49.3 c 0.1,0.7 -0.4,1.3 -1.1,1.4 -0.7,0.1 -1.3,-0.4 -1.4,-1.1 -0.1,-0.7 0.4,-1.3 1.1,-1.4 0.7,-0.1 1.4,0.4 1.4,1.1 z"
     id="path1670" /><path
     d="m 137.7,46.9 c 0.1,0.5 -0.3,1 -0.9,1.1 -0.6,0.1 -1.1,-0.3 -1.1,-0.9 -0.1,-0.6 0.3,-1 0.9,-1.1 0.5,0 1,0.4 1.1,0.9 z"
     id="path1672" /><path
     class="st1"
     d="m 100,80.2 c 0,0 6.1,21.1 9.6,24.1 2.8,2.4 4.3,1.4 4.3,1.4 0,0 9,-2.2 7.6,-0.3 -1.4,1.9 -7.3,2.6 -7.3,2.6 0,0 10.4,1.3 8.8,2.5 -1.5,1.2 -10.2,0.6 -10.2,0.6 0,0 10.7,3.8 8.1,4.2 -3.6,0.5 -12.8,-1.7 -13.9,-3.8 C 105.9,109.3 94,90.7 91.5,87.3 89,83.8 100,80.2 100,80.2 Z"
     id="path1674" /></g>
</svg>
