<?xml version="1.0" encoding="UTF-8" standalone="no"?>
<!-- Generator: Adobe Illustrator 26.5.0, SVG Export Plug-In . SVG Version: 6.00 Build 0)  -->

<svg
   version="1.1"
   id="Capa_1"
   x="0px"
   y="0px"
   viewBox="0 0 506 102"
   style="enable-background:new 0 0 506 102;"
   xml:space="preserve"
   sodipodi:docname="svgIndexViolin.svg"
   inkscape:version="1.2.1 (9c6d41e410, 2022-07-14)"
   xmlns:inkscape="http://www.inkscape.org/namespaces/inkscape"
   xmlns:sodipodi="http://sodipodi.sourceforge.net/DTD/sodipodi-0.dtd"
   xmlns="http://www.w3.org/2000/svg"
   xmlns:svg="http://www.w3.org/2000/svg"><defs
   id="defs1838" /><sodipodi:namedview
   id="namedview1836"
   pagecolor="#ffffff"
   bordercolor="#000000"
   borderopacity="0.25"
   inkscape:showpageshadow="2"
   inkscape:pageopacity="0.0"
   inkscape:pagecheckerboard="0"
   inkscape:deskcolor="#d1d1d1"
   showgrid="false"
   inkscape:zoom="3.2272727"
   inkscape:cx="252.84507"
   inkscape:cy="51.126761"
   inkscape:window-width="3840"
   inkscape:window-height="2066"
   inkscape:window-x="-11"
   inkscape:window-y="-11"
   inkscape:window-maximized="1"
   inkscape:current-layer="Capa_1" />
<style
   type="text/css"
   id="style1801">
	.st0{fill:#F7941D;}
	.st1{fill:#5D3D3D;}
	.st2{fill:#7A411B;}
	.st3{fill:#DB7E2D;}
	.st4{fill:#A35625;}
	.st5{fill:#FFFFFF;}
	.st6{fill:none;stroke:#000000;stroke-width:0.369;stroke-linecap:round;}
	.st7{fill:none;stroke:#DB7E2D;stroke-width:0.523;stroke-linecap:round;}
</style>
<path
   class="st0"
   d="m 495.30986,34.690136 h -4 -41 -413.600001 l -33.4,33.500004 33.4,33.5 h 413.600001 41 4 c 6.1,0 11,-4.9 11,-11 V 45.690136 c 0,-6.1 -4.9,-11 -11,-11 z"
   id="path1803" />














<g
   id="g2315"
   transform="translate(-56)"><path
     class="st1"
     d="m 84.5,30.2 c 0.7,0.1 1,-1.4 1.3,-2.3 C 80,21.1 72.2,15.5 63.4,17.4 c 5.1,1 9.1,2.1 13.3,5.2 1.7,1.1 5.9,5.1 7.8,7.6 z"
     id="path1805" /><path
     class="st1"
     d="M 91.7,24.3 C 89.8,17.4 84.8,7.3 77.3,4.9 c 2.9,3.1 4.5,4.6 7.2,9 2.1,3.4 4.1,9.3 4.8,12.1 0.9,-0.6 2.6,-0.3 2.4,-1.7 z"
     id="path1807" /><path
     class="st2"
     d="m 52.7,81.6 c -2.3,7.3 0.9,36.6 1.1,41.9 0.3,5.9 1,7.1 -1.8,7.6 -4.8,1 -7.6,3.8 -1.2,3.1 2.4,-0.2 5.3,0 7.4,-1.4 0.2,-6.3 -0.4,-15.5 -0.7,-24.4 -0.1,-3.9 -2.7,-20 0,-22.4 5.4,-5.4 16.8,10 20.6,12.8 3.1,2.1 8.8,5.1 7.7,-0.7 C 85.2,95 81,91.6 78.7,89.5 76.7,88 56.6,69.2 52.7,81.6 Z"
     id="path1809" /><path
     class="st2"
     d="m 122,52.9 c -3.4,3.4 -6.1,3.9 -9.8,5.4 -1.8,0.7 -1,0.3 -1.4,2.3 -0.4,3.7 -2.3,12 -2.7,15.8 -0.8,6.6 -1.6,14.9 -5.3,21.6 -1.9,3.7 -11,12.4 -14.8,14.8 -5.3,3.5 -16.1,7.7 -24.1,8 -9.7,0.4 -18.4,-2 -26.2,-5.7 -1.9,-1 -4.4,-2.8 -5.2,-5.1 -1.2,-2.7 5,-6.5 6.9,-8.2 2,-2 11.2,-8.9 12.6,-10.4 3.7,-4.2 15.6,-19.6 17.9,-23.9 2.4,-4.4 3.1,-9.6 5,-14.2 1.7,-3.9 2.9,-8 4.9,-11.8 0.9,-2 1.6,-2.7 2.4,-3.6 0,-10.1 5.2,-13.5 9.3,-15 5.7,-2.1 14.5,1.6 19.9,3.6 13.6,5.1 25.2,19.2 10.6,26.4 z"
     id="path1811" /><path
     class="st3"
     d="m 90.7,61.6 c -1.8,8 -9.5,31.8 -22.1,41.6 -5.2,3.9 -11.7,6.3 -18.4,7.8 -3.6,0.8 -14.4,3.5 -18,0.6 -3.7,-3.5 9.3,-12.6 12.3,-15.6 6.2,-6.6 17.4,-16.9 22,-25 5.9,-10.5 7.8,-17.9 9.4,-20.2 1.9,-2.6 15.8,6.4 14.8,10.8 z"
     id="path1813" /><path
     class="st0"
     d="M 111.7,61.5 C 101.4,57.7 90.8,52.8 81.6,46.7 80.7,46.2 79.8,45.2 78.9,44.8 77,44 77.7,44 76.3,45.5 c -2,2 -3.2,4.6 -1.9,6.8 1.5,2.2 4.7,3.1 6.7,4.5 5.7,4 24,10.7 26.5,11 2.1,0.3 2.3,0.5 2.9,-1.2 0.5,-1.3 1.2,-3 1.2,-5.1 z"
     id="path1815" /><path
     class="st4"
     d="m 47,84.7 c -3.5,7.4 -4.3,38.9 -4.8,44.6 -0.6,6.3 0.1,7.6 -3,7.9 -5.3,0.4 -8.6,3 -1.7,3.1 2.6,0.2 5.6,0.8 8,-0.4 1.1,-6.6 1.8,-16.5 2.7,-25.9 0.4,-4.1 0,-21.6 3.2,-23.8 6.5,-5 16.4,13.1 20,16.6 3,2.7 8.6,6.6 8.2,0.4 C 79.4,103.8 75.4,99.6 73.3,97 71.5,94.9 52.9,72.1 47,84.7 Z"
     id="path1817" /><path
     class="st4"
     d="m 104,77 c 8.5,-1.2 12.3,-4.6 18.6,-10.4 3.3,-3 4,-4.8 7.4,-1.2 2,2 5,6.7 0.3,6.3 -1.2,-0.1 -1.3,-3 -3,-3 -1.4,-0.1 -9.5,7.7 -12.8,9 -2.4,1.2 -6.6,2.4 -9.4,2.5 C 101.9,80 98.6,77.8 104,77 Z"
     id="path1819" /><path
     class="st5"
     d="m 95.8,28.6 c 7.5,5.2 1.5,16.1 -7,10.1 -7.2,-5 0.8,-14.4 7,-10.1 z"
     id="path1821" /><path
     class="st4"
     d="m 96,94.7 c 3.6,5.4 12.4,9.2 22,4.4 3.5,-1.9 7.6,-4.2 10.2,0.7 2.7,5 1.6,6 0.6,6.6 -1.6,1 -2.7,-1.2 -5,-5.7 -3.9,0.9 -8,3.6 -12.5,4.3 -10.4,1.7 -23,-9.3 -21.3,-13.3 1.5,-3.6 4,0 6,3 z"
     id="path1823" /><path
     class="st6"
     d="m 121.1,53 c -0.4,0.1 -2.5,0.3 -4.7,-0.3 -3.4,-1 -4.9,-5.3 -4.9,-5.3"
     id="path1825" /><path
     d="m 94.3,31.2 c 0.7,0 1.1,0.4 1.3,0.9 0.2,0.6 -0.4,1.2 -0.9,1.2 -0.8,0.1 -1.3,-0.5 -1.4,-1.2 0,-0.5 0.5,-0.9 1,-0.9 z"
     id="path1827" /><path
     class="st7"
     d="m 107.2,85 c -8.9,1.7 -17.6,-1.9 -24,-7"
     id="path1829" /><path
     class="st7"
     d="M 95.9,106.1 C 86.3,107.6 77.1,101.9 72.5,94.8"
     id="path1831" /><path
     class="st7"
     d="M 70.4,120 C 64.2,118.7 57.7,109.9 56.5,101.6"
     id="path1833" /></g>
</svg>
