<svg width="503" height="101" viewBox="0 0 503 101" fill="none" xmlns="http://www.w3.org/2000/svg">
<rect x="436" y="34" width="67" height="67" rx="11" fill="#6A6A66"/>
<path d="M488 101L33.444 101L2.92866e-06 67.5L33.444 34L488 34L488 101Z" fill="#6A6A66"/>
<mask id="mask0" mask-type="alpha" maskUnits="userSpaceOnUse" x="4" y="0" width="162" height="101">
<rect x="4" width="162" height="101" fill="#C4C4C4"/>
</mask>
<g mask="url(#mask0)">
<g opacity="0.8">
<g opacity="0.8">
<path opacity="0.8" d="M109.872 33.6212C110.768 35.7666 113.788 37.3079 116.163 36.329C117.933 35.6 119.141 32.7256 116.934 30.2678C114.892 28.0182 113.226 28.3724 111.455 29.1222C109.685 29.8512 108.977 31.4758 109.872 33.6212Z" fill="white"/>
<path opacity="0.8" d="M109.872 33.6212C110.768 35.7666 113.788 37.3079 116.163 36.329C117.933 35.6 119.141 32.7256 116.934 30.2678C114.892 28.0182 113.226 28.3724 111.455 29.1222C109.685 29.8512 108.977 31.4758 109.872 33.6212Z" stroke="#D3D2C2" stroke-width="0.113" stroke-linecap="round"/>
</g>
</g>
<path d="M115.163 32.1007C115.351 32.5381 115.142 33.0588 114.705 33.2254C114.267 33.4129 113.747 33.2047 113.58 32.7673C113.393 32.3299 113.622 31.809 114.059 31.6424C114.476 31.4549 114.976 31.6633 115.163 32.1007Z" fill="black"/>
<path d="M92.2095 88.1725C92.2095 88.1725 97.4168 89.0681 100.791 89.7346C104.186 90.4012 106.582 92.0466 107.29 92.7964C107.998 93.5671 108.977 98.4829 110.727 97.858C111.83 97.4414 111.497 95.0252 111.497 95.0252C111.497 95.0252 113.268 95.8584 114.455 95.4626C116.225 94.8794 113.247 92.3383 113.247 92.3383C113.247 92.3383 117.788 93.7546 117.85 90.8385C117.892 89.068 114.892 87.9017 108.935 88.1516C103.186 88.3807 93.9175 83.7567 93.9175 83.7567" fill="#F7941D"/>
<path d="M69.6101 81.0906C69.6101 81.0906 64.4028 81.9862 61.0077 82.6528C57.6334 83.3193 55.2172 84.9648 54.509 85.7147C53.8009 86.4854 52.8218 91.401 51.0722 90.7761C49.9683 90.3804 50.3015 87.9434 50.3015 87.9434C50.3015 87.9434 48.5311 88.7765 47.3438 88.3807C45.5734 87.7975 48.5518 85.2564 48.5518 85.2564C48.5518 85.2564 44.0112 86.6937 43.9487 83.7568C43.907 81.9863 46.9064 80.8199 52.8635 81.0699C58.6123 81.3198 67.8813 76.6957 67.8813 76.6957" fill="#F7941D"/>
<path d="M83.7321 32.0174C83.7321 32.0174 89.6476 29.8928 98.4583 29.1846C102.124 28.893 109.477 31.9966 114.934 34.7877C119.183 36.9747 131.597 39.1617 133.847 39.5783C137.721 40.2865 150.156 43.2442 150.156 46.0561C150.156 48.868 147.011 51.3259 139.617 54.846C132.243 58.3453 109.164 62.7194 101.999 73.8213C92.7095 88.235 90.4599 106.169 89.7518 114.605C89.0436 123.04 86.5857 133.58 86.5857 133.58C86.5857 133.58 98.6458 133.205 96.8961 135.663C95.1465 138.121 90.5016 135.725 90.5016 135.725C90.5016 135.725 91.8555 138.85 90.4392 139.204C89.0228 139.558 87.2314 136.475 87.2314 136.475C87.2314 136.475 87.6272 138.912 84.8153 139.245C82.0034 139.558 81.3577 137.787 82.0658 134.621C82.774 131.455 82.6282 119.728 82.399 119.52C82.0658 119.249 66.819 119.52 66.819 119.52L65.6317 133.226C65.6317 133.226 74.9006 135.35 73.8592 136.746C72.8177 138.162 68.3603 136.1 68.3603 136.1C68.3603 136.1 71.7554 138.641 69.6517 139.266C67.5479 139.891 65.4859 137.85 65.4859 137.85C66.6106 142.599 59.7371 139.933 60.8619 135.684V118.104C60.8619 118.104 53.8842 129.289 40.8243 129.352C24.5777 129.435 3.12371 115.688 -3.87485 108.335C-11.0817 100.795 -8.33229 102.857 0.395082 105.086C12.4968 108.189 22.0157 106.523 28.1811 104.732C32.7218 103.399 38.9705 101.461 45.49 103.024C50.9056 104.315 58.4456 110.418 58.4456 110.418C58.4456 110.418 56.467 90.8387 71.0265 71.301C73.8384 67.5518 71.6305 60.8448 71.6305 60.8448C71.6305 60.8448 70.2141 60.949 68.6936 61.2406C66.1733 61.6988 64.0278 65.0105 65.0901 62.1986C66.1524 59.3867 70.0059 56.9289 70.0059 56.9289C70.0059 56.9289 68.881 55.1169 63.4447 55.5543C59.8829 55.8459 67.9854 50.7219 67.9854 50.7219C67.9854 50.7219 63.7155 50.0137 60.8827 49.722C59.4455 49.5762 69.4017 44.8481 69.4017 44.8481C69.4017 44.8481 69.6934 44.3482 69.6101 41.6196C69.5684 40.2658 70.0059 36.1832 70.0059 36.1832C70.0059 36.1832 68.4228 27.0393 67.9854 23.5192C67.548 19.9991 67.9854 16.1456 67.9854 16.1456C67.9854 16.1456 75.4213 22.0403 79.0247 25.7895C81.6909 28.5806 83.7321 32.0174 83.7321 32.0174Z" fill="#F7941D"/>
<path d="M103.332 73.5714C93.7926 87.631 91.3763 101.316 91.1681 114.376C87.1897 114.459 82.5241 114.042 78.7332 114.376C78.4207 111.918 79.0247 109.335 79.0247 106.752C79.0247 81.8405 88.8768 68.3849 108.331 63.5109C110.039 63.0943 119.85 60.8448 121.558 61.1989C114.538 63.9275 106.727 68.5724 103.332 73.5714Z" fill="white"/>
<g opacity="0.8">
<g opacity="0.8">
<path opacity="0.8" d="M121.558 61.1988C114.538 63.9274 106.727 68.5723 103.353 73.5713C93.8133 87.6309 91.3972 101.316 91.1889 114.375" stroke="#D3D2C2" stroke-width="0.113" stroke-linecap="round"/>
</g>
</g>
<path d="M146.823 42.5777C150.927 43.7442 156.592 45.1605 153.322 47.8891C149.365 51.1801 142.199 53.5964 142.199 53.5964C142.199 53.5964 138.783 43.89 139.762 40.9531C139.741 40.9531 145.324 42.1611 146.823 42.5777Z" fill="#5D3D3D"/>
<path d="M99.7913 29.6845C99.7913 29.6845 95.9171 24.498 93.8758 21.7486C91.8346 19.02 86.1274 12.5838 85.815 13.0212C85.5026 13.4586 84.3154 16.1664 84.7111 20.853C85.1277 25.5395 86.1275 31.5174 86.1275 31.5174L99.7913 29.6845Z" fill="#F7941D"/>
<path d="M0.415847 105.127C11.6844 108.023 20.7242 106.773 26.8896 105.127C24.4734 107.523 20.6409 111.272 21.849 111.272C23.557 111.272 30.7638 114.355 28.7017 114.355C26.6397 114.355 21.6198 115.375 21.6198 115.375C21.6198 115.375 27.327 120.353 26.6397 120.687C25.9523 121.02 19.0996 118.979 19.0996 118.979C19.0996 118.979 19.4536 121.728 19.3911 123.79C9.30982 119.166 0.228391 112.647 -3.87493 108.356C-11.061 100.837 -8.31152 102.899 0.415847 105.127Z" fill="white"/>
<path d="M79.7538 34.0586C79.7538 34.0586 72.422 26.1436 72.2137 27.1225C72.0054 28.1015 72.2137 36.0998 72.2137 36.0998C72.2137 36.0998 75.0464 34.9335 76.067 34.7252C77.1084 34.5377 79.7538 34.0586 79.7538 34.0586Z" fill="white"/>
<path d="M89.1059 22.5401C88.5227 22.2277 88.3561 23.0816 88.3353 24.5813C88.2936 26.081 88.2936 30.1636 88.2936 30.1636L94.0007 28.8721C94.0007 28.8929 89.6892 22.8525 89.1059 22.5401Z" fill="white"/>
<path d="M93.1051 40.6823C93.1051 44.0149 96.4794 47.6808 100.374 47.6808C103.29 47.6808 106.644 44.5564 104.957 40.1199C103.415 36.0374 100.978 35.2043 97.9374 35.6208C95.0422 35.9958 93.1051 37.3705 93.1051 40.6823Z" fill="white"/>
<path d="M98.2083 42.0778C98.2083 42.5985 97.7917 43.0151 97.271 43.0151C96.7502 43.0151 96.3336 42.5985 96.3336 42.0778C96.3336 41.557 96.7502 41.1404 97.271 41.1404C97.7917 41.1404 98.2083 41.557 98.2083 42.0778Z" fill="black"/>
<path d="M84.2111 106.065C84.2111 106.065 84.6487 88.2767 78.9832 80.0909C76.6503 76.7166 68.2979 73.8422 68.2979 73.8422L69.4226 72.2592C69.4226 72.2592 77.1502 74.3004 81.8367 80.2159C86.8149 86.4854 87.7938 106.065 87.7938 106.065H84.2111Z" fill="black"/>
<path d="M108.415 55.8666C108.415 55.8666 108.081 60.8448 105.332 60.6781C102.582 60.5115 102.416 55.2001 102.416 55.2001" stroke="black" stroke-width="0.494" stroke-linecap="round"/>
<g opacity="0.8">
<g opacity="0.8">
<path opacity="0.8" d="M42.2579 45.0304C42.2579 45.0304 35.8185 38.7863 29.4509 32.9757C21.2049 29.0207 19.9337 28.4528 19.4533 29.4852C18.6 31.3061 19.1308 31.6825 18.7013 38.4334C20.8522 46.8705 23.6252 55.7029 23.6252 55.7029C23.6252 55.7029 31.8432 65.1602 38.4683 60.6453C45.0679 56.1156 42.2579 45.0304 42.2579 45.0304Z" fill="#D3CACA"/>
<path opacity="0.8" d="M42.2579 45.0304C42.2579 45.0304 35.8185 38.7863 29.4509 32.9757C21.2049 29.0207 19.9337 28.4528 19.4533 29.4852C18.6 31.3061 19.1308 31.6825 18.7013 38.4334C20.8522 46.8705 23.6252 55.7029 23.6252 55.7029C23.6252 55.7029 31.8432 65.1602 38.4683 60.6453C45.0679 56.1156 42.2579 45.0304 42.2579 45.0304Z" stroke="#D3D2C2" stroke-width="0.113" stroke-linecap="round"/>
</g>
</g>
<path d="M42.258 45.0303C42.258 45.0303 42.6813 50.2836 40.3499 50.8372C38.2252 51.3574 36.1484 48.4819 36.1484 48.4819C36.1484 48.4819 37.0096 53.2744 35.1765 54.4069C32.8077 55.8754 29.4345 52.0937 29.4345 52.0937C29.4345 52.0937 30.7093 56.8196 28.2838 57.5058C25.7577 58.2187 23.585 55.7134 23.585 55.7134L55.4999 108.299L68.7306 99.6837L42.258 45.0303Z" fill="#ED1C24"/>
<path d="M68.7656 99.6529C68.7656 99.6529 70.7162 106.441 64.7926 110.188C58.869 113.935 55.52 108.294 55.52 108.294L68.7656 99.6529Z" fill="black"/>
<path d="M29.454 32.9747C27.4253 34.9133 24.9167 36.5051 22.0265 37.5516C20.9257 37.9512 19.813 38.2247 18.7044 38.4325C16.9592 31.5255 15.2055 24.0175 16.0641 22.2168C16.5297 21.2098 23.2043 27.2837 29.454 32.9747Z" fill="#ED1C24"/>
<path d="M41.3609 85.3706C41.3557 87.1389 41.8759 90.3196 43.2863 91.0877C44.1979 91.6002 49.0079 92.6735 49.3915 90.8695C49.6225 89.7092 47.4155 88.6998 47.4155 88.6998C47.4155 88.6998 49.0525 87.6408 49.3534 86.4189C49.7974 84.5988 46.0604 85.7837 46.0604 85.7837C46.0604 85.7837 49.6793 82.6908 47.2316 81.0987C45.753 80.1548 44.3187 80.1903 41.3609 85.3706Z" fill="#F7941D"/>
</g>
<path d="M205.068 79.3693C204.956 79.3213 204.844 79.2573 204.748 79.1614C204.652 79.0655 204.572 78.9696 204.556 78.8576L203.789 72.0788C203.789 71.9989 203.757 71.919 203.677 71.8551C203.597 71.7911 203.533 71.7751 203.469 71.7911L199.76 72.1429L200.367 77.7386C200.399 78.0743 200.511 78.394 200.655 78.6818C200.799 78.9696 200.895 79.2734 200.943 79.5931C200.959 79.721 200.959 79.801 200.911 79.833C200.863 79.8649 200.767 79.8969 200.623 79.9129C200.575 79.9129 200.527 79.9129 200.447 79.9289C200.367 79.9449 200.319 79.9449 200.303 79.9449H199.904C199.728 79.9449 199.536 79.9448 199.344 79.9608C199.152 79.9768 198.976 79.9768 198.816 79.9928C198.656 80.0088 198.561 80.0088 198.513 80.0088C198.129 80.0088 197.825 79.9608 197.585 79.8809C197.346 79.8009 197.17 79.6731 197.042 79.4972C196.914 79.3213 196.818 79.1135 196.77 78.8736C196.706 78.6338 196.658 78.3461 196.626 78.0263C196.514 76.8592 196.434 75.6921 196.37 74.525C196.306 73.3579 196.258 72.1908 196.21 70.9917C196.21 70.9757 196.21 70.8479 196.194 70.64C196.178 70.4322 196.178 70.1763 196.146 69.9045C196.13 69.6327 196.099 69.3609 196.083 69.0891C196.067 68.8174 196.035 68.6095 196.019 68.4656C195.971 67.6502 196.019 66.9148 196.13 66.2274C196.242 65.5399 196.386 64.8044 196.53 63.989C196.402 63.6213 196.434 63.2377 196.61 62.838C196.786 62.4383 196.93 62.0706 197.042 61.7508C197.074 61.575 197.106 61.415 197.122 61.2711C197.138 61.1272 197.17 60.9514 197.234 60.7596C197.234 60.7436 197.25 60.6956 197.266 60.6477C197.282 60.5997 197.314 60.5676 197.33 60.5676C197.569 60.136 197.761 59.7043 197.937 59.2726C198.113 58.841 198.337 58.4093 198.641 57.9776C198.832 57.7218 199.056 57.466 199.344 57.1943C199.616 56.9225 199.92 56.6827 200.239 56.4429C200.559 56.2031 200.895 56.0112 201.247 55.8673C201.598 55.7235 201.95 55.6274 202.286 55.5795C203.245 55.4995 203.996 55.6274 204.524 55.9792C205.052 56.3309 205.483 56.7786 205.787 57.3382C206.091 57.8978 206.331 58.5052 206.507 59.1767C206.666 59.8482 206.874 60.4718 207.082 61.0474C207.082 61.1113 207.098 61.2232 207.13 61.399C207.162 61.5749 207.194 61.7508 207.21 61.9427C207.226 62.1345 207.258 62.3103 207.29 62.4702C207.322 62.6301 207.338 62.742 207.338 62.806C207.482 64.2129 207.578 65.6359 207.61 67.0588C207.642 68.4817 207.69 69.9045 207.754 71.3115C207.754 71.6792 207.722 72.0469 207.674 72.4306C207.626 72.8143 207.61 73.1821 207.626 73.5498C207.626 73.5978 207.642 73.7096 207.658 73.8855C207.674 74.0613 207.706 74.2692 207.722 74.477C207.738 74.6849 207.77 74.8927 207.802 75.0686C207.834 75.2444 207.849 75.3564 207.849 75.4043V76.4595C207.849 76.5074 207.85 76.6194 207.865 76.7953C207.881 76.9711 207.882 77.179 207.898 77.3868C207.913 77.5946 207.913 77.8025 207.929 77.9783C207.945 78.1542 207.945 78.2822 207.945 78.3461C207.945 78.474 207.929 78.6658 207.882 78.9217C207.834 79.1775 207.706 79.3213 207.466 79.3693H207.402C207.386 79.3693 207.306 79.3533 207.194 79.3374C207.082 79.3214 207.002 79.3053 206.986 79.3053C206.922 79.3053 206.794 79.3054 206.602 79.3213C206.411 79.3373 206.219 79.3374 206.011 79.3374C205.803 79.3374 205.611 79.3373 205.435 79.3533C205.259 79.3692 205.132 79.3693 205.068 79.3693ZM197.649 54.5882C197.649 54.5243 197.745 54.3964 197.921 54.2046C198.097 54.0127 198.305 53.8048 198.529 53.581C198.752 53.3572 198.976 53.1494 199.2 52.9416C199.424 52.7337 199.584 52.5898 199.696 52.5099C199.744 52.4939 199.824 52.4139 199.968 52.286C200.111 52.1581 200.175 52.0782 200.207 52.0302C200.271 51.9663 200.367 51.8704 200.495 51.7265C200.623 51.5826 200.767 51.4387 200.911 51.2948C201.055 51.1509 201.199 51.0071 201.342 50.8632C201.486 50.7193 201.566 50.6393 201.614 50.5913C201.678 50.4474 201.838 50.2716 202.11 50.0638C202.382 49.8559 202.59 49.76 202.765 49.76C202.845 49.76 202.957 49.8079 203.085 49.8878C203.213 49.9678 203.341 50.0797 203.485 50.1916C203.629 50.3035 203.741 50.4155 203.853 50.5274C203.964 50.6393 204.028 50.7033 204.044 50.7512V51.071V51.3907C204.044 51.5026 203.996 51.5985 203.885 51.6785C203.821 51.7424 203.709 51.8383 203.533 51.9822C203.373 52.1261 203.245 52.2061 203.181 52.2541C202.478 52.7497 201.774 53.2453 201.055 53.7729C200.335 54.3004 199.616 54.7961 198.896 55.2917C198.832 55.3077 198.784 55.3237 198.736 55.3397C198.704 55.3557 198.625 55.3557 198.545 55.3557C198.305 55.3557 198.097 55.2757 197.921 55.0999C197.745 54.924 197.649 54.7641 197.649 54.5882ZM199.824 67.8582C199.84 68.114 200 68.2898 200.271 68.4017C200.543 68.5136 200.863 68.5776 201.231 68.6095C201.598 68.6415 201.95 68.6575 202.318 68.6415C202.685 68.6256 202.957 68.6095 203.149 68.5935C203.197 68.5935 203.277 68.5935 203.405 68.5775C203.533 68.5615 203.613 68.5615 203.661 68.5615C203.709 68.4976 203.741 68.4336 203.757 68.3857C203.773 68.3377 203.805 68.2738 203.821 68.2098C203.821 68.0819 203.805 67.8741 203.789 67.5863C203.773 67.2985 203.757 66.9788 203.741 66.6431C203.725 66.3073 203.725 65.9875 203.709 65.6998C203.693 65.412 203.693 65.2041 203.693 65.0762C203.709 65.0282 203.725 64.9323 203.725 64.7884V64.4687L203.405 61.367C203.389 61.2231 203.325 61.0474 203.245 60.8555C203.165 60.6637 203.053 60.4878 202.925 60.3279C202.797 60.168 202.637 60.0401 202.462 59.9442C202.286 59.8483 202.094 59.8163 201.902 59.8323C201.726 59.8483 201.566 59.9122 201.422 59.9921C200.719 60.7116 200.287 61.479 200.111 62.2624C199.936 63.0458 199.84 63.9092 199.824 64.8525C199.824 65.3641 199.808 65.8597 199.792 66.3553C199.776 66.8509 199.792 67.3465 199.824 67.8582Z" fill="white"/>
<path d="M212.39 77.7705C212.246 76.5714 212.198 75.3563 212.262 74.0933C212.326 72.8303 212.342 71.5992 212.294 70.3841C212.246 69.233 212.182 68.1139 212.102 67.0107C212.022 65.9076 211.99 64.7885 212.006 63.6373C212.006 62.4063 212.006 61.2551 212.022 60.1839C212.038 59.1128 211.958 57.9936 211.783 56.7945C211.831 56.4588 212.006 56.187 212.31 56.0112C212.614 55.8353 212.918 55.7233 213.221 55.6754C213.557 55.6274 213.941 55.6274 214.357 55.6754C214.772 55.7233 215.124 55.8833 215.396 56.1551C215.396 56.2031 215.396 56.2829 215.412 56.4108C215.428 56.5388 215.428 56.6187 215.428 56.6667C215.508 57.4181 215.492 58.2175 215.396 59.0968C215.284 59.9761 215.252 60.7755 215.3 61.4949C215.3 61.5749 215.316 61.9106 215.348 62.4702C215.38 63.0297 215.412 63.6853 215.46 64.4047C215.492 65.1242 215.54 65.8596 215.588 66.595C215.62 67.3305 215.668 67.9061 215.684 68.3377C215.748 69.361 215.78 70.3522 215.796 71.3274C215.812 72.3027 215.859 73.2779 215.971 74.2851C216.035 74.6848 216.211 74.9247 216.499 74.9886C216.787 75.0526 217.106 75.0845 217.442 75.0685C217.778 75.0525 218.098 75.0685 218.386 75.0845C218.673 75.1005 218.833 75.2924 218.881 75.6282C218.881 76.3156 218.865 76.8592 218.833 77.2748C218.801 77.6905 218.753 78.0743 218.689 78.41C218.625 78.7458 218.513 78.9216 218.37 78.9216C218.354 78.9376 218.306 78.9535 218.258 78.9535H218.146C217.33 78.9056 216.499 78.8737 215.652 78.8417C214.804 78.8097 213.941 78.7457 213.094 78.6658C212.822 78.6498 212.646 78.5699 212.566 78.426C212.502 78.2821 212.438 78.0742 212.39 77.7705Z" fill="white"/>
<path d="M223.55 79.6251C223.534 79.4492 223.518 79.3213 223.518 79.2094C223.518 79.0975 223.534 78.9695 223.582 78.7937L223.55 72.1108C223.31 70.4961 223.182 68.8493 223.166 67.1706C223.15 65.4918 223.102 63.8612 223.038 62.2624C222.974 61.511 222.91 60.7755 222.862 60.0241C222.814 59.2727 222.798 58.5372 222.814 57.7858C222.814 57.6579 222.798 57.53 222.766 57.4181C222.734 57.3062 222.75 57.1783 222.814 57.0504C222.942 56.8585 223.134 56.7146 223.374 56.6027C223.614 56.4908 223.885 56.4109 224.173 56.3629C224.461 56.315 224.733 56.283 225.02 56.267C225.308 56.251 225.532 56.235 225.724 56.219C226.235 56.171 226.715 56.219 227.163 56.3469C227.61 56.4748 228.026 56.6666 228.41 56.9064C228.794 57.1463 229.145 57.45 229.465 57.7858C229.785 58.1215 230.057 58.4892 230.296 58.8729C230.376 59.0488 230.456 59.2407 230.504 59.4645C230.552 59.6884 230.632 59.8802 230.712 60.0241L230.936 62.1345C230.92 62.1824 230.888 62.2943 230.872 62.4862C230.856 62.678 230.84 62.8059 230.84 62.8698C230.792 63.2056 230.712 63.5574 230.584 63.9091C230.456 64.2608 230.408 64.5966 230.456 64.9163C230.472 65.1881 230.616 65.4439 230.856 65.6677C231.096 65.8915 231.304 66.0994 231.48 66.2912C231.543 66.3552 231.655 66.4831 231.831 66.6749C232.007 66.8668 232.119 66.9948 232.183 67.0587C232.167 67.1227 232.215 67.2506 232.327 67.4424C232.439 67.6343 232.583 67.8581 232.743 68.0979C232.902 68.3377 233.046 68.5935 233.158 68.8333C233.27 69.0732 233.318 69.265 233.302 69.3929C233.318 69.4568 233.366 69.5688 233.446 69.7447C233.526 69.9205 233.59 70.0963 233.67 70.2882C233.75 70.48 233.814 70.6559 233.862 70.8158C233.91 70.9757 233.958 71.0876 233.974 71.1516C233.974 71.1676 233.99 71.3115 234.006 71.5513C234.022 71.7911 234.053 71.9829 234.101 72.1108C234.213 73.0701 234.181 73.9973 234.022 74.8767C233.862 75.756 233.638 76.6514 233.334 77.5467C233.35 77.5947 233.35 77.6426 233.334 77.7065C233.318 77.7705 233.286 77.8184 233.27 77.8664C233.062 78.2661 232.822 78.6498 232.551 79.0015C232.279 79.3533 231.911 79.609 231.416 79.7529C231.336 79.7529 231.192 79.7689 231.016 79.7849C230.84 79.8009 230.632 79.8329 230.424 79.8648C230.2 79.8968 230.009 79.9289 229.833 79.9449C229.657 79.9608 229.513 79.9768 229.433 79.9768C229.305 79.9768 229.129 79.9928 228.921 80.0088C228.714 80.0248 228.506 80.0567 228.282 80.0727C228.058 80.0887 227.882 80.1047 227.722 80.1207C227.562 80.1367 227.467 80.1367 227.451 80.1367C227.435 80.1367 227.371 80.1366 227.291 80.1526C227.211 80.1686 227.115 80.1686 227.003 80.1686C226.891 80.1686 226.795 80.1686 226.683 80.1526C226.571 80.1366 226.507 80.1367 226.459 80.1367C226.188 80.1367 225.884 80.1207 225.58 80.0887C225.276 80.0567 224.972 80.0408 224.669 80.0408C224.349 80.0568 224.093 80.0887 223.901 80.1047C223.709 80.1207 223.598 79.9608 223.55 79.6251ZM226.459 63.4135C226.475 63.4774 226.523 63.5254 226.603 63.5414C226.683 63.5574 226.731 63.5733 226.779 63.5733C226.891 63.5573 226.955 63.4934 226.971 63.4135C227.163 63.0298 227.275 62.6621 227.323 62.3263C227.371 61.9906 227.371 61.6068 227.323 61.1751C227.307 61.0632 227.275 60.9514 227.243 60.8075C227.211 60.6636 227.163 60.5357 227.083 60.4238C227.003 60.3119 226.923 60.2159 226.811 60.136C226.699 60.0561 226.571 60.0401 226.427 60.0561C226.411 60.0561 226.363 60.072 226.315 60.088C226.267 60.104 226.219 60.12 226.203 60.12L226.108 60.3118L226.459 63.4135ZM226.619 76.4594C226.635 76.6673 226.779 76.8272 227.051 76.9071C227.323 76.9871 227.53 77.0191 227.706 77.0031C228.282 76.9391 228.746 76.7952 229.081 76.5554C229.417 76.3155 229.657 76.0278 229.817 75.6921C229.961 75.3563 230.057 74.9727 230.073 74.541C230.089 74.1093 230.073 73.6936 230.009 73.2619C229.929 72.4465 229.737 71.6312 229.433 70.8158C229.129 70.0004 228.618 69.3289 227.866 68.8173C227.722 68.7374 227.579 68.6575 227.467 68.6095C227.355 68.5615 227.211 68.5455 227.035 68.5615C226.907 68.5615 226.811 68.6095 226.747 68.7214C226.683 68.8333 226.635 68.9452 226.619 69.0891C226.603 69.233 226.587 69.3769 226.587 69.5208V69.8725V72.5265C226.603 72.5745 226.635 72.6864 226.651 72.8942C226.667 73.102 226.683 73.2139 226.683 73.2619C226.699 73.8215 226.683 74.3491 226.635 74.8607C226.587 75.3723 226.587 75.8999 226.619 76.4594Z" fill="white"/>
<path d="M248.139 79.8808C247.947 79.8329 247.803 79.721 247.707 79.5291C247.611 79.3373 247.531 79.1294 247.483 78.9216C247.435 78.7138 247.387 78.5219 247.355 78.362C247.323 78.2021 247.259 78.1222 247.179 78.1222C247.052 78.1382 246.892 78.2341 246.684 78.41C246.476 78.5858 246.252 78.7777 245.996 78.9855C245.741 79.1934 245.453 79.4012 245.133 79.5931C244.813 79.7849 244.478 79.8968 244.142 79.9128C243.71 79.9608 243.295 79.9289 242.879 79.8489C242.463 79.769 242.079 79.6091 241.744 79.4012C240.976 78.9536 240.369 78.394 239.937 77.7385C239.505 77.083 239.154 76.3635 238.914 75.5801C238.674 74.7967 238.498 73.9974 238.402 73.15C238.306 72.3027 238.21 71.4873 238.13 70.7039C237.987 69.217 237.955 67.7302 238.051 66.2593C238.146 64.7885 238.242 63.3015 238.354 61.7827V61.5109C238.354 61.351 238.37 61.1752 238.386 60.9993C238.402 60.8234 238.418 60.6476 238.418 60.4877V60.1839C238.434 59.8482 238.45 59.5444 238.45 59.2886C238.45 59.0328 238.498 58.809 238.578 58.6331C238.658 58.4573 238.802 58.2973 239.01 58.1694C239.218 58.0415 239.521 57.9456 239.953 57.8817C240.065 57.8657 240.209 57.8657 240.417 57.8977C240.625 57.9296 240.832 57.9777 241.056 58.0416C241.28 58.1056 241.488 58.1855 241.696 58.2655C241.904 58.3454 242.031 58.4413 242.095 58.5212C242.095 58.5692 242.111 58.6332 242.127 58.7451C242.143 58.857 242.159 58.9209 242.159 58.9688C242.207 59.4325 242.207 59.9282 242.191 60.4398C242.175 60.9514 242.127 61.4629 242.063 61.9905C241.999 62.5181 241.935 63.0298 241.888 63.5414C241.84 64.053 241.792 64.5486 241.776 65.0122C241.712 65.9715 241.728 66.9148 241.808 67.8261C241.888 68.7374 241.983 69.6807 242.095 70.64C242.159 71.2955 242.255 71.9509 242.367 72.5744C242.479 73.1979 242.815 73.7576 243.342 74.2212C243.39 74.2692 243.502 74.3651 243.694 74.509C243.886 74.6529 243.998 74.7488 244.046 74.7967C244.062 74.7967 244.11 74.8128 244.158 74.8287C244.206 74.8447 244.254 74.8607 244.27 74.8607H244.334H244.366C244.414 74.8447 244.494 74.7968 244.621 74.7328C244.749 74.6689 244.829 74.5889 244.877 74.477C245.309 73.5976 245.613 72.7343 245.789 71.887C245.964 71.0396 246.092 70.1923 246.14 69.345C246.188 68.4976 246.204 67.6502 246.188 66.7709C246.172 65.8915 246.172 64.9963 246.188 64.053V63.8452C246.188 63.7333 246.188 63.6054 246.204 63.4615C246.22 63.3176 246.22 63.1897 246.236 63.0618C246.252 62.9339 246.252 62.8379 246.252 62.7739C246.252 62.7579 246.268 62.662 246.284 62.5182C246.3 62.3743 246.316 62.1984 246.348 62.0225C246.364 61.8467 246.396 61.6868 246.412 61.5429C246.428 61.399 246.444 61.319 246.444 61.2711C246.46 60.7115 246.444 60.2319 246.396 59.8002C246.348 59.3685 246.348 59.0168 246.412 58.7131C246.476 58.4093 246.652 58.1695 246.924 57.9936C247.195 57.8177 247.691 57.6899 248.395 57.6259C248.522 57.6099 248.698 57.578 248.906 57.562C249.114 57.546 249.322 57.53 249.53 57.546C249.738 57.562 249.929 57.5939 250.105 57.6738C250.281 57.7538 250.425 57.8817 250.505 58.0735C250.505 58.1854 250.521 58.3614 250.569 58.6331C250.617 58.9049 250.649 59.0808 250.665 59.1608C250.777 60.184 250.793 61.1911 250.713 62.1664C250.633 63.1416 250.585 64.1489 250.537 65.1721C250.521 65.4758 250.521 65.7956 250.569 66.1633C250.617 66.531 250.601 66.8828 250.537 67.2186C250.681 68.1938 250.793 69.1691 250.841 70.1443C250.889 71.1196 250.937 72.0948 250.953 73.07C250.969 74.0453 251.001 75.0366 251.017 76.0118C251.033 76.9871 251.081 77.9783 251.144 78.9535C251.097 79.1294 251.048 79.2893 250.985 79.4651C250.921 79.641 250.793 79.7369 250.601 79.7529C250.153 79.8009 249.754 79.8009 249.402 79.7849C249.05 79.7689 248.634 79.8009 248.139 79.8808Z" fill="white"/>
<path d="M255.013 79.5611C254.966 78.9696 255.014 78.362 255.141 77.7545C255.269 77.1469 255.365 76.5395 255.397 75.948C255.461 75.5163 255.509 75.1005 255.525 74.6689C255.541 74.2372 255.573 73.8215 255.621 73.3899C255.605 73.3739 255.589 73.3419 255.589 73.2939V73.166L255.909 71.0557C255.797 70.72 255.813 70.3682 255.925 70.0165C256.053 69.6647 256.117 69.345 256.165 69.0412C256.181 68.8334 256.229 68.4177 256.292 67.8101C256.356 67.2026 256.436 66.5152 256.548 65.7318C256.66 64.9484 256.772 64.1329 256.884 63.2696C256.996 62.4062 257.124 61.6069 257.252 60.8714C257.38 60.136 257.508 59.5125 257.619 59.0169C257.731 58.5213 257.843 58.2334 257.955 58.1695C258.275 57.9776 258.643 57.8658 259.058 57.8498C259.474 57.8338 259.858 57.8018 260.226 57.7858C260.481 57.7698 260.689 57.7539 260.833 57.7539C260.977 57.7539 261.201 57.7698 261.505 57.7858C261.76 57.9297 261.968 58.2175 262.112 58.6492C262.256 59.8163 262.496 60.9354 262.8 61.9906C263.103 63.0458 263.407 64.1329 263.711 65.268C263.727 65.316 263.759 65.428 263.807 65.6358C263.855 65.8437 263.903 66.0515 263.951 66.2913C263.999 66.5311 264.063 66.739 264.111 66.9468C264.158 67.1547 264.19 67.2666 264.19 67.3145C264.238 67.4264 264.286 67.6023 264.366 67.8582C264.43 68.114 264.494 68.2898 264.51 68.4017C264.51 68.4177 264.526 68.4496 264.542 68.4656C264.558 68.4816 264.59 68.4976 264.606 68.4976H264.638C264.766 68.4976 264.862 68.2258 264.942 67.6822C265.022 67.1386 265.086 66.4672 265.134 65.6518C265.182 64.8365 265.246 63.9731 265.294 63.0298C265.342 62.0865 265.405 61.2232 265.485 60.4078C265.565 59.5924 265.661 58.9209 265.773 58.3773C265.885 57.8337 266.045 57.546 266.237 57.53L269.594 57.2742C269.658 57.2742 269.738 57.3222 269.85 57.4181C269.962 57.514 270.026 57.6099 270.042 57.6899L270.65 62.2943C270.698 62.4702 270.745 62.6461 270.793 62.838C270.841 63.0298 270.889 63.2056 270.937 63.3815C270.953 63.6213 271.001 63.989 271.065 64.4847C271.129 64.9803 271.209 65.5558 271.289 66.1794C271.369 66.8029 271.465 67.4584 271.545 68.1459C271.625 68.8334 271.721 69.4889 271.801 70.1124C271.881 70.7359 271.961 71.2955 272.04 71.7911C272.12 72.2867 272.168 72.6384 272.216 72.8782C272.232 73.0861 272.28 73.4538 272.376 73.9654C272.456 74.477 272.552 75.0206 272.664 75.6122C272.776 76.2037 272.872 76.7473 272.968 77.2589C273.064 77.7705 273.128 78.1383 273.176 78.3461V78.442C273.192 78.554 273.192 78.6818 273.16 78.8576C273.128 79.0335 273.064 79.1294 272.952 79.1774L270.042 79.3693L268.187 65.2361L268.06 64.6925L266.269 79.3373L264.35 79.4972L260.513 64.7884L258.147 80.3925C258.131 80.5364 258.115 80.6323 258.131 80.6643C258.147 80.6962 258.099 80.7123 257.987 80.7123C257.971 80.7123 257.955 80.7123 257.955 80.7283C257.955 80.7443 257.939 80.7443 257.923 80.7443H257.891C257.715 80.7283 257.476 80.6962 257.172 80.6643C256.868 80.6323 256.548 80.5684 256.229 80.4884C255.909 80.4085 255.621 80.2965 255.397 80.1526C255.173 80.0088 255.045 79.8169 255.013 79.5611Z" fill="white"/>
<path d="M291.913 79.8489C291.865 79.833 291.833 79.737 291.817 79.5771C291.801 79.4172 291.785 79.3213 291.785 79.2733C291.657 78.5059 291.641 77.7385 291.721 76.9871C291.801 76.2356 291.833 75.4843 291.817 74.7328C291.785 73.7736 291.673 72.8142 291.514 71.871C291.354 70.9277 291.226 69.9685 291.146 69.0092C291.13 68.2578 291.13 67.5384 291.146 66.8509C291.162 66.1634 291.178 65.4439 291.178 64.6925C291.194 64.005 291.178 63.3176 291.114 62.6301C291.05 61.9426 291.002 61.2551 290.954 60.5676V60.3758V60.0401V59.7043V59.4805C290.938 59.3685 290.906 59.1927 290.89 58.9369C290.874 58.6811 290.858 58.4093 290.826 58.1215C290.81 57.8338 290.778 57.562 290.762 57.3061C290.746 57.0503 290.73 56.8745 290.73 56.7626C290.778 56.5868 290.81 56.4588 290.858 56.3788C290.906 56.2989 290.986 56.219 291.114 56.1551C291.162 56.1391 291.274 56.107 291.482 56.0751C291.689 56.0431 291.817 56.0271 291.881 56.0271C293.048 55.8833 294.104 55.9312 295.047 56.187C295.974 56.4428 296.789 56.8585 297.493 57.4341C298.18 58.0096 298.756 58.7131 299.188 59.5605C299.619 60.4078 299.923 61.3191 300.099 62.3263C300.211 63.1417 300.259 63.9251 300.259 64.6925C300.259 65.4599 300.227 66.2593 300.163 67.0906C300.243 67.5223 300.259 67.938 300.195 68.3377C300.131 68.7374 300.115 69.1531 300.163 69.5847C300.179 70.2722 300.227 71.0556 300.291 71.9669C300.355 72.8782 300.339 73.7735 300.243 74.6848C300.147 75.5961 299.923 76.4275 299.571 77.2109C299.22 77.9943 298.644 78.5859 297.861 79.0175C297.093 79.4013 296.278 79.657 295.415 79.7849C294.551 79.9128 293.688 80.0248 292.841 80.1367C292.793 80.1367 292.697 80.1526 292.537 80.1686C292.377 80.1846 292.281 80.2006 292.233 80.2006C292.185 80.1527 292.137 80.1047 292.057 80.0567C291.993 80.0087 291.945 79.9289 291.913 79.8489ZM294.951 75.6281C295.063 75.804 295.191 75.868 295.367 75.852C295.606 75.836 295.782 75.708 295.926 75.4682C296.07 75.2284 296.182 74.9726 296.246 74.6848C296.31 74.397 296.374 74.1093 296.406 73.8055C296.438 73.5018 296.454 73.2779 296.486 73.1021C296.502 72.9582 296.534 72.7503 296.55 72.4785C296.566 72.2067 296.598 71.9509 296.614 71.7111C296.63 71.4713 296.646 71.2474 296.662 71.0716C296.678 70.8957 296.678 70.7838 296.678 70.7678L296.646 70.512C296.646 69.3449 296.662 68.1298 296.678 66.8828C296.694 65.6358 296.614 64.4047 296.422 63.1896C296.31 62.5661 296.182 62.0865 296.054 61.7188C295.91 61.3511 295.606 60.9514 295.143 60.5037C295.079 60.3918 295.015 60.3119 294.967 60.2479C294.919 60.184 294.807 60.1679 294.663 60.1839C294.551 60.1999 294.519 60.2959 294.551 60.4558C294.583 60.6157 294.599 60.7116 294.599 60.7276C294.663 62.0226 294.711 63.3336 294.727 64.6286C294.743 65.9236 294.775 67.2346 294.823 68.5296C294.839 69.6008 294.807 70.6719 294.727 71.775C294.647 72.8782 294.679 73.9494 294.855 75.0206C294.855 75.0686 294.871 75.1645 294.903 75.3244C294.935 75.4843 294.951 75.5802 294.951 75.6281Z" fill="white"/>
<path d="M304.959 79.5611C304.879 79.4972 304.783 79.4332 304.703 79.3533C304.623 79.2733 304.575 79.1934 304.575 79.0815C304.464 78.0583 304.48 77.0191 304.591 75.9799C304.703 74.9407 304.767 73.9014 304.767 72.8782C304.767 71.5992 304.735 70.3202 304.655 69.0252C304.575 67.7302 304.496 66.4512 304.416 65.1562C304.336 63.8612 304.256 62.5821 304.208 61.3031C304.16 60.0241 304.144 58.7611 304.192 57.498C304.192 57.3701 304.224 57.2262 304.304 57.0823C304.384 56.9384 304.496 56.8426 304.639 56.8266C304.847 56.8106 305.103 56.8106 305.391 56.8586C305.679 56.9065 305.918 56.9065 306.11 56.8905C306.19 56.8905 306.35 56.8905 306.59 56.8745C306.83 56.8585 307.07 56.8586 307.341 56.8426C307.613 56.8266 307.853 56.8265 308.093 56.8106C308.333 56.7946 308.492 56.7946 308.572 56.7946C308.588 56.7946 308.684 56.7786 308.828 56.7626C308.972 56.7467 309.132 56.7146 309.308 56.6986C309.468 56.6826 309.628 56.6507 309.772 56.6347C309.915 56.6187 309.995 56.6027 310.043 56.6027C310.171 56.6027 310.379 56.5867 310.667 56.5707C310.955 56.5547 311.242 56.5547 311.53 56.5707C311.818 56.5867 312.074 56.6347 312.314 56.6986C312.553 56.7626 312.681 56.8905 312.697 57.0823L312.921 59.7683C312.937 59.9441 312.873 60.088 312.697 60.2C312.521 60.3119 312.362 60.3918 312.218 60.4078C311.786 60.4558 311.37 60.4398 310.939 60.3599C310.507 60.28 310.075 60.2639 309.628 60.3119C309.516 60.3119 309.388 60.3119 309.212 60.3279C309.036 60.3439 308.86 60.3598 308.684 60.4078C308.508 60.4558 308.349 60.5197 308.221 60.5997C308.093 60.6796 308.029 60.8075 308.029 60.9833C308.093 61.8307 308.093 62.7261 308.029 63.6374C307.965 64.5487 307.981 65.444 308.061 66.3233C308.061 66.4352 308.077 66.5631 308.093 66.739C308.109 66.9149 308.173 67.0428 308.285 67.1547C308.365 67.2186 308.508 67.2665 308.684 67.2985C308.86 67.3305 309.052 67.3465 309.244 67.3465C309.436 67.3465 309.612 67.3465 309.788 67.3305C309.963 67.3145 310.091 67.3145 310.171 67.3145C310.251 67.3145 310.411 67.2985 310.651 67.2825C310.891 67.2665 311.13 67.2346 311.386 67.2026C311.642 67.1706 311.882 67.1387 312.122 67.1227C312.362 67.1067 312.521 67.0907 312.601 67.0907C312.665 67.0907 312.713 67.1227 312.761 67.2026C312.793 67.2825 312.825 67.3305 312.825 67.3784L313.049 69.4569C313.065 69.6488 313.017 69.8406 312.905 70.0325C312.777 70.2243 312.649 70.3363 312.473 70.3522C311.994 70.4162 311.53 70.4162 311.067 70.3362C310.603 70.2563 310.123 70.2403 309.628 70.2882C309.324 70.3362 309.116 70.4162 308.988 70.5281C308.86 70.64 308.78 70.7838 308.732 70.9597C308.7 71.1355 308.668 71.3275 308.668 71.5353V72.2068C308.668 72.2707 308.652 72.4306 308.636 72.6704C308.62 72.9102 308.588 73.1821 308.556 73.4539C308.524 73.7257 308.492 73.9814 308.477 74.2212C308.461 74.4611 308.429 74.6049 308.413 74.6689C308.461 74.6848 308.46 74.7488 308.444 74.8607C308.429 74.9726 308.429 75.0526 308.477 75.1166C308.477 75.2445 308.492 75.4043 308.54 75.5802C308.588 75.756 308.7 75.852 308.892 75.852H309.644H310.763H311.882H312.601C312.937 75.852 313.257 75.884 313.529 75.948C313.8 76.0119 314.008 76.2517 314.104 76.6514C314.104 76.6994 314.12 76.7952 314.152 76.9551C314.184 77.115 314.216 77.2909 314.248 77.4987C314.28 77.7066 314.312 77.8984 314.344 78.1063C314.376 78.3141 314.392 78.458 314.424 78.5699V78.7617C314.472 79.0655 314.392 79.2254 314.2 79.2733C314.008 79.3213 313.8 79.3533 313.561 79.4013C312.665 79.5132 311.77 79.5291 310.875 79.4812C309.979 79.4332 309.084 79.3852 308.189 79.3693C308.125 79.3533 307.965 79.3533 307.709 79.3853C307.453 79.4172 307.309 79.4333 307.261 79.4333C307.181 79.4333 307.022 79.4333 306.798 79.4493C306.574 79.4653 306.334 79.4812 306.094 79.4972C305.855 79.5132 305.615 79.5292 305.407 79.5452C305.199 79.5612 305.055 79.5611 304.959 79.5611Z" fill="white"/>
<path d="M333.034 79.0496C332.842 77.6587 332.746 76.2997 332.73 74.9407C332.714 73.5818 332.714 72.2227 332.714 70.8638C332.666 68.4336 332.586 66.0195 332.474 63.6214C332.362 61.2232 332.202 58.7931 331.979 56.347C332.027 56.2191 332.09 56.1071 332.186 56.0112C332.282 55.9153 332.41 55.8513 332.586 55.8033H332.714C334.169 55.8513 335.496 55.9472 336.711 56.1071C337.926 56.267 338.981 56.5868 339.893 57.0504C340.804 57.5141 341.539 58.1695 342.131 59.0169C342.722 59.8642 343.106 60.9674 343.298 62.3584C343.378 62.9979 343.378 63.7013 343.298 64.4528C343.218 65.2042 343.01 65.9236 342.69 66.5951C342.371 67.2666 341.923 67.8422 341.347 68.3378C340.772 68.8334 340.036 69.1212 339.141 69.2011C338.709 69.2491 338.294 69.2331 337.894 69.1532C337.494 69.0892 337.079 69.0252 336.679 68.9772C336.503 69.0412 336.391 69.1212 336.343 69.2171C336.295 69.313 336.263 69.4409 336.263 69.6168C336.263 69.7287 336.263 69.9205 336.279 70.1923C336.295 70.4641 336.295 70.752 336.311 71.0557C336.327 71.3595 336.327 71.6472 336.343 71.919C336.359 72.1908 336.375 72.3826 336.391 72.4946C336.391 72.5425 336.391 72.6545 336.407 72.8463C336.423 73.0382 336.439 73.1501 336.455 73.198L336.519 79.0176C336.471 79.1455 336.439 79.3053 336.407 79.4812C336.375 79.6571 336.279 79.785 336.103 79.849C336.024 79.849 335.848 79.8649 335.576 79.8809C335.304 79.8969 335.144 79.9289 335.08 79.9449C334.808 79.9929 334.553 80.0088 334.313 80.0248C334.073 80.0408 333.881 80.0088 333.705 79.9608C333.529 79.9129 333.385 79.8169 333.274 79.673C333.162 79.5451 333.082 79.3214 333.034 79.0496ZM337.031 64.0531C337.063 64.3568 337.159 64.5807 337.287 64.7405C337.414 64.9004 337.67 64.9643 338.054 64.9164C338.358 64.9004 338.581 64.7885 338.741 64.5966C338.901 64.4048 339.029 64.181 339.109 63.9252C339.189 63.6693 339.237 63.4136 339.237 63.1418C339.237 62.87 339.221 62.6462 339.205 62.4543C339.189 62.3104 339.125 62.0386 339.029 61.6549C338.933 61.2712 338.805 60.8875 338.645 60.5037C338.486 60.12 338.278 59.7843 338.038 59.5125C337.798 59.2407 337.526 59.1129 337.223 59.1608C337.143 59.1608 337.079 59.2887 337.031 59.5125C336.983 59.7523 336.951 60.0401 336.951 60.3918C336.935 60.7436 336.935 61.1273 336.935 61.543C336.935 61.9587 336.935 62.3423 336.951 62.6941C336.967 63.0458 336.983 63.3496 336.999 63.6054C337.031 63.8612 337.031 64.0211 337.031 64.0531Z" fill="white"/>
<path d="M355.768 79.3693C355.656 79.3213 355.561 79.2574 355.449 79.1615C355.337 79.0655 355.273 78.9696 355.257 78.8577L354.489 72.0789C354.489 71.999 354.457 71.9191 354.377 71.8551C354.298 71.7912 354.234 71.7751 354.17 71.7911L350.46 72.1429L351.068 77.7386C351.116 78.0744 351.212 78.3941 351.356 78.6818C351.5 78.9696 351.596 79.2734 351.644 79.5932C351.66 79.7211 351.659 79.801 351.612 79.833C351.564 79.865 351.468 79.8969 351.324 79.9129C351.276 79.9129 351.228 79.913 351.148 79.9289C351.068 79.9449 351.02 79.9449 351.004 79.9449H350.604C350.428 79.9449 350.237 79.9449 350.045 79.9608C349.853 79.9768 349.677 79.9769 349.517 79.9929C349.357 80.0088 349.261 80.0089 349.213 80.0089C348.83 80.0089 348.526 79.9609 348.286 79.8809C348.046 79.801 347.87 79.6731 347.743 79.4972C347.615 79.3214 347.519 79.1135 347.471 78.8737C347.423 78.6339 347.375 78.3461 347.327 78.0264C347.215 76.8593 347.135 75.6922 347.071 74.5251C347.007 73.358 346.959 72.1908 346.911 70.9917C346.911 70.9758 346.911 70.8479 346.895 70.6401C346.879 70.4322 346.863 70.1764 346.847 69.9046C346.831 69.6328 346.815 69.361 346.783 69.0892C346.767 68.8174 346.735 68.6095 346.719 68.4657C346.687 67.6503 346.719 66.9149 346.831 66.2274C346.959 65.54 347.087 64.8045 347.231 63.9891C347.103 63.6214 347.135 63.2377 347.311 62.838C347.487 62.4383 347.631 62.0706 347.743 61.7509C347.79 61.575 347.806 61.4151 347.822 61.2712C347.838 61.1273 347.87 60.9515 347.934 60.7596C347.934 60.7437 347.95 60.6957 347.966 60.6477C347.982 60.5998 348.014 60.5677 348.03 60.5677C348.27 60.136 348.462 59.7044 348.638 59.2727C348.814 58.841 349.038 58.4094 349.341 57.9777C349.533 57.7219 349.773 57.4661 350.045 57.1943C350.317 56.9225 350.62 56.6827 350.94 56.4429C351.26 56.2031 351.596 56.0113 351.947 55.8674C352.299 55.7235 352.635 55.6275 352.987 55.5795C353.946 55.4996 354.697 55.6275 355.225 55.9792C355.752 56.331 356.184 56.7787 356.488 57.3382C356.792 57.8978 357.031 58.5053 357.207 59.1768C357.383 59.8483 357.575 60.4718 357.783 61.0474C357.783 61.1114 357.799 61.2232 357.831 61.3991C357.863 61.575 357.895 61.7509 357.911 61.9427C357.927 62.1346 357.959 62.3104 357.991 62.4702C358.023 62.6301 358.039 62.7421 358.039 62.806C358.183 64.2129 358.278 65.6359 358.31 67.0588C358.342 68.4817 358.39 69.9046 358.454 71.3115C358.454 71.6792 358.422 72.047 358.374 72.4307C358.326 72.8144 358.31 73.1821 358.326 73.5498C358.326 73.5978 358.342 73.7097 358.358 73.8855C358.374 74.0614 358.406 74.2692 358.422 74.4771C358.438 74.6849 358.47 74.8927 358.502 75.0686C358.534 75.2445 358.55 75.3564 358.55 75.4044V76.4595C358.55 76.5075 358.55 76.6194 358.566 76.7953C358.582 76.9712 358.582 77.179 358.598 77.3868C358.614 77.5947 358.614 77.8025 358.63 77.9784C358.646 78.1542 358.646 78.2822 358.646 78.3462C358.646 78.4741 358.63 78.6659 358.582 78.9217C358.534 79.1775 358.406 79.3213 358.167 79.3693H358.103C358.087 79.3693 358.007 79.3534 357.895 79.3374C357.783 79.3214 357.703 79.3054 357.687 79.3054C357.623 79.3054 357.495 79.3054 357.303 79.3214C357.111 79.3374 356.919 79.3374 356.712 79.3374C356.504 79.3374 356.312 79.3373 356.136 79.3533C355.96 79.3693 355.832 79.3693 355.768 79.3693ZM350.524 67.8582C350.54 68.114 350.7 68.2898 350.972 68.4017C351.244 68.5136 351.564 68.5776 351.931 68.6096C352.299 68.6416 352.651 68.6576 353.018 68.6416C353.386 68.6256 353.658 68.6096 353.85 68.5936C353.898 68.5936 353.978 68.5936 354.106 68.5776C354.234 68.5616 354.313 68.5616 354.361 68.5616C354.409 68.4976 354.441 68.4337 354.457 68.3857C354.473 68.3378 354.505 68.2738 354.521 68.2099C354.521 68.082 354.505 67.8741 354.489 67.5863C354.473 67.2986 354.457 66.9789 354.441 66.6431C354.425 66.3074 354.425 65.9876 354.409 65.6998C354.393 65.412 354.393 65.2042 354.393 65.0763C354.409 65.0283 354.425 64.9324 354.425 64.7885V64.4687L354.106 61.3671C354.09 61.2232 354.026 61.0474 353.946 60.8556C353.866 60.6637 353.754 60.4878 353.626 60.3279C353.498 60.1681 353.354 60.0402 353.162 59.9442C352.987 59.8483 352.795 59.8163 352.603 59.8323C352.427 59.8483 352.267 59.9122 352.123 59.9922C351.42 60.7116 350.988 61.4791 350.812 62.2625C350.636 63.0459 350.54 63.9092 350.524 64.8525C350.524 65.3641 350.508 65.8597 350.492 66.3554C350.476 66.851 350.492 67.3466 350.524 67.8582Z" fill="white"/>
<path d="M362.387 77.7705C362.243 76.5714 362.195 75.3563 362.259 74.0933C362.323 72.8303 362.339 71.5992 362.291 70.3841C362.243 69.233 362.179 68.1139 362.099 67.0107C362.019 65.9076 361.987 64.7885 362.003 63.6373C362.003 62.4063 362.003 61.2551 362.019 60.1839C362.035 59.1128 361.956 57.9936 361.78 56.7945C361.828 56.4588 362.003 56.187 362.307 56.0112C362.611 55.8353 362.915 55.7233 363.219 55.6754C363.554 55.6274 363.938 55.6274 364.354 55.6754C364.769 55.7233 365.121 55.8833 365.393 56.1551C365.393 56.2031 365.393 56.2829 365.409 56.4108C365.425 56.5388 365.425 56.6187 365.425 56.6667C365.505 57.4181 365.489 58.2175 365.393 59.0968C365.281 59.9761 365.249 60.7755 365.297 61.4949C365.297 61.5749 365.313 61.9106 365.345 62.4702C365.377 63.0297 365.409 63.6853 365.457 64.4047C365.489 65.1242 365.537 65.8596 365.585 66.595C365.633 67.3305 365.665 67.9061 365.681 68.3377C365.745 69.361 365.777 70.3522 365.793 71.3274C365.809 72.3027 365.857 73.2779 365.969 74.2851C366.032 74.6848 366.208 74.9247 366.496 74.9886C366.784 75.0526 367.104 75.0845 367.439 75.0685C367.775 75.0525 368.095 75.0685 368.383 75.0845C368.67 75.1005 368.83 75.2924 368.878 75.6282C368.878 76.3156 368.862 76.8592 368.83 77.2748C368.798 77.6905 368.75 78.0743 368.686 78.41C368.622 78.7458 368.511 78.9216 368.367 78.9216C368.351 78.9376 368.303 78.9535 368.255 78.9535H368.143C367.327 78.9056 366.496 78.8737 365.649 78.8417C364.801 78.8097 363.938 78.7457 363.091 78.6658C362.819 78.6498 362.643 78.5699 362.563 78.426C362.499 78.2821 362.435 78.0742 362.387 77.7705Z" fill="white"/>
<path d="M381.828 79.3693C381.716 79.3213 381.621 79.2574 381.509 79.1615C381.397 79.0655 381.333 78.9696 381.317 78.8577L380.549 72.0789C380.549 71.999 380.517 71.9191 380.437 71.8551C380.357 71.7912 380.294 71.7751 380.23 71.7911L376.52 72.1429L377.128 77.7386C377.176 78.0744 377.272 78.3941 377.416 78.6818C377.56 78.9696 377.656 79.2734 377.703 79.5932C377.719 79.7211 377.72 79.801 377.672 79.833C377.624 79.865 377.528 79.8969 377.384 79.9129C377.336 79.9129 377.288 79.913 377.208 79.9289C377.128 79.9449 377.08 79.9449 377.064 79.9449H376.664C376.488 79.9449 376.297 79.9449 376.105 79.9608C375.913 79.9768 375.737 79.9769 375.577 79.9929C375.417 80.0088 375.321 80.0089 375.273 80.0089C374.89 80.0089 374.586 79.9609 374.346 79.8809C374.106 79.801 373.93 79.6731 373.802 79.4972C373.675 79.3214 373.579 79.1135 373.531 78.8737C373.483 78.6339 373.435 78.3461 373.387 78.0264C373.275 76.8593 373.195 75.6922 373.131 74.5251C373.067 73.358 373.019 72.1908 372.971 70.9917C372.971 70.9758 372.971 70.8479 372.955 70.6401C372.939 70.4322 372.923 70.1764 372.907 69.9046C372.891 69.6328 372.875 69.361 372.843 69.0892C372.827 68.8174 372.795 68.6095 372.779 68.4657C372.731 67.6503 372.779 66.9149 372.891 66.2274C373.019 65.54 373.147 64.8045 373.291 63.9891C373.163 63.6214 373.195 63.2377 373.371 62.838C373.547 62.4383 373.691 62.0706 373.802 61.7509C373.85 61.575 373.866 61.4151 373.882 61.2712C373.898 61.1273 373.93 60.9515 373.994 60.7596C373.994 60.7437 374.01 60.6957 374.026 60.6477C374.042 60.5998 374.074 60.5677 374.09 60.5677C374.33 60.136 374.522 59.7044 374.698 59.2727C374.874 58.841 375.097 58.4094 375.401 57.9777C375.593 57.7219 375.833 57.4661 376.105 57.1943C376.377 56.9225 376.68 56.6827 377 56.4429C377.32 56.2031 377.656 56.0113 378.007 55.8674C378.359 55.7235 378.711 55.6275 379.047 55.5795C380.006 55.4996 380.757 55.6275 381.285 55.9792C381.812 56.331 382.244 56.7787 382.548 57.3382C382.852 57.8978 383.091 58.5053 383.267 59.1768C383.443 59.8483 383.635 60.4718 383.843 61.0474C383.843 61.1114 383.859 61.2232 383.891 61.3991C383.923 61.575 383.955 61.7509 383.971 61.9427C383.987 62.1346 384.019 62.3104 384.051 62.4702C384.083 62.6301 384.099 62.7421 384.099 62.806C384.242 64.2129 384.338 65.6359 384.37 67.0588C384.402 68.4817 384.45 69.9046 384.514 71.3115C384.514 71.6792 384.482 72.047 384.434 72.4307C384.386 72.8144 384.37 73.1821 384.386 73.5498C384.386 73.5978 384.402 73.7097 384.418 73.8855C384.434 74.0614 384.466 74.2692 384.482 74.4771C384.498 74.6849 384.53 74.8927 384.562 75.0686C384.594 75.2445 384.61 75.3564 384.61 75.4044V76.4595C384.61 76.5075 384.61 76.6194 384.626 76.7953C384.642 76.9712 384.642 77.179 384.658 77.3868C384.674 77.5947 384.674 77.8025 384.69 77.9784C384.706 78.1542 384.706 78.2822 384.706 78.3462C384.706 78.4741 384.69 78.6659 384.642 78.9217C384.61 79.1775 384.466 79.3213 384.227 79.3693H384.163C384.147 79.3693 384.067 79.3534 383.955 79.3374C383.843 79.3214 383.763 79.3054 383.747 79.3054C383.683 79.3054 383.555 79.3054 383.363 79.3214C383.171 79.3374 382.98 79.3374 382.772 79.3374C382.564 79.3374 382.372 79.3373 382.196 79.3533C382.02 79.3693 381.892 79.3693 381.828 79.3693ZM376.584 67.8582C376.6 68.114 376.76 68.2898 377.032 68.4017C377.304 68.5136 377.624 68.5776 377.991 68.6096C378.359 68.6416 378.711 68.6576 379.078 68.6416C379.446 68.6256 379.718 68.6096 379.91 68.5936C379.958 68.5936 380.038 68.5936 380.166 68.5776C380.294 68.5616 380.373 68.5616 380.421 68.5616C380.469 68.4976 380.501 68.4337 380.517 68.3857C380.533 68.3378 380.565 68.2738 380.581 68.2099C380.581 68.082 380.565 67.8741 380.549 67.5863C380.533 67.2986 380.517 66.9789 380.501 66.6431C380.485 66.3074 380.485 65.9876 380.469 65.6998C380.453 65.412 380.453 65.2042 380.453 65.0763C380.469 65.0283 380.485 64.9324 380.485 64.7885V64.4687L380.166 61.3671C380.15 61.2232 380.086 61.0474 380.006 60.8556C379.926 60.6637 379.814 60.4878 379.686 60.3279C379.558 60.1681 379.414 60.0402 379.222 59.9442C379.046 59.8483 378.855 59.8163 378.663 59.8323C378.487 59.8483 378.327 59.9122 378.183 59.9922C377.48 60.7116 377.048 61.4791 376.872 62.2625C376.696 63.0459 376.6 63.9092 376.584 64.8525C376.584 65.3641 376.568 65.8597 376.552 66.3554C376.536 66.851 376.536 67.3466 376.584 67.8582Z" fill="white"/>
<path d="M388.639 79.6251C388.623 79.4492 388.607 79.3213 388.607 79.2094C388.607 79.0975 388.623 78.9695 388.671 78.7937L388.639 72.1108C388.399 70.4961 388.271 68.8493 388.255 67.1706C388.239 65.4918 388.191 63.8612 388.127 62.2624C388.064 61.511 388 60.7755 387.952 60.0241C387.904 59.2727 387.888 58.5372 387.904 57.7858C387.904 57.6579 387.888 57.53 387.856 57.4181C387.824 57.3062 387.84 57.1783 387.904 57.0504C388.032 56.8585 388.223 56.7146 388.463 56.6027C388.703 56.4908 388.975 56.4109 389.263 56.3629C389.55 56.315 389.838 56.283 390.11 56.267C390.382 56.251 390.622 56.235 390.813 56.219C391.325 56.171 391.805 56.219 392.252 56.3469C392.7 56.4748 393.116 56.6666 393.499 56.9064C393.883 57.1463 394.235 57.45 394.555 57.7858C394.874 58.1215 395.146 58.4892 395.386 58.8729C395.466 59.0488 395.53 59.2407 395.594 59.4645C395.642 59.6884 395.722 59.8802 395.802 60.0241L396.025 62.1345C396.009 62.1824 395.978 62.2943 395.962 62.4862C395.946 62.678 395.93 62.8059 395.93 62.8698C395.882 63.2056 395.802 63.5574 395.674 63.9091C395.546 64.2608 395.498 64.5966 395.546 64.9163C395.562 65.1881 395.706 65.4439 395.946 65.6677C396.185 65.8915 396.393 66.0994 396.569 66.2912C396.633 66.3552 396.745 66.4831 396.921 66.6749C397.097 66.8668 397.208 66.9948 397.272 67.0587C397.256 67.1227 397.304 67.2506 397.416 67.4424C397.528 67.6343 397.672 67.8581 397.832 68.0979C397.992 68.3377 398.136 68.5935 398.248 68.8333C398.36 69.0732 398.408 69.265 398.392 69.3929C398.408 69.4568 398.456 69.5688 398.536 69.7447C398.615 69.9205 398.679 70.0963 398.759 70.2882C398.839 70.48 398.903 70.6559 398.951 70.8158C398.999 70.9757 399.047 71.0876 399.063 71.1516C399.063 71.1676 399.079 71.3115 399.095 71.5513C399.111 71.7911 399.143 71.9829 399.191 72.1108C399.303 73.0701 399.271 73.9973 399.111 74.8767C398.951 75.756 398.727 76.6514 398.424 77.5467C398.44 77.5947 398.44 77.6426 398.424 77.7065C398.408 77.7705 398.376 77.8184 398.36 77.8664C398.152 78.2661 397.912 78.6498 397.64 79.0015C397.368 79.3533 397.001 79.609 396.505 79.7529C396.425 79.7529 396.281 79.7689 396.105 79.7849C395.929 79.8009 395.722 79.8329 395.514 79.8648C395.29 79.8968 395.098 79.9289 394.922 79.9449C394.746 79.9608 394.603 79.9768 394.523 79.9768C394.395 79.9768 394.219 79.9928 394.011 80.0088C393.803 80.0248 393.579 80.0567 393.371 80.0727C393.148 80.0887 392.972 80.1047 392.812 80.1207C392.652 80.1367 392.556 80.1367 392.54 80.1367C392.524 80.1367 392.46 80.1366 392.38 80.1526C392.3 80.1686 392.204 80.1686 392.092 80.1686C391.981 80.1686 391.885 80.1686 391.773 80.1526C391.661 80.1366 391.597 80.1367 391.549 80.1367C391.277 80.1367 390.973 80.1207 390.669 80.0887C390.366 80.0567 390.062 80.0408 389.758 80.0408C389.439 80.0568 389.183 80.0887 388.991 80.1047C388.799 80.1207 388.687 79.9608 388.639 79.6251ZM391.549 63.4135C391.565 63.4774 391.613 63.5254 391.693 63.5414C391.773 63.5574 391.821 63.5733 391.869 63.5733C391.98 63.5573 392.045 63.4934 392.061 63.4135C392.252 63.0298 392.364 62.6621 392.412 62.3263C392.46 61.9906 392.46 61.6068 392.412 61.1751C392.396 61.0632 392.364 60.9514 392.332 60.8075C392.3 60.6636 392.252 60.5357 392.172 60.4238C392.092 60.3119 392.012 60.2159 391.901 60.136C391.789 60.0561 391.661 60.0401 391.517 60.0561C391.501 60.0561 391.453 60.072 391.405 60.088C391.357 60.104 391.309 60.12 391.293 60.12L391.197 60.3118L391.549 63.4135ZM391.709 76.4594C391.725 76.6673 391.869 76.8272 392.14 76.9071C392.412 76.9871 392.62 77.0191 392.796 77.0031C393.371 76.9391 393.835 76.7952 394.171 76.5554C394.507 76.3155 394.746 76.0278 394.906 75.6921C395.05 75.3563 395.146 74.9727 395.162 74.541C395.178 74.1093 395.162 73.6936 395.098 73.2619C395.018 72.4465 394.826 71.6312 394.523 70.8158C394.219 70.0004 393.707 69.3289 392.956 68.8173C392.812 68.7374 392.668 68.6575 392.556 68.6095C392.444 68.5615 392.3 68.5455 392.124 68.5615C391.997 68.5615 391.901 68.6095 391.837 68.7214C391.773 68.8333 391.725 68.9452 391.709 69.0891C391.693 69.233 391.677 69.3769 391.677 69.5208V69.8725V72.5265C391.693 72.5745 391.725 72.6864 391.741 72.8942C391.757 73.102 391.773 73.2139 391.773 73.2619C391.789 73.8215 391.773 74.3491 391.725 74.8607C391.677 75.3723 391.661 75.8999 391.709 76.4594Z" fill="white"/>
<path d="M411.917 80.3605C411.518 79.7849 411.198 79.2734 410.958 78.8417C410.718 78.4101 410.446 77.9304 410.159 77.4188C410.111 77.3548 410.047 77.2589 409.935 77.147C409.823 77.0351 409.727 76.9072 409.631 76.7792C409.535 76.6513 409.455 76.5235 409.391 76.4116C409.327 76.2996 409.311 76.1877 409.359 76.0758C409.103 75.7081 408.848 75.3403 408.608 74.9566C408.368 74.5729 408.128 74.2053 407.888 73.8376H407.824C407.808 73.8376 407.776 73.8215 407.76 73.8055C407.569 73.7576 407.489 73.8535 407.537 74.0613C407.553 74.2692 407.585 74.6529 407.601 75.2125C407.617 75.7721 407.649 76.3636 407.681 76.9871C407.712 77.6106 407.744 78.2181 407.776 78.7777C407.808 79.3373 407.84 79.737 407.856 79.9449L407.888 80.0408C407.84 80.1048 407.776 80.1846 407.697 80.2806C407.617 80.3765 407.553 80.4085 407.537 80.3925L404.275 80.6163C404.083 80.6323 403.923 80.5524 403.796 80.3765C403.668 80.2006 403.588 80.0248 403.572 79.8809C403.572 79.8649 403.572 79.849 403.588 79.833C403.604 79.817 403.604 79.8009 403.604 79.7529V79.657C403.604 79.641 403.62 79.5771 403.636 79.4812C403.652 79.3853 403.684 79.2893 403.7 79.1774C403.716 79.0655 403.748 78.9696 403.763 78.8896C403.779 78.8097 403.796 78.7458 403.796 78.7298C403.796 78.6659 403.78 78.5219 403.748 78.2981C403.716 78.0743 403.684 77.8345 403.668 77.5946C403.652 77.3548 403.62 77.115 403.604 76.9072C403.588 76.6993 403.572 76.5554 403.572 76.4915V75.7081C403.572 75.2924 403.572 74.8447 403.556 74.3811C403.54 73.9174 403.54 73.4699 403.524 73.0542C403.508 72.6385 403.508 72.3826 403.508 72.2707C403.508 72.1588 403.492 71.9669 403.476 71.6952C403.46 71.4234 403.428 71.1196 403.412 70.7998C403.396 70.4801 403.364 70.1763 403.348 69.9045C403.332 69.6327 403.316 69.4409 403.316 69.329C403.332 69.281 403.348 69.1851 403.348 69.0412V68.7535C403.412 66.8989 403.412 65.0603 403.38 63.2537C403.332 61.4471 403.284 59.6244 403.22 57.7858C403.22 57.7218 403.22 57.61 403.204 57.4341C403.188 57.2582 403.172 57.0823 403.156 56.8905C403.14 56.6986 403.124 56.5068 403.108 56.3309C403.092 56.1551 403.092 56.0272 403.092 55.9633C403.14 55.8354 403.188 55.7554 403.268 55.7394C403.348 55.7234 403.428 55.7074 403.508 55.7074C404.355 55.6434 405.186 55.6115 406.002 55.5955C406.817 55.5795 407.569 55.6755 408.288 55.8513C408.992 56.0272 409.647 56.331 410.223 56.7626C410.798 57.1943 411.278 57.8018 411.661 58.5852C411.933 59.1447 412.221 59.6724 412.493 60.2C412.765 60.7276 412.924 61.2871 412.972 61.9107C413.052 63.1897 412.845 64.3727 412.317 65.4759C411.789 66.579 411.054 67.5703 410.095 68.4656C410.015 68.5775 409.967 68.6895 409.967 68.8174C410.015 69.0092 410.095 69.185 410.207 69.3609C410.319 69.5368 410.366 69.7127 410.319 69.9045L411.63 72.5265V72.6225L412.941 74.7329C412.941 74.7489 413.036 74.9247 413.212 75.2604C413.388 75.5961 413.596 75.9639 413.836 76.3796C414.076 76.7952 414.283 77.211 414.475 77.6266C414.667 78.0423 414.779 78.362 414.795 78.5699C414.811 78.7617 414.747 78.9696 414.587 79.2094C414.427 79.4492 414.236 79.6571 413.996 79.849C413.756 80.0408 413.516 80.2007 413.26 80.3446C413.004 80.4885 412.781 80.5523 412.589 80.5523C412.285 80.6003 412.061 80.5364 411.917 80.3605ZM406.545 65.1402C406.625 65.2521 406.705 65.332 406.753 65.38C406.801 65.4279 406.897 65.4759 407.025 65.4919C407.457 65.4439 407.792 65.3001 408.064 65.0283C408.336 64.7565 408.528 64.4527 408.672 64.101C408.816 63.7492 408.896 63.3815 408.944 62.9978C408.976 62.6141 409.008 62.2784 409.008 62.0066C408.992 61.7987 408.928 61.527 408.848 61.2232C408.768 60.9194 408.64 60.6157 408.496 60.3439C408.352 60.0721 408.16 59.8323 407.936 59.6564C407.713 59.4806 407.441 59.4006 407.121 59.4166C406.913 59.4326 406.737 59.5604 406.625 59.7683C406.513 59.9761 406.433 60.2319 406.386 60.5037C406.338 60.7755 406.322 61.0473 406.322 61.3191V61.8786C406.322 61.8946 406.322 61.9746 406.338 62.1025C406.354 62.2304 406.354 62.3743 406.37 62.5502C406.385 62.7261 406.386 62.9019 406.402 63.0777C406.418 63.2536 406.434 63.3975 406.45 63.5094C406.45 63.5734 406.449 63.6853 406.465 63.8292C406.481 63.9731 406.481 64.149 406.497 64.3248C406.513 64.5007 406.513 64.6765 406.529 64.8204C406.545 64.9643 406.545 65.0763 406.545 65.1402Z" fill="white"/>
<path d="M426.37 79.3693C426.258 79.3213 426.162 79.2574 426.05 79.1615C425.939 79.0655 425.875 78.9696 425.859 78.8577L425.091 72.0789C425.091 71.999 425.059 71.9191 424.979 71.8551C424.899 71.7912 424.835 71.7751 424.771 71.7911L421.062 72.1429L421.67 77.7386C421.718 78.0744 421.814 78.3941 421.958 78.6818C422.101 78.9696 422.197 79.2734 422.245 79.5932C422.261 79.7211 422.261 79.801 422.213 79.833C422.165 79.865 422.07 79.8969 421.926 79.9129C421.878 79.9129 421.83 79.913 421.75 79.9289C421.67 79.9449 421.622 79.9449 421.606 79.9449H421.206C421.03 79.9449 420.838 79.9449 420.647 79.9608C420.455 79.9768 420.279 79.9769 420.119 79.9929C419.959 80.0088 419.863 80.0089 419.815 80.0089C419.432 80.0089 419.128 79.9609 418.888 79.8809C418.648 79.801 418.472 79.6731 418.344 79.4972C418.217 79.3214 418.121 79.1135 418.073 78.8737C418.025 78.6339 417.977 78.3461 417.929 78.0264C417.817 76.8593 417.737 75.6922 417.673 74.5251C417.609 73.358 417.561 72.1908 417.513 70.9917C417.513 70.9758 417.513 70.8479 417.497 70.6401C417.481 70.4322 417.465 70.1764 417.449 69.9046C417.433 69.6328 417.417 69.361 417.385 69.0892C417.369 68.8174 417.337 68.6095 417.321 68.4657C417.289 67.6503 417.321 66.9149 417.433 66.2274C417.545 65.54 417.689 64.8045 417.833 63.9891C417.705 63.6214 417.737 63.2377 417.913 62.838C418.089 62.4383 418.233 62.0706 418.344 61.7509C418.392 61.575 418.408 61.4151 418.424 61.2712C418.44 61.1273 418.472 60.9515 418.536 60.7596C418.536 60.7437 418.552 60.6957 418.568 60.6477C418.584 60.5998 418.616 60.5677 418.632 60.5677C418.872 60.136 419.064 59.7044 419.24 59.2727C419.416 58.841 419.639 58.4094 419.943 57.9777C420.135 57.7219 420.375 57.4661 420.647 57.1943C420.918 56.9225 421.222 56.6827 421.542 56.4429C421.862 56.2031 422.197 56.0113 422.549 55.8674C422.901 55.7235 423.237 55.6275 423.588 55.5795C424.548 55.4996 425.299 55.6275 425.827 55.9792C426.354 56.331 426.786 56.7787 427.09 57.3382C427.393 57.8978 427.633 58.5053 427.809 59.1768C427.985 59.8483 428.177 60.4718 428.385 61.0474C428.385 61.1114 428.401 61.2232 428.433 61.3991C428.465 61.575 428.497 61.7509 428.513 61.9427C428.529 62.1346 428.561 62.3104 428.593 62.4702C428.625 62.6301 428.64 62.7421 428.64 62.806C428.784 64.2129 428.88 65.6359 428.912 67.0588C428.944 68.4817 428.992 69.9046 429.056 71.3115C429.056 71.6792 429.024 72.047 428.976 72.4307C428.928 72.8144 428.912 73.1821 428.928 73.5498C428.928 73.5978 428.944 73.7097 428.96 73.8855C428.976 74.0614 429.008 74.2692 429.024 74.4771C429.04 74.6849 429.072 74.8927 429.104 75.0686C429.136 75.2445 429.152 75.3564 429.152 75.4044V76.4595C429.152 76.5075 429.152 76.6194 429.168 76.7953C429.184 76.9712 429.184 77.179 429.2 77.3868C429.216 77.5947 429.216 77.8025 429.232 77.9784C429.248 78.1542 429.248 78.2822 429.248 78.3462C429.248 78.4741 429.232 78.6659 429.184 78.9217C429.136 79.1775 429.008 79.3213 428.768 79.3693H428.704C428.688 79.3693 428.609 79.3534 428.497 79.3374C428.385 79.3214 428.305 79.3054 428.289 79.3054C428.225 79.3054 428.097 79.3054 427.905 79.3214C427.713 79.3374 427.521 79.3374 427.314 79.3374C427.106 79.3374 426.914 79.3373 426.738 79.3533C426.562 79.3693 426.434 79.3693 426.37 79.3693ZM421.126 67.8582C421.142 68.114 421.302 68.2898 421.574 68.4017C421.846 68.5136 422.166 68.5776 422.533 68.6096C422.901 68.6416 423.253 68.6576 423.62 68.6416C423.988 68.6256 424.26 68.6096 424.452 68.5936C424.5 68.5936 424.58 68.5936 424.708 68.5776C424.835 68.5616 424.915 68.5616 424.963 68.5616C425.011 68.4976 425.043 68.4337 425.059 68.3857C425.075 68.3378 425.107 68.2738 425.123 68.2099C425.123 68.082 425.107 67.8741 425.091 67.5863C425.075 67.2986 425.059 66.9789 425.043 66.6431C425.027 66.3074 425.027 65.9876 425.011 65.6998C424.995 65.412 424.995 65.2042 424.995 65.0763C425.011 65.0283 425.027 64.9324 425.027 64.7885V64.4687L424.708 61.3671C424.692 61.2232 424.628 61.0474 424.548 60.8556C424.468 60.6637 424.356 60.4878 424.228 60.3279C424.1 60.1681 423.94 60.0402 423.764 59.9442C423.588 59.8483 423.397 59.8163 423.205 59.8323C423.029 59.8483 422.869 59.9122 422.725 59.9922C422.022 60.7116 421.59 61.4791 421.414 62.2625C421.238 63.0459 421.142 63.9092 421.126 64.8525C421.126 65.3641 421.11 65.8597 421.094 66.3554C421.078 66.851 421.078 67.3466 421.126 67.8582Z" fill="white"/>
<path d="M431.358 74.477C431.502 74.0773 431.774 73.8055 432.174 73.6936C432.573 73.5817 433.037 73.5497 433.581 73.5977C434.124 73.6457 434.732 73.7576 435.403 73.9015C436.075 74.0454 436.778 74.1893 437.498 74.3172C437.786 74.3012 438.057 74.2212 438.281 74.0933C438.505 73.9654 438.713 73.8055 438.905 73.5977C439.097 73.3899 439.272 73.166 439.448 72.9102C439.624 72.6544 439.8 72.3987 439.992 72.1429C440.008 72.1269 440.04 72.0789 440.056 71.9989C440.072 71.919 440.088 71.8711 440.088 71.8551L439.96 69.9685C439.912 69.9525 439.784 69.8406 439.56 69.6488C439.336 69.4569 439.16 69.313 439.033 69.2011C438.985 69.1531 438.905 69.1052 438.793 69.0252C438.681 68.9453 438.601 68.9133 438.553 68.9133C437.801 68.5935 437.114 68.3378 436.458 68.1459C435.803 67.9541 435.195 67.7303 434.636 67.4585C434.076 67.1867 433.565 66.8349 433.101 66.3712C432.637 65.9076 432.238 65.2521 431.902 64.4047C431.902 64.3408 431.902 64.2449 431.886 64.117C431.87 63.9891 431.854 63.8612 431.838 63.7173C431.822 63.5734 431.806 63.4455 431.79 63.3336C431.774 63.2217 431.774 63.1417 431.774 63.0937C431.758 62.79 431.726 62.4703 431.694 62.1345C431.662 61.7988 431.694 61.479 431.806 61.1752C431.822 61.0952 431.87 60.9354 431.934 60.7116C431.998 60.4877 432.078 60.2639 432.158 60.0241C432.238 59.7843 432.318 59.5605 432.398 59.3527C432.478 59.1448 432.525 58.9849 432.541 58.905V58.7451C432.669 58.5533 432.797 58.4093 432.893 58.2974C433.005 58.1855 433.101 58.0736 433.197 57.9617C433.293 57.8498 433.373 57.7538 433.437 57.6899C434.14 56.9065 434.844 56.2989 435.531 55.8992C436.219 55.4996 437.066 55.2438 438.073 55.1319C438.345 55.1159 438.761 55.1478 439.288 55.2278C439.816 55.3077 440.36 55.4356 440.887 55.6115C441.415 55.7873 441.894 55.9952 442.294 56.267C442.694 56.5388 442.918 56.8266 442.934 57.1463C442.95 57.3382 442.95 57.594 442.902 57.9137C442.854 58.2335 442.79 58.5532 442.694 58.8729C442.598 59.1927 442.47 59.4805 442.31 59.7203C442.15 59.9602 441.958 60.104 441.75 60.12C441.191 60.168 440.647 60.152 440.088 60.104C439.528 60.0561 438.985 60.0401 438.425 60.088C438.313 60.088 438.089 60.1041 437.77 60.152C437.434 60.2 437.226 60.216 437.114 60.216C437.05 60.2639 436.954 60.3119 436.81 60.3599C436.666 60.4079 436.538 60.4877 436.395 60.5676C436.251 60.6476 436.139 60.7436 436.043 60.8235C435.947 60.9034 435.899 60.9993 435.899 61.0793L436.059 62.9978C436.059 63.1097 436.123 63.2057 436.267 63.3016C436.411 63.3975 436.554 63.4934 436.714 63.5894C436.874 63.6853 437.034 63.7653 437.21 63.8452C437.386 63.9251 437.498 63.9731 437.562 63.989C438.409 64.3887 439.192 64.7725 439.896 65.1402C440.599 65.5079 441.207 65.9236 441.719 66.4192C442.23 66.9148 442.646 67.4903 442.95 68.1618C443.253 68.8333 443.461 69.6647 443.541 70.6719C443.621 71.5512 443.573 72.4146 443.365 73.2619C443.157 74.1093 442.838 74.8768 442.374 75.5483C441.91 76.2197 441.335 76.7793 440.631 77.227C439.928 77.6746 439.128 77.9464 438.233 78.0263C437.482 78.1063 436.714 78.1222 435.931 78.0582C435.148 77.9943 434.428 77.8344 433.773 77.5786C433.117 77.3228 432.574 76.9392 432.126 76.4436C431.678 75.9479 431.422 75.2924 431.358 74.477Z" fill="white"/>
</svg>
