<?xml version="1.0" encoding="UTF-8" standalone="no"?>
<!-- Generator: Adobe Illustrator 26.5.0, SVG Export Plug-In . SVG Version: 6.00 Build 0)  -->

<svg
   version="1.1"
   id="Capa_1"
   x="0px"
   y="0px"
   viewBox="0 0 500 101"
   xml:space="preserve"
   sodipodi:docname="svgIndexZorrito.svg"
   width="500"
   height="101"
   inkscape:version="1.2.1 (9c6d41e410, 2022-07-14)"
   xmlns:inkscape="http://www.inkscape.org/namespaces/inkscape"
   xmlns:sodipodi="http://sodipodi.sourceforge.net/DTD/sodipodi-0.dtd"
   xmlns:xlink="http://www.w3.org/1999/xlink"
   xmlns="http://www.w3.org/2000/svg"
   xmlns:svg="http://www.w3.org/2000/svg"><defs
   id="defs2279" /><sodipodi:namedview
   id="namedview2277"
   pagecolor="#ffffff"
   bordercolor="#000000"
   borderopacity="0.25"
   inkscape:showpageshadow="2"
   inkscape:pageopacity="0.0"
   inkscape:pagecheckerboard="0"
   inkscape:deskcolor="#d1d1d1"
   showgrid="false"
   inkscape:zoom="2.4055666"
   inkscape:cx="251.5"
   inkscape:cy="59.445455"
   inkscape:window-width="3840"
   inkscape:window-height="2066"
   inkscape:window-x="-11"
   inkscape:window-y="-11"
   inkscape:window-maximized="1"
   inkscape:current-layer="Capa_1" />
<style
   type="text/css"
   id="style1976">
	.st0{fill:#2BB673;}
	.st1{clip-path:url(#SVGID_00000172417492264576023510000012598822714704982405_);fill:#F7941D;}
	.st2{clip-path:url(#SVGID_00000098907099752585214350000003357793166670996897_);fill:#F7941D;}
	.st3{clip-path:url(#SVGID_00000121258549836897404980000016371429361427054221_);fill:#F7941D;}
	.st4{clip-path:url(#SVGID_00000121244501578100633480000002509017673537035955_);fill:#FFFFFF;}
	.st5{clip-path:url(#SVGID_00000052090330644166451820000002667628529508747670_);fill:#F7941D;}
	.st6{clip-path:url(#SVGID_00000106869184921372099990000007467287720141821856_);fill:#FFFFFF;}
	.st7{clip-path:url(#SVGID_00000139271043008401230450000012412273734123545216_);fill:none;stroke:#F7941D;stroke-width:0.11;}
	
		.st8{clip-path:url(#SVGID_00000063608737383059195070000011257398410577234350_);fill:none;stroke:#D3D2C2;stroke-width:0.11;stroke-linecap:round;}
	.st9{clip-path:url(#SVGID_00000066485881631491220300000005998570124897982848_);}
	.st10{clip-path:url(#SVGID_00000052810151869601754850000017855155395581007533_);}
	.st11{clip-path:url(#SVGID_00000130622406185627205250000011228912103816011402_);fill:#F7941D;}
	.st12{clip-path:url(#SVGID_00000132081892273584640570000005118225384123907491_);fill:#FFFFFF;}
	.st13{clip-path:url(#SVGID_00000106133202486498469680000012214667236351612038_);}
	.st14{clip-path:url(#SVGID_00000044150408943649049400000004358363865311468691_);fill:#FFFFFF;}
	.st15{clip-path:url(#SVGID_00000147921503864606339010000015468946421875661710_);}
	.st16{clip-path:url(#SVGID_00000109751084072353525240000005076090506179829937_);fill:#FFFFFF;}
	
		.st17{clip-path:url(#SVGID_00000145761919350964446310000009522027671134037425_);fill:none;stroke:#D3D2C2;stroke-width:0.11;stroke-linecap:round;}
	.st18{clip-path:url(#SVGID_00000112627170033800079530000012466860568526745503_);fill:#FFFFFF;}
	
		.st19{clip-path:url(#SVGID_00000026878361178995033500000004616753411070916488_);fill:none;stroke:#D3D2C2;stroke-width:0.11;stroke-linecap:round;}
	.st20{clip-path:url(#SVGID_00000167359948131973144330000012273230259833340331_);fill:#FFFFFF;}
	.st21{clip-path:url(#SVGID_00000000923660736421774300000013727389927437435832_);fill:#5D3D3D;}
</style>
<path
   class="st0"
   d="M 489.4211,34.635302 V 34.438914 H 487.63606 442.71253 36.02076 L 2.7,67.530201 36.02076,100.62149 h 406.79094 44.92352 1.78504 v -0.19639 c 5.15679,-0.88374 9.22272,-5.30246 9.22272,-10.70312 V 45.338418 c -0.0992,-5.498849 -4.06593,-9.917566 -9.32188,-10.703116 z"
   id="path1978"
   style="stroke-width:0.986801" />
<g
   id="g2274"
   transform="matrix(0.90222034,0,0,0.83743561,-40.303746,4.5434997)">
	<g
   id="g1992">
		<g
   id="g1990">
			<g
   id="g1988">
				<defs
   id="defs1981">
					<rect
   id="SVGID_1_"
   x="9"
   y="0"
   width="162.89999"
   height="118.7" />
				</defs>
				<clipPath
   id="SVGID_00000156578718440856569940000006220477832730715264_">
					<use
   xlink:href="#SVGID_1_"
   style="overflow:visible"
   id="use1983" />
				</clipPath>
				<path
   style="fill:#f7941d"
   d="m 103,91.1 c 0,0 5.3,4.7 9,7.6 3.6,3 7.3,4.1 8.8,4.2 1.4,0.1 7.4,-3 8.2,-0.7 0.5,1.5 -2.3,3.2 -2.3,3.2 0,0 2.4,1.2 3,2.7 0.9,2.3 -4.3,1.4 -4.3,1.4 0,0 4.5,2.6 1.5,5.1 -1.8,1.5 -6,-1.9 -9.6,-6.1 -5,-5.9 -17.4,-12.1 -17.4,-12.1"
   clip-path="url(#SVGID_00000156578718440856569940000006220477832730715264_)"
   id="path1986" />
			</g>
		</g>
	</g>
	<g
   id="g2006">
		<g
   id="g2004">
			<g
   id="g2002">
				<defs
   id="defs1995">
					<rect
   id="SVGID_00000055682253535573333650000014453653981865970358_"
   x="9"
   y="0"
   width="162.89999"
   height="118.7" />
				</defs>
				<clipPath
   id="SVGID_00000076598901076648526790000017001460841571740863_">
					<use
   xlink:href="#SVGID_00000055682253535573333650000014453653981865970358_"
   style="overflow:visible"
   id="use1997" />
				</clipPath>
				<path
   style="fill:#f7941d"
   d="m 67,94.6 c 0,0 -6.8,6.1 -10.3,9.3 -3.4,3.1 -5.1,6.7 -5.4,8 -0.3,1.4 2,7.7 -0.4,8.2 -1.5,0.3 -2.9,-2.7 -2.9,-2.7 0,0 -1.5,2.2 -3.1,2.5 -2.4,0.6 -0.8,-4.5 -0.8,-4.5 0,0 -4.2,4.8 -6.3,1.5 -1.3,-2 1.4,-5.4 8.4,-9.4 6.8,-3.7 22.1,-23.4 22.1,-23.4"
   clip-path="url(#SVGID_00000076598901076648526790000017001460841571740863_)"
   id="path2000" />
			</g>
		</g>
	</g>
	<g
   id="g2020">
		<g
   id="g2018">
			<g
   id="g2016">
				<defs
   id="defs2009">
					<rect
   id="SVGID_00000121267830152137281870000005596511489065520786_"
   x="9"
   y="0"
   width="162.89999"
   height="118.7" />
				</defs>
				<clipPath
   id="SVGID_00000039841618406697759820000001277633905033953974_">
					<use
   xlink:href="#SVGID_00000121267830152137281870000005596511489065520786_"
   style="overflow:visible"
   id="use2011" />
				</clipPath>
				<path
   style="fill:#f7941d"
   d="m 72.3,70 c -3.2,8.1 -4.7,13.7 -9.5,33.9 -4.7,20.2 -10.2,32.2 0,36.3 10.2,4.1 28.5,4.4 33.9,3.1 1.4,-0.4 4,-5 4,-16.3 0,-11.4 5.8,-54.7 5.8,-54.7 L 82.2,53 c 0,0 -5.9,6.8 -9.9,17 z"
   clip-path="url(#SVGID_00000039841618406697759820000001277633905033953974_)"
   id="path2014" />
			</g>
		</g>
	</g>
	<g
   id="g2034">
		<g
   id="g2032">
			<g
   id="g2030">
				<defs
   id="defs2023">
					<rect
   id="SVGID_00000055669259459467546270000000960328017351012006_"
   x="9"
   y="0"
   width="162.89999"
   height="118.7" />
				</defs>
				<clipPath
   id="SVGID_00000041276816012922195860000006984602551153841552_">
					<use
   xlink:href="#SVGID_00000055669259459467546270000000960328017351012006_"
   style="overflow:visible"
   id="use2025" />
				</clipPath>
				<path
   style="fill:#ffffff"
   d="m 95,130.7 c 0,15 -5.6,5.3 -11.6,5.3 -6,0 -13.7,11.5 -13.7,-3.5 0,-15 7.7,-50.6 13.7,-50.8 10.8,-0.3 11.6,34.1 11.6,49 z"
   clip-path="url(#SVGID_00000041276816012922195860000006984602551153841552_)"
   id="path2028" />
			</g>
		</g>
	</g>
	<g
   id="g2048">
		<g
   id="g2046">
			<g
   id="g2044">
				<defs
   id="defs2037">
					<rect
   id="SVGID_00000041264862706746106000000014578420171404906120_"
   x="9"
   y="0"
   width="162.89999"
   height="118.7" />
				</defs>
				<clipPath
   id="SVGID_00000018956555490159004420000006272314984363395001_">
					<use
   xlink:href="#SVGID_00000041264862706746106000000014578420171404906120_"
   style="overflow:visible"
   id="use2039" />
				</clipPath>
				<path
   style="fill:#f7941d"
   d="m -11.4,121.9 c 15.2,4.7 27.6,3.7 35.6,2.3 5.9,-1 14.1,-2.6 22.3,-0.2 6.8,2 15.9,9.7 15.9,9.7 0,0 -0.4,17.3 -24.1,19.6 -20.7,2 -47.1,-19.2 -55.3,-28.2 -8.6,-9.2 -5.3,-6.6 5.6,-3.2 z"
   clip-path="url(#SVGID_00000018956555490159004420000006272314984363395001_)"
   id="path2042" />
			</g>
		</g>
	</g>
	<g
   id="g2062">
		<g
   id="g2060">
			<g
   id="g2058">
				<defs
   id="defs2051">
					<rect
   id="SVGID_00000114779087665107671200000010019491963121429945_"
   x="9"
   y="0"
   width="162.89999"
   height="118.7" />
				</defs>
				<clipPath
   id="SVGID_00000108311259016294576170000003067130597382971051_">
					<use
   xlink:href="#SVGID_00000114779087665107671200000010019491963121429945_"
   style="overflow:visible"
   id="use2053" />
				</clipPath>
				<path
   style="fill:#ffffff"
   d="m -12.7,120.4 c 14.7,4.8 26.6,5 34.6,4.2 -3.4,2.3 -9.5,7.1 -7.8,7.3 2.2,0.3 10.9,4.9 8.2,4.6 -2.6,-0.3 -9.2,0 -9.2,0 0,0 6.5,6.5 5.6,6.8 -0.9,0.3 -9.4,-3.1 -9.4,-3.1 0,0 0.1,3.1 -0.3,5.4 -12.2,-6.8 -22.8,-15.6 -27.5,-21.1 -7.8,-9.6 -5,-7.7 5.8,-4.1 z"
   clip-path="url(#SVGID_00000108311259016294576170000003067130597382971051_)"
   id="path2056" />
			</g>
		</g>
	</g>
	<g
   id="g2076">
		<g
   id="g2074">
			<g
   id="g2072">
				<defs
   id="defs2065">
					<rect
   id="SVGID_00000055697903460600130860000012446028713126558619_"
   x="9"
   y="0"
   width="162.89999"
   height="118.7" />
				</defs>
				<clipPath
   id="SVGID_00000179638680608502090030000016597881384191924923_">
					<use
   xlink:href="#SVGID_00000055697903460600130860000012446028713126558619_"
   style="overflow:visible"
   id="use2067" />
				</clipPath>
				
					<path
   style="fill:none;stroke:#f7941d;stroke-width:0.11"
   d="m -12.7,120.4 c 14.7,4.8 26.6,5 34.6,4.2 -3.4,2.3 -9.5,7.1 -7.8,7.3 2.2,0.3 10.9,4.9 8.2,4.6 -2.6,-0.3 -9.2,0 -9.2,0 0,0 6.5,6.5 5.6,6.8 -0.9,0.3 -9.4,-3.1 -9.4,-3.1 0,0 0.1,3.1 -0.3,5.4 -12.2,-6.8 -22.8,-15.6 -27.5,-21.1 -7.8,-9.6 -5,-7.7 5.8,-4.1 z"
   clip-path="url(#SVGID_00000179638680608502090030000016597881384191924923_)"
   id="path2070" />
			</g>
		</g>
	</g>
	<g
   id="g2090">
		<g
   id="g2088">
			<g
   id="g2086">
				<defs
   id="defs2079">
					<rect
   id="SVGID_00000016069790313071008320000012045700402860481688_"
   x="9"
   y="0"
   width="162.89999"
   height="118.7" />
				</defs>
				<clipPath
   id="SVGID_00000018224405696891742730000017903414647427955105_">
					<use
   xlink:href="#SVGID_00000016069790313071008320000012045700402860481688_"
   style="overflow:visible"
   id="use2081" />
				</clipPath>
				
					<path
   style="fill:none;stroke:#d3d2c2;stroke-width:0.11;stroke-linecap:round"
   d="M 9.2,145.6 C -3,138.8 -13.7,130 -18.3,124.5 c -8,-9.7 -5.3,-7.7 5.6,-4.1 14.7,4.8 26.6,5 34.6,4.2"
   clip-path="url(#SVGID_00000018224405696891742730000017903414647427955105_)"
   id="path2084" />
			</g>
		</g>
	</g>
	<g
   id="g2104">
		<g
   id="g2102">
			<g
   id="g2100">
				<defs
   id="defs2093">
					<rect
   id="SVGID_00000106844281957961923320000013623749152082427552_"
   x="9"
   y="0"
   width="162.89999"
   height="118.7" />
				</defs>
				<clipPath
   id="SVGID_00000108296956893313308920000009887138961845058206_">
					<use
   xlink:href="#SVGID_00000106844281957961923320000013623749152082427552_"
   style="overflow:visible"
   id="use2095" />
				</clipPath>
				<path
   d="m 69,125.4 c 0,0 2.9,-30.2 2.1,-36.4 C 69.6,77.4 68.3,76.7 68.3,76.7 l 1.5,-1.9 c 0,0 3.3,2.9 5,14.5 0.9,6.7 -1.2,36.2 -1.2,36.2 z"
   clip-path="url(#SVGID_00000108296956893313308920000009887138961845058206_)"
   id="path2098" />
			</g>
		</g>
	</g>
	<g
   id="g2118">
		<g
   id="g2116">
			<g
   id="g2114">
				<defs
   id="defs2107">
					<rect
   id="SVGID_00000089558782545340430680000010700510214257270698_"
   x="9"
   y="0"
   width="162.89999"
   height="118.7" />
				</defs>
				<clipPath
   id="SVGID_00000052790280928667461450000002657703080256518819_">
					<use
   xlink:href="#SVGID_00000089558782545340430680000010700510214257270698_"
   style="overflow:visible"
   id="use2109" />
				</clipPath>
				<path
   d="m 95,128.3 c 0,0 4.7,-37.1 7.8,-43.8 1.6,-3.4 3.6,-5.6 3.6,-5.6 l 0.8,-3.7 c 0,0 -2.7,-0.2 -7.3,7.7 C 96,89.8 91,127.7 91,127.7 Z"
   clip-path="url(#SVGID_00000052790280928667461450000002657703080256518819_)"
   id="path2112" />
			</g>
		</g>
	</g>
	<g
   id="g2132">
		<g
   id="g2130">
			<g
   id="g2128">
				<defs
   id="defs2121">
					<rect
   id="SVGID_00000145027807677053833210000002255312841551340166_"
   x="9"
   y="0"
   width="162.89999"
   height="118.7" />
				</defs>
				<clipPath
   id="SVGID_00000143593987518346843250000000916585624363885703_">
					<use
   xlink:href="#SVGID_00000145027807677053833210000002255312841551340166_"
   style="overflow:visible"
   id="use2123" />
				</clipPath>
				<path
   style="fill:#f7941d"
   d="m 116.7,45.7 c 0,0 -0.9,-1.6 0.8,-2.5 1.7,-0.9 7.3,-2.5 7.3,-2.5 0,0 -1.9,-1.9 -4.1,-2.9 -1.8,-0.8 -6,-1.7 -6,-1.7 0,0 -2.4,-5.8 -3.5,-8.6 C 107.6,18.1 104,11.4 101.5,6.1 99,0.8 98.5,5.4 97.8,7.2 97.1,8.9 92,27.4 92,27.4 c 0,0 -2.4,0.7 -9.6,2.5 -7.1,1.8 -14.8,4.5 -14.8,4.5 0,0 -17.2,-10.3 -20,-11.5 -2.8,-1.2 1,10 2.2,13.9 2.1,7.4 2.4,14.8 2.4,14.8 0,0 -2.6,2.6 -4.8,5.7 -2.1,3 -4,9.5 -2.3,7.1 1.7,-2.4 8.2,-3.6 8.2,-3.6 0,0 -1.2,3.3 -1.6,4.4 -1.2,3.7 -2.2,7.2 -2.2,7.2 0,0 2.3,-1.1 5.4,-4 3.1,-2.9 4.2,-3.7 2.4,0.9 -1.8,4.7 -1.4,7.6 -1.4,7.6 0,0 1.5,-1.6 3.4,-3.1 1.8,-1.4 3.8,-0.1 3.8,-0.1 0,0 12.5,8.3 24.4,21.1 16,17.2 18.9,15 19.1,14 0.7,-3.5 3,-29.5 4.2,-47 0.3,-0.3 0,-0.9 0.9,-1.7 4.5,-3.8 8.2,-3.8 8.2,-3.8 0,0 0,-0.5 -1.2,-1.7 -2.2,-2.2 -4.4,-3.3 -4.4,-3.3 0,0 -0.2,-0.8 3.6,-1.1 3.1,-0.3 5.6,-0.2 5.6,-0.2 0,0 -1.2,-1.4 -2.9,-2.4 -1.7,-0.8 -3.9,-1.9 -3.9,-1.9 z"
   clip-path="url(#SVGID_00000143593987518346843250000000916585624363885703_)"
   id="path2126" />
			</g>
		</g>
	</g>
	<g
   id="g2146">
		<g
   id="g2144">
			<g
   id="g2142">
				<defs
   id="defs2135">
					<rect
   id="SVGID_00000072978446129764520140000012273661886583895462_"
   x="9"
   y="0"
   width="162.89999"
   height="118.7" />
				</defs>
				<clipPath
   id="SVGID_00000155840643073102502030000013461551523193885080_">
					<use
   xlink:href="#SVGID_00000072978446129764520140000012273661886583895462_"
   style="overflow:visible"
   id="use2137" />
				</clipPath>
				<path
   style="fill:#ffffff"
   d="m 107.3,39.3 c 3.2,2.4 4.3,8.4 1.5,12.3 -2.1,2.9 -7.6,3.8 -10.8,-1 -2.9,-4.5 -1.4,-7.3 0.7,-10.2 2.2,-2.9 5.3,-3.5 8.6,-1.1 z"
   clip-path="url(#SVGID_00000155840643073102502030000013461551523193885080_)"
   id="path2140" />
			</g>
		</g>
	</g>
	<g
   id="g2160">
		<g
   id="g2158">
			<g
   id="g2156">
				<defs
   id="defs2149">
					<rect
   id="SVGID_00000024001428610506786550000000561407276528661913_"
   x="9"
   y="0"
   width="162.89999"
   height="118.7" />
				</defs>
				<clipPath
   id="SVGID_00000176750656785209850730000005965668374248275335_">
					<use
   xlink:href="#SVGID_00000024001428610506786550000000561407276528661913_"
   style="overflow:visible"
   id="use2151" />
				</clipPath>
				<path
   d="m 107,46.8 c 0.6,0.4 1.4,0.3 1.8,-0.3 0.4,-0.6 0.3,-1.4 -0.3,-1.8 -0.6,-0.4 -1.4,-0.3 -1.8,0.3 -0.4,0.5 -0.3,1.3 0.3,1.8 z"
   clip-path="url(#SVGID_00000176750656785209850730000005965668374248275335_)"
   id="path2154" />
			</g>
		</g>
	</g>
	<g
   id="g2174">
		<g
   id="g2172">
			<g
   id="g2170">
				<defs
   id="defs2163">
					<rect
   id="SVGID_00000076570360776869828160000007317692845737213618_"
   x="9"
   y="0"
   width="162.89999"
   height="118.7" />
				</defs>
				<clipPath
   id="SVGID_00000009578603759516568150000007340707987708231062_">
					<use
   xlink:href="#SVGID_00000076570360776869828160000007317692845737213618_"
   style="overflow:visible"
   id="use2165" />
				</clipPath>
				<path
   style="fill:#ffffff"
   d="m 66.9,51.5 c -1.4,3.1 0.2,8.1 3.8,9.9 2.8,1.3 7.3,-0.2 7.6,-5.2 0.3,-4.5 -0.9,-6.5 -3.6,-7.8 C 72,47 68.4,48.3 66.9,51.5 Z"
   clip-path="url(#SVGID_00000009578603759516568150000007340707987708231062_)"
   id="path2168" />
			</g>
		</g>
	</g>
	<g
   id="g2188">
		<g
   id="g2186">
			<g
   id="g2184">
				<defs
   id="defs2177">
					<rect
   id="SVGID_00000108269737965412811710000011532131597319727250_"
   x="9"
   y="0"
   width="162.89999"
   height="118.7" />
				</defs>
				<clipPath
   id="SVGID_00000103254708641630553540000012557253809128329609_">
					<use
   xlink:href="#SVGID_00000108269737965412811710000011532131597319727250_"
   style="overflow:visible"
   id="use2179" />
				</clipPath>
				<path
   d="m 73.3,55.6 c 0.4,0.6 1.2,0.8 1.8,0.4 0.6,-0.4 0.8,-1.2 0.4,-1.8 -0.4,-0.6 -1.2,-0.8 -1.8,-0.4 -0.6,0.4 -0.8,1.1 -0.4,1.8 z"
   clip-path="url(#SVGID_00000103254708641630553540000012557253809128329609_)"
   id="path2182" />
			</g>
		</g>
	</g>
	<g
   id="g2202">
		<g
   id="g2200">
			<g
   id="g2198">
				<defs
   id="defs2191">
					<rect
   id="SVGID_00000112619567986977670930000018375842251297328814_"
   x="9"
   y="0"
   width="162.89999"
   height="118.7" />
				</defs>
				<clipPath
   id="SVGID_00000052804934757515056340000004338890953213825200_">
					<use
   xlink:href="#SVGID_00000112619567986977670930000018375842251297328814_"
   style="overflow:visible"
   id="use2193" />
				</clipPath>
				<path
   style="fill:#ffffff"
   d="M 86.5,83.7 C 81.2,76.4 71.1,74 63.8,74.3 c 4.4,3.7 7.7,6.5 18.8,16.8 1.4,1.3 7,6 8,7.3 -0.3,-4.6 -1,-10.5 -4.1,-14.7 z"
   clip-path="url(#SVGID_00000052804934757515056340000004338890953213825200_)"
   id="path2196" />
			</g>
		</g>
	</g>
	<g
   id="g2216">
		<g
   id="g2214">
			<g
   id="g2212">
				<defs
   id="defs2205">
					<rect
   id="SVGID_00000094607391350598490300000006915821119884429199_"
   x="9"
   y="0"
   width="162.89999"
   height="118.7" />
				</defs>
				<clipPath
   id="SVGID_00000022520033103409334640000011342353453863807882_">
					<use
   xlink:href="#SVGID_00000094607391350598490300000006915821119884429199_"
   style="overflow:visible"
   id="use2207" />
				</clipPath>
				
					<path
   style="fill:none;stroke:#d3d2c2;stroke-width:0.11;stroke-linecap:round"
   d="m 63.8,74.3 c 4.1,3.7 5.9,4.4 17.4,15.5 1.3,1.3 8.9,7.6 9.9,9.1"
   clip-path="url(#SVGID_00000022520033103409334640000011342353453863807882_)"
   id="path2210" />
			</g>
		</g>
	</g>
	<g
   id="g2230">
		<g
   id="g2228">
			<g
   id="g2226">
				<defs
   id="defs2219">
					<rect
   id="SVGID_00000011713379584721174430000011514263840717707427_"
   x="9"
   y="0"
   width="162.89999"
   height="118.7" />
				</defs>
				<clipPath
   id="SVGID_00000177449889610357608750000005053318689365394086_">
					<use
   xlink:href="#SVGID_00000011713379584721174430000011514263840717707427_"
   style="overflow:visible"
   id="use2221" />
				</clipPath>
				<path
   style="fill:#ffffff"
   d="m 105.1,77.3 c -0.3,4.4 0.8,12.8 3.2,15 1.3,-14 2.6,-28.7 3.4,-31.9 -2.8,1.4 -6.1,8.9 -6.6,16.9 z"
   clip-path="url(#SVGID_00000177449889610357608750000005053318689365394086_)"
   id="path2224" />
			</g>
		</g>
	</g>
	<g
   id="g2244">
		<g
   id="g2242">
			<g
   id="g2240">
				<defs
   id="defs2233">
					<rect
   id="SVGID_00000124856477464236072530000016788879879811412624_"
   x="9"
   y="0"
   width="162.89999"
   height="118.7" />
				</defs>
				<clipPath
   id="SVGID_00000096058231124460363550000012216817786173470626_">
					<use
   xlink:href="#SVGID_00000124856477464236072530000016788879879811412624_"
   style="overflow:visible"
   id="use2235" />
				</clipPath>
				
					<path
   style="fill:none;stroke:#d3d2c2;stroke-width:0.11;stroke-linecap:round"
   d="m 108.3,92.2 c 1.3,-14 2.6,-28.7 3.4,-31.9"
   clip-path="url(#SVGID_00000096058231124460363550000012216817786173470626_)"
   id="path2238" />
			</g>
		</g>
	</g>
	<g
   id="g2258">
		<g
   id="g2256">
			<g
   id="g2254">
				<defs
   id="defs2247">
					<rect
   id="SVGID_00000011725615856637684300000009366886169474781617_"
   x="9"
   y="0"
   width="162.89999"
   height="118.7" />
				</defs>
				<clipPath
   id="SVGID_00000165216561580108529810000009576372450692540581_">
					<use
   xlink:href="#SVGID_00000011725615856637684300000009366886169474781617_"
   style="overflow:visible"
   id="use2249" />
				</clipPath>
				<path
   style="fill:#ffffff"
   d="m 55.6,43 c 0,0 -2.6,-11.8 -1.5,-11.1 1,0.7 9.5,6.5 9.5,6.5 0,0 -3.3,1.3 -4.3,2 -1.1,0.8 -3.7,2.6 -3.7,2.6 z"
   clip-path="url(#SVGID_00000165216561580108529810000009576372450692540581_)"
   id="path2252" />
			</g>
		</g>
	</g>
	<g
   id="g2272">
		<g
   id="g2270">
			<g
   id="g2268">
				<defs
   id="defs2261">
					<rect
   id="SVGID_00000035502041362559255040000015226077246044457603_"
   x="9"
   y="0"
   width="162.89999"
   height="118.7" />
				</defs>
				<clipPath
   id="SVGID_00000106123424185100266050000012111574536614671236_">
					<use
   xlink:href="#SVGID_00000035502041362559255040000015226077246044457603_"
   style="overflow:visible"
   id="use2263" />
				</clipPath>
				<path
   style="fill:#5d3d3d"
   d="m 96.4,104.7 c 5.4,5.2 10.3,9.3 10.9,4.4 0.8,-7 1.2,-16.8 1.2,-16.8 0,0 -14,4 -17.4,6.7 -0.1,0.1 3.8,4.2 5.3,5.7 z"
   clip-path="url(#SVGID_00000106123424185100266050000012111574536614671236_)"
   id="path2266" />
			</g>
		</g>
	</g>
</g>
</svg>
