<svg xmlns="http://www.w3.org/2000/svg" xmlns:xlink="http://www.w3.org/1999/xlink" viewBox="0 0 140.83 131.65"><defs><style>.cls-1{fill:#ffb300;}.cls-2{fill:#fff;}.cls-3{fill:#a3d535;}.cls-4{fill:#77b121;}.cls-5{fill:red;}.cls-10,.cls-6{fill:none;stroke:#000;stroke-linecap:round;}.cls-6{stroke-width:0.83px;}.cls-7{mask:url(#mask);}.cls-8{fill:#ff8000;}.cls-9{mask:url(#mask-2);}.cls-10{stroke-width:0.5px;}</style><mask id="mask" x="8.08" y="62.58" width="131.89" height="64.49" maskUnits="userSpaceOnUse"><g id="mask1"><path class="cls-1" d="M22.72,73.91c-.16.84-.21,11.08,7,15.93,4.56,3.06,8,8,11.6,11.71,2.86,3,9.66,4.33,14.47,5.1,3.57.58,4.36,2.42,8.64,3.93.59.21,6.37,1.2,9.34,1.8,4.56.94,6.3,3.22,10.59,3.69,2.93.32,6.53.09,8.82.34,2,.22,4.85,1.1,7.57,1,1.72-.09,8-2.9,9.82-2.92,5.62,0,8.57-.51,11.29-1.55,1.17-.45,3.41-4.65,6-5.11a10.11,10.11,0,0,0,6.1-4.25,43.93,43.93,0,0,0,2.7-6,13.35,13.35,0,0,1-2.12,8.42,12.94,12.94,0,0,1-4.63,4.15c-1.46.89-3.18,5.11-4.26,6-5.77,4.7-11.88,2.13-13.61,2.91-2.13,1-7.25,4-12.33,3.76s-4.24-1.32-8.68-.84-4.57,1.56-10.39-.13-2.95-3.79-10.86-3.33-8.76-3.23-14.12-4.31-14.53-1.31-20.86-6.35c-1.92-1.53-5.19-6.4-6.77-8.36-2.58-3.19-8.71-4.77-12.7-11-3.31-5.21-2.92-17.34-2.92-17.34Z"/></g></mask><mask id="mask-2" x="10.26" y="51.74" width="22.97" height="14.24" maskUnits="userSpaceOnUse"><g id="mask2"><path class="cls-2" d="M32.89,57.78c-1.64-2.22-4,2.41-11.3.5C16.67,57,14.71,50.52,12.05,52c-3.73,2-1.72,10.1,6.79,13.2C25.52,67.59,35.18,60.89,32.89,57.78Z"/></g></mask></defs><title>caterpillar</title><g id="Layer_2" data-name="Layer 2"><g id="Layer_1-2" data-name="Layer 1"><path class="cls-3" d="M132.54,89.64s0-4.88,2.69-6.66,3.49-6.15,4.62-2.89S142.1,92.44,137.29,94,132.54,89.64,132.54,89.64Z"/><path class="cls-4" d="M123.52,91.12c.62-2.45,5.65-6.9,9.57-3.3s4.74,11.79,1.38,17.62c-3,5.19-9.31,4.45-10.56-.61C122.53,99.21,122.54,95,123.52,91.12Z"/><path class="cls-3" d="M111.64,91.57s4-4.46,8.49-2.85,10.19,10.45,8.9,19.39-9.77,11.56-13.49,9.56a13.08,13.08,0,0,1-6.45-9.81C108.66,104.17,111.64,91.57,111.64,91.57Z"/><path class="cls-4" d="M96.66,88.42c1.52-2,7.93-3.74,12.64-.9,7.23,4.35,7.26,23.3,2.5,28.16s-11.12,7-15.55,4.29-4.58-9-3.57-14.36S94,92,96.66,88.42Z"/><path class="cls-3" d="M90.37,84c6.37,2.15,8.95,16.14,7.45,23.67S92.47,122.22,86.15,121s-10.29-3-11.41-7.69S70.73,77.46,90.37,84Z"/><path class="cls-4" d="M65.77,80.65c2.32-2.14,8.67-4.27,12.62,1.74C83.71,90.47,82.26,97,80.72,105,79.37,111.9,75.36,119.58,65.3,117s-13.58-10.18-11-17.12S61.64,84.44,65.77,80.65Z"/><path class="cls-3" d="M54.47,76.05s5.21-2.58,10-.16S68,91.85,61,102.47c-5.26,8-12.85,13.58-23,6.32-5.76-4.13-9.62-8.68-7.89-15.91S54.47,76.05,54.47,76.05Z"/><path class="cls-1" d="M46.07,32.27s5.91-5.53,9.06-7.39a56.6,56.6,0,0,1,6.8-3.32l1.17,1.67a28.35,28.35,0,0,0-7.21,3.71,50.62,50.62,0,0,0-7.62,7.49Z"/><path class="cls-1" d="M23.23,25.63s.51-6,.48-11.11a25.49,25.49,0,0,0-.6-5.8l-1.7,0a69.58,69.58,0,0,1-.11,8.19A63.67,63.67,0,0,1,20.08,26Z"/><path class="cls-5" d="M27,5A4.91,4.91,0,1,1,22.16,0,4.9,4.9,0,0,1,27,5Z"/><path class="cls-5" d="M70.15,21.66a4.91,4.91,0,1,1-4.84-4.95A4.9,4.9,0,0,1,70.15,21.66Z"/><path class="cls-4" d="M45.55,64.52c8.35,1.35,14.16,12.8,2.64,23.29-8.21,7.48-19,14.58-30.44,3.73C13,87,11.53,77.29,16.6,70.57,21.8,63.66,37.29,63.18,45.55,64.52Z"/><path class="cls-6" d="M109.19,116.62c-1.37,9.41-1.25,8.83-1.45,12.37,0,.31-4.62-.07-4.38-.05"/><path class="cls-6" d="M91.56,118.74c-1.37,9.41-1.25,8.84-1.45,12.38,0,.31-4.63-.07-4.38-.06"/><path class="cls-6" d="M75.56,115.46c-1.36,9.41-1.25,8.84-1.44,12.38,0,.31-4.62-.07-4.38-.06"/><path class="cls-6" d="M60.11,114.21c-3.82,8.72-3.56,8.19-4.68,11.56-.11.29-4.44-1.29-4.21-1.21"/><path class="cls-6" d="M45.65,108.2c-3.83,8.72-3.56,8.19-4.69,11.56-.1.29-4.44-1.29-4.21-1.21"/><path class="cls-6" d="M33,102.55c-7.77,5.51-7.27,5.19-10,7.5-.23.2-3.15-3.38-3-3.2"/><path class="cls-6" d="M16.9,89.68c-7.76,5.51-7.27,5.19-10,7.5-.24.2-3.15-3.38-3-3.19"/><g class="cls-7"><path class="cls-1" d="M22.72,73.91c-.16.84-.21,11.08,7,15.93,4.56,3.06,8,8,11.6,11.71,2.86,3,9.66,4.33,14.47,5.1,3.57.58,4.36,2.42,8.64,3.93.59.21,6.37,1.2,9.34,1.8,4.56.94,6.3,3.22,10.59,3.69,2.93.32,6.53.09,8.82.34,2,.22,4.85,1.1,7.57,1,1.72-.09,8-2.9,9.82-2.92,5.62,0,8.57-.51,11.29-1.55,1.17-.45,3.41-4.65,6-5.11a10.11,10.11,0,0,0,6.1-4.25,43.93,43.93,0,0,0,2.7-6,13.35,13.35,0,0,1-2.12,8.42,12.94,12.94,0,0,1-4.63,4.15c-1.46.89-3.18,5.11-4.26,6-5.77,4.7-11.88,2.13-13.61,2.91-2.13,1-7.25,4-12.33,3.76s-4.24-1.32-8.68-.84-4.57,1.56-10.39-.13-2.95-3.79-10.86-3.33-8.76-3.23-14.12-4.31-14.53-1.31-20.86-6.35c-1.92-1.53-5.19-6.4-6.77-8.36-2.58-3.19-8.71-4.77-12.7-11-3.31-5.21-2.92-17.34-2.92-17.34Z"/><path class="cls-8" d="M8.08,75.16s10.65-10.5,14.77-12.49,15,29.15,15,29.15-7.77,9.3-13.25,10.71S8.08,75.16,8.08,75.16Z"/><path class="cls-8" d="M46.73,120.22s10.15-9.51,11.69-13.8,19.51,2.87,19.51,2.87a40,40,0,0,1-8.15,14.46C65.91,127.88,46.73,120.22,46.73,120.22Z"/><path class="cls-8" d="M90.47,127.07s5.71-11.31,5.94-15.15,15.67-6,15.67-6a39.22,39.22,0,0,1-3,14.17C107,124.8,90.47,127.07,90.47,127.07Z"/><path class="cls-8" d="M137.35,119.45s-7.93-9.87-11.34-11.68,1.08-16.7,1.08-16.7a39.66,39.66,0,0,1,11.65,8.68C142.16,103.56,137.35,119.45,137.35,119.45Z"/></g><path class="cls-3" d="M15.28,73.42C7.64,71-3.34,59.87,1,43.81c4.48-16.71,18.48-19.71,30-18s21.49,7.37,24.9,16.23S57.26,66.9,45,72.28C31,78.4,22.71,75.78,15.28,73.42Z"/><path class="cls-2" d="M19.35,41c-.44,3.69-2.9,5.47-6.76,5.41S6.54,43.8,6.81,40c.23-3.25,3.28-6.75,7.08-6C18.19,34.78,19.79,37.21,19.35,41Z"/><path d="M13.2,40a1.27,1.27,0,0,1-1.43,1.31,1.33,1.33,0,1,1,0-2.66A1.41,1.41,0,0,1,13.2,40Z"/><path class="cls-2" d="M46.26,47.32c-.44,3.83-3,6.41-7,6.36S33,51,33.26,47A6.53,6.53,0,0,1,40,40.77C44,40.82,46.72,43.39,46.26,47.32Z"/><path d="M38.76,46.75a1.27,1.27,0,0,1-1.43,1.31,1.33,1.33,0,1,1,0-2.66A1.4,1.4,0,0,1,38.76,46.75Z"/><g class="cls-9"><path class="cls-2" d="M32.89,57.78c-1.64-2.22-4,2.41-11.3.5C16.67,57,14.71,50.52,12.05,52c-3.73,2-1.72,10.1,6.79,13.2C25.52,67.59,35.18,60.89,32.89,57.78Z"/><path class="cls-10" d="M22.54,57.3l-2.87,8.09"/><path class="cls-10" d="M17.27,54.22,13.16,63.6"/><path class="cls-10" d="M27.37,57.48,27,65.73"/></g></g></g></svg>