<svg xmlns="http://www.w3.org/2000/svg" viewBox="0 0 166.54 161.26"><defs><style>.cls-1{fill:#ffb300;}.cls-2{fill:#41aa54;}.cls-3{fill:#b7b19a;}.cls-4{fill:#fff;}.cls-5{fill:#ccccb8;}.cls-6{fill:none;stroke:#000;stroke-linecap:round;stroke-width:0.95px;}</style></defs><title>duck</title><g id="Layer_2" data-name="Layer 2"><g id="Layer_1-2" data-name="Layer 1"><path class="cls-1" d="M136.81,32.06c-.35-3.75-2.67-15-2.67-15s13.29,2.71,18,1.15,14.43-9.75,14.43-1.57-7.36,17.06-10.68,19.77c-10.92,8.89-19.09,8.92-19.09,8.92S137.12,35.38,136.81,32.06Z"/><path class="cls-1" d="M56.54,122.29s-3.92,7.75-7.75,11.76c-3.38,3.53-8.22,6.36-7.14,6.88,2.28,1.13,19,9.16,18.46,10S56,150,54.58,152.58s-2.43,4.23-3.33,4-5-1.72-5.78.34-.64,5.87-2.36,3.6S32.5,142.73,32.85,139.63c.17-1.54,6.72-4.91,11.23-9.48a38,38,0,0,0,7-10.33Z"/><path class="cls-1" d="M85.81,122.77a40.87,40.87,0,0,1,4.33,10.78c1.44,6.14,1.41,13.56,2.53,12.94,2.24-1.23,16.65-9.47,17-8.55s-1.38,3.46-.12,6.08,2.14,2.95,1.46,3.58-4.27,3.13-3,4.92,4.46,3.89,1.62,4-17.66-.52-20.41-2c-3.94-2.09-3-11.28-5.42-19.73a69.91,69.91,0,0,0-4.87-12.07Z"/><path class="cls-2" d="M135.52,17.43C129.71-6.82,81.91-9.76,81.65,34.52c-.1,18.08-5.47,21-5.47,21l58,17.33S140.68,39,135.52,17.43Z"/><path class="cls-3" d="M134.7,68.91s11.3,36-22.55,52.43c-23.8,11.54-56.28,11.59-77-4.14S-2.9,65.12.41,64.33s8.28,3.35,8.28,3.35-6.62-9.94-4.14-9.94,9.93,6.59,9.93,6.59S8.43,56.74,12,57.74C16.35,59,22.16,66.53,33.59,68c25.29,3.28,43.9-12.75,43.9-12.75Z"/><path class="cls-4" d="M136.16,64.07v11.8S113.6,72.49,104,70.58c-21.77-4.34-27.8-15-27.8-15l2.54-8.49s1.59,7,20.56,12.37C107.7,61.84,136.16,64.07,136.16,64.07Z"/><path class="cls-4" d="M107.88,31.53c4.86.66,8.1-2.41,8.77-7.27s-2.14-8.75-7-9.42-8.34,2.88-9,7.75S103,30.86,107.88,31.53Z"/><path d="M110.62,24.72a1.43,1.43,0,0,0,1.68-1.36,1.48,1.48,0,1,0-2.93-.4A1.56,1.56,0,0,0,110.62,24.72Z"/><path class="cls-5" d="M52.94,75.77c-15.64.92-25.95-11-23.49-3.07s11.94,33.49,34.65,29.81,27.84-21,18.12-29.19S64.47,75.09,52.94,75.77Z"/><path class="cls-6" d="M131,35.72s-1.22,2.7-3.27,3.09a4,4,0,0,1-4-1.54"/></g></g></svg>