<svg xmlns="http://www.w3.org/2000/svg" viewBox="0 0 89.59 129.66"><defs><style>.cls-1{fill:#ffe610;}.cls-2{fill:#6a2403;}.cls-3{fill:#7dc328;}</style></defs><title>pear</title><g id="Layer_2" data-name="Layer 2"><g id="Layer_1-2" data-name="Layer 1"><path class="cls-1" d="M36,37.51c-6.55,12.11-3.3,21-22,35.63s-17.5,39-4,44.63c7.46,3.13,14.31-.66,22.57,3.28S45.14,132,61.49,128.89s19.14-20.75,15.75-32.18C73,82.41,70.83,74.9,70.36,65.43c-.69-13.89,2.86-30-5.76-33.79S43.68,23.36,36,37.51Z"/><path class="cls-2" d="M57.56,30.79c-2.21-.37-2.14-1.74-2.14-1.74a45.93,45.93,0,0,0,.39-9.13c-.55-5.6-6.16-13-6.16-13l3.43-2.08s4.86,7,6,10.39c3,8.85,1.11,15.52,1.11,15.52S60,31.2,57.56,30.79Z"/><path class="cls-3" d="M58.53,16.8S64.42,7.25,73.88,4.06A94.53,94.53,0,0,1,89.59,0S86.76,15.46,78.3,18.09,58.53,16.8,58.53,16.8Z"/></g></g></svg>