<svg xmlns="http://www.w3.org/2000/svg" viewBox="0 0 142.36 104.62"><defs><style>.cls-1{fill:#bab4a0;}.cls-2{fill:#f989b8;}.cls-3{fill:#b8b495;}.cls-4{fill:#c4c4ae;}.cls-5{fill:#faa6cd;}.cls-6{fill:#e1e1c8;}.cls-7{fill:none;stroke:#000;stroke-linecap:round;stroke-width:0.5px;}.cls-8{fill:#fff;}.cls-9{fill:#dbdbca;}</style></defs><title>rat</title><g id="Layer_2" data-name="Layer 2"><g id="Layer_1-2" data-name="Layer 1"><path class="cls-1" d="M73.64,27.88S86,7.56,68.74,1.46c-14.17-5-20.42,4-21,10.79a20.2,20.2,0,0,0,5.72,16.3Z"/><path class="cls-2" d="M68.94,27.47s2.22-3.27,1.91-6.64-2.78-7.66-9-7S56.3,21.8,57.5,24.29s1.69,2.84,1.69,2.84Z"/><path class="cls-3" d="M62.68,78.08c-5.26,7.32,2,15.86,2,15.86a20.53,20.53,0,0,0-8-3.12,40.07,40.07,0,0,0-10.11-.3c-3.17.29-4.52,3.28-3.16,3.81a3.14,3.14,0,0,0,2.76-.59S44.37,95.52,45.7,96s2.81-1.27,2.81-1.27-.72,1.17.11,1.94S50,94.73,50,94.73a16.91,16.91,0,0,1,5.83,0c3.63.59,7.45,3,9.5,3.36,3.7.6,16.42.12,15.73-9.14S69.11,69.13,62.68,78.08Z"/><path class="cls-3" d="M68.56,61.13c-7.22,9.41-14.43,7.67-17.2,8.07-.6.09-3.77.71-4.52-.4-1-1.46,1.77-1.32,1.77-1.32s-3.3-1-2.34-2.47c.39-.61,2.54.07,2.54.07s-2.22-1.89-.9-2.42,3.79,2,3.79,2a12.29,12.29,0,0,0,6.74-1c3.64-2,7.2-7.87,9.29-7.06S69.15,60.35,68.56,61.13Z"/><path class="cls-4" d="M61.74,27.16c-15.18,2-31.22,3-40.53,2.44-10.37-.67-24.59,8.28-16,13.8C17.78,51.51,31.25,55.37,43,58s14.17,3.12,14.1,8.72S54.25,83,55.61,88s4.47,9.3,7.91,10.51c8.32,2.93,18.49,3.79,21.74.28s4.5-7.19,2.08-22.75c-1.48-9.47-6.29-10.4-3-15s8.08-14.51,4.92-22.35C84.34,26.54,71.63,25.88,61.74,27.16Z"/><path d="M21.76,29.63s-13.81.55-16.27.9c-5.62.82-9,7.39.48,13.38s10.61,5.54,10.61,5.54a102.86,102.86,0,0,1,2.83-12.52C20.92,32.49,21.76,29.63,21.76,29.63Z"/><path class="cls-1" d="M82.34,30.44s7.15-6.59,15.47-7.07,19.66,4,20.2,19.26S100.73,59.05,94.22,57,86.68,54,86.68,54Z"/><path class="cls-5" d="M85.64,41.48c-1-4.17-1.52-5.81-1.52-5.81s3.38-3.12,7.32-3.35,9.32,1.9,9.57,9.13-8.19,7.77-11.27,6.81S86.47,47,86.47,47A25.26,25.26,0,0,0,85.64,41.48Z"/><path class="cls-6" d="M68.58,73.5c-10,6.44-16.18,2.38-18.92,1.83-.6-.12-3.79-.6-4.13-1.9-.44-1.7,2.12-.65,2.12-.65s-2.77-2-1.38-3.11c.59-.44,2.37.91,2.37.91s-1.45-2.52,0-2.57,2.88,3.2,2.88,3.2a12.22,12.22,0,0,0,6.69,1.29c4.09-.62,9.44-5,11.13-3.53S69.4,73,68.58,73.5Z"/><path class="cls-7" d="M83.11,97.32s9.56,3.36,13.73,1.23c7.56-3.89,9.71,2,16.44,5s8-2.42,14-6.58,9.71.17,12.26-1.78a6.58,6.58,0,0,0,2.58-4.79"/><path class="cls-8" d="M69.35,41.1c-1.19,3.89-3,5.62-7,5.57s-7.81-2-7.08-7.48c.55-4,3.63-6.54,8-6.47C67.25,32.78,70.51,37.29,69.35,41.1Z"/><path d="M62.49,39.28a1.34,1.34,0,0,1-1.9.6A1.51,1.51,0,0,1,60,37.81a1.25,1.25,0,0,1,1.8-.56A1.45,1.45,0,0,1,62.49,39.28Z"/><path class="cls-7" d="M57.76,52.94s-.84,3.86,2.2,4.34a4.9,4.9,0,0,0,4.64-1.71"/><path class="cls-9" d="M68.17,83.31C63.55,91,71.5,98.94,71.5,98.94a20.73,20.73,0,0,0-8.23-2.44,40.3,40.3,0,0,0-10.1.55c-3.13.55-4.23,3.65-2.83,4.06a3.17,3.17,0,0,0,2.71-.82s-1.66,1.92-.3,2.27,2.7-1.49,2.7-1.49-.62,1.22.26,1.92S57,101,57,101a17,17,0,0,1,5.8-.44c3.68.29,7.68,2.4,9.76,2.56,3.74.29,16.37-1.26,14.9-10.43S73.83,73.86,68.17,83.31Z"/></g></g></svg>