<svg xmlns="http://www.w3.org/2000/svg" viewBox="0 0 156.86 73.38"><defs><style>.cls-1{fill:#11322e;}.cls-2{fill:#1f5c56;}.cls-3{fill:#389789;}.cls-4{fill:#4ab69c;}</style></defs><title>shoe</title><g id="Layer_2" data-name="Layer 2"><g id="Layer_1-2" data-name="Layer 1"><path class="cls-1" d="M63.57,31.33s38-5.8,45.77-7.77c5.21-1.32,36-6.46,40-5.79-4.38,8.82-7.34,7.93-17.78,14.94C125.18,37,78.55,47.24,72.09,44S63.57,31.33,63.57,31.33Z"/><path class="cls-2" d="M0,50.26s.68,15.57,2,18.5,28.26,4.37,46.16,4.11c24.93-.37,53.46-1.8,57.3-9.57,6.34-1,49.51-2.79,49.51-2.79s3.43-17.55,1.15-26-4.08-13.23-6.69-16.7c-.8,1-12.63,7.22-21.09,10-13.22,4.33-36.2,8-54.56,11.48S0,50.26,0,50.26Z"/><path d="M155.26,58.63s-43.48,1.56-49.82,2.55c-3.83,7.77-32.37,9.19-57.29,9.57C30.25,71,4,69.17,2,66.65c-.73-.94-1.32-.33,0,2.6s28.25,4.37,46.16,4.1C73,73,101.57,71.56,105.4,63.79L105.32,70l48.09-1.12,1.42-7.9h.09Z"/><path class="cls-3" d="M37.11,36.83C49,33.33,75.4,21,95.82,1.69c5.05-4.78,11.05.13.17,20.37-7.8,14.52-31.34,23.16-51.3,26.61S4.36,54.19.67,51.76,10.46,44.7,37.11,36.83Z"/><path class="cls-4" d="M75.71,51.22A86.77,86.77,0,0,0,65.22,37.15c-6-6.31-11.11-9.79-10.92-10.73s5.21-4.47,8.36-6.3,9.06-2.49,9.06-2.49S79.52,26,81.5,29.77s8.57,11.51,7.86,13.08S75.71,51.22,75.71,51.22Z"/></g></g></svg>