<svg xmlns="http://www.w3.org/2000/svg" xmlns:xlink="http://www.w3.org/1999/xlink" viewBox="0 0 207.3 98.38"><defs><style>.cls-1{fill:#ffe610;}.cls-2{fill:#7dc328;}.cls-3{fill:#77b121;}.cls-4{fill:#fff;}.cls-5{fill:none;stroke:#000;stroke-linecap:round;stroke-width:0.95px;}.cls-6{mask:url(#mask);}.cls-7{fill:#2a773a;}</style><mask id="mask" x="12.94" y="0" width="146.81" height="84.02" maskUnits="userSpaceOnUse"><g id="mask0"><path class="cls-1" d="M99.67,6c30.28,7.67,45.22,33.15,45.22,33.15s-9.29,20.54-17.4,26.72-28.26,22.94-70,13.84C19.59,71.5,15.14,51.3,15.14,51.3S32.52,32.67,39.81,24.84s27-22.39,48-20.74A69,69,0,0,1,99.67,6Z"/></g></mask></defs><title>turtle</title><g id="Layer_2" data-name="Layer 2"><g id="Layer_1-2" data-name="Layer 1"><path class="cls-2" d="M20.31,53.2S17.37,55.8,11,56.3,0,53.84,0,55.41s4.43,8.91,14.24,8.91,14.59-3.95,14.59-3.95Z"/><path class="cls-3" d="M202.28,20.62c-5.06-5.57-19.56-10-32-4.14s-25.43,22.71-25.43,22.71l-19.13-1.54-5.51,31.22,17.3,11.51C144.7,77.82,153,74.49,163,70.16,214.22,48,210.88,30.08,202.28,20.62Z"/><path class="cls-1" d="M125.06,74.71s17.53-3.66,26.69-9c14.54-8.49,19.92-20.79,19.92-20.79a142.3,142.3,0,0,1-18.52,15.27c-9.25,6.1-27.73,9.61-30.36,10.4s.79,4.36.79,4.36Z"/><path class="cls-1" d="M116.8,63.18s19.52-5.67,25-8.16c15.29-7,17.45-16.89,17.45-16.89a81.75,81.75,0,0,1-15.7,11.48c-9.62,5.46-23.55,10.51-26.22,11.12s-2,2.56-2,2.56Z"/><path class="cls-1" d="M122,68.89l5.13-31.22C107.51,36,74.64,33.29,55.18,32.42c-15.92-.7-36,20.11-39.77,19.76,0,0,.11,9,18.83,22.07,8.3,5.8,41.23,14.56,59.71,14.62,13.87,0,24.17-.77,44.08-8.48Z"/><path class="cls-2" d="M123.92,64.18s17.44,3.88,19.61,8,.45,12.51.45,12.51,6-1.9,10.05-3.31,7.79-2,9.36.48c.59.91-4,1-6.82,2.35l-2.8,1.36s5.55-.27,8,1.21,5.47,3.78,4,5c-.54.44-5.89-2.58-9.18-2-4.7.81-6.64,2.62-6.64,2.62s5.24.68,7,2.65a5.09,5.09,0,0,1,1.43,2.65c0,.89-.89,1.09-4.61-.44S137,94.54,134.89,92.12s.91-8.85-4.95-13.41-16.16-6.47-16.16-6.47Z"/><path class="cls-2" d="M15.55,86.9c.64,1.51,3.7,2.65,6.87,4.82,3.45,2.35,7.06,5.69,8.34,5.86,2.45.32-2.45-6.2-2.45-6.2s10,5.4,11.13,4.51-.61-5.85-4.73-7.37,5.56.23,10.24,2.22c1.49.63,2.37-2.17-3.84-5.34s-13.59-5-12.83-6.24,8.22-5.51,8.22-5.51L28.1,70S14.22,83.78,15.55,86.9Z"/><path class="cls-4" d="M177.28,20.2a8,8,0,0,1,6.16,5c2.78,6.15-1.45,12.9-7.21,12.49s-8.88-4.82-8.41-9.46S171.54,19.33,177.28,20.2Z"/><path d="M179.08,26.61a1.18,1.18,0,0,1,1.26.94c.28.93-.27,2-1.22,2A1.42,1.42,0,0,1,177.73,28C177.82,27.18,178.14,26.59,179.08,26.61Z"/><path class="cls-5" d="M191.18,40.17s2,3.74,5.2,4.06a5.81,5.81,0,0,0,6.22-3.36"/><path class="cls-1" d="M99.67,6c30.28,7.67,45.22,33.15,45.22,33.15s-9.29,20.54-17.4,26.72-28.26,22.94-70,13.84C19.59,71.5,15.14,51.3,15.14,51.3S32.52,32.67,39.81,24.84s27-22.39,48-20.74A69,69,0,0,1,99.67,6Z"/><g class="cls-6"><path class="cls-7" d="M100.93,13.72,99.76,32.1,87.28,21.51l-5-18.15L91.09,0l7.55,1.4Z"/><path class="cls-7" d="M60.09,6.32l4.56,17.05L76.09,39.72l9.63-17.24L81,2.47,69.43.91Z"/><path class="cls-7" d="M47.19,31.82l-.65-18.35L32.63,19.88,26,29l-.53,6.26a38,38,0,0,0,3.06,4.32c1.52,1.8,6.23,6.79,6.23,6.79Z"/><path class="cls-7" d="M100.79,5.17l1.62,8.51,20.32,2-10.24-9.8Z"/><path class="cls-7" d="M48,13.11l.56,17.68,14-8.06L59,7.68Z"/><path class="cls-7" d="M42.4,53.15a56.78,56.78,0,0,0,11.73,4c7.66,1.86,9.33,2,9.33,2L59.28,81.64a31.9,31.9,0,0,1-16.34-5.81c-8.33-5.78-11.16-2.61-11.16-2.61Z"/><path class="cls-7" d="M65.49,59.39a108,108,0,0,0,13.44,1.09l7.86.17,2.23,21s-7.3,4-19.38,1.64c-9.69-1.9-9-1.21-9-1.21Z"/><path class="cls-7" d="M22.84,34.67a84.41,84.41,0,0,0,10.6,12.48c6,5.63,7,5.11,7,5.11l-9.37,18s-9.83-3.37-14.75-12.8-3.1-7.15-3.1-7.15Z"/><path class="cls-7" d="M111.67,52.13s2-1,8.65-5.21A76.55,76.55,0,0,0,128.47,41l13.91,17.89a35.88,35.88,0,0,1-15.08,9.84c-9.44,3.07-7.49,2.78-7.49,2.78Z"/><path class="cls-7" d="M129.85,39.7a61.73,61.73,0,0,0,6.68-6.62c5.32-6.42,5.19-8.55,5.19-8.55l18,12.61a39.22,39.22,0,0,1-11.85,14.28c-8.23,6-4.79,4.7-4.79,4.7Z"/><path class="cls-7" d="M88.41,60.61A108,108,0,0,0,99.81,58c7.6-2.17,10.35-4.14,10.35-4.14l7.7,18.35s-7.1,7.22-16.9,8.14-9.49,3-9.49,3Z"/><path class="cls-7" d="M75.06,58.65l.53-16.46L63.6,24,48.3,33,35.76,47.4c4.51,3.79,8,4.73,13.21,6.49A93.82,93.82,0,0,0,75.06,58.65Z"/><path class="cls-7" d="M138.56,27.24l-10.67-9.83-25.33-2.29L101,33.72l9.48,16.68s3.6-2.08,9.66-5.65A56.06,56.06,0,0,0,138.56,27.24Z"/><path class="cls-7" d="M77.19,58.57,76.65,41.9l10-18L99.91,34.37l9.36,17.55s-5.2,3.33-15,5.44A56,56,0,0,1,77.19,58.57Z"/></g></g></g></svg>